{
  "id": "golden-hour",
  "title": "Piano",
  "artist": "MIDI Source",
  "difficulty": "Médio",
  "bpm": 96,
  "duration": 219,
  "category": "A revisar",
  "isPremium": true,
  "coverUrl": "/images/covers/placeholder.png",
  "notes": [
    {
      "midi": 69,
      "time": 0,
      "duration": 0.078,
      "velocity": 0.39,
      "hand": "right"
    },
    {
      "midi": 69,
      "time": 0,
      "duration": 0.938,
      "velocity": 0.39,
      "hand": "right"
    },
    {
      "midi": 78,
      "time": 0,
      "duration": 0.078,
      "velocity": 0.39,
      "hand": "right"
    },
    {
      "midi": 78,
      "time": 0,
      "duration": 0.938,
      "velocity": 0.39,
      "hand": "right"
    },
    {
      "midi": 73,
      "time": 0.156,
      "duration": 0.156,
      "velocity": 0.39,
      "hand": "right"
    },
    {
      "midi": 80,
      "time": 0.156,
      "duration": 0.156,
      "velocity": 0.39,
      "hand": "right"
    },
    {
      "midi": 76,
      "time": 0.313,
      "duration": 0.156,
      "velocity": 0.39,
      "hand": "right"
    },
    {
      "midi": 83,
      "time": 0.313,
      "duration": 0.156,
      "velocity": 0.39,
      "hand": "right"
    },
    {
      "midi": 73,
      "time": 0.469,
      "duration": 0.156,
      "velocity": 0.39,
      "hand": "right"
    },
    {
      "midi": 85,
      "time": 0.469,
      "duration": 0.156,
      "velocity": 0.39,
      "hand": "right"
    },
    {
      "midi": 76,
      "time": 0.625,
      "duration": 0.156,
      "velocity": 0.39,
      "hand": "right"
    },
    {
      "midi": 83,
      "time": 0.625,
      "duration": 0.156,
      "velocity": 0.39,
      "hand": "right"
    },
    {
      "midi": 73,
      "time": 0.781,
      "duration": 0.156,
      "velocity": 0.39,
      "hand": "right"
    },
    {
      "midi": 80,
      "time": 0.781,
      "duration": 0.156,
      "velocity": 0.39,
      "hand": "right"
    },
    {
      "midi": 69,
      "time": 0.938,
      "duration": 0.078,
      "velocity": 0.39,
      "hand": "right"
    },
    {
      "midi": 69,
      "time": 0.938,
      "duration": 0.938,
      "velocity": 0.39,
      "hand": "right"
    },
    {
      "midi": 78,
      "time": 0.938,
      "duration": 0.078,
      "velocity": 0.39,
      "hand": "right"
    },
    {
      "midi": 78,
      "time": 0.938,
      "duration": 0.938,
      "velocity": 0.39,
      "hand": "right"
    },
    {
      "midi": 73,
      "time": 1.094,
      "duration": 0.156,
      "velocity": 0.39,
      "hand": "right"
    },
    {
      "midi": 80,
      "time": 1.094,
      "duration": 0.156,
      "velocity": 0.39,
      "hand": "right"
    },
    {
      "midi": 76,
      "time": 1.25,
      "duration": 0.156,
      "velocity": 0.39,
      "hand": "right"
    },
    {
      "midi": 83,
      "time": 1.25,
      "duration": 0.156,
      "velocity": 0.39,
      "hand": "right"
    },
    {
      "midi": 73,
      "time": 1.406,
      "duration": 0.156,
      "velocity": 0.39,
      "hand": "right"
    },
    {
      "midi": 85,
      "time": 1.406,
      "duration": 0.156,
      "velocity": 0.39,
      "hand": "right"
    },
    {
      "midi": 76,
      "time": 1.563,
      "duration": 0.156,
      "velocity": 0.39,
      "hand": "right"
    },
    {
      "midi": 83,
      "time": 1.563,
      "duration": 0.156,
      "velocity": 0.39,
      "hand": "right"
    },
    {
      "midi": 73,
      "time": 1.719,
      "duration": 0.156,
      "velocity": 0.39,
      "hand": "right"
    },
    {
      "midi": 80,
      "time": 1.719,
      "duration": 0.156,
      "velocity": 0.39,
      "hand": "right"
    },
    {
      "midi": 69,
      "time": 1.875,
      "duration": 0.078,
      "velocity": 0.39,
      "hand": "right"
    },
    {
      "midi": 69,
      "time": 1.875,
      "duration": 0.938,
      "velocity": 0.39,
      "hand": "right"
    },
    {
      "midi": 78,
      "time": 1.875,
      "duration": 0.078,
      "velocity": 0.39,
      "hand": "right"
    },
    {
      "midi": 78,
      "time": 1.875,
      "duration": 0.938,
      "velocity": 0.39,
      "hand": "right"
    },
    {
      "midi": 73,
      "time": 2.031,
      "duration": 0.156,
      "velocity": 0.39,
      "hand": "right"
    },
    {
      "midi": 80,
      "time": 2.031,
      "duration": 0.156,
      "velocity": 0.39,
      "hand": "right"
    },
    {
      "midi": 76,
      "time": 2.188,
      "duration": 0.156,
      "velocity": 0.39,
      "hand": "right"
    },
    {
      "midi": 83,
      "time": 2.188,
      "duration": 0.156,
      "velocity": 0.39,
      "hand": "right"
    },
    {
      "midi": 73,
      "time": 2.344,
      "duration": 0.156,
      "velocity": 0.39,
      "hand": "right"
    },
    {
      "midi": 85,
      "time": 2.344,
      "duration": 0.156,
      "velocity": 0.39,
      "hand": "right"
    },
    {
      "midi": 76,
      "time": 2.5,
      "duration": 0.156,
      "velocity": 0.39,
      "hand": "right"
    },
    {
      "midi": 83,
      "time": 2.5,
      "duration": 0.156,
      "velocity": 0.39,
      "hand": "right"
    },
    {
      "midi": 73,
      "time": 2.656,
      "duration": 0.156,
      "velocity": 0.39,
      "hand": "right"
    },
    {
      "midi": 80,
      "time": 2.656,
      "duration": 0.156,
      "velocity": 0.39,
      "hand": "right"
    },
    {
      "midi": 69,
      "time": 2.813,
      "duration": 0.078,
      "velocity": 0.39,
      "hand": "right"
    },
    {
      "midi": 69,
      "time": 2.813,
      "duration": 0.938,
      "velocity": 0.39,
      "hand": "right"
    },
    {
      "midi": 78,
      "time": 2.813,
      "duration": 0.078,
      "velocity": 0.39,
      "hand": "right"
    },
    {
      "midi": 78,
      "time": 2.813,
      "duration": 0.938,
      "velocity": 0.39,
      "hand": "right"
    },
    {
      "midi": 73,
      "time": 2.969,
      "duration": 0.156,
      "velocity": 0.39,
      "hand": "right"
    },
    {
      "midi": 80,
      "time": 2.969,
      "duration": 0.156,
      "velocity": 0.39,
      "hand": "right"
    },
    {
      "midi": 76,
      "time": 3.125,
      "duration": 0.156,
      "velocity": 0.39,
      "hand": "right"
    },
    {
      "midi": 83,
      "time": 3.125,
      "duration": 0.156,
      "velocity": 0.39,
      "hand": "right"
    },
    {
      "midi": 73,
      "time": 3.281,
      "duration": 0.156,
      "velocity": 0.39,
      "hand": "right"
    },
    {
      "midi": 85,
      "time": 3.281,
      "duration": 0.156,
      "velocity": 0.39,
      "hand": "right"
    },
    {
      "midi": 76,
      "time": 3.438,
      "duration": 0.156,
      "velocity": 0.39,
      "hand": "right"
    },
    {
      "midi": 83,
      "time": 3.438,
      "duration": 0.156,
      "velocity": 0.39,
      "hand": "right"
    },
    {
      "midi": 73,
      "time": 3.594,
      "duration": 0.156,
      "velocity": 0.39,
      "hand": "right"
    },
    {
      "midi": 80,
      "time": 3.594,
      "duration": 0.156,
      "velocity": 0.39,
      "hand": "right"
    },
    {
      "midi": 68,
      "time": 3.75,
      "duration": 0.078,
      "velocity": 0.39,
      "hand": "right"
    },
    {
      "midi": 68,
      "time": 3.75,
      "duration": 0.938,
      "velocity": 0.39,
      "hand": "right"
    },
    {
      "midi": 76,
      "time": 3.75,
      "duration": 0.078,
      "velocity": 0.39,
      "hand": "right"
    },
    {
      "midi": 76,
      "time": 3.75,
      "duration": 0.938,
      "velocity": 0.39,
      "hand": "right"
    },
    {
      "midi": 71,
      "time": 3.906,
      "duration": 0.156,
      "velocity": 0.39,
      "hand": "right"
    },
    {
      "midi": 80,
      "time": 3.906,
      "duration": 0.156,
      "velocity": 0.39,
      "hand": "right"
    },
    {
      "midi": 75,
      "time": 4.063,
      "duration": 0.156,
      "velocity": 0.39,
      "hand": "right"
    },
    {
      "midi": 83,
      "time": 4.063,
      "duration": 0.156,
      "velocity": 0.39,
      "hand": "right"
    },
    {
      "midi": 71,
      "time": 4.219,
      "duration": 0.156,
      "velocity": 0.39,
      "hand": "right"
    },
    {
      "midi": 85,
      "time": 4.219,
      "duration": 0.156,
      "velocity": 0.39,
      "hand": "right"
    },
    {
      "midi": 75,
      "time": 4.375,
      "duration": 0.156,
      "velocity": 0.39,
      "hand": "right"
    },
    {
      "midi": 83,
      "time": 4.375,
      "duration": 0.156,
      "velocity": 0.39,
      "hand": "right"
    },
    {
      "midi": 71,
      "time": 4.531,
      "duration": 0.156,
      "velocity": 0.39,
      "hand": "right"
    },
    {
      "midi": 80,
      "time": 4.531,
      "duration": 0.156,
      "velocity": 0.39,
      "hand": "right"
    },
    {
      "midi": 68,
      "time": 4.688,
      "duration": 0.078,
      "velocity": 0.39,
      "hand": "right"
    },
    {
      "midi": 68,
      "time": 4.688,
      "duration": 0.938,
      "velocity": 0.39,
      "hand": "right"
    },
    {
      "midi": 76,
      "time": 4.688,
      "duration": 0.078,
      "velocity": 0.39,
      "hand": "right"
    },
    {
      "midi": 76,
      "time": 4.688,
      "duration": 0.938,
      "velocity": 0.39,
      "hand": "right"
    },
    {
      "midi": 71,
      "time": 4.844,
      "duration": 0.156,
      "velocity": 0.39,
      "hand": "right"
    },
    {
      "midi": 80,
      "time": 4.844,
      "duration": 0.156,
      "velocity": 0.39,
      "hand": "right"
    },
    {
      "midi": 75,
      "time": 5,
      "duration": 0.156,
      "velocity": 0.39,
      "hand": "right"
    },
    {
      "midi": 83,
      "time": 5,
      "duration": 0.156,
      "velocity": 0.39,
      "hand": "right"
    },
    {
      "midi": 71,
      "time": 5.156,
      "duration": 0.156,
      "velocity": 0.39,
      "hand": "right"
    },
    {
      "midi": 85,
      "time": 5.156,
      "duration": 0.156,
      "velocity": 0.39,
      "hand": "right"
    },
    {
      "midi": 75,
      "time": 5.313,
      "duration": 0.156,
      "velocity": 0.39,
      "hand": "right"
    },
    {
      "midi": 83,
      "time": 5.313,
      "duration": 0.156,
      "velocity": 0.39,
      "hand": "right"
    },
    {
      "midi": 71,
      "time": 5.469,
      "duration": 0.156,
      "velocity": 0.39,
      "hand": "right"
    },
    {
      "midi": 80,
      "time": 5.469,
      "duration": 0.156,
      "velocity": 0.39,
      "hand": "right"
    },
    {
      "midi": 68,
      "time": 5.625,
      "duration": 0.078,
      "velocity": 0.39,
      "hand": "right"
    },
    {
      "midi": 68,
      "time": 5.625,
      "duration": 0.938,
      "velocity": 0.39,
      "hand": "right"
    },
    {
      "midi": 76,
      "time": 5.625,
      "duration": 0.078,
      "velocity": 0.39,
      "hand": "right"
    },
    {
      "midi": 76,
      "time": 5.625,
      "duration": 0.938,
      "velocity": 0.39,
      "hand": "right"
    },
    {
      "midi": 71,
      "time": 5.781,
      "duration": 0.156,
      "velocity": 0.39,
      "hand": "right"
    },
    {
      "midi": 80,
      "time": 5.781,
      "duration": 0.156,
      "velocity": 0.39,
      "hand": "right"
    },
    {
      "midi": 75,
      "time": 5.938,
      "duration": 0.156,
      "velocity": 0.39,
      "hand": "right"
    },
    {
      "midi": 83,
      "time": 5.938,
      "duration": 0.156,
      "velocity": 0.39,
      "hand": "right"
    },
    {
      "midi": 71,
      "time": 6.094,
      "duration": 0.156,
      "velocity": 0.39,
      "hand": "right"
    },
    {
      "midi": 85,
      "time": 6.094,
      "duration": 0.156,
      "velocity": 0.39,
      "hand": "right"
    },
    {
      "midi": 75,
      "time": 6.25,
      "duration": 0.156,
      "velocity": 0.39,
      "hand": "right"
    },
    {
      "midi": 83,
      "time": 6.25,
      "duration": 0.156,
      "velocity": 0.39,
      "hand": "right"
    },
    {
      "midi": 71,
      "time": 6.406,
      "duration": 0.156,
      "velocity": 0.39,
      "hand": "right"
    },
    {
      "midi": 80,
      "time": 6.406,
      "duration": 0.156,
      "velocity": 0.39,
      "hand": "right"
    },
    {
      "midi": 67,
      "time": 6.563,
      "duration": 0.078,
      "velocity": 0.39,
      "hand": "right"
    },
    {
      "midi": 67,
      "time": 6.563,
      "duration": 0.938,
      "velocity": 0.39,
      "hand": "right"
    },
    {
      "midi": 76,
      "time": 6.563,
      "duration": 0.078,
      "velocity": 0.39,
      "hand": "right"
    },
    {
      "midi": 76,
      "time": 6.563,
      "duration": 0.938,
      "velocity": 0.39,
      "hand": "right"
    },
    {
      "midi": 71,
      "time": 6.719,
      "duration": 0.156,
      "velocity": 0.39,
      "hand": "right"
    },
    {
      "midi": 80,
      "time": 6.719,
      "duration": 0.156,
      "velocity": 0.39,
      "hand": "right"
    },
    {
      "midi": 75,
      "time": 6.875,
      "duration": 0.156,
      "velocity": 0.39,
      "hand": "right"
    },
    {
      "midi": 83,
      "time": 6.875,
      "duration": 0.156,
      "velocity": 0.39,
      "hand": "right"
    },
    {
      "midi": 71,
      "time": 7.031,
      "duration": 0.156,
      "velocity": 0.39,
      "hand": "right"
    },
    {
      "midi": 85,
      "time": 7.031,
      "duration": 0.156,
      "velocity": 0.39,
      "hand": "right"
    },
    {
      "midi": 75,
      "time": 7.188,
      "duration": 0.156,
      "velocity": 0.39,
      "hand": "right"
    },
    {
      "midi": 83,
      "time": 7.188,
      "duration": 0.156,
      "velocity": 0.39,
      "hand": "right"
    },
    {
      "midi": 71,
      "time": 7.344,
      "duration": 0.156,
      "velocity": 0.39,
      "hand": "right"
    },
    {
      "midi": 80,
      "time": 7.344,
      "duration": 0.156,
      "velocity": 0.39,
      "hand": "right"
    },
    {
      "midi": 66,
      "time": 7.5,
      "duration": 0.078,
      "velocity": 0.39,
      "hand": "right"
    },
    {
      "midi": 66,
      "time": 7.5,
      "duration": 0.938,
      "velocity": 0.39,
      "hand": "right"
    },
    {
      "midi": 76,
      "time": 7.5,
      "duration": 0.078,
      "velocity": 0.39,
      "hand": "right"
    },
    {
      "midi": 76,
      "time": 7.5,
      "duration": 0.938,
      "velocity": 0.39,
      "hand": "right"
    },
    {
      "midi": 69,
      "time": 7.656,
      "duration": 0.156,
      "velocity": 0.39,
      "hand": "right"
    },
    {
      "midi": 78,
      "time": 7.656,
      "duration": 0.156,
      "velocity": 0.39,
      "hand": "right"
    },
    {
      "midi": 73,
      "time": 7.813,
      "duration": 0.156,
      "velocity": 0.39,
      "hand": "right"
    },
    {
      "midi": 81,
      "time": 7.813,
      "duration": 0.156,
      "velocity": 0.39,
      "hand": "right"
    },
    {
      "midi": 69,
      "time": 7.969,
      "duration": 0.156,
      "velocity": 0.39,
      "hand": "right"
    },
    {
      "midi": 83,
      "time": 7.969,
      "duration": 0.156,
      "velocity": 0.39,
      "hand": "right"
    },
    {
      "midi": 73,
      "time": 8.125,
      "duration": 0.156,
      "velocity": 0.39,
      "hand": "right"
    },
    {
      "midi": 81,
      "time": 8.125,
      "duration": 0.156,
      "velocity": 0.39,
      "hand": "right"
    },
    {
      "midi": 69,
      "time": 8.281,
      "duration": 0.156,
      "velocity": 0.39,
      "hand": "right"
    },
    {
      "midi": 78,
      "time": 8.281,
      "duration": 0.156,
      "velocity": 0.39,
      "hand": "right"
    },
    {
      "midi": 66,
      "time": 8.438,
      "duration": 0.078,
      "velocity": 0.39,
      "hand": "right"
    },
    {
      "midi": 66,
      "time": 8.438,
      "duration": 0.938,
      "velocity": 0.39,
      "hand": "right"
    },
    {
      "midi": 76,
      "time": 8.438,
      "duration": 0.078,
      "velocity": 0.39,
      "hand": "right"
    },
    {
      "midi": 76,
      "time": 8.438,
      "duration": 0.938,
      "velocity": 0.39,
      "hand": "right"
    },
    {
      "midi": 69,
      "time": 8.594,
      "duration": 0.156,
      "velocity": 0.39,
      "hand": "right"
    },
    {
      "midi": 78,
      "time": 8.594,
      "duration": 0.156,
      "velocity": 0.39,
      "hand": "right"
    },
    {
      "midi": 73,
      "time": 8.75,
      "duration": 0.156,
      "velocity": 0.39,
      "hand": "right"
    },
    {
      "midi": 81,
      "time": 8.75,
      "duration": 0.156,
      "velocity": 0.39,
      "hand": "right"
    },
    {
      "midi": 69,
      "time": 8.906,
      "duration": 0.156,
      "velocity": 0.39,
      "hand": "right"
    },
    {
      "midi": 83,
      "time": 8.906,
      "duration": 0.156,
      "velocity": 0.39,
      "hand": "right"
    },
    {
      "midi": 73,
      "time": 9.063,
      "duration": 0.156,
      "velocity": 0.39,
      "hand": "right"
    },
    {
      "midi": 81,
      "time": 9.063,
      "duration": 0.156,
      "velocity": 0.39,
      "hand": "right"
    },
    {
      "midi": 69,
      "time": 9.219,
      "duration": 0.156,
      "velocity": 0.39,
      "hand": "right"
    },
    {
      "midi": 78,
      "time": 9.219,
      "duration": 0.156,
      "velocity": 0.39,
      "hand": "right"
    },
    {
      "midi": 66,
      "time": 9.375,
      "duration": 0.078,
      "velocity": 0.39,
      "hand": "right"
    },
    {
      "midi": 66,
      "time": 9.375,
      "duration": 0.938,
      "velocity": 0.39,
      "hand": "right"
    },
    {
      "midi": 76,
      "time": 9.375,
      "duration": 0.078,
      "velocity": 0.39,
      "hand": "right"
    },
    {
      "midi": 76,
      "time": 9.375,
      "duration": 0.938,
      "velocity": 0.39,
      "hand": "right"
    },
    {
      "midi": 69,
      "time": 9.531,
      "duration": 0.156,
      "velocity": 0.39,
      "hand": "right"
    },
    {
      "midi": 78,
      "time": 9.531,
      "duration": 0.156,
      "velocity": 0.39,
      "hand": "right"
    },
    {
      "midi": 73,
      "time": 9.688,
      "duration": 0.156,
      "velocity": 0.39,
      "hand": "right"
    },
    {
      "midi": 81,
      "time": 9.688,
      "duration": 0.156,
      "velocity": 0.39,
      "hand": "right"
    },
    {
      "midi": 69,
      "time": 9.844,
      "duration": 0.156,
      "velocity": 0.39,
      "hand": "right"
    },
    {
      "midi": 83,
      "time": 9.844,
      "duration": 0.156,
      "velocity": 0.39,
      "hand": "right"
    },
    {
      "midi": 73,
      "time": 10,
      "duration": 0.156,
      "velocity": 0.39,
      "hand": "right"
    },
    {
      "midi": 81,
      "time": 10,
      "duration": 0.156,
      "velocity": 0.39,
      "hand": "right"
    },
    {
      "midi": 69,
      "time": 10.156,
      "duration": 0.156,
      "velocity": 0.39,
      "hand": "right"
    },
    {
      "midi": 78,
      "time": 10.156,
      "duration": 0.156,
      "velocity": 0.39,
      "hand": "right"
    },
    {
      "midi": 66,
      "time": 10.313,
      "duration": 0.078,
      "velocity": 0.39,
      "hand": "right"
    },
    {
      "midi": 66,
      "time": 10.313,
      "duration": 0.938,
      "velocity": 0.39,
      "hand": "right"
    },
    {
      "midi": 76,
      "time": 10.313,
      "duration": 0.078,
      "velocity": 0.39,
      "hand": "right"
    },
    {
      "midi": 76,
      "time": 10.313,
      "duration": 0.938,
      "velocity": 0.39,
      "hand": "right"
    },
    {
      "midi": 69,
      "time": 10.469,
      "duration": 0.156,
      "velocity": 0.39,
      "hand": "right"
    },
    {
      "midi": 78,
      "time": 10.469,
      "duration": 0.156,
      "velocity": 0.39,
      "hand": "right"
    },
    {
      "midi": 73,
      "time": 10.625,
      "duration": 0.156,
      "velocity": 0.39,
      "hand": "right"
    },
    {
      "midi": 81,
      "time": 10.625,
      "duration": 0.156,
      "velocity": 0.39,
      "hand": "right"
    },
    {
      "midi": 69,
      "time": 10.781,
      "duration": 0.156,
      "velocity": 0.39,
      "hand": "right"
    },
    {
      "midi": 83,
      "time": 10.781,
      "duration": 0.156,
      "velocity": 0.39,
      "hand": "right"
    },
    {
      "midi": 73,
      "time": 10.938,
      "duration": 0.156,
      "velocity": 0.39,
      "hand": "right"
    },
    {
      "midi": 81,
      "time": 10.938,
      "duration": 0.156,
      "velocity": 0.39,
      "hand": "right"
    },
    {
      "midi": 69,
      "time": 11.094,
      "duration": 0.156,
      "velocity": 0.39,
      "hand": "right"
    },
    {
      "midi": 78,
      "time": 11.094,
      "duration": 0.156,
      "velocity": 0.39,
      "hand": "right"
    },
    {
      "midi": 64,
      "time": 11.25,
      "duration": 0.078,
      "velocity": 0.39,
      "hand": "right"
    },
    {
      "midi": 64,
      "time": 11.25,
      "duration": 0.938,
      "velocity": 0.39,
      "hand": "right"
    },
    {
      "midi": 75,
      "time": 11.25,
      "duration": 0.078,
      "velocity": 0.39,
      "hand": "right"
    },
    {
      "midi": 75,
      "time": 11.25,
      "duration": 0.938,
      "velocity": 0.39,
      "hand": "right"
    },
    {
      "midi": 68,
      "time": 11.406,
      "duration": 0.156,
      "velocity": 0.39,
      "hand": "right"
    },
    {
      "midi": 76,
      "time": 11.406,
      "duration": 0.156,
      "velocity": 0.39,
      "hand": "right"
    },
    {
      "midi": 71,
      "time": 11.563,
      "duration": 0.156,
      "velocity": 0.39,
      "hand": "right"
    },
    {
      "midi": 78,
      "time": 11.563,
      "duration": 0.156,
      "velocity": 0.39,
      "hand": "right"
    },
    {
      "midi": 68,
      "time": 11.719,
      "duration": 0.156,
      "velocity": 0.39,
      "hand": "right"
    },
    {
      "midi": 80,
      "time": 11.719,
      "duration": 0.156,
      "velocity": 0.39,
      "hand": "right"
    },
    {
      "midi": 71,
      "time": 11.875,
      "duration": 0.156,
      "velocity": 0.39,
      "hand": "right"
    },
    {
      "midi": 78,
      "time": 11.875,
      "duration": 0.156,
      "velocity": 0.39,
      "hand": "right"
    },
    {
      "midi": 68,
      "time": 12.031,
      "duration": 0.156,
      "velocity": 0.39,
      "hand": "right"
    },
    {
      "midi": 76,
      "time": 12.031,
      "duration": 0.156,
      "velocity": 0.39,
      "hand": "right"
    },
    {
      "midi": 64,
      "time": 12.188,
      "duration": 0.078,
      "velocity": 0.39,
      "hand": "right"
    },
    {
      "midi": 64,
      "time": 12.188,
      "duration": 0.938,
      "velocity": 0.39,
      "hand": "right"
    },
    {
      "midi": 75,
      "time": 12.188,
      "duration": 0.078,
      "velocity": 0.39,
      "hand": "right"
    },
    {
      "midi": 75,
      "time": 12.188,
      "duration": 0.938,
      "velocity": 0.39,
      "hand": "right"
    },
    {
      "midi": 68,
      "time": 12.344,
      "duration": 0.156,
      "velocity": 0.39,
      "hand": "right"
    },
    {
      "midi": 76,
      "time": 12.344,
      "duration": 0.156,
      "velocity": 0.39,
      "hand": "right"
    },
    {
      "midi": 71,
      "time": 12.5,
      "duration": 0.156,
      "velocity": 0.39,
      "hand": "right"
    },
    {
      "midi": 78,
      "time": 12.5,
      "duration": 0.156,
      "velocity": 0.39,
      "hand": "right"
    },
    {
      "midi": 68,
      "time": 12.656,
      "duration": 0.156,
      "velocity": 0.39,
      "hand": "right"
    },
    {
      "midi": 80,
      "time": 12.656,
      "duration": 0.156,
      "velocity": 0.39,
      "hand": "right"
    },
    {
      "midi": 71,
      "time": 12.813,
      "duration": 0.156,
      "velocity": 0.39,
      "hand": "right"
    },
    {
      "midi": 78,
      "time": 12.813,
      "duration": 0.156,
      "velocity": 0.39,
      "hand": "right"
    },
    {
      "midi": 68,
      "time": 12.969,
      "duration": 0.156,
      "velocity": 0.39,
      "hand": "right"
    },
    {
      "midi": 76,
      "time": 12.969,
      "duration": 0.156,
      "velocity": 0.39,
      "hand": "right"
    },
    {
      "midi": 64,
      "time": 13.125,
      "duration": 0.078,
      "velocity": 0.39,
      "hand": "right"
    },
    {
      "midi": 64,
      "time": 13.125,
      "duration": 0.938,
      "velocity": 0.39,
      "hand": "right"
    },
    {
      "midi": 75,
      "time": 13.125,
      "duration": 0.078,
      "velocity": 0.39,
      "hand": "right"
    },
    {
      "midi": 75,
      "time": 13.125,
      "duration": 0.938,
      "velocity": 0.39,
      "hand": "right"
    },
    {
      "midi": 68,
      "time": 13.281,
      "duration": 0.156,
      "velocity": 0.39,
      "hand": "right"
    },
    {
      "midi": 76,
      "time": 13.281,
      "duration": 0.156,
      "velocity": 0.39,
      "hand": "right"
    },
    {
      "midi": 71,
      "time": 13.438,
      "duration": 0.156,
      "velocity": 0.4,
      "hand": "right"
    },
    {
      "midi": 78,
      "time": 13.438,
      "duration": 0.156,
      "velocity": 0.4,
      "hand": "right"
    },
    {
      "midi": 68,
      "time": 13.594,
      "duration": 0.156,
      "velocity": 0.41,
      "hand": "right"
    },
    {
      "midi": 80,
      "time": 13.594,
      "duration": 0.156,
      "velocity": 0.41,
      "hand": "right"
    },
    {
      "midi": 71,
      "time": 13.75,
      "duration": 0.156,
      "velocity": 0.43,
      "hand": "right"
    },
    {
      "midi": 78,
      "time": 13.75,
      "duration": 0.156,
      "velocity": 0.43,
      "hand": "right"
    },
    {
      "midi": 68,
      "time": 13.906,
      "duration": 0.156,
      "velocity": 0.43,
      "hand": "right"
    },
    {
      "midi": 76,
      "time": 13.906,
      "duration": 0.156,
      "velocity": 0.43,
      "hand": "right"
    },
    {
      "midi": 64,
      "time": 14.063,
      "duration": 0.078,
      "velocity": 0.44,
      "hand": "right"
    },
    {
      "midi": 64,
      "time": 14.063,
      "duration": 0.938,
      "velocity": 0.44,
      "hand": "right"
    },
    {
      "midi": 75,
      "time": 14.063,
      "duration": 0.078,
      "velocity": 0.44,
      "hand": "right"
    },
    {
      "midi": 75,
      "time": 14.063,
      "duration": 0.938,
      "velocity": 0.44,
      "hand": "right"
    },
    {
      "midi": 68,
      "time": 14.219,
      "duration": 0.156,
      "velocity": 0.45,
      "hand": "right"
    },
    {
      "midi": 76,
      "time": 14.219,
      "duration": 0.156,
      "velocity": 0.45,
      "hand": "right"
    },
    {
      "midi": 71,
      "time": 14.375,
      "duration": 0.156,
      "velocity": 0.46,
      "hand": "right"
    },
    {
      "midi": 78,
      "time": 14.375,
      "duration": 0.156,
      "velocity": 0.46,
      "hand": "right"
    },
    {
      "midi": 68,
      "time": 14.531,
      "duration": 0.156,
      "velocity": 0.47,
      "hand": "right"
    },
    {
      "midi": 80,
      "time": 14.531,
      "duration": 0.156,
      "velocity": 0.47,
      "hand": "right"
    },
    {
      "midi": 71,
      "time": 14.688,
      "duration": 0.156,
      "velocity": 0.48,
      "hand": "right"
    },
    {
      "midi": 78,
      "time": 14.688,
      "duration": 0.156,
      "velocity": 0.48,
      "hand": "right"
    },
    {
      "midi": 68,
      "time": 14.844,
      "duration": 0.156,
      "velocity": 0.49,
      "hand": "right"
    },
    {
      "midi": 76,
      "time": 14.844,
      "duration": 0.156,
      "velocity": 0.49,
      "hand": "right"
    },
    {
      "midi": 45,
      "time": 15,
      "duration": 0.156,
      "velocity": 0.5,
      "hand": "left"
    },
    {
      "midi": 68,
      "time": 15,
      "duration": 0.156,
      "velocity": 0.5,
      "hand": "right"
    },
    {
      "midi": 52,
      "time": 15.156,
      "duration": 0.156,
      "velocity": 0.5,
      "hand": "left"
    },
    {
      "midi": 68,
      "time": 15.156,
      "duration": 0.156,
      "velocity": 0.5,
      "hand": "right"
    },
    {
      "midi": 61,
      "time": 15.313,
      "duration": 0.156,
      "velocity": 0.5,
      "hand": "right"
    },
    {
      "midi": 68,
      "time": 15.313,
      "duration": 0.156,
      "velocity": 0.5,
      "hand": "right"
    },
    {
      "midi": 52,
      "time": 15.469,
      "duration": 0.156,
      "velocity": 0.5,
      "hand": "left"
    },
    {
      "midi": 68,
      "time": 15.469,
      "duration": 0.156,
      "velocity": 0.5,
      "hand": "right"
    },
    {
      "midi": 61,
      "time": 15.625,
      "duration": 0.156,
      "velocity": 0.5,
      "hand": "right"
    },
    {
      "midi": 68,
      "time": 15.625,
      "duration": 0.156,
      "velocity": 0.5,
      "hand": "right"
    },
    {
      "midi": 52,
      "time": 15.781,
      "duration": 0.156,
      "velocity": 0.5,
      "hand": "left"
    },
    {
      "midi": 66,
      "time": 15.781,
      "duration": 0.156,
      "velocity": 0.5,
      "hand": "right"
    },
    {
      "midi": 45,
      "time": 15.938,
      "duration": 0.156,
      "velocity": 0.5,
      "hand": "left"
    },
    {
      "midi": 92,
      "time": 15.938,
      "duration": 0.156,
      "velocity": 0.6,
      "hand": "right"
    },
    {
      "midi": 52,
      "time": 16.094,
      "duration": 0.156,
      "velocity": 0.5,
      "hand": "left"
    },
    {
      "midi": 61,
      "time": 16.25,
      "duration": 0.156,
      "velocity": 0.5,
      "hand": "right"
    },
    {
      "midi": 52,
      "time": 16.406,
      "duration": 0.156,
      "velocity": 0.5,
      "hand": "left"
    },
    {
      "midi": 61,
      "time": 16.563,
      "duration": 0.156,
      "velocity": 0.5,
      "hand": "right"
    },
    {
      "midi": 52,
      "time": 16.719,
      "duration": 0.156,
      "velocity": 0.5,
      "hand": "left"
    },
    {
      "midi": 45,
      "time": 16.875,
      "duration": 0.156,
      "velocity": 0.5,
      "hand": "left"
    },
    {
      "midi": 68,
      "time": 16.875,
      "duration": 0.156,
      "velocity": 0.5,
      "hand": "right"
    },
    {
      "midi": 52,
      "time": 17.031,
      "duration": 0.156,
      "velocity": 0.5,
      "hand": "left"
    },
    {
      "midi": 68,
      "time": 17.031,
      "duration": 0.156,
      "velocity": 0.5,
      "hand": "right"
    },
    {
      "midi": 61,
      "time": 17.188,
      "duration": 0.156,
      "velocity": 0.5,
      "hand": "right"
    },
    {
      "midi": 68,
      "time": 17.188,
      "duration": 0.156,
      "velocity": 0.5,
      "hand": "right"
    },
    {
      "midi": 52,
      "time": 17.344,
      "duration": 0.156,
      "velocity": 0.5,
      "hand": "left"
    },
    {
      "midi": 68,
      "time": 17.344,
      "duration": 0.156,
      "velocity": 0.5,
      "hand": "right"
    },
    {
      "midi": 61,
      "time": 17.5,
      "duration": 0.156,
      "velocity": 0.5,
      "hand": "right"
    },
    {
      "midi": 68,
      "time": 17.5,
      "duration": 0.313,
      "velocity": 0.5,
      "hand": "right"
    },
    {
      "midi": 52,
      "time": 17.656,
      "duration": 0.156,
      "velocity": 0.5,
      "hand": "left"
    },
    {
      "midi": 45,
      "time": 17.813,
      "duration": 0.156,
      "velocity": 0.5,
      "hand": "left"
    },
    {
      "midi": 68,
      "time": 17.813,
      "duration": 0.156,
      "velocity": 0.5,
      "hand": "right"
    },
    {
      "midi": 52,
      "time": 17.969,
      "duration": 0.156,
      "velocity": 0.5,
      "hand": "left"
    },
    {
      "midi": 68,
      "time": 17.969,
      "duration": 0.156,
      "velocity": 0.5,
      "hand": "right"
    },
    {
      "midi": 61,
      "time": 18.125,
      "duration": 0.156,
      "velocity": 0.5,
      "hand": "right"
    },
    {
      "midi": 68,
      "time": 18.125,
      "duration": 0.156,
      "velocity": 0.5,
      "hand": "right"
    },
    {
      "midi": 52,
      "time": 18.281,
      "duration": 0.156,
      "velocity": 0.5,
      "hand": "left"
    },
    {
      "midi": 68,
      "time": 18.281,
      "duration": 0.156,
      "velocity": 0.5,
      "hand": "right"
    },
    {
      "midi": 61,
      "time": 18.438,
      "duration": 0.156,
      "velocity": 0.5,
      "hand": "right"
    },
    {
      "midi": 68,
      "time": 18.438,
      "duration": 0.313,
      "velocity": 0.5,
      "hand": "right"
    },
    {
      "midi": 52,
      "time": 18.594,
      "duration": 0.156,
      "velocity": 0.5,
      "hand": "left"
    },
    {
      "midi": 44,
      "time": 18.75,
      "duration": 0.156,
      "velocity": 0.5,
      "hand": "left"
    },
    {
      "midi": 68,
      "time": 18.75,
      "duration": 0.156,
      "velocity": 0.5,
      "hand": "right"
    },
    {
      "midi": 51,
      "time": 18.906,
      "duration": 0.156,
      "velocity": 0.5,
      "hand": "left"
    },
    {
      "midi": 68,
      "time": 18.906,
      "duration": 0.156,
      "velocity": 0.5,
      "hand": "right"
    },
    {
      "midi": 59,
      "time": 19.063,
      "duration": 0.156,
      "velocity": 0.5,
      "hand": "left"
    },
    {
      "midi": 68,
      "time": 19.063,
      "duration": 0.156,
      "velocity": 0.5,
      "hand": "right"
    },
    {
      "midi": 51,
      "time": 19.219,
      "duration": 0.156,
      "velocity": 0.5,
      "hand": "left"
    },
    {
      "midi": 68,
      "time": 19.219,
      "duration": 0.156,
      "velocity": 0.5,
      "hand": "right"
    },
    {
      "midi": 59,
      "time": 19.375,
      "duration": 0.156,
      "velocity": 0.5,
      "hand": "left"
    },
    {
      "midi": 68,
      "time": 19.375,
      "duration": 0.156,
      "velocity": 0.5,
      "hand": "right"
    },
    {
      "midi": 51,
      "time": 19.531,
      "duration": 0.156,
      "velocity": 0.5,
      "hand": "left"
    },
    {
      "midi": 66,
      "time": 19.531,
      "duration": 0.156,
      "velocity": 0.5,
      "hand": "right"
    },
    {
      "midi": 44,
      "time": 19.688,
      "duration": 0.156,
      "velocity": 0.5,
      "hand": "left"
    },
    {
      "midi": 92,
      "time": 19.688,
      "duration": 0.156,
      "velocity": 0.6,
      "hand": "right"
    },
    {
      "midi": 51,
      "time": 19.844,
      "duration": 0.156,
      "velocity": 0.5,
      "hand": "left"
    },
    {
      "midi": 59,
      "time": 20,
      "duration": 0.156,
      "velocity": 0.5,
      "hand": "left"
    },
    {
      "midi": 51,
      "time": 20.156,
      "duration": 0.156,
      "velocity": 0.5,
      "hand": "left"
    },
    {
      "midi": 59,
      "time": 20.313,
      "duration": 0.156,
      "velocity": 0.5,
      "hand": "left"
    },
    {
      "midi": 51,
      "time": 20.469,
      "duration": 0.156,
      "velocity": 0.5,
      "hand": "left"
    },
    {
      "midi": 44,
      "time": 20.625,
      "duration": 0.156,
      "velocity": 0.5,
      "hand": "left"
    },
    {
      "midi": 68,
      "time": 20.625,
      "duration": 0.156,
      "velocity": 0.5,
      "hand": "right"
    },
    {
      "midi": 51,
      "time": 20.781,
      "duration": 0.156,
      "velocity": 0.5,
      "hand": "left"
    },
    {
      "midi": 68,
      "time": 20.781,
      "duration": 0.156,
      "velocity": 0.5,
      "hand": "right"
    },
    {
      "midi": 59,
      "time": 20.938,
      "duration": 0.156,
      "velocity": 0.5,
      "hand": "left"
    },
    {
      "midi": 68,
      "time": 20.938,
      "duration": 0.156,
      "velocity": 0.5,
      "hand": "right"
    },
    {
      "midi": 51,
      "time": 21.094,
      "duration": 0.156,
      "velocity": 0.5,
      "hand": "left"
    },
    {
      "midi": 68,
      "time": 21.094,
      "duration": 0.156,
      "velocity": 0.5,
      "hand": "right"
    },
    {
      "midi": 59,
      "time": 21.25,
      "duration": 0.156,
      "velocity": 0.5,
      "hand": "left"
    },
    {
      "midi": 68,
      "time": 21.25,
      "duration": 0.313,
      "velocity": 0.5,
      "hand": "right"
    },
    {
      "midi": 51,
      "time": 21.406,
      "duration": 0.156,
      "velocity": 0.5,
      "hand": "left"
    },
    {
      "midi": 43,
      "time": 21.563,
      "duration": 0.156,
      "velocity": 0.5,
      "hand": "left"
    },
    {
      "midi": 68,
      "time": 21.563,
      "duration": 0.156,
      "velocity": 0.5,
      "hand": "right"
    },
    {
      "midi": 51,
      "time": 21.719,
      "duration": 0.156,
      "velocity": 0.5,
      "hand": "left"
    },
    {
      "midi": 68,
      "time": 21.719,
      "duration": 0.156,
      "velocity": 0.5,
      "hand": "right"
    },
    {
      "midi": 59,
      "time": 21.875,
      "duration": 0.156,
      "velocity": 0.5,
      "hand": "left"
    },
    {
      "midi": 68,
      "time": 21.875,
      "duration": 0.156,
      "velocity": 0.5,
      "hand": "right"
    },
    {
      "midi": 51,
      "time": 22.031,
      "duration": 0.156,
      "velocity": 0.5,
      "hand": "left"
    },
    {
      "midi": 68,
      "time": 22.031,
      "duration": 0.156,
      "velocity": 0.5,
      "hand": "right"
    },
    {
      "midi": 59,
      "time": 22.188,
      "duration": 0.156,
      "velocity": 0.5,
      "hand": "left"
    },
    {
      "midi": 68,
      "time": 22.188,
      "duration": 0.313,
      "velocity": 0.5,
      "hand": "right"
    },
    {
      "midi": 51,
      "time": 22.344,
      "duration": 0.156,
      "velocity": 0.5,
      "hand": "left"
    },
    {
      "midi": 42,
      "time": 22.5,
      "duration": 0.156,
      "velocity": 0.5,
      "hand": "left"
    },
    {
      "midi": 68,
      "time": 22.5,
      "duration": 0.156,
      "velocity": 0.5,
      "hand": "right"
    },
    {
      "midi": 49,
      "time": 22.656,
      "duration": 0.156,
      "velocity": 0.5,
      "hand": "left"
    },
    {
      "midi": 68,
      "time": 22.656,
      "duration": 0.156,
      "velocity": 0.5,
      "hand": "right"
    },
    {
      "midi": 57,
      "time": 22.813,
      "duration": 0.156,
      "velocity": 0.5,
      "hand": "left"
    },
    {
      "midi": 68,
      "time": 22.813,
      "duration": 0.156,
      "velocity": 0.5,
      "hand": "right"
    },
    {
      "midi": 49,
      "time": 22.969,
      "duration": 0.156,
      "velocity": 0.5,
      "hand": "left"
    },
    {
      "midi": 68,
      "time": 22.969,
      "duration": 0.156,
      "velocity": 0.5,
      "hand": "right"
    },
    {
      "midi": 57,
      "time": 23.125,
      "duration": 0.156,
      "velocity": 0.5,
      "hand": "left"
    },
    {
      "midi": 68,
      "time": 23.125,
      "duration": 0.156,
      "velocity": 0.5,
      "hand": "right"
    },
    {
      "midi": 49,
      "time": 23.281,
      "duration": 0.156,
      "velocity": 0.5,
      "hand": "left"
    },
    {
      "midi": 66,
      "time": 23.281,
      "duration": 0.156,
      "velocity": 0.5,
      "hand": "right"
    },
    {
      "midi": 42,
      "time": 23.438,
      "duration": 0.156,
      "velocity": 0.5,
      "hand": "left"
    },
    {
      "midi": 90,
      "time": 23.438,
      "duration": 0.156,
      "velocity": 0.6,
      "hand": "right"
    },
    {
      "midi": 49,
      "time": 23.594,
      "duration": 0.156,
      "velocity": 0.5,
      "hand": "left"
    },
    {
      "midi": 57,
      "time": 23.75,
      "duration": 0.156,
      "velocity": 0.5,
      "hand": "left"
    },
    {
      "midi": 49,
      "time": 23.906,
      "duration": 0.156,
      "velocity": 0.5,
      "hand": "left"
    },
    {
      "midi": 57,
      "time": 24.063,
      "duration": 0.156,
      "velocity": 0.5,
      "hand": "left"
    },
    {
      "midi": 49,
      "time": 24.219,
      "duration": 0.156,
      "velocity": 0.5,
      "hand": "left"
    },
    {
      "midi": 42,
      "time": 24.375,
      "duration": 0.156,
      "velocity": 0.5,
      "hand": "left"
    },
    {
      "midi": 68,
      "time": 24.375,
      "duration": 0.156,
      "velocity": 0.5,
      "hand": "right"
    },
    {
      "midi": 49,
      "time": 24.531,
      "duration": 0.156,
      "velocity": 0.5,
      "hand": "left"
    },
    {
      "midi": 68,
      "time": 24.531,
      "duration": 0.156,
      "velocity": 0.5,
      "hand": "right"
    },
    {
      "midi": 57,
      "time": 24.688,
      "duration": 0.156,
      "velocity": 0.5,
      "hand": "left"
    },
    {
      "midi": 68,
      "time": 24.688,
      "duration": 0.156,
      "velocity": 0.5,
      "hand": "right"
    },
    {
      "midi": 49,
      "time": 24.844,
      "duration": 0.156,
      "velocity": 0.5,
      "hand": "left"
    },
    {
      "midi": 68,
      "time": 24.844,
      "duration": 0.156,
      "velocity": 0.5,
      "hand": "right"
    },
    {
      "midi": 57,
      "time": 25,
      "duration": 0.156,
      "velocity": 0.5,
      "hand": "left"
    },
    {
      "midi": 68,
      "time": 25,
      "duration": 0.156,
      "velocity": 0.5,
      "hand": "right"
    },
    {
      "midi": 49,
      "time": 25.156,
      "duration": 0.156,
      "velocity": 0.5,
      "hand": "left"
    },
    {
      "midi": 66,
      "time": 25.156,
      "duration": 0.156,
      "velocity": 0.5,
      "hand": "right"
    },
    {
      "midi": 42,
      "time": 25.313,
      "duration": 0.156,
      "velocity": 0.5,
      "hand": "left"
    },
    {
      "midi": 90,
      "time": 25.313,
      "duration": 0.156,
      "velocity": 0.6,
      "hand": "right"
    },
    {
      "midi": 49,
      "time": 25.469,
      "duration": 0.156,
      "velocity": 0.5,
      "hand": "left"
    },
    {
      "midi": 57,
      "time": 25.625,
      "duration": 0.156,
      "velocity": 0.5,
      "hand": "left"
    },
    {
      "midi": 49,
      "time": 25.781,
      "duration": 0.156,
      "velocity": 0.5,
      "hand": "left"
    },
    {
      "midi": 57,
      "time": 25.938,
      "duration": 0.156,
      "velocity": 0.5,
      "hand": "left"
    },
    {
      "midi": 49,
      "time": 26.094,
      "duration": 0.156,
      "velocity": 0.5,
      "hand": "left"
    },
    {
      "midi": 40,
      "time": 26.25,
      "duration": 0.156,
      "velocity": 0.5,
      "hand": "left"
    },
    {
      "midi": 68,
      "time": 26.25,
      "duration": 0.156,
      "velocity": 0.5,
      "hand": "right"
    },
    {
      "midi": 47,
      "time": 26.406,
      "duration": 0.156,
      "velocity": 0.5,
      "hand": "left"
    },
    {
      "midi": 68,
      "time": 26.406,
      "duration": 0.156,
      "velocity": 0.5,
      "hand": "right"
    },
    {
      "midi": 56,
      "time": 26.563,
      "duration": 0.156,
      "velocity": 0.5,
      "hand": "left"
    },
    {
      "midi": 68,
      "time": 26.563,
      "duration": 0.156,
      "velocity": 0.5,
      "hand": "right"
    },
    {
      "midi": 47,
      "time": 26.719,
      "duration": 0.156,
      "velocity": 0.5,
      "hand": "left"
    },
    {
      "midi": 68,
      "time": 26.719,
      "duration": 0.156,
      "velocity": 0.5,
      "hand": "right"
    },
    {
      "midi": 56,
      "time": 26.875,
      "duration": 0.156,
      "velocity": 0.5,
      "hand": "left"
    },
    {
      "midi": 68,
      "time": 26.875,
      "duration": 0.313,
      "velocity": 0.5,
      "hand": "right"
    },
    {
      "midi": 47,
      "time": 27.031,
      "duration": 0.156,
      "velocity": 0.5,
      "hand": "left"
    },
    {
      "midi": 40,
      "time": 27.188,
      "duration": 0.156,
      "velocity": 0.5,
      "hand": "left"
    },
    {
      "midi": 68,
      "time": 27.188,
      "duration": 0.156,
      "velocity": 0.5,
      "hand": "right"
    },
    {
      "midi": 75,
      "time": 27.188,
      "duration": 0.938,
      "velocity": 0.5,
      "hand": "right"
    },
    {
      "midi": 47,
      "time": 27.344,
      "duration": 0.156,
      "velocity": 0.5,
      "hand": "left"
    },
    {
      "midi": 68,
      "time": 27.344,
      "duration": 0.156,
      "velocity": 0.5,
      "hand": "right"
    },
    {
      "midi": 56,
      "time": 27.5,
      "duration": 0.156,
      "velocity": 0.5,
      "hand": "left"
    },
    {
      "midi": 68,
      "time": 27.5,
      "duration": 0.156,
      "velocity": 0.5,
      "hand": "right"
    },
    {
      "midi": 47,
      "time": 27.656,
      "duration": 0.156,
      "velocity": 0.5,
      "hand": "left"
    },
    {
      "midi": 68,
      "time": 27.656,
      "duration": 0.156,
      "velocity": 0.5,
      "hand": "right"
    },
    {
      "midi": 56,
      "time": 27.813,
      "duration": 0.156,
      "velocity": 0.5,
      "hand": "left"
    },
    {
      "midi": 68,
      "time": 27.813,
      "duration": 0.313,
      "velocity": 0.5,
      "hand": "right"
    },
    {
      "midi": 47,
      "time": 27.969,
      "duration": 0.156,
      "velocity": 0.5,
      "hand": "left"
    },
    {
      "midi": 40,
      "time": 28.125,
      "duration": 0.156,
      "velocity": 0.5,
      "hand": "left"
    },
    {
      "midi": 68,
      "time": 28.125,
      "duration": 0.313,
      "velocity": 0.5,
      "hand": "right"
    },
    {
      "midi": 76,
      "time": 28.125,
      "duration": 0.938,
      "velocity": 0.5,
      "hand": "right"
    },
    {
      "midi": 47,
      "time": 28.281,
      "duration": 0.156,
      "velocity": 0.51,
      "hand": "left"
    },
    {
      "midi": 56,
      "time": 28.438,
      "duration": 0.156,
      "velocity": 0.52,
      "hand": "left"
    },
    {
      "midi": 68,
      "time": 28.438,
      "duration": 0.313,
      "velocity": 0.52,
      "hand": "right"
    },
    {
      "midi": 47,
      "time": 28.594,
      "duration": 0.156,
      "velocity": 0.54,
      "hand": "left"
    },
    {
      "midi": 56,
      "time": 28.75,
      "duration": 0.156,
      "velocity": 0.54,
      "hand": "left"
    },
    {
      "midi": 68,
      "time": 28.75,
      "duration": 0.156,
      "velocity": 0.54,
      "hand": "right"
    },
    {
      "midi": 47,
      "time": 28.906,
      "duration": 0.156,
      "velocity": 0.55,
      "hand": "left"
    },
    {
      "midi": 66,
      "time": 28.906,
      "duration": 0.156,
      "velocity": 0.55,
      "hand": "right"
    },
    {
      "midi": 40,
      "time": 29.063,
      "duration": 0.156,
      "velocity": 0.57,
      "hand": "left"
    },
    {
      "midi": 64,
      "time": 29.063,
      "duration": 0.313,
      "velocity": 0.57,
      "hand": "right"
    },
    {
      "midi": 78,
      "time": 29.063,
      "duration": 0.938,
      "velocity": 0.57,
      "hand": "right"
    },
    {
      "midi": 47,
      "time": 29.219,
      "duration": 0.156,
      "velocity": 0.57,
      "hand": "left"
    },
    {
      "midi": 56,
      "time": 29.375,
      "duration": 0.156,
      "velocity": 0.58,
      "hand": "left"
    },
    {
      "midi": 68,
      "time": 29.375,
      "duration": 0.313,
      "velocity": 0.58,
      "hand": "right"
    },
    {
      "midi": 47,
      "time": 29.531,
      "duration": 0.156,
      "velocity": 0.6,
      "hand": "left"
    },
    {
      "midi": 56,
      "time": 29.688,
      "duration": 0.156,
      "velocity": 0.61,
      "hand": "left"
    },
    {
      "midi": 71,
      "time": 29.688,
      "duration": 0.313,
      "velocity": 0.61,
      "hand": "right"
    },
    {
      "midi": 47,
      "time": 29.844,
      "duration": 0.156,
      "velocity": 0.61,
      "hand": "left"
    },
    {
      "midi": 45,
      "time": 30,
      "duration": 0.156,
      "velocity": 0.63,
      "hand": "left"
    },
    {
      "midi": 57,
      "time": 30,
      "duration": 0.156,
      "velocity": 0.63,
      "hand": "left"
    },
    {
      "midi": 64,
      "time": 30,
      "duration": 1.25,
      "velocity": 0.63,
      "hand": "right"
    },
    {
      "midi": 69,
      "time": 30,
      "duration": 1.25,
      "velocity": 0.63,
      "hand": "right"
    },
    {
      "midi": 52,
      "time": 30.156,
      "duration": 0.156,
      "velocity": 0.63,
      "hand": "left"
    },
    {
      "midi": 73,
      "time": 30.156,
      "duration": 1.094,
      "velocity": 0.63,
      "hand": "right"
    },
    {
      "midi": 61,
      "time": 30.313,
      "duration": 0.156,
      "velocity": 0.63,
      "hand": "right"
    },
    {
      "midi": 52,
      "time": 30.469,
      "duration": 0.156,
      "velocity": 0.63,
      "hand": "left"
    },
    {
      "midi": 61,
      "time": 30.625,
      "duration": 0.156,
      "velocity": 0.63,
      "hand": "right"
    },
    {
      "midi": 52,
      "time": 30.781,
      "duration": 0.156,
      "velocity": 0.63,
      "hand": "left"
    },
    {
      "midi": 45,
      "time": 30.938,
      "duration": 0.156,
      "velocity": 0.63,
      "hand": "left"
    },
    {
      "midi": 57,
      "time": 30.938,
      "duration": 0.156,
      "velocity": 0.63,
      "hand": "left"
    },
    {
      "midi": 52,
      "time": 31.094,
      "duration": 0.156,
      "velocity": 0.63,
      "hand": "left"
    },
    {
      "midi": 61,
      "time": 31.25,
      "duration": 0.156,
      "velocity": 0.63,
      "hand": "right"
    },
    {
      "midi": 73,
      "time": 31.25,
      "duration": 0.313,
      "velocity": 0.63,
      "hand": "right"
    },
    {
      "midi": 52,
      "time": 31.406,
      "duration": 0.156,
      "velocity": 0.63,
      "hand": "left"
    },
    {
      "midi": 61,
      "time": 31.563,
      "duration": 0.156,
      "velocity": 0.63,
      "hand": "right"
    },
    {
      "midi": 69,
      "time": 31.563,
      "duration": 0.313,
      "velocity": 0.63,
      "hand": "right"
    },
    {
      "midi": 75,
      "time": 31.563,
      "duration": 0.313,
      "velocity": 0.63,
      "hand": "right"
    },
    {
      "midi": 52,
      "time": 31.719,
      "duration": 0.156,
      "velocity": 0.63,
      "hand": "left"
    },
    {
      "midi": 45,
      "time": 31.875,
      "duration": 0.156,
      "velocity": 0.63,
      "hand": "left"
    },
    {
      "midi": 57,
      "time": 31.875,
      "duration": 0.156,
      "velocity": 0.63,
      "hand": "left"
    },
    {
      "midi": 69,
      "time": 31.875,
      "duration": 1.25,
      "velocity": 0.63,
      "hand": "right"
    },
    {
      "midi": 73,
      "time": 31.875,
      "duration": 1.25,
      "velocity": 0.63,
      "hand": "right"
    },
    {
      "midi": 76,
      "time": 31.875,
      "duration": 1.25,
      "velocity": 0.63,
      "hand": "right"
    },
    {
      "midi": 52,
      "time": 32.031,
      "duration": 0.156,
      "velocity": 0.63,
      "hand": "left"
    },
    {
      "midi": 61,
      "time": 32.188,
      "duration": 0.156,
      "velocity": 0.63,
      "hand": "right"
    },
    {
      "midi": 52,
      "time": 32.344,
      "duration": 0.156,
      "velocity": 0.63,
      "hand": "left"
    },
    {
      "midi": 61,
      "time": 32.5,
      "duration": 0.156,
      "velocity": 0.63,
      "hand": "right"
    },
    {
      "midi": 52,
      "time": 32.656,
      "duration": 0.156,
      "velocity": 0.63,
      "hand": "left"
    },
    {
      "midi": 45,
      "time": 32.813,
      "duration": 0.156,
      "velocity": 0.63,
      "hand": "left"
    },
    {
      "midi": 57,
      "time": 32.813,
      "duration": 0.156,
      "velocity": 0.63,
      "hand": "left"
    },
    {
      "midi": 52,
      "time": 32.969,
      "duration": 0.156,
      "velocity": 0.63,
      "hand": "left"
    },
    {
      "midi": 61,
      "time": 33.125,
      "duration": 0.156,
      "velocity": 0.63,
      "hand": "right"
    },
    {
      "midi": 69,
      "time": 33.125,
      "duration": 0.313,
      "velocity": 0.63,
      "hand": "right"
    },
    {
      "midi": 73,
      "time": 33.125,
      "duration": 0.313,
      "velocity": 0.63,
      "hand": "right"
    },
    {
      "midi": 52,
      "time": 33.281,
      "duration": 0.156,
      "velocity": 0.63,
      "hand": "left"
    },
    {
      "midi": 61,
      "time": 33.438,
      "duration": 0.156,
      "velocity": 0.63,
      "hand": "right"
    },
    {
      "midi": 68,
      "time": 33.438,
      "duration": 0.313,
      "velocity": 0.63,
      "hand": "right"
    },
    {
      "midi": 76,
      "time": 33.438,
      "duration": 0.313,
      "velocity": 0.63,
      "hand": "right"
    },
    {
      "midi": 52,
      "time": 33.594,
      "duration": 0.156,
      "velocity": 0.63,
      "hand": "left"
    },
    {
      "midi": 44,
      "time": 33.75,
      "duration": 0.156,
      "velocity": 0.63,
      "hand": "left"
    },
    {
      "midi": 56,
      "time": 33.75,
      "duration": 0.156,
      "velocity": 0.63,
      "hand": "left"
    },
    {
      "midi": 68,
      "time": 33.75,
      "duration": 0.313,
      "velocity": 0.63,
      "hand": "right"
    },
    {
      "midi": 75,
      "time": 33.75,
      "duration": 0.313,
      "velocity": 0.63,
      "hand": "right"
    },
    {
      "midi": 51,
      "time": 33.906,
      "duration": 0.156,
      "velocity": 0.63,
      "hand": "left"
    },
    {
      "midi": 59,
      "time": 34.063,
      "duration": 0.156,
      "velocity": 0.63,
      "hand": "left"
    },
    {
      "midi": 73,
      "time": 34.063,
      "duration": 0.313,
      "velocity": 0.63,
      "hand": "right"
    },
    {
      "midi": 51,
      "time": 34.219,
      "duration": 0.156,
      "velocity": 0.63,
      "hand": "left"
    },
    {
      "midi": 59,
      "time": 34.375,
      "duration": 0.156,
      "velocity": 0.63,
      "hand": "left"
    },
    {
      "midi": 68,
      "time": 34.375,
      "duration": 0.313,
      "velocity": 0.63,
      "hand": "right"
    },
    {
      "midi": 71,
      "time": 34.375,
      "duration": 0.313,
      "velocity": 0.63,
      "hand": "right"
    },
    {
      "midi": 51,
      "time": 34.531,
      "duration": 0.156,
      "velocity": 0.63,
      "hand": "left"
    },
    {
      "midi": 44,
      "time": 34.688,
      "duration": 0.156,
      "velocity": 0.63,
      "hand": "left"
    },
    {
      "midi": 56,
      "time": 34.688,
      "duration": 0.156,
      "velocity": 0.63,
      "hand": "left"
    },
    {
      "midi": 68,
      "time": 34.688,
      "duration": 0.625,
      "velocity": 0.63,
      "hand": "right"
    },
    {
      "midi": 71,
      "time": 34.688,
      "duration": 0.625,
      "velocity": 0.63,
      "hand": "right"
    },
    {
      "midi": 51,
      "time": 34.844,
      "duration": 0.156,
      "velocity": 0.63,
      "hand": "left"
    },
    {
      "midi": 59,
      "time": 35,
      "duration": 0.156,
      "velocity": 0.63,
      "hand": "left"
    },
    {
      "midi": 51,
      "time": 35.156,
      "duration": 0.156,
      "velocity": 0.63,
      "hand": "left"
    },
    {
      "midi": 59,
      "time": 35.313,
      "duration": 0.156,
      "velocity": 0.63,
      "hand": "left"
    },
    {
      "midi": 68,
      "time": 35.313,
      "duration": 0.313,
      "velocity": 0.63,
      "hand": "right"
    },
    {
      "midi": 51,
      "time": 35.469,
      "duration": 0.156,
      "velocity": 0.63,
      "hand": "left"
    },
    {
      "midi": 44,
      "time": 35.625,
      "duration": 0.156,
      "velocity": 0.63,
      "hand": "left"
    },
    {
      "midi": 56,
      "time": 35.625,
      "duration": 0.156,
      "velocity": 0.63,
      "hand": "left"
    },
    {
      "midi": 63,
      "time": 35.625,
      "duration": 0.313,
      "velocity": 0.63,
      "hand": "right"
    },
    {
      "midi": 68,
      "time": 35.625,
      "duration": 0.313,
      "velocity": 0.63,
      "hand": "right"
    },
    {
      "midi": 71,
      "time": 35.625,
      "duration": 0.313,
      "velocity": 0.63,
      "hand": "right"
    },
    {
      "midi": 75,
      "time": 35.625,
      "duration": 0.313,
      "velocity": 0.63,
      "hand": "right"
    },
    {
      "midi": 51,
      "time": 35.781,
      "duration": 0.156,
      "velocity": 0.63,
      "hand": "left"
    },
    {
      "midi": 59,
      "time": 35.938,
      "duration": 0.156,
      "velocity": 0.63,
      "hand": "left"
    },
    {
      "midi": 73,
      "time": 35.938,
      "duration": 0.313,
      "velocity": 0.63,
      "hand": "right"
    },
    {
      "midi": 51,
      "time": 36.094,
      "duration": 0.156,
      "velocity": 0.63,
      "hand": "left"
    },
    {
      "midi": 59,
      "time": 36.25,
      "duration": 0.156,
      "velocity": 0.63,
      "hand": "left"
    },
    {
      "midi": 68,
      "time": 36.25,
      "duration": 0.313,
      "velocity": 0.63,
      "hand": "right"
    },
    {
      "midi": 71,
      "time": 36.25,
      "duration": 0.313,
      "velocity": 0.63,
      "hand": "right"
    },
    {
      "midi": 51,
      "time": 36.406,
      "duration": 0.156,
      "velocity": 0.63,
      "hand": "left"
    },
    {
      "midi": 43,
      "time": 36.563,
      "duration": 0.156,
      "velocity": 0.63,
      "hand": "left"
    },
    {
      "midi": 55,
      "time": 36.563,
      "duration": 0.156,
      "velocity": 0.63,
      "hand": "left"
    },
    {
      "midi": 63,
      "time": 36.563,
      "duration": 0.313,
      "velocity": 0.63,
      "hand": "right"
    },
    {
      "midi": 67,
      "time": 36.563,
      "duration": 0.313,
      "velocity": 0.63,
      "hand": "right"
    },
    {
      "midi": 71,
      "time": 36.563,
      "duration": 0.313,
      "velocity": 0.63,
      "hand": "right"
    },
    {
      "midi": 75,
      "time": 36.563,
      "duration": 0.313,
      "velocity": 0.63,
      "hand": "right"
    },
    {
      "midi": 51,
      "time": 36.719,
      "duration": 0.156,
      "velocity": 0.63,
      "hand": "left"
    },
    {
      "midi": 59,
      "time": 36.875,
      "duration": 0.156,
      "velocity": 0.63,
      "hand": "left"
    },
    {
      "midi": 73,
      "time": 36.875,
      "duration": 0.313,
      "velocity": 0.63,
      "hand": "right"
    },
    {
      "midi": 51,
      "time": 37.031,
      "duration": 0.156,
      "velocity": 0.63,
      "hand": "left"
    },
    {
      "midi": 59,
      "time": 37.188,
      "duration": 0.156,
      "velocity": 0.63,
      "hand": "left"
    },
    {
      "midi": 67,
      "time": 37.188,
      "duration": 0.313,
      "velocity": 0.63,
      "hand": "right"
    },
    {
      "midi": 71,
      "time": 37.188,
      "duration": 0.313,
      "velocity": 0.63,
      "hand": "right"
    },
    {
      "midi": 51,
      "time": 37.344,
      "duration": 0.156,
      "velocity": 0.63,
      "hand": "left"
    },
    {
      "midi": 42,
      "time": 37.5,
      "duration": 0.156,
      "velocity": 0.63,
      "hand": "left"
    },
    {
      "midi": 54,
      "time": 37.5,
      "duration": 0.156,
      "velocity": 0.63,
      "hand": "left"
    },
    {
      "midi": 66,
      "time": 37.5,
      "duration": 2.344,
      "velocity": 0.63,
      "hand": "right"
    },
    {
      "midi": 71,
      "time": 37.5,
      "duration": 0.156,
      "velocity": 0.63,
      "hand": "right"
    },
    {
      "midi": 49,
      "time": 37.656,
      "duration": 0.156,
      "velocity": 0.63,
      "hand": "left"
    },
    {
      "midi": 69,
      "time": 37.656,
      "duration": 2.188,
      "velocity": 0.63,
      "hand": "right"
    },
    {
      "midi": 57,
      "time": 37.813,
      "duration": 0.156,
      "velocity": 0.63,
      "hand": "left"
    },
    {
      "midi": 49,
      "time": 37.969,
      "duration": 0.156,
      "velocity": 0.63,
      "hand": "left"
    },
    {
      "midi": 57,
      "time": 38.125,
      "duration": 0.156,
      "velocity": 0.63,
      "hand": "left"
    },
    {
      "midi": 49,
      "time": 38.281,
      "duration": 0.156,
      "velocity": 0.63,
      "hand": "left"
    },
    {
      "midi": 42,
      "time": 38.438,
      "duration": 0.156,
      "velocity": 0.63,
      "hand": "left"
    },
    {
      "midi": 54,
      "time": 38.438,
      "duration": 0.156,
      "velocity": 0.63,
      "hand": "left"
    },
    {
      "midi": 49,
      "time": 38.594,
      "duration": 0.156,
      "velocity": 0.63,
      "hand": "left"
    },
    {
      "midi": 57,
      "time": 38.75,
      "duration": 0.156,
      "velocity": 0.63,
      "hand": "left"
    },
    {
      "midi": 49,
      "time": 38.906,
      "duration": 0.156,
      "velocity": 0.63,
      "hand": "left"
    },
    {
      "midi": 57,
      "time": 39.063,
      "duration": 0.156,
      "velocity": 0.63,
      "hand": "left"
    },
    {
      "midi": 49,
      "time": 39.219,
      "duration": 0.156,
      "velocity": 0.63,
      "hand": "left"
    },
    {
      "midi": 42,
      "time": 39.375,
      "duration": 0.156,
      "velocity": 0.63,
      "hand": "left"
    },
    {
      "midi": 54,
      "time": 39.375,
      "duration": 0.156,
      "velocity": 0.63,
      "hand": "left"
    },
    {
      "midi": 49,
      "time": 39.531,
      "duration": 0.156,
      "velocity": 0.63,
      "hand": "left"
    },
    {
      "midi": 57,
      "time": 39.688,
      "duration": 0.156,
      "velocity": 0.63,
      "hand": "left"
    },
    {
      "midi": 49,
      "time": 39.844,
      "duration": 0.156,
      "velocity": 0.63,
      "hand": "left"
    },
    {
      "midi": 57,
      "time": 40,
      "duration": 0.156,
      "velocity": 0.63,
      "hand": "left"
    },
    {
      "midi": 64,
      "time": 40,
      "duration": 0.313,
      "velocity": 0.63,
      "hand": "right"
    },
    {
      "midi": 73,
      "time": 40,
      "duration": 0.313,
      "velocity": 0.63,
      "hand": "right"
    },
    {
      "midi": 49,
      "time": 40.156,
      "duration": 0.156,
      "velocity": 0.63,
      "hand": "left"
    },
    {
      "midi": 42,
      "time": 40.313,
      "duration": 0.156,
      "velocity": 0.63,
      "hand": "left"
    },
    {
      "midi": 54,
      "time": 40.313,
      "duration": 0.156,
      "velocity": 0.63,
      "hand": "left"
    },
    {
      "midi": 61,
      "time": 40.313,
      "duration": 0.313,
      "velocity": 0.63,
      "hand": "right"
    },
    {
      "midi": 64,
      "time": 40.313,
      "duration": 0.313,
      "velocity": 0.63,
      "hand": "right"
    },
    {
      "midi": 66,
      "time": 40.313,
      "duration": 0.313,
      "velocity": 0.63,
      "hand": "right"
    },
    {
      "midi": 71,
      "time": 40.313,
      "duration": 0.313,
      "velocity": 0.63,
      "hand": "right"
    },
    {
      "midi": 49,
      "time": 40.469,
      "duration": 0.156,
      "velocity": 0.63,
      "hand": "left"
    },
    {
      "midi": 57,
      "time": 40.625,
      "duration": 0.156,
      "velocity": 0.63,
      "hand": "left"
    },
    {
      "midi": 66,
      "time": 40.625,
      "duration": 0.313,
      "velocity": 0.63,
      "hand": "right"
    },
    {
      "midi": 69,
      "time": 40.625,
      "duration": 0.313,
      "velocity": 0.63,
      "hand": "right"
    },
    {
      "midi": 49,
      "time": 40.781,
      "duration": 0.156,
      "velocity": 0.63,
      "hand": "left"
    },
    {
      "midi": 57,
      "time": 40.938,
      "duration": 0.156,
      "velocity": 0.63,
      "hand": "left"
    },
    {
      "midi": 66,
      "time": 40.938,
      "duration": 0.313,
      "velocity": 0.63,
      "hand": "right"
    },
    {
      "midi": 68,
      "time": 40.938,
      "duration": 0.313,
      "velocity": 0.63,
      "hand": "right"
    },
    {
      "midi": 49,
      "time": 41.094,
      "duration": 0.156,
      "velocity": 0.63,
      "hand": "left"
    },
    {
      "midi": 44,
      "time": 41.25,
      "duration": 0.313,
      "velocity": 0.63,
      "hand": "left"
    },
    {
      "midi": 56,
      "time": 41.25,
      "duration": 0.313,
      "velocity": 0.63,
      "hand": "left"
    },
    {
      "midi": 60,
      "time": 41.25,
      "duration": 0.938,
      "velocity": 0.63,
      "hand": "right"
    },
    {
      "midi": 63,
      "time": 41.25,
      "duration": 0.938,
      "velocity": 0.63,
      "hand": "right"
    },
    {
      "midi": 68,
      "time": 41.25,
      "duration": 0.938,
      "velocity": 0.63,
      "hand": "right"
    },
    {
      "midi": 44,
      "time": 41.563,
      "duration": 0.313,
      "velocity": 0.64,
      "hand": "left"
    },
    {
      "midi": 56,
      "time": 41.563,
      "duration": 0.313,
      "velocity": 0.64,
      "hand": "left"
    },
    {
      "midi": 44,
      "time": 41.875,
      "duration": 0.313,
      "velocity": 0.65,
      "hand": "left"
    },
    {
      "midi": 56,
      "time": 41.875,
      "duration": 0.313,
      "velocity": 0.65,
      "hand": "left"
    },
    {
      "midi": 44,
      "time": 42.188,
      "duration": 0.313,
      "velocity": 0.66,
      "hand": "left"
    },
    {
      "midi": 56,
      "time": 42.188,
      "duration": 0.313,
      "velocity": 0.66,
      "hand": "left"
    },
    {
      "midi": 61,
      "time": 42.188,
      "duration": 0.938,
      "velocity": 0.66,
      "hand": "right"
    },
    {
      "midi": 68,
      "time": 42.188,
      "duration": 0.938,
      "velocity": 0.66,
      "hand": "right"
    },
    {
      "midi": 73,
      "time": 42.188,
      "duration": 0.938,
      "velocity": 0.66,
      "hand": "right"
    },
    {
      "midi": 44,
      "time": 42.5,
      "duration": 0.313,
      "velocity": 0.67,
      "hand": "left"
    },
    {
      "midi": 56,
      "time": 42.5,
      "duration": 0.313,
      "velocity": 0.67,
      "hand": "left"
    },
    {
      "midi": 44,
      "time": 42.813,
      "duration": 0.313,
      "velocity": 0.68,
      "hand": "left"
    },
    {
      "midi": 56,
      "time": 42.813,
      "duration": 0.313,
      "velocity": 0.68,
      "hand": "left"
    },
    {
      "midi": 51,
      "time": 43.125,
      "duration": 0.156,
      "velocity": 0.69,
      "hand": "left"
    },
    {
      "midi": 56,
      "time": 43.125,
      "duration": 0.156,
      "velocity": 0.69,
      "hand": "left"
    },
    {
      "midi": 64,
      "time": 43.125,
      "duration": 0.938,
      "velocity": 0.69,
      "hand": "right"
    },
    {
      "midi": 68,
      "time": 43.125,
      "duration": 0.938,
      "velocity": 0.69,
      "hand": "right"
    },
    {
      "midi": 76,
      "time": 43.125,
      "duration": 0.938,
      "velocity": 0.69,
      "hand": "right"
    },
    {
      "midi": 44,
      "time": 43.281,
      "duration": 0.156,
      "velocity": 0.69,
      "hand": "left"
    },
    {
      "midi": 51,
      "time": 43.438,
      "duration": 0.156,
      "velocity": 0.7,
      "hand": "left"
    },
    {
      "midi": 56,
      "time": 43.438,
      "duration": 0.156,
      "velocity": 0.7,
      "hand": "left"
    },
    {
      "midi": 44,
      "time": 43.594,
      "duration": 0.156,
      "velocity": 0.71,
      "hand": "left"
    },
    {
      "midi": 51,
      "time": 43.75,
      "duration": 0.156,
      "velocity": 0.71,
      "hand": "left"
    },
    {
      "midi": 56,
      "time": 43.75,
      "duration": 0.156,
      "velocity": 0.71,
      "hand": "left"
    },
    {
      "midi": 44,
      "time": 43.906,
      "duration": 0.156,
      "velocity": 0.72,
      "hand": "left"
    },
    {
      "midi": 60,
      "time": 44.063,
      "duration": 0.938,
      "velocity": 0.87,
      "hand": "right"
    },
    {
      "midi": 63,
      "time": 44.063,
      "duration": 0.938,
      "velocity": 0.87,
      "hand": "right"
    },
    {
      "midi": 66,
      "time": 44.063,
      "duration": 0.938,
      "velocity": 0.87,
      "hand": "right"
    },
    {
      "midi": 68,
      "time": 44.063,
      "duration": 0.938,
      "velocity": 0.87,
      "hand": "right"
    },
    {
      "midi": 72,
      "time": 44.063,
      "duration": 0.938,
      "velocity": 0.87,
      "hand": "right"
    },
    {
      "midi": 78,
      "time": 44.063,
      "duration": 0.938,
      "velocity": 0.87,
      "hand": "right"
    },
    {
      "midi": 33,
      "time": 45,
      "duration": 0.313,
      "velocity": 0.91,
      "hand": "left"
    },
    {
      "midi": 45,
      "time": 45,
      "duration": 0.313,
      "velocity": 0.91,
      "hand": "left"
    },
    {
      "midi": 80,
      "time": 45,
      "duration": 0.078,
      "velocity": 0.76,
      "hand": "right"
    },
    {
      "midi": 80,
      "time": 45,
      "duration": 0.156,
      "velocity": 0.91,
      "hand": "right"
    },
    {
      "midi": 85,
      "time": 45,
      "duration": 0.469,
      "velocity": 0.91,
      "hand": "right"
    },
    {
      "midi": 88,
      "time": 45,
      "duration": 1.719,
      "velocity": 0.91,
      "hand": "right"
    },
    {
      "midi": 92,
      "time": 45,
      "duration": 1.719,
      "velocity": 0.91,
      "hand": "right"
    },
    {
      "midi": 80,
      "time": 45.156,
      "duration": 0.625,
      "velocity": 0.76,
      "hand": "right"
    },
    {
      "midi": 83,
      "time": 45.313,
      "duration": 0.156,
      "velocity": 0.76,
      "hand": "right"
    },
    {
      "midi": 85,
      "time": 45.469,
      "duration": 0.938,
      "velocity": 0.76,
      "hand": "right"
    },
    {
      "midi": 83,
      "time": 45.625,
      "duration": 0.156,
      "velocity": 0.76,
      "hand": "right"
    },
    {
      "midi": 80,
      "time": 45.781,
      "duration": 0.313,
      "velocity": 0.76,
      "hand": "right"
    },
    {
      "midi": 56,
      "time": 45.938,
      "duration": 0.938,
      "velocity": 0.76,
      "hand": "left"
    },
    {
      "midi": 61,
      "time": 45.938,
      "duration": 0.938,
      "velocity": 0.76,
      "hand": "right"
    },
    {
      "midi": 64,
      "time": 45.938,
      "duration": 0.938,
      "velocity": 0.76,
      "hand": "right"
    },
    {
      "midi": 78,
      "time": 45.938,
      "duration": 0.156,
      "velocity": 0.76,
      "hand": "right"
    },
    {
      "midi": 80,
      "time": 46.094,
      "duration": 0.625,
      "velocity": 0.76,
      "hand": "right"
    },
    {
      "midi": 83,
      "time": 46.25,
      "duration": 0.156,
      "velocity": 0.76,
      "hand": "right"
    },
    {
      "midi": 85,
      "time": 46.406,
      "duration": 0.313,
      "velocity": 0.76,
      "hand": "right"
    },
    {
      "midi": 83,
      "time": 46.563,
      "duration": 0.156,
      "velocity": 0.76,
      "hand": "right"
    },
    {
      "midi": 80,
      "time": 46.719,
      "duration": 0.156,
      "velocity": 0.76,
      "hand": "right"
    },
    {
      "midi": 68,
      "time": 46.875,
      "duration": 0.938,
      "velocity": 0.76,
      "hand": "right"
    },
    {
      "midi": 73,
      "time": 46.875,
      "duration": 0.938,
      "velocity": 0.76,
      "hand": "right"
    },
    {
      "midi": 76,
      "time": 46.875,
      "duration": 0.938,
      "velocity": 0.76,
      "hand": "right"
    },
    {
      "midi": 78,
      "time": 46.875,
      "duration": 0.156,
      "velocity": 0.76,
      "hand": "right"
    },
    {
      "midi": 80,
      "time": 47.031,
      "duration": 0.156,
      "velocity": 0.76,
      "hand": "right"
    },
    {
      "midi": 83,
      "time": 47.188,
      "duration": 0.156,
      "velocity": 0.76,
      "hand": "right"
    },
    {
      "midi": 85,
      "time": 47.344,
      "duration": 0.156,
      "velocity": 0.76,
      "hand": "right"
    },
    {
      "midi": 83,
      "time": 47.5,
      "duration": 0.156,
      "velocity": 0.76,
      "hand": "right"
    },
    {
      "midi": 80,
      "time": 47.656,
      "duration": 0.156,
      "velocity": 0.76,
      "hand": "right"
    },
    {
      "midi": 61,
      "time": 47.813,
      "duration": 0.938,
      "velocity": 0.76,
      "hand": "right"
    },
    {
      "midi": 64,
      "time": 47.813,
      "duration": 0.938,
      "velocity": 0.76,
      "hand": "right"
    },
    {
      "midi": 68,
      "time": 47.813,
      "duration": 0.938,
      "velocity": 0.76,
      "hand": "right"
    },
    {
      "midi": 78,
      "time": 47.813,
      "duration": 0.156,
      "velocity": 0.76,
      "hand": "right"
    },
    {
      "midi": 80,
      "time": 47.969,
      "duration": 0.156,
      "velocity": 0.76,
      "hand": "right"
    },
    {
      "midi": 83,
      "time": 48.125,
      "duration": 0.156,
      "velocity": 0.76,
      "hand": "right"
    },
    {
      "midi": 85,
      "time": 48.281,
      "duration": 0.156,
      "velocity": 0.76,
      "hand": "right"
    },
    {
      "midi": 83,
      "time": 48.438,
      "duration": 0.156,
      "velocity": 0.76,
      "hand": "right"
    },
    {
      "midi": 80,
      "time": 48.594,
      "duration": 0.156,
      "velocity": 0.76,
      "hand": "right"
    },
    {
      "midi": 33,
      "time": 48.75,
      "duration": 0.313,
      "velocity": 0.76,
      "hand": "left"
    },
    {
      "midi": 45,
      "time": 48.75,
      "duration": 0.313,
      "velocity": 0.76,
      "hand": "left"
    },
    {
      "midi": 73,
      "time": 48.75,
      "duration": 0.938,
      "velocity": 0.76,
      "hand": "right"
    },
    {
      "midi": 76,
      "time": 48.75,
      "duration": 0.938,
      "velocity": 0.76,
      "hand": "right"
    },
    {
      "midi": 80,
      "time": 48.75,
      "duration": 0.938,
      "velocity": 0.76,
      "hand": "right"
    },
    {
      "midi": 85,
      "time": 48.75,
      "duration": 0.938,
      "velocity": 0.76,
      "hand": "right"
    },
    {
      "midi": 45,
      "time": 49.688,
      "duration": 0.938,
      "velocity": 0.76,
      "hand": "left"
    },
    {
      "midi": 52,
      "time": 49.688,
      "duration": 0.938,
      "velocity": 0.76,
      "hand": "left"
    },
    {
      "midi": 56,
      "time": 49.688,
      "duration": 0.938,
      "velocity": 0.76,
      "hand": "left"
    },
    {
      "midi": 75,
      "time": 49.688,
      "duration": 0.938,
      "velocity": 0.76,
      "hand": "right"
    },
    {
      "midi": 80,
      "time": 49.688,
      "duration": 0.938,
      "velocity": 0.76,
      "hand": "right"
    },
    {
      "midi": 87,
      "time": 49.688,
      "duration": 0.938,
      "velocity": 0.76,
      "hand": "right"
    },
    {
      "midi": 33,
      "time": 50.625,
      "duration": 0.313,
      "velocity": 0.91,
      "hand": "left"
    },
    {
      "midi": 45,
      "time": 50.625,
      "duration": 0.313,
      "velocity": 0.91,
      "hand": "left"
    },
    {
      "midi": 83,
      "time": 50.625,
      "duration": 0.078,
      "velocity": 0.76,
      "hand": "right"
    },
    {
      "midi": 88,
      "time": 50.625,
      "duration": 0.078,
      "velocity": 0.76,
      "hand": "right"
    },
    {
      "midi": 95,
      "time": 50.625,
      "duration": 0.078,
      "velocity": 0.76,
      "hand": "right"
    },
    {
      "midi": 83,
      "time": 50.781,
      "duration": 0.078,
      "velocity": 0.76,
      "hand": "right"
    },
    {
      "midi": 88,
      "time": 50.781,
      "duration": 0.078,
      "velocity": 0.76,
      "hand": "right"
    },
    {
      "midi": 95,
      "time": 50.781,
      "duration": 0.078,
      "velocity": 0.76,
      "hand": "right"
    },
    {
      "midi": 52,
      "time": 50.938,
      "duration": 0.313,
      "velocity": 0.76,
      "hand": "left"
    },
    {
      "midi": 60,
      "time": 50.938,
      "duration": 0.313,
      "velocity": 0.76,
      "hand": "right"
    },
    {
      "midi": 83,
      "time": 50.938,
      "duration": 0.078,
      "velocity": 0.76,
      "hand": "right"
    },
    {
      "midi": 88,
      "time": 50.938,
      "duration": 0.078,
      "velocity": 0.76,
      "hand": "right"
    },
    {
      "midi": 95,
      "time": 50.938,
      "duration": 0.078,
      "velocity": 0.76,
      "hand": "right"
    },
    {
      "midi": 83,
      "time": 51.094,
      "duration": 0.078,
      "velocity": 0.76,
      "hand": "right"
    },
    {
      "midi": 88,
      "time": 51.094,
      "duration": 0.078,
      "velocity": 0.76,
      "hand": "right"
    },
    {
      "midi": 95,
      "time": 51.094,
      "duration": 0.078,
      "velocity": 0.76,
      "hand": "right"
    },
    {
      "midi": 52,
      "time": 51.25,
      "duration": 0.313,
      "velocity": 0.76,
      "hand": "left"
    },
    {
      "midi": 60,
      "time": 51.25,
      "duration": 0.313,
      "velocity": 0.76,
      "hand": "right"
    },
    {
      "midi": 83,
      "time": 51.25,
      "duration": 0.078,
      "velocity": 0.76,
      "hand": "right"
    },
    {
      "midi": 88,
      "time": 51.25,
      "duration": 0.078,
      "velocity": 0.76,
      "hand": "right"
    },
    {
      "midi": 95,
      "time": 51.25,
      "duration": 0.078,
      "velocity": 0.76,
      "hand": "right"
    },
    {
      "midi": 83,
      "time": 51.406,
      "duration": 0.078,
      "velocity": 0.76,
      "hand": "right"
    },
    {
      "midi": 88,
      "time": 51.406,
      "duration": 0.078,
      "velocity": 0.76,
      "hand": "right"
    },
    {
      "midi": 95,
      "time": 51.406,
      "duration": 0.078,
      "velocity": 0.76,
      "hand": "right"
    },
    {
      "midi": 42,
      "time": 51.563,
      "duration": 0.313,
      "velocity": 0.91,
      "hand": "left"
    },
    {
      "midi": 54,
      "time": 51.563,
      "duration": 0.313,
      "velocity": 0.91,
      "hand": "left"
    },
    {
      "midi": 81,
      "time": 51.563,
      "duration": 0.078,
      "velocity": 0.76,
      "hand": "right"
    },
    {
      "midi": 90,
      "time": 51.563,
      "duration": 0.078,
      "velocity": 0.76,
      "hand": "right"
    },
    {
      "midi": 93,
      "time": 51.563,
      "duration": 0.078,
      "velocity": 0.76,
      "hand": "right"
    },
    {
      "midi": 81,
      "time": 51.719,
      "duration": 0.078,
      "velocity": 0.76,
      "hand": "right"
    },
    {
      "midi": 90,
      "time": 51.719,
      "duration": 0.078,
      "velocity": 0.76,
      "hand": "right"
    },
    {
      "midi": 93,
      "time": 51.719,
      "duration": 0.078,
      "velocity": 0.76,
      "hand": "right"
    },
    {
      "midi": 57,
      "time": 51.875,
      "duration": 0.313,
      "velocity": 0.76,
      "hand": "left"
    },
    {
      "midi": 60,
      "time": 51.875,
      "duration": 0.313,
      "velocity": 0.76,
      "hand": "right"
    },
    {
      "midi": 64,
      "time": 51.875,
      "duration": 0.313,
      "velocity": 0.76,
      "hand": "right"
    },
    {
      "midi": 81,
      "time": 51.875,
      "duration": 0.078,
      "velocity": 0.76,
      "hand": "right"
    },
    {
      "midi": 90,
      "time": 51.875,
      "duration": 0.078,
      "velocity": 0.76,
      "hand": "right"
    },
    {
      "midi": 93,
      "time": 51.875,
      "duration": 0.078,
      "velocity": 0.76,
      "hand": "right"
    },
    {
      "midi": 81,
      "time": 52.031,
      "duration": 0.078,
      "velocity": 0.76,
      "hand": "right"
    },
    {
      "midi": 90,
      "time": 52.031,
      "duration": 0.078,
      "velocity": 0.76,
      "hand": "right"
    },
    {
      "midi": 93,
      "time": 52.031,
      "duration": 0.078,
      "velocity": 0.76,
      "hand": "right"
    },
    {
      "midi": 57,
      "time": 52.188,
      "duration": 0.313,
      "velocity": 0.76,
      "hand": "left"
    },
    {
      "midi": 60,
      "time": 52.188,
      "duration": 0.313,
      "velocity": 0.76,
      "hand": "right"
    },
    {
      "midi": 64,
      "time": 52.188,
      "duration": 0.313,
      "velocity": 0.76,
      "hand": "right"
    },
    {
      "midi": 81,
      "time": 52.188,
      "duration": 0.078,
      "velocity": 0.76,
      "hand": "right"
    },
    {
      "midi": 90,
      "time": 52.188,
      "duration": 0.078,
      "velocity": 0.76,
      "hand": "right"
    },
    {
      "midi": 93,
      "time": 52.188,
      "duration": 0.078,
      "velocity": 0.76,
      "hand": "right"
    },
    {
      "midi": 81,
      "time": 52.344,
      "duration": 0.078,
      "velocity": 0.76,
      "hand": "right"
    },
    {
      "midi": 90,
      "time": 52.344,
      "duration": 0.078,
      "velocity": 0.76,
      "hand": "right"
    },
    {
      "midi": 93,
      "time": 52.344,
      "duration": 0.078,
      "velocity": 0.76,
      "hand": "right"
    },
    {
      "midi": 28,
      "time": 52.5,
      "duration": 0.313,
      "velocity": 0.91,
      "hand": "left"
    },
    {
      "midi": 40,
      "time": 52.5,
      "duration": 0.313,
      "velocity": 0.91,
      "hand": "left"
    },
    {
      "midi": 80,
      "time": 52.5,
      "duration": 0.078,
      "velocity": 0.76,
      "hand": "right"
    },
    {
      "midi": 80,
      "time": 52.5,
      "duration": 0.469,
      "velocity": 0.91,
      "hand": "right"
    },
    {
      "midi": 87,
      "time": 52.5,
      "duration": 1.719,
      "velocity": 0.91,
      "hand": "right"
    },
    {
      "midi": 88,
      "time": 52.5,
      "duration": 1.719,
      "velocity": 0.91,
      "hand": "right"
    },
    {
      "midi": 92,
      "time": 52.5,
      "duration": 1.719,
      "velocity": 0.91,
      "hand": "right"
    },
    {
      "midi": 76,
      "time": 52.656,
      "duration": 0.156,
      "velocity": 0.76,
      "hand": "right"
    },
    {
      "midi": 56,
      "time": 52.813,
      "duration": 0.313,
      "velocity": 0.76,
      "hand": "left"
    },
    {
      "midi": 59,
      "time": 52.813,
      "duration": 0.313,
      "velocity": 0.76,
      "hand": "left"
    },
    {
      "midi": 63,
      "time": 52.813,
      "duration": 0.313,
      "velocity": 0.76,
      "hand": "right"
    },
    {
      "midi": 78,
      "time": 52.813,
      "duration": 0.156,
      "velocity": 0.76,
      "hand": "right"
    },
    {
      "midi": 80,
      "time": 52.969,
      "duration": 0.938,
      "velocity": 0.76,
      "hand": "right"
    },
    {
      "midi": 56,
      "time": 53.125,
      "duration": 0.313,
      "velocity": 0.76,
      "hand": "left"
    },
    {
      "midi": 59,
      "time": 53.125,
      "duration": 0.313,
      "velocity": 0.76,
      "hand": "left"
    },
    {
      "midi": 63,
      "time": 53.125,
      "duration": 0.313,
      "velocity": 0.76,
      "hand": "right"
    },
    {
      "midi": 78,
      "time": 53.125,
      "duration": 0.156,
      "velocity": 0.76,
      "hand": "right"
    },
    {
      "midi": 76,
      "time": 53.281,
      "duration": 0.156,
      "velocity": 0.76,
      "hand": "right"
    },
    {
      "midi": 40,
      "time": 53.438,
      "duration": 0.313,
      "velocity": 0.91,
      "hand": "left"
    },
    {
      "midi": 52,
      "time": 53.438,
      "duration": 0.313,
      "velocity": 0.91,
      "hand": "left"
    },
    {
      "midi": 75,
      "time": 53.438,
      "duration": 0.156,
      "velocity": 0.76,
      "hand": "right"
    },
    {
      "midi": 76,
      "time": 53.594,
      "duration": 0.156,
      "velocity": 0.76,
      "hand": "right"
    },
    {
      "midi": 56,
      "time": 53.75,
      "duration": 0.313,
      "velocity": 0.76,
      "hand": "left"
    },
    {
      "midi": 59,
      "time": 53.75,
      "duration": 0.313,
      "velocity": 0.76,
      "hand": "left"
    },
    {
      "midi": 63,
      "time": 53.75,
      "duration": 0.313,
      "velocity": 0.76,
      "hand": "right"
    },
    {
      "midi": 78,
      "time": 53.75,
      "duration": 0.156,
      "velocity": 0.76,
      "hand": "right"
    },
    {
      "midi": 80,
      "time": 53.906,
      "duration": 0.313,
      "velocity": 0.76,
      "hand": "right"
    },
    {
      "midi": 56,
      "time": 54.063,
      "duration": 0.313,
      "velocity": 0.76,
      "hand": "left"
    },
    {
      "midi": 59,
      "time": 54.063,
      "duration": 0.313,
      "velocity": 0.76,
      "hand": "left"
    },
    {
      "midi": 63,
      "time": 54.063,
      "duration": 0.313,
      "velocity": 0.76,
      "hand": "right"
    },
    {
      "midi": 78,
      "time": 54.063,
      "duration": 0.156,
      "velocity": 0.76,
      "hand": "right"
    },
    {
      "midi": 76,
      "time": 54.219,
      "duration": 0.156,
      "velocity": 0.76,
      "hand": "right"
    },
    {
      "midi": 68,
      "time": 54.375,
      "duration": 0.625,
      "velocity": 0.76,
      "hand": "right"
    },
    {
      "midi": 71,
      "time": 54.375,
      "duration": 0.625,
      "velocity": 0.76,
      "hand": "right"
    },
    {
      "midi": 75,
      "time": 54.375,
      "duration": 0.156,
      "velocity": 0.76,
      "hand": "right"
    },
    {
      "midi": 76,
      "time": 54.531,
      "duration": 0.156,
      "velocity": 0.76,
      "hand": "right"
    },
    {
      "midi": 78,
      "time": 54.688,
      "duration": 0.156,
      "velocity": 0.76,
      "hand": "right"
    },
    {
      "midi": 80,
      "time": 54.844,
      "duration": 0.156,
      "velocity": 0.76,
      "hand": "right"
    },
    {
      "midi": 68,
      "time": 55,
      "duration": 0.313,
      "velocity": 0.76,
      "hand": "right"
    },
    {
      "midi": 71,
      "time": 55,
      "duration": 0.313,
      "velocity": 0.76,
      "hand": "right"
    },
    {
      "midi": 75,
      "time": 55,
      "duration": 0.313,
      "velocity": 0.76,
      "hand": "right"
    },
    {
      "midi": 78,
      "time": 55,
      "duration": 0.156,
      "velocity": 0.76,
      "hand": "right"
    },
    {
      "midi": 76,
      "time": 55.156,
      "duration": 0.156,
      "velocity": 0.76,
      "hand": "right"
    },
    {
      "midi": 59,
      "time": 55.313,
      "duration": 0.625,
      "velocity": 0.76,
      "hand": "left"
    },
    {
      "midi": 63,
      "time": 55.313,
      "duration": 0.625,
      "velocity": 0.76,
      "hand": "right"
    },
    {
      "midi": 68,
      "time": 55.313,
      "duration": 0.625,
      "velocity": 0.76,
      "hand": "right"
    },
    {
      "midi": 75,
      "time": 55.313,
      "duration": 0.156,
      "velocity": 0.76,
      "hand": "right"
    },
    {
      "midi": 76,
      "time": 55.469,
      "duration": 0.156,
      "velocity": 0.76,
      "hand": "right"
    },
    {
      "midi": 78,
      "time": 55.625,
      "duration": 0.156,
      "velocity": 0.76,
      "hand": "right"
    },
    {
      "midi": 80,
      "time": 55.781,
      "duration": 0.156,
      "velocity": 0.76,
      "hand": "right"
    },
    {
      "midi": 59,
      "time": 55.938,
      "duration": 0.313,
      "velocity": 0.76,
      "hand": "left"
    },
    {
      "midi": 63,
      "time": 55.938,
      "duration": 0.313,
      "velocity": 0.76,
      "hand": "right"
    },
    {
      "midi": 68,
      "time": 55.938,
      "duration": 0.313,
      "velocity": 0.76,
      "hand": "right"
    },
    {
      "midi": 78,
      "time": 55.938,
      "duration": 0.156,
      "velocity": 0.76,
      "hand": "right"
    },
    {
      "midi": 76,
      "time": 56.094,
      "duration": 0.156,
      "velocity": 0.76,
      "hand": "right"
    },
    {
      "midi": 28,
      "time": 56.25,
      "duration": 0.313,
      "velocity": 0.91,
      "hand": "left"
    },
    {
      "midi": 40,
      "time": 56.25,
      "duration": 0.313,
      "velocity": 0.91,
      "hand": "left"
    },
    {
      "midi": 75,
      "time": 56.25,
      "duration": 0.156,
      "velocity": 0.76,
      "hand": "right"
    },
    {
      "midi": 76,
      "time": 56.406,
      "duration": 0.156,
      "velocity": 0.76,
      "hand": "right"
    },
    {
      "midi": 78,
      "time": 56.563,
      "duration": 0.156,
      "velocity": 0.76,
      "hand": "right"
    },
    {
      "midi": 80,
      "time": 56.719,
      "duration": 0.156,
      "velocity": 0.76,
      "hand": "right"
    },
    {
      "midi": 40,
      "time": 56.875,
      "duration": 0.313,
      "velocity": 0.76,
      "hand": "left"
    },
    {
      "midi": 52,
      "time": 56.875,
      "duration": 0.313,
      "velocity": 0.76,
      "hand": "left"
    },
    {
      "midi": 78,
      "time": 56.875,
      "duration": 0.156,
      "velocity": 0.76,
      "hand": "right"
    },
    {
      "midi": 76,
      "time": 57.031,
      "duration": 0.156,
      "velocity": 0.76,
      "hand": "right"
    },
    {
      "midi": 56,
      "time": 57.188,
      "duration": 0.625,
      "velocity": 0.76,
      "hand": "left"
    },
    {
      "midi": 59,
      "time": 57.188,
      "duration": 0.625,
      "velocity": 0.76,
      "hand": "left"
    },
    {
      "midi": 63,
      "time": 57.188,
      "duration": 0.625,
      "velocity": 0.76,
      "hand": "right"
    },
    {
      "midi": 87,
      "time": 57.188,
      "duration": 0.938,
      "velocity": 0.91,
      "hand": "right"
    },
    {
      "midi": 76,
      "time": 57.344,
      "duration": 0.156,
      "velocity": 0.76,
      "hand": "right"
    },
    {
      "midi": 78,
      "time": 57.5,
      "duration": 0.156,
      "velocity": 0.76,
      "hand": "right"
    },
    {
      "midi": 80,
      "time": 57.656,
      "duration": 0.156,
      "velocity": 0.76,
      "hand": "right"
    },
    {
      "midi": 56,
      "time": 57.813,
      "duration": 0.313,
      "velocity": 0.76,
      "hand": "left"
    },
    {
      "midi": 59,
      "time": 57.813,
      "duration": 0.313,
      "velocity": 0.76,
      "hand": "left"
    },
    {
      "midi": 63,
      "time": 57.813,
      "duration": 0.313,
      "velocity": 0.76,
      "hand": "right"
    },
    {
      "midi": 78,
      "time": 57.813,
      "duration": 0.156,
      "velocity": 0.76,
      "hand": "right"
    },
    {
      "midi": 76,
      "time": 57.969,
      "duration": 0.156,
      "velocity": 0.76,
      "hand": "right"
    },
    {
      "midi": 30,
      "time": 58.125,
      "duration": 0.938,
      "velocity": 0.91,
      "hand": "left"
    },
    {
      "midi": 42,
      "time": 58.125,
      "duration": 0.938,
      "velocity": 0.91,
      "hand": "left"
    },
    {
      "midi": 88,
      "time": 58.125,
      "duration": 0.938,
      "velocity": 0.91,
      "hand": "right"
    },
    {
      "midi": 76,
      "time": 58.281,
      "duration": 0.156,
      "velocity": 0.76,
      "hand": "right"
    },
    {
      "midi": 78,
      "time": 58.438,
      "duration": 0.156,
      "velocity": 0.76,
      "hand": "right"
    },
    {
      "midi": 80,
      "time": 58.594,
      "duration": 0.156,
      "velocity": 0.76,
      "hand": "right"
    },
    {
      "midi": 78,
      "time": 58.75,
      "duration": 0.156,
      "velocity": 0.76,
      "hand": "right"
    },
    {
      "midi": 76,
      "time": 58.906,
      "duration": 0.156,
      "velocity": 0.76,
      "hand": "right"
    },
    {
      "midi": 32,
      "time": 59.063,
      "duration": 0.938,
      "velocity": 0.91,
      "hand": "left"
    },
    {
      "midi": 44,
      "time": 59.063,
      "duration": 0.938,
      "velocity": 0.91,
      "hand": "left"
    },
    {
      "midi": 90,
      "time": 59.063,
      "duration": 0.938,
      "velocity": 0.91,
      "hand": "right"
    },
    {
      "midi": 76,
      "time": 59.219,
      "duration": 0.156,
      "velocity": 0.76,
      "hand": "right"
    },
    {
      "midi": 78,
      "time": 59.375,
      "duration": 0.156,
      "velocity": 0.76,
      "hand": "right"
    },
    {
      "midi": 80,
      "time": 59.531,
      "duration": 0.156,
      "velocity": 0.76,
      "hand": "right"
    },
    {
      "midi": 78,
      "time": 59.688,
      "duration": 0.156,
      "velocity": 0.76,
      "hand": "right"
    },
    {
      "midi": 76,
      "time": 59.844,
      "duration": 0.156,
      "velocity": 0.76,
      "hand": "right"
    },
    {
      "midi": 33,
      "time": 60,
      "duration": 0.313,
      "velocity": 0.91,
      "hand": "left"
    },
    {
      "midi": 45,
      "time": 60,
      "duration": 0.313,
      "velocity": 0.91,
      "hand": "left"
    },
    {
      "midi": 80,
      "time": 60,
      "duration": 0.078,
      "velocity": 0.76,
      "hand": "right"
    },
    {
      "midi": 80,
      "time": 60,
      "duration": 0.156,
      "velocity": 0.91,
      "hand": "right"
    },
    {
      "midi": 85,
      "time": 60,
      "duration": 0.469,
      "velocity": 0.91,
      "hand": "right"
    },
    {
      "midi": 88,
      "time": 60,
      "duration": 1.719,
      "velocity": 0.91,
      "hand": "right"
    },
    {
      "midi": 92,
      "time": 60,
      "duration": 1.719,
      "velocity": 0.91,
      "hand": "right"
    },
    {
      "midi": 80,
      "time": 60.156,
      "duration": 0.625,
      "velocity": 0.76,
      "hand": "right"
    },
    {
      "midi": 83,
      "time": 60.313,
      "duration": 0.156,
      "velocity": 0.76,
      "hand": "right"
    },
    {
      "midi": 85,
      "time": 60.469,
      "duration": 0.938,
      "velocity": 0.76,
      "hand": "right"
    },
    {
      "midi": 83,
      "time": 60.625,
      "duration": 0.156,
      "velocity": 0.76,
      "hand": "right"
    },
    {
      "midi": 80,
      "time": 60.781,
      "duration": 0.313,
      "velocity": 0.76,
      "hand": "right"
    },
    {
      "midi": 56,
      "time": 60.938,
      "duration": 0.938,
      "velocity": 0.76,
      "hand": "left"
    },
    {
      "midi": 61,
      "time": 60.938,
      "duration": 0.938,
      "velocity": 0.76,
      "hand": "right"
    },
    {
      "midi": 64,
      "time": 60.938,
      "duration": 0.938,
      "velocity": 0.76,
      "hand": "right"
    },
    {
      "midi": 78,
      "time": 60.938,
      "duration": 0.156,
      "velocity": 0.76,
      "hand": "right"
    },
    {
      "midi": 80,
      "time": 61.094,
      "duration": 0.625,
      "velocity": 0.76,
      "hand": "right"
    },
    {
      "midi": 83,
      "time": 61.25,
      "duration": 0.156,
      "velocity": 0.76,
      "hand": "right"
    },
    {
      "midi": 85,
      "time": 61.406,
      "duration": 0.313,
      "velocity": 0.76,
      "hand": "right"
    },
    {
      "midi": 83,
      "time": 61.563,
      "duration": 0.156,
      "velocity": 0.76,
      "hand": "right"
    },
    {
      "midi": 80,
      "time": 61.719,
      "duration": 0.156,
      "velocity": 0.76,
      "hand": "right"
    },
    {
      "midi": 68,
      "time": 61.875,
      "duration": 0.938,
      "velocity": 0.76,
      "hand": "right"
    },
    {
      "midi": 73,
      "time": 61.875,
      "duration": 0.938,
      "velocity": 0.76,
      "hand": "right"
    },
    {
      "midi": 76,
      "time": 61.875,
      "duration": 0.938,
      "velocity": 0.76,
      "hand": "right"
    },
    {
      "midi": 78,
      "time": 61.875,
      "duration": 0.156,
      "velocity": 0.76,
      "hand": "right"
    },
    {
      "midi": 80,
      "time": 62.031,
      "duration": 0.156,
      "velocity": 0.76,
      "hand": "right"
    },
    {
      "midi": 83,
      "time": 62.188,
      "duration": 0.156,
      "velocity": 0.76,
      "hand": "right"
    },
    {
      "midi": 85,
      "time": 62.344,
      "duration": 0.156,
      "velocity": 0.76,
      "hand": "right"
    },
    {
      "midi": 83,
      "time": 62.5,
      "duration": 0.156,
      "velocity": 0.76,
      "hand": "right"
    },
    {
      "midi": 80,
      "time": 62.656,
      "duration": 0.156,
      "velocity": 0.76,
      "hand": "right"
    },
    {
      "midi": 61,
      "time": 62.813,
      "duration": 0.938,
      "velocity": 0.76,
      "hand": "right"
    },
    {
      "midi": 64,
      "time": 62.813,
      "duration": 0.938,
      "velocity": 0.76,
      "hand": "right"
    },
    {
      "midi": 68,
      "time": 62.813,
      "duration": 0.938,
      "velocity": 0.76,
      "hand": "right"
    },
    {
      "midi": 78,
      "time": 62.813,
      "duration": 0.156,
      "velocity": 0.76,
      "hand": "right"
    },
    {
      "midi": 80,
      "time": 62.969,
      "duration": 0.156,
      "velocity": 0.76,
      "hand": "right"
    },
    {
      "midi": 83,
      "time": 63.125,
      "duration": 0.156,
      "velocity": 0.76,
      "hand": "right"
    },
    {
      "midi": 85,
      "time": 63.281,
      "duration": 0.156,
      "velocity": 0.76,
      "hand": "right"
    },
    {
      "midi": 83,
      "time": 63.438,
      "duration": 0.156,
      "velocity": 0.76,
      "hand": "right"
    },
    {
      "midi": 80,
      "time": 63.594,
      "duration": 0.156,
      "velocity": 0.76,
      "hand": "right"
    },
    {
      "midi": 33,
      "time": 63.75,
      "duration": 0.313,
      "velocity": 0.91,
      "hand": "left"
    },
    {
      "midi": 45,
      "time": 63.75,
      "duration": 0.313,
      "velocity": 0.91,
      "hand": "left"
    },
    {
      "midi": 73,
      "time": 63.75,
      "duration": 0.938,
      "velocity": 0.76,
      "hand": "right"
    },
    {
      "midi": 76,
      "time": 63.75,
      "duration": 0.938,
      "velocity": 0.76,
      "hand": "right"
    },
    {
      "midi": 80,
      "time": 63.75,
      "duration": 0.938,
      "velocity": 0.76,
      "hand": "right"
    },
    {
      "midi": 85,
      "time": 63.75,
      "duration": 0.938,
      "velocity": 0.76,
      "hand": "right"
    },
    {
      "midi": 45,
      "time": 64.219,
      "duration": 0.156,
      "velocity": 0.76,
      "hand": "left"
    },
    {
      "midi": 57,
      "time": 64.375,
      "duration": 0.156,
      "velocity": 0.76,
      "hand": "left"
    },
    {
      "midi": 45,
      "time": 64.531,
      "duration": 1.094,
      "velocity": 0.76,
      "hand": "left"
    },
    {
      "midi": 52,
      "time": 64.688,
      "duration": 0.938,
      "velocity": 0.76,
      "hand": "left"
    },
    {
      "midi": 56,
      "time": 64.688,
      "duration": 0.938,
      "velocity": 0.76,
      "hand": "left"
    },
    {
      "midi": 75,
      "time": 64.688,
      "duration": 0.938,
      "velocity": 0.76,
      "hand": "right"
    },
    {
      "midi": 80,
      "time": 64.688,
      "duration": 0.938,
      "velocity": 0.76,
      "hand": "right"
    },
    {
      "midi": 87,
      "time": 64.688,
      "duration": 0.938,
      "velocity": 0.76,
      "hand": "right"
    },
    {
      "midi": 45,
      "time": 65.625,
      "duration": 0.313,
      "velocity": 0.91,
      "hand": "left"
    },
    {
      "midi": 52,
      "time": 65.625,
      "duration": 0.313,
      "velocity": 0.91,
      "hand": "left"
    },
    {
      "midi": 83,
      "time": 65.625,
      "duration": 0.078,
      "velocity": 0.76,
      "hand": "right"
    },
    {
      "midi": 88,
      "time": 65.625,
      "duration": 0.078,
      "velocity": 0.76,
      "hand": "right"
    },
    {
      "midi": 95,
      "time": 65.625,
      "duration": 0.078,
      "velocity": 0.76,
      "hand": "right"
    },
    {
      "midi": 60,
      "time": 65.781,
      "duration": 0.156,
      "velocity": 0.91,
      "hand": "right"
    },
    {
      "midi": 83,
      "time": 65.781,
      "duration": 0.078,
      "velocity": 0.76,
      "hand": "right"
    },
    {
      "midi": 88,
      "time": 65.781,
      "duration": 0.078,
      "velocity": 0.76,
      "hand": "right"
    },
    {
      "midi": 95,
      "time": 65.781,
      "duration": 0.078,
      "velocity": 0.76,
      "hand": "right"
    },
    {
      "midi": 83,
      "time": 65.938,
      "duration": 0.078,
      "velocity": 0.76,
      "hand": "right"
    },
    {
      "midi": 88,
      "time": 65.938,
      "duration": 0.078,
      "velocity": 0.76,
      "hand": "right"
    },
    {
      "midi": 95,
      "time": 65.938,
      "duration": 0.078,
      "velocity": 0.76,
      "hand": "right"
    },
    {
      "midi": 45,
      "time": 66.094,
      "duration": 0.156,
      "velocity": 0.76,
      "hand": "left"
    },
    {
      "midi": 83,
      "time": 66.094,
      "duration": 0.078,
      "velocity": 0.76,
      "hand": "right"
    },
    {
      "midi": 88,
      "time": 66.094,
      "duration": 0.078,
      "velocity": 0.76,
      "hand": "right"
    },
    {
      "midi": 95,
      "time": 66.094,
      "duration": 0.078,
      "velocity": 0.76,
      "hand": "right"
    },
    {
      "midi": 52,
      "time": 66.25,
      "duration": 0.156,
      "velocity": 0.76,
      "hand": "left"
    },
    {
      "midi": 60,
      "time": 66.25,
      "duration": 0.156,
      "velocity": 0.76,
      "hand": "right"
    },
    {
      "midi": 83,
      "time": 66.25,
      "duration": 0.078,
      "velocity": 0.76,
      "hand": "right"
    },
    {
      "midi": 88,
      "time": 66.25,
      "duration": 0.078,
      "velocity": 0.76,
      "hand": "right"
    },
    {
      "midi": 95,
      "time": 66.25,
      "duration": 0.078,
      "velocity": 0.76,
      "hand": "right"
    },
    {
      "midi": 45,
      "time": 66.406,
      "duration": 0.156,
      "velocity": 0.76,
      "hand": "left"
    },
    {
      "midi": 83,
      "time": 66.406,
      "duration": 0.078,
      "velocity": 0.76,
      "hand": "right"
    },
    {
      "midi": 88,
      "time": 66.406,
      "duration": 0.078,
      "velocity": 0.76,
      "hand": "right"
    },
    {
      "midi": 95,
      "time": 66.406,
      "duration": 0.078,
      "velocity": 0.76,
      "hand": "right"
    },
    {
      "midi": 54,
      "time": 66.563,
      "duration": 0.625,
      "velocity": 0.76,
      "hand": "left"
    },
    {
      "midi": 57,
      "time": 66.563,
      "duration": 0.625,
      "velocity": 0.76,
      "hand": "left"
    },
    {
      "midi": 60,
      "time": 66.563,
      "duration": 0.625,
      "velocity": 0.76,
      "hand": "right"
    },
    {
      "midi": 64,
      "time": 66.563,
      "duration": 0.625,
      "velocity": 0.76,
      "hand": "right"
    },
    {
      "midi": 81,
      "time": 66.563,
      "duration": 0.078,
      "velocity": 0.76,
      "hand": "right"
    },
    {
      "midi": 90,
      "time": 66.563,
      "duration": 0.078,
      "velocity": 0.76,
      "hand": "right"
    },
    {
      "midi": 93,
      "time": 66.563,
      "duration": 0.078,
      "velocity": 0.76,
      "hand": "right"
    },
    {
      "midi": 81,
      "time": 66.719,
      "duration": 0.078,
      "velocity": 0.76,
      "hand": "right"
    },
    {
      "midi": 90,
      "time": 66.719,
      "duration": 0.078,
      "velocity": 0.76,
      "hand": "right"
    },
    {
      "midi": 93,
      "time": 66.719,
      "duration": 0.078,
      "velocity": 0.76,
      "hand": "right"
    },
    {
      "midi": 81,
      "time": 66.875,
      "duration": 0.078,
      "velocity": 0.76,
      "hand": "right"
    },
    {
      "midi": 90,
      "time": 66.875,
      "duration": 0.078,
      "velocity": 0.76,
      "hand": "right"
    },
    {
      "midi": 93,
      "time": 66.875,
      "duration": 0.078,
      "velocity": 0.76,
      "hand": "right"
    },
    {
      "midi": 81,
      "time": 67.031,
      "duration": 0.078,
      "velocity": 0.76,
      "hand": "right"
    },
    {
      "midi": 90,
      "time": 67.031,
      "duration": 0.078,
      "velocity": 0.76,
      "hand": "right"
    },
    {
      "midi": 93,
      "time": 67.031,
      "duration": 0.078,
      "velocity": 0.76,
      "hand": "right"
    },
    {
      "midi": 33,
      "time": 67.188,
      "duration": 0.313,
      "velocity": 0.76,
      "hand": "left"
    },
    {
      "midi": 45,
      "time": 67.188,
      "duration": 0.313,
      "velocity": 0.76,
      "hand": "left"
    },
    {
      "midi": 81,
      "time": 67.188,
      "duration": 0.078,
      "velocity": 0.76,
      "hand": "right"
    },
    {
      "midi": 90,
      "time": 67.188,
      "duration": 0.078,
      "velocity": 0.76,
      "hand": "right"
    },
    {
      "midi": 93,
      "time": 67.188,
      "duration": 0.078,
      "velocity": 0.76,
      "hand": "right"
    },
    {
      "midi": 81,
      "time": 67.344,
      "duration": 0.078,
      "velocity": 0.76,
      "hand": "right"
    },
    {
      "midi": 90,
      "time": 67.344,
      "duration": 0.078,
      "velocity": 0.76,
      "hand": "right"
    },
    {
      "midi": 93,
      "time": 67.344,
      "duration": 0.078,
      "velocity": 0.76,
      "hand": "right"
    },
    {
      "midi": 28,
      "time": 67.5,
      "duration": 0.313,
      "velocity": 0.91,
      "hand": "left"
    },
    {
      "midi": 40,
      "time": 67.5,
      "duration": 0.313,
      "velocity": 0.91,
      "hand": "left"
    },
    {
      "midi": 80,
      "time": 67.5,
      "duration": 0.078,
      "velocity": 0.76,
      "hand": "right"
    },
    {
      "midi": 80,
      "time": 67.5,
      "duration": 0.469,
      "velocity": 0.91,
      "hand": "right"
    },
    {
      "midi": 87,
      "time": 67.5,
      "duration": 1.719,
      "velocity": 0.91,
      "hand": "right"
    },
    {
      "midi": 88,
      "time": 67.5,
      "duration": 1.719,
      "velocity": 0.91,
      "hand": "right"
    },
    {
      "midi": 92,
      "time": 67.5,
      "duration": 1.719,
      "velocity": 0.91,
      "hand": "right"
    },
    {
      "midi": 76,
      "time": 67.656,
      "duration": 0.156,
      "velocity": 0.76,
      "hand": "right"
    },
    {
      "midi": 78,
      "time": 67.813,
      "duration": 0.156,
      "velocity": 0.76,
      "hand": "right"
    },
    {
      "midi": 80,
      "time": 67.969,
      "duration": 0.938,
      "velocity": 0.76,
      "hand": "right"
    },
    {
      "midi": 40,
      "time": 68.125,
      "duration": 0.313,
      "velocity": 0.76,
      "hand": "left"
    },
    {
      "midi": 52,
      "time": 68.125,
      "duration": 0.313,
      "velocity": 0.76,
      "hand": "left"
    },
    {
      "midi": 78,
      "time": 68.125,
      "duration": 0.156,
      "velocity": 0.76,
      "hand": "right"
    },
    {
      "midi": 76,
      "time": 68.281,
      "duration": 0.156,
      "velocity": 0.76,
      "hand": "right"
    },
    {
      "midi": 56,
      "time": 68.438,
      "duration": 0.938,
      "velocity": 0.76,
      "hand": "left"
    },
    {
      "midi": 59,
      "time": 68.438,
      "duration": 0.938,
      "velocity": 0.76,
      "hand": "left"
    },
    {
      "midi": 63,
      "time": 68.438,
      "duration": 0.938,
      "velocity": 0.76,
      "hand": "right"
    },
    {
      "midi": 75,
      "time": 68.438,
      "duration": 0.156,
      "velocity": 0.76,
      "hand": "right"
    },
    {
      "midi": 76,
      "time": 68.594,
      "duration": 0.156,
      "velocity": 0.76,
      "hand": "right"
    },
    {
      "midi": 78,
      "time": 68.75,
      "duration": 0.156,
      "velocity": 0.76,
      "hand": "right"
    },
    {
      "midi": 80,
      "time": 68.906,
      "duration": 0.313,
      "velocity": 0.76,
      "hand": "right"
    },
    {
      "midi": 78,
      "time": 69.063,
      "duration": 0.156,
      "velocity": 0.76,
      "hand": "right"
    },
    {
      "midi": 76,
      "time": 69.219,
      "duration": 0.156,
      "velocity": 0.76,
      "hand": "right"
    },
    {
      "midi": 68,
      "time": 69.375,
      "duration": 0.938,
      "velocity": 0.76,
      "hand": "right"
    },
    {
      "midi": 71,
      "time": 69.375,
      "duration": 0.938,
      "velocity": 0.76,
      "hand": "right"
    },
    {
      "midi": 75,
      "time": 69.375,
      "duration": 0.156,
      "velocity": 0.76,
      "hand": "right"
    },
    {
      "midi": 76,
      "time": 69.531,
      "duration": 0.156,
      "velocity": 0.76,
      "hand": "right"
    },
    {
      "midi": 78,
      "time": 69.688,
      "duration": 0.156,
      "velocity": 0.76,
      "hand": "right"
    },
    {
      "midi": 80,
      "time": 69.844,
      "duration": 0.156,
      "velocity": 0.76,
      "hand": "right"
    },
    {
      "midi": 78,
      "time": 70,
      "duration": 0.156,
      "velocity": 0.76,
      "hand": "right"
    },
    {
      "midi": 76,
      "time": 70.156,
      "duration": 0.156,
      "velocity": 0.76,
      "hand": "right"
    },
    {
      "midi": 59,
      "time": 70.313,
      "duration": 0.938,
      "velocity": 0.76,
      "hand": "left"
    },
    {
      "midi": 63,
      "time": 70.313,
      "duration": 0.938,
      "velocity": 0.76,
      "hand": "right"
    },
    {
      "midi": 68,
      "time": 70.313,
      "duration": 0.938,
      "velocity": 0.76,
      "hand": "right"
    },
    {
      "midi": 75,
      "time": 70.313,
      "duration": 0.156,
      "velocity": 0.76,
      "hand": "right"
    },
    {
      "midi": 76,
      "time": 70.469,
      "duration": 0.156,
      "velocity": 0.76,
      "hand": "right"
    },
    {
      "midi": 78,
      "time": 70.625,
      "duration": 0.156,
      "velocity": 0.76,
      "hand": "right"
    },
    {
      "midi": 80,
      "time": 70.781,
      "duration": 0.156,
      "velocity": 0.76,
      "hand": "right"
    },
    {
      "midi": 78,
      "time": 70.938,
      "duration": 0.156,
      "velocity": 0.76,
      "hand": "right"
    },
    {
      "midi": 76,
      "time": 71.094,
      "duration": 0.156,
      "velocity": 0.76,
      "hand": "right"
    },
    {
      "midi": 28,
      "time": 71.25,
      "duration": 0.313,
      "velocity": 0.91,
      "hand": "left"
    },
    {
      "midi": 40,
      "time": 71.25,
      "duration": 0.313,
      "velocity": 0.91,
      "hand": "left"
    },
    {
      "midi": 75,
      "time": 71.25,
      "duration": 0.156,
      "velocity": 0.76,
      "hand": "right"
    },
    {
      "midi": 76,
      "time": 71.406,
      "duration": 0.156,
      "velocity": 0.76,
      "hand": "right"
    },
    {
      "midi": 28,
      "time": 71.563,
      "duration": 0.313,
      "velocity": 0.76,
      "hand": "left"
    },
    {
      "midi": 40,
      "time": 71.563,
      "duration": 0.313,
      "velocity": 0.76,
      "hand": "left"
    },
    {
      "midi": 78,
      "time": 71.563,
      "duration": 0.156,
      "velocity": 0.76,
      "hand": "right"
    },
    {
      "midi": 80,
      "time": 71.719,
      "duration": 0.156,
      "velocity": 0.76,
      "hand": "right"
    },
    {
      "midi": 40,
      "time": 71.875,
      "duration": 0.313,
      "velocity": 0.76,
      "hand": "left"
    },
    {
      "midi": 52,
      "time": 71.875,
      "duration": 0.313,
      "velocity": 0.76,
      "hand": "left"
    },
    {
      "midi": 78,
      "time": 71.875,
      "duration": 0.156,
      "velocity": 0.76,
      "hand": "right"
    },
    {
      "midi": 76,
      "time": 72.031,
      "duration": 0.156,
      "velocity": 0.76,
      "hand": "right"
    },
    {
      "midi": 56,
      "time": 72.188,
      "duration": 0.938,
      "velocity": 0.76,
      "hand": "left"
    },
    {
      "midi": 59,
      "time": 72.188,
      "duration": 0.938,
      "velocity": 0.76,
      "hand": "left"
    },
    {
      "midi": 63,
      "time": 72.188,
      "duration": 0.938,
      "velocity": 0.76,
      "hand": "right"
    },
    {
      "midi": 75,
      "time": 72.188,
      "duration": 0.156,
      "velocity": 0.76,
      "hand": "right"
    },
    {
      "midi": 76,
      "time": 72.344,
      "duration": 0.156,
      "velocity": 0.76,
      "hand": "right"
    },
    {
      "midi": 78,
      "time": 72.5,
      "duration": 0.156,
      "velocity": 0.76,
      "hand": "right"
    },
    {
      "midi": 80,
      "time": 72.656,
      "duration": 0.156,
      "velocity": 0.76,
      "hand": "right"
    },
    {
      "midi": 78,
      "time": 72.813,
      "duration": 0.156,
      "velocity": 0.76,
      "hand": "right"
    },
    {
      "midi": 76,
      "time": 72.969,
      "duration": 0.156,
      "velocity": 0.76,
      "hand": "right"
    },
    {
      "midi": 30,
      "time": 73.125,
      "duration": 0.469,
      "velocity": 0.91,
      "hand": "left"
    },
    {
      "midi": 42,
      "time": 73.125,
      "duration": 0.469,
      "velocity": 0.91,
      "hand": "left"
    },
    {
      "midi": 74,
      "time": 73.125,
      "duration": 0.156,
      "velocity": 0.76,
      "hand": "right"
    },
    {
      "midi": 76,
      "time": 73.281,
      "duration": 0.156,
      "velocity": 0.74,
      "hand": "right"
    },
    {
      "midi": 78,
      "time": 73.438,
      "duration": 0.156,
      "velocity": 0.72,
      "hand": "right"
    },
    {
      "midi": 42,
      "time": 73.594,
      "duration": 0.469,
      "velocity": 0.69,
      "hand": "left"
    },
    {
      "midi": 45,
      "time": 73.594,
      "duration": 0.469,
      "velocity": 0.69,
      "hand": "left"
    },
    {
      "midi": 49,
      "time": 73.594,
      "duration": 0.469,
      "velocity": 0.69,
      "hand": "left"
    },
    {
      "midi": 54,
      "time": 73.594,
      "duration": 0.469,
      "velocity": 0.69,
      "hand": "left"
    },
    {
      "midi": 80,
      "time": 73.594,
      "duration": 0.156,
      "velocity": 0.69,
      "hand": "right"
    },
    {
      "midi": 78,
      "time": 73.75,
      "duration": 0.156,
      "velocity": 0.68,
      "hand": "right"
    },
    {
      "midi": 76,
      "time": 73.906,
      "duration": 0.156,
      "velocity": 0.65,
      "hand": "right"
    },
    {
      "midi": 32,
      "time": 74.063,
      "duration": 0.469,
      "velocity": 0.76,
      "hand": "left"
    },
    {
      "midi": 44,
      "time": 74.063,
      "duration": 0.469,
      "velocity": 0.76,
      "hand": "left"
    },
    {
      "midi": 74,
      "time": 74.063,
      "duration": 0.156,
      "velocity": 0.63,
      "hand": "right"
    },
    {
      "midi": 76,
      "time": 74.219,
      "duration": 0.156,
      "velocity": 0.61,
      "hand": "right"
    },
    {
      "midi": 78,
      "time": 74.375,
      "duration": 0.156,
      "velocity": 0.59,
      "hand": "right"
    },
    {
      "midi": 44,
      "time": 74.531,
      "duration": 0.469,
      "velocity": 0.57,
      "hand": "left"
    },
    {
      "midi": 51,
      "time": 74.531,
      "duration": 0.469,
      "velocity": 0.57,
      "hand": "left"
    },
    {
      "midi": 54,
      "time": 74.531,
      "duration": 0.469,
      "velocity": 0.57,
      "hand": "left"
    },
    {
      "midi": 56,
      "time": 74.531,
      "duration": 0.469,
      "velocity": 0.57,
      "hand": "left"
    },
    {
      "midi": 80,
      "time": 74.531,
      "duration": 0.156,
      "velocity": 0.57,
      "hand": "right"
    },
    {
      "midi": 78,
      "time": 74.688,
      "duration": 0.156,
      "velocity": 0.55,
      "hand": "right"
    },
    {
      "midi": 76,
      "time": 74.844,
      "duration": 0.156,
      "velocity": 0.53,
      "hand": "right"
    },
    {
      "midi": 45,
      "time": 75,
      "duration": 0.156,
      "velocity": 0.5,
      "hand": "left"
    },
    {
      "midi": 57,
      "time": 75,
      "duration": 0.156,
      "velocity": 0.5,
      "hand": "left"
    },
    {
      "midi": 68,
      "time": 75,
      "duration": 0.156,
      "velocity": 0.5,
      "hand": "right"
    },
    {
      "midi": 49,
      "time": 75.156,
      "duration": 0.156,
      "velocity": 0.5,
      "hand": "left"
    },
    {
      "midi": 68,
      "time": 75.156,
      "duration": 0.156,
      "velocity": 0.5,
      "hand": "right"
    },
    {
      "midi": 52,
      "time": 75.313,
      "duration": 0.156,
      "velocity": 0.5,
      "hand": "left"
    },
    {
      "midi": 61,
      "time": 75.313,
      "duration": 0.156,
      "velocity": 0.5,
      "hand": "right"
    },
    {
      "midi": 68,
      "time": 75.313,
      "duration": 0.156,
      "velocity": 0.5,
      "hand": "right"
    },
    {
      "midi": 57,
      "time": 75.469,
      "duration": 0.156,
      "velocity": 0.5,
      "hand": "left"
    },
    {
      "midi": 68,
      "time": 75.469,
      "duration": 0.156,
      "velocity": 0.5,
      "hand": "right"
    },
    {
      "midi": 52,
      "time": 75.625,
      "duration": 0.156,
      "velocity": 0.5,
      "hand": "left"
    },
    {
      "midi": 61,
      "time": 75.625,
      "duration": 0.156,
      "velocity": 0.5,
      "hand": "right"
    },
    {
      "midi": 68,
      "time": 75.625,
      "duration": 0.156,
      "velocity": 0.5,
      "hand": "right"
    },
    {
      "midi": 57,
      "time": 75.781,
      "duration": 0.156,
      "velocity": 0.5,
      "hand": "left"
    },
    {
      "midi": 66,
      "time": 75.781,
      "duration": 0.156,
      "velocity": 0.5,
      "hand": "right"
    },
    {
      "midi": 45,
      "time": 75.938,
      "duration": 0.156,
      "velocity": 0.5,
      "hand": "left"
    },
    {
      "midi": 57,
      "time": 75.938,
      "duration": 0.156,
      "velocity": 0.5,
      "hand": "left"
    },
    {
      "midi": 80,
      "time": 75.938,
      "duration": 0.313,
      "velocity": 0.6,
      "hand": "right"
    },
    {
      "midi": 92,
      "time": 75.938,
      "duration": 0.313,
      "velocity": 0.6,
      "hand": "right"
    },
    {
      "midi": 49,
      "time": 76.094,
      "duration": 0.156,
      "velocity": 0.5,
      "hand": "left"
    },
    {
      "midi": 52,
      "time": 76.25,
      "duration": 0.156,
      "velocity": 0.5,
      "hand": "left"
    },
    {
      "midi": 61,
      "time": 76.25,
      "duration": 0.156,
      "velocity": 0.5,
      "hand": "right"
    },
    {
      "midi": 57,
      "time": 76.406,
      "duration": 0.156,
      "velocity": 0.5,
      "hand": "left"
    },
    {
      "midi": 52,
      "time": 76.563,
      "duration": 0.156,
      "velocity": 0.5,
      "hand": "left"
    },
    {
      "midi": 61,
      "time": 76.563,
      "duration": 0.156,
      "velocity": 0.5,
      "hand": "right"
    },
    {
      "midi": 57,
      "time": 76.719,
      "duration": 0.156,
      "velocity": 0.5,
      "hand": "left"
    },
    {
      "midi": 45,
      "time": 76.875,
      "duration": 0.156,
      "velocity": 0.5,
      "hand": "left"
    },
    {
      "midi": 57,
      "time": 76.875,
      "duration": 0.156,
      "velocity": 0.5,
      "hand": "left"
    },
    {
      "midi": 68,
      "time": 76.875,
      "duration": 0.156,
      "velocity": 0.5,
      "hand": "right"
    },
    {
      "midi": 49,
      "time": 77.031,
      "duration": 0.156,
      "velocity": 0.5,
      "hand": "left"
    },
    {
      "midi": 68,
      "time": 77.031,
      "duration": 0.156,
      "velocity": 0.5,
      "hand": "right"
    },
    {
      "midi": 52,
      "time": 77.188,
      "duration": 0.156,
      "velocity": 0.5,
      "hand": "left"
    },
    {
      "midi": 61,
      "time": 77.188,
      "duration": 0.156,
      "velocity": 0.5,
      "hand": "right"
    },
    {
      "midi": 68,
      "time": 77.188,
      "duration": 0.156,
      "velocity": 0.5,
      "hand": "right"
    },
    {
      "midi": 57,
      "time": 77.344,
      "duration": 0.156,
      "velocity": 0.5,
      "hand": "left"
    },
    {
      "midi": 68,
      "time": 77.344,
      "duration": 0.156,
      "velocity": 0.5,
      "hand": "right"
    },
    {
      "midi": 52,
      "time": 77.5,
      "duration": 0.156,
      "velocity": 0.5,
      "hand": "left"
    },
    {
      "midi": 61,
      "time": 77.5,
      "duration": 0.156,
      "velocity": 0.5,
      "hand": "right"
    },
    {
      "midi": 68,
      "time": 77.5,
      "duration": 0.313,
      "velocity": 0.5,
      "hand": "right"
    },
    {
      "midi": 57,
      "time": 77.656,
      "duration": 0.156,
      "velocity": 0.5,
      "hand": "left"
    },
    {
      "midi": 45,
      "time": 77.813,
      "duration": 0.156,
      "velocity": 0.5,
      "hand": "left"
    },
    {
      "midi": 57,
      "time": 77.813,
      "duration": 0.156,
      "velocity": 0.5,
      "hand": "left"
    },
    {
      "midi": 68,
      "time": 77.813,
      "duration": 0.156,
      "velocity": 0.5,
      "hand": "right"
    },
    {
      "midi": 49,
      "time": 77.969,
      "duration": 0.156,
      "velocity": 0.5,
      "hand": "left"
    },
    {
      "midi": 68,
      "time": 77.969,
      "duration": 0.156,
      "velocity": 0.5,
      "hand": "right"
    },
    {
      "midi": 52,
      "time": 78.125,
      "duration": 0.156,
      "velocity": 0.5,
      "hand": "left"
    },
    {
      "midi": 61,
      "time": 78.125,
      "duration": 0.156,
      "velocity": 0.5,
      "hand": "right"
    },
    {
      "midi": 68,
      "time": 78.125,
      "duration": 0.156,
      "velocity": 0.5,
      "hand": "right"
    },
    {
      "midi": 57,
      "time": 78.281,
      "duration": 0.156,
      "velocity": 0.5,
      "hand": "left"
    },
    {
      "midi": 68,
      "time": 78.281,
      "duration": 0.156,
      "velocity": 0.5,
      "hand": "right"
    },
    {
      "midi": 52,
      "time": 78.438,
      "duration": 0.156,
      "velocity": 0.5,
      "hand": "left"
    },
    {
      "midi": 61,
      "time": 78.438,
      "duration": 0.156,
      "velocity": 0.5,
      "hand": "right"
    },
    {
      "midi": 68,
      "time": 78.438,
      "duration": 0.313,
      "velocity": 0.5,
      "hand": "right"
    },
    {
      "midi": 57,
      "time": 78.594,
      "duration": 0.156,
      "velocity": 0.5,
      "hand": "left"
    },
    {
      "midi": 44,
      "time": 78.75,
      "duration": 0.156,
      "velocity": 0.5,
      "hand": "left"
    },
    {
      "midi": 56,
      "time": 78.75,
      "duration": 0.156,
      "velocity": 0.5,
      "hand": "left"
    },
    {
      "midi": 68,
      "time": 78.75,
      "duration": 0.156,
      "velocity": 0.5,
      "hand": "right"
    },
    {
      "midi": 47,
      "time": 78.906,
      "duration": 0.156,
      "velocity": 0.5,
      "hand": "left"
    },
    {
      "midi": 68,
      "time": 78.906,
      "duration": 0.156,
      "velocity": 0.5,
      "hand": "right"
    },
    {
      "midi": 51,
      "time": 79.063,
      "duration": 0.156,
      "velocity": 0.5,
      "hand": "left"
    },
    {
      "midi": 59,
      "time": 79.063,
      "duration": 0.156,
      "velocity": 0.5,
      "hand": "left"
    },
    {
      "midi": 68,
      "time": 79.063,
      "duration": 0.156,
      "velocity": 0.5,
      "hand": "right"
    },
    {
      "midi": 56,
      "time": 79.219,
      "duration": 0.156,
      "velocity": 0.5,
      "hand": "left"
    },
    {
      "midi": 68,
      "time": 79.219,
      "duration": 0.156,
      "velocity": 0.5,
      "hand": "right"
    },
    {
      "midi": 51,
      "time": 79.375,
      "duration": 0.156,
      "velocity": 0.5,
      "hand": "left"
    },
    {
      "midi": 59,
      "time": 79.375,
      "duration": 0.156,
      "velocity": 0.5,
      "hand": "left"
    },
    {
      "midi": 68,
      "time": 79.375,
      "duration": 0.156,
      "velocity": 0.5,
      "hand": "right"
    },
    {
      "midi": 56,
      "time": 79.531,
      "duration": 0.156,
      "velocity": 0.5,
      "hand": "left"
    },
    {
      "midi": 66,
      "time": 79.531,
      "duration": 0.156,
      "velocity": 0.5,
      "hand": "right"
    },
    {
      "midi": 44,
      "time": 79.688,
      "duration": 0.156,
      "velocity": 0.5,
      "hand": "left"
    },
    {
      "midi": 56,
      "time": 79.688,
      "duration": 0.156,
      "velocity": 0.5,
      "hand": "left"
    },
    {
      "midi": 80,
      "time": 79.688,
      "duration": 0.313,
      "velocity": 0.6,
      "hand": "right"
    },
    {
      "midi": 92,
      "time": 79.688,
      "duration": 0.313,
      "velocity": 0.6,
      "hand": "right"
    },
    {
      "midi": 47,
      "time": 79.844,
      "duration": 0.156,
      "velocity": 0.5,
      "hand": "left"
    },
    {
      "midi": 51,
      "time": 80,
      "duration": 0.156,
      "velocity": 0.5,
      "hand": "left"
    },
    {
      "midi": 59,
      "time": 80,
      "duration": 0.156,
      "velocity": 0.5,
      "hand": "left"
    },
    {
      "midi": 56,
      "time": 80.156,
      "duration": 0.156,
      "velocity": 0.5,
      "hand": "left"
    },
    {
      "midi": 51,
      "time": 80.313,
      "duration": 0.156,
      "velocity": 0.5,
      "hand": "left"
    },
    {
      "midi": 59,
      "time": 80.313,
      "duration": 0.156,
      "velocity": 0.5,
      "hand": "left"
    },
    {
      "midi": 56,
      "time": 80.469,
      "duration": 0.156,
      "velocity": 0.5,
      "hand": "left"
    },
    {
      "midi": 44,
      "time": 80.625,
      "duration": 0.156,
      "velocity": 0.5,
      "hand": "left"
    },
    {
      "midi": 56,
      "time": 80.625,
      "duration": 0.156,
      "velocity": 0.5,
      "hand": "left"
    },
    {
      "midi": 68,
      "time": 80.625,
      "duration": 0.156,
      "velocity": 0.5,
      "hand": "right"
    },
    {
      "midi": 47,
      "time": 80.781,
      "duration": 0.156,
      "velocity": 0.5,
      "hand": "left"
    },
    {
      "midi": 68,
      "time": 80.781,
      "duration": 0.156,
      "velocity": 0.5,
      "hand": "right"
    },
    {
      "midi": 51,
      "time": 80.938,
      "duration": 0.156,
      "velocity": 0.5,
      "hand": "left"
    },
    {
      "midi": 59,
      "time": 80.938,
      "duration": 0.156,
      "velocity": 0.5,
      "hand": "left"
    },
    {
      "midi": 68,
      "time": 80.938,
      "duration": 0.156,
      "velocity": 0.5,
      "hand": "right"
    },
    {
      "midi": 56,
      "time": 81.094,
      "duration": 0.156,
      "velocity": 0.5,
      "hand": "left"
    },
    {
      "midi": 68,
      "time": 81.094,
      "duration": 0.156,
      "velocity": 0.5,
      "hand": "right"
    },
    {
      "midi": 51,
      "time": 81.25,
      "duration": 0.156,
      "velocity": 0.5,
      "hand": "left"
    },
    {
      "midi": 59,
      "time": 81.25,
      "duration": 0.156,
      "velocity": 0.5,
      "hand": "left"
    },
    {
      "midi": 68,
      "time": 81.25,
      "duration": 0.313,
      "velocity": 0.5,
      "hand": "right"
    },
    {
      "midi": 56,
      "time": 81.406,
      "duration": 0.156,
      "velocity": 0.5,
      "hand": "left"
    },
    {
      "midi": 43,
      "time": 81.563,
      "duration": 0.156,
      "velocity": 0.5,
      "hand": "left"
    },
    {
      "midi": 55,
      "time": 81.563,
      "duration": 0.156,
      "velocity": 0.5,
      "hand": "left"
    },
    {
      "midi": 68,
      "time": 81.563,
      "duration": 0.156,
      "velocity": 0.5,
      "hand": "right"
    },
    {
      "midi": 47,
      "time": 81.719,
      "duration": 0.156,
      "velocity": 0.5,
      "hand": "left"
    },
    {
      "midi": 68,
      "time": 81.719,
      "duration": 0.156,
      "velocity": 0.5,
      "hand": "right"
    },
    {
      "midi": 51,
      "time": 81.875,
      "duration": 0.156,
      "velocity": 0.5,
      "hand": "left"
    },
    {
      "midi": 59,
      "time": 81.875,
      "duration": 0.156,
      "velocity": 0.5,
      "hand": "left"
    },
    {
      "midi": 68,
      "time": 81.875,
      "duration": 0.156,
      "velocity": 0.5,
      "hand": "right"
    },
    {
      "midi": 55,
      "time": 82.031,
      "duration": 0.156,
      "velocity": 0.5,
      "hand": "left"
    },
    {
      "midi": 68,
      "time": 82.031,
      "duration": 0.156,
      "velocity": 0.5,
      "hand": "right"
    },
    {
      "midi": 51,
      "time": 82.188,
      "duration": 0.156,
      "velocity": 0.5,
      "hand": "left"
    },
    {
      "midi": 59,
      "time": 82.188,
      "duration": 0.156,
      "velocity": 0.5,
      "hand": "left"
    },
    {
      "midi": 68,
      "time": 82.188,
      "duration": 0.313,
      "velocity": 0.5,
      "hand": "right"
    },
    {
      "midi": 55,
      "time": 82.344,
      "duration": 0.156,
      "velocity": 0.5,
      "hand": "left"
    },
    {
      "midi": 42,
      "time": 82.5,
      "duration": 0.156,
      "velocity": 0.5,
      "hand": "left"
    },
    {
      "midi": 54,
      "time": 82.5,
      "duration": 0.156,
      "velocity": 0.5,
      "hand": "left"
    },
    {
      "midi": 68,
      "time": 82.5,
      "duration": 0.156,
      "velocity": 0.5,
      "hand": "right"
    },
    {
      "midi": 45,
      "time": 82.656,
      "duration": 0.156,
      "velocity": 0.5,
      "hand": "left"
    },
    {
      "midi": 68,
      "time": 82.656,
      "duration": 0.156,
      "velocity": 0.5,
      "hand": "right"
    },
    {
      "midi": 49,
      "time": 82.813,
      "duration": 0.156,
      "velocity": 0.5,
      "hand": "left"
    },
    {
      "midi": 57,
      "time": 82.813,
      "duration": 0.156,
      "velocity": 0.5,
      "hand": "left"
    },
    {
      "midi": 68,
      "time": 82.813,
      "duration": 0.156,
      "velocity": 0.5,
      "hand": "right"
    },
    {
      "midi": 54,
      "time": 82.969,
      "duration": 0.156,
      "velocity": 0.5,
      "hand": "left"
    },
    {
      "midi": 68,
      "time": 82.969,
      "duration": 0.156,
      "velocity": 0.5,
      "hand": "right"
    },
    {
      "midi": 49,
      "time": 83.125,
      "duration": 0.156,
      "velocity": 0.5,
      "hand": "left"
    },
    {
      "midi": 57,
      "time": 83.125,
      "duration": 0.156,
      "velocity": 0.5,
      "hand": "left"
    },
    {
      "midi": 68,
      "time": 83.125,
      "duration": 0.156,
      "velocity": 0.5,
      "hand": "right"
    },
    {
      "midi": 54,
      "time": 83.281,
      "duration": 0.156,
      "velocity": 0.5,
      "hand": "left"
    },
    {
      "midi": 66,
      "time": 83.281,
      "duration": 0.156,
      "velocity": 0.5,
      "hand": "right"
    },
    {
      "midi": 42,
      "time": 83.438,
      "duration": 0.156,
      "velocity": 0.5,
      "hand": "left"
    },
    {
      "midi": 54,
      "time": 83.438,
      "duration": 0.156,
      "velocity": 0.5,
      "hand": "left"
    },
    {
      "midi": 78,
      "time": 83.438,
      "duration": 0.313,
      "velocity": 0.6,
      "hand": "right"
    },
    {
      "midi": 90,
      "time": 83.438,
      "duration": 0.313,
      "velocity": 0.6,
      "hand": "right"
    },
    {
      "midi": 45,
      "time": 83.594,
      "duration": 0.156,
      "velocity": 0.5,
      "hand": "left"
    },
    {
      "midi": 49,
      "time": 83.75,
      "duration": 0.156,
      "velocity": 0.5,
      "hand": "left"
    },
    {
      "midi": 57,
      "time": 83.75,
      "duration": 0.156,
      "velocity": 0.5,
      "hand": "left"
    },
    {
      "midi": 54,
      "time": 83.906,
      "duration": 0.156,
      "velocity": 0.5,
      "hand": "left"
    },
    {
      "midi": 49,
      "time": 84.063,
      "duration": 0.156,
      "velocity": 0.5,
      "hand": "left"
    },
    {
      "midi": 57,
      "time": 84.063,
      "duration": 0.156,
      "velocity": 0.5,
      "hand": "left"
    },
    {
      "midi": 54,
      "time": 84.219,
      "duration": 0.156,
      "velocity": 0.5,
      "hand": "left"
    },
    {
      "midi": 42,
      "time": 84.375,
      "duration": 0.156,
      "velocity": 0.5,
      "hand": "left"
    },
    {
      "midi": 54,
      "time": 84.375,
      "duration": 0.156,
      "velocity": 0.5,
      "hand": "left"
    },
    {
      "midi": 68,
      "time": 84.375,
      "duration": 0.156,
      "velocity": 0.5,
      "hand": "right"
    },
    {
      "midi": 45,
      "time": 84.531,
      "duration": 0.156,
      "velocity": 0.5,
      "hand": "left"
    },
    {
      "midi": 68,
      "time": 84.531,
      "duration": 0.156,
      "velocity": 0.5,
      "hand": "right"
    },
    {
      "midi": 49,
      "time": 84.688,
      "duration": 0.156,
      "velocity": 0.5,
      "hand": "left"
    },
    {
      "midi": 57,
      "time": 84.688,
      "duration": 0.156,
      "velocity": 0.5,
      "hand": "left"
    },
    {
      "midi": 68,
      "time": 84.688,
      "duration": 0.156,
      "velocity": 0.5,
      "hand": "right"
    },
    {
      "midi": 54,
      "time": 84.844,
      "duration": 0.156,
      "velocity": 0.5,
      "hand": "left"
    },
    {
      "midi": 68,
      "time": 84.844,
      "duration": 0.156,
      "velocity": 0.5,
      "hand": "right"
    },
    {
      "midi": 49,
      "time": 85,
      "duration": 0.156,
      "velocity": 0.5,
      "hand": "left"
    },
    {
      "midi": 57,
      "time": 85,
      "duration": 0.156,
      "velocity": 0.5,
      "hand": "left"
    },
    {
      "midi": 68,
      "time": 85,
      "duration": 0.156,
      "velocity": 0.5,
      "hand": "right"
    },
    {
      "midi": 54,
      "time": 85.156,
      "duration": 0.156,
      "velocity": 0.5,
      "hand": "left"
    },
    {
      "midi": 66,
      "time": 85.156,
      "duration": 0.156,
      "velocity": 0.5,
      "hand": "right"
    },
    {
      "midi": 42,
      "time": 85.313,
      "duration": 0.156,
      "velocity": 0.5,
      "hand": "left"
    },
    {
      "midi": 54,
      "time": 85.313,
      "duration": 0.156,
      "velocity": 0.5,
      "hand": "left"
    },
    {
      "midi": 78,
      "time": 85.313,
      "duration": 0.313,
      "velocity": 0.6,
      "hand": "right"
    },
    {
      "midi": 90,
      "time": 85.313,
      "duration": 0.313,
      "velocity": 0.6,
      "hand": "right"
    },
    {
      "midi": 45,
      "time": 85.469,
      "duration": 0.156,
      "velocity": 0.5,
      "hand": "left"
    },
    {
      "midi": 49,
      "time": 85.625,
      "duration": 0.156,
      "velocity": 0.5,
      "hand": "left"
    },
    {
      "midi": 57,
      "time": 85.625,
      "duration": 0.156,
      "velocity": 0.5,
      "hand": "left"
    },
    {
      "midi": 54,
      "time": 85.781,
      "duration": 0.156,
      "velocity": 0.5,
      "hand": "left"
    },
    {
      "midi": 49,
      "time": 85.938,
      "duration": 0.156,
      "velocity": 0.5,
      "hand": "left"
    },
    {
      "midi": 57,
      "time": 85.938,
      "duration": 0.156,
      "velocity": 0.5,
      "hand": "left"
    },
    {
      "midi": 54,
      "time": 86.094,
      "duration": 0.156,
      "velocity": 0.5,
      "hand": "left"
    },
    {
      "midi": 40,
      "time": 86.25,
      "duration": 0.156,
      "velocity": 0.5,
      "hand": "left"
    },
    {
      "midi": 52,
      "time": 86.25,
      "duration": 0.156,
      "velocity": 0.5,
      "hand": "left"
    },
    {
      "midi": 68,
      "time": 86.25,
      "duration": 0.156,
      "velocity": 0.5,
      "hand": "right"
    },
    {
      "midi": 44,
      "time": 86.406,
      "duration": 0.156,
      "velocity": 0.5,
      "hand": "left"
    },
    {
      "midi": 68,
      "time": 86.406,
      "duration": 0.156,
      "velocity": 0.5,
      "hand": "right"
    },
    {
      "midi": 47,
      "time": 86.563,
      "duration": 0.156,
      "velocity": 0.5,
      "hand": "left"
    },
    {
      "midi": 56,
      "time": 86.563,
      "duration": 0.156,
      "velocity": 0.5,
      "hand": "left"
    },
    {
      "midi": 68,
      "time": 86.563,
      "duration": 0.156,
      "velocity": 0.5,
      "hand": "right"
    },
    {
      "midi": 52,
      "time": 86.719,
      "duration": 0.156,
      "velocity": 0.5,
      "hand": "left"
    },
    {
      "midi": 68,
      "time": 86.719,
      "duration": 0.156,
      "velocity": 0.5,
      "hand": "right"
    },
    {
      "midi": 47,
      "time": 86.875,
      "duration": 0.156,
      "velocity": 0.5,
      "hand": "left"
    },
    {
      "midi": 56,
      "time": 86.875,
      "duration": 0.156,
      "velocity": 0.5,
      "hand": "left"
    },
    {
      "midi": 68,
      "time": 86.875,
      "duration": 0.313,
      "velocity": 0.5,
      "hand": "right"
    },
    {
      "midi": 52,
      "time": 87.031,
      "duration": 0.156,
      "velocity": 0.5,
      "hand": "left"
    },
    {
      "midi": 40,
      "time": 87.188,
      "duration": 0.156,
      "velocity": 0.5,
      "hand": "left"
    },
    {
      "midi": 52,
      "time": 87.188,
      "duration": 0.156,
      "velocity": 0.5,
      "hand": "left"
    },
    {
      "midi": 68,
      "time": 87.188,
      "duration": 0.156,
      "velocity": 0.5,
      "hand": "right"
    },
    {
      "midi": 75,
      "time": 87.188,
      "duration": 0.938,
      "velocity": 0.5,
      "hand": "right"
    },
    {
      "midi": 44,
      "time": 87.344,
      "duration": 0.156,
      "velocity": 0.5,
      "hand": "left"
    },
    {
      "midi": 68,
      "time": 87.344,
      "duration": 0.156,
      "velocity": 0.5,
      "hand": "right"
    },
    {
      "midi": 47,
      "time": 87.5,
      "duration": 0.156,
      "velocity": 0.5,
      "hand": "left"
    },
    {
      "midi": 56,
      "time": 87.5,
      "duration": 0.156,
      "velocity": 0.5,
      "hand": "left"
    },
    {
      "midi": 68,
      "time": 87.5,
      "duration": 0.156,
      "velocity": 0.5,
      "hand": "right"
    },
    {
      "midi": 52,
      "time": 87.656,
      "duration": 0.156,
      "velocity": 0.5,
      "hand": "left"
    },
    {
      "midi": 68,
      "time": 87.656,
      "duration": 0.156,
      "velocity": 0.5,
      "hand": "right"
    },
    {
      "midi": 47,
      "time": 87.813,
      "duration": 0.156,
      "velocity": 0.5,
      "hand": "left"
    },
    {
      "midi": 56,
      "time": 87.813,
      "duration": 0.156,
      "velocity": 0.5,
      "hand": "left"
    },
    {
      "midi": 68,
      "time": 87.813,
      "duration": 0.313,
      "velocity": 0.5,
      "hand": "right"
    },
    {
      "midi": 52,
      "time": 87.969,
      "duration": 0.156,
      "velocity": 0.5,
      "hand": "left"
    },
    {
      "midi": 40,
      "time": 88.125,
      "duration": 0.156,
      "velocity": 0.5,
      "hand": "left"
    },
    {
      "midi": 52,
      "time": 88.125,
      "duration": 0.156,
      "velocity": 0.5,
      "hand": "left"
    },
    {
      "midi": 68,
      "time": 88.125,
      "duration": 0.313,
      "velocity": 0.5,
      "hand": "right"
    },
    {
      "midi": 76,
      "time": 88.125,
      "duration": 0.938,
      "velocity": 0.5,
      "hand": "right"
    },
    {
      "midi": 44,
      "time": 88.281,
      "duration": 0.156,
      "velocity": 0.51,
      "hand": "left"
    },
    {
      "midi": 47,
      "time": 88.438,
      "duration": 0.156,
      "velocity": 0.52,
      "hand": "left"
    },
    {
      "midi": 56,
      "time": 88.438,
      "duration": 0.156,
      "velocity": 0.52,
      "hand": "left"
    },
    {
      "midi": 68,
      "time": 88.438,
      "duration": 0.313,
      "velocity": 0.52,
      "hand": "right"
    },
    {
      "midi": 52,
      "time": 88.594,
      "duration": 0.156,
      "velocity": 0.54,
      "hand": "left"
    },
    {
      "midi": 47,
      "time": 88.75,
      "duration": 0.156,
      "velocity": 0.54,
      "hand": "left"
    },
    {
      "midi": 56,
      "time": 88.75,
      "duration": 0.156,
      "velocity": 0.54,
      "hand": "left"
    },
    {
      "midi": 68,
      "time": 88.75,
      "duration": 0.156,
      "velocity": 0.54,
      "hand": "right"
    },
    {
      "midi": 52,
      "time": 88.906,
      "duration": 0.156,
      "velocity": 0.55,
      "hand": "left"
    },
    {
      "midi": 66,
      "time": 88.906,
      "duration": 0.156,
      "velocity": 0.55,
      "hand": "right"
    },
    {
      "midi": 40,
      "time": 89.063,
      "duration": 0.156,
      "velocity": 0.57,
      "hand": "left"
    },
    {
      "midi": 52,
      "time": 89.063,
      "duration": 0.156,
      "velocity": 0.57,
      "hand": "left"
    },
    {
      "midi": 64,
      "time": 89.063,
      "duration": 0.313,
      "velocity": 0.57,
      "hand": "right"
    },
    {
      "midi": 78,
      "time": 89.063,
      "duration": 0.938,
      "velocity": 0.57,
      "hand": "right"
    },
    {
      "midi": 44,
      "time": 89.219,
      "duration": 0.156,
      "velocity": 0.57,
      "hand": "left"
    },
    {
      "midi": 47,
      "time": 89.375,
      "duration": 0.156,
      "velocity": 0.58,
      "hand": "left"
    },
    {
      "midi": 56,
      "time": 89.375,
      "duration": 0.156,
      "velocity": 0.58,
      "hand": "left"
    },
    {
      "midi": 68,
      "time": 89.375,
      "duration": 0.313,
      "velocity": 0.58,
      "hand": "right"
    },
    {
      "midi": 52,
      "time": 89.531,
      "duration": 0.156,
      "velocity": 0.6,
      "hand": "left"
    },
    {
      "midi": 47,
      "time": 89.688,
      "duration": 0.156,
      "velocity": 0.61,
      "hand": "left"
    },
    {
      "midi": 56,
      "time": 89.688,
      "duration": 0.156,
      "velocity": 0.61,
      "hand": "left"
    },
    {
      "midi": 71,
      "time": 89.688,
      "duration": 0.313,
      "velocity": 0.61,
      "hand": "right"
    },
    {
      "midi": 52,
      "time": 89.844,
      "duration": 0.156,
      "velocity": 0.61,
      "hand": "left"
    },
    {
      "midi": 33,
      "time": 90,
      "duration": 0.156,
      "velocity": 0.63,
      "hand": "left"
    },
    {
      "midi": 45,
      "time": 90,
      "duration": 0.156,
      "velocity": 0.63,
      "hand": "left"
    },
    {
      "midi": 64,
      "time": 90,
      "duration": 1.25,
      "velocity": 0.63,
      "hand": "right"
    },
    {
      "midi": 69,
      "time": 90,
      "duration": 1.25,
      "velocity": 0.63,
      "hand": "right"
    },
    {
      "midi": 52,
      "time": 90.156,
      "duration": 0.156,
      "velocity": 0.63,
      "hand": "left"
    },
    {
      "midi": 73,
      "time": 90.156,
      "duration": 1.094,
      "velocity": 0.63,
      "hand": "right"
    },
    {
      "midi": 57,
      "time": 90.313,
      "duration": 0.156,
      "velocity": 0.63,
      "hand": "left"
    },
    {
      "midi": 61,
      "time": 90.469,
      "duration": 0.156,
      "velocity": 0.63,
      "hand": "right"
    },
    {
      "midi": 57,
      "time": 90.625,
      "duration": 0.156,
      "velocity": 0.63,
      "hand": "left"
    },
    {
      "midi": 52,
      "time": 90.781,
      "duration": 0.156,
      "velocity": 0.63,
      "hand": "left"
    },
    {
      "midi": 33,
      "time": 90.938,
      "duration": 0.156,
      "velocity": 0.63,
      "hand": "left"
    },
    {
      "midi": 45,
      "time": 90.938,
      "duration": 0.156,
      "velocity": 0.63,
      "hand": "left"
    },
    {
      "midi": 52,
      "time": 91.094,
      "duration": 0.156,
      "velocity": 0.63,
      "hand": "left"
    },
    {
      "midi": 57,
      "time": 91.25,
      "duration": 0.156,
      "velocity": 0.63,
      "hand": "left"
    },
    {
      "midi": 64,
      "time": 91.25,
      "duration": 0.313,
      "velocity": 0.63,
      "hand": "right"
    },
    {
      "midi": 73,
      "time": 91.25,
      "duration": 0.313,
      "velocity": 0.63,
      "hand": "right"
    },
    {
      "midi": 61,
      "time": 91.406,
      "duration": 0.156,
      "velocity": 0.63,
      "hand": "right"
    },
    {
      "midi": 57,
      "time": 91.563,
      "duration": 0.156,
      "velocity": 0.63,
      "hand": "left"
    },
    {
      "midi": 69,
      "time": 91.563,
      "duration": 0.313,
      "velocity": 0.63,
      "hand": "right"
    },
    {
      "midi": 75,
      "time": 91.563,
      "duration": 0.313,
      "velocity": 0.63,
      "hand": "right"
    },
    {
      "midi": 52,
      "time": 91.719,
      "duration": 0.156,
      "velocity": 0.63,
      "hand": "left"
    },
    {
      "midi": 33,
      "time": 91.875,
      "duration": 0.156,
      "velocity": 0.63,
      "hand": "left"
    },
    {
      "midi": 45,
      "time": 91.875,
      "duration": 0.156,
      "velocity": 0.63,
      "hand": "left"
    },
    {
      "midi": 69,
      "time": 91.875,
      "duration": 1.25,
      "velocity": 0.63,
      "hand": "right"
    },
    {
      "midi": 73,
      "time": 91.875,
      "duration": 1.25,
      "velocity": 0.63,
      "hand": "right"
    },
    {
      "midi": 76,
      "time": 91.875,
      "duration": 1.25,
      "velocity": 0.63,
      "hand": "right"
    },
    {
      "midi": 52,
      "time": 92.031,
      "duration": 0.156,
      "velocity": 0.63,
      "hand": "left"
    },
    {
      "midi": 57,
      "time": 92.188,
      "duration": 0.156,
      "velocity": 0.63,
      "hand": "left"
    },
    {
      "midi": 61,
      "time": 92.344,
      "duration": 0.156,
      "velocity": 0.63,
      "hand": "right"
    },
    {
      "midi": 57,
      "time": 92.5,
      "duration": 0.156,
      "velocity": 0.63,
      "hand": "left"
    },
    {
      "midi": 52,
      "time": 92.656,
      "duration": 0.156,
      "velocity": 0.63,
      "hand": "left"
    },
    {
      "midi": 33,
      "time": 92.813,
      "duration": 0.156,
      "velocity": 0.63,
      "hand": "left"
    },
    {
      "midi": 45,
      "time": 92.813,
      "duration": 0.156,
      "velocity": 0.63,
      "hand": "left"
    },
    {
      "midi": 52,
      "time": 92.969,
      "duration": 0.156,
      "velocity": 0.63,
      "hand": "left"
    },
    {
      "midi": 57,
      "time": 93.125,
      "duration": 0.156,
      "velocity": 0.63,
      "hand": "left"
    },
    {
      "midi": 69,
      "time": 93.125,
      "duration": 0.313,
      "velocity": 0.63,
      "hand": "right"
    },
    {
      "midi": 76,
      "time": 93.125,
      "duration": 0.313,
      "velocity": 0.63,
      "hand": "right"
    },
    {
      "midi": 61,
      "time": 93.281,
      "duration": 0.156,
      "velocity": 0.63,
      "hand": "right"
    },
    {
      "midi": 57,
      "time": 93.438,
      "duration": 0.156,
      "velocity": 0.63,
      "hand": "left"
    },
    {
      "midi": 68,
      "time": 93.438,
      "duration": 0.313,
      "velocity": 0.63,
      "hand": "right"
    },
    {
      "midi": 78,
      "time": 93.438,
      "duration": 0.313,
      "velocity": 0.63,
      "hand": "right"
    },
    {
      "midi": 52,
      "time": 93.594,
      "duration": 0.156,
      "velocity": 0.63,
      "hand": "left"
    },
    {
      "midi": 32,
      "time": 93.75,
      "duration": 0.156,
      "velocity": 0.63,
      "hand": "left"
    },
    {
      "midi": 44,
      "time": 93.75,
      "duration": 0.156,
      "velocity": 0.63,
      "hand": "left"
    },
    {
      "midi": 68,
      "time": 93.75,
      "duration": 0.313,
      "velocity": 0.63,
      "hand": "right"
    },
    {
      "midi": 75,
      "time": 93.75,
      "duration": 0.313,
      "velocity": 0.63,
      "hand": "right"
    },
    {
      "midi": 51,
      "time": 93.906,
      "duration": 0.156,
      "velocity": 0.63,
      "hand": "left"
    },
    {
      "midi": 56,
      "time": 94.063,
      "duration": 0.156,
      "velocity": 0.63,
      "hand": "left"
    },
    {
      "midi": 73,
      "time": 94.063,
      "duration": 0.313,
      "velocity": 0.63,
      "hand": "right"
    },
    {
      "midi": 59,
      "time": 94.219,
      "duration": 0.156,
      "velocity": 0.63,
      "hand": "left"
    },
    {
      "midi": 56,
      "time": 94.375,
      "duration": 0.156,
      "velocity": 0.63,
      "hand": "left"
    },
    {
      "midi": 68,
      "time": 94.375,
      "duration": 0.313,
      "velocity": 0.63,
      "hand": "right"
    },
    {
      "midi": 71,
      "time": 94.375,
      "duration": 0.313,
      "velocity": 0.63,
      "hand": "right"
    },
    {
      "midi": 51,
      "time": 94.531,
      "duration": 0.156,
      "velocity": 0.63,
      "hand": "left"
    },
    {
      "midi": 32,
      "time": 94.688,
      "duration": 0.156,
      "velocity": 0.63,
      "hand": "left"
    },
    {
      "midi": 44,
      "time": 94.688,
      "duration": 0.156,
      "velocity": 0.63,
      "hand": "left"
    },
    {
      "midi": 68,
      "time": 94.688,
      "duration": 0.625,
      "velocity": 0.63,
      "hand": "right"
    },
    {
      "midi": 71,
      "time": 94.688,
      "duration": 0.625,
      "velocity": 0.63,
      "hand": "right"
    },
    {
      "midi": 51,
      "time": 94.844,
      "duration": 0.156,
      "velocity": 0.63,
      "hand": "left"
    },
    {
      "midi": 56,
      "time": 95,
      "duration": 0.156,
      "velocity": 0.63,
      "hand": "left"
    },
    {
      "midi": 59,
      "time": 95.156,
      "duration": 0.156,
      "velocity": 0.63,
      "hand": "left"
    },
    {
      "midi": 56,
      "time": 95.313,
      "duration": 0.156,
      "velocity": 0.63,
      "hand": "left"
    },
    {
      "midi": 63,
      "time": 95.313,
      "duration": 0.313,
      "velocity": 0.63,
      "hand": "right"
    },
    {
      "midi": 68,
      "time": 95.313,
      "duration": 0.313,
      "velocity": 0.63,
      "hand": "right"
    },
    {
      "midi": 51,
      "time": 95.469,
      "duration": 0.156,
      "velocity": 0.63,
      "hand": "left"
    },
    {
      "midi": 32,
      "time": 95.625,
      "duration": 0.156,
      "velocity": 0.63,
      "hand": "left"
    },
    {
      "midi": 44,
      "time": 95.625,
      "duration": 0.156,
      "velocity": 0.63,
      "hand": "left"
    },
    {
      "midi": 63,
      "time": 95.625,
      "duration": 0.313,
      "velocity": 0.63,
      "hand": "right"
    },
    {
      "midi": 68,
      "time": 95.625,
      "duration": 0.313,
      "velocity": 0.63,
      "hand": "right"
    },
    {
      "midi": 71,
      "time": 95.625,
      "duration": 0.313,
      "velocity": 0.63,
      "hand": "right"
    },
    {
      "midi": 75,
      "time": 95.625,
      "duration": 0.313,
      "velocity": 0.63,
      "hand": "right"
    },
    {
      "midi": 51,
      "time": 95.781,
      "duration": 0.156,
      "velocity": 0.63,
      "hand": "left"
    },
    {
      "midi": 56,
      "time": 95.938,
      "duration": 0.156,
      "velocity": 0.63,
      "hand": "left"
    },
    {
      "midi": 73,
      "time": 95.938,
      "duration": 0.313,
      "velocity": 0.63,
      "hand": "right"
    },
    {
      "midi": 59,
      "time": 96.094,
      "duration": 0.156,
      "velocity": 0.63,
      "hand": "left"
    },
    {
      "midi": 56,
      "time": 96.25,
      "duration": 0.156,
      "velocity": 0.63,
      "hand": "left"
    },
    {
      "midi": 68,
      "time": 96.25,
      "duration": 0.313,
      "velocity": 0.63,
      "hand": "right"
    },
    {
      "midi": 71,
      "time": 96.25,
      "duration": 0.313,
      "velocity": 0.63,
      "hand": "right"
    },
    {
      "midi": 51,
      "time": 96.406,
      "duration": 0.156,
      "velocity": 0.63,
      "hand": "left"
    },
    {
      "midi": 31,
      "time": 96.563,
      "duration": 0.156,
      "velocity": 0.63,
      "hand": "left"
    },
    {
      "midi": 43,
      "time": 96.563,
      "duration": 0.156,
      "velocity": 0.63,
      "hand": "left"
    },
    {
      "midi": 63,
      "time": 96.563,
      "duration": 0.313,
      "velocity": 0.63,
      "hand": "right"
    },
    {
      "midi": 68,
      "time": 96.563,
      "duration": 0.313,
      "velocity": 0.63,
      "hand": "right"
    },
    {
      "midi": 75,
      "time": 96.563,
      "duration": 0.313,
      "velocity": 0.63,
      "hand": "right"
    },
    {
      "midi": 51,
      "time": 96.719,
      "duration": 0.156,
      "velocity": 0.63,
      "hand": "left"
    },
    {
      "midi": 56,
      "time": 96.875,
      "duration": 0.156,
      "velocity": 0.63,
      "hand": "left"
    },
    {
      "midi": 73,
      "time": 96.875,
      "duration": 0.313,
      "velocity": 0.63,
      "hand": "right"
    },
    {
      "midi": 59,
      "time": 97.031,
      "duration": 0.156,
      "velocity": 0.63,
      "hand": "left"
    },
    {
      "midi": 56,
      "time": 97.188,
      "duration": 0.156,
      "velocity": 0.63,
      "hand": "left"
    },
    {
      "midi": 68,
      "time": 97.188,
      "duration": 0.313,
      "velocity": 0.63,
      "hand": "right"
    },
    {
      "midi": 71,
      "time": 97.188,
      "duration": 0.313,
      "velocity": 0.63,
      "hand": "right"
    },
    {
      "midi": 51,
      "time": 97.344,
      "duration": 0.156,
      "velocity": 0.63,
      "hand": "left"
    },
    {
      "midi": 30,
      "time": 97.5,
      "duration": 0.156,
      "velocity": 0.63,
      "hand": "left"
    },
    {
      "midi": 42,
      "time": 97.5,
      "duration": 0.156,
      "velocity": 0.63,
      "hand": "left"
    },
    {
      "midi": 66,
      "time": 97.5,
      "duration": 0.156,
      "velocity": 0.63,
      "hand": "right"
    },
    {
      "midi": 71,
      "time": 97.5,
      "duration": 0.156,
      "velocity": 0.63,
      "hand": "right"
    },
    {
      "midi": 49,
      "time": 97.656,
      "duration": 0.156,
      "velocity": 0.63,
      "hand": "left"
    },
    {
      "midi": 66,
      "time": 97.656,
      "duration": 2.188,
      "velocity": 0.63,
      "hand": "right"
    },
    {
      "midi": 69,
      "time": 97.656,
      "duration": 2.188,
      "velocity": 0.63,
      "hand": "right"
    },
    {
      "midi": 54,
      "time": 97.813,
      "duration": 0.156,
      "velocity": 0.63,
      "hand": "left"
    },
    {
      "midi": 57,
      "time": 97.969,
      "duration": 0.156,
      "velocity": 0.63,
      "hand": "left"
    },
    {
      "midi": 54,
      "time": 98.125,
      "duration": 0.156,
      "velocity": 0.63,
      "hand": "left"
    },
    {
      "midi": 49,
      "time": 98.281,
      "duration": 0.156,
      "velocity": 0.63,
      "hand": "left"
    },
    {
      "midi": 30,
      "time": 98.438,
      "duration": 0.156,
      "velocity": 0.63,
      "hand": "left"
    },
    {
      "midi": 42,
      "time": 98.438,
      "duration": 0.156,
      "velocity": 0.63,
      "hand": "left"
    },
    {
      "midi": 49,
      "time": 98.594,
      "duration": 0.156,
      "velocity": 0.63,
      "hand": "left"
    },
    {
      "midi": 54,
      "time": 98.75,
      "duration": 0.156,
      "velocity": 0.63,
      "hand": "left"
    },
    {
      "midi": 57,
      "time": 98.906,
      "duration": 0.156,
      "velocity": 0.63,
      "hand": "left"
    },
    {
      "midi": 54,
      "time": 99.063,
      "duration": 0.156,
      "velocity": 0.63,
      "hand": "left"
    },
    {
      "midi": 49,
      "time": 99.219,
      "duration": 0.156,
      "velocity": 0.63,
      "hand": "left"
    },
    {
      "midi": 30,
      "time": 99.375,
      "duration": 0.156,
      "velocity": 0.63,
      "hand": "left"
    },
    {
      "midi": 42,
      "time": 99.375,
      "duration": 0.156,
      "velocity": 0.63,
      "hand": "left"
    },
    {
      "midi": 49,
      "time": 99.531,
      "duration": 0.156,
      "velocity": 0.63,
      "hand": "left"
    },
    {
      "midi": 54,
      "time": 99.688,
      "duration": 0.156,
      "velocity": 0.63,
      "hand": "left"
    },
    {
      "midi": 57,
      "time": 99.844,
      "duration": 0.156,
      "velocity": 0.63,
      "hand": "left"
    },
    {
      "midi": 54,
      "time": 100,
      "duration": 0.156,
      "velocity": 0.63,
      "hand": "left"
    },
    {
      "midi": 61,
      "time": 100,
      "duration": 0.313,
      "velocity": 0.63,
      "hand": "right"
    },
    {
      "midi": 64,
      "time": 100,
      "duration": 0.313,
      "velocity": 0.63,
      "hand": "right"
    },
    {
      "midi": 73,
      "time": 100,
      "duration": 0.313,
      "velocity": 0.63,
      "hand": "right"
    },
    {
      "midi": 49,
      "time": 100.156,
      "duration": 0.156,
      "velocity": 0.63,
      "hand": "left"
    },
    {
      "midi": 30,
      "time": 100.313,
      "duration": 0.156,
      "velocity": 0.63,
      "hand": "left"
    },
    {
      "midi": 42,
      "time": 100.313,
      "duration": 0.156,
      "velocity": 0.63,
      "hand": "left"
    },
    {
      "midi": 61,
      "time": 100.313,
      "duration": 0.313,
      "velocity": 0.63,
      "hand": "right"
    },
    {
      "midi": 64,
      "time": 100.313,
      "duration": 0.313,
      "velocity": 0.63,
      "hand": "right"
    },
    {
      "midi": 66,
      "time": 100.313,
      "duration": 0.313,
      "velocity": 0.63,
      "hand": "right"
    },
    {
      "midi": 71,
      "time": 100.313,
      "duration": 0.313,
      "velocity": 0.63,
      "hand": "right"
    },
    {
      "midi": 49,
      "time": 100.469,
      "duration": 0.156,
      "velocity": 0.63,
      "hand": "left"
    },
    {
      "midi": 54,
      "time": 100.625,
      "duration": 0.156,
      "velocity": 0.63,
      "hand": "left"
    },
    {
      "midi": 61,
      "time": 100.625,
      "duration": 0.313,
      "velocity": 0.63,
      "hand": "right"
    },
    {
      "midi": 66,
      "time": 100.625,
      "duration": 0.313,
      "velocity": 0.63,
      "hand": "right"
    },
    {
      "midi": 69,
      "time": 100.625,
      "duration": 0.313,
      "velocity": 0.63,
      "hand": "right"
    },
    {
      "midi": 57,
      "time": 100.781,
      "duration": 0.156,
      "velocity": 0.63,
      "hand": "left"
    },
    {
      "midi": 54,
      "time": 100.938,
      "duration": 0.156,
      "velocity": 0.63,
      "hand": "left"
    },
    {
      "midi": 61,
      "time": 100.938,
      "duration": 0.156,
      "velocity": 0.63,
      "hand": "right"
    },
    {
      "midi": 66,
      "time": 100.938,
      "duration": 0.156,
      "velocity": 0.63,
      "hand": "right"
    },
    {
      "midi": 68,
      "time": 100.938,
      "duration": 0.156,
      "velocity": 0.63,
      "hand": "right"
    },
    {
      "midi": 49,
      "time": 101.094,
      "duration": 0.156,
      "velocity": 0.63,
      "hand": "left"
    },
    {
      "midi": 59,
      "time": 101.094,
      "duration": 2.5,
      "velocity": 0.63,
      "hand": "left"
    },
    {
      "midi": 64,
      "time": 101.094,
      "duration": 2.5,
      "velocity": 0.63,
      "hand": "right"
    },
    {
      "midi": 68,
      "time": 101.094,
      "duration": 2.5,
      "velocity": 0.63,
      "hand": "right"
    },
    {
      "midi": 28,
      "time": 101.25,
      "duration": 0.156,
      "velocity": 0.63,
      "hand": "left"
    },
    {
      "midi": 40,
      "time": 101.25,
      "duration": 0.156,
      "velocity": 0.63,
      "hand": "left"
    },
    {
      "midi": 47,
      "time": 101.406,
      "duration": 0.156,
      "velocity": 0.63,
      "hand": "left"
    },
    {
      "midi": 52,
      "time": 101.563,
      "duration": 0.156,
      "velocity": 0.63,
      "hand": "left"
    },
    {
      "midi": 56,
      "time": 101.719,
      "duration": 0.156,
      "velocity": 0.63,
      "hand": "left"
    },
    {
      "midi": 52,
      "time": 101.875,
      "duration": 0.156,
      "velocity": 0.63,
      "hand": "left"
    },
    {
      "midi": 47,
      "time": 102.031,
      "duration": 0.156,
      "velocity": 0.63,
      "hand": "left"
    },
    {
      "midi": 28,
      "time": 102.188,
      "duration": 0.156,
      "velocity": 0.63,
      "hand": "left"
    },
    {
      "midi": 40,
      "time": 102.188,
      "duration": 0.156,
      "velocity": 0.63,
      "hand": "left"
    },
    {
      "midi": 47,
      "time": 102.344,
      "duration": 0.156,
      "velocity": 0.63,
      "hand": "left"
    },
    {
      "midi": 52,
      "time": 102.5,
      "duration": 0.156,
      "velocity": 0.63,
      "hand": "left"
    },
    {
      "midi": 56,
      "time": 102.656,
      "duration": 0.156,
      "velocity": 0.63,
      "hand": "left"
    },
    {
      "midi": 52,
      "time": 102.813,
      "duration": 0.156,
      "velocity": 0.63,
      "hand": "left"
    },
    {
      "midi": 47,
      "time": 102.969,
      "duration": 0.156,
      "velocity": 0.63,
      "hand": "left"
    },
    {
      "midi": 28,
      "time": 103.125,
      "duration": 0.156,
      "velocity": 0.63,
      "hand": "left"
    },
    {
      "midi": 40,
      "time": 103.125,
      "duration": 0.156,
      "velocity": 0.63,
      "hand": "left"
    },
    {
      "midi": 47,
      "time": 103.281,
      "duration": 0.156,
      "velocity": 0.63,
      "hand": "left"
    },
    {
      "midi": 52,
      "time": 103.438,
      "duration": 0.156,
      "velocity": 0.63,
      "hand": "left"
    },
    {
      "midi": 56,
      "time": 103.594,
      "duration": 0.156,
      "velocity": 0.63,
      "hand": "left"
    },
    {
      "midi": 52,
      "time": 103.75,
      "duration": 0.156,
      "velocity": 0.63,
      "hand": "left"
    },
    {
      "midi": 66,
      "time": 103.75,
      "duration": 0.313,
      "velocity": 0.63,
      "hand": "right"
    },
    {
      "midi": 47,
      "time": 103.906,
      "duration": 0.156,
      "velocity": 0.63,
      "hand": "left"
    },
    {
      "midi": 28,
      "time": 104.063,
      "duration": 0.156,
      "velocity": 0.63,
      "hand": "left"
    },
    {
      "midi": 40,
      "time": 104.063,
      "duration": 0.156,
      "velocity": 0.63,
      "hand": "left"
    },
    {
      "midi": 64,
      "time": 104.063,
      "duration": 0.313,
      "velocity": 0.63,
      "hand": "right"
    },
    {
      "midi": 47,
      "time": 104.219,
      "duration": 0.156,
      "velocity": 0.63,
      "hand": "left"
    },
    {
      "midi": 52,
      "time": 104.375,
      "duration": 0.156,
      "velocity": 0.63,
      "hand": "left"
    },
    {
      "midi": 68,
      "time": 104.375,
      "duration": 0.313,
      "velocity": 0.63,
      "hand": "right"
    },
    {
      "midi": 56,
      "time": 104.531,
      "duration": 0.156,
      "velocity": 0.63,
      "hand": "left"
    },
    {
      "midi": 52,
      "time": 104.688,
      "duration": 0.156,
      "velocity": 0.63,
      "hand": "left"
    },
    {
      "midi": 71,
      "time": 104.688,
      "duration": 0.313,
      "velocity": 0.63,
      "hand": "right"
    },
    {
      "midi": 47,
      "time": 104.844,
      "duration": 0.156,
      "velocity": 0.63,
      "hand": "left"
    },
    {
      "midi": 33,
      "time": 105,
      "duration": 0.156,
      "velocity": 0.63,
      "hand": "left"
    },
    {
      "midi": 45,
      "time": 105,
      "duration": 0.156,
      "velocity": 0.63,
      "hand": "left"
    },
    {
      "midi": 64,
      "time": 105,
      "duration": 1.25,
      "velocity": 0.63,
      "hand": "right"
    },
    {
      "midi": 69,
      "time": 105,
      "duration": 1.25,
      "velocity": 0.63,
      "hand": "right"
    },
    {
      "midi": 52,
      "time": 105.156,
      "duration": 0.156,
      "velocity": 0.63,
      "hand": "left"
    },
    {
      "midi": 73,
      "time": 105.156,
      "duration": 1.094,
      "velocity": 0.63,
      "hand": "right"
    },
    {
      "midi": 57,
      "time": 105.313,
      "duration": 0.156,
      "velocity": 0.63,
      "hand": "left"
    },
    {
      "midi": 61,
      "time": 105.469,
      "duration": 0.156,
      "velocity": 0.63,
      "hand": "right"
    },
    {
      "midi": 57,
      "time": 105.625,
      "duration": 0.156,
      "velocity": 0.63,
      "hand": "left"
    },
    {
      "midi": 52,
      "time": 105.781,
      "duration": 0.156,
      "velocity": 0.63,
      "hand": "left"
    },
    {
      "midi": 33,
      "time": 105.938,
      "duration": 0.156,
      "velocity": 0.63,
      "hand": "left"
    },
    {
      "midi": 45,
      "time": 105.938,
      "duration": 0.156,
      "velocity": 0.63,
      "hand": "left"
    },
    {
      "midi": 52,
      "time": 106.094,
      "duration": 0.156,
      "velocity": 0.63,
      "hand": "left"
    },
    {
      "midi": 57,
      "time": 106.25,
      "duration": 0.156,
      "velocity": 0.63,
      "hand": "left"
    },
    {
      "midi": 64,
      "time": 106.25,
      "duration": 0.313,
      "velocity": 0.63,
      "hand": "right"
    },
    {
      "midi": 73,
      "time": 106.25,
      "duration": 0.313,
      "velocity": 0.63,
      "hand": "right"
    },
    {
      "midi": 61,
      "time": 106.406,
      "duration": 0.156,
      "velocity": 0.63,
      "hand": "right"
    },
    {
      "midi": 57,
      "time": 106.563,
      "duration": 0.156,
      "velocity": 0.63,
      "hand": "left"
    },
    {
      "midi": 69,
      "time": 106.563,
      "duration": 0.313,
      "velocity": 0.63,
      "hand": "right"
    },
    {
      "midi": 75,
      "time": 106.563,
      "duration": 0.313,
      "velocity": 0.63,
      "hand": "right"
    },
    {
      "midi": 52,
      "time": 106.719,
      "duration": 0.156,
      "velocity": 0.63,
      "hand": "left"
    },
    {
      "midi": 33,
      "time": 106.875,
      "duration": 0.156,
      "velocity": 0.63,
      "hand": "left"
    },
    {
      "midi": 45,
      "time": 106.875,
      "duration": 0.156,
      "velocity": 0.63,
      "hand": "left"
    },
    {
      "midi": 69,
      "time": 106.875,
      "duration": 1.25,
      "velocity": 0.63,
      "hand": "right"
    },
    {
      "midi": 73,
      "time": 106.875,
      "duration": 1.25,
      "velocity": 0.63,
      "hand": "right"
    },
    {
      "midi": 76,
      "time": 106.875,
      "duration": 1.25,
      "velocity": 0.63,
      "hand": "right"
    },
    {
      "midi": 52,
      "time": 107.031,
      "duration": 0.156,
      "velocity": 0.63,
      "hand": "left"
    },
    {
      "midi": 57,
      "time": 107.188,
      "duration": 0.156,
      "velocity": 0.63,
      "hand": "left"
    },
    {
      "midi": 61,
      "time": 107.344,
      "duration": 0.156,
      "velocity": 0.63,
      "hand": "right"
    },
    {
      "midi": 57,
      "time": 107.5,
      "duration": 0.156,
      "velocity": 0.63,
      "hand": "left"
    },
    {
      "midi": 52,
      "time": 107.656,
      "duration": 0.156,
      "velocity": 0.63,
      "hand": "left"
    },
    {
      "midi": 33,
      "time": 107.813,
      "duration": 0.156,
      "velocity": 0.63,
      "hand": "left"
    },
    {
      "midi": 45,
      "time": 107.813,
      "duration": 0.156,
      "velocity": 0.63,
      "hand": "left"
    },
    {
      "midi": 52,
      "time": 107.969,
      "duration": 0.156,
      "velocity": 0.63,
      "hand": "left"
    },
    {
      "midi": 57,
      "time": 108.125,
      "duration": 0.156,
      "velocity": 0.63,
      "hand": "left"
    },
    {
      "midi": 69,
      "time": 108.125,
      "duration": 0.313,
      "velocity": 0.63,
      "hand": "right"
    },
    {
      "midi": 76,
      "time": 108.125,
      "duration": 0.313,
      "velocity": 0.63,
      "hand": "right"
    },
    {
      "midi": 61,
      "time": 108.281,
      "duration": 0.156,
      "velocity": 0.63,
      "hand": "right"
    },
    {
      "midi": 57,
      "time": 108.438,
      "duration": 0.156,
      "velocity": 0.63,
      "hand": "left"
    },
    {
      "midi": 68,
      "time": 108.438,
      "duration": 0.313,
      "velocity": 0.63,
      "hand": "right"
    },
    {
      "midi": 78,
      "time": 108.438,
      "duration": 0.313,
      "velocity": 0.63,
      "hand": "right"
    },
    {
      "midi": 52,
      "time": 108.594,
      "duration": 0.156,
      "velocity": 0.63,
      "hand": "left"
    },
    {
      "midi": 32,
      "time": 108.75,
      "duration": 0.156,
      "velocity": 0.63,
      "hand": "left"
    },
    {
      "midi": 44,
      "time": 108.75,
      "duration": 0.156,
      "velocity": 0.63,
      "hand": "left"
    },
    {
      "midi": 68,
      "time": 108.75,
      "duration": 0.313,
      "velocity": 0.63,
      "hand": "right"
    },
    {
      "midi": 75,
      "time": 108.75,
      "duration": 0.313,
      "velocity": 0.63,
      "hand": "right"
    },
    {
      "midi": 51,
      "time": 108.906,
      "duration": 0.156,
      "velocity": 0.63,
      "hand": "left"
    },
    {
      "midi": 56,
      "time": 109.063,
      "duration": 0.156,
      "velocity": 0.63,
      "hand": "left"
    },
    {
      "midi": 73,
      "time": 109.063,
      "duration": 0.313,
      "velocity": 0.63,
      "hand": "right"
    },
    {
      "midi": 59,
      "time": 109.219,
      "duration": 0.156,
      "velocity": 0.63,
      "hand": "left"
    },
    {
      "midi": 56,
      "time": 109.375,
      "duration": 0.156,
      "velocity": 0.63,
      "hand": "left"
    },
    {
      "midi": 68,
      "time": 109.375,
      "duration": 0.313,
      "velocity": 0.63,
      "hand": "right"
    },
    {
      "midi": 71,
      "time": 109.375,
      "duration": 0.313,
      "velocity": 0.63,
      "hand": "right"
    },
    {
      "midi": 51,
      "time": 109.531,
      "duration": 0.156,
      "velocity": 0.63,
      "hand": "left"
    },
    {
      "midi": 32,
      "time": 109.688,
      "duration": 0.156,
      "velocity": 0.63,
      "hand": "left"
    },
    {
      "midi": 44,
      "time": 109.688,
      "duration": 0.156,
      "velocity": 0.63,
      "hand": "left"
    },
    {
      "midi": 68,
      "time": 109.688,
      "duration": 0.625,
      "velocity": 0.63,
      "hand": "right"
    },
    {
      "midi": 71,
      "time": 109.688,
      "duration": 0.625,
      "velocity": 0.63,
      "hand": "right"
    },
    {
      "midi": 51,
      "time": 109.844,
      "duration": 0.156,
      "velocity": 0.63,
      "hand": "left"
    },
    {
      "midi": 56,
      "time": 110,
      "duration": 0.156,
      "velocity": 0.63,
      "hand": "left"
    },
    {
      "midi": 59,
      "time": 110.156,
      "duration": 0.156,
      "velocity": 0.63,
      "hand": "left"
    },
    {
      "midi": 56,
      "time": 110.313,
      "duration": 0.156,
      "velocity": 0.63,
      "hand": "left"
    },
    {
      "midi": 63,
      "time": 110.313,
      "duration": 0.313,
      "velocity": 0.63,
      "hand": "right"
    },
    {
      "midi": 68,
      "time": 110.313,
      "duration": 0.313,
      "velocity": 0.63,
      "hand": "right"
    },
    {
      "midi": 51,
      "time": 110.469,
      "duration": 0.156,
      "velocity": 0.63,
      "hand": "left"
    },
    {
      "midi": 32,
      "time": 110.625,
      "duration": 0.156,
      "velocity": 0.63,
      "hand": "left"
    },
    {
      "midi": 44,
      "time": 110.625,
      "duration": 0.156,
      "velocity": 0.63,
      "hand": "left"
    },
    {
      "midi": 63,
      "time": 110.625,
      "duration": 0.313,
      "velocity": 0.63,
      "hand": "right"
    },
    {
      "midi": 68,
      "time": 110.625,
      "duration": 0.313,
      "velocity": 0.63,
      "hand": "right"
    },
    {
      "midi": 71,
      "time": 110.625,
      "duration": 0.313,
      "velocity": 0.63,
      "hand": "right"
    },
    {
      "midi": 75,
      "time": 110.625,
      "duration": 0.313,
      "velocity": 0.63,
      "hand": "right"
    },
    {
      "midi": 51,
      "time": 110.781,
      "duration": 0.156,
      "velocity": 0.63,
      "hand": "left"
    },
    {
      "midi": 56,
      "time": 110.938,
      "duration": 0.156,
      "velocity": 0.63,
      "hand": "left"
    },
    {
      "midi": 73,
      "time": 110.938,
      "duration": 0.313,
      "velocity": 0.63,
      "hand": "right"
    },
    {
      "midi": 59,
      "time": 111.094,
      "duration": 0.156,
      "velocity": 0.63,
      "hand": "left"
    },
    {
      "midi": 56,
      "time": 111.25,
      "duration": 0.156,
      "velocity": 0.63,
      "hand": "left"
    },
    {
      "midi": 68,
      "time": 111.25,
      "duration": 0.313,
      "velocity": 0.63,
      "hand": "right"
    },
    {
      "midi": 71,
      "time": 111.25,
      "duration": 0.313,
      "velocity": 0.63,
      "hand": "right"
    },
    {
      "midi": 51,
      "time": 111.406,
      "duration": 0.156,
      "velocity": 0.63,
      "hand": "left"
    },
    {
      "midi": 31,
      "time": 111.563,
      "duration": 0.156,
      "velocity": 0.63,
      "hand": "left"
    },
    {
      "midi": 43,
      "time": 111.563,
      "duration": 0.156,
      "velocity": 0.63,
      "hand": "left"
    },
    {
      "midi": 63,
      "time": 111.563,
      "duration": 0.313,
      "velocity": 0.63,
      "hand": "right"
    },
    {
      "midi": 68,
      "time": 111.563,
      "duration": 0.313,
      "velocity": 0.63,
      "hand": "right"
    },
    {
      "midi": 75,
      "time": 111.563,
      "duration": 0.313,
      "velocity": 0.63,
      "hand": "right"
    },
    {
      "midi": 51,
      "time": 111.719,
      "duration": 0.156,
      "velocity": 0.63,
      "hand": "left"
    },
    {
      "midi": 56,
      "time": 111.875,
      "duration": 0.156,
      "velocity": 0.63,
      "hand": "left"
    },
    {
      "midi": 73,
      "time": 111.875,
      "duration": 0.313,
      "velocity": 0.63,
      "hand": "right"
    },
    {
      "midi": 59,
      "time": 112.031,
      "duration": 0.156,
      "velocity": 0.63,
      "hand": "left"
    },
    {
      "midi": 56,
      "time": 112.188,
      "duration": 0.156,
      "velocity": 0.63,
      "hand": "left"
    },
    {
      "midi": 68,
      "time": 112.188,
      "duration": 0.313,
      "velocity": 0.63,
      "hand": "right"
    },
    {
      "midi": 71,
      "time": 112.188,
      "duration": 0.313,
      "velocity": 0.63,
      "hand": "right"
    },
    {
      "midi": 51,
      "time": 112.344,
      "duration": 0.156,
      "velocity": 0.63,
      "hand": "left"
    },
    {
      "midi": 30,
      "time": 112.5,
      "duration": 0.156,
      "velocity": 0.63,
      "hand": "left"
    },
    {
      "midi": 42,
      "time": 112.5,
      "duration": 0.156,
      "velocity": 0.63,
      "hand": "left"
    },
    {
      "midi": 66,
      "time": 112.5,
      "duration": 0.156,
      "velocity": 0.63,
      "hand": "right"
    },
    {
      "midi": 71,
      "time": 112.5,
      "duration": 0.156,
      "velocity": 0.63,
      "hand": "right"
    },
    {
      "midi": 49,
      "time": 112.656,
      "duration": 0.156,
      "velocity": 0.63,
      "hand": "left"
    },
    {
      "midi": 66,
      "time": 112.656,
      "duration": 2.188,
      "velocity": 0.63,
      "hand": "right"
    },
    {
      "midi": 69,
      "time": 112.656,
      "duration": 2.188,
      "velocity": 0.63,
      "hand": "right"
    },
    {
      "midi": 54,
      "time": 112.813,
      "duration": 0.156,
      "velocity": 0.63,
      "hand": "left"
    },
    {
      "midi": 57,
      "time": 112.969,
      "duration": 0.156,
      "velocity": 0.63,
      "hand": "left"
    },
    {
      "midi": 54,
      "time": 113.125,
      "duration": 0.156,
      "velocity": 0.63,
      "hand": "left"
    },
    {
      "midi": 49,
      "time": 113.281,
      "duration": 0.156,
      "velocity": 0.63,
      "hand": "left"
    },
    {
      "midi": 30,
      "time": 113.438,
      "duration": 0.156,
      "velocity": 0.63,
      "hand": "left"
    },
    {
      "midi": 42,
      "time": 113.438,
      "duration": 0.156,
      "velocity": 0.63,
      "hand": "left"
    },
    {
      "midi": 49,
      "time": 113.594,
      "duration": 0.156,
      "velocity": 0.63,
      "hand": "left"
    },
    {
      "midi": 54,
      "time": 113.75,
      "duration": 0.156,
      "velocity": 0.63,
      "hand": "left"
    },
    {
      "midi": 57,
      "time": 113.906,
      "duration": 0.156,
      "velocity": 0.63,
      "hand": "left"
    },
    {
      "midi": 54,
      "time": 114.063,
      "duration": 0.156,
      "velocity": 0.63,
      "hand": "left"
    },
    {
      "midi": 49,
      "time": 114.219,
      "duration": 0.156,
      "velocity": 0.63,
      "hand": "left"
    },
    {
      "midi": 30,
      "time": 114.375,
      "duration": 0.156,
      "velocity": 0.63,
      "hand": "left"
    },
    {
      "midi": 42,
      "time": 114.375,
      "duration": 0.156,
      "velocity": 0.63,
      "hand": "left"
    },
    {
      "midi": 49,
      "time": 114.531,
      "duration": 0.156,
      "velocity": 0.63,
      "hand": "left"
    },
    {
      "midi": 54,
      "time": 114.688,
      "duration": 0.156,
      "velocity": 0.63,
      "hand": "left"
    },
    {
      "midi": 57,
      "time": 114.844,
      "duration": 0.156,
      "velocity": 0.63,
      "hand": "left"
    },
    {
      "midi": 54,
      "time": 115,
      "duration": 0.156,
      "velocity": 0.63,
      "hand": "left"
    },
    {
      "midi": 61,
      "time": 115,
      "duration": 0.313,
      "velocity": 0.63,
      "hand": "right"
    },
    {
      "midi": 64,
      "time": 115,
      "duration": 0.313,
      "velocity": 0.63,
      "hand": "right"
    },
    {
      "midi": 73,
      "time": 115,
      "duration": 0.313,
      "velocity": 0.63,
      "hand": "right"
    },
    {
      "midi": 49,
      "time": 115.156,
      "duration": 0.156,
      "velocity": 0.63,
      "hand": "left"
    },
    {
      "midi": 30,
      "time": 115.313,
      "duration": 0.156,
      "velocity": 0.63,
      "hand": "left"
    },
    {
      "midi": 42,
      "time": 115.313,
      "duration": 0.156,
      "velocity": 0.63,
      "hand": "left"
    },
    {
      "midi": 61,
      "time": 115.313,
      "duration": 0.313,
      "velocity": 0.63,
      "hand": "right"
    },
    {
      "midi": 64,
      "time": 115.313,
      "duration": 0.313,
      "velocity": 0.63,
      "hand": "right"
    },
    {
      "midi": 66,
      "time": 115.313,
      "duration": 0.313,
      "velocity": 0.63,
      "hand": "right"
    },
    {
      "midi": 71,
      "time": 115.313,
      "duration": 0.313,
      "velocity": 0.63,
      "hand": "right"
    },
    {
      "midi": 49,
      "time": 115.469,
      "duration": 0.156,
      "velocity": 0.63,
      "hand": "left"
    },
    {
      "midi": 54,
      "time": 115.625,
      "duration": 0.156,
      "velocity": 0.63,
      "hand": "left"
    },
    {
      "midi": 61,
      "time": 115.625,
      "duration": 0.313,
      "velocity": 0.63,
      "hand": "right"
    },
    {
      "midi": 66,
      "time": 115.625,
      "duration": 0.313,
      "velocity": 0.63,
      "hand": "right"
    },
    {
      "midi": 69,
      "time": 115.625,
      "duration": 0.313,
      "velocity": 0.63,
      "hand": "right"
    },
    {
      "midi": 57,
      "time": 115.781,
      "duration": 0.156,
      "velocity": 0.63,
      "hand": "left"
    },
    {
      "midi": 54,
      "time": 115.938,
      "duration": 0.156,
      "velocity": 0.63,
      "hand": "left"
    },
    {
      "midi": 61,
      "time": 115.938,
      "duration": 0.313,
      "velocity": 0.63,
      "hand": "right"
    },
    {
      "midi": 66,
      "time": 115.938,
      "duration": 0.313,
      "velocity": 0.63,
      "hand": "right"
    },
    {
      "midi": 68,
      "time": 115.938,
      "duration": 0.313,
      "velocity": 0.63,
      "hand": "right"
    },
    {
      "midi": 49,
      "time": 116.094,
      "duration": 0.156,
      "velocity": 0.63,
      "hand": "left"
    },
    {
      "midi": 32,
      "time": 116.25,
      "duration": 0.313,
      "velocity": 0.63,
      "hand": "left"
    },
    {
      "midi": 44,
      "time": 116.25,
      "duration": 0.313,
      "velocity": 0.63,
      "hand": "left"
    },
    {
      "midi": 60,
      "time": 116.25,
      "duration": 0.938,
      "velocity": 0.63,
      "hand": "right"
    },
    {
      "midi": 63,
      "time": 116.25,
      "duration": 0.938,
      "velocity": 0.63,
      "hand": "right"
    },
    {
      "midi": 68,
      "time": 116.25,
      "duration": 0.938,
      "velocity": 0.63,
      "hand": "right"
    },
    {
      "midi": 51,
      "time": 116.563,
      "duration": 0.313,
      "velocity": 0.65,
      "hand": "left"
    },
    {
      "midi": 56,
      "time": 116.563,
      "duration": 0.313,
      "velocity": 0.65,
      "hand": "left"
    },
    {
      "midi": 51,
      "time": 116.875,
      "duration": 0.313,
      "velocity": 0.67,
      "hand": "left"
    },
    {
      "midi": 56,
      "time": 116.875,
      "duration": 0.313,
      "velocity": 0.67,
      "hand": "left"
    },
    {
      "midi": 32,
      "time": 117.188,
      "duration": 0.313,
      "velocity": 0.69,
      "hand": "left"
    },
    {
      "midi": 44,
      "time": 117.188,
      "duration": 0.313,
      "velocity": 0.69,
      "hand": "left"
    },
    {
      "midi": 61,
      "time": 117.188,
      "duration": 0.938,
      "velocity": 0.69,
      "hand": "right"
    },
    {
      "midi": 68,
      "time": 117.188,
      "duration": 0.938,
      "velocity": 0.69,
      "hand": "right"
    },
    {
      "midi": 73,
      "time": 117.188,
      "duration": 0.938,
      "velocity": 0.69,
      "hand": "right"
    },
    {
      "midi": 51,
      "time": 117.5,
      "duration": 0.313,
      "velocity": 0.71,
      "hand": "left"
    },
    {
      "midi": 56,
      "time": 117.5,
      "duration": 0.313,
      "velocity": 0.71,
      "hand": "left"
    },
    {
      "midi": 51,
      "time": 117.813,
      "duration": 0.313,
      "velocity": 0.73,
      "hand": "left"
    },
    {
      "midi": 56,
      "time": 117.813,
      "duration": 0.313,
      "velocity": 0.73,
      "hand": "left"
    },
    {
      "midi": 51,
      "time": 118.125,
      "duration": 0.156,
      "velocity": 0.76,
      "hand": "left"
    },
    {
      "midi": 56,
      "time": 118.125,
      "duration": 0.156,
      "velocity": 0.76,
      "hand": "left"
    },
    {
      "midi": 64,
      "time": 118.125,
      "duration": 0.938,
      "velocity": 0.76,
      "hand": "right"
    },
    {
      "midi": 68,
      "time": 118.125,
      "duration": 0.938,
      "velocity": 0.76,
      "hand": "right"
    },
    {
      "midi": 76,
      "time": 118.125,
      "duration": 0.938,
      "velocity": 0.76,
      "hand": "right"
    },
    {
      "midi": 44,
      "time": 118.281,
      "duration": 0.156,
      "velocity": 0.76,
      "hand": "left"
    },
    {
      "midi": 51,
      "time": 118.438,
      "duration": 0.156,
      "velocity": 0.77,
      "hand": "left"
    },
    {
      "midi": 56,
      "time": 118.438,
      "duration": 0.156,
      "velocity": 0.77,
      "hand": "left"
    },
    {
      "midi": 44,
      "time": 118.594,
      "duration": 0.156,
      "velocity": 0.79,
      "hand": "left"
    },
    {
      "midi": 51,
      "time": 118.75,
      "duration": 0.156,
      "velocity": 0.8,
      "hand": "left"
    },
    {
      "midi": 56,
      "time": 118.75,
      "duration": 0.156,
      "velocity": 0.8,
      "hand": "left"
    },
    {
      "midi": 44,
      "time": 118.906,
      "duration": 0.156,
      "velocity": 0.8,
      "hand": "left"
    },
    {
      "midi": 60,
      "time": 119.063,
      "duration": 0.938,
      "velocity": 0.98,
      "hand": "right"
    },
    {
      "midi": 63,
      "time": 119.063,
      "duration": 0.938,
      "velocity": 0.98,
      "hand": "right"
    },
    {
      "midi": 66,
      "time": 119.063,
      "duration": 0.938,
      "velocity": 0.98,
      "hand": "right"
    },
    {
      "midi": 68,
      "time": 119.063,
      "duration": 0.938,
      "velocity": 0.98,
      "hand": "right"
    },
    {
      "midi": 72,
      "time": 119.063,
      "duration": 0.938,
      "velocity": 0.98,
      "hand": "right"
    },
    {
      "midi": 78,
      "time": 119.063,
      "duration": 0.938,
      "velocity": 0.98,
      "hand": "right"
    },
    {
      "midi": 33,
      "time": 120,
      "duration": 0.313,
      "velocity": 1,
      "hand": "left"
    },
    {
      "midi": 45,
      "time": 120,
      "duration": 0.313,
      "velocity": 1,
      "hand": "left"
    },
    {
      "midi": 80,
      "time": 120,
      "duration": 0.078,
      "velocity": 0.88,
      "hand": "right"
    },
    {
      "midi": 80,
      "time": 120,
      "duration": 0.156,
      "velocity": 1,
      "hand": "right"
    },
    {
      "midi": 85,
      "time": 120,
      "duration": 0.469,
      "velocity": 1,
      "hand": "right"
    },
    {
      "midi": 88,
      "time": 120,
      "duration": 1.719,
      "velocity": 1,
      "hand": "right"
    },
    {
      "midi": 92,
      "time": 120,
      "duration": 1.719,
      "velocity": 1,
      "hand": "right"
    },
    {
      "midi": 80,
      "time": 120.156,
      "duration": 0.625,
      "velocity": 0.88,
      "hand": "right"
    },
    {
      "midi": 83,
      "time": 120.313,
      "duration": 0.156,
      "velocity": 0.88,
      "hand": "right"
    },
    {
      "midi": 85,
      "time": 120.469,
      "duration": 0.938,
      "velocity": 0.88,
      "hand": "right"
    },
    {
      "midi": 83,
      "time": 120.625,
      "duration": 0.156,
      "velocity": 0.88,
      "hand": "right"
    },
    {
      "midi": 80,
      "time": 120.781,
      "duration": 0.313,
      "velocity": 0.88,
      "hand": "right"
    },
    {
      "midi": 56,
      "time": 120.938,
      "duration": 0.938,
      "velocity": 0.88,
      "hand": "left"
    },
    {
      "midi": 61,
      "time": 120.938,
      "duration": 0.938,
      "velocity": 0.88,
      "hand": "right"
    },
    {
      "midi": 64,
      "time": 120.938,
      "duration": 0.938,
      "velocity": 0.88,
      "hand": "right"
    },
    {
      "midi": 78,
      "time": 120.938,
      "duration": 0.156,
      "velocity": 0.88,
      "hand": "right"
    },
    {
      "midi": 80,
      "time": 121.094,
      "duration": 0.625,
      "velocity": 0.88,
      "hand": "right"
    },
    {
      "midi": 83,
      "time": 121.25,
      "duration": 0.156,
      "velocity": 0.88,
      "hand": "right"
    },
    {
      "midi": 85,
      "time": 121.406,
      "duration": 0.313,
      "velocity": 0.88,
      "hand": "right"
    },
    {
      "midi": 83,
      "time": 121.563,
      "duration": 0.156,
      "velocity": 0.88,
      "hand": "right"
    },
    {
      "midi": 80,
      "time": 121.719,
      "duration": 0.156,
      "velocity": 0.88,
      "hand": "right"
    },
    {
      "midi": 73,
      "time": 121.875,
      "duration": 0.313,
      "velocity": 0.88,
      "hand": "right"
    },
    {
      "midi": 76,
      "time": 121.875,
      "duration": 0.313,
      "velocity": 0.88,
      "hand": "right"
    },
    {
      "midi": 78,
      "time": 121.875,
      "duration": 0.156,
      "velocity": 0.88,
      "hand": "right"
    },
    {
      "midi": 80,
      "time": 122.031,
      "duration": 0.156,
      "velocity": 0.88,
      "hand": "right"
    },
    {
      "midi": 68,
      "time": 122.188,
      "duration": 0.313,
      "velocity": 0.88,
      "hand": "right"
    },
    {
      "midi": 73,
      "time": 122.188,
      "duration": 0.313,
      "velocity": 0.88,
      "hand": "right"
    },
    {
      "midi": 83,
      "time": 122.188,
      "duration": 0.156,
      "velocity": 0.88,
      "hand": "right"
    },
    {
      "midi": 85,
      "time": 122.344,
      "duration": 0.156,
      "velocity": 0.88,
      "hand": "right"
    },
    {
      "midi": 73,
      "time": 122.5,
      "duration": 0.313,
      "velocity": 0.88,
      "hand": "right"
    },
    {
      "midi": 76,
      "time": 122.5,
      "duration": 0.313,
      "velocity": 0.88,
      "hand": "right"
    },
    {
      "midi": 83,
      "time": 122.5,
      "duration": 0.156,
      "velocity": 0.88,
      "hand": "right"
    },
    {
      "midi": 80,
      "time": 122.656,
      "duration": 0.156,
      "velocity": 0.88,
      "hand": "right"
    },
    {
      "midi": 64,
      "time": 122.813,
      "duration": 0.313,
      "velocity": 0.88,
      "hand": "right"
    },
    {
      "midi": 68,
      "time": 122.813,
      "duration": 0.313,
      "velocity": 0.88,
      "hand": "right"
    },
    {
      "midi": 78,
      "time": 122.813,
      "duration": 0.156,
      "velocity": 0.88,
      "hand": "right"
    },
    {
      "midi": 80,
      "time": 122.969,
      "duration": 0.156,
      "velocity": 0.88,
      "hand": "right"
    },
    {
      "midi": 61,
      "time": 123.125,
      "duration": 0.313,
      "velocity": 0.88,
      "hand": "right"
    },
    {
      "midi": 64,
      "time": 123.125,
      "duration": 0.313,
      "velocity": 0.88,
      "hand": "right"
    },
    {
      "midi": 83,
      "time": 123.125,
      "duration": 0.156,
      "velocity": 0.88,
      "hand": "right"
    },
    {
      "midi": 85,
      "time": 123.281,
      "duration": 0.156,
      "velocity": 0.88,
      "hand": "right"
    },
    {
      "midi": 64,
      "time": 123.438,
      "duration": 0.313,
      "velocity": 0.88,
      "hand": "right"
    },
    {
      "midi": 68,
      "time": 123.438,
      "duration": 0.313,
      "velocity": 0.88,
      "hand": "right"
    },
    {
      "midi": 83,
      "time": 123.438,
      "duration": 0.156,
      "velocity": 0.88,
      "hand": "right"
    },
    {
      "midi": 80,
      "time": 123.594,
      "duration": 0.156,
      "velocity": 0.88,
      "hand": "right"
    },
    {
      "midi": 33,
      "time": 123.75,
      "duration": 0.469,
      "velocity": 1,
      "hand": "left"
    },
    {
      "midi": 45,
      "time": 123.75,
      "duration": 0.469,
      "velocity": 1,
      "hand": "left"
    },
    {
      "midi": 73,
      "time": 123.75,
      "duration": 0.938,
      "velocity": 0.88,
      "hand": "right"
    },
    {
      "midi": 76,
      "time": 123.75,
      "duration": 0.938,
      "velocity": 0.88,
      "hand": "right"
    },
    {
      "midi": 80,
      "time": 123.75,
      "duration": 0.938,
      "velocity": 0.88,
      "hand": "right"
    },
    {
      "midi": 85,
      "time": 123.75,
      "duration": 0.938,
      "velocity": 0.88,
      "hand": "right"
    },
    {
      "midi": 52,
      "time": 124.219,
      "duration": 0.313,
      "velocity": 0.88,
      "hand": "left"
    },
    {
      "midi": 56,
      "time": 124.219,
      "duration": 0.313,
      "velocity": 0.88,
      "hand": "left"
    },
    {
      "midi": 52,
      "time": 124.531,
      "duration": 0.156,
      "velocity": 0.88,
      "hand": "left"
    },
    {
      "midi": 56,
      "time": 124.531,
      "duration": 0.156,
      "velocity": 0.88,
      "hand": "left"
    },
    {
      "midi": 37,
      "time": 124.688,
      "duration": 0.313,
      "velocity": 1,
      "hand": "left"
    },
    {
      "midi": 49,
      "time": 124.688,
      "duration": 0.313,
      "velocity": 1,
      "hand": "left"
    },
    {
      "midi": 75,
      "time": 124.688,
      "duration": 0.938,
      "velocity": 0.88,
      "hand": "right"
    },
    {
      "midi": 80,
      "time": 124.688,
      "duration": 0.938,
      "velocity": 0.88,
      "hand": "right"
    },
    {
      "midi": 87,
      "time": 124.688,
      "duration": 0.938,
      "velocity": 0.88,
      "hand": "right"
    },
    {
      "midi": 52,
      "time": 125,
      "duration": 0.313,
      "velocity": 0.88,
      "hand": "left"
    },
    {
      "midi": 56,
      "time": 125,
      "duration": 0.313,
      "velocity": 0.88,
      "hand": "left"
    },
    {
      "midi": 52,
      "time": 125.313,
      "duration": 0.313,
      "velocity": 0.88,
      "hand": "left"
    },
    {
      "midi": 56,
      "time": 125.313,
      "duration": 0.313,
      "velocity": 0.88,
      "hand": "left"
    },
    {
      "midi": 33,
      "time": 125.625,
      "duration": 0.156,
      "velocity": 1,
      "hand": "left"
    },
    {
      "midi": 45,
      "time": 125.625,
      "duration": 0.156,
      "velocity": 1,
      "hand": "left"
    },
    {
      "midi": 83,
      "time": 125.625,
      "duration": 0.078,
      "velocity": 0.88,
      "hand": "right"
    },
    {
      "midi": 88,
      "time": 125.625,
      "duration": 0.078,
      "velocity": 0.88,
      "hand": "right"
    },
    {
      "midi": 95,
      "time": 125.625,
      "duration": 0.078,
      "velocity": 0.88,
      "hand": "right"
    },
    {
      "midi": 45,
      "time": 125.781,
      "duration": 0.156,
      "velocity": 0.88,
      "hand": "left"
    },
    {
      "midi": 83,
      "time": 125.781,
      "duration": 0.078,
      "velocity": 0.88,
      "hand": "right"
    },
    {
      "midi": 88,
      "time": 125.781,
      "duration": 0.078,
      "velocity": 0.88,
      "hand": "right"
    },
    {
      "midi": 95,
      "time": 125.781,
      "duration": 0.078,
      "velocity": 0.88,
      "hand": "right"
    },
    {
      "midi": 52,
      "time": 125.938,
      "duration": 0.156,
      "velocity": 0.88,
      "hand": "left"
    },
    {
      "midi": 57,
      "time": 125.938,
      "duration": 0.156,
      "velocity": 0.88,
      "hand": "left"
    },
    {
      "midi": 83,
      "time": 125.938,
      "duration": 0.078,
      "velocity": 0.88,
      "hand": "right"
    },
    {
      "midi": 88,
      "time": 125.938,
      "duration": 0.078,
      "velocity": 0.88,
      "hand": "right"
    },
    {
      "midi": 95,
      "time": 125.938,
      "duration": 0.078,
      "velocity": 0.88,
      "hand": "right"
    },
    {
      "midi": 48,
      "time": 126.094,
      "duration": 0.156,
      "velocity": 0.88,
      "hand": "left"
    },
    {
      "midi": 83,
      "time": 126.094,
      "duration": 0.078,
      "velocity": 0.88,
      "hand": "right"
    },
    {
      "midi": 88,
      "time": 126.094,
      "duration": 0.078,
      "velocity": 0.88,
      "hand": "right"
    },
    {
      "midi": 95,
      "time": 126.094,
      "duration": 0.078,
      "velocity": 0.88,
      "hand": "right"
    },
    {
      "midi": 52,
      "time": 126.25,
      "duration": 0.156,
      "velocity": 0.88,
      "hand": "left"
    },
    {
      "midi": 57,
      "time": 126.25,
      "duration": 0.156,
      "velocity": 0.88,
      "hand": "left"
    },
    {
      "midi": 83,
      "time": 126.25,
      "duration": 0.078,
      "velocity": 0.88,
      "hand": "right"
    },
    {
      "midi": 88,
      "time": 126.25,
      "duration": 0.078,
      "velocity": 0.88,
      "hand": "right"
    },
    {
      "midi": 95,
      "time": 126.25,
      "duration": 0.078,
      "velocity": 0.88,
      "hand": "right"
    },
    {
      "midi": 48,
      "time": 126.406,
      "duration": 0.156,
      "velocity": 0.88,
      "hand": "left"
    },
    {
      "midi": 83,
      "time": 126.406,
      "duration": 0.078,
      "velocity": 0.88,
      "hand": "right"
    },
    {
      "midi": 88,
      "time": 126.406,
      "duration": 0.078,
      "velocity": 0.88,
      "hand": "right"
    },
    {
      "midi": 95,
      "time": 126.406,
      "duration": 0.078,
      "velocity": 0.88,
      "hand": "right"
    },
    {
      "midi": 42,
      "time": 126.563,
      "duration": 0.156,
      "velocity": 1,
      "hand": "left"
    },
    {
      "midi": 54,
      "time": 126.563,
      "duration": 0.156,
      "velocity": 1,
      "hand": "left"
    },
    {
      "midi": 81,
      "time": 126.563,
      "duration": 0.078,
      "velocity": 0.88,
      "hand": "right"
    },
    {
      "midi": 90,
      "time": 126.563,
      "duration": 0.078,
      "velocity": 0.88,
      "hand": "right"
    },
    {
      "midi": 93,
      "time": 126.563,
      "duration": 0.078,
      "velocity": 0.88,
      "hand": "right"
    },
    {
      "midi": 57,
      "time": 126.719,
      "duration": 0.156,
      "velocity": 0.88,
      "hand": "left"
    },
    {
      "midi": 81,
      "time": 126.719,
      "duration": 0.078,
      "velocity": 0.88,
      "hand": "right"
    },
    {
      "midi": 90,
      "time": 126.719,
      "duration": 0.078,
      "velocity": 0.88,
      "hand": "right"
    },
    {
      "midi": 93,
      "time": 126.719,
      "duration": 0.078,
      "velocity": 0.88,
      "hand": "right"
    },
    {
      "midi": 60,
      "time": 126.875,
      "duration": 0.156,
      "velocity": 0.88,
      "hand": "right"
    },
    {
      "midi": 81,
      "time": 126.875,
      "duration": 0.078,
      "velocity": 0.88,
      "hand": "right"
    },
    {
      "midi": 90,
      "time": 126.875,
      "duration": 0.078,
      "velocity": 0.88,
      "hand": "right"
    },
    {
      "midi": 93,
      "time": 126.875,
      "duration": 0.078,
      "velocity": 0.88,
      "hand": "right"
    },
    {
      "midi": 57,
      "time": 127.031,
      "duration": 0.156,
      "velocity": 0.88,
      "hand": "left"
    },
    {
      "midi": 81,
      "time": 127.031,
      "duration": 0.078,
      "velocity": 0.88,
      "hand": "right"
    },
    {
      "midi": 90,
      "time": 127.031,
      "duration": 0.078,
      "velocity": 0.88,
      "hand": "right"
    },
    {
      "midi": 93,
      "time": 127.031,
      "duration": 0.078,
      "velocity": 0.88,
      "hand": "right"
    },
    {
      "midi": 54,
      "time": 127.188,
      "duration": 0.156,
      "velocity": 0.88,
      "hand": "left"
    },
    {
      "midi": 81,
      "time": 127.188,
      "duration": 0.078,
      "velocity": 0.88,
      "hand": "right"
    },
    {
      "midi": 90,
      "time": 127.188,
      "duration": 0.078,
      "velocity": 0.88,
      "hand": "right"
    },
    {
      "midi": 93,
      "time": 127.188,
      "duration": 0.078,
      "velocity": 0.88,
      "hand": "right"
    },
    {
      "midi": 48,
      "time": 127.344,
      "duration": 0.156,
      "velocity": 0.88,
      "hand": "left"
    },
    {
      "midi": 81,
      "time": 127.344,
      "duration": 0.078,
      "velocity": 0.88,
      "hand": "right"
    },
    {
      "midi": 90,
      "time": 127.344,
      "duration": 0.078,
      "velocity": 0.88,
      "hand": "right"
    },
    {
      "midi": 93,
      "time": 127.344,
      "duration": 0.078,
      "velocity": 0.88,
      "hand": "right"
    },
    {
      "midi": 28,
      "time": 127.5,
      "duration": 0.313,
      "velocity": 1,
      "hand": "left"
    },
    {
      "midi": 40,
      "time": 127.5,
      "duration": 0.313,
      "velocity": 1,
      "hand": "left"
    },
    {
      "midi": 80,
      "time": 127.5,
      "duration": 0.078,
      "velocity": 0.88,
      "hand": "right"
    },
    {
      "midi": 80,
      "time": 127.5,
      "duration": 0.469,
      "velocity": 1,
      "hand": "right"
    },
    {
      "midi": 87,
      "time": 127.5,
      "duration": 1.719,
      "velocity": 1,
      "hand": "right"
    },
    {
      "midi": 88,
      "time": 127.5,
      "duration": 1.719,
      "velocity": 1,
      "hand": "right"
    },
    {
      "midi": 92,
      "time": 127.5,
      "duration": 1.719,
      "velocity": 1,
      "hand": "right"
    },
    {
      "midi": 76,
      "time": 127.656,
      "duration": 0.156,
      "velocity": 0.88,
      "hand": "right"
    },
    {
      "midi": 78,
      "time": 127.813,
      "duration": 0.156,
      "velocity": 0.88,
      "hand": "right"
    },
    {
      "midi": 80,
      "time": 127.969,
      "duration": 0.938,
      "velocity": 0.88,
      "hand": "right"
    },
    {
      "midi": 40,
      "time": 128.125,
      "duration": 0.313,
      "velocity": 0.88,
      "hand": "left"
    },
    {
      "midi": 52,
      "time": 128.125,
      "duration": 0.313,
      "velocity": 0.88,
      "hand": "left"
    },
    {
      "midi": 78,
      "time": 128.125,
      "duration": 0.156,
      "velocity": 0.88,
      "hand": "right"
    },
    {
      "midi": 76,
      "time": 128.281,
      "duration": 0.156,
      "velocity": 0.88,
      "hand": "right"
    },
    {
      "midi": 56,
      "time": 128.438,
      "duration": 0.938,
      "velocity": 0.88,
      "hand": "left"
    },
    {
      "midi": 59,
      "time": 128.438,
      "duration": 0.938,
      "velocity": 0.88,
      "hand": "left"
    },
    {
      "midi": 63,
      "time": 128.438,
      "duration": 0.938,
      "velocity": 0.88,
      "hand": "right"
    },
    {
      "midi": 75,
      "time": 128.438,
      "duration": 0.156,
      "velocity": 0.88,
      "hand": "right"
    },
    {
      "midi": 76,
      "time": 128.594,
      "duration": 0.156,
      "velocity": 0.88,
      "hand": "right"
    },
    {
      "midi": 78,
      "time": 128.75,
      "duration": 0.156,
      "velocity": 0.88,
      "hand": "right"
    },
    {
      "midi": 80,
      "time": 128.906,
      "duration": 0.313,
      "velocity": 0.88,
      "hand": "right"
    },
    {
      "midi": 78,
      "time": 129.063,
      "duration": 0.156,
      "velocity": 0.88,
      "hand": "right"
    },
    {
      "midi": 76,
      "time": 129.219,
      "duration": 0.156,
      "velocity": 0.88,
      "hand": "right"
    },
    {
      "midi": 71,
      "time": 129.375,
      "duration": 0.313,
      "velocity": 0.88,
      "hand": "right"
    },
    {
      "midi": 75,
      "time": 129.375,
      "duration": 0.156,
      "velocity": 0.88,
      "hand": "right"
    },
    {
      "midi": 76,
      "time": 129.531,
      "duration": 0.156,
      "velocity": 0.88,
      "hand": "right"
    },
    {
      "midi": 68,
      "time": 129.688,
      "duration": 0.313,
      "velocity": 0.88,
      "hand": "right"
    },
    {
      "midi": 71,
      "time": 129.688,
      "duration": 0.313,
      "velocity": 0.88,
      "hand": "right"
    },
    {
      "midi": 78,
      "time": 129.688,
      "duration": 0.156,
      "velocity": 0.88,
      "hand": "right"
    },
    {
      "midi": 80,
      "time": 129.844,
      "duration": 0.156,
      "velocity": 0.88,
      "hand": "right"
    },
    {
      "midi": 71,
      "time": 130,
      "duration": 0.313,
      "velocity": 0.88,
      "hand": "right"
    },
    {
      "midi": 78,
      "time": 130,
      "duration": 0.156,
      "velocity": 0.88,
      "hand": "right"
    },
    {
      "midi": 76,
      "time": 130.156,
      "duration": 0.156,
      "velocity": 0.88,
      "hand": "right"
    },
    {
      "midi": 63,
      "time": 130.313,
      "duration": 0.313,
      "velocity": 0.88,
      "hand": "right"
    },
    {
      "midi": 68,
      "time": 130.313,
      "duration": 0.313,
      "velocity": 0.88,
      "hand": "right"
    },
    {
      "midi": 75,
      "time": 130.313,
      "duration": 0.156,
      "velocity": 0.88,
      "hand": "right"
    },
    {
      "midi": 76,
      "time": 130.469,
      "duration": 0.156,
      "velocity": 0.88,
      "hand": "right"
    },
    {
      "midi": 59,
      "time": 130.625,
      "duration": 0.313,
      "velocity": 0.88,
      "hand": "left"
    },
    {
      "midi": 63,
      "time": 130.625,
      "duration": 0.313,
      "velocity": 0.88,
      "hand": "right"
    },
    {
      "midi": 78,
      "time": 130.625,
      "duration": 0.156,
      "velocity": 0.88,
      "hand": "right"
    },
    {
      "midi": 80,
      "time": 130.781,
      "duration": 0.156,
      "velocity": 0.88,
      "hand": "right"
    },
    {
      "midi": 63,
      "time": 130.938,
      "duration": 0.313,
      "velocity": 0.88,
      "hand": "right"
    },
    {
      "midi": 68,
      "time": 130.938,
      "duration": 0.313,
      "velocity": 0.88,
      "hand": "right"
    },
    {
      "midi": 78,
      "time": 130.938,
      "duration": 0.156,
      "velocity": 0.88,
      "hand": "right"
    },
    {
      "midi": 76,
      "time": 131.094,
      "duration": 0.156,
      "velocity": 0.88,
      "hand": "right"
    },
    {
      "midi": 28,
      "time": 131.25,
      "duration": 0.313,
      "velocity": 1,
      "hand": "left"
    },
    {
      "midi": 40,
      "time": 131.25,
      "duration": 0.313,
      "velocity": 1,
      "hand": "left"
    },
    {
      "midi": 75,
      "time": 131.25,
      "duration": 0.156,
      "velocity": 0.88,
      "hand": "right"
    },
    {
      "midi": 76,
      "time": 131.406,
      "duration": 0.156,
      "velocity": 0.88,
      "hand": "right"
    },
    {
      "midi": 78,
      "time": 131.563,
      "duration": 0.156,
      "velocity": 0.88,
      "hand": "right"
    },
    {
      "midi": 80,
      "time": 131.719,
      "duration": 0.156,
      "velocity": 0.88,
      "hand": "right"
    },
    {
      "midi": 40,
      "time": 131.875,
      "duration": 0.313,
      "velocity": 0.88,
      "hand": "left"
    },
    {
      "midi": 52,
      "time": 131.875,
      "duration": 0.313,
      "velocity": 0.88,
      "hand": "left"
    },
    {
      "midi": 78,
      "time": 131.875,
      "duration": 0.156,
      "velocity": 0.88,
      "hand": "right"
    },
    {
      "midi": 76,
      "time": 132.031,
      "duration": 0.156,
      "velocity": 0.88,
      "hand": "right"
    },
    {
      "midi": 56,
      "time": 132.188,
      "duration": 0.938,
      "velocity": 0.88,
      "hand": "left"
    },
    {
      "midi": 59,
      "time": 132.188,
      "duration": 0.938,
      "velocity": 0.88,
      "hand": "left"
    },
    {
      "midi": 63,
      "time": 132.188,
      "duration": 0.938,
      "velocity": 0.88,
      "hand": "right"
    },
    {
      "midi": 87,
      "time": 132.188,
      "duration": 0.938,
      "velocity": 1,
      "hand": "right"
    },
    {
      "midi": 76,
      "time": 132.344,
      "duration": 0.156,
      "velocity": 0.88,
      "hand": "right"
    },
    {
      "midi": 78,
      "time": 132.5,
      "duration": 0.156,
      "velocity": 0.88,
      "hand": "right"
    },
    {
      "midi": 80,
      "time": 132.656,
      "duration": 0.156,
      "velocity": 0.88,
      "hand": "right"
    },
    {
      "midi": 78,
      "time": 132.813,
      "duration": 0.156,
      "velocity": 0.88,
      "hand": "right"
    },
    {
      "midi": 76,
      "time": 132.969,
      "duration": 0.156,
      "velocity": 0.88,
      "hand": "right"
    },
    {
      "midi": 30,
      "time": 133.125,
      "duration": 0.313,
      "velocity": 1,
      "hand": "left"
    },
    {
      "midi": 42,
      "time": 133.125,
      "duration": 0.313,
      "velocity": 1,
      "hand": "left"
    },
    {
      "midi": 88,
      "time": 133.125,
      "duration": 0.938,
      "velocity": 1,
      "hand": "right"
    },
    {
      "midi": 76,
      "time": 133.281,
      "duration": 0.156,
      "velocity": 0.88,
      "hand": "right"
    },
    {
      "midi": 42,
      "time": 133.438,
      "duration": 0.313,
      "velocity": 0.88,
      "hand": "left"
    },
    {
      "midi": 54,
      "time": 133.438,
      "duration": 0.313,
      "velocity": 0.88,
      "hand": "left"
    },
    {
      "midi": 78,
      "time": 133.438,
      "duration": 0.156,
      "velocity": 0.88,
      "hand": "right"
    },
    {
      "midi": 80,
      "time": 133.594,
      "duration": 0.156,
      "velocity": 0.88,
      "hand": "right"
    },
    {
      "midi": 31,
      "time": 133.75,
      "duration": 0.313,
      "velocity": 0.88,
      "hand": "left"
    },
    {
      "midi": 43,
      "time": 133.75,
      "duration": 0.313,
      "velocity": 0.88,
      "hand": "left"
    },
    {
      "midi": 78,
      "time": 133.75,
      "duration": 0.156,
      "velocity": 0.88,
      "hand": "right"
    },
    {
      "midi": 76,
      "time": 133.906,
      "duration": 0.156,
      "velocity": 0.88,
      "hand": "right"
    },
    {
      "midi": 32,
      "time": 134.063,
      "duration": 0.313,
      "velocity": 1,
      "hand": "left"
    },
    {
      "midi": 44,
      "time": 134.063,
      "duration": 0.313,
      "velocity": 1,
      "hand": "left"
    },
    {
      "midi": 90,
      "time": 134.063,
      "duration": 0.938,
      "velocity": 1,
      "hand": "right"
    },
    {
      "midi": 76,
      "time": 134.219,
      "duration": 0.156,
      "velocity": 0.88,
      "hand": "right"
    },
    {
      "midi": 44,
      "time": 134.375,
      "duration": 0.313,
      "velocity": 0.88,
      "hand": "left"
    },
    {
      "midi": 56,
      "time": 134.375,
      "duration": 0.313,
      "velocity": 0.88,
      "hand": "left"
    },
    {
      "midi": 78,
      "time": 134.375,
      "duration": 0.156,
      "velocity": 0.88,
      "hand": "right"
    },
    {
      "midi": 80,
      "time": 134.531,
      "duration": 0.156,
      "velocity": 0.88,
      "hand": "right"
    },
    {
      "midi": 32,
      "time": 134.688,
      "duration": 0.313,
      "velocity": 0.88,
      "hand": "left"
    },
    {
      "midi": 44,
      "time": 134.688,
      "duration": 0.313,
      "velocity": 0.88,
      "hand": "left"
    },
    {
      "midi": 78,
      "time": 134.688,
      "duration": 0.156,
      "velocity": 0.88,
      "hand": "right"
    },
    {
      "midi": 76,
      "time": 134.844,
      "duration": 0.156,
      "velocity": 0.88,
      "hand": "right"
    },
    {
      "midi": 33,
      "time": 135,
      "duration": 0.313,
      "velocity": 1,
      "hand": "left"
    },
    {
      "midi": 45,
      "time": 135,
      "duration": 0.313,
      "velocity": 1,
      "hand": "left"
    },
    {
      "midi": 80,
      "time": 135,
      "duration": 0.078,
      "velocity": 0.88,
      "hand": "right"
    },
    {
      "midi": 80,
      "time": 135,
      "duration": 0.156,
      "velocity": 1,
      "hand": "right"
    },
    {
      "midi": 85,
      "time": 135,
      "duration": 0.469,
      "velocity": 1,
      "hand": "right"
    },
    {
      "midi": 88,
      "time": 135,
      "duration": 1.719,
      "velocity": 1,
      "hand": "right"
    },
    {
      "midi": 92,
      "time": 135,
      "duration": 1.719,
      "velocity": 1,
      "hand": "right"
    },
    {
      "midi": 80,
      "time": 135.156,
      "duration": 0.625,
      "velocity": 0.88,
      "hand": "right"
    },
    {
      "midi": 83,
      "time": 135.313,
      "duration": 0.156,
      "velocity": 0.88,
      "hand": "right"
    },
    {
      "midi": 85,
      "time": 135.469,
      "duration": 0.938,
      "velocity": 0.88,
      "hand": "right"
    },
    {
      "midi": 45,
      "time": 135.625,
      "duration": 0.313,
      "velocity": 0.88,
      "hand": "left"
    },
    {
      "midi": 57,
      "time": 135.625,
      "duration": 0.313,
      "velocity": 0.88,
      "hand": "left"
    },
    {
      "midi": 83,
      "time": 135.625,
      "duration": 0.156,
      "velocity": 0.88,
      "hand": "right"
    },
    {
      "midi": 80,
      "time": 135.781,
      "duration": 0.313,
      "velocity": 0.88,
      "hand": "right"
    },
    {
      "midi": 56,
      "time": 135.938,
      "duration": 0.938,
      "velocity": 0.88,
      "hand": "left"
    },
    {
      "midi": 61,
      "time": 135.938,
      "duration": 0.938,
      "velocity": 0.88,
      "hand": "right"
    },
    {
      "midi": 64,
      "time": 135.938,
      "duration": 0.938,
      "velocity": 0.88,
      "hand": "right"
    },
    {
      "midi": 78,
      "time": 135.938,
      "duration": 0.156,
      "velocity": 0.88,
      "hand": "right"
    },
    {
      "midi": 80,
      "time": 136.094,
      "duration": 0.625,
      "velocity": 0.88,
      "hand": "right"
    },
    {
      "midi": 83,
      "time": 136.25,
      "duration": 0.156,
      "velocity": 0.88,
      "hand": "right"
    },
    {
      "midi": 85,
      "time": 136.406,
      "duration": 0.313,
      "velocity": 0.88,
      "hand": "right"
    },
    {
      "midi": 83,
      "time": 136.563,
      "duration": 0.156,
      "velocity": 0.88,
      "hand": "right"
    },
    {
      "midi": 80,
      "time": 136.719,
      "duration": 0.156,
      "velocity": 0.88,
      "hand": "right"
    },
    {
      "midi": 73,
      "time": 136.875,
      "duration": 0.313,
      "velocity": 0.88,
      "hand": "right"
    },
    {
      "midi": 76,
      "time": 136.875,
      "duration": 0.313,
      "velocity": 0.88,
      "hand": "right"
    },
    {
      "midi": 78,
      "time": 136.875,
      "duration": 0.156,
      "velocity": 0.88,
      "hand": "right"
    },
    {
      "midi": 80,
      "time": 137.031,
      "duration": 0.156,
      "velocity": 0.88,
      "hand": "right"
    },
    {
      "midi": 68,
      "time": 137.188,
      "duration": 0.313,
      "velocity": 0.88,
      "hand": "right"
    },
    {
      "midi": 73,
      "time": 137.188,
      "duration": 0.313,
      "velocity": 0.88,
      "hand": "right"
    },
    {
      "midi": 83,
      "time": 137.188,
      "duration": 0.156,
      "velocity": 0.88,
      "hand": "right"
    },
    {
      "midi": 85,
      "time": 137.344,
      "duration": 0.156,
      "velocity": 0.88,
      "hand": "right"
    },
    {
      "midi": 73,
      "time": 137.5,
      "duration": 0.313,
      "velocity": 0.88,
      "hand": "right"
    },
    {
      "midi": 76,
      "time": 137.5,
      "duration": 0.313,
      "velocity": 0.88,
      "hand": "right"
    },
    {
      "midi": 83,
      "time": 137.5,
      "duration": 0.156,
      "velocity": 0.88,
      "hand": "right"
    },
    {
      "midi": 80,
      "time": 137.656,
      "duration": 0.156,
      "velocity": 0.88,
      "hand": "right"
    },
    {
      "midi": 64,
      "time": 137.813,
      "duration": 0.313,
      "velocity": 0.88,
      "hand": "right"
    },
    {
      "midi": 68,
      "time": 137.813,
      "duration": 0.313,
      "velocity": 0.88,
      "hand": "right"
    },
    {
      "midi": 78,
      "time": 137.813,
      "duration": 0.156,
      "velocity": 0.88,
      "hand": "right"
    },
    {
      "midi": 80,
      "time": 137.969,
      "duration": 0.156,
      "velocity": 0.88,
      "hand": "right"
    },
    {
      "midi": 61,
      "time": 138.125,
      "duration": 0.313,
      "velocity": 0.88,
      "hand": "right"
    },
    {
      "midi": 64,
      "time": 138.125,
      "duration": 0.313,
      "velocity": 0.88,
      "hand": "right"
    },
    {
      "midi": 83,
      "time": 138.125,
      "duration": 0.156,
      "velocity": 0.88,
      "hand": "right"
    },
    {
      "midi": 85,
      "time": 138.281,
      "duration": 0.156,
      "velocity": 0.88,
      "hand": "right"
    },
    {
      "midi": 64,
      "time": 138.438,
      "duration": 0.313,
      "velocity": 0.88,
      "hand": "right"
    },
    {
      "midi": 68,
      "time": 138.438,
      "duration": 0.313,
      "velocity": 0.88,
      "hand": "right"
    },
    {
      "midi": 83,
      "time": 138.438,
      "duration": 0.156,
      "velocity": 0.88,
      "hand": "right"
    },
    {
      "midi": 80,
      "time": 138.594,
      "duration": 0.156,
      "velocity": 0.88,
      "hand": "right"
    },
    {
      "midi": 33,
      "time": 138.75,
      "duration": 0.313,
      "velocity": 1,
      "hand": "left"
    },
    {
      "midi": 45,
      "time": 138.75,
      "duration": 0.313,
      "velocity": 1,
      "hand": "left"
    },
    {
      "midi": 73,
      "time": 138.75,
      "duration": 0.938,
      "velocity": 0.88,
      "hand": "right"
    },
    {
      "midi": 76,
      "time": 138.75,
      "duration": 0.938,
      "velocity": 0.88,
      "hand": "right"
    },
    {
      "midi": 80,
      "time": 138.75,
      "duration": 0.938,
      "velocity": 0.88,
      "hand": "right"
    },
    {
      "midi": 85,
      "time": 138.75,
      "duration": 0.938,
      "velocity": 0.88,
      "hand": "right"
    },
    {
      "midi": 45,
      "time": 139.219,
      "duration": 0.156,
      "velocity": 0.88,
      "hand": "left"
    },
    {
      "midi": 57,
      "time": 139.375,
      "duration": 0.156,
      "velocity": 0.88,
      "hand": "left"
    },
    {
      "midi": 45,
      "time": 139.531,
      "duration": 1.094,
      "velocity": 0.88,
      "hand": "left"
    },
    {
      "midi": 52,
      "time": 139.688,
      "duration": 0.938,
      "velocity": 0.88,
      "hand": "left"
    },
    {
      "midi": 56,
      "time": 139.688,
      "duration": 0.938,
      "velocity": 0.88,
      "hand": "left"
    },
    {
      "midi": 75,
      "time": 139.688,
      "duration": 0.938,
      "velocity": 0.88,
      "hand": "right"
    },
    {
      "midi": 80,
      "time": 139.688,
      "duration": 0.938,
      "velocity": 0.88,
      "hand": "right"
    },
    {
      "midi": 87,
      "time": 139.688,
      "duration": 0.938,
      "velocity": 0.88,
      "hand": "right"
    },
    {
      "midi": 45,
      "time": 140.625,
      "duration": 0.313,
      "velocity": 1,
      "hand": "left"
    },
    {
      "midi": 52,
      "time": 140.625,
      "duration": 0.313,
      "velocity": 1,
      "hand": "left"
    },
    {
      "midi": 83,
      "time": 140.625,
      "duration": 0.078,
      "velocity": 0.88,
      "hand": "right"
    },
    {
      "midi": 88,
      "time": 140.625,
      "duration": 0.078,
      "velocity": 0.88,
      "hand": "right"
    },
    {
      "midi": 95,
      "time": 140.625,
      "duration": 0.078,
      "velocity": 0.88,
      "hand": "right"
    },
    {
      "midi": 60,
      "time": 140.781,
      "duration": 0.156,
      "velocity": 1,
      "hand": "right"
    },
    {
      "midi": 83,
      "time": 140.781,
      "duration": 0.078,
      "velocity": 0.88,
      "hand": "right"
    },
    {
      "midi": 88,
      "time": 140.781,
      "duration": 0.078,
      "velocity": 0.88,
      "hand": "right"
    },
    {
      "midi": 95,
      "time": 140.781,
      "duration": 0.078,
      "velocity": 0.88,
      "hand": "right"
    },
    {
      "midi": 83,
      "time": 140.938,
      "duration": 0.078,
      "velocity": 0.88,
      "hand": "right"
    },
    {
      "midi": 88,
      "time": 140.938,
      "duration": 0.078,
      "velocity": 0.88,
      "hand": "right"
    },
    {
      "midi": 95,
      "time": 140.938,
      "duration": 0.078,
      "velocity": 0.88,
      "hand": "right"
    },
    {
      "midi": 45,
      "time": 141.094,
      "duration": 0.156,
      "velocity": 0.88,
      "hand": "left"
    },
    {
      "midi": 83,
      "time": 141.094,
      "duration": 0.078,
      "velocity": 0.88,
      "hand": "right"
    },
    {
      "midi": 88,
      "time": 141.094,
      "duration": 0.078,
      "velocity": 0.88,
      "hand": "right"
    },
    {
      "midi": 95,
      "time": 141.094,
      "duration": 0.078,
      "velocity": 0.88,
      "hand": "right"
    },
    {
      "midi": 52,
      "time": 141.25,
      "duration": 0.156,
      "velocity": 0.88,
      "hand": "left"
    },
    {
      "midi": 60,
      "time": 141.25,
      "duration": 0.156,
      "velocity": 0.88,
      "hand": "right"
    },
    {
      "midi": 83,
      "time": 141.25,
      "duration": 0.078,
      "velocity": 0.88,
      "hand": "right"
    },
    {
      "midi": 88,
      "time": 141.25,
      "duration": 0.078,
      "velocity": 0.88,
      "hand": "right"
    },
    {
      "midi": 95,
      "time": 141.25,
      "duration": 0.078,
      "velocity": 0.88,
      "hand": "right"
    },
    {
      "midi": 45,
      "time": 141.406,
      "duration": 0.156,
      "velocity": 0.88,
      "hand": "left"
    },
    {
      "midi": 83,
      "time": 141.406,
      "duration": 0.078,
      "velocity": 0.88,
      "hand": "right"
    },
    {
      "midi": 88,
      "time": 141.406,
      "duration": 0.078,
      "velocity": 0.88,
      "hand": "right"
    },
    {
      "midi": 95,
      "time": 141.406,
      "duration": 0.078,
      "velocity": 0.88,
      "hand": "right"
    },
    {
      "midi": 57,
      "time": 141.563,
      "duration": 0.313,
      "velocity": 0.88,
      "hand": "left"
    },
    {
      "midi": 60,
      "time": 141.563,
      "duration": 0.313,
      "velocity": 0.88,
      "hand": "right"
    },
    {
      "midi": 64,
      "time": 141.563,
      "duration": 0.313,
      "velocity": 0.88,
      "hand": "right"
    },
    {
      "midi": 69,
      "time": 141.563,
      "duration": 0.313,
      "velocity": 0.88,
      "hand": "right"
    },
    {
      "midi": 81,
      "time": 141.563,
      "duration": 0.078,
      "velocity": 0.88,
      "hand": "right"
    },
    {
      "midi": 90,
      "time": 141.563,
      "duration": 0.078,
      "velocity": 0.88,
      "hand": "right"
    },
    {
      "midi": 93,
      "time": 141.563,
      "duration": 0.078,
      "velocity": 0.88,
      "hand": "right"
    },
    {
      "midi": 81,
      "time": 141.719,
      "duration": 0.078,
      "velocity": 0.88,
      "hand": "right"
    },
    {
      "midi": 90,
      "time": 141.719,
      "duration": 0.078,
      "velocity": 0.88,
      "hand": "right"
    },
    {
      "midi": 93,
      "time": 141.719,
      "duration": 0.078,
      "velocity": 0.88,
      "hand": "right"
    },
    {
      "midi": 57,
      "time": 141.875,
      "duration": 0.313,
      "velocity": 0.88,
      "hand": "left"
    },
    {
      "midi": 60,
      "time": 141.875,
      "duration": 0.313,
      "velocity": 0.88,
      "hand": "right"
    },
    {
      "midi": 64,
      "time": 141.875,
      "duration": 0.313,
      "velocity": 0.88,
      "hand": "right"
    },
    {
      "midi": 81,
      "time": 141.875,
      "duration": 0.078,
      "velocity": 0.88,
      "hand": "right"
    },
    {
      "midi": 90,
      "time": 141.875,
      "duration": 0.078,
      "velocity": 0.88,
      "hand": "right"
    },
    {
      "midi": 93,
      "time": 141.875,
      "duration": 0.078,
      "velocity": 0.88,
      "hand": "right"
    },
    {
      "midi": 81,
      "time": 142.031,
      "duration": 0.078,
      "velocity": 0.88,
      "hand": "right"
    },
    {
      "midi": 90,
      "time": 142.031,
      "duration": 0.078,
      "velocity": 0.88,
      "hand": "right"
    },
    {
      "midi": 93,
      "time": 142.031,
      "duration": 0.078,
      "velocity": 0.88,
      "hand": "right"
    },
    {
      "midi": 54,
      "time": 142.188,
      "duration": 0.313,
      "velocity": 0.88,
      "hand": "left"
    },
    {
      "midi": 60,
      "time": 142.188,
      "duration": 0.313,
      "velocity": 0.88,
      "hand": "right"
    },
    {
      "midi": 64,
      "time": 142.188,
      "duration": 0.313,
      "velocity": 0.88,
      "hand": "right"
    },
    {
      "midi": 81,
      "time": 142.188,
      "duration": 0.078,
      "velocity": 0.88,
      "hand": "right"
    },
    {
      "midi": 90,
      "time": 142.188,
      "duration": 0.078,
      "velocity": 0.88,
      "hand": "right"
    },
    {
      "midi": 93,
      "time": 142.188,
      "duration": 0.078,
      "velocity": 0.88,
      "hand": "right"
    },
    {
      "midi": 81,
      "time": 142.344,
      "duration": 0.078,
      "velocity": 0.88,
      "hand": "right"
    },
    {
      "midi": 90,
      "time": 142.344,
      "duration": 0.078,
      "velocity": 0.88,
      "hand": "right"
    },
    {
      "midi": 93,
      "time": 142.344,
      "duration": 0.078,
      "velocity": 0.88,
      "hand": "right"
    },
    {
      "midi": 28,
      "time": 142.5,
      "duration": 0.313,
      "velocity": 1,
      "hand": "left"
    },
    {
      "midi": 40,
      "time": 142.5,
      "duration": 0.313,
      "velocity": 1,
      "hand": "left"
    },
    {
      "midi": 80,
      "time": 142.5,
      "duration": 0.078,
      "velocity": 0.88,
      "hand": "right"
    },
    {
      "midi": 80,
      "time": 142.5,
      "duration": 0.469,
      "velocity": 1,
      "hand": "right"
    },
    {
      "midi": 87,
      "time": 142.5,
      "duration": 1.719,
      "velocity": 1,
      "hand": "right"
    },
    {
      "midi": 88,
      "time": 142.5,
      "duration": 1.719,
      "velocity": 1,
      "hand": "right"
    },
    {
      "midi": 92,
      "time": 142.5,
      "duration": 1.719,
      "velocity": 1,
      "hand": "right"
    },
    {
      "midi": 76,
      "time": 142.656,
      "duration": 0.156,
      "velocity": 0.88,
      "hand": "right"
    },
    {
      "midi": 78,
      "time": 142.813,
      "duration": 0.156,
      "velocity": 0.88,
      "hand": "right"
    },
    {
      "midi": 80,
      "time": 142.969,
      "duration": 0.938,
      "velocity": 0.88,
      "hand": "right"
    },
    {
      "midi": 40,
      "time": 143.125,
      "duration": 0.313,
      "velocity": 0.88,
      "hand": "left"
    },
    {
      "midi": 52,
      "time": 143.125,
      "duration": 0.313,
      "velocity": 0.88,
      "hand": "left"
    },
    {
      "midi": 78,
      "time": 143.125,
      "duration": 0.156,
      "velocity": 0.88,
      "hand": "right"
    },
    {
      "midi": 76,
      "time": 143.281,
      "duration": 0.156,
      "velocity": 0.88,
      "hand": "right"
    },
    {
      "midi": 56,
      "time": 143.438,
      "duration": 0.938,
      "velocity": 0.88,
      "hand": "left"
    },
    {
      "midi": 59,
      "time": 143.438,
      "duration": 0.938,
      "velocity": 0.88,
      "hand": "left"
    },
    {
      "midi": 63,
      "time": 143.438,
      "duration": 0.938,
      "velocity": 0.88,
      "hand": "right"
    },
    {
      "midi": 75,
      "time": 143.438,
      "duration": 0.156,
      "velocity": 0.88,
      "hand": "right"
    },
    {
      "midi": 76,
      "time": 143.594,
      "duration": 0.156,
      "velocity": 0.88,
      "hand": "right"
    },
    {
      "midi": 78,
      "time": 143.75,
      "duration": 0.156,
      "velocity": 0.88,
      "hand": "right"
    },
    {
      "midi": 80,
      "time": 143.906,
      "duration": 0.313,
      "velocity": 0.88,
      "hand": "right"
    },
    {
      "midi": 78,
      "time": 144.063,
      "duration": 0.156,
      "velocity": 0.88,
      "hand": "right"
    },
    {
      "midi": 76,
      "time": 144.219,
      "duration": 0.156,
      "velocity": 0.88,
      "hand": "right"
    },
    {
      "midi": 71,
      "time": 144.375,
      "duration": 0.313,
      "velocity": 0.88,
      "hand": "right"
    },
    {
      "midi": 75,
      "time": 144.375,
      "duration": 0.156,
      "velocity": 0.88,
      "hand": "right"
    },
    {
      "midi": 76,
      "time": 144.531,
      "duration": 0.156,
      "velocity": 0.88,
      "hand": "right"
    },
    {
      "midi": 68,
      "time": 144.688,
      "duration": 0.313,
      "velocity": 0.88,
      "hand": "right"
    },
    {
      "midi": 71,
      "time": 144.688,
      "duration": 0.313,
      "velocity": 0.88,
      "hand": "right"
    },
    {
      "midi": 78,
      "time": 144.688,
      "duration": 0.156,
      "velocity": 0.88,
      "hand": "right"
    },
    {
      "midi": 80,
      "time": 144.844,
      "duration": 0.156,
      "velocity": 0.88,
      "hand": "right"
    },
    {
      "midi": 71,
      "time": 145,
      "duration": 0.313,
      "velocity": 0.88,
      "hand": "right"
    },
    {
      "midi": 78,
      "time": 145,
      "duration": 0.156,
      "velocity": 0.88,
      "hand": "right"
    },
    {
      "midi": 76,
      "time": 145.156,
      "duration": 0.156,
      "velocity": 0.88,
      "hand": "right"
    },
    {
      "midi": 63,
      "time": 145.313,
      "duration": 0.313,
      "velocity": 0.88,
      "hand": "right"
    },
    {
      "midi": 68,
      "time": 145.313,
      "duration": 0.313,
      "velocity": 0.88,
      "hand": "right"
    },
    {
      "midi": 75,
      "time": 145.313,
      "duration": 0.156,
      "velocity": 0.88,
      "hand": "right"
    },
    {
      "midi": 76,
      "time": 145.469,
      "duration": 0.156,
      "velocity": 0.88,
      "hand": "right"
    },
    {
      "midi": 59,
      "time": 145.625,
      "duration": 0.313,
      "velocity": 0.88,
      "hand": "left"
    },
    {
      "midi": 63,
      "time": 145.625,
      "duration": 0.313,
      "velocity": 0.88,
      "hand": "right"
    },
    {
      "midi": 78,
      "time": 145.625,
      "duration": 0.156,
      "velocity": 0.88,
      "hand": "right"
    },
    {
      "midi": 80,
      "time": 145.781,
      "duration": 0.156,
      "velocity": 0.88,
      "hand": "right"
    },
    {
      "midi": 63,
      "time": 145.938,
      "duration": 0.313,
      "velocity": 0.88,
      "hand": "right"
    },
    {
      "midi": 68,
      "time": 145.938,
      "duration": 0.313,
      "velocity": 0.88,
      "hand": "right"
    },
    {
      "midi": 78,
      "time": 145.938,
      "duration": 0.156,
      "velocity": 0.88,
      "hand": "right"
    },
    {
      "midi": 76,
      "time": 146.094,
      "duration": 0.156,
      "velocity": 0.88,
      "hand": "right"
    },
    {
      "midi": 28,
      "time": 146.25,
      "duration": 0.313,
      "velocity": 1,
      "hand": "left"
    },
    {
      "midi": 40,
      "time": 146.25,
      "duration": 0.313,
      "velocity": 1,
      "hand": "left"
    },
    {
      "midi": 75,
      "time": 146.25,
      "duration": 0.156,
      "velocity": 0.88,
      "hand": "right"
    },
    {
      "midi": 76,
      "time": 146.406,
      "duration": 0.156,
      "velocity": 0.87,
      "hand": "right"
    },
    {
      "midi": 28,
      "time": 146.563,
      "duration": 0.313,
      "velocity": 0.84,
      "hand": "left"
    },
    {
      "midi": 40,
      "time": 146.563,
      "duration": 0.313,
      "velocity": 0.84,
      "hand": "left"
    },
    {
      "midi": 78,
      "time": 146.563,
      "duration": 0.156,
      "velocity": 0.84,
      "hand": "right"
    },
    {
      "midi": 80,
      "time": 146.719,
      "duration": 0.156,
      "velocity": 0.83,
      "hand": "right"
    },
    {
      "midi": 40,
      "time": 146.875,
      "duration": 0.313,
      "velocity": 0.8,
      "hand": "left"
    },
    {
      "midi": 52,
      "time": 146.875,
      "duration": 0.313,
      "velocity": 0.8,
      "hand": "left"
    },
    {
      "midi": 78,
      "time": 146.875,
      "duration": 0.156,
      "velocity": 0.8,
      "hand": "right"
    },
    {
      "midi": 76,
      "time": 147.031,
      "duration": 0.156,
      "velocity": 0.78,
      "hand": "right"
    },
    {
      "midi": 56,
      "time": 147.188,
      "duration": 0.938,
      "velocity": 0.76,
      "hand": "left"
    },
    {
      "midi": 59,
      "time": 147.188,
      "duration": 0.938,
      "velocity": 0.76,
      "hand": "left"
    },
    {
      "midi": 63,
      "time": 147.188,
      "duration": 0.938,
      "velocity": 0.76,
      "hand": "right"
    },
    {
      "midi": 75,
      "time": 147.188,
      "duration": 0.156,
      "velocity": 0.76,
      "hand": "right"
    },
    {
      "midi": 76,
      "time": 147.344,
      "duration": 0.156,
      "velocity": 0.74,
      "hand": "right"
    },
    {
      "midi": 78,
      "time": 147.5,
      "duration": 0.156,
      "velocity": 0.72,
      "hand": "right"
    },
    {
      "midi": 80,
      "time": 147.656,
      "duration": 0.156,
      "velocity": 0.7,
      "hand": "right"
    },
    {
      "midi": 78,
      "time": 147.813,
      "duration": 0.156,
      "velocity": 0.68,
      "hand": "right"
    },
    {
      "midi": 76,
      "time": 147.969,
      "duration": 0.156,
      "velocity": 0.66,
      "hand": "right"
    },
    {
      "midi": 30,
      "time": 148.125,
      "duration": 0.469,
      "velocity": 0.76,
      "hand": "left"
    },
    {
      "midi": 42,
      "time": 148.125,
      "duration": 0.469,
      "velocity": 0.76,
      "hand": "left"
    },
    {
      "midi": 88,
      "time": 148.125,
      "duration": 0.938,
      "velocity": 0.76,
      "hand": "right"
    },
    {
      "midi": 76,
      "time": 148.281,
      "duration": 0.156,
      "velocity": 0.61,
      "hand": "right"
    },
    {
      "midi": 78,
      "time": 148.438,
      "duration": 0.156,
      "velocity": 0.6,
      "hand": "right"
    },
    {
      "midi": 42,
      "time": 148.594,
      "duration": 0.469,
      "velocity": 0.57,
      "hand": "left"
    },
    {
      "midi": 45,
      "time": 148.594,
      "duration": 0.469,
      "velocity": 0.57,
      "hand": "left"
    },
    {
      "midi": 49,
      "time": 148.594,
      "duration": 0.469,
      "velocity": 0.57,
      "hand": "left"
    },
    {
      "midi": 54,
      "time": 148.594,
      "duration": 0.469,
      "velocity": 0.57,
      "hand": "left"
    },
    {
      "midi": 80,
      "time": 148.594,
      "duration": 0.156,
      "velocity": 0.57,
      "hand": "right"
    },
    {
      "midi": 78,
      "time": 148.75,
      "duration": 0.156,
      "velocity": 0.55,
      "hand": "right"
    },
    {
      "midi": 76,
      "time": 148.906,
      "duration": 0.156,
      "velocity": 0.54,
      "hand": "right"
    },
    {
      "midi": 32,
      "time": 149.063,
      "duration": 0.469,
      "velocity": 0.61,
      "hand": "left"
    },
    {
      "midi": 44,
      "time": 149.063,
      "duration": 0.469,
      "velocity": 0.61,
      "hand": "left"
    },
    {
      "midi": 90,
      "time": 149.063,
      "duration": 0.938,
      "velocity": 0.61,
      "hand": "right"
    },
    {
      "midi": 76,
      "time": 149.219,
      "duration": 0.156,
      "velocity": 0.5,
      "hand": "right"
    },
    {
      "midi": 78,
      "time": 149.375,
      "duration": 0.156,
      "velocity": 0.47,
      "hand": "right"
    },
    {
      "midi": 44,
      "time": 149.531,
      "duration": 0.469,
      "velocity": 0.45,
      "hand": "left"
    },
    {
      "midi": 51,
      "time": 149.531,
      "duration": 0.469,
      "velocity": 0.45,
      "hand": "left"
    },
    {
      "midi": 54,
      "time": 149.531,
      "duration": 0.469,
      "velocity": 0.45,
      "hand": "left"
    },
    {
      "midi": 56,
      "time": 149.531,
      "duration": 0.469,
      "velocity": 0.45,
      "hand": "left"
    },
    {
      "midi": 80,
      "time": 149.531,
      "duration": 0.156,
      "velocity": 0.45,
      "hand": "right"
    },
    {
      "midi": 78,
      "time": 149.688,
      "duration": 0.156,
      "velocity": 0.43,
      "hand": "right"
    },
    {
      "midi": 76,
      "time": 149.844,
      "duration": 0.156,
      "velocity": 0.41,
      "hand": "right"
    },
    {
      "midi": 45,
      "time": 150,
      "duration": 0.156,
      "velocity": 0.39,
      "hand": "left"
    },
    {
      "midi": 80,
      "time": 150,
      "duration": 3.594,
      "velocity": 0.39,
      "hand": "right"
    },
    {
      "midi": 85,
      "time": 150,
      "duration": 3.594,
      "velocity": 0.39,
      "hand": "right"
    },
    {
      "midi": 88,
      "time": 150,
      "duration": 3.594,
      "velocity": 0.39,
      "hand": "right"
    },
    {
      "midi": 49,
      "time": 150.156,
      "duration": 0.156,
      "velocity": 0.39,
      "hand": "left"
    },
    {
      "midi": 92,
      "time": 150.156,
      "duration": 3.594,
      "velocity": 0.39,
      "hand": "right"
    },
    {
      "midi": 52,
      "time": 150.313,
      "duration": 0.156,
      "velocity": 0.39,
      "hand": "left"
    },
    {
      "midi": 56,
      "time": 150.469,
      "duration": 0.156,
      "velocity": 0.39,
      "hand": "left"
    },
    {
      "midi": 61,
      "time": 150.625,
      "duration": 0.156,
      "velocity": 0.39,
      "hand": "right"
    },
    {
      "midi": 64,
      "time": 150.781,
      "duration": 0.156,
      "velocity": 0.39,
      "hand": "right"
    },
    {
      "midi": 57,
      "time": 150.938,
      "duration": 2.656,
      "velocity": 0.39,
      "hand": "left"
    },
    {
      "midi": 61,
      "time": 150.938,
      "duration": 2.656,
      "velocity": 0.39,
      "hand": "right"
    },
    {
      "midi": 64,
      "time": 150.938,
      "duration": 2.656,
      "velocity": 0.39,
      "hand": "right"
    },
    {
      "midi": 68,
      "time": 150.938,
      "duration": 2.656,
      "velocity": 0.39,
      "hand": "right"
    },
    {
      "midi": 45,
      "time": 153.75,
      "duration": 1.719,
      "velocity": 0.39,
      "hand": "left"
    },
    {
      "midi": 57,
      "time": 153.75,
      "duration": 1.719,
      "velocity": 0.39,
      "hand": "left"
    },
    {
      "midi": 73,
      "time": 153.75,
      "duration": 0.938,
      "velocity": 0.39,
      "hand": "right"
    },
    {
      "midi": 85,
      "time": 153.75,
      "duration": 0.938,
      "velocity": 0.39,
      "hand": "right"
    },
    {
      "midi": 75,
      "time": 154.688,
      "duration": 0.938,
      "velocity": 0.39,
      "hand": "right"
    },
    {
      "midi": 87,
      "time": 154.688,
      "duration": 0.938,
      "velocity": 0.39,
      "hand": "right"
    },
    {
      "midi": 52,
      "time": 155.625,
      "duration": 1.875,
      "velocity": 0.39,
      "hand": "left"
    },
    {
      "midi": 54,
      "time": 155.625,
      "duration": 1.875,
      "velocity": 0.39,
      "hand": "left"
    },
    {
      "midi": 83,
      "time": 155.625,
      "duration": 0.938,
      "velocity": 0.39,
      "hand": "right"
    },
    {
      "midi": 95,
      "time": 155.625,
      "duration": 0.938,
      "velocity": 0.39,
      "hand": "right"
    },
    {
      "midi": 57,
      "time": 155.781,
      "duration": 1.719,
      "velocity": 0.39,
      "hand": "left"
    },
    {
      "midi": 60,
      "time": 155.781,
      "duration": 1.719,
      "velocity": 0.39,
      "hand": "right"
    },
    {
      "midi": 81,
      "time": 156.563,
      "duration": 0.938,
      "velocity": 0.39,
      "hand": "right"
    },
    {
      "midi": 93,
      "time": 156.563,
      "duration": 0.938,
      "velocity": 0.39,
      "hand": "right"
    },
    {
      "midi": 40,
      "time": 157.5,
      "duration": 1.719,
      "velocity": 0.39,
      "hand": "left"
    },
    {
      "midi": 52,
      "time": 157.5,
      "duration": 1.719,
      "velocity": 0.39,
      "hand": "left"
    },
    {
      "midi": 80,
      "time": 157.5,
      "duration": 3.594,
      "velocity": 0.39,
      "hand": "right"
    },
    {
      "midi": 92,
      "time": 157.5,
      "duration": 3.594,
      "velocity": 0.39,
      "hand": "right"
    },
    {
      "midi": 52,
      "time": 159.375,
      "duration": 1.719,
      "velocity": 0.39,
      "hand": "left"
    },
    {
      "midi": 56,
      "time": 159.375,
      "duration": 1.719,
      "velocity": 0.39,
      "hand": "left"
    },
    {
      "midi": 59,
      "time": 159.375,
      "duration": 1.719,
      "velocity": 0.39,
      "hand": "left"
    },
    {
      "midi": 63,
      "time": 159.375,
      "duration": 1.719,
      "velocity": 0.39,
      "hand": "right"
    },
    {
      "midi": 40,
      "time": 161.25,
      "duration": 1.719,
      "velocity": 0.39,
      "hand": "left"
    },
    {
      "midi": 52,
      "time": 161.25,
      "duration": 1.719,
      "velocity": 0.39,
      "hand": "left"
    },
    {
      "midi": 75,
      "time": 162.188,
      "duration": 0.938,
      "velocity": 0.39,
      "hand": "right"
    },
    {
      "midi": 87,
      "time": 162.188,
      "duration": 0.938,
      "velocity": 0.39,
      "hand": "right"
    },
    {
      "midi": 52,
      "time": 163.125,
      "duration": 1.719,
      "velocity": 0.39,
      "hand": "left"
    },
    {
      "midi": 56,
      "time": 163.125,
      "duration": 1.719,
      "velocity": 0.39,
      "hand": "left"
    },
    {
      "midi": 59,
      "time": 163.125,
      "duration": 1.719,
      "velocity": 0.39,
      "hand": "left"
    },
    {
      "midi": 62,
      "time": 163.125,
      "duration": 1.719,
      "velocity": 0.39,
      "hand": "right"
    },
    {
      "midi": 76,
      "time": 163.125,
      "duration": 0.938,
      "velocity": 0.39,
      "hand": "right"
    },
    {
      "midi": 88,
      "time": 163.125,
      "duration": 0.938,
      "velocity": 0.39,
      "hand": "right"
    },
    {
      "midi": 78,
      "time": 164.063,
      "duration": 0.938,
      "velocity": 0.39,
      "hand": "right"
    },
    {
      "midi": 90,
      "time": 164.063,
      "duration": 0.938,
      "velocity": 0.39,
      "hand": "right"
    },
    {
      "midi": 45,
      "time": 165,
      "duration": 1.719,
      "velocity": 0.39,
      "hand": "left"
    },
    {
      "midi": 57,
      "time": 165,
      "duration": 1.719,
      "velocity": 0.39,
      "hand": "left"
    },
    {
      "midi": 80,
      "time": 165,
      "duration": 3.594,
      "velocity": 0.39,
      "hand": "right"
    },
    {
      "midi": 85,
      "time": 165,
      "duration": 3.594,
      "velocity": 0.39,
      "hand": "right"
    },
    {
      "midi": 88,
      "time": 165,
      "duration": 3.594,
      "velocity": 0.39,
      "hand": "right"
    },
    {
      "midi": 92,
      "time": 165.156,
      "duration": 3.594,
      "velocity": 0.39,
      "hand": "right"
    },
    {
      "midi": 57,
      "time": 166.875,
      "duration": 1.719,
      "velocity": 0.39,
      "hand": "left"
    },
    {
      "midi": 61,
      "time": 166.875,
      "duration": 1.719,
      "velocity": 0.39,
      "hand": "right"
    },
    {
      "midi": 64,
      "time": 166.875,
      "duration": 1.719,
      "velocity": 0.39,
      "hand": "right"
    },
    {
      "midi": 68,
      "time": 166.875,
      "duration": 1.719,
      "velocity": 0.39,
      "hand": "right"
    },
    {
      "midi": 45,
      "time": 168.75,
      "duration": 1.719,
      "velocity": 0.39,
      "hand": "left"
    },
    {
      "midi": 57,
      "time": 168.75,
      "duration": 1.719,
      "velocity": 0.39,
      "hand": "left"
    },
    {
      "midi": 73,
      "time": 168.75,
      "duration": 0.938,
      "velocity": 0.39,
      "hand": "right"
    },
    {
      "midi": 85,
      "time": 168.75,
      "duration": 0.938,
      "velocity": 0.39,
      "hand": "right"
    },
    {
      "midi": 75,
      "time": 169.688,
      "duration": 0.938,
      "velocity": 0.39,
      "hand": "right"
    },
    {
      "midi": 87,
      "time": 169.688,
      "duration": 0.938,
      "velocity": 0.39,
      "hand": "right"
    },
    {
      "midi": 52,
      "time": 170.625,
      "duration": 1.875,
      "velocity": 0.39,
      "hand": "left"
    },
    {
      "midi": 54,
      "time": 170.625,
      "duration": 1.719,
      "velocity": 0.39,
      "hand": "left"
    },
    {
      "midi": 59,
      "time": 170.625,
      "duration": 0.938,
      "velocity": 0.39,
      "hand": "left"
    },
    {
      "midi": 83,
      "time": 170.625,
      "duration": 0.938,
      "velocity": 0.39,
      "hand": "right"
    },
    {
      "midi": 95,
      "time": 170.625,
      "duration": 0.938,
      "velocity": 0.39,
      "hand": "right"
    },
    {
      "midi": 60,
      "time": 170.781,
      "duration": 1.719,
      "velocity": 0.39,
      "hand": "right"
    },
    {
      "midi": 57,
      "time": 171.563,
      "duration": 0.938,
      "velocity": 0.39,
      "hand": "left"
    },
    {
      "midi": 81,
      "time": 171.563,
      "duration": 0.938,
      "velocity": 0.39,
      "hand": "right"
    },
    {
      "midi": 93,
      "time": 171.563,
      "duration": 0.938,
      "velocity": 0.39,
      "hand": "right"
    },
    {
      "midi": 40,
      "time": 172.5,
      "duration": 1.719,
      "velocity": 0.39,
      "hand": "left"
    },
    {
      "midi": 52,
      "time": 172.5,
      "duration": 1.719,
      "velocity": 0.39,
      "hand": "left"
    },
    {
      "midi": 80,
      "time": 172.5,
      "duration": 3.594,
      "velocity": 0.39,
      "hand": "right"
    },
    {
      "midi": 83,
      "time": 172.5,
      "duration": 3.594,
      "velocity": 0.39,
      "hand": "right"
    },
    {
      "midi": 88,
      "time": 172.5,
      "duration": 3.594,
      "velocity": 0.39,
      "hand": "right"
    },
    {
      "midi": 92,
      "time": 172.656,
      "duration": 3.594,
      "velocity": 0.39,
      "hand": "right"
    },
    {
      "midi": 52,
      "time": 174.375,
      "duration": 1.719,
      "velocity": 0.39,
      "hand": "left"
    },
    {
      "midi": 56,
      "time": 174.375,
      "duration": 1.719,
      "velocity": 0.39,
      "hand": "left"
    },
    {
      "midi": 59,
      "time": 174.375,
      "duration": 1.719,
      "velocity": 0.39,
      "hand": "left"
    },
    {
      "midi": 63,
      "time": 174.375,
      "duration": 1.719,
      "velocity": 0.39,
      "hand": "right"
    },
    {
      "midi": 40,
      "time": 176.25,
      "duration": 1.719,
      "velocity": 0.39,
      "hand": "left"
    },
    {
      "midi": 52,
      "time": 176.25,
      "duration": 1.719,
      "velocity": 0.39,
      "hand": "left"
    },
    {
      "midi": 52,
      "time": 178.125,
      "duration": 1.719,
      "velocity": 0.44,
      "hand": "left"
    },
    {
      "midi": 56,
      "time": 178.125,
      "duration": 1.719,
      "velocity": 0.44,
      "hand": "left"
    },
    {
      "midi": 59,
      "time": 178.125,
      "duration": 1.719,
      "velocity": 0.44,
      "hand": "left"
    },
    {
      "midi": 62,
      "time": 178.125,
      "duration": 1.719,
      "velocity": 0.44,
      "hand": "right"
    },
    {
      "midi": 57,
      "time": 180,
      "duration": 3.594,
      "velocity": 0.5,
      "hand": "left"
    },
    {
      "midi": 61,
      "time": 180,
      "duration": 3.594,
      "velocity": 0.5,
      "hand": "right"
    },
    {
      "midi": 64,
      "time": 180,
      "duration": 3.594,
      "velocity": 0.5,
      "hand": "right"
    },
    {
      "midi": 80,
      "time": 180,
      "duration": 0.938,
      "velocity": 0.5,
      "hand": "right"
    },
    {
      "midi": 92,
      "time": 180,
      "duration": 0.938,
      "velocity": 0.5,
      "hand": "right"
    },
    {
      "midi": 76,
      "time": 180.938,
      "duration": 0.938,
      "velocity": 0.5,
      "hand": "right"
    },
    {
      "midi": 88,
      "time": 180.938,
      "duration": 0.938,
      "velocity": 0.5,
      "hand": "right"
    },
    {
      "midi": 68,
      "time": 181.875,
      "duration": 1.719,
      "velocity": 0.5,
      "hand": "right"
    },
    {
      "midi": 73,
      "time": 181.875,
      "duration": 1.875,
      "velocity": 0.5,
      "hand": "right"
    },
    {
      "midi": 85,
      "time": 181.875,
      "duration": 1.875,
      "velocity": 0.5,
      "hand": "right"
    },
    {
      "midi": 56,
      "time": 183.75,
      "duration": 3.594,
      "velocity": 0.5,
      "hand": "left"
    },
    {
      "midi": 59,
      "time": 183.75,
      "duration": 3.594,
      "velocity": 0.5,
      "hand": "left"
    },
    {
      "midi": 63,
      "time": 183.75,
      "duration": 3.594,
      "velocity": 0.5,
      "hand": "right"
    },
    {
      "midi": 80,
      "time": 183.75,
      "duration": 0.938,
      "velocity": 0.5,
      "hand": "right"
    },
    {
      "midi": 92,
      "time": 183.75,
      "duration": 0.938,
      "velocity": 0.5,
      "hand": "right"
    },
    {
      "midi": 75,
      "time": 184.688,
      "duration": 0.938,
      "velocity": 0.5,
      "hand": "right"
    },
    {
      "midi": 87,
      "time": 184.688,
      "duration": 0.938,
      "velocity": 0.5,
      "hand": "right"
    },
    {
      "midi": 66,
      "time": 185.625,
      "duration": 1.719,
      "velocity": 0.5,
      "hand": "right"
    },
    {
      "midi": 71,
      "time": 185.625,
      "duration": 1.875,
      "velocity": 0.5,
      "hand": "right"
    },
    {
      "midi": 83,
      "time": 185.625,
      "duration": 1.875,
      "velocity": 0.5,
      "hand": "right"
    },
    {
      "midi": 55,
      "time": 187.5,
      "duration": 3.594,
      "velocity": 0.5,
      "hand": "left"
    },
    {
      "midi": 59,
      "time": 187.5,
      "duration": 3.594,
      "velocity": 0.5,
      "hand": "left"
    },
    {
      "midi": 62,
      "time": 187.5,
      "duration": 3.594,
      "velocity": 0.5,
      "hand": "right"
    },
    {
      "midi": 78,
      "time": 187.5,
      "duration": 0.938,
      "velocity": 0.5,
      "hand": "right"
    },
    {
      "midi": 90,
      "time": 187.5,
      "duration": 0.938,
      "velocity": 0.5,
      "hand": "right"
    },
    {
      "midi": 74,
      "time": 188.438,
      "duration": 0.938,
      "velocity": 0.5,
      "hand": "right"
    },
    {
      "midi": 86,
      "time": 188.438,
      "duration": 0.938,
      "velocity": 0.5,
      "hand": "right"
    },
    {
      "midi": 66,
      "time": 189.375,
      "duration": 1.719,
      "velocity": 0.5,
      "hand": "right"
    },
    {
      "midi": 73,
      "time": 189.375,
      "duration": 0.938,
      "velocity": 0.5,
      "hand": "right"
    },
    {
      "midi": 85,
      "time": 189.375,
      "duration": 0.938,
      "velocity": 0.5,
      "hand": "right"
    },
    {
      "midi": 69,
      "time": 190.313,
      "duration": 0.938,
      "velocity": 0.5,
      "hand": "right"
    },
    {
      "midi": 81,
      "time": 190.313,
      "duration": 0.938,
      "velocity": 0.5,
      "hand": "right"
    },
    {
      "midi": 57,
      "time": 191.25,
      "duration": 3.594,
      "velocity": 0.5,
      "hand": "left"
    },
    {
      "midi": 61,
      "time": 191.25,
      "duration": 3.594,
      "velocity": 0.5,
      "hand": "right"
    },
    {
      "midi": 64,
      "time": 191.25,
      "duration": 3.594,
      "velocity": 0.5,
      "hand": "right"
    },
    {
      "midi": 78,
      "time": 191.25,
      "duration": 0.938,
      "velocity": 0.5,
      "hand": "right"
    },
    {
      "midi": 90,
      "time": 191.25,
      "duration": 0.938,
      "velocity": 0.5,
      "hand": "right"
    },
    {
      "midi": 74,
      "time": 192.188,
      "duration": 0.938,
      "velocity": 0.5,
      "hand": "right"
    },
    {
      "midi": 86,
      "time": 192.188,
      "duration": 0.938,
      "velocity": 0.5,
      "hand": "right"
    },
    {
      "midi": 68,
      "time": 193.125,
      "duration": 1.719,
      "velocity": 0.5,
      "hand": "right"
    },
    {
      "midi": 73,
      "time": 193.125,
      "duration": 1.875,
      "velocity": 0.5,
      "hand": "right"
    },
    {
      "midi": 85,
      "time": 193.125,
      "duration": 1.875,
      "velocity": 0.5,
      "hand": "right"
    },
    {
      "midi": 52,
      "time": 195,
      "duration": 3.75,
      "velocity": 0.5,
      "hand": "left"
    },
    {
      "midi": 55,
      "time": 195,
      "duration": 3.75,
      "velocity": 0.5,
      "hand": "left"
    },
    {
      "midi": 59,
      "time": 195,
      "duration": 3.75,
      "velocity": 0.5,
      "hand": "left"
    },
    {
      "midi": 76,
      "time": 195,
      "duration": 0.938,
      "velocity": 0.5,
      "hand": "right"
    },
    {
      "midi": 88,
      "time": 195,
      "duration": 0.938,
      "velocity": 0.5,
      "hand": "right"
    },
    {
      "midi": 71,
      "time": 195.938,
      "duration": 0.938,
      "velocity": 0.5,
      "hand": "right"
    },
    {
      "midi": 83,
      "time": 195.938,
      "duration": 0.938,
      "velocity": 0.5,
      "hand": "right"
    },
    {
      "midi": 64,
      "time": 196.875,
      "duration": 2.031,
      "velocity": 0.5,
      "hand": "right"
    },
    {
      "midi": 76,
      "time": 196.875,
      "duration": 0.938,
      "velocity": 0.5,
      "hand": "right"
    },
    {
      "midi": 88,
      "time": 196.875,
      "duration": 0.938,
      "velocity": 0.5,
      "hand": "right"
    },
    {
      "midi": 79,
      "time": 197.813,
      "duration": 1.094,
      "velocity": 0.5,
      "hand": "right"
    },
    {
      "midi": 91,
      "time": 197.969,
      "duration": 1.094,
      "velocity": 0.5,
      "hand": "right"
    },
    {
      "midi": 54,
      "time": 198.906,
      "duration": 9.688,
      "velocity": 0.5,
      "hand": "left"
    },
    {
      "midi": 58,
      "time": 198.906,
      "duration": 9.688,
      "velocity": 0.5,
      "hand": "left"
    },
    {
      "midi": 61,
      "time": 198.906,
      "duration": 1.25,
      "velocity": 0.5,
      "hand": "right"
    },
    {
      "midi": 78,
      "time": 198.906,
      "duration": 0.781,
      "velocity": 0.5,
      "hand": "right"
    },
    {
      "midi": 90,
      "time": 199.063,
      "duration": 0.781,
      "velocity": 0.5,
      "hand": "right"
    },
    {
      "midi": 70,
      "time": 199.844,
      "duration": 0.313,
      "velocity": 0.5,
      "hand": "right"
    },
    {
      "midi": 61,
      "time": 200.156,
      "duration": 8.594,
      "velocity": 0.5,
      "hand": "right"
    },
    {
      "midi": 66,
      "time": 200.625,
      "duration": 0.469,
      "velocity": 0.5,
      "hand": "right"
    },
    {
      "midi": 70,
      "time": 201.094,
      "duration": 0.469,
      "velocity": 0.5,
      "hand": "right"
    },
    {
      "midi": 66,
      "time": 201.563,
      "duration": 7.5,
      "velocity": 0.5,
      "hand": "right"
    },
    {
      "midi": 78,
      "time": 201.563,
      "duration": 0.469,
      "velocity": 0.5,
      "hand": "right"
    },
    {
      "midi": 73,
      "time": 201.875,
      "duration": 0.469,
      "velocity": 0.5,
      "hand": "right"
    },
    {
      "midi": 82,
      "time": 202.344,
      "duration": 0.469,
      "velocity": 0.5,
      "hand": "right"
    },
    {
      "midi": 78,
      "time": 202.813,
      "duration": 0.469,
      "velocity": 0.5,
      "hand": "right"
    },
    {
      "midi": 85,
      "time": 203.281,
      "duration": 5.938,
      "velocity": 0.5,
      "hand": "right"
    }
  ],
  "arrangements": {
    "easy": [
      {
        "midi": 41,
        "time": 0,
        "duration": 4,
        "velocity": 0.63,
        "hand": "left"
      },
      {
        "midi": 60,
        "time": 0,
        "duration": 4,
        "velocity": 0.63,
        "hand": "right"
      },
      {
        "midi": 64,
        "time": 0,
        "duration": 4,
        "velocity": 0.63,
        "hand": "right"
      },
      {
        "midi": 65,
        "time": 0,
        "duration": 4,
        "velocity": 0.63,
        "hand": "right"
      },
      {
        "midi": 65,
        "time": 0,
        "duration": 0.333,
        "velocity": 0.63,
        "hand": "right"
      },
      {
        "midi": 69,
        "time": 0,
        "duration": 4,
        "velocity": 0.63,
        "hand": "right"
      },
      {
        "midi": 74,
        "time": 0,
        "duration": 0.167,
        "velocity": 0.63,
        "hand": "right"
      },
      {
        "midi": 76,
        "time": 0.167,
        "duration": 0.167,
        "velocity": 0.63,
        "hand": "right"
      },
      {
        "midi": 72,
        "time": 0.333,
        "duration": 1.583,
        "velocity": 0.63,
        "hand": "right"
      },
      {
        "midi": 79,
        "time": 0.333,
        "duration": 0.167,
        "velocity": 0.63,
        "hand": "right"
      },
      {
        "midi": 81,
        "time": 0.5,
        "duration": 0.167,
        "velocity": 0.63,
        "hand": "right"
      },
      {
        "midi": 79,
        "time": 0.667,
        "duration": 0.167,
        "velocity": 0.63,
        "hand": "right"
      },
      {
        "midi": 76,
        "time": 0.833,
        "duration": 0.167,
        "velocity": 0.63,
        "hand": "right"
      },
      {
        "midi": 74,
        "time": 1,
        "duration": 0.167,
        "velocity": 0.63,
        "hand": "right"
      },
      {
        "midi": 76,
        "time": 1.167,
        "duration": 0.167,
        "velocity": 0.63,
        "hand": "right"
      },
      {
        "midi": 79,
        "time": 1.333,
        "duration": 0.167,
        "velocity": 0.63,
        "hand": "right"
      },
      {
        "midi": 81,
        "time": 1.5,
        "duration": 0.167,
        "velocity": 0.63,
        "hand": "right"
      },
      {
        "midi": 79,
        "time": 1.667,
        "duration": 0.167,
        "velocity": 0.63,
        "hand": "right"
      },
      {
        "midi": 76,
        "time": 1.833,
        "duration": 0.167,
        "velocity": 0.63,
        "hand": "right"
      },
      {
        "midi": 65,
        "time": 2,
        "duration": 0.333,
        "velocity": 0.63,
        "hand": "right"
      },
      {
        "midi": 74,
        "time": 2,
        "duration": 0.167,
        "velocity": 0.63,
        "hand": "right"
      },
      {
        "midi": 76,
        "time": 2.167,
        "duration": 0.167,
        "velocity": 0.63,
        "hand": "right"
      },
      {
        "midi": 72,
        "time": 2.333,
        "duration": 0.667,
        "velocity": 0.63,
        "hand": "right"
      },
      {
        "midi": 79,
        "time": 2.333,
        "duration": 0.167,
        "velocity": 0.63,
        "hand": "right"
      },
      {
        "midi": 81,
        "time": 2.5,
        "duration": 0.167,
        "velocity": 0.63,
        "hand": "right"
      },
      {
        "midi": 79,
        "time": 2.667,
        "duration": 0.167,
        "velocity": 0.63,
        "hand": "right"
      },
      {
        "midi": 76,
        "time": 2.833,
        "duration": 0.167,
        "velocity": 0.63,
        "hand": "right"
      },
      {
        "midi": 65,
        "time": 3,
        "duration": 0.333,
        "velocity": 0.63,
        "hand": "right"
      },
      {
        "midi": 74,
        "time": 3,
        "duration": 0.167,
        "velocity": 0.63,
        "hand": "right"
      },
      {
        "midi": 76,
        "time": 3.167,
        "duration": 0.167,
        "velocity": 0.63,
        "hand": "right"
      },
      {
        "midi": 72,
        "time": 3.333,
        "duration": 0.667,
        "velocity": 0.63,
        "hand": "right"
      },
      {
        "midi": 79,
        "time": 3.333,
        "duration": 0.167,
        "velocity": 0.63,
        "hand": "right"
      },
      {
        "midi": 81,
        "time": 3.5,
        "duration": 0.167,
        "velocity": 0.63,
        "hand": "right"
      },
      {
        "midi": 79,
        "time": 3.667,
        "duration": 0.167,
        "velocity": 0.63,
        "hand": "right"
      },
      {
        "midi": 76,
        "time": 3.833,
        "duration": 0.167,
        "velocity": 0.63,
        "hand": "right"
      },
      {
        "midi": 40,
        "time": 4,
        "duration": 3,
        "velocity": 0.63,
        "hand": "left"
      },
      {
        "midi": 60,
        "time": 4,
        "duration": 3,
        "velocity": 0.63,
        "hand": "right"
      },
      {
        "midi": 64,
        "time": 4,
        "duration": 3,
        "velocity": 0.63,
        "hand": "right"
      },
      {
        "midi": 64,
        "time": 4,
        "duration": 0.333,
        "velocity": 0.63,
        "hand": "right"
      },
      {
        "midi": 67,
        "time": 4,
        "duration": 3,
        "velocity": 0.63,
        "hand": "right"
      },
      {
        "midi": 69,
        "time": 4,
        "duration": 3,
        "velocity": 0.63,
        "hand": "right"
      },
      {
        "midi": 72,
        "time": 4,
        "duration": 0.167,
        "velocity": 0.63,
        "hand": "right"
      },
      {
        "midi": 76,
        "time": 4.167,
        "duration": 0.167,
        "velocity": 0.63,
        "hand": "right"
      },
      {
        "midi": 71,
        "time": 4.333,
        "duration": 1.583,
        "velocity": 0.63,
        "hand": "right"
      },
      {
        "midi": 79,
        "time": 4.333,
        "duration": 0.167,
        "velocity": 0.63,
        "hand": "right"
      },
      {
        "midi": 81,
        "time": 4.5,
        "duration": 0.167,
        "velocity": 0.63,
        "hand": "right"
      },
      {
        "midi": 79,
        "time": 4.667,
        "duration": 0.167,
        "velocity": 0.63,
        "hand": "right"
      },
      {
        "midi": 76,
        "time": 4.833,
        "duration": 0.167,
        "velocity": 0.63,
        "hand": "right"
      },
      {
        "midi": 72,
        "time": 5,
        "duration": 0.167,
        "velocity": 0.63,
        "hand": "right"
      },
      {
        "midi": 76,
        "time": 5.167,
        "duration": 0.167,
        "velocity": 0.63,
        "hand": "right"
      },
      {
        "midi": 79,
        "time": 5.333,
        "duration": 0.167,
        "velocity": 0.63,
        "hand": "right"
      },
      {
        "midi": 81,
        "time": 5.5,
        "duration": 0.167,
        "velocity": 0.63,
        "hand": "right"
      },
      {
        "midi": 79,
        "time": 5.667,
        "duration": 0.167,
        "velocity": 0.63,
        "hand": "right"
      },
      {
        "midi": 76,
        "time": 5.833,
        "duration": 0.167,
        "velocity": 0.63,
        "hand": "right"
      },
      {
        "midi": 64,
        "time": 6,
        "duration": 0.333,
        "velocity": 0.63,
        "hand": "right"
      },
      {
        "midi": 72,
        "time": 6,
        "duration": 0.167,
        "velocity": 0.63,
        "hand": "right"
      },
      {
        "midi": 76,
        "time": 6.167,
        "duration": 0.167,
        "velocity": 0.63,
        "hand": "right"
      },
      {
        "midi": 71,
        "time": 6.333,
        "duration": 0.667,
        "velocity": 0.63,
        "hand": "right"
      },
      {
        "midi": 79,
        "time": 6.333,
        "duration": 0.167,
        "velocity": 0.63,
        "hand": "right"
      },
      {
        "midi": 81,
        "time": 6.5,
        "duration": 0.167,
        "velocity": 0.63,
        "hand": "right"
      },
      {
        "midi": 79,
        "time": 6.667,
        "duration": 0.167,
        "velocity": 0.63,
        "hand": "right"
      },
      {
        "midi": 76,
        "time": 6.833,
        "duration": 0.167,
        "velocity": 0.63,
        "hand": "right"
      },
      {
        "midi": 39,
        "time": 7,
        "duration": 1,
        "velocity": 0.63,
        "hand": "left"
      },
      {
        "midi": 60,
        "time": 7,
        "duration": 1,
        "velocity": 0.63,
        "hand": "right"
      },
      {
        "midi": 63,
        "time": 7,
        "duration": 0.917,
        "velocity": 0.63,
        "hand": "right"
      },
      {
        "midi": 64,
        "time": 7,
        "duration": 1,
        "velocity": 0.63,
        "hand": "right"
      },
      {
        "midi": 67,
        "time": 7,
        "duration": 1,
        "velocity": 0.63,
        "hand": "right"
      },
      {
        "midi": 69,
        "time": 7,
        "duration": 1,
        "velocity": 0.63,
        "hand": "right"
      },
      {
        "midi": 72,
        "time": 7,
        "duration": 0.167,
        "velocity": 0.63,
        "hand": "right"
      },
      {
        "midi": 76,
        "time": 7.167,
        "duration": 0.167,
        "velocity": 0.63,
        "hand": "right"
      },
      {
        "midi": 79,
        "time": 7.333,
        "duration": 0.167,
        "velocity": 0.63,
        "hand": "right"
      },
      {
        "midi": 81,
        "time": 7.5,
        "duration": 0.167,
        "velocity": 0.63,
        "hand": "right"
      },
      {
        "midi": 79,
        "time": 7.667,
        "duration": 0.167,
        "velocity": 0.63,
        "hand": "right"
      },
      {
        "midi": 76,
        "time": 7.833,
        "duration": 0.167,
        "velocity": 0.63,
        "hand": "right"
      },
      {
        "midi": 38,
        "time": 8,
        "duration": 4,
        "velocity": 0.63,
        "hand": "left"
      },
      {
        "midi": 60,
        "time": 8,
        "duration": 4,
        "velocity": 0.63,
        "hand": "right"
      },
      {
        "midi": 62,
        "time": 8,
        "duration": 4,
        "velocity": 0.63,
        "hand": "right"
      },
      {
        "midi": 62,
        "time": 8,
        "duration": 0.333,
        "velocity": 0.63,
        "hand": "right"
      },
      {
        "midi": 65,
        "time": 8,
        "duration": 4,
        "velocity": 0.63,
        "hand": "right"
      },
      {
        "midi": 69,
        "time": 8,
        "duration": 4,
        "velocity": 0.63,
        "hand": "right"
      },
      {
        "midi": 72,
        "time": 8,
        "duration": 0.167,
        "velocity": 0.63,
        "hand": "right"
      },
      {
        "midi": 74,
        "time": 8.167,
        "duration": 0.167,
        "velocity": 0.63,
        "hand": "right"
      },
      {
        "midi": 69,
        "time": 8.333,
        "duration": 1.583,
        "velocity": 0.63,
        "hand": "right"
      },
      {
        "midi": 77,
        "time": 8.333,
        "duration": 0.167,
        "velocity": 0.63,
        "hand": "right"
      },
      {
        "midi": 79,
        "time": 8.5,
        "duration": 0.167,
        "velocity": 0.63,
        "hand": "right"
      },
      {
        "midi": 77,
        "time": 8.667,
        "duration": 0.167,
        "velocity": 0.63,
        "hand": "right"
      },
      {
        "midi": 74,
        "time": 8.833,
        "duration": 0.167,
        "velocity": 0.63,
        "hand": "right"
      },
      {
        "midi": 72,
        "time": 9,
        "duration": 0.167,
        "velocity": 0.63,
        "hand": "right"
      },
      {
        "midi": 74,
        "time": 9.167,
        "duration": 0.167,
        "velocity": 0.63,
        "hand": "right"
      },
      {
        "midi": 77,
        "time": 9.333,
        "duration": 0.167,
        "velocity": 0.63,
        "hand": "right"
      },
      {
        "midi": 79,
        "time": 9.5,
        "duration": 0.167,
        "velocity": 0.63,
        "hand": "right"
      },
      {
        "midi": 77,
        "time": 9.667,
        "duration": 0.167,
        "velocity": 0.63,
        "hand": "right"
      },
      {
        "midi": 74,
        "time": 9.833,
        "duration": 0.167,
        "velocity": 0.63,
        "hand": "right"
      },
      {
        "midi": 62,
        "time": 10,
        "duration": 0.333,
        "velocity": 0.63,
        "hand": "right"
      },
      {
        "midi": 72,
        "time": 10,
        "duration": 0.167,
        "velocity": 0.63,
        "hand": "right"
      },
      {
        "midi": 74,
        "time": 10.167,
        "duration": 0.167,
        "velocity": 0.63,
        "hand": "right"
      },
      {
        "midi": 69,
        "time": 10.333,
        "duration": 0.667,
        "velocity": 0.63,
        "hand": "right"
      },
      {
        "midi": 77,
        "time": 10.333,
        "duration": 0.167,
        "velocity": 0.63,
        "hand": "right"
      },
      {
        "midi": 79,
        "time": 10.5,
        "duration": 0.167,
        "velocity": 0.63,
        "hand": "right"
      },
      {
        "midi": 77,
        "time": 10.667,
        "duration": 0.167,
        "velocity": 0.63,
        "hand": "right"
      },
      {
        "midi": 74,
        "time": 10.833,
        "duration": 0.167,
        "velocity": 0.63,
        "hand": "right"
      },
      {
        "midi": 62,
        "time": 11,
        "duration": 0.333,
        "velocity": 0.63,
        "hand": "right"
      },
      {
        "midi": 72,
        "time": 11,
        "duration": 0.167,
        "velocity": 0.63,
        "hand": "right"
      },
      {
        "midi": 74,
        "time": 11.167,
        "duration": 0.167,
        "velocity": 0.63,
        "hand": "right"
      },
      {
        "midi": 69,
        "time": 11.333,
        "duration": 0.667,
        "velocity": 0.63,
        "hand": "right"
      },
      {
        "midi": 77,
        "time": 11.333,
        "duration": 0.167,
        "velocity": 0.63,
        "hand": "right"
      },
      {
        "midi": 79,
        "time": 11.5,
        "duration": 0.167,
        "velocity": 0.63,
        "hand": "right"
      },
      {
        "midi": 77,
        "time": 11.667,
        "duration": 0.167,
        "velocity": 0.63,
        "hand": "right"
      },
      {
        "midi": 74,
        "time": 11.833,
        "duration": 0.167,
        "velocity": 0.63,
        "hand": "right"
      },
      {
        "midi": 36,
        "time": 12,
        "duration": 4,
        "velocity": 0.63,
        "hand": "left"
      },
      {
        "midi": 60,
        "time": 12,
        "duration": 4,
        "velocity": 0.63,
        "hand": "right"
      },
      {
        "midi": 60,
        "time": 12,
        "duration": 0.333,
        "velocity": 0.63,
        "hand": "right"
      },
      {
        "midi": 64,
        "time": 12,
        "duration": 4,
        "velocity": 0.63,
        "hand": "right"
      },
      {
        "midi": 67,
        "time": 12,
        "duration": 4,
        "velocity": 0.63,
        "hand": "right"
      },
      {
        "midi": 71,
        "time": 12,
        "duration": 0.167,
        "velocity": 0.63,
        "hand": "right"
      },
      {
        "midi": 71,
        "time": 12,
        "duration": 4,
        "velocity": 0.63,
        "hand": "right"
      },
      {
        "midi": 72,
        "time": 12.167,
        "duration": 0.167,
        "velocity": 0.63,
        "hand": "right"
      },
      {
        "midi": 67,
        "time": 12.333,
        "duration": 1.583,
        "velocity": 0.63,
        "hand": "right"
      },
      {
        "midi": 74,
        "time": 12.333,
        "duration": 0.167,
        "velocity": 0.63,
        "hand": "right"
      },
      {
        "midi": 76,
        "time": 12.5,
        "duration": 0.167,
        "velocity": 0.63,
        "hand": "right"
      },
      {
        "midi": 74,
        "time": 12.667,
        "duration": 0.167,
        "velocity": 0.63,
        "hand": "right"
      },
      {
        "midi": 72,
        "time": 12.833,
        "duration": 0.167,
        "velocity": 0.63,
        "hand": "right"
      },
      {
        "midi": 71,
        "time": 13,
        "duration": 0.167,
        "velocity": 0.63,
        "hand": "right"
      },
      {
        "midi": 72,
        "time": 13.167,
        "duration": 0.167,
        "velocity": 0.63,
        "hand": "right"
      },
      {
        "midi": 74,
        "time": 13.333,
        "duration": 0.167,
        "velocity": 0.63,
        "hand": "right"
      },
      {
        "midi": 76,
        "time": 13.5,
        "duration": 0.167,
        "velocity": 0.63,
        "hand": "right"
      },
      {
        "midi": 74,
        "time": 13.667,
        "duration": 0.167,
        "velocity": 0.63,
        "hand": "right"
      },
      {
        "midi": 72,
        "time": 13.833,
        "duration": 0.167,
        "velocity": 0.63,
        "hand": "right"
      },
      {
        "midi": 60,
        "time": 14,
        "duration": 0.333,
        "velocity": 0.63,
        "hand": "right"
      },
      {
        "midi": 71,
        "time": 14,
        "duration": 0.167,
        "velocity": 0.63,
        "hand": "right"
      },
      {
        "midi": 72,
        "time": 14.167,
        "duration": 0.167,
        "velocity": 0.63,
        "hand": "right"
      },
      {
        "midi": 67,
        "time": 14.333,
        "duration": 0.667,
        "velocity": 0.63,
        "hand": "right"
      },
      {
        "midi": 74,
        "time": 14.333,
        "duration": 0.167,
        "velocity": 0.63,
        "hand": "right"
      },
      {
        "midi": 76,
        "time": 14.5,
        "duration": 0.167,
        "velocity": 0.63,
        "hand": "right"
      },
      {
        "midi": 74,
        "time": 14.667,
        "duration": 0.167,
        "velocity": 0.63,
        "hand": "right"
      },
      {
        "midi": 72,
        "time": 14.833,
        "duration": 0.167,
        "velocity": 0.63,
        "hand": "right"
      },
      {
        "midi": 60,
        "time": 15,
        "duration": 0.333,
        "velocity": 0.63,
        "hand": "right"
      },
      {
        "midi": 71,
        "time": 15,
        "duration": 0.917,
        "velocity": 0.63,
        "hand": "right"
      },
      {
        "midi": 67,
        "time": 15.333,
        "duration": 0.667,
        "velocity": 0.63,
        "hand": "right"
      },
      {
        "midi": 41,
        "time": 16,
        "duration": 4,
        "velocity": 0.63,
        "hand": "left"
      },
      {
        "midi": 53,
        "time": 16,
        "duration": 0.333,
        "velocity": 0.63,
        "hand": "left"
      },
      {
        "midi": 60,
        "time": 16,
        "duration": 4,
        "velocity": 0.63,
        "hand": "right"
      },
      {
        "midi": 64,
        "time": 16,
        "duration": 0.167,
        "velocity": 0.63,
        "hand": "right"
      },
      {
        "midi": 64,
        "time": 16,
        "duration": 4,
        "velocity": 0.63,
        "hand": "right"
      },
      {
        "midi": 65,
        "time": 16,
        "duration": 4,
        "velocity": 0.63,
        "hand": "right"
      },
      {
        "midi": 69,
        "time": 16,
        "duration": 4,
        "velocity": 0.63,
        "hand": "right"
      },
      {
        "midi": 64,
        "time": 16.167,
        "duration": 0.167,
        "velocity": 0.63,
        "hand": "right"
      },
      {
        "midi": 60,
        "time": 16.333,
        "duration": 0.667,
        "velocity": 0.63,
        "hand": "right"
      },
      {
        "midi": 64,
        "time": 16.333,
        "duration": 0.167,
        "velocity": 0.63,
        "hand": "right"
      },
      {
        "midi": 64,
        "time": 16.5,
        "duration": 0.167,
        "velocity": 0.63,
        "hand": "right"
      },
      {
        "midi": 64,
        "time": 16.667,
        "duration": 0.167,
        "velocity": 0.63,
        "hand": "right"
      },
      {
        "midi": 62,
        "time": 16.833,
        "duration": 0.167,
        "velocity": 0.63,
        "hand": "right"
      },
      {
        "midi": 53,
        "time": 17,
        "duration": 0.333,
        "velocity": 0.63,
        "hand": "left"
      },
      {
        "midi": 60,
        "time": 17.333,
        "duration": 0.667,
        "velocity": 0.63,
        "hand": "right"
      },
      {
        "midi": 53,
        "time": 18,
        "duration": 1.917,
        "velocity": 0.63,
        "hand": "left"
      },
      {
        "midi": 60,
        "time": 18,
        "duration": 1.917,
        "velocity": 0.63,
        "hand": "right"
      },
      {
        "midi": 64,
        "time": 18,
        "duration": 0.167,
        "velocity": 0.63,
        "hand": "right"
      },
      {
        "midi": 64,
        "time": 18.167,
        "duration": 0.167,
        "velocity": 0.63,
        "hand": "right"
      },
      {
        "midi": 64,
        "time": 18.333,
        "duration": 0.167,
        "velocity": 0.63,
        "hand": "right"
      },
      {
        "midi": 64,
        "time": 18.5,
        "duration": 0.167,
        "velocity": 0.63,
        "hand": "right"
      },
      {
        "midi": 64,
        "time": 18.667,
        "duration": 0.333,
        "velocity": 0.63,
        "hand": "right"
      },
      {
        "midi": 64,
        "time": 19,
        "duration": 0.167,
        "velocity": 0.63,
        "hand": "right"
      },
      {
        "midi": 64,
        "time": 19.167,
        "duration": 0.167,
        "velocity": 0.63,
        "hand": "right"
      },
      {
        "midi": 64,
        "time": 19.333,
        "duration": 0.167,
        "velocity": 0.63,
        "hand": "right"
      },
      {
        "midi": 64,
        "time": 19.5,
        "duration": 0.167,
        "velocity": 0.63,
        "hand": "right"
      },
      {
        "midi": 64,
        "time": 19.667,
        "duration": 0.333,
        "velocity": 0.63,
        "hand": "right"
      },
      {
        "midi": 40,
        "time": 20,
        "duration": 3,
        "velocity": 0.63,
        "hand": "left"
      },
      {
        "midi": 52,
        "time": 20,
        "duration": 0.333,
        "velocity": 0.63,
        "hand": "left"
      },
      {
        "midi": 60,
        "time": 20,
        "duration": 3,
        "velocity": 0.63,
        "hand": "right"
      },
      {
        "midi": 64,
        "time": 20,
        "duration": 0.167,
        "velocity": 0.63,
        "hand": "right"
      },
      {
        "midi": 64,
        "time": 20,
        "duration": 3,
        "velocity": 0.63,
        "hand": "right"
      },
      {
        "midi": 67,
        "time": 20,
        "duration": 3,
        "velocity": 0.63,
        "hand": "right"
      },
      {
        "midi": 64,
        "time": 20.167,
        "duration": 0.167,
        "velocity": 0.63,
        "hand": "right"
      },
      {
        "midi": 59,
        "time": 20.333,
        "duration": 0.667,
        "velocity": 0.63,
        "hand": "left"
      },
      {
        "midi": 64,
        "time": 20.333,
        "duration": 0.167,
        "velocity": 0.63,
        "hand": "right"
      },
      {
        "midi": 64,
        "time": 20.5,
        "duration": 0.167,
        "velocity": 0.63,
        "hand": "right"
      },
      {
        "midi": 64,
        "time": 20.667,
        "duration": 0.167,
        "velocity": 0.63,
        "hand": "right"
      },
      {
        "midi": 62,
        "time": 20.833,
        "duration": 0.167,
        "velocity": 0.63,
        "hand": "right"
      },
      {
        "midi": 52,
        "time": 21,
        "duration": 0.333,
        "velocity": 0.63,
        "hand": "left"
      },
      {
        "midi": 59,
        "time": 21.333,
        "duration": 0.667,
        "velocity": 0.63,
        "hand": "left"
      },
      {
        "midi": 52,
        "time": 22,
        "duration": 0.917,
        "velocity": 0.63,
        "hand": "left"
      },
      {
        "midi": 55,
        "time": 22,
        "duration": 0.917,
        "velocity": 0.63,
        "hand": "left"
      },
      {
        "midi": 64,
        "time": 22,
        "duration": 0.167,
        "velocity": 0.63,
        "hand": "right"
      },
      {
        "midi": 64,
        "time": 22.167,
        "duration": 0.167,
        "velocity": 0.63,
        "hand": "right"
      },
      {
        "midi": 64,
        "time": 22.333,
        "duration": 0.333,
        "velocity": 0.63,
        "hand": "right"
      },
      {
        "midi": 64,
        "time": 22.667,
        "duration": 0.333,
        "velocity": 0.63,
        "hand": "right"
      },
      {
        "midi": 39,
        "time": 23,
        "duration": 1,
        "velocity": 0.63,
        "hand": "left"
      },
      {
        "midi": 51,
        "time": 23,
        "duration": 0.917,
        "velocity": 0.63,
        "hand": "left"
      },
      {
        "midi": 60,
        "time": 23,
        "duration": 1,
        "velocity": 0.63,
        "hand": "right"
      },
      {
        "midi": 64,
        "time": 23,
        "duration": 0.167,
        "velocity": 0.63,
        "hand": "right"
      },
      {
        "midi": 64,
        "time": 23,
        "duration": 1,
        "velocity": 0.63,
        "hand": "right"
      },
      {
        "midi": 67,
        "time": 23,
        "duration": 1,
        "velocity": 0.63,
        "hand": "right"
      },
      {
        "midi": 64,
        "time": 23.167,
        "duration": 0.167,
        "velocity": 0.63,
        "hand": "right"
      },
      {
        "midi": 64,
        "time": 23.333,
        "duration": 0.167,
        "velocity": 0.63,
        "hand": "right"
      },
      {
        "midi": 64,
        "time": 23.5,
        "duration": 0.167,
        "velocity": 0.63,
        "hand": "right"
      },
      {
        "midi": 64,
        "time": 23.667,
        "duration": 0.333,
        "velocity": 0.63,
        "hand": "right"
      },
      {
        "midi": 38,
        "time": 24,
        "duration": 4,
        "velocity": 0.63,
        "hand": "left"
      },
      {
        "midi": 50,
        "time": 24,
        "duration": 0.917,
        "velocity": 0.63,
        "hand": "left"
      },
      {
        "midi": 53,
        "time": 24,
        "duration": 0.917,
        "velocity": 0.63,
        "hand": "left"
      },
      {
        "midi": 62,
        "time": 24,
        "duration": 0.167,
        "velocity": 0.63,
        "hand": "right"
      },
      {
        "midi": 62,
        "time": 24,
        "duration": 4,
        "velocity": 0.63,
        "hand": "right"
      },
      {
        "midi": 65,
        "time": 24,
        "duration": 4,
        "velocity": 0.63,
        "hand": "right"
      },
      {
        "midi": 69,
        "time": 24,
        "duration": 4,
        "velocity": 0.63,
        "hand": "right"
      },
      {
        "midi": 60,
        "time": 24.167,
        "duration": 0.167,
        "velocity": 0.63,
        "hand": "right"
      },
      {
        "midi": 64,
        "time": 24.333,
        "duration": 0.167,
        "velocity": 0.63,
        "hand": "right"
      },
      {
        "midi": 62,
        "time": 24.5,
        "duration": 0.167,
        "velocity": 0.63,
        "hand": "right"
      },
      {
        "midi": 64,
        "time": 24.667,
        "duration": 0.167,
        "velocity": 0.63,
        "hand": "right"
      },
      {
        "midi": 62,
        "time": 24.833,
        "duration": 0.167,
        "velocity": 0.63,
        "hand": "right"
      },
      {
        "midi": 57,
        "time": 25,
        "duration": 0.917,
        "velocity": 0.63,
        "hand": "left"
      },
      {
        "midi": 50,
        "time": 26,
        "duration": 0.917,
        "velocity": 0.63,
        "hand": "left"
      },
      {
        "midi": 53,
        "time": 26,
        "duration": 0.917,
        "velocity": 0.63,
        "hand": "left"
      },
      {
        "midi": 57,
        "time": 26,
        "duration": 0.917,
        "velocity": 0.63,
        "hand": "left"
      },
      {
        "midi": 64,
        "time": 26,
        "duration": 0.167,
        "velocity": 0.63,
        "hand": "right"
      },
      {
        "midi": 62,
        "time": 26.167,
        "duration": 0.167,
        "velocity": 0.63,
        "hand": "right"
      },
      {
        "midi": 64,
        "time": 26.333,
        "duration": 0.167,
        "velocity": 0.63,
        "hand": "right"
      },
      {
        "midi": 62,
        "time": 26.5,
        "duration": 0.167,
        "velocity": 0.63,
        "hand": "right"
      },
      {
        "midi": 64,
        "time": 26.667,
        "duration": 0.167,
        "velocity": 0.63,
        "hand": "right"
      },
      {
        "midi": 62,
        "time": 26.833,
        "duration": 0.167,
        "velocity": 0.63,
        "hand": "right"
      },
      {
        "midi": 50,
        "time": 27,
        "duration": 0.333,
        "velocity": 0.63,
        "hand": "left"
      },
      {
        "midi": 53,
        "time": 27.333,
        "duration": 0.333,
        "velocity": 0.63,
        "hand": "left"
      },
      {
        "midi": 57,
        "time": 27.667,
        "duration": 0.333,
        "velocity": 0.63,
        "hand": "left"
      },
      {
        "midi": 60,
        "time": 27.833,
        "duration": 0.167,
        "velocity": 0.63,
        "hand": "right"
      },
      {
        "midi": 36,
        "time": 28,
        "duration": 4,
        "velocity": 0.63,
        "hand": "left"
      },
      {
        "midi": 48,
        "time": 28,
        "duration": 0.917,
        "velocity": 0.63,
        "hand": "left"
      },
      {
        "midi": 55,
        "time": 28,
        "duration": 0.917,
        "velocity": 0.63,
        "hand": "left"
      },
      {
        "midi": 59,
        "time": 28,
        "duration": 0.167,
        "velocity": 0.63,
        "hand": "left"
      },
      {
        "midi": 60,
        "time": 28,
        "duration": 4,
        "velocity": 0.63,
        "hand": "right"
      },
      {
        "midi": 64,
        "time": 28,
        "duration": 0.167,
        "velocity": 0.63,
        "hand": "right"
      },
      {
        "midi": 64,
        "time": 28,
        "duration": 4,
        "velocity": 0.63,
        "hand": "right"
      },
      {
        "midi": 67,
        "time": 28,
        "duration": 4,
        "velocity": 0.63,
        "hand": "right"
      },
      {
        "midi": 71,
        "time": 28,
        "duration": 4,
        "velocity": 0.63,
        "hand": "right"
      },
      {
        "midi": 64,
        "time": 28.167,
        "duration": 0.167,
        "velocity": 0.63,
        "hand": "right"
      },
      {
        "midi": 64,
        "time": 28.333,
        "duration": 0.167,
        "velocity": 0.63,
        "hand": "right"
      },
      {
        "midi": 64,
        "time": 28.5,
        "duration": 0.167,
        "velocity": 0.63,
        "hand": "right"
      },
      {
        "midi": 64,
        "time": 28.667,
        "duration": 0.333,
        "velocity": 0.63,
        "hand": "right"
      },
      {
        "midi": 48,
        "time": 29,
        "duration": 0.917,
        "velocity": 0.63,
        "hand": "left"
      },
      {
        "midi": 59,
        "time": 29,
        "duration": 0.167,
        "velocity": 0.63,
        "hand": "left"
      },
      {
        "midi": 64,
        "time": 29,
        "duration": 0.167,
        "velocity": 0.63,
        "hand": "right"
      },
      {
        "midi": 64,
        "time": 29.167,
        "duration": 0.167,
        "velocity": 0.63,
        "hand": "right"
      },
      {
        "midi": 64,
        "time": 29.333,
        "duration": 0.167,
        "velocity": 0.63,
        "hand": "right"
      },
      {
        "midi": 64,
        "time": 29.5,
        "duration": 0.167,
        "velocity": 0.63,
        "hand": "right"
      },
      {
        "midi": 64,
        "time": 29.667,
        "duration": 0.333,
        "velocity": 0.63,
        "hand": "right"
      },
      {
        "midi": 48,
        "time": 30,
        "duration": 1.917,
        "velocity": 0.63,
        "hand": "left"
      },
      {
        "midi": 55,
        "time": 30,
        "duration": 1.917,
        "velocity": 0.63,
        "hand": "left"
      },
      {
        "midi": 59,
        "time": 30,
        "duration": 0.167,
        "velocity": 0.63,
        "hand": "left"
      },
      {
        "midi": 64,
        "time": 30,
        "duration": 0.167,
        "velocity": 0.63,
        "hand": "right"
      },
      {
        "midi": 64,
        "time": 30.167,
        "duration": 0.167,
        "velocity": 0.63,
        "hand": "right"
      },
      {
        "midi": 64,
        "time": 30.333,
        "duration": 0.333,
        "velocity": 0.63,
        "hand": "right"
      },
      {
        "midi": 62,
        "time": 30.667,
        "duration": 0.167,
        "velocity": 0.63,
        "hand": "right"
      },
      {
        "midi": 60,
        "time": 30.833,
        "duration": 0.5,
        "velocity": 0.63,
        "hand": "right"
      },
      {
        "midi": 64,
        "time": 31.333,
        "duration": 0.333,
        "velocity": 0.63,
        "hand": "right"
      },
      {
        "midi": 67,
        "time": 31.667,
        "duration": 0.333,
        "velocity": 0.63,
        "hand": "right"
      },
      {
        "midi": 41,
        "time": 32,
        "duration": 4,
        "velocity": 0.63,
        "hand": "left"
      },
      {
        "midi": 41,
        "time": 32,
        "duration": 0.917,
        "velocity": 0.63,
        "hand": "left"
      },
      {
        "midi": 60,
        "time": 32,
        "duration": 4,
        "velocity": 0.63,
        "hand": "right"
      },
      {
        "midi": 64,
        "time": 32,
        "duration": 0.917,
        "velocity": 0.63,
        "hand": "right"
      },
      {
        "midi": 64,
        "time": 32,
        "duration": 4,
        "velocity": 0.63,
        "hand": "right"
      },
      {
        "midi": 65,
        "time": 32,
        "duration": 4,
        "velocity": 0.63,
        "hand": "right"
      },
      {
        "midi": 69,
        "time": 32,
        "duration": 0.917,
        "velocity": 0.63,
        "hand": "right"
      },
      {
        "midi": 69,
        "time": 32,
        "duration": 4,
        "velocity": 0.63,
        "hand": "right"
      },
      {
        "midi": 48,
        "time": 33,
        "duration": 0.917,
        "velocity": 0.63,
        "hand": "left"
      },
      {
        "midi": 69,
        "time": 33.333,
        "duration": 0.333,
        "velocity": 0.63,
        "hand": "right"
      },
      {
        "midi": 71,
        "time": 33.667,
        "duration": 0.167,
        "velocity": 0.63,
        "hand": "right"
      },
      {
        "midi": 64,
        "time": 33.833,
        "duration": 1.083,
        "velocity": 0.63,
        "hand": "right"
      },
      {
        "midi": 72,
        "time": 33.833,
        "duration": 1.083,
        "velocity": 0.63,
        "hand": "right"
      },
      {
        "midi": 41,
        "time": 34,
        "duration": 0.917,
        "velocity": 0.63,
        "hand": "left"
      },
      {
        "midi": 48,
        "time": 35,
        "duration": 0.917,
        "velocity": 0.63,
        "hand": "left"
      },
      {
        "midi": 69,
        "time": 35.333,
        "duration": 0.333,
        "velocity": 0.63,
        "hand": "right"
      },
      {
        "midi": 72,
        "time": 35.667,
        "duration": 0.333,
        "velocity": 0.63,
        "hand": "right"
      },
      {
        "midi": 40,
        "time": 36,
        "duration": 2,
        "velocity": 0.63,
        "hand": "left"
      },
      {
        "midi": 40,
        "time": 36,
        "duration": 0.917,
        "velocity": 0.63,
        "hand": "left"
      },
      {
        "midi": 64,
        "time": 36,
        "duration": 2,
        "velocity": 0.63,
        "hand": "right"
      },
      {
        "midi": 67,
        "time": 36,
        "duration": 0.333,
        "velocity": 0.63,
        "hand": "right"
      },
      {
        "midi": 67,
        "time": 36,
        "duration": 2,
        "velocity": 0.63,
        "hand": "right"
      },
      {
        "midi": 71,
        "time": 36,
        "duration": 0.333,
        "velocity": 0.63,
        "hand": "right"
      },
      {
        "midi": 71,
        "time": 36,
        "duration": 2,
        "velocity": 0.63,
        "hand": "right"
      },
      {
        "midi": 69,
        "time": 36.333,
        "duration": 0.333,
        "velocity": 0.63,
        "hand": "right"
      },
      {
        "midi": 67,
        "time": 36.667,
        "duration": 0.333,
        "velocity": 0.63,
        "hand": "right"
      },
      {
        "midi": 47,
        "time": 37,
        "duration": 0.917,
        "velocity": 0.63,
        "hand": "left"
      },
      {
        "midi": 67,
        "time": 37,
        "duration": 0.667,
        "velocity": 0.63,
        "hand": "right"
      },
      {
        "midi": 64,
        "time": 37.667,
        "duration": 0.333,
        "velocity": 0.63,
        "hand": "right"
      },
      {
        "midi": 40,
        "time": 38,
        "duration": 1,
        "velocity": 0.63,
        "hand": "left"
      },
      {
        "midi": 40,
        "time": 38,
        "duration": 0.917,
        "velocity": 0.63,
        "hand": "left"
      },
      {
        "midi": 60,
        "time": 38,
        "duration": 1,
        "velocity": 0.63,
        "hand": "right"
      },
      {
        "midi": 64,
        "time": 38,
        "duration": 1,
        "velocity": 0.63,
        "hand": "right"
      },
      {
        "midi": 67,
        "time": 38,
        "duration": 0.333,
        "velocity": 0.63,
        "hand": "right"
      },
      {
        "midi": 67,
        "time": 38,
        "duration": 1,
        "velocity": 0.63,
        "hand": "right"
      },
      {
        "midi": 71,
        "time": 38,
        "duration": 0.333,
        "velocity": 0.63,
        "hand": "right"
      },
      {
        "midi": 69,
        "time": 38.333,
        "duration": 0.333,
        "velocity": 0.63,
        "hand": "right"
      },
      {
        "midi": 67,
        "time": 38.667,
        "duration": 0.333,
        "velocity": 0.63,
        "hand": "right"
      },
      {
        "midi": 39,
        "time": 39,
        "duration": 1,
        "velocity": 0.63,
        "hand": "left"
      },
      {
        "midi": 39,
        "time": 39,
        "duration": 0.917,
        "velocity": 0.63,
        "hand": "left"
      },
      {
        "midi": 60,
        "time": 39,
        "duration": 1,
        "velocity": 0.63,
        "hand": "right"
      },
      {
        "midi": 64,
        "time": 39,
        "duration": 1,
        "velocity": 0.63,
        "hand": "right"
      },
      {
        "midi": 67,
        "time": 39,
        "duration": 0.333,
        "velocity": 0.63,
        "hand": "right"
      },
      {
        "midi": 67,
        "time": 39,
        "duration": 1,
        "velocity": 0.63,
        "hand": "right"
      },
      {
        "midi": 71,
        "time": 39,
        "duration": 0.333,
        "velocity": 0.63,
        "hand": "right"
      },
      {
        "midi": 69,
        "time": 39.333,
        "duration": 0.333,
        "velocity": 0.63,
        "hand": "right"
      },
      {
        "midi": 67,
        "time": 39.667,
        "duration": 0.333,
        "velocity": 0.63,
        "hand": "right"
      },
      {
        "midi": 38,
        "time": 40,
        "duration": 4,
        "velocity": 0.63,
        "hand": "left"
      },
      {
        "midi": 38,
        "time": 40,
        "duration": 0.917,
        "velocity": 0.63,
        "hand": "left"
      },
      {
        "midi": 60,
        "time": 40,
        "duration": 4,
        "velocity": 0.63,
        "hand": "right"
      },
      {
        "midi": 62,
        "time": 40,
        "duration": 4,
        "velocity": 0.63,
        "hand": "right"
      },
      {
        "midi": 65,
        "time": 40,
        "duration": 4,
        "velocity": 0.63,
        "hand": "right"
      },
      {
        "midi": 67,
        "time": 40,
        "duration": 0.167,
        "velocity": 0.63,
        "hand": "right"
      },
      {
        "midi": 69,
        "time": 40,
        "duration": 4,
        "velocity": 0.63,
        "hand": "right"
      },
      {
        "midi": 60,
        "time": 40.167,
        "duration": 1.75,
        "velocity": 0.63,
        "hand": "right"
      },
      {
        "midi": 65,
        "time": 40.167,
        "duration": 1.75,
        "velocity": 0.63,
        "hand": "right"
      },
      {
        "midi": 45,
        "time": 41,
        "duration": 0.917,
        "velocity": 0.63,
        "hand": "left"
      },
      {
        "midi": 38,
        "time": 42,
        "duration": 0.917,
        "velocity": 0.63,
        "hand": "left"
      },
      {
        "midi": 60,
        "time": 42.667,
        "duration": 0.333,
        "velocity": 0.63,
        "hand": "right"
      },
      {
        "midi": 45,
        "time": 43,
        "duration": 0.917,
        "velocity": 0.63,
        "hand": "left"
      },
      {
        "midi": 67,
        "time": 43,
        "duration": 0.333,
        "velocity": 0.63,
        "hand": "right"
      },
      {
        "midi": 65,
        "time": 43.333,
        "duration": 0.333,
        "velocity": 0.63,
        "hand": "right"
      },
      {
        "midi": 64,
        "time": 43.667,
        "duration": 0.333,
        "velocity": 0.63,
        "hand": "right"
      },
      {
        "midi": 40,
        "time": 44,
        "duration": 4,
        "velocity": 0.63,
        "hand": "left"
      },
      {
        "midi": 40,
        "time": 44,
        "duration": 0.333,
        "velocity": 0.63,
        "hand": "left"
      },
      {
        "midi": 56,
        "time": 44,
        "duration": 0.917,
        "velocity": 0.63,
        "hand": "left"
      },
      {
        "midi": 64,
        "time": 44,
        "duration": 0.917,
        "velocity": 0.63,
        "hand": "right"
      },
      {
        "midi": 64,
        "time": 44,
        "duration": 4,
        "velocity": 0.63,
        "hand": "right"
      },
      {
        "midi": 68,
        "time": 44,
        "duration": 4,
        "velocity": 0.63,
        "hand": "right"
      },
      {
        "midi": 71,
        "time": 44,
        "duration": 4,
        "velocity": 0.63,
        "hand": "right"
      },
      {
        "midi": 40,
        "time": 44.333,
        "duration": 0.333,
        "velocity": 0.63,
        "hand": "left"
      },
      {
        "midi": 40,
        "time": 44.667,
        "duration": 0.333,
        "velocity": 0.63,
        "hand": "left"
      },
      {
        "midi": 40,
        "time": 45,
        "duration": 0.333,
        "velocity": 0.63,
        "hand": "left"
      },
      {
        "midi": 69,
        "time": 45,
        "duration": 0.917,
        "velocity": 0.63,
        "hand": "right"
      },
      {
        "midi": 40,
        "time": 45.333,
        "duration": 0.333,
        "velocity": 0.63,
        "hand": "left"
      },
      {
        "midi": 40,
        "time": 45.667,
        "duration": 0.333,
        "velocity": 0.63,
        "hand": "left"
      },
      {
        "midi": 40,
        "time": 46,
        "duration": 0.333,
        "velocity": 0.63,
        "hand": "left"
      },
      {
        "midi": 72,
        "time": 46,
        "duration": 0.917,
        "velocity": 0.63,
        "hand": "right"
      },
      {
        "midi": 40,
        "time": 46.333,
        "duration": 0.333,
        "velocity": 0.63,
        "hand": "left"
      },
      {
        "midi": 40,
        "time": 46.667,
        "duration": 0.333,
        "velocity": 0.63,
        "hand": "left"
      },
      {
        "midi": 74,
        "time": 47,
        "duration": 0.333,
        "velocity": 0.63,
        "hand": "right"
      },
      {
        "midi": 41,
        "time": 48,
        "duration": 6,
        "velocity": 0.63,
        "hand": "left"
      },
      {
        "midi": 41,
        "time": 48,
        "duration": 0.917,
        "velocity": 0.63,
        "hand": "left"
      },
      {
        "midi": 60,
        "time": 48,
        "duration": 6,
        "velocity": 0.63,
        "hand": "right"
      },
      {
        "midi": 64,
        "time": 48,
        "duration": 6,
        "velocity": 0.63,
        "hand": "right"
      },
      {
        "midi": 65,
        "time": 48,
        "duration": 6,
        "velocity": 0.63,
        "hand": "right"
      },
      {
        "midi": 69,
        "time": 48,
        "duration": 3.833,
        "velocity": 0.63,
        "hand": "right"
      },
      {
        "midi": 69,
        "time": 48,
        "duration": 6,
        "velocity": 0.63,
        "hand": "right"
      },
      {
        "midi": 76,
        "time": 48,
        "duration": 3.833,
        "velocity": 0.63,
        "hand": "right"
      },
      {
        "midi": 48,
        "time": 49,
        "duration": 0.917,
        "velocity": 0.63,
        "hand": "left"
      },
      {
        "midi": 52,
        "time": 50,
        "duration": 0.917,
        "velocity": 0.63,
        "hand": "left"
      },
      {
        "midi": 53,
        "time": 50,
        "duration": 0.917,
        "velocity": 0.63,
        "hand": "left"
      },
      {
        "midi": 57,
        "time": 50,
        "duration": 0.917,
        "velocity": 0.63,
        "hand": "left"
      },
      {
        "midi": 60,
        "time": 51,
        "duration": 0.917,
        "velocity": 0.63,
        "hand": "right"
      },
      {
        "midi": 41,
        "time": 52,
        "duration": 0.917,
        "velocity": 0.63,
        "hand": "left"
      },
      {
        "midi": 69,
        "time": 52,
        "duration": 0.917,
        "velocity": 0.63,
        "hand": "right"
      },
      {
        "midi": 48,
        "time": 53,
        "duration": 0.917,
        "velocity": 0.63,
        "hand": "left"
      },
      {
        "midi": 71,
        "time": 53,
        "duration": 0.917,
        "velocity": 0.63,
        "hand": "right"
      },
      {
        "midi": 41,
        "time": 54,
        "duration": 2,
        "velocity": 0.63,
        "hand": "left"
      },
      {
        "midi": 53,
        "time": 54,
        "duration": 0.917,
        "velocity": 0.63,
        "hand": "left"
      },
      {
        "midi": 56,
        "time": 54,
        "duration": 0.917,
        "velocity": 0.63,
        "hand": "left"
      },
      {
        "midi": 60,
        "time": 54,
        "duration": 2,
        "velocity": 0.63,
        "hand": "right"
      },
      {
        "midi": 60,
        "time": 54,
        "duration": 0.917,
        "velocity": 0.63,
        "hand": "right"
      },
      {
        "midi": 65,
        "time": 54,
        "duration": 2,
        "velocity": 0.63,
        "hand": "right"
      },
      {
        "midi": 68,
        "time": 54,
        "duration": 2,
        "velocity": 0.63,
        "hand": "right"
      },
      {
        "midi": 79,
        "time": 54,
        "duration": 0.917,
        "velocity": 0.63,
        "hand": "right"
      },
      {
        "midi": 62,
        "time": 55,
        "duration": 0.917,
        "velocity": 0.63,
        "hand": "right"
      },
      {
        "midi": 77,
        "time": 55,
        "duration": 0.917,
        "velocity": 0.63,
        "hand": "right"
      },
      {
        "midi": 36,
        "time": 56,
        "duration": 6,
        "velocity": 0.63,
        "hand": "left"
      },
      {
        "midi": 36,
        "time": 56,
        "duration": 0.917,
        "velocity": 0.63,
        "hand": "left"
      },
      {
        "midi": 60,
        "time": 56,
        "duration": 6,
        "velocity": 0.63,
        "hand": "right"
      },
      {
        "midi": 64,
        "time": 56,
        "duration": 6,
        "velocity": 0.63,
        "hand": "right"
      },
      {
        "midi": 67,
        "time": 56,
        "duration": 6,
        "velocity": 0.63,
        "hand": "right"
      },
      {
        "midi": 71,
        "time": 56,
        "duration": 2.333,
        "velocity": 0.63,
        "hand": "right"
      },
      {
        "midi": 71,
        "time": 56,
        "duration": 6,
        "velocity": 0.63,
        "hand": "right"
      },
      {
        "midi": 76,
        "time": 56,
        "duration": 2.333,
        "velocity": 0.63,
        "hand": "right"
      },
      {
        "midi": 43,
        "time": 57,
        "duration": 0.917,
        "velocity": 0.63,
        "hand": "left"
      },
      {
        "midi": 48,
        "time": 58,
        "duration": 0.917,
        "velocity": 0.63,
        "hand": "left"
      },
      {
        "midi": 52,
        "time": 58,
        "duration": 0.917,
        "velocity": 0.63,
        "hand": "left"
      },
      {
        "midi": 55,
        "time": 58,
        "duration": 0.917,
        "velocity": 0.63,
        "hand": "left"
      },
      {
        "midi": 74,
        "time": 58.333,
        "duration": 0.667,
        "velocity": 0.63,
        "hand": "right"
      },
      {
        "midi": 59,
        "time": 59,
        "duration": 0.917,
        "velocity": 0.63,
        "hand": "left"
      },
      {
        "midi": 69,
        "time": 59.333,
        "duration": 0.333,
        "velocity": 0.63,
        "hand": "right"
      },
      {
        "midi": 72,
        "time": 59.667,
        "duration": 0.333,
        "velocity": 0.63,
        "hand": "right"
      },
      {
        "midi": 36,
        "time": 60,
        "duration": 0.917,
        "velocity": 0.63,
        "hand": "left"
      },
      {
        "midi": 64,
        "time": 60,
        "duration": 0.917,
        "velocity": 0.63,
        "hand": "right"
      },
      {
        "midi": 71,
        "time": 60,
        "duration": 0.917,
        "velocity": 0.63,
        "hand": "right"
      },
      {
        "midi": 43,
        "time": 61,
        "duration": 0.917,
        "velocity": 0.63,
        "hand": "left"
      },
      {
        "midi": 71,
        "time": 61,
        "duration": 0.917,
        "velocity": 0.63,
        "hand": "right"
      },
      {
        "midi": 38,
        "time": 62,
        "duration": 1,
        "velocity": 0.63,
        "hand": "left"
      },
      {
        "midi": 38,
        "time": 62,
        "duration": 0.917,
        "velocity": 0.63,
        "hand": "left"
      },
      {
        "midi": 60,
        "time": 62,
        "duration": 1,
        "velocity": 0.63,
        "hand": "right"
      },
      {
        "midi": 64,
        "time": 62,
        "duration": 1,
        "velocity": 0.63,
        "hand": "right"
      },
      {
        "midi": 69,
        "time": 62,
        "duration": 0.917,
        "velocity": 0.63,
        "hand": "right"
      },
      {
        "midi": 69,
        "time": 62,
        "duration": 1,
        "velocity": 0.63,
        "hand": "right"
      },
      {
        "midi": 72,
        "time": 62,
        "duration": 0.917,
        "velocity": 0.63,
        "hand": "right"
      },
      {
        "midi": 40,
        "time": 63,
        "duration": 1,
        "velocity": 0.63,
        "hand": "left"
      },
      {
        "midi": 40,
        "time": 63,
        "duration": 0.917,
        "velocity": 0.63,
        "hand": "left"
      },
      {
        "midi": 62,
        "time": 63,
        "duration": 1,
        "velocity": 0.63,
        "hand": "right"
      },
      {
        "midi": 64,
        "time": 63,
        "duration": 1,
        "velocity": 0.63,
        "hand": "right"
      },
      {
        "midi": 68,
        "time": 63,
        "duration": 0.917,
        "velocity": 0.63,
        "hand": "right"
      },
      {
        "midi": 68,
        "time": 63,
        "duration": 1,
        "velocity": 0.63,
        "hand": "right"
      },
      {
        "midi": 71,
        "time": 63,
        "duration": 1,
        "velocity": 0.63,
        "hand": "right"
      },
      {
        "midi": 74,
        "time": 63,
        "duration": 0.917,
        "velocity": 0.63,
        "hand": "right"
      },
      {
        "midi": 41,
        "time": 64,
        "duration": 6,
        "velocity": 0.63,
        "hand": "left"
      },
      {
        "midi": 41,
        "time": 64,
        "duration": 0.917,
        "velocity": 0.63,
        "hand": "left"
      },
      {
        "midi": 60,
        "time": 64,
        "duration": 6,
        "velocity": 0.63,
        "hand": "right"
      },
      {
        "midi": 64,
        "time": 64,
        "duration": 6,
        "velocity": 0.63,
        "hand": "right"
      },
      {
        "midi": 65,
        "time": 64,
        "duration": 6,
        "velocity": 0.63,
        "hand": "right"
      },
      {
        "midi": 69,
        "time": 64,
        "duration": 3.833,
        "velocity": 0.63,
        "hand": "right"
      },
      {
        "midi": 69,
        "time": 64,
        "duration": 6,
        "velocity": 0.63,
        "hand": "right"
      },
      {
        "midi": 76,
        "time": 64,
        "duration": 3.833,
        "velocity": 0.63,
        "hand": "right"
      },
      {
        "midi": 48,
        "time": 65,
        "duration": 0.917,
        "velocity": 0.63,
        "hand": "left"
      },
      {
        "midi": 52,
        "time": 66,
        "duration": 0.917,
        "velocity": 0.63,
        "hand": "left"
      },
      {
        "midi": 53,
        "time": 66,
        "duration": 0.917,
        "velocity": 0.63,
        "hand": "left"
      },
      {
        "midi": 57,
        "time": 66,
        "duration": 0.917,
        "velocity": 0.63,
        "hand": "left"
      },
      {
        "midi": 60,
        "time": 67,
        "duration": 0.917,
        "velocity": 0.63,
        "hand": "right"
      },
      {
        "midi": 41,
        "time": 68,
        "duration": 0.917,
        "velocity": 0.63,
        "hand": "left"
      },
      {
        "midi": 69,
        "time": 68,
        "duration": 0.917,
        "velocity": 0.63,
        "hand": "right"
      },
      {
        "midi": 48,
        "time": 69,
        "duration": 0.917,
        "velocity": 0.63,
        "hand": "left"
      },
      {
        "midi": 71,
        "time": 69,
        "duration": 0.917,
        "velocity": 0.63,
        "hand": "right"
      },
      {
        "midi": 41,
        "time": 70,
        "duration": 2,
        "velocity": 0.63,
        "hand": "left"
      },
      {
        "midi": 53,
        "time": 70,
        "duration": 0.917,
        "velocity": 0.63,
        "hand": "left"
      },
      {
        "midi": 56,
        "time": 70,
        "duration": 0.917,
        "velocity": 0.63,
        "hand": "left"
      },
      {
        "midi": 60,
        "time": 70,
        "duration": 2,
        "velocity": 0.63,
        "hand": "right"
      },
      {
        "midi": 60,
        "time": 70,
        "duration": 0.917,
        "velocity": 0.63,
        "hand": "right"
      },
      {
        "midi": 65,
        "time": 70,
        "duration": 2,
        "velocity": 0.63,
        "hand": "right"
      },
      {
        "midi": 68,
        "time": 70,
        "duration": 2,
        "velocity": 0.63,
        "hand": "right"
      },
      {
        "midi": 79,
        "time": 70,
        "duration": 0.917,
        "velocity": 0.63,
        "hand": "right"
      },
      {
        "midi": 62,
        "time": 71,
        "duration": 0.917,
        "velocity": 0.63,
        "hand": "right"
      },
      {
        "midi": 77,
        "time": 71,
        "duration": 0.917,
        "velocity": 0.63,
        "hand": "right"
      },
      {
        "midi": 36,
        "time": 72,
        "duration": 6,
        "velocity": 0.63,
        "hand": "left"
      },
      {
        "midi": 36,
        "time": 72,
        "duration": 0.917,
        "velocity": 0.63,
        "hand": "left"
      },
      {
        "midi": 60,
        "time": 72,
        "duration": 6,
        "velocity": 0.63,
        "hand": "right"
      },
      {
        "midi": 64,
        "time": 72,
        "duration": 6,
        "velocity": 0.63,
        "hand": "right"
      },
      {
        "midi": 67,
        "time": 72,
        "duration": 6,
        "velocity": 0.63,
        "hand": "right"
      },
      {
        "midi": 71,
        "time": 72,
        "duration": 2.833,
        "velocity": 0.63,
        "hand": "right"
      },
      {
        "midi": 71,
        "time": 72,
        "duration": 6,
        "velocity": 0.63,
        "hand": "right"
      },
      {
        "midi": 76,
        "time": 72,
        "duration": 2.833,
        "velocity": 0.63,
        "hand": "right"
      },
      {
        "midi": 43,
        "time": 73,
        "duration": 0.917,
        "velocity": 0.63,
        "hand": "left"
      },
      {
        "midi": 48,
        "time": 74,
        "duration": 0.917,
        "velocity": 0.63,
        "hand": "left"
      },
      {
        "midi": 52,
        "time": 74,
        "duration": 0.917,
        "velocity": 0.63,
        "hand": "left"
      },
      {
        "midi": 55,
        "time": 74,
        "duration": 0.917,
        "velocity": 0.63,
        "hand": "left"
      },
      {
        "midi": 59,
        "time": 75,
        "duration": 0.917,
        "velocity": 0.63,
        "hand": "left"
      },
      {
        "midi": 69,
        "time": 75.333,
        "duration": 0.333,
        "velocity": 0.63,
        "hand": "right"
      },
      {
        "midi": 72,
        "time": 75.667,
        "duration": 0.333,
        "velocity": 0.63,
        "hand": "right"
      },
      {
        "midi": 36,
        "time": 76,
        "duration": 0.917,
        "velocity": 0.63,
        "hand": "left"
      },
      {
        "midi": 64,
        "time": 76,
        "duration": 2,
        "velocity": 0.63,
        "hand": "right"
      },
      {
        "midi": 71,
        "time": 76,
        "duration": 2,
        "velocity": 0.63,
        "hand": "right"
      },
      {
        "midi": 43,
        "time": 77,
        "duration": 0.917,
        "velocity": 0.63,
        "hand": "left"
      },
      {
        "midi": 38,
        "time": 78,
        "duration": 1,
        "velocity": 0.63,
        "hand": "left"
      },
      {
        "midi": 38,
        "time": 78,
        "duration": 0.917,
        "velocity": 0.63,
        "hand": "left"
      },
      {
        "midi": 60,
        "time": 78,
        "duration": 1,
        "velocity": 0.63,
        "hand": "right"
      },
      {
        "midi": 64,
        "time": 78,
        "duration": 0.917,
        "velocity": 0.63,
        "hand": "right"
      },
      {
        "midi": 64,
        "time": 78,
        "duration": 1,
        "velocity": 0.63,
        "hand": "right"
      },
      {
        "midi": 67,
        "time": 78,
        "duration": 1,
        "velocity": 0.63,
        "hand": "right"
      },
      {
        "midi": 70,
        "time": 78,
        "duration": 0.917,
        "velocity": 0.63,
        "hand": "right"
      },
      {
        "midi": 70,
        "time": 78,
        "duration": 1,
        "velocity": 0.63,
        "hand": "right"
      },
      {
        "midi": 40,
        "time": 79,
        "duration": 1,
        "velocity": 0.63,
        "hand": "left"
      },
      {
        "midi": 40,
        "time": 79,
        "duration": 0.917,
        "velocity": 0.63,
        "hand": "left"
      },
      {
        "midi": 60,
        "time": 79,
        "duration": 1,
        "velocity": 0.63,
        "hand": "right"
      },
      {
        "midi": 64,
        "time": 79,
        "duration": 1,
        "velocity": 0.63,
        "hand": "right"
      },
      {
        "midi": 67,
        "time": 79,
        "duration": 1,
        "velocity": 0.63,
        "hand": "right"
      },
      {
        "midi": 70,
        "time": 79,
        "duration": 0.917,
        "velocity": 0.63,
        "hand": "right"
      },
      {
        "midi": 70,
        "time": 79,
        "duration": 1,
        "velocity": 0.63,
        "hand": "right"
      },
      {
        "midi": 41,
        "time": 80,
        "duration": 4,
        "velocity": 0.63,
        "hand": "left"
      },
      {
        "midi": 41,
        "time": 80,
        "duration": 0.917,
        "velocity": 0.63,
        "hand": "left"
      },
      {
        "midi": 57,
        "time": 80,
        "duration": 0.167,
        "velocity": 0.63,
        "hand": "left"
      },
      {
        "midi": 60,
        "time": 80,
        "duration": 4,
        "velocity": 0.63,
        "hand": "right"
      },
      {
        "midi": 64,
        "time": 80,
        "duration": 0.167,
        "velocity": 0.63,
        "hand": "right"
      },
      {
        "midi": 64,
        "time": 80,
        "duration": 4,
        "velocity": 0.63,
        "hand": "right"
      },
      {
        "midi": 65,
        "time": 80,
        "duration": 4,
        "velocity": 0.63,
        "hand": "right"
      },
      {
        "midi": 69,
        "time": 80,
        "duration": 4,
        "velocity": 0.63,
        "hand": "right"
      },
      {
        "midi": 64,
        "time": 80.167,
        "duration": 0.167,
        "velocity": 0.63,
        "hand": "right"
      },
      {
        "midi": 64,
        "time": 80.333,
        "duration": 0.167,
        "velocity": 0.63,
        "hand": "right"
      },
      {
        "midi": 64,
        "time": 80.5,
        "duration": 0.167,
        "velocity": 0.63,
        "hand": "right"
      },
      {
        "midi": 64,
        "time": 80.667,
        "duration": 0.167,
        "velocity": 0.63,
        "hand": "right"
      },
      {
        "midi": 62,
        "time": 80.833,
        "duration": 0.167,
        "velocity": 0.63,
        "hand": "right"
      },
      {
        "midi": 41,
        "time": 81,
        "duration": 0.917,
        "velocity": 0.63,
        "hand": "left"
      },
      {
        "midi": 41,
        "time": 82,
        "duration": 0.917,
        "velocity": 0.63,
        "hand": "left"
      },
      {
        "midi": 57,
        "time": 82,
        "duration": 0.167,
        "velocity": 0.63,
        "hand": "left"
      },
      {
        "midi": 64,
        "time": 82,
        "duration": 0.167,
        "velocity": 0.63,
        "hand": "right"
      },
      {
        "midi": 64,
        "time": 82.167,
        "duration": 0.167,
        "velocity": 0.63,
        "hand": "right"
      },
      {
        "midi": 64,
        "time": 82.333,
        "duration": 0.167,
        "velocity": 0.63,
        "hand": "right"
      },
      {
        "midi": 64,
        "time": 82.5,
        "duration": 0.167,
        "velocity": 0.63,
        "hand": "right"
      },
      {
        "midi": 64,
        "time": 82.667,
        "duration": 0.333,
        "velocity": 0.63,
        "hand": "right"
      },
      {
        "midi": 41,
        "time": 83,
        "duration": 0.917,
        "velocity": 0.63,
        "hand": "left"
      },
      {
        "midi": 64,
        "time": 83,
        "duration": 0.167,
        "velocity": 0.63,
        "hand": "right"
      },
      {
        "midi": 64,
        "time": 83.167,
        "duration": 0.167,
        "velocity": 0.63,
        "hand": "right"
      },
      {
        "midi": 64,
        "time": 83.333,
        "duration": 0.167,
        "velocity": 0.63,
        "hand": "right"
      },
      {
        "midi": 64,
        "time": 83.5,
        "duration": 0.167,
        "velocity": 0.63,
        "hand": "right"
      },
      {
        "midi": 64,
        "time": 83.667,
        "duration": 0.333,
        "velocity": 0.63,
        "hand": "right"
      },
      {
        "midi": 40,
        "time": 84,
        "duration": 3,
        "velocity": 0.63,
        "hand": "left"
      },
      {
        "midi": 40,
        "time": 84,
        "duration": 0.917,
        "velocity": 0.63,
        "hand": "left"
      },
      {
        "midi": 55,
        "time": 84,
        "duration": 0.167,
        "velocity": 0.63,
        "hand": "left"
      },
      {
        "midi": 60,
        "time": 84,
        "duration": 3,
        "velocity": 0.63,
        "hand": "right"
      },
      {
        "midi": 64,
        "time": 84,
        "duration": 0.167,
        "velocity": 0.63,
        "hand": "right"
      },
      {
        "midi": 64,
        "time": 84,
        "duration": 3,
        "velocity": 0.63,
        "hand": "right"
      },
      {
        "midi": 67,
        "time": 84,
        "duration": 3,
        "velocity": 0.63,
        "hand": "right"
      },
      {
        "midi": 64,
        "time": 84.167,
        "duration": 0.167,
        "velocity": 0.63,
        "hand": "right"
      },
      {
        "midi": 64,
        "time": 84.333,
        "duration": 0.167,
        "velocity": 0.63,
        "hand": "right"
      },
      {
        "midi": 64,
        "time": 84.5,
        "duration": 0.167,
        "velocity": 0.63,
        "hand": "right"
      },
      {
        "midi": 64,
        "time": 84.667,
        "duration": 0.167,
        "velocity": 0.63,
        "hand": "right"
      },
      {
        "midi": 62,
        "time": 84.833,
        "duration": 0.167,
        "velocity": 0.63,
        "hand": "right"
      },
      {
        "midi": 40,
        "time": 85,
        "duration": 0.917,
        "velocity": 0.63,
        "hand": "left"
      },
      {
        "midi": 40,
        "time": 86,
        "duration": 0.917,
        "velocity": 0.63,
        "hand": "left"
      },
      {
        "midi": 55,
        "time": 86,
        "duration": 0.167,
        "velocity": 0.63,
        "hand": "left"
      },
      {
        "midi": 64,
        "time": 86,
        "duration": 0.167,
        "velocity": 0.63,
        "hand": "right"
      },
      {
        "midi": 64,
        "time": 86.167,
        "duration": 0.167,
        "velocity": 0.63,
        "hand": "right"
      },
      {
        "midi": 64,
        "time": 86.333,
        "duration": 0.167,
        "velocity": 0.63,
        "hand": "right"
      },
      {
        "midi": 64,
        "time": 86.5,
        "duration": 0.167,
        "velocity": 0.63,
        "hand": "right"
      },
      {
        "midi": 64,
        "time": 86.667,
        "duration": 0.333,
        "velocity": 0.63,
        "hand": "right"
      },
      {
        "midi": 39,
        "time": 87,
        "duration": 1,
        "velocity": 0.63,
        "hand": "left"
      },
      {
        "midi": 39,
        "time": 87,
        "duration": 0.917,
        "velocity": 0.63,
        "hand": "left"
      },
      {
        "midi": 55,
        "time": 87,
        "duration": 0.167,
        "velocity": 0.63,
        "hand": "left"
      },
      {
        "midi": 60,
        "time": 87,
        "duration": 1,
        "velocity": 0.63,
        "hand": "right"
      },
      {
        "midi": 64,
        "time": 87,
        "duration": 0.167,
        "velocity": 0.63,
        "hand": "right"
      },
      {
        "midi": 64,
        "time": 87,
        "duration": 1,
        "velocity": 0.63,
        "hand": "right"
      },
      {
        "midi": 67,
        "time": 87,
        "duration": 1,
        "velocity": 0.63,
        "hand": "right"
      },
      {
        "midi": 64,
        "time": 87.167,
        "duration": 0.167,
        "velocity": 0.63,
        "hand": "right"
      },
      {
        "midi": 64,
        "time": 87.333,
        "duration": 0.167,
        "velocity": 0.63,
        "hand": "right"
      },
      {
        "midi": 64,
        "time": 87.5,
        "duration": 0.167,
        "velocity": 0.63,
        "hand": "right"
      },
      {
        "midi": 64,
        "time": 87.667,
        "duration": 0.333,
        "velocity": 0.63,
        "hand": "right"
      },
      {
        "midi": 38,
        "time": 88,
        "duration": 4,
        "velocity": 0.63,
        "hand": "left"
      },
      {
        "midi": 38,
        "time": 88,
        "duration": 0.917,
        "velocity": 0.63,
        "hand": "left"
      },
      {
        "midi": 60,
        "time": 88,
        "duration": 0.167,
        "velocity": 0.63,
        "hand": "right"
      },
      {
        "midi": 60,
        "time": 88,
        "duration": 4,
        "velocity": 0.63,
        "hand": "right"
      },
      {
        "midi": 62,
        "time": 88,
        "duration": 4,
        "velocity": 0.63,
        "hand": "right"
      },
      {
        "midi": 64,
        "time": 88,
        "duration": 0.167,
        "velocity": 0.63,
        "hand": "right"
      },
      {
        "midi": 65,
        "time": 88,
        "duration": 4,
        "velocity": 0.63,
        "hand": "right"
      },
      {
        "midi": 69,
        "time": 88,
        "duration": 4,
        "velocity": 0.63,
        "hand": "right"
      },
      {
        "midi": 62,
        "time": 88.167,
        "duration": 0.167,
        "velocity": 0.63,
        "hand": "right"
      },
      {
        "midi": 64,
        "time": 88.333,
        "duration": 0.167,
        "velocity": 0.63,
        "hand": "right"
      },
      {
        "midi": 62,
        "time": 88.5,
        "duration": 0.167,
        "velocity": 0.63,
        "hand": "right"
      },
      {
        "midi": 64,
        "time": 88.667,
        "duration": 0.167,
        "velocity": 0.63,
        "hand": "right"
      },
      {
        "midi": 62,
        "time": 88.833,
        "duration": 0.167,
        "velocity": 0.63,
        "hand": "right"
      },
      {
        "midi": 38,
        "time": 89,
        "duration": 0.917,
        "velocity": 0.63,
        "hand": "left"
      },
      {
        "midi": 38,
        "time": 90,
        "duration": 0.917,
        "velocity": 0.63,
        "hand": "left"
      },
      {
        "midi": 60,
        "time": 90,
        "duration": 0.167,
        "velocity": 0.63,
        "hand": "right"
      },
      {
        "midi": 64,
        "time": 90,
        "duration": 0.167,
        "velocity": 0.63,
        "hand": "right"
      },
      {
        "midi": 62,
        "time": 90.167,
        "duration": 0.167,
        "velocity": 0.63,
        "hand": "right"
      },
      {
        "midi": 64,
        "time": 90.333,
        "duration": 0.167,
        "velocity": 0.63,
        "hand": "right"
      },
      {
        "midi": 62,
        "time": 90.5,
        "duration": 0.167,
        "velocity": 0.63,
        "hand": "right"
      },
      {
        "midi": 64,
        "time": 90.667,
        "duration": 0.167,
        "velocity": 0.63,
        "hand": "right"
      },
      {
        "midi": 62,
        "time": 90.833,
        "duration": 0.167,
        "velocity": 0.63,
        "hand": "right"
      },
      {
        "midi": 38,
        "time": 91,
        "duration": 0.917,
        "velocity": 0.63,
        "hand": "left"
      },
      {
        "midi": 36,
        "time": 92,
        "duration": 4,
        "velocity": 0.63,
        "hand": "left"
      },
      {
        "midi": 36,
        "time": 92,
        "duration": 0.917,
        "velocity": 0.63,
        "hand": "left"
      },
      {
        "midi": 59,
        "time": 92,
        "duration": 0.167,
        "velocity": 0.63,
        "hand": "left"
      },
      {
        "midi": 60,
        "time": 92,
        "duration": 4,
        "velocity": 0.63,
        "hand": "right"
      },
      {
        "midi": 64,
        "time": 92,
        "duration": 0.167,
        "velocity": 0.63,
        "hand": "right"
      },
      {
        "midi": 64,
        "time": 92,
        "duration": 4,
        "velocity": 0.63,
        "hand": "right"
      },
      {
        "midi": 67,
        "time": 92,
        "duration": 4,
        "velocity": 0.63,
        "hand": "right"
      },
      {
        "midi": 71,
        "time": 92,
        "duration": 4,
        "velocity": 0.63,
        "hand": "right"
      },
      {
        "midi": 64,
        "time": 92.167,
        "duration": 0.167,
        "velocity": 0.63,
        "hand": "right"
      },
      {
        "midi": 64,
        "time": 92.333,
        "duration": 0.167,
        "velocity": 0.63,
        "hand": "right"
      },
      {
        "midi": 64,
        "time": 92.5,
        "duration": 0.083,
        "velocity": 0.63,
        "hand": "right"
      },
      {
        "midi": 64,
        "time": 92.583,
        "duration": 0.083,
        "velocity": 0.63,
        "hand": "right"
      },
      {
        "midi": 62,
        "time": 92.667,
        "duration": 0.167,
        "velocity": 0.63,
        "hand": "right"
      },
      {
        "midi": 62,
        "time": 92.833,
        "duration": 0.167,
        "velocity": 0.63,
        "hand": "right"
      },
      {
        "midi": 36,
        "time": 93,
        "duration": 0.917,
        "velocity": 0.63,
        "hand": "left"
      },
      {
        "midi": 59,
        "time": 93,
        "duration": 0.167,
        "velocity": 0.63,
        "hand": "left"
      },
      {
        "midi": 64,
        "time": 93,
        "duration": 0.167,
        "velocity": 0.63,
        "hand": "right"
      },
      {
        "midi": 64,
        "time": 93.167,
        "duration": 0.167,
        "velocity": 0.63,
        "hand": "right"
      },
      {
        "midi": 64,
        "time": 93.333,
        "duration": 0.167,
        "velocity": 0.63,
        "hand": "right"
      },
      {
        "midi": 64,
        "time": 93.5,
        "duration": 0.083,
        "velocity": 0.63,
        "hand": "right"
      },
      {
        "midi": 64,
        "time": 93.583,
        "duration": 0.083,
        "velocity": 0.63,
        "hand": "right"
      },
      {
        "midi": 62,
        "time": 93.667,
        "duration": 0.167,
        "velocity": 0.63,
        "hand": "right"
      },
      {
        "midi": 62,
        "time": 93.833,
        "duration": 0.167,
        "velocity": 0.63,
        "hand": "right"
      },
      {
        "midi": 36,
        "time": 94,
        "duration": 0.917,
        "velocity": 0.63,
        "hand": "left"
      },
      {
        "midi": 59,
        "time": 94,
        "duration": 0.167,
        "velocity": 0.63,
        "hand": "left"
      },
      {
        "midi": 64,
        "time": 94,
        "duration": 0.167,
        "velocity": 0.63,
        "hand": "right"
      },
      {
        "midi": 64,
        "time": 94.167,
        "duration": 0.167,
        "velocity": 0.63,
        "hand": "right"
      },
      {
        "midi": 64,
        "time": 94.333,
        "duration": 0.333,
        "velocity": 0.63,
        "hand": "right"
      },
      {
        "midi": 62,
        "time": 94.667,
        "duration": 0.167,
        "velocity": 0.63,
        "hand": "right"
      },
      {
        "midi": 60,
        "time": 94.833,
        "duration": 0.5,
        "velocity": 0.63,
        "hand": "right"
      },
      {
        "midi": 36,
        "time": 95,
        "duration": 0.917,
        "velocity": 0.63,
        "hand": "left"
      },
      {
        "midi": 64,
        "time": 95.333,
        "duration": 0.333,
        "velocity": 0.63,
        "hand": "right"
      },
      {
        "midi": 67,
        "time": 95.667,
        "duration": 0.333,
        "velocity": 0.63,
        "hand": "right"
      },
      {
        "midi": 41,
        "time": 96,
        "duration": 4,
        "velocity": 0.63,
        "hand": "left"
      },
      {
        "midi": 41,
        "time": 96,
        "duration": 0.917,
        "velocity": 0.63,
        "hand": "left"
      },
      {
        "midi": 60,
        "time": 96,
        "duration": 4,
        "velocity": 0.63,
        "hand": "right"
      },
      {
        "midi": 64,
        "time": 96,
        "duration": 0.917,
        "velocity": 0.63,
        "hand": "right"
      },
      {
        "midi": 64,
        "time": 96,
        "duration": 4,
        "velocity": 0.63,
        "hand": "right"
      },
      {
        "midi": 65,
        "time": 96,
        "duration": 4,
        "velocity": 0.63,
        "hand": "right"
      },
      {
        "midi": 69,
        "time": 96,
        "duration": 0.917,
        "velocity": 0.63,
        "hand": "right"
      },
      {
        "midi": 69,
        "time": 96,
        "duration": 4,
        "velocity": 0.63,
        "hand": "right"
      },
      {
        "midi": 48,
        "time": 97,
        "duration": 0.917,
        "velocity": 0.63,
        "hand": "left"
      },
      {
        "midi": 69,
        "time": 97.333,
        "duration": 0.333,
        "velocity": 0.63,
        "hand": "right"
      },
      {
        "midi": 71,
        "time": 97.667,
        "duration": 0.167,
        "velocity": 0.63,
        "hand": "right"
      },
      {
        "midi": 64,
        "time": 97.833,
        "duration": 1.083,
        "velocity": 0.63,
        "hand": "right"
      },
      {
        "midi": 72,
        "time": 97.833,
        "duration": 1.083,
        "velocity": 0.63,
        "hand": "right"
      },
      {
        "midi": 41,
        "time": 98,
        "duration": 0.917,
        "velocity": 0.63,
        "hand": "left"
      },
      {
        "midi": 48,
        "time": 99,
        "duration": 0.917,
        "velocity": 0.63,
        "hand": "left"
      },
      {
        "midi": 69,
        "time": 99.333,
        "duration": 0.333,
        "velocity": 0.63,
        "hand": "right"
      },
      {
        "midi": 72,
        "time": 99.667,
        "duration": 0.333,
        "velocity": 0.63,
        "hand": "right"
      },
      {
        "midi": 40,
        "time": 100,
        "duration": 2,
        "velocity": 0.63,
        "hand": "left"
      },
      {
        "midi": 40,
        "time": 100,
        "duration": 0.917,
        "velocity": 0.63,
        "hand": "left"
      },
      {
        "midi": 64,
        "time": 100,
        "duration": 2,
        "velocity": 0.63,
        "hand": "right"
      },
      {
        "midi": 67,
        "time": 100,
        "duration": 0.333,
        "velocity": 0.63,
        "hand": "right"
      },
      {
        "midi": 67,
        "time": 100,
        "duration": 2,
        "velocity": 0.63,
        "hand": "right"
      },
      {
        "midi": 71,
        "time": 100,
        "duration": 0.333,
        "velocity": 0.63,
        "hand": "right"
      },
      {
        "midi": 71,
        "time": 100,
        "duration": 2,
        "velocity": 0.63,
        "hand": "right"
      },
      {
        "midi": 69,
        "time": 100.333,
        "duration": 0.333,
        "velocity": 0.63,
        "hand": "right"
      },
      {
        "midi": 67,
        "time": 100.667,
        "duration": 0.333,
        "velocity": 0.63,
        "hand": "right"
      },
      {
        "midi": 47,
        "time": 101,
        "duration": 0.917,
        "velocity": 0.63,
        "hand": "left"
      },
      {
        "midi": 67,
        "time": 101,
        "duration": 0.667,
        "velocity": 0.63,
        "hand": "right"
      },
      {
        "midi": 64,
        "time": 101.667,
        "duration": 0.333,
        "velocity": 0.63,
        "hand": "right"
      },
      {
        "midi": 40,
        "time": 102,
        "duration": 1,
        "velocity": 0.63,
        "hand": "left"
      },
      {
        "midi": 40,
        "time": 102,
        "duration": 0.917,
        "velocity": 0.63,
        "hand": "left"
      },
      {
        "midi": 60,
        "time": 102,
        "duration": 1,
        "velocity": 0.63,
        "hand": "right"
      },
      {
        "midi": 64,
        "time": 102,
        "duration": 1,
        "velocity": 0.63,
        "hand": "right"
      },
      {
        "midi": 67,
        "time": 102,
        "duration": 0.333,
        "velocity": 0.63,
        "hand": "right"
      },
      {
        "midi": 67,
        "time": 102,
        "duration": 1,
        "velocity": 0.63,
        "hand": "right"
      },
      {
        "midi": 71,
        "time": 102,
        "duration": 0.333,
        "velocity": 0.63,
        "hand": "right"
      },
      {
        "midi": 69,
        "time": 102.333,
        "duration": 0.333,
        "velocity": 0.63,
        "hand": "right"
      },
      {
        "midi": 67,
        "time": 102.667,
        "duration": 0.333,
        "velocity": 0.63,
        "hand": "right"
      },
      {
        "midi": 39,
        "time": 103,
        "duration": 1,
        "velocity": 0.63,
        "hand": "left"
      },
      {
        "midi": 39,
        "time": 103,
        "duration": 0.917,
        "velocity": 0.63,
        "hand": "left"
      },
      {
        "midi": 60,
        "time": 103,
        "duration": 1,
        "velocity": 0.63,
        "hand": "right"
      },
      {
        "midi": 64,
        "time": 103,
        "duration": 1,
        "velocity": 0.63,
        "hand": "right"
      },
      {
        "midi": 67,
        "time": 103,
        "duration": 0.333,
        "velocity": 0.63,
        "hand": "right"
      },
      {
        "midi": 67,
        "time": 103,
        "duration": 1,
        "velocity": 0.63,
        "hand": "right"
      },
      {
        "midi": 71,
        "time": 103,
        "duration": 0.333,
        "velocity": 0.63,
        "hand": "right"
      },
      {
        "midi": 69,
        "time": 103.333,
        "duration": 0.333,
        "velocity": 0.63,
        "hand": "right"
      },
      {
        "midi": 67,
        "time": 103.667,
        "duration": 0.333,
        "velocity": 0.63,
        "hand": "right"
      },
      {
        "midi": 38,
        "time": 104,
        "duration": 4,
        "velocity": 0.63,
        "hand": "left"
      },
      {
        "midi": 38,
        "time": 104,
        "duration": 0.917,
        "velocity": 0.63,
        "hand": "left"
      },
      {
        "midi": 60,
        "time": 104,
        "duration": 4,
        "velocity": 0.63,
        "hand": "right"
      },
      {
        "midi": 62,
        "time": 104,
        "duration": 4,
        "velocity": 0.63,
        "hand": "right"
      },
      {
        "midi": 65,
        "time": 104,
        "duration": 4,
        "velocity": 0.63,
        "hand": "right"
      },
      {
        "midi": 67,
        "time": 104,
        "duration": 0.167,
        "velocity": 0.63,
        "hand": "right"
      },
      {
        "midi": 69,
        "time": 104,
        "duration": 4,
        "velocity": 0.63,
        "hand": "right"
      },
      {
        "midi": 60,
        "time": 104.167,
        "duration": 1.75,
        "velocity": 0.63,
        "hand": "right"
      },
      {
        "midi": 65,
        "time": 104.167,
        "duration": 1.75,
        "velocity": 0.63,
        "hand": "right"
      },
      {
        "midi": 45,
        "time": 105,
        "duration": 0.917,
        "velocity": 0.63,
        "hand": "left"
      },
      {
        "midi": 38,
        "time": 106,
        "duration": 0.917,
        "velocity": 0.63,
        "hand": "left"
      },
      {
        "midi": 60,
        "time": 106.667,
        "duration": 0.333,
        "velocity": 0.63,
        "hand": "right"
      },
      {
        "midi": 45,
        "time": 107,
        "duration": 0.917,
        "velocity": 0.63,
        "hand": "left"
      },
      {
        "midi": 67,
        "time": 107,
        "duration": 0.333,
        "velocity": 0.63,
        "hand": "right"
      },
      {
        "midi": 65,
        "time": 107.333,
        "duration": 0.333,
        "velocity": 0.63,
        "hand": "right"
      },
      {
        "midi": 64,
        "time": 107.667,
        "duration": 0.167,
        "velocity": 0.63,
        "hand": "right"
      },
      {
        "midi": 59,
        "time": 107.833,
        "duration": 1.083,
        "velocity": 0.63,
        "hand": "left"
      },
      {
        "midi": 64,
        "time": 107.833,
        "duration": 1.083,
        "velocity": 0.63,
        "hand": "right"
      },
      {
        "midi": 36,
        "time": 108,
        "duration": 4,
        "velocity": 0.63,
        "hand": "left"
      },
      {
        "midi": 36,
        "time": 108,
        "duration": 0.917,
        "velocity": 0.63,
        "hand": "left"
      },
      {
        "midi": 60,
        "time": 108,
        "duration": 4,
        "velocity": 0.63,
        "hand": "right"
      },
      {
        "midi": 64,
        "time": 108,
        "duration": 4,
        "velocity": 0.63,
        "hand": "right"
      },
      {
        "midi": 67,
        "time": 108,
        "duration": 4,
        "velocity": 0.63,
        "hand": "right"
      },
      {
        "midi": 71,
        "time": 108,
        "duration": 4,
        "velocity": 0.63,
        "hand": "right"
      },
      {
        "midi": 43,
        "time": 109,
        "duration": 0.917,
        "velocity": 0.63,
        "hand": "left"
      },
      {
        "midi": 36,
        "time": 110,
        "duration": 0.917,
        "velocity": 0.63,
        "hand": "left"
      },
      {
        "midi": 59,
        "time": 110,
        "duration": 0.167,
        "velocity": 0.63,
        "hand": "left"
      },
      {
        "midi": 64,
        "time": 110,
        "duration": 0.167,
        "velocity": 0.63,
        "hand": "right"
      },
      {
        "midi": 64,
        "time": 110.167,
        "duration": 0.167,
        "velocity": 0.63,
        "hand": "right"
      },
      {
        "midi": 64,
        "time": 110.333,
        "duration": 0.333,
        "velocity": 0.63,
        "hand": "right"
      },
      {
        "midi": 62,
        "time": 110.667,
        "duration": 0.167,
        "velocity": 0.63,
        "hand": "right"
      },
      {
        "midi": 60,
        "time": 110.833,
        "duration": 0.5,
        "velocity": 0.63,
        "hand": "right"
      },
      {
        "midi": 43,
        "time": 111,
        "duration": 0.917,
        "velocity": 0.63,
        "hand": "left"
      },
      {
        "midi": 64,
        "time": 111.333,
        "duration": 0.333,
        "velocity": 0.63,
        "hand": "right"
      },
      {
        "midi": 67,
        "time": 111.667,
        "duration": 0.333,
        "velocity": 0.63,
        "hand": "right"
      },
      {
        "midi": 41,
        "time": 112,
        "duration": 4,
        "velocity": 0.63,
        "hand": "left"
      },
      {
        "midi": 41,
        "time": 112,
        "duration": 0.917,
        "velocity": 0.63,
        "hand": "left"
      },
      {
        "midi": 60,
        "time": 112,
        "duration": 4,
        "velocity": 0.63,
        "hand": "right"
      },
      {
        "midi": 64,
        "time": 112,
        "duration": 0.917,
        "velocity": 0.63,
        "hand": "right"
      },
      {
        "midi": 64,
        "time": 112,
        "duration": 4,
        "velocity": 0.63,
        "hand": "right"
      },
      {
        "midi": 65,
        "time": 112,
        "duration": 4,
        "velocity": 0.63,
        "hand": "right"
      },
      {
        "midi": 69,
        "time": 112,
        "duration": 0.917,
        "velocity": 0.63,
        "hand": "right"
      },
      {
        "midi": 69,
        "time": 112,
        "duration": 4,
        "velocity": 0.63,
        "hand": "right"
      },
      {
        "midi": 48,
        "time": 113,
        "duration": 0.917,
        "velocity": 0.63,
        "hand": "left"
      },
      {
        "midi": 69,
        "time": 113.333,
        "duration": 0.333,
        "velocity": 0.63,
        "hand": "right"
      },
      {
        "midi": 71,
        "time": 113.667,
        "duration": 0.167,
        "velocity": 0.63,
        "hand": "right"
      },
      {
        "midi": 64,
        "time": 113.833,
        "duration": 1.083,
        "velocity": 0.63,
        "hand": "right"
      },
      {
        "midi": 72,
        "time": 113.833,
        "duration": 1.083,
        "velocity": 0.63,
        "hand": "right"
      },
      {
        "midi": 41,
        "time": 114,
        "duration": 0.917,
        "velocity": 0.63,
        "hand": "left"
      },
      {
        "midi": 48,
        "time": 115,
        "duration": 0.917,
        "velocity": 0.63,
        "hand": "left"
      },
      {
        "midi": 69,
        "time": 115.333,
        "duration": 0.333,
        "velocity": 0.63,
        "hand": "right"
      },
      {
        "midi": 72,
        "time": 115.667,
        "duration": 0.333,
        "velocity": 0.63,
        "hand": "right"
      },
      {
        "midi": 40,
        "time": 116,
        "duration": 2,
        "velocity": 0.63,
        "hand": "left"
      },
      {
        "midi": 40,
        "time": 116,
        "duration": 0.917,
        "velocity": 0.63,
        "hand": "left"
      },
      {
        "midi": 64,
        "time": 116,
        "duration": 2,
        "velocity": 0.63,
        "hand": "right"
      },
      {
        "midi": 67,
        "time": 116,
        "duration": 0.333,
        "velocity": 0.63,
        "hand": "right"
      },
      {
        "midi": 67,
        "time": 116,
        "duration": 2,
        "velocity": 0.63,
        "hand": "right"
      },
      {
        "midi": 71,
        "time": 116,
        "duration": 0.333,
        "velocity": 0.63,
        "hand": "right"
      },
      {
        "midi": 71,
        "time": 116,
        "duration": 2,
        "velocity": 0.63,
        "hand": "right"
      },
      {
        "midi": 69,
        "time": 116.333,
        "duration": 0.333,
        "velocity": 0.63,
        "hand": "right"
      },
      {
        "midi": 67,
        "time": 116.667,
        "duration": 0.333,
        "velocity": 0.63,
        "hand": "right"
      },
      {
        "midi": 47,
        "time": 117,
        "duration": 0.917,
        "velocity": 0.63,
        "hand": "left"
      },
      {
        "midi": 67,
        "time": 117,
        "duration": 0.667,
        "velocity": 0.63,
        "hand": "right"
      },
      {
        "midi": 64,
        "time": 117.667,
        "duration": 0.333,
        "velocity": 0.63,
        "hand": "right"
      },
      {
        "midi": 40,
        "time": 118,
        "duration": 1,
        "velocity": 0.63,
        "hand": "left"
      },
      {
        "midi": 40,
        "time": 118,
        "duration": 0.917,
        "velocity": 0.63,
        "hand": "left"
      },
      {
        "midi": 60,
        "time": 118,
        "duration": 1,
        "velocity": 0.63,
        "hand": "right"
      },
      {
        "midi": 64,
        "time": 118,
        "duration": 1,
        "velocity": 0.63,
        "hand": "right"
      },
      {
        "midi": 67,
        "time": 118,
        "duration": 0.333,
        "velocity": 0.63,
        "hand": "right"
      },
      {
        "midi": 67,
        "time": 118,
        "duration": 1,
        "velocity": 0.63,
        "hand": "right"
      },
      {
        "midi": 71,
        "time": 118,
        "duration": 0.333,
        "velocity": 0.63,
        "hand": "right"
      },
      {
        "midi": 69,
        "time": 118.333,
        "duration": 0.333,
        "velocity": 0.63,
        "hand": "right"
      },
      {
        "midi": 67,
        "time": 118.667,
        "duration": 0.333,
        "velocity": 0.63,
        "hand": "right"
      },
      {
        "midi": 39,
        "time": 119,
        "duration": 1,
        "velocity": 0.63,
        "hand": "left"
      },
      {
        "midi": 39,
        "time": 119,
        "duration": 0.917,
        "velocity": 0.63,
        "hand": "left"
      },
      {
        "midi": 60,
        "time": 119,
        "duration": 1,
        "velocity": 0.63,
        "hand": "right"
      },
      {
        "midi": 64,
        "time": 119,
        "duration": 1,
        "velocity": 0.63,
        "hand": "right"
      },
      {
        "midi": 67,
        "time": 119,
        "duration": 0.333,
        "velocity": 0.63,
        "hand": "right"
      },
      {
        "midi": 67,
        "time": 119,
        "duration": 1,
        "velocity": 0.63,
        "hand": "right"
      },
      {
        "midi": 71,
        "time": 119,
        "duration": 0.333,
        "velocity": 0.63,
        "hand": "right"
      },
      {
        "midi": 69,
        "time": 119.333,
        "duration": 0.333,
        "velocity": 0.63,
        "hand": "right"
      },
      {
        "midi": 67,
        "time": 119.667,
        "duration": 0.333,
        "velocity": 0.63,
        "hand": "right"
      },
      {
        "midi": 38,
        "time": 120,
        "duration": 4,
        "velocity": 0.63,
        "hand": "left"
      },
      {
        "midi": 38,
        "time": 120,
        "duration": 0.917,
        "velocity": 0.63,
        "hand": "left"
      },
      {
        "midi": 60,
        "time": 120,
        "duration": 4,
        "velocity": 0.63,
        "hand": "right"
      },
      {
        "midi": 62,
        "time": 120,
        "duration": 4,
        "velocity": 0.63,
        "hand": "right"
      },
      {
        "midi": 65,
        "time": 120,
        "duration": 4,
        "velocity": 0.63,
        "hand": "right"
      },
      {
        "midi": 67,
        "time": 120,
        "duration": 0.167,
        "velocity": 0.63,
        "hand": "right"
      },
      {
        "midi": 69,
        "time": 120,
        "duration": 4,
        "velocity": 0.63,
        "hand": "right"
      },
      {
        "midi": 60,
        "time": 120.167,
        "duration": 1.75,
        "velocity": 0.63,
        "hand": "right"
      },
      {
        "midi": 65,
        "time": 120.167,
        "duration": 1.75,
        "velocity": 0.63,
        "hand": "right"
      },
      {
        "midi": 45,
        "time": 121,
        "duration": 0.917,
        "velocity": 0.63,
        "hand": "left"
      },
      {
        "midi": 38,
        "time": 122,
        "duration": 0.917,
        "velocity": 0.63,
        "hand": "left"
      },
      {
        "midi": 60,
        "time": 122.667,
        "duration": 0.333,
        "velocity": 0.63,
        "hand": "right"
      },
      {
        "midi": 45,
        "time": 123,
        "duration": 0.917,
        "velocity": 0.63,
        "hand": "left"
      },
      {
        "midi": 67,
        "time": 123,
        "duration": 0.333,
        "velocity": 0.63,
        "hand": "right"
      },
      {
        "midi": 65,
        "time": 123.333,
        "duration": 0.333,
        "velocity": 0.63,
        "hand": "right"
      },
      {
        "midi": 64,
        "time": 123.667,
        "duration": 0.333,
        "velocity": 0.63,
        "hand": "right"
      },
      {
        "midi": 40,
        "time": 124,
        "duration": 4,
        "velocity": 0.63,
        "hand": "left"
      },
      {
        "midi": 40,
        "time": 124,
        "duration": 0.333,
        "velocity": 0.63,
        "hand": "left"
      },
      {
        "midi": 56,
        "time": 124,
        "duration": 0.917,
        "velocity": 0.63,
        "hand": "left"
      },
      {
        "midi": 64,
        "time": 124,
        "duration": 0.917,
        "velocity": 0.63,
        "hand": "right"
      },
      {
        "midi": 64,
        "time": 124,
        "duration": 4,
        "velocity": 0.63,
        "hand": "right"
      },
      {
        "midi": 68,
        "time": 124,
        "duration": 4,
        "velocity": 0.63,
        "hand": "right"
      },
      {
        "midi": 71,
        "time": 124,
        "duration": 4,
        "velocity": 0.63,
        "hand": "right"
      },
      {
        "midi": 40,
        "time": 124.333,
        "duration": 0.333,
        "velocity": 0.63,
        "hand": "left"
      },
      {
        "midi": 40,
        "time": 124.667,
        "duration": 0.333,
        "velocity": 0.63,
        "hand": "left"
      },
      {
        "midi": 40,
        "time": 125,
        "duration": 0.333,
        "velocity": 0.63,
        "hand": "left"
      },
      {
        "midi": 69,
        "time": 125,
        "duration": 0.917,
        "velocity": 0.63,
        "hand": "right"
      },
      {
        "midi": 40,
        "time": 125.333,
        "duration": 0.333,
        "velocity": 0.63,
        "hand": "left"
      },
      {
        "midi": 40,
        "time": 125.667,
        "duration": 0.333,
        "velocity": 0.63,
        "hand": "left"
      },
      {
        "midi": 40,
        "time": 126,
        "duration": 0.333,
        "velocity": 0.63,
        "hand": "left"
      },
      {
        "midi": 72,
        "time": 126,
        "duration": 0.917,
        "velocity": 0.63,
        "hand": "right"
      },
      {
        "midi": 40,
        "time": 126.333,
        "duration": 0.333,
        "velocity": 0.63,
        "hand": "left"
      },
      {
        "midi": 40,
        "time": 126.667,
        "duration": 0.333,
        "velocity": 0.63,
        "hand": "left"
      },
      {
        "midi": 74,
        "time": 127,
        "duration": 0.333,
        "velocity": 0.63,
        "hand": "right"
      },
      {
        "midi": 41,
        "time": 128,
        "duration": 6,
        "velocity": 0.63,
        "hand": "left"
      },
      {
        "midi": 41,
        "time": 128,
        "duration": 0.917,
        "velocity": 0.63,
        "hand": "left"
      },
      {
        "midi": 60,
        "time": 128,
        "duration": 6,
        "velocity": 0.63,
        "hand": "right"
      },
      {
        "midi": 64,
        "time": 128,
        "duration": 6,
        "velocity": 0.63,
        "hand": "right"
      },
      {
        "midi": 65,
        "time": 128,
        "duration": 6,
        "velocity": 0.63,
        "hand": "right"
      },
      {
        "midi": 69,
        "time": 128,
        "duration": 3.833,
        "velocity": 0.63,
        "hand": "right"
      },
      {
        "midi": 69,
        "time": 128,
        "duration": 6,
        "velocity": 0.63,
        "hand": "right"
      },
      {
        "midi": 76,
        "time": 128,
        "duration": 3.833,
        "velocity": 0.63,
        "hand": "right"
      },
      {
        "midi": 48,
        "time": 129,
        "duration": 0.917,
        "velocity": 0.63,
        "hand": "left"
      },
      {
        "midi": 52,
        "time": 130,
        "duration": 0.917,
        "velocity": 0.63,
        "hand": "left"
      },
      {
        "midi": 53,
        "time": 130,
        "duration": 0.917,
        "velocity": 0.63,
        "hand": "left"
      },
      {
        "midi": 57,
        "time": 130,
        "duration": 0.917,
        "velocity": 0.63,
        "hand": "left"
      },
      {
        "midi": 60,
        "time": 131,
        "duration": 0.917,
        "velocity": 0.63,
        "hand": "right"
      },
      {
        "midi": 41,
        "time": 132,
        "duration": 0.917,
        "velocity": 0.63,
        "hand": "left"
      },
      {
        "midi": 69,
        "time": 132,
        "duration": 0.917,
        "velocity": 0.63,
        "hand": "right"
      },
      {
        "midi": 48,
        "time": 133,
        "duration": 0.917,
        "velocity": 0.63,
        "hand": "left"
      },
      {
        "midi": 71,
        "time": 133,
        "duration": 0.917,
        "velocity": 0.63,
        "hand": "right"
      },
      {
        "midi": 41,
        "time": 134,
        "duration": 2,
        "velocity": 0.63,
        "hand": "left"
      },
      {
        "midi": 53,
        "time": 134,
        "duration": 0.917,
        "velocity": 0.63,
        "hand": "left"
      },
      {
        "midi": 56,
        "time": 134,
        "duration": 0.917,
        "velocity": 0.63,
        "hand": "left"
      },
      {
        "midi": 60,
        "time": 134,
        "duration": 2,
        "velocity": 0.63,
        "hand": "right"
      },
      {
        "midi": 60,
        "time": 134,
        "duration": 0.917,
        "velocity": 0.63,
        "hand": "right"
      },
      {
        "midi": 65,
        "time": 134,
        "duration": 2,
        "velocity": 0.63,
        "hand": "right"
      },
      {
        "midi": 68,
        "time": 134,
        "duration": 2,
        "velocity": 0.63,
        "hand": "right"
      },
      {
        "midi": 79,
        "time": 134,
        "duration": 0.917,
        "velocity": 0.63,
        "hand": "right"
      },
      {
        "midi": 62,
        "time": 135,
        "duration": 0.917,
        "velocity": 0.63,
        "hand": "right"
      },
      {
        "midi": 77,
        "time": 135,
        "duration": 0.917,
        "velocity": 0.63,
        "hand": "right"
      },
      {
        "midi": 36,
        "time": 136,
        "duration": 6,
        "velocity": 0.63,
        "hand": "left"
      },
      {
        "midi": 36,
        "time": 136,
        "duration": 0.917,
        "velocity": 0.63,
        "hand": "left"
      },
      {
        "midi": 60,
        "time": 136,
        "duration": 6,
        "velocity": 0.63,
        "hand": "right"
      },
      {
        "midi": 64,
        "time": 136,
        "duration": 6,
        "velocity": 0.63,
        "hand": "right"
      },
      {
        "midi": 67,
        "time": 136,
        "duration": 6,
        "velocity": 0.63,
        "hand": "right"
      },
      {
        "midi": 71,
        "time": 136,
        "duration": 2.333,
        "velocity": 0.63,
        "hand": "right"
      },
      {
        "midi": 71,
        "time": 136,
        "duration": 6,
        "velocity": 0.63,
        "hand": "right"
      },
      {
        "midi": 76,
        "time": 136,
        "duration": 2.333,
        "velocity": 0.63,
        "hand": "right"
      },
      {
        "midi": 43,
        "time": 137,
        "duration": 0.917,
        "velocity": 0.63,
        "hand": "left"
      },
      {
        "midi": 48,
        "time": 138,
        "duration": 0.917,
        "velocity": 0.63,
        "hand": "left"
      },
      {
        "midi": 52,
        "time": 138,
        "duration": 0.917,
        "velocity": 0.63,
        "hand": "left"
      },
      {
        "midi": 55,
        "time": 138,
        "duration": 0.917,
        "velocity": 0.63,
        "hand": "left"
      },
      {
        "midi": 74,
        "time": 138.333,
        "duration": 0.667,
        "velocity": 0.63,
        "hand": "right"
      },
      {
        "midi": 59,
        "time": 139,
        "duration": 0.917,
        "velocity": 0.63,
        "hand": "left"
      },
      {
        "midi": 69,
        "time": 139.333,
        "duration": 0.333,
        "velocity": 0.63,
        "hand": "right"
      },
      {
        "midi": 72,
        "time": 139.667,
        "duration": 0.333,
        "velocity": 0.63,
        "hand": "right"
      },
      {
        "midi": 36,
        "time": 140,
        "duration": 0.917,
        "velocity": 0.63,
        "hand": "left"
      },
      {
        "midi": 64,
        "time": 140,
        "duration": 0.917,
        "velocity": 0.63,
        "hand": "right"
      },
      {
        "midi": 71,
        "time": 140,
        "duration": 0.917,
        "velocity": 0.63,
        "hand": "right"
      },
      {
        "midi": 43,
        "time": 141,
        "duration": 0.917,
        "velocity": 0.63,
        "hand": "left"
      },
      {
        "midi": 71,
        "time": 141,
        "duration": 0.917,
        "velocity": 0.63,
        "hand": "right"
      },
      {
        "midi": 38,
        "time": 142,
        "duration": 1,
        "velocity": 0.63,
        "hand": "left"
      },
      {
        "midi": 38,
        "time": 142,
        "duration": 0.917,
        "velocity": 0.63,
        "hand": "left"
      },
      {
        "midi": 60,
        "time": 142,
        "duration": 1,
        "velocity": 0.63,
        "hand": "right"
      },
      {
        "midi": 64,
        "time": 142,
        "duration": 1,
        "velocity": 0.63,
        "hand": "right"
      },
      {
        "midi": 69,
        "time": 142,
        "duration": 0.917,
        "velocity": 0.63,
        "hand": "right"
      },
      {
        "midi": 69,
        "time": 142,
        "duration": 1,
        "velocity": 0.63,
        "hand": "right"
      },
      {
        "midi": 72,
        "time": 142,
        "duration": 0.917,
        "velocity": 0.63,
        "hand": "right"
      },
      {
        "midi": 40,
        "time": 143,
        "duration": 1,
        "velocity": 0.63,
        "hand": "left"
      },
      {
        "midi": 40,
        "time": 143,
        "duration": 0.917,
        "velocity": 0.63,
        "hand": "left"
      },
      {
        "midi": 62,
        "time": 143,
        "duration": 1,
        "velocity": 0.63,
        "hand": "right"
      },
      {
        "midi": 64,
        "time": 143,
        "duration": 1,
        "velocity": 0.63,
        "hand": "right"
      },
      {
        "midi": 68,
        "time": 143,
        "duration": 0.917,
        "velocity": 0.63,
        "hand": "right"
      },
      {
        "midi": 68,
        "time": 143,
        "duration": 1,
        "velocity": 0.63,
        "hand": "right"
      },
      {
        "midi": 71,
        "time": 143,
        "duration": 1,
        "velocity": 0.63,
        "hand": "right"
      },
      {
        "midi": 74,
        "time": 143,
        "duration": 0.917,
        "velocity": 0.63,
        "hand": "right"
      },
      {
        "midi": 41,
        "time": 144,
        "duration": 6,
        "velocity": 0.63,
        "hand": "left"
      },
      {
        "midi": 41,
        "time": 144,
        "duration": 0.917,
        "velocity": 0.63,
        "hand": "left"
      },
      {
        "midi": 60,
        "time": 144,
        "duration": 6,
        "velocity": 0.63,
        "hand": "right"
      },
      {
        "midi": 64,
        "time": 144,
        "duration": 6,
        "velocity": 0.63,
        "hand": "right"
      },
      {
        "midi": 65,
        "time": 144,
        "duration": 6,
        "velocity": 0.63,
        "hand": "right"
      },
      {
        "midi": 69,
        "time": 144,
        "duration": 3.833,
        "velocity": 0.63,
        "hand": "right"
      },
      {
        "midi": 69,
        "time": 144,
        "duration": 6,
        "velocity": 0.63,
        "hand": "right"
      },
      {
        "midi": 76,
        "time": 144,
        "duration": 3.833,
        "velocity": 0.63,
        "hand": "right"
      },
      {
        "midi": 48,
        "time": 145,
        "duration": 0.917,
        "velocity": 0.63,
        "hand": "left"
      },
      {
        "midi": 52,
        "time": 146,
        "duration": 0.917,
        "velocity": 0.63,
        "hand": "left"
      },
      {
        "midi": 53,
        "time": 146,
        "duration": 0.917,
        "velocity": 0.63,
        "hand": "left"
      },
      {
        "midi": 57,
        "time": 146,
        "duration": 0.917,
        "velocity": 0.63,
        "hand": "left"
      },
      {
        "midi": 60,
        "time": 147,
        "duration": 0.917,
        "velocity": 0.63,
        "hand": "right"
      },
      {
        "midi": 41,
        "time": 148,
        "duration": 0.917,
        "velocity": 0.63,
        "hand": "left"
      },
      {
        "midi": 69,
        "time": 148,
        "duration": 0.917,
        "velocity": 0.63,
        "hand": "right"
      },
      {
        "midi": 48,
        "time": 149,
        "duration": 0.917,
        "velocity": 0.63,
        "hand": "left"
      },
      {
        "midi": 71,
        "time": 149,
        "duration": 0.917,
        "velocity": 0.63,
        "hand": "right"
      },
      {
        "midi": 41,
        "time": 150,
        "duration": 2,
        "velocity": 0.63,
        "hand": "left"
      },
      {
        "midi": 53,
        "time": 150,
        "duration": 0.917,
        "velocity": 0.63,
        "hand": "left"
      },
      {
        "midi": 56,
        "time": 150,
        "duration": 0.917,
        "velocity": 0.63,
        "hand": "left"
      },
      {
        "midi": 60,
        "time": 150,
        "duration": 2,
        "velocity": 0.63,
        "hand": "right"
      },
      {
        "midi": 60,
        "time": 150,
        "duration": 0.917,
        "velocity": 0.63,
        "hand": "right"
      },
      {
        "midi": 65,
        "time": 150,
        "duration": 2,
        "velocity": 0.63,
        "hand": "right"
      },
      {
        "midi": 68,
        "time": 150,
        "duration": 2,
        "velocity": 0.63,
        "hand": "right"
      },
      {
        "midi": 79,
        "time": 150,
        "duration": 0.917,
        "velocity": 0.63,
        "hand": "right"
      },
      {
        "midi": 62,
        "time": 151,
        "duration": 0.917,
        "velocity": 0.63,
        "hand": "right"
      },
      {
        "midi": 77,
        "time": 151,
        "duration": 0.917,
        "velocity": 0.63,
        "hand": "right"
      },
      {
        "midi": 36,
        "time": 152,
        "duration": 6,
        "velocity": 0.63,
        "hand": "left"
      },
      {
        "midi": 36,
        "time": 152,
        "duration": 0.917,
        "velocity": 0.63,
        "hand": "left"
      },
      {
        "midi": 60,
        "time": 152,
        "duration": 6,
        "velocity": 0.63,
        "hand": "right"
      },
      {
        "midi": 64,
        "time": 152,
        "duration": 6,
        "velocity": 0.63,
        "hand": "right"
      },
      {
        "midi": 67,
        "time": 152,
        "duration": 6,
        "velocity": 0.63,
        "hand": "right"
      },
      {
        "midi": 71,
        "time": 152,
        "duration": 2.833,
        "velocity": 0.63,
        "hand": "right"
      },
      {
        "midi": 71,
        "time": 152,
        "duration": 6,
        "velocity": 0.63,
        "hand": "right"
      },
      {
        "midi": 76,
        "time": 152,
        "duration": 2.833,
        "velocity": 0.63,
        "hand": "right"
      },
      {
        "midi": 43,
        "time": 153,
        "duration": 0.917,
        "velocity": 0.63,
        "hand": "left"
      },
      {
        "midi": 48,
        "time": 154,
        "duration": 0.917,
        "velocity": 0.63,
        "hand": "left"
      },
      {
        "midi": 52,
        "time": 154,
        "duration": 0.917,
        "velocity": 0.63,
        "hand": "left"
      },
      {
        "midi": 55,
        "time": 154,
        "duration": 0.917,
        "velocity": 0.63,
        "hand": "left"
      },
      {
        "midi": 59,
        "time": 155,
        "duration": 0.917,
        "velocity": 0.63,
        "hand": "left"
      },
      {
        "midi": 69,
        "time": 155.333,
        "duration": 0.333,
        "velocity": 0.63,
        "hand": "right"
      },
      {
        "midi": 72,
        "time": 155.667,
        "duration": 0.333,
        "velocity": 0.63,
        "hand": "right"
      },
      {
        "midi": 36,
        "time": 156,
        "duration": 0.917,
        "velocity": 0.63,
        "hand": "left"
      },
      {
        "midi": 64,
        "time": 156,
        "duration": 2,
        "velocity": 0.63,
        "hand": "right"
      },
      {
        "midi": 71,
        "time": 156,
        "duration": 2,
        "velocity": 0.63,
        "hand": "right"
      },
      {
        "midi": 43,
        "time": 157,
        "duration": 0.917,
        "velocity": 0.63,
        "hand": "left"
      },
      {
        "midi": 38,
        "time": 158,
        "duration": 1,
        "velocity": 0.63,
        "hand": "left"
      },
      {
        "midi": 38,
        "time": 158,
        "duration": 0.917,
        "velocity": 0.63,
        "hand": "left"
      },
      {
        "midi": 60,
        "time": 158,
        "duration": 1,
        "velocity": 0.63,
        "hand": "right"
      },
      {
        "midi": 64,
        "time": 158,
        "duration": 0.917,
        "velocity": 0.63,
        "hand": "right"
      },
      {
        "midi": 64,
        "time": 158,
        "duration": 1,
        "velocity": 0.63,
        "hand": "right"
      },
      {
        "midi": 67,
        "time": 158,
        "duration": 1,
        "velocity": 0.63,
        "hand": "right"
      },
      {
        "midi": 70,
        "time": 158,
        "duration": 0.917,
        "velocity": 0.63,
        "hand": "right"
      },
      {
        "midi": 70,
        "time": 158,
        "duration": 1,
        "velocity": 0.63,
        "hand": "right"
      },
      {
        "midi": 40,
        "time": 159,
        "duration": 1,
        "velocity": 0.63,
        "hand": "left"
      },
      {
        "midi": 40,
        "time": 159,
        "duration": 0.917,
        "velocity": 0.63,
        "hand": "left"
      },
      {
        "midi": 60,
        "time": 159,
        "duration": 1,
        "velocity": 0.63,
        "hand": "right"
      },
      {
        "midi": 64,
        "time": 159,
        "duration": 1,
        "velocity": 0.63,
        "hand": "right"
      },
      {
        "midi": 67,
        "time": 159,
        "duration": 1,
        "velocity": 0.63,
        "hand": "right"
      },
      {
        "midi": 70,
        "time": 159,
        "duration": 0.917,
        "velocity": 0.63,
        "hand": "right"
      },
      {
        "midi": 70,
        "time": 159,
        "duration": 1,
        "velocity": 0.63,
        "hand": "right"
      },
      {
        "midi": 41,
        "time": 160,
        "duration": 5,
        "velocity": 0.63,
        "hand": "left"
      },
      {
        "midi": 41,
        "time": 160,
        "duration": 0.667,
        "velocity": 0.63,
        "hand": "left"
      },
      {
        "midi": 60,
        "time": 160,
        "duration": 5,
        "velocity": 0.63,
        "hand": "right"
      },
      {
        "midi": 64,
        "time": 160,
        "duration": 5,
        "velocity": 0.63,
        "hand": "right"
      },
      {
        "midi": 65,
        "time": 160,
        "duration": 5,
        "velocity": 0.63,
        "hand": "right"
      },
      {
        "midi": 69,
        "time": 160,
        "duration": 3.833,
        "velocity": 0.63,
        "hand": "right"
      },
      {
        "midi": 69,
        "time": 160,
        "duration": 5,
        "velocity": 0.63,
        "hand": "right"
      },
      {
        "midi": 76,
        "time": 160,
        "duration": 3.833,
        "velocity": 0.63,
        "hand": "right"
      },
      {
        "midi": 55,
        "time": 160.667,
        "duration": 0.333,
        "velocity": 0.63,
        "hand": "left"
      },
      {
        "midi": 53,
        "time": 161,
        "duration": 0.667,
        "velocity": 0.63,
        "hand": "left"
      },
      {
        "midi": 55,
        "time": 161.667,
        "duration": 0.333,
        "velocity": 0.63,
        "hand": "left"
      },
      {
        "midi": 53,
        "time": 162,
        "duration": 0.667,
        "velocity": 0.63,
        "hand": "left"
      },
      {
        "midi": 55,
        "time": 162.667,
        "duration": 0.333,
        "velocity": 0.63,
        "hand": "left"
      },
      {
        "midi": 53,
        "time": 163,
        "duration": 0.667,
        "velocity": 0.63,
        "hand": "left"
      },
      {
        "midi": 55,
        "time": 163.667,
        "duration": 0.333,
        "velocity": 0.63,
        "hand": "left"
      },
      {
        "midi": 53,
        "time": 164,
        "duration": 0.917,
        "velocity": 0.63,
        "hand": "left"
      },
      {
        "midi": 69,
        "time": 164,
        "duration": 0.917,
        "velocity": 0.63,
        "hand": "right"
      },
      {
        "midi": 36,
        "time": 165,
        "duration": 1,
        "velocity": 0.63,
        "hand": "left"
      },
      {
        "midi": 48,
        "time": 165,
        "duration": 0.917,
        "velocity": 0.63,
        "hand": "left"
      },
      {
        "midi": 55,
        "time": 165,
        "duration": 0.917,
        "velocity": 0.63,
        "hand": "left"
      },
      {
        "midi": 60,
        "time": 165,
        "duration": 1,
        "velocity": 0.63,
        "hand": "right"
      },
      {
        "midi": 64,
        "time": 165,
        "duration": 1,
        "velocity": 0.63,
        "hand": "right"
      },
      {
        "midi": 67,
        "time": 165,
        "duration": 1,
        "velocity": 0.63,
        "hand": "right"
      },
      {
        "midi": 71,
        "time": 165,
        "duration": 0.917,
        "velocity": 0.63,
        "hand": "right"
      },
      {
        "midi": 71,
        "time": 165,
        "duration": 1,
        "velocity": 0.63,
        "hand": "right"
      },
      {
        "midi": 41,
        "time": 166,
        "duration": 2,
        "velocity": 0.63,
        "hand": "left"
      },
      {
        "midi": 53,
        "time": 166,
        "duration": 0.917,
        "velocity": 0.63,
        "hand": "left"
      },
      {
        "midi": 56,
        "time": 166,
        "duration": 0.917,
        "velocity": 0.63,
        "hand": "left"
      },
      {
        "midi": 60,
        "time": 166,
        "duration": 2,
        "velocity": 0.63,
        "hand": "right"
      },
      {
        "midi": 65,
        "time": 166,
        "duration": 2,
        "velocity": 0.63,
        "hand": "right"
      },
      {
        "midi": 68,
        "time": 166,
        "duration": 2,
        "velocity": 0.63,
        "hand": "right"
      },
      {
        "midi": 79,
        "time": 166,
        "duration": 0.917,
        "velocity": 0.63,
        "hand": "right"
      },
      {
        "midi": 60,
        "time": 167,
        "duration": 0.917,
        "velocity": 0.63,
        "hand": "right"
      },
      {
        "midi": 77,
        "time": 167,
        "duration": 0.917,
        "velocity": 0.63,
        "hand": "right"
      },
      {
        "midi": 36,
        "time": 168,
        "duration": 6,
        "velocity": 0.63,
        "hand": "left"
      },
      {
        "midi": 48,
        "time": 168,
        "duration": 0.917,
        "velocity": 0.63,
        "hand": "left"
      },
      {
        "midi": 60,
        "time": 168,
        "duration": 6,
        "velocity": 0.63,
        "hand": "right"
      },
      {
        "midi": 64,
        "time": 168,
        "duration": 6,
        "velocity": 0.63,
        "hand": "right"
      },
      {
        "midi": 67,
        "time": 168,
        "duration": 6,
        "velocity": 0.63,
        "hand": "right"
      },
      {
        "midi": 71,
        "time": 168,
        "duration": 2.833,
        "velocity": 0.63,
        "hand": "right"
      },
      {
        "midi": 71,
        "time": 168,
        "duration": 6,
        "velocity": 0.63,
        "hand": "right"
      },
      {
        "midi": 76,
        "time": 168,
        "duration": 2.833,
        "velocity": 0.63,
        "hand": "right"
      },
      {
        "midi": 48,
        "time": 169,
        "duration": 0.917,
        "velocity": 0.63,
        "hand": "left"
      },
      {
        "midi": 48,
        "time": 170,
        "duration": 0.917,
        "velocity": 0.63,
        "hand": "left"
      },
      {
        "midi": 48,
        "time": 171,
        "duration": 0.917,
        "velocity": 0.63,
        "hand": "left"
      },
      {
        "midi": 71,
        "time": 171,
        "duration": 0.167,
        "velocity": 0.63,
        "hand": "right"
      },
      {
        "midi": 72,
        "time": 171.167,
        "duration": 0.167,
        "velocity": 0.63,
        "hand": "right"
      },
      {
        "midi": 74,
        "time": 171.333,
        "duration": 0.167,
        "velocity": 0.63,
        "hand": "right"
      },
      {
        "midi": 76,
        "time": 171.5,
        "duration": 0.167,
        "velocity": 0.63,
        "hand": "right"
      },
      {
        "midi": 74,
        "time": 171.667,
        "duration": 0.167,
        "velocity": 0.63,
        "hand": "right"
      },
      {
        "midi": 72,
        "time": 171.833,
        "duration": 0.167,
        "velocity": 0.63,
        "hand": "right"
      },
      {
        "midi": 36,
        "time": 172,
        "duration": 0.917,
        "velocity": 0.63,
        "hand": "left"
      },
      {
        "midi": 71,
        "time": 172,
        "duration": 0.167,
        "velocity": 0.63,
        "hand": "right"
      },
      {
        "midi": 72,
        "time": 172.167,
        "duration": 0.167,
        "velocity": 0.63,
        "hand": "right"
      },
      {
        "midi": 74,
        "time": 172.333,
        "duration": 0.167,
        "velocity": 0.63,
        "hand": "right"
      },
      {
        "midi": 76,
        "time": 172.5,
        "duration": 0.167,
        "velocity": 0.63,
        "hand": "right"
      },
      {
        "midi": 74,
        "time": 172.667,
        "duration": 0.167,
        "velocity": 0.63,
        "hand": "right"
      },
      {
        "midi": 72,
        "time": 172.833,
        "duration": 0.167,
        "velocity": 0.63,
        "hand": "right"
      },
      {
        "midi": 36,
        "time": 173,
        "duration": 0.917,
        "velocity": 0.63,
        "hand": "left"
      },
      {
        "midi": 64,
        "time": 173,
        "duration": 0.917,
        "velocity": 0.63,
        "hand": "right"
      },
      {
        "midi": 71,
        "time": 173,
        "duration": 0.917,
        "velocity": 0.63,
        "hand": "right"
      },
      {
        "midi": 36,
        "time": 174,
        "duration": 2,
        "velocity": 0.63,
        "hand": "left"
      },
      {
        "midi": 46,
        "time": 174,
        "duration": 0.917,
        "velocity": 0.63,
        "hand": "left"
      },
      {
        "midi": 60,
        "time": 174,
        "duration": 2,
        "velocity": 0.63,
        "hand": "right"
      },
      {
        "midi": 64,
        "time": 174,
        "duration": 0.917,
        "velocity": 0.63,
        "hand": "right"
      },
      {
        "midi": 64,
        "time": 174,
        "duration": 2,
        "velocity": 0.63,
        "hand": "right"
      },
      {
        "midi": 67,
        "time": 174,
        "duration": 2,
        "velocity": 0.63,
        "hand": "right"
      },
      {
        "midi": 70,
        "time": 174,
        "duration": 2,
        "velocity": 0.63,
        "hand": "right"
      },
      {
        "midi": 72,
        "time": 174,
        "duration": 0.917,
        "velocity": 0.63,
        "hand": "right"
      },
      {
        "midi": 36,
        "time": 175,
        "duration": 0.917,
        "velocity": 0.63,
        "hand": "left"
      },
      {
        "midi": 74,
        "time": 175,
        "duration": 0.917,
        "velocity": 0.63,
        "hand": "right"
      },
      {
        "midi": 41,
        "time": 176,
        "duration": 6,
        "velocity": 0.63,
        "hand": "left"
      },
      {
        "midi": 41,
        "time": 176,
        "duration": 0.917,
        "velocity": 0.63,
        "hand": "left"
      },
      {
        "midi": 60,
        "time": 176,
        "duration": 6,
        "velocity": 0.63,
        "hand": "right"
      },
      {
        "midi": 64,
        "time": 176,
        "duration": 6,
        "velocity": 0.63,
        "hand": "right"
      },
      {
        "midi": 65,
        "time": 176,
        "duration": 6,
        "velocity": 0.63,
        "hand": "right"
      },
      {
        "midi": 69,
        "time": 176,
        "duration": 2.833,
        "velocity": 0.63,
        "hand": "right"
      },
      {
        "midi": 69,
        "time": 176,
        "duration": 6,
        "velocity": 0.63,
        "hand": "right"
      },
      {
        "midi": 76,
        "time": 176,
        "duration": 2.833,
        "velocity": 0.63,
        "hand": "right"
      },
      {
        "midi": 48,
        "time": 177,
        "duration": 0.917,
        "velocity": 0.63,
        "hand": "left"
      },
      {
        "midi": 52,
        "time": 178,
        "duration": 0.917,
        "velocity": 0.63,
        "hand": "left"
      },
      {
        "midi": 53,
        "time": 178,
        "duration": 0.917,
        "velocity": 0.63,
        "hand": "left"
      },
      {
        "midi": 57,
        "time": 178,
        "duration": 0.917,
        "velocity": 0.63,
        "hand": "left"
      },
      {
        "midi": 60,
        "time": 179,
        "duration": 0.917,
        "velocity": 0.63,
        "hand": "right"
      },
      {
        "midi": 74,
        "time": 179,
        "duration": 0.167,
        "velocity": 0.63,
        "hand": "right"
      },
      {
        "midi": 76,
        "time": 179.167,
        "duration": 0.167,
        "velocity": 0.63,
        "hand": "right"
      },
      {
        "midi": 79,
        "time": 179.333,
        "duration": 0.167,
        "velocity": 0.63,
        "hand": "right"
      },
      {
        "midi": 81,
        "time": 179.5,
        "duration": 0.167,
        "velocity": 0.63,
        "hand": "right"
      },
      {
        "midi": 79,
        "time": 179.667,
        "duration": 0.167,
        "velocity": 0.63,
        "hand": "right"
      },
      {
        "midi": 76,
        "time": 179.833,
        "duration": 0.167,
        "velocity": 0.63,
        "hand": "right"
      },
      {
        "midi": 41,
        "time": 180,
        "duration": 0.917,
        "velocity": 0.63,
        "hand": "left"
      },
      {
        "midi": 69,
        "time": 180,
        "duration": 0.917,
        "velocity": 0.63,
        "hand": "right"
      },
      {
        "midi": 48,
        "time": 181,
        "duration": 0.917,
        "velocity": 0.63,
        "hand": "left"
      },
      {
        "midi": 71,
        "time": 181,
        "duration": 0.917,
        "velocity": 0.63,
        "hand": "right"
      },
      {
        "midi": 41,
        "time": 182,
        "duration": 2,
        "velocity": 0.63,
        "hand": "left"
      },
      {
        "midi": 53,
        "time": 182,
        "duration": 0.917,
        "velocity": 0.63,
        "hand": "left"
      },
      {
        "midi": 56,
        "time": 182,
        "duration": 0.917,
        "velocity": 0.63,
        "hand": "left"
      },
      {
        "midi": 60,
        "time": 182,
        "duration": 2,
        "velocity": 0.63,
        "hand": "right"
      },
      {
        "midi": 65,
        "time": 182,
        "duration": 2,
        "velocity": 0.63,
        "hand": "right"
      },
      {
        "midi": 68,
        "time": 182,
        "duration": 2,
        "velocity": 0.63,
        "hand": "right"
      },
      {
        "midi": 79,
        "time": 182,
        "duration": 0.917,
        "velocity": 0.63,
        "hand": "right"
      },
      {
        "midi": 60,
        "time": 183,
        "duration": 0.917,
        "velocity": 0.63,
        "hand": "right"
      },
      {
        "midi": 77,
        "time": 183,
        "duration": 0.917,
        "velocity": 0.63,
        "hand": "right"
      },
      {
        "midi": 36,
        "time": 184,
        "duration": 6,
        "velocity": 0.63,
        "hand": "left"
      },
      {
        "midi": 36,
        "time": 184,
        "duration": 0.917,
        "velocity": 0.63,
        "hand": "left"
      },
      {
        "midi": 60,
        "time": 184,
        "duration": 6,
        "velocity": 0.63,
        "hand": "right"
      },
      {
        "midi": 64,
        "time": 184,
        "duration": 6,
        "velocity": 0.63,
        "hand": "right"
      },
      {
        "midi": 67,
        "time": 184,
        "duration": 6,
        "velocity": 0.63,
        "hand": "right"
      },
      {
        "midi": 71,
        "time": 184,
        "duration": 0.917,
        "velocity": 0.63,
        "hand": "right"
      },
      {
        "midi": 71,
        "time": 184,
        "duration": 6,
        "velocity": 0.63,
        "hand": "right"
      },
      {
        "midi": 76,
        "time": 184,
        "duration": 0.917,
        "velocity": 0.63,
        "hand": "right"
      },
      {
        "midi": 43,
        "time": 185,
        "duration": 0.917,
        "velocity": 0.63,
        "hand": "left"
      },
      {
        "midi": 71,
        "time": 185,
        "duration": 0.167,
        "velocity": 0.63,
        "hand": "right"
      },
      {
        "midi": 72,
        "time": 185.167,
        "duration": 0.167,
        "velocity": 0.63,
        "hand": "right"
      },
      {
        "midi": 74,
        "time": 185.333,
        "duration": 0.167,
        "velocity": 0.63,
        "hand": "right"
      },
      {
        "midi": 76,
        "time": 185.5,
        "duration": 0.167,
        "velocity": 0.63,
        "hand": "right"
      },
      {
        "midi": 74,
        "time": 185.667,
        "duration": 0.167,
        "velocity": 0.63,
        "hand": "right"
      },
      {
        "midi": 72,
        "time": 185.833,
        "duration": 0.167,
        "velocity": 0.63,
        "hand": "right"
      },
      {
        "midi": 48,
        "time": 186,
        "duration": 1.917,
        "velocity": 0.63,
        "hand": "left"
      },
      {
        "midi": 71,
        "time": 186,
        "duration": 0.167,
        "velocity": 0.63,
        "hand": "right"
      },
      {
        "midi": 72,
        "time": 186.167,
        "duration": 0.167,
        "velocity": 0.63,
        "hand": "right"
      },
      {
        "midi": 74,
        "time": 186.333,
        "duration": 0.167,
        "velocity": 0.63,
        "hand": "right"
      },
      {
        "midi": 76,
        "time": 186.5,
        "duration": 0.167,
        "velocity": 0.63,
        "hand": "right"
      },
      {
        "midi": 74,
        "time": 186.667,
        "duration": 0.167,
        "velocity": 0.63,
        "hand": "right"
      },
      {
        "midi": 72,
        "time": 186.833,
        "duration": 0.167,
        "velocity": 0.63,
        "hand": "right"
      },
      {
        "midi": 71,
        "time": 187,
        "duration": 0.167,
        "velocity": 0.63,
        "hand": "right"
      },
      {
        "midi": 72,
        "time": 187.167,
        "duration": 0.167,
        "velocity": 0.63,
        "hand": "right"
      },
      {
        "midi": 74,
        "time": 187.333,
        "duration": 0.167,
        "velocity": 0.63,
        "hand": "right"
      },
      {
        "midi": 76,
        "time": 187.5,
        "duration": 0.167,
        "velocity": 0.63,
        "hand": "right"
      },
      {
        "midi": 74,
        "time": 187.667,
        "duration": 0.167,
        "velocity": 0.63,
        "hand": "right"
      },
      {
        "midi": 72,
        "time": 187.833,
        "duration": 0.167,
        "velocity": 0.63,
        "hand": "right"
      },
      {
        "midi": 50,
        "time": 188,
        "duration": 0.917,
        "velocity": 0.63,
        "hand": "left"
      },
      {
        "midi": 71,
        "time": 188,
        "duration": 0.167,
        "velocity": 0.63,
        "hand": "right"
      },
      {
        "midi": 72,
        "time": 188.167,
        "duration": 0.167,
        "velocity": 0.63,
        "hand": "right"
      },
      {
        "midi": 74,
        "time": 188.333,
        "duration": 0.167,
        "velocity": 0.63,
        "hand": "right"
      },
      {
        "midi": 76,
        "time": 188.5,
        "duration": 0.167,
        "velocity": 0.63,
        "hand": "right"
      },
      {
        "midi": 74,
        "time": 188.667,
        "duration": 0.167,
        "velocity": 0.63,
        "hand": "right"
      },
      {
        "midi": 72,
        "time": 188.833,
        "duration": 0.167,
        "velocity": 0.63,
        "hand": "right"
      },
      {
        "midi": 52,
        "time": 189,
        "duration": 0.917,
        "velocity": 0.63,
        "hand": "left"
      },
      {
        "midi": 71,
        "time": 189,
        "duration": 0.167,
        "velocity": 0.63,
        "hand": "right"
      },
      {
        "midi": 72,
        "time": 189.167,
        "duration": 0.167,
        "velocity": 0.63,
        "hand": "right"
      },
      {
        "midi": 74,
        "time": 189.333,
        "duration": 0.167,
        "velocity": 0.63,
        "hand": "right"
      },
      {
        "midi": 76,
        "time": 189.5,
        "duration": 0.167,
        "velocity": 0.63,
        "hand": "right"
      },
      {
        "midi": 74,
        "time": 189.667,
        "duration": 0.167,
        "velocity": 0.63,
        "hand": "right"
      },
      {
        "midi": 72,
        "time": 189.833,
        "duration": 0.167,
        "velocity": 0.63,
        "hand": "right"
      },
      {
        "midi": 41,
        "time": 190,
        "duration": 1,
        "velocity": 0.63,
        "hand": "left"
      },
      {
        "midi": 53,
        "time": 190,
        "duration": 0.917,
        "velocity": 0.63,
        "hand": "left"
      },
      {
        "midi": 60,
        "time": 190,
        "duration": 1,
        "velocity": 0.63,
        "hand": "right"
      },
      {
        "midi": 64,
        "time": 190,
        "duration": 1,
        "velocity": 0.63,
        "hand": "right"
      },
      {
        "midi": 67,
        "time": 190,
        "duration": 1,
        "velocity": 0.63,
        "hand": "right"
      },
      {
        "midi": 70,
        "time": 190,
        "duration": 0.167,
        "velocity": 0.63,
        "hand": "right"
      },
      {
        "midi": 70,
        "time": 190,
        "duration": 1,
        "velocity": 0.63,
        "hand": "right"
      },
      {
        "midi": 72,
        "time": 190.167,
        "duration": 0.167,
        "velocity": 0.63,
        "hand": "right"
      },
      {
        "midi": 74,
        "time": 190.333,
        "duration": 0.167,
        "velocity": 0.63,
        "hand": "right"
      },
      {
        "midi": 76,
        "time": 190.5,
        "duration": 0.167,
        "velocity": 0.63,
        "hand": "right"
      },
      {
        "midi": 74,
        "time": 190.667,
        "duration": 0.167,
        "velocity": 0.63,
        "hand": "right"
      },
      {
        "midi": 72,
        "time": 190.833,
        "duration": 0.167,
        "velocity": 0.63,
        "hand": "right"
      },
      {
        "midi": 40,
        "time": 191,
        "duration": 1,
        "velocity": 0.63,
        "hand": "left"
      },
      {
        "midi": 52,
        "time": 191,
        "duration": 0.917,
        "velocity": 0.63,
        "hand": "left"
      },
      {
        "midi": 60,
        "time": 191,
        "duration": 1,
        "velocity": 0.63,
        "hand": "right"
      },
      {
        "midi": 64,
        "time": 191,
        "duration": 1,
        "velocity": 0.63,
        "hand": "right"
      },
      {
        "midi": 67,
        "time": 191,
        "duration": 1,
        "velocity": 0.63,
        "hand": "right"
      },
      {
        "midi": 70,
        "time": 191,
        "duration": 0.917,
        "velocity": 0.63,
        "hand": "right"
      },
      {
        "midi": 70,
        "time": 191,
        "duration": 1,
        "velocity": 0.63,
        "hand": "right"
      },
      {
        "midi": 41,
        "time": 192,
        "duration": 4,
        "velocity": 0.63,
        "hand": "left"
      },
      {
        "midi": 53,
        "time": 192,
        "duration": 3.833,
        "velocity": 0.63,
        "hand": "left"
      },
      {
        "midi": 60,
        "time": 192,
        "duration": 4,
        "velocity": 0.63,
        "hand": "right"
      },
      {
        "midi": 60,
        "time": 192,
        "duration": 3.833,
        "velocity": 0.63,
        "hand": "right"
      },
      {
        "midi": 65,
        "time": 192,
        "duration": 4,
        "velocity": 0.63,
        "hand": "right"
      },
      {
        "midi": 69,
        "time": 192,
        "duration": 0.917,
        "velocity": 0.63,
        "hand": "right"
      },
      {
        "midi": 69,
        "time": 192,
        "duration": 4,
        "velocity": 0.63,
        "hand": "right"
      },
      {
        "midi": 76,
        "time": 192,
        "duration": 0.917,
        "velocity": 0.63,
        "hand": "right"
      },
      {
        "midi": 72,
        "time": 193,
        "duration": 0.917,
        "velocity": 0.63,
        "hand": "right"
      },
      {
        "midi": 69,
        "time": 194,
        "duration": 1.917,
        "velocity": 0.63,
        "hand": "right"
      },
      {
        "midi": 40,
        "time": 196,
        "duration": 4,
        "velocity": 0.63,
        "hand": "left"
      },
      {
        "midi": 52,
        "time": 196,
        "duration": 3.833,
        "velocity": 0.63,
        "hand": "left"
      },
      {
        "midi": 55,
        "time": 196,
        "duration": 3.833,
        "velocity": 0.63,
        "hand": "left"
      },
      {
        "midi": 59,
        "time": 196,
        "duration": 3.833,
        "velocity": 0.63,
        "hand": "left"
      },
      {
        "midi": 64,
        "time": 196,
        "duration": 4,
        "velocity": 0.63,
        "hand": "right"
      },
      {
        "midi": 67,
        "time": 196,
        "duration": 4,
        "velocity": 0.63,
        "hand": "right"
      },
      {
        "midi": 71,
        "time": 196,
        "duration": 4,
        "velocity": 0.63,
        "hand": "right"
      },
      {
        "midi": 76,
        "time": 196,
        "duration": 0.917,
        "velocity": 0.63,
        "hand": "right"
      },
      {
        "midi": 71,
        "time": 197,
        "duration": 0.917,
        "velocity": 0.63,
        "hand": "right"
      },
      {
        "midi": 67,
        "time": 198,
        "duration": 1.917,
        "velocity": 0.63,
        "hand": "right"
      },
      {
        "midi": 39,
        "time": 200,
        "duration": 4,
        "velocity": 0.63,
        "hand": "left"
      },
      {
        "midi": 51,
        "time": 200,
        "duration": 3.833,
        "velocity": 0.63,
        "hand": "left"
      },
      {
        "midi": 58,
        "time": 200,
        "duration": 3.833,
        "velocity": 0.63,
        "hand": "left"
      },
      {
        "midi": 63,
        "time": 200,
        "duration": 4,
        "velocity": 0.63,
        "hand": "right"
      },
      {
        "midi": 67,
        "time": 200,
        "duration": 0.917,
        "velocity": 0.63,
        "hand": "right"
      },
      {
        "midi": 67,
        "time": 200,
        "duration": 4,
        "velocity": 0.63,
        "hand": "right"
      },
      {
        "midi": 70,
        "time": 200,
        "duration": 4,
        "velocity": 0.63,
        "hand": "right"
      },
      {
        "midi": 74,
        "time": 200,
        "duration": 0.917,
        "velocity": 0.63,
        "hand": "right"
      },
      {
        "midi": 70,
        "time": 201,
        "duration": 0.917,
        "velocity": 0.63,
        "hand": "right"
      },
      {
        "midi": 69,
        "time": 202,
        "duration": 0.917,
        "velocity": 0.63,
        "hand": "right"
      },
      {
        "midi": 65,
        "time": 203,
        "duration": 0.917,
        "velocity": 0.63,
        "hand": "right"
      },
      {
        "midi": 38,
        "time": 204,
        "duration": 4,
        "velocity": 0.63,
        "hand": "left"
      },
      {
        "midi": 50,
        "time": 204,
        "duration": 3.833,
        "velocity": 0.63,
        "hand": "left"
      },
      {
        "midi": 57,
        "time": 204,
        "duration": 3.833,
        "velocity": 0.63,
        "hand": "left"
      },
      {
        "midi": 62,
        "time": 204,
        "duration": 4,
        "velocity": 0.63,
        "hand": "right"
      },
      {
        "midi": 65,
        "time": 204,
        "duration": 0.917,
        "velocity": 0.63,
        "hand": "right"
      },
      {
        "midi": 65,
        "time": 204,
        "duration": 4,
        "velocity": 0.63,
        "hand": "right"
      },
      {
        "midi": 69,
        "time": 204,
        "duration": 4,
        "velocity": 0.63,
        "hand": "right"
      },
      {
        "midi": 74,
        "time": 204,
        "duration": 0.917,
        "velocity": 0.63,
        "hand": "right"
      },
      {
        "midi": 70,
        "time": 205,
        "duration": 0.917,
        "velocity": 0.63,
        "hand": "right"
      },
      {
        "midi": 69,
        "time": 206,
        "duration": 1.917,
        "velocity": 0.63,
        "hand": "right"
      },
      {
        "midi": 36,
        "time": 208,
        "duration": 4,
        "velocity": 0.63,
        "hand": "left"
      },
      {
        "midi": 48,
        "time": 208,
        "duration": 3.833,
        "velocity": 0.63,
        "hand": "left"
      },
      {
        "midi": 51,
        "time": 208,
        "duration": 3.833,
        "velocity": 0.63,
        "hand": "left"
      },
      {
        "midi": 55,
        "time": 208,
        "duration": 3.833,
        "velocity": 0.63,
        "hand": "left"
      },
      {
        "midi": 60,
        "time": 208,
        "duration": 4,
        "velocity": 0.63,
        "hand": "right"
      },
      {
        "midi": 63,
        "time": 208,
        "duration": 4,
        "velocity": 0.63,
        "hand": "right"
      },
      {
        "midi": 67,
        "time": 208,
        "duration": 4,
        "velocity": 0.63,
        "hand": "right"
      },
      {
        "midi": 72,
        "time": 208,
        "duration": 0.917,
        "velocity": 0.63,
        "hand": "right"
      },
      {
        "midi": 67,
        "time": 209,
        "duration": 0.917,
        "velocity": 0.63,
        "hand": "right"
      },
      {
        "midi": 72,
        "time": 210,
        "duration": 0.917,
        "velocity": 0.63,
        "hand": "right"
      },
      {
        "midi": 75,
        "time": 211,
        "duration": 0.917,
        "velocity": 0.63,
        "hand": "right"
      },
      {
        "midi": 42,
        "time": 212,
        "duration": 7.5,
        "velocity": 0.39,
        "hand": "left"
      },
      {
        "midi": 54,
        "time": 212,
        "duration": 6.917,
        "velocity": 0.39,
        "hand": "left"
      },
      {
        "midi": 62,
        "time": 212,
        "duration": 7.5,
        "velocity": 0.39,
        "hand": "right"
      },
      {
        "midi": 62,
        "time": 212,
        "duration": 6.917,
        "velocity": 0.39,
        "hand": "right"
      },
      {
        "midi": 66,
        "time": 212,
        "duration": 7.5,
        "velocity": 0.39,
        "hand": "right"
      },
      {
        "midi": 69,
        "time": 212,
        "duration": 7.5,
        "velocity": 0.39,
        "hand": "right"
      },
      {
        "midi": 74,
        "time": 212,
        "duration": 1.417,
        "velocity": 0.39,
        "hand": "right"
      },
      {
        "midi": 66,
        "time": 213.5,
        "duration": 0.75,
        "velocity": 0.39,
        "hand": "right"
      },
      {
        "midi": 69,
        "time": 214.25,
        "duration": 0.75,
        "velocity": 0.39,
        "hand": "right"
      },
      {
        "midi": 72,
        "time": 215,
        "duration": 1.417,
        "velocity": 0.39,
        "hand": "right"
      },
      {
        "midi": 74,
        "time": 216.5,
        "duration": 0.333,
        "velocity": 0.39,
        "hand": "right"
      },
      {
        "midi": 69,
        "time": 216.833,
        "duration": 0.333,
        "velocity": 0.39,
        "hand": "right"
      },
      {
        "midi": 78,
        "time": 217.25,
        "duration": 0.75,
        "velocity": 0.39,
        "hand": "right"
      },
      {
        "midi": 81,
        "time": 218,
        "duration": 1.417,
        "velocity": 0.39,
        "hand": "right"
      }
    ],
    "medium": [
      {
        "midi": 69,
        "time": 0,
        "duration": 0.938,
        "velocity": 0.39,
        "hand": "right"
      },
      {
        "midi": 78,
        "time": 0,
        "duration": 0.938,
        "velocity": 0.39,
        "hand": "right"
      },
      {
        "midi": 73,
        "time": 0.156,
        "duration": 0.156,
        "velocity": 0.39,
        "hand": "right"
      },
      {
        "midi": 80,
        "time": 0.156,
        "duration": 0.156,
        "velocity": 0.39,
        "hand": "right"
      },
      {
        "midi": 76,
        "time": 0.313,
        "duration": 0.156,
        "velocity": 0.39,
        "hand": "right"
      },
      {
        "midi": 83,
        "time": 0.313,
        "duration": 0.156,
        "velocity": 0.39,
        "hand": "right"
      },
      {
        "midi": 73,
        "time": 0.469,
        "duration": 0.156,
        "velocity": 0.39,
        "hand": "right"
      },
      {
        "midi": 85,
        "time": 0.469,
        "duration": 0.156,
        "velocity": 0.39,
        "hand": "right"
      },
      {
        "midi": 76,
        "time": 0.625,
        "duration": 0.156,
        "velocity": 0.39,
        "hand": "right"
      },
      {
        "midi": 83,
        "time": 0.625,
        "duration": 0.156,
        "velocity": 0.39,
        "hand": "right"
      },
      {
        "midi": 73,
        "time": 0.781,
        "duration": 0.156,
        "velocity": 0.39,
        "hand": "right"
      },
      {
        "midi": 80,
        "time": 0.781,
        "duration": 0.156,
        "velocity": 0.39,
        "hand": "right"
      },
      {
        "midi": 69,
        "time": 0.938,
        "duration": 0.938,
        "velocity": 0.39,
        "hand": "right"
      },
      {
        "midi": 78,
        "time": 0.938,
        "duration": 0.938,
        "velocity": 0.39,
        "hand": "right"
      },
      {
        "midi": 73,
        "time": 1.094,
        "duration": 0.156,
        "velocity": 0.39,
        "hand": "right"
      },
      {
        "midi": 80,
        "time": 1.094,
        "duration": 0.156,
        "velocity": 0.39,
        "hand": "right"
      },
      {
        "midi": 76,
        "time": 1.25,
        "duration": 0.156,
        "velocity": 0.39,
        "hand": "right"
      },
      {
        "midi": 83,
        "time": 1.25,
        "duration": 0.156,
        "velocity": 0.39,
        "hand": "right"
      },
      {
        "midi": 73,
        "time": 1.406,
        "duration": 0.156,
        "velocity": 0.39,
        "hand": "right"
      },
      {
        "midi": 85,
        "time": 1.406,
        "duration": 0.156,
        "velocity": 0.39,
        "hand": "right"
      },
      {
        "midi": 76,
        "time": 1.563,
        "duration": 0.156,
        "velocity": 0.39,
        "hand": "right"
      },
      {
        "midi": 83,
        "time": 1.563,
        "duration": 0.156,
        "velocity": 0.39,
        "hand": "right"
      },
      {
        "midi": 73,
        "time": 1.719,
        "duration": 0.156,
        "velocity": 0.39,
        "hand": "right"
      },
      {
        "midi": 80,
        "time": 1.719,
        "duration": 0.156,
        "velocity": 0.39,
        "hand": "right"
      },
      {
        "midi": 69,
        "time": 1.875,
        "duration": 0.938,
        "velocity": 0.39,
        "hand": "right"
      },
      {
        "midi": 78,
        "time": 1.875,
        "duration": 0.938,
        "velocity": 0.39,
        "hand": "right"
      },
      {
        "midi": 73,
        "time": 2.031,
        "duration": 0.156,
        "velocity": 0.39,
        "hand": "right"
      },
      {
        "midi": 80,
        "time": 2.031,
        "duration": 0.156,
        "velocity": 0.39,
        "hand": "right"
      },
      {
        "midi": 76,
        "time": 2.188,
        "duration": 0.156,
        "velocity": 0.39,
        "hand": "right"
      },
      {
        "midi": 83,
        "time": 2.188,
        "duration": 0.156,
        "velocity": 0.39,
        "hand": "right"
      },
      {
        "midi": 73,
        "time": 2.344,
        "duration": 0.156,
        "velocity": 0.39,
        "hand": "right"
      },
      {
        "midi": 85,
        "time": 2.344,
        "duration": 0.156,
        "velocity": 0.39,
        "hand": "right"
      },
      {
        "midi": 76,
        "time": 2.5,
        "duration": 0.156,
        "velocity": 0.39,
        "hand": "right"
      },
      {
        "midi": 83,
        "time": 2.5,
        "duration": 0.156,
        "velocity": 0.39,
        "hand": "right"
      },
      {
        "midi": 73,
        "time": 2.656,
        "duration": 0.156,
        "velocity": 0.39,
        "hand": "right"
      },
      {
        "midi": 80,
        "time": 2.656,
        "duration": 0.156,
        "velocity": 0.39,
        "hand": "right"
      },
      {
        "midi": 69,
        "time": 2.813,
        "duration": 0.938,
        "velocity": 0.39,
        "hand": "right"
      },
      {
        "midi": 78,
        "time": 2.813,
        "duration": 0.938,
        "velocity": 0.39,
        "hand": "right"
      },
      {
        "midi": 73,
        "time": 2.969,
        "duration": 0.156,
        "velocity": 0.39,
        "hand": "right"
      },
      {
        "midi": 80,
        "time": 2.969,
        "duration": 0.156,
        "velocity": 0.39,
        "hand": "right"
      },
      {
        "midi": 76,
        "time": 3.125,
        "duration": 0.156,
        "velocity": 0.39,
        "hand": "right"
      },
      {
        "midi": 83,
        "time": 3.125,
        "duration": 0.156,
        "velocity": 0.39,
        "hand": "right"
      },
      {
        "midi": 73,
        "time": 3.281,
        "duration": 0.156,
        "velocity": 0.39,
        "hand": "right"
      },
      {
        "midi": 85,
        "time": 3.281,
        "duration": 0.156,
        "velocity": 0.39,
        "hand": "right"
      },
      {
        "midi": 76,
        "time": 3.438,
        "duration": 0.156,
        "velocity": 0.39,
        "hand": "right"
      },
      {
        "midi": 83,
        "time": 3.438,
        "duration": 0.156,
        "velocity": 0.39,
        "hand": "right"
      },
      {
        "midi": 73,
        "time": 3.594,
        "duration": 0.156,
        "velocity": 0.39,
        "hand": "right"
      },
      {
        "midi": 80,
        "time": 3.594,
        "duration": 0.156,
        "velocity": 0.39,
        "hand": "right"
      },
      {
        "midi": 68,
        "time": 3.75,
        "duration": 0.938,
        "velocity": 0.39,
        "hand": "right"
      },
      {
        "midi": 76,
        "time": 3.75,
        "duration": 0.938,
        "velocity": 0.39,
        "hand": "right"
      },
      {
        "midi": 71,
        "time": 3.906,
        "duration": 0.156,
        "velocity": 0.39,
        "hand": "right"
      },
      {
        "midi": 80,
        "time": 3.906,
        "duration": 0.156,
        "velocity": 0.39,
        "hand": "right"
      },
      {
        "midi": 75,
        "time": 4.063,
        "duration": 0.156,
        "velocity": 0.39,
        "hand": "right"
      },
      {
        "midi": 83,
        "time": 4.063,
        "duration": 0.156,
        "velocity": 0.39,
        "hand": "right"
      },
      {
        "midi": 71,
        "time": 4.219,
        "duration": 0.156,
        "velocity": 0.39,
        "hand": "right"
      },
      {
        "midi": 85,
        "time": 4.219,
        "duration": 0.156,
        "velocity": 0.39,
        "hand": "right"
      },
      {
        "midi": 75,
        "time": 4.375,
        "duration": 0.156,
        "velocity": 0.39,
        "hand": "right"
      },
      {
        "midi": 83,
        "time": 4.375,
        "duration": 0.156,
        "velocity": 0.39,
        "hand": "right"
      },
      {
        "midi": 71,
        "time": 4.531,
        "duration": 0.156,
        "velocity": 0.39,
        "hand": "right"
      },
      {
        "midi": 80,
        "time": 4.531,
        "duration": 0.156,
        "velocity": 0.39,
        "hand": "right"
      },
      {
        "midi": 68,
        "time": 4.688,
        "duration": 0.938,
        "velocity": 0.39,
        "hand": "right"
      },
      {
        "midi": 76,
        "time": 4.688,
        "duration": 0.938,
        "velocity": 0.39,
        "hand": "right"
      },
      {
        "midi": 71,
        "time": 4.844,
        "duration": 0.156,
        "velocity": 0.39,
        "hand": "right"
      },
      {
        "midi": 80,
        "time": 4.844,
        "duration": 0.156,
        "velocity": 0.39,
        "hand": "right"
      },
      {
        "midi": 75,
        "time": 5,
        "duration": 0.156,
        "velocity": 0.39,
        "hand": "right"
      },
      {
        "midi": 83,
        "time": 5,
        "duration": 0.156,
        "velocity": 0.39,
        "hand": "right"
      },
      {
        "midi": 71,
        "time": 5.156,
        "duration": 0.156,
        "velocity": 0.39,
        "hand": "right"
      },
      {
        "midi": 85,
        "time": 5.156,
        "duration": 0.156,
        "velocity": 0.39,
        "hand": "right"
      },
      {
        "midi": 75,
        "time": 5.313,
        "duration": 0.156,
        "velocity": 0.39,
        "hand": "right"
      },
      {
        "midi": 83,
        "time": 5.313,
        "duration": 0.156,
        "velocity": 0.39,
        "hand": "right"
      },
      {
        "midi": 71,
        "time": 5.469,
        "duration": 0.156,
        "velocity": 0.39,
        "hand": "right"
      },
      {
        "midi": 80,
        "time": 5.469,
        "duration": 0.156,
        "velocity": 0.39,
        "hand": "right"
      },
      {
        "midi": 68,
        "time": 5.625,
        "duration": 0.938,
        "velocity": 0.39,
        "hand": "right"
      },
      {
        "midi": 76,
        "time": 5.625,
        "duration": 0.938,
        "velocity": 0.39,
        "hand": "right"
      },
      {
        "midi": 71,
        "time": 5.781,
        "duration": 0.156,
        "velocity": 0.39,
        "hand": "right"
      },
      {
        "midi": 80,
        "time": 5.781,
        "duration": 0.156,
        "velocity": 0.39,
        "hand": "right"
      },
      {
        "midi": 75,
        "time": 5.938,
        "duration": 0.156,
        "velocity": 0.39,
        "hand": "right"
      },
      {
        "midi": 83,
        "time": 5.938,
        "duration": 0.156,
        "velocity": 0.39,
        "hand": "right"
      },
      {
        "midi": 71,
        "time": 6.094,
        "duration": 0.156,
        "velocity": 0.39,
        "hand": "right"
      },
      {
        "midi": 85,
        "time": 6.094,
        "duration": 0.156,
        "velocity": 0.39,
        "hand": "right"
      },
      {
        "midi": 75,
        "time": 6.25,
        "duration": 0.156,
        "velocity": 0.39,
        "hand": "right"
      },
      {
        "midi": 83,
        "time": 6.25,
        "duration": 0.156,
        "velocity": 0.39,
        "hand": "right"
      },
      {
        "midi": 71,
        "time": 6.406,
        "duration": 0.156,
        "velocity": 0.39,
        "hand": "right"
      },
      {
        "midi": 80,
        "time": 6.406,
        "duration": 0.156,
        "velocity": 0.39,
        "hand": "right"
      },
      {
        "midi": 67,
        "time": 6.563,
        "duration": 0.938,
        "velocity": 0.39,
        "hand": "right"
      },
      {
        "midi": 76,
        "time": 6.563,
        "duration": 0.938,
        "velocity": 0.39,
        "hand": "right"
      },
      {
        "midi": 71,
        "time": 6.719,
        "duration": 0.156,
        "velocity": 0.39,
        "hand": "right"
      },
      {
        "midi": 80,
        "time": 6.719,
        "duration": 0.156,
        "velocity": 0.39,
        "hand": "right"
      },
      {
        "midi": 75,
        "time": 6.875,
        "duration": 0.156,
        "velocity": 0.39,
        "hand": "right"
      },
      {
        "midi": 83,
        "time": 6.875,
        "duration": 0.156,
        "velocity": 0.39,
        "hand": "right"
      },
      {
        "midi": 71,
        "time": 7.031,
        "duration": 0.156,
        "velocity": 0.39,
        "hand": "right"
      },
      {
        "midi": 85,
        "time": 7.031,
        "duration": 0.156,
        "velocity": 0.39,
        "hand": "right"
      },
      {
        "midi": 75,
        "time": 7.188,
        "duration": 0.156,
        "velocity": 0.39,
        "hand": "right"
      },
      {
        "midi": 83,
        "time": 7.188,
        "duration": 0.156,
        "velocity": 0.39,
        "hand": "right"
      },
      {
        "midi": 71,
        "time": 7.344,
        "duration": 0.156,
        "velocity": 0.39,
        "hand": "right"
      },
      {
        "midi": 80,
        "time": 7.344,
        "duration": 0.156,
        "velocity": 0.39,
        "hand": "right"
      },
      {
        "midi": 66,
        "time": 7.5,
        "duration": 0.938,
        "velocity": 0.39,
        "hand": "right"
      },
      {
        "midi": 76,
        "time": 7.5,
        "duration": 0.938,
        "velocity": 0.39,
        "hand": "right"
      },
      {
        "midi": 69,
        "time": 7.656,
        "duration": 0.156,
        "velocity": 0.39,
        "hand": "right"
      },
      {
        "midi": 78,
        "time": 7.656,
        "duration": 0.156,
        "velocity": 0.39,
        "hand": "right"
      },
      {
        "midi": 73,
        "time": 7.813,
        "duration": 0.156,
        "velocity": 0.39,
        "hand": "right"
      },
      {
        "midi": 81,
        "time": 7.813,
        "duration": 0.156,
        "velocity": 0.39,
        "hand": "right"
      },
      {
        "midi": 69,
        "time": 7.969,
        "duration": 0.156,
        "velocity": 0.39,
        "hand": "right"
      },
      {
        "midi": 83,
        "time": 7.969,
        "duration": 0.156,
        "velocity": 0.39,
        "hand": "right"
      },
      {
        "midi": 73,
        "time": 8.125,
        "duration": 0.156,
        "velocity": 0.39,
        "hand": "right"
      },
      {
        "midi": 81,
        "time": 8.125,
        "duration": 0.156,
        "velocity": 0.39,
        "hand": "right"
      },
      {
        "midi": 69,
        "time": 8.281,
        "duration": 0.156,
        "velocity": 0.39,
        "hand": "right"
      },
      {
        "midi": 78,
        "time": 8.281,
        "duration": 0.156,
        "velocity": 0.39,
        "hand": "right"
      },
      {
        "midi": 66,
        "time": 8.438,
        "duration": 0.938,
        "velocity": 0.39,
        "hand": "right"
      },
      {
        "midi": 76,
        "time": 8.438,
        "duration": 0.938,
        "velocity": 0.39,
        "hand": "right"
      },
      {
        "midi": 69,
        "time": 8.594,
        "duration": 0.156,
        "velocity": 0.39,
        "hand": "right"
      },
      {
        "midi": 78,
        "time": 8.594,
        "duration": 0.156,
        "velocity": 0.39,
        "hand": "right"
      },
      {
        "midi": 73,
        "time": 8.75,
        "duration": 0.156,
        "velocity": 0.39,
        "hand": "right"
      },
      {
        "midi": 81,
        "time": 8.75,
        "duration": 0.156,
        "velocity": 0.39,
        "hand": "right"
      },
      {
        "midi": 69,
        "time": 8.906,
        "duration": 0.156,
        "velocity": 0.39,
        "hand": "right"
      },
      {
        "midi": 83,
        "time": 8.906,
        "duration": 0.156,
        "velocity": 0.39,
        "hand": "right"
      },
      {
        "midi": 73,
        "time": 9.063,
        "duration": 0.156,
        "velocity": 0.39,
        "hand": "right"
      },
      {
        "midi": 81,
        "time": 9.063,
        "duration": 0.156,
        "velocity": 0.39,
        "hand": "right"
      },
      {
        "midi": 69,
        "time": 9.219,
        "duration": 0.156,
        "velocity": 0.39,
        "hand": "right"
      },
      {
        "midi": 78,
        "time": 9.219,
        "duration": 0.156,
        "velocity": 0.39,
        "hand": "right"
      },
      {
        "midi": 66,
        "time": 9.375,
        "duration": 0.938,
        "velocity": 0.39,
        "hand": "right"
      },
      {
        "midi": 76,
        "time": 9.375,
        "duration": 0.938,
        "velocity": 0.39,
        "hand": "right"
      },
      {
        "midi": 69,
        "time": 9.531,
        "duration": 0.156,
        "velocity": 0.39,
        "hand": "right"
      },
      {
        "midi": 78,
        "time": 9.531,
        "duration": 0.156,
        "velocity": 0.39,
        "hand": "right"
      },
      {
        "midi": 73,
        "time": 9.688,
        "duration": 0.156,
        "velocity": 0.39,
        "hand": "right"
      },
      {
        "midi": 81,
        "time": 9.688,
        "duration": 0.156,
        "velocity": 0.39,
        "hand": "right"
      },
      {
        "midi": 69,
        "time": 9.844,
        "duration": 0.156,
        "velocity": 0.39,
        "hand": "right"
      },
      {
        "midi": 83,
        "time": 9.844,
        "duration": 0.156,
        "velocity": 0.39,
        "hand": "right"
      },
      {
        "midi": 73,
        "time": 10,
        "duration": 0.156,
        "velocity": 0.39,
        "hand": "right"
      },
      {
        "midi": 81,
        "time": 10,
        "duration": 0.156,
        "velocity": 0.39,
        "hand": "right"
      },
      {
        "midi": 69,
        "time": 10.156,
        "duration": 0.156,
        "velocity": 0.39,
        "hand": "right"
      },
      {
        "midi": 78,
        "time": 10.156,
        "duration": 0.156,
        "velocity": 0.39,
        "hand": "right"
      },
      {
        "midi": 66,
        "time": 10.313,
        "duration": 0.938,
        "velocity": 0.39,
        "hand": "right"
      },
      {
        "midi": 76,
        "time": 10.313,
        "duration": 0.938,
        "velocity": 0.39,
        "hand": "right"
      },
      {
        "midi": 69,
        "time": 10.469,
        "duration": 0.156,
        "velocity": 0.39,
        "hand": "right"
      },
      {
        "midi": 78,
        "time": 10.469,
        "duration": 0.156,
        "velocity": 0.39,
        "hand": "right"
      },
      {
        "midi": 73,
        "time": 10.625,
        "duration": 0.156,
        "velocity": 0.39,
        "hand": "right"
      },
      {
        "midi": 81,
        "time": 10.625,
        "duration": 0.156,
        "velocity": 0.39,
        "hand": "right"
      },
      {
        "midi": 69,
        "time": 10.781,
        "duration": 0.156,
        "velocity": 0.39,
        "hand": "right"
      },
      {
        "midi": 83,
        "time": 10.781,
        "duration": 0.156,
        "velocity": 0.39,
        "hand": "right"
      },
      {
        "midi": 73,
        "time": 10.938,
        "duration": 0.156,
        "velocity": 0.39,
        "hand": "right"
      },
      {
        "midi": 81,
        "time": 10.938,
        "duration": 0.156,
        "velocity": 0.39,
        "hand": "right"
      },
      {
        "midi": 69,
        "time": 11.094,
        "duration": 0.156,
        "velocity": 0.39,
        "hand": "right"
      },
      {
        "midi": 78,
        "time": 11.094,
        "duration": 0.156,
        "velocity": 0.39,
        "hand": "right"
      },
      {
        "midi": 64,
        "time": 11.25,
        "duration": 0.938,
        "velocity": 0.39,
        "hand": "right"
      },
      {
        "midi": 75,
        "time": 11.25,
        "duration": 0.938,
        "velocity": 0.39,
        "hand": "right"
      },
      {
        "midi": 68,
        "time": 11.406,
        "duration": 0.156,
        "velocity": 0.39,
        "hand": "right"
      },
      {
        "midi": 76,
        "time": 11.406,
        "duration": 0.156,
        "velocity": 0.39,
        "hand": "right"
      },
      {
        "midi": 71,
        "time": 11.563,
        "duration": 0.156,
        "velocity": 0.39,
        "hand": "right"
      },
      {
        "midi": 78,
        "time": 11.563,
        "duration": 0.156,
        "velocity": 0.39,
        "hand": "right"
      },
      {
        "midi": 68,
        "time": 11.719,
        "duration": 0.156,
        "velocity": 0.39,
        "hand": "right"
      },
      {
        "midi": 80,
        "time": 11.719,
        "duration": 0.156,
        "velocity": 0.39,
        "hand": "right"
      },
      {
        "midi": 71,
        "time": 11.875,
        "duration": 0.156,
        "velocity": 0.39,
        "hand": "right"
      },
      {
        "midi": 78,
        "time": 11.875,
        "duration": 0.156,
        "velocity": 0.39,
        "hand": "right"
      },
      {
        "midi": 68,
        "time": 12.031,
        "duration": 0.156,
        "velocity": 0.39,
        "hand": "right"
      },
      {
        "midi": 76,
        "time": 12.031,
        "duration": 0.156,
        "velocity": 0.39,
        "hand": "right"
      },
      {
        "midi": 64,
        "time": 12.188,
        "duration": 0.938,
        "velocity": 0.39,
        "hand": "right"
      },
      {
        "midi": 75,
        "time": 12.188,
        "duration": 0.938,
        "velocity": 0.39,
        "hand": "right"
      },
      {
        "midi": 68,
        "time": 12.344,
        "duration": 0.156,
        "velocity": 0.39,
        "hand": "right"
      },
      {
        "midi": 76,
        "time": 12.344,
        "duration": 0.156,
        "velocity": 0.39,
        "hand": "right"
      },
      {
        "midi": 71,
        "time": 12.5,
        "duration": 0.156,
        "velocity": 0.39,
        "hand": "right"
      },
      {
        "midi": 78,
        "time": 12.5,
        "duration": 0.156,
        "velocity": 0.39,
        "hand": "right"
      },
      {
        "midi": 68,
        "time": 12.656,
        "duration": 0.156,
        "velocity": 0.39,
        "hand": "right"
      },
      {
        "midi": 80,
        "time": 12.656,
        "duration": 0.156,
        "velocity": 0.39,
        "hand": "right"
      },
      {
        "midi": 71,
        "time": 12.813,
        "duration": 0.156,
        "velocity": 0.39,
        "hand": "right"
      },
      {
        "midi": 78,
        "time": 12.813,
        "duration": 0.156,
        "velocity": 0.39,
        "hand": "right"
      },
      {
        "midi": 68,
        "time": 12.969,
        "duration": 0.156,
        "velocity": 0.39,
        "hand": "right"
      },
      {
        "midi": 76,
        "time": 12.969,
        "duration": 0.156,
        "velocity": 0.39,
        "hand": "right"
      },
      {
        "midi": 64,
        "time": 13.125,
        "duration": 0.938,
        "velocity": 0.39,
        "hand": "right"
      },
      {
        "midi": 75,
        "time": 13.125,
        "duration": 0.938,
        "velocity": 0.39,
        "hand": "right"
      },
      {
        "midi": 68,
        "time": 13.281,
        "duration": 0.156,
        "velocity": 0.39,
        "hand": "right"
      },
      {
        "midi": 76,
        "time": 13.281,
        "duration": 0.156,
        "velocity": 0.39,
        "hand": "right"
      },
      {
        "midi": 71,
        "time": 13.438,
        "duration": 0.156,
        "velocity": 0.4,
        "hand": "right"
      },
      {
        "midi": 78,
        "time": 13.438,
        "duration": 0.156,
        "velocity": 0.4,
        "hand": "right"
      },
      {
        "midi": 68,
        "time": 13.594,
        "duration": 0.156,
        "velocity": 0.41,
        "hand": "right"
      },
      {
        "midi": 80,
        "time": 13.594,
        "duration": 0.156,
        "velocity": 0.41,
        "hand": "right"
      },
      {
        "midi": 71,
        "time": 13.75,
        "duration": 0.156,
        "velocity": 0.43,
        "hand": "right"
      },
      {
        "midi": 78,
        "time": 13.75,
        "duration": 0.156,
        "velocity": 0.43,
        "hand": "right"
      },
      {
        "midi": 68,
        "time": 13.906,
        "duration": 0.156,
        "velocity": 0.43,
        "hand": "right"
      },
      {
        "midi": 76,
        "time": 13.906,
        "duration": 0.156,
        "velocity": 0.43,
        "hand": "right"
      },
      {
        "midi": 64,
        "time": 14.063,
        "duration": 0.938,
        "velocity": 0.44,
        "hand": "right"
      },
      {
        "midi": 75,
        "time": 14.063,
        "duration": 0.938,
        "velocity": 0.44,
        "hand": "right"
      },
      {
        "midi": 68,
        "time": 14.219,
        "duration": 0.156,
        "velocity": 0.45,
        "hand": "right"
      },
      {
        "midi": 76,
        "time": 14.219,
        "duration": 0.156,
        "velocity": 0.45,
        "hand": "right"
      },
      {
        "midi": 71,
        "time": 14.375,
        "duration": 0.156,
        "velocity": 0.46,
        "hand": "right"
      },
      {
        "midi": 78,
        "time": 14.375,
        "duration": 0.156,
        "velocity": 0.46,
        "hand": "right"
      },
      {
        "midi": 68,
        "time": 14.531,
        "duration": 0.156,
        "velocity": 0.47,
        "hand": "right"
      },
      {
        "midi": 80,
        "time": 14.531,
        "duration": 0.156,
        "velocity": 0.47,
        "hand": "right"
      },
      {
        "midi": 71,
        "time": 14.688,
        "duration": 0.156,
        "velocity": 0.48,
        "hand": "right"
      },
      {
        "midi": 78,
        "time": 14.688,
        "duration": 0.156,
        "velocity": 0.48,
        "hand": "right"
      },
      {
        "midi": 68,
        "time": 14.844,
        "duration": 0.156,
        "velocity": 0.49,
        "hand": "right"
      },
      {
        "midi": 76,
        "time": 14.844,
        "duration": 0.156,
        "velocity": 0.49,
        "hand": "right"
      },
      {
        "midi": 45,
        "time": 15,
        "duration": 0.156,
        "velocity": 0.5,
        "hand": "left"
      },
      {
        "midi": 68,
        "time": 15,
        "duration": 0.156,
        "velocity": 0.5,
        "hand": "right"
      },
      {
        "midi": 52,
        "time": 15.156,
        "duration": 0.156,
        "velocity": 0.5,
        "hand": "left"
      },
      {
        "midi": 68,
        "time": 15.156,
        "duration": 0.156,
        "velocity": 0.5,
        "hand": "right"
      },
      {
        "midi": 61,
        "time": 15.313,
        "duration": 0.156,
        "velocity": 0.5,
        "hand": "right"
      },
      {
        "midi": 68,
        "time": 15.313,
        "duration": 0.156,
        "velocity": 0.5,
        "hand": "right"
      },
      {
        "midi": 52,
        "time": 15.469,
        "duration": 0.156,
        "velocity": 0.5,
        "hand": "left"
      },
      {
        "midi": 68,
        "time": 15.469,
        "duration": 0.156,
        "velocity": 0.5,
        "hand": "right"
      },
      {
        "midi": 61,
        "time": 15.625,
        "duration": 0.156,
        "velocity": 0.5,
        "hand": "right"
      },
      {
        "midi": 68,
        "time": 15.625,
        "duration": 0.156,
        "velocity": 0.5,
        "hand": "right"
      },
      {
        "midi": 52,
        "time": 15.781,
        "duration": 0.156,
        "velocity": 0.5,
        "hand": "left"
      },
      {
        "midi": 66,
        "time": 15.781,
        "duration": 0.156,
        "velocity": 0.5,
        "hand": "right"
      },
      {
        "midi": 45,
        "time": 15.938,
        "duration": 0.156,
        "velocity": 0.5,
        "hand": "left"
      },
      {
        "midi": 92,
        "time": 15.938,
        "duration": 0.156,
        "velocity": 0.6,
        "hand": "right"
      },
      {
        "midi": 52,
        "time": 16.094,
        "duration": 0.156,
        "velocity": 0.5,
        "hand": "left"
      },
      {
        "midi": 61,
        "time": 16.25,
        "duration": 0.156,
        "velocity": 0.5,
        "hand": "right"
      },
      {
        "midi": 52,
        "time": 16.406,
        "duration": 0.156,
        "velocity": 0.5,
        "hand": "left"
      },
      {
        "midi": 61,
        "time": 16.563,
        "duration": 0.156,
        "velocity": 0.5,
        "hand": "right"
      },
      {
        "midi": 52,
        "time": 16.719,
        "duration": 0.156,
        "velocity": 0.5,
        "hand": "left"
      },
      {
        "midi": 45,
        "time": 16.875,
        "duration": 0.156,
        "velocity": 0.5,
        "hand": "left"
      },
      {
        "midi": 68,
        "time": 16.875,
        "duration": 0.156,
        "velocity": 0.5,
        "hand": "right"
      },
      {
        "midi": 52,
        "time": 17.031,
        "duration": 0.156,
        "velocity": 0.5,
        "hand": "left"
      },
      {
        "midi": 68,
        "time": 17.031,
        "duration": 0.156,
        "velocity": 0.5,
        "hand": "right"
      },
      {
        "midi": 61,
        "time": 17.188,
        "duration": 0.156,
        "velocity": 0.5,
        "hand": "right"
      },
      {
        "midi": 68,
        "time": 17.188,
        "duration": 0.156,
        "velocity": 0.5,
        "hand": "right"
      },
      {
        "midi": 52,
        "time": 17.344,
        "duration": 0.156,
        "velocity": 0.5,
        "hand": "left"
      },
      {
        "midi": 68,
        "time": 17.344,
        "duration": 0.156,
        "velocity": 0.5,
        "hand": "right"
      },
      {
        "midi": 61,
        "time": 17.5,
        "duration": 0.156,
        "velocity": 0.5,
        "hand": "right"
      },
      {
        "midi": 68,
        "time": 17.5,
        "duration": 0.313,
        "velocity": 0.5,
        "hand": "right"
      },
      {
        "midi": 52,
        "time": 17.656,
        "duration": 0.156,
        "velocity": 0.5,
        "hand": "left"
      },
      {
        "midi": 45,
        "time": 17.813,
        "duration": 0.156,
        "velocity": 0.5,
        "hand": "left"
      },
      {
        "midi": 68,
        "time": 17.813,
        "duration": 0.156,
        "velocity": 0.5,
        "hand": "right"
      },
      {
        "midi": 52,
        "time": 17.969,
        "duration": 0.156,
        "velocity": 0.5,
        "hand": "left"
      },
      {
        "midi": 68,
        "time": 17.969,
        "duration": 0.156,
        "velocity": 0.5,
        "hand": "right"
      },
      {
        "midi": 61,
        "time": 18.125,
        "duration": 0.156,
        "velocity": 0.5,
        "hand": "right"
      },
      {
        "midi": 68,
        "time": 18.125,
        "duration": 0.156,
        "velocity": 0.5,
        "hand": "right"
      },
      {
        "midi": 52,
        "time": 18.281,
        "duration": 0.156,
        "velocity": 0.5,
        "hand": "left"
      },
      {
        "midi": 68,
        "time": 18.281,
        "duration": 0.156,
        "velocity": 0.5,
        "hand": "right"
      },
      {
        "midi": 61,
        "time": 18.438,
        "duration": 0.156,
        "velocity": 0.5,
        "hand": "right"
      },
      {
        "midi": 68,
        "time": 18.438,
        "duration": 0.313,
        "velocity": 0.5,
        "hand": "right"
      },
      {
        "midi": 52,
        "time": 18.594,
        "duration": 0.156,
        "velocity": 0.5,
        "hand": "left"
      },
      {
        "midi": 44,
        "time": 18.75,
        "duration": 0.156,
        "velocity": 0.5,
        "hand": "left"
      },
      {
        "midi": 68,
        "time": 18.75,
        "duration": 0.156,
        "velocity": 0.5,
        "hand": "right"
      },
      {
        "midi": 51,
        "time": 18.906,
        "duration": 0.156,
        "velocity": 0.5,
        "hand": "left"
      },
      {
        "midi": 68,
        "time": 18.906,
        "duration": 0.156,
        "velocity": 0.5,
        "hand": "right"
      },
      {
        "midi": 59,
        "time": 19.063,
        "duration": 0.156,
        "velocity": 0.5,
        "hand": "left"
      },
      {
        "midi": 68,
        "time": 19.063,
        "duration": 0.156,
        "velocity": 0.5,
        "hand": "right"
      },
      {
        "midi": 51,
        "time": 19.219,
        "duration": 0.156,
        "velocity": 0.5,
        "hand": "left"
      },
      {
        "midi": 68,
        "time": 19.219,
        "duration": 0.156,
        "velocity": 0.5,
        "hand": "right"
      },
      {
        "midi": 59,
        "time": 19.375,
        "duration": 0.156,
        "velocity": 0.5,
        "hand": "left"
      },
      {
        "midi": 68,
        "time": 19.375,
        "duration": 0.156,
        "velocity": 0.5,
        "hand": "right"
      },
      {
        "midi": 51,
        "time": 19.531,
        "duration": 0.156,
        "velocity": 0.5,
        "hand": "left"
      },
      {
        "midi": 66,
        "time": 19.531,
        "duration": 0.156,
        "velocity": 0.5,
        "hand": "right"
      },
      {
        "midi": 44,
        "time": 19.688,
        "duration": 0.156,
        "velocity": 0.5,
        "hand": "left"
      },
      {
        "midi": 92,
        "time": 19.688,
        "duration": 0.156,
        "velocity": 0.6,
        "hand": "right"
      },
      {
        "midi": 51,
        "time": 19.844,
        "duration": 0.156,
        "velocity": 0.5,
        "hand": "left"
      },
      {
        "midi": 59,
        "time": 20,
        "duration": 0.156,
        "velocity": 0.5,
        "hand": "left"
      },
      {
        "midi": 51,
        "time": 20.156,
        "duration": 0.156,
        "velocity": 0.5,
        "hand": "left"
      },
      {
        "midi": 59,
        "time": 20.313,
        "duration": 0.156,
        "velocity": 0.5,
        "hand": "left"
      },
      {
        "midi": 51,
        "time": 20.469,
        "duration": 0.156,
        "velocity": 0.5,
        "hand": "left"
      },
      {
        "midi": 44,
        "time": 20.625,
        "duration": 0.156,
        "velocity": 0.5,
        "hand": "left"
      },
      {
        "midi": 68,
        "time": 20.625,
        "duration": 0.156,
        "velocity": 0.5,
        "hand": "right"
      },
      {
        "midi": 51,
        "time": 20.781,
        "duration": 0.156,
        "velocity": 0.5,
        "hand": "left"
      },
      {
        "midi": 68,
        "time": 20.781,
        "duration": 0.156,
        "velocity": 0.5,
        "hand": "right"
      },
      {
        "midi": 59,
        "time": 20.938,
        "duration": 0.156,
        "velocity": 0.5,
        "hand": "left"
      },
      {
        "midi": 68,
        "time": 20.938,
        "duration": 0.156,
        "velocity": 0.5,
        "hand": "right"
      },
      {
        "midi": 51,
        "time": 21.094,
        "duration": 0.156,
        "velocity": 0.5,
        "hand": "left"
      },
      {
        "midi": 68,
        "time": 21.094,
        "duration": 0.156,
        "velocity": 0.5,
        "hand": "right"
      },
      {
        "midi": 59,
        "time": 21.25,
        "duration": 0.156,
        "velocity": 0.5,
        "hand": "left"
      },
      {
        "midi": 68,
        "time": 21.25,
        "duration": 0.313,
        "velocity": 0.5,
        "hand": "right"
      },
      {
        "midi": 51,
        "time": 21.406,
        "duration": 0.156,
        "velocity": 0.5,
        "hand": "left"
      },
      {
        "midi": 43,
        "time": 21.563,
        "duration": 0.156,
        "velocity": 0.5,
        "hand": "left"
      },
      {
        "midi": 68,
        "time": 21.563,
        "duration": 0.156,
        "velocity": 0.5,
        "hand": "right"
      },
      {
        "midi": 51,
        "time": 21.719,
        "duration": 0.156,
        "velocity": 0.5,
        "hand": "left"
      },
      {
        "midi": 68,
        "time": 21.719,
        "duration": 0.156,
        "velocity": 0.5,
        "hand": "right"
      },
      {
        "midi": 59,
        "time": 21.875,
        "duration": 0.156,
        "velocity": 0.5,
        "hand": "left"
      },
      {
        "midi": 68,
        "time": 21.875,
        "duration": 0.156,
        "velocity": 0.5,
        "hand": "right"
      },
      {
        "midi": 51,
        "time": 22.031,
        "duration": 0.156,
        "velocity": 0.5,
        "hand": "left"
      },
      {
        "midi": 68,
        "time": 22.031,
        "duration": 0.156,
        "velocity": 0.5,
        "hand": "right"
      },
      {
        "midi": 59,
        "time": 22.188,
        "duration": 0.156,
        "velocity": 0.5,
        "hand": "left"
      },
      {
        "midi": 68,
        "time": 22.188,
        "duration": 0.313,
        "velocity": 0.5,
        "hand": "right"
      },
      {
        "midi": 51,
        "time": 22.344,
        "duration": 0.156,
        "velocity": 0.5,
        "hand": "left"
      },
      {
        "midi": 42,
        "time": 22.5,
        "duration": 0.156,
        "velocity": 0.5,
        "hand": "left"
      },
      {
        "midi": 68,
        "time": 22.5,
        "duration": 0.156,
        "velocity": 0.5,
        "hand": "right"
      },
      {
        "midi": 49,
        "time": 22.656,
        "duration": 0.156,
        "velocity": 0.5,
        "hand": "left"
      },
      {
        "midi": 68,
        "time": 22.656,
        "duration": 0.156,
        "velocity": 0.5,
        "hand": "right"
      },
      {
        "midi": 57,
        "time": 22.813,
        "duration": 0.156,
        "velocity": 0.5,
        "hand": "left"
      },
      {
        "midi": 68,
        "time": 22.813,
        "duration": 0.156,
        "velocity": 0.5,
        "hand": "right"
      },
      {
        "midi": 49,
        "time": 22.969,
        "duration": 0.156,
        "velocity": 0.5,
        "hand": "left"
      },
      {
        "midi": 68,
        "time": 22.969,
        "duration": 0.156,
        "velocity": 0.5,
        "hand": "right"
      },
      {
        "midi": 57,
        "time": 23.125,
        "duration": 0.156,
        "velocity": 0.5,
        "hand": "left"
      },
      {
        "midi": 68,
        "time": 23.125,
        "duration": 0.156,
        "velocity": 0.5,
        "hand": "right"
      },
      {
        "midi": 49,
        "time": 23.281,
        "duration": 0.156,
        "velocity": 0.5,
        "hand": "left"
      },
      {
        "midi": 66,
        "time": 23.281,
        "duration": 0.156,
        "velocity": 0.5,
        "hand": "right"
      },
      {
        "midi": 42,
        "time": 23.438,
        "duration": 0.156,
        "velocity": 0.5,
        "hand": "left"
      },
      {
        "midi": 90,
        "time": 23.438,
        "duration": 0.156,
        "velocity": 0.6,
        "hand": "right"
      },
      {
        "midi": 49,
        "time": 23.594,
        "duration": 0.156,
        "velocity": 0.5,
        "hand": "left"
      },
      {
        "midi": 57,
        "time": 23.75,
        "duration": 0.156,
        "velocity": 0.5,
        "hand": "left"
      },
      {
        "midi": 49,
        "time": 23.906,
        "duration": 0.156,
        "velocity": 0.5,
        "hand": "left"
      },
      {
        "midi": 57,
        "time": 24.063,
        "duration": 0.156,
        "velocity": 0.5,
        "hand": "left"
      },
      {
        "midi": 49,
        "time": 24.219,
        "duration": 0.156,
        "velocity": 0.5,
        "hand": "left"
      },
      {
        "midi": 42,
        "time": 24.375,
        "duration": 0.156,
        "velocity": 0.5,
        "hand": "left"
      },
      {
        "midi": 68,
        "time": 24.375,
        "duration": 0.156,
        "velocity": 0.5,
        "hand": "right"
      },
      {
        "midi": 49,
        "time": 24.531,
        "duration": 0.156,
        "velocity": 0.5,
        "hand": "left"
      },
      {
        "midi": 68,
        "time": 24.531,
        "duration": 0.156,
        "velocity": 0.5,
        "hand": "right"
      },
      {
        "midi": 57,
        "time": 24.688,
        "duration": 0.156,
        "velocity": 0.5,
        "hand": "left"
      },
      {
        "midi": 68,
        "time": 24.688,
        "duration": 0.156,
        "velocity": 0.5,
        "hand": "right"
      },
      {
        "midi": 49,
        "time": 24.844,
        "duration": 0.156,
        "velocity": 0.5,
        "hand": "left"
      },
      {
        "midi": 68,
        "time": 24.844,
        "duration": 0.156,
        "velocity": 0.5,
        "hand": "right"
      },
      {
        "midi": 57,
        "time": 25,
        "duration": 0.156,
        "velocity": 0.5,
        "hand": "left"
      },
      {
        "midi": 68,
        "time": 25,
        "duration": 0.156,
        "velocity": 0.5,
        "hand": "right"
      },
      {
        "midi": 49,
        "time": 25.156,
        "duration": 0.156,
        "velocity": 0.5,
        "hand": "left"
      },
      {
        "midi": 66,
        "time": 25.156,
        "duration": 0.156,
        "velocity": 0.5,
        "hand": "right"
      },
      {
        "midi": 42,
        "time": 25.313,
        "duration": 0.156,
        "velocity": 0.5,
        "hand": "left"
      },
      {
        "midi": 90,
        "time": 25.313,
        "duration": 0.156,
        "velocity": 0.6,
        "hand": "right"
      },
      {
        "midi": 49,
        "time": 25.469,
        "duration": 0.156,
        "velocity": 0.5,
        "hand": "left"
      },
      {
        "midi": 57,
        "time": 25.625,
        "duration": 0.156,
        "velocity": 0.5,
        "hand": "left"
      },
      {
        "midi": 49,
        "time": 25.781,
        "duration": 0.156,
        "velocity": 0.5,
        "hand": "left"
      },
      {
        "midi": 57,
        "time": 25.938,
        "duration": 0.156,
        "velocity": 0.5,
        "hand": "left"
      },
      {
        "midi": 49,
        "time": 26.094,
        "duration": 0.156,
        "velocity": 0.5,
        "hand": "left"
      },
      {
        "midi": 40,
        "time": 26.25,
        "duration": 0.156,
        "velocity": 0.5,
        "hand": "left"
      },
      {
        "midi": 68,
        "time": 26.25,
        "duration": 0.156,
        "velocity": 0.5,
        "hand": "right"
      },
      {
        "midi": 47,
        "time": 26.406,
        "duration": 0.156,
        "velocity": 0.5,
        "hand": "left"
      },
      {
        "midi": 68,
        "time": 26.406,
        "duration": 0.156,
        "velocity": 0.5,
        "hand": "right"
      },
      {
        "midi": 56,
        "time": 26.563,
        "duration": 0.156,
        "velocity": 0.5,
        "hand": "left"
      },
      {
        "midi": 68,
        "time": 26.563,
        "duration": 0.156,
        "velocity": 0.5,
        "hand": "right"
      },
      {
        "midi": 47,
        "time": 26.719,
        "duration": 0.156,
        "velocity": 0.5,
        "hand": "left"
      },
      {
        "midi": 68,
        "time": 26.719,
        "duration": 0.156,
        "velocity": 0.5,
        "hand": "right"
      },
      {
        "midi": 56,
        "time": 26.875,
        "duration": 0.156,
        "velocity": 0.5,
        "hand": "left"
      },
      {
        "midi": 68,
        "time": 26.875,
        "duration": 0.313,
        "velocity": 0.5,
        "hand": "right"
      },
      {
        "midi": 47,
        "time": 27.031,
        "duration": 0.156,
        "velocity": 0.5,
        "hand": "left"
      },
      {
        "midi": 40,
        "time": 27.188,
        "duration": 0.156,
        "velocity": 0.5,
        "hand": "left"
      },
      {
        "midi": 68,
        "time": 27.188,
        "duration": 0.156,
        "velocity": 0.5,
        "hand": "right"
      },
      {
        "midi": 75,
        "time": 27.188,
        "duration": 0.938,
        "velocity": 0.5,
        "hand": "right"
      },
      {
        "midi": 47,
        "time": 27.344,
        "duration": 0.156,
        "velocity": 0.5,
        "hand": "left"
      },
      {
        "midi": 68,
        "time": 27.344,
        "duration": 0.156,
        "velocity": 0.5,
        "hand": "right"
      },
      {
        "midi": 56,
        "time": 27.5,
        "duration": 0.156,
        "velocity": 0.5,
        "hand": "left"
      },
      {
        "midi": 68,
        "time": 27.5,
        "duration": 0.156,
        "velocity": 0.5,
        "hand": "right"
      },
      {
        "midi": 47,
        "time": 27.656,
        "duration": 0.156,
        "velocity": 0.5,
        "hand": "left"
      },
      {
        "midi": 68,
        "time": 27.656,
        "duration": 0.156,
        "velocity": 0.5,
        "hand": "right"
      },
      {
        "midi": 56,
        "time": 27.813,
        "duration": 0.156,
        "velocity": 0.5,
        "hand": "left"
      },
      {
        "midi": 68,
        "time": 27.813,
        "duration": 0.313,
        "velocity": 0.5,
        "hand": "right"
      },
      {
        "midi": 47,
        "time": 27.969,
        "duration": 0.156,
        "velocity": 0.5,
        "hand": "left"
      },
      {
        "midi": 40,
        "time": 28.125,
        "duration": 0.156,
        "velocity": 0.5,
        "hand": "left"
      },
      {
        "midi": 68,
        "time": 28.125,
        "duration": 0.313,
        "velocity": 0.5,
        "hand": "right"
      },
      {
        "midi": 76,
        "time": 28.125,
        "duration": 0.938,
        "velocity": 0.5,
        "hand": "right"
      },
      {
        "midi": 47,
        "time": 28.281,
        "duration": 0.156,
        "velocity": 0.51,
        "hand": "left"
      },
      {
        "midi": 56,
        "time": 28.438,
        "duration": 0.156,
        "velocity": 0.52,
        "hand": "left"
      },
      {
        "midi": 68,
        "time": 28.438,
        "duration": 0.313,
        "velocity": 0.52,
        "hand": "right"
      },
      {
        "midi": 47,
        "time": 28.594,
        "duration": 0.156,
        "velocity": 0.54,
        "hand": "left"
      },
      {
        "midi": 56,
        "time": 28.75,
        "duration": 0.156,
        "velocity": 0.54,
        "hand": "left"
      },
      {
        "midi": 68,
        "time": 28.75,
        "duration": 0.156,
        "velocity": 0.54,
        "hand": "right"
      },
      {
        "midi": 47,
        "time": 28.906,
        "duration": 0.156,
        "velocity": 0.55,
        "hand": "left"
      },
      {
        "midi": 66,
        "time": 28.906,
        "duration": 0.156,
        "velocity": 0.55,
        "hand": "right"
      },
      {
        "midi": 40,
        "time": 29.063,
        "duration": 0.156,
        "velocity": 0.57,
        "hand": "left"
      },
      {
        "midi": 64,
        "time": 29.063,
        "duration": 0.313,
        "velocity": 0.57,
        "hand": "right"
      },
      {
        "midi": 78,
        "time": 29.063,
        "duration": 0.938,
        "velocity": 0.57,
        "hand": "right"
      },
      {
        "midi": 47,
        "time": 29.219,
        "duration": 0.156,
        "velocity": 0.57,
        "hand": "left"
      },
      {
        "midi": 56,
        "time": 29.375,
        "duration": 0.156,
        "velocity": 0.58,
        "hand": "left"
      },
      {
        "midi": 68,
        "time": 29.375,
        "duration": 0.313,
        "velocity": 0.58,
        "hand": "right"
      },
      {
        "midi": 47,
        "time": 29.531,
        "duration": 0.156,
        "velocity": 0.6,
        "hand": "left"
      },
      {
        "midi": 56,
        "time": 29.688,
        "duration": 0.156,
        "velocity": 0.61,
        "hand": "left"
      },
      {
        "midi": 71,
        "time": 29.688,
        "duration": 0.313,
        "velocity": 0.61,
        "hand": "right"
      },
      {
        "midi": 47,
        "time": 29.844,
        "duration": 0.156,
        "velocity": 0.61,
        "hand": "left"
      },
      {
        "midi": 45,
        "time": 30,
        "duration": 0.156,
        "velocity": 0.63,
        "hand": "left"
      },
      {
        "midi": 64,
        "time": 30,
        "duration": 1.25,
        "velocity": 0.63,
        "hand": "right"
      },
      {
        "midi": 69,
        "time": 30,
        "duration": 1.25,
        "velocity": 0.63,
        "hand": "right"
      },
      {
        "midi": 52,
        "time": 30.156,
        "duration": 0.156,
        "velocity": 0.63,
        "hand": "left"
      },
      {
        "midi": 73,
        "time": 30.156,
        "duration": 1.094,
        "velocity": 0.63,
        "hand": "right"
      },
      {
        "midi": 61,
        "time": 30.313,
        "duration": 0.156,
        "velocity": 0.63,
        "hand": "right"
      },
      {
        "midi": 52,
        "time": 30.469,
        "duration": 0.156,
        "velocity": 0.63,
        "hand": "left"
      },
      {
        "midi": 61,
        "time": 30.625,
        "duration": 0.156,
        "velocity": 0.63,
        "hand": "right"
      },
      {
        "midi": 52,
        "time": 30.781,
        "duration": 0.156,
        "velocity": 0.63,
        "hand": "left"
      },
      {
        "midi": 45,
        "time": 30.938,
        "duration": 0.156,
        "velocity": 0.63,
        "hand": "left"
      },
      {
        "midi": 57,
        "time": 30.938,
        "duration": 0.156,
        "velocity": 0.63,
        "hand": "left"
      },
      {
        "midi": 52,
        "time": 31.094,
        "duration": 0.156,
        "velocity": 0.63,
        "hand": "left"
      },
      {
        "midi": 61,
        "time": 31.25,
        "duration": 0.156,
        "velocity": 0.63,
        "hand": "right"
      },
      {
        "midi": 73,
        "time": 31.25,
        "duration": 0.313,
        "velocity": 0.63,
        "hand": "right"
      },
      {
        "midi": 52,
        "time": 31.406,
        "duration": 0.156,
        "velocity": 0.63,
        "hand": "left"
      },
      {
        "midi": 61,
        "time": 31.563,
        "duration": 0.156,
        "velocity": 0.63,
        "hand": "right"
      },
      {
        "midi": 69,
        "time": 31.563,
        "duration": 0.313,
        "velocity": 0.63,
        "hand": "right"
      },
      {
        "midi": 75,
        "time": 31.563,
        "duration": 0.313,
        "velocity": 0.63,
        "hand": "right"
      },
      {
        "midi": 52,
        "time": 31.719,
        "duration": 0.156,
        "velocity": 0.63,
        "hand": "left"
      },
      {
        "midi": 45,
        "time": 31.875,
        "duration": 0.156,
        "velocity": 0.63,
        "hand": "left"
      },
      {
        "midi": 69,
        "time": 31.875,
        "duration": 1.25,
        "velocity": 0.63,
        "hand": "right"
      },
      {
        "midi": 76,
        "time": 31.875,
        "duration": 1.25,
        "velocity": 0.63,
        "hand": "right"
      },
      {
        "midi": 52,
        "time": 32.031,
        "duration": 0.156,
        "velocity": 0.63,
        "hand": "left"
      },
      {
        "midi": 61,
        "time": 32.188,
        "duration": 0.156,
        "velocity": 0.63,
        "hand": "right"
      },
      {
        "midi": 52,
        "time": 32.344,
        "duration": 0.156,
        "velocity": 0.63,
        "hand": "left"
      },
      {
        "midi": 61,
        "time": 32.5,
        "duration": 0.156,
        "velocity": 0.63,
        "hand": "right"
      },
      {
        "midi": 52,
        "time": 32.656,
        "duration": 0.156,
        "velocity": 0.63,
        "hand": "left"
      },
      {
        "midi": 45,
        "time": 32.813,
        "duration": 0.156,
        "velocity": 0.63,
        "hand": "left"
      },
      {
        "midi": 57,
        "time": 32.813,
        "duration": 0.156,
        "velocity": 0.63,
        "hand": "left"
      },
      {
        "midi": 52,
        "time": 32.969,
        "duration": 0.156,
        "velocity": 0.63,
        "hand": "left"
      },
      {
        "midi": 61,
        "time": 33.125,
        "duration": 0.156,
        "velocity": 0.63,
        "hand": "right"
      },
      {
        "midi": 69,
        "time": 33.125,
        "duration": 0.313,
        "velocity": 0.63,
        "hand": "right"
      },
      {
        "midi": 73,
        "time": 33.125,
        "duration": 0.313,
        "velocity": 0.63,
        "hand": "right"
      },
      {
        "midi": 52,
        "time": 33.281,
        "duration": 0.156,
        "velocity": 0.63,
        "hand": "left"
      },
      {
        "midi": 61,
        "time": 33.438,
        "duration": 0.156,
        "velocity": 0.63,
        "hand": "right"
      },
      {
        "midi": 68,
        "time": 33.438,
        "duration": 0.313,
        "velocity": 0.63,
        "hand": "right"
      },
      {
        "midi": 76,
        "time": 33.438,
        "duration": 0.313,
        "velocity": 0.63,
        "hand": "right"
      },
      {
        "midi": 52,
        "time": 33.594,
        "duration": 0.156,
        "velocity": 0.63,
        "hand": "left"
      },
      {
        "midi": 44,
        "time": 33.75,
        "duration": 0.156,
        "velocity": 0.63,
        "hand": "left"
      },
      {
        "midi": 68,
        "time": 33.75,
        "duration": 0.313,
        "velocity": 0.63,
        "hand": "right"
      },
      {
        "midi": 75,
        "time": 33.75,
        "duration": 0.313,
        "velocity": 0.63,
        "hand": "right"
      },
      {
        "midi": 51,
        "time": 33.906,
        "duration": 0.156,
        "velocity": 0.63,
        "hand": "left"
      },
      {
        "midi": 59,
        "time": 34.063,
        "duration": 0.156,
        "velocity": 0.63,
        "hand": "left"
      },
      {
        "midi": 73,
        "time": 34.063,
        "duration": 0.313,
        "velocity": 0.63,
        "hand": "right"
      },
      {
        "midi": 51,
        "time": 34.219,
        "duration": 0.156,
        "velocity": 0.63,
        "hand": "left"
      },
      {
        "midi": 59,
        "time": 34.375,
        "duration": 0.156,
        "velocity": 0.63,
        "hand": "left"
      },
      {
        "midi": 68,
        "time": 34.375,
        "duration": 0.313,
        "velocity": 0.63,
        "hand": "right"
      },
      {
        "midi": 71,
        "time": 34.375,
        "duration": 0.313,
        "velocity": 0.63,
        "hand": "right"
      },
      {
        "midi": 51,
        "time": 34.531,
        "duration": 0.156,
        "velocity": 0.63,
        "hand": "left"
      },
      {
        "midi": 44,
        "time": 34.688,
        "duration": 0.156,
        "velocity": 0.63,
        "hand": "left"
      },
      {
        "midi": 68,
        "time": 34.688,
        "duration": 0.625,
        "velocity": 0.63,
        "hand": "right"
      },
      {
        "midi": 71,
        "time": 34.688,
        "duration": 0.625,
        "velocity": 0.63,
        "hand": "right"
      },
      {
        "midi": 51,
        "time": 34.844,
        "duration": 0.156,
        "velocity": 0.63,
        "hand": "left"
      },
      {
        "midi": 59,
        "time": 35,
        "duration": 0.156,
        "velocity": 0.63,
        "hand": "left"
      },
      {
        "midi": 51,
        "time": 35.156,
        "duration": 0.156,
        "velocity": 0.63,
        "hand": "left"
      },
      {
        "midi": 59,
        "time": 35.313,
        "duration": 0.156,
        "velocity": 0.63,
        "hand": "left"
      },
      {
        "midi": 68,
        "time": 35.313,
        "duration": 0.313,
        "velocity": 0.63,
        "hand": "right"
      },
      {
        "midi": 51,
        "time": 35.469,
        "duration": 0.156,
        "velocity": 0.63,
        "hand": "left"
      },
      {
        "midi": 44,
        "time": 35.625,
        "duration": 0.156,
        "velocity": 0.63,
        "hand": "left"
      },
      {
        "midi": 68,
        "time": 35.625,
        "duration": 0.313,
        "velocity": 0.63,
        "hand": "right"
      },
      {
        "midi": 75,
        "time": 35.625,
        "duration": 0.313,
        "velocity": 0.63,
        "hand": "right"
      },
      {
        "midi": 51,
        "time": 35.781,
        "duration": 0.156,
        "velocity": 0.63,
        "hand": "left"
      },
      {
        "midi": 59,
        "time": 35.938,
        "duration": 0.156,
        "velocity": 0.63,
        "hand": "left"
      },
      {
        "midi": 73,
        "time": 35.938,
        "duration": 0.313,
        "velocity": 0.63,
        "hand": "right"
      },
      {
        "midi": 51,
        "time": 36.094,
        "duration": 0.156,
        "velocity": 0.63,
        "hand": "left"
      },
      {
        "midi": 59,
        "time": 36.25,
        "duration": 0.156,
        "velocity": 0.63,
        "hand": "left"
      },
      {
        "midi": 68,
        "time": 36.25,
        "duration": 0.313,
        "velocity": 0.63,
        "hand": "right"
      },
      {
        "midi": 71,
        "time": 36.25,
        "duration": 0.313,
        "velocity": 0.63,
        "hand": "right"
      },
      {
        "midi": 51,
        "time": 36.406,
        "duration": 0.156,
        "velocity": 0.63,
        "hand": "left"
      },
      {
        "midi": 43,
        "time": 36.563,
        "duration": 0.156,
        "velocity": 0.63,
        "hand": "left"
      },
      {
        "midi": 67,
        "time": 36.563,
        "duration": 0.313,
        "velocity": 0.63,
        "hand": "right"
      },
      {
        "midi": 75,
        "time": 36.563,
        "duration": 0.313,
        "velocity": 0.63,
        "hand": "right"
      },
      {
        "midi": 51,
        "time": 36.719,
        "duration": 0.156,
        "velocity": 0.63,
        "hand": "left"
      },
      {
        "midi": 59,
        "time": 36.875,
        "duration": 0.156,
        "velocity": 0.63,
        "hand": "left"
      },
      {
        "midi": 73,
        "time": 36.875,
        "duration": 0.313,
        "velocity": 0.63,
        "hand": "right"
      },
      {
        "midi": 51,
        "time": 37.031,
        "duration": 0.156,
        "velocity": 0.63,
        "hand": "left"
      },
      {
        "midi": 59,
        "time": 37.188,
        "duration": 0.156,
        "velocity": 0.63,
        "hand": "left"
      },
      {
        "midi": 67,
        "time": 37.188,
        "duration": 0.313,
        "velocity": 0.63,
        "hand": "right"
      },
      {
        "midi": 71,
        "time": 37.188,
        "duration": 0.313,
        "velocity": 0.63,
        "hand": "right"
      },
      {
        "midi": 51,
        "time": 37.344,
        "duration": 0.156,
        "velocity": 0.63,
        "hand": "left"
      },
      {
        "midi": 42,
        "time": 37.5,
        "duration": 0.156,
        "velocity": 0.63,
        "hand": "left"
      },
      {
        "midi": 66,
        "time": 37.5,
        "duration": 2.344,
        "velocity": 0.63,
        "hand": "right"
      },
      {
        "midi": 71,
        "time": 37.5,
        "duration": 0.156,
        "velocity": 0.63,
        "hand": "right"
      },
      {
        "midi": 49,
        "time": 37.656,
        "duration": 0.156,
        "velocity": 0.63,
        "hand": "left"
      },
      {
        "midi": 69,
        "time": 37.656,
        "duration": 2.188,
        "velocity": 0.63,
        "hand": "right"
      },
      {
        "midi": 57,
        "time": 37.813,
        "duration": 0.156,
        "velocity": 0.63,
        "hand": "left"
      },
      {
        "midi": 49,
        "time": 37.969,
        "duration": 0.156,
        "velocity": 0.63,
        "hand": "left"
      },
      {
        "midi": 57,
        "time": 38.125,
        "duration": 0.156,
        "velocity": 0.63,
        "hand": "left"
      },
      {
        "midi": 49,
        "time": 38.281,
        "duration": 0.156,
        "velocity": 0.63,
        "hand": "left"
      },
      {
        "midi": 42,
        "time": 38.438,
        "duration": 0.156,
        "velocity": 0.63,
        "hand": "left"
      },
      {
        "midi": 54,
        "time": 38.438,
        "duration": 0.156,
        "velocity": 0.63,
        "hand": "left"
      },
      {
        "midi": 49,
        "time": 38.594,
        "duration": 0.156,
        "velocity": 0.63,
        "hand": "left"
      },
      {
        "midi": 57,
        "time": 38.75,
        "duration": 0.156,
        "velocity": 0.63,
        "hand": "left"
      },
      {
        "midi": 49,
        "time": 38.906,
        "duration": 0.156,
        "velocity": 0.63,
        "hand": "left"
      },
      {
        "midi": 57,
        "time": 39.063,
        "duration": 0.156,
        "velocity": 0.63,
        "hand": "left"
      },
      {
        "midi": 49,
        "time": 39.219,
        "duration": 0.156,
        "velocity": 0.63,
        "hand": "left"
      },
      {
        "midi": 42,
        "time": 39.375,
        "duration": 0.156,
        "velocity": 0.63,
        "hand": "left"
      },
      {
        "midi": 54,
        "time": 39.375,
        "duration": 0.156,
        "velocity": 0.63,
        "hand": "left"
      },
      {
        "midi": 49,
        "time": 39.531,
        "duration": 0.156,
        "velocity": 0.63,
        "hand": "left"
      },
      {
        "midi": 57,
        "time": 39.688,
        "duration": 0.156,
        "velocity": 0.63,
        "hand": "left"
      },
      {
        "midi": 49,
        "time": 39.844,
        "duration": 0.156,
        "velocity": 0.63,
        "hand": "left"
      },
      {
        "midi": 57,
        "time": 40,
        "duration": 0.156,
        "velocity": 0.63,
        "hand": "left"
      },
      {
        "midi": 64,
        "time": 40,
        "duration": 0.313,
        "velocity": 0.63,
        "hand": "right"
      },
      {
        "midi": 73,
        "time": 40,
        "duration": 0.313,
        "velocity": 0.63,
        "hand": "right"
      },
      {
        "midi": 49,
        "time": 40.156,
        "duration": 0.156,
        "velocity": 0.63,
        "hand": "left"
      },
      {
        "midi": 42,
        "time": 40.313,
        "duration": 0.156,
        "velocity": 0.63,
        "hand": "left"
      },
      {
        "midi": 64,
        "time": 40.313,
        "duration": 0.313,
        "velocity": 0.63,
        "hand": "right"
      },
      {
        "midi": 71,
        "time": 40.313,
        "duration": 0.313,
        "velocity": 0.63,
        "hand": "right"
      },
      {
        "midi": 49,
        "time": 40.469,
        "duration": 0.156,
        "velocity": 0.63,
        "hand": "left"
      },
      {
        "midi": 57,
        "time": 40.625,
        "duration": 0.156,
        "velocity": 0.63,
        "hand": "left"
      },
      {
        "midi": 66,
        "time": 40.625,
        "duration": 0.313,
        "velocity": 0.63,
        "hand": "right"
      },
      {
        "midi": 69,
        "time": 40.625,
        "duration": 0.313,
        "velocity": 0.63,
        "hand": "right"
      },
      {
        "midi": 49,
        "time": 40.781,
        "duration": 0.156,
        "velocity": 0.63,
        "hand": "left"
      },
      {
        "midi": 57,
        "time": 40.938,
        "duration": 0.156,
        "velocity": 0.63,
        "hand": "left"
      },
      {
        "midi": 66,
        "time": 40.938,
        "duration": 0.313,
        "velocity": 0.63,
        "hand": "right"
      },
      {
        "midi": 68,
        "time": 40.938,
        "duration": 0.313,
        "velocity": 0.63,
        "hand": "right"
      },
      {
        "midi": 49,
        "time": 41.094,
        "duration": 0.156,
        "velocity": 0.63,
        "hand": "left"
      },
      {
        "midi": 44,
        "time": 41.25,
        "duration": 0.313,
        "velocity": 0.63,
        "hand": "left"
      },
      {
        "midi": 60,
        "time": 41.25,
        "duration": 0.938,
        "velocity": 0.63,
        "hand": "right"
      },
      {
        "midi": 68,
        "time": 41.25,
        "duration": 0.938,
        "velocity": 0.63,
        "hand": "right"
      },
      {
        "midi": 44,
        "time": 41.563,
        "duration": 0.313,
        "velocity": 0.64,
        "hand": "left"
      },
      {
        "midi": 56,
        "time": 41.563,
        "duration": 0.313,
        "velocity": 0.64,
        "hand": "left"
      },
      {
        "midi": 44,
        "time": 41.875,
        "duration": 0.313,
        "velocity": 0.65,
        "hand": "left"
      },
      {
        "midi": 56,
        "time": 41.875,
        "duration": 0.313,
        "velocity": 0.65,
        "hand": "left"
      },
      {
        "midi": 44,
        "time": 42.188,
        "duration": 0.313,
        "velocity": 0.66,
        "hand": "left"
      },
      {
        "midi": 61,
        "time": 42.188,
        "duration": 0.938,
        "velocity": 0.66,
        "hand": "right"
      },
      {
        "midi": 73,
        "time": 42.188,
        "duration": 0.938,
        "velocity": 0.66,
        "hand": "right"
      },
      {
        "midi": 44,
        "time": 42.5,
        "duration": 0.313,
        "velocity": 0.67,
        "hand": "left"
      },
      {
        "midi": 56,
        "time": 42.5,
        "duration": 0.313,
        "velocity": 0.67,
        "hand": "left"
      },
      {
        "midi": 44,
        "time": 42.813,
        "duration": 0.313,
        "velocity": 0.68,
        "hand": "left"
      },
      {
        "midi": 56,
        "time": 42.813,
        "duration": 0.313,
        "velocity": 0.68,
        "hand": "left"
      },
      {
        "midi": 51,
        "time": 43.125,
        "duration": 0.156,
        "velocity": 0.69,
        "hand": "left"
      },
      {
        "midi": 64,
        "time": 43.125,
        "duration": 0.938,
        "velocity": 0.69,
        "hand": "right"
      },
      {
        "midi": 76,
        "time": 43.125,
        "duration": 0.938,
        "velocity": 0.69,
        "hand": "right"
      },
      {
        "midi": 44,
        "time": 43.281,
        "duration": 0.156,
        "velocity": 0.69,
        "hand": "left"
      },
      {
        "midi": 51,
        "time": 43.438,
        "duration": 0.156,
        "velocity": 0.7,
        "hand": "left"
      },
      {
        "midi": 56,
        "time": 43.438,
        "duration": 0.156,
        "velocity": 0.7,
        "hand": "left"
      },
      {
        "midi": 44,
        "time": 43.594,
        "duration": 0.156,
        "velocity": 0.71,
        "hand": "left"
      },
      {
        "midi": 51,
        "time": 43.75,
        "duration": 0.156,
        "velocity": 0.71,
        "hand": "left"
      },
      {
        "midi": 56,
        "time": 43.75,
        "duration": 0.156,
        "velocity": 0.71,
        "hand": "left"
      },
      {
        "midi": 44,
        "time": 43.906,
        "duration": 0.156,
        "velocity": 0.72,
        "hand": "left"
      },
      {
        "midi": 60,
        "time": 44.063,
        "duration": 0.938,
        "velocity": 0.87,
        "hand": "right"
      },
      {
        "midi": 68,
        "time": 44.063,
        "duration": 0.938,
        "velocity": 0.87,
        "hand": "right"
      },
      {
        "midi": 78,
        "time": 44.063,
        "duration": 0.938,
        "velocity": 0.87,
        "hand": "right"
      },
      {
        "midi": 33,
        "time": 45,
        "duration": 0.313,
        "velocity": 0.91,
        "hand": "left"
      },
      {
        "midi": 85,
        "time": 45,
        "duration": 0.469,
        "velocity": 0.91,
        "hand": "right"
      },
      {
        "midi": 92,
        "time": 45,
        "duration": 1.719,
        "velocity": 0.91,
        "hand": "right"
      },
      {
        "midi": 80,
        "time": 45.156,
        "duration": 0.625,
        "velocity": 0.76,
        "hand": "right"
      },
      {
        "midi": 83,
        "time": 45.313,
        "duration": 0.156,
        "velocity": 0.76,
        "hand": "right"
      },
      {
        "midi": 85,
        "time": 45.469,
        "duration": 0.938,
        "velocity": 0.76,
        "hand": "right"
      },
      {
        "midi": 83,
        "time": 45.625,
        "duration": 0.156,
        "velocity": 0.76,
        "hand": "right"
      },
      {
        "midi": 80,
        "time": 45.781,
        "duration": 0.313,
        "velocity": 0.76,
        "hand": "right"
      },
      {
        "midi": 56,
        "time": 45.938,
        "duration": 0.938,
        "velocity": 0.76,
        "hand": "left"
      },
      {
        "midi": 64,
        "time": 45.938,
        "duration": 0.938,
        "velocity": 0.76,
        "hand": "right"
      },
      {
        "midi": 78,
        "time": 45.938,
        "duration": 0.156,
        "velocity": 0.76,
        "hand": "right"
      },
      {
        "midi": 80,
        "time": 46.094,
        "duration": 0.625,
        "velocity": 0.76,
        "hand": "right"
      },
      {
        "midi": 83,
        "time": 46.25,
        "duration": 0.156,
        "velocity": 0.76,
        "hand": "right"
      },
      {
        "midi": 85,
        "time": 46.406,
        "duration": 0.313,
        "velocity": 0.76,
        "hand": "right"
      },
      {
        "midi": 83,
        "time": 46.563,
        "duration": 0.156,
        "velocity": 0.76,
        "hand": "right"
      },
      {
        "midi": 80,
        "time": 46.719,
        "duration": 0.156,
        "velocity": 0.76,
        "hand": "right"
      },
      {
        "midi": 68,
        "time": 46.875,
        "duration": 0.938,
        "velocity": 0.76,
        "hand": "right"
      },
      {
        "midi": 76,
        "time": 46.875,
        "duration": 0.938,
        "velocity": 0.76,
        "hand": "right"
      },
      {
        "midi": 78,
        "time": 46.875,
        "duration": 0.156,
        "velocity": 0.76,
        "hand": "right"
      },
      {
        "midi": 80,
        "time": 47.031,
        "duration": 0.156,
        "velocity": 0.76,
        "hand": "right"
      },
      {
        "midi": 83,
        "time": 47.188,
        "duration": 0.156,
        "velocity": 0.76,
        "hand": "right"
      },
      {
        "midi": 85,
        "time": 47.344,
        "duration": 0.156,
        "velocity": 0.76,
        "hand": "right"
      },
      {
        "midi": 83,
        "time": 47.5,
        "duration": 0.156,
        "velocity": 0.76,
        "hand": "right"
      },
      {
        "midi": 80,
        "time": 47.656,
        "duration": 0.156,
        "velocity": 0.76,
        "hand": "right"
      },
      {
        "midi": 61,
        "time": 47.813,
        "duration": 0.938,
        "velocity": 0.76,
        "hand": "right"
      },
      {
        "midi": 68,
        "time": 47.813,
        "duration": 0.938,
        "velocity": 0.76,
        "hand": "right"
      },
      {
        "midi": 78,
        "time": 47.813,
        "duration": 0.156,
        "velocity": 0.76,
        "hand": "right"
      },
      {
        "midi": 80,
        "time": 47.969,
        "duration": 0.156,
        "velocity": 0.76,
        "hand": "right"
      },
      {
        "midi": 83,
        "time": 48.125,
        "duration": 0.156,
        "velocity": 0.76,
        "hand": "right"
      },
      {
        "midi": 85,
        "time": 48.281,
        "duration": 0.156,
        "velocity": 0.76,
        "hand": "right"
      },
      {
        "midi": 83,
        "time": 48.438,
        "duration": 0.156,
        "velocity": 0.76,
        "hand": "right"
      },
      {
        "midi": 80,
        "time": 48.594,
        "duration": 0.156,
        "velocity": 0.76,
        "hand": "right"
      },
      {
        "midi": 33,
        "time": 48.75,
        "duration": 0.313,
        "velocity": 0.76,
        "hand": "left"
      },
      {
        "midi": 76,
        "time": 48.75,
        "duration": 0.938,
        "velocity": 0.76,
        "hand": "right"
      },
      {
        "midi": 85,
        "time": 48.75,
        "duration": 0.938,
        "velocity": 0.76,
        "hand": "right"
      },
      {
        "midi": 45,
        "time": 49.688,
        "duration": 0.938,
        "velocity": 0.76,
        "hand": "left"
      },
      {
        "midi": 75,
        "time": 49.688,
        "duration": 0.938,
        "velocity": 0.76,
        "hand": "right"
      },
      {
        "midi": 87,
        "time": 49.688,
        "duration": 0.938,
        "velocity": 0.76,
        "hand": "right"
      },
      {
        "midi": 33,
        "time": 50.625,
        "duration": 0.313,
        "velocity": 0.91,
        "hand": "left"
      },
      {
        "midi": 45,
        "time": 50.625,
        "duration": 0.313,
        "velocity": 0.91,
        "hand": "left"
      },
      {
        "midi": 52,
        "time": 50.938,
        "duration": 0.313,
        "velocity": 0.76,
        "hand": "left"
      },
      {
        "midi": 60,
        "time": 50.938,
        "duration": 0.313,
        "velocity": 0.76,
        "hand": "right"
      },
      {
        "midi": 52,
        "time": 51.25,
        "duration": 0.313,
        "velocity": 0.76,
        "hand": "left"
      },
      {
        "midi": 60,
        "time": 51.25,
        "duration": 0.313,
        "velocity": 0.76,
        "hand": "right"
      },
      {
        "midi": 42,
        "time": 51.563,
        "duration": 0.313,
        "velocity": 0.91,
        "hand": "left"
      },
      {
        "midi": 54,
        "time": 51.563,
        "duration": 0.313,
        "velocity": 0.91,
        "hand": "left"
      },
      {
        "midi": 57,
        "time": 51.875,
        "duration": 0.313,
        "velocity": 0.76,
        "hand": "left"
      },
      {
        "midi": 60,
        "time": 51.875,
        "duration": 0.313,
        "velocity": 0.76,
        "hand": "right"
      },
      {
        "midi": 64,
        "time": 51.875,
        "duration": 0.313,
        "velocity": 0.76,
        "hand": "right"
      },
      {
        "midi": 57,
        "time": 52.188,
        "duration": 0.313,
        "velocity": 0.76,
        "hand": "left"
      },
      {
        "midi": 60,
        "time": 52.188,
        "duration": 0.313,
        "velocity": 0.76,
        "hand": "right"
      },
      {
        "midi": 64,
        "time": 52.188,
        "duration": 0.313,
        "velocity": 0.76,
        "hand": "right"
      },
      {
        "midi": 28,
        "time": 52.5,
        "duration": 0.313,
        "velocity": 0.91,
        "hand": "left"
      },
      {
        "midi": 87,
        "time": 52.5,
        "duration": 1.719,
        "velocity": 0.91,
        "hand": "right"
      },
      {
        "midi": 92,
        "time": 52.5,
        "duration": 1.719,
        "velocity": 0.91,
        "hand": "right"
      },
      {
        "midi": 76,
        "time": 52.656,
        "duration": 0.156,
        "velocity": 0.76,
        "hand": "right"
      },
      {
        "midi": 56,
        "time": 52.813,
        "duration": 0.313,
        "velocity": 0.76,
        "hand": "left"
      },
      {
        "midi": 63,
        "time": 52.813,
        "duration": 0.313,
        "velocity": 0.76,
        "hand": "right"
      },
      {
        "midi": 78,
        "time": 52.813,
        "duration": 0.156,
        "velocity": 0.76,
        "hand": "right"
      },
      {
        "midi": 80,
        "time": 52.969,
        "duration": 0.938,
        "velocity": 0.76,
        "hand": "right"
      },
      {
        "midi": 56,
        "time": 53.125,
        "duration": 0.313,
        "velocity": 0.76,
        "hand": "left"
      },
      {
        "midi": 63,
        "time": 53.125,
        "duration": 0.313,
        "velocity": 0.76,
        "hand": "right"
      },
      {
        "midi": 78,
        "time": 53.125,
        "duration": 0.156,
        "velocity": 0.76,
        "hand": "right"
      },
      {
        "midi": 76,
        "time": 53.281,
        "duration": 0.156,
        "velocity": 0.76,
        "hand": "right"
      },
      {
        "midi": 40,
        "time": 53.438,
        "duration": 0.313,
        "velocity": 0.91,
        "hand": "left"
      },
      {
        "midi": 52,
        "time": 53.438,
        "duration": 0.313,
        "velocity": 0.91,
        "hand": "left"
      },
      {
        "midi": 75,
        "time": 53.438,
        "duration": 0.156,
        "velocity": 0.76,
        "hand": "right"
      },
      {
        "midi": 76,
        "time": 53.594,
        "duration": 0.156,
        "velocity": 0.76,
        "hand": "right"
      },
      {
        "midi": 56,
        "time": 53.75,
        "duration": 0.313,
        "velocity": 0.76,
        "hand": "left"
      },
      {
        "midi": 63,
        "time": 53.75,
        "duration": 0.313,
        "velocity": 0.76,
        "hand": "right"
      },
      {
        "midi": 78,
        "time": 53.75,
        "duration": 0.156,
        "velocity": 0.76,
        "hand": "right"
      },
      {
        "midi": 80,
        "time": 53.906,
        "duration": 0.313,
        "velocity": 0.76,
        "hand": "right"
      },
      {
        "midi": 56,
        "time": 54.063,
        "duration": 0.313,
        "velocity": 0.76,
        "hand": "left"
      },
      {
        "midi": 63,
        "time": 54.063,
        "duration": 0.313,
        "velocity": 0.76,
        "hand": "right"
      },
      {
        "midi": 78,
        "time": 54.063,
        "duration": 0.156,
        "velocity": 0.76,
        "hand": "right"
      },
      {
        "midi": 76,
        "time": 54.219,
        "duration": 0.156,
        "velocity": 0.76,
        "hand": "right"
      },
      {
        "midi": 68,
        "time": 54.375,
        "duration": 0.625,
        "velocity": 0.76,
        "hand": "right"
      },
      {
        "midi": 71,
        "time": 54.375,
        "duration": 0.625,
        "velocity": 0.76,
        "hand": "right"
      },
      {
        "midi": 75,
        "time": 54.375,
        "duration": 0.156,
        "velocity": 0.76,
        "hand": "right"
      },
      {
        "midi": 76,
        "time": 54.531,
        "duration": 0.156,
        "velocity": 0.76,
        "hand": "right"
      },
      {
        "midi": 78,
        "time": 54.688,
        "duration": 0.156,
        "velocity": 0.76,
        "hand": "right"
      },
      {
        "midi": 80,
        "time": 54.844,
        "duration": 0.156,
        "velocity": 0.76,
        "hand": "right"
      },
      {
        "midi": 68,
        "time": 55,
        "duration": 0.313,
        "velocity": 0.76,
        "hand": "right"
      },
      {
        "midi": 75,
        "time": 55,
        "duration": 0.313,
        "velocity": 0.76,
        "hand": "right"
      },
      {
        "midi": 78,
        "time": 55,
        "duration": 0.156,
        "velocity": 0.76,
        "hand": "right"
      },
      {
        "midi": 76,
        "time": 55.156,
        "duration": 0.156,
        "velocity": 0.76,
        "hand": "right"
      },
      {
        "midi": 59,
        "time": 55.313,
        "duration": 0.625,
        "velocity": 0.76,
        "hand": "left"
      },
      {
        "midi": 68,
        "time": 55.313,
        "duration": 0.625,
        "velocity": 0.76,
        "hand": "right"
      },
      {
        "midi": 75,
        "time": 55.313,
        "duration": 0.156,
        "velocity": 0.76,
        "hand": "right"
      },
      {
        "midi": 76,
        "time": 55.469,
        "duration": 0.156,
        "velocity": 0.76,
        "hand": "right"
      },
      {
        "midi": 78,
        "time": 55.625,
        "duration": 0.156,
        "velocity": 0.76,
        "hand": "right"
      },
      {
        "midi": 80,
        "time": 55.781,
        "duration": 0.156,
        "velocity": 0.76,
        "hand": "right"
      },
      {
        "midi": 59,
        "time": 55.938,
        "duration": 0.313,
        "velocity": 0.76,
        "hand": "left"
      },
      {
        "midi": 68,
        "time": 55.938,
        "duration": 0.313,
        "velocity": 0.76,
        "hand": "right"
      },
      {
        "midi": 78,
        "time": 55.938,
        "duration": 0.156,
        "velocity": 0.76,
        "hand": "right"
      },
      {
        "midi": 76,
        "time": 56.094,
        "duration": 0.156,
        "velocity": 0.76,
        "hand": "right"
      },
      {
        "midi": 28,
        "time": 56.25,
        "duration": 0.313,
        "velocity": 0.91,
        "hand": "left"
      },
      {
        "midi": 40,
        "time": 56.25,
        "duration": 0.313,
        "velocity": 0.91,
        "hand": "left"
      },
      {
        "midi": 75,
        "time": 56.25,
        "duration": 0.156,
        "velocity": 0.76,
        "hand": "right"
      },
      {
        "midi": 76,
        "time": 56.406,
        "duration": 0.156,
        "velocity": 0.76,
        "hand": "right"
      },
      {
        "midi": 78,
        "time": 56.563,
        "duration": 0.156,
        "velocity": 0.76,
        "hand": "right"
      },
      {
        "midi": 80,
        "time": 56.719,
        "duration": 0.156,
        "velocity": 0.76,
        "hand": "right"
      },
      {
        "midi": 40,
        "time": 56.875,
        "duration": 0.313,
        "velocity": 0.76,
        "hand": "left"
      },
      {
        "midi": 52,
        "time": 56.875,
        "duration": 0.313,
        "velocity": 0.76,
        "hand": "left"
      },
      {
        "midi": 78,
        "time": 56.875,
        "duration": 0.156,
        "velocity": 0.76,
        "hand": "right"
      },
      {
        "midi": 76,
        "time": 57.031,
        "duration": 0.156,
        "velocity": 0.76,
        "hand": "right"
      },
      {
        "midi": 56,
        "time": 57.188,
        "duration": 0.625,
        "velocity": 0.76,
        "hand": "left"
      },
      {
        "midi": 63,
        "time": 57.188,
        "duration": 0.625,
        "velocity": 0.76,
        "hand": "right"
      },
      {
        "midi": 87,
        "time": 57.188,
        "duration": 0.938,
        "velocity": 0.91,
        "hand": "right"
      },
      {
        "midi": 76,
        "time": 57.344,
        "duration": 0.156,
        "velocity": 0.76,
        "hand": "right"
      },
      {
        "midi": 78,
        "time": 57.5,
        "duration": 0.156,
        "velocity": 0.76,
        "hand": "right"
      },
      {
        "midi": 80,
        "time": 57.656,
        "duration": 0.156,
        "velocity": 0.76,
        "hand": "right"
      },
      {
        "midi": 56,
        "time": 57.813,
        "duration": 0.313,
        "velocity": 0.76,
        "hand": "left"
      },
      {
        "midi": 63,
        "time": 57.813,
        "duration": 0.313,
        "velocity": 0.76,
        "hand": "right"
      },
      {
        "midi": 78,
        "time": 57.813,
        "duration": 0.156,
        "velocity": 0.76,
        "hand": "right"
      },
      {
        "midi": 76,
        "time": 57.969,
        "duration": 0.156,
        "velocity": 0.76,
        "hand": "right"
      },
      {
        "midi": 30,
        "time": 58.125,
        "duration": 0.938,
        "velocity": 0.91,
        "hand": "left"
      },
      {
        "midi": 42,
        "time": 58.125,
        "duration": 0.938,
        "velocity": 0.91,
        "hand": "left"
      },
      {
        "midi": 88,
        "time": 58.125,
        "duration": 0.938,
        "velocity": 0.91,
        "hand": "right"
      },
      {
        "midi": 76,
        "time": 58.281,
        "duration": 0.156,
        "velocity": 0.76,
        "hand": "right"
      },
      {
        "midi": 78,
        "time": 58.438,
        "duration": 0.156,
        "velocity": 0.76,
        "hand": "right"
      },
      {
        "midi": 80,
        "time": 58.594,
        "duration": 0.156,
        "velocity": 0.76,
        "hand": "right"
      },
      {
        "midi": 78,
        "time": 58.75,
        "duration": 0.156,
        "velocity": 0.76,
        "hand": "right"
      },
      {
        "midi": 76,
        "time": 58.906,
        "duration": 0.156,
        "velocity": 0.76,
        "hand": "right"
      },
      {
        "midi": 32,
        "time": 59.063,
        "duration": 0.938,
        "velocity": 0.91,
        "hand": "left"
      },
      {
        "midi": 44,
        "time": 59.063,
        "duration": 0.938,
        "velocity": 0.91,
        "hand": "left"
      },
      {
        "midi": 90,
        "time": 59.063,
        "duration": 0.938,
        "velocity": 0.91,
        "hand": "right"
      },
      {
        "midi": 76,
        "time": 59.219,
        "duration": 0.156,
        "velocity": 0.76,
        "hand": "right"
      },
      {
        "midi": 78,
        "time": 59.375,
        "duration": 0.156,
        "velocity": 0.76,
        "hand": "right"
      },
      {
        "midi": 80,
        "time": 59.531,
        "duration": 0.156,
        "velocity": 0.76,
        "hand": "right"
      },
      {
        "midi": 78,
        "time": 59.688,
        "duration": 0.156,
        "velocity": 0.76,
        "hand": "right"
      },
      {
        "midi": 76,
        "time": 59.844,
        "duration": 0.156,
        "velocity": 0.76,
        "hand": "right"
      },
      {
        "midi": 33,
        "time": 60,
        "duration": 0.313,
        "velocity": 0.91,
        "hand": "left"
      },
      {
        "midi": 85,
        "time": 60,
        "duration": 0.469,
        "velocity": 0.91,
        "hand": "right"
      },
      {
        "midi": 92,
        "time": 60,
        "duration": 1.719,
        "velocity": 0.91,
        "hand": "right"
      },
      {
        "midi": 80,
        "time": 60.156,
        "duration": 0.625,
        "velocity": 0.76,
        "hand": "right"
      },
      {
        "midi": 83,
        "time": 60.313,
        "duration": 0.156,
        "velocity": 0.76,
        "hand": "right"
      },
      {
        "midi": 85,
        "time": 60.469,
        "duration": 0.938,
        "velocity": 0.76,
        "hand": "right"
      },
      {
        "midi": 83,
        "time": 60.625,
        "duration": 0.156,
        "velocity": 0.76,
        "hand": "right"
      },
      {
        "midi": 80,
        "time": 60.781,
        "duration": 0.313,
        "velocity": 0.76,
        "hand": "right"
      },
      {
        "midi": 56,
        "time": 60.938,
        "duration": 0.938,
        "velocity": 0.76,
        "hand": "left"
      },
      {
        "midi": 64,
        "time": 60.938,
        "duration": 0.938,
        "velocity": 0.76,
        "hand": "right"
      },
      {
        "midi": 78,
        "time": 60.938,
        "duration": 0.156,
        "velocity": 0.76,
        "hand": "right"
      },
      {
        "midi": 80,
        "time": 61.094,
        "duration": 0.625,
        "velocity": 0.76,
        "hand": "right"
      },
      {
        "midi": 83,
        "time": 61.25,
        "duration": 0.156,
        "velocity": 0.76,
        "hand": "right"
      },
      {
        "midi": 85,
        "time": 61.406,
        "duration": 0.313,
        "velocity": 0.76,
        "hand": "right"
      },
      {
        "midi": 83,
        "time": 61.563,
        "duration": 0.156,
        "velocity": 0.76,
        "hand": "right"
      },
      {
        "midi": 80,
        "time": 61.719,
        "duration": 0.156,
        "velocity": 0.76,
        "hand": "right"
      },
      {
        "midi": 68,
        "time": 61.875,
        "duration": 0.938,
        "velocity": 0.76,
        "hand": "right"
      },
      {
        "midi": 76,
        "time": 61.875,
        "duration": 0.938,
        "velocity": 0.76,
        "hand": "right"
      },
      {
        "midi": 78,
        "time": 61.875,
        "duration": 0.156,
        "velocity": 0.76,
        "hand": "right"
      },
      {
        "midi": 80,
        "time": 62.031,
        "duration": 0.156,
        "velocity": 0.76,
        "hand": "right"
      },
      {
        "midi": 83,
        "time": 62.188,
        "duration": 0.156,
        "velocity": 0.76,
        "hand": "right"
      },
      {
        "midi": 85,
        "time": 62.344,
        "duration": 0.156,
        "velocity": 0.76,
        "hand": "right"
      },
      {
        "midi": 83,
        "time": 62.5,
        "duration": 0.156,
        "velocity": 0.76,
        "hand": "right"
      },
      {
        "midi": 80,
        "time": 62.656,
        "duration": 0.156,
        "velocity": 0.76,
        "hand": "right"
      },
      {
        "midi": 61,
        "time": 62.813,
        "duration": 0.938,
        "velocity": 0.76,
        "hand": "right"
      },
      {
        "midi": 68,
        "time": 62.813,
        "duration": 0.938,
        "velocity": 0.76,
        "hand": "right"
      },
      {
        "midi": 78,
        "time": 62.813,
        "duration": 0.156,
        "velocity": 0.76,
        "hand": "right"
      },
      {
        "midi": 80,
        "time": 62.969,
        "duration": 0.156,
        "velocity": 0.76,
        "hand": "right"
      },
      {
        "midi": 83,
        "time": 63.125,
        "duration": 0.156,
        "velocity": 0.76,
        "hand": "right"
      },
      {
        "midi": 85,
        "time": 63.281,
        "duration": 0.156,
        "velocity": 0.76,
        "hand": "right"
      },
      {
        "midi": 83,
        "time": 63.438,
        "duration": 0.156,
        "velocity": 0.76,
        "hand": "right"
      },
      {
        "midi": 80,
        "time": 63.594,
        "duration": 0.156,
        "velocity": 0.76,
        "hand": "right"
      },
      {
        "midi": 33,
        "time": 63.75,
        "duration": 0.313,
        "velocity": 0.91,
        "hand": "left"
      },
      {
        "midi": 76,
        "time": 63.75,
        "duration": 0.938,
        "velocity": 0.76,
        "hand": "right"
      },
      {
        "midi": 85,
        "time": 63.75,
        "duration": 0.938,
        "velocity": 0.76,
        "hand": "right"
      },
      {
        "midi": 45,
        "time": 64.219,
        "duration": 0.156,
        "velocity": 0.76,
        "hand": "left"
      },
      {
        "midi": 57,
        "time": 64.375,
        "duration": 0.156,
        "velocity": 0.76,
        "hand": "left"
      },
      {
        "midi": 45,
        "time": 64.531,
        "duration": 1.094,
        "velocity": 0.76,
        "hand": "left"
      },
      {
        "midi": 52,
        "time": 64.688,
        "duration": 0.938,
        "velocity": 0.76,
        "hand": "left"
      },
      {
        "midi": 75,
        "time": 64.688,
        "duration": 0.938,
        "velocity": 0.76,
        "hand": "right"
      },
      {
        "midi": 87,
        "time": 64.688,
        "duration": 0.938,
        "velocity": 0.76,
        "hand": "right"
      },
      {
        "midi": 45,
        "time": 65.625,
        "duration": 0.313,
        "velocity": 0.91,
        "hand": "left"
      },
      {
        "midi": 52,
        "time": 65.625,
        "duration": 0.313,
        "velocity": 0.91,
        "hand": "left"
      },
      {
        "midi": 60,
        "time": 65.781,
        "duration": 0.156,
        "velocity": 0.91,
        "hand": "right"
      },
      {
        "midi": 45,
        "time": 66.094,
        "duration": 0.156,
        "velocity": 0.76,
        "hand": "left"
      },
      {
        "midi": 52,
        "time": 66.25,
        "duration": 0.156,
        "velocity": 0.76,
        "hand": "left"
      },
      {
        "midi": 60,
        "time": 66.25,
        "duration": 0.156,
        "velocity": 0.76,
        "hand": "right"
      },
      {
        "midi": 45,
        "time": 66.406,
        "duration": 0.156,
        "velocity": 0.76,
        "hand": "left"
      },
      {
        "midi": 54,
        "time": 66.563,
        "duration": 0.625,
        "velocity": 0.76,
        "hand": "left"
      },
      {
        "midi": 60,
        "time": 66.563,
        "duration": 0.625,
        "velocity": 0.76,
        "hand": "right"
      },
      {
        "midi": 64,
        "time": 66.563,
        "duration": 0.625,
        "velocity": 0.76,
        "hand": "right"
      },
      {
        "midi": 33,
        "time": 67.188,
        "duration": 0.313,
        "velocity": 0.76,
        "hand": "left"
      },
      {
        "midi": 45,
        "time": 67.188,
        "duration": 0.313,
        "velocity": 0.76,
        "hand": "left"
      },
      {
        "midi": 28,
        "time": 67.5,
        "duration": 0.313,
        "velocity": 0.91,
        "hand": "left"
      },
      {
        "midi": 87,
        "time": 67.5,
        "duration": 1.719,
        "velocity": 0.91,
        "hand": "right"
      },
      {
        "midi": 92,
        "time": 67.5,
        "duration": 1.719,
        "velocity": 0.91,
        "hand": "right"
      },
      {
        "midi": 76,
        "time": 67.656,
        "duration": 0.156,
        "velocity": 0.76,
        "hand": "right"
      },
      {
        "midi": 78,
        "time": 67.813,
        "duration": 0.156,
        "velocity": 0.76,
        "hand": "right"
      },
      {
        "midi": 80,
        "time": 67.969,
        "duration": 0.938,
        "velocity": 0.76,
        "hand": "right"
      },
      {
        "midi": 40,
        "time": 68.125,
        "duration": 0.313,
        "velocity": 0.76,
        "hand": "left"
      },
      {
        "midi": 52,
        "time": 68.125,
        "duration": 0.313,
        "velocity": 0.76,
        "hand": "left"
      },
      {
        "midi": 78,
        "time": 68.125,
        "duration": 0.156,
        "velocity": 0.76,
        "hand": "right"
      },
      {
        "midi": 76,
        "time": 68.281,
        "duration": 0.156,
        "velocity": 0.76,
        "hand": "right"
      },
      {
        "midi": 56,
        "time": 68.438,
        "duration": 0.938,
        "velocity": 0.76,
        "hand": "left"
      },
      {
        "midi": 63,
        "time": 68.438,
        "duration": 0.938,
        "velocity": 0.76,
        "hand": "right"
      },
      {
        "midi": 75,
        "time": 68.438,
        "duration": 0.156,
        "velocity": 0.76,
        "hand": "right"
      },
      {
        "midi": 76,
        "time": 68.594,
        "duration": 0.156,
        "velocity": 0.76,
        "hand": "right"
      },
      {
        "midi": 78,
        "time": 68.75,
        "duration": 0.156,
        "velocity": 0.76,
        "hand": "right"
      },
      {
        "midi": 80,
        "time": 68.906,
        "duration": 0.313,
        "velocity": 0.76,
        "hand": "right"
      },
      {
        "midi": 78,
        "time": 69.063,
        "duration": 0.156,
        "velocity": 0.76,
        "hand": "right"
      },
      {
        "midi": 76,
        "time": 69.219,
        "duration": 0.156,
        "velocity": 0.76,
        "hand": "right"
      },
      {
        "midi": 68,
        "time": 69.375,
        "duration": 0.938,
        "velocity": 0.76,
        "hand": "right"
      },
      {
        "midi": 71,
        "time": 69.375,
        "duration": 0.938,
        "velocity": 0.76,
        "hand": "right"
      },
      {
        "midi": 75,
        "time": 69.375,
        "duration": 0.156,
        "velocity": 0.76,
        "hand": "right"
      },
      {
        "midi": 76,
        "time": 69.531,
        "duration": 0.156,
        "velocity": 0.76,
        "hand": "right"
      },
      {
        "midi": 78,
        "time": 69.688,
        "duration": 0.156,
        "velocity": 0.76,
        "hand": "right"
      },
      {
        "midi": 80,
        "time": 69.844,
        "duration": 0.156,
        "velocity": 0.76,
        "hand": "right"
      },
      {
        "midi": 78,
        "time": 70,
        "duration": 0.156,
        "velocity": 0.76,
        "hand": "right"
      },
      {
        "midi": 76,
        "time": 70.156,
        "duration": 0.156,
        "velocity": 0.76,
        "hand": "right"
      },
      {
        "midi": 59,
        "time": 70.313,
        "duration": 0.938,
        "velocity": 0.76,
        "hand": "left"
      },
      {
        "midi": 68,
        "time": 70.313,
        "duration": 0.938,
        "velocity": 0.76,
        "hand": "right"
      },
      {
        "midi": 75,
        "time": 70.313,
        "duration": 0.156,
        "velocity": 0.76,
        "hand": "right"
      },
      {
        "midi": 76,
        "time": 70.469,
        "duration": 0.156,
        "velocity": 0.76,
        "hand": "right"
      },
      {
        "midi": 78,
        "time": 70.625,
        "duration": 0.156,
        "velocity": 0.76,
        "hand": "right"
      },
      {
        "midi": 80,
        "time": 70.781,
        "duration": 0.156,
        "velocity": 0.76,
        "hand": "right"
      },
      {
        "midi": 78,
        "time": 70.938,
        "duration": 0.156,
        "velocity": 0.76,
        "hand": "right"
      },
      {
        "midi": 76,
        "time": 71.094,
        "duration": 0.156,
        "velocity": 0.76,
        "hand": "right"
      },
      {
        "midi": 28,
        "time": 71.25,
        "duration": 0.313,
        "velocity": 0.91,
        "hand": "left"
      },
      {
        "midi": 40,
        "time": 71.25,
        "duration": 0.313,
        "velocity": 0.91,
        "hand": "left"
      },
      {
        "midi": 75,
        "time": 71.25,
        "duration": 0.156,
        "velocity": 0.76,
        "hand": "right"
      },
      {
        "midi": 76,
        "time": 71.406,
        "duration": 0.156,
        "velocity": 0.76,
        "hand": "right"
      },
      {
        "midi": 28,
        "time": 71.563,
        "duration": 0.313,
        "velocity": 0.76,
        "hand": "left"
      },
      {
        "midi": 40,
        "time": 71.563,
        "duration": 0.313,
        "velocity": 0.76,
        "hand": "left"
      },
      {
        "midi": 78,
        "time": 71.563,
        "duration": 0.156,
        "velocity": 0.76,
        "hand": "right"
      },
      {
        "midi": 80,
        "time": 71.719,
        "duration": 0.156,
        "velocity": 0.76,
        "hand": "right"
      },
      {
        "midi": 40,
        "time": 71.875,
        "duration": 0.313,
        "velocity": 0.76,
        "hand": "left"
      },
      {
        "midi": 52,
        "time": 71.875,
        "duration": 0.313,
        "velocity": 0.76,
        "hand": "left"
      },
      {
        "midi": 78,
        "time": 71.875,
        "duration": 0.156,
        "velocity": 0.76,
        "hand": "right"
      },
      {
        "midi": 76,
        "time": 72.031,
        "duration": 0.156,
        "velocity": 0.76,
        "hand": "right"
      },
      {
        "midi": 56,
        "time": 72.188,
        "duration": 0.938,
        "velocity": 0.76,
        "hand": "left"
      },
      {
        "midi": 63,
        "time": 72.188,
        "duration": 0.938,
        "velocity": 0.76,
        "hand": "right"
      },
      {
        "midi": 75,
        "time": 72.188,
        "duration": 0.156,
        "velocity": 0.76,
        "hand": "right"
      },
      {
        "midi": 76,
        "time": 72.344,
        "duration": 0.156,
        "velocity": 0.76,
        "hand": "right"
      },
      {
        "midi": 78,
        "time": 72.5,
        "duration": 0.156,
        "velocity": 0.76,
        "hand": "right"
      },
      {
        "midi": 80,
        "time": 72.656,
        "duration": 0.156,
        "velocity": 0.76,
        "hand": "right"
      },
      {
        "midi": 78,
        "time": 72.813,
        "duration": 0.156,
        "velocity": 0.76,
        "hand": "right"
      },
      {
        "midi": 76,
        "time": 72.969,
        "duration": 0.156,
        "velocity": 0.76,
        "hand": "right"
      },
      {
        "midi": 30,
        "time": 73.125,
        "duration": 0.469,
        "velocity": 0.91,
        "hand": "left"
      },
      {
        "midi": 42,
        "time": 73.125,
        "duration": 0.469,
        "velocity": 0.91,
        "hand": "left"
      },
      {
        "midi": 74,
        "time": 73.125,
        "duration": 0.156,
        "velocity": 0.76,
        "hand": "right"
      },
      {
        "midi": 76,
        "time": 73.281,
        "duration": 0.156,
        "velocity": 0.74,
        "hand": "right"
      },
      {
        "midi": 78,
        "time": 73.438,
        "duration": 0.156,
        "velocity": 0.72,
        "hand": "right"
      },
      {
        "midi": 42,
        "time": 73.594,
        "duration": 0.469,
        "velocity": 0.69,
        "hand": "left"
      },
      {
        "midi": 49,
        "time": 73.594,
        "duration": 0.469,
        "velocity": 0.69,
        "hand": "left"
      },
      {
        "midi": 80,
        "time": 73.594,
        "duration": 0.156,
        "velocity": 0.69,
        "hand": "right"
      },
      {
        "midi": 78,
        "time": 73.75,
        "duration": 0.156,
        "velocity": 0.68,
        "hand": "right"
      },
      {
        "midi": 76,
        "time": 73.906,
        "duration": 0.156,
        "velocity": 0.65,
        "hand": "right"
      },
      {
        "midi": 32,
        "time": 74.063,
        "duration": 0.469,
        "velocity": 0.76,
        "hand": "left"
      },
      {
        "midi": 44,
        "time": 74.063,
        "duration": 0.469,
        "velocity": 0.76,
        "hand": "left"
      },
      {
        "midi": 74,
        "time": 74.063,
        "duration": 0.156,
        "velocity": 0.63,
        "hand": "right"
      },
      {
        "midi": 76,
        "time": 74.219,
        "duration": 0.156,
        "velocity": 0.61,
        "hand": "right"
      },
      {
        "midi": 78,
        "time": 74.375,
        "duration": 0.156,
        "velocity": 0.59,
        "hand": "right"
      },
      {
        "midi": 44,
        "time": 74.531,
        "duration": 0.469,
        "velocity": 0.57,
        "hand": "left"
      },
      {
        "midi": 54,
        "time": 74.531,
        "duration": 0.469,
        "velocity": 0.57,
        "hand": "left"
      },
      {
        "midi": 80,
        "time": 74.531,
        "duration": 0.156,
        "velocity": 0.57,
        "hand": "right"
      },
      {
        "midi": 78,
        "time": 74.688,
        "duration": 0.156,
        "velocity": 0.55,
        "hand": "right"
      },
      {
        "midi": 76,
        "time": 74.844,
        "duration": 0.156,
        "velocity": 0.53,
        "hand": "right"
      },
      {
        "midi": 45,
        "time": 75,
        "duration": 0.156,
        "velocity": 0.5,
        "hand": "left"
      },
      {
        "midi": 57,
        "time": 75,
        "duration": 0.156,
        "velocity": 0.5,
        "hand": "left"
      },
      {
        "midi": 68,
        "time": 75,
        "duration": 0.156,
        "velocity": 0.5,
        "hand": "right"
      },
      {
        "midi": 49,
        "time": 75.156,
        "duration": 0.156,
        "velocity": 0.5,
        "hand": "left"
      },
      {
        "midi": 68,
        "time": 75.156,
        "duration": 0.156,
        "velocity": 0.5,
        "hand": "right"
      },
      {
        "midi": 52,
        "time": 75.313,
        "duration": 0.156,
        "velocity": 0.5,
        "hand": "left"
      },
      {
        "midi": 61,
        "time": 75.313,
        "duration": 0.156,
        "velocity": 0.5,
        "hand": "right"
      },
      {
        "midi": 68,
        "time": 75.313,
        "duration": 0.156,
        "velocity": 0.5,
        "hand": "right"
      },
      {
        "midi": 57,
        "time": 75.469,
        "duration": 0.156,
        "velocity": 0.5,
        "hand": "left"
      },
      {
        "midi": 68,
        "time": 75.469,
        "duration": 0.156,
        "velocity": 0.5,
        "hand": "right"
      },
      {
        "midi": 52,
        "time": 75.625,
        "duration": 0.156,
        "velocity": 0.5,
        "hand": "left"
      },
      {
        "midi": 61,
        "time": 75.625,
        "duration": 0.156,
        "velocity": 0.5,
        "hand": "right"
      },
      {
        "midi": 68,
        "time": 75.625,
        "duration": 0.156,
        "velocity": 0.5,
        "hand": "right"
      },
      {
        "midi": 57,
        "time": 75.781,
        "duration": 0.156,
        "velocity": 0.5,
        "hand": "left"
      },
      {
        "midi": 66,
        "time": 75.781,
        "duration": 0.156,
        "velocity": 0.5,
        "hand": "right"
      },
      {
        "midi": 45,
        "time": 75.938,
        "duration": 0.156,
        "velocity": 0.5,
        "hand": "left"
      },
      {
        "midi": 80,
        "time": 75.938,
        "duration": 0.313,
        "velocity": 0.6,
        "hand": "right"
      },
      {
        "midi": 92,
        "time": 75.938,
        "duration": 0.313,
        "velocity": 0.6,
        "hand": "right"
      },
      {
        "midi": 49,
        "time": 76.094,
        "duration": 0.156,
        "velocity": 0.5,
        "hand": "left"
      },
      {
        "midi": 52,
        "time": 76.25,
        "duration": 0.156,
        "velocity": 0.5,
        "hand": "left"
      },
      {
        "midi": 61,
        "time": 76.25,
        "duration": 0.156,
        "velocity": 0.5,
        "hand": "right"
      },
      {
        "midi": 57,
        "time": 76.406,
        "duration": 0.156,
        "velocity": 0.5,
        "hand": "left"
      },
      {
        "midi": 52,
        "time": 76.563,
        "duration": 0.156,
        "velocity": 0.5,
        "hand": "left"
      },
      {
        "midi": 61,
        "time": 76.563,
        "duration": 0.156,
        "velocity": 0.5,
        "hand": "right"
      },
      {
        "midi": 57,
        "time": 76.719,
        "duration": 0.156,
        "velocity": 0.5,
        "hand": "left"
      },
      {
        "midi": 45,
        "time": 76.875,
        "duration": 0.156,
        "velocity": 0.5,
        "hand": "left"
      },
      {
        "midi": 57,
        "time": 76.875,
        "duration": 0.156,
        "velocity": 0.5,
        "hand": "left"
      },
      {
        "midi": 68,
        "time": 76.875,
        "duration": 0.156,
        "velocity": 0.5,
        "hand": "right"
      },
      {
        "midi": 49,
        "time": 77.031,
        "duration": 0.156,
        "velocity": 0.5,
        "hand": "left"
      },
      {
        "midi": 68,
        "time": 77.031,
        "duration": 0.156,
        "velocity": 0.5,
        "hand": "right"
      },
      {
        "midi": 52,
        "time": 77.188,
        "duration": 0.156,
        "velocity": 0.5,
        "hand": "left"
      },
      {
        "midi": 61,
        "time": 77.188,
        "duration": 0.156,
        "velocity": 0.5,
        "hand": "right"
      },
      {
        "midi": 68,
        "time": 77.188,
        "duration": 0.156,
        "velocity": 0.5,
        "hand": "right"
      },
      {
        "midi": 57,
        "time": 77.344,
        "duration": 0.156,
        "velocity": 0.5,
        "hand": "left"
      },
      {
        "midi": 68,
        "time": 77.344,
        "duration": 0.156,
        "velocity": 0.5,
        "hand": "right"
      },
      {
        "midi": 52,
        "time": 77.5,
        "duration": 0.156,
        "velocity": 0.5,
        "hand": "left"
      },
      {
        "midi": 61,
        "time": 77.5,
        "duration": 0.156,
        "velocity": 0.5,
        "hand": "right"
      },
      {
        "midi": 68,
        "time": 77.5,
        "duration": 0.313,
        "velocity": 0.5,
        "hand": "right"
      },
      {
        "midi": 57,
        "time": 77.656,
        "duration": 0.156,
        "velocity": 0.5,
        "hand": "left"
      },
      {
        "midi": 45,
        "time": 77.813,
        "duration": 0.156,
        "velocity": 0.5,
        "hand": "left"
      },
      {
        "midi": 57,
        "time": 77.813,
        "duration": 0.156,
        "velocity": 0.5,
        "hand": "left"
      },
      {
        "midi": 68,
        "time": 77.813,
        "duration": 0.156,
        "velocity": 0.5,
        "hand": "right"
      },
      {
        "midi": 49,
        "time": 77.969,
        "duration": 0.156,
        "velocity": 0.5,
        "hand": "left"
      },
      {
        "midi": 68,
        "time": 77.969,
        "duration": 0.156,
        "velocity": 0.5,
        "hand": "right"
      },
      {
        "midi": 52,
        "time": 78.125,
        "duration": 0.156,
        "velocity": 0.5,
        "hand": "left"
      },
      {
        "midi": 61,
        "time": 78.125,
        "duration": 0.156,
        "velocity": 0.5,
        "hand": "right"
      },
      {
        "midi": 68,
        "time": 78.125,
        "duration": 0.156,
        "velocity": 0.5,
        "hand": "right"
      },
      {
        "midi": 57,
        "time": 78.281,
        "duration": 0.156,
        "velocity": 0.5,
        "hand": "left"
      },
      {
        "midi": 68,
        "time": 78.281,
        "duration": 0.156,
        "velocity": 0.5,
        "hand": "right"
      },
      {
        "midi": 52,
        "time": 78.438,
        "duration": 0.156,
        "velocity": 0.5,
        "hand": "left"
      },
      {
        "midi": 61,
        "time": 78.438,
        "duration": 0.156,
        "velocity": 0.5,
        "hand": "right"
      },
      {
        "midi": 68,
        "time": 78.438,
        "duration": 0.313,
        "velocity": 0.5,
        "hand": "right"
      },
      {
        "midi": 57,
        "time": 78.594,
        "duration": 0.156,
        "velocity": 0.5,
        "hand": "left"
      },
      {
        "midi": 44,
        "time": 78.75,
        "duration": 0.156,
        "velocity": 0.5,
        "hand": "left"
      },
      {
        "midi": 56,
        "time": 78.75,
        "duration": 0.156,
        "velocity": 0.5,
        "hand": "left"
      },
      {
        "midi": 68,
        "time": 78.75,
        "duration": 0.156,
        "velocity": 0.5,
        "hand": "right"
      },
      {
        "midi": 47,
        "time": 78.906,
        "duration": 0.156,
        "velocity": 0.5,
        "hand": "left"
      },
      {
        "midi": 68,
        "time": 78.906,
        "duration": 0.156,
        "velocity": 0.5,
        "hand": "right"
      },
      {
        "midi": 51,
        "time": 79.063,
        "duration": 0.156,
        "velocity": 0.5,
        "hand": "left"
      },
      {
        "midi": 59,
        "time": 79.063,
        "duration": 0.156,
        "velocity": 0.5,
        "hand": "left"
      },
      {
        "midi": 68,
        "time": 79.063,
        "duration": 0.156,
        "velocity": 0.5,
        "hand": "right"
      },
      {
        "midi": 56,
        "time": 79.219,
        "duration": 0.156,
        "velocity": 0.5,
        "hand": "left"
      },
      {
        "midi": 68,
        "time": 79.219,
        "duration": 0.156,
        "velocity": 0.5,
        "hand": "right"
      },
      {
        "midi": 51,
        "time": 79.375,
        "duration": 0.156,
        "velocity": 0.5,
        "hand": "left"
      },
      {
        "midi": 59,
        "time": 79.375,
        "duration": 0.156,
        "velocity": 0.5,
        "hand": "left"
      },
      {
        "midi": 68,
        "time": 79.375,
        "duration": 0.156,
        "velocity": 0.5,
        "hand": "right"
      },
      {
        "midi": 56,
        "time": 79.531,
        "duration": 0.156,
        "velocity": 0.5,
        "hand": "left"
      },
      {
        "midi": 66,
        "time": 79.531,
        "duration": 0.156,
        "velocity": 0.5,
        "hand": "right"
      },
      {
        "midi": 44,
        "time": 79.688,
        "duration": 0.156,
        "velocity": 0.5,
        "hand": "left"
      },
      {
        "midi": 80,
        "time": 79.688,
        "duration": 0.313,
        "velocity": 0.6,
        "hand": "right"
      },
      {
        "midi": 92,
        "time": 79.688,
        "duration": 0.313,
        "velocity": 0.6,
        "hand": "right"
      },
      {
        "midi": 47,
        "time": 79.844,
        "duration": 0.156,
        "velocity": 0.5,
        "hand": "left"
      },
      {
        "midi": 51,
        "time": 80,
        "duration": 0.156,
        "velocity": 0.5,
        "hand": "left"
      },
      {
        "midi": 59,
        "time": 80,
        "duration": 0.156,
        "velocity": 0.5,
        "hand": "left"
      },
      {
        "midi": 56,
        "time": 80.156,
        "duration": 0.156,
        "velocity": 0.5,
        "hand": "left"
      },
      {
        "midi": 51,
        "time": 80.313,
        "duration": 0.156,
        "velocity": 0.5,
        "hand": "left"
      },
      {
        "midi": 59,
        "time": 80.313,
        "duration": 0.156,
        "velocity": 0.5,
        "hand": "left"
      },
      {
        "midi": 56,
        "time": 80.469,
        "duration": 0.156,
        "velocity": 0.5,
        "hand": "left"
      },
      {
        "midi": 44,
        "time": 80.625,
        "duration": 0.156,
        "velocity": 0.5,
        "hand": "left"
      },
      {
        "midi": 56,
        "time": 80.625,
        "duration": 0.156,
        "velocity": 0.5,
        "hand": "left"
      },
      {
        "midi": 68,
        "time": 80.625,
        "duration": 0.156,
        "velocity": 0.5,
        "hand": "right"
      },
      {
        "midi": 47,
        "time": 80.781,
        "duration": 0.156,
        "velocity": 0.5,
        "hand": "left"
      },
      {
        "midi": 68,
        "time": 80.781,
        "duration": 0.156,
        "velocity": 0.5,
        "hand": "right"
      },
      {
        "midi": 51,
        "time": 80.938,
        "duration": 0.156,
        "velocity": 0.5,
        "hand": "left"
      },
      {
        "midi": 59,
        "time": 80.938,
        "duration": 0.156,
        "velocity": 0.5,
        "hand": "left"
      },
      {
        "midi": 68,
        "time": 80.938,
        "duration": 0.156,
        "velocity": 0.5,
        "hand": "right"
      },
      {
        "midi": 56,
        "time": 81.094,
        "duration": 0.156,
        "velocity": 0.5,
        "hand": "left"
      },
      {
        "midi": 68,
        "time": 81.094,
        "duration": 0.156,
        "velocity": 0.5,
        "hand": "right"
      },
      {
        "midi": 51,
        "time": 81.25,
        "duration": 0.156,
        "velocity": 0.5,
        "hand": "left"
      },
      {
        "midi": 59,
        "time": 81.25,
        "duration": 0.156,
        "velocity": 0.5,
        "hand": "left"
      },
      {
        "midi": 68,
        "time": 81.25,
        "duration": 0.313,
        "velocity": 0.5,
        "hand": "right"
      },
      {
        "midi": 56,
        "time": 81.406,
        "duration": 0.156,
        "velocity": 0.5,
        "hand": "left"
      },
      {
        "midi": 43,
        "time": 81.563,
        "duration": 0.156,
        "velocity": 0.5,
        "hand": "left"
      },
      {
        "midi": 55,
        "time": 81.563,
        "duration": 0.156,
        "velocity": 0.5,
        "hand": "left"
      },
      {
        "midi": 68,
        "time": 81.563,
        "duration": 0.156,
        "velocity": 0.5,
        "hand": "right"
      },
      {
        "midi": 47,
        "time": 81.719,
        "duration": 0.156,
        "velocity": 0.5,
        "hand": "left"
      },
      {
        "midi": 68,
        "time": 81.719,
        "duration": 0.156,
        "velocity": 0.5,
        "hand": "right"
      },
      {
        "midi": 51,
        "time": 81.875,
        "duration": 0.156,
        "velocity": 0.5,
        "hand": "left"
      },
      {
        "midi": 59,
        "time": 81.875,
        "duration": 0.156,
        "velocity": 0.5,
        "hand": "left"
      },
      {
        "midi": 68,
        "time": 81.875,
        "duration": 0.156,
        "velocity": 0.5,
        "hand": "right"
      },
      {
        "midi": 55,
        "time": 82.031,
        "duration": 0.156,
        "velocity": 0.5,
        "hand": "left"
      },
      {
        "midi": 68,
        "time": 82.031,
        "duration": 0.156,
        "velocity": 0.5,
        "hand": "right"
      },
      {
        "midi": 51,
        "time": 82.188,
        "duration": 0.156,
        "velocity": 0.5,
        "hand": "left"
      },
      {
        "midi": 59,
        "time": 82.188,
        "duration": 0.156,
        "velocity": 0.5,
        "hand": "left"
      },
      {
        "midi": 68,
        "time": 82.188,
        "duration": 0.313,
        "velocity": 0.5,
        "hand": "right"
      },
      {
        "midi": 55,
        "time": 82.344,
        "duration": 0.156,
        "velocity": 0.5,
        "hand": "left"
      },
      {
        "midi": 42,
        "time": 82.5,
        "duration": 0.156,
        "velocity": 0.5,
        "hand": "left"
      },
      {
        "midi": 54,
        "time": 82.5,
        "duration": 0.156,
        "velocity": 0.5,
        "hand": "left"
      },
      {
        "midi": 68,
        "time": 82.5,
        "duration": 0.156,
        "velocity": 0.5,
        "hand": "right"
      },
      {
        "midi": 45,
        "time": 82.656,
        "duration": 0.156,
        "velocity": 0.5,
        "hand": "left"
      },
      {
        "midi": 68,
        "time": 82.656,
        "duration": 0.156,
        "velocity": 0.5,
        "hand": "right"
      },
      {
        "midi": 49,
        "time": 82.813,
        "duration": 0.156,
        "velocity": 0.5,
        "hand": "left"
      },
      {
        "midi": 57,
        "time": 82.813,
        "duration": 0.156,
        "velocity": 0.5,
        "hand": "left"
      },
      {
        "midi": 68,
        "time": 82.813,
        "duration": 0.156,
        "velocity": 0.5,
        "hand": "right"
      },
      {
        "midi": 54,
        "time": 82.969,
        "duration": 0.156,
        "velocity": 0.5,
        "hand": "left"
      },
      {
        "midi": 68,
        "time": 82.969,
        "duration": 0.156,
        "velocity": 0.5,
        "hand": "right"
      },
      {
        "midi": 49,
        "time": 83.125,
        "duration": 0.156,
        "velocity": 0.5,
        "hand": "left"
      },
      {
        "midi": 57,
        "time": 83.125,
        "duration": 0.156,
        "velocity": 0.5,
        "hand": "left"
      },
      {
        "midi": 68,
        "time": 83.125,
        "duration": 0.156,
        "velocity": 0.5,
        "hand": "right"
      },
      {
        "midi": 54,
        "time": 83.281,
        "duration": 0.156,
        "velocity": 0.5,
        "hand": "left"
      },
      {
        "midi": 66,
        "time": 83.281,
        "duration": 0.156,
        "velocity": 0.5,
        "hand": "right"
      },
      {
        "midi": 42,
        "time": 83.438,
        "duration": 0.156,
        "velocity": 0.5,
        "hand": "left"
      },
      {
        "midi": 78,
        "time": 83.438,
        "duration": 0.313,
        "velocity": 0.6,
        "hand": "right"
      },
      {
        "midi": 90,
        "time": 83.438,
        "duration": 0.313,
        "velocity": 0.6,
        "hand": "right"
      },
      {
        "midi": 45,
        "time": 83.594,
        "duration": 0.156,
        "velocity": 0.5,
        "hand": "left"
      },
      {
        "midi": 49,
        "time": 83.75,
        "duration": 0.156,
        "velocity": 0.5,
        "hand": "left"
      },
      {
        "midi": 57,
        "time": 83.75,
        "duration": 0.156,
        "velocity": 0.5,
        "hand": "left"
      },
      {
        "midi": 54,
        "time": 83.906,
        "duration": 0.156,
        "velocity": 0.5,
        "hand": "left"
      },
      {
        "midi": 49,
        "time": 84.063,
        "duration": 0.156,
        "velocity": 0.5,
        "hand": "left"
      },
      {
        "midi": 57,
        "time": 84.063,
        "duration": 0.156,
        "velocity": 0.5,
        "hand": "left"
      },
      {
        "midi": 54,
        "time": 84.219,
        "duration": 0.156,
        "velocity": 0.5,
        "hand": "left"
      },
      {
        "midi": 42,
        "time": 84.375,
        "duration": 0.156,
        "velocity": 0.5,
        "hand": "left"
      },
      {
        "midi": 54,
        "time": 84.375,
        "duration": 0.156,
        "velocity": 0.5,
        "hand": "left"
      },
      {
        "midi": 68,
        "time": 84.375,
        "duration": 0.156,
        "velocity": 0.5,
        "hand": "right"
      },
      {
        "midi": 45,
        "time": 84.531,
        "duration": 0.156,
        "velocity": 0.5,
        "hand": "left"
      },
      {
        "midi": 68,
        "time": 84.531,
        "duration": 0.156,
        "velocity": 0.5,
        "hand": "right"
      },
      {
        "midi": 49,
        "time": 84.688,
        "duration": 0.156,
        "velocity": 0.5,
        "hand": "left"
      },
      {
        "midi": 57,
        "time": 84.688,
        "duration": 0.156,
        "velocity": 0.5,
        "hand": "left"
      },
      {
        "midi": 68,
        "time": 84.688,
        "duration": 0.156,
        "velocity": 0.5,
        "hand": "right"
      },
      {
        "midi": 54,
        "time": 84.844,
        "duration": 0.156,
        "velocity": 0.5,
        "hand": "left"
      },
      {
        "midi": 68,
        "time": 84.844,
        "duration": 0.156,
        "velocity": 0.5,
        "hand": "right"
      },
      {
        "midi": 49,
        "time": 85,
        "duration": 0.156,
        "velocity": 0.5,
        "hand": "left"
      },
      {
        "midi": 57,
        "time": 85,
        "duration": 0.156,
        "velocity": 0.5,
        "hand": "left"
      },
      {
        "midi": 68,
        "time": 85,
        "duration": 0.156,
        "velocity": 0.5,
        "hand": "right"
      },
      {
        "midi": 54,
        "time": 85.156,
        "duration": 0.156,
        "velocity": 0.5,
        "hand": "left"
      },
      {
        "midi": 66,
        "time": 85.156,
        "duration": 0.156,
        "velocity": 0.5,
        "hand": "right"
      },
      {
        "midi": 42,
        "time": 85.313,
        "duration": 0.156,
        "velocity": 0.5,
        "hand": "left"
      },
      {
        "midi": 78,
        "time": 85.313,
        "duration": 0.313,
        "velocity": 0.6,
        "hand": "right"
      },
      {
        "midi": 90,
        "time": 85.313,
        "duration": 0.313,
        "velocity": 0.6,
        "hand": "right"
      },
      {
        "midi": 45,
        "time": 85.469,
        "duration": 0.156,
        "velocity": 0.5,
        "hand": "left"
      },
      {
        "midi": 49,
        "time": 85.625,
        "duration": 0.156,
        "velocity": 0.5,
        "hand": "left"
      },
      {
        "midi": 57,
        "time": 85.625,
        "duration": 0.156,
        "velocity": 0.5,
        "hand": "left"
      },
      {
        "midi": 54,
        "time": 85.781,
        "duration": 0.156,
        "velocity": 0.5,
        "hand": "left"
      },
      {
        "midi": 49,
        "time": 85.938,
        "duration": 0.156,
        "velocity": 0.5,
        "hand": "left"
      },
      {
        "midi": 57,
        "time": 85.938,
        "duration": 0.156,
        "velocity": 0.5,
        "hand": "left"
      },
      {
        "midi": 54,
        "time": 86.094,
        "duration": 0.156,
        "velocity": 0.5,
        "hand": "left"
      },
      {
        "midi": 40,
        "time": 86.25,
        "duration": 0.156,
        "velocity": 0.5,
        "hand": "left"
      },
      {
        "midi": 52,
        "time": 86.25,
        "duration": 0.156,
        "velocity": 0.5,
        "hand": "left"
      },
      {
        "midi": 68,
        "time": 86.25,
        "duration": 0.156,
        "velocity": 0.5,
        "hand": "right"
      },
      {
        "midi": 44,
        "time": 86.406,
        "duration": 0.156,
        "velocity": 0.5,
        "hand": "left"
      },
      {
        "midi": 68,
        "time": 86.406,
        "duration": 0.156,
        "velocity": 0.5,
        "hand": "right"
      },
      {
        "midi": 47,
        "time": 86.563,
        "duration": 0.156,
        "velocity": 0.5,
        "hand": "left"
      },
      {
        "midi": 56,
        "time": 86.563,
        "duration": 0.156,
        "velocity": 0.5,
        "hand": "left"
      },
      {
        "midi": 68,
        "time": 86.563,
        "duration": 0.156,
        "velocity": 0.5,
        "hand": "right"
      },
      {
        "midi": 52,
        "time": 86.719,
        "duration": 0.156,
        "velocity": 0.5,
        "hand": "left"
      },
      {
        "midi": 68,
        "time": 86.719,
        "duration": 0.156,
        "velocity": 0.5,
        "hand": "right"
      },
      {
        "midi": 47,
        "time": 86.875,
        "duration": 0.156,
        "velocity": 0.5,
        "hand": "left"
      },
      {
        "midi": 56,
        "time": 86.875,
        "duration": 0.156,
        "velocity": 0.5,
        "hand": "left"
      },
      {
        "midi": 68,
        "time": 86.875,
        "duration": 0.313,
        "velocity": 0.5,
        "hand": "right"
      },
      {
        "midi": 52,
        "time": 87.031,
        "duration": 0.156,
        "velocity": 0.5,
        "hand": "left"
      },
      {
        "midi": 40,
        "time": 87.188,
        "duration": 0.156,
        "velocity": 0.5,
        "hand": "left"
      },
      {
        "midi": 68,
        "time": 87.188,
        "duration": 0.156,
        "velocity": 0.5,
        "hand": "right"
      },
      {
        "midi": 75,
        "time": 87.188,
        "duration": 0.938,
        "velocity": 0.5,
        "hand": "right"
      },
      {
        "midi": 44,
        "time": 87.344,
        "duration": 0.156,
        "velocity": 0.5,
        "hand": "left"
      },
      {
        "midi": 68,
        "time": 87.344,
        "duration": 0.156,
        "velocity": 0.5,
        "hand": "right"
      },
      {
        "midi": 47,
        "time": 87.5,
        "duration": 0.156,
        "velocity": 0.5,
        "hand": "left"
      },
      {
        "midi": 56,
        "time": 87.5,
        "duration": 0.156,
        "velocity": 0.5,
        "hand": "left"
      },
      {
        "midi": 68,
        "time": 87.5,
        "duration": 0.156,
        "velocity": 0.5,
        "hand": "right"
      },
      {
        "midi": 52,
        "time": 87.656,
        "duration": 0.156,
        "velocity": 0.5,
        "hand": "left"
      },
      {
        "midi": 68,
        "time": 87.656,
        "duration": 0.156,
        "velocity": 0.5,
        "hand": "right"
      },
      {
        "midi": 47,
        "time": 87.813,
        "duration": 0.156,
        "velocity": 0.5,
        "hand": "left"
      },
      {
        "midi": 56,
        "time": 87.813,
        "duration": 0.156,
        "velocity": 0.5,
        "hand": "left"
      },
      {
        "midi": 68,
        "time": 87.813,
        "duration": 0.313,
        "velocity": 0.5,
        "hand": "right"
      },
      {
        "midi": 52,
        "time": 87.969,
        "duration": 0.156,
        "velocity": 0.5,
        "hand": "left"
      },
      {
        "midi": 40,
        "time": 88.125,
        "duration": 0.156,
        "velocity": 0.5,
        "hand": "left"
      },
      {
        "midi": 68,
        "time": 88.125,
        "duration": 0.313,
        "velocity": 0.5,
        "hand": "right"
      },
      {
        "midi": 76,
        "time": 88.125,
        "duration": 0.938,
        "velocity": 0.5,
        "hand": "right"
      },
      {
        "midi": 44,
        "time": 88.281,
        "duration": 0.156,
        "velocity": 0.51,
        "hand": "left"
      },
      {
        "midi": 47,
        "time": 88.438,
        "duration": 0.156,
        "velocity": 0.52,
        "hand": "left"
      },
      {
        "midi": 56,
        "time": 88.438,
        "duration": 0.156,
        "velocity": 0.52,
        "hand": "left"
      },
      {
        "midi": 68,
        "time": 88.438,
        "duration": 0.313,
        "velocity": 0.52,
        "hand": "right"
      },
      {
        "midi": 52,
        "time": 88.594,
        "duration": 0.156,
        "velocity": 0.54,
        "hand": "left"
      },
      {
        "midi": 47,
        "time": 88.75,
        "duration": 0.156,
        "velocity": 0.54,
        "hand": "left"
      },
      {
        "midi": 56,
        "time": 88.75,
        "duration": 0.156,
        "velocity": 0.54,
        "hand": "left"
      },
      {
        "midi": 68,
        "time": 88.75,
        "duration": 0.156,
        "velocity": 0.54,
        "hand": "right"
      },
      {
        "midi": 52,
        "time": 88.906,
        "duration": 0.156,
        "velocity": 0.55,
        "hand": "left"
      },
      {
        "midi": 66,
        "time": 88.906,
        "duration": 0.156,
        "velocity": 0.55,
        "hand": "right"
      },
      {
        "midi": 40,
        "time": 89.063,
        "duration": 0.156,
        "velocity": 0.57,
        "hand": "left"
      },
      {
        "midi": 64,
        "time": 89.063,
        "duration": 0.313,
        "velocity": 0.57,
        "hand": "right"
      },
      {
        "midi": 78,
        "time": 89.063,
        "duration": 0.938,
        "velocity": 0.57,
        "hand": "right"
      },
      {
        "midi": 44,
        "time": 89.219,
        "duration": 0.156,
        "velocity": 0.57,
        "hand": "left"
      },
      {
        "midi": 47,
        "time": 89.375,
        "duration": 0.156,
        "velocity": 0.58,
        "hand": "left"
      },
      {
        "midi": 56,
        "time": 89.375,
        "duration": 0.156,
        "velocity": 0.58,
        "hand": "left"
      },
      {
        "midi": 68,
        "time": 89.375,
        "duration": 0.313,
        "velocity": 0.58,
        "hand": "right"
      },
      {
        "midi": 52,
        "time": 89.531,
        "duration": 0.156,
        "velocity": 0.6,
        "hand": "left"
      },
      {
        "midi": 47,
        "time": 89.688,
        "duration": 0.156,
        "velocity": 0.61,
        "hand": "left"
      },
      {
        "midi": 56,
        "time": 89.688,
        "duration": 0.156,
        "velocity": 0.61,
        "hand": "left"
      },
      {
        "midi": 71,
        "time": 89.688,
        "duration": 0.313,
        "velocity": 0.61,
        "hand": "right"
      },
      {
        "midi": 52,
        "time": 89.844,
        "duration": 0.156,
        "velocity": 0.61,
        "hand": "left"
      },
      {
        "midi": 33,
        "time": 90,
        "duration": 0.156,
        "velocity": 0.63,
        "hand": "left"
      },
      {
        "midi": 64,
        "time": 90,
        "duration": 1.25,
        "velocity": 0.63,
        "hand": "right"
      },
      {
        "midi": 69,
        "time": 90,
        "duration": 1.25,
        "velocity": 0.63,
        "hand": "right"
      },
      {
        "midi": 52,
        "time": 90.156,
        "duration": 0.156,
        "velocity": 0.63,
        "hand": "left"
      },
      {
        "midi": 73,
        "time": 90.156,
        "duration": 1.094,
        "velocity": 0.63,
        "hand": "right"
      },
      {
        "midi": 57,
        "time": 90.313,
        "duration": 0.156,
        "velocity": 0.63,
        "hand": "left"
      },
      {
        "midi": 61,
        "time": 90.469,
        "duration": 0.156,
        "velocity": 0.63,
        "hand": "right"
      },
      {
        "midi": 57,
        "time": 90.625,
        "duration": 0.156,
        "velocity": 0.63,
        "hand": "left"
      },
      {
        "midi": 52,
        "time": 90.781,
        "duration": 0.156,
        "velocity": 0.63,
        "hand": "left"
      },
      {
        "midi": 33,
        "time": 90.938,
        "duration": 0.156,
        "velocity": 0.63,
        "hand": "left"
      },
      {
        "midi": 45,
        "time": 90.938,
        "duration": 0.156,
        "velocity": 0.63,
        "hand": "left"
      },
      {
        "midi": 52,
        "time": 91.094,
        "duration": 0.156,
        "velocity": 0.63,
        "hand": "left"
      },
      {
        "midi": 57,
        "time": 91.25,
        "duration": 0.156,
        "velocity": 0.63,
        "hand": "left"
      },
      {
        "midi": 64,
        "time": 91.25,
        "duration": 0.313,
        "velocity": 0.63,
        "hand": "right"
      },
      {
        "midi": 73,
        "time": 91.25,
        "duration": 0.313,
        "velocity": 0.63,
        "hand": "right"
      },
      {
        "midi": 61,
        "time": 91.406,
        "duration": 0.156,
        "velocity": 0.63,
        "hand": "right"
      },
      {
        "midi": 57,
        "time": 91.563,
        "duration": 0.156,
        "velocity": 0.63,
        "hand": "left"
      },
      {
        "midi": 69,
        "time": 91.563,
        "duration": 0.313,
        "velocity": 0.63,
        "hand": "right"
      },
      {
        "midi": 75,
        "time": 91.563,
        "duration": 0.313,
        "velocity": 0.63,
        "hand": "right"
      },
      {
        "midi": 52,
        "time": 91.719,
        "duration": 0.156,
        "velocity": 0.63,
        "hand": "left"
      },
      {
        "midi": 33,
        "time": 91.875,
        "duration": 0.156,
        "velocity": 0.63,
        "hand": "left"
      },
      {
        "midi": 69,
        "time": 91.875,
        "duration": 1.25,
        "velocity": 0.63,
        "hand": "right"
      },
      {
        "midi": 76,
        "time": 91.875,
        "duration": 1.25,
        "velocity": 0.63,
        "hand": "right"
      },
      {
        "midi": 52,
        "time": 92.031,
        "duration": 0.156,
        "velocity": 0.63,
        "hand": "left"
      },
      {
        "midi": 57,
        "time": 92.188,
        "duration": 0.156,
        "velocity": 0.63,
        "hand": "left"
      },
      {
        "midi": 61,
        "time": 92.344,
        "duration": 0.156,
        "velocity": 0.63,
        "hand": "right"
      },
      {
        "midi": 57,
        "time": 92.5,
        "duration": 0.156,
        "velocity": 0.63,
        "hand": "left"
      },
      {
        "midi": 52,
        "time": 92.656,
        "duration": 0.156,
        "velocity": 0.63,
        "hand": "left"
      },
      {
        "midi": 33,
        "time": 92.813,
        "duration": 0.156,
        "velocity": 0.63,
        "hand": "left"
      },
      {
        "midi": 45,
        "time": 92.813,
        "duration": 0.156,
        "velocity": 0.63,
        "hand": "left"
      },
      {
        "midi": 52,
        "time": 92.969,
        "duration": 0.156,
        "velocity": 0.63,
        "hand": "left"
      },
      {
        "midi": 57,
        "time": 93.125,
        "duration": 0.156,
        "velocity": 0.63,
        "hand": "left"
      },
      {
        "midi": 69,
        "time": 93.125,
        "duration": 0.313,
        "velocity": 0.63,
        "hand": "right"
      },
      {
        "midi": 76,
        "time": 93.125,
        "duration": 0.313,
        "velocity": 0.63,
        "hand": "right"
      },
      {
        "midi": 61,
        "time": 93.281,
        "duration": 0.156,
        "velocity": 0.63,
        "hand": "right"
      },
      {
        "midi": 57,
        "time": 93.438,
        "duration": 0.156,
        "velocity": 0.63,
        "hand": "left"
      },
      {
        "midi": 68,
        "time": 93.438,
        "duration": 0.313,
        "velocity": 0.63,
        "hand": "right"
      },
      {
        "midi": 78,
        "time": 93.438,
        "duration": 0.313,
        "velocity": 0.63,
        "hand": "right"
      },
      {
        "midi": 52,
        "time": 93.594,
        "duration": 0.156,
        "velocity": 0.63,
        "hand": "left"
      },
      {
        "midi": 32,
        "time": 93.75,
        "duration": 0.156,
        "velocity": 0.63,
        "hand": "left"
      },
      {
        "midi": 68,
        "time": 93.75,
        "duration": 0.313,
        "velocity": 0.63,
        "hand": "right"
      },
      {
        "midi": 75,
        "time": 93.75,
        "duration": 0.313,
        "velocity": 0.63,
        "hand": "right"
      },
      {
        "midi": 51,
        "time": 93.906,
        "duration": 0.156,
        "velocity": 0.63,
        "hand": "left"
      },
      {
        "midi": 56,
        "time": 94.063,
        "duration": 0.156,
        "velocity": 0.63,
        "hand": "left"
      },
      {
        "midi": 73,
        "time": 94.063,
        "duration": 0.313,
        "velocity": 0.63,
        "hand": "right"
      },
      {
        "midi": 59,
        "time": 94.219,
        "duration": 0.156,
        "velocity": 0.63,
        "hand": "left"
      },
      {
        "midi": 56,
        "time": 94.375,
        "duration": 0.156,
        "velocity": 0.63,
        "hand": "left"
      },
      {
        "midi": 68,
        "time": 94.375,
        "duration": 0.313,
        "velocity": 0.63,
        "hand": "right"
      },
      {
        "midi": 71,
        "time": 94.375,
        "duration": 0.313,
        "velocity": 0.63,
        "hand": "right"
      },
      {
        "midi": 51,
        "time": 94.531,
        "duration": 0.156,
        "velocity": 0.63,
        "hand": "left"
      },
      {
        "midi": 32,
        "time": 94.688,
        "duration": 0.156,
        "velocity": 0.63,
        "hand": "left"
      },
      {
        "midi": 68,
        "time": 94.688,
        "duration": 0.625,
        "velocity": 0.63,
        "hand": "right"
      },
      {
        "midi": 71,
        "time": 94.688,
        "duration": 0.625,
        "velocity": 0.63,
        "hand": "right"
      },
      {
        "midi": 51,
        "time": 94.844,
        "duration": 0.156,
        "velocity": 0.63,
        "hand": "left"
      },
      {
        "midi": 56,
        "time": 95,
        "duration": 0.156,
        "velocity": 0.63,
        "hand": "left"
      },
      {
        "midi": 59,
        "time": 95.156,
        "duration": 0.156,
        "velocity": 0.63,
        "hand": "left"
      },
      {
        "midi": 56,
        "time": 95.313,
        "duration": 0.156,
        "velocity": 0.63,
        "hand": "left"
      },
      {
        "midi": 63,
        "time": 95.313,
        "duration": 0.313,
        "velocity": 0.63,
        "hand": "right"
      },
      {
        "midi": 68,
        "time": 95.313,
        "duration": 0.313,
        "velocity": 0.63,
        "hand": "right"
      },
      {
        "midi": 51,
        "time": 95.469,
        "duration": 0.156,
        "velocity": 0.63,
        "hand": "left"
      },
      {
        "midi": 32,
        "time": 95.625,
        "duration": 0.156,
        "velocity": 0.63,
        "hand": "left"
      },
      {
        "midi": 68,
        "time": 95.625,
        "duration": 0.313,
        "velocity": 0.63,
        "hand": "right"
      },
      {
        "midi": 75,
        "time": 95.625,
        "duration": 0.313,
        "velocity": 0.63,
        "hand": "right"
      },
      {
        "midi": 51,
        "time": 95.781,
        "duration": 0.156,
        "velocity": 0.63,
        "hand": "left"
      },
      {
        "midi": 56,
        "time": 95.938,
        "duration": 0.156,
        "velocity": 0.63,
        "hand": "left"
      },
      {
        "midi": 73,
        "time": 95.938,
        "duration": 0.313,
        "velocity": 0.63,
        "hand": "right"
      },
      {
        "midi": 59,
        "time": 96.094,
        "duration": 0.156,
        "velocity": 0.63,
        "hand": "left"
      },
      {
        "midi": 56,
        "time": 96.25,
        "duration": 0.156,
        "velocity": 0.63,
        "hand": "left"
      },
      {
        "midi": 68,
        "time": 96.25,
        "duration": 0.313,
        "velocity": 0.63,
        "hand": "right"
      },
      {
        "midi": 71,
        "time": 96.25,
        "duration": 0.313,
        "velocity": 0.63,
        "hand": "right"
      },
      {
        "midi": 51,
        "time": 96.406,
        "duration": 0.156,
        "velocity": 0.63,
        "hand": "left"
      },
      {
        "midi": 31,
        "time": 96.563,
        "duration": 0.156,
        "velocity": 0.63,
        "hand": "left"
      },
      {
        "midi": 63,
        "time": 96.563,
        "duration": 0.313,
        "velocity": 0.63,
        "hand": "right"
      },
      {
        "midi": 75,
        "time": 96.563,
        "duration": 0.313,
        "velocity": 0.63,
        "hand": "right"
      },
      {
        "midi": 51,
        "time": 96.719,
        "duration": 0.156,
        "velocity": 0.63,
        "hand": "left"
      },
      {
        "midi": 56,
        "time": 96.875,
        "duration": 0.156,
        "velocity": 0.63,
        "hand": "left"
      },
      {
        "midi": 73,
        "time": 96.875,
        "duration": 0.313,
        "velocity": 0.63,
        "hand": "right"
      },
      {
        "midi": 59,
        "time": 97.031,
        "duration": 0.156,
        "velocity": 0.63,
        "hand": "left"
      },
      {
        "midi": 56,
        "time": 97.188,
        "duration": 0.156,
        "velocity": 0.63,
        "hand": "left"
      },
      {
        "midi": 68,
        "time": 97.188,
        "duration": 0.313,
        "velocity": 0.63,
        "hand": "right"
      },
      {
        "midi": 71,
        "time": 97.188,
        "duration": 0.313,
        "velocity": 0.63,
        "hand": "right"
      },
      {
        "midi": 51,
        "time": 97.344,
        "duration": 0.156,
        "velocity": 0.63,
        "hand": "left"
      },
      {
        "midi": 30,
        "time": 97.5,
        "duration": 0.156,
        "velocity": 0.63,
        "hand": "left"
      },
      {
        "midi": 66,
        "time": 97.5,
        "duration": 0.156,
        "velocity": 0.63,
        "hand": "right"
      },
      {
        "midi": 71,
        "time": 97.5,
        "duration": 0.156,
        "velocity": 0.63,
        "hand": "right"
      },
      {
        "midi": 49,
        "time": 97.656,
        "duration": 0.156,
        "velocity": 0.63,
        "hand": "left"
      },
      {
        "midi": 66,
        "time": 97.656,
        "duration": 2.188,
        "velocity": 0.63,
        "hand": "right"
      },
      {
        "midi": 69,
        "time": 97.656,
        "duration": 2.188,
        "velocity": 0.63,
        "hand": "right"
      },
      {
        "midi": 54,
        "time": 97.813,
        "duration": 0.156,
        "velocity": 0.63,
        "hand": "left"
      },
      {
        "midi": 57,
        "time": 97.969,
        "duration": 0.156,
        "velocity": 0.63,
        "hand": "left"
      },
      {
        "midi": 54,
        "time": 98.125,
        "duration": 0.156,
        "velocity": 0.63,
        "hand": "left"
      },
      {
        "midi": 49,
        "time": 98.281,
        "duration": 0.156,
        "velocity": 0.63,
        "hand": "left"
      },
      {
        "midi": 30,
        "time": 98.438,
        "duration": 0.156,
        "velocity": 0.63,
        "hand": "left"
      },
      {
        "midi": 42,
        "time": 98.438,
        "duration": 0.156,
        "velocity": 0.63,
        "hand": "left"
      },
      {
        "midi": 49,
        "time": 98.594,
        "duration": 0.156,
        "velocity": 0.63,
        "hand": "left"
      },
      {
        "midi": 54,
        "time": 98.75,
        "duration": 0.156,
        "velocity": 0.63,
        "hand": "left"
      },
      {
        "midi": 57,
        "time": 98.906,
        "duration": 0.156,
        "velocity": 0.63,
        "hand": "left"
      },
      {
        "midi": 54,
        "time": 99.063,
        "duration": 0.156,
        "velocity": 0.63,
        "hand": "left"
      },
      {
        "midi": 49,
        "time": 99.219,
        "duration": 0.156,
        "velocity": 0.63,
        "hand": "left"
      },
      {
        "midi": 30,
        "time": 99.375,
        "duration": 0.156,
        "velocity": 0.63,
        "hand": "left"
      },
      {
        "midi": 42,
        "time": 99.375,
        "duration": 0.156,
        "velocity": 0.63,
        "hand": "left"
      },
      {
        "midi": 49,
        "time": 99.531,
        "duration": 0.156,
        "velocity": 0.63,
        "hand": "left"
      },
      {
        "midi": 54,
        "time": 99.688,
        "duration": 0.156,
        "velocity": 0.63,
        "hand": "left"
      },
      {
        "midi": 57,
        "time": 99.844,
        "duration": 0.156,
        "velocity": 0.63,
        "hand": "left"
      },
      {
        "midi": 54,
        "time": 100,
        "duration": 0.156,
        "velocity": 0.63,
        "hand": "left"
      },
      {
        "midi": 64,
        "time": 100,
        "duration": 0.313,
        "velocity": 0.63,
        "hand": "right"
      },
      {
        "midi": 73,
        "time": 100,
        "duration": 0.313,
        "velocity": 0.63,
        "hand": "right"
      },
      {
        "midi": 49,
        "time": 100.156,
        "duration": 0.156,
        "velocity": 0.63,
        "hand": "left"
      },
      {
        "midi": 30,
        "time": 100.313,
        "duration": 0.156,
        "velocity": 0.63,
        "hand": "left"
      },
      {
        "midi": 64,
        "time": 100.313,
        "duration": 0.313,
        "velocity": 0.63,
        "hand": "right"
      },
      {
        "midi": 71,
        "time": 100.313,
        "duration": 0.313,
        "velocity": 0.63,
        "hand": "right"
      },
      {
        "midi": 49,
        "time": 100.469,
        "duration": 0.156,
        "velocity": 0.63,
        "hand": "left"
      },
      {
        "midi": 54,
        "time": 100.625,
        "duration": 0.156,
        "velocity": 0.63,
        "hand": "left"
      },
      {
        "midi": 66,
        "time": 100.625,
        "duration": 0.313,
        "velocity": 0.63,
        "hand": "right"
      },
      {
        "midi": 69,
        "time": 100.625,
        "duration": 0.313,
        "velocity": 0.63,
        "hand": "right"
      },
      {
        "midi": 57,
        "time": 100.781,
        "duration": 0.156,
        "velocity": 0.63,
        "hand": "left"
      },
      {
        "midi": 54,
        "time": 100.938,
        "duration": 0.156,
        "velocity": 0.63,
        "hand": "left"
      },
      {
        "midi": 66,
        "time": 100.938,
        "duration": 0.156,
        "velocity": 0.63,
        "hand": "right"
      },
      {
        "midi": 68,
        "time": 100.938,
        "duration": 0.156,
        "velocity": 0.63,
        "hand": "right"
      },
      {
        "midi": 49,
        "time": 101.094,
        "duration": 0.156,
        "velocity": 0.63,
        "hand": "left"
      },
      {
        "midi": 64,
        "time": 101.094,
        "duration": 2.5,
        "velocity": 0.63,
        "hand": "right"
      },
      {
        "midi": 68,
        "time": 101.094,
        "duration": 2.5,
        "velocity": 0.63,
        "hand": "right"
      },
      {
        "midi": 28,
        "time": 101.25,
        "duration": 0.156,
        "velocity": 0.63,
        "hand": "left"
      },
      {
        "midi": 40,
        "time": 101.25,
        "duration": 0.156,
        "velocity": 0.63,
        "hand": "left"
      },
      {
        "midi": 47,
        "time": 101.406,
        "duration": 0.156,
        "velocity": 0.63,
        "hand": "left"
      },
      {
        "midi": 52,
        "time": 101.563,
        "duration": 0.156,
        "velocity": 0.63,
        "hand": "left"
      },
      {
        "midi": 56,
        "time": 101.719,
        "duration": 0.156,
        "velocity": 0.63,
        "hand": "left"
      },
      {
        "midi": 52,
        "time": 101.875,
        "duration": 0.156,
        "velocity": 0.63,
        "hand": "left"
      },
      {
        "midi": 47,
        "time": 102.031,
        "duration": 0.156,
        "velocity": 0.63,
        "hand": "left"
      },
      {
        "midi": 28,
        "time": 102.188,
        "duration": 0.156,
        "velocity": 0.63,
        "hand": "left"
      },
      {
        "midi": 40,
        "time": 102.188,
        "duration": 0.156,
        "velocity": 0.63,
        "hand": "left"
      },
      {
        "midi": 47,
        "time": 102.344,
        "duration": 0.156,
        "velocity": 0.63,
        "hand": "left"
      },
      {
        "midi": 52,
        "time": 102.5,
        "duration": 0.156,
        "velocity": 0.63,
        "hand": "left"
      },
      {
        "midi": 56,
        "time": 102.656,
        "duration": 0.156,
        "velocity": 0.63,
        "hand": "left"
      },
      {
        "midi": 52,
        "time": 102.813,
        "duration": 0.156,
        "velocity": 0.63,
        "hand": "left"
      },
      {
        "midi": 47,
        "time": 102.969,
        "duration": 0.156,
        "velocity": 0.63,
        "hand": "left"
      },
      {
        "midi": 28,
        "time": 103.125,
        "duration": 0.156,
        "velocity": 0.63,
        "hand": "left"
      },
      {
        "midi": 40,
        "time": 103.125,
        "duration": 0.156,
        "velocity": 0.63,
        "hand": "left"
      },
      {
        "midi": 47,
        "time": 103.281,
        "duration": 0.156,
        "velocity": 0.63,
        "hand": "left"
      },
      {
        "midi": 52,
        "time": 103.438,
        "duration": 0.156,
        "velocity": 0.63,
        "hand": "left"
      },
      {
        "midi": 56,
        "time": 103.594,
        "duration": 0.156,
        "velocity": 0.63,
        "hand": "left"
      },
      {
        "midi": 52,
        "time": 103.75,
        "duration": 0.156,
        "velocity": 0.63,
        "hand": "left"
      },
      {
        "midi": 66,
        "time": 103.75,
        "duration": 0.313,
        "velocity": 0.63,
        "hand": "right"
      },
      {
        "midi": 47,
        "time": 103.906,
        "duration": 0.156,
        "velocity": 0.63,
        "hand": "left"
      },
      {
        "midi": 28,
        "time": 104.063,
        "duration": 0.156,
        "velocity": 0.63,
        "hand": "left"
      },
      {
        "midi": 40,
        "time": 104.063,
        "duration": 0.156,
        "velocity": 0.63,
        "hand": "left"
      },
      {
        "midi": 64,
        "time": 104.063,
        "duration": 0.313,
        "velocity": 0.63,
        "hand": "right"
      },
      {
        "midi": 47,
        "time": 104.219,
        "duration": 0.156,
        "velocity": 0.63,
        "hand": "left"
      },
      {
        "midi": 52,
        "time": 104.375,
        "duration": 0.156,
        "velocity": 0.63,
        "hand": "left"
      },
      {
        "midi": 68,
        "time": 104.375,
        "duration": 0.313,
        "velocity": 0.63,
        "hand": "right"
      },
      {
        "midi": 56,
        "time": 104.531,
        "duration": 0.156,
        "velocity": 0.63,
        "hand": "left"
      },
      {
        "midi": 52,
        "time": 104.688,
        "duration": 0.156,
        "velocity": 0.63,
        "hand": "left"
      },
      {
        "midi": 71,
        "time": 104.688,
        "duration": 0.313,
        "velocity": 0.63,
        "hand": "right"
      },
      {
        "midi": 47,
        "time": 104.844,
        "duration": 0.156,
        "velocity": 0.63,
        "hand": "left"
      },
      {
        "midi": 33,
        "time": 105,
        "duration": 0.156,
        "velocity": 0.63,
        "hand": "left"
      },
      {
        "midi": 64,
        "time": 105,
        "duration": 1.25,
        "velocity": 0.63,
        "hand": "right"
      },
      {
        "midi": 69,
        "time": 105,
        "duration": 1.25,
        "velocity": 0.63,
        "hand": "right"
      },
      {
        "midi": 52,
        "time": 105.156,
        "duration": 0.156,
        "velocity": 0.63,
        "hand": "left"
      },
      {
        "midi": 73,
        "time": 105.156,
        "duration": 1.094,
        "velocity": 0.63,
        "hand": "right"
      },
      {
        "midi": 57,
        "time": 105.313,
        "duration": 0.156,
        "velocity": 0.63,
        "hand": "left"
      },
      {
        "midi": 61,
        "time": 105.469,
        "duration": 0.156,
        "velocity": 0.63,
        "hand": "right"
      },
      {
        "midi": 57,
        "time": 105.625,
        "duration": 0.156,
        "velocity": 0.63,
        "hand": "left"
      },
      {
        "midi": 52,
        "time": 105.781,
        "duration": 0.156,
        "velocity": 0.63,
        "hand": "left"
      },
      {
        "midi": 33,
        "time": 105.938,
        "duration": 0.156,
        "velocity": 0.63,
        "hand": "left"
      },
      {
        "midi": 45,
        "time": 105.938,
        "duration": 0.156,
        "velocity": 0.63,
        "hand": "left"
      },
      {
        "midi": 52,
        "time": 106.094,
        "duration": 0.156,
        "velocity": 0.63,
        "hand": "left"
      },
      {
        "midi": 57,
        "time": 106.25,
        "duration": 0.156,
        "velocity": 0.63,
        "hand": "left"
      },
      {
        "midi": 64,
        "time": 106.25,
        "duration": 0.313,
        "velocity": 0.63,
        "hand": "right"
      },
      {
        "midi": 73,
        "time": 106.25,
        "duration": 0.313,
        "velocity": 0.63,
        "hand": "right"
      },
      {
        "midi": 61,
        "time": 106.406,
        "duration": 0.156,
        "velocity": 0.63,
        "hand": "right"
      },
      {
        "midi": 57,
        "time": 106.563,
        "duration": 0.156,
        "velocity": 0.63,
        "hand": "left"
      },
      {
        "midi": 69,
        "time": 106.563,
        "duration": 0.313,
        "velocity": 0.63,
        "hand": "right"
      },
      {
        "midi": 75,
        "time": 106.563,
        "duration": 0.313,
        "velocity": 0.63,
        "hand": "right"
      },
      {
        "midi": 52,
        "time": 106.719,
        "duration": 0.156,
        "velocity": 0.63,
        "hand": "left"
      },
      {
        "midi": 33,
        "time": 106.875,
        "duration": 0.156,
        "velocity": 0.63,
        "hand": "left"
      },
      {
        "midi": 69,
        "time": 106.875,
        "duration": 1.25,
        "velocity": 0.63,
        "hand": "right"
      },
      {
        "midi": 76,
        "time": 106.875,
        "duration": 1.25,
        "velocity": 0.63,
        "hand": "right"
      },
      {
        "midi": 52,
        "time": 107.031,
        "duration": 0.156,
        "velocity": 0.63,
        "hand": "left"
      },
      {
        "midi": 57,
        "time": 107.188,
        "duration": 0.156,
        "velocity": 0.63,
        "hand": "left"
      },
      {
        "midi": 61,
        "time": 107.344,
        "duration": 0.156,
        "velocity": 0.63,
        "hand": "right"
      },
      {
        "midi": 57,
        "time": 107.5,
        "duration": 0.156,
        "velocity": 0.63,
        "hand": "left"
      },
      {
        "midi": 52,
        "time": 107.656,
        "duration": 0.156,
        "velocity": 0.63,
        "hand": "left"
      },
      {
        "midi": 33,
        "time": 107.813,
        "duration": 0.156,
        "velocity": 0.63,
        "hand": "left"
      },
      {
        "midi": 45,
        "time": 107.813,
        "duration": 0.156,
        "velocity": 0.63,
        "hand": "left"
      },
      {
        "midi": 52,
        "time": 107.969,
        "duration": 0.156,
        "velocity": 0.63,
        "hand": "left"
      },
      {
        "midi": 57,
        "time": 108.125,
        "duration": 0.156,
        "velocity": 0.63,
        "hand": "left"
      },
      {
        "midi": 69,
        "time": 108.125,
        "duration": 0.313,
        "velocity": 0.63,
        "hand": "right"
      },
      {
        "midi": 76,
        "time": 108.125,
        "duration": 0.313,
        "velocity": 0.63,
        "hand": "right"
      },
      {
        "midi": 61,
        "time": 108.281,
        "duration": 0.156,
        "velocity": 0.63,
        "hand": "right"
      },
      {
        "midi": 57,
        "time": 108.438,
        "duration": 0.156,
        "velocity": 0.63,
        "hand": "left"
      },
      {
        "midi": 68,
        "time": 108.438,
        "duration": 0.313,
        "velocity": 0.63,
        "hand": "right"
      },
      {
        "midi": 78,
        "time": 108.438,
        "duration": 0.313,
        "velocity": 0.63,
        "hand": "right"
      },
      {
        "midi": 52,
        "time": 108.594,
        "duration": 0.156,
        "velocity": 0.63,
        "hand": "left"
      },
      {
        "midi": 32,
        "time": 108.75,
        "duration": 0.156,
        "velocity": 0.63,
        "hand": "left"
      },
      {
        "midi": 68,
        "time": 108.75,
        "duration": 0.313,
        "velocity": 0.63,
        "hand": "right"
      },
      {
        "midi": 75,
        "time": 108.75,
        "duration": 0.313,
        "velocity": 0.63,
        "hand": "right"
      },
      {
        "midi": 51,
        "time": 108.906,
        "duration": 0.156,
        "velocity": 0.63,
        "hand": "left"
      },
      {
        "midi": 56,
        "time": 109.063,
        "duration": 0.156,
        "velocity": 0.63,
        "hand": "left"
      },
      {
        "midi": 73,
        "time": 109.063,
        "duration": 0.313,
        "velocity": 0.63,
        "hand": "right"
      },
      {
        "midi": 59,
        "time": 109.219,
        "duration": 0.156,
        "velocity": 0.63,
        "hand": "left"
      },
      {
        "midi": 56,
        "time": 109.375,
        "duration": 0.156,
        "velocity": 0.63,
        "hand": "left"
      },
      {
        "midi": 68,
        "time": 109.375,
        "duration": 0.313,
        "velocity": 0.63,
        "hand": "right"
      },
      {
        "midi": 71,
        "time": 109.375,
        "duration": 0.313,
        "velocity": 0.63,
        "hand": "right"
      },
      {
        "midi": 51,
        "time": 109.531,
        "duration": 0.156,
        "velocity": 0.63,
        "hand": "left"
      },
      {
        "midi": 32,
        "time": 109.688,
        "duration": 0.156,
        "velocity": 0.63,
        "hand": "left"
      },
      {
        "midi": 68,
        "time": 109.688,
        "duration": 0.625,
        "velocity": 0.63,
        "hand": "right"
      },
      {
        "midi": 71,
        "time": 109.688,
        "duration": 0.625,
        "velocity": 0.63,
        "hand": "right"
      },
      {
        "midi": 51,
        "time": 109.844,
        "duration": 0.156,
        "velocity": 0.63,
        "hand": "left"
      },
      {
        "midi": 56,
        "time": 110,
        "duration": 0.156,
        "velocity": 0.63,
        "hand": "left"
      },
      {
        "midi": 59,
        "time": 110.156,
        "duration": 0.156,
        "velocity": 0.63,
        "hand": "left"
      },
      {
        "midi": 56,
        "time": 110.313,
        "duration": 0.156,
        "velocity": 0.63,
        "hand": "left"
      },
      {
        "midi": 63,
        "time": 110.313,
        "duration": 0.313,
        "velocity": 0.63,
        "hand": "right"
      },
      {
        "midi": 68,
        "time": 110.313,
        "duration": 0.313,
        "velocity": 0.63,
        "hand": "right"
      },
      {
        "midi": 51,
        "time": 110.469,
        "duration": 0.156,
        "velocity": 0.63,
        "hand": "left"
      },
      {
        "midi": 32,
        "time": 110.625,
        "duration": 0.156,
        "velocity": 0.63,
        "hand": "left"
      },
      {
        "midi": 68,
        "time": 110.625,
        "duration": 0.313,
        "velocity": 0.63,
        "hand": "right"
      },
      {
        "midi": 75,
        "time": 110.625,
        "duration": 0.313,
        "velocity": 0.63,
        "hand": "right"
      },
      {
        "midi": 51,
        "time": 110.781,
        "duration": 0.156,
        "velocity": 0.63,
        "hand": "left"
      },
      {
        "midi": 56,
        "time": 110.938,
        "duration": 0.156,
        "velocity": 0.63,
        "hand": "left"
      },
      {
        "midi": 73,
        "time": 110.938,
        "duration": 0.313,
        "velocity": 0.63,
        "hand": "right"
      },
      {
        "midi": 59,
        "time": 111.094,
        "duration": 0.156,
        "velocity": 0.63,
        "hand": "left"
      },
      {
        "midi": 56,
        "time": 111.25,
        "duration": 0.156,
        "velocity": 0.63,
        "hand": "left"
      },
      {
        "midi": 68,
        "time": 111.25,
        "duration": 0.313,
        "velocity": 0.63,
        "hand": "right"
      },
      {
        "midi": 71,
        "time": 111.25,
        "duration": 0.313,
        "velocity": 0.63,
        "hand": "right"
      },
      {
        "midi": 51,
        "time": 111.406,
        "duration": 0.156,
        "velocity": 0.63,
        "hand": "left"
      },
      {
        "midi": 31,
        "time": 111.563,
        "duration": 0.156,
        "velocity": 0.63,
        "hand": "left"
      },
      {
        "midi": 63,
        "time": 111.563,
        "duration": 0.313,
        "velocity": 0.63,
        "hand": "right"
      },
      {
        "midi": 75,
        "time": 111.563,
        "duration": 0.313,
        "velocity": 0.63,
        "hand": "right"
      },
      {
        "midi": 51,
        "time": 111.719,
        "duration": 0.156,
        "velocity": 0.63,
        "hand": "left"
      },
      {
        "midi": 56,
        "time": 111.875,
        "duration": 0.156,
        "velocity": 0.63,
        "hand": "left"
      },
      {
        "midi": 73,
        "time": 111.875,
        "duration": 0.313,
        "velocity": 0.63,
        "hand": "right"
      },
      {
        "midi": 59,
        "time": 112.031,
        "duration": 0.156,
        "velocity": 0.63,
        "hand": "left"
      },
      {
        "midi": 56,
        "time": 112.188,
        "duration": 0.156,
        "velocity": 0.63,
        "hand": "left"
      },
      {
        "midi": 68,
        "time": 112.188,
        "duration": 0.313,
        "velocity": 0.63,
        "hand": "right"
      },
      {
        "midi": 71,
        "time": 112.188,
        "duration": 0.313,
        "velocity": 0.63,
        "hand": "right"
      },
      {
        "midi": 51,
        "time": 112.344,
        "duration": 0.156,
        "velocity": 0.63,
        "hand": "left"
      },
      {
        "midi": 30,
        "time": 112.5,
        "duration": 0.156,
        "velocity": 0.63,
        "hand": "left"
      },
      {
        "midi": 66,
        "time": 112.5,
        "duration": 0.156,
        "velocity": 0.63,
        "hand": "right"
      },
      {
        "midi": 71,
        "time": 112.5,
        "duration": 0.156,
        "velocity": 0.63,
        "hand": "right"
      },
      {
        "midi": 49,
        "time": 112.656,
        "duration": 0.156,
        "velocity": 0.63,
        "hand": "left"
      },
      {
        "midi": 66,
        "time": 112.656,
        "duration": 2.188,
        "velocity": 0.63,
        "hand": "right"
      },
      {
        "midi": 69,
        "time": 112.656,
        "duration": 2.188,
        "velocity": 0.63,
        "hand": "right"
      },
      {
        "midi": 54,
        "time": 112.813,
        "duration": 0.156,
        "velocity": 0.63,
        "hand": "left"
      },
      {
        "midi": 57,
        "time": 112.969,
        "duration": 0.156,
        "velocity": 0.63,
        "hand": "left"
      },
      {
        "midi": 54,
        "time": 113.125,
        "duration": 0.156,
        "velocity": 0.63,
        "hand": "left"
      },
      {
        "midi": 49,
        "time": 113.281,
        "duration": 0.156,
        "velocity": 0.63,
        "hand": "left"
      },
      {
        "midi": 30,
        "time": 113.438,
        "duration": 0.156,
        "velocity": 0.63,
        "hand": "left"
      },
      {
        "midi": 42,
        "time": 113.438,
        "duration": 0.156,
        "velocity": 0.63,
        "hand": "left"
      },
      {
        "midi": 49,
        "time": 113.594,
        "duration": 0.156,
        "velocity": 0.63,
        "hand": "left"
      },
      {
        "midi": 54,
        "time": 113.75,
        "duration": 0.156,
        "velocity": 0.63,
        "hand": "left"
      },
      {
        "midi": 57,
        "time": 113.906,
        "duration": 0.156,
        "velocity": 0.63,
        "hand": "left"
      },
      {
        "midi": 54,
        "time": 114.063,
        "duration": 0.156,
        "velocity": 0.63,
        "hand": "left"
      },
      {
        "midi": 49,
        "time": 114.219,
        "duration": 0.156,
        "velocity": 0.63,
        "hand": "left"
      },
      {
        "midi": 30,
        "time": 114.375,
        "duration": 0.156,
        "velocity": 0.63,
        "hand": "left"
      },
      {
        "midi": 42,
        "time": 114.375,
        "duration": 0.156,
        "velocity": 0.63,
        "hand": "left"
      },
      {
        "midi": 49,
        "time": 114.531,
        "duration": 0.156,
        "velocity": 0.63,
        "hand": "left"
      },
      {
        "midi": 54,
        "time": 114.688,
        "duration": 0.156,
        "velocity": 0.63,
        "hand": "left"
      },
      {
        "midi": 57,
        "time": 114.844,
        "duration": 0.156,
        "velocity": 0.63,
        "hand": "left"
      },
      {
        "midi": 54,
        "time": 115,
        "duration": 0.156,
        "velocity": 0.63,
        "hand": "left"
      },
      {
        "midi": 64,
        "time": 115,
        "duration": 0.313,
        "velocity": 0.63,
        "hand": "right"
      },
      {
        "midi": 73,
        "time": 115,
        "duration": 0.313,
        "velocity": 0.63,
        "hand": "right"
      },
      {
        "midi": 49,
        "time": 115.156,
        "duration": 0.156,
        "velocity": 0.63,
        "hand": "left"
      },
      {
        "midi": 30,
        "time": 115.313,
        "duration": 0.156,
        "velocity": 0.63,
        "hand": "left"
      },
      {
        "midi": 64,
        "time": 115.313,
        "duration": 0.313,
        "velocity": 0.63,
        "hand": "right"
      },
      {
        "midi": 71,
        "time": 115.313,
        "duration": 0.313,
        "velocity": 0.63,
        "hand": "right"
      },
      {
        "midi": 49,
        "time": 115.469,
        "duration": 0.156,
        "velocity": 0.63,
        "hand": "left"
      },
      {
        "midi": 54,
        "time": 115.625,
        "duration": 0.156,
        "velocity": 0.63,
        "hand": "left"
      },
      {
        "midi": 66,
        "time": 115.625,
        "duration": 0.313,
        "velocity": 0.63,
        "hand": "right"
      },
      {
        "midi": 69,
        "time": 115.625,
        "duration": 0.313,
        "velocity": 0.63,
        "hand": "right"
      },
      {
        "midi": 57,
        "time": 115.781,
        "duration": 0.156,
        "velocity": 0.63,
        "hand": "left"
      },
      {
        "midi": 54,
        "time": 115.938,
        "duration": 0.156,
        "velocity": 0.63,
        "hand": "left"
      },
      {
        "midi": 66,
        "time": 115.938,
        "duration": 0.313,
        "velocity": 0.63,
        "hand": "right"
      },
      {
        "midi": 68,
        "time": 115.938,
        "duration": 0.313,
        "velocity": 0.63,
        "hand": "right"
      },
      {
        "midi": 49,
        "time": 116.094,
        "duration": 0.156,
        "velocity": 0.63,
        "hand": "left"
      },
      {
        "midi": 32,
        "time": 116.25,
        "duration": 0.313,
        "velocity": 0.63,
        "hand": "left"
      },
      {
        "midi": 60,
        "time": 116.25,
        "duration": 0.938,
        "velocity": 0.63,
        "hand": "right"
      },
      {
        "midi": 68,
        "time": 116.25,
        "duration": 0.938,
        "velocity": 0.63,
        "hand": "right"
      },
      {
        "midi": 51,
        "time": 116.563,
        "duration": 0.313,
        "velocity": 0.65,
        "hand": "left"
      },
      {
        "midi": 56,
        "time": 116.563,
        "duration": 0.313,
        "velocity": 0.65,
        "hand": "left"
      },
      {
        "midi": 51,
        "time": 116.875,
        "duration": 0.313,
        "velocity": 0.67,
        "hand": "left"
      },
      {
        "midi": 56,
        "time": 116.875,
        "duration": 0.313,
        "velocity": 0.67,
        "hand": "left"
      },
      {
        "midi": 32,
        "time": 117.188,
        "duration": 0.313,
        "velocity": 0.69,
        "hand": "left"
      },
      {
        "midi": 61,
        "time": 117.188,
        "duration": 0.938,
        "velocity": 0.69,
        "hand": "right"
      },
      {
        "midi": 73,
        "time": 117.188,
        "duration": 0.938,
        "velocity": 0.69,
        "hand": "right"
      },
      {
        "midi": 51,
        "time": 117.5,
        "duration": 0.313,
        "velocity": 0.71,
        "hand": "left"
      },
      {
        "midi": 56,
        "time": 117.5,
        "duration": 0.313,
        "velocity": 0.71,
        "hand": "left"
      },
      {
        "midi": 51,
        "time": 117.813,
        "duration": 0.313,
        "velocity": 0.73,
        "hand": "left"
      },
      {
        "midi": 56,
        "time": 117.813,
        "duration": 0.313,
        "velocity": 0.73,
        "hand": "left"
      },
      {
        "midi": 51,
        "time": 118.125,
        "duration": 0.156,
        "velocity": 0.76,
        "hand": "left"
      },
      {
        "midi": 64,
        "time": 118.125,
        "duration": 0.938,
        "velocity": 0.76,
        "hand": "right"
      },
      {
        "midi": 76,
        "time": 118.125,
        "duration": 0.938,
        "velocity": 0.76,
        "hand": "right"
      },
      {
        "midi": 44,
        "time": 118.281,
        "duration": 0.156,
        "velocity": 0.76,
        "hand": "left"
      },
      {
        "midi": 51,
        "time": 118.438,
        "duration": 0.156,
        "velocity": 0.77,
        "hand": "left"
      },
      {
        "midi": 56,
        "time": 118.438,
        "duration": 0.156,
        "velocity": 0.77,
        "hand": "left"
      },
      {
        "midi": 44,
        "time": 118.594,
        "duration": 0.156,
        "velocity": 0.79,
        "hand": "left"
      },
      {
        "midi": 51,
        "time": 118.75,
        "duration": 0.156,
        "velocity": 0.8,
        "hand": "left"
      },
      {
        "midi": 56,
        "time": 118.75,
        "duration": 0.156,
        "velocity": 0.8,
        "hand": "left"
      },
      {
        "midi": 44,
        "time": 118.906,
        "duration": 0.156,
        "velocity": 0.8,
        "hand": "left"
      },
      {
        "midi": 60,
        "time": 119.063,
        "duration": 0.938,
        "velocity": 0.98,
        "hand": "right"
      },
      {
        "midi": 68,
        "time": 119.063,
        "duration": 0.938,
        "velocity": 0.98,
        "hand": "right"
      },
      {
        "midi": 78,
        "time": 119.063,
        "duration": 0.938,
        "velocity": 0.98,
        "hand": "right"
      },
      {
        "midi": 33,
        "time": 120,
        "duration": 0.313,
        "velocity": 1,
        "hand": "left"
      },
      {
        "midi": 85,
        "time": 120,
        "duration": 0.469,
        "velocity": 1,
        "hand": "right"
      },
      {
        "midi": 92,
        "time": 120,
        "duration": 1.719,
        "velocity": 1,
        "hand": "right"
      },
      {
        "midi": 80,
        "time": 120.156,
        "duration": 0.625,
        "velocity": 0.88,
        "hand": "right"
      },
      {
        "midi": 83,
        "time": 120.313,
        "duration": 0.156,
        "velocity": 0.88,
        "hand": "right"
      },
      {
        "midi": 85,
        "time": 120.469,
        "duration": 0.938,
        "velocity": 0.88,
        "hand": "right"
      },
      {
        "midi": 83,
        "time": 120.625,
        "duration": 0.156,
        "velocity": 0.88,
        "hand": "right"
      },
      {
        "midi": 80,
        "time": 120.781,
        "duration": 0.313,
        "velocity": 0.88,
        "hand": "right"
      },
      {
        "midi": 56,
        "time": 120.938,
        "duration": 0.938,
        "velocity": 0.88,
        "hand": "left"
      },
      {
        "midi": 64,
        "time": 120.938,
        "duration": 0.938,
        "velocity": 0.88,
        "hand": "right"
      },
      {
        "midi": 78,
        "time": 120.938,
        "duration": 0.156,
        "velocity": 0.88,
        "hand": "right"
      },
      {
        "midi": 80,
        "time": 121.094,
        "duration": 0.625,
        "velocity": 0.88,
        "hand": "right"
      },
      {
        "midi": 83,
        "time": 121.25,
        "duration": 0.156,
        "velocity": 0.88,
        "hand": "right"
      },
      {
        "midi": 85,
        "time": 121.406,
        "duration": 0.313,
        "velocity": 0.88,
        "hand": "right"
      },
      {
        "midi": 83,
        "time": 121.563,
        "duration": 0.156,
        "velocity": 0.88,
        "hand": "right"
      },
      {
        "midi": 80,
        "time": 121.719,
        "duration": 0.156,
        "velocity": 0.88,
        "hand": "right"
      },
      {
        "midi": 73,
        "time": 121.875,
        "duration": 0.313,
        "velocity": 0.88,
        "hand": "right"
      },
      {
        "midi": 76,
        "time": 121.875,
        "duration": 0.313,
        "velocity": 0.88,
        "hand": "right"
      },
      {
        "midi": 78,
        "time": 121.875,
        "duration": 0.156,
        "velocity": 0.88,
        "hand": "right"
      },
      {
        "midi": 80,
        "time": 122.031,
        "duration": 0.156,
        "velocity": 0.88,
        "hand": "right"
      },
      {
        "midi": 68,
        "time": 122.188,
        "duration": 0.313,
        "velocity": 0.88,
        "hand": "right"
      },
      {
        "midi": 73,
        "time": 122.188,
        "duration": 0.313,
        "velocity": 0.88,
        "hand": "right"
      },
      {
        "midi": 83,
        "time": 122.188,
        "duration": 0.156,
        "velocity": 0.88,
        "hand": "right"
      },
      {
        "midi": 85,
        "time": 122.344,
        "duration": 0.156,
        "velocity": 0.88,
        "hand": "right"
      },
      {
        "midi": 73,
        "time": 122.5,
        "duration": 0.313,
        "velocity": 0.88,
        "hand": "right"
      },
      {
        "midi": 76,
        "time": 122.5,
        "duration": 0.313,
        "velocity": 0.88,
        "hand": "right"
      },
      {
        "midi": 83,
        "time": 122.5,
        "duration": 0.156,
        "velocity": 0.88,
        "hand": "right"
      },
      {
        "midi": 80,
        "time": 122.656,
        "duration": 0.156,
        "velocity": 0.88,
        "hand": "right"
      },
      {
        "midi": 64,
        "time": 122.813,
        "duration": 0.313,
        "velocity": 0.88,
        "hand": "right"
      },
      {
        "midi": 68,
        "time": 122.813,
        "duration": 0.313,
        "velocity": 0.88,
        "hand": "right"
      },
      {
        "midi": 78,
        "time": 122.813,
        "duration": 0.156,
        "velocity": 0.88,
        "hand": "right"
      },
      {
        "midi": 80,
        "time": 122.969,
        "duration": 0.156,
        "velocity": 0.88,
        "hand": "right"
      },
      {
        "midi": 61,
        "time": 123.125,
        "duration": 0.313,
        "velocity": 0.88,
        "hand": "right"
      },
      {
        "midi": 64,
        "time": 123.125,
        "duration": 0.313,
        "velocity": 0.88,
        "hand": "right"
      },
      {
        "midi": 83,
        "time": 123.125,
        "duration": 0.156,
        "velocity": 0.88,
        "hand": "right"
      },
      {
        "midi": 85,
        "time": 123.281,
        "duration": 0.156,
        "velocity": 0.88,
        "hand": "right"
      },
      {
        "midi": 64,
        "time": 123.438,
        "duration": 0.313,
        "velocity": 0.88,
        "hand": "right"
      },
      {
        "midi": 68,
        "time": 123.438,
        "duration": 0.313,
        "velocity": 0.88,
        "hand": "right"
      },
      {
        "midi": 83,
        "time": 123.438,
        "duration": 0.156,
        "velocity": 0.88,
        "hand": "right"
      },
      {
        "midi": 80,
        "time": 123.594,
        "duration": 0.156,
        "velocity": 0.88,
        "hand": "right"
      },
      {
        "midi": 33,
        "time": 123.75,
        "duration": 0.469,
        "velocity": 1,
        "hand": "left"
      },
      {
        "midi": 76,
        "time": 123.75,
        "duration": 0.938,
        "velocity": 0.88,
        "hand": "right"
      },
      {
        "midi": 85,
        "time": 123.75,
        "duration": 0.938,
        "velocity": 0.88,
        "hand": "right"
      },
      {
        "midi": 52,
        "time": 124.219,
        "duration": 0.313,
        "velocity": 0.88,
        "hand": "left"
      },
      {
        "midi": 56,
        "time": 124.219,
        "duration": 0.313,
        "velocity": 0.88,
        "hand": "left"
      },
      {
        "midi": 52,
        "time": 124.531,
        "duration": 0.156,
        "velocity": 0.88,
        "hand": "left"
      },
      {
        "midi": 56,
        "time": 124.531,
        "duration": 0.156,
        "velocity": 0.88,
        "hand": "left"
      },
      {
        "midi": 37,
        "time": 124.688,
        "duration": 0.313,
        "velocity": 1,
        "hand": "left"
      },
      {
        "midi": 75,
        "time": 124.688,
        "duration": 0.938,
        "velocity": 0.88,
        "hand": "right"
      },
      {
        "midi": 87,
        "time": 124.688,
        "duration": 0.938,
        "velocity": 0.88,
        "hand": "right"
      },
      {
        "midi": 52,
        "time": 125,
        "duration": 0.313,
        "velocity": 0.88,
        "hand": "left"
      },
      {
        "midi": 56,
        "time": 125,
        "duration": 0.313,
        "velocity": 0.88,
        "hand": "left"
      },
      {
        "midi": 52,
        "time": 125.313,
        "duration": 0.313,
        "velocity": 0.88,
        "hand": "left"
      },
      {
        "midi": 56,
        "time": 125.313,
        "duration": 0.313,
        "velocity": 0.88,
        "hand": "left"
      },
      {
        "midi": 33,
        "time": 125.625,
        "duration": 0.156,
        "velocity": 1,
        "hand": "left"
      },
      {
        "midi": 45,
        "time": 125.625,
        "duration": 0.156,
        "velocity": 1,
        "hand": "left"
      },
      {
        "midi": 45,
        "time": 125.781,
        "duration": 0.156,
        "velocity": 0.88,
        "hand": "left"
      },
      {
        "midi": 52,
        "time": 125.938,
        "duration": 0.156,
        "velocity": 0.88,
        "hand": "left"
      },
      {
        "midi": 57,
        "time": 125.938,
        "duration": 0.156,
        "velocity": 0.88,
        "hand": "left"
      },
      {
        "midi": 48,
        "time": 126.094,
        "duration": 0.156,
        "velocity": 0.88,
        "hand": "left"
      },
      {
        "midi": 52,
        "time": 126.25,
        "duration": 0.156,
        "velocity": 0.88,
        "hand": "left"
      },
      {
        "midi": 57,
        "time": 126.25,
        "duration": 0.156,
        "velocity": 0.88,
        "hand": "left"
      },
      {
        "midi": 48,
        "time": 126.406,
        "duration": 0.156,
        "velocity": 0.88,
        "hand": "left"
      },
      {
        "midi": 42,
        "time": 126.563,
        "duration": 0.156,
        "velocity": 1,
        "hand": "left"
      },
      {
        "midi": 54,
        "time": 126.563,
        "duration": 0.156,
        "velocity": 1,
        "hand": "left"
      },
      {
        "midi": 57,
        "time": 126.719,
        "duration": 0.156,
        "velocity": 0.88,
        "hand": "left"
      },
      {
        "midi": 60,
        "time": 126.875,
        "duration": 0.156,
        "velocity": 0.88,
        "hand": "right"
      },
      {
        "midi": 57,
        "time": 127.031,
        "duration": 0.156,
        "velocity": 0.88,
        "hand": "left"
      },
      {
        "midi": 54,
        "time": 127.188,
        "duration": 0.156,
        "velocity": 0.88,
        "hand": "left"
      },
      {
        "midi": 48,
        "time": 127.344,
        "duration": 0.156,
        "velocity": 0.88,
        "hand": "left"
      },
      {
        "midi": 28,
        "time": 127.5,
        "duration": 0.313,
        "velocity": 1,
        "hand": "left"
      },
      {
        "midi": 87,
        "time": 127.5,
        "duration": 1.719,
        "velocity": 1,
        "hand": "right"
      },
      {
        "midi": 92,
        "time": 127.5,
        "duration": 1.719,
        "velocity": 1,
        "hand": "right"
      },
      {
        "midi": 76,
        "time": 127.656,
        "duration": 0.156,
        "velocity": 0.88,
        "hand": "right"
      },
      {
        "midi": 78,
        "time": 127.813,
        "duration": 0.156,
        "velocity": 0.88,
        "hand": "right"
      },
      {
        "midi": 80,
        "time": 127.969,
        "duration": 0.938,
        "velocity": 0.88,
        "hand": "right"
      },
      {
        "midi": 40,
        "time": 128.125,
        "duration": 0.313,
        "velocity": 0.88,
        "hand": "left"
      },
      {
        "midi": 52,
        "time": 128.125,
        "duration": 0.313,
        "velocity": 0.88,
        "hand": "left"
      },
      {
        "midi": 78,
        "time": 128.125,
        "duration": 0.156,
        "velocity": 0.88,
        "hand": "right"
      },
      {
        "midi": 76,
        "time": 128.281,
        "duration": 0.156,
        "velocity": 0.88,
        "hand": "right"
      },
      {
        "midi": 56,
        "time": 128.438,
        "duration": 0.938,
        "velocity": 0.88,
        "hand": "left"
      },
      {
        "midi": 63,
        "time": 128.438,
        "duration": 0.938,
        "velocity": 0.88,
        "hand": "right"
      },
      {
        "midi": 75,
        "time": 128.438,
        "duration": 0.156,
        "velocity": 0.88,
        "hand": "right"
      },
      {
        "midi": 76,
        "time": 128.594,
        "duration": 0.156,
        "velocity": 0.88,
        "hand": "right"
      },
      {
        "midi": 78,
        "time": 128.75,
        "duration": 0.156,
        "velocity": 0.88,
        "hand": "right"
      },
      {
        "midi": 80,
        "time": 128.906,
        "duration": 0.313,
        "velocity": 0.88,
        "hand": "right"
      },
      {
        "midi": 78,
        "time": 129.063,
        "duration": 0.156,
        "velocity": 0.88,
        "hand": "right"
      },
      {
        "midi": 76,
        "time": 129.219,
        "duration": 0.156,
        "velocity": 0.88,
        "hand": "right"
      },
      {
        "midi": 71,
        "time": 129.375,
        "duration": 0.313,
        "velocity": 0.88,
        "hand": "right"
      },
      {
        "midi": 75,
        "time": 129.375,
        "duration": 0.156,
        "velocity": 0.88,
        "hand": "right"
      },
      {
        "midi": 76,
        "time": 129.531,
        "duration": 0.156,
        "velocity": 0.88,
        "hand": "right"
      },
      {
        "midi": 68,
        "time": 129.688,
        "duration": 0.313,
        "velocity": 0.88,
        "hand": "right"
      },
      {
        "midi": 71,
        "time": 129.688,
        "duration": 0.313,
        "velocity": 0.88,
        "hand": "right"
      },
      {
        "midi": 78,
        "time": 129.688,
        "duration": 0.156,
        "velocity": 0.88,
        "hand": "right"
      },
      {
        "midi": 80,
        "time": 129.844,
        "duration": 0.156,
        "velocity": 0.88,
        "hand": "right"
      },
      {
        "midi": 71,
        "time": 130,
        "duration": 0.313,
        "velocity": 0.88,
        "hand": "right"
      },
      {
        "midi": 78,
        "time": 130,
        "duration": 0.156,
        "velocity": 0.88,
        "hand": "right"
      },
      {
        "midi": 76,
        "time": 130.156,
        "duration": 0.156,
        "velocity": 0.88,
        "hand": "right"
      },
      {
        "midi": 63,
        "time": 130.313,
        "duration": 0.313,
        "velocity": 0.88,
        "hand": "right"
      },
      {
        "midi": 68,
        "time": 130.313,
        "duration": 0.313,
        "velocity": 0.88,
        "hand": "right"
      },
      {
        "midi": 75,
        "time": 130.313,
        "duration": 0.156,
        "velocity": 0.88,
        "hand": "right"
      },
      {
        "midi": 76,
        "time": 130.469,
        "duration": 0.156,
        "velocity": 0.88,
        "hand": "right"
      },
      {
        "midi": 59,
        "time": 130.625,
        "duration": 0.313,
        "velocity": 0.88,
        "hand": "left"
      },
      {
        "midi": 63,
        "time": 130.625,
        "duration": 0.313,
        "velocity": 0.88,
        "hand": "right"
      },
      {
        "midi": 78,
        "time": 130.625,
        "duration": 0.156,
        "velocity": 0.88,
        "hand": "right"
      },
      {
        "midi": 80,
        "time": 130.781,
        "duration": 0.156,
        "velocity": 0.88,
        "hand": "right"
      },
      {
        "midi": 63,
        "time": 130.938,
        "duration": 0.313,
        "velocity": 0.88,
        "hand": "right"
      },
      {
        "midi": 68,
        "time": 130.938,
        "duration": 0.313,
        "velocity": 0.88,
        "hand": "right"
      },
      {
        "midi": 78,
        "time": 130.938,
        "duration": 0.156,
        "velocity": 0.88,
        "hand": "right"
      },
      {
        "midi": 76,
        "time": 131.094,
        "duration": 0.156,
        "velocity": 0.88,
        "hand": "right"
      },
      {
        "midi": 28,
        "time": 131.25,
        "duration": 0.313,
        "velocity": 1,
        "hand": "left"
      },
      {
        "midi": 40,
        "time": 131.25,
        "duration": 0.313,
        "velocity": 1,
        "hand": "left"
      },
      {
        "midi": 75,
        "time": 131.25,
        "duration": 0.156,
        "velocity": 0.88,
        "hand": "right"
      },
      {
        "midi": 76,
        "time": 131.406,
        "duration": 0.156,
        "velocity": 0.88,
        "hand": "right"
      },
      {
        "midi": 78,
        "time": 131.563,
        "duration": 0.156,
        "velocity": 0.88,
        "hand": "right"
      },
      {
        "midi": 80,
        "time": 131.719,
        "duration": 0.156,
        "velocity": 0.88,
        "hand": "right"
      },
      {
        "midi": 40,
        "time": 131.875,
        "duration": 0.313,
        "velocity": 0.88,
        "hand": "left"
      },
      {
        "midi": 52,
        "time": 131.875,
        "duration": 0.313,
        "velocity": 0.88,
        "hand": "left"
      },
      {
        "midi": 78,
        "time": 131.875,
        "duration": 0.156,
        "velocity": 0.88,
        "hand": "right"
      },
      {
        "midi": 76,
        "time": 132.031,
        "duration": 0.156,
        "velocity": 0.88,
        "hand": "right"
      },
      {
        "midi": 56,
        "time": 132.188,
        "duration": 0.938,
        "velocity": 0.88,
        "hand": "left"
      },
      {
        "midi": 63,
        "time": 132.188,
        "duration": 0.938,
        "velocity": 0.88,
        "hand": "right"
      },
      {
        "midi": 87,
        "time": 132.188,
        "duration": 0.938,
        "velocity": 1,
        "hand": "right"
      },
      {
        "midi": 76,
        "time": 132.344,
        "duration": 0.156,
        "velocity": 0.88,
        "hand": "right"
      },
      {
        "midi": 78,
        "time": 132.5,
        "duration": 0.156,
        "velocity": 0.88,
        "hand": "right"
      },
      {
        "midi": 80,
        "time": 132.656,
        "duration": 0.156,
        "velocity": 0.88,
        "hand": "right"
      },
      {
        "midi": 78,
        "time": 132.813,
        "duration": 0.156,
        "velocity": 0.88,
        "hand": "right"
      },
      {
        "midi": 76,
        "time": 132.969,
        "duration": 0.156,
        "velocity": 0.88,
        "hand": "right"
      },
      {
        "midi": 30,
        "time": 133.125,
        "duration": 0.313,
        "velocity": 1,
        "hand": "left"
      },
      {
        "midi": 42,
        "time": 133.125,
        "duration": 0.313,
        "velocity": 1,
        "hand": "left"
      },
      {
        "midi": 88,
        "time": 133.125,
        "duration": 0.938,
        "velocity": 1,
        "hand": "right"
      },
      {
        "midi": 76,
        "time": 133.281,
        "duration": 0.156,
        "velocity": 0.88,
        "hand": "right"
      },
      {
        "midi": 42,
        "time": 133.438,
        "duration": 0.313,
        "velocity": 0.88,
        "hand": "left"
      },
      {
        "midi": 54,
        "time": 133.438,
        "duration": 0.313,
        "velocity": 0.88,
        "hand": "left"
      },
      {
        "midi": 78,
        "time": 133.438,
        "duration": 0.156,
        "velocity": 0.88,
        "hand": "right"
      },
      {
        "midi": 80,
        "time": 133.594,
        "duration": 0.156,
        "velocity": 0.88,
        "hand": "right"
      },
      {
        "midi": 31,
        "time": 133.75,
        "duration": 0.313,
        "velocity": 0.88,
        "hand": "left"
      },
      {
        "midi": 43,
        "time": 133.75,
        "duration": 0.313,
        "velocity": 0.88,
        "hand": "left"
      },
      {
        "midi": 78,
        "time": 133.75,
        "duration": 0.156,
        "velocity": 0.88,
        "hand": "right"
      },
      {
        "midi": 76,
        "time": 133.906,
        "duration": 0.156,
        "velocity": 0.88,
        "hand": "right"
      },
      {
        "midi": 32,
        "time": 134.063,
        "duration": 0.313,
        "velocity": 1,
        "hand": "left"
      },
      {
        "midi": 44,
        "time": 134.063,
        "duration": 0.313,
        "velocity": 1,
        "hand": "left"
      },
      {
        "midi": 90,
        "time": 134.063,
        "duration": 0.938,
        "velocity": 1,
        "hand": "right"
      },
      {
        "midi": 76,
        "time": 134.219,
        "duration": 0.156,
        "velocity": 0.88,
        "hand": "right"
      },
      {
        "midi": 44,
        "time": 134.375,
        "duration": 0.313,
        "velocity": 0.88,
        "hand": "left"
      },
      {
        "midi": 56,
        "time": 134.375,
        "duration": 0.313,
        "velocity": 0.88,
        "hand": "left"
      },
      {
        "midi": 78,
        "time": 134.375,
        "duration": 0.156,
        "velocity": 0.88,
        "hand": "right"
      },
      {
        "midi": 80,
        "time": 134.531,
        "duration": 0.156,
        "velocity": 0.88,
        "hand": "right"
      },
      {
        "midi": 32,
        "time": 134.688,
        "duration": 0.313,
        "velocity": 0.88,
        "hand": "left"
      },
      {
        "midi": 44,
        "time": 134.688,
        "duration": 0.313,
        "velocity": 0.88,
        "hand": "left"
      },
      {
        "midi": 78,
        "time": 134.688,
        "duration": 0.156,
        "velocity": 0.88,
        "hand": "right"
      },
      {
        "midi": 76,
        "time": 134.844,
        "duration": 0.156,
        "velocity": 0.88,
        "hand": "right"
      },
      {
        "midi": 33,
        "time": 135,
        "duration": 0.313,
        "velocity": 1,
        "hand": "left"
      },
      {
        "midi": 85,
        "time": 135,
        "duration": 0.469,
        "velocity": 1,
        "hand": "right"
      },
      {
        "midi": 92,
        "time": 135,
        "duration": 1.719,
        "velocity": 1,
        "hand": "right"
      },
      {
        "midi": 80,
        "time": 135.156,
        "duration": 0.625,
        "velocity": 0.88,
        "hand": "right"
      },
      {
        "midi": 83,
        "time": 135.313,
        "duration": 0.156,
        "velocity": 0.88,
        "hand": "right"
      },
      {
        "midi": 85,
        "time": 135.469,
        "duration": 0.938,
        "velocity": 0.88,
        "hand": "right"
      },
      {
        "midi": 45,
        "time": 135.625,
        "duration": 0.313,
        "velocity": 0.88,
        "hand": "left"
      },
      {
        "midi": 57,
        "time": 135.625,
        "duration": 0.313,
        "velocity": 0.88,
        "hand": "left"
      },
      {
        "midi": 83,
        "time": 135.625,
        "duration": 0.156,
        "velocity": 0.88,
        "hand": "right"
      },
      {
        "midi": 80,
        "time": 135.781,
        "duration": 0.313,
        "velocity": 0.88,
        "hand": "right"
      },
      {
        "midi": 56,
        "time": 135.938,
        "duration": 0.938,
        "velocity": 0.88,
        "hand": "left"
      },
      {
        "midi": 64,
        "time": 135.938,
        "duration": 0.938,
        "velocity": 0.88,
        "hand": "right"
      },
      {
        "midi": 78,
        "time": 135.938,
        "duration": 0.156,
        "velocity": 0.88,
        "hand": "right"
      },
      {
        "midi": 80,
        "time": 136.094,
        "duration": 0.625,
        "velocity": 0.88,
        "hand": "right"
      },
      {
        "midi": 83,
        "time": 136.25,
        "duration": 0.156,
        "velocity": 0.88,
        "hand": "right"
      },
      {
        "midi": 85,
        "time": 136.406,
        "duration": 0.313,
        "velocity": 0.88,
        "hand": "right"
      },
      {
        "midi": 83,
        "time": 136.563,
        "duration": 0.156,
        "velocity": 0.88,
        "hand": "right"
      },
      {
        "midi": 80,
        "time": 136.719,
        "duration": 0.156,
        "velocity": 0.88,
        "hand": "right"
      },
      {
        "midi": 73,
        "time": 136.875,
        "duration": 0.313,
        "velocity": 0.88,
        "hand": "right"
      },
      {
        "midi": 76,
        "time": 136.875,
        "duration": 0.313,
        "velocity": 0.88,
        "hand": "right"
      },
      {
        "midi": 78,
        "time": 136.875,
        "duration": 0.156,
        "velocity": 0.88,
        "hand": "right"
      },
      {
        "midi": 80,
        "time": 137.031,
        "duration": 0.156,
        "velocity": 0.88,
        "hand": "right"
      },
      {
        "midi": 68,
        "time": 137.188,
        "duration": 0.313,
        "velocity": 0.88,
        "hand": "right"
      },
      {
        "midi": 73,
        "time": 137.188,
        "duration": 0.313,
        "velocity": 0.88,
        "hand": "right"
      },
      {
        "midi": 83,
        "time": 137.188,
        "duration": 0.156,
        "velocity": 0.88,
        "hand": "right"
      },
      {
        "midi": 85,
        "time": 137.344,
        "duration": 0.156,
        "velocity": 0.88,
        "hand": "right"
      },
      {
        "midi": 73,
        "time": 137.5,
        "duration": 0.313,
        "velocity": 0.88,
        "hand": "right"
      },
      {
        "midi": 76,
        "time": 137.5,
        "duration": 0.313,
        "velocity": 0.88,
        "hand": "right"
      },
      {
        "midi": 83,
        "time": 137.5,
        "duration": 0.156,
        "velocity": 0.88,
        "hand": "right"
      },
      {
        "midi": 80,
        "time": 137.656,
        "duration": 0.156,
        "velocity": 0.88,
        "hand": "right"
      },
      {
        "midi": 64,
        "time": 137.813,
        "duration": 0.313,
        "velocity": 0.88,
        "hand": "right"
      },
      {
        "midi": 68,
        "time": 137.813,
        "duration": 0.313,
        "velocity": 0.88,
        "hand": "right"
      },
      {
        "midi": 78,
        "time": 137.813,
        "duration": 0.156,
        "velocity": 0.88,
        "hand": "right"
      },
      {
        "midi": 80,
        "time": 137.969,
        "duration": 0.156,
        "velocity": 0.88,
        "hand": "right"
      },
      {
        "midi": 61,
        "time": 138.125,
        "duration": 0.313,
        "velocity": 0.88,
        "hand": "right"
      },
      {
        "midi": 64,
        "time": 138.125,
        "duration": 0.313,
        "velocity": 0.88,
        "hand": "right"
      },
      {
        "midi": 83,
        "time": 138.125,
        "duration": 0.156,
        "velocity": 0.88,
        "hand": "right"
      },
      {
        "midi": 85,
        "time": 138.281,
        "duration": 0.156,
        "velocity": 0.88,
        "hand": "right"
      },
      {
        "midi": 64,
        "time": 138.438,
        "duration": 0.313,
        "velocity": 0.88,
        "hand": "right"
      },
      {
        "midi": 68,
        "time": 138.438,
        "duration": 0.313,
        "velocity": 0.88,
        "hand": "right"
      },
      {
        "midi": 83,
        "time": 138.438,
        "duration": 0.156,
        "velocity": 0.88,
        "hand": "right"
      },
      {
        "midi": 80,
        "time": 138.594,
        "duration": 0.156,
        "velocity": 0.88,
        "hand": "right"
      },
      {
        "midi": 33,
        "time": 138.75,
        "duration": 0.313,
        "velocity": 1,
        "hand": "left"
      },
      {
        "midi": 76,
        "time": 138.75,
        "duration": 0.938,
        "velocity": 0.88,
        "hand": "right"
      },
      {
        "midi": 85,
        "time": 138.75,
        "duration": 0.938,
        "velocity": 0.88,
        "hand": "right"
      },
      {
        "midi": 45,
        "time": 139.219,
        "duration": 0.156,
        "velocity": 0.88,
        "hand": "left"
      },
      {
        "midi": 57,
        "time": 139.375,
        "duration": 0.156,
        "velocity": 0.88,
        "hand": "left"
      },
      {
        "midi": 45,
        "time": 139.531,
        "duration": 1.094,
        "velocity": 0.88,
        "hand": "left"
      },
      {
        "midi": 52,
        "time": 139.688,
        "duration": 0.938,
        "velocity": 0.88,
        "hand": "left"
      },
      {
        "midi": 75,
        "time": 139.688,
        "duration": 0.938,
        "velocity": 0.88,
        "hand": "right"
      },
      {
        "midi": 87,
        "time": 139.688,
        "duration": 0.938,
        "velocity": 0.88,
        "hand": "right"
      },
      {
        "midi": 45,
        "time": 140.625,
        "duration": 0.313,
        "velocity": 1,
        "hand": "left"
      },
      {
        "midi": 52,
        "time": 140.625,
        "duration": 0.313,
        "velocity": 1,
        "hand": "left"
      },
      {
        "midi": 60,
        "time": 140.781,
        "duration": 0.156,
        "velocity": 1,
        "hand": "right"
      },
      {
        "midi": 45,
        "time": 141.094,
        "duration": 0.156,
        "velocity": 0.88,
        "hand": "left"
      },
      {
        "midi": 52,
        "time": 141.25,
        "duration": 0.156,
        "velocity": 0.88,
        "hand": "left"
      },
      {
        "midi": 60,
        "time": 141.25,
        "duration": 0.156,
        "velocity": 0.88,
        "hand": "right"
      },
      {
        "midi": 45,
        "time": 141.406,
        "duration": 0.156,
        "velocity": 0.88,
        "hand": "left"
      },
      {
        "midi": 57,
        "time": 141.563,
        "duration": 0.313,
        "velocity": 0.88,
        "hand": "left"
      },
      {
        "midi": 64,
        "time": 141.563,
        "duration": 0.313,
        "velocity": 0.88,
        "hand": "right"
      },
      {
        "midi": 69,
        "time": 141.563,
        "duration": 0.313,
        "velocity": 0.88,
        "hand": "right"
      },
      {
        "midi": 57,
        "time": 141.875,
        "duration": 0.313,
        "velocity": 0.88,
        "hand": "left"
      },
      {
        "midi": 60,
        "time": 141.875,
        "duration": 0.313,
        "velocity": 0.88,
        "hand": "right"
      },
      {
        "midi": 64,
        "time": 141.875,
        "duration": 0.313,
        "velocity": 0.88,
        "hand": "right"
      },
      {
        "midi": 54,
        "time": 142.188,
        "duration": 0.313,
        "velocity": 0.88,
        "hand": "left"
      },
      {
        "midi": 60,
        "time": 142.188,
        "duration": 0.313,
        "velocity": 0.88,
        "hand": "right"
      },
      {
        "midi": 64,
        "time": 142.188,
        "duration": 0.313,
        "velocity": 0.88,
        "hand": "right"
      },
      {
        "midi": 28,
        "time": 142.5,
        "duration": 0.313,
        "velocity": 1,
        "hand": "left"
      },
      {
        "midi": 87,
        "time": 142.5,
        "duration": 1.719,
        "velocity": 1,
        "hand": "right"
      },
      {
        "midi": 92,
        "time": 142.5,
        "duration": 1.719,
        "velocity": 1,
        "hand": "right"
      },
      {
        "midi": 76,
        "time": 142.656,
        "duration": 0.156,
        "velocity": 0.88,
        "hand": "right"
      },
      {
        "midi": 78,
        "time": 142.813,
        "duration": 0.156,
        "velocity": 0.88,
        "hand": "right"
      },
      {
        "midi": 80,
        "time": 142.969,
        "duration": 0.938,
        "velocity": 0.88,
        "hand": "right"
      },
      {
        "midi": 40,
        "time": 143.125,
        "duration": 0.313,
        "velocity": 0.88,
        "hand": "left"
      },
      {
        "midi": 52,
        "time": 143.125,
        "duration": 0.313,
        "velocity": 0.88,
        "hand": "left"
      },
      {
        "midi": 78,
        "time": 143.125,
        "duration": 0.156,
        "velocity": 0.88,
        "hand": "right"
      },
      {
        "midi": 76,
        "time": 143.281,
        "duration": 0.156,
        "velocity": 0.88,
        "hand": "right"
      },
      {
        "midi": 56,
        "time": 143.438,
        "duration": 0.938,
        "velocity": 0.88,
        "hand": "left"
      },
      {
        "midi": 63,
        "time": 143.438,
        "duration": 0.938,
        "velocity": 0.88,
        "hand": "right"
      },
      {
        "midi": 75,
        "time": 143.438,
        "duration": 0.156,
        "velocity": 0.88,
        "hand": "right"
      },
      {
        "midi": 76,
        "time": 143.594,
        "duration": 0.156,
        "velocity": 0.88,
        "hand": "right"
      },
      {
        "midi": 78,
        "time": 143.75,
        "duration": 0.156,
        "velocity": 0.88,
        "hand": "right"
      },
      {
        "midi": 80,
        "time": 143.906,
        "duration": 0.313,
        "velocity": 0.88,
        "hand": "right"
      },
      {
        "midi": 78,
        "time": 144.063,
        "duration": 0.156,
        "velocity": 0.88,
        "hand": "right"
      },
      {
        "midi": 76,
        "time": 144.219,
        "duration": 0.156,
        "velocity": 0.88,
        "hand": "right"
      },
      {
        "midi": 71,
        "time": 144.375,
        "duration": 0.313,
        "velocity": 0.88,
        "hand": "right"
      },
      {
        "midi": 75,
        "time": 144.375,
        "duration": 0.156,
        "velocity": 0.88,
        "hand": "right"
      },
      {
        "midi": 76,
        "time": 144.531,
        "duration": 0.156,
        "velocity": 0.88,
        "hand": "right"
      },
      {
        "midi": 68,
        "time": 144.688,
        "duration": 0.313,
        "velocity": 0.88,
        "hand": "right"
      },
      {
        "midi": 71,
        "time": 144.688,
        "duration": 0.313,
        "velocity": 0.88,
        "hand": "right"
      },
      {
        "midi": 78,
        "time": 144.688,
        "duration": 0.156,
        "velocity": 0.88,
        "hand": "right"
      },
      {
        "midi": 80,
        "time": 144.844,
        "duration": 0.156,
        "velocity": 0.88,
        "hand": "right"
      },
      {
        "midi": 71,
        "time": 145,
        "duration": 0.313,
        "velocity": 0.88,
        "hand": "right"
      },
      {
        "midi": 78,
        "time": 145,
        "duration": 0.156,
        "velocity": 0.88,
        "hand": "right"
      },
      {
        "midi": 76,
        "time": 145.156,
        "duration": 0.156,
        "velocity": 0.88,
        "hand": "right"
      },
      {
        "midi": 63,
        "time": 145.313,
        "duration": 0.313,
        "velocity": 0.88,
        "hand": "right"
      },
      {
        "midi": 68,
        "time": 145.313,
        "duration": 0.313,
        "velocity": 0.88,
        "hand": "right"
      },
      {
        "midi": 75,
        "time": 145.313,
        "duration": 0.156,
        "velocity": 0.88,
        "hand": "right"
      },
      {
        "midi": 76,
        "time": 145.469,
        "duration": 0.156,
        "velocity": 0.88,
        "hand": "right"
      },
      {
        "midi": 59,
        "time": 145.625,
        "duration": 0.313,
        "velocity": 0.88,
        "hand": "left"
      },
      {
        "midi": 63,
        "time": 145.625,
        "duration": 0.313,
        "velocity": 0.88,
        "hand": "right"
      },
      {
        "midi": 78,
        "time": 145.625,
        "duration": 0.156,
        "velocity": 0.88,
        "hand": "right"
      },
      {
        "midi": 80,
        "time": 145.781,
        "duration": 0.156,
        "velocity": 0.88,
        "hand": "right"
      },
      {
        "midi": 63,
        "time": 145.938,
        "duration": 0.313,
        "velocity": 0.88,
        "hand": "right"
      },
      {
        "midi": 68,
        "time": 145.938,
        "duration": 0.313,
        "velocity": 0.88,
        "hand": "right"
      },
      {
        "midi": 78,
        "time": 145.938,
        "duration": 0.156,
        "velocity": 0.88,
        "hand": "right"
      },
      {
        "midi": 76,
        "time": 146.094,
        "duration": 0.156,
        "velocity": 0.88,
        "hand": "right"
      },
      {
        "midi": 28,
        "time": 146.25,
        "duration": 0.313,
        "velocity": 1,
        "hand": "left"
      },
      {
        "midi": 40,
        "time": 146.25,
        "duration": 0.313,
        "velocity": 1,
        "hand": "left"
      },
      {
        "midi": 75,
        "time": 146.25,
        "duration": 0.156,
        "velocity": 0.88,
        "hand": "right"
      },
      {
        "midi": 76,
        "time": 146.406,
        "duration": 0.156,
        "velocity": 0.87,
        "hand": "right"
      },
      {
        "midi": 28,
        "time": 146.563,
        "duration": 0.313,
        "velocity": 0.84,
        "hand": "left"
      },
      {
        "midi": 40,
        "time": 146.563,
        "duration": 0.313,
        "velocity": 0.84,
        "hand": "left"
      },
      {
        "midi": 78,
        "time": 146.563,
        "duration": 0.156,
        "velocity": 0.84,
        "hand": "right"
      },
      {
        "midi": 80,
        "time": 146.719,
        "duration": 0.156,
        "velocity": 0.83,
        "hand": "right"
      },
      {
        "midi": 40,
        "time": 146.875,
        "duration": 0.313,
        "velocity": 0.8,
        "hand": "left"
      },
      {
        "midi": 52,
        "time": 146.875,
        "duration": 0.313,
        "velocity": 0.8,
        "hand": "left"
      },
      {
        "midi": 78,
        "time": 146.875,
        "duration": 0.156,
        "velocity": 0.8,
        "hand": "right"
      },
      {
        "midi": 76,
        "time": 147.031,
        "duration": 0.156,
        "velocity": 0.78,
        "hand": "right"
      },
      {
        "midi": 56,
        "time": 147.188,
        "duration": 0.938,
        "velocity": 0.76,
        "hand": "left"
      },
      {
        "midi": 63,
        "time": 147.188,
        "duration": 0.938,
        "velocity": 0.76,
        "hand": "right"
      },
      {
        "midi": 75,
        "time": 147.188,
        "duration": 0.156,
        "velocity": 0.76,
        "hand": "right"
      },
      {
        "midi": 76,
        "time": 147.344,
        "duration": 0.156,
        "velocity": 0.74,
        "hand": "right"
      },
      {
        "midi": 78,
        "time": 147.5,
        "duration": 0.156,
        "velocity": 0.72,
        "hand": "right"
      },
      {
        "midi": 80,
        "time": 147.656,
        "duration": 0.156,
        "velocity": 0.7,
        "hand": "right"
      },
      {
        "midi": 78,
        "time": 147.813,
        "duration": 0.156,
        "velocity": 0.68,
        "hand": "right"
      },
      {
        "midi": 76,
        "time": 147.969,
        "duration": 0.156,
        "velocity": 0.66,
        "hand": "right"
      },
      {
        "midi": 30,
        "time": 148.125,
        "duration": 0.469,
        "velocity": 0.76,
        "hand": "left"
      },
      {
        "midi": 42,
        "time": 148.125,
        "duration": 0.469,
        "velocity": 0.76,
        "hand": "left"
      },
      {
        "midi": 88,
        "time": 148.125,
        "duration": 0.938,
        "velocity": 0.76,
        "hand": "right"
      },
      {
        "midi": 76,
        "time": 148.281,
        "duration": 0.156,
        "velocity": 0.61,
        "hand": "right"
      },
      {
        "midi": 78,
        "time": 148.438,
        "duration": 0.156,
        "velocity": 0.6,
        "hand": "right"
      },
      {
        "midi": 42,
        "time": 148.594,
        "duration": 0.469,
        "velocity": 0.57,
        "hand": "left"
      },
      {
        "midi": 49,
        "time": 148.594,
        "duration": 0.469,
        "velocity": 0.57,
        "hand": "left"
      },
      {
        "midi": 80,
        "time": 148.594,
        "duration": 0.156,
        "velocity": 0.57,
        "hand": "right"
      },
      {
        "midi": 78,
        "time": 148.75,
        "duration": 0.156,
        "velocity": 0.55,
        "hand": "right"
      },
      {
        "midi": 76,
        "time": 148.906,
        "duration": 0.156,
        "velocity": 0.54,
        "hand": "right"
      },
      {
        "midi": 32,
        "time": 149.063,
        "duration": 0.469,
        "velocity": 0.61,
        "hand": "left"
      },
      {
        "midi": 44,
        "time": 149.063,
        "duration": 0.469,
        "velocity": 0.61,
        "hand": "left"
      },
      {
        "midi": 90,
        "time": 149.063,
        "duration": 0.938,
        "velocity": 0.61,
        "hand": "right"
      },
      {
        "midi": 76,
        "time": 149.219,
        "duration": 0.156,
        "velocity": 0.5,
        "hand": "right"
      },
      {
        "midi": 78,
        "time": 149.375,
        "duration": 0.156,
        "velocity": 0.47,
        "hand": "right"
      },
      {
        "midi": 44,
        "time": 149.531,
        "duration": 0.469,
        "velocity": 0.45,
        "hand": "left"
      },
      {
        "midi": 54,
        "time": 149.531,
        "duration": 0.469,
        "velocity": 0.45,
        "hand": "left"
      },
      {
        "midi": 80,
        "time": 149.531,
        "duration": 0.156,
        "velocity": 0.45,
        "hand": "right"
      },
      {
        "midi": 78,
        "time": 149.688,
        "duration": 0.156,
        "velocity": 0.43,
        "hand": "right"
      },
      {
        "midi": 76,
        "time": 149.844,
        "duration": 0.156,
        "velocity": 0.41,
        "hand": "right"
      },
      {
        "midi": 45,
        "time": 150,
        "duration": 0.156,
        "velocity": 0.39,
        "hand": "left"
      },
      {
        "midi": 85,
        "time": 150,
        "duration": 3.594,
        "velocity": 0.39,
        "hand": "right"
      },
      {
        "midi": 88,
        "time": 150,
        "duration": 3.594,
        "velocity": 0.39,
        "hand": "right"
      },
      {
        "midi": 49,
        "time": 150.156,
        "duration": 0.156,
        "velocity": 0.39,
        "hand": "left"
      },
      {
        "midi": 92,
        "time": 150.156,
        "duration": 3.594,
        "velocity": 0.39,
        "hand": "right"
      },
      {
        "midi": 52,
        "time": 150.313,
        "duration": 0.156,
        "velocity": 0.39,
        "hand": "left"
      },
      {
        "midi": 56,
        "time": 150.469,
        "duration": 0.156,
        "velocity": 0.39,
        "hand": "left"
      },
      {
        "midi": 61,
        "time": 150.625,
        "duration": 0.156,
        "velocity": 0.39,
        "hand": "right"
      },
      {
        "midi": 64,
        "time": 150.781,
        "duration": 0.156,
        "velocity": 0.39,
        "hand": "right"
      },
      {
        "midi": 57,
        "time": 150.938,
        "duration": 2.656,
        "velocity": 0.39,
        "hand": "left"
      },
      {
        "midi": 64,
        "time": 150.938,
        "duration": 2.656,
        "velocity": 0.39,
        "hand": "right"
      },
      {
        "midi": 68,
        "time": 150.938,
        "duration": 2.656,
        "velocity": 0.39,
        "hand": "right"
      },
      {
        "midi": 45,
        "time": 153.75,
        "duration": 1.719,
        "velocity": 0.39,
        "hand": "left"
      },
      {
        "midi": 73,
        "time": 153.75,
        "duration": 0.938,
        "velocity": 0.39,
        "hand": "right"
      },
      {
        "midi": 85,
        "time": 153.75,
        "duration": 0.938,
        "velocity": 0.39,
        "hand": "right"
      },
      {
        "midi": 75,
        "time": 154.688,
        "duration": 0.938,
        "velocity": 0.39,
        "hand": "right"
      },
      {
        "midi": 87,
        "time": 154.688,
        "duration": 0.938,
        "velocity": 0.39,
        "hand": "right"
      },
      {
        "midi": 52,
        "time": 155.625,
        "duration": 1.875,
        "velocity": 0.39,
        "hand": "left"
      },
      {
        "midi": 83,
        "time": 155.625,
        "duration": 0.938,
        "velocity": 0.39,
        "hand": "right"
      },
      {
        "midi": 95,
        "time": 155.625,
        "duration": 0.938,
        "velocity": 0.39,
        "hand": "right"
      },
      {
        "midi": 57,
        "time": 155.781,
        "duration": 1.719,
        "velocity": 0.39,
        "hand": "left"
      },
      {
        "midi": 60,
        "time": 155.781,
        "duration": 1.719,
        "velocity": 0.39,
        "hand": "right"
      },
      {
        "midi": 81,
        "time": 156.563,
        "duration": 0.938,
        "velocity": 0.39,
        "hand": "right"
      },
      {
        "midi": 93,
        "time": 156.563,
        "duration": 0.938,
        "velocity": 0.39,
        "hand": "right"
      },
      {
        "midi": 40,
        "time": 157.5,
        "duration": 1.719,
        "velocity": 0.39,
        "hand": "left"
      },
      {
        "midi": 80,
        "time": 157.5,
        "duration": 3.594,
        "velocity": 0.39,
        "hand": "right"
      },
      {
        "midi": 92,
        "time": 157.5,
        "duration": 3.594,
        "velocity": 0.39,
        "hand": "right"
      },
      {
        "midi": 52,
        "time": 159.375,
        "duration": 1.719,
        "velocity": 0.39,
        "hand": "left"
      },
      {
        "midi": 59,
        "time": 159.375,
        "duration": 1.719,
        "velocity": 0.39,
        "hand": "left"
      },
      {
        "midi": 63,
        "time": 159.375,
        "duration": 1.719,
        "velocity": 0.39,
        "hand": "right"
      },
      {
        "midi": 40,
        "time": 161.25,
        "duration": 1.719,
        "velocity": 0.39,
        "hand": "left"
      },
      {
        "midi": 52,
        "time": 161.25,
        "duration": 1.719,
        "velocity": 0.39,
        "hand": "left"
      },
      {
        "midi": 75,
        "time": 162.188,
        "duration": 0.938,
        "velocity": 0.39,
        "hand": "right"
      },
      {
        "midi": 87,
        "time": 162.188,
        "duration": 0.938,
        "velocity": 0.39,
        "hand": "right"
      },
      {
        "midi": 52,
        "time": 163.125,
        "duration": 1.719,
        "velocity": 0.39,
        "hand": "left"
      },
      {
        "midi": 62,
        "time": 163.125,
        "duration": 1.719,
        "velocity": 0.39,
        "hand": "right"
      },
      {
        "midi": 88,
        "time": 163.125,
        "duration": 0.938,
        "velocity": 0.39,
        "hand": "right"
      },
      {
        "midi": 78,
        "time": 164.063,
        "duration": 0.938,
        "velocity": 0.39,
        "hand": "right"
      },
      {
        "midi": 90,
        "time": 164.063,
        "duration": 0.938,
        "velocity": 0.39,
        "hand": "right"
      },
      {
        "midi": 45,
        "time": 165,
        "duration": 1.719,
        "velocity": 0.39,
        "hand": "left"
      },
      {
        "midi": 80,
        "time": 165,
        "duration": 3.594,
        "velocity": 0.39,
        "hand": "right"
      },
      {
        "midi": 88,
        "time": 165,
        "duration": 3.594,
        "velocity": 0.39,
        "hand": "right"
      },
      {
        "midi": 92,
        "time": 165.156,
        "duration": 3.594,
        "velocity": 0.39,
        "hand": "right"
      },
      {
        "midi": 57,
        "time": 166.875,
        "duration": 1.719,
        "velocity": 0.39,
        "hand": "left"
      },
      {
        "midi": 64,
        "time": 166.875,
        "duration": 1.719,
        "velocity": 0.39,
        "hand": "right"
      },
      {
        "midi": 68,
        "time": 166.875,
        "duration": 1.719,
        "velocity": 0.39,
        "hand": "right"
      },
      {
        "midi": 45,
        "time": 168.75,
        "duration": 1.719,
        "velocity": 0.39,
        "hand": "left"
      },
      {
        "midi": 73,
        "time": 168.75,
        "duration": 0.938,
        "velocity": 0.39,
        "hand": "right"
      },
      {
        "midi": 85,
        "time": 168.75,
        "duration": 0.938,
        "velocity": 0.39,
        "hand": "right"
      },
      {
        "midi": 75,
        "time": 169.688,
        "duration": 0.938,
        "velocity": 0.39,
        "hand": "right"
      },
      {
        "midi": 87,
        "time": 169.688,
        "duration": 0.938,
        "velocity": 0.39,
        "hand": "right"
      },
      {
        "midi": 52,
        "time": 170.625,
        "duration": 1.875,
        "velocity": 0.39,
        "hand": "left"
      },
      {
        "midi": 59,
        "time": 170.625,
        "duration": 0.938,
        "velocity": 0.39,
        "hand": "left"
      },
      {
        "midi": 95,
        "time": 170.625,
        "duration": 0.938,
        "velocity": 0.39,
        "hand": "right"
      },
      {
        "midi": 60,
        "time": 170.781,
        "duration": 1.719,
        "velocity": 0.39,
        "hand": "right"
      },
      {
        "midi": 57,
        "time": 171.563,
        "duration": 0.938,
        "velocity": 0.39,
        "hand": "left"
      },
      {
        "midi": 81,
        "time": 171.563,
        "duration": 0.938,
        "velocity": 0.39,
        "hand": "right"
      },
      {
        "midi": 93,
        "time": 171.563,
        "duration": 0.938,
        "velocity": 0.39,
        "hand": "right"
      },
      {
        "midi": 40,
        "time": 172.5,
        "duration": 1.719,
        "velocity": 0.39,
        "hand": "left"
      },
      {
        "midi": 80,
        "time": 172.5,
        "duration": 3.594,
        "velocity": 0.39,
        "hand": "right"
      },
      {
        "midi": 88,
        "time": 172.5,
        "duration": 3.594,
        "velocity": 0.39,
        "hand": "right"
      },
      {
        "midi": 92,
        "time": 172.656,
        "duration": 3.594,
        "velocity": 0.39,
        "hand": "right"
      },
      {
        "midi": 52,
        "time": 174.375,
        "duration": 1.719,
        "velocity": 0.39,
        "hand": "left"
      },
      {
        "midi": 59,
        "time": 174.375,
        "duration": 1.719,
        "velocity": 0.39,
        "hand": "left"
      },
      {
        "midi": 63,
        "time": 174.375,
        "duration": 1.719,
        "velocity": 0.39,
        "hand": "right"
      },
      {
        "midi": 40,
        "time": 176.25,
        "duration": 1.719,
        "velocity": 0.39,
        "hand": "left"
      },
      {
        "midi": 52,
        "time": 176.25,
        "duration": 1.719,
        "velocity": 0.39,
        "hand": "left"
      },
      {
        "midi": 52,
        "time": 178.125,
        "duration": 1.719,
        "velocity": 0.44,
        "hand": "left"
      },
      {
        "midi": 59,
        "time": 178.125,
        "duration": 1.719,
        "velocity": 0.44,
        "hand": "left"
      },
      {
        "midi": 62,
        "time": 178.125,
        "duration": 1.719,
        "velocity": 0.44,
        "hand": "right"
      },
      {
        "midi": 57,
        "time": 180,
        "duration": 3.594,
        "velocity": 0.5,
        "hand": "left"
      },
      {
        "midi": 64,
        "time": 180,
        "duration": 3.594,
        "velocity": 0.5,
        "hand": "right"
      },
      {
        "midi": 92,
        "time": 180,
        "duration": 0.938,
        "velocity": 0.5,
        "hand": "right"
      },
      {
        "midi": 76,
        "time": 180.938,
        "duration": 0.938,
        "velocity": 0.5,
        "hand": "right"
      },
      {
        "midi": 88,
        "time": 180.938,
        "duration": 0.938,
        "velocity": 0.5,
        "hand": "right"
      },
      {
        "midi": 68,
        "time": 181.875,
        "duration": 1.719,
        "velocity": 0.5,
        "hand": "right"
      },
      {
        "midi": 73,
        "time": 181.875,
        "duration": 1.875,
        "velocity": 0.5,
        "hand": "right"
      },
      {
        "midi": 85,
        "time": 181.875,
        "duration": 1.875,
        "velocity": 0.5,
        "hand": "right"
      },
      {
        "midi": 56,
        "time": 183.75,
        "duration": 3.594,
        "velocity": 0.5,
        "hand": "left"
      },
      {
        "midi": 63,
        "time": 183.75,
        "duration": 3.594,
        "velocity": 0.5,
        "hand": "right"
      },
      {
        "midi": 92,
        "time": 183.75,
        "duration": 0.938,
        "velocity": 0.5,
        "hand": "right"
      },
      {
        "midi": 75,
        "time": 184.688,
        "duration": 0.938,
        "velocity": 0.5,
        "hand": "right"
      },
      {
        "midi": 87,
        "time": 184.688,
        "duration": 0.938,
        "velocity": 0.5,
        "hand": "right"
      },
      {
        "midi": 66,
        "time": 185.625,
        "duration": 1.719,
        "velocity": 0.5,
        "hand": "right"
      },
      {
        "midi": 71,
        "time": 185.625,
        "duration": 1.875,
        "velocity": 0.5,
        "hand": "right"
      },
      {
        "midi": 83,
        "time": 185.625,
        "duration": 1.875,
        "velocity": 0.5,
        "hand": "right"
      },
      {
        "midi": 55,
        "time": 187.5,
        "duration": 3.594,
        "velocity": 0.5,
        "hand": "left"
      },
      {
        "midi": 62,
        "time": 187.5,
        "duration": 3.594,
        "velocity": 0.5,
        "hand": "right"
      },
      {
        "midi": 90,
        "time": 187.5,
        "duration": 0.938,
        "velocity": 0.5,
        "hand": "right"
      },
      {
        "midi": 74,
        "time": 188.438,
        "duration": 0.938,
        "velocity": 0.5,
        "hand": "right"
      },
      {
        "midi": 86,
        "time": 188.438,
        "duration": 0.938,
        "velocity": 0.5,
        "hand": "right"
      },
      {
        "midi": 66,
        "time": 189.375,
        "duration": 1.719,
        "velocity": 0.5,
        "hand": "right"
      },
      {
        "midi": 73,
        "time": 189.375,
        "duration": 0.938,
        "velocity": 0.5,
        "hand": "right"
      },
      {
        "midi": 85,
        "time": 189.375,
        "duration": 0.938,
        "velocity": 0.5,
        "hand": "right"
      },
      {
        "midi": 69,
        "time": 190.313,
        "duration": 0.938,
        "velocity": 0.5,
        "hand": "right"
      },
      {
        "midi": 81,
        "time": 190.313,
        "duration": 0.938,
        "velocity": 0.5,
        "hand": "right"
      },
      {
        "midi": 57,
        "time": 191.25,
        "duration": 3.594,
        "velocity": 0.5,
        "hand": "left"
      },
      {
        "midi": 64,
        "time": 191.25,
        "duration": 3.594,
        "velocity": 0.5,
        "hand": "right"
      },
      {
        "midi": 90,
        "time": 191.25,
        "duration": 0.938,
        "velocity": 0.5,
        "hand": "right"
      },
      {
        "midi": 74,
        "time": 192.188,
        "duration": 0.938,
        "velocity": 0.5,
        "hand": "right"
      },
      {
        "midi": 86,
        "time": 192.188,
        "duration": 0.938,
        "velocity": 0.5,
        "hand": "right"
      },
      {
        "midi": 68,
        "time": 193.125,
        "duration": 1.719,
        "velocity": 0.5,
        "hand": "right"
      },
      {
        "midi": 73,
        "time": 193.125,
        "duration": 1.875,
        "velocity": 0.5,
        "hand": "right"
      },
      {
        "midi": 85,
        "time": 193.125,
        "duration": 1.875,
        "velocity": 0.5,
        "hand": "right"
      },
      {
        "midi": 52,
        "time": 195,
        "duration": 3.75,
        "velocity": 0.5,
        "hand": "left"
      },
      {
        "midi": 59,
        "time": 195,
        "duration": 3.75,
        "velocity": 0.5,
        "hand": "left"
      },
      {
        "midi": 88,
        "time": 195,
        "duration": 0.938,
        "velocity": 0.5,
        "hand": "right"
      },
      {
        "midi": 71,
        "time": 195.938,
        "duration": 0.938,
        "velocity": 0.5,
        "hand": "right"
      },
      {
        "midi": 83,
        "time": 195.938,
        "duration": 0.938,
        "velocity": 0.5,
        "hand": "right"
      },
      {
        "midi": 64,
        "time": 196.875,
        "duration": 2.031,
        "velocity": 0.5,
        "hand": "right"
      },
      {
        "midi": 76,
        "time": 196.875,
        "duration": 0.938,
        "velocity": 0.5,
        "hand": "right"
      },
      {
        "midi": 88,
        "time": 196.875,
        "duration": 0.938,
        "velocity": 0.5,
        "hand": "right"
      },
      {
        "midi": 79,
        "time": 197.813,
        "duration": 1.094,
        "velocity": 0.5,
        "hand": "right"
      },
      {
        "midi": 91,
        "time": 197.969,
        "duration": 1.094,
        "velocity": 0.5,
        "hand": "right"
      },
      {
        "midi": 54,
        "time": 198.906,
        "duration": 9.688,
        "velocity": 0.5,
        "hand": "left"
      },
      {
        "midi": 61,
        "time": 198.906,
        "duration": 1.25,
        "velocity": 0.5,
        "hand": "right"
      },
      {
        "midi": 78,
        "time": 198.906,
        "duration": 0.781,
        "velocity": 0.5,
        "hand": "right"
      },
      {
        "midi": 90,
        "time": 199.063,
        "duration": 0.781,
        "velocity": 0.5,
        "hand": "right"
      },
      {
        "midi": 70,
        "time": 199.844,
        "duration": 0.313,
        "velocity": 0.5,
        "hand": "right"
      },
      {
        "midi": 61,
        "time": 200.156,
        "duration": 8.594,
        "velocity": 0.5,
        "hand": "right"
      },
      {
        "midi": 66,
        "time": 200.625,
        "duration": 0.469,
        "velocity": 0.5,
        "hand": "right"
      },
      {
        "midi": 70,
        "time": 201.094,
        "duration": 0.469,
        "velocity": 0.5,
        "hand": "right"
      },
      {
        "midi": 66,
        "time": 201.563,
        "duration": 7.5,
        "velocity": 0.5,
        "hand": "right"
      },
      {
        "midi": 78,
        "time": 201.563,
        "duration": 0.469,
        "velocity": 0.5,
        "hand": "right"
      },
      {
        "midi": 73,
        "time": 201.875,
        "duration": 0.469,
        "velocity": 0.5,
        "hand": "right"
      },
      {
        "midi": 82,
        "time": 202.344,
        "duration": 0.469,
        "velocity": 0.5,
        "hand": "right"
      },
      {
        "midi": 78,
        "time": 202.813,
        "duration": 0.469,
        "velocity": 0.5,
        "hand": "right"
      },
      {
        "midi": 85,
        "time": 203.281,
        "duration": 5.938,
        "velocity": 0.5,
        "hand": "right"
      }
    ],
    "hard": [
      {
        "midi": 69,
        "time": 0,
        "duration": 0.078,
        "velocity": 0.39,
        "hand": "right"
      },
      {
        "midi": 69,
        "time": 0,
        "duration": 0.938,
        "velocity": 0.39,
        "hand": "right"
      },
      {
        "midi": 78,
        "time": 0,
        "duration": 0.078,
        "velocity": 0.39,
        "hand": "right"
      },
      {
        "midi": 78,
        "time": 0,
        "duration": 0.938,
        "velocity": 0.39,
        "hand": "right"
      },
      {
        "midi": 73,
        "time": 0.156,
        "duration": 0.156,
        "velocity": 0.39,
        "hand": "right"
      },
      {
        "midi": 80,
        "time": 0.156,
        "duration": 0.156,
        "velocity": 0.39,
        "hand": "right"
      },
      {
        "midi": 76,
        "time": 0.313,
        "duration": 0.156,
        "velocity": 0.39,
        "hand": "right"
      },
      {
        "midi": 83,
        "time": 0.313,
        "duration": 0.156,
        "velocity": 0.39,
        "hand": "right"
      },
      {
        "midi": 73,
        "time": 0.469,
        "duration": 0.156,
        "velocity": 0.39,
        "hand": "right"
      },
      {
        "midi": 85,
        "time": 0.469,
        "duration": 0.156,
        "velocity": 0.39,
        "hand": "right"
      },
      {
        "midi": 76,
        "time": 0.625,
        "duration": 0.156,
        "velocity": 0.39,
        "hand": "right"
      },
      {
        "midi": 83,
        "time": 0.625,
        "duration": 0.156,
        "velocity": 0.39,
        "hand": "right"
      },
      {
        "midi": 73,
        "time": 0.781,
        "duration": 0.156,
        "velocity": 0.39,
        "hand": "right"
      },
      {
        "midi": 80,
        "time": 0.781,
        "duration": 0.156,
        "velocity": 0.39,
        "hand": "right"
      },
      {
        "midi": 69,
        "time": 0.938,
        "duration": 0.078,
        "velocity": 0.39,
        "hand": "right"
      },
      {
        "midi": 69,
        "time": 0.938,
        "duration": 0.938,
        "velocity": 0.39,
        "hand": "right"
      },
      {
        "midi": 78,
        "time": 0.938,
        "duration": 0.078,
        "velocity": 0.39,
        "hand": "right"
      },
      {
        "midi": 78,
        "time": 0.938,
        "duration": 0.938,
        "velocity": 0.39,
        "hand": "right"
      },
      {
        "midi": 73,
        "time": 1.094,
        "duration": 0.156,
        "velocity": 0.39,
        "hand": "right"
      },
      {
        "midi": 80,
        "time": 1.094,
        "duration": 0.156,
        "velocity": 0.39,
        "hand": "right"
      },
      {
        "midi": 76,
        "time": 1.25,
        "duration": 0.156,
        "velocity": 0.39,
        "hand": "right"
      },
      {
        "midi": 83,
        "time": 1.25,
        "duration": 0.156,
        "velocity": 0.39,
        "hand": "right"
      },
      {
        "midi": 73,
        "time": 1.406,
        "duration": 0.156,
        "velocity": 0.39,
        "hand": "right"
      },
      {
        "midi": 85,
        "time": 1.406,
        "duration": 0.156,
        "velocity": 0.39,
        "hand": "right"
      },
      {
        "midi": 76,
        "time": 1.563,
        "duration": 0.156,
        "velocity": 0.39,
        "hand": "right"
      },
      {
        "midi": 83,
        "time": 1.563,
        "duration": 0.156,
        "velocity": 0.39,
        "hand": "right"
      },
      {
        "midi": 73,
        "time": 1.719,
        "duration": 0.156,
        "velocity": 0.39,
        "hand": "right"
      },
      {
        "midi": 80,
        "time": 1.719,
        "duration": 0.156,
        "velocity": 0.39,
        "hand": "right"
      },
      {
        "midi": 69,
        "time": 1.875,
        "duration": 0.078,
        "velocity": 0.39,
        "hand": "right"
      },
      {
        "midi": 69,
        "time": 1.875,
        "duration": 0.938,
        "velocity": 0.39,
        "hand": "right"
      },
      {
        "midi": 78,
        "time": 1.875,
        "duration": 0.078,
        "velocity": 0.39,
        "hand": "right"
      },
      {
        "midi": 78,
        "time": 1.875,
        "duration": 0.938,
        "velocity": 0.39,
        "hand": "right"
      },
      {
        "midi": 73,
        "time": 2.031,
        "duration": 0.156,
        "velocity": 0.39,
        "hand": "right"
      },
      {
        "midi": 80,
        "time": 2.031,
        "duration": 0.156,
        "velocity": 0.39,
        "hand": "right"
      },
      {
        "midi": 76,
        "time": 2.188,
        "duration": 0.156,
        "velocity": 0.39,
        "hand": "right"
      },
      {
        "midi": 83,
        "time": 2.188,
        "duration": 0.156,
        "velocity": 0.39,
        "hand": "right"
      },
      {
        "midi": 73,
        "time": 2.344,
        "duration": 0.156,
        "velocity": 0.39,
        "hand": "right"
      },
      {
        "midi": 85,
        "time": 2.344,
        "duration": 0.156,
        "velocity": 0.39,
        "hand": "right"
      },
      {
        "midi": 76,
        "time": 2.5,
        "duration": 0.156,
        "velocity": 0.39,
        "hand": "right"
      },
      {
        "midi": 83,
        "time": 2.5,
        "duration": 0.156,
        "velocity": 0.39,
        "hand": "right"
      },
      {
        "midi": 73,
        "time": 2.656,
        "duration": 0.156,
        "velocity": 0.39,
        "hand": "right"
      },
      {
        "midi": 80,
        "time": 2.656,
        "duration": 0.156,
        "velocity": 0.39,
        "hand": "right"
      },
      {
        "midi": 69,
        "time": 2.813,
        "duration": 0.078,
        "velocity": 0.39,
        "hand": "right"
      },
      {
        "midi": 69,
        "time": 2.813,
        "duration": 0.938,
        "velocity": 0.39,
        "hand": "right"
      },
      {
        "midi": 78,
        "time": 2.813,
        "duration": 0.078,
        "velocity": 0.39,
        "hand": "right"
      },
      {
        "midi": 78,
        "time": 2.813,
        "duration": 0.938,
        "velocity": 0.39,
        "hand": "right"
      },
      {
        "midi": 73,
        "time": 2.969,
        "duration": 0.156,
        "velocity": 0.39,
        "hand": "right"
      },
      {
        "midi": 80,
        "time": 2.969,
        "duration": 0.156,
        "velocity": 0.39,
        "hand": "right"
      },
      {
        "midi": 76,
        "time": 3.125,
        "duration": 0.156,
        "velocity": 0.39,
        "hand": "right"
      },
      {
        "midi": 83,
        "time": 3.125,
        "duration": 0.156,
        "velocity": 0.39,
        "hand": "right"
      },
      {
        "midi": 73,
        "time": 3.281,
        "duration": 0.156,
        "velocity": 0.39,
        "hand": "right"
      },
      {
        "midi": 85,
        "time": 3.281,
        "duration": 0.156,
        "velocity": 0.39,
        "hand": "right"
      },
      {
        "midi": 76,
        "time": 3.438,
        "duration": 0.156,
        "velocity": 0.39,
        "hand": "right"
      },
      {
        "midi": 83,
        "time": 3.438,
        "duration": 0.156,
        "velocity": 0.39,
        "hand": "right"
      },
      {
        "midi": 73,
        "time": 3.594,
        "duration": 0.156,
        "velocity": 0.39,
        "hand": "right"
      },
      {
        "midi": 80,
        "time": 3.594,
        "duration": 0.156,
        "velocity": 0.39,
        "hand": "right"
      },
      {
        "midi": 68,
        "time": 3.75,
        "duration": 0.078,
        "velocity": 0.39,
        "hand": "right"
      },
      {
        "midi": 68,
        "time": 3.75,
        "duration": 0.938,
        "velocity": 0.39,
        "hand": "right"
      },
      {
        "midi": 76,
        "time": 3.75,
        "duration": 0.078,
        "velocity": 0.39,
        "hand": "right"
      },
      {
        "midi": 76,
        "time": 3.75,
        "duration": 0.938,
        "velocity": 0.39,
        "hand": "right"
      },
      {
        "midi": 71,
        "time": 3.906,
        "duration": 0.156,
        "velocity": 0.39,
        "hand": "right"
      },
      {
        "midi": 80,
        "time": 3.906,
        "duration": 0.156,
        "velocity": 0.39,
        "hand": "right"
      },
      {
        "midi": 75,
        "time": 4.063,
        "duration": 0.156,
        "velocity": 0.39,
        "hand": "right"
      },
      {
        "midi": 83,
        "time": 4.063,
        "duration": 0.156,
        "velocity": 0.39,
        "hand": "right"
      },
      {
        "midi": 71,
        "time": 4.219,
        "duration": 0.156,
        "velocity": 0.39,
        "hand": "right"
      },
      {
        "midi": 85,
        "time": 4.219,
        "duration": 0.156,
        "velocity": 0.39,
        "hand": "right"
      },
      {
        "midi": 75,
        "time": 4.375,
        "duration": 0.156,
        "velocity": 0.39,
        "hand": "right"
      },
      {
        "midi": 83,
        "time": 4.375,
        "duration": 0.156,
        "velocity": 0.39,
        "hand": "right"
      },
      {
        "midi": 71,
        "time": 4.531,
        "duration": 0.156,
        "velocity": 0.39,
        "hand": "right"
      },
      {
        "midi": 80,
        "time": 4.531,
        "duration": 0.156,
        "velocity": 0.39,
        "hand": "right"
      },
      {
        "midi": 68,
        "time": 4.688,
        "duration": 0.078,
        "velocity": 0.39,
        "hand": "right"
      },
      {
        "midi": 68,
        "time": 4.688,
        "duration": 0.938,
        "velocity": 0.39,
        "hand": "right"
      },
      {
        "midi": 76,
        "time": 4.688,
        "duration": 0.078,
        "velocity": 0.39,
        "hand": "right"
      },
      {
        "midi": 76,
        "time": 4.688,
        "duration": 0.938,
        "velocity": 0.39,
        "hand": "right"
      },
      {
        "midi": 71,
        "time": 4.844,
        "duration": 0.156,
        "velocity": 0.39,
        "hand": "right"
      },
      {
        "midi": 80,
        "time": 4.844,
        "duration": 0.156,
        "velocity": 0.39,
        "hand": "right"
      },
      {
        "midi": 75,
        "time": 5,
        "duration": 0.156,
        "velocity": 0.39,
        "hand": "right"
      },
      {
        "midi": 83,
        "time": 5,
        "duration": 0.156,
        "velocity": 0.39,
        "hand": "right"
      },
      {
        "midi": 71,
        "time": 5.156,
        "duration": 0.156,
        "velocity": 0.39,
        "hand": "right"
      },
      {
        "midi": 85,
        "time": 5.156,
        "duration": 0.156,
        "velocity": 0.39,
        "hand": "right"
      },
      {
        "midi": 75,
        "time": 5.313,
        "duration": 0.156,
        "velocity": 0.39,
        "hand": "right"
      },
      {
        "midi": 83,
        "time": 5.313,
        "duration": 0.156,
        "velocity": 0.39,
        "hand": "right"
      },
      {
        "midi": 71,
        "time": 5.469,
        "duration": 0.156,
        "velocity": 0.39,
        "hand": "right"
      },
      {
        "midi": 80,
        "time": 5.469,
        "duration": 0.156,
        "velocity": 0.39,
        "hand": "right"
      },
      {
        "midi": 68,
        "time": 5.625,
        "duration": 0.078,
        "velocity": 0.39,
        "hand": "right"
      },
      {
        "midi": 68,
        "time": 5.625,
        "duration": 0.938,
        "velocity": 0.39,
        "hand": "right"
      },
      {
        "midi": 76,
        "time": 5.625,
        "duration": 0.078,
        "velocity": 0.39,
        "hand": "right"
      },
      {
        "midi": 76,
        "time": 5.625,
        "duration": 0.938,
        "velocity": 0.39,
        "hand": "right"
      },
      {
        "midi": 71,
        "time": 5.781,
        "duration": 0.156,
        "velocity": 0.39,
        "hand": "right"
      },
      {
        "midi": 80,
        "time": 5.781,
        "duration": 0.156,
        "velocity": 0.39,
        "hand": "right"
      },
      {
        "midi": 75,
        "time": 5.938,
        "duration": 0.156,
        "velocity": 0.39,
        "hand": "right"
      },
      {
        "midi": 83,
        "time": 5.938,
        "duration": 0.156,
        "velocity": 0.39,
        "hand": "right"
      },
      {
        "midi": 71,
        "time": 6.094,
        "duration": 0.156,
        "velocity": 0.39,
        "hand": "right"
      },
      {
        "midi": 85,
        "time": 6.094,
        "duration": 0.156,
        "velocity": 0.39,
        "hand": "right"
      },
      {
        "midi": 75,
        "time": 6.25,
        "duration": 0.156,
        "velocity": 0.39,
        "hand": "right"
      },
      {
        "midi": 83,
        "time": 6.25,
        "duration": 0.156,
        "velocity": 0.39,
        "hand": "right"
      },
      {
        "midi": 71,
        "time": 6.406,
        "duration": 0.156,
        "velocity": 0.39,
        "hand": "right"
      },
      {
        "midi": 80,
        "time": 6.406,
        "duration": 0.156,
        "velocity": 0.39,
        "hand": "right"
      },
      {
        "midi": 67,
        "time": 6.563,
        "duration": 0.078,
        "velocity": 0.39,
        "hand": "right"
      },
      {
        "midi": 67,
        "time": 6.563,
        "duration": 0.938,
        "velocity": 0.39,
        "hand": "right"
      },
      {
        "midi": 76,
        "time": 6.563,
        "duration": 0.078,
        "velocity": 0.39,
        "hand": "right"
      },
      {
        "midi": 76,
        "time": 6.563,
        "duration": 0.938,
        "velocity": 0.39,
        "hand": "right"
      },
      {
        "midi": 71,
        "time": 6.719,
        "duration": 0.156,
        "velocity": 0.39,
        "hand": "right"
      },
      {
        "midi": 80,
        "time": 6.719,
        "duration": 0.156,
        "velocity": 0.39,
        "hand": "right"
      },
      {
        "midi": 75,
        "time": 6.875,
        "duration": 0.156,
        "velocity": 0.39,
        "hand": "right"
      },
      {
        "midi": 83,
        "time": 6.875,
        "duration": 0.156,
        "velocity": 0.39,
        "hand": "right"
      },
      {
        "midi": 71,
        "time": 7.031,
        "duration": 0.156,
        "velocity": 0.39,
        "hand": "right"
      },
      {
        "midi": 85,
        "time": 7.031,
        "duration": 0.156,
        "velocity": 0.39,
        "hand": "right"
      },
      {
        "midi": 75,
        "time": 7.188,
        "duration": 0.156,
        "velocity": 0.39,
        "hand": "right"
      },
      {
        "midi": 83,
        "time": 7.188,
        "duration": 0.156,
        "velocity": 0.39,
        "hand": "right"
      },
      {
        "midi": 71,
        "time": 7.344,
        "duration": 0.156,
        "velocity": 0.39,
        "hand": "right"
      },
      {
        "midi": 80,
        "time": 7.344,
        "duration": 0.156,
        "velocity": 0.39,
        "hand": "right"
      },
      {
        "midi": 66,
        "time": 7.5,
        "duration": 0.078,
        "velocity": 0.39,
        "hand": "right"
      },
      {
        "midi": 66,
        "time": 7.5,
        "duration": 0.938,
        "velocity": 0.39,
        "hand": "right"
      },
      {
        "midi": 76,
        "time": 7.5,
        "duration": 0.078,
        "velocity": 0.39,
        "hand": "right"
      },
      {
        "midi": 76,
        "time": 7.5,
        "duration": 0.938,
        "velocity": 0.39,
        "hand": "right"
      },
      {
        "midi": 69,
        "time": 7.656,
        "duration": 0.156,
        "velocity": 0.39,
        "hand": "right"
      },
      {
        "midi": 78,
        "time": 7.656,
        "duration": 0.156,
        "velocity": 0.39,
        "hand": "right"
      },
      {
        "midi": 73,
        "time": 7.813,
        "duration": 0.156,
        "velocity": 0.39,
        "hand": "right"
      },
      {
        "midi": 81,
        "time": 7.813,
        "duration": 0.156,
        "velocity": 0.39,
        "hand": "right"
      },
      {
        "midi": 69,
        "time": 7.969,
        "duration": 0.156,
        "velocity": 0.39,
        "hand": "right"
      },
      {
        "midi": 83,
        "time": 7.969,
        "duration": 0.156,
        "velocity": 0.39,
        "hand": "right"
      },
      {
        "midi": 73,
        "time": 8.125,
        "duration": 0.156,
        "velocity": 0.39,
        "hand": "right"
      },
      {
        "midi": 81,
        "time": 8.125,
        "duration": 0.156,
        "velocity": 0.39,
        "hand": "right"
      },
      {
        "midi": 69,
        "time": 8.281,
        "duration": 0.156,
        "velocity": 0.39,
        "hand": "right"
      },
      {
        "midi": 78,
        "time": 8.281,
        "duration": 0.156,
        "velocity": 0.39,
        "hand": "right"
      },
      {
        "midi": 66,
        "time": 8.438,
        "duration": 0.078,
        "velocity": 0.39,
        "hand": "right"
      },
      {
        "midi": 66,
        "time": 8.438,
        "duration": 0.938,
        "velocity": 0.39,
        "hand": "right"
      },
      {
        "midi": 76,
        "time": 8.438,
        "duration": 0.078,
        "velocity": 0.39,
        "hand": "right"
      },
      {
        "midi": 76,
        "time": 8.438,
        "duration": 0.938,
        "velocity": 0.39,
        "hand": "right"
      },
      {
        "midi": 69,
        "time": 8.594,
        "duration": 0.156,
        "velocity": 0.39,
        "hand": "right"
      },
      {
        "midi": 78,
        "time": 8.594,
        "duration": 0.156,
        "velocity": 0.39,
        "hand": "right"
      },
      {
        "midi": 73,
        "time": 8.75,
        "duration": 0.156,
        "velocity": 0.39,
        "hand": "right"
      },
      {
        "midi": 81,
        "time": 8.75,
        "duration": 0.156,
        "velocity": 0.39,
        "hand": "right"
      },
      {
        "midi": 69,
        "time": 8.906,
        "duration": 0.156,
        "velocity": 0.39,
        "hand": "right"
      },
      {
        "midi": 83,
        "time": 8.906,
        "duration": 0.156,
        "velocity": 0.39,
        "hand": "right"
      },
      {
        "midi": 73,
        "time": 9.063,
        "duration": 0.156,
        "velocity": 0.39,
        "hand": "right"
      },
      {
        "midi": 81,
        "time": 9.063,
        "duration": 0.156,
        "velocity": 0.39,
        "hand": "right"
      },
      {
        "midi": 69,
        "time": 9.219,
        "duration": 0.156,
        "velocity": 0.39,
        "hand": "right"
      },
      {
        "midi": 78,
        "time": 9.219,
        "duration": 0.156,
        "velocity": 0.39,
        "hand": "right"
      },
      {
        "midi": 66,
        "time": 9.375,
        "duration": 0.078,
        "velocity": 0.39,
        "hand": "right"
      },
      {
        "midi": 66,
        "time": 9.375,
        "duration": 0.938,
        "velocity": 0.39,
        "hand": "right"
      },
      {
        "midi": 76,
        "time": 9.375,
        "duration": 0.078,
        "velocity": 0.39,
        "hand": "right"
      },
      {
        "midi": 76,
        "time": 9.375,
        "duration": 0.938,
        "velocity": 0.39,
        "hand": "right"
      },
      {
        "midi": 69,
        "time": 9.531,
        "duration": 0.156,
        "velocity": 0.39,
        "hand": "right"
      },
      {
        "midi": 78,
        "time": 9.531,
        "duration": 0.156,
        "velocity": 0.39,
        "hand": "right"
      },
      {
        "midi": 73,
        "time": 9.688,
        "duration": 0.156,
        "velocity": 0.39,
        "hand": "right"
      },
      {
        "midi": 81,
        "time": 9.688,
        "duration": 0.156,
        "velocity": 0.39,
        "hand": "right"
      },
      {
        "midi": 69,
        "time": 9.844,
        "duration": 0.156,
        "velocity": 0.39,
        "hand": "right"
      },
      {
        "midi": 83,
        "time": 9.844,
        "duration": 0.156,
        "velocity": 0.39,
        "hand": "right"
      },
      {
        "midi": 73,
        "time": 10,
        "duration": 0.156,
        "velocity": 0.39,
        "hand": "right"
      },
      {
        "midi": 81,
        "time": 10,
        "duration": 0.156,
        "velocity": 0.39,
        "hand": "right"
      },
      {
        "midi": 69,
        "time": 10.156,
        "duration": 0.156,
        "velocity": 0.39,
        "hand": "right"
      },
      {
        "midi": 78,
        "time": 10.156,
        "duration": 0.156,
        "velocity": 0.39,
        "hand": "right"
      },
      {
        "midi": 66,
        "time": 10.313,
        "duration": 0.078,
        "velocity": 0.39,
        "hand": "right"
      },
      {
        "midi": 66,
        "time": 10.313,
        "duration": 0.938,
        "velocity": 0.39,
        "hand": "right"
      },
      {
        "midi": 76,
        "time": 10.313,
        "duration": 0.078,
        "velocity": 0.39,
        "hand": "right"
      },
      {
        "midi": 76,
        "time": 10.313,
        "duration": 0.938,
        "velocity": 0.39,
        "hand": "right"
      },
      {
        "midi": 69,
        "time": 10.469,
        "duration": 0.156,
        "velocity": 0.39,
        "hand": "right"
      },
      {
        "midi": 78,
        "time": 10.469,
        "duration": 0.156,
        "velocity": 0.39,
        "hand": "right"
      },
      {
        "midi": 73,
        "time": 10.625,
        "duration": 0.156,
        "velocity": 0.39,
        "hand": "right"
      },
      {
        "midi": 81,
        "time": 10.625,
        "duration": 0.156,
        "velocity": 0.39,
        "hand": "right"
      },
      {
        "midi": 69,
        "time": 10.781,
        "duration": 0.156,
        "velocity": 0.39,
        "hand": "right"
      },
      {
        "midi": 83,
        "time": 10.781,
        "duration": 0.156,
        "velocity": 0.39,
        "hand": "right"
      },
      {
        "midi": 73,
        "time": 10.938,
        "duration": 0.156,
        "velocity": 0.39,
        "hand": "right"
      },
      {
        "midi": 81,
        "time": 10.938,
        "duration": 0.156,
        "velocity": 0.39,
        "hand": "right"
      },
      {
        "midi": 69,
        "time": 11.094,
        "duration": 0.156,
        "velocity": 0.39,
        "hand": "right"
      },
      {
        "midi": 78,
        "time": 11.094,
        "duration": 0.156,
        "velocity": 0.39,
        "hand": "right"
      },
      {
        "midi": 64,
        "time": 11.25,
        "duration": 0.078,
        "velocity": 0.39,
        "hand": "right"
      },
      {
        "midi": 64,
        "time": 11.25,
        "duration": 0.938,
        "velocity": 0.39,
        "hand": "right"
      },
      {
        "midi": 75,
        "time": 11.25,
        "duration": 0.078,
        "velocity": 0.39,
        "hand": "right"
      },
      {
        "midi": 75,
        "time": 11.25,
        "duration": 0.938,
        "velocity": 0.39,
        "hand": "right"
      },
      {
        "midi": 68,
        "time": 11.406,
        "duration": 0.156,
        "velocity": 0.39,
        "hand": "right"
      },
      {
        "midi": 76,
        "time": 11.406,
        "duration": 0.156,
        "velocity": 0.39,
        "hand": "right"
      },
      {
        "midi": 71,
        "time": 11.563,
        "duration": 0.156,
        "velocity": 0.39,
        "hand": "right"
      },
      {
        "midi": 78,
        "time": 11.563,
        "duration": 0.156,
        "velocity": 0.39,
        "hand": "right"
      },
      {
        "midi": 68,
        "time": 11.719,
        "duration": 0.156,
        "velocity": 0.39,
        "hand": "right"
      },
      {
        "midi": 80,
        "time": 11.719,
        "duration": 0.156,
        "velocity": 0.39,
        "hand": "right"
      },
      {
        "midi": 71,
        "time": 11.875,
        "duration": 0.156,
        "velocity": 0.39,
        "hand": "right"
      },
      {
        "midi": 78,
        "time": 11.875,
        "duration": 0.156,
        "velocity": 0.39,
        "hand": "right"
      },
      {
        "midi": 68,
        "time": 12.031,
        "duration": 0.156,
        "velocity": 0.39,
        "hand": "right"
      },
      {
        "midi": 76,
        "time": 12.031,
        "duration": 0.156,
        "velocity": 0.39,
        "hand": "right"
      },
      {
        "midi": 64,
        "time": 12.188,
        "duration": 0.078,
        "velocity": 0.39,
        "hand": "right"
      },
      {
        "midi": 64,
        "time": 12.188,
        "duration": 0.938,
        "velocity": 0.39,
        "hand": "right"
      },
      {
        "midi": 75,
        "time": 12.188,
        "duration": 0.078,
        "velocity": 0.39,
        "hand": "right"
      },
      {
        "midi": 75,
        "time": 12.188,
        "duration": 0.938,
        "velocity": 0.39,
        "hand": "right"
      },
      {
        "midi": 68,
        "time": 12.344,
        "duration": 0.156,
        "velocity": 0.39,
        "hand": "right"
      },
      {
        "midi": 76,
        "time": 12.344,
        "duration": 0.156,
        "velocity": 0.39,
        "hand": "right"
      },
      {
        "midi": 71,
        "time": 12.5,
        "duration": 0.156,
        "velocity": 0.39,
        "hand": "right"
      },
      {
        "midi": 78,
        "time": 12.5,
        "duration": 0.156,
        "velocity": 0.39,
        "hand": "right"
      },
      {
        "midi": 68,
        "time": 12.656,
        "duration": 0.156,
        "velocity": 0.39,
        "hand": "right"
      },
      {
        "midi": 80,
        "time": 12.656,
        "duration": 0.156,
        "velocity": 0.39,
        "hand": "right"
      },
      {
        "midi": 71,
        "time": 12.813,
        "duration": 0.156,
        "velocity": 0.39,
        "hand": "right"
      },
      {
        "midi": 78,
        "time": 12.813,
        "duration": 0.156,
        "velocity": 0.39,
        "hand": "right"
      },
      {
        "midi": 68,
        "time": 12.969,
        "duration": 0.156,
        "velocity": 0.39,
        "hand": "right"
      },
      {
        "midi": 76,
        "time": 12.969,
        "duration": 0.156,
        "velocity": 0.39,
        "hand": "right"
      },
      {
        "midi": 64,
        "time": 13.125,
        "duration": 0.078,
        "velocity": 0.39,
        "hand": "right"
      },
      {
        "midi": 64,
        "time": 13.125,
        "duration": 0.938,
        "velocity": 0.39,
        "hand": "right"
      },
      {
        "midi": 75,
        "time": 13.125,
        "duration": 0.078,
        "velocity": 0.39,
        "hand": "right"
      },
      {
        "midi": 75,
        "time": 13.125,
        "duration": 0.938,
        "velocity": 0.39,
        "hand": "right"
      },
      {
        "midi": 68,
        "time": 13.281,
        "duration": 0.156,
        "velocity": 0.39,
        "hand": "right"
      },
      {
        "midi": 76,
        "time": 13.281,
        "duration": 0.156,
        "velocity": 0.39,
        "hand": "right"
      },
      {
        "midi": 71,
        "time": 13.438,
        "duration": 0.156,
        "velocity": 0.4,
        "hand": "right"
      },
      {
        "midi": 78,
        "time": 13.438,
        "duration": 0.156,
        "velocity": 0.4,
        "hand": "right"
      },
      {
        "midi": 68,
        "time": 13.594,
        "duration": 0.156,
        "velocity": 0.41,
        "hand": "right"
      },
      {
        "midi": 80,
        "time": 13.594,
        "duration": 0.156,
        "velocity": 0.41,
        "hand": "right"
      },
      {
        "midi": 71,
        "time": 13.75,
        "duration": 0.156,
        "velocity": 0.43,
        "hand": "right"
      },
      {
        "midi": 78,
        "time": 13.75,
        "duration": 0.156,
        "velocity": 0.43,
        "hand": "right"
      },
      {
        "midi": 68,
        "time": 13.906,
        "duration": 0.156,
        "velocity": 0.43,
        "hand": "right"
      },
      {
        "midi": 76,
        "time": 13.906,
        "duration": 0.156,
        "velocity": 0.43,
        "hand": "right"
      },
      {
        "midi": 64,
        "time": 14.063,
        "duration": 0.078,
        "velocity": 0.44,
        "hand": "right"
      },
      {
        "midi": 64,
        "time": 14.063,
        "duration": 0.938,
        "velocity": 0.44,
        "hand": "right"
      },
      {
        "midi": 75,
        "time": 14.063,
        "duration": 0.078,
        "velocity": 0.44,
        "hand": "right"
      },
      {
        "midi": 75,
        "time": 14.063,
        "duration": 0.938,
        "velocity": 0.44,
        "hand": "right"
      },
      {
        "midi": 68,
        "time": 14.219,
        "duration": 0.156,
        "velocity": 0.45,
        "hand": "right"
      },
      {
        "midi": 76,
        "time": 14.219,
        "duration": 0.156,
        "velocity": 0.45,
        "hand": "right"
      },
      {
        "midi": 71,
        "time": 14.375,
        "duration": 0.156,
        "velocity": 0.46,
        "hand": "right"
      },
      {
        "midi": 78,
        "time": 14.375,
        "duration": 0.156,
        "velocity": 0.46,
        "hand": "right"
      },
      {
        "midi": 68,
        "time": 14.531,
        "duration": 0.156,
        "velocity": 0.47,
        "hand": "right"
      },
      {
        "midi": 80,
        "time": 14.531,
        "duration": 0.156,
        "velocity": 0.47,
        "hand": "right"
      },
      {
        "midi": 71,
        "time": 14.688,
        "duration": 0.156,
        "velocity": 0.48,
        "hand": "right"
      },
      {
        "midi": 78,
        "time": 14.688,
        "duration": 0.156,
        "velocity": 0.48,
        "hand": "right"
      },
      {
        "midi": 68,
        "time": 14.844,
        "duration": 0.156,
        "velocity": 0.49,
        "hand": "right"
      },
      {
        "midi": 76,
        "time": 14.844,
        "duration": 0.156,
        "velocity": 0.49,
        "hand": "right"
      },
      {
        "midi": 45,
        "time": 15,
        "duration": 0.156,
        "velocity": 0.5,
        "hand": "left"
      },
      {
        "midi": 68,
        "time": 15,
        "duration": 0.156,
        "velocity": 0.5,
        "hand": "right"
      },
      {
        "midi": 52,
        "time": 15.156,
        "duration": 0.156,
        "velocity": 0.5,
        "hand": "left"
      },
      {
        "midi": 68,
        "time": 15.156,
        "duration": 0.156,
        "velocity": 0.5,
        "hand": "right"
      },
      {
        "midi": 61,
        "time": 15.313,
        "duration": 0.156,
        "velocity": 0.5,
        "hand": "right"
      },
      {
        "midi": 68,
        "time": 15.313,
        "duration": 0.156,
        "velocity": 0.5,
        "hand": "right"
      },
      {
        "midi": 52,
        "time": 15.469,
        "duration": 0.156,
        "velocity": 0.5,
        "hand": "left"
      },
      {
        "midi": 68,
        "time": 15.469,
        "duration": 0.156,
        "velocity": 0.5,
        "hand": "right"
      },
      {
        "midi": 61,
        "time": 15.625,
        "duration": 0.156,
        "velocity": 0.5,
        "hand": "right"
      },
      {
        "midi": 68,
        "time": 15.625,
        "duration": 0.156,
        "velocity": 0.5,
        "hand": "right"
      },
      {
        "midi": 52,
        "time": 15.781,
        "duration": 0.156,
        "velocity": 0.5,
        "hand": "left"
      },
      {
        "midi": 66,
        "time": 15.781,
        "duration": 0.156,
        "velocity": 0.5,
        "hand": "right"
      },
      {
        "midi": 45,
        "time": 15.938,
        "duration": 0.156,
        "velocity": 0.5,
        "hand": "left"
      },
      {
        "midi": 92,
        "time": 15.938,
        "duration": 0.156,
        "velocity": 0.6,
        "hand": "right"
      },
      {
        "midi": 52,
        "time": 16.094,
        "duration": 0.156,
        "velocity": 0.5,
        "hand": "left"
      },
      {
        "midi": 61,
        "time": 16.25,
        "duration": 0.156,
        "velocity": 0.5,
        "hand": "right"
      },
      {
        "midi": 52,
        "time": 16.406,
        "duration": 0.156,
        "velocity": 0.5,
        "hand": "left"
      },
      {
        "midi": 61,
        "time": 16.563,
        "duration": 0.156,
        "velocity": 0.5,
        "hand": "right"
      },
      {
        "midi": 52,
        "time": 16.719,
        "duration": 0.156,
        "velocity": 0.5,
        "hand": "left"
      },
      {
        "midi": 45,
        "time": 16.875,
        "duration": 0.156,
        "velocity": 0.5,
        "hand": "left"
      },
      {
        "midi": 68,
        "time": 16.875,
        "duration": 0.156,
        "velocity": 0.5,
        "hand": "right"
      },
      {
        "midi": 52,
        "time": 17.031,
        "duration": 0.156,
        "velocity": 0.5,
        "hand": "left"
      },
      {
        "midi": 68,
        "time": 17.031,
        "duration": 0.156,
        "velocity": 0.5,
        "hand": "right"
      },
      {
        "midi": 61,
        "time": 17.188,
        "duration": 0.156,
        "velocity": 0.5,
        "hand": "right"
      },
      {
        "midi": 68,
        "time": 17.188,
        "duration": 0.156,
        "velocity": 0.5,
        "hand": "right"
      },
      {
        "midi": 52,
        "time": 17.344,
        "duration": 0.156,
        "velocity": 0.5,
        "hand": "left"
      },
      {
        "midi": 68,
        "time": 17.344,
        "duration": 0.156,
        "velocity": 0.5,
        "hand": "right"
      },
      {
        "midi": 61,
        "time": 17.5,
        "duration": 0.156,
        "velocity": 0.5,
        "hand": "right"
      },
      {
        "midi": 68,
        "time": 17.5,
        "duration": 0.313,
        "velocity": 0.5,
        "hand": "right"
      },
      {
        "midi": 52,
        "time": 17.656,
        "duration": 0.156,
        "velocity": 0.5,
        "hand": "left"
      },
      {
        "midi": 45,
        "time": 17.813,
        "duration": 0.156,
        "velocity": 0.5,
        "hand": "left"
      },
      {
        "midi": 68,
        "time": 17.813,
        "duration": 0.156,
        "velocity": 0.5,
        "hand": "right"
      },
      {
        "midi": 52,
        "time": 17.969,
        "duration": 0.156,
        "velocity": 0.5,
        "hand": "left"
      },
      {
        "midi": 68,
        "time": 17.969,
        "duration": 0.156,
        "velocity": 0.5,
        "hand": "right"
      },
      {
        "midi": 61,
        "time": 18.125,
        "duration": 0.156,
        "velocity": 0.5,
        "hand": "right"
      },
      {
        "midi": 68,
        "time": 18.125,
        "duration": 0.156,
        "velocity": 0.5,
        "hand": "right"
      },
      {
        "midi": 52,
        "time": 18.281,
        "duration": 0.156,
        "velocity": 0.5,
        "hand": "left"
      },
      {
        "midi": 68,
        "time": 18.281,
        "duration": 0.156,
        "velocity": 0.5,
        "hand": "right"
      },
      {
        "midi": 61,
        "time": 18.438,
        "duration": 0.156,
        "velocity": 0.5,
        "hand": "right"
      },
      {
        "midi": 68,
        "time": 18.438,
        "duration": 0.313,
        "velocity": 0.5,
        "hand": "right"
      },
      {
        "midi": 52,
        "time": 18.594,
        "duration": 0.156,
        "velocity": 0.5,
        "hand": "left"
      },
      {
        "midi": 44,
        "time": 18.75,
        "duration": 0.156,
        "velocity": 0.5,
        "hand": "left"
      },
      {
        "midi": 68,
        "time": 18.75,
        "duration": 0.156,
        "velocity": 0.5,
        "hand": "right"
      },
      {
        "midi": 51,
        "time": 18.906,
        "duration": 0.156,
        "velocity": 0.5,
        "hand": "left"
      },
      {
        "midi": 68,
        "time": 18.906,
        "duration": 0.156,
        "velocity": 0.5,
        "hand": "right"
      },
      {
        "midi": 59,
        "time": 19.063,
        "duration": 0.156,
        "velocity": 0.5,
        "hand": "left"
      },
      {
        "midi": 68,
        "time": 19.063,
        "duration": 0.156,
        "velocity": 0.5,
        "hand": "right"
      },
      {
        "midi": 51,
        "time": 19.219,
        "duration": 0.156,
        "velocity": 0.5,
        "hand": "left"
      },
      {
        "midi": 68,
        "time": 19.219,
        "duration": 0.156,
        "velocity": 0.5,
        "hand": "right"
      },
      {
        "midi": 59,
        "time": 19.375,
        "duration": 0.156,
        "velocity": 0.5,
        "hand": "left"
      },
      {
        "midi": 68,
        "time": 19.375,
        "duration": 0.156,
        "velocity": 0.5,
        "hand": "right"
      },
      {
        "midi": 51,
        "time": 19.531,
        "duration": 0.156,
        "velocity": 0.5,
        "hand": "left"
      },
      {
        "midi": 66,
        "time": 19.531,
        "duration": 0.156,
        "velocity": 0.5,
        "hand": "right"
      },
      {
        "midi": 44,
        "time": 19.688,
        "duration": 0.156,
        "velocity": 0.5,
        "hand": "left"
      },
      {
        "midi": 92,
        "time": 19.688,
        "duration": 0.156,
        "velocity": 0.6,
        "hand": "right"
      },
      {
        "midi": 51,
        "time": 19.844,
        "duration": 0.156,
        "velocity": 0.5,
        "hand": "left"
      },
      {
        "midi": 59,
        "time": 20,
        "duration": 0.156,
        "velocity": 0.5,
        "hand": "left"
      },
      {
        "midi": 51,
        "time": 20.156,
        "duration": 0.156,
        "velocity": 0.5,
        "hand": "left"
      },
      {
        "midi": 59,
        "time": 20.313,
        "duration": 0.156,
        "velocity": 0.5,
        "hand": "left"
      },
      {
        "midi": 51,
        "time": 20.469,
        "duration": 0.156,
        "velocity": 0.5,
        "hand": "left"
      },
      {
        "midi": 44,
        "time": 20.625,
        "duration": 0.156,
        "velocity": 0.5,
        "hand": "left"
      },
      {
        "midi": 68,
        "time": 20.625,
        "duration": 0.156,
        "velocity": 0.5,
        "hand": "right"
      },
      {
        "midi": 51,
        "time": 20.781,
        "duration": 0.156,
        "velocity": 0.5,
        "hand": "left"
      },
      {
        "midi": 68,
        "time": 20.781,
        "duration": 0.156,
        "velocity": 0.5,
        "hand": "right"
      },
      {
        "midi": 59,
        "time": 20.938,
        "duration": 0.156,
        "velocity": 0.5,
        "hand": "left"
      },
      {
        "midi": 68,
        "time": 20.938,
        "duration": 0.156,
        "velocity": 0.5,
        "hand": "right"
      },
      {
        "midi": 51,
        "time": 21.094,
        "duration": 0.156,
        "velocity": 0.5,
        "hand": "left"
      },
      {
        "midi": 68,
        "time": 21.094,
        "duration": 0.156,
        "velocity": 0.5,
        "hand": "right"
      },
      {
        "midi": 59,
        "time": 21.25,
        "duration": 0.156,
        "velocity": 0.5,
        "hand": "left"
      },
      {
        "midi": 68,
        "time": 21.25,
        "duration": 0.313,
        "velocity": 0.5,
        "hand": "right"
      },
      {
        "midi": 51,
        "time": 21.406,
        "duration": 0.156,
        "velocity": 0.5,
        "hand": "left"
      },
      {
        "midi": 43,
        "time": 21.563,
        "duration": 0.156,
        "velocity": 0.5,
        "hand": "left"
      },
      {
        "midi": 68,
        "time": 21.563,
        "duration": 0.156,
        "velocity": 0.5,
        "hand": "right"
      },
      {
        "midi": 51,
        "time": 21.719,
        "duration": 0.156,
        "velocity": 0.5,
        "hand": "left"
      },
      {
        "midi": 68,
        "time": 21.719,
        "duration": 0.156,
        "velocity": 0.5,
        "hand": "right"
      },
      {
        "midi": 59,
        "time": 21.875,
        "duration": 0.156,
        "velocity": 0.5,
        "hand": "left"
      },
      {
        "midi": 68,
        "time": 21.875,
        "duration": 0.156,
        "velocity": 0.5,
        "hand": "right"
      },
      {
        "midi": 51,
        "time": 22.031,
        "duration": 0.156,
        "velocity": 0.5,
        "hand": "left"
      },
      {
        "midi": 68,
        "time": 22.031,
        "duration": 0.156,
        "velocity": 0.5,
        "hand": "right"
      },
      {
        "midi": 59,
        "time": 22.188,
        "duration": 0.156,
        "velocity": 0.5,
        "hand": "left"
      },
      {
        "midi": 68,
        "time": 22.188,
        "duration": 0.313,
        "velocity": 0.5,
        "hand": "right"
      },
      {
        "midi": 51,
        "time": 22.344,
        "duration": 0.156,
        "velocity": 0.5,
        "hand": "left"
      },
      {
        "midi": 42,
        "time": 22.5,
        "duration": 0.156,
        "velocity": 0.5,
        "hand": "left"
      },
      {
        "midi": 68,
        "time": 22.5,
        "duration": 0.156,
        "velocity": 0.5,
        "hand": "right"
      },
      {
        "midi": 49,
        "time": 22.656,
        "duration": 0.156,
        "velocity": 0.5,
        "hand": "left"
      },
      {
        "midi": 68,
        "time": 22.656,
        "duration": 0.156,
        "velocity": 0.5,
        "hand": "right"
      },
      {
        "midi": 57,
        "time": 22.813,
        "duration": 0.156,
        "velocity": 0.5,
        "hand": "left"
      },
      {
        "midi": 68,
        "time": 22.813,
        "duration": 0.156,
        "velocity": 0.5,
        "hand": "right"
      },
      {
        "midi": 49,
        "time": 22.969,
        "duration": 0.156,
        "velocity": 0.5,
        "hand": "left"
      },
      {
        "midi": 68,
        "time": 22.969,
        "duration": 0.156,
        "velocity": 0.5,
        "hand": "right"
      },
      {
        "midi": 57,
        "time": 23.125,
        "duration": 0.156,
        "velocity": 0.5,
        "hand": "left"
      },
      {
        "midi": 68,
        "time": 23.125,
        "duration": 0.156,
        "velocity": 0.5,
        "hand": "right"
      },
      {
        "midi": 49,
        "time": 23.281,
        "duration": 0.156,
        "velocity": 0.5,
        "hand": "left"
      },
      {
        "midi": 66,
        "time": 23.281,
        "duration": 0.156,
        "velocity": 0.5,
        "hand": "right"
      },
      {
        "midi": 42,
        "time": 23.438,
        "duration": 0.156,
        "velocity": 0.5,
        "hand": "left"
      },
      {
        "midi": 90,
        "time": 23.438,
        "duration": 0.156,
        "velocity": 0.6,
        "hand": "right"
      },
      {
        "midi": 49,
        "time": 23.594,
        "duration": 0.156,
        "velocity": 0.5,
        "hand": "left"
      },
      {
        "midi": 57,
        "time": 23.75,
        "duration": 0.156,
        "velocity": 0.5,
        "hand": "left"
      },
      {
        "midi": 49,
        "time": 23.906,
        "duration": 0.156,
        "velocity": 0.5,
        "hand": "left"
      },
      {
        "midi": 57,
        "time": 24.063,
        "duration": 0.156,
        "velocity": 0.5,
        "hand": "left"
      },
      {
        "midi": 49,
        "time": 24.219,
        "duration": 0.156,
        "velocity": 0.5,
        "hand": "left"
      },
      {
        "midi": 42,
        "time": 24.375,
        "duration": 0.156,
        "velocity": 0.5,
        "hand": "left"
      },
      {
        "midi": 68,
        "time": 24.375,
        "duration": 0.156,
        "velocity": 0.5,
        "hand": "right"
      },
      {
        "midi": 49,
        "time": 24.531,
        "duration": 0.156,
        "velocity": 0.5,
        "hand": "left"
      },
      {
        "midi": 68,
        "time": 24.531,
        "duration": 0.156,
        "velocity": 0.5,
        "hand": "right"
      },
      {
        "midi": 57,
        "time": 24.688,
        "duration": 0.156,
        "velocity": 0.5,
        "hand": "left"
      },
      {
        "midi": 68,
        "time": 24.688,
        "duration": 0.156,
        "velocity": 0.5,
        "hand": "right"
      },
      {
        "midi": 49,
        "time": 24.844,
        "duration": 0.156,
        "velocity": 0.5,
        "hand": "left"
      },
      {
        "midi": 68,
        "time": 24.844,
        "duration": 0.156,
        "velocity": 0.5,
        "hand": "right"
      },
      {
        "midi": 57,
        "time": 25,
        "duration": 0.156,
        "velocity": 0.5,
        "hand": "left"
      },
      {
        "midi": 68,
        "time": 25,
        "duration": 0.156,
        "velocity": 0.5,
        "hand": "right"
      },
      {
        "midi": 49,
        "time": 25.156,
        "duration": 0.156,
        "velocity": 0.5,
        "hand": "left"
      },
      {
        "midi": 66,
        "time": 25.156,
        "duration": 0.156,
        "velocity": 0.5,
        "hand": "right"
      },
      {
        "midi": 42,
        "time": 25.313,
        "duration": 0.156,
        "velocity": 0.5,
        "hand": "left"
      },
      {
        "midi": 90,
        "time": 25.313,
        "duration": 0.156,
        "velocity": 0.6,
        "hand": "right"
      },
      {
        "midi": 49,
        "time": 25.469,
        "duration": 0.156,
        "velocity": 0.5,
        "hand": "left"
      },
      {
        "midi": 57,
        "time": 25.625,
        "duration": 0.156,
        "velocity": 0.5,
        "hand": "left"
      },
      {
        "midi": 49,
        "time": 25.781,
        "duration": 0.156,
        "velocity": 0.5,
        "hand": "left"
      },
      {
        "midi": 57,
        "time": 25.938,
        "duration": 0.156,
        "velocity": 0.5,
        "hand": "left"
      },
      {
        "midi": 49,
        "time": 26.094,
        "duration": 0.156,
        "velocity": 0.5,
        "hand": "left"
      },
      {
        "midi": 40,
        "time": 26.25,
        "duration": 0.156,
        "velocity": 0.5,
        "hand": "left"
      },
      {
        "midi": 68,
        "time": 26.25,
        "duration": 0.156,
        "velocity": 0.5,
        "hand": "right"
      },
      {
        "midi": 47,
        "time": 26.406,
        "duration": 0.156,
        "velocity": 0.5,
        "hand": "left"
      },
      {
        "midi": 68,
        "time": 26.406,
        "duration": 0.156,
        "velocity": 0.5,
        "hand": "right"
      },
      {
        "midi": 56,
        "time": 26.563,
        "duration": 0.156,
        "velocity": 0.5,
        "hand": "left"
      },
      {
        "midi": 68,
        "time": 26.563,
        "duration": 0.156,
        "velocity": 0.5,
        "hand": "right"
      },
      {
        "midi": 47,
        "time": 26.719,
        "duration": 0.156,
        "velocity": 0.5,
        "hand": "left"
      },
      {
        "midi": 68,
        "time": 26.719,
        "duration": 0.156,
        "velocity": 0.5,
        "hand": "right"
      },
      {
        "midi": 56,
        "time": 26.875,
        "duration": 0.156,
        "velocity": 0.5,
        "hand": "left"
      },
      {
        "midi": 68,
        "time": 26.875,
        "duration": 0.313,
        "velocity": 0.5,
        "hand": "right"
      },
      {
        "midi": 47,
        "time": 27.031,
        "duration": 0.156,
        "velocity": 0.5,
        "hand": "left"
      },
      {
        "midi": 40,
        "time": 27.188,
        "duration": 0.156,
        "velocity": 0.5,
        "hand": "left"
      },
      {
        "midi": 68,
        "time": 27.188,
        "duration": 0.156,
        "velocity": 0.5,
        "hand": "right"
      },
      {
        "midi": 75,
        "time": 27.188,
        "duration": 0.938,
        "velocity": 0.5,
        "hand": "right"
      },
      {
        "midi": 47,
        "time": 27.344,
        "duration": 0.156,
        "velocity": 0.5,
        "hand": "left"
      },
      {
        "midi": 68,
        "time": 27.344,
        "duration": 0.156,
        "velocity": 0.5,
        "hand": "right"
      },
      {
        "midi": 56,
        "time": 27.5,
        "duration": 0.156,
        "velocity": 0.5,
        "hand": "left"
      },
      {
        "midi": 68,
        "time": 27.5,
        "duration": 0.156,
        "velocity": 0.5,
        "hand": "right"
      },
      {
        "midi": 47,
        "time": 27.656,
        "duration": 0.156,
        "velocity": 0.5,
        "hand": "left"
      },
      {
        "midi": 68,
        "time": 27.656,
        "duration": 0.156,
        "velocity": 0.5,
        "hand": "right"
      },
      {
        "midi": 56,
        "time": 27.813,
        "duration": 0.156,
        "velocity": 0.5,
        "hand": "left"
      },
      {
        "midi": 68,
        "time": 27.813,
        "duration": 0.313,
        "velocity": 0.5,
        "hand": "right"
      },
      {
        "midi": 47,
        "time": 27.969,
        "duration": 0.156,
        "velocity": 0.5,
        "hand": "left"
      },
      {
        "midi": 40,
        "time": 28.125,
        "duration": 0.156,
        "velocity": 0.5,
        "hand": "left"
      },
      {
        "midi": 68,
        "time": 28.125,
        "duration": 0.313,
        "velocity": 0.5,
        "hand": "right"
      },
      {
        "midi": 76,
        "time": 28.125,
        "duration": 0.938,
        "velocity": 0.5,
        "hand": "right"
      },
      {
        "midi": 47,
        "time": 28.281,
        "duration": 0.156,
        "velocity": 0.51,
        "hand": "left"
      },
      {
        "midi": 56,
        "time": 28.438,
        "duration": 0.156,
        "velocity": 0.52,
        "hand": "left"
      },
      {
        "midi": 68,
        "time": 28.438,
        "duration": 0.313,
        "velocity": 0.52,
        "hand": "right"
      },
      {
        "midi": 47,
        "time": 28.594,
        "duration": 0.156,
        "velocity": 0.54,
        "hand": "left"
      },
      {
        "midi": 56,
        "time": 28.75,
        "duration": 0.156,
        "velocity": 0.54,
        "hand": "left"
      },
      {
        "midi": 68,
        "time": 28.75,
        "duration": 0.156,
        "velocity": 0.54,
        "hand": "right"
      },
      {
        "midi": 47,
        "time": 28.906,
        "duration": 0.156,
        "velocity": 0.55,
        "hand": "left"
      },
      {
        "midi": 66,
        "time": 28.906,
        "duration": 0.156,
        "velocity": 0.55,
        "hand": "right"
      },
      {
        "midi": 40,
        "time": 29.063,
        "duration": 0.156,
        "velocity": 0.57,
        "hand": "left"
      },
      {
        "midi": 64,
        "time": 29.063,
        "duration": 0.313,
        "velocity": 0.57,
        "hand": "right"
      },
      {
        "midi": 78,
        "time": 29.063,
        "duration": 0.938,
        "velocity": 0.57,
        "hand": "right"
      },
      {
        "midi": 47,
        "time": 29.219,
        "duration": 0.156,
        "velocity": 0.57,
        "hand": "left"
      },
      {
        "midi": 56,
        "time": 29.375,
        "duration": 0.156,
        "velocity": 0.58,
        "hand": "left"
      },
      {
        "midi": 68,
        "time": 29.375,
        "duration": 0.313,
        "velocity": 0.58,
        "hand": "right"
      },
      {
        "midi": 47,
        "time": 29.531,
        "duration": 0.156,
        "velocity": 0.6,
        "hand": "left"
      },
      {
        "midi": 56,
        "time": 29.688,
        "duration": 0.156,
        "velocity": 0.61,
        "hand": "left"
      },
      {
        "midi": 71,
        "time": 29.688,
        "duration": 0.313,
        "velocity": 0.61,
        "hand": "right"
      },
      {
        "midi": 47,
        "time": 29.844,
        "duration": 0.156,
        "velocity": 0.61,
        "hand": "left"
      },
      {
        "midi": 45,
        "time": 30,
        "duration": 0.156,
        "velocity": 0.63,
        "hand": "left"
      },
      {
        "midi": 57,
        "time": 30,
        "duration": 0.156,
        "velocity": 0.63,
        "hand": "left"
      },
      {
        "midi": 64,
        "time": 30,
        "duration": 1.25,
        "velocity": 0.63,
        "hand": "right"
      },
      {
        "midi": 69,
        "time": 30,
        "duration": 1.25,
        "velocity": 0.63,
        "hand": "right"
      },
      {
        "midi": 52,
        "time": 30.156,
        "duration": 0.156,
        "velocity": 0.63,
        "hand": "left"
      },
      {
        "midi": 73,
        "time": 30.156,
        "duration": 1.094,
        "velocity": 0.63,
        "hand": "right"
      },
      {
        "midi": 61,
        "time": 30.313,
        "duration": 0.156,
        "velocity": 0.63,
        "hand": "right"
      },
      {
        "midi": 52,
        "time": 30.469,
        "duration": 0.156,
        "velocity": 0.63,
        "hand": "left"
      },
      {
        "midi": 61,
        "time": 30.625,
        "duration": 0.156,
        "velocity": 0.63,
        "hand": "right"
      },
      {
        "midi": 52,
        "time": 30.781,
        "duration": 0.156,
        "velocity": 0.63,
        "hand": "left"
      },
      {
        "midi": 45,
        "time": 30.938,
        "duration": 0.156,
        "velocity": 0.63,
        "hand": "left"
      },
      {
        "midi": 57,
        "time": 30.938,
        "duration": 0.156,
        "velocity": 0.63,
        "hand": "left"
      },
      {
        "midi": 52,
        "time": 31.094,
        "duration": 0.156,
        "velocity": 0.63,
        "hand": "left"
      },
      {
        "midi": 61,
        "time": 31.25,
        "duration": 0.156,
        "velocity": 0.63,
        "hand": "right"
      },
      {
        "midi": 73,
        "time": 31.25,
        "duration": 0.313,
        "velocity": 0.63,
        "hand": "right"
      },
      {
        "midi": 52,
        "time": 31.406,
        "duration": 0.156,
        "velocity": 0.63,
        "hand": "left"
      },
      {
        "midi": 61,
        "time": 31.563,
        "duration": 0.156,
        "velocity": 0.63,
        "hand": "right"
      },
      {
        "midi": 69,
        "time": 31.563,
        "duration": 0.313,
        "velocity": 0.63,
        "hand": "right"
      },
      {
        "midi": 75,
        "time": 31.563,
        "duration": 0.313,
        "velocity": 0.63,
        "hand": "right"
      },
      {
        "midi": 52,
        "time": 31.719,
        "duration": 0.156,
        "velocity": 0.63,
        "hand": "left"
      },
      {
        "midi": 45,
        "time": 31.875,
        "duration": 0.156,
        "velocity": 0.63,
        "hand": "left"
      },
      {
        "midi": 57,
        "time": 31.875,
        "duration": 0.156,
        "velocity": 0.63,
        "hand": "left"
      },
      {
        "midi": 69,
        "time": 31.875,
        "duration": 1.25,
        "velocity": 0.63,
        "hand": "right"
      },
      {
        "midi": 73,
        "time": 31.875,
        "duration": 1.25,
        "velocity": 0.63,
        "hand": "right"
      },
      {
        "midi": 76,
        "time": 31.875,
        "duration": 1.25,
        "velocity": 0.63,
        "hand": "right"
      },
      {
        "midi": 52,
        "time": 32.031,
        "duration": 0.156,
        "velocity": 0.63,
        "hand": "left"
      },
      {
        "midi": 61,
        "time": 32.188,
        "duration": 0.156,
        "velocity": 0.63,
        "hand": "right"
      },
      {
        "midi": 52,
        "time": 32.344,
        "duration": 0.156,
        "velocity": 0.63,
        "hand": "left"
      },
      {
        "midi": 61,
        "time": 32.5,
        "duration": 0.156,
        "velocity": 0.63,
        "hand": "right"
      },
      {
        "midi": 52,
        "time": 32.656,
        "duration": 0.156,
        "velocity": 0.63,
        "hand": "left"
      },
      {
        "midi": 45,
        "time": 32.813,
        "duration": 0.156,
        "velocity": 0.63,
        "hand": "left"
      },
      {
        "midi": 57,
        "time": 32.813,
        "duration": 0.156,
        "velocity": 0.63,
        "hand": "left"
      },
      {
        "midi": 52,
        "time": 32.969,
        "duration": 0.156,
        "velocity": 0.63,
        "hand": "left"
      },
      {
        "midi": 61,
        "time": 33.125,
        "duration": 0.156,
        "velocity": 0.63,
        "hand": "right"
      },
      {
        "midi": 69,
        "time": 33.125,
        "duration": 0.313,
        "velocity": 0.63,
        "hand": "right"
      },
      {
        "midi": 73,
        "time": 33.125,
        "duration": 0.313,
        "velocity": 0.63,
        "hand": "right"
      },
      {
        "midi": 52,
        "time": 33.281,
        "duration": 0.156,
        "velocity": 0.63,
        "hand": "left"
      },
      {
        "midi": 61,
        "time": 33.438,
        "duration": 0.156,
        "velocity": 0.63,
        "hand": "right"
      },
      {
        "midi": 68,
        "time": 33.438,
        "duration": 0.313,
        "velocity": 0.63,
        "hand": "right"
      },
      {
        "midi": 76,
        "time": 33.438,
        "duration": 0.313,
        "velocity": 0.63,
        "hand": "right"
      },
      {
        "midi": 52,
        "time": 33.594,
        "duration": 0.156,
        "velocity": 0.63,
        "hand": "left"
      },
      {
        "midi": 44,
        "time": 33.75,
        "duration": 0.156,
        "velocity": 0.63,
        "hand": "left"
      },
      {
        "midi": 56,
        "time": 33.75,
        "duration": 0.156,
        "velocity": 0.63,
        "hand": "left"
      },
      {
        "midi": 68,
        "time": 33.75,
        "duration": 0.313,
        "velocity": 0.63,
        "hand": "right"
      },
      {
        "midi": 75,
        "time": 33.75,
        "duration": 0.313,
        "velocity": 0.63,
        "hand": "right"
      },
      {
        "midi": 51,
        "time": 33.906,
        "duration": 0.156,
        "velocity": 0.63,
        "hand": "left"
      },
      {
        "midi": 59,
        "time": 34.063,
        "duration": 0.156,
        "velocity": 0.63,
        "hand": "left"
      },
      {
        "midi": 73,
        "time": 34.063,
        "duration": 0.313,
        "velocity": 0.63,
        "hand": "right"
      },
      {
        "midi": 51,
        "time": 34.219,
        "duration": 0.156,
        "velocity": 0.63,
        "hand": "left"
      },
      {
        "midi": 59,
        "time": 34.375,
        "duration": 0.156,
        "velocity": 0.63,
        "hand": "left"
      },
      {
        "midi": 68,
        "time": 34.375,
        "duration": 0.313,
        "velocity": 0.63,
        "hand": "right"
      },
      {
        "midi": 71,
        "time": 34.375,
        "duration": 0.313,
        "velocity": 0.63,
        "hand": "right"
      },
      {
        "midi": 51,
        "time": 34.531,
        "duration": 0.156,
        "velocity": 0.63,
        "hand": "left"
      },
      {
        "midi": 44,
        "time": 34.688,
        "duration": 0.156,
        "velocity": 0.63,
        "hand": "left"
      },
      {
        "midi": 56,
        "time": 34.688,
        "duration": 0.156,
        "velocity": 0.63,
        "hand": "left"
      },
      {
        "midi": 68,
        "time": 34.688,
        "duration": 0.625,
        "velocity": 0.63,
        "hand": "right"
      },
      {
        "midi": 71,
        "time": 34.688,
        "duration": 0.625,
        "velocity": 0.63,
        "hand": "right"
      },
      {
        "midi": 51,
        "time": 34.844,
        "duration": 0.156,
        "velocity": 0.63,
        "hand": "left"
      },
      {
        "midi": 59,
        "time": 35,
        "duration": 0.156,
        "velocity": 0.63,
        "hand": "left"
      },
      {
        "midi": 51,
        "time": 35.156,
        "duration": 0.156,
        "velocity": 0.63,
        "hand": "left"
      },
      {
        "midi": 59,
        "time": 35.313,
        "duration": 0.156,
        "velocity": 0.63,
        "hand": "left"
      },
      {
        "midi": 68,
        "time": 35.313,
        "duration": 0.313,
        "velocity": 0.63,
        "hand": "right"
      },
      {
        "midi": 51,
        "time": 35.469,
        "duration": 0.156,
        "velocity": 0.63,
        "hand": "left"
      },
      {
        "midi": 44,
        "time": 35.625,
        "duration": 0.156,
        "velocity": 0.63,
        "hand": "left"
      },
      {
        "midi": 56,
        "time": 35.625,
        "duration": 0.156,
        "velocity": 0.63,
        "hand": "left"
      },
      {
        "midi": 63,
        "time": 35.625,
        "duration": 0.313,
        "velocity": 0.63,
        "hand": "right"
      },
      {
        "midi": 68,
        "time": 35.625,
        "duration": 0.313,
        "velocity": 0.63,
        "hand": "right"
      },
      {
        "midi": 71,
        "time": 35.625,
        "duration": 0.313,
        "velocity": 0.63,
        "hand": "right"
      },
      {
        "midi": 75,
        "time": 35.625,
        "duration": 0.313,
        "velocity": 0.63,
        "hand": "right"
      },
      {
        "midi": 51,
        "time": 35.781,
        "duration": 0.156,
        "velocity": 0.63,
        "hand": "left"
      },
      {
        "midi": 59,
        "time": 35.938,
        "duration": 0.156,
        "velocity": 0.63,
        "hand": "left"
      },
      {
        "midi": 73,
        "time": 35.938,
        "duration": 0.313,
        "velocity": 0.63,
        "hand": "right"
      },
      {
        "midi": 51,
        "time": 36.094,
        "duration": 0.156,
        "velocity": 0.63,
        "hand": "left"
      },
      {
        "midi": 59,
        "time": 36.25,
        "duration": 0.156,
        "velocity": 0.63,
        "hand": "left"
      },
      {
        "midi": 68,
        "time": 36.25,
        "duration": 0.313,
        "velocity": 0.63,
        "hand": "right"
      },
      {
        "midi": 71,
        "time": 36.25,
        "duration": 0.313,
        "velocity": 0.63,
        "hand": "right"
      },
      {
        "midi": 51,
        "time": 36.406,
        "duration": 0.156,
        "velocity": 0.63,
        "hand": "left"
      },
      {
        "midi": 43,
        "time": 36.563,
        "duration": 0.156,
        "velocity": 0.63,
        "hand": "left"
      },
      {
        "midi": 55,
        "time": 36.563,
        "duration": 0.156,
        "velocity": 0.63,
        "hand": "left"
      },
      {
        "midi": 63,
        "time": 36.563,
        "duration": 0.313,
        "velocity": 0.63,
        "hand": "right"
      },
      {
        "midi": 67,
        "time": 36.563,
        "duration": 0.313,
        "velocity": 0.63,
        "hand": "right"
      },
      {
        "midi": 71,
        "time": 36.563,
        "duration": 0.313,
        "velocity": 0.63,
        "hand": "right"
      },
      {
        "midi": 75,
        "time": 36.563,
        "duration": 0.313,
        "velocity": 0.63,
        "hand": "right"
      },
      {
        "midi": 51,
        "time": 36.719,
        "duration": 0.156,
        "velocity": 0.63,
        "hand": "left"
      },
      {
        "midi": 59,
        "time": 36.875,
        "duration": 0.156,
        "velocity": 0.63,
        "hand": "left"
      },
      {
        "midi": 73,
        "time": 36.875,
        "duration": 0.313,
        "velocity": 0.63,
        "hand": "right"
      },
      {
        "midi": 51,
        "time": 37.031,
        "duration": 0.156,
        "velocity": 0.63,
        "hand": "left"
      },
      {
        "midi": 59,
        "time": 37.188,
        "duration": 0.156,
        "velocity": 0.63,
        "hand": "left"
      },
      {
        "midi": 67,
        "time": 37.188,
        "duration": 0.313,
        "velocity": 0.63,
        "hand": "right"
      },
      {
        "midi": 71,
        "time": 37.188,
        "duration": 0.313,
        "velocity": 0.63,
        "hand": "right"
      },
      {
        "midi": 51,
        "time": 37.344,
        "duration": 0.156,
        "velocity": 0.63,
        "hand": "left"
      },
      {
        "midi": 42,
        "time": 37.5,
        "duration": 0.156,
        "velocity": 0.63,
        "hand": "left"
      },
      {
        "midi": 54,
        "time": 37.5,
        "duration": 0.156,
        "velocity": 0.63,
        "hand": "left"
      },
      {
        "midi": 66,
        "time": 37.5,
        "duration": 2.344,
        "velocity": 0.63,
        "hand": "right"
      },
      {
        "midi": 71,
        "time": 37.5,
        "duration": 0.156,
        "velocity": 0.63,
        "hand": "right"
      },
      {
        "midi": 49,
        "time": 37.656,
        "duration": 0.156,
        "velocity": 0.63,
        "hand": "left"
      },
      {
        "midi": 69,
        "time": 37.656,
        "duration": 2.188,
        "velocity": 0.63,
        "hand": "right"
      },
      {
        "midi": 57,
        "time": 37.813,
        "duration": 0.156,
        "velocity": 0.63,
        "hand": "left"
      },
      {
        "midi": 49,
        "time": 37.969,
        "duration": 0.156,
        "velocity": 0.63,
        "hand": "left"
      },
      {
        "midi": 57,
        "time": 38.125,
        "duration": 0.156,
        "velocity": 0.63,
        "hand": "left"
      },
      {
        "midi": 49,
        "time": 38.281,
        "duration": 0.156,
        "velocity": 0.63,
        "hand": "left"
      },
      {
        "midi": 42,
        "time": 38.438,
        "duration": 0.156,
        "velocity": 0.63,
        "hand": "left"
      },
      {
        "midi": 54,
        "time": 38.438,
        "duration": 0.156,
        "velocity": 0.63,
        "hand": "left"
      },
      {
        "midi": 49,
        "time": 38.594,
        "duration": 0.156,
        "velocity": 0.63,
        "hand": "left"
      },
      {
        "midi": 57,
        "time": 38.75,
        "duration": 0.156,
        "velocity": 0.63,
        "hand": "left"
      },
      {
        "midi": 49,
        "time": 38.906,
        "duration": 0.156,
        "velocity": 0.63,
        "hand": "left"
      },
      {
        "midi": 57,
        "time": 39.063,
        "duration": 0.156,
        "velocity": 0.63,
        "hand": "left"
      },
      {
        "midi": 49,
        "time": 39.219,
        "duration": 0.156,
        "velocity": 0.63,
        "hand": "left"
      },
      {
        "midi": 42,
        "time": 39.375,
        "duration": 0.156,
        "velocity": 0.63,
        "hand": "left"
      },
      {
        "midi": 54,
        "time": 39.375,
        "duration": 0.156,
        "velocity": 0.63,
        "hand": "left"
      },
      {
        "midi": 49,
        "time": 39.531,
        "duration": 0.156,
        "velocity": 0.63,
        "hand": "left"
      },
      {
        "midi": 57,
        "time": 39.688,
        "duration": 0.156,
        "velocity": 0.63,
        "hand": "left"
      },
      {
        "midi": 49,
        "time": 39.844,
        "duration": 0.156,
        "velocity": 0.63,
        "hand": "left"
      },
      {
        "midi": 57,
        "time": 40,
        "duration": 0.156,
        "velocity": 0.63,
        "hand": "left"
      },
      {
        "midi": 64,
        "time": 40,
        "duration": 0.313,
        "velocity": 0.63,
        "hand": "right"
      },
      {
        "midi": 73,
        "time": 40,
        "duration": 0.313,
        "velocity": 0.63,
        "hand": "right"
      },
      {
        "midi": 49,
        "time": 40.156,
        "duration": 0.156,
        "velocity": 0.63,
        "hand": "left"
      },
      {
        "midi": 42,
        "time": 40.313,
        "duration": 0.156,
        "velocity": 0.63,
        "hand": "left"
      },
      {
        "midi": 54,
        "time": 40.313,
        "duration": 0.156,
        "velocity": 0.63,
        "hand": "left"
      },
      {
        "midi": 61,
        "time": 40.313,
        "duration": 0.313,
        "velocity": 0.63,
        "hand": "right"
      },
      {
        "midi": 64,
        "time": 40.313,
        "duration": 0.313,
        "velocity": 0.63,
        "hand": "right"
      },
      {
        "midi": 66,
        "time": 40.313,
        "duration": 0.313,
        "velocity": 0.63,
        "hand": "right"
      },
      {
        "midi": 71,
        "time": 40.313,
        "duration": 0.313,
        "velocity": 0.63,
        "hand": "right"
      },
      {
        "midi": 49,
        "time": 40.469,
        "duration": 0.156,
        "velocity": 0.63,
        "hand": "left"
      },
      {
        "midi": 57,
        "time": 40.625,
        "duration": 0.156,
        "velocity": 0.63,
        "hand": "left"
      },
      {
        "midi": 66,
        "time": 40.625,
        "duration": 0.313,
        "velocity": 0.63,
        "hand": "right"
      },
      {
        "midi": 69,
        "time": 40.625,
        "duration": 0.313,
        "velocity": 0.63,
        "hand": "right"
      },
      {
        "midi": 49,
        "time": 40.781,
        "duration": 0.156,
        "velocity": 0.63,
        "hand": "left"
      },
      {
        "midi": 57,
        "time": 40.938,
        "duration": 0.156,
        "velocity": 0.63,
        "hand": "left"
      },
      {
        "midi": 66,
        "time": 40.938,
        "duration": 0.313,
        "velocity": 0.63,
        "hand": "right"
      },
      {
        "midi": 68,
        "time": 40.938,
        "duration": 0.313,
        "velocity": 0.63,
        "hand": "right"
      },
      {
        "midi": 49,
        "time": 41.094,
        "duration": 0.156,
        "velocity": 0.63,
        "hand": "left"
      },
      {
        "midi": 44,
        "time": 41.25,
        "duration": 0.313,
        "velocity": 0.63,
        "hand": "left"
      },
      {
        "midi": 56,
        "time": 41.25,
        "duration": 0.313,
        "velocity": 0.63,
        "hand": "left"
      },
      {
        "midi": 60,
        "time": 41.25,
        "duration": 0.938,
        "velocity": 0.63,
        "hand": "right"
      },
      {
        "midi": 63,
        "time": 41.25,
        "duration": 0.938,
        "velocity": 0.63,
        "hand": "right"
      },
      {
        "midi": 68,
        "time": 41.25,
        "duration": 0.938,
        "velocity": 0.63,
        "hand": "right"
      },
      {
        "midi": 44,
        "time": 41.563,
        "duration": 0.313,
        "velocity": 0.64,
        "hand": "left"
      },
      {
        "midi": 56,
        "time": 41.563,
        "duration": 0.313,
        "velocity": 0.64,
        "hand": "left"
      },
      {
        "midi": 44,
        "time": 41.875,
        "duration": 0.313,
        "velocity": 0.65,
        "hand": "left"
      },
      {
        "midi": 56,
        "time": 41.875,
        "duration": 0.313,
        "velocity": 0.65,
        "hand": "left"
      },
      {
        "midi": 44,
        "time": 42.188,
        "duration": 0.313,
        "velocity": 0.66,
        "hand": "left"
      },
      {
        "midi": 56,
        "time": 42.188,
        "duration": 0.313,
        "velocity": 0.66,
        "hand": "left"
      },
      {
        "midi": 61,
        "time": 42.188,
        "duration": 0.938,
        "velocity": 0.66,
        "hand": "right"
      },
      {
        "midi": 68,
        "time": 42.188,
        "duration": 0.938,
        "velocity": 0.66,
        "hand": "right"
      },
      {
        "midi": 73,
        "time": 42.188,
        "duration": 0.938,
        "velocity": 0.66,
        "hand": "right"
      },
      {
        "midi": 44,
        "time": 42.5,
        "duration": 0.313,
        "velocity": 0.67,
        "hand": "left"
      },
      {
        "midi": 56,
        "time": 42.5,
        "duration": 0.313,
        "velocity": 0.67,
        "hand": "left"
      },
      {
        "midi": 44,
        "time": 42.813,
        "duration": 0.313,
        "velocity": 0.68,
        "hand": "left"
      },
      {
        "midi": 56,
        "time": 42.813,
        "duration": 0.313,
        "velocity": 0.68,
        "hand": "left"
      },
      {
        "midi": 51,
        "time": 43.125,
        "duration": 0.156,
        "velocity": 0.69,
        "hand": "left"
      },
      {
        "midi": 56,
        "time": 43.125,
        "duration": 0.156,
        "velocity": 0.69,
        "hand": "left"
      },
      {
        "midi": 64,
        "time": 43.125,
        "duration": 0.938,
        "velocity": 0.69,
        "hand": "right"
      },
      {
        "midi": 68,
        "time": 43.125,
        "duration": 0.938,
        "velocity": 0.69,
        "hand": "right"
      },
      {
        "midi": 76,
        "time": 43.125,
        "duration": 0.938,
        "velocity": 0.69,
        "hand": "right"
      },
      {
        "midi": 44,
        "time": 43.281,
        "duration": 0.156,
        "velocity": 0.69,
        "hand": "left"
      },
      {
        "midi": 51,
        "time": 43.438,
        "duration": 0.156,
        "velocity": 0.7,
        "hand": "left"
      },
      {
        "midi": 56,
        "time": 43.438,
        "duration": 0.156,
        "velocity": 0.7,
        "hand": "left"
      },
      {
        "midi": 44,
        "time": 43.594,
        "duration": 0.156,
        "velocity": 0.71,
        "hand": "left"
      },
      {
        "midi": 51,
        "time": 43.75,
        "duration": 0.156,
        "velocity": 0.71,
        "hand": "left"
      },
      {
        "midi": 56,
        "time": 43.75,
        "duration": 0.156,
        "velocity": 0.71,
        "hand": "left"
      },
      {
        "midi": 44,
        "time": 43.906,
        "duration": 0.156,
        "velocity": 0.72,
        "hand": "left"
      },
      {
        "midi": 60,
        "time": 44.063,
        "duration": 0.938,
        "velocity": 0.87,
        "hand": "right"
      },
      {
        "midi": 63,
        "time": 44.063,
        "duration": 0.938,
        "velocity": 0.87,
        "hand": "right"
      },
      {
        "midi": 66,
        "time": 44.063,
        "duration": 0.938,
        "velocity": 0.87,
        "hand": "right"
      },
      {
        "midi": 68,
        "time": 44.063,
        "duration": 0.938,
        "velocity": 0.87,
        "hand": "right"
      },
      {
        "midi": 72,
        "time": 44.063,
        "duration": 0.938,
        "velocity": 0.87,
        "hand": "right"
      },
      {
        "midi": 78,
        "time": 44.063,
        "duration": 0.938,
        "velocity": 0.87,
        "hand": "right"
      },
      {
        "midi": 33,
        "time": 45,
        "duration": 0.313,
        "velocity": 0.91,
        "hand": "left"
      },
      {
        "midi": 45,
        "time": 45,
        "duration": 0.313,
        "velocity": 0.91,
        "hand": "left"
      },
      {
        "midi": 80,
        "time": 45,
        "duration": 0.078,
        "velocity": 0.76,
        "hand": "right"
      },
      {
        "midi": 80,
        "time": 45,
        "duration": 0.156,
        "velocity": 0.91,
        "hand": "right"
      },
      {
        "midi": 85,
        "time": 45,
        "duration": 0.469,
        "velocity": 0.91,
        "hand": "right"
      },
      {
        "midi": 88,
        "time": 45,
        "duration": 1.719,
        "velocity": 0.91,
        "hand": "right"
      },
      {
        "midi": 92,
        "time": 45,
        "duration": 1.719,
        "velocity": 0.91,
        "hand": "right"
      },
      {
        "midi": 80,
        "time": 45.156,
        "duration": 0.625,
        "velocity": 0.76,
        "hand": "right"
      },
      {
        "midi": 83,
        "time": 45.313,
        "duration": 0.156,
        "velocity": 0.76,
        "hand": "right"
      },
      {
        "midi": 85,
        "time": 45.469,
        "duration": 0.938,
        "velocity": 0.76,
        "hand": "right"
      },
      {
        "midi": 83,
        "time": 45.625,
        "duration": 0.156,
        "velocity": 0.76,
        "hand": "right"
      },
      {
        "midi": 80,
        "time": 45.781,
        "duration": 0.313,
        "velocity": 0.76,
        "hand": "right"
      },
      {
        "midi": 56,
        "time": 45.938,
        "duration": 0.938,
        "velocity": 0.76,
        "hand": "left"
      },
      {
        "midi": 61,
        "time": 45.938,
        "duration": 0.938,
        "velocity": 0.76,
        "hand": "right"
      },
      {
        "midi": 64,
        "time": 45.938,
        "duration": 0.938,
        "velocity": 0.76,
        "hand": "right"
      },
      {
        "midi": 78,
        "time": 45.938,
        "duration": 0.156,
        "velocity": 0.76,
        "hand": "right"
      },
      {
        "midi": 80,
        "time": 46.094,
        "duration": 0.625,
        "velocity": 0.76,
        "hand": "right"
      },
      {
        "midi": 83,
        "time": 46.25,
        "duration": 0.156,
        "velocity": 0.76,
        "hand": "right"
      },
      {
        "midi": 85,
        "time": 46.406,
        "duration": 0.313,
        "velocity": 0.76,
        "hand": "right"
      },
      {
        "midi": 83,
        "time": 46.563,
        "duration": 0.156,
        "velocity": 0.76,
        "hand": "right"
      },
      {
        "midi": 80,
        "time": 46.719,
        "duration": 0.156,
        "velocity": 0.76,
        "hand": "right"
      },
      {
        "midi": 68,
        "time": 46.875,
        "duration": 0.938,
        "velocity": 0.76,
        "hand": "right"
      },
      {
        "midi": 73,
        "time": 46.875,
        "duration": 0.938,
        "velocity": 0.76,
        "hand": "right"
      },
      {
        "midi": 76,
        "time": 46.875,
        "duration": 0.938,
        "velocity": 0.76,
        "hand": "right"
      },
      {
        "midi": 78,
        "time": 46.875,
        "duration": 0.156,
        "velocity": 0.76,
        "hand": "right"
      },
      {
        "midi": 80,
        "time": 47.031,
        "duration": 0.156,
        "velocity": 0.76,
        "hand": "right"
      },
      {
        "midi": 83,
        "time": 47.188,
        "duration": 0.156,
        "velocity": 0.76,
        "hand": "right"
      },
      {
        "midi": 85,
        "time": 47.344,
        "duration": 0.156,
        "velocity": 0.76,
        "hand": "right"
      },
      {
        "midi": 83,
        "time": 47.5,
        "duration": 0.156,
        "velocity": 0.76,
        "hand": "right"
      },
      {
        "midi": 80,
        "time": 47.656,
        "duration": 0.156,
        "velocity": 0.76,
        "hand": "right"
      },
      {
        "midi": 61,
        "time": 47.813,
        "duration": 0.938,
        "velocity": 0.76,
        "hand": "right"
      },
      {
        "midi": 64,
        "time": 47.813,
        "duration": 0.938,
        "velocity": 0.76,
        "hand": "right"
      },
      {
        "midi": 68,
        "time": 47.813,
        "duration": 0.938,
        "velocity": 0.76,
        "hand": "right"
      },
      {
        "midi": 78,
        "time": 47.813,
        "duration": 0.156,
        "velocity": 0.76,
        "hand": "right"
      },
      {
        "midi": 80,
        "time": 47.969,
        "duration": 0.156,
        "velocity": 0.76,
        "hand": "right"
      },
      {
        "midi": 83,
        "time": 48.125,
        "duration": 0.156,
        "velocity": 0.76,
        "hand": "right"
      },
      {
        "midi": 85,
        "time": 48.281,
        "duration": 0.156,
        "velocity": 0.76,
        "hand": "right"
      },
      {
        "midi": 83,
        "time": 48.438,
        "duration": 0.156,
        "velocity": 0.76,
        "hand": "right"
      },
      {
        "midi": 80,
        "time": 48.594,
        "duration": 0.156,
        "velocity": 0.76,
        "hand": "right"
      },
      {
        "midi": 33,
        "time": 48.75,
        "duration": 0.313,
        "velocity": 0.76,
        "hand": "left"
      },
      {
        "midi": 45,
        "time": 48.75,
        "duration": 0.313,
        "velocity": 0.76,
        "hand": "left"
      },
      {
        "midi": 73,
        "time": 48.75,
        "duration": 0.938,
        "velocity": 0.76,
        "hand": "right"
      },
      {
        "midi": 76,
        "time": 48.75,
        "duration": 0.938,
        "velocity": 0.76,
        "hand": "right"
      },
      {
        "midi": 80,
        "time": 48.75,
        "duration": 0.938,
        "velocity": 0.76,
        "hand": "right"
      },
      {
        "midi": 85,
        "time": 48.75,
        "duration": 0.938,
        "velocity": 0.76,
        "hand": "right"
      },
      {
        "midi": 45,
        "time": 49.688,
        "duration": 0.938,
        "velocity": 0.76,
        "hand": "left"
      },
      {
        "midi": 52,
        "time": 49.688,
        "duration": 0.938,
        "velocity": 0.76,
        "hand": "left"
      },
      {
        "midi": 56,
        "time": 49.688,
        "duration": 0.938,
        "velocity": 0.76,
        "hand": "left"
      },
      {
        "midi": 75,
        "time": 49.688,
        "duration": 0.938,
        "velocity": 0.76,
        "hand": "right"
      },
      {
        "midi": 80,
        "time": 49.688,
        "duration": 0.938,
        "velocity": 0.76,
        "hand": "right"
      },
      {
        "midi": 87,
        "time": 49.688,
        "duration": 0.938,
        "velocity": 0.76,
        "hand": "right"
      },
      {
        "midi": 33,
        "time": 50.625,
        "duration": 0.313,
        "velocity": 0.91,
        "hand": "left"
      },
      {
        "midi": 45,
        "time": 50.625,
        "duration": 0.313,
        "velocity": 0.91,
        "hand": "left"
      },
      {
        "midi": 83,
        "time": 50.625,
        "duration": 0.078,
        "velocity": 0.76,
        "hand": "right"
      },
      {
        "midi": 88,
        "time": 50.625,
        "duration": 0.078,
        "velocity": 0.76,
        "hand": "right"
      },
      {
        "midi": 95,
        "time": 50.625,
        "duration": 0.078,
        "velocity": 0.76,
        "hand": "right"
      },
      {
        "midi": 83,
        "time": 50.781,
        "duration": 0.078,
        "velocity": 0.76,
        "hand": "right"
      },
      {
        "midi": 88,
        "time": 50.781,
        "duration": 0.078,
        "velocity": 0.76,
        "hand": "right"
      },
      {
        "midi": 95,
        "time": 50.781,
        "duration": 0.078,
        "velocity": 0.76,
        "hand": "right"
      },
      {
        "midi": 52,
        "time": 50.938,
        "duration": 0.313,
        "velocity": 0.76,
        "hand": "left"
      },
      {
        "midi": 60,
        "time": 50.938,
        "duration": 0.313,
        "velocity": 0.76,
        "hand": "right"
      },
      {
        "midi": 83,
        "time": 50.938,
        "duration": 0.078,
        "velocity": 0.76,
        "hand": "right"
      },
      {
        "midi": 88,
        "time": 50.938,
        "duration": 0.078,
        "velocity": 0.76,
        "hand": "right"
      },
      {
        "midi": 95,
        "time": 50.938,
        "duration": 0.078,
        "velocity": 0.76,
        "hand": "right"
      },
      {
        "midi": 83,
        "time": 51.094,
        "duration": 0.078,
        "velocity": 0.76,
        "hand": "right"
      },
      {
        "midi": 88,
        "time": 51.094,
        "duration": 0.078,
        "velocity": 0.76,
        "hand": "right"
      },
      {
        "midi": 95,
        "time": 51.094,
        "duration": 0.078,
        "velocity": 0.76,
        "hand": "right"
      },
      {
        "midi": 52,
        "time": 51.25,
        "duration": 0.313,
        "velocity": 0.76,
        "hand": "left"
      },
      {
        "midi": 60,
        "time": 51.25,
        "duration": 0.313,
        "velocity": 0.76,
        "hand": "right"
      },
      {
        "midi": 83,
        "time": 51.25,
        "duration": 0.078,
        "velocity": 0.76,
        "hand": "right"
      },
      {
        "midi": 88,
        "time": 51.25,
        "duration": 0.078,
        "velocity": 0.76,
        "hand": "right"
      },
      {
        "midi": 95,
        "time": 51.25,
        "duration": 0.078,
        "velocity": 0.76,
        "hand": "right"
      },
      {
        "midi": 83,
        "time": 51.406,
        "duration": 0.078,
        "velocity": 0.76,
        "hand": "right"
      },
      {
        "midi": 88,
        "time": 51.406,
        "duration": 0.078,
        "velocity": 0.76,
        "hand": "right"
      },
      {
        "midi": 95,
        "time": 51.406,
        "duration": 0.078,
        "velocity": 0.76,
        "hand": "right"
      },
      {
        "midi": 42,
        "time": 51.563,
        "duration": 0.313,
        "velocity": 0.91,
        "hand": "left"
      },
      {
        "midi": 54,
        "time": 51.563,
        "duration": 0.313,
        "velocity": 0.91,
        "hand": "left"
      },
      {
        "midi": 81,
        "time": 51.563,
        "duration": 0.078,
        "velocity": 0.76,
        "hand": "right"
      },
      {
        "midi": 90,
        "time": 51.563,
        "duration": 0.078,
        "velocity": 0.76,
        "hand": "right"
      },
      {
        "midi": 93,
        "time": 51.563,
        "duration": 0.078,
        "velocity": 0.76,
        "hand": "right"
      },
      {
        "midi": 81,
        "time": 51.719,
        "duration": 0.078,
        "velocity": 0.76,
        "hand": "right"
      },
      {
        "midi": 90,
        "time": 51.719,
        "duration": 0.078,
        "velocity": 0.76,
        "hand": "right"
      },
      {
        "midi": 93,
        "time": 51.719,
        "duration": 0.078,
        "velocity": 0.76,
        "hand": "right"
      },
      {
        "midi": 57,
        "time": 51.875,
        "duration": 0.313,
        "velocity": 0.76,
        "hand": "left"
      },
      {
        "midi": 60,
        "time": 51.875,
        "duration": 0.313,
        "velocity": 0.76,
        "hand": "right"
      },
      {
        "midi": 64,
        "time": 51.875,
        "duration": 0.313,
        "velocity": 0.76,
        "hand": "right"
      },
      {
        "midi": 81,
        "time": 51.875,
        "duration": 0.078,
        "velocity": 0.76,
        "hand": "right"
      },
      {
        "midi": 90,
        "time": 51.875,
        "duration": 0.078,
        "velocity": 0.76,
        "hand": "right"
      },
      {
        "midi": 93,
        "time": 51.875,
        "duration": 0.078,
        "velocity": 0.76,
        "hand": "right"
      },
      {
        "midi": 81,
        "time": 52.031,
        "duration": 0.078,
        "velocity": 0.76,
        "hand": "right"
      },
      {
        "midi": 90,
        "time": 52.031,
        "duration": 0.078,
        "velocity": 0.76,
        "hand": "right"
      },
      {
        "midi": 93,
        "time": 52.031,
        "duration": 0.078,
        "velocity": 0.76,
        "hand": "right"
      },
      {
        "midi": 57,
        "time": 52.188,
        "duration": 0.313,
        "velocity": 0.76,
        "hand": "left"
      },
      {
        "midi": 60,
        "time": 52.188,
        "duration": 0.313,
        "velocity": 0.76,
        "hand": "right"
      },
      {
        "midi": 64,
        "time": 52.188,
        "duration": 0.313,
        "velocity": 0.76,
        "hand": "right"
      },
      {
        "midi": 81,
        "time": 52.188,
        "duration": 0.078,
        "velocity": 0.76,
        "hand": "right"
      },
      {
        "midi": 90,
        "time": 52.188,
        "duration": 0.078,
        "velocity": 0.76,
        "hand": "right"
      },
      {
        "midi": 93,
        "time": 52.188,
        "duration": 0.078,
        "velocity": 0.76,
        "hand": "right"
      },
      {
        "midi": 81,
        "time": 52.344,
        "duration": 0.078,
        "velocity": 0.76,
        "hand": "right"
      },
      {
        "midi": 90,
        "time": 52.344,
        "duration": 0.078,
        "velocity": 0.76,
        "hand": "right"
      },
      {
        "midi": 93,
        "time": 52.344,
        "duration": 0.078,
        "velocity": 0.76,
        "hand": "right"
      },
      {
        "midi": 28,
        "time": 52.5,
        "duration": 0.313,
        "velocity": 0.91,
        "hand": "left"
      },
      {
        "midi": 40,
        "time": 52.5,
        "duration": 0.313,
        "velocity": 0.91,
        "hand": "left"
      },
      {
        "midi": 80,
        "time": 52.5,
        "duration": 0.078,
        "velocity": 0.76,
        "hand": "right"
      },
      {
        "midi": 80,
        "time": 52.5,
        "duration": 0.469,
        "velocity": 0.91,
        "hand": "right"
      },
      {
        "midi": 87,
        "time": 52.5,
        "duration": 1.719,
        "velocity": 0.91,
        "hand": "right"
      },
      {
        "midi": 88,
        "time": 52.5,
        "duration": 1.719,
        "velocity": 0.91,
        "hand": "right"
      },
      {
        "midi": 92,
        "time": 52.5,
        "duration": 1.719,
        "velocity": 0.91,
        "hand": "right"
      },
      {
        "midi": 76,
        "time": 52.656,
        "duration": 0.156,
        "velocity": 0.76,
        "hand": "right"
      },
      {
        "midi": 56,
        "time": 52.813,
        "duration": 0.313,
        "velocity": 0.76,
        "hand": "left"
      },
      {
        "midi": 59,
        "time": 52.813,
        "duration": 0.313,
        "velocity": 0.76,
        "hand": "left"
      },
      {
        "midi": 63,
        "time": 52.813,
        "duration": 0.313,
        "velocity": 0.76,
        "hand": "right"
      },
      {
        "midi": 78,
        "time": 52.813,
        "duration": 0.156,
        "velocity": 0.76,
        "hand": "right"
      },
      {
        "midi": 80,
        "time": 52.969,
        "duration": 0.938,
        "velocity": 0.76,
        "hand": "right"
      },
      {
        "midi": 56,
        "time": 53.125,
        "duration": 0.313,
        "velocity": 0.76,
        "hand": "left"
      },
      {
        "midi": 59,
        "time": 53.125,
        "duration": 0.313,
        "velocity": 0.76,
        "hand": "left"
      },
      {
        "midi": 63,
        "time": 53.125,
        "duration": 0.313,
        "velocity": 0.76,
        "hand": "right"
      },
      {
        "midi": 78,
        "time": 53.125,
        "duration": 0.156,
        "velocity": 0.76,
        "hand": "right"
      },
      {
        "midi": 76,
        "time": 53.281,
        "duration": 0.156,
        "velocity": 0.76,
        "hand": "right"
      },
      {
        "midi": 40,
        "time": 53.438,
        "duration": 0.313,
        "velocity": 0.91,
        "hand": "left"
      },
      {
        "midi": 52,
        "time": 53.438,
        "duration": 0.313,
        "velocity": 0.91,
        "hand": "left"
      },
      {
        "midi": 75,
        "time": 53.438,
        "duration": 0.156,
        "velocity": 0.76,
        "hand": "right"
      },
      {
        "midi": 76,
        "time": 53.594,
        "duration": 0.156,
        "velocity": 0.76,
        "hand": "right"
      },
      {
        "midi": 56,
        "time": 53.75,
        "duration": 0.313,
        "velocity": 0.76,
        "hand": "left"
      },
      {
        "midi": 59,
        "time": 53.75,
        "duration": 0.313,
        "velocity": 0.76,
        "hand": "left"
      },
      {
        "midi": 63,
        "time": 53.75,
        "duration": 0.313,
        "velocity": 0.76,
        "hand": "right"
      },
      {
        "midi": 78,
        "time": 53.75,
        "duration": 0.156,
        "velocity": 0.76,
        "hand": "right"
      },
      {
        "midi": 80,
        "time": 53.906,
        "duration": 0.313,
        "velocity": 0.76,
        "hand": "right"
      },
      {
        "midi": 56,
        "time": 54.063,
        "duration": 0.313,
        "velocity": 0.76,
        "hand": "left"
      },
      {
        "midi": 59,
        "time": 54.063,
        "duration": 0.313,
        "velocity": 0.76,
        "hand": "left"
      },
      {
        "midi": 63,
        "time": 54.063,
        "duration": 0.313,
        "velocity": 0.76,
        "hand": "right"
      },
      {
        "midi": 78,
        "time": 54.063,
        "duration": 0.156,
        "velocity": 0.76,
        "hand": "right"
      },
      {
        "midi": 76,
        "time": 54.219,
        "duration": 0.156,
        "velocity": 0.76,
        "hand": "right"
      },
      {
        "midi": 68,
        "time": 54.375,
        "duration": 0.625,
        "velocity": 0.76,
        "hand": "right"
      },
      {
        "midi": 71,
        "time": 54.375,
        "duration": 0.625,
        "velocity": 0.76,
        "hand": "right"
      },
      {
        "midi": 75,
        "time": 54.375,
        "duration": 0.156,
        "velocity": 0.76,
        "hand": "right"
      },
      {
        "midi": 76,
        "time": 54.531,
        "duration": 0.156,
        "velocity": 0.76,
        "hand": "right"
      },
      {
        "midi": 78,
        "time": 54.688,
        "duration": 0.156,
        "velocity": 0.76,
        "hand": "right"
      },
      {
        "midi": 80,
        "time": 54.844,
        "duration": 0.156,
        "velocity": 0.76,
        "hand": "right"
      },
      {
        "midi": 68,
        "time": 55,
        "duration": 0.313,
        "velocity": 0.76,
        "hand": "right"
      },
      {
        "midi": 71,
        "time": 55,
        "duration": 0.313,
        "velocity": 0.76,
        "hand": "right"
      },
      {
        "midi": 75,
        "time": 55,
        "duration": 0.313,
        "velocity": 0.76,
        "hand": "right"
      },
      {
        "midi": 78,
        "time": 55,
        "duration": 0.156,
        "velocity": 0.76,
        "hand": "right"
      },
      {
        "midi": 76,
        "time": 55.156,
        "duration": 0.156,
        "velocity": 0.76,
        "hand": "right"
      },
      {
        "midi": 59,
        "time": 55.313,
        "duration": 0.625,
        "velocity": 0.76,
        "hand": "left"
      },
      {
        "midi": 63,
        "time": 55.313,
        "duration": 0.625,
        "velocity": 0.76,
        "hand": "right"
      },
      {
        "midi": 68,
        "time": 55.313,
        "duration": 0.625,
        "velocity": 0.76,
        "hand": "right"
      },
      {
        "midi": 75,
        "time": 55.313,
        "duration": 0.156,
        "velocity": 0.76,
        "hand": "right"
      },
      {
        "midi": 76,
        "time": 55.469,
        "duration": 0.156,
        "velocity": 0.76,
        "hand": "right"
      },
      {
        "midi": 78,
        "time": 55.625,
        "duration": 0.156,
        "velocity": 0.76,
        "hand": "right"
      },
      {
        "midi": 80,
        "time": 55.781,
        "duration": 0.156,
        "velocity": 0.76,
        "hand": "right"
      },
      {
        "midi": 59,
        "time": 55.938,
        "duration": 0.313,
        "velocity": 0.76,
        "hand": "left"
      },
      {
        "midi": 63,
        "time": 55.938,
        "duration": 0.313,
        "velocity": 0.76,
        "hand": "right"
      },
      {
        "midi": 68,
        "time": 55.938,
        "duration": 0.313,
        "velocity": 0.76,
        "hand": "right"
      },
      {
        "midi": 78,
        "time": 55.938,
        "duration": 0.156,
        "velocity": 0.76,
        "hand": "right"
      },
      {
        "midi": 76,
        "time": 56.094,
        "duration": 0.156,
        "velocity": 0.76,
        "hand": "right"
      },
      {
        "midi": 28,
        "time": 56.25,
        "duration": 0.313,
        "velocity": 0.91,
        "hand": "left"
      },
      {
        "midi": 40,
        "time": 56.25,
        "duration": 0.313,
        "velocity": 0.91,
        "hand": "left"
      },
      {
        "midi": 75,
        "time": 56.25,
        "duration": 0.156,
        "velocity": 0.76,
        "hand": "right"
      },
      {
        "midi": 76,
        "time": 56.406,
        "duration": 0.156,
        "velocity": 0.76,
        "hand": "right"
      },
      {
        "midi": 78,
        "time": 56.563,
        "duration": 0.156,
        "velocity": 0.76,
        "hand": "right"
      },
      {
        "midi": 80,
        "time": 56.719,
        "duration": 0.156,
        "velocity": 0.76,
        "hand": "right"
      },
      {
        "midi": 40,
        "time": 56.875,
        "duration": 0.313,
        "velocity": 0.76,
        "hand": "left"
      },
      {
        "midi": 52,
        "time": 56.875,
        "duration": 0.313,
        "velocity": 0.76,
        "hand": "left"
      },
      {
        "midi": 78,
        "time": 56.875,
        "duration": 0.156,
        "velocity": 0.76,
        "hand": "right"
      },
      {
        "midi": 76,
        "time": 57.031,
        "duration": 0.156,
        "velocity": 0.76,
        "hand": "right"
      },
      {
        "midi": 56,
        "time": 57.188,
        "duration": 0.625,
        "velocity": 0.76,
        "hand": "left"
      },
      {
        "midi": 59,
        "time": 57.188,
        "duration": 0.625,
        "velocity": 0.76,
        "hand": "left"
      },
      {
        "midi": 63,
        "time": 57.188,
        "duration": 0.625,
        "velocity": 0.76,
        "hand": "right"
      },
      {
        "midi": 87,
        "time": 57.188,
        "duration": 0.938,
        "velocity": 0.91,
        "hand": "right"
      },
      {
        "midi": 76,
        "time": 57.344,
        "duration": 0.156,
        "velocity": 0.76,
        "hand": "right"
      },
      {
        "midi": 78,
        "time": 57.5,
        "duration": 0.156,
        "velocity": 0.76,
        "hand": "right"
      },
      {
        "midi": 80,
        "time": 57.656,
        "duration": 0.156,
        "velocity": 0.76,
        "hand": "right"
      },
      {
        "midi": 56,
        "time": 57.813,
        "duration": 0.313,
        "velocity": 0.76,
        "hand": "left"
      },
      {
        "midi": 59,
        "time": 57.813,
        "duration": 0.313,
        "velocity": 0.76,
        "hand": "left"
      },
      {
        "midi": 63,
        "time": 57.813,
        "duration": 0.313,
        "velocity": 0.76,
        "hand": "right"
      },
      {
        "midi": 78,
        "time": 57.813,
        "duration": 0.156,
        "velocity": 0.76,
        "hand": "right"
      },
      {
        "midi": 76,
        "time": 57.969,
        "duration": 0.156,
        "velocity": 0.76,
        "hand": "right"
      },
      {
        "midi": 30,
        "time": 58.125,
        "duration": 0.938,
        "velocity": 0.91,
        "hand": "left"
      },
      {
        "midi": 42,
        "time": 58.125,
        "duration": 0.938,
        "velocity": 0.91,
        "hand": "left"
      },
      {
        "midi": 88,
        "time": 58.125,
        "duration": 0.938,
        "velocity": 0.91,
        "hand": "right"
      },
      {
        "midi": 76,
        "time": 58.281,
        "duration": 0.156,
        "velocity": 0.76,
        "hand": "right"
      },
      {
        "midi": 78,
        "time": 58.438,
        "duration": 0.156,
        "velocity": 0.76,
        "hand": "right"
      },
      {
        "midi": 80,
        "time": 58.594,
        "duration": 0.156,
        "velocity": 0.76,
        "hand": "right"
      },
      {
        "midi": 78,
        "time": 58.75,
        "duration": 0.156,
        "velocity": 0.76,
        "hand": "right"
      },
      {
        "midi": 76,
        "time": 58.906,
        "duration": 0.156,
        "velocity": 0.76,
        "hand": "right"
      },
      {
        "midi": 32,
        "time": 59.063,
        "duration": 0.938,
        "velocity": 0.91,
        "hand": "left"
      },
      {
        "midi": 44,
        "time": 59.063,
        "duration": 0.938,
        "velocity": 0.91,
        "hand": "left"
      },
      {
        "midi": 90,
        "time": 59.063,
        "duration": 0.938,
        "velocity": 0.91,
        "hand": "right"
      },
      {
        "midi": 76,
        "time": 59.219,
        "duration": 0.156,
        "velocity": 0.76,
        "hand": "right"
      },
      {
        "midi": 78,
        "time": 59.375,
        "duration": 0.156,
        "velocity": 0.76,
        "hand": "right"
      },
      {
        "midi": 80,
        "time": 59.531,
        "duration": 0.156,
        "velocity": 0.76,
        "hand": "right"
      },
      {
        "midi": 78,
        "time": 59.688,
        "duration": 0.156,
        "velocity": 0.76,
        "hand": "right"
      },
      {
        "midi": 76,
        "time": 59.844,
        "duration": 0.156,
        "velocity": 0.76,
        "hand": "right"
      },
      {
        "midi": 33,
        "time": 60,
        "duration": 0.313,
        "velocity": 0.91,
        "hand": "left"
      },
      {
        "midi": 45,
        "time": 60,
        "duration": 0.313,
        "velocity": 0.91,
        "hand": "left"
      },
      {
        "midi": 80,
        "time": 60,
        "duration": 0.078,
        "velocity": 0.76,
        "hand": "right"
      },
      {
        "midi": 80,
        "time": 60,
        "duration": 0.156,
        "velocity": 0.91,
        "hand": "right"
      },
      {
        "midi": 85,
        "time": 60,
        "duration": 0.469,
        "velocity": 0.91,
        "hand": "right"
      },
      {
        "midi": 88,
        "time": 60,
        "duration": 1.719,
        "velocity": 0.91,
        "hand": "right"
      },
      {
        "midi": 92,
        "time": 60,
        "duration": 1.719,
        "velocity": 0.91,
        "hand": "right"
      },
      {
        "midi": 80,
        "time": 60.156,
        "duration": 0.625,
        "velocity": 0.76,
        "hand": "right"
      },
      {
        "midi": 83,
        "time": 60.313,
        "duration": 0.156,
        "velocity": 0.76,
        "hand": "right"
      },
      {
        "midi": 85,
        "time": 60.469,
        "duration": 0.938,
        "velocity": 0.76,
        "hand": "right"
      },
      {
        "midi": 83,
        "time": 60.625,
        "duration": 0.156,
        "velocity": 0.76,
        "hand": "right"
      },
      {
        "midi": 80,
        "time": 60.781,
        "duration": 0.313,
        "velocity": 0.76,
        "hand": "right"
      },
      {
        "midi": 56,
        "time": 60.938,
        "duration": 0.938,
        "velocity": 0.76,
        "hand": "left"
      },
      {
        "midi": 61,
        "time": 60.938,
        "duration": 0.938,
        "velocity": 0.76,
        "hand": "right"
      },
      {
        "midi": 64,
        "time": 60.938,
        "duration": 0.938,
        "velocity": 0.76,
        "hand": "right"
      },
      {
        "midi": 78,
        "time": 60.938,
        "duration": 0.156,
        "velocity": 0.76,
        "hand": "right"
      },
      {
        "midi": 80,
        "time": 61.094,
        "duration": 0.625,
        "velocity": 0.76,
        "hand": "right"
      },
      {
        "midi": 83,
        "time": 61.25,
        "duration": 0.156,
        "velocity": 0.76,
        "hand": "right"
      },
      {
        "midi": 85,
        "time": 61.406,
        "duration": 0.313,
        "velocity": 0.76,
        "hand": "right"
      },
      {
        "midi": 83,
        "time": 61.563,
        "duration": 0.156,
        "velocity": 0.76,
        "hand": "right"
      },
      {
        "midi": 80,
        "time": 61.719,
        "duration": 0.156,
        "velocity": 0.76,
        "hand": "right"
      },
      {
        "midi": 68,
        "time": 61.875,
        "duration": 0.938,
        "velocity": 0.76,
        "hand": "right"
      },
      {
        "midi": 73,
        "time": 61.875,
        "duration": 0.938,
        "velocity": 0.76,
        "hand": "right"
      },
      {
        "midi": 76,
        "time": 61.875,
        "duration": 0.938,
        "velocity": 0.76,
        "hand": "right"
      },
      {
        "midi": 78,
        "time": 61.875,
        "duration": 0.156,
        "velocity": 0.76,
        "hand": "right"
      },
      {
        "midi": 80,
        "time": 62.031,
        "duration": 0.156,
        "velocity": 0.76,
        "hand": "right"
      },
      {
        "midi": 83,
        "time": 62.188,
        "duration": 0.156,
        "velocity": 0.76,
        "hand": "right"
      },
      {
        "midi": 85,
        "time": 62.344,
        "duration": 0.156,
        "velocity": 0.76,
        "hand": "right"
      },
      {
        "midi": 83,
        "time": 62.5,
        "duration": 0.156,
        "velocity": 0.76,
        "hand": "right"
      },
      {
        "midi": 80,
        "time": 62.656,
        "duration": 0.156,
        "velocity": 0.76,
        "hand": "right"
      },
      {
        "midi": 61,
        "time": 62.813,
        "duration": 0.938,
        "velocity": 0.76,
        "hand": "right"
      },
      {
        "midi": 64,
        "time": 62.813,
        "duration": 0.938,
        "velocity": 0.76,
        "hand": "right"
      },
      {
        "midi": 68,
        "time": 62.813,
        "duration": 0.938,
        "velocity": 0.76,
        "hand": "right"
      },
      {
        "midi": 78,
        "time": 62.813,
        "duration": 0.156,
        "velocity": 0.76,
        "hand": "right"
      },
      {
        "midi": 80,
        "time": 62.969,
        "duration": 0.156,
        "velocity": 0.76,
        "hand": "right"
      },
      {
        "midi": 83,
        "time": 63.125,
        "duration": 0.156,
        "velocity": 0.76,
        "hand": "right"
      },
      {
        "midi": 85,
        "time": 63.281,
        "duration": 0.156,
        "velocity": 0.76,
        "hand": "right"
      },
      {
        "midi": 83,
        "time": 63.438,
        "duration": 0.156,
        "velocity": 0.76,
        "hand": "right"
      },
      {
        "midi": 80,
        "time": 63.594,
        "duration": 0.156,
        "velocity": 0.76,
        "hand": "right"
      },
      {
        "midi": 33,
        "time": 63.75,
        "duration": 0.313,
        "velocity": 0.91,
        "hand": "left"
      },
      {
        "midi": 45,
        "time": 63.75,
        "duration": 0.313,
        "velocity": 0.91,
        "hand": "left"
      },
      {
        "midi": 73,
        "time": 63.75,
        "duration": 0.938,
        "velocity": 0.76,
        "hand": "right"
      },
      {
        "midi": 76,
        "time": 63.75,
        "duration": 0.938,
        "velocity": 0.76,
        "hand": "right"
      },
      {
        "midi": 80,
        "time": 63.75,
        "duration": 0.938,
        "velocity": 0.76,
        "hand": "right"
      },
      {
        "midi": 85,
        "time": 63.75,
        "duration": 0.938,
        "velocity": 0.76,
        "hand": "right"
      },
      {
        "midi": 45,
        "time": 64.219,
        "duration": 0.156,
        "velocity": 0.76,
        "hand": "left"
      },
      {
        "midi": 57,
        "time": 64.375,
        "duration": 0.156,
        "velocity": 0.76,
        "hand": "left"
      },
      {
        "midi": 45,
        "time": 64.531,
        "duration": 1.094,
        "velocity": 0.76,
        "hand": "left"
      },
      {
        "midi": 52,
        "time": 64.688,
        "duration": 0.938,
        "velocity": 0.76,
        "hand": "left"
      },
      {
        "midi": 56,
        "time": 64.688,
        "duration": 0.938,
        "velocity": 0.76,
        "hand": "left"
      },
      {
        "midi": 75,
        "time": 64.688,
        "duration": 0.938,
        "velocity": 0.76,
        "hand": "right"
      },
      {
        "midi": 80,
        "time": 64.688,
        "duration": 0.938,
        "velocity": 0.76,
        "hand": "right"
      },
      {
        "midi": 87,
        "time": 64.688,
        "duration": 0.938,
        "velocity": 0.76,
        "hand": "right"
      },
      {
        "midi": 45,
        "time": 65.625,
        "duration": 0.313,
        "velocity": 0.91,
        "hand": "left"
      },
      {
        "midi": 52,
        "time": 65.625,
        "duration": 0.313,
        "velocity": 0.91,
        "hand": "left"
      },
      {
        "midi": 83,
        "time": 65.625,
        "duration": 0.078,
        "velocity": 0.76,
        "hand": "right"
      },
      {
        "midi": 88,
        "time": 65.625,
        "duration": 0.078,
        "velocity": 0.76,
        "hand": "right"
      },
      {
        "midi": 95,
        "time": 65.625,
        "duration": 0.078,
        "velocity": 0.76,
        "hand": "right"
      },
      {
        "midi": 60,
        "time": 65.781,
        "duration": 0.156,
        "velocity": 0.91,
        "hand": "right"
      },
      {
        "midi": 83,
        "time": 65.781,
        "duration": 0.078,
        "velocity": 0.76,
        "hand": "right"
      },
      {
        "midi": 88,
        "time": 65.781,
        "duration": 0.078,
        "velocity": 0.76,
        "hand": "right"
      },
      {
        "midi": 95,
        "time": 65.781,
        "duration": 0.078,
        "velocity": 0.76,
        "hand": "right"
      },
      {
        "midi": 83,
        "time": 65.938,
        "duration": 0.078,
        "velocity": 0.76,
        "hand": "right"
      },
      {
        "midi": 88,
        "time": 65.938,
        "duration": 0.078,
        "velocity": 0.76,
        "hand": "right"
      },
      {
        "midi": 95,
        "time": 65.938,
        "duration": 0.078,
        "velocity": 0.76,
        "hand": "right"
      },
      {
        "midi": 45,
        "time": 66.094,
        "duration": 0.156,
        "velocity": 0.76,
        "hand": "left"
      },
      {
        "midi": 83,
        "time": 66.094,
        "duration": 0.078,
        "velocity": 0.76,
        "hand": "right"
      },
      {
        "midi": 88,
        "time": 66.094,
        "duration": 0.078,
        "velocity": 0.76,
        "hand": "right"
      },
      {
        "midi": 95,
        "time": 66.094,
        "duration": 0.078,
        "velocity": 0.76,
        "hand": "right"
      },
      {
        "midi": 52,
        "time": 66.25,
        "duration": 0.156,
        "velocity": 0.76,
        "hand": "left"
      },
      {
        "midi": 60,
        "time": 66.25,
        "duration": 0.156,
        "velocity": 0.76,
        "hand": "right"
      },
      {
        "midi": 83,
        "time": 66.25,
        "duration": 0.078,
        "velocity": 0.76,
        "hand": "right"
      },
      {
        "midi": 88,
        "time": 66.25,
        "duration": 0.078,
        "velocity": 0.76,
        "hand": "right"
      },
      {
        "midi": 95,
        "time": 66.25,
        "duration": 0.078,
        "velocity": 0.76,
        "hand": "right"
      },
      {
        "midi": 45,
        "time": 66.406,
        "duration": 0.156,
        "velocity": 0.76,
        "hand": "left"
      },
      {
        "midi": 83,
        "time": 66.406,
        "duration": 0.078,
        "velocity": 0.76,
        "hand": "right"
      },
      {
        "midi": 88,
        "time": 66.406,
        "duration": 0.078,
        "velocity": 0.76,
        "hand": "right"
      },
      {
        "midi": 95,
        "time": 66.406,
        "duration": 0.078,
        "velocity": 0.76,
        "hand": "right"
      },
      {
        "midi": 54,
        "time": 66.563,
        "duration": 0.625,
        "velocity": 0.76,
        "hand": "left"
      },
      {
        "midi": 57,
        "time": 66.563,
        "duration": 0.625,
        "velocity": 0.76,
        "hand": "left"
      },
      {
        "midi": 60,
        "time": 66.563,
        "duration": 0.625,
        "velocity": 0.76,
        "hand": "right"
      },
      {
        "midi": 64,
        "time": 66.563,
        "duration": 0.625,
        "velocity": 0.76,
        "hand": "right"
      },
      {
        "midi": 81,
        "time": 66.563,
        "duration": 0.078,
        "velocity": 0.76,
        "hand": "right"
      },
      {
        "midi": 90,
        "time": 66.563,
        "duration": 0.078,
        "velocity": 0.76,
        "hand": "right"
      },
      {
        "midi": 93,
        "time": 66.563,
        "duration": 0.078,
        "velocity": 0.76,
        "hand": "right"
      },
      {
        "midi": 81,
        "time": 66.719,
        "duration": 0.078,
        "velocity": 0.76,
        "hand": "right"
      },
      {
        "midi": 90,
        "time": 66.719,
        "duration": 0.078,
        "velocity": 0.76,
        "hand": "right"
      },
      {
        "midi": 93,
        "time": 66.719,
        "duration": 0.078,
        "velocity": 0.76,
        "hand": "right"
      },
      {
        "midi": 81,
        "time": 66.875,
        "duration": 0.078,
        "velocity": 0.76,
        "hand": "right"
      },
      {
        "midi": 90,
        "time": 66.875,
        "duration": 0.078,
        "velocity": 0.76,
        "hand": "right"
      },
      {
        "midi": 93,
        "time": 66.875,
        "duration": 0.078,
        "velocity": 0.76,
        "hand": "right"
      },
      {
        "midi": 81,
        "time": 67.031,
        "duration": 0.078,
        "velocity": 0.76,
        "hand": "right"
      },
      {
        "midi": 90,
        "time": 67.031,
        "duration": 0.078,
        "velocity": 0.76,
        "hand": "right"
      },
      {
        "midi": 93,
        "time": 67.031,
        "duration": 0.078,
        "velocity": 0.76,
        "hand": "right"
      },
      {
        "midi": 33,
        "time": 67.188,
        "duration": 0.313,
        "velocity": 0.76,
        "hand": "left"
      },
      {
        "midi": 45,
        "time": 67.188,
        "duration": 0.313,
        "velocity": 0.76,
        "hand": "left"
      },
      {
        "midi": 81,
        "time": 67.188,
        "duration": 0.078,
        "velocity": 0.76,
        "hand": "right"
      },
      {
        "midi": 90,
        "time": 67.188,
        "duration": 0.078,
        "velocity": 0.76,
        "hand": "right"
      },
      {
        "midi": 93,
        "time": 67.188,
        "duration": 0.078,
        "velocity": 0.76,
        "hand": "right"
      },
      {
        "midi": 81,
        "time": 67.344,
        "duration": 0.078,
        "velocity": 0.76,
        "hand": "right"
      },
      {
        "midi": 90,
        "time": 67.344,
        "duration": 0.078,
        "velocity": 0.76,
        "hand": "right"
      },
      {
        "midi": 93,
        "time": 67.344,
        "duration": 0.078,
        "velocity": 0.76,
        "hand": "right"
      },
      {
        "midi": 28,
        "time": 67.5,
        "duration": 0.313,
        "velocity": 0.91,
        "hand": "left"
      },
      {
        "midi": 40,
        "time": 67.5,
        "duration": 0.313,
        "velocity": 0.91,
        "hand": "left"
      },
      {
        "midi": 80,
        "time": 67.5,
        "duration": 0.078,
        "velocity": 0.76,
        "hand": "right"
      },
      {
        "midi": 80,
        "time": 67.5,
        "duration": 0.469,
        "velocity": 0.91,
        "hand": "right"
      },
      {
        "midi": 87,
        "time": 67.5,
        "duration": 1.719,
        "velocity": 0.91,
        "hand": "right"
      },
      {
        "midi": 88,
        "time": 67.5,
        "duration": 1.719,
        "velocity": 0.91,
        "hand": "right"
      },
      {
        "midi": 92,
        "time": 67.5,
        "duration": 1.719,
        "velocity": 0.91,
        "hand": "right"
      },
      {
        "midi": 76,
        "time": 67.656,
        "duration": 0.156,
        "velocity": 0.76,
        "hand": "right"
      },
      {
        "midi": 78,
        "time": 67.813,
        "duration": 0.156,
        "velocity": 0.76,
        "hand": "right"
      },
      {
        "midi": 80,
        "time": 67.969,
        "duration": 0.938,
        "velocity": 0.76,
        "hand": "right"
      },
      {
        "midi": 40,
        "time": 68.125,
        "duration": 0.313,
        "velocity": 0.76,
        "hand": "left"
      },
      {
        "midi": 52,
        "time": 68.125,
        "duration": 0.313,
        "velocity": 0.76,
        "hand": "left"
      },
      {
        "midi": 78,
        "time": 68.125,
        "duration": 0.156,
        "velocity": 0.76,
        "hand": "right"
      },
      {
        "midi": 76,
        "time": 68.281,
        "duration": 0.156,
        "velocity": 0.76,
        "hand": "right"
      },
      {
        "midi": 56,
        "time": 68.438,
        "duration": 0.938,
        "velocity": 0.76,
        "hand": "left"
      },
      {
        "midi": 59,
        "time": 68.438,
        "duration": 0.938,
        "velocity": 0.76,
        "hand": "left"
      },
      {
        "midi": 63,
        "time": 68.438,
        "duration": 0.938,
        "velocity": 0.76,
        "hand": "right"
      },
      {
        "midi": 75,
        "time": 68.438,
        "duration": 0.156,
        "velocity": 0.76,
        "hand": "right"
      },
      {
        "midi": 76,
        "time": 68.594,
        "duration": 0.156,
        "velocity": 0.76,
        "hand": "right"
      },
      {
        "midi": 78,
        "time": 68.75,
        "duration": 0.156,
        "velocity": 0.76,
        "hand": "right"
      },
      {
        "midi": 80,
        "time": 68.906,
        "duration": 0.313,
        "velocity": 0.76,
        "hand": "right"
      },
      {
        "midi": 78,
        "time": 69.063,
        "duration": 0.156,
        "velocity": 0.76,
        "hand": "right"
      },
      {
        "midi": 76,
        "time": 69.219,
        "duration": 0.156,
        "velocity": 0.76,
        "hand": "right"
      },
      {
        "midi": 68,
        "time": 69.375,
        "duration": 0.938,
        "velocity": 0.76,
        "hand": "right"
      },
      {
        "midi": 71,
        "time": 69.375,
        "duration": 0.938,
        "velocity": 0.76,
        "hand": "right"
      },
      {
        "midi": 75,
        "time": 69.375,
        "duration": 0.156,
        "velocity": 0.76,
        "hand": "right"
      },
      {
        "midi": 76,
        "time": 69.531,
        "duration": 0.156,
        "velocity": 0.76,
        "hand": "right"
      },
      {
        "midi": 78,
        "time": 69.688,
        "duration": 0.156,
        "velocity": 0.76,
        "hand": "right"
      },
      {
        "midi": 80,
        "time": 69.844,
        "duration": 0.156,
        "velocity": 0.76,
        "hand": "right"
      },
      {
        "midi": 78,
        "time": 70,
        "duration": 0.156,
        "velocity": 0.76,
        "hand": "right"
      },
      {
        "midi": 76,
        "time": 70.156,
        "duration": 0.156,
        "velocity": 0.76,
        "hand": "right"
      },
      {
        "midi": 59,
        "time": 70.313,
        "duration": 0.938,
        "velocity": 0.76,
        "hand": "left"
      },
      {
        "midi": 63,
        "time": 70.313,
        "duration": 0.938,
        "velocity": 0.76,
        "hand": "right"
      },
      {
        "midi": 68,
        "time": 70.313,
        "duration": 0.938,
        "velocity": 0.76,
        "hand": "right"
      },
      {
        "midi": 75,
        "time": 70.313,
        "duration": 0.156,
        "velocity": 0.76,
        "hand": "right"
      },
      {
        "midi": 76,
        "time": 70.469,
        "duration": 0.156,
        "velocity": 0.76,
        "hand": "right"
      },
      {
        "midi": 78,
        "time": 70.625,
        "duration": 0.156,
        "velocity": 0.76,
        "hand": "right"
      },
      {
        "midi": 80,
        "time": 70.781,
        "duration": 0.156,
        "velocity": 0.76,
        "hand": "right"
      },
      {
        "midi": 78,
        "time": 70.938,
        "duration": 0.156,
        "velocity": 0.76,
        "hand": "right"
      },
      {
        "midi": 76,
        "time": 71.094,
        "duration": 0.156,
        "velocity": 0.76,
        "hand": "right"
      },
      {
        "midi": 28,
        "time": 71.25,
        "duration": 0.313,
        "velocity": 0.91,
        "hand": "left"
      },
      {
        "midi": 40,
        "time": 71.25,
        "duration": 0.313,
        "velocity": 0.91,
        "hand": "left"
      },
      {
        "midi": 75,
        "time": 71.25,
        "duration": 0.156,
        "velocity": 0.76,
        "hand": "right"
      },
      {
        "midi": 76,
        "time": 71.406,
        "duration": 0.156,
        "velocity": 0.76,
        "hand": "right"
      },
      {
        "midi": 28,
        "time": 71.563,
        "duration": 0.313,
        "velocity": 0.76,
        "hand": "left"
      },
      {
        "midi": 40,
        "time": 71.563,
        "duration": 0.313,
        "velocity": 0.76,
        "hand": "left"
      },
      {
        "midi": 78,
        "time": 71.563,
        "duration": 0.156,
        "velocity": 0.76,
        "hand": "right"
      },
      {
        "midi": 80,
        "time": 71.719,
        "duration": 0.156,
        "velocity": 0.76,
        "hand": "right"
      },
      {
        "midi": 40,
        "time": 71.875,
        "duration": 0.313,
        "velocity": 0.76,
        "hand": "left"
      },
      {
        "midi": 52,
        "time": 71.875,
        "duration": 0.313,
        "velocity": 0.76,
        "hand": "left"
      },
      {
        "midi": 78,
        "time": 71.875,
        "duration": 0.156,
        "velocity": 0.76,
        "hand": "right"
      },
      {
        "midi": 76,
        "time": 72.031,
        "duration": 0.156,
        "velocity": 0.76,
        "hand": "right"
      },
      {
        "midi": 56,
        "time": 72.188,
        "duration": 0.938,
        "velocity": 0.76,
        "hand": "left"
      },
      {
        "midi": 59,
        "time": 72.188,
        "duration": 0.938,
        "velocity": 0.76,
        "hand": "left"
      },
      {
        "midi": 63,
        "time": 72.188,
        "duration": 0.938,
        "velocity": 0.76,
        "hand": "right"
      },
      {
        "midi": 75,
        "time": 72.188,
        "duration": 0.156,
        "velocity": 0.76,
        "hand": "right"
      },
      {
        "midi": 76,
        "time": 72.344,
        "duration": 0.156,
        "velocity": 0.76,
        "hand": "right"
      },
      {
        "midi": 78,
        "time": 72.5,
        "duration": 0.156,
        "velocity": 0.76,
        "hand": "right"
      },
      {
        "midi": 80,
        "time": 72.656,
        "duration": 0.156,
        "velocity": 0.76,
        "hand": "right"
      },
      {
        "midi": 78,
        "time": 72.813,
        "duration": 0.156,
        "velocity": 0.76,
        "hand": "right"
      },
      {
        "midi": 76,
        "time": 72.969,
        "duration": 0.156,
        "velocity": 0.76,
        "hand": "right"
      },
      {
        "midi": 30,
        "time": 73.125,
        "duration": 0.469,
        "velocity": 0.91,
        "hand": "left"
      },
      {
        "midi": 42,
        "time": 73.125,
        "duration": 0.469,
        "velocity": 0.91,
        "hand": "left"
      },
      {
        "midi": 74,
        "time": 73.125,
        "duration": 0.156,
        "velocity": 0.76,
        "hand": "right"
      },
      {
        "midi": 76,
        "time": 73.281,
        "duration": 0.156,
        "velocity": 0.74,
        "hand": "right"
      },
      {
        "midi": 78,
        "time": 73.438,
        "duration": 0.156,
        "velocity": 0.72,
        "hand": "right"
      },
      {
        "midi": 42,
        "time": 73.594,
        "duration": 0.469,
        "velocity": 0.69,
        "hand": "left"
      },
      {
        "midi": 45,
        "time": 73.594,
        "duration": 0.469,
        "velocity": 0.69,
        "hand": "left"
      },
      {
        "midi": 49,
        "time": 73.594,
        "duration": 0.469,
        "velocity": 0.69,
        "hand": "left"
      },
      {
        "midi": 54,
        "time": 73.594,
        "duration": 0.469,
        "velocity": 0.69,
        "hand": "left"
      },
      {
        "midi": 80,
        "time": 73.594,
        "duration": 0.156,
        "velocity": 0.69,
        "hand": "right"
      },
      {
        "midi": 78,
        "time": 73.75,
        "duration": 0.156,
        "velocity": 0.68,
        "hand": "right"
      },
      {
        "midi": 76,
        "time": 73.906,
        "duration": 0.156,
        "velocity": 0.65,
        "hand": "right"
      },
      {
        "midi": 32,
        "time": 74.063,
        "duration": 0.469,
        "velocity": 0.76,
        "hand": "left"
      },
      {
        "midi": 44,
        "time": 74.063,
        "duration": 0.469,
        "velocity": 0.76,
        "hand": "left"
      },
      {
        "midi": 74,
        "time": 74.063,
        "duration": 0.156,
        "velocity": 0.63,
        "hand": "right"
      },
      {
        "midi": 76,
        "time": 74.219,
        "duration": 0.156,
        "velocity": 0.61,
        "hand": "right"
      },
      {
        "midi": 78,
        "time": 74.375,
        "duration": 0.156,
        "velocity": 0.59,
        "hand": "right"
      },
      {
        "midi": 44,
        "time": 74.531,
        "duration": 0.469,
        "velocity": 0.57,
        "hand": "left"
      },
      {
        "midi": 51,
        "time": 74.531,
        "duration": 0.469,
        "velocity": 0.57,
        "hand": "left"
      },
      {
        "midi": 54,
        "time": 74.531,
        "duration": 0.469,
        "velocity": 0.57,
        "hand": "left"
      },
      {
        "midi": 56,
        "time": 74.531,
        "duration": 0.469,
        "velocity": 0.57,
        "hand": "left"
      },
      {
        "midi": 80,
        "time": 74.531,
        "duration": 0.156,
        "velocity": 0.57,
        "hand": "right"
      },
      {
        "midi": 78,
        "time": 74.688,
        "duration": 0.156,
        "velocity": 0.55,
        "hand": "right"
      },
      {
        "midi": 76,
        "time": 74.844,
        "duration": 0.156,
        "velocity": 0.53,
        "hand": "right"
      },
      {
        "midi": 45,
        "time": 75,
        "duration": 0.156,
        "velocity": 0.5,
        "hand": "left"
      },
      {
        "midi": 57,
        "time": 75,
        "duration": 0.156,
        "velocity": 0.5,
        "hand": "left"
      },
      {
        "midi": 68,
        "time": 75,
        "duration": 0.156,
        "velocity": 0.5,
        "hand": "right"
      },
      {
        "midi": 49,
        "time": 75.156,
        "duration": 0.156,
        "velocity": 0.5,
        "hand": "left"
      },
      {
        "midi": 68,
        "time": 75.156,
        "duration": 0.156,
        "velocity": 0.5,
        "hand": "right"
      },
      {
        "midi": 52,
        "time": 75.313,
        "duration": 0.156,
        "velocity": 0.5,
        "hand": "left"
      },
      {
        "midi": 61,
        "time": 75.313,
        "duration": 0.156,
        "velocity": 0.5,
        "hand": "right"
      },
      {
        "midi": 68,
        "time": 75.313,
        "duration": 0.156,
        "velocity": 0.5,
        "hand": "right"
      },
      {
        "midi": 57,
        "time": 75.469,
        "duration": 0.156,
        "velocity": 0.5,
        "hand": "left"
      },
      {
        "midi": 68,
        "time": 75.469,
        "duration": 0.156,
        "velocity": 0.5,
        "hand": "right"
      },
      {
        "midi": 52,
        "time": 75.625,
        "duration": 0.156,
        "velocity": 0.5,
        "hand": "left"
      },
      {
        "midi": 61,
        "time": 75.625,
        "duration": 0.156,
        "velocity": 0.5,
        "hand": "right"
      },
      {
        "midi": 68,
        "time": 75.625,
        "duration": 0.156,
        "velocity": 0.5,
        "hand": "right"
      },
      {
        "midi": 57,
        "time": 75.781,
        "duration": 0.156,
        "velocity": 0.5,
        "hand": "left"
      },
      {
        "midi": 66,
        "time": 75.781,
        "duration": 0.156,
        "velocity": 0.5,
        "hand": "right"
      },
      {
        "midi": 45,
        "time": 75.938,
        "duration": 0.156,
        "velocity": 0.5,
        "hand": "left"
      },
      {
        "midi": 57,
        "time": 75.938,
        "duration": 0.156,
        "velocity": 0.5,
        "hand": "left"
      },
      {
        "midi": 80,
        "time": 75.938,
        "duration": 0.313,
        "velocity": 0.6,
        "hand": "right"
      },
      {
        "midi": 92,
        "time": 75.938,
        "duration": 0.313,
        "velocity": 0.6,
        "hand": "right"
      },
      {
        "midi": 49,
        "time": 76.094,
        "duration": 0.156,
        "velocity": 0.5,
        "hand": "left"
      },
      {
        "midi": 52,
        "time": 76.25,
        "duration": 0.156,
        "velocity": 0.5,
        "hand": "left"
      },
      {
        "midi": 61,
        "time": 76.25,
        "duration": 0.156,
        "velocity": 0.5,
        "hand": "right"
      },
      {
        "midi": 57,
        "time": 76.406,
        "duration": 0.156,
        "velocity": 0.5,
        "hand": "left"
      },
      {
        "midi": 52,
        "time": 76.563,
        "duration": 0.156,
        "velocity": 0.5,
        "hand": "left"
      },
      {
        "midi": 61,
        "time": 76.563,
        "duration": 0.156,
        "velocity": 0.5,
        "hand": "right"
      },
      {
        "midi": 57,
        "time": 76.719,
        "duration": 0.156,
        "velocity": 0.5,
        "hand": "left"
      },
      {
        "midi": 45,
        "time": 76.875,
        "duration": 0.156,
        "velocity": 0.5,
        "hand": "left"
      },
      {
        "midi": 57,
        "time": 76.875,
        "duration": 0.156,
        "velocity": 0.5,
        "hand": "left"
      },
      {
        "midi": 68,
        "time": 76.875,
        "duration": 0.156,
        "velocity": 0.5,
        "hand": "right"
      },
      {
        "midi": 49,
        "time": 77.031,
        "duration": 0.156,
        "velocity": 0.5,
        "hand": "left"
      },
      {
        "midi": 68,
        "time": 77.031,
        "duration": 0.156,
        "velocity": 0.5,
        "hand": "right"
      },
      {
        "midi": 52,
        "time": 77.188,
        "duration": 0.156,
        "velocity": 0.5,
        "hand": "left"
      },
      {
        "midi": 61,
        "time": 77.188,
        "duration": 0.156,
        "velocity": 0.5,
        "hand": "right"
      },
      {
        "midi": 68,
        "time": 77.188,
        "duration": 0.156,
        "velocity": 0.5,
        "hand": "right"
      },
      {
        "midi": 57,
        "time": 77.344,
        "duration": 0.156,
        "velocity": 0.5,
        "hand": "left"
      },
      {
        "midi": 68,
        "time": 77.344,
        "duration": 0.156,
        "velocity": 0.5,
        "hand": "right"
      },
      {
        "midi": 52,
        "time": 77.5,
        "duration": 0.156,
        "velocity": 0.5,
        "hand": "left"
      },
      {
        "midi": 61,
        "time": 77.5,
        "duration": 0.156,
        "velocity": 0.5,
        "hand": "right"
      },
      {
        "midi": 68,
        "time": 77.5,
        "duration": 0.313,
        "velocity": 0.5,
        "hand": "right"
      },
      {
        "midi": 57,
        "time": 77.656,
        "duration": 0.156,
        "velocity": 0.5,
        "hand": "left"
      },
      {
        "midi": 45,
        "time": 77.813,
        "duration": 0.156,
        "velocity": 0.5,
        "hand": "left"
      },
      {
        "midi": 57,
        "time": 77.813,
        "duration": 0.156,
        "velocity": 0.5,
        "hand": "left"
      },
      {
        "midi": 68,
        "time": 77.813,
        "duration": 0.156,
        "velocity": 0.5,
        "hand": "right"
      },
      {
        "midi": 49,
        "time": 77.969,
        "duration": 0.156,
        "velocity": 0.5,
        "hand": "left"
      },
      {
        "midi": 68,
        "time": 77.969,
        "duration": 0.156,
        "velocity": 0.5,
        "hand": "right"
      },
      {
        "midi": 52,
        "time": 78.125,
        "duration": 0.156,
        "velocity": 0.5,
        "hand": "left"
      },
      {
        "midi": 61,
        "time": 78.125,
        "duration": 0.156,
        "velocity": 0.5,
        "hand": "right"
      },
      {
        "midi": 68,
        "time": 78.125,
        "duration": 0.156,
        "velocity": 0.5,
        "hand": "right"
      },
      {
        "midi": 57,
        "time": 78.281,
        "duration": 0.156,
        "velocity": 0.5,
        "hand": "left"
      },
      {
        "midi": 68,
        "time": 78.281,
        "duration": 0.156,
        "velocity": 0.5,
        "hand": "right"
      },
      {
        "midi": 52,
        "time": 78.438,
        "duration": 0.156,
        "velocity": 0.5,
        "hand": "left"
      },
      {
        "midi": 61,
        "time": 78.438,
        "duration": 0.156,
        "velocity": 0.5,
        "hand": "right"
      },
      {
        "midi": 68,
        "time": 78.438,
        "duration": 0.313,
        "velocity": 0.5,
        "hand": "right"
      },
      {
        "midi": 57,
        "time": 78.594,
        "duration": 0.156,
        "velocity": 0.5,
        "hand": "left"
      },
      {
        "midi": 44,
        "time": 78.75,
        "duration": 0.156,
        "velocity": 0.5,
        "hand": "left"
      },
      {
        "midi": 56,
        "time": 78.75,
        "duration": 0.156,
        "velocity": 0.5,
        "hand": "left"
      },
      {
        "midi": 68,
        "time": 78.75,
        "duration": 0.156,
        "velocity": 0.5,
        "hand": "right"
      },
      {
        "midi": 47,
        "time": 78.906,
        "duration": 0.156,
        "velocity": 0.5,
        "hand": "left"
      },
      {
        "midi": 68,
        "time": 78.906,
        "duration": 0.156,
        "velocity": 0.5,
        "hand": "right"
      },
      {
        "midi": 51,
        "time": 79.063,
        "duration": 0.156,
        "velocity": 0.5,
        "hand": "left"
      },
      {
        "midi": 59,
        "time": 79.063,
        "duration": 0.156,
        "velocity": 0.5,
        "hand": "left"
      },
      {
        "midi": 68,
        "time": 79.063,
        "duration": 0.156,
        "velocity": 0.5,
        "hand": "right"
      },
      {
        "midi": 56,
        "time": 79.219,
        "duration": 0.156,
        "velocity": 0.5,
        "hand": "left"
      },
      {
        "midi": 68,
        "time": 79.219,
        "duration": 0.156,
        "velocity": 0.5,
        "hand": "right"
      },
      {
        "midi": 51,
        "time": 79.375,
        "duration": 0.156,
        "velocity": 0.5,
        "hand": "left"
      },
      {
        "midi": 59,
        "time": 79.375,
        "duration": 0.156,
        "velocity": 0.5,
        "hand": "left"
      },
      {
        "midi": 68,
        "time": 79.375,
        "duration": 0.156,
        "velocity": 0.5,
        "hand": "right"
      },
      {
        "midi": 56,
        "time": 79.531,
        "duration": 0.156,
        "velocity": 0.5,
        "hand": "left"
      },
      {
        "midi": 66,
        "time": 79.531,
        "duration": 0.156,
        "velocity": 0.5,
        "hand": "right"
      },
      {
        "midi": 44,
        "time": 79.688,
        "duration": 0.156,
        "velocity": 0.5,
        "hand": "left"
      },
      {
        "midi": 56,
        "time": 79.688,
        "duration": 0.156,
        "velocity": 0.5,
        "hand": "left"
      },
      {
        "midi": 80,
        "time": 79.688,
        "duration": 0.313,
        "velocity": 0.6,
        "hand": "right"
      },
      {
        "midi": 92,
        "time": 79.688,
        "duration": 0.313,
        "velocity": 0.6,
        "hand": "right"
      },
      {
        "midi": 47,
        "time": 79.844,
        "duration": 0.156,
        "velocity": 0.5,
        "hand": "left"
      },
      {
        "midi": 51,
        "time": 80,
        "duration": 0.156,
        "velocity": 0.5,
        "hand": "left"
      },
      {
        "midi": 59,
        "time": 80,
        "duration": 0.156,
        "velocity": 0.5,
        "hand": "left"
      },
      {
        "midi": 56,
        "time": 80.156,
        "duration": 0.156,
        "velocity": 0.5,
        "hand": "left"
      },
      {
        "midi": 51,
        "time": 80.313,
        "duration": 0.156,
        "velocity": 0.5,
        "hand": "left"
      },
      {
        "midi": 59,
        "time": 80.313,
        "duration": 0.156,
        "velocity": 0.5,
        "hand": "left"
      },
      {
        "midi": 56,
        "time": 80.469,
        "duration": 0.156,
        "velocity": 0.5,
        "hand": "left"
      },
      {
        "midi": 44,
        "time": 80.625,
        "duration": 0.156,
        "velocity": 0.5,
        "hand": "left"
      },
      {
        "midi": 56,
        "time": 80.625,
        "duration": 0.156,
        "velocity": 0.5,
        "hand": "left"
      },
      {
        "midi": 68,
        "time": 80.625,
        "duration": 0.156,
        "velocity": 0.5,
        "hand": "right"
      },
      {
        "midi": 47,
        "time": 80.781,
        "duration": 0.156,
        "velocity": 0.5,
        "hand": "left"
      },
      {
        "midi": 68,
        "time": 80.781,
        "duration": 0.156,
        "velocity": 0.5,
        "hand": "right"
      },
      {
        "midi": 51,
        "time": 80.938,
        "duration": 0.156,
        "velocity": 0.5,
        "hand": "left"
      },
      {
        "midi": 59,
        "time": 80.938,
        "duration": 0.156,
        "velocity": 0.5,
        "hand": "left"
      },
      {
        "midi": 68,
        "time": 80.938,
        "duration": 0.156,
        "velocity": 0.5,
        "hand": "right"
      },
      {
        "midi": 56,
        "time": 81.094,
        "duration": 0.156,
        "velocity": 0.5,
        "hand": "left"
      },
      {
        "midi": 68,
        "time": 81.094,
        "duration": 0.156,
        "velocity": 0.5,
        "hand": "right"
      },
      {
        "midi": 51,
        "time": 81.25,
        "duration": 0.156,
        "velocity": 0.5,
        "hand": "left"
      },
      {
        "midi": 59,
        "time": 81.25,
        "duration": 0.156,
        "velocity": 0.5,
        "hand": "left"
      },
      {
        "midi": 68,
        "time": 81.25,
        "duration": 0.313,
        "velocity": 0.5,
        "hand": "right"
      },
      {
        "midi": 56,
        "time": 81.406,
        "duration": 0.156,
        "velocity": 0.5,
        "hand": "left"
      },
      {
        "midi": 43,
        "time": 81.563,
        "duration": 0.156,
        "velocity": 0.5,
        "hand": "left"
      },
      {
        "midi": 55,
        "time": 81.563,
        "duration": 0.156,
        "velocity": 0.5,
        "hand": "left"
      },
      {
        "midi": 68,
        "time": 81.563,
        "duration": 0.156,
        "velocity": 0.5,
        "hand": "right"
      },
      {
        "midi": 47,
        "time": 81.719,
        "duration": 0.156,
        "velocity": 0.5,
        "hand": "left"
      },
      {
        "midi": 68,
        "time": 81.719,
        "duration": 0.156,
        "velocity": 0.5,
        "hand": "right"
      },
      {
        "midi": 51,
        "time": 81.875,
        "duration": 0.156,
        "velocity": 0.5,
        "hand": "left"
      },
      {
        "midi": 59,
        "time": 81.875,
        "duration": 0.156,
        "velocity": 0.5,
        "hand": "left"
      },
      {
        "midi": 68,
        "time": 81.875,
        "duration": 0.156,
        "velocity": 0.5,
        "hand": "right"
      },
      {
        "midi": 55,
        "time": 82.031,
        "duration": 0.156,
        "velocity": 0.5,
        "hand": "left"
      },
      {
        "midi": 68,
        "time": 82.031,
        "duration": 0.156,
        "velocity": 0.5,
        "hand": "right"
      },
      {
        "midi": 51,
        "time": 82.188,
        "duration": 0.156,
        "velocity": 0.5,
        "hand": "left"
      },
      {
        "midi": 59,
        "time": 82.188,
        "duration": 0.156,
        "velocity": 0.5,
        "hand": "left"
      },
      {
        "midi": 68,
        "time": 82.188,
        "duration": 0.313,
        "velocity": 0.5,
        "hand": "right"
      },
      {
        "midi": 55,
        "time": 82.344,
        "duration": 0.156,
        "velocity": 0.5,
        "hand": "left"
      },
      {
        "midi": 42,
        "time": 82.5,
        "duration": 0.156,
        "velocity": 0.5,
        "hand": "left"
      },
      {
        "midi": 54,
        "time": 82.5,
        "duration": 0.156,
        "velocity": 0.5,
        "hand": "left"
      },
      {
        "midi": 68,
        "time": 82.5,
        "duration": 0.156,
        "velocity": 0.5,
        "hand": "right"
      },
      {
        "midi": 45,
        "time": 82.656,
        "duration": 0.156,
        "velocity": 0.5,
        "hand": "left"
      },
      {
        "midi": 68,
        "time": 82.656,
        "duration": 0.156,
        "velocity": 0.5,
        "hand": "right"
      },
      {
        "midi": 49,
        "time": 82.813,
        "duration": 0.156,
        "velocity": 0.5,
        "hand": "left"
      },
      {
        "midi": 57,
        "time": 82.813,
        "duration": 0.156,
        "velocity": 0.5,
        "hand": "left"
      },
      {
        "midi": 68,
        "time": 82.813,
        "duration": 0.156,
        "velocity": 0.5,
        "hand": "right"
      },
      {
        "midi": 54,
        "time": 82.969,
        "duration": 0.156,
        "velocity": 0.5,
        "hand": "left"
      },
      {
        "midi": 68,
        "time": 82.969,
        "duration": 0.156,
        "velocity": 0.5,
        "hand": "right"
      },
      {
        "midi": 49,
        "time": 83.125,
        "duration": 0.156,
        "velocity": 0.5,
        "hand": "left"
      },
      {
        "midi": 57,
        "time": 83.125,
        "duration": 0.156,
        "velocity": 0.5,
        "hand": "left"
      },
      {
        "midi": 68,
        "time": 83.125,
        "duration": 0.156,
        "velocity": 0.5,
        "hand": "right"
      },
      {
        "midi": 54,
        "time": 83.281,
        "duration": 0.156,
        "velocity": 0.5,
        "hand": "left"
      },
      {
        "midi": 66,
        "time": 83.281,
        "duration": 0.156,
        "velocity": 0.5,
        "hand": "right"
      },
      {
        "midi": 42,
        "time": 83.438,
        "duration": 0.156,
        "velocity": 0.5,
        "hand": "left"
      },
      {
        "midi": 54,
        "time": 83.438,
        "duration": 0.156,
        "velocity": 0.5,
        "hand": "left"
      },
      {
        "midi": 78,
        "time": 83.438,
        "duration": 0.313,
        "velocity": 0.6,
        "hand": "right"
      },
      {
        "midi": 90,
        "time": 83.438,
        "duration": 0.313,
        "velocity": 0.6,
        "hand": "right"
      },
      {
        "midi": 45,
        "time": 83.594,
        "duration": 0.156,
        "velocity": 0.5,
        "hand": "left"
      },
      {
        "midi": 49,
        "time": 83.75,
        "duration": 0.156,
        "velocity": 0.5,
        "hand": "left"
      },
      {
        "midi": 57,
        "time": 83.75,
        "duration": 0.156,
        "velocity": 0.5,
        "hand": "left"
      },
      {
        "midi": 54,
        "time": 83.906,
        "duration": 0.156,
        "velocity": 0.5,
        "hand": "left"
      },
      {
        "midi": 49,
        "time": 84.063,
        "duration": 0.156,
        "velocity": 0.5,
        "hand": "left"
      },
      {
        "midi": 57,
        "time": 84.063,
        "duration": 0.156,
        "velocity": 0.5,
        "hand": "left"
      },
      {
        "midi": 54,
        "time": 84.219,
        "duration": 0.156,
        "velocity": 0.5,
        "hand": "left"
      },
      {
        "midi": 42,
        "time": 84.375,
        "duration": 0.156,
        "velocity": 0.5,
        "hand": "left"
      },
      {
        "midi": 54,
        "time": 84.375,
        "duration": 0.156,
        "velocity": 0.5,
        "hand": "left"
      },
      {
        "midi": 68,
        "time": 84.375,
        "duration": 0.156,
        "velocity": 0.5,
        "hand": "right"
      },
      {
        "midi": 45,
        "time": 84.531,
        "duration": 0.156,
        "velocity": 0.5,
        "hand": "left"
      },
      {
        "midi": 68,
        "time": 84.531,
        "duration": 0.156,
        "velocity": 0.5,
        "hand": "right"
      },
      {
        "midi": 49,
        "time": 84.688,
        "duration": 0.156,
        "velocity": 0.5,
        "hand": "left"
      },
      {
        "midi": 57,
        "time": 84.688,
        "duration": 0.156,
        "velocity": 0.5,
        "hand": "left"
      },
      {
        "midi": 68,
        "time": 84.688,
        "duration": 0.156,
        "velocity": 0.5,
        "hand": "right"
      },
      {
        "midi": 54,
        "time": 84.844,
        "duration": 0.156,
        "velocity": 0.5,
        "hand": "left"
      },
      {
        "midi": 68,
        "time": 84.844,
        "duration": 0.156,
        "velocity": 0.5,
        "hand": "right"
      },
      {
        "midi": 49,
        "time": 85,
        "duration": 0.156,
        "velocity": 0.5,
        "hand": "left"
      },
      {
        "midi": 57,
        "time": 85,
        "duration": 0.156,
        "velocity": 0.5,
        "hand": "left"
      },
      {
        "midi": 68,
        "time": 85,
        "duration": 0.156,
        "velocity": 0.5,
        "hand": "right"
      },
      {
        "midi": 54,
        "time": 85.156,
        "duration": 0.156,
        "velocity": 0.5,
        "hand": "left"
      },
      {
        "midi": 66,
        "time": 85.156,
        "duration": 0.156,
        "velocity": 0.5,
        "hand": "right"
      },
      {
        "midi": 42,
        "time": 85.313,
        "duration": 0.156,
        "velocity": 0.5,
        "hand": "left"
      },
      {
        "midi": 54,
        "time": 85.313,
        "duration": 0.156,
        "velocity": 0.5,
        "hand": "left"
      },
      {
        "midi": 78,
        "time": 85.313,
        "duration": 0.313,
        "velocity": 0.6,
        "hand": "right"
      },
      {
        "midi": 90,
        "time": 85.313,
        "duration": 0.313,
        "velocity": 0.6,
        "hand": "right"
      },
      {
        "midi": 45,
        "time": 85.469,
        "duration": 0.156,
        "velocity": 0.5,
        "hand": "left"
      },
      {
        "midi": 49,
        "time": 85.625,
        "duration": 0.156,
        "velocity": 0.5,
        "hand": "left"
      },
      {
        "midi": 57,
        "time": 85.625,
        "duration": 0.156,
        "velocity": 0.5,
        "hand": "left"
      },
      {
        "midi": 54,
        "time": 85.781,
        "duration": 0.156,
        "velocity": 0.5,
        "hand": "left"
      },
      {
        "midi": 49,
        "time": 85.938,
        "duration": 0.156,
        "velocity": 0.5,
        "hand": "left"
      },
      {
        "midi": 57,
        "time": 85.938,
        "duration": 0.156,
        "velocity": 0.5,
        "hand": "left"
      },
      {
        "midi": 54,
        "time": 86.094,
        "duration": 0.156,
        "velocity": 0.5,
        "hand": "left"
      },
      {
        "midi": 40,
        "time": 86.25,
        "duration": 0.156,
        "velocity": 0.5,
        "hand": "left"
      },
      {
        "midi": 52,
        "time": 86.25,
        "duration": 0.156,
        "velocity": 0.5,
        "hand": "left"
      },
      {
        "midi": 68,
        "time": 86.25,
        "duration": 0.156,
        "velocity": 0.5,
        "hand": "right"
      },
      {
        "midi": 44,
        "time": 86.406,
        "duration": 0.156,
        "velocity": 0.5,
        "hand": "left"
      },
      {
        "midi": 68,
        "time": 86.406,
        "duration": 0.156,
        "velocity": 0.5,
        "hand": "right"
      },
      {
        "midi": 47,
        "time": 86.563,
        "duration": 0.156,
        "velocity": 0.5,
        "hand": "left"
      },
      {
        "midi": 56,
        "time": 86.563,
        "duration": 0.156,
        "velocity": 0.5,
        "hand": "left"
      },
      {
        "midi": 68,
        "time": 86.563,
        "duration": 0.156,
        "velocity": 0.5,
        "hand": "right"
      },
      {
        "midi": 52,
        "time": 86.719,
        "duration": 0.156,
        "velocity": 0.5,
        "hand": "left"
      },
      {
        "midi": 68,
        "time": 86.719,
        "duration": 0.156,
        "velocity": 0.5,
        "hand": "right"
      },
      {
        "midi": 47,
        "time": 86.875,
        "duration": 0.156,
        "velocity": 0.5,
        "hand": "left"
      },
      {
        "midi": 56,
        "time": 86.875,
        "duration": 0.156,
        "velocity": 0.5,
        "hand": "left"
      },
      {
        "midi": 68,
        "time": 86.875,
        "duration": 0.313,
        "velocity": 0.5,
        "hand": "right"
      },
      {
        "midi": 52,
        "time": 87.031,
        "duration": 0.156,
        "velocity": 0.5,
        "hand": "left"
      },
      {
        "midi": 40,
        "time": 87.188,
        "duration": 0.156,
        "velocity": 0.5,
        "hand": "left"
      },
      {
        "midi": 52,
        "time": 87.188,
        "duration": 0.156,
        "velocity": 0.5,
        "hand": "left"
      },
      {
        "midi": 68,
        "time": 87.188,
        "duration": 0.156,
        "velocity": 0.5,
        "hand": "right"
      },
      {
        "midi": 75,
        "time": 87.188,
        "duration": 0.938,
        "velocity": 0.5,
        "hand": "right"
      },
      {
        "midi": 44,
        "time": 87.344,
        "duration": 0.156,
        "velocity": 0.5,
        "hand": "left"
      },
      {
        "midi": 68,
        "time": 87.344,
        "duration": 0.156,
        "velocity": 0.5,
        "hand": "right"
      },
      {
        "midi": 47,
        "time": 87.5,
        "duration": 0.156,
        "velocity": 0.5,
        "hand": "left"
      },
      {
        "midi": 56,
        "time": 87.5,
        "duration": 0.156,
        "velocity": 0.5,
        "hand": "left"
      },
      {
        "midi": 68,
        "time": 87.5,
        "duration": 0.156,
        "velocity": 0.5,
        "hand": "right"
      },
      {
        "midi": 52,
        "time": 87.656,
        "duration": 0.156,
        "velocity": 0.5,
        "hand": "left"
      },
      {
        "midi": 68,
        "time": 87.656,
        "duration": 0.156,
        "velocity": 0.5,
        "hand": "right"
      },
      {
        "midi": 47,
        "time": 87.813,
        "duration": 0.156,
        "velocity": 0.5,
        "hand": "left"
      },
      {
        "midi": 56,
        "time": 87.813,
        "duration": 0.156,
        "velocity": 0.5,
        "hand": "left"
      },
      {
        "midi": 68,
        "time": 87.813,
        "duration": 0.313,
        "velocity": 0.5,
        "hand": "right"
      },
      {
        "midi": 52,
        "time": 87.969,
        "duration": 0.156,
        "velocity": 0.5,
        "hand": "left"
      },
      {
        "midi": 40,
        "time": 88.125,
        "duration": 0.156,
        "velocity": 0.5,
        "hand": "left"
      },
      {
        "midi": 52,
        "time": 88.125,
        "duration": 0.156,
        "velocity": 0.5,
        "hand": "left"
      },
      {
        "midi": 68,
        "time": 88.125,
        "duration": 0.313,
        "velocity": 0.5,
        "hand": "right"
      },
      {
        "midi": 76,
        "time": 88.125,
        "duration": 0.938,
        "velocity": 0.5,
        "hand": "right"
      },
      {
        "midi": 44,
        "time": 88.281,
        "duration": 0.156,
        "velocity": 0.51,
        "hand": "left"
      },
      {
        "midi": 47,
        "time": 88.438,
        "duration": 0.156,
        "velocity": 0.52,
        "hand": "left"
      },
      {
        "midi": 56,
        "time": 88.438,
        "duration": 0.156,
        "velocity": 0.52,
        "hand": "left"
      },
      {
        "midi": 68,
        "time": 88.438,
        "duration": 0.313,
        "velocity": 0.52,
        "hand": "right"
      },
      {
        "midi": 52,
        "time": 88.594,
        "duration": 0.156,
        "velocity": 0.54,
        "hand": "left"
      },
      {
        "midi": 47,
        "time": 88.75,
        "duration": 0.156,
        "velocity": 0.54,
        "hand": "left"
      },
      {
        "midi": 56,
        "time": 88.75,
        "duration": 0.156,
        "velocity": 0.54,
        "hand": "left"
      },
      {
        "midi": 68,
        "time": 88.75,
        "duration": 0.156,
        "velocity": 0.54,
        "hand": "right"
      },
      {
        "midi": 52,
        "time": 88.906,
        "duration": 0.156,
        "velocity": 0.55,
        "hand": "left"
      },
      {
        "midi": 66,
        "time": 88.906,
        "duration": 0.156,
        "velocity": 0.55,
        "hand": "right"
      },
      {
        "midi": 40,
        "time": 89.063,
        "duration": 0.156,
        "velocity": 0.57,
        "hand": "left"
      },
      {
        "midi": 52,
        "time": 89.063,
        "duration": 0.156,
        "velocity": 0.57,
        "hand": "left"
      },
      {
        "midi": 64,
        "time": 89.063,
        "duration": 0.313,
        "velocity": 0.57,
        "hand": "right"
      },
      {
        "midi": 78,
        "time": 89.063,
        "duration": 0.938,
        "velocity": 0.57,
        "hand": "right"
      },
      {
        "midi": 44,
        "time": 89.219,
        "duration": 0.156,
        "velocity": 0.57,
        "hand": "left"
      },
      {
        "midi": 47,
        "time": 89.375,
        "duration": 0.156,
        "velocity": 0.58,
        "hand": "left"
      },
      {
        "midi": 56,
        "time": 89.375,
        "duration": 0.156,
        "velocity": 0.58,
        "hand": "left"
      },
      {
        "midi": 68,
        "time": 89.375,
        "duration": 0.313,
        "velocity": 0.58,
        "hand": "right"
      },
      {
        "midi": 52,
        "time": 89.531,
        "duration": 0.156,
        "velocity": 0.6,
        "hand": "left"
      },
      {
        "midi": 47,
        "time": 89.688,
        "duration": 0.156,
        "velocity": 0.61,
        "hand": "left"
      },
      {
        "midi": 56,
        "time": 89.688,
        "duration": 0.156,
        "velocity": 0.61,
        "hand": "left"
      },
      {
        "midi": 71,
        "time": 89.688,
        "duration": 0.313,
        "velocity": 0.61,
        "hand": "right"
      },
      {
        "midi": 52,
        "time": 89.844,
        "duration": 0.156,
        "velocity": 0.61,
        "hand": "left"
      },
      {
        "midi": 33,
        "time": 90,
        "duration": 0.156,
        "velocity": 0.63,
        "hand": "left"
      },
      {
        "midi": 45,
        "time": 90,
        "duration": 0.156,
        "velocity": 0.63,
        "hand": "left"
      },
      {
        "midi": 64,
        "time": 90,
        "duration": 1.25,
        "velocity": 0.63,
        "hand": "right"
      },
      {
        "midi": 69,
        "time": 90,
        "duration": 1.25,
        "velocity": 0.63,
        "hand": "right"
      },
      {
        "midi": 52,
        "time": 90.156,
        "duration": 0.156,
        "velocity": 0.63,
        "hand": "left"
      },
      {
        "midi": 73,
        "time": 90.156,
        "duration": 1.094,
        "velocity": 0.63,
        "hand": "right"
      },
      {
        "midi": 57,
        "time": 90.313,
        "duration": 0.156,
        "velocity": 0.63,
        "hand": "left"
      },
      {
        "midi": 61,
        "time": 90.469,
        "duration": 0.156,
        "velocity": 0.63,
        "hand": "right"
      },
      {
        "midi": 57,
        "time": 90.625,
        "duration": 0.156,
        "velocity": 0.63,
        "hand": "left"
      },
      {
        "midi": 52,
        "time": 90.781,
        "duration": 0.156,
        "velocity": 0.63,
        "hand": "left"
      },
      {
        "midi": 33,
        "time": 90.938,
        "duration": 0.156,
        "velocity": 0.63,
        "hand": "left"
      },
      {
        "midi": 45,
        "time": 90.938,
        "duration": 0.156,
        "velocity": 0.63,
        "hand": "left"
      },
      {
        "midi": 52,
        "time": 91.094,
        "duration": 0.156,
        "velocity": 0.63,
        "hand": "left"
      },
      {
        "midi": 57,
        "time": 91.25,
        "duration": 0.156,
        "velocity": 0.63,
        "hand": "left"
      },
      {
        "midi": 64,
        "time": 91.25,
        "duration": 0.313,
        "velocity": 0.63,
        "hand": "right"
      },
      {
        "midi": 73,
        "time": 91.25,
        "duration": 0.313,
        "velocity": 0.63,
        "hand": "right"
      },
      {
        "midi": 61,
        "time": 91.406,
        "duration": 0.156,
        "velocity": 0.63,
        "hand": "right"
      },
      {
        "midi": 57,
        "time": 91.563,
        "duration": 0.156,
        "velocity": 0.63,
        "hand": "left"
      },
      {
        "midi": 69,
        "time": 91.563,
        "duration": 0.313,
        "velocity": 0.63,
        "hand": "right"
      },
      {
        "midi": 75,
        "time": 91.563,
        "duration": 0.313,
        "velocity": 0.63,
        "hand": "right"
      },
      {
        "midi": 52,
        "time": 91.719,
        "duration": 0.156,
        "velocity": 0.63,
        "hand": "left"
      },
      {
        "midi": 33,
        "time": 91.875,
        "duration": 0.156,
        "velocity": 0.63,
        "hand": "left"
      },
      {
        "midi": 45,
        "time": 91.875,
        "duration": 0.156,
        "velocity": 0.63,
        "hand": "left"
      },
      {
        "midi": 69,
        "time": 91.875,
        "duration": 1.25,
        "velocity": 0.63,
        "hand": "right"
      },
      {
        "midi": 73,
        "time": 91.875,
        "duration": 1.25,
        "velocity": 0.63,
        "hand": "right"
      },
      {
        "midi": 76,
        "time": 91.875,
        "duration": 1.25,
        "velocity": 0.63,
        "hand": "right"
      },
      {
        "midi": 52,
        "time": 92.031,
        "duration": 0.156,
        "velocity": 0.63,
        "hand": "left"
      },
      {
        "midi": 57,
        "time": 92.188,
        "duration": 0.156,
        "velocity": 0.63,
        "hand": "left"
      },
      {
        "midi": 61,
        "time": 92.344,
        "duration": 0.156,
        "velocity": 0.63,
        "hand": "right"
      },
      {
        "midi": 57,
        "time": 92.5,
        "duration": 0.156,
        "velocity": 0.63,
        "hand": "left"
      },
      {
        "midi": 52,
        "time": 92.656,
        "duration": 0.156,
        "velocity": 0.63,
        "hand": "left"
      },
      {
        "midi": 33,
        "time": 92.813,
        "duration": 0.156,
        "velocity": 0.63,
        "hand": "left"
      },
      {
        "midi": 45,
        "time": 92.813,
        "duration": 0.156,
        "velocity": 0.63,
        "hand": "left"
      },
      {
        "midi": 52,
        "time": 92.969,
        "duration": 0.156,
        "velocity": 0.63,
        "hand": "left"
      },
      {
        "midi": 57,
        "time": 93.125,
        "duration": 0.156,
        "velocity": 0.63,
        "hand": "left"
      },
      {
        "midi": 69,
        "time": 93.125,
        "duration": 0.313,
        "velocity": 0.63,
        "hand": "right"
      },
      {
        "midi": 76,
        "time": 93.125,
        "duration": 0.313,
        "velocity": 0.63,
        "hand": "right"
      },
      {
        "midi": 61,
        "time": 93.281,
        "duration": 0.156,
        "velocity": 0.63,
        "hand": "right"
      },
      {
        "midi": 57,
        "time": 93.438,
        "duration": 0.156,
        "velocity": 0.63,
        "hand": "left"
      },
      {
        "midi": 68,
        "time": 93.438,
        "duration": 0.313,
        "velocity": 0.63,
        "hand": "right"
      },
      {
        "midi": 78,
        "time": 93.438,
        "duration": 0.313,
        "velocity": 0.63,
        "hand": "right"
      },
      {
        "midi": 52,
        "time": 93.594,
        "duration": 0.156,
        "velocity": 0.63,
        "hand": "left"
      },
      {
        "midi": 32,
        "time": 93.75,
        "duration": 0.156,
        "velocity": 0.63,
        "hand": "left"
      },
      {
        "midi": 44,
        "time": 93.75,
        "duration": 0.156,
        "velocity": 0.63,
        "hand": "left"
      },
      {
        "midi": 68,
        "time": 93.75,
        "duration": 0.313,
        "velocity": 0.63,
        "hand": "right"
      },
      {
        "midi": 75,
        "time": 93.75,
        "duration": 0.313,
        "velocity": 0.63,
        "hand": "right"
      },
      {
        "midi": 51,
        "time": 93.906,
        "duration": 0.156,
        "velocity": 0.63,
        "hand": "left"
      },
      {
        "midi": 56,
        "time": 94.063,
        "duration": 0.156,
        "velocity": 0.63,
        "hand": "left"
      },
      {
        "midi": 73,
        "time": 94.063,
        "duration": 0.313,
        "velocity": 0.63,
        "hand": "right"
      },
      {
        "midi": 59,
        "time": 94.219,
        "duration": 0.156,
        "velocity": 0.63,
        "hand": "left"
      },
      {
        "midi": 56,
        "time": 94.375,
        "duration": 0.156,
        "velocity": 0.63,
        "hand": "left"
      },
      {
        "midi": 68,
        "time": 94.375,
        "duration": 0.313,
        "velocity": 0.63,
        "hand": "right"
      },
      {
        "midi": 71,
        "time": 94.375,
        "duration": 0.313,
        "velocity": 0.63,
        "hand": "right"
      },
      {
        "midi": 51,
        "time": 94.531,
        "duration": 0.156,
        "velocity": 0.63,
        "hand": "left"
      },
      {
        "midi": 32,
        "time": 94.688,
        "duration": 0.156,
        "velocity": 0.63,
        "hand": "left"
      },
      {
        "midi": 44,
        "time": 94.688,
        "duration": 0.156,
        "velocity": 0.63,
        "hand": "left"
      },
      {
        "midi": 68,
        "time": 94.688,
        "duration": 0.625,
        "velocity": 0.63,
        "hand": "right"
      },
      {
        "midi": 71,
        "time": 94.688,
        "duration": 0.625,
        "velocity": 0.63,
        "hand": "right"
      },
      {
        "midi": 51,
        "time": 94.844,
        "duration": 0.156,
        "velocity": 0.63,
        "hand": "left"
      },
      {
        "midi": 56,
        "time": 95,
        "duration": 0.156,
        "velocity": 0.63,
        "hand": "left"
      },
      {
        "midi": 59,
        "time": 95.156,
        "duration": 0.156,
        "velocity": 0.63,
        "hand": "left"
      },
      {
        "midi": 56,
        "time": 95.313,
        "duration": 0.156,
        "velocity": 0.63,
        "hand": "left"
      },
      {
        "midi": 63,
        "time": 95.313,
        "duration": 0.313,
        "velocity": 0.63,
        "hand": "right"
      },
      {
        "midi": 68,
        "time": 95.313,
        "duration": 0.313,
        "velocity": 0.63,
        "hand": "right"
      },
      {
        "midi": 51,
        "time": 95.469,
        "duration": 0.156,
        "velocity": 0.63,
        "hand": "left"
      },
      {
        "midi": 32,
        "time": 95.625,
        "duration": 0.156,
        "velocity": 0.63,
        "hand": "left"
      },
      {
        "midi": 44,
        "time": 95.625,
        "duration": 0.156,
        "velocity": 0.63,
        "hand": "left"
      },
      {
        "midi": 63,
        "time": 95.625,
        "duration": 0.313,
        "velocity": 0.63,
        "hand": "right"
      },
      {
        "midi": 68,
        "time": 95.625,
        "duration": 0.313,
        "velocity": 0.63,
        "hand": "right"
      },
      {
        "midi": 71,
        "time": 95.625,
        "duration": 0.313,
        "velocity": 0.63,
        "hand": "right"
      },
      {
        "midi": 75,
        "time": 95.625,
        "duration": 0.313,
        "velocity": 0.63,
        "hand": "right"
      },
      {
        "midi": 51,
        "time": 95.781,
        "duration": 0.156,
        "velocity": 0.63,
        "hand": "left"
      },
      {
        "midi": 56,
        "time": 95.938,
        "duration": 0.156,
        "velocity": 0.63,
        "hand": "left"
      },
      {
        "midi": 73,
        "time": 95.938,
        "duration": 0.313,
        "velocity": 0.63,
        "hand": "right"
      },
      {
        "midi": 59,
        "time": 96.094,
        "duration": 0.156,
        "velocity": 0.63,
        "hand": "left"
      },
      {
        "midi": 56,
        "time": 96.25,
        "duration": 0.156,
        "velocity": 0.63,
        "hand": "left"
      },
      {
        "midi": 68,
        "time": 96.25,
        "duration": 0.313,
        "velocity": 0.63,
        "hand": "right"
      },
      {
        "midi": 71,
        "time": 96.25,
        "duration": 0.313,
        "velocity": 0.63,
        "hand": "right"
      },
      {
        "midi": 51,
        "time": 96.406,
        "duration": 0.156,
        "velocity": 0.63,
        "hand": "left"
      },
      {
        "midi": 31,
        "time": 96.563,
        "duration": 0.156,
        "velocity": 0.63,
        "hand": "left"
      },
      {
        "midi": 43,
        "time": 96.563,
        "duration": 0.156,
        "velocity": 0.63,
        "hand": "left"
      },
      {
        "midi": 63,
        "time": 96.563,
        "duration": 0.313,
        "velocity": 0.63,
        "hand": "right"
      },
      {
        "midi": 68,
        "time": 96.563,
        "duration": 0.313,
        "velocity": 0.63,
        "hand": "right"
      },
      {
        "midi": 75,
        "time": 96.563,
        "duration": 0.313,
        "velocity": 0.63,
        "hand": "right"
      },
      {
        "midi": 51,
        "time": 96.719,
        "duration": 0.156,
        "velocity": 0.63,
        "hand": "left"
      },
      {
        "midi": 56,
        "time": 96.875,
        "duration": 0.156,
        "velocity": 0.63,
        "hand": "left"
      },
      {
        "midi": 73,
        "time": 96.875,
        "duration": 0.313,
        "velocity": 0.63,
        "hand": "right"
      },
      {
        "midi": 59,
        "time": 97.031,
        "duration": 0.156,
        "velocity": 0.63,
        "hand": "left"
      },
      {
        "midi": 56,
        "time": 97.188,
        "duration": 0.156,
        "velocity": 0.63,
        "hand": "left"
      },
      {
        "midi": 68,
        "time": 97.188,
        "duration": 0.313,
        "velocity": 0.63,
        "hand": "right"
      },
      {
        "midi": 71,
        "time": 97.188,
        "duration": 0.313,
        "velocity": 0.63,
        "hand": "right"
      },
      {
        "midi": 51,
        "time": 97.344,
        "duration": 0.156,
        "velocity": 0.63,
        "hand": "left"
      },
      {
        "midi": 30,
        "time": 97.5,
        "duration": 0.156,
        "velocity": 0.63,
        "hand": "left"
      },
      {
        "midi": 42,
        "time": 97.5,
        "duration": 0.156,
        "velocity": 0.63,
        "hand": "left"
      },
      {
        "midi": 66,
        "time": 97.5,
        "duration": 0.156,
        "velocity": 0.63,
        "hand": "right"
      },
      {
        "midi": 71,
        "time": 97.5,
        "duration": 0.156,
        "velocity": 0.63,
        "hand": "right"
      },
      {
        "midi": 49,
        "time": 97.656,
        "duration": 0.156,
        "velocity": 0.63,
        "hand": "left"
      },
      {
        "midi": 66,
        "time": 97.656,
        "duration": 2.188,
        "velocity": 0.63,
        "hand": "right"
      },
      {
        "midi": 69,
        "time": 97.656,
        "duration": 2.188,
        "velocity": 0.63,
        "hand": "right"
      },
      {
        "midi": 54,
        "time": 97.813,
        "duration": 0.156,
        "velocity": 0.63,
        "hand": "left"
      },
      {
        "midi": 57,
        "time": 97.969,
        "duration": 0.156,
        "velocity": 0.63,
        "hand": "left"
      },
      {
        "midi": 54,
        "time": 98.125,
        "duration": 0.156,
        "velocity": 0.63,
        "hand": "left"
      },
      {
        "midi": 49,
        "time": 98.281,
        "duration": 0.156,
        "velocity": 0.63,
        "hand": "left"
      },
      {
        "midi": 30,
        "time": 98.438,
        "duration": 0.156,
        "velocity": 0.63,
        "hand": "left"
      },
      {
        "midi": 42,
        "time": 98.438,
        "duration": 0.156,
        "velocity": 0.63,
        "hand": "left"
      },
      {
        "midi": 49,
        "time": 98.594,
        "duration": 0.156,
        "velocity": 0.63,
        "hand": "left"
      },
      {
        "midi": 54,
        "time": 98.75,
        "duration": 0.156,
        "velocity": 0.63,
        "hand": "left"
      },
      {
        "midi": 57,
        "time": 98.906,
        "duration": 0.156,
        "velocity": 0.63,
        "hand": "left"
      },
      {
        "midi": 54,
        "time": 99.063,
        "duration": 0.156,
        "velocity": 0.63,
        "hand": "left"
      },
      {
        "midi": 49,
        "time": 99.219,
        "duration": 0.156,
        "velocity": 0.63,
        "hand": "left"
      },
      {
        "midi": 30,
        "time": 99.375,
        "duration": 0.156,
        "velocity": 0.63,
        "hand": "left"
      },
      {
        "midi": 42,
        "time": 99.375,
        "duration": 0.156,
        "velocity": 0.63,
        "hand": "left"
      },
      {
        "midi": 49,
        "time": 99.531,
        "duration": 0.156,
        "velocity": 0.63,
        "hand": "left"
      },
      {
        "midi": 54,
        "time": 99.688,
        "duration": 0.156,
        "velocity": 0.63,
        "hand": "left"
      },
      {
        "midi": 57,
        "time": 99.844,
        "duration": 0.156,
        "velocity": 0.63,
        "hand": "left"
      },
      {
        "midi": 54,
        "time": 100,
        "duration": 0.156,
        "velocity": 0.63,
        "hand": "left"
      },
      {
        "midi": 61,
        "time": 100,
        "duration": 0.313,
        "velocity": 0.63,
        "hand": "right"
      },
      {
        "midi": 64,
        "time": 100,
        "duration": 0.313,
        "velocity": 0.63,
        "hand": "right"
      },
      {
        "midi": 73,
        "time": 100,
        "duration": 0.313,
        "velocity": 0.63,
        "hand": "right"
      },
      {
        "midi": 49,
        "time": 100.156,
        "duration": 0.156,
        "velocity": 0.63,
        "hand": "left"
      },
      {
        "midi": 30,
        "time": 100.313,
        "duration": 0.156,
        "velocity": 0.63,
        "hand": "left"
      },
      {
        "midi": 42,
        "time": 100.313,
        "duration": 0.156,
        "velocity": 0.63,
        "hand": "left"
      },
      {
        "midi": 61,
        "time": 100.313,
        "duration": 0.313,
        "velocity": 0.63,
        "hand": "right"
      },
      {
        "midi": 64,
        "time": 100.313,
        "duration": 0.313,
        "velocity": 0.63,
        "hand": "right"
      },
      {
        "midi": 66,
        "time": 100.313,
        "duration": 0.313,
        "velocity": 0.63,
        "hand": "right"
      },
      {
        "midi": 71,
        "time": 100.313,
        "duration": 0.313,
        "velocity": 0.63,
        "hand": "right"
      },
      {
        "midi": 49,
        "time": 100.469,
        "duration": 0.156,
        "velocity": 0.63,
        "hand": "left"
      },
      {
        "midi": 54,
        "time": 100.625,
        "duration": 0.156,
        "velocity": 0.63,
        "hand": "left"
      },
      {
        "midi": 61,
        "time": 100.625,
        "duration": 0.313,
        "velocity": 0.63,
        "hand": "right"
      },
      {
        "midi": 66,
        "time": 100.625,
        "duration": 0.313,
        "velocity": 0.63,
        "hand": "right"
      },
      {
        "midi": 69,
        "time": 100.625,
        "duration": 0.313,
        "velocity": 0.63,
        "hand": "right"
      },
      {
        "midi": 57,
        "time": 100.781,
        "duration": 0.156,
        "velocity": 0.63,
        "hand": "left"
      },
      {
        "midi": 54,
        "time": 100.938,
        "duration": 0.156,
        "velocity": 0.63,
        "hand": "left"
      },
      {
        "midi": 61,
        "time": 100.938,
        "duration": 0.156,
        "velocity": 0.63,
        "hand": "right"
      },
      {
        "midi": 66,
        "time": 100.938,
        "duration": 0.156,
        "velocity": 0.63,
        "hand": "right"
      },
      {
        "midi": 68,
        "time": 100.938,
        "duration": 0.156,
        "velocity": 0.63,
        "hand": "right"
      },
      {
        "midi": 49,
        "time": 101.094,
        "duration": 0.156,
        "velocity": 0.63,
        "hand": "left"
      },
      {
        "midi": 59,
        "time": 101.094,
        "duration": 2.5,
        "velocity": 0.63,
        "hand": "left"
      },
      {
        "midi": 64,
        "time": 101.094,
        "duration": 2.5,
        "velocity": 0.63,
        "hand": "right"
      },
      {
        "midi": 68,
        "time": 101.094,
        "duration": 2.5,
        "velocity": 0.63,
        "hand": "right"
      },
      {
        "midi": 28,
        "time": 101.25,
        "duration": 0.156,
        "velocity": 0.63,
        "hand": "left"
      },
      {
        "midi": 40,
        "time": 101.25,
        "duration": 0.156,
        "velocity": 0.63,
        "hand": "left"
      },
      {
        "midi": 47,
        "time": 101.406,
        "duration": 0.156,
        "velocity": 0.63,
        "hand": "left"
      },
      {
        "midi": 52,
        "time": 101.563,
        "duration": 0.156,
        "velocity": 0.63,
        "hand": "left"
      },
      {
        "midi": 56,
        "time": 101.719,
        "duration": 0.156,
        "velocity": 0.63,
        "hand": "left"
      },
      {
        "midi": 52,
        "time": 101.875,
        "duration": 0.156,
        "velocity": 0.63,
        "hand": "left"
      },
      {
        "midi": 47,
        "time": 102.031,
        "duration": 0.156,
        "velocity": 0.63,
        "hand": "left"
      },
      {
        "midi": 28,
        "time": 102.188,
        "duration": 0.156,
        "velocity": 0.63,
        "hand": "left"
      },
      {
        "midi": 40,
        "time": 102.188,
        "duration": 0.156,
        "velocity": 0.63,
        "hand": "left"
      },
      {
        "midi": 47,
        "time": 102.344,
        "duration": 0.156,
        "velocity": 0.63,
        "hand": "left"
      },
      {
        "midi": 52,
        "time": 102.5,
        "duration": 0.156,
        "velocity": 0.63,
        "hand": "left"
      },
      {
        "midi": 56,
        "time": 102.656,
        "duration": 0.156,
        "velocity": 0.63,
        "hand": "left"
      },
      {
        "midi": 52,
        "time": 102.813,
        "duration": 0.156,
        "velocity": 0.63,
        "hand": "left"
      },
      {
        "midi": 47,
        "time": 102.969,
        "duration": 0.156,
        "velocity": 0.63,
        "hand": "left"
      },
      {
        "midi": 28,
        "time": 103.125,
        "duration": 0.156,
        "velocity": 0.63,
        "hand": "left"
      },
      {
        "midi": 40,
        "time": 103.125,
        "duration": 0.156,
        "velocity": 0.63,
        "hand": "left"
      },
      {
        "midi": 47,
        "time": 103.281,
        "duration": 0.156,
        "velocity": 0.63,
        "hand": "left"
      },
      {
        "midi": 52,
        "time": 103.438,
        "duration": 0.156,
        "velocity": 0.63,
        "hand": "left"
      },
      {
        "midi": 56,
        "time": 103.594,
        "duration": 0.156,
        "velocity": 0.63,
        "hand": "left"
      },
      {
        "midi": 52,
        "time": 103.75,
        "duration": 0.156,
        "velocity": 0.63,
        "hand": "left"
      },
      {
        "midi": 66,
        "time": 103.75,
        "duration": 0.313,
        "velocity": 0.63,
        "hand": "right"
      },
      {
        "midi": 47,
        "time": 103.906,
        "duration": 0.156,
        "velocity": 0.63,
        "hand": "left"
      },
      {
        "midi": 28,
        "time": 104.063,
        "duration": 0.156,
        "velocity": 0.63,
        "hand": "left"
      },
      {
        "midi": 40,
        "time": 104.063,
        "duration": 0.156,
        "velocity": 0.63,
        "hand": "left"
      },
      {
        "midi": 64,
        "time": 104.063,
        "duration": 0.313,
        "velocity": 0.63,
        "hand": "right"
      },
      {
        "midi": 47,
        "time": 104.219,
        "duration": 0.156,
        "velocity": 0.63,
        "hand": "left"
      },
      {
        "midi": 52,
        "time": 104.375,
        "duration": 0.156,
        "velocity": 0.63,
        "hand": "left"
      },
      {
        "midi": 68,
        "time": 104.375,
        "duration": 0.313,
        "velocity": 0.63,
        "hand": "right"
      },
      {
        "midi": 56,
        "time": 104.531,
        "duration": 0.156,
        "velocity": 0.63,
        "hand": "left"
      },
      {
        "midi": 52,
        "time": 104.688,
        "duration": 0.156,
        "velocity": 0.63,
        "hand": "left"
      },
      {
        "midi": 71,
        "time": 104.688,
        "duration": 0.313,
        "velocity": 0.63,
        "hand": "right"
      },
      {
        "midi": 47,
        "time": 104.844,
        "duration": 0.156,
        "velocity": 0.63,
        "hand": "left"
      },
      {
        "midi": 33,
        "time": 105,
        "duration": 0.156,
        "velocity": 0.63,
        "hand": "left"
      },
      {
        "midi": 45,
        "time": 105,
        "duration": 0.156,
        "velocity": 0.63,
        "hand": "left"
      },
      {
        "midi": 64,
        "time": 105,
        "duration": 1.25,
        "velocity": 0.63,
        "hand": "right"
      },
      {
        "midi": 69,
        "time": 105,
        "duration": 1.25,
        "velocity": 0.63,
        "hand": "right"
      },
      {
        "midi": 52,
        "time": 105.156,
        "duration": 0.156,
        "velocity": 0.63,
        "hand": "left"
      },
      {
        "midi": 73,
        "time": 105.156,
        "duration": 1.094,
        "velocity": 0.63,
        "hand": "right"
      },
      {
        "midi": 57,
        "time": 105.313,
        "duration": 0.156,
        "velocity": 0.63,
        "hand": "left"
      },
      {
        "midi": 61,
        "time": 105.469,
        "duration": 0.156,
        "velocity": 0.63,
        "hand": "right"
      },
      {
        "midi": 57,
        "time": 105.625,
        "duration": 0.156,
        "velocity": 0.63,
        "hand": "left"
      },
      {
        "midi": 52,
        "time": 105.781,
        "duration": 0.156,
        "velocity": 0.63,
        "hand": "left"
      },
      {
        "midi": 33,
        "time": 105.938,
        "duration": 0.156,
        "velocity": 0.63,
        "hand": "left"
      },
      {
        "midi": 45,
        "time": 105.938,
        "duration": 0.156,
        "velocity": 0.63,
        "hand": "left"
      },
      {
        "midi": 52,
        "time": 106.094,
        "duration": 0.156,
        "velocity": 0.63,
        "hand": "left"
      },
      {
        "midi": 57,
        "time": 106.25,
        "duration": 0.156,
        "velocity": 0.63,
        "hand": "left"
      },
      {
        "midi": 64,
        "time": 106.25,
        "duration": 0.313,
        "velocity": 0.63,
        "hand": "right"
      },
      {
        "midi": 73,
        "time": 106.25,
        "duration": 0.313,
        "velocity": 0.63,
        "hand": "right"
      },
      {
        "midi": 61,
        "time": 106.406,
        "duration": 0.156,
        "velocity": 0.63,
        "hand": "right"
      },
      {
        "midi": 57,
        "time": 106.563,
        "duration": 0.156,
        "velocity": 0.63,
        "hand": "left"
      },
      {
        "midi": 69,
        "time": 106.563,
        "duration": 0.313,
        "velocity": 0.63,
        "hand": "right"
      },
      {
        "midi": 75,
        "time": 106.563,
        "duration": 0.313,
        "velocity": 0.63,
        "hand": "right"
      },
      {
        "midi": 52,
        "time": 106.719,
        "duration": 0.156,
        "velocity": 0.63,
        "hand": "left"
      },
      {
        "midi": 33,
        "time": 106.875,
        "duration": 0.156,
        "velocity": 0.63,
        "hand": "left"
      },
      {
        "midi": 45,
        "time": 106.875,
        "duration": 0.156,
        "velocity": 0.63,
        "hand": "left"
      },
      {
        "midi": 69,
        "time": 106.875,
        "duration": 1.25,
        "velocity": 0.63,
        "hand": "right"
      },
      {
        "midi": 73,
        "time": 106.875,
        "duration": 1.25,
        "velocity": 0.63,
        "hand": "right"
      },
      {
        "midi": 76,
        "time": 106.875,
        "duration": 1.25,
        "velocity": 0.63,
        "hand": "right"
      },
      {
        "midi": 52,
        "time": 107.031,
        "duration": 0.156,
        "velocity": 0.63,
        "hand": "left"
      },
      {
        "midi": 57,
        "time": 107.188,
        "duration": 0.156,
        "velocity": 0.63,
        "hand": "left"
      },
      {
        "midi": 61,
        "time": 107.344,
        "duration": 0.156,
        "velocity": 0.63,
        "hand": "right"
      },
      {
        "midi": 57,
        "time": 107.5,
        "duration": 0.156,
        "velocity": 0.63,
        "hand": "left"
      },
      {
        "midi": 52,
        "time": 107.656,
        "duration": 0.156,
        "velocity": 0.63,
        "hand": "left"
      },
      {
        "midi": 33,
        "time": 107.813,
        "duration": 0.156,
        "velocity": 0.63,
        "hand": "left"
      },
      {
        "midi": 45,
        "time": 107.813,
        "duration": 0.156,
        "velocity": 0.63,
        "hand": "left"
      },
      {
        "midi": 52,
        "time": 107.969,
        "duration": 0.156,
        "velocity": 0.63,
        "hand": "left"
      },
      {
        "midi": 57,
        "time": 108.125,
        "duration": 0.156,
        "velocity": 0.63,
        "hand": "left"
      },
      {
        "midi": 69,
        "time": 108.125,
        "duration": 0.313,
        "velocity": 0.63,
        "hand": "right"
      },
      {
        "midi": 76,
        "time": 108.125,
        "duration": 0.313,
        "velocity": 0.63,
        "hand": "right"
      },
      {
        "midi": 61,
        "time": 108.281,
        "duration": 0.156,
        "velocity": 0.63,
        "hand": "right"
      },
      {
        "midi": 57,
        "time": 108.438,
        "duration": 0.156,
        "velocity": 0.63,
        "hand": "left"
      },
      {
        "midi": 68,
        "time": 108.438,
        "duration": 0.313,
        "velocity": 0.63,
        "hand": "right"
      },
      {
        "midi": 78,
        "time": 108.438,
        "duration": 0.313,
        "velocity": 0.63,
        "hand": "right"
      },
      {
        "midi": 52,
        "time": 108.594,
        "duration": 0.156,
        "velocity": 0.63,
        "hand": "left"
      },
      {
        "midi": 32,
        "time": 108.75,
        "duration": 0.156,
        "velocity": 0.63,
        "hand": "left"
      },
      {
        "midi": 44,
        "time": 108.75,
        "duration": 0.156,
        "velocity": 0.63,
        "hand": "left"
      },
      {
        "midi": 68,
        "time": 108.75,
        "duration": 0.313,
        "velocity": 0.63,
        "hand": "right"
      },
      {
        "midi": 75,
        "time": 108.75,
        "duration": 0.313,
        "velocity": 0.63,
        "hand": "right"
      },
      {
        "midi": 51,
        "time": 108.906,
        "duration": 0.156,
        "velocity": 0.63,
        "hand": "left"
      },
      {
        "midi": 56,
        "time": 109.063,
        "duration": 0.156,
        "velocity": 0.63,
        "hand": "left"
      },
      {
        "midi": 73,
        "time": 109.063,
        "duration": 0.313,
        "velocity": 0.63,
        "hand": "right"
      },
      {
        "midi": 59,
        "time": 109.219,
        "duration": 0.156,
        "velocity": 0.63,
        "hand": "left"
      },
      {
        "midi": 56,
        "time": 109.375,
        "duration": 0.156,
        "velocity": 0.63,
        "hand": "left"
      },
      {
        "midi": 68,
        "time": 109.375,
        "duration": 0.313,
        "velocity": 0.63,
        "hand": "right"
      },
      {
        "midi": 71,
        "time": 109.375,
        "duration": 0.313,
        "velocity": 0.63,
        "hand": "right"
      },
      {
        "midi": 51,
        "time": 109.531,
        "duration": 0.156,
        "velocity": 0.63,
        "hand": "left"
      },
      {
        "midi": 32,
        "time": 109.688,
        "duration": 0.156,
        "velocity": 0.63,
        "hand": "left"
      },
      {
        "midi": 44,
        "time": 109.688,
        "duration": 0.156,
        "velocity": 0.63,
        "hand": "left"
      },
      {
        "midi": 68,
        "time": 109.688,
        "duration": 0.625,
        "velocity": 0.63,
        "hand": "right"
      },
      {
        "midi": 71,
        "time": 109.688,
        "duration": 0.625,
        "velocity": 0.63,
        "hand": "right"
      },
      {
        "midi": 51,
        "time": 109.844,
        "duration": 0.156,
        "velocity": 0.63,
        "hand": "left"
      },
      {
        "midi": 56,
        "time": 110,
        "duration": 0.156,
        "velocity": 0.63,
        "hand": "left"
      },
      {
        "midi": 59,
        "time": 110.156,
        "duration": 0.156,
        "velocity": 0.63,
        "hand": "left"
      },
      {
        "midi": 56,
        "time": 110.313,
        "duration": 0.156,
        "velocity": 0.63,
        "hand": "left"
      },
      {
        "midi": 63,
        "time": 110.313,
        "duration": 0.313,
        "velocity": 0.63,
        "hand": "right"
      },
      {
        "midi": 68,
        "time": 110.313,
        "duration": 0.313,
        "velocity": 0.63,
        "hand": "right"
      },
      {
        "midi": 51,
        "time": 110.469,
        "duration": 0.156,
        "velocity": 0.63,
        "hand": "left"
      },
      {
        "midi": 32,
        "time": 110.625,
        "duration": 0.156,
        "velocity": 0.63,
        "hand": "left"
      },
      {
        "midi": 44,
        "time": 110.625,
        "duration": 0.156,
        "velocity": 0.63,
        "hand": "left"
      },
      {
        "midi": 63,
        "time": 110.625,
        "duration": 0.313,
        "velocity": 0.63,
        "hand": "right"
      },
      {
        "midi": 68,
        "time": 110.625,
        "duration": 0.313,
        "velocity": 0.63,
        "hand": "right"
      },
      {
        "midi": 71,
        "time": 110.625,
        "duration": 0.313,
        "velocity": 0.63,
        "hand": "right"
      },
      {
        "midi": 75,
        "time": 110.625,
        "duration": 0.313,
        "velocity": 0.63,
        "hand": "right"
      },
      {
        "midi": 51,
        "time": 110.781,
        "duration": 0.156,
        "velocity": 0.63,
        "hand": "left"
      },
      {
        "midi": 56,
        "time": 110.938,
        "duration": 0.156,
        "velocity": 0.63,
        "hand": "left"
      },
      {
        "midi": 73,
        "time": 110.938,
        "duration": 0.313,
        "velocity": 0.63,
        "hand": "right"
      },
      {
        "midi": 59,
        "time": 111.094,
        "duration": 0.156,
        "velocity": 0.63,
        "hand": "left"
      },
      {
        "midi": 56,
        "time": 111.25,
        "duration": 0.156,
        "velocity": 0.63,
        "hand": "left"
      },
      {
        "midi": 68,
        "time": 111.25,
        "duration": 0.313,
        "velocity": 0.63,
        "hand": "right"
      },
      {
        "midi": 71,
        "time": 111.25,
        "duration": 0.313,
        "velocity": 0.63,
        "hand": "right"
      },
      {
        "midi": 51,
        "time": 111.406,
        "duration": 0.156,
        "velocity": 0.63,
        "hand": "left"
      },
      {
        "midi": 31,
        "time": 111.563,
        "duration": 0.156,
        "velocity": 0.63,
        "hand": "left"
      },
      {
        "midi": 43,
        "time": 111.563,
        "duration": 0.156,
        "velocity": 0.63,
        "hand": "left"
      },
      {
        "midi": 63,
        "time": 111.563,
        "duration": 0.313,
        "velocity": 0.63,
        "hand": "right"
      },
      {
        "midi": 68,
        "time": 111.563,
        "duration": 0.313,
        "velocity": 0.63,
        "hand": "right"
      },
      {
        "midi": 75,
        "time": 111.563,
        "duration": 0.313,
        "velocity": 0.63,
        "hand": "right"
      },
      {
        "midi": 51,
        "time": 111.719,
        "duration": 0.156,
        "velocity": 0.63,
        "hand": "left"
      },
      {
        "midi": 56,
        "time": 111.875,
        "duration": 0.156,
        "velocity": 0.63,
        "hand": "left"
      },
      {
        "midi": 73,
        "time": 111.875,
        "duration": 0.313,
        "velocity": 0.63,
        "hand": "right"
      },
      {
        "midi": 59,
        "time": 112.031,
        "duration": 0.156,
        "velocity": 0.63,
        "hand": "left"
      },
      {
        "midi": 56,
        "time": 112.188,
        "duration": 0.156,
        "velocity": 0.63,
        "hand": "left"
      },
      {
        "midi": 68,
        "time": 112.188,
        "duration": 0.313,
        "velocity": 0.63,
        "hand": "right"
      },
      {
        "midi": 71,
        "time": 112.188,
        "duration": 0.313,
        "velocity": 0.63,
        "hand": "right"
      },
      {
        "midi": 51,
        "time": 112.344,
        "duration": 0.156,
        "velocity": 0.63,
        "hand": "left"
      },
      {
        "midi": 30,
        "time": 112.5,
        "duration": 0.156,
        "velocity": 0.63,
        "hand": "left"
      },
      {
        "midi": 42,
        "time": 112.5,
        "duration": 0.156,
        "velocity": 0.63,
        "hand": "left"
      },
      {
        "midi": 66,
        "time": 112.5,
        "duration": 0.156,
        "velocity": 0.63,
        "hand": "right"
      },
      {
        "midi": 71,
        "time": 112.5,
        "duration": 0.156,
        "velocity": 0.63,
        "hand": "right"
      },
      {
        "midi": 49,
        "time": 112.656,
        "duration": 0.156,
        "velocity": 0.63,
        "hand": "left"
      },
      {
        "midi": 66,
        "time": 112.656,
        "duration": 2.188,
        "velocity": 0.63,
        "hand": "right"
      },
      {
        "midi": 69,
        "time": 112.656,
        "duration": 2.188,
        "velocity": 0.63,
        "hand": "right"
      },
      {
        "midi": 54,
        "time": 112.813,
        "duration": 0.156,
        "velocity": 0.63,
        "hand": "left"
      },
      {
        "midi": 57,
        "time": 112.969,
        "duration": 0.156,
        "velocity": 0.63,
        "hand": "left"
      },
      {
        "midi": 54,
        "time": 113.125,
        "duration": 0.156,
        "velocity": 0.63,
        "hand": "left"
      },
      {
        "midi": 49,
        "time": 113.281,
        "duration": 0.156,
        "velocity": 0.63,
        "hand": "left"
      },
      {
        "midi": 30,
        "time": 113.438,
        "duration": 0.156,
        "velocity": 0.63,
        "hand": "left"
      },
      {
        "midi": 42,
        "time": 113.438,
        "duration": 0.156,
        "velocity": 0.63,
        "hand": "left"
      },
      {
        "midi": 49,
        "time": 113.594,
        "duration": 0.156,
        "velocity": 0.63,
        "hand": "left"
      },
      {
        "midi": 54,
        "time": 113.75,
        "duration": 0.156,
        "velocity": 0.63,
        "hand": "left"
      },
      {
        "midi": 57,
        "time": 113.906,
        "duration": 0.156,
        "velocity": 0.63,
        "hand": "left"
      },
      {
        "midi": 54,
        "time": 114.063,
        "duration": 0.156,
        "velocity": 0.63,
        "hand": "left"
      },
      {
        "midi": 49,
        "time": 114.219,
        "duration": 0.156,
        "velocity": 0.63,
        "hand": "left"
      },
      {
        "midi": 30,
        "time": 114.375,
        "duration": 0.156,
        "velocity": 0.63,
        "hand": "left"
      },
      {
        "midi": 42,
        "time": 114.375,
        "duration": 0.156,
        "velocity": 0.63,
        "hand": "left"
      },
      {
        "midi": 49,
        "time": 114.531,
        "duration": 0.156,
        "velocity": 0.63,
        "hand": "left"
      },
      {
        "midi": 54,
        "time": 114.688,
        "duration": 0.156,
        "velocity": 0.63,
        "hand": "left"
      },
      {
        "midi": 57,
        "time": 114.844,
        "duration": 0.156,
        "velocity": 0.63,
        "hand": "left"
      },
      {
        "midi": 54,
        "time": 115,
        "duration": 0.156,
        "velocity": 0.63,
        "hand": "left"
      },
      {
        "midi": 61,
        "time": 115,
        "duration": 0.313,
        "velocity": 0.63,
        "hand": "right"
      },
      {
        "midi": 64,
        "time": 115,
        "duration": 0.313,
        "velocity": 0.63,
        "hand": "right"
      },
      {
        "midi": 73,
        "time": 115,
        "duration": 0.313,
        "velocity": 0.63,
        "hand": "right"
      },
      {
        "midi": 49,
        "time": 115.156,
        "duration": 0.156,
        "velocity": 0.63,
        "hand": "left"
      },
      {
        "midi": 30,
        "time": 115.313,
        "duration": 0.156,
        "velocity": 0.63,
        "hand": "left"
      },
      {
        "midi": 42,
        "time": 115.313,
        "duration": 0.156,
        "velocity": 0.63,
        "hand": "left"
      },
      {
        "midi": 61,
        "time": 115.313,
        "duration": 0.313,
        "velocity": 0.63,
        "hand": "right"
      },
      {
        "midi": 64,
        "time": 115.313,
        "duration": 0.313,
        "velocity": 0.63,
        "hand": "right"
      },
      {
        "midi": 66,
        "time": 115.313,
        "duration": 0.313,
        "velocity": 0.63,
        "hand": "right"
      },
      {
        "midi": 71,
        "time": 115.313,
        "duration": 0.313,
        "velocity": 0.63,
        "hand": "right"
      },
      {
        "midi": 49,
        "time": 115.469,
        "duration": 0.156,
        "velocity": 0.63,
        "hand": "left"
      },
      {
        "midi": 54,
        "time": 115.625,
        "duration": 0.156,
        "velocity": 0.63,
        "hand": "left"
      },
      {
        "midi": 61,
        "time": 115.625,
        "duration": 0.313,
        "velocity": 0.63,
        "hand": "right"
      },
      {
        "midi": 66,
        "time": 115.625,
        "duration": 0.313,
        "velocity": 0.63,
        "hand": "right"
      },
      {
        "midi": 69,
        "time": 115.625,
        "duration": 0.313,
        "velocity": 0.63,
        "hand": "right"
      },
      {
        "midi": 57,
        "time": 115.781,
        "duration": 0.156,
        "velocity": 0.63,
        "hand": "left"
      },
      {
        "midi": 54,
        "time": 115.938,
        "duration": 0.156,
        "velocity": 0.63,
        "hand": "left"
      },
      {
        "midi": 61,
        "time": 115.938,
        "duration": 0.313,
        "velocity": 0.63,
        "hand": "right"
      },
      {
        "midi": 66,
        "time": 115.938,
        "duration": 0.313,
        "velocity": 0.63,
        "hand": "right"
      },
      {
        "midi": 68,
        "time": 115.938,
        "duration": 0.313,
        "velocity": 0.63,
        "hand": "right"
      },
      {
        "midi": 49,
        "time": 116.094,
        "duration": 0.156,
        "velocity": 0.63,
        "hand": "left"
      },
      {
        "midi": 32,
        "time": 116.25,
        "duration": 0.313,
        "velocity": 0.63,
        "hand": "left"
      },
      {
        "midi": 44,
        "time": 116.25,
        "duration": 0.313,
        "velocity": 0.63,
        "hand": "left"
      },
      {
        "midi": 60,
        "time": 116.25,
        "duration": 0.938,
        "velocity": 0.63,
        "hand": "right"
      },
      {
        "midi": 63,
        "time": 116.25,
        "duration": 0.938,
        "velocity": 0.63,
        "hand": "right"
      },
      {
        "midi": 68,
        "time": 116.25,
        "duration": 0.938,
        "velocity": 0.63,
        "hand": "right"
      },
      {
        "midi": 51,
        "time": 116.563,
        "duration": 0.313,
        "velocity": 0.65,
        "hand": "left"
      },
      {
        "midi": 56,
        "time": 116.563,
        "duration": 0.313,
        "velocity": 0.65,
        "hand": "left"
      },
      {
        "midi": 51,
        "time": 116.875,
        "duration": 0.313,
        "velocity": 0.67,
        "hand": "left"
      },
      {
        "midi": 56,
        "time": 116.875,
        "duration": 0.313,
        "velocity": 0.67,
        "hand": "left"
      },
      {
        "midi": 32,
        "time": 117.188,
        "duration": 0.313,
        "velocity": 0.69,
        "hand": "left"
      },
      {
        "midi": 44,
        "time": 117.188,
        "duration": 0.313,
        "velocity": 0.69,
        "hand": "left"
      },
      {
        "midi": 61,
        "time": 117.188,
        "duration": 0.938,
        "velocity": 0.69,
        "hand": "right"
      },
      {
        "midi": 68,
        "time": 117.188,
        "duration": 0.938,
        "velocity": 0.69,
        "hand": "right"
      },
      {
        "midi": 73,
        "time": 117.188,
        "duration": 0.938,
        "velocity": 0.69,
        "hand": "right"
      },
      {
        "midi": 51,
        "time": 117.5,
        "duration": 0.313,
        "velocity": 0.71,
        "hand": "left"
      },
      {
        "midi": 56,
        "time": 117.5,
        "duration": 0.313,
        "velocity": 0.71,
        "hand": "left"
      },
      {
        "midi": 51,
        "time": 117.813,
        "duration": 0.313,
        "velocity": 0.73,
        "hand": "left"
      },
      {
        "midi": 56,
        "time": 117.813,
        "duration": 0.313,
        "velocity": 0.73,
        "hand": "left"
      },
      {
        "midi": 51,
        "time": 118.125,
        "duration": 0.156,
        "velocity": 0.76,
        "hand": "left"
      },
      {
        "midi": 56,
        "time": 118.125,
        "duration": 0.156,
        "velocity": 0.76,
        "hand": "left"
      },
      {
        "midi": 64,
        "time": 118.125,
        "duration": 0.938,
        "velocity": 0.76,
        "hand": "right"
      },
      {
        "midi": 68,
        "time": 118.125,
        "duration": 0.938,
        "velocity": 0.76,
        "hand": "right"
      },
      {
        "midi": 76,
        "time": 118.125,
        "duration": 0.938,
        "velocity": 0.76,
        "hand": "right"
      },
      {
        "midi": 44,
        "time": 118.281,
        "duration": 0.156,
        "velocity": 0.76,
        "hand": "left"
      },
      {
        "midi": 51,
        "time": 118.438,
        "duration": 0.156,
        "velocity": 0.77,
        "hand": "left"
      },
      {
        "midi": 56,
        "time": 118.438,
        "duration": 0.156,
        "velocity": 0.77,
        "hand": "left"
      },
      {
        "midi": 44,
        "time": 118.594,
        "duration": 0.156,
        "velocity": 0.79,
        "hand": "left"
      },
      {
        "midi": 51,
        "time": 118.75,
        "duration": 0.156,
        "velocity": 0.8,
        "hand": "left"
      },
      {
        "midi": 56,
        "time": 118.75,
        "duration": 0.156,
        "velocity": 0.8,
        "hand": "left"
      },
      {
        "midi": 44,
        "time": 118.906,
        "duration": 0.156,
        "velocity": 0.8,
        "hand": "left"
      },
      {
        "midi": 60,
        "time": 119.063,
        "duration": 0.938,
        "velocity": 0.98,
        "hand": "right"
      },
      {
        "midi": 63,
        "time": 119.063,
        "duration": 0.938,
        "velocity": 0.98,
        "hand": "right"
      },
      {
        "midi": 66,
        "time": 119.063,
        "duration": 0.938,
        "velocity": 0.98,
        "hand": "right"
      },
      {
        "midi": 68,
        "time": 119.063,
        "duration": 0.938,
        "velocity": 0.98,
        "hand": "right"
      },
      {
        "midi": 72,
        "time": 119.063,
        "duration": 0.938,
        "velocity": 0.98,
        "hand": "right"
      },
      {
        "midi": 78,
        "time": 119.063,
        "duration": 0.938,
        "velocity": 0.98,
        "hand": "right"
      },
      {
        "midi": 33,
        "time": 120,
        "duration": 0.313,
        "velocity": 1,
        "hand": "left"
      },
      {
        "midi": 45,
        "time": 120,
        "duration": 0.313,
        "velocity": 1,
        "hand": "left"
      },
      {
        "midi": 80,
        "time": 120,
        "duration": 0.078,
        "velocity": 0.88,
        "hand": "right"
      },
      {
        "midi": 80,
        "time": 120,
        "duration": 0.156,
        "velocity": 1,
        "hand": "right"
      },
      {
        "midi": 85,
        "time": 120,
        "duration": 0.469,
        "velocity": 1,
        "hand": "right"
      },
      {
        "midi": 88,
        "time": 120,
        "duration": 1.719,
        "velocity": 1,
        "hand": "right"
      },
      {
        "midi": 92,
        "time": 120,
        "duration": 1.719,
        "velocity": 1,
        "hand": "right"
      },
      {
        "midi": 80,
        "time": 120.156,
        "duration": 0.625,
        "velocity": 0.88,
        "hand": "right"
      },
      {
        "midi": 83,
        "time": 120.313,
        "duration": 0.156,
        "velocity": 0.88,
        "hand": "right"
      },
      {
        "midi": 85,
        "time": 120.469,
        "duration": 0.938,
        "velocity": 0.88,
        "hand": "right"
      },
      {
        "midi": 83,
        "time": 120.625,
        "duration": 0.156,
        "velocity": 0.88,
        "hand": "right"
      },
      {
        "midi": 80,
        "time": 120.781,
        "duration": 0.313,
        "velocity": 0.88,
        "hand": "right"
      },
      {
        "midi": 56,
        "time": 120.938,
        "duration": 0.938,
        "velocity": 0.88,
        "hand": "left"
      },
      {
        "midi": 61,
        "time": 120.938,
        "duration": 0.938,
        "velocity": 0.88,
        "hand": "right"
      },
      {
        "midi": 64,
        "time": 120.938,
        "duration": 0.938,
        "velocity": 0.88,
        "hand": "right"
      },
      {
        "midi": 78,
        "time": 120.938,
        "duration": 0.156,
        "velocity": 0.88,
        "hand": "right"
      },
      {
        "midi": 80,
        "time": 121.094,
        "duration": 0.625,
        "velocity": 0.88,
        "hand": "right"
      },
      {
        "midi": 83,
        "time": 121.25,
        "duration": 0.156,
        "velocity": 0.88,
        "hand": "right"
      },
      {
        "midi": 85,
        "time": 121.406,
        "duration": 0.313,
        "velocity": 0.88,
        "hand": "right"
      },
      {
        "midi": 83,
        "time": 121.563,
        "duration": 0.156,
        "velocity": 0.88,
        "hand": "right"
      },
      {
        "midi": 80,
        "time": 121.719,
        "duration": 0.156,
        "velocity": 0.88,
        "hand": "right"
      },
      {
        "midi": 73,
        "time": 121.875,
        "duration": 0.313,
        "velocity": 0.88,
        "hand": "right"
      },
      {
        "midi": 76,
        "time": 121.875,
        "duration": 0.313,
        "velocity": 0.88,
        "hand": "right"
      },
      {
        "midi": 78,
        "time": 121.875,
        "duration": 0.156,
        "velocity": 0.88,
        "hand": "right"
      },
      {
        "midi": 80,
        "time": 122.031,
        "duration": 0.156,
        "velocity": 0.88,
        "hand": "right"
      },
      {
        "midi": 68,
        "time": 122.188,
        "duration": 0.313,
        "velocity": 0.88,
        "hand": "right"
      },
      {
        "midi": 73,
        "time": 122.188,
        "duration": 0.313,
        "velocity": 0.88,
        "hand": "right"
      },
      {
        "midi": 83,
        "time": 122.188,
        "duration": 0.156,
        "velocity": 0.88,
        "hand": "right"
      },
      {
        "midi": 85,
        "time": 122.344,
        "duration": 0.156,
        "velocity": 0.88,
        "hand": "right"
      },
      {
        "midi": 73,
        "time": 122.5,
        "duration": 0.313,
        "velocity": 0.88,
        "hand": "right"
      },
      {
        "midi": 76,
        "time": 122.5,
        "duration": 0.313,
        "velocity": 0.88,
        "hand": "right"
      },
      {
        "midi": 83,
        "time": 122.5,
        "duration": 0.156,
        "velocity": 0.88,
        "hand": "right"
      },
      {
        "midi": 80,
        "time": 122.656,
        "duration": 0.156,
        "velocity": 0.88,
        "hand": "right"
      },
      {
        "midi": 64,
        "time": 122.813,
        "duration": 0.313,
        "velocity": 0.88,
        "hand": "right"
      },
      {
        "midi": 68,
        "time": 122.813,
        "duration": 0.313,
        "velocity": 0.88,
        "hand": "right"
      },
      {
        "midi": 78,
        "time": 122.813,
        "duration": 0.156,
        "velocity": 0.88,
        "hand": "right"
      },
      {
        "midi": 80,
        "time": 122.969,
        "duration": 0.156,
        "velocity": 0.88,
        "hand": "right"
      },
      {
        "midi": 61,
        "time": 123.125,
        "duration": 0.313,
        "velocity": 0.88,
        "hand": "right"
      },
      {
        "midi": 64,
        "time": 123.125,
        "duration": 0.313,
        "velocity": 0.88,
        "hand": "right"
      },
      {
        "midi": 83,
        "time": 123.125,
        "duration": 0.156,
        "velocity": 0.88,
        "hand": "right"
      },
      {
        "midi": 85,
        "time": 123.281,
        "duration": 0.156,
        "velocity": 0.88,
        "hand": "right"
      },
      {
        "midi": 64,
        "time": 123.438,
        "duration": 0.313,
        "velocity": 0.88,
        "hand": "right"
      },
      {
        "midi": 68,
        "time": 123.438,
        "duration": 0.313,
        "velocity": 0.88,
        "hand": "right"
      },
      {
        "midi": 83,
        "time": 123.438,
        "duration": 0.156,
        "velocity": 0.88,
        "hand": "right"
      },
      {
        "midi": 80,
        "time": 123.594,
        "duration": 0.156,
        "velocity": 0.88,
        "hand": "right"
      },
      {
        "midi": 33,
        "time": 123.75,
        "duration": 0.469,
        "velocity": 1,
        "hand": "left"
      },
      {
        "midi": 45,
        "time": 123.75,
        "duration": 0.469,
        "velocity": 1,
        "hand": "left"
      },
      {
        "midi": 73,
        "time": 123.75,
        "duration": 0.938,
        "velocity": 0.88,
        "hand": "right"
      },
      {
        "midi": 76,
        "time": 123.75,
        "duration": 0.938,
        "velocity": 0.88,
        "hand": "right"
      },
      {
        "midi": 80,
        "time": 123.75,
        "duration": 0.938,
        "velocity": 0.88,
        "hand": "right"
      },
      {
        "midi": 85,
        "time": 123.75,
        "duration": 0.938,
        "velocity": 0.88,
        "hand": "right"
      },
      {
        "midi": 52,
        "time": 124.219,
        "duration": 0.313,
        "velocity": 0.88,
        "hand": "left"
      },
      {
        "midi": 56,
        "time": 124.219,
        "duration": 0.313,
        "velocity": 0.88,
        "hand": "left"
      },
      {
        "midi": 52,
        "time": 124.531,
        "duration": 0.156,
        "velocity": 0.88,
        "hand": "left"
      },
      {
        "midi": 56,
        "time": 124.531,
        "duration": 0.156,
        "velocity": 0.88,
        "hand": "left"
      },
      {
        "midi": 37,
        "time": 124.688,
        "duration": 0.313,
        "velocity": 1,
        "hand": "left"
      },
      {
        "midi": 49,
        "time": 124.688,
        "duration": 0.313,
        "velocity": 1,
        "hand": "left"
      },
      {
        "midi": 75,
        "time": 124.688,
        "duration": 0.938,
        "velocity": 0.88,
        "hand": "right"
      },
      {
        "midi": 80,
        "time": 124.688,
        "duration": 0.938,
        "velocity": 0.88,
        "hand": "right"
      },
      {
        "midi": 87,
        "time": 124.688,
        "duration": 0.938,
        "velocity": 0.88,
        "hand": "right"
      },
      {
        "midi": 52,
        "time": 125,
        "duration": 0.313,
        "velocity": 0.88,
        "hand": "left"
      },
      {
        "midi": 56,
        "time": 125,
        "duration": 0.313,
        "velocity": 0.88,
        "hand": "left"
      },
      {
        "midi": 52,
        "time": 125.313,
        "duration": 0.313,
        "velocity": 0.88,
        "hand": "left"
      },
      {
        "midi": 56,
        "time": 125.313,
        "duration": 0.313,
        "velocity": 0.88,
        "hand": "left"
      },
      {
        "midi": 33,
        "time": 125.625,
        "duration": 0.156,
        "velocity": 1,
        "hand": "left"
      },
      {
        "midi": 45,
        "time": 125.625,
        "duration": 0.156,
        "velocity": 1,
        "hand": "left"
      },
      {
        "midi": 83,
        "time": 125.625,
        "duration": 0.078,
        "velocity": 0.88,
        "hand": "right"
      },
      {
        "midi": 88,
        "time": 125.625,
        "duration": 0.078,
        "velocity": 0.88,
        "hand": "right"
      },
      {
        "midi": 95,
        "time": 125.625,
        "duration": 0.078,
        "velocity": 0.88,
        "hand": "right"
      },
      {
        "midi": 45,
        "time": 125.781,
        "duration": 0.156,
        "velocity": 0.88,
        "hand": "left"
      },
      {
        "midi": 83,
        "time": 125.781,
        "duration": 0.078,
        "velocity": 0.88,
        "hand": "right"
      },
      {
        "midi": 88,
        "time": 125.781,
        "duration": 0.078,
        "velocity": 0.88,
        "hand": "right"
      },
      {
        "midi": 95,
        "time": 125.781,
        "duration": 0.078,
        "velocity": 0.88,
        "hand": "right"
      },
      {
        "midi": 52,
        "time": 125.938,
        "duration": 0.156,
        "velocity": 0.88,
        "hand": "left"
      },
      {
        "midi": 57,
        "time": 125.938,
        "duration": 0.156,
        "velocity": 0.88,
        "hand": "left"
      },
      {
        "midi": 83,
        "time": 125.938,
        "duration": 0.078,
        "velocity": 0.88,
        "hand": "right"
      },
      {
        "midi": 88,
        "time": 125.938,
        "duration": 0.078,
        "velocity": 0.88,
        "hand": "right"
      },
      {
        "midi": 95,
        "time": 125.938,
        "duration": 0.078,
        "velocity": 0.88,
        "hand": "right"
      },
      {
        "midi": 48,
        "time": 126.094,
        "duration": 0.156,
        "velocity": 0.88,
        "hand": "left"
      },
      {
        "midi": 83,
        "time": 126.094,
        "duration": 0.078,
        "velocity": 0.88,
        "hand": "right"
      },
      {
        "midi": 88,
        "time": 126.094,
        "duration": 0.078,
        "velocity": 0.88,
        "hand": "right"
      },
      {
        "midi": 95,
        "time": 126.094,
        "duration": 0.078,
        "velocity": 0.88,
        "hand": "right"
      },
      {
        "midi": 52,
        "time": 126.25,
        "duration": 0.156,
        "velocity": 0.88,
        "hand": "left"
      },
      {
        "midi": 57,
        "time": 126.25,
        "duration": 0.156,
        "velocity": 0.88,
        "hand": "left"
      },
      {
        "midi": 83,
        "time": 126.25,
        "duration": 0.078,
        "velocity": 0.88,
        "hand": "right"
      },
      {
        "midi": 88,
        "time": 126.25,
        "duration": 0.078,
        "velocity": 0.88,
        "hand": "right"
      },
      {
        "midi": 95,
        "time": 126.25,
        "duration": 0.078,
        "velocity": 0.88,
        "hand": "right"
      },
      {
        "midi": 48,
        "time": 126.406,
        "duration": 0.156,
        "velocity": 0.88,
        "hand": "left"
      },
      {
        "midi": 83,
        "time": 126.406,
        "duration": 0.078,
        "velocity": 0.88,
        "hand": "right"
      },
      {
        "midi": 88,
        "time": 126.406,
        "duration": 0.078,
        "velocity": 0.88,
        "hand": "right"
      },
      {
        "midi": 95,
        "time": 126.406,
        "duration": 0.078,
        "velocity": 0.88,
        "hand": "right"
      },
      {
        "midi": 42,
        "time": 126.563,
        "duration": 0.156,
        "velocity": 1,
        "hand": "left"
      },
      {
        "midi": 54,
        "time": 126.563,
        "duration": 0.156,
        "velocity": 1,
        "hand": "left"
      },
      {
        "midi": 81,
        "time": 126.563,
        "duration": 0.078,
        "velocity": 0.88,
        "hand": "right"
      },
      {
        "midi": 90,
        "time": 126.563,
        "duration": 0.078,
        "velocity": 0.88,
        "hand": "right"
      },
      {
        "midi": 93,
        "time": 126.563,
        "duration": 0.078,
        "velocity": 0.88,
        "hand": "right"
      },
      {
        "midi": 57,
        "time": 126.719,
        "duration": 0.156,
        "velocity": 0.88,
        "hand": "left"
      },
      {
        "midi": 81,
        "time": 126.719,
        "duration": 0.078,
        "velocity": 0.88,
        "hand": "right"
      },
      {
        "midi": 90,
        "time": 126.719,
        "duration": 0.078,
        "velocity": 0.88,
        "hand": "right"
      },
      {
        "midi": 93,
        "time": 126.719,
        "duration": 0.078,
        "velocity": 0.88,
        "hand": "right"
      },
      {
        "midi": 60,
        "time": 126.875,
        "duration": 0.156,
        "velocity": 0.88,
        "hand": "right"
      },
      {
        "midi": 81,
        "time": 126.875,
        "duration": 0.078,
        "velocity": 0.88,
        "hand": "right"
      },
      {
        "midi": 90,
        "time": 126.875,
        "duration": 0.078,
        "velocity": 0.88,
        "hand": "right"
      },
      {
        "midi": 93,
        "time": 126.875,
        "duration": 0.078,
        "velocity": 0.88,
        "hand": "right"
      },
      {
        "midi": 57,
        "time": 127.031,
        "duration": 0.156,
        "velocity": 0.88,
        "hand": "left"
      },
      {
        "midi": 81,
        "time": 127.031,
        "duration": 0.078,
        "velocity": 0.88,
        "hand": "right"
      },
      {
        "midi": 90,
        "time": 127.031,
        "duration": 0.078,
        "velocity": 0.88,
        "hand": "right"
      },
      {
        "midi": 93,
        "time": 127.031,
        "duration": 0.078,
        "velocity": 0.88,
        "hand": "right"
      },
      {
        "midi": 54,
        "time": 127.188,
        "duration": 0.156,
        "velocity": 0.88,
        "hand": "left"
      },
      {
        "midi": 81,
        "time": 127.188,
        "duration": 0.078,
        "velocity": 0.88,
        "hand": "right"
      },
      {
        "midi": 90,
        "time": 127.188,
        "duration": 0.078,
        "velocity": 0.88,
        "hand": "right"
      },
      {
        "midi": 93,
        "time": 127.188,
        "duration": 0.078,
        "velocity": 0.88,
        "hand": "right"
      },
      {
        "midi": 48,
        "time": 127.344,
        "duration": 0.156,
        "velocity": 0.88,
        "hand": "left"
      },
      {
        "midi": 81,
        "time": 127.344,
        "duration": 0.078,
        "velocity": 0.88,
        "hand": "right"
      },
      {
        "midi": 90,
        "time": 127.344,
        "duration": 0.078,
        "velocity": 0.88,
        "hand": "right"
      },
      {
        "midi": 93,
        "time": 127.344,
        "duration": 0.078,
        "velocity": 0.88,
        "hand": "right"
      },
      {
        "midi": 28,
        "time": 127.5,
        "duration": 0.313,
        "velocity": 1,
        "hand": "left"
      },
      {
        "midi": 40,
        "time": 127.5,
        "duration": 0.313,
        "velocity": 1,
        "hand": "left"
      },
      {
        "midi": 80,
        "time": 127.5,
        "duration": 0.078,
        "velocity": 0.88,
        "hand": "right"
      },
      {
        "midi": 80,
        "time": 127.5,
        "duration": 0.469,
        "velocity": 1,
        "hand": "right"
      },
      {
        "midi": 87,
        "time": 127.5,
        "duration": 1.719,
        "velocity": 1,
        "hand": "right"
      },
      {
        "midi": 88,
        "time": 127.5,
        "duration": 1.719,
        "velocity": 1,
        "hand": "right"
      },
      {
        "midi": 92,
        "time": 127.5,
        "duration": 1.719,
        "velocity": 1,
        "hand": "right"
      },
      {
        "midi": 76,
        "time": 127.656,
        "duration": 0.156,
        "velocity": 0.88,
        "hand": "right"
      },
      {
        "midi": 78,
        "time": 127.813,
        "duration": 0.156,
        "velocity": 0.88,
        "hand": "right"
      },
      {
        "midi": 80,
        "time": 127.969,
        "duration": 0.938,
        "velocity": 0.88,
        "hand": "right"
      },
      {
        "midi": 40,
        "time": 128.125,
        "duration": 0.313,
        "velocity": 0.88,
        "hand": "left"
      },
      {
        "midi": 52,
        "time": 128.125,
        "duration": 0.313,
        "velocity": 0.88,
        "hand": "left"
      },
      {
        "midi": 78,
        "time": 128.125,
        "duration": 0.156,
        "velocity": 0.88,
        "hand": "right"
      },
      {
        "midi": 76,
        "time": 128.281,
        "duration": 0.156,
        "velocity": 0.88,
        "hand": "right"
      },
      {
        "midi": 56,
        "time": 128.438,
        "duration": 0.938,
        "velocity": 0.88,
        "hand": "left"
      },
      {
        "midi": 59,
        "time": 128.438,
        "duration": 0.938,
        "velocity": 0.88,
        "hand": "left"
      },
      {
        "midi": 63,
        "time": 128.438,
        "duration": 0.938,
        "velocity": 0.88,
        "hand": "right"
      },
      {
        "midi": 75,
        "time": 128.438,
        "duration": 0.156,
        "velocity": 0.88,
        "hand": "right"
      },
      {
        "midi": 76,
        "time": 128.594,
        "duration": 0.156,
        "velocity": 0.88,
        "hand": "right"
      },
      {
        "midi": 78,
        "time": 128.75,
        "duration": 0.156,
        "velocity": 0.88,
        "hand": "right"
      },
      {
        "midi": 80,
        "time": 128.906,
        "duration": 0.313,
        "velocity": 0.88,
        "hand": "right"
      },
      {
        "midi": 78,
        "time": 129.063,
        "duration": 0.156,
        "velocity": 0.88,
        "hand": "right"
      },
      {
        "midi": 76,
        "time": 129.219,
        "duration": 0.156,
        "velocity": 0.88,
        "hand": "right"
      },
      {
        "midi": 71,
        "time": 129.375,
        "duration": 0.313,
        "velocity": 0.88,
        "hand": "right"
      },
      {
        "midi": 75,
        "time": 129.375,
        "duration": 0.156,
        "velocity": 0.88,
        "hand": "right"
      },
      {
        "midi": 76,
        "time": 129.531,
        "duration": 0.156,
        "velocity": 0.88,
        "hand": "right"
      },
      {
        "midi": 68,
        "time": 129.688,
        "duration": 0.313,
        "velocity": 0.88,
        "hand": "right"
      },
      {
        "midi": 71,
        "time": 129.688,
        "duration": 0.313,
        "velocity": 0.88,
        "hand": "right"
      },
      {
        "midi": 78,
        "time": 129.688,
        "duration": 0.156,
        "velocity": 0.88,
        "hand": "right"
      },
      {
        "midi": 80,
        "time": 129.844,
        "duration": 0.156,
        "velocity": 0.88,
        "hand": "right"
      },
      {
        "midi": 71,
        "time": 130,
        "duration": 0.313,
        "velocity": 0.88,
        "hand": "right"
      },
      {
        "midi": 78,
        "time": 130,
        "duration": 0.156,
        "velocity": 0.88,
        "hand": "right"
      },
      {
        "midi": 76,
        "time": 130.156,
        "duration": 0.156,
        "velocity": 0.88,
        "hand": "right"
      },
      {
        "midi": 63,
        "time": 130.313,
        "duration": 0.313,
        "velocity": 0.88,
        "hand": "right"
      },
      {
        "midi": 68,
        "time": 130.313,
        "duration": 0.313,
        "velocity": 0.88,
        "hand": "right"
      },
      {
        "midi": 75,
        "time": 130.313,
        "duration": 0.156,
        "velocity": 0.88,
        "hand": "right"
      },
      {
        "midi": 76,
        "time": 130.469,
        "duration": 0.156,
        "velocity": 0.88,
        "hand": "right"
      },
      {
        "midi": 59,
        "time": 130.625,
        "duration": 0.313,
        "velocity": 0.88,
        "hand": "left"
      },
      {
        "midi": 63,
        "time": 130.625,
        "duration": 0.313,
        "velocity": 0.88,
        "hand": "right"
      },
      {
        "midi": 78,
        "time": 130.625,
        "duration": 0.156,
        "velocity": 0.88,
        "hand": "right"
      },
      {
        "midi": 80,
        "time": 130.781,
        "duration": 0.156,
        "velocity": 0.88,
        "hand": "right"
      },
      {
        "midi": 63,
        "time": 130.938,
        "duration": 0.313,
        "velocity": 0.88,
        "hand": "right"
      },
      {
        "midi": 68,
        "time": 130.938,
        "duration": 0.313,
        "velocity": 0.88,
        "hand": "right"
      },
      {
        "midi": 78,
        "time": 130.938,
        "duration": 0.156,
        "velocity": 0.88,
        "hand": "right"
      },
      {
        "midi": 76,
        "time": 131.094,
        "duration": 0.156,
        "velocity": 0.88,
        "hand": "right"
      },
      {
        "midi": 28,
        "time": 131.25,
        "duration": 0.313,
        "velocity": 1,
        "hand": "left"
      },
      {
        "midi": 40,
        "time": 131.25,
        "duration": 0.313,
        "velocity": 1,
        "hand": "left"
      },
      {
        "midi": 75,
        "time": 131.25,
        "duration": 0.156,
        "velocity": 0.88,
        "hand": "right"
      },
      {
        "midi": 76,
        "time": 131.406,
        "duration": 0.156,
        "velocity": 0.88,
        "hand": "right"
      },
      {
        "midi": 78,
        "time": 131.563,
        "duration": 0.156,
        "velocity": 0.88,
        "hand": "right"
      },
      {
        "midi": 80,
        "time": 131.719,
        "duration": 0.156,
        "velocity": 0.88,
        "hand": "right"
      },
      {
        "midi": 40,
        "time": 131.875,
        "duration": 0.313,
        "velocity": 0.88,
        "hand": "left"
      },
      {
        "midi": 52,
        "time": 131.875,
        "duration": 0.313,
        "velocity": 0.88,
        "hand": "left"
      },
      {
        "midi": 78,
        "time": 131.875,
        "duration": 0.156,
        "velocity": 0.88,
        "hand": "right"
      },
      {
        "midi": 76,
        "time": 132.031,
        "duration": 0.156,
        "velocity": 0.88,
        "hand": "right"
      },
      {
        "midi": 56,
        "time": 132.188,
        "duration": 0.938,
        "velocity": 0.88,
        "hand": "left"
      },
      {
        "midi": 59,
        "time": 132.188,
        "duration": 0.938,
        "velocity": 0.88,
        "hand": "left"
      },
      {
        "midi": 63,
        "time": 132.188,
        "duration": 0.938,
        "velocity": 0.88,
        "hand": "right"
      },
      {
        "midi": 87,
        "time": 132.188,
        "duration": 0.938,
        "velocity": 1,
        "hand": "right"
      },
      {
        "midi": 76,
        "time": 132.344,
        "duration": 0.156,
        "velocity": 0.88,
        "hand": "right"
      },
      {
        "midi": 78,
        "time": 132.5,
        "duration": 0.156,
        "velocity": 0.88,
        "hand": "right"
      },
      {
        "midi": 80,
        "time": 132.656,
        "duration": 0.156,
        "velocity": 0.88,
        "hand": "right"
      },
      {
        "midi": 78,
        "time": 132.813,
        "duration": 0.156,
        "velocity": 0.88,
        "hand": "right"
      },
      {
        "midi": 76,
        "time": 132.969,
        "duration": 0.156,
        "velocity": 0.88,
        "hand": "right"
      },
      {
        "midi": 30,
        "time": 133.125,
        "duration": 0.313,
        "velocity": 1,
        "hand": "left"
      },
      {
        "midi": 42,
        "time": 133.125,
        "duration": 0.313,
        "velocity": 1,
        "hand": "left"
      },
      {
        "midi": 88,
        "time": 133.125,
        "duration": 0.938,
        "velocity": 1,
        "hand": "right"
      },
      {
        "midi": 76,
        "time": 133.281,
        "duration": 0.156,
        "velocity": 0.88,
        "hand": "right"
      },
      {
        "midi": 42,
        "time": 133.438,
        "duration": 0.313,
        "velocity": 0.88,
        "hand": "left"
      },
      {
        "midi": 54,
        "time": 133.438,
        "duration": 0.313,
        "velocity": 0.88,
        "hand": "left"
      },
      {
        "midi": 78,
        "time": 133.438,
        "duration": 0.156,
        "velocity": 0.88,
        "hand": "right"
      },
      {
        "midi": 80,
        "time": 133.594,
        "duration": 0.156,
        "velocity": 0.88,
        "hand": "right"
      },
      {
        "midi": 31,
        "time": 133.75,
        "duration": 0.313,
        "velocity": 0.88,
        "hand": "left"
      },
      {
        "midi": 43,
        "time": 133.75,
        "duration": 0.313,
        "velocity": 0.88,
        "hand": "left"
      },
      {
        "midi": 78,
        "time": 133.75,
        "duration": 0.156,
        "velocity": 0.88,
        "hand": "right"
      },
      {
        "midi": 76,
        "time": 133.906,
        "duration": 0.156,
        "velocity": 0.88,
        "hand": "right"
      },
      {
        "midi": 32,
        "time": 134.063,
        "duration": 0.313,
        "velocity": 1,
        "hand": "left"
      },
      {
        "midi": 44,
        "time": 134.063,
        "duration": 0.313,
        "velocity": 1,
        "hand": "left"
      },
      {
        "midi": 90,
        "time": 134.063,
        "duration": 0.938,
        "velocity": 1,
        "hand": "right"
      },
      {
        "midi": 76,
        "time": 134.219,
        "duration": 0.156,
        "velocity": 0.88,
        "hand": "right"
      },
      {
        "midi": 44,
        "time": 134.375,
        "duration": 0.313,
        "velocity": 0.88,
        "hand": "left"
      },
      {
        "midi": 56,
        "time": 134.375,
        "duration": 0.313,
        "velocity": 0.88,
        "hand": "left"
      },
      {
        "midi": 78,
        "time": 134.375,
        "duration": 0.156,
        "velocity": 0.88,
        "hand": "right"
      },
      {
        "midi": 80,
        "time": 134.531,
        "duration": 0.156,
        "velocity": 0.88,
        "hand": "right"
      },
      {
        "midi": 32,
        "time": 134.688,
        "duration": 0.313,
        "velocity": 0.88,
        "hand": "left"
      },
      {
        "midi": 44,
        "time": 134.688,
        "duration": 0.313,
        "velocity": 0.88,
        "hand": "left"
      },
      {
        "midi": 78,
        "time": 134.688,
        "duration": 0.156,
        "velocity": 0.88,
        "hand": "right"
      },
      {
        "midi": 76,
        "time": 134.844,
        "duration": 0.156,
        "velocity": 0.88,
        "hand": "right"
      },
      {
        "midi": 33,
        "time": 135,
        "duration": 0.313,
        "velocity": 1,
        "hand": "left"
      },
      {
        "midi": 45,
        "time": 135,
        "duration": 0.313,
        "velocity": 1,
        "hand": "left"
      },
      {
        "midi": 80,
        "time": 135,
        "duration": 0.078,
        "velocity": 0.88,
        "hand": "right"
      },
      {
        "midi": 80,
        "time": 135,
        "duration": 0.156,
        "velocity": 1,
        "hand": "right"
      },
      {
        "midi": 85,
        "time": 135,
        "duration": 0.469,
        "velocity": 1,
        "hand": "right"
      },
      {
        "midi": 88,
        "time": 135,
        "duration": 1.719,
        "velocity": 1,
        "hand": "right"
      },
      {
        "midi": 92,
        "time": 135,
        "duration": 1.719,
        "velocity": 1,
        "hand": "right"
      },
      {
        "midi": 80,
        "time": 135.156,
        "duration": 0.625,
        "velocity": 0.88,
        "hand": "right"
      },
      {
        "midi": 83,
        "time": 135.313,
        "duration": 0.156,
        "velocity": 0.88,
        "hand": "right"
      },
      {
        "midi": 85,
        "time": 135.469,
        "duration": 0.938,
        "velocity": 0.88,
        "hand": "right"
      },
      {
        "midi": 45,
        "time": 135.625,
        "duration": 0.313,
        "velocity": 0.88,
        "hand": "left"
      },
      {
        "midi": 57,
        "time": 135.625,
        "duration": 0.313,
        "velocity": 0.88,
        "hand": "left"
      },
      {
        "midi": 83,
        "time": 135.625,
        "duration": 0.156,
        "velocity": 0.88,
        "hand": "right"
      },
      {
        "midi": 80,
        "time": 135.781,
        "duration": 0.313,
        "velocity": 0.88,
        "hand": "right"
      },
      {
        "midi": 56,
        "time": 135.938,
        "duration": 0.938,
        "velocity": 0.88,
        "hand": "left"
      },
      {
        "midi": 61,
        "time": 135.938,
        "duration": 0.938,
        "velocity": 0.88,
        "hand": "right"
      },
      {
        "midi": 64,
        "time": 135.938,
        "duration": 0.938,
        "velocity": 0.88,
        "hand": "right"
      },
      {
        "midi": 78,
        "time": 135.938,
        "duration": 0.156,
        "velocity": 0.88,
        "hand": "right"
      },
      {
        "midi": 80,
        "time": 136.094,
        "duration": 0.625,
        "velocity": 0.88,
        "hand": "right"
      },
      {
        "midi": 83,
        "time": 136.25,
        "duration": 0.156,
        "velocity": 0.88,
        "hand": "right"
      },
      {
        "midi": 85,
        "time": 136.406,
        "duration": 0.313,
        "velocity": 0.88,
        "hand": "right"
      },
      {
        "midi": 83,
        "time": 136.563,
        "duration": 0.156,
        "velocity": 0.88,
        "hand": "right"
      },
      {
        "midi": 80,
        "time": 136.719,
        "duration": 0.156,
        "velocity": 0.88,
        "hand": "right"
      },
      {
        "midi": 73,
        "time": 136.875,
        "duration": 0.313,
        "velocity": 0.88,
        "hand": "right"
      },
      {
        "midi": 76,
        "time": 136.875,
        "duration": 0.313,
        "velocity": 0.88,
        "hand": "right"
      },
      {
        "midi": 78,
        "time": 136.875,
        "duration": 0.156,
        "velocity": 0.88,
        "hand": "right"
      },
      {
        "midi": 80,
        "time": 137.031,
        "duration": 0.156,
        "velocity": 0.88,
        "hand": "right"
      },
      {
        "midi": 68,
        "time": 137.188,
        "duration": 0.313,
        "velocity": 0.88,
        "hand": "right"
      },
      {
        "midi": 73,
        "time": 137.188,
        "duration": 0.313,
        "velocity": 0.88,
        "hand": "right"
      },
      {
        "midi": 83,
        "time": 137.188,
        "duration": 0.156,
        "velocity": 0.88,
        "hand": "right"
      },
      {
        "midi": 85,
        "time": 137.344,
        "duration": 0.156,
        "velocity": 0.88,
        "hand": "right"
      },
      {
        "midi": 73,
        "time": 137.5,
        "duration": 0.313,
        "velocity": 0.88,
        "hand": "right"
      },
      {
        "midi": 76,
        "time": 137.5,
        "duration": 0.313,
        "velocity": 0.88,
        "hand": "right"
      },
      {
        "midi": 83,
        "time": 137.5,
        "duration": 0.156,
        "velocity": 0.88,
        "hand": "right"
      },
      {
        "midi": 80,
        "time": 137.656,
        "duration": 0.156,
        "velocity": 0.88,
        "hand": "right"
      },
      {
        "midi": 64,
        "time": 137.813,
        "duration": 0.313,
        "velocity": 0.88,
        "hand": "right"
      },
      {
        "midi": 68,
        "time": 137.813,
        "duration": 0.313,
        "velocity": 0.88,
        "hand": "right"
      },
      {
        "midi": 78,
        "time": 137.813,
        "duration": 0.156,
        "velocity": 0.88,
        "hand": "right"
      },
      {
        "midi": 80,
        "time": 137.969,
        "duration": 0.156,
        "velocity": 0.88,
        "hand": "right"
      },
      {
        "midi": 61,
        "time": 138.125,
        "duration": 0.313,
        "velocity": 0.88,
        "hand": "right"
      },
      {
        "midi": 64,
        "time": 138.125,
        "duration": 0.313,
        "velocity": 0.88,
        "hand": "right"
      },
      {
        "midi": 83,
        "time": 138.125,
        "duration": 0.156,
        "velocity": 0.88,
        "hand": "right"
      },
      {
        "midi": 85,
        "time": 138.281,
        "duration": 0.156,
        "velocity": 0.88,
        "hand": "right"
      },
      {
        "midi": 64,
        "time": 138.438,
        "duration": 0.313,
        "velocity": 0.88,
        "hand": "right"
      },
      {
        "midi": 68,
        "time": 138.438,
        "duration": 0.313,
        "velocity": 0.88,
        "hand": "right"
      },
      {
        "midi": 83,
        "time": 138.438,
        "duration": 0.156,
        "velocity": 0.88,
        "hand": "right"
      },
      {
        "midi": 80,
        "time": 138.594,
        "duration": 0.156,
        "velocity": 0.88,
        "hand": "right"
      },
      {
        "midi": 33,
        "time": 138.75,
        "duration": 0.313,
        "velocity": 1,
        "hand": "left"
      },
      {
        "midi": 45,
        "time": 138.75,
        "duration": 0.313,
        "velocity": 1,
        "hand": "left"
      },
      {
        "midi": 73,
        "time": 138.75,
        "duration": 0.938,
        "velocity": 0.88,
        "hand": "right"
      },
      {
        "midi": 76,
        "time": 138.75,
        "duration": 0.938,
        "velocity": 0.88,
        "hand": "right"
      },
      {
        "midi": 80,
        "time": 138.75,
        "duration": 0.938,
        "velocity": 0.88,
        "hand": "right"
      },
      {
        "midi": 85,
        "time": 138.75,
        "duration": 0.938,
        "velocity": 0.88,
        "hand": "right"
      },
      {
        "midi": 45,
        "time": 139.219,
        "duration": 0.156,
        "velocity": 0.88,
        "hand": "left"
      },
      {
        "midi": 57,
        "time": 139.375,
        "duration": 0.156,
        "velocity": 0.88,
        "hand": "left"
      },
      {
        "midi": 45,
        "time": 139.531,
        "duration": 1.094,
        "velocity": 0.88,
        "hand": "left"
      },
      {
        "midi": 52,
        "time": 139.688,
        "duration": 0.938,
        "velocity": 0.88,
        "hand": "left"
      },
      {
        "midi": 56,
        "time": 139.688,
        "duration": 0.938,
        "velocity": 0.88,
        "hand": "left"
      },
      {
        "midi": 75,
        "time": 139.688,
        "duration": 0.938,
        "velocity": 0.88,
        "hand": "right"
      },
      {
        "midi": 80,
        "time": 139.688,
        "duration": 0.938,
        "velocity": 0.88,
        "hand": "right"
      },
      {
        "midi": 87,
        "time": 139.688,
        "duration": 0.938,
        "velocity": 0.88,
        "hand": "right"
      },
      {
        "midi": 45,
        "time": 140.625,
        "duration": 0.313,
        "velocity": 1,
        "hand": "left"
      },
      {
        "midi": 52,
        "time": 140.625,
        "duration": 0.313,
        "velocity": 1,
        "hand": "left"
      },
      {
        "midi": 83,
        "time": 140.625,
        "duration": 0.078,
        "velocity": 0.88,
        "hand": "right"
      },
      {
        "midi": 88,
        "time": 140.625,
        "duration": 0.078,
        "velocity": 0.88,
        "hand": "right"
      },
      {
        "midi": 95,
        "time": 140.625,
        "duration": 0.078,
        "velocity": 0.88,
        "hand": "right"
      },
      {
        "midi": 60,
        "time": 140.781,
        "duration": 0.156,
        "velocity": 1,
        "hand": "right"
      },
      {
        "midi": 83,
        "time": 140.781,
        "duration": 0.078,
        "velocity": 0.88,
        "hand": "right"
      },
      {
        "midi": 88,
        "time": 140.781,
        "duration": 0.078,
        "velocity": 0.88,
        "hand": "right"
      },
      {
        "midi": 95,
        "time": 140.781,
        "duration": 0.078,
        "velocity": 0.88,
        "hand": "right"
      },
      {
        "midi": 83,
        "time": 140.938,
        "duration": 0.078,
        "velocity": 0.88,
        "hand": "right"
      },
      {
        "midi": 88,
        "time": 140.938,
        "duration": 0.078,
        "velocity": 0.88,
        "hand": "right"
      },
      {
        "midi": 95,
        "time": 140.938,
        "duration": 0.078,
        "velocity": 0.88,
        "hand": "right"
      },
      {
        "midi": 45,
        "time": 141.094,
        "duration": 0.156,
        "velocity": 0.88,
        "hand": "left"
      },
      {
        "midi": 83,
        "time": 141.094,
        "duration": 0.078,
        "velocity": 0.88,
        "hand": "right"
      },
      {
        "midi": 88,
        "time": 141.094,
        "duration": 0.078,
        "velocity": 0.88,
        "hand": "right"
      },
      {
        "midi": 95,
        "time": 141.094,
        "duration": 0.078,
        "velocity": 0.88,
        "hand": "right"
      },
      {
        "midi": 52,
        "time": 141.25,
        "duration": 0.156,
        "velocity": 0.88,
        "hand": "left"
      },
      {
        "midi": 60,
        "time": 141.25,
        "duration": 0.156,
        "velocity": 0.88,
        "hand": "right"
      },
      {
        "midi": 83,
        "time": 141.25,
        "duration": 0.078,
        "velocity": 0.88,
        "hand": "right"
      },
      {
        "midi": 88,
        "time": 141.25,
        "duration": 0.078,
        "velocity": 0.88,
        "hand": "right"
      },
      {
        "midi": 95,
        "time": 141.25,
        "duration": 0.078,
        "velocity": 0.88,
        "hand": "right"
      },
      {
        "midi": 45,
        "time": 141.406,
        "duration": 0.156,
        "velocity": 0.88,
        "hand": "left"
      },
      {
        "midi": 83,
        "time": 141.406,
        "duration": 0.078,
        "velocity": 0.88,
        "hand": "right"
      },
      {
        "midi": 88,
        "time": 141.406,
        "duration": 0.078,
        "velocity": 0.88,
        "hand": "right"
      },
      {
        "midi": 95,
        "time": 141.406,
        "duration": 0.078,
        "velocity": 0.88,
        "hand": "right"
      },
      {
        "midi": 57,
        "time": 141.563,
        "duration": 0.313,
        "velocity": 0.88,
        "hand": "left"
      },
      {
        "midi": 60,
        "time": 141.563,
        "duration": 0.313,
        "velocity": 0.88,
        "hand": "right"
      },
      {
        "midi": 64,
        "time": 141.563,
        "duration": 0.313,
        "velocity": 0.88,
        "hand": "right"
      },
      {
        "midi": 69,
        "time": 141.563,
        "duration": 0.313,
        "velocity": 0.88,
        "hand": "right"
      },
      {
        "midi": 81,
        "time": 141.563,
        "duration": 0.078,
        "velocity": 0.88,
        "hand": "right"
      },
      {
        "midi": 90,
        "time": 141.563,
        "duration": 0.078,
        "velocity": 0.88,
        "hand": "right"
      },
      {
        "midi": 93,
        "time": 141.563,
        "duration": 0.078,
        "velocity": 0.88,
        "hand": "right"
      },
      {
        "midi": 81,
        "time": 141.719,
        "duration": 0.078,
        "velocity": 0.88,
        "hand": "right"
      },
      {
        "midi": 90,
        "time": 141.719,
        "duration": 0.078,
        "velocity": 0.88,
        "hand": "right"
      },
      {
        "midi": 93,
        "time": 141.719,
        "duration": 0.078,
        "velocity": 0.88,
        "hand": "right"
      },
      {
        "midi": 57,
        "time": 141.875,
        "duration": 0.313,
        "velocity": 0.88,
        "hand": "left"
      },
      {
        "midi": 60,
        "time": 141.875,
        "duration": 0.313,
        "velocity": 0.88,
        "hand": "right"
      },
      {
        "midi": 64,
        "time": 141.875,
        "duration": 0.313,
        "velocity": 0.88,
        "hand": "right"
      },
      {
        "midi": 81,
        "time": 141.875,
        "duration": 0.078,
        "velocity": 0.88,
        "hand": "right"
      },
      {
        "midi": 90,
        "time": 141.875,
        "duration": 0.078,
        "velocity": 0.88,
        "hand": "right"
      },
      {
        "midi": 93,
        "time": 141.875,
        "duration": 0.078,
        "velocity": 0.88,
        "hand": "right"
      },
      {
        "midi": 81,
        "time": 142.031,
        "duration": 0.078,
        "velocity": 0.88,
        "hand": "right"
      },
      {
        "midi": 90,
        "time": 142.031,
        "duration": 0.078,
        "velocity": 0.88,
        "hand": "right"
      },
      {
        "midi": 93,
        "time": 142.031,
        "duration": 0.078,
        "velocity": 0.88,
        "hand": "right"
      },
      {
        "midi": 54,
        "time": 142.188,
        "duration": 0.313,
        "velocity": 0.88,
        "hand": "left"
      },
      {
        "midi": 60,
        "time": 142.188,
        "duration": 0.313,
        "velocity": 0.88,
        "hand": "right"
      },
      {
        "midi": 64,
        "time": 142.188,
        "duration": 0.313,
        "velocity": 0.88,
        "hand": "right"
      },
      {
        "midi": 81,
        "time": 142.188,
        "duration": 0.078,
        "velocity": 0.88,
        "hand": "right"
      },
      {
        "midi": 90,
        "time": 142.188,
        "duration": 0.078,
        "velocity": 0.88,
        "hand": "right"
      },
      {
        "midi": 93,
        "time": 142.188,
        "duration": 0.078,
        "velocity": 0.88,
        "hand": "right"
      },
      {
        "midi": 81,
        "time": 142.344,
        "duration": 0.078,
        "velocity": 0.88,
        "hand": "right"
      },
      {
        "midi": 90,
        "time": 142.344,
        "duration": 0.078,
        "velocity": 0.88,
        "hand": "right"
      },
      {
        "midi": 93,
        "time": 142.344,
        "duration": 0.078,
        "velocity": 0.88,
        "hand": "right"
      },
      {
        "midi": 28,
        "time": 142.5,
        "duration": 0.313,
        "velocity": 1,
        "hand": "left"
      },
      {
        "midi": 40,
        "time": 142.5,
        "duration": 0.313,
        "velocity": 1,
        "hand": "left"
      },
      {
        "midi": 80,
        "time": 142.5,
        "duration": 0.078,
        "velocity": 0.88,
        "hand": "right"
      },
      {
        "midi": 80,
        "time": 142.5,
        "duration": 0.469,
        "velocity": 1,
        "hand": "right"
      },
      {
        "midi": 87,
        "time": 142.5,
        "duration": 1.719,
        "velocity": 1,
        "hand": "right"
      },
      {
        "midi": 88,
        "time": 142.5,
        "duration": 1.719,
        "velocity": 1,
        "hand": "right"
      },
      {
        "midi": 92,
        "time": 142.5,
        "duration": 1.719,
        "velocity": 1,
        "hand": "right"
      },
      {
        "midi": 76,
        "time": 142.656,
        "duration": 0.156,
        "velocity": 0.88,
        "hand": "right"
      },
      {
        "midi": 78,
        "time": 142.813,
        "duration": 0.156,
        "velocity": 0.88,
        "hand": "right"
      },
      {
        "midi": 80,
        "time": 142.969,
        "duration": 0.938,
        "velocity": 0.88,
        "hand": "right"
      },
      {
        "midi": 40,
        "time": 143.125,
        "duration": 0.313,
        "velocity": 0.88,
        "hand": "left"
      },
      {
        "midi": 52,
        "time": 143.125,
        "duration": 0.313,
        "velocity": 0.88,
        "hand": "left"
      },
      {
        "midi": 78,
        "time": 143.125,
        "duration": 0.156,
        "velocity": 0.88,
        "hand": "right"
      },
      {
        "midi": 76,
        "time": 143.281,
        "duration": 0.156,
        "velocity": 0.88,
        "hand": "right"
      },
      {
        "midi": 56,
        "time": 143.438,
        "duration": 0.938,
        "velocity": 0.88,
        "hand": "left"
      },
      {
        "midi": 59,
        "time": 143.438,
        "duration": 0.938,
        "velocity": 0.88,
        "hand": "left"
      },
      {
        "midi": 63,
        "time": 143.438,
        "duration": 0.938,
        "velocity": 0.88,
        "hand": "right"
      },
      {
        "midi": 75,
        "time": 143.438,
        "duration": 0.156,
        "velocity": 0.88,
        "hand": "right"
      },
      {
        "midi": 76,
        "time": 143.594,
        "duration": 0.156,
        "velocity": 0.88,
        "hand": "right"
      },
      {
        "midi": 78,
        "time": 143.75,
        "duration": 0.156,
        "velocity": 0.88,
        "hand": "right"
      },
      {
        "midi": 80,
        "time": 143.906,
        "duration": 0.313,
        "velocity": 0.88,
        "hand": "right"
      },
      {
        "midi": 78,
        "time": 144.063,
        "duration": 0.156,
        "velocity": 0.88,
        "hand": "right"
      },
      {
        "midi": 76,
        "time": 144.219,
        "duration": 0.156,
        "velocity": 0.88,
        "hand": "right"
      },
      {
        "midi": 71,
        "time": 144.375,
        "duration": 0.313,
        "velocity": 0.88,
        "hand": "right"
      },
      {
        "midi": 75,
        "time": 144.375,
        "duration": 0.156,
        "velocity": 0.88,
        "hand": "right"
      },
      {
        "midi": 76,
        "time": 144.531,
        "duration": 0.156,
        "velocity": 0.88,
        "hand": "right"
      },
      {
        "midi": 68,
        "time": 144.688,
        "duration": 0.313,
        "velocity": 0.88,
        "hand": "right"
      },
      {
        "midi": 71,
        "time": 144.688,
        "duration": 0.313,
        "velocity": 0.88,
        "hand": "right"
      },
      {
        "midi": 78,
        "time": 144.688,
        "duration": 0.156,
        "velocity": 0.88,
        "hand": "right"
      },
      {
        "midi": 80,
        "time": 144.844,
        "duration": 0.156,
        "velocity": 0.88,
        "hand": "right"
      },
      {
        "midi": 71,
        "time": 145,
        "duration": 0.313,
        "velocity": 0.88,
        "hand": "right"
      },
      {
        "midi": 78,
        "time": 145,
        "duration": 0.156,
        "velocity": 0.88,
        "hand": "right"
      },
      {
        "midi": 76,
        "time": 145.156,
        "duration": 0.156,
        "velocity": 0.88,
        "hand": "right"
      },
      {
        "midi": 63,
        "time": 145.313,
        "duration": 0.313,
        "velocity": 0.88,
        "hand": "right"
      },
      {
        "midi": 68,
        "time": 145.313,
        "duration": 0.313,
        "velocity": 0.88,
        "hand": "right"
      },
      {
        "midi": 75,
        "time": 145.313,
        "duration": 0.156,
        "velocity": 0.88,
        "hand": "right"
      },
      {
        "midi": 76,
        "time": 145.469,
        "duration": 0.156,
        "velocity": 0.88,
        "hand": "right"
      },
      {
        "midi": 59,
        "time": 145.625,
        "duration": 0.313,
        "velocity": 0.88,
        "hand": "left"
      },
      {
        "midi": 63,
        "time": 145.625,
        "duration": 0.313,
        "velocity": 0.88,
        "hand": "right"
      },
      {
        "midi": 78,
        "time": 145.625,
        "duration": 0.156,
        "velocity": 0.88,
        "hand": "right"
      },
      {
        "midi": 80,
        "time": 145.781,
        "duration": 0.156,
        "velocity": 0.88,
        "hand": "right"
      },
      {
        "midi": 63,
        "time": 145.938,
        "duration": 0.313,
        "velocity": 0.88,
        "hand": "right"
      },
      {
        "midi": 68,
        "time": 145.938,
        "duration": 0.313,
        "velocity": 0.88,
        "hand": "right"
      },
      {
        "midi": 78,
        "time": 145.938,
        "duration": 0.156,
        "velocity": 0.88,
        "hand": "right"
      },
      {
        "midi": 76,
        "time": 146.094,
        "duration": 0.156,
        "velocity": 0.88,
        "hand": "right"
      },
      {
        "midi": 28,
        "time": 146.25,
        "duration": 0.313,
        "velocity": 1,
        "hand": "left"
      },
      {
        "midi": 40,
        "time": 146.25,
        "duration": 0.313,
        "velocity": 1,
        "hand": "left"
      },
      {
        "midi": 75,
        "time": 146.25,
        "duration": 0.156,
        "velocity": 0.88,
        "hand": "right"
      },
      {
        "midi": 76,
        "time": 146.406,
        "duration": 0.156,
        "velocity": 0.87,
        "hand": "right"
      },
      {
        "midi": 28,
        "time": 146.563,
        "duration": 0.313,
        "velocity": 0.84,
        "hand": "left"
      },
      {
        "midi": 40,
        "time": 146.563,
        "duration": 0.313,
        "velocity": 0.84,
        "hand": "left"
      },
      {
        "midi": 78,
        "time": 146.563,
        "duration": 0.156,
        "velocity": 0.84,
        "hand": "right"
      },
      {
        "midi": 80,
        "time": 146.719,
        "duration": 0.156,
        "velocity": 0.83,
        "hand": "right"
      },
      {
        "midi": 40,
        "time": 146.875,
        "duration": 0.313,
        "velocity": 0.8,
        "hand": "left"
      },
      {
        "midi": 52,
        "time": 146.875,
        "duration": 0.313,
        "velocity": 0.8,
        "hand": "left"
      },
      {
        "midi": 78,
        "time": 146.875,
        "duration": 0.156,
        "velocity": 0.8,
        "hand": "right"
      },
      {
        "midi": 76,
        "time": 147.031,
        "duration": 0.156,
        "velocity": 0.78,
        "hand": "right"
      },
      {
        "midi": 56,
        "time": 147.188,
        "duration": 0.938,
        "velocity": 0.76,
        "hand": "left"
      },
      {
        "midi": 59,
        "time": 147.188,
        "duration": 0.938,
        "velocity": 0.76,
        "hand": "left"
      },
      {
        "midi": 63,
        "time": 147.188,
        "duration": 0.938,
        "velocity": 0.76,
        "hand": "right"
      },
      {
        "midi": 75,
        "time": 147.188,
        "duration": 0.156,
        "velocity": 0.76,
        "hand": "right"
      },
      {
        "midi": 76,
        "time": 147.344,
        "duration": 0.156,
        "velocity": 0.74,
        "hand": "right"
      },
      {
        "midi": 78,
        "time": 147.5,
        "duration": 0.156,
        "velocity": 0.72,
        "hand": "right"
      },
      {
        "midi": 80,
        "time": 147.656,
        "duration": 0.156,
        "velocity": 0.7,
        "hand": "right"
      },
      {
        "midi": 78,
        "time": 147.813,
        "duration": 0.156,
        "velocity": 0.68,
        "hand": "right"
      },
      {
        "midi": 76,
        "time": 147.969,
        "duration": 0.156,
        "velocity": 0.66,
        "hand": "right"
      },
      {
        "midi": 30,
        "time": 148.125,
        "duration": 0.469,
        "velocity": 0.76,
        "hand": "left"
      },
      {
        "midi": 42,
        "time": 148.125,
        "duration": 0.469,
        "velocity": 0.76,
        "hand": "left"
      },
      {
        "midi": 88,
        "time": 148.125,
        "duration": 0.938,
        "velocity": 0.76,
        "hand": "right"
      },
      {
        "midi": 76,
        "time": 148.281,
        "duration": 0.156,
        "velocity": 0.61,
        "hand": "right"
      },
      {
        "midi": 78,
        "time": 148.438,
        "duration": 0.156,
        "velocity": 0.6,
        "hand": "right"
      },
      {
        "midi": 42,
        "time": 148.594,
        "duration": 0.469,
        "velocity": 0.57,
        "hand": "left"
      },
      {
        "midi": 45,
        "time": 148.594,
        "duration": 0.469,
        "velocity": 0.57,
        "hand": "left"
      },
      {
        "midi": 49,
        "time": 148.594,
        "duration": 0.469,
        "velocity": 0.57,
        "hand": "left"
      },
      {
        "midi": 54,
        "time": 148.594,
        "duration": 0.469,
        "velocity": 0.57,
        "hand": "left"
      },
      {
        "midi": 80,
        "time": 148.594,
        "duration": 0.156,
        "velocity": 0.57,
        "hand": "right"
      },
      {
        "midi": 78,
        "time": 148.75,
        "duration": 0.156,
        "velocity": 0.55,
        "hand": "right"
      },
      {
        "midi": 76,
        "time": 148.906,
        "duration": 0.156,
        "velocity": 0.54,
        "hand": "right"
      },
      {
        "midi": 32,
        "time": 149.063,
        "duration": 0.469,
        "velocity": 0.61,
        "hand": "left"
      },
      {
        "midi": 44,
        "time": 149.063,
        "duration": 0.469,
        "velocity": 0.61,
        "hand": "left"
      },
      {
        "midi": 90,
        "time": 149.063,
        "duration": 0.938,
        "velocity": 0.61,
        "hand": "right"
      },
      {
        "midi": 76,
        "time": 149.219,
        "duration": 0.156,
        "velocity": 0.5,
        "hand": "right"
      },
      {
        "midi": 78,
        "time": 149.375,
        "duration": 0.156,
        "velocity": 0.47,
        "hand": "right"
      },
      {
        "midi": 44,
        "time": 149.531,
        "duration": 0.469,
        "velocity": 0.45,
        "hand": "left"
      },
      {
        "midi": 51,
        "time": 149.531,
        "duration": 0.469,
        "velocity": 0.45,
        "hand": "left"
      },
      {
        "midi": 54,
        "time": 149.531,
        "duration": 0.469,
        "velocity": 0.45,
        "hand": "left"
      },
      {
        "midi": 56,
        "time": 149.531,
        "duration": 0.469,
        "velocity": 0.45,
        "hand": "left"
      },
      {
        "midi": 80,
        "time": 149.531,
        "duration": 0.156,
        "velocity": 0.45,
        "hand": "right"
      },
      {
        "midi": 78,
        "time": 149.688,
        "duration": 0.156,
        "velocity": 0.43,
        "hand": "right"
      },
      {
        "midi": 76,
        "time": 149.844,
        "duration": 0.156,
        "velocity": 0.41,
        "hand": "right"
      },
      {
        "midi": 45,
        "time": 150,
        "duration": 0.156,
        "velocity": 0.39,
        "hand": "left"
      },
      {
        "midi": 80,
        "time": 150,
        "duration": 3.594,
        "velocity": 0.39,
        "hand": "right"
      },
      {
        "midi": 85,
        "time": 150,
        "duration": 3.594,
        "velocity": 0.39,
        "hand": "right"
      },
      {
        "midi": 88,
        "time": 150,
        "duration": 3.594,
        "velocity": 0.39,
        "hand": "right"
      },
      {
        "midi": 49,
        "time": 150.156,
        "duration": 0.156,
        "velocity": 0.39,
        "hand": "left"
      },
      {
        "midi": 92,
        "time": 150.156,
        "duration": 3.594,
        "velocity": 0.39,
        "hand": "right"
      },
      {
        "midi": 52,
        "time": 150.313,
        "duration": 0.156,
        "velocity": 0.39,
        "hand": "left"
      },
      {
        "midi": 56,
        "time": 150.469,
        "duration": 0.156,
        "velocity": 0.39,
        "hand": "left"
      },
      {
        "midi": 61,
        "time": 150.625,
        "duration": 0.156,
        "velocity": 0.39,
        "hand": "right"
      },
      {
        "midi": 64,
        "time": 150.781,
        "duration": 0.156,
        "velocity": 0.39,
        "hand": "right"
      },
      {
        "midi": 57,
        "time": 150.938,
        "duration": 2.656,
        "velocity": 0.39,
        "hand": "left"
      },
      {
        "midi": 61,
        "time": 150.938,
        "duration": 2.656,
        "velocity": 0.39,
        "hand": "right"
      },
      {
        "midi": 64,
        "time": 150.938,
        "duration": 2.656,
        "velocity": 0.39,
        "hand": "right"
      },
      {
        "midi": 68,
        "time": 150.938,
        "duration": 2.656,
        "velocity": 0.39,
        "hand": "right"
      },
      {
        "midi": 45,
        "time": 153.75,
        "duration": 1.719,
        "velocity": 0.39,
        "hand": "left"
      },
      {
        "midi": 57,
        "time": 153.75,
        "duration": 1.719,
        "velocity": 0.39,
        "hand": "left"
      },
      {
        "midi": 73,
        "time": 153.75,
        "duration": 0.938,
        "velocity": 0.39,
        "hand": "right"
      },
      {
        "midi": 85,
        "time": 153.75,
        "duration": 0.938,
        "velocity": 0.39,
        "hand": "right"
      },
      {
        "midi": 75,
        "time": 154.688,
        "duration": 0.938,
        "velocity": 0.39,
        "hand": "right"
      },
      {
        "midi": 87,
        "time": 154.688,
        "duration": 0.938,
        "velocity": 0.39,
        "hand": "right"
      },
      {
        "midi": 52,
        "time": 155.625,
        "duration": 1.875,
        "velocity": 0.39,
        "hand": "left"
      },
      {
        "midi": 54,
        "time": 155.625,
        "duration": 1.875,
        "velocity": 0.39,
        "hand": "left"
      },
      {
        "midi": 83,
        "time": 155.625,
        "duration": 0.938,
        "velocity": 0.39,
        "hand": "right"
      },
      {
        "midi": 95,
        "time": 155.625,
        "duration": 0.938,
        "velocity": 0.39,
        "hand": "right"
      },
      {
        "midi": 57,
        "time": 155.781,
        "duration": 1.719,
        "velocity": 0.39,
        "hand": "left"
      },
      {
        "midi": 60,
        "time": 155.781,
        "duration": 1.719,
        "velocity": 0.39,
        "hand": "right"
      },
      {
        "midi": 81,
        "time": 156.563,
        "duration": 0.938,
        "velocity": 0.39,
        "hand": "right"
      },
      {
        "midi": 93,
        "time": 156.563,
        "duration": 0.938,
        "velocity": 0.39,
        "hand": "right"
      },
      {
        "midi": 40,
        "time": 157.5,
        "duration": 1.719,
        "velocity": 0.39,
        "hand": "left"
      },
      {
        "midi": 52,
        "time": 157.5,
        "duration": 1.719,
        "velocity": 0.39,
        "hand": "left"
      },
      {
        "midi": 80,
        "time": 157.5,
        "duration": 3.594,
        "velocity": 0.39,
        "hand": "right"
      },
      {
        "midi": 92,
        "time": 157.5,
        "duration": 3.594,
        "velocity": 0.39,
        "hand": "right"
      },
      {
        "midi": 52,
        "time": 159.375,
        "duration": 1.719,
        "velocity": 0.39,
        "hand": "left"
      },
      {
        "midi": 56,
        "time": 159.375,
        "duration": 1.719,
        "velocity": 0.39,
        "hand": "left"
      },
      {
        "midi": 59,
        "time": 159.375,
        "duration": 1.719,
        "velocity": 0.39,
        "hand": "left"
      },
      {
        "midi": 63,
        "time": 159.375,
        "duration": 1.719,
        "velocity": 0.39,
        "hand": "right"
      },
      {
        "midi": 40,
        "time": 161.25,
        "duration": 1.719,
        "velocity": 0.39,
        "hand": "left"
      },
      {
        "midi": 52,
        "time": 161.25,
        "duration": 1.719,
        "velocity": 0.39,
        "hand": "left"
      },
      {
        "midi": 75,
        "time": 162.188,
        "duration": 0.938,
        "velocity": 0.39,
        "hand": "right"
      },
      {
        "midi": 87,
        "time": 162.188,
        "duration": 0.938,
        "velocity": 0.39,
        "hand": "right"
      },
      {
        "midi": 52,
        "time": 163.125,
        "duration": 1.719,
        "velocity": 0.39,
        "hand": "left"
      },
      {
        "midi": 56,
        "time": 163.125,
        "duration": 1.719,
        "velocity": 0.39,
        "hand": "left"
      },
      {
        "midi": 59,
        "time": 163.125,
        "duration": 1.719,
        "velocity": 0.39,
        "hand": "left"
      },
      {
        "midi": 62,
        "time": 163.125,
        "duration": 1.719,
        "velocity": 0.39,
        "hand": "right"
      },
      {
        "midi": 76,
        "time": 163.125,
        "duration": 0.938,
        "velocity": 0.39,
        "hand": "right"
      },
      {
        "midi": 88,
        "time": 163.125,
        "duration": 0.938,
        "velocity": 0.39,
        "hand": "right"
      },
      {
        "midi": 78,
        "time": 164.063,
        "duration": 0.938,
        "velocity": 0.39,
        "hand": "right"
      },
      {
        "midi": 90,
        "time": 164.063,
        "duration": 0.938,
        "velocity": 0.39,
        "hand": "right"
      },
      {
        "midi": 45,
        "time": 165,
        "duration": 1.719,
        "velocity": 0.39,
        "hand": "left"
      },
      {
        "midi": 57,
        "time": 165,
        "duration": 1.719,
        "velocity": 0.39,
        "hand": "left"
      },
      {
        "midi": 80,
        "time": 165,
        "duration": 3.594,
        "velocity": 0.39,
        "hand": "right"
      },
      {
        "midi": 85,
        "time": 165,
        "duration": 3.594,
        "velocity": 0.39,
        "hand": "right"
      },
      {
        "midi": 88,
        "time": 165,
        "duration": 3.594,
        "velocity": 0.39,
        "hand": "right"
      },
      {
        "midi": 92,
        "time": 165.156,
        "duration": 3.594,
        "velocity": 0.39,
        "hand": "right"
      },
      {
        "midi": 57,
        "time": 166.875,
        "duration": 1.719,
        "velocity": 0.39,
        "hand": "left"
      },
      {
        "midi": 61,
        "time": 166.875,
        "duration": 1.719,
        "velocity": 0.39,
        "hand": "right"
      },
      {
        "midi": 64,
        "time": 166.875,
        "duration": 1.719,
        "velocity": 0.39,
        "hand": "right"
      },
      {
        "midi": 68,
        "time": 166.875,
        "duration": 1.719,
        "velocity": 0.39,
        "hand": "right"
      },
      {
        "midi": 45,
        "time": 168.75,
        "duration": 1.719,
        "velocity": 0.39,
        "hand": "left"
      },
      {
        "midi": 57,
        "time": 168.75,
        "duration": 1.719,
        "velocity": 0.39,
        "hand": "left"
      },
      {
        "midi": 73,
        "time": 168.75,
        "duration": 0.938,
        "velocity": 0.39,
        "hand": "right"
      },
      {
        "midi": 85,
        "time": 168.75,
        "duration": 0.938,
        "velocity": 0.39,
        "hand": "right"
      },
      {
        "midi": 75,
        "time": 169.688,
        "duration": 0.938,
        "velocity": 0.39,
        "hand": "right"
      },
      {
        "midi": 87,
        "time": 169.688,
        "duration": 0.938,
        "velocity": 0.39,
        "hand": "right"
      },
      {
        "midi": 52,
        "time": 170.625,
        "duration": 1.875,
        "velocity": 0.39,
        "hand": "left"
      },
      {
        "midi": 54,
        "time": 170.625,
        "duration": 1.719,
        "velocity": 0.39,
        "hand": "left"
      },
      {
        "midi": 59,
        "time": 170.625,
        "duration": 0.938,
        "velocity": 0.39,
        "hand": "left"
      },
      {
        "midi": 83,
        "time": 170.625,
        "duration": 0.938,
        "velocity": 0.39,
        "hand": "right"
      },
      {
        "midi": 95,
        "time": 170.625,
        "duration": 0.938,
        "velocity": 0.39,
        "hand": "right"
      },
      {
        "midi": 60,
        "time": 170.781,
        "duration": 1.719,
        "velocity": 0.39,
        "hand": "right"
      },
      {
        "midi": 57,
        "time": 171.563,
        "duration": 0.938,
        "velocity": 0.39,
        "hand": "left"
      },
      {
        "midi": 81,
        "time": 171.563,
        "duration": 0.938,
        "velocity": 0.39,
        "hand": "right"
      },
      {
        "midi": 93,
        "time": 171.563,
        "duration": 0.938,
        "velocity": 0.39,
        "hand": "right"
      },
      {
        "midi": 40,
        "time": 172.5,
        "duration": 1.719,
        "velocity": 0.39,
        "hand": "left"
      },
      {
        "midi": 52,
        "time": 172.5,
        "duration": 1.719,
        "velocity": 0.39,
        "hand": "left"
      },
      {
        "midi": 80,
        "time": 172.5,
        "duration": 3.594,
        "velocity": 0.39,
        "hand": "right"
      },
      {
        "midi": 83,
        "time": 172.5,
        "duration": 3.594,
        "velocity": 0.39,
        "hand": "right"
      },
      {
        "midi": 88,
        "time": 172.5,
        "duration": 3.594,
        "velocity": 0.39,
        "hand": "right"
      },
      {
        "midi": 92,
        "time": 172.656,
        "duration": 3.594,
        "velocity": 0.39,
        "hand": "right"
      },
      {
        "midi": 52,
        "time": 174.375,
        "duration": 1.719,
        "velocity": 0.39,
        "hand": "left"
      },
      {
        "midi": 56,
        "time": 174.375,
        "duration": 1.719,
        "velocity": 0.39,
        "hand": "left"
      },
      {
        "midi": 59,
        "time": 174.375,
        "duration": 1.719,
        "velocity": 0.39,
        "hand": "left"
      },
      {
        "midi": 63,
        "time": 174.375,
        "duration": 1.719,
        "velocity": 0.39,
        "hand": "right"
      },
      {
        "midi": 40,
        "time": 176.25,
        "duration": 1.719,
        "velocity": 0.39,
        "hand": "left"
      },
      {
        "midi": 52,
        "time": 176.25,
        "duration": 1.719,
        "velocity": 0.39,
        "hand": "left"
      },
      {
        "midi": 52,
        "time": 178.125,
        "duration": 1.719,
        "velocity": 0.44,
        "hand": "left"
      },
      {
        "midi": 56,
        "time": 178.125,
        "duration": 1.719,
        "velocity": 0.44,
        "hand": "left"
      },
      {
        "midi": 59,
        "time": 178.125,
        "duration": 1.719,
        "velocity": 0.44,
        "hand": "left"
      },
      {
        "midi": 62,
        "time": 178.125,
        "duration": 1.719,
        "velocity": 0.44,
        "hand": "right"
      },
      {
        "midi": 57,
        "time": 180,
        "duration": 3.594,
        "velocity": 0.5,
        "hand": "left"
      },
      {
        "midi": 61,
        "time": 180,
        "duration": 3.594,
        "velocity": 0.5,
        "hand": "right"
      },
      {
        "midi": 64,
        "time": 180,
        "duration": 3.594,
        "velocity": 0.5,
        "hand": "right"
      },
      {
        "midi": 80,
        "time": 180,
        "duration": 0.938,
        "velocity": 0.5,
        "hand": "right"
      },
      {
        "midi": 92,
        "time": 180,
        "duration": 0.938,
        "velocity": 0.5,
        "hand": "right"
      },
      {
        "midi": 76,
        "time": 180.938,
        "duration": 0.938,
        "velocity": 0.5,
        "hand": "right"
      },
      {
        "midi": 88,
        "time": 180.938,
        "duration": 0.938,
        "velocity": 0.5,
        "hand": "right"
      },
      {
        "midi": 68,
        "time": 181.875,
        "duration": 1.719,
        "velocity": 0.5,
        "hand": "right"
      },
      {
        "midi": 73,
        "time": 181.875,
        "duration": 1.875,
        "velocity": 0.5,
        "hand": "right"
      },
      {
        "midi": 85,
        "time": 181.875,
        "duration": 1.875,
        "velocity": 0.5,
        "hand": "right"
      },
      {
        "midi": 56,
        "time": 183.75,
        "duration": 3.594,
        "velocity": 0.5,
        "hand": "left"
      },
      {
        "midi": 59,
        "time": 183.75,
        "duration": 3.594,
        "velocity": 0.5,
        "hand": "left"
      },
      {
        "midi": 63,
        "time": 183.75,
        "duration": 3.594,
        "velocity": 0.5,
        "hand": "right"
      },
      {
        "midi": 80,
        "time": 183.75,
        "duration": 0.938,
        "velocity": 0.5,
        "hand": "right"
      },
      {
        "midi": 92,
        "time": 183.75,
        "duration": 0.938,
        "velocity": 0.5,
        "hand": "right"
      },
      {
        "midi": 75,
        "time": 184.688,
        "duration": 0.938,
        "velocity": 0.5,
        "hand": "right"
      },
      {
        "midi": 87,
        "time": 184.688,
        "duration": 0.938,
        "velocity": 0.5,
        "hand": "right"
      },
      {
        "midi": 66,
        "time": 185.625,
        "duration": 1.719,
        "velocity": 0.5,
        "hand": "right"
      },
      {
        "midi": 71,
        "time": 185.625,
        "duration": 1.875,
        "velocity": 0.5,
        "hand": "right"
      },
      {
        "midi": 83,
        "time": 185.625,
        "duration": 1.875,
        "velocity": 0.5,
        "hand": "right"
      },
      {
        "midi": 55,
        "time": 187.5,
        "duration": 3.594,
        "velocity": 0.5,
        "hand": "left"
      },
      {
        "midi": 59,
        "time": 187.5,
        "duration": 3.594,
        "velocity": 0.5,
        "hand": "left"
      },
      {
        "midi": 62,
        "time": 187.5,
        "duration": 3.594,
        "velocity": 0.5,
        "hand": "right"
      },
      {
        "midi": 78,
        "time": 187.5,
        "duration": 0.938,
        "velocity": 0.5,
        "hand": "right"
      },
      {
        "midi": 90,
        "time": 187.5,
        "duration": 0.938,
        "velocity": 0.5,
        "hand": "right"
      },
      {
        "midi": 74,
        "time": 188.438,
        "duration": 0.938,
        "velocity": 0.5,
        "hand": "right"
      },
      {
        "midi": 86,
        "time": 188.438,
        "duration": 0.938,
        "velocity": 0.5,
        "hand": "right"
      },
      {
        "midi": 66,
        "time": 189.375,
        "duration": 1.719,
        "velocity": 0.5,
        "hand": "right"
      },
      {
        "midi": 73,
        "time": 189.375,
        "duration": 0.938,
        "velocity": 0.5,
        "hand": "right"
      },
      {
        "midi": 85,
        "time": 189.375,
        "duration": 0.938,
        "velocity": 0.5,
        "hand": "right"
      },
      {
        "midi": 69,
        "time": 190.313,
        "duration": 0.938,
        "velocity": 0.5,
        "hand": "right"
      },
      {
        "midi": 81,
        "time": 190.313,
        "duration": 0.938,
        "velocity": 0.5,
        "hand": "right"
      },
      {
        "midi": 57,
        "time": 191.25,
        "duration": 3.594,
        "velocity": 0.5,
        "hand": "left"
      },
      {
        "midi": 61,
        "time": 191.25,
        "duration": 3.594,
        "velocity": 0.5,
        "hand": "right"
      },
      {
        "midi": 64,
        "time": 191.25,
        "duration": 3.594,
        "velocity": 0.5,
        "hand": "right"
      },
      {
        "midi": 78,
        "time": 191.25,
        "duration": 0.938,
        "velocity": 0.5,
        "hand": "right"
      },
      {
        "midi": 90,
        "time": 191.25,
        "duration": 0.938,
        "velocity": 0.5,
        "hand": "right"
      },
      {
        "midi": 74,
        "time": 192.188,
        "duration": 0.938,
        "velocity": 0.5,
        "hand": "right"
      },
      {
        "midi": 86,
        "time": 192.188,
        "duration": 0.938,
        "velocity": 0.5,
        "hand": "right"
      },
      {
        "midi": 68,
        "time": 193.125,
        "duration": 1.719,
        "velocity": 0.5,
        "hand": "right"
      },
      {
        "midi": 73,
        "time": 193.125,
        "duration": 1.875,
        "velocity": 0.5,
        "hand": "right"
      },
      {
        "midi": 85,
        "time": 193.125,
        "duration": 1.875,
        "velocity": 0.5,
        "hand": "right"
      },
      {
        "midi": 52,
        "time": 195,
        "duration": 3.75,
        "velocity": 0.5,
        "hand": "left"
      },
      {
        "midi": 55,
        "time": 195,
        "duration": 3.75,
        "velocity": 0.5,
        "hand": "left"
      },
      {
        "midi": 59,
        "time": 195,
        "duration": 3.75,
        "velocity": 0.5,
        "hand": "left"
      },
      {
        "midi": 76,
        "time": 195,
        "duration": 0.938,
        "velocity": 0.5,
        "hand": "right"
      },
      {
        "midi": 88,
        "time": 195,
        "duration": 0.938,
        "velocity": 0.5,
        "hand": "right"
      },
      {
        "midi": 71,
        "time": 195.938,
        "duration": 0.938,
        "velocity": 0.5,
        "hand": "right"
      },
      {
        "midi": 83,
        "time": 195.938,
        "duration": 0.938,
        "velocity": 0.5,
        "hand": "right"
      },
      {
        "midi": 64,
        "time": 196.875,
        "duration": 2.031,
        "velocity": 0.5,
        "hand": "right"
      },
      {
        "midi": 76,
        "time": 196.875,
        "duration": 0.938,
        "velocity": 0.5,
        "hand": "right"
      },
      {
        "midi": 88,
        "time": 196.875,
        "duration": 0.938,
        "velocity": 0.5,
        "hand": "right"
      },
      {
        "midi": 79,
        "time": 197.813,
        "duration": 1.094,
        "velocity": 0.5,
        "hand": "right"
      },
      {
        "midi": 91,
        "time": 197.969,
        "duration": 1.094,
        "velocity": 0.5,
        "hand": "right"
      },
      {
        "midi": 54,
        "time": 198.906,
        "duration": 9.688,
        "velocity": 0.5,
        "hand": "left"
      },
      {
        "midi": 58,
        "time": 198.906,
        "duration": 9.688,
        "velocity": 0.5,
        "hand": "left"
      },
      {
        "midi": 61,
        "time": 198.906,
        "duration": 1.25,
        "velocity": 0.5,
        "hand": "right"
      },
      {
        "midi": 78,
        "time": 198.906,
        "duration": 0.781,
        "velocity": 0.5,
        "hand": "right"
      },
      {
        "midi": 90,
        "time": 199.063,
        "duration": 0.781,
        "velocity": 0.5,
        "hand": "right"
      },
      {
        "midi": 70,
        "time": 199.844,
        "duration": 0.313,
        "velocity": 0.5,
        "hand": "right"
      },
      {
        "midi": 61,
        "time": 200.156,
        "duration": 8.594,
        "velocity": 0.5,
        "hand": "right"
      },
      {
        "midi": 66,
        "time": 200.625,
        "duration": 0.469,
        "velocity": 0.5,
        "hand": "right"
      },
      {
        "midi": 70,
        "time": 201.094,
        "duration": 0.469,
        "velocity": 0.5,
        "hand": "right"
      },
      {
        "midi": 66,
        "time": 201.563,
        "duration": 7.5,
        "velocity": 0.5,
        "hand": "right"
      },
      {
        "midi": 78,
        "time": 201.563,
        "duration": 0.469,
        "velocity": 0.5,
        "hand": "right"
      },
      {
        "midi": 73,
        "time": 201.875,
        "duration": 0.469,
        "velocity": 0.5,
        "hand": "right"
      },
      {
        "midi": 82,
        "time": 202.344,
        "duration": 0.469,
        "velocity": 0.5,
        "hand": "right"
      },
      {
        "midi": 78,
        "time": 202.813,
        "duration": 0.469,
        "velocity": 0.5,
        "hand": "right"
      },
      {
        "midi": 85,
        "time": 203.281,
        "duration": 5.938,
        "velocity": 0.5,
        "hand": "right"
      }
    ]
  },
  "notes1Hand": [
    {
      "midi": 41,
      "time": 0,
      "duration": 4,
      "velocity": 0.63,
      "hand": "left"
    },
    {
      "midi": 60,
      "time": 0,
      "duration": 4,
      "velocity": 0.63,
      "hand": "right"
    },
    {
      "midi": 64,
      "time": 0,
      "duration": 4,
      "velocity": 0.63,
      "hand": "right"
    },
    {
      "midi": 65,
      "time": 0,
      "duration": 4,
      "velocity": 0.63,
      "hand": "right"
    },
    {
      "midi": 65,
      "time": 0,
      "duration": 0.333,
      "velocity": 0.63,
      "hand": "right"
    },
    {
      "midi": 69,
      "time": 0,
      "duration": 4,
      "velocity": 0.63,
      "hand": "right"
    },
    {
      "midi": 74,
      "time": 0,
      "duration": 0.167,
      "velocity": 0.63,
      "hand": "right"
    },
    {
      "midi": 76,
      "time": 0.167,
      "duration": 0.167,
      "velocity": 0.63,
      "hand": "right"
    },
    {
      "midi": 72,
      "time": 0.333,
      "duration": 1.583,
      "velocity": 0.63,
      "hand": "right"
    },
    {
      "midi": 79,
      "time": 0.333,
      "duration": 0.167,
      "velocity": 0.63,
      "hand": "right"
    },
    {
      "midi": 81,
      "time": 0.5,
      "duration": 0.167,
      "velocity": 0.63,
      "hand": "right"
    },
    {
      "midi": 79,
      "time": 0.667,
      "duration": 0.167,
      "velocity": 0.63,
      "hand": "right"
    },
    {
      "midi": 76,
      "time": 0.833,
      "duration": 0.167,
      "velocity": 0.63,
      "hand": "right"
    },
    {
      "midi": 74,
      "time": 1,
      "duration": 0.167,
      "velocity": 0.63,
      "hand": "right"
    },
    {
      "midi": 76,
      "time": 1.167,
      "duration": 0.167,
      "velocity": 0.63,
      "hand": "right"
    },
    {
      "midi": 79,
      "time": 1.333,
      "duration": 0.167,
      "velocity": 0.63,
      "hand": "right"
    },
    {
      "midi": 81,
      "time": 1.5,
      "duration": 0.167,
      "velocity": 0.63,
      "hand": "right"
    },
    {
      "midi": 79,
      "time": 1.667,
      "duration": 0.167,
      "velocity": 0.63,
      "hand": "right"
    },
    {
      "midi": 76,
      "time": 1.833,
      "duration": 0.167,
      "velocity": 0.63,
      "hand": "right"
    },
    {
      "midi": 65,
      "time": 2,
      "duration": 0.333,
      "velocity": 0.63,
      "hand": "right"
    },
    {
      "midi": 74,
      "time": 2,
      "duration": 0.167,
      "velocity": 0.63,
      "hand": "right"
    },
    {
      "midi": 76,
      "time": 2.167,
      "duration": 0.167,
      "velocity": 0.63,
      "hand": "right"
    },
    {
      "midi": 72,
      "time": 2.333,
      "duration": 0.667,
      "velocity": 0.63,
      "hand": "right"
    },
    {
      "midi": 79,
      "time": 2.333,
      "duration": 0.167,
      "velocity": 0.63,
      "hand": "right"
    },
    {
      "midi": 81,
      "time": 2.5,
      "duration": 0.167,
      "velocity": 0.63,
      "hand": "right"
    },
    {
      "midi": 79,
      "time": 2.667,
      "duration": 0.167,
      "velocity": 0.63,
      "hand": "right"
    },
    {
      "midi": 76,
      "time": 2.833,
      "duration": 0.167,
      "velocity": 0.63,
      "hand": "right"
    },
    {
      "midi": 65,
      "time": 3,
      "duration": 0.333,
      "velocity": 0.63,
      "hand": "right"
    },
    {
      "midi": 74,
      "time": 3,
      "duration": 0.167,
      "velocity": 0.63,
      "hand": "right"
    },
    {
      "midi": 76,
      "time": 3.167,
      "duration": 0.167,
      "velocity": 0.63,
      "hand": "right"
    },
    {
      "midi": 72,
      "time": 3.333,
      "duration": 0.667,
      "velocity": 0.63,
      "hand": "right"
    },
    {
      "midi": 79,
      "time": 3.333,
      "duration": 0.167,
      "velocity": 0.63,
      "hand": "right"
    },
    {
      "midi": 81,
      "time": 3.5,
      "duration": 0.167,
      "velocity": 0.63,
      "hand": "right"
    },
    {
      "midi": 79,
      "time": 3.667,
      "duration": 0.167,
      "velocity": 0.63,
      "hand": "right"
    },
    {
      "midi": 76,
      "time": 3.833,
      "duration": 0.167,
      "velocity": 0.63,
      "hand": "right"
    },
    {
      "midi": 40,
      "time": 4,
      "duration": 3,
      "velocity": 0.63,
      "hand": "left"
    },
    {
      "midi": 60,
      "time": 4,
      "duration": 3,
      "velocity": 0.63,
      "hand": "right"
    },
    {
      "midi": 64,
      "time": 4,
      "duration": 3,
      "velocity": 0.63,
      "hand": "right"
    },
    {
      "midi": 64,
      "time": 4,
      "duration": 0.333,
      "velocity": 0.63,
      "hand": "right"
    },
    {
      "midi": 67,
      "time": 4,
      "duration": 3,
      "velocity": 0.63,
      "hand": "right"
    },
    {
      "midi": 69,
      "time": 4,
      "duration": 3,
      "velocity": 0.63,
      "hand": "right"
    },
    {
      "midi": 72,
      "time": 4,
      "duration": 0.167,
      "velocity": 0.63,
      "hand": "right"
    },
    {
      "midi": 76,
      "time": 4.167,
      "duration": 0.167,
      "velocity": 0.63,
      "hand": "right"
    },
    {
      "midi": 71,
      "time": 4.333,
      "duration": 1.583,
      "velocity": 0.63,
      "hand": "right"
    },
    {
      "midi": 79,
      "time": 4.333,
      "duration": 0.167,
      "velocity": 0.63,
      "hand": "right"
    },
    {
      "midi": 81,
      "time": 4.5,
      "duration": 0.167,
      "velocity": 0.63,
      "hand": "right"
    },
    {
      "midi": 79,
      "time": 4.667,
      "duration": 0.167,
      "velocity": 0.63,
      "hand": "right"
    },
    {
      "midi": 76,
      "time": 4.833,
      "duration": 0.167,
      "velocity": 0.63,
      "hand": "right"
    },
    {
      "midi": 72,
      "time": 5,
      "duration": 0.167,
      "velocity": 0.63,
      "hand": "right"
    },
    {
      "midi": 76,
      "time": 5.167,
      "duration": 0.167,
      "velocity": 0.63,
      "hand": "right"
    },
    {
      "midi": 79,
      "time": 5.333,
      "duration": 0.167,
      "velocity": 0.63,
      "hand": "right"
    },
    {
      "midi": 81,
      "time": 5.5,
      "duration": 0.167,
      "velocity": 0.63,
      "hand": "right"
    },
    {
      "midi": 79,
      "time": 5.667,
      "duration": 0.167,
      "velocity": 0.63,
      "hand": "right"
    },
    {
      "midi": 76,
      "time": 5.833,
      "duration": 0.167,
      "velocity": 0.63,
      "hand": "right"
    },
    {
      "midi": 64,
      "time": 6,
      "duration": 0.333,
      "velocity": 0.63,
      "hand": "right"
    },
    {
      "midi": 72,
      "time": 6,
      "duration": 0.167,
      "velocity": 0.63,
      "hand": "right"
    },
    {
      "midi": 76,
      "time": 6.167,
      "duration": 0.167,
      "velocity": 0.63,
      "hand": "right"
    },
    {
      "midi": 71,
      "time": 6.333,
      "duration": 0.667,
      "velocity": 0.63,
      "hand": "right"
    },
    {
      "midi": 79,
      "time": 6.333,
      "duration": 0.167,
      "velocity": 0.63,
      "hand": "right"
    },
    {
      "midi": 81,
      "time": 6.5,
      "duration": 0.167,
      "velocity": 0.63,
      "hand": "right"
    },
    {
      "midi": 79,
      "time": 6.667,
      "duration": 0.167,
      "velocity": 0.63,
      "hand": "right"
    },
    {
      "midi": 76,
      "time": 6.833,
      "duration": 0.167,
      "velocity": 0.63,
      "hand": "right"
    },
    {
      "midi": 39,
      "time": 7,
      "duration": 1,
      "velocity": 0.63,
      "hand": "left"
    },
    {
      "midi": 60,
      "time": 7,
      "duration": 1,
      "velocity": 0.63,
      "hand": "right"
    },
    {
      "midi": 63,
      "time": 7,
      "duration": 0.917,
      "velocity": 0.63,
      "hand": "right"
    },
    {
      "midi": 64,
      "time": 7,
      "duration": 1,
      "velocity": 0.63,
      "hand": "right"
    },
    {
      "midi": 67,
      "time": 7,
      "duration": 1,
      "velocity": 0.63,
      "hand": "right"
    },
    {
      "midi": 69,
      "time": 7,
      "duration": 1,
      "velocity": 0.63,
      "hand": "right"
    },
    {
      "midi": 72,
      "time": 7,
      "duration": 0.167,
      "velocity": 0.63,
      "hand": "right"
    },
    {
      "midi": 76,
      "time": 7.167,
      "duration": 0.167,
      "velocity": 0.63,
      "hand": "right"
    },
    {
      "midi": 79,
      "time": 7.333,
      "duration": 0.167,
      "velocity": 0.63,
      "hand": "right"
    },
    {
      "midi": 81,
      "time": 7.5,
      "duration": 0.167,
      "velocity": 0.63,
      "hand": "right"
    },
    {
      "midi": 79,
      "time": 7.667,
      "duration": 0.167,
      "velocity": 0.63,
      "hand": "right"
    },
    {
      "midi": 76,
      "time": 7.833,
      "duration": 0.167,
      "velocity": 0.63,
      "hand": "right"
    },
    {
      "midi": 38,
      "time": 8,
      "duration": 4,
      "velocity": 0.63,
      "hand": "left"
    },
    {
      "midi": 60,
      "time": 8,
      "duration": 4,
      "velocity": 0.63,
      "hand": "right"
    },
    {
      "midi": 62,
      "time": 8,
      "duration": 4,
      "velocity": 0.63,
      "hand": "right"
    },
    {
      "midi": 62,
      "time": 8,
      "duration": 0.333,
      "velocity": 0.63,
      "hand": "right"
    },
    {
      "midi": 65,
      "time": 8,
      "duration": 4,
      "velocity": 0.63,
      "hand": "right"
    },
    {
      "midi": 69,
      "time": 8,
      "duration": 4,
      "velocity": 0.63,
      "hand": "right"
    },
    {
      "midi": 72,
      "time": 8,
      "duration": 0.167,
      "velocity": 0.63,
      "hand": "right"
    },
    {
      "midi": 74,
      "time": 8.167,
      "duration": 0.167,
      "velocity": 0.63,
      "hand": "right"
    },
    {
      "midi": 69,
      "time": 8.333,
      "duration": 1.583,
      "velocity": 0.63,
      "hand": "right"
    },
    {
      "midi": 77,
      "time": 8.333,
      "duration": 0.167,
      "velocity": 0.63,
      "hand": "right"
    },
    {
      "midi": 79,
      "time": 8.5,
      "duration": 0.167,
      "velocity": 0.63,
      "hand": "right"
    },
    {
      "midi": 77,
      "time": 8.667,
      "duration": 0.167,
      "velocity": 0.63,
      "hand": "right"
    },
    {
      "midi": 74,
      "time": 8.833,
      "duration": 0.167,
      "velocity": 0.63,
      "hand": "right"
    },
    {
      "midi": 72,
      "time": 9,
      "duration": 0.167,
      "velocity": 0.63,
      "hand": "right"
    },
    {
      "midi": 74,
      "time": 9.167,
      "duration": 0.167,
      "velocity": 0.63,
      "hand": "right"
    },
    {
      "midi": 77,
      "time": 9.333,
      "duration": 0.167,
      "velocity": 0.63,
      "hand": "right"
    },
    {
      "midi": 79,
      "time": 9.5,
      "duration": 0.167,
      "velocity": 0.63,
      "hand": "right"
    },
    {
      "midi": 77,
      "time": 9.667,
      "duration": 0.167,
      "velocity": 0.63,
      "hand": "right"
    },
    {
      "midi": 74,
      "time": 9.833,
      "duration": 0.167,
      "velocity": 0.63,
      "hand": "right"
    },
    {
      "midi": 62,
      "time": 10,
      "duration": 0.333,
      "velocity": 0.63,
      "hand": "right"
    },
    {
      "midi": 72,
      "time": 10,
      "duration": 0.167,
      "velocity": 0.63,
      "hand": "right"
    },
    {
      "midi": 74,
      "time": 10.167,
      "duration": 0.167,
      "velocity": 0.63,
      "hand": "right"
    },
    {
      "midi": 69,
      "time": 10.333,
      "duration": 0.667,
      "velocity": 0.63,
      "hand": "right"
    },
    {
      "midi": 77,
      "time": 10.333,
      "duration": 0.167,
      "velocity": 0.63,
      "hand": "right"
    },
    {
      "midi": 79,
      "time": 10.5,
      "duration": 0.167,
      "velocity": 0.63,
      "hand": "right"
    },
    {
      "midi": 77,
      "time": 10.667,
      "duration": 0.167,
      "velocity": 0.63,
      "hand": "right"
    },
    {
      "midi": 74,
      "time": 10.833,
      "duration": 0.167,
      "velocity": 0.63,
      "hand": "right"
    },
    {
      "midi": 62,
      "time": 11,
      "duration": 0.333,
      "velocity": 0.63,
      "hand": "right"
    },
    {
      "midi": 72,
      "time": 11,
      "duration": 0.167,
      "velocity": 0.63,
      "hand": "right"
    },
    {
      "midi": 74,
      "time": 11.167,
      "duration": 0.167,
      "velocity": 0.63,
      "hand": "right"
    },
    {
      "midi": 69,
      "time": 11.333,
      "duration": 0.667,
      "velocity": 0.63,
      "hand": "right"
    },
    {
      "midi": 77,
      "time": 11.333,
      "duration": 0.167,
      "velocity": 0.63,
      "hand": "right"
    },
    {
      "midi": 79,
      "time": 11.5,
      "duration": 0.167,
      "velocity": 0.63,
      "hand": "right"
    },
    {
      "midi": 77,
      "time": 11.667,
      "duration": 0.167,
      "velocity": 0.63,
      "hand": "right"
    },
    {
      "midi": 74,
      "time": 11.833,
      "duration": 0.167,
      "velocity": 0.63,
      "hand": "right"
    },
    {
      "midi": 36,
      "time": 12,
      "duration": 4,
      "velocity": 0.63,
      "hand": "left"
    },
    {
      "midi": 60,
      "time": 12,
      "duration": 4,
      "velocity": 0.63,
      "hand": "right"
    },
    {
      "midi": 60,
      "time": 12,
      "duration": 0.333,
      "velocity": 0.63,
      "hand": "right"
    },
    {
      "midi": 64,
      "time": 12,
      "duration": 4,
      "velocity": 0.63,
      "hand": "right"
    },
    {
      "midi": 67,
      "time": 12,
      "duration": 4,
      "velocity": 0.63,
      "hand": "right"
    },
    {
      "midi": 71,
      "time": 12,
      "duration": 0.167,
      "velocity": 0.63,
      "hand": "right"
    },
    {
      "midi": 71,
      "time": 12,
      "duration": 4,
      "velocity": 0.63,
      "hand": "right"
    },
    {
      "midi": 72,
      "time": 12.167,
      "duration": 0.167,
      "velocity": 0.63,
      "hand": "right"
    },
    {
      "midi": 67,
      "time": 12.333,
      "duration": 1.583,
      "velocity": 0.63,
      "hand": "right"
    },
    {
      "midi": 74,
      "time": 12.333,
      "duration": 0.167,
      "velocity": 0.63,
      "hand": "right"
    },
    {
      "midi": 76,
      "time": 12.5,
      "duration": 0.167,
      "velocity": 0.63,
      "hand": "right"
    },
    {
      "midi": 74,
      "time": 12.667,
      "duration": 0.167,
      "velocity": 0.63,
      "hand": "right"
    },
    {
      "midi": 72,
      "time": 12.833,
      "duration": 0.167,
      "velocity": 0.63,
      "hand": "right"
    },
    {
      "midi": 71,
      "time": 13,
      "duration": 0.167,
      "velocity": 0.63,
      "hand": "right"
    },
    {
      "midi": 72,
      "time": 13.167,
      "duration": 0.167,
      "velocity": 0.63,
      "hand": "right"
    },
    {
      "midi": 74,
      "time": 13.333,
      "duration": 0.167,
      "velocity": 0.63,
      "hand": "right"
    },
    {
      "midi": 76,
      "time": 13.5,
      "duration": 0.167,
      "velocity": 0.63,
      "hand": "right"
    },
    {
      "midi": 74,
      "time": 13.667,
      "duration": 0.167,
      "velocity": 0.63,
      "hand": "right"
    },
    {
      "midi": 72,
      "time": 13.833,
      "duration": 0.167,
      "velocity": 0.63,
      "hand": "right"
    },
    {
      "midi": 60,
      "time": 14,
      "duration": 0.333,
      "velocity": 0.63,
      "hand": "right"
    },
    {
      "midi": 71,
      "time": 14,
      "duration": 0.167,
      "velocity": 0.63,
      "hand": "right"
    },
    {
      "midi": 72,
      "time": 14.167,
      "duration": 0.167,
      "velocity": 0.63,
      "hand": "right"
    },
    {
      "midi": 67,
      "time": 14.333,
      "duration": 0.667,
      "velocity": 0.63,
      "hand": "right"
    },
    {
      "midi": 74,
      "time": 14.333,
      "duration": 0.167,
      "velocity": 0.63,
      "hand": "right"
    },
    {
      "midi": 76,
      "time": 14.5,
      "duration": 0.167,
      "velocity": 0.63,
      "hand": "right"
    },
    {
      "midi": 74,
      "time": 14.667,
      "duration": 0.167,
      "velocity": 0.63,
      "hand": "right"
    },
    {
      "midi": 72,
      "time": 14.833,
      "duration": 0.167,
      "velocity": 0.63,
      "hand": "right"
    },
    {
      "midi": 60,
      "time": 15,
      "duration": 0.333,
      "velocity": 0.63,
      "hand": "right"
    },
    {
      "midi": 71,
      "time": 15,
      "duration": 0.917,
      "velocity": 0.63,
      "hand": "right"
    },
    {
      "midi": 67,
      "time": 15.333,
      "duration": 0.667,
      "velocity": 0.63,
      "hand": "right"
    },
    {
      "midi": 41,
      "time": 16,
      "duration": 4,
      "velocity": 0.63,
      "hand": "left"
    },
    {
      "midi": 53,
      "time": 16,
      "duration": 0.333,
      "velocity": 0.63,
      "hand": "left"
    },
    {
      "midi": 60,
      "time": 16,
      "duration": 4,
      "velocity": 0.63,
      "hand": "right"
    },
    {
      "midi": 64,
      "time": 16,
      "duration": 0.167,
      "velocity": 0.63,
      "hand": "right"
    },
    {
      "midi": 64,
      "time": 16,
      "duration": 4,
      "velocity": 0.63,
      "hand": "right"
    },
    {
      "midi": 65,
      "time": 16,
      "duration": 4,
      "velocity": 0.63,
      "hand": "right"
    },
    {
      "midi": 69,
      "time": 16,
      "duration": 4,
      "velocity": 0.63,
      "hand": "right"
    },
    {
      "midi": 64,
      "time": 16.167,
      "duration": 0.167,
      "velocity": 0.63,
      "hand": "right"
    },
    {
      "midi": 60,
      "time": 16.333,
      "duration": 0.667,
      "velocity": 0.63,
      "hand": "right"
    },
    {
      "midi": 64,
      "time": 16.333,
      "duration": 0.167,
      "velocity": 0.63,
      "hand": "right"
    },
    {
      "midi": 64,
      "time": 16.5,
      "duration": 0.167,
      "velocity": 0.63,
      "hand": "right"
    },
    {
      "midi": 64,
      "time": 16.667,
      "duration": 0.167,
      "velocity": 0.63,
      "hand": "right"
    },
    {
      "midi": 62,
      "time": 16.833,
      "duration": 0.167,
      "velocity": 0.63,
      "hand": "right"
    },
    {
      "midi": 53,
      "time": 17,
      "duration": 0.333,
      "velocity": 0.63,
      "hand": "left"
    },
    {
      "midi": 60,
      "time": 17.333,
      "duration": 0.667,
      "velocity": 0.63,
      "hand": "right"
    },
    {
      "midi": 53,
      "time": 18,
      "duration": 1.917,
      "velocity": 0.63,
      "hand": "left"
    },
    {
      "midi": 60,
      "time": 18,
      "duration": 1.917,
      "velocity": 0.63,
      "hand": "right"
    },
    {
      "midi": 64,
      "time": 18,
      "duration": 0.167,
      "velocity": 0.63,
      "hand": "right"
    },
    {
      "midi": 64,
      "time": 18.167,
      "duration": 0.167,
      "velocity": 0.63,
      "hand": "right"
    },
    {
      "midi": 64,
      "time": 18.333,
      "duration": 0.167,
      "velocity": 0.63,
      "hand": "right"
    },
    {
      "midi": 64,
      "time": 18.5,
      "duration": 0.167,
      "velocity": 0.63,
      "hand": "right"
    },
    {
      "midi": 64,
      "time": 18.667,
      "duration": 0.333,
      "velocity": 0.63,
      "hand": "right"
    },
    {
      "midi": 64,
      "time": 19,
      "duration": 0.167,
      "velocity": 0.63,
      "hand": "right"
    },
    {
      "midi": 64,
      "time": 19.167,
      "duration": 0.167,
      "velocity": 0.63,
      "hand": "right"
    },
    {
      "midi": 64,
      "time": 19.333,
      "duration": 0.167,
      "velocity": 0.63,
      "hand": "right"
    },
    {
      "midi": 64,
      "time": 19.5,
      "duration": 0.167,
      "velocity": 0.63,
      "hand": "right"
    },
    {
      "midi": 64,
      "time": 19.667,
      "duration": 0.333,
      "velocity": 0.63,
      "hand": "right"
    },
    {
      "midi": 40,
      "time": 20,
      "duration": 3,
      "velocity": 0.63,
      "hand": "left"
    },
    {
      "midi": 52,
      "time": 20,
      "duration": 0.333,
      "velocity": 0.63,
      "hand": "left"
    },
    {
      "midi": 60,
      "time": 20,
      "duration": 3,
      "velocity": 0.63,
      "hand": "right"
    },
    {
      "midi": 64,
      "time": 20,
      "duration": 0.167,
      "velocity": 0.63,
      "hand": "right"
    },
    {
      "midi": 64,
      "time": 20,
      "duration": 3,
      "velocity": 0.63,
      "hand": "right"
    },
    {
      "midi": 67,
      "time": 20,
      "duration": 3,
      "velocity": 0.63,
      "hand": "right"
    },
    {
      "midi": 64,
      "time": 20.167,
      "duration": 0.167,
      "velocity": 0.63,
      "hand": "right"
    },
    {
      "midi": 59,
      "time": 20.333,
      "duration": 0.667,
      "velocity": 0.63,
      "hand": "left"
    },
    {
      "midi": 64,
      "time": 20.333,
      "duration": 0.167,
      "velocity": 0.63,
      "hand": "right"
    },
    {
      "midi": 64,
      "time": 20.5,
      "duration": 0.167,
      "velocity": 0.63,
      "hand": "right"
    },
    {
      "midi": 64,
      "time": 20.667,
      "duration": 0.167,
      "velocity": 0.63,
      "hand": "right"
    },
    {
      "midi": 62,
      "time": 20.833,
      "duration": 0.167,
      "velocity": 0.63,
      "hand": "right"
    },
    {
      "midi": 52,
      "time": 21,
      "duration": 0.333,
      "velocity": 0.63,
      "hand": "left"
    },
    {
      "midi": 59,
      "time": 21.333,
      "duration": 0.667,
      "velocity": 0.63,
      "hand": "left"
    },
    {
      "midi": 52,
      "time": 22,
      "duration": 0.917,
      "velocity": 0.63,
      "hand": "left"
    },
    {
      "midi": 55,
      "time": 22,
      "duration": 0.917,
      "velocity": 0.63,
      "hand": "left"
    },
    {
      "midi": 64,
      "time": 22,
      "duration": 0.167,
      "velocity": 0.63,
      "hand": "right"
    },
    {
      "midi": 64,
      "time": 22.167,
      "duration": 0.167,
      "velocity": 0.63,
      "hand": "right"
    },
    {
      "midi": 64,
      "time": 22.333,
      "duration": 0.333,
      "velocity": 0.63,
      "hand": "right"
    },
    {
      "midi": 64,
      "time": 22.667,
      "duration": 0.333,
      "velocity": 0.63,
      "hand": "right"
    },
    {
      "midi": 39,
      "time": 23,
      "duration": 1,
      "velocity": 0.63,
      "hand": "left"
    },
    {
      "midi": 51,
      "time": 23,
      "duration": 0.917,
      "velocity": 0.63,
      "hand": "left"
    },
    {
      "midi": 60,
      "time": 23,
      "duration": 1,
      "velocity": 0.63,
      "hand": "right"
    },
    {
      "midi": 64,
      "time": 23,
      "duration": 0.167,
      "velocity": 0.63,
      "hand": "right"
    },
    {
      "midi": 64,
      "time": 23,
      "duration": 1,
      "velocity": 0.63,
      "hand": "right"
    },
    {
      "midi": 67,
      "time": 23,
      "duration": 1,
      "velocity": 0.63,
      "hand": "right"
    },
    {
      "midi": 64,
      "time": 23.167,
      "duration": 0.167,
      "velocity": 0.63,
      "hand": "right"
    },
    {
      "midi": 64,
      "time": 23.333,
      "duration": 0.167,
      "velocity": 0.63,
      "hand": "right"
    },
    {
      "midi": 64,
      "time": 23.5,
      "duration": 0.167,
      "velocity": 0.63,
      "hand": "right"
    },
    {
      "midi": 64,
      "time": 23.667,
      "duration": 0.333,
      "velocity": 0.63,
      "hand": "right"
    },
    {
      "midi": 38,
      "time": 24,
      "duration": 4,
      "velocity": 0.63,
      "hand": "left"
    },
    {
      "midi": 50,
      "time": 24,
      "duration": 0.917,
      "velocity": 0.63,
      "hand": "left"
    },
    {
      "midi": 53,
      "time": 24,
      "duration": 0.917,
      "velocity": 0.63,
      "hand": "left"
    },
    {
      "midi": 62,
      "time": 24,
      "duration": 0.167,
      "velocity": 0.63,
      "hand": "right"
    },
    {
      "midi": 62,
      "time": 24,
      "duration": 4,
      "velocity": 0.63,
      "hand": "right"
    },
    {
      "midi": 65,
      "time": 24,
      "duration": 4,
      "velocity": 0.63,
      "hand": "right"
    },
    {
      "midi": 69,
      "time": 24,
      "duration": 4,
      "velocity": 0.63,
      "hand": "right"
    },
    {
      "midi": 60,
      "time": 24.167,
      "duration": 0.167,
      "velocity": 0.63,
      "hand": "right"
    },
    {
      "midi": 64,
      "time": 24.333,
      "duration": 0.167,
      "velocity": 0.63,
      "hand": "right"
    },
    {
      "midi": 62,
      "time": 24.5,
      "duration": 0.167,
      "velocity": 0.63,
      "hand": "right"
    },
    {
      "midi": 64,
      "time": 24.667,
      "duration": 0.167,
      "velocity": 0.63,
      "hand": "right"
    },
    {
      "midi": 62,
      "time": 24.833,
      "duration": 0.167,
      "velocity": 0.63,
      "hand": "right"
    },
    {
      "midi": 57,
      "time": 25,
      "duration": 0.917,
      "velocity": 0.63,
      "hand": "left"
    },
    {
      "midi": 50,
      "time": 26,
      "duration": 0.917,
      "velocity": 0.63,
      "hand": "left"
    },
    {
      "midi": 53,
      "time": 26,
      "duration": 0.917,
      "velocity": 0.63,
      "hand": "left"
    },
    {
      "midi": 57,
      "time": 26,
      "duration": 0.917,
      "velocity": 0.63,
      "hand": "left"
    },
    {
      "midi": 64,
      "time": 26,
      "duration": 0.167,
      "velocity": 0.63,
      "hand": "right"
    },
    {
      "midi": 62,
      "time": 26.167,
      "duration": 0.167,
      "velocity": 0.63,
      "hand": "right"
    },
    {
      "midi": 64,
      "time": 26.333,
      "duration": 0.167,
      "velocity": 0.63,
      "hand": "right"
    },
    {
      "midi": 62,
      "time": 26.5,
      "duration": 0.167,
      "velocity": 0.63,
      "hand": "right"
    },
    {
      "midi": 64,
      "time": 26.667,
      "duration": 0.167,
      "velocity": 0.63,
      "hand": "right"
    },
    {
      "midi": 62,
      "time": 26.833,
      "duration": 0.167,
      "velocity": 0.63,
      "hand": "right"
    },
    {
      "midi": 50,
      "time": 27,
      "duration": 0.333,
      "velocity": 0.63,
      "hand": "left"
    },
    {
      "midi": 53,
      "time": 27.333,
      "duration": 0.333,
      "velocity": 0.63,
      "hand": "left"
    },
    {
      "midi": 57,
      "time": 27.667,
      "duration": 0.333,
      "velocity": 0.63,
      "hand": "left"
    },
    {
      "midi": 60,
      "time": 27.833,
      "duration": 0.167,
      "velocity": 0.63,
      "hand": "right"
    },
    {
      "midi": 36,
      "time": 28,
      "duration": 4,
      "velocity": 0.63,
      "hand": "left"
    },
    {
      "midi": 48,
      "time": 28,
      "duration": 0.917,
      "velocity": 0.63,
      "hand": "left"
    },
    {
      "midi": 55,
      "time": 28,
      "duration": 0.917,
      "velocity": 0.63,
      "hand": "left"
    },
    {
      "midi": 59,
      "time": 28,
      "duration": 0.167,
      "velocity": 0.63,
      "hand": "left"
    },
    {
      "midi": 60,
      "time": 28,
      "duration": 4,
      "velocity": 0.63,
      "hand": "right"
    },
    {
      "midi": 64,
      "time": 28,
      "duration": 0.167,
      "velocity": 0.63,
      "hand": "right"
    },
    {
      "midi": 64,
      "time": 28,
      "duration": 4,
      "velocity": 0.63,
      "hand": "right"
    },
    {
      "midi": 67,
      "time": 28,
      "duration": 4,
      "velocity": 0.63,
      "hand": "right"
    },
    {
      "midi": 71,
      "time": 28,
      "duration": 4,
      "velocity": 0.63,
      "hand": "right"
    },
    {
      "midi": 64,
      "time": 28.167,
      "duration": 0.167,
      "velocity": 0.63,
      "hand": "right"
    },
    {
      "midi": 64,
      "time": 28.333,
      "duration": 0.167,
      "velocity": 0.63,
      "hand": "right"
    },
    {
      "midi": 64,
      "time": 28.5,
      "duration": 0.167,
      "velocity": 0.63,
      "hand": "right"
    },
    {
      "midi": 64,
      "time": 28.667,
      "duration": 0.333,
      "velocity": 0.63,
      "hand": "right"
    },
    {
      "midi": 48,
      "time": 29,
      "duration": 0.917,
      "velocity": 0.63,
      "hand": "left"
    },
    {
      "midi": 59,
      "time": 29,
      "duration": 0.167,
      "velocity": 0.63,
      "hand": "left"
    },
    {
      "midi": 64,
      "time": 29,
      "duration": 0.167,
      "velocity": 0.63,
      "hand": "right"
    },
    {
      "midi": 64,
      "time": 29.167,
      "duration": 0.167,
      "velocity": 0.63,
      "hand": "right"
    },
    {
      "midi": 64,
      "time": 29.333,
      "duration": 0.167,
      "velocity": 0.63,
      "hand": "right"
    },
    {
      "midi": 64,
      "time": 29.5,
      "duration": 0.167,
      "velocity": 0.63,
      "hand": "right"
    },
    {
      "midi": 64,
      "time": 29.667,
      "duration": 0.333,
      "velocity": 0.63,
      "hand": "right"
    },
    {
      "midi": 48,
      "time": 30,
      "duration": 1.917,
      "velocity": 0.63,
      "hand": "left"
    },
    {
      "midi": 55,
      "time": 30,
      "duration": 1.917,
      "velocity": 0.63,
      "hand": "left"
    },
    {
      "midi": 59,
      "time": 30,
      "duration": 0.167,
      "velocity": 0.63,
      "hand": "left"
    },
    {
      "midi": 64,
      "time": 30,
      "duration": 0.167,
      "velocity": 0.63,
      "hand": "right"
    },
    {
      "midi": 64,
      "time": 30.167,
      "duration": 0.167,
      "velocity": 0.63,
      "hand": "right"
    },
    {
      "midi": 64,
      "time": 30.333,
      "duration": 0.333,
      "velocity": 0.63,
      "hand": "right"
    },
    {
      "midi": 62,
      "time": 30.667,
      "duration": 0.167,
      "velocity": 0.63,
      "hand": "right"
    },
    {
      "midi": 60,
      "time": 30.833,
      "duration": 0.5,
      "velocity": 0.63,
      "hand": "right"
    },
    {
      "midi": 64,
      "time": 31.333,
      "duration": 0.333,
      "velocity": 0.63,
      "hand": "right"
    },
    {
      "midi": 67,
      "time": 31.667,
      "duration": 0.333,
      "velocity": 0.63,
      "hand": "right"
    },
    {
      "midi": 41,
      "time": 32,
      "duration": 4,
      "velocity": 0.63,
      "hand": "left"
    },
    {
      "midi": 41,
      "time": 32,
      "duration": 0.917,
      "velocity": 0.63,
      "hand": "left"
    },
    {
      "midi": 60,
      "time": 32,
      "duration": 4,
      "velocity": 0.63,
      "hand": "right"
    },
    {
      "midi": 64,
      "time": 32,
      "duration": 0.917,
      "velocity": 0.63,
      "hand": "right"
    },
    {
      "midi": 64,
      "time": 32,
      "duration": 4,
      "velocity": 0.63,
      "hand": "right"
    },
    {
      "midi": 65,
      "time": 32,
      "duration": 4,
      "velocity": 0.63,
      "hand": "right"
    },
    {
      "midi": 69,
      "time": 32,
      "duration": 0.917,
      "velocity": 0.63,
      "hand": "right"
    },
    {
      "midi": 69,
      "time": 32,
      "duration": 4,
      "velocity": 0.63,
      "hand": "right"
    },
    {
      "midi": 48,
      "time": 33,
      "duration": 0.917,
      "velocity": 0.63,
      "hand": "left"
    },
    {
      "midi": 69,
      "time": 33.333,
      "duration": 0.333,
      "velocity": 0.63,
      "hand": "right"
    },
    {
      "midi": 71,
      "time": 33.667,
      "duration": 0.167,
      "velocity": 0.63,
      "hand": "right"
    },
    {
      "midi": 64,
      "time": 33.833,
      "duration": 1.083,
      "velocity": 0.63,
      "hand": "right"
    },
    {
      "midi": 72,
      "time": 33.833,
      "duration": 1.083,
      "velocity": 0.63,
      "hand": "right"
    },
    {
      "midi": 41,
      "time": 34,
      "duration": 0.917,
      "velocity": 0.63,
      "hand": "left"
    },
    {
      "midi": 48,
      "time": 35,
      "duration": 0.917,
      "velocity": 0.63,
      "hand": "left"
    },
    {
      "midi": 69,
      "time": 35.333,
      "duration": 0.333,
      "velocity": 0.63,
      "hand": "right"
    },
    {
      "midi": 72,
      "time": 35.667,
      "duration": 0.333,
      "velocity": 0.63,
      "hand": "right"
    },
    {
      "midi": 40,
      "time": 36,
      "duration": 2,
      "velocity": 0.63,
      "hand": "left"
    },
    {
      "midi": 40,
      "time": 36,
      "duration": 0.917,
      "velocity": 0.63,
      "hand": "left"
    },
    {
      "midi": 64,
      "time": 36,
      "duration": 2,
      "velocity": 0.63,
      "hand": "right"
    },
    {
      "midi": 67,
      "time": 36,
      "duration": 0.333,
      "velocity": 0.63,
      "hand": "right"
    },
    {
      "midi": 67,
      "time": 36,
      "duration": 2,
      "velocity": 0.63,
      "hand": "right"
    },
    {
      "midi": 71,
      "time": 36,
      "duration": 0.333,
      "velocity": 0.63,
      "hand": "right"
    },
    {
      "midi": 71,
      "time": 36,
      "duration": 2,
      "velocity": 0.63,
      "hand": "right"
    },
    {
      "midi": 69,
      "time": 36.333,
      "duration": 0.333,
      "velocity": 0.63,
      "hand": "right"
    },
    {
      "midi": 67,
      "time": 36.667,
      "duration": 0.333,
      "velocity": 0.63,
      "hand": "right"
    },
    {
      "midi": 47,
      "time": 37,
      "duration": 0.917,
      "velocity": 0.63,
      "hand": "left"
    },
    {
      "midi": 67,
      "time": 37,
      "duration": 0.667,
      "velocity": 0.63,
      "hand": "right"
    },
    {
      "midi": 64,
      "time": 37.667,
      "duration": 0.333,
      "velocity": 0.63,
      "hand": "right"
    },
    {
      "midi": 40,
      "time": 38,
      "duration": 1,
      "velocity": 0.63,
      "hand": "left"
    },
    {
      "midi": 40,
      "time": 38,
      "duration": 0.917,
      "velocity": 0.63,
      "hand": "left"
    },
    {
      "midi": 60,
      "time": 38,
      "duration": 1,
      "velocity": 0.63,
      "hand": "right"
    },
    {
      "midi": 64,
      "time": 38,
      "duration": 1,
      "velocity": 0.63,
      "hand": "right"
    },
    {
      "midi": 67,
      "time": 38,
      "duration": 0.333,
      "velocity": 0.63,
      "hand": "right"
    },
    {
      "midi": 67,
      "time": 38,
      "duration": 1,
      "velocity": 0.63,
      "hand": "right"
    },
    {
      "midi": 71,
      "time": 38,
      "duration": 0.333,
      "velocity": 0.63,
      "hand": "right"
    },
    {
      "midi": 69,
      "time": 38.333,
      "duration": 0.333,
      "velocity": 0.63,
      "hand": "right"
    },
    {
      "midi": 67,
      "time": 38.667,
      "duration": 0.333,
      "velocity": 0.63,
      "hand": "right"
    },
    {
      "midi": 39,
      "time": 39,
      "duration": 1,
      "velocity": 0.63,
      "hand": "left"
    },
    {
      "midi": 39,
      "time": 39,
      "duration": 0.917,
      "velocity": 0.63,
      "hand": "left"
    },
    {
      "midi": 60,
      "time": 39,
      "duration": 1,
      "velocity": 0.63,
      "hand": "right"
    },
    {
      "midi": 64,
      "time": 39,
      "duration": 1,
      "velocity": 0.63,
      "hand": "right"
    },
    {
      "midi": 67,
      "time": 39,
      "duration": 0.333,
      "velocity": 0.63,
      "hand": "right"
    },
    {
      "midi": 67,
      "time": 39,
      "duration": 1,
      "velocity": 0.63,
      "hand": "right"
    },
    {
      "midi": 71,
      "time": 39,
      "duration": 0.333,
      "velocity": 0.63,
      "hand": "right"
    },
    {
      "midi": 69,
      "time": 39.333,
      "duration": 0.333,
      "velocity": 0.63,
      "hand": "right"
    },
    {
      "midi": 67,
      "time": 39.667,
      "duration": 0.333,
      "velocity": 0.63,
      "hand": "right"
    },
    {
      "midi": 38,
      "time": 40,
      "duration": 4,
      "velocity": 0.63,
      "hand": "left"
    },
    {
      "midi": 38,
      "time": 40,
      "duration": 0.917,
      "velocity": 0.63,
      "hand": "left"
    },
    {
      "midi": 60,
      "time": 40,
      "duration": 4,
      "velocity": 0.63,
      "hand": "right"
    },
    {
      "midi": 62,
      "time": 40,
      "duration": 4,
      "velocity": 0.63,
      "hand": "right"
    },
    {
      "midi": 65,
      "time": 40,
      "duration": 4,
      "velocity": 0.63,
      "hand": "right"
    },
    {
      "midi": 67,
      "time": 40,
      "duration": 0.167,
      "velocity": 0.63,
      "hand": "right"
    },
    {
      "midi": 69,
      "time": 40,
      "duration": 4,
      "velocity": 0.63,
      "hand": "right"
    },
    {
      "midi": 60,
      "time": 40.167,
      "duration": 1.75,
      "velocity": 0.63,
      "hand": "right"
    },
    {
      "midi": 65,
      "time": 40.167,
      "duration": 1.75,
      "velocity": 0.63,
      "hand": "right"
    },
    {
      "midi": 45,
      "time": 41,
      "duration": 0.917,
      "velocity": 0.63,
      "hand": "left"
    },
    {
      "midi": 38,
      "time": 42,
      "duration": 0.917,
      "velocity": 0.63,
      "hand": "left"
    },
    {
      "midi": 60,
      "time": 42.667,
      "duration": 0.333,
      "velocity": 0.63,
      "hand": "right"
    },
    {
      "midi": 45,
      "time": 43,
      "duration": 0.917,
      "velocity": 0.63,
      "hand": "left"
    },
    {
      "midi": 67,
      "time": 43,
      "duration": 0.333,
      "velocity": 0.63,
      "hand": "right"
    },
    {
      "midi": 65,
      "time": 43.333,
      "duration": 0.333,
      "velocity": 0.63,
      "hand": "right"
    },
    {
      "midi": 64,
      "time": 43.667,
      "duration": 0.333,
      "velocity": 0.63,
      "hand": "right"
    },
    {
      "midi": 40,
      "time": 44,
      "duration": 4,
      "velocity": 0.63,
      "hand": "left"
    },
    {
      "midi": 40,
      "time": 44,
      "duration": 0.333,
      "velocity": 0.63,
      "hand": "left"
    },
    {
      "midi": 56,
      "time": 44,
      "duration": 0.917,
      "velocity": 0.63,
      "hand": "left"
    },
    {
      "midi": 64,
      "time": 44,
      "duration": 0.917,
      "velocity": 0.63,
      "hand": "right"
    },
    {
      "midi": 64,
      "time": 44,
      "duration": 4,
      "velocity": 0.63,
      "hand": "right"
    },
    {
      "midi": 68,
      "time": 44,
      "duration": 4,
      "velocity": 0.63,
      "hand": "right"
    },
    {
      "midi": 71,
      "time": 44,
      "duration": 4,
      "velocity": 0.63,
      "hand": "right"
    },
    {
      "midi": 40,
      "time": 44.333,
      "duration": 0.333,
      "velocity": 0.63,
      "hand": "left"
    },
    {
      "midi": 40,
      "time": 44.667,
      "duration": 0.333,
      "velocity": 0.63,
      "hand": "left"
    },
    {
      "midi": 40,
      "time": 45,
      "duration": 0.333,
      "velocity": 0.63,
      "hand": "left"
    },
    {
      "midi": 69,
      "time": 45,
      "duration": 0.917,
      "velocity": 0.63,
      "hand": "right"
    },
    {
      "midi": 40,
      "time": 45.333,
      "duration": 0.333,
      "velocity": 0.63,
      "hand": "left"
    },
    {
      "midi": 40,
      "time": 45.667,
      "duration": 0.333,
      "velocity": 0.63,
      "hand": "left"
    },
    {
      "midi": 40,
      "time": 46,
      "duration": 0.333,
      "velocity": 0.63,
      "hand": "left"
    },
    {
      "midi": 72,
      "time": 46,
      "duration": 0.917,
      "velocity": 0.63,
      "hand": "right"
    },
    {
      "midi": 40,
      "time": 46.333,
      "duration": 0.333,
      "velocity": 0.63,
      "hand": "left"
    },
    {
      "midi": 40,
      "time": 46.667,
      "duration": 0.333,
      "velocity": 0.63,
      "hand": "left"
    },
    {
      "midi": 74,
      "time": 47,
      "duration": 0.333,
      "velocity": 0.63,
      "hand": "right"
    },
    {
      "midi": 41,
      "time": 48,
      "duration": 6,
      "velocity": 0.63,
      "hand": "left"
    },
    {
      "midi": 41,
      "time": 48,
      "duration": 0.917,
      "velocity": 0.63,
      "hand": "left"
    },
    {
      "midi": 60,
      "time": 48,
      "duration": 6,
      "velocity": 0.63,
      "hand": "right"
    },
    {
      "midi": 64,
      "time": 48,
      "duration": 6,
      "velocity": 0.63,
      "hand": "right"
    },
    {
      "midi": 65,
      "time": 48,
      "duration": 6,
      "velocity": 0.63,
      "hand": "right"
    },
    {
      "midi": 69,
      "time": 48,
      "duration": 3.833,
      "velocity": 0.63,
      "hand": "right"
    },
    {
      "midi": 69,
      "time": 48,
      "duration": 6,
      "velocity": 0.63,
      "hand": "right"
    },
    {
      "midi": 76,
      "time": 48,
      "duration": 3.833,
      "velocity": 0.63,
      "hand": "right"
    },
    {
      "midi": 48,
      "time": 49,
      "duration": 0.917,
      "velocity": 0.63,
      "hand": "left"
    },
    {
      "midi": 52,
      "time": 50,
      "duration": 0.917,
      "velocity": 0.63,
      "hand": "left"
    },
    {
      "midi": 53,
      "time": 50,
      "duration": 0.917,
      "velocity": 0.63,
      "hand": "left"
    },
    {
      "midi": 57,
      "time": 50,
      "duration": 0.917,
      "velocity": 0.63,
      "hand": "left"
    },
    {
      "midi": 60,
      "time": 51,
      "duration": 0.917,
      "velocity": 0.63,
      "hand": "right"
    },
    {
      "midi": 41,
      "time": 52,
      "duration": 0.917,
      "velocity": 0.63,
      "hand": "left"
    },
    {
      "midi": 69,
      "time": 52,
      "duration": 0.917,
      "velocity": 0.63,
      "hand": "right"
    },
    {
      "midi": 48,
      "time": 53,
      "duration": 0.917,
      "velocity": 0.63,
      "hand": "left"
    },
    {
      "midi": 71,
      "time": 53,
      "duration": 0.917,
      "velocity": 0.63,
      "hand": "right"
    },
    {
      "midi": 41,
      "time": 54,
      "duration": 2,
      "velocity": 0.63,
      "hand": "left"
    },
    {
      "midi": 53,
      "time": 54,
      "duration": 0.917,
      "velocity": 0.63,
      "hand": "left"
    },
    {
      "midi": 56,
      "time": 54,
      "duration": 0.917,
      "velocity": 0.63,
      "hand": "left"
    },
    {
      "midi": 60,
      "time": 54,
      "duration": 2,
      "velocity": 0.63,
      "hand": "right"
    },
    {
      "midi": 60,
      "time": 54,
      "duration": 0.917,
      "velocity": 0.63,
      "hand": "right"
    },
    {
      "midi": 65,
      "time": 54,
      "duration": 2,
      "velocity": 0.63,
      "hand": "right"
    },
    {
      "midi": 68,
      "time": 54,
      "duration": 2,
      "velocity": 0.63,
      "hand": "right"
    },
    {
      "midi": 79,
      "time": 54,
      "duration": 0.917,
      "velocity": 0.63,
      "hand": "right"
    },
    {
      "midi": 62,
      "time": 55,
      "duration": 0.917,
      "velocity": 0.63,
      "hand": "right"
    },
    {
      "midi": 77,
      "time": 55,
      "duration": 0.917,
      "velocity": 0.63,
      "hand": "right"
    },
    {
      "midi": 36,
      "time": 56,
      "duration": 6,
      "velocity": 0.63,
      "hand": "left"
    },
    {
      "midi": 36,
      "time": 56,
      "duration": 0.917,
      "velocity": 0.63,
      "hand": "left"
    },
    {
      "midi": 60,
      "time": 56,
      "duration": 6,
      "velocity": 0.63,
      "hand": "right"
    },
    {
      "midi": 64,
      "time": 56,
      "duration": 6,
      "velocity": 0.63,
      "hand": "right"
    },
    {
      "midi": 67,
      "time": 56,
      "duration": 6,
      "velocity": 0.63,
      "hand": "right"
    },
    {
      "midi": 71,
      "time": 56,
      "duration": 2.333,
      "velocity": 0.63,
      "hand": "right"
    },
    {
      "midi": 71,
      "time": 56,
      "duration": 6,
      "velocity": 0.63,
      "hand": "right"
    },
    {
      "midi": 76,
      "time": 56,
      "duration": 2.333,
      "velocity": 0.63,
      "hand": "right"
    },
    {
      "midi": 43,
      "time": 57,
      "duration": 0.917,
      "velocity": 0.63,
      "hand": "left"
    },
    {
      "midi": 48,
      "time": 58,
      "duration": 0.917,
      "velocity": 0.63,
      "hand": "left"
    },
    {
      "midi": 52,
      "time": 58,
      "duration": 0.917,
      "velocity": 0.63,
      "hand": "left"
    },
    {
      "midi": 55,
      "time": 58,
      "duration": 0.917,
      "velocity": 0.63,
      "hand": "left"
    },
    {
      "midi": 74,
      "time": 58.333,
      "duration": 0.667,
      "velocity": 0.63,
      "hand": "right"
    },
    {
      "midi": 59,
      "time": 59,
      "duration": 0.917,
      "velocity": 0.63,
      "hand": "left"
    },
    {
      "midi": 69,
      "time": 59.333,
      "duration": 0.333,
      "velocity": 0.63,
      "hand": "right"
    },
    {
      "midi": 72,
      "time": 59.667,
      "duration": 0.333,
      "velocity": 0.63,
      "hand": "right"
    },
    {
      "midi": 36,
      "time": 60,
      "duration": 0.917,
      "velocity": 0.63,
      "hand": "left"
    },
    {
      "midi": 64,
      "time": 60,
      "duration": 0.917,
      "velocity": 0.63,
      "hand": "right"
    },
    {
      "midi": 71,
      "time": 60,
      "duration": 0.917,
      "velocity": 0.63,
      "hand": "right"
    },
    {
      "midi": 43,
      "time": 61,
      "duration": 0.917,
      "velocity": 0.63,
      "hand": "left"
    },
    {
      "midi": 71,
      "time": 61,
      "duration": 0.917,
      "velocity": 0.63,
      "hand": "right"
    },
    {
      "midi": 38,
      "time": 62,
      "duration": 1,
      "velocity": 0.63,
      "hand": "left"
    },
    {
      "midi": 38,
      "time": 62,
      "duration": 0.917,
      "velocity": 0.63,
      "hand": "left"
    },
    {
      "midi": 60,
      "time": 62,
      "duration": 1,
      "velocity": 0.63,
      "hand": "right"
    },
    {
      "midi": 64,
      "time": 62,
      "duration": 1,
      "velocity": 0.63,
      "hand": "right"
    },
    {
      "midi": 69,
      "time": 62,
      "duration": 0.917,
      "velocity": 0.63,
      "hand": "right"
    },
    {
      "midi": 69,
      "time": 62,
      "duration": 1,
      "velocity": 0.63,
      "hand": "right"
    },
    {
      "midi": 72,
      "time": 62,
      "duration": 0.917,
      "velocity": 0.63,
      "hand": "right"
    },
    {
      "midi": 40,
      "time": 63,
      "duration": 1,
      "velocity": 0.63,
      "hand": "left"
    },
    {
      "midi": 40,
      "time": 63,
      "duration": 0.917,
      "velocity": 0.63,
      "hand": "left"
    },
    {
      "midi": 62,
      "time": 63,
      "duration": 1,
      "velocity": 0.63,
      "hand": "right"
    },
    {
      "midi": 64,
      "time": 63,
      "duration": 1,
      "velocity": 0.63,
      "hand": "right"
    },
    {
      "midi": 68,
      "time": 63,
      "duration": 0.917,
      "velocity": 0.63,
      "hand": "right"
    },
    {
      "midi": 68,
      "time": 63,
      "duration": 1,
      "velocity": 0.63,
      "hand": "right"
    },
    {
      "midi": 71,
      "time": 63,
      "duration": 1,
      "velocity": 0.63,
      "hand": "right"
    },
    {
      "midi": 74,
      "time": 63,
      "duration": 0.917,
      "velocity": 0.63,
      "hand": "right"
    },
    {
      "midi": 41,
      "time": 64,
      "duration": 6,
      "velocity": 0.63,
      "hand": "left"
    },
    {
      "midi": 41,
      "time": 64,
      "duration": 0.917,
      "velocity": 0.63,
      "hand": "left"
    },
    {
      "midi": 60,
      "time": 64,
      "duration": 6,
      "velocity": 0.63,
      "hand": "right"
    },
    {
      "midi": 64,
      "time": 64,
      "duration": 6,
      "velocity": 0.63,
      "hand": "right"
    },
    {
      "midi": 65,
      "time": 64,
      "duration": 6,
      "velocity": 0.63,
      "hand": "right"
    },
    {
      "midi": 69,
      "time": 64,
      "duration": 3.833,
      "velocity": 0.63,
      "hand": "right"
    },
    {
      "midi": 69,
      "time": 64,
      "duration": 6,
      "velocity": 0.63,
      "hand": "right"
    },
    {
      "midi": 76,
      "time": 64,
      "duration": 3.833,
      "velocity": 0.63,
      "hand": "right"
    },
    {
      "midi": 48,
      "time": 65,
      "duration": 0.917,
      "velocity": 0.63,
      "hand": "left"
    },
    {
      "midi": 52,
      "time": 66,
      "duration": 0.917,
      "velocity": 0.63,
      "hand": "left"
    },
    {
      "midi": 53,
      "time": 66,
      "duration": 0.917,
      "velocity": 0.63,
      "hand": "left"
    },
    {
      "midi": 57,
      "time": 66,
      "duration": 0.917,
      "velocity": 0.63,
      "hand": "left"
    },
    {
      "midi": 60,
      "time": 67,
      "duration": 0.917,
      "velocity": 0.63,
      "hand": "right"
    },
    {
      "midi": 41,
      "time": 68,
      "duration": 0.917,
      "velocity": 0.63,
      "hand": "left"
    },
    {
      "midi": 69,
      "time": 68,
      "duration": 0.917,
      "velocity": 0.63,
      "hand": "right"
    },
    {
      "midi": 48,
      "time": 69,
      "duration": 0.917,
      "velocity": 0.63,
      "hand": "left"
    },
    {
      "midi": 71,
      "time": 69,
      "duration": 0.917,
      "velocity": 0.63,
      "hand": "right"
    },
    {
      "midi": 41,
      "time": 70,
      "duration": 2,
      "velocity": 0.63,
      "hand": "left"
    },
    {
      "midi": 53,
      "time": 70,
      "duration": 0.917,
      "velocity": 0.63,
      "hand": "left"
    },
    {
      "midi": 56,
      "time": 70,
      "duration": 0.917,
      "velocity": 0.63,
      "hand": "left"
    },
    {
      "midi": 60,
      "time": 70,
      "duration": 2,
      "velocity": 0.63,
      "hand": "right"
    },
    {
      "midi": 60,
      "time": 70,
      "duration": 0.917,
      "velocity": 0.63,
      "hand": "right"
    },
    {
      "midi": 65,
      "time": 70,
      "duration": 2,
      "velocity": 0.63,
      "hand": "right"
    },
    {
      "midi": 68,
      "time": 70,
      "duration": 2,
      "velocity": 0.63,
      "hand": "right"
    },
    {
      "midi": 79,
      "time": 70,
      "duration": 0.917,
      "velocity": 0.63,
      "hand": "right"
    },
    {
      "midi": 62,
      "time": 71,
      "duration": 0.917,
      "velocity": 0.63,
      "hand": "right"
    },
    {
      "midi": 77,
      "time": 71,
      "duration": 0.917,
      "velocity": 0.63,
      "hand": "right"
    },
    {
      "midi": 36,
      "time": 72,
      "duration": 6,
      "velocity": 0.63,
      "hand": "left"
    },
    {
      "midi": 36,
      "time": 72,
      "duration": 0.917,
      "velocity": 0.63,
      "hand": "left"
    },
    {
      "midi": 60,
      "time": 72,
      "duration": 6,
      "velocity": 0.63,
      "hand": "right"
    },
    {
      "midi": 64,
      "time": 72,
      "duration": 6,
      "velocity": 0.63,
      "hand": "right"
    },
    {
      "midi": 67,
      "time": 72,
      "duration": 6,
      "velocity": 0.63,
      "hand": "right"
    },
    {
      "midi": 71,
      "time": 72,
      "duration": 2.833,
      "velocity": 0.63,
      "hand": "right"
    },
    {
      "midi": 71,
      "time": 72,
      "duration": 6,
      "velocity": 0.63,
      "hand": "right"
    },
    {
      "midi": 76,
      "time": 72,
      "duration": 2.833,
      "velocity": 0.63,
      "hand": "right"
    },
    {
      "midi": 43,
      "time": 73,
      "duration": 0.917,
      "velocity": 0.63,
      "hand": "left"
    },
    {
      "midi": 48,
      "time": 74,
      "duration": 0.917,
      "velocity": 0.63,
      "hand": "left"
    },
    {
      "midi": 52,
      "time": 74,
      "duration": 0.917,
      "velocity": 0.63,
      "hand": "left"
    },
    {
      "midi": 55,
      "time": 74,
      "duration": 0.917,
      "velocity": 0.63,
      "hand": "left"
    },
    {
      "midi": 59,
      "time": 75,
      "duration": 0.917,
      "velocity": 0.63,
      "hand": "left"
    },
    {
      "midi": 69,
      "time": 75.333,
      "duration": 0.333,
      "velocity": 0.63,
      "hand": "right"
    },
    {
      "midi": 72,
      "time": 75.667,
      "duration": 0.333,
      "velocity": 0.63,
      "hand": "right"
    },
    {
      "midi": 36,
      "time": 76,
      "duration": 0.917,
      "velocity": 0.63,
      "hand": "left"
    },
    {
      "midi": 64,
      "time": 76,
      "duration": 2,
      "velocity": 0.63,
      "hand": "right"
    },
    {
      "midi": 71,
      "time": 76,
      "duration": 2,
      "velocity": 0.63,
      "hand": "right"
    },
    {
      "midi": 43,
      "time": 77,
      "duration": 0.917,
      "velocity": 0.63,
      "hand": "left"
    },
    {
      "midi": 38,
      "time": 78,
      "duration": 1,
      "velocity": 0.63,
      "hand": "left"
    },
    {
      "midi": 38,
      "time": 78,
      "duration": 0.917,
      "velocity": 0.63,
      "hand": "left"
    },
    {
      "midi": 60,
      "time": 78,
      "duration": 1,
      "velocity": 0.63,
      "hand": "right"
    },
    {
      "midi": 64,
      "time": 78,
      "duration": 0.917,
      "velocity": 0.63,
      "hand": "right"
    },
    {
      "midi": 64,
      "time": 78,
      "duration": 1,
      "velocity": 0.63,
      "hand": "right"
    },
    {
      "midi": 67,
      "time": 78,
      "duration": 1,
      "velocity": 0.63,
      "hand": "right"
    },
    {
      "midi": 70,
      "time": 78,
      "duration": 0.917,
      "velocity": 0.63,
      "hand": "right"
    },
    {
      "midi": 70,
      "time": 78,
      "duration": 1,
      "velocity": 0.63,
      "hand": "right"
    },
    {
      "midi": 40,
      "time": 79,
      "duration": 1,
      "velocity": 0.63,
      "hand": "left"
    },
    {
      "midi": 40,
      "time": 79,
      "duration": 0.917,
      "velocity": 0.63,
      "hand": "left"
    },
    {
      "midi": 60,
      "time": 79,
      "duration": 1,
      "velocity": 0.63,
      "hand": "right"
    },
    {
      "midi": 64,
      "time": 79,
      "duration": 1,
      "velocity": 0.63,
      "hand": "right"
    },
    {
      "midi": 67,
      "time": 79,
      "duration": 1,
      "velocity": 0.63,
      "hand": "right"
    },
    {
      "midi": 70,
      "time": 79,
      "duration": 0.917,
      "velocity": 0.63,
      "hand": "right"
    },
    {
      "midi": 70,
      "time": 79,
      "duration": 1,
      "velocity": 0.63,
      "hand": "right"
    },
    {
      "midi": 41,
      "time": 80,
      "duration": 4,
      "velocity": 0.63,
      "hand": "left"
    },
    {
      "midi": 41,
      "time": 80,
      "duration": 0.917,
      "velocity": 0.63,
      "hand": "left"
    },
    {
      "midi": 57,
      "time": 80,
      "duration": 0.167,
      "velocity": 0.63,
      "hand": "left"
    },
    {
      "midi": 60,
      "time": 80,
      "duration": 4,
      "velocity": 0.63,
      "hand": "right"
    },
    {
      "midi": 64,
      "time": 80,
      "duration": 0.167,
      "velocity": 0.63,
      "hand": "right"
    },
    {
      "midi": 64,
      "time": 80,
      "duration": 4,
      "velocity": 0.63,
      "hand": "right"
    },
    {
      "midi": 65,
      "time": 80,
      "duration": 4,
      "velocity": 0.63,
      "hand": "right"
    },
    {
      "midi": 69,
      "time": 80,
      "duration": 4,
      "velocity": 0.63,
      "hand": "right"
    },
    {
      "midi": 64,
      "time": 80.167,
      "duration": 0.167,
      "velocity": 0.63,
      "hand": "right"
    },
    {
      "midi": 64,
      "time": 80.333,
      "duration": 0.167,
      "velocity": 0.63,
      "hand": "right"
    },
    {
      "midi": 64,
      "time": 80.5,
      "duration": 0.167,
      "velocity": 0.63,
      "hand": "right"
    },
    {
      "midi": 64,
      "time": 80.667,
      "duration": 0.167,
      "velocity": 0.63,
      "hand": "right"
    },
    {
      "midi": 62,
      "time": 80.833,
      "duration": 0.167,
      "velocity": 0.63,
      "hand": "right"
    },
    {
      "midi": 41,
      "time": 81,
      "duration": 0.917,
      "velocity": 0.63,
      "hand": "left"
    },
    {
      "midi": 41,
      "time": 82,
      "duration": 0.917,
      "velocity": 0.63,
      "hand": "left"
    },
    {
      "midi": 57,
      "time": 82,
      "duration": 0.167,
      "velocity": 0.63,
      "hand": "left"
    },
    {
      "midi": 64,
      "time": 82,
      "duration": 0.167,
      "velocity": 0.63,
      "hand": "right"
    },
    {
      "midi": 64,
      "time": 82.167,
      "duration": 0.167,
      "velocity": 0.63,
      "hand": "right"
    },
    {
      "midi": 64,
      "time": 82.333,
      "duration": 0.167,
      "velocity": 0.63,
      "hand": "right"
    },
    {
      "midi": 64,
      "time": 82.5,
      "duration": 0.167,
      "velocity": 0.63,
      "hand": "right"
    },
    {
      "midi": 64,
      "time": 82.667,
      "duration": 0.333,
      "velocity": 0.63,
      "hand": "right"
    },
    {
      "midi": 41,
      "time": 83,
      "duration": 0.917,
      "velocity": 0.63,
      "hand": "left"
    },
    {
      "midi": 64,
      "time": 83,
      "duration": 0.167,
      "velocity": 0.63,
      "hand": "right"
    },
    {
      "midi": 64,
      "time": 83.167,
      "duration": 0.167,
      "velocity": 0.63,
      "hand": "right"
    },
    {
      "midi": 64,
      "time": 83.333,
      "duration": 0.167,
      "velocity": 0.63,
      "hand": "right"
    },
    {
      "midi": 64,
      "time": 83.5,
      "duration": 0.167,
      "velocity": 0.63,
      "hand": "right"
    },
    {
      "midi": 64,
      "time": 83.667,
      "duration": 0.333,
      "velocity": 0.63,
      "hand": "right"
    },
    {
      "midi": 40,
      "time": 84,
      "duration": 3,
      "velocity": 0.63,
      "hand": "left"
    },
    {
      "midi": 40,
      "time": 84,
      "duration": 0.917,
      "velocity": 0.63,
      "hand": "left"
    },
    {
      "midi": 55,
      "time": 84,
      "duration": 0.167,
      "velocity": 0.63,
      "hand": "left"
    },
    {
      "midi": 60,
      "time": 84,
      "duration": 3,
      "velocity": 0.63,
      "hand": "right"
    },
    {
      "midi": 64,
      "time": 84,
      "duration": 0.167,
      "velocity": 0.63,
      "hand": "right"
    },
    {
      "midi": 64,
      "time": 84,
      "duration": 3,
      "velocity": 0.63,
      "hand": "right"
    },
    {
      "midi": 67,
      "time": 84,
      "duration": 3,
      "velocity": 0.63,
      "hand": "right"
    },
    {
      "midi": 64,
      "time": 84.167,
      "duration": 0.167,
      "velocity": 0.63,
      "hand": "right"
    },
    {
      "midi": 64,
      "time": 84.333,
      "duration": 0.167,
      "velocity": 0.63,
      "hand": "right"
    },
    {
      "midi": 64,
      "time": 84.5,
      "duration": 0.167,
      "velocity": 0.63,
      "hand": "right"
    },
    {
      "midi": 64,
      "time": 84.667,
      "duration": 0.167,
      "velocity": 0.63,
      "hand": "right"
    },
    {
      "midi": 62,
      "time": 84.833,
      "duration": 0.167,
      "velocity": 0.63,
      "hand": "right"
    },
    {
      "midi": 40,
      "time": 85,
      "duration": 0.917,
      "velocity": 0.63,
      "hand": "left"
    },
    {
      "midi": 40,
      "time": 86,
      "duration": 0.917,
      "velocity": 0.63,
      "hand": "left"
    },
    {
      "midi": 55,
      "time": 86,
      "duration": 0.167,
      "velocity": 0.63,
      "hand": "left"
    },
    {
      "midi": 64,
      "time": 86,
      "duration": 0.167,
      "velocity": 0.63,
      "hand": "right"
    },
    {
      "midi": 64,
      "time": 86.167,
      "duration": 0.167,
      "velocity": 0.63,
      "hand": "right"
    },
    {
      "midi": 64,
      "time": 86.333,
      "duration": 0.167,
      "velocity": 0.63,
      "hand": "right"
    },
    {
      "midi": 64,
      "time": 86.5,
      "duration": 0.167,
      "velocity": 0.63,
      "hand": "right"
    },
    {
      "midi": 64,
      "time": 86.667,
      "duration": 0.333,
      "velocity": 0.63,
      "hand": "right"
    },
    {
      "midi": 39,
      "time": 87,
      "duration": 1,
      "velocity": 0.63,
      "hand": "left"
    },
    {
      "midi": 39,
      "time": 87,
      "duration": 0.917,
      "velocity": 0.63,
      "hand": "left"
    },
    {
      "midi": 55,
      "time": 87,
      "duration": 0.167,
      "velocity": 0.63,
      "hand": "left"
    },
    {
      "midi": 60,
      "time": 87,
      "duration": 1,
      "velocity": 0.63,
      "hand": "right"
    },
    {
      "midi": 64,
      "time": 87,
      "duration": 0.167,
      "velocity": 0.63,
      "hand": "right"
    },
    {
      "midi": 64,
      "time": 87,
      "duration": 1,
      "velocity": 0.63,
      "hand": "right"
    },
    {
      "midi": 67,
      "time": 87,
      "duration": 1,
      "velocity": 0.63,
      "hand": "right"
    },
    {
      "midi": 64,
      "time": 87.167,
      "duration": 0.167,
      "velocity": 0.63,
      "hand": "right"
    },
    {
      "midi": 64,
      "time": 87.333,
      "duration": 0.167,
      "velocity": 0.63,
      "hand": "right"
    },
    {
      "midi": 64,
      "time": 87.5,
      "duration": 0.167,
      "velocity": 0.63,
      "hand": "right"
    },
    {
      "midi": 64,
      "time": 87.667,
      "duration": 0.333,
      "velocity": 0.63,
      "hand": "right"
    },
    {
      "midi": 38,
      "time": 88,
      "duration": 4,
      "velocity": 0.63,
      "hand": "left"
    },
    {
      "midi": 38,
      "time": 88,
      "duration": 0.917,
      "velocity": 0.63,
      "hand": "left"
    },
    {
      "midi": 60,
      "time": 88,
      "duration": 0.167,
      "velocity": 0.63,
      "hand": "right"
    },
    {
      "midi": 60,
      "time": 88,
      "duration": 4,
      "velocity": 0.63,
      "hand": "right"
    },
    {
      "midi": 62,
      "time": 88,
      "duration": 4,
      "velocity": 0.63,
      "hand": "right"
    },
    {
      "midi": 64,
      "time": 88,
      "duration": 0.167,
      "velocity": 0.63,
      "hand": "right"
    },
    {
      "midi": 65,
      "time": 88,
      "duration": 4,
      "velocity": 0.63,
      "hand": "right"
    },
    {
      "midi": 69,
      "time": 88,
      "duration": 4,
      "velocity": 0.63,
      "hand": "right"
    },
    {
      "midi": 62,
      "time": 88.167,
      "duration": 0.167,
      "velocity": 0.63,
      "hand": "right"
    },
    {
      "midi": 64,
      "time": 88.333,
      "duration": 0.167,
      "velocity": 0.63,
      "hand": "right"
    },
    {
      "midi": 62,
      "time": 88.5,
      "duration": 0.167,
      "velocity": 0.63,
      "hand": "right"
    },
    {
      "midi": 64,
      "time": 88.667,
      "duration": 0.167,
      "velocity": 0.63,
      "hand": "right"
    },
    {
      "midi": 62,
      "time": 88.833,
      "duration": 0.167,
      "velocity": 0.63,
      "hand": "right"
    },
    {
      "midi": 38,
      "time": 89,
      "duration": 0.917,
      "velocity": 0.63,
      "hand": "left"
    },
    {
      "midi": 38,
      "time": 90,
      "duration": 0.917,
      "velocity": 0.63,
      "hand": "left"
    },
    {
      "midi": 60,
      "time": 90,
      "duration": 0.167,
      "velocity": 0.63,
      "hand": "right"
    },
    {
      "midi": 64,
      "time": 90,
      "duration": 0.167,
      "velocity": 0.63,
      "hand": "right"
    },
    {
      "midi": 62,
      "time": 90.167,
      "duration": 0.167,
      "velocity": 0.63,
      "hand": "right"
    },
    {
      "midi": 64,
      "time": 90.333,
      "duration": 0.167,
      "velocity": 0.63,
      "hand": "right"
    },
    {
      "midi": 62,
      "time": 90.5,
      "duration": 0.167,
      "velocity": 0.63,
      "hand": "right"
    },
    {
      "midi": 64,
      "time": 90.667,
      "duration": 0.167,
      "velocity": 0.63,
      "hand": "right"
    },
    {
      "midi": 62,
      "time": 90.833,
      "duration": 0.167,
      "velocity": 0.63,
      "hand": "right"
    },
    {
      "midi": 38,
      "time": 91,
      "duration": 0.917,
      "velocity": 0.63,
      "hand": "left"
    },
    {
      "midi": 36,
      "time": 92,
      "duration": 4,
      "velocity": 0.63,
      "hand": "left"
    },
    {
      "midi": 36,
      "time": 92,
      "duration": 0.917,
      "velocity": 0.63,
      "hand": "left"
    },
    {
      "midi": 59,
      "time": 92,
      "duration": 0.167,
      "velocity": 0.63,
      "hand": "left"
    },
    {
      "midi": 60,
      "time": 92,
      "duration": 4,
      "velocity": 0.63,
      "hand": "right"
    },
    {
      "midi": 64,
      "time": 92,
      "duration": 0.167,
      "velocity": 0.63,
      "hand": "right"
    },
    {
      "midi": 64,
      "time": 92,
      "duration": 4,
      "velocity": 0.63,
      "hand": "right"
    },
    {
      "midi": 67,
      "time": 92,
      "duration": 4,
      "velocity": 0.63,
      "hand": "right"
    },
    {
      "midi": 71,
      "time": 92,
      "duration": 4,
      "velocity": 0.63,
      "hand": "right"
    },
    {
      "midi": 64,
      "time": 92.167,
      "duration": 0.167,
      "velocity": 0.63,
      "hand": "right"
    },
    {
      "midi": 64,
      "time": 92.333,
      "duration": 0.167,
      "velocity": 0.63,
      "hand": "right"
    },
    {
      "midi": 64,
      "time": 92.5,
      "duration": 0.083,
      "velocity": 0.63,
      "hand": "right"
    },
    {
      "midi": 64,
      "time": 92.583,
      "duration": 0.083,
      "velocity": 0.63,
      "hand": "right"
    },
    {
      "midi": 62,
      "time": 92.667,
      "duration": 0.167,
      "velocity": 0.63,
      "hand": "right"
    },
    {
      "midi": 62,
      "time": 92.833,
      "duration": 0.167,
      "velocity": 0.63,
      "hand": "right"
    },
    {
      "midi": 36,
      "time": 93,
      "duration": 0.917,
      "velocity": 0.63,
      "hand": "left"
    },
    {
      "midi": 59,
      "time": 93,
      "duration": 0.167,
      "velocity": 0.63,
      "hand": "left"
    },
    {
      "midi": 64,
      "time": 93,
      "duration": 0.167,
      "velocity": 0.63,
      "hand": "right"
    },
    {
      "midi": 64,
      "time": 93.167,
      "duration": 0.167,
      "velocity": 0.63,
      "hand": "right"
    },
    {
      "midi": 64,
      "time": 93.333,
      "duration": 0.167,
      "velocity": 0.63,
      "hand": "right"
    },
    {
      "midi": 64,
      "time": 93.5,
      "duration": 0.083,
      "velocity": 0.63,
      "hand": "right"
    },
    {
      "midi": 64,
      "time": 93.583,
      "duration": 0.083,
      "velocity": 0.63,
      "hand": "right"
    },
    {
      "midi": 62,
      "time": 93.667,
      "duration": 0.167,
      "velocity": 0.63,
      "hand": "right"
    },
    {
      "midi": 62,
      "time": 93.833,
      "duration": 0.167,
      "velocity": 0.63,
      "hand": "right"
    },
    {
      "midi": 36,
      "time": 94,
      "duration": 0.917,
      "velocity": 0.63,
      "hand": "left"
    },
    {
      "midi": 59,
      "time": 94,
      "duration": 0.167,
      "velocity": 0.63,
      "hand": "left"
    },
    {
      "midi": 64,
      "time": 94,
      "duration": 0.167,
      "velocity": 0.63,
      "hand": "right"
    },
    {
      "midi": 64,
      "time": 94.167,
      "duration": 0.167,
      "velocity": 0.63,
      "hand": "right"
    },
    {
      "midi": 64,
      "time": 94.333,
      "duration": 0.333,
      "velocity": 0.63,
      "hand": "right"
    },
    {
      "midi": 62,
      "time": 94.667,
      "duration": 0.167,
      "velocity": 0.63,
      "hand": "right"
    },
    {
      "midi": 60,
      "time": 94.833,
      "duration": 0.5,
      "velocity": 0.63,
      "hand": "right"
    },
    {
      "midi": 36,
      "time": 95,
      "duration": 0.917,
      "velocity": 0.63,
      "hand": "left"
    },
    {
      "midi": 64,
      "time": 95.333,
      "duration": 0.333,
      "velocity": 0.63,
      "hand": "right"
    },
    {
      "midi": 67,
      "time": 95.667,
      "duration": 0.333,
      "velocity": 0.63,
      "hand": "right"
    },
    {
      "midi": 41,
      "time": 96,
      "duration": 4,
      "velocity": 0.63,
      "hand": "left"
    },
    {
      "midi": 41,
      "time": 96,
      "duration": 0.917,
      "velocity": 0.63,
      "hand": "left"
    },
    {
      "midi": 60,
      "time": 96,
      "duration": 4,
      "velocity": 0.63,
      "hand": "right"
    },
    {
      "midi": 64,
      "time": 96,
      "duration": 0.917,
      "velocity": 0.63,
      "hand": "right"
    },
    {
      "midi": 64,
      "time": 96,
      "duration": 4,
      "velocity": 0.63,
      "hand": "right"
    },
    {
      "midi": 65,
      "time": 96,
      "duration": 4,
      "velocity": 0.63,
      "hand": "right"
    },
    {
      "midi": 69,
      "time": 96,
      "duration": 0.917,
      "velocity": 0.63,
      "hand": "right"
    },
    {
      "midi": 69,
      "time": 96,
      "duration": 4,
      "velocity": 0.63,
      "hand": "right"
    },
    {
      "midi": 48,
      "time": 97,
      "duration": 0.917,
      "velocity": 0.63,
      "hand": "left"
    },
    {
      "midi": 69,
      "time": 97.333,
      "duration": 0.333,
      "velocity": 0.63,
      "hand": "right"
    },
    {
      "midi": 71,
      "time": 97.667,
      "duration": 0.167,
      "velocity": 0.63,
      "hand": "right"
    },
    {
      "midi": 64,
      "time": 97.833,
      "duration": 1.083,
      "velocity": 0.63,
      "hand": "right"
    },
    {
      "midi": 72,
      "time": 97.833,
      "duration": 1.083,
      "velocity": 0.63,
      "hand": "right"
    },
    {
      "midi": 41,
      "time": 98,
      "duration": 0.917,
      "velocity": 0.63,
      "hand": "left"
    },
    {
      "midi": 48,
      "time": 99,
      "duration": 0.917,
      "velocity": 0.63,
      "hand": "left"
    },
    {
      "midi": 69,
      "time": 99.333,
      "duration": 0.333,
      "velocity": 0.63,
      "hand": "right"
    },
    {
      "midi": 72,
      "time": 99.667,
      "duration": 0.333,
      "velocity": 0.63,
      "hand": "right"
    },
    {
      "midi": 40,
      "time": 100,
      "duration": 2,
      "velocity": 0.63,
      "hand": "left"
    },
    {
      "midi": 40,
      "time": 100,
      "duration": 0.917,
      "velocity": 0.63,
      "hand": "left"
    },
    {
      "midi": 64,
      "time": 100,
      "duration": 2,
      "velocity": 0.63,
      "hand": "right"
    },
    {
      "midi": 67,
      "time": 100,
      "duration": 0.333,
      "velocity": 0.63,
      "hand": "right"
    },
    {
      "midi": 67,
      "time": 100,
      "duration": 2,
      "velocity": 0.63,
      "hand": "right"
    },
    {
      "midi": 71,
      "time": 100,
      "duration": 0.333,
      "velocity": 0.63,
      "hand": "right"
    },
    {
      "midi": 71,
      "time": 100,
      "duration": 2,
      "velocity": 0.63,
      "hand": "right"
    },
    {
      "midi": 69,
      "time": 100.333,
      "duration": 0.333,
      "velocity": 0.63,
      "hand": "right"
    },
    {
      "midi": 67,
      "time": 100.667,
      "duration": 0.333,
      "velocity": 0.63,
      "hand": "right"
    },
    {
      "midi": 47,
      "time": 101,
      "duration": 0.917,
      "velocity": 0.63,
      "hand": "left"
    },
    {
      "midi": 67,
      "time": 101,
      "duration": 0.667,
      "velocity": 0.63,
      "hand": "right"
    },
    {
      "midi": 64,
      "time": 101.667,
      "duration": 0.333,
      "velocity": 0.63,
      "hand": "right"
    },
    {
      "midi": 40,
      "time": 102,
      "duration": 1,
      "velocity": 0.63,
      "hand": "left"
    },
    {
      "midi": 40,
      "time": 102,
      "duration": 0.917,
      "velocity": 0.63,
      "hand": "left"
    },
    {
      "midi": 60,
      "time": 102,
      "duration": 1,
      "velocity": 0.63,
      "hand": "right"
    },
    {
      "midi": 64,
      "time": 102,
      "duration": 1,
      "velocity": 0.63,
      "hand": "right"
    },
    {
      "midi": 67,
      "time": 102,
      "duration": 0.333,
      "velocity": 0.63,
      "hand": "right"
    },
    {
      "midi": 67,
      "time": 102,
      "duration": 1,
      "velocity": 0.63,
      "hand": "right"
    },
    {
      "midi": 71,
      "time": 102,
      "duration": 0.333,
      "velocity": 0.63,
      "hand": "right"
    },
    {
      "midi": 69,
      "time": 102.333,
      "duration": 0.333,
      "velocity": 0.63,
      "hand": "right"
    },
    {
      "midi": 67,
      "time": 102.667,
      "duration": 0.333,
      "velocity": 0.63,
      "hand": "right"
    },
    {
      "midi": 39,
      "time": 103,
      "duration": 1,
      "velocity": 0.63,
      "hand": "left"
    },
    {
      "midi": 39,
      "time": 103,
      "duration": 0.917,
      "velocity": 0.63,
      "hand": "left"
    },
    {
      "midi": 60,
      "time": 103,
      "duration": 1,
      "velocity": 0.63,
      "hand": "right"
    },
    {
      "midi": 64,
      "time": 103,
      "duration": 1,
      "velocity": 0.63,
      "hand": "right"
    },
    {
      "midi": 67,
      "time": 103,
      "duration": 0.333,
      "velocity": 0.63,
      "hand": "right"
    },
    {
      "midi": 67,
      "time": 103,
      "duration": 1,
      "velocity": 0.63,
      "hand": "right"
    },
    {
      "midi": 71,
      "time": 103,
      "duration": 0.333,
      "velocity": 0.63,
      "hand": "right"
    },
    {
      "midi": 69,
      "time": 103.333,
      "duration": 0.333,
      "velocity": 0.63,
      "hand": "right"
    },
    {
      "midi": 67,
      "time": 103.667,
      "duration": 0.333,
      "velocity": 0.63,
      "hand": "right"
    },
    {
      "midi": 38,
      "time": 104,
      "duration": 4,
      "velocity": 0.63,
      "hand": "left"
    },
    {
      "midi": 38,
      "time": 104,
      "duration": 0.917,
      "velocity": 0.63,
      "hand": "left"
    },
    {
      "midi": 60,
      "time": 104,
      "duration": 4,
      "velocity": 0.63,
      "hand": "right"
    },
    {
      "midi": 62,
      "time": 104,
      "duration": 4,
      "velocity": 0.63,
      "hand": "right"
    },
    {
      "midi": 65,
      "time": 104,
      "duration": 4,
      "velocity": 0.63,
      "hand": "right"
    },
    {
      "midi": 67,
      "time": 104,
      "duration": 0.167,
      "velocity": 0.63,
      "hand": "right"
    },
    {
      "midi": 69,
      "time": 104,
      "duration": 4,
      "velocity": 0.63,
      "hand": "right"
    },
    {
      "midi": 60,
      "time": 104.167,
      "duration": 1.75,
      "velocity": 0.63,
      "hand": "right"
    },
    {
      "midi": 65,
      "time": 104.167,
      "duration": 1.75,
      "velocity": 0.63,
      "hand": "right"
    },
    {
      "midi": 45,
      "time": 105,
      "duration": 0.917,
      "velocity": 0.63,
      "hand": "left"
    },
    {
      "midi": 38,
      "time": 106,
      "duration": 0.917,
      "velocity": 0.63,
      "hand": "left"
    },
    {
      "midi": 60,
      "time": 106.667,
      "duration": 0.333,
      "velocity": 0.63,
      "hand": "right"
    },
    {
      "midi": 45,
      "time": 107,
      "duration": 0.917,
      "velocity": 0.63,
      "hand": "left"
    },
    {
      "midi": 67,
      "time": 107,
      "duration": 0.333,
      "velocity": 0.63,
      "hand": "right"
    },
    {
      "midi": 65,
      "time": 107.333,
      "duration": 0.333,
      "velocity": 0.63,
      "hand": "right"
    },
    {
      "midi": 64,
      "time": 107.667,
      "duration": 0.167,
      "velocity": 0.63,
      "hand": "right"
    },
    {
      "midi": 59,
      "time": 107.833,
      "duration": 1.083,
      "velocity": 0.63,
      "hand": "left"
    },
    {
      "midi": 64,
      "time": 107.833,
      "duration": 1.083,
      "velocity": 0.63,
      "hand": "right"
    },
    {
      "midi": 36,
      "time": 108,
      "duration": 4,
      "velocity": 0.63,
      "hand": "left"
    },
    {
      "midi": 36,
      "time": 108,
      "duration": 0.917,
      "velocity": 0.63,
      "hand": "left"
    },
    {
      "midi": 60,
      "time": 108,
      "duration": 4,
      "velocity": 0.63,
      "hand": "right"
    },
    {
      "midi": 64,
      "time": 108,
      "duration": 4,
      "velocity": 0.63,
      "hand": "right"
    },
    {
      "midi": 67,
      "time": 108,
      "duration": 4,
      "velocity": 0.63,
      "hand": "right"
    },
    {
      "midi": 71,
      "time": 108,
      "duration": 4,
      "velocity": 0.63,
      "hand": "right"
    },
    {
      "midi": 43,
      "time": 109,
      "duration": 0.917,
      "velocity": 0.63,
      "hand": "left"
    },
    {
      "midi": 36,
      "time": 110,
      "duration": 0.917,
      "velocity": 0.63,
      "hand": "left"
    },
    {
      "midi": 59,
      "time": 110,
      "duration": 0.167,
      "velocity": 0.63,
      "hand": "left"
    },
    {
      "midi": 64,
      "time": 110,
      "duration": 0.167,
      "velocity": 0.63,
      "hand": "right"
    },
    {
      "midi": 64,
      "time": 110.167,
      "duration": 0.167,
      "velocity": 0.63,
      "hand": "right"
    },
    {
      "midi": 64,
      "time": 110.333,
      "duration": 0.333,
      "velocity": 0.63,
      "hand": "right"
    },
    {
      "midi": 62,
      "time": 110.667,
      "duration": 0.167,
      "velocity": 0.63,
      "hand": "right"
    },
    {
      "midi": 60,
      "time": 110.833,
      "duration": 0.5,
      "velocity": 0.63,
      "hand": "right"
    },
    {
      "midi": 43,
      "time": 111,
      "duration": 0.917,
      "velocity": 0.63,
      "hand": "left"
    },
    {
      "midi": 64,
      "time": 111.333,
      "duration": 0.333,
      "velocity": 0.63,
      "hand": "right"
    },
    {
      "midi": 67,
      "time": 111.667,
      "duration": 0.333,
      "velocity": 0.63,
      "hand": "right"
    },
    {
      "midi": 41,
      "time": 112,
      "duration": 4,
      "velocity": 0.63,
      "hand": "left"
    },
    {
      "midi": 41,
      "time": 112,
      "duration": 0.917,
      "velocity": 0.63,
      "hand": "left"
    },
    {
      "midi": 60,
      "time": 112,
      "duration": 4,
      "velocity": 0.63,
      "hand": "right"
    },
    {
      "midi": 64,
      "time": 112,
      "duration": 0.917,
      "velocity": 0.63,
      "hand": "right"
    },
    {
      "midi": 64,
      "time": 112,
      "duration": 4,
      "velocity": 0.63,
      "hand": "right"
    },
    {
      "midi": 65,
      "time": 112,
      "duration": 4,
      "velocity": 0.63,
      "hand": "right"
    },
    {
      "midi": 69,
      "time": 112,
      "duration": 0.917,
      "velocity": 0.63,
      "hand": "right"
    },
    {
      "midi": 69,
      "time": 112,
      "duration": 4,
      "velocity": 0.63,
      "hand": "right"
    },
    {
      "midi": 48,
      "time": 113,
      "duration": 0.917,
      "velocity": 0.63,
      "hand": "left"
    },
    {
      "midi": 69,
      "time": 113.333,
      "duration": 0.333,
      "velocity": 0.63,
      "hand": "right"
    },
    {
      "midi": 71,
      "time": 113.667,
      "duration": 0.167,
      "velocity": 0.63,
      "hand": "right"
    },
    {
      "midi": 64,
      "time": 113.833,
      "duration": 1.083,
      "velocity": 0.63,
      "hand": "right"
    },
    {
      "midi": 72,
      "time": 113.833,
      "duration": 1.083,
      "velocity": 0.63,
      "hand": "right"
    },
    {
      "midi": 41,
      "time": 114,
      "duration": 0.917,
      "velocity": 0.63,
      "hand": "left"
    },
    {
      "midi": 48,
      "time": 115,
      "duration": 0.917,
      "velocity": 0.63,
      "hand": "left"
    },
    {
      "midi": 69,
      "time": 115.333,
      "duration": 0.333,
      "velocity": 0.63,
      "hand": "right"
    },
    {
      "midi": 72,
      "time": 115.667,
      "duration": 0.333,
      "velocity": 0.63,
      "hand": "right"
    },
    {
      "midi": 40,
      "time": 116,
      "duration": 2,
      "velocity": 0.63,
      "hand": "left"
    },
    {
      "midi": 40,
      "time": 116,
      "duration": 0.917,
      "velocity": 0.63,
      "hand": "left"
    },
    {
      "midi": 64,
      "time": 116,
      "duration": 2,
      "velocity": 0.63,
      "hand": "right"
    },
    {
      "midi": 67,
      "time": 116,
      "duration": 0.333,
      "velocity": 0.63,
      "hand": "right"
    },
    {
      "midi": 67,
      "time": 116,
      "duration": 2,
      "velocity": 0.63,
      "hand": "right"
    },
    {
      "midi": 71,
      "time": 116,
      "duration": 0.333,
      "velocity": 0.63,
      "hand": "right"
    },
    {
      "midi": 71,
      "time": 116,
      "duration": 2,
      "velocity": 0.63,
      "hand": "right"
    },
    {
      "midi": 69,
      "time": 116.333,
      "duration": 0.333,
      "velocity": 0.63,
      "hand": "right"
    },
    {
      "midi": 67,
      "time": 116.667,
      "duration": 0.333,
      "velocity": 0.63,
      "hand": "right"
    },
    {
      "midi": 47,
      "time": 117,
      "duration": 0.917,
      "velocity": 0.63,
      "hand": "left"
    },
    {
      "midi": 67,
      "time": 117,
      "duration": 0.667,
      "velocity": 0.63,
      "hand": "right"
    },
    {
      "midi": 64,
      "time": 117.667,
      "duration": 0.333,
      "velocity": 0.63,
      "hand": "right"
    },
    {
      "midi": 40,
      "time": 118,
      "duration": 1,
      "velocity": 0.63,
      "hand": "left"
    },
    {
      "midi": 40,
      "time": 118,
      "duration": 0.917,
      "velocity": 0.63,
      "hand": "left"
    },
    {
      "midi": 60,
      "time": 118,
      "duration": 1,
      "velocity": 0.63,
      "hand": "right"
    },
    {
      "midi": 64,
      "time": 118,
      "duration": 1,
      "velocity": 0.63,
      "hand": "right"
    },
    {
      "midi": 67,
      "time": 118,
      "duration": 0.333,
      "velocity": 0.63,
      "hand": "right"
    },
    {
      "midi": 67,
      "time": 118,
      "duration": 1,
      "velocity": 0.63,
      "hand": "right"
    },
    {
      "midi": 71,
      "time": 118,
      "duration": 0.333,
      "velocity": 0.63,
      "hand": "right"
    },
    {
      "midi": 69,
      "time": 118.333,
      "duration": 0.333,
      "velocity": 0.63,
      "hand": "right"
    },
    {
      "midi": 67,
      "time": 118.667,
      "duration": 0.333,
      "velocity": 0.63,
      "hand": "right"
    },
    {
      "midi": 39,
      "time": 119,
      "duration": 1,
      "velocity": 0.63,
      "hand": "left"
    },
    {
      "midi": 39,
      "time": 119,
      "duration": 0.917,
      "velocity": 0.63,
      "hand": "left"
    },
    {
      "midi": 60,
      "time": 119,
      "duration": 1,
      "velocity": 0.63,
      "hand": "right"
    },
    {
      "midi": 64,
      "time": 119,
      "duration": 1,
      "velocity": 0.63,
      "hand": "right"
    },
    {
      "midi": 67,
      "time": 119,
      "duration": 0.333,
      "velocity": 0.63,
      "hand": "right"
    },
    {
      "midi": 67,
      "time": 119,
      "duration": 1,
      "velocity": 0.63,
      "hand": "right"
    },
    {
      "midi": 71,
      "time": 119,
      "duration": 0.333,
      "velocity": 0.63,
      "hand": "right"
    },
    {
      "midi": 69,
      "time": 119.333,
      "duration": 0.333,
      "velocity": 0.63,
      "hand": "right"
    },
    {
      "midi": 67,
      "time": 119.667,
      "duration": 0.333,
      "velocity": 0.63,
      "hand": "right"
    },
    {
      "midi": 38,
      "time": 120,
      "duration": 4,
      "velocity": 0.63,
      "hand": "left"
    },
    {
      "midi": 38,
      "time": 120,
      "duration": 0.917,
      "velocity": 0.63,
      "hand": "left"
    },
    {
      "midi": 60,
      "time": 120,
      "duration": 4,
      "velocity": 0.63,
      "hand": "right"
    },
    {
      "midi": 62,
      "time": 120,
      "duration": 4,
      "velocity": 0.63,
      "hand": "right"
    },
    {
      "midi": 65,
      "time": 120,
      "duration": 4,
      "velocity": 0.63,
      "hand": "right"
    },
    {
      "midi": 67,
      "time": 120,
      "duration": 0.167,
      "velocity": 0.63,
      "hand": "right"
    },
    {
      "midi": 69,
      "time": 120,
      "duration": 4,
      "velocity": 0.63,
      "hand": "right"
    },
    {
      "midi": 60,
      "time": 120.167,
      "duration": 1.75,
      "velocity": 0.63,
      "hand": "right"
    },
    {
      "midi": 65,
      "time": 120.167,
      "duration": 1.75,
      "velocity": 0.63,
      "hand": "right"
    },
    {
      "midi": 45,
      "time": 121,
      "duration": 0.917,
      "velocity": 0.63,
      "hand": "left"
    },
    {
      "midi": 38,
      "time": 122,
      "duration": 0.917,
      "velocity": 0.63,
      "hand": "left"
    },
    {
      "midi": 60,
      "time": 122.667,
      "duration": 0.333,
      "velocity": 0.63,
      "hand": "right"
    },
    {
      "midi": 45,
      "time": 123,
      "duration": 0.917,
      "velocity": 0.63,
      "hand": "left"
    },
    {
      "midi": 67,
      "time": 123,
      "duration": 0.333,
      "velocity": 0.63,
      "hand": "right"
    },
    {
      "midi": 65,
      "time": 123.333,
      "duration": 0.333,
      "velocity": 0.63,
      "hand": "right"
    },
    {
      "midi": 64,
      "time": 123.667,
      "duration": 0.333,
      "velocity": 0.63,
      "hand": "right"
    },
    {
      "midi": 40,
      "time": 124,
      "duration": 4,
      "velocity": 0.63,
      "hand": "left"
    },
    {
      "midi": 40,
      "time": 124,
      "duration": 0.333,
      "velocity": 0.63,
      "hand": "left"
    },
    {
      "midi": 56,
      "time": 124,
      "duration": 0.917,
      "velocity": 0.63,
      "hand": "left"
    },
    {
      "midi": 64,
      "time": 124,
      "duration": 0.917,
      "velocity": 0.63,
      "hand": "right"
    },
    {
      "midi": 64,
      "time": 124,
      "duration": 4,
      "velocity": 0.63,
      "hand": "right"
    },
    {
      "midi": 68,
      "time": 124,
      "duration": 4,
      "velocity": 0.63,
      "hand": "right"
    },
    {
      "midi": 71,
      "time": 124,
      "duration": 4,
      "velocity": 0.63,
      "hand": "right"
    },
    {
      "midi": 40,
      "time": 124.333,
      "duration": 0.333,
      "velocity": 0.63,
      "hand": "left"
    },
    {
      "midi": 40,
      "time": 124.667,
      "duration": 0.333,
      "velocity": 0.63,
      "hand": "left"
    },
    {
      "midi": 40,
      "time": 125,
      "duration": 0.333,
      "velocity": 0.63,
      "hand": "left"
    },
    {
      "midi": 69,
      "time": 125,
      "duration": 0.917,
      "velocity": 0.63,
      "hand": "right"
    },
    {
      "midi": 40,
      "time": 125.333,
      "duration": 0.333,
      "velocity": 0.63,
      "hand": "left"
    },
    {
      "midi": 40,
      "time": 125.667,
      "duration": 0.333,
      "velocity": 0.63,
      "hand": "left"
    },
    {
      "midi": 40,
      "time": 126,
      "duration": 0.333,
      "velocity": 0.63,
      "hand": "left"
    },
    {
      "midi": 72,
      "time": 126,
      "duration": 0.917,
      "velocity": 0.63,
      "hand": "right"
    },
    {
      "midi": 40,
      "time": 126.333,
      "duration": 0.333,
      "velocity": 0.63,
      "hand": "left"
    },
    {
      "midi": 40,
      "time": 126.667,
      "duration": 0.333,
      "velocity": 0.63,
      "hand": "left"
    },
    {
      "midi": 74,
      "time": 127,
      "duration": 0.333,
      "velocity": 0.63,
      "hand": "right"
    },
    {
      "midi": 41,
      "time": 128,
      "duration": 6,
      "velocity": 0.63,
      "hand": "left"
    },
    {
      "midi": 41,
      "time": 128,
      "duration": 0.917,
      "velocity": 0.63,
      "hand": "left"
    },
    {
      "midi": 60,
      "time": 128,
      "duration": 6,
      "velocity": 0.63,
      "hand": "right"
    },
    {
      "midi": 64,
      "time": 128,
      "duration": 6,
      "velocity": 0.63,
      "hand": "right"
    },
    {
      "midi": 65,
      "time": 128,
      "duration": 6,
      "velocity": 0.63,
      "hand": "right"
    },
    {
      "midi": 69,
      "time": 128,
      "duration": 3.833,
      "velocity": 0.63,
      "hand": "right"
    },
    {
      "midi": 69,
      "time": 128,
      "duration": 6,
      "velocity": 0.63,
      "hand": "right"
    },
    {
      "midi": 76,
      "time": 128,
      "duration": 3.833,
      "velocity": 0.63,
      "hand": "right"
    },
    {
      "midi": 48,
      "time": 129,
      "duration": 0.917,
      "velocity": 0.63,
      "hand": "left"
    },
    {
      "midi": 52,
      "time": 130,
      "duration": 0.917,
      "velocity": 0.63,
      "hand": "left"
    },
    {
      "midi": 53,
      "time": 130,
      "duration": 0.917,
      "velocity": 0.63,
      "hand": "left"
    },
    {
      "midi": 57,
      "time": 130,
      "duration": 0.917,
      "velocity": 0.63,
      "hand": "left"
    },
    {
      "midi": 60,
      "time": 131,
      "duration": 0.917,
      "velocity": 0.63,
      "hand": "right"
    },
    {
      "midi": 41,
      "time": 132,
      "duration": 0.917,
      "velocity": 0.63,
      "hand": "left"
    },
    {
      "midi": 69,
      "time": 132,
      "duration": 0.917,
      "velocity": 0.63,
      "hand": "right"
    },
    {
      "midi": 48,
      "time": 133,
      "duration": 0.917,
      "velocity": 0.63,
      "hand": "left"
    },
    {
      "midi": 71,
      "time": 133,
      "duration": 0.917,
      "velocity": 0.63,
      "hand": "right"
    },
    {
      "midi": 41,
      "time": 134,
      "duration": 2,
      "velocity": 0.63,
      "hand": "left"
    },
    {
      "midi": 53,
      "time": 134,
      "duration": 0.917,
      "velocity": 0.63,
      "hand": "left"
    },
    {
      "midi": 56,
      "time": 134,
      "duration": 0.917,
      "velocity": 0.63,
      "hand": "left"
    },
    {
      "midi": 60,
      "time": 134,
      "duration": 2,
      "velocity": 0.63,
      "hand": "right"
    },
    {
      "midi": 60,
      "time": 134,
      "duration": 0.917,
      "velocity": 0.63,
      "hand": "right"
    },
    {
      "midi": 65,
      "time": 134,
      "duration": 2,
      "velocity": 0.63,
      "hand": "right"
    },
    {
      "midi": 68,
      "time": 134,
      "duration": 2,
      "velocity": 0.63,
      "hand": "right"
    },
    {
      "midi": 79,
      "time": 134,
      "duration": 0.917,
      "velocity": 0.63,
      "hand": "right"
    },
    {
      "midi": 62,
      "time": 135,
      "duration": 0.917,
      "velocity": 0.63,
      "hand": "right"
    },
    {
      "midi": 77,
      "time": 135,
      "duration": 0.917,
      "velocity": 0.63,
      "hand": "right"
    },
    {
      "midi": 36,
      "time": 136,
      "duration": 6,
      "velocity": 0.63,
      "hand": "left"
    },
    {
      "midi": 36,
      "time": 136,
      "duration": 0.917,
      "velocity": 0.63,
      "hand": "left"
    },
    {
      "midi": 60,
      "time": 136,
      "duration": 6,
      "velocity": 0.63,
      "hand": "right"
    },
    {
      "midi": 64,
      "time": 136,
      "duration": 6,
      "velocity": 0.63,
      "hand": "right"
    },
    {
      "midi": 67,
      "time": 136,
      "duration": 6,
      "velocity": 0.63,
      "hand": "right"
    },
    {
      "midi": 71,
      "time": 136,
      "duration": 2.333,
      "velocity": 0.63,
      "hand": "right"
    },
    {
      "midi": 71,
      "time": 136,
      "duration": 6,
      "velocity": 0.63,
      "hand": "right"
    },
    {
      "midi": 76,
      "time": 136,
      "duration": 2.333,
      "velocity": 0.63,
      "hand": "right"
    },
    {
      "midi": 43,
      "time": 137,
      "duration": 0.917,
      "velocity": 0.63,
      "hand": "left"
    },
    {
      "midi": 48,
      "time": 138,
      "duration": 0.917,
      "velocity": 0.63,
      "hand": "left"
    },
    {
      "midi": 52,
      "time": 138,
      "duration": 0.917,
      "velocity": 0.63,
      "hand": "left"
    },
    {
      "midi": 55,
      "time": 138,
      "duration": 0.917,
      "velocity": 0.63,
      "hand": "left"
    },
    {
      "midi": 74,
      "time": 138.333,
      "duration": 0.667,
      "velocity": 0.63,
      "hand": "right"
    },
    {
      "midi": 59,
      "time": 139,
      "duration": 0.917,
      "velocity": 0.63,
      "hand": "left"
    },
    {
      "midi": 69,
      "time": 139.333,
      "duration": 0.333,
      "velocity": 0.63,
      "hand": "right"
    },
    {
      "midi": 72,
      "time": 139.667,
      "duration": 0.333,
      "velocity": 0.63,
      "hand": "right"
    },
    {
      "midi": 36,
      "time": 140,
      "duration": 0.917,
      "velocity": 0.63,
      "hand": "left"
    },
    {
      "midi": 64,
      "time": 140,
      "duration": 0.917,
      "velocity": 0.63,
      "hand": "right"
    },
    {
      "midi": 71,
      "time": 140,
      "duration": 0.917,
      "velocity": 0.63,
      "hand": "right"
    },
    {
      "midi": 43,
      "time": 141,
      "duration": 0.917,
      "velocity": 0.63,
      "hand": "left"
    },
    {
      "midi": 71,
      "time": 141,
      "duration": 0.917,
      "velocity": 0.63,
      "hand": "right"
    },
    {
      "midi": 38,
      "time": 142,
      "duration": 1,
      "velocity": 0.63,
      "hand": "left"
    },
    {
      "midi": 38,
      "time": 142,
      "duration": 0.917,
      "velocity": 0.63,
      "hand": "left"
    },
    {
      "midi": 60,
      "time": 142,
      "duration": 1,
      "velocity": 0.63,
      "hand": "right"
    },
    {
      "midi": 64,
      "time": 142,
      "duration": 1,
      "velocity": 0.63,
      "hand": "right"
    },
    {
      "midi": 69,
      "time": 142,
      "duration": 0.917,
      "velocity": 0.63,
      "hand": "right"
    },
    {
      "midi": 69,
      "time": 142,
      "duration": 1,
      "velocity": 0.63,
      "hand": "right"
    },
    {
      "midi": 72,
      "time": 142,
      "duration": 0.917,
      "velocity": 0.63,
      "hand": "right"
    },
    {
      "midi": 40,
      "time": 143,
      "duration": 1,
      "velocity": 0.63,
      "hand": "left"
    },
    {
      "midi": 40,
      "time": 143,
      "duration": 0.917,
      "velocity": 0.63,
      "hand": "left"
    },
    {
      "midi": 62,
      "time": 143,
      "duration": 1,
      "velocity": 0.63,
      "hand": "right"
    },
    {
      "midi": 64,
      "time": 143,
      "duration": 1,
      "velocity": 0.63,
      "hand": "right"
    },
    {
      "midi": 68,
      "time": 143,
      "duration": 0.917,
      "velocity": 0.63,
      "hand": "right"
    },
    {
      "midi": 68,
      "time": 143,
      "duration": 1,
      "velocity": 0.63,
      "hand": "right"
    },
    {
      "midi": 71,
      "time": 143,
      "duration": 1,
      "velocity": 0.63,
      "hand": "right"
    },
    {
      "midi": 74,
      "time": 143,
      "duration": 0.917,
      "velocity": 0.63,
      "hand": "right"
    },
    {
      "midi": 41,
      "time": 144,
      "duration": 6,
      "velocity": 0.63,
      "hand": "left"
    },
    {
      "midi": 41,
      "time": 144,
      "duration": 0.917,
      "velocity": 0.63,
      "hand": "left"
    },
    {
      "midi": 60,
      "time": 144,
      "duration": 6,
      "velocity": 0.63,
      "hand": "right"
    },
    {
      "midi": 64,
      "time": 144,
      "duration": 6,
      "velocity": 0.63,
      "hand": "right"
    },
    {
      "midi": 65,
      "time": 144,
      "duration": 6,
      "velocity": 0.63,
      "hand": "right"
    },
    {
      "midi": 69,
      "time": 144,
      "duration": 3.833,
      "velocity": 0.63,
      "hand": "right"
    },
    {
      "midi": 69,
      "time": 144,
      "duration": 6,
      "velocity": 0.63,
      "hand": "right"
    },
    {
      "midi": 76,
      "time": 144,
      "duration": 3.833,
      "velocity": 0.63,
      "hand": "right"
    },
    {
      "midi": 48,
      "time": 145,
      "duration": 0.917,
      "velocity": 0.63,
      "hand": "left"
    },
    {
      "midi": 52,
      "time": 146,
      "duration": 0.917,
      "velocity": 0.63,
      "hand": "left"
    },
    {
      "midi": 53,
      "time": 146,
      "duration": 0.917,
      "velocity": 0.63,
      "hand": "left"
    },
    {
      "midi": 57,
      "time": 146,
      "duration": 0.917,
      "velocity": 0.63,
      "hand": "left"
    },
    {
      "midi": 60,
      "time": 147,
      "duration": 0.917,
      "velocity": 0.63,
      "hand": "right"
    },
    {
      "midi": 41,
      "time": 148,
      "duration": 0.917,
      "velocity": 0.63,
      "hand": "left"
    },
    {
      "midi": 69,
      "time": 148,
      "duration": 0.917,
      "velocity": 0.63,
      "hand": "right"
    },
    {
      "midi": 48,
      "time": 149,
      "duration": 0.917,
      "velocity": 0.63,
      "hand": "left"
    },
    {
      "midi": 71,
      "time": 149,
      "duration": 0.917,
      "velocity": 0.63,
      "hand": "right"
    },
    {
      "midi": 41,
      "time": 150,
      "duration": 2,
      "velocity": 0.63,
      "hand": "left"
    },
    {
      "midi": 53,
      "time": 150,
      "duration": 0.917,
      "velocity": 0.63,
      "hand": "left"
    },
    {
      "midi": 56,
      "time": 150,
      "duration": 0.917,
      "velocity": 0.63,
      "hand": "left"
    },
    {
      "midi": 60,
      "time": 150,
      "duration": 2,
      "velocity": 0.63,
      "hand": "right"
    },
    {
      "midi": 60,
      "time": 150,
      "duration": 0.917,
      "velocity": 0.63,
      "hand": "right"
    },
    {
      "midi": 65,
      "time": 150,
      "duration": 2,
      "velocity": 0.63,
      "hand": "right"
    },
    {
      "midi": 68,
      "time": 150,
      "duration": 2,
      "velocity": 0.63,
      "hand": "right"
    },
    {
      "midi": 79,
      "time": 150,
      "duration": 0.917,
      "velocity": 0.63,
      "hand": "right"
    },
    {
      "midi": 62,
      "time": 151,
      "duration": 0.917,
      "velocity": 0.63,
      "hand": "right"
    },
    {
      "midi": 77,
      "time": 151,
      "duration": 0.917,
      "velocity": 0.63,
      "hand": "right"
    },
    {
      "midi": 36,
      "time": 152,
      "duration": 6,
      "velocity": 0.63,
      "hand": "left"
    },
    {
      "midi": 36,
      "time": 152,
      "duration": 0.917,
      "velocity": 0.63,
      "hand": "left"
    },
    {
      "midi": 60,
      "time": 152,
      "duration": 6,
      "velocity": 0.63,
      "hand": "right"
    },
    {
      "midi": 64,
      "time": 152,
      "duration": 6,
      "velocity": 0.63,
      "hand": "right"
    },
    {
      "midi": 67,
      "time": 152,
      "duration": 6,
      "velocity": 0.63,
      "hand": "right"
    },
    {
      "midi": 71,
      "time": 152,
      "duration": 2.833,
      "velocity": 0.63,
      "hand": "right"
    },
    {
      "midi": 71,
      "time": 152,
      "duration": 6,
      "velocity": 0.63,
      "hand": "right"
    },
    {
      "midi": 76,
      "time": 152,
      "duration": 2.833,
      "velocity": 0.63,
      "hand": "right"
    },
    {
      "midi": 43,
      "time": 153,
      "duration": 0.917,
      "velocity": 0.63,
      "hand": "left"
    },
    {
      "midi": 48,
      "time": 154,
      "duration": 0.917,
      "velocity": 0.63,
      "hand": "left"
    },
    {
      "midi": 52,
      "time": 154,
      "duration": 0.917,
      "velocity": 0.63,
      "hand": "left"
    },
    {
      "midi": 55,
      "time": 154,
      "duration": 0.917,
      "velocity": 0.63,
      "hand": "left"
    },
    {
      "midi": 59,
      "time": 155,
      "duration": 0.917,
      "velocity": 0.63,
      "hand": "left"
    },
    {
      "midi": 69,
      "time": 155.333,
      "duration": 0.333,
      "velocity": 0.63,
      "hand": "right"
    },
    {
      "midi": 72,
      "time": 155.667,
      "duration": 0.333,
      "velocity": 0.63,
      "hand": "right"
    },
    {
      "midi": 36,
      "time": 156,
      "duration": 0.917,
      "velocity": 0.63,
      "hand": "left"
    },
    {
      "midi": 64,
      "time": 156,
      "duration": 2,
      "velocity": 0.63,
      "hand": "right"
    },
    {
      "midi": 71,
      "time": 156,
      "duration": 2,
      "velocity": 0.63,
      "hand": "right"
    },
    {
      "midi": 43,
      "time": 157,
      "duration": 0.917,
      "velocity": 0.63,
      "hand": "left"
    },
    {
      "midi": 38,
      "time": 158,
      "duration": 1,
      "velocity": 0.63,
      "hand": "left"
    },
    {
      "midi": 38,
      "time": 158,
      "duration": 0.917,
      "velocity": 0.63,
      "hand": "left"
    },
    {
      "midi": 60,
      "time": 158,
      "duration": 1,
      "velocity": 0.63,
      "hand": "right"
    },
    {
      "midi": 64,
      "time": 158,
      "duration": 0.917,
      "velocity": 0.63,
      "hand": "right"
    },
    {
      "midi": 64,
      "time": 158,
      "duration": 1,
      "velocity": 0.63,
      "hand": "right"
    },
    {
      "midi": 67,
      "time": 158,
      "duration": 1,
      "velocity": 0.63,
      "hand": "right"
    },
    {
      "midi": 70,
      "time": 158,
      "duration": 0.917,
      "velocity": 0.63,
      "hand": "right"
    },
    {
      "midi": 70,
      "time": 158,
      "duration": 1,
      "velocity": 0.63,
      "hand": "right"
    },
    {
      "midi": 40,
      "time": 159,
      "duration": 1,
      "velocity": 0.63,
      "hand": "left"
    },
    {
      "midi": 40,
      "time": 159,
      "duration": 0.917,
      "velocity": 0.63,
      "hand": "left"
    },
    {
      "midi": 60,
      "time": 159,
      "duration": 1,
      "velocity": 0.63,
      "hand": "right"
    },
    {
      "midi": 64,
      "time": 159,
      "duration": 1,
      "velocity": 0.63,
      "hand": "right"
    },
    {
      "midi": 67,
      "time": 159,
      "duration": 1,
      "velocity": 0.63,
      "hand": "right"
    },
    {
      "midi": 70,
      "time": 159,
      "duration": 0.917,
      "velocity": 0.63,
      "hand": "right"
    },
    {
      "midi": 70,
      "time": 159,
      "duration": 1,
      "velocity": 0.63,
      "hand": "right"
    },
    {
      "midi": 41,
      "time": 160,
      "duration": 5,
      "velocity": 0.63,
      "hand": "left"
    },
    {
      "midi": 41,
      "time": 160,
      "duration": 0.667,
      "velocity": 0.63,
      "hand": "left"
    },
    {
      "midi": 60,
      "time": 160,
      "duration": 5,
      "velocity": 0.63,
      "hand": "right"
    },
    {
      "midi": 64,
      "time": 160,
      "duration": 5,
      "velocity": 0.63,
      "hand": "right"
    },
    {
      "midi": 65,
      "time": 160,
      "duration": 5,
      "velocity": 0.63,
      "hand": "right"
    },
    {
      "midi": 69,
      "time": 160,
      "duration": 3.833,
      "velocity": 0.63,
      "hand": "right"
    },
    {
      "midi": 69,
      "time": 160,
      "duration": 5,
      "velocity": 0.63,
      "hand": "right"
    },
    {
      "midi": 76,
      "time": 160,
      "duration": 3.833,
      "velocity": 0.63,
      "hand": "right"
    },
    {
      "midi": 55,
      "time": 160.667,
      "duration": 0.333,
      "velocity": 0.63,
      "hand": "left"
    },
    {
      "midi": 53,
      "time": 161,
      "duration": 0.667,
      "velocity": 0.63,
      "hand": "left"
    },
    {
      "midi": 55,
      "time": 161.667,
      "duration": 0.333,
      "velocity": 0.63,
      "hand": "left"
    },
    {
      "midi": 53,
      "time": 162,
      "duration": 0.667,
      "velocity": 0.63,
      "hand": "left"
    },
    {
      "midi": 55,
      "time": 162.667,
      "duration": 0.333,
      "velocity": 0.63,
      "hand": "left"
    },
    {
      "midi": 53,
      "time": 163,
      "duration": 0.667,
      "velocity": 0.63,
      "hand": "left"
    },
    {
      "midi": 55,
      "time": 163.667,
      "duration": 0.333,
      "velocity": 0.63,
      "hand": "left"
    },
    {
      "midi": 53,
      "time": 164,
      "duration": 0.917,
      "velocity": 0.63,
      "hand": "left"
    },
    {
      "midi": 69,
      "time": 164,
      "duration": 0.917,
      "velocity": 0.63,
      "hand": "right"
    },
    {
      "midi": 36,
      "time": 165,
      "duration": 1,
      "velocity": 0.63,
      "hand": "left"
    },
    {
      "midi": 48,
      "time": 165,
      "duration": 0.917,
      "velocity": 0.63,
      "hand": "left"
    },
    {
      "midi": 55,
      "time": 165,
      "duration": 0.917,
      "velocity": 0.63,
      "hand": "left"
    },
    {
      "midi": 60,
      "time": 165,
      "duration": 1,
      "velocity": 0.63,
      "hand": "right"
    },
    {
      "midi": 64,
      "time": 165,
      "duration": 1,
      "velocity": 0.63,
      "hand": "right"
    },
    {
      "midi": 67,
      "time": 165,
      "duration": 1,
      "velocity": 0.63,
      "hand": "right"
    },
    {
      "midi": 71,
      "time": 165,
      "duration": 0.917,
      "velocity": 0.63,
      "hand": "right"
    },
    {
      "midi": 71,
      "time": 165,
      "duration": 1,
      "velocity": 0.63,
      "hand": "right"
    },
    {
      "midi": 41,
      "time": 166,
      "duration": 2,
      "velocity": 0.63,
      "hand": "left"
    },
    {
      "midi": 53,
      "time": 166,
      "duration": 0.917,
      "velocity": 0.63,
      "hand": "left"
    },
    {
      "midi": 56,
      "time": 166,
      "duration": 0.917,
      "velocity": 0.63,
      "hand": "left"
    },
    {
      "midi": 60,
      "time": 166,
      "duration": 2,
      "velocity": 0.63,
      "hand": "right"
    },
    {
      "midi": 65,
      "time": 166,
      "duration": 2,
      "velocity": 0.63,
      "hand": "right"
    },
    {
      "midi": 68,
      "time": 166,
      "duration": 2,
      "velocity": 0.63,
      "hand": "right"
    },
    {
      "midi": 79,
      "time": 166,
      "duration": 0.917,
      "velocity": 0.63,
      "hand": "right"
    },
    {
      "midi": 60,
      "time": 167,
      "duration": 0.917,
      "velocity": 0.63,
      "hand": "right"
    },
    {
      "midi": 77,
      "time": 167,
      "duration": 0.917,
      "velocity": 0.63,
      "hand": "right"
    },
    {
      "midi": 36,
      "time": 168,
      "duration": 6,
      "velocity": 0.63,
      "hand": "left"
    },
    {
      "midi": 48,
      "time": 168,
      "duration": 0.917,
      "velocity": 0.63,
      "hand": "left"
    },
    {
      "midi": 60,
      "time": 168,
      "duration": 6,
      "velocity": 0.63,
      "hand": "right"
    },
    {
      "midi": 64,
      "time": 168,
      "duration": 6,
      "velocity": 0.63,
      "hand": "right"
    },
    {
      "midi": 67,
      "time": 168,
      "duration": 6,
      "velocity": 0.63,
      "hand": "right"
    },
    {
      "midi": 71,
      "time": 168,
      "duration": 2.833,
      "velocity": 0.63,
      "hand": "right"
    },
    {
      "midi": 71,
      "time": 168,
      "duration": 6,
      "velocity": 0.63,
      "hand": "right"
    },
    {
      "midi": 76,
      "time": 168,
      "duration": 2.833,
      "velocity": 0.63,
      "hand": "right"
    },
    {
      "midi": 48,
      "time": 169,
      "duration": 0.917,
      "velocity": 0.63,
      "hand": "left"
    },
    {
      "midi": 48,
      "time": 170,
      "duration": 0.917,
      "velocity": 0.63,
      "hand": "left"
    },
    {
      "midi": 48,
      "time": 171,
      "duration": 0.917,
      "velocity": 0.63,
      "hand": "left"
    },
    {
      "midi": 71,
      "time": 171,
      "duration": 0.167,
      "velocity": 0.63,
      "hand": "right"
    },
    {
      "midi": 72,
      "time": 171.167,
      "duration": 0.167,
      "velocity": 0.63,
      "hand": "right"
    },
    {
      "midi": 74,
      "time": 171.333,
      "duration": 0.167,
      "velocity": 0.63,
      "hand": "right"
    },
    {
      "midi": 76,
      "time": 171.5,
      "duration": 0.167,
      "velocity": 0.63,
      "hand": "right"
    },
    {
      "midi": 74,
      "time": 171.667,
      "duration": 0.167,
      "velocity": 0.63,
      "hand": "right"
    },
    {
      "midi": 72,
      "time": 171.833,
      "duration": 0.167,
      "velocity": 0.63,
      "hand": "right"
    },
    {
      "midi": 36,
      "time": 172,
      "duration": 0.917,
      "velocity": 0.63,
      "hand": "left"
    },
    {
      "midi": 71,
      "time": 172,
      "duration": 0.167,
      "velocity": 0.63,
      "hand": "right"
    },
    {
      "midi": 72,
      "time": 172.167,
      "duration": 0.167,
      "velocity": 0.63,
      "hand": "right"
    },
    {
      "midi": 74,
      "time": 172.333,
      "duration": 0.167,
      "velocity": 0.63,
      "hand": "right"
    },
    {
      "midi": 76,
      "time": 172.5,
      "duration": 0.167,
      "velocity": 0.63,
      "hand": "right"
    },
    {
      "midi": 74,
      "time": 172.667,
      "duration": 0.167,
      "velocity": 0.63,
      "hand": "right"
    },
    {
      "midi": 72,
      "time": 172.833,
      "duration": 0.167,
      "velocity": 0.63,
      "hand": "right"
    },
    {
      "midi": 36,
      "time": 173,
      "duration": 0.917,
      "velocity": 0.63,
      "hand": "left"
    },
    {
      "midi": 64,
      "time": 173,
      "duration": 0.917,
      "velocity": 0.63,
      "hand": "right"
    },
    {
      "midi": 71,
      "time": 173,
      "duration": 0.917,
      "velocity": 0.63,
      "hand": "right"
    },
    {
      "midi": 36,
      "time": 174,
      "duration": 2,
      "velocity": 0.63,
      "hand": "left"
    },
    {
      "midi": 46,
      "time": 174,
      "duration": 0.917,
      "velocity": 0.63,
      "hand": "left"
    },
    {
      "midi": 60,
      "time": 174,
      "duration": 2,
      "velocity": 0.63,
      "hand": "right"
    },
    {
      "midi": 64,
      "time": 174,
      "duration": 0.917,
      "velocity": 0.63,
      "hand": "right"
    },
    {
      "midi": 64,
      "time": 174,
      "duration": 2,
      "velocity": 0.63,
      "hand": "right"
    },
    {
      "midi": 67,
      "time": 174,
      "duration": 2,
      "velocity": 0.63,
      "hand": "right"
    },
    {
      "midi": 70,
      "time": 174,
      "duration": 2,
      "velocity": 0.63,
      "hand": "right"
    },
    {
      "midi": 72,
      "time": 174,
      "duration": 0.917,
      "velocity": 0.63,
      "hand": "right"
    },
    {
      "midi": 36,
      "time": 175,
      "duration": 0.917,
      "velocity": 0.63,
      "hand": "left"
    },
    {
      "midi": 74,
      "time": 175,
      "duration": 0.917,
      "velocity": 0.63,
      "hand": "right"
    },
    {
      "midi": 41,
      "time": 176,
      "duration": 6,
      "velocity": 0.63,
      "hand": "left"
    },
    {
      "midi": 41,
      "time": 176,
      "duration": 0.917,
      "velocity": 0.63,
      "hand": "left"
    },
    {
      "midi": 60,
      "time": 176,
      "duration": 6,
      "velocity": 0.63,
      "hand": "right"
    },
    {
      "midi": 64,
      "time": 176,
      "duration": 6,
      "velocity": 0.63,
      "hand": "right"
    },
    {
      "midi": 65,
      "time": 176,
      "duration": 6,
      "velocity": 0.63,
      "hand": "right"
    },
    {
      "midi": 69,
      "time": 176,
      "duration": 2.833,
      "velocity": 0.63,
      "hand": "right"
    },
    {
      "midi": 69,
      "time": 176,
      "duration": 6,
      "velocity": 0.63,
      "hand": "right"
    },
    {
      "midi": 76,
      "time": 176,
      "duration": 2.833,
      "velocity": 0.63,
      "hand": "right"
    },
    {
      "midi": 48,
      "time": 177,
      "duration": 0.917,
      "velocity": 0.63,
      "hand": "left"
    },
    {
      "midi": 52,
      "time": 178,
      "duration": 0.917,
      "velocity": 0.63,
      "hand": "left"
    },
    {
      "midi": 53,
      "time": 178,
      "duration": 0.917,
      "velocity": 0.63,
      "hand": "left"
    },
    {
      "midi": 57,
      "time": 178,
      "duration": 0.917,
      "velocity": 0.63,
      "hand": "left"
    },
    {
      "midi": 60,
      "time": 179,
      "duration": 0.917,
      "velocity": 0.63,
      "hand": "right"
    },
    {
      "midi": 74,
      "time": 179,
      "duration": 0.167,
      "velocity": 0.63,
      "hand": "right"
    },
    {
      "midi": 76,
      "time": 179.167,
      "duration": 0.167,
      "velocity": 0.63,
      "hand": "right"
    },
    {
      "midi": 79,
      "time": 179.333,
      "duration": 0.167,
      "velocity": 0.63,
      "hand": "right"
    },
    {
      "midi": 81,
      "time": 179.5,
      "duration": 0.167,
      "velocity": 0.63,
      "hand": "right"
    },
    {
      "midi": 79,
      "time": 179.667,
      "duration": 0.167,
      "velocity": 0.63,
      "hand": "right"
    },
    {
      "midi": 76,
      "time": 179.833,
      "duration": 0.167,
      "velocity": 0.63,
      "hand": "right"
    },
    {
      "midi": 41,
      "time": 180,
      "duration": 0.917,
      "velocity": 0.63,
      "hand": "left"
    },
    {
      "midi": 69,
      "time": 180,
      "duration": 0.917,
      "velocity": 0.63,
      "hand": "right"
    },
    {
      "midi": 48,
      "time": 181,
      "duration": 0.917,
      "velocity": 0.63,
      "hand": "left"
    },
    {
      "midi": 71,
      "time": 181,
      "duration": 0.917,
      "velocity": 0.63,
      "hand": "right"
    },
    {
      "midi": 41,
      "time": 182,
      "duration": 2,
      "velocity": 0.63,
      "hand": "left"
    },
    {
      "midi": 53,
      "time": 182,
      "duration": 0.917,
      "velocity": 0.63,
      "hand": "left"
    },
    {
      "midi": 56,
      "time": 182,
      "duration": 0.917,
      "velocity": 0.63,
      "hand": "left"
    },
    {
      "midi": 60,
      "time": 182,
      "duration": 2,
      "velocity": 0.63,
      "hand": "right"
    },
    {
      "midi": 65,
      "time": 182,
      "duration": 2,
      "velocity": 0.63,
      "hand": "right"
    },
    {
      "midi": 68,
      "time": 182,
      "duration": 2,
      "velocity": 0.63,
      "hand": "right"
    },
    {
      "midi": 79,
      "time": 182,
      "duration": 0.917,
      "velocity": 0.63,
      "hand": "right"
    },
    {
      "midi": 60,
      "time": 183,
      "duration": 0.917,
      "velocity": 0.63,
      "hand": "right"
    },
    {
      "midi": 77,
      "time": 183,
      "duration": 0.917,
      "velocity": 0.63,
      "hand": "right"
    },
    {
      "midi": 36,
      "time": 184,
      "duration": 6,
      "velocity": 0.63,
      "hand": "left"
    },
    {
      "midi": 36,
      "time": 184,
      "duration": 0.917,
      "velocity": 0.63,
      "hand": "left"
    },
    {
      "midi": 60,
      "time": 184,
      "duration": 6,
      "velocity": 0.63,
      "hand": "right"
    },
    {
      "midi": 64,
      "time": 184,
      "duration": 6,
      "velocity": 0.63,
      "hand": "right"
    },
    {
      "midi": 67,
      "time": 184,
      "duration": 6,
      "velocity": 0.63,
      "hand": "right"
    },
    {
      "midi": 71,
      "time": 184,
      "duration": 0.917,
      "velocity": 0.63,
      "hand": "right"
    },
    {
      "midi": 71,
      "time": 184,
      "duration": 6,
      "velocity": 0.63,
      "hand": "right"
    },
    {
      "midi": 76,
      "time": 184,
      "duration": 0.917,
      "velocity": 0.63,
      "hand": "right"
    },
    {
      "midi": 43,
      "time": 185,
      "duration": 0.917,
      "velocity": 0.63,
      "hand": "left"
    },
    {
      "midi": 71,
      "time": 185,
      "duration": 0.167,
      "velocity": 0.63,
      "hand": "right"
    },
    {
      "midi": 72,
      "time": 185.167,
      "duration": 0.167,
      "velocity": 0.63,
      "hand": "right"
    },
    {
      "midi": 74,
      "time": 185.333,
      "duration": 0.167,
      "velocity": 0.63,
      "hand": "right"
    },
    {
      "midi": 76,
      "time": 185.5,
      "duration": 0.167,
      "velocity": 0.63,
      "hand": "right"
    },
    {
      "midi": 74,
      "time": 185.667,
      "duration": 0.167,
      "velocity": 0.63,
      "hand": "right"
    },
    {
      "midi": 72,
      "time": 185.833,
      "duration": 0.167,
      "velocity": 0.63,
      "hand": "right"
    },
    {
      "midi": 48,
      "time": 186,
      "duration": 1.917,
      "velocity": 0.63,
      "hand": "left"
    },
    {
      "midi": 71,
      "time": 186,
      "duration": 0.167,
      "velocity": 0.63,
      "hand": "right"
    },
    {
      "midi": 72,
      "time": 186.167,
      "duration": 0.167,
      "velocity": 0.63,
      "hand": "right"
    },
    {
      "midi": 74,
      "time": 186.333,
      "duration": 0.167,
      "velocity": 0.63,
      "hand": "right"
    },
    {
      "midi": 76,
      "time": 186.5,
      "duration": 0.167,
      "velocity": 0.63,
      "hand": "right"
    },
    {
      "midi": 74,
      "time": 186.667,
      "duration": 0.167,
      "velocity": 0.63,
      "hand": "right"
    },
    {
      "midi": 72,
      "time": 186.833,
      "duration": 0.167,
      "velocity": 0.63,
      "hand": "right"
    },
    {
      "midi": 71,
      "time": 187,
      "duration": 0.167,
      "velocity": 0.63,
      "hand": "right"
    },
    {
      "midi": 72,
      "time": 187.167,
      "duration": 0.167,
      "velocity": 0.63,
      "hand": "right"
    },
    {
      "midi": 74,
      "time": 187.333,
      "duration": 0.167,
      "velocity": 0.63,
      "hand": "right"
    },
    {
      "midi": 76,
      "time": 187.5,
      "duration": 0.167,
      "velocity": 0.63,
      "hand": "right"
    },
    {
      "midi": 74,
      "time": 187.667,
      "duration": 0.167,
      "velocity": 0.63,
      "hand": "right"
    },
    {
      "midi": 72,
      "time": 187.833,
      "duration": 0.167,
      "velocity": 0.63,
      "hand": "right"
    },
    {
      "midi": 50,
      "time": 188,
      "duration": 0.917,
      "velocity": 0.63,
      "hand": "left"
    },
    {
      "midi": 71,
      "time": 188,
      "duration": 0.167,
      "velocity": 0.63,
      "hand": "right"
    },
    {
      "midi": 72,
      "time": 188.167,
      "duration": 0.167,
      "velocity": 0.63,
      "hand": "right"
    },
    {
      "midi": 74,
      "time": 188.333,
      "duration": 0.167,
      "velocity": 0.63,
      "hand": "right"
    },
    {
      "midi": 76,
      "time": 188.5,
      "duration": 0.167,
      "velocity": 0.63,
      "hand": "right"
    },
    {
      "midi": 74,
      "time": 188.667,
      "duration": 0.167,
      "velocity": 0.63,
      "hand": "right"
    },
    {
      "midi": 72,
      "time": 188.833,
      "duration": 0.167,
      "velocity": 0.63,
      "hand": "right"
    },
    {
      "midi": 52,
      "time": 189,
      "duration": 0.917,
      "velocity": 0.63,
      "hand": "left"
    },
    {
      "midi": 71,
      "time": 189,
      "duration": 0.167,
      "velocity": 0.63,
      "hand": "right"
    },
    {
      "midi": 72,
      "time": 189.167,
      "duration": 0.167,
      "velocity": 0.63,
      "hand": "right"
    },
    {
      "midi": 74,
      "time": 189.333,
      "duration": 0.167,
      "velocity": 0.63,
      "hand": "right"
    },
    {
      "midi": 76,
      "time": 189.5,
      "duration": 0.167,
      "velocity": 0.63,
      "hand": "right"
    },
    {
      "midi": 74,
      "time": 189.667,
      "duration": 0.167,
      "velocity": 0.63,
      "hand": "right"
    },
    {
      "midi": 72,
      "time": 189.833,
      "duration": 0.167,
      "velocity": 0.63,
      "hand": "right"
    },
    {
      "midi": 41,
      "time": 190,
      "duration": 1,
      "velocity": 0.63,
      "hand": "left"
    },
    {
      "midi": 53,
      "time": 190,
      "duration": 0.917,
      "velocity": 0.63,
      "hand": "left"
    },
    {
      "midi": 60,
      "time": 190,
      "duration": 1,
      "velocity": 0.63,
      "hand": "right"
    },
    {
      "midi": 64,
      "time": 190,
      "duration": 1,
      "velocity": 0.63,
      "hand": "right"
    },
    {
      "midi": 67,
      "time": 190,
      "duration": 1,
      "velocity": 0.63,
      "hand": "right"
    },
    {
      "midi": 70,
      "time": 190,
      "duration": 0.167,
      "velocity": 0.63,
      "hand": "right"
    },
    {
      "midi": 70,
      "time": 190,
      "duration": 1,
      "velocity": 0.63,
      "hand": "right"
    },
    {
      "midi": 72,
      "time": 190.167,
      "duration": 0.167,
      "velocity": 0.63,
      "hand": "right"
    },
    {
      "midi": 74,
      "time": 190.333,
      "duration": 0.167,
      "velocity": 0.63,
      "hand": "right"
    },
    {
      "midi": 76,
      "time": 190.5,
      "duration": 0.167,
      "velocity": 0.63,
      "hand": "right"
    },
    {
      "midi": 74,
      "time": 190.667,
      "duration": 0.167,
      "velocity": 0.63,
      "hand": "right"
    },
    {
      "midi": 72,
      "time": 190.833,
      "duration": 0.167,
      "velocity": 0.63,
      "hand": "right"
    },
    {
      "midi": 40,
      "time": 191,
      "duration": 1,
      "velocity": 0.63,
      "hand": "left"
    },
    {
      "midi": 52,
      "time": 191,
      "duration": 0.917,
      "velocity": 0.63,
      "hand": "left"
    },
    {
      "midi": 60,
      "time": 191,
      "duration": 1,
      "velocity": 0.63,
      "hand": "right"
    },
    {
      "midi": 64,
      "time": 191,
      "duration": 1,
      "velocity": 0.63,
      "hand": "right"
    },
    {
      "midi": 67,
      "time": 191,
      "duration": 1,
      "velocity": 0.63,
      "hand": "right"
    },
    {
      "midi": 70,
      "time": 191,
      "duration": 0.917,
      "velocity": 0.63,
      "hand": "right"
    },
    {
      "midi": 70,
      "time": 191,
      "duration": 1,
      "velocity": 0.63,
      "hand": "right"
    },
    {
      "midi": 41,
      "time": 192,
      "duration": 4,
      "velocity": 0.63,
      "hand": "left"
    },
    {
      "midi": 53,
      "time": 192,
      "duration": 3.833,
      "velocity": 0.63,
      "hand": "left"
    },
    {
      "midi": 60,
      "time": 192,
      "duration": 4,
      "velocity": 0.63,
      "hand": "right"
    },
    {
      "midi": 60,
      "time": 192,
      "duration": 3.833,
      "velocity": 0.63,
      "hand": "right"
    },
    {
      "midi": 65,
      "time": 192,
      "duration": 4,
      "velocity": 0.63,
      "hand": "right"
    },
    {
      "midi": 69,
      "time": 192,
      "duration": 0.917,
      "velocity": 0.63,
      "hand": "right"
    },
    {
      "midi": 69,
      "time": 192,
      "duration": 4,
      "velocity": 0.63,
      "hand": "right"
    },
    {
      "midi": 76,
      "time": 192,
      "duration": 0.917,
      "velocity": 0.63,
      "hand": "right"
    },
    {
      "midi": 72,
      "time": 193,
      "duration": 0.917,
      "velocity": 0.63,
      "hand": "right"
    },
    {
      "midi": 69,
      "time": 194,
      "duration": 1.917,
      "velocity": 0.63,
      "hand": "right"
    },
    {
      "midi": 40,
      "time": 196,
      "duration": 4,
      "velocity": 0.63,
      "hand": "left"
    },
    {
      "midi": 52,
      "time": 196,
      "duration": 3.833,
      "velocity": 0.63,
      "hand": "left"
    },
    {
      "midi": 55,
      "time": 196,
      "duration": 3.833,
      "velocity": 0.63,
      "hand": "left"
    },
    {
      "midi": 59,
      "time": 196,
      "duration": 3.833,
      "velocity": 0.63,
      "hand": "left"
    },
    {
      "midi": 64,
      "time": 196,
      "duration": 4,
      "velocity": 0.63,
      "hand": "right"
    },
    {
      "midi": 67,
      "time": 196,
      "duration": 4,
      "velocity": 0.63,
      "hand": "right"
    },
    {
      "midi": 71,
      "time": 196,
      "duration": 4,
      "velocity": 0.63,
      "hand": "right"
    },
    {
      "midi": 76,
      "time": 196,
      "duration": 0.917,
      "velocity": 0.63,
      "hand": "right"
    },
    {
      "midi": 71,
      "time": 197,
      "duration": 0.917,
      "velocity": 0.63,
      "hand": "right"
    },
    {
      "midi": 67,
      "time": 198,
      "duration": 1.917,
      "velocity": 0.63,
      "hand": "right"
    },
    {
      "midi": 39,
      "time": 200,
      "duration": 4,
      "velocity": 0.63,
      "hand": "left"
    },
    {
      "midi": 51,
      "time": 200,
      "duration": 3.833,
      "velocity": 0.63,
      "hand": "left"
    },
    {
      "midi": 58,
      "time": 200,
      "duration": 3.833,
      "velocity": 0.63,
      "hand": "left"
    },
    {
      "midi": 63,
      "time": 200,
      "duration": 4,
      "velocity": 0.63,
      "hand": "right"
    },
    {
      "midi": 67,
      "time": 200,
      "duration": 0.917,
      "velocity": 0.63,
      "hand": "right"
    },
    {
      "midi": 67,
      "time": 200,
      "duration": 4,
      "velocity": 0.63,
      "hand": "right"
    },
    {
      "midi": 70,
      "time": 200,
      "duration": 4,
      "velocity": 0.63,
      "hand": "right"
    },
    {
      "midi": 74,
      "time": 200,
      "duration": 0.917,
      "velocity": 0.63,
      "hand": "right"
    },
    {
      "midi": 70,
      "time": 201,
      "duration": 0.917,
      "velocity": 0.63,
      "hand": "right"
    },
    {
      "midi": 69,
      "time": 202,
      "duration": 0.917,
      "velocity": 0.63,
      "hand": "right"
    },
    {
      "midi": 65,
      "time": 203,
      "duration": 0.917,
      "velocity": 0.63,
      "hand": "right"
    },
    {
      "midi": 38,
      "time": 204,
      "duration": 4,
      "velocity": 0.63,
      "hand": "left"
    },
    {
      "midi": 50,
      "time": 204,
      "duration": 3.833,
      "velocity": 0.63,
      "hand": "left"
    },
    {
      "midi": 57,
      "time": 204,
      "duration": 3.833,
      "velocity": 0.63,
      "hand": "left"
    },
    {
      "midi": 62,
      "time": 204,
      "duration": 4,
      "velocity": 0.63,
      "hand": "right"
    },
    {
      "midi": 65,
      "time": 204,
      "duration": 0.917,
      "velocity": 0.63,
      "hand": "right"
    },
    {
      "midi": 65,
      "time": 204,
      "duration": 4,
      "velocity": 0.63,
      "hand": "right"
    },
    {
      "midi": 69,
      "time": 204,
      "duration": 4,
      "velocity": 0.63,
      "hand": "right"
    },
    {
      "midi": 74,
      "time": 204,
      "duration": 0.917,
      "velocity": 0.63,
      "hand": "right"
    },
    {
      "midi": 70,
      "time": 205,
      "duration": 0.917,
      "velocity": 0.63,
      "hand": "right"
    },
    {
      "midi": 69,
      "time": 206,
      "duration": 1.917,
      "velocity": 0.63,
      "hand": "right"
    },
    {
      "midi": 36,
      "time": 208,
      "duration": 4,
      "velocity": 0.63,
      "hand": "left"
    },
    {
      "midi": 48,
      "time": 208,
      "duration": 3.833,
      "velocity": 0.63,
      "hand": "left"
    },
    {
      "midi": 51,
      "time": 208,
      "duration": 3.833,
      "velocity": 0.63,
      "hand": "left"
    },
    {
      "midi": 55,
      "time": 208,
      "duration": 3.833,
      "velocity": 0.63,
      "hand": "left"
    },
    {
      "midi": 60,
      "time": 208,
      "duration": 4,
      "velocity": 0.63,
      "hand": "right"
    },
    {
      "midi": 63,
      "time": 208,
      "duration": 4,
      "velocity": 0.63,
      "hand": "right"
    },
    {
      "midi": 67,
      "time": 208,
      "duration": 4,
      "velocity": 0.63,
      "hand": "right"
    },
    {
      "midi": 72,
      "time": 208,
      "duration": 0.917,
      "velocity": 0.63,
      "hand": "right"
    },
    {
      "midi": 67,
      "time": 209,
      "duration": 0.917,
      "velocity": 0.63,
      "hand": "right"
    },
    {
      "midi": 72,
      "time": 210,
      "duration": 0.917,
      "velocity": 0.63,
      "hand": "right"
    },
    {
      "midi": 75,
      "time": 211,
      "duration": 0.917,
      "velocity": 0.63,
      "hand": "right"
    },
    {
      "midi": 42,
      "time": 212,
      "duration": 7.5,
      "velocity": 0.39,
      "hand": "left"
    },
    {
      "midi": 54,
      "time": 212,
      "duration": 6.917,
      "velocity": 0.39,
      "hand": "left"
    },
    {
      "midi": 62,
      "time": 212,
      "duration": 7.5,
      "velocity": 0.39,
      "hand": "right"
    },
    {
      "midi": 62,
      "time": 212,
      "duration": 6.917,
      "velocity": 0.39,
      "hand": "right"
    },
    {
      "midi": 66,
      "time": 212,
      "duration": 7.5,
      "velocity": 0.39,
      "hand": "right"
    },
    {
      "midi": 69,
      "time": 212,
      "duration": 7.5,
      "velocity": 0.39,
      "hand": "right"
    },
    {
      "midi": 74,
      "time": 212,
      "duration": 1.417,
      "velocity": 0.39,
      "hand": "right"
    },
    {
      "midi": 66,
      "time": 213.5,
      "duration": 0.75,
      "velocity": 0.39,
      "hand": "right"
    },
    {
      "midi": 69,
      "time": 214.25,
      "duration": 0.75,
      "velocity": 0.39,
      "hand": "right"
    },
    {
      "midi": 72,
      "time": 215,
      "duration": 1.417,
      "velocity": 0.39,
      "hand": "right"
    },
    {
      "midi": 74,
      "time": 216.5,
      "duration": 0.333,
      "velocity": 0.39,
      "hand": "right"
    },
    {
      "midi": 69,
      "time": 216.833,
      "duration": 0.333,
      "velocity": 0.39,
      "hand": "right"
    },
    {
      "midi": 78,
      "time": 217.25,
      "duration": 0.75,
      "velocity": 0.39,
      "hand": "right"
    },
    {
      "midi": 81,
      "time": 218,
      "duration": 1.417,
      "velocity": 0.39,
      "hand": "right"
    }
  ],
  "notes2Hands": [
    {
      "midi": 69,
      "time": 0,
      "duration": 0.078,
      "velocity": 0.39,
      "hand": "right"
    },
    {
      "midi": 69,
      "time": 0,
      "duration": 0.938,
      "velocity": 0.39,
      "hand": "right"
    },
    {
      "midi": 78,
      "time": 0,
      "duration": 0.078,
      "velocity": 0.39,
      "hand": "right"
    },
    {
      "midi": 78,
      "time": 0,
      "duration": 0.938,
      "velocity": 0.39,
      "hand": "right"
    },
    {
      "midi": 73,
      "time": 0.156,
      "duration": 0.156,
      "velocity": 0.39,
      "hand": "right"
    },
    {
      "midi": 80,
      "time": 0.156,
      "duration": 0.156,
      "velocity": 0.39,
      "hand": "right"
    },
    {
      "midi": 76,
      "time": 0.313,
      "duration": 0.156,
      "velocity": 0.39,
      "hand": "right"
    },
    {
      "midi": 83,
      "time": 0.313,
      "duration": 0.156,
      "velocity": 0.39,
      "hand": "right"
    },
    {
      "midi": 73,
      "time": 0.469,
      "duration": 0.156,
      "velocity": 0.39,
      "hand": "right"
    },
    {
      "midi": 85,
      "time": 0.469,
      "duration": 0.156,
      "velocity": 0.39,
      "hand": "right"
    },
    {
      "midi": 76,
      "time": 0.625,
      "duration": 0.156,
      "velocity": 0.39,
      "hand": "right"
    },
    {
      "midi": 83,
      "time": 0.625,
      "duration": 0.156,
      "velocity": 0.39,
      "hand": "right"
    },
    {
      "midi": 73,
      "time": 0.781,
      "duration": 0.156,
      "velocity": 0.39,
      "hand": "right"
    },
    {
      "midi": 80,
      "time": 0.781,
      "duration": 0.156,
      "velocity": 0.39,
      "hand": "right"
    },
    {
      "midi": 69,
      "time": 0.938,
      "duration": 0.078,
      "velocity": 0.39,
      "hand": "right"
    },
    {
      "midi": 69,
      "time": 0.938,
      "duration": 0.938,
      "velocity": 0.39,
      "hand": "right"
    },
    {
      "midi": 78,
      "time": 0.938,
      "duration": 0.078,
      "velocity": 0.39,
      "hand": "right"
    },
    {
      "midi": 78,
      "time": 0.938,
      "duration": 0.938,
      "velocity": 0.39,
      "hand": "right"
    },
    {
      "midi": 73,
      "time": 1.094,
      "duration": 0.156,
      "velocity": 0.39,
      "hand": "right"
    },
    {
      "midi": 80,
      "time": 1.094,
      "duration": 0.156,
      "velocity": 0.39,
      "hand": "right"
    },
    {
      "midi": 76,
      "time": 1.25,
      "duration": 0.156,
      "velocity": 0.39,
      "hand": "right"
    },
    {
      "midi": 83,
      "time": 1.25,
      "duration": 0.156,
      "velocity": 0.39,
      "hand": "right"
    },
    {
      "midi": 73,
      "time": 1.406,
      "duration": 0.156,
      "velocity": 0.39,
      "hand": "right"
    },
    {
      "midi": 85,
      "time": 1.406,
      "duration": 0.156,
      "velocity": 0.39,
      "hand": "right"
    },
    {
      "midi": 76,
      "time": 1.563,
      "duration": 0.156,
      "velocity": 0.39,
      "hand": "right"
    },
    {
      "midi": 83,
      "time": 1.563,
      "duration": 0.156,
      "velocity": 0.39,
      "hand": "right"
    },
    {
      "midi": 73,
      "time": 1.719,
      "duration": 0.156,
      "velocity": 0.39,
      "hand": "right"
    },
    {
      "midi": 80,
      "time": 1.719,
      "duration": 0.156,
      "velocity": 0.39,
      "hand": "right"
    },
    {
      "midi": 69,
      "time": 1.875,
      "duration": 0.078,
      "velocity": 0.39,
      "hand": "right"
    },
    {
      "midi": 69,
      "time": 1.875,
      "duration": 0.938,
      "velocity": 0.39,
      "hand": "right"
    },
    {
      "midi": 78,
      "time": 1.875,
      "duration": 0.078,
      "velocity": 0.39,
      "hand": "right"
    },
    {
      "midi": 78,
      "time": 1.875,
      "duration": 0.938,
      "velocity": 0.39,
      "hand": "right"
    },
    {
      "midi": 73,
      "time": 2.031,
      "duration": 0.156,
      "velocity": 0.39,
      "hand": "right"
    },
    {
      "midi": 80,
      "time": 2.031,
      "duration": 0.156,
      "velocity": 0.39,
      "hand": "right"
    },
    {
      "midi": 76,
      "time": 2.188,
      "duration": 0.156,
      "velocity": 0.39,
      "hand": "right"
    },
    {
      "midi": 83,
      "time": 2.188,
      "duration": 0.156,
      "velocity": 0.39,
      "hand": "right"
    },
    {
      "midi": 73,
      "time": 2.344,
      "duration": 0.156,
      "velocity": 0.39,
      "hand": "right"
    },
    {
      "midi": 85,
      "time": 2.344,
      "duration": 0.156,
      "velocity": 0.39,
      "hand": "right"
    },
    {
      "midi": 76,
      "time": 2.5,
      "duration": 0.156,
      "velocity": 0.39,
      "hand": "right"
    },
    {
      "midi": 83,
      "time": 2.5,
      "duration": 0.156,
      "velocity": 0.39,
      "hand": "right"
    },
    {
      "midi": 73,
      "time": 2.656,
      "duration": 0.156,
      "velocity": 0.39,
      "hand": "right"
    },
    {
      "midi": 80,
      "time": 2.656,
      "duration": 0.156,
      "velocity": 0.39,
      "hand": "right"
    },
    {
      "midi": 69,
      "time": 2.813,
      "duration": 0.078,
      "velocity": 0.39,
      "hand": "right"
    },
    {
      "midi": 69,
      "time": 2.813,
      "duration": 0.938,
      "velocity": 0.39,
      "hand": "right"
    },
    {
      "midi": 78,
      "time": 2.813,
      "duration": 0.078,
      "velocity": 0.39,
      "hand": "right"
    },
    {
      "midi": 78,
      "time": 2.813,
      "duration": 0.938,
      "velocity": 0.39,
      "hand": "right"
    },
    {
      "midi": 73,
      "time": 2.969,
      "duration": 0.156,
      "velocity": 0.39,
      "hand": "right"
    },
    {
      "midi": 80,
      "time": 2.969,
      "duration": 0.156,
      "velocity": 0.39,
      "hand": "right"
    },
    {
      "midi": 76,
      "time": 3.125,
      "duration": 0.156,
      "velocity": 0.39,
      "hand": "right"
    },
    {
      "midi": 83,
      "time": 3.125,
      "duration": 0.156,
      "velocity": 0.39,
      "hand": "right"
    },
    {
      "midi": 73,
      "time": 3.281,
      "duration": 0.156,
      "velocity": 0.39,
      "hand": "right"
    },
    {
      "midi": 85,
      "time": 3.281,
      "duration": 0.156,
      "velocity": 0.39,
      "hand": "right"
    },
    {
      "midi": 76,
      "time": 3.438,
      "duration": 0.156,
      "velocity": 0.39,
      "hand": "right"
    },
    {
      "midi": 83,
      "time": 3.438,
      "duration": 0.156,
      "velocity": 0.39,
      "hand": "right"
    },
    {
      "midi": 73,
      "time": 3.594,
      "duration": 0.156,
      "velocity": 0.39,
      "hand": "right"
    },
    {
      "midi": 80,
      "time": 3.594,
      "duration": 0.156,
      "velocity": 0.39,
      "hand": "right"
    },
    {
      "midi": 68,
      "time": 3.75,
      "duration": 0.078,
      "velocity": 0.39,
      "hand": "right"
    },
    {
      "midi": 68,
      "time": 3.75,
      "duration": 0.938,
      "velocity": 0.39,
      "hand": "right"
    },
    {
      "midi": 76,
      "time": 3.75,
      "duration": 0.078,
      "velocity": 0.39,
      "hand": "right"
    },
    {
      "midi": 76,
      "time": 3.75,
      "duration": 0.938,
      "velocity": 0.39,
      "hand": "right"
    },
    {
      "midi": 71,
      "time": 3.906,
      "duration": 0.156,
      "velocity": 0.39,
      "hand": "right"
    },
    {
      "midi": 80,
      "time": 3.906,
      "duration": 0.156,
      "velocity": 0.39,
      "hand": "right"
    },
    {
      "midi": 75,
      "time": 4.063,
      "duration": 0.156,
      "velocity": 0.39,
      "hand": "right"
    },
    {
      "midi": 83,
      "time": 4.063,
      "duration": 0.156,
      "velocity": 0.39,
      "hand": "right"
    },
    {
      "midi": 71,
      "time": 4.219,
      "duration": 0.156,
      "velocity": 0.39,
      "hand": "right"
    },
    {
      "midi": 85,
      "time": 4.219,
      "duration": 0.156,
      "velocity": 0.39,
      "hand": "right"
    },
    {
      "midi": 75,
      "time": 4.375,
      "duration": 0.156,
      "velocity": 0.39,
      "hand": "right"
    },
    {
      "midi": 83,
      "time": 4.375,
      "duration": 0.156,
      "velocity": 0.39,
      "hand": "right"
    },
    {
      "midi": 71,
      "time": 4.531,
      "duration": 0.156,
      "velocity": 0.39,
      "hand": "right"
    },
    {
      "midi": 80,
      "time": 4.531,
      "duration": 0.156,
      "velocity": 0.39,
      "hand": "right"
    },
    {
      "midi": 68,
      "time": 4.688,
      "duration": 0.078,
      "velocity": 0.39,
      "hand": "right"
    },
    {
      "midi": 68,
      "time": 4.688,
      "duration": 0.938,
      "velocity": 0.39,
      "hand": "right"
    },
    {
      "midi": 76,
      "time": 4.688,
      "duration": 0.078,
      "velocity": 0.39,
      "hand": "right"
    },
    {
      "midi": 76,
      "time": 4.688,
      "duration": 0.938,
      "velocity": 0.39,
      "hand": "right"
    },
    {
      "midi": 71,
      "time": 4.844,
      "duration": 0.156,
      "velocity": 0.39,
      "hand": "right"
    },
    {
      "midi": 80,
      "time": 4.844,
      "duration": 0.156,
      "velocity": 0.39,
      "hand": "right"
    },
    {
      "midi": 75,
      "time": 5,
      "duration": 0.156,
      "velocity": 0.39,
      "hand": "right"
    },
    {
      "midi": 83,
      "time": 5,
      "duration": 0.156,
      "velocity": 0.39,
      "hand": "right"
    },
    {
      "midi": 71,
      "time": 5.156,
      "duration": 0.156,
      "velocity": 0.39,
      "hand": "right"
    },
    {
      "midi": 85,
      "time": 5.156,
      "duration": 0.156,
      "velocity": 0.39,
      "hand": "right"
    },
    {
      "midi": 75,
      "time": 5.313,
      "duration": 0.156,
      "velocity": 0.39,
      "hand": "right"
    },
    {
      "midi": 83,
      "time": 5.313,
      "duration": 0.156,
      "velocity": 0.39,
      "hand": "right"
    },
    {
      "midi": 71,
      "time": 5.469,
      "duration": 0.156,
      "velocity": 0.39,
      "hand": "right"
    },
    {
      "midi": 80,
      "time": 5.469,
      "duration": 0.156,
      "velocity": 0.39,
      "hand": "right"
    },
    {
      "midi": 68,
      "time": 5.625,
      "duration": 0.078,
      "velocity": 0.39,
      "hand": "right"
    },
    {
      "midi": 68,
      "time": 5.625,
      "duration": 0.938,
      "velocity": 0.39,
      "hand": "right"
    },
    {
      "midi": 76,
      "time": 5.625,
      "duration": 0.078,
      "velocity": 0.39,
      "hand": "right"
    },
    {
      "midi": 76,
      "time": 5.625,
      "duration": 0.938,
      "velocity": 0.39,
      "hand": "right"
    },
    {
      "midi": 71,
      "time": 5.781,
      "duration": 0.156,
      "velocity": 0.39,
      "hand": "right"
    },
    {
      "midi": 80,
      "time": 5.781,
      "duration": 0.156,
      "velocity": 0.39,
      "hand": "right"
    },
    {
      "midi": 75,
      "time": 5.938,
      "duration": 0.156,
      "velocity": 0.39,
      "hand": "right"
    },
    {
      "midi": 83,
      "time": 5.938,
      "duration": 0.156,
      "velocity": 0.39,
      "hand": "right"
    },
    {
      "midi": 71,
      "time": 6.094,
      "duration": 0.156,
      "velocity": 0.39,
      "hand": "right"
    },
    {
      "midi": 85,
      "time": 6.094,
      "duration": 0.156,
      "velocity": 0.39,
      "hand": "right"
    },
    {
      "midi": 75,
      "time": 6.25,
      "duration": 0.156,
      "velocity": 0.39,
      "hand": "right"
    },
    {
      "midi": 83,
      "time": 6.25,
      "duration": 0.156,
      "velocity": 0.39,
      "hand": "right"
    },
    {
      "midi": 71,
      "time": 6.406,
      "duration": 0.156,
      "velocity": 0.39,
      "hand": "right"
    },
    {
      "midi": 80,
      "time": 6.406,
      "duration": 0.156,
      "velocity": 0.39,
      "hand": "right"
    },
    {
      "midi": 67,
      "time": 6.563,
      "duration": 0.078,
      "velocity": 0.39,
      "hand": "right"
    },
    {
      "midi": 67,
      "time": 6.563,
      "duration": 0.938,
      "velocity": 0.39,
      "hand": "right"
    },
    {
      "midi": 76,
      "time": 6.563,
      "duration": 0.078,
      "velocity": 0.39,
      "hand": "right"
    },
    {
      "midi": 76,
      "time": 6.563,
      "duration": 0.938,
      "velocity": 0.39,
      "hand": "right"
    },
    {
      "midi": 71,
      "time": 6.719,
      "duration": 0.156,
      "velocity": 0.39,
      "hand": "right"
    },
    {
      "midi": 80,
      "time": 6.719,
      "duration": 0.156,
      "velocity": 0.39,
      "hand": "right"
    },
    {
      "midi": 75,
      "time": 6.875,
      "duration": 0.156,
      "velocity": 0.39,
      "hand": "right"
    },
    {
      "midi": 83,
      "time": 6.875,
      "duration": 0.156,
      "velocity": 0.39,
      "hand": "right"
    },
    {
      "midi": 71,
      "time": 7.031,
      "duration": 0.156,
      "velocity": 0.39,
      "hand": "right"
    },
    {
      "midi": 85,
      "time": 7.031,
      "duration": 0.156,
      "velocity": 0.39,
      "hand": "right"
    },
    {
      "midi": 75,
      "time": 7.188,
      "duration": 0.156,
      "velocity": 0.39,
      "hand": "right"
    },
    {
      "midi": 83,
      "time": 7.188,
      "duration": 0.156,
      "velocity": 0.39,
      "hand": "right"
    },
    {
      "midi": 71,
      "time": 7.344,
      "duration": 0.156,
      "velocity": 0.39,
      "hand": "right"
    },
    {
      "midi": 80,
      "time": 7.344,
      "duration": 0.156,
      "velocity": 0.39,
      "hand": "right"
    },
    {
      "midi": 66,
      "time": 7.5,
      "duration": 0.078,
      "velocity": 0.39,
      "hand": "right"
    },
    {
      "midi": 66,
      "time": 7.5,
      "duration": 0.938,
      "velocity": 0.39,
      "hand": "right"
    },
    {
      "midi": 76,
      "time": 7.5,
      "duration": 0.078,
      "velocity": 0.39,
      "hand": "right"
    },
    {
      "midi": 76,
      "time": 7.5,
      "duration": 0.938,
      "velocity": 0.39,
      "hand": "right"
    },
    {
      "midi": 69,
      "time": 7.656,
      "duration": 0.156,
      "velocity": 0.39,
      "hand": "right"
    },
    {
      "midi": 78,
      "time": 7.656,
      "duration": 0.156,
      "velocity": 0.39,
      "hand": "right"
    },
    {
      "midi": 73,
      "time": 7.813,
      "duration": 0.156,
      "velocity": 0.39,
      "hand": "right"
    },
    {
      "midi": 81,
      "time": 7.813,
      "duration": 0.156,
      "velocity": 0.39,
      "hand": "right"
    },
    {
      "midi": 69,
      "time": 7.969,
      "duration": 0.156,
      "velocity": 0.39,
      "hand": "right"
    },
    {
      "midi": 83,
      "time": 7.969,
      "duration": 0.156,
      "velocity": 0.39,
      "hand": "right"
    },
    {
      "midi": 73,
      "time": 8.125,
      "duration": 0.156,
      "velocity": 0.39,
      "hand": "right"
    },
    {
      "midi": 81,
      "time": 8.125,
      "duration": 0.156,
      "velocity": 0.39,
      "hand": "right"
    },
    {
      "midi": 69,
      "time": 8.281,
      "duration": 0.156,
      "velocity": 0.39,
      "hand": "right"
    },
    {
      "midi": 78,
      "time": 8.281,
      "duration": 0.156,
      "velocity": 0.39,
      "hand": "right"
    },
    {
      "midi": 66,
      "time": 8.438,
      "duration": 0.078,
      "velocity": 0.39,
      "hand": "right"
    },
    {
      "midi": 66,
      "time": 8.438,
      "duration": 0.938,
      "velocity": 0.39,
      "hand": "right"
    },
    {
      "midi": 76,
      "time": 8.438,
      "duration": 0.078,
      "velocity": 0.39,
      "hand": "right"
    },
    {
      "midi": 76,
      "time": 8.438,
      "duration": 0.938,
      "velocity": 0.39,
      "hand": "right"
    },
    {
      "midi": 69,
      "time": 8.594,
      "duration": 0.156,
      "velocity": 0.39,
      "hand": "right"
    },
    {
      "midi": 78,
      "time": 8.594,
      "duration": 0.156,
      "velocity": 0.39,
      "hand": "right"
    },
    {
      "midi": 73,
      "time": 8.75,
      "duration": 0.156,
      "velocity": 0.39,
      "hand": "right"
    },
    {
      "midi": 81,
      "time": 8.75,
      "duration": 0.156,
      "velocity": 0.39,
      "hand": "right"
    },
    {
      "midi": 69,
      "time": 8.906,
      "duration": 0.156,
      "velocity": 0.39,
      "hand": "right"
    },
    {
      "midi": 83,
      "time": 8.906,
      "duration": 0.156,
      "velocity": 0.39,
      "hand": "right"
    },
    {
      "midi": 73,
      "time": 9.063,
      "duration": 0.156,
      "velocity": 0.39,
      "hand": "right"
    },
    {
      "midi": 81,
      "time": 9.063,
      "duration": 0.156,
      "velocity": 0.39,
      "hand": "right"
    },
    {
      "midi": 69,
      "time": 9.219,
      "duration": 0.156,
      "velocity": 0.39,
      "hand": "right"
    },
    {
      "midi": 78,
      "time": 9.219,
      "duration": 0.156,
      "velocity": 0.39,
      "hand": "right"
    },
    {
      "midi": 66,
      "time": 9.375,
      "duration": 0.078,
      "velocity": 0.39,
      "hand": "right"
    },
    {
      "midi": 66,
      "time": 9.375,
      "duration": 0.938,
      "velocity": 0.39,
      "hand": "right"
    },
    {
      "midi": 76,
      "time": 9.375,
      "duration": 0.078,
      "velocity": 0.39,
      "hand": "right"
    },
    {
      "midi": 76,
      "time": 9.375,
      "duration": 0.938,
      "velocity": 0.39,
      "hand": "right"
    },
    {
      "midi": 69,
      "time": 9.531,
      "duration": 0.156,
      "velocity": 0.39,
      "hand": "right"
    },
    {
      "midi": 78,
      "time": 9.531,
      "duration": 0.156,
      "velocity": 0.39,
      "hand": "right"
    },
    {
      "midi": 73,
      "time": 9.688,
      "duration": 0.156,
      "velocity": 0.39,
      "hand": "right"
    },
    {
      "midi": 81,
      "time": 9.688,
      "duration": 0.156,
      "velocity": 0.39,
      "hand": "right"
    },
    {
      "midi": 69,
      "time": 9.844,
      "duration": 0.156,
      "velocity": 0.39,
      "hand": "right"
    },
    {
      "midi": 83,
      "time": 9.844,
      "duration": 0.156,
      "velocity": 0.39,
      "hand": "right"
    },
    {
      "midi": 73,
      "time": 10,
      "duration": 0.156,
      "velocity": 0.39,
      "hand": "right"
    },
    {
      "midi": 81,
      "time": 10,
      "duration": 0.156,
      "velocity": 0.39,
      "hand": "right"
    },
    {
      "midi": 69,
      "time": 10.156,
      "duration": 0.156,
      "velocity": 0.39,
      "hand": "right"
    },
    {
      "midi": 78,
      "time": 10.156,
      "duration": 0.156,
      "velocity": 0.39,
      "hand": "right"
    },
    {
      "midi": 66,
      "time": 10.313,
      "duration": 0.078,
      "velocity": 0.39,
      "hand": "right"
    },
    {
      "midi": 66,
      "time": 10.313,
      "duration": 0.938,
      "velocity": 0.39,
      "hand": "right"
    },
    {
      "midi": 76,
      "time": 10.313,
      "duration": 0.078,
      "velocity": 0.39,
      "hand": "right"
    },
    {
      "midi": 76,
      "time": 10.313,
      "duration": 0.938,
      "velocity": 0.39,
      "hand": "right"
    },
    {
      "midi": 69,
      "time": 10.469,
      "duration": 0.156,
      "velocity": 0.39,
      "hand": "right"
    },
    {
      "midi": 78,
      "time": 10.469,
      "duration": 0.156,
      "velocity": 0.39,
      "hand": "right"
    },
    {
      "midi": 73,
      "time": 10.625,
      "duration": 0.156,
      "velocity": 0.39,
      "hand": "right"
    },
    {
      "midi": 81,
      "time": 10.625,
      "duration": 0.156,
      "velocity": 0.39,
      "hand": "right"
    },
    {
      "midi": 69,
      "time": 10.781,
      "duration": 0.156,
      "velocity": 0.39,
      "hand": "right"
    },
    {
      "midi": 83,
      "time": 10.781,
      "duration": 0.156,
      "velocity": 0.39,
      "hand": "right"
    },
    {
      "midi": 73,
      "time": 10.938,
      "duration": 0.156,
      "velocity": 0.39,
      "hand": "right"
    },
    {
      "midi": 81,
      "time": 10.938,
      "duration": 0.156,
      "velocity": 0.39,
      "hand": "right"
    },
    {
      "midi": 69,
      "time": 11.094,
      "duration": 0.156,
      "velocity": 0.39,
      "hand": "right"
    },
    {
      "midi": 78,
      "time": 11.094,
      "duration": 0.156,
      "velocity": 0.39,
      "hand": "right"
    },
    {
      "midi": 64,
      "time": 11.25,
      "duration": 0.078,
      "velocity": 0.39,
      "hand": "right"
    },
    {
      "midi": 64,
      "time": 11.25,
      "duration": 0.938,
      "velocity": 0.39,
      "hand": "right"
    },
    {
      "midi": 75,
      "time": 11.25,
      "duration": 0.078,
      "velocity": 0.39,
      "hand": "right"
    },
    {
      "midi": 75,
      "time": 11.25,
      "duration": 0.938,
      "velocity": 0.39,
      "hand": "right"
    },
    {
      "midi": 68,
      "time": 11.406,
      "duration": 0.156,
      "velocity": 0.39,
      "hand": "right"
    },
    {
      "midi": 76,
      "time": 11.406,
      "duration": 0.156,
      "velocity": 0.39,
      "hand": "right"
    },
    {
      "midi": 71,
      "time": 11.563,
      "duration": 0.156,
      "velocity": 0.39,
      "hand": "right"
    },
    {
      "midi": 78,
      "time": 11.563,
      "duration": 0.156,
      "velocity": 0.39,
      "hand": "right"
    },
    {
      "midi": 68,
      "time": 11.719,
      "duration": 0.156,
      "velocity": 0.39,
      "hand": "right"
    },
    {
      "midi": 80,
      "time": 11.719,
      "duration": 0.156,
      "velocity": 0.39,
      "hand": "right"
    },
    {
      "midi": 71,
      "time": 11.875,
      "duration": 0.156,
      "velocity": 0.39,
      "hand": "right"
    },
    {
      "midi": 78,
      "time": 11.875,
      "duration": 0.156,
      "velocity": 0.39,
      "hand": "right"
    },
    {
      "midi": 68,
      "time": 12.031,
      "duration": 0.156,
      "velocity": 0.39,
      "hand": "right"
    },
    {
      "midi": 76,
      "time": 12.031,
      "duration": 0.156,
      "velocity": 0.39,
      "hand": "right"
    },
    {
      "midi": 64,
      "time": 12.188,
      "duration": 0.078,
      "velocity": 0.39,
      "hand": "right"
    },
    {
      "midi": 64,
      "time": 12.188,
      "duration": 0.938,
      "velocity": 0.39,
      "hand": "right"
    },
    {
      "midi": 75,
      "time": 12.188,
      "duration": 0.078,
      "velocity": 0.39,
      "hand": "right"
    },
    {
      "midi": 75,
      "time": 12.188,
      "duration": 0.938,
      "velocity": 0.39,
      "hand": "right"
    },
    {
      "midi": 68,
      "time": 12.344,
      "duration": 0.156,
      "velocity": 0.39,
      "hand": "right"
    },
    {
      "midi": 76,
      "time": 12.344,
      "duration": 0.156,
      "velocity": 0.39,
      "hand": "right"
    },
    {
      "midi": 71,
      "time": 12.5,
      "duration": 0.156,
      "velocity": 0.39,
      "hand": "right"
    },
    {
      "midi": 78,
      "time": 12.5,
      "duration": 0.156,
      "velocity": 0.39,
      "hand": "right"
    },
    {
      "midi": 68,
      "time": 12.656,
      "duration": 0.156,
      "velocity": 0.39,
      "hand": "right"
    },
    {
      "midi": 80,
      "time": 12.656,
      "duration": 0.156,
      "velocity": 0.39,
      "hand": "right"
    },
    {
      "midi": 71,
      "time": 12.813,
      "duration": 0.156,
      "velocity": 0.39,
      "hand": "right"
    },
    {
      "midi": 78,
      "time": 12.813,
      "duration": 0.156,
      "velocity": 0.39,
      "hand": "right"
    },
    {
      "midi": 68,
      "time": 12.969,
      "duration": 0.156,
      "velocity": 0.39,
      "hand": "right"
    },
    {
      "midi": 76,
      "time": 12.969,
      "duration": 0.156,
      "velocity": 0.39,
      "hand": "right"
    },
    {
      "midi": 64,
      "time": 13.125,
      "duration": 0.078,
      "velocity": 0.39,
      "hand": "right"
    },
    {
      "midi": 64,
      "time": 13.125,
      "duration": 0.938,
      "velocity": 0.39,
      "hand": "right"
    },
    {
      "midi": 75,
      "time": 13.125,
      "duration": 0.078,
      "velocity": 0.39,
      "hand": "right"
    },
    {
      "midi": 75,
      "time": 13.125,
      "duration": 0.938,
      "velocity": 0.39,
      "hand": "right"
    },
    {
      "midi": 68,
      "time": 13.281,
      "duration": 0.156,
      "velocity": 0.39,
      "hand": "right"
    },
    {
      "midi": 76,
      "time": 13.281,
      "duration": 0.156,
      "velocity": 0.39,
      "hand": "right"
    },
    {
      "midi": 71,
      "time": 13.438,
      "duration": 0.156,
      "velocity": 0.4,
      "hand": "right"
    },
    {
      "midi": 78,
      "time": 13.438,
      "duration": 0.156,
      "velocity": 0.4,
      "hand": "right"
    },
    {
      "midi": 68,
      "time": 13.594,
      "duration": 0.156,
      "velocity": 0.41,
      "hand": "right"
    },
    {
      "midi": 80,
      "time": 13.594,
      "duration": 0.156,
      "velocity": 0.41,
      "hand": "right"
    },
    {
      "midi": 71,
      "time": 13.75,
      "duration": 0.156,
      "velocity": 0.43,
      "hand": "right"
    },
    {
      "midi": 78,
      "time": 13.75,
      "duration": 0.156,
      "velocity": 0.43,
      "hand": "right"
    },
    {
      "midi": 68,
      "time": 13.906,
      "duration": 0.156,
      "velocity": 0.43,
      "hand": "right"
    },
    {
      "midi": 76,
      "time": 13.906,
      "duration": 0.156,
      "velocity": 0.43,
      "hand": "right"
    },
    {
      "midi": 64,
      "time": 14.063,
      "duration": 0.078,
      "velocity": 0.44,
      "hand": "right"
    },
    {
      "midi": 64,
      "time": 14.063,
      "duration": 0.938,
      "velocity": 0.44,
      "hand": "right"
    },
    {
      "midi": 75,
      "time": 14.063,
      "duration": 0.078,
      "velocity": 0.44,
      "hand": "right"
    },
    {
      "midi": 75,
      "time": 14.063,
      "duration": 0.938,
      "velocity": 0.44,
      "hand": "right"
    },
    {
      "midi": 68,
      "time": 14.219,
      "duration": 0.156,
      "velocity": 0.45,
      "hand": "right"
    },
    {
      "midi": 76,
      "time": 14.219,
      "duration": 0.156,
      "velocity": 0.45,
      "hand": "right"
    },
    {
      "midi": 71,
      "time": 14.375,
      "duration": 0.156,
      "velocity": 0.46,
      "hand": "right"
    },
    {
      "midi": 78,
      "time": 14.375,
      "duration": 0.156,
      "velocity": 0.46,
      "hand": "right"
    },
    {
      "midi": 68,
      "time": 14.531,
      "duration": 0.156,
      "velocity": 0.47,
      "hand": "right"
    },
    {
      "midi": 80,
      "time": 14.531,
      "duration": 0.156,
      "velocity": 0.47,
      "hand": "right"
    },
    {
      "midi": 71,
      "time": 14.688,
      "duration": 0.156,
      "velocity": 0.48,
      "hand": "right"
    },
    {
      "midi": 78,
      "time": 14.688,
      "duration": 0.156,
      "velocity": 0.48,
      "hand": "right"
    },
    {
      "midi": 68,
      "time": 14.844,
      "duration": 0.156,
      "velocity": 0.49,
      "hand": "right"
    },
    {
      "midi": 76,
      "time": 14.844,
      "duration": 0.156,
      "velocity": 0.49,
      "hand": "right"
    },
    {
      "midi": 45,
      "time": 15,
      "duration": 0.156,
      "velocity": 0.5,
      "hand": "left"
    },
    {
      "midi": 68,
      "time": 15,
      "duration": 0.156,
      "velocity": 0.5,
      "hand": "right"
    },
    {
      "midi": 52,
      "time": 15.156,
      "duration": 0.156,
      "velocity": 0.5,
      "hand": "left"
    },
    {
      "midi": 68,
      "time": 15.156,
      "duration": 0.156,
      "velocity": 0.5,
      "hand": "right"
    },
    {
      "midi": 61,
      "time": 15.313,
      "duration": 0.156,
      "velocity": 0.5,
      "hand": "right"
    },
    {
      "midi": 68,
      "time": 15.313,
      "duration": 0.156,
      "velocity": 0.5,
      "hand": "right"
    },
    {
      "midi": 52,
      "time": 15.469,
      "duration": 0.156,
      "velocity": 0.5,
      "hand": "left"
    },
    {
      "midi": 68,
      "time": 15.469,
      "duration": 0.156,
      "velocity": 0.5,
      "hand": "right"
    },
    {
      "midi": 61,
      "time": 15.625,
      "duration": 0.156,
      "velocity": 0.5,
      "hand": "right"
    },
    {
      "midi": 68,
      "time": 15.625,
      "duration": 0.156,
      "velocity": 0.5,
      "hand": "right"
    },
    {
      "midi": 52,
      "time": 15.781,
      "duration": 0.156,
      "velocity": 0.5,
      "hand": "left"
    },
    {
      "midi": 66,
      "time": 15.781,
      "duration": 0.156,
      "velocity": 0.5,
      "hand": "right"
    },
    {
      "midi": 45,
      "time": 15.938,
      "duration": 0.156,
      "velocity": 0.5,
      "hand": "left"
    },
    {
      "midi": 92,
      "time": 15.938,
      "duration": 0.156,
      "velocity": 0.6,
      "hand": "right"
    },
    {
      "midi": 52,
      "time": 16.094,
      "duration": 0.156,
      "velocity": 0.5,
      "hand": "left"
    },
    {
      "midi": 61,
      "time": 16.25,
      "duration": 0.156,
      "velocity": 0.5,
      "hand": "right"
    },
    {
      "midi": 52,
      "time": 16.406,
      "duration": 0.156,
      "velocity": 0.5,
      "hand": "left"
    },
    {
      "midi": 61,
      "time": 16.563,
      "duration": 0.156,
      "velocity": 0.5,
      "hand": "right"
    },
    {
      "midi": 52,
      "time": 16.719,
      "duration": 0.156,
      "velocity": 0.5,
      "hand": "left"
    },
    {
      "midi": 45,
      "time": 16.875,
      "duration": 0.156,
      "velocity": 0.5,
      "hand": "left"
    },
    {
      "midi": 68,
      "time": 16.875,
      "duration": 0.156,
      "velocity": 0.5,
      "hand": "right"
    },
    {
      "midi": 52,
      "time": 17.031,
      "duration": 0.156,
      "velocity": 0.5,
      "hand": "left"
    },
    {
      "midi": 68,
      "time": 17.031,
      "duration": 0.156,
      "velocity": 0.5,
      "hand": "right"
    },
    {
      "midi": 61,
      "time": 17.188,
      "duration": 0.156,
      "velocity": 0.5,
      "hand": "right"
    },
    {
      "midi": 68,
      "time": 17.188,
      "duration": 0.156,
      "velocity": 0.5,
      "hand": "right"
    },
    {
      "midi": 52,
      "time": 17.344,
      "duration": 0.156,
      "velocity": 0.5,
      "hand": "left"
    },
    {
      "midi": 68,
      "time": 17.344,
      "duration": 0.156,
      "velocity": 0.5,
      "hand": "right"
    },
    {
      "midi": 61,
      "time": 17.5,
      "duration": 0.156,
      "velocity": 0.5,
      "hand": "right"
    },
    {
      "midi": 68,
      "time": 17.5,
      "duration": 0.313,
      "velocity": 0.5,
      "hand": "right"
    },
    {
      "midi": 52,
      "time": 17.656,
      "duration": 0.156,
      "velocity": 0.5,
      "hand": "left"
    },
    {
      "midi": 45,
      "time": 17.813,
      "duration": 0.156,
      "velocity": 0.5,
      "hand": "left"
    },
    {
      "midi": 68,
      "time": 17.813,
      "duration": 0.156,
      "velocity": 0.5,
      "hand": "right"
    },
    {
      "midi": 52,
      "time": 17.969,
      "duration": 0.156,
      "velocity": 0.5,
      "hand": "left"
    },
    {
      "midi": 68,
      "time": 17.969,
      "duration": 0.156,
      "velocity": 0.5,
      "hand": "right"
    },
    {
      "midi": 61,
      "time": 18.125,
      "duration": 0.156,
      "velocity": 0.5,
      "hand": "right"
    },
    {
      "midi": 68,
      "time": 18.125,
      "duration": 0.156,
      "velocity": 0.5,
      "hand": "right"
    },
    {
      "midi": 52,
      "time": 18.281,
      "duration": 0.156,
      "velocity": 0.5,
      "hand": "left"
    },
    {
      "midi": 68,
      "time": 18.281,
      "duration": 0.156,
      "velocity": 0.5,
      "hand": "right"
    },
    {
      "midi": 61,
      "time": 18.438,
      "duration": 0.156,
      "velocity": 0.5,
      "hand": "right"
    },
    {
      "midi": 68,
      "time": 18.438,
      "duration": 0.313,
      "velocity": 0.5,
      "hand": "right"
    },
    {
      "midi": 52,
      "time": 18.594,
      "duration": 0.156,
      "velocity": 0.5,
      "hand": "left"
    },
    {
      "midi": 44,
      "time": 18.75,
      "duration": 0.156,
      "velocity": 0.5,
      "hand": "left"
    },
    {
      "midi": 68,
      "time": 18.75,
      "duration": 0.156,
      "velocity": 0.5,
      "hand": "right"
    },
    {
      "midi": 51,
      "time": 18.906,
      "duration": 0.156,
      "velocity": 0.5,
      "hand": "left"
    },
    {
      "midi": 68,
      "time": 18.906,
      "duration": 0.156,
      "velocity": 0.5,
      "hand": "right"
    },
    {
      "midi": 59,
      "time": 19.063,
      "duration": 0.156,
      "velocity": 0.5,
      "hand": "left"
    },
    {
      "midi": 68,
      "time": 19.063,
      "duration": 0.156,
      "velocity": 0.5,
      "hand": "right"
    },
    {
      "midi": 51,
      "time": 19.219,
      "duration": 0.156,
      "velocity": 0.5,
      "hand": "left"
    },
    {
      "midi": 68,
      "time": 19.219,
      "duration": 0.156,
      "velocity": 0.5,
      "hand": "right"
    },
    {
      "midi": 59,
      "time": 19.375,
      "duration": 0.156,
      "velocity": 0.5,
      "hand": "left"
    },
    {
      "midi": 68,
      "time": 19.375,
      "duration": 0.156,
      "velocity": 0.5,
      "hand": "right"
    },
    {
      "midi": 51,
      "time": 19.531,
      "duration": 0.156,
      "velocity": 0.5,
      "hand": "left"
    },
    {
      "midi": 66,
      "time": 19.531,
      "duration": 0.156,
      "velocity": 0.5,
      "hand": "right"
    },
    {
      "midi": 44,
      "time": 19.688,
      "duration": 0.156,
      "velocity": 0.5,
      "hand": "left"
    },
    {
      "midi": 92,
      "time": 19.688,
      "duration": 0.156,
      "velocity": 0.6,
      "hand": "right"
    },
    {
      "midi": 51,
      "time": 19.844,
      "duration": 0.156,
      "velocity": 0.5,
      "hand": "left"
    },
    {
      "midi": 59,
      "time": 20,
      "duration": 0.156,
      "velocity": 0.5,
      "hand": "left"
    },
    {
      "midi": 51,
      "time": 20.156,
      "duration": 0.156,
      "velocity": 0.5,
      "hand": "left"
    },
    {
      "midi": 59,
      "time": 20.313,
      "duration": 0.156,
      "velocity": 0.5,
      "hand": "left"
    },
    {
      "midi": 51,
      "time": 20.469,
      "duration": 0.156,
      "velocity": 0.5,
      "hand": "left"
    },
    {
      "midi": 44,
      "time": 20.625,
      "duration": 0.156,
      "velocity": 0.5,
      "hand": "left"
    },
    {
      "midi": 68,
      "time": 20.625,
      "duration": 0.156,
      "velocity": 0.5,
      "hand": "right"
    },
    {
      "midi": 51,
      "time": 20.781,
      "duration": 0.156,
      "velocity": 0.5,
      "hand": "left"
    },
    {
      "midi": 68,
      "time": 20.781,
      "duration": 0.156,
      "velocity": 0.5,
      "hand": "right"
    },
    {
      "midi": 59,
      "time": 20.938,
      "duration": 0.156,
      "velocity": 0.5,
      "hand": "left"
    },
    {
      "midi": 68,
      "time": 20.938,
      "duration": 0.156,
      "velocity": 0.5,
      "hand": "right"
    },
    {
      "midi": 51,
      "time": 21.094,
      "duration": 0.156,
      "velocity": 0.5,
      "hand": "left"
    },
    {
      "midi": 68,
      "time": 21.094,
      "duration": 0.156,
      "velocity": 0.5,
      "hand": "right"
    },
    {
      "midi": 59,
      "time": 21.25,
      "duration": 0.156,
      "velocity": 0.5,
      "hand": "left"
    },
    {
      "midi": 68,
      "time": 21.25,
      "duration": 0.313,
      "velocity": 0.5,
      "hand": "right"
    },
    {
      "midi": 51,
      "time": 21.406,
      "duration": 0.156,
      "velocity": 0.5,
      "hand": "left"
    },
    {
      "midi": 43,
      "time": 21.563,
      "duration": 0.156,
      "velocity": 0.5,
      "hand": "left"
    },
    {
      "midi": 68,
      "time": 21.563,
      "duration": 0.156,
      "velocity": 0.5,
      "hand": "right"
    },
    {
      "midi": 51,
      "time": 21.719,
      "duration": 0.156,
      "velocity": 0.5,
      "hand": "left"
    },
    {
      "midi": 68,
      "time": 21.719,
      "duration": 0.156,
      "velocity": 0.5,
      "hand": "right"
    },
    {
      "midi": 59,
      "time": 21.875,
      "duration": 0.156,
      "velocity": 0.5,
      "hand": "left"
    },
    {
      "midi": 68,
      "time": 21.875,
      "duration": 0.156,
      "velocity": 0.5,
      "hand": "right"
    },
    {
      "midi": 51,
      "time": 22.031,
      "duration": 0.156,
      "velocity": 0.5,
      "hand": "left"
    },
    {
      "midi": 68,
      "time": 22.031,
      "duration": 0.156,
      "velocity": 0.5,
      "hand": "right"
    },
    {
      "midi": 59,
      "time": 22.188,
      "duration": 0.156,
      "velocity": 0.5,
      "hand": "left"
    },
    {
      "midi": 68,
      "time": 22.188,
      "duration": 0.313,
      "velocity": 0.5,
      "hand": "right"
    },
    {
      "midi": 51,
      "time": 22.344,
      "duration": 0.156,
      "velocity": 0.5,
      "hand": "left"
    },
    {
      "midi": 42,
      "time": 22.5,
      "duration": 0.156,
      "velocity": 0.5,
      "hand": "left"
    },
    {
      "midi": 68,
      "time": 22.5,
      "duration": 0.156,
      "velocity": 0.5,
      "hand": "right"
    },
    {
      "midi": 49,
      "time": 22.656,
      "duration": 0.156,
      "velocity": 0.5,
      "hand": "left"
    },
    {
      "midi": 68,
      "time": 22.656,
      "duration": 0.156,
      "velocity": 0.5,
      "hand": "right"
    },
    {
      "midi": 57,
      "time": 22.813,
      "duration": 0.156,
      "velocity": 0.5,
      "hand": "left"
    },
    {
      "midi": 68,
      "time": 22.813,
      "duration": 0.156,
      "velocity": 0.5,
      "hand": "right"
    },
    {
      "midi": 49,
      "time": 22.969,
      "duration": 0.156,
      "velocity": 0.5,
      "hand": "left"
    },
    {
      "midi": 68,
      "time": 22.969,
      "duration": 0.156,
      "velocity": 0.5,
      "hand": "right"
    },
    {
      "midi": 57,
      "time": 23.125,
      "duration": 0.156,
      "velocity": 0.5,
      "hand": "left"
    },
    {
      "midi": 68,
      "time": 23.125,
      "duration": 0.156,
      "velocity": 0.5,
      "hand": "right"
    },
    {
      "midi": 49,
      "time": 23.281,
      "duration": 0.156,
      "velocity": 0.5,
      "hand": "left"
    },
    {
      "midi": 66,
      "time": 23.281,
      "duration": 0.156,
      "velocity": 0.5,
      "hand": "right"
    },
    {
      "midi": 42,
      "time": 23.438,
      "duration": 0.156,
      "velocity": 0.5,
      "hand": "left"
    },
    {
      "midi": 90,
      "time": 23.438,
      "duration": 0.156,
      "velocity": 0.6,
      "hand": "right"
    },
    {
      "midi": 49,
      "time": 23.594,
      "duration": 0.156,
      "velocity": 0.5,
      "hand": "left"
    },
    {
      "midi": 57,
      "time": 23.75,
      "duration": 0.156,
      "velocity": 0.5,
      "hand": "left"
    },
    {
      "midi": 49,
      "time": 23.906,
      "duration": 0.156,
      "velocity": 0.5,
      "hand": "left"
    },
    {
      "midi": 57,
      "time": 24.063,
      "duration": 0.156,
      "velocity": 0.5,
      "hand": "left"
    },
    {
      "midi": 49,
      "time": 24.219,
      "duration": 0.156,
      "velocity": 0.5,
      "hand": "left"
    },
    {
      "midi": 42,
      "time": 24.375,
      "duration": 0.156,
      "velocity": 0.5,
      "hand": "left"
    },
    {
      "midi": 68,
      "time": 24.375,
      "duration": 0.156,
      "velocity": 0.5,
      "hand": "right"
    },
    {
      "midi": 49,
      "time": 24.531,
      "duration": 0.156,
      "velocity": 0.5,
      "hand": "left"
    },
    {
      "midi": 68,
      "time": 24.531,
      "duration": 0.156,
      "velocity": 0.5,
      "hand": "right"
    },
    {
      "midi": 57,
      "time": 24.688,
      "duration": 0.156,
      "velocity": 0.5,
      "hand": "left"
    },
    {
      "midi": 68,
      "time": 24.688,
      "duration": 0.156,
      "velocity": 0.5,
      "hand": "right"
    },
    {
      "midi": 49,
      "time": 24.844,
      "duration": 0.156,
      "velocity": 0.5,
      "hand": "left"
    },
    {
      "midi": 68,
      "time": 24.844,
      "duration": 0.156,
      "velocity": 0.5,
      "hand": "right"
    },
    {
      "midi": 57,
      "time": 25,
      "duration": 0.156,
      "velocity": 0.5,
      "hand": "left"
    },
    {
      "midi": 68,
      "time": 25,
      "duration": 0.156,
      "velocity": 0.5,
      "hand": "right"
    },
    {
      "midi": 49,
      "time": 25.156,
      "duration": 0.156,
      "velocity": 0.5,
      "hand": "left"
    },
    {
      "midi": 66,
      "time": 25.156,
      "duration": 0.156,
      "velocity": 0.5,
      "hand": "right"
    },
    {
      "midi": 42,
      "time": 25.313,
      "duration": 0.156,
      "velocity": 0.5,
      "hand": "left"
    },
    {
      "midi": 90,
      "time": 25.313,
      "duration": 0.156,
      "velocity": 0.6,
      "hand": "right"
    },
    {
      "midi": 49,
      "time": 25.469,
      "duration": 0.156,
      "velocity": 0.5,
      "hand": "left"
    },
    {
      "midi": 57,
      "time": 25.625,
      "duration": 0.156,
      "velocity": 0.5,
      "hand": "left"
    },
    {
      "midi": 49,
      "time": 25.781,
      "duration": 0.156,
      "velocity": 0.5,
      "hand": "left"
    },
    {
      "midi": 57,
      "time": 25.938,
      "duration": 0.156,
      "velocity": 0.5,
      "hand": "left"
    },
    {
      "midi": 49,
      "time": 26.094,
      "duration": 0.156,
      "velocity": 0.5,
      "hand": "left"
    },
    {
      "midi": 40,
      "time": 26.25,
      "duration": 0.156,
      "velocity": 0.5,
      "hand": "left"
    },
    {
      "midi": 68,
      "time": 26.25,
      "duration": 0.156,
      "velocity": 0.5,
      "hand": "right"
    },
    {
      "midi": 47,
      "time": 26.406,
      "duration": 0.156,
      "velocity": 0.5,
      "hand": "left"
    },
    {
      "midi": 68,
      "time": 26.406,
      "duration": 0.156,
      "velocity": 0.5,
      "hand": "right"
    },
    {
      "midi": 56,
      "time": 26.563,
      "duration": 0.156,
      "velocity": 0.5,
      "hand": "left"
    },
    {
      "midi": 68,
      "time": 26.563,
      "duration": 0.156,
      "velocity": 0.5,
      "hand": "right"
    },
    {
      "midi": 47,
      "time": 26.719,
      "duration": 0.156,
      "velocity": 0.5,
      "hand": "left"
    },
    {
      "midi": 68,
      "time": 26.719,
      "duration": 0.156,
      "velocity": 0.5,
      "hand": "right"
    },
    {
      "midi": 56,
      "time": 26.875,
      "duration": 0.156,
      "velocity": 0.5,
      "hand": "left"
    },
    {
      "midi": 68,
      "time": 26.875,
      "duration": 0.313,
      "velocity": 0.5,
      "hand": "right"
    },
    {
      "midi": 47,
      "time": 27.031,
      "duration": 0.156,
      "velocity": 0.5,
      "hand": "left"
    },
    {
      "midi": 40,
      "time": 27.188,
      "duration": 0.156,
      "velocity": 0.5,
      "hand": "left"
    },
    {
      "midi": 68,
      "time": 27.188,
      "duration": 0.156,
      "velocity": 0.5,
      "hand": "right"
    },
    {
      "midi": 75,
      "time": 27.188,
      "duration": 0.938,
      "velocity": 0.5,
      "hand": "right"
    },
    {
      "midi": 47,
      "time": 27.344,
      "duration": 0.156,
      "velocity": 0.5,
      "hand": "left"
    },
    {
      "midi": 68,
      "time": 27.344,
      "duration": 0.156,
      "velocity": 0.5,
      "hand": "right"
    },
    {
      "midi": 56,
      "time": 27.5,
      "duration": 0.156,
      "velocity": 0.5,
      "hand": "left"
    },
    {
      "midi": 68,
      "time": 27.5,
      "duration": 0.156,
      "velocity": 0.5,
      "hand": "right"
    },
    {
      "midi": 47,
      "time": 27.656,
      "duration": 0.156,
      "velocity": 0.5,
      "hand": "left"
    },
    {
      "midi": 68,
      "time": 27.656,
      "duration": 0.156,
      "velocity": 0.5,
      "hand": "right"
    },
    {
      "midi": 56,
      "time": 27.813,
      "duration": 0.156,
      "velocity": 0.5,
      "hand": "left"
    },
    {
      "midi": 68,
      "time": 27.813,
      "duration": 0.313,
      "velocity": 0.5,
      "hand": "right"
    },
    {
      "midi": 47,
      "time": 27.969,
      "duration": 0.156,
      "velocity": 0.5,
      "hand": "left"
    },
    {
      "midi": 40,
      "time": 28.125,
      "duration": 0.156,
      "velocity": 0.5,
      "hand": "left"
    },
    {
      "midi": 68,
      "time": 28.125,
      "duration": 0.313,
      "velocity": 0.5,
      "hand": "right"
    },
    {
      "midi": 76,
      "time": 28.125,
      "duration": 0.938,
      "velocity": 0.5,
      "hand": "right"
    },
    {
      "midi": 47,
      "time": 28.281,
      "duration": 0.156,
      "velocity": 0.51,
      "hand": "left"
    },
    {
      "midi": 56,
      "time": 28.438,
      "duration": 0.156,
      "velocity": 0.52,
      "hand": "left"
    },
    {
      "midi": 68,
      "time": 28.438,
      "duration": 0.313,
      "velocity": 0.52,
      "hand": "right"
    },
    {
      "midi": 47,
      "time": 28.594,
      "duration": 0.156,
      "velocity": 0.54,
      "hand": "left"
    },
    {
      "midi": 56,
      "time": 28.75,
      "duration": 0.156,
      "velocity": 0.54,
      "hand": "left"
    },
    {
      "midi": 68,
      "time": 28.75,
      "duration": 0.156,
      "velocity": 0.54,
      "hand": "right"
    },
    {
      "midi": 47,
      "time": 28.906,
      "duration": 0.156,
      "velocity": 0.55,
      "hand": "left"
    },
    {
      "midi": 66,
      "time": 28.906,
      "duration": 0.156,
      "velocity": 0.55,
      "hand": "right"
    },
    {
      "midi": 40,
      "time": 29.063,
      "duration": 0.156,
      "velocity": 0.57,
      "hand": "left"
    },
    {
      "midi": 64,
      "time": 29.063,
      "duration": 0.313,
      "velocity": 0.57,
      "hand": "right"
    },
    {
      "midi": 78,
      "time": 29.063,
      "duration": 0.938,
      "velocity": 0.57,
      "hand": "right"
    },
    {
      "midi": 47,
      "time": 29.219,
      "duration": 0.156,
      "velocity": 0.57,
      "hand": "left"
    },
    {
      "midi": 56,
      "time": 29.375,
      "duration": 0.156,
      "velocity": 0.58,
      "hand": "left"
    },
    {
      "midi": 68,
      "time": 29.375,
      "duration": 0.313,
      "velocity": 0.58,
      "hand": "right"
    },
    {
      "midi": 47,
      "time": 29.531,
      "duration": 0.156,
      "velocity": 0.6,
      "hand": "left"
    },
    {
      "midi": 56,
      "time": 29.688,
      "duration": 0.156,
      "velocity": 0.61,
      "hand": "left"
    },
    {
      "midi": 71,
      "time": 29.688,
      "duration": 0.313,
      "velocity": 0.61,
      "hand": "right"
    },
    {
      "midi": 47,
      "time": 29.844,
      "duration": 0.156,
      "velocity": 0.61,
      "hand": "left"
    },
    {
      "midi": 45,
      "time": 30,
      "duration": 0.156,
      "velocity": 0.63,
      "hand": "left"
    },
    {
      "midi": 57,
      "time": 30,
      "duration": 0.156,
      "velocity": 0.63,
      "hand": "left"
    },
    {
      "midi": 64,
      "time": 30,
      "duration": 1.25,
      "velocity": 0.63,
      "hand": "right"
    },
    {
      "midi": 69,
      "time": 30,
      "duration": 1.25,
      "velocity": 0.63,
      "hand": "right"
    },
    {
      "midi": 52,
      "time": 30.156,
      "duration": 0.156,
      "velocity": 0.63,
      "hand": "left"
    },
    {
      "midi": 73,
      "time": 30.156,
      "duration": 1.094,
      "velocity": 0.63,
      "hand": "right"
    },
    {
      "midi": 61,
      "time": 30.313,
      "duration": 0.156,
      "velocity": 0.63,
      "hand": "right"
    },
    {
      "midi": 52,
      "time": 30.469,
      "duration": 0.156,
      "velocity": 0.63,
      "hand": "left"
    },
    {
      "midi": 61,
      "time": 30.625,
      "duration": 0.156,
      "velocity": 0.63,
      "hand": "right"
    },
    {
      "midi": 52,
      "time": 30.781,
      "duration": 0.156,
      "velocity": 0.63,
      "hand": "left"
    },
    {
      "midi": 45,
      "time": 30.938,
      "duration": 0.156,
      "velocity": 0.63,
      "hand": "left"
    },
    {
      "midi": 57,
      "time": 30.938,
      "duration": 0.156,
      "velocity": 0.63,
      "hand": "left"
    },
    {
      "midi": 52,
      "time": 31.094,
      "duration": 0.156,
      "velocity": 0.63,
      "hand": "left"
    },
    {
      "midi": 61,
      "time": 31.25,
      "duration": 0.156,
      "velocity": 0.63,
      "hand": "right"
    },
    {
      "midi": 73,
      "time": 31.25,
      "duration": 0.313,
      "velocity": 0.63,
      "hand": "right"
    },
    {
      "midi": 52,
      "time": 31.406,
      "duration": 0.156,
      "velocity": 0.63,
      "hand": "left"
    },
    {
      "midi": 61,
      "time": 31.563,
      "duration": 0.156,
      "velocity": 0.63,
      "hand": "right"
    },
    {
      "midi": 69,
      "time": 31.563,
      "duration": 0.313,
      "velocity": 0.63,
      "hand": "right"
    },
    {
      "midi": 75,
      "time": 31.563,
      "duration": 0.313,
      "velocity": 0.63,
      "hand": "right"
    },
    {
      "midi": 52,
      "time": 31.719,
      "duration": 0.156,
      "velocity": 0.63,
      "hand": "left"
    },
    {
      "midi": 45,
      "time": 31.875,
      "duration": 0.156,
      "velocity": 0.63,
      "hand": "left"
    },
    {
      "midi": 57,
      "time": 31.875,
      "duration": 0.156,
      "velocity": 0.63,
      "hand": "left"
    },
    {
      "midi": 69,
      "time": 31.875,
      "duration": 1.25,
      "velocity": 0.63,
      "hand": "right"
    },
    {
      "midi": 73,
      "time": 31.875,
      "duration": 1.25,
      "velocity": 0.63,
      "hand": "right"
    },
    {
      "midi": 76,
      "time": 31.875,
      "duration": 1.25,
      "velocity": 0.63,
      "hand": "right"
    },
    {
      "midi": 52,
      "time": 32.031,
      "duration": 0.156,
      "velocity": 0.63,
      "hand": "left"
    },
    {
      "midi": 61,
      "time": 32.188,
      "duration": 0.156,
      "velocity": 0.63,
      "hand": "right"
    },
    {
      "midi": 52,
      "time": 32.344,
      "duration": 0.156,
      "velocity": 0.63,
      "hand": "left"
    },
    {
      "midi": 61,
      "time": 32.5,
      "duration": 0.156,
      "velocity": 0.63,
      "hand": "right"
    },
    {
      "midi": 52,
      "time": 32.656,
      "duration": 0.156,
      "velocity": 0.63,
      "hand": "left"
    },
    {
      "midi": 45,
      "time": 32.813,
      "duration": 0.156,
      "velocity": 0.63,
      "hand": "left"
    },
    {
      "midi": 57,
      "time": 32.813,
      "duration": 0.156,
      "velocity": 0.63,
      "hand": "left"
    },
    {
      "midi": 52,
      "time": 32.969,
      "duration": 0.156,
      "velocity": 0.63,
      "hand": "left"
    },
    {
      "midi": 61,
      "time": 33.125,
      "duration": 0.156,
      "velocity": 0.63,
      "hand": "right"
    },
    {
      "midi": 69,
      "time": 33.125,
      "duration": 0.313,
      "velocity": 0.63,
      "hand": "right"
    },
    {
      "midi": 73,
      "time": 33.125,
      "duration": 0.313,
      "velocity": 0.63,
      "hand": "right"
    },
    {
      "midi": 52,
      "time": 33.281,
      "duration": 0.156,
      "velocity": 0.63,
      "hand": "left"
    },
    {
      "midi": 61,
      "time": 33.438,
      "duration": 0.156,
      "velocity": 0.63,
      "hand": "right"
    },
    {
      "midi": 68,
      "time": 33.438,
      "duration": 0.313,
      "velocity": 0.63,
      "hand": "right"
    },
    {
      "midi": 76,
      "time": 33.438,
      "duration": 0.313,
      "velocity": 0.63,
      "hand": "right"
    },
    {
      "midi": 52,
      "time": 33.594,
      "duration": 0.156,
      "velocity": 0.63,
      "hand": "left"
    },
    {
      "midi": 44,
      "time": 33.75,
      "duration": 0.156,
      "velocity": 0.63,
      "hand": "left"
    },
    {
      "midi": 56,
      "time": 33.75,
      "duration": 0.156,
      "velocity": 0.63,
      "hand": "left"
    },
    {
      "midi": 68,
      "time": 33.75,
      "duration": 0.313,
      "velocity": 0.63,
      "hand": "right"
    },
    {
      "midi": 75,
      "time": 33.75,
      "duration": 0.313,
      "velocity": 0.63,
      "hand": "right"
    },
    {
      "midi": 51,
      "time": 33.906,
      "duration": 0.156,
      "velocity": 0.63,
      "hand": "left"
    },
    {
      "midi": 59,
      "time": 34.063,
      "duration": 0.156,
      "velocity": 0.63,
      "hand": "left"
    },
    {
      "midi": 73,
      "time": 34.063,
      "duration": 0.313,
      "velocity": 0.63,
      "hand": "right"
    },
    {
      "midi": 51,
      "time": 34.219,
      "duration": 0.156,
      "velocity": 0.63,
      "hand": "left"
    },
    {
      "midi": 59,
      "time": 34.375,
      "duration": 0.156,
      "velocity": 0.63,
      "hand": "left"
    },
    {
      "midi": 68,
      "time": 34.375,
      "duration": 0.313,
      "velocity": 0.63,
      "hand": "right"
    },
    {
      "midi": 71,
      "time": 34.375,
      "duration": 0.313,
      "velocity": 0.63,
      "hand": "right"
    },
    {
      "midi": 51,
      "time": 34.531,
      "duration": 0.156,
      "velocity": 0.63,
      "hand": "left"
    },
    {
      "midi": 44,
      "time": 34.688,
      "duration": 0.156,
      "velocity": 0.63,
      "hand": "left"
    },
    {
      "midi": 56,
      "time": 34.688,
      "duration": 0.156,
      "velocity": 0.63,
      "hand": "left"
    },
    {
      "midi": 68,
      "time": 34.688,
      "duration": 0.625,
      "velocity": 0.63,
      "hand": "right"
    },
    {
      "midi": 71,
      "time": 34.688,
      "duration": 0.625,
      "velocity": 0.63,
      "hand": "right"
    },
    {
      "midi": 51,
      "time": 34.844,
      "duration": 0.156,
      "velocity": 0.63,
      "hand": "left"
    },
    {
      "midi": 59,
      "time": 35,
      "duration": 0.156,
      "velocity": 0.63,
      "hand": "left"
    },
    {
      "midi": 51,
      "time": 35.156,
      "duration": 0.156,
      "velocity": 0.63,
      "hand": "left"
    },
    {
      "midi": 59,
      "time": 35.313,
      "duration": 0.156,
      "velocity": 0.63,
      "hand": "left"
    },
    {
      "midi": 68,
      "time": 35.313,
      "duration": 0.313,
      "velocity": 0.63,
      "hand": "right"
    },
    {
      "midi": 51,
      "time": 35.469,
      "duration": 0.156,
      "velocity": 0.63,
      "hand": "left"
    },
    {
      "midi": 44,
      "time": 35.625,
      "duration": 0.156,
      "velocity": 0.63,
      "hand": "left"
    },
    {
      "midi": 56,
      "time": 35.625,
      "duration": 0.156,
      "velocity": 0.63,
      "hand": "left"
    },
    {
      "midi": 63,
      "time": 35.625,
      "duration": 0.313,
      "velocity": 0.63,
      "hand": "right"
    },
    {
      "midi": 68,
      "time": 35.625,
      "duration": 0.313,
      "velocity": 0.63,
      "hand": "right"
    },
    {
      "midi": 71,
      "time": 35.625,
      "duration": 0.313,
      "velocity": 0.63,
      "hand": "right"
    },
    {
      "midi": 75,
      "time": 35.625,
      "duration": 0.313,
      "velocity": 0.63,
      "hand": "right"
    },
    {
      "midi": 51,
      "time": 35.781,
      "duration": 0.156,
      "velocity": 0.63,
      "hand": "left"
    },
    {
      "midi": 59,
      "time": 35.938,
      "duration": 0.156,
      "velocity": 0.63,
      "hand": "left"
    },
    {
      "midi": 73,
      "time": 35.938,
      "duration": 0.313,
      "velocity": 0.63,
      "hand": "right"
    },
    {
      "midi": 51,
      "time": 36.094,
      "duration": 0.156,
      "velocity": 0.63,
      "hand": "left"
    },
    {
      "midi": 59,
      "time": 36.25,
      "duration": 0.156,
      "velocity": 0.63,
      "hand": "left"
    },
    {
      "midi": 68,
      "time": 36.25,
      "duration": 0.313,
      "velocity": 0.63,
      "hand": "right"
    },
    {
      "midi": 71,
      "time": 36.25,
      "duration": 0.313,
      "velocity": 0.63,
      "hand": "right"
    },
    {
      "midi": 51,
      "time": 36.406,
      "duration": 0.156,
      "velocity": 0.63,
      "hand": "left"
    },
    {
      "midi": 43,
      "time": 36.563,
      "duration": 0.156,
      "velocity": 0.63,
      "hand": "left"
    },
    {
      "midi": 55,
      "time": 36.563,
      "duration": 0.156,
      "velocity": 0.63,
      "hand": "left"
    },
    {
      "midi": 63,
      "time": 36.563,
      "duration": 0.313,
      "velocity": 0.63,
      "hand": "right"
    },
    {
      "midi": 67,
      "time": 36.563,
      "duration": 0.313,
      "velocity": 0.63,
      "hand": "right"
    },
    {
      "midi": 71,
      "time": 36.563,
      "duration": 0.313,
      "velocity": 0.63,
      "hand": "right"
    },
    {
      "midi": 75,
      "time": 36.563,
      "duration": 0.313,
      "velocity": 0.63,
      "hand": "right"
    },
    {
      "midi": 51,
      "time": 36.719,
      "duration": 0.156,
      "velocity": 0.63,
      "hand": "left"
    },
    {
      "midi": 59,
      "time": 36.875,
      "duration": 0.156,
      "velocity": 0.63,
      "hand": "left"
    },
    {
      "midi": 73,
      "time": 36.875,
      "duration": 0.313,
      "velocity": 0.63,
      "hand": "right"
    },
    {
      "midi": 51,
      "time": 37.031,
      "duration": 0.156,
      "velocity": 0.63,
      "hand": "left"
    },
    {
      "midi": 59,
      "time": 37.188,
      "duration": 0.156,
      "velocity": 0.63,
      "hand": "left"
    },
    {
      "midi": 67,
      "time": 37.188,
      "duration": 0.313,
      "velocity": 0.63,
      "hand": "right"
    },
    {
      "midi": 71,
      "time": 37.188,
      "duration": 0.313,
      "velocity": 0.63,
      "hand": "right"
    },
    {
      "midi": 51,
      "time": 37.344,
      "duration": 0.156,
      "velocity": 0.63,
      "hand": "left"
    },
    {
      "midi": 42,
      "time": 37.5,
      "duration": 0.156,
      "velocity": 0.63,
      "hand": "left"
    },
    {
      "midi": 54,
      "time": 37.5,
      "duration": 0.156,
      "velocity": 0.63,
      "hand": "left"
    },
    {
      "midi": 66,
      "time": 37.5,
      "duration": 2.344,
      "velocity": 0.63,
      "hand": "right"
    },
    {
      "midi": 71,
      "time": 37.5,
      "duration": 0.156,
      "velocity": 0.63,
      "hand": "right"
    },
    {
      "midi": 49,
      "time": 37.656,
      "duration": 0.156,
      "velocity": 0.63,
      "hand": "left"
    },
    {
      "midi": 69,
      "time": 37.656,
      "duration": 2.188,
      "velocity": 0.63,
      "hand": "right"
    },
    {
      "midi": 57,
      "time": 37.813,
      "duration": 0.156,
      "velocity": 0.63,
      "hand": "left"
    },
    {
      "midi": 49,
      "time": 37.969,
      "duration": 0.156,
      "velocity": 0.63,
      "hand": "left"
    },
    {
      "midi": 57,
      "time": 38.125,
      "duration": 0.156,
      "velocity": 0.63,
      "hand": "left"
    },
    {
      "midi": 49,
      "time": 38.281,
      "duration": 0.156,
      "velocity": 0.63,
      "hand": "left"
    },
    {
      "midi": 42,
      "time": 38.438,
      "duration": 0.156,
      "velocity": 0.63,
      "hand": "left"
    },
    {
      "midi": 54,
      "time": 38.438,
      "duration": 0.156,
      "velocity": 0.63,
      "hand": "left"
    },
    {
      "midi": 49,
      "time": 38.594,
      "duration": 0.156,
      "velocity": 0.63,
      "hand": "left"
    },
    {
      "midi": 57,
      "time": 38.75,
      "duration": 0.156,
      "velocity": 0.63,
      "hand": "left"
    },
    {
      "midi": 49,
      "time": 38.906,
      "duration": 0.156,
      "velocity": 0.63,
      "hand": "left"
    },
    {
      "midi": 57,
      "time": 39.063,
      "duration": 0.156,
      "velocity": 0.63,
      "hand": "left"
    },
    {
      "midi": 49,
      "time": 39.219,
      "duration": 0.156,
      "velocity": 0.63,
      "hand": "left"
    },
    {
      "midi": 42,
      "time": 39.375,
      "duration": 0.156,
      "velocity": 0.63,
      "hand": "left"
    },
    {
      "midi": 54,
      "time": 39.375,
      "duration": 0.156,
      "velocity": 0.63,
      "hand": "left"
    },
    {
      "midi": 49,
      "time": 39.531,
      "duration": 0.156,
      "velocity": 0.63,
      "hand": "left"
    },
    {
      "midi": 57,
      "time": 39.688,
      "duration": 0.156,
      "velocity": 0.63,
      "hand": "left"
    },
    {
      "midi": 49,
      "time": 39.844,
      "duration": 0.156,
      "velocity": 0.63,
      "hand": "left"
    },
    {
      "midi": 57,
      "time": 40,
      "duration": 0.156,
      "velocity": 0.63,
      "hand": "left"
    },
    {
      "midi": 64,
      "time": 40,
      "duration": 0.313,
      "velocity": 0.63,
      "hand": "right"
    },
    {
      "midi": 73,
      "time": 40,
      "duration": 0.313,
      "velocity": 0.63,
      "hand": "right"
    },
    {
      "midi": 49,
      "time": 40.156,
      "duration": 0.156,
      "velocity": 0.63,
      "hand": "left"
    },
    {
      "midi": 42,
      "time": 40.313,
      "duration": 0.156,
      "velocity": 0.63,
      "hand": "left"
    },
    {
      "midi": 54,
      "time": 40.313,
      "duration": 0.156,
      "velocity": 0.63,
      "hand": "left"
    },
    {
      "midi": 61,
      "time": 40.313,
      "duration": 0.313,
      "velocity": 0.63,
      "hand": "right"
    },
    {
      "midi": 64,
      "time": 40.313,
      "duration": 0.313,
      "velocity": 0.63,
      "hand": "right"
    },
    {
      "midi": 66,
      "time": 40.313,
      "duration": 0.313,
      "velocity": 0.63,
      "hand": "right"
    },
    {
      "midi": 71,
      "time": 40.313,
      "duration": 0.313,
      "velocity": 0.63,
      "hand": "right"
    },
    {
      "midi": 49,
      "time": 40.469,
      "duration": 0.156,
      "velocity": 0.63,
      "hand": "left"
    },
    {
      "midi": 57,
      "time": 40.625,
      "duration": 0.156,
      "velocity": 0.63,
      "hand": "left"
    },
    {
      "midi": 66,
      "time": 40.625,
      "duration": 0.313,
      "velocity": 0.63,
      "hand": "right"
    },
    {
      "midi": 69,
      "time": 40.625,
      "duration": 0.313,
      "velocity": 0.63,
      "hand": "right"
    },
    {
      "midi": 49,
      "time": 40.781,
      "duration": 0.156,
      "velocity": 0.63,
      "hand": "left"
    },
    {
      "midi": 57,
      "time": 40.938,
      "duration": 0.156,
      "velocity": 0.63,
      "hand": "left"
    },
    {
      "midi": 66,
      "time": 40.938,
      "duration": 0.313,
      "velocity": 0.63,
      "hand": "right"
    },
    {
      "midi": 68,
      "time": 40.938,
      "duration": 0.313,
      "velocity": 0.63,
      "hand": "right"
    },
    {
      "midi": 49,
      "time": 41.094,
      "duration": 0.156,
      "velocity": 0.63,
      "hand": "left"
    },
    {
      "midi": 44,
      "time": 41.25,
      "duration": 0.313,
      "velocity": 0.63,
      "hand": "left"
    },
    {
      "midi": 56,
      "time": 41.25,
      "duration": 0.313,
      "velocity": 0.63,
      "hand": "left"
    },
    {
      "midi": 60,
      "time": 41.25,
      "duration": 0.938,
      "velocity": 0.63,
      "hand": "right"
    },
    {
      "midi": 63,
      "time": 41.25,
      "duration": 0.938,
      "velocity": 0.63,
      "hand": "right"
    },
    {
      "midi": 68,
      "time": 41.25,
      "duration": 0.938,
      "velocity": 0.63,
      "hand": "right"
    },
    {
      "midi": 44,
      "time": 41.563,
      "duration": 0.313,
      "velocity": 0.64,
      "hand": "left"
    },
    {
      "midi": 56,
      "time": 41.563,
      "duration": 0.313,
      "velocity": 0.64,
      "hand": "left"
    },
    {
      "midi": 44,
      "time": 41.875,
      "duration": 0.313,
      "velocity": 0.65,
      "hand": "left"
    },
    {
      "midi": 56,
      "time": 41.875,
      "duration": 0.313,
      "velocity": 0.65,
      "hand": "left"
    },
    {
      "midi": 44,
      "time": 42.188,
      "duration": 0.313,
      "velocity": 0.66,
      "hand": "left"
    },
    {
      "midi": 56,
      "time": 42.188,
      "duration": 0.313,
      "velocity": 0.66,
      "hand": "left"
    },
    {
      "midi": 61,
      "time": 42.188,
      "duration": 0.938,
      "velocity": 0.66,
      "hand": "right"
    },
    {
      "midi": 68,
      "time": 42.188,
      "duration": 0.938,
      "velocity": 0.66,
      "hand": "right"
    },
    {
      "midi": 73,
      "time": 42.188,
      "duration": 0.938,
      "velocity": 0.66,
      "hand": "right"
    },
    {
      "midi": 44,
      "time": 42.5,
      "duration": 0.313,
      "velocity": 0.67,
      "hand": "left"
    },
    {
      "midi": 56,
      "time": 42.5,
      "duration": 0.313,
      "velocity": 0.67,
      "hand": "left"
    },
    {
      "midi": 44,
      "time": 42.813,
      "duration": 0.313,
      "velocity": 0.68,
      "hand": "left"
    },
    {
      "midi": 56,
      "time": 42.813,
      "duration": 0.313,
      "velocity": 0.68,
      "hand": "left"
    },
    {
      "midi": 51,
      "time": 43.125,
      "duration": 0.156,
      "velocity": 0.69,
      "hand": "left"
    },
    {
      "midi": 56,
      "time": 43.125,
      "duration": 0.156,
      "velocity": 0.69,
      "hand": "left"
    },
    {
      "midi": 64,
      "time": 43.125,
      "duration": 0.938,
      "velocity": 0.69,
      "hand": "right"
    },
    {
      "midi": 68,
      "time": 43.125,
      "duration": 0.938,
      "velocity": 0.69,
      "hand": "right"
    },
    {
      "midi": 76,
      "time": 43.125,
      "duration": 0.938,
      "velocity": 0.69,
      "hand": "right"
    },
    {
      "midi": 44,
      "time": 43.281,
      "duration": 0.156,
      "velocity": 0.69,
      "hand": "left"
    },
    {
      "midi": 51,
      "time": 43.438,
      "duration": 0.156,
      "velocity": 0.7,
      "hand": "left"
    },
    {
      "midi": 56,
      "time": 43.438,
      "duration": 0.156,
      "velocity": 0.7,
      "hand": "left"
    },
    {
      "midi": 44,
      "time": 43.594,
      "duration": 0.156,
      "velocity": 0.71,
      "hand": "left"
    },
    {
      "midi": 51,
      "time": 43.75,
      "duration": 0.156,
      "velocity": 0.71,
      "hand": "left"
    },
    {
      "midi": 56,
      "time": 43.75,
      "duration": 0.156,
      "velocity": 0.71,
      "hand": "left"
    },
    {
      "midi": 44,
      "time": 43.906,
      "duration": 0.156,
      "velocity": 0.72,
      "hand": "left"
    },
    {
      "midi": 60,
      "time": 44.063,
      "duration": 0.938,
      "velocity": 0.87,
      "hand": "right"
    },
    {
      "midi": 63,
      "time": 44.063,
      "duration": 0.938,
      "velocity": 0.87,
      "hand": "right"
    },
    {
      "midi": 66,
      "time": 44.063,
      "duration": 0.938,
      "velocity": 0.87,
      "hand": "right"
    },
    {
      "midi": 68,
      "time": 44.063,
      "duration": 0.938,
      "velocity": 0.87,
      "hand": "right"
    },
    {
      "midi": 72,
      "time": 44.063,
      "duration": 0.938,
      "velocity": 0.87,
      "hand": "right"
    },
    {
      "midi": 78,
      "time": 44.063,
      "duration": 0.938,
      "velocity": 0.87,
      "hand": "right"
    },
    {
      "midi": 33,
      "time": 45,
      "duration": 0.313,
      "velocity": 0.91,
      "hand": "left"
    },
    {
      "midi": 45,
      "time": 45,
      "duration": 0.313,
      "velocity": 0.91,
      "hand": "left"
    },
    {
      "midi": 80,
      "time": 45,
      "duration": 0.078,
      "velocity": 0.76,
      "hand": "right"
    },
    {
      "midi": 80,
      "time": 45,
      "duration": 0.156,
      "velocity": 0.91,
      "hand": "right"
    },
    {
      "midi": 85,
      "time": 45,
      "duration": 0.469,
      "velocity": 0.91,
      "hand": "right"
    },
    {
      "midi": 88,
      "time": 45,
      "duration": 1.719,
      "velocity": 0.91,
      "hand": "right"
    },
    {
      "midi": 92,
      "time": 45,
      "duration": 1.719,
      "velocity": 0.91,
      "hand": "right"
    },
    {
      "midi": 80,
      "time": 45.156,
      "duration": 0.625,
      "velocity": 0.76,
      "hand": "right"
    },
    {
      "midi": 83,
      "time": 45.313,
      "duration": 0.156,
      "velocity": 0.76,
      "hand": "right"
    },
    {
      "midi": 85,
      "time": 45.469,
      "duration": 0.938,
      "velocity": 0.76,
      "hand": "right"
    },
    {
      "midi": 83,
      "time": 45.625,
      "duration": 0.156,
      "velocity": 0.76,
      "hand": "right"
    },
    {
      "midi": 80,
      "time": 45.781,
      "duration": 0.313,
      "velocity": 0.76,
      "hand": "right"
    },
    {
      "midi": 56,
      "time": 45.938,
      "duration": 0.938,
      "velocity": 0.76,
      "hand": "left"
    },
    {
      "midi": 61,
      "time": 45.938,
      "duration": 0.938,
      "velocity": 0.76,
      "hand": "right"
    },
    {
      "midi": 64,
      "time": 45.938,
      "duration": 0.938,
      "velocity": 0.76,
      "hand": "right"
    },
    {
      "midi": 78,
      "time": 45.938,
      "duration": 0.156,
      "velocity": 0.76,
      "hand": "right"
    },
    {
      "midi": 80,
      "time": 46.094,
      "duration": 0.625,
      "velocity": 0.76,
      "hand": "right"
    },
    {
      "midi": 83,
      "time": 46.25,
      "duration": 0.156,
      "velocity": 0.76,
      "hand": "right"
    },
    {
      "midi": 85,
      "time": 46.406,
      "duration": 0.313,
      "velocity": 0.76,
      "hand": "right"
    },
    {
      "midi": 83,
      "time": 46.563,
      "duration": 0.156,
      "velocity": 0.76,
      "hand": "right"
    },
    {
      "midi": 80,
      "time": 46.719,
      "duration": 0.156,
      "velocity": 0.76,
      "hand": "right"
    },
    {
      "midi": 68,
      "time": 46.875,
      "duration": 0.938,
      "velocity": 0.76,
      "hand": "right"
    },
    {
      "midi": 73,
      "time": 46.875,
      "duration": 0.938,
      "velocity": 0.76,
      "hand": "right"
    },
    {
      "midi": 76,
      "time": 46.875,
      "duration": 0.938,
      "velocity": 0.76,
      "hand": "right"
    },
    {
      "midi": 78,
      "time": 46.875,
      "duration": 0.156,
      "velocity": 0.76,
      "hand": "right"
    },
    {
      "midi": 80,
      "time": 47.031,
      "duration": 0.156,
      "velocity": 0.76,
      "hand": "right"
    },
    {
      "midi": 83,
      "time": 47.188,
      "duration": 0.156,
      "velocity": 0.76,
      "hand": "right"
    },
    {
      "midi": 85,
      "time": 47.344,
      "duration": 0.156,
      "velocity": 0.76,
      "hand": "right"
    },
    {
      "midi": 83,
      "time": 47.5,
      "duration": 0.156,
      "velocity": 0.76,
      "hand": "right"
    },
    {
      "midi": 80,
      "time": 47.656,
      "duration": 0.156,
      "velocity": 0.76,
      "hand": "right"
    },
    {
      "midi": 61,
      "time": 47.813,
      "duration": 0.938,
      "velocity": 0.76,
      "hand": "right"
    },
    {
      "midi": 64,
      "time": 47.813,
      "duration": 0.938,
      "velocity": 0.76,
      "hand": "right"
    },
    {
      "midi": 68,
      "time": 47.813,
      "duration": 0.938,
      "velocity": 0.76,
      "hand": "right"
    },
    {
      "midi": 78,
      "time": 47.813,
      "duration": 0.156,
      "velocity": 0.76,
      "hand": "right"
    },
    {
      "midi": 80,
      "time": 47.969,
      "duration": 0.156,
      "velocity": 0.76,
      "hand": "right"
    },
    {
      "midi": 83,
      "time": 48.125,
      "duration": 0.156,
      "velocity": 0.76,
      "hand": "right"
    },
    {
      "midi": 85,
      "time": 48.281,
      "duration": 0.156,
      "velocity": 0.76,
      "hand": "right"
    },
    {
      "midi": 83,
      "time": 48.438,
      "duration": 0.156,
      "velocity": 0.76,
      "hand": "right"
    },
    {
      "midi": 80,
      "time": 48.594,
      "duration": 0.156,
      "velocity": 0.76,
      "hand": "right"
    },
    {
      "midi": 33,
      "time": 48.75,
      "duration": 0.313,
      "velocity": 0.76,
      "hand": "left"
    },
    {
      "midi": 45,
      "time": 48.75,
      "duration": 0.313,
      "velocity": 0.76,
      "hand": "left"
    },
    {
      "midi": 73,
      "time": 48.75,
      "duration": 0.938,
      "velocity": 0.76,
      "hand": "right"
    },
    {
      "midi": 76,
      "time": 48.75,
      "duration": 0.938,
      "velocity": 0.76,
      "hand": "right"
    },
    {
      "midi": 80,
      "time": 48.75,
      "duration": 0.938,
      "velocity": 0.76,
      "hand": "right"
    },
    {
      "midi": 85,
      "time": 48.75,
      "duration": 0.938,
      "velocity": 0.76,
      "hand": "right"
    },
    {
      "midi": 45,
      "time": 49.688,
      "duration": 0.938,
      "velocity": 0.76,
      "hand": "left"
    },
    {
      "midi": 52,
      "time": 49.688,
      "duration": 0.938,
      "velocity": 0.76,
      "hand": "left"
    },
    {
      "midi": 56,
      "time": 49.688,
      "duration": 0.938,
      "velocity": 0.76,
      "hand": "left"
    },
    {
      "midi": 75,
      "time": 49.688,
      "duration": 0.938,
      "velocity": 0.76,
      "hand": "right"
    },
    {
      "midi": 80,
      "time": 49.688,
      "duration": 0.938,
      "velocity": 0.76,
      "hand": "right"
    },
    {
      "midi": 87,
      "time": 49.688,
      "duration": 0.938,
      "velocity": 0.76,
      "hand": "right"
    },
    {
      "midi": 33,
      "time": 50.625,
      "duration": 0.313,
      "velocity": 0.91,
      "hand": "left"
    },
    {
      "midi": 45,
      "time": 50.625,
      "duration": 0.313,
      "velocity": 0.91,
      "hand": "left"
    },
    {
      "midi": 83,
      "time": 50.625,
      "duration": 0.078,
      "velocity": 0.76,
      "hand": "right"
    },
    {
      "midi": 88,
      "time": 50.625,
      "duration": 0.078,
      "velocity": 0.76,
      "hand": "right"
    },
    {
      "midi": 95,
      "time": 50.625,
      "duration": 0.078,
      "velocity": 0.76,
      "hand": "right"
    },
    {
      "midi": 83,
      "time": 50.781,
      "duration": 0.078,
      "velocity": 0.76,
      "hand": "right"
    },
    {
      "midi": 88,
      "time": 50.781,
      "duration": 0.078,
      "velocity": 0.76,
      "hand": "right"
    },
    {
      "midi": 95,
      "time": 50.781,
      "duration": 0.078,
      "velocity": 0.76,
      "hand": "right"
    },
    {
      "midi": 52,
      "time": 50.938,
      "duration": 0.313,
      "velocity": 0.76,
      "hand": "left"
    },
    {
      "midi": 60,
      "time": 50.938,
      "duration": 0.313,
      "velocity": 0.76,
      "hand": "right"
    },
    {
      "midi": 83,
      "time": 50.938,
      "duration": 0.078,
      "velocity": 0.76,
      "hand": "right"
    },
    {
      "midi": 88,
      "time": 50.938,
      "duration": 0.078,
      "velocity": 0.76,
      "hand": "right"
    },
    {
      "midi": 95,
      "time": 50.938,
      "duration": 0.078,
      "velocity": 0.76,
      "hand": "right"
    },
    {
      "midi": 83,
      "time": 51.094,
      "duration": 0.078,
      "velocity": 0.76,
      "hand": "right"
    },
    {
      "midi": 88,
      "time": 51.094,
      "duration": 0.078,
      "velocity": 0.76,
      "hand": "right"
    },
    {
      "midi": 95,
      "time": 51.094,
      "duration": 0.078,
      "velocity": 0.76,
      "hand": "right"
    },
    {
      "midi": 52,
      "time": 51.25,
      "duration": 0.313,
      "velocity": 0.76,
      "hand": "left"
    },
    {
      "midi": 60,
      "time": 51.25,
      "duration": 0.313,
      "velocity": 0.76,
      "hand": "right"
    },
    {
      "midi": 83,
      "time": 51.25,
      "duration": 0.078,
      "velocity": 0.76,
      "hand": "right"
    },
    {
      "midi": 88,
      "time": 51.25,
      "duration": 0.078,
      "velocity": 0.76,
      "hand": "right"
    },
    {
      "midi": 95,
      "time": 51.25,
      "duration": 0.078,
      "velocity": 0.76,
      "hand": "right"
    },
    {
      "midi": 83,
      "time": 51.406,
      "duration": 0.078,
      "velocity": 0.76,
      "hand": "right"
    },
    {
      "midi": 88,
      "time": 51.406,
      "duration": 0.078,
      "velocity": 0.76,
      "hand": "right"
    },
    {
      "midi": 95,
      "time": 51.406,
      "duration": 0.078,
      "velocity": 0.76,
      "hand": "right"
    },
    {
      "midi": 42,
      "time": 51.563,
      "duration": 0.313,
      "velocity": 0.91,
      "hand": "left"
    },
    {
      "midi": 54,
      "time": 51.563,
      "duration": 0.313,
      "velocity": 0.91,
      "hand": "left"
    },
    {
      "midi": 81,
      "time": 51.563,
      "duration": 0.078,
      "velocity": 0.76,
      "hand": "right"
    },
    {
      "midi": 90,
      "time": 51.563,
      "duration": 0.078,
      "velocity": 0.76,
      "hand": "right"
    },
    {
      "midi": 93,
      "time": 51.563,
      "duration": 0.078,
      "velocity": 0.76,
      "hand": "right"
    },
    {
      "midi": 81,
      "time": 51.719,
      "duration": 0.078,
      "velocity": 0.76,
      "hand": "right"
    },
    {
      "midi": 90,
      "time": 51.719,
      "duration": 0.078,
      "velocity": 0.76,
      "hand": "right"
    },
    {
      "midi": 93,
      "time": 51.719,
      "duration": 0.078,
      "velocity": 0.76,
      "hand": "right"
    },
    {
      "midi": 57,
      "time": 51.875,
      "duration": 0.313,
      "velocity": 0.76,
      "hand": "left"
    },
    {
      "midi": 60,
      "time": 51.875,
      "duration": 0.313,
      "velocity": 0.76,
      "hand": "right"
    },
    {
      "midi": 64,
      "time": 51.875,
      "duration": 0.313,
      "velocity": 0.76,
      "hand": "right"
    },
    {
      "midi": 81,
      "time": 51.875,
      "duration": 0.078,
      "velocity": 0.76,
      "hand": "right"
    },
    {
      "midi": 90,
      "time": 51.875,
      "duration": 0.078,
      "velocity": 0.76,
      "hand": "right"
    },
    {
      "midi": 93,
      "time": 51.875,
      "duration": 0.078,
      "velocity": 0.76,
      "hand": "right"
    },
    {
      "midi": 81,
      "time": 52.031,
      "duration": 0.078,
      "velocity": 0.76,
      "hand": "right"
    },
    {
      "midi": 90,
      "time": 52.031,
      "duration": 0.078,
      "velocity": 0.76,
      "hand": "right"
    },
    {
      "midi": 93,
      "time": 52.031,
      "duration": 0.078,
      "velocity": 0.76,
      "hand": "right"
    },
    {
      "midi": 57,
      "time": 52.188,
      "duration": 0.313,
      "velocity": 0.76,
      "hand": "left"
    },
    {
      "midi": 60,
      "time": 52.188,
      "duration": 0.313,
      "velocity": 0.76,
      "hand": "right"
    },
    {
      "midi": 64,
      "time": 52.188,
      "duration": 0.313,
      "velocity": 0.76,
      "hand": "right"
    },
    {
      "midi": 81,
      "time": 52.188,
      "duration": 0.078,
      "velocity": 0.76,
      "hand": "right"
    },
    {
      "midi": 90,
      "time": 52.188,
      "duration": 0.078,
      "velocity": 0.76,
      "hand": "right"
    },
    {
      "midi": 93,
      "time": 52.188,
      "duration": 0.078,
      "velocity": 0.76,
      "hand": "right"
    },
    {
      "midi": 81,
      "time": 52.344,
      "duration": 0.078,
      "velocity": 0.76,
      "hand": "right"
    },
    {
      "midi": 90,
      "time": 52.344,
      "duration": 0.078,
      "velocity": 0.76,
      "hand": "right"
    },
    {
      "midi": 93,
      "time": 52.344,
      "duration": 0.078,
      "velocity": 0.76,
      "hand": "right"
    },
    {
      "midi": 28,
      "time": 52.5,
      "duration": 0.313,
      "velocity": 0.91,
      "hand": "left"
    },
    {
      "midi": 40,
      "time": 52.5,
      "duration": 0.313,
      "velocity": 0.91,
      "hand": "left"
    },
    {
      "midi": 80,
      "time": 52.5,
      "duration": 0.078,
      "velocity": 0.76,
      "hand": "right"
    },
    {
      "midi": 80,
      "time": 52.5,
      "duration": 0.469,
      "velocity": 0.91,
      "hand": "right"
    },
    {
      "midi": 87,
      "time": 52.5,
      "duration": 1.719,
      "velocity": 0.91,
      "hand": "right"
    },
    {
      "midi": 88,
      "time": 52.5,
      "duration": 1.719,
      "velocity": 0.91,
      "hand": "right"
    },
    {
      "midi": 92,
      "time": 52.5,
      "duration": 1.719,
      "velocity": 0.91,
      "hand": "right"
    },
    {
      "midi": 76,
      "time": 52.656,
      "duration": 0.156,
      "velocity": 0.76,
      "hand": "right"
    },
    {
      "midi": 56,
      "time": 52.813,
      "duration": 0.313,
      "velocity": 0.76,
      "hand": "left"
    },
    {
      "midi": 59,
      "time": 52.813,
      "duration": 0.313,
      "velocity": 0.76,
      "hand": "left"
    },
    {
      "midi": 63,
      "time": 52.813,
      "duration": 0.313,
      "velocity": 0.76,
      "hand": "right"
    },
    {
      "midi": 78,
      "time": 52.813,
      "duration": 0.156,
      "velocity": 0.76,
      "hand": "right"
    },
    {
      "midi": 80,
      "time": 52.969,
      "duration": 0.938,
      "velocity": 0.76,
      "hand": "right"
    },
    {
      "midi": 56,
      "time": 53.125,
      "duration": 0.313,
      "velocity": 0.76,
      "hand": "left"
    },
    {
      "midi": 59,
      "time": 53.125,
      "duration": 0.313,
      "velocity": 0.76,
      "hand": "left"
    },
    {
      "midi": 63,
      "time": 53.125,
      "duration": 0.313,
      "velocity": 0.76,
      "hand": "right"
    },
    {
      "midi": 78,
      "time": 53.125,
      "duration": 0.156,
      "velocity": 0.76,
      "hand": "right"
    },
    {
      "midi": 76,
      "time": 53.281,
      "duration": 0.156,
      "velocity": 0.76,
      "hand": "right"
    },
    {
      "midi": 40,
      "time": 53.438,
      "duration": 0.313,
      "velocity": 0.91,
      "hand": "left"
    },
    {
      "midi": 52,
      "time": 53.438,
      "duration": 0.313,
      "velocity": 0.91,
      "hand": "left"
    },
    {
      "midi": 75,
      "time": 53.438,
      "duration": 0.156,
      "velocity": 0.76,
      "hand": "right"
    },
    {
      "midi": 76,
      "time": 53.594,
      "duration": 0.156,
      "velocity": 0.76,
      "hand": "right"
    },
    {
      "midi": 56,
      "time": 53.75,
      "duration": 0.313,
      "velocity": 0.76,
      "hand": "left"
    },
    {
      "midi": 59,
      "time": 53.75,
      "duration": 0.313,
      "velocity": 0.76,
      "hand": "left"
    },
    {
      "midi": 63,
      "time": 53.75,
      "duration": 0.313,
      "velocity": 0.76,
      "hand": "right"
    },
    {
      "midi": 78,
      "time": 53.75,
      "duration": 0.156,
      "velocity": 0.76,
      "hand": "right"
    },
    {
      "midi": 80,
      "time": 53.906,
      "duration": 0.313,
      "velocity": 0.76,
      "hand": "right"
    },
    {
      "midi": 56,
      "time": 54.063,
      "duration": 0.313,
      "velocity": 0.76,
      "hand": "left"
    },
    {
      "midi": 59,
      "time": 54.063,
      "duration": 0.313,
      "velocity": 0.76,
      "hand": "left"
    },
    {
      "midi": 63,
      "time": 54.063,
      "duration": 0.313,
      "velocity": 0.76,
      "hand": "right"
    },
    {
      "midi": 78,
      "time": 54.063,
      "duration": 0.156,
      "velocity": 0.76,
      "hand": "right"
    },
    {
      "midi": 76,
      "time": 54.219,
      "duration": 0.156,
      "velocity": 0.76,
      "hand": "right"
    },
    {
      "midi": 68,
      "time": 54.375,
      "duration": 0.625,
      "velocity": 0.76,
      "hand": "right"
    },
    {
      "midi": 71,
      "time": 54.375,
      "duration": 0.625,
      "velocity": 0.76,
      "hand": "right"
    },
    {
      "midi": 75,
      "time": 54.375,
      "duration": 0.156,
      "velocity": 0.76,
      "hand": "right"
    },
    {
      "midi": 76,
      "time": 54.531,
      "duration": 0.156,
      "velocity": 0.76,
      "hand": "right"
    },
    {
      "midi": 78,
      "time": 54.688,
      "duration": 0.156,
      "velocity": 0.76,
      "hand": "right"
    },
    {
      "midi": 80,
      "time": 54.844,
      "duration": 0.156,
      "velocity": 0.76,
      "hand": "right"
    },
    {
      "midi": 68,
      "time": 55,
      "duration": 0.313,
      "velocity": 0.76,
      "hand": "right"
    },
    {
      "midi": 71,
      "time": 55,
      "duration": 0.313,
      "velocity": 0.76,
      "hand": "right"
    },
    {
      "midi": 75,
      "time": 55,
      "duration": 0.313,
      "velocity": 0.76,
      "hand": "right"
    },
    {
      "midi": 78,
      "time": 55,
      "duration": 0.156,
      "velocity": 0.76,
      "hand": "right"
    },
    {
      "midi": 76,
      "time": 55.156,
      "duration": 0.156,
      "velocity": 0.76,
      "hand": "right"
    },
    {
      "midi": 59,
      "time": 55.313,
      "duration": 0.625,
      "velocity": 0.76,
      "hand": "left"
    },
    {
      "midi": 63,
      "time": 55.313,
      "duration": 0.625,
      "velocity": 0.76,
      "hand": "right"
    },
    {
      "midi": 68,
      "time": 55.313,
      "duration": 0.625,
      "velocity": 0.76,
      "hand": "right"
    },
    {
      "midi": 75,
      "time": 55.313,
      "duration": 0.156,
      "velocity": 0.76,
      "hand": "right"
    },
    {
      "midi": 76,
      "time": 55.469,
      "duration": 0.156,
      "velocity": 0.76,
      "hand": "right"
    },
    {
      "midi": 78,
      "time": 55.625,
      "duration": 0.156,
      "velocity": 0.76,
      "hand": "right"
    },
    {
      "midi": 80,
      "time": 55.781,
      "duration": 0.156,
      "velocity": 0.76,
      "hand": "right"
    },
    {
      "midi": 59,
      "time": 55.938,
      "duration": 0.313,
      "velocity": 0.76,
      "hand": "left"
    },
    {
      "midi": 63,
      "time": 55.938,
      "duration": 0.313,
      "velocity": 0.76,
      "hand": "right"
    },
    {
      "midi": 68,
      "time": 55.938,
      "duration": 0.313,
      "velocity": 0.76,
      "hand": "right"
    },
    {
      "midi": 78,
      "time": 55.938,
      "duration": 0.156,
      "velocity": 0.76,
      "hand": "right"
    },
    {
      "midi": 76,
      "time": 56.094,
      "duration": 0.156,
      "velocity": 0.76,
      "hand": "right"
    },
    {
      "midi": 28,
      "time": 56.25,
      "duration": 0.313,
      "velocity": 0.91,
      "hand": "left"
    },
    {
      "midi": 40,
      "time": 56.25,
      "duration": 0.313,
      "velocity": 0.91,
      "hand": "left"
    },
    {
      "midi": 75,
      "time": 56.25,
      "duration": 0.156,
      "velocity": 0.76,
      "hand": "right"
    },
    {
      "midi": 76,
      "time": 56.406,
      "duration": 0.156,
      "velocity": 0.76,
      "hand": "right"
    },
    {
      "midi": 78,
      "time": 56.563,
      "duration": 0.156,
      "velocity": 0.76,
      "hand": "right"
    },
    {
      "midi": 80,
      "time": 56.719,
      "duration": 0.156,
      "velocity": 0.76,
      "hand": "right"
    },
    {
      "midi": 40,
      "time": 56.875,
      "duration": 0.313,
      "velocity": 0.76,
      "hand": "left"
    },
    {
      "midi": 52,
      "time": 56.875,
      "duration": 0.313,
      "velocity": 0.76,
      "hand": "left"
    },
    {
      "midi": 78,
      "time": 56.875,
      "duration": 0.156,
      "velocity": 0.76,
      "hand": "right"
    },
    {
      "midi": 76,
      "time": 57.031,
      "duration": 0.156,
      "velocity": 0.76,
      "hand": "right"
    },
    {
      "midi": 56,
      "time": 57.188,
      "duration": 0.625,
      "velocity": 0.76,
      "hand": "left"
    },
    {
      "midi": 59,
      "time": 57.188,
      "duration": 0.625,
      "velocity": 0.76,
      "hand": "left"
    },
    {
      "midi": 63,
      "time": 57.188,
      "duration": 0.625,
      "velocity": 0.76,
      "hand": "right"
    },
    {
      "midi": 87,
      "time": 57.188,
      "duration": 0.938,
      "velocity": 0.91,
      "hand": "right"
    },
    {
      "midi": 76,
      "time": 57.344,
      "duration": 0.156,
      "velocity": 0.76,
      "hand": "right"
    },
    {
      "midi": 78,
      "time": 57.5,
      "duration": 0.156,
      "velocity": 0.76,
      "hand": "right"
    },
    {
      "midi": 80,
      "time": 57.656,
      "duration": 0.156,
      "velocity": 0.76,
      "hand": "right"
    },
    {
      "midi": 56,
      "time": 57.813,
      "duration": 0.313,
      "velocity": 0.76,
      "hand": "left"
    },
    {
      "midi": 59,
      "time": 57.813,
      "duration": 0.313,
      "velocity": 0.76,
      "hand": "left"
    },
    {
      "midi": 63,
      "time": 57.813,
      "duration": 0.313,
      "velocity": 0.76,
      "hand": "right"
    },
    {
      "midi": 78,
      "time": 57.813,
      "duration": 0.156,
      "velocity": 0.76,
      "hand": "right"
    },
    {
      "midi": 76,
      "time": 57.969,
      "duration": 0.156,
      "velocity": 0.76,
      "hand": "right"
    },
    {
      "midi": 30,
      "time": 58.125,
      "duration": 0.938,
      "velocity": 0.91,
      "hand": "left"
    },
    {
      "midi": 42,
      "time": 58.125,
      "duration": 0.938,
      "velocity": 0.91,
      "hand": "left"
    },
    {
      "midi": 88,
      "time": 58.125,
      "duration": 0.938,
      "velocity": 0.91,
      "hand": "right"
    },
    {
      "midi": 76,
      "time": 58.281,
      "duration": 0.156,
      "velocity": 0.76,
      "hand": "right"
    },
    {
      "midi": 78,
      "time": 58.438,
      "duration": 0.156,
      "velocity": 0.76,
      "hand": "right"
    },
    {
      "midi": 80,
      "time": 58.594,
      "duration": 0.156,
      "velocity": 0.76,
      "hand": "right"
    },
    {
      "midi": 78,
      "time": 58.75,
      "duration": 0.156,
      "velocity": 0.76,
      "hand": "right"
    },
    {
      "midi": 76,
      "time": 58.906,
      "duration": 0.156,
      "velocity": 0.76,
      "hand": "right"
    },
    {
      "midi": 32,
      "time": 59.063,
      "duration": 0.938,
      "velocity": 0.91,
      "hand": "left"
    },
    {
      "midi": 44,
      "time": 59.063,
      "duration": 0.938,
      "velocity": 0.91,
      "hand": "left"
    },
    {
      "midi": 90,
      "time": 59.063,
      "duration": 0.938,
      "velocity": 0.91,
      "hand": "right"
    },
    {
      "midi": 76,
      "time": 59.219,
      "duration": 0.156,
      "velocity": 0.76,
      "hand": "right"
    },
    {
      "midi": 78,
      "time": 59.375,
      "duration": 0.156,
      "velocity": 0.76,
      "hand": "right"
    },
    {
      "midi": 80,
      "time": 59.531,
      "duration": 0.156,
      "velocity": 0.76,
      "hand": "right"
    },
    {
      "midi": 78,
      "time": 59.688,
      "duration": 0.156,
      "velocity": 0.76,
      "hand": "right"
    },
    {
      "midi": 76,
      "time": 59.844,
      "duration": 0.156,
      "velocity": 0.76,
      "hand": "right"
    },
    {
      "midi": 33,
      "time": 60,
      "duration": 0.313,
      "velocity": 0.91,
      "hand": "left"
    },
    {
      "midi": 45,
      "time": 60,
      "duration": 0.313,
      "velocity": 0.91,
      "hand": "left"
    },
    {
      "midi": 80,
      "time": 60,
      "duration": 0.078,
      "velocity": 0.76,
      "hand": "right"
    },
    {
      "midi": 80,
      "time": 60,
      "duration": 0.156,
      "velocity": 0.91,
      "hand": "right"
    },
    {
      "midi": 85,
      "time": 60,
      "duration": 0.469,
      "velocity": 0.91,
      "hand": "right"
    },
    {
      "midi": 88,
      "time": 60,
      "duration": 1.719,
      "velocity": 0.91,
      "hand": "right"
    },
    {
      "midi": 92,
      "time": 60,
      "duration": 1.719,
      "velocity": 0.91,
      "hand": "right"
    },
    {
      "midi": 80,
      "time": 60.156,
      "duration": 0.625,
      "velocity": 0.76,
      "hand": "right"
    },
    {
      "midi": 83,
      "time": 60.313,
      "duration": 0.156,
      "velocity": 0.76,
      "hand": "right"
    },
    {
      "midi": 85,
      "time": 60.469,
      "duration": 0.938,
      "velocity": 0.76,
      "hand": "right"
    },
    {
      "midi": 83,
      "time": 60.625,
      "duration": 0.156,
      "velocity": 0.76,
      "hand": "right"
    },
    {
      "midi": 80,
      "time": 60.781,
      "duration": 0.313,
      "velocity": 0.76,
      "hand": "right"
    },
    {
      "midi": 56,
      "time": 60.938,
      "duration": 0.938,
      "velocity": 0.76,
      "hand": "left"
    },
    {
      "midi": 61,
      "time": 60.938,
      "duration": 0.938,
      "velocity": 0.76,
      "hand": "right"
    },
    {
      "midi": 64,
      "time": 60.938,
      "duration": 0.938,
      "velocity": 0.76,
      "hand": "right"
    },
    {
      "midi": 78,
      "time": 60.938,
      "duration": 0.156,
      "velocity": 0.76,
      "hand": "right"
    },
    {
      "midi": 80,
      "time": 61.094,
      "duration": 0.625,
      "velocity": 0.76,
      "hand": "right"
    },
    {
      "midi": 83,
      "time": 61.25,
      "duration": 0.156,
      "velocity": 0.76,
      "hand": "right"
    },
    {
      "midi": 85,
      "time": 61.406,
      "duration": 0.313,
      "velocity": 0.76,
      "hand": "right"
    },
    {
      "midi": 83,
      "time": 61.563,
      "duration": 0.156,
      "velocity": 0.76,
      "hand": "right"
    },
    {
      "midi": 80,
      "time": 61.719,
      "duration": 0.156,
      "velocity": 0.76,
      "hand": "right"
    },
    {
      "midi": 68,
      "time": 61.875,
      "duration": 0.938,
      "velocity": 0.76,
      "hand": "right"
    },
    {
      "midi": 73,
      "time": 61.875,
      "duration": 0.938,
      "velocity": 0.76,
      "hand": "right"
    },
    {
      "midi": 76,
      "time": 61.875,
      "duration": 0.938,
      "velocity": 0.76,
      "hand": "right"
    },
    {
      "midi": 78,
      "time": 61.875,
      "duration": 0.156,
      "velocity": 0.76,
      "hand": "right"
    },
    {
      "midi": 80,
      "time": 62.031,
      "duration": 0.156,
      "velocity": 0.76,
      "hand": "right"
    },
    {
      "midi": 83,
      "time": 62.188,
      "duration": 0.156,
      "velocity": 0.76,
      "hand": "right"
    },
    {
      "midi": 85,
      "time": 62.344,
      "duration": 0.156,
      "velocity": 0.76,
      "hand": "right"
    },
    {
      "midi": 83,
      "time": 62.5,
      "duration": 0.156,
      "velocity": 0.76,
      "hand": "right"
    },
    {
      "midi": 80,
      "time": 62.656,
      "duration": 0.156,
      "velocity": 0.76,
      "hand": "right"
    },
    {
      "midi": 61,
      "time": 62.813,
      "duration": 0.938,
      "velocity": 0.76,
      "hand": "right"
    },
    {
      "midi": 64,
      "time": 62.813,
      "duration": 0.938,
      "velocity": 0.76,
      "hand": "right"
    },
    {
      "midi": 68,
      "time": 62.813,
      "duration": 0.938,
      "velocity": 0.76,
      "hand": "right"
    },
    {
      "midi": 78,
      "time": 62.813,
      "duration": 0.156,
      "velocity": 0.76,
      "hand": "right"
    },
    {
      "midi": 80,
      "time": 62.969,
      "duration": 0.156,
      "velocity": 0.76,
      "hand": "right"
    },
    {
      "midi": 83,
      "time": 63.125,
      "duration": 0.156,
      "velocity": 0.76,
      "hand": "right"
    },
    {
      "midi": 85,
      "time": 63.281,
      "duration": 0.156,
      "velocity": 0.76,
      "hand": "right"
    },
    {
      "midi": 83,
      "time": 63.438,
      "duration": 0.156,
      "velocity": 0.76,
      "hand": "right"
    },
    {
      "midi": 80,
      "time": 63.594,
      "duration": 0.156,
      "velocity": 0.76,
      "hand": "right"
    },
    {
      "midi": 33,
      "time": 63.75,
      "duration": 0.313,
      "velocity": 0.91,
      "hand": "left"
    },
    {
      "midi": 45,
      "time": 63.75,
      "duration": 0.313,
      "velocity": 0.91,
      "hand": "left"
    },
    {
      "midi": 73,
      "time": 63.75,
      "duration": 0.938,
      "velocity": 0.76,
      "hand": "right"
    },
    {
      "midi": 76,
      "time": 63.75,
      "duration": 0.938,
      "velocity": 0.76,
      "hand": "right"
    },
    {
      "midi": 80,
      "time": 63.75,
      "duration": 0.938,
      "velocity": 0.76,
      "hand": "right"
    },
    {
      "midi": 85,
      "time": 63.75,
      "duration": 0.938,
      "velocity": 0.76,
      "hand": "right"
    },
    {
      "midi": 45,
      "time": 64.219,
      "duration": 0.156,
      "velocity": 0.76,
      "hand": "left"
    },
    {
      "midi": 57,
      "time": 64.375,
      "duration": 0.156,
      "velocity": 0.76,
      "hand": "left"
    },
    {
      "midi": 45,
      "time": 64.531,
      "duration": 1.094,
      "velocity": 0.76,
      "hand": "left"
    },
    {
      "midi": 52,
      "time": 64.688,
      "duration": 0.938,
      "velocity": 0.76,
      "hand": "left"
    },
    {
      "midi": 56,
      "time": 64.688,
      "duration": 0.938,
      "velocity": 0.76,
      "hand": "left"
    },
    {
      "midi": 75,
      "time": 64.688,
      "duration": 0.938,
      "velocity": 0.76,
      "hand": "right"
    },
    {
      "midi": 80,
      "time": 64.688,
      "duration": 0.938,
      "velocity": 0.76,
      "hand": "right"
    },
    {
      "midi": 87,
      "time": 64.688,
      "duration": 0.938,
      "velocity": 0.76,
      "hand": "right"
    },
    {
      "midi": 45,
      "time": 65.625,
      "duration": 0.313,
      "velocity": 0.91,
      "hand": "left"
    },
    {
      "midi": 52,
      "time": 65.625,
      "duration": 0.313,
      "velocity": 0.91,
      "hand": "left"
    },
    {
      "midi": 83,
      "time": 65.625,
      "duration": 0.078,
      "velocity": 0.76,
      "hand": "right"
    },
    {
      "midi": 88,
      "time": 65.625,
      "duration": 0.078,
      "velocity": 0.76,
      "hand": "right"
    },
    {
      "midi": 95,
      "time": 65.625,
      "duration": 0.078,
      "velocity": 0.76,
      "hand": "right"
    },
    {
      "midi": 60,
      "time": 65.781,
      "duration": 0.156,
      "velocity": 0.91,
      "hand": "right"
    },
    {
      "midi": 83,
      "time": 65.781,
      "duration": 0.078,
      "velocity": 0.76,
      "hand": "right"
    },
    {
      "midi": 88,
      "time": 65.781,
      "duration": 0.078,
      "velocity": 0.76,
      "hand": "right"
    },
    {
      "midi": 95,
      "time": 65.781,
      "duration": 0.078,
      "velocity": 0.76,
      "hand": "right"
    },
    {
      "midi": 83,
      "time": 65.938,
      "duration": 0.078,
      "velocity": 0.76,
      "hand": "right"
    },
    {
      "midi": 88,
      "time": 65.938,
      "duration": 0.078,
      "velocity": 0.76,
      "hand": "right"
    },
    {
      "midi": 95,
      "time": 65.938,
      "duration": 0.078,
      "velocity": 0.76,
      "hand": "right"
    },
    {
      "midi": 45,
      "time": 66.094,
      "duration": 0.156,
      "velocity": 0.76,
      "hand": "left"
    },
    {
      "midi": 83,
      "time": 66.094,
      "duration": 0.078,
      "velocity": 0.76,
      "hand": "right"
    },
    {
      "midi": 88,
      "time": 66.094,
      "duration": 0.078,
      "velocity": 0.76,
      "hand": "right"
    },
    {
      "midi": 95,
      "time": 66.094,
      "duration": 0.078,
      "velocity": 0.76,
      "hand": "right"
    },
    {
      "midi": 52,
      "time": 66.25,
      "duration": 0.156,
      "velocity": 0.76,
      "hand": "left"
    },
    {
      "midi": 60,
      "time": 66.25,
      "duration": 0.156,
      "velocity": 0.76,
      "hand": "right"
    },
    {
      "midi": 83,
      "time": 66.25,
      "duration": 0.078,
      "velocity": 0.76,
      "hand": "right"
    },
    {
      "midi": 88,
      "time": 66.25,
      "duration": 0.078,
      "velocity": 0.76,
      "hand": "right"
    },
    {
      "midi": 95,
      "time": 66.25,
      "duration": 0.078,
      "velocity": 0.76,
      "hand": "right"
    },
    {
      "midi": 45,
      "time": 66.406,
      "duration": 0.156,
      "velocity": 0.76,
      "hand": "left"
    },
    {
      "midi": 83,
      "time": 66.406,
      "duration": 0.078,
      "velocity": 0.76,
      "hand": "right"
    },
    {
      "midi": 88,
      "time": 66.406,
      "duration": 0.078,
      "velocity": 0.76,
      "hand": "right"
    },
    {
      "midi": 95,
      "time": 66.406,
      "duration": 0.078,
      "velocity": 0.76,
      "hand": "right"
    },
    {
      "midi": 54,
      "time": 66.563,
      "duration": 0.625,
      "velocity": 0.76,
      "hand": "left"
    },
    {
      "midi": 57,
      "time": 66.563,
      "duration": 0.625,
      "velocity": 0.76,
      "hand": "left"
    },
    {
      "midi": 60,
      "time": 66.563,
      "duration": 0.625,
      "velocity": 0.76,
      "hand": "right"
    },
    {
      "midi": 64,
      "time": 66.563,
      "duration": 0.625,
      "velocity": 0.76,
      "hand": "right"
    },
    {
      "midi": 81,
      "time": 66.563,
      "duration": 0.078,
      "velocity": 0.76,
      "hand": "right"
    },
    {
      "midi": 90,
      "time": 66.563,
      "duration": 0.078,
      "velocity": 0.76,
      "hand": "right"
    },
    {
      "midi": 93,
      "time": 66.563,
      "duration": 0.078,
      "velocity": 0.76,
      "hand": "right"
    },
    {
      "midi": 81,
      "time": 66.719,
      "duration": 0.078,
      "velocity": 0.76,
      "hand": "right"
    },
    {
      "midi": 90,
      "time": 66.719,
      "duration": 0.078,
      "velocity": 0.76,
      "hand": "right"
    },
    {
      "midi": 93,
      "time": 66.719,
      "duration": 0.078,
      "velocity": 0.76,
      "hand": "right"
    },
    {
      "midi": 81,
      "time": 66.875,
      "duration": 0.078,
      "velocity": 0.76,
      "hand": "right"
    },
    {
      "midi": 90,
      "time": 66.875,
      "duration": 0.078,
      "velocity": 0.76,
      "hand": "right"
    },
    {
      "midi": 93,
      "time": 66.875,
      "duration": 0.078,
      "velocity": 0.76,
      "hand": "right"
    },
    {
      "midi": 81,
      "time": 67.031,
      "duration": 0.078,
      "velocity": 0.76,
      "hand": "right"
    },
    {
      "midi": 90,
      "time": 67.031,
      "duration": 0.078,
      "velocity": 0.76,
      "hand": "right"
    },
    {
      "midi": 93,
      "time": 67.031,
      "duration": 0.078,
      "velocity": 0.76,
      "hand": "right"
    },
    {
      "midi": 33,
      "time": 67.188,
      "duration": 0.313,
      "velocity": 0.76,
      "hand": "left"
    },
    {
      "midi": 45,
      "time": 67.188,
      "duration": 0.313,
      "velocity": 0.76,
      "hand": "left"
    },
    {
      "midi": 81,
      "time": 67.188,
      "duration": 0.078,
      "velocity": 0.76,
      "hand": "right"
    },
    {
      "midi": 90,
      "time": 67.188,
      "duration": 0.078,
      "velocity": 0.76,
      "hand": "right"
    },
    {
      "midi": 93,
      "time": 67.188,
      "duration": 0.078,
      "velocity": 0.76,
      "hand": "right"
    },
    {
      "midi": 81,
      "time": 67.344,
      "duration": 0.078,
      "velocity": 0.76,
      "hand": "right"
    },
    {
      "midi": 90,
      "time": 67.344,
      "duration": 0.078,
      "velocity": 0.76,
      "hand": "right"
    },
    {
      "midi": 93,
      "time": 67.344,
      "duration": 0.078,
      "velocity": 0.76,
      "hand": "right"
    },
    {
      "midi": 28,
      "time": 67.5,
      "duration": 0.313,
      "velocity": 0.91,
      "hand": "left"
    },
    {
      "midi": 40,
      "time": 67.5,
      "duration": 0.313,
      "velocity": 0.91,
      "hand": "left"
    },
    {
      "midi": 80,
      "time": 67.5,
      "duration": 0.078,
      "velocity": 0.76,
      "hand": "right"
    },
    {
      "midi": 80,
      "time": 67.5,
      "duration": 0.469,
      "velocity": 0.91,
      "hand": "right"
    },
    {
      "midi": 87,
      "time": 67.5,
      "duration": 1.719,
      "velocity": 0.91,
      "hand": "right"
    },
    {
      "midi": 88,
      "time": 67.5,
      "duration": 1.719,
      "velocity": 0.91,
      "hand": "right"
    },
    {
      "midi": 92,
      "time": 67.5,
      "duration": 1.719,
      "velocity": 0.91,
      "hand": "right"
    },
    {
      "midi": 76,
      "time": 67.656,
      "duration": 0.156,
      "velocity": 0.76,
      "hand": "right"
    },
    {
      "midi": 78,
      "time": 67.813,
      "duration": 0.156,
      "velocity": 0.76,
      "hand": "right"
    },
    {
      "midi": 80,
      "time": 67.969,
      "duration": 0.938,
      "velocity": 0.76,
      "hand": "right"
    },
    {
      "midi": 40,
      "time": 68.125,
      "duration": 0.313,
      "velocity": 0.76,
      "hand": "left"
    },
    {
      "midi": 52,
      "time": 68.125,
      "duration": 0.313,
      "velocity": 0.76,
      "hand": "left"
    },
    {
      "midi": 78,
      "time": 68.125,
      "duration": 0.156,
      "velocity": 0.76,
      "hand": "right"
    },
    {
      "midi": 76,
      "time": 68.281,
      "duration": 0.156,
      "velocity": 0.76,
      "hand": "right"
    },
    {
      "midi": 56,
      "time": 68.438,
      "duration": 0.938,
      "velocity": 0.76,
      "hand": "left"
    },
    {
      "midi": 59,
      "time": 68.438,
      "duration": 0.938,
      "velocity": 0.76,
      "hand": "left"
    },
    {
      "midi": 63,
      "time": 68.438,
      "duration": 0.938,
      "velocity": 0.76,
      "hand": "right"
    },
    {
      "midi": 75,
      "time": 68.438,
      "duration": 0.156,
      "velocity": 0.76,
      "hand": "right"
    },
    {
      "midi": 76,
      "time": 68.594,
      "duration": 0.156,
      "velocity": 0.76,
      "hand": "right"
    },
    {
      "midi": 78,
      "time": 68.75,
      "duration": 0.156,
      "velocity": 0.76,
      "hand": "right"
    },
    {
      "midi": 80,
      "time": 68.906,
      "duration": 0.313,
      "velocity": 0.76,
      "hand": "right"
    },
    {
      "midi": 78,
      "time": 69.063,
      "duration": 0.156,
      "velocity": 0.76,
      "hand": "right"
    },
    {
      "midi": 76,
      "time": 69.219,
      "duration": 0.156,
      "velocity": 0.76,
      "hand": "right"
    },
    {
      "midi": 68,
      "time": 69.375,
      "duration": 0.938,
      "velocity": 0.76,
      "hand": "right"
    },
    {
      "midi": 71,
      "time": 69.375,
      "duration": 0.938,
      "velocity": 0.76,
      "hand": "right"
    },
    {
      "midi": 75,
      "time": 69.375,
      "duration": 0.156,
      "velocity": 0.76,
      "hand": "right"
    },
    {
      "midi": 76,
      "time": 69.531,
      "duration": 0.156,
      "velocity": 0.76,
      "hand": "right"
    },
    {
      "midi": 78,
      "time": 69.688,
      "duration": 0.156,
      "velocity": 0.76,
      "hand": "right"
    },
    {
      "midi": 80,
      "time": 69.844,
      "duration": 0.156,
      "velocity": 0.76,
      "hand": "right"
    },
    {
      "midi": 78,
      "time": 70,
      "duration": 0.156,
      "velocity": 0.76,
      "hand": "right"
    },
    {
      "midi": 76,
      "time": 70.156,
      "duration": 0.156,
      "velocity": 0.76,
      "hand": "right"
    },
    {
      "midi": 59,
      "time": 70.313,
      "duration": 0.938,
      "velocity": 0.76,
      "hand": "left"
    },
    {
      "midi": 63,
      "time": 70.313,
      "duration": 0.938,
      "velocity": 0.76,
      "hand": "right"
    },
    {
      "midi": 68,
      "time": 70.313,
      "duration": 0.938,
      "velocity": 0.76,
      "hand": "right"
    },
    {
      "midi": 75,
      "time": 70.313,
      "duration": 0.156,
      "velocity": 0.76,
      "hand": "right"
    },
    {
      "midi": 76,
      "time": 70.469,
      "duration": 0.156,
      "velocity": 0.76,
      "hand": "right"
    },
    {
      "midi": 78,
      "time": 70.625,
      "duration": 0.156,
      "velocity": 0.76,
      "hand": "right"
    },
    {
      "midi": 80,
      "time": 70.781,
      "duration": 0.156,
      "velocity": 0.76,
      "hand": "right"
    },
    {
      "midi": 78,
      "time": 70.938,
      "duration": 0.156,
      "velocity": 0.76,
      "hand": "right"
    },
    {
      "midi": 76,
      "time": 71.094,
      "duration": 0.156,
      "velocity": 0.76,
      "hand": "right"
    },
    {
      "midi": 28,
      "time": 71.25,
      "duration": 0.313,
      "velocity": 0.91,
      "hand": "left"
    },
    {
      "midi": 40,
      "time": 71.25,
      "duration": 0.313,
      "velocity": 0.91,
      "hand": "left"
    },
    {
      "midi": 75,
      "time": 71.25,
      "duration": 0.156,
      "velocity": 0.76,
      "hand": "right"
    },
    {
      "midi": 76,
      "time": 71.406,
      "duration": 0.156,
      "velocity": 0.76,
      "hand": "right"
    },
    {
      "midi": 28,
      "time": 71.563,
      "duration": 0.313,
      "velocity": 0.76,
      "hand": "left"
    },
    {
      "midi": 40,
      "time": 71.563,
      "duration": 0.313,
      "velocity": 0.76,
      "hand": "left"
    },
    {
      "midi": 78,
      "time": 71.563,
      "duration": 0.156,
      "velocity": 0.76,
      "hand": "right"
    },
    {
      "midi": 80,
      "time": 71.719,
      "duration": 0.156,
      "velocity": 0.76,
      "hand": "right"
    },
    {
      "midi": 40,
      "time": 71.875,
      "duration": 0.313,
      "velocity": 0.76,
      "hand": "left"
    },
    {
      "midi": 52,
      "time": 71.875,
      "duration": 0.313,
      "velocity": 0.76,
      "hand": "left"
    },
    {
      "midi": 78,
      "time": 71.875,
      "duration": 0.156,
      "velocity": 0.76,
      "hand": "right"
    },
    {
      "midi": 76,
      "time": 72.031,
      "duration": 0.156,
      "velocity": 0.76,
      "hand": "right"
    },
    {
      "midi": 56,
      "time": 72.188,
      "duration": 0.938,
      "velocity": 0.76,
      "hand": "left"
    },
    {
      "midi": 59,
      "time": 72.188,
      "duration": 0.938,
      "velocity": 0.76,
      "hand": "left"
    },
    {
      "midi": 63,
      "time": 72.188,
      "duration": 0.938,
      "velocity": 0.76,
      "hand": "right"
    },
    {
      "midi": 75,
      "time": 72.188,
      "duration": 0.156,
      "velocity": 0.76,
      "hand": "right"
    },
    {
      "midi": 76,
      "time": 72.344,
      "duration": 0.156,
      "velocity": 0.76,
      "hand": "right"
    },
    {
      "midi": 78,
      "time": 72.5,
      "duration": 0.156,
      "velocity": 0.76,
      "hand": "right"
    },
    {
      "midi": 80,
      "time": 72.656,
      "duration": 0.156,
      "velocity": 0.76,
      "hand": "right"
    },
    {
      "midi": 78,
      "time": 72.813,
      "duration": 0.156,
      "velocity": 0.76,
      "hand": "right"
    },
    {
      "midi": 76,
      "time": 72.969,
      "duration": 0.156,
      "velocity": 0.76,
      "hand": "right"
    },
    {
      "midi": 30,
      "time": 73.125,
      "duration": 0.469,
      "velocity": 0.91,
      "hand": "left"
    },
    {
      "midi": 42,
      "time": 73.125,
      "duration": 0.469,
      "velocity": 0.91,
      "hand": "left"
    },
    {
      "midi": 74,
      "time": 73.125,
      "duration": 0.156,
      "velocity": 0.76,
      "hand": "right"
    },
    {
      "midi": 76,
      "time": 73.281,
      "duration": 0.156,
      "velocity": 0.74,
      "hand": "right"
    },
    {
      "midi": 78,
      "time": 73.438,
      "duration": 0.156,
      "velocity": 0.72,
      "hand": "right"
    },
    {
      "midi": 42,
      "time": 73.594,
      "duration": 0.469,
      "velocity": 0.69,
      "hand": "left"
    },
    {
      "midi": 45,
      "time": 73.594,
      "duration": 0.469,
      "velocity": 0.69,
      "hand": "left"
    },
    {
      "midi": 49,
      "time": 73.594,
      "duration": 0.469,
      "velocity": 0.69,
      "hand": "left"
    },
    {
      "midi": 54,
      "time": 73.594,
      "duration": 0.469,
      "velocity": 0.69,
      "hand": "left"
    },
    {
      "midi": 80,
      "time": 73.594,
      "duration": 0.156,
      "velocity": 0.69,
      "hand": "right"
    },
    {
      "midi": 78,
      "time": 73.75,
      "duration": 0.156,
      "velocity": 0.68,
      "hand": "right"
    },
    {
      "midi": 76,
      "time": 73.906,
      "duration": 0.156,
      "velocity": 0.65,
      "hand": "right"
    },
    {
      "midi": 32,
      "time": 74.063,
      "duration": 0.469,
      "velocity": 0.76,
      "hand": "left"
    },
    {
      "midi": 44,
      "time": 74.063,
      "duration": 0.469,
      "velocity": 0.76,
      "hand": "left"
    },
    {
      "midi": 74,
      "time": 74.063,
      "duration": 0.156,
      "velocity": 0.63,
      "hand": "right"
    },
    {
      "midi": 76,
      "time": 74.219,
      "duration": 0.156,
      "velocity": 0.61,
      "hand": "right"
    },
    {
      "midi": 78,
      "time": 74.375,
      "duration": 0.156,
      "velocity": 0.59,
      "hand": "right"
    },
    {
      "midi": 44,
      "time": 74.531,
      "duration": 0.469,
      "velocity": 0.57,
      "hand": "left"
    },
    {
      "midi": 51,
      "time": 74.531,
      "duration": 0.469,
      "velocity": 0.57,
      "hand": "left"
    },
    {
      "midi": 54,
      "time": 74.531,
      "duration": 0.469,
      "velocity": 0.57,
      "hand": "left"
    },
    {
      "midi": 56,
      "time": 74.531,
      "duration": 0.469,
      "velocity": 0.57,
      "hand": "left"
    },
    {
      "midi": 80,
      "time": 74.531,
      "duration": 0.156,
      "velocity": 0.57,
      "hand": "right"
    },
    {
      "midi": 78,
      "time": 74.688,
      "duration": 0.156,
      "velocity": 0.55,
      "hand": "right"
    },
    {
      "midi": 76,
      "time": 74.844,
      "duration": 0.156,
      "velocity": 0.53,
      "hand": "right"
    },
    {
      "midi": 45,
      "time": 75,
      "duration": 0.156,
      "velocity": 0.5,
      "hand": "left"
    },
    {
      "midi": 57,
      "time": 75,
      "duration": 0.156,
      "velocity": 0.5,
      "hand": "left"
    },
    {
      "midi": 68,
      "time": 75,
      "duration": 0.156,
      "velocity": 0.5,
      "hand": "right"
    },
    {
      "midi": 49,
      "time": 75.156,
      "duration": 0.156,
      "velocity": 0.5,
      "hand": "left"
    },
    {
      "midi": 68,
      "time": 75.156,
      "duration": 0.156,
      "velocity": 0.5,
      "hand": "right"
    },
    {
      "midi": 52,
      "time": 75.313,
      "duration": 0.156,
      "velocity": 0.5,
      "hand": "left"
    },
    {
      "midi": 61,
      "time": 75.313,
      "duration": 0.156,
      "velocity": 0.5,
      "hand": "right"
    },
    {
      "midi": 68,
      "time": 75.313,
      "duration": 0.156,
      "velocity": 0.5,
      "hand": "right"
    },
    {
      "midi": 57,
      "time": 75.469,
      "duration": 0.156,
      "velocity": 0.5,
      "hand": "left"
    },
    {
      "midi": 68,
      "time": 75.469,
      "duration": 0.156,
      "velocity": 0.5,
      "hand": "right"
    },
    {
      "midi": 52,
      "time": 75.625,
      "duration": 0.156,
      "velocity": 0.5,
      "hand": "left"
    },
    {
      "midi": 61,
      "time": 75.625,
      "duration": 0.156,
      "velocity": 0.5,
      "hand": "right"
    },
    {
      "midi": 68,
      "time": 75.625,
      "duration": 0.156,
      "velocity": 0.5,
      "hand": "right"
    },
    {
      "midi": 57,
      "time": 75.781,
      "duration": 0.156,
      "velocity": 0.5,
      "hand": "left"
    },
    {
      "midi": 66,
      "time": 75.781,
      "duration": 0.156,
      "velocity": 0.5,
      "hand": "right"
    },
    {
      "midi": 45,
      "time": 75.938,
      "duration": 0.156,
      "velocity": 0.5,
      "hand": "left"
    },
    {
      "midi": 57,
      "time": 75.938,
      "duration": 0.156,
      "velocity": 0.5,
      "hand": "left"
    },
    {
      "midi": 80,
      "time": 75.938,
      "duration": 0.313,
      "velocity": 0.6,
      "hand": "right"
    },
    {
      "midi": 92,
      "time": 75.938,
      "duration": 0.313,
      "velocity": 0.6,
      "hand": "right"
    },
    {
      "midi": 49,
      "time": 76.094,
      "duration": 0.156,
      "velocity": 0.5,
      "hand": "left"
    },
    {
      "midi": 52,
      "time": 76.25,
      "duration": 0.156,
      "velocity": 0.5,
      "hand": "left"
    },
    {
      "midi": 61,
      "time": 76.25,
      "duration": 0.156,
      "velocity": 0.5,
      "hand": "right"
    },
    {
      "midi": 57,
      "time": 76.406,
      "duration": 0.156,
      "velocity": 0.5,
      "hand": "left"
    },
    {
      "midi": 52,
      "time": 76.563,
      "duration": 0.156,
      "velocity": 0.5,
      "hand": "left"
    },
    {
      "midi": 61,
      "time": 76.563,
      "duration": 0.156,
      "velocity": 0.5,
      "hand": "right"
    },
    {
      "midi": 57,
      "time": 76.719,
      "duration": 0.156,
      "velocity": 0.5,
      "hand": "left"
    },
    {
      "midi": 45,
      "time": 76.875,
      "duration": 0.156,
      "velocity": 0.5,
      "hand": "left"
    },
    {
      "midi": 57,
      "time": 76.875,
      "duration": 0.156,
      "velocity": 0.5,
      "hand": "left"
    },
    {
      "midi": 68,
      "time": 76.875,
      "duration": 0.156,
      "velocity": 0.5,
      "hand": "right"
    },
    {
      "midi": 49,
      "time": 77.031,
      "duration": 0.156,
      "velocity": 0.5,
      "hand": "left"
    },
    {
      "midi": 68,
      "time": 77.031,
      "duration": 0.156,
      "velocity": 0.5,
      "hand": "right"
    },
    {
      "midi": 52,
      "time": 77.188,
      "duration": 0.156,
      "velocity": 0.5,
      "hand": "left"
    },
    {
      "midi": 61,
      "time": 77.188,
      "duration": 0.156,
      "velocity": 0.5,
      "hand": "right"
    },
    {
      "midi": 68,
      "time": 77.188,
      "duration": 0.156,
      "velocity": 0.5,
      "hand": "right"
    },
    {
      "midi": 57,
      "time": 77.344,
      "duration": 0.156,
      "velocity": 0.5,
      "hand": "left"
    },
    {
      "midi": 68,
      "time": 77.344,
      "duration": 0.156,
      "velocity": 0.5,
      "hand": "right"
    },
    {
      "midi": 52,
      "time": 77.5,
      "duration": 0.156,
      "velocity": 0.5,
      "hand": "left"
    },
    {
      "midi": 61,
      "time": 77.5,
      "duration": 0.156,
      "velocity": 0.5,
      "hand": "right"
    },
    {
      "midi": 68,
      "time": 77.5,
      "duration": 0.313,
      "velocity": 0.5,
      "hand": "right"
    },
    {
      "midi": 57,
      "time": 77.656,
      "duration": 0.156,
      "velocity": 0.5,
      "hand": "left"
    },
    {
      "midi": 45,
      "time": 77.813,
      "duration": 0.156,
      "velocity": 0.5,
      "hand": "left"
    },
    {
      "midi": 57,
      "time": 77.813,
      "duration": 0.156,
      "velocity": 0.5,
      "hand": "left"
    },
    {
      "midi": 68,
      "time": 77.813,
      "duration": 0.156,
      "velocity": 0.5,
      "hand": "right"
    },
    {
      "midi": 49,
      "time": 77.969,
      "duration": 0.156,
      "velocity": 0.5,
      "hand": "left"
    },
    {
      "midi": 68,
      "time": 77.969,
      "duration": 0.156,
      "velocity": 0.5,
      "hand": "right"
    },
    {
      "midi": 52,
      "time": 78.125,
      "duration": 0.156,
      "velocity": 0.5,
      "hand": "left"
    },
    {
      "midi": 61,
      "time": 78.125,
      "duration": 0.156,
      "velocity": 0.5,
      "hand": "right"
    },
    {
      "midi": 68,
      "time": 78.125,
      "duration": 0.156,
      "velocity": 0.5,
      "hand": "right"
    },
    {
      "midi": 57,
      "time": 78.281,
      "duration": 0.156,
      "velocity": 0.5,
      "hand": "left"
    },
    {
      "midi": 68,
      "time": 78.281,
      "duration": 0.156,
      "velocity": 0.5,
      "hand": "right"
    },
    {
      "midi": 52,
      "time": 78.438,
      "duration": 0.156,
      "velocity": 0.5,
      "hand": "left"
    },
    {
      "midi": 61,
      "time": 78.438,
      "duration": 0.156,
      "velocity": 0.5,
      "hand": "right"
    },
    {
      "midi": 68,
      "time": 78.438,
      "duration": 0.313,
      "velocity": 0.5,
      "hand": "right"
    },
    {
      "midi": 57,
      "time": 78.594,
      "duration": 0.156,
      "velocity": 0.5,
      "hand": "left"
    },
    {
      "midi": 44,
      "time": 78.75,
      "duration": 0.156,
      "velocity": 0.5,
      "hand": "left"
    },
    {
      "midi": 56,
      "time": 78.75,
      "duration": 0.156,
      "velocity": 0.5,
      "hand": "left"
    },
    {
      "midi": 68,
      "time": 78.75,
      "duration": 0.156,
      "velocity": 0.5,
      "hand": "right"
    },
    {
      "midi": 47,
      "time": 78.906,
      "duration": 0.156,
      "velocity": 0.5,
      "hand": "left"
    },
    {
      "midi": 68,
      "time": 78.906,
      "duration": 0.156,
      "velocity": 0.5,
      "hand": "right"
    },
    {
      "midi": 51,
      "time": 79.063,
      "duration": 0.156,
      "velocity": 0.5,
      "hand": "left"
    },
    {
      "midi": 59,
      "time": 79.063,
      "duration": 0.156,
      "velocity": 0.5,
      "hand": "left"
    },
    {
      "midi": 68,
      "time": 79.063,
      "duration": 0.156,
      "velocity": 0.5,
      "hand": "right"
    },
    {
      "midi": 56,
      "time": 79.219,
      "duration": 0.156,
      "velocity": 0.5,
      "hand": "left"
    },
    {
      "midi": 68,
      "time": 79.219,
      "duration": 0.156,
      "velocity": 0.5,
      "hand": "right"
    },
    {
      "midi": 51,
      "time": 79.375,
      "duration": 0.156,
      "velocity": 0.5,
      "hand": "left"
    },
    {
      "midi": 59,
      "time": 79.375,
      "duration": 0.156,
      "velocity": 0.5,
      "hand": "left"
    },
    {
      "midi": 68,
      "time": 79.375,
      "duration": 0.156,
      "velocity": 0.5,
      "hand": "right"
    },
    {
      "midi": 56,
      "time": 79.531,
      "duration": 0.156,
      "velocity": 0.5,
      "hand": "left"
    },
    {
      "midi": 66,
      "time": 79.531,
      "duration": 0.156,
      "velocity": 0.5,
      "hand": "right"
    },
    {
      "midi": 44,
      "time": 79.688,
      "duration": 0.156,
      "velocity": 0.5,
      "hand": "left"
    },
    {
      "midi": 56,
      "time": 79.688,
      "duration": 0.156,
      "velocity": 0.5,
      "hand": "left"
    },
    {
      "midi": 80,
      "time": 79.688,
      "duration": 0.313,
      "velocity": 0.6,
      "hand": "right"
    },
    {
      "midi": 92,
      "time": 79.688,
      "duration": 0.313,
      "velocity": 0.6,
      "hand": "right"
    },
    {
      "midi": 47,
      "time": 79.844,
      "duration": 0.156,
      "velocity": 0.5,
      "hand": "left"
    },
    {
      "midi": 51,
      "time": 80,
      "duration": 0.156,
      "velocity": 0.5,
      "hand": "left"
    },
    {
      "midi": 59,
      "time": 80,
      "duration": 0.156,
      "velocity": 0.5,
      "hand": "left"
    },
    {
      "midi": 56,
      "time": 80.156,
      "duration": 0.156,
      "velocity": 0.5,
      "hand": "left"
    },
    {
      "midi": 51,
      "time": 80.313,
      "duration": 0.156,
      "velocity": 0.5,
      "hand": "left"
    },
    {
      "midi": 59,
      "time": 80.313,
      "duration": 0.156,
      "velocity": 0.5,
      "hand": "left"
    },
    {
      "midi": 56,
      "time": 80.469,
      "duration": 0.156,
      "velocity": 0.5,
      "hand": "left"
    },
    {
      "midi": 44,
      "time": 80.625,
      "duration": 0.156,
      "velocity": 0.5,
      "hand": "left"
    },
    {
      "midi": 56,
      "time": 80.625,
      "duration": 0.156,
      "velocity": 0.5,
      "hand": "left"
    },
    {
      "midi": 68,
      "time": 80.625,
      "duration": 0.156,
      "velocity": 0.5,
      "hand": "right"
    },
    {
      "midi": 47,
      "time": 80.781,
      "duration": 0.156,
      "velocity": 0.5,
      "hand": "left"
    },
    {
      "midi": 68,
      "time": 80.781,
      "duration": 0.156,
      "velocity": 0.5,
      "hand": "right"
    },
    {
      "midi": 51,
      "time": 80.938,
      "duration": 0.156,
      "velocity": 0.5,
      "hand": "left"
    },
    {
      "midi": 59,
      "time": 80.938,
      "duration": 0.156,
      "velocity": 0.5,
      "hand": "left"
    },
    {
      "midi": 68,
      "time": 80.938,
      "duration": 0.156,
      "velocity": 0.5,
      "hand": "right"
    },
    {
      "midi": 56,
      "time": 81.094,
      "duration": 0.156,
      "velocity": 0.5,
      "hand": "left"
    },
    {
      "midi": 68,
      "time": 81.094,
      "duration": 0.156,
      "velocity": 0.5,
      "hand": "right"
    },
    {
      "midi": 51,
      "time": 81.25,
      "duration": 0.156,
      "velocity": 0.5,
      "hand": "left"
    },
    {
      "midi": 59,
      "time": 81.25,
      "duration": 0.156,
      "velocity": 0.5,
      "hand": "left"
    },
    {
      "midi": 68,
      "time": 81.25,
      "duration": 0.313,
      "velocity": 0.5,
      "hand": "right"
    },
    {
      "midi": 56,
      "time": 81.406,
      "duration": 0.156,
      "velocity": 0.5,
      "hand": "left"
    },
    {
      "midi": 43,
      "time": 81.563,
      "duration": 0.156,
      "velocity": 0.5,
      "hand": "left"
    },
    {
      "midi": 55,
      "time": 81.563,
      "duration": 0.156,
      "velocity": 0.5,
      "hand": "left"
    },
    {
      "midi": 68,
      "time": 81.563,
      "duration": 0.156,
      "velocity": 0.5,
      "hand": "right"
    },
    {
      "midi": 47,
      "time": 81.719,
      "duration": 0.156,
      "velocity": 0.5,
      "hand": "left"
    },
    {
      "midi": 68,
      "time": 81.719,
      "duration": 0.156,
      "velocity": 0.5,
      "hand": "right"
    },
    {
      "midi": 51,
      "time": 81.875,
      "duration": 0.156,
      "velocity": 0.5,
      "hand": "left"
    },
    {
      "midi": 59,
      "time": 81.875,
      "duration": 0.156,
      "velocity": 0.5,
      "hand": "left"
    },
    {
      "midi": 68,
      "time": 81.875,
      "duration": 0.156,
      "velocity": 0.5,
      "hand": "right"
    },
    {
      "midi": 55,
      "time": 82.031,
      "duration": 0.156,
      "velocity": 0.5,
      "hand": "left"
    },
    {
      "midi": 68,
      "time": 82.031,
      "duration": 0.156,
      "velocity": 0.5,
      "hand": "right"
    },
    {
      "midi": 51,
      "time": 82.188,
      "duration": 0.156,
      "velocity": 0.5,
      "hand": "left"
    },
    {
      "midi": 59,
      "time": 82.188,
      "duration": 0.156,
      "velocity": 0.5,
      "hand": "left"
    },
    {
      "midi": 68,
      "time": 82.188,
      "duration": 0.313,
      "velocity": 0.5,
      "hand": "right"
    },
    {
      "midi": 55,
      "time": 82.344,
      "duration": 0.156,
      "velocity": 0.5,
      "hand": "left"
    },
    {
      "midi": 42,
      "time": 82.5,
      "duration": 0.156,
      "velocity": 0.5,
      "hand": "left"
    },
    {
      "midi": 54,
      "time": 82.5,
      "duration": 0.156,
      "velocity": 0.5,
      "hand": "left"
    },
    {
      "midi": 68,
      "time": 82.5,
      "duration": 0.156,
      "velocity": 0.5,
      "hand": "right"
    },
    {
      "midi": 45,
      "time": 82.656,
      "duration": 0.156,
      "velocity": 0.5,
      "hand": "left"
    },
    {
      "midi": 68,
      "time": 82.656,
      "duration": 0.156,
      "velocity": 0.5,
      "hand": "right"
    },
    {
      "midi": 49,
      "time": 82.813,
      "duration": 0.156,
      "velocity": 0.5,
      "hand": "left"
    },
    {
      "midi": 57,
      "time": 82.813,
      "duration": 0.156,
      "velocity": 0.5,
      "hand": "left"
    },
    {
      "midi": 68,
      "time": 82.813,
      "duration": 0.156,
      "velocity": 0.5,
      "hand": "right"
    },
    {
      "midi": 54,
      "time": 82.969,
      "duration": 0.156,
      "velocity": 0.5,
      "hand": "left"
    },
    {
      "midi": 68,
      "time": 82.969,
      "duration": 0.156,
      "velocity": 0.5,
      "hand": "right"
    },
    {
      "midi": 49,
      "time": 83.125,
      "duration": 0.156,
      "velocity": 0.5,
      "hand": "left"
    },
    {
      "midi": 57,
      "time": 83.125,
      "duration": 0.156,
      "velocity": 0.5,
      "hand": "left"
    },
    {
      "midi": 68,
      "time": 83.125,
      "duration": 0.156,
      "velocity": 0.5,
      "hand": "right"
    },
    {
      "midi": 54,
      "time": 83.281,
      "duration": 0.156,
      "velocity": 0.5,
      "hand": "left"
    },
    {
      "midi": 66,
      "time": 83.281,
      "duration": 0.156,
      "velocity": 0.5,
      "hand": "right"
    },
    {
      "midi": 42,
      "time": 83.438,
      "duration": 0.156,
      "velocity": 0.5,
      "hand": "left"
    },
    {
      "midi": 54,
      "time": 83.438,
      "duration": 0.156,
      "velocity": 0.5,
      "hand": "left"
    },
    {
      "midi": 78,
      "time": 83.438,
      "duration": 0.313,
      "velocity": 0.6,
      "hand": "right"
    },
    {
      "midi": 90,
      "time": 83.438,
      "duration": 0.313,
      "velocity": 0.6,
      "hand": "right"
    },
    {
      "midi": 45,
      "time": 83.594,
      "duration": 0.156,
      "velocity": 0.5,
      "hand": "left"
    },
    {
      "midi": 49,
      "time": 83.75,
      "duration": 0.156,
      "velocity": 0.5,
      "hand": "left"
    },
    {
      "midi": 57,
      "time": 83.75,
      "duration": 0.156,
      "velocity": 0.5,
      "hand": "left"
    },
    {
      "midi": 54,
      "time": 83.906,
      "duration": 0.156,
      "velocity": 0.5,
      "hand": "left"
    },
    {
      "midi": 49,
      "time": 84.063,
      "duration": 0.156,
      "velocity": 0.5,
      "hand": "left"
    },
    {
      "midi": 57,
      "time": 84.063,
      "duration": 0.156,
      "velocity": 0.5,
      "hand": "left"
    },
    {
      "midi": 54,
      "time": 84.219,
      "duration": 0.156,
      "velocity": 0.5,
      "hand": "left"
    },
    {
      "midi": 42,
      "time": 84.375,
      "duration": 0.156,
      "velocity": 0.5,
      "hand": "left"
    },
    {
      "midi": 54,
      "time": 84.375,
      "duration": 0.156,
      "velocity": 0.5,
      "hand": "left"
    },
    {
      "midi": 68,
      "time": 84.375,
      "duration": 0.156,
      "velocity": 0.5,
      "hand": "right"
    },
    {
      "midi": 45,
      "time": 84.531,
      "duration": 0.156,
      "velocity": 0.5,
      "hand": "left"
    },
    {
      "midi": 68,
      "time": 84.531,
      "duration": 0.156,
      "velocity": 0.5,
      "hand": "right"
    },
    {
      "midi": 49,
      "time": 84.688,
      "duration": 0.156,
      "velocity": 0.5,
      "hand": "left"
    },
    {
      "midi": 57,
      "time": 84.688,
      "duration": 0.156,
      "velocity": 0.5,
      "hand": "left"
    },
    {
      "midi": 68,
      "time": 84.688,
      "duration": 0.156,
      "velocity": 0.5,
      "hand": "right"
    },
    {
      "midi": 54,
      "time": 84.844,
      "duration": 0.156,
      "velocity": 0.5,
      "hand": "left"
    },
    {
      "midi": 68,
      "time": 84.844,
      "duration": 0.156,
      "velocity": 0.5,
      "hand": "right"
    },
    {
      "midi": 49,
      "time": 85,
      "duration": 0.156,
      "velocity": 0.5,
      "hand": "left"
    },
    {
      "midi": 57,
      "time": 85,
      "duration": 0.156,
      "velocity": 0.5,
      "hand": "left"
    },
    {
      "midi": 68,
      "time": 85,
      "duration": 0.156,
      "velocity": 0.5,
      "hand": "right"
    },
    {
      "midi": 54,
      "time": 85.156,
      "duration": 0.156,
      "velocity": 0.5,
      "hand": "left"
    },
    {
      "midi": 66,
      "time": 85.156,
      "duration": 0.156,
      "velocity": 0.5,
      "hand": "right"
    },
    {
      "midi": 42,
      "time": 85.313,
      "duration": 0.156,
      "velocity": 0.5,
      "hand": "left"
    },
    {
      "midi": 54,
      "time": 85.313,
      "duration": 0.156,
      "velocity": 0.5,
      "hand": "left"
    },
    {
      "midi": 78,
      "time": 85.313,
      "duration": 0.313,
      "velocity": 0.6,
      "hand": "right"
    },
    {
      "midi": 90,
      "time": 85.313,
      "duration": 0.313,
      "velocity": 0.6,
      "hand": "right"
    },
    {
      "midi": 45,
      "time": 85.469,
      "duration": 0.156,
      "velocity": 0.5,
      "hand": "left"
    },
    {
      "midi": 49,
      "time": 85.625,
      "duration": 0.156,
      "velocity": 0.5,
      "hand": "left"
    },
    {
      "midi": 57,
      "time": 85.625,
      "duration": 0.156,
      "velocity": 0.5,
      "hand": "left"
    },
    {
      "midi": 54,
      "time": 85.781,
      "duration": 0.156,
      "velocity": 0.5,
      "hand": "left"
    },
    {
      "midi": 49,
      "time": 85.938,
      "duration": 0.156,
      "velocity": 0.5,
      "hand": "left"
    },
    {
      "midi": 57,
      "time": 85.938,
      "duration": 0.156,
      "velocity": 0.5,
      "hand": "left"
    },
    {
      "midi": 54,
      "time": 86.094,
      "duration": 0.156,
      "velocity": 0.5,
      "hand": "left"
    },
    {
      "midi": 40,
      "time": 86.25,
      "duration": 0.156,
      "velocity": 0.5,
      "hand": "left"
    },
    {
      "midi": 52,
      "time": 86.25,
      "duration": 0.156,
      "velocity": 0.5,
      "hand": "left"
    },
    {
      "midi": 68,
      "time": 86.25,
      "duration": 0.156,
      "velocity": 0.5,
      "hand": "right"
    },
    {
      "midi": 44,
      "time": 86.406,
      "duration": 0.156,
      "velocity": 0.5,
      "hand": "left"
    },
    {
      "midi": 68,
      "time": 86.406,
      "duration": 0.156,
      "velocity": 0.5,
      "hand": "right"
    },
    {
      "midi": 47,
      "time": 86.563,
      "duration": 0.156,
      "velocity": 0.5,
      "hand": "left"
    },
    {
      "midi": 56,
      "time": 86.563,
      "duration": 0.156,
      "velocity": 0.5,
      "hand": "left"
    },
    {
      "midi": 68,
      "time": 86.563,
      "duration": 0.156,
      "velocity": 0.5,
      "hand": "right"
    },
    {
      "midi": 52,
      "time": 86.719,
      "duration": 0.156,
      "velocity": 0.5,
      "hand": "left"
    },
    {
      "midi": 68,
      "time": 86.719,
      "duration": 0.156,
      "velocity": 0.5,
      "hand": "right"
    },
    {
      "midi": 47,
      "time": 86.875,
      "duration": 0.156,
      "velocity": 0.5,
      "hand": "left"
    },
    {
      "midi": 56,
      "time": 86.875,
      "duration": 0.156,
      "velocity": 0.5,
      "hand": "left"
    },
    {
      "midi": 68,
      "time": 86.875,
      "duration": 0.313,
      "velocity": 0.5,
      "hand": "right"
    },
    {
      "midi": 52,
      "time": 87.031,
      "duration": 0.156,
      "velocity": 0.5,
      "hand": "left"
    },
    {
      "midi": 40,
      "time": 87.188,
      "duration": 0.156,
      "velocity": 0.5,
      "hand": "left"
    },
    {
      "midi": 52,
      "time": 87.188,
      "duration": 0.156,
      "velocity": 0.5,
      "hand": "left"
    },
    {
      "midi": 68,
      "time": 87.188,
      "duration": 0.156,
      "velocity": 0.5,
      "hand": "right"
    },
    {
      "midi": 75,
      "time": 87.188,
      "duration": 0.938,
      "velocity": 0.5,
      "hand": "right"
    },
    {
      "midi": 44,
      "time": 87.344,
      "duration": 0.156,
      "velocity": 0.5,
      "hand": "left"
    },
    {
      "midi": 68,
      "time": 87.344,
      "duration": 0.156,
      "velocity": 0.5,
      "hand": "right"
    },
    {
      "midi": 47,
      "time": 87.5,
      "duration": 0.156,
      "velocity": 0.5,
      "hand": "left"
    },
    {
      "midi": 56,
      "time": 87.5,
      "duration": 0.156,
      "velocity": 0.5,
      "hand": "left"
    },
    {
      "midi": 68,
      "time": 87.5,
      "duration": 0.156,
      "velocity": 0.5,
      "hand": "right"
    },
    {
      "midi": 52,
      "time": 87.656,
      "duration": 0.156,
      "velocity": 0.5,
      "hand": "left"
    },
    {
      "midi": 68,
      "time": 87.656,
      "duration": 0.156,
      "velocity": 0.5,
      "hand": "right"
    },
    {
      "midi": 47,
      "time": 87.813,
      "duration": 0.156,
      "velocity": 0.5,
      "hand": "left"
    },
    {
      "midi": 56,
      "time": 87.813,
      "duration": 0.156,
      "velocity": 0.5,
      "hand": "left"
    },
    {
      "midi": 68,
      "time": 87.813,
      "duration": 0.313,
      "velocity": 0.5,
      "hand": "right"
    },
    {
      "midi": 52,
      "time": 87.969,
      "duration": 0.156,
      "velocity": 0.5,
      "hand": "left"
    },
    {
      "midi": 40,
      "time": 88.125,
      "duration": 0.156,
      "velocity": 0.5,
      "hand": "left"
    },
    {
      "midi": 52,
      "time": 88.125,
      "duration": 0.156,
      "velocity": 0.5,
      "hand": "left"
    },
    {
      "midi": 68,
      "time": 88.125,
      "duration": 0.313,
      "velocity": 0.5,
      "hand": "right"
    },
    {
      "midi": 76,
      "time": 88.125,
      "duration": 0.938,
      "velocity": 0.5,
      "hand": "right"
    },
    {
      "midi": 44,
      "time": 88.281,
      "duration": 0.156,
      "velocity": 0.51,
      "hand": "left"
    },
    {
      "midi": 47,
      "time": 88.438,
      "duration": 0.156,
      "velocity": 0.52,
      "hand": "left"
    },
    {
      "midi": 56,
      "time": 88.438,
      "duration": 0.156,
      "velocity": 0.52,
      "hand": "left"
    },
    {
      "midi": 68,
      "time": 88.438,
      "duration": 0.313,
      "velocity": 0.52,
      "hand": "right"
    },
    {
      "midi": 52,
      "time": 88.594,
      "duration": 0.156,
      "velocity": 0.54,
      "hand": "left"
    },
    {
      "midi": 47,
      "time": 88.75,
      "duration": 0.156,
      "velocity": 0.54,
      "hand": "left"
    },
    {
      "midi": 56,
      "time": 88.75,
      "duration": 0.156,
      "velocity": 0.54,
      "hand": "left"
    },
    {
      "midi": 68,
      "time": 88.75,
      "duration": 0.156,
      "velocity": 0.54,
      "hand": "right"
    },
    {
      "midi": 52,
      "time": 88.906,
      "duration": 0.156,
      "velocity": 0.55,
      "hand": "left"
    },
    {
      "midi": 66,
      "time": 88.906,
      "duration": 0.156,
      "velocity": 0.55,
      "hand": "right"
    },
    {
      "midi": 40,
      "time": 89.063,
      "duration": 0.156,
      "velocity": 0.57,
      "hand": "left"
    },
    {
      "midi": 52,
      "time": 89.063,
      "duration": 0.156,
      "velocity": 0.57,
      "hand": "left"
    },
    {
      "midi": 64,
      "time": 89.063,
      "duration": 0.313,
      "velocity": 0.57,
      "hand": "right"
    },
    {
      "midi": 78,
      "time": 89.063,
      "duration": 0.938,
      "velocity": 0.57,
      "hand": "right"
    },
    {
      "midi": 44,
      "time": 89.219,
      "duration": 0.156,
      "velocity": 0.57,
      "hand": "left"
    },
    {
      "midi": 47,
      "time": 89.375,
      "duration": 0.156,
      "velocity": 0.58,
      "hand": "left"
    },
    {
      "midi": 56,
      "time": 89.375,
      "duration": 0.156,
      "velocity": 0.58,
      "hand": "left"
    },
    {
      "midi": 68,
      "time": 89.375,
      "duration": 0.313,
      "velocity": 0.58,
      "hand": "right"
    },
    {
      "midi": 52,
      "time": 89.531,
      "duration": 0.156,
      "velocity": 0.6,
      "hand": "left"
    },
    {
      "midi": 47,
      "time": 89.688,
      "duration": 0.156,
      "velocity": 0.61,
      "hand": "left"
    },
    {
      "midi": 56,
      "time": 89.688,
      "duration": 0.156,
      "velocity": 0.61,
      "hand": "left"
    },
    {
      "midi": 71,
      "time": 89.688,
      "duration": 0.313,
      "velocity": 0.61,
      "hand": "right"
    },
    {
      "midi": 52,
      "time": 89.844,
      "duration": 0.156,
      "velocity": 0.61,
      "hand": "left"
    },
    {
      "midi": 33,
      "time": 90,
      "duration": 0.156,
      "velocity": 0.63,
      "hand": "left"
    },
    {
      "midi": 45,
      "time": 90,
      "duration": 0.156,
      "velocity": 0.63,
      "hand": "left"
    },
    {
      "midi": 64,
      "time": 90,
      "duration": 1.25,
      "velocity": 0.63,
      "hand": "right"
    },
    {
      "midi": 69,
      "time": 90,
      "duration": 1.25,
      "velocity": 0.63,
      "hand": "right"
    },
    {
      "midi": 52,
      "time": 90.156,
      "duration": 0.156,
      "velocity": 0.63,
      "hand": "left"
    },
    {
      "midi": 73,
      "time": 90.156,
      "duration": 1.094,
      "velocity": 0.63,
      "hand": "right"
    },
    {
      "midi": 57,
      "time": 90.313,
      "duration": 0.156,
      "velocity": 0.63,
      "hand": "left"
    },
    {
      "midi": 61,
      "time": 90.469,
      "duration": 0.156,
      "velocity": 0.63,
      "hand": "right"
    },
    {
      "midi": 57,
      "time": 90.625,
      "duration": 0.156,
      "velocity": 0.63,
      "hand": "left"
    },
    {
      "midi": 52,
      "time": 90.781,
      "duration": 0.156,
      "velocity": 0.63,
      "hand": "left"
    },
    {
      "midi": 33,
      "time": 90.938,
      "duration": 0.156,
      "velocity": 0.63,
      "hand": "left"
    },
    {
      "midi": 45,
      "time": 90.938,
      "duration": 0.156,
      "velocity": 0.63,
      "hand": "left"
    },
    {
      "midi": 52,
      "time": 91.094,
      "duration": 0.156,
      "velocity": 0.63,
      "hand": "left"
    },
    {
      "midi": 57,
      "time": 91.25,
      "duration": 0.156,
      "velocity": 0.63,
      "hand": "left"
    },
    {
      "midi": 64,
      "time": 91.25,
      "duration": 0.313,
      "velocity": 0.63,
      "hand": "right"
    },
    {
      "midi": 73,
      "time": 91.25,
      "duration": 0.313,
      "velocity": 0.63,
      "hand": "right"
    },
    {
      "midi": 61,
      "time": 91.406,
      "duration": 0.156,
      "velocity": 0.63,
      "hand": "right"
    },
    {
      "midi": 57,
      "time": 91.563,
      "duration": 0.156,
      "velocity": 0.63,
      "hand": "left"
    },
    {
      "midi": 69,
      "time": 91.563,
      "duration": 0.313,
      "velocity": 0.63,
      "hand": "right"
    },
    {
      "midi": 75,
      "time": 91.563,
      "duration": 0.313,
      "velocity": 0.63,
      "hand": "right"
    },
    {
      "midi": 52,
      "time": 91.719,
      "duration": 0.156,
      "velocity": 0.63,
      "hand": "left"
    },
    {
      "midi": 33,
      "time": 91.875,
      "duration": 0.156,
      "velocity": 0.63,
      "hand": "left"
    },
    {
      "midi": 45,
      "time": 91.875,
      "duration": 0.156,
      "velocity": 0.63,
      "hand": "left"
    },
    {
      "midi": 69,
      "time": 91.875,
      "duration": 1.25,
      "velocity": 0.63,
      "hand": "right"
    },
    {
      "midi": 73,
      "time": 91.875,
      "duration": 1.25,
      "velocity": 0.63,
      "hand": "right"
    },
    {
      "midi": 76,
      "time": 91.875,
      "duration": 1.25,
      "velocity": 0.63,
      "hand": "right"
    },
    {
      "midi": 52,
      "time": 92.031,
      "duration": 0.156,
      "velocity": 0.63,
      "hand": "left"
    },
    {
      "midi": 57,
      "time": 92.188,
      "duration": 0.156,
      "velocity": 0.63,
      "hand": "left"
    },
    {
      "midi": 61,
      "time": 92.344,
      "duration": 0.156,
      "velocity": 0.63,
      "hand": "right"
    },
    {
      "midi": 57,
      "time": 92.5,
      "duration": 0.156,
      "velocity": 0.63,
      "hand": "left"
    },
    {
      "midi": 52,
      "time": 92.656,
      "duration": 0.156,
      "velocity": 0.63,
      "hand": "left"
    },
    {
      "midi": 33,
      "time": 92.813,
      "duration": 0.156,
      "velocity": 0.63,
      "hand": "left"
    },
    {
      "midi": 45,
      "time": 92.813,
      "duration": 0.156,
      "velocity": 0.63,
      "hand": "left"
    },
    {
      "midi": 52,
      "time": 92.969,
      "duration": 0.156,
      "velocity": 0.63,
      "hand": "left"
    },
    {
      "midi": 57,
      "time": 93.125,
      "duration": 0.156,
      "velocity": 0.63,
      "hand": "left"
    },
    {
      "midi": 69,
      "time": 93.125,
      "duration": 0.313,
      "velocity": 0.63,
      "hand": "right"
    },
    {
      "midi": 76,
      "time": 93.125,
      "duration": 0.313,
      "velocity": 0.63,
      "hand": "right"
    },
    {
      "midi": 61,
      "time": 93.281,
      "duration": 0.156,
      "velocity": 0.63,
      "hand": "right"
    },
    {
      "midi": 57,
      "time": 93.438,
      "duration": 0.156,
      "velocity": 0.63,
      "hand": "left"
    },
    {
      "midi": 68,
      "time": 93.438,
      "duration": 0.313,
      "velocity": 0.63,
      "hand": "right"
    },
    {
      "midi": 78,
      "time": 93.438,
      "duration": 0.313,
      "velocity": 0.63,
      "hand": "right"
    },
    {
      "midi": 52,
      "time": 93.594,
      "duration": 0.156,
      "velocity": 0.63,
      "hand": "left"
    },
    {
      "midi": 32,
      "time": 93.75,
      "duration": 0.156,
      "velocity": 0.63,
      "hand": "left"
    },
    {
      "midi": 44,
      "time": 93.75,
      "duration": 0.156,
      "velocity": 0.63,
      "hand": "left"
    },
    {
      "midi": 68,
      "time": 93.75,
      "duration": 0.313,
      "velocity": 0.63,
      "hand": "right"
    },
    {
      "midi": 75,
      "time": 93.75,
      "duration": 0.313,
      "velocity": 0.63,
      "hand": "right"
    },
    {
      "midi": 51,
      "time": 93.906,
      "duration": 0.156,
      "velocity": 0.63,
      "hand": "left"
    },
    {
      "midi": 56,
      "time": 94.063,
      "duration": 0.156,
      "velocity": 0.63,
      "hand": "left"
    },
    {
      "midi": 73,
      "time": 94.063,
      "duration": 0.313,
      "velocity": 0.63,
      "hand": "right"
    },
    {
      "midi": 59,
      "time": 94.219,
      "duration": 0.156,
      "velocity": 0.63,
      "hand": "left"
    },
    {
      "midi": 56,
      "time": 94.375,
      "duration": 0.156,
      "velocity": 0.63,
      "hand": "left"
    },
    {
      "midi": 68,
      "time": 94.375,
      "duration": 0.313,
      "velocity": 0.63,
      "hand": "right"
    },
    {
      "midi": 71,
      "time": 94.375,
      "duration": 0.313,
      "velocity": 0.63,
      "hand": "right"
    },
    {
      "midi": 51,
      "time": 94.531,
      "duration": 0.156,
      "velocity": 0.63,
      "hand": "left"
    },
    {
      "midi": 32,
      "time": 94.688,
      "duration": 0.156,
      "velocity": 0.63,
      "hand": "left"
    },
    {
      "midi": 44,
      "time": 94.688,
      "duration": 0.156,
      "velocity": 0.63,
      "hand": "left"
    },
    {
      "midi": 68,
      "time": 94.688,
      "duration": 0.625,
      "velocity": 0.63,
      "hand": "right"
    },
    {
      "midi": 71,
      "time": 94.688,
      "duration": 0.625,
      "velocity": 0.63,
      "hand": "right"
    },
    {
      "midi": 51,
      "time": 94.844,
      "duration": 0.156,
      "velocity": 0.63,
      "hand": "left"
    },
    {
      "midi": 56,
      "time": 95,
      "duration": 0.156,
      "velocity": 0.63,
      "hand": "left"
    },
    {
      "midi": 59,
      "time": 95.156,
      "duration": 0.156,
      "velocity": 0.63,
      "hand": "left"
    },
    {
      "midi": 56,
      "time": 95.313,
      "duration": 0.156,
      "velocity": 0.63,
      "hand": "left"
    },
    {
      "midi": 63,
      "time": 95.313,
      "duration": 0.313,
      "velocity": 0.63,
      "hand": "right"
    },
    {
      "midi": 68,
      "time": 95.313,
      "duration": 0.313,
      "velocity": 0.63,
      "hand": "right"
    },
    {
      "midi": 51,
      "time": 95.469,
      "duration": 0.156,
      "velocity": 0.63,
      "hand": "left"
    },
    {
      "midi": 32,
      "time": 95.625,
      "duration": 0.156,
      "velocity": 0.63,
      "hand": "left"
    },
    {
      "midi": 44,
      "time": 95.625,
      "duration": 0.156,
      "velocity": 0.63,
      "hand": "left"
    },
    {
      "midi": 63,
      "time": 95.625,
      "duration": 0.313,
      "velocity": 0.63,
      "hand": "right"
    },
    {
      "midi": 68,
      "time": 95.625,
      "duration": 0.313,
      "velocity": 0.63,
      "hand": "right"
    },
    {
      "midi": 71,
      "time": 95.625,
      "duration": 0.313,
      "velocity": 0.63,
      "hand": "right"
    },
    {
      "midi": 75,
      "time": 95.625,
      "duration": 0.313,
      "velocity": 0.63,
      "hand": "right"
    },
    {
      "midi": 51,
      "time": 95.781,
      "duration": 0.156,
      "velocity": 0.63,
      "hand": "left"
    },
    {
      "midi": 56,
      "time": 95.938,
      "duration": 0.156,
      "velocity": 0.63,
      "hand": "left"
    },
    {
      "midi": 73,
      "time": 95.938,
      "duration": 0.313,
      "velocity": 0.63,
      "hand": "right"
    },
    {
      "midi": 59,
      "time": 96.094,
      "duration": 0.156,
      "velocity": 0.63,
      "hand": "left"
    },
    {
      "midi": 56,
      "time": 96.25,
      "duration": 0.156,
      "velocity": 0.63,
      "hand": "left"
    },
    {
      "midi": 68,
      "time": 96.25,
      "duration": 0.313,
      "velocity": 0.63,
      "hand": "right"
    },
    {
      "midi": 71,
      "time": 96.25,
      "duration": 0.313,
      "velocity": 0.63,
      "hand": "right"
    },
    {
      "midi": 51,
      "time": 96.406,
      "duration": 0.156,
      "velocity": 0.63,
      "hand": "left"
    },
    {
      "midi": 31,
      "time": 96.563,
      "duration": 0.156,
      "velocity": 0.63,
      "hand": "left"
    },
    {
      "midi": 43,
      "time": 96.563,
      "duration": 0.156,
      "velocity": 0.63,
      "hand": "left"
    },
    {
      "midi": 63,
      "time": 96.563,
      "duration": 0.313,
      "velocity": 0.63,
      "hand": "right"
    },
    {
      "midi": 68,
      "time": 96.563,
      "duration": 0.313,
      "velocity": 0.63,
      "hand": "right"
    },
    {
      "midi": 75,
      "time": 96.563,
      "duration": 0.313,
      "velocity": 0.63,
      "hand": "right"
    },
    {
      "midi": 51,
      "time": 96.719,
      "duration": 0.156,
      "velocity": 0.63,
      "hand": "left"
    },
    {
      "midi": 56,
      "time": 96.875,
      "duration": 0.156,
      "velocity": 0.63,
      "hand": "left"
    },
    {
      "midi": 73,
      "time": 96.875,
      "duration": 0.313,
      "velocity": 0.63,
      "hand": "right"
    },
    {
      "midi": 59,
      "time": 97.031,
      "duration": 0.156,
      "velocity": 0.63,
      "hand": "left"
    },
    {
      "midi": 56,
      "time": 97.188,
      "duration": 0.156,
      "velocity": 0.63,
      "hand": "left"
    },
    {
      "midi": 68,
      "time": 97.188,
      "duration": 0.313,
      "velocity": 0.63,
      "hand": "right"
    },
    {
      "midi": 71,
      "time": 97.188,
      "duration": 0.313,
      "velocity": 0.63,
      "hand": "right"
    },
    {
      "midi": 51,
      "time": 97.344,
      "duration": 0.156,
      "velocity": 0.63,
      "hand": "left"
    },
    {
      "midi": 30,
      "time": 97.5,
      "duration": 0.156,
      "velocity": 0.63,
      "hand": "left"
    },
    {
      "midi": 42,
      "time": 97.5,
      "duration": 0.156,
      "velocity": 0.63,
      "hand": "left"
    },
    {
      "midi": 66,
      "time": 97.5,
      "duration": 0.156,
      "velocity": 0.63,
      "hand": "right"
    },
    {
      "midi": 71,
      "time": 97.5,
      "duration": 0.156,
      "velocity": 0.63,
      "hand": "right"
    },
    {
      "midi": 49,
      "time": 97.656,
      "duration": 0.156,
      "velocity": 0.63,
      "hand": "left"
    },
    {
      "midi": 66,
      "time": 97.656,
      "duration": 2.188,
      "velocity": 0.63,
      "hand": "right"
    },
    {
      "midi": 69,
      "time": 97.656,
      "duration": 2.188,
      "velocity": 0.63,
      "hand": "right"
    },
    {
      "midi": 54,
      "time": 97.813,
      "duration": 0.156,
      "velocity": 0.63,
      "hand": "left"
    },
    {
      "midi": 57,
      "time": 97.969,
      "duration": 0.156,
      "velocity": 0.63,
      "hand": "left"
    },
    {
      "midi": 54,
      "time": 98.125,
      "duration": 0.156,
      "velocity": 0.63,
      "hand": "left"
    },
    {
      "midi": 49,
      "time": 98.281,
      "duration": 0.156,
      "velocity": 0.63,
      "hand": "left"
    },
    {
      "midi": 30,
      "time": 98.438,
      "duration": 0.156,
      "velocity": 0.63,
      "hand": "left"
    },
    {
      "midi": 42,
      "time": 98.438,
      "duration": 0.156,
      "velocity": 0.63,
      "hand": "left"
    },
    {
      "midi": 49,
      "time": 98.594,
      "duration": 0.156,
      "velocity": 0.63,
      "hand": "left"
    },
    {
      "midi": 54,
      "time": 98.75,
      "duration": 0.156,
      "velocity": 0.63,
      "hand": "left"
    },
    {
      "midi": 57,
      "time": 98.906,
      "duration": 0.156,
      "velocity": 0.63,
      "hand": "left"
    },
    {
      "midi": 54,
      "time": 99.063,
      "duration": 0.156,
      "velocity": 0.63,
      "hand": "left"
    },
    {
      "midi": 49,
      "time": 99.219,
      "duration": 0.156,
      "velocity": 0.63,
      "hand": "left"
    },
    {
      "midi": 30,
      "time": 99.375,
      "duration": 0.156,
      "velocity": 0.63,
      "hand": "left"
    },
    {
      "midi": 42,
      "time": 99.375,
      "duration": 0.156,
      "velocity": 0.63,
      "hand": "left"
    },
    {
      "midi": 49,
      "time": 99.531,
      "duration": 0.156,
      "velocity": 0.63,
      "hand": "left"
    },
    {
      "midi": 54,
      "time": 99.688,
      "duration": 0.156,
      "velocity": 0.63,
      "hand": "left"
    },
    {
      "midi": 57,
      "time": 99.844,
      "duration": 0.156,
      "velocity": 0.63,
      "hand": "left"
    },
    {
      "midi": 54,
      "time": 100,
      "duration": 0.156,
      "velocity": 0.63,
      "hand": "left"
    },
    {
      "midi": 61,
      "time": 100,
      "duration": 0.313,
      "velocity": 0.63,
      "hand": "right"
    },
    {
      "midi": 64,
      "time": 100,
      "duration": 0.313,
      "velocity": 0.63,
      "hand": "right"
    },
    {
      "midi": 73,
      "time": 100,
      "duration": 0.313,
      "velocity": 0.63,
      "hand": "right"
    },
    {
      "midi": 49,
      "time": 100.156,
      "duration": 0.156,
      "velocity": 0.63,
      "hand": "left"
    },
    {
      "midi": 30,
      "time": 100.313,
      "duration": 0.156,
      "velocity": 0.63,
      "hand": "left"
    },
    {
      "midi": 42,
      "time": 100.313,
      "duration": 0.156,
      "velocity": 0.63,
      "hand": "left"
    },
    {
      "midi": 61,
      "time": 100.313,
      "duration": 0.313,
      "velocity": 0.63,
      "hand": "right"
    },
    {
      "midi": 64,
      "time": 100.313,
      "duration": 0.313,
      "velocity": 0.63,
      "hand": "right"
    },
    {
      "midi": 66,
      "time": 100.313,
      "duration": 0.313,
      "velocity": 0.63,
      "hand": "right"
    },
    {
      "midi": 71,
      "time": 100.313,
      "duration": 0.313,
      "velocity": 0.63,
      "hand": "right"
    },
    {
      "midi": 49,
      "time": 100.469,
      "duration": 0.156,
      "velocity": 0.63,
      "hand": "left"
    },
    {
      "midi": 54,
      "time": 100.625,
      "duration": 0.156,
      "velocity": 0.63,
      "hand": "left"
    },
    {
      "midi": 61,
      "time": 100.625,
      "duration": 0.313,
      "velocity": 0.63,
      "hand": "right"
    },
    {
      "midi": 66,
      "time": 100.625,
      "duration": 0.313,
      "velocity": 0.63,
      "hand": "right"
    },
    {
      "midi": 69,
      "time": 100.625,
      "duration": 0.313,
      "velocity": 0.63,
      "hand": "right"
    },
    {
      "midi": 57,
      "time": 100.781,
      "duration": 0.156,
      "velocity": 0.63,
      "hand": "left"
    },
    {
      "midi": 54,
      "time": 100.938,
      "duration": 0.156,
      "velocity": 0.63,
      "hand": "left"
    },
    {
      "midi": 61,
      "time": 100.938,
      "duration": 0.156,
      "velocity": 0.63,
      "hand": "right"
    },
    {
      "midi": 66,
      "time": 100.938,
      "duration": 0.156,
      "velocity": 0.63,
      "hand": "right"
    },
    {
      "midi": 68,
      "time": 100.938,
      "duration": 0.156,
      "velocity": 0.63,
      "hand": "right"
    },
    {
      "midi": 49,
      "time": 101.094,
      "duration": 0.156,
      "velocity": 0.63,
      "hand": "left"
    },
    {
      "midi": 59,
      "time": 101.094,
      "duration": 2.5,
      "velocity": 0.63,
      "hand": "left"
    },
    {
      "midi": 64,
      "time": 101.094,
      "duration": 2.5,
      "velocity": 0.63,
      "hand": "right"
    },
    {
      "midi": 68,
      "time": 101.094,
      "duration": 2.5,
      "velocity": 0.63,
      "hand": "right"
    },
    {
      "midi": 28,
      "time": 101.25,
      "duration": 0.156,
      "velocity": 0.63,
      "hand": "left"
    },
    {
      "midi": 40,
      "time": 101.25,
      "duration": 0.156,
      "velocity": 0.63,
      "hand": "left"
    },
    {
      "midi": 47,
      "time": 101.406,
      "duration": 0.156,
      "velocity": 0.63,
      "hand": "left"
    },
    {
      "midi": 52,
      "time": 101.563,
      "duration": 0.156,
      "velocity": 0.63,
      "hand": "left"
    },
    {
      "midi": 56,
      "time": 101.719,
      "duration": 0.156,
      "velocity": 0.63,
      "hand": "left"
    },
    {
      "midi": 52,
      "time": 101.875,
      "duration": 0.156,
      "velocity": 0.63,
      "hand": "left"
    },
    {
      "midi": 47,
      "time": 102.031,
      "duration": 0.156,
      "velocity": 0.63,
      "hand": "left"
    },
    {
      "midi": 28,
      "time": 102.188,
      "duration": 0.156,
      "velocity": 0.63,
      "hand": "left"
    },
    {
      "midi": 40,
      "time": 102.188,
      "duration": 0.156,
      "velocity": 0.63,
      "hand": "left"
    },
    {
      "midi": 47,
      "time": 102.344,
      "duration": 0.156,
      "velocity": 0.63,
      "hand": "left"
    },
    {
      "midi": 52,
      "time": 102.5,
      "duration": 0.156,
      "velocity": 0.63,
      "hand": "left"
    },
    {
      "midi": 56,
      "time": 102.656,
      "duration": 0.156,
      "velocity": 0.63,
      "hand": "left"
    },
    {
      "midi": 52,
      "time": 102.813,
      "duration": 0.156,
      "velocity": 0.63,
      "hand": "left"
    },
    {
      "midi": 47,
      "time": 102.969,
      "duration": 0.156,
      "velocity": 0.63,
      "hand": "left"
    },
    {
      "midi": 28,
      "time": 103.125,
      "duration": 0.156,
      "velocity": 0.63,
      "hand": "left"
    },
    {
      "midi": 40,
      "time": 103.125,
      "duration": 0.156,
      "velocity": 0.63,
      "hand": "left"
    },
    {
      "midi": 47,
      "time": 103.281,
      "duration": 0.156,
      "velocity": 0.63,
      "hand": "left"
    },
    {
      "midi": 52,
      "time": 103.438,
      "duration": 0.156,
      "velocity": 0.63,
      "hand": "left"
    },
    {
      "midi": 56,
      "time": 103.594,
      "duration": 0.156,
      "velocity": 0.63,
      "hand": "left"
    },
    {
      "midi": 52,
      "time": 103.75,
      "duration": 0.156,
      "velocity": 0.63,
      "hand": "left"
    },
    {
      "midi": 66,
      "time": 103.75,
      "duration": 0.313,
      "velocity": 0.63,
      "hand": "right"
    },
    {
      "midi": 47,
      "time": 103.906,
      "duration": 0.156,
      "velocity": 0.63,
      "hand": "left"
    },
    {
      "midi": 28,
      "time": 104.063,
      "duration": 0.156,
      "velocity": 0.63,
      "hand": "left"
    },
    {
      "midi": 40,
      "time": 104.063,
      "duration": 0.156,
      "velocity": 0.63,
      "hand": "left"
    },
    {
      "midi": 64,
      "time": 104.063,
      "duration": 0.313,
      "velocity": 0.63,
      "hand": "right"
    },
    {
      "midi": 47,
      "time": 104.219,
      "duration": 0.156,
      "velocity": 0.63,
      "hand": "left"
    },
    {
      "midi": 52,
      "time": 104.375,
      "duration": 0.156,
      "velocity": 0.63,
      "hand": "left"
    },
    {
      "midi": 68,
      "time": 104.375,
      "duration": 0.313,
      "velocity": 0.63,
      "hand": "right"
    },
    {
      "midi": 56,
      "time": 104.531,
      "duration": 0.156,
      "velocity": 0.63,
      "hand": "left"
    },
    {
      "midi": 52,
      "time": 104.688,
      "duration": 0.156,
      "velocity": 0.63,
      "hand": "left"
    },
    {
      "midi": 71,
      "time": 104.688,
      "duration": 0.313,
      "velocity": 0.63,
      "hand": "right"
    },
    {
      "midi": 47,
      "time": 104.844,
      "duration": 0.156,
      "velocity": 0.63,
      "hand": "left"
    },
    {
      "midi": 33,
      "time": 105,
      "duration": 0.156,
      "velocity": 0.63,
      "hand": "left"
    },
    {
      "midi": 45,
      "time": 105,
      "duration": 0.156,
      "velocity": 0.63,
      "hand": "left"
    },
    {
      "midi": 64,
      "time": 105,
      "duration": 1.25,
      "velocity": 0.63,
      "hand": "right"
    },
    {
      "midi": 69,
      "time": 105,
      "duration": 1.25,
      "velocity": 0.63,
      "hand": "right"
    },
    {
      "midi": 52,
      "time": 105.156,
      "duration": 0.156,
      "velocity": 0.63,
      "hand": "left"
    },
    {
      "midi": 73,
      "time": 105.156,
      "duration": 1.094,
      "velocity": 0.63,
      "hand": "right"
    },
    {
      "midi": 57,
      "time": 105.313,
      "duration": 0.156,
      "velocity": 0.63,
      "hand": "left"
    },
    {
      "midi": 61,
      "time": 105.469,
      "duration": 0.156,
      "velocity": 0.63,
      "hand": "right"
    },
    {
      "midi": 57,
      "time": 105.625,
      "duration": 0.156,
      "velocity": 0.63,
      "hand": "left"
    },
    {
      "midi": 52,
      "time": 105.781,
      "duration": 0.156,
      "velocity": 0.63,
      "hand": "left"
    },
    {
      "midi": 33,
      "time": 105.938,
      "duration": 0.156,
      "velocity": 0.63,
      "hand": "left"
    },
    {
      "midi": 45,
      "time": 105.938,
      "duration": 0.156,
      "velocity": 0.63,
      "hand": "left"
    },
    {
      "midi": 52,
      "time": 106.094,
      "duration": 0.156,
      "velocity": 0.63,
      "hand": "left"
    },
    {
      "midi": 57,
      "time": 106.25,
      "duration": 0.156,
      "velocity": 0.63,
      "hand": "left"
    },
    {
      "midi": 64,
      "time": 106.25,
      "duration": 0.313,
      "velocity": 0.63,
      "hand": "right"
    },
    {
      "midi": 73,
      "time": 106.25,
      "duration": 0.313,
      "velocity": 0.63,
      "hand": "right"
    },
    {
      "midi": 61,
      "time": 106.406,
      "duration": 0.156,
      "velocity": 0.63,
      "hand": "right"
    },
    {
      "midi": 57,
      "time": 106.563,
      "duration": 0.156,
      "velocity": 0.63,
      "hand": "left"
    },
    {
      "midi": 69,
      "time": 106.563,
      "duration": 0.313,
      "velocity": 0.63,
      "hand": "right"
    },
    {
      "midi": 75,
      "time": 106.563,
      "duration": 0.313,
      "velocity": 0.63,
      "hand": "right"
    },
    {
      "midi": 52,
      "time": 106.719,
      "duration": 0.156,
      "velocity": 0.63,
      "hand": "left"
    },
    {
      "midi": 33,
      "time": 106.875,
      "duration": 0.156,
      "velocity": 0.63,
      "hand": "left"
    },
    {
      "midi": 45,
      "time": 106.875,
      "duration": 0.156,
      "velocity": 0.63,
      "hand": "left"
    },
    {
      "midi": 69,
      "time": 106.875,
      "duration": 1.25,
      "velocity": 0.63,
      "hand": "right"
    },
    {
      "midi": 73,
      "time": 106.875,
      "duration": 1.25,
      "velocity": 0.63,
      "hand": "right"
    },
    {
      "midi": 76,
      "time": 106.875,
      "duration": 1.25,
      "velocity": 0.63,
      "hand": "right"
    },
    {
      "midi": 52,
      "time": 107.031,
      "duration": 0.156,
      "velocity": 0.63,
      "hand": "left"
    },
    {
      "midi": 57,
      "time": 107.188,
      "duration": 0.156,
      "velocity": 0.63,
      "hand": "left"
    },
    {
      "midi": 61,
      "time": 107.344,
      "duration": 0.156,
      "velocity": 0.63,
      "hand": "right"
    },
    {
      "midi": 57,
      "time": 107.5,
      "duration": 0.156,
      "velocity": 0.63,
      "hand": "left"
    },
    {
      "midi": 52,
      "time": 107.656,
      "duration": 0.156,
      "velocity": 0.63,
      "hand": "left"
    },
    {
      "midi": 33,
      "time": 107.813,
      "duration": 0.156,
      "velocity": 0.63,
      "hand": "left"
    },
    {
      "midi": 45,
      "time": 107.813,
      "duration": 0.156,
      "velocity": 0.63,
      "hand": "left"
    },
    {
      "midi": 52,
      "time": 107.969,
      "duration": 0.156,
      "velocity": 0.63,
      "hand": "left"
    },
    {
      "midi": 57,
      "time": 108.125,
      "duration": 0.156,
      "velocity": 0.63,
      "hand": "left"
    },
    {
      "midi": 69,
      "time": 108.125,
      "duration": 0.313,
      "velocity": 0.63,
      "hand": "right"
    },
    {
      "midi": 76,
      "time": 108.125,
      "duration": 0.313,
      "velocity": 0.63,
      "hand": "right"
    },
    {
      "midi": 61,
      "time": 108.281,
      "duration": 0.156,
      "velocity": 0.63,
      "hand": "right"
    },
    {
      "midi": 57,
      "time": 108.438,
      "duration": 0.156,
      "velocity": 0.63,
      "hand": "left"
    },
    {
      "midi": 68,
      "time": 108.438,
      "duration": 0.313,
      "velocity": 0.63,
      "hand": "right"
    },
    {
      "midi": 78,
      "time": 108.438,
      "duration": 0.313,
      "velocity": 0.63,
      "hand": "right"
    },
    {
      "midi": 52,
      "time": 108.594,
      "duration": 0.156,
      "velocity": 0.63,
      "hand": "left"
    },
    {
      "midi": 32,
      "time": 108.75,
      "duration": 0.156,
      "velocity": 0.63,
      "hand": "left"
    },
    {
      "midi": 44,
      "time": 108.75,
      "duration": 0.156,
      "velocity": 0.63,
      "hand": "left"
    },
    {
      "midi": 68,
      "time": 108.75,
      "duration": 0.313,
      "velocity": 0.63,
      "hand": "right"
    },
    {
      "midi": 75,
      "time": 108.75,
      "duration": 0.313,
      "velocity": 0.63,
      "hand": "right"
    },
    {
      "midi": 51,
      "time": 108.906,
      "duration": 0.156,
      "velocity": 0.63,
      "hand": "left"
    },
    {
      "midi": 56,
      "time": 109.063,
      "duration": 0.156,
      "velocity": 0.63,
      "hand": "left"
    },
    {
      "midi": 73,
      "time": 109.063,
      "duration": 0.313,
      "velocity": 0.63,
      "hand": "right"
    },
    {
      "midi": 59,
      "time": 109.219,
      "duration": 0.156,
      "velocity": 0.63,
      "hand": "left"
    },
    {
      "midi": 56,
      "time": 109.375,
      "duration": 0.156,
      "velocity": 0.63,
      "hand": "left"
    },
    {
      "midi": 68,
      "time": 109.375,
      "duration": 0.313,
      "velocity": 0.63,
      "hand": "right"
    },
    {
      "midi": 71,
      "time": 109.375,
      "duration": 0.313,
      "velocity": 0.63,
      "hand": "right"
    },
    {
      "midi": 51,
      "time": 109.531,
      "duration": 0.156,
      "velocity": 0.63,
      "hand": "left"
    },
    {
      "midi": 32,
      "time": 109.688,
      "duration": 0.156,
      "velocity": 0.63,
      "hand": "left"
    },
    {
      "midi": 44,
      "time": 109.688,
      "duration": 0.156,
      "velocity": 0.63,
      "hand": "left"
    },
    {
      "midi": 68,
      "time": 109.688,
      "duration": 0.625,
      "velocity": 0.63,
      "hand": "right"
    },
    {
      "midi": 71,
      "time": 109.688,
      "duration": 0.625,
      "velocity": 0.63,
      "hand": "right"
    },
    {
      "midi": 51,
      "time": 109.844,
      "duration": 0.156,
      "velocity": 0.63,
      "hand": "left"
    },
    {
      "midi": 56,
      "time": 110,
      "duration": 0.156,
      "velocity": 0.63,
      "hand": "left"
    },
    {
      "midi": 59,
      "time": 110.156,
      "duration": 0.156,
      "velocity": 0.63,
      "hand": "left"
    },
    {
      "midi": 56,
      "time": 110.313,
      "duration": 0.156,
      "velocity": 0.63,
      "hand": "left"
    },
    {
      "midi": 63,
      "time": 110.313,
      "duration": 0.313,
      "velocity": 0.63,
      "hand": "right"
    },
    {
      "midi": 68,
      "time": 110.313,
      "duration": 0.313,
      "velocity": 0.63,
      "hand": "right"
    },
    {
      "midi": 51,
      "time": 110.469,
      "duration": 0.156,
      "velocity": 0.63,
      "hand": "left"
    },
    {
      "midi": 32,
      "time": 110.625,
      "duration": 0.156,
      "velocity": 0.63,
      "hand": "left"
    },
    {
      "midi": 44,
      "time": 110.625,
      "duration": 0.156,
      "velocity": 0.63,
      "hand": "left"
    },
    {
      "midi": 63,
      "time": 110.625,
      "duration": 0.313,
      "velocity": 0.63,
      "hand": "right"
    },
    {
      "midi": 68,
      "time": 110.625,
      "duration": 0.313,
      "velocity": 0.63,
      "hand": "right"
    },
    {
      "midi": 71,
      "time": 110.625,
      "duration": 0.313,
      "velocity": 0.63,
      "hand": "right"
    },
    {
      "midi": 75,
      "time": 110.625,
      "duration": 0.313,
      "velocity": 0.63,
      "hand": "right"
    },
    {
      "midi": 51,
      "time": 110.781,
      "duration": 0.156,
      "velocity": 0.63,
      "hand": "left"
    },
    {
      "midi": 56,
      "time": 110.938,
      "duration": 0.156,
      "velocity": 0.63,
      "hand": "left"
    },
    {
      "midi": 73,
      "time": 110.938,
      "duration": 0.313,
      "velocity": 0.63,
      "hand": "right"
    },
    {
      "midi": 59,
      "time": 111.094,
      "duration": 0.156,
      "velocity": 0.63,
      "hand": "left"
    },
    {
      "midi": 56,
      "time": 111.25,
      "duration": 0.156,
      "velocity": 0.63,
      "hand": "left"
    },
    {
      "midi": 68,
      "time": 111.25,
      "duration": 0.313,
      "velocity": 0.63,
      "hand": "right"
    },
    {
      "midi": 71,
      "time": 111.25,
      "duration": 0.313,
      "velocity": 0.63,
      "hand": "right"
    },
    {
      "midi": 51,
      "time": 111.406,
      "duration": 0.156,
      "velocity": 0.63,
      "hand": "left"
    },
    {
      "midi": 31,
      "time": 111.563,
      "duration": 0.156,
      "velocity": 0.63,
      "hand": "left"
    },
    {
      "midi": 43,
      "time": 111.563,
      "duration": 0.156,
      "velocity": 0.63,
      "hand": "left"
    },
    {
      "midi": 63,
      "time": 111.563,
      "duration": 0.313,
      "velocity": 0.63,
      "hand": "right"
    },
    {
      "midi": 68,
      "time": 111.563,
      "duration": 0.313,
      "velocity": 0.63,
      "hand": "right"
    },
    {
      "midi": 75,
      "time": 111.563,
      "duration": 0.313,
      "velocity": 0.63,
      "hand": "right"
    },
    {
      "midi": 51,
      "time": 111.719,
      "duration": 0.156,
      "velocity": 0.63,
      "hand": "left"
    },
    {
      "midi": 56,
      "time": 111.875,
      "duration": 0.156,
      "velocity": 0.63,
      "hand": "left"
    },
    {
      "midi": 73,
      "time": 111.875,
      "duration": 0.313,
      "velocity": 0.63,
      "hand": "right"
    },
    {
      "midi": 59,
      "time": 112.031,
      "duration": 0.156,
      "velocity": 0.63,
      "hand": "left"
    },
    {
      "midi": 56,
      "time": 112.188,
      "duration": 0.156,
      "velocity": 0.63,
      "hand": "left"
    },
    {
      "midi": 68,
      "time": 112.188,
      "duration": 0.313,
      "velocity": 0.63,
      "hand": "right"
    },
    {
      "midi": 71,
      "time": 112.188,
      "duration": 0.313,
      "velocity": 0.63,
      "hand": "right"
    },
    {
      "midi": 51,
      "time": 112.344,
      "duration": 0.156,
      "velocity": 0.63,
      "hand": "left"
    },
    {
      "midi": 30,
      "time": 112.5,
      "duration": 0.156,
      "velocity": 0.63,
      "hand": "left"
    },
    {
      "midi": 42,
      "time": 112.5,
      "duration": 0.156,
      "velocity": 0.63,
      "hand": "left"
    },
    {
      "midi": 66,
      "time": 112.5,
      "duration": 0.156,
      "velocity": 0.63,
      "hand": "right"
    },
    {
      "midi": 71,
      "time": 112.5,
      "duration": 0.156,
      "velocity": 0.63,
      "hand": "right"
    },
    {
      "midi": 49,
      "time": 112.656,
      "duration": 0.156,
      "velocity": 0.63,
      "hand": "left"
    },
    {
      "midi": 66,
      "time": 112.656,
      "duration": 2.188,
      "velocity": 0.63,
      "hand": "right"
    },
    {
      "midi": 69,
      "time": 112.656,
      "duration": 2.188,
      "velocity": 0.63,
      "hand": "right"
    },
    {
      "midi": 54,
      "time": 112.813,
      "duration": 0.156,
      "velocity": 0.63,
      "hand": "left"
    },
    {
      "midi": 57,
      "time": 112.969,
      "duration": 0.156,
      "velocity": 0.63,
      "hand": "left"
    },
    {
      "midi": 54,
      "time": 113.125,
      "duration": 0.156,
      "velocity": 0.63,
      "hand": "left"
    },
    {
      "midi": 49,
      "time": 113.281,
      "duration": 0.156,
      "velocity": 0.63,
      "hand": "left"
    },
    {
      "midi": 30,
      "time": 113.438,
      "duration": 0.156,
      "velocity": 0.63,
      "hand": "left"
    },
    {
      "midi": 42,
      "time": 113.438,
      "duration": 0.156,
      "velocity": 0.63,
      "hand": "left"
    },
    {
      "midi": 49,
      "time": 113.594,
      "duration": 0.156,
      "velocity": 0.63,
      "hand": "left"
    },
    {
      "midi": 54,
      "time": 113.75,
      "duration": 0.156,
      "velocity": 0.63,
      "hand": "left"
    },
    {
      "midi": 57,
      "time": 113.906,
      "duration": 0.156,
      "velocity": 0.63,
      "hand": "left"
    },
    {
      "midi": 54,
      "time": 114.063,
      "duration": 0.156,
      "velocity": 0.63,
      "hand": "left"
    },
    {
      "midi": 49,
      "time": 114.219,
      "duration": 0.156,
      "velocity": 0.63,
      "hand": "left"
    },
    {
      "midi": 30,
      "time": 114.375,
      "duration": 0.156,
      "velocity": 0.63,
      "hand": "left"
    },
    {
      "midi": 42,
      "time": 114.375,
      "duration": 0.156,
      "velocity": 0.63,
      "hand": "left"
    },
    {
      "midi": 49,
      "time": 114.531,
      "duration": 0.156,
      "velocity": 0.63,
      "hand": "left"
    },
    {
      "midi": 54,
      "time": 114.688,
      "duration": 0.156,
      "velocity": 0.63,
      "hand": "left"
    },
    {
      "midi": 57,
      "time": 114.844,
      "duration": 0.156,
      "velocity": 0.63,
      "hand": "left"
    },
    {
      "midi": 54,
      "time": 115,
      "duration": 0.156,
      "velocity": 0.63,
      "hand": "left"
    },
    {
      "midi": 61,
      "time": 115,
      "duration": 0.313,
      "velocity": 0.63,
      "hand": "right"
    },
    {
      "midi": 64,
      "time": 115,
      "duration": 0.313,
      "velocity": 0.63,
      "hand": "right"
    },
    {
      "midi": 73,
      "time": 115,
      "duration": 0.313,
      "velocity": 0.63,
      "hand": "right"
    },
    {
      "midi": 49,
      "time": 115.156,
      "duration": 0.156,
      "velocity": 0.63,
      "hand": "left"
    },
    {
      "midi": 30,
      "time": 115.313,
      "duration": 0.156,
      "velocity": 0.63,
      "hand": "left"
    },
    {
      "midi": 42,
      "time": 115.313,
      "duration": 0.156,
      "velocity": 0.63,
      "hand": "left"
    },
    {
      "midi": 61,
      "time": 115.313,
      "duration": 0.313,
      "velocity": 0.63,
      "hand": "right"
    },
    {
      "midi": 64,
      "time": 115.313,
      "duration": 0.313,
      "velocity": 0.63,
      "hand": "right"
    },
    {
      "midi": 66,
      "time": 115.313,
      "duration": 0.313,
      "velocity": 0.63,
      "hand": "right"
    },
    {
      "midi": 71,
      "time": 115.313,
      "duration": 0.313,
      "velocity": 0.63,
      "hand": "right"
    },
    {
      "midi": 49,
      "time": 115.469,
      "duration": 0.156,
      "velocity": 0.63,
      "hand": "left"
    },
    {
      "midi": 54,
      "time": 115.625,
      "duration": 0.156,
      "velocity": 0.63,
      "hand": "left"
    },
    {
      "midi": 61,
      "time": 115.625,
      "duration": 0.313,
      "velocity": 0.63,
      "hand": "right"
    },
    {
      "midi": 66,
      "time": 115.625,
      "duration": 0.313,
      "velocity": 0.63,
      "hand": "right"
    },
    {
      "midi": 69,
      "time": 115.625,
      "duration": 0.313,
      "velocity": 0.63,
      "hand": "right"
    },
    {
      "midi": 57,
      "time": 115.781,
      "duration": 0.156,
      "velocity": 0.63,
      "hand": "left"
    },
    {
      "midi": 54,
      "time": 115.938,
      "duration": 0.156,
      "velocity": 0.63,
      "hand": "left"
    },
    {
      "midi": 61,
      "time": 115.938,
      "duration": 0.313,
      "velocity": 0.63,
      "hand": "right"
    },
    {
      "midi": 66,
      "time": 115.938,
      "duration": 0.313,
      "velocity": 0.63,
      "hand": "right"
    },
    {
      "midi": 68,
      "time": 115.938,
      "duration": 0.313,
      "velocity": 0.63,
      "hand": "right"
    },
    {
      "midi": 49,
      "time": 116.094,
      "duration": 0.156,
      "velocity": 0.63,
      "hand": "left"
    },
    {
      "midi": 32,
      "time": 116.25,
      "duration": 0.313,
      "velocity": 0.63,
      "hand": "left"
    },
    {
      "midi": 44,
      "time": 116.25,
      "duration": 0.313,
      "velocity": 0.63,
      "hand": "left"
    },
    {
      "midi": 60,
      "time": 116.25,
      "duration": 0.938,
      "velocity": 0.63,
      "hand": "right"
    },
    {
      "midi": 63,
      "time": 116.25,
      "duration": 0.938,
      "velocity": 0.63,
      "hand": "right"
    },
    {
      "midi": 68,
      "time": 116.25,
      "duration": 0.938,
      "velocity": 0.63,
      "hand": "right"
    },
    {
      "midi": 51,
      "time": 116.563,
      "duration": 0.313,
      "velocity": 0.65,
      "hand": "left"
    },
    {
      "midi": 56,
      "time": 116.563,
      "duration": 0.313,
      "velocity": 0.65,
      "hand": "left"
    },
    {
      "midi": 51,
      "time": 116.875,
      "duration": 0.313,
      "velocity": 0.67,
      "hand": "left"
    },
    {
      "midi": 56,
      "time": 116.875,
      "duration": 0.313,
      "velocity": 0.67,
      "hand": "left"
    },
    {
      "midi": 32,
      "time": 117.188,
      "duration": 0.313,
      "velocity": 0.69,
      "hand": "left"
    },
    {
      "midi": 44,
      "time": 117.188,
      "duration": 0.313,
      "velocity": 0.69,
      "hand": "left"
    },
    {
      "midi": 61,
      "time": 117.188,
      "duration": 0.938,
      "velocity": 0.69,
      "hand": "right"
    },
    {
      "midi": 68,
      "time": 117.188,
      "duration": 0.938,
      "velocity": 0.69,
      "hand": "right"
    },
    {
      "midi": 73,
      "time": 117.188,
      "duration": 0.938,
      "velocity": 0.69,
      "hand": "right"
    },
    {
      "midi": 51,
      "time": 117.5,
      "duration": 0.313,
      "velocity": 0.71,
      "hand": "left"
    },
    {
      "midi": 56,
      "time": 117.5,
      "duration": 0.313,
      "velocity": 0.71,
      "hand": "left"
    },
    {
      "midi": 51,
      "time": 117.813,
      "duration": 0.313,
      "velocity": 0.73,
      "hand": "left"
    },
    {
      "midi": 56,
      "time": 117.813,
      "duration": 0.313,
      "velocity": 0.73,
      "hand": "left"
    },
    {
      "midi": 51,
      "time": 118.125,
      "duration": 0.156,
      "velocity": 0.76,
      "hand": "left"
    },
    {
      "midi": 56,
      "time": 118.125,
      "duration": 0.156,
      "velocity": 0.76,
      "hand": "left"
    },
    {
      "midi": 64,
      "time": 118.125,
      "duration": 0.938,
      "velocity": 0.76,
      "hand": "right"
    },
    {
      "midi": 68,
      "time": 118.125,
      "duration": 0.938,
      "velocity": 0.76,
      "hand": "right"
    },
    {
      "midi": 76,
      "time": 118.125,
      "duration": 0.938,
      "velocity": 0.76,
      "hand": "right"
    },
    {
      "midi": 44,
      "time": 118.281,
      "duration": 0.156,
      "velocity": 0.76,
      "hand": "left"
    },
    {
      "midi": 51,
      "time": 118.438,
      "duration": 0.156,
      "velocity": 0.77,
      "hand": "left"
    },
    {
      "midi": 56,
      "time": 118.438,
      "duration": 0.156,
      "velocity": 0.77,
      "hand": "left"
    },
    {
      "midi": 44,
      "time": 118.594,
      "duration": 0.156,
      "velocity": 0.79,
      "hand": "left"
    },
    {
      "midi": 51,
      "time": 118.75,
      "duration": 0.156,
      "velocity": 0.8,
      "hand": "left"
    },
    {
      "midi": 56,
      "time": 118.75,
      "duration": 0.156,
      "velocity": 0.8,
      "hand": "left"
    },
    {
      "midi": 44,
      "time": 118.906,
      "duration": 0.156,
      "velocity": 0.8,
      "hand": "left"
    },
    {
      "midi": 60,
      "time": 119.063,
      "duration": 0.938,
      "velocity": 0.98,
      "hand": "right"
    },
    {
      "midi": 63,
      "time": 119.063,
      "duration": 0.938,
      "velocity": 0.98,
      "hand": "right"
    },
    {
      "midi": 66,
      "time": 119.063,
      "duration": 0.938,
      "velocity": 0.98,
      "hand": "right"
    },
    {
      "midi": 68,
      "time": 119.063,
      "duration": 0.938,
      "velocity": 0.98,
      "hand": "right"
    },
    {
      "midi": 72,
      "time": 119.063,
      "duration": 0.938,
      "velocity": 0.98,
      "hand": "right"
    },
    {
      "midi": 78,
      "time": 119.063,
      "duration": 0.938,
      "velocity": 0.98,
      "hand": "right"
    },
    {
      "midi": 33,
      "time": 120,
      "duration": 0.313,
      "velocity": 1,
      "hand": "left"
    },
    {
      "midi": 45,
      "time": 120,
      "duration": 0.313,
      "velocity": 1,
      "hand": "left"
    },
    {
      "midi": 80,
      "time": 120,
      "duration": 0.078,
      "velocity": 0.88,
      "hand": "right"
    },
    {
      "midi": 80,
      "time": 120,
      "duration": 0.156,
      "velocity": 1,
      "hand": "right"
    },
    {
      "midi": 85,
      "time": 120,
      "duration": 0.469,
      "velocity": 1,
      "hand": "right"
    },
    {
      "midi": 88,
      "time": 120,
      "duration": 1.719,
      "velocity": 1,
      "hand": "right"
    },
    {
      "midi": 92,
      "time": 120,
      "duration": 1.719,
      "velocity": 1,
      "hand": "right"
    },
    {
      "midi": 80,
      "time": 120.156,
      "duration": 0.625,
      "velocity": 0.88,
      "hand": "right"
    },
    {
      "midi": 83,
      "time": 120.313,
      "duration": 0.156,
      "velocity": 0.88,
      "hand": "right"
    },
    {
      "midi": 85,
      "time": 120.469,
      "duration": 0.938,
      "velocity": 0.88,
      "hand": "right"
    },
    {
      "midi": 83,
      "time": 120.625,
      "duration": 0.156,
      "velocity": 0.88,
      "hand": "right"
    },
    {
      "midi": 80,
      "time": 120.781,
      "duration": 0.313,
      "velocity": 0.88,
      "hand": "right"
    },
    {
      "midi": 56,
      "time": 120.938,
      "duration": 0.938,
      "velocity": 0.88,
      "hand": "left"
    },
    {
      "midi": 61,
      "time": 120.938,
      "duration": 0.938,
      "velocity": 0.88,
      "hand": "right"
    },
    {
      "midi": 64,
      "time": 120.938,
      "duration": 0.938,
      "velocity": 0.88,
      "hand": "right"
    },
    {
      "midi": 78,
      "time": 120.938,
      "duration": 0.156,
      "velocity": 0.88,
      "hand": "right"
    },
    {
      "midi": 80,
      "time": 121.094,
      "duration": 0.625,
      "velocity": 0.88,
      "hand": "right"
    },
    {
      "midi": 83,
      "time": 121.25,
      "duration": 0.156,
      "velocity": 0.88,
      "hand": "right"
    },
    {
      "midi": 85,
      "time": 121.406,
      "duration": 0.313,
      "velocity": 0.88,
      "hand": "right"
    },
    {
      "midi": 83,
      "time": 121.563,
      "duration": 0.156,
      "velocity": 0.88,
      "hand": "right"
    },
    {
      "midi": 80,
      "time": 121.719,
      "duration": 0.156,
      "velocity": 0.88,
      "hand": "right"
    },
    {
      "midi": 73,
      "time": 121.875,
      "duration": 0.313,
      "velocity": 0.88,
      "hand": "right"
    },
    {
      "midi": 76,
      "time": 121.875,
      "duration": 0.313,
      "velocity": 0.88,
      "hand": "right"
    },
    {
      "midi": 78,
      "time": 121.875,
      "duration": 0.156,
      "velocity": 0.88,
      "hand": "right"
    },
    {
      "midi": 80,
      "time": 122.031,
      "duration": 0.156,
      "velocity": 0.88,
      "hand": "right"
    },
    {
      "midi": 68,
      "time": 122.188,
      "duration": 0.313,
      "velocity": 0.88,
      "hand": "right"
    },
    {
      "midi": 73,
      "time": 122.188,
      "duration": 0.313,
      "velocity": 0.88,
      "hand": "right"
    },
    {
      "midi": 83,
      "time": 122.188,
      "duration": 0.156,
      "velocity": 0.88,
      "hand": "right"
    },
    {
      "midi": 85,
      "time": 122.344,
      "duration": 0.156,
      "velocity": 0.88,
      "hand": "right"
    },
    {
      "midi": 73,
      "time": 122.5,
      "duration": 0.313,
      "velocity": 0.88,
      "hand": "right"
    },
    {
      "midi": 76,
      "time": 122.5,
      "duration": 0.313,
      "velocity": 0.88,
      "hand": "right"
    },
    {
      "midi": 83,
      "time": 122.5,
      "duration": 0.156,
      "velocity": 0.88,
      "hand": "right"
    },
    {
      "midi": 80,
      "time": 122.656,
      "duration": 0.156,
      "velocity": 0.88,
      "hand": "right"
    },
    {
      "midi": 64,
      "time": 122.813,
      "duration": 0.313,
      "velocity": 0.88,
      "hand": "right"
    },
    {
      "midi": 68,
      "time": 122.813,
      "duration": 0.313,
      "velocity": 0.88,
      "hand": "right"
    },
    {
      "midi": 78,
      "time": 122.813,
      "duration": 0.156,
      "velocity": 0.88,
      "hand": "right"
    },
    {
      "midi": 80,
      "time": 122.969,
      "duration": 0.156,
      "velocity": 0.88,
      "hand": "right"
    },
    {
      "midi": 61,
      "time": 123.125,
      "duration": 0.313,
      "velocity": 0.88,
      "hand": "right"
    },
    {
      "midi": 64,
      "time": 123.125,
      "duration": 0.313,
      "velocity": 0.88,
      "hand": "right"
    },
    {
      "midi": 83,
      "time": 123.125,
      "duration": 0.156,
      "velocity": 0.88,
      "hand": "right"
    },
    {
      "midi": 85,
      "time": 123.281,
      "duration": 0.156,
      "velocity": 0.88,
      "hand": "right"
    },
    {
      "midi": 64,
      "time": 123.438,
      "duration": 0.313,
      "velocity": 0.88,
      "hand": "right"
    },
    {
      "midi": 68,
      "time": 123.438,
      "duration": 0.313,
      "velocity": 0.88,
      "hand": "right"
    },
    {
      "midi": 83,
      "time": 123.438,
      "duration": 0.156,
      "velocity": 0.88,
      "hand": "right"
    },
    {
      "midi": 80,
      "time": 123.594,
      "duration": 0.156,
      "velocity": 0.88,
      "hand": "right"
    },
    {
      "midi": 33,
      "time": 123.75,
      "duration": 0.469,
      "velocity": 1,
      "hand": "left"
    },
    {
      "midi": 45,
      "time": 123.75,
      "duration": 0.469,
      "velocity": 1,
      "hand": "left"
    },
    {
      "midi": 73,
      "time": 123.75,
      "duration": 0.938,
      "velocity": 0.88,
      "hand": "right"
    },
    {
      "midi": 76,
      "time": 123.75,
      "duration": 0.938,
      "velocity": 0.88,
      "hand": "right"
    },
    {
      "midi": 80,
      "time": 123.75,
      "duration": 0.938,
      "velocity": 0.88,
      "hand": "right"
    },
    {
      "midi": 85,
      "time": 123.75,
      "duration": 0.938,
      "velocity": 0.88,
      "hand": "right"
    },
    {
      "midi": 52,
      "time": 124.219,
      "duration": 0.313,
      "velocity": 0.88,
      "hand": "left"
    },
    {
      "midi": 56,
      "time": 124.219,
      "duration": 0.313,
      "velocity": 0.88,
      "hand": "left"
    },
    {
      "midi": 52,
      "time": 124.531,
      "duration": 0.156,
      "velocity": 0.88,
      "hand": "left"
    },
    {
      "midi": 56,
      "time": 124.531,
      "duration": 0.156,
      "velocity": 0.88,
      "hand": "left"
    },
    {
      "midi": 37,
      "time": 124.688,
      "duration": 0.313,
      "velocity": 1,
      "hand": "left"
    },
    {
      "midi": 49,
      "time": 124.688,
      "duration": 0.313,
      "velocity": 1,
      "hand": "left"
    },
    {
      "midi": 75,
      "time": 124.688,
      "duration": 0.938,
      "velocity": 0.88,
      "hand": "right"
    },
    {
      "midi": 80,
      "time": 124.688,
      "duration": 0.938,
      "velocity": 0.88,
      "hand": "right"
    },
    {
      "midi": 87,
      "time": 124.688,
      "duration": 0.938,
      "velocity": 0.88,
      "hand": "right"
    },
    {
      "midi": 52,
      "time": 125,
      "duration": 0.313,
      "velocity": 0.88,
      "hand": "left"
    },
    {
      "midi": 56,
      "time": 125,
      "duration": 0.313,
      "velocity": 0.88,
      "hand": "left"
    },
    {
      "midi": 52,
      "time": 125.313,
      "duration": 0.313,
      "velocity": 0.88,
      "hand": "left"
    },
    {
      "midi": 56,
      "time": 125.313,
      "duration": 0.313,
      "velocity": 0.88,
      "hand": "left"
    },
    {
      "midi": 33,
      "time": 125.625,
      "duration": 0.156,
      "velocity": 1,
      "hand": "left"
    },
    {
      "midi": 45,
      "time": 125.625,
      "duration": 0.156,
      "velocity": 1,
      "hand": "left"
    },
    {
      "midi": 83,
      "time": 125.625,
      "duration": 0.078,
      "velocity": 0.88,
      "hand": "right"
    },
    {
      "midi": 88,
      "time": 125.625,
      "duration": 0.078,
      "velocity": 0.88,
      "hand": "right"
    },
    {
      "midi": 95,
      "time": 125.625,
      "duration": 0.078,
      "velocity": 0.88,
      "hand": "right"
    },
    {
      "midi": 45,
      "time": 125.781,
      "duration": 0.156,
      "velocity": 0.88,
      "hand": "left"
    },
    {
      "midi": 83,
      "time": 125.781,
      "duration": 0.078,
      "velocity": 0.88,
      "hand": "right"
    },
    {
      "midi": 88,
      "time": 125.781,
      "duration": 0.078,
      "velocity": 0.88,
      "hand": "right"
    },
    {
      "midi": 95,
      "time": 125.781,
      "duration": 0.078,
      "velocity": 0.88,
      "hand": "right"
    },
    {
      "midi": 52,
      "time": 125.938,
      "duration": 0.156,
      "velocity": 0.88,
      "hand": "left"
    },
    {
      "midi": 57,
      "time": 125.938,
      "duration": 0.156,
      "velocity": 0.88,
      "hand": "left"
    },
    {
      "midi": 83,
      "time": 125.938,
      "duration": 0.078,
      "velocity": 0.88,
      "hand": "right"
    },
    {
      "midi": 88,
      "time": 125.938,
      "duration": 0.078,
      "velocity": 0.88,
      "hand": "right"
    },
    {
      "midi": 95,
      "time": 125.938,
      "duration": 0.078,
      "velocity": 0.88,
      "hand": "right"
    },
    {
      "midi": 48,
      "time": 126.094,
      "duration": 0.156,
      "velocity": 0.88,
      "hand": "left"
    },
    {
      "midi": 83,
      "time": 126.094,
      "duration": 0.078,
      "velocity": 0.88,
      "hand": "right"
    },
    {
      "midi": 88,
      "time": 126.094,
      "duration": 0.078,
      "velocity": 0.88,
      "hand": "right"
    },
    {
      "midi": 95,
      "time": 126.094,
      "duration": 0.078,
      "velocity": 0.88,
      "hand": "right"
    },
    {
      "midi": 52,
      "time": 126.25,
      "duration": 0.156,
      "velocity": 0.88,
      "hand": "left"
    },
    {
      "midi": 57,
      "time": 126.25,
      "duration": 0.156,
      "velocity": 0.88,
      "hand": "left"
    },
    {
      "midi": 83,
      "time": 126.25,
      "duration": 0.078,
      "velocity": 0.88,
      "hand": "right"
    },
    {
      "midi": 88,
      "time": 126.25,
      "duration": 0.078,
      "velocity": 0.88,
      "hand": "right"
    },
    {
      "midi": 95,
      "time": 126.25,
      "duration": 0.078,
      "velocity": 0.88,
      "hand": "right"
    },
    {
      "midi": 48,
      "time": 126.406,
      "duration": 0.156,
      "velocity": 0.88,
      "hand": "left"
    },
    {
      "midi": 83,
      "time": 126.406,
      "duration": 0.078,
      "velocity": 0.88,
      "hand": "right"
    },
    {
      "midi": 88,
      "time": 126.406,
      "duration": 0.078,
      "velocity": 0.88,
      "hand": "right"
    },
    {
      "midi": 95,
      "time": 126.406,
      "duration": 0.078,
      "velocity": 0.88,
      "hand": "right"
    },
    {
      "midi": 42,
      "time": 126.563,
      "duration": 0.156,
      "velocity": 1,
      "hand": "left"
    },
    {
      "midi": 54,
      "time": 126.563,
      "duration": 0.156,
      "velocity": 1,
      "hand": "left"
    },
    {
      "midi": 81,
      "time": 126.563,
      "duration": 0.078,
      "velocity": 0.88,
      "hand": "right"
    },
    {
      "midi": 90,
      "time": 126.563,
      "duration": 0.078,
      "velocity": 0.88,
      "hand": "right"
    },
    {
      "midi": 93,
      "time": 126.563,
      "duration": 0.078,
      "velocity": 0.88,
      "hand": "right"
    },
    {
      "midi": 57,
      "time": 126.719,
      "duration": 0.156,
      "velocity": 0.88,
      "hand": "left"
    },
    {
      "midi": 81,
      "time": 126.719,
      "duration": 0.078,
      "velocity": 0.88,
      "hand": "right"
    },
    {
      "midi": 90,
      "time": 126.719,
      "duration": 0.078,
      "velocity": 0.88,
      "hand": "right"
    },
    {
      "midi": 93,
      "time": 126.719,
      "duration": 0.078,
      "velocity": 0.88,
      "hand": "right"
    },
    {
      "midi": 60,
      "time": 126.875,
      "duration": 0.156,
      "velocity": 0.88,
      "hand": "right"
    },
    {
      "midi": 81,
      "time": 126.875,
      "duration": 0.078,
      "velocity": 0.88,
      "hand": "right"
    },
    {
      "midi": 90,
      "time": 126.875,
      "duration": 0.078,
      "velocity": 0.88,
      "hand": "right"
    },
    {
      "midi": 93,
      "time": 126.875,
      "duration": 0.078,
      "velocity": 0.88,
      "hand": "right"
    },
    {
      "midi": 57,
      "time": 127.031,
      "duration": 0.156,
      "velocity": 0.88,
      "hand": "left"
    },
    {
      "midi": 81,
      "time": 127.031,
      "duration": 0.078,
      "velocity": 0.88,
      "hand": "right"
    },
    {
      "midi": 90,
      "time": 127.031,
      "duration": 0.078,
      "velocity": 0.88,
      "hand": "right"
    },
    {
      "midi": 93,
      "time": 127.031,
      "duration": 0.078,
      "velocity": 0.88,
      "hand": "right"
    },
    {
      "midi": 54,
      "time": 127.188,
      "duration": 0.156,
      "velocity": 0.88,
      "hand": "left"
    },
    {
      "midi": 81,
      "time": 127.188,
      "duration": 0.078,
      "velocity": 0.88,
      "hand": "right"
    },
    {
      "midi": 90,
      "time": 127.188,
      "duration": 0.078,
      "velocity": 0.88,
      "hand": "right"
    },
    {
      "midi": 93,
      "time": 127.188,
      "duration": 0.078,
      "velocity": 0.88,
      "hand": "right"
    },
    {
      "midi": 48,
      "time": 127.344,
      "duration": 0.156,
      "velocity": 0.88,
      "hand": "left"
    },
    {
      "midi": 81,
      "time": 127.344,
      "duration": 0.078,
      "velocity": 0.88,
      "hand": "right"
    },
    {
      "midi": 90,
      "time": 127.344,
      "duration": 0.078,
      "velocity": 0.88,
      "hand": "right"
    },
    {
      "midi": 93,
      "time": 127.344,
      "duration": 0.078,
      "velocity": 0.88,
      "hand": "right"
    },
    {
      "midi": 28,
      "time": 127.5,
      "duration": 0.313,
      "velocity": 1,
      "hand": "left"
    },
    {
      "midi": 40,
      "time": 127.5,
      "duration": 0.313,
      "velocity": 1,
      "hand": "left"
    },
    {
      "midi": 80,
      "time": 127.5,
      "duration": 0.078,
      "velocity": 0.88,
      "hand": "right"
    },
    {
      "midi": 80,
      "time": 127.5,
      "duration": 0.469,
      "velocity": 1,
      "hand": "right"
    },
    {
      "midi": 87,
      "time": 127.5,
      "duration": 1.719,
      "velocity": 1,
      "hand": "right"
    },
    {
      "midi": 88,
      "time": 127.5,
      "duration": 1.719,
      "velocity": 1,
      "hand": "right"
    },
    {
      "midi": 92,
      "time": 127.5,
      "duration": 1.719,
      "velocity": 1,
      "hand": "right"
    },
    {
      "midi": 76,
      "time": 127.656,
      "duration": 0.156,
      "velocity": 0.88,
      "hand": "right"
    },
    {
      "midi": 78,
      "time": 127.813,
      "duration": 0.156,
      "velocity": 0.88,
      "hand": "right"
    },
    {
      "midi": 80,
      "time": 127.969,
      "duration": 0.938,
      "velocity": 0.88,
      "hand": "right"
    },
    {
      "midi": 40,
      "time": 128.125,
      "duration": 0.313,
      "velocity": 0.88,
      "hand": "left"
    },
    {
      "midi": 52,
      "time": 128.125,
      "duration": 0.313,
      "velocity": 0.88,
      "hand": "left"
    },
    {
      "midi": 78,
      "time": 128.125,
      "duration": 0.156,
      "velocity": 0.88,
      "hand": "right"
    },
    {
      "midi": 76,
      "time": 128.281,
      "duration": 0.156,
      "velocity": 0.88,
      "hand": "right"
    },
    {
      "midi": 56,
      "time": 128.438,
      "duration": 0.938,
      "velocity": 0.88,
      "hand": "left"
    },
    {
      "midi": 59,
      "time": 128.438,
      "duration": 0.938,
      "velocity": 0.88,
      "hand": "left"
    },
    {
      "midi": 63,
      "time": 128.438,
      "duration": 0.938,
      "velocity": 0.88,
      "hand": "right"
    },
    {
      "midi": 75,
      "time": 128.438,
      "duration": 0.156,
      "velocity": 0.88,
      "hand": "right"
    },
    {
      "midi": 76,
      "time": 128.594,
      "duration": 0.156,
      "velocity": 0.88,
      "hand": "right"
    },
    {
      "midi": 78,
      "time": 128.75,
      "duration": 0.156,
      "velocity": 0.88,
      "hand": "right"
    },
    {
      "midi": 80,
      "time": 128.906,
      "duration": 0.313,
      "velocity": 0.88,
      "hand": "right"
    },
    {
      "midi": 78,
      "time": 129.063,
      "duration": 0.156,
      "velocity": 0.88,
      "hand": "right"
    },
    {
      "midi": 76,
      "time": 129.219,
      "duration": 0.156,
      "velocity": 0.88,
      "hand": "right"
    },
    {
      "midi": 71,
      "time": 129.375,
      "duration": 0.313,
      "velocity": 0.88,
      "hand": "right"
    },
    {
      "midi": 75,
      "time": 129.375,
      "duration": 0.156,
      "velocity": 0.88,
      "hand": "right"
    },
    {
      "midi": 76,
      "time": 129.531,
      "duration": 0.156,
      "velocity": 0.88,
      "hand": "right"
    },
    {
      "midi": 68,
      "time": 129.688,
      "duration": 0.313,
      "velocity": 0.88,
      "hand": "right"
    },
    {
      "midi": 71,
      "time": 129.688,
      "duration": 0.313,
      "velocity": 0.88,
      "hand": "right"
    },
    {
      "midi": 78,
      "time": 129.688,
      "duration": 0.156,
      "velocity": 0.88,
      "hand": "right"
    },
    {
      "midi": 80,
      "time": 129.844,
      "duration": 0.156,
      "velocity": 0.88,
      "hand": "right"
    },
    {
      "midi": 71,
      "time": 130,
      "duration": 0.313,
      "velocity": 0.88,
      "hand": "right"
    },
    {
      "midi": 78,
      "time": 130,
      "duration": 0.156,
      "velocity": 0.88,
      "hand": "right"
    },
    {
      "midi": 76,
      "time": 130.156,
      "duration": 0.156,
      "velocity": 0.88,
      "hand": "right"
    },
    {
      "midi": 63,
      "time": 130.313,
      "duration": 0.313,
      "velocity": 0.88,
      "hand": "right"
    },
    {
      "midi": 68,
      "time": 130.313,
      "duration": 0.313,
      "velocity": 0.88,
      "hand": "right"
    },
    {
      "midi": 75,
      "time": 130.313,
      "duration": 0.156,
      "velocity": 0.88,
      "hand": "right"
    },
    {
      "midi": 76,
      "time": 130.469,
      "duration": 0.156,
      "velocity": 0.88,
      "hand": "right"
    },
    {
      "midi": 59,
      "time": 130.625,
      "duration": 0.313,
      "velocity": 0.88,
      "hand": "left"
    },
    {
      "midi": 63,
      "time": 130.625,
      "duration": 0.313,
      "velocity": 0.88,
      "hand": "right"
    },
    {
      "midi": 78,
      "time": 130.625,
      "duration": 0.156,
      "velocity": 0.88,
      "hand": "right"
    },
    {
      "midi": 80,
      "time": 130.781,
      "duration": 0.156,
      "velocity": 0.88,
      "hand": "right"
    },
    {
      "midi": 63,
      "time": 130.938,
      "duration": 0.313,
      "velocity": 0.88,
      "hand": "right"
    },
    {
      "midi": 68,
      "time": 130.938,
      "duration": 0.313,
      "velocity": 0.88,
      "hand": "right"
    },
    {
      "midi": 78,
      "time": 130.938,
      "duration": 0.156,
      "velocity": 0.88,
      "hand": "right"
    },
    {
      "midi": 76,
      "time": 131.094,
      "duration": 0.156,
      "velocity": 0.88,
      "hand": "right"
    },
    {
      "midi": 28,
      "time": 131.25,
      "duration": 0.313,
      "velocity": 1,
      "hand": "left"
    },
    {
      "midi": 40,
      "time": 131.25,
      "duration": 0.313,
      "velocity": 1,
      "hand": "left"
    },
    {
      "midi": 75,
      "time": 131.25,
      "duration": 0.156,
      "velocity": 0.88,
      "hand": "right"
    },
    {
      "midi": 76,
      "time": 131.406,
      "duration": 0.156,
      "velocity": 0.88,
      "hand": "right"
    },
    {
      "midi": 78,
      "time": 131.563,
      "duration": 0.156,
      "velocity": 0.88,
      "hand": "right"
    },
    {
      "midi": 80,
      "time": 131.719,
      "duration": 0.156,
      "velocity": 0.88,
      "hand": "right"
    },
    {
      "midi": 40,
      "time": 131.875,
      "duration": 0.313,
      "velocity": 0.88,
      "hand": "left"
    },
    {
      "midi": 52,
      "time": 131.875,
      "duration": 0.313,
      "velocity": 0.88,
      "hand": "left"
    },
    {
      "midi": 78,
      "time": 131.875,
      "duration": 0.156,
      "velocity": 0.88,
      "hand": "right"
    },
    {
      "midi": 76,
      "time": 132.031,
      "duration": 0.156,
      "velocity": 0.88,
      "hand": "right"
    },
    {
      "midi": 56,
      "time": 132.188,
      "duration": 0.938,
      "velocity": 0.88,
      "hand": "left"
    },
    {
      "midi": 59,
      "time": 132.188,
      "duration": 0.938,
      "velocity": 0.88,
      "hand": "left"
    },
    {
      "midi": 63,
      "time": 132.188,
      "duration": 0.938,
      "velocity": 0.88,
      "hand": "right"
    },
    {
      "midi": 87,
      "time": 132.188,
      "duration": 0.938,
      "velocity": 1,
      "hand": "right"
    },
    {
      "midi": 76,
      "time": 132.344,
      "duration": 0.156,
      "velocity": 0.88,
      "hand": "right"
    },
    {
      "midi": 78,
      "time": 132.5,
      "duration": 0.156,
      "velocity": 0.88,
      "hand": "right"
    },
    {
      "midi": 80,
      "time": 132.656,
      "duration": 0.156,
      "velocity": 0.88,
      "hand": "right"
    },
    {
      "midi": 78,
      "time": 132.813,
      "duration": 0.156,
      "velocity": 0.88,
      "hand": "right"
    },
    {
      "midi": 76,
      "time": 132.969,
      "duration": 0.156,
      "velocity": 0.88,
      "hand": "right"
    },
    {
      "midi": 30,
      "time": 133.125,
      "duration": 0.313,
      "velocity": 1,
      "hand": "left"
    },
    {
      "midi": 42,
      "time": 133.125,
      "duration": 0.313,
      "velocity": 1,
      "hand": "left"
    },
    {
      "midi": 88,
      "time": 133.125,
      "duration": 0.938,
      "velocity": 1,
      "hand": "right"
    },
    {
      "midi": 76,
      "time": 133.281,
      "duration": 0.156,
      "velocity": 0.88,
      "hand": "right"
    },
    {
      "midi": 42,
      "time": 133.438,
      "duration": 0.313,
      "velocity": 0.88,
      "hand": "left"
    },
    {
      "midi": 54,
      "time": 133.438,
      "duration": 0.313,
      "velocity": 0.88,
      "hand": "left"
    },
    {
      "midi": 78,
      "time": 133.438,
      "duration": 0.156,
      "velocity": 0.88,
      "hand": "right"
    },
    {
      "midi": 80,
      "time": 133.594,
      "duration": 0.156,
      "velocity": 0.88,
      "hand": "right"
    },
    {
      "midi": 31,
      "time": 133.75,
      "duration": 0.313,
      "velocity": 0.88,
      "hand": "left"
    },
    {
      "midi": 43,
      "time": 133.75,
      "duration": 0.313,
      "velocity": 0.88,
      "hand": "left"
    },
    {
      "midi": 78,
      "time": 133.75,
      "duration": 0.156,
      "velocity": 0.88,
      "hand": "right"
    },
    {
      "midi": 76,
      "time": 133.906,
      "duration": 0.156,
      "velocity": 0.88,
      "hand": "right"
    },
    {
      "midi": 32,
      "time": 134.063,
      "duration": 0.313,
      "velocity": 1,
      "hand": "left"
    },
    {
      "midi": 44,
      "time": 134.063,
      "duration": 0.313,
      "velocity": 1,
      "hand": "left"
    },
    {
      "midi": 90,
      "time": 134.063,
      "duration": 0.938,
      "velocity": 1,
      "hand": "right"
    },
    {
      "midi": 76,
      "time": 134.219,
      "duration": 0.156,
      "velocity": 0.88,
      "hand": "right"
    },
    {
      "midi": 44,
      "time": 134.375,
      "duration": 0.313,
      "velocity": 0.88,
      "hand": "left"
    },
    {
      "midi": 56,
      "time": 134.375,
      "duration": 0.313,
      "velocity": 0.88,
      "hand": "left"
    },
    {
      "midi": 78,
      "time": 134.375,
      "duration": 0.156,
      "velocity": 0.88,
      "hand": "right"
    },
    {
      "midi": 80,
      "time": 134.531,
      "duration": 0.156,
      "velocity": 0.88,
      "hand": "right"
    },
    {
      "midi": 32,
      "time": 134.688,
      "duration": 0.313,
      "velocity": 0.88,
      "hand": "left"
    },
    {
      "midi": 44,
      "time": 134.688,
      "duration": 0.313,
      "velocity": 0.88,
      "hand": "left"
    },
    {
      "midi": 78,
      "time": 134.688,
      "duration": 0.156,
      "velocity": 0.88,
      "hand": "right"
    },
    {
      "midi": 76,
      "time": 134.844,
      "duration": 0.156,
      "velocity": 0.88,
      "hand": "right"
    },
    {
      "midi": 33,
      "time": 135,
      "duration": 0.313,
      "velocity": 1,
      "hand": "left"
    },
    {
      "midi": 45,
      "time": 135,
      "duration": 0.313,
      "velocity": 1,
      "hand": "left"
    },
    {
      "midi": 80,
      "time": 135,
      "duration": 0.078,
      "velocity": 0.88,
      "hand": "right"
    },
    {
      "midi": 80,
      "time": 135,
      "duration": 0.156,
      "velocity": 1,
      "hand": "right"
    },
    {
      "midi": 85,
      "time": 135,
      "duration": 0.469,
      "velocity": 1,
      "hand": "right"
    },
    {
      "midi": 88,
      "time": 135,
      "duration": 1.719,
      "velocity": 1,
      "hand": "right"
    },
    {
      "midi": 92,
      "time": 135,
      "duration": 1.719,
      "velocity": 1,
      "hand": "right"
    },
    {
      "midi": 80,
      "time": 135.156,
      "duration": 0.625,
      "velocity": 0.88,
      "hand": "right"
    },
    {
      "midi": 83,
      "time": 135.313,
      "duration": 0.156,
      "velocity": 0.88,
      "hand": "right"
    },
    {
      "midi": 85,
      "time": 135.469,
      "duration": 0.938,
      "velocity": 0.88,
      "hand": "right"
    },
    {
      "midi": 45,
      "time": 135.625,
      "duration": 0.313,
      "velocity": 0.88,
      "hand": "left"
    },
    {
      "midi": 57,
      "time": 135.625,
      "duration": 0.313,
      "velocity": 0.88,
      "hand": "left"
    },
    {
      "midi": 83,
      "time": 135.625,
      "duration": 0.156,
      "velocity": 0.88,
      "hand": "right"
    },
    {
      "midi": 80,
      "time": 135.781,
      "duration": 0.313,
      "velocity": 0.88,
      "hand": "right"
    },
    {
      "midi": 56,
      "time": 135.938,
      "duration": 0.938,
      "velocity": 0.88,
      "hand": "left"
    },
    {
      "midi": 61,
      "time": 135.938,
      "duration": 0.938,
      "velocity": 0.88,
      "hand": "right"
    },
    {
      "midi": 64,
      "time": 135.938,
      "duration": 0.938,
      "velocity": 0.88,
      "hand": "right"
    },
    {
      "midi": 78,
      "time": 135.938,
      "duration": 0.156,
      "velocity": 0.88,
      "hand": "right"
    },
    {
      "midi": 80,
      "time": 136.094,
      "duration": 0.625,
      "velocity": 0.88,
      "hand": "right"
    },
    {
      "midi": 83,
      "time": 136.25,
      "duration": 0.156,
      "velocity": 0.88,
      "hand": "right"
    },
    {
      "midi": 85,
      "time": 136.406,
      "duration": 0.313,
      "velocity": 0.88,
      "hand": "right"
    },
    {
      "midi": 83,
      "time": 136.563,
      "duration": 0.156,
      "velocity": 0.88,
      "hand": "right"
    },
    {
      "midi": 80,
      "time": 136.719,
      "duration": 0.156,
      "velocity": 0.88,
      "hand": "right"
    },
    {
      "midi": 73,
      "time": 136.875,
      "duration": 0.313,
      "velocity": 0.88,
      "hand": "right"
    },
    {
      "midi": 76,
      "time": 136.875,
      "duration": 0.313,
      "velocity": 0.88,
      "hand": "right"
    },
    {
      "midi": 78,
      "time": 136.875,
      "duration": 0.156,
      "velocity": 0.88,
      "hand": "right"
    },
    {
      "midi": 80,
      "time": 137.031,
      "duration": 0.156,
      "velocity": 0.88,
      "hand": "right"
    },
    {
      "midi": 68,
      "time": 137.188,
      "duration": 0.313,
      "velocity": 0.88,
      "hand": "right"
    },
    {
      "midi": 73,
      "time": 137.188,
      "duration": 0.313,
      "velocity": 0.88,
      "hand": "right"
    },
    {
      "midi": 83,
      "time": 137.188,
      "duration": 0.156,
      "velocity": 0.88,
      "hand": "right"
    },
    {
      "midi": 85,
      "time": 137.344,
      "duration": 0.156,
      "velocity": 0.88,
      "hand": "right"
    },
    {
      "midi": 73,
      "time": 137.5,
      "duration": 0.313,
      "velocity": 0.88,
      "hand": "right"
    },
    {
      "midi": 76,
      "time": 137.5,
      "duration": 0.313,
      "velocity": 0.88,
      "hand": "right"
    },
    {
      "midi": 83,
      "time": 137.5,
      "duration": 0.156,
      "velocity": 0.88,
      "hand": "right"
    },
    {
      "midi": 80,
      "time": 137.656,
      "duration": 0.156,
      "velocity": 0.88,
      "hand": "right"
    },
    {
      "midi": 64,
      "time": 137.813,
      "duration": 0.313,
      "velocity": 0.88,
      "hand": "right"
    },
    {
      "midi": 68,
      "time": 137.813,
      "duration": 0.313,
      "velocity": 0.88,
      "hand": "right"
    },
    {
      "midi": 78,
      "time": 137.813,
      "duration": 0.156,
      "velocity": 0.88,
      "hand": "right"
    },
    {
      "midi": 80,
      "time": 137.969,
      "duration": 0.156,
      "velocity": 0.88,
      "hand": "right"
    },
    {
      "midi": 61,
      "time": 138.125,
      "duration": 0.313,
      "velocity": 0.88,
      "hand": "right"
    },
    {
      "midi": 64,
      "time": 138.125,
      "duration": 0.313,
      "velocity": 0.88,
      "hand": "right"
    },
    {
      "midi": 83,
      "time": 138.125,
      "duration": 0.156,
      "velocity": 0.88,
      "hand": "right"
    },
    {
      "midi": 85,
      "time": 138.281,
      "duration": 0.156,
      "velocity": 0.88,
      "hand": "right"
    },
    {
      "midi": 64,
      "time": 138.438,
      "duration": 0.313,
      "velocity": 0.88,
      "hand": "right"
    },
    {
      "midi": 68,
      "time": 138.438,
      "duration": 0.313,
      "velocity": 0.88,
      "hand": "right"
    },
    {
      "midi": 83,
      "time": 138.438,
      "duration": 0.156,
      "velocity": 0.88,
      "hand": "right"
    },
    {
      "midi": 80,
      "time": 138.594,
      "duration": 0.156,
      "velocity": 0.88,
      "hand": "right"
    },
    {
      "midi": 33,
      "time": 138.75,
      "duration": 0.313,
      "velocity": 1,
      "hand": "left"
    },
    {
      "midi": 45,
      "time": 138.75,
      "duration": 0.313,
      "velocity": 1,
      "hand": "left"
    },
    {
      "midi": 73,
      "time": 138.75,
      "duration": 0.938,
      "velocity": 0.88,
      "hand": "right"
    },
    {
      "midi": 76,
      "time": 138.75,
      "duration": 0.938,
      "velocity": 0.88,
      "hand": "right"
    },
    {
      "midi": 80,
      "time": 138.75,
      "duration": 0.938,
      "velocity": 0.88,
      "hand": "right"
    },
    {
      "midi": 85,
      "time": 138.75,
      "duration": 0.938,
      "velocity": 0.88,
      "hand": "right"
    },
    {
      "midi": 45,
      "time": 139.219,
      "duration": 0.156,
      "velocity": 0.88,
      "hand": "left"
    },
    {
      "midi": 57,
      "time": 139.375,
      "duration": 0.156,
      "velocity": 0.88,
      "hand": "left"
    },
    {
      "midi": 45,
      "time": 139.531,
      "duration": 1.094,
      "velocity": 0.88,
      "hand": "left"
    },
    {
      "midi": 52,
      "time": 139.688,
      "duration": 0.938,
      "velocity": 0.88,
      "hand": "left"
    },
    {
      "midi": 56,
      "time": 139.688,
      "duration": 0.938,
      "velocity": 0.88,
      "hand": "left"
    },
    {
      "midi": 75,
      "time": 139.688,
      "duration": 0.938,
      "velocity": 0.88,
      "hand": "right"
    },
    {
      "midi": 80,
      "time": 139.688,
      "duration": 0.938,
      "velocity": 0.88,
      "hand": "right"
    },
    {
      "midi": 87,
      "time": 139.688,
      "duration": 0.938,
      "velocity": 0.88,
      "hand": "right"
    },
    {
      "midi": 45,
      "time": 140.625,
      "duration": 0.313,
      "velocity": 1,
      "hand": "left"
    },
    {
      "midi": 52,
      "time": 140.625,
      "duration": 0.313,
      "velocity": 1,
      "hand": "left"
    },
    {
      "midi": 83,
      "time": 140.625,
      "duration": 0.078,
      "velocity": 0.88,
      "hand": "right"
    },
    {
      "midi": 88,
      "time": 140.625,
      "duration": 0.078,
      "velocity": 0.88,
      "hand": "right"
    },
    {
      "midi": 95,
      "time": 140.625,
      "duration": 0.078,
      "velocity": 0.88,
      "hand": "right"
    },
    {
      "midi": 60,
      "time": 140.781,
      "duration": 0.156,
      "velocity": 1,
      "hand": "right"
    },
    {
      "midi": 83,
      "time": 140.781,
      "duration": 0.078,
      "velocity": 0.88,
      "hand": "right"
    },
    {
      "midi": 88,
      "time": 140.781,
      "duration": 0.078,
      "velocity": 0.88,
      "hand": "right"
    },
    {
      "midi": 95,
      "time": 140.781,
      "duration": 0.078,
      "velocity": 0.88,
      "hand": "right"
    },
    {
      "midi": 83,
      "time": 140.938,
      "duration": 0.078,
      "velocity": 0.88,
      "hand": "right"
    },
    {
      "midi": 88,
      "time": 140.938,
      "duration": 0.078,
      "velocity": 0.88,
      "hand": "right"
    },
    {
      "midi": 95,
      "time": 140.938,
      "duration": 0.078,
      "velocity": 0.88,
      "hand": "right"
    },
    {
      "midi": 45,
      "time": 141.094,
      "duration": 0.156,
      "velocity": 0.88,
      "hand": "left"
    },
    {
      "midi": 83,
      "time": 141.094,
      "duration": 0.078,
      "velocity": 0.88,
      "hand": "right"
    },
    {
      "midi": 88,
      "time": 141.094,
      "duration": 0.078,
      "velocity": 0.88,
      "hand": "right"
    },
    {
      "midi": 95,
      "time": 141.094,
      "duration": 0.078,
      "velocity": 0.88,
      "hand": "right"
    },
    {
      "midi": 52,
      "time": 141.25,
      "duration": 0.156,
      "velocity": 0.88,
      "hand": "left"
    },
    {
      "midi": 60,
      "time": 141.25,
      "duration": 0.156,
      "velocity": 0.88,
      "hand": "right"
    },
    {
      "midi": 83,
      "time": 141.25,
      "duration": 0.078,
      "velocity": 0.88,
      "hand": "right"
    },
    {
      "midi": 88,
      "time": 141.25,
      "duration": 0.078,
      "velocity": 0.88,
      "hand": "right"
    },
    {
      "midi": 95,
      "time": 141.25,
      "duration": 0.078,
      "velocity": 0.88,
      "hand": "right"
    },
    {
      "midi": 45,
      "time": 141.406,
      "duration": 0.156,
      "velocity": 0.88,
      "hand": "left"
    },
    {
      "midi": 83,
      "time": 141.406,
      "duration": 0.078,
      "velocity": 0.88,
      "hand": "right"
    },
    {
      "midi": 88,
      "time": 141.406,
      "duration": 0.078,
      "velocity": 0.88,
      "hand": "right"
    },
    {
      "midi": 95,
      "time": 141.406,
      "duration": 0.078,
      "velocity": 0.88,
      "hand": "right"
    },
    {
      "midi": 57,
      "time": 141.563,
      "duration": 0.313,
      "velocity": 0.88,
      "hand": "left"
    },
    {
      "midi": 60,
      "time": 141.563,
      "duration": 0.313,
      "velocity": 0.88,
      "hand": "right"
    },
    {
      "midi": 64,
      "time": 141.563,
      "duration": 0.313,
      "velocity": 0.88,
      "hand": "right"
    },
    {
      "midi": 69,
      "time": 141.563,
      "duration": 0.313,
      "velocity": 0.88,
      "hand": "right"
    },
    {
      "midi": 81,
      "time": 141.563,
      "duration": 0.078,
      "velocity": 0.88,
      "hand": "right"
    },
    {
      "midi": 90,
      "time": 141.563,
      "duration": 0.078,
      "velocity": 0.88,
      "hand": "right"
    },
    {
      "midi": 93,
      "time": 141.563,
      "duration": 0.078,
      "velocity": 0.88,
      "hand": "right"
    },
    {
      "midi": 81,
      "time": 141.719,
      "duration": 0.078,
      "velocity": 0.88,
      "hand": "right"
    },
    {
      "midi": 90,
      "time": 141.719,
      "duration": 0.078,
      "velocity": 0.88,
      "hand": "right"
    },
    {
      "midi": 93,
      "time": 141.719,
      "duration": 0.078,
      "velocity": 0.88,
      "hand": "right"
    },
    {
      "midi": 57,
      "time": 141.875,
      "duration": 0.313,
      "velocity": 0.88,
      "hand": "left"
    },
    {
      "midi": 60,
      "time": 141.875,
      "duration": 0.313,
      "velocity": 0.88,
      "hand": "right"
    },
    {
      "midi": 64,
      "time": 141.875,
      "duration": 0.313,
      "velocity": 0.88,
      "hand": "right"
    },
    {
      "midi": 81,
      "time": 141.875,
      "duration": 0.078,
      "velocity": 0.88,
      "hand": "right"
    },
    {
      "midi": 90,
      "time": 141.875,
      "duration": 0.078,
      "velocity": 0.88,
      "hand": "right"
    },
    {
      "midi": 93,
      "time": 141.875,
      "duration": 0.078,
      "velocity": 0.88,
      "hand": "right"
    },
    {
      "midi": 81,
      "time": 142.031,
      "duration": 0.078,
      "velocity": 0.88,
      "hand": "right"
    },
    {
      "midi": 90,
      "time": 142.031,
      "duration": 0.078,
      "velocity": 0.88,
      "hand": "right"
    },
    {
      "midi": 93,
      "time": 142.031,
      "duration": 0.078,
      "velocity": 0.88,
      "hand": "right"
    },
    {
      "midi": 54,
      "time": 142.188,
      "duration": 0.313,
      "velocity": 0.88,
      "hand": "left"
    },
    {
      "midi": 60,
      "time": 142.188,
      "duration": 0.313,
      "velocity": 0.88,
      "hand": "right"
    },
    {
      "midi": 64,
      "time": 142.188,
      "duration": 0.313,
      "velocity": 0.88,
      "hand": "right"
    },
    {
      "midi": 81,
      "time": 142.188,
      "duration": 0.078,
      "velocity": 0.88,
      "hand": "right"
    },
    {
      "midi": 90,
      "time": 142.188,
      "duration": 0.078,
      "velocity": 0.88,
      "hand": "right"
    },
    {
      "midi": 93,
      "time": 142.188,
      "duration": 0.078,
      "velocity": 0.88,
      "hand": "right"
    },
    {
      "midi": 81,
      "time": 142.344,
      "duration": 0.078,
      "velocity": 0.88,
      "hand": "right"
    },
    {
      "midi": 90,
      "time": 142.344,
      "duration": 0.078,
      "velocity": 0.88,
      "hand": "right"
    },
    {
      "midi": 93,
      "time": 142.344,
      "duration": 0.078,
      "velocity": 0.88,
      "hand": "right"
    },
    {
      "midi": 28,
      "time": 142.5,
      "duration": 0.313,
      "velocity": 1,
      "hand": "left"
    },
    {
      "midi": 40,
      "time": 142.5,
      "duration": 0.313,
      "velocity": 1,
      "hand": "left"
    },
    {
      "midi": 80,
      "time": 142.5,
      "duration": 0.078,
      "velocity": 0.88,
      "hand": "right"
    },
    {
      "midi": 80,
      "time": 142.5,
      "duration": 0.469,
      "velocity": 1,
      "hand": "right"
    },
    {
      "midi": 87,
      "time": 142.5,
      "duration": 1.719,
      "velocity": 1,
      "hand": "right"
    },
    {
      "midi": 88,
      "time": 142.5,
      "duration": 1.719,
      "velocity": 1,
      "hand": "right"
    },
    {
      "midi": 92,
      "time": 142.5,
      "duration": 1.719,
      "velocity": 1,
      "hand": "right"
    },
    {
      "midi": 76,
      "time": 142.656,
      "duration": 0.156,
      "velocity": 0.88,
      "hand": "right"
    },
    {
      "midi": 78,
      "time": 142.813,
      "duration": 0.156,
      "velocity": 0.88,
      "hand": "right"
    },
    {
      "midi": 80,
      "time": 142.969,
      "duration": 0.938,
      "velocity": 0.88,
      "hand": "right"
    },
    {
      "midi": 40,
      "time": 143.125,
      "duration": 0.313,
      "velocity": 0.88,
      "hand": "left"
    },
    {
      "midi": 52,
      "time": 143.125,
      "duration": 0.313,
      "velocity": 0.88,
      "hand": "left"
    },
    {
      "midi": 78,
      "time": 143.125,
      "duration": 0.156,
      "velocity": 0.88,
      "hand": "right"
    },
    {
      "midi": 76,
      "time": 143.281,
      "duration": 0.156,
      "velocity": 0.88,
      "hand": "right"
    },
    {
      "midi": 56,
      "time": 143.438,
      "duration": 0.938,
      "velocity": 0.88,
      "hand": "left"
    },
    {
      "midi": 59,
      "time": 143.438,
      "duration": 0.938,
      "velocity": 0.88,
      "hand": "left"
    },
    {
      "midi": 63,
      "time": 143.438,
      "duration": 0.938,
      "velocity": 0.88,
      "hand": "right"
    },
    {
      "midi": 75,
      "time": 143.438,
      "duration": 0.156,
      "velocity": 0.88,
      "hand": "right"
    },
    {
      "midi": 76,
      "time": 143.594,
      "duration": 0.156,
      "velocity": 0.88,
      "hand": "right"
    },
    {
      "midi": 78,
      "time": 143.75,
      "duration": 0.156,
      "velocity": 0.88,
      "hand": "right"
    },
    {
      "midi": 80,
      "time": 143.906,
      "duration": 0.313,
      "velocity": 0.88,
      "hand": "right"
    },
    {
      "midi": 78,
      "time": 144.063,
      "duration": 0.156,
      "velocity": 0.88,
      "hand": "right"
    },
    {
      "midi": 76,
      "time": 144.219,
      "duration": 0.156,
      "velocity": 0.88,
      "hand": "right"
    },
    {
      "midi": 71,
      "time": 144.375,
      "duration": 0.313,
      "velocity": 0.88,
      "hand": "right"
    },
    {
      "midi": 75,
      "time": 144.375,
      "duration": 0.156,
      "velocity": 0.88,
      "hand": "right"
    },
    {
      "midi": 76,
      "time": 144.531,
      "duration": 0.156,
      "velocity": 0.88,
      "hand": "right"
    },
    {
      "midi": 68,
      "time": 144.688,
      "duration": 0.313,
      "velocity": 0.88,
      "hand": "right"
    },
    {
      "midi": 71,
      "time": 144.688,
      "duration": 0.313,
      "velocity": 0.88,
      "hand": "right"
    },
    {
      "midi": 78,
      "time": 144.688,
      "duration": 0.156,
      "velocity": 0.88,
      "hand": "right"
    },
    {
      "midi": 80,
      "time": 144.844,
      "duration": 0.156,
      "velocity": 0.88,
      "hand": "right"
    },
    {
      "midi": 71,
      "time": 145,
      "duration": 0.313,
      "velocity": 0.88,
      "hand": "right"
    },
    {
      "midi": 78,
      "time": 145,
      "duration": 0.156,
      "velocity": 0.88,
      "hand": "right"
    },
    {
      "midi": 76,
      "time": 145.156,
      "duration": 0.156,
      "velocity": 0.88,
      "hand": "right"
    },
    {
      "midi": 63,
      "time": 145.313,
      "duration": 0.313,
      "velocity": 0.88,
      "hand": "right"
    },
    {
      "midi": 68,
      "time": 145.313,
      "duration": 0.313,
      "velocity": 0.88,
      "hand": "right"
    },
    {
      "midi": 75,
      "time": 145.313,
      "duration": 0.156,
      "velocity": 0.88,
      "hand": "right"
    },
    {
      "midi": 76,
      "time": 145.469,
      "duration": 0.156,
      "velocity": 0.88,
      "hand": "right"
    },
    {
      "midi": 59,
      "time": 145.625,
      "duration": 0.313,
      "velocity": 0.88,
      "hand": "left"
    },
    {
      "midi": 63,
      "time": 145.625,
      "duration": 0.313,
      "velocity": 0.88,
      "hand": "right"
    },
    {
      "midi": 78,
      "time": 145.625,
      "duration": 0.156,
      "velocity": 0.88,
      "hand": "right"
    },
    {
      "midi": 80,
      "time": 145.781,
      "duration": 0.156,
      "velocity": 0.88,
      "hand": "right"
    },
    {
      "midi": 63,
      "time": 145.938,
      "duration": 0.313,
      "velocity": 0.88,
      "hand": "right"
    },
    {
      "midi": 68,
      "time": 145.938,
      "duration": 0.313,
      "velocity": 0.88,
      "hand": "right"
    },
    {
      "midi": 78,
      "time": 145.938,
      "duration": 0.156,
      "velocity": 0.88,
      "hand": "right"
    },
    {
      "midi": 76,
      "time": 146.094,
      "duration": 0.156,
      "velocity": 0.88,
      "hand": "right"
    },
    {
      "midi": 28,
      "time": 146.25,
      "duration": 0.313,
      "velocity": 1,
      "hand": "left"
    },
    {
      "midi": 40,
      "time": 146.25,
      "duration": 0.313,
      "velocity": 1,
      "hand": "left"
    },
    {
      "midi": 75,
      "time": 146.25,
      "duration": 0.156,
      "velocity": 0.88,
      "hand": "right"
    },
    {
      "midi": 76,
      "time": 146.406,
      "duration": 0.156,
      "velocity": 0.87,
      "hand": "right"
    },
    {
      "midi": 28,
      "time": 146.563,
      "duration": 0.313,
      "velocity": 0.84,
      "hand": "left"
    },
    {
      "midi": 40,
      "time": 146.563,
      "duration": 0.313,
      "velocity": 0.84,
      "hand": "left"
    },
    {
      "midi": 78,
      "time": 146.563,
      "duration": 0.156,
      "velocity": 0.84,
      "hand": "right"
    },
    {
      "midi": 80,
      "time": 146.719,
      "duration": 0.156,
      "velocity": 0.83,
      "hand": "right"
    },
    {
      "midi": 40,
      "time": 146.875,
      "duration": 0.313,
      "velocity": 0.8,
      "hand": "left"
    },
    {
      "midi": 52,
      "time": 146.875,
      "duration": 0.313,
      "velocity": 0.8,
      "hand": "left"
    },
    {
      "midi": 78,
      "time": 146.875,
      "duration": 0.156,
      "velocity": 0.8,
      "hand": "right"
    },
    {
      "midi": 76,
      "time": 147.031,
      "duration": 0.156,
      "velocity": 0.78,
      "hand": "right"
    },
    {
      "midi": 56,
      "time": 147.188,
      "duration": 0.938,
      "velocity": 0.76,
      "hand": "left"
    },
    {
      "midi": 59,
      "time": 147.188,
      "duration": 0.938,
      "velocity": 0.76,
      "hand": "left"
    },
    {
      "midi": 63,
      "time": 147.188,
      "duration": 0.938,
      "velocity": 0.76,
      "hand": "right"
    },
    {
      "midi": 75,
      "time": 147.188,
      "duration": 0.156,
      "velocity": 0.76,
      "hand": "right"
    },
    {
      "midi": 76,
      "time": 147.344,
      "duration": 0.156,
      "velocity": 0.74,
      "hand": "right"
    },
    {
      "midi": 78,
      "time": 147.5,
      "duration": 0.156,
      "velocity": 0.72,
      "hand": "right"
    },
    {
      "midi": 80,
      "time": 147.656,
      "duration": 0.156,
      "velocity": 0.7,
      "hand": "right"
    },
    {
      "midi": 78,
      "time": 147.813,
      "duration": 0.156,
      "velocity": 0.68,
      "hand": "right"
    },
    {
      "midi": 76,
      "time": 147.969,
      "duration": 0.156,
      "velocity": 0.66,
      "hand": "right"
    },
    {
      "midi": 30,
      "time": 148.125,
      "duration": 0.469,
      "velocity": 0.76,
      "hand": "left"
    },
    {
      "midi": 42,
      "time": 148.125,
      "duration": 0.469,
      "velocity": 0.76,
      "hand": "left"
    },
    {
      "midi": 88,
      "time": 148.125,
      "duration": 0.938,
      "velocity": 0.76,
      "hand": "right"
    },
    {
      "midi": 76,
      "time": 148.281,
      "duration": 0.156,
      "velocity": 0.61,
      "hand": "right"
    },
    {
      "midi": 78,
      "time": 148.438,
      "duration": 0.156,
      "velocity": 0.6,
      "hand": "right"
    },
    {
      "midi": 42,
      "time": 148.594,
      "duration": 0.469,
      "velocity": 0.57,
      "hand": "left"
    },
    {
      "midi": 45,
      "time": 148.594,
      "duration": 0.469,
      "velocity": 0.57,
      "hand": "left"
    },
    {
      "midi": 49,
      "time": 148.594,
      "duration": 0.469,
      "velocity": 0.57,
      "hand": "left"
    },
    {
      "midi": 54,
      "time": 148.594,
      "duration": 0.469,
      "velocity": 0.57,
      "hand": "left"
    },
    {
      "midi": 80,
      "time": 148.594,
      "duration": 0.156,
      "velocity": 0.57,
      "hand": "right"
    },
    {
      "midi": 78,
      "time": 148.75,
      "duration": 0.156,
      "velocity": 0.55,
      "hand": "right"
    },
    {
      "midi": 76,
      "time": 148.906,
      "duration": 0.156,
      "velocity": 0.54,
      "hand": "right"
    },
    {
      "midi": 32,
      "time": 149.063,
      "duration": 0.469,
      "velocity": 0.61,
      "hand": "left"
    },
    {
      "midi": 44,
      "time": 149.063,
      "duration": 0.469,
      "velocity": 0.61,
      "hand": "left"
    },
    {
      "midi": 90,
      "time": 149.063,
      "duration": 0.938,
      "velocity": 0.61,
      "hand": "right"
    },
    {
      "midi": 76,
      "time": 149.219,
      "duration": 0.156,
      "velocity": 0.5,
      "hand": "right"
    },
    {
      "midi": 78,
      "time": 149.375,
      "duration": 0.156,
      "velocity": 0.47,
      "hand": "right"
    },
    {
      "midi": 44,
      "time": 149.531,
      "duration": 0.469,
      "velocity": 0.45,
      "hand": "left"
    },
    {
      "midi": 51,
      "time": 149.531,
      "duration": 0.469,
      "velocity": 0.45,
      "hand": "left"
    },
    {
      "midi": 54,
      "time": 149.531,
      "duration": 0.469,
      "velocity": 0.45,
      "hand": "left"
    },
    {
      "midi": 56,
      "time": 149.531,
      "duration": 0.469,
      "velocity": 0.45,
      "hand": "left"
    },
    {
      "midi": 80,
      "time": 149.531,
      "duration": 0.156,
      "velocity": 0.45,
      "hand": "right"
    },
    {
      "midi": 78,
      "time": 149.688,
      "duration": 0.156,
      "velocity": 0.43,
      "hand": "right"
    },
    {
      "midi": 76,
      "time": 149.844,
      "duration": 0.156,
      "velocity": 0.41,
      "hand": "right"
    },
    {
      "midi": 45,
      "time": 150,
      "duration": 0.156,
      "velocity": 0.39,
      "hand": "left"
    },
    {
      "midi": 80,
      "time": 150,
      "duration": 3.594,
      "velocity": 0.39,
      "hand": "right"
    },
    {
      "midi": 85,
      "time": 150,
      "duration": 3.594,
      "velocity": 0.39,
      "hand": "right"
    },
    {
      "midi": 88,
      "time": 150,
      "duration": 3.594,
      "velocity": 0.39,
      "hand": "right"
    },
    {
      "midi": 49,
      "time": 150.156,
      "duration": 0.156,
      "velocity": 0.39,
      "hand": "left"
    },
    {
      "midi": 92,
      "time": 150.156,
      "duration": 3.594,
      "velocity": 0.39,
      "hand": "right"
    },
    {
      "midi": 52,
      "time": 150.313,
      "duration": 0.156,
      "velocity": 0.39,
      "hand": "left"
    },
    {
      "midi": 56,
      "time": 150.469,
      "duration": 0.156,
      "velocity": 0.39,
      "hand": "left"
    },
    {
      "midi": 61,
      "time": 150.625,
      "duration": 0.156,
      "velocity": 0.39,
      "hand": "right"
    },
    {
      "midi": 64,
      "time": 150.781,
      "duration": 0.156,
      "velocity": 0.39,
      "hand": "right"
    },
    {
      "midi": 57,
      "time": 150.938,
      "duration": 2.656,
      "velocity": 0.39,
      "hand": "left"
    },
    {
      "midi": 61,
      "time": 150.938,
      "duration": 2.656,
      "velocity": 0.39,
      "hand": "right"
    },
    {
      "midi": 64,
      "time": 150.938,
      "duration": 2.656,
      "velocity": 0.39,
      "hand": "right"
    },
    {
      "midi": 68,
      "time": 150.938,
      "duration": 2.656,
      "velocity": 0.39,
      "hand": "right"
    },
    {
      "midi": 45,
      "time": 153.75,
      "duration": 1.719,
      "velocity": 0.39,
      "hand": "left"
    },
    {
      "midi": 57,
      "time": 153.75,
      "duration": 1.719,
      "velocity": 0.39,
      "hand": "left"
    },
    {
      "midi": 73,
      "time": 153.75,
      "duration": 0.938,
      "velocity": 0.39,
      "hand": "right"
    },
    {
      "midi": 85,
      "time": 153.75,
      "duration": 0.938,
      "velocity": 0.39,
      "hand": "right"
    },
    {
      "midi": 75,
      "time": 154.688,
      "duration": 0.938,
      "velocity": 0.39,
      "hand": "right"
    },
    {
      "midi": 87,
      "time": 154.688,
      "duration": 0.938,
      "velocity": 0.39,
      "hand": "right"
    },
    {
      "midi": 52,
      "time": 155.625,
      "duration": 1.875,
      "velocity": 0.39,
      "hand": "left"
    },
    {
      "midi": 54,
      "time": 155.625,
      "duration": 1.875,
      "velocity": 0.39,
      "hand": "left"
    },
    {
      "midi": 83,
      "time": 155.625,
      "duration": 0.938,
      "velocity": 0.39,
      "hand": "right"
    },
    {
      "midi": 95,
      "time": 155.625,
      "duration": 0.938,
      "velocity": 0.39,
      "hand": "right"
    },
    {
      "midi": 57,
      "time": 155.781,
      "duration": 1.719,
      "velocity": 0.39,
      "hand": "left"
    },
    {
      "midi": 60,
      "time": 155.781,
      "duration": 1.719,
      "velocity": 0.39,
      "hand": "right"
    },
    {
      "midi": 81,
      "time": 156.563,
      "duration": 0.938,
      "velocity": 0.39,
      "hand": "right"
    },
    {
      "midi": 93,
      "time": 156.563,
      "duration": 0.938,
      "velocity": 0.39,
      "hand": "right"
    },
    {
      "midi": 40,
      "time": 157.5,
      "duration": 1.719,
      "velocity": 0.39,
      "hand": "left"
    },
    {
      "midi": 52,
      "time": 157.5,
      "duration": 1.719,
      "velocity": 0.39,
      "hand": "left"
    },
    {
      "midi": 80,
      "time": 157.5,
      "duration": 3.594,
      "velocity": 0.39,
      "hand": "right"
    },
    {
      "midi": 92,
      "time": 157.5,
      "duration": 3.594,
      "velocity": 0.39,
      "hand": "right"
    },
    {
      "midi": 52,
      "time": 159.375,
      "duration": 1.719,
      "velocity": 0.39,
      "hand": "left"
    },
    {
      "midi": 56,
      "time": 159.375,
      "duration": 1.719,
      "velocity": 0.39,
      "hand": "left"
    },
    {
      "midi": 59,
      "time": 159.375,
      "duration": 1.719,
      "velocity": 0.39,
      "hand": "left"
    },
    {
      "midi": 63,
      "time": 159.375,
      "duration": 1.719,
      "velocity": 0.39,
      "hand": "right"
    },
    {
      "midi": 40,
      "time": 161.25,
      "duration": 1.719,
      "velocity": 0.39,
      "hand": "left"
    },
    {
      "midi": 52,
      "time": 161.25,
      "duration": 1.719,
      "velocity": 0.39,
      "hand": "left"
    },
    {
      "midi": 75,
      "time": 162.188,
      "duration": 0.938,
      "velocity": 0.39,
      "hand": "right"
    },
    {
      "midi": 87,
      "time": 162.188,
      "duration": 0.938,
      "velocity": 0.39,
      "hand": "right"
    },
    {
      "midi": 52,
      "time": 163.125,
      "duration": 1.719,
      "velocity": 0.39,
      "hand": "left"
    },
    {
      "midi": 56,
      "time": 163.125,
      "duration": 1.719,
      "velocity": 0.39,
      "hand": "left"
    },
    {
      "midi": 59,
      "time": 163.125,
      "duration": 1.719,
      "velocity": 0.39,
      "hand": "left"
    },
    {
      "midi": 62,
      "time": 163.125,
      "duration": 1.719,
      "velocity": 0.39,
      "hand": "right"
    },
    {
      "midi": 76,
      "time": 163.125,
      "duration": 0.938,
      "velocity": 0.39,
      "hand": "right"
    },
    {
      "midi": 88,
      "time": 163.125,
      "duration": 0.938,
      "velocity": 0.39,
      "hand": "right"
    },
    {
      "midi": 78,
      "time": 164.063,
      "duration": 0.938,
      "velocity": 0.39,
      "hand": "right"
    },
    {
      "midi": 90,
      "time": 164.063,
      "duration": 0.938,
      "velocity": 0.39,
      "hand": "right"
    },
    {
      "midi": 45,
      "time": 165,
      "duration": 1.719,
      "velocity": 0.39,
      "hand": "left"
    },
    {
      "midi": 57,
      "time": 165,
      "duration": 1.719,
      "velocity": 0.39,
      "hand": "left"
    },
    {
      "midi": 80,
      "time": 165,
      "duration": 3.594,
      "velocity": 0.39,
      "hand": "right"
    },
    {
      "midi": 85,
      "time": 165,
      "duration": 3.594,
      "velocity": 0.39,
      "hand": "right"
    },
    {
      "midi": 88,
      "time": 165,
      "duration": 3.594,
      "velocity": 0.39,
      "hand": "right"
    },
    {
      "midi": 92,
      "time": 165.156,
      "duration": 3.594,
      "velocity": 0.39,
      "hand": "right"
    },
    {
      "midi": 57,
      "time": 166.875,
      "duration": 1.719,
      "velocity": 0.39,
      "hand": "left"
    },
    {
      "midi": 61,
      "time": 166.875,
      "duration": 1.719,
      "velocity": 0.39,
      "hand": "right"
    },
    {
      "midi": 64,
      "time": 166.875,
      "duration": 1.719,
      "velocity": 0.39,
      "hand": "right"
    },
    {
      "midi": 68,
      "time": 166.875,
      "duration": 1.719,
      "velocity": 0.39,
      "hand": "right"
    },
    {
      "midi": 45,
      "time": 168.75,
      "duration": 1.719,
      "velocity": 0.39,
      "hand": "left"
    },
    {
      "midi": 57,
      "time": 168.75,
      "duration": 1.719,
      "velocity": 0.39,
      "hand": "left"
    },
    {
      "midi": 73,
      "time": 168.75,
      "duration": 0.938,
      "velocity": 0.39,
      "hand": "right"
    },
    {
      "midi": 85,
      "time": 168.75,
      "duration": 0.938,
      "velocity": 0.39,
      "hand": "right"
    },
    {
      "midi": 75,
      "time": 169.688,
      "duration": 0.938,
      "velocity": 0.39,
      "hand": "right"
    },
    {
      "midi": 87,
      "time": 169.688,
      "duration": 0.938,
      "velocity": 0.39,
      "hand": "right"
    },
    {
      "midi": 52,
      "time": 170.625,
      "duration": 1.875,
      "velocity": 0.39,
      "hand": "left"
    },
    {
      "midi": 54,
      "time": 170.625,
      "duration": 1.719,
      "velocity": 0.39,
      "hand": "left"
    },
    {
      "midi": 59,
      "time": 170.625,
      "duration": 0.938,
      "velocity": 0.39,
      "hand": "left"
    },
    {
      "midi": 83,
      "time": 170.625,
      "duration": 0.938,
      "velocity": 0.39,
      "hand": "right"
    },
    {
      "midi": 95,
      "time": 170.625,
      "duration": 0.938,
      "velocity": 0.39,
      "hand": "right"
    },
    {
      "midi": 60,
      "time": 170.781,
      "duration": 1.719,
      "velocity": 0.39,
      "hand": "right"
    },
    {
      "midi": 57,
      "time": 171.563,
      "duration": 0.938,
      "velocity": 0.39,
      "hand": "left"
    },
    {
      "midi": 81,
      "time": 171.563,
      "duration": 0.938,
      "velocity": 0.39,
      "hand": "right"
    },
    {
      "midi": 93,
      "time": 171.563,
      "duration": 0.938,
      "velocity": 0.39,
      "hand": "right"
    },
    {
      "midi": 40,
      "time": 172.5,
      "duration": 1.719,
      "velocity": 0.39,
      "hand": "left"
    },
    {
      "midi": 52,
      "time": 172.5,
      "duration": 1.719,
      "velocity": 0.39,
      "hand": "left"
    },
    {
      "midi": 80,
      "time": 172.5,
      "duration": 3.594,
      "velocity": 0.39,
      "hand": "right"
    },
    {
      "midi": 83,
      "time": 172.5,
      "duration": 3.594,
      "velocity": 0.39,
      "hand": "right"
    },
    {
      "midi": 88,
      "time": 172.5,
      "duration": 3.594,
      "velocity": 0.39,
      "hand": "right"
    },
    {
      "midi": 92,
      "time": 172.656,
      "duration": 3.594,
      "velocity": 0.39,
      "hand": "right"
    },
    {
      "midi": 52,
      "time": 174.375,
      "duration": 1.719,
      "velocity": 0.39,
      "hand": "left"
    },
    {
      "midi": 56,
      "time": 174.375,
      "duration": 1.719,
      "velocity": 0.39,
      "hand": "left"
    },
    {
      "midi": 59,
      "time": 174.375,
      "duration": 1.719,
      "velocity": 0.39,
      "hand": "left"
    },
    {
      "midi": 63,
      "time": 174.375,
      "duration": 1.719,
      "velocity": 0.39,
      "hand": "right"
    },
    {
      "midi": 40,
      "time": 176.25,
      "duration": 1.719,
      "velocity": 0.39,
      "hand": "left"
    },
    {
      "midi": 52,
      "time": 176.25,
      "duration": 1.719,
      "velocity": 0.39,
      "hand": "left"
    },
    {
      "midi": 52,
      "time": 178.125,
      "duration": 1.719,
      "velocity": 0.44,
      "hand": "left"
    },
    {
      "midi": 56,
      "time": 178.125,
      "duration": 1.719,
      "velocity": 0.44,
      "hand": "left"
    },
    {
      "midi": 59,
      "time": 178.125,
      "duration": 1.719,
      "velocity": 0.44,
      "hand": "left"
    },
    {
      "midi": 62,
      "time": 178.125,
      "duration": 1.719,
      "velocity": 0.44,
      "hand": "right"
    },
    {
      "midi": 57,
      "time": 180,
      "duration": 3.594,
      "velocity": 0.5,
      "hand": "left"
    },
    {
      "midi": 61,
      "time": 180,
      "duration": 3.594,
      "velocity": 0.5,
      "hand": "right"
    },
    {
      "midi": 64,
      "time": 180,
      "duration": 3.594,
      "velocity": 0.5,
      "hand": "right"
    },
    {
      "midi": 80,
      "time": 180,
      "duration": 0.938,
      "velocity": 0.5,
      "hand": "right"
    },
    {
      "midi": 92,
      "time": 180,
      "duration": 0.938,
      "velocity": 0.5,
      "hand": "right"
    },
    {
      "midi": 76,
      "time": 180.938,
      "duration": 0.938,
      "velocity": 0.5,
      "hand": "right"
    },
    {
      "midi": 88,
      "time": 180.938,
      "duration": 0.938,
      "velocity": 0.5,
      "hand": "right"
    },
    {
      "midi": 68,
      "time": 181.875,
      "duration": 1.719,
      "velocity": 0.5,
      "hand": "right"
    },
    {
      "midi": 73,
      "time": 181.875,
      "duration": 1.875,
      "velocity": 0.5,
      "hand": "right"
    },
    {
      "midi": 85,
      "time": 181.875,
      "duration": 1.875,
      "velocity": 0.5,
      "hand": "right"
    },
    {
      "midi": 56,
      "time": 183.75,
      "duration": 3.594,
      "velocity": 0.5,
      "hand": "left"
    },
    {
      "midi": 59,
      "time": 183.75,
      "duration": 3.594,
      "velocity": 0.5,
      "hand": "left"
    },
    {
      "midi": 63,
      "time": 183.75,
      "duration": 3.594,
      "velocity": 0.5,
      "hand": "right"
    },
    {
      "midi": 80,
      "time": 183.75,
      "duration": 0.938,
      "velocity": 0.5,
      "hand": "right"
    },
    {
      "midi": 92,
      "time": 183.75,
      "duration": 0.938,
      "velocity": 0.5,
      "hand": "right"
    },
    {
      "midi": 75,
      "time": 184.688,
      "duration": 0.938,
      "velocity": 0.5,
      "hand": "right"
    },
    {
      "midi": 87,
      "time": 184.688,
      "duration": 0.938,
      "velocity": 0.5,
      "hand": "right"
    },
    {
      "midi": 66,
      "time": 185.625,
      "duration": 1.719,
      "velocity": 0.5,
      "hand": "right"
    },
    {
      "midi": 71,
      "time": 185.625,
      "duration": 1.875,
      "velocity": 0.5,
      "hand": "right"
    },
    {
      "midi": 83,
      "time": 185.625,
      "duration": 1.875,
      "velocity": 0.5,
      "hand": "right"
    },
    {
      "midi": 55,
      "time": 187.5,
      "duration": 3.594,
      "velocity": 0.5,
      "hand": "left"
    },
    {
      "midi": 59,
      "time": 187.5,
      "duration": 3.594,
      "velocity": 0.5,
      "hand": "left"
    },
    {
      "midi": 62,
      "time": 187.5,
      "duration": 3.594,
      "velocity": 0.5,
      "hand": "right"
    },
    {
      "midi": 78,
      "time": 187.5,
      "duration": 0.938,
      "velocity": 0.5,
      "hand": "right"
    },
    {
      "midi": 90,
      "time": 187.5,
      "duration": 0.938,
      "velocity": 0.5,
      "hand": "right"
    },
    {
      "midi": 74,
      "time": 188.438,
      "duration": 0.938,
      "velocity": 0.5,
      "hand": "right"
    },
    {
      "midi": 86,
      "time": 188.438,
      "duration": 0.938,
      "velocity": 0.5,
      "hand": "right"
    },
    {
      "midi": 66,
      "time": 189.375,
      "duration": 1.719,
      "velocity": 0.5,
      "hand": "right"
    },
    {
      "midi": 73,
      "time": 189.375,
      "duration": 0.938,
      "velocity": 0.5,
      "hand": "right"
    },
    {
      "midi": 85,
      "time": 189.375,
      "duration": 0.938,
      "velocity": 0.5,
      "hand": "right"
    },
    {
      "midi": 69,
      "time": 190.313,
      "duration": 0.938,
      "velocity": 0.5,
      "hand": "right"
    },
    {
      "midi": 81,
      "time": 190.313,
      "duration": 0.938,
      "velocity": 0.5,
      "hand": "right"
    },
    {
      "midi": 57,
      "time": 191.25,
      "duration": 3.594,
      "velocity": 0.5,
      "hand": "left"
    },
    {
      "midi": 61,
      "time": 191.25,
      "duration": 3.594,
      "velocity": 0.5,
      "hand": "right"
    },
    {
      "midi": 64,
      "time": 191.25,
      "duration": 3.594,
      "velocity": 0.5,
      "hand": "right"
    },
    {
      "midi": 78,
      "time": 191.25,
      "duration": 0.938,
      "velocity": 0.5,
      "hand": "right"
    },
    {
      "midi": 90,
      "time": 191.25,
      "duration": 0.938,
      "velocity": 0.5,
      "hand": "right"
    },
    {
      "midi": 74,
      "time": 192.188,
      "duration": 0.938,
      "velocity": 0.5,
      "hand": "right"
    },
    {
      "midi": 86,
      "time": 192.188,
      "duration": 0.938,
      "velocity": 0.5,
      "hand": "right"
    },
    {
      "midi": 68,
      "time": 193.125,
      "duration": 1.719,
      "velocity": 0.5,
      "hand": "right"
    },
    {
      "midi": 73,
      "time": 193.125,
      "duration": 1.875,
      "velocity": 0.5,
      "hand": "right"
    },
    {
      "midi": 85,
      "time": 193.125,
      "duration": 1.875,
      "velocity": 0.5,
      "hand": "right"
    },
    {
      "midi": 52,
      "time": 195,
      "duration": 3.75,
      "velocity": 0.5,
      "hand": "left"
    },
    {
      "midi": 55,
      "time": 195,
      "duration": 3.75,
      "velocity": 0.5,
      "hand": "left"
    },
    {
      "midi": 59,
      "time": 195,
      "duration": 3.75,
      "velocity": 0.5,
      "hand": "left"
    },
    {
      "midi": 76,
      "time": 195,
      "duration": 0.938,
      "velocity": 0.5,
      "hand": "right"
    },
    {
      "midi": 88,
      "time": 195,
      "duration": 0.938,
      "velocity": 0.5,
      "hand": "right"
    },
    {
      "midi": 71,
      "time": 195.938,
      "duration": 0.938,
      "velocity": 0.5,
      "hand": "right"
    },
    {
      "midi": 83,
      "time": 195.938,
      "duration": 0.938,
      "velocity": 0.5,
      "hand": "right"
    },
    {
      "midi": 64,
      "time": 196.875,
      "duration": 2.031,
      "velocity": 0.5,
      "hand": "right"
    },
    {
      "midi": 76,
      "time": 196.875,
      "duration": 0.938,
      "velocity": 0.5,
      "hand": "right"
    },
    {
      "midi": 88,
      "time": 196.875,
      "duration": 0.938,
      "velocity": 0.5,
      "hand": "right"
    },
    {
      "midi": 79,
      "time": 197.813,
      "duration": 1.094,
      "velocity": 0.5,
      "hand": "right"
    },
    {
      "midi": 91,
      "time": 197.969,
      "duration": 1.094,
      "velocity": 0.5,
      "hand": "right"
    },
    {
      "midi": 54,
      "time": 198.906,
      "duration": 9.688,
      "velocity": 0.5,
      "hand": "left"
    },
    {
      "midi": 58,
      "time": 198.906,
      "duration": 9.688,
      "velocity": 0.5,
      "hand": "left"
    },
    {
      "midi": 61,
      "time": 198.906,
      "duration": 1.25,
      "velocity": 0.5,
      "hand": "right"
    },
    {
      "midi": 78,
      "time": 198.906,
      "duration": 0.781,
      "velocity": 0.5,
      "hand": "right"
    },
    {
      "midi": 90,
      "time": 199.063,
      "duration": 0.781,
      "velocity": 0.5,
      "hand": "right"
    },
    {
      "midi": 70,
      "time": 199.844,
      "duration": 0.313,
      "velocity": 0.5,
      "hand": "right"
    },
    {
      "midi": 61,
      "time": 200.156,
      "duration": 8.594,
      "velocity": 0.5,
      "hand": "right"
    },
    {
      "midi": 66,
      "time": 200.625,
      "duration": 0.469,
      "velocity": 0.5,
      "hand": "right"
    },
    {
      "midi": 70,
      "time": 201.094,
      "duration": 0.469,
      "velocity": 0.5,
      "hand": "right"
    },
    {
      "midi": 66,
      "time": 201.563,
      "duration": 7.5,
      "velocity": 0.5,
      "hand": "right"
    },
    {
      "midi": 78,
      "time": 201.563,
      "duration": 0.469,
      "velocity": 0.5,
      "hand": "right"
    },
    {
      "midi": 73,
      "time": 201.875,
      "duration": 0.469,
      "velocity": 0.5,
      "hand": "right"
    },
    {
      "midi": 82,
      "time": 202.344,
      "duration": 0.469,
      "velocity": 0.5,
      "hand": "right"
    },
    {
      "midi": 78,
      "time": 202.813,
      "duration": 0.469,
      "velocity": 0.5,
      "hand": "right"
    },
    {
      "midi": 85,
      "time": 203.281,
      "duration": 5.938,
      "velocity": 0.5,
      "hand": "right"
    }
  ]
}
