{
  "id": "golden-hour-1",
  "title": "Piano",
  "artist": "MIDI Source",
  "difficulty": "Médio",
  "bpm": 180,
  "duration": 219,
  "category": "A revisar",
  "isPremium": true,
  "coverUrl": "/images/covers/placeholder.png",
  "notes": [
    {
      "midi": 41,
      "time": 0,
      "duration": 4,
      "velocity": 0.63,
      "hand": "left"
    },
    {
      "midi": 60,
      "time": 0,
      "duration": 4,
      "velocity": 0.63,
      "hand": "right"
    },
    {
      "midi": 64,
      "time": 0,
      "duration": 4,
      "velocity": 0.63,
      "hand": "right"
    },
    {
      "midi": 65,
      "time": 0,
      "duration": 4,
      "velocity": 0.63,
      "hand": "right"
    },
    {
      "midi": 65,
      "time": 0,
      "duration": 0.333,
      "velocity": 0.63,
      "hand": "right"
    },
    {
      "midi": 69,
      "time": 0,
      "duration": 4,
      "velocity": 0.63,
      "hand": "right"
    },
    {
      "midi": 74,
      "time": 0,
      "duration": 0.167,
      "velocity": 0.63,
      "hand": "right"
    },
    {
      "midi": 76,
      "time": 0.167,
      "duration": 0.167,
      "velocity": 0.63,
      "hand": "right"
    },
    {
      "midi": 72,
      "time": 0.333,
      "duration": 1.583,
      "velocity": 0.63,
      "hand": "right"
    },
    {
      "midi": 79,
      "time": 0.333,
      "duration": 0.167,
      "velocity": 0.63,
      "hand": "right"
    },
    {
      "midi": 81,
      "time": 0.5,
      "duration": 0.167,
      "velocity": 0.63,
      "hand": "right"
    },
    {
      "midi": 79,
      "time": 0.667,
      "duration": 0.167,
      "velocity": 0.63,
      "hand": "right"
    },
    {
      "midi": 76,
      "time": 0.833,
      "duration": 0.167,
      "velocity": 0.63,
      "hand": "right"
    },
    {
      "midi": 74,
      "time": 1,
      "duration": 0.167,
      "velocity": 0.63,
      "hand": "right"
    },
    {
      "midi": 76,
      "time": 1.167,
      "duration": 0.167,
      "velocity": 0.63,
      "hand": "right"
    },
    {
      "midi": 79,
      "time": 1.333,
      "duration": 0.167,
      "velocity": 0.63,
      "hand": "right"
    },
    {
      "midi": 81,
      "time": 1.5,
      "duration": 0.167,
      "velocity": 0.63,
      "hand": "right"
    },
    {
      "midi": 79,
      "time": 1.667,
      "duration": 0.167,
      "velocity": 0.63,
      "hand": "right"
    },
    {
      "midi": 76,
      "time": 1.833,
      "duration": 0.167,
      "velocity": 0.63,
      "hand": "right"
    },
    {
      "midi": 65,
      "time": 2,
      "duration": 0.333,
      "velocity": 0.63,
      "hand": "right"
    },
    {
      "midi": 74,
      "time": 2,
      "duration": 0.167,
      "velocity": 0.63,
      "hand": "right"
    },
    {
      "midi": 76,
      "time": 2.167,
      "duration": 0.167,
      "velocity": 0.63,
      "hand": "right"
    },
    {
      "midi": 72,
      "time": 2.333,
      "duration": 0.667,
      "velocity": 0.63,
      "hand": "right"
    },
    {
      "midi": 79,
      "time": 2.333,
      "duration": 0.167,
      "velocity": 0.63,
      "hand": "right"
    },
    {
      "midi": 81,
      "time": 2.5,
      "duration": 0.167,
      "velocity": 0.63,
      "hand": "right"
    },
    {
      "midi": 79,
      "time": 2.667,
      "duration": 0.167,
      "velocity": 0.63,
      "hand": "right"
    },
    {
      "midi": 76,
      "time": 2.833,
      "duration": 0.167,
      "velocity": 0.63,
      "hand": "right"
    },
    {
      "midi": 65,
      "time": 3,
      "duration": 0.333,
      "velocity": 0.63,
      "hand": "right"
    },
    {
      "midi": 74,
      "time": 3,
      "duration": 0.167,
      "velocity": 0.63,
      "hand": "right"
    },
    {
      "midi": 76,
      "time": 3.167,
      "duration": 0.167,
      "velocity": 0.63,
      "hand": "right"
    },
    {
      "midi": 72,
      "time": 3.333,
      "duration": 0.667,
      "velocity": 0.63,
      "hand": "right"
    },
    {
      "midi": 79,
      "time": 3.333,
      "duration": 0.167,
      "velocity": 0.63,
      "hand": "right"
    },
    {
      "midi": 81,
      "time": 3.5,
      "duration": 0.167,
      "velocity": 0.63,
      "hand": "right"
    },
    {
      "midi": 79,
      "time": 3.667,
      "duration": 0.167,
      "velocity": 0.63,
      "hand": "right"
    },
    {
      "midi": 76,
      "time": 3.833,
      "duration": 0.167,
      "velocity": 0.63,
      "hand": "right"
    },
    {
      "midi": 40,
      "time": 4,
      "duration": 3,
      "velocity": 0.63,
      "hand": "left"
    },
    {
      "midi": 60,
      "time": 4,
      "duration": 3,
      "velocity": 0.63,
      "hand": "right"
    },
    {
      "midi": 64,
      "time": 4,
      "duration": 3,
      "velocity": 0.63,
      "hand": "right"
    },
    {
      "midi": 64,
      "time": 4,
      "duration": 0.333,
      "velocity": 0.63,
      "hand": "right"
    },
    {
      "midi": 67,
      "time": 4,
      "duration": 3,
      "velocity": 0.63,
      "hand": "right"
    },
    {
      "midi": 69,
      "time": 4,
      "duration": 3,
      "velocity": 0.63,
      "hand": "right"
    },
    {
      "midi": 72,
      "time": 4,
      "duration": 0.167,
      "velocity": 0.63,
      "hand": "right"
    },
    {
      "midi": 76,
      "time": 4.167,
      "duration": 0.167,
      "velocity": 0.63,
      "hand": "right"
    },
    {
      "midi": 71,
      "time": 4.333,
      "duration": 1.583,
      "velocity": 0.63,
      "hand": "right"
    },
    {
      "midi": 79,
      "time": 4.333,
      "duration": 0.167,
      "velocity": 0.63,
      "hand": "right"
    },
    {
      "midi": 81,
      "time": 4.5,
      "duration": 0.167,
      "velocity": 0.63,
      "hand": "right"
    },
    {
      "midi": 79,
      "time": 4.667,
      "duration": 0.167,
      "velocity": 0.63,
      "hand": "right"
    },
    {
      "midi": 76,
      "time": 4.833,
      "duration": 0.167,
      "velocity": 0.63,
      "hand": "right"
    },
    {
      "midi": 72,
      "time": 5,
      "duration": 0.167,
      "velocity": 0.63,
      "hand": "right"
    },
    {
      "midi": 76,
      "time": 5.167,
      "duration": 0.167,
      "velocity": 0.63,
      "hand": "right"
    },
    {
      "midi": 79,
      "time": 5.333,
      "duration": 0.167,
      "velocity": 0.63,
      "hand": "right"
    },
    {
      "midi": 81,
      "time": 5.5,
      "duration": 0.167,
      "velocity": 0.63,
      "hand": "right"
    },
    {
      "midi": 79,
      "time": 5.667,
      "duration": 0.167,
      "velocity": 0.63,
      "hand": "right"
    },
    {
      "midi": 76,
      "time": 5.833,
      "duration": 0.167,
      "velocity": 0.63,
      "hand": "right"
    },
    {
      "midi": 64,
      "time": 6,
      "duration": 0.333,
      "velocity": 0.63,
      "hand": "right"
    },
    {
      "midi": 72,
      "time": 6,
      "duration": 0.167,
      "velocity": 0.63,
      "hand": "right"
    },
    {
      "midi": 76,
      "time": 6.167,
      "duration": 0.167,
      "velocity": 0.63,
      "hand": "right"
    },
    {
      "midi": 71,
      "time": 6.333,
      "duration": 0.667,
      "velocity": 0.63,
      "hand": "right"
    },
    {
      "midi": 79,
      "time": 6.333,
      "duration": 0.167,
      "velocity": 0.63,
      "hand": "right"
    },
    {
      "midi": 81,
      "time": 6.5,
      "duration": 0.167,
      "velocity": 0.63,
      "hand": "right"
    },
    {
      "midi": 79,
      "time": 6.667,
      "duration": 0.167,
      "velocity": 0.63,
      "hand": "right"
    },
    {
      "midi": 76,
      "time": 6.833,
      "duration": 0.167,
      "velocity": 0.63,
      "hand": "right"
    },
    {
      "midi": 39,
      "time": 7,
      "duration": 1,
      "velocity": 0.63,
      "hand": "left"
    },
    {
      "midi": 60,
      "time": 7,
      "duration": 1,
      "velocity": 0.63,
      "hand": "right"
    },
    {
      "midi": 63,
      "time": 7,
      "duration": 0.917,
      "velocity": 0.63,
      "hand": "right"
    },
    {
      "midi": 64,
      "time": 7,
      "duration": 1,
      "velocity": 0.63,
      "hand": "right"
    },
    {
      "midi": 67,
      "time": 7,
      "duration": 1,
      "velocity": 0.63,
      "hand": "right"
    },
    {
      "midi": 69,
      "time": 7,
      "duration": 1,
      "velocity": 0.63,
      "hand": "right"
    },
    {
      "midi": 72,
      "time": 7,
      "duration": 0.167,
      "velocity": 0.63,
      "hand": "right"
    },
    {
      "midi": 76,
      "time": 7.167,
      "duration": 0.167,
      "velocity": 0.63,
      "hand": "right"
    },
    {
      "midi": 79,
      "time": 7.333,
      "duration": 0.167,
      "velocity": 0.63,
      "hand": "right"
    },
    {
      "midi": 81,
      "time": 7.5,
      "duration": 0.167,
      "velocity": 0.63,
      "hand": "right"
    },
    {
      "midi": 79,
      "time": 7.667,
      "duration": 0.167,
      "velocity": 0.63,
      "hand": "right"
    },
    {
      "midi": 76,
      "time": 7.833,
      "duration": 0.167,
      "velocity": 0.63,
      "hand": "right"
    },
    {
      "midi": 38,
      "time": 8,
      "duration": 4,
      "velocity": 0.63,
      "hand": "left"
    },
    {
      "midi": 60,
      "time": 8,
      "duration": 4,
      "velocity": 0.63,
      "hand": "right"
    },
    {
      "midi": 62,
      "time": 8,
      "duration": 4,
      "velocity": 0.63,
      "hand": "right"
    },
    {
      "midi": 62,
      "time": 8,
      "duration": 0.333,
      "velocity": 0.63,
      "hand": "right"
    },
    {
      "midi": 65,
      "time": 8,
      "duration": 4,
      "velocity": 0.63,
      "hand": "right"
    },
    {
      "midi": 69,
      "time": 8,
      "duration": 4,
      "velocity": 0.63,
      "hand": "right"
    },
    {
      "midi": 72,
      "time": 8,
      "duration": 0.167,
      "velocity": 0.63,
      "hand": "right"
    },
    {
      "midi": 74,
      "time": 8.167,
      "duration": 0.167,
      "velocity": 0.63,
      "hand": "right"
    },
    {
      "midi": 69,
      "time": 8.333,
      "duration": 1.583,
      "velocity": 0.63,
      "hand": "right"
    },
    {
      "midi": 77,
      "time": 8.333,
      "duration": 0.167,
      "velocity": 0.63,
      "hand": "right"
    },
    {
      "midi": 79,
      "time": 8.5,
      "duration": 0.167,
      "velocity": 0.63,
      "hand": "right"
    },
    {
      "midi": 77,
      "time": 8.667,
      "duration": 0.167,
      "velocity": 0.63,
      "hand": "right"
    },
    {
      "midi": 74,
      "time": 8.833,
      "duration": 0.167,
      "velocity": 0.63,
      "hand": "right"
    },
    {
      "midi": 72,
      "time": 9,
      "duration": 0.167,
      "velocity": 0.63,
      "hand": "right"
    },
    {
      "midi": 74,
      "time": 9.167,
      "duration": 0.167,
      "velocity": 0.63,
      "hand": "right"
    },
    {
      "midi": 77,
      "time": 9.333,
      "duration": 0.167,
      "velocity": 0.63,
      "hand": "right"
    },
    {
      "midi": 79,
      "time": 9.5,
      "duration": 0.167,
      "velocity": 0.63,
      "hand": "right"
    },
    {
      "midi": 77,
      "time": 9.667,
      "duration": 0.167,
      "velocity": 0.63,
      "hand": "right"
    },
    {
      "midi": 74,
      "time": 9.833,
      "duration": 0.167,
      "velocity": 0.63,
      "hand": "right"
    },
    {
      "midi": 62,
      "time": 10,
      "duration": 0.333,
      "velocity": 0.63,
      "hand": "right"
    },
    {
      "midi": 72,
      "time": 10,
      "duration": 0.167,
      "velocity": 0.63,
      "hand": "right"
    },
    {
      "midi": 74,
      "time": 10.167,
      "duration": 0.167,
      "velocity": 0.63,
      "hand": "right"
    },
    {
      "midi": 69,
      "time": 10.333,
      "duration": 0.667,
      "velocity": 0.63,
      "hand": "right"
    },
    {
      "midi": 77,
      "time": 10.333,
      "duration": 0.167,
      "velocity": 0.63,
      "hand": "right"
    },
    {
      "midi": 79,
      "time": 10.5,
      "duration": 0.167,
      "velocity": 0.63,
      "hand": "right"
    },
    {
      "midi": 77,
      "time": 10.667,
      "duration": 0.167,
      "velocity": 0.63,
      "hand": "right"
    },
    {
      "midi": 74,
      "time": 10.833,
      "duration": 0.167,
      "velocity": 0.63,
      "hand": "right"
    },
    {
      "midi": 62,
      "time": 11,
      "duration": 0.333,
      "velocity": 0.63,
      "hand": "right"
    },
    {
      "midi": 72,
      "time": 11,
      "duration": 0.167,
      "velocity": 0.63,
      "hand": "right"
    },
    {
      "midi": 74,
      "time": 11.167,
      "duration": 0.167,
      "velocity": 0.63,
      "hand": "right"
    },
    {
      "midi": 69,
      "time": 11.333,
      "duration": 0.667,
      "velocity": 0.63,
      "hand": "right"
    },
    {
      "midi": 77,
      "time": 11.333,
      "duration": 0.167,
      "velocity": 0.63,
      "hand": "right"
    },
    {
      "midi": 79,
      "time": 11.5,
      "duration": 0.167,
      "velocity": 0.63,
      "hand": "right"
    },
    {
      "midi": 77,
      "time": 11.667,
      "duration": 0.167,
      "velocity": 0.63,
      "hand": "right"
    },
    {
      "midi": 74,
      "time": 11.833,
      "duration": 0.167,
      "velocity": 0.63,
      "hand": "right"
    },
    {
      "midi": 36,
      "time": 12,
      "duration": 4,
      "velocity": 0.63,
      "hand": "left"
    },
    {
      "midi": 60,
      "time": 12,
      "duration": 4,
      "velocity": 0.63,
      "hand": "right"
    },
    {
      "midi": 60,
      "time": 12,
      "duration": 0.333,
      "velocity": 0.63,
      "hand": "right"
    },
    {
      "midi": 64,
      "time": 12,
      "duration": 4,
      "velocity": 0.63,
      "hand": "right"
    },
    {
      "midi": 67,
      "time": 12,
      "duration": 4,
      "velocity": 0.63,
      "hand": "right"
    },
    {
      "midi": 71,
      "time": 12,
      "duration": 0.167,
      "velocity": 0.63,
      "hand": "right"
    },
    {
      "midi": 71,
      "time": 12,
      "duration": 4,
      "velocity": 0.63,
      "hand": "right"
    },
    {
      "midi": 72,
      "time": 12.167,
      "duration": 0.167,
      "velocity": 0.63,
      "hand": "right"
    },
    {
      "midi": 67,
      "time": 12.333,
      "duration": 1.583,
      "velocity": 0.63,
      "hand": "right"
    },
    {
      "midi": 74,
      "time": 12.333,
      "duration": 0.167,
      "velocity": 0.63,
      "hand": "right"
    },
    {
      "midi": 76,
      "time": 12.5,
      "duration": 0.167,
      "velocity": 0.63,
      "hand": "right"
    },
    {
      "midi": 74,
      "time": 12.667,
      "duration": 0.167,
      "velocity": 0.63,
      "hand": "right"
    },
    {
      "midi": 72,
      "time": 12.833,
      "duration": 0.167,
      "velocity": 0.63,
      "hand": "right"
    },
    {
      "midi": 71,
      "time": 13,
      "duration": 0.167,
      "velocity": 0.63,
      "hand": "right"
    },
    {
      "midi": 72,
      "time": 13.167,
      "duration": 0.167,
      "velocity": 0.63,
      "hand": "right"
    },
    {
      "midi": 74,
      "time": 13.333,
      "duration": 0.167,
      "velocity": 0.63,
      "hand": "right"
    },
    {
      "midi": 76,
      "time": 13.5,
      "duration": 0.167,
      "velocity": 0.63,
      "hand": "right"
    },
    {
      "midi": 74,
      "time": 13.667,
      "duration": 0.167,
      "velocity": 0.63,
      "hand": "right"
    },
    {
      "midi": 72,
      "time": 13.833,
      "duration": 0.167,
      "velocity": 0.63,
      "hand": "right"
    },
    {
      "midi": 60,
      "time": 14,
      "duration": 0.333,
      "velocity": 0.63,
      "hand": "right"
    },
    {
      "midi": 71,
      "time": 14,
      "duration": 0.167,
      "velocity": 0.63,
      "hand": "right"
    },
    {
      "midi": 72,
      "time": 14.167,
      "duration": 0.167,
      "velocity": 0.63,
      "hand": "right"
    },
    {
      "midi": 67,
      "time": 14.333,
      "duration": 0.667,
      "velocity": 0.63,
      "hand": "right"
    },
    {
      "midi": 74,
      "time": 14.333,
      "duration": 0.167,
      "velocity": 0.63,
      "hand": "right"
    },
    {
      "midi": 76,
      "time": 14.5,
      "duration": 0.167,
      "velocity": 0.63,
      "hand": "right"
    },
    {
      "midi": 74,
      "time": 14.667,
      "duration": 0.167,
      "velocity": 0.63,
      "hand": "right"
    },
    {
      "midi": 72,
      "time": 14.833,
      "duration": 0.167,
      "velocity": 0.63,
      "hand": "right"
    },
    {
      "midi": 60,
      "time": 15,
      "duration": 0.333,
      "velocity": 0.63,
      "hand": "right"
    },
    {
      "midi": 71,
      "time": 15,
      "duration": 0.917,
      "velocity": 0.63,
      "hand": "right"
    },
    {
      "midi": 67,
      "time": 15.333,
      "duration": 0.667,
      "velocity": 0.63,
      "hand": "right"
    },
    {
      "midi": 41,
      "time": 16,
      "duration": 4,
      "velocity": 0.63,
      "hand": "left"
    },
    {
      "midi": 53,
      "time": 16,
      "duration": 0.333,
      "velocity": 0.63,
      "hand": "left"
    },
    {
      "midi": 60,
      "time": 16,
      "duration": 4,
      "velocity": 0.63,
      "hand": "right"
    },
    {
      "midi": 64,
      "time": 16,
      "duration": 0.167,
      "velocity": 0.63,
      "hand": "right"
    },
    {
      "midi": 64,
      "time": 16,
      "duration": 4,
      "velocity": 0.63,
      "hand": "right"
    },
    {
      "midi": 65,
      "time": 16,
      "duration": 4,
      "velocity": 0.63,
      "hand": "right"
    },
    {
      "midi": 69,
      "time": 16,
      "duration": 4,
      "velocity": 0.63,
      "hand": "right"
    },
    {
      "midi": 64,
      "time": 16.167,
      "duration": 0.167,
      "velocity": 0.63,
      "hand": "right"
    },
    {
      "midi": 60,
      "time": 16.333,
      "duration": 0.667,
      "velocity": 0.63,
      "hand": "right"
    },
    {
      "midi": 64,
      "time": 16.333,
      "duration": 0.167,
      "velocity": 0.63,
      "hand": "right"
    },
    {
      "midi": 64,
      "time": 16.5,
      "duration": 0.167,
      "velocity": 0.63,
      "hand": "right"
    },
    {
      "midi": 64,
      "time": 16.667,
      "duration": 0.167,
      "velocity": 0.63,
      "hand": "right"
    },
    {
      "midi": 62,
      "time": 16.833,
      "duration": 0.167,
      "velocity": 0.63,
      "hand": "right"
    },
    {
      "midi": 53,
      "time": 17,
      "duration": 0.333,
      "velocity": 0.63,
      "hand": "left"
    },
    {
      "midi": 60,
      "time": 17.333,
      "duration": 0.667,
      "velocity": 0.63,
      "hand": "right"
    },
    {
      "midi": 53,
      "time": 18,
      "duration": 1.917,
      "velocity": 0.63,
      "hand": "left"
    },
    {
      "midi": 60,
      "time": 18,
      "duration": 1.917,
      "velocity": 0.63,
      "hand": "right"
    },
    {
      "midi": 64,
      "time": 18,
      "duration": 0.167,
      "velocity": 0.63,
      "hand": "right"
    },
    {
      "midi": 64,
      "time": 18.167,
      "duration": 0.167,
      "velocity": 0.63,
      "hand": "right"
    },
    {
      "midi": 64,
      "time": 18.333,
      "duration": 0.167,
      "velocity": 0.63,
      "hand": "right"
    },
    {
      "midi": 64,
      "time": 18.5,
      "duration": 0.167,
      "velocity": 0.63,
      "hand": "right"
    },
    {
      "midi": 64,
      "time": 18.667,
      "duration": 0.333,
      "velocity": 0.63,
      "hand": "right"
    },
    {
      "midi": 64,
      "time": 19,
      "duration": 0.167,
      "velocity": 0.63,
      "hand": "right"
    },
    {
      "midi": 64,
      "time": 19.167,
      "duration": 0.167,
      "velocity": 0.63,
      "hand": "right"
    },
    {
      "midi": 64,
      "time": 19.333,
      "duration": 0.167,
      "velocity": 0.63,
      "hand": "right"
    },
    {
      "midi": 64,
      "time": 19.5,
      "duration": 0.167,
      "velocity": 0.63,
      "hand": "right"
    },
    {
      "midi": 64,
      "time": 19.667,
      "duration": 0.333,
      "velocity": 0.63,
      "hand": "right"
    },
    {
      "midi": 40,
      "time": 20,
      "duration": 3,
      "velocity": 0.63,
      "hand": "left"
    },
    {
      "midi": 52,
      "time": 20,
      "duration": 0.333,
      "velocity": 0.63,
      "hand": "left"
    },
    {
      "midi": 60,
      "time": 20,
      "duration": 3,
      "velocity": 0.63,
      "hand": "right"
    },
    {
      "midi": 64,
      "time": 20,
      "duration": 0.167,
      "velocity": 0.63,
      "hand": "right"
    },
    {
      "midi": 64,
      "time": 20,
      "duration": 3,
      "velocity": 0.63,
      "hand": "right"
    },
    {
      "midi": 67,
      "time": 20,
      "duration": 3,
      "velocity": 0.63,
      "hand": "right"
    },
    {
      "midi": 64,
      "time": 20.167,
      "duration": 0.167,
      "velocity": 0.63,
      "hand": "right"
    },
    {
      "midi": 59,
      "time": 20.333,
      "duration": 0.667,
      "velocity": 0.63,
      "hand": "left"
    },
    {
      "midi": 64,
      "time": 20.333,
      "duration": 0.167,
      "velocity": 0.63,
      "hand": "right"
    },
    {
      "midi": 64,
      "time": 20.5,
      "duration": 0.167,
      "velocity": 0.63,
      "hand": "right"
    },
    {
      "midi": 64,
      "time": 20.667,
      "duration": 0.167,
      "velocity": 0.63,
      "hand": "right"
    },
    {
      "midi": 62,
      "time": 20.833,
      "duration": 0.167,
      "velocity": 0.63,
      "hand": "right"
    },
    {
      "midi": 52,
      "time": 21,
      "duration": 0.333,
      "velocity": 0.63,
      "hand": "left"
    },
    {
      "midi": 59,
      "time": 21.333,
      "duration": 0.667,
      "velocity": 0.63,
      "hand": "left"
    },
    {
      "midi": 52,
      "time": 22,
      "duration": 0.917,
      "velocity": 0.63,
      "hand": "left"
    },
    {
      "midi": 55,
      "time": 22,
      "duration": 0.917,
      "velocity": 0.63,
      "hand": "left"
    },
    {
      "midi": 64,
      "time": 22,
      "duration": 0.167,
      "velocity": 0.63,
      "hand": "right"
    },
    {
      "midi": 64,
      "time": 22.167,
      "duration": 0.167,
      "velocity": 0.63,
      "hand": "right"
    },
    {
      "midi": 64,
      "time": 22.333,
      "duration": 0.333,
      "velocity": 0.63,
      "hand": "right"
    },
    {
      "midi": 64,
      "time": 22.667,
      "duration": 0.333,
      "velocity": 0.63,
      "hand": "right"
    },
    {
      "midi": 39,
      "time": 23,
      "duration": 1,
      "velocity": 0.63,
      "hand": "left"
    },
    {
      "midi": 51,
      "time": 23,
      "duration": 0.917,
      "velocity": 0.63,
      "hand": "left"
    },
    {
      "midi": 60,
      "time": 23,
      "duration": 1,
      "velocity": 0.63,
      "hand": "right"
    },
    {
      "midi": 64,
      "time": 23,
      "duration": 0.167,
      "velocity": 0.63,
      "hand": "right"
    },
    {
      "midi": 64,
      "time": 23,
      "duration": 1,
      "velocity": 0.63,
      "hand": "right"
    },
    {
      "midi": 67,
      "time": 23,
      "duration": 1,
      "velocity": 0.63,
      "hand": "right"
    },
    {
      "midi": 64,
      "time": 23.167,
      "duration": 0.167,
      "velocity": 0.63,
      "hand": "right"
    },
    {
      "midi": 64,
      "time": 23.333,
      "duration": 0.167,
      "velocity": 0.63,
      "hand": "right"
    },
    {
      "midi": 64,
      "time": 23.5,
      "duration": 0.167,
      "velocity": 0.63,
      "hand": "right"
    },
    {
      "midi": 64,
      "time": 23.667,
      "duration": 0.333,
      "velocity": 0.63,
      "hand": "right"
    },
    {
      "midi": 38,
      "time": 24,
      "duration": 4,
      "velocity": 0.63,
      "hand": "left"
    },
    {
      "midi": 50,
      "time": 24,
      "duration": 0.917,
      "velocity": 0.63,
      "hand": "left"
    },
    {
      "midi": 53,
      "time": 24,
      "duration": 0.917,
      "velocity": 0.63,
      "hand": "left"
    },
    {
      "midi": 62,
      "time": 24,
      "duration": 0.167,
      "velocity": 0.63,
      "hand": "right"
    },
    {
      "midi": 62,
      "time": 24,
      "duration": 4,
      "velocity": 0.63,
      "hand": "right"
    },
    {
      "midi": 65,
      "time": 24,
      "duration": 4,
      "velocity": 0.63,
      "hand": "right"
    },
    {
      "midi": 69,
      "time": 24,
      "duration": 4,
      "velocity": 0.63,
      "hand": "right"
    },
    {
      "midi": 60,
      "time": 24.167,
      "duration": 0.167,
      "velocity": 0.63,
      "hand": "right"
    },
    {
      "midi": 64,
      "time": 24.333,
      "duration": 0.167,
      "velocity": 0.63,
      "hand": "right"
    },
    {
      "midi": 62,
      "time": 24.5,
      "duration": 0.167,
      "velocity": 0.63,
      "hand": "right"
    },
    {
      "midi": 64,
      "time": 24.667,
      "duration": 0.167,
      "velocity": 0.63,
      "hand": "right"
    },
    {
      "midi": 62,
      "time": 24.833,
      "duration": 0.167,
      "velocity": 0.63,
      "hand": "right"
    },
    {
      "midi": 57,
      "time": 25,
      "duration": 0.917,
      "velocity": 0.63,
      "hand": "left"
    },
    {
      "midi": 50,
      "time": 26,
      "duration": 0.917,
      "velocity": 0.63,
      "hand": "left"
    },
    {
      "midi": 53,
      "time": 26,
      "duration": 0.917,
      "velocity": 0.63,
      "hand": "left"
    },
    {
      "midi": 57,
      "time": 26,
      "duration": 0.917,
      "velocity": 0.63,
      "hand": "left"
    },
    {
      "midi": 64,
      "time": 26,
      "duration": 0.167,
      "velocity": 0.63,
      "hand": "right"
    },
    {
      "midi": 62,
      "time": 26.167,
      "duration": 0.167,
      "velocity": 0.63,
      "hand": "right"
    },
    {
      "midi": 64,
      "time": 26.333,
      "duration": 0.167,
      "velocity": 0.63,
      "hand": "right"
    },
    {
      "midi": 62,
      "time": 26.5,
      "duration": 0.167,
      "velocity": 0.63,
      "hand": "right"
    },
    {
      "midi": 64,
      "time": 26.667,
      "duration": 0.167,
      "velocity": 0.63,
      "hand": "right"
    },
    {
      "midi": 62,
      "time": 26.833,
      "duration": 0.167,
      "velocity": 0.63,
      "hand": "right"
    },
    {
      "midi": 50,
      "time": 27,
      "duration": 0.333,
      "velocity": 0.63,
      "hand": "left"
    },
    {
      "midi": 53,
      "time": 27.333,
      "duration": 0.333,
      "velocity": 0.63,
      "hand": "left"
    },
    {
      "midi": 57,
      "time": 27.667,
      "duration": 0.333,
      "velocity": 0.63,
      "hand": "left"
    },
    {
      "midi": 60,
      "time": 27.833,
      "duration": 0.167,
      "velocity": 0.63,
      "hand": "right"
    },
    {
      "midi": 36,
      "time": 28,
      "duration": 4,
      "velocity": 0.63,
      "hand": "left"
    },
    {
      "midi": 48,
      "time": 28,
      "duration": 0.917,
      "velocity": 0.63,
      "hand": "left"
    },
    {
      "midi": 55,
      "time": 28,
      "duration": 0.917,
      "velocity": 0.63,
      "hand": "left"
    },
    {
      "midi": 59,
      "time": 28,
      "duration": 0.167,
      "velocity": 0.63,
      "hand": "left"
    },
    {
      "midi": 60,
      "time": 28,
      "duration": 4,
      "velocity": 0.63,
      "hand": "right"
    },
    {
      "midi": 64,
      "time": 28,
      "duration": 0.167,
      "velocity": 0.63,
      "hand": "right"
    },
    {
      "midi": 64,
      "time": 28,
      "duration": 4,
      "velocity": 0.63,
      "hand": "right"
    },
    {
      "midi": 67,
      "time": 28,
      "duration": 4,
      "velocity": 0.63,
      "hand": "right"
    },
    {
      "midi": 71,
      "time": 28,
      "duration": 4,
      "velocity": 0.63,
      "hand": "right"
    },
    {
      "midi": 64,
      "time": 28.167,
      "duration": 0.167,
      "velocity": 0.63,
      "hand": "right"
    },
    {
      "midi": 64,
      "time": 28.333,
      "duration": 0.167,
      "velocity": 0.63,
      "hand": "right"
    },
    {
      "midi": 64,
      "time": 28.5,
      "duration": 0.167,
      "velocity": 0.63,
      "hand": "right"
    },
    {
      "midi": 64,
      "time": 28.667,
      "duration": 0.333,
      "velocity": 0.63,
      "hand": "right"
    },
    {
      "midi": 48,
      "time": 29,
      "duration": 0.917,
      "velocity": 0.63,
      "hand": "left"
    },
    {
      "midi": 59,
      "time": 29,
      "duration": 0.167,
      "velocity": 0.63,
      "hand": "left"
    },
    {
      "midi": 64,
      "time": 29,
      "duration": 0.167,
      "velocity": 0.63,
      "hand": "right"
    },
    {
      "midi": 64,
      "time": 29.167,
      "duration": 0.167,
      "velocity": 0.63,
      "hand": "right"
    },
    {
      "midi": 64,
      "time": 29.333,
      "duration": 0.167,
      "velocity": 0.63,
      "hand": "right"
    },
    {
      "midi": 64,
      "time": 29.5,
      "duration": 0.167,
      "velocity": 0.63,
      "hand": "right"
    },
    {
      "midi": 64,
      "time": 29.667,
      "duration": 0.333,
      "velocity": 0.63,
      "hand": "right"
    },
    {
      "midi": 48,
      "time": 30,
      "duration": 1.917,
      "velocity": 0.63,
      "hand": "left"
    },
    {
      "midi": 55,
      "time": 30,
      "duration": 1.917,
      "velocity": 0.63,
      "hand": "left"
    },
    {
      "midi": 59,
      "time": 30,
      "duration": 0.167,
      "velocity": 0.63,
      "hand": "left"
    },
    {
      "midi": 64,
      "time": 30,
      "duration": 0.167,
      "velocity": 0.63,
      "hand": "right"
    },
    {
      "midi": 64,
      "time": 30.167,
      "duration": 0.167,
      "velocity": 0.63,
      "hand": "right"
    },
    {
      "midi": 64,
      "time": 30.333,
      "duration": 0.333,
      "velocity": 0.63,
      "hand": "right"
    },
    {
      "midi": 62,
      "time": 30.667,
      "duration": 0.167,
      "velocity": 0.63,
      "hand": "right"
    },
    {
      "midi": 60,
      "time": 30.833,
      "duration": 0.5,
      "velocity": 0.63,
      "hand": "right"
    },
    {
      "midi": 64,
      "time": 31.333,
      "duration": 0.333,
      "velocity": 0.63,
      "hand": "right"
    },
    {
      "midi": 67,
      "time": 31.667,
      "duration": 0.333,
      "velocity": 0.63,
      "hand": "right"
    },
    {
      "midi": 41,
      "time": 32,
      "duration": 4,
      "velocity": 0.63,
      "hand": "left"
    },
    {
      "midi": 41,
      "time": 32,
      "duration": 0.917,
      "velocity": 0.63,
      "hand": "left"
    },
    {
      "midi": 60,
      "time": 32,
      "duration": 4,
      "velocity": 0.63,
      "hand": "right"
    },
    {
      "midi": 64,
      "time": 32,
      "duration": 0.917,
      "velocity": 0.63,
      "hand": "right"
    },
    {
      "midi": 64,
      "time": 32,
      "duration": 4,
      "velocity": 0.63,
      "hand": "right"
    },
    {
      "midi": 65,
      "time": 32,
      "duration": 4,
      "velocity": 0.63,
      "hand": "right"
    },
    {
      "midi": 69,
      "time": 32,
      "duration": 0.917,
      "velocity": 0.63,
      "hand": "right"
    },
    {
      "midi": 69,
      "time": 32,
      "duration": 4,
      "velocity": 0.63,
      "hand": "right"
    },
    {
      "midi": 48,
      "time": 33,
      "duration": 0.917,
      "velocity": 0.63,
      "hand": "left"
    },
    {
      "midi": 69,
      "time": 33.333,
      "duration": 0.333,
      "velocity": 0.63,
      "hand": "right"
    },
    {
      "midi": 71,
      "time": 33.667,
      "duration": 0.167,
      "velocity": 0.63,
      "hand": "right"
    },
    {
      "midi": 64,
      "time": 33.833,
      "duration": 1.083,
      "velocity": 0.63,
      "hand": "right"
    },
    {
      "midi": 72,
      "time": 33.833,
      "duration": 1.083,
      "velocity": 0.63,
      "hand": "right"
    },
    {
      "midi": 41,
      "time": 34,
      "duration": 0.917,
      "velocity": 0.63,
      "hand": "left"
    },
    {
      "midi": 48,
      "time": 35,
      "duration": 0.917,
      "velocity": 0.63,
      "hand": "left"
    },
    {
      "midi": 69,
      "time": 35.333,
      "duration": 0.333,
      "velocity": 0.63,
      "hand": "right"
    },
    {
      "midi": 72,
      "time": 35.667,
      "duration": 0.333,
      "velocity": 0.63,
      "hand": "right"
    },
    {
      "midi": 40,
      "time": 36,
      "duration": 2,
      "velocity": 0.63,
      "hand": "left"
    },
    {
      "midi": 40,
      "time": 36,
      "duration": 0.917,
      "velocity": 0.63,
      "hand": "left"
    },
    {
      "midi": 64,
      "time": 36,
      "duration": 2,
      "velocity": 0.63,
      "hand": "right"
    },
    {
      "midi": 67,
      "time": 36,
      "duration": 0.333,
      "velocity": 0.63,
      "hand": "right"
    },
    {
      "midi": 67,
      "time": 36,
      "duration": 2,
      "velocity": 0.63,
      "hand": "right"
    },
    {
      "midi": 71,
      "time": 36,
      "duration": 0.333,
      "velocity": 0.63,
      "hand": "right"
    },
    {
      "midi": 71,
      "time": 36,
      "duration": 2,
      "velocity": 0.63,
      "hand": "right"
    },
    {
      "midi": 69,
      "time": 36.333,
      "duration": 0.333,
      "velocity": 0.63,
      "hand": "right"
    },
    {
      "midi": 67,
      "time": 36.667,
      "duration": 0.333,
      "velocity": 0.63,
      "hand": "right"
    },
    {
      "midi": 47,
      "time": 37,
      "duration": 0.917,
      "velocity": 0.63,
      "hand": "left"
    },
    {
      "midi": 67,
      "time": 37,
      "duration": 0.667,
      "velocity": 0.63,
      "hand": "right"
    },
    {
      "midi": 64,
      "time": 37.667,
      "duration": 0.333,
      "velocity": 0.63,
      "hand": "right"
    },
    {
      "midi": 40,
      "time": 38,
      "duration": 1,
      "velocity": 0.63,
      "hand": "left"
    },
    {
      "midi": 40,
      "time": 38,
      "duration": 0.917,
      "velocity": 0.63,
      "hand": "left"
    },
    {
      "midi": 60,
      "time": 38,
      "duration": 1,
      "velocity": 0.63,
      "hand": "right"
    },
    {
      "midi": 64,
      "time": 38,
      "duration": 1,
      "velocity": 0.63,
      "hand": "right"
    },
    {
      "midi": 67,
      "time": 38,
      "duration": 0.333,
      "velocity": 0.63,
      "hand": "right"
    },
    {
      "midi": 67,
      "time": 38,
      "duration": 1,
      "velocity": 0.63,
      "hand": "right"
    },
    {
      "midi": 71,
      "time": 38,
      "duration": 0.333,
      "velocity": 0.63,
      "hand": "right"
    },
    {
      "midi": 69,
      "time": 38.333,
      "duration": 0.333,
      "velocity": 0.63,
      "hand": "right"
    },
    {
      "midi": 67,
      "time": 38.667,
      "duration": 0.333,
      "velocity": 0.63,
      "hand": "right"
    },
    {
      "midi": 39,
      "time": 39,
      "duration": 1,
      "velocity": 0.63,
      "hand": "left"
    },
    {
      "midi": 39,
      "time": 39,
      "duration": 0.917,
      "velocity": 0.63,
      "hand": "left"
    },
    {
      "midi": 60,
      "time": 39,
      "duration": 1,
      "velocity": 0.63,
      "hand": "right"
    },
    {
      "midi": 64,
      "time": 39,
      "duration": 1,
      "velocity": 0.63,
      "hand": "right"
    },
    {
      "midi": 67,
      "time": 39,
      "duration": 0.333,
      "velocity": 0.63,
      "hand": "right"
    },
    {
      "midi": 67,
      "time": 39,
      "duration": 1,
      "velocity": 0.63,
      "hand": "right"
    },
    {
      "midi": 71,
      "time": 39,
      "duration": 0.333,
      "velocity": 0.63,
      "hand": "right"
    },
    {
      "midi": 69,
      "time": 39.333,
      "duration": 0.333,
      "velocity": 0.63,
      "hand": "right"
    },
    {
      "midi": 67,
      "time": 39.667,
      "duration": 0.333,
      "velocity": 0.63,
      "hand": "right"
    },
    {
      "midi": 38,
      "time": 40,
      "duration": 4,
      "velocity": 0.63,
      "hand": "left"
    },
    {
      "midi": 38,
      "time": 40,
      "duration": 0.917,
      "velocity": 0.63,
      "hand": "left"
    },
    {
      "midi": 60,
      "time": 40,
      "duration": 4,
      "velocity": 0.63,
      "hand": "right"
    },
    {
      "midi": 62,
      "time": 40,
      "duration": 4,
      "velocity": 0.63,
      "hand": "right"
    },
    {
      "midi": 65,
      "time": 40,
      "duration": 4,
      "velocity": 0.63,
      "hand": "right"
    },
    {
      "midi": 67,
      "time": 40,
      "duration": 0.167,
      "velocity": 0.63,
      "hand": "right"
    },
    {
      "midi": 69,
      "time": 40,
      "duration": 4,
      "velocity": 0.63,
      "hand": "right"
    },
    {
      "midi": 60,
      "time": 40.167,
      "duration": 1.75,
      "velocity": 0.63,
      "hand": "right"
    },
    {
      "midi": 65,
      "time": 40.167,
      "duration": 1.75,
      "velocity": 0.63,
      "hand": "right"
    },
    {
      "midi": 45,
      "time": 41,
      "duration": 0.917,
      "velocity": 0.63,
      "hand": "left"
    },
    {
      "midi": 38,
      "time": 42,
      "duration": 0.917,
      "velocity": 0.63,
      "hand": "left"
    },
    {
      "midi": 60,
      "time": 42.667,
      "duration": 0.333,
      "velocity": 0.63,
      "hand": "right"
    },
    {
      "midi": 45,
      "time": 43,
      "duration": 0.917,
      "velocity": 0.63,
      "hand": "left"
    },
    {
      "midi": 67,
      "time": 43,
      "duration": 0.333,
      "velocity": 0.63,
      "hand": "right"
    },
    {
      "midi": 65,
      "time": 43.333,
      "duration": 0.333,
      "velocity": 0.63,
      "hand": "right"
    },
    {
      "midi": 64,
      "time": 43.667,
      "duration": 0.333,
      "velocity": 0.63,
      "hand": "right"
    },
    {
      "midi": 40,
      "time": 44,
      "duration": 4,
      "velocity": 0.63,
      "hand": "left"
    },
    {
      "midi": 40,
      "time": 44,
      "duration": 0.333,
      "velocity": 0.63,
      "hand": "left"
    },
    {
      "midi": 56,
      "time": 44,
      "duration": 0.917,
      "velocity": 0.63,
      "hand": "left"
    },
    {
      "midi": 64,
      "time": 44,
      "duration": 0.917,
      "velocity": 0.63,
      "hand": "right"
    },
    {
      "midi": 64,
      "time": 44,
      "duration": 4,
      "velocity": 0.63,
      "hand": "right"
    },
    {
      "midi": 68,
      "time": 44,
      "duration": 4,
      "velocity": 0.63,
      "hand": "right"
    },
    {
      "midi": 71,
      "time": 44,
      "duration": 4,
      "velocity": 0.63,
      "hand": "right"
    },
    {
      "midi": 40,
      "time": 44.333,
      "duration": 0.333,
      "velocity": 0.63,
      "hand": "left"
    },
    {
      "midi": 40,
      "time": 44.667,
      "duration": 0.333,
      "velocity": 0.63,
      "hand": "left"
    },
    {
      "midi": 40,
      "time": 45,
      "duration": 0.333,
      "velocity": 0.63,
      "hand": "left"
    },
    {
      "midi": 69,
      "time": 45,
      "duration": 0.917,
      "velocity": 0.63,
      "hand": "right"
    },
    {
      "midi": 40,
      "time": 45.333,
      "duration": 0.333,
      "velocity": 0.63,
      "hand": "left"
    },
    {
      "midi": 40,
      "time": 45.667,
      "duration": 0.333,
      "velocity": 0.63,
      "hand": "left"
    },
    {
      "midi": 40,
      "time": 46,
      "duration": 0.333,
      "velocity": 0.63,
      "hand": "left"
    },
    {
      "midi": 72,
      "time": 46,
      "duration": 0.917,
      "velocity": 0.63,
      "hand": "right"
    },
    {
      "midi": 40,
      "time": 46.333,
      "duration": 0.333,
      "velocity": 0.63,
      "hand": "left"
    },
    {
      "midi": 40,
      "time": 46.667,
      "duration": 0.333,
      "velocity": 0.63,
      "hand": "left"
    },
    {
      "midi": 74,
      "time": 47,
      "duration": 0.333,
      "velocity": 0.63,
      "hand": "right"
    },
    {
      "midi": 41,
      "time": 48,
      "duration": 6,
      "velocity": 0.63,
      "hand": "left"
    },
    {
      "midi": 41,
      "time": 48,
      "duration": 0.917,
      "velocity": 0.63,
      "hand": "left"
    },
    {
      "midi": 60,
      "time": 48,
      "duration": 6,
      "velocity": 0.63,
      "hand": "right"
    },
    {
      "midi": 64,
      "time": 48,
      "duration": 6,
      "velocity": 0.63,
      "hand": "right"
    },
    {
      "midi": 65,
      "time": 48,
      "duration": 6,
      "velocity": 0.63,
      "hand": "right"
    },
    {
      "midi": 69,
      "time": 48,
      "duration": 3.833,
      "velocity": 0.63,
      "hand": "right"
    },
    {
      "midi": 69,
      "time": 48,
      "duration": 6,
      "velocity": 0.63,
      "hand": "right"
    },
    {
      "midi": 76,
      "time": 48,
      "duration": 3.833,
      "velocity": 0.63,
      "hand": "right"
    },
    {
      "midi": 48,
      "time": 49,
      "duration": 0.917,
      "velocity": 0.63,
      "hand": "left"
    },
    {
      "midi": 52,
      "time": 50,
      "duration": 0.917,
      "velocity": 0.63,
      "hand": "left"
    },
    {
      "midi": 53,
      "time": 50,
      "duration": 0.917,
      "velocity": 0.63,
      "hand": "left"
    },
    {
      "midi": 57,
      "time": 50,
      "duration": 0.917,
      "velocity": 0.63,
      "hand": "left"
    },
    {
      "midi": 60,
      "time": 51,
      "duration": 0.917,
      "velocity": 0.63,
      "hand": "right"
    },
    {
      "midi": 41,
      "time": 52,
      "duration": 0.917,
      "velocity": 0.63,
      "hand": "left"
    },
    {
      "midi": 69,
      "time": 52,
      "duration": 0.917,
      "velocity": 0.63,
      "hand": "right"
    },
    {
      "midi": 48,
      "time": 53,
      "duration": 0.917,
      "velocity": 0.63,
      "hand": "left"
    },
    {
      "midi": 71,
      "time": 53,
      "duration": 0.917,
      "velocity": 0.63,
      "hand": "right"
    },
    {
      "midi": 41,
      "time": 54,
      "duration": 2,
      "velocity": 0.63,
      "hand": "left"
    },
    {
      "midi": 53,
      "time": 54,
      "duration": 0.917,
      "velocity": 0.63,
      "hand": "left"
    },
    {
      "midi": 56,
      "time": 54,
      "duration": 0.917,
      "velocity": 0.63,
      "hand": "left"
    },
    {
      "midi": 60,
      "time": 54,
      "duration": 2,
      "velocity": 0.63,
      "hand": "right"
    },
    {
      "midi": 60,
      "time": 54,
      "duration": 0.917,
      "velocity": 0.63,
      "hand": "right"
    },
    {
      "midi": 65,
      "time": 54,
      "duration": 2,
      "velocity": 0.63,
      "hand": "right"
    },
    {
      "midi": 68,
      "time": 54,
      "duration": 2,
      "velocity": 0.63,
      "hand": "right"
    },
    {
      "midi": 79,
      "time": 54,
      "duration": 0.917,
      "velocity": 0.63,
      "hand": "right"
    },
    {
      "midi": 62,
      "time": 55,
      "duration": 0.917,
      "velocity": 0.63,
      "hand": "right"
    },
    {
      "midi": 77,
      "time": 55,
      "duration": 0.917,
      "velocity": 0.63,
      "hand": "right"
    },
    {
      "midi": 36,
      "time": 56,
      "duration": 6,
      "velocity": 0.63,
      "hand": "left"
    },
    {
      "midi": 36,
      "time": 56,
      "duration": 0.917,
      "velocity": 0.63,
      "hand": "left"
    },
    {
      "midi": 60,
      "time": 56,
      "duration": 6,
      "velocity": 0.63,
      "hand": "right"
    },
    {
      "midi": 64,
      "time": 56,
      "duration": 6,
      "velocity": 0.63,
      "hand": "right"
    },
    {
      "midi": 67,
      "time": 56,
      "duration": 6,
      "velocity": 0.63,
      "hand": "right"
    },
    {
      "midi": 71,
      "time": 56,
      "duration": 2.333,
      "velocity": 0.63,
      "hand": "right"
    },
    {
      "midi": 71,
      "time": 56,
      "duration": 6,
      "velocity": 0.63,
      "hand": "right"
    },
    {
      "midi": 76,
      "time": 56,
      "duration": 2.333,
      "velocity": 0.63,
      "hand": "right"
    },
    {
      "midi": 43,
      "time": 57,
      "duration": 0.917,
      "velocity": 0.63,
      "hand": "left"
    },
    {
      "midi": 48,
      "time": 58,
      "duration": 0.917,
      "velocity": 0.63,
      "hand": "left"
    },
    {
      "midi": 52,
      "time": 58,
      "duration": 0.917,
      "velocity": 0.63,
      "hand": "left"
    },
    {
      "midi": 55,
      "time": 58,
      "duration": 0.917,
      "velocity": 0.63,
      "hand": "left"
    },
    {
      "midi": 74,
      "time": 58.333,
      "duration": 0.667,
      "velocity": 0.63,
      "hand": "right"
    },
    {
      "midi": 59,
      "time": 59,
      "duration": 0.917,
      "velocity": 0.63,
      "hand": "left"
    },
    {
      "midi": 69,
      "time": 59.333,
      "duration": 0.333,
      "velocity": 0.63,
      "hand": "right"
    },
    {
      "midi": 72,
      "time": 59.667,
      "duration": 0.333,
      "velocity": 0.63,
      "hand": "right"
    },
    {
      "midi": 36,
      "time": 60,
      "duration": 0.917,
      "velocity": 0.63,
      "hand": "left"
    },
    {
      "midi": 64,
      "time": 60,
      "duration": 0.917,
      "velocity": 0.63,
      "hand": "right"
    },
    {
      "midi": 71,
      "time": 60,
      "duration": 0.917,
      "velocity": 0.63,
      "hand": "right"
    },
    {
      "midi": 43,
      "time": 61,
      "duration": 0.917,
      "velocity": 0.63,
      "hand": "left"
    },
    {
      "midi": 71,
      "time": 61,
      "duration": 0.917,
      "velocity": 0.63,
      "hand": "right"
    },
    {
      "midi": 38,
      "time": 62,
      "duration": 1,
      "velocity": 0.63,
      "hand": "left"
    },
    {
      "midi": 38,
      "time": 62,
      "duration": 0.917,
      "velocity": 0.63,
      "hand": "left"
    },
    {
      "midi": 60,
      "time": 62,
      "duration": 1,
      "velocity": 0.63,
      "hand": "right"
    },
    {
      "midi": 64,
      "time": 62,
      "duration": 1,
      "velocity": 0.63,
      "hand": "right"
    },
    {
      "midi": 69,
      "time": 62,
      "duration": 0.917,
      "velocity": 0.63,
      "hand": "right"
    },
    {
      "midi": 69,
      "time": 62,
      "duration": 1,
      "velocity": 0.63,
      "hand": "right"
    },
    {
      "midi": 72,
      "time": 62,
      "duration": 0.917,
      "velocity": 0.63,
      "hand": "right"
    },
    {
      "midi": 40,
      "time": 63,
      "duration": 1,
      "velocity": 0.63,
      "hand": "left"
    },
    {
      "midi": 40,
      "time": 63,
      "duration": 0.917,
      "velocity": 0.63,
      "hand": "left"
    },
    {
      "midi": 62,
      "time": 63,
      "duration": 1,
      "velocity": 0.63,
      "hand": "right"
    },
    {
      "midi": 64,
      "time": 63,
      "duration": 1,
      "velocity": 0.63,
      "hand": "right"
    },
    {
      "midi": 68,
      "time": 63,
      "duration": 0.917,
      "velocity": 0.63,
      "hand": "right"
    },
    {
      "midi": 68,
      "time": 63,
      "duration": 1,
      "velocity": 0.63,
      "hand": "right"
    },
    {
      "midi": 71,
      "time": 63,
      "duration": 1,
      "velocity": 0.63,
      "hand": "right"
    },
    {
      "midi": 74,
      "time": 63,
      "duration": 0.917,
      "velocity": 0.63,
      "hand": "right"
    },
    {
      "midi": 41,
      "time": 64,
      "duration": 6,
      "velocity": 0.63,
      "hand": "left"
    },
    {
      "midi": 41,
      "time": 64,
      "duration": 0.917,
      "velocity": 0.63,
      "hand": "left"
    },
    {
      "midi": 60,
      "time": 64,
      "duration": 6,
      "velocity": 0.63,
      "hand": "right"
    },
    {
      "midi": 64,
      "time": 64,
      "duration": 6,
      "velocity": 0.63,
      "hand": "right"
    },
    {
      "midi": 65,
      "time": 64,
      "duration": 6,
      "velocity": 0.63,
      "hand": "right"
    },
    {
      "midi": 69,
      "time": 64,
      "duration": 3.833,
      "velocity": 0.63,
      "hand": "right"
    },
    {
      "midi": 69,
      "time": 64,
      "duration": 6,
      "velocity": 0.63,
      "hand": "right"
    },
    {
      "midi": 76,
      "time": 64,
      "duration": 3.833,
      "velocity": 0.63,
      "hand": "right"
    },
    {
      "midi": 48,
      "time": 65,
      "duration": 0.917,
      "velocity": 0.63,
      "hand": "left"
    },
    {
      "midi": 52,
      "time": 66,
      "duration": 0.917,
      "velocity": 0.63,
      "hand": "left"
    },
    {
      "midi": 53,
      "time": 66,
      "duration": 0.917,
      "velocity": 0.63,
      "hand": "left"
    },
    {
      "midi": 57,
      "time": 66,
      "duration": 0.917,
      "velocity": 0.63,
      "hand": "left"
    },
    {
      "midi": 60,
      "time": 67,
      "duration": 0.917,
      "velocity": 0.63,
      "hand": "right"
    },
    {
      "midi": 41,
      "time": 68,
      "duration": 0.917,
      "velocity": 0.63,
      "hand": "left"
    },
    {
      "midi": 69,
      "time": 68,
      "duration": 0.917,
      "velocity": 0.63,
      "hand": "right"
    },
    {
      "midi": 48,
      "time": 69,
      "duration": 0.917,
      "velocity": 0.63,
      "hand": "left"
    },
    {
      "midi": 71,
      "time": 69,
      "duration": 0.917,
      "velocity": 0.63,
      "hand": "right"
    },
    {
      "midi": 41,
      "time": 70,
      "duration": 2,
      "velocity": 0.63,
      "hand": "left"
    },
    {
      "midi": 53,
      "time": 70,
      "duration": 0.917,
      "velocity": 0.63,
      "hand": "left"
    },
    {
      "midi": 56,
      "time": 70,
      "duration": 0.917,
      "velocity": 0.63,
      "hand": "left"
    },
    {
      "midi": 60,
      "time": 70,
      "duration": 2,
      "velocity": 0.63,
      "hand": "right"
    },
    {
      "midi": 60,
      "time": 70,
      "duration": 0.917,
      "velocity": 0.63,
      "hand": "right"
    },
    {
      "midi": 65,
      "time": 70,
      "duration": 2,
      "velocity": 0.63,
      "hand": "right"
    },
    {
      "midi": 68,
      "time": 70,
      "duration": 2,
      "velocity": 0.63,
      "hand": "right"
    },
    {
      "midi": 79,
      "time": 70,
      "duration": 0.917,
      "velocity": 0.63,
      "hand": "right"
    },
    {
      "midi": 62,
      "time": 71,
      "duration": 0.917,
      "velocity": 0.63,
      "hand": "right"
    },
    {
      "midi": 77,
      "time": 71,
      "duration": 0.917,
      "velocity": 0.63,
      "hand": "right"
    },
    {
      "midi": 36,
      "time": 72,
      "duration": 6,
      "velocity": 0.63,
      "hand": "left"
    },
    {
      "midi": 36,
      "time": 72,
      "duration": 0.917,
      "velocity": 0.63,
      "hand": "left"
    },
    {
      "midi": 60,
      "time": 72,
      "duration": 6,
      "velocity": 0.63,
      "hand": "right"
    },
    {
      "midi": 64,
      "time": 72,
      "duration": 6,
      "velocity": 0.63,
      "hand": "right"
    },
    {
      "midi": 67,
      "time": 72,
      "duration": 6,
      "velocity": 0.63,
      "hand": "right"
    },
    {
      "midi": 71,
      "time": 72,
      "duration": 2.833,
      "velocity": 0.63,
      "hand": "right"
    },
    {
      "midi": 71,
      "time": 72,
      "duration": 6,
      "velocity": 0.63,
      "hand": "right"
    },
    {
      "midi": 76,
      "time": 72,
      "duration": 2.833,
      "velocity": 0.63,
      "hand": "right"
    },
    {
      "midi": 43,
      "time": 73,
      "duration": 0.917,
      "velocity": 0.63,
      "hand": "left"
    },
    {
      "midi": 48,
      "time": 74,
      "duration": 0.917,
      "velocity": 0.63,
      "hand": "left"
    },
    {
      "midi": 52,
      "time": 74,
      "duration": 0.917,
      "velocity": 0.63,
      "hand": "left"
    },
    {
      "midi": 55,
      "time": 74,
      "duration": 0.917,
      "velocity": 0.63,
      "hand": "left"
    },
    {
      "midi": 59,
      "time": 75,
      "duration": 0.917,
      "velocity": 0.63,
      "hand": "left"
    },
    {
      "midi": 69,
      "time": 75.333,
      "duration": 0.333,
      "velocity": 0.63,
      "hand": "right"
    },
    {
      "midi": 72,
      "time": 75.667,
      "duration": 0.333,
      "velocity": 0.63,
      "hand": "right"
    },
    {
      "midi": 36,
      "time": 76,
      "duration": 0.917,
      "velocity": 0.63,
      "hand": "left"
    },
    {
      "midi": 64,
      "time": 76,
      "duration": 2,
      "velocity": 0.63,
      "hand": "right"
    },
    {
      "midi": 71,
      "time": 76,
      "duration": 2,
      "velocity": 0.63,
      "hand": "right"
    },
    {
      "midi": 43,
      "time": 77,
      "duration": 0.917,
      "velocity": 0.63,
      "hand": "left"
    },
    {
      "midi": 38,
      "time": 78,
      "duration": 1,
      "velocity": 0.63,
      "hand": "left"
    },
    {
      "midi": 38,
      "time": 78,
      "duration": 0.917,
      "velocity": 0.63,
      "hand": "left"
    },
    {
      "midi": 60,
      "time": 78,
      "duration": 1,
      "velocity": 0.63,
      "hand": "right"
    },
    {
      "midi": 64,
      "time": 78,
      "duration": 0.917,
      "velocity": 0.63,
      "hand": "right"
    },
    {
      "midi": 64,
      "time": 78,
      "duration": 1,
      "velocity": 0.63,
      "hand": "right"
    },
    {
      "midi": 67,
      "time": 78,
      "duration": 1,
      "velocity": 0.63,
      "hand": "right"
    },
    {
      "midi": 70,
      "time": 78,
      "duration": 0.917,
      "velocity": 0.63,
      "hand": "right"
    },
    {
      "midi": 70,
      "time": 78,
      "duration": 1,
      "velocity": 0.63,
      "hand": "right"
    },
    {
      "midi": 40,
      "time": 79,
      "duration": 1,
      "velocity": 0.63,
      "hand": "left"
    },
    {
      "midi": 40,
      "time": 79,
      "duration": 0.917,
      "velocity": 0.63,
      "hand": "left"
    },
    {
      "midi": 60,
      "time": 79,
      "duration": 1,
      "velocity": 0.63,
      "hand": "right"
    },
    {
      "midi": 64,
      "time": 79,
      "duration": 1,
      "velocity": 0.63,
      "hand": "right"
    },
    {
      "midi": 67,
      "time": 79,
      "duration": 1,
      "velocity": 0.63,
      "hand": "right"
    },
    {
      "midi": 70,
      "time": 79,
      "duration": 0.917,
      "velocity": 0.63,
      "hand": "right"
    },
    {
      "midi": 70,
      "time": 79,
      "duration": 1,
      "velocity": 0.63,
      "hand": "right"
    },
    {
      "midi": 41,
      "time": 80,
      "duration": 4,
      "velocity": 0.63,
      "hand": "left"
    },
    {
      "midi": 41,
      "time": 80,
      "duration": 0.917,
      "velocity": 0.63,
      "hand": "left"
    },
    {
      "midi": 57,
      "time": 80,
      "duration": 0.167,
      "velocity": 0.63,
      "hand": "left"
    },
    {
      "midi": 60,
      "time": 80,
      "duration": 4,
      "velocity": 0.63,
      "hand": "right"
    },
    {
      "midi": 64,
      "time": 80,
      "duration": 0.167,
      "velocity": 0.63,
      "hand": "right"
    },
    {
      "midi": 64,
      "time": 80,
      "duration": 4,
      "velocity": 0.63,
      "hand": "right"
    },
    {
      "midi": 65,
      "time": 80,
      "duration": 4,
      "velocity": 0.63,
      "hand": "right"
    },
    {
      "midi": 69,
      "time": 80,
      "duration": 4,
      "velocity": 0.63,
      "hand": "right"
    },
    {
      "midi": 64,
      "time": 80.167,
      "duration": 0.167,
      "velocity": 0.63,
      "hand": "right"
    },
    {
      "midi": 64,
      "time": 80.333,
      "duration": 0.167,
      "velocity": 0.63,
      "hand": "right"
    },
    {
      "midi": 64,
      "time": 80.5,
      "duration": 0.167,
      "velocity": 0.63,
      "hand": "right"
    },
    {
      "midi": 64,
      "time": 80.667,
      "duration": 0.167,
      "velocity": 0.63,
      "hand": "right"
    },
    {
      "midi": 62,
      "time": 80.833,
      "duration": 0.167,
      "velocity": 0.63,
      "hand": "right"
    },
    {
      "midi": 41,
      "time": 81,
      "duration": 0.917,
      "velocity": 0.63,
      "hand": "left"
    },
    {
      "midi": 41,
      "time": 82,
      "duration": 0.917,
      "velocity": 0.63,
      "hand": "left"
    },
    {
      "midi": 57,
      "time": 82,
      "duration": 0.167,
      "velocity": 0.63,
      "hand": "left"
    },
    {
      "midi": 64,
      "time": 82,
      "duration": 0.167,
      "velocity": 0.63,
      "hand": "right"
    },
    {
      "midi": 64,
      "time": 82.167,
      "duration": 0.167,
      "velocity": 0.63,
      "hand": "right"
    },
    {
      "midi": 64,
      "time": 82.333,
      "duration": 0.167,
      "velocity": 0.63,
      "hand": "right"
    },
    {
      "midi": 64,
      "time": 82.5,
      "duration": 0.167,
      "velocity": 0.63,
      "hand": "right"
    },
    {
      "midi": 64,
      "time": 82.667,
      "duration": 0.333,
      "velocity": 0.63,
      "hand": "right"
    },
    {
      "midi": 41,
      "time": 83,
      "duration": 0.917,
      "velocity": 0.63,
      "hand": "left"
    },
    {
      "midi": 64,
      "time": 83,
      "duration": 0.167,
      "velocity": 0.63,
      "hand": "right"
    },
    {
      "midi": 64,
      "time": 83.167,
      "duration": 0.167,
      "velocity": 0.63,
      "hand": "right"
    },
    {
      "midi": 64,
      "time": 83.333,
      "duration": 0.167,
      "velocity": 0.63,
      "hand": "right"
    },
    {
      "midi": 64,
      "time": 83.5,
      "duration": 0.167,
      "velocity": 0.63,
      "hand": "right"
    },
    {
      "midi": 64,
      "time": 83.667,
      "duration": 0.333,
      "velocity": 0.63,
      "hand": "right"
    },
    {
      "midi": 40,
      "time": 84,
      "duration": 3,
      "velocity": 0.63,
      "hand": "left"
    },
    {
      "midi": 40,
      "time": 84,
      "duration": 0.917,
      "velocity": 0.63,
      "hand": "left"
    },
    {
      "midi": 55,
      "time": 84,
      "duration": 0.167,
      "velocity": 0.63,
      "hand": "left"
    },
    {
      "midi": 60,
      "time": 84,
      "duration": 3,
      "velocity": 0.63,
      "hand": "right"
    },
    {
      "midi": 64,
      "time": 84,
      "duration": 0.167,
      "velocity": 0.63,
      "hand": "right"
    },
    {
      "midi": 64,
      "time": 84,
      "duration": 3,
      "velocity": 0.63,
      "hand": "right"
    },
    {
      "midi": 67,
      "time": 84,
      "duration": 3,
      "velocity": 0.63,
      "hand": "right"
    },
    {
      "midi": 64,
      "time": 84.167,
      "duration": 0.167,
      "velocity": 0.63,
      "hand": "right"
    },
    {
      "midi": 64,
      "time": 84.333,
      "duration": 0.167,
      "velocity": 0.63,
      "hand": "right"
    },
    {
      "midi": 64,
      "time": 84.5,
      "duration": 0.167,
      "velocity": 0.63,
      "hand": "right"
    },
    {
      "midi": 64,
      "time": 84.667,
      "duration": 0.167,
      "velocity": 0.63,
      "hand": "right"
    },
    {
      "midi": 62,
      "time": 84.833,
      "duration": 0.167,
      "velocity": 0.63,
      "hand": "right"
    },
    {
      "midi": 40,
      "time": 85,
      "duration": 0.917,
      "velocity": 0.63,
      "hand": "left"
    },
    {
      "midi": 40,
      "time": 86,
      "duration": 0.917,
      "velocity": 0.63,
      "hand": "left"
    },
    {
      "midi": 55,
      "time": 86,
      "duration": 0.167,
      "velocity": 0.63,
      "hand": "left"
    },
    {
      "midi": 64,
      "time": 86,
      "duration": 0.167,
      "velocity": 0.63,
      "hand": "right"
    },
    {
      "midi": 64,
      "time": 86.167,
      "duration": 0.167,
      "velocity": 0.63,
      "hand": "right"
    },
    {
      "midi": 64,
      "time": 86.333,
      "duration": 0.167,
      "velocity": 0.63,
      "hand": "right"
    },
    {
      "midi": 64,
      "time": 86.5,
      "duration": 0.167,
      "velocity": 0.63,
      "hand": "right"
    },
    {
      "midi": 64,
      "time": 86.667,
      "duration": 0.333,
      "velocity": 0.63,
      "hand": "right"
    },
    {
      "midi": 39,
      "time": 87,
      "duration": 1,
      "velocity": 0.63,
      "hand": "left"
    },
    {
      "midi": 39,
      "time": 87,
      "duration": 0.917,
      "velocity": 0.63,
      "hand": "left"
    },
    {
      "midi": 55,
      "time": 87,
      "duration": 0.167,
      "velocity": 0.63,
      "hand": "left"
    },
    {
      "midi": 60,
      "time": 87,
      "duration": 1,
      "velocity": 0.63,
      "hand": "right"
    },
    {
      "midi": 64,
      "time": 87,
      "duration": 0.167,
      "velocity": 0.63,
      "hand": "right"
    },
    {
      "midi": 64,
      "time": 87,
      "duration": 1,
      "velocity": 0.63,
      "hand": "right"
    },
    {
      "midi": 67,
      "time": 87,
      "duration": 1,
      "velocity": 0.63,
      "hand": "right"
    },
    {
      "midi": 64,
      "time": 87.167,
      "duration": 0.167,
      "velocity": 0.63,
      "hand": "right"
    },
    {
      "midi": 64,
      "time": 87.333,
      "duration": 0.167,
      "velocity": 0.63,
      "hand": "right"
    },
    {
      "midi": 64,
      "time": 87.5,
      "duration": 0.167,
      "velocity": 0.63,
      "hand": "right"
    },
    {
      "midi": 64,
      "time": 87.667,
      "duration": 0.333,
      "velocity": 0.63,
      "hand": "right"
    },
    {
      "midi": 38,
      "time": 88,
      "duration": 4,
      "velocity": 0.63,
      "hand": "left"
    },
    {
      "midi": 38,
      "time": 88,
      "duration": 0.917,
      "velocity": 0.63,
      "hand": "left"
    },
    {
      "midi": 60,
      "time": 88,
      "duration": 0.167,
      "velocity": 0.63,
      "hand": "right"
    },
    {
      "midi": 60,
      "time": 88,
      "duration": 4,
      "velocity": 0.63,
      "hand": "right"
    },
    {
      "midi": 62,
      "time": 88,
      "duration": 4,
      "velocity": 0.63,
      "hand": "right"
    },
    {
      "midi": 64,
      "time": 88,
      "duration": 0.167,
      "velocity": 0.63,
      "hand": "right"
    },
    {
      "midi": 65,
      "time": 88,
      "duration": 4,
      "velocity": 0.63,
      "hand": "right"
    },
    {
      "midi": 69,
      "time": 88,
      "duration": 4,
      "velocity": 0.63,
      "hand": "right"
    },
    {
      "midi": 62,
      "time": 88.167,
      "duration": 0.167,
      "velocity": 0.63,
      "hand": "right"
    },
    {
      "midi": 64,
      "time": 88.333,
      "duration": 0.167,
      "velocity": 0.63,
      "hand": "right"
    },
    {
      "midi": 62,
      "time": 88.5,
      "duration": 0.167,
      "velocity": 0.63,
      "hand": "right"
    },
    {
      "midi": 64,
      "time": 88.667,
      "duration": 0.167,
      "velocity": 0.63,
      "hand": "right"
    },
    {
      "midi": 62,
      "time": 88.833,
      "duration": 0.167,
      "velocity": 0.63,
      "hand": "right"
    },
    {
      "midi": 38,
      "time": 89,
      "duration": 0.917,
      "velocity": 0.63,
      "hand": "left"
    },
    {
      "midi": 38,
      "time": 90,
      "duration": 0.917,
      "velocity": 0.63,
      "hand": "left"
    },
    {
      "midi": 60,
      "time": 90,
      "duration": 0.167,
      "velocity": 0.63,
      "hand": "right"
    },
    {
      "midi": 64,
      "time": 90,
      "duration": 0.167,
      "velocity": 0.63,
      "hand": "right"
    },
    {
      "midi": 62,
      "time": 90.167,
      "duration": 0.167,
      "velocity": 0.63,
      "hand": "right"
    },
    {
      "midi": 64,
      "time": 90.333,
      "duration": 0.167,
      "velocity": 0.63,
      "hand": "right"
    },
    {
      "midi": 62,
      "time": 90.5,
      "duration": 0.167,
      "velocity": 0.63,
      "hand": "right"
    },
    {
      "midi": 64,
      "time": 90.667,
      "duration": 0.167,
      "velocity": 0.63,
      "hand": "right"
    },
    {
      "midi": 62,
      "time": 90.833,
      "duration": 0.167,
      "velocity": 0.63,
      "hand": "right"
    },
    {
      "midi": 38,
      "time": 91,
      "duration": 0.917,
      "velocity": 0.63,
      "hand": "left"
    },
    {
      "midi": 36,
      "time": 92,
      "duration": 4,
      "velocity": 0.63,
      "hand": "left"
    },
    {
      "midi": 36,
      "time": 92,
      "duration": 0.917,
      "velocity": 0.63,
      "hand": "left"
    },
    {
      "midi": 59,
      "time": 92,
      "duration": 0.167,
      "velocity": 0.63,
      "hand": "left"
    },
    {
      "midi": 60,
      "time": 92,
      "duration": 4,
      "velocity": 0.63,
      "hand": "right"
    },
    {
      "midi": 64,
      "time": 92,
      "duration": 0.167,
      "velocity": 0.63,
      "hand": "right"
    },
    {
      "midi": 64,
      "time": 92,
      "duration": 4,
      "velocity": 0.63,
      "hand": "right"
    },
    {
      "midi": 67,
      "time": 92,
      "duration": 4,
      "velocity": 0.63,
      "hand": "right"
    },
    {
      "midi": 71,
      "time": 92,
      "duration": 4,
      "velocity": 0.63,
      "hand": "right"
    },
    {
      "midi": 64,
      "time": 92.167,
      "duration": 0.167,
      "velocity": 0.63,
      "hand": "right"
    },
    {
      "midi": 64,
      "time": 92.333,
      "duration": 0.167,
      "velocity": 0.63,
      "hand": "right"
    },
    {
      "midi": 64,
      "time": 92.5,
      "duration": 0.083,
      "velocity": 0.63,
      "hand": "right"
    },
    {
      "midi": 64,
      "time": 92.583,
      "duration": 0.083,
      "velocity": 0.63,
      "hand": "right"
    },
    {
      "midi": 62,
      "time": 92.667,
      "duration": 0.167,
      "velocity": 0.63,
      "hand": "right"
    },
    {
      "midi": 62,
      "time": 92.833,
      "duration": 0.167,
      "velocity": 0.63,
      "hand": "right"
    },
    {
      "midi": 36,
      "time": 93,
      "duration": 0.917,
      "velocity": 0.63,
      "hand": "left"
    },
    {
      "midi": 59,
      "time": 93,
      "duration": 0.167,
      "velocity": 0.63,
      "hand": "left"
    },
    {
      "midi": 64,
      "time": 93,
      "duration": 0.167,
      "velocity": 0.63,
      "hand": "right"
    },
    {
      "midi": 64,
      "time": 93.167,
      "duration": 0.167,
      "velocity": 0.63,
      "hand": "right"
    },
    {
      "midi": 64,
      "time": 93.333,
      "duration": 0.167,
      "velocity": 0.63,
      "hand": "right"
    },
    {
      "midi": 64,
      "time": 93.5,
      "duration": 0.083,
      "velocity": 0.63,
      "hand": "right"
    },
    {
      "midi": 64,
      "time": 93.583,
      "duration": 0.083,
      "velocity": 0.63,
      "hand": "right"
    },
    {
      "midi": 62,
      "time": 93.667,
      "duration": 0.167,
      "velocity": 0.63,
      "hand": "right"
    },
    {
      "midi": 62,
      "time": 93.833,
      "duration": 0.167,
      "velocity": 0.63,
      "hand": "right"
    },
    {
      "midi": 36,
      "time": 94,
      "duration": 0.917,
      "velocity": 0.63,
      "hand": "left"
    },
    {
      "midi": 59,
      "time": 94,
      "duration": 0.167,
      "velocity": 0.63,
      "hand": "left"
    },
    {
      "midi": 64,
      "time": 94,
      "duration": 0.167,
      "velocity": 0.63,
      "hand": "right"
    },
    {
      "midi": 64,
      "time": 94.167,
      "duration": 0.167,
      "velocity": 0.63,
      "hand": "right"
    },
    {
      "midi": 64,
      "time": 94.333,
      "duration": 0.333,
      "velocity": 0.63,
      "hand": "right"
    },
    {
      "midi": 62,
      "time": 94.667,
      "duration": 0.167,
      "velocity": 0.63,
      "hand": "right"
    },
    {
      "midi": 60,
      "time": 94.833,
      "duration": 0.5,
      "velocity": 0.63,
      "hand": "right"
    },
    {
      "midi": 36,
      "time": 95,
      "duration": 0.917,
      "velocity": 0.63,
      "hand": "left"
    },
    {
      "midi": 64,
      "time": 95.333,
      "duration": 0.333,
      "velocity": 0.63,
      "hand": "right"
    },
    {
      "midi": 67,
      "time": 95.667,
      "duration": 0.333,
      "velocity": 0.63,
      "hand": "right"
    },
    {
      "midi": 41,
      "time": 96,
      "duration": 4,
      "velocity": 0.63,
      "hand": "left"
    },
    {
      "midi": 41,
      "time": 96,
      "duration": 0.917,
      "velocity": 0.63,
      "hand": "left"
    },
    {
      "midi": 60,
      "time": 96,
      "duration": 4,
      "velocity": 0.63,
      "hand": "right"
    },
    {
      "midi": 64,
      "time": 96,
      "duration": 0.917,
      "velocity": 0.63,
      "hand": "right"
    },
    {
      "midi": 64,
      "time": 96,
      "duration": 4,
      "velocity": 0.63,
      "hand": "right"
    },
    {
      "midi": 65,
      "time": 96,
      "duration": 4,
      "velocity": 0.63,
      "hand": "right"
    },
    {
      "midi": 69,
      "time": 96,
      "duration": 0.917,
      "velocity": 0.63,
      "hand": "right"
    },
    {
      "midi": 69,
      "time": 96,
      "duration": 4,
      "velocity": 0.63,
      "hand": "right"
    },
    {
      "midi": 48,
      "time": 97,
      "duration": 0.917,
      "velocity": 0.63,
      "hand": "left"
    },
    {
      "midi": 69,
      "time": 97.333,
      "duration": 0.333,
      "velocity": 0.63,
      "hand": "right"
    },
    {
      "midi": 71,
      "time": 97.667,
      "duration": 0.167,
      "velocity": 0.63,
      "hand": "right"
    },
    {
      "midi": 64,
      "time": 97.833,
      "duration": 1.083,
      "velocity": 0.63,
      "hand": "right"
    },
    {
      "midi": 72,
      "time": 97.833,
      "duration": 1.083,
      "velocity": 0.63,
      "hand": "right"
    },
    {
      "midi": 41,
      "time": 98,
      "duration": 0.917,
      "velocity": 0.63,
      "hand": "left"
    },
    {
      "midi": 48,
      "time": 99,
      "duration": 0.917,
      "velocity": 0.63,
      "hand": "left"
    },
    {
      "midi": 69,
      "time": 99.333,
      "duration": 0.333,
      "velocity": 0.63,
      "hand": "right"
    },
    {
      "midi": 72,
      "time": 99.667,
      "duration": 0.333,
      "velocity": 0.63,
      "hand": "right"
    },
    {
      "midi": 40,
      "time": 100,
      "duration": 2,
      "velocity": 0.63,
      "hand": "left"
    },
    {
      "midi": 40,
      "time": 100,
      "duration": 0.917,
      "velocity": 0.63,
      "hand": "left"
    },
    {
      "midi": 64,
      "time": 100,
      "duration": 2,
      "velocity": 0.63,
      "hand": "right"
    },
    {
      "midi": 67,
      "time": 100,
      "duration": 0.333,
      "velocity": 0.63,
      "hand": "right"
    },
    {
      "midi": 67,
      "time": 100,
      "duration": 2,
      "velocity": 0.63,
      "hand": "right"
    },
    {
      "midi": 71,
      "time": 100,
      "duration": 0.333,
      "velocity": 0.63,
      "hand": "right"
    },
    {
      "midi": 71,
      "time": 100,
      "duration": 2,
      "velocity": 0.63,
      "hand": "right"
    },
    {
      "midi": 69,
      "time": 100.333,
      "duration": 0.333,
      "velocity": 0.63,
      "hand": "right"
    },
    {
      "midi": 67,
      "time": 100.667,
      "duration": 0.333,
      "velocity": 0.63,
      "hand": "right"
    },
    {
      "midi": 47,
      "time": 101,
      "duration": 0.917,
      "velocity": 0.63,
      "hand": "left"
    },
    {
      "midi": 67,
      "time": 101,
      "duration": 0.667,
      "velocity": 0.63,
      "hand": "right"
    },
    {
      "midi": 64,
      "time": 101.667,
      "duration": 0.333,
      "velocity": 0.63,
      "hand": "right"
    },
    {
      "midi": 40,
      "time": 102,
      "duration": 1,
      "velocity": 0.63,
      "hand": "left"
    },
    {
      "midi": 40,
      "time": 102,
      "duration": 0.917,
      "velocity": 0.63,
      "hand": "left"
    },
    {
      "midi": 60,
      "time": 102,
      "duration": 1,
      "velocity": 0.63,
      "hand": "right"
    },
    {
      "midi": 64,
      "time": 102,
      "duration": 1,
      "velocity": 0.63,
      "hand": "right"
    },
    {
      "midi": 67,
      "time": 102,
      "duration": 0.333,
      "velocity": 0.63,
      "hand": "right"
    },
    {
      "midi": 67,
      "time": 102,
      "duration": 1,
      "velocity": 0.63,
      "hand": "right"
    },
    {
      "midi": 71,
      "time": 102,
      "duration": 0.333,
      "velocity": 0.63,
      "hand": "right"
    },
    {
      "midi": 69,
      "time": 102.333,
      "duration": 0.333,
      "velocity": 0.63,
      "hand": "right"
    },
    {
      "midi": 67,
      "time": 102.667,
      "duration": 0.333,
      "velocity": 0.63,
      "hand": "right"
    },
    {
      "midi": 39,
      "time": 103,
      "duration": 1,
      "velocity": 0.63,
      "hand": "left"
    },
    {
      "midi": 39,
      "time": 103,
      "duration": 0.917,
      "velocity": 0.63,
      "hand": "left"
    },
    {
      "midi": 60,
      "time": 103,
      "duration": 1,
      "velocity": 0.63,
      "hand": "right"
    },
    {
      "midi": 64,
      "time": 103,
      "duration": 1,
      "velocity": 0.63,
      "hand": "right"
    },
    {
      "midi": 67,
      "time": 103,
      "duration": 0.333,
      "velocity": 0.63,
      "hand": "right"
    },
    {
      "midi": 67,
      "time": 103,
      "duration": 1,
      "velocity": 0.63,
      "hand": "right"
    },
    {
      "midi": 71,
      "time": 103,
      "duration": 0.333,
      "velocity": 0.63,
      "hand": "right"
    },
    {
      "midi": 69,
      "time": 103.333,
      "duration": 0.333,
      "velocity": 0.63,
      "hand": "right"
    },
    {
      "midi": 67,
      "time": 103.667,
      "duration": 0.333,
      "velocity": 0.63,
      "hand": "right"
    },
    {
      "midi": 38,
      "time": 104,
      "duration": 4,
      "velocity": 0.63,
      "hand": "left"
    },
    {
      "midi": 38,
      "time": 104,
      "duration": 0.917,
      "velocity": 0.63,
      "hand": "left"
    },
    {
      "midi": 60,
      "time": 104,
      "duration": 4,
      "velocity": 0.63,
      "hand": "right"
    },
    {
      "midi": 62,
      "time": 104,
      "duration": 4,
      "velocity": 0.63,
      "hand": "right"
    },
    {
      "midi": 65,
      "time": 104,
      "duration": 4,
      "velocity": 0.63,
      "hand": "right"
    },
    {
      "midi": 67,
      "time": 104,
      "duration": 0.167,
      "velocity": 0.63,
      "hand": "right"
    },
    {
      "midi": 69,
      "time": 104,
      "duration": 4,
      "velocity": 0.63,
      "hand": "right"
    },
    {
      "midi": 60,
      "time": 104.167,
      "duration": 1.75,
      "velocity": 0.63,
      "hand": "right"
    },
    {
      "midi": 65,
      "time": 104.167,
      "duration": 1.75,
      "velocity": 0.63,
      "hand": "right"
    },
    {
      "midi": 45,
      "time": 105,
      "duration": 0.917,
      "velocity": 0.63,
      "hand": "left"
    },
    {
      "midi": 38,
      "time": 106,
      "duration": 0.917,
      "velocity": 0.63,
      "hand": "left"
    },
    {
      "midi": 60,
      "time": 106.667,
      "duration": 0.333,
      "velocity": 0.63,
      "hand": "right"
    },
    {
      "midi": 45,
      "time": 107,
      "duration": 0.917,
      "velocity": 0.63,
      "hand": "left"
    },
    {
      "midi": 67,
      "time": 107,
      "duration": 0.333,
      "velocity": 0.63,
      "hand": "right"
    },
    {
      "midi": 65,
      "time": 107.333,
      "duration": 0.333,
      "velocity": 0.63,
      "hand": "right"
    },
    {
      "midi": 64,
      "time": 107.667,
      "duration": 0.167,
      "velocity": 0.63,
      "hand": "right"
    },
    {
      "midi": 59,
      "time": 107.833,
      "duration": 1.083,
      "velocity": 0.63,
      "hand": "left"
    },
    {
      "midi": 64,
      "time": 107.833,
      "duration": 1.083,
      "velocity": 0.63,
      "hand": "right"
    },
    {
      "midi": 36,
      "time": 108,
      "duration": 4,
      "velocity": 0.63,
      "hand": "left"
    },
    {
      "midi": 36,
      "time": 108,
      "duration": 0.917,
      "velocity": 0.63,
      "hand": "left"
    },
    {
      "midi": 60,
      "time": 108,
      "duration": 4,
      "velocity": 0.63,
      "hand": "right"
    },
    {
      "midi": 64,
      "time": 108,
      "duration": 4,
      "velocity": 0.63,
      "hand": "right"
    },
    {
      "midi": 67,
      "time": 108,
      "duration": 4,
      "velocity": 0.63,
      "hand": "right"
    },
    {
      "midi": 71,
      "time": 108,
      "duration": 4,
      "velocity": 0.63,
      "hand": "right"
    },
    {
      "midi": 43,
      "time": 109,
      "duration": 0.917,
      "velocity": 0.63,
      "hand": "left"
    },
    {
      "midi": 36,
      "time": 110,
      "duration": 0.917,
      "velocity": 0.63,
      "hand": "left"
    },
    {
      "midi": 59,
      "time": 110,
      "duration": 0.167,
      "velocity": 0.63,
      "hand": "left"
    },
    {
      "midi": 64,
      "time": 110,
      "duration": 0.167,
      "velocity": 0.63,
      "hand": "right"
    },
    {
      "midi": 64,
      "time": 110.167,
      "duration": 0.167,
      "velocity": 0.63,
      "hand": "right"
    },
    {
      "midi": 64,
      "time": 110.333,
      "duration": 0.333,
      "velocity": 0.63,
      "hand": "right"
    },
    {
      "midi": 62,
      "time": 110.667,
      "duration": 0.167,
      "velocity": 0.63,
      "hand": "right"
    },
    {
      "midi": 60,
      "time": 110.833,
      "duration": 0.5,
      "velocity": 0.63,
      "hand": "right"
    },
    {
      "midi": 43,
      "time": 111,
      "duration": 0.917,
      "velocity": 0.63,
      "hand": "left"
    },
    {
      "midi": 64,
      "time": 111.333,
      "duration": 0.333,
      "velocity": 0.63,
      "hand": "right"
    },
    {
      "midi": 67,
      "time": 111.667,
      "duration": 0.333,
      "velocity": 0.63,
      "hand": "right"
    },
    {
      "midi": 41,
      "time": 112,
      "duration": 4,
      "velocity": 0.63,
      "hand": "left"
    },
    {
      "midi": 41,
      "time": 112,
      "duration": 0.917,
      "velocity": 0.63,
      "hand": "left"
    },
    {
      "midi": 60,
      "time": 112,
      "duration": 4,
      "velocity": 0.63,
      "hand": "right"
    },
    {
      "midi": 64,
      "time": 112,
      "duration": 0.917,
      "velocity": 0.63,
      "hand": "right"
    },
    {
      "midi": 64,
      "time": 112,
      "duration": 4,
      "velocity": 0.63,
      "hand": "right"
    },
    {
      "midi": 65,
      "time": 112,
      "duration": 4,
      "velocity": 0.63,
      "hand": "right"
    },
    {
      "midi": 69,
      "time": 112,
      "duration": 0.917,
      "velocity": 0.63,
      "hand": "right"
    },
    {
      "midi": 69,
      "time": 112,
      "duration": 4,
      "velocity": 0.63,
      "hand": "right"
    },
    {
      "midi": 48,
      "time": 113,
      "duration": 0.917,
      "velocity": 0.63,
      "hand": "left"
    },
    {
      "midi": 69,
      "time": 113.333,
      "duration": 0.333,
      "velocity": 0.63,
      "hand": "right"
    },
    {
      "midi": 71,
      "time": 113.667,
      "duration": 0.167,
      "velocity": 0.63,
      "hand": "right"
    },
    {
      "midi": 64,
      "time": 113.833,
      "duration": 1.083,
      "velocity": 0.63,
      "hand": "right"
    },
    {
      "midi": 72,
      "time": 113.833,
      "duration": 1.083,
      "velocity": 0.63,
      "hand": "right"
    },
    {
      "midi": 41,
      "time": 114,
      "duration": 0.917,
      "velocity": 0.63,
      "hand": "left"
    },
    {
      "midi": 48,
      "time": 115,
      "duration": 0.917,
      "velocity": 0.63,
      "hand": "left"
    },
    {
      "midi": 69,
      "time": 115.333,
      "duration": 0.333,
      "velocity": 0.63,
      "hand": "right"
    },
    {
      "midi": 72,
      "time": 115.667,
      "duration": 0.333,
      "velocity": 0.63,
      "hand": "right"
    },
    {
      "midi": 40,
      "time": 116,
      "duration": 2,
      "velocity": 0.63,
      "hand": "left"
    },
    {
      "midi": 40,
      "time": 116,
      "duration": 0.917,
      "velocity": 0.63,
      "hand": "left"
    },
    {
      "midi": 64,
      "time": 116,
      "duration": 2,
      "velocity": 0.63,
      "hand": "right"
    },
    {
      "midi": 67,
      "time": 116,
      "duration": 0.333,
      "velocity": 0.63,
      "hand": "right"
    },
    {
      "midi": 67,
      "time": 116,
      "duration": 2,
      "velocity": 0.63,
      "hand": "right"
    },
    {
      "midi": 71,
      "time": 116,
      "duration": 0.333,
      "velocity": 0.63,
      "hand": "right"
    },
    {
      "midi": 71,
      "time": 116,
      "duration": 2,
      "velocity": 0.63,
      "hand": "right"
    },
    {
      "midi": 69,
      "time": 116.333,
      "duration": 0.333,
      "velocity": 0.63,
      "hand": "right"
    },
    {
      "midi": 67,
      "time": 116.667,
      "duration": 0.333,
      "velocity": 0.63,
      "hand": "right"
    },
    {
      "midi": 47,
      "time": 117,
      "duration": 0.917,
      "velocity": 0.63,
      "hand": "left"
    },
    {
      "midi": 67,
      "time": 117,
      "duration": 0.667,
      "velocity": 0.63,
      "hand": "right"
    },
    {
      "midi": 64,
      "time": 117.667,
      "duration": 0.333,
      "velocity": 0.63,
      "hand": "right"
    },
    {
      "midi": 40,
      "time": 118,
      "duration": 1,
      "velocity": 0.63,
      "hand": "left"
    },
    {
      "midi": 40,
      "time": 118,
      "duration": 0.917,
      "velocity": 0.63,
      "hand": "left"
    },
    {
      "midi": 60,
      "time": 118,
      "duration": 1,
      "velocity": 0.63,
      "hand": "right"
    },
    {
      "midi": 64,
      "time": 118,
      "duration": 1,
      "velocity": 0.63,
      "hand": "right"
    },
    {
      "midi": 67,
      "time": 118,
      "duration": 0.333,
      "velocity": 0.63,
      "hand": "right"
    },
    {
      "midi": 67,
      "time": 118,
      "duration": 1,
      "velocity": 0.63,
      "hand": "right"
    },
    {
      "midi": 71,
      "time": 118,
      "duration": 0.333,
      "velocity": 0.63,
      "hand": "right"
    },
    {
      "midi": 69,
      "time": 118.333,
      "duration": 0.333,
      "velocity": 0.63,
      "hand": "right"
    },
    {
      "midi": 67,
      "time": 118.667,
      "duration": 0.333,
      "velocity": 0.63,
      "hand": "right"
    },
    {
      "midi": 39,
      "time": 119,
      "duration": 1,
      "velocity": 0.63,
      "hand": "left"
    },
    {
      "midi": 39,
      "time": 119,
      "duration": 0.917,
      "velocity": 0.63,
      "hand": "left"
    },
    {
      "midi": 60,
      "time": 119,
      "duration": 1,
      "velocity": 0.63,
      "hand": "right"
    },
    {
      "midi": 64,
      "time": 119,
      "duration": 1,
      "velocity": 0.63,
      "hand": "right"
    },
    {
      "midi": 67,
      "time": 119,
      "duration": 0.333,
      "velocity": 0.63,
      "hand": "right"
    },
    {
      "midi": 67,
      "time": 119,
      "duration": 1,
      "velocity": 0.63,
      "hand": "right"
    },
    {
      "midi": 71,
      "time": 119,
      "duration": 0.333,
      "velocity": 0.63,
      "hand": "right"
    },
    {
      "midi": 69,
      "time": 119.333,
      "duration": 0.333,
      "velocity": 0.63,
      "hand": "right"
    },
    {
      "midi": 67,
      "time": 119.667,
      "duration": 0.333,
      "velocity": 0.63,
      "hand": "right"
    },
    {
      "midi": 38,
      "time": 120,
      "duration": 4,
      "velocity": 0.63,
      "hand": "left"
    },
    {
      "midi": 38,
      "time": 120,
      "duration": 0.917,
      "velocity": 0.63,
      "hand": "left"
    },
    {
      "midi": 60,
      "time": 120,
      "duration": 4,
      "velocity": 0.63,
      "hand": "right"
    },
    {
      "midi": 62,
      "time": 120,
      "duration": 4,
      "velocity": 0.63,
      "hand": "right"
    },
    {
      "midi": 65,
      "time": 120,
      "duration": 4,
      "velocity": 0.63,
      "hand": "right"
    },
    {
      "midi": 67,
      "time": 120,
      "duration": 0.167,
      "velocity": 0.63,
      "hand": "right"
    },
    {
      "midi": 69,
      "time": 120,
      "duration": 4,
      "velocity": 0.63,
      "hand": "right"
    },
    {
      "midi": 60,
      "time": 120.167,
      "duration": 1.75,
      "velocity": 0.63,
      "hand": "right"
    },
    {
      "midi": 65,
      "time": 120.167,
      "duration": 1.75,
      "velocity": 0.63,
      "hand": "right"
    },
    {
      "midi": 45,
      "time": 121,
      "duration": 0.917,
      "velocity": 0.63,
      "hand": "left"
    },
    {
      "midi": 38,
      "time": 122,
      "duration": 0.917,
      "velocity": 0.63,
      "hand": "left"
    },
    {
      "midi": 60,
      "time": 122.667,
      "duration": 0.333,
      "velocity": 0.63,
      "hand": "right"
    },
    {
      "midi": 45,
      "time": 123,
      "duration": 0.917,
      "velocity": 0.63,
      "hand": "left"
    },
    {
      "midi": 67,
      "time": 123,
      "duration": 0.333,
      "velocity": 0.63,
      "hand": "right"
    },
    {
      "midi": 65,
      "time": 123.333,
      "duration": 0.333,
      "velocity": 0.63,
      "hand": "right"
    },
    {
      "midi": 64,
      "time": 123.667,
      "duration": 0.333,
      "velocity": 0.63,
      "hand": "right"
    },
    {
      "midi": 40,
      "time": 124,
      "duration": 4,
      "velocity": 0.63,
      "hand": "left"
    },
    {
      "midi": 40,
      "time": 124,
      "duration": 0.333,
      "velocity": 0.63,
      "hand": "left"
    },
    {
      "midi": 56,
      "time": 124,
      "duration": 0.917,
      "velocity": 0.63,
      "hand": "left"
    },
    {
      "midi": 64,
      "time": 124,
      "duration": 0.917,
      "velocity": 0.63,
      "hand": "right"
    },
    {
      "midi": 64,
      "time": 124,
      "duration": 4,
      "velocity": 0.63,
      "hand": "right"
    },
    {
      "midi": 68,
      "time": 124,
      "duration": 4,
      "velocity": 0.63,
      "hand": "right"
    },
    {
      "midi": 71,
      "time": 124,
      "duration": 4,
      "velocity": 0.63,
      "hand": "right"
    },
    {
      "midi": 40,
      "time": 124.333,
      "duration": 0.333,
      "velocity": 0.63,
      "hand": "left"
    },
    {
      "midi": 40,
      "time": 124.667,
      "duration": 0.333,
      "velocity": 0.63,
      "hand": "left"
    },
    {
      "midi": 40,
      "time": 125,
      "duration": 0.333,
      "velocity": 0.63,
      "hand": "left"
    },
    {
      "midi": 69,
      "time": 125,
      "duration": 0.917,
      "velocity": 0.63,
      "hand": "right"
    },
    {
      "midi": 40,
      "time": 125.333,
      "duration": 0.333,
      "velocity": 0.63,
      "hand": "left"
    },
    {
      "midi": 40,
      "time": 125.667,
      "duration": 0.333,
      "velocity": 0.63,
      "hand": "left"
    },
    {
      "midi": 40,
      "time": 126,
      "duration": 0.333,
      "velocity": 0.63,
      "hand": "left"
    },
    {
      "midi": 72,
      "time": 126,
      "duration": 0.917,
      "velocity": 0.63,
      "hand": "right"
    },
    {
      "midi": 40,
      "time": 126.333,
      "duration": 0.333,
      "velocity": 0.63,
      "hand": "left"
    },
    {
      "midi": 40,
      "time": 126.667,
      "duration": 0.333,
      "velocity": 0.63,
      "hand": "left"
    },
    {
      "midi": 74,
      "time": 127,
      "duration": 0.333,
      "velocity": 0.63,
      "hand": "right"
    },
    {
      "midi": 41,
      "time": 128,
      "duration": 6,
      "velocity": 0.63,
      "hand": "left"
    },
    {
      "midi": 41,
      "time": 128,
      "duration": 0.917,
      "velocity": 0.63,
      "hand": "left"
    },
    {
      "midi": 60,
      "time": 128,
      "duration": 6,
      "velocity": 0.63,
      "hand": "right"
    },
    {
      "midi": 64,
      "time": 128,
      "duration": 6,
      "velocity": 0.63,
      "hand": "right"
    },
    {
      "midi": 65,
      "time": 128,
      "duration": 6,
      "velocity": 0.63,
      "hand": "right"
    },
    {
      "midi": 69,
      "time": 128,
      "duration": 3.833,
      "velocity": 0.63,
      "hand": "right"
    },
    {
      "midi": 69,
      "time": 128,
      "duration": 6,
      "velocity": 0.63,
      "hand": "right"
    },
    {
      "midi": 76,
      "time": 128,
      "duration": 3.833,
      "velocity": 0.63,
      "hand": "right"
    },
    {
      "midi": 48,
      "time": 129,
      "duration": 0.917,
      "velocity": 0.63,
      "hand": "left"
    },
    {
      "midi": 52,
      "time": 130,
      "duration": 0.917,
      "velocity": 0.63,
      "hand": "left"
    },
    {
      "midi": 53,
      "time": 130,
      "duration": 0.917,
      "velocity": 0.63,
      "hand": "left"
    },
    {
      "midi": 57,
      "time": 130,
      "duration": 0.917,
      "velocity": 0.63,
      "hand": "left"
    },
    {
      "midi": 60,
      "time": 131,
      "duration": 0.917,
      "velocity": 0.63,
      "hand": "right"
    },
    {
      "midi": 41,
      "time": 132,
      "duration": 0.917,
      "velocity": 0.63,
      "hand": "left"
    },
    {
      "midi": 69,
      "time": 132,
      "duration": 0.917,
      "velocity": 0.63,
      "hand": "right"
    },
    {
      "midi": 48,
      "time": 133,
      "duration": 0.917,
      "velocity": 0.63,
      "hand": "left"
    },
    {
      "midi": 71,
      "time": 133,
      "duration": 0.917,
      "velocity": 0.63,
      "hand": "right"
    },
    {
      "midi": 41,
      "time": 134,
      "duration": 2,
      "velocity": 0.63,
      "hand": "left"
    },
    {
      "midi": 53,
      "time": 134,
      "duration": 0.917,
      "velocity": 0.63,
      "hand": "left"
    },
    {
      "midi": 56,
      "time": 134,
      "duration": 0.917,
      "velocity": 0.63,
      "hand": "left"
    },
    {
      "midi": 60,
      "time": 134,
      "duration": 2,
      "velocity": 0.63,
      "hand": "right"
    },
    {
      "midi": 60,
      "time": 134,
      "duration": 0.917,
      "velocity": 0.63,
      "hand": "right"
    },
    {
      "midi": 65,
      "time": 134,
      "duration": 2,
      "velocity": 0.63,
      "hand": "right"
    },
    {
      "midi": 68,
      "time": 134,
      "duration": 2,
      "velocity": 0.63,
      "hand": "right"
    },
    {
      "midi": 79,
      "time": 134,
      "duration": 0.917,
      "velocity": 0.63,
      "hand": "right"
    },
    {
      "midi": 62,
      "time": 135,
      "duration": 0.917,
      "velocity": 0.63,
      "hand": "right"
    },
    {
      "midi": 77,
      "time": 135,
      "duration": 0.917,
      "velocity": 0.63,
      "hand": "right"
    },
    {
      "midi": 36,
      "time": 136,
      "duration": 6,
      "velocity": 0.63,
      "hand": "left"
    },
    {
      "midi": 36,
      "time": 136,
      "duration": 0.917,
      "velocity": 0.63,
      "hand": "left"
    },
    {
      "midi": 60,
      "time": 136,
      "duration": 6,
      "velocity": 0.63,
      "hand": "right"
    },
    {
      "midi": 64,
      "time": 136,
      "duration": 6,
      "velocity": 0.63,
      "hand": "right"
    },
    {
      "midi": 67,
      "time": 136,
      "duration": 6,
      "velocity": 0.63,
      "hand": "right"
    },
    {
      "midi": 71,
      "time": 136,
      "duration": 2.333,
      "velocity": 0.63,
      "hand": "right"
    },
    {
      "midi": 71,
      "time": 136,
      "duration": 6,
      "velocity": 0.63,
      "hand": "right"
    },
    {
      "midi": 76,
      "time": 136,
      "duration": 2.333,
      "velocity": 0.63,
      "hand": "right"
    },
    {
      "midi": 43,
      "time": 137,
      "duration": 0.917,
      "velocity": 0.63,
      "hand": "left"
    },
    {
      "midi": 48,
      "time": 138,
      "duration": 0.917,
      "velocity": 0.63,
      "hand": "left"
    },
    {
      "midi": 52,
      "time": 138,
      "duration": 0.917,
      "velocity": 0.63,
      "hand": "left"
    },
    {
      "midi": 55,
      "time": 138,
      "duration": 0.917,
      "velocity": 0.63,
      "hand": "left"
    },
    {
      "midi": 74,
      "time": 138.333,
      "duration": 0.667,
      "velocity": 0.63,
      "hand": "right"
    },
    {
      "midi": 59,
      "time": 139,
      "duration": 0.917,
      "velocity": 0.63,
      "hand": "left"
    },
    {
      "midi": 69,
      "time": 139.333,
      "duration": 0.333,
      "velocity": 0.63,
      "hand": "right"
    },
    {
      "midi": 72,
      "time": 139.667,
      "duration": 0.333,
      "velocity": 0.63,
      "hand": "right"
    },
    {
      "midi": 36,
      "time": 140,
      "duration": 0.917,
      "velocity": 0.63,
      "hand": "left"
    },
    {
      "midi": 64,
      "time": 140,
      "duration": 0.917,
      "velocity": 0.63,
      "hand": "right"
    },
    {
      "midi": 71,
      "time": 140,
      "duration": 0.917,
      "velocity": 0.63,
      "hand": "right"
    },
    {
      "midi": 43,
      "time": 141,
      "duration": 0.917,
      "velocity": 0.63,
      "hand": "left"
    },
    {
      "midi": 71,
      "time": 141,
      "duration": 0.917,
      "velocity": 0.63,
      "hand": "right"
    },
    {
      "midi": 38,
      "time": 142,
      "duration": 1,
      "velocity": 0.63,
      "hand": "left"
    },
    {
      "midi": 38,
      "time": 142,
      "duration": 0.917,
      "velocity": 0.63,
      "hand": "left"
    },
    {
      "midi": 60,
      "time": 142,
      "duration": 1,
      "velocity": 0.63,
      "hand": "right"
    },
    {
      "midi": 64,
      "time": 142,
      "duration": 1,
      "velocity": 0.63,
      "hand": "right"
    },
    {
      "midi": 69,
      "time": 142,
      "duration": 0.917,
      "velocity": 0.63,
      "hand": "right"
    },
    {
      "midi": 69,
      "time": 142,
      "duration": 1,
      "velocity": 0.63,
      "hand": "right"
    },
    {
      "midi": 72,
      "time": 142,
      "duration": 0.917,
      "velocity": 0.63,
      "hand": "right"
    },
    {
      "midi": 40,
      "time": 143,
      "duration": 1,
      "velocity": 0.63,
      "hand": "left"
    },
    {
      "midi": 40,
      "time": 143,
      "duration": 0.917,
      "velocity": 0.63,
      "hand": "left"
    },
    {
      "midi": 62,
      "time": 143,
      "duration": 1,
      "velocity": 0.63,
      "hand": "right"
    },
    {
      "midi": 64,
      "time": 143,
      "duration": 1,
      "velocity": 0.63,
      "hand": "right"
    },
    {
      "midi": 68,
      "time": 143,
      "duration": 0.917,
      "velocity": 0.63,
      "hand": "right"
    },
    {
      "midi": 68,
      "time": 143,
      "duration": 1,
      "velocity": 0.63,
      "hand": "right"
    },
    {
      "midi": 71,
      "time": 143,
      "duration": 1,
      "velocity": 0.63,
      "hand": "right"
    },
    {
      "midi": 74,
      "time": 143,
      "duration": 0.917,
      "velocity": 0.63,
      "hand": "right"
    },
    {
      "midi": 41,
      "time": 144,
      "duration": 6,
      "velocity": 0.63,
      "hand": "left"
    },
    {
      "midi": 41,
      "time": 144,
      "duration": 0.917,
      "velocity": 0.63,
      "hand": "left"
    },
    {
      "midi": 60,
      "time": 144,
      "duration": 6,
      "velocity": 0.63,
      "hand": "right"
    },
    {
      "midi": 64,
      "time": 144,
      "duration": 6,
      "velocity": 0.63,
      "hand": "right"
    },
    {
      "midi": 65,
      "time": 144,
      "duration": 6,
      "velocity": 0.63,
      "hand": "right"
    },
    {
      "midi": 69,
      "time": 144,
      "duration": 3.833,
      "velocity": 0.63,
      "hand": "right"
    },
    {
      "midi": 69,
      "time": 144,
      "duration": 6,
      "velocity": 0.63,
      "hand": "right"
    },
    {
      "midi": 76,
      "time": 144,
      "duration": 3.833,
      "velocity": 0.63,
      "hand": "right"
    },
    {
      "midi": 48,
      "time": 145,
      "duration": 0.917,
      "velocity": 0.63,
      "hand": "left"
    },
    {
      "midi": 52,
      "time": 146,
      "duration": 0.917,
      "velocity": 0.63,
      "hand": "left"
    },
    {
      "midi": 53,
      "time": 146,
      "duration": 0.917,
      "velocity": 0.63,
      "hand": "left"
    },
    {
      "midi": 57,
      "time": 146,
      "duration": 0.917,
      "velocity": 0.63,
      "hand": "left"
    },
    {
      "midi": 60,
      "time": 147,
      "duration": 0.917,
      "velocity": 0.63,
      "hand": "right"
    },
    {
      "midi": 41,
      "time": 148,
      "duration": 0.917,
      "velocity": 0.63,
      "hand": "left"
    },
    {
      "midi": 69,
      "time": 148,
      "duration": 0.917,
      "velocity": 0.63,
      "hand": "right"
    },
    {
      "midi": 48,
      "time": 149,
      "duration": 0.917,
      "velocity": 0.63,
      "hand": "left"
    },
    {
      "midi": 71,
      "time": 149,
      "duration": 0.917,
      "velocity": 0.63,
      "hand": "right"
    },
    {
      "midi": 41,
      "time": 150,
      "duration": 2,
      "velocity": 0.63,
      "hand": "left"
    },
    {
      "midi": 53,
      "time": 150,
      "duration": 0.917,
      "velocity": 0.63,
      "hand": "left"
    },
    {
      "midi": 56,
      "time": 150,
      "duration": 0.917,
      "velocity": 0.63,
      "hand": "left"
    },
    {
      "midi": 60,
      "time": 150,
      "duration": 2,
      "velocity": 0.63,
      "hand": "right"
    },
    {
      "midi": 60,
      "time": 150,
      "duration": 0.917,
      "velocity": 0.63,
      "hand": "right"
    },
    {
      "midi": 65,
      "time": 150,
      "duration": 2,
      "velocity": 0.63,
      "hand": "right"
    },
    {
      "midi": 68,
      "time": 150,
      "duration": 2,
      "velocity": 0.63,
      "hand": "right"
    },
    {
      "midi": 79,
      "time": 150,
      "duration": 0.917,
      "velocity": 0.63,
      "hand": "right"
    },
    {
      "midi": 62,
      "time": 151,
      "duration": 0.917,
      "velocity": 0.63,
      "hand": "right"
    },
    {
      "midi": 77,
      "time": 151,
      "duration": 0.917,
      "velocity": 0.63,
      "hand": "right"
    },
    {
      "midi": 36,
      "time": 152,
      "duration": 6,
      "velocity": 0.63,
      "hand": "left"
    },
    {
      "midi": 36,
      "time": 152,
      "duration": 0.917,
      "velocity": 0.63,
      "hand": "left"
    },
    {
      "midi": 60,
      "time": 152,
      "duration": 6,
      "velocity": 0.63,
      "hand": "right"
    },
    {
      "midi": 64,
      "time": 152,
      "duration": 6,
      "velocity": 0.63,
      "hand": "right"
    },
    {
      "midi": 67,
      "time": 152,
      "duration": 6,
      "velocity": 0.63,
      "hand": "right"
    },
    {
      "midi": 71,
      "time": 152,
      "duration": 2.833,
      "velocity": 0.63,
      "hand": "right"
    },
    {
      "midi": 71,
      "time": 152,
      "duration": 6,
      "velocity": 0.63,
      "hand": "right"
    },
    {
      "midi": 76,
      "time": 152,
      "duration": 2.833,
      "velocity": 0.63,
      "hand": "right"
    },
    {
      "midi": 43,
      "time": 153,
      "duration": 0.917,
      "velocity": 0.63,
      "hand": "left"
    },
    {
      "midi": 48,
      "time": 154,
      "duration": 0.917,
      "velocity": 0.63,
      "hand": "left"
    },
    {
      "midi": 52,
      "time": 154,
      "duration": 0.917,
      "velocity": 0.63,
      "hand": "left"
    },
    {
      "midi": 55,
      "time": 154,
      "duration": 0.917,
      "velocity": 0.63,
      "hand": "left"
    },
    {
      "midi": 59,
      "time": 155,
      "duration": 0.917,
      "velocity": 0.63,
      "hand": "left"
    },
    {
      "midi": 69,
      "time": 155.333,
      "duration": 0.333,
      "velocity": 0.63,
      "hand": "right"
    },
    {
      "midi": 72,
      "time": 155.667,
      "duration": 0.333,
      "velocity": 0.63,
      "hand": "right"
    },
    {
      "midi": 36,
      "time": 156,
      "duration": 0.917,
      "velocity": 0.63,
      "hand": "left"
    },
    {
      "midi": 64,
      "time": 156,
      "duration": 2,
      "velocity": 0.63,
      "hand": "right"
    },
    {
      "midi": 71,
      "time": 156,
      "duration": 2,
      "velocity": 0.63,
      "hand": "right"
    },
    {
      "midi": 43,
      "time": 157,
      "duration": 0.917,
      "velocity": 0.63,
      "hand": "left"
    },
    {
      "midi": 38,
      "time": 158,
      "duration": 1,
      "velocity": 0.63,
      "hand": "left"
    },
    {
      "midi": 38,
      "time": 158,
      "duration": 0.917,
      "velocity": 0.63,
      "hand": "left"
    },
    {
      "midi": 60,
      "time": 158,
      "duration": 1,
      "velocity": 0.63,
      "hand": "right"
    },
    {
      "midi": 64,
      "time": 158,
      "duration": 0.917,
      "velocity": 0.63,
      "hand": "right"
    },
    {
      "midi": 64,
      "time": 158,
      "duration": 1,
      "velocity": 0.63,
      "hand": "right"
    },
    {
      "midi": 67,
      "time": 158,
      "duration": 1,
      "velocity": 0.63,
      "hand": "right"
    },
    {
      "midi": 70,
      "time": 158,
      "duration": 0.917,
      "velocity": 0.63,
      "hand": "right"
    },
    {
      "midi": 70,
      "time": 158,
      "duration": 1,
      "velocity": 0.63,
      "hand": "right"
    },
    {
      "midi": 40,
      "time": 159,
      "duration": 1,
      "velocity": 0.63,
      "hand": "left"
    },
    {
      "midi": 40,
      "time": 159,
      "duration": 0.917,
      "velocity": 0.63,
      "hand": "left"
    },
    {
      "midi": 60,
      "time": 159,
      "duration": 1,
      "velocity": 0.63,
      "hand": "right"
    },
    {
      "midi": 64,
      "time": 159,
      "duration": 1,
      "velocity": 0.63,
      "hand": "right"
    },
    {
      "midi": 67,
      "time": 159,
      "duration": 1,
      "velocity": 0.63,
      "hand": "right"
    },
    {
      "midi": 70,
      "time": 159,
      "duration": 0.917,
      "velocity": 0.63,
      "hand": "right"
    },
    {
      "midi": 70,
      "time": 159,
      "duration": 1,
      "velocity": 0.63,
      "hand": "right"
    },
    {
      "midi": 41,
      "time": 160,
      "duration": 5,
      "velocity": 0.63,
      "hand": "left"
    },
    {
      "midi": 41,
      "time": 160,
      "duration": 0.667,
      "velocity": 0.63,
      "hand": "left"
    },
    {
      "midi": 60,
      "time": 160,
      "duration": 5,
      "velocity": 0.63,
      "hand": "right"
    },
    {
      "midi": 64,
      "time": 160,
      "duration": 5,
      "velocity": 0.63,
      "hand": "right"
    },
    {
      "midi": 65,
      "time": 160,
      "duration": 5,
      "velocity": 0.63,
      "hand": "right"
    },
    {
      "midi": 69,
      "time": 160,
      "duration": 3.833,
      "velocity": 0.63,
      "hand": "right"
    },
    {
      "midi": 69,
      "time": 160,
      "duration": 5,
      "velocity": 0.63,
      "hand": "right"
    },
    {
      "midi": 76,
      "time": 160,
      "duration": 3.833,
      "velocity": 0.63,
      "hand": "right"
    },
    {
      "midi": 55,
      "time": 160.667,
      "duration": 0.333,
      "velocity": 0.63,
      "hand": "left"
    },
    {
      "midi": 53,
      "time": 161,
      "duration": 0.667,
      "velocity": 0.63,
      "hand": "left"
    },
    {
      "midi": 55,
      "time": 161.667,
      "duration": 0.333,
      "velocity": 0.63,
      "hand": "left"
    },
    {
      "midi": 53,
      "time": 162,
      "duration": 0.667,
      "velocity": 0.63,
      "hand": "left"
    },
    {
      "midi": 55,
      "time": 162.667,
      "duration": 0.333,
      "velocity": 0.63,
      "hand": "left"
    },
    {
      "midi": 53,
      "time": 163,
      "duration": 0.667,
      "velocity": 0.63,
      "hand": "left"
    },
    {
      "midi": 55,
      "time": 163.667,
      "duration": 0.333,
      "velocity": 0.63,
      "hand": "left"
    },
    {
      "midi": 53,
      "time": 164,
      "duration": 0.917,
      "velocity": 0.63,
      "hand": "left"
    },
    {
      "midi": 69,
      "time": 164,
      "duration": 0.917,
      "velocity": 0.63,
      "hand": "right"
    },
    {
      "midi": 36,
      "time": 165,
      "duration": 1,
      "velocity": 0.63,
      "hand": "left"
    },
    {
      "midi": 48,
      "time": 165,
      "duration": 0.917,
      "velocity": 0.63,
      "hand": "left"
    },
    {
      "midi": 55,
      "time": 165,
      "duration": 0.917,
      "velocity": 0.63,
      "hand": "left"
    },
    {
      "midi": 60,
      "time": 165,
      "duration": 1,
      "velocity": 0.63,
      "hand": "right"
    },
    {
      "midi": 64,
      "time": 165,
      "duration": 1,
      "velocity": 0.63,
      "hand": "right"
    },
    {
      "midi": 67,
      "time": 165,
      "duration": 1,
      "velocity": 0.63,
      "hand": "right"
    },
    {
      "midi": 71,
      "time": 165,
      "duration": 0.917,
      "velocity": 0.63,
      "hand": "right"
    },
    {
      "midi": 71,
      "time": 165,
      "duration": 1,
      "velocity": 0.63,
      "hand": "right"
    },
    {
      "midi": 41,
      "time": 166,
      "duration": 2,
      "velocity": 0.63,
      "hand": "left"
    },
    {
      "midi": 53,
      "time": 166,
      "duration": 0.917,
      "velocity": 0.63,
      "hand": "left"
    },
    {
      "midi": 56,
      "time": 166,
      "duration": 0.917,
      "velocity": 0.63,
      "hand": "left"
    },
    {
      "midi": 60,
      "time": 166,
      "duration": 2,
      "velocity": 0.63,
      "hand": "right"
    },
    {
      "midi": 65,
      "time": 166,
      "duration": 2,
      "velocity": 0.63,
      "hand": "right"
    },
    {
      "midi": 68,
      "time": 166,
      "duration": 2,
      "velocity": 0.63,
      "hand": "right"
    },
    {
      "midi": 79,
      "time": 166,
      "duration": 0.917,
      "velocity": 0.63,
      "hand": "right"
    },
    {
      "midi": 60,
      "time": 167,
      "duration": 0.917,
      "velocity": 0.63,
      "hand": "right"
    },
    {
      "midi": 77,
      "time": 167,
      "duration": 0.917,
      "velocity": 0.63,
      "hand": "right"
    },
    {
      "midi": 36,
      "time": 168,
      "duration": 6,
      "velocity": 0.63,
      "hand": "left"
    },
    {
      "midi": 48,
      "time": 168,
      "duration": 0.917,
      "velocity": 0.63,
      "hand": "left"
    },
    {
      "midi": 60,
      "time": 168,
      "duration": 6,
      "velocity": 0.63,
      "hand": "right"
    },
    {
      "midi": 64,
      "time": 168,
      "duration": 6,
      "velocity": 0.63,
      "hand": "right"
    },
    {
      "midi": 67,
      "time": 168,
      "duration": 6,
      "velocity": 0.63,
      "hand": "right"
    },
    {
      "midi": 71,
      "time": 168,
      "duration": 2.833,
      "velocity": 0.63,
      "hand": "right"
    },
    {
      "midi": 71,
      "time": 168,
      "duration": 6,
      "velocity": 0.63,
      "hand": "right"
    },
    {
      "midi": 76,
      "time": 168,
      "duration": 2.833,
      "velocity": 0.63,
      "hand": "right"
    },
    {
      "midi": 48,
      "time": 169,
      "duration": 0.917,
      "velocity": 0.63,
      "hand": "left"
    },
    {
      "midi": 48,
      "time": 170,
      "duration": 0.917,
      "velocity": 0.63,
      "hand": "left"
    },
    {
      "midi": 48,
      "time": 171,
      "duration": 0.917,
      "velocity": 0.63,
      "hand": "left"
    },
    {
      "midi": 71,
      "time": 171,
      "duration": 0.167,
      "velocity": 0.63,
      "hand": "right"
    },
    {
      "midi": 72,
      "time": 171.167,
      "duration": 0.167,
      "velocity": 0.63,
      "hand": "right"
    },
    {
      "midi": 74,
      "time": 171.333,
      "duration": 0.167,
      "velocity": 0.63,
      "hand": "right"
    },
    {
      "midi": 76,
      "time": 171.5,
      "duration": 0.167,
      "velocity": 0.63,
      "hand": "right"
    },
    {
      "midi": 74,
      "time": 171.667,
      "duration": 0.167,
      "velocity": 0.63,
      "hand": "right"
    },
    {
      "midi": 72,
      "time": 171.833,
      "duration": 0.167,
      "velocity": 0.63,
      "hand": "right"
    },
    {
      "midi": 36,
      "time": 172,
      "duration": 0.917,
      "velocity": 0.63,
      "hand": "left"
    },
    {
      "midi": 71,
      "time": 172,
      "duration": 0.167,
      "velocity": 0.63,
      "hand": "right"
    },
    {
      "midi": 72,
      "time": 172.167,
      "duration": 0.167,
      "velocity": 0.63,
      "hand": "right"
    },
    {
      "midi": 74,
      "time": 172.333,
      "duration": 0.167,
      "velocity": 0.63,
      "hand": "right"
    },
    {
      "midi": 76,
      "time": 172.5,
      "duration": 0.167,
      "velocity": 0.63,
      "hand": "right"
    },
    {
      "midi": 74,
      "time": 172.667,
      "duration": 0.167,
      "velocity": 0.63,
      "hand": "right"
    },
    {
      "midi": 72,
      "time": 172.833,
      "duration": 0.167,
      "velocity": 0.63,
      "hand": "right"
    },
    {
      "midi": 36,
      "time": 173,
      "duration": 0.917,
      "velocity": 0.63,
      "hand": "left"
    },
    {
      "midi": 64,
      "time": 173,
      "duration": 0.917,
      "velocity": 0.63,
      "hand": "right"
    },
    {
      "midi": 71,
      "time": 173,
      "duration": 0.917,
      "velocity": 0.63,
      "hand": "right"
    },
    {
      "midi": 36,
      "time": 174,
      "duration": 2,
      "velocity": 0.63,
      "hand": "left"
    },
    {
      "midi": 46,
      "time": 174,
      "duration": 0.917,
      "velocity": 0.63,
      "hand": "left"
    },
    {
      "midi": 60,
      "time": 174,
      "duration": 2,
      "velocity": 0.63,
      "hand": "right"
    },
    {
      "midi": 64,
      "time": 174,
      "duration": 0.917,
      "velocity": 0.63,
      "hand": "right"
    },
    {
      "midi": 64,
      "time": 174,
      "duration": 2,
      "velocity": 0.63,
      "hand": "right"
    },
    {
      "midi": 67,
      "time": 174,
      "duration": 2,
      "velocity": 0.63,
      "hand": "right"
    },
    {
      "midi": 70,
      "time": 174,
      "duration": 2,
      "velocity": 0.63,
      "hand": "right"
    },
    {
      "midi": 72,
      "time": 174,
      "duration": 0.917,
      "velocity": 0.63,
      "hand": "right"
    },
    {
      "midi": 36,
      "time": 175,
      "duration": 0.917,
      "velocity": 0.63,
      "hand": "left"
    },
    {
      "midi": 74,
      "time": 175,
      "duration": 0.917,
      "velocity": 0.63,
      "hand": "right"
    },
    {
      "midi": 41,
      "time": 176,
      "duration": 6,
      "velocity": 0.63,
      "hand": "left"
    },
    {
      "midi": 41,
      "time": 176,
      "duration": 0.917,
      "velocity": 0.63,
      "hand": "left"
    },
    {
      "midi": 60,
      "time": 176,
      "duration": 6,
      "velocity": 0.63,
      "hand": "right"
    },
    {
      "midi": 64,
      "time": 176,
      "duration": 6,
      "velocity": 0.63,
      "hand": "right"
    },
    {
      "midi": 65,
      "time": 176,
      "duration": 6,
      "velocity": 0.63,
      "hand": "right"
    },
    {
      "midi": 69,
      "time": 176,
      "duration": 2.833,
      "velocity": 0.63,
      "hand": "right"
    },
    {
      "midi": 69,
      "time": 176,
      "duration": 6,
      "velocity": 0.63,
      "hand": "right"
    },
    {
      "midi": 76,
      "time": 176,
      "duration": 2.833,
      "velocity": 0.63,
      "hand": "right"
    },
    {
      "midi": 48,
      "time": 177,
      "duration": 0.917,
      "velocity": 0.63,
      "hand": "left"
    },
    {
      "midi": 52,
      "time": 178,
      "duration": 0.917,
      "velocity": 0.63,
      "hand": "left"
    },
    {
      "midi": 53,
      "time": 178,
      "duration": 0.917,
      "velocity": 0.63,
      "hand": "left"
    },
    {
      "midi": 57,
      "time": 178,
      "duration": 0.917,
      "velocity": 0.63,
      "hand": "left"
    },
    {
      "midi": 60,
      "time": 179,
      "duration": 0.917,
      "velocity": 0.63,
      "hand": "right"
    },
    {
      "midi": 74,
      "time": 179,
      "duration": 0.167,
      "velocity": 0.63,
      "hand": "right"
    },
    {
      "midi": 76,
      "time": 179.167,
      "duration": 0.167,
      "velocity": 0.63,
      "hand": "right"
    },
    {
      "midi": 79,
      "time": 179.333,
      "duration": 0.167,
      "velocity": 0.63,
      "hand": "right"
    },
    {
      "midi": 81,
      "time": 179.5,
      "duration": 0.167,
      "velocity": 0.63,
      "hand": "right"
    },
    {
      "midi": 79,
      "time": 179.667,
      "duration": 0.167,
      "velocity": 0.63,
      "hand": "right"
    },
    {
      "midi": 76,
      "time": 179.833,
      "duration": 0.167,
      "velocity": 0.63,
      "hand": "right"
    },
    {
      "midi": 41,
      "time": 180,
      "duration": 0.917,
      "velocity": 0.63,
      "hand": "left"
    },
    {
      "midi": 69,
      "time": 180,
      "duration": 0.917,
      "velocity": 0.63,
      "hand": "right"
    },
    {
      "midi": 48,
      "time": 181,
      "duration": 0.917,
      "velocity": 0.63,
      "hand": "left"
    },
    {
      "midi": 71,
      "time": 181,
      "duration": 0.917,
      "velocity": 0.63,
      "hand": "right"
    },
    {
      "midi": 41,
      "time": 182,
      "duration": 2,
      "velocity": 0.63,
      "hand": "left"
    },
    {
      "midi": 53,
      "time": 182,
      "duration": 0.917,
      "velocity": 0.63,
      "hand": "left"
    },
    {
      "midi": 56,
      "time": 182,
      "duration": 0.917,
      "velocity": 0.63,
      "hand": "left"
    },
    {
      "midi": 60,
      "time": 182,
      "duration": 2,
      "velocity": 0.63,
      "hand": "right"
    },
    {
      "midi": 65,
      "time": 182,
      "duration": 2,
      "velocity": 0.63,
      "hand": "right"
    },
    {
      "midi": 68,
      "time": 182,
      "duration": 2,
      "velocity": 0.63,
      "hand": "right"
    },
    {
      "midi": 79,
      "time": 182,
      "duration": 0.917,
      "velocity": 0.63,
      "hand": "right"
    },
    {
      "midi": 60,
      "time": 183,
      "duration": 0.917,
      "velocity": 0.63,
      "hand": "right"
    },
    {
      "midi": 77,
      "time": 183,
      "duration": 0.917,
      "velocity": 0.63,
      "hand": "right"
    },
    {
      "midi": 36,
      "time": 184,
      "duration": 6,
      "velocity": 0.63,
      "hand": "left"
    },
    {
      "midi": 36,
      "time": 184,
      "duration": 0.917,
      "velocity": 0.63,
      "hand": "left"
    },
    {
      "midi": 60,
      "time": 184,
      "duration": 6,
      "velocity": 0.63,
      "hand": "right"
    },
    {
      "midi": 64,
      "time": 184,
      "duration": 6,
      "velocity": 0.63,
      "hand": "right"
    },
    {
      "midi": 67,
      "time": 184,
      "duration": 6,
      "velocity": 0.63,
      "hand": "right"
    },
    {
      "midi": 71,
      "time": 184,
      "duration": 0.917,
      "velocity": 0.63,
      "hand": "right"
    },
    {
      "midi": 71,
      "time": 184,
      "duration": 6,
      "velocity": 0.63,
      "hand": "right"
    },
    {
      "midi": 76,
      "time": 184,
      "duration": 0.917,
      "velocity": 0.63,
      "hand": "right"
    },
    {
      "midi": 43,
      "time": 185,
      "duration": 0.917,
      "velocity": 0.63,
      "hand": "left"
    },
    {
      "midi": 71,
      "time": 185,
      "duration": 0.167,
      "velocity": 0.63,
      "hand": "right"
    },
    {
      "midi": 72,
      "time": 185.167,
      "duration": 0.167,
      "velocity": 0.63,
      "hand": "right"
    },
    {
      "midi": 74,
      "time": 185.333,
      "duration": 0.167,
      "velocity": 0.63,
      "hand": "right"
    },
    {
      "midi": 76,
      "time": 185.5,
      "duration": 0.167,
      "velocity": 0.63,
      "hand": "right"
    },
    {
      "midi": 74,
      "time": 185.667,
      "duration": 0.167,
      "velocity": 0.63,
      "hand": "right"
    },
    {
      "midi": 72,
      "time": 185.833,
      "duration": 0.167,
      "velocity": 0.63,
      "hand": "right"
    },
    {
      "midi": 48,
      "time": 186,
      "duration": 1.917,
      "velocity": 0.63,
      "hand": "left"
    },
    {
      "midi": 71,
      "time": 186,
      "duration": 0.167,
      "velocity": 0.63,
      "hand": "right"
    },
    {
      "midi": 72,
      "time": 186.167,
      "duration": 0.167,
      "velocity": 0.63,
      "hand": "right"
    },
    {
      "midi": 74,
      "time": 186.333,
      "duration": 0.167,
      "velocity": 0.63,
      "hand": "right"
    },
    {
      "midi": 76,
      "time": 186.5,
      "duration": 0.167,
      "velocity": 0.63,
      "hand": "right"
    },
    {
      "midi": 74,
      "time": 186.667,
      "duration": 0.167,
      "velocity": 0.63,
      "hand": "right"
    },
    {
      "midi": 72,
      "time": 186.833,
      "duration": 0.167,
      "velocity": 0.63,
      "hand": "right"
    },
    {
      "midi": 71,
      "time": 187,
      "duration": 0.167,
      "velocity": 0.63,
      "hand": "right"
    },
    {
      "midi": 72,
      "time": 187.167,
      "duration": 0.167,
      "velocity": 0.63,
      "hand": "right"
    },
    {
      "midi": 74,
      "time": 187.333,
      "duration": 0.167,
      "velocity": 0.63,
      "hand": "right"
    },
    {
      "midi": 76,
      "time": 187.5,
      "duration": 0.167,
      "velocity": 0.63,
      "hand": "right"
    },
    {
      "midi": 74,
      "time": 187.667,
      "duration": 0.167,
      "velocity": 0.63,
      "hand": "right"
    },
    {
      "midi": 72,
      "time": 187.833,
      "duration": 0.167,
      "velocity": 0.63,
      "hand": "right"
    },
    {
      "midi": 50,
      "time": 188,
      "duration": 0.917,
      "velocity": 0.63,
      "hand": "left"
    },
    {
      "midi": 71,
      "time": 188,
      "duration": 0.167,
      "velocity": 0.63,
      "hand": "right"
    },
    {
      "midi": 72,
      "time": 188.167,
      "duration": 0.167,
      "velocity": 0.63,
      "hand": "right"
    },
    {
      "midi": 74,
      "time": 188.333,
      "duration": 0.167,
      "velocity": 0.63,
      "hand": "right"
    },
    {
      "midi": 76,
      "time": 188.5,
      "duration": 0.167,
      "velocity": 0.63,
      "hand": "right"
    },
    {
      "midi": 74,
      "time": 188.667,
      "duration": 0.167,
      "velocity": 0.63,
      "hand": "right"
    },
    {
      "midi": 72,
      "time": 188.833,
      "duration": 0.167,
      "velocity": 0.63,
      "hand": "right"
    },
    {
      "midi": 52,
      "time": 189,
      "duration": 0.917,
      "velocity": 0.63,
      "hand": "left"
    },
    {
      "midi": 71,
      "time": 189,
      "duration": 0.167,
      "velocity": 0.63,
      "hand": "right"
    },
    {
      "midi": 72,
      "time": 189.167,
      "duration": 0.167,
      "velocity": 0.63,
      "hand": "right"
    },
    {
      "midi": 74,
      "time": 189.333,
      "duration": 0.167,
      "velocity": 0.63,
      "hand": "right"
    },
    {
      "midi": 76,
      "time": 189.5,
      "duration": 0.167,
      "velocity": 0.63,
      "hand": "right"
    },
    {
      "midi": 74,
      "time": 189.667,
      "duration": 0.167,
      "velocity": 0.63,
      "hand": "right"
    },
    {
      "midi": 72,
      "time": 189.833,
      "duration": 0.167,
      "velocity": 0.63,
      "hand": "right"
    },
    {
      "midi": 41,
      "time": 190,
      "duration": 1,
      "velocity": 0.63,
      "hand": "left"
    },
    {
      "midi": 53,
      "time": 190,
      "duration": 0.917,
      "velocity": 0.63,
      "hand": "left"
    },
    {
      "midi": 60,
      "time": 190,
      "duration": 1,
      "velocity": 0.63,
      "hand": "right"
    },
    {
      "midi": 64,
      "time": 190,
      "duration": 1,
      "velocity": 0.63,
      "hand": "right"
    },
    {
      "midi": 67,
      "time": 190,
      "duration": 1,
      "velocity": 0.63,
      "hand": "right"
    },
    {
      "midi": 70,
      "time": 190,
      "duration": 0.167,
      "velocity": 0.63,
      "hand": "right"
    },
    {
      "midi": 70,
      "time": 190,
      "duration": 1,
      "velocity": 0.63,
      "hand": "right"
    },
    {
      "midi": 72,
      "time": 190.167,
      "duration": 0.167,
      "velocity": 0.63,
      "hand": "right"
    },
    {
      "midi": 74,
      "time": 190.333,
      "duration": 0.167,
      "velocity": 0.63,
      "hand": "right"
    },
    {
      "midi": 76,
      "time": 190.5,
      "duration": 0.167,
      "velocity": 0.63,
      "hand": "right"
    },
    {
      "midi": 74,
      "time": 190.667,
      "duration": 0.167,
      "velocity": 0.63,
      "hand": "right"
    },
    {
      "midi": 72,
      "time": 190.833,
      "duration": 0.167,
      "velocity": 0.63,
      "hand": "right"
    },
    {
      "midi": 40,
      "time": 191,
      "duration": 1,
      "velocity": 0.63,
      "hand": "left"
    },
    {
      "midi": 52,
      "time": 191,
      "duration": 0.917,
      "velocity": 0.63,
      "hand": "left"
    },
    {
      "midi": 60,
      "time": 191,
      "duration": 1,
      "velocity": 0.63,
      "hand": "right"
    },
    {
      "midi": 64,
      "time": 191,
      "duration": 1,
      "velocity": 0.63,
      "hand": "right"
    },
    {
      "midi": 67,
      "time": 191,
      "duration": 1,
      "velocity": 0.63,
      "hand": "right"
    },
    {
      "midi": 70,
      "time": 191,
      "duration": 0.917,
      "velocity": 0.63,
      "hand": "right"
    },
    {
      "midi": 70,
      "time": 191,
      "duration": 1,
      "velocity": 0.63,
      "hand": "right"
    },
    {
      "midi": 41,
      "time": 192,
      "duration": 4,
      "velocity": 0.63,
      "hand": "left"
    },
    {
      "midi": 53,
      "time": 192,
      "duration": 3.833,
      "velocity": 0.63,
      "hand": "left"
    },
    {
      "midi": 60,
      "time": 192,
      "duration": 4,
      "velocity": 0.63,
      "hand": "right"
    },
    {
      "midi": 60,
      "time": 192,
      "duration": 3.833,
      "velocity": 0.63,
      "hand": "right"
    },
    {
      "midi": 65,
      "time": 192,
      "duration": 4,
      "velocity": 0.63,
      "hand": "right"
    },
    {
      "midi": 69,
      "time": 192,
      "duration": 0.917,
      "velocity": 0.63,
      "hand": "right"
    },
    {
      "midi": 69,
      "time": 192,
      "duration": 4,
      "velocity": 0.63,
      "hand": "right"
    },
    {
      "midi": 76,
      "time": 192,
      "duration": 0.917,
      "velocity": 0.63,
      "hand": "right"
    },
    {
      "midi": 72,
      "time": 193,
      "duration": 0.917,
      "velocity": 0.63,
      "hand": "right"
    },
    {
      "midi": 69,
      "time": 194,
      "duration": 1.917,
      "velocity": 0.63,
      "hand": "right"
    },
    {
      "midi": 40,
      "time": 196,
      "duration": 4,
      "velocity": 0.63,
      "hand": "left"
    },
    {
      "midi": 52,
      "time": 196,
      "duration": 3.833,
      "velocity": 0.63,
      "hand": "left"
    },
    {
      "midi": 55,
      "time": 196,
      "duration": 3.833,
      "velocity": 0.63,
      "hand": "left"
    },
    {
      "midi": 59,
      "time": 196,
      "duration": 3.833,
      "velocity": 0.63,
      "hand": "left"
    },
    {
      "midi": 64,
      "time": 196,
      "duration": 4,
      "velocity": 0.63,
      "hand": "right"
    },
    {
      "midi": 67,
      "time": 196,
      "duration": 4,
      "velocity": 0.63,
      "hand": "right"
    },
    {
      "midi": 71,
      "time": 196,
      "duration": 4,
      "velocity": 0.63,
      "hand": "right"
    },
    {
      "midi": 76,
      "time": 196,
      "duration": 0.917,
      "velocity": 0.63,
      "hand": "right"
    },
    {
      "midi": 71,
      "time": 197,
      "duration": 0.917,
      "velocity": 0.63,
      "hand": "right"
    },
    {
      "midi": 67,
      "time": 198,
      "duration": 1.917,
      "velocity": 0.63,
      "hand": "right"
    },
    {
      "midi": 39,
      "time": 200,
      "duration": 4,
      "velocity": 0.63,
      "hand": "left"
    },
    {
      "midi": 51,
      "time": 200,
      "duration": 3.833,
      "velocity": 0.63,
      "hand": "left"
    },
    {
      "midi": 58,
      "time": 200,
      "duration": 3.833,
      "velocity": 0.63,
      "hand": "left"
    },
    {
      "midi": 63,
      "time": 200,
      "duration": 4,
      "velocity": 0.63,
      "hand": "right"
    },
    {
      "midi": 67,
      "time": 200,
      "duration": 0.917,
      "velocity": 0.63,
      "hand": "right"
    },
    {
      "midi": 67,
      "time": 200,
      "duration": 4,
      "velocity": 0.63,
      "hand": "right"
    },
    {
      "midi": 70,
      "time": 200,
      "duration": 4,
      "velocity": 0.63,
      "hand": "right"
    },
    {
      "midi": 74,
      "time": 200,
      "duration": 0.917,
      "velocity": 0.63,
      "hand": "right"
    },
    {
      "midi": 70,
      "time": 201,
      "duration": 0.917,
      "velocity": 0.63,
      "hand": "right"
    },
    {
      "midi": 69,
      "time": 202,
      "duration": 0.917,
      "velocity": 0.63,
      "hand": "right"
    },
    {
      "midi": 65,
      "time": 203,
      "duration": 0.917,
      "velocity": 0.63,
      "hand": "right"
    },
    {
      "midi": 38,
      "time": 204,
      "duration": 4,
      "velocity": 0.63,
      "hand": "left"
    },
    {
      "midi": 50,
      "time": 204,
      "duration": 3.833,
      "velocity": 0.63,
      "hand": "left"
    },
    {
      "midi": 57,
      "time": 204,
      "duration": 3.833,
      "velocity": 0.63,
      "hand": "left"
    },
    {
      "midi": 62,
      "time": 204,
      "duration": 4,
      "velocity": 0.63,
      "hand": "right"
    },
    {
      "midi": 65,
      "time": 204,
      "duration": 0.917,
      "velocity": 0.63,
      "hand": "right"
    },
    {
      "midi": 65,
      "time": 204,
      "duration": 4,
      "velocity": 0.63,
      "hand": "right"
    },
    {
      "midi": 69,
      "time": 204,
      "duration": 4,
      "velocity": 0.63,
      "hand": "right"
    },
    {
      "midi": 74,
      "time": 204,
      "duration": 0.917,
      "velocity": 0.63,
      "hand": "right"
    },
    {
      "midi": 70,
      "time": 205,
      "duration": 0.917,
      "velocity": 0.63,
      "hand": "right"
    },
    {
      "midi": 69,
      "time": 206,
      "duration": 1.917,
      "velocity": 0.63,
      "hand": "right"
    },
    {
      "midi": 36,
      "time": 208,
      "duration": 4,
      "velocity": 0.63,
      "hand": "left"
    },
    {
      "midi": 48,
      "time": 208,
      "duration": 3.833,
      "velocity": 0.63,
      "hand": "left"
    },
    {
      "midi": 51,
      "time": 208,
      "duration": 3.833,
      "velocity": 0.63,
      "hand": "left"
    },
    {
      "midi": 55,
      "time": 208,
      "duration": 3.833,
      "velocity": 0.63,
      "hand": "left"
    },
    {
      "midi": 60,
      "time": 208,
      "duration": 4,
      "velocity": 0.63,
      "hand": "right"
    },
    {
      "midi": 63,
      "time": 208,
      "duration": 4,
      "velocity": 0.63,
      "hand": "right"
    },
    {
      "midi": 67,
      "time": 208,
      "duration": 4,
      "velocity": 0.63,
      "hand": "right"
    },
    {
      "midi": 72,
      "time": 208,
      "duration": 0.917,
      "velocity": 0.63,
      "hand": "right"
    },
    {
      "midi": 67,
      "time": 209,
      "duration": 0.917,
      "velocity": 0.63,
      "hand": "right"
    },
    {
      "midi": 72,
      "time": 210,
      "duration": 0.917,
      "velocity": 0.63,
      "hand": "right"
    },
    {
      "midi": 75,
      "time": 211,
      "duration": 0.917,
      "velocity": 0.63,
      "hand": "right"
    },
    {
      "midi": 42,
      "time": 212,
      "duration": 7.5,
      "velocity": 0.39,
      "hand": "left"
    },
    {
      "midi": 54,
      "time": 212,
      "duration": 6.917,
      "velocity": 0.39,
      "hand": "left"
    },
    {
      "midi": 62,
      "time": 212,
      "duration": 7.5,
      "velocity": 0.39,
      "hand": "right"
    },
    {
      "midi": 62,
      "time": 212,
      "duration": 6.917,
      "velocity": 0.39,
      "hand": "right"
    },
    {
      "midi": 66,
      "time": 212,
      "duration": 7.5,
      "velocity": 0.39,
      "hand": "right"
    },
    {
      "midi": 69,
      "time": 212,
      "duration": 7.5,
      "velocity": 0.39,
      "hand": "right"
    },
    {
      "midi": 74,
      "time": 212,
      "duration": 1.417,
      "velocity": 0.39,
      "hand": "right"
    },
    {
      "midi": 66,
      "time": 213.5,
      "duration": 0.75,
      "velocity": 0.39,
      "hand": "right"
    },
    {
      "midi": 69,
      "time": 214.25,
      "duration": 0.75,
      "velocity": 0.39,
      "hand": "right"
    },
    {
      "midi": 72,
      "time": 215,
      "duration": 1.417,
      "velocity": 0.39,
      "hand": "right"
    },
    {
      "midi": 74,
      "time": 216.5,
      "duration": 0.333,
      "velocity": 0.39,
      "hand": "right"
    },
    {
      "midi": 69,
      "time": 216.833,
      "duration": 0.333,
      "velocity": 0.39,
      "hand": "right"
    },
    {
      "midi": 78,
      "time": 217.25,
      "duration": 0.75,
      "velocity": 0.39,
      "hand": "right"
    },
    {
      "midi": 81,
      "time": 218,
      "duration": 1.417,
      "velocity": 0.39,
      "hand": "right"
    }
  ],
  "arrangements": {
    "easy": [
      {
        "midi": 74,
        "time": 0,
        "duration": 0.167,
        "velocity": 0.63,
        "hand": "right"
      },
      {
        "midi": 76,
        "time": 0.167,
        "duration": 0.167,
        "velocity": 0.63,
        "hand": "right"
      },
      {
        "midi": 79,
        "time": 0.333,
        "duration": 0.167,
        "velocity": 0.63,
        "hand": "right"
      },
      {
        "midi": 81,
        "time": 0.5,
        "duration": 0.167,
        "velocity": 0.63,
        "hand": "right"
      },
      {
        "midi": 79,
        "time": 0.667,
        "duration": 0.167,
        "velocity": 0.63,
        "hand": "right"
      },
      {
        "midi": 76,
        "time": 0.833,
        "duration": 0.167,
        "velocity": 0.63,
        "hand": "right"
      },
      {
        "midi": 74,
        "time": 1,
        "duration": 0.167,
        "velocity": 0.63,
        "hand": "right"
      },
      {
        "midi": 76,
        "time": 1.167,
        "duration": 0.167,
        "velocity": 0.63,
        "hand": "right"
      },
      {
        "midi": 79,
        "time": 1.333,
        "duration": 0.167,
        "velocity": 0.63,
        "hand": "right"
      },
      {
        "midi": 81,
        "time": 1.5,
        "duration": 0.167,
        "velocity": 0.63,
        "hand": "right"
      },
      {
        "midi": 79,
        "time": 1.667,
        "duration": 0.167,
        "velocity": 0.63,
        "hand": "right"
      },
      {
        "midi": 76,
        "time": 1.833,
        "duration": 0.167,
        "velocity": 0.63,
        "hand": "right"
      },
      {
        "midi": 74,
        "time": 2,
        "duration": 0.167,
        "velocity": 0.63,
        "hand": "right"
      },
      {
        "midi": 76,
        "time": 2.167,
        "duration": 0.167,
        "velocity": 0.63,
        "hand": "right"
      },
      {
        "midi": 79,
        "time": 2.333,
        "duration": 0.167,
        "velocity": 0.63,
        "hand": "right"
      },
      {
        "midi": 81,
        "time": 2.5,
        "duration": 0.167,
        "velocity": 0.63,
        "hand": "right"
      },
      {
        "midi": 79,
        "time": 2.667,
        "duration": 0.167,
        "velocity": 0.63,
        "hand": "right"
      },
      {
        "midi": 76,
        "time": 2.833,
        "duration": 0.167,
        "velocity": 0.63,
        "hand": "right"
      },
      {
        "midi": 74,
        "time": 3,
        "duration": 0.167,
        "velocity": 0.63,
        "hand": "right"
      },
      {
        "midi": 76,
        "time": 3.167,
        "duration": 0.167,
        "velocity": 0.63,
        "hand": "right"
      },
      {
        "midi": 79,
        "time": 3.333,
        "duration": 0.167,
        "velocity": 0.63,
        "hand": "right"
      },
      {
        "midi": 81,
        "time": 3.5,
        "duration": 0.167,
        "velocity": 0.63,
        "hand": "right"
      },
      {
        "midi": 79,
        "time": 3.667,
        "duration": 0.167,
        "velocity": 0.63,
        "hand": "right"
      },
      {
        "midi": 76,
        "time": 3.833,
        "duration": 0.167,
        "velocity": 0.63,
        "hand": "right"
      },
      {
        "midi": 72,
        "time": 4,
        "duration": 0.167,
        "velocity": 0.63,
        "hand": "right"
      },
      {
        "midi": 76,
        "time": 4.167,
        "duration": 0.167,
        "velocity": 0.63,
        "hand": "right"
      },
      {
        "midi": 79,
        "time": 4.333,
        "duration": 0.167,
        "velocity": 0.63,
        "hand": "right"
      },
      {
        "midi": 81,
        "time": 4.5,
        "duration": 0.167,
        "velocity": 0.63,
        "hand": "right"
      },
      {
        "midi": 79,
        "time": 4.667,
        "duration": 0.167,
        "velocity": 0.63,
        "hand": "right"
      },
      {
        "midi": 76,
        "time": 4.833,
        "duration": 0.167,
        "velocity": 0.63,
        "hand": "right"
      },
      {
        "midi": 72,
        "time": 5,
        "duration": 0.167,
        "velocity": 0.63,
        "hand": "right"
      },
      {
        "midi": 76,
        "time": 5.167,
        "duration": 0.167,
        "velocity": 0.63,
        "hand": "right"
      },
      {
        "midi": 79,
        "time": 5.333,
        "duration": 0.167,
        "velocity": 0.63,
        "hand": "right"
      },
      {
        "midi": 81,
        "time": 5.5,
        "duration": 0.167,
        "velocity": 0.63,
        "hand": "right"
      },
      {
        "midi": 79,
        "time": 5.667,
        "duration": 0.167,
        "velocity": 0.63,
        "hand": "right"
      },
      {
        "midi": 76,
        "time": 5.833,
        "duration": 0.167,
        "velocity": 0.63,
        "hand": "right"
      },
      {
        "midi": 72,
        "time": 6,
        "duration": 0.167,
        "velocity": 0.63,
        "hand": "right"
      },
      {
        "midi": 76,
        "time": 6.167,
        "duration": 0.167,
        "velocity": 0.63,
        "hand": "right"
      },
      {
        "midi": 79,
        "time": 6.333,
        "duration": 0.167,
        "velocity": 0.63,
        "hand": "right"
      },
      {
        "midi": 81,
        "time": 6.5,
        "duration": 0.167,
        "velocity": 0.63,
        "hand": "right"
      },
      {
        "midi": 79,
        "time": 6.667,
        "duration": 0.167,
        "velocity": 0.63,
        "hand": "right"
      },
      {
        "midi": 76,
        "time": 6.833,
        "duration": 0.167,
        "velocity": 0.63,
        "hand": "right"
      },
      {
        "midi": 72,
        "time": 7,
        "duration": 0.167,
        "velocity": 0.63,
        "hand": "right"
      },
      {
        "midi": 76,
        "time": 7.167,
        "duration": 0.167,
        "velocity": 0.63,
        "hand": "right"
      },
      {
        "midi": 79,
        "time": 7.333,
        "duration": 0.167,
        "velocity": 0.63,
        "hand": "right"
      },
      {
        "midi": 81,
        "time": 7.5,
        "duration": 0.167,
        "velocity": 0.63,
        "hand": "right"
      },
      {
        "midi": 79,
        "time": 7.667,
        "duration": 0.167,
        "velocity": 0.63,
        "hand": "right"
      },
      {
        "midi": 76,
        "time": 7.833,
        "duration": 0.167,
        "velocity": 0.63,
        "hand": "right"
      },
      {
        "midi": 72,
        "time": 8,
        "duration": 0.167,
        "velocity": 0.63,
        "hand": "right"
      },
      {
        "midi": 74,
        "time": 8.167,
        "duration": 0.167,
        "velocity": 0.63,
        "hand": "right"
      },
      {
        "midi": 77,
        "time": 8.333,
        "duration": 0.167,
        "velocity": 0.63,
        "hand": "right"
      },
      {
        "midi": 79,
        "time": 8.5,
        "duration": 0.167,
        "velocity": 0.63,
        "hand": "right"
      },
      {
        "midi": 77,
        "time": 8.667,
        "duration": 0.167,
        "velocity": 0.63,
        "hand": "right"
      },
      {
        "midi": 74,
        "time": 8.833,
        "duration": 0.167,
        "velocity": 0.63,
        "hand": "right"
      },
      {
        "midi": 72,
        "time": 9,
        "duration": 0.167,
        "velocity": 0.63,
        "hand": "right"
      },
      {
        "midi": 74,
        "time": 9.167,
        "duration": 0.167,
        "velocity": 0.63,
        "hand": "right"
      },
      {
        "midi": 77,
        "time": 9.333,
        "duration": 0.167,
        "velocity": 0.63,
        "hand": "right"
      },
      {
        "midi": 79,
        "time": 9.5,
        "duration": 0.167,
        "velocity": 0.63,
        "hand": "right"
      },
      {
        "midi": 77,
        "time": 9.667,
        "duration": 0.167,
        "velocity": 0.63,
        "hand": "right"
      },
      {
        "midi": 74,
        "time": 9.833,
        "duration": 0.167,
        "velocity": 0.63,
        "hand": "right"
      },
      {
        "midi": 72,
        "time": 10,
        "duration": 0.167,
        "velocity": 0.63,
        "hand": "right"
      },
      {
        "midi": 74,
        "time": 10.167,
        "duration": 0.167,
        "velocity": 0.63,
        "hand": "right"
      },
      {
        "midi": 77,
        "time": 10.333,
        "duration": 0.167,
        "velocity": 0.63,
        "hand": "right"
      },
      {
        "midi": 79,
        "time": 10.5,
        "duration": 0.167,
        "velocity": 0.63,
        "hand": "right"
      },
      {
        "midi": 77,
        "time": 10.667,
        "duration": 0.167,
        "velocity": 0.63,
        "hand": "right"
      },
      {
        "midi": 74,
        "time": 10.833,
        "duration": 0.167,
        "velocity": 0.63,
        "hand": "right"
      },
      {
        "midi": 72,
        "time": 11,
        "duration": 0.167,
        "velocity": 0.63,
        "hand": "right"
      },
      {
        "midi": 74,
        "time": 11.167,
        "duration": 0.167,
        "velocity": 0.63,
        "hand": "right"
      },
      {
        "midi": 77,
        "time": 11.333,
        "duration": 0.167,
        "velocity": 0.63,
        "hand": "right"
      },
      {
        "midi": 79,
        "time": 11.5,
        "duration": 0.167,
        "velocity": 0.63,
        "hand": "right"
      },
      {
        "midi": 77,
        "time": 11.667,
        "duration": 0.167,
        "velocity": 0.63,
        "hand": "right"
      },
      {
        "midi": 74,
        "time": 11.833,
        "duration": 0.167,
        "velocity": 0.63,
        "hand": "right"
      },
      {
        "midi": 71,
        "time": 12,
        "duration": 0.167,
        "velocity": 0.63,
        "hand": "right"
      },
      {
        "midi": 72,
        "time": 12.167,
        "duration": 0.167,
        "velocity": 0.63,
        "hand": "right"
      },
      {
        "midi": 74,
        "time": 12.333,
        "duration": 0.167,
        "velocity": 0.63,
        "hand": "right"
      },
      {
        "midi": 76,
        "time": 12.5,
        "duration": 0.167,
        "velocity": 0.63,
        "hand": "right"
      },
      {
        "midi": 74,
        "time": 12.667,
        "duration": 0.167,
        "velocity": 0.63,
        "hand": "right"
      },
      {
        "midi": 72,
        "time": 12.833,
        "duration": 0.167,
        "velocity": 0.63,
        "hand": "right"
      },
      {
        "midi": 71,
        "time": 13,
        "duration": 0.167,
        "velocity": 0.63,
        "hand": "right"
      },
      {
        "midi": 72,
        "time": 13.167,
        "duration": 0.167,
        "velocity": 0.63,
        "hand": "right"
      },
      {
        "midi": 74,
        "time": 13.333,
        "duration": 0.167,
        "velocity": 0.63,
        "hand": "right"
      },
      {
        "midi": 76,
        "time": 13.5,
        "duration": 0.167,
        "velocity": 0.63,
        "hand": "right"
      },
      {
        "midi": 74,
        "time": 13.667,
        "duration": 0.167,
        "velocity": 0.63,
        "hand": "right"
      },
      {
        "midi": 72,
        "time": 13.833,
        "duration": 0.167,
        "velocity": 0.63,
        "hand": "right"
      },
      {
        "midi": 71,
        "time": 14,
        "duration": 0.167,
        "velocity": 0.63,
        "hand": "right"
      },
      {
        "midi": 72,
        "time": 14.167,
        "duration": 0.167,
        "velocity": 0.63,
        "hand": "right"
      },
      {
        "midi": 74,
        "time": 14.333,
        "duration": 0.167,
        "velocity": 0.63,
        "hand": "right"
      },
      {
        "midi": 76,
        "time": 14.5,
        "duration": 0.167,
        "velocity": 0.63,
        "hand": "right"
      },
      {
        "midi": 74,
        "time": 14.667,
        "duration": 0.167,
        "velocity": 0.63,
        "hand": "right"
      },
      {
        "midi": 72,
        "time": 14.833,
        "duration": 0.167,
        "velocity": 0.63,
        "hand": "right"
      },
      {
        "midi": 71,
        "time": 15,
        "duration": 0.917,
        "velocity": 0.63,
        "hand": "right"
      },
      {
        "midi": 67,
        "time": 15.333,
        "duration": 0.667,
        "velocity": 0.63,
        "hand": "right"
      },
      {
        "midi": 69,
        "time": 16,
        "duration": 4,
        "velocity": 0.63,
        "hand": "right"
      },
      {
        "midi": 64,
        "time": 16.167,
        "duration": 0.167,
        "velocity": 0.63,
        "hand": "right"
      },
      {
        "midi": 64,
        "time": 16.333,
        "duration": 0.167,
        "velocity": 0.63,
        "hand": "right"
      },
      {
        "midi": 64,
        "time": 16.5,
        "duration": 0.167,
        "velocity": 0.63,
        "hand": "right"
      },
      {
        "midi": 64,
        "time": 16.667,
        "duration": 0.167,
        "velocity": 0.63,
        "hand": "right"
      },
      {
        "midi": 62,
        "time": 16.833,
        "duration": 0.167,
        "velocity": 0.63,
        "hand": "right"
      },
      {
        "midi": 53,
        "time": 17,
        "duration": 0.333,
        "velocity": 0.63,
        "hand": "right"
      },
      {
        "midi": 60,
        "time": 17.333,
        "duration": 0.667,
        "velocity": 0.63,
        "hand": "right"
      },
      {
        "midi": 64,
        "time": 18,
        "duration": 0.167,
        "velocity": 0.63,
        "hand": "right"
      },
      {
        "midi": 64,
        "time": 18.167,
        "duration": 0.167,
        "velocity": 0.63,
        "hand": "right"
      },
      {
        "midi": 64,
        "time": 18.333,
        "duration": 0.167,
        "velocity": 0.63,
        "hand": "right"
      },
      {
        "midi": 64,
        "time": 18.5,
        "duration": 0.167,
        "velocity": 0.63,
        "hand": "right"
      },
      {
        "midi": 64,
        "time": 18.667,
        "duration": 0.333,
        "velocity": 0.63,
        "hand": "right"
      },
      {
        "midi": 64,
        "time": 19,
        "duration": 0.167,
        "velocity": 0.63,
        "hand": "right"
      },
      {
        "midi": 64,
        "time": 19.167,
        "duration": 0.167,
        "velocity": 0.63,
        "hand": "right"
      },
      {
        "midi": 64,
        "time": 19.333,
        "duration": 0.167,
        "velocity": 0.63,
        "hand": "right"
      },
      {
        "midi": 64,
        "time": 19.5,
        "duration": 0.167,
        "velocity": 0.63,
        "hand": "right"
      },
      {
        "midi": 64,
        "time": 19.667,
        "duration": 0.333,
        "velocity": 0.63,
        "hand": "right"
      },
      {
        "midi": 67,
        "time": 20,
        "duration": 3,
        "velocity": 0.63,
        "hand": "right"
      },
      {
        "midi": 64,
        "time": 20.167,
        "duration": 0.167,
        "velocity": 0.63,
        "hand": "right"
      },
      {
        "midi": 64,
        "time": 20.333,
        "duration": 0.167,
        "velocity": 0.63,
        "hand": "right"
      },
      {
        "midi": 64,
        "time": 20.5,
        "duration": 0.167,
        "velocity": 0.63,
        "hand": "right"
      },
      {
        "midi": 64,
        "time": 20.667,
        "duration": 0.167,
        "velocity": 0.63,
        "hand": "right"
      },
      {
        "midi": 62,
        "time": 20.833,
        "duration": 0.167,
        "velocity": 0.63,
        "hand": "right"
      },
      {
        "midi": 52,
        "time": 21,
        "duration": 0.333,
        "velocity": 0.63,
        "hand": "right"
      },
      {
        "midi": 59,
        "time": 21.333,
        "duration": 0.667,
        "velocity": 0.63,
        "hand": "right"
      },
      {
        "midi": 64,
        "time": 22,
        "duration": 0.167,
        "velocity": 0.63,
        "hand": "right"
      },
      {
        "midi": 64,
        "time": 22.167,
        "duration": 0.167,
        "velocity": 0.63,
        "hand": "right"
      },
      {
        "midi": 64,
        "time": 22.333,
        "duration": 0.333,
        "velocity": 0.63,
        "hand": "right"
      },
      {
        "midi": 64,
        "time": 22.667,
        "duration": 0.333,
        "velocity": 0.63,
        "hand": "right"
      },
      {
        "midi": 67,
        "time": 23,
        "duration": 1,
        "velocity": 0.63,
        "hand": "right"
      },
      {
        "midi": 64,
        "time": 23.167,
        "duration": 0.167,
        "velocity": 0.63,
        "hand": "right"
      },
      {
        "midi": 64,
        "time": 23.333,
        "duration": 0.167,
        "velocity": 0.63,
        "hand": "right"
      },
      {
        "midi": 64,
        "time": 23.5,
        "duration": 0.167,
        "velocity": 0.63,
        "hand": "right"
      },
      {
        "midi": 64,
        "time": 23.667,
        "duration": 0.333,
        "velocity": 0.63,
        "hand": "right"
      },
      {
        "midi": 69,
        "time": 24,
        "duration": 4,
        "velocity": 0.63,
        "hand": "right"
      },
      {
        "midi": 60,
        "time": 24.167,
        "duration": 0.167,
        "velocity": 0.63,
        "hand": "right"
      },
      {
        "midi": 64,
        "time": 24.333,
        "duration": 0.167,
        "velocity": 0.63,
        "hand": "right"
      },
      {
        "midi": 62,
        "time": 24.5,
        "duration": 0.167,
        "velocity": 0.63,
        "hand": "right"
      },
      {
        "midi": 64,
        "time": 24.667,
        "duration": 0.167,
        "velocity": 0.63,
        "hand": "right"
      },
      {
        "midi": 62,
        "time": 24.833,
        "duration": 0.167,
        "velocity": 0.63,
        "hand": "right"
      },
      {
        "midi": 57,
        "time": 25,
        "duration": 0.917,
        "velocity": 0.63,
        "hand": "right"
      },
      {
        "midi": 64,
        "time": 26,
        "duration": 0.167,
        "velocity": 0.63,
        "hand": "right"
      },
      {
        "midi": 62,
        "time": 26.167,
        "duration": 0.167,
        "velocity": 0.63,
        "hand": "right"
      },
      {
        "midi": 64,
        "time": 26.333,
        "duration": 0.167,
        "velocity": 0.63,
        "hand": "right"
      },
      {
        "midi": 62,
        "time": 26.5,
        "duration": 0.167,
        "velocity": 0.63,
        "hand": "right"
      },
      {
        "midi": 64,
        "time": 26.667,
        "duration": 0.167,
        "velocity": 0.63,
        "hand": "right"
      },
      {
        "midi": 62,
        "time": 26.833,
        "duration": 0.167,
        "velocity": 0.63,
        "hand": "right"
      },
      {
        "midi": 50,
        "time": 27,
        "duration": 0.333,
        "velocity": 0.63,
        "hand": "right"
      },
      {
        "midi": 53,
        "time": 27.333,
        "duration": 0.333,
        "velocity": 0.63,
        "hand": "right"
      },
      {
        "midi": 57,
        "time": 27.667,
        "duration": 0.333,
        "velocity": 0.63,
        "hand": "right"
      },
      {
        "midi": 60,
        "time": 27.833,
        "duration": 0.167,
        "velocity": 0.63,
        "hand": "right"
      },
      {
        "midi": 71,
        "time": 28,
        "duration": 4,
        "velocity": 0.63,
        "hand": "right"
      },
      {
        "midi": 64,
        "time": 28.167,
        "duration": 0.167,
        "velocity": 0.63,
        "hand": "right"
      },
      {
        "midi": 64,
        "time": 28.333,
        "duration": 0.167,
        "velocity": 0.63,
        "hand": "right"
      },
      {
        "midi": 64,
        "time": 28.5,
        "duration": 0.167,
        "velocity": 0.63,
        "hand": "right"
      },
      {
        "midi": 64,
        "time": 28.667,
        "duration": 0.333,
        "velocity": 0.63,
        "hand": "right"
      },
      {
        "midi": 64,
        "time": 29,
        "duration": 0.167,
        "velocity": 0.63,
        "hand": "right"
      },
      {
        "midi": 64,
        "time": 29.167,
        "duration": 0.167,
        "velocity": 0.63,
        "hand": "right"
      },
      {
        "midi": 64,
        "time": 29.333,
        "duration": 0.167,
        "velocity": 0.63,
        "hand": "right"
      },
      {
        "midi": 64,
        "time": 29.5,
        "duration": 0.167,
        "velocity": 0.63,
        "hand": "right"
      },
      {
        "midi": 64,
        "time": 29.667,
        "duration": 0.333,
        "velocity": 0.63,
        "hand": "right"
      },
      {
        "midi": 64,
        "time": 30,
        "duration": 0.167,
        "velocity": 0.63,
        "hand": "right"
      },
      {
        "midi": 64,
        "time": 30.167,
        "duration": 0.167,
        "velocity": 0.63,
        "hand": "right"
      },
      {
        "midi": 64,
        "time": 30.333,
        "duration": 0.333,
        "velocity": 0.63,
        "hand": "right"
      },
      {
        "midi": 62,
        "time": 30.667,
        "duration": 0.167,
        "velocity": 0.63,
        "hand": "right"
      },
      {
        "midi": 60,
        "time": 30.833,
        "duration": 0.5,
        "velocity": 0.63,
        "hand": "right"
      },
      {
        "midi": 64,
        "time": 31.333,
        "duration": 0.333,
        "velocity": 0.63,
        "hand": "right"
      },
      {
        "midi": 67,
        "time": 31.667,
        "duration": 0.333,
        "velocity": 0.63,
        "hand": "right"
      },
      {
        "midi": 69,
        "time": 32,
        "duration": 0.917,
        "velocity": 0.63,
        "hand": "right"
      },
      {
        "midi": 48,
        "time": 33,
        "duration": 0.917,
        "velocity": 0.63,
        "hand": "right"
      },
      {
        "midi": 69,
        "time": 33.333,
        "duration": 0.333,
        "velocity": 0.63,
        "hand": "right"
      },
      {
        "midi": 71,
        "time": 33.667,
        "duration": 0.167,
        "velocity": 0.63,
        "hand": "right"
      },
      {
        "midi": 72,
        "time": 33.833,
        "duration": 1.083,
        "velocity": 0.63,
        "hand": "right"
      },
      {
        "midi": 41,
        "time": 34,
        "duration": 0.917,
        "velocity": 0.63,
        "hand": "right"
      },
      {
        "midi": 48,
        "time": 35,
        "duration": 0.917,
        "velocity": 0.63,
        "hand": "right"
      },
      {
        "midi": 69,
        "time": 35.333,
        "duration": 0.333,
        "velocity": 0.63,
        "hand": "right"
      },
      {
        "midi": 72,
        "time": 35.667,
        "duration": 0.333,
        "velocity": 0.63,
        "hand": "right"
      },
      {
        "midi": 71,
        "time": 36,
        "duration": 0.333,
        "velocity": 0.63,
        "hand": "right"
      },
      {
        "midi": 69,
        "time": 36.333,
        "duration": 0.333,
        "velocity": 0.63,
        "hand": "right"
      },
      {
        "midi": 67,
        "time": 36.667,
        "duration": 0.333,
        "velocity": 0.63,
        "hand": "right"
      },
      {
        "midi": 67,
        "time": 37,
        "duration": 0.667,
        "velocity": 0.63,
        "hand": "right"
      },
      {
        "midi": 64,
        "time": 37.667,
        "duration": 0.333,
        "velocity": 0.63,
        "hand": "right"
      },
      {
        "midi": 71,
        "time": 38,
        "duration": 0.333,
        "velocity": 0.63,
        "hand": "right"
      },
      {
        "midi": 69,
        "time": 38.333,
        "duration": 0.333,
        "velocity": 0.63,
        "hand": "right"
      },
      {
        "midi": 67,
        "time": 38.667,
        "duration": 0.333,
        "velocity": 0.63,
        "hand": "right"
      },
      {
        "midi": 71,
        "time": 39,
        "duration": 0.333,
        "velocity": 0.63,
        "hand": "right"
      },
      {
        "midi": 69,
        "time": 39.333,
        "duration": 0.333,
        "velocity": 0.63,
        "hand": "right"
      },
      {
        "midi": 67,
        "time": 39.667,
        "duration": 0.333,
        "velocity": 0.63,
        "hand": "right"
      },
      {
        "midi": 69,
        "time": 40,
        "duration": 4,
        "velocity": 0.63,
        "hand": "right"
      },
      {
        "midi": 65,
        "time": 40.167,
        "duration": 1.75,
        "velocity": 0.63,
        "hand": "right"
      },
      {
        "midi": 45,
        "time": 41,
        "duration": 0.917,
        "velocity": 0.63,
        "hand": "right"
      },
      {
        "midi": 38,
        "time": 42,
        "duration": 0.917,
        "velocity": 0.63,
        "hand": "right"
      },
      {
        "midi": 60,
        "time": 42.667,
        "duration": 0.333,
        "velocity": 0.63,
        "hand": "right"
      },
      {
        "midi": 67,
        "time": 43,
        "duration": 0.333,
        "velocity": 0.63,
        "hand": "right"
      },
      {
        "midi": 65,
        "time": 43.333,
        "duration": 0.333,
        "velocity": 0.63,
        "hand": "right"
      },
      {
        "midi": 64,
        "time": 43.667,
        "duration": 0.333,
        "velocity": 0.63,
        "hand": "right"
      },
      {
        "midi": 71,
        "time": 44,
        "duration": 4,
        "velocity": 0.63,
        "hand": "right"
      },
      {
        "midi": 40,
        "time": 44.333,
        "duration": 0.333,
        "velocity": 0.63,
        "hand": "right"
      },
      {
        "midi": 40,
        "time": 44.667,
        "duration": 0.333,
        "velocity": 0.63,
        "hand": "right"
      },
      {
        "midi": 69,
        "time": 45,
        "duration": 0.917,
        "velocity": 0.63,
        "hand": "right"
      },
      {
        "midi": 40,
        "time": 45.333,
        "duration": 0.333,
        "velocity": 0.63,
        "hand": "right"
      },
      {
        "midi": 40,
        "time": 45.667,
        "duration": 0.333,
        "velocity": 0.63,
        "hand": "right"
      },
      {
        "midi": 72,
        "time": 46,
        "duration": 0.917,
        "velocity": 0.63,
        "hand": "right"
      },
      {
        "midi": 40,
        "time": 46.333,
        "duration": 0.333,
        "velocity": 0.63,
        "hand": "right"
      },
      {
        "midi": 40,
        "time": 46.667,
        "duration": 0.333,
        "velocity": 0.63,
        "hand": "right"
      },
      {
        "midi": 74,
        "time": 47,
        "duration": 0.333,
        "velocity": 0.63,
        "hand": "right"
      },
      {
        "midi": 76,
        "time": 48,
        "duration": 3.833,
        "velocity": 0.63,
        "hand": "right"
      },
      {
        "midi": 48,
        "time": 49,
        "duration": 0.917,
        "velocity": 0.63,
        "hand": "right"
      },
      {
        "midi": 57,
        "time": 50,
        "duration": 0.917,
        "velocity": 0.63,
        "hand": "right"
      },
      {
        "midi": 60,
        "time": 51,
        "duration": 0.917,
        "velocity": 0.63,
        "hand": "right"
      },
      {
        "midi": 69,
        "time": 52,
        "duration": 0.917,
        "velocity": 0.63,
        "hand": "right"
      },
      {
        "midi": 71,
        "time": 53,
        "duration": 0.917,
        "velocity": 0.63,
        "hand": "right"
      },
      {
        "midi": 79,
        "time": 54,
        "duration": 0.917,
        "velocity": 0.63,
        "hand": "right"
      },
      {
        "midi": 77,
        "time": 55,
        "duration": 0.917,
        "velocity": 0.63,
        "hand": "right"
      },
      {
        "midi": 76,
        "time": 56,
        "duration": 2.333,
        "velocity": 0.63,
        "hand": "right"
      },
      {
        "midi": 43,
        "time": 57,
        "duration": 0.917,
        "velocity": 0.63,
        "hand": "right"
      },
      {
        "midi": 55,
        "time": 58,
        "duration": 0.917,
        "velocity": 0.63,
        "hand": "right"
      },
      {
        "midi": 74,
        "time": 58.333,
        "duration": 0.667,
        "velocity": 0.63,
        "hand": "right"
      },
      {
        "midi": 59,
        "time": 59,
        "duration": 0.917,
        "velocity": 0.63,
        "hand": "right"
      },
      {
        "midi": 69,
        "time": 59.333,
        "duration": 0.333,
        "velocity": 0.63,
        "hand": "right"
      },
      {
        "midi": 72,
        "time": 59.667,
        "duration": 0.333,
        "velocity": 0.63,
        "hand": "right"
      },
      {
        "midi": 71,
        "time": 60,
        "duration": 0.917,
        "velocity": 0.63,
        "hand": "right"
      },
      {
        "midi": 71,
        "time": 61,
        "duration": 0.917,
        "velocity": 0.63,
        "hand": "right"
      },
      {
        "midi": 72,
        "time": 62,
        "duration": 0.917,
        "velocity": 0.63,
        "hand": "right"
      },
      {
        "midi": 74,
        "time": 63,
        "duration": 0.917,
        "velocity": 0.63,
        "hand": "right"
      },
      {
        "midi": 76,
        "time": 64,
        "duration": 3.833,
        "velocity": 0.63,
        "hand": "right"
      },
      {
        "midi": 48,
        "time": 65,
        "duration": 0.917,
        "velocity": 0.63,
        "hand": "right"
      },
      {
        "midi": 57,
        "time": 66,
        "duration": 0.917,
        "velocity": 0.63,
        "hand": "right"
      },
      {
        "midi": 60,
        "time": 67,
        "duration": 0.917,
        "velocity": 0.63,
        "hand": "right"
      },
      {
        "midi": 69,
        "time": 68,
        "duration": 0.917,
        "velocity": 0.63,
        "hand": "right"
      },
      {
        "midi": 71,
        "time": 69,
        "duration": 0.917,
        "velocity": 0.63,
        "hand": "right"
      },
      {
        "midi": 79,
        "time": 70,
        "duration": 0.917,
        "velocity": 0.63,
        "hand": "right"
      },
      {
        "midi": 77,
        "time": 71,
        "duration": 0.917,
        "velocity": 0.63,
        "hand": "right"
      },
      {
        "midi": 76,
        "time": 72,
        "duration": 2.833,
        "velocity": 0.63,
        "hand": "right"
      },
      {
        "midi": 43,
        "time": 73,
        "duration": 0.917,
        "velocity": 0.63,
        "hand": "right"
      },
      {
        "midi": 55,
        "time": 74,
        "duration": 0.917,
        "velocity": 0.63,
        "hand": "right"
      },
      {
        "midi": 59,
        "time": 75,
        "duration": 0.917,
        "velocity": 0.63,
        "hand": "right"
      },
      {
        "midi": 69,
        "time": 75.333,
        "duration": 0.333,
        "velocity": 0.63,
        "hand": "right"
      },
      {
        "midi": 72,
        "time": 75.667,
        "duration": 0.333,
        "velocity": 0.63,
        "hand": "right"
      },
      {
        "midi": 71,
        "time": 76,
        "duration": 2,
        "velocity": 0.63,
        "hand": "right"
      },
      {
        "midi": 43,
        "time": 77,
        "duration": 0.917,
        "velocity": 0.63,
        "hand": "right"
      },
      {
        "midi": 70,
        "time": 78,
        "duration": 0.917,
        "velocity": 0.63,
        "hand": "right"
      },
      {
        "midi": 70,
        "time": 79,
        "duration": 0.917,
        "velocity": 0.63,
        "hand": "right"
      },
      {
        "midi": 69,
        "time": 80,
        "duration": 4,
        "velocity": 0.63,
        "hand": "right"
      },
      {
        "midi": 64,
        "time": 80.167,
        "duration": 0.167,
        "velocity": 0.63,
        "hand": "right"
      },
      {
        "midi": 64,
        "time": 80.333,
        "duration": 0.167,
        "velocity": 0.63,
        "hand": "right"
      },
      {
        "midi": 64,
        "time": 80.5,
        "duration": 0.167,
        "velocity": 0.63,
        "hand": "right"
      },
      {
        "midi": 64,
        "time": 80.667,
        "duration": 0.167,
        "velocity": 0.63,
        "hand": "right"
      },
      {
        "midi": 62,
        "time": 80.833,
        "duration": 0.167,
        "velocity": 0.63,
        "hand": "right"
      },
      {
        "midi": 41,
        "time": 81,
        "duration": 0.917,
        "velocity": 0.63,
        "hand": "right"
      },
      {
        "midi": 64,
        "time": 82,
        "duration": 0.167,
        "velocity": 0.63,
        "hand": "right"
      },
      {
        "midi": 64,
        "time": 82.167,
        "duration": 0.167,
        "velocity": 0.63,
        "hand": "right"
      },
      {
        "midi": 64,
        "time": 82.333,
        "duration": 0.167,
        "velocity": 0.63,
        "hand": "right"
      },
      {
        "midi": 64,
        "time": 82.5,
        "duration": 0.167,
        "velocity": 0.63,
        "hand": "right"
      },
      {
        "midi": 64,
        "time": 82.667,
        "duration": 0.333,
        "velocity": 0.63,
        "hand": "right"
      },
      {
        "midi": 64,
        "time": 83,
        "duration": 0.167,
        "velocity": 0.63,
        "hand": "right"
      },
      {
        "midi": 64,
        "time": 83.167,
        "duration": 0.167,
        "velocity": 0.63,
        "hand": "right"
      },
      {
        "midi": 64,
        "time": 83.333,
        "duration": 0.167,
        "velocity": 0.63,
        "hand": "right"
      },
      {
        "midi": 64,
        "time": 83.5,
        "duration": 0.167,
        "velocity": 0.63,
        "hand": "right"
      },
      {
        "midi": 64,
        "time": 83.667,
        "duration": 0.333,
        "velocity": 0.63,
        "hand": "right"
      },
      {
        "midi": 67,
        "time": 84,
        "duration": 3,
        "velocity": 0.63,
        "hand": "right"
      },
      {
        "midi": 64,
        "time": 84.167,
        "duration": 0.167,
        "velocity": 0.63,
        "hand": "right"
      },
      {
        "midi": 64,
        "time": 84.333,
        "duration": 0.167,
        "velocity": 0.63,
        "hand": "right"
      },
      {
        "midi": 64,
        "time": 84.5,
        "duration": 0.167,
        "velocity": 0.63,
        "hand": "right"
      },
      {
        "midi": 64,
        "time": 84.667,
        "duration": 0.167,
        "velocity": 0.63,
        "hand": "right"
      },
      {
        "midi": 62,
        "time": 84.833,
        "duration": 0.167,
        "velocity": 0.63,
        "hand": "right"
      },
      {
        "midi": 40,
        "time": 85,
        "duration": 0.917,
        "velocity": 0.63,
        "hand": "right"
      },
      {
        "midi": 64,
        "time": 86,
        "duration": 0.167,
        "velocity": 0.63,
        "hand": "right"
      },
      {
        "midi": 64,
        "time": 86.167,
        "duration": 0.167,
        "velocity": 0.63,
        "hand": "right"
      },
      {
        "midi": 64,
        "time": 86.333,
        "duration": 0.167,
        "velocity": 0.63,
        "hand": "right"
      },
      {
        "midi": 64,
        "time": 86.5,
        "duration": 0.167,
        "velocity": 0.63,
        "hand": "right"
      },
      {
        "midi": 64,
        "time": 86.667,
        "duration": 0.333,
        "velocity": 0.63,
        "hand": "right"
      },
      {
        "midi": 67,
        "time": 87,
        "duration": 1,
        "velocity": 0.63,
        "hand": "right"
      },
      {
        "midi": 64,
        "time": 87.167,
        "duration": 0.167,
        "velocity": 0.63,
        "hand": "right"
      },
      {
        "midi": 64,
        "time": 87.333,
        "duration": 0.167,
        "velocity": 0.63,
        "hand": "right"
      },
      {
        "midi": 64,
        "time": 87.5,
        "duration": 0.167,
        "velocity": 0.63,
        "hand": "right"
      },
      {
        "midi": 64,
        "time": 87.667,
        "duration": 0.333,
        "velocity": 0.63,
        "hand": "right"
      },
      {
        "midi": 69,
        "time": 88,
        "duration": 4,
        "velocity": 0.63,
        "hand": "right"
      },
      {
        "midi": 62,
        "time": 88.167,
        "duration": 0.167,
        "velocity": 0.63,
        "hand": "right"
      },
      {
        "midi": 64,
        "time": 88.333,
        "duration": 0.167,
        "velocity": 0.63,
        "hand": "right"
      },
      {
        "midi": 62,
        "time": 88.5,
        "duration": 0.167,
        "velocity": 0.63,
        "hand": "right"
      },
      {
        "midi": 64,
        "time": 88.667,
        "duration": 0.167,
        "velocity": 0.63,
        "hand": "right"
      },
      {
        "midi": 62,
        "time": 88.833,
        "duration": 0.167,
        "velocity": 0.63,
        "hand": "right"
      },
      {
        "midi": 38,
        "time": 89,
        "duration": 0.917,
        "velocity": 0.63,
        "hand": "right"
      },
      {
        "midi": 64,
        "time": 90,
        "duration": 0.167,
        "velocity": 0.63,
        "hand": "right"
      },
      {
        "midi": 62,
        "time": 90.167,
        "duration": 0.167,
        "velocity": 0.63,
        "hand": "right"
      },
      {
        "midi": 64,
        "time": 90.333,
        "duration": 0.167,
        "velocity": 0.63,
        "hand": "right"
      },
      {
        "midi": 62,
        "time": 90.5,
        "duration": 0.167,
        "velocity": 0.63,
        "hand": "right"
      },
      {
        "midi": 64,
        "time": 90.667,
        "duration": 0.167,
        "velocity": 0.63,
        "hand": "right"
      },
      {
        "midi": 62,
        "time": 90.833,
        "duration": 0.167,
        "velocity": 0.63,
        "hand": "right"
      },
      {
        "midi": 38,
        "time": 91,
        "duration": 0.917,
        "velocity": 0.63,
        "hand": "right"
      },
      {
        "midi": 71,
        "time": 92,
        "duration": 4,
        "velocity": 0.63,
        "hand": "right"
      },
      {
        "midi": 64,
        "time": 92.167,
        "duration": 0.167,
        "velocity": 0.63,
        "hand": "right"
      },
      {
        "midi": 64,
        "time": 92.333,
        "duration": 0.167,
        "velocity": 0.63,
        "hand": "right"
      },
      {
        "midi": 64,
        "time": 92.5,
        "duration": 0.111,
        "velocity": 0.63,
        "hand": "right"
      },
      {
        "midi": 62,
        "time": 92.667,
        "duration": 0.167,
        "velocity": 0.63,
        "hand": "right"
      },
      {
        "midi": 62,
        "time": 92.833,
        "duration": 0.167,
        "velocity": 0.63,
        "hand": "right"
      },
      {
        "midi": 64,
        "time": 93,
        "duration": 0.167,
        "velocity": 0.63,
        "hand": "right"
      },
      {
        "midi": 64,
        "time": 93.167,
        "duration": 0.167,
        "velocity": 0.63,
        "hand": "right"
      },
      {
        "midi": 64,
        "time": 93.333,
        "duration": 0.167,
        "velocity": 0.63,
        "hand": "right"
      },
      {
        "midi": 64,
        "time": 93.5,
        "duration": 0.111,
        "velocity": 0.63,
        "hand": "right"
      },
      {
        "midi": 62,
        "time": 93.667,
        "duration": 0.167,
        "velocity": 0.63,
        "hand": "right"
      },
      {
        "midi": 62,
        "time": 93.833,
        "duration": 0.167,
        "velocity": 0.63,
        "hand": "right"
      },
      {
        "midi": 64,
        "time": 94,
        "duration": 0.167,
        "velocity": 0.63,
        "hand": "right"
      },
      {
        "midi": 64,
        "time": 94.167,
        "duration": 0.167,
        "velocity": 0.63,
        "hand": "right"
      },
      {
        "midi": 64,
        "time": 94.333,
        "duration": 0.333,
        "velocity": 0.63,
        "hand": "right"
      },
      {
        "midi": 62,
        "time": 94.667,
        "duration": 0.167,
        "velocity": 0.63,
        "hand": "right"
      },
      {
        "midi": 60,
        "time": 94.833,
        "duration": 0.5,
        "velocity": 0.63,
        "hand": "right"
      },
      {
        "midi": 36,
        "time": 95,
        "duration": 0.917,
        "velocity": 0.63,
        "hand": "right"
      },
      {
        "midi": 64,
        "time": 95.333,
        "duration": 0.333,
        "velocity": 0.63,
        "hand": "right"
      },
      {
        "midi": 67,
        "time": 95.667,
        "duration": 0.333,
        "velocity": 0.63,
        "hand": "right"
      },
      {
        "midi": 69,
        "time": 96,
        "duration": 0.917,
        "velocity": 0.63,
        "hand": "right"
      },
      {
        "midi": 48,
        "time": 97,
        "duration": 0.917,
        "velocity": 0.63,
        "hand": "right"
      },
      {
        "midi": 69,
        "time": 97.333,
        "duration": 0.333,
        "velocity": 0.63,
        "hand": "right"
      },
      {
        "midi": 71,
        "time": 97.667,
        "duration": 0.167,
        "velocity": 0.63,
        "hand": "right"
      },
      {
        "midi": 72,
        "time": 97.833,
        "duration": 1.083,
        "velocity": 0.63,
        "hand": "right"
      },
      {
        "midi": 41,
        "time": 98,
        "duration": 0.917,
        "velocity": 0.63,
        "hand": "right"
      },
      {
        "midi": 48,
        "time": 99,
        "duration": 0.917,
        "velocity": 0.63,
        "hand": "right"
      },
      {
        "midi": 69,
        "time": 99.333,
        "duration": 0.333,
        "velocity": 0.63,
        "hand": "right"
      },
      {
        "midi": 72,
        "time": 99.667,
        "duration": 0.333,
        "velocity": 0.63,
        "hand": "right"
      },
      {
        "midi": 71,
        "time": 100,
        "duration": 0.333,
        "velocity": 0.63,
        "hand": "right"
      },
      {
        "midi": 69,
        "time": 100.333,
        "duration": 0.333,
        "velocity": 0.63,
        "hand": "right"
      },
      {
        "midi": 67,
        "time": 100.667,
        "duration": 0.333,
        "velocity": 0.63,
        "hand": "right"
      },
      {
        "midi": 67,
        "time": 101,
        "duration": 0.667,
        "velocity": 0.63,
        "hand": "right"
      },
      {
        "midi": 64,
        "time": 101.667,
        "duration": 0.333,
        "velocity": 0.63,
        "hand": "right"
      },
      {
        "midi": 71,
        "time": 102,
        "duration": 0.333,
        "velocity": 0.63,
        "hand": "right"
      },
      {
        "midi": 69,
        "time": 102.333,
        "duration": 0.333,
        "velocity": 0.63,
        "hand": "right"
      },
      {
        "midi": 67,
        "time": 102.667,
        "duration": 0.333,
        "velocity": 0.63,
        "hand": "right"
      },
      {
        "midi": 71,
        "time": 103,
        "duration": 0.333,
        "velocity": 0.63,
        "hand": "right"
      },
      {
        "midi": 69,
        "time": 103.333,
        "duration": 0.333,
        "velocity": 0.63,
        "hand": "right"
      },
      {
        "midi": 67,
        "time": 103.667,
        "duration": 0.333,
        "velocity": 0.63,
        "hand": "right"
      },
      {
        "midi": 69,
        "time": 104,
        "duration": 4,
        "velocity": 0.63,
        "hand": "right"
      },
      {
        "midi": 65,
        "time": 104.167,
        "duration": 1.75,
        "velocity": 0.63,
        "hand": "right"
      },
      {
        "midi": 45,
        "time": 105,
        "duration": 0.917,
        "velocity": 0.63,
        "hand": "right"
      },
      {
        "midi": 38,
        "time": 106,
        "duration": 0.917,
        "velocity": 0.63,
        "hand": "right"
      },
      {
        "midi": 60,
        "time": 106.667,
        "duration": 0.333,
        "velocity": 0.63,
        "hand": "right"
      },
      {
        "midi": 67,
        "time": 107,
        "duration": 0.333,
        "velocity": 0.63,
        "hand": "right"
      },
      {
        "midi": 65,
        "time": 107.333,
        "duration": 0.333,
        "velocity": 0.63,
        "hand": "right"
      },
      {
        "midi": 64,
        "time": 107.667,
        "duration": 0.167,
        "velocity": 0.63,
        "hand": "right"
      },
      {
        "midi": 64,
        "time": 107.833,
        "duration": 1.083,
        "velocity": 0.63,
        "hand": "right"
      },
      {
        "midi": 71,
        "time": 108,
        "duration": 4,
        "velocity": 0.63,
        "hand": "right"
      },
      {
        "midi": 43,
        "time": 109,
        "duration": 0.917,
        "velocity": 0.63,
        "hand": "right"
      },
      {
        "midi": 64,
        "time": 110,
        "duration": 0.167,
        "velocity": 0.63,
        "hand": "right"
      },
      {
        "midi": 64,
        "time": 110.167,
        "duration": 0.167,
        "velocity": 0.63,
        "hand": "right"
      },
      {
        "midi": 64,
        "time": 110.333,
        "duration": 0.333,
        "velocity": 0.63,
        "hand": "right"
      },
      {
        "midi": 62,
        "time": 110.667,
        "duration": 0.167,
        "velocity": 0.63,
        "hand": "right"
      },
      {
        "midi": 60,
        "time": 110.833,
        "duration": 0.5,
        "velocity": 0.63,
        "hand": "right"
      },
      {
        "midi": 43,
        "time": 111,
        "duration": 0.917,
        "velocity": 0.63,
        "hand": "right"
      },
      {
        "midi": 64,
        "time": 111.333,
        "duration": 0.333,
        "velocity": 0.63,
        "hand": "right"
      },
      {
        "midi": 67,
        "time": 111.667,
        "duration": 0.333,
        "velocity": 0.63,
        "hand": "right"
      },
      {
        "midi": 69,
        "time": 112,
        "duration": 0.917,
        "velocity": 0.63,
        "hand": "right"
      },
      {
        "midi": 48,
        "time": 113,
        "duration": 0.917,
        "velocity": 0.63,
        "hand": "right"
      },
      {
        "midi": 69,
        "time": 113.333,
        "duration": 0.333,
        "velocity": 0.63,
        "hand": "right"
      },
      {
        "midi": 71,
        "time": 113.667,
        "duration": 0.167,
        "velocity": 0.63,
        "hand": "right"
      },
      {
        "midi": 72,
        "time": 113.833,
        "duration": 1.083,
        "velocity": 0.63,
        "hand": "right"
      },
      {
        "midi": 41,
        "time": 114,
        "duration": 0.917,
        "velocity": 0.63,
        "hand": "right"
      },
      {
        "midi": 48,
        "time": 115,
        "duration": 0.917,
        "velocity": 0.63,
        "hand": "right"
      },
      {
        "midi": 69,
        "time": 115.333,
        "duration": 0.333,
        "velocity": 0.63,
        "hand": "right"
      },
      {
        "midi": 72,
        "time": 115.667,
        "duration": 0.333,
        "velocity": 0.63,
        "hand": "right"
      },
      {
        "midi": 71,
        "time": 116,
        "duration": 0.333,
        "velocity": 0.63,
        "hand": "right"
      },
      {
        "midi": 69,
        "time": 116.333,
        "duration": 0.333,
        "velocity": 0.63,
        "hand": "right"
      },
      {
        "midi": 67,
        "time": 116.667,
        "duration": 0.333,
        "velocity": 0.63,
        "hand": "right"
      },
      {
        "midi": 67,
        "time": 117,
        "duration": 0.667,
        "velocity": 0.63,
        "hand": "right"
      },
      {
        "midi": 64,
        "time": 117.667,
        "duration": 0.333,
        "velocity": 0.63,
        "hand": "right"
      },
      {
        "midi": 71,
        "time": 118,
        "duration": 0.333,
        "velocity": 0.63,
        "hand": "right"
      },
      {
        "midi": 69,
        "time": 118.333,
        "duration": 0.333,
        "velocity": 0.63,
        "hand": "right"
      },
      {
        "midi": 67,
        "time": 118.667,
        "duration": 0.333,
        "velocity": 0.63,
        "hand": "right"
      },
      {
        "midi": 71,
        "time": 119,
        "duration": 0.333,
        "velocity": 0.63,
        "hand": "right"
      },
      {
        "midi": 69,
        "time": 119.333,
        "duration": 0.333,
        "velocity": 0.63,
        "hand": "right"
      },
      {
        "midi": 67,
        "time": 119.667,
        "duration": 0.333,
        "velocity": 0.63,
        "hand": "right"
      },
      {
        "midi": 69,
        "time": 120,
        "duration": 4,
        "velocity": 0.63,
        "hand": "right"
      },
      {
        "midi": 65,
        "time": 120.167,
        "duration": 1.75,
        "velocity": 0.63,
        "hand": "right"
      },
      {
        "midi": 45,
        "time": 121,
        "duration": 0.917,
        "velocity": 0.63,
        "hand": "right"
      },
      {
        "midi": 38,
        "time": 122,
        "duration": 0.917,
        "velocity": 0.63,
        "hand": "right"
      },
      {
        "midi": 60,
        "time": 122.667,
        "duration": 0.333,
        "velocity": 0.63,
        "hand": "right"
      },
      {
        "midi": 67,
        "time": 123,
        "duration": 0.333,
        "velocity": 0.63,
        "hand": "right"
      },
      {
        "midi": 65,
        "time": 123.333,
        "duration": 0.333,
        "velocity": 0.63,
        "hand": "right"
      },
      {
        "midi": 64,
        "time": 123.667,
        "duration": 0.333,
        "velocity": 0.63,
        "hand": "right"
      },
      {
        "midi": 71,
        "time": 124,
        "duration": 4,
        "velocity": 0.63,
        "hand": "right"
      },
      {
        "midi": 40,
        "time": 124.333,
        "duration": 0.333,
        "velocity": 0.63,
        "hand": "right"
      },
      {
        "midi": 40,
        "time": 124.667,
        "duration": 0.333,
        "velocity": 0.63,
        "hand": "right"
      },
      {
        "midi": 69,
        "time": 125,
        "duration": 0.917,
        "velocity": 0.63,
        "hand": "right"
      },
      {
        "midi": 40,
        "time": 125.333,
        "duration": 0.333,
        "velocity": 0.63,
        "hand": "right"
      },
      {
        "midi": 40,
        "time": 125.667,
        "duration": 0.333,
        "velocity": 0.63,
        "hand": "right"
      },
      {
        "midi": 72,
        "time": 126,
        "duration": 0.917,
        "velocity": 0.63,
        "hand": "right"
      },
      {
        "midi": 40,
        "time": 126.333,
        "duration": 0.333,
        "velocity": 0.63,
        "hand": "right"
      },
      {
        "midi": 40,
        "time": 126.667,
        "duration": 0.333,
        "velocity": 0.63,
        "hand": "right"
      },
      {
        "midi": 74,
        "time": 127,
        "duration": 0.333,
        "velocity": 0.63,
        "hand": "right"
      },
      {
        "midi": 76,
        "time": 128,
        "duration": 3.833,
        "velocity": 0.63,
        "hand": "right"
      },
      {
        "midi": 48,
        "time": 129,
        "duration": 0.917,
        "velocity": 0.63,
        "hand": "right"
      },
      {
        "midi": 57,
        "time": 130,
        "duration": 0.917,
        "velocity": 0.63,
        "hand": "right"
      },
      {
        "midi": 60,
        "time": 131,
        "duration": 0.917,
        "velocity": 0.63,
        "hand": "right"
      },
      {
        "midi": 69,
        "time": 132,
        "duration": 0.917,
        "velocity": 0.63,
        "hand": "right"
      },
      {
        "midi": 71,
        "time": 133,
        "duration": 0.917,
        "velocity": 0.63,
        "hand": "right"
      },
      {
        "midi": 79,
        "time": 134,
        "duration": 0.917,
        "velocity": 0.63,
        "hand": "right"
      },
      {
        "midi": 77,
        "time": 135,
        "duration": 0.917,
        "velocity": 0.63,
        "hand": "right"
      },
      {
        "midi": 76,
        "time": 136,
        "duration": 2.333,
        "velocity": 0.63,
        "hand": "right"
      },
      {
        "midi": 43,
        "time": 137,
        "duration": 0.917,
        "velocity": 0.63,
        "hand": "right"
      },
      {
        "midi": 55,
        "time": 138,
        "duration": 0.917,
        "velocity": 0.63,
        "hand": "right"
      },
      {
        "midi": 74,
        "time": 138.333,
        "duration": 0.667,
        "velocity": 0.63,
        "hand": "right"
      },
      {
        "midi": 59,
        "time": 139,
        "duration": 0.917,
        "velocity": 0.63,
        "hand": "right"
      },
      {
        "midi": 69,
        "time": 139.333,
        "duration": 0.333,
        "velocity": 0.63,
        "hand": "right"
      },
      {
        "midi": 72,
        "time": 139.667,
        "duration": 0.333,
        "velocity": 0.63,
        "hand": "right"
      },
      {
        "midi": 71,
        "time": 140,
        "duration": 0.917,
        "velocity": 0.63,
        "hand": "right"
      },
      {
        "midi": 71,
        "time": 141,
        "duration": 0.917,
        "velocity": 0.63,
        "hand": "right"
      },
      {
        "midi": 72,
        "time": 142,
        "duration": 0.917,
        "velocity": 0.63,
        "hand": "right"
      },
      {
        "midi": 74,
        "time": 143,
        "duration": 0.917,
        "velocity": 0.63,
        "hand": "right"
      },
      {
        "midi": 76,
        "time": 144,
        "duration": 3.833,
        "velocity": 0.63,
        "hand": "right"
      },
      {
        "midi": 48,
        "time": 145,
        "duration": 0.917,
        "velocity": 0.63,
        "hand": "right"
      },
      {
        "midi": 57,
        "time": 146,
        "duration": 0.917,
        "velocity": 0.63,
        "hand": "right"
      },
      {
        "midi": 60,
        "time": 147,
        "duration": 0.917,
        "velocity": 0.63,
        "hand": "right"
      },
      {
        "midi": 69,
        "time": 148,
        "duration": 0.917,
        "velocity": 0.63,
        "hand": "right"
      },
      {
        "midi": 71,
        "time": 149,
        "duration": 0.917,
        "velocity": 0.63,
        "hand": "right"
      },
      {
        "midi": 79,
        "time": 150,
        "duration": 0.917,
        "velocity": 0.63,
        "hand": "right"
      },
      {
        "midi": 77,
        "time": 151,
        "duration": 0.917,
        "velocity": 0.63,
        "hand": "right"
      },
      {
        "midi": 76,
        "time": 152,
        "duration": 2.833,
        "velocity": 0.63,
        "hand": "right"
      },
      {
        "midi": 43,
        "time": 153,
        "duration": 0.917,
        "velocity": 0.63,
        "hand": "right"
      },
      {
        "midi": 55,
        "time": 154,
        "duration": 0.917,
        "velocity": 0.63,
        "hand": "right"
      },
      {
        "midi": 59,
        "time": 155,
        "duration": 0.917,
        "velocity": 0.63,
        "hand": "right"
      },
      {
        "midi": 69,
        "time": 155.333,
        "duration": 0.333,
        "velocity": 0.63,
        "hand": "right"
      },
      {
        "midi": 72,
        "time": 155.667,
        "duration": 0.333,
        "velocity": 0.63,
        "hand": "right"
      },
      {
        "midi": 71,
        "time": 156,
        "duration": 2,
        "velocity": 0.63,
        "hand": "right"
      },
      {
        "midi": 43,
        "time": 157,
        "duration": 0.917,
        "velocity": 0.63,
        "hand": "right"
      },
      {
        "midi": 70,
        "time": 158,
        "duration": 0.917,
        "velocity": 0.63,
        "hand": "right"
      },
      {
        "midi": 70,
        "time": 159,
        "duration": 0.917,
        "velocity": 0.63,
        "hand": "right"
      },
      {
        "midi": 76,
        "time": 160,
        "duration": 3.833,
        "velocity": 0.63,
        "hand": "right"
      },
      {
        "midi": 55,
        "time": 160.667,
        "duration": 0.333,
        "velocity": 0.63,
        "hand": "right"
      },
      {
        "midi": 53,
        "time": 161,
        "duration": 0.667,
        "velocity": 0.63,
        "hand": "right"
      },
      {
        "midi": 55,
        "time": 161.667,
        "duration": 0.333,
        "velocity": 0.63,
        "hand": "right"
      },
      {
        "midi": 53,
        "time": 162,
        "duration": 0.667,
        "velocity": 0.63,
        "hand": "right"
      },
      {
        "midi": 55,
        "time": 162.667,
        "duration": 0.333,
        "velocity": 0.63,
        "hand": "right"
      },
      {
        "midi": 53,
        "time": 163,
        "duration": 0.667,
        "velocity": 0.63,
        "hand": "right"
      },
      {
        "midi": 55,
        "time": 163.667,
        "duration": 0.333,
        "velocity": 0.63,
        "hand": "right"
      },
      {
        "midi": 69,
        "time": 164,
        "duration": 0.917,
        "velocity": 0.63,
        "hand": "right"
      },
      {
        "midi": 71,
        "time": 165,
        "duration": 0.917,
        "velocity": 0.63,
        "hand": "right"
      },
      {
        "midi": 79,
        "time": 166,
        "duration": 0.917,
        "velocity": 0.63,
        "hand": "right"
      },
      {
        "midi": 77,
        "time": 167,
        "duration": 0.917,
        "velocity": 0.63,
        "hand": "right"
      },
      {
        "midi": 76,
        "time": 168,
        "duration": 2.833,
        "velocity": 0.63,
        "hand": "right"
      },
      {
        "midi": 48,
        "time": 169,
        "duration": 0.917,
        "velocity": 0.63,
        "hand": "right"
      },
      {
        "midi": 48,
        "time": 170,
        "duration": 0.917,
        "velocity": 0.63,
        "hand": "right"
      },
      {
        "midi": 71,
        "time": 171,
        "duration": 0.167,
        "velocity": 0.63,
        "hand": "right"
      },
      {
        "midi": 72,
        "time": 171.167,
        "duration": 0.167,
        "velocity": 0.63,
        "hand": "right"
      },
      {
        "midi": 74,
        "time": 171.333,
        "duration": 0.167,
        "velocity": 0.63,
        "hand": "right"
      },
      {
        "midi": 76,
        "time": 171.5,
        "duration": 0.167,
        "velocity": 0.63,
        "hand": "right"
      },
      {
        "midi": 74,
        "time": 171.667,
        "duration": 0.167,
        "velocity": 0.63,
        "hand": "right"
      },
      {
        "midi": 72,
        "time": 171.833,
        "duration": 0.167,
        "velocity": 0.63,
        "hand": "right"
      },
      {
        "midi": 71,
        "time": 172,
        "duration": 0.167,
        "velocity": 0.63,
        "hand": "right"
      },
      {
        "midi": 72,
        "time": 172.167,
        "duration": 0.167,
        "velocity": 0.63,
        "hand": "right"
      },
      {
        "midi": 74,
        "time": 172.333,
        "duration": 0.167,
        "velocity": 0.63,
        "hand": "right"
      },
      {
        "midi": 76,
        "time": 172.5,
        "duration": 0.167,
        "velocity": 0.63,
        "hand": "right"
      },
      {
        "midi": 74,
        "time": 172.667,
        "duration": 0.167,
        "velocity": 0.63,
        "hand": "right"
      },
      {
        "midi": 72,
        "time": 172.833,
        "duration": 0.167,
        "velocity": 0.63,
        "hand": "right"
      },
      {
        "midi": 71,
        "time": 173,
        "duration": 0.917,
        "velocity": 0.63,
        "hand": "right"
      },
      {
        "midi": 72,
        "time": 174,
        "duration": 0.917,
        "velocity": 0.63,
        "hand": "right"
      },
      {
        "midi": 74,
        "time": 175,
        "duration": 0.917,
        "velocity": 0.63,
        "hand": "right"
      },
      {
        "midi": 76,
        "time": 176,
        "duration": 2.833,
        "velocity": 0.63,
        "hand": "right"
      },
      {
        "midi": 48,
        "time": 177,
        "duration": 0.917,
        "velocity": 0.63,
        "hand": "right"
      },
      {
        "midi": 57,
        "time": 178,
        "duration": 0.917,
        "velocity": 0.63,
        "hand": "right"
      },
      {
        "midi": 74,
        "time": 179,
        "duration": 0.167,
        "velocity": 0.63,
        "hand": "right"
      },
      {
        "midi": 76,
        "time": 179.167,
        "duration": 0.167,
        "velocity": 0.63,
        "hand": "right"
      },
      {
        "midi": 79,
        "time": 179.333,
        "duration": 0.167,
        "velocity": 0.63,
        "hand": "right"
      },
      {
        "midi": 81,
        "time": 179.5,
        "duration": 0.167,
        "velocity": 0.63,
        "hand": "right"
      },
      {
        "midi": 79,
        "time": 179.667,
        "duration": 0.167,
        "velocity": 0.63,
        "hand": "right"
      },
      {
        "midi": 76,
        "time": 179.833,
        "duration": 0.167,
        "velocity": 0.63,
        "hand": "right"
      },
      {
        "midi": 69,
        "time": 180,
        "duration": 0.917,
        "velocity": 0.63,
        "hand": "right"
      },
      {
        "midi": 71,
        "time": 181,
        "duration": 0.917,
        "velocity": 0.63,
        "hand": "right"
      },
      {
        "midi": 79,
        "time": 182,
        "duration": 0.917,
        "velocity": 0.63,
        "hand": "right"
      },
      {
        "midi": 77,
        "time": 183,
        "duration": 0.917,
        "velocity": 0.63,
        "hand": "right"
      },
      {
        "midi": 76,
        "time": 184,
        "duration": 0.917,
        "velocity": 0.63,
        "hand": "right"
      },
      {
        "midi": 71,
        "time": 185,
        "duration": 0.167,
        "velocity": 0.63,
        "hand": "right"
      },
      {
        "midi": 72,
        "time": 185.167,
        "duration": 0.167,
        "velocity": 0.63,
        "hand": "right"
      },
      {
        "midi": 74,
        "time": 185.333,
        "duration": 0.167,
        "velocity": 0.63,
        "hand": "right"
      },
      {
        "midi": 76,
        "time": 185.5,
        "duration": 0.167,
        "velocity": 0.63,
        "hand": "right"
      },
      {
        "midi": 74,
        "time": 185.667,
        "duration": 0.167,
        "velocity": 0.63,
        "hand": "right"
      },
      {
        "midi": 72,
        "time": 185.833,
        "duration": 0.167,
        "velocity": 0.63,
        "hand": "right"
      },
      {
        "midi": 71,
        "time": 186,
        "duration": 0.167,
        "velocity": 0.63,
        "hand": "right"
      },
      {
        "midi": 72,
        "time": 186.167,
        "duration": 0.167,
        "velocity": 0.63,
        "hand": "right"
      },
      {
        "midi": 74,
        "time": 186.333,
        "duration": 0.167,
        "velocity": 0.63,
        "hand": "right"
      },
      {
        "midi": 76,
        "time": 186.5,
        "duration": 0.167,
        "velocity": 0.63,
        "hand": "right"
      },
      {
        "midi": 74,
        "time": 186.667,
        "duration": 0.167,
        "velocity": 0.63,
        "hand": "right"
      },
      {
        "midi": 72,
        "time": 186.833,
        "duration": 0.167,
        "velocity": 0.63,
        "hand": "right"
      },
      {
        "midi": 71,
        "time": 187,
        "duration": 0.167,
        "velocity": 0.63,
        "hand": "right"
      },
      {
        "midi": 72,
        "time": 187.167,
        "duration": 0.167,
        "velocity": 0.63,
        "hand": "right"
      },
      {
        "midi": 74,
        "time": 187.333,
        "duration": 0.167,
        "velocity": 0.63,
        "hand": "right"
      },
      {
        "midi": 76,
        "time": 187.5,
        "duration": 0.167,
        "velocity": 0.63,
        "hand": "right"
      },
      {
        "midi": 74,
        "time": 187.667,
        "duration": 0.167,
        "velocity": 0.63,
        "hand": "right"
      },
      {
        "midi": 72,
        "time": 187.833,
        "duration": 0.167,
        "velocity": 0.63,
        "hand": "right"
      },
      {
        "midi": 71,
        "time": 188,
        "duration": 0.167,
        "velocity": 0.63,
        "hand": "right"
      },
      {
        "midi": 72,
        "time": 188.167,
        "duration": 0.167,
        "velocity": 0.63,
        "hand": "right"
      },
      {
        "midi": 74,
        "time": 188.333,
        "duration": 0.167,
        "velocity": 0.63,
        "hand": "right"
      },
      {
        "midi": 76,
        "time": 188.5,
        "duration": 0.167,
        "velocity": 0.63,
        "hand": "right"
      },
      {
        "midi": 74,
        "time": 188.667,
        "duration": 0.167,
        "velocity": 0.63,
        "hand": "right"
      },
      {
        "midi": 72,
        "time": 188.833,
        "duration": 0.167,
        "velocity": 0.63,
        "hand": "right"
      },
      {
        "midi": 71,
        "time": 189,
        "duration": 0.167,
        "velocity": 0.63,
        "hand": "right"
      },
      {
        "midi": 72,
        "time": 189.167,
        "duration": 0.167,
        "velocity": 0.63,
        "hand": "right"
      },
      {
        "midi": 74,
        "time": 189.333,
        "duration": 0.167,
        "velocity": 0.63,
        "hand": "right"
      },
      {
        "midi": 76,
        "time": 189.5,
        "duration": 0.167,
        "velocity": 0.63,
        "hand": "right"
      },
      {
        "midi": 74,
        "time": 189.667,
        "duration": 0.167,
        "velocity": 0.63,
        "hand": "right"
      },
      {
        "midi": 72,
        "time": 189.833,
        "duration": 0.167,
        "velocity": 0.63,
        "hand": "right"
      },
      {
        "midi": 70,
        "time": 190,
        "duration": 0.167,
        "velocity": 0.63,
        "hand": "right"
      },
      {
        "midi": 72,
        "time": 190.167,
        "duration": 0.167,
        "velocity": 0.63,
        "hand": "right"
      },
      {
        "midi": 74,
        "time": 190.333,
        "duration": 0.167,
        "velocity": 0.63,
        "hand": "right"
      },
      {
        "midi": 76,
        "time": 190.5,
        "duration": 0.167,
        "velocity": 0.63,
        "hand": "right"
      },
      {
        "midi": 74,
        "time": 190.667,
        "duration": 0.167,
        "velocity": 0.63,
        "hand": "right"
      },
      {
        "midi": 72,
        "time": 190.833,
        "duration": 0.167,
        "velocity": 0.63,
        "hand": "right"
      },
      {
        "midi": 70,
        "time": 191,
        "duration": 0.917,
        "velocity": 0.63,
        "hand": "right"
      },
      {
        "midi": 76,
        "time": 192,
        "duration": 0.917,
        "velocity": 0.63,
        "hand": "right"
      },
      {
        "midi": 72,
        "time": 193,
        "duration": 0.917,
        "velocity": 0.63,
        "hand": "right"
      },
      {
        "midi": 69,
        "time": 194,
        "duration": 1.917,
        "velocity": 0.63,
        "hand": "right"
      },
      {
        "midi": 76,
        "time": 196,
        "duration": 0.917,
        "velocity": 0.63,
        "hand": "right"
      },
      {
        "midi": 71,
        "time": 197,
        "duration": 0.917,
        "velocity": 0.63,
        "hand": "right"
      },
      {
        "midi": 67,
        "time": 198,
        "duration": 1.917,
        "velocity": 0.63,
        "hand": "right"
      },
      {
        "midi": 74,
        "time": 200,
        "duration": 0.917,
        "velocity": 0.63,
        "hand": "right"
      },
      {
        "midi": 70,
        "time": 201,
        "duration": 0.917,
        "velocity": 0.63,
        "hand": "right"
      },
      {
        "midi": 69,
        "time": 202,
        "duration": 0.917,
        "velocity": 0.63,
        "hand": "right"
      },
      {
        "midi": 65,
        "time": 203,
        "duration": 0.917,
        "velocity": 0.63,
        "hand": "right"
      },
      {
        "midi": 74,
        "time": 204,
        "duration": 0.917,
        "velocity": 0.63,
        "hand": "right"
      },
      {
        "midi": 70,
        "time": 205,
        "duration": 0.917,
        "velocity": 0.63,
        "hand": "right"
      },
      {
        "midi": 69,
        "time": 206,
        "duration": 1.917,
        "velocity": 0.63,
        "hand": "right"
      },
      {
        "midi": 72,
        "time": 208,
        "duration": 0.917,
        "velocity": 0.63,
        "hand": "right"
      },
      {
        "midi": 67,
        "time": 209,
        "duration": 0.917,
        "velocity": 0.63,
        "hand": "right"
      },
      {
        "midi": 72,
        "time": 210,
        "duration": 0.917,
        "velocity": 0.63,
        "hand": "right"
      },
      {
        "midi": 75,
        "time": 211,
        "duration": 0.917,
        "velocity": 0.63,
        "hand": "right"
      },
      {
        "midi": 74,
        "time": 212,
        "duration": 1.417,
        "velocity": 0.39,
        "hand": "right"
      },
      {
        "midi": 66,
        "time": 213.5,
        "duration": 0.75,
        "velocity": 0.39,
        "hand": "right"
      },
      {
        "midi": 69,
        "time": 214.25,
        "duration": 0.75,
        "velocity": 0.39,
        "hand": "right"
      },
      {
        "midi": 72,
        "time": 215,
        "duration": 1.417,
        "velocity": 0.39,
        "hand": "right"
      },
      {
        "midi": 74,
        "time": 216.5,
        "duration": 0.333,
        "velocity": 0.39,
        "hand": "right"
      },
      {
        "midi": 69,
        "time": 216.833,
        "duration": 0.333,
        "velocity": 0.39,
        "hand": "right"
      },
      {
        "midi": 78,
        "time": 217.25,
        "duration": 0.75,
        "velocity": 0.39,
        "hand": "right"
      },
      {
        "midi": 81,
        "time": 218,
        "duration": 1.417,
        "velocity": 0.39,
        "hand": "right"
      }
    ],
    "medium": [
      {
        "midi": 41,
        "time": 0,
        "duration": 4,
        "velocity": 0.63,
        "hand": "left"
      },
      {
        "midi": 65,
        "time": 0,
        "duration": 4,
        "velocity": 0.63,
        "hand": "right"
      },
      {
        "midi": 74,
        "time": 0,
        "duration": 0.167,
        "velocity": 0.63,
        "hand": "right"
      },
      {
        "midi": 76,
        "time": 0.167,
        "duration": 0.167,
        "velocity": 0.63,
        "hand": "right"
      },
      {
        "midi": 72,
        "time": 0.333,
        "duration": 1.583,
        "velocity": 0.63,
        "hand": "right"
      },
      {
        "midi": 79,
        "time": 0.333,
        "duration": 0.167,
        "velocity": 0.63,
        "hand": "right"
      },
      {
        "midi": 81,
        "time": 0.5,
        "duration": 0.167,
        "velocity": 0.63,
        "hand": "right"
      },
      {
        "midi": 79,
        "time": 0.667,
        "duration": 0.167,
        "velocity": 0.63,
        "hand": "right"
      },
      {
        "midi": 76,
        "time": 0.833,
        "duration": 0.167,
        "velocity": 0.63,
        "hand": "right"
      },
      {
        "midi": 74,
        "time": 1,
        "duration": 0.167,
        "velocity": 0.63,
        "hand": "right"
      },
      {
        "midi": 76,
        "time": 1.167,
        "duration": 0.167,
        "velocity": 0.63,
        "hand": "right"
      },
      {
        "midi": 79,
        "time": 1.333,
        "duration": 0.167,
        "velocity": 0.63,
        "hand": "right"
      },
      {
        "midi": 81,
        "time": 1.5,
        "duration": 0.167,
        "velocity": 0.63,
        "hand": "right"
      },
      {
        "midi": 79,
        "time": 1.667,
        "duration": 0.167,
        "velocity": 0.63,
        "hand": "right"
      },
      {
        "midi": 76,
        "time": 1.833,
        "duration": 0.167,
        "velocity": 0.63,
        "hand": "right"
      },
      {
        "midi": 65,
        "time": 2,
        "duration": 0.333,
        "velocity": 0.63,
        "hand": "right"
      },
      {
        "midi": 74,
        "time": 2,
        "duration": 0.167,
        "velocity": 0.63,
        "hand": "right"
      },
      {
        "midi": 76,
        "time": 2.167,
        "duration": 0.167,
        "velocity": 0.63,
        "hand": "right"
      },
      {
        "midi": 72,
        "time": 2.333,
        "duration": 0.667,
        "velocity": 0.63,
        "hand": "right"
      },
      {
        "midi": 79,
        "time": 2.333,
        "duration": 0.167,
        "velocity": 0.63,
        "hand": "right"
      },
      {
        "midi": 81,
        "time": 2.5,
        "duration": 0.167,
        "velocity": 0.63,
        "hand": "right"
      },
      {
        "midi": 79,
        "time": 2.667,
        "duration": 0.167,
        "velocity": 0.63,
        "hand": "right"
      },
      {
        "midi": 76,
        "time": 2.833,
        "duration": 0.167,
        "velocity": 0.63,
        "hand": "right"
      },
      {
        "midi": 65,
        "time": 3,
        "duration": 0.333,
        "velocity": 0.63,
        "hand": "right"
      },
      {
        "midi": 74,
        "time": 3,
        "duration": 0.167,
        "velocity": 0.63,
        "hand": "right"
      },
      {
        "midi": 76,
        "time": 3.167,
        "duration": 0.167,
        "velocity": 0.63,
        "hand": "right"
      },
      {
        "midi": 72,
        "time": 3.333,
        "duration": 0.667,
        "velocity": 0.63,
        "hand": "right"
      },
      {
        "midi": 79,
        "time": 3.333,
        "duration": 0.167,
        "velocity": 0.63,
        "hand": "right"
      },
      {
        "midi": 81,
        "time": 3.5,
        "duration": 0.167,
        "velocity": 0.63,
        "hand": "right"
      },
      {
        "midi": 79,
        "time": 3.667,
        "duration": 0.167,
        "velocity": 0.63,
        "hand": "right"
      },
      {
        "midi": 76,
        "time": 3.833,
        "duration": 0.167,
        "velocity": 0.63,
        "hand": "right"
      },
      {
        "midi": 40,
        "time": 4,
        "duration": 3,
        "velocity": 0.63,
        "hand": "left"
      },
      {
        "midi": 64,
        "time": 4,
        "duration": 0.333,
        "velocity": 0.63,
        "hand": "right"
      },
      {
        "midi": 72,
        "time": 4,
        "duration": 0.167,
        "velocity": 0.63,
        "hand": "right"
      },
      {
        "midi": 76,
        "time": 4.167,
        "duration": 0.167,
        "velocity": 0.63,
        "hand": "right"
      },
      {
        "midi": 71,
        "time": 4.333,
        "duration": 1.583,
        "velocity": 0.63,
        "hand": "right"
      },
      {
        "midi": 79,
        "time": 4.333,
        "duration": 0.167,
        "velocity": 0.63,
        "hand": "right"
      },
      {
        "midi": 81,
        "time": 4.5,
        "duration": 0.167,
        "velocity": 0.63,
        "hand": "right"
      },
      {
        "midi": 79,
        "time": 4.667,
        "duration": 0.167,
        "velocity": 0.63,
        "hand": "right"
      },
      {
        "midi": 76,
        "time": 4.833,
        "duration": 0.167,
        "velocity": 0.63,
        "hand": "right"
      },
      {
        "midi": 72,
        "time": 5,
        "duration": 0.167,
        "velocity": 0.63,
        "hand": "right"
      },
      {
        "midi": 76,
        "time": 5.167,
        "duration": 0.167,
        "velocity": 0.63,
        "hand": "right"
      },
      {
        "midi": 79,
        "time": 5.333,
        "duration": 0.167,
        "velocity": 0.63,
        "hand": "right"
      },
      {
        "midi": 81,
        "time": 5.5,
        "duration": 0.167,
        "velocity": 0.63,
        "hand": "right"
      },
      {
        "midi": 79,
        "time": 5.667,
        "duration": 0.167,
        "velocity": 0.63,
        "hand": "right"
      },
      {
        "midi": 76,
        "time": 5.833,
        "duration": 0.167,
        "velocity": 0.63,
        "hand": "right"
      },
      {
        "midi": 64,
        "time": 6,
        "duration": 0.333,
        "velocity": 0.63,
        "hand": "right"
      },
      {
        "midi": 72,
        "time": 6,
        "duration": 0.167,
        "velocity": 0.63,
        "hand": "right"
      },
      {
        "midi": 76,
        "time": 6.167,
        "duration": 0.167,
        "velocity": 0.63,
        "hand": "right"
      },
      {
        "midi": 71,
        "time": 6.333,
        "duration": 0.667,
        "velocity": 0.63,
        "hand": "right"
      },
      {
        "midi": 79,
        "time": 6.333,
        "duration": 0.167,
        "velocity": 0.63,
        "hand": "right"
      },
      {
        "midi": 81,
        "time": 6.5,
        "duration": 0.167,
        "velocity": 0.63,
        "hand": "right"
      },
      {
        "midi": 79,
        "time": 6.667,
        "duration": 0.167,
        "velocity": 0.63,
        "hand": "right"
      },
      {
        "midi": 76,
        "time": 6.833,
        "duration": 0.167,
        "velocity": 0.63,
        "hand": "right"
      },
      {
        "midi": 39,
        "time": 7,
        "duration": 1,
        "velocity": 0.63,
        "hand": "left"
      },
      {
        "midi": 64,
        "time": 7,
        "duration": 1,
        "velocity": 0.63,
        "hand": "right"
      },
      {
        "midi": 72,
        "time": 7,
        "duration": 0.167,
        "velocity": 0.63,
        "hand": "right"
      },
      {
        "midi": 76,
        "time": 7.167,
        "duration": 0.167,
        "velocity": 0.63,
        "hand": "right"
      },
      {
        "midi": 79,
        "time": 7.333,
        "duration": 0.167,
        "velocity": 0.63,
        "hand": "right"
      },
      {
        "midi": 81,
        "time": 7.5,
        "duration": 0.167,
        "velocity": 0.63,
        "hand": "right"
      },
      {
        "midi": 79,
        "time": 7.667,
        "duration": 0.167,
        "velocity": 0.63,
        "hand": "right"
      },
      {
        "midi": 76,
        "time": 7.833,
        "duration": 0.167,
        "velocity": 0.63,
        "hand": "right"
      },
      {
        "midi": 38,
        "time": 8,
        "duration": 4,
        "velocity": 0.63,
        "hand": "left"
      },
      {
        "midi": 62,
        "time": 8,
        "duration": 0.333,
        "velocity": 0.63,
        "hand": "right"
      },
      {
        "midi": 72,
        "time": 8,
        "duration": 0.167,
        "velocity": 0.63,
        "hand": "right"
      },
      {
        "midi": 74,
        "time": 8.167,
        "duration": 0.167,
        "velocity": 0.63,
        "hand": "right"
      },
      {
        "midi": 69,
        "time": 8.333,
        "duration": 1.583,
        "velocity": 0.63,
        "hand": "right"
      },
      {
        "midi": 77,
        "time": 8.333,
        "duration": 0.167,
        "velocity": 0.63,
        "hand": "right"
      },
      {
        "midi": 79,
        "time": 8.5,
        "duration": 0.167,
        "velocity": 0.63,
        "hand": "right"
      },
      {
        "midi": 77,
        "time": 8.667,
        "duration": 0.167,
        "velocity": 0.63,
        "hand": "right"
      },
      {
        "midi": 74,
        "time": 8.833,
        "duration": 0.167,
        "velocity": 0.63,
        "hand": "right"
      },
      {
        "midi": 72,
        "time": 9,
        "duration": 0.167,
        "velocity": 0.63,
        "hand": "right"
      },
      {
        "midi": 74,
        "time": 9.167,
        "duration": 0.167,
        "velocity": 0.63,
        "hand": "right"
      },
      {
        "midi": 77,
        "time": 9.333,
        "duration": 0.167,
        "velocity": 0.63,
        "hand": "right"
      },
      {
        "midi": 79,
        "time": 9.5,
        "duration": 0.167,
        "velocity": 0.63,
        "hand": "right"
      },
      {
        "midi": 77,
        "time": 9.667,
        "duration": 0.167,
        "velocity": 0.63,
        "hand": "right"
      },
      {
        "midi": 74,
        "time": 9.833,
        "duration": 0.167,
        "velocity": 0.63,
        "hand": "right"
      },
      {
        "midi": 62,
        "time": 10,
        "duration": 0.333,
        "velocity": 0.63,
        "hand": "right"
      },
      {
        "midi": 72,
        "time": 10,
        "duration": 0.167,
        "velocity": 0.63,
        "hand": "right"
      },
      {
        "midi": 74,
        "time": 10.167,
        "duration": 0.167,
        "velocity": 0.63,
        "hand": "right"
      },
      {
        "midi": 69,
        "time": 10.333,
        "duration": 0.667,
        "velocity": 0.63,
        "hand": "right"
      },
      {
        "midi": 77,
        "time": 10.333,
        "duration": 0.167,
        "velocity": 0.63,
        "hand": "right"
      },
      {
        "midi": 79,
        "time": 10.5,
        "duration": 0.167,
        "velocity": 0.63,
        "hand": "right"
      },
      {
        "midi": 77,
        "time": 10.667,
        "duration": 0.167,
        "velocity": 0.63,
        "hand": "right"
      },
      {
        "midi": 74,
        "time": 10.833,
        "duration": 0.167,
        "velocity": 0.63,
        "hand": "right"
      },
      {
        "midi": 62,
        "time": 11,
        "duration": 0.333,
        "velocity": 0.63,
        "hand": "right"
      },
      {
        "midi": 72,
        "time": 11,
        "duration": 0.167,
        "velocity": 0.63,
        "hand": "right"
      },
      {
        "midi": 74,
        "time": 11.167,
        "duration": 0.167,
        "velocity": 0.63,
        "hand": "right"
      },
      {
        "midi": 69,
        "time": 11.333,
        "duration": 0.667,
        "velocity": 0.63,
        "hand": "right"
      },
      {
        "midi": 77,
        "time": 11.333,
        "duration": 0.167,
        "velocity": 0.63,
        "hand": "right"
      },
      {
        "midi": 79,
        "time": 11.5,
        "duration": 0.167,
        "velocity": 0.63,
        "hand": "right"
      },
      {
        "midi": 77,
        "time": 11.667,
        "duration": 0.167,
        "velocity": 0.63,
        "hand": "right"
      },
      {
        "midi": 74,
        "time": 11.833,
        "duration": 0.167,
        "velocity": 0.63,
        "hand": "right"
      },
      {
        "midi": 36,
        "time": 12,
        "duration": 4,
        "velocity": 0.63,
        "hand": "left"
      },
      {
        "midi": 64,
        "time": 12,
        "duration": 4,
        "velocity": 0.63,
        "hand": "right"
      },
      {
        "midi": 71,
        "time": 12,
        "duration": 4,
        "velocity": 0.63,
        "hand": "right"
      },
      {
        "midi": 72,
        "time": 12.167,
        "duration": 0.167,
        "velocity": 0.63,
        "hand": "right"
      },
      {
        "midi": 67,
        "time": 12.333,
        "duration": 1.583,
        "velocity": 0.63,
        "hand": "right"
      },
      {
        "midi": 74,
        "time": 12.333,
        "duration": 0.167,
        "velocity": 0.63,
        "hand": "right"
      },
      {
        "midi": 76,
        "time": 12.5,
        "duration": 0.167,
        "velocity": 0.63,
        "hand": "right"
      },
      {
        "midi": 74,
        "time": 12.667,
        "duration": 0.167,
        "velocity": 0.63,
        "hand": "right"
      },
      {
        "midi": 72,
        "time": 12.833,
        "duration": 0.167,
        "velocity": 0.63,
        "hand": "right"
      },
      {
        "midi": 71,
        "time": 13,
        "duration": 0.167,
        "velocity": 0.63,
        "hand": "right"
      },
      {
        "midi": 72,
        "time": 13.167,
        "duration": 0.167,
        "velocity": 0.63,
        "hand": "right"
      },
      {
        "midi": 74,
        "time": 13.333,
        "duration": 0.167,
        "velocity": 0.63,
        "hand": "right"
      },
      {
        "midi": 76,
        "time": 13.5,
        "duration": 0.167,
        "velocity": 0.63,
        "hand": "right"
      },
      {
        "midi": 74,
        "time": 13.667,
        "duration": 0.167,
        "velocity": 0.63,
        "hand": "right"
      },
      {
        "midi": 72,
        "time": 13.833,
        "duration": 0.167,
        "velocity": 0.63,
        "hand": "right"
      },
      {
        "midi": 60,
        "time": 14,
        "duration": 0.333,
        "velocity": 0.63,
        "hand": "right"
      },
      {
        "midi": 71,
        "time": 14,
        "duration": 0.167,
        "velocity": 0.63,
        "hand": "right"
      },
      {
        "midi": 72,
        "time": 14.167,
        "duration": 0.167,
        "velocity": 0.63,
        "hand": "right"
      },
      {
        "midi": 67,
        "time": 14.333,
        "duration": 0.667,
        "velocity": 0.63,
        "hand": "right"
      },
      {
        "midi": 74,
        "time": 14.333,
        "duration": 0.167,
        "velocity": 0.63,
        "hand": "right"
      },
      {
        "midi": 76,
        "time": 14.5,
        "duration": 0.167,
        "velocity": 0.63,
        "hand": "right"
      },
      {
        "midi": 74,
        "time": 14.667,
        "duration": 0.167,
        "velocity": 0.63,
        "hand": "right"
      },
      {
        "midi": 72,
        "time": 14.833,
        "duration": 0.167,
        "velocity": 0.63,
        "hand": "right"
      },
      {
        "midi": 60,
        "time": 15,
        "duration": 0.333,
        "velocity": 0.63,
        "hand": "right"
      },
      {
        "midi": 71,
        "time": 15,
        "duration": 0.917,
        "velocity": 0.63,
        "hand": "right"
      },
      {
        "midi": 67,
        "time": 15.333,
        "duration": 0.667,
        "velocity": 0.63,
        "hand": "right"
      },
      {
        "midi": 41,
        "time": 16,
        "duration": 4,
        "velocity": 0.63,
        "hand": "left"
      },
      {
        "midi": 64,
        "time": 16,
        "duration": 0.167,
        "velocity": 0.63,
        "hand": "right"
      },
      {
        "midi": 69,
        "time": 16,
        "duration": 4,
        "velocity": 0.63,
        "hand": "right"
      },
      {
        "midi": 64,
        "time": 16.167,
        "duration": 0.167,
        "velocity": 0.63,
        "hand": "right"
      },
      {
        "midi": 60,
        "time": 16.333,
        "duration": 0.667,
        "velocity": 0.63,
        "hand": "right"
      },
      {
        "midi": 64,
        "time": 16.333,
        "duration": 0.167,
        "velocity": 0.63,
        "hand": "right"
      },
      {
        "midi": 64,
        "time": 16.5,
        "duration": 0.167,
        "velocity": 0.63,
        "hand": "right"
      },
      {
        "midi": 64,
        "time": 16.667,
        "duration": 0.167,
        "velocity": 0.63,
        "hand": "right"
      },
      {
        "midi": 62,
        "time": 16.833,
        "duration": 0.167,
        "velocity": 0.63,
        "hand": "right"
      },
      {
        "midi": 53,
        "time": 17,
        "duration": 0.333,
        "velocity": 0.63,
        "hand": "left"
      },
      {
        "midi": 60,
        "time": 17.333,
        "duration": 0.667,
        "velocity": 0.63,
        "hand": "right"
      },
      {
        "midi": 53,
        "time": 18,
        "duration": 1.917,
        "velocity": 0.63,
        "hand": "left"
      },
      {
        "midi": 60,
        "time": 18,
        "duration": 1.917,
        "velocity": 0.63,
        "hand": "right"
      },
      {
        "midi": 64,
        "time": 18,
        "duration": 0.167,
        "velocity": 0.63,
        "hand": "right"
      },
      {
        "midi": 64,
        "time": 18.167,
        "duration": 0.167,
        "velocity": 0.63,
        "hand": "right"
      },
      {
        "midi": 64,
        "time": 18.333,
        "duration": 0.167,
        "velocity": 0.63,
        "hand": "right"
      },
      {
        "midi": 64,
        "time": 18.5,
        "duration": 0.167,
        "velocity": 0.63,
        "hand": "right"
      },
      {
        "midi": 64,
        "time": 18.667,
        "duration": 0.333,
        "velocity": 0.63,
        "hand": "right"
      },
      {
        "midi": 64,
        "time": 19,
        "duration": 0.167,
        "velocity": 0.63,
        "hand": "right"
      },
      {
        "midi": 64,
        "time": 19.167,
        "duration": 0.167,
        "velocity": 0.63,
        "hand": "right"
      },
      {
        "midi": 64,
        "time": 19.333,
        "duration": 0.167,
        "velocity": 0.63,
        "hand": "right"
      },
      {
        "midi": 64,
        "time": 19.5,
        "duration": 0.167,
        "velocity": 0.63,
        "hand": "right"
      },
      {
        "midi": 64,
        "time": 19.667,
        "duration": 0.333,
        "velocity": 0.63,
        "hand": "right"
      },
      {
        "midi": 40,
        "time": 20,
        "duration": 3,
        "velocity": 0.63,
        "hand": "left"
      },
      {
        "midi": 64,
        "time": 20,
        "duration": 0.167,
        "velocity": 0.63,
        "hand": "right"
      },
      {
        "midi": 67,
        "time": 20,
        "duration": 3,
        "velocity": 0.63,
        "hand": "right"
      },
      {
        "midi": 64,
        "time": 20.167,
        "duration": 0.167,
        "velocity": 0.63,
        "hand": "right"
      },
      {
        "midi": 59,
        "time": 20.333,
        "duration": 0.667,
        "velocity": 0.63,
        "hand": "left"
      },
      {
        "midi": 64,
        "time": 20.333,
        "duration": 0.167,
        "velocity": 0.63,
        "hand": "right"
      },
      {
        "midi": 64,
        "time": 20.5,
        "duration": 0.167,
        "velocity": 0.63,
        "hand": "right"
      },
      {
        "midi": 64,
        "time": 20.667,
        "duration": 0.167,
        "velocity": 0.63,
        "hand": "right"
      },
      {
        "midi": 62,
        "time": 20.833,
        "duration": 0.167,
        "velocity": 0.63,
        "hand": "right"
      },
      {
        "midi": 52,
        "time": 21,
        "duration": 0.333,
        "velocity": 0.63,
        "hand": "left"
      },
      {
        "midi": 59,
        "time": 21.333,
        "duration": 0.667,
        "velocity": 0.63,
        "hand": "left"
      },
      {
        "midi": 52,
        "time": 22,
        "duration": 0.917,
        "velocity": 0.63,
        "hand": "left"
      },
      {
        "midi": 55,
        "time": 22,
        "duration": 0.917,
        "velocity": 0.63,
        "hand": "left"
      },
      {
        "midi": 64,
        "time": 22,
        "duration": 0.167,
        "velocity": 0.63,
        "hand": "right"
      },
      {
        "midi": 64,
        "time": 22.167,
        "duration": 0.167,
        "velocity": 0.63,
        "hand": "right"
      },
      {
        "midi": 64,
        "time": 22.333,
        "duration": 0.333,
        "velocity": 0.63,
        "hand": "right"
      },
      {
        "midi": 64,
        "time": 22.667,
        "duration": 0.333,
        "velocity": 0.63,
        "hand": "right"
      },
      {
        "midi": 39,
        "time": 23,
        "duration": 1,
        "velocity": 0.63,
        "hand": "left"
      },
      {
        "midi": 64,
        "time": 23,
        "duration": 0.167,
        "velocity": 0.63,
        "hand": "right"
      },
      {
        "midi": 67,
        "time": 23,
        "duration": 1,
        "velocity": 0.63,
        "hand": "right"
      },
      {
        "midi": 64,
        "time": 23.167,
        "duration": 0.167,
        "velocity": 0.63,
        "hand": "right"
      },
      {
        "midi": 64,
        "time": 23.333,
        "duration": 0.167,
        "velocity": 0.63,
        "hand": "right"
      },
      {
        "midi": 64,
        "time": 23.5,
        "duration": 0.167,
        "velocity": 0.63,
        "hand": "right"
      },
      {
        "midi": 64,
        "time": 23.667,
        "duration": 0.333,
        "velocity": 0.63,
        "hand": "right"
      },
      {
        "midi": 38,
        "time": 24,
        "duration": 4,
        "velocity": 0.63,
        "hand": "left"
      },
      {
        "midi": 62,
        "time": 24,
        "duration": 0.167,
        "velocity": 0.63,
        "hand": "right"
      },
      {
        "midi": 69,
        "time": 24,
        "duration": 4,
        "velocity": 0.63,
        "hand": "right"
      },
      {
        "midi": 60,
        "time": 24.167,
        "duration": 0.167,
        "velocity": 0.63,
        "hand": "right"
      },
      {
        "midi": 64,
        "time": 24.333,
        "duration": 0.167,
        "velocity": 0.63,
        "hand": "right"
      },
      {
        "midi": 62,
        "time": 24.5,
        "duration": 0.167,
        "velocity": 0.63,
        "hand": "right"
      },
      {
        "midi": 64,
        "time": 24.667,
        "duration": 0.167,
        "velocity": 0.63,
        "hand": "right"
      },
      {
        "midi": 62,
        "time": 24.833,
        "duration": 0.167,
        "velocity": 0.63,
        "hand": "right"
      },
      {
        "midi": 57,
        "time": 25,
        "duration": 0.917,
        "velocity": 0.63,
        "hand": "left"
      },
      {
        "midi": 50,
        "time": 26,
        "duration": 0.917,
        "velocity": 0.63,
        "hand": "left"
      },
      {
        "midi": 57,
        "time": 26,
        "duration": 0.917,
        "velocity": 0.63,
        "hand": "left"
      },
      {
        "midi": 64,
        "time": 26,
        "duration": 0.167,
        "velocity": 0.63,
        "hand": "right"
      },
      {
        "midi": 62,
        "time": 26.167,
        "duration": 0.167,
        "velocity": 0.63,
        "hand": "right"
      },
      {
        "midi": 64,
        "time": 26.333,
        "duration": 0.167,
        "velocity": 0.63,
        "hand": "right"
      },
      {
        "midi": 62,
        "time": 26.5,
        "duration": 0.167,
        "velocity": 0.63,
        "hand": "right"
      },
      {
        "midi": 64,
        "time": 26.667,
        "duration": 0.167,
        "velocity": 0.63,
        "hand": "right"
      },
      {
        "midi": 62,
        "time": 26.833,
        "duration": 0.167,
        "velocity": 0.63,
        "hand": "right"
      },
      {
        "midi": 50,
        "time": 27,
        "duration": 0.333,
        "velocity": 0.63,
        "hand": "left"
      },
      {
        "midi": 53,
        "time": 27.333,
        "duration": 0.333,
        "velocity": 0.63,
        "hand": "left"
      },
      {
        "midi": 57,
        "time": 27.667,
        "duration": 0.333,
        "velocity": 0.63,
        "hand": "left"
      },
      {
        "midi": 60,
        "time": 27.833,
        "duration": 0.167,
        "velocity": 0.63,
        "hand": "right"
      },
      {
        "midi": 36,
        "time": 28,
        "duration": 4,
        "velocity": 0.63,
        "hand": "left"
      },
      {
        "midi": 60,
        "time": 28,
        "duration": 4,
        "velocity": 0.63,
        "hand": "right"
      },
      {
        "midi": 71,
        "time": 28,
        "duration": 4,
        "velocity": 0.63,
        "hand": "right"
      },
      {
        "midi": 64,
        "time": 28.167,
        "duration": 0.167,
        "velocity": 0.63,
        "hand": "right"
      },
      {
        "midi": 64,
        "time": 28.333,
        "duration": 0.167,
        "velocity": 0.63,
        "hand": "right"
      },
      {
        "midi": 64,
        "time": 28.5,
        "duration": 0.167,
        "velocity": 0.63,
        "hand": "right"
      },
      {
        "midi": 64,
        "time": 28.667,
        "duration": 0.333,
        "velocity": 0.63,
        "hand": "right"
      },
      {
        "midi": 48,
        "time": 29,
        "duration": 0.917,
        "velocity": 0.63,
        "hand": "left"
      },
      {
        "midi": 59,
        "time": 29,
        "duration": 0.167,
        "velocity": 0.63,
        "hand": "left"
      },
      {
        "midi": 64,
        "time": 29,
        "duration": 0.167,
        "velocity": 0.63,
        "hand": "right"
      },
      {
        "midi": 64,
        "time": 29.167,
        "duration": 0.167,
        "velocity": 0.63,
        "hand": "right"
      },
      {
        "midi": 64,
        "time": 29.333,
        "duration": 0.167,
        "velocity": 0.63,
        "hand": "right"
      },
      {
        "midi": 64,
        "time": 29.5,
        "duration": 0.167,
        "velocity": 0.63,
        "hand": "right"
      },
      {
        "midi": 64,
        "time": 29.667,
        "duration": 0.333,
        "velocity": 0.63,
        "hand": "right"
      },
      {
        "midi": 48,
        "time": 30,
        "duration": 1.917,
        "velocity": 0.63,
        "hand": "left"
      },
      {
        "midi": 59,
        "time": 30,
        "duration": 0.167,
        "velocity": 0.63,
        "hand": "left"
      },
      {
        "midi": 64,
        "time": 30,
        "duration": 0.167,
        "velocity": 0.63,
        "hand": "right"
      },
      {
        "midi": 64,
        "time": 30.167,
        "duration": 0.167,
        "velocity": 0.63,
        "hand": "right"
      },
      {
        "midi": 64,
        "time": 30.333,
        "duration": 0.333,
        "velocity": 0.63,
        "hand": "right"
      },
      {
        "midi": 62,
        "time": 30.667,
        "duration": 0.167,
        "velocity": 0.63,
        "hand": "right"
      },
      {
        "midi": 60,
        "time": 30.833,
        "duration": 0.5,
        "velocity": 0.63,
        "hand": "right"
      },
      {
        "midi": 64,
        "time": 31.333,
        "duration": 0.333,
        "velocity": 0.63,
        "hand": "right"
      },
      {
        "midi": 67,
        "time": 31.667,
        "duration": 0.333,
        "velocity": 0.63,
        "hand": "right"
      },
      {
        "midi": 41,
        "time": 32,
        "duration": 4,
        "velocity": 0.63,
        "hand": "left"
      },
      {
        "midi": 64,
        "time": 32,
        "duration": 4,
        "velocity": 0.63,
        "hand": "right"
      },
      {
        "midi": 69,
        "time": 32,
        "duration": 4,
        "velocity": 0.63,
        "hand": "right"
      },
      {
        "midi": 48,
        "time": 33,
        "duration": 0.917,
        "velocity": 0.63,
        "hand": "left"
      },
      {
        "midi": 69,
        "time": 33.333,
        "duration": 0.333,
        "velocity": 0.63,
        "hand": "right"
      },
      {
        "midi": 71,
        "time": 33.667,
        "duration": 0.167,
        "velocity": 0.63,
        "hand": "right"
      },
      {
        "midi": 64,
        "time": 33.833,
        "duration": 1.083,
        "velocity": 0.63,
        "hand": "right"
      },
      {
        "midi": 72,
        "time": 33.833,
        "duration": 1.083,
        "velocity": 0.63,
        "hand": "right"
      },
      {
        "midi": 41,
        "time": 34,
        "duration": 0.917,
        "velocity": 0.63,
        "hand": "left"
      },
      {
        "midi": 48,
        "time": 35,
        "duration": 0.917,
        "velocity": 0.63,
        "hand": "left"
      },
      {
        "midi": 69,
        "time": 35.333,
        "duration": 0.333,
        "velocity": 0.63,
        "hand": "right"
      },
      {
        "midi": 72,
        "time": 35.667,
        "duration": 0.333,
        "velocity": 0.63,
        "hand": "right"
      },
      {
        "midi": 40,
        "time": 36,
        "duration": 2,
        "velocity": 0.63,
        "hand": "left"
      },
      {
        "midi": 67,
        "time": 36,
        "duration": 0.333,
        "velocity": 0.63,
        "hand": "right"
      },
      {
        "midi": 71,
        "time": 36,
        "duration": 2,
        "velocity": 0.63,
        "hand": "right"
      },
      {
        "midi": 69,
        "time": 36.333,
        "duration": 0.333,
        "velocity": 0.63,
        "hand": "right"
      },
      {
        "midi": 67,
        "time": 36.667,
        "duration": 0.333,
        "velocity": 0.63,
        "hand": "right"
      },
      {
        "midi": 47,
        "time": 37,
        "duration": 0.917,
        "velocity": 0.63,
        "hand": "left"
      },
      {
        "midi": 67,
        "time": 37,
        "duration": 0.667,
        "velocity": 0.63,
        "hand": "right"
      },
      {
        "midi": 64,
        "time": 37.667,
        "duration": 0.333,
        "velocity": 0.63,
        "hand": "right"
      },
      {
        "midi": 40,
        "time": 38,
        "duration": 1,
        "velocity": 0.63,
        "hand": "left"
      },
      {
        "midi": 64,
        "time": 38,
        "duration": 1,
        "velocity": 0.63,
        "hand": "right"
      },
      {
        "midi": 71,
        "time": 38,
        "duration": 0.333,
        "velocity": 0.63,
        "hand": "right"
      },
      {
        "midi": 69,
        "time": 38.333,
        "duration": 0.333,
        "velocity": 0.63,
        "hand": "right"
      },
      {
        "midi": 67,
        "time": 38.667,
        "duration": 0.333,
        "velocity": 0.63,
        "hand": "right"
      },
      {
        "midi": 39,
        "time": 39,
        "duration": 1,
        "velocity": 0.63,
        "hand": "left"
      },
      {
        "midi": 64,
        "time": 39,
        "duration": 1,
        "velocity": 0.63,
        "hand": "right"
      },
      {
        "midi": 71,
        "time": 39,
        "duration": 0.333,
        "velocity": 0.63,
        "hand": "right"
      },
      {
        "midi": 69,
        "time": 39.333,
        "duration": 0.333,
        "velocity": 0.63,
        "hand": "right"
      },
      {
        "midi": 67,
        "time": 39.667,
        "duration": 0.333,
        "velocity": 0.63,
        "hand": "right"
      },
      {
        "midi": 38,
        "time": 40,
        "duration": 4,
        "velocity": 0.63,
        "hand": "left"
      },
      {
        "midi": 62,
        "time": 40,
        "duration": 4,
        "velocity": 0.63,
        "hand": "right"
      },
      {
        "midi": 69,
        "time": 40,
        "duration": 4,
        "velocity": 0.63,
        "hand": "right"
      },
      {
        "midi": 60,
        "time": 40.167,
        "duration": 1.75,
        "velocity": 0.63,
        "hand": "right"
      },
      {
        "midi": 65,
        "time": 40.167,
        "duration": 1.75,
        "velocity": 0.63,
        "hand": "right"
      },
      {
        "midi": 45,
        "time": 41,
        "duration": 0.917,
        "velocity": 0.63,
        "hand": "left"
      },
      {
        "midi": 38,
        "time": 42,
        "duration": 0.917,
        "velocity": 0.63,
        "hand": "left"
      },
      {
        "midi": 60,
        "time": 42.667,
        "duration": 0.333,
        "velocity": 0.63,
        "hand": "right"
      },
      {
        "midi": 45,
        "time": 43,
        "duration": 0.917,
        "velocity": 0.63,
        "hand": "left"
      },
      {
        "midi": 67,
        "time": 43,
        "duration": 0.333,
        "velocity": 0.63,
        "hand": "right"
      },
      {
        "midi": 65,
        "time": 43.333,
        "duration": 0.333,
        "velocity": 0.63,
        "hand": "right"
      },
      {
        "midi": 64,
        "time": 43.667,
        "duration": 0.333,
        "velocity": 0.63,
        "hand": "right"
      },
      {
        "midi": 40,
        "time": 44,
        "duration": 4,
        "velocity": 0.63,
        "hand": "left"
      },
      {
        "midi": 64,
        "time": 44,
        "duration": 0.917,
        "velocity": 0.63,
        "hand": "right"
      },
      {
        "midi": 71,
        "time": 44,
        "duration": 4,
        "velocity": 0.63,
        "hand": "right"
      },
      {
        "midi": 40,
        "time": 44.333,
        "duration": 0.333,
        "velocity": 0.63,
        "hand": "left"
      },
      {
        "midi": 40,
        "time": 44.667,
        "duration": 0.333,
        "velocity": 0.63,
        "hand": "left"
      },
      {
        "midi": 40,
        "time": 45,
        "duration": 0.333,
        "velocity": 0.63,
        "hand": "left"
      },
      {
        "midi": 69,
        "time": 45,
        "duration": 0.917,
        "velocity": 0.63,
        "hand": "right"
      },
      {
        "midi": 40,
        "time": 45.333,
        "duration": 0.333,
        "velocity": 0.63,
        "hand": "left"
      },
      {
        "midi": 40,
        "time": 45.667,
        "duration": 0.333,
        "velocity": 0.63,
        "hand": "left"
      },
      {
        "midi": 40,
        "time": 46,
        "duration": 0.333,
        "velocity": 0.63,
        "hand": "left"
      },
      {
        "midi": 72,
        "time": 46,
        "duration": 0.917,
        "velocity": 0.63,
        "hand": "right"
      },
      {
        "midi": 40,
        "time": 46.333,
        "duration": 0.333,
        "velocity": 0.63,
        "hand": "left"
      },
      {
        "midi": 40,
        "time": 46.667,
        "duration": 0.333,
        "velocity": 0.63,
        "hand": "left"
      },
      {
        "midi": 74,
        "time": 47,
        "duration": 0.333,
        "velocity": 0.63,
        "hand": "right"
      },
      {
        "midi": 41,
        "time": 48,
        "duration": 6,
        "velocity": 0.63,
        "hand": "left"
      },
      {
        "midi": 65,
        "time": 48,
        "duration": 6,
        "velocity": 0.63,
        "hand": "right"
      },
      {
        "midi": 76,
        "time": 48,
        "duration": 3.833,
        "velocity": 0.63,
        "hand": "right"
      },
      {
        "midi": 48,
        "time": 49,
        "duration": 0.917,
        "velocity": 0.63,
        "hand": "left"
      },
      {
        "midi": 52,
        "time": 50,
        "duration": 0.917,
        "velocity": 0.63,
        "hand": "left"
      },
      {
        "midi": 53,
        "time": 50,
        "duration": 0.917,
        "velocity": 0.63,
        "hand": "left"
      },
      {
        "midi": 57,
        "time": 50,
        "duration": 0.917,
        "velocity": 0.63,
        "hand": "left"
      },
      {
        "midi": 60,
        "time": 51,
        "duration": 0.917,
        "velocity": 0.63,
        "hand": "right"
      },
      {
        "midi": 41,
        "time": 52,
        "duration": 0.917,
        "velocity": 0.63,
        "hand": "left"
      },
      {
        "midi": 69,
        "time": 52,
        "duration": 0.917,
        "velocity": 0.63,
        "hand": "right"
      },
      {
        "midi": 48,
        "time": 53,
        "duration": 0.917,
        "velocity": 0.63,
        "hand": "left"
      },
      {
        "midi": 71,
        "time": 53,
        "duration": 0.917,
        "velocity": 0.63,
        "hand": "right"
      },
      {
        "midi": 41,
        "time": 54,
        "duration": 2,
        "velocity": 0.63,
        "hand": "left"
      },
      {
        "midi": 60,
        "time": 54,
        "duration": 0.917,
        "velocity": 0.63,
        "hand": "right"
      },
      {
        "midi": 79,
        "time": 54,
        "duration": 0.917,
        "velocity": 0.63,
        "hand": "right"
      },
      {
        "midi": 62,
        "time": 55,
        "duration": 0.917,
        "velocity": 0.63,
        "hand": "right"
      },
      {
        "midi": 77,
        "time": 55,
        "duration": 0.917,
        "velocity": 0.63,
        "hand": "right"
      },
      {
        "midi": 36,
        "time": 56,
        "duration": 6,
        "velocity": 0.63,
        "hand": "left"
      },
      {
        "midi": 67,
        "time": 56,
        "duration": 6,
        "velocity": 0.63,
        "hand": "right"
      },
      {
        "midi": 76,
        "time": 56,
        "duration": 2.333,
        "velocity": 0.63,
        "hand": "right"
      },
      {
        "midi": 43,
        "time": 57,
        "duration": 0.917,
        "velocity": 0.63,
        "hand": "left"
      },
      {
        "midi": 48,
        "time": 58,
        "duration": 0.917,
        "velocity": 0.63,
        "hand": "left"
      },
      {
        "midi": 52,
        "time": 58,
        "duration": 0.917,
        "velocity": 0.63,
        "hand": "left"
      },
      {
        "midi": 55,
        "time": 58,
        "duration": 0.917,
        "velocity": 0.63,
        "hand": "left"
      },
      {
        "midi": 74,
        "time": 58.333,
        "duration": 0.667,
        "velocity": 0.63,
        "hand": "right"
      },
      {
        "midi": 59,
        "time": 59,
        "duration": 0.917,
        "velocity": 0.63,
        "hand": "left"
      },
      {
        "midi": 69,
        "time": 59.333,
        "duration": 0.333,
        "velocity": 0.63,
        "hand": "right"
      },
      {
        "midi": 72,
        "time": 59.667,
        "duration": 0.333,
        "velocity": 0.63,
        "hand": "right"
      },
      {
        "midi": 36,
        "time": 60,
        "duration": 0.917,
        "velocity": 0.63,
        "hand": "left"
      },
      {
        "midi": 64,
        "time": 60,
        "duration": 0.917,
        "velocity": 0.63,
        "hand": "right"
      },
      {
        "midi": 71,
        "time": 60,
        "duration": 0.917,
        "velocity": 0.63,
        "hand": "right"
      },
      {
        "midi": 43,
        "time": 61,
        "duration": 0.917,
        "velocity": 0.63,
        "hand": "left"
      },
      {
        "midi": 71,
        "time": 61,
        "duration": 0.917,
        "velocity": 0.63,
        "hand": "right"
      },
      {
        "midi": 38,
        "time": 62,
        "duration": 1,
        "velocity": 0.63,
        "hand": "left"
      },
      {
        "midi": 64,
        "time": 62,
        "duration": 1,
        "velocity": 0.63,
        "hand": "right"
      },
      {
        "midi": 72,
        "time": 62,
        "duration": 0.917,
        "velocity": 0.63,
        "hand": "right"
      },
      {
        "midi": 40,
        "time": 63,
        "duration": 1,
        "velocity": 0.63,
        "hand": "left"
      },
      {
        "midi": 68,
        "time": 63,
        "duration": 0.917,
        "velocity": 0.63,
        "hand": "right"
      },
      {
        "midi": 74,
        "time": 63,
        "duration": 0.917,
        "velocity": 0.63,
        "hand": "right"
      },
      {
        "midi": 41,
        "time": 64,
        "duration": 6,
        "velocity": 0.63,
        "hand": "left"
      },
      {
        "midi": 65,
        "time": 64,
        "duration": 6,
        "velocity": 0.63,
        "hand": "right"
      },
      {
        "midi": 76,
        "time": 64,
        "duration": 3.833,
        "velocity": 0.63,
        "hand": "right"
      },
      {
        "midi": 48,
        "time": 65,
        "duration": 0.917,
        "velocity": 0.63,
        "hand": "left"
      },
      {
        "midi": 52,
        "time": 66,
        "duration": 0.917,
        "velocity": 0.63,
        "hand": "left"
      },
      {
        "midi": 53,
        "time": 66,
        "duration": 0.917,
        "velocity": 0.63,
        "hand": "left"
      },
      {
        "midi": 57,
        "time": 66,
        "duration": 0.917,
        "velocity": 0.63,
        "hand": "left"
      },
      {
        "midi": 60,
        "time": 67,
        "duration": 0.917,
        "velocity": 0.63,
        "hand": "right"
      },
      {
        "midi": 41,
        "time": 68,
        "duration": 0.917,
        "velocity": 0.63,
        "hand": "left"
      },
      {
        "midi": 69,
        "time": 68,
        "duration": 0.917,
        "velocity": 0.63,
        "hand": "right"
      },
      {
        "midi": 48,
        "time": 69,
        "duration": 0.917,
        "velocity": 0.63,
        "hand": "left"
      },
      {
        "midi": 71,
        "time": 69,
        "duration": 0.917,
        "velocity": 0.63,
        "hand": "right"
      },
      {
        "midi": 41,
        "time": 70,
        "duration": 2,
        "velocity": 0.63,
        "hand": "left"
      },
      {
        "midi": 60,
        "time": 70,
        "duration": 0.917,
        "velocity": 0.63,
        "hand": "right"
      },
      {
        "midi": 79,
        "time": 70,
        "duration": 0.917,
        "velocity": 0.63,
        "hand": "right"
      },
      {
        "midi": 62,
        "time": 71,
        "duration": 0.917,
        "velocity": 0.63,
        "hand": "right"
      },
      {
        "midi": 77,
        "time": 71,
        "duration": 0.917,
        "velocity": 0.63,
        "hand": "right"
      },
      {
        "midi": 36,
        "time": 72,
        "duration": 6,
        "velocity": 0.63,
        "hand": "left"
      },
      {
        "midi": 67,
        "time": 72,
        "duration": 6,
        "velocity": 0.63,
        "hand": "right"
      },
      {
        "midi": 76,
        "time": 72,
        "duration": 2.833,
        "velocity": 0.63,
        "hand": "right"
      },
      {
        "midi": 43,
        "time": 73,
        "duration": 0.917,
        "velocity": 0.63,
        "hand": "left"
      },
      {
        "midi": 48,
        "time": 74,
        "duration": 0.917,
        "velocity": 0.63,
        "hand": "left"
      },
      {
        "midi": 52,
        "time": 74,
        "duration": 0.917,
        "velocity": 0.63,
        "hand": "left"
      },
      {
        "midi": 55,
        "time": 74,
        "duration": 0.917,
        "velocity": 0.63,
        "hand": "left"
      },
      {
        "midi": 59,
        "time": 75,
        "duration": 0.917,
        "velocity": 0.63,
        "hand": "left"
      },
      {
        "midi": 69,
        "time": 75.333,
        "duration": 0.333,
        "velocity": 0.63,
        "hand": "right"
      },
      {
        "midi": 72,
        "time": 75.667,
        "duration": 0.333,
        "velocity": 0.63,
        "hand": "right"
      },
      {
        "midi": 36,
        "time": 76,
        "duration": 0.917,
        "velocity": 0.63,
        "hand": "left"
      },
      {
        "midi": 64,
        "time": 76,
        "duration": 2,
        "velocity": 0.63,
        "hand": "right"
      },
      {
        "midi": 71,
        "time": 76,
        "duration": 2,
        "velocity": 0.63,
        "hand": "right"
      },
      {
        "midi": 43,
        "time": 77,
        "duration": 0.917,
        "velocity": 0.63,
        "hand": "left"
      },
      {
        "midi": 38,
        "time": 78,
        "duration": 1,
        "velocity": 0.63,
        "hand": "left"
      },
      {
        "midi": 64,
        "time": 78,
        "duration": 1,
        "velocity": 0.63,
        "hand": "right"
      },
      {
        "midi": 70,
        "time": 78,
        "duration": 1,
        "velocity": 0.63,
        "hand": "right"
      },
      {
        "midi": 40,
        "time": 79,
        "duration": 1,
        "velocity": 0.63,
        "hand": "left"
      },
      {
        "midi": 64,
        "time": 79,
        "duration": 1,
        "velocity": 0.63,
        "hand": "right"
      },
      {
        "midi": 70,
        "time": 79,
        "duration": 1,
        "velocity": 0.63,
        "hand": "right"
      },
      {
        "midi": 41,
        "time": 80,
        "duration": 4,
        "velocity": 0.63,
        "hand": "left"
      },
      {
        "midi": 64,
        "time": 80,
        "duration": 0.167,
        "velocity": 0.63,
        "hand": "right"
      },
      {
        "midi": 69,
        "time": 80,
        "duration": 4,
        "velocity": 0.63,
        "hand": "right"
      },
      {
        "midi": 64,
        "time": 80.167,
        "duration": 0.167,
        "velocity": 0.63,
        "hand": "right"
      },
      {
        "midi": 64,
        "time": 80.333,
        "duration": 0.167,
        "velocity": 0.63,
        "hand": "right"
      },
      {
        "midi": 64,
        "time": 80.5,
        "duration": 0.167,
        "velocity": 0.63,
        "hand": "right"
      },
      {
        "midi": 64,
        "time": 80.667,
        "duration": 0.167,
        "velocity": 0.63,
        "hand": "right"
      },
      {
        "midi": 62,
        "time": 80.833,
        "duration": 0.167,
        "velocity": 0.63,
        "hand": "right"
      },
      {
        "midi": 41,
        "time": 81,
        "duration": 0.917,
        "velocity": 0.63,
        "hand": "left"
      },
      {
        "midi": 41,
        "time": 82,
        "duration": 0.917,
        "velocity": 0.63,
        "hand": "left"
      },
      {
        "midi": 57,
        "time": 82,
        "duration": 0.167,
        "velocity": 0.63,
        "hand": "left"
      },
      {
        "midi": 64,
        "time": 82,
        "duration": 0.167,
        "velocity": 0.63,
        "hand": "right"
      },
      {
        "midi": 64,
        "time": 82.167,
        "duration": 0.167,
        "velocity": 0.63,
        "hand": "right"
      },
      {
        "midi": 64,
        "time": 82.333,
        "duration": 0.167,
        "velocity": 0.63,
        "hand": "right"
      },
      {
        "midi": 64,
        "time": 82.5,
        "duration": 0.167,
        "velocity": 0.63,
        "hand": "right"
      },
      {
        "midi": 64,
        "time": 82.667,
        "duration": 0.333,
        "velocity": 0.63,
        "hand": "right"
      },
      {
        "midi": 41,
        "time": 83,
        "duration": 0.917,
        "velocity": 0.63,
        "hand": "left"
      },
      {
        "midi": 64,
        "time": 83,
        "duration": 0.167,
        "velocity": 0.63,
        "hand": "right"
      },
      {
        "midi": 64,
        "time": 83.167,
        "duration": 0.167,
        "velocity": 0.63,
        "hand": "right"
      },
      {
        "midi": 64,
        "time": 83.333,
        "duration": 0.167,
        "velocity": 0.63,
        "hand": "right"
      },
      {
        "midi": 64,
        "time": 83.5,
        "duration": 0.167,
        "velocity": 0.63,
        "hand": "right"
      },
      {
        "midi": 64,
        "time": 83.667,
        "duration": 0.333,
        "velocity": 0.63,
        "hand": "right"
      },
      {
        "midi": 40,
        "time": 84,
        "duration": 3,
        "velocity": 0.63,
        "hand": "left"
      },
      {
        "midi": 60,
        "time": 84,
        "duration": 3,
        "velocity": 0.63,
        "hand": "right"
      },
      {
        "midi": 67,
        "time": 84,
        "duration": 3,
        "velocity": 0.63,
        "hand": "right"
      },
      {
        "midi": 64,
        "time": 84.167,
        "duration": 0.167,
        "velocity": 0.63,
        "hand": "right"
      },
      {
        "midi": 64,
        "time": 84.333,
        "duration": 0.167,
        "velocity": 0.63,
        "hand": "right"
      },
      {
        "midi": 64,
        "time": 84.5,
        "duration": 0.167,
        "velocity": 0.63,
        "hand": "right"
      },
      {
        "midi": 64,
        "time": 84.667,
        "duration": 0.167,
        "velocity": 0.63,
        "hand": "right"
      },
      {
        "midi": 62,
        "time": 84.833,
        "duration": 0.167,
        "velocity": 0.63,
        "hand": "right"
      },
      {
        "midi": 40,
        "time": 85,
        "duration": 0.917,
        "velocity": 0.63,
        "hand": "left"
      },
      {
        "midi": 40,
        "time": 86,
        "duration": 0.917,
        "velocity": 0.63,
        "hand": "left"
      },
      {
        "midi": 55,
        "time": 86,
        "duration": 0.167,
        "velocity": 0.63,
        "hand": "left"
      },
      {
        "midi": 64,
        "time": 86,
        "duration": 0.167,
        "velocity": 0.63,
        "hand": "right"
      },
      {
        "midi": 64,
        "time": 86.167,
        "duration": 0.167,
        "velocity": 0.63,
        "hand": "right"
      },
      {
        "midi": 64,
        "time": 86.333,
        "duration": 0.167,
        "velocity": 0.63,
        "hand": "right"
      },
      {
        "midi": 64,
        "time": 86.5,
        "duration": 0.167,
        "velocity": 0.63,
        "hand": "right"
      },
      {
        "midi": 64,
        "time": 86.667,
        "duration": 0.333,
        "velocity": 0.63,
        "hand": "right"
      },
      {
        "midi": 39,
        "time": 87,
        "duration": 1,
        "velocity": 0.63,
        "hand": "left"
      },
      {
        "midi": 60,
        "time": 87,
        "duration": 1,
        "velocity": 0.63,
        "hand": "right"
      },
      {
        "midi": 67,
        "time": 87,
        "duration": 1,
        "velocity": 0.63,
        "hand": "right"
      },
      {
        "midi": 64,
        "time": 87.167,
        "duration": 0.167,
        "velocity": 0.63,
        "hand": "right"
      },
      {
        "midi": 64,
        "time": 87.333,
        "duration": 0.167,
        "velocity": 0.63,
        "hand": "right"
      },
      {
        "midi": 64,
        "time": 87.5,
        "duration": 0.167,
        "velocity": 0.63,
        "hand": "right"
      },
      {
        "midi": 64,
        "time": 87.667,
        "duration": 0.333,
        "velocity": 0.63,
        "hand": "right"
      },
      {
        "midi": 38,
        "time": 88,
        "duration": 4,
        "velocity": 0.63,
        "hand": "left"
      },
      {
        "midi": 62,
        "time": 88,
        "duration": 4,
        "velocity": 0.63,
        "hand": "right"
      },
      {
        "midi": 69,
        "time": 88,
        "duration": 4,
        "velocity": 0.63,
        "hand": "right"
      },
      {
        "midi": 62,
        "time": 88.167,
        "duration": 0.167,
        "velocity": 0.63,
        "hand": "right"
      },
      {
        "midi": 64,
        "time": 88.333,
        "duration": 0.167,
        "velocity": 0.63,
        "hand": "right"
      },
      {
        "midi": 62,
        "time": 88.5,
        "duration": 0.167,
        "velocity": 0.63,
        "hand": "right"
      },
      {
        "midi": 64,
        "time": 88.667,
        "duration": 0.167,
        "velocity": 0.63,
        "hand": "right"
      },
      {
        "midi": 62,
        "time": 88.833,
        "duration": 0.167,
        "velocity": 0.63,
        "hand": "right"
      },
      {
        "midi": 38,
        "time": 89,
        "duration": 0.917,
        "velocity": 0.63,
        "hand": "left"
      },
      {
        "midi": 38,
        "time": 90,
        "duration": 0.917,
        "velocity": 0.63,
        "hand": "left"
      },
      {
        "midi": 60,
        "time": 90,
        "duration": 0.167,
        "velocity": 0.63,
        "hand": "right"
      },
      {
        "midi": 64,
        "time": 90,
        "duration": 0.167,
        "velocity": 0.63,
        "hand": "right"
      },
      {
        "midi": 62,
        "time": 90.167,
        "duration": 0.167,
        "velocity": 0.63,
        "hand": "right"
      },
      {
        "midi": 64,
        "time": 90.333,
        "duration": 0.167,
        "velocity": 0.63,
        "hand": "right"
      },
      {
        "midi": 62,
        "time": 90.5,
        "duration": 0.167,
        "velocity": 0.63,
        "hand": "right"
      },
      {
        "midi": 64,
        "time": 90.667,
        "duration": 0.167,
        "velocity": 0.63,
        "hand": "right"
      },
      {
        "midi": 62,
        "time": 90.833,
        "duration": 0.167,
        "velocity": 0.63,
        "hand": "right"
      },
      {
        "midi": 38,
        "time": 91,
        "duration": 0.917,
        "velocity": 0.63,
        "hand": "left"
      },
      {
        "midi": 36,
        "time": 92,
        "duration": 4,
        "velocity": 0.63,
        "hand": "left"
      },
      {
        "midi": 64,
        "time": 92,
        "duration": 0.167,
        "velocity": 0.63,
        "hand": "right"
      },
      {
        "midi": 71,
        "time": 92,
        "duration": 4,
        "velocity": 0.63,
        "hand": "right"
      },
      {
        "midi": 64,
        "time": 92.167,
        "duration": 0.167,
        "velocity": 0.63,
        "hand": "right"
      },
      {
        "midi": 64,
        "time": 92.333,
        "duration": 0.167,
        "velocity": 0.63,
        "hand": "right"
      },
      {
        "midi": 64,
        "time": 92.583,
        "duration": 0.083,
        "velocity": 0.63,
        "hand": "right"
      },
      {
        "midi": 62,
        "time": 92.667,
        "duration": 0.167,
        "velocity": 0.63,
        "hand": "right"
      },
      {
        "midi": 62,
        "time": 92.833,
        "duration": 0.167,
        "velocity": 0.63,
        "hand": "right"
      },
      {
        "midi": 36,
        "time": 93,
        "duration": 0.917,
        "velocity": 0.63,
        "hand": "left"
      },
      {
        "midi": 59,
        "time": 93,
        "duration": 0.167,
        "velocity": 0.63,
        "hand": "left"
      },
      {
        "midi": 64,
        "time": 93,
        "duration": 0.167,
        "velocity": 0.63,
        "hand": "right"
      },
      {
        "midi": 64,
        "time": 93.167,
        "duration": 0.167,
        "velocity": 0.63,
        "hand": "right"
      },
      {
        "midi": 64,
        "time": 93.333,
        "duration": 0.167,
        "velocity": 0.63,
        "hand": "right"
      },
      {
        "midi": 64,
        "time": 93.583,
        "duration": 0.083,
        "velocity": 0.63,
        "hand": "right"
      },
      {
        "midi": 62,
        "time": 93.667,
        "duration": 0.167,
        "velocity": 0.63,
        "hand": "right"
      },
      {
        "midi": 62,
        "time": 93.833,
        "duration": 0.167,
        "velocity": 0.63,
        "hand": "right"
      },
      {
        "midi": 36,
        "time": 94,
        "duration": 0.917,
        "velocity": 0.63,
        "hand": "left"
      },
      {
        "midi": 59,
        "time": 94,
        "duration": 0.167,
        "velocity": 0.63,
        "hand": "left"
      },
      {
        "midi": 64,
        "time": 94,
        "duration": 0.167,
        "velocity": 0.63,
        "hand": "right"
      },
      {
        "midi": 64,
        "time": 94.167,
        "duration": 0.167,
        "velocity": 0.63,
        "hand": "right"
      },
      {
        "midi": 64,
        "time": 94.333,
        "duration": 0.333,
        "velocity": 0.63,
        "hand": "right"
      },
      {
        "midi": 62,
        "time": 94.667,
        "duration": 0.167,
        "velocity": 0.63,
        "hand": "right"
      },
      {
        "midi": 60,
        "time": 94.833,
        "duration": 0.5,
        "velocity": 0.63,
        "hand": "right"
      },
      {
        "midi": 36,
        "time": 95,
        "duration": 0.917,
        "velocity": 0.63,
        "hand": "left"
      },
      {
        "midi": 64,
        "time": 95.333,
        "duration": 0.333,
        "velocity": 0.63,
        "hand": "right"
      },
      {
        "midi": 67,
        "time": 95.667,
        "duration": 0.333,
        "velocity": 0.63,
        "hand": "right"
      },
      {
        "midi": 41,
        "time": 96,
        "duration": 4,
        "velocity": 0.63,
        "hand": "left"
      },
      {
        "midi": 64,
        "time": 96,
        "duration": 4,
        "velocity": 0.63,
        "hand": "right"
      },
      {
        "midi": 69,
        "time": 96,
        "duration": 4,
        "velocity": 0.63,
        "hand": "right"
      },
      {
        "midi": 48,
        "time": 97,
        "duration": 0.917,
        "velocity": 0.63,
        "hand": "left"
      },
      {
        "midi": 69,
        "time": 97.333,
        "duration": 0.333,
        "velocity": 0.63,
        "hand": "right"
      },
      {
        "midi": 71,
        "time": 97.667,
        "duration": 0.167,
        "velocity": 0.63,
        "hand": "right"
      },
      {
        "midi": 64,
        "time": 97.833,
        "duration": 1.083,
        "velocity": 0.63,
        "hand": "right"
      },
      {
        "midi": 72,
        "time": 97.833,
        "duration": 1.083,
        "velocity": 0.63,
        "hand": "right"
      },
      {
        "midi": 41,
        "time": 98,
        "duration": 0.917,
        "velocity": 0.63,
        "hand": "left"
      },
      {
        "midi": 48,
        "time": 99,
        "duration": 0.917,
        "velocity": 0.63,
        "hand": "left"
      },
      {
        "midi": 69,
        "time": 99.333,
        "duration": 0.333,
        "velocity": 0.63,
        "hand": "right"
      },
      {
        "midi": 72,
        "time": 99.667,
        "duration": 0.333,
        "velocity": 0.63,
        "hand": "right"
      },
      {
        "midi": 40,
        "time": 100,
        "duration": 2,
        "velocity": 0.63,
        "hand": "left"
      },
      {
        "midi": 67,
        "time": 100,
        "duration": 0.333,
        "velocity": 0.63,
        "hand": "right"
      },
      {
        "midi": 71,
        "time": 100,
        "duration": 2,
        "velocity": 0.63,
        "hand": "right"
      },
      {
        "midi": 69,
        "time": 100.333,
        "duration": 0.333,
        "velocity": 0.63,
        "hand": "right"
      },
      {
        "midi": 67,
        "time": 100.667,
        "duration": 0.333,
        "velocity": 0.63,
        "hand": "right"
      },
      {
        "midi": 47,
        "time": 101,
        "duration": 0.917,
        "velocity": 0.63,
        "hand": "left"
      },
      {
        "midi": 67,
        "time": 101,
        "duration": 0.667,
        "velocity": 0.63,
        "hand": "right"
      },
      {
        "midi": 64,
        "time": 101.667,
        "duration": 0.333,
        "velocity": 0.63,
        "hand": "right"
      },
      {
        "midi": 40,
        "time": 102,
        "duration": 1,
        "velocity": 0.63,
        "hand": "left"
      },
      {
        "midi": 64,
        "time": 102,
        "duration": 1,
        "velocity": 0.63,
        "hand": "right"
      },
      {
        "midi": 71,
        "time": 102,
        "duration": 0.333,
        "velocity": 0.63,
        "hand": "right"
      },
      {
        "midi": 69,
        "time": 102.333,
        "duration": 0.333,
        "velocity": 0.63,
        "hand": "right"
      },
      {
        "midi": 67,
        "time": 102.667,
        "duration": 0.333,
        "velocity": 0.63,
        "hand": "right"
      },
      {
        "midi": 39,
        "time": 103,
        "duration": 1,
        "velocity": 0.63,
        "hand": "left"
      },
      {
        "midi": 64,
        "time": 103,
        "duration": 1,
        "velocity": 0.63,
        "hand": "right"
      },
      {
        "midi": 71,
        "time": 103,
        "duration": 0.333,
        "velocity": 0.63,
        "hand": "right"
      },
      {
        "midi": 69,
        "time": 103.333,
        "duration": 0.333,
        "velocity": 0.63,
        "hand": "right"
      },
      {
        "midi": 67,
        "time": 103.667,
        "duration": 0.333,
        "velocity": 0.63,
        "hand": "right"
      },
      {
        "midi": 38,
        "time": 104,
        "duration": 4,
        "velocity": 0.63,
        "hand": "left"
      },
      {
        "midi": 62,
        "time": 104,
        "duration": 4,
        "velocity": 0.63,
        "hand": "right"
      },
      {
        "midi": 69,
        "time": 104,
        "duration": 4,
        "velocity": 0.63,
        "hand": "right"
      },
      {
        "midi": 60,
        "time": 104.167,
        "duration": 1.75,
        "velocity": 0.63,
        "hand": "right"
      },
      {
        "midi": 65,
        "time": 104.167,
        "duration": 1.75,
        "velocity": 0.63,
        "hand": "right"
      },
      {
        "midi": 45,
        "time": 105,
        "duration": 0.917,
        "velocity": 0.63,
        "hand": "left"
      },
      {
        "midi": 38,
        "time": 106,
        "duration": 0.917,
        "velocity": 0.63,
        "hand": "left"
      },
      {
        "midi": 60,
        "time": 106.667,
        "duration": 0.333,
        "velocity": 0.63,
        "hand": "right"
      },
      {
        "midi": 45,
        "time": 107,
        "duration": 0.917,
        "velocity": 0.63,
        "hand": "left"
      },
      {
        "midi": 67,
        "time": 107,
        "duration": 0.333,
        "velocity": 0.63,
        "hand": "right"
      },
      {
        "midi": 65,
        "time": 107.333,
        "duration": 0.333,
        "velocity": 0.63,
        "hand": "right"
      },
      {
        "midi": 64,
        "time": 107.667,
        "duration": 0.167,
        "velocity": 0.63,
        "hand": "right"
      },
      {
        "midi": 59,
        "time": 107.833,
        "duration": 1.083,
        "velocity": 0.63,
        "hand": "left"
      },
      {
        "midi": 64,
        "time": 107.833,
        "duration": 1.083,
        "velocity": 0.63,
        "hand": "right"
      },
      {
        "midi": 36,
        "time": 108,
        "duration": 4,
        "velocity": 0.63,
        "hand": "left"
      },
      {
        "midi": 64,
        "time": 108,
        "duration": 4,
        "velocity": 0.63,
        "hand": "right"
      },
      {
        "midi": 71,
        "time": 108,
        "duration": 4,
        "velocity": 0.63,
        "hand": "right"
      },
      {
        "midi": 43,
        "time": 109,
        "duration": 0.917,
        "velocity": 0.63,
        "hand": "left"
      },
      {
        "midi": 36,
        "time": 110,
        "duration": 0.917,
        "velocity": 0.63,
        "hand": "left"
      },
      {
        "midi": 59,
        "time": 110,
        "duration": 0.167,
        "velocity": 0.63,
        "hand": "left"
      },
      {
        "midi": 64,
        "time": 110,
        "duration": 0.167,
        "velocity": 0.63,
        "hand": "right"
      },
      {
        "midi": 64,
        "time": 110.167,
        "duration": 0.167,
        "velocity": 0.63,
        "hand": "right"
      },
      {
        "midi": 64,
        "time": 110.333,
        "duration": 0.333,
        "velocity": 0.63,
        "hand": "right"
      },
      {
        "midi": 62,
        "time": 110.667,
        "duration": 0.167,
        "velocity": 0.63,
        "hand": "right"
      },
      {
        "midi": 60,
        "time": 110.833,
        "duration": 0.5,
        "velocity": 0.63,
        "hand": "right"
      },
      {
        "midi": 43,
        "time": 111,
        "duration": 0.917,
        "velocity": 0.63,
        "hand": "left"
      },
      {
        "midi": 64,
        "time": 111.333,
        "duration": 0.333,
        "velocity": 0.63,
        "hand": "right"
      },
      {
        "midi": 67,
        "time": 111.667,
        "duration": 0.333,
        "velocity": 0.63,
        "hand": "right"
      },
      {
        "midi": 41,
        "time": 112,
        "duration": 4,
        "velocity": 0.63,
        "hand": "left"
      },
      {
        "midi": 64,
        "time": 112,
        "duration": 4,
        "velocity": 0.63,
        "hand": "right"
      },
      {
        "midi": 69,
        "time": 112,
        "duration": 4,
        "velocity": 0.63,
        "hand": "right"
      },
      {
        "midi": 48,
        "time": 113,
        "duration": 0.917,
        "velocity": 0.63,
        "hand": "left"
      },
      {
        "midi": 69,
        "time": 113.333,
        "duration": 0.333,
        "velocity": 0.63,
        "hand": "right"
      },
      {
        "midi": 71,
        "time": 113.667,
        "duration": 0.167,
        "velocity": 0.63,
        "hand": "right"
      },
      {
        "midi": 64,
        "time": 113.833,
        "duration": 1.083,
        "velocity": 0.63,
        "hand": "right"
      },
      {
        "midi": 72,
        "time": 113.833,
        "duration": 1.083,
        "velocity": 0.63,
        "hand": "right"
      },
      {
        "midi": 41,
        "time": 114,
        "duration": 0.917,
        "velocity": 0.63,
        "hand": "left"
      },
      {
        "midi": 48,
        "time": 115,
        "duration": 0.917,
        "velocity": 0.63,
        "hand": "left"
      },
      {
        "midi": 69,
        "time": 115.333,
        "duration": 0.333,
        "velocity": 0.63,
        "hand": "right"
      },
      {
        "midi": 72,
        "time": 115.667,
        "duration": 0.333,
        "velocity": 0.63,
        "hand": "right"
      },
      {
        "midi": 40,
        "time": 116,
        "duration": 2,
        "velocity": 0.63,
        "hand": "left"
      },
      {
        "midi": 67,
        "time": 116,
        "duration": 0.333,
        "velocity": 0.63,
        "hand": "right"
      },
      {
        "midi": 71,
        "time": 116,
        "duration": 2,
        "velocity": 0.63,
        "hand": "right"
      },
      {
        "midi": 69,
        "time": 116.333,
        "duration": 0.333,
        "velocity": 0.63,
        "hand": "right"
      },
      {
        "midi": 67,
        "time": 116.667,
        "duration": 0.333,
        "velocity": 0.63,
        "hand": "right"
      },
      {
        "midi": 47,
        "time": 117,
        "duration": 0.917,
        "velocity": 0.63,
        "hand": "left"
      },
      {
        "midi": 67,
        "time": 117,
        "duration": 0.667,
        "velocity": 0.63,
        "hand": "right"
      },
      {
        "midi": 64,
        "time": 117.667,
        "duration": 0.333,
        "velocity": 0.63,
        "hand": "right"
      },
      {
        "midi": 40,
        "time": 118,
        "duration": 1,
        "velocity": 0.63,
        "hand": "left"
      },
      {
        "midi": 64,
        "time": 118,
        "duration": 1,
        "velocity": 0.63,
        "hand": "right"
      },
      {
        "midi": 71,
        "time": 118,
        "duration": 0.333,
        "velocity": 0.63,
        "hand": "right"
      },
      {
        "midi": 69,
        "time": 118.333,
        "duration": 0.333,
        "velocity": 0.63,
        "hand": "right"
      },
      {
        "midi": 67,
        "time": 118.667,
        "duration": 0.333,
        "velocity": 0.63,
        "hand": "right"
      },
      {
        "midi": 39,
        "time": 119,
        "duration": 1,
        "velocity": 0.63,
        "hand": "left"
      },
      {
        "midi": 64,
        "time": 119,
        "duration": 1,
        "velocity": 0.63,
        "hand": "right"
      },
      {
        "midi": 71,
        "time": 119,
        "duration": 0.333,
        "velocity": 0.63,
        "hand": "right"
      },
      {
        "midi": 69,
        "time": 119.333,
        "duration": 0.333,
        "velocity": 0.63,
        "hand": "right"
      },
      {
        "midi": 67,
        "time": 119.667,
        "duration": 0.333,
        "velocity": 0.63,
        "hand": "right"
      },
      {
        "midi": 38,
        "time": 120,
        "duration": 4,
        "velocity": 0.63,
        "hand": "left"
      },
      {
        "midi": 62,
        "time": 120,
        "duration": 4,
        "velocity": 0.63,
        "hand": "right"
      },
      {
        "midi": 69,
        "time": 120,
        "duration": 4,
        "velocity": 0.63,
        "hand": "right"
      },
      {
        "midi": 60,
        "time": 120.167,
        "duration": 1.75,
        "velocity": 0.63,
        "hand": "right"
      },
      {
        "midi": 65,
        "time": 120.167,
        "duration": 1.75,
        "velocity": 0.63,
        "hand": "right"
      },
      {
        "midi": 45,
        "time": 121,
        "duration": 0.917,
        "velocity": 0.63,
        "hand": "left"
      },
      {
        "midi": 38,
        "time": 122,
        "duration": 0.917,
        "velocity": 0.63,
        "hand": "left"
      },
      {
        "midi": 60,
        "time": 122.667,
        "duration": 0.333,
        "velocity": 0.63,
        "hand": "right"
      },
      {
        "midi": 45,
        "time": 123,
        "duration": 0.917,
        "velocity": 0.63,
        "hand": "left"
      },
      {
        "midi": 67,
        "time": 123,
        "duration": 0.333,
        "velocity": 0.63,
        "hand": "right"
      },
      {
        "midi": 65,
        "time": 123.333,
        "duration": 0.333,
        "velocity": 0.63,
        "hand": "right"
      },
      {
        "midi": 64,
        "time": 123.667,
        "duration": 0.333,
        "velocity": 0.63,
        "hand": "right"
      },
      {
        "midi": 40,
        "time": 124,
        "duration": 4,
        "velocity": 0.63,
        "hand": "left"
      },
      {
        "midi": 64,
        "time": 124,
        "duration": 0.917,
        "velocity": 0.63,
        "hand": "right"
      },
      {
        "midi": 71,
        "time": 124,
        "duration": 4,
        "velocity": 0.63,
        "hand": "right"
      },
      {
        "midi": 40,
        "time": 124.333,
        "duration": 0.333,
        "velocity": 0.63,
        "hand": "left"
      },
      {
        "midi": 40,
        "time": 124.667,
        "duration": 0.333,
        "velocity": 0.63,
        "hand": "left"
      },
      {
        "midi": 40,
        "time": 125,
        "duration": 0.333,
        "velocity": 0.63,
        "hand": "left"
      },
      {
        "midi": 69,
        "time": 125,
        "duration": 0.917,
        "velocity": 0.63,
        "hand": "right"
      },
      {
        "midi": 40,
        "time": 125.333,
        "duration": 0.333,
        "velocity": 0.63,
        "hand": "left"
      },
      {
        "midi": 40,
        "time": 125.667,
        "duration": 0.333,
        "velocity": 0.63,
        "hand": "left"
      },
      {
        "midi": 40,
        "time": 126,
        "duration": 0.333,
        "velocity": 0.63,
        "hand": "left"
      },
      {
        "midi": 72,
        "time": 126,
        "duration": 0.917,
        "velocity": 0.63,
        "hand": "right"
      },
      {
        "midi": 40,
        "time": 126.333,
        "duration": 0.333,
        "velocity": 0.63,
        "hand": "left"
      },
      {
        "midi": 40,
        "time": 126.667,
        "duration": 0.333,
        "velocity": 0.63,
        "hand": "left"
      },
      {
        "midi": 74,
        "time": 127,
        "duration": 0.333,
        "velocity": 0.63,
        "hand": "right"
      },
      {
        "midi": 41,
        "time": 128,
        "duration": 6,
        "velocity": 0.63,
        "hand": "left"
      },
      {
        "midi": 65,
        "time": 128,
        "duration": 6,
        "velocity": 0.63,
        "hand": "right"
      },
      {
        "midi": 76,
        "time": 128,
        "duration": 3.833,
        "velocity": 0.63,
        "hand": "right"
      },
      {
        "midi": 48,
        "time": 129,
        "duration": 0.917,
        "velocity": 0.63,
        "hand": "left"
      },
      {
        "midi": 52,
        "time": 130,
        "duration": 0.917,
        "velocity": 0.63,
        "hand": "left"
      },
      {
        "midi": 53,
        "time": 130,
        "duration": 0.917,
        "velocity": 0.63,
        "hand": "left"
      },
      {
        "midi": 57,
        "time": 130,
        "duration": 0.917,
        "velocity": 0.63,
        "hand": "left"
      },
      {
        "midi": 60,
        "time": 131,
        "duration": 0.917,
        "velocity": 0.63,
        "hand": "right"
      },
      {
        "midi": 41,
        "time": 132,
        "duration": 0.917,
        "velocity": 0.63,
        "hand": "left"
      },
      {
        "midi": 69,
        "time": 132,
        "duration": 0.917,
        "velocity": 0.63,
        "hand": "right"
      },
      {
        "midi": 48,
        "time": 133,
        "duration": 0.917,
        "velocity": 0.63,
        "hand": "left"
      },
      {
        "midi": 71,
        "time": 133,
        "duration": 0.917,
        "velocity": 0.63,
        "hand": "right"
      },
      {
        "midi": 41,
        "time": 134,
        "duration": 2,
        "velocity": 0.63,
        "hand": "left"
      },
      {
        "midi": 60,
        "time": 134,
        "duration": 0.917,
        "velocity": 0.63,
        "hand": "right"
      },
      {
        "midi": 79,
        "time": 134,
        "duration": 0.917,
        "velocity": 0.63,
        "hand": "right"
      },
      {
        "midi": 62,
        "time": 135,
        "duration": 0.917,
        "velocity": 0.63,
        "hand": "right"
      },
      {
        "midi": 77,
        "time": 135,
        "duration": 0.917,
        "velocity": 0.63,
        "hand": "right"
      },
      {
        "midi": 36,
        "time": 136,
        "duration": 6,
        "velocity": 0.63,
        "hand": "left"
      },
      {
        "midi": 67,
        "time": 136,
        "duration": 6,
        "velocity": 0.63,
        "hand": "right"
      },
      {
        "midi": 76,
        "time": 136,
        "duration": 2.333,
        "velocity": 0.63,
        "hand": "right"
      },
      {
        "midi": 43,
        "time": 137,
        "duration": 0.917,
        "velocity": 0.63,
        "hand": "left"
      },
      {
        "midi": 48,
        "time": 138,
        "duration": 0.917,
        "velocity": 0.63,
        "hand": "left"
      },
      {
        "midi": 52,
        "time": 138,
        "duration": 0.917,
        "velocity": 0.63,
        "hand": "left"
      },
      {
        "midi": 55,
        "time": 138,
        "duration": 0.917,
        "velocity": 0.63,
        "hand": "left"
      },
      {
        "midi": 74,
        "time": 138.333,
        "duration": 0.667,
        "velocity": 0.63,
        "hand": "right"
      },
      {
        "midi": 59,
        "time": 139,
        "duration": 0.917,
        "velocity": 0.63,
        "hand": "left"
      },
      {
        "midi": 69,
        "time": 139.333,
        "duration": 0.333,
        "velocity": 0.63,
        "hand": "right"
      },
      {
        "midi": 72,
        "time": 139.667,
        "duration": 0.333,
        "velocity": 0.63,
        "hand": "right"
      },
      {
        "midi": 36,
        "time": 140,
        "duration": 0.917,
        "velocity": 0.63,
        "hand": "left"
      },
      {
        "midi": 64,
        "time": 140,
        "duration": 0.917,
        "velocity": 0.63,
        "hand": "right"
      },
      {
        "midi": 71,
        "time": 140,
        "duration": 0.917,
        "velocity": 0.63,
        "hand": "right"
      },
      {
        "midi": 43,
        "time": 141,
        "duration": 0.917,
        "velocity": 0.63,
        "hand": "left"
      },
      {
        "midi": 71,
        "time": 141,
        "duration": 0.917,
        "velocity": 0.63,
        "hand": "right"
      },
      {
        "midi": 38,
        "time": 142,
        "duration": 1,
        "velocity": 0.63,
        "hand": "left"
      },
      {
        "midi": 64,
        "time": 142,
        "duration": 1,
        "velocity": 0.63,
        "hand": "right"
      },
      {
        "midi": 72,
        "time": 142,
        "duration": 0.917,
        "velocity": 0.63,
        "hand": "right"
      },
      {
        "midi": 40,
        "time": 143,
        "duration": 1,
        "velocity": 0.63,
        "hand": "left"
      },
      {
        "midi": 68,
        "time": 143,
        "duration": 0.917,
        "velocity": 0.63,
        "hand": "right"
      },
      {
        "midi": 74,
        "time": 143,
        "duration": 0.917,
        "velocity": 0.63,
        "hand": "right"
      },
      {
        "midi": 41,
        "time": 144,
        "duration": 6,
        "velocity": 0.63,
        "hand": "left"
      },
      {
        "midi": 65,
        "time": 144,
        "duration": 6,
        "velocity": 0.63,
        "hand": "right"
      },
      {
        "midi": 76,
        "time": 144,
        "duration": 3.833,
        "velocity": 0.63,
        "hand": "right"
      },
      {
        "midi": 48,
        "time": 145,
        "duration": 0.917,
        "velocity": 0.63,
        "hand": "left"
      },
      {
        "midi": 52,
        "time": 146,
        "duration": 0.917,
        "velocity": 0.63,
        "hand": "left"
      },
      {
        "midi": 53,
        "time": 146,
        "duration": 0.917,
        "velocity": 0.63,
        "hand": "left"
      },
      {
        "midi": 57,
        "time": 146,
        "duration": 0.917,
        "velocity": 0.63,
        "hand": "left"
      },
      {
        "midi": 60,
        "time": 147,
        "duration": 0.917,
        "velocity": 0.63,
        "hand": "right"
      },
      {
        "midi": 41,
        "time": 148,
        "duration": 0.917,
        "velocity": 0.63,
        "hand": "left"
      },
      {
        "midi": 69,
        "time": 148,
        "duration": 0.917,
        "velocity": 0.63,
        "hand": "right"
      },
      {
        "midi": 48,
        "time": 149,
        "duration": 0.917,
        "velocity": 0.63,
        "hand": "left"
      },
      {
        "midi": 71,
        "time": 149,
        "duration": 0.917,
        "velocity": 0.63,
        "hand": "right"
      },
      {
        "midi": 41,
        "time": 150,
        "duration": 2,
        "velocity": 0.63,
        "hand": "left"
      },
      {
        "midi": 60,
        "time": 150,
        "duration": 0.917,
        "velocity": 0.63,
        "hand": "right"
      },
      {
        "midi": 79,
        "time": 150,
        "duration": 0.917,
        "velocity": 0.63,
        "hand": "right"
      },
      {
        "midi": 62,
        "time": 151,
        "duration": 0.917,
        "velocity": 0.63,
        "hand": "right"
      },
      {
        "midi": 77,
        "time": 151,
        "duration": 0.917,
        "velocity": 0.63,
        "hand": "right"
      },
      {
        "midi": 36,
        "time": 152,
        "duration": 6,
        "velocity": 0.63,
        "hand": "left"
      },
      {
        "midi": 67,
        "time": 152,
        "duration": 6,
        "velocity": 0.63,
        "hand": "right"
      },
      {
        "midi": 76,
        "time": 152,
        "duration": 2.833,
        "velocity": 0.63,
        "hand": "right"
      },
      {
        "midi": 43,
        "time": 153,
        "duration": 0.917,
        "velocity": 0.63,
        "hand": "left"
      },
      {
        "midi": 48,
        "time": 154,
        "duration": 0.917,
        "velocity": 0.63,
        "hand": "left"
      },
      {
        "midi": 52,
        "time": 154,
        "duration": 0.917,
        "velocity": 0.63,
        "hand": "left"
      },
      {
        "midi": 55,
        "time": 154,
        "duration": 0.917,
        "velocity": 0.63,
        "hand": "left"
      },
      {
        "midi": 59,
        "time": 155,
        "duration": 0.917,
        "velocity": 0.63,
        "hand": "left"
      },
      {
        "midi": 69,
        "time": 155.333,
        "duration": 0.333,
        "velocity": 0.63,
        "hand": "right"
      },
      {
        "midi": 72,
        "time": 155.667,
        "duration": 0.333,
        "velocity": 0.63,
        "hand": "right"
      },
      {
        "midi": 36,
        "time": 156,
        "duration": 0.917,
        "velocity": 0.63,
        "hand": "left"
      },
      {
        "midi": 64,
        "time": 156,
        "duration": 2,
        "velocity": 0.63,
        "hand": "right"
      },
      {
        "midi": 71,
        "time": 156,
        "duration": 2,
        "velocity": 0.63,
        "hand": "right"
      },
      {
        "midi": 43,
        "time": 157,
        "duration": 0.917,
        "velocity": 0.63,
        "hand": "left"
      },
      {
        "midi": 38,
        "time": 158,
        "duration": 1,
        "velocity": 0.63,
        "hand": "left"
      },
      {
        "midi": 64,
        "time": 158,
        "duration": 1,
        "velocity": 0.63,
        "hand": "right"
      },
      {
        "midi": 70,
        "time": 158,
        "duration": 1,
        "velocity": 0.63,
        "hand": "right"
      },
      {
        "midi": 40,
        "time": 159,
        "duration": 1,
        "velocity": 0.63,
        "hand": "left"
      },
      {
        "midi": 64,
        "time": 159,
        "duration": 1,
        "velocity": 0.63,
        "hand": "right"
      },
      {
        "midi": 70,
        "time": 159,
        "duration": 1,
        "velocity": 0.63,
        "hand": "right"
      },
      {
        "midi": 41,
        "time": 160,
        "duration": 5,
        "velocity": 0.63,
        "hand": "left"
      },
      {
        "midi": 65,
        "time": 160,
        "duration": 5,
        "velocity": 0.63,
        "hand": "right"
      },
      {
        "midi": 76,
        "time": 160,
        "duration": 3.833,
        "velocity": 0.63,
        "hand": "right"
      },
      {
        "midi": 55,
        "time": 160.667,
        "duration": 0.333,
        "velocity": 0.63,
        "hand": "left"
      },
      {
        "midi": 53,
        "time": 161,
        "duration": 0.667,
        "velocity": 0.63,
        "hand": "left"
      },
      {
        "midi": 55,
        "time": 161.667,
        "duration": 0.333,
        "velocity": 0.63,
        "hand": "left"
      },
      {
        "midi": 53,
        "time": 162,
        "duration": 0.667,
        "velocity": 0.63,
        "hand": "left"
      },
      {
        "midi": 55,
        "time": 162.667,
        "duration": 0.333,
        "velocity": 0.63,
        "hand": "left"
      },
      {
        "midi": 53,
        "time": 163,
        "duration": 0.667,
        "velocity": 0.63,
        "hand": "left"
      },
      {
        "midi": 55,
        "time": 163.667,
        "duration": 0.333,
        "velocity": 0.63,
        "hand": "left"
      },
      {
        "midi": 53,
        "time": 164,
        "duration": 0.917,
        "velocity": 0.63,
        "hand": "left"
      },
      {
        "midi": 69,
        "time": 164,
        "duration": 0.917,
        "velocity": 0.63,
        "hand": "right"
      },
      {
        "midi": 36,
        "time": 165,
        "duration": 1,
        "velocity": 0.63,
        "hand": "left"
      },
      {
        "midi": 64,
        "time": 165,
        "duration": 1,
        "velocity": 0.63,
        "hand": "right"
      },
      {
        "midi": 71,
        "time": 165,
        "duration": 1,
        "velocity": 0.63,
        "hand": "right"
      },
      {
        "midi": 41,
        "time": 166,
        "duration": 2,
        "velocity": 0.63,
        "hand": "left"
      },
      {
        "midi": 60,
        "time": 166,
        "duration": 2,
        "velocity": 0.63,
        "hand": "right"
      },
      {
        "midi": 79,
        "time": 166,
        "duration": 0.917,
        "velocity": 0.63,
        "hand": "right"
      },
      {
        "midi": 60,
        "time": 167,
        "duration": 0.917,
        "velocity": 0.63,
        "hand": "right"
      },
      {
        "midi": 77,
        "time": 167,
        "duration": 0.917,
        "velocity": 0.63,
        "hand": "right"
      },
      {
        "midi": 36,
        "time": 168,
        "duration": 6,
        "velocity": 0.63,
        "hand": "left"
      },
      {
        "midi": 67,
        "time": 168,
        "duration": 6,
        "velocity": 0.63,
        "hand": "right"
      },
      {
        "midi": 76,
        "time": 168,
        "duration": 2.833,
        "velocity": 0.63,
        "hand": "right"
      },
      {
        "midi": 48,
        "time": 169,
        "duration": 0.917,
        "velocity": 0.63,
        "hand": "left"
      },
      {
        "midi": 48,
        "time": 170,
        "duration": 0.917,
        "velocity": 0.63,
        "hand": "left"
      },
      {
        "midi": 48,
        "time": 171,
        "duration": 0.917,
        "velocity": 0.63,
        "hand": "left"
      },
      {
        "midi": 71,
        "time": 171,
        "duration": 0.167,
        "velocity": 0.63,
        "hand": "right"
      },
      {
        "midi": 72,
        "time": 171.167,
        "duration": 0.167,
        "velocity": 0.63,
        "hand": "right"
      },
      {
        "midi": 74,
        "time": 171.333,
        "duration": 0.167,
        "velocity": 0.63,
        "hand": "right"
      },
      {
        "midi": 76,
        "time": 171.5,
        "duration": 0.167,
        "velocity": 0.63,
        "hand": "right"
      },
      {
        "midi": 74,
        "time": 171.667,
        "duration": 0.167,
        "velocity": 0.63,
        "hand": "right"
      },
      {
        "midi": 72,
        "time": 171.833,
        "duration": 0.167,
        "velocity": 0.63,
        "hand": "right"
      },
      {
        "midi": 36,
        "time": 172,
        "duration": 0.917,
        "velocity": 0.63,
        "hand": "left"
      },
      {
        "midi": 71,
        "time": 172,
        "duration": 0.167,
        "velocity": 0.63,
        "hand": "right"
      },
      {
        "midi": 72,
        "time": 172.167,
        "duration": 0.167,
        "velocity": 0.63,
        "hand": "right"
      },
      {
        "midi": 74,
        "time": 172.333,
        "duration": 0.167,
        "velocity": 0.63,
        "hand": "right"
      },
      {
        "midi": 76,
        "time": 172.5,
        "duration": 0.167,
        "velocity": 0.63,
        "hand": "right"
      },
      {
        "midi": 74,
        "time": 172.667,
        "duration": 0.167,
        "velocity": 0.63,
        "hand": "right"
      },
      {
        "midi": 72,
        "time": 172.833,
        "duration": 0.167,
        "velocity": 0.63,
        "hand": "right"
      },
      {
        "midi": 36,
        "time": 173,
        "duration": 0.917,
        "velocity": 0.63,
        "hand": "left"
      },
      {
        "midi": 64,
        "time": 173,
        "duration": 0.917,
        "velocity": 0.63,
        "hand": "right"
      },
      {
        "midi": 71,
        "time": 173,
        "duration": 0.917,
        "velocity": 0.63,
        "hand": "right"
      },
      {
        "midi": 36,
        "time": 174,
        "duration": 2,
        "velocity": 0.63,
        "hand": "left"
      },
      {
        "midi": 64,
        "time": 174,
        "duration": 2,
        "velocity": 0.63,
        "hand": "right"
      },
      {
        "midi": 72,
        "time": 174,
        "duration": 0.917,
        "velocity": 0.63,
        "hand": "right"
      },
      {
        "midi": 36,
        "time": 175,
        "duration": 0.917,
        "velocity": 0.63,
        "hand": "left"
      },
      {
        "midi": 74,
        "time": 175,
        "duration": 0.917,
        "velocity": 0.63,
        "hand": "right"
      },
      {
        "midi": 41,
        "time": 176,
        "duration": 6,
        "velocity": 0.63,
        "hand": "left"
      },
      {
        "midi": 65,
        "time": 176,
        "duration": 6,
        "velocity": 0.63,
        "hand": "right"
      },
      {
        "midi": 76,
        "time": 176,
        "duration": 2.833,
        "velocity": 0.63,
        "hand": "right"
      },
      {
        "midi": 48,
        "time": 177,
        "duration": 0.917,
        "velocity": 0.63,
        "hand": "left"
      },
      {
        "midi": 52,
        "time": 178,
        "duration": 0.917,
        "velocity": 0.63,
        "hand": "left"
      },
      {
        "midi": 53,
        "time": 178,
        "duration": 0.917,
        "velocity": 0.63,
        "hand": "left"
      },
      {
        "midi": 57,
        "time": 178,
        "duration": 0.917,
        "velocity": 0.63,
        "hand": "left"
      },
      {
        "midi": 60,
        "time": 179,
        "duration": 0.917,
        "velocity": 0.63,
        "hand": "right"
      },
      {
        "midi": 74,
        "time": 179,
        "duration": 0.167,
        "velocity": 0.63,
        "hand": "right"
      },
      {
        "midi": 76,
        "time": 179.167,
        "duration": 0.167,
        "velocity": 0.63,
        "hand": "right"
      },
      {
        "midi": 79,
        "time": 179.333,
        "duration": 0.167,
        "velocity": 0.63,
        "hand": "right"
      },
      {
        "midi": 81,
        "time": 179.5,
        "duration": 0.167,
        "velocity": 0.63,
        "hand": "right"
      },
      {
        "midi": 79,
        "time": 179.667,
        "duration": 0.167,
        "velocity": 0.63,
        "hand": "right"
      },
      {
        "midi": 76,
        "time": 179.833,
        "duration": 0.167,
        "velocity": 0.63,
        "hand": "right"
      },
      {
        "midi": 41,
        "time": 180,
        "duration": 0.917,
        "velocity": 0.63,
        "hand": "left"
      },
      {
        "midi": 69,
        "time": 180,
        "duration": 0.917,
        "velocity": 0.63,
        "hand": "right"
      },
      {
        "midi": 48,
        "time": 181,
        "duration": 0.917,
        "velocity": 0.63,
        "hand": "left"
      },
      {
        "midi": 71,
        "time": 181,
        "duration": 0.917,
        "velocity": 0.63,
        "hand": "right"
      },
      {
        "midi": 41,
        "time": 182,
        "duration": 2,
        "velocity": 0.63,
        "hand": "left"
      },
      {
        "midi": 60,
        "time": 182,
        "duration": 2,
        "velocity": 0.63,
        "hand": "right"
      },
      {
        "midi": 79,
        "time": 182,
        "duration": 0.917,
        "velocity": 0.63,
        "hand": "right"
      },
      {
        "midi": 60,
        "time": 183,
        "duration": 0.917,
        "velocity": 0.63,
        "hand": "right"
      },
      {
        "midi": 77,
        "time": 183,
        "duration": 0.917,
        "velocity": 0.63,
        "hand": "right"
      },
      {
        "midi": 36,
        "time": 184,
        "duration": 6,
        "velocity": 0.63,
        "hand": "left"
      },
      {
        "midi": 67,
        "time": 184,
        "duration": 6,
        "velocity": 0.63,
        "hand": "right"
      },
      {
        "midi": 76,
        "time": 184,
        "duration": 0.917,
        "velocity": 0.63,
        "hand": "right"
      },
      {
        "midi": 43,
        "time": 185,
        "duration": 0.917,
        "velocity": 0.63,
        "hand": "left"
      },
      {
        "midi": 71,
        "time": 185,
        "duration": 0.167,
        "velocity": 0.63,
        "hand": "right"
      },
      {
        "midi": 72,
        "time": 185.167,
        "duration": 0.167,
        "velocity": 0.63,
        "hand": "right"
      },
      {
        "midi": 74,
        "time": 185.333,
        "duration": 0.167,
        "velocity": 0.63,
        "hand": "right"
      },
      {
        "midi": 76,
        "time": 185.5,
        "duration": 0.167,
        "velocity": 0.63,
        "hand": "right"
      },
      {
        "midi": 74,
        "time": 185.667,
        "duration": 0.167,
        "velocity": 0.63,
        "hand": "right"
      },
      {
        "midi": 72,
        "time": 185.833,
        "duration": 0.167,
        "velocity": 0.63,
        "hand": "right"
      },
      {
        "midi": 48,
        "time": 186,
        "duration": 1.917,
        "velocity": 0.63,
        "hand": "left"
      },
      {
        "midi": 71,
        "time": 186,
        "duration": 0.167,
        "velocity": 0.63,
        "hand": "right"
      },
      {
        "midi": 72,
        "time": 186.167,
        "duration": 0.167,
        "velocity": 0.63,
        "hand": "right"
      },
      {
        "midi": 74,
        "time": 186.333,
        "duration": 0.167,
        "velocity": 0.63,
        "hand": "right"
      },
      {
        "midi": 76,
        "time": 186.5,
        "duration": 0.167,
        "velocity": 0.63,
        "hand": "right"
      },
      {
        "midi": 74,
        "time": 186.667,
        "duration": 0.167,
        "velocity": 0.63,
        "hand": "right"
      },
      {
        "midi": 72,
        "time": 186.833,
        "duration": 0.167,
        "velocity": 0.63,
        "hand": "right"
      },
      {
        "midi": 71,
        "time": 187,
        "duration": 0.167,
        "velocity": 0.63,
        "hand": "right"
      },
      {
        "midi": 72,
        "time": 187.167,
        "duration": 0.167,
        "velocity": 0.63,
        "hand": "right"
      },
      {
        "midi": 74,
        "time": 187.333,
        "duration": 0.167,
        "velocity": 0.63,
        "hand": "right"
      },
      {
        "midi": 76,
        "time": 187.5,
        "duration": 0.167,
        "velocity": 0.63,
        "hand": "right"
      },
      {
        "midi": 74,
        "time": 187.667,
        "duration": 0.167,
        "velocity": 0.63,
        "hand": "right"
      },
      {
        "midi": 72,
        "time": 187.833,
        "duration": 0.167,
        "velocity": 0.63,
        "hand": "right"
      },
      {
        "midi": 50,
        "time": 188,
        "duration": 0.917,
        "velocity": 0.63,
        "hand": "left"
      },
      {
        "midi": 71,
        "time": 188,
        "duration": 0.167,
        "velocity": 0.63,
        "hand": "right"
      },
      {
        "midi": 72,
        "time": 188.167,
        "duration": 0.167,
        "velocity": 0.63,
        "hand": "right"
      },
      {
        "midi": 74,
        "time": 188.333,
        "duration": 0.167,
        "velocity": 0.63,
        "hand": "right"
      },
      {
        "midi": 76,
        "time": 188.5,
        "duration": 0.167,
        "velocity": 0.63,
        "hand": "right"
      },
      {
        "midi": 74,
        "time": 188.667,
        "duration": 0.167,
        "velocity": 0.63,
        "hand": "right"
      },
      {
        "midi": 72,
        "time": 188.833,
        "duration": 0.167,
        "velocity": 0.63,
        "hand": "right"
      },
      {
        "midi": 52,
        "time": 189,
        "duration": 0.917,
        "velocity": 0.63,
        "hand": "left"
      },
      {
        "midi": 71,
        "time": 189,
        "duration": 0.167,
        "velocity": 0.63,
        "hand": "right"
      },
      {
        "midi": 72,
        "time": 189.167,
        "duration": 0.167,
        "velocity": 0.63,
        "hand": "right"
      },
      {
        "midi": 74,
        "time": 189.333,
        "duration": 0.167,
        "velocity": 0.63,
        "hand": "right"
      },
      {
        "midi": 76,
        "time": 189.5,
        "duration": 0.167,
        "velocity": 0.63,
        "hand": "right"
      },
      {
        "midi": 74,
        "time": 189.667,
        "duration": 0.167,
        "velocity": 0.63,
        "hand": "right"
      },
      {
        "midi": 72,
        "time": 189.833,
        "duration": 0.167,
        "velocity": 0.63,
        "hand": "right"
      },
      {
        "midi": 41,
        "time": 190,
        "duration": 1,
        "velocity": 0.63,
        "hand": "left"
      },
      {
        "midi": 64,
        "time": 190,
        "duration": 1,
        "velocity": 0.63,
        "hand": "right"
      },
      {
        "midi": 70,
        "time": 190,
        "duration": 1,
        "velocity": 0.63,
        "hand": "right"
      },
      {
        "midi": 72,
        "time": 190.167,
        "duration": 0.167,
        "velocity": 0.63,
        "hand": "right"
      },
      {
        "midi": 74,
        "time": 190.333,
        "duration": 0.167,
        "velocity": 0.63,
        "hand": "right"
      },
      {
        "midi": 76,
        "time": 190.5,
        "duration": 0.167,
        "velocity": 0.63,
        "hand": "right"
      },
      {
        "midi": 74,
        "time": 190.667,
        "duration": 0.167,
        "velocity": 0.63,
        "hand": "right"
      },
      {
        "midi": 72,
        "time": 190.833,
        "duration": 0.167,
        "velocity": 0.63,
        "hand": "right"
      },
      {
        "midi": 40,
        "time": 191,
        "duration": 1,
        "velocity": 0.63,
        "hand": "left"
      },
      {
        "midi": 64,
        "time": 191,
        "duration": 1,
        "velocity": 0.63,
        "hand": "right"
      },
      {
        "midi": 70,
        "time": 191,
        "duration": 1,
        "velocity": 0.63,
        "hand": "right"
      },
      {
        "midi": 41,
        "time": 192,
        "duration": 4,
        "velocity": 0.63,
        "hand": "left"
      },
      {
        "midi": 65,
        "time": 192,
        "duration": 4,
        "velocity": 0.63,
        "hand": "right"
      },
      {
        "midi": 76,
        "time": 192,
        "duration": 0.917,
        "velocity": 0.63,
        "hand": "right"
      },
      {
        "midi": 72,
        "time": 193,
        "duration": 0.917,
        "velocity": 0.63,
        "hand": "right"
      },
      {
        "midi": 69,
        "time": 194,
        "duration": 1.917,
        "velocity": 0.63,
        "hand": "right"
      },
      {
        "midi": 40,
        "time": 196,
        "duration": 4,
        "velocity": 0.63,
        "hand": "left"
      },
      {
        "midi": 64,
        "time": 196,
        "duration": 4,
        "velocity": 0.63,
        "hand": "right"
      },
      {
        "midi": 76,
        "time": 196,
        "duration": 0.917,
        "velocity": 0.63,
        "hand": "right"
      },
      {
        "midi": 71,
        "time": 197,
        "duration": 0.917,
        "velocity": 0.63,
        "hand": "right"
      },
      {
        "midi": 67,
        "time": 198,
        "duration": 1.917,
        "velocity": 0.63,
        "hand": "right"
      },
      {
        "midi": 39,
        "time": 200,
        "duration": 4,
        "velocity": 0.63,
        "hand": "left"
      },
      {
        "midi": 67,
        "time": 200,
        "duration": 0.917,
        "velocity": 0.63,
        "hand": "right"
      },
      {
        "midi": 74,
        "time": 200,
        "duration": 0.917,
        "velocity": 0.63,
        "hand": "right"
      },
      {
        "midi": 70,
        "time": 201,
        "duration": 0.917,
        "velocity": 0.63,
        "hand": "right"
      },
      {
        "midi": 69,
        "time": 202,
        "duration": 0.917,
        "velocity": 0.63,
        "hand": "right"
      },
      {
        "midi": 65,
        "time": 203,
        "duration": 0.917,
        "velocity": 0.63,
        "hand": "right"
      },
      {
        "midi": 38,
        "time": 204,
        "duration": 4,
        "velocity": 0.63,
        "hand": "left"
      },
      {
        "midi": 65,
        "time": 204,
        "duration": 0.917,
        "velocity": 0.63,
        "hand": "right"
      },
      {
        "midi": 74,
        "time": 204,
        "duration": 0.917,
        "velocity": 0.63,
        "hand": "right"
      },
      {
        "midi": 70,
        "time": 205,
        "duration": 0.917,
        "velocity": 0.63,
        "hand": "right"
      },
      {
        "midi": 69,
        "time": 206,
        "duration": 1.917,
        "velocity": 0.63,
        "hand": "right"
      },
      {
        "midi": 36,
        "time": 208,
        "duration": 4,
        "velocity": 0.63,
        "hand": "left"
      },
      {
        "midi": 60,
        "time": 208,
        "duration": 4,
        "velocity": 0.63,
        "hand": "right"
      },
      {
        "midi": 72,
        "time": 208,
        "duration": 0.917,
        "velocity": 0.63,
        "hand": "right"
      },
      {
        "midi": 67,
        "time": 209,
        "duration": 0.917,
        "velocity": 0.63,
        "hand": "right"
      },
      {
        "midi": 72,
        "time": 210,
        "duration": 0.917,
        "velocity": 0.63,
        "hand": "right"
      },
      {
        "midi": 75,
        "time": 211,
        "duration": 0.917,
        "velocity": 0.63,
        "hand": "right"
      },
      {
        "midi": 42,
        "time": 212,
        "duration": 7.5,
        "velocity": 0.39,
        "hand": "left"
      },
      {
        "midi": 62,
        "time": 212,
        "duration": 6.917,
        "velocity": 0.39,
        "hand": "right"
      },
      {
        "midi": 74,
        "time": 212,
        "duration": 1.417,
        "velocity": 0.39,
        "hand": "right"
      },
      {
        "midi": 66,
        "time": 213.5,
        "duration": 0.75,
        "velocity": 0.39,
        "hand": "right"
      },
      {
        "midi": 69,
        "time": 214.25,
        "duration": 0.75,
        "velocity": 0.39,
        "hand": "right"
      },
      {
        "midi": 72,
        "time": 215,
        "duration": 1.417,
        "velocity": 0.39,
        "hand": "right"
      },
      {
        "midi": 74,
        "time": 216.5,
        "duration": 0.333,
        "velocity": 0.39,
        "hand": "right"
      },
      {
        "midi": 69,
        "time": 216.833,
        "duration": 0.333,
        "velocity": 0.39,
        "hand": "right"
      },
      {
        "midi": 78,
        "time": 217.25,
        "duration": 0.75,
        "velocity": 0.39,
        "hand": "right"
      },
      {
        "midi": 81,
        "time": 218,
        "duration": 1.417,
        "velocity": 0.39,
        "hand": "right"
      }
    ],
    "hard": [
      {
        "midi": 41,
        "time": 0,
        "duration": 4,
        "velocity": 0.63,
        "hand": "left"
      },
      {
        "midi": 60,
        "time": 0,
        "duration": 4,
        "velocity": 0.63,
        "hand": "right"
      },
      {
        "midi": 64,
        "time": 0,
        "duration": 4,
        "velocity": 0.63,
        "hand": "right"
      },
      {
        "midi": 65,
        "time": 0,
        "duration": 4,
        "velocity": 0.63,
        "hand": "right"
      },
      {
        "midi": 65,
        "time": 0,
        "duration": 0.333,
        "velocity": 0.63,
        "hand": "right"
      },
      {
        "midi": 69,
        "time": 0,
        "duration": 4,
        "velocity": 0.63,
        "hand": "right"
      },
      {
        "midi": 74,
        "time": 0,
        "duration": 0.167,
        "velocity": 0.63,
        "hand": "right"
      },
      {
        "midi": 76,
        "time": 0.167,
        "duration": 0.167,
        "velocity": 0.63,
        "hand": "right"
      },
      {
        "midi": 72,
        "time": 0.333,
        "duration": 1.583,
        "velocity": 0.63,
        "hand": "right"
      },
      {
        "midi": 79,
        "time": 0.333,
        "duration": 0.167,
        "velocity": 0.63,
        "hand": "right"
      },
      {
        "midi": 81,
        "time": 0.5,
        "duration": 0.167,
        "velocity": 0.63,
        "hand": "right"
      },
      {
        "midi": 79,
        "time": 0.667,
        "duration": 0.167,
        "velocity": 0.63,
        "hand": "right"
      },
      {
        "midi": 76,
        "time": 0.833,
        "duration": 0.167,
        "velocity": 0.63,
        "hand": "right"
      },
      {
        "midi": 74,
        "time": 1,
        "duration": 0.167,
        "velocity": 0.63,
        "hand": "right"
      },
      {
        "midi": 76,
        "time": 1.167,
        "duration": 0.167,
        "velocity": 0.63,
        "hand": "right"
      },
      {
        "midi": 79,
        "time": 1.333,
        "duration": 0.167,
        "velocity": 0.63,
        "hand": "right"
      },
      {
        "midi": 81,
        "time": 1.5,
        "duration": 0.167,
        "velocity": 0.63,
        "hand": "right"
      },
      {
        "midi": 79,
        "time": 1.667,
        "duration": 0.167,
        "velocity": 0.63,
        "hand": "right"
      },
      {
        "midi": 76,
        "time": 1.833,
        "duration": 0.167,
        "velocity": 0.63,
        "hand": "right"
      },
      {
        "midi": 65,
        "time": 2,
        "duration": 0.333,
        "velocity": 0.63,
        "hand": "right"
      },
      {
        "midi": 74,
        "time": 2,
        "duration": 0.167,
        "velocity": 0.63,
        "hand": "right"
      },
      {
        "midi": 76,
        "time": 2.167,
        "duration": 0.167,
        "velocity": 0.63,
        "hand": "right"
      },
      {
        "midi": 72,
        "time": 2.333,
        "duration": 0.667,
        "velocity": 0.63,
        "hand": "right"
      },
      {
        "midi": 79,
        "time": 2.333,
        "duration": 0.167,
        "velocity": 0.63,
        "hand": "right"
      },
      {
        "midi": 81,
        "time": 2.5,
        "duration": 0.167,
        "velocity": 0.63,
        "hand": "right"
      },
      {
        "midi": 79,
        "time": 2.667,
        "duration": 0.167,
        "velocity": 0.63,
        "hand": "right"
      },
      {
        "midi": 76,
        "time": 2.833,
        "duration": 0.167,
        "velocity": 0.63,
        "hand": "right"
      },
      {
        "midi": 65,
        "time": 3,
        "duration": 0.333,
        "velocity": 0.63,
        "hand": "right"
      },
      {
        "midi": 74,
        "time": 3,
        "duration": 0.167,
        "velocity": 0.63,
        "hand": "right"
      },
      {
        "midi": 76,
        "time": 3.167,
        "duration": 0.167,
        "velocity": 0.63,
        "hand": "right"
      },
      {
        "midi": 72,
        "time": 3.333,
        "duration": 0.667,
        "velocity": 0.63,
        "hand": "right"
      },
      {
        "midi": 79,
        "time": 3.333,
        "duration": 0.167,
        "velocity": 0.63,
        "hand": "right"
      },
      {
        "midi": 81,
        "time": 3.5,
        "duration": 0.167,
        "velocity": 0.63,
        "hand": "right"
      },
      {
        "midi": 79,
        "time": 3.667,
        "duration": 0.167,
        "velocity": 0.63,
        "hand": "right"
      },
      {
        "midi": 76,
        "time": 3.833,
        "duration": 0.167,
        "velocity": 0.63,
        "hand": "right"
      },
      {
        "midi": 40,
        "time": 4,
        "duration": 3,
        "velocity": 0.63,
        "hand": "left"
      },
      {
        "midi": 60,
        "time": 4,
        "duration": 3,
        "velocity": 0.63,
        "hand": "right"
      },
      {
        "midi": 64,
        "time": 4,
        "duration": 3,
        "velocity": 0.63,
        "hand": "right"
      },
      {
        "midi": 64,
        "time": 4,
        "duration": 0.333,
        "velocity": 0.63,
        "hand": "right"
      },
      {
        "midi": 67,
        "time": 4,
        "duration": 3,
        "velocity": 0.63,
        "hand": "right"
      },
      {
        "midi": 69,
        "time": 4,
        "duration": 3,
        "velocity": 0.63,
        "hand": "right"
      },
      {
        "midi": 72,
        "time": 4,
        "duration": 0.167,
        "velocity": 0.63,
        "hand": "right"
      },
      {
        "midi": 76,
        "time": 4.167,
        "duration": 0.167,
        "velocity": 0.63,
        "hand": "right"
      },
      {
        "midi": 71,
        "time": 4.333,
        "duration": 1.583,
        "velocity": 0.63,
        "hand": "right"
      },
      {
        "midi": 79,
        "time": 4.333,
        "duration": 0.167,
        "velocity": 0.63,
        "hand": "right"
      },
      {
        "midi": 81,
        "time": 4.5,
        "duration": 0.167,
        "velocity": 0.63,
        "hand": "right"
      },
      {
        "midi": 79,
        "time": 4.667,
        "duration": 0.167,
        "velocity": 0.63,
        "hand": "right"
      },
      {
        "midi": 76,
        "time": 4.833,
        "duration": 0.167,
        "velocity": 0.63,
        "hand": "right"
      },
      {
        "midi": 72,
        "time": 5,
        "duration": 0.167,
        "velocity": 0.63,
        "hand": "right"
      },
      {
        "midi": 76,
        "time": 5.167,
        "duration": 0.167,
        "velocity": 0.63,
        "hand": "right"
      },
      {
        "midi": 79,
        "time": 5.333,
        "duration": 0.167,
        "velocity": 0.63,
        "hand": "right"
      },
      {
        "midi": 81,
        "time": 5.5,
        "duration": 0.167,
        "velocity": 0.63,
        "hand": "right"
      },
      {
        "midi": 79,
        "time": 5.667,
        "duration": 0.167,
        "velocity": 0.63,
        "hand": "right"
      },
      {
        "midi": 76,
        "time": 5.833,
        "duration": 0.167,
        "velocity": 0.63,
        "hand": "right"
      },
      {
        "midi": 64,
        "time": 6,
        "duration": 0.333,
        "velocity": 0.63,
        "hand": "right"
      },
      {
        "midi": 72,
        "time": 6,
        "duration": 0.167,
        "velocity": 0.63,
        "hand": "right"
      },
      {
        "midi": 76,
        "time": 6.167,
        "duration": 0.167,
        "velocity": 0.63,
        "hand": "right"
      },
      {
        "midi": 71,
        "time": 6.333,
        "duration": 0.667,
        "velocity": 0.63,
        "hand": "right"
      },
      {
        "midi": 79,
        "time": 6.333,
        "duration": 0.167,
        "velocity": 0.63,
        "hand": "right"
      },
      {
        "midi": 81,
        "time": 6.5,
        "duration": 0.167,
        "velocity": 0.63,
        "hand": "right"
      },
      {
        "midi": 79,
        "time": 6.667,
        "duration": 0.167,
        "velocity": 0.63,
        "hand": "right"
      },
      {
        "midi": 76,
        "time": 6.833,
        "duration": 0.167,
        "velocity": 0.63,
        "hand": "right"
      },
      {
        "midi": 39,
        "time": 7,
        "duration": 1,
        "velocity": 0.63,
        "hand": "left"
      },
      {
        "midi": 60,
        "time": 7,
        "duration": 1,
        "velocity": 0.63,
        "hand": "right"
      },
      {
        "midi": 63,
        "time": 7,
        "duration": 0.917,
        "velocity": 0.63,
        "hand": "right"
      },
      {
        "midi": 64,
        "time": 7,
        "duration": 1,
        "velocity": 0.63,
        "hand": "right"
      },
      {
        "midi": 67,
        "time": 7,
        "duration": 1,
        "velocity": 0.63,
        "hand": "right"
      },
      {
        "midi": 69,
        "time": 7,
        "duration": 1,
        "velocity": 0.63,
        "hand": "right"
      },
      {
        "midi": 72,
        "time": 7,
        "duration": 0.167,
        "velocity": 0.63,
        "hand": "right"
      },
      {
        "midi": 76,
        "time": 7.167,
        "duration": 0.167,
        "velocity": 0.63,
        "hand": "right"
      },
      {
        "midi": 79,
        "time": 7.333,
        "duration": 0.167,
        "velocity": 0.63,
        "hand": "right"
      },
      {
        "midi": 81,
        "time": 7.5,
        "duration": 0.167,
        "velocity": 0.63,
        "hand": "right"
      },
      {
        "midi": 79,
        "time": 7.667,
        "duration": 0.167,
        "velocity": 0.63,
        "hand": "right"
      },
      {
        "midi": 76,
        "time": 7.833,
        "duration": 0.167,
        "velocity": 0.63,
        "hand": "right"
      },
      {
        "midi": 38,
        "time": 8,
        "duration": 4,
        "velocity": 0.63,
        "hand": "left"
      },
      {
        "midi": 60,
        "time": 8,
        "duration": 4,
        "velocity": 0.63,
        "hand": "right"
      },
      {
        "midi": 62,
        "time": 8,
        "duration": 4,
        "velocity": 0.63,
        "hand": "right"
      },
      {
        "midi": 62,
        "time": 8,
        "duration": 0.333,
        "velocity": 0.63,
        "hand": "right"
      },
      {
        "midi": 65,
        "time": 8,
        "duration": 4,
        "velocity": 0.63,
        "hand": "right"
      },
      {
        "midi": 69,
        "time": 8,
        "duration": 4,
        "velocity": 0.63,
        "hand": "right"
      },
      {
        "midi": 72,
        "time": 8,
        "duration": 0.167,
        "velocity": 0.63,
        "hand": "right"
      },
      {
        "midi": 74,
        "time": 8.167,
        "duration": 0.167,
        "velocity": 0.63,
        "hand": "right"
      },
      {
        "midi": 69,
        "time": 8.333,
        "duration": 1.583,
        "velocity": 0.63,
        "hand": "right"
      },
      {
        "midi": 77,
        "time": 8.333,
        "duration": 0.167,
        "velocity": 0.63,
        "hand": "right"
      },
      {
        "midi": 79,
        "time": 8.5,
        "duration": 0.167,
        "velocity": 0.63,
        "hand": "right"
      },
      {
        "midi": 77,
        "time": 8.667,
        "duration": 0.167,
        "velocity": 0.63,
        "hand": "right"
      },
      {
        "midi": 74,
        "time": 8.833,
        "duration": 0.167,
        "velocity": 0.63,
        "hand": "right"
      },
      {
        "midi": 72,
        "time": 9,
        "duration": 0.167,
        "velocity": 0.63,
        "hand": "right"
      },
      {
        "midi": 74,
        "time": 9.167,
        "duration": 0.167,
        "velocity": 0.63,
        "hand": "right"
      },
      {
        "midi": 77,
        "time": 9.333,
        "duration": 0.167,
        "velocity": 0.63,
        "hand": "right"
      },
      {
        "midi": 79,
        "time": 9.5,
        "duration": 0.167,
        "velocity": 0.63,
        "hand": "right"
      },
      {
        "midi": 77,
        "time": 9.667,
        "duration": 0.167,
        "velocity": 0.63,
        "hand": "right"
      },
      {
        "midi": 74,
        "time": 9.833,
        "duration": 0.167,
        "velocity": 0.63,
        "hand": "right"
      },
      {
        "midi": 62,
        "time": 10,
        "duration": 0.333,
        "velocity": 0.63,
        "hand": "right"
      },
      {
        "midi": 72,
        "time": 10,
        "duration": 0.167,
        "velocity": 0.63,
        "hand": "right"
      },
      {
        "midi": 74,
        "time": 10.167,
        "duration": 0.167,
        "velocity": 0.63,
        "hand": "right"
      },
      {
        "midi": 69,
        "time": 10.333,
        "duration": 0.667,
        "velocity": 0.63,
        "hand": "right"
      },
      {
        "midi": 77,
        "time": 10.333,
        "duration": 0.167,
        "velocity": 0.63,
        "hand": "right"
      },
      {
        "midi": 79,
        "time": 10.5,
        "duration": 0.167,
        "velocity": 0.63,
        "hand": "right"
      },
      {
        "midi": 77,
        "time": 10.667,
        "duration": 0.167,
        "velocity": 0.63,
        "hand": "right"
      },
      {
        "midi": 74,
        "time": 10.833,
        "duration": 0.167,
        "velocity": 0.63,
        "hand": "right"
      },
      {
        "midi": 62,
        "time": 11,
        "duration": 0.333,
        "velocity": 0.63,
        "hand": "right"
      },
      {
        "midi": 72,
        "time": 11,
        "duration": 0.167,
        "velocity": 0.63,
        "hand": "right"
      },
      {
        "midi": 74,
        "time": 11.167,
        "duration": 0.167,
        "velocity": 0.63,
        "hand": "right"
      },
      {
        "midi": 69,
        "time": 11.333,
        "duration": 0.667,
        "velocity": 0.63,
        "hand": "right"
      },
      {
        "midi": 77,
        "time": 11.333,
        "duration": 0.167,
        "velocity": 0.63,
        "hand": "right"
      },
      {
        "midi": 79,
        "time": 11.5,
        "duration": 0.167,
        "velocity": 0.63,
        "hand": "right"
      },
      {
        "midi": 77,
        "time": 11.667,
        "duration": 0.167,
        "velocity": 0.63,
        "hand": "right"
      },
      {
        "midi": 74,
        "time": 11.833,
        "duration": 0.167,
        "velocity": 0.63,
        "hand": "right"
      },
      {
        "midi": 36,
        "time": 12,
        "duration": 4,
        "velocity": 0.63,
        "hand": "left"
      },
      {
        "midi": 60,
        "time": 12,
        "duration": 4,
        "velocity": 0.63,
        "hand": "right"
      },
      {
        "midi": 60,
        "time": 12,
        "duration": 0.333,
        "velocity": 0.63,
        "hand": "right"
      },
      {
        "midi": 64,
        "time": 12,
        "duration": 4,
        "velocity": 0.63,
        "hand": "right"
      },
      {
        "midi": 67,
        "time": 12,
        "duration": 4,
        "velocity": 0.63,
        "hand": "right"
      },
      {
        "midi": 71,
        "time": 12,
        "duration": 0.167,
        "velocity": 0.63,
        "hand": "right"
      },
      {
        "midi": 71,
        "time": 12,
        "duration": 4,
        "velocity": 0.63,
        "hand": "right"
      },
      {
        "midi": 72,
        "time": 12.167,
        "duration": 0.167,
        "velocity": 0.63,
        "hand": "right"
      },
      {
        "midi": 67,
        "time": 12.333,
        "duration": 1.583,
        "velocity": 0.63,
        "hand": "right"
      },
      {
        "midi": 74,
        "time": 12.333,
        "duration": 0.167,
        "velocity": 0.63,
        "hand": "right"
      },
      {
        "midi": 76,
        "time": 12.5,
        "duration": 0.167,
        "velocity": 0.63,
        "hand": "right"
      },
      {
        "midi": 74,
        "time": 12.667,
        "duration": 0.167,
        "velocity": 0.63,
        "hand": "right"
      },
      {
        "midi": 72,
        "time": 12.833,
        "duration": 0.167,
        "velocity": 0.63,
        "hand": "right"
      },
      {
        "midi": 71,
        "time": 13,
        "duration": 0.167,
        "velocity": 0.63,
        "hand": "right"
      },
      {
        "midi": 72,
        "time": 13.167,
        "duration": 0.167,
        "velocity": 0.63,
        "hand": "right"
      },
      {
        "midi": 74,
        "time": 13.333,
        "duration": 0.167,
        "velocity": 0.63,
        "hand": "right"
      },
      {
        "midi": 76,
        "time": 13.5,
        "duration": 0.167,
        "velocity": 0.63,
        "hand": "right"
      },
      {
        "midi": 74,
        "time": 13.667,
        "duration": 0.167,
        "velocity": 0.63,
        "hand": "right"
      },
      {
        "midi": 72,
        "time": 13.833,
        "duration": 0.167,
        "velocity": 0.63,
        "hand": "right"
      },
      {
        "midi": 60,
        "time": 14,
        "duration": 0.333,
        "velocity": 0.63,
        "hand": "right"
      },
      {
        "midi": 71,
        "time": 14,
        "duration": 0.167,
        "velocity": 0.63,
        "hand": "right"
      },
      {
        "midi": 72,
        "time": 14.167,
        "duration": 0.167,
        "velocity": 0.63,
        "hand": "right"
      },
      {
        "midi": 67,
        "time": 14.333,
        "duration": 0.667,
        "velocity": 0.63,
        "hand": "right"
      },
      {
        "midi": 74,
        "time": 14.333,
        "duration": 0.167,
        "velocity": 0.63,
        "hand": "right"
      },
      {
        "midi": 76,
        "time": 14.5,
        "duration": 0.167,
        "velocity": 0.63,
        "hand": "right"
      },
      {
        "midi": 74,
        "time": 14.667,
        "duration": 0.167,
        "velocity": 0.63,
        "hand": "right"
      },
      {
        "midi": 72,
        "time": 14.833,
        "duration": 0.167,
        "velocity": 0.63,
        "hand": "right"
      },
      {
        "midi": 60,
        "time": 15,
        "duration": 0.333,
        "velocity": 0.63,
        "hand": "right"
      },
      {
        "midi": 71,
        "time": 15,
        "duration": 0.917,
        "velocity": 0.63,
        "hand": "right"
      },
      {
        "midi": 67,
        "time": 15.333,
        "duration": 0.667,
        "velocity": 0.63,
        "hand": "right"
      },
      {
        "midi": 41,
        "time": 16,
        "duration": 4,
        "velocity": 0.63,
        "hand": "left"
      },
      {
        "midi": 53,
        "time": 16,
        "duration": 0.333,
        "velocity": 0.63,
        "hand": "left"
      },
      {
        "midi": 60,
        "time": 16,
        "duration": 4,
        "velocity": 0.63,
        "hand": "right"
      },
      {
        "midi": 64,
        "time": 16,
        "duration": 0.167,
        "velocity": 0.63,
        "hand": "right"
      },
      {
        "midi": 64,
        "time": 16,
        "duration": 4,
        "velocity": 0.63,
        "hand": "right"
      },
      {
        "midi": 65,
        "time": 16,
        "duration": 4,
        "velocity": 0.63,
        "hand": "right"
      },
      {
        "midi": 69,
        "time": 16,
        "duration": 4,
        "velocity": 0.63,
        "hand": "right"
      },
      {
        "midi": 64,
        "time": 16.167,
        "duration": 0.167,
        "velocity": 0.63,
        "hand": "right"
      },
      {
        "midi": 60,
        "time": 16.333,
        "duration": 0.667,
        "velocity": 0.63,
        "hand": "right"
      },
      {
        "midi": 64,
        "time": 16.333,
        "duration": 0.167,
        "velocity": 0.63,
        "hand": "right"
      },
      {
        "midi": 64,
        "time": 16.5,
        "duration": 0.167,
        "velocity": 0.63,
        "hand": "right"
      },
      {
        "midi": 64,
        "time": 16.667,
        "duration": 0.167,
        "velocity": 0.63,
        "hand": "right"
      },
      {
        "midi": 62,
        "time": 16.833,
        "duration": 0.167,
        "velocity": 0.63,
        "hand": "right"
      },
      {
        "midi": 53,
        "time": 17,
        "duration": 0.333,
        "velocity": 0.63,
        "hand": "left"
      },
      {
        "midi": 60,
        "time": 17.333,
        "duration": 0.667,
        "velocity": 0.63,
        "hand": "right"
      },
      {
        "midi": 53,
        "time": 18,
        "duration": 1.917,
        "velocity": 0.63,
        "hand": "left"
      },
      {
        "midi": 60,
        "time": 18,
        "duration": 1.917,
        "velocity": 0.63,
        "hand": "right"
      },
      {
        "midi": 64,
        "time": 18,
        "duration": 0.167,
        "velocity": 0.63,
        "hand": "right"
      },
      {
        "midi": 64,
        "time": 18.167,
        "duration": 0.167,
        "velocity": 0.63,
        "hand": "right"
      },
      {
        "midi": 64,
        "time": 18.333,
        "duration": 0.167,
        "velocity": 0.63,
        "hand": "right"
      },
      {
        "midi": 64,
        "time": 18.5,
        "duration": 0.167,
        "velocity": 0.63,
        "hand": "right"
      },
      {
        "midi": 64,
        "time": 18.667,
        "duration": 0.333,
        "velocity": 0.63,
        "hand": "right"
      },
      {
        "midi": 64,
        "time": 19,
        "duration": 0.167,
        "velocity": 0.63,
        "hand": "right"
      },
      {
        "midi": 64,
        "time": 19.167,
        "duration": 0.167,
        "velocity": 0.63,
        "hand": "right"
      },
      {
        "midi": 64,
        "time": 19.333,
        "duration": 0.167,
        "velocity": 0.63,
        "hand": "right"
      },
      {
        "midi": 64,
        "time": 19.5,
        "duration": 0.167,
        "velocity": 0.63,
        "hand": "right"
      },
      {
        "midi": 64,
        "time": 19.667,
        "duration": 0.333,
        "velocity": 0.63,
        "hand": "right"
      },
      {
        "midi": 40,
        "time": 20,
        "duration": 3,
        "velocity": 0.63,
        "hand": "left"
      },
      {
        "midi": 52,
        "time": 20,
        "duration": 0.333,
        "velocity": 0.63,
        "hand": "left"
      },
      {
        "midi": 60,
        "time": 20,
        "duration": 3,
        "velocity": 0.63,
        "hand": "right"
      },
      {
        "midi": 64,
        "time": 20,
        "duration": 0.167,
        "velocity": 0.63,
        "hand": "right"
      },
      {
        "midi": 64,
        "time": 20,
        "duration": 3,
        "velocity": 0.63,
        "hand": "right"
      },
      {
        "midi": 67,
        "time": 20,
        "duration": 3,
        "velocity": 0.63,
        "hand": "right"
      },
      {
        "midi": 64,
        "time": 20.167,
        "duration": 0.167,
        "velocity": 0.63,
        "hand": "right"
      },
      {
        "midi": 59,
        "time": 20.333,
        "duration": 0.667,
        "velocity": 0.63,
        "hand": "left"
      },
      {
        "midi": 64,
        "time": 20.333,
        "duration": 0.167,
        "velocity": 0.63,
        "hand": "right"
      },
      {
        "midi": 64,
        "time": 20.5,
        "duration": 0.167,
        "velocity": 0.63,
        "hand": "right"
      },
      {
        "midi": 64,
        "time": 20.667,
        "duration": 0.167,
        "velocity": 0.63,
        "hand": "right"
      },
      {
        "midi": 62,
        "time": 20.833,
        "duration": 0.167,
        "velocity": 0.63,
        "hand": "right"
      },
      {
        "midi": 52,
        "time": 21,
        "duration": 0.333,
        "velocity": 0.63,
        "hand": "left"
      },
      {
        "midi": 59,
        "time": 21.333,
        "duration": 0.667,
        "velocity": 0.63,
        "hand": "left"
      },
      {
        "midi": 52,
        "time": 22,
        "duration": 0.917,
        "velocity": 0.63,
        "hand": "left"
      },
      {
        "midi": 55,
        "time": 22,
        "duration": 0.917,
        "velocity": 0.63,
        "hand": "left"
      },
      {
        "midi": 64,
        "time": 22,
        "duration": 0.167,
        "velocity": 0.63,
        "hand": "right"
      },
      {
        "midi": 64,
        "time": 22.167,
        "duration": 0.167,
        "velocity": 0.63,
        "hand": "right"
      },
      {
        "midi": 64,
        "time": 22.333,
        "duration": 0.333,
        "velocity": 0.63,
        "hand": "right"
      },
      {
        "midi": 64,
        "time": 22.667,
        "duration": 0.333,
        "velocity": 0.63,
        "hand": "right"
      },
      {
        "midi": 39,
        "time": 23,
        "duration": 1,
        "velocity": 0.63,
        "hand": "left"
      },
      {
        "midi": 51,
        "time": 23,
        "duration": 0.917,
        "velocity": 0.63,
        "hand": "left"
      },
      {
        "midi": 60,
        "time": 23,
        "duration": 1,
        "velocity": 0.63,
        "hand": "right"
      },
      {
        "midi": 64,
        "time": 23,
        "duration": 0.167,
        "velocity": 0.63,
        "hand": "right"
      },
      {
        "midi": 64,
        "time": 23,
        "duration": 1,
        "velocity": 0.63,
        "hand": "right"
      },
      {
        "midi": 67,
        "time": 23,
        "duration": 1,
        "velocity": 0.63,
        "hand": "right"
      },
      {
        "midi": 64,
        "time": 23.167,
        "duration": 0.167,
        "velocity": 0.63,
        "hand": "right"
      },
      {
        "midi": 64,
        "time": 23.333,
        "duration": 0.167,
        "velocity": 0.63,
        "hand": "right"
      },
      {
        "midi": 64,
        "time": 23.5,
        "duration": 0.167,
        "velocity": 0.63,
        "hand": "right"
      },
      {
        "midi": 64,
        "time": 23.667,
        "duration": 0.333,
        "velocity": 0.63,
        "hand": "right"
      },
      {
        "midi": 38,
        "time": 24,
        "duration": 4,
        "velocity": 0.63,
        "hand": "left"
      },
      {
        "midi": 50,
        "time": 24,
        "duration": 0.917,
        "velocity": 0.63,
        "hand": "left"
      },
      {
        "midi": 53,
        "time": 24,
        "duration": 0.917,
        "velocity": 0.63,
        "hand": "left"
      },
      {
        "midi": 62,
        "time": 24,
        "duration": 0.167,
        "velocity": 0.63,
        "hand": "right"
      },
      {
        "midi": 62,
        "time": 24,
        "duration": 4,
        "velocity": 0.63,
        "hand": "right"
      },
      {
        "midi": 65,
        "time": 24,
        "duration": 4,
        "velocity": 0.63,
        "hand": "right"
      },
      {
        "midi": 69,
        "time": 24,
        "duration": 4,
        "velocity": 0.63,
        "hand": "right"
      },
      {
        "midi": 60,
        "time": 24.167,
        "duration": 0.167,
        "velocity": 0.63,
        "hand": "right"
      },
      {
        "midi": 64,
        "time": 24.333,
        "duration": 0.167,
        "velocity": 0.63,
        "hand": "right"
      },
      {
        "midi": 62,
        "time": 24.5,
        "duration": 0.167,
        "velocity": 0.63,
        "hand": "right"
      },
      {
        "midi": 64,
        "time": 24.667,
        "duration": 0.167,
        "velocity": 0.63,
        "hand": "right"
      },
      {
        "midi": 62,
        "time": 24.833,
        "duration": 0.167,
        "velocity": 0.63,
        "hand": "right"
      },
      {
        "midi": 57,
        "time": 25,
        "duration": 0.917,
        "velocity": 0.63,
        "hand": "left"
      },
      {
        "midi": 50,
        "time": 26,
        "duration": 0.917,
        "velocity": 0.63,
        "hand": "left"
      },
      {
        "midi": 53,
        "time": 26,
        "duration": 0.917,
        "velocity": 0.63,
        "hand": "left"
      },
      {
        "midi": 57,
        "time": 26,
        "duration": 0.917,
        "velocity": 0.63,
        "hand": "left"
      },
      {
        "midi": 64,
        "time": 26,
        "duration": 0.167,
        "velocity": 0.63,
        "hand": "right"
      },
      {
        "midi": 62,
        "time": 26.167,
        "duration": 0.167,
        "velocity": 0.63,
        "hand": "right"
      },
      {
        "midi": 64,
        "time": 26.333,
        "duration": 0.167,
        "velocity": 0.63,
        "hand": "right"
      },
      {
        "midi": 62,
        "time": 26.5,
        "duration": 0.167,
        "velocity": 0.63,
        "hand": "right"
      },
      {
        "midi": 64,
        "time": 26.667,
        "duration": 0.167,
        "velocity": 0.63,
        "hand": "right"
      },
      {
        "midi": 62,
        "time": 26.833,
        "duration": 0.167,
        "velocity": 0.63,
        "hand": "right"
      },
      {
        "midi": 50,
        "time": 27,
        "duration": 0.333,
        "velocity": 0.63,
        "hand": "left"
      },
      {
        "midi": 53,
        "time": 27.333,
        "duration": 0.333,
        "velocity": 0.63,
        "hand": "left"
      },
      {
        "midi": 57,
        "time": 27.667,
        "duration": 0.333,
        "velocity": 0.63,
        "hand": "left"
      },
      {
        "midi": 60,
        "time": 27.833,
        "duration": 0.167,
        "velocity": 0.63,
        "hand": "right"
      },
      {
        "midi": 36,
        "time": 28,
        "duration": 4,
        "velocity": 0.63,
        "hand": "left"
      },
      {
        "midi": 48,
        "time": 28,
        "duration": 0.917,
        "velocity": 0.63,
        "hand": "left"
      },
      {
        "midi": 55,
        "time": 28,
        "duration": 0.917,
        "velocity": 0.63,
        "hand": "left"
      },
      {
        "midi": 59,
        "time": 28,
        "duration": 0.167,
        "velocity": 0.63,
        "hand": "left"
      },
      {
        "midi": 60,
        "time": 28,
        "duration": 4,
        "velocity": 0.63,
        "hand": "right"
      },
      {
        "midi": 64,
        "time": 28,
        "duration": 0.167,
        "velocity": 0.63,
        "hand": "right"
      },
      {
        "midi": 64,
        "time": 28,
        "duration": 4,
        "velocity": 0.63,
        "hand": "right"
      },
      {
        "midi": 67,
        "time": 28,
        "duration": 4,
        "velocity": 0.63,
        "hand": "right"
      },
      {
        "midi": 71,
        "time": 28,
        "duration": 4,
        "velocity": 0.63,
        "hand": "right"
      },
      {
        "midi": 64,
        "time": 28.167,
        "duration": 0.167,
        "velocity": 0.63,
        "hand": "right"
      },
      {
        "midi": 64,
        "time": 28.333,
        "duration": 0.167,
        "velocity": 0.63,
        "hand": "right"
      },
      {
        "midi": 64,
        "time": 28.5,
        "duration": 0.167,
        "velocity": 0.63,
        "hand": "right"
      },
      {
        "midi": 64,
        "time": 28.667,
        "duration": 0.333,
        "velocity": 0.63,
        "hand": "right"
      },
      {
        "midi": 48,
        "time": 29,
        "duration": 0.917,
        "velocity": 0.63,
        "hand": "left"
      },
      {
        "midi": 59,
        "time": 29,
        "duration": 0.167,
        "velocity": 0.63,
        "hand": "left"
      },
      {
        "midi": 64,
        "time": 29,
        "duration": 0.167,
        "velocity": 0.63,
        "hand": "right"
      },
      {
        "midi": 64,
        "time": 29.167,
        "duration": 0.167,
        "velocity": 0.63,
        "hand": "right"
      },
      {
        "midi": 64,
        "time": 29.333,
        "duration": 0.167,
        "velocity": 0.63,
        "hand": "right"
      },
      {
        "midi": 64,
        "time": 29.5,
        "duration": 0.167,
        "velocity": 0.63,
        "hand": "right"
      },
      {
        "midi": 64,
        "time": 29.667,
        "duration": 0.333,
        "velocity": 0.63,
        "hand": "right"
      },
      {
        "midi": 48,
        "time": 30,
        "duration": 1.917,
        "velocity": 0.63,
        "hand": "left"
      },
      {
        "midi": 55,
        "time": 30,
        "duration": 1.917,
        "velocity": 0.63,
        "hand": "left"
      },
      {
        "midi": 59,
        "time": 30,
        "duration": 0.167,
        "velocity": 0.63,
        "hand": "left"
      },
      {
        "midi": 64,
        "time": 30,
        "duration": 0.167,
        "velocity": 0.63,
        "hand": "right"
      },
      {
        "midi": 64,
        "time": 30.167,
        "duration": 0.167,
        "velocity": 0.63,
        "hand": "right"
      },
      {
        "midi": 64,
        "time": 30.333,
        "duration": 0.333,
        "velocity": 0.63,
        "hand": "right"
      },
      {
        "midi": 62,
        "time": 30.667,
        "duration": 0.167,
        "velocity": 0.63,
        "hand": "right"
      },
      {
        "midi": 60,
        "time": 30.833,
        "duration": 0.5,
        "velocity": 0.63,
        "hand": "right"
      },
      {
        "midi": 64,
        "time": 31.333,
        "duration": 0.333,
        "velocity": 0.63,
        "hand": "right"
      },
      {
        "midi": 67,
        "time": 31.667,
        "duration": 0.333,
        "velocity": 0.63,
        "hand": "right"
      },
      {
        "midi": 41,
        "time": 32,
        "duration": 4,
        "velocity": 0.63,
        "hand": "left"
      },
      {
        "midi": 41,
        "time": 32,
        "duration": 0.917,
        "velocity": 0.63,
        "hand": "left"
      },
      {
        "midi": 60,
        "time": 32,
        "duration": 4,
        "velocity": 0.63,
        "hand": "right"
      },
      {
        "midi": 64,
        "time": 32,
        "duration": 0.917,
        "velocity": 0.63,
        "hand": "right"
      },
      {
        "midi": 64,
        "time": 32,
        "duration": 4,
        "velocity": 0.63,
        "hand": "right"
      },
      {
        "midi": 65,
        "time": 32,
        "duration": 4,
        "velocity": 0.63,
        "hand": "right"
      },
      {
        "midi": 69,
        "time": 32,
        "duration": 0.917,
        "velocity": 0.63,
        "hand": "right"
      },
      {
        "midi": 69,
        "time": 32,
        "duration": 4,
        "velocity": 0.63,
        "hand": "right"
      },
      {
        "midi": 48,
        "time": 33,
        "duration": 0.917,
        "velocity": 0.63,
        "hand": "left"
      },
      {
        "midi": 69,
        "time": 33.333,
        "duration": 0.333,
        "velocity": 0.63,
        "hand": "right"
      },
      {
        "midi": 71,
        "time": 33.667,
        "duration": 0.167,
        "velocity": 0.63,
        "hand": "right"
      },
      {
        "midi": 64,
        "time": 33.833,
        "duration": 1.083,
        "velocity": 0.63,
        "hand": "right"
      },
      {
        "midi": 72,
        "time": 33.833,
        "duration": 1.083,
        "velocity": 0.63,
        "hand": "right"
      },
      {
        "midi": 41,
        "time": 34,
        "duration": 0.917,
        "velocity": 0.63,
        "hand": "left"
      },
      {
        "midi": 48,
        "time": 35,
        "duration": 0.917,
        "velocity": 0.63,
        "hand": "left"
      },
      {
        "midi": 69,
        "time": 35.333,
        "duration": 0.333,
        "velocity": 0.63,
        "hand": "right"
      },
      {
        "midi": 72,
        "time": 35.667,
        "duration": 0.333,
        "velocity": 0.63,
        "hand": "right"
      },
      {
        "midi": 40,
        "time": 36,
        "duration": 2,
        "velocity": 0.63,
        "hand": "left"
      },
      {
        "midi": 40,
        "time": 36,
        "duration": 0.917,
        "velocity": 0.63,
        "hand": "left"
      },
      {
        "midi": 64,
        "time": 36,
        "duration": 2,
        "velocity": 0.63,
        "hand": "right"
      },
      {
        "midi": 67,
        "time": 36,
        "duration": 0.333,
        "velocity": 0.63,
        "hand": "right"
      },
      {
        "midi": 67,
        "time": 36,
        "duration": 2,
        "velocity": 0.63,
        "hand": "right"
      },
      {
        "midi": 71,
        "time": 36,
        "duration": 0.333,
        "velocity": 0.63,
        "hand": "right"
      },
      {
        "midi": 71,
        "time": 36,
        "duration": 2,
        "velocity": 0.63,
        "hand": "right"
      },
      {
        "midi": 69,
        "time": 36.333,
        "duration": 0.333,
        "velocity": 0.63,
        "hand": "right"
      },
      {
        "midi": 67,
        "time": 36.667,
        "duration": 0.333,
        "velocity": 0.63,
        "hand": "right"
      },
      {
        "midi": 47,
        "time": 37,
        "duration": 0.917,
        "velocity": 0.63,
        "hand": "left"
      },
      {
        "midi": 67,
        "time": 37,
        "duration": 0.667,
        "velocity": 0.63,
        "hand": "right"
      },
      {
        "midi": 64,
        "time": 37.667,
        "duration": 0.333,
        "velocity": 0.63,
        "hand": "right"
      },
      {
        "midi": 40,
        "time": 38,
        "duration": 1,
        "velocity": 0.63,
        "hand": "left"
      },
      {
        "midi": 40,
        "time": 38,
        "duration": 0.917,
        "velocity": 0.63,
        "hand": "left"
      },
      {
        "midi": 60,
        "time": 38,
        "duration": 1,
        "velocity": 0.63,
        "hand": "right"
      },
      {
        "midi": 64,
        "time": 38,
        "duration": 1,
        "velocity": 0.63,
        "hand": "right"
      },
      {
        "midi": 67,
        "time": 38,
        "duration": 0.333,
        "velocity": 0.63,
        "hand": "right"
      },
      {
        "midi": 67,
        "time": 38,
        "duration": 1,
        "velocity": 0.63,
        "hand": "right"
      },
      {
        "midi": 71,
        "time": 38,
        "duration": 0.333,
        "velocity": 0.63,
        "hand": "right"
      },
      {
        "midi": 69,
        "time": 38.333,
        "duration": 0.333,
        "velocity": 0.63,
        "hand": "right"
      },
      {
        "midi": 67,
        "time": 38.667,
        "duration": 0.333,
        "velocity": 0.63,
        "hand": "right"
      },
      {
        "midi": 39,
        "time": 39,
        "duration": 1,
        "velocity": 0.63,
        "hand": "left"
      },
      {
        "midi": 39,
        "time": 39,
        "duration": 0.917,
        "velocity": 0.63,
        "hand": "left"
      },
      {
        "midi": 60,
        "time": 39,
        "duration": 1,
        "velocity": 0.63,
        "hand": "right"
      },
      {
        "midi": 64,
        "time": 39,
        "duration": 1,
        "velocity": 0.63,
        "hand": "right"
      },
      {
        "midi": 67,
        "time": 39,
        "duration": 0.333,
        "velocity": 0.63,
        "hand": "right"
      },
      {
        "midi": 67,
        "time": 39,
        "duration": 1,
        "velocity": 0.63,
        "hand": "right"
      },
      {
        "midi": 71,
        "time": 39,
        "duration": 0.333,
        "velocity": 0.63,
        "hand": "right"
      },
      {
        "midi": 69,
        "time": 39.333,
        "duration": 0.333,
        "velocity": 0.63,
        "hand": "right"
      },
      {
        "midi": 67,
        "time": 39.667,
        "duration": 0.333,
        "velocity": 0.63,
        "hand": "right"
      },
      {
        "midi": 38,
        "time": 40,
        "duration": 4,
        "velocity": 0.63,
        "hand": "left"
      },
      {
        "midi": 38,
        "time": 40,
        "duration": 0.917,
        "velocity": 0.63,
        "hand": "left"
      },
      {
        "midi": 60,
        "time": 40,
        "duration": 4,
        "velocity": 0.63,
        "hand": "right"
      },
      {
        "midi": 62,
        "time": 40,
        "duration": 4,
        "velocity": 0.63,
        "hand": "right"
      },
      {
        "midi": 65,
        "time": 40,
        "duration": 4,
        "velocity": 0.63,
        "hand": "right"
      },
      {
        "midi": 67,
        "time": 40,
        "duration": 0.167,
        "velocity": 0.63,
        "hand": "right"
      },
      {
        "midi": 69,
        "time": 40,
        "duration": 4,
        "velocity": 0.63,
        "hand": "right"
      },
      {
        "midi": 60,
        "time": 40.167,
        "duration": 1.75,
        "velocity": 0.63,
        "hand": "right"
      },
      {
        "midi": 65,
        "time": 40.167,
        "duration": 1.75,
        "velocity": 0.63,
        "hand": "right"
      },
      {
        "midi": 45,
        "time": 41,
        "duration": 0.917,
        "velocity": 0.63,
        "hand": "left"
      },
      {
        "midi": 38,
        "time": 42,
        "duration": 0.917,
        "velocity": 0.63,
        "hand": "left"
      },
      {
        "midi": 60,
        "time": 42.667,
        "duration": 0.333,
        "velocity": 0.63,
        "hand": "right"
      },
      {
        "midi": 45,
        "time": 43,
        "duration": 0.917,
        "velocity": 0.63,
        "hand": "left"
      },
      {
        "midi": 67,
        "time": 43,
        "duration": 0.333,
        "velocity": 0.63,
        "hand": "right"
      },
      {
        "midi": 65,
        "time": 43.333,
        "duration": 0.333,
        "velocity": 0.63,
        "hand": "right"
      },
      {
        "midi": 64,
        "time": 43.667,
        "duration": 0.333,
        "velocity": 0.63,
        "hand": "right"
      },
      {
        "midi": 40,
        "time": 44,
        "duration": 4,
        "velocity": 0.63,
        "hand": "left"
      },
      {
        "midi": 40,
        "time": 44,
        "duration": 0.333,
        "velocity": 0.63,
        "hand": "left"
      },
      {
        "midi": 56,
        "time": 44,
        "duration": 0.917,
        "velocity": 0.63,
        "hand": "left"
      },
      {
        "midi": 64,
        "time": 44,
        "duration": 0.917,
        "velocity": 0.63,
        "hand": "right"
      },
      {
        "midi": 64,
        "time": 44,
        "duration": 4,
        "velocity": 0.63,
        "hand": "right"
      },
      {
        "midi": 68,
        "time": 44,
        "duration": 4,
        "velocity": 0.63,
        "hand": "right"
      },
      {
        "midi": 71,
        "time": 44,
        "duration": 4,
        "velocity": 0.63,
        "hand": "right"
      },
      {
        "midi": 40,
        "time": 44.333,
        "duration": 0.333,
        "velocity": 0.63,
        "hand": "left"
      },
      {
        "midi": 40,
        "time": 44.667,
        "duration": 0.333,
        "velocity": 0.63,
        "hand": "left"
      },
      {
        "midi": 40,
        "time": 45,
        "duration": 0.333,
        "velocity": 0.63,
        "hand": "left"
      },
      {
        "midi": 69,
        "time": 45,
        "duration": 0.917,
        "velocity": 0.63,
        "hand": "right"
      },
      {
        "midi": 40,
        "time": 45.333,
        "duration": 0.333,
        "velocity": 0.63,
        "hand": "left"
      },
      {
        "midi": 40,
        "time": 45.667,
        "duration": 0.333,
        "velocity": 0.63,
        "hand": "left"
      },
      {
        "midi": 40,
        "time": 46,
        "duration": 0.333,
        "velocity": 0.63,
        "hand": "left"
      },
      {
        "midi": 72,
        "time": 46,
        "duration": 0.917,
        "velocity": 0.63,
        "hand": "right"
      },
      {
        "midi": 40,
        "time": 46.333,
        "duration": 0.333,
        "velocity": 0.63,
        "hand": "left"
      },
      {
        "midi": 40,
        "time": 46.667,
        "duration": 0.333,
        "velocity": 0.63,
        "hand": "left"
      },
      {
        "midi": 74,
        "time": 47,
        "duration": 0.333,
        "velocity": 0.63,
        "hand": "right"
      },
      {
        "midi": 41,
        "time": 48,
        "duration": 6,
        "velocity": 0.63,
        "hand": "left"
      },
      {
        "midi": 41,
        "time": 48,
        "duration": 0.917,
        "velocity": 0.63,
        "hand": "left"
      },
      {
        "midi": 60,
        "time": 48,
        "duration": 6,
        "velocity": 0.63,
        "hand": "right"
      },
      {
        "midi": 64,
        "time": 48,
        "duration": 6,
        "velocity": 0.63,
        "hand": "right"
      },
      {
        "midi": 65,
        "time": 48,
        "duration": 6,
        "velocity": 0.63,
        "hand": "right"
      },
      {
        "midi": 69,
        "time": 48,
        "duration": 3.833,
        "velocity": 0.63,
        "hand": "right"
      },
      {
        "midi": 69,
        "time": 48,
        "duration": 6,
        "velocity": 0.63,
        "hand": "right"
      },
      {
        "midi": 76,
        "time": 48,
        "duration": 3.833,
        "velocity": 0.63,
        "hand": "right"
      },
      {
        "midi": 48,
        "time": 49,
        "duration": 0.917,
        "velocity": 0.63,
        "hand": "left"
      },
      {
        "midi": 52,
        "time": 50,
        "duration": 0.917,
        "velocity": 0.63,
        "hand": "left"
      },
      {
        "midi": 53,
        "time": 50,
        "duration": 0.917,
        "velocity": 0.63,
        "hand": "left"
      },
      {
        "midi": 57,
        "time": 50,
        "duration": 0.917,
        "velocity": 0.63,
        "hand": "left"
      },
      {
        "midi": 60,
        "time": 51,
        "duration": 0.917,
        "velocity": 0.63,
        "hand": "right"
      },
      {
        "midi": 41,
        "time": 52,
        "duration": 0.917,
        "velocity": 0.63,
        "hand": "left"
      },
      {
        "midi": 69,
        "time": 52,
        "duration": 0.917,
        "velocity": 0.63,
        "hand": "right"
      },
      {
        "midi": 48,
        "time": 53,
        "duration": 0.917,
        "velocity": 0.63,
        "hand": "left"
      },
      {
        "midi": 71,
        "time": 53,
        "duration": 0.917,
        "velocity": 0.63,
        "hand": "right"
      },
      {
        "midi": 41,
        "time": 54,
        "duration": 2,
        "velocity": 0.63,
        "hand": "left"
      },
      {
        "midi": 53,
        "time": 54,
        "duration": 0.917,
        "velocity": 0.63,
        "hand": "left"
      },
      {
        "midi": 56,
        "time": 54,
        "duration": 0.917,
        "velocity": 0.63,
        "hand": "left"
      },
      {
        "midi": 60,
        "time": 54,
        "duration": 2,
        "velocity": 0.63,
        "hand": "right"
      },
      {
        "midi": 60,
        "time": 54,
        "duration": 0.917,
        "velocity": 0.63,
        "hand": "right"
      },
      {
        "midi": 65,
        "time": 54,
        "duration": 2,
        "velocity": 0.63,
        "hand": "right"
      },
      {
        "midi": 68,
        "time": 54,
        "duration": 2,
        "velocity": 0.63,
        "hand": "right"
      },
      {
        "midi": 79,
        "time": 54,
        "duration": 0.917,
        "velocity": 0.63,
        "hand": "right"
      },
      {
        "midi": 62,
        "time": 55,
        "duration": 0.917,
        "velocity": 0.63,
        "hand": "right"
      },
      {
        "midi": 77,
        "time": 55,
        "duration": 0.917,
        "velocity": 0.63,
        "hand": "right"
      },
      {
        "midi": 36,
        "time": 56,
        "duration": 6,
        "velocity": 0.63,
        "hand": "left"
      },
      {
        "midi": 36,
        "time": 56,
        "duration": 0.917,
        "velocity": 0.63,
        "hand": "left"
      },
      {
        "midi": 60,
        "time": 56,
        "duration": 6,
        "velocity": 0.63,
        "hand": "right"
      },
      {
        "midi": 64,
        "time": 56,
        "duration": 6,
        "velocity": 0.63,
        "hand": "right"
      },
      {
        "midi": 67,
        "time": 56,
        "duration": 6,
        "velocity": 0.63,
        "hand": "right"
      },
      {
        "midi": 71,
        "time": 56,
        "duration": 2.333,
        "velocity": 0.63,
        "hand": "right"
      },
      {
        "midi": 71,
        "time": 56,
        "duration": 6,
        "velocity": 0.63,
        "hand": "right"
      },
      {
        "midi": 76,
        "time": 56,
        "duration": 2.333,
        "velocity": 0.63,
        "hand": "right"
      },
      {
        "midi": 43,
        "time": 57,
        "duration": 0.917,
        "velocity": 0.63,
        "hand": "left"
      },
      {
        "midi": 48,
        "time": 58,
        "duration": 0.917,
        "velocity": 0.63,
        "hand": "left"
      },
      {
        "midi": 52,
        "time": 58,
        "duration": 0.917,
        "velocity": 0.63,
        "hand": "left"
      },
      {
        "midi": 55,
        "time": 58,
        "duration": 0.917,
        "velocity": 0.63,
        "hand": "left"
      },
      {
        "midi": 74,
        "time": 58.333,
        "duration": 0.667,
        "velocity": 0.63,
        "hand": "right"
      },
      {
        "midi": 59,
        "time": 59,
        "duration": 0.917,
        "velocity": 0.63,
        "hand": "left"
      },
      {
        "midi": 69,
        "time": 59.333,
        "duration": 0.333,
        "velocity": 0.63,
        "hand": "right"
      },
      {
        "midi": 72,
        "time": 59.667,
        "duration": 0.333,
        "velocity": 0.63,
        "hand": "right"
      },
      {
        "midi": 36,
        "time": 60,
        "duration": 0.917,
        "velocity": 0.63,
        "hand": "left"
      },
      {
        "midi": 64,
        "time": 60,
        "duration": 0.917,
        "velocity": 0.63,
        "hand": "right"
      },
      {
        "midi": 71,
        "time": 60,
        "duration": 0.917,
        "velocity": 0.63,
        "hand": "right"
      },
      {
        "midi": 43,
        "time": 61,
        "duration": 0.917,
        "velocity": 0.63,
        "hand": "left"
      },
      {
        "midi": 71,
        "time": 61,
        "duration": 0.917,
        "velocity": 0.63,
        "hand": "right"
      },
      {
        "midi": 38,
        "time": 62,
        "duration": 1,
        "velocity": 0.63,
        "hand": "left"
      },
      {
        "midi": 38,
        "time": 62,
        "duration": 0.917,
        "velocity": 0.63,
        "hand": "left"
      },
      {
        "midi": 60,
        "time": 62,
        "duration": 1,
        "velocity": 0.63,
        "hand": "right"
      },
      {
        "midi": 64,
        "time": 62,
        "duration": 1,
        "velocity": 0.63,
        "hand": "right"
      },
      {
        "midi": 69,
        "time": 62,
        "duration": 0.917,
        "velocity": 0.63,
        "hand": "right"
      },
      {
        "midi": 69,
        "time": 62,
        "duration": 1,
        "velocity": 0.63,
        "hand": "right"
      },
      {
        "midi": 72,
        "time": 62,
        "duration": 0.917,
        "velocity": 0.63,
        "hand": "right"
      },
      {
        "midi": 40,
        "time": 63,
        "duration": 1,
        "velocity": 0.63,
        "hand": "left"
      },
      {
        "midi": 40,
        "time": 63,
        "duration": 0.917,
        "velocity": 0.63,
        "hand": "left"
      },
      {
        "midi": 62,
        "time": 63,
        "duration": 1,
        "velocity": 0.63,
        "hand": "right"
      },
      {
        "midi": 64,
        "time": 63,
        "duration": 1,
        "velocity": 0.63,
        "hand": "right"
      },
      {
        "midi": 68,
        "time": 63,
        "duration": 0.917,
        "velocity": 0.63,
        "hand": "right"
      },
      {
        "midi": 68,
        "time": 63,
        "duration": 1,
        "velocity": 0.63,
        "hand": "right"
      },
      {
        "midi": 71,
        "time": 63,
        "duration": 1,
        "velocity": 0.63,
        "hand": "right"
      },
      {
        "midi": 74,
        "time": 63,
        "duration": 0.917,
        "velocity": 0.63,
        "hand": "right"
      },
      {
        "midi": 41,
        "time": 64,
        "duration": 6,
        "velocity": 0.63,
        "hand": "left"
      },
      {
        "midi": 41,
        "time": 64,
        "duration": 0.917,
        "velocity": 0.63,
        "hand": "left"
      },
      {
        "midi": 60,
        "time": 64,
        "duration": 6,
        "velocity": 0.63,
        "hand": "right"
      },
      {
        "midi": 64,
        "time": 64,
        "duration": 6,
        "velocity": 0.63,
        "hand": "right"
      },
      {
        "midi": 65,
        "time": 64,
        "duration": 6,
        "velocity": 0.63,
        "hand": "right"
      },
      {
        "midi": 69,
        "time": 64,
        "duration": 3.833,
        "velocity": 0.63,
        "hand": "right"
      },
      {
        "midi": 69,
        "time": 64,
        "duration": 6,
        "velocity": 0.63,
        "hand": "right"
      },
      {
        "midi": 76,
        "time": 64,
        "duration": 3.833,
        "velocity": 0.63,
        "hand": "right"
      },
      {
        "midi": 48,
        "time": 65,
        "duration": 0.917,
        "velocity": 0.63,
        "hand": "left"
      },
      {
        "midi": 52,
        "time": 66,
        "duration": 0.917,
        "velocity": 0.63,
        "hand": "left"
      },
      {
        "midi": 53,
        "time": 66,
        "duration": 0.917,
        "velocity": 0.63,
        "hand": "left"
      },
      {
        "midi": 57,
        "time": 66,
        "duration": 0.917,
        "velocity": 0.63,
        "hand": "left"
      },
      {
        "midi": 60,
        "time": 67,
        "duration": 0.917,
        "velocity": 0.63,
        "hand": "right"
      },
      {
        "midi": 41,
        "time": 68,
        "duration": 0.917,
        "velocity": 0.63,
        "hand": "left"
      },
      {
        "midi": 69,
        "time": 68,
        "duration": 0.917,
        "velocity": 0.63,
        "hand": "right"
      },
      {
        "midi": 48,
        "time": 69,
        "duration": 0.917,
        "velocity": 0.63,
        "hand": "left"
      },
      {
        "midi": 71,
        "time": 69,
        "duration": 0.917,
        "velocity": 0.63,
        "hand": "right"
      },
      {
        "midi": 41,
        "time": 70,
        "duration": 2,
        "velocity": 0.63,
        "hand": "left"
      },
      {
        "midi": 53,
        "time": 70,
        "duration": 0.917,
        "velocity": 0.63,
        "hand": "left"
      },
      {
        "midi": 56,
        "time": 70,
        "duration": 0.917,
        "velocity": 0.63,
        "hand": "left"
      },
      {
        "midi": 60,
        "time": 70,
        "duration": 2,
        "velocity": 0.63,
        "hand": "right"
      },
      {
        "midi": 60,
        "time": 70,
        "duration": 0.917,
        "velocity": 0.63,
        "hand": "right"
      },
      {
        "midi": 65,
        "time": 70,
        "duration": 2,
        "velocity": 0.63,
        "hand": "right"
      },
      {
        "midi": 68,
        "time": 70,
        "duration": 2,
        "velocity": 0.63,
        "hand": "right"
      },
      {
        "midi": 79,
        "time": 70,
        "duration": 0.917,
        "velocity": 0.63,
        "hand": "right"
      },
      {
        "midi": 62,
        "time": 71,
        "duration": 0.917,
        "velocity": 0.63,
        "hand": "right"
      },
      {
        "midi": 77,
        "time": 71,
        "duration": 0.917,
        "velocity": 0.63,
        "hand": "right"
      },
      {
        "midi": 36,
        "time": 72,
        "duration": 6,
        "velocity": 0.63,
        "hand": "left"
      },
      {
        "midi": 36,
        "time": 72,
        "duration": 0.917,
        "velocity": 0.63,
        "hand": "left"
      },
      {
        "midi": 60,
        "time": 72,
        "duration": 6,
        "velocity": 0.63,
        "hand": "right"
      },
      {
        "midi": 64,
        "time": 72,
        "duration": 6,
        "velocity": 0.63,
        "hand": "right"
      },
      {
        "midi": 67,
        "time": 72,
        "duration": 6,
        "velocity": 0.63,
        "hand": "right"
      },
      {
        "midi": 71,
        "time": 72,
        "duration": 2.833,
        "velocity": 0.63,
        "hand": "right"
      },
      {
        "midi": 71,
        "time": 72,
        "duration": 6,
        "velocity": 0.63,
        "hand": "right"
      },
      {
        "midi": 76,
        "time": 72,
        "duration": 2.833,
        "velocity": 0.63,
        "hand": "right"
      },
      {
        "midi": 43,
        "time": 73,
        "duration": 0.917,
        "velocity": 0.63,
        "hand": "left"
      },
      {
        "midi": 48,
        "time": 74,
        "duration": 0.917,
        "velocity": 0.63,
        "hand": "left"
      },
      {
        "midi": 52,
        "time": 74,
        "duration": 0.917,
        "velocity": 0.63,
        "hand": "left"
      },
      {
        "midi": 55,
        "time": 74,
        "duration": 0.917,
        "velocity": 0.63,
        "hand": "left"
      },
      {
        "midi": 59,
        "time": 75,
        "duration": 0.917,
        "velocity": 0.63,
        "hand": "left"
      },
      {
        "midi": 69,
        "time": 75.333,
        "duration": 0.333,
        "velocity": 0.63,
        "hand": "right"
      },
      {
        "midi": 72,
        "time": 75.667,
        "duration": 0.333,
        "velocity": 0.63,
        "hand": "right"
      },
      {
        "midi": 36,
        "time": 76,
        "duration": 0.917,
        "velocity": 0.63,
        "hand": "left"
      },
      {
        "midi": 64,
        "time": 76,
        "duration": 2,
        "velocity": 0.63,
        "hand": "right"
      },
      {
        "midi": 71,
        "time": 76,
        "duration": 2,
        "velocity": 0.63,
        "hand": "right"
      },
      {
        "midi": 43,
        "time": 77,
        "duration": 0.917,
        "velocity": 0.63,
        "hand": "left"
      },
      {
        "midi": 38,
        "time": 78,
        "duration": 1,
        "velocity": 0.63,
        "hand": "left"
      },
      {
        "midi": 38,
        "time": 78,
        "duration": 0.917,
        "velocity": 0.63,
        "hand": "left"
      },
      {
        "midi": 60,
        "time": 78,
        "duration": 1,
        "velocity": 0.63,
        "hand": "right"
      },
      {
        "midi": 64,
        "time": 78,
        "duration": 0.917,
        "velocity": 0.63,
        "hand": "right"
      },
      {
        "midi": 64,
        "time": 78,
        "duration": 1,
        "velocity": 0.63,
        "hand": "right"
      },
      {
        "midi": 67,
        "time": 78,
        "duration": 1,
        "velocity": 0.63,
        "hand": "right"
      },
      {
        "midi": 70,
        "time": 78,
        "duration": 0.917,
        "velocity": 0.63,
        "hand": "right"
      },
      {
        "midi": 70,
        "time": 78,
        "duration": 1,
        "velocity": 0.63,
        "hand": "right"
      },
      {
        "midi": 40,
        "time": 79,
        "duration": 1,
        "velocity": 0.63,
        "hand": "left"
      },
      {
        "midi": 40,
        "time": 79,
        "duration": 0.917,
        "velocity": 0.63,
        "hand": "left"
      },
      {
        "midi": 60,
        "time": 79,
        "duration": 1,
        "velocity": 0.63,
        "hand": "right"
      },
      {
        "midi": 64,
        "time": 79,
        "duration": 1,
        "velocity": 0.63,
        "hand": "right"
      },
      {
        "midi": 67,
        "time": 79,
        "duration": 1,
        "velocity": 0.63,
        "hand": "right"
      },
      {
        "midi": 70,
        "time": 79,
        "duration": 0.917,
        "velocity": 0.63,
        "hand": "right"
      },
      {
        "midi": 70,
        "time": 79,
        "duration": 1,
        "velocity": 0.63,
        "hand": "right"
      },
      {
        "midi": 41,
        "time": 80,
        "duration": 4,
        "velocity": 0.63,
        "hand": "left"
      },
      {
        "midi": 41,
        "time": 80,
        "duration": 0.917,
        "velocity": 0.63,
        "hand": "left"
      },
      {
        "midi": 57,
        "time": 80,
        "duration": 0.167,
        "velocity": 0.63,
        "hand": "left"
      },
      {
        "midi": 60,
        "time": 80,
        "duration": 4,
        "velocity": 0.63,
        "hand": "right"
      },
      {
        "midi": 64,
        "time": 80,
        "duration": 0.167,
        "velocity": 0.63,
        "hand": "right"
      },
      {
        "midi": 64,
        "time": 80,
        "duration": 4,
        "velocity": 0.63,
        "hand": "right"
      },
      {
        "midi": 65,
        "time": 80,
        "duration": 4,
        "velocity": 0.63,
        "hand": "right"
      },
      {
        "midi": 69,
        "time": 80,
        "duration": 4,
        "velocity": 0.63,
        "hand": "right"
      },
      {
        "midi": 64,
        "time": 80.167,
        "duration": 0.167,
        "velocity": 0.63,
        "hand": "right"
      },
      {
        "midi": 64,
        "time": 80.333,
        "duration": 0.167,
        "velocity": 0.63,
        "hand": "right"
      },
      {
        "midi": 64,
        "time": 80.5,
        "duration": 0.167,
        "velocity": 0.63,
        "hand": "right"
      },
      {
        "midi": 64,
        "time": 80.667,
        "duration": 0.167,
        "velocity": 0.63,
        "hand": "right"
      },
      {
        "midi": 62,
        "time": 80.833,
        "duration": 0.167,
        "velocity": 0.63,
        "hand": "right"
      },
      {
        "midi": 41,
        "time": 81,
        "duration": 0.917,
        "velocity": 0.63,
        "hand": "left"
      },
      {
        "midi": 41,
        "time": 82,
        "duration": 0.917,
        "velocity": 0.63,
        "hand": "left"
      },
      {
        "midi": 57,
        "time": 82,
        "duration": 0.167,
        "velocity": 0.63,
        "hand": "left"
      },
      {
        "midi": 64,
        "time": 82,
        "duration": 0.167,
        "velocity": 0.63,
        "hand": "right"
      },
      {
        "midi": 64,
        "time": 82.167,
        "duration": 0.167,
        "velocity": 0.63,
        "hand": "right"
      },
      {
        "midi": 64,
        "time": 82.333,
        "duration": 0.167,
        "velocity": 0.63,
        "hand": "right"
      },
      {
        "midi": 64,
        "time": 82.5,
        "duration": 0.167,
        "velocity": 0.63,
        "hand": "right"
      },
      {
        "midi": 64,
        "time": 82.667,
        "duration": 0.333,
        "velocity": 0.63,
        "hand": "right"
      },
      {
        "midi": 41,
        "time": 83,
        "duration": 0.917,
        "velocity": 0.63,
        "hand": "left"
      },
      {
        "midi": 64,
        "time": 83,
        "duration": 0.167,
        "velocity": 0.63,
        "hand": "right"
      },
      {
        "midi": 64,
        "time": 83.167,
        "duration": 0.167,
        "velocity": 0.63,
        "hand": "right"
      },
      {
        "midi": 64,
        "time": 83.333,
        "duration": 0.167,
        "velocity": 0.63,
        "hand": "right"
      },
      {
        "midi": 64,
        "time": 83.5,
        "duration": 0.167,
        "velocity": 0.63,
        "hand": "right"
      },
      {
        "midi": 64,
        "time": 83.667,
        "duration": 0.333,
        "velocity": 0.63,
        "hand": "right"
      },
      {
        "midi": 40,
        "time": 84,
        "duration": 3,
        "velocity": 0.63,
        "hand": "left"
      },
      {
        "midi": 40,
        "time": 84,
        "duration": 0.917,
        "velocity": 0.63,
        "hand": "left"
      },
      {
        "midi": 55,
        "time": 84,
        "duration": 0.167,
        "velocity": 0.63,
        "hand": "left"
      },
      {
        "midi": 60,
        "time": 84,
        "duration": 3,
        "velocity": 0.63,
        "hand": "right"
      },
      {
        "midi": 64,
        "time": 84,
        "duration": 0.167,
        "velocity": 0.63,
        "hand": "right"
      },
      {
        "midi": 64,
        "time": 84,
        "duration": 3,
        "velocity": 0.63,
        "hand": "right"
      },
      {
        "midi": 67,
        "time": 84,
        "duration": 3,
        "velocity": 0.63,
        "hand": "right"
      },
      {
        "midi": 64,
        "time": 84.167,
        "duration": 0.167,
        "velocity": 0.63,
        "hand": "right"
      },
      {
        "midi": 64,
        "time": 84.333,
        "duration": 0.167,
        "velocity": 0.63,
        "hand": "right"
      },
      {
        "midi": 64,
        "time": 84.5,
        "duration": 0.167,
        "velocity": 0.63,
        "hand": "right"
      },
      {
        "midi": 64,
        "time": 84.667,
        "duration": 0.167,
        "velocity": 0.63,
        "hand": "right"
      },
      {
        "midi": 62,
        "time": 84.833,
        "duration": 0.167,
        "velocity": 0.63,
        "hand": "right"
      },
      {
        "midi": 40,
        "time": 85,
        "duration": 0.917,
        "velocity": 0.63,
        "hand": "left"
      },
      {
        "midi": 40,
        "time": 86,
        "duration": 0.917,
        "velocity": 0.63,
        "hand": "left"
      },
      {
        "midi": 55,
        "time": 86,
        "duration": 0.167,
        "velocity": 0.63,
        "hand": "left"
      },
      {
        "midi": 64,
        "time": 86,
        "duration": 0.167,
        "velocity": 0.63,
        "hand": "right"
      },
      {
        "midi": 64,
        "time": 86.167,
        "duration": 0.167,
        "velocity": 0.63,
        "hand": "right"
      },
      {
        "midi": 64,
        "time": 86.333,
        "duration": 0.167,
        "velocity": 0.63,
        "hand": "right"
      },
      {
        "midi": 64,
        "time": 86.5,
        "duration": 0.167,
        "velocity": 0.63,
        "hand": "right"
      },
      {
        "midi": 64,
        "time": 86.667,
        "duration": 0.333,
        "velocity": 0.63,
        "hand": "right"
      },
      {
        "midi": 39,
        "time": 87,
        "duration": 1,
        "velocity": 0.63,
        "hand": "left"
      },
      {
        "midi": 39,
        "time": 87,
        "duration": 0.917,
        "velocity": 0.63,
        "hand": "left"
      },
      {
        "midi": 55,
        "time": 87,
        "duration": 0.167,
        "velocity": 0.63,
        "hand": "left"
      },
      {
        "midi": 60,
        "time": 87,
        "duration": 1,
        "velocity": 0.63,
        "hand": "right"
      },
      {
        "midi": 64,
        "time": 87,
        "duration": 0.167,
        "velocity": 0.63,
        "hand": "right"
      },
      {
        "midi": 64,
        "time": 87,
        "duration": 1,
        "velocity": 0.63,
        "hand": "right"
      },
      {
        "midi": 67,
        "time": 87,
        "duration": 1,
        "velocity": 0.63,
        "hand": "right"
      },
      {
        "midi": 64,
        "time": 87.167,
        "duration": 0.167,
        "velocity": 0.63,
        "hand": "right"
      },
      {
        "midi": 64,
        "time": 87.333,
        "duration": 0.167,
        "velocity": 0.63,
        "hand": "right"
      },
      {
        "midi": 64,
        "time": 87.5,
        "duration": 0.167,
        "velocity": 0.63,
        "hand": "right"
      },
      {
        "midi": 64,
        "time": 87.667,
        "duration": 0.333,
        "velocity": 0.63,
        "hand": "right"
      },
      {
        "midi": 38,
        "time": 88,
        "duration": 4,
        "velocity": 0.63,
        "hand": "left"
      },
      {
        "midi": 38,
        "time": 88,
        "duration": 0.917,
        "velocity": 0.63,
        "hand": "left"
      },
      {
        "midi": 60,
        "time": 88,
        "duration": 0.167,
        "velocity": 0.63,
        "hand": "right"
      },
      {
        "midi": 60,
        "time": 88,
        "duration": 4,
        "velocity": 0.63,
        "hand": "right"
      },
      {
        "midi": 62,
        "time": 88,
        "duration": 4,
        "velocity": 0.63,
        "hand": "right"
      },
      {
        "midi": 64,
        "time": 88,
        "duration": 0.167,
        "velocity": 0.63,
        "hand": "right"
      },
      {
        "midi": 65,
        "time": 88,
        "duration": 4,
        "velocity": 0.63,
        "hand": "right"
      },
      {
        "midi": 69,
        "time": 88,
        "duration": 4,
        "velocity": 0.63,
        "hand": "right"
      },
      {
        "midi": 62,
        "time": 88.167,
        "duration": 0.167,
        "velocity": 0.63,
        "hand": "right"
      },
      {
        "midi": 64,
        "time": 88.333,
        "duration": 0.167,
        "velocity": 0.63,
        "hand": "right"
      },
      {
        "midi": 62,
        "time": 88.5,
        "duration": 0.167,
        "velocity": 0.63,
        "hand": "right"
      },
      {
        "midi": 64,
        "time": 88.667,
        "duration": 0.167,
        "velocity": 0.63,
        "hand": "right"
      },
      {
        "midi": 62,
        "time": 88.833,
        "duration": 0.167,
        "velocity": 0.63,
        "hand": "right"
      },
      {
        "midi": 38,
        "time": 89,
        "duration": 0.917,
        "velocity": 0.63,
        "hand": "left"
      },
      {
        "midi": 38,
        "time": 90,
        "duration": 0.917,
        "velocity": 0.63,
        "hand": "left"
      },
      {
        "midi": 60,
        "time": 90,
        "duration": 0.167,
        "velocity": 0.63,
        "hand": "right"
      },
      {
        "midi": 64,
        "time": 90,
        "duration": 0.167,
        "velocity": 0.63,
        "hand": "right"
      },
      {
        "midi": 62,
        "time": 90.167,
        "duration": 0.167,
        "velocity": 0.63,
        "hand": "right"
      },
      {
        "midi": 64,
        "time": 90.333,
        "duration": 0.167,
        "velocity": 0.63,
        "hand": "right"
      },
      {
        "midi": 62,
        "time": 90.5,
        "duration": 0.167,
        "velocity": 0.63,
        "hand": "right"
      },
      {
        "midi": 64,
        "time": 90.667,
        "duration": 0.167,
        "velocity": 0.63,
        "hand": "right"
      },
      {
        "midi": 62,
        "time": 90.833,
        "duration": 0.167,
        "velocity": 0.63,
        "hand": "right"
      },
      {
        "midi": 38,
        "time": 91,
        "duration": 0.917,
        "velocity": 0.63,
        "hand": "left"
      },
      {
        "midi": 36,
        "time": 92,
        "duration": 4,
        "velocity": 0.63,
        "hand": "left"
      },
      {
        "midi": 36,
        "time": 92,
        "duration": 0.917,
        "velocity": 0.63,
        "hand": "left"
      },
      {
        "midi": 59,
        "time": 92,
        "duration": 0.167,
        "velocity": 0.63,
        "hand": "left"
      },
      {
        "midi": 60,
        "time": 92,
        "duration": 4,
        "velocity": 0.63,
        "hand": "right"
      },
      {
        "midi": 64,
        "time": 92,
        "duration": 0.167,
        "velocity": 0.63,
        "hand": "right"
      },
      {
        "midi": 64,
        "time": 92,
        "duration": 4,
        "velocity": 0.63,
        "hand": "right"
      },
      {
        "midi": 67,
        "time": 92,
        "duration": 4,
        "velocity": 0.63,
        "hand": "right"
      },
      {
        "midi": 71,
        "time": 92,
        "duration": 4,
        "velocity": 0.63,
        "hand": "right"
      },
      {
        "midi": 64,
        "time": 92.167,
        "duration": 0.167,
        "velocity": 0.63,
        "hand": "right"
      },
      {
        "midi": 64,
        "time": 92.333,
        "duration": 0.167,
        "velocity": 0.63,
        "hand": "right"
      },
      {
        "midi": 64,
        "time": 92.5,
        "duration": 0.083,
        "velocity": 0.63,
        "hand": "right"
      },
      {
        "midi": 64,
        "time": 92.583,
        "duration": 0.083,
        "velocity": 0.63,
        "hand": "right"
      },
      {
        "midi": 62,
        "time": 92.667,
        "duration": 0.167,
        "velocity": 0.63,
        "hand": "right"
      },
      {
        "midi": 62,
        "time": 92.833,
        "duration": 0.167,
        "velocity": 0.63,
        "hand": "right"
      },
      {
        "midi": 36,
        "time": 93,
        "duration": 0.917,
        "velocity": 0.63,
        "hand": "left"
      },
      {
        "midi": 59,
        "time": 93,
        "duration": 0.167,
        "velocity": 0.63,
        "hand": "left"
      },
      {
        "midi": 64,
        "time": 93,
        "duration": 0.167,
        "velocity": 0.63,
        "hand": "right"
      },
      {
        "midi": 64,
        "time": 93.167,
        "duration": 0.167,
        "velocity": 0.63,
        "hand": "right"
      },
      {
        "midi": 64,
        "time": 93.333,
        "duration": 0.167,
        "velocity": 0.63,
        "hand": "right"
      },
      {
        "midi": 64,
        "time": 93.5,
        "duration": 0.083,
        "velocity": 0.63,
        "hand": "right"
      },
      {
        "midi": 64,
        "time": 93.583,
        "duration": 0.083,
        "velocity": 0.63,
        "hand": "right"
      },
      {
        "midi": 62,
        "time": 93.667,
        "duration": 0.167,
        "velocity": 0.63,
        "hand": "right"
      },
      {
        "midi": 62,
        "time": 93.833,
        "duration": 0.167,
        "velocity": 0.63,
        "hand": "right"
      },
      {
        "midi": 36,
        "time": 94,
        "duration": 0.917,
        "velocity": 0.63,
        "hand": "left"
      },
      {
        "midi": 59,
        "time": 94,
        "duration": 0.167,
        "velocity": 0.63,
        "hand": "left"
      },
      {
        "midi": 64,
        "time": 94,
        "duration": 0.167,
        "velocity": 0.63,
        "hand": "right"
      },
      {
        "midi": 64,
        "time": 94.167,
        "duration": 0.167,
        "velocity": 0.63,
        "hand": "right"
      },
      {
        "midi": 64,
        "time": 94.333,
        "duration": 0.333,
        "velocity": 0.63,
        "hand": "right"
      },
      {
        "midi": 62,
        "time": 94.667,
        "duration": 0.167,
        "velocity": 0.63,
        "hand": "right"
      },
      {
        "midi": 60,
        "time": 94.833,
        "duration": 0.5,
        "velocity": 0.63,
        "hand": "right"
      },
      {
        "midi": 36,
        "time": 95,
        "duration": 0.917,
        "velocity": 0.63,
        "hand": "left"
      },
      {
        "midi": 64,
        "time": 95.333,
        "duration": 0.333,
        "velocity": 0.63,
        "hand": "right"
      },
      {
        "midi": 67,
        "time": 95.667,
        "duration": 0.333,
        "velocity": 0.63,
        "hand": "right"
      },
      {
        "midi": 41,
        "time": 96,
        "duration": 4,
        "velocity": 0.63,
        "hand": "left"
      },
      {
        "midi": 41,
        "time": 96,
        "duration": 0.917,
        "velocity": 0.63,
        "hand": "left"
      },
      {
        "midi": 60,
        "time": 96,
        "duration": 4,
        "velocity": 0.63,
        "hand": "right"
      },
      {
        "midi": 64,
        "time": 96,
        "duration": 0.917,
        "velocity": 0.63,
        "hand": "right"
      },
      {
        "midi": 64,
        "time": 96,
        "duration": 4,
        "velocity": 0.63,
        "hand": "right"
      },
      {
        "midi": 65,
        "time": 96,
        "duration": 4,
        "velocity": 0.63,
        "hand": "right"
      },
      {
        "midi": 69,
        "time": 96,
        "duration": 0.917,
        "velocity": 0.63,
        "hand": "right"
      },
      {
        "midi": 69,
        "time": 96,
        "duration": 4,
        "velocity": 0.63,
        "hand": "right"
      },
      {
        "midi": 48,
        "time": 97,
        "duration": 0.917,
        "velocity": 0.63,
        "hand": "left"
      },
      {
        "midi": 69,
        "time": 97.333,
        "duration": 0.333,
        "velocity": 0.63,
        "hand": "right"
      },
      {
        "midi": 71,
        "time": 97.667,
        "duration": 0.167,
        "velocity": 0.63,
        "hand": "right"
      },
      {
        "midi": 64,
        "time": 97.833,
        "duration": 1.083,
        "velocity": 0.63,
        "hand": "right"
      },
      {
        "midi": 72,
        "time": 97.833,
        "duration": 1.083,
        "velocity": 0.63,
        "hand": "right"
      },
      {
        "midi": 41,
        "time": 98,
        "duration": 0.917,
        "velocity": 0.63,
        "hand": "left"
      },
      {
        "midi": 48,
        "time": 99,
        "duration": 0.917,
        "velocity": 0.63,
        "hand": "left"
      },
      {
        "midi": 69,
        "time": 99.333,
        "duration": 0.333,
        "velocity": 0.63,
        "hand": "right"
      },
      {
        "midi": 72,
        "time": 99.667,
        "duration": 0.333,
        "velocity": 0.63,
        "hand": "right"
      },
      {
        "midi": 40,
        "time": 100,
        "duration": 2,
        "velocity": 0.63,
        "hand": "left"
      },
      {
        "midi": 40,
        "time": 100,
        "duration": 0.917,
        "velocity": 0.63,
        "hand": "left"
      },
      {
        "midi": 64,
        "time": 100,
        "duration": 2,
        "velocity": 0.63,
        "hand": "right"
      },
      {
        "midi": 67,
        "time": 100,
        "duration": 0.333,
        "velocity": 0.63,
        "hand": "right"
      },
      {
        "midi": 67,
        "time": 100,
        "duration": 2,
        "velocity": 0.63,
        "hand": "right"
      },
      {
        "midi": 71,
        "time": 100,
        "duration": 0.333,
        "velocity": 0.63,
        "hand": "right"
      },
      {
        "midi": 71,
        "time": 100,
        "duration": 2,
        "velocity": 0.63,
        "hand": "right"
      },
      {
        "midi": 69,
        "time": 100.333,
        "duration": 0.333,
        "velocity": 0.63,
        "hand": "right"
      },
      {
        "midi": 67,
        "time": 100.667,
        "duration": 0.333,
        "velocity": 0.63,
        "hand": "right"
      },
      {
        "midi": 47,
        "time": 101,
        "duration": 0.917,
        "velocity": 0.63,
        "hand": "left"
      },
      {
        "midi": 67,
        "time": 101,
        "duration": 0.667,
        "velocity": 0.63,
        "hand": "right"
      },
      {
        "midi": 64,
        "time": 101.667,
        "duration": 0.333,
        "velocity": 0.63,
        "hand": "right"
      },
      {
        "midi": 40,
        "time": 102,
        "duration": 1,
        "velocity": 0.63,
        "hand": "left"
      },
      {
        "midi": 40,
        "time": 102,
        "duration": 0.917,
        "velocity": 0.63,
        "hand": "left"
      },
      {
        "midi": 60,
        "time": 102,
        "duration": 1,
        "velocity": 0.63,
        "hand": "right"
      },
      {
        "midi": 64,
        "time": 102,
        "duration": 1,
        "velocity": 0.63,
        "hand": "right"
      },
      {
        "midi": 67,
        "time": 102,
        "duration": 0.333,
        "velocity": 0.63,
        "hand": "right"
      },
      {
        "midi": 67,
        "time": 102,
        "duration": 1,
        "velocity": 0.63,
        "hand": "right"
      },
      {
        "midi": 71,
        "time": 102,
        "duration": 0.333,
        "velocity": 0.63,
        "hand": "right"
      },
      {
        "midi": 69,
        "time": 102.333,
        "duration": 0.333,
        "velocity": 0.63,
        "hand": "right"
      },
      {
        "midi": 67,
        "time": 102.667,
        "duration": 0.333,
        "velocity": 0.63,
        "hand": "right"
      },
      {
        "midi": 39,
        "time": 103,
        "duration": 1,
        "velocity": 0.63,
        "hand": "left"
      },
      {
        "midi": 39,
        "time": 103,
        "duration": 0.917,
        "velocity": 0.63,
        "hand": "left"
      },
      {
        "midi": 60,
        "time": 103,
        "duration": 1,
        "velocity": 0.63,
        "hand": "right"
      },
      {
        "midi": 64,
        "time": 103,
        "duration": 1,
        "velocity": 0.63,
        "hand": "right"
      },
      {
        "midi": 67,
        "time": 103,
        "duration": 0.333,
        "velocity": 0.63,
        "hand": "right"
      },
      {
        "midi": 67,
        "time": 103,
        "duration": 1,
        "velocity": 0.63,
        "hand": "right"
      },
      {
        "midi": 71,
        "time": 103,
        "duration": 0.333,
        "velocity": 0.63,
        "hand": "right"
      },
      {
        "midi": 69,
        "time": 103.333,
        "duration": 0.333,
        "velocity": 0.63,
        "hand": "right"
      },
      {
        "midi": 67,
        "time": 103.667,
        "duration": 0.333,
        "velocity": 0.63,
        "hand": "right"
      },
      {
        "midi": 38,
        "time": 104,
        "duration": 4,
        "velocity": 0.63,
        "hand": "left"
      },
      {
        "midi": 38,
        "time": 104,
        "duration": 0.917,
        "velocity": 0.63,
        "hand": "left"
      },
      {
        "midi": 60,
        "time": 104,
        "duration": 4,
        "velocity": 0.63,
        "hand": "right"
      },
      {
        "midi": 62,
        "time": 104,
        "duration": 4,
        "velocity": 0.63,
        "hand": "right"
      },
      {
        "midi": 65,
        "time": 104,
        "duration": 4,
        "velocity": 0.63,
        "hand": "right"
      },
      {
        "midi": 67,
        "time": 104,
        "duration": 0.167,
        "velocity": 0.63,
        "hand": "right"
      },
      {
        "midi": 69,
        "time": 104,
        "duration": 4,
        "velocity": 0.63,
        "hand": "right"
      },
      {
        "midi": 60,
        "time": 104.167,
        "duration": 1.75,
        "velocity": 0.63,
        "hand": "right"
      },
      {
        "midi": 65,
        "time": 104.167,
        "duration": 1.75,
        "velocity": 0.63,
        "hand": "right"
      },
      {
        "midi": 45,
        "time": 105,
        "duration": 0.917,
        "velocity": 0.63,
        "hand": "left"
      },
      {
        "midi": 38,
        "time": 106,
        "duration": 0.917,
        "velocity": 0.63,
        "hand": "left"
      },
      {
        "midi": 60,
        "time": 106.667,
        "duration": 0.333,
        "velocity": 0.63,
        "hand": "right"
      },
      {
        "midi": 45,
        "time": 107,
        "duration": 0.917,
        "velocity": 0.63,
        "hand": "left"
      },
      {
        "midi": 67,
        "time": 107,
        "duration": 0.333,
        "velocity": 0.63,
        "hand": "right"
      },
      {
        "midi": 65,
        "time": 107.333,
        "duration": 0.333,
        "velocity": 0.63,
        "hand": "right"
      },
      {
        "midi": 64,
        "time": 107.667,
        "duration": 0.167,
        "velocity": 0.63,
        "hand": "right"
      },
      {
        "midi": 59,
        "time": 107.833,
        "duration": 1.083,
        "velocity": 0.63,
        "hand": "left"
      },
      {
        "midi": 64,
        "time": 107.833,
        "duration": 1.083,
        "velocity": 0.63,
        "hand": "right"
      },
      {
        "midi": 36,
        "time": 108,
        "duration": 4,
        "velocity": 0.63,
        "hand": "left"
      },
      {
        "midi": 36,
        "time": 108,
        "duration": 0.917,
        "velocity": 0.63,
        "hand": "left"
      },
      {
        "midi": 60,
        "time": 108,
        "duration": 4,
        "velocity": 0.63,
        "hand": "right"
      },
      {
        "midi": 64,
        "time": 108,
        "duration": 4,
        "velocity": 0.63,
        "hand": "right"
      },
      {
        "midi": 67,
        "time": 108,
        "duration": 4,
        "velocity": 0.63,
        "hand": "right"
      },
      {
        "midi": 71,
        "time": 108,
        "duration": 4,
        "velocity": 0.63,
        "hand": "right"
      },
      {
        "midi": 43,
        "time": 109,
        "duration": 0.917,
        "velocity": 0.63,
        "hand": "left"
      },
      {
        "midi": 36,
        "time": 110,
        "duration": 0.917,
        "velocity": 0.63,
        "hand": "left"
      },
      {
        "midi": 59,
        "time": 110,
        "duration": 0.167,
        "velocity": 0.63,
        "hand": "left"
      },
      {
        "midi": 64,
        "time": 110,
        "duration": 0.167,
        "velocity": 0.63,
        "hand": "right"
      },
      {
        "midi": 64,
        "time": 110.167,
        "duration": 0.167,
        "velocity": 0.63,
        "hand": "right"
      },
      {
        "midi": 64,
        "time": 110.333,
        "duration": 0.333,
        "velocity": 0.63,
        "hand": "right"
      },
      {
        "midi": 62,
        "time": 110.667,
        "duration": 0.167,
        "velocity": 0.63,
        "hand": "right"
      },
      {
        "midi": 60,
        "time": 110.833,
        "duration": 0.5,
        "velocity": 0.63,
        "hand": "right"
      },
      {
        "midi": 43,
        "time": 111,
        "duration": 0.917,
        "velocity": 0.63,
        "hand": "left"
      },
      {
        "midi": 64,
        "time": 111.333,
        "duration": 0.333,
        "velocity": 0.63,
        "hand": "right"
      },
      {
        "midi": 67,
        "time": 111.667,
        "duration": 0.333,
        "velocity": 0.63,
        "hand": "right"
      },
      {
        "midi": 41,
        "time": 112,
        "duration": 4,
        "velocity": 0.63,
        "hand": "left"
      },
      {
        "midi": 41,
        "time": 112,
        "duration": 0.917,
        "velocity": 0.63,
        "hand": "left"
      },
      {
        "midi": 60,
        "time": 112,
        "duration": 4,
        "velocity": 0.63,
        "hand": "right"
      },
      {
        "midi": 64,
        "time": 112,
        "duration": 0.917,
        "velocity": 0.63,
        "hand": "right"
      },
      {
        "midi": 64,
        "time": 112,
        "duration": 4,
        "velocity": 0.63,
        "hand": "right"
      },
      {
        "midi": 65,
        "time": 112,
        "duration": 4,
        "velocity": 0.63,
        "hand": "right"
      },
      {
        "midi": 69,
        "time": 112,
        "duration": 0.917,
        "velocity": 0.63,
        "hand": "right"
      },
      {
        "midi": 69,
        "time": 112,
        "duration": 4,
        "velocity": 0.63,
        "hand": "right"
      },
      {
        "midi": 48,
        "time": 113,
        "duration": 0.917,
        "velocity": 0.63,
        "hand": "left"
      },
      {
        "midi": 69,
        "time": 113.333,
        "duration": 0.333,
        "velocity": 0.63,
        "hand": "right"
      },
      {
        "midi": 71,
        "time": 113.667,
        "duration": 0.167,
        "velocity": 0.63,
        "hand": "right"
      },
      {
        "midi": 64,
        "time": 113.833,
        "duration": 1.083,
        "velocity": 0.63,
        "hand": "right"
      },
      {
        "midi": 72,
        "time": 113.833,
        "duration": 1.083,
        "velocity": 0.63,
        "hand": "right"
      },
      {
        "midi": 41,
        "time": 114,
        "duration": 0.917,
        "velocity": 0.63,
        "hand": "left"
      },
      {
        "midi": 48,
        "time": 115,
        "duration": 0.917,
        "velocity": 0.63,
        "hand": "left"
      },
      {
        "midi": 69,
        "time": 115.333,
        "duration": 0.333,
        "velocity": 0.63,
        "hand": "right"
      },
      {
        "midi": 72,
        "time": 115.667,
        "duration": 0.333,
        "velocity": 0.63,
        "hand": "right"
      },
      {
        "midi": 40,
        "time": 116,
        "duration": 2,
        "velocity": 0.63,
        "hand": "left"
      },
      {
        "midi": 40,
        "time": 116,
        "duration": 0.917,
        "velocity": 0.63,
        "hand": "left"
      },
      {
        "midi": 64,
        "time": 116,
        "duration": 2,
        "velocity": 0.63,
        "hand": "right"
      },
      {
        "midi": 67,
        "time": 116,
        "duration": 0.333,
        "velocity": 0.63,
        "hand": "right"
      },
      {
        "midi": 67,
        "time": 116,
        "duration": 2,
        "velocity": 0.63,
        "hand": "right"
      },
      {
        "midi": 71,
        "time": 116,
        "duration": 0.333,
        "velocity": 0.63,
        "hand": "right"
      },
      {
        "midi": 71,
        "time": 116,
        "duration": 2,
        "velocity": 0.63,
        "hand": "right"
      },
      {
        "midi": 69,
        "time": 116.333,
        "duration": 0.333,
        "velocity": 0.63,
        "hand": "right"
      },
      {
        "midi": 67,
        "time": 116.667,
        "duration": 0.333,
        "velocity": 0.63,
        "hand": "right"
      },
      {
        "midi": 47,
        "time": 117,
        "duration": 0.917,
        "velocity": 0.63,
        "hand": "left"
      },
      {
        "midi": 67,
        "time": 117,
        "duration": 0.667,
        "velocity": 0.63,
        "hand": "right"
      },
      {
        "midi": 64,
        "time": 117.667,
        "duration": 0.333,
        "velocity": 0.63,
        "hand": "right"
      },
      {
        "midi": 40,
        "time": 118,
        "duration": 1,
        "velocity": 0.63,
        "hand": "left"
      },
      {
        "midi": 40,
        "time": 118,
        "duration": 0.917,
        "velocity": 0.63,
        "hand": "left"
      },
      {
        "midi": 60,
        "time": 118,
        "duration": 1,
        "velocity": 0.63,
        "hand": "right"
      },
      {
        "midi": 64,
        "time": 118,
        "duration": 1,
        "velocity": 0.63,
        "hand": "right"
      },
      {
        "midi": 67,
        "time": 118,
        "duration": 0.333,
        "velocity": 0.63,
        "hand": "right"
      },
      {
        "midi": 67,
        "time": 118,
        "duration": 1,
        "velocity": 0.63,
        "hand": "right"
      },
      {
        "midi": 71,
        "time": 118,
        "duration": 0.333,
        "velocity": 0.63,
        "hand": "right"
      },
      {
        "midi": 69,
        "time": 118.333,
        "duration": 0.333,
        "velocity": 0.63,
        "hand": "right"
      },
      {
        "midi": 67,
        "time": 118.667,
        "duration": 0.333,
        "velocity": 0.63,
        "hand": "right"
      },
      {
        "midi": 39,
        "time": 119,
        "duration": 1,
        "velocity": 0.63,
        "hand": "left"
      },
      {
        "midi": 39,
        "time": 119,
        "duration": 0.917,
        "velocity": 0.63,
        "hand": "left"
      },
      {
        "midi": 60,
        "time": 119,
        "duration": 1,
        "velocity": 0.63,
        "hand": "right"
      },
      {
        "midi": 64,
        "time": 119,
        "duration": 1,
        "velocity": 0.63,
        "hand": "right"
      },
      {
        "midi": 67,
        "time": 119,
        "duration": 0.333,
        "velocity": 0.63,
        "hand": "right"
      },
      {
        "midi": 67,
        "time": 119,
        "duration": 1,
        "velocity": 0.63,
        "hand": "right"
      },
      {
        "midi": 71,
        "time": 119,
        "duration": 0.333,
        "velocity": 0.63,
        "hand": "right"
      },
      {
        "midi": 69,
        "time": 119.333,
        "duration": 0.333,
        "velocity": 0.63,
        "hand": "right"
      },
      {
        "midi": 67,
        "time": 119.667,
        "duration": 0.333,
        "velocity": 0.63,
        "hand": "right"
      },
      {
        "midi": 38,
        "time": 120,
        "duration": 4,
        "velocity": 0.63,
        "hand": "left"
      },
      {
        "midi": 38,
        "time": 120,
        "duration": 0.917,
        "velocity": 0.63,
        "hand": "left"
      },
      {
        "midi": 60,
        "time": 120,
        "duration": 4,
        "velocity": 0.63,
        "hand": "right"
      },
      {
        "midi": 62,
        "time": 120,
        "duration": 4,
        "velocity": 0.63,
        "hand": "right"
      },
      {
        "midi": 65,
        "time": 120,
        "duration": 4,
        "velocity": 0.63,
        "hand": "right"
      },
      {
        "midi": 67,
        "time": 120,
        "duration": 0.167,
        "velocity": 0.63,
        "hand": "right"
      },
      {
        "midi": 69,
        "time": 120,
        "duration": 4,
        "velocity": 0.63,
        "hand": "right"
      },
      {
        "midi": 60,
        "time": 120.167,
        "duration": 1.75,
        "velocity": 0.63,
        "hand": "right"
      },
      {
        "midi": 65,
        "time": 120.167,
        "duration": 1.75,
        "velocity": 0.63,
        "hand": "right"
      },
      {
        "midi": 45,
        "time": 121,
        "duration": 0.917,
        "velocity": 0.63,
        "hand": "left"
      },
      {
        "midi": 38,
        "time": 122,
        "duration": 0.917,
        "velocity": 0.63,
        "hand": "left"
      },
      {
        "midi": 60,
        "time": 122.667,
        "duration": 0.333,
        "velocity": 0.63,
        "hand": "right"
      },
      {
        "midi": 45,
        "time": 123,
        "duration": 0.917,
        "velocity": 0.63,
        "hand": "left"
      },
      {
        "midi": 67,
        "time": 123,
        "duration": 0.333,
        "velocity": 0.63,
        "hand": "right"
      },
      {
        "midi": 65,
        "time": 123.333,
        "duration": 0.333,
        "velocity": 0.63,
        "hand": "right"
      },
      {
        "midi": 64,
        "time": 123.667,
        "duration": 0.333,
        "velocity": 0.63,
        "hand": "right"
      },
      {
        "midi": 40,
        "time": 124,
        "duration": 4,
        "velocity": 0.63,
        "hand": "left"
      },
      {
        "midi": 40,
        "time": 124,
        "duration": 0.333,
        "velocity": 0.63,
        "hand": "left"
      },
      {
        "midi": 56,
        "time": 124,
        "duration": 0.917,
        "velocity": 0.63,
        "hand": "left"
      },
      {
        "midi": 64,
        "time": 124,
        "duration": 0.917,
        "velocity": 0.63,
        "hand": "right"
      },
      {
        "midi": 64,
        "time": 124,
        "duration": 4,
        "velocity": 0.63,
        "hand": "right"
      },
      {
        "midi": 68,
        "time": 124,
        "duration": 4,
        "velocity": 0.63,
        "hand": "right"
      },
      {
        "midi": 71,
        "time": 124,
        "duration": 4,
        "velocity": 0.63,
        "hand": "right"
      },
      {
        "midi": 40,
        "time": 124.333,
        "duration": 0.333,
        "velocity": 0.63,
        "hand": "left"
      },
      {
        "midi": 40,
        "time": 124.667,
        "duration": 0.333,
        "velocity": 0.63,
        "hand": "left"
      },
      {
        "midi": 40,
        "time": 125,
        "duration": 0.333,
        "velocity": 0.63,
        "hand": "left"
      },
      {
        "midi": 69,
        "time": 125,
        "duration": 0.917,
        "velocity": 0.63,
        "hand": "right"
      },
      {
        "midi": 40,
        "time": 125.333,
        "duration": 0.333,
        "velocity": 0.63,
        "hand": "left"
      },
      {
        "midi": 40,
        "time": 125.667,
        "duration": 0.333,
        "velocity": 0.63,
        "hand": "left"
      },
      {
        "midi": 40,
        "time": 126,
        "duration": 0.333,
        "velocity": 0.63,
        "hand": "left"
      },
      {
        "midi": 72,
        "time": 126,
        "duration": 0.917,
        "velocity": 0.63,
        "hand": "right"
      },
      {
        "midi": 40,
        "time": 126.333,
        "duration": 0.333,
        "velocity": 0.63,
        "hand": "left"
      },
      {
        "midi": 40,
        "time": 126.667,
        "duration": 0.333,
        "velocity": 0.63,
        "hand": "left"
      },
      {
        "midi": 74,
        "time": 127,
        "duration": 0.333,
        "velocity": 0.63,
        "hand": "right"
      },
      {
        "midi": 41,
        "time": 128,
        "duration": 6,
        "velocity": 0.63,
        "hand": "left"
      },
      {
        "midi": 41,
        "time": 128,
        "duration": 0.917,
        "velocity": 0.63,
        "hand": "left"
      },
      {
        "midi": 60,
        "time": 128,
        "duration": 6,
        "velocity": 0.63,
        "hand": "right"
      },
      {
        "midi": 64,
        "time": 128,
        "duration": 6,
        "velocity": 0.63,
        "hand": "right"
      },
      {
        "midi": 65,
        "time": 128,
        "duration": 6,
        "velocity": 0.63,
        "hand": "right"
      },
      {
        "midi": 69,
        "time": 128,
        "duration": 3.833,
        "velocity": 0.63,
        "hand": "right"
      },
      {
        "midi": 69,
        "time": 128,
        "duration": 6,
        "velocity": 0.63,
        "hand": "right"
      },
      {
        "midi": 76,
        "time": 128,
        "duration": 3.833,
        "velocity": 0.63,
        "hand": "right"
      },
      {
        "midi": 48,
        "time": 129,
        "duration": 0.917,
        "velocity": 0.63,
        "hand": "left"
      },
      {
        "midi": 52,
        "time": 130,
        "duration": 0.917,
        "velocity": 0.63,
        "hand": "left"
      },
      {
        "midi": 53,
        "time": 130,
        "duration": 0.917,
        "velocity": 0.63,
        "hand": "left"
      },
      {
        "midi": 57,
        "time": 130,
        "duration": 0.917,
        "velocity": 0.63,
        "hand": "left"
      },
      {
        "midi": 60,
        "time": 131,
        "duration": 0.917,
        "velocity": 0.63,
        "hand": "right"
      },
      {
        "midi": 41,
        "time": 132,
        "duration": 0.917,
        "velocity": 0.63,
        "hand": "left"
      },
      {
        "midi": 69,
        "time": 132,
        "duration": 0.917,
        "velocity": 0.63,
        "hand": "right"
      },
      {
        "midi": 48,
        "time": 133,
        "duration": 0.917,
        "velocity": 0.63,
        "hand": "left"
      },
      {
        "midi": 71,
        "time": 133,
        "duration": 0.917,
        "velocity": 0.63,
        "hand": "right"
      },
      {
        "midi": 41,
        "time": 134,
        "duration": 2,
        "velocity": 0.63,
        "hand": "left"
      },
      {
        "midi": 53,
        "time": 134,
        "duration": 0.917,
        "velocity": 0.63,
        "hand": "left"
      },
      {
        "midi": 56,
        "time": 134,
        "duration": 0.917,
        "velocity": 0.63,
        "hand": "left"
      },
      {
        "midi": 60,
        "time": 134,
        "duration": 2,
        "velocity": 0.63,
        "hand": "right"
      },
      {
        "midi": 60,
        "time": 134,
        "duration": 0.917,
        "velocity": 0.63,
        "hand": "right"
      },
      {
        "midi": 65,
        "time": 134,
        "duration": 2,
        "velocity": 0.63,
        "hand": "right"
      },
      {
        "midi": 68,
        "time": 134,
        "duration": 2,
        "velocity": 0.63,
        "hand": "right"
      },
      {
        "midi": 79,
        "time": 134,
        "duration": 0.917,
        "velocity": 0.63,
        "hand": "right"
      },
      {
        "midi": 62,
        "time": 135,
        "duration": 0.917,
        "velocity": 0.63,
        "hand": "right"
      },
      {
        "midi": 77,
        "time": 135,
        "duration": 0.917,
        "velocity": 0.63,
        "hand": "right"
      },
      {
        "midi": 36,
        "time": 136,
        "duration": 6,
        "velocity": 0.63,
        "hand": "left"
      },
      {
        "midi": 36,
        "time": 136,
        "duration": 0.917,
        "velocity": 0.63,
        "hand": "left"
      },
      {
        "midi": 60,
        "time": 136,
        "duration": 6,
        "velocity": 0.63,
        "hand": "right"
      },
      {
        "midi": 64,
        "time": 136,
        "duration": 6,
        "velocity": 0.63,
        "hand": "right"
      },
      {
        "midi": 67,
        "time": 136,
        "duration": 6,
        "velocity": 0.63,
        "hand": "right"
      },
      {
        "midi": 71,
        "time": 136,
        "duration": 2.333,
        "velocity": 0.63,
        "hand": "right"
      },
      {
        "midi": 71,
        "time": 136,
        "duration": 6,
        "velocity": 0.63,
        "hand": "right"
      },
      {
        "midi": 76,
        "time": 136,
        "duration": 2.333,
        "velocity": 0.63,
        "hand": "right"
      },
      {
        "midi": 43,
        "time": 137,
        "duration": 0.917,
        "velocity": 0.63,
        "hand": "left"
      },
      {
        "midi": 48,
        "time": 138,
        "duration": 0.917,
        "velocity": 0.63,
        "hand": "left"
      },
      {
        "midi": 52,
        "time": 138,
        "duration": 0.917,
        "velocity": 0.63,
        "hand": "left"
      },
      {
        "midi": 55,
        "time": 138,
        "duration": 0.917,
        "velocity": 0.63,
        "hand": "left"
      },
      {
        "midi": 74,
        "time": 138.333,
        "duration": 0.667,
        "velocity": 0.63,
        "hand": "right"
      },
      {
        "midi": 59,
        "time": 139,
        "duration": 0.917,
        "velocity": 0.63,
        "hand": "left"
      },
      {
        "midi": 69,
        "time": 139.333,
        "duration": 0.333,
        "velocity": 0.63,
        "hand": "right"
      },
      {
        "midi": 72,
        "time": 139.667,
        "duration": 0.333,
        "velocity": 0.63,
        "hand": "right"
      },
      {
        "midi": 36,
        "time": 140,
        "duration": 0.917,
        "velocity": 0.63,
        "hand": "left"
      },
      {
        "midi": 64,
        "time": 140,
        "duration": 0.917,
        "velocity": 0.63,
        "hand": "right"
      },
      {
        "midi": 71,
        "time": 140,
        "duration": 0.917,
        "velocity": 0.63,
        "hand": "right"
      },
      {
        "midi": 43,
        "time": 141,
        "duration": 0.917,
        "velocity": 0.63,
        "hand": "left"
      },
      {
        "midi": 71,
        "time": 141,
        "duration": 0.917,
        "velocity": 0.63,
        "hand": "right"
      },
      {
        "midi": 38,
        "time": 142,
        "duration": 1,
        "velocity": 0.63,
        "hand": "left"
      },
      {
        "midi": 38,
        "time": 142,
        "duration": 0.917,
        "velocity": 0.63,
        "hand": "left"
      },
      {
        "midi": 60,
        "time": 142,
        "duration": 1,
        "velocity": 0.63,
        "hand": "right"
      },
      {
        "midi": 64,
        "time": 142,
        "duration": 1,
        "velocity": 0.63,
        "hand": "right"
      },
      {
        "midi": 69,
        "time": 142,
        "duration": 0.917,
        "velocity": 0.63,
        "hand": "right"
      },
      {
        "midi": 69,
        "time": 142,
        "duration": 1,
        "velocity": 0.63,
        "hand": "right"
      },
      {
        "midi": 72,
        "time": 142,
        "duration": 0.917,
        "velocity": 0.63,
        "hand": "right"
      },
      {
        "midi": 40,
        "time": 143,
        "duration": 1,
        "velocity": 0.63,
        "hand": "left"
      },
      {
        "midi": 40,
        "time": 143,
        "duration": 0.917,
        "velocity": 0.63,
        "hand": "left"
      },
      {
        "midi": 62,
        "time": 143,
        "duration": 1,
        "velocity": 0.63,
        "hand": "right"
      },
      {
        "midi": 64,
        "time": 143,
        "duration": 1,
        "velocity": 0.63,
        "hand": "right"
      },
      {
        "midi": 68,
        "time": 143,
        "duration": 0.917,
        "velocity": 0.63,
        "hand": "right"
      },
      {
        "midi": 68,
        "time": 143,
        "duration": 1,
        "velocity": 0.63,
        "hand": "right"
      },
      {
        "midi": 71,
        "time": 143,
        "duration": 1,
        "velocity": 0.63,
        "hand": "right"
      },
      {
        "midi": 74,
        "time": 143,
        "duration": 0.917,
        "velocity": 0.63,
        "hand": "right"
      },
      {
        "midi": 41,
        "time": 144,
        "duration": 6,
        "velocity": 0.63,
        "hand": "left"
      },
      {
        "midi": 41,
        "time": 144,
        "duration": 0.917,
        "velocity": 0.63,
        "hand": "left"
      },
      {
        "midi": 60,
        "time": 144,
        "duration": 6,
        "velocity": 0.63,
        "hand": "right"
      },
      {
        "midi": 64,
        "time": 144,
        "duration": 6,
        "velocity": 0.63,
        "hand": "right"
      },
      {
        "midi": 65,
        "time": 144,
        "duration": 6,
        "velocity": 0.63,
        "hand": "right"
      },
      {
        "midi": 69,
        "time": 144,
        "duration": 3.833,
        "velocity": 0.63,
        "hand": "right"
      },
      {
        "midi": 69,
        "time": 144,
        "duration": 6,
        "velocity": 0.63,
        "hand": "right"
      },
      {
        "midi": 76,
        "time": 144,
        "duration": 3.833,
        "velocity": 0.63,
        "hand": "right"
      },
      {
        "midi": 48,
        "time": 145,
        "duration": 0.917,
        "velocity": 0.63,
        "hand": "left"
      },
      {
        "midi": 52,
        "time": 146,
        "duration": 0.917,
        "velocity": 0.63,
        "hand": "left"
      },
      {
        "midi": 53,
        "time": 146,
        "duration": 0.917,
        "velocity": 0.63,
        "hand": "left"
      },
      {
        "midi": 57,
        "time": 146,
        "duration": 0.917,
        "velocity": 0.63,
        "hand": "left"
      },
      {
        "midi": 60,
        "time": 147,
        "duration": 0.917,
        "velocity": 0.63,
        "hand": "right"
      },
      {
        "midi": 41,
        "time": 148,
        "duration": 0.917,
        "velocity": 0.63,
        "hand": "left"
      },
      {
        "midi": 69,
        "time": 148,
        "duration": 0.917,
        "velocity": 0.63,
        "hand": "right"
      },
      {
        "midi": 48,
        "time": 149,
        "duration": 0.917,
        "velocity": 0.63,
        "hand": "left"
      },
      {
        "midi": 71,
        "time": 149,
        "duration": 0.917,
        "velocity": 0.63,
        "hand": "right"
      },
      {
        "midi": 41,
        "time": 150,
        "duration": 2,
        "velocity": 0.63,
        "hand": "left"
      },
      {
        "midi": 53,
        "time": 150,
        "duration": 0.917,
        "velocity": 0.63,
        "hand": "left"
      },
      {
        "midi": 56,
        "time": 150,
        "duration": 0.917,
        "velocity": 0.63,
        "hand": "left"
      },
      {
        "midi": 60,
        "time": 150,
        "duration": 2,
        "velocity": 0.63,
        "hand": "right"
      },
      {
        "midi": 60,
        "time": 150,
        "duration": 0.917,
        "velocity": 0.63,
        "hand": "right"
      },
      {
        "midi": 65,
        "time": 150,
        "duration": 2,
        "velocity": 0.63,
        "hand": "right"
      },
      {
        "midi": 68,
        "time": 150,
        "duration": 2,
        "velocity": 0.63,
        "hand": "right"
      },
      {
        "midi": 79,
        "time": 150,
        "duration": 0.917,
        "velocity": 0.63,
        "hand": "right"
      },
      {
        "midi": 62,
        "time": 151,
        "duration": 0.917,
        "velocity": 0.63,
        "hand": "right"
      },
      {
        "midi": 77,
        "time": 151,
        "duration": 0.917,
        "velocity": 0.63,
        "hand": "right"
      },
      {
        "midi": 36,
        "time": 152,
        "duration": 6,
        "velocity": 0.63,
        "hand": "left"
      },
      {
        "midi": 36,
        "time": 152,
        "duration": 0.917,
        "velocity": 0.63,
        "hand": "left"
      },
      {
        "midi": 60,
        "time": 152,
        "duration": 6,
        "velocity": 0.63,
        "hand": "right"
      },
      {
        "midi": 64,
        "time": 152,
        "duration": 6,
        "velocity": 0.63,
        "hand": "right"
      },
      {
        "midi": 67,
        "time": 152,
        "duration": 6,
        "velocity": 0.63,
        "hand": "right"
      },
      {
        "midi": 71,
        "time": 152,
        "duration": 2.833,
        "velocity": 0.63,
        "hand": "right"
      },
      {
        "midi": 71,
        "time": 152,
        "duration": 6,
        "velocity": 0.63,
        "hand": "right"
      },
      {
        "midi": 76,
        "time": 152,
        "duration": 2.833,
        "velocity": 0.63,
        "hand": "right"
      },
      {
        "midi": 43,
        "time": 153,
        "duration": 0.917,
        "velocity": 0.63,
        "hand": "left"
      },
      {
        "midi": 48,
        "time": 154,
        "duration": 0.917,
        "velocity": 0.63,
        "hand": "left"
      },
      {
        "midi": 52,
        "time": 154,
        "duration": 0.917,
        "velocity": 0.63,
        "hand": "left"
      },
      {
        "midi": 55,
        "time": 154,
        "duration": 0.917,
        "velocity": 0.63,
        "hand": "left"
      },
      {
        "midi": 59,
        "time": 155,
        "duration": 0.917,
        "velocity": 0.63,
        "hand": "left"
      },
      {
        "midi": 69,
        "time": 155.333,
        "duration": 0.333,
        "velocity": 0.63,
        "hand": "right"
      },
      {
        "midi": 72,
        "time": 155.667,
        "duration": 0.333,
        "velocity": 0.63,
        "hand": "right"
      },
      {
        "midi": 36,
        "time": 156,
        "duration": 0.917,
        "velocity": 0.63,
        "hand": "left"
      },
      {
        "midi": 64,
        "time": 156,
        "duration": 2,
        "velocity": 0.63,
        "hand": "right"
      },
      {
        "midi": 71,
        "time": 156,
        "duration": 2,
        "velocity": 0.63,
        "hand": "right"
      },
      {
        "midi": 43,
        "time": 157,
        "duration": 0.917,
        "velocity": 0.63,
        "hand": "left"
      },
      {
        "midi": 38,
        "time": 158,
        "duration": 1,
        "velocity": 0.63,
        "hand": "left"
      },
      {
        "midi": 38,
        "time": 158,
        "duration": 0.917,
        "velocity": 0.63,
        "hand": "left"
      },
      {
        "midi": 60,
        "time": 158,
        "duration": 1,
        "velocity": 0.63,
        "hand": "right"
      },
      {
        "midi": 64,
        "time": 158,
        "duration": 0.917,
        "velocity": 0.63,
        "hand": "right"
      },
      {
        "midi": 64,
        "time": 158,
        "duration": 1,
        "velocity": 0.63,
        "hand": "right"
      },
      {
        "midi": 67,
        "time": 158,
        "duration": 1,
        "velocity": 0.63,
        "hand": "right"
      },
      {
        "midi": 70,
        "time": 158,
        "duration": 0.917,
        "velocity": 0.63,
        "hand": "right"
      },
      {
        "midi": 70,
        "time": 158,
        "duration": 1,
        "velocity": 0.63,
        "hand": "right"
      },
      {
        "midi": 40,
        "time": 159,
        "duration": 1,
        "velocity": 0.63,
        "hand": "left"
      },
      {
        "midi": 40,
        "time": 159,
        "duration": 0.917,
        "velocity": 0.63,
        "hand": "left"
      },
      {
        "midi": 60,
        "time": 159,
        "duration": 1,
        "velocity": 0.63,
        "hand": "right"
      },
      {
        "midi": 64,
        "time": 159,
        "duration": 1,
        "velocity": 0.63,
        "hand": "right"
      },
      {
        "midi": 67,
        "time": 159,
        "duration": 1,
        "velocity": 0.63,
        "hand": "right"
      },
      {
        "midi": 70,
        "time": 159,
        "duration": 0.917,
        "velocity": 0.63,
        "hand": "right"
      },
      {
        "midi": 70,
        "time": 159,
        "duration": 1,
        "velocity": 0.63,
        "hand": "right"
      },
      {
        "midi": 41,
        "time": 160,
        "duration": 5,
        "velocity": 0.63,
        "hand": "left"
      },
      {
        "midi": 41,
        "time": 160,
        "duration": 0.667,
        "velocity": 0.63,
        "hand": "left"
      },
      {
        "midi": 60,
        "time": 160,
        "duration": 5,
        "velocity": 0.63,
        "hand": "right"
      },
      {
        "midi": 64,
        "time": 160,
        "duration": 5,
        "velocity": 0.63,
        "hand": "right"
      },
      {
        "midi": 65,
        "time": 160,
        "duration": 5,
        "velocity": 0.63,
        "hand": "right"
      },
      {
        "midi": 69,
        "time": 160,
        "duration": 3.833,
        "velocity": 0.63,
        "hand": "right"
      },
      {
        "midi": 69,
        "time": 160,
        "duration": 5,
        "velocity": 0.63,
        "hand": "right"
      },
      {
        "midi": 76,
        "time": 160,
        "duration": 3.833,
        "velocity": 0.63,
        "hand": "right"
      },
      {
        "midi": 55,
        "time": 160.667,
        "duration": 0.333,
        "velocity": 0.63,
        "hand": "left"
      },
      {
        "midi": 53,
        "time": 161,
        "duration": 0.667,
        "velocity": 0.63,
        "hand": "left"
      },
      {
        "midi": 55,
        "time": 161.667,
        "duration": 0.333,
        "velocity": 0.63,
        "hand": "left"
      },
      {
        "midi": 53,
        "time": 162,
        "duration": 0.667,
        "velocity": 0.63,
        "hand": "left"
      },
      {
        "midi": 55,
        "time": 162.667,
        "duration": 0.333,
        "velocity": 0.63,
        "hand": "left"
      },
      {
        "midi": 53,
        "time": 163,
        "duration": 0.667,
        "velocity": 0.63,
        "hand": "left"
      },
      {
        "midi": 55,
        "time": 163.667,
        "duration": 0.333,
        "velocity": 0.63,
        "hand": "left"
      },
      {
        "midi": 53,
        "time": 164,
        "duration": 0.917,
        "velocity": 0.63,
        "hand": "left"
      },
      {
        "midi": 69,
        "time": 164,
        "duration": 0.917,
        "velocity": 0.63,
        "hand": "right"
      },
      {
        "midi": 36,
        "time": 165,
        "duration": 1,
        "velocity": 0.63,
        "hand": "left"
      },
      {
        "midi": 48,
        "time": 165,
        "duration": 0.917,
        "velocity": 0.63,
        "hand": "left"
      },
      {
        "midi": 55,
        "time": 165,
        "duration": 0.917,
        "velocity": 0.63,
        "hand": "left"
      },
      {
        "midi": 60,
        "time": 165,
        "duration": 1,
        "velocity": 0.63,
        "hand": "right"
      },
      {
        "midi": 64,
        "time": 165,
        "duration": 1,
        "velocity": 0.63,
        "hand": "right"
      },
      {
        "midi": 67,
        "time": 165,
        "duration": 1,
        "velocity": 0.63,
        "hand": "right"
      },
      {
        "midi": 71,
        "time": 165,
        "duration": 0.917,
        "velocity": 0.63,
        "hand": "right"
      },
      {
        "midi": 71,
        "time": 165,
        "duration": 1,
        "velocity": 0.63,
        "hand": "right"
      },
      {
        "midi": 41,
        "time": 166,
        "duration": 2,
        "velocity": 0.63,
        "hand": "left"
      },
      {
        "midi": 53,
        "time": 166,
        "duration": 0.917,
        "velocity": 0.63,
        "hand": "left"
      },
      {
        "midi": 56,
        "time": 166,
        "duration": 0.917,
        "velocity": 0.63,
        "hand": "left"
      },
      {
        "midi": 60,
        "time": 166,
        "duration": 2,
        "velocity": 0.63,
        "hand": "right"
      },
      {
        "midi": 65,
        "time": 166,
        "duration": 2,
        "velocity": 0.63,
        "hand": "right"
      },
      {
        "midi": 68,
        "time": 166,
        "duration": 2,
        "velocity": 0.63,
        "hand": "right"
      },
      {
        "midi": 79,
        "time": 166,
        "duration": 0.917,
        "velocity": 0.63,
        "hand": "right"
      },
      {
        "midi": 60,
        "time": 167,
        "duration": 0.917,
        "velocity": 0.63,
        "hand": "right"
      },
      {
        "midi": 77,
        "time": 167,
        "duration": 0.917,
        "velocity": 0.63,
        "hand": "right"
      },
      {
        "midi": 36,
        "time": 168,
        "duration": 6,
        "velocity": 0.63,
        "hand": "left"
      },
      {
        "midi": 48,
        "time": 168,
        "duration": 0.917,
        "velocity": 0.63,
        "hand": "left"
      },
      {
        "midi": 60,
        "time": 168,
        "duration": 6,
        "velocity": 0.63,
        "hand": "right"
      },
      {
        "midi": 64,
        "time": 168,
        "duration": 6,
        "velocity": 0.63,
        "hand": "right"
      },
      {
        "midi": 67,
        "time": 168,
        "duration": 6,
        "velocity": 0.63,
        "hand": "right"
      },
      {
        "midi": 71,
        "time": 168,
        "duration": 2.833,
        "velocity": 0.63,
        "hand": "right"
      },
      {
        "midi": 71,
        "time": 168,
        "duration": 6,
        "velocity": 0.63,
        "hand": "right"
      },
      {
        "midi": 76,
        "time": 168,
        "duration": 2.833,
        "velocity": 0.63,
        "hand": "right"
      },
      {
        "midi": 48,
        "time": 169,
        "duration": 0.917,
        "velocity": 0.63,
        "hand": "left"
      },
      {
        "midi": 48,
        "time": 170,
        "duration": 0.917,
        "velocity": 0.63,
        "hand": "left"
      },
      {
        "midi": 48,
        "time": 171,
        "duration": 0.917,
        "velocity": 0.63,
        "hand": "left"
      },
      {
        "midi": 71,
        "time": 171,
        "duration": 0.167,
        "velocity": 0.63,
        "hand": "right"
      },
      {
        "midi": 72,
        "time": 171.167,
        "duration": 0.167,
        "velocity": 0.63,
        "hand": "right"
      },
      {
        "midi": 74,
        "time": 171.333,
        "duration": 0.167,
        "velocity": 0.63,
        "hand": "right"
      },
      {
        "midi": 76,
        "time": 171.5,
        "duration": 0.167,
        "velocity": 0.63,
        "hand": "right"
      },
      {
        "midi": 74,
        "time": 171.667,
        "duration": 0.167,
        "velocity": 0.63,
        "hand": "right"
      },
      {
        "midi": 72,
        "time": 171.833,
        "duration": 0.167,
        "velocity": 0.63,
        "hand": "right"
      },
      {
        "midi": 36,
        "time": 172,
        "duration": 0.917,
        "velocity": 0.63,
        "hand": "left"
      },
      {
        "midi": 71,
        "time": 172,
        "duration": 0.167,
        "velocity": 0.63,
        "hand": "right"
      },
      {
        "midi": 72,
        "time": 172.167,
        "duration": 0.167,
        "velocity": 0.63,
        "hand": "right"
      },
      {
        "midi": 74,
        "time": 172.333,
        "duration": 0.167,
        "velocity": 0.63,
        "hand": "right"
      },
      {
        "midi": 76,
        "time": 172.5,
        "duration": 0.167,
        "velocity": 0.63,
        "hand": "right"
      },
      {
        "midi": 74,
        "time": 172.667,
        "duration": 0.167,
        "velocity": 0.63,
        "hand": "right"
      },
      {
        "midi": 72,
        "time": 172.833,
        "duration": 0.167,
        "velocity": 0.63,
        "hand": "right"
      },
      {
        "midi": 36,
        "time": 173,
        "duration": 0.917,
        "velocity": 0.63,
        "hand": "left"
      },
      {
        "midi": 64,
        "time": 173,
        "duration": 0.917,
        "velocity": 0.63,
        "hand": "right"
      },
      {
        "midi": 71,
        "time": 173,
        "duration": 0.917,
        "velocity": 0.63,
        "hand": "right"
      },
      {
        "midi": 36,
        "time": 174,
        "duration": 2,
        "velocity": 0.63,
        "hand": "left"
      },
      {
        "midi": 46,
        "time": 174,
        "duration": 0.917,
        "velocity": 0.63,
        "hand": "left"
      },
      {
        "midi": 60,
        "time": 174,
        "duration": 2,
        "velocity": 0.63,
        "hand": "right"
      },
      {
        "midi": 64,
        "time": 174,
        "duration": 0.917,
        "velocity": 0.63,
        "hand": "right"
      },
      {
        "midi": 64,
        "time": 174,
        "duration": 2,
        "velocity": 0.63,
        "hand": "right"
      },
      {
        "midi": 67,
        "time": 174,
        "duration": 2,
        "velocity": 0.63,
        "hand": "right"
      },
      {
        "midi": 70,
        "time": 174,
        "duration": 2,
        "velocity": 0.63,
        "hand": "right"
      },
      {
        "midi": 72,
        "time": 174,
        "duration": 0.917,
        "velocity": 0.63,
        "hand": "right"
      },
      {
        "midi": 36,
        "time": 175,
        "duration": 0.917,
        "velocity": 0.63,
        "hand": "left"
      },
      {
        "midi": 74,
        "time": 175,
        "duration": 0.917,
        "velocity": 0.63,
        "hand": "right"
      },
      {
        "midi": 41,
        "time": 176,
        "duration": 6,
        "velocity": 0.63,
        "hand": "left"
      },
      {
        "midi": 41,
        "time": 176,
        "duration": 0.917,
        "velocity": 0.63,
        "hand": "left"
      },
      {
        "midi": 60,
        "time": 176,
        "duration": 6,
        "velocity": 0.63,
        "hand": "right"
      },
      {
        "midi": 64,
        "time": 176,
        "duration": 6,
        "velocity": 0.63,
        "hand": "right"
      },
      {
        "midi": 65,
        "time": 176,
        "duration": 6,
        "velocity": 0.63,
        "hand": "right"
      },
      {
        "midi": 69,
        "time": 176,
        "duration": 2.833,
        "velocity": 0.63,
        "hand": "right"
      },
      {
        "midi": 69,
        "time": 176,
        "duration": 6,
        "velocity": 0.63,
        "hand": "right"
      },
      {
        "midi": 76,
        "time": 176,
        "duration": 2.833,
        "velocity": 0.63,
        "hand": "right"
      },
      {
        "midi": 48,
        "time": 177,
        "duration": 0.917,
        "velocity": 0.63,
        "hand": "left"
      },
      {
        "midi": 52,
        "time": 178,
        "duration": 0.917,
        "velocity": 0.63,
        "hand": "left"
      },
      {
        "midi": 53,
        "time": 178,
        "duration": 0.917,
        "velocity": 0.63,
        "hand": "left"
      },
      {
        "midi": 57,
        "time": 178,
        "duration": 0.917,
        "velocity": 0.63,
        "hand": "left"
      },
      {
        "midi": 60,
        "time": 179,
        "duration": 0.917,
        "velocity": 0.63,
        "hand": "right"
      },
      {
        "midi": 74,
        "time": 179,
        "duration": 0.167,
        "velocity": 0.63,
        "hand": "right"
      },
      {
        "midi": 76,
        "time": 179.167,
        "duration": 0.167,
        "velocity": 0.63,
        "hand": "right"
      },
      {
        "midi": 79,
        "time": 179.333,
        "duration": 0.167,
        "velocity": 0.63,
        "hand": "right"
      },
      {
        "midi": 81,
        "time": 179.5,
        "duration": 0.167,
        "velocity": 0.63,
        "hand": "right"
      },
      {
        "midi": 79,
        "time": 179.667,
        "duration": 0.167,
        "velocity": 0.63,
        "hand": "right"
      },
      {
        "midi": 76,
        "time": 179.833,
        "duration": 0.167,
        "velocity": 0.63,
        "hand": "right"
      },
      {
        "midi": 41,
        "time": 180,
        "duration": 0.917,
        "velocity": 0.63,
        "hand": "left"
      },
      {
        "midi": 69,
        "time": 180,
        "duration": 0.917,
        "velocity": 0.63,
        "hand": "right"
      },
      {
        "midi": 48,
        "time": 181,
        "duration": 0.917,
        "velocity": 0.63,
        "hand": "left"
      },
      {
        "midi": 71,
        "time": 181,
        "duration": 0.917,
        "velocity": 0.63,
        "hand": "right"
      },
      {
        "midi": 41,
        "time": 182,
        "duration": 2,
        "velocity": 0.63,
        "hand": "left"
      },
      {
        "midi": 53,
        "time": 182,
        "duration": 0.917,
        "velocity": 0.63,
        "hand": "left"
      },
      {
        "midi": 56,
        "time": 182,
        "duration": 0.917,
        "velocity": 0.63,
        "hand": "left"
      },
      {
        "midi": 60,
        "time": 182,
        "duration": 2,
        "velocity": 0.63,
        "hand": "right"
      },
      {
        "midi": 65,
        "time": 182,
        "duration": 2,
        "velocity": 0.63,
        "hand": "right"
      },
      {
        "midi": 68,
        "time": 182,
        "duration": 2,
        "velocity": 0.63,
        "hand": "right"
      },
      {
        "midi": 79,
        "time": 182,
        "duration": 0.917,
        "velocity": 0.63,
        "hand": "right"
      },
      {
        "midi": 60,
        "time": 183,
        "duration": 0.917,
        "velocity": 0.63,
        "hand": "right"
      },
      {
        "midi": 77,
        "time": 183,
        "duration": 0.917,
        "velocity": 0.63,
        "hand": "right"
      },
      {
        "midi": 36,
        "time": 184,
        "duration": 6,
        "velocity": 0.63,
        "hand": "left"
      },
      {
        "midi": 36,
        "time": 184,
        "duration": 0.917,
        "velocity": 0.63,
        "hand": "left"
      },
      {
        "midi": 60,
        "time": 184,
        "duration": 6,
        "velocity": 0.63,
        "hand": "right"
      },
      {
        "midi": 64,
        "time": 184,
        "duration": 6,
        "velocity": 0.63,
        "hand": "right"
      },
      {
        "midi": 67,
        "time": 184,
        "duration": 6,
        "velocity": 0.63,
        "hand": "right"
      },
      {
        "midi": 71,
        "time": 184,
        "duration": 0.917,
        "velocity": 0.63,
        "hand": "right"
      },
      {
        "midi": 71,
        "time": 184,
        "duration": 6,
        "velocity": 0.63,
        "hand": "right"
      },
      {
        "midi": 76,
        "time": 184,
        "duration": 0.917,
        "velocity": 0.63,
        "hand": "right"
      },
      {
        "midi": 43,
        "time": 185,
        "duration": 0.917,
        "velocity": 0.63,
        "hand": "left"
      },
      {
        "midi": 71,
        "time": 185,
        "duration": 0.167,
        "velocity": 0.63,
        "hand": "right"
      },
      {
        "midi": 72,
        "time": 185.167,
        "duration": 0.167,
        "velocity": 0.63,
        "hand": "right"
      },
      {
        "midi": 74,
        "time": 185.333,
        "duration": 0.167,
        "velocity": 0.63,
        "hand": "right"
      },
      {
        "midi": 76,
        "time": 185.5,
        "duration": 0.167,
        "velocity": 0.63,
        "hand": "right"
      },
      {
        "midi": 74,
        "time": 185.667,
        "duration": 0.167,
        "velocity": 0.63,
        "hand": "right"
      },
      {
        "midi": 72,
        "time": 185.833,
        "duration": 0.167,
        "velocity": 0.63,
        "hand": "right"
      },
      {
        "midi": 48,
        "time": 186,
        "duration": 1.917,
        "velocity": 0.63,
        "hand": "left"
      },
      {
        "midi": 71,
        "time": 186,
        "duration": 0.167,
        "velocity": 0.63,
        "hand": "right"
      },
      {
        "midi": 72,
        "time": 186.167,
        "duration": 0.167,
        "velocity": 0.63,
        "hand": "right"
      },
      {
        "midi": 74,
        "time": 186.333,
        "duration": 0.167,
        "velocity": 0.63,
        "hand": "right"
      },
      {
        "midi": 76,
        "time": 186.5,
        "duration": 0.167,
        "velocity": 0.63,
        "hand": "right"
      },
      {
        "midi": 74,
        "time": 186.667,
        "duration": 0.167,
        "velocity": 0.63,
        "hand": "right"
      },
      {
        "midi": 72,
        "time": 186.833,
        "duration": 0.167,
        "velocity": 0.63,
        "hand": "right"
      },
      {
        "midi": 71,
        "time": 187,
        "duration": 0.167,
        "velocity": 0.63,
        "hand": "right"
      },
      {
        "midi": 72,
        "time": 187.167,
        "duration": 0.167,
        "velocity": 0.63,
        "hand": "right"
      },
      {
        "midi": 74,
        "time": 187.333,
        "duration": 0.167,
        "velocity": 0.63,
        "hand": "right"
      },
      {
        "midi": 76,
        "time": 187.5,
        "duration": 0.167,
        "velocity": 0.63,
        "hand": "right"
      },
      {
        "midi": 74,
        "time": 187.667,
        "duration": 0.167,
        "velocity": 0.63,
        "hand": "right"
      },
      {
        "midi": 72,
        "time": 187.833,
        "duration": 0.167,
        "velocity": 0.63,
        "hand": "right"
      },
      {
        "midi": 50,
        "time": 188,
        "duration": 0.917,
        "velocity": 0.63,
        "hand": "left"
      },
      {
        "midi": 71,
        "time": 188,
        "duration": 0.167,
        "velocity": 0.63,
        "hand": "right"
      },
      {
        "midi": 72,
        "time": 188.167,
        "duration": 0.167,
        "velocity": 0.63,
        "hand": "right"
      },
      {
        "midi": 74,
        "time": 188.333,
        "duration": 0.167,
        "velocity": 0.63,
        "hand": "right"
      },
      {
        "midi": 76,
        "time": 188.5,
        "duration": 0.167,
        "velocity": 0.63,
        "hand": "right"
      },
      {
        "midi": 74,
        "time": 188.667,
        "duration": 0.167,
        "velocity": 0.63,
        "hand": "right"
      },
      {
        "midi": 72,
        "time": 188.833,
        "duration": 0.167,
        "velocity": 0.63,
        "hand": "right"
      },
      {
        "midi": 52,
        "time": 189,
        "duration": 0.917,
        "velocity": 0.63,
        "hand": "left"
      },
      {
        "midi": 71,
        "time": 189,
        "duration": 0.167,
        "velocity": 0.63,
        "hand": "right"
      },
      {
        "midi": 72,
        "time": 189.167,
        "duration": 0.167,
        "velocity": 0.63,
        "hand": "right"
      },
      {
        "midi": 74,
        "time": 189.333,
        "duration": 0.167,
        "velocity": 0.63,
        "hand": "right"
      },
      {
        "midi": 76,
        "time": 189.5,
        "duration": 0.167,
        "velocity": 0.63,
        "hand": "right"
      },
      {
        "midi": 74,
        "time": 189.667,
        "duration": 0.167,
        "velocity": 0.63,
        "hand": "right"
      },
      {
        "midi": 72,
        "time": 189.833,
        "duration": 0.167,
        "velocity": 0.63,
        "hand": "right"
      },
      {
        "midi": 41,
        "time": 190,
        "duration": 1,
        "velocity": 0.63,
        "hand": "left"
      },
      {
        "midi": 53,
        "time": 190,
        "duration": 0.917,
        "velocity": 0.63,
        "hand": "left"
      },
      {
        "midi": 60,
        "time": 190,
        "duration": 1,
        "velocity": 0.63,
        "hand": "right"
      },
      {
        "midi": 64,
        "time": 190,
        "duration": 1,
        "velocity": 0.63,
        "hand": "right"
      },
      {
        "midi": 67,
        "time": 190,
        "duration": 1,
        "velocity": 0.63,
        "hand": "right"
      },
      {
        "midi": 70,
        "time": 190,
        "duration": 0.167,
        "velocity": 0.63,
        "hand": "right"
      },
      {
        "midi": 70,
        "time": 190,
        "duration": 1,
        "velocity": 0.63,
        "hand": "right"
      },
      {
        "midi": 72,
        "time": 190.167,
        "duration": 0.167,
        "velocity": 0.63,
        "hand": "right"
      },
      {
        "midi": 74,
        "time": 190.333,
        "duration": 0.167,
        "velocity": 0.63,
        "hand": "right"
      },
      {
        "midi": 76,
        "time": 190.5,
        "duration": 0.167,
        "velocity": 0.63,
        "hand": "right"
      },
      {
        "midi": 74,
        "time": 190.667,
        "duration": 0.167,
        "velocity": 0.63,
        "hand": "right"
      },
      {
        "midi": 72,
        "time": 190.833,
        "duration": 0.167,
        "velocity": 0.63,
        "hand": "right"
      },
      {
        "midi": 40,
        "time": 191,
        "duration": 1,
        "velocity": 0.63,
        "hand": "left"
      },
      {
        "midi": 52,
        "time": 191,
        "duration": 0.917,
        "velocity": 0.63,
        "hand": "left"
      },
      {
        "midi": 60,
        "time": 191,
        "duration": 1,
        "velocity": 0.63,
        "hand": "right"
      },
      {
        "midi": 64,
        "time": 191,
        "duration": 1,
        "velocity": 0.63,
        "hand": "right"
      },
      {
        "midi": 67,
        "time": 191,
        "duration": 1,
        "velocity": 0.63,
        "hand": "right"
      },
      {
        "midi": 70,
        "time": 191,
        "duration": 0.917,
        "velocity": 0.63,
        "hand": "right"
      },
      {
        "midi": 70,
        "time": 191,
        "duration": 1,
        "velocity": 0.63,
        "hand": "right"
      },
      {
        "midi": 41,
        "time": 192,
        "duration": 4,
        "velocity": 0.63,
        "hand": "left"
      },
      {
        "midi": 53,
        "time": 192,
        "duration": 3.833,
        "velocity": 0.63,
        "hand": "left"
      },
      {
        "midi": 60,
        "time": 192,
        "duration": 4,
        "velocity": 0.63,
        "hand": "right"
      },
      {
        "midi": 60,
        "time": 192,
        "duration": 3.833,
        "velocity": 0.63,
        "hand": "right"
      },
      {
        "midi": 65,
        "time": 192,
        "duration": 4,
        "velocity": 0.63,
        "hand": "right"
      },
      {
        "midi": 69,
        "time": 192,
        "duration": 0.917,
        "velocity": 0.63,
        "hand": "right"
      },
      {
        "midi": 69,
        "time": 192,
        "duration": 4,
        "velocity": 0.63,
        "hand": "right"
      },
      {
        "midi": 76,
        "time": 192,
        "duration": 0.917,
        "velocity": 0.63,
        "hand": "right"
      },
      {
        "midi": 72,
        "time": 193,
        "duration": 0.917,
        "velocity": 0.63,
        "hand": "right"
      },
      {
        "midi": 69,
        "time": 194,
        "duration": 1.917,
        "velocity": 0.63,
        "hand": "right"
      },
      {
        "midi": 40,
        "time": 196,
        "duration": 4,
        "velocity": 0.63,
        "hand": "left"
      },
      {
        "midi": 52,
        "time": 196,
        "duration": 3.833,
        "velocity": 0.63,
        "hand": "left"
      },
      {
        "midi": 55,
        "time": 196,
        "duration": 3.833,
        "velocity": 0.63,
        "hand": "left"
      },
      {
        "midi": 59,
        "time": 196,
        "duration": 3.833,
        "velocity": 0.63,
        "hand": "left"
      },
      {
        "midi": 64,
        "time": 196,
        "duration": 4,
        "velocity": 0.63,
        "hand": "right"
      },
      {
        "midi": 67,
        "time": 196,
        "duration": 4,
        "velocity": 0.63,
        "hand": "right"
      },
      {
        "midi": 71,
        "time": 196,
        "duration": 4,
        "velocity": 0.63,
        "hand": "right"
      },
      {
        "midi": 76,
        "time": 196,
        "duration": 0.917,
        "velocity": 0.63,
        "hand": "right"
      },
      {
        "midi": 71,
        "time": 197,
        "duration": 0.917,
        "velocity": 0.63,
        "hand": "right"
      },
      {
        "midi": 67,
        "time": 198,
        "duration": 1.917,
        "velocity": 0.63,
        "hand": "right"
      },
      {
        "midi": 39,
        "time": 200,
        "duration": 4,
        "velocity": 0.63,
        "hand": "left"
      },
      {
        "midi": 51,
        "time": 200,
        "duration": 3.833,
        "velocity": 0.63,
        "hand": "left"
      },
      {
        "midi": 58,
        "time": 200,
        "duration": 3.833,
        "velocity": 0.63,
        "hand": "left"
      },
      {
        "midi": 63,
        "time": 200,
        "duration": 4,
        "velocity": 0.63,
        "hand": "right"
      },
      {
        "midi": 67,
        "time": 200,
        "duration": 0.917,
        "velocity": 0.63,
        "hand": "right"
      },
      {
        "midi": 67,
        "time": 200,
        "duration": 4,
        "velocity": 0.63,
        "hand": "right"
      },
      {
        "midi": 70,
        "time": 200,
        "duration": 4,
        "velocity": 0.63,
        "hand": "right"
      },
      {
        "midi": 74,
        "time": 200,
        "duration": 0.917,
        "velocity": 0.63,
        "hand": "right"
      },
      {
        "midi": 70,
        "time": 201,
        "duration": 0.917,
        "velocity": 0.63,
        "hand": "right"
      },
      {
        "midi": 69,
        "time": 202,
        "duration": 0.917,
        "velocity": 0.63,
        "hand": "right"
      },
      {
        "midi": 65,
        "time": 203,
        "duration": 0.917,
        "velocity": 0.63,
        "hand": "right"
      },
      {
        "midi": 38,
        "time": 204,
        "duration": 4,
        "velocity": 0.63,
        "hand": "left"
      },
      {
        "midi": 50,
        "time": 204,
        "duration": 3.833,
        "velocity": 0.63,
        "hand": "left"
      },
      {
        "midi": 57,
        "time": 204,
        "duration": 3.833,
        "velocity": 0.63,
        "hand": "left"
      },
      {
        "midi": 62,
        "time": 204,
        "duration": 4,
        "velocity": 0.63,
        "hand": "right"
      },
      {
        "midi": 65,
        "time": 204,
        "duration": 0.917,
        "velocity": 0.63,
        "hand": "right"
      },
      {
        "midi": 65,
        "time": 204,
        "duration": 4,
        "velocity": 0.63,
        "hand": "right"
      },
      {
        "midi": 69,
        "time": 204,
        "duration": 4,
        "velocity": 0.63,
        "hand": "right"
      },
      {
        "midi": 74,
        "time": 204,
        "duration": 0.917,
        "velocity": 0.63,
        "hand": "right"
      },
      {
        "midi": 70,
        "time": 205,
        "duration": 0.917,
        "velocity": 0.63,
        "hand": "right"
      },
      {
        "midi": 69,
        "time": 206,
        "duration": 1.917,
        "velocity": 0.63,
        "hand": "right"
      },
      {
        "midi": 36,
        "time": 208,
        "duration": 4,
        "velocity": 0.63,
        "hand": "left"
      },
      {
        "midi": 48,
        "time": 208,
        "duration": 3.833,
        "velocity": 0.63,
        "hand": "left"
      },
      {
        "midi": 51,
        "time": 208,
        "duration": 3.833,
        "velocity": 0.63,
        "hand": "left"
      },
      {
        "midi": 55,
        "time": 208,
        "duration": 3.833,
        "velocity": 0.63,
        "hand": "left"
      },
      {
        "midi": 60,
        "time": 208,
        "duration": 4,
        "velocity": 0.63,
        "hand": "right"
      },
      {
        "midi": 63,
        "time": 208,
        "duration": 4,
        "velocity": 0.63,
        "hand": "right"
      },
      {
        "midi": 67,
        "time": 208,
        "duration": 4,
        "velocity": 0.63,
        "hand": "right"
      },
      {
        "midi": 72,
        "time": 208,
        "duration": 0.917,
        "velocity": 0.63,
        "hand": "right"
      },
      {
        "midi": 67,
        "time": 209,
        "duration": 0.917,
        "velocity": 0.63,
        "hand": "right"
      },
      {
        "midi": 72,
        "time": 210,
        "duration": 0.917,
        "velocity": 0.63,
        "hand": "right"
      },
      {
        "midi": 75,
        "time": 211,
        "duration": 0.917,
        "velocity": 0.63,
        "hand": "right"
      },
      {
        "midi": 42,
        "time": 212,
        "duration": 7.5,
        "velocity": 0.39,
        "hand": "left"
      },
      {
        "midi": 54,
        "time": 212,
        "duration": 6.917,
        "velocity": 0.39,
        "hand": "left"
      },
      {
        "midi": 62,
        "time": 212,
        "duration": 7.5,
        "velocity": 0.39,
        "hand": "right"
      },
      {
        "midi": 62,
        "time": 212,
        "duration": 6.917,
        "velocity": 0.39,
        "hand": "right"
      },
      {
        "midi": 66,
        "time": 212,
        "duration": 7.5,
        "velocity": 0.39,
        "hand": "right"
      },
      {
        "midi": 69,
        "time": 212,
        "duration": 7.5,
        "velocity": 0.39,
        "hand": "right"
      },
      {
        "midi": 74,
        "time": 212,
        "duration": 1.417,
        "velocity": 0.39,
        "hand": "right"
      },
      {
        "midi": 66,
        "time": 213.5,
        "duration": 0.75,
        "velocity": 0.39,
        "hand": "right"
      },
      {
        "midi": 69,
        "time": 214.25,
        "duration": 0.75,
        "velocity": 0.39,
        "hand": "right"
      },
      {
        "midi": 72,
        "time": 215,
        "duration": 1.417,
        "velocity": 0.39,
        "hand": "right"
      },
      {
        "midi": 74,
        "time": 216.5,
        "duration": 0.333,
        "velocity": 0.39,
        "hand": "right"
      },
      {
        "midi": 69,
        "time": 216.833,
        "duration": 0.333,
        "velocity": 0.39,
        "hand": "right"
      },
      {
        "midi": 78,
        "time": 217.25,
        "duration": 0.75,
        "velocity": 0.39,
        "hand": "right"
      },
      {
        "midi": 81,
        "time": 218,
        "duration": 1.417,
        "velocity": 0.39,
        "hand": "right"
      }
    ]
  },
  "notes1Hand": [
    {
      "midi": 74,
      "time": 0,
      "duration": 0.167,
      "velocity": 0.63,
      "hand": "right"
    },
    {
      "midi": 76,
      "time": 0.167,
      "duration": 0.167,
      "velocity": 0.63,
      "hand": "right"
    },
    {
      "midi": 79,
      "time": 0.333,
      "duration": 0.167,
      "velocity": 0.63,
      "hand": "right"
    },
    {
      "midi": 81,
      "time": 0.5,
      "duration": 0.167,
      "velocity": 0.63,
      "hand": "right"
    },
    {
      "midi": 79,
      "time": 0.667,
      "duration": 0.167,
      "velocity": 0.63,
      "hand": "right"
    },
    {
      "midi": 76,
      "time": 0.833,
      "duration": 0.167,
      "velocity": 0.63,
      "hand": "right"
    },
    {
      "midi": 74,
      "time": 1,
      "duration": 0.167,
      "velocity": 0.63,
      "hand": "right"
    },
    {
      "midi": 76,
      "time": 1.167,
      "duration": 0.167,
      "velocity": 0.63,
      "hand": "right"
    },
    {
      "midi": 79,
      "time": 1.333,
      "duration": 0.167,
      "velocity": 0.63,
      "hand": "right"
    },
    {
      "midi": 81,
      "time": 1.5,
      "duration": 0.167,
      "velocity": 0.63,
      "hand": "right"
    },
    {
      "midi": 79,
      "time": 1.667,
      "duration": 0.167,
      "velocity": 0.63,
      "hand": "right"
    },
    {
      "midi": 76,
      "time": 1.833,
      "duration": 0.167,
      "velocity": 0.63,
      "hand": "right"
    },
    {
      "midi": 74,
      "time": 2,
      "duration": 0.167,
      "velocity": 0.63,
      "hand": "right"
    },
    {
      "midi": 76,
      "time": 2.167,
      "duration": 0.167,
      "velocity": 0.63,
      "hand": "right"
    },
    {
      "midi": 79,
      "time": 2.333,
      "duration": 0.167,
      "velocity": 0.63,
      "hand": "right"
    },
    {
      "midi": 81,
      "time": 2.5,
      "duration": 0.167,
      "velocity": 0.63,
      "hand": "right"
    },
    {
      "midi": 79,
      "time": 2.667,
      "duration": 0.167,
      "velocity": 0.63,
      "hand": "right"
    },
    {
      "midi": 76,
      "time": 2.833,
      "duration": 0.167,
      "velocity": 0.63,
      "hand": "right"
    },
    {
      "midi": 74,
      "time": 3,
      "duration": 0.167,
      "velocity": 0.63,
      "hand": "right"
    },
    {
      "midi": 76,
      "time": 3.167,
      "duration": 0.167,
      "velocity": 0.63,
      "hand": "right"
    },
    {
      "midi": 79,
      "time": 3.333,
      "duration": 0.167,
      "velocity": 0.63,
      "hand": "right"
    },
    {
      "midi": 81,
      "time": 3.5,
      "duration": 0.167,
      "velocity": 0.63,
      "hand": "right"
    },
    {
      "midi": 79,
      "time": 3.667,
      "duration": 0.167,
      "velocity": 0.63,
      "hand": "right"
    },
    {
      "midi": 76,
      "time": 3.833,
      "duration": 0.167,
      "velocity": 0.63,
      "hand": "right"
    },
    {
      "midi": 72,
      "time": 4,
      "duration": 0.167,
      "velocity": 0.63,
      "hand": "right"
    },
    {
      "midi": 76,
      "time": 4.167,
      "duration": 0.167,
      "velocity": 0.63,
      "hand": "right"
    },
    {
      "midi": 79,
      "time": 4.333,
      "duration": 0.167,
      "velocity": 0.63,
      "hand": "right"
    },
    {
      "midi": 81,
      "time": 4.5,
      "duration": 0.167,
      "velocity": 0.63,
      "hand": "right"
    },
    {
      "midi": 79,
      "time": 4.667,
      "duration": 0.167,
      "velocity": 0.63,
      "hand": "right"
    },
    {
      "midi": 76,
      "time": 4.833,
      "duration": 0.167,
      "velocity": 0.63,
      "hand": "right"
    },
    {
      "midi": 72,
      "time": 5,
      "duration": 0.167,
      "velocity": 0.63,
      "hand": "right"
    },
    {
      "midi": 76,
      "time": 5.167,
      "duration": 0.167,
      "velocity": 0.63,
      "hand": "right"
    },
    {
      "midi": 79,
      "time": 5.333,
      "duration": 0.167,
      "velocity": 0.63,
      "hand": "right"
    },
    {
      "midi": 81,
      "time": 5.5,
      "duration": 0.167,
      "velocity": 0.63,
      "hand": "right"
    },
    {
      "midi": 79,
      "time": 5.667,
      "duration": 0.167,
      "velocity": 0.63,
      "hand": "right"
    },
    {
      "midi": 76,
      "time": 5.833,
      "duration": 0.167,
      "velocity": 0.63,
      "hand": "right"
    },
    {
      "midi": 72,
      "time": 6,
      "duration": 0.167,
      "velocity": 0.63,
      "hand": "right"
    },
    {
      "midi": 76,
      "time": 6.167,
      "duration": 0.167,
      "velocity": 0.63,
      "hand": "right"
    },
    {
      "midi": 79,
      "time": 6.333,
      "duration": 0.167,
      "velocity": 0.63,
      "hand": "right"
    },
    {
      "midi": 81,
      "time": 6.5,
      "duration": 0.167,
      "velocity": 0.63,
      "hand": "right"
    },
    {
      "midi": 79,
      "time": 6.667,
      "duration": 0.167,
      "velocity": 0.63,
      "hand": "right"
    },
    {
      "midi": 76,
      "time": 6.833,
      "duration": 0.167,
      "velocity": 0.63,
      "hand": "right"
    },
    {
      "midi": 72,
      "time": 7,
      "duration": 0.167,
      "velocity": 0.63,
      "hand": "right"
    },
    {
      "midi": 76,
      "time": 7.167,
      "duration": 0.167,
      "velocity": 0.63,
      "hand": "right"
    },
    {
      "midi": 79,
      "time": 7.333,
      "duration": 0.167,
      "velocity": 0.63,
      "hand": "right"
    },
    {
      "midi": 81,
      "time": 7.5,
      "duration": 0.167,
      "velocity": 0.63,
      "hand": "right"
    },
    {
      "midi": 79,
      "time": 7.667,
      "duration": 0.167,
      "velocity": 0.63,
      "hand": "right"
    },
    {
      "midi": 76,
      "time": 7.833,
      "duration": 0.167,
      "velocity": 0.63,
      "hand": "right"
    },
    {
      "midi": 72,
      "time": 8,
      "duration": 0.167,
      "velocity": 0.63,
      "hand": "right"
    },
    {
      "midi": 74,
      "time": 8.167,
      "duration": 0.167,
      "velocity": 0.63,
      "hand": "right"
    },
    {
      "midi": 77,
      "time": 8.333,
      "duration": 0.167,
      "velocity": 0.63,
      "hand": "right"
    },
    {
      "midi": 79,
      "time": 8.5,
      "duration": 0.167,
      "velocity": 0.63,
      "hand": "right"
    },
    {
      "midi": 77,
      "time": 8.667,
      "duration": 0.167,
      "velocity": 0.63,
      "hand": "right"
    },
    {
      "midi": 74,
      "time": 8.833,
      "duration": 0.167,
      "velocity": 0.63,
      "hand": "right"
    },
    {
      "midi": 72,
      "time": 9,
      "duration": 0.167,
      "velocity": 0.63,
      "hand": "right"
    },
    {
      "midi": 74,
      "time": 9.167,
      "duration": 0.167,
      "velocity": 0.63,
      "hand": "right"
    },
    {
      "midi": 77,
      "time": 9.333,
      "duration": 0.167,
      "velocity": 0.63,
      "hand": "right"
    },
    {
      "midi": 79,
      "time": 9.5,
      "duration": 0.167,
      "velocity": 0.63,
      "hand": "right"
    },
    {
      "midi": 77,
      "time": 9.667,
      "duration": 0.167,
      "velocity": 0.63,
      "hand": "right"
    },
    {
      "midi": 74,
      "time": 9.833,
      "duration": 0.167,
      "velocity": 0.63,
      "hand": "right"
    },
    {
      "midi": 72,
      "time": 10,
      "duration": 0.167,
      "velocity": 0.63,
      "hand": "right"
    },
    {
      "midi": 74,
      "time": 10.167,
      "duration": 0.167,
      "velocity": 0.63,
      "hand": "right"
    },
    {
      "midi": 77,
      "time": 10.333,
      "duration": 0.167,
      "velocity": 0.63,
      "hand": "right"
    },
    {
      "midi": 79,
      "time": 10.5,
      "duration": 0.167,
      "velocity": 0.63,
      "hand": "right"
    },
    {
      "midi": 77,
      "time": 10.667,
      "duration": 0.167,
      "velocity": 0.63,
      "hand": "right"
    },
    {
      "midi": 74,
      "time": 10.833,
      "duration": 0.167,
      "velocity": 0.63,
      "hand": "right"
    },
    {
      "midi": 72,
      "time": 11,
      "duration": 0.167,
      "velocity": 0.63,
      "hand": "right"
    },
    {
      "midi": 74,
      "time": 11.167,
      "duration": 0.167,
      "velocity": 0.63,
      "hand": "right"
    },
    {
      "midi": 77,
      "time": 11.333,
      "duration": 0.167,
      "velocity": 0.63,
      "hand": "right"
    },
    {
      "midi": 79,
      "time": 11.5,
      "duration": 0.167,
      "velocity": 0.63,
      "hand": "right"
    },
    {
      "midi": 77,
      "time": 11.667,
      "duration": 0.167,
      "velocity": 0.63,
      "hand": "right"
    },
    {
      "midi": 74,
      "time": 11.833,
      "duration": 0.167,
      "velocity": 0.63,
      "hand": "right"
    },
    {
      "midi": 71,
      "time": 12,
      "duration": 0.167,
      "velocity": 0.63,
      "hand": "right"
    },
    {
      "midi": 72,
      "time": 12.167,
      "duration": 0.167,
      "velocity": 0.63,
      "hand": "right"
    },
    {
      "midi": 74,
      "time": 12.333,
      "duration": 0.167,
      "velocity": 0.63,
      "hand": "right"
    },
    {
      "midi": 76,
      "time": 12.5,
      "duration": 0.167,
      "velocity": 0.63,
      "hand": "right"
    },
    {
      "midi": 74,
      "time": 12.667,
      "duration": 0.167,
      "velocity": 0.63,
      "hand": "right"
    },
    {
      "midi": 72,
      "time": 12.833,
      "duration": 0.167,
      "velocity": 0.63,
      "hand": "right"
    },
    {
      "midi": 71,
      "time": 13,
      "duration": 0.167,
      "velocity": 0.63,
      "hand": "right"
    },
    {
      "midi": 72,
      "time": 13.167,
      "duration": 0.167,
      "velocity": 0.63,
      "hand": "right"
    },
    {
      "midi": 74,
      "time": 13.333,
      "duration": 0.167,
      "velocity": 0.63,
      "hand": "right"
    },
    {
      "midi": 76,
      "time": 13.5,
      "duration": 0.167,
      "velocity": 0.63,
      "hand": "right"
    },
    {
      "midi": 74,
      "time": 13.667,
      "duration": 0.167,
      "velocity": 0.63,
      "hand": "right"
    },
    {
      "midi": 72,
      "time": 13.833,
      "duration": 0.167,
      "velocity": 0.63,
      "hand": "right"
    },
    {
      "midi": 71,
      "time": 14,
      "duration": 0.167,
      "velocity": 0.63,
      "hand": "right"
    },
    {
      "midi": 72,
      "time": 14.167,
      "duration": 0.167,
      "velocity": 0.63,
      "hand": "right"
    },
    {
      "midi": 74,
      "time": 14.333,
      "duration": 0.167,
      "velocity": 0.63,
      "hand": "right"
    },
    {
      "midi": 76,
      "time": 14.5,
      "duration": 0.167,
      "velocity": 0.63,
      "hand": "right"
    },
    {
      "midi": 74,
      "time": 14.667,
      "duration": 0.167,
      "velocity": 0.63,
      "hand": "right"
    },
    {
      "midi": 72,
      "time": 14.833,
      "duration": 0.167,
      "velocity": 0.63,
      "hand": "right"
    },
    {
      "midi": 71,
      "time": 15,
      "duration": 0.917,
      "velocity": 0.63,
      "hand": "right"
    },
    {
      "midi": 67,
      "time": 15.333,
      "duration": 0.667,
      "velocity": 0.63,
      "hand": "right"
    },
    {
      "midi": 69,
      "time": 16,
      "duration": 4,
      "velocity": 0.63,
      "hand": "right"
    },
    {
      "midi": 64,
      "time": 16.167,
      "duration": 0.167,
      "velocity": 0.63,
      "hand": "right"
    },
    {
      "midi": 64,
      "time": 16.333,
      "duration": 0.167,
      "velocity": 0.63,
      "hand": "right"
    },
    {
      "midi": 64,
      "time": 16.5,
      "duration": 0.167,
      "velocity": 0.63,
      "hand": "right"
    },
    {
      "midi": 64,
      "time": 16.667,
      "duration": 0.167,
      "velocity": 0.63,
      "hand": "right"
    },
    {
      "midi": 62,
      "time": 16.833,
      "duration": 0.167,
      "velocity": 0.63,
      "hand": "right"
    },
    {
      "midi": 53,
      "time": 17,
      "duration": 0.333,
      "velocity": 0.63,
      "hand": "right"
    },
    {
      "midi": 60,
      "time": 17.333,
      "duration": 0.667,
      "velocity": 0.63,
      "hand": "right"
    },
    {
      "midi": 64,
      "time": 18,
      "duration": 0.167,
      "velocity": 0.63,
      "hand": "right"
    },
    {
      "midi": 64,
      "time": 18.167,
      "duration": 0.167,
      "velocity": 0.63,
      "hand": "right"
    },
    {
      "midi": 64,
      "time": 18.333,
      "duration": 0.167,
      "velocity": 0.63,
      "hand": "right"
    },
    {
      "midi": 64,
      "time": 18.5,
      "duration": 0.167,
      "velocity": 0.63,
      "hand": "right"
    },
    {
      "midi": 64,
      "time": 18.667,
      "duration": 0.333,
      "velocity": 0.63,
      "hand": "right"
    },
    {
      "midi": 64,
      "time": 19,
      "duration": 0.167,
      "velocity": 0.63,
      "hand": "right"
    },
    {
      "midi": 64,
      "time": 19.167,
      "duration": 0.167,
      "velocity": 0.63,
      "hand": "right"
    },
    {
      "midi": 64,
      "time": 19.333,
      "duration": 0.167,
      "velocity": 0.63,
      "hand": "right"
    },
    {
      "midi": 64,
      "time": 19.5,
      "duration": 0.167,
      "velocity": 0.63,
      "hand": "right"
    },
    {
      "midi": 64,
      "time": 19.667,
      "duration": 0.333,
      "velocity": 0.63,
      "hand": "right"
    },
    {
      "midi": 67,
      "time": 20,
      "duration": 3,
      "velocity": 0.63,
      "hand": "right"
    },
    {
      "midi": 64,
      "time": 20.167,
      "duration": 0.167,
      "velocity": 0.63,
      "hand": "right"
    },
    {
      "midi": 64,
      "time": 20.333,
      "duration": 0.167,
      "velocity": 0.63,
      "hand": "right"
    },
    {
      "midi": 64,
      "time": 20.5,
      "duration": 0.167,
      "velocity": 0.63,
      "hand": "right"
    },
    {
      "midi": 64,
      "time": 20.667,
      "duration": 0.167,
      "velocity": 0.63,
      "hand": "right"
    },
    {
      "midi": 62,
      "time": 20.833,
      "duration": 0.167,
      "velocity": 0.63,
      "hand": "right"
    },
    {
      "midi": 52,
      "time": 21,
      "duration": 0.333,
      "velocity": 0.63,
      "hand": "right"
    },
    {
      "midi": 59,
      "time": 21.333,
      "duration": 0.667,
      "velocity": 0.63,
      "hand": "right"
    },
    {
      "midi": 64,
      "time": 22,
      "duration": 0.167,
      "velocity": 0.63,
      "hand": "right"
    },
    {
      "midi": 64,
      "time": 22.167,
      "duration": 0.167,
      "velocity": 0.63,
      "hand": "right"
    },
    {
      "midi": 64,
      "time": 22.333,
      "duration": 0.333,
      "velocity": 0.63,
      "hand": "right"
    },
    {
      "midi": 64,
      "time": 22.667,
      "duration": 0.333,
      "velocity": 0.63,
      "hand": "right"
    },
    {
      "midi": 67,
      "time": 23,
      "duration": 1,
      "velocity": 0.63,
      "hand": "right"
    },
    {
      "midi": 64,
      "time": 23.167,
      "duration": 0.167,
      "velocity": 0.63,
      "hand": "right"
    },
    {
      "midi": 64,
      "time": 23.333,
      "duration": 0.167,
      "velocity": 0.63,
      "hand": "right"
    },
    {
      "midi": 64,
      "time": 23.5,
      "duration": 0.167,
      "velocity": 0.63,
      "hand": "right"
    },
    {
      "midi": 64,
      "time": 23.667,
      "duration": 0.333,
      "velocity": 0.63,
      "hand": "right"
    },
    {
      "midi": 69,
      "time": 24,
      "duration": 4,
      "velocity": 0.63,
      "hand": "right"
    },
    {
      "midi": 60,
      "time": 24.167,
      "duration": 0.167,
      "velocity": 0.63,
      "hand": "right"
    },
    {
      "midi": 64,
      "time": 24.333,
      "duration": 0.167,
      "velocity": 0.63,
      "hand": "right"
    },
    {
      "midi": 62,
      "time": 24.5,
      "duration": 0.167,
      "velocity": 0.63,
      "hand": "right"
    },
    {
      "midi": 64,
      "time": 24.667,
      "duration": 0.167,
      "velocity": 0.63,
      "hand": "right"
    },
    {
      "midi": 62,
      "time": 24.833,
      "duration": 0.167,
      "velocity": 0.63,
      "hand": "right"
    },
    {
      "midi": 57,
      "time": 25,
      "duration": 0.917,
      "velocity": 0.63,
      "hand": "right"
    },
    {
      "midi": 64,
      "time": 26,
      "duration": 0.167,
      "velocity": 0.63,
      "hand": "right"
    },
    {
      "midi": 62,
      "time": 26.167,
      "duration": 0.167,
      "velocity": 0.63,
      "hand": "right"
    },
    {
      "midi": 64,
      "time": 26.333,
      "duration": 0.167,
      "velocity": 0.63,
      "hand": "right"
    },
    {
      "midi": 62,
      "time": 26.5,
      "duration": 0.167,
      "velocity": 0.63,
      "hand": "right"
    },
    {
      "midi": 64,
      "time": 26.667,
      "duration": 0.167,
      "velocity": 0.63,
      "hand": "right"
    },
    {
      "midi": 62,
      "time": 26.833,
      "duration": 0.167,
      "velocity": 0.63,
      "hand": "right"
    },
    {
      "midi": 50,
      "time": 27,
      "duration": 0.333,
      "velocity": 0.63,
      "hand": "right"
    },
    {
      "midi": 53,
      "time": 27.333,
      "duration": 0.333,
      "velocity": 0.63,
      "hand": "right"
    },
    {
      "midi": 57,
      "time": 27.667,
      "duration": 0.333,
      "velocity": 0.63,
      "hand": "right"
    },
    {
      "midi": 60,
      "time": 27.833,
      "duration": 0.167,
      "velocity": 0.63,
      "hand": "right"
    },
    {
      "midi": 71,
      "time": 28,
      "duration": 4,
      "velocity": 0.63,
      "hand": "right"
    },
    {
      "midi": 64,
      "time": 28.167,
      "duration": 0.167,
      "velocity": 0.63,
      "hand": "right"
    },
    {
      "midi": 64,
      "time": 28.333,
      "duration": 0.167,
      "velocity": 0.63,
      "hand": "right"
    },
    {
      "midi": 64,
      "time": 28.5,
      "duration": 0.167,
      "velocity": 0.63,
      "hand": "right"
    },
    {
      "midi": 64,
      "time": 28.667,
      "duration": 0.333,
      "velocity": 0.63,
      "hand": "right"
    },
    {
      "midi": 64,
      "time": 29,
      "duration": 0.167,
      "velocity": 0.63,
      "hand": "right"
    },
    {
      "midi": 64,
      "time": 29.167,
      "duration": 0.167,
      "velocity": 0.63,
      "hand": "right"
    },
    {
      "midi": 64,
      "time": 29.333,
      "duration": 0.167,
      "velocity": 0.63,
      "hand": "right"
    },
    {
      "midi": 64,
      "time": 29.5,
      "duration": 0.167,
      "velocity": 0.63,
      "hand": "right"
    },
    {
      "midi": 64,
      "time": 29.667,
      "duration": 0.333,
      "velocity": 0.63,
      "hand": "right"
    },
    {
      "midi": 64,
      "time": 30,
      "duration": 0.167,
      "velocity": 0.63,
      "hand": "right"
    },
    {
      "midi": 64,
      "time": 30.167,
      "duration": 0.167,
      "velocity": 0.63,
      "hand": "right"
    },
    {
      "midi": 64,
      "time": 30.333,
      "duration": 0.333,
      "velocity": 0.63,
      "hand": "right"
    },
    {
      "midi": 62,
      "time": 30.667,
      "duration": 0.167,
      "velocity": 0.63,
      "hand": "right"
    },
    {
      "midi": 60,
      "time": 30.833,
      "duration": 0.5,
      "velocity": 0.63,
      "hand": "right"
    },
    {
      "midi": 64,
      "time": 31.333,
      "duration": 0.333,
      "velocity": 0.63,
      "hand": "right"
    },
    {
      "midi": 67,
      "time": 31.667,
      "duration": 0.333,
      "velocity": 0.63,
      "hand": "right"
    },
    {
      "midi": 69,
      "time": 32,
      "duration": 0.917,
      "velocity": 0.63,
      "hand": "right"
    },
    {
      "midi": 48,
      "time": 33,
      "duration": 0.917,
      "velocity": 0.63,
      "hand": "right"
    },
    {
      "midi": 69,
      "time": 33.333,
      "duration": 0.333,
      "velocity": 0.63,
      "hand": "right"
    },
    {
      "midi": 71,
      "time": 33.667,
      "duration": 0.167,
      "velocity": 0.63,
      "hand": "right"
    },
    {
      "midi": 72,
      "time": 33.833,
      "duration": 1.083,
      "velocity": 0.63,
      "hand": "right"
    },
    {
      "midi": 41,
      "time": 34,
      "duration": 0.917,
      "velocity": 0.63,
      "hand": "right"
    },
    {
      "midi": 48,
      "time": 35,
      "duration": 0.917,
      "velocity": 0.63,
      "hand": "right"
    },
    {
      "midi": 69,
      "time": 35.333,
      "duration": 0.333,
      "velocity": 0.63,
      "hand": "right"
    },
    {
      "midi": 72,
      "time": 35.667,
      "duration": 0.333,
      "velocity": 0.63,
      "hand": "right"
    },
    {
      "midi": 71,
      "time": 36,
      "duration": 0.333,
      "velocity": 0.63,
      "hand": "right"
    },
    {
      "midi": 69,
      "time": 36.333,
      "duration": 0.333,
      "velocity": 0.63,
      "hand": "right"
    },
    {
      "midi": 67,
      "time": 36.667,
      "duration": 0.333,
      "velocity": 0.63,
      "hand": "right"
    },
    {
      "midi": 67,
      "time": 37,
      "duration": 0.667,
      "velocity": 0.63,
      "hand": "right"
    },
    {
      "midi": 64,
      "time": 37.667,
      "duration": 0.333,
      "velocity": 0.63,
      "hand": "right"
    },
    {
      "midi": 71,
      "time": 38,
      "duration": 0.333,
      "velocity": 0.63,
      "hand": "right"
    },
    {
      "midi": 69,
      "time": 38.333,
      "duration": 0.333,
      "velocity": 0.63,
      "hand": "right"
    },
    {
      "midi": 67,
      "time": 38.667,
      "duration": 0.333,
      "velocity": 0.63,
      "hand": "right"
    },
    {
      "midi": 71,
      "time": 39,
      "duration": 0.333,
      "velocity": 0.63,
      "hand": "right"
    },
    {
      "midi": 69,
      "time": 39.333,
      "duration": 0.333,
      "velocity": 0.63,
      "hand": "right"
    },
    {
      "midi": 67,
      "time": 39.667,
      "duration": 0.333,
      "velocity": 0.63,
      "hand": "right"
    },
    {
      "midi": 69,
      "time": 40,
      "duration": 4,
      "velocity": 0.63,
      "hand": "right"
    },
    {
      "midi": 65,
      "time": 40.167,
      "duration": 1.75,
      "velocity": 0.63,
      "hand": "right"
    },
    {
      "midi": 45,
      "time": 41,
      "duration": 0.917,
      "velocity": 0.63,
      "hand": "right"
    },
    {
      "midi": 38,
      "time": 42,
      "duration": 0.917,
      "velocity": 0.63,
      "hand": "right"
    },
    {
      "midi": 60,
      "time": 42.667,
      "duration": 0.333,
      "velocity": 0.63,
      "hand": "right"
    },
    {
      "midi": 67,
      "time": 43,
      "duration": 0.333,
      "velocity": 0.63,
      "hand": "right"
    },
    {
      "midi": 65,
      "time": 43.333,
      "duration": 0.333,
      "velocity": 0.63,
      "hand": "right"
    },
    {
      "midi": 64,
      "time": 43.667,
      "duration": 0.333,
      "velocity": 0.63,
      "hand": "right"
    },
    {
      "midi": 71,
      "time": 44,
      "duration": 4,
      "velocity": 0.63,
      "hand": "right"
    },
    {
      "midi": 40,
      "time": 44.333,
      "duration": 0.333,
      "velocity": 0.63,
      "hand": "right"
    },
    {
      "midi": 40,
      "time": 44.667,
      "duration": 0.333,
      "velocity": 0.63,
      "hand": "right"
    },
    {
      "midi": 69,
      "time": 45,
      "duration": 0.917,
      "velocity": 0.63,
      "hand": "right"
    },
    {
      "midi": 40,
      "time": 45.333,
      "duration": 0.333,
      "velocity": 0.63,
      "hand": "right"
    },
    {
      "midi": 40,
      "time": 45.667,
      "duration": 0.333,
      "velocity": 0.63,
      "hand": "right"
    },
    {
      "midi": 72,
      "time": 46,
      "duration": 0.917,
      "velocity": 0.63,
      "hand": "right"
    },
    {
      "midi": 40,
      "time": 46.333,
      "duration": 0.333,
      "velocity": 0.63,
      "hand": "right"
    },
    {
      "midi": 40,
      "time": 46.667,
      "duration": 0.333,
      "velocity": 0.63,
      "hand": "right"
    },
    {
      "midi": 74,
      "time": 47,
      "duration": 0.333,
      "velocity": 0.63,
      "hand": "right"
    },
    {
      "midi": 76,
      "time": 48,
      "duration": 3.833,
      "velocity": 0.63,
      "hand": "right"
    },
    {
      "midi": 48,
      "time": 49,
      "duration": 0.917,
      "velocity": 0.63,
      "hand": "right"
    },
    {
      "midi": 57,
      "time": 50,
      "duration": 0.917,
      "velocity": 0.63,
      "hand": "right"
    },
    {
      "midi": 60,
      "time": 51,
      "duration": 0.917,
      "velocity": 0.63,
      "hand": "right"
    },
    {
      "midi": 69,
      "time": 52,
      "duration": 0.917,
      "velocity": 0.63,
      "hand": "right"
    },
    {
      "midi": 71,
      "time": 53,
      "duration": 0.917,
      "velocity": 0.63,
      "hand": "right"
    },
    {
      "midi": 79,
      "time": 54,
      "duration": 0.917,
      "velocity": 0.63,
      "hand": "right"
    },
    {
      "midi": 77,
      "time": 55,
      "duration": 0.917,
      "velocity": 0.63,
      "hand": "right"
    },
    {
      "midi": 76,
      "time": 56,
      "duration": 2.333,
      "velocity": 0.63,
      "hand": "right"
    },
    {
      "midi": 43,
      "time": 57,
      "duration": 0.917,
      "velocity": 0.63,
      "hand": "right"
    },
    {
      "midi": 55,
      "time": 58,
      "duration": 0.917,
      "velocity": 0.63,
      "hand": "right"
    },
    {
      "midi": 74,
      "time": 58.333,
      "duration": 0.667,
      "velocity": 0.63,
      "hand": "right"
    },
    {
      "midi": 59,
      "time": 59,
      "duration": 0.917,
      "velocity": 0.63,
      "hand": "right"
    },
    {
      "midi": 69,
      "time": 59.333,
      "duration": 0.333,
      "velocity": 0.63,
      "hand": "right"
    },
    {
      "midi": 72,
      "time": 59.667,
      "duration": 0.333,
      "velocity": 0.63,
      "hand": "right"
    },
    {
      "midi": 71,
      "time": 60,
      "duration": 0.917,
      "velocity": 0.63,
      "hand": "right"
    },
    {
      "midi": 71,
      "time": 61,
      "duration": 0.917,
      "velocity": 0.63,
      "hand": "right"
    },
    {
      "midi": 72,
      "time": 62,
      "duration": 0.917,
      "velocity": 0.63,
      "hand": "right"
    },
    {
      "midi": 74,
      "time": 63,
      "duration": 0.917,
      "velocity": 0.63,
      "hand": "right"
    },
    {
      "midi": 76,
      "time": 64,
      "duration": 3.833,
      "velocity": 0.63,
      "hand": "right"
    },
    {
      "midi": 48,
      "time": 65,
      "duration": 0.917,
      "velocity": 0.63,
      "hand": "right"
    },
    {
      "midi": 57,
      "time": 66,
      "duration": 0.917,
      "velocity": 0.63,
      "hand": "right"
    },
    {
      "midi": 60,
      "time": 67,
      "duration": 0.917,
      "velocity": 0.63,
      "hand": "right"
    },
    {
      "midi": 69,
      "time": 68,
      "duration": 0.917,
      "velocity": 0.63,
      "hand": "right"
    },
    {
      "midi": 71,
      "time": 69,
      "duration": 0.917,
      "velocity": 0.63,
      "hand": "right"
    },
    {
      "midi": 79,
      "time": 70,
      "duration": 0.917,
      "velocity": 0.63,
      "hand": "right"
    },
    {
      "midi": 77,
      "time": 71,
      "duration": 0.917,
      "velocity": 0.63,
      "hand": "right"
    },
    {
      "midi": 76,
      "time": 72,
      "duration": 2.833,
      "velocity": 0.63,
      "hand": "right"
    },
    {
      "midi": 43,
      "time": 73,
      "duration": 0.917,
      "velocity": 0.63,
      "hand": "right"
    },
    {
      "midi": 55,
      "time": 74,
      "duration": 0.917,
      "velocity": 0.63,
      "hand": "right"
    },
    {
      "midi": 59,
      "time": 75,
      "duration": 0.917,
      "velocity": 0.63,
      "hand": "right"
    },
    {
      "midi": 69,
      "time": 75.333,
      "duration": 0.333,
      "velocity": 0.63,
      "hand": "right"
    },
    {
      "midi": 72,
      "time": 75.667,
      "duration": 0.333,
      "velocity": 0.63,
      "hand": "right"
    },
    {
      "midi": 71,
      "time": 76,
      "duration": 2,
      "velocity": 0.63,
      "hand": "right"
    },
    {
      "midi": 43,
      "time": 77,
      "duration": 0.917,
      "velocity": 0.63,
      "hand": "right"
    },
    {
      "midi": 70,
      "time": 78,
      "duration": 0.917,
      "velocity": 0.63,
      "hand": "right"
    },
    {
      "midi": 70,
      "time": 79,
      "duration": 0.917,
      "velocity": 0.63,
      "hand": "right"
    },
    {
      "midi": 69,
      "time": 80,
      "duration": 4,
      "velocity": 0.63,
      "hand": "right"
    },
    {
      "midi": 64,
      "time": 80.167,
      "duration": 0.167,
      "velocity": 0.63,
      "hand": "right"
    },
    {
      "midi": 64,
      "time": 80.333,
      "duration": 0.167,
      "velocity": 0.63,
      "hand": "right"
    },
    {
      "midi": 64,
      "time": 80.5,
      "duration": 0.167,
      "velocity": 0.63,
      "hand": "right"
    },
    {
      "midi": 64,
      "time": 80.667,
      "duration": 0.167,
      "velocity": 0.63,
      "hand": "right"
    },
    {
      "midi": 62,
      "time": 80.833,
      "duration": 0.167,
      "velocity": 0.63,
      "hand": "right"
    },
    {
      "midi": 41,
      "time": 81,
      "duration": 0.917,
      "velocity": 0.63,
      "hand": "right"
    },
    {
      "midi": 64,
      "time": 82,
      "duration": 0.167,
      "velocity": 0.63,
      "hand": "right"
    },
    {
      "midi": 64,
      "time": 82.167,
      "duration": 0.167,
      "velocity": 0.63,
      "hand": "right"
    },
    {
      "midi": 64,
      "time": 82.333,
      "duration": 0.167,
      "velocity": 0.63,
      "hand": "right"
    },
    {
      "midi": 64,
      "time": 82.5,
      "duration": 0.167,
      "velocity": 0.63,
      "hand": "right"
    },
    {
      "midi": 64,
      "time": 82.667,
      "duration": 0.333,
      "velocity": 0.63,
      "hand": "right"
    },
    {
      "midi": 64,
      "time": 83,
      "duration": 0.167,
      "velocity": 0.63,
      "hand": "right"
    },
    {
      "midi": 64,
      "time": 83.167,
      "duration": 0.167,
      "velocity": 0.63,
      "hand": "right"
    },
    {
      "midi": 64,
      "time": 83.333,
      "duration": 0.167,
      "velocity": 0.63,
      "hand": "right"
    },
    {
      "midi": 64,
      "time": 83.5,
      "duration": 0.167,
      "velocity": 0.63,
      "hand": "right"
    },
    {
      "midi": 64,
      "time": 83.667,
      "duration": 0.333,
      "velocity": 0.63,
      "hand": "right"
    },
    {
      "midi": 67,
      "time": 84,
      "duration": 3,
      "velocity": 0.63,
      "hand": "right"
    },
    {
      "midi": 64,
      "time": 84.167,
      "duration": 0.167,
      "velocity": 0.63,
      "hand": "right"
    },
    {
      "midi": 64,
      "time": 84.333,
      "duration": 0.167,
      "velocity": 0.63,
      "hand": "right"
    },
    {
      "midi": 64,
      "time": 84.5,
      "duration": 0.167,
      "velocity": 0.63,
      "hand": "right"
    },
    {
      "midi": 64,
      "time": 84.667,
      "duration": 0.167,
      "velocity": 0.63,
      "hand": "right"
    },
    {
      "midi": 62,
      "time": 84.833,
      "duration": 0.167,
      "velocity": 0.63,
      "hand": "right"
    },
    {
      "midi": 40,
      "time": 85,
      "duration": 0.917,
      "velocity": 0.63,
      "hand": "right"
    },
    {
      "midi": 64,
      "time": 86,
      "duration": 0.167,
      "velocity": 0.63,
      "hand": "right"
    },
    {
      "midi": 64,
      "time": 86.167,
      "duration": 0.167,
      "velocity": 0.63,
      "hand": "right"
    },
    {
      "midi": 64,
      "time": 86.333,
      "duration": 0.167,
      "velocity": 0.63,
      "hand": "right"
    },
    {
      "midi": 64,
      "time": 86.5,
      "duration": 0.167,
      "velocity": 0.63,
      "hand": "right"
    },
    {
      "midi": 64,
      "time": 86.667,
      "duration": 0.333,
      "velocity": 0.63,
      "hand": "right"
    },
    {
      "midi": 67,
      "time": 87,
      "duration": 1,
      "velocity": 0.63,
      "hand": "right"
    },
    {
      "midi": 64,
      "time": 87.167,
      "duration": 0.167,
      "velocity": 0.63,
      "hand": "right"
    },
    {
      "midi": 64,
      "time": 87.333,
      "duration": 0.167,
      "velocity": 0.63,
      "hand": "right"
    },
    {
      "midi": 64,
      "time": 87.5,
      "duration": 0.167,
      "velocity": 0.63,
      "hand": "right"
    },
    {
      "midi": 64,
      "time": 87.667,
      "duration": 0.333,
      "velocity": 0.63,
      "hand": "right"
    },
    {
      "midi": 69,
      "time": 88,
      "duration": 4,
      "velocity": 0.63,
      "hand": "right"
    },
    {
      "midi": 62,
      "time": 88.167,
      "duration": 0.167,
      "velocity": 0.63,
      "hand": "right"
    },
    {
      "midi": 64,
      "time": 88.333,
      "duration": 0.167,
      "velocity": 0.63,
      "hand": "right"
    },
    {
      "midi": 62,
      "time": 88.5,
      "duration": 0.167,
      "velocity": 0.63,
      "hand": "right"
    },
    {
      "midi": 64,
      "time": 88.667,
      "duration": 0.167,
      "velocity": 0.63,
      "hand": "right"
    },
    {
      "midi": 62,
      "time": 88.833,
      "duration": 0.167,
      "velocity": 0.63,
      "hand": "right"
    },
    {
      "midi": 38,
      "time": 89,
      "duration": 0.917,
      "velocity": 0.63,
      "hand": "right"
    },
    {
      "midi": 64,
      "time": 90,
      "duration": 0.167,
      "velocity": 0.63,
      "hand": "right"
    },
    {
      "midi": 62,
      "time": 90.167,
      "duration": 0.167,
      "velocity": 0.63,
      "hand": "right"
    },
    {
      "midi": 64,
      "time": 90.333,
      "duration": 0.167,
      "velocity": 0.63,
      "hand": "right"
    },
    {
      "midi": 62,
      "time": 90.5,
      "duration": 0.167,
      "velocity": 0.63,
      "hand": "right"
    },
    {
      "midi": 64,
      "time": 90.667,
      "duration": 0.167,
      "velocity": 0.63,
      "hand": "right"
    },
    {
      "midi": 62,
      "time": 90.833,
      "duration": 0.167,
      "velocity": 0.63,
      "hand": "right"
    },
    {
      "midi": 38,
      "time": 91,
      "duration": 0.917,
      "velocity": 0.63,
      "hand": "right"
    },
    {
      "midi": 71,
      "time": 92,
      "duration": 4,
      "velocity": 0.63,
      "hand": "right"
    },
    {
      "midi": 64,
      "time": 92.167,
      "duration": 0.167,
      "velocity": 0.63,
      "hand": "right"
    },
    {
      "midi": 64,
      "time": 92.333,
      "duration": 0.167,
      "velocity": 0.63,
      "hand": "right"
    },
    {
      "midi": 64,
      "time": 92.5,
      "duration": 0.111,
      "velocity": 0.63,
      "hand": "right"
    },
    {
      "midi": 62,
      "time": 92.667,
      "duration": 0.167,
      "velocity": 0.63,
      "hand": "right"
    },
    {
      "midi": 62,
      "time": 92.833,
      "duration": 0.167,
      "velocity": 0.63,
      "hand": "right"
    },
    {
      "midi": 64,
      "time": 93,
      "duration": 0.167,
      "velocity": 0.63,
      "hand": "right"
    },
    {
      "midi": 64,
      "time": 93.167,
      "duration": 0.167,
      "velocity": 0.63,
      "hand": "right"
    },
    {
      "midi": 64,
      "time": 93.333,
      "duration": 0.167,
      "velocity": 0.63,
      "hand": "right"
    },
    {
      "midi": 64,
      "time": 93.5,
      "duration": 0.111,
      "velocity": 0.63,
      "hand": "right"
    },
    {
      "midi": 62,
      "time": 93.667,
      "duration": 0.167,
      "velocity": 0.63,
      "hand": "right"
    },
    {
      "midi": 62,
      "time": 93.833,
      "duration": 0.167,
      "velocity": 0.63,
      "hand": "right"
    },
    {
      "midi": 64,
      "time": 94,
      "duration": 0.167,
      "velocity": 0.63,
      "hand": "right"
    },
    {
      "midi": 64,
      "time": 94.167,
      "duration": 0.167,
      "velocity": 0.63,
      "hand": "right"
    },
    {
      "midi": 64,
      "time": 94.333,
      "duration": 0.333,
      "velocity": 0.63,
      "hand": "right"
    },
    {
      "midi": 62,
      "time": 94.667,
      "duration": 0.167,
      "velocity": 0.63,
      "hand": "right"
    },
    {
      "midi": 60,
      "time": 94.833,
      "duration": 0.5,
      "velocity": 0.63,
      "hand": "right"
    },
    {
      "midi": 36,
      "time": 95,
      "duration": 0.917,
      "velocity": 0.63,
      "hand": "right"
    },
    {
      "midi": 64,
      "time": 95.333,
      "duration": 0.333,
      "velocity": 0.63,
      "hand": "right"
    },
    {
      "midi": 67,
      "time": 95.667,
      "duration": 0.333,
      "velocity": 0.63,
      "hand": "right"
    },
    {
      "midi": 69,
      "time": 96,
      "duration": 0.917,
      "velocity": 0.63,
      "hand": "right"
    },
    {
      "midi": 48,
      "time": 97,
      "duration": 0.917,
      "velocity": 0.63,
      "hand": "right"
    },
    {
      "midi": 69,
      "time": 97.333,
      "duration": 0.333,
      "velocity": 0.63,
      "hand": "right"
    },
    {
      "midi": 71,
      "time": 97.667,
      "duration": 0.167,
      "velocity": 0.63,
      "hand": "right"
    },
    {
      "midi": 72,
      "time": 97.833,
      "duration": 1.083,
      "velocity": 0.63,
      "hand": "right"
    },
    {
      "midi": 41,
      "time": 98,
      "duration": 0.917,
      "velocity": 0.63,
      "hand": "right"
    },
    {
      "midi": 48,
      "time": 99,
      "duration": 0.917,
      "velocity": 0.63,
      "hand": "right"
    },
    {
      "midi": 69,
      "time": 99.333,
      "duration": 0.333,
      "velocity": 0.63,
      "hand": "right"
    },
    {
      "midi": 72,
      "time": 99.667,
      "duration": 0.333,
      "velocity": 0.63,
      "hand": "right"
    },
    {
      "midi": 71,
      "time": 100,
      "duration": 0.333,
      "velocity": 0.63,
      "hand": "right"
    },
    {
      "midi": 69,
      "time": 100.333,
      "duration": 0.333,
      "velocity": 0.63,
      "hand": "right"
    },
    {
      "midi": 67,
      "time": 100.667,
      "duration": 0.333,
      "velocity": 0.63,
      "hand": "right"
    },
    {
      "midi": 67,
      "time": 101,
      "duration": 0.667,
      "velocity": 0.63,
      "hand": "right"
    },
    {
      "midi": 64,
      "time": 101.667,
      "duration": 0.333,
      "velocity": 0.63,
      "hand": "right"
    },
    {
      "midi": 71,
      "time": 102,
      "duration": 0.333,
      "velocity": 0.63,
      "hand": "right"
    },
    {
      "midi": 69,
      "time": 102.333,
      "duration": 0.333,
      "velocity": 0.63,
      "hand": "right"
    },
    {
      "midi": 67,
      "time": 102.667,
      "duration": 0.333,
      "velocity": 0.63,
      "hand": "right"
    },
    {
      "midi": 71,
      "time": 103,
      "duration": 0.333,
      "velocity": 0.63,
      "hand": "right"
    },
    {
      "midi": 69,
      "time": 103.333,
      "duration": 0.333,
      "velocity": 0.63,
      "hand": "right"
    },
    {
      "midi": 67,
      "time": 103.667,
      "duration": 0.333,
      "velocity": 0.63,
      "hand": "right"
    },
    {
      "midi": 69,
      "time": 104,
      "duration": 4,
      "velocity": 0.63,
      "hand": "right"
    },
    {
      "midi": 65,
      "time": 104.167,
      "duration": 1.75,
      "velocity": 0.63,
      "hand": "right"
    },
    {
      "midi": 45,
      "time": 105,
      "duration": 0.917,
      "velocity": 0.63,
      "hand": "right"
    },
    {
      "midi": 38,
      "time": 106,
      "duration": 0.917,
      "velocity": 0.63,
      "hand": "right"
    },
    {
      "midi": 60,
      "time": 106.667,
      "duration": 0.333,
      "velocity": 0.63,
      "hand": "right"
    },
    {
      "midi": 67,
      "time": 107,
      "duration": 0.333,
      "velocity": 0.63,
      "hand": "right"
    },
    {
      "midi": 65,
      "time": 107.333,
      "duration": 0.333,
      "velocity": 0.63,
      "hand": "right"
    },
    {
      "midi": 64,
      "time": 107.667,
      "duration": 0.167,
      "velocity": 0.63,
      "hand": "right"
    },
    {
      "midi": 64,
      "time": 107.833,
      "duration": 1.083,
      "velocity": 0.63,
      "hand": "right"
    },
    {
      "midi": 71,
      "time": 108,
      "duration": 4,
      "velocity": 0.63,
      "hand": "right"
    },
    {
      "midi": 43,
      "time": 109,
      "duration": 0.917,
      "velocity": 0.63,
      "hand": "right"
    },
    {
      "midi": 64,
      "time": 110,
      "duration": 0.167,
      "velocity": 0.63,
      "hand": "right"
    },
    {
      "midi": 64,
      "time": 110.167,
      "duration": 0.167,
      "velocity": 0.63,
      "hand": "right"
    },
    {
      "midi": 64,
      "time": 110.333,
      "duration": 0.333,
      "velocity": 0.63,
      "hand": "right"
    },
    {
      "midi": 62,
      "time": 110.667,
      "duration": 0.167,
      "velocity": 0.63,
      "hand": "right"
    },
    {
      "midi": 60,
      "time": 110.833,
      "duration": 0.5,
      "velocity": 0.63,
      "hand": "right"
    },
    {
      "midi": 43,
      "time": 111,
      "duration": 0.917,
      "velocity": 0.63,
      "hand": "right"
    },
    {
      "midi": 64,
      "time": 111.333,
      "duration": 0.333,
      "velocity": 0.63,
      "hand": "right"
    },
    {
      "midi": 67,
      "time": 111.667,
      "duration": 0.333,
      "velocity": 0.63,
      "hand": "right"
    },
    {
      "midi": 69,
      "time": 112,
      "duration": 0.917,
      "velocity": 0.63,
      "hand": "right"
    },
    {
      "midi": 48,
      "time": 113,
      "duration": 0.917,
      "velocity": 0.63,
      "hand": "right"
    },
    {
      "midi": 69,
      "time": 113.333,
      "duration": 0.333,
      "velocity": 0.63,
      "hand": "right"
    },
    {
      "midi": 71,
      "time": 113.667,
      "duration": 0.167,
      "velocity": 0.63,
      "hand": "right"
    },
    {
      "midi": 72,
      "time": 113.833,
      "duration": 1.083,
      "velocity": 0.63,
      "hand": "right"
    },
    {
      "midi": 41,
      "time": 114,
      "duration": 0.917,
      "velocity": 0.63,
      "hand": "right"
    },
    {
      "midi": 48,
      "time": 115,
      "duration": 0.917,
      "velocity": 0.63,
      "hand": "right"
    },
    {
      "midi": 69,
      "time": 115.333,
      "duration": 0.333,
      "velocity": 0.63,
      "hand": "right"
    },
    {
      "midi": 72,
      "time": 115.667,
      "duration": 0.333,
      "velocity": 0.63,
      "hand": "right"
    },
    {
      "midi": 71,
      "time": 116,
      "duration": 0.333,
      "velocity": 0.63,
      "hand": "right"
    },
    {
      "midi": 69,
      "time": 116.333,
      "duration": 0.333,
      "velocity": 0.63,
      "hand": "right"
    },
    {
      "midi": 67,
      "time": 116.667,
      "duration": 0.333,
      "velocity": 0.63,
      "hand": "right"
    },
    {
      "midi": 67,
      "time": 117,
      "duration": 0.667,
      "velocity": 0.63,
      "hand": "right"
    },
    {
      "midi": 64,
      "time": 117.667,
      "duration": 0.333,
      "velocity": 0.63,
      "hand": "right"
    },
    {
      "midi": 71,
      "time": 118,
      "duration": 0.333,
      "velocity": 0.63,
      "hand": "right"
    },
    {
      "midi": 69,
      "time": 118.333,
      "duration": 0.333,
      "velocity": 0.63,
      "hand": "right"
    },
    {
      "midi": 67,
      "time": 118.667,
      "duration": 0.333,
      "velocity": 0.63,
      "hand": "right"
    },
    {
      "midi": 71,
      "time": 119,
      "duration": 0.333,
      "velocity": 0.63,
      "hand": "right"
    },
    {
      "midi": 69,
      "time": 119.333,
      "duration": 0.333,
      "velocity": 0.63,
      "hand": "right"
    },
    {
      "midi": 67,
      "time": 119.667,
      "duration": 0.333,
      "velocity": 0.63,
      "hand": "right"
    },
    {
      "midi": 69,
      "time": 120,
      "duration": 4,
      "velocity": 0.63,
      "hand": "right"
    },
    {
      "midi": 65,
      "time": 120.167,
      "duration": 1.75,
      "velocity": 0.63,
      "hand": "right"
    },
    {
      "midi": 45,
      "time": 121,
      "duration": 0.917,
      "velocity": 0.63,
      "hand": "right"
    },
    {
      "midi": 38,
      "time": 122,
      "duration": 0.917,
      "velocity": 0.63,
      "hand": "right"
    },
    {
      "midi": 60,
      "time": 122.667,
      "duration": 0.333,
      "velocity": 0.63,
      "hand": "right"
    },
    {
      "midi": 67,
      "time": 123,
      "duration": 0.333,
      "velocity": 0.63,
      "hand": "right"
    },
    {
      "midi": 65,
      "time": 123.333,
      "duration": 0.333,
      "velocity": 0.63,
      "hand": "right"
    },
    {
      "midi": 64,
      "time": 123.667,
      "duration": 0.333,
      "velocity": 0.63,
      "hand": "right"
    },
    {
      "midi": 71,
      "time": 124,
      "duration": 4,
      "velocity": 0.63,
      "hand": "right"
    },
    {
      "midi": 40,
      "time": 124.333,
      "duration": 0.333,
      "velocity": 0.63,
      "hand": "right"
    },
    {
      "midi": 40,
      "time": 124.667,
      "duration": 0.333,
      "velocity": 0.63,
      "hand": "right"
    },
    {
      "midi": 69,
      "time": 125,
      "duration": 0.917,
      "velocity": 0.63,
      "hand": "right"
    },
    {
      "midi": 40,
      "time": 125.333,
      "duration": 0.333,
      "velocity": 0.63,
      "hand": "right"
    },
    {
      "midi": 40,
      "time": 125.667,
      "duration": 0.333,
      "velocity": 0.63,
      "hand": "right"
    },
    {
      "midi": 72,
      "time": 126,
      "duration": 0.917,
      "velocity": 0.63,
      "hand": "right"
    },
    {
      "midi": 40,
      "time": 126.333,
      "duration": 0.333,
      "velocity": 0.63,
      "hand": "right"
    },
    {
      "midi": 40,
      "time": 126.667,
      "duration": 0.333,
      "velocity": 0.63,
      "hand": "right"
    },
    {
      "midi": 74,
      "time": 127,
      "duration": 0.333,
      "velocity": 0.63,
      "hand": "right"
    },
    {
      "midi": 76,
      "time": 128,
      "duration": 3.833,
      "velocity": 0.63,
      "hand": "right"
    },
    {
      "midi": 48,
      "time": 129,
      "duration": 0.917,
      "velocity": 0.63,
      "hand": "right"
    },
    {
      "midi": 57,
      "time": 130,
      "duration": 0.917,
      "velocity": 0.63,
      "hand": "right"
    },
    {
      "midi": 60,
      "time": 131,
      "duration": 0.917,
      "velocity": 0.63,
      "hand": "right"
    },
    {
      "midi": 69,
      "time": 132,
      "duration": 0.917,
      "velocity": 0.63,
      "hand": "right"
    },
    {
      "midi": 71,
      "time": 133,
      "duration": 0.917,
      "velocity": 0.63,
      "hand": "right"
    },
    {
      "midi": 79,
      "time": 134,
      "duration": 0.917,
      "velocity": 0.63,
      "hand": "right"
    },
    {
      "midi": 77,
      "time": 135,
      "duration": 0.917,
      "velocity": 0.63,
      "hand": "right"
    },
    {
      "midi": 76,
      "time": 136,
      "duration": 2.333,
      "velocity": 0.63,
      "hand": "right"
    },
    {
      "midi": 43,
      "time": 137,
      "duration": 0.917,
      "velocity": 0.63,
      "hand": "right"
    },
    {
      "midi": 55,
      "time": 138,
      "duration": 0.917,
      "velocity": 0.63,
      "hand": "right"
    },
    {
      "midi": 74,
      "time": 138.333,
      "duration": 0.667,
      "velocity": 0.63,
      "hand": "right"
    },
    {
      "midi": 59,
      "time": 139,
      "duration": 0.917,
      "velocity": 0.63,
      "hand": "right"
    },
    {
      "midi": 69,
      "time": 139.333,
      "duration": 0.333,
      "velocity": 0.63,
      "hand": "right"
    },
    {
      "midi": 72,
      "time": 139.667,
      "duration": 0.333,
      "velocity": 0.63,
      "hand": "right"
    },
    {
      "midi": 71,
      "time": 140,
      "duration": 0.917,
      "velocity": 0.63,
      "hand": "right"
    },
    {
      "midi": 71,
      "time": 141,
      "duration": 0.917,
      "velocity": 0.63,
      "hand": "right"
    },
    {
      "midi": 72,
      "time": 142,
      "duration": 0.917,
      "velocity": 0.63,
      "hand": "right"
    },
    {
      "midi": 74,
      "time": 143,
      "duration": 0.917,
      "velocity": 0.63,
      "hand": "right"
    },
    {
      "midi": 76,
      "time": 144,
      "duration": 3.833,
      "velocity": 0.63,
      "hand": "right"
    },
    {
      "midi": 48,
      "time": 145,
      "duration": 0.917,
      "velocity": 0.63,
      "hand": "right"
    },
    {
      "midi": 57,
      "time": 146,
      "duration": 0.917,
      "velocity": 0.63,
      "hand": "right"
    },
    {
      "midi": 60,
      "time": 147,
      "duration": 0.917,
      "velocity": 0.63,
      "hand": "right"
    },
    {
      "midi": 69,
      "time": 148,
      "duration": 0.917,
      "velocity": 0.63,
      "hand": "right"
    },
    {
      "midi": 71,
      "time": 149,
      "duration": 0.917,
      "velocity": 0.63,
      "hand": "right"
    },
    {
      "midi": 79,
      "time": 150,
      "duration": 0.917,
      "velocity": 0.63,
      "hand": "right"
    },
    {
      "midi": 77,
      "time": 151,
      "duration": 0.917,
      "velocity": 0.63,
      "hand": "right"
    },
    {
      "midi": 76,
      "time": 152,
      "duration": 2.833,
      "velocity": 0.63,
      "hand": "right"
    },
    {
      "midi": 43,
      "time": 153,
      "duration": 0.917,
      "velocity": 0.63,
      "hand": "right"
    },
    {
      "midi": 55,
      "time": 154,
      "duration": 0.917,
      "velocity": 0.63,
      "hand": "right"
    },
    {
      "midi": 59,
      "time": 155,
      "duration": 0.917,
      "velocity": 0.63,
      "hand": "right"
    },
    {
      "midi": 69,
      "time": 155.333,
      "duration": 0.333,
      "velocity": 0.63,
      "hand": "right"
    },
    {
      "midi": 72,
      "time": 155.667,
      "duration": 0.333,
      "velocity": 0.63,
      "hand": "right"
    },
    {
      "midi": 71,
      "time": 156,
      "duration": 2,
      "velocity": 0.63,
      "hand": "right"
    },
    {
      "midi": 43,
      "time": 157,
      "duration": 0.917,
      "velocity": 0.63,
      "hand": "right"
    },
    {
      "midi": 70,
      "time": 158,
      "duration": 0.917,
      "velocity": 0.63,
      "hand": "right"
    },
    {
      "midi": 70,
      "time": 159,
      "duration": 0.917,
      "velocity": 0.63,
      "hand": "right"
    },
    {
      "midi": 76,
      "time": 160,
      "duration": 3.833,
      "velocity": 0.63,
      "hand": "right"
    },
    {
      "midi": 55,
      "time": 160.667,
      "duration": 0.333,
      "velocity": 0.63,
      "hand": "right"
    },
    {
      "midi": 53,
      "time": 161,
      "duration": 0.667,
      "velocity": 0.63,
      "hand": "right"
    },
    {
      "midi": 55,
      "time": 161.667,
      "duration": 0.333,
      "velocity": 0.63,
      "hand": "right"
    },
    {
      "midi": 53,
      "time": 162,
      "duration": 0.667,
      "velocity": 0.63,
      "hand": "right"
    },
    {
      "midi": 55,
      "time": 162.667,
      "duration": 0.333,
      "velocity": 0.63,
      "hand": "right"
    },
    {
      "midi": 53,
      "time": 163,
      "duration": 0.667,
      "velocity": 0.63,
      "hand": "right"
    },
    {
      "midi": 55,
      "time": 163.667,
      "duration": 0.333,
      "velocity": 0.63,
      "hand": "right"
    },
    {
      "midi": 69,
      "time": 164,
      "duration": 0.917,
      "velocity": 0.63,
      "hand": "right"
    },
    {
      "midi": 71,
      "time": 165,
      "duration": 0.917,
      "velocity": 0.63,
      "hand": "right"
    },
    {
      "midi": 79,
      "time": 166,
      "duration": 0.917,
      "velocity": 0.63,
      "hand": "right"
    },
    {
      "midi": 77,
      "time": 167,
      "duration": 0.917,
      "velocity": 0.63,
      "hand": "right"
    },
    {
      "midi": 76,
      "time": 168,
      "duration": 2.833,
      "velocity": 0.63,
      "hand": "right"
    },
    {
      "midi": 48,
      "time": 169,
      "duration": 0.917,
      "velocity": 0.63,
      "hand": "right"
    },
    {
      "midi": 48,
      "time": 170,
      "duration": 0.917,
      "velocity": 0.63,
      "hand": "right"
    },
    {
      "midi": 71,
      "time": 171,
      "duration": 0.167,
      "velocity": 0.63,
      "hand": "right"
    },
    {
      "midi": 72,
      "time": 171.167,
      "duration": 0.167,
      "velocity": 0.63,
      "hand": "right"
    },
    {
      "midi": 74,
      "time": 171.333,
      "duration": 0.167,
      "velocity": 0.63,
      "hand": "right"
    },
    {
      "midi": 76,
      "time": 171.5,
      "duration": 0.167,
      "velocity": 0.63,
      "hand": "right"
    },
    {
      "midi": 74,
      "time": 171.667,
      "duration": 0.167,
      "velocity": 0.63,
      "hand": "right"
    },
    {
      "midi": 72,
      "time": 171.833,
      "duration": 0.167,
      "velocity": 0.63,
      "hand": "right"
    },
    {
      "midi": 71,
      "time": 172,
      "duration": 0.167,
      "velocity": 0.63,
      "hand": "right"
    },
    {
      "midi": 72,
      "time": 172.167,
      "duration": 0.167,
      "velocity": 0.63,
      "hand": "right"
    },
    {
      "midi": 74,
      "time": 172.333,
      "duration": 0.167,
      "velocity": 0.63,
      "hand": "right"
    },
    {
      "midi": 76,
      "time": 172.5,
      "duration": 0.167,
      "velocity": 0.63,
      "hand": "right"
    },
    {
      "midi": 74,
      "time": 172.667,
      "duration": 0.167,
      "velocity": 0.63,
      "hand": "right"
    },
    {
      "midi": 72,
      "time": 172.833,
      "duration": 0.167,
      "velocity": 0.63,
      "hand": "right"
    },
    {
      "midi": 71,
      "time": 173,
      "duration": 0.917,
      "velocity": 0.63,
      "hand": "right"
    },
    {
      "midi": 72,
      "time": 174,
      "duration": 0.917,
      "velocity": 0.63,
      "hand": "right"
    },
    {
      "midi": 74,
      "time": 175,
      "duration": 0.917,
      "velocity": 0.63,
      "hand": "right"
    },
    {
      "midi": 76,
      "time": 176,
      "duration": 2.833,
      "velocity": 0.63,
      "hand": "right"
    },
    {
      "midi": 48,
      "time": 177,
      "duration": 0.917,
      "velocity": 0.63,
      "hand": "right"
    },
    {
      "midi": 57,
      "time": 178,
      "duration": 0.917,
      "velocity": 0.63,
      "hand": "right"
    },
    {
      "midi": 74,
      "time": 179,
      "duration": 0.167,
      "velocity": 0.63,
      "hand": "right"
    },
    {
      "midi": 76,
      "time": 179.167,
      "duration": 0.167,
      "velocity": 0.63,
      "hand": "right"
    },
    {
      "midi": 79,
      "time": 179.333,
      "duration": 0.167,
      "velocity": 0.63,
      "hand": "right"
    },
    {
      "midi": 81,
      "time": 179.5,
      "duration": 0.167,
      "velocity": 0.63,
      "hand": "right"
    },
    {
      "midi": 79,
      "time": 179.667,
      "duration": 0.167,
      "velocity": 0.63,
      "hand": "right"
    },
    {
      "midi": 76,
      "time": 179.833,
      "duration": 0.167,
      "velocity": 0.63,
      "hand": "right"
    },
    {
      "midi": 69,
      "time": 180,
      "duration": 0.917,
      "velocity": 0.63,
      "hand": "right"
    },
    {
      "midi": 71,
      "time": 181,
      "duration": 0.917,
      "velocity": 0.63,
      "hand": "right"
    },
    {
      "midi": 79,
      "time": 182,
      "duration": 0.917,
      "velocity": 0.63,
      "hand": "right"
    },
    {
      "midi": 77,
      "time": 183,
      "duration": 0.917,
      "velocity": 0.63,
      "hand": "right"
    },
    {
      "midi": 76,
      "time": 184,
      "duration": 0.917,
      "velocity": 0.63,
      "hand": "right"
    },
    {
      "midi": 71,
      "time": 185,
      "duration": 0.167,
      "velocity": 0.63,
      "hand": "right"
    },
    {
      "midi": 72,
      "time": 185.167,
      "duration": 0.167,
      "velocity": 0.63,
      "hand": "right"
    },
    {
      "midi": 74,
      "time": 185.333,
      "duration": 0.167,
      "velocity": 0.63,
      "hand": "right"
    },
    {
      "midi": 76,
      "time": 185.5,
      "duration": 0.167,
      "velocity": 0.63,
      "hand": "right"
    },
    {
      "midi": 74,
      "time": 185.667,
      "duration": 0.167,
      "velocity": 0.63,
      "hand": "right"
    },
    {
      "midi": 72,
      "time": 185.833,
      "duration": 0.167,
      "velocity": 0.63,
      "hand": "right"
    },
    {
      "midi": 71,
      "time": 186,
      "duration": 0.167,
      "velocity": 0.63,
      "hand": "right"
    },
    {
      "midi": 72,
      "time": 186.167,
      "duration": 0.167,
      "velocity": 0.63,
      "hand": "right"
    },
    {
      "midi": 74,
      "time": 186.333,
      "duration": 0.167,
      "velocity": 0.63,
      "hand": "right"
    },
    {
      "midi": 76,
      "time": 186.5,
      "duration": 0.167,
      "velocity": 0.63,
      "hand": "right"
    },
    {
      "midi": 74,
      "time": 186.667,
      "duration": 0.167,
      "velocity": 0.63,
      "hand": "right"
    },
    {
      "midi": 72,
      "time": 186.833,
      "duration": 0.167,
      "velocity": 0.63,
      "hand": "right"
    },
    {
      "midi": 71,
      "time": 187,
      "duration": 0.167,
      "velocity": 0.63,
      "hand": "right"
    },
    {
      "midi": 72,
      "time": 187.167,
      "duration": 0.167,
      "velocity": 0.63,
      "hand": "right"
    },
    {
      "midi": 74,
      "time": 187.333,
      "duration": 0.167,
      "velocity": 0.63,
      "hand": "right"
    },
    {
      "midi": 76,
      "time": 187.5,
      "duration": 0.167,
      "velocity": 0.63,
      "hand": "right"
    },
    {
      "midi": 74,
      "time": 187.667,
      "duration": 0.167,
      "velocity": 0.63,
      "hand": "right"
    },
    {
      "midi": 72,
      "time": 187.833,
      "duration": 0.167,
      "velocity": 0.63,
      "hand": "right"
    },
    {
      "midi": 71,
      "time": 188,
      "duration": 0.167,
      "velocity": 0.63,
      "hand": "right"
    },
    {
      "midi": 72,
      "time": 188.167,
      "duration": 0.167,
      "velocity": 0.63,
      "hand": "right"
    },
    {
      "midi": 74,
      "time": 188.333,
      "duration": 0.167,
      "velocity": 0.63,
      "hand": "right"
    },
    {
      "midi": 76,
      "time": 188.5,
      "duration": 0.167,
      "velocity": 0.63,
      "hand": "right"
    },
    {
      "midi": 74,
      "time": 188.667,
      "duration": 0.167,
      "velocity": 0.63,
      "hand": "right"
    },
    {
      "midi": 72,
      "time": 188.833,
      "duration": 0.167,
      "velocity": 0.63,
      "hand": "right"
    },
    {
      "midi": 71,
      "time": 189,
      "duration": 0.167,
      "velocity": 0.63,
      "hand": "right"
    },
    {
      "midi": 72,
      "time": 189.167,
      "duration": 0.167,
      "velocity": 0.63,
      "hand": "right"
    },
    {
      "midi": 74,
      "time": 189.333,
      "duration": 0.167,
      "velocity": 0.63,
      "hand": "right"
    },
    {
      "midi": 76,
      "time": 189.5,
      "duration": 0.167,
      "velocity": 0.63,
      "hand": "right"
    },
    {
      "midi": 74,
      "time": 189.667,
      "duration": 0.167,
      "velocity": 0.63,
      "hand": "right"
    },
    {
      "midi": 72,
      "time": 189.833,
      "duration": 0.167,
      "velocity": 0.63,
      "hand": "right"
    },
    {
      "midi": 70,
      "time": 190,
      "duration": 0.167,
      "velocity": 0.63,
      "hand": "right"
    },
    {
      "midi": 72,
      "time": 190.167,
      "duration": 0.167,
      "velocity": 0.63,
      "hand": "right"
    },
    {
      "midi": 74,
      "time": 190.333,
      "duration": 0.167,
      "velocity": 0.63,
      "hand": "right"
    },
    {
      "midi": 76,
      "time": 190.5,
      "duration": 0.167,
      "velocity": 0.63,
      "hand": "right"
    },
    {
      "midi": 74,
      "time": 190.667,
      "duration": 0.167,
      "velocity": 0.63,
      "hand": "right"
    },
    {
      "midi": 72,
      "time": 190.833,
      "duration": 0.167,
      "velocity": 0.63,
      "hand": "right"
    },
    {
      "midi": 70,
      "time": 191,
      "duration": 0.917,
      "velocity": 0.63,
      "hand": "right"
    },
    {
      "midi": 76,
      "time": 192,
      "duration": 0.917,
      "velocity": 0.63,
      "hand": "right"
    },
    {
      "midi": 72,
      "time": 193,
      "duration": 0.917,
      "velocity": 0.63,
      "hand": "right"
    },
    {
      "midi": 69,
      "time": 194,
      "duration": 1.917,
      "velocity": 0.63,
      "hand": "right"
    },
    {
      "midi": 76,
      "time": 196,
      "duration": 0.917,
      "velocity": 0.63,
      "hand": "right"
    },
    {
      "midi": 71,
      "time": 197,
      "duration": 0.917,
      "velocity": 0.63,
      "hand": "right"
    },
    {
      "midi": 67,
      "time": 198,
      "duration": 1.917,
      "velocity": 0.63,
      "hand": "right"
    },
    {
      "midi": 74,
      "time": 200,
      "duration": 0.917,
      "velocity": 0.63,
      "hand": "right"
    },
    {
      "midi": 70,
      "time": 201,
      "duration": 0.917,
      "velocity": 0.63,
      "hand": "right"
    },
    {
      "midi": 69,
      "time": 202,
      "duration": 0.917,
      "velocity": 0.63,
      "hand": "right"
    },
    {
      "midi": 65,
      "time": 203,
      "duration": 0.917,
      "velocity": 0.63,
      "hand": "right"
    },
    {
      "midi": 74,
      "time": 204,
      "duration": 0.917,
      "velocity": 0.63,
      "hand": "right"
    },
    {
      "midi": 70,
      "time": 205,
      "duration": 0.917,
      "velocity": 0.63,
      "hand": "right"
    },
    {
      "midi": 69,
      "time": 206,
      "duration": 1.917,
      "velocity": 0.63,
      "hand": "right"
    },
    {
      "midi": 72,
      "time": 208,
      "duration": 0.917,
      "velocity": 0.63,
      "hand": "right"
    },
    {
      "midi": 67,
      "time": 209,
      "duration": 0.917,
      "velocity": 0.63,
      "hand": "right"
    },
    {
      "midi": 72,
      "time": 210,
      "duration": 0.917,
      "velocity": 0.63,
      "hand": "right"
    },
    {
      "midi": 75,
      "time": 211,
      "duration": 0.917,
      "velocity": 0.63,
      "hand": "right"
    },
    {
      "midi": 74,
      "time": 212,
      "duration": 1.417,
      "velocity": 0.39,
      "hand": "right"
    },
    {
      "midi": 66,
      "time": 213.5,
      "duration": 0.75,
      "velocity": 0.39,
      "hand": "right"
    },
    {
      "midi": 69,
      "time": 214.25,
      "duration": 0.75,
      "velocity": 0.39,
      "hand": "right"
    },
    {
      "midi": 72,
      "time": 215,
      "duration": 1.417,
      "velocity": 0.39,
      "hand": "right"
    },
    {
      "midi": 74,
      "time": 216.5,
      "duration": 0.333,
      "velocity": 0.39,
      "hand": "right"
    },
    {
      "midi": 69,
      "time": 216.833,
      "duration": 0.333,
      "velocity": 0.39,
      "hand": "right"
    },
    {
      "midi": 78,
      "time": 217.25,
      "duration": 0.75,
      "velocity": 0.39,
      "hand": "right"
    },
    {
      "midi": 81,
      "time": 218,
      "duration": 1.417,
      "velocity": 0.39,
      "hand": "right"
    }
  ],
  "notes2Hands": [
    {
      "midi": 41,
      "time": 0,
      "duration": 4,
      "velocity": 0.63,
      "hand": "left"
    },
    {
      "midi": 60,
      "time": 0,
      "duration": 4,
      "velocity": 0.63,
      "hand": "right"
    },
    {
      "midi": 64,
      "time": 0,
      "duration": 4,
      "velocity": 0.63,
      "hand": "right"
    },
    {
      "midi": 65,
      "time": 0,
      "duration": 4,
      "velocity": 0.63,
      "hand": "right"
    },
    {
      "midi": 65,
      "time": 0,
      "duration": 0.333,
      "velocity": 0.63,
      "hand": "right"
    },
    {
      "midi": 69,
      "time": 0,
      "duration": 4,
      "velocity": 0.63,
      "hand": "right"
    },
    {
      "midi": 74,
      "time": 0,
      "duration": 0.167,
      "velocity": 0.63,
      "hand": "right"
    },
    {
      "midi": 76,
      "time": 0.167,
      "duration": 0.167,
      "velocity": 0.63,
      "hand": "right"
    },
    {
      "midi": 72,
      "time": 0.333,
      "duration": 1.583,
      "velocity": 0.63,
      "hand": "right"
    },
    {
      "midi": 79,
      "time": 0.333,
      "duration": 0.167,
      "velocity": 0.63,
      "hand": "right"
    },
    {
      "midi": 81,
      "time": 0.5,
      "duration": 0.167,
      "velocity": 0.63,
      "hand": "right"
    },
    {
      "midi": 79,
      "time": 0.667,
      "duration": 0.167,
      "velocity": 0.63,
      "hand": "right"
    },
    {
      "midi": 76,
      "time": 0.833,
      "duration": 0.167,
      "velocity": 0.63,
      "hand": "right"
    },
    {
      "midi": 74,
      "time": 1,
      "duration": 0.167,
      "velocity": 0.63,
      "hand": "right"
    },
    {
      "midi": 76,
      "time": 1.167,
      "duration": 0.167,
      "velocity": 0.63,
      "hand": "right"
    },
    {
      "midi": 79,
      "time": 1.333,
      "duration": 0.167,
      "velocity": 0.63,
      "hand": "right"
    },
    {
      "midi": 81,
      "time": 1.5,
      "duration": 0.167,
      "velocity": 0.63,
      "hand": "right"
    },
    {
      "midi": 79,
      "time": 1.667,
      "duration": 0.167,
      "velocity": 0.63,
      "hand": "right"
    },
    {
      "midi": 76,
      "time": 1.833,
      "duration": 0.167,
      "velocity": 0.63,
      "hand": "right"
    },
    {
      "midi": 65,
      "time": 2,
      "duration": 0.333,
      "velocity": 0.63,
      "hand": "right"
    },
    {
      "midi": 74,
      "time": 2,
      "duration": 0.167,
      "velocity": 0.63,
      "hand": "right"
    },
    {
      "midi": 76,
      "time": 2.167,
      "duration": 0.167,
      "velocity": 0.63,
      "hand": "right"
    },
    {
      "midi": 72,
      "time": 2.333,
      "duration": 0.667,
      "velocity": 0.63,
      "hand": "right"
    },
    {
      "midi": 79,
      "time": 2.333,
      "duration": 0.167,
      "velocity": 0.63,
      "hand": "right"
    },
    {
      "midi": 81,
      "time": 2.5,
      "duration": 0.167,
      "velocity": 0.63,
      "hand": "right"
    },
    {
      "midi": 79,
      "time": 2.667,
      "duration": 0.167,
      "velocity": 0.63,
      "hand": "right"
    },
    {
      "midi": 76,
      "time": 2.833,
      "duration": 0.167,
      "velocity": 0.63,
      "hand": "right"
    },
    {
      "midi": 65,
      "time": 3,
      "duration": 0.333,
      "velocity": 0.63,
      "hand": "right"
    },
    {
      "midi": 74,
      "time": 3,
      "duration": 0.167,
      "velocity": 0.63,
      "hand": "right"
    },
    {
      "midi": 76,
      "time": 3.167,
      "duration": 0.167,
      "velocity": 0.63,
      "hand": "right"
    },
    {
      "midi": 72,
      "time": 3.333,
      "duration": 0.667,
      "velocity": 0.63,
      "hand": "right"
    },
    {
      "midi": 79,
      "time": 3.333,
      "duration": 0.167,
      "velocity": 0.63,
      "hand": "right"
    },
    {
      "midi": 81,
      "time": 3.5,
      "duration": 0.167,
      "velocity": 0.63,
      "hand": "right"
    },
    {
      "midi": 79,
      "time": 3.667,
      "duration": 0.167,
      "velocity": 0.63,
      "hand": "right"
    },
    {
      "midi": 76,
      "time": 3.833,
      "duration": 0.167,
      "velocity": 0.63,
      "hand": "right"
    },
    {
      "midi": 40,
      "time": 4,
      "duration": 3,
      "velocity": 0.63,
      "hand": "left"
    },
    {
      "midi": 60,
      "time": 4,
      "duration": 3,
      "velocity": 0.63,
      "hand": "right"
    },
    {
      "midi": 64,
      "time": 4,
      "duration": 3,
      "velocity": 0.63,
      "hand": "right"
    },
    {
      "midi": 64,
      "time": 4,
      "duration": 0.333,
      "velocity": 0.63,
      "hand": "right"
    },
    {
      "midi": 67,
      "time": 4,
      "duration": 3,
      "velocity": 0.63,
      "hand": "right"
    },
    {
      "midi": 69,
      "time": 4,
      "duration": 3,
      "velocity": 0.63,
      "hand": "right"
    },
    {
      "midi": 72,
      "time": 4,
      "duration": 0.167,
      "velocity": 0.63,
      "hand": "right"
    },
    {
      "midi": 76,
      "time": 4.167,
      "duration": 0.167,
      "velocity": 0.63,
      "hand": "right"
    },
    {
      "midi": 71,
      "time": 4.333,
      "duration": 1.583,
      "velocity": 0.63,
      "hand": "right"
    },
    {
      "midi": 79,
      "time": 4.333,
      "duration": 0.167,
      "velocity": 0.63,
      "hand": "right"
    },
    {
      "midi": 81,
      "time": 4.5,
      "duration": 0.167,
      "velocity": 0.63,
      "hand": "right"
    },
    {
      "midi": 79,
      "time": 4.667,
      "duration": 0.167,
      "velocity": 0.63,
      "hand": "right"
    },
    {
      "midi": 76,
      "time": 4.833,
      "duration": 0.167,
      "velocity": 0.63,
      "hand": "right"
    },
    {
      "midi": 72,
      "time": 5,
      "duration": 0.167,
      "velocity": 0.63,
      "hand": "right"
    },
    {
      "midi": 76,
      "time": 5.167,
      "duration": 0.167,
      "velocity": 0.63,
      "hand": "right"
    },
    {
      "midi": 79,
      "time": 5.333,
      "duration": 0.167,
      "velocity": 0.63,
      "hand": "right"
    },
    {
      "midi": 81,
      "time": 5.5,
      "duration": 0.167,
      "velocity": 0.63,
      "hand": "right"
    },
    {
      "midi": 79,
      "time": 5.667,
      "duration": 0.167,
      "velocity": 0.63,
      "hand": "right"
    },
    {
      "midi": 76,
      "time": 5.833,
      "duration": 0.167,
      "velocity": 0.63,
      "hand": "right"
    },
    {
      "midi": 64,
      "time": 6,
      "duration": 0.333,
      "velocity": 0.63,
      "hand": "right"
    },
    {
      "midi": 72,
      "time": 6,
      "duration": 0.167,
      "velocity": 0.63,
      "hand": "right"
    },
    {
      "midi": 76,
      "time": 6.167,
      "duration": 0.167,
      "velocity": 0.63,
      "hand": "right"
    },
    {
      "midi": 71,
      "time": 6.333,
      "duration": 0.667,
      "velocity": 0.63,
      "hand": "right"
    },
    {
      "midi": 79,
      "time": 6.333,
      "duration": 0.167,
      "velocity": 0.63,
      "hand": "right"
    },
    {
      "midi": 81,
      "time": 6.5,
      "duration": 0.167,
      "velocity": 0.63,
      "hand": "right"
    },
    {
      "midi": 79,
      "time": 6.667,
      "duration": 0.167,
      "velocity": 0.63,
      "hand": "right"
    },
    {
      "midi": 76,
      "time": 6.833,
      "duration": 0.167,
      "velocity": 0.63,
      "hand": "right"
    },
    {
      "midi": 39,
      "time": 7,
      "duration": 1,
      "velocity": 0.63,
      "hand": "left"
    },
    {
      "midi": 60,
      "time": 7,
      "duration": 1,
      "velocity": 0.63,
      "hand": "right"
    },
    {
      "midi": 63,
      "time": 7,
      "duration": 0.917,
      "velocity": 0.63,
      "hand": "right"
    },
    {
      "midi": 64,
      "time": 7,
      "duration": 1,
      "velocity": 0.63,
      "hand": "right"
    },
    {
      "midi": 67,
      "time": 7,
      "duration": 1,
      "velocity": 0.63,
      "hand": "right"
    },
    {
      "midi": 69,
      "time": 7,
      "duration": 1,
      "velocity": 0.63,
      "hand": "right"
    },
    {
      "midi": 72,
      "time": 7,
      "duration": 0.167,
      "velocity": 0.63,
      "hand": "right"
    },
    {
      "midi": 76,
      "time": 7.167,
      "duration": 0.167,
      "velocity": 0.63,
      "hand": "right"
    },
    {
      "midi": 79,
      "time": 7.333,
      "duration": 0.167,
      "velocity": 0.63,
      "hand": "right"
    },
    {
      "midi": 81,
      "time": 7.5,
      "duration": 0.167,
      "velocity": 0.63,
      "hand": "right"
    },
    {
      "midi": 79,
      "time": 7.667,
      "duration": 0.167,
      "velocity": 0.63,
      "hand": "right"
    },
    {
      "midi": 76,
      "time": 7.833,
      "duration": 0.167,
      "velocity": 0.63,
      "hand": "right"
    },
    {
      "midi": 38,
      "time": 8,
      "duration": 4,
      "velocity": 0.63,
      "hand": "left"
    },
    {
      "midi": 60,
      "time": 8,
      "duration": 4,
      "velocity": 0.63,
      "hand": "right"
    },
    {
      "midi": 62,
      "time": 8,
      "duration": 4,
      "velocity": 0.63,
      "hand": "right"
    },
    {
      "midi": 62,
      "time": 8,
      "duration": 0.333,
      "velocity": 0.63,
      "hand": "right"
    },
    {
      "midi": 65,
      "time": 8,
      "duration": 4,
      "velocity": 0.63,
      "hand": "right"
    },
    {
      "midi": 69,
      "time": 8,
      "duration": 4,
      "velocity": 0.63,
      "hand": "right"
    },
    {
      "midi": 72,
      "time": 8,
      "duration": 0.167,
      "velocity": 0.63,
      "hand": "right"
    },
    {
      "midi": 74,
      "time": 8.167,
      "duration": 0.167,
      "velocity": 0.63,
      "hand": "right"
    },
    {
      "midi": 69,
      "time": 8.333,
      "duration": 1.583,
      "velocity": 0.63,
      "hand": "right"
    },
    {
      "midi": 77,
      "time": 8.333,
      "duration": 0.167,
      "velocity": 0.63,
      "hand": "right"
    },
    {
      "midi": 79,
      "time": 8.5,
      "duration": 0.167,
      "velocity": 0.63,
      "hand": "right"
    },
    {
      "midi": 77,
      "time": 8.667,
      "duration": 0.167,
      "velocity": 0.63,
      "hand": "right"
    },
    {
      "midi": 74,
      "time": 8.833,
      "duration": 0.167,
      "velocity": 0.63,
      "hand": "right"
    },
    {
      "midi": 72,
      "time": 9,
      "duration": 0.167,
      "velocity": 0.63,
      "hand": "right"
    },
    {
      "midi": 74,
      "time": 9.167,
      "duration": 0.167,
      "velocity": 0.63,
      "hand": "right"
    },
    {
      "midi": 77,
      "time": 9.333,
      "duration": 0.167,
      "velocity": 0.63,
      "hand": "right"
    },
    {
      "midi": 79,
      "time": 9.5,
      "duration": 0.167,
      "velocity": 0.63,
      "hand": "right"
    },
    {
      "midi": 77,
      "time": 9.667,
      "duration": 0.167,
      "velocity": 0.63,
      "hand": "right"
    },
    {
      "midi": 74,
      "time": 9.833,
      "duration": 0.167,
      "velocity": 0.63,
      "hand": "right"
    },
    {
      "midi": 62,
      "time": 10,
      "duration": 0.333,
      "velocity": 0.63,
      "hand": "right"
    },
    {
      "midi": 72,
      "time": 10,
      "duration": 0.167,
      "velocity": 0.63,
      "hand": "right"
    },
    {
      "midi": 74,
      "time": 10.167,
      "duration": 0.167,
      "velocity": 0.63,
      "hand": "right"
    },
    {
      "midi": 69,
      "time": 10.333,
      "duration": 0.667,
      "velocity": 0.63,
      "hand": "right"
    },
    {
      "midi": 77,
      "time": 10.333,
      "duration": 0.167,
      "velocity": 0.63,
      "hand": "right"
    },
    {
      "midi": 79,
      "time": 10.5,
      "duration": 0.167,
      "velocity": 0.63,
      "hand": "right"
    },
    {
      "midi": 77,
      "time": 10.667,
      "duration": 0.167,
      "velocity": 0.63,
      "hand": "right"
    },
    {
      "midi": 74,
      "time": 10.833,
      "duration": 0.167,
      "velocity": 0.63,
      "hand": "right"
    },
    {
      "midi": 62,
      "time": 11,
      "duration": 0.333,
      "velocity": 0.63,
      "hand": "right"
    },
    {
      "midi": 72,
      "time": 11,
      "duration": 0.167,
      "velocity": 0.63,
      "hand": "right"
    },
    {
      "midi": 74,
      "time": 11.167,
      "duration": 0.167,
      "velocity": 0.63,
      "hand": "right"
    },
    {
      "midi": 69,
      "time": 11.333,
      "duration": 0.667,
      "velocity": 0.63,
      "hand": "right"
    },
    {
      "midi": 77,
      "time": 11.333,
      "duration": 0.167,
      "velocity": 0.63,
      "hand": "right"
    },
    {
      "midi": 79,
      "time": 11.5,
      "duration": 0.167,
      "velocity": 0.63,
      "hand": "right"
    },
    {
      "midi": 77,
      "time": 11.667,
      "duration": 0.167,
      "velocity": 0.63,
      "hand": "right"
    },
    {
      "midi": 74,
      "time": 11.833,
      "duration": 0.167,
      "velocity": 0.63,
      "hand": "right"
    },
    {
      "midi": 36,
      "time": 12,
      "duration": 4,
      "velocity": 0.63,
      "hand": "left"
    },
    {
      "midi": 60,
      "time": 12,
      "duration": 4,
      "velocity": 0.63,
      "hand": "right"
    },
    {
      "midi": 60,
      "time": 12,
      "duration": 0.333,
      "velocity": 0.63,
      "hand": "right"
    },
    {
      "midi": 64,
      "time": 12,
      "duration": 4,
      "velocity": 0.63,
      "hand": "right"
    },
    {
      "midi": 67,
      "time": 12,
      "duration": 4,
      "velocity": 0.63,
      "hand": "right"
    },
    {
      "midi": 71,
      "time": 12,
      "duration": 0.167,
      "velocity": 0.63,
      "hand": "right"
    },
    {
      "midi": 71,
      "time": 12,
      "duration": 4,
      "velocity": 0.63,
      "hand": "right"
    },
    {
      "midi": 72,
      "time": 12.167,
      "duration": 0.167,
      "velocity": 0.63,
      "hand": "right"
    },
    {
      "midi": 67,
      "time": 12.333,
      "duration": 1.583,
      "velocity": 0.63,
      "hand": "right"
    },
    {
      "midi": 74,
      "time": 12.333,
      "duration": 0.167,
      "velocity": 0.63,
      "hand": "right"
    },
    {
      "midi": 76,
      "time": 12.5,
      "duration": 0.167,
      "velocity": 0.63,
      "hand": "right"
    },
    {
      "midi": 74,
      "time": 12.667,
      "duration": 0.167,
      "velocity": 0.63,
      "hand": "right"
    },
    {
      "midi": 72,
      "time": 12.833,
      "duration": 0.167,
      "velocity": 0.63,
      "hand": "right"
    },
    {
      "midi": 71,
      "time": 13,
      "duration": 0.167,
      "velocity": 0.63,
      "hand": "right"
    },
    {
      "midi": 72,
      "time": 13.167,
      "duration": 0.167,
      "velocity": 0.63,
      "hand": "right"
    },
    {
      "midi": 74,
      "time": 13.333,
      "duration": 0.167,
      "velocity": 0.63,
      "hand": "right"
    },
    {
      "midi": 76,
      "time": 13.5,
      "duration": 0.167,
      "velocity": 0.63,
      "hand": "right"
    },
    {
      "midi": 74,
      "time": 13.667,
      "duration": 0.167,
      "velocity": 0.63,
      "hand": "right"
    },
    {
      "midi": 72,
      "time": 13.833,
      "duration": 0.167,
      "velocity": 0.63,
      "hand": "right"
    },
    {
      "midi": 60,
      "time": 14,
      "duration": 0.333,
      "velocity": 0.63,
      "hand": "right"
    },
    {
      "midi": 71,
      "time": 14,
      "duration": 0.167,
      "velocity": 0.63,
      "hand": "right"
    },
    {
      "midi": 72,
      "time": 14.167,
      "duration": 0.167,
      "velocity": 0.63,
      "hand": "right"
    },
    {
      "midi": 67,
      "time": 14.333,
      "duration": 0.667,
      "velocity": 0.63,
      "hand": "right"
    },
    {
      "midi": 74,
      "time": 14.333,
      "duration": 0.167,
      "velocity": 0.63,
      "hand": "right"
    },
    {
      "midi": 76,
      "time": 14.5,
      "duration": 0.167,
      "velocity": 0.63,
      "hand": "right"
    },
    {
      "midi": 74,
      "time": 14.667,
      "duration": 0.167,
      "velocity": 0.63,
      "hand": "right"
    },
    {
      "midi": 72,
      "time": 14.833,
      "duration": 0.167,
      "velocity": 0.63,
      "hand": "right"
    },
    {
      "midi": 60,
      "time": 15,
      "duration": 0.333,
      "velocity": 0.63,
      "hand": "right"
    },
    {
      "midi": 71,
      "time": 15,
      "duration": 0.917,
      "velocity": 0.63,
      "hand": "right"
    },
    {
      "midi": 67,
      "time": 15.333,
      "duration": 0.667,
      "velocity": 0.63,
      "hand": "right"
    },
    {
      "midi": 41,
      "time": 16,
      "duration": 4,
      "velocity": 0.63,
      "hand": "left"
    },
    {
      "midi": 53,
      "time": 16,
      "duration": 0.333,
      "velocity": 0.63,
      "hand": "left"
    },
    {
      "midi": 60,
      "time": 16,
      "duration": 4,
      "velocity": 0.63,
      "hand": "right"
    },
    {
      "midi": 64,
      "time": 16,
      "duration": 0.167,
      "velocity": 0.63,
      "hand": "right"
    },
    {
      "midi": 64,
      "time": 16,
      "duration": 4,
      "velocity": 0.63,
      "hand": "right"
    },
    {
      "midi": 65,
      "time": 16,
      "duration": 4,
      "velocity": 0.63,
      "hand": "right"
    },
    {
      "midi": 69,
      "time": 16,
      "duration": 4,
      "velocity": 0.63,
      "hand": "right"
    },
    {
      "midi": 64,
      "time": 16.167,
      "duration": 0.167,
      "velocity": 0.63,
      "hand": "right"
    },
    {
      "midi": 60,
      "time": 16.333,
      "duration": 0.667,
      "velocity": 0.63,
      "hand": "right"
    },
    {
      "midi": 64,
      "time": 16.333,
      "duration": 0.167,
      "velocity": 0.63,
      "hand": "right"
    },
    {
      "midi": 64,
      "time": 16.5,
      "duration": 0.167,
      "velocity": 0.63,
      "hand": "right"
    },
    {
      "midi": 64,
      "time": 16.667,
      "duration": 0.167,
      "velocity": 0.63,
      "hand": "right"
    },
    {
      "midi": 62,
      "time": 16.833,
      "duration": 0.167,
      "velocity": 0.63,
      "hand": "right"
    },
    {
      "midi": 53,
      "time": 17,
      "duration": 0.333,
      "velocity": 0.63,
      "hand": "left"
    },
    {
      "midi": 60,
      "time": 17.333,
      "duration": 0.667,
      "velocity": 0.63,
      "hand": "right"
    },
    {
      "midi": 53,
      "time": 18,
      "duration": 1.917,
      "velocity": 0.63,
      "hand": "left"
    },
    {
      "midi": 60,
      "time": 18,
      "duration": 1.917,
      "velocity": 0.63,
      "hand": "right"
    },
    {
      "midi": 64,
      "time": 18,
      "duration": 0.167,
      "velocity": 0.63,
      "hand": "right"
    },
    {
      "midi": 64,
      "time": 18.167,
      "duration": 0.167,
      "velocity": 0.63,
      "hand": "right"
    },
    {
      "midi": 64,
      "time": 18.333,
      "duration": 0.167,
      "velocity": 0.63,
      "hand": "right"
    },
    {
      "midi": 64,
      "time": 18.5,
      "duration": 0.167,
      "velocity": 0.63,
      "hand": "right"
    },
    {
      "midi": 64,
      "time": 18.667,
      "duration": 0.333,
      "velocity": 0.63,
      "hand": "right"
    },
    {
      "midi": 64,
      "time": 19,
      "duration": 0.167,
      "velocity": 0.63,
      "hand": "right"
    },
    {
      "midi": 64,
      "time": 19.167,
      "duration": 0.167,
      "velocity": 0.63,
      "hand": "right"
    },
    {
      "midi": 64,
      "time": 19.333,
      "duration": 0.167,
      "velocity": 0.63,
      "hand": "right"
    },
    {
      "midi": 64,
      "time": 19.5,
      "duration": 0.167,
      "velocity": 0.63,
      "hand": "right"
    },
    {
      "midi": 64,
      "time": 19.667,
      "duration": 0.333,
      "velocity": 0.63,
      "hand": "right"
    },
    {
      "midi": 40,
      "time": 20,
      "duration": 3,
      "velocity": 0.63,
      "hand": "left"
    },
    {
      "midi": 52,
      "time": 20,
      "duration": 0.333,
      "velocity": 0.63,
      "hand": "left"
    },
    {
      "midi": 60,
      "time": 20,
      "duration": 3,
      "velocity": 0.63,
      "hand": "right"
    },
    {
      "midi": 64,
      "time": 20,
      "duration": 0.167,
      "velocity": 0.63,
      "hand": "right"
    },
    {
      "midi": 64,
      "time": 20,
      "duration": 3,
      "velocity": 0.63,
      "hand": "right"
    },
    {
      "midi": 67,
      "time": 20,
      "duration": 3,
      "velocity": 0.63,
      "hand": "right"
    },
    {
      "midi": 64,
      "time": 20.167,
      "duration": 0.167,
      "velocity": 0.63,
      "hand": "right"
    },
    {
      "midi": 59,
      "time": 20.333,
      "duration": 0.667,
      "velocity": 0.63,
      "hand": "left"
    },
    {
      "midi": 64,
      "time": 20.333,
      "duration": 0.167,
      "velocity": 0.63,
      "hand": "right"
    },
    {
      "midi": 64,
      "time": 20.5,
      "duration": 0.167,
      "velocity": 0.63,
      "hand": "right"
    },
    {
      "midi": 64,
      "time": 20.667,
      "duration": 0.167,
      "velocity": 0.63,
      "hand": "right"
    },
    {
      "midi": 62,
      "time": 20.833,
      "duration": 0.167,
      "velocity": 0.63,
      "hand": "right"
    },
    {
      "midi": 52,
      "time": 21,
      "duration": 0.333,
      "velocity": 0.63,
      "hand": "left"
    },
    {
      "midi": 59,
      "time": 21.333,
      "duration": 0.667,
      "velocity": 0.63,
      "hand": "left"
    },
    {
      "midi": 52,
      "time": 22,
      "duration": 0.917,
      "velocity": 0.63,
      "hand": "left"
    },
    {
      "midi": 55,
      "time": 22,
      "duration": 0.917,
      "velocity": 0.63,
      "hand": "left"
    },
    {
      "midi": 64,
      "time": 22,
      "duration": 0.167,
      "velocity": 0.63,
      "hand": "right"
    },
    {
      "midi": 64,
      "time": 22.167,
      "duration": 0.167,
      "velocity": 0.63,
      "hand": "right"
    },
    {
      "midi": 64,
      "time": 22.333,
      "duration": 0.333,
      "velocity": 0.63,
      "hand": "right"
    },
    {
      "midi": 64,
      "time": 22.667,
      "duration": 0.333,
      "velocity": 0.63,
      "hand": "right"
    },
    {
      "midi": 39,
      "time": 23,
      "duration": 1,
      "velocity": 0.63,
      "hand": "left"
    },
    {
      "midi": 51,
      "time": 23,
      "duration": 0.917,
      "velocity": 0.63,
      "hand": "left"
    },
    {
      "midi": 60,
      "time": 23,
      "duration": 1,
      "velocity": 0.63,
      "hand": "right"
    },
    {
      "midi": 64,
      "time": 23,
      "duration": 0.167,
      "velocity": 0.63,
      "hand": "right"
    },
    {
      "midi": 64,
      "time": 23,
      "duration": 1,
      "velocity": 0.63,
      "hand": "right"
    },
    {
      "midi": 67,
      "time": 23,
      "duration": 1,
      "velocity": 0.63,
      "hand": "right"
    },
    {
      "midi": 64,
      "time": 23.167,
      "duration": 0.167,
      "velocity": 0.63,
      "hand": "right"
    },
    {
      "midi": 64,
      "time": 23.333,
      "duration": 0.167,
      "velocity": 0.63,
      "hand": "right"
    },
    {
      "midi": 64,
      "time": 23.5,
      "duration": 0.167,
      "velocity": 0.63,
      "hand": "right"
    },
    {
      "midi": 64,
      "time": 23.667,
      "duration": 0.333,
      "velocity": 0.63,
      "hand": "right"
    },
    {
      "midi": 38,
      "time": 24,
      "duration": 4,
      "velocity": 0.63,
      "hand": "left"
    },
    {
      "midi": 50,
      "time": 24,
      "duration": 0.917,
      "velocity": 0.63,
      "hand": "left"
    },
    {
      "midi": 53,
      "time": 24,
      "duration": 0.917,
      "velocity": 0.63,
      "hand": "left"
    },
    {
      "midi": 62,
      "time": 24,
      "duration": 0.167,
      "velocity": 0.63,
      "hand": "right"
    },
    {
      "midi": 62,
      "time": 24,
      "duration": 4,
      "velocity": 0.63,
      "hand": "right"
    },
    {
      "midi": 65,
      "time": 24,
      "duration": 4,
      "velocity": 0.63,
      "hand": "right"
    },
    {
      "midi": 69,
      "time": 24,
      "duration": 4,
      "velocity": 0.63,
      "hand": "right"
    },
    {
      "midi": 60,
      "time": 24.167,
      "duration": 0.167,
      "velocity": 0.63,
      "hand": "right"
    },
    {
      "midi": 64,
      "time": 24.333,
      "duration": 0.167,
      "velocity": 0.63,
      "hand": "right"
    },
    {
      "midi": 62,
      "time": 24.5,
      "duration": 0.167,
      "velocity": 0.63,
      "hand": "right"
    },
    {
      "midi": 64,
      "time": 24.667,
      "duration": 0.167,
      "velocity": 0.63,
      "hand": "right"
    },
    {
      "midi": 62,
      "time": 24.833,
      "duration": 0.167,
      "velocity": 0.63,
      "hand": "right"
    },
    {
      "midi": 57,
      "time": 25,
      "duration": 0.917,
      "velocity": 0.63,
      "hand": "left"
    },
    {
      "midi": 50,
      "time": 26,
      "duration": 0.917,
      "velocity": 0.63,
      "hand": "left"
    },
    {
      "midi": 53,
      "time": 26,
      "duration": 0.917,
      "velocity": 0.63,
      "hand": "left"
    },
    {
      "midi": 57,
      "time": 26,
      "duration": 0.917,
      "velocity": 0.63,
      "hand": "left"
    },
    {
      "midi": 64,
      "time": 26,
      "duration": 0.167,
      "velocity": 0.63,
      "hand": "right"
    },
    {
      "midi": 62,
      "time": 26.167,
      "duration": 0.167,
      "velocity": 0.63,
      "hand": "right"
    },
    {
      "midi": 64,
      "time": 26.333,
      "duration": 0.167,
      "velocity": 0.63,
      "hand": "right"
    },
    {
      "midi": 62,
      "time": 26.5,
      "duration": 0.167,
      "velocity": 0.63,
      "hand": "right"
    },
    {
      "midi": 64,
      "time": 26.667,
      "duration": 0.167,
      "velocity": 0.63,
      "hand": "right"
    },
    {
      "midi": 62,
      "time": 26.833,
      "duration": 0.167,
      "velocity": 0.63,
      "hand": "right"
    },
    {
      "midi": 50,
      "time": 27,
      "duration": 0.333,
      "velocity": 0.63,
      "hand": "left"
    },
    {
      "midi": 53,
      "time": 27.333,
      "duration": 0.333,
      "velocity": 0.63,
      "hand": "left"
    },
    {
      "midi": 57,
      "time": 27.667,
      "duration": 0.333,
      "velocity": 0.63,
      "hand": "left"
    },
    {
      "midi": 60,
      "time": 27.833,
      "duration": 0.167,
      "velocity": 0.63,
      "hand": "right"
    },
    {
      "midi": 36,
      "time": 28,
      "duration": 4,
      "velocity": 0.63,
      "hand": "left"
    },
    {
      "midi": 48,
      "time": 28,
      "duration": 0.917,
      "velocity": 0.63,
      "hand": "left"
    },
    {
      "midi": 55,
      "time": 28,
      "duration": 0.917,
      "velocity": 0.63,
      "hand": "left"
    },
    {
      "midi": 59,
      "time": 28,
      "duration": 0.167,
      "velocity": 0.63,
      "hand": "left"
    },
    {
      "midi": 60,
      "time": 28,
      "duration": 4,
      "velocity": 0.63,
      "hand": "right"
    },
    {
      "midi": 64,
      "time": 28,
      "duration": 0.167,
      "velocity": 0.63,
      "hand": "right"
    },
    {
      "midi": 64,
      "time": 28,
      "duration": 4,
      "velocity": 0.63,
      "hand": "right"
    },
    {
      "midi": 67,
      "time": 28,
      "duration": 4,
      "velocity": 0.63,
      "hand": "right"
    },
    {
      "midi": 71,
      "time": 28,
      "duration": 4,
      "velocity": 0.63,
      "hand": "right"
    },
    {
      "midi": 64,
      "time": 28.167,
      "duration": 0.167,
      "velocity": 0.63,
      "hand": "right"
    },
    {
      "midi": 64,
      "time": 28.333,
      "duration": 0.167,
      "velocity": 0.63,
      "hand": "right"
    },
    {
      "midi": 64,
      "time": 28.5,
      "duration": 0.167,
      "velocity": 0.63,
      "hand": "right"
    },
    {
      "midi": 64,
      "time": 28.667,
      "duration": 0.333,
      "velocity": 0.63,
      "hand": "right"
    },
    {
      "midi": 48,
      "time": 29,
      "duration": 0.917,
      "velocity": 0.63,
      "hand": "left"
    },
    {
      "midi": 59,
      "time": 29,
      "duration": 0.167,
      "velocity": 0.63,
      "hand": "left"
    },
    {
      "midi": 64,
      "time": 29,
      "duration": 0.167,
      "velocity": 0.63,
      "hand": "right"
    },
    {
      "midi": 64,
      "time": 29.167,
      "duration": 0.167,
      "velocity": 0.63,
      "hand": "right"
    },
    {
      "midi": 64,
      "time": 29.333,
      "duration": 0.167,
      "velocity": 0.63,
      "hand": "right"
    },
    {
      "midi": 64,
      "time": 29.5,
      "duration": 0.167,
      "velocity": 0.63,
      "hand": "right"
    },
    {
      "midi": 64,
      "time": 29.667,
      "duration": 0.333,
      "velocity": 0.63,
      "hand": "right"
    },
    {
      "midi": 48,
      "time": 30,
      "duration": 1.917,
      "velocity": 0.63,
      "hand": "left"
    },
    {
      "midi": 55,
      "time": 30,
      "duration": 1.917,
      "velocity": 0.63,
      "hand": "left"
    },
    {
      "midi": 59,
      "time": 30,
      "duration": 0.167,
      "velocity": 0.63,
      "hand": "left"
    },
    {
      "midi": 64,
      "time": 30,
      "duration": 0.167,
      "velocity": 0.63,
      "hand": "right"
    },
    {
      "midi": 64,
      "time": 30.167,
      "duration": 0.167,
      "velocity": 0.63,
      "hand": "right"
    },
    {
      "midi": 64,
      "time": 30.333,
      "duration": 0.333,
      "velocity": 0.63,
      "hand": "right"
    },
    {
      "midi": 62,
      "time": 30.667,
      "duration": 0.167,
      "velocity": 0.63,
      "hand": "right"
    },
    {
      "midi": 60,
      "time": 30.833,
      "duration": 0.5,
      "velocity": 0.63,
      "hand": "right"
    },
    {
      "midi": 64,
      "time": 31.333,
      "duration": 0.333,
      "velocity": 0.63,
      "hand": "right"
    },
    {
      "midi": 67,
      "time": 31.667,
      "duration": 0.333,
      "velocity": 0.63,
      "hand": "right"
    },
    {
      "midi": 41,
      "time": 32,
      "duration": 4,
      "velocity": 0.63,
      "hand": "left"
    },
    {
      "midi": 41,
      "time": 32,
      "duration": 0.917,
      "velocity": 0.63,
      "hand": "left"
    },
    {
      "midi": 60,
      "time": 32,
      "duration": 4,
      "velocity": 0.63,
      "hand": "right"
    },
    {
      "midi": 64,
      "time": 32,
      "duration": 0.917,
      "velocity": 0.63,
      "hand": "right"
    },
    {
      "midi": 64,
      "time": 32,
      "duration": 4,
      "velocity": 0.63,
      "hand": "right"
    },
    {
      "midi": 65,
      "time": 32,
      "duration": 4,
      "velocity": 0.63,
      "hand": "right"
    },
    {
      "midi": 69,
      "time": 32,
      "duration": 0.917,
      "velocity": 0.63,
      "hand": "right"
    },
    {
      "midi": 69,
      "time": 32,
      "duration": 4,
      "velocity": 0.63,
      "hand": "right"
    },
    {
      "midi": 48,
      "time": 33,
      "duration": 0.917,
      "velocity": 0.63,
      "hand": "left"
    },
    {
      "midi": 69,
      "time": 33.333,
      "duration": 0.333,
      "velocity": 0.63,
      "hand": "right"
    },
    {
      "midi": 71,
      "time": 33.667,
      "duration": 0.167,
      "velocity": 0.63,
      "hand": "right"
    },
    {
      "midi": 64,
      "time": 33.833,
      "duration": 1.083,
      "velocity": 0.63,
      "hand": "right"
    },
    {
      "midi": 72,
      "time": 33.833,
      "duration": 1.083,
      "velocity": 0.63,
      "hand": "right"
    },
    {
      "midi": 41,
      "time": 34,
      "duration": 0.917,
      "velocity": 0.63,
      "hand": "left"
    },
    {
      "midi": 48,
      "time": 35,
      "duration": 0.917,
      "velocity": 0.63,
      "hand": "left"
    },
    {
      "midi": 69,
      "time": 35.333,
      "duration": 0.333,
      "velocity": 0.63,
      "hand": "right"
    },
    {
      "midi": 72,
      "time": 35.667,
      "duration": 0.333,
      "velocity": 0.63,
      "hand": "right"
    },
    {
      "midi": 40,
      "time": 36,
      "duration": 2,
      "velocity": 0.63,
      "hand": "left"
    },
    {
      "midi": 40,
      "time": 36,
      "duration": 0.917,
      "velocity": 0.63,
      "hand": "left"
    },
    {
      "midi": 64,
      "time": 36,
      "duration": 2,
      "velocity": 0.63,
      "hand": "right"
    },
    {
      "midi": 67,
      "time": 36,
      "duration": 0.333,
      "velocity": 0.63,
      "hand": "right"
    },
    {
      "midi": 67,
      "time": 36,
      "duration": 2,
      "velocity": 0.63,
      "hand": "right"
    },
    {
      "midi": 71,
      "time": 36,
      "duration": 0.333,
      "velocity": 0.63,
      "hand": "right"
    },
    {
      "midi": 71,
      "time": 36,
      "duration": 2,
      "velocity": 0.63,
      "hand": "right"
    },
    {
      "midi": 69,
      "time": 36.333,
      "duration": 0.333,
      "velocity": 0.63,
      "hand": "right"
    },
    {
      "midi": 67,
      "time": 36.667,
      "duration": 0.333,
      "velocity": 0.63,
      "hand": "right"
    },
    {
      "midi": 47,
      "time": 37,
      "duration": 0.917,
      "velocity": 0.63,
      "hand": "left"
    },
    {
      "midi": 67,
      "time": 37,
      "duration": 0.667,
      "velocity": 0.63,
      "hand": "right"
    },
    {
      "midi": 64,
      "time": 37.667,
      "duration": 0.333,
      "velocity": 0.63,
      "hand": "right"
    },
    {
      "midi": 40,
      "time": 38,
      "duration": 1,
      "velocity": 0.63,
      "hand": "left"
    },
    {
      "midi": 40,
      "time": 38,
      "duration": 0.917,
      "velocity": 0.63,
      "hand": "left"
    },
    {
      "midi": 60,
      "time": 38,
      "duration": 1,
      "velocity": 0.63,
      "hand": "right"
    },
    {
      "midi": 64,
      "time": 38,
      "duration": 1,
      "velocity": 0.63,
      "hand": "right"
    },
    {
      "midi": 67,
      "time": 38,
      "duration": 0.333,
      "velocity": 0.63,
      "hand": "right"
    },
    {
      "midi": 67,
      "time": 38,
      "duration": 1,
      "velocity": 0.63,
      "hand": "right"
    },
    {
      "midi": 71,
      "time": 38,
      "duration": 0.333,
      "velocity": 0.63,
      "hand": "right"
    },
    {
      "midi": 69,
      "time": 38.333,
      "duration": 0.333,
      "velocity": 0.63,
      "hand": "right"
    },
    {
      "midi": 67,
      "time": 38.667,
      "duration": 0.333,
      "velocity": 0.63,
      "hand": "right"
    },
    {
      "midi": 39,
      "time": 39,
      "duration": 1,
      "velocity": 0.63,
      "hand": "left"
    },
    {
      "midi": 39,
      "time": 39,
      "duration": 0.917,
      "velocity": 0.63,
      "hand": "left"
    },
    {
      "midi": 60,
      "time": 39,
      "duration": 1,
      "velocity": 0.63,
      "hand": "right"
    },
    {
      "midi": 64,
      "time": 39,
      "duration": 1,
      "velocity": 0.63,
      "hand": "right"
    },
    {
      "midi": 67,
      "time": 39,
      "duration": 0.333,
      "velocity": 0.63,
      "hand": "right"
    },
    {
      "midi": 67,
      "time": 39,
      "duration": 1,
      "velocity": 0.63,
      "hand": "right"
    },
    {
      "midi": 71,
      "time": 39,
      "duration": 0.333,
      "velocity": 0.63,
      "hand": "right"
    },
    {
      "midi": 69,
      "time": 39.333,
      "duration": 0.333,
      "velocity": 0.63,
      "hand": "right"
    },
    {
      "midi": 67,
      "time": 39.667,
      "duration": 0.333,
      "velocity": 0.63,
      "hand": "right"
    },
    {
      "midi": 38,
      "time": 40,
      "duration": 4,
      "velocity": 0.63,
      "hand": "left"
    },
    {
      "midi": 38,
      "time": 40,
      "duration": 0.917,
      "velocity": 0.63,
      "hand": "left"
    },
    {
      "midi": 60,
      "time": 40,
      "duration": 4,
      "velocity": 0.63,
      "hand": "right"
    },
    {
      "midi": 62,
      "time": 40,
      "duration": 4,
      "velocity": 0.63,
      "hand": "right"
    },
    {
      "midi": 65,
      "time": 40,
      "duration": 4,
      "velocity": 0.63,
      "hand": "right"
    },
    {
      "midi": 67,
      "time": 40,
      "duration": 0.167,
      "velocity": 0.63,
      "hand": "right"
    },
    {
      "midi": 69,
      "time": 40,
      "duration": 4,
      "velocity": 0.63,
      "hand": "right"
    },
    {
      "midi": 60,
      "time": 40.167,
      "duration": 1.75,
      "velocity": 0.63,
      "hand": "right"
    },
    {
      "midi": 65,
      "time": 40.167,
      "duration": 1.75,
      "velocity": 0.63,
      "hand": "right"
    },
    {
      "midi": 45,
      "time": 41,
      "duration": 0.917,
      "velocity": 0.63,
      "hand": "left"
    },
    {
      "midi": 38,
      "time": 42,
      "duration": 0.917,
      "velocity": 0.63,
      "hand": "left"
    },
    {
      "midi": 60,
      "time": 42.667,
      "duration": 0.333,
      "velocity": 0.63,
      "hand": "right"
    },
    {
      "midi": 45,
      "time": 43,
      "duration": 0.917,
      "velocity": 0.63,
      "hand": "left"
    },
    {
      "midi": 67,
      "time": 43,
      "duration": 0.333,
      "velocity": 0.63,
      "hand": "right"
    },
    {
      "midi": 65,
      "time": 43.333,
      "duration": 0.333,
      "velocity": 0.63,
      "hand": "right"
    },
    {
      "midi": 64,
      "time": 43.667,
      "duration": 0.333,
      "velocity": 0.63,
      "hand": "right"
    },
    {
      "midi": 40,
      "time": 44,
      "duration": 4,
      "velocity": 0.63,
      "hand": "left"
    },
    {
      "midi": 40,
      "time": 44,
      "duration": 0.333,
      "velocity": 0.63,
      "hand": "left"
    },
    {
      "midi": 56,
      "time": 44,
      "duration": 0.917,
      "velocity": 0.63,
      "hand": "left"
    },
    {
      "midi": 64,
      "time": 44,
      "duration": 0.917,
      "velocity": 0.63,
      "hand": "right"
    },
    {
      "midi": 64,
      "time": 44,
      "duration": 4,
      "velocity": 0.63,
      "hand": "right"
    },
    {
      "midi": 68,
      "time": 44,
      "duration": 4,
      "velocity": 0.63,
      "hand": "right"
    },
    {
      "midi": 71,
      "time": 44,
      "duration": 4,
      "velocity": 0.63,
      "hand": "right"
    },
    {
      "midi": 40,
      "time": 44.333,
      "duration": 0.333,
      "velocity": 0.63,
      "hand": "left"
    },
    {
      "midi": 40,
      "time": 44.667,
      "duration": 0.333,
      "velocity": 0.63,
      "hand": "left"
    },
    {
      "midi": 40,
      "time": 45,
      "duration": 0.333,
      "velocity": 0.63,
      "hand": "left"
    },
    {
      "midi": 69,
      "time": 45,
      "duration": 0.917,
      "velocity": 0.63,
      "hand": "right"
    },
    {
      "midi": 40,
      "time": 45.333,
      "duration": 0.333,
      "velocity": 0.63,
      "hand": "left"
    },
    {
      "midi": 40,
      "time": 45.667,
      "duration": 0.333,
      "velocity": 0.63,
      "hand": "left"
    },
    {
      "midi": 40,
      "time": 46,
      "duration": 0.333,
      "velocity": 0.63,
      "hand": "left"
    },
    {
      "midi": 72,
      "time": 46,
      "duration": 0.917,
      "velocity": 0.63,
      "hand": "right"
    },
    {
      "midi": 40,
      "time": 46.333,
      "duration": 0.333,
      "velocity": 0.63,
      "hand": "left"
    },
    {
      "midi": 40,
      "time": 46.667,
      "duration": 0.333,
      "velocity": 0.63,
      "hand": "left"
    },
    {
      "midi": 74,
      "time": 47,
      "duration": 0.333,
      "velocity": 0.63,
      "hand": "right"
    },
    {
      "midi": 41,
      "time": 48,
      "duration": 6,
      "velocity": 0.63,
      "hand": "left"
    },
    {
      "midi": 41,
      "time": 48,
      "duration": 0.917,
      "velocity": 0.63,
      "hand": "left"
    },
    {
      "midi": 60,
      "time": 48,
      "duration": 6,
      "velocity": 0.63,
      "hand": "right"
    },
    {
      "midi": 64,
      "time": 48,
      "duration": 6,
      "velocity": 0.63,
      "hand": "right"
    },
    {
      "midi": 65,
      "time": 48,
      "duration": 6,
      "velocity": 0.63,
      "hand": "right"
    },
    {
      "midi": 69,
      "time": 48,
      "duration": 3.833,
      "velocity": 0.63,
      "hand": "right"
    },
    {
      "midi": 69,
      "time": 48,
      "duration": 6,
      "velocity": 0.63,
      "hand": "right"
    },
    {
      "midi": 76,
      "time": 48,
      "duration": 3.833,
      "velocity": 0.63,
      "hand": "right"
    },
    {
      "midi": 48,
      "time": 49,
      "duration": 0.917,
      "velocity": 0.63,
      "hand": "left"
    },
    {
      "midi": 52,
      "time": 50,
      "duration": 0.917,
      "velocity": 0.63,
      "hand": "left"
    },
    {
      "midi": 53,
      "time": 50,
      "duration": 0.917,
      "velocity": 0.63,
      "hand": "left"
    },
    {
      "midi": 57,
      "time": 50,
      "duration": 0.917,
      "velocity": 0.63,
      "hand": "left"
    },
    {
      "midi": 60,
      "time": 51,
      "duration": 0.917,
      "velocity": 0.63,
      "hand": "right"
    },
    {
      "midi": 41,
      "time": 52,
      "duration": 0.917,
      "velocity": 0.63,
      "hand": "left"
    },
    {
      "midi": 69,
      "time": 52,
      "duration": 0.917,
      "velocity": 0.63,
      "hand": "right"
    },
    {
      "midi": 48,
      "time": 53,
      "duration": 0.917,
      "velocity": 0.63,
      "hand": "left"
    },
    {
      "midi": 71,
      "time": 53,
      "duration": 0.917,
      "velocity": 0.63,
      "hand": "right"
    },
    {
      "midi": 41,
      "time": 54,
      "duration": 2,
      "velocity": 0.63,
      "hand": "left"
    },
    {
      "midi": 53,
      "time": 54,
      "duration": 0.917,
      "velocity": 0.63,
      "hand": "left"
    },
    {
      "midi": 56,
      "time": 54,
      "duration": 0.917,
      "velocity": 0.63,
      "hand": "left"
    },
    {
      "midi": 60,
      "time": 54,
      "duration": 2,
      "velocity": 0.63,
      "hand": "right"
    },
    {
      "midi": 60,
      "time": 54,
      "duration": 0.917,
      "velocity": 0.63,
      "hand": "right"
    },
    {
      "midi": 65,
      "time": 54,
      "duration": 2,
      "velocity": 0.63,
      "hand": "right"
    },
    {
      "midi": 68,
      "time": 54,
      "duration": 2,
      "velocity": 0.63,
      "hand": "right"
    },
    {
      "midi": 79,
      "time": 54,
      "duration": 0.917,
      "velocity": 0.63,
      "hand": "right"
    },
    {
      "midi": 62,
      "time": 55,
      "duration": 0.917,
      "velocity": 0.63,
      "hand": "right"
    },
    {
      "midi": 77,
      "time": 55,
      "duration": 0.917,
      "velocity": 0.63,
      "hand": "right"
    },
    {
      "midi": 36,
      "time": 56,
      "duration": 6,
      "velocity": 0.63,
      "hand": "left"
    },
    {
      "midi": 36,
      "time": 56,
      "duration": 0.917,
      "velocity": 0.63,
      "hand": "left"
    },
    {
      "midi": 60,
      "time": 56,
      "duration": 6,
      "velocity": 0.63,
      "hand": "right"
    },
    {
      "midi": 64,
      "time": 56,
      "duration": 6,
      "velocity": 0.63,
      "hand": "right"
    },
    {
      "midi": 67,
      "time": 56,
      "duration": 6,
      "velocity": 0.63,
      "hand": "right"
    },
    {
      "midi": 71,
      "time": 56,
      "duration": 2.333,
      "velocity": 0.63,
      "hand": "right"
    },
    {
      "midi": 71,
      "time": 56,
      "duration": 6,
      "velocity": 0.63,
      "hand": "right"
    },
    {
      "midi": 76,
      "time": 56,
      "duration": 2.333,
      "velocity": 0.63,
      "hand": "right"
    },
    {
      "midi": 43,
      "time": 57,
      "duration": 0.917,
      "velocity": 0.63,
      "hand": "left"
    },
    {
      "midi": 48,
      "time": 58,
      "duration": 0.917,
      "velocity": 0.63,
      "hand": "left"
    },
    {
      "midi": 52,
      "time": 58,
      "duration": 0.917,
      "velocity": 0.63,
      "hand": "left"
    },
    {
      "midi": 55,
      "time": 58,
      "duration": 0.917,
      "velocity": 0.63,
      "hand": "left"
    },
    {
      "midi": 74,
      "time": 58.333,
      "duration": 0.667,
      "velocity": 0.63,
      "hand": "right"
    },
    {
      "midi": 59,
      "time": 59,
      "duration": 0.917,
      "velocity": 0.63,
      "hand": "left"
    },
    {
      "midi": 69,
      "time": 59.333,
      "duration": 0.333,
      "velocity": 0.63,
      "hand": "right"
    },
    {
      "midi": 72,
      "time": 59.667,
      "duration": 0.333,
      "velocity": 0.63,
      "hand": "right"
    },
    {
      "midi": 36,
      "time": 60,
      "duration": 0.917,
      "velocity": 0.63,
      "hand": "left"
    },
    {
      "midi": 64,
      "time": 60,
      "duration": 0.917,
      "velocity": 0.63,
      "hand": "right"
    },
    {
      "midi": 71,
      "time": 60,
      "duration": 0.917,
      "velocity": 0.63,
      "hand": "right"
    },
    {
      "midi": 43,
      "time": 61,
      "duration": 0.917,
      "velocity": 0.63,
      "hand": "left"
    },
    {
      "midi": 71,
      "time": 61,
      "duration": 0.917,
      "velocity": 0.63,
      "hand": "right"
    },
    {
      "midi": 38,
      "time": 62,
      "duration": 1,
      "velocity": 0.63,
      "hand": "left"
    },
    {
      "midi": 38,
      "time": 62,
      "duration": 0.917,
      "velocity": 0.63,
      "hand": "left"
    },
    {
      "midi": 60,
      "time": 62,
      "duration": 1,
      "velocity": 0.63,
      "hand": "right"
    },
    {
      "midi": 64,
      "time": 62,
      "duration": 1,
      "velocity": 0.63,
      "hand": "right"
    },
    {
      "midi": 69,
      "time": 62,
      "duration": 0.917,
      "velocity": 0.63,
      "hand": "right"
    },
    {
      "midi": 69,
      "time": 62,
      "duration": 1,
      "velocity": 0.63,
      "hand": "right"
    },
    {
      "midi": 72,
      "time": 62,
      "duration": 0.917,
      "velocity": 0.63,
      "hand": "right"
    },
    {
      "midi": 40,
      "time": 63,
      "duration": 1,
      "velocity": 0.63,
      "hand": "left"
    },
    {
      "midi": 40,
      "time": 63,
      "duration": 0.917,
      "velocity": 0.63,
      "hand": "left"
    },
    {
      "midi": 62,
      "time": 63,
      "duration": 1,
      "velocity": 0.63,
      "hand": "right"
    },
    {
      "midi": 64,
      "time": 63,
      "duration": 1,
      "velocity": 0.63,
      "hand": "right"
    },
    {
      "midi": 68,
      "time": 63,
      "duration": 0.917,
      "velocity": 0.63,
      "hand": "right"
    },
    {
      "midi": 68,
      "time": 63,
      "duration": 1,
      "velocity": 0.63,
      "hand": "right"
    },
    {
      "midi": 71,
      "time": 63,
      "duration": 1,
      "velocity": 0.63,
      "hand": "right"
    },
    {
      "midi": 74,
      "time": 63,
      "duration": 0.917,
      "velocity": 0.63,
      "hand": "right"
    },
    {
      "midi": 41,
      "time": 64,
      "duration": 6,
      "velocity": 0.63,
      "hand": "left"
    },
    {
      "midi": 41,
      "time": 64,
      "duration": 0.917,
      "velocity": 0.63,
      "hand": "left"
    },
    {
      "midi": 60,
      "time": 64,
      "duration": 6,
      "velocity": 0.63,
      "hand": "right"
    },
    {
      "midi": 64,
      "time": 64,
      "duration": 6,
      "velocity": 0.63,
      "hand": "right"
    },
    {
      "midi": 65,
      "time": 64,
      "duration": 6,
      "velocity": 0.63,
      "hand": "right"
    },
    {
      "midi": 69,
      "time": 64,
      "duration": 3.833,
      "velocity": 0.63,
      "hand": "right"
    },
    {
      "midi": 69,
      "time": 64,
      "duration": 6,
      "velocity": 0.63,
      "hand": "right"
    },
    {
      "midi": 76,
      "time": 64,
      "duration": 3.833,
      "velocity": 0.63,
      "hand": "right"
    },
    {
      "midi": 48,
      "time": 65,
      "duration": 0.917,
      "velocity": 0.63,
      "hand": "left"
    },
    {
      "midi": 52,
      "time": 66,
      "duration": 0.917,
      "velocity": 0.63,
      "hand": "left"
    },
    {
      "midi": 53,
      "time": 66,
      "duration": 0.917,
      "velocity": 0.63,
      "hand": "left"
    },
    {
      "midi": 57,
      "time": 66,
      "duration": 0.917,
      "velocity": 0.63,
      "hand": "left"
    },
    {
      "midi": 60,
      "time": 67,
      "duration": 0.917,
      "velocity": 0.63,
      "hand": "right"
    },
    {
      "midi": 41,
      "time": 68,
      "duration": 0.917,
      "velocity": 0.63,
      "hand": "left"
    },
    {
      "midi": 69,
      "time": 68,
      "duration": 0.917,
      "velocity": 0.63,
      "hand": "right"
    },
    {
      "midi": 48,
      "time": 69,
      "duration": 0.917,
      "velocity": 0.63,
      "hand": "left"
    },
    {
      "midi": 71,
      "time": 69,
      "duration": 0.917,
      "velocity": 0.63,
      "hand": "right"
    },
    {
      "midi": 41,
      "time": 70,
      "duration": 2,
      "velocity": 0.63,
      "hand": "left"
    },
    {
      "midi": 53,
      "time": 70,
      "duration": 0.917,
      "velocity": 0.63,
      "hand": "left"
    },
    {
      "midi": 56,
      "time": 70,
      "duration": 0.917,
      "velocity": 0.63,
      "hand": "left"
    },
    {
      "midi": 60,
      "time": 70,
      "duration": 2,
      "velocity": 0.63,
      "hand": "right"
    },
    {
      "midi": 60,
      "time": 70,
      "duration": 0.917,
      "velocity": 0.63,
      "hand": "right"
    },
    {
      "midi": 65,
      "time": 70,
      "duration": 2,
      "velocity": 0.63,
      "hand": "right"
    },
    {
      "midi": 68,
      "time": 70,
      "duration": 2,
      "velocity": 0.63,
      "hand": "right"
    },
    {
      "midi": 79,
      "time": 70,
      "duration": 0.917,
      "velocity": 0.63,
      "hand": "right"
    },
    {
      "midi": 62,
      "time": 71,
      "duration": 0.917,
      "velocity": 0.63,
      "hand": "right"
    },
    {
      "midi": 77,
      "time": 71,
      "duration": 0.917,
      "velocity": 0.63,
      "hand": "right"
    },
    {
      "midi": 36,
      "time": 72,
      "duration": 6,
      "velocity": 0.63,
      "hand": "left"
    },
    {
      "midi": 36,
      "time": 72,
      "duration": 0.917,
      "velocity": 0.63,
      "hand": "left"
    },
    {
      "midi": 60,
      "time": 72,
      "duration": 6,
      "velocity": 0.63,
      "hand": "right"
    },
    {
      "midi": 64,
      "time": 72,
      "duration": 6,
      "velocity": 0.63,
      "hand": "right"
    },
    {
      "midi": 67,
      "time": 72,
      "duration": 6,
      "velocity": 0.63,
      "hand": "right"
    },
    {
      "midi": 71,
      "time": 72,
      "duration": 2.833,
      "velocity": 0.63,
      "hand": "right"
    },
    {
      "midi": 71,
      "time": 72,
      "duration": 6,
      "velocity": 0.63,
      "hand": "right"
    },
    {
      "midi": 76,
      "time": 72,
      "duration": 2.833,
      "velocity": 0.63,
      "hand": "right"
    },
    {
      "midi": 43,
      "time": 73,
      "duration": 0.917,
      "velocity": 0.63,
      "hand": "left"
    },
    {
      "midi": 48,
      "time": 74,
      "duration": 0.917,
      "velocity": 0.63,
      "hand": "left"
    },
    {
      "midi": 52,
      "time": 74,
      "duration": 0.917,
      "velocity": 0.63,
      "hand": "left"
    },
    {
      "midi": 55,
      "time": 74,
      "duration": 0.917,
      "velocity": 0.63,
      "hand": "left"
    },
    {
      "midi": 59,
      "time": 75,
      "duration": 0.917,
      "velocity": 0.63,
      "hand": "left"
    },
    {
      "midi": 69,
      "time": 75.333,
      "duration": 0.333,
      "velocity": 0.63,
      "hand": "right"
    },
    {
      "midi": 72,
      "time": 75.667,
      "duration": 0.333,
      "velocity": 0.63,
      "hand": "right"
    },
    {
      "midi": 36,
      "time": 76,
      "duration": 0.917,
      "velocity": 0.63,
      "hand": "left"
    },
    {
      "midi": 64,
      "time": 76,
      "duration": 2,
      "velocity": 0.63,
      "hand": "right"
    },
    {
      "midi": 71,
      "time": 76,
      "duration": 2,
      "velocity": 0.63,
      "hand": "right"
    },
    {
      "midi": 43,
      "time": 77,
      "duration": 0.917,
      "velocity": 0.63,
      "hand": "left"
    },
    {
      "midi": 38,
      "time": 78,
      "duration": 1,
      "velocity": 0.63,
      "hand": "left"
    },
    {
      "midi": 38,
      "time": 78,
      "duration": 0.917,
      "velocity": 0.63,
      "hand": "left"
    },
    {
      "midi": 60,
      "time": 78,
      "duration": 1,
      "velocity": 0.63,
      "hand": "right"
    },
    {
      "midi": 64,
      "time": 78,
      "duration": 0.917,
      "velocity": 0.63,
      "hand": "right"
    },
    {
      "midi": 64,
      "time": 78,
      "duration": 1,
      "velocity": 0.63,
      "hand": "right"
    },
    {
      "midi": 67,
      "time": 78,
      "duration": 1,
      "velocity": 0.63,
      "hand": "right"
    },
    {
      "midi": 70,
      "time": 78,
      "duration": 0.917,
      "velocity": 0.63,
      "hand": "right"
    },
    {
      "midi": 70,
      "time": 78,
      "duration": 1,
      "velocity": 0.63,
      "hand": "right"
    },
    {
      "midi": 40,
      "time": 79,
      "duration": 1,
      "velocity": 0.63,
      "hand": "left"
    },
    {
      "midi": 40,
      "time": 79,
      "duration": 0.917,
      "velocity": 0.63,
      "hand": "left"
    },
    {
      "midi": 60,
      "time": 79,
      "duration": 1,
      "velocity": 0.63,
      "hand": "right"
    },
    {
      "midi": 64,
      "time": 79,
      "duration": 1,
      "velocity": 0.63,
      "hand": "right"
    },
    {
      "midi": 67,
      "time": 79,
      "duration": 1,
      "velocity": 0.63,
      "hand": "right"
    },
    {
      "midi": 70,
      "time": 79,
      "duration": 0.917,
      "velocity": 0.63,
      "hand": "right"
    },
    {
      "midi": 70,
      "time": 79,
      "duration": 1,
      "velocity": 0.63,
      "hand": "right"
    },
    {
      "midi": 41,
      "time": 80,
      "duration": 4,
      "velocity": 0.63,
      "hand": "left"
    },
    {
      "midi": 41,
      "time": 80,
      "duration": 0.917,
      "velocity": 0.63,
      "hand": "left"
    },
    {
      "midi": 57,
      "time": 80,
      "duration": 0.167,
      "velocity": 0.63,
      "hand": "left"
    },
    {
      "midi": 60,
      "time": 80,
      "duration": 4,
      "velocity": 0.63,
      "hand": "right"
    },
    {
      "midi": 64,
      "time": 80,
      "duration": 0.167,
      "velocity": 0.63,
      "hand": "right"
    },
    {
      "midi": 64,
      "time": 80,
      "duration": 4,
      "velocity": 0.63,
      "hand": "right"
    },
    {
      "midi": 65,
      "time": 80,
      "duration": 4,
      "velocity": 0.63,
      "hand": "right"
    },
    {
      "midi": 69,
      "time": 80,
      "duration": 4,
      "velocity": 0.63,
      "hand": "right"
    },
    {
      "midi": 64,
      "time": 80.167,
      "duration": 0.167,
      "velocity": 0.63,
      "hand": "right"
    },
    {
      "midi": 64,
      "time": 80.333,
      "duration": 0.167,
      "velocity": 0.63,
      "hand": "right"
    },
    {
      "midi": 64,
      "time": 80.5,
      "duration": 0.167,
      "velocity": 0.63,
      "hand": "right"
    },
    {
      "midi": 64,
      "time": 80.667,
      "duration": 0.167,
      "velocity": 0.63,
      "hand": "right"
    },
    {
      "midi": 62,
      "time": 80.833,
      "duration": 0.167,
      "velocity": 0.63,
      "hand": "right"
    },
    {
      "midi": 41,
      "time": 81,
      "duration": 0.917,
      "velocity": 0.63,
      "hand": "left"
    },
    {
      "midi": 41,
      "time": 82,
      "duration": 0.917,
      "velocity": 0.63,
      "hand": "left"
    },
    {
      "midi": 57,
      "time": 82,
      "duration": 0.167,
      "velocity": 0.63,
      "hand": "left"
    },
    {
      "midi": 64,
      "time": 82,
      "duration": 0.167,
      "velocity": 0.63,
      "hand": "right"
    },
    {
      "midi": 64,
      "time": 82.167,
      "duration": 0.167,
      "velocity": 0.63,
      "hand": "right"
    },
    {
      "midi": 64,
      "time": 82.333,
      "duration": 0.167,
      "velocity": 0.63,
      "hand": "right"
    },
    {
      "midi": 64,
      "time": 82.5,
      "duration": 0.167,
      "velocity": 0.63,
      "hand": "right"
    },
    {
      "midi": 64,
      "time": 82.667,
      "duration": 0.333,
      "velocity": 0.63,
      "hand": "right"
    },
    {
      "midi": 41,
      "time": 83,
      "duration": 0.917,
      "velocity": 0.63,
      "hand": "left"
    },
    {
      "midi": 64,
      "time": 83,
      "duration": 0.167,
      "velocity": 0.63,
      "hand": "right"
    },
    {
      "midi": 64,
      "time": 83.167,
      "duration": 0.167,
      "velocity": 0.63,
      "hand": "right"
    },
    {
      "midi": 64,
      "time": 83.333,
      "duration": 0.167,
      "velocity": 0.63,
      "hand": "right"
    },
    {
      "midi": 64,
      "time": 83.5,
      "duration": 0.167,
      "velocity": 0.63,
      "hand": "right"
    },
    {
      "midi": 64,
      "time": 83.667,
      "duration": 0.333,
      "velocity": 0.63,
      "hand": "right"
    },
    {
      "midi": 40,
      "time": 84,
      "duration": 3,
      "velocity": 0.63,
      "hand": "left"
    },
    {
      "midi": 40,
      "time": 84,
      "duration": 0.917,
      "velocity": 0.63,
      "hand": "left"
    },
    {
      "midi": 55,
      "time": 84,
      "duration": 0.167,
      "velocity": 0.63,
      "hand": "left"
    },
    {
      "midi": 60,
      "time": 84,
      "duration": 3,
      "velocity": 0.63,
      "hand": "right"
    },
    {
      "midi": 64,
      "time": 84,
      "duration": 0.167,
      "velocity": 0.63,
      "hand": "right"
    },
    {
      "midi": 64,
      "time": 84,
      "duration": 3,
      "velocity": 0.63,
      "hand": "right"
    },
    {
      "midi": 67,
      "time": 84,
      "duration": 3,
      "velocity": 0.63,
      "hand": "right"
    },
    {
      "midi": 64,
      "time": 84.167,
      "duration": 0.167,
      "velocity": 0.63,
      "hand": "right"
    },
    {
      "midi": 64,
      "time": 84.333,
      "duration": 0.167,
      "velocity": 0.63,
      "hand": "right"
    },
    {
      "midi": 64,
      "time": 84.5,
      "duration": 0.167,
      "velocity": 0.63,
      "hand": "right"
    },
    {
      "midi": 64,
      "time": 84.667,
      "duration": 0.167,
      "velocity": 0.63,
      "hand": "right"
    },
    {
      "midi": 62,
      "time": 84.833,
      "duration": 0.167,
      "velocity": 0.63,
      "hand": "right"
    },
    {
      "midi": 40,
      "time": 85,
      "duration": 0.917,
      "velocity": 0.63,
      "hand": "left"
    },
    {
      "midi": 40,
      "time": 86,
      "duration": 0.917,
      "velocity": 0.63,
      "hand": "left"
    },
    {
      "midi": 55,
      "time": 86,
      "duration": 0.167,
      "velocity": 0.63,
      "hand": "left"
    },
    {
      "midi": 64,
      "time": 86,
      "duration": 0.167,
      "velocity": 0.63,
      "hand": "right"
    },
    {
      "midi": 64,
      "time": 86.167,
      "duration": 0.167,
      "velocity": 0.63,
      "hand": "right"
    },
    {
      "midi": 64,
      "time": 86.333,
      "duration": 0.167,
      "velocity": 0.63,
      "hand": "right"
    },
    {
      "midi": 64,
      "time": 86.5,
      "duration": 0.167,
      "velocity": 0.63,
      "hand": "right"
    },
    {
      "midi": 64,
      "time": 86.667,
      "duration": 0.333,
      "velocity": 0.63,
      "hand": "right"
    },
    {
      "midi": 39,
      "time": 87,
      "duration": 1,
      "velocity": 0.63,
      "hand": "left"
    },
    {
      "midi": 39,
      "time": 87,
      "duration": 0.917,
      "velocity": 0.63,
      "hand": "left"
    },
    {
      "midi": 55,
      "time": 87,
      "duration": 0.167,
      "velocity": 0.63,
      "hand": "left"
    },
    {
      "midi": 60,
      "time": 87,
      "duration": 1,
      "velocity": 0.63,
      "hand": "right"
    },
    {
      "midi": 64,
      "time": 87,
      "duration": 0.167,
      "velocity": 0.63,
      "hand": "right"
    },
    {
      "midi": 64,
      "time": 87,
      "duration": 1,
      "velocity": 0.63,
      "hand": "right"
    },
    {
      "midi": 67,
      "time": 87,
      "duration": 1,
      "velocity": 0.63,
      "hand": "right"
    },
    {
      "midi": 64,
      "time": 87.167,
      "duration": 0.167,
      "velocity": 0.63,
      "hand": "right"
    },
    {
      "midi": 64,
      "time": 87.333,
      "duration": 0.167,
      "velocity": 0.63,
      "hand": "right"
    },
    {
      "midi": 64,
      "time": 87.5,
      "duration": 0.167,
      "velocity": 0.63,
      "hand": "right"
    },
    {
      "midi": 64,
      "time": 87.667,
      "duration": 0.333,
      "velocity": 0.63,
      "hand": "right"
    },
    {
      "midi": 38,
      "time": 88,
      "duration": 4,
      "velocity": 0.63,
      "hand": "left"
    },
    {
      "midi": 38,
      "time": 88,
      "duration": 0.917,
      "velocity": 0.63,
      "hand": "left"
    },
    {
      "midi": 60,
      "time": 88,
      "duration": 0.167,
      "velocity": 0.63,
      "hand": "right"
    },
    {
      "midi": 60,
      "time": 88,
      "duration": 4,
      "velocity": 0.63,
      "hand": "right"
    },
    {
      "midi": 62,
      "time": 88,
      "duration": 4,
      "velocity": 0.63,
      "hand": "right"
    },
    {
      "midi": 64,
      "time": 88,
      "duration": 0.167,
      "velocity": 0.63,
      "hand": "right"
    },
    {
      "midi": 65,
      "time": 88,
      "duration": 4,
      "velocity": 0.63,
      "hand": "right"
    },
    {
      "midi": 69,
      "time": 88,
      "duration": 4,
      "velocity": 0.63,
      "hand": "right"
    },
    {
      "midi": 62,
      "time": 88.167,
      "duration": 0.167,
      "velocity": 0.63,
      "hand": "right"
    },
    {
      "midi": 64,
      "time": 88.333,
      "duration": 0.167,
      "velocity": 0.63,
      "hand": "right"
    },
    {
      "midi": 62,
      "time": 88.5,
      "duration": 0.167,
      "velocity": 0.63,
      "hand": "right"
    },
    {
      "midi": 64,
      "time": 88.667,
      "duration": 0.167,
      "velocity": 0.63,
      "hand": "right"
    },
    {
      "midi": 62,
      "time": 88.833,
      "duration": 0.167,
      "velocity": 0.63,
      "hand": "right"
    },
    {
      "midi": 38,
      "time": 89,
      "duration": 0.917,
      "velocity": 0.63,
      "hand": "left"
    },
    {
      "midi": 38,
      "time": 90,
      "duration": 0.917,
      "velocity": 0.63,
      "hand": "left"
    },
    {
      "midi": 60,
      "time": 90,
      "duration": 0.167,
      "velocity": 0.63,
      "hand": "right"
    },
    {
      "midi": 64,
      "time": 90,
      "duration": 0.167,
      "velocity": 0.63,
      "hand": "right"
    },
    {
      "midi": 62,
      "time": 90.167,
      "duration": 0.167,
      "velocity": 0.63,
      "hand": "right"
    },
    {
      "midi": 64,
      "time": 90.333,
      "duration": 0.167,
      "velocity": 0.63,
      "hand": "right"
    },
    {
      "midi": 62,
      "time": 90.5,
      "duration": 0.167,
      "velocity": 0.63,
      "hand": "right"
    },
    {
      "midi": 64,
      "time": 90.667,
      "duration": 0.167,
      "velocity": 0.63,
      "hand": "right"
    },
    {
      "midi": 62,
      "time": 90.833,
      "duration": 0.167,
      "velocity": 0.63,
      "hand": "right"
    },
    {
      "midi": 38,
      "time": 91,
      "duration": 0.917,
      "velocity": 0.63,
      "hand": "left"
    },
    {
      "midi": 36,
      "time": 92,
      "duration": 4,
      "velocity": 0.63,
      "hand": "left"
    },
    {
      "midi": 36,
      "time": 92,
      "duration": 0.917,
      "velocity": 0.63,
      "hand": "left"
    },
    {
      "midi": 59,
      "time": 92,
      "duration": 0.167,
      "velocity": 0.63,
      "hand": "left"
    },
    {
      "midi": 60,
      "time": 92,
      "duration": 4,
      "velocity": 0.63,
      "hand": "right"
    },
    {
      "midi": 64,
      "time": 92,
      "duration": 0.167,
      "velocity": 0.63,
      "hand": "right"
    },
    {
      "midi": 64,
      "time": 92,
      "duration": 4,
      "velocity": 0.63,
      "hand": "right"
    },
    {
      "midi": 67,
      "time": 92,
      "duration": 4,
      "velocity": 0.63,
      "hand": "right"
    },
    {
      "midi": 71,
      "time": 92,
      "duration": 4,
      "velocity": 0.63,
      "hand": "right"
    },
    {
      "midi": 64,
      "time": 92.167,
      "duration": 0.167,
      "velocity": 0.63,
      "hand": "right"
    },
    {
      "midi": 64,
      "time": 92.333,
      "duration": 0.167,
      "velocity": 0.63,
      "hand": "right"
    },
    {
      "midi": 64,
      "time": 92.5,
      "duration": 0.083,
      "velocity": 0.63,
      "hand": "right"
    },
    {
      "midi": 64,
      "time": 92.583,
      "duration": 0.083,
      "velocity": 0.63,
      "hand": "right"
    },
    {
      "midi": 62,
      "time": 92.667,
      "duration": 0.167,
      "velocity": 0.63,
      "hand": "right"
    },
    {
      "midi": 62,
      "time": 92.833,
      "duration": 0.167,
      "velocity": 0.63,
      "hand": "right"
    },
    {
      "midi": 36,
      "time": 93,
      "duration": 0.917,
      "velocity": 0.63,
      "hand": "left"
    },
    {
      "midi": 59,
      "time": 93,
      "duration": 0.167,
      "velocity": 0.63,
      "hand": "left"
    },
    {
      "midi": 64,
      "time": 93,
      "duration": 0.167,
      "velocity": 0.63,
      "hand": "right"
    },
    {
      "midi": 64,
      "time": 93.167,
      "duration": 0.167,
      "velocity": 0.63,
      "hand": "right"
    },
    {
      "midi": 64,
      "time": 93.333,
      "duration": 0.167,
      "velocity": 0.63,
      "hand": "right"
    },
    {
      "midi": 64,
      "time": 93.5,
      "duration": 0.083,
      "velocity": 0.63,
      "hand": "right"
    },
    {
      "midi": 64,
      "time": 93.583,
      "duration": 0.083,
      "velocity": 0.63,
      "hand": "right"
    },
    {
      "midi": 62,
      "time": 93.667,
      "duration": 0.167,
      "velocity": 0.63,
      "hand": "right"
    },
    {
      "midi": 62,
      "time": 93.833,
      "duration": 0.167,
      "velocity": 0.63,
      "hand": "right"
    },
    {
      "midi": 36,
      "time": 94,
      "duration": 0.917,
      "velocity": 0.63,
      "hand": "left"
    },
    {
      "midi": 59,
      "time": 94,
      "duration": 0.167,
      "velocity": 0.63,
      "hand": "left"
    },
    {
      "midi": 64,
      "time": 94,
      "duration": 0.167,
      "velocity": 0.63,
      "hand": "right"
    },
    {
      "midi": 64,
      "time": 94.167,
      "duration": 0.167,
      "velocity": 0.63,
      "hand": "right"
    },
    {
      "midi": 64,
      "time": 94.333,
      "duration": 0.333,
      "velocity": 0.63,
      "hand": "right"
    },
    {
      "midi": 62,
      "time": 94.667,
      "duration": 0.167,
      "velocity": 0.63,
      "hand": "right"
    },
    {
      "midi": 60,
      "time": 94.833,
      "duration": 0.5,
      "velocity": 0.63,
      "hand": "right"
    },
    {
      "midi": 36,
      "time": 95,
      "duration": 0.917,
      "velocity": 0.63,
      "hand": "left"
    },
    {
      "midi": 64,
      "time": 95.333,
      "duration": 0.333,
      "velocity": 0.63,
      "hand": "right"
    },
    {
      "midi": 67,
      "time": 95.667,
      "duration": 0.333,
      "velocity": 0.63,
      "hand": "right"
    },
    {
      "midi": 41,
      "time": 96,
      "duration": 4,
      "velocity": 0.63,
      "hand": "left"
    },
    {
      "midi": 41,
      "time": 96,
      "duration": 0.917,
      "velocity": 0.63,
      "hand": "left"
    },
    {
      "midi": 60,
      "time": 96,
      "duration": 4,
      "velocity": 0.63,
      "hand": "right"
    },
    {
      "midi": 64,
      "time": 96,
      "duration": 0.917,
      "velocity": 0.63,
      "hand": "right"
    },
    {
      "midi": 64,
      "time": 96,
      "duration": 4,
      "velocity": 0.63,
      "hand": "right"
    },
    {
      "midi": 65,
      "time": 96,
      "duration": 4,
      "velocity": 0.63,
      "hand": "right"
    },
    {
      "midi": 69,
      "time": 96,
      "duration": 0.917,
      "velocity": 0.63,
      "hand": "right"
    },
    {
      "midi": 69,
      "time": 96,
      "duration": 4,
      "velocity": 0.63,
      "hand": "right"
    },
    {
      "midi": 48,
      "time": 97,
      "duration": 0.917,
      "velocity": 0.63,
      "hand": "left"
    },
    {
      "midi": 69,
      "time": 97.333,
      "duration": 0.333,
      "velocity": 0.63,
      "hand": "right"
    },
    {
      "midi": 71,
      "time": 97.667,
      "duration": 0.167,
      "velocity": 0.63,
      "hand": "right"
    },
    {
      "midi": 64,
      "time": 97.833,
      "duration": 1.083,
      "velocity": 0.63,
      "hand": "right"
    },
    {
      "midi": 72,
      "time": 97.833,
      "duration": 1.083,
      "velocity": 0.63,
      "hand": "right"
    },
    {
      "midi": 41,
      "time": 98,
      "duration": 0.917,
      "velocity": 0.63,
      "hand": "left"
    },
    {
      "midi": 48,
      "time": 99,
      "duration": 0.917,
      "velocity": 0.63,
      "hand": "left"
    },
    {
      "midi": 69,
      "time": 99.333,
      "duration": 0.333,
      "velocity": 0.63,
      "hand": "right"
    },
    {
      "midi": 72,
      "time": 99.667,
      "duration": 0.333,
      "velocity": 0.63,
      "hand": "right"
    },
    {
      "midi": 40,
      "time": 100,
      "duration": 2,
      "velocity": 0.63,
      "hand": "left"
    },
    {
      "midi": 40,
      "time": 100,
      "duration": 0.917,
      "velocity": 0.63,
      "hand": "left"
    },
    {
      "midi": 64,
      "time": 100,
      "duration": 2,
      "velocity": 0.63,
      "hand": "right"
    },
    {
      "midi": 67,
      "time": 100,
      "duration": 0.333,
      "velocity": 0.63,
      "hand": "right"
    },
    {
      "midi": 67,
      "time": 100,
      "duration": 2,
      "velocity": 0.63,
      "hand": "right"
    },
    {
      "midi": 71,
      "time": 100,
      "duration": 0.333,
      "velocity": 0.63,
      "hand": "right"
    },
    {
      "midi": 71,
      "time": 100,
      "duration": 2,
      "velocity": 0.63,
      "hand": "right"
    },
    {
      "midi": 69,
      "time": 100.333,
      "duration": 0.333,
      "velocity": 0.63,
      "hand": "right"
    },
    {
      "midi": 67,
      "time": 100.667,
      "duration": 0.333,
      "velocity": 0.63,
      "hand": "right"
    },
    {
      "midi": 47,
      "time": 101,
      "duration": 0.917,
      "velocity": 0.63,
      "hand": "left"
    },
    {
      "midi": 67,
      "time": 101,
      "duration": 0.667,
      "velocity": 0.63,
      "hand": "right"
    },
    {
      "midi": 64,
      "time": 101.667,
      "duration": 0.333,
      "velocity": 0.63,
      "hand": "right"
    },
    {
      "midi": 40,
      "time": 102,
      "duration": 1,
      "velocity": 0.63,
      "hand": "left"
    },
    {
      "midi": 40,
      "time": 102,
      "duration": 0.917,
      "velocity": 0.63,
      "hand": "left"
    },
    {
      "midi": 60,
      "time": 102,
      "duration": 1,
      "velocity": 0.63,
      "hand": "right"
    },
    {
      "midi": 64,
      "time": 102,
      "duration": 1,
      "velocity": 0.63,
      "hand": "right"
    },
    {
      "midi": 67,
      "time": 102,
      "duration": 0.333,
      "velocity": 0.63,
      "hand": "right"
    },
    {
      "midi": 67,
      "time": 102,
      "duration": 1,
      "velocity": 0.63,
      "hand": "right"
    },
    {
      "midi": 71,
      "time": 102,
      "duration": 0.333,
      "velocity": 0.63,
      "hand": "right"
    },
    {
      "midi": 69,
      "time": 102.333,
      "duration": 0.333,
      "velocity": 0.63,
      "hand": "right"
    },
    {
      "midi": 67,
      "time": 102.667,
      "duration": 0.333,
      "velocity": 0.63,
      "hand": "right"
    },
    {
      "midi": 39,
      "time": 103,
      "duration": 1,
      "velocity": 0.63,
      "hand": "left"
    },
    {
      "midi": 39,
      "time": 103,
      "duration": 0.917,
      "velocity": 0.63,
      "hand": "left"
    },
    {
      "midi": 60,
      "time": 103,
      "duration": 1,
      "velocity": 0.63,
      "hand": "right"
    },
    {
      "midi": 64,
      "time": 103,
      "duration": 1,
      "velocity": 0.63,
      "hand": "right"
    },
    {
      "midi": 67,
      "time": 103,
      "duration": 0.333,
      "velocity": 0.63,
      "hand": "right"
    },
    {
      "midi": 67,
      "time": 103,
      "duration": 1,
      "velocity": 0.63,
      "hand": "right"
    },
    {
      "midi": 71,
      "time": 103,
      "duration": 0.333,
      "velocity": 0.63,
      "hand": "right"
    },
    {
      "midi": 69,
      "time": 103.333,
      "duration": 0.333,
      "velocity": 0.63,
      "hand": "right"
    },
    {
      "midi": 67,
      "time": 103.667,
      "duration": 0.333,
      "velocity": 0.63,
      "hand": "right"
    },
    {
      "midi": 38,
      "time": 104,
      "duration": 4,
      "velocity": 0.63,
      "hand": "left"
    },
    {
      "midi": 38,
      "time": 104,
      "duration": 0.917,
      "velocity": 0.63,
      "hand": "left"
    },
    {
      "midi": 60,
      "time": 104,
      "duration": 4,
      "velocity": 0.63,
      "hand": "right"
    },
    {
      "midi": 62,
      "time": 104,
      "duration": 4,
      "velocity": 0.63,
      "hand": "right"
    },
    {
      "midi": 65,
      "time": 104,
      "duration": 4,
      "velocity": 0.63,
      "hand": "right"
    },
    {
      "midi": 67,
      "time": 104,
      "duration": 0.167,
      "velocity": 0.63,
      "hand": "right"
    },
    {
      "midi": 69,
      "time": 104,
      "duration": 4,
      "velocity": 0.63,
      "hand": "right"
    },
    {
      "midi": 60,
      "time": 104.167,
      "duration": 1.75,
      "velocity": 0.63,
      "hand": "right"
    },
    {
      "midi": 65,
      "time": 104.167,
      "duration": 1.75,
      "velocity": 0.63,
      "hand": "right"
    },
    {
      "midi": 45,
      "time": 105,
      "duration": 0.917,
      "velocity": 0.63,
      "hand": "left"
    },
    {
      "midi": 38,
      "time": 106,
      "duration": 0.917,
      "velocity": 0.63,
      "hand": "left"
    },
    {
      "midi": 60,
      "time": 106.667,
      "duration": 0.333,
      "velocity": 0.63,
      "hand": "right"
    },
    {
      "midi": 45,
      "time": 107,
      "duration": 0.917,
      "velocity": 0.63,
      "hand": "left"
    },
    {
      "midi": 67,
      "time": 107,
      "duration": 0.333,
      "velocity": 0.63,
      "hand": "right"
    },
    {
      "midi": 65,
      "time": 107.333,
      "duration": 0.333,
      "velocity": 0.63,
      "hand": "right"
    },
    {
      "midi": 64,
      "time": 107.667,
      "duration": 0.167,
      "velocity": 0.63,
      "hand": "right"
    },
    {
      "midi": 59,
      "time": 107.833,
      "duration": 1.083,
      "velocity": 0.63,
      "hand": "left"
    },
    {
      "midi": 64,
      "time": 107.833,
      "duration": 1.083,
      "velocity": 0.63,
      "hand": "right"
    },
    {
      "midi": 36,
      "time": 108,
      "duration": 4,
      "velocity": 0.63,
      "hand": "left"
    },
    {
      "midi": 36,
      "time": 108,
      "duration": 0.917,
      "velocity": 0.63,
      "hand": "left"
    },
    {
      "midi": 60,
      "time": 108,
      "duration": 4,
      "velocity": 0.63,
      "hand": "right"
    },
    {
      "midi": 64,
      "time": 108,
      "duration": 4,
      "velocity": 0.63,
      "hand": "right"
    },
    {
      "midi": 67,
      "time": 108,
      "duration": 4,
      "velocity": 0.63,
      "hand": "right"
    },
    {
      "midi": 71,
      "time": 108,
      "duration": 4,
      "velocity": 0.63,
      "hand": "right"
    },
    {
      "midi": 43,
      "time": 109,
      "duration": 0.917,
      "velocity": 0.63,
      "hand": "left"
    },
    {
      "midi": 36,
      "time": 110,
      "duration": 0.917,
      "velocity": 0.63,
      "hand": "left"
    },
    {
      "midi": 59,
      "time": 110,
      "duration": 0.167,
      "velocity": 0.63,
      "hand": "left"
    },
    {
      "midi": 64,
      "time": 110,
      "duration": 0.167,
      "velocity": 0.63,
      "hand": "right"
    },
    {
      "midi": 64,
      "time": 110.167,
      "duration": 0.167,
      "velocity": 0.63,
      "hand": "right"
    },
    {
      "midi": 64,
      "time": 110.333,
      "duration": 0.333,
      "velocity": 0.63,
      "hand": "right"
    },
    {
      "midi": 62,
      "time": 110.667,
      "duration": 0.167,
      "velocity": 0.63,
      "hand": "right"
    },
    {
      "midi": 60,
      "time": 110.833,
      "duration": 0.5,
      "velocity": 0.63,
      "hand": "right"
    },
    {
      "midi": 43,
      "time": 111,
      "duration": 0.917,
      "velocity": 0.63,
      "hand": "left"
    },
    {
      "midi": 64,
      "time": 111.333,
      "duration": 0.333,
      "velocity": 0.63,
      "hand": "right"
    },
    {
      "midi": 67,
      "time": 111.667,
      "duration": 0.333,
      "velocity": 0.63,
      "hand": "right"
    },
    {
      "midi": 41,
      "time": 112,
      "duration": 4,
      "velocity": 0.63,
      "hand": "left"
    },
    {
      "midi": 41,
      "time": 112,
      "duration": 0.917,
      "velocity": 0.63,
      "hand": "left"
    },
    {
      "midi": 60,
      "time": 112,
      "duration": 4,
      "velocity": 0.63,
      "hand": "right"
    },
    {
      "midi": 64,
      "time": 112,
      "duration": 0.917,
      "velocity": 0.63,
      "hand": "right"
    },
    {
      "midi": 64,
      "time": 112,
      "duration": 4,
      "velocity": 0.63,
      "hand": "right"
    },
    {
      "midi": 65,
      "time": 112,
      "duration": 4,
      "velocity": 0.63,
      "hand": "right"
    },
    {
      "midi": 69,
      "time": 112,
      "duration": 0.917,
      "velocity": 0.63,
      "hand": "right"
    },
    {
      "midi": 69,
      "time": 112,
      "duration": 4,
      "velocity": 0.63,
      "hand": "right"
    },
    {
      "midi": 48,
      "time": 113,
      "duration": 0.917,
      "velocity": 0.63,
      "hand": "left"
    },
    {
      "midi": 69,
      "time": 113.333,
      "duration": 0.333,
      "velocity": 0.63,
      "hand": "right"
    },
    {
      "midi": 71,
      "time": 113.667,
      "duration": 0.167,
      "velocity": 0.63,
      "hand": "right"
    },
    {
      "midi": 64,
      "time": 113.833,
      "duration": 1.083,
      "velocity": 0.63,
      "hand": "right"
    },
    {
      "midi": 72,
      "time": 113.833,
      "duration": 1.083,
      "velocity": 0.63,
      "hand": "right"
    },
    {
      "midi": 41,
      "time": 114,
      "duration": 0.917,
      "velocity": 0.63,
      "hand": "left"
    },
    {
      "midi": 48,
      "time": 115,
      "duration": 0.917,
      "velocity": 0.63,
      "hand": "left"
    },
    {
      "midi": 69,
      "time": 115.333,
      "duration": 0.333,
      "velocity": 0.63,
      "hand": "right"
    },
    {
      "midi": 72,
      "time": 115.667,
      "duration": 0.333,
      "velocity": 0.63,
      "hand": "right"
    },
    {
      "midi": 40,
      "time": 116,
      "duration": 2,
      "velocity": 0.63,
      "hand": "left"
    },
    {
      "midi": 40,
      "time": 116,
      "duration": 0.917,
      "velocity": 0.63,
      "hand": "left"
    },
    {
      "midi": 64,
      "time": 116,
      "duration": 2,
      "velocity": 0.63,
      "hand": "right"
    },
    {
      "midi": 67,
      "time": 116,
      "duration": 0.333,
      "velocity": 0.63,
      "hand": "right"
    },
    {
      "midi": 67,
      "time": 116,
      "duration": 2,
      "velocity": 0.63,
      "hand": "right"
    },
    {
      "midi": 71,
      "time": 116,
      "duration": 0.333,
      "velocity": 0.63,
      "hand": "right"
    },
    {
      "midi": 71,
      "time": 116,
      "duration": 2,
      "velocity": 0.63,
      "hand": "right"
    },
    {
      "midi": 69,
      "time": 116.333,
      "duration": 0.333,
      "velocity": 0.63,
      "hand": "right"
    },
    {
      "midi": 67,
      "time": 116.667,
      "duration": 0.333,
      "velocity": 0.63,
      "hand": "right"
    },
    {
      "midi": 47,
      "time": 117,
      "duration": 0.917,
      "velocity": 0.63,
      "hand": "left"
    },
    {
      "midi": 67,
      "time": 117,
      "duration": 0.667,
      "velocity": 0.63,
      "hand": "right"
    },
    {
      "midi": 64,
      "time": 117.667,
      "duration": 0.333,
      "velocity": 0.63,
      "hand": "right"
    },
    {
      "midi": 40,
      "time": 118,
      "duration": 1,
      "velocity": 0.63,
      "hand": "left"
    },
    {
      "midi": 40,
      "time": 118,
      "duration": 0.917,
      "velocity": 0.63,
      "hand": "left"
    },
    {
      "midi": 60,
      "time": 118,
      "duration": 1,
      "velocity": 0.63,
      "hand": "right"
    },
    {
      "midi": 64,
      "time": 118,
      "duration": 1,
      "velocity": 0.63,
      "hand": "right"
    },
    {
      "midi": 67,
      "time": 118,
      "duration": 0.333,
      "velocity": 0.63,
      "hand": "right"
    },
    {
      "midi": 67,
      "time": 118,
      "duration": 1,
      "velocity": 0.63,
      "hand": "right"
    },
    {
      "midi": 71,
      "time": 118,
      "duration": 0.333,
      "velocity": 0.63,
      "hand": "right"
    },
    {
      "midi": 69,
      "time": 118.333,
      "duration": 0.333,
      "velocity": 0.63,
      "hand": "right"
    },
    {
      "midi": 67,
      "time": 118.667,
      "duration": 0.333,
      "velocity": 0.63,
      "hand": "right"
    },
    {
      "midi": 39,
      "time": 119,
      "duration": 1,
      "velocity": 0.63,
      "hand": "left"
    },
    {
      "midi": 39,
      "time": 119,
      "duration": 0.917,
      "velocity": 0.63,
      "hand": "left"
    },
    {
      "midi": 60,
      "time": 119,
      "duration": 1,
      "velocity": 0.63,
      "hand": "right"
    },
    {
      "midi": 64,
      "time": 119,
      "duration": 1,
      "velocity": 0.63,
      "hand": "right"
    },
    {
      "midi": 67,
      "time": 119,
      "duration": 0.333,
      "velocity": 0.63,
      "hand": "right"
    },
    {
      "midi": 67,
      "time": 119,
      "duration": 1,
      "velocity": 0.63,
      "hand": "right"
    },
    {
      "midi": 71,
      "time": 119,
      "duration": 0.333,
      "velocity": 0.63,
      "hand": "right"
    },
    {
      "midi": 69,
      "time": 119.333,
      "duration": 0.333,
      "velocity": 0.63,
      "hand": "right"
    },
    {
      "midi": 67,
      "time": 119.667,
      "duration": 0.333,
      "velocity": 0.63,
      "hand": "right"
    },
    {
      "midi": 38,
      "time": 120,
      "duration": 4,
      "velocity": 0.63,
      "hand": "left"
    },
    {
      "midi": 38,
      "time": 120,
      "duration": 0.917,
      "velocity": 0.63,
      "hand": "left"
    },
    {
      "midi": 60,
      "time": 120,
      "duration": 4,
      "velocity": 0.63,
      "hand": "right"
    },
    {
      "midi": 62,
      "time": 120,
      "duration": 4,
      "velocity": 0.63,
      "hand": "right"
    },
    {
      "midi": 65,
      "time": 120,
      "duration": 4,
      "velocity": 0.63,
      "hand": "right"
    },
    {
      "midi": 67,
      "time": 120,
      "duration": 0.167,
      "velocity": 0.63,
      "hand": "right"
    },
    {
      "midi": 69,
      "time": 120,
      "duration": 4,
      "velocity": 0.63,
      "hand": "right"
    },
    {
      "midi": 60,
      "time": 120.167,
      "duration": 1.75,
      "velocity": 0.63,
      "hand": "right"
    },
    {
      "midi": 65,
      "time": 120.167,
      "duration": 1.75,
      "velocity": 0.63,
      "hand": "right"
    },
    {
      "midi": 45,
      "time": 121,
      "duration": 0.917,
      "velocity": 0.63,
      "hand": "left"
    },
    {
      "midi": 38,
      "time": 122,
      "duration": 0.917,
      "velocity": 0.63,
      "hand": "left"
    },
    {
      "midi": 60,
      "time": 122.667,
      "duration": 0.333,
      "velocity": 0.63,
      "hand": "right"
    },
    {
      "midi": 45,
      "time": 123,
      "duration": 0.917,
      "velocity": 0.63,
      "hand": "left"
    },
    {
      "midi": 67,
      "time": 123,
      "duration": 0.333,
      "velocity": 0.63,
      "hand": "right"
    },
    {
      "midi": 65,
      "time": 123.333,
      "duration": 0.333,
      "velocity": 0.63,
      "hand": "right"
    },
    {
      "midi": 64,
      "time": 123.667,
      "duration": 0.333,
      "velocity": 0.63,
      "hand": "right"
    },
    {
      "midi": 40,
      "time": 124,
      "duration": 4,
      "velocity": 0.63,
      "hand": "left"
    },
    {
      "midi": 40,
      "time": 124,
      "duration": 0.333,
      "velocity": 0.63,
      "hand": "left"
    },
    {
      "midi": 56,
      "time": 124,
      "duration": 0.917,
      "velocity": 0.63,
      "hand": "left"
    },
    {
      "midi": 64,
      "time": 124,
      "duration": 0.917,
      "velocity": 0.63,
      "hand": "right"
    },
    {
      "midi": 64,
      "time": 124,
      "duration": 4,
      "velocity": 0.63,
      "hand": "right"
    },
    {
      "midi": 68,
      "time": 124,
      "duration": 4,
      "velocity": 0.63,
      "hand": "right"
    },
    {
      "midi": 71,
      "time": 124,
      "duration": 4,
      "velocity": 0.63,
      "hand": "right"
    },
    {
      "midi": 40,
      "time": 124.333,
      "duration": 0.333,
      "velocity": 0.63,
      "hand": "left"
    },
    {
      "midi": 40,
      "time": 124.667,
      "duration": 0.333,
      "velocity": 0.63,
      "hand": "left"
    },
    {
      "midi": 40,
      "time": 125,
      "duration": 0.333,
      "velocity": 0.63,
      "hand": "left"
    },
    {
      "midi": 69,
      "time": 125,
      "duration": 0.917,
      "velocity": 0.63,
      "hand": "right"
    },
    {
      "midi": 40,
      "time": 125.333,
      "duration": 0.333,
      "velocity": 0.63,
      "hand": "left"
    },
    {
      "midi": 40,
      "time": 125.667,
      "duration": 0.333,
      "velocity": 0.63,
      "hand": "left"
    },
    {
      "midi": 40,
      "time": 126,
      "duration": 0.333,
      "velocity": 0.63,
      "hand": "left"
    },
    {
      "midi": 72,
      "time": 126,
      "duration": 0.917,
      "velocity": 0.63,
      "hand": "right"
    },
    {
      "midi": 40,
      "time": 126.333,
      "duration": 0.333,
      "velocity": 0.63,
      "hand": "left"
    },
    {
      "midi": 40,
      "time": 126.667,
      "duration": 0.333,
      "velocity": 0.63,
      "hand": "left"
    },
    {
      "midi": 74,
      "time": 127,
      "duration": 0.333,
      "velocity": 0.63,
      "hand": "right"
    },
    {
      "midi": 41,
      "time": 128,
      "duration": 6,
      "velocity": 0.63,
      "hand": "left"
    },
    {
      "midi": 41,
      "time": 128,
      "duration": 0.917,
      "velocity": 0.63,
      "hand": "left"
    },
    {
      "midi": 60,
      "time": 128,
      "duration": 6,
      "velocity": 0.63,
      "hand": "right"
    },
    {
      "midi": 64,
      "time": 128,
      "duration": 6,
      "velocity": 0.63,
      "hand": "right"
    },
    {
      "midi": 65,
      "time": 128,
      "duration": 6,
      "velocity": 0.63,
      "hand": "right"
    },
    {
      "midi": 69,
      "time": 128,
      "duration": 3.833,
      "velocity": 0.63,
      "hand": "right"
    },
    {
      "midi": 69,
      "time": 128,
      "duration": 6,
      "velocity": 0.63,
      "hand": "right"
    },
    {
      "midi": 76,
      "time": 128,
      "duration": 3.833,
      "velocity": 0.63,
      "hand": "right"
    },
    {
      "midi": 48,
      "time": 129,
      "duration": 0.917,
      "velocity": 0.63,
      "hand": "left"
    },
    {
      "midi": 52,
      "time": 130,
      "duration": 0.917,
      "velocity": 0.63,
      "hand": "left"
    },
    {
      "midi": 53,
      "time": 130,
      "duration": 0.917,
      "velocity": 0.63,
      "hand": "left"
    },
    {
      "midi": 57,
      "time": 130,
      "duration": 0.917,
      "velocity": 0.63,
      "hand": "left"
    },
    {
      "midi": 60,
      "time": 131,
      "duration": 0.917,
      "velocity": 0.63,
      "hand": "right"
    },
    {
      "midi": 41,
      "time": 132,
      "duration": 0.917,
      "velocity": 0.63,
      "hand": "left"
    },
    {
      "midi": 69,
      "time": 132,
      "duration": 0.917,
      "velocity": 0.63,
      "hand": "right"
    },
    {
      "midi": 48,
      "time": 133,
      "duration": 0.917,
      "velocity": 0.63,
      "hand": "left"
    },
    {
      "midi": 71,
      "time": 133,
      "duration": 0.917,
      "velocity": 0.63,
      "hand": "right"
    },
    {
      "midi": 41,
      "time": 134,
      "duration": 2,
      "velocity": 0.63,
      "hand": "left"
    },
    {
      "midi": 53,
      "time": 134,
      "duration": 0.917,
      "velocity": 0.63,
      "hand": "left"
    },
    {
      "midi": 56,
      "time": 134,
      "duration": 0.917,
      "velocity": 0.63,
      "hand": "left"
    },
    {
      "midi": 60,
      "time": 134,
      "duration": 2,
      "velocity": 0.63,
      "hand": "right"
    },
    {
      "midi": 60,
      "time": 134,
      "duration": 0.917,
      "velocity": 0.63,
      "hand": "right"
    },
    {
      "midi": 65,
      "time": 134,
      "duration": 2,
      "velocity": 0.63,
      "hand": "right"
    },
    {
      "midi": 68,
      "time": 134,
      "duration": 2,
      "velocity": 0.63,
      "hand": "right"
    },
    {
      "midi": 79,
      "time": 134,
      "duration": 0.917,
      "velocity": 0.63,
      "hand": "right"
    },
    {
      "midi": 62,
      "time": 135,
      "duration": 0.917,
      "velocity": 0.63,
      "hand": "right"
    },
    {
      "midi": 77,
      "time": 135,
      "duration": 0.917,
      "velocity": 0.63,
      "hand": "right"
    },
    {
      "midi": 36,
      "time": 136,
      "duration": 6,
      "velocity": 0.63,
      "hand": "left"
    },
    {
      "midi": 36,
      "time": 136,
      "duration": 0.917,
      "velocity": 0.63,
      "hand": "left"
    },
    {
      "midi": 60,
      "time": 136,
      "duration": 6,
      "velocity": 0.63,
      "hand": "right"
    },
    {
      "midi": 64,
      "time": 136,
      "duration": 6,
      "velocity": 0.63,
      "hand": "right"
    },
    {
      "midi": 67,
      "time": 136,
      "duration": 6,
      "velocity": 0.63,
      "hand": "right"
    },
    {
      "midi": 71,
      "time": 136,
      "duration": 2.333,
      "velocity": 0.63,
      "hand": "right"
    },
    {
      "midi": 71,
      "time": 136,
      "duration": 6,
      "velocity": 0.63,
      "hand": "right"
    },
    {
      "midi": 76,
      "time": 136,
      "duration": 2.333,
      "velocity": 0.63,
      "hand": "right"
    },
    {
      "midi": 43,
      "time": 137,
      "duration": 0.917,
      "velocity": 0.63,
      "hand": "left"
    },
    {
      "midi": 48,
      "time": 138,
      "duration": 0.917,
      "velocity": 0.63,
      "hand": "left"
    },
    {
      "midi": 52,
      "time": 138,
      "duration": 0.917,
      "velocity": 0.63,
      "hand": "left"
    },
    {
      "midi": 55,
      "time": 138,
      "duration": 0.917,
      "velocity": 0.63,
      "hand": "left"
    },
    {
      "midi": 74,
      "time": 138.333,
      "duration": 0.667,
      "velocity": 0.63,
      "hand": "right"
    },
    {
      "midi": 59,
      "time": 139,
      "duration": 0.917,
      "velocity": 0.63,
      "hand": "left"
    },
    {
      "midi": 69,
      "time": 139.333,
      "duration": 0.333,
      "velocity": 0.63,
      "hand": "right"
    },
    {
      "midi": 72,
      "time": 139.667,
      "duration": 0.333,
      "velocity": 0.63,
      "hand": "right"
    },
    {
      "midi": 36,
      "time": 140,
      "duration": 0.917,
      "velocity": 0.63,
      "hand": "left"
    },
    {
      "midi": 64,
      "time": 140,
      "duration": 0.917,
      "velocity": 0.63,
      "hand": "right"
    },
    {
      "midi": 71,
      "time": 140,
      "duration": 0.917,
      "velocity": 0.63,
      "hand": "right"
    },
    {
      "midi": 43,
      "time": 141,
      "duration": 0.917,
      "velocity": 0.63,
      "hand": "left"
    },
    {
      "midi": 71,
      "time": 141,
      "duration": 0.917,
      "velocity": 0.63,
      "hand": "right"
    },
    {
      "midi": 38,
      "time": 142,
      "duration": 1,
      "velocity": 0.63,
      "hand": "left"
    },
    {
      "midi": 38,
      "time": 142,
      "duration": 0.917,
      "velocity": 0.63,
      "hand": "left"
    },
    {
      "midi": 60,
      "time": 142,
      "duration": 1,
      "velocity": 0.63,
      "hand": "right"
    },
    {
      "midi": 64,
      "time": 142,
      "duration": 1,
      "velocity": 0.63,
      "hand": "right"
    },
    {
      "midi": 69,
      "time": 142,
      "duration": 0.917,
      "velocity": 0.63,
      "hand": "right"
    },
    {
      "midi": 69,
      "time": 142,
      "duration": 1,
      "velocity": 0.63,
      "hand": "right"
    },
    {
      "midi": 72,
      "time": 142,
      "duration": 0.917,
      "velocity": 0.63,
      "hand": "right"
    },
    {
      "midi": 40,
      "time": 143,
      "duration": 1,
      "velocity": 0.63,
      "hand": "left"
    },
    {
      "midi": 40,
      "time": 143,
      "duration": 0.917,
      "velocity": 0.63,
      "hand": "left"
    },
    {
      "midi": 62,
      "time": 143,
      "duration": 1,
      "velocity": 0.63,
      "hand": "right"
    },
    {
      "midi": 64,
      "time": 143,
      "duration": 1,
      "velocity": 0.63,
      "hand": "right"
    },
    {
      "midi": 68,
      "time": 143,
      "duration": 0.917,
      "velocity": 0.63,
      "hand": "right"
    },
    {
      "midi": 68,
      "time": 143,
      "duration": 1,
      "velocity": 0.63,
      "hand": "right"
    },
    {
      "midi": 71,
      "time": 143,
      "duration": 1,
      "velocity": 0.63,
      "hand": "right"
    },
    {
      "midi": 74,
      "time": 143,
      "duration": 0.917,
      "velocity": 0.63,
      "hand": "right"
    },
    {
      "midi": 41,
      "time": 144,
      "duration": 6,
      "velocity": 0.63,
      "hand": "left"
    },
    {
      "midi": 41,
      "time": 144,
      "duration": 0.917,
      "velocity": 0.63,
      "hand": "left"
    },
    {
      "midi": 60,
      "time": 144,
      "duration": 6,
      "velocity": 0.63,
      "hand": "right"
    },
    {
      "midi": 64,
      "time": 144,
      "duration": 6,
      "velocity": 0.63,
      "hand": "right"
    },
    {
      "midi": 65,
      "time": 144,
      "duration": 6,
      "velocity": 0.63,
      "hand": "right"
    },
    {
      "midi": 69,
      "time": 144,
      "duration": 3.833,
      "velocity": 0.63,
      "hand": "right"
    },
    {
      "midi": 69,
      "time": 144,
      "duration": 6,
      "velocity": 0.63,
      "hand": "right"
    },
    {
      "midi": 76,
      "time": 144,
      "duration": 3.833,
      "velocity": 0.63,
      "hand": "right"
    },
    {
      "midi": 48,
      "time": 145,
      "duration": 0.917,
      "velocity": 0.63,
      "hand": "left"
    },
    {
      "midi": 52,
      "time": 146,
      "duration": 0.917,
      "velocity": 0.63,
      "hand": "left"
    },
    {
      "midi": 53,
      "time": 146,
      "duration": 0.917,
      "velocity": 0.63,
      "hand": "left"
    },
    {
      "midi": 57,
      "time": 146,
      "duration": 0.917,
      "velocity": 0.63,
      "hand": "left"
    },
    {
      "midi": 60,
      "time": 147,
      "duration": 0.917,
      "velocity": 0.63,
      "hand": "right"
    },
    {
      "midi": 41,
      "time": 148,
      "duration": 0.917,
      "velocity": 0.63,
      "hand": "left"
    },
    {
      "midi": 69,
      "time": 148,
      "duration": 0.917,
      "velocity": 0.63,
      "hand": "right"
    },
    {
      "midi": 48,
      "time": 149,
      "duration": 0.917,
      "velocity": 0.63,
      "hand": "left"
    },
    {
      "midi": 71,
      "time": 149,
      "duration": 0.917,
      "velocity": 0.63,
      "hand": "right"
    },
    {
      "midi": 41,
      "time": 150,
      "duration": 2,
      "velocity": 0.63,
      "hand": "left"
    },
    {
      "midi": 53,
      "time": 150,
      "duration": 0.917,
      "velocity": 0.63,
      "hand": "left"
    },
    {
      "midi": 56,
      "time": 150,
      "duration": 0.917,
      "velocity": 0.63,
      "hand": "left"
    },
    {
      "midi": 60,
      "time": 150,
      "duration": 2,
      "velocity": 0.63,
      "hand": "right"
    },
    {
      "midi": 60,
      "time": 150,
      "duration": 0.917,
      "velocity": 0.63,
      "hand": "right"
    },
    {
      "midi": 65,
      "time": 150,
      "duration": 2,
      "velocity": 0.63,
      "hand": "right"
    },
    {
      "midi": 68,
      "time": 150,
      "duration": 2,
      "velocity": 0.63,
      "hand": "right"
    },
    {
      "midi": 79,
      "time": 150,
      "duration": 0.917,
      "velocity": 0.63,
      "hand": "right"
    },
    {
      "midi": 62,
      "time": 151,
      "duration": 0.917,
      "velocity": 0.63,
      "hand": "right"
    },
    {
      "midi": 77,
      "time": 151,
      "duration": 0.917,
      "velocity": 0.63,
      "hand": "right"
    },
    {
      "midi": 36,
      "time": 152,
      "duration": 6,
      "velocity": 0.63,
      "hand": "left"
    },
    {
      "midi": 36,
      "time": 152,
      "duration": 0.917,
      "velocity": 0.63,
      "hand": "left"
    },
    {
      "midi": 60,
      "time": 152,
      "duration": 6,
      "velocity": 0.63,
      "hand": "right"
    },
    {
      "midi": 64,
      "time": 152,
      "duration": 6,
      "velocity": 0.63,
      "hand": "right"
    },
    {
      "midi": 67,
      "time": 152,
      "duration": 6,
      "velocity": 0.63,
      "hand": "right"
    },
    {
      "midi": 71,
      "time": 152,
      "duration": 2.833,
      "velocity": 0.63,
      "hand": "right"
    },
    {
      "midi": 71,
      "time": 152,
      "duration": 6,
      "velocity": 0.63,
      "hand": "right"
    },
    {
      "midi": 76,
      "time": 152,
      "duration": 2.833,
      "velocity": 0.63,
      "hand": "right"
    },
    {
      "midi": 43,
      "time": 153,
      "duration": 0.917,
      "velocity": 0.63,
      "hand": "left"
    },
    {
      "midi": 48,
      "time": 154,
      "duration": 0.917,
      "velocity": 0.63,
      "hand": "left"
    },
    {
      "midi": 52,
      "time": 154,
      "duration": 0.917,
      "velocity": 0.63,
      "hand": "left"
    },
    {
      "midi": 55,
      "time": 154,
      "duration": 0.917,
      "velocity": 0.63,
      "hand": "left"
    },
    {
      "midi": 59,
      "time": 155,
      "duration": 0.917,
      "velocity": 0.63,
      "hand": "left"
    },
    {
      "midi": 69,
      "time": 155.333,
      "duration": 0.333,
      "velocity": 0.63,
      "hand": "right"
    },
    {
      "midi": 72,
      "time": 155.667,
      "duration": 0.333,
      "velocity": 0.63,
      "hand": "right"
    },
    {
      "midi": 36,
      "time": 156,
      "duration": 0.917,
      "velocity": 0.63,
      "hand": "left"
    },
    {
      "midi": 64,
      "time": 156,
      "duration": 2,
      "velocity": 0.63,
      "hand": "right"
    },
    {
      "midi": 71,
      "time": 156,
      "duration": 2,
      "velocity": 0.63,
      "hand": "right"
    },
    {
      "midi": 43,
      "time": 157,
      "duration": 0.917,
      "velocity": 0.63,
      "hand": "left"
    },
    {
      "midi": 38,
      "time": 158,
      "duration": 1,
      "velocity": 0.63,
      "hand": "left"
    },
    {
      "midi": 38,
      "time": 158,
      "duration": 0.917,
      "velocity": 0.63,
      "hand": "left"
    },
    {
      "midi": 60,
      "time": 158,
      "duration": 1,
      "velocity": 0.63,
      "hand": "right"
    },
    {
      "midi": 64,
      "time": 158,
      "duration": 0.917,
      "velocity": 0.63,
      "hand": "right"
    },
    {
      "midi": 64,
      "time": 158,
      "duration": 1,
      "velocity": 0.63,
      "hand": "right"
    },
    {
      "midi": 67,
      "time": 158,
      "duration": 1,
      "velocity": 0.63,
      "hand": "right"
    },
    {
      "midi": 70,
      "time": 158,
      "duration": 0.917,
      "velocity": 0.63,
      "hand": "right"
    },
    {
      "midi": 70,
      "time": 158,
      "duration": 1,
      "velocity": 0.63,
      "hand": "right"
    },
    {
      "midi": 40,
      "time": 159,
      "duration": 1,
      "velocity": 0.63,
      "hand": "left"
    },
    {
      "midi": 40,
      "time": 159,
      "duration": 0.917,
      "velocity": 0.63,
      "hand": "left"
    },
    {
      "midi": 60,
      "time": 159,
      "duration": 1,
      "velocity": 0.63,
      "hand": "right"
    },
    {
      "midi": 64,
      "time": 159,
      "duration": 1,
      "velocity": 0.63,
      "hand": "right"
    },
    {
      "midi": 67,
      "time": 159,
      "duration": 1,
      "velocity": 0.63,
      "hand": "right"
    },
    {
      "midi": 70,
      "time": 159,
      "duration": 0.917,
      "velocity": 0.63,
      "hand": "right"
    },
    {
      "midi": 70,
      "time": 159,
      "duration": 1,
      "velocity": 0.63,
      "hand": "right"
    },
    {
      "midi": 41,
      "time": 160,
      "duration": 5,
      "velocity": 0.63,
      "hand": "left"
    },
    {
      "midi": 41,
      "time": 160,
      "duration": 0.667,
      "velocity": 0.63,
      "hand": "left"
    },
    {
      "midi": 60,
      "time": 160,
      "duration": 5,
      "velocity": 0.63,
      "hand": "right"
    },
    {
      "midi": 64,
      "time": 160,
      "duration": 5,
      "velocity": 0.63,
      "hand": "right"
    },
    {
      "midi": 65,
      "time": 160,
      "duration": 5,
      "velocity": 0.63,
      "hand": "right"
    },
    {
      "midi": 69,
      "time": 160,
      "duration": 3.833,
      "velocity": 0.63,
      "hand": "right"
    },
    {
      "midi": 69,
      "time": 160,
      "duration": 5,
      "velocity": 0.63,
      "hand": "right"
    },
    {
      "midi": 76,
      "time": 160,
      "duration": 3.833,
      "velocity": 0.63,
      "hand": "right"
    },
    {
      "midi": 55,
      "time": 160.667,
      "duration": 0.333,
      "velocity": 0.63,
      "hand": "left"
    },
    {
      "midi": 53,
      "time": 161,
      "duration": 0.667,
      "velocity": 0.63,
      "hand": "left"
    },
    {
      "midi": 55,
      "time": 161.667,
      "duration": 0.333,
      "velocity": 0.63,
      "hand": "left"
    },
    {
      "midi": 53,
      "time": 162,
      "duration": 0.667,
      "velocity": 0.63,
      "hand": "left"
    },
    {
      "midi": 55,
      "time": 162.667,
      "duration": 0.333,
      "velocity": 0.63,
      "hand": "left"
    },
    {
      "midi": 53,
      "time": 163,
      "duration": 0.667,
      "velocity": 0.63,
      "hand": "left"
    },
    {
      "midi": 55,
      "time": 163.667,
      "duration": 0.333,
      "velocity": 0.63,
      "hand": "left"
    },
    {
      "midi": 53,
      "time": 164,
      "duration": 0.917,
      "velocity": 0.63,
      "hand": "left"
    },
    {
      "midi": 69,
      "time": 164,
      "duration": 0.917,
      "velocity": 0.63,
      "hand": "right"
    },
    {
      "midi": 36,
      "time": 165,
      "duration": 1,
      "velocity": 0.63,
      "hand": "left"
    },
    {
      "midi": 48,
      "time": 165,
      "duration": 0.917,
      "velocity": 0.63,
      "hand": "left"
    },
    {
      "midi": 55,
      "time": 165,
      "duration": 0.917,
      "velocity": 0.63,
      "hand": "left"
    },
    {
      "midi": 60,
      "time": 165,
      "duration": 1,
      "velocity": 0.63,
      "hand": "right"
    },
    {
      "midi": 64,
      "time": 165,
      "duration": 1,
      "velocity": 0.63,
      "hand": "right"
    },
    {
      "midi": 67,
      "time": 165,
      "duration": 1,
      "velocity": 0.63,
      "hand": "right"
    },
    {
      "midi": 71,
      "time": 165,
      "duration": 0.917,
      "velocity": 0.63,
      "hand": "right"
    },
    {
      "midi": 71,
      "time": 165,
      "duration": 1,
      "velocity": 0.63,
      "hand": "right"
    },
    {
      "midi": 41,
      "time": 166,
      "duration": 2,
      "velocity": 0.63,
      "hand": "left"
    },
    {
      "midi": 53,
      "time": 166,
      "duration": 0.917,
      "velocity": 0.63,
      "hand": "left"
    },
    {
      "midi": 56,
      "time": 166,
      "duration": 0.917,
      "velocity": 0.63,
      "hand": "left"
    },
    {
      "midi": 60,
      "time": 166,
      "duration": 2,
      "velocity": 0.63,
      "hand": "right"
    },
    {
      "midi": 65,
      "time": 166,
      "duration": 2,
      "velocity": 0.63,
      "hand": "right"
    },
    {
      "midi": 68,
      "time": 166,
      "duration": 2,
      "velocity": 0.63,
      "hand": "right"
    },
    {
      "midi": 79,
      "time": 166,
      "duration": 0.917,
      "velocity": 0.63,
      "hand": "right"
    },
    {
      "midi": 60,
      "time": 167,
      "duration": 0.917,
      "velocity": 0.63,
      "hand": "right"
    },
    {
      "midi": 77,
      "time": 167,
      "duration": 0.917,
      "velocity": 0.63,
      "hand": "right"
    },
    {
      "midi": 36,
      "time": 168,
      "duration": 6,
      "velocity": 0.63,
      "hand": "left"
    },
    {
      "midi": 48,
      "time": 168,
      "duration": 0.917,
      "velocity": 0.63,
      "hand": "left"
    },
    {
      "midi": 60,
      "time": 168,
      "duration": 6,
      "velocity": 0.63,
      "hand": "right"
    },
    {
      "midi": 64,
      "time": 168,
      "duration": 6,
      "velocity": 0.63,
      "hand": "right"
    },
    {
      "midi": 67,
      "time": 168,
      "duration": 6,
      "velocity": 0.63,
      "hand": "right"
    },
    {
      "midi": 71,
      "time": 168,
      "duration": 2.833,
      "velocity": 0.63,
      "hand": "right"
    },
    {
      "midi": 71,
      "time": 168,
      "duration": 6,
      "velocity": 0.63,
      "hand": "right"
    },
    {
      "midi": 76,
      "time": 168,
      "duration": 2.833,
      "velocity": 0.63,
      "hand": "right"
    },
    {
      "midi": 48,
      "time": 169,
      "duration": 0.917,
      "velocity": 0.63,
      "hand": "left"
    },
    {
      "midi": 48,
      "time": 170,
      "duration": 0.917,
      "velocity": 0.63,
      "hand": "left"
    },
    {
      "midi": 48,
      "time": 171,
      "duration": 0.917,
      "velocity": 0.63,
      "hand": "left"
    },
    {
      "midi": 71,
      "time": 171,
      "duration": 0.167,
      "velocity": 0.63,
      "hand": "right"
    },
    {
      "midi": 72,
      "time": 171.167,
      "duration": 0.167,
      "velocity": 0.63,
      "hand": "right"
    },
    {
      "midi": 74,
      "time": 171.333,
      "duration": 0.167,
      "velocity": 0.63,
      "hand": "right"
    },
    {
      "midi": 76,
      "time": 171.5,
      "duration": 0.167,
      "velocity": 0.63,
      "hand": "right"
    },
    {
      "midi": 74,
      "time": 171.667,
      "duration": 0.167,
      "velocity": 0.63,
      "hand": "right"
    },
    {
      "midi": 72,
      "time": 171.833,
      "duration": 0.167,
      "velocity": 0.63,
      "hand": "right"
    },
    {
      "midi": 36,
      "time": 172,
      "duration": 0.917,
      "velocity": 0.63,
      "hand": "left"
    },
    {
      "midi": 71,
      "time": 172,
      "duration": 0.167,
      "velocity": 0.63,
      "hand": "right"
    },
    {
      "midi": 72,
      "time": 172.167,
      "duration": 0.167,
      "velocity": 0.63,
      "hand": "right"
    },
    {
      "midi": 74,
      "time": 172.333,
      "duration": 0.167,
      "velocity": 0.63,
      "hand": "right"
    },
    {
      "midi": 76,
      "time": 172.5,
      "duration": 0.167,
      "velocity": 0.63,
      "hand": "right"
    },
    {
      "midi": 74,
      "time": 172.667,
      "duration": 0.167,
      "velocity": 0.63,
      "hand": "right"
    },
    {
      "midi": 72,
      "time": 172.833,
      "duration": 0.167,
      "velocity": 0.63,
      "hand": "right"
    },
    {
      "midi": 36,
      "time": 173,
      "duration": 0.917,
      "velocity": 0.63,
      "hand": "left"
    },
    {
      "midi": 64,
      "time": 173,
      "duration": 0.917,
      "velocity": 0.63,
      "hand": "right"
    },
    {
      "midi": 71,
      "time": 173,
      "duration": 0.917,
      "velocity": 0.63,
      "hand": "right"
    },
    {
      "midi": 36,
      "time": 174,
      "duration": 2,
      "velocity": 0.63,
      "hand": "left"
    },
    {
      "midi": 46,
      "time": 174,
      "duration": 0.917,
      "velocity": 0.63,
      "hand": "left"
    },
    {
      "midi": 60,
      "time": 174,
      "duration": 2,
      "velocity": 0.63,
      "hand": "right"
    },
    {
      "midi": 64,
      "time": 174,
      "duration": 0.917,
      "velocity": 0.63,
      "hand": "right"
    },
    {
      "midi": 64,
      "time": 174,
      "duration": 2,
      "velocity": 0.63,
      "hand": "right"
    },
    {
      "midi": 67,
      "time": 174,
      "duration": 2,
      "velocity": 0.63,
      "hand": "right"
    },
    {
      "midi": 70,
      "time": 174,
      "duration": 2,
      "velocity": 0.63,
      "hand": "right"
    },
    {
      "midi": 72,
      "time": 174,
      "duration": 0.917,
      "velocity": 0.63,
      "hand": "right"
    },
    {
      "midi": 36,
      "time": 175,
      "duration": 0.917,
      "velocity": 0.63,
      "hand": "left"
    },
    {
      "midi": 74,
      "time": 175,
      "duration": 0.917,
      "velocity": 0.63,
      "hand": "right"
    },
    {
      "midi": 41,
      "time": 176,
      "duration": 6,
      "velocity": 0.63,
      "hand": "left"
    },
    {
      "midi": 41,
      "time": 176,
      "duration": 0.917,
      "velocity": 0.63,
      "hand": "left"
    },
    {
      "midi": 60,
      "time": 176,
      "duration": 6,
      "velocity": 0.63,
      "hand": "right"
    },
    {
      "midi": 64,
      "time": 176,
      "duration": 6,
      "velocity": 0.63,
      "hand": "right"
    },
    {
      "midi": 65,
      "time": 176,
      "duration": 6,
      "velocity": 0.63,
      "hand": "right"
    },
    {
      "midi": 69,
      "time": 176,
      "duration": 2.833,
      "velocity": 0.63,
      "hand": "right"
    },
    {
      "midi": 69,
      "time": 176,
      "duration": 6,
      "velocity": 0.63,
      "hand": "right"
    },
    {
      "midi": 76,
      "time": 176,
      "duration": 2.833,
      "velocity": 0.63,
      "hand": "right"
    },
    {
      "midi": 48,
      "time": 177,
      "duration": 0.917,
      "velocity": 0.63,
      "hand": "left"
    },
    {
      "midi": 52,
      "time": 178,
      "duration": 0.917,
      "velocity": 0.63,
      "hand": "left"
    },
    {
      "midi": 53,
      "time": 178,
      "duration": 0.917,
      "velocity": 0.63,
      "hand": "left"
    },
    {
      "midi": 57,
      "time": 178,
      "duration": 0.917,
      "velocity": 0.63,
      "hand": "left"
    },
    {
      "midi": 60,
      "time": 179,
      "duration": 0.917,
      "velocity": 0.63,
      "hand": "right"
    },
    {
      "midi": 74,
      "time": 179,
      "duration": 0.167,
      "velocity": 0.63,
      "hand": "right"
    },
    {
      "midi": 76,
      "time": 179.167,
      "duration": 0.167,
      "velocity": 0.63,
      "hand": "right"
    },
    {
      "midi": 79,
      "time": 179.333,
      "duration": 0.167,
      "velocity": 0.63,
      "hand": "right"
    },
    {
      "midi": 81,
      "time": 179.5,
      "duration": 0.167,
      "velocity": 0.63,
      "hand": "right"
    },
    {
      "midi": 79,
      "time": 179.667,
      "duration": 0.167,
      "velocity": 0.63,
      "hand": "right"
    },
    {
      "midi": 76,
      "time": 179.833,
      "duration": 0.167,
      "velocity": 0.63,
      "hand": "right"
    },
    {
      "midi": 41,
      "time": 180,
      "duration": 0.917,
      "velocity": 0.63,
      "hand": "left"
    },
    {
      "midi": 69,
      "time": 180,
      "duration": 0.917,
      "velocity": 0.63,
      "hand": "right"
    },
    {
      "midi": 48,
      "time": 181,
      "duration": 0.917,
      "velocity": 0.63,
      "hand": "left"
    },
    {
      "midi": 71,
      "time": 181,
      "duration": 0.917,
      "velocity": 0.63,
      "hand": "right"
    },
    {
      "midi": 41,
      "time": 182,
      "duration": 2,
      "velocity": 0.63,
      "hand": "left"
    },
    {
      "midi": 53,
      "time": 182,
      "duration": 0.917,
      "velocity": 0.63,
      "hand": "left"
    },
    {
      "midi": 56,
      "time": 182,
      "duration": 0.917,
      "velocity": 0.63,
      "hand": "left"
    },
    {
      "midi": 60,
      "time": 182,
      "duration": 2,
      "velocity": 0.63,
      "hand": "right"
    },
    {
      "midi": 65,
      "time": 182,
      "duration": 2,
      "velocity": 0.63,
      "hand": "right"
    },
    {
      "midi": 68,
      "time": 182,
      "duration": 2,
      "velocity": 0.63,
      "hand": "right"
    },
    {
      "midi": 79,
      "time": 182,
      "duration": 0.917,
      "velocity": 0.63,
      "hand": "right"
    },
    {
      "midi": 60,
      "time": 183,
      "duration": 0.917,
      "velocity": 0.63,
      "hand": "right"
    },
    {
      "midi": 77,
      "time": 183,
      "duration": 0.917,
      "velocity": 0.63,
      "hand": "right"
    },
    {
      "midi": 36,
      "time": 184,
      "duration": 6,
      "velocity": 0.63,
      "hand": "left"
    },
    {
      "midi": 36,
      "time": 184,
      "duration": 0.917,
      "velocity": 0.63,
      "hand": "left"
    },
    {
      "midi": 60,
      "time": 184,
      "duration": 6,
      "velocity": 0.63,
      "hand": "right"
    },
    {
      "midi": 64,
      "time": 184,
      "duration": 6,
      "velocity": 0.63,
      "hand": "right"
    },
    {
      "midi": 67,
      "time": 184,
      "duration": 6,
      "velocity": 0.63,
      "hand": "right"
    },
    {
      "midi": 71,
      "time": 184,
      "duration": 0.917,
      "velocity": 0.63,
      "hand": "right"
    },
    {
      "midi": 71,
      "time": 184,
      "duration": 6,
      "velocity": 0.63,
      "hand": "right"
    },
    {
      "midi": 76,
      "time": 184,
      "duration": 0.917,
      "velocity": 0.63,
      "hand": "right"
    },
    {
      "midi": 43,
      "time": 185,
      "duration": 0.917,
      "velocity": 0.63,
      "hand": "left"
    },
    {
      "midi": 71,
      "time": 185,
      "duration": 0.167,
      "velocity": 0.63,
      "hand": "right"
    },
    {
      "midi": 72,
      "time": 185.167,
      "duration": 0.167,
      "velocity": 0.63,
      "hand": "right"
    },
    {
      "midi": 74,
      "time": 185.333,
      "duration": 0.167,
      "velocity": 0.63,
      "hand": "right"
    },
    {
      "midi": 76,
      "time": 185.5,
      "duration": 0.167,
      "velocity": 0.63,
      "hand": "right"
    },
    {
      "midi": 74,
      "time": 185.667,
      "duration": 0.167,
      "velocity": 0.63,
      "hand": "right"
    },
    {
      "midi": 72,
      "time": 185.833,
      "duration": 0.167,
      "velocity": 0.63,
      "hand": "right"
    },
    {
      "midi": 48,
      "time": 186,
      "duration": 1.917,
      "velocity": 0.63,
      "hand": "left"
    },
    {
      "midi": 71,
      "time": 186,
      "duration": 0.167,
      "velocity": 0.63,
      "hand": "right"
    },
    {
      "midi": 72,
      "time": 186.167,
      "duration": 0.167,
      "velocity": 0.63,
      "hand": "right"
    },
    {
      "midi": 74,
      "time": 186.333,
      "duration": 0.167,
      "velocity": 0.63,
      "hand": "right"
    },
    {
      "midi": 76,
      "time": 186.5,
      "duration": 0.167,
      "velocity": 0.63,
      "hand": "right"
    },
    {
      "midi": 74,
      "time": 186.667,
      "duration": 0.167,
      "velocity": 0.63,
      "hand": "right"
    },
    {
      "midi": 72,
      "time": 186.833,
      "duration": 0.167,
      "velocity": 0.63,
      "hand": "right"
    },
    {
      "midi": 71,
      "time": 187,
      "duration": 0.167,
      "velocity": 0.63,
      "hand": "right"
    },
    {
      "midi": 72,
      "time": 187.167,
      "duration": 0.167,
      "velocity": 0.63,
      "hand": "right"
    },
    {
      "midi": 74,
      "time": 187.333,
      "duration": 0.167,
      "velocity": 0.63,
      "hand": "right"
    },
    {
      "midi": 76,
      "time": 187.5,
      "duration": 0.167,
      "velocity": 0.63,
      "hand": "right"
    },
    {
      "midi": 74,
      "time": 187.667,
      "duration": 0.167,
      "velocity": 0.63,
      "hand": "right"
    },
    {
      "midi": 72,
      "time": 187.833,
      "duration": 0.167,
      "velocity": 0.63,
      "hand": "right"
    },
    {
      "midi": 50,
      "time": 188,
      "duration": 0.917,
      "velocity": 0.63,
      "hand": "left"
    },
    {
      "midi": 71,
      "time": 188,
      "duration": 0.167,
      "velocity": 0.63,
      "hand": "right"
    },
    {
      "midi": 72,
      "time": 188.167,
      "duration": 0.167,
      "velocity": 0.63,
      "hand": "right"
    },
    {
      "midi": 74,
      "time": 188.333,
      "duration": 0.167,
      "velocity": 0.63,
      "hand": "right"
    },
    {
      "midi": 76,
      "time": 188.5,
      "duration": 0.167,
      "velocity": 0.63,
      "hand": "right"
    },
    {
      "midi": 74,
      "time": 188.667,
      "duration": 0.167,
      "velocity": 0.63,
      "hand": "right"
    },
    {
      "midi": 72,
      "time": 188.833,
      "duration": 0.167,
      "velocity": 0.63,
      "hand": "right"
    },
    {
      "midi": 52,
      "time": 189,
      "duration": 0.917,
      "velocity": 0.63,
      "hand": "left"
    },
    {
      "midi": 71,
      "time": 189,
      "duration": 0.167,
      "velocity": 0.63,
      "hand": "right"
    },
    {
      "midi": 72,
      "time": 189.167,
      "duration": 0.167,
      "velocity": 0.63,
      "hand": "right"
    },
    {
      "midi": 74,
      "time": 189.333,
      "duration": 0.167,
      "velocity": 0.63,
      "hand": "right"
    },
    {
      "midi": 76,
      "time": 189.5,
      "duration": 0.167,
      "velocity": 0.63,
      "hand": "right"
    },
    {
      "midi": 74,
      "time": 189.667,
      "duration": 0.167,
      "velocity": 0.63,
      "hand": "right"
    },
    {
      "midi": 72,
      "time": 189.833,
      "duration": 0.167,
      "velocity": 0.63,
      "hand": "right"
    },
    {
      "midi": 41,
      "time": 190,
      "duration": 1,
      "velocity": 0.63,
      "hand": "left"
    },
    {
      "midi": 53,
      "time": 190,
      "duration": 0.917,
      "velocity": 0.63,
      "hand": "left"
    },
    {
      "midi": 60,
      "time": 190,
      "duration": 1,
      "velocity": 0.63,
      "hand": "right"
    },
    {
      "midi": 64,
      "time": 190,
      "duration": 1,
      "velocity": 0.63,
      "hand": "right"
    },
    {
      "midi": 67,
      "time": 190,
      "duration": 1,
      "velocity": 0.63,
      "hand": "right"
    },
    {
      "midi": 70,
      "time": 190,
      "duration": 0.167,
      "velocity": 0.63,
      "hand": "right"
    },
    {
      "midi": 70,
      "time": 190,
      "duration": 1,
      "velocity": 0.63,
      "hand": "right"
    },
    {
      "midi": 72,
      "time": 190.167,
      "duration": 0.167,
      "velocity": 0.63,
      "hand": "right"
    },
    {
      "midi": 74,
      "time": 190.333,
      "duration": 0.167,
      "velocity": 0.63,
      "hand": "right"
    },
    {
      "midi": 76,
      "time": 190.5,
      "duration": 0.167,
      "velocity": 0.63,
      "hand": "right"
    },
    {
      "midi": 74,
      "time": 190.667,
      "duration": 0.167,
      "velocity": 0.63,
      "hand": "right"
    },
    {
      "midi": 72,
      "time": 190.833,
      "duration": 0.167,
      "velocity": 0.63,
      "hand": "right"
    },
    {
      "midi": 40,
      "time": 191,
      "duration": 1,
      "velocity": 0.63,
      "hand": "left"
    },
    {
      "midi": 52,
      "time": 191,
      "duration": 0.917,
      "velocity": 0.63,
      "hand": "left"
    },
    {
      "midi": 60,
      "time": 191,
      "duration": 1,
      "velocity": 0.63,
      "hand": "right"
    },
    {
      "midi": 64,
      "time": 191,
      "duration": 1,
      "velocity": 0.63,
      "hand": "right"
    },
    {
      "midi": 67,
      "time": 191,
      "duration": 1,
      "velocity": 0.63,
      "hand": "right"
    },
    {
      "midi": 70,
      "time": 191,
      "duration": 0.917,
      "velocity": 0.63,
      "hand": "right"
    },
    {
      "midi": 70,
      "time": 191,
      "duration": 1,
      "velocity": 0.63,
      "hand": "right"
    },
    {
      "midi": 41,
      "time": 192,
      "duration": 4,
      "velocity": 0.63,
      "hand": "left"
    },
    {
      "midi": 53,
      "time": 192,
      "duration": 3.833,
      "velocity": 0.63,
      "hand": "left"
    },
    {
      "midi": 60,
      "time": 192,
      "duration": 4,
      "velocity": 0.63,
      "hand": "right"
    },
    {
      "midi": 60,
      "time": 192,
      "duration": 3.833,
      "velocity": 0.63,
      "hand": "right"
    },
    {
      "midi": 65,
      "time": 192,
      "duration": 4,
      "velocity": 0.63,
      "hand": "right"
    },
    {
      "midi": 69,
      "time": 192,
      "duration": 0.917,
      "velocity": 0.63,
      "hand": "right"
    },
    {
      "midi": 69,
      "time": 192,
      "duration": 4,
      "velocity": 0.63,
      "hand": "right"
    },
    {
      "midi": 76,
      "time": 192,
      "duration": 0.917,
      "velocity": 0.63,
      "hand": "right"
    },
    {
      "midi": 72,
      "time": 193,
      "duration": 0.917,
      "velocity": 0.63,
      "hand": "right"
    },
    {
      "midi": 69,
      "time": 194,
      "duration": 1.917,
      "velocity": 0.63,
      "hand": "right"
    },
    {
      "midi": 40,
      "time": 196,
      "duration": 4,
      "velocity": 0.63,
      "hand": "left"
    },
    {
      "midi": 52,
      "time": 196,
      "duration": 3.833,
      "velocity": 0.63,
      "hand": "left"
    },
    {
      "midi": 55,
      "time": 196,
      "duration": 3.833,
      "velocity": 0.63,
      "hand": "left"
    },
    {
      "midi": 59,
      "time": 196,
      "duration": 3.833,
      "velocity": 0.63,
      "hand": "left"
    },
    {
      "midi": 64,
      "time": 196,
      "duration": 4,
      "velocity": 0.63,
      "hand": "right"
    },
    {
      "midi": 67,
      "time": 196,
      "duration": 4,
      "velocity": 0.63,
      "hand": "right"
    },
    {
      "midi": 71,
      "time": 196,
      "duration": 4,
      "velocity": 0.63,
      "hand": "right"
    },
    {
      "midi": 76,
      "time": 196,
      "duration": 0.917,
      "velocity": 0.63,
      "hand": "right"
    },
    {
      "midi": 71,
      "time": 197,
      "duration": 0.917,
      "velocity": 0.63,
      "hand": "right"
    },
    {
      "midi": 67,
      "time": 198,
      "duration": 1.917,
      "velocity": 0.63,
      "hand": "right"
    },
    {
      "midi": 39,
      "time": 200,
      "duration": 4,
      "velocity": 0.63,
      "hand": "left"
    },
    {
      "midi": 51,
      "time": 200,
      "duration": 3.833,
      "velocity": 0.63,
      "hand": "left"
    },
    {
      "midi": 58,
      "time": 200,
      "duration": 3.833,
      "velocity": 0.63,
      "hand": "left"
    },
    {
      "midi": 63,
      "time": 200,
      "duration": 4,
      "velocity": 0.63,
      "hand": "right"
    },
    {
      "midi": 67,
      "time": 200,
      "duration": 0.917,
      "velocity": 0.63,
      "hand": "right"
    },
    {
      "midi": 67,
      "time": 200,
      "duration": 4,
      "velocity": 0.63,
      "hand": "right"
    },
    {
      "midi": 70,
      "time": 200,
      "duration": 4,
      "velocity": 0.63,
      "hand": "right"
    },
    {
      "midi": 74,
      "time": 200,
      "duration": 0.917,
      "velocity": 0.63,
      "hand": "right"
    },
    {
      "midi": 70,
      "time": 201,
      "duration": 0.917,
      "velocity": 0.63,
      "hand": "right"
    },
    {
      "midi": 69,
      "time": 202,
      "duration": 0.917,
      "velocity": 0.63,
      "hand": "right"
    },
    {
      "midi": 65,
      "time": 203,
      "duration": 0.917,
      "velocity": 0.63,
      "hand": "right"
    },
    {
      "midi": 38,
      "time": 204,
      "duration": 4,
      "velocity": 0.63,
      "hand": "left"
    },
    {
      "midi": 50,
      "time": 204,
      "duration": 3.833,
      "velocity": 0.63,
      "hand": "left"
    },
    {
      "midi": 57,
      "time": 204,
      "duration": 3.833,
      "velocity": 0.63,
      "hand": "left"
    },
    {
      "midi": 62,
      "time": 204,
      "duration": 4,
      "velocity": 0.63,
      "hand": "right"
    },
    {
      "midi": 65,
      "time": 204,
      "duration": 0.917,
      "velocity": 0.63,
      "hand": "right"
    },
    {
      "midi": 65,
      "time": 204,
      "duration": 4,
      "velocity": 0.63,
      "hand": "right"
    },
    {
      "midi": 69,
      "time": 204,
      "duration": 4,
      "velocity": 0.63,
      "hand": "right"
    },
    {
      "midi": 74,
      "time": 204,
      "duration": 0.917,
      "velocity": 0.63,
      "hand": "right"
    },
    {
      "midi": 70,
      "time": 205,
      "duration": 0.917,
      "velocity": 0.63,
      "hand": "right"
    },
    {
      "midi": 69,
      "time": 206,
      "duration": 1.917,
      "velocity": 0.63,
      "hand": "right"
    },
    {
      "midi": 36,
      "time": 208,
      "duration": 4,
      "velocity": 0.63,
      "hand": "left"
    },
    {
      "midi": 48,
      "time": 208,
      "duration": 3.833,
      "velocity": 0.63,
      "hand": "left"
    },
    {
      "midi": 51,
      "time": 208,
      "duration": 3.833,
      "velocity": 0.63,
      "hand": "left"
    },
    {
      "midi": 55,
      "time": 208,
      "duration": 3.833,
      "velocity": 0.63,
      "hand": "left"
    },
    {
      "midi": 60,
      "time": 208,
      "duration": 4,
      "velocity": 0.63,
      "hand": "right"
    },
    {
      "midi": 63,
      "time": 208,
      "duration": 4,
      "velocity": 0.63,
      "hand": "right"
    },
    {
      "midi": 67,
      "time": 208,
      "duration": 4,
      "velocity": 0.63,
      "hand": "right"
    },
    {
      "midi": 72,
      "time": 208,
      "duration": 0.917,
      "velocity": 0.63,
      "hand": "right"
    },
    {
      "midi": 67,
      "time": 209,
      "duration": 0.917,
      "velocity": 0.63,
      "hand": "right"
    },
    {
      "midi": 72,
      "time": 210,
      "duration": 0.917,
      "velocity": 0.63,
      "hand": "right"
    },
    {
      "midi": 75,
      "time": 211,
      "duration": 0.917,
      "velocity": 0.63,
      "hand": "right"
    },
    {
      "midi": 42,
      "time": 212,
      "duration": 7.5,
      "velocity": 0.39,
      "hand": "left"
    },
    {
      "midi": 54,
      "time": 212,
      "duration": 6.917,
      "velocity": 0.39,
      "hand": "left"
    },
    {
      "midi": 62,
      "time": 212,
      "duration": 7.5,
      "velocity": 0.39,
      "hand": "right"
    },
    {
      "midi": 62,
      "time": 212,
      "duration": 6.917,
      "velocity": 0.39,
      "hand": "right"
    },
    {
      "midi": 66,
      "time": 212,
      "duration": 7.5,
      "velocity": 0.39,
      "hand": "right"
    },
    {
      "midi": 69,
      "time": 212,
      "duration": 7.5,
      "velocity": 0.39,
      "hand": "right"
    },
    {
      "midi": 74,
      "time": 212,
      "duration": 1.417,
      "velocity": 0.39,
      "hand": "right"
    },
    {
      "midi": 66,
      "time": 213.5,
      "duration": 0.75,
      "velocity": 0.39,
      "hand": "right"
    },
    {
      "midi": 69,
      "time": 214.25,
      "duration": 0.75,
      "velocity": 0.39,
      "hand": "right"
    },
    {
      "midi": 72,
      "time": 215,
      "duration": 1.417,
      "velocity": 0.39,
      "hand": "right"
    },
    {
      "midi": 74,
      "time": 216.5,
      "duration": 0.333,
      "velocity": 0.39,
      "hand": "right"
    },
    {
      "midi": 69,
      "time": 216.833,
      "duration": 0.333,
      "velocity": 0.39,
      "hand": "right"
    },
    {
      "midi": 78,
      "time": 217.25,
      "duration": 0.75,
      "velocity": 0.39,
      "hand": "right"
    },
    {
      "midi": 81,
      "time": 218,
      "duration": 1.417,
      "velocity": 0.39,
      "hand": "right"
    }
  ]
}
