{
  "id": "gymnopedie-no-1",
  "title": "Gymnopédie nº 1",
  "artist": "Erik Satie",
  "difficulty": "Médio",
  "bpm": 60,
  "duration": 141,
  "category": "Intro de Filmes",
  "isPremium": true,
  "coverUrl": "/images/covers/placeholder.png",
  "notes": [
    {
      "midi": 43,
      "time": 0,
      "duration": 3,
      "velocity": 0.71,
      "hand": "left"
    },
    {
      "midi": 59,
      "time": 1,
      "duration": 2,
      "velocity": 0.71,
      "hand": "left"
    },
    {
      "midi": 62,
      "time": 1,
      "duration": 2,
      "velocity": 0.71,
      "hand": "right"
    },
    {
      "midi": 66,
      "time": 1,
      "duration": 2,
      "velocity": 0.71,
      "hand": "right"
    },
    {
      "midi": 38,
      "time": 3,
      "duration": 3,
      "velocity": 0.71,
      "hand": "left"
    },
    {
      "midi": 57,
      "time": 4,
      "duration": 2,
      "velocity": 0.71,
      "hand": "left"
    },
    {
      "midi": 61,
      "time": 4,
      "duration": 2,
      "velocity": 0.71,
      "hand": "right"
    },
    {
      "midi": 66,
      "time": 4,
      "duration": 2,
      "velocity": 0.71,
      "hand": "right"
    },
    {
      "midi": 43,
      "time": 6,
      "duration": 3,
      "velocity": 0.71,
      "hand": "left"
    },
    {
      "midi": 59,
      "time": 7,
      "duration": 2,
      "velocity": 0.71,
      "hand": "left"
    },
    {
      "midi": 62,
      "time": 7,
      "duration": 2,
      "velocity": 0.71,
      "hand": "right"
    },
    {
      "midi": 66,
      "time": 7,
      "duration": 2,
      "velocity": 0.71,
      "hand": "right"
    },
    {
      "midi": 38,
      "time": 9,
      "duration": 3,
      "velocity": 0.71,
      "hand": "left"
    },
    {
      "midi": 57,
      "time": 10,
      "duration": 2,
      "velocity": 0.71,
      "hand": "left"
    },
    {
      "midi": 61,
      "time": 10,
      "duration": 2,
      "velocity": 0.71,
      "hand": "right"
    },
    {
      "midi": 66,
      "time": 10,
      "duration": 2,
      "velocity": 0.71,
      "hand": "right"
    },
    {
      "midi": 43,
      "time": 12,
      "duration": 3,
      "velocity": 0.71,
      "hand": "left"
    },
    {
      "midi": 59,
      "time": 13,
      "duration": 2,
      "velocity": 0.71,
      "hand": "left"
    },
    {
      "midi": 62,
      "time": 13,
      "duration": 2,
      "velocity": 0.71,
      "hand": "right"
    },
    {
      "midi": 66,
      "time": 13,
      "duration": 2,
      "velocity": 0.71,
      "hand": "right"
    },
    {
      "midi": 78,
      "time": 13,
      "duration": 1,
      "velocity": 0.49,
      "hand": "right"
    },
    {
      "midi": 81,
      "time": 14,
      "duration": 1,
      "velocity": 0.52,
      "hand": "right"
    },
    {
      "midi": 38,
      "time": 15,
      "duration": 3,
      "velocity": 0.71,
      "hand": "left"
    },
    {
      "midi": 79,
      "time": 15,
      "duration": 1,
      "velocity": 0.56,
      "hand": "right"
    },
    {
      "midi": 57,
      "time": 16,
      "duration": 2,
      "velocity": 0.71,
      "hand": "left"
    },
    {
      "midi": 61,
      "time": 16,
      "duration": 2,
      "velocity": 0.71,
      "hand": "right"
    },
    {
      "midi": 66,
      "time": 16,
      "duration": 2,
      "velocity": 0.71,
      "hand": "right"
    },
    {
      "midi": 78,
      "time": 16,
      "duration": 1,
      "velocity": 0.6,
      "hand": "right"
    },
    {
      "midi": 73,
      "time": 17,
      "duration": 1,
      "velocity": 0.64,
      "hand": "right"
    },
    {
      "midi": 43,
      "time": 18,
      "duration": 3,
      "velocity": 0.71,
      "hand": "left"
    },
    {
      "midi": 71,
      "time": 18,
      "duration": 1,
      "velocity": 0.68,
      "hand": "right"
    },
    {
      "midi": 59,
      "time": 19,
      "duration": 2,
      "velocity": 0.71,
      "hand": "left"
    },
    {
      "midi": 62,
      "time": 19,
      "duration": 2,
      "velocity": 0.71,
      "hand": "right"
    },
    {
      "midi": 66,
      "time": 19,
      "duration": 2,
      "velocity": 0.71,
      "hand": "right"
    },
    {
      "midi": 73,
      "time": 19,
      "duration": 1,
      "velocity": 0.71,
      "hand": "right"
    },
    {
      "midi": 74,
      "time": 20,
      "duration": 1,
      "velocity": 0.71,
      "hand": "right"
    },
    {
      "midi": 38,
      "time": 21,
      "duration": 3,
      "velocity": 0.71,
      "hand": "left"
    },
    {
      "midi": 69,
      "time": 21,
      "duration": 3,
      "velocity": 0.65,
      "hand": "right"
    },
    {
      "midi": 57,
      "time": 22,
      "duration": 2,
      "velocity": 0.71,
      "hand": "left"
    },
    {
      "midi": 61,
      "time": 22,
      "duration": 2,
      "velocity": 0.71,
      "hand": "right"
    },
    {
      "midi": 66,
      "time": 22,
      "duration": 2,
      "velocity": 0.71,
      "hand": "right"
    },
    {
      "midi": 43,
      "time": 24,
      "duration": 3,
      "velocity": 0.71,
      "hand": "left"
    },
    {
      "midi": 66,
      "time": 24,
      "duration": 1,
      "velocity": 0.49,
      "hand": "right"
    },
    {
      "midi": 59,
      "time": 25,
      "duration": 2,
      "velocity": 0.75,
      "hand": "left"
    },
    {
      "midi": 62,
      "time": 25,
      "duration": 2,
      "velocity": 0.75,
      "hand": "right"
    },
    {
      "midi": 66,
      "time": 25,
      "duration": 3,
      "velocity": 0.75,
      "hand": "right"
    },
    {
      "midi": 38,
      "time": 27,
      "duration": 3,
      "velocity": 0.71,
      "hand": "left"
    },
    {
      "midi": 57,
      "time": 28,
      "duration": 2,
      "velocity": 0.75,
      "hand": "left"
    },
    {
      "midi": 61,
      "time": 28,
      "duration": 2,
      "velocity": 0.75,
      "hand": "right"
    },
    {
      "midi": 66,
      "time": 28,
      "duration": 3,
      "velocity": 0.75,
      "hand": "right"
    },
    {
      "midi": 43,
      "time": 30,
      "duration": 3,
      "velocity": 0.71,
      "hand": "left"
    },
    {
      "midi": 59,
      "time": 31,
      "duration": 2,
      "velocity": 0.75,
      "hand": "left"
    },
    {
      "midi": 62,
      "time": 31,
      "duration": 2,
      "velocity": 0.75,
      "hand": "right"
    },
    {
      "midi": 66,
      "time": 31,
      "duration": 3,
      "velocity": 0.75,
      "hand": "right"
    },
    {
      "midi": 38,
      "time": 33,
      "duration": 3,
      "velocity": 0.71,
      "hand": "left"
    },
    {
      "midi": 57,
      "time": 34,
      "duration": 2,
      "velocity": 0.75,
      "hand": "left"
    },
    {
      "midi": 61,
      "time": 34,
      "duration": 2,
      "velocity": 0.75,
      "hand": "right"
    },
    {
      "midi": 66,
      "time": 34,
      "duration": 2,
      "velocity": 0.75,
      "hand": "right"
    },
    {
      "midi": 43,
      "time": 36,
      "duration": 3,
      "velocity": 0.71,
      "hand": "left"
    },
    {
      "midi": 59,
      "time": 37,
      "duration": 2,
      "velocity": 0.49,
      "hand": "left"
    },
    {
      "midi": 62,
      "time": 37,
      "duration": 2,
      "velocity": 0.49,
      "hand": "right"
    },
    {
      "midi": 66,
      "time": 37,
      "duration": 2,
      "velocity": 0.49,
      "hand": "right"
    },
    {
      "midi": 78,
      "time": 37,
      "duration": 1,
      "velocity": 0.49,
      "hand": "right"
    },
    {
      "midi": 81,
      "time": 38,
      "duration": 1,
      "velocity": 0.52,
      "hand": "right"
    },
    {
      "midi": 38,
      "time": 39,
      "duration": 3,
      "velocity": 0.71,
      "hand": "left"
    },
    {
      "midi": 79,
      "time": 39,
      "duration": 1,
      "velocity": 0.55,
      "hand": "right"
    },
    {
      "midi": 57,
      "time": 40,
      "duration": 2,
      "velocity": 0.49,
      "hand": "left"
    },
    {
      "midi": 61,
      "time": 40,
      "duration": 2,
      "velocity": 0.49,
      "hand": "right"
    },
    {
      "midi": 66,
      "time": 40,
      "duration": 2,
      "velocity": 0.49,
      "hand": "right"
    },
    {
      "midi": 78,
      "time": 40,
      "duration": 1,
      "velocity": 0.58,
      "hand": "right"
    },
    {
      "midi": 73,
      "time": 41,
      "duration": 1,
      "velocity": 0.61,
      "hand": "right"
    },
    {
      "midi": 43,
      "time": 42,
      "duration": 3,
      "velocity": 0.71,
      "hand": "left"
    },
    {
      "midi": 71,
      "time": 42,
      "duration": 1,
      "velocity": 0.65,
      "hand": "right"
    },
    {
      "midi": 59,
      "time": 43,
      "duration": 2,
      "velocity": 0.49,
      "hand": "left"
    },
    {
      "midi": 62,
      "time": 43,
      "duration": 2,
      "velocity": 0.49,
      "hand": "right"
    },
    {
      "midi": 66,
      "time": 43,
      "duration": 2,
      "velocity": 0.49,
      "hand": "right"
    },
    {
      "midi": 73,
      "time": 43,
      "duration": 1,
      "velocity": 0.68,
      "hand": "right"
    },
    {
      "midi": 74,
      "time": 44,
      "duration": 1,
      "velocity": 0.71,
      "hand": "right"
    },
    {
      "midi": 38,
      "time": 45,
      "duration": 3,
      "velocity": 0.71,
      "hand": "left"
    },
    {
      "midi": 69,
      "time": 45,
      "duration": 3,
      "velocity": 0.71,
      "hand": "right"
    },
    {
      "midi": 57,
      "time": 46,
      "duration": 2,
      "velocity": 0.49,
      "hand": "left"
    },
    {
      "midi": 61,
      "time": 46,
      "duration": 2,
      "velocity": 0.49,
      "hand": "right"
    },
    {
      "midi": 66,
      "time": 46,
      "duration": 2,
      "velocity": 0.49,
      "hand": "right"
    },
    {
      "midi": 42,
      "time": 48,
      "duration": 3,
      "velocity": 0.71,
      "hand": "left"
    },
    {
      "midi": 73,
      "time": 48,
      "duration": 3,
      "velocity": 0.64,
      "hand": "right"
    },
    {
      "midi": 57,
      "time": 49,
      "duration": 2,
      "velocity": 0.49,
      "hand": "left"
    },
    {
      "midi": 61,
      "time": 49,
      "duration": 2,
      "velocity": 0.49,
      "hand": "right"
    },
    {
      "midi": 66,
      "time": 49,
      "duration": 2,
      "velocity": 0.49,
      "hand": "right"
    },
    {
      "midi": 35,
      "time": 51,
      "duration": 3,
      "velocity": 0.71,
      "hand": "left"
    },
    {
      "midi": 78,
      "time": 51,
      "duration": 3,
      "velocity": 0.56,
      "hand": "right"
    },
    {
      "midi": 59,
      "time": 52,
      "duration": 2,
      "velocity": 0.49,
      "hand": "left"
    },
    {
      "midi": 62,
      "time": 52,
      "duration": 2,
      "velocity": 0.49,
      "hand": "right"
    },
    {
      "midi": 66,
      "time": 52,
      "duration": 2,
      "velocity": 0.49,
      "hand": "right"
    },
    {
      "midi": 40,
      "time": 54,
      "duration": 3,
      "velocity": 0.71,
      "hand": "left"
    },
    {
      "midi": 64,
      "time": 54,
      "duration": 9,
      "velocity": 0.49,
      "hand": "right"
    },
    {
      "midi": 55,
      "time": 55,
      "duration": 2,
      "velocity": 0.71,
      "hand": "left"
    },
    {
      "midi": 59,
      "time": 55,
      "duration": 2,
      "velocity": 0.71,
      "hand": "left"
    },
    {
      "midi": 40,
      "time": 57,
      "duration": 3,
      "velocity": 0.71,
      "hand": "left"
    },
    {
      "midi": 59,
      "time": 58,
      "duration": 2,
      "velocity": 0.71,
      "hand": "left"
    },
    {
      "midi": 62,
      "time": 58,
      "duration": 2,
      "velocity": 0.71,
      "hand": "right"
    },
    {
      "midi": 67,
      "time": 58,
      "duration": 2,
      "velocity": 0.71,
      "hand": "right"
    },
    {
      "midi": 38,
      "time": 60,
      "duration": 3,
      "velocity": 0.71,
      "hand": "left"
    },
    {
      "midi": 53,
      "time": 61,
      "duration": 2,
      "velocity": 0.71,
      "hand": "left"
    },
    {
      "midi": 57,
      "time": 61,
      "duration": 2,
      "velocity": 0.71,
      "hand": "left"
    },
    {
      "midi": 62,
      "time": 61,
      "duration": 2,
      "velocity": 0.71,
      "hand": "right"
    },
    {
      "midi": 33,
      "time": 63,
      "duration": 3,
      "velocity": 0.71,
      "hand": "left"
    },
    {
      "midi": 69,
      "time": 63,
      "duration": 1,
      "velocity": 0.49,
      "hand": "right"
    },
    {
      "midi": 57,
      "time": 64,
      "duration": 2,
      "velocity": 0.54,
      "hand": "left"
    },
    {
      "midi": 60,
      "time": 64,
      "duration": 2,
      "velocity": 0.54,
      "hand": "right"
    },
    {
      "midi": 64,
      "time": 64,
      "duration": 2,
      "velocity": 0.54,
      "hand": "right"
    },
    {
      "midi": 71,
      "time": 64,
      "duration": 1,
      "velocity": 0.51,
      "hand": "right"
    },
    {
      "midi": 72,
      "time": 65,
      "duration": 1,
      "velocity": 0.54,
      "hand": "right"
    },
    {
      "midi": 38,
      "time": 66,
      "duration": 3,
      "velocity": 0.71,
      "hand": "left"
    },
    {
      "midi": 76,
      "time": 66,
      "duration": 1,
      "velocity": 0.57,
      "hand": "right"
    },
    {
      "midi": 55,
      "time": 67,
      "duration": 2,
      "velocity": 0.54,
      "hand": "left"
    },
    {
      "midi": 59,
      "time": 67,
      "duration": 2,
      "velocity": 0.54,
      "hand": "left"
    },
    {
      "midi": 64,
      "time": 67,
      "duration": 2,
      "velocity": 0.54,
      "hand": "right"
    },
    {
      "midi": 74,
      "time": 67,
      "duration": 1,
      "velocity": 0.6,
      "hand": "right"
    },
    {
      "midi": 71,
      "time": 68,
      "duration": 1,
      "velocity": 0.63,
      "hand": "right"
    },
    {
      "midi": 38,
      "time": 69,
      "duration": 3,
      "velocity": 0.71,
      "hand": "left"
    },
    {
      "midi": 74,
      "time": 69,
      "duration": 1,
      "velocity": 0.65,
      "hand": "right"
    },
    {
      "midi": 50,
      "time": 70,
      "duration": 2,
      "velocity": 0.54,
      "hand": "left"
    },
    {
      "midi": 55,
      "time": 70,
      "duration": 2,
      "velocity": 0.54,
      "hand": "left"
    },
    {
      "midi": 59,
      "time": 70,
      "duration": 2,
      "velocity": 0.54,
      "hand": "left"
    },
    {
      "midi": 64,
      "time": 70,
      "duration": 2,
      "velocity": 0.54,
      "hand": "right"
    },
    {
      "midi": 72,
      "time": 70,
      "duration": 1,
      "velocity": 0.69,
      "hand": "right"
    },
    {
      "midi": 71,
      "time": 71,
      "duration": 1,
      "velocity": 0.71,
      "hand": "right"
    },
    {
      "midi": 38,
      "time": 72,
      "duration": 3,
      "velocity": 0.71,
      "hand": "left"
    },
    {
      "midi": 74,
      "time": 72,
      "duration": 5,
      "velocity": 0.71,
      "hand": "right"
    },
    {
      "midi": 48,
      "time": 73,
      "duration": 2,
      "velocity": 0.54,
      "hand": "left"
    },
    {
      "midi": 52,
      "time": 73,
      "duration": 2,
      "velocity": 0.54,
      "hand": "left"
    },
    {
      "midi": 57,
      "time": 73,
      "duration": 2,
      "velocity": 0.54,
      "hand": "left"
    },
    {
      "midi": 62,
      "time": 73,
      "duration": 2,
      "velocity": 0.54,
      "hand": "right"
    },
    {
      "midi": 38,
      "time": 75,
      "duration": 3,
      "velocity": 0.71,
      "hand": "left"
    },
    {
      "midi": 48,
      "time": 76,
      "duration": 2,
      "velocity": 0.54,
      "hand": "left"
    },
    {
      "midi": 54,
      "time": 76,
      "duration": 2,
      "velocity": 0.54,
      "hand": "left"
    },
    {
      "midi": 57,
      "time": 76,
      "duration": 2,
      "velocity": 0.54,
      "hand": "left"
    },
    {
      "midi": 62,
      "time": 76,
      "duration": 2,
      "velocity": 0.54,
      "hand": "right"
    },
    {
      "midi": 74,
      "time": 77,
      "duration": 1,
      "velocity": 0.49,
      "hand": "right"
    },
    {
      "midi": 38,
      "time": 78,
      "duration": 3,
      "velocity": 0.71,
      "hand": "left"
    },
    {
      "midi": 76,
      "time": 78,
      "duration": 1,
      "velocity": 0.52,
      "hand": "right"
    },
    {
      "midi": 57,
      "time": 79,
      "duration": 2,
      "velocity": 0.54,
      "hand": "left"
    },
    {
      "midi": 60,
      "time": 79,
      "duration": 2,
      "velocity": 0.54,
      "hand": "right"
    },
    {
      "midi": 65,
      "time": 79,
      "duration": 2,
      "velocity": 0.54,
      "hand": "right"
    },
    {
      "midi": 77,
      "time": 79,
      "duration": 1,
      "velocity": 0.56,
      "hand": "right"
    },
    {
      "midi": 79,
      "time": 80,
      "duration": 1,
      "velocity": 0.6,
      "hand": "right"
    },
    {
      "midi": 38,
      "time": 81,
      "duration": 3,
      "velocity": 0.71,
      "hand": "left"
    },
    {
      "midi": 81,
      "time": 81,
      "duration": 1,
      "velocity": 0.64,
      "hand": "right"
    },
    {
      "midi": 57,
      "time": 82,
      "duration": 2,
      "velocity": 0.54,
      "hand": "left"
    },
    {
      "midi": 60,
      "time": 82,
      "duration": 2,
      "velocity": 0.54,
      "hand": "right"
    },
    {
      "midi": 64,
      "time": 82,
      "duration": 2,
      "velocity": 0.54,
      "hand": "right"
    },
    {
      "midi": 72,
      "time": 82,
      "duration": 1,
      "velocity": 0.68,
      "hand": "right"
    },
    {
      "midi": 74,
      "time": 83,
      "duration": 1,
      "velocity": 0.71,
      "hand": "right"
    },
    {
      "midi": 38,
      "time": 84,
      "duration": 3,
      "velocity": 0.71,
      "hand": "left"
    },
    {
      "midi": 76,
      "time": 84,
      "duration": 1,
      "velocity": 0.71,
      "hand": "right"
    },
    {
      "midi": 50,
      "time": 85,
      "duration": 2,
      "velocity": 0.54,
      "hand": "left"
    },
    {
      "midi": 55,
      "time": 85,
      "duration": 2,
      "velocity": 0.54,
      "hand": "left"
    },
    {
      "midi": 59,
      "time": 85,
      "duration": 2,
      "velocity": 0.54,
      "hand": "left"
    },
    {
      "midi": 64,
      "time": 85,
      "duration": 2,
      "velocity": 0.54,
      "hand": "right"
    },
    {
      "midi": 74,
      "time": 85,
      "duration": 1,
      "velocity": 0.64,
      "hand": "right"
    },
    {
      "midi": 71,
      "time": 86,
      "duration": 1,
      "velocity": 0.56,
      "hand": "right"
    },
    {
      "midi": 38,
      "time": 87,
      "duration": 3,
      "velocity": 0.71,
      "hand": "left"
    },
    {
      "midi": 74,
      "time": 87,
      "duration": 5,
      "velocity": 0.49,
      "hand": "right"
    },
    {
      "midi": 48,
      "time": 88,
      "duration": 2,
      "velocity": 0.54,
      "hand": "left"
    },
    {
      "midi": 52,
      "time": 88,
      "duration": 2,
      "velocity": 0.54,
      "hand": "left"
    },
    {
      "midi": 57,
      "time": 88,
      "duration": 2,
      "velocity": 0.54,
      "hand": "left"
    },
    {
      "midi": 62,
      "time": 88,
      "duration": 2,
      "velocity": 0.54,
      "hand": "right"
    },
    {
      "midi": 38,
      "time": 90,
      "duration": 3,
      "velocity": 0.71,
      "hand": "left"
    },
    {
      "midi": 48,
      "time": 91,
      "duration": 2,
      "velocity": 0.54,
      "hand": "left"
    },
    {
      "midi": 54,
      "time": 91,
      "duration": 2,
      "velocity": 0.54,
      "hand": "left"
    },
    {
      "midi": 57,
      "time": 91,
      "duration": 2,
      "velocity": 0.54,
      "hand": "left"
    },
    {
      "midi": 62,
      "time": 91,
      "duration": 2,
      "velocity": 0.54,
      "hand": "right"
    },
    {
      "midi": 74,
      "time": 92,
      "duration": 1,
      "velocity": 0.49,
      "hand": "right"
    },
    {
      "midi": 40,
      "time": 93,
      "duration": 3,
      "velocity": 0.71,
      "hand": "left"
    },
    {
      "midi": 79,
      "time": 93,
      "duration": 3,
      "velocity": 0.49,
      "hand": "right"
    },
    {
      "midi": 59,
      "time": 94,
      "duration": 2,
      "velocity": 0.49,
      "hand": "left"
    },
    {
      "midi": 64,
      "time": 94,
      "duration": 2,
      "velocity": 0.49,
      "hand": "right"
    },
    {
      "midi": 67,
      "time": 94,
      "duration": 2,
      "velocity": 0.49,
      "hand": "right"
    },
    {
      "midi": 42,
      "time": 96,
      "duration": 3,
      "velocity": 0.71,
      "hand": "left"
    },
    {
      "midi": 78,
      "time": 96,
      "duration": 3,
      "velocity": 0.71,
      "hand": "right"
    },
    {
      "midi": 57,
      "time": 97,
      "duration": 2,
      "velocity": 0.49,
      "hand": "left"
    },
    {
      "midi": 61,
      "time": 97,
      "duration": 2,
      "velocity": 0.49,
      "hand": "right"
    },
    {
      "midi": 66,
      "time": 97,
      "duration": 2,
      "velocity": 0.49,
      "hand": "right"
    },
    {
      "midi": 35,
      "time": 99,
      "duration": 3,
      "velocity": 0.71,
      "hand": "left"
    },
    {
      "midi": 71,
      "time": 99,
      "duration": 1,
      "velocity": 0.71,
      "hand": "right"
    },
    {
      "midi": 59,
      "time": 100,
      "duration": 2,
      "velocity": 0.49,
      "hand": "left"
    },
    {
      "midi": 62,
      "time": 100,
      "duration": 2,
      "velocity": 0.49,
      "hand": "right"
    },
    {
      "midi": 66,
      "time": 100,
      "duration": 2,
      "velocity": 0.49,
      "hand": "right"
    },
    {
      "midi": 69,
      "time": 100,
      "duration": 1,
      "velocity": 0.71,
      "hand": "right"
    },
    {
      "midi": 71,
      "time": 101,
      "duration": 1,
      "velocity": 0.71,
      "hand": "right"
    },
    {
      "midi": 40,
      "time": 102,
      "duration": 3,
      "velocity": 0.71,
      "hand": "left"
    },
    {
      "midi": 73,
      "time": 102,
      "duration": 1,
      "velocity": 0.71,
      "hand": "right"
    },
    {
      "midi": 61,
      "time": 103,
      "duration": 2,
      "velocity": 0.49,
      "hand": "right"
    },
    {
      "midi": 64,
      "time": 103,
      "duration": 2,
      "velocity": 0.49,
      "hand": "right"
    },
    {
      "midi": 69,
      "time": 103,
      "duration": 2,
      "velocity": 0.49,
      "hand": "right"
    },
    {
      "midi": 74,
      "time": 103,
      "duration": 1,
      "velocity": 0.71,
      "hand": "right"
    },
    {
      "midi": 76,
      "time": 104,
      "duration": 1,
      "velocity": 0.71,
      "hand": "right"
    },
    {
      "midi": 40,
      "time": 105,
      "duration": 3,
      "velocity": 0.71,
      "hand": "left"
    },
    {
      "midi": 73,
      "time": 105,
      "duration": 1,
      "velocity": 0.71,
      "hand": "right"
    },
    {
      "midi": 57,
      "time": 106,
      "duration": 2,
      "velocity": 0.49,
      "hand": "left"
    },
    {
      "midi": 61,
      "time": 106,
      "duration": 2,
      "velocity": 0.49,
      "hand": "right"
    },
    {
      "midi": 66,
      "time": 106,
      "duration": 2,
      "velocity": 0.49,
      "hand": "right"
    },
    {
      "midi": 69,
      "time": 106,
      "duration": 2,
      "velocity": 0.49,
      "hand": "right"
    },
    {
      "midi": 74,
      "time": 106,
      "duration": 1,
      "velocity": 0.71,
      "hand": "right"
    },
    {
      "midi": 76,
      "time": 107,
      "duration": 1,
      "velocity": 0.67,
      "hand": "right"
    },
    {
      "midi": 40,
      "time": 108,
      "duration": 3,
      "velocity": 0.71,
      "hand": "left"
    },
    {
      "midi": 66,
      "time": 108,
      "duration": 3,
      "velocity": 0.62,
      "hand": "right"
    },
    {
      "midi": 47,
      "time": 109,
      "duration": 1,
      "velocity": 0.71,
      "hand": "left"
    },
    {
      "midi": 57,
      "time": 109,
      "duration": 1,
      "velocity": 0.49,
      "hand": "left"
    },
    {
      "midi": 62,
      "time": 109,
      "duration": 1,
      "velocity": 0.49,
      "hand": "right"
    },
    {
      "midi": 52,
      "time": 110,
      "duration": 1,
      "velocity": 0.71,
      "hand": "left"
    },
    {
      "midi": 59,
      "time": 110,
      "duration": 1,
      "velocity": 0.49,
      "hand": "left"
    },
    {
      "midi": 62,
      "time": 110,
      "duration": 1,
      "velocity": 0.49,
      "hand": "right"
    },
    {
      "midi": 67,
      "time": 110,
      "duration": 1,
      "velocity": 0.49,
      "hand": "right"
    },
    {
      "midi": 45,
      "time": 111,
      "duration": 3,
      "velocity": 0.71,
      "hand": "left"
    },
    {
      "midi": 55,
      "time": 111,
      "duration": 3,
      "velocity": 0.71,
      "hand": "left"
    },
    {
      "midi": 60,
      "time": 111,
      "duration": 3,
      "velocity": 0.49,
      "hand": "right"
    },
    {
      "midi": 64,
      "time": 111,
      "duration": 3,
      "velocity": 0.49,
      "hand": "right"
    },
    {
      "midi": 69,
      "time": 111,
      "duration": 3,
      "velocity": 0.49,
      "hand": "right"
    },
    {
      "midi": 72,
      "time": 111,
      "duration": 3,
      "velocity": 0.49,
      "hand": "right"
    },
    {
      "midi": 38,
      "time": 114,
      "duration": 3,
      "velocity": 0.71,
      "hand": "left"
    },
    {
      "midi": 45,
      "time": 114,
      "duration": 3,
      "velocity": 0.71,
      "hand": "left"
    },
    {
      "midi": 50,
      "time": 114,
      "duration": 3,
      "velocity": 0.71,
      "hand": "left"
    },
    {
      "midi": 62,
      "time": 114,
      "duration": 3,
      "velocity": 0.49,
      "hand": "right"
    },
    {
      "midi": 66,
      "time": 114,
      "duration": 3,
      "velocity": 0.49,
      "hand": "right"
    },
    {
      "midi": 69,
      "time": 114,
      "duration": 3,
      "velocity": 0.49,
      "hand": "right"
    },
    {
      "midi": 74,
      "time": 114,
      "duration": 3,
      "velocity": 0.49,
      "hand": "right"
    },
    {
      "midi": 40,
      "time": 117,
      "duration": 3,
      "velocity": 0.71,
      "hand": "left"
    },
    {
      "midi": 79,
      "time": 117,
      "duration": 3,
      "velocity": 0.49,
      "hand": "right"
    },
    {
      "midi": 59,
      "time": 118,
      "duration": 2,
      "velocity": 0.49,
      "hand": "left"
    },
    {
      "midi": 64,
      "time": 118,
      "duration": 2,
      "velocity": 0.49,
      "hand": "right"
    },
    {
      "midi": 67,
      "time": 118,
      "duration": 2,
      "velocity": 0.49,
      "hand": "right"
    },
    {
      "midi": 40,
      "time": 120,
      "duration": 3,
      "velocity": 0.71,
      "hand": "left"
    },
    {
      "midi": 77,
      "time": 120,
      "duration": 3,
      "velocity": 0.71,
      "hand": "right"
    },
    {
      "midi": 57,
      "time": 121,
      "duration": 2,
      "velocity": 0.49,
      "hand": "left"
    },
    {
      "midi": 62,
      "time": 121,
      "duration": 2,
      "velocity": 0.49,
      "hand": "right"
    },
    {
      "midi": 65,
      "time": 121,
      "duration": 2,
      "velocity": 0.49,
      "hand": "right"
    },
    {
      "midi": 69,
      "time": 121,
      "duration": 2,
      "velocity": 0.49,
      "hand": "right"
    },
    {
      "midi": 40,
      "time": 123,
      "duration": 3,
      "velocity": 0.71,
      "hand": "left"
    },
    {
      "midi": 71,
      "time": 123,
      "duration": 1,
      "velocity": 0.71,
      "hand": "right"
    },
    {
      "midi": 57,
      "time": 124,
      "duration": 2,
      "velocity": 0.49,
      "hand": "left"
    },
    {
      "midi": 60,
      "time": 124,
      "duration": 2,
      "velocity": 0.49,
      "hand": "right"
    },
    {
      "midi": 65,
      "time": 124,
      "duration": 2,
      "velocity": 0.49,
      "hand": "right"
    },
    {
      "midi": 72,
      "time": 124,
      "duration": 1,
      "velocity": 0.71,
      "hand": "right"
    },
    {
      "midi": 77,
      "time": 125,
      "duration": 1,
      "velocity": 0.71,
      "hand": "right"
    },
    {
      "midi": 40,
      "time": 126,
      "duration": 3,
      "velocity": 0.71,
      "hand": "left"
    },
    {
      "midi": 76,
      "time": 126,
      "duration": 1,
      "velocity": 0.71,
      "hand": "right"
    },
    {
      "midi": 60,
      "time": 127,
      "duration": 2,
      "velocity": 0.49,
      "hand": "right"
    },
    {
      "midi": 64,
      "time": 127,
      "duration": 2,
      "velocity": 0.49,
      "hand": "right"
    },
    {
      "midi": 69,
      "time": 127,
      "duration": 2,
      "velocity": 0.49,
      "hand": "right"
    },
    {
      "midi": 74,
      "time": 127,
      "duration": 1,
      "velocity": 0.71,
      "hand": "right"
    },
    {
      "midi": 72,
      "time": 128,
      "duration": 1,
      "velocity": 0.71,
      "hand": "right"
    },
    {
      "midi": 40,
      "time": 129,
      "duration": 3,
      "velocity": 0.71,
      "hand": "left"
    },
    {
      "midi": 76,
      "time": 129,
      "duration": 1,
      "velocity": 0.71,
      "hand": "right"
    },
    {
      "midi": 57,
      "time": 130,
      "duration": 2,
      "velocity": 0.49,
      "hand": "left"
    },
    {
      "midi": 60,
      "time": 130,
      "duration": 2,
      "velocity": 0.49,
      "hand": "right"
    },
    {
      "midi": 65,
      "time": 130,
      "duration": 2,
      "velocity": 0.49,
      "hand": "right"
    },
    {
      "midi": 69,
      "time": 130,
      "duration": 2,
      "velocity": 0.49,
      "hand": "right"
    },
    {
      "midi": 74,
      "time": 130,
      "duration": 1,
      "velocity": 0.71,
      "hand": "right"
    },
    {
      "midi": 72,
      "time": 131,
      "duration": 1,
      "velocity": 0.71,
      "hand": "right"
    },
    {
      "midi": 40,
      "time": 132,
      "duration": 3,
      "velocity": 0.71,
      "hand": "left"
    },
    {
      "midi": 65,
      "time": 132,
      "duration": 3,
      "velocity": 0.68,
      "hand": "right"
    },
    {
      "midi": 47,
      "time": 133,
      "duration": 1,
      "velocity": 0.71,
      "hand": "left"
    },
    {
      "midi": 57,
      "time": 133,
      "duration": 1,
      "velocity": 0.49,
      "hand": "left"
    },
    {
      "midi": 62,
      "time": 133,
      "duration": 1,
      "velocity": 0.49,
      "hand": "right"
    },
    {
      "midi": 52,
      "time": 134,
      "duration": 1,
      "velocity": 0.71,
      "hand": "left"
    },
    {
      "midi": 59,
      "time": 134,
      "duration": 1,
      "velocity": 0.49,
      "hand": "left"
    },
    {
      "midi": 62,
      "time": 134,
      "duration": 1,
      "velocity": 0.49,
      "hand": "right"
    },
    {
      "midi": 67,
      "time": 134,
      "duration": 1,
      "velocity": 0.49,
      "hand": "right"
    },
    {
      "midi": 45,
      "time": 135,
      "duration": 3,
      "velocity": 0.71,
      "hand": "left"
    },
    {
      "midi": 55,
      "time": 135,
      "duration": 3,
      "velocity": 0.71,
      "hand": "left"
    },
    {
      "midi": 60,
      "time": 135,
      "duration": 3,
      "velocity": 0.58,
      "hand": "right"
    },
    {
      "midi": 64,
      "time": 135,
      "duration": 3,
      "velocity": 0.58,
      "hand": "right"
    },
    {
      "midi": 69,
      "time": 135,
      "duration": 3,
      "velocity": 0.58,
      "hand": "right"
    },
    {
      "midi": 72,
      "time": 135,
      "duration": 3,
      "velocity": 0.58,
      "hand": "right"
    },
    {
      "midi": 38,
      "time": 138,
      "duration": 3,
      "velocity": 0.71,
      "hand": "left"
    },
    {
      "midi": 45,
      "time": 138,
      "duration": 3,
      "velocity": 0.71,
      "hand": "left"
    },
    {
      "midi": 50,
      "time": 138,
      "duration": 3,
      "velocity": 0.71,
      "hand": "left"
    },
    {
      "midi": 62,
      "time": 138,
      "duration": 3,
      "velocity": 0.49,
      "hand": "right"
    },
    {
      "midi": 65,
      "time": 138,
      "duration": 3,
      "velocity": 0.49,
      "hand": "right"
    },
    {
      "midi": 69,
      "time": 138,
      "duration": 3,
      "velocity": 0.49,
      "hand": "right"
    },
    {
      "midi": 74,
      "time": 138,
      "duration": 3,
      "velocity": 0.49,
      "hand": "right"
    }
  ],
  "arrangements": {
    "easy": [
      {
        "midi": 66,
        "time": 1,
        "duration": 2,
        "velocity": 0.71,
        "hand": "right"
      },
      {
        "midi": 66,
        "time": 4,
        "duration": 2,
        "velocity": 0.71,
        "hand": "right"
      },
      {
        "midi": 66,
        "time": 7,
        "duration": 2,
        "velocity": 0.71,
        "hand": "right"
      },
      {
        "midi": 66,
        "time": 10,
        "duration": 2,
        "velocity": 0.71,
        "hand": "right"
      },
      {
        "midi": 78,
        "time": 13,
        "duration": 1,
        "velocity": 0.49,
        "hand": "right"
      },
      {
        "midi": 81,
        "time": 14,
        "duration": 1,
        "velocity": 0.52,
        "hand": "right"
      },
      {
        "midi": 79,
        "time": 15,
        "duration": 1,
        "velocity": 0.56,
        "hand": "right"
      },
      {
        "midi": 78,
        "time": 16,
        "duration": 1,
        "velocity": 0.6,
        "hand": "right"
      },
      {
        "midi": 73,
        "time": 17,
        "duration": 1,
        "velocity": 0.64,
        "hand": "right"
      },
      {
        "midi": 71,
        "time": 18,
        "duration": 1,
        "velocity": 0.68,
        "hand": "right"
      },
      {
        "midi": 73,
        "time": 19,
        "duration": 1,
        "velocity": 0.71,
        "hand": "right"
      },
      {
        "midi": 74,
        "time": 20,
        "duration": 1,
        "velocity": 0.71,
        "hand": "right"
      },
      {
        "midi": 69,
        "time": 21,
        "duration": 3,
        "velocity": 0.65,
        "hand": "right"
      },
      {
        "midi": 66,
        "time": 22,
        "duration": 2,
        "velocity": 0.71,
        "hand": "right"
      },
      {
        "midi": 66,
        "time": 24,
        "duration": 1,
        "velocity": 0.49,
        "hand": "right"
      },
      {
        "midi": 66,
        "time": 25,
        "duration": 3,
        "velocity": 0.75,
        "hand": "right"
      },
      {
        "midi": 66,
        "time": 28,
        "duration": 3,
        "velocity": 0.75,
        "hand": "right"
      },
      {
        "midi": 66,
        "time": 31,
        "duration": 3,
        "velocity": 0.75,
        "hand": "right"
      },
      {
        "midi": 66,
        "time": 34,
        "duration": 2,
        "velocity": 0.75,
        "hand": "right"
      },
      {
        "midi": 78,
        "time": 37,
        "duration": 1,
        "velocity": 0.49,
        "hand": "right"
      },
      {
        "midi": 81,
        "time": 38,
        "duration": 1,
        "velocity": 0.52,
        "hand": "right"
      },
      {
        "midi": 79,
        "time": 39,
        "duration": 1,
        "velocity": 0.55,
        "hand": "right"
      },
      {
        "midi": 78,
        "time": 40,
        "duration": 1,
        "velocity": 0.58,
        "hand": "right"
      },
      {
        "midi": 73,
        "time": 41,
        "duration": 1,
        "velocity": 0.61,
        "hand": "right"
      },
      {
        "midi": 71,
        "time": 42,
        "duration": 1,
        "velocity": 0.65,
        "hand": "right"
      },
      {
        "midi": 73,
        "time": 43,
        "duration": 1,
        "velocity": 0.68,
        "hand": "right"
      },
      {
        "midi": 74,
        "time": 44,
        "duration": 1,
        "velocity": 0.71,
        "hand": "right"
      },
      {
        "midi": 69,
        "time": 45,
        "duration": 3,
        "velocity": 0.71,
        "hand": "right"
      },
      {
        "midi": 66,
        "time": 46,
        "duration": 2,
        "velocity": 0.49,
        "hand": "right"
      },
      {
        "midi": 73,
        "time": 48,
        "duration": 3,
        "velocity": 0.64,
        "hand": "right"
      },
      {
        "midi": 66,
        "time": 49,
        "duration": 2,
        "velocity": 0.49,
        "hand": "right"
      },
      {
        "midi": 78,
        "time": 51,
        "duration": 3,
        "velocity": 0.56,
        "hand": "right"
      },
      {
        "midi": 66,
        "time": 52,
        "duration": 2,
        "velocity": 0.49,
        "hand": "right"
      },
      {
        "midi": 64,
        "time": 54,
        "duration": 9,
        "velocity": 0.49,
        "hand": "right"
      },
      {
        "midi": 67,
        "time": 58,
        "duration": 2,
        "velocity": 0.71,
        "hand": "right"
      },
      {
        "midi": 62,
        "time": 61,
        "duration": 2,
        "velocity": 0.71,
        "hand": "right"
      },
      {
        "midi": 69,
        "time": 63,
        "duration": 1,
        "velocity": 0.49,
        "hand": "right"
      },
      {
        "midi": 71,
        "time": 64,
        "duration": 1,
        "velocity": 0.51,
        "hand": "right"
      },
      {
        "midi": 72,
        "time": 65,
        "duration": 1,
        "velocity": 0.54,
        "hand": "right"
      },
      {
        "midi": 76,
        "time": 66,
        "duration": 1,
        "velocity": 0.57,
        "hand": "right"
      },
      {
        "midi": 74,
        "time": 67,
        "duration": 1,
        "velocity": 0.6,
        "hand": "right"
      },
      {
        "midi": 71,
        "time": 68,
        "duration": 1,
        "velocity": 0.63,
        "hand": "right"
      },
      {
        "midi": 74,
        "time": 69,
        "duration": 1,
        "velocity": 0.65,
        "hand": "right"
      },
      {
        "midi": 72,
        "time": 70,
        "duration": 1,
        "velocity": 0.69,
        "hand": "right"
      },
      {
        "midi": 71,
        "time": 71,
        "duration": 1,
        "velocity": 0.71,
        "hand": "right"
      },
      {
        "midi": 74,
        "time": 72,
        "duration": 5,
        "velocity": 0.71,
        "hand": "right"
      },
      {
        "midi": 62,
        "time": 73,
        "duration": 2,
        "velocity": 0.54,
        "hand": "right"
      },
      {
        "midi": 62,
        "time": 76,
        "duration": 2,
        "velocity": 0.54,
        "hand": "right"
      },
      {
        "midi": 74,
        "time": 77,
        "duration": 1,
        "velocity": 0.49,
        "hand": "right"
      },
      {
        "midi": 76,
        "time": 78,
        "duration": 1,
        "velocity": 0.52,
        "hand": "right"
      },
      {
        "midi": 77,
        "time": 79,
        "duration": 1,
        "velocity": 0.56,
        "hand": "right"
      },
      {
        "midi": 79,
        "time": 80,
        "duration": 1,
        "velocity": 0.6,
        "hand": "right"
      },
      {
        "midi": 81,
        "time": 81,
        "duration": 1,
        "velocity": 0.64,
        "hand": "right"
      },
      {
        "midi": 72,
        "time": 82,
        "duration": 1,
        "velocity": 0.68,
        "hand": "right"
      },
      {
        "midi": 74,
        "time": 83,
        "duration": 1,
        "velocity": 0.71,
        "hand": "right"
      },
      {
        "midi": 76,
        "time": 84,
        "duration": 1,
        "velocity": 0.71,
        "hand": "right"
      },
      {
        "midi": 74,
        "time": 85,
        "duration": 1,
        "velocity": 0.64,
        "hand": "right"
      },
      {
        "midi": 71,
        "time": 86,
        "duration": 1,
        "velocity": 0.56,
        "hand": "right"
      },
      {
        "midi": 74,
        "time": 87,
        "duration": 5,
        "velocity": 0.49,
        "hand": "right"
      },
      {
        "midi": 62,
        "time": 88,
        "duration": 2,
        "velocity": 0.54,
        "hand": "right"
      },
      {
        "midi": 62,
        "time": 91,
        "duration": 2,
        "velocity": 0.54,
        "hand": "right"
      },
      {
        "midi": 74,
        "time": 92,
        "duration": 1,
        "velocity": 0.49,
        "hand": "right"
      },
      {
        "midi": 79,
        "time": 93,
        "duration": 3,
        "velocity": 0.49,
        "hand": "right"
      },
      {
        "midi": 67,
        "time": 94,
        "duration": 2,
        "velocity": 0.49,
        "hand": "right"
      },
      {
        "midi": 78,
        "time": 96,
        "duration": 3,
        "velocity": 0.71,
        "hand": "right"
      },
      {
        "midi": 66,
        "time": 97,
        "duration": 2,
        "velocity": 0.49,
        "hand": "right"
      },
      {
        "midi": 71,
        "time": 99,
        "duration": 1,
        "velocity": 0.71,
        "hand": "right"
      },
      {
        "midi": 69,
        "time": 100,
        "duration": 1,
        "velocity": 0.71,
        "hand": "right"
      },
      {
        "midi": 71,
        "time": 101,
        "duration": 1,
        "velocity": 0.71,
        "hand": "right"
      },
      {
        "midi": 73,
        "time": 102,
        "duration": 1,
        "velocity": 0.71,
        "hand": "right"
      },
      {
        "midi": 74,
        "time": 103,
        "duration": 1,
        "velocity": 0.71,
        "hand": "right"
      },
      {
        "midi": 76,
        "time": 104,
        "duration": 1,
        "velocity": 0.71,
        "hand": "right"
      },
      {
        "midi": 73,
        "time": 105,
        "duration": 1,
        "velocity": 0.71,
        "hand": "right"
      },
      {
        "midi": 74,
        "time": 106,
        "duration": 1,
        "velocity": 0.71,
        "hand": "right"
      },
      {
        "midi": 76,
        "time": 107,
        "duration": 1,
        "velocity": 0.67,
        "hand": "right"
      },
      {
        "midi": 66,
        "time": 108,
        "duration": 3,
        "velocity": 0.62,
        "hand": "right"
      },
      {
        "midi": 62,
        "time": 109,
        "duration": 1,
        "velocity": 0.49,
        "hand": "right"
      },
      {
        "midi": 67,
        "time": 110,
        "duration": 1,
        "velocity": 0.49,
        "hand": "right"
      },
      {
        "midi": 72,
        "time": 111,
        "duration": 3,
        "velocity": 0.49,
        "hand": "right"
      },
      {
        "midi": 74,
        "time": 114,
        "duration": 3,
        "velocity": 0.49,
        "hand": "right"
      },
      {
        "midi": 79,
        "time": 117,
        "duration": 3,
        "velocity": 0.49,
        "hand": "right"
      },
      {
        "midi": 67,
        "time": 118,
        "duration": 2,
        "velocity": 0.49,
        "hand": "right"
      },
      {
        "midi": 77,
        "time": 120,
        "duration": 3,
        "velocity": 0.71,
        "hand": "right"
      },
      {
        "midi": 69,
        "time": 121,
        "duration": 2,
        "velocity": 0.49,
        "hand": "right"
      },
      {
        "midi": 71,
        "time": 123,
        "duration": 1,
        "velocity": 0.71,
        "hand": "right"
      },
      {
        "midi": 72,
        "time": 124,
        "duration": 1,
        "velocity": 0.71,
        "hand": "right"
      },
      {
        "midi": 77,
        "time": 125,
        "duration": 1,
        "velocity": 0.71,
        "hand": "right"
      },
      {
        "midi": 76,
        "time": 126,
        "duration": 1,
        "velocity": 0.71,
        "hand": "right"
      },
      {
        "midi": 74,
        "time": 127,
        "duration": 1,
        "velocity": 0.71,
        "hand": "right"
      },
      {
        "midi": 72,
        "time": 128,
        "duration": 1,
        "velocity": 0.71,
        "hand": "right"
      },
      {
        "midi": 76,
        "time": 129,
        "duration": 1,
        "velocity": 0.71,
        "hand": "right"
      },
      {
        "midi": 74,
        "time": 130,
        "duration": 1,
        "velocity": 0.71,
        "hand": "right"
      },
      {
        "midi": 72,
        "time": 131,
        "duration": 1,
        "velocity": 0.71,
        "hand": "right"
      },
      {
        "midi": 65,
        "time": 132,
        "duration": 3,
        "velocity": 0.68,
        "hand": "right"
      },
      {
        "midi": 62,
        "time": 133,
        "duration": 1,
        "velocity": 0.49,
        "hand": "right"
      },
      {
        "midi": 67,
        "time": 134,
        "duration": 1,
        "velocity": 0.49,
        "hand": "right"
      },
      {
        "midi": 72,
        "time": 135,
        "duration": 3,
        "velocity": 0.58,
        "hand": "right"
      },
      {
        "midi": 74,
        "time": 138,
        "duration": 3,
        "velocity": 0.49,
        "hand": "right"
      }
    ],
    "medium": [
      {
        "midi": 43,
        "time": 0,
        "duration": 3,
        "velocity": 0.71,
        "hand": "left"
      },
      {
        "midi": 59,
        "time": 1,
        "duration": 2,
        "velocity": 0.71,
        "hand": "left"
      },
      {
        "midi": 62,
        "time": 1,
        "duration": 2,
        "velocity": 0.71,
        "hand": "right"
      },
      {
        "midi": 66,
        "time": 1,
        "duration": 2,
        "velocity": 0.71,
        "hand": "right"
      },
      {
        "midi": 38,
        "time": 3,
        "duration": 3,
        "velocity": 0.71,
        "hand": "left"
      },
      {
        "midi": 57,
        "time": 4,
        "duration": 2,
        "velocity": 0.71,
        "hand": "left"
      },
      {
        "midi": 61,
        "time": 4,
        "duration": 2,
        "velocity": 0.71,
        "hand": "right"
      },
      {
        "midi": 66,
        "time": 4,
        "duration": 2,
        "velocity": 0.71,
        "hand": "right"
      },
      {
        "midi": 43,
        "time": 6,
        "duration": 3,
        "velocity": 0.71,
        "hand": "left"
      },
      {
        "midi": 59,
        "time": 7,
        "duration": 2,
        "velocity": 0.71,
        "hand": "left"
      },
      {
        "midi": 62,
        "time": 7,
        "duration": 2,
        "velocity": 0.71,
        "hand": "right"
      },
      {
        "midi": 66,
        "time": 7,
        "duration": 2,
        "velocity": 0.71,
        "hand": "right"
      },
      {
        "midi": 38,
        "time": 9,
        "duration": 3,
        "velocity": 0.71,
        "hand": "left"
      },
      {
        "midi": 57,
        "time": 10,
        "duration": 2,
        "velocity": 0.71,
        "hand": "left"
      },
      {
        "midi": 61,
        "time": 10,
        "duration": 2,
        "velocity": 0.71,
        "hand": "right"
      },
      {
        "midi": 66,
        "time": 10,
        "duration": 2,
        "velocity": 0.71,
        "hand": "right"
      },
      {
        "midi": 43,
        "time": 12,
        "duration": 3,
        "velocity": 0.71,
        "hand": "left"
      },
      {
        "midi": 59,
        "time": 13,
        "duration": 2,
        "velocity": 0.71,
        "hand": "left"
      },
      {
        "midi": 66,
        "time": 13,
        "duration": 2,
        "velocity": 0.71,
        "hand": "right"
      },
      {
        "midi": 78,
        "time": 13,
        "duration": 1,
        "velocity": 0.49,
        "hand": "right"
      },
      {
        "midi": 81,
        "time": 14,
        "duration": 1,
        "velocity": 0.52,
        "hand": "right"
      },
      {
        "midi": 38,
        "time": 15,
        "duration": 3,
        "velocity": 0.71,
        "hand": "left"
      },
      {
        "midi": 79,
        "time": 15,
        "duration": 1,
        "velocity": 0.56,
        "hand": "right"
      },
      {
        "midi": 57,
        "time": 16,
        "duration": 2,
        "velocity": 0.71,
        "hand": "left"
      },
      {
        "midi": 66,
        "time": 16,
        "duration": 2,
        "velocity": 0.71,
        "hand": "right"
      },
      {
        "midi": 78,
        "time": 16,
        "duration": 1,
        "velocity": 0.6,
        "hand": "right"
      },
      {
        "midi": 73,
        "time": 17,
        "duration": 1,
        "velocity": 0.64,
        "hand": "right"
      },
      {
        "midi": 43,
        "time": 18,
        "duration": 3,
        "velocity": 0.71,
        "hand": "left"
      },
      {
        "midi": 71,
        "time": 18,
        "duration": 1,
        "velocity": 0.68,
        "hand": "right"
      },
      {
        "midi": 59,
        "time": 19,
        "duration": 2,
        "velocity": 0.71,
        "hand": "left"
      },
      {
        "midi": 66,
        "time": 19,
        "duration": 2,
        "velocity": 0.71,
        "hand": "right"
      },
      {
        "midi": 73,
        "time": 19,
        "duration": 1,
        "velocity": 0.71,
        "hand": "right"
      },
      {
        "midi": 74,
        "time": 20,
        "duration": 1,
        "velocity": 0.71,
        "hand": "right"
      },
      {
        "midi": 38,
        "time": 21,
        "duration": 3,
        "velocity": 0.71,
        "hand": "left"
      },
      {
        "midi": 69,
        "time": 21,
        "duration": 3,
        "velocity": 0.65,
        "hand": "right"
      },
      {
        "midi": 57,
        "time": 22,
        "duration": 2,
        "velocity": 0.71,
        "hand": "left"
      },
      {
        "midi": 61,
        "time": 22,
        "duration": 2,
        "velocity": 0.71,
        "hand": "right"
      },
      {
        "midi": 66,
        "time": 22,
        "duration": 2,
        "velocity": 0.71,
        "hand": "right"
      },
      {
        "midi": 43,
        "time": 24,
        "duration": 3,
        "velocity": 0.71,
        "hand": "left"
      },
      {
        "midi": 66,
        "time": 24,
        "duration": 1,
        "velocity": 0.49,
        "hand": "right"
      },
      {
        "midi": 59,
        "time": 25,
        "duration": 2,
        "velocity": 0.75,
        "hand": "left"
      },
      {
        "midi": 62,
        "time": 25,
        "duration": 2,
        "velocity": 0.75,
        "hand": "right"
      },
      {
        "midi": 66,
        "time": 25,
        "duration": 3,
        "velocity": 0.75,
        "hand": "right"
      },
      {
        "midi": 38,
        "time": 27,
        "duration": 3,
        "velocity": 0.71,
        "hand": "left"
      },
      {
        "midi": 57,
        "time": 28,
        "duration": 2,
        "velocity": 0.75,
        "hand": "left"
      },
      {
        "midi": 61,
        "time": 28,
        "duration": 2,
        "velocity": 0.75,
        "hand": "right"
      },
      {
        "midi": 66,
        "time": 28,
        "duration": 3,
        "velocity": 0.75,
        "hand": "right"
      },
      {
        "midi": 43,
        "time": 30,
        "duration": 3,
        "velocity": 0.71,
        "hand": "left"
      },
      {
        "midi": 59,
        "time": 31,
        "duration": 2,
        "velocity": 0.75,
        "hand": "left"
      },
      {
        "midi": 62,
        "time": 31,
        "duration": 2,
        "velocity": 0.75,
        "hand": "right"
      },
      {
        "midi": 66,
        "time": 31,
        "duration": 3,
        "velocity": 0.75,
        "hand": "right"
      },
      {
        "midi": 38,
        "time": 33,
        "duration": 3,
        "velocity": 0.71,
        "hand": "left"
      },
      {
        "midi": 57,
        "time": 34,
        "duration": 2,
        "velocity": 0.75,
        "hand": "left"
      },
      {
        "midi": 61,
        "time": 34,
        "duration": 2,
        "velocity": 0.75,
        "hand": "right"
      },
      {
        "midi": 66,
        "time": 34,
        "duration": 2,
        "velocity": 0.75,
        "hand": "right"
      },
      {
        "midi": 43,
        "time": 36,
        "duration": 3,
        "velocity": 0.71,
        "hand": "left"
      },
      {
        "midi": 59,
        "time": 37,
        "duration": 2,
        "velocity": 0.49,
        "hand": "left"
      },
      {
        "midi": 66,
        "time": 37,
        "duration": 2,
        "velocity": 0.49,
        "hand": "right"
      },
      {
        "midi": 78,
        "time": 37,
        "duration": 1,
        "velocity": 0.49,
        "hand": "right"
      },
      {
        "midi": 81,
        "time": 38,
        "duration": 1,
        "velocity": 0.52,
        "hand": "right"
      },
      {
        "midi": 38,
        "time": 39,
        "duration": 3,
        "velocity": 0.71,
        "hand": "left"
      },
      {
        "midi": 79,
        "time": 39,
        "duration": 1,
        "velocity": 0.55,
        "hand": "right"
      },
      {
        "midi": 57,
        "time": 40,
        "duration": 2,
        "velocity": 0.49,
        "hand": "left"
      },
      {
        "midi": 66,
        "time": 40,
        "duration": 2,
        "velocity": 0.49,
        "hand": "right"
      },
      {
        "midi": 78,
        "time": 40,
        "duration": 1,
        "velocity": 0.58,
        "hand": "right"
      },
      {
        "midi": 73,
        "time": 41,
        "duration": 1,
        "velocity": 0.61,
        "hand": "right"
      },
      {
        "midi": 43,
        "time": 42,
        "duration": 3,
        "velocity": 0.71,
        "hand": "left"
      },
      {
        "midi": 71,
        "time": 42,
        "duration": 1,
        "velocity": 0.65,
        "hand": "right"
      },
      {
        "midi": 59,
        "time": 43,
        "duration": 2,
        "velocity": 0.49,
        "hand": "left"
      },
      {
        "midi": 66,
        "time": 43,
        "duration": 2,
        "velocity": 0.49,
        "hand": "right"
      },
      {
        "midi": 73,
        "time": 43,
        "duration": 1,
        "velocity": 0.68,
        "hand": "right"
      },
      {
        "midi": 74,
        "time": 44,
        "duration": 1,
        "velocity": 0.71,
        "hand": "right"
      },
      {
        "midi": 38,
        "time": 45,
        "duration": 3,
        "velocity": 0.71,
        "hand": "left"
      },
      {
        "midi": 69,
        "time": 45,
        "duration": 3,
        "velocity": 0.71,
        "hand": "right"
      },
      {
        "midi": 57,
        "time": 46,
        "duration": 2,
        "velocity": 0.49,
        "hand": "left"
      },
      {
        "midi": 61,
        "time": 46,
        "duration": 2,
        "velocity": 0.49,
        "hand": "right"
      },
      {
        "midi": 66,
        "time": 46,
        "duration": 2,
        "velocity": 0.49,
        "hand": "right"
      },
      {
        "midi": 42,
        "time": 48,
        "duration": 3,
        "velocity": 0.71,
        "hand": "left"
      },
      {
        "midi": 73,
        "time": 48,
        "duration": 3,
        "velocity": 0.64,
        "hand": "right"
      },
      {
        "midi": 57,
        "time": 49,
        "duration": 2,
        "velocity": 0.49,
        "hand": "left"
      },
      {
        "midi": 61,
        "time": 49,
        "duration": 2,
        "velocity": 0.49,
        "hand": "right"
      },
      {
        "midi": 66,
        "time": 49,
        "duration": 2,
        "velocity": 0.49,
        "hand": "right"
      },
      {
        "midi": 35,
        "time": 51,
        "duration": 3,
        "velocity": 0.71,
        "hand": "left"
      },
      {
        "midi": 78,
        "time": 51,
        "duration": 3,
        "velocity": 0.56,
        "hand": "right"
      },
      {
        "midi": 59,
        "time": 52,
        "duration": 2,
        "velocity": 0.49,
        "hand": "left"
      },
      {
        "midi": 62,
        "time": 52,
        "duration": 2,
        "velocity": 0.49,
        "hand": "right"
      },
      {
        "midi": 66,
        "time": 52,
        "duration": 2,
        "velocity": 0.49,
        "hand": "right"
      },
      {
        "midi": 40,
        "time": 54,
        "duration": 3,
        "velocity": 0.71,
        "hand": "left"
      },
      {
        "midi": 64,
        "time": 54,
        "duration": 9,
        "velocity": 0.49,
        "hand": "right"
      },
      {
        "midi": 55,
        "time": 55,
        "duration": 2,
        "velocity": 0.71,
        "hand": "left"
      },
      {
        "midi": 59,
        "time": 55,
        "duration": 2,
        "velocity": 0.71,
        "hand": "left"
      },
      {
        "midi": 40,
        "time": 57,
        "duration": 3,
        "velocity": 0.71,
        "hand": "left"
      },
      {
        "midi": 59,
        "time": 58,
        "duration": 2,
        "velocity": 0.71,
        "hand": "left"
      },
      {
        "midi": 62,
        "time": 58,
        "duration": 2,
        "velocity": 0.71,
        "hand": "right"
      },
      {
        "midi": 67,
        "time": 58,
        "duration": 2,
        "velocity": 0.71,
        "hand": "right"
      },
      {
        "midi": 38,
        "time": 60,
        "duration": 3,
        "velocity": 0.71,
        "hand": "left"
      },
      {
        "midi": 53,
        "time": 61,
        "duration": 2,
        "velocity": 0.71,
        "hand": "left"
      },
      {
        "midi": 57,
        "time": 61,
        "duration": 2,
        "velocity": 0.71,
        "hand": "left"
      },
      {
        "midi": 62,
        "time": 61,
        "duration": 2,
        "velocity": 0.71,
        "hand": "right"
      },
      {
        "midi": 33,
        "time": 63,
        "duration": 3,
        "velocity": 0.71,
        "hand": "left"
      },
      {
        "midi": 69,
        "time": 63,
        "duration": 1,
        "velocity": 0.49,
        "hand": "right"
      },
      {
        "midi": 57,
        "time": 64,
        "duration": 2,
        "velocity": 0.54,
        "hand": "left"
      },
      {
        "midi": 64,
        "time": 64,
        "duration": 2,
        "velocity": 0.54,
        "hand": "right"
      },
      {
        "midi": 71,
        "time": 64,
        "duration": 1,
        "velocity": 0.51,
        "hand": "right"
      },
      {
        "midi": 72,
        "time": 65,
        "duration": 1,
        "velocity": 0.54,
        "hand": "right"
      },
      {
        "midi": 38,
        "time": 66,
        "duration": 3,
        "velocity": 0.71,
        "hand": "left"
      },
      {
        "midi": 76,
        "time": 66,
        "duration": 1,
        "velocity": 0.57,
        "hand": "right"
      },
      {
        "midi": 55,
        "time": 67,
        "duration": 2,
        "velocity": 0.54,
        "hand": "left"
      },
      {
        "midi": 64,
        "time": 67,
        "duration": 2,
        "velocity": 0.54,
        "hand": "right"
      },
      {
        "midi": 74,
        "time": 67,
        "duration": 1,
        "velocity": 0.6,
        "hand": "right"
      },
      {
        "midi": 71,
        "time": 68,
        "duration": 1,
        "velocity": 0.63,
        "hand": "right"
      },
      {
        "midi": 38,
        "time": 69,
        "duration": 3,
        "velocity": 0.71,
        "hand": "left"
      },
      {
        "midi": 74,
        "time": 69,
        "duration": 1,
        "velocity": 0.65,
        "hand": "right"
      },
      {
        "midi": 50,
        "time": 70,
        "duration": 2,
        "velocity": 0.54,
        "hand": "left"
      },
      {
        "midi": 59,
        "time": 70,
        "duration": 2,
        "velocity": 0.54,
        "hand": "left"
      },
      {
        "midi": 72,
        "time": 70,
        "duration": 1,
        "velocity": 0.69,
        "hand": "right"
      },
      {
        "midi": 71,
        "time": 71,
        "duration": 1,
        "velocity": 0.71,
        "hand": "right"
      },
      {
        "midi": 38,
        "time": 72,
        "duration": 3,
        "velocity": 0.71,
        "hand": "left"
      },
      {
        "midi": 74,
        "time": 72,
        "duration": 5,
        "velocity": 0.71,
        "hand": "right"
      },
      {
        "midi": 48,
        "time": 73,
        "duration": 2,
        "velocity": 0.54,
        "hand": "left"
      },
      {
        "midi": 57,
        "time": 73,
        "duration": 2,
        "velocity": 0.54,
        "hand": "left"
      },
      {
        "midi": 62,
        "time": 73,
        "duration": 2,
        "velocity": 0.54,
        "hand": "right"
      },
      {
        "midi": 38,
        "time": 75,
        "duration": 3,
        "velocity": 0.71,
        "hand": "left"
      },
      {
        "midi": 48,
        "time": 76,
        "duration": 2,
        "velocity": 0.54,
        "hand": "left"
      },
      {
        "midi": 57,
        "time": 76,
        "duration": 2,
        "velocity": 0.54,
        "hand": "left"
      },
      {
        "midi": 62,
        "time": 76,
        "duration": 2,
        "velocity": 0.54,
        "hand": "right"
      },
      {
        "midi": 74,
        "time": 77,
        "duration": 1,
        "velocity": 0.49,
        "hand": "right"
      },
      {
        "midi": 38,
        "time": 78,
        "duration": 3,
        "velocity": 0.71,
        "hand": "left"
      },
      {
        "midi": 76,
        "time": 78,
        "duration": 1,
        "velocity": 0.52,
        "hand": "right"
      },
      {
        "midi": 57,
        "time": 79,
        "duration": 2,
        "velocity": 0.54,
        "hand": "left"
      },
      {
        "midi": 65,
        "time": 79,
        "duration": 2,
        "velocity": 0.54,
        "hand": "right"
      },
      {
        "midi": 77,
        "time": 79,
        "duration": 1,
        "velocity": 0.56,
        "hand": "right"
      },
      {
        "midi": 79,
        "time": 80,
        "duration": 1,
        "velocity": 0.6,
        "hand": "right"
      },
      {
        "midi": 38,
        "time": 81,
        "duration": 3,
        "velocity": 0.71,
        "hand": "left"
      },
      {
        "midi": 81,
        "time": 81,
        "duration": 1,
        "velocity": 0.64,
        "hand": "right"
      },
      {
        "midi": 57,
        "time": 82,
        "duration": 2,
        "velocity": 0.54,
        "hand": "left"
      },
      {
        "midi": 64,
        "time": 82,
        "duration": 2,
        "velocity": 0.54,
        "hand": "right"
      },
      {
        "midi": 72,
        "time": 82,
        "duration": 1,
        "velocity": 0.68,
        "hand": "right"
      },
      {
        "midi": 74,
        "time": 83,
        "duration": 1,
        "velocity": 0.71,
        "hand": "right"
      },
      {
        "midi": 38,
        "time": 84,
        "duration": 3,
        "velocity": 0.71,
        "hand": "left"
      },
      {
        "midi": 76,
        "time": 84,
        "duration": 1,
        "velocity": 0.71,
        "hand": "right"
      },
      {
        "midi": 50,
        "time": 85,
        "duration": 2,
        "velocity": 0.54,
        "hand": "left"
      },
      {
        "midi": 59,
        "time": 85,
        "duration": 2,
        "velocity": 0.54,
        "hand": "left"
      },
      {
        "midi": 74,
        "time": 85,
        "duration": 1,
        "velocity": 0.64,
        "hand": "right"
      },
      {
        "midi": 71,
        "time": 86,
        "duration": 1,
        "velocity": 0.56,
        "hand": "right"
      },
      {
        "midi": 38,
        "time": 87,
        "duration": 3,
        "velocity": 0.71,
        "hand": "left"
      },
      {
        "midi": 74,
        "time": 87,
        "duration": 5,
        "velocity": 0.49,
        "hand": "right"
      },
      {
        "midi": 48,
        "time": 88,
        "duration": 2,
        "velocity": 0.54,
        "hand": "left"
      },
      {
        "midi": 57,
        "time": 88,
        "duration": 2,
        "velocity": 0.54,
        "hand": "left"
      },
      {
        "midi": 62,
        "time": 88,
        "duration": 2,
        "velocity": 0.54,
        "hand": "right"
      },
      {
        "midi": 38,
        "time": 90,
        "duration": 3,
        "velocity": 0.71,
        "hand": "left"
      },
      {
        "midi": 48,
        "time": 91,
        "duration": 2,
        "velocity": 0.54,
        "hand": "left"
      },
      {
        "midi": 57,
        "time": 91,
        "duration": 2,
        "velocity": 0.54,
        "hand": "left"
      },
      {
        "midi": 62,
        "time": 91,
        "duration": 2,
        "velocity": 0.54,
        "hand": "right"
      },
      {
        "midi": 74,
        "time": 92,
        "duration": 1,
        "velocity": 0.49,
        "hand": "right"
      },
      {
        "midi": 40,
        "time": 93,
        "duration": 3,
        "velocity": 0.71,
        "hand": "left"
      },
      {
        "midi": 79,
        "time": 93,
        "duration": 3,
        "velocity": 0.49,
        "hand": "right"
      },
      {
        "midi": 59,
        "time": 94,
        "duration": 2,
        "velocity": 0.49,
        "hand": "left"
      },
      {
        "midi": 64,
        "time": 94,
        "duration": 2,
        "velocity": 0.49,
        "hand": "right"
      },
      {
        "midi": 67,
        "time": 94,
        "duration": 2,
        "velocity": 0.49,
        "hand": "right"
      },
      {
        "midi": 42,
        "time": 96,
        "duration": 3,
        "velocity": 0.71,
        "hand": "left"
      },
      {
        "midi": 78,
        "time": 96,
        "duration": 3,
        "velocity": 0.71,
        "hand": "right"
      },
      {
        "midi": 57,
        "time": 97,
        "duration": 2,
        "velocity": 0.49,
        "hand": "left"
      },
      {
        "midi": 61,
        "time": 97,
        "duration": 2,
        "velocity": 0.49,
        "hand": "right"
      },
      {
        "midi": 66,
        "time": 97,
        "duration": 2,
        "velocity": 0.49,
        "hand": "right"
      },
      {
        "midi": 35,
        "time": 99,
        "duration": 3,
        "velocity": 0.71,
        "hand": "left"
      },
      {
        "midi": 71,
        "time": 99,
        "duration": 1,
        "velocity": 0.71,
        "hand": "right"
      },
      {
        "midi": 59,
        "time": 100,
        "duration": 2,
        "velocity": 0.49,
        "hand": "left"
      },
      {
        "midi": 66,
        "time": 100,
        "duration": 2,
        "velocity": 0.49,
        "hand": "right"
      },
      {
        "midi": 69,
        "time": 100,
        "duration": 1,
        "velocity": 0.71,
        "hand": "right"
      },
      {
        "midi": 71,
        "time": 101,
        "duration": 1,
        "velocity": 0.71,
        "hand": "right"
      },
      {
        "midi": 40,
        "time": 102,
        "duration": 3,
        "velocity": 0.71,
        "hand": "left"
      },
      {
        "midi": 73,
        "time": 102,
        "duration": 1,
        "velocity": 0.71,
        "hand": "right"
      },
      {
        "midi": 61,
        "time": 103,
        "duration": 2,
        "velocity": 0.49,
        "hand": "right"
      },
      {
        "midi": 69,
        "time": 103,
        "duration": 2,
        "velocity": 0.49,
        "hand": "right"
      },
      {
        "midi": 74,
        "time": 103,
        "duration": 1,
        "velocity": 0.71,
        "hand": "right"
      },
      {
        "midi": 76,
        "time": 104,
        "duration": 1,
        "velocity": 0.71,
        "hand": "right"
      },
      {
        "midi": 40,
        "time": 105,
        "duration": 3,
        "velocity": 0.71,
        "hand": "left"
      },
      {
        "midi": 73,
        "time": 105,
        "duration": 1,
        "velocity": 0.71,
        "hand": "right"
      },
      {
        "midi": 57,
        "time": 106,
        "duration": 2,
        "velocity": 0.49,
        "hand": "left"
      },
      {
        "midi": 66,
        "time": 106,
        "duration": 2,
        "velocity": 0.49,
        "hand": "right"
      },
      {
        "midi": 74,
        "time": 106,
        "duration": 1,
        "velocity": 0.71,
        "hand": "right"
      },
      {
        "midi": 76,
        "time": 107,
        "duration": 1,
        "velocity": 0.67,
        "hand": "right"
      },
      {
        "midi": 40,
        "time": 108,
        "duration": 3,
        "velocity": 0.71,
        "hand": "left"
      },
      {
        "midi": 66,
        "time": 108,
        "duration": 3,
        "velocity": 0.62,
        "hand": "right"
      },
      {
        "midi": 47,
        "time": 109,
        "duration": 1,
        "velocity": 0.71,
        "hand": "left"
      },
      {
        "midi": 57,
        "time": 109,
        "duration": 1,
        "velocity": 0.49,
        "hand": "left"
      },
      {
        "midi": 62,
        "time": 109,
        "duration": 1,
        "velocity": 0.49,
        "hand": "right"
      },
      {
        "midi": 52,
        "time": 110,
        "duration": 1,
        "velocity": 0.71,
        "hand": "left"
      },
      {
        "midi": 62,
        "time": 110,
        "duration": 1,
        "velocity": 0.49,
        "hand": "right"
      },
      {
        "midi": 67,
        "time": 110,
        "duration": 1,
        "velocity": 0.49,
        "hand": "right"
      },
      {
        "midi": 45,
        "time": 111,
        "duration": 3,
        "velocity": 0.71,
        "hand": "left"
      },
      {
        "midi": 64,
        "time": 111,
        "duration": 3,
        "velocity": 0.49,
        "hand": "right"
      },
      {
        "midi": 72,
        "time": 111,
        "duration": 3,
        "velocity": 0.49,
        "hand": "right"
      },
      {
        "midi": 38,
        "time": 114,
        "duration": 3,
        "velocity": 0.71,
        "hand": "left"
      },
      {
        "midi": 62,
        "time": 114,
        "duration": 3,
        "velocity": 0.49,
        "hand": "right"
      },
      {
        "midi": 74,
        "time": 114,
        "duration": 3,
        "velocity": 0.49,
        "hand": "right"
      },
      {
        "midi": 40,
        "time": 117,
        "duration": 3,
        "velocity": 0.71,
        "hand": "left"
      },
      {
        "midi": 79,
        "time": 117,
        "duration": 3,
        "velocity": 0.49,
        "hand": "right"
      },
      {
        "midi": 59,
        "time": 118,
        "duration": 2,
        "velocity": 0.49,
        "hand": "left"
      },
      {
        "midi": 64,
        "time": 118,
        "duration": 2,
        "velocity": 0.49,
        "hand": "right"
      },
      {
        "midi": 67,
        "time": 118,
        "duration": 2,
        "velocity": 0.49,
        "hand": "right"
      },
      {
        "midi": 40,
        "time": 120,
        "duration": 3,
        "velocity": 0.71,
        "hand": "left"
      },
      {
        "midi": 77,
        "time": 120,
        "duration": 3,
        "velocity": 0.71,
        "hand": "right"
      },
      {
        "midi": 57,
        "time": 121,
        "duration": 2,
        "velocity": 0.49,
        "hand": "left"
      },
      {
        "midi": 65,
        "time": 121,
        "duration": 2,
        "velocity": 0.49,
        "hand": "right"
      },
      {
        "midi": 69,
        "time": 121,
        "duration": 2,
        "velocity": 0.49,
        "hand": "right"
      },
      {
        "midi": 40,
        "time": 123,
        "duration": 3,
        "velocity": 0.71,
        "hand": "left"
      },
      {
        "midi": 71,
        "time": 123,
        "duration": 1,
        "velocity": 0.71,
        "hand": "right"
      },
      {
        "midi": 57,
        "time": 124,
        "duration": 2,
        "velocity": 0.49,
        "hand": "left"
      },
      {
        "midi": 65,
        "time": 124,
        "duration": 2,
        "velocity": 0.49,
        "hand": "right"
      },
      {
        "midi": 72,
        "time": 124,
        "duration": 1,
        "velocity": 0.71,
        "hand": "right"
      },
      {
        "midi": 77,
        "time": 125,
        "duration": 1,
        "velocity": 0.71,
        "hand": "right"
      },
      {
        "midi": 40,
        "time": 126,
        "duration": 3,
        "velocity": 0.71,
        "hand": "left"
      },
      {
        "midi": 76,
        "time": 126,
        "duration": 1,
        "velocity": 0.71,
        "hand": "right"
      },
      {
        "midi": 60,
        "time": 127,
        "duration": 2,
        "velocity": 0.49,
        "hand": "right"
      },
      {
        "midi": 69,
        "time": 127,
        "duration": 2,
        "velocity": 0.49,
        "hand": "right"
      },
      {
        "midi": 74,
        "time": 127,
        "duration": 1,
        "velocity": 0.71,
        "hand": "right"
      },
      {
        "midi": 72,
        "time": 128,
        "duration": 1,
        "velocity": 0.71,
        "hand": "right"
      },
      {
        "midi": 40,
        "time": 129,
        "duration": 3,
        "velocity": 0.71,
        "hand": "left"
      },
      {
        "midi": 76,
        "time": 129,
        "duration": 1,
        "velocity": 0.71,
        "hand": "right"
      },
      {
        "midi": 57,
        "time": 130,
        "duration": 2,
        "velocity": 0.49,
        "hand": "left"
      },
      {
        "midi": 65,
        "time": 130,
        "duration": 2,
        "velocity": 0.49,
        "hand": "right"
      },
      {
        "midi": 74,
        "time": 130,
        "duration": 1,
        "velocity": 0.71,
        "hand": "right"
      },
      {
        "midi": 72,
        "time": 131,
        "duration": 1,
        "velocity": 0.71,
        "hand": "right"
      },
      {
        "midi": 40,
        "time": 132,
        "duration": 3,
        "velocity": 0.71,
        "hand": "left"
      },
      {
        "midi": 65,
        "time": 132,
        "duration": 3,
        "velocity": 0.68,
        "hand": "right"
      },
      {
        "midi": 47,
        "time": 133,
        "duration": 1,
        "velocity": 0.71,
        "hand": "left"
      },
      {
        "midi": 57,
        "time": 133,
        "duration": 1,
        "velocity": 0.49,
        "hand": "left"
      },
      {
        "midi": 62,
        "time": 133,
        "duration": 1,
        "velocity": 0.49,
        "hand": "right"
      },
      {
        "midi": 52,
        "time": 134,
        "duration": 1,
        "velocity": 0.71,
        "hand": "left"
      },
      {
        "midi": 62,
        "time": 134,
        "duration": 1,
        "velocity": 0.49,
        "hand": "right"
      },
      {
        "midi": 67,
        "time": 134,
        "duration": 1,
        "velocity": 0.49,
        "hand": "right"
      },
      {
        "midi": 45,
        "time": 135,
        "duration": 3,
        "velocity": 0.71,
        "hand": "left"
      },
      {
        "midi": 64,
        "time": 135,
        "duration": 3,
        "velocity": 0.58,
        "hand": "right"
      },
      {
        "midi": 72,
        "time": 135,
        "duration": 3,
        "velocity": 0.58,
        "hand": "right"
      },
      {
        "midi": 38,
        "time": 138,
        "duration": 3,
        "velocity": 0.71,
        "hand": "left"
      },
      {
        "midi": 62,
        "time": 138,
        "duration": 3,
        "velocity": 0.49,
        "hand": "right"
      },
      {
        "midi": 74,
        "time": 138,
        "duration": 3,
        "velocity": 0.49,
        "hand": "right"
      }
    ],
    "hard": [
      {
        "midi": 43,
        "time": 0,
        "duration": 3,
        "velocity": 0.71,
        "hand": "left"
      },
      {
        "midi": 59,
        "time": 1,
        "duration": 2,
        "velocity": 0.71,
        "hand": "left"
      },
      {
        "midi": 62,
        "time": 1,
        "duration": 2,
        "velocity": 0.71,
        "hand": "right"
      },
      {
        "midi": 66,
        "time": 1,
        "duration": 2,
        "velocity": 0.71,
        "hand": "right"
      },
      {
        "midi": 38,
        "time": 3,
        "duration": 3,
        "velocity": 0.71,
        "hand": "left"
      },
      {
        "midi": 57,
        "time": 4,
        "duration": 2,
        "velocity": 0.71,
        "hand": "left"
      },
      {
        "midi": 61,
        "time": 4,
        "duration": 2,
        "velocity": 0.71,
        "hand": "right"
      },
      {
        "midi": 66,
        "time": 4,
        "duration": 2,
        "velocity": 0.71,
        "hand": "right"
      },
      {
        "midi": 43,
        "time": 6,
        "duration": 3,
        "velocity": 0.71,
        "hand": "left"
      },
      {
        "midi": 59,
        "time": 7,
        "duration": 2,
        "velocity": 0.71,
        "hand": "left"
      },
      {
        "midi": 62,
        "time": 7,
        "duration": 2,
        "velocity": 0.71,
        "hand": "right"
      },
      {
        "midi": 66,
        "time": 7,
        "duration": 2,
        "velocity": 0.71,
        "hand": "right"
      },
      {
        "midi": 38,
        "time": 9,
        "duration": 3,
        "velocity": 0.71,
        "hand": "left"
      },
      {
        "midi": 57,
        "time": 10,
        "duration": 2,
        "velocity": 0.71,
        "hand": "left"
      },
      {
        "midi": 61,
        "time": 10,
        "duration": 2,
        "velocity": 0.71,
        "hand": "right"
      },
      {
        "midi": 66,
        "time": 10,
        "duration": 2,
        "velocity": 0.71,
        "hand": "right"
      },
      {
        "midi": 43,
        "time": 12,
        "duration": 3,
        "velocity": 0.71,
        "hand": "left"
      },
      {
        "midi": 59,
        "time": 13,
        "duration": 2,
        "velocity": 0.71,
        "hand": "left"
      },
      {
        "midi": 62,
        "time": 13,
        "duration": 2,
        "velocity": 0.71,
        "hand": "right"
      },
      {
        "midi": 66,
        "time": 13,
        "duration": 2,
        "velocity": 0.71,
        "hand": "right"
      },
      {
        "midi": 78,
        "time": 13,
        "duration": 1,
        "velocity": 0.49,
        "hand": "right"
      },
      {
        "midi": 81,
        "time": 14,
        "duration": 1,
        "velocity": 0.52,
        "hand": "right"
      },
      {
        "midi": 38,
        "time": 15,
        "duration": 3,
        "velocity": 0.71,
        "hand": "left"
      },
      {
        "midi": 79,
        "time": 15,
        "duration": 1,
        "velocity": 0.56,
        "hand": "right"
      },
      {
        "midi": 57,
        "time": 16,
        "duration": 2,
        "velocity": 0.71,
        "hand": "left"
      },
      {
        "midi": 61,
        "time": 16,
        "duration": 2,
        "velocity": 0.71,
        "hand": "right"
      },
      {
        "midi": 66,
        "time": 16,
        "duration": 2,
        "velocity": 0.71,
        "hand": "right"
      },
      {
        "midi": 78,
        "time": 16,
        "duration": 1,
        "velocity": 0.6,
        "hand": "right"
      },
      {
        "midi": 73,
        "time": 17,
        "duration": 1,
        "velocity": 0.64,
        "hand": "right"
      },
      {
        "midi": 43,
        "time": 18,
        "duration": 3,
        "velocity": 0.71,
        "hand": "left"
      },
      {
        "midi": 71,
        "time": 18,
        "duration": 1,
        "velocity": 0.68,
        "hand": "right"
      },
      {
        "midi": 59,
        "time": 19,
        "duration": 2,
        "velocity": 0.71,
        "hand": "left"
      },
      {
        "midi": 62,
        "time": 19,
        "duration": 2,
        "velocity": 0.71,
        "hand": "right"
      },
      {
        "midi": 66,
        "time": 19,
        "duration": 2,
        "velocity": 0.71,
        "hand": "right"
      },
      {
        "midi": 73,
        "time": 19,
        "duration": 1,
        "velocity": 0.71,
        "hand": "right"
      },
      {
        "midi": 74,
        "time": 20,
        "duration": 1,
        "velocity": 0.71,
        "hand": "right"
      },
      {
        "midi": 38,
        "time": 21,
        "duration": 3,
        "velocity": 0.71,
        "hand": "left"
      },
      {
        "midi": 69,
        "time": 21,
        "duration": 3,
        "velocity": 0.65,
        "hand": "right"
      },
      {
        "midi": 57,
        "time": 22,
        "duration": 2,
        "velocity": 0.71,
        "hand": "left"
      },
      {
        "midi": 61,
        "time": 22,
        "duration": 2,
        "velocity": 0.71,
        "hand": "right"
      },
      {
        "midi": 66,
        "time": 22,
        "duration": 2,
        "velocity": 0.71,
        "hand": "right"
      },
      {
        "midi": 43,
        "time": 24,
        "duration": 3,
        "velocity": 0.71,
        "hand": "left"
      },
      {
        "midi": 66,
        "time": 24,
        "duration": 1,
        "velocity": 0.49,
        "hand": "right"
      },
      {
        "midi": 59,
        "time": 25,
        "duration": 2,
        "velocity": 0.75,
        "hand": "left"
      },
      {
        "midi": 62,
        "time": 25,
        "duration": 2,
        "velocity": 0.75,
        "hand": "right"
      },
      {
        "midi": 66,
        "time": 25,
        "duration": 3,
        "velocity": 0.75,
        "hand": "right"
      },
      {
        "midi": 38,
        "time": 27,
        "duration": 3,
        "velocity": 0.71,
        "hand": "left"
      },
      {
        "midi": 57,
        "time": 28,
        "duration": 2,
        "velocity": 0.75,
        "hand": "left"
      },
      {
        "midi": 61,
        "time": 28,
        "duration": 2,
        "velocity": 0.75,
        "hand": "right"
      },
      {
        "midi": 66,
        "time": 28,
        "duration": 3,
        "velocity": 0.75,
        "hand": "right"
      },
      {
        "midi": 43,
        "time": 30,
        "duration": 3,
        "velocity": 0.71,
        "hand": "left"
      },
      {
        "midi": 59,
        "time": 31,
        "duration": 2,
        "velocity": 0.75,
        "hand": "left"
      },
      {
        "midi": 62,
        "time": 31,
        "duration": 2,
        "velocity": 0.75,
        "hand": "right"
      },
      {
        "midi": 66,
        "time": 31,
        "duration": 3,
        "velocity": 0.75,
        "hand": "right"
      },
      {
        "midi": 38,
        "time": 33,
        "duration": 3,
        "velocity": 0.71,
        "hand": "left"
      },
      {
        "midi": 57,
        "time": 34,
        "duration": 2,
        "velocity": 0.75,
        "hand": "left"
      },
      {
        "midi": 61,
        "time": 34,
        "duration": 2,
        "velocity": 0.75,
        "hand": "right"
      },
      {
        "midi": 66,
        "time": 34,
        "duration": 2,
        "velocity": 0.75,
        "hand": "right"
      },
      {
        "midi": 43,
        "time": 36,
        "duration": 3,
        "velocity": 0.71,
        "hand": "left"
      },
      {
        "midi": 59,
        "time": 37,
        "duration": 2,
        "velocity": 0.49,
        "hand": "left"
      },
      {
        "midi": 62,
        "time": 37,
        "duration": 2,
        "velocity": 0.49,
        "hand": "right"
      },
      {
        "midi": 66,
        "time": 37,
        "duration": 2,
        "velocity": 0.49,
        "hand": "right"
      },
      {
        "midi": 78,
        "time": 37,
        "duration": 1,
        "velocity": 0.49,
        "hand": "right"
      },
      {
        "midi": 81,
        "time": 38,
        "duration": 1,
        "velocity": 0.52,
        "hand": "right"
      },
      {
        "midi": 38,
        "time": 39,
        "duration": 3,
        "velocity": 0.71,
        "hand": "left"
      },
      {
        "midi": 79,
        "time": 39,
        "duration": 1,
        "velocity": 0.55,
        "hand": "right"
      },
      {
        "midi": 57,
        "time": 40,
        "duration": 2,
        "velocity": 0.49,
        "hand": "left"
      },
      {
        "midi": 61,
        "time": 40,
        "duration": 2,
        "velocity": 0.49,
        "hand": "right"
      },
      {
        "midi": 66,
        "time": 40,
        "duration": 2,
        "velocity": 0.49,
        "hand": "right"
      },
      {
        "midi": 78,
        "time": 40,
        "duration": 1,
        "velocity": 0.58,
        "hand": "right"
      },
      {
        "midi": 73,
        "time": 41,
        "duration": 1,
        "velocity": 0.61,
        "hand": "right"
      },
      {
        "midi": 43,
        "time": 42,
        "duration": 3,
        "velocity": 0.71,
        "hand": "left"
      },
      {
        "midi": 71,
        "time": 42,
        "duration": 1,
        "velocity": 0.65,
        "hand": "right"
      },
      {
        "midi": 59,
        "time": 43,
        "duration": 2,
        "velocity": 0.49,
        "hand": "left"
      },
      {
        "midi": 62,
        "time": 43,
        "duration": 2,
        "velocity": 0.49,
        "hand": "right"
      },
      {
        "midi": 66,
        "time": 43,
        "duration": 2,
        "velocity": 0.49,
        "hand": "right"
      },
      {
        "midi": 73,
        "time": 43,
        "duration": 1,
        "velocity": 0.68,
        "hand": "right"
      },
      {
        "midi": 74,
        "time": 44,
        "duration": 1,
        "velocity": 0.71,
        "hand": "right"
      },
      {
        "midi": 38,
        "time": 45,
        "duration": 3,
        "velocity": 0.71,
        "hand": "left"
      },
      {
        "midi": 69,
        "time": 45,
        "duration": 3,
        "velocity": 0.71,
        "hand": "right"
      },
      {
        "midi": 57,
        "time": 46,
        "duration": 2,
        "velocity": 0.49,
        "hand": "left"
      },
      {
        "midi": 61,
        "time": 46,
        "duration": 2,
        "velocity": 0.49,
        "hand": "right"
      },
      {
        "midi": 66,
        "time": 46,
        "duration": 2,
        "velocity": 0.49,
        "hand": "right"
      },
      {
        "midi": 42,
        "time": 48,
        "duration": 3,
        "velocity": 0.71,
        "hand": "left"
      },
      {
        "midi": 73,
        "time": 48,
        "duration": 3,
        "velocity": 0.64,
        "hand": "right"
      },
      {
        "midi": 57,
        "time": 49,
        "duration": 2,
        "velocity": 0.49,
        "hand": "left"
      },
      {
        "midi": 61,
        "time": 49,
        "duration": 2,
        "velocity": 0.49,
        "hand": "right"
      },
      {
        "midi": 66,
        "time": 49,
        "duration": 2,
        "velocity": 0.49,
        "hand": "right"
      },
      {
        "midi": 35,
        "time": 51,
        "duration": 3,
        "velocity": 0.71,
        "hand": "left"
      },
      {
        "midi": 78,
        "time": 51,
        "duration": 3,
        "velocity": 0.56,
        "hand": "right"
      },
      {
        "midi": 59,
        "time": 52,
        "duration": 2,
        "velocity": 0.49,
        "hand": "left"
      },
      {
        "midi": 62,
        "time": 52,
        "duration": 2,
        "velocity": 0.49,
        "hand": "right"
      },
      {
        "midi": 66,
        "time": 52,
        "duration": 2,
        "velocity": 0.49,
        "hand": "right"
      },
      {
        "midi": 40,
        "time": 54,
        "duration": 3,
        "velocity": 0.71,
        "hand": "left"
      },
      {
        "midi": 64,
        "time": 54,
        "duration": 9,
        "velocity": 0.49,
        "hand": "right"
      },
      {
        "midi": 55,
        "time": 55,
        "duration": 2,
        "velocity": 0.71,
        "hand": "left"
      },
      {
        "midi": 59,
        "time": 55,
        "duration": 2,
        "velocity": 0.71,
        "hand": "left"
      },
      {
        "midi": 40,
        "time": 57,
        "duration": 3,
        "velocity": 0.71,
        "hand": "left"
      },
      {
        "midi": 59,
        "time": 58,
        "duration": 2,
        "velocity": 0.71,
        "hand": "left"
      },
      {
        "midi": 62,
        "time": 58,
        "duration": 2,
        "velocity": 0.71,
        "hand": "right"
      },
      {
        "midi": 67,
        "time": 58,
        "duration": 2,
        "velocity": 0.71,
        "hand": "right"
      },
      {
        "midi": 38,
        "time": 60,
        "duration": 3,
        "velocity": 0.71,
        "hand": "left"
      },
      {
        "midi": 53,
        "time": 61,
        "duration": 2,
        "velocity": 0.71,
        "hand": "left"
      },
      {
        "midi": 57,
        "time": 61,
        "duration": 2,
        "velocity": 0.71,
        "hand": "left"
      },
      {
        "midi": 62,
        "time": 61,
        "duration": 2,
        "velocity": 0.71,
        "hand": "right"
      },
      {
        "midi": 33,
        "time": 63,
        "duration": 3,
        "velocity": 0.71,
        "hand": "left"
      },
      {
        "midi": 69,
        "time": 63,
        "duration": 1,
        "velocity": 0.49,
        "hand": "right"
      },
      {
        "midi": 57,
        "time": 64,
        "duration": 2,
        "velocity": 0.54,
        "hand": "left"
      },
      {
        "midi": 60,
        "time": 64,
        "duration": 2,
        "velocity": 0.54,
        "hand": "right"
      },
      {
        "midi": 64,
        "time": 64,
        "duration": 2,
        "velocity": 0.54,
        "hand": "right"
      },
      {
        "midi": 71,
        "time": 64,
        "duration": 1,
        "velocity": 0.51,
        "hand": "right"
      },
      {
        "midi": 72,
        "time": 65,
        "duration": 1,
        "velocity": 0.54,
        "hand": "right"
      },
      {
        "midi": 38,
        "time": 66,
        "duration": 3,
        "velocity": 0.71,
        "hand": "left"
      },
      {
        "midi": 76,
        "time": 66,
        "duration": 1,
        "velocity": 0.57,
        "hand": "right"
      },
      {
        "midi": 55,
        "time": 67,
        "duration": 2,
        "velocity": 0.54,
        "hand": "left"
      },
      {
        "midi": 59,
        "time": 67,
        "duration": 2,
        "velocity": 0.54,
        "hand": "left"
      },
      {
        "midi": 64,
        "time": 67,
        "duration": 2,
        "velocity": 0.54,
        "hand": "right"
      },
      {
        "midi": 74,
        "time": 67,
        "duration": 1,
        "velocity": 0.6,
        "hand": "right"
      },
      {
        "midi": 71,
        "time": 68,
        "duration": 1,
        "velocity": 0.63,
        "hand": "right"
      },
      {
        "midi": 38,
        "time": 69,
        "duration": 3,
        "velocity": 0.71,
        "hand": "left"
      },
      {
        "midi": 74,
        "time": 69,
        "duration": 1,
        "velocity": 0.65,
        "hand": "right"
      },
      {
        "midi": 50,
        "time": 70,
        "duration": 2,
        "velocity": 0.54,
        "hand": "left"
      },
      {
        "midi": 55,
        "time": 70,
        "duration": 2,
        "velocity": 0.54,
        "hand": "left"
      },
      {
        "midi": 59,
        "time": 70,
        "duration": 2,
        "velocity": 0.54,
        "hand": "left"
      },
      {
        "midi": 64,
        "time": 70,
        "duration": 2,
        "velocity": 0.54,
        "hand": "right"
      },
      {
        "midi": 72,
        "time": 70,
        "duration": 1,
        "velocity": 0.69,
        "hand": "right"
      },
      {
        "midi": 71,
        "time": 71,
        "duration": 1,
        "velocity": 0.71,
        "hand": "right"
      },
      {
        "midi": 38,
        "time": 72,
        "duration": 3,
        "velocity": 0.71,
        "hand": "left"
      },
      {
        "midi": 74,
        "time": 72,
        "duration": 5,
        "velocity": 0.71,
        "hand": "right"
      },
      {
        "midi": 48,
        "time": 73,
        "duration": 2,
        "velocity": 0.54,
        "hand": "left"
      },
      {
        "midi": 52,
        "time": 73,
        "duration": 2,
        "velocity": 0.54,
        "hand": "left"
      },
      {
        "midi": 57,
        "time": 73,
        "duration": 2,
        "velocity": 0.54,
        "hand": "left"
      },
      {
        "midi": 62,
        "time": 73,
        "duration": 2,
        "velocity": 0.54,
        "hand": "right"
      },
      {
        "midi": 38,
        "time": 75,
        "duration": 3,
        "velocity": 0.71,
        "hand": "left"
      },
      {
        "midi": 48,
        "time": 76,
        "duration": 2,
        "velocity": 0.54,
        "hand": "left"
      },
      {
        "midi": 54,
        "time": 76,
        "duration": 2,
        "velocity": 0.54,
        "hand": "left"
      },
      {
        "midi": 57,
        "time": 76,
        "duration": 2,
        "velocity": 0.54,
        "hand": "left"
      },
      {
        "midi": 62,
        "time": 76,
        "duration": 2,
        "velocity": 0.54,
        "hand": "right"
      },
      {
        "midi": 74,
        "time": 77,
        "duration": 1,
        "velocity": 0.49,
        "hand": "right"
      },
      {
        "midi": 38,
        "time": 78,
        "duration": 3,
        "velocity": 0.71,
        "hand": "left"
      },
      {
        "midi": 76,
        "time": 78,
        "duration": 1,
        "velocity": 0.52,
        "hand": "right"
      },
      {
        "midi": 57,
        "time": 79,
        "duration": 2,
        "velocity": 0.54,
        "hand": "left"
      },
      {
        "midi": 60,
        "time": 79,
        "duration": 2,
        "velocity": 0.54,
        "hand": "right"
      },
      {
        "midi": 65,
        "time": 79,
        "duration": 2,
        "velocity": 0.54,
        "hand": "right"
      },
      {
        "midi": 77,
        "time": 79,
        "duration": 1,
        "velocity": 0.56,
        "hand": "right"
      },
      {
        "midi": 79,
        "time": 80,
        "duration": 1,
        "velocity": 0.6,
        "hand": "right"
      },
      {
        "midi": 38,
        "time": 81,
        "duration": 3,
        "velocity": 0.71,
        "hand": "left"
      },
      {
        "midi": 81,
        "time": 81,
        "duration": 1,
        "velocity": 0.64,
        "hand": "right"
      },
      {
        "midi": 57,
        "time": 82,
        "duration": 2,
        "velocity": 0.54,
        "hand": "left"
      },
      {
        "midi": 60,
        "time": 82,
        "duration": 2,
        "velocity": 0.54,
        "hand": "right"
      },
      {
        "midi": 64,
        "time": 82,
        "duration": 2,
        "velocity": 0.54,
        "hand": "right"
      },
      {
        "midi": 72,
        "time": 82,
        "duration": 1,
        "velocity": 0.68,
        "hand": "right"
      },
      {
        "midi": 74,
        "time": 83,
        "duration": 1,
        "velocity": 0.71,
        "hand": "right"
      },
      {
        "midi": 38,
        "time": 84,
        "duration": 3,
        "velocity": 0.71,
        "hand": "left"
      },
      {
        "midi": 76,
        "time": 84,
        "duration": 1,
        "velocity": 0.71,
        "hand": "right"
      },
      {
        "midi": 50,
        "time": 85,
        "duration": 2,
        "velocity": 0.54,
        "hand": "left"
      },
      {
        "midi": 55,
        "time": 85,
        "duration": 2,
        "velocity": 0.54,
        "hand": "left"
      },
      {
        "midi": 59,
        "time": 85,
        "duration": 2,
        "velocity": 0.54,
        "hand": "left"
      },
      {
        "midi": 64,
        "time": 85,
        "duration": 2,
        "velocity": 0.54,
        "hand": "right"
      },
      {
        "midi": 74,
        "time": 85,
        "duration": 1,
        "velocity": 0.64,
        "hand": "right"
      },
      {
        "midi": 71,
        "time": 86,
        "duration": 1,
        "velocity": 0.56,
        "hand": "right"
      },
      {
        "midi": 38,
        "time": 87,
        "duration": 3,
        "velocity": 0.71,
        "hand": "left"
      },
      {
        "midi": 74,
        "time": 87,
        "duration": 5,
        "velocity": 0.49,
        "hand": "right"
      },
      {
        "midi": 48,
        "time": 88,
        "duration": 2,
        "velocity": 0.54,
        "hand": "left"
      },
      {
        "midi": 52,
        "time": 88,
        "duration": 2,
        "velocity": 0.54,
        "hand": "left"
      },
      {
        "midi": 57,
        "time": 88,
        "duration": 2,
        "velocity": 0.54,
        "hand": "left"
      },
      {
        "midi": 62,
        "time": 88,
        "duration": 2,
        "velocity": 0.54,
        "hand": "right"
      },
      {
        "midi": 38,
        "time": 90,
        "duration": 3,
        "velocity": 0.71,
        "hand": "left"
      },
      {
        "midi": 48,
        "time": 91,
        "duration": 2,
        "velocity": 0.54,
        "hand": "left"
      },
      {
        "midi": 54,
        "time": 91,
        "duration": 2,
        "velocity": 0.54,
        "hand": "left"
      },
      {
        "midi": 57,
        "time": 91,
        "duration": 2,
        "velocity": 0.54,
        "hand": "left"
      },
      {
        "midi": 62,
        "time": 91,
        "duration": 2,
        "velocity": 0.54,
        "hand": "right"
      },
      {
        "midi": 74,
        "time": 92,
        "duration": 1,
        "velocity": 0.49,
        "hand": "right"
      },
      {
        "midi": 40,
        "time": 93,
        "duration": 3,
        "velocity": 0.71,
        "hand": "left"
      },
      {
        "midi": 79,
        "time": 93,
        "duration": 3,
        "velocity": 0.49,
        "hand": "right"
      },
      {
        "midi": 59,
        "time": 94,
        "duration": 2,
        "velocity": 0.49,
        "hand": "left"
      },
      {
        "midi": 64,
        "time": 94,
        "duration": 2,
        "velocity": 0.49,
        "hand": "right"
      },
      {
        "midi": 67,
        "time": 94,
        "duration": 2,
        "velocity": 0.49,
        "hand": "right"
      },
      {
        "midi": 42,
        "time": 96,
        "duration": 3,
        "velocity": 0.71,
        "hand": "left"
      },
      {
        "midi": 78,
        "time": 96,
        "duration": 3,
        "velocity": 0.71,
        "hand": "right"
      },
      {
        "midi": 57,
        "time": 97,
        "duration": 2,
        "velocity": 0.49,
        "hand": "left"
      },
      {
        "midi": 61,
        "time": 97,
        "duration": 2,
        "velocity": 0.49,
        "hand": "right"
      },
      {
        "midi": 66,
        "time": 97,
        "duration": 2,
        "velocity": 0.49,
        "hand": "right"
      },
      {
        "midi": 35,
        "time": 99,
        "duration": 3,
        "velocity": 0.71,
        "hand": "left"
      },
      {
        "midi": 71,
        "time": 99,
        "duration": 1,
        "velocity": 0.71,
        "hand": "right"
      },
      {
        "midi": 59,
        "time": 100,
        "duration": 2,
        "velocity": 0.49,
        "hand": "left"
      },
      {
        "midi": 62,
        "time": 100,
        "duration": 2,
        "velocity": 0.49,
        "hand": "right"
      },
      {
        "midi": 66,
        "time": 100,
        "duration": 2,
        "velocity": 0.49,
        "hand": "right"
      },
      {
        "midi": 69,
        "time": 100,
        "duration": 1,
        "velocity": 0.71,
        "hand": "right"
      },
      {
        "midi": 71,
        "time": 101,
        "duration": 1,
        "velocity": 0.71,
        "hand": "right"
      },
      {
        "midi": 40,
        "time": 102,
        "duration": 3,
        "velocity": 0.71,
        "hand": "left"
      },
      {
        "midi": 73,
        "time": 102,
        "duration": 1,
        "velocity": 0.71,
        "hand": "right"
      },
      {
        "midi": 61,
        "time": 103,
        "duration": 2,
        "velocity": 0.49,
        "hand": "right"
      },
      {
        "midi": 64,
        "time": 103,
        "duration": 2,
        "velocity": 0.49,
        "hand": "right"
      },
      {
        "midi": 69,
        "time": 103,
        "duration": 2,
        "velocity": 0.49,
        "hand": "right"
      },
      {
        "midi": 74,
        "time": 103,
        "duration": 1,
        "velocity": 0.71,
        "hand": "right"
      },
      {
        "midi": 76,
        "time": 104,
        "duration": 1,
        "velocity": 0.71,
        "hand": "right"
      },
      {
        "midi": 40,
        "time": 105,
        "duration": 3,
        "velocity": 0.71,
        "hand": "left"
      },
      {
        "midi": 73,
        "time": 105,
        "duration": 1,
        "velocity": 0.71,
        "hand": "right"
      },
      {
        "midi": 57,
        "time": 106,
        "duration": 2,
        "velocity": 0.49,
        "hand": "left"
      },
      {
        "midi": 61,
        "time": 106,
        "duration": 2,
        "velocity": 0.49,
        "hand": "right"
      },
      {
        "midi": 66,
        "time": 106,
        "duration": 2,
        "velocity": 0.49,
        "hand": "right"
      },
      {
        "midi": 69,
        "time": 106,
        "duration": 2,
        "velocity": 0.49,
        "hand": "right"
      },
      {
        "midi": 74,
        "time": 106,
        "duration": 1,
        "velocity": 0.71,
        "hand": "right"
      },
      {
        "midi": 76,
        "time": 107,
        "duration": 1,
        "velocity": 0.67,
        "hand": "right"
      },
      {
        "midi": 40,
        "time": 108,
        "duration": 3,
        "velocity": 0.71,
        "hand": "left"
      },
      {
        "midi": 66,
        "time": 108,
        "duration": 3,
        "velocity": 0.62,
        "hand": "right"
      },
      {
        "midi": 47,
        "time": 109,
        "duration": 1,
        "velocity": 0.71,
        "hand": "left"
      },
      {
        "midi": 57,
        "time": 109,
        "duration": 1,
        "velocity": 0.49,
        "hand": "left"
      },
      {
        "midi": 62,
        "time": 109,
        "duration": 1,
        "velocity": 0.49,
        "hand": "right"
      },
      {
        "midi": 52,
        "time": 110,
        "duration": 1,
        "velocity": 0.71,
        "hand": "left"
      },
      {
        "midi": 59,
        "time": 110,
        "duration": 1,
        "velocity": 0.49,
        "hand": "left"
      },
      {
        "midi": 62,
        "time": 110,
        "duration": 1,
        "velocity": 0.49,
        "hand": "right"
      },
      {
        "midi": 67,
        "time": 110,
        "duration": 1,
        "velocity": 0.49,
        "hand": "right"
      },
      {
        "midi": 45,
        "time": 111,
        "duration": 3,
        "velocity": 0.71,
        "hand": "left"
      },
      {
        "midi": 55,
        "time": 111,
        "duration": 3,
        "velocity": 0.71,
        "hand": "left"
      },
      {
        "midi": 60,
        "time": 111,
        "duration": 3,
        "velocity": 0.49,
        "hand": "right"
      },
      {
        "midi": 64,
        "time": 111,
        "duration": 3,
        "velocity": 0.49,
        "hand": "right"
      },
      {
        "midi": 69,
        "time": 111,
        "duration": 3,
        "velocity": 0.49,
        "hand": "right"
      },
      {
        "midi": 72,
        "time": 111,
        "duration": 3,
        "velocity": 0.49,
        "hand": "right"
      },
      {
        "midi": 38,
        "time": 114,
        "duration": 3,
        "velocity": 0.71,
        "hand": "left"
      },
      {
        "midi": 45,
        "time": 114,
        "duration": 3,
        "velocity": 0.71,
        "hand": "left"
      },
      {
        "midi": 50,
        "time": 114,
        "duration": 3,
        "velocity": 0.71,
        "hand": "left"
      },
      {
        "midi": 62,
        "time": 114,
        "duration": 3,
        "velocity": 0.49,
        "hand": "right"
      },
      {
        "midi": 66,
        "time": 114,
        "duration": 3,
        "velocity": 0.49,
        "hand": "right"
      },
      {
        "midi": 69,
        "time": 114,
        "duration": 3,
        "velocity": 0.49,
        "hand": "right"
      },
      {
        "midi": 74,
        "time": 114,
        "duration": 3,
        "velocity": 0.49,
        "hand": "right"
      },
      {
        "midi": 40,
        "time": 117,
        "duration": 3,
        "velocity": 0.71,
        "hand": "left"
      },
      {
        "midi": 79,
        "time": 117,
        "duration": 3,
        "velocity": 0.49,
        "hand": "right"
      },
      {
        "midi": 59,
        "time": 118,
        "duration": 2,
        "velocity": 0.49,
        "hand": "left"
      },
      {
        "midi": 64,
        "time": 118,
        "duration": 2,
        "velocity": 0.49,
        "hand": "right"
      },
      {
        "midi": 67,
        "time": 118,
        "duration": 2,
        "velocity": 0.49,
        "hand": "right"
      },
      {
        "midi": 40,
        "time": 120,
        "duration": 3,
        "velocity": 0.71,
        "hand": "left"
      },
      {
        "midi": 77,
        "time": 120,
        "duration": 3,
        "velocity": 0.71,
        "hand": "right"
      },
      {
        "midi": 57,
        "time": 121,
        "duration": 2,
        "velocity": 0.49,
        "hand": "left"
      },
      {
        "midi": 62,
        "time": 121,
        "duration": 2,
        "velocity": 0.49,
        "hand": "right"
      },
      {
        "midi": 65,
        "time": 121,
        "duration": 2,
        "velocity": 0.49,
        "hand": "right"
      },
      {
        "midi": 69,
        "time": 121,
        "duration": 2,
        "velocity": 0.49,
        "hand": "right"
      },
      {
        "midi": 40,
        "time": 123,
        "duration": 3,
        "velocity": 0.71,
        "hand": "left"
      },
      {
        "midi": 71,
        "time": 123,
        "duration": 1,
        "velocity": 0.71,
        "hand": "right"
      },
      {
        "midi": 57,
        "time": 124,
        "duration": 2,
        "velocity": 0.49,
        "hand": "left"
      },
      {
        "midi": 60,
        "time": 124,
        "duration": 2,
        "velocity": 0.49,
        "hand": "right"
      },
      {
        "midi": 65,
        "time": 124,
        "duration": 2,
        "velocity": 0.49,
        "hand": "right"
      },
      {
        "midi": 72,
        "time": 124,
        "duration": 1,
        "velocity": 0.71,
        "hand": "right"
      },
      {
        "midi": 77,
        "time": 125,
        "duration": 1,
        "velocity": 0.71,
        "hand": "right"
      },
      {
        "midi": 40,
        "time": 126,
        "duration": 3,
        "velocity": 0.71,
        "hand": "left"
      },
      {
        "midi": 76,
        "time": 126,
        "duration": 1,
        "velocity": 0.71,
        "hand": "right"
      },
      {
        "midi": 60,
        "time": 127,
        "duration": 2,
        "velocity": 0.49,
        "hand": "right"
      },
      {
        "midi": 64,
        "time": 127,
        "duration": 2,
        "velocity": 0.49,
        "hand": "right"
      },
      {
        "midi": 69,
        "time": 127,
        "duration": 2,
        "velocity": 0.49,
        "hand": "right"
      },
      {
        "midi": 74,
        "time": 127,
        "duration": 1,
        "velocity": 0.71,
        "hand": "right"
      },
      {
        "midi": 72,
        "time": 128,
        "duration": 1,
        "velocity": 0.71,
        "hand": "right"
      },
      {
        "midi": 40,
        "time": 129,
        "duration": 3,
        "velocity": 0.71,
        "hand": "left"
      },
      {
        "midi": 76,
        "time": 129,
        "duration": 1,
        "velocity": 0.71,
        "hand": "right"
      },
      {
        "midi": 57,
        "time": 130,
        "duration": 2,
        "velocity": 0.49,
        "hand": "left"
      },
      {
        "midi": 60,
        "time": 130,
        "duration": 2,
        "velocity": 0.49,
        "hand": "right"
      },
      {
        "midi": 65,
        "time": 130,
        "duration": 2,
        "velocity": 0.49,
        "hand": "right"
      },
      {
        "midi": 69,
        "time": 130,
        "duration": 2,
        "velocity": 0.49,
        "hand": "right"
      },
      {
        "midi": 74,
        "time": 130,
        "duration": 1,
        "velocity": 0.71,
        "hand": "right"
      },
      {
        "midi": 72,
        "time": 131,
        "duration": 1,
        "velocity": 0.71,
        "hand": "right"
      },
      {
        "midi": 40,
        "time": 132,
        "duration": 3,
        "velocity": 0.71,
        "hand": "left"
      },
      {
        "midi": 65,
        "time": 132,
        "duration": 3,
        "velocity": 0.68,
        "hand": "right"
      },
      {
        "midi": 47,
        "time": 133,
        "duration": 1,
        "velocity": 0.71,
        "hand": "left"
      },
      {
        "midi": 57,
        "time": 133,
        "duration": 1,
        "velocity": 0.49,
        "hand": "left"
      },
      {
        "midi": 62,
        "time": 133,
        "duration": 1,
        "velocity": 0.49,
        "hand": "right"
      },
      {
        "midi": 52,
        "time": 134,
        "duration": 1,
        "velocity": 0.71,
        "hand": "left"
      },
      {
        "midi": 59,
        "time": 134,
        "duration": 1,
        "velocity": 0.49,
        "hand": "left"
      },
      {
        "midi": 62,
        "time": 134,
        "duration": 1,
        "velocity": 0.49,
        "hand": "right"
      },
      {
        "midi": 67,
        "time": 134,
        "duration": 1,
        "velocity": 0.49,
        "hand": "right"
      },
      {
        "midi": 45,
        "time": 135,
        "duration": 3,
        "velocity": 0.71,
        "hand": "left"
      },
      {
        "midi": 55,
        "time": 135,
        "duration": 3,
        "velocity": 0.71,
        "hand": "left"
      },
      {
        "midi": 60,
        "time": 135,
        "duration": 3,
        "velocity": 0.58,
        "hand": "right"
      },
      {
        "midi": 64,
        "time": 135,
        "duration": 3,
        "velocity": 0.58,
        "hand": "right"
      },
      {
        "midi": 69,
        "time": 135,
        "duration": 3,
        "velocity": 0.58,
        "hand": "right"
      },
      {
        "midi": 72,
        "time": 135,
        "duration": 3,
        "velocity": 0.58,
        "hand": "right"
      },
      {
        "midi": 38,
        "time": 138,
        "duration": 3,
        "velocity": 0.71,
        "hand": "left"
      },
      {
        "midi": 45,
        "time": 138,
        "duration": 3,
        "velocity": 0.71,
        "hand": "left"
      },
      {
        "midi": 50,
        "time": 138,
        "duration": 3,
        "velocity": 0.71,
        "hand": "left"
      },
      {
        "midi": 62,
        "time": 138,
        "duration": 3,
        "velocity": 0.49,
        "hand": "right"
      },
      {
        "midi": 65,
        "time": 138,
        "duration": 3,
        "velocity": 0.49,
        "hand": "right"
      },
      {
        "midi": 69,
        "time": 138,
        "duration": 3,
        "velocity": 0.49,
        "hand": "right"
      },
      {
        "midi": 74,
        "time": 138,
        "duration": 3,
        "velocity": 0.49,
        "hand": "right"
      }
    ]
  },
  "notes1Hand": [
    {
      "midi": 66,
      "time": 1,
      "duration": 2,
      "velocity": 0.71,
      "hand": "right"
    },
    {
      "midi": 66,
      "time": 4,
      "duration": 2,
      "velocity": 0.71,
      "hand": "right"
    },
    {
      "midi": 66,
      "time": 7,
      "duration": 2,
      "velocity": 0.71,
      "hand": "right"
    },
    {
      "midi": 66,
      "time": 10,
      "duration": 2,
      "velocity": 0.71,
      "hand": "right"
    },
    {
      "midi": 78,
      "time": 13,
      "duration": 1,
      "velocity": 0.49,
      "hand": "right"
    },
    {
      "midi": 81,
      "time": 14,
      "duration": 1,
      "velocity": 0.52,
      "hand": "right"
    },
    {
      "midi": 79,
      "time": 15,
      "duration": 1,
      "velocity": 0.56,
      "hand": "right"
    },
    {
      "midi": 78,
      "time": 16,
      "duration": 1,
      "velocity": 0.6,
      "hand": "right"
    },
    {
      "midi": 73,
      "time": 17,
      "duration": 1,
      "velocity": 0.64,
      "hand": "right"
    },
    {
      "midi": 71,
      "time": 18,
      "duration": 1,
      "velocity": 0.68,
      "hand": "right"
    },
    {
      "midi": 73,
      "time": 19,
      "duration": 1,
      "velocity": 0.71,
      "hand": "right"
    },
    {
      "midi": 74,
      "time": 20,
      "duration": 1,
      "velocity": 0.71,
      "hand": "right"
    },
    {
      "midi": 69,
      "time": 21,
      "duration": 3,
      "velocity": 0.65,
      "hand": "right"
    },
    {
      "midi": 66,
      "time": 22,
      "duration": 2,
      "velocity": 0.71,
      "hand": "right"
    },
    {
      "midi": 66,
      "time": 24,
      "duration": 1,
      "velocity": 0.49,
      "hand": "right"
    },
    {
      "midi": 66,
      "time": 25,
      "duration": 3,
      "velocity": 0.75,
      "hand": "right"
    },
    {
      "midi": 66,
      "time": 28,
      "duration": 3,
      "velocity": 0.75,
      "hand": "right"
    },
    {
      "midi": 66,
      "time": 31,
      "duration": 3,
      "velocity": 0.75,
      "hand": "right"
    },
    {
      "midi": 66,
      "time": 34,
      "duration": 2,
      "velocity": 0.75,
      "hand": "right"
    },
    {
      "midi": 78,
      "time": 37,
      "duration": 1,
      "velocity": 0.49,
      "hand": "right"
    },
    {
      "midi": 81,
      "time": 38,
      "duration": 1,
      "velocity": 0.52,
      "hand": "right"
    },
    {
      "midi": 79,
      "time": 39,
      "duration": 1,
      "velocity": 0.55,
      "hand": "right"
    },
    {
      "midi": 78,
      "time": 40,
      "duration": 1,
      "velocity": 0.58,
      "hand": "right"
    },
    {
      "midi": 73,
      "time": 41,
      "duration": 1,
      "velocity": 0.61,
      "hand": "right"
    },
    {
      "midi": 71,
      "time": 42,
      "duration": 1,
      "velocity": 0.65,
      "hand": "right"
    },
    {
      "midi": 73,
      "time": 43,
      "duration": 1,
      "velocity": 0.68,
      "hand": "right"
    },
    {
      "midi": 74,
      "time": 44,
      "duration": 1,
      "velocity": 0.71,
      "hand": "right"
    },
    {
      "midi": 69,
      "time": 45,
      "duration": 3,
      "velocity": 0.71,
      "hand": "right"
    },
    {
      "midi": 66,
      "time": 46,
      "duration": 2,
      "velocity": 0.49,
      "hand": "right"
    },
    {
      "midi": 73,
      "time": 48,
      "duration": 3,
      "velocity": 0.64,
      "hand": "right"
    },
    {
      "midi": 66,
      "time": 49,
      "duration": 2,
      "velocity": 0.49,
      "hand": "right"
    },
    {
      "midi": 78,
      "time": 51,
      "duration": 3,
      "velocity": 0.56,
      "hand": "right"
    },
    {
      "midi": 66,
      "time": 52,
      "duration": 2,
      "velocity": 0.49,
      "hand": "right"
    },
    {
      "midi": 64,
      "time": 54,
      "duration": 9,
      "velocity": 0.49,
      "hand": "right"
    },
    {
      "midi": 67,
      "time": 58,
      "duration": 2,
      "velocity": 0.71,
      "hand": "right"
    },
    {
      "midi": 62,
      "time": 61,
      "duration": 2,
      "velocity": 0.71,
      "hand": "right"
    },
    {
      "midi": 69,
      "time": 63,
      "duration": 1,
      "velocity": 0.49,
      "hand": "right"
    },
    {
      "midi": 71,
      "time": 64,
      "duration": 1,
      "velocity": 0.51,
      "hand": "right"
    },
    {
      "midi": 72,
      "time": 65,
      "duration": 1,
      "velocity": 0.54,
      "hand": "right"
    },
    {
      "midi": 76,
      "time": 66,
      "duration": 1,
      "velocity": 0.57,
      "hand": "right"
    },
    {
      "midi": 74,
      "time": 67,
      "duration": 1,
      "velocity": 0.6,
      "hand": "right"
    },
    {
      "midi": 71,
      "time": 68,
      "duration": 1,
      "velocity": 0.63,
      "hand": "right"
    },
    {
      "midi": 74,
      "time": 69,
      "duration": 1,
      "velocity": 0.65,
      "hand": "right"
    },
    {
      "midi": 72,
      "time": 70,
      "duration": 1,
      "velocity": 0.69,
      "hand": "right"
    },
    {
      "midi": 71,
      "time": 71,
      "duration": 1,
      "velocity": 0.71,
      "hand": "right"
    },
    {
      "midi": 74,
      "time": 72,
      "duration": 5,
      "velocity": 0.71,
      "hand": "right"
    },
    {
      "midi": 62,
      "time": 73,
      "duration": 2,
      "velocity": 0.54,
      "hand": "right"
    },
    {
      "midi": 62,
      "time": 76,
      "duration": 2,
      "velocity": 0.54,
      "hand": "right"
    },
    {
      "midi": 74,
      "time": 77,
      "duration": 1,
      "velocity": 0.49,
      "hand": "right"
    },
    {
      "midi": 76,
      "time": 78,
      "duration": 1,
      "velocity": 0.52,
      "hand": "right"
    },
    {
      "midi": 77,
      "time": 79,
      "duration": 1,
      "velocity": 0.56,
      "hand": "right"
    },
    {
      "midi": 79,
      "time": 80,
      "duration": 1,
      "velocity": 0.6,
      "hand": "right"
    },
    {
      "midi": 81,
      "time": 81,
      "duration": 1,
      "velocity": 0.64,
      "hand": "right"
    },
    {
      "midi": 72,
      "time": 82,
      "duration": 1,
      "velocity": 0.68,
      "hand": "right"
    },
    {
      "midi": 74,
      "time": 83,
      "duration": 1,
      "velocity": 0.71,
      "hand": "right"
    },
    {
      "midi": 76,
      "time": 84,
      "duration": 1,
      "velocity": 0.71,
      "hand": "right"
    },
    {
      "midi": 74,
      "time": 85,
      "duration": 1,
      "velocity": 0.64,
      "hand": "right"
    },
    {
      "midi": 71,
      "time": 86,
      "duration": 1,
      "velocity": 0.56,
      "hand": "right"
    },
    {
      "midi": 74,
      "time": 87,
      "duration": 5,
      "velocity": 0.49,
      "hand": "right"
    },
    {
      "midi": 62,
      "time": 88,
      "duration": 2,
      "velocity": 0.54,
      "hand": "right"
    },
    {
      "midi": 62,
      "time": 91,
      "duration": 2,
      "velocity": 0.54,
      "hand": "right"
    },
    {
      "midi": 74,
      "time": 92,
      "duration": 1,
      "velocity": 0.49,
      "hand": "right"
    },
    {
      "midi": 79,
      "time": 93,
      "duration": 3,
      "velocity": 0.49,
      "hand": "right"
    },
    {
      "midi": 67,
      "time": 94,
      "duration": 2,
      "velocity": 0.49,
      "hand": "right"
    },
    {
      "midi": 78,
      "time": 96,
      "duration": 3,
      "velocity": 0.71,
      "hand": "right"
    },
    {
      "midi": 66,
      "time": 97,
      "duration": 2,
      "velocity": 0.49,
      "hand": "right"
    },
    {
      "midi": 71,
      "time": 99,
      "duration": 1,
      "velocity": 0.71,
      "hand": "right"
    },
    {
      "midi": 69,
      "time": 100,
      "duration": 1,
      "velocity": 0.71,
      "hand": "right"
    },
    {
      "midi": 71,
      "time": 101,
      "duration": 1,
      "velocity": 0.71,
      "hand": "right"
    },
    {
      "midi": 73,
      "time": 102,
      "duration": 1,
      "velocity": 0.71,
      "hand": "right"
    },
    {
      "midi": 74,
      "time": 103,
      "duration": 1,
      "velocity": 0.71,
      "hand": "right"
    },
    {
      "midi": 76,
      "time": 104,
      "duration": 1,
      "velocity": 0.71,
      "hand": "right"
    },
    {
      "midi": 73,
      "time": 105,
      "duration": 1,
      "velocity": 0.71,
      "hand": "right"
    },
    {
      "midi": 74,
      "time": 106,
      "duration": 1,
      "velocity": 0.71,
      "hand": "right"
    },
    {
      "midi": 76,
      "time": 107,
      "duration": 1,
      "velocity": 0.67,
      "hand": "right"
    },
    {
      "midi": 66,
      "time": 108,
      "duration": 3,
      "velocity": 0.62,
      "hand": "right"
    },
    {
      "midi": 62,
      "time": 109,
      "duration": 1,
      "velocity": 0.49,
      "hand": "right"
    },
    {
      "midi": 67,
      "time": 110,
      "duration": 1,
      "velocity": 0.49,
      "hand": "right"
    },
    {
      "midi": 72,
      "time": 111,
      "duration": 3,
      "velocity": 0.49,
      "hand": "right"
    },
    {
      "midi": 74,
      "time": 114,
      "duration": 3,
      "velocity": 0.49,
      "hand": "right"
    },
    {
      "midi": 79,
      "time": 117,
      "duration": 3,
      "velocity": 0.49,
      "hand": "right"
    },
    {
      "midi": 67,
      "time": 118,
      "duration": 2,
      "velocity": 0.49,
      "hand": "right"
    },
    {
      "midi": 77,
      "time": 120,
      "duration": 3,
      "velocity": 0.71,
      "hand": "right"
    },
    {
      "midi": 69,
      "time": 121,
      "duration": 2,
      "velocity": 0.49,
      "hand": "right"
    },
    {
      "midi": 71,
      "time": 123,
      "duration": 1,
      "velocity": 0.71,
      "hand": "right"
    },
    {
      "midi": 72,
      "time": 124,
      "duration": 1,
      "velocity": 0.71,
      "hand": "right"
    },
    {
      "midi": 77,
      "time": 125,
      "duration": 1,
      "velocity": 0.71,
      "hand": "right"
    },
    {
      "midi": 76,
      "time": 126,
      "duration": 1,
      "velocity": 0.71,
      "hand": "right"
    },
    {
      "midi": 74,
      "time": 127,
      "duration": 1,
      "velocity": 0.71,
      "hand": "right"
    },
    {
      "midi": 72,
      "time": 128,
      "duration": 1,
      "velocity": 0.71,
      "hand": "right"
    },
    {
      "midi": 76,
      "time": 129,
      "duration": 1,
      "velocity": 0.71,
      "hand": "right"
    },
    {
      "midi": 74,
      "time": 130,
      "duration": 1,
      "velocity": 0.71,
      "hand": "right"
    },
    {
      "midi": 72,
      "time": 131,
      "duration": 1,
      "velocity": 0.71,
      "hand": "right"
    },
    {
      "midi": 65,
      "time": 132,
      "duration": 3,
      "velocity": 0.68,
      "hand": "right"
    },
    {
      "midi": 62,
      "time": 133,
      "duration": 1,
      "velocity": 0.49,
      "hand": "right"
    },
    {
      "midi": 67,
      "time": 134,
      "duration": 1,
      "velocity": 0.49,
      "hand": "right"
    },
    {
      "midi": 72,
      "time": 135,
      "duration": 3,
      "velocity": 0.58,
      "hand": "right"
    },
    {
      "midi": 74,
      "time": 138,
      "duration": 3,
      "velocity": 0.49,
      "hand": "right"
    }
  ],
  "notes2Hands": [
    {
      "midi": 43,
      "time": 0,
      "duration": 3,
      "velocity": 0.71,
      "hand": "left"
    },
    {
      "midi": 59,
      "time": 1,
      "duration": 2,
      "velocity": 0.71,
      "hand": "left"
    },
    {
      "midi": 62,
      "time": 1,
      "duration": 2,
      "velocity": 0.71,
      "hand": "right"
    },
    {
      "midi": 66,
      "time": 1,
      "duration": 2,
      "velocity": 0.71,
      "hand": "right"
    },
    {
      "midi": 38,
      "time": 3,
      "duration": 3,
      "velocity": 0.71,
      "hand": "left"
    },
    {
      "midi": 57,
      "time": 4,
      "duration": 2,
      "velocity": 0.71,
      "hand": "left"
    },
    {
      "midi": 61,
      "time": 4,
      "duration": 2,
      "velocity": 0.71,
      "hand": "right"
    },
    {
      "midi": 66,
      "time": 4,
      "duration": 2,
      "velocity": 0.71,
      "hand": "right"
    },
    {
      "midi": 43,
      "time": 6,
      "duration": 3,
      "velocity": 0.71,
      "hand": "left"
    },
    {
      "midi": 59,
      "time": 7,
      "duration": 2,
      "velocity": 0.71,
      "hand": "left"
    },
    {
      "midi": 62,
      "time": 7,
      "duration": 2,
      "velocity": 0.71,
      "hand": "right"
    },
    {
      "midi": 66,
      "time": 7,
      "duration": 2,
      "velocity": 0.71,
      "hand": "right"
    },
    {
      "midi": 38,
      "time": 9,
      "duration": 3,
      "velocity": 0.71,
      "hand": "left"
    },
    {
      "midi": 57,
      "time": 10,
      "duration": 2,
      "velocity": 0.71,
      "hand": "left"
    },
    {
      "midi": 61,
      "time": 10,
      "duration": 2,
      "velocity": 0.71,
      "hand": "right"
    },
    {
      "midi": 66,
      "time": 10,
      "duration": 2,
      "velocity": 0.71,
      "hand": "right"
    },
    {
      "midi": 43,
      "time": 12,
      "duration": 3,
      "velocity": 0.71,
      "hand": "left"
    },
    {
      "midi": 59,
      "time": 13,
      "duration": 2,
      "velocity": 0.71,
      "hand": "left"
    },
    {
      "midi": 62,
      "time": 13,
      "duration": 2,
      "velocity": 0.71,
      "hand": "right"
    },
    {
      "midi": 66,
      "time": 13,
      "duration": 2,
      "velocity": 0.71,
      "hand": "right"
    },
    {
      "midi": 78,
      "time": 13,
      "duration": 1,
      "velocity": 0.49,
      "hand": "right"
    },
    {
      "midi": 81,
      "time": 14,
      "duration": 1,
      "velocity": 0.52,
      "hand": "right"
    },
    {
      "midi": 38,
      "time": 15,
      "duration": 3,
      "velocity": 0.71,
      "hand": "left"
    },
    {
      "midi": 79,
      "time": 15,
      "duration": 1,
      "velocity": 0.56,
      "hand": "right"
    },
    {
      "midi": 57,
      "time": 16,
      "duration": 2,
      "velocity": 0.71,
      "hand": "left"
    },
    {
      "midi": 61,
      "time": 16,
      "duration": 2,
      "velocity": 0.71,
      "hand": "right"
    },
    {
      "midi": 66,
      "time": 16,
      "duration": 2,
      "velocity": 0.71,
      "hand": "right"
    },
    {
      "midi": 78,
      "time": 16,
      "duration": 1,
      "velocity": 0.6,
      "hand": "right"
    },
    {
      "midi": 73,
      "time": 17,
      "duration": 1,
      "velocity": 0.64,
      "hand": "right"
    },
    {
      "midi": 43,
      "time": 18,
      "duration": 3,
      "velocity": 0.71,
      "hand": "left"
    },
    {
      "midi": 71,
      "time": 18,
      "duration": 1,
      "velocity": 0.68,
      "hand": "right"
    },
    {
      "midi": 59,
      "time": 19,
      "duration": 2,
      "velocity": 0.71,
      "hand": "left"
    },
    {
      "midi": 62,
      "time": 19,
      "duration": 2,
      "velocity": 0.71,
      "hand": "right"
    },
    {
      "midi": 66,
      "time": 19,
      "duration": 2,
      "velocity": 0.71,
      "hand": "right"
    },
    {
      "midi": 73,
      "time": 19,
      "duration": 1,
      "velocity": 0.71,
      "hand": "right"
    },
    {
      "midi": 74,
      "time": 20,
      "duration": 1,
      "velocity": 0.71,
      "hand": "right"
    },
    {
      "midi": 38,
      "time": 21,
      "duration": 3,
      "velocity": 0.71,
      "hand": "left"
    },
    {
      "midi": 69,
      "time": 21,
      "duration": 3,
      "velocity": 0.65,
      "hand": "right"
    },
    {
      "midi": 57,
      "time": 22,
      "duration": 2,
      "velocity": 0.71,
      "hand": "left"
    },
    {
      "midi": 61,
      "time": 22,
      "duration": 2,
      "velocity": 0.71,
      "hand": "right"
    },
    {
      "midi": 66,
      "time": 22,
      "duration": 2,
      "velocity": 0.71,
      "hand": "right"
    },
    {
      "midi": 43,
      "time": 24,
      "duration": 3,
      "velocity": 0.71,
      "hand": "left"
    },
    {
      "midi": 66,
      "time": 24,
      "duration": 1,
      "velocity": 0.49,
      "hand": "right"
    },
    {
      "midi": 59,
      "time": 25,
      "duration": 2,
      "velocity": 0.75,
      "hand": "left"
    },
    {
      "midi": 62,
      "time": 25,
      "duration": 2,
      "velocity": 0.75,
      "hand": "right"
    },
    {
      "midi": 66,
      "time": 25,
      "duration": 3,
      "velocity": 0.75,
      "hand": "right"
    },
    {
      "midi": 38,
      "time": 27,
      "duration": 3,
      "velocity": 0.71,
      "hand": "left"
    },
    {
      "midi": 57,
      "time": 28,
      "duration": 2,
      "velocity": 0.75,
      "hand": "left"
    },
    {
      "midi": 61,
      "time": 28,
      "duration": 2,
      "velocity": 0.75,
      "hand": "right"
    },
    {
      "midi": 66,
      "time": 28,
      "duration": 3,
      "velocity": 0.75,
      "hand": "right"
    },
    {
      "midi": 43,
      "time": 30,
      "duration": 3,
      "velocity": 0.71,
      "hand": "left"
    },
    {
      "midi": 59,
      "time": 31,
      "duration": 2,
      "velocity": 0.75,
      "hand": "left"
    },
    {
      "midi": 62,
      "time": 31,
      "duration": 2,
      "velocity": 0.75,
      "hand": "right"
    },
    {
      "midi": 66,
      "time": 31,
      "duration": 3,
      "velocity": 0.75,
      "hand": "right"
    },
    {
      "midi": 38,
      "time": 33,
      "duration": 3,
      "velocity": 0.71,
      "hand": "left"
    },
    {
      "midi": 57,
      "time": 34,
      "duration": 2,
      "velocity": 0.75,
      "hand": "left"
    },
    {
      "midi": 61,
      "time": 34,
      "duration": 2,
      "velocity": 0.75,
      "hand": "right"
    },
    {
      "midi": 66,
      "time": 34,
      "duration": 2,
      "velocity": 0.75,
      "hand": "right"
    },
    {
      "midi": 43,
      "time": 36,
      "duration": 3,
      "velocity": 0.71,
      "hand": "left"
    },
    {
      "midi": 59,
      "time": 37,
      "duration": 2,
      "velocity": 0.49,
      "hand": "left"
    },
    {
      "midi": 62,
      "time": 37,
      "duration": 2,
      "velocity": 0.49,
      "hand": "right"
    },
    {
      "midi": 66,
      "time": 37,
      "duration": 2,
      "velocity": 0.49,
      "hand": "right"
    },
    {
      "midi": 78,
      "time": 37,
      "duration": 1,
      "velocity": 0.49,
      "hand": "right"
    },
    {
      "midi": 81,
      "time": 38,
      "duration": 1,
      "velocity": 0.52,
      "hand": "right"
    },
    {
      "midi": 38,
      "time": 39,
      "duration": 3,
      "velocity": 0.71,
      "hand": "left"
    },
    {
      "midi": 79,
      "time": 39,
      "duration": 1,
      "velocity": 0.55,
      "hand": "right"
    },
    {
      "midi": 57,
      "time": 40,
      "duration": 2,
      "velocity": 0.49,
      "hand": "left"
    },
    {
      "midi": 61,
      "time": 40,
      "duration": 2,
      "velocity": 0.49,
      "hand": "right"
    },
    {
      "midi": 66,
      "time": 40,
      "duration": 2,
      "velocity": 0.49,
      "hand": "right"
    },
    {
      "midi": 78,
      "time": 40,
      "duration": 1,
      "velocity": 0.58,
      "hand": "right"
    },
    {
      "midi": 73,
      "time": 41,
      "duration": 1,
      "velocity": 0.61,
      "hand": "right"
    },
    {
      "midi": 43,
      "time": 42,
      "duration": 3,
      "velocity": 0.71,
      "hand": "left"
    },
    {
      "midi": 71,
      "time": 42,
      "duration": 1,
      "velocity": 0.65,
      "hand": "right"
    },
    {
      "midi": 59,
      "time": 43,
      "duration": 2,
      "velocity": 0.49,
      "hand": "left"
    },
    {
      "midi": 62,
      "time": 43,
      "duration": 2,
      "velocity": 0.49,
      "hand": "right"
    },
    {
      "midi": 66,
      "time": 43,
      "duration": 2,
      "velocity": 0.49,
      "hand": "right"
    },
    {
      "midi": 73,
      "time": 43,
      "duration": 1,
      "velocity": 0.68,
      "hand": "right"
    },
    {
      "midi": 74,
      "time": 44,
      "duration": 1,
      "velocity": 0.71,
      "hand": "right"
    },
    {
      "midi": 38,
      "time": 45,
      "duration": 3,
      "velocity": 0.71,
      "hand": "left"
    },
    {
      "midi": 69,
      "time": 45,
      "duration": 3,
      "velocity": 0.71,
      "hand": "right"
    },
    {
      "midi": 57,
      "time": 46,
      "duration": 2,
      "velocity": 0.49,
      "hand": "left"
    },
    {
      "midi": 61,
      "time": 46,
      "duration": 2,
      "velocity": 0.49,
      "hand": "right"
    },
    {
      "midi": 66,
      "time": 46,
      "duration": 2,
      "velocity": 0.49,
      "hand": "right"
    },
    {
      "midi": 42,
      "time": 48,
      "duration": 3,
      "velocity": 0.71,
      "hand": "left"
    },
    {
      "midi": 73,
      "time": 48,
      "duration": 3,
      "velocity": 0.64,
      "hand": "right"
    },
    {
      "midi": 57,
      "time": 49,
      "duration": 2,
      "velocity": 0.49,
      "hand": "left"
    },
    {
      "midi": 61,
      "time": 49,
      "duration": 2,
      "velocity": 0.49,
      "hand": "right"
    },
    {
      "midi": 66,
      "time": 49,
      "duration": 2,
      "velocity": 0.49,
      "hand": "right"
    },
    {
      "midi": 35,
      "time": 51,
      "duration": 3,
      "velocity": 0.71,
      "hand": "left"
    },
    {
      "midi": 78,
      "time": 51,
      "duration": 3,
      "velocity": 0.56,
      "hand": "right"
    },
    {
      "midi": 59,
      "time": 52,
      "duration": 2,
      "velocity": 0.49,
      "hand": "left"
    },
    {
      "midi": 62,
      "time": 52,
      "duration": 2,
      "velocity": 0.49,
      "hand": "right"
    },
    {
      "midi": 66,
      "time": 52,
      "duration": 2,
      "velocity": 0.49,
      "hand": "right"
    },
    {
      "midi": 40,
      "time": 54,
      "duration": 3,
      "velocity": 0.71,
      "hand": "left"
    },
    {
      "midi": 64,
      "time": 54,
      "duration": 9,
      "velocity": 0.49,
      "hand": "right"
    },
    {
      "midi": 55,
      "time": 55,
      "duration": 2,
      "velocity": 0.71,
      "hand": "left"
    },
    {
      "midi": 59,
      "time": 55,
      "duration": 2,
      "velocity": 0.71,
      "hand": "left"
    },
    {
      "midi": 40,
      "time": 57,
      "duration": 3,
      "velocity": 0.71,
      "hand": "left"
    },
    {
      "midi": 59,
      "time": 58,
      "duration": 2,
      "velocity": 0.71,
      "hand": "left"
    },
    {
      "midi": 62,
      "time": 58,
      "duration": 2,
      "velocity": 0.71,
      "hand": "right"
    },
    {
      "midi": 67,
      "time": 58,
      "duration": 2,
      "velocity": 0.71,
      "hand": "right"
    },
    {
      "midi": 38,
      "time": 60,
      "duration": 3,
      "velocity": 0.71,
      "hand": "left"
    },
    {
      "midi": 53,
      "time": 61,
      "duration": 2,
      "velocity": 0.71,
      "hand": "left"
    },
    {
      "midi": 57,
      "time": 61,
      "duration": 2,
      "velocity": 0.71,
      "hand": "left"
    },
    {
      "midi": 62,
      "time": 61,
      "duration": 2,
      "velocity": 0.71,
      "hand": "right"
    },
    {
      "midi": 33,
      "time": 63,
      "duration": 3,
      "velocity": 0.71,
      "hand": "left"
    },
    {
      "midi": 69,
      "time": 63,
      "duration": 1,
      "velocity": 0.49,
      "hand": "right"
    },
    {
      "midi": 57,
      "time": 64,
      "duration": 2,
      "velocity": 0.54,
      "hand": "left"
    },
    {
      "midi": 60,
      "time": 64,
      "duration": 2,
      "velocity": 0.54,
      "hand": "right"
    },
    {
      "midi": 64,
      "time": 64,
      "duration": 2,
      "velocity": 0.54,
      "hand": "right"
    },
    {
      "midi": 71,
      "time": 64,
      "duration": 1,
      "velocity": 0.51,
      "hand": "right"
    },
    {
      "midi": 72,
      "time": 65,
      "duration": 1,
      "velocity": 0.54,
      "hand": "right"
    },
    {
      "midi": 38,
      "time": 66,
      "duration": 3,
      "velocity": 0.71,
      "hand": "left"
    },
    {
      "midi": 76,
      "time": 66,
      "duration": 1,
      "velocity": 0.57,
      "hand": "right"
    },
    {
      "midi": 55,
      "time": 67,
      "duration": 2,
      "velocity": 0.54,
      "hand": "left"
    },
    {
      "midi": 59,
      "time": 67,
      "duration": 2,
      "velocity": 0.54,
      "hand": "left"
    },
    {
      "midi": 64,
      "time": 67,
      "duration": 2,
      "velocity": 0.54,
      "hand": "right"
    },
    {
      "midi": 74,
      "time": 67,
      "duration": 1,
      "velocity": 0.6,
      "hand": "right"
    },
    {
      "midi": 71,
      "time": 68,
      "duration": 1,
      "velocity": 0.63,
      "hand": "right"
    },
    {
      "midi": 38,
      "time": 69,
      "duration": 3,
      "velocity": 0.71,
      "hand": "left"
    },
    {
      "midi": 74,
      "time": 69,
      "duration": 1,
      "velocity": 0.65,
      "hand": "right"
    },
    {
      "midi": 50,
      "time": 70,
      "duration": 2,
      "velocity": 0.54,
      "hand": "left"
    },
    {
      "midi": 55,
      "time": 70,
      "duration": 2,
      "velocity": 0.54,
      "hand": "left"
    },
    {
      "midi": 59,
      "time": 70,
      "duration": 2,
      "velocity": 0.54,
      "hand": "left"
    },
    {
      "midi": 64,
      "time": 70,
      "duration": 2,
      "velocity": 0.54,
      "hand": "right"
    },
    {
      "midi": 72,
      "time": 70,
      "duration": 1,
      "velocity": 0.69,
      "hand": "right"
    },
    {
      "midi": 71,
      "time": 71,
      "duration": 1,
      "velocity": 0.71,
      "hand": "right"
    },
    {
      "midi": 38,
      "time": 72,
      "duration": 3,
      "velocity": 0.71,
      "hand": "left"
    },
    {
      "midi": 74,
      "time": 72,
      "duration": 5,
      "velocity": 0.71,
      "hand": "right"
    },
    {
      "midi": 48,
      "time": 73,
      "duration": 2,
      "velocity": 0.54,
      "hand": "left"
    },
    {
      "midi": 52,
      "time": 73,
      "duration": 2,
      "velocity": 0.54,
      "hand": "left"
    },
    {
      "midi": 57,
      "time": 73,
      "duration": 2,
      "velocity": 0.54,
      "hand": "left"
    },
    {
      "midi": 62,
      "time": 73,
      "duration": 2,
      "velocity": 0.54,
      "hand": "right"
    },
    {
      "midi": 38,
      "time": 75,
      "duration": 3,
      "velocity": 0.71,
      "hand": "left"
    },
    {
      "midi": 48,
      "time": 76,
      "duration": 2,
      "velocity": 0.54,
      "hand": "left"
    },
    {
      "midi": 54,
      "time": 76,
      "duration": 2,
      "velocity": 0.54,
      "hand": "left"
    },
    {
      "midi": 57,
      "time": 76,
      "duration": 2,
      "velocity": 0.54,
      "hand": "left"
    },
    {
      "midi": 62,
      "time": 76,
      "duration": 2,
      "velocity": 0.54,
      "hand": "right"
    },
    {
      "midi": 74,
      "time": 77,
      "duration": 1,
      "velocity": 0.49,
      "hand": "right"
    },
    {
      "midi": 38,
      "time": 78,
      "duration": 3,
      "velocity": 0.71,
      "hand": "left"
    },
    {
      "midi": 76,
      "time": 78,
      "duration": 1,
      "velocity": 0.52,
      "hand": "right"
    },
    {
      "midi": 57,
      "time": 79,
      "duration": 2,
      "velocity": 0.54,
      "hand": "left"
    },
    {
      "midi": 60,
      "time": 79,
      "duration": 2,
      "velocity": 0.54,
      "hand": "right"
    },
    {
      "midi": 65,
      "time": 79,
      "duration": 2,
      "velocity": 0.54,
      "hand": "right"
    },
    {
      "midi": 77,
      "time": 79,
      "duration": 1,
      "velocity": 0.56,
      "hand": "right"
    },
    {
      "midi": 79,
      "time": 80,
      "duration": 1,
      "velocity": 0.6,
      "hand": "right"
    },
    {
      "midi": 38,
      "time": 81,
      "duration": 3,
      "velocity": 0.71,
      "hand": "left"
    },
    {
      "midi": 81,
      "time": 81,
      "duration": 1,
      "velocity": 0.64,
      "hand": "right"
    },
    {
      "midi": 57,
      "time": 82,
      "duration": 2,
      "velocity": 0.54,
      "hand": "left"
    },
    {
      "midi": 60,
      "time": 82,
      "duration": 2,
      "velocity": 0.54,
      "hand": "right"
    },
    {
      "midi": 64,
      "time": 82,
      "duration": 2,
      "velocity": 0.54,
      "hand": "right"
    },
    {
      "midi": 72,
      "time": 82,
      "duration": 1,
      "velocity": 0.68,
      "hand": "right"
    },
    {
      "midi": 74,
      "time": 83,
      "duration": 1,
      "velocity": 0.71,
      "hand": "right"
    },
    {
      "midi": 38,
      "time": 84,
      "duration": 3,
      "velocity": 0.71,
      "hand": "left"
    },
    {
      "midi": 76,
      "time": 84,
      "duration": 1,
      "velocity": 0.71,
      "hand": "right"
    },
    {
      "midi": 50,
      "time": 85,
      "duration": 2,
      "velocity": 0.54,
      "hand": "left"
    },
    {
      "midi": 55,
      "time": 85,
      "duration": 2,
      "velocity": 0.54,
      "hand": "left"
    },
    {
      "midi": 59,
      "time": 85,
      "duration": 2,
      "velocity": 0.54,
      "hand": "left"
    },
    {
      "midi": 64,
      "time": 85,
      "duration": 2,
      "velocity": 0.54,
      "hand": "right"
    },
    {
      "midi": 74,
      "time": 85,
      "duration": 1,
      "velocity": 0.64,
      "hand": "right"
    },
    {
      "midi": 71,
      "time": 86,
      "duration": 1,
      "velocity": 0.56,
      "hand": "right"
    },
    {
      "midi": 38,
      "time": 87,
      "duration": 3,
      "velocity": 0.71,
      "hand": "left"
    },
    {
      "midi": 74,
      "time": 87,
      "duration": 5,
      "velocity": 0.49,
      "hand": "right"
    },
    {
      "midi": 48,
      "time": 88,
      "duration": 2,
      "velocity": 0.54,
      "hand": "left"
    },
    {
      "midi": 52,
      "time": 88,
      "duration": 2,
      "velocity": 0.54,
      "hand": "left"
    },
    {
      "midi": 57,
      "time": 88,
      "duration": 2,
      "velocity": 0.54,
      "hand": "left"
    },
    {
      "midi": 62,
      "time": 88,
      "duration": 2,
      "velocity": 0.54,
      "hand": "right"
    },
    {
      "midi": 38,
      "time": 90,
      "duration": 3,
      "velocity": 0.71,
      "hand": "left"
    },
    {
      "midi": 48,
      "time": 91,
      "duration": 2,
      "velocity": 0.54,
      "hand": "left"
    },
    {
      "midi": 54,
      "time": 91,
      "duration": 2,
      "velocity": 0.54,
      "hand": "left"
    },
    {
      "midi": 57,
      "time": 91,
      "duration": 2,
      "velocity": 0.54,
      "hand": "left"
    },
    {
      "midi": 62,
      "time": 91,
      "duration": 2,
      "velocity": 0.54,
      "hand": "right"
    },
    {
      "midi": 74,
      "time": 92,
      "duration": 1,
      "velocity": 0.49,
      "hand": "right"
    },
    {
      "midi": 40,
      "time": 93,
      "duration": 3,
      "velocity": 0.71,
      "hand": "left"
    },
    {
      "midi": 79,
      "time": 93,
      "duration": 3,
      "velocity": 0.49,
      "hand": "right"
    },
    {
      "midi": 59,
      "time": 94,
      "duration": 2,
      "velocity": 0.49,
      "hand": "left"
    },
    {
      "midi": 64,
      "time": 94,
      "duration": 2,
      "velocity": 0.49,
      "hand": "right"
    },
    {
      "midi": 67,
      "time": 94,
      "duration": 2,
      "velocity": 0.49,
      "hand": "right"
    },
    {
      "midi": 42,
      "time": 96,
      "duration": 3,
      "velocity": 0.71,
      "hand": "left"
    },
    {
      "midi": 78,
      "time": 96,
      "duration": 3,
      "velocity": 0.71,
      "hand": "right"
    },
    {
      "midi": 57,
      "time": 97,
      "duration": 2,
      "velocity": 0.49,
      "hand": "left"
    },
    {
      "midi": 61,
      "time": 97,
      "duration": 2,
      "velocity": 0.49,
      "hand": "right"
    },
    {
      "midi": 66,
      "time": 97,
      "duration": 2,
      "velocity": 0.49,
      "hand": "right"
    },
    {
      "midi": 35,
      "time": 99,
      "duration": 3,
      "velocity": 0.71,
      "hand": "left"
    },
    {
      "midi": 71,
      "time": 99,
      "duration": 1,
      "velocity": 0.71,
      "hand": "right"
    },
    {
      "midi": 59,
      "time": 100,
      "duration": 2,
      "velocity": 0.49,
      "hand": "left"
    },
    {
      "midi": 62,
      "time": 100,
      "duration": 2,
      "velocity": 0.49,
      "hand": "right"
    },
    {
      "midi": 66,
      "time": 100,
      "duration": 2,
      "velocity": 0.49,
      "hand": "right"
    },
    {
      "midi": 69,
      "time": 100,
      "duration": 1,
      "velocity": 0.71,
      "hand": "right"
    },
    {
      "midi": 71,
      "time": 101,
      "duration": 1,
      "velocity": 0.71,
      "hand": "right"
    },
    {
      "midi": 40,
      "time": 102,
      "duration": 3,
      "velocity": 0.71,
      "hand": "left"
    },
    {
      "midi": 73,
      "time": 102,
      "duration": 1,
      "velocity": 0.71,
      "hand": "right"
    },
    {
      "midi": 61,
      "time": 103,
      "duration": 2,
      "velocity": 0.49,
      "hand": "right"
    },
    {
      "midi": 64,
      "time": 103,
      "duration": 2,
      "velocity": 0.49,
      "hand": "right"
    },
    {
      "midi": 69,
      "time": 103,
      "duration": 2,
      "velocity": 0.49,
      "hand": "right"
    },
    {
      "midi": 74,
      "time": 103,
      "duration": 1,
      "velocity": 0.71,
      "hand": "right"
    },
    {
      "midi": 76,
      "time": 104,
      "duration": 1,
      "velocity": 0.71,
      "hand": "right"
    },
    {
      "midi": 40,
      "time": 105,
      "duration": 3,
      "velocity": 0.71,
      "hand": "left"
    },
    {
      "midi": 73,
      "time": 105,
      "duration": 1,
      "velocity": 0.71,
      "hand": "right"
    },
    {
      "midi": 57,
      "time": 106,
      "duration": 2,
      "velocity": 0.49,
      "hand": "left"
    },
    {
      "midi": 61,
      "time": 106,
      "duration": 2,
      "velocity": 0.49,
      "hand": "right"
    },
    {
      "midi": 66,
      "time": 106,
      "duration": 2,
      "velocity": 0.49,
      "hand": "right"
    },
    {
      "midi": 69,
      "time": 106,
      "duration": 2,
      "velocity": 0.49,
      "hand": "right"
    },
    {
      "midi": 74,
      "time": 106,
      "duration": 1,
      "velocity": 0.71,
      "hand": "right"
    },
    {
      "midi": 76,
      "time": 107,
      "duration": 1,
      "velocity": 0.67,
      "hand": "right"
    },
    {
      "midi": 40,
      "time": 108,
      "duration": 3,
      "velocity": 0.71,
      "hand": "left"
    },
    {
      "midi": 66,
      "time": 108,
      "duration": 3,
      "velocity": 0.62,
      "hand": "right"
    },
    {
      "midi": 47,
      "time": 109,
      "duration": 1,
      "velocity": 0.71,
      "hand": "left"
    },
    {
      "midi": 57,
      "time": 109,
      "duration": 1,
      "velocity": 0.49,
      "hand": "left"
    },
    {
      "midi": 62,
      "time": 109,
      "duration": 1,
      "velocity": 0.49,
      "hand": "right"
    },
    {
      "midi": 52,
      "time": 110,
      "duration": 1,
      "velocity": 0.71,
      "hand": "left"
    },
    {
      "midi": 59,
      "time": 110,
      "duration": 1,
      "velocity": 0.49,
      "hand": "left"
    },
    {
      "midi": 62,
      "time": 110,
      "duration": 1,
      "velocity": 0.49,
      "hand": "right"
    },
    {
      "midi": 67,
      "time": 110,
      "duration": 1,
      "velocity": 0.49,
      "hand": "right"
    },
    {
      "midi": 45,
      "time": 111,
      "duration": 3,
      "velocity": 0.71,
      "hand": "left"
    },
    {
      "midi": 55,
      "time": 111,
      "duration": 3,
      "velocity": 0.71,
      "hand": "left"
    },
    {
      "midi": 60,
      "time": 111,
      "duration": 3,
      "velocity": 0.49,
      "hand": "right"
    },
    {
      "midi": 64,
      "time": 111,
      "duration": 3,
      "velocity": 0.49,
      "hand": "right"
    },
    {
      "midi": 69,
      "time": 111,
      "duration": 3,
      "velocity": 0.49,
      "hand": "right"
    },
    {
      "midi": 72,
      "time": 111,
      "duration": 3,
      "velocity": 0.49,
      "hand": "right"
    },
    {
      "midi": 38,
      "time": 114,
      "duration": 3,
      "velocity": 0.71,
      "hand": "left"
    },
    {
      "midi": 45,
      "time": 114,
      "duration": 3,
      "velocity": 0.71,
      "hand": "left"
    },
    {
      "midi": 50,
      "time": 114,
      "duration": 3,
      "velocity": 0.71,
      "hand": "left"
    },
    {
      "midi": 62,
      "time": 114,
      "duration": 3,
      "velocity": 0.49,
      "hand": "right"
    },
    {
      "midi": 66,
      "time": 114,
      "duration": 3,
      "velocity": 0.49,
      "hand": "right"
    },
    {
      "midi": 69,
      "time": 114,
      "duration": 3,
      "velocity": 0.49,
      "hand": "right"
    },
    {
      "midi": 74,
      "time": 114,
      "duration": 3,
      "velocity": 0.49,
      "hand": "right"
    },
    {
      "midi": 40,
      "time": 117,
      "duration": 3,
      "velocity": 0.71,
      "hand": "left"
    },
    {
      "midi": 79,
      "time": 117,
      "duration": 3,
      "velocity": 0.49,
      "hand": "right"
    },
    {
      "midi": 59,
      "time": 118,
      "duration": 2,
      "velocity": 0.49,
      "hand": "left"
    },
    {
      "midi": 64,
      "time": 118,
      "duration": 2,
      "velocity": 0.49,
      "hand": "right"
    },
    {
      "midi": 67,
      "time": 118,
      "duration": 2,
      "velocity": 0.49,
      "hand": "right"
    },
    {
      "midi": 40,
      "time": 120,
      "duration": 3,
      "velocity": 0.71,
      "hand": "left"
    },
    {
      "midi": 77,
      "time": 120,
      "duration": 3,
      "velocity": 0.71,
      "hand": "right"
    },
    {
      "midi": 57,
      "time": 121,
      "duration": 2,
      "velocity": 0.49,
      "hand": "left"
    },
    {
      "midi": 62,
      "time": 121,
      "duration": 2,
      "velocity": 0.49,
      "hand": "right"
    },
    {
      "midi": 65,
      "time": 121,
      "duration": 2,
      "velocity": 0.49,
      "hand": "right"
    },
    {
      "midi": 69,
      "time": 121,
      "duration": 2,
      "velocity": 0.49,
      "hand": "right"
    },
    {
      "midi": 40,
      "time": 123,
      "duration": 3,
      "velocity": 0.71,
      "hand": "left"
    },
    {
      "midi": 71,
      "time": 123,
      "duration": 1,
      "velocity": 0.71,
      "hand": "right"
    },
    {
      "midi": 57,
      "time": 124,
      "duration": 2,
      "velocity": 0.49,
      "hand": "left"
    },
    {
      "midi": 60,
      "time": 124,
      "duration": 2,
      "velocity": 0.49,
      "hand": "right"
    },
    {
      "midi": 65,
      "time": 124,
      "duration": 2,
      "velocity": 0.49,
      "hand": "right"
    },
    {
      "midi": 72,
      "time": 124,
      "duration": 1,
      "velocity": 0.71,
      "hand": "right"
    },
    {
      "midi": 77,
      "time": 125,
      "duration": 1,
      "velocity": 0.71,
      "hand": "right"
    },
    {
      "midi": 40,
      "time": 126,
      "duration": 3,
      "velocity": 0.71,
      "hand": "left"
    },
    {
      "midi": 76,
      "time": 126,
      "duration": 1,
      "velocity": 0.71,
      "hand": "right"
    },
    {
      "midi": 60,
      "time": 127,
      "duration": 2,
      "velocity": 0.49,
      "hand": "right"
    },
    {
      "midi": 64,
      "time": 127,
      "duration": 2,
      "velocity": 0.49,
      "hand": "right"
    },
    {
      "midi": 69,
      "time": 127,
      "duration": 2,
      "velocity": 0.49,
      "hand": "right"
    },
    {
      "midi": 74,
      "time": 127,
      "duration": 1,
      "velocity": 0.71,
      "hand": "right"
    },
    {
      "midi": 72,
      "time": 128,
      "duration": 1,
      "velocity": 0.71,
      "hand": "right"
    },
    {
      "midi": 40,
      "time": 129,
      "duration": 3,
      "velocity": 0.71,
      "hand": "left"
    },
    {
      "midi": 76,
      "time": 129,
      "duration": 1,
      "velocity": 0.71,
      "hand": "right"
    },
    {
      "midi": 57,
      "time": 130,
      "duration": 2,
      "velocity": 0.49,
      "hand": "left"
    },
    {
      "midi": 60,
      "time": 130,
      "duration": 2,
      "velocity": 0.49,
      "hand": "right"
    },
    {
      "midi": 65,
      "time": 130,
      "duration": 2,
      "velocity": 0.49,
      "hand": "right"
    },
    {
      "midi": 69,
      "time": 130,
      "duration": 2,
      "velocity": 0.49,
      "hand": "right"
    },
    {
      "midi": 74,
      "time": 130,
      "duration": 1,
      "velocity": 0.71,
      "hand": "right"
    },
    {
      "midi": 72,
      "time": 131,
      "duration": 1,
      "velocity": 0.71,
      "hand": "right"
    },
    {
      "midi": 40,
      "time": 132,
      "duration": 3,
      "velocity": 0.71,
      "hand": "left"
    },
    {
      "midi": 65,
      "time": 132,
      "duration": 3,
      "velocity": 0.68,
      "hand": "right"
    },
    {
      "midi": 47,
      "time": 133,
      "duration": 1,
      "velocity": 0.71,
      "hand": "left"
    },
    {
      "midi": 57,
      "time": 133,
      "duration": 1,
      "velocity": 0.49,
      "hand": "left"
    },
    {
      "midi": 62,
      "time": 133,
      "duration": 1,
      "velocity": 0.49,
      "hand": "right"
    },
    {
      "midi": 52,
      "time": 134,
      "duration": 1,
      "velocity": 0.71,
      "hand": "left"
    },
    {
      "midi": 59,
      "time": 134,
      "duration": 1,
      "velocity": 0.49,
      "hand": "left"
    },
    {
      "midi": 62,
      "time": 134,
      "duration": 1,
      "velocity": 0.49,
      "hand": "right"
    },
    {
      "midi": 67,
      "time": 134,
      "duration": 1,
      "velocity": 0.49,
      "hand": "right"
    },
    {
      "midi": 45,
      "time": 135,
      "duration": 3,
      "velocity": 0.71,
      "hand": "left"
    },
    {
      "midi": 55,
      "time": 135,
      "duration": 3,
      "velocity": 0.71,
      "hand": "left"
    },
    {
      "midi": 60,
      "time": 135,
      "duration": 3,
      "velocity": 0.58,
      "hand": "right"
    },
    {
      "midi": 64,
      "time": 135,
      "duration": 3,
      "velocity": 0.58,
      "hand": "right"
    },
    {
      "midi": 69,
      "time": 135,
      "duration": 3,
      "velocity": 0.58,
      "hand": "right"
    },
    {
      "midi": 72,
      "time": 135,
      "duration": 3,
      "velocity": 0.58,
      "hand": "right"
    },
    {
      "midi": 38,
      "time": 138,
      "duration": 3,
      "velocity": 0.71,
      "hand": "left"
    },
    {
      "midi": 45,
      "time": 138,
      "duration": 3,
      "velocity": 0.71,
      "hand": "left"
    },
    {
      "midi": 50,
      "time": 138,
      "duration": 3,
      "velocity": 0.71,
      "hand": "left"
    },
    {
      "midi": 62,
      "time": 138,
      "duration": 3,
      "velocity": 0.49,
      "hand": "right"
    },
    {
      "midi": 65,
      "time": 138,
      "duration": 3,
      "velocity": 0.49,
      "hand": "right"
    },
    {
      "midi": 69,
      "time": 138,
      "duration": 3,
      "velocity": 0.49,
      "hand": "right"
    },
    {
      "midi": 74,
      "time": 138,
      "duration": 3,
      "velocity": 0.49,
      "hand": "right"
    }
  ]
}
