{
  "id": "in-the-hall-of-the-mountain-king",
  "title": "Na Gruta do Rei da Montanha",
  "artist": "Edvard Grieg",
  "difficulty": "Médio",
  "bpm": 138,
  "duration": 145,
  "category": "Intro de Filmes",
  "isPremium": true,
  "coverUrl": "/images/covers/placeholder.png",
  "notes": [
    {
      "midi": 54,
      "time": 0,
      "duration": 1.522,
      "velocity": 0.54,
      "hand": "right"
    },
    {
      "midi": 66,
      "time": 0,
      "duration": 1.522,
      "velocity": 0.54,
      "hand": "right"
    },
    {
      "midi": 23,
      "time": 1.739,
      "duration": 0.217,
      "velocity": 0.49,
      "hand": "left"
    },
    {
      "midi": 35,
      "time": 1.739,
      "duration": 0.109,
      "velocity": 0.49,
      "hand": "right"
    },
    {
      "midi": 37,
      "time": 1.957,
      "duration": 0.109,
      "velocity": 0.49,
      "hand": "right"
    },
    {
      "midi": 30,
      "time": 2.174,
      "duration": 0.217,
      "velocity": 0.49,
      "hand": "left"
    },
    {
      "midi": 38,
      "time": 2.174,
      "duration": 0.109,
      "velocity": 0.49,
      "hand": "right"
    },
    {
      "midi": 40,
      "time": 2.391,
      "duration": 0.109,
      "velocity": 0.49,
      "hand": "right"
    },
    {
      "midi": 23,
      "time": 2.609,
      "duration": 0.217,
      "velocity": 0.49,
      "hand": "left"
    },
    {
      "midi": 42,
      "time": 2.609,
      "duration": 0.109,
      "velocity": 0.49,
      "hand": "right"
    },
    {
      "midi": 38,
      "time": 2.826,
      "duration": 0.109,
      "velocity": 0.49,
      "hand": "right"
    },
    {
      "midi": 30,
      "time": 3.043,
      "duration": 0.217,
      "velocity": 0.49,
      "hand": "left"
    },
    {
      "midi": 42,
      "time": 3.043,
      "duration": 0.217,
      "velocity": 0.49,
      "hand": "right"
    },
    {
      "midi": 23,
      "time": 3.478,
      "duration": 0.217,
      "velocity": 0.49,
      "hand": "left"
    },
    {
      "midi": 41,
      "time": 3.478,
      "duration": 0.109,
      "velocity": 0.49,
      "hand": "right"
    },
    {
      "midi": 37,
      "time": 3.696,
      "duration": 0.109,
      "velocity": 0.49,
      "hand": "right"
    },
    {
      "midi": 30,
      "time": 3.913,
      "duration": 0.217,
      "velocity": 0.49,
      "hand": "left"
    },
    {
      "midi": 41,
      "time": 3.913,
      "duration": 0.217,
      "velocity": 0.49,
      "hand": "right"
    },
    {
      "midi": 23,
      "time": 4.348,
      "duration": 0.217,
      "velocity": 0.49,
      "hand": "left"
    },
    {
      "midi": 40,
      "time": 4.348,
      "duration": 0.109,
      "velocity": 0.49,
      "hand": "right"
    },
    {
      "midi": 36,
      "time": 4.565,
      "duration": 0.109,
      "velocity": 0.49,
      "hand": "right"
    },
    {
      "midi": 30,
      "time": 4.783,
      "duration": 0.217,
      "velocity": 0.49,
      "hand": "left"
    },
    {
      "midi": 40,
      "time": 4.783,
      "duration": 0.217,
      "velocity": 0.49,
      "hand": "right"
    },
    {
      "midi": 23,
      "time": 5.217,
      "duration": 0.217,
      "velocity": 0.49,
      "hand": "left"
    },
    {
      "midi": 35,
      "time": 5.217,
      "duration": 0.109,
      "velocity": 0.49,
      "hand": "right"
    },
    {
      "midi": 37,
      "time": 5.435,
      "duration": 0.109,
      "velocity": 0.49,
      "hand": "right"
    },
    {
      "midi": 30,
      "time": 5.652,
      "duration": 0.217,
      "velocity": 0.49,
      "hand": "left"
    },
    {
      "midi": 38,
      "time": 5.652,
      "duration": 0.109,
      "velocity": 0.49,
      "hand": "right"
    },
    {
      "midi": 40,
      "time": 5.87,
      "duration": 0.109,
      "velocity": 0.49,
      "hand": "right"
    },
    {
      "midi": 23,
      "time": 6.087,
      "duration": 0.217,
      "velocity": 0.49,
      "hand": "left"
    },
    {
      "midi": 42,
      "time": 6.087,
      "duration": 0.109,
      "velocity": 0.49,
      "hand": "right"
    },
    {
      "midi": 38,
      "time": 6.304,
      "duration": 0.109,
      "velocity": 0.49,
      "hand": "right"
    },
    {
      "midi": 30,
      "time": 6.522,
      "duration": 0.217,
      "velocity": 0.49,
      "hand": "left"
    },
    {
      "midi": 42,
      "time": 6.522,
      "duration": 0.109,
      "velocity": 0.49,
      "hand": "right"
    },
    {
      "midi": 47,
      "time": 6.739,
      "duration": 0.109,
      "velocity": 0.49,
      "hand": "right"
    },
    {
      "midi": 26,
      "time": 6.957,
      "duration": 0.217,
      "velocity": 0.49,
      "hand": "left"
    },
    {
      "midi": 45,
      "time": 6.957,
      "duration": 0.109,
      "velocity": 0.49,
      "hand": "right"
    },
    {
      "midi": 42,
      "time": 7.174,
      "duration": 0.109,
      "velocity": 0.49,
      "hand": "right"
    },
    {
      "midi": 33,
      "time": 7.391,
      "duration": 0.217,
      "velocity": 0.49,
      "hand": "left"
    },
    {
      "midi": 38,
      "time": 7.391,
      "duration": 0.109,
      "velocity": 0.49,
      "hand": "right"
    },
    {
      "midi": 42,
      "time": 7.609,
      "duration": 0.109,
      "velocity": 0.49,
      "hand": "right"
    },
    {
      "midi": 26,
      "time": 7.826,
      "duration": 0.217,
      "velocity": 0.49,
      "hand": "left"
    },
    {
      "midi": 45,
      "time": 7.826,
      "duration": 0.761,
      "velocity": 0.49,
      "hand": "right"
    },
    {
      "midi": 33,
      "time": 8.261,
      "duration": 0.217,
      "velocity": 0.49,
      "hand": "left"
    },
    {
      "midi": 23,
      "time": 8.696,
      "duration": 0.217,
      "velocity": 0.49,
      "hand": "left"
    },
    {
      "midi": 47,
      "time": 8.696,
      "duration": 0.109,
      "velocity": 0.49,
      "hand": "right"
    },
    {
      "midi": 49,
      "time": 8.913,
      "duration": 0.109,
      "velocity": 0.49,
      "hand": "right"
    },
    {
      "midi": 30,
      "time": 9.13,
      "duration": 0.217,
      "velocity": 0.49,
      "hand": "left"
    },
    {
      "midi": 50,
      "time": 9.13,
      "duration": 0.109,
      "velocity": 0.49,
      "hand": "right"
    },
    {
      "midi": 52,
      "time": 9.348,
      "duration": 0.109,
      "velocity": 0.49,
      "hand": "right"
    },
    {
      "midi": 23,
      "time": 9.565,
      "duration": 0.217,
      "velocity": 0.49,
      "hand": "left"
    },
    {
      "midi": 54,
      "time": 9.565,
      "duration": 0.109,
      "velocity": 0.49,
      "hand": "right"
    },
    {
      "midi": 50,
      "time": 9.783,
      "duration": 0.109,
      "velocity": 0.49,
      "hand": "right"
    },
    {
      "midi": 30,
      "time": 10,
      "duration": 0.217,
      "velocity": 0.49,
      "hand": "left"
    },
    {
      "midi": 54,
      "time": 10,
      "duration": 0.217,
      "velocity": 0.49,
      "hand": "right"
    },
    {
      "midi": 23,
      "time": 10.435,
      "duration": 0.217,
      "velocity": 0.49,
      "hand": "left"
    },
    {
      "midi": 53,
      "time": 10.435,
      "duration": 0.109,
      "velocity": 0.49,
      "hand": "right"
    },
    {
      "midi": 49,
      "time": 10.652,
      "duration": 0.109,
      "velocity": 0.49,
      "hand": "right"
    },
    {
      "midi": 30,
      "time": 10.87,
      "duration": 0.217,
      "velocity": 0.49,
      "hand": "left"
    },
    {
      "midi": 53,
      "time": 10.87,
      "duration": 0.217,
      "velocity": 0.49,
      "hand": "right"
    },
    {
      "midi": 23,
      "time": 11.304,
      "duration": 0.217,
      "velocity": 0.49,
      "hand": "left"
    },
    {
      "midi": 52,
      "time": 11.304,
      "duration": 0.109,
      "velocity": 0.49,
      "hand": "right"
    },
    {
      "midi": 48,
      "time": 11.522,
      "duration": 0.109,
      "velocity": 0.49,
      "hand": "right"
    },
    {
      "midi": 30,
      "time": 11.739,
      "duration": 0.217,
      "velocity": 0.49,
      "hand": "left"
    },
    {
      "midi": 52,
      "time": 11.739,
      "duration": 0.217,
      "velocity": 0.49,
      "hand": "right"
    },
    {
      "midi": 23,
      "time": 12.174,
      "duration": 0.217,
      "velocity": 0.49,
      "hand": "left"
    },
    {
      "midi": 47,
      "time": 12.174,
      "duration": 0.109,
      "velocity": 0.49,
      "hand": "right"
    },
    {
      "midi": 49,
      "time": 12.391,
      "duration": 0.109,
      "velocity": 0.49,
      "hand": "right"
    },
    {
      "midi": 30,
      "time": 12.609,
      "duration": 0.217,
      "velocity": 0.49,
      "hand": "left"
    },
    {
      "midi": 50,
      "time": 12.609,
      "duration": 0.109,
      "velocity": 0.49,
      "hand": "right"
    },
    {
      "midi": 52,
      "time": 12.826,
      "duration": 0.109,
      "velocity": 0.49,
      "hand": "right"
    },
    {
      "midi": 23,
      "time": 13.043,
      "duration": 0.217,
      "velocity": 0.49,
      "hand": "left"
    },
    {
      "midi": 54,
      "time": 13.043,
      "duration": 0.109,
      "velocity": 0.49,
      "hand": "right"
    },
    {
      "midi": 50,
      "time": 13.261,
      "duration": 0.109,
      "velocity": 0.49,
      "hand": "right"
    },
    {
      "midi": 30,
      "time": 13.478,
      "duration": 0.217,
      "velocity": 0.49,
      "hand": "left"
    },
    {
      "midi": 54,
      "time": 13.478,
      "duration": 0.109,
      "velocity": 0.49,
      "hand": "right"
    },
    {
      "midi": 59,
      "time": 13.696,
      "duration": 0.109,
      "velocity": 0.49,
      "hand": "right"
    },
    {
      "midi": 26,
      "time": 13.913,
      "duration": 0.217,
      "velocity": 0.49,
      "hand": "left"
    },
    {
      "midi": 57,
      "time": 13.913,
      "duration": 0.109,
      "velocity": 0.49,
      "hand": "right"
    },
    {
      "midi": 54,
      "time": 14.13,
      "duration": 0.109,
      "velocity": 0.49,
      "hand": "right"
    },
    {
      "midi": 33,
      "time": 14.348,
      "duration": 0.217,
      "velocity": 0.49,
      "hand": "left"
    },
    {
      "midi": 50,
      "time": 14.348,
      "duration": 0.109,
      "velocity": 0.49,
      "hand": "right"
    },
    {
      "midi": 54,
      "time": 14.565,
      "duration": 0.109,
      "velocity": 0.49,
      "hand": "right"
    },
    {
      "midi": 26,
      "time": 14.783,
      "duration": 0.217,
      "velocity": 0.49,
      "hand": "left"
    },
    {
      "midi": 45,
      "time": 14.783,
      "duration": 0.761,
      "velocity": 0.49,
      "hand": "right"
    },
    {
      "midi": 57,
      "time": 14.783,
      "duration": 0.761,
      "velocity": 0.49,
      "hand": "right"
    },
    {
      "midi": 33,
      "time": 15.217,
      "duration": 0.217,
      "velocity": 0.49,
      "hand": "left"
    },
    {
      "midi": 30,
      "time": 15.652,
      "duration": 0.326,
      "velocity": 0.49,
      "hand": "left"
    },
    {
      "midi": 42,
      "time": 15.652,
      "duration": 0.109,
      "velocity": 0.49,
      "hand": "right"
    },
    {
      "midi": 44,
      "time": 15.87,
      "duration": 0.109,
      "velocity": 0.49,
      "hand": "right"
    },
    {
      "midi": 37,
      "time": 16.087,
      "duration": 0.326,
      "velocity": 0.49,
      "hand": "left"
    },
    {
      "midi": 46,
      "time": 16.087,
      "duration": 0.109,
      "velocity": 0.49,
      "hand": "right"
    },
    {
      "midi": 47,
      "time": 16.304,
      "duration": 0.109,
      "velocity": 0.49,
      "hand": "right"
    },
    {
      "midi": 30,
      "time": 16.522,
      "duration": 0.326,
      "velocity": 0.49,
      "hand": "left"
    },
    {
      "midi": 49,
      "time": 16.522,
      "duration": 0.109,
      "velocity": 0.49,
      "hand": "right"
    },
    {
      "midi": 46,
      "time": 16.739,
      "duration": 0.109,
      "velocity": 0.49,
      "hand": "right"
    },
    {
      "midi": 37,
      "time": 16.957,
      "duration": 0.326,
      "velocity": 0.49,
      "hand": "left"
    },
    {
      "midi": 49,
      "time": 16.957,
      "duration": 0.217,
      "velocity": 0.49,
      "hand": "right"
    },
    {
      "midi": 26,
      "time": 17.391,
      "duration": 0.326,
      "velocity": 0.49,
      "hand": "left"
    },
    {
      "midi": 50,
      "time": 17.391,
      "duration": 0.109,
      "velocity": 0.49,
      "hand": "right"
    },
    {
      "midi": 46,
      "time": 17.609,
      "duration": 0.109,
      "velocity": 0.49,
      "hand": "right"
    },
    {
      "midi": 34,
      "time": 17.826,
      "duration": 0.326,
      "velocity": 0.49,
      "hand": "left"
    },
    {
      "midi": 50,
      "time": 17.826,
      "duration": 0.217,
      "velocity": 0.49,
      "hand": "right"
    },
    {
      "midi": 30,
      "time": 18.261,
      "duration": 0.326,
      "velocity": 0.49,
      "hand": "left"
    },
    {
      "midi": 49,
      "time": 18.261,
      "duration": 0.109,
      "velocity": 0.49,
      "hand": "right"
    },
    {
      "midi": 46,
      "time": 18.478,
      "duration": 0.109,
      "velocity": 0.49,
      "hand": "right"
    },
    {
      "midi": 37,
      "time": 18.696,
      "duration": 0.326,
      "velocity": 0.49,
      "hand": "left"
    },
    {
      "midi": 49,
      "time": 18.696,
      "duration": 0.217,
      "velocity": 0.49,
      "hand": "right"
    },
    {
      "midi": 30,
      "time": 19.13,
      "duration": 0.326,
      "velocity": 0.49,
      "hand": "left"
    },
    {
      "midi": 42,
      "time": 19.13,
      "duration": 0.109,
      "velocity": 0.49,
      "hand": "right"
    },
    {
      "midi": 44,
      "time": 19.348,
      "duration": 0.109,
      "velocity": 0.49,
      "hand": "right"
    },
    {
      "midi": 37,
      "time": 19.565,
      "duration": 0.326,
      "velocity": 0.49,
      "hand": "left"
    },
    {
      "midi": 46,
      "time": 19.565,
      "duration": 0.109,
      "velocity": 0.49,
      "hand": "right"
    },
    {
      "midi": 47,
      "time": 19.783,
      "duration": 0.109,
      "velocity": 0.49,
      "hand": "right"
    },
    {
      "midi": 30,
      "time": 20,
      "duration": 0.326,
      "velocity": 0.49,
      "hand": "left"
    },
    {
      "midi": 49,
      "time": 20,
      "duration": 0.109,
      "velocity": 0.49,
      "hand": "right"
    },
    {
      "midi": 46,
      "time": 20.217,
      "duration": 0.109,
      "velocity": 0.49,
      "hand": "right"
    },
    {
      "midi": 37,
      "time": 20.435,
      "duration": 0.326,
      "velocity": 0.49,
      "hand": "left"
    },
    {
      "midi": 49,
      "time": 20.435,
      "duration": 0.217,
      "velocity": 0.49,
      "hand": "right"
    },
    {
      "midi": 26,
      "time": 20.87,
      "duration": 0.326,
      "velocity": 0.49,
      "hand": "left"
    },
    {
      "midi": 50,
      "time": 20.87,
      "duration": 0.109,
      "velocity": 0.49,
      "hand": "right"
    },
    {
      "midi": 46,
      "time": 21.087,
      "duration": 0.109,
      "velocity": 0.49,
      "hand": "right"
    },
    {
      "midi": 34,
      "time": 21.304,
      "duration": 0.326,
      "velocity": 0.49,
      "hand": "left"
    },
    {
      "midi": 50,
      "time": 21.304,
      "duration": 0.217,
      "velocity": 0.49,
      "hand": "right"
    },
    {
      "midi": 30,
      "time": 21.739,
      "duration": 0.326,
      "velocity": 0.49,
      "hand": "left"
    },
    {
      "midi": 49,
      "time": 21.739,
      "duration": 0.761,
      "velocity": 0.49,
      "hand": "right"
    },
    {
      "midi": 37,
      "time": 22.174,
      "duration": 0.326,
      "velocity": 0.49,
      "hand": "left"
    },
    {
      "midi": 30,
      "time": 22.609,
      "duration": 0.326,
      "velocity": 0.49,
      "hand": "left"
    },
    {
      "midi": 54,
      "time": 22.609,
      "duration": 0.109,
      "velocity": 0.49,
      "hand": "right"
    },
    {
      "midi": 56,
      "time": 22.826,
      "duration": 0.109,
      "velocity": 0.49,
      "hand": "right"
    },
    {
      "midi": 37,
      "time": 23.043,
      "duration": 0.326,
      "velocity": 0.49,
      "hand": "left"
    },
    {
      "midi": 58,
      "time": 23.043,
      "duration": 0.109,
      "velocity": 0.49,
      "hand": "right"
    },
    {
      "midi": 59,
      "time": 23.261,
      "duration": 0.109,
      "velocity": 0.49,
      "hand": "right"
    },
    {
      "midi": 30,
      "time": 23.478,
      "duration": 0.326,
      "velocity": 0.49,
      "hand": "left"
    },
    {
      "midi": 61,
      "time": 23.478,
      "duration": 0.109,
      "velocity": 0.49,
      "hand": "right"
    },
    {
      "midi": 58,
      "time": 23.696,
      "duration": 0.109,
      "velocity": 0.49,
      "hand": "right"
    },
    {
      "midi": 37,
      "time": 23.913,
      "duration": 0.326,
      "velocity": 0.49,
      "hand": "left"
    },
    {
      "midi": 61,
      "time": 23.913,
      "duration": 0.217,
      "velocity": 0.49,
      "hand": "right"
    },
    {
      "midi": 26,
      "time": 24.348,
      "duration": 0.326,
      "velocity": 0.49,
      "hand": "left"
    },
    {
      "midi": 62,
      "time": 24.348,
      "duration": 0.109,
      "velocity": 0.49,
      "hand": "right"
    },
    {
      "midi": 58,
      "time": 24.565,
      "duration": 0.109,
      "velocity": 0.49,
      "hand": "right"
    },
    {
      "midi": 34,
      "time": 24.783,
      "duration": 0.326,
      "velocity": 0.49,
      "hand": "left"
    },
    {
      "midi": 62,
      "time": 24.783,
      "duration": 0.217,
      "velocity": 0.49,
      "hand": "right"
    },
    {
      "midi": 30,
      "time": 25.217,
      "duration": 0.326,
      "velocity": 0.49,
      "hand": "left"
    },
    {
      "midi": 61,
      "time": 25.217,
      "duration": 0.109,
      "velocity": 0.49,
      "hand": "right"
    },
    {
      "midi": 58,
      "time": 25.435,
      "duration": 0.109,
      "velocity": 0.49,
      "hand": "right"
    },
    {
      "midi": 37,
      "time": 25.652,
      "duration": 0.326,
      "velocity": 0.49,
      "hand": "left"
    },
    {
      "midi": 61,
      "time": 25.652,
      "duration": 0.217,
      "velocity": 0.49,
      "hand": "right"
    },
    {
      "midi": 30,
      "time": 26.087,
      "duration": 0.326,
      "velocity": 0.49,
      "hand": "left"
    },
    {
      "midi": 54,
      "time": 26.087,
      "duration": 0.109,
      "velocity": 0.49,
      "hand": "right"
    },
    {
      "midi": 56,
      "time": 26.304,
      "duration": 0.109,
      "velocity": 0.49,
      "hand": "right"
    },
    {
      "midi": 37,
      "time": 26.522,
      "duration": 0.326,
      "velocity": 0.49,
      "hand": "left"
    },
    {
      "midi": 58,
      "time": 26.522,
      "duration": 0.109,
      "velocity": 0.49,
      "hand": "right"
    },
    {
      "midi": 59,
      "time": 26.739,
      "duration": 0.109,
      "velocity": 0.49,
      "hand": "right"
    },
    {
      "midi": 30,
      "time": 26.957,
      "duration": 0.326,
      "velocity": 0.49,
      "hand": "left"
    },
    {
      "midi": 61,
      "time": 26.957,
      "duration": 0.109,
      "velocity": 0.49,
      "hand": "right"
    },
    {
      "midi": 58,
      "time": 27.174,
      "duration": 0.109,
      "velocity": 0.49,
      "hand": "right"
    },
    {
      "midi": 37,
      "time": 27.391,
      "duration": 0.326,
      "velocity": 0.49,
      "hand": "left"
    },
    {
      "midi": 61,
      "time": 27.391,
      "duration": 0.217,
      "velocity": 0.49,
      "hand": "right"
    },
    {
      "midi": 26,
      "time": 27.826,
      "duration": 0.326,
      "velocity": 0.49,
      "hand": "left"
    },
    {
      "midi": 62,
      "time": 27.826,
      "duration": 0.109,
      "velocity": 0.49,
      "hand": "right"
    },
    {
      "midi": 58,
      "time": 28.043,
      "duration": 0.109,
      "velocity": 0.49,
      "hand": "right"
    },
    {
      "midi": 34,
      "time": 28.261,
      "duration": 0.326,
      "velocity": 0.49,
      "hand": "left"
    },
    {
      "midi": 62,
      "time": 28.261,
      "duration": 0.217,
      "velocity": 0.49,
      "hand": "right"
    },
    {
      "midi": 30,
      "time": 28.696,
      "duration": 0.326,
      "velocity": 0.49,
      "hand": "left"
    },
    {
      "midi": 49,
      "time": 28.696,
      "duration": 0.761,
      "velocity": 0.49,
      "hand": "right"
    },
    {
      "midi": 61,
      "time": 28.696,
      "duration": 0.761,
      "velocity": 0.49,
      "hand": "right"
    },
    {
      "midi": 37,
      "time": 29.13,
      "duration": 0.326,
      "velocity": 0.49,
      "hand": "left"
    },
    {
      "midi": 23,
      "time": 29.565,
      "duration": 0.217,
      "velocity": 0.49,
      "hand": "left"
    },
    {
      "midi": 35,
      "time": 29.565,
      "duration": 0.109,
      "velocity": 0.49,
      "hand": "right"
    },
    {
      "midi": 37,
      "time": 29.783,
      "duration": 0.109,
      "velocity": 0.49,
      "hand": "right"
    },
    {
      "midi": 30,
      "time": 30,
      "duration": 0.217,
      "velocity": 0.49,
      "hand": "left"
    },
    {
      "midi": 38,
      "time": 30,
      "duration": 0.109,
      "velocity": 0.49,
      "hand": "right"
    },
    {
      "midi": 40,
      "time": 30.217,
      "duration": 0.109,
      "velocity": 0.49,
      "hand": "right"
    },
    {
      "midi": 23,
      "time": 30.435,
      "duration": 0.217,
      "velocity": 0.49,
      "hand": "left"
    },
    {
      "midi": 42,
      "time": 30.435,
      "duration": 0.109,
      "velocity": 0.49,
      "hand": "right"
    },
    {
      "midi": 38,
      "time": 30.652,
      "duration": 0.109,
      "velocity": 0.49,
      "hand": "right"
    },
    {
      "midi": 30,
      "time": 30.87,
      "duration": 0.217,
      "velocity": 0.49,
      "hand": "left"
    },
    {
      "midi": 42,
      "time": 30.87,
      "duration": 0.217,
      "velocity": 0.49,
      "hand": "right"
    },
    {
      "midi": 23,
      "time": 31.304,
      "duration": 0.217,
      "velocity": 0.49,
      "hand": "left"
    },
    {
      "midi": 41,
      "time": 31.304,
      "duration": 0.109,
      "velocity": 0.49,
      "hand": "right"
    },
    {
      "midi": 37,
      "time": 31.522,
      "duration": 0.109,
      "velocity": 0.49,
      "hand": "right"
    },
    {
      "midi": 30,
      "time": 31.739,
      "duration": 0.217,
      "velocity": 0.49,
      "hand": "left"
    },
    {
      "midi": 41,
      "time": 31.739,
      "duration": 0.217,
      "velocity": 0.49,
      "hand": "right"
    },
    {
      "midi": 23,
      "time": 32.174,
      "duration": 0.217,
      "velocity": 0.49,
      "hand": "left"
    },
    {
      "midi": 40,
      "time": 32.174,
      "duration": 0.109,
      "velocity": 0.49,
      "hand": "right"
    },
    {
      "midi": 36,
      "time": 32.391,
      "duration": 0.109,
      "velocity": 0.49,
      "hand": "right"
    },
    {
      "midi": 30,
      "time": 32.609,
      "duration": 0.217,
      "velocity": 0.49,
      "hand": "left"
    },
    {
      "midi": 40,
      "time": 32.609,
      "duration": 0.217,
      "velocity": 0.49,
      "hand": "right"
    },
    {
      "midi": 23,
      "time": 33.043,
      "duration": 0.217,
      "velocity": 0.49,
      "hand": "left"
    },
    {
      "midi": 35,
      "time": 33.043,
      "duration": 0.109,
      "velocity": 0.49,
      "hand": "right"
    },
    {
      "midi": 37,
      "time": 33.261,
      "duration": 0.109,
      "velocity": 0.49,
      "hand": "right"
    },
    {
      "midi": 30,
      "time": 33.478,
      "duration": 0.217,
      "velocity": 0.49,
      "hand": "left"
    },
    {
      "midi": 38,
      "time": 33.478,
      "duration": 0.109,
      "velocity": 0.49,
      "hand": "right"
    },
    {
      "midi": 40,
      "time": 33.696,
      "duration": 0.109,
      "velocity": 0.49,
      "hand": "right"
    },
    {
      "midi": 23,
      "time": 33.913,
      "duration": 0.217,
      "velocity": 0.49,
      "hand": "left"
    },
    {
      "midi": 42,
      "time": 33.913,
      "duration": 0.109,
      "velocity": 0.49,
      "hand": "right"
    },
    {
      "midi": 38,
      "time": 34.13,
      "duration": 0.109,
      "velocity": 0.49,
      "hand": "right"
    },
    {
      "midi": 30,
      "time": 34.348,
      "duration": 0.217,
      "velocity": 0.49,
      "hand": "left"
    },
    {
      "midi": 42,
      "time": 34.348,
      "duration": 0.109,
      "velocity": 0.49,
      "hand": "right"
    },
    {
      "midi": 47,
      "time": 34.565,
      "duration": 0.109,
      "velocity": 0.49,
      "hand": "right"
    },
    {
      "midi": 26,
      "time": 34.783,
      "duration": 0.217,
      "velocity": 0.49,
      "hand": "left"
    },
    {
      "midi": 45,
      "time": 34.783,
      "duration": 0.109,
      "velocity": 0.49,
      "hand": "right"
    },
    {
      "midi": 42,
      "time": 35,
      "duration": 0.109,
      "velocity": 0.49,
      "hand": "right"
    },
    {
      "midi": 33,
      "time": 35.217,
      "duration": 0.217,
      "velocity": 0.49,
      "hand": "left"
    },
    {
      "midi": 38,
      "time": 35.217,
      "duration": 0.109,
      "velocity": 0.49,
      "hand": "right"
    },
    {
      "midi": 42,
      "time": 35.435,
      "duration": 0.109,
      "velocity": 0.49,
      "hand": "right"
    },
    {
      "midi": 26,
      "time": 35.652,
      "duration": 0.217,
      "velocity": 0.49,
      "hand": "left"
    },
    {
      "midi": 45,
      "time": 35.652,
      "duration": 0.761,
      "velocity": 0.49,
      "hand": "right"
    },
    {
      "midi": 33,
      "time": 36.087,
      "duration": 0.217,
      "velocity": 0.49,
      "hand": "left"
    },
    {
      "midi": 23,
      "time": 36.522,
      "duration": 0.217,
      "velocity": 0.49,
      "hand": "left"
    },
    {
      "midi": 47,
      "time": 36.522,
      "duration": 0.109,
      "velocity": 0.49,
      "hand": "right"
    },
    {
      "midi": 49,
      "time": 36.739,
      "duration": 0.109,
      "velocity": 0.49,
      "hand": "right"
    },
    {
      "midi": 30,
      "time": 36.957,
      "duration": 0.217,
      "velocity": 0.49,
      "hand": "left"
    },
    {
      "midi": 50,
      "time": 36.957,
      "duration": 0.109,
      "velocity": 0.49,
      "hand": "right"
    },
    {
      "midi": 52,
      "time": 37.174,
      "duration": 0.109,
      "velocity": 0.49,
      "hand": "right"
    },
    {
      "midi": 23,
      "time": 37.391,
      "duration": 0.217,
      "velocity": 0.49,
      "hand": "left"
    },
    {
      "midi": 54,
      "time": 37.391,
      "duration": 0.109,
      "velocity": 0.49,
      "hand": "right"
    },
    {
      "midi": 50,
      "time": 37.609,
      "duration": 0.109,
      "velocity": 0.49,
      "hand": "right"
    },
    {
      "midi": 30,
      "time": 37.826,
      "duration": 0.217,
      "velocity": 0.49,
      "hand": "left"
    },
    {
      "midi": 54,
      "time": 37.826,
      "duration": 0.217,
      "velocity": 0.49,
      "hand": "right"
    },
    {
      "midi": 23,
      "time": 38.261,
      "duration": 0.217,
      "velocity": 0.49,
      "hand": "left"
    },
    {
      "midi": 53,
      "time": 38.261,
      "duration": 0.109,
      "velocity": 0.49,
      "hand": "right"
    },
    {
      "midi": 49,
      "time": 38.478,
      "duration": 0.109,
      "velocity": 0.49,
      "hand": "right"
    },
    {
      "midi": 30,
      "time": 38.696,
      "duration": 0.217,
      "velocity": 0.49,
      "hand": "left"
    },
    {
      "midi": 53,
      "time": 38.696,
      "duration": 0.217,
      "velocity": 0.49,
      "hand": "right"
    },
    {
      "midi": 23,
      "time": 39.13,
      "duration": 0.217,
      "velocity": 0.49,
      "hand": "left"
    },
    {
      "midi": 52,
      "time": 39.13,
      "duration": 0.109,
      "velocity": 0.49,
      "hand": "right"
    },
    {
      "midi": 48,
      "time": 39.348,
      "duration": 0.109,
      "velocity": 0.49,
      "hand": "right"
    },
    {
      "midi": 30,
      "time": 39.565,
      "duration": 0.217,
      "velocity": 0.49,
      "hand": "left"
    },
    {
      "midi": 52,
      "time": 39.565,
      "duration": 0.217,
      "velocity": 0.49,
      "hand": "right"
    },
    {
      "midi": 23,
      "time": 40,
      "duration": 0.217,
      "velocity": 0.49,
      "hand": "left"
    },
    {
      "midi": 47,
      "time": 40,
      "duration": 0.109,
      "velocity": 0.49,
      "hand": "right"
    },
    {
      "midi": 49,
      "time": 40.217,
      "duration": 0.109,
      "velocity": 0.49,
      "hand": "right"
    },
    {
      "midi": 35,
      "time": 40.435,
      "duration": 0.217,
      "velocity": 0.49,
      "hand": "left"
    },
    {
      "midi": 50,
      "time": 40.435,
      "duration": 0.109,
      "velocity": 0.49,
      "hand": "right"
    },
    {
      "midi": 52,
      "time": 40.652,
      "duration": 0.109,
      "velocity": 0.49,
      "hand": "right"
    },
    {
      "midi": 33,
      "time": 40.87,
      "duration": 0.217,
      "velocity": 0.49,
      "hand": "left"
    },
    {
      "midi": 54,
      "time": 40.87,
      "duration": 0.109,
      "velocity": 0.49,
      "hand": "right"
    },
    {
      "midi": 50,
      "time": 41.087,
      "duration": 0.109,
      "velocity": 0.49,
      "hand": "right"
    },
    {
      "midi": 31,
      "time": 41.304,
      "duration": 0.217,
      "velocity": 0.49,
      "hand": "left"
    },
    {
      "midi": 54,
      "time": 41.304,
      "duration": 0.109,
      "velocity": 0.49,
      "hand": "right"
    },
    {
      "midi": 59,
      "time": 41.522,
      "duration": 0.109,
      "velocity": 0.49,
      "hand": "right"
    },
    {
      "midi": 30,
      "time": 41.739,
      "duration": 0.217,
      "velocity": 0.49,
      "hand": "left"
    },
    {
      "midi": 57,
      "time": 41.739,
      "duration": 0.109,
      "velocity": 0.49,
      "hand": "right"
    },
    {
      "midi": 54,
      "time": 41.957,
      "duration": 0.109,
      "velocity": 0.49,
      "hand": "right"
    },
    {
      "midi": 28,
      "time": 42.174,
      "duration": 0.217,
      "velocity": 0.49,
      "hand": "left"
    },
    {
      "midi": 50,
      "time": 42.174,
      "duration": 0.109,
      "velocity": 0.49,
      "hand": "right"
    },
    {
      "midi": 54,
      "time": 42.391,
      "duration": 0.109,
      "velocity": 0.49,
      "hand": "right"
    },
    {
      "midi": 25,
      "time": 42.609,
      "duration": 0.217,
      "velocity": 0.49,
      "hand": "left"
    },
    {
      "midi": 45,
      "time": 42.609,
      "duration": 0.761,
      "velocity": 0.49,
      "hand": "right"
    },
    {
      "midi": 57,
      "time": 42.609,
      "duration": 0.761,
      "velocity": 0.49,
      "hand": "right"
    },
    {
      "midi": 23,
      "time": 43.043,
      "duration": 0.217,
      "velocity": 0.49,
      "hand": "left"
    },
    {
      "midi": 23,
      "time": 43.478,
      "duration": 0.326,
      "velocity": 0.49,
      "hand": "left"
    },
    {
      "midi": 59,
      "time": 43.478,
      "duration": 0.109,
      "velocity": 0.49,
      "hand": "right"
    },
    {
      "midi": 61,
      "time": 43.696,
      "duration": 0.109,
      "velocity": 0.49,
      "hand": "right"
    },
    {
      "midi": 42,
      "time": 43.913,
      "duration": 0.109,
      "velocity": 0.49,
      "hand": "left"
    },
    {
      "midi": 50,
      "time": 43.913,
      "duration": 0.109,
      "velocity": 0.49,
      "hand": "left"
    },
    {
      "midi": 54,
      "time": 43.913,
      "duration": 0.109,
      "velocity": 0.49,
      "hand": "right"
    },
    {
      "midi": 62,
      "time": 43.913,
      "duration": 0.109,
      "velocity": 0.49,
      "hand": "right"
    },
    {
      "midi": 41,
      "time": 44.022,
      "duration": 0.109,
      "velocity": 0.49,
      "hand": "left"
    },
    {
      "midi": 42,
      "time": 44.13,
      "duration": 0.217,
      "velocity": 0.49,
      "hand": "left"
    },
    {
      "midi": 64,
      "time": 44.13,
      "duration": 0.109,
      "velocity": 0.49,
      "hand": "right"
    },
    {
      "midi": 35,
      "time": 44.348,
      "duration": 0.217,
      "velocity": 0.49,
      "hand": "left"
    },
    {
      "midi": 66,
      "time": 44.348,
      "duration": 0.109,
      "velocity": 0.49,
      "hand": "right"
    },
    {
      "midi": 62,
      "time": 44.565,
      "duration": 0.109,
      "velocity": 0.49,
      "hand": "right"
    },
    {
      "midi": 42,
      "time": 44.783,
      "duration": 0.109,
      "velocity": 0.49,
      "hand": "left"
    },
    {
      "midi": 50,
      "time": 44.783,
      "duration": 0.109,
      "velocity": 0.49,
      "hand": "left"
    },
    {
      "midi": 54,
      "time": 44.783,
      "duration": 0.217,
      "velocity": 0.49,
      "hand": "right"
    },
    {
      "midi": 66,
      "time": 44.783,
      "duration": 0.217,
      "velocity": 0.49,
      "hand": "right"
    },
    {
      "midi": 41,
      "time": 44.891,
      "duration": 0.109,
      "velocity": 0.49,
      "hand": "left"
    },
    {
      "midi": 42,
      "time": 45,
      "duration": 0.217,
      "velocity": 0.49,
      "hand": "left"
    },
    {
      "midi": 35,
      "time": 45.217,
      "duration": 0.217,
      "velocity": 0.49,
      "hand": "left"
    },
    {
      "midi": 65,
      "time": 45.217,
      "duration": 0.109,
      "velocity": 0.49,
      "hand": "right"
    },
    {
      "midi": 61,
      "time": 45.435,
      "duration": 0.109,
      "velocity": 0.49,
      "hand": "right"
    },
    {
      "midi": 42,
      "time": 45.652,
      "duration": 0.109,
      "velocity": 0.49,
      "hand": "left"
    },
    {
      "midi": 49,
      "time": 45.652,
      "duration": 0.109,
      "velocity": 0.49,
      "hand": "left"
    },
    {
      "midi": 53,
      "time": 45.652,
      "duration": 0.217,
      "velocity": 0.49,
      "hand": "right"
    },
    {
      "midi": 65,
      "time": 45.652,
      "duration": 0.217,
      "velocity": 0.49,
      "hand": "right"
    },
    {
      "midi": 41,
      "time": 45.761,
      "duration": 0.109,
      "velocity": 0.49,
      "hand": "left"
    },
    {
      "midi": 42,
      "time": 45.87,
      "duration": 0.217,
      "velocity": 0.49,
      "hand": "left"
    },
    {
      "midi": 35,
      "time": 46.087,
      "duration": 0.217,
      "velocity": 0.49,
      "hand": "left"
    },
    {
      "midi": 64,
      "time": 46.087,
      "duration": 0.109,
      "velocity": 0.49,
      "hand": "right"
    },
    {
      "midi": 60,
      "time": 46.304,
      "duration": 0.109,
      "velocity": 0.49,
      "hand": "right"
    },
    {
      "midi": 42,
      "time": 46.522,
      "duration": 0.109,
      "velocity": 0.49,
      "hand": "left"
    },
    {
      "midi": 48,
      "time": 46.522,
      "duration": 0.109,
      "velocity": 0.49,
      "hand": "left"
    },
    {
      "midi": 52,
      "time": 46.522,
      "duration": 0.217,
      "velocity": 0.49,
      "hand": "right"
    },
    {
      "midi": 64,
      "time": 46.522,
      "duration": 0.217,
      "velocity": 0.49,
      "hand": "right"
    },
    {
      "midi": 41,
      "time": 46.63,
      "duration": 0.109,
      "velocity": 0.49,
      "hand": "left"
    },
    {
      "midi": 42,
      "time": 46.739,
      "duration": 0.217,
      "velocity": 0.49,
      "hand": "left"
    },
    {
      "midi": 35,
      "time": 46.957,
      "duration": 0.217,
      "velocity": 0.49,
      "hand": "left"
    },
    {
      "midi": 59,
      "time": 46.957,
      "duration": 0.109,
      "velocity": 0.49,
      "hand": "right"
    },
    {
      "midi": 61,
      "time": 47.174,
      "duration": 0.109,
      "velocity": 0.49,
      "hand": "right"
    },
    {
      "midi": 42,
      "time": 47.391,
      "duration": 0.109,
      "velocity": 0.49,
      "hand": "left"
    },
    {
      "midi": 50,
      "time": 47.391,
      "duration": 0.109,
      "velocity": 0.49,
      "hand": "left"
    },
    {
      "midi": 54,
      "time": 47.391,
      "duration": 0.109,
      "velocity": 0.49,
      "hand": "right"
    },
    {
      "midi": 62,
      "time": 47.391,
      "duration": 0.109,
      "velocity": 0.49,
      "hand": "right"
    },
    {
      "midi": 41,
      "time": 47.5,
      "duration": 0.109,
      "velocity": 0.49,
      "hand": "left"
    },
    {
      "midi": 42,
      "time": 47.609,
      "duration": 0.217,
      "velocity": 0.49,
      "hand": "left"
    },
    {
      "midi": 64,
      "time": 47.609,
      "duration": 0.109,
      "velocity": 0.49,
      "hand": "right"
    },
    {
      "midi": 35,
      "time": 47.826,
      "duration": 0.217,
      "velocity": 0.49,
      "hand": "left"
    },
    {
      "midi": 66,
      "time": 47.826,
      "duration": 0.109,
      "velocity": 0.49,
      "hand": "right"
    },
    {
      "midi": 62,
      "time": 48.043,
      "duration": 0.109,
      "velocity": 0.49,
      "hand": "right"
    },
    {
      "midi": 42,
      "time": 48.261,
      "duration": 0.109,
      "velocity": 0.49,
      "hand": "left"
    },
    {
      "midi": 50,
      "time": 48.261,
      "duration": 0.109,
      "velocity": 0.49,
      "hand": "left"
    },
    {
      "midi": 66,
      "time": 48.261,
      "duration": 0.109,
      "velocity": 0.49,
      "hand": "right"
    },
    {
      "midi": 41,
      "time": 48.37,
      "duration": 0.109,
      "velocity": 0.49,
      "hand": "left"
    },
    {
      "midi": 42,
      "time": 48.478,
      "duration": 0.217,
      "velocity": 0.49,
      "hand": "left"
    },
    {
      "midi": 71,
      "time": 48.478,
      "duration": 0.109,
      "velocity": 0.49,
      "hand": "right"
    },
    {
      "midi": 38,
      "time": 48.696,
      "duration": 0.217,
      "velocity": 0.49,
      "hand": "left"
    },
    {
      "midi": 69,
      "time": 48.696,
      "duration": 0.109,
      "velocity": 0.49,
      "hand": "right"
    },
    {
      "midi": 66,
      "time": 48.913,
      "duration": 0.109,
      "velocity": 0.49,
      "hand": "right"
    },
    {
      "midi": 45,
      "time": 49.13,
      "duration": 0.109,
      "velocity": 0.49,
      "hand": "left"
    },
    {
      "midi": 54,
      "time": 49.13,
      "duration": 0.109,
      "velocity": 0.49,
      "hand": "left"
    },
    {
      "midi": 57,
      "time": 49.13,
      "duration": 0.109,
      "velocity": 0.49,
      "hand": "right"
    },
    {
      "midi": 62,
      "time": 49.13,
      "duration": 0.109,
      "velocity": 0.49,
      "hand": "right"
    },
    {
      "midi": 44,
      "time": 49.239,
      "duration": 0.109,
      "velocity": 0.49,
      "hand": "left"
    },
    {
      "midi": 45,
      "time": 49.348,
      "duration": 0.217,
      "velocity": 0.49,
      "hand": "left"
    },
    {
      "midi": 66,
      "time": 49.348,
      "duration": 0.109,
      "velocity": 0.49,
      "hand": "right"
    },
    {
      "midi": 38,
      "time": 49.565,
      "duration": 0.217,
      "velocity": 0.49,
      "hand": "left"
    },
    {
      "midi": 69,
      "time": 49.565,
      "duration": 0.761,
      "velocity": 0.49,
      "hand": "right"
    },
    {
      "midi": 45,
      "time": 50,
      "duration": 0.109,
      "velocity": 0.49,
      "hand": "left"
    },
    {
      "midi": 54,
      "time": 50,
      "duration": 0.109,
      "velocity": 0.49,
      "hand": "left"
    },
    {
      "midi": 57,
      "time": 50,
      "duration": 0.326,
      "velocity": 0.71,
      "hand": "right"
    },
    {
      "midi": 62,
      "time": 50,
      "duration": 0.326,
      "velocity": 0.71,
      "hand": "right"
    },
    {
      "midi": 44,
      "time": 50.109,
      "duration": 0.109,
      "velocity": 0.49,
      "hand": "left"
    },
    {
      "midi": 45,
      "time": 50.217,
      "duration": 0.217,
      "velocity": 0.49,
      "hand": "left"
    },
    {
      "midi": 35,
      "time": 50.435,
      "duration": 0.217,
      "velocity": 0.49,
      "hand": "left"
    },
    {
      "midi": 71,
      "time": 50.435,
      "duration": 0.109,
      "velocity": 0.49,
      "hand": "right"
    },
    {
      "midi": 73,
      "time": 50.652,
      "duration": 0.109,
      "velocity": 0.49,
      "hand": "right"
    },
    {
      "midi": 42,
      "time": 50.87,
      "duration": 0.109,
      "velocity": 0.49,
      "hand": "left"
    },
    {
      "midi": 50,
      "time": 50.87,
      "duration": 0.109,
      "velocity": 0.49,
      "hand": "left"
    },
    {
      "midi": 66,
      "time": 50.87,
      "duration": 0.326,
      "velocity": 0.71,
      "hand": "right"
    },
    {
      "midi": 74,
      "time": 50.87,
      "duration": 0.109,
      "velocity": 0.71,
      "hand": "right"
    },
    {
      "midi": 41,
      "time": 50.978,
      "duration": 0.109,
      "velocity": 0.49,
      "hand": "left"
    },
    {
      "midi": 42,
      "time": 51.087,
      "duration": 0.217,
      "velocity": 0.49,
      "hand": "left"
    },
    {
      "midi": 76,
      "time": 51.087,
      "duration": 0.109,
      "velocity": 0.71,
      "hand": "right"
    },
    {
      "midi": 35,
      "time": 51.304,
      "duration": 0.217,
      "velocity": 0.49,
      "hand": "left"
    },
    {
      "midi": 78,
      "time": 51.304,
      "duration": 0.109,
      "velocity": 0.49,
      "hand": "right"
    },
    {
      "midi": 74,
      "time": 51.522,
      "duration": 0.109,
      "velocity": 0.49,
      "hand": "right"
    },
    {
      "midi": 42,
      "time": 51.739,
      "duration": 0.109,
      "velocity": 0.49,
      "hand": "left"
    },
    {
      "midi": 50,
      "time": 51.739,
      "duration": 0.109,
      "velocity": 0.49,
      "hand": "left"
    },
    {
      "midi": 66,
      "time": 51.739,
      "duration": 0.326,
      "velocity": 0.71,
      "hand": "right"
    },
    {
      "midi": 78,
      "time": 51.739,
      "duration": 0.217,
      "velocity": 0.71,
      "hand": "right"
    },
    {
      "midi": 41,
      "time": 51.848,
      "duration": 0.109,
      "velocity": 0.49,
      "hand": "left"
    },
    {
      "midi": 42,
      "time": 51.957,
      "duration": 0.217,
      "velocity": 0.49,
      "hand": "left"
    },
    {
      "midi": 35,
      "time": 52.174,
      "duration": 0.217,
      "velocity": 0.49,
      "hand": "left"
    },
    {
      "midi": 77,
      "time": 52.174,
      "duration": 0.109,
      "velocity": 0.49,
      "hand": "right"
    },
    {
      "midi": 73,
      "time": 52.391,
      "duration": 0.109,
      "velocity": 0.49,
      "hand": "right"
    },
    {
      "midi": 42,
      "time": 52.609,
      "duration": 0.109,
      "velocity": 0.49,
      "hand": "left"
    },
    {
      "midi": 49,
      "time": 52.609,
      "duration": 0.109,
      "velocity": 0.49,
      "hand": "left"
    },
    {
      "midi": 66,
      "time": 52.609,
      "duration": 0.326,
      "velocity": 0.71,
      "hand": "right"
    },
    {
      "midi": 77,
      "time": 52.609,
      "duration": 0.217,
      "velocity": 0.71,
      "hand": "right"
    },
    {
      "midi": 41,
      "time": 52.717,
      "duration": 0.109,
      "velocity": 0.49,
      "hand": "left"
    },
    {
      "midi": 42,
      "time": 52.826,
      "duration": 0.217,
      "velocity": 0.49,
      "hand": "left"
    },
    {
      "midi": 35,
      "time": 53.043,
      "duration": 0.217,
      "velocity": 0.49,
      "hand": "left"
    },
    {
      "midi": 76,
      "time": 53.043,
      "duration": 0.109,
      "velocity": 0.49,
      "hand": "right"
    },
    {
      "midi": 72,
      "time": 53.261,
      "duration": 0.109,
      "velocity": 0.49,
      "hand": "right"
    },
    {
      "midi": 42,
      "time": 53.478,
      "duration": 0.109,
      "velocity": 0.49,
      "hand": "left"
    },
    {
      "midi": 50,
      "time": 53.478,
      "duration": 0.109,
      "velocity": 0.49,
      "hand": "left"
    },
    {
      "midi": 66,
      "time": 53.478,
      "duration": 0.326,
      "velocity": 0.71,
      "hand": "right"
    },
    {
      "midi": 76,
      "time": 53.478,
      "duration": 0.217,
      "velocity": 0.71,
      "hand": "right"
    },
    {
      "midi": 41,
      "time": 53.587,
      "duration": 0.109,
      "velocity": 0.49,
      "hand": "left"
    },
    {
      "midi": 42,
      "time": 53.696,
      "duration": 0.217,
      "velocity": 0.49,
      "hand": "left"
    },
    {
      "midi": 35,
      "time": 53.913,
      "duration": 0.217,
      "velocity": 0.49,
      "hand": "left"
    },
    {
      "midi": 71,
      "time": 53.913,
      "duration": 0.109,
      "velocity": 0.49,
      "hand": "right"
    },
    {
      "midi": 73,
      "time": 54.13,
      "duration": 0.109,
      "velocity": 0.49,
      "hand": "right"
    },
    {
      "midi": 42,
      "time": 54.348,
      "duration": 0.109,
      "velocity": 0.49,
      "hand": "left"
    },
    {
      "midi": 50,
      "time": 54.348,
      "duration": 0.109,
      "velocity": 0.49,
      "hand": "left"
    },
    {
      "midi": 66,
      "time": 54.348,
      "duration": 0.326,
      "velocity": 0.71,
      "hand": "right"
    },
    {
      "midi": 74,
      "time": 54.348,
      "duration": 0.109,
      "velocity": 0.71,
      "hand": "right"
    },
    {
      "midi": 41,
      "time": 54.457,
      "duration": 0.109,
      "velocity": 0.49,
      "hand": "left"
    },
    {
      "midi": 42,
      "time": 54.565,
      "duration": 0.217,
      "velocity": 0.49,
      "hand": "left"
    },
    {
      "midi": 76,
      "time": 54.565,
      "duration": 0.109,
      "velocity": 0.71,
      "hand": "right"
    },
    {
      "midi": 35,
      "time": 54.783,
      "duration": 0.217,
      "velocity": 0.49,
      "hand": "left"
    },
    {
      "midi": 78,
      "time": 54.783,
      "duration": 0.109,
      "velocity": 0.49,
      "hand": "right"
    },
    {
      "midi": 74,
      "time": 55,
      "duration": 0.109,
      "velocity": 0.49,
      "hand": "right"
    },
    {
      "midi": 42,
      "time": 55.217,
      "duration": 0.109,
      "velocity": 0.49,
      "hand": "left"
    },
    {
      "midi": 50,
      "time": 55.217,
      "duration": 0.109,
      "velocity": 0.49,
      "hand": "left"
    },
    {
      "midi": 78,
      "time": 55.217,
      "duration": 0.109,
      "velocity": 0.49,
      "hand": "right"
    },
    {
      "midi": 41,
      "time": 55.326,
      "duration": 0.109,
      "velocity": 0.49,
      "hand": "left"
    },
    {
      "midi": 42,
      "time": 55.435,
      "duration": 0.217,
      "velocity": 0.49,
      "hand": "left"
    },
    {
      "midi": 83,
      "time": 55.435,
      "duration": 0.109,
      "velocity": 0.49,
      "hand": "right"
    },
    {
      "midi": 38,
      "time": 55.652,
      "duration": 0.217,
      "velocity": 0.49,
      "hand": "left"
    },
    {
      "midi": 81,
      "time": 55.652,
      "duration": 0.109,
      "velocity": 0.49,
      "hand": "right"
    },
    {
      "midi": 78,
      "time": 55.87,
      "duration": 0.109,
      "velocity": 0.49,
      "hand": "right"
    },
    {
      "midi": 45,
      "time": 56.087,
      "duration": 0.109,
      "velocity": 0.49,
      "hand": "left"
    },
    {
      "midi": 54,
      "time": 56.087,
      "duration": 0.109,
      "velocity": 0.49,
      "hand": "left"
    },
    {
      "midi": 69,
      "time": 56.087,
      "duration": 0.326,
      "velocity": 0.71,
      "hand": "right"
    },
    {
      "midi": 74,
      "time": 56.087,
      "duration": 0.109,
      "velocity": 0.71,
      "hand": "right"
    },
    {
      "midi": 44,
      "time": 56.196,
      "duration": 0.109,
      "velocity": 0.49,
      "hand": "left"
    },
    {
      "midi": 45,
      "time": 56.304,
      "duration": 0.217,
      "velocity": 0.49,
      "hand": "left"
    },
    {
      "midi": 78,
      "time": 56.304,
      "duration": 0.109,
      "velocity": 0.71,
      "hand": "right"
    },
    {
      "midi": 38,
      "time": 56.522,
      "duration": 0.217,
      "velocity": 0.49,
      "hand": "left"
    },
    {
      "midi": 81,
      "time": 56.522,
      "duration": 0.761,
      "velocity": 0.49,
      "hand": "right"
    },
    {
      "midi": 45,
      "time": 56.957,
      "duration": 0.109,
      "velocity": 0.49,
      "hand": "left"
    },
    {
      "midi": 54,
      "time": 56.957,
      "duration": 0.109,
      "velocity": 0.49,
      "hand": "left"
    },
    {
      "midi": 69,
      "time": 56.957,
      "duration": 0.326,
      "velocity": 0.71,
      "hand": "right"
    },
    {
      "midi": 74,
      "time": 56.957,
      "duration": 0.326,
      "velocity": 0.71,
      "hand": "right"
    },
    {
      "midi": 44,
      "time": 57.065,
      "duration": 0.109,
      "velocity": 0.49,
      "hand": "left"
    },
    {
      "midi": 45,
      "time": 57.174,
      "duration": 0.217,
      "velocity": 0.49,
      "hand": "left"
    },
    {
      "midi": 42,
      "time": 57.391,
      "duration": 0.217,
      "velocity": 0.49,
      "hand": "left"
    },
    {
      "midi": 66,
      "time": 57.391,
      "duration": 0.109,
      "velocity": 0.5,
      "hand": "right"
    },
    {
      "midi": 68,
      "time": 57.609,
      "duration": 0.109,
      "velocity": 0.5,
      "hand": "right"
    },
    {
      "midi": 49,
      "time": 57.826,
      "duration": 0.109,
      "velocity": 0.49,
      "hand": "left"
    },
    {
      "midi": 58,
      "time": 57.826,
      "duration": 0.109,
      "velocity": 0.49,
      "hand": "left"
    },
    {
      "midi": 66,
      "time": 57.826,
      "duration": 0.326,
      "velocity": 0.71,
      "hand": "right"
    },
    {
      "midi": 70,
      "time": 57.826,
      "duration": 0.109,
      "velocity": 0.5,
      "hand": "right"
    },
    {
      "midi": 48,
      "time": 57.935,
      "duration": 0.109,
      "velocity": 0.49,
      "hand": "left"
    },
    {
      "midi": 49,
      "time": 58.043,
      "duration": 0.217,
      "velocity": 0.49,
      "hand": "left"
    },
    {
      "midi": 71,
      "time": 58.043,
      "duration": 0.109,
      "velocity": 0.5,
      "hand": "right"
    },
    {
      "midi": 42,
      "time": 58.261,
      "duration": 0.217,
      "velocity": 0.49,
      "hand": "left"
    },
    {
      "midi": 73,
      "time": 58.261,
      "duration": 0.109,
      "velocity": 0.5,
      "hand": "right"
    },
    {
      "midi": 70,
      "time": 58.478,
      "duration": 0.109,
      "velocity": 0.51,
      "hand": "right"
    },
    {
      "midi": 49,
      "time": 58.696,
      "duration": 0.109,
      "velocity": 0.49,
      "hand": "left"
    },
    {
      "midi": 58,
      "time": 58.696,
      "duration": 0.109,
      "velocity": 0.49,
      "hand": "left"
    },
    {
      "midi": 66,
      "time": 58.696,
      "duration": 0.326,
      "velocity": 0.71,
      "hand": "right"
    },
    {
      "midi": 70,
      "time": 58.696,
      "duration": 0.326,
      "velocity": 0.71,
      "hand": "right"
    },
    {
      "midi": 73,
      "time": 58.696,
      "duration": 0.326,
      "velocity": 0.51,
      "hand": "right"
    },
    {
      "midi": 48,
      "time": 58.804,
      "duration": 0.109,
      "velocity": 0.49,
      "hand": "left"
    },
    {
      "midi": 49,
      "time": 58.913,
      "duration": 0.217,
      "velocity": 0.49,
      "hand": "left"
    },
    {
      "midi": 38,
      "time": 59.13,
      "duration": 0.217,
      "velocity": 0.49,
      "hand": "left"
    },
    {
      "midi": 74,
      "time": 59.13,
      "duration": 0.109,
      "velocity": 0.52,
      "hand": "right"
    },
    {
      "midi": 70,
      "time": 59.348,
      "duration": 0.109,
      "velocity": 0.52,
      "hand": "right"
    },
    {
      "midi": 50,
      "time": 59.565,
      "duration": 0.109,
      "velocity": 0.49,
      "hand": "left"
    },
    {
      "midi": 58,
      "time": 59.565,
      "duration": 0.109,
      "velocity": 0.49,
      "hand": "left"
    },
    {
      "midi": 66,
      "time": 59.565,
      "duration": 0.326,
      "velocity": 0.71,
      "hand": "right"
    },
    {
      "midi": 70,
      "time": 59.565,
      "duration": 0.326,
      "velocity": 0.71,
      "hand": "right"
    },
    {
      "midi": 74,
      "time": 59.565,
      "duration": 0.326,
      "velocity": 0.53,
      "hand": "right"
    },
    {
      "midi": 49,
      "time": 59.674,
      "duration": 0.109,
      "velocity": 0.49,
      "hand": "left"
    },
    {
      "midi": 50,
      "time": 59.783,
      "duration": 0.217,
      "velocity": 0.49,
      "hand": "left"
    },
    {
      "midi": 42,
      "time": 60,
      "duration": 0.217,
      "velocity": 0.49,
      "hand": "left"
    },
    {
      "midi": 73,
      "time": 60,
      "duration": 0.109,
      "velocity": 0.53,
      "hand": "right"
    },
    {
      "midi": 70,
      "time": 60.217,
      "duration": 0.109,
      "velocity": 0.54,
      "hand": "right"
    },
    {
      "midi": 49,
      "time": 60.435,
      "duration": 0.109,
      "velocity": 0.49,
      "hand": "left"
    },
    {
      "midi": 58,
      "time": 60.435,
      "duration": 0.109,
      "velocity": 0.49,
      "hand": "left"
    },
    {
      "midi": 66,
      "time": 60.435,
      "duration": 0.326,
      "velocity": 0.71,
      "hand": "right"
    },
    {
      "midi": 70,
      "time": 60.435,
      "duration": 0.326,
      "velocity": 0.71,
      "hand": "right"
    },
    {
      "midi": 73,
      "time": 60.435,
      "duration": 0.326,
      "velocity": 0.54,
      "hand": "right"
    },
    {
      "midi": 48,
      "time": 60.543,
      "duration": 0.109,
      "velocity": 0.49,
      "hand": "left"
    },
    {
      "midi": 49,
      "time": 60.652,
      "duration": 0.217,
      "velocity": 0.49,
      "hand": "left"
    },
    {
      "midi": 42,
      "time": 60.87,
      "duration": 0.217,
      "velocity": 0.49,
      "hand": "left"
    },
    {
      "midi": 66,
      "time": 60.87,
      "duration": 0.109,
      "velocity": 0.54,
      "hand": "right"
    },
    {
      "midi": 68,
      "time": 61.087,
      "duration": 0.109,
      "velocity": 0.54,
      "hand": "right"
    },
    {
      "midi": 49,
      "time": 61.304,
      "duration": 0.109,
      "velocity": 0.49,
      "hand": "left"
    },
    {
      "midi": 58,
      "time": 61.304,
      "duration": 0.109,
      "velocity": 0.49,
      "hand": "left"
    },
    {
      "midi": 66,
      "time": 61.304,
      "duration": 0.326,
      "velocity": 0.71,
      "hand": "right"
    },
    {
      "midi": 70,
      "time": 61.304,
      "duration": 0.109,
      "velocity": 0.54,
      "hand": "right"
    },
    {
      "midi": 48,
      "time": 61.413,
      "duration": 0.109,
      "velocity": 0.49,
      "hand": "left"
    },
    {
      "midi": 49,
      "time": 61.522,
      "duration": 0.217,
      "velocity": 0.49,
      "hand": "left"
    },
    {
      "midi": 71,
      "time": 61.522,
      "duration": 0.109,
      "velocity": 0.55,
      "hand": "right"
    },
    {
      "midi": 42,
      "time": 61.739,
      "duration": 0.217,
      "velocity": 0.49,
      "hand": "left"
    },
    {
      "midi": 73,
      "time": 61.739,
      "duration": 0.109,
      "velocity": 0.55,
      "hand": "right"
    },
    {
      "midi": 70,
      "time": 61.957,
      "duration": 0.109,
      "velocity": 0.56,
      "hand": "right"
    },
    {
      "midi": 49,
      "time": 62.174,
      "duration": 0.109,
      "velocity": 0.49,
      "hand": "left"
    },
    {
      "midi": 58,
      "time": 62.174,
      "duration": 0.109,
      "velocity": 0.49,
      "hand": "left"
    },
    {
      "midi": 66,
      "time": 62.174,
      "duration": 0.326,
      "velocity": 0.71,
      "hand": "right"
    },
    {
      "midi": 70,
      "time": 62.174,
      "duration": 0.326,
      "velocity": 0.71,
      "hand": "right"
    },
    {
      "midi": 73,
      "time": 62.174,
      "duration": 0.326,
      "velocity": 0.56,
      "hand": "right"
    },
    {
      "midi": 48,
      "time": 62.283,
      "duration": 0.109,
      "velocity": 0.49,
      "hand": "left"
    },
    {
      "midi": 49,
      "time": 62.391,
      "duration": 0.217,
      "velocity": 0.49,
      "hand": "left"
    },
    {
      "midi": 38,
      "time": 62.609,
      "duration": 0.217,
      "velocity": 0.49,
      "hand": "left"
    },
    {
      "midi": 74,
      "time": 62.609,
      "duration": 0.109,
      "velocity": 0.57,
      "hand": "right"
    },
    {
      "midi": 70,
      "time": 62.826,
      "duration": 0.109,
      "velocity": 0.57,
      "hand": "right"
    },
    {
      "midi": 50,
      "time": 63.043,
      "duration": 0.109,
      "velocity": 0.49,
      "hand": "left"
    },
    {
      "midi": 58,
      "time": 63.043,
      "duration": 0.109,
      "velocity": 0.49,
      "hand": "left"
    },
    {
      "midi": 66,
      "time": 63.043,
      "duration": 0.326,
      "velocity": 0.71,
      "hand": "right"
    },
    {
      "midi": 70,
      "time": 63.043,
      "duration": 0.326,
      "velocity": 0.71,
      "hand": "right"
    },
    {
      "midi": 74,
      "time": 63.043,
      "duration": 0.326,
      "velocity": 0.57,
      "hand": "right"
    },
    {
      "midi": 49,
      "time": 63.152,
      "duration": 0.109,
      "velocity": 0.49,
      "hand": "left"
    },
    {
      "midi": 50,
      "time": 63.261,
      "duration": 0.217,
      "velocity": 0.49,
      "hand": "left"
    },
    {
      "midi": 42,
      "time": 63.478,
      "duration": 0.217,
      "velocity": 0.49,
      "hand": "left"
    },
    {
      "midi": 73,
      "time": 63.478,
      "duration": 0.761,
      "velocity": 0.57,
      "hand": "right"
    },
    {
      "midi": 49,
      "time": 63.913,
      "duration": 0.109,
      "velocity": 0.49,
      "hand": "left"
    },
    {
      "midi": 58,
      "time": 63.913,
      "duration": 0.109,
      "velocity": 0.49,
      "hand": "left"
    },
    {
      "midi": 66,
      "time": 63.913,
      "duration": 0.326,
      "velocity": 0.71,
      "hand": "right"
    },
    {
      "midi": 70,
      "time": 63.913,
      "duration": 0.326,
      "velocity": 0.71,
      "hand": "right"
    },
    {
      "midi": 48,
      "time": 64.022,
      "duration": 0.109,
      "velocity": 0.49,
      "hand": "left"
    },
    {
      "midi": 49,
      "time": 64.13,
      "duration": 0.217,
      "velocity": 0.49,
      "hand": "left"
    },
    {
      "midi": 42,
      "time": 64.348,
      "duration": 0.217,
      "velocity": 0.49,
      "hand": "left"
    },
    {
      "midi": 78,
      "time": 64.348,
      "duration": 0.109,
      "velocity": 0.58,
      "hand": "right"
    },
    {
      "midi": 80,
      "time": 64.565,
      "duration": 0.109,
      "velocity": 0.59,
      "hand": "right"
    },
    {
      "midi": 49,
      "time": 64.783,
      "duration": 0.109,
      "velocity": 0.49,
      "hand": "left"
    },
    {
      "midi": 58,
      "time": 64.783,
      "duration": 0.109,
      "velocity": 0.49,
      "hand": "left"
    },
    {
      "midi": 78,
      "time": 64.783,
      "duration": 0.109,
      "velocity": 0.59,
      "hand": "right"
    },
    {
      "midi": 82,
      "time": 64.783,
      "duration": 0.109,
      "velocity": 0.59,
      "hand": "right"
    },
    {
      "midi": 48,
      "time": 64.891,
      "duration": 0.109,
      "velocity": 0.49,
      "hand": "left"
    },
    {
      "midi": 49,
      "time": 65,
      "duration": 0.217,
      "velocity": 0.49,
      "hand": "left"
    },
    {
      "midi": 83,
      "time": 65,
      "duration": 0.109,
      "velocity": 0.6,
      "hand": "right"
    },
    {
      "midi": 42,
      "time": 65.217,
      "duration": 0.217,
      "velocity": 0.49,
      "hand": "left"
    },
    {
      "midi": 85,
      "time": 65.217,
      "duration": 0.109,
      "velocity": 0.6,
      "hand": "right"
    },
    {
      "midi": 82,
      "time": 65.435,
      "duration": 0.109,
      "velocity": 0.6,
      "hand": "right"
    },
    {
      "midi": 49,
      "time": 65.652,
      "duration": 0.109,
      "velocity": 0.49,
      "hand": "left"
    },
    {
      "midi": 58,
      "time": 65.652,
      "duration": 0.109,
      "velocity": 0.49,
      "hand": "left"
    },
    {
      "midi": 78,
      "time": 65.652,
      "duration": 0.217,
      "velocity": 0.61,
      "hand": "right"
    },
    {
      "midi": 82,
      "time": 65.652,
      "duration": 0.217,
      "velocity": 0.61,
      "hand": "right"
    },
    {
      "midi": 85,
      "time": 65.652,
      "duration": 0.217,
      "velocity": 0.61,
      "hand": "right"
    },
    {
      "midi": 48,
      "time": 65.761,
      "duration": 0.109,
      "velocity": 0.49,
      "hand": "left"
    },
    {
      "midi": 49,
      "time": 65.87,
      "duration": 0.217,
      "velocity": 0.49,
      "hand": "left"
    },
    {
      "midi": 38,
      "time": 66.087,
      "duration": 0.217,
      "velocity": 0.49,
      "hand": "left"
    },
    {
      "midi": 86,
      "time": 66.087,
      "duration": 0.109,
      "velocity": 0.61,
      "hand": "right"
    },
    {
      "midi": 82,
      "time": 66.304,
      "duration": 0.109,
      "velocity": 0.61,
      "hand": "right"
    },
    {
      "midi": 50,
      "time": 66.522,
      "duration": 0.109,
      "velocity": 0.49,
      "hand": "left"
    },
    {
      "midi": 58,
      "time": 66.522,
      "duration": 0.109,
      "velocity": 0.49,
      "hand": "left"
    },
    {
      "midi": 78,
      "time": 66.522,
      "duration": 0.217,
      "velocity": 0.61,
      "hand": "right"
    },
    {
      "midi": 82,
      "time": 66.522,
      "duration": 0.217,
      "velocity": 0.61,
      "hand": "right"
    },
    {
      "midi": 86,
      "time": 66.522,
      "duration": 0.217,
      "velocity": 0.61,
      "hand": "right"
    },
    {
      "midi": 49,
      "time": 66.63,
      "duration": 0.109,
      "velocity": 0.49,
      "hand": "left"
    },
    {
      "midi": 50,
      "time": 66.739,
      "duration": 0.217,
      "velocity": 0.49,
      "hand": "left"
    },
    {
      "midi": 42,
      "time": 66.957,
      "duration": 0.217,
      "velocity": 0.49,
      "hand": "left"
    },
    {
      "midi": 85,
      "time": 66.957,
      "duration": 0.109,
      "velocity": 0.62,
      "hand": "right"
    },
    {
      "midi": 82,
      "time": 67.174,
      "duration": 0.109,
      "velocity": 0.62,
      "hand": "right"
    },
    {
      "midi": 49,
      "time": 67.391,
      "duration": 0.109,
      "velocity": 0.49,
      "hand": "left"
    },
    {
      "midi": 58,
      "time": 67.391,
      "duration": 0.109,
      "velocity": 0.49,
      "hand": "left"
    },
    {
      "midi": 78,
      "time": 67.391,
      "duration": 0.217,
      "velocity": 0.62,
      "hand": "right"
    },
    {
      "midi": 82,
      "time": 67.391,
      "duration": 0.217,
      "velocity": 0.62,
      "hand": "right"
    },
    {
      "midi": 85,
      "time": 67.391,
      "duration": 0.217,
      "velocity": 0.62,
      "hand": "right"
    },
    {
      "midi": 48,
      "time": 67.5,
      "duration": 0.109,
      "velocity": 0.49,
      "hand": "left"
    },
    {
      "midi": 49,
      "time": 67.609,
      "duration": 0.217,
      "velocity": 0.49,
      "hand": "left"
    },
    {
      "midi": 42,
      "time": 67.826,
      "duration": 0.217,
      "velocity": 0.49,
      "hand": "left"
    },
    {
      "midi": 78,
      "time": 67.826,
      "duration": 0.109,
      "velocity": 0.63,
      "hand": "right"
    },
    {
      "midi": 80,
      "time": 68.043,
      "duration": 0.109,
      "velocity": 0.64,
      "hand": "right"
    },
    {
      "midi": 49,
      "time": 68.261,
      "duration": 0.109,
      "velocity": 0.49,
      "hand": "left"
    },
    {
      "midi": 58,
      "time": 68.261,
      "duration": 0.109,
      "velocity": 0.49,
      "hand": "left"
    },
    {
      "midi": 78,
      "time": 68.261,
      "duration": 0.109,
      "velocity": 0.64,
      "hand": "right"
    },
    {
      "midi": 82,
      "time": 68.261,
      "duration": 0.109,
      "velocity": 0.64,
      "hand": "right"
    },
    {
      "midi": 48,
      "time": 68.37,
      "duration": 0.109,
      "velocity": 0.49,
      "hand": "left"
    },
    {
      "midi": 49,
      "time": 68.478,
      "duration": 0.217,
      "velocity": 0.49,
      "hand": "left"
    },
    {
      "midi": 83,
      "time": 68.478,
      "duration": 0.109,
      "velocity": 0.64,
      "hand": "right"
    },
    {
      "midi": 42,
      "time": 68.696,
      "duration": 0.217,
      "velocity": 0.49,
      "hand": "left"
    },
    {
      "midi": 85,
      "time": 68.696,
      "duration": 0.109,
      "velocity": 0.65,
      "hand": "right"
    },
    {
      "midi": 82,
      "time": 68.913,
      "duration": 0.109,
      "velocity": 0.65,
      "hand": "right"
    },
    {
      "midi": 49,
      "time": 69.13,
      "duration": 0.109,
      "velocity": 0.49,
      "hand": "left"
    },
    {
      "midi": 58,
      "time": 69.13,
      "duration": 0.109,
      "velocity": 0.49,
      "hand": "left"
    },
    {
      "midi": 78,
      "time": 69.13,
      "duration": 0.217,
      "velocity": 0.65,
      "hand": "right"
    },
    {
      "midi": 82,
      "time": 69.13,
      "duration": 0.217,
      "velocity": 0.65,
      "hand": "right"
    },
    {
      "midi": 85,
      "time": 69.13,
      "duration": 0.217,
      "velocity": 0.65,
      "hand": "right"
    },
    {
      "midi": 48,
      "time": 69.239,
      "duration": 0.109,
      "velocity": 0.49,
      "hand": "left"
    },
    {
      "midi": 49,
      "time": 69.348,
      "duration": 0.217,
      "velocity": 0.49,
      "hand": "left"
    },
    {
      "midi": 38,
      "time": 69.565,
      "duration": 0.217,
      "velocity": 0.49,
      "hand": "left"
    },
    {
      "midi": 86,
      "time": 69.565,
      "duration": 0.109,
      "velocity": 0.65,
      "hand": "right"
    },
    {
      "midi": 82,
      "time": 69.783,
      "duration": 0.109,
      "velocity": 0.65,
      "hand": "right"
    },
    {
      "midi": 50,
      "time": 70,
      "duration": 0.109,
      "velocity": 0.49,
      "hand": "left"
    },
    {
      "midi": 58,
      "time": 70,
      "duration": 0.109,
      "velocity": 0.49,
      "hand": "left"
    },
    {
      "midi": 78,
      "time": 70,
      "duration": 0.217,
      "velocity": 0.66,
      "hand": "right"
    },
    {
      "midi": 82,
      "time": 70,
      "duration": 0.217,
      "velocity": 0.66,
      "hand": "right"
    },
    {
      "midi": 86,
      "time": 70,
      "duration": 0.217,
      "velocity": 0.66,
      "hand": "right"
    },
    {
      "midi": 49,
      "time": 70.109,
      "duration": 0.109,
      "velocity": 0.49,
      "hand": "left"
    },
    {
      "midi": 50,
      "time": 70.217,
      "duration": 0.217,
      "velocity": 0.49,
      "hand": "left"
    },
    {
      "midi": 42,
      "time": 70.435,
      "duration": 0.217,
      "velocity": 0.49,
      "hand": "left"
    },
    {
      "midi": 85,
      "time": 70.435,
      "duration": 0.761,
      "velocity": 0.66,
      "hand": "right"
    },
    {
      "midi": 49,
      "time": 70.87,
      "duration": 0.109,
      "velocity": 0.49,
      "hand": "left"
    },
    {
      "midi": 58,
      "time": 70.87,
      "duration": 0.109,
      "velocity": 0.49,
      "hand": "left"
    },
    {
      "midi": 78,
      "time": 70.87,
      "duration": 0.326,
      "velocity": 0.71,
      "hand": "right"
    },
    {
      "midi": 82,
      "time": 70.87,
      "duration": 0.326,
      "velocity": 0.71,
      "hand": "right"
    },
    {
      "midi": 48,
      "time": 70.978,
      "duration": 0.109,
      "velocity": 0.49,
      "hand": "left"
    },
    {
      "midi": 49,
      "time": 71.087,
      "duration": 0.217,
      "velocity": 0.49,
      "hand": "left"
    },
    {
      "midi": 35,
      "time": 71.304,
      "duration": 0.109,
      "velocity": 0.49,
      "hand": "left"
    },
    {
      "midi": 59,
      "time": 71.304,
      "duration": 0.109,
      "velocity": 0.68,
      "hand": "right"
    },
    {
      "midi": 41,
      "time": 71.413,
      "duration": 0.109,
      "velocity": 0.49,
      "hand": "left"
    },
    {
      "midi": 61,
      "time": 71.522,
      "duration": 0.109,
      "velocity": 0.68,
      "hand": "right"
    },
    {
      "midi": 42,
      "time": 71.63,
      "duration": 0.109,
      "velocity": 0.49,
      "hand": "left"
    },
    {
      "midi": 50,
      "time": 71.739,
      "duration": 0.109,
      "velocity": 0.49,
      "hand": "left"
    },
    {
      "midi": 54,
      "time": 71.739,
      "duration": 0.109,
      "velocity": 0.68,
      "hand": "right"
    },
    {
      "midi": 62,
      "time": 71.739,
      "duration": 0.109,
      "velocity": 0.68,
      "hand": "right"
    },
    {
      "midi": 41,
      "time": 71.848,
      "duration": 0.109,
      "velocity": 0.49,
      "hand": "left"
    },
    {
      "midi": 64,
      "time": 71.957,
      "duration": 0.109,
      "velocity": 0.68,
      "hand": "right"
    },
    {
      "midi": 42,
      "time": 72.065,
      "duration": 0.109,
      "velocity": 0.49,
      "hand": "left"
    },
    {
      "midi": 35,
      "time": 72.174,
      "duration": 0.109,
      "velocity": 0.49,
      "hand": "left"
    },
    {
      "midi": 66,
      "time": 72.174,
      "duration": 0.109,
      "velocity": 0.69,
      "hand": "right"
    },
    {
      "midi": 41,
      "time": 72.283,
      "duration": 0.109,
      "velocity": 0.49,
      "hand": "left"
    },
    {
      "midi": 62,
      "time": 72.391,
      "duration": 0.109,
      "velocity": 0.69,
      "hand": "right"
    },
    {
      "midi": 42,
      "time": 72.5,
      "duration": 0.109,
      "velocity": 0.49,
      "hand": "left"
    },
    {
      "midi": 50,
      "time": 72.609,
      "duration": 0.109,
      "velocity": 0.49,
      "hand": "left"
    },
    {
      "midi": 54,
      "time": 72.609,
      "duration": 0.217,
      "velocity": 0.69,
      "hand": "right"
    },
    {
      "midi": 66,
      "time": 72.609,
      "duration": 0.217,
      "velocity": 0.69,
      "hand": "right"
    },
    {
      "midi": 41,
      "time": 72.717,
      "duration": 0.109,
      "velocity": 0.49,
      "hand": "left"
    },
    {
      "midi": 42,
      "time": 72.935,
      "duration": 0.109,
      "velocity": 0.49,
      "hand": "left"
    },
    {
      "midi": 35,
      "time": 73.043,
      "duration": 0.109,
      "velocity": 0.49,
      "hand": "left"
    },
    {
      "midi": 65,
      "time": 73.043,
      "duration": 0.109,
      "velocity": 0.69,
      "hand": "right"
    },
    {
      "midi": 41,
      "time": 73.152,
      "duration": 0.109,
      "velocity": 0.49,
      "hand": "left"
    },
    {
      "midi": 61,
      "time": 73.261,
      "duration": 0.109,
      "velocity": 0.69,
      "hand": "right"
    },
    {
      "midi": 42,
      "time": 73.37,
      "duration": 0.109,
      "velocity": 0.49,
      "hand": "left"
    },
    {
      "midi": 49,
      "time": 73.478,
      "duration": 0.109,
      "velocity": 0.49,
      "hand": "left"
    },
    {
      "midi": 54,
      "time": 73.478,
      "duration": 0.217,
      "velocity": 0.69,
      "hand": "right"
    },
    {
      "midi": 65,
      "time": 73.478,
      "duration": 0.217,
      "velocity": 0.69,
      "hand": "right"
    },
    {
      "midi": 41,
      "time": 73.587,
      "duration": 0.109,
      "velocity": 0.49,
      "hand": "left"
    },
    {
      "midi": 42,
      "time": 73.804,
      "duration": 0.109,
      "velocity": 0.49,
      "hand": "left"
    },
    {
      "midi": 35,
      "time": 73.913,
      "duration": 0.109,
      "velocity": 0.49,
      "hand": "left"
    },
    {
      "midi": 64,
      "time": 73.913,
      "duration": 0.109,
      "velocity": 0.7,
      "hand": "right"
    },
    {
      "midi": 41,
      "time": 74.022,
      "duration": 0.109,
      "velocity": 0.49,
      "hand": "left"
    },
    {
      "midi": 60,
      "time": 74.13,
      "duration": 0.109,
      "velocity": 0.7,
      "hand": "right"
    },
    {
      "midi": 42,
      "time": 74.239,
      "duration": 0.109,
      "velocity": 0.49,
      "hand": "left"
    },
    {
      "midi": 48,
      "time": 74.348,
      "duration": 0.109,
      "velocity": 0.49,
      "hand": "left"
    },
    {
      "midi": 54,
      "time": 74.348,
      "duration": 0.217,
      "velocity": 0.7,
      "hand": "right"
    },
    {
      "midi": 65,
      "time": 74.348,
      "duration": 0.217,
      "velocity": 0.7,
      "hand": "right"
    },
    {
      "midi": 41,
      "time": 74.457,
      "duration": 0.109,
      "velocity": 0.49,
      "hand": "left"
    },
    {
      "midi": 42,
      "time": 74.674,
      "duration": 0.109,
      "velocity": 0.49,
      "hand": "left"
    },
    {
      "midi": 35,
      "time": 74.783,
      "duration": 0.109,
      "velocity": 0.49,
      "hand": "left"
    },
    {
      "midi": 59,
      "time": 74.783,
      "duration": 0.109,
      "velocity": 0.7,
      "hand": "right"
    },
    {
      "midi": 41,
      "time": 74.891,
      "duration": 0.109,
      "velocity": 0.49,
      "hand": "left"
    },
    {
      "midi": 61,
      "time": 75,
      "duration": 0.109,
      "velocity": 0.71,
      "hand": "right"
    },
    {
      "midi": 42,
      "time": 75.109,
      "duration": 0.109,
      "velocity": 0.49,
      "hand": "left"
    },
    {
      "midi": 50,
      "time": 75.217,
      "duration": 0.109,
      "velocity": 0.49,
      "hand": "left"
    },
    {
      "midi": 54,
      "time": 75.217,
      "duration": 0.109,
      "velocity": 0.71,
      "hand": "right"
    },
    {
      "midi": 62,
      "time": 75.217,
      "duration": 0.109,
      "velocity": 0.71,
      "hand": "right"
    },
    {
      "midi": 41,
      "time": 75.326,
      "duration": 0.109,
      "velocity": 0.49,
      "hand": "left"
    },
    {
      "midi": 64,
      "time": 75.435,
      "duration": 0.109,
      "velocity": 0.71,
      "hand": "right"
    },
    {
      "midi": 42,
      "time": 75.543,
      "duration": 0.109,
      "velocity": 0.49,
      "hand": "left"
    },
    {
      "midi": 35,
      "time": 75.652,
      "duration": 0.109,
      "velocity": 0.49,
      "hand": "left"
    },
    {
      "midi": 66,
      "time": 75.652,
      "duration": 0.109,
      "velocity": 0.71,
      "hand": "right"
    },
    {
      "midi": 41,
      "time": 75.761,
      "duration": 0.109,
      "velocity": 0.49,
      "hand": "left"
    },
    {
      "midi": 62,
      "time": 75.87,
      "duration": 0.109,
      "velocity": 0.72,
      "hand": "right"
    },
    {
      "midi": 42,
      "time": 75.978,
      "duration": 0.109,
      "velocity": 0.49,
      "hand": "left"
    },
    {
      "midi": 50,
      "time": 76.087,
      "duration": 0.109,
      "velocity": 0.49,
      "hand": "left"
    },
    {
      "midi": 59,
      "time": 76.087,
      "duration": 0.109,
      "velocity": 0.72,
      "hand": "right"
    },
    {
      "midi": 66,
      "time": 76.087,
      "duration": 0.109,
      "velocity": 0.72,
      "hand": "right"
    },
    {
      "midi": 41,
      "time": 76.196,
      "duration": 0.109,
      "velocity": 0.49,
      "hand": "left"
    },
    {
      "midi": 71,
      "time": 76.304,
      "duration": 0.109,
      "velocity": 0.72,
      "hand": "right"
    },
    {
      "midi": 42,
      "time": 76.413,
      "duration": 0.109,
      "velocity": 0.49,
      "hand": "left"
    },
    {
      "midi": 38,
      "time": 76.522,
      "duration": 0.109,
      "velocity": 0.49,
      "hand": "left"
    },
    {
      "midi": 69,
      "time": 76.522,
      "duration": 0.109,
      "velocity": 0.72,
      "hand": "right"
    },
    {
      "midi": 44,
      "time": 76.63,
      "duration": 0.109,
      "velocity": 0.49,
      "hand": "left"
    },
    {
      "midi": 66,
      "time": 76.739,
      "duration": 0.109,
      "velocity": 0.72,
      "hand": "right"
    },
    {
      "midi": 45,
      "time": 76.848,
      "duration": 0.109,
      "velocity": 0.49,
      "hand": "left"
    },
    {
      "midi": 54,
      "time": 76.957,
      "duration": 0.109,
      "velocity": 0.49,
      "hand": "left"
    },
    {
      "midi": 57,
      "time": 76.957,
      "duration": 0.109,
      "velocity": 0.72,
      "hand": "right"
    },
    {
      "midi": 64,
      "time": 76.957,
      "duration": 0.109,
      "velocity": 0.72,
      "hand": "right"
    },
    {
      "midi": 44,
      "time": 77.065,
      "duration": 0.109,
      "velocity": 0.49,
      "hand": "left"
    },
    {
      "midi": 66,
      "time": 77.174,
      "duration": 0.109,
      "velocity": 0.72,
      "hand": "right"
    },
    {
      "midi": 45,
      "time": 77.283,
      "duration": 0.109,
      "velocity": 0.49,
      "hand": "left"
    },
    {
      "midi": 38,
      "time": 77.391,
      "duration": 0.109,
      "velocity": 0.49,
      "hand": "left"
    },
    {
      "midi": 69,
      "time": 77.391,
      "duration": 0.761,
      "velocity": 0.72,
      "hand": "right"
    },
    {
      "midi": 44,
      "time": 77.5,
      "duration": 0.109,
      "velocity": 0.49,
      "hand": "left"
    },
    {
      "midi": 45,
      "time": 77.717,
      "duration": 0.109,
      "velocity": 0.49,
      "hand": "left"
    },
    {
      "midi": 54,
      "time": 77.826,
      "duration": 0.109,
      "velocity": 0.49,
      "hand": "left"
    },
    {
      "midi": 57,
      "time": 77.826,
      "duration": 0.326,
      "velocity": 0.71,
      "hand": "right"
    },
    {
      "midi": 64,
      "time": 77.826,
      "duration": 0.326,
      "velocity": 0.71,
      "hand": "right"
    },
    {
      "midi": 44,
      "time": 77.935,
      "duration": 0.109,
      "velocity": 0.49,
      "hand": "left"
    },
    {
      "midi": 45,
      "time": 78.152,
      "duration": 0.109,
      "velocity": 0.49,
      "hand": "left"
    },
    {
      "midi": 35,
      "time": 78.261,
      "duration": 0.109,
      "velocity": 0.49,
      "hand": "left"
    },
    {
      "midi": 71,
      "time": 78.261,
      "duration": 0.109,
      "velocity": 0.73,
      "hand": "right"
    },
    {
      "midi": 41,
      "time": 78.37,
      "duration": 0.109,
      "velocity": 0.49,
      "hand": "left"
    },
    {
      "midi": 73,
      "time": 78.478,
      "duration": 0.109,
      "velocity": 0.74,
      "hand": "right"
    },
    {
      "midi": 42,
      "time": 78.587,
      "duration": 0.109,
      "velocity": 0.49,
      "hand": "left"
    },
    {
      "midi": 50,
      "time": 78.696,
      "duration": 0.109,
      "velocity": 0.49,
      "hand": "left"
    },
    {
      "midi": 66,
      "time": 78.696,
      "duration": 0.326,
      "velocity": 0.71,
      "hand": "right"
    },
    {
      "midi": 74,
      "time": 78.696,
      "duration": 0.109,
      "velocity": 0.74,
      "hand": "right"
    },
    {
      "midi": 41,
      "time": 78.804,
      "duration": 0.109,
      "velocity": 0.49,
      "hand": "left"
    },
    {
      "midi": 76,
      "time": 78.913,
      "duration": 0.109,
      "velocity": 0.74,
      "hand": "right"
    },
    {
      "midi": 42,
      "time": 79.022,
      "duration": 0.109,
      "velocity": 0.49,
      "hand": "left"
    },
    {
      "midi": 35,
      "time": 79.13,
      "duration": 0.109,
      "velocity": 0.49,
      "hand": "left"
    },
    {
      "midi": 78,
      "time": 79.13,
      "duration": 0.109,
      "velocity": 0.74,
      "hand": "right"
    },
    {
      "midi": 41,
      "time": 79.239,
      "duration": 0.109,
      "velocity": 0.49,
      "hand": "left"
    },
    {
      "midi": 74,
      "time": 79.348,
      "duration": 0.109,
      "velocity": 0.75,
      "hand": "right"
    },
    {
      "midi": 42,
      "time": 79.457,
      "duration": 0.109,
      "velocity": 0.49,
      "hand": "left"
    },
    {
      "midi": 50,
      "time": 79.565,
      "duration": 0.109,
      "velocity": 0.49,
      "hand": "left"
    },
    {
      "midi": 66,
      "time": 79.565,
      "duration": 0.326,
      "velocity": 0.71,
      "hand": "right"
    },
    {
      "midi": 78,
      "time": 79.565,
      "duration": 0.326,
      "velocity": 0.75,
      "hand": "right"
    },
    {
      "midi": 41,
      "time": 79.674,
      "duration": 0.109,
      "velocity": 0.49,
      "hand": "left"
    },
    {
      "midi": 42,
      "time": 79.891,
      "duration": 0.109,
      "velocity": 0.49,
      "hand": "left"
    },
    {
      "midi": 35,
      "time": 80,
      "duration": 0.109,
      "velocity": 0.49,
      "hand": "left"
    },
    {
      "midi": 77,
      "time": 80,
      "duration": 0.109,
      "velocity": 0.75,
      "hand": "right"
    },
    {
      "midi": 41,
      "time": 80.109,
      "duration": 0.109,
      "velocity": 0.49,
      "hand": "left"
    },
    {
      "midi": 73,
      "time": 80.217,
      "duration": 0.109,
      "velocity": 0.76,
      "hand": "right"
    },
    {
      "midi": 42,
      "time": 80.326,
      "duration": 0.109,
      "velocity": 0.49,
      "hand": "left"
    },
    {
      "midi": 50,
      "time": 80.435,
      "duration": 0.109,
      "velocity": 0.49,
      "hand": "left"
    },
    {
      "midi": 66,
      "time": 80.435,
      "duration": 0.326,
      "velocity": 0.71,
      "hand": "right"
    },
    {
      "midi": 77,
      "time": 80.435,
      "duration": 0.217,
      "velocity": 0.76,
      "hand": "right"
    },
    {
      "midi": 41,
      "time": 80.543,
      "duration": 0.109,
      "velocity": 0.49,
      "hand": "left"
    },
    {
      "midi": 42,
      "time": 80.761,
      "duration": 0.109,
      "velocity": 0.49,
      "hand": "left"
    },
    {
      "midi": 35,
      "time": 80.87,
      "duration": 0.109,
      "velocity": 0.49,
      "hand": "left"
    },
    {
      "midi": 76,
      "time": 80.87,
      "duration": 0.109,
      "velocity": 0.76,
      "hand": "right"
    },
    {
      "midi": 41,
      "time": 80.978,
      "duration": 0.109,
      "velocity": 0.49,
      "hand": "left"
    },
    {
      "midi": 72,
      "time": 81.087,
      "duration": 0.109,
      "velocity": 0.76,
      "hand": "right"
    },
    {
      "midi": 42,
      "time": 81.196,
      "duration": 0.109,
      "velocity": 0.49,
      "hand": "left"
    },
    {
      "midi": 50,
      "time": 81.304,
      "duration": 0.109,
      "velocity": 0.49,
      "hand": "left"
    },
    {
      "midi": 66,
      "time": 81.304,
      "duration": 0.326,
      "velocity": 0.71,
      "hand": "right"
    },
    {
      "midi": 76,
      "time": 81.304,
      "duration": 0.326,
      "velocity": 0.76,
      "hand": "right"
    },
    {
      "midi": 41,
      "time": 81.413,
      "duration": 0.109,
      "velocity": 0.49,
      "hand": "left"
    },
    {
      "midi": 42,
      "time": 81.63,
      "duration": 0.109,
      "velocity": 0.49,
      "hand": "left"
    },
    {
      "midi": 35,
      "time": 81.739,
      "duration": 0.109,
      "velocity": 0.49,
      "hand": "left"
    },
    {
      "midi": 71,
      "time": 81.739,
      "duration": 0.109,
      "velocity": 0.76,
      "hand": "right"
    },
    {
      "midi": 41,
      "time": 81.848,
      "duration": 0.109,
      "velocity": 0.49,
      "hand": "left"
    },
    {
      "midi": 73,
      "time": 81.957,
      "duration": 0.109,
      "velocity": 0.76,
      "hand": "right"
    },
    {
      "midi": 42,
      "time": 82.065,
      "duration": 0.109,
      "velocity": 0.49,
      "hand": "left"
    },
    {
      "midi": 47,
      "time": 82.174,
      "duration": 0.217,
      "velocity": 0.49,
      "hand": "left"
    },
    {
      "midi": 59,
      "time": 82.174,
      "duration": 0.217,
      "velocity": 0.49,
      "hand": "left"
    },
    {
      "midi": 74,
      "time": 82.174,
      "duration": 0.109,
      "velocity": 0.77,
      "hand": "right"
    },
    {
      "midi": 76,
      "time": 82.391,
      "duration": 0.109,
      "velocity": 0.77,
      "hand": "right"
    },
    {
      "midi": 45,
      "time": 82.609,
      "duration": 0.217,
      "velocity": 0.49,
      "hand": "left"
    },
    {
      "midi": 47,
      "time": 82.609,
      "duration": 0.217,
      "velocity": 0.49,
      "hand": "left"
    },
    {
      "midi": 57,
      "time": 82.609,
      "duration": 0.217,
      "velocity": 0.49,
      "hand": "left"
    },
    {
      "midi": 78,
      "time": 82.609,
      "duration": 0.109,
      "velocity": 0.77,
      "hand": "right"
    },
    {
      "midi": 74,
      "time": 82.826,
      "duration": 0.109,
      "velocity": 0.77,
      "hand": "right"
    },
    {
      "midi": 43,
      "time": 83.043,
      "duration": 0.217,
      "velocity": 0.49,
      "hand": "left"
    },
    {
      "midi": 47,
      "time": 83.043,
      "duration": 0.217,
      "velocity": 0.49,
      "hand": "left"
    },
    {
      "midi": 55,
      "time": 83.043,
      "duration": 0.217,
      "velocity": 0.49,
      "hand": "left"
    },
    {
      "midi": 71,
      "time": 83.043,
      "duration": 0.326,
      "velocity": 0.71,
      "hand": "right"
    },
    {
      "midi": 74,
      "time": 83.043,
      "duration": 0.326,
      "velocity": 0.71,
      "hand": "right"
    },
    {
      "midi": 78,
      "time": 83.043,
      "duration": 0.109,
      "velocity": 0.78,
      "hand": "right"
    },
    {
      "midi": 83,
      "time": 83.261,
      "duration": 0.109,
      "velocity": 0.78,
      "hand": "right"
    },
    {
      "midi": 42,
      "time": 83.478,
      "duration": 0.326,
      "velocity": 0.49,
      "hand": "left"
    },
    {
      "midi": 47,
      "time": 83.478,
      "duration": 0.326,
      "velocity": 0.49,
      "hand": "left"
    },
    {
      "midi": 54,
      "time": 83.478,
      "duration": 0.326,
      "velocity": 0.49,
      "hand": "left"
    },
    {
      "midi": 78,
      "time": 83.478,
      "duration": 0.109,
      "velocity": 0.78,
      "hand": "right"
    },
    {
      "midi": 74,
      "time": 83.696,
      "duration": 0.109,
      "velocity": 0.78,
      "hand": "right"
    },
    {
      "midi": 40,
      "time": 83.913,
      "duration": 0.326,
      "velocity": 0.49,
      "hand": "left"
    },
    {
      "midi": 47,
      "time": 83.913,
      "duration": 0.326,
      "velocity": 0.49,
      "hand": "left"
    },
    {
      "midi": 52,
      "time": 83.913,
      "duration": 0.326,
      "velocity": 0.49,
      "hand": "left"
    },
    {
      "midi": 71,
      "time": 83.913,
      "duration": 0.326,
      "velocity": 0.71,
      "hand": "right"
    },
    {
      "midi": 74,
      "time": 83.913,
      "duration": 0.326,
      "velocity": 0.71,
      "hand": "right"
    },
    {
      "midi": 78,
      "time": 83.913,
      "duration": 0.109,
      "velocity": 0.79,
      "hand": "right"
    },
    {
      "midi": 83,
      "time": 84.13,
      "duration": 0.109,
      "velocity": 0.79,
      "hand": "right"
    },
    {
      "midi": 38,
      "time": 84.348,
      "duration": 0.326,
      "velocity": 0.49,
      "hand": "left"
    },
    {
      "midi": 47,
      "time": 84.348,
      "duration": 0.326,
      "velocity": 0.49,
      "hand": "left"
    },
    {
      "midi": 50,
      "time": 84.348,
      "duration": 0.326,
      "velocity": 0.49,
      "hand": "left"
    },
    {
      "midi": 71,
      "time": 84.348,
      "duration": 0.761,
      "velocity": 0.79,
      "hand": "right"
    },
    {
      "midi": 37,
      "time": 84.783,
      "duration": 0.326,
      "velocity": 0.49,
      "hand": "left"
    },
    {
      "midi": 47,
      "time": 84.783,
      "duration": 0.326,
      "velocity": 0.49,
      "hand": "left"
    },
    {
      "midi": 49,
      "time": 84.783,
      "duration": 0.326,
      "velocity": 0.49,
      "hand": "left"
    },
    {
      "midi": 35,
      "time": 85.217,
      "duration": 0.217,
      "velocity": 0.49,
      "hand": "left"
    },
    {
      "midi": 47,
      "time": 85.217,
      "duration": 0.217,
      "velocity": 0.49,
      "hand": "left"
    },
    {
      "midi": 83,
      "time": 85.217,
      "duration": 0.652,
      "velocity": 0.8,
      "hand": "right"
    },
    {
      "midi": 45,
      "time": 85.435,
      "duration": 0.109,
      "velocity": 0.49,
      "hand": "left"
    },
    {
      "midi": 85,
      "time": 85.435,
      "duration": 0.109,
      "velocity": 0.8,
      "hand": "right"
    },
    {
      "midi": 43,
      "time": 85.652,
      "duration": 0.109,
      "velocity": 0.49,
      "hand": "left"
    },
    {
      "midi": 86,
      "time": 85.652,
      "duration": 0.109,
      "velocity": 0.8,
      "hand": "right"
    },
    {
      "midi": 42,
      "time": 85.761,
      "duration": 0.109,
      "velocity": 0.49,
      "hand": "left"
    },
    {
      "midi": 88,
      "time": 85.761,
      "duration": 0.109,
      "velocity": 0.8,
      "hand": "right"
    },
    {
      "midi": 35,
      "time": 85.978,
      "duration": 0.217,
      "velocity": 0.49,
      "hand": "left"
    },
    {
      "midi": 47,
      "time": 85.978,
      "duration": 0.217,
      "velocity": 0.49,
      "hand": "left"
    },
    {
      "midi": 83,
      "time": 85.978,
      "duration": 0.652,
      "velocity": 0.71,
      "hand": "right"
    },
    {
      "midi": 90,
      "time": 85.978,
      "duration": 0.217,
      "velocity": 0.8,
      "hand": "right"
    },
    {
      "midi": 45,
      "time": 86.196,
      "duration": 0.109,
      "velocity": 0.49,
      "hand": "left"
    },
    {
      "midi": 86,
      "time": 86.196,
      "duration": 0.109,
      "velocity": 0.8,
      "hand": "right"
    },
    {
      "midi": 43,
      "time": 86.413,
      "duration": 0.109,
      "velocity": 0.49,
      "hand": "left"
    },
    {
      "midi": 90,
      "time": 86.413,
      "duration": 0.217,
      "velocity": 0.8,
      "hand": "right"
    },
    {
      "midi": 42,
      "time": 86.63,
      "duration": 0.109,
      "velocity": 0.49,
      "hand": "left"
    },
    {
      "midi": 35,
      "time": 86.739,
      "duration": 0.217,
      "velocity": 0.49,
      "hand": "left"
    },
    {
      "midi": 47,
      "time": 86.739,
      "duration": 0.217,
      "velocity": 0.49,
      "hand": "left"
    },
    {
      "midi": 83,
      "time": 86.739,
      "duration": 0.652,
      "velocity": 0.71,
      "hand": "right"
    },
    {
      "midi": 89,
      "time": 86.739,
      "duration": 0.109,
      "velocity": 0.8,
      "hand": "right"
    },
    {
      "midi": 45,
      "time": 86.957,
      "duration": 0.109,
      "velocity": 0.49,
      "hand": "left"
    },
    {
      "midi": 85,
      "time": 86.957,
      "duration": 0.109,
      "velocity": 0.8,
      "hand": "right"
    },
    {
      "midi": 43,
      "time": 87.174,
      "duration": 0.109,
      "velocity": 0.49,
      "hand": "left"
    },
    {
      "midi": 89,
      "time": 87.174,
      "duration": 0.217,
      "velocity": 0.8,
      "hand": "right"
    },
    {
      "midi": 42,
      "time": 87.391,
      "duration": 0.109,
      "velocity": 0.49,
      "hand": "left"
    },
    {
      "midi": 35,
      "time": 87.609,
      "duration": 0.217,
      "velocity": 0.49,
      "hand": "left"
    },
    {
      "midi": 47,
      "time": 87.609,
      "duration": 0.217,
      "velocity": 0.49,
      "hand": "left"
    },
    {
      "midi": 83,
      "time": 87.609,
      "duration": 0.652,
      "velocity": 0.71,
      "hand": "right"
    },
    {
      "midi": 88,
      "time": 87.609,
      "duration": 0.109,
      "velocity": 0.8,
      "hand": "right"
    },
    {
      "midi": 45,
      "time": 87.717,
      "duration": 0.109,
      "velocity": 0.49,
      "hand": "left"
    },
    {
      "midi": 84,
      "time": 87.717,
      "duration": 0.109,
      "velocity": 0.8,
      "hand": "right"
    },
    {
      "midi": 43,
      "time": 87.935,
      "duration": 0.109,
      "velocity": 0.49,
      "hand": "left"
    },
    {
      "midi": 88,
      "time": 87.935,
      "duration": 0.217,
      "velocity": 0.8,
      "hand": "right"
    },
    {
      "midi": 42,
      "time": 88.152,
      "duration": 0.109,
      "velocity": 0.49,
      "hand": "left"
    },
    {
      "midi": 35,
      "time": 88.37,
      "duration": 0.217,
      "velocity": 0.49,
      "hand": "left"
    },
    {
      "midi": 47,
      "time": 88.37,
      "duration": 0.217,
      "velocity": 0.49,
      "hand": "left"
    },
    {
      "midi": 83,
      "time": 88.37,
      "duration": 0.652,
      "velocity": 0.8,
      "hand": "right"
    },
    {
      "midi": 45,
      "time": 88.478,
      "duration": 0.109,
      "velocity": 0.49,
      "hand": "left"
    },
    {
      "midi": 85,
      "time": 88.478,
      "duration": 0.109,
      "velocity": 0.8,
      "hand": "right"
    },
    {
      "midi": 43,
      "time": 88.696,
      "duration": 0.109,
      "velocity": 0.49,
      "hand": "left"
    },
    {
      "midi": 86,
      "time": 88.696,
      "duration": 0.109,
      "velocity": 0.8,
      "hand": "right"
    },
    {
      "midi": 42,
      "time": 88.913,
      "duration": 0.109,
      "velocity": 0.49,
      "hand": "left"
    },
    {
      "midi": 88,
      "time": 88.913,
      "duration": 0.109,
      "velocity": 0.8,
      "hand": "right"
    },
    {
      "midi": 35,
      "time": 89.13,
      "duration": 0.217,
      "velocity": 0.49,
      "hand": "left"
    },
    {
      "midi": 47,
      "time": 89.13,
      "duration": 0.217,
      "velocity": 0.49,
      "hand": "left"
    },
    {
      "midi": 83,
      "time": 89.13,
      "duration": 0.652,
      "velocity": 0.71,
      "hand": "right"
    },
    {
      "midi": 90,
      "time": 89.13,
      "duration": 0.109,
      "velocity": 0.8,
      "hand": "right"
    },
    {
      "midi": 45,
      "time": 89.348,
      "duration": 0.109,
      "velocity": 0.49,
      "hand": "left"
    },
    {
      "midi": 86,
      "time": 89.348,
      "duration": 0.109,
      "velocity": 0.8,
      "hand": "right"
    },
    {
      "midi": 43,
      "time": 89.457,
      "duration": 0.109,
      "velocity": 0.49,
      "hand": "left"
    },
    {
      "midi": 90,
      "time": 89.457,
      "duration": 0.109,
      "velocity": 0.8,
      "hand": "right"
    },
    {
      "midi": 42,
      "time": 89.674,
      "duration": 0.109,
      "velocity": 0.49,
      "hand": "left"
    },
    {
      "midi": 95,
      "time": 89.674,
      "duration": 0.109,
      "velocity": 0.8,
      "hand": "right"
    },
    {
      "midi": 38,
      "time": 89.891,
      "duration": 0.217,
      "velocity": 0.49,
      "hand": "left"
    },
    {
      "midi": 50,
      "time": 89.891,
      "duration": 0.217,
      "velocity": 0.49,
      "hand": "left"
    },
    {
      "midi": 81,
      "time": 89.891,
      "duration": 0.652,
      "velocity": 0.71,
      "hand": "right"
    },
    {
      "midi": 86,
      "time": 89.891,
      "duration": 0.435,
      "velocity": 0.71,
      "hand": "right"
    },
    {
      "midi": 93,
      "time": 89.891,
      "duration": 0.109,
      "velocity": 0.8,
      "hand": "right"
    },
    {
      "midi": 49,
      "time": 90.109,
      "duration": 0.109,
      "velocity": 0.49,
      "hand": "left"
    },
    {
      "midi": 90,
      "time": 90.109,
      "duration": 0.109,
      "velocity": 0.8,
      "hand": "right"
    },
    {
      "midi": 47,
      "time": 90.326,
      "duration": 0.109,
      "velocity": 0.49,
      "hand": "left"
    },
    {
      "midi": 86,
      "time": 90.326,
      "duration": 0.326,
      "velocity": 0.8,
      "hand": "right"
    },
    {
      "midi": 45,
      "time": 90.435,
      "duration": 0.109,
      "velocity": 0.49,
      "hand": "left"
    },
    {
      "midi": 90,
      "time": 90.435,
      "duration": 0.109,
      "velocity": 0.8,
      "hand": "right"
    },
    {
      "midi": 38,
      "time": 90.652,
      "duration": 0.217,
      "velocity": 0.49,
      "hand": "left"
    },
    {
      "midi": 50,
      "time": 90.652,
      "duration": 0.217,
      "velocity": 0.49,
      "hand": "left"
    },
    {
      "midi": 81,
      "time": 90.652,
      "duration": 0.652,
      "velocity": 0.71,
      "hand": "right"
    },
    {
      "midi": 86,
      "time": 90.652,
      "duration": 0.652,
      "velocity": 0.71,
      "hand": "right"
    },
    {
      "midi": 93,
      "time": 90.652,
      "duration": 0.652,
      "velocity": 0.8,
      "hand": "right"
    },
    {
      "midi": 49,
      "time": 90.87,
      "duration": 0.109,
      "velocity": 0.49,
      "hand": "left"
    },
    {
      "midi": 47,
      "time": 91.087,
      "duration": 0.109,
      "velocity": 0.49,
      "hand": "left"
    },
    {
      "midi": 45,
      "time": 91.304,
      "duration": 0.109,
      "velocity": 0.49,
      "hand": "left"
    },
    {
      "midi": 35,
      "time": 91.413,
      "duration": 0.217,
      "velocity": 0.49,
      "hand": "left"
    },
    {
      "midi": 47,
      "time": 91.413,
      "duration": 0.217,
      "velocity": 0.49,
      "hand": "left"
    },
    {
      "midi": 83,
      "time": 91.413,
      "duration": 0.652,
      "velocity": 0.8,
      "hand": "right"
    },
    {
      "midi": 45,
      "time": 91.63,
      "duration": 0.109,
      "velocity": 0.49,
      "hand": "left"
    },
    {
      "midi": 85,
      "time": 91.63,
      "duration": 0.109,
      "velocity": 0.8,
      "hand": "right"
    },
    {
      "midi": 43,
      "time": 91.848,
      "duration": 0.109,
      "velocity": 0.49,
      "hand": "left"
    },
    {
      "midi": 86,
      "time": 91.848,
      "duration": 0.109,
      "velocity": 0.8,
      "hand": "right"
    },
    {
      "midi": 42,
      "time": 92.065,
      "duration": 0.109,
      "velocity": 0.49,
      "hand": "left"
    },
    {
      "midi": 88,
      "time": 92.065,
      "duration": 0.109,
      "velocity": 0.8,
      "hand": "right"
    },
    {
      "midi": 35,
      "time": 92.283,
      "duration": 0.217,
      "velocity": 0.49,
      "hand": "left"
    },
    {
      "midi": 47,
      "time": 92.283,
      "duration": 0.217,
      "velocity": 0.49,
      "hand": "left"
    },
    {
      "midi": 83,
      "time": 92.283,
      "duration": 0.652,
      "velocity": 0.71,
      "hand": "right"
    },
    {
      "midi": 90,
      "time": 92.283,
      "duration": 0.217,
      "velocity": 0.8,
      "hand": "right"
    },
    {
      "midi": 45,
      "time": 92.391,
      "duration": 0.109,
      "velocity": 0.49,
      "hand": "left"
    },
    {
      "midi": 86,
      "time": 92.391,
      "duration": 0.109,
      "velocity": 0.8,
      "hand": "right"
    },
    {
      "midi": 43,
      "time": 92.609,
      "duration": 0.109,
      "velocity": 0.49,
      "hand": "left"
    },
    {
      "midi": 90,
      "time": 92.609,
      "duration": 0.217,
      "velocity": 0.8,
      "hand": "right"
    },
    {
      "midi": 42,
      "time": 92.826,
      "duration": 0.109,
      "velocity": 0.49,
      "hand": "left"
    },
    {
      "midi": 35,
      "time": 93.043,
      "duration": 0.217,
      "velocity": 0.49,
      "hand": "left"
    },
    {
      "midi": 47,
      "time": 93.043,
      "duration": 0.217,
      "velocity": 0.49,
      "hand": "left"
    },
    {
      "midi": 83,
      "time": 93.043,
      "duration": 0.652,
      "velocity": 0.71,
      "hand": "right"
    },
    {
      "midi": 89,
      "time": 93.043,
      "duration": 0.217,
      "velocity": 0.8,
      "hand": "right"
    },
    {
      "midi": 45,
      "time": 93.152,
      "duration": 0.109,
      "velocity": 0.49,
      "hand": "left"
    },
    {
      "midi": 85,
      "time": 93.152,
      "duration": 0.109,
      "velocity": 0.8,
      "hand": "right"
    },
    {
      "midi": 43,
      "time": 93.37,
      "duration": 0.109,
      "velocity": 0.49,
      "hand": "left"
    },
    {
      "midi": 89,
      "time": 93.37,
      "duration": 0.217,
      "velocity": 0.8,
      "hand": "right"
    },
    {
      "midi": 42,
      "time": 93.587,
      "duration": 0.109,
      "velocity": 0.49,
      "hand": "left"
    },
    {
      "midi": 35,
      "time": 93.804,
      "duration": 0.217,
      "velocity": 0.49,
      "hand": "left"
    },
    {
      "midi": 47,
      "time": 93.804,
      "duration": 0.217,
      "velocity": 0.49,
      "hand": "left"
    },
    {
      "midi": 83,
      "time": 93.804,
      "duration": 0.652,
      "velocity": 0.71,
      "hand": "right"
    },
    {
      "midi": 88,
      "time": 93.804,
      "duration": 0.217,
      "velocity": 0.8,
      "hand": "right"
    },
    {
      "midi": 45,
      "time": 94.022,
      "duration": 0.109,
      "velocity": 0.49,
      "hand": "left"
    },
    {
      "midi": 84,
      "time": 94.022,
      "duration": 0.109,
      "velocity": 0.8,
      "hand": "right"
    },
    {
      "midi": 43,
      "time": 94.13,
      "duration": 0.109,
      "velocity": 0.49,
      "hand": "left"
    },
    {
      "midi": 88,
      "time": 94.13,
      "duration": 0.217,
      "velocity": 0.8,
      "hand": "right"
    },
    {
      "midi": 42,
      "time": 94.348,
      "duration": 0.109,
      "velocity": 0.49,
      "hand": "left"
    },
    {
      "midi": 35,
      "time": 94.565,
      "duration": 0.217,
      "velocity": 0.49,
      "hand": "left"
    },
    {
      "midi": 47,
      "time": 94.565,
      "duration": 0.217,
      "velocity": 0.49,
      "hand": "left"
    },
    {
      "midi": 83,
      "time": 94.565,
      "duration": 0.652,
      "velocity": 0.8,
      "hand": "right"
    },
    {
      "midi": 45,
      "time": 94.783,
      "duration": 0.109,
      "velocity": 0.49,
      "hand": "left"
    },
    {
      "midi": 85,
      "time": 94.783,
      "duration": 0.109,
      "velocity": 0.8,
      "hand": "right"
    },
    {
      "midi": 43,
      "time": 95,
      "duration": 0.109,
      "velocity": 0.49,
      "hand": "left"
    },
    {
      "midi": 86,
      "time": 95,
      "duration": 0.109,
      "velocity": 0.8,
      "hand": "right"
    },
    {
      "midi": 42,
      "time": 95.109,
      "duration": 0.109,
      "velocity": 0.49,
      "hand": "left"
    },
    {
      "midi": 88,
      "time": 95.109,
      "duration": 0.109,
      "velocity": 0.8,
      "hand": "right"
    },
    {
      "midi": 35,
      "time": 95.326,
      "duration": 0.217,
      "velocity": 0.49,
      "hand": "left"
    },
    {
      "midi": 47,
      "time": 95.326,
      "duration": 0.217,
      "velocity": 0.49,
      "hand": "left"
    },
    {
      "midi": 83,
      "time": 95.326,
      "duration": 0.652,
      "velocity": 0.71,
      "hand": "right"
    },
    {
      "midi": 90,
      "time": 95.326,
      "duration": 0.109,
      "velocity": 0.8,
      "hand": "right"
    },
    {
      "midi": 45,
      "time": 95.543,
      "duration": 0.109,
      "velocity": 0.49,
      "hand": "left"
    },
    {
      "midi": 86,
      "time": 95.543,
      "duration": 0.109,
      "velocity": 0.8,
      "hand": "right"
    },
    {
      "midi": 43,
      "time": 95.761,
      "duration": 0.109,
      "velocity": 0.49,
      "hand": "left"
    },
    {
      "midi": 90,
      "time": 95.761,
      "duration": 0.109,
      "velocity": 0.8,
      "hand": "right"
    },
    {
      "midi": 42,
      "time": 95.978,
      "duration": 0.109,
      "velocity": 0.49,
      "hand": "left"
    },
    {
      "midi": 95,
      "time": 95.978,
      "duration": 0.109,
      "velocity": 0.8,
      "hand": "right"
    },
    {
      "midi": 35,
      "time": 96.087,
      "duration": 0.217,
      "velocity": 0.49,
      "hand": "left"
    },
    {
      "midi": 47,
      "time": 96.087,
      "duration": 0.217,
      "velocity": 0.49,
      "hand": "left"
    },
    {
      "midi": 81,
      "time": 96.087,
      "duration": 0.652,
      "velocity": 0.71,
      "hand": "right"
    },
    {
      "midi": 86,
      "time": 96.087,
      "duration": 0.435,
      "velocity": 0.71,
      "hand": "right"
    },
    {
      "midi": 93,
      "time": 96.087,
      "duration": 0.109,
      "velocity": 0.8,
      "hand": "right"
    },
    {
      "midi": 45,
      "time": 96.304,
      "duration": 0.109,
      "velocity": 0.49,
      "hand": "left"
    },
    {
      "midi": 90,
      "time": 96.304,
      "duration": 0.109,
      "velocity": 0.8,
      "hand": "right"
    },
    {
      "midi": 43,
      "time": 96.522,
      "duration": 0.109,
      "velocity": 0.49,
      "hand": "left"
    },
    {
      "midi": 86,
      "time": 96.522,
      "duration": 0.326,
      "velocity": 0.8,
      "hand": "right"
    },
    {
      "midi": 42,
      "time": 96.739,
      "duration": 0.109,
      "velocity": 0.49,
      "hand": "left"
    },
    {
      "midi": 90,
      "time": 96.739,
      "duration": 0.109,
      "velocity": 0.8,
      "hand": "right"
    },
    {
      "midi": 35,
      "time": 96.957,
      "duration": 0.217,
      "velocity": 0.49,
      "hand": "left"
    },
    {
      "midi": 47,
      "time": 96.957,
      "duration": 0.217,
      "velocity": 0.49,
      "hand": "left"
    },
    {
      "midi": 81,
      "time": 96.957,
      "duration": 0.652,
      "velocity": 0.71,
      "hand": "right"
    },
    {
      "midi": 86,
      "time": 96.957,
      "duration": 0.652,
      "velocity": 0.71,
      "hand": "right"
    },
    {
      "midi": 93,
      "time": 96.957,
      "duration": 0.652,
      "velocity": 0.8,
      "hand": "right"
    },
    {
      "midi": 45,
      "time": 97.065,
      "duration": 0.109,
      "velocity": 0.49,
      "hand": "left"
    },
    {
      "midi": 43,
      "time": 97.283,
      "duration": 0.109,
      "velocity": 0.49,
      "hand": "left"
    },
    {
      "midi": 42,
      "time": 97.5,
      "duration": 0.109,
      "velocity": 0.49,
      "hand": "left"
    },
    {
      "midi": 42,
      "time": 97.717,
      "duration": 0.217,
      "velocity": 0.49,
      "hand": "left"
    },
    {
      "midi": 54,
      "time": 97.717,
      "duration": 0.217,
      "velocity": 0.49,
      "hand": "left"
    },
    {
      "midi": 90,
      "time": 97.717,
      "duration": 0.652,
      "velocity": 0.8,
      "hand": "right"
    },
    {
      "midi": 52,
      "time": 97.826,
      "duration": 0.109,
      "velocity": 0.49,
      "hand": "left"
    },
    {
      "midi": 92,
      "time": 97.826,
      "duration": 0.109,
      "velocity": 0.8,
      "hand": "right"
    },
    {
      "midi": 50,
      "time": 98.043,
      "duration": 0.109,
      "velocity": 0.49,
      "hand": "left"
    },
    {
      "midi": 94,
      "time": 98.043,
      "duration": 0.109,
      "velocity": 0.8,
      "hand": "right"
    },
    {
      "midi": 49,
      "time": 98.261,
      "duration": 0.109,
      "velocity": 0.49,
      "hand": "left"
    },
    {
      "midi": 95,
      "time": 98.261,
      "duration": 0.109,
      "velocity": 0.8,
      "hand": "right"
    },
    {
      "midi": 42,
      "time": 98.478,
      "duration": 0.217,
      "velocity": 0.49,
      "hand": "left"
    },
    {
      "midi": 54,
      "time": 98.478,
      "duration": 0.217,
      "velocity": 0.49,
      "hand": "left"
    },
    {
      "midi": 85,
      "time": 98.478,
      "duration": 0.326,
      "velocity": 0.71,
      "hand": "right"
    },
    {
      "midi": 90,
      "time": 98.478,
      "duration": 0.326,
      "velocity": 0.71,
      "hand": "right"
    },
    {
      "midi": 97,
      "time": 98.478,
      "duration": 0.217,
      "velocity": 0.8,
      "hand": "right"
    },
    {
      "midi": 52,
      "time": 98.696,
      "duration": 0.109,
      "velocity": 0.49,
      "hand": "left"
    },
    {
      "midi": 94,
      "time": 98.696,
      "duration": 0.109,
      "velocity": 0.8,
      "hand": "right"
    },
    {
      "midi": 50,
      "time": 98.804,
      "duration": 0.109,
      "velocity": 0.49,
      "hand": "left"
    },
    {
      "midi": 85,
      "time": 98.804,
      "duration": 0.326,
      "velocity": 0.71,
      "hand": "right"
    },
    {
      "midi": 90,
      "time": 98.804,
      "duration": 0.326,
      "velocity": 0.71,
      "hand": "right"
    },
    {
      "midi": 97,
      "time": 98.804,
      "duration": 0.326,
      "velocity": 0.8,
      "hand": "right"
    },
    {
      "midi": 49,
      "time": 99.022,
      "duration": 0.109,
      "velocity": 0.49,
      "hand": "left"
    },
    {
      "midi": 38,
      "time": 99.239,
      "duration": 0.217,
      "velocity": 0.49,
      "hand": "left"
    },
    {
      "midi": 50,
      "time": 99.239,
      "duration": 0.217,
      "velocity": 0.49,
      "hand": "left"
    },
    {
      "midi": 86,
      "time": 99.239,
      "duration": 0.217,
      "velocity": 0.49,
      "hand": "right"
    },
    {
      "midi": 90,
      "time": 99.239,
      "duration": 0.217,
      "velocity": 0.49,
      "hand": "right"
    },
    {
      "midi": 98,
      "time": 99.239,
      "duration": 0.217,
      "velocity": 0.49,
      "hand": "right"
    },
    {
      "midi": 49,
      "time": 99.457,
      "duration": 0.109,
      "velocity": 0.49,
      "hand": "left"
    },
    {
      "midi": 94,
      "time": 99.457,
      "duration": 0.109,
      "velocity": 0.49,
      "hand": "right"
    },
    {
      "midi": 50,
      "time": 99.674,
      "duration": 0.109,
      "velocity": 0.49,
      "hand": "left"
    },
    {
      "midi": 86,
      "time": 99.674,
      "duration": 0.326,
      "velocity": 0.49,
      "hand": "right"
    },
    {
      "midi": 90,
      "time": 99.674,
      "duration": 0.326,
      "velocity": 0.49,
      "hand": "right"
    },
    {
      "midi": 98,
      "time": 99.674,
      "duration": 0.326,
      "velocity": 0.49,
      "hand": "right"
    },
    {
      "midi": 52,
      "time": 99.783,
      "duration": 0.109,
      "velocity": 0.49,
      "hand": "left"
    },
    {
      "midi": 42,
      "time": 100,
      "duration": 0.217,
      "velocity": 0.49,
      "hand": "left"
    },
    {
      "midi": 54,
      "time": 100,
      "duration": 0.217,
      "velocity": 0.49,
      "hand": "left"
    },
    {
      "midi": 85,
      "time": 100,
      "duration": 0.217,
      "velocity": 0.49,
      "hand": "right"
    },
    {
      "midi": 90,
      "time": 100,
      "duration": 0.217,
      "velocity": 0.49,
      "hand": "right"
    },
    {
      "midi": 97,
      "time": 100,
      "duration": 0.217,
      "velocity": 0.49,
      "hand": "right"
    },
    {
      "midi": 52,
      "time": 100.217,
      "duration": 0.109,
      "velocity": 0.49,
      "hand": "left"
    },
    {
      "midi": 94,
      "time": 100.217,
      "duration": 0.109,
      "velocity": 0.49,
      "hand": "right"
    },
    {
      "midi": 50,
      "time": 100.435,
      "duration": 0.109,
      "velocity": 0.49,
      "hand": "left"
    },
    {
      "midi": 85,
      "time": 100.435,
      "duration": 0.326,
      "velocity": 0.49,
      "hand": "right"
    },
    {
      "midi": 90,
      "time": 100.435,
      "duration": 0.326,
      "velocity": 0.49,
      "hand": "right"
    },
    {
      "midi": 97,
      "time": 100.435,
      "duration": 0.326,
      "velocity": 0.49,
      "hand": "right"
    },
    {
      "midi": 49,
      "time": 100.652,
      "duration": 0.109,
      "velocity": 0.49,
      "hand": "left"
    },
    {
      "midi": 42,
      "time": 100.761,
      "duration": 0.217,
      "velocity": 0.49,
      "hand": "left"
    },
    {
      "midi": 54,
      "time": 100.761,
      "duration": 0.217,
      "velocity": 0.49,
      "hand": "left"
    },
    {
      "midi": 90,
      "time": 100.761,
      "duration": 0.109,
      "velocity": 0.49,
      "hand": "right"
    },
    {
      "midi": 52,
      "time": 100.978,
      "duration": 0.109,
      "velocity": 0.49,
      "hand": "left"
    },
    {
      "midi": 90,
      "time": 100.978,
      "duration": 0.109,
      "velocity": 0.49,
      "hand": "right"
    },
    {
      "midi": 91,
      "time": 100.978,
      "duration": 0.109,
      "velocity": 0.49,
      "hand": "right"
    },
    {
      "midi": 50,
      "time": 101.196,
      "duration": 0.109,
      "velocity": 0.49,
      "hand": "left"
    },
    {
      "midi": 90,
      "time": 101.196,
      "duration": 0.109,
      "velocity": 0.49,
      "hand": "right"
    },
    {
      "midi": 94,
      "time": 101.196,
      "duration": 0.109,
      "velocity": 0.49,
      "hand": "right"
    },
    {
      "midi": 49,
      "time": 101.413,
      "duration": 0.109,
      "velocity": 0.49,
      "hand": "left"
    },
    {
      "midi": 90,
      "time": 101.413,
      "duration": 0.109,
      "velocity": 0.49,
      "hand": "right"
    },
    {
      "midi": 95,
      "time": 101.413,
      "duration": 0.109,
      "velocity": 0.49,
      "hand": "right"
    },
    {
      "midi": 42,
      "time": 101.63,
      "duration": 0.217,
      "velocity": 0.49,
      "hand": "left"
    },
    {
      "midi": 54,
      "time": 101.63,
      "duration": 0.217,
      "velocity": 0.49,
      "hand": "left"
    },
    {
      "midi": 85,
      "time": 101.63,
      "duration": 0.217,
      "velocity": 0.49,
      "hand": "right"
    },
    {
      "midi": 90,
      "time": 101.63,
      "duration": 0.217,
      "velocity": 0.49,
      "hand": "right"
    },
    {
      "midi": 97,
      "time": 101.63,
      "duration": 0.217,
      "velocity": 0.49,
      "hand": "right"
    },
    {
      "midi": 52,
      "time": 101.739,
      "duration": 0.109,
      "velocity": 0.49,
      "hand": "left"
    },
    {
      "midi": 85,
      "time": 101.739,
      "duration": 0.109,
      "velocity": 0.49,
      "hand": "right"
    },
    {
      "midi": 90,
      "time": 101.739,
      "duration": 0.109,
      "velocity": 0.49,
      "hand": "right"
    },
    {
      "midi": 94,
      "time": 101.739,
      "duration": 0.109,
      "velocity": 0.49,
      "hand": "right"
    },
    {
      "midi": 50,
      "time": 101.957,
      "duration": 0.109,
      "velocity": 0.49,
      "hand": "left"
    },
    {
      "midi": 85,
      "time": 101.957,
      "duration": 0.326,
      "velocity": 0.49,
      "hand": "right"
    },
    {
      "midi": 90,
      "time": 101.957,
      "duration": 0.326,
      "velocity": 0.49,
      "hand": "right"
    },
    {
      "midi": 97,
      "time": 101.957,
      "duration": 0.326,
      "velocity": 0.49,
      "hand": "right"
    },
    {
      "midi": 49,
      "time": 102.174,
      "duration": 0.109,
      "velocity": 0.49,
      "hand": "left"
    },
    {
      "midi": 38,
      "time": 102.391,
      "duration": 0.217,
      "velocity": 0.49,
      "hand": "left"
    },
    {
      "midi": 50,
      "time": 102.391,
      "duration": 0.217,
      "velocity": 0.49,
      "hand": "left"
    },
    {
      "midi": 86,
      "time": 102.391,
      "duration": 0.217,
      "velocity": 0.49,
      "hand": "right"
    },
    {
      "midi": 90,
      "time": 102.391,
      "duration": 0.217,
      "velocity": 0.49,
      "hand": "right"
    },
    {
      "midi": 98,
      "time": 102.391,
      "duration": 0.217,
      "velocity": 0.49,
      "hand": "right"
    },
    {
      "midi": 49,
      "time": 102.609,
      "duration": 0.109,
      "velocity": 0.49,
      "hand": "left"
    },
    {
      "midi": 86,
      "time": 102.609,
      "duration": 0.109,
      "velocity": 0.49,
      "hand": "right"
    },
    {
      "midi": 90,
      "time": 102.609,
      "duration": 0.109,
      "velocity": 0.49,
      "hand": "right"
    },
    {
      "midi": 94,
      "time": 102.609,
      "duration": 0.109,
      "velocity": 0.49,
      "hand": "right"
    },
    {
      "midi": 50,
      "time": 102.717,
      "duration": 0.109,
      "velocity": 0.49,
      "hand": "left"
    },
    {
      "midi": 86,
      "time": 102.717,
      "duration": 0.326,
      "velocity": 0.49,
      "hand": "right"
    },
    {
      "midi": 90,
      "time": 102.717,
      "duration": 0.326,
      "velocity": 0.49,
      "hand": "right"
    },
    {
      "midi": 98,
      "time": 102.717,
      "duration": 0.326,
      "velocity": 0.49,
      "hand": "right"
    },
    {
      "midi": 52,
      "time": 102.935,
      "duration": 0.109,
      "velocity": 0.49,
      "hand": "left"
    },
    {
      "midi": 42,
      "time": 103.152,
      "duration": 0.217,
      "velocity": 0.49,
      "hand": "left"
    },
    {
      "midi": 54,
      "time": 103.152,
      "duration": 0.217,
      "velocity": 0.49,
      "hand": "left"
    },
    {
      "midi": 85,
      "time": 103.152,
      "duration": 0.652,
      "velocity": 0.49,
      "hand": "right"
    },
    {
      "midi": 90,
      "time": 103.152,
      "duration": 0.652,
      "velocity": 0.49,
      "hand": "right"
    },
    {
      "midi": 97,
      "time": 103.152,
      "duration": 0.652,
      "velocity": 0.49,
      "hand": "right"
    },
    {
      "midi": 52,
      "time": 103.37,
      "duration": 0.109,
      "velocity": 0.49,
      "hand": "left"
    },
    {
      "midi": 50,
      "time": 103.478,
      "duration": 0.109,
      "velocity": 0.49,
      "hand": "left"
    },
    {
      "midi": 49,
      "time": 103.696,
      "duration": 0.109,
      "velocity": 0.49,
      "hand": "left"
    },
    {
      "midi": 42,
      "time": 103.913,
      "duration": 0.217,
      "velocity": 0.49,
      "hand": "left"
    },
    {
      "midi": 54,
      "time": 103.913,
      "duration": 0.217,
      "velocity": 0.49,
      "hand": "left"
    },
    {
      "midi": 90,
      "time": 103.913,
      "duration": 0.652,
      "velocity": 0.71,
      "hand": "right"
    },
    {
      "midi": 53,
      "time": 104.13,
      "duration": 0.109,
      "velocity": 0.49,
      "hand": "left"
    },
    {
      "midi": 92,
      "time": 104.13,
      "duration": 0.109,
      "velocity": 0.8,
      "hand": "right"
    },
    {
      "midi": 51,
      "time": 104.348,
      "duration": 0.109,
      "velocity": 0.49,
      "hand": "left"
    },
    {
      "midi": 94,
      "time": 104.348,
      "duration": 0.109,
      "velocity": 0.8,
      "hand": "right"
    },
    {
      "midi": 49,
      "time": 104.457,
      "duration": 0.109,
      "velocity": 0.49,
      "hand": "left"
    },
    {
      "midi": 95,
      "time": 104.457,
      "duration": 0.109,
      "velocity": 0.8,
      "hand": "right"
    },
    {
      "midi": 42,
      "time": 104.674,
      "duration": 0.217,
      "velocity": 0.49,
      "hand": "left"
    },
    {
      "midi": 54,
      "time": 104.674,
      "duration": 0.217,
      "velocity": 0.49,
      "hand": "left"
    },
    {
      "midi": 85,
      "time": 104.674,
      "duration": 0.326,
      "velocity": 0.71,
      "hand": "right"
    },
    {
      "midi": 90,
      "time": 104.674,
      "duration": 0.326,
      "velocity": 0.71,
      "hand": "right"
    },
    {
      "midi": 97,
      "time": 104.674,
      "duration": 0.217,
      "velocity": 0.8,
      "hand": "right"
    },
    {
      "midi": 53,
      "time": 104.891,
      "duration": 0.109,
      "velocity": 0.49,
      "hand": "left"
    },
    {
      "midi": 94,
      "time": 104.891,
      "duration": 0.109,
      "velocity": 0.8,
      "hand": "right"
    },
    {
      "midi": 51,
      "time": 105.109,
      "duration": 0.109,
      "velocity": 0.49,
      "hand": "left"
    },
    {
      "midi": 85,
      "time": 105.109,
      "duration": 0.326,
      "velocity": 0.71,
      "hand": "right"
    },
    {
      "midi": 90,
      "time": 105.109,
      "duration": 0.326,
      "velocity": 0.71,
      "hand": "right"
    },
    {
      "midi": 97,
      "time": 105.109,
      "duration": 0.326,
      "velocity": 0.8,
      "hand": "right"
    },
    {
      "midi": 49,
      "time": 105.326,
      "duration": 0.109,
      "velocity": 0.49,
      "hand": "left"
    },
    {
      "midi": 39,
      "time": 105.435,
      "duration": 0.217,
      "velocity": 0.49,
      "hand": "left"
    },
    {
      "midi": 51,
      "time": 105.435,
      "duration": 0.217,
      "velocity": 0.49,
      "hand": "left"
    },
    {
      "midi": 87,
      "time": 105.435,
      "duration": 0.217,
      "velocity": 0.49,
      "hand": "right"
    },
    {
      "midi": 90,
      "time": 105.435,
      "duration": 0.217,
      "velocity": 0.49,
      "hand": "right"
    },
    {
      "midi": 99,
      "time": 105.435,
      "duration": 0.217,
      "velocity": 0.49,
      "hand": "right"
    },
    {
      "midi": 49,
      "time": 105.652,
      "duration": 0.109,
      "velocity": 0.49,
      "hand": "left"
    },
    {
      "midi": 94,
      "time": 105.652,
      "duration": 0.109,
      "velocity": 0.49,
      "hand": "right"
    },
    {
      "midi": 51,
      "time": 105.87,
      "duration": 0.109,
      "velocity": 0.49,
      "hand": "left"
    },
    {
      "midi": 87,
      "time": 105.87,
      "duration": 0.326,
      "velocity": 0.49,
      "hand": "right"
    },
    {
      "midi": 90,
      "time": 105.87,
      "duration": 0.326,
      "velocity": 0.49,
      "hand": "right"
    },
    {
      "midi": 99,
      "time": 105.87,
      "duration": 0.326,
      "velocity": 0.49,
      "hand": "right"
    },
    {
      "midi": 53,
      "time": 106.087,
      "duration": 0.109,
      "velocity": 0.49,
      "hand": "left"
    },
    {
      "midi": 42,
      "time": 106.304,
      "duration": 0.217,
      "velocity": 0.49,
      "hand": "left"
    },
    {
      "midi": 54,
      "time": 106.304,
      "duration": 0.217,
      "velocity": 0.49,
      "hand": "left"
    },
    {
      "midi": 85,
      "time": 106.304,
      "duration": 0.217,
      "velocity": 0.49,
      "hand": "right"
    },
    {
      "midi": 90,
      "time": 106.304,
      "duration": 0.217,
      "velocity": 0.49,
      "hand": "right"
    },
    {
      "midi": 97,
      "time": 106.304,
      "duration": 0.217,
      "velocity": 0.49,
      "hand": "right"
    },
    {
      "midi": 53,
      "time": 106.413,
      "duration": 0.109,
      "velocity": 0.49,
      "hand": "left"
    },
    {
      "midi": 94,
      "time": 106.413,
      "duration": 0.109,
      "velocity": 0.49,
      "hand": "right"
    },
    {
      "midi": 51,
      "time": 106.63,
      "duration": 0.109,
      "velocity": 0.49,
      "hand": "left"
    },
    {
      "midi": 85,
      "time": 106.63,
      "duration": 0.326,
      "velocity": 0.49,
      "hand": "right"
    },
    {
      "midi": 90,
      "time": 106.63,
      "duration": 0.326,
      "velocity": 0.49,
      "hand": "right"
    },
    {
      "midi": 97,
      "time": 106.63,
      "duration": 0.326,
      "velocity": 0.49,
      "hand": "right"
    },
    {
      "midi": 49,
      "time": 106.848,
      "duration": 0.109,
      "velocity": 0.49,
      "hand": "left"
    },
    {
      "midi": 42,
      "time": 107.065,
      "duration": 0.217,
      "velocity": 0.49,
      "hand": "left"
    },
    {
      "midi": 54,
      "time": 107.065,
      "duration": 0.217,
      "velocity": 0.49,
      "hand": "left"
    },
    {
      "midi": 90,
      "time": 107.065,
      "duration": 0.109,
      "velocity": 0.49,
      "hand": "right"
    },
    {
      "midi": 53,
      "time": 107.283,
      "duration": 0.109,
      "velocity": 0.49,
      "hand": "left"
    },
    {
      "midi": 90,
      "time": 107.283,
      "duration": 0.109,
      "velocity": 0.49,
      "hand": "right"
    },
    {
      "midi": 91,
      "time": 107.283,
      "duration": 0.109,
      "velocity": 0.49,
      "hand": "right"
    },
    {
      "midi": 51,
      "time": 107.391,
      "duration": 0.109,
      "velocity": 0.49,
      "hand": "left"
    },
    {
      "midi": 90,
      "time": 107.391,
      "duration": 0.109,
      "velocity": 0.49,
      "hand": "right"
    },
    {
      "midi": 94,
      "time": 107.391,
      "duration": 0.109,
      "velocity": 0.49,
      "hand": "right"
    },
    {
      "midi": 49,
      "time": 107.609,
      "duration": 0.109,
      "velocity": 0.49,
      "hand": "left"
    },
    {
      "midi": 90,
      "time": 107.609,
      "duration": 0.109,
      "velocity": 0.49,
      "hand": "right"
    },
    {
      "midi": 95,
      "time": 107.609,
      "duration": 0.109,
      "velocity": 0.49,
      "hand": "right"
    },
    {
      "midi": 42,
      "time": 107.826,
      "duration": 0.217,
      "velocity": 0.49,
      "hand": "left"
    },
    {
      "midi": 54,
      "time": 107.826,
      "duration": 0.217,
      "velocity": 0.49,
      "hand": "left"
    },
    {
      "midi": 85,
      "time": 107.826,
      "duration": 0.217,
      "velocity": 0.49,
      "hand": "right"
    },
    {
      "midi": 90,
      "time": 107.826,
      "duration": 0.217,
      "velocity": 0.49,
      "hand": "right"
    },
    {
      "midi": 97,
      "time": 107.826,
      "duration": 0.217,
      "velocity": 0.49,
      "hand": "right"
    },
    {
      "midi": 53,
      "time": 108.043,
      "duration": 0.109,
      "velocity": 0.49,
      "hand": "left"
    },
    {
      "midi": 85,
      "time": 108.043,
      "duration": 0.109,
      "velocity": 0.49,
      "hand": "right"
    },
    {
      "midi": 90,
      "time": 108.043,
      "duration": 0.109,
      "velocity": 0.49,
      "hand": "right"
    },
    {
      "midi": 94,
      "time": 108.043,
      "duration": 0.109,
      "velocity": 0.49,
      "hand": "right"
    },
    {
      "midi": 51,
      "time": 108.152,
      "duration": 0.109,
      "velocity": 0.49,
      "hand": "left"
    },
    {
      "midi": 85,
      "time": 108.152,
      "duration": 0.326,
      "velocity": 0.49,
      "hand": "right"
    },
    {
      "midi": 90,
      "time": 108.152,
      "duration": 0.326,
      "velocity": 0.49,
      "hand": "right"
    },
    {
      "midi": 97,
      "time": 108.152,
      "duration": 0.326,
      "velocity": 0.49,
      "hand": "right"
    },
    {
      "midi": 49,
      "time": 108.37,
      "duration": 0.109,
      "velocity": 0.49,
      "hand": "left"
    },
    {
      "midi": 39,
      "time": 108.587,
      "duration": 0.217,
      "velocity": 0.49,
      "hand": "left"
    },
    {
      "midi": 51,
      "time": 108.587,
      "duration": 0.217,
      "velocity": 0.49,
      "hand": "left"
    },
    {
      "midi": 86,
      "time": 108.587,
      "duration": 0.217,
      "velocity": 0.49,
      "hand": "right"
    },
    {
      "midi": 90,
      "time": 108.587,
      "duration": 0.217,
      "velocity": 0.49,
      "hand": "right"
    },
    {
      "midi": 98,
      "time": 108.587,
      "duration": 0.217,
      "velocity": 0.49,
      "hand": "right"
    },
    {
      "midi": 49,
      "time": 108.804,
      "duration": 0.109,
      "velocity": 0.49,
      "hand": "left"
    },
    {
      "midi": 86,
      "time": 108.804,
      "duration": 0.109,
      "velocity": 0.49,
      "hand": "right"
    },
    {
      "midi": 90,
      "time": 108.804,
      "duration": 0.109,
      "velocity": 0.49,
      "hand": "right"
    },
    {
      "midi": 94,
      "time": 108.804,
      "duration": 0.109,
      "velocity": 0.49,
      "hand": "right"
    },
    {
      "midi": 51,
      "time": 109.022,
      "duration": 0.109,
      "velocity": 0.49,
      "hand": "left"
    },
    {
      "midi": 86,
      "time": 109.022,
      "duration": 0.326,
      "velocity": 0.49,
      "hand": "right"
    },
    {
      "midi": 90,
      "time": 109.022,
      "duration": 0.326,
      "velocity": 0.49,
      "hand": "right"
    },
    {
      "midi": 98,
      "time": 109.022,
      "duration": 0.326,
      "velocity": 0.49,
      "hand": "right"
    },
    {
      "midi": 53,
      "time": 109.13,
      "duration": 0.109,
      "velocity": 0.49,
      "hand": "left"
    },
    {
      "midi": 42,
      "time": 109.348,
      "duration": 0.217,
      "velocity": 0.49,
      "hand": "left"
    },
    {
      "midi": 54,
      "time": 109.348,
      "duration": 0.217,
      "velocity": 0.49,
      "hand": "left"
    },
    {
      "midi": 85,
      "time": 109.348,
      "duration": 0.652,
      "velocity": 0.49,
      "hand": "right"
    },
    {
      "midi": 90,
      "time": 109.348,
      "duration": 0.652,
      "velocity": 0.49,
      "hand": "right"
    },
    {
      "midi": 97,
      "time": 109.348,
      "duration": 0.652,
      "velocity": 0.49,
      "hand": "right"
    },
    {
      "midi": 53,
      "time": 109.565,
      "duration": 0.109,
      "velocity": 0.49,
      "hand": "left"
    },
    {
      "midi": 51,
      "time": 109.783,
      "duration": 0.109,
      "velocity": 0.49,
      "hand": "left"
    },
    {
      "midi": 49,
      "time": 110,
      "duration": 0.109,
      "velocity": 0.49,
      "hand": "left"
    },
    {
      "midi": 35,
      "time": 110.109,
      "duration": 0.217,
      "velocity": 0.49,
      "hand": "left"
    },
    {
      "midi": 47,
      "time": 110.109,
      "duration": 0.217,
      "velocity": 0.49,
      "hand": "left"
    },
    {
      "midi": 83,
      "time": 110.109,
      "duration": 0.652,
      "velocity": 0.8,
      "hand": "right"
    },
    {
      "midi": 45,
      "time": 110.326,
      "duration": 0.109,
      "velocity": 0.49,
      "hand": "left"
    },
    {
      "midi": 85,
      "time": 110.326,
      "duration": 0.109,
      "velocity": 0.8,
      "hand": "right"
    },
    {
      "midi": 43,
      "time": 110.543,
      "duration": 0.109,
      "velocity": 0.49,
      "hand": "left"
    },
    {
      "midi": 86,
      "time": 110.543,
      "duration": 0.109,
      "velocity": 0.8,
      "hand": "right"
    },
    {
      "midi": 42,
      "time": 110.761,
      "duration": 0.109,
      "velocity": 0.49,
      "hand": "left"
    },
    {
      "midi": 88,
      "time": 110.761,
      "duration": 0.109,
      "velocity": 0.8,
      "hand": "right"
    },
    {
      "midi": 35,
      "time": 110.978,
      "duration": 0.217,
      "velocity": 0.49,
      "hand": "left"
    },
    {
      "midi": 47,
      "time": 110.978,
      "duration": 0.217,
      "velocity": 0.49,
      "hand": "left"
    },
    {
      "midi": 83,
      "time": 110.978,
      "duration": 0.652,
      "velocity": 0.71,
      "hand": "right"
    },
    {
      "midi": 90,
      "time": 110.978,
      "duration": 0.217,
      "velocity": 0.8,
      "hand": "right"
    },
    {
      "midi": 45,
      "time": 111.087,
      "duration": 0.109,
      "velocity": 0.49,
      "hand": "left"
    },
    {
      "midi": 86,
      "time": 111.087,
      "duration": 0.109,
      "velocity": 0.8,
      "hand": "right"
    },
    {
      "midi": 43,
      "time": 111.304,
      "duration": 0.109,
      "velocity": 0.49,
      "hand": "left"
    },
    {
      "midi": 90,
      "time": 111.304,
      "duration": 0.326,
      "velocity": 0.8,
      "hand": "right"
    },
    {
      "midi": 42,
      "time": 111.522,
      "duration": 0.109,
      "velocity": 0.49,
      "hand": "left"
    },
    {
      "midi": 35,
      "time": 111.739,
      "duration": 0.217,
      "velocity": 0.49,
      "hand": "left"
    },
    {
      "midi": 47,
      "time": 111.739,
      "duration": 0.217,
      "velocity": 0.49,
      "hand": "left"
    },
    {
      "midi": 83,
      "time": 111.739,
      "duration": 0.652,
      "velocity": 0.71,
      "hand": "right"
    },
    {
      "midi": 89,
      "time": 111.739,
      "duration": 0.217,
      "velocity": 0.8,
      "hand": "right"
    },
    {
      "midi": 45,
      "time": 111.957,
      "duration": 0.109,
      "velocity": 0.49,
      "hand": "left"
    },
    {
      "midi": 85,
      "time": 111.957,
      "duration": 0.109,
      "velocity": 0.8,
      "hand": "right"
    },
    {
      "midi": 43,
      "time": 112.065,
      "duration": 0.109,
      "velocity": 0.49,
      "hand": "left"
    },
    {
      "midi": 89,
      "time": 112.065,
      "duration": 0.217,
      "velocity": 0.8,
      "hand": "right"
    },
    {
      "midi": 42,
      "time": 112.283,
      "duration": 0.109,
      "velocity": 0.49,
      "hand": "left"
    },
    {
      "midi": 35,
      "time": 112.5,
      "duration": 0.217,
      "velocity": 0.49,
      "hand": "left"
    },
    {
      "midi": 47,
      "time": 112.5,
      "duration": 0.217,
      "velocity": 0.49,
      "hand": "left"
    },
    {
      "midi": 83,
      "time": 112.5,
      "duration": 0.652,
      "velocity": 0.71,
      "hand": "right"
    },
    {
      "midi": 88,
      "time": 112.5,
      "duration": 0.217,
      "velocity": 0.8,
      "hand": "right"
    },
    {
      "midi": 45,
      "time": 112.717,
      "duration": 0.109,
      "velocity": 0.49,
      "hand": "left"
    },
    {
      "midi": 84,
      "time": 112.717,
      "duration": 0.109,
      "velocity": 0.8,
      "hand": "right"
    },
    {
      "midi": 43,
      "time": 112.826,
      "duration": 0.109,
      "velocity": 0.49,
      "hand": "left"
    },
    {
      "midi": 88,
      "time": 112.826,
      "duration": 0.217,
      "velocity": 0.8,
      "hand": "right"
    },
    {
      "midi": 42,
      "time": 113.043,
      "duration": 0.109,
      "velocity": 0.49,
      "hand": "left"
    },
    {
      "midi": 35,
      "time": 113.261,
      "duration": 0.217,
      "velocity": 0.49,
      "hand": "left"
    },
    {
      "midi": 47,
      "time": 113.261,
      "duration": 0.217,
      "velocity": 0.49,
      "hand": "left"
    },
    {
      "midi": 83,
      "time": 113.261,
      "duration": 0.652,
      "velocity": 0.8,
      "hand": "right"
    },
    {
      "midi": 45,
      "time": 113.478,
      "duration": 0.109,
      "velocity": 0.49,
      "hand": "left"
    },
    {
      "midi": 85,
      "time": 113.478,
      "duration": 0.109,
      "velocity": 0.8,
      "hand": "right"
    },
    {
      "midi": 43,
      "time": 113.696,
      "duration": 0.109,
      "velocity": 0.49,
      "hand": "left"
    },
    {
      "midi": 86,
      "time": 113.696,
      "duration": 0.109,
      "velocity": 0.8,
      "hand": "right"
    },
    {
      "midi": 42,
      "time": 113.804,
      "duration": 0.109,
      "velocity": 0.49,
      "hand": "left"
    },
    {
      "midi": 88,
      "time": 113.804,
      "duration": 0.109,
      "velocity": 0.8,
      "hand": "right"
    },
    {
      "midi": 35,
      "time": 114.022,
      "duration": 0.217,
      "velocity": 0.49,
      "hand": "left"
    },
    {
      "midi": 47,
      "time": 114.022,
      "duration": 0.217,
      "velocity": 0.49,
      "hand": "left"
    },
    {
      "midi": 83,
      "time": 114.022,
      "duration": 0.217,
      "velocity": 0.71,
      "hand": "right"
    },
    {
      "midi": 90,
      "time": 114.022,
      "duration": 0.109,
      "velocity": 0.8,
      "hand": "right"
    },
    {
      "midi": 45,
      "time": 114.239,
      "duration": 0.109,
      "velocity": 0.49,
      "hand": "left"
    },
    {
      "midi": 83,
      "time": 114.239,
      "duration": 0.435,
      "velocity": 0.8,
      "hand": "right"
    },
    {
      "midi": 43,
      "time": 114.457,
      "duration": 0.109,
      "velocity": 0.49,
      "hand": "left"
    },
    {
      "midi": 90,
      "time": 114.457,
      "duration": 0.109,
      "velocity": 0.8,
      "hand": "right"
    },
    {
      "midi": 42,
      "time": 114.674,
      "duration": 0.109,
      "velocity": 0.49,
      "hand": "left"
    },
    {
      "midi": 95,
      "time": 114.674,
      "duration": 0.109,
      "velocity": 0.8,
      "hand": "right"
    },
    {
      "midi": 38,
      "time": 114.783,
      "duration": 0.217,
      "velocity": 0.49,
      "hand": "left"
    },
    {
      "midi": 50,
      "time": 114.783,
      "duration": 0.217,
      "velocity": 0.49,
      "hand": "left"
    },
    {
      "midi": 81,
      "time": 114.783,
      "duration": 0.652,
      "velocity": 0.71,
      "hand": "right"
    },
    {
      "midi": 86,
      "time": 114.783,
      "duration": 0.435,
      "velocity": 0.71,
      "hand": "right"
    },
    {
      "midi": 93,
      "time": 114.783,
      "duration": 0.109,
      "velocity": 0.8,
      "hand": "right"
    },
    {
      "midi": 49,
      "time": 115,
      "duration": 0.109,
      "velocity": 0.49,
      "hand": "left"
    },
    {
      "midi": 90,
      "time": 115,
      "duration": 0.109,
      "velocity": 0.8,
      "hand": "right"
    },
    {
      "midi": 45,
      "time": 115.217,
      "duration": 0.109,
      "velocity": 0.49,
      "hand": "left"
    },
    {
      "midi": 86,
      "time": 115.217,
      "duration": 0.326,
      "velocity": 0.8,
      "hand": "right"
    },
    {
      "midi": 43,
      "time": 115.435,
      "duration": 0.109,
      "velocity": 0.49,
      "hand": "left"
    },
    {
      "midi": 90,
      "time": 115.435,
      "duration": 0.109,
      "velocity": 0.8,
      "hand": "right"
    },
    {
      "midi": 38,
      "time": 115.652,
      "duration": 0.217,
      "velocity": 0.49,
      "hand": "left"
    },
    {
      "midi": 50,
      "time": 115.652,
      "duration": 0.217,
      "velocity": 0.49,
      "hand": "left"
    },
    {
      "midi": 81,
      "time": 115.652,
      "duration": 0.652,
      "velocity": 0.71,
      "hand": "right"
    },
    {
      "midi": 86,
      "time": 115.652,
      "duration": 0.652,
      "velocity": 0.71,
      "hand": "right"
    },
    {
      "midi": 93,
      "time": 115.652,
      "duration": 0.652,
      "velocity": 0.8,
      "hand": "right"
    },
    {
      "midi": 49,
      "time": 115.761,
      "duration": 0.109,
      "velocity": 0.49,
      "hand": "left"
    },
    {
      "midi": 45,
      "time": 115.978,
      "duration": 0.109,
      "velocity": 0.49,
      "hand": "left"
    },
    {
      "midi": 43,
      "time": 116.196,
      "duration": 0.109,
      "velocity": 0.49,
      "hand": "left"
    },
    {
      "midi": 35,
      "time": 116.413,
      "duration": 0.217,
      "velocity": 0.49,
      "hand": "left"
    },
    {
      "midi": 47,
      "time": 116.413,
      "duration": 0.217,
      "velocity": 0.49,
      "hand": "left"
    },
    {
      "midi": 83,
      "time": 116.413,
      "duration": 0.109,
      "velocity": 0.49,
      "hand": "right"
    },
    {
      "midi": 45,
      "time": 116.63,
      "duration": 0.109,
      "velocity": 0.49,
      "hand": "left"
    },
    {
      "midi": 83,
      "time": 116.63,
      "duration": 0.109,
      "velocity": 0.49,
      "hand": "right"
    },
    {
      "midi": 85,
      "time": 116.63,
      "duration": 0.109,
      "velocity": 0.49,
      "hand": "right"
    },
    {
      "midi": 43,
      "time": 116.739,
      "duration": 0.109,
      "velocity": 0.49,
      "hand": "left"
    },
    {
      "midi": 83,
      "time": 116.739,
      "duration": 0.109,
      "velocity": 0.49,
      "hand": "right"
    },
    {
      "midi": 86,
      "time": 116.739,
      "duration": 0.109,
      "velocity": 0.49,
      "hand": "right"
    },
    {
      "midi": 42,
      "time": 116.957,
      "duration": 0.109,
      "velocity": 0.49,
      "hand": "left"
    },
    {
      "midi": 83,
      "time": 116.957,
      "duration": 0.109,
      "velocity": 0.49,
      "hand": "right"
    },
    {
      "midi": 88,
      "time": 116.957,
      "duration": 0.109,
      "velocity": 0.49,
      "hand": "right"
    },
    {
      "midi": 35,
      "time": 117.174,
      "duration": 0.217,
      "velocity": 0.49,
      "hand": "left"
    },
    {
      "midi": 47,
      "time": 117.174,
      "duration": 0.217,
      "velocity": 0.49,
      "hand": "left"
    },
    {
      "midi": 83,
      "time": 117.174,
      "duration": 0.217,
      "velocity": 0.49,
      "hand": "right"
    },
    {
      "midi": 90,
      "time": 117.174,
      "duration": 0.217,
      "velocity": 0.49,
      "hand": "right"
    },
    {
      "midi": 45,
      "time": 117.391,
      "duration": 0.109,
      "velocity": 0.49,
      "hand": "left"
    },
    {
      "midi": 83,
      "time": 117.391,
      "duration": 0.109,
      "velocity": 0.49,
      "hand": "right"
    },
    {
      "midi": 86,
      "time": 117.391,
      "duration": 0.109,
      "velocity": 0.49,
      "hand": "right"
    },
    {
      "midi": 43,
      "time": 117.609,
      "duration": 0.109,
      "velocity": 0.49,
      "hand": "left"
    },
    {
      "midi": 83,
      "time": 117.609,
      "duration": 0.217,
      "velocity": 0.49,
      "hand": "right"
    },
    {
      "midi": 86,
      "time": 117.609,
      "duration": 0.217,
      "velocity": 0.49,
      "hand": "right"
    },
    {
      "midi": 90,
      "time": 117.609,
      "duration": 0.217,
      "velocity": 0.49,
      "hand": "right"
    },
    {
      "midi": 42,
      "time": 117.717,
      "duration": 0.109,
      "velocity": 0.49,
      "hand": "left"
    },
    {
      "midi": 35,
      "time": 117.935,
      "duration": 0.217,
      "velocity": 0.49,
      "hand": "left"
    },
    {
      "midi": 47,
      "time": 117.935,
      "duration": 0.217,
      "velocity": 0.49,
      "hand": "left"
    },
    {
      "midi": 83,
      "time": 117.935,
      "duration": 0.217,
      "velocity": 0.49,
      "hand": "right"
    },
    {
      "midi": 89,
      "time": 117.935,
      "duration": 0.217,
      "velocity": 0.49,
      "hand": "right"
    },
    {
      "midi": 45,
      "time": 118.152,
      "duration": 0.109,
      "velocity": 0.49,
      "hand": "left"
    },
    {
      "midi": 83,
      "time": 118.152,
      "duration": 0.109,
      "velocity": 0.49,
      "hand": "right"
    },
    {
      "midi": 85,
      "time": 118.152,
      "duration": 0.109,
      "velocity": 0.49,
      "hand": "right"
    },
    {
      "midi": 43,
      "time": 118.37,
      "duration": 0.109,
      "velocity": 0.49,
      "hand": "left"
    },
    {
      "midi": 83,
      "time": 118.37,
      "duration": 0.217,
      "velocity": 0.49,
      "hand": "right"
    },
    {
      "midi": 85,
      "time": 118.37,
      "duration": 0.217,
      "velocity": 0.49,
      "hand": "right"
    },
    {
      "midi": 89,
      "time": 118.37,
      "duration": 0.217,
      "velocity": 0.49,
      "hand": "right"
    },
    {
      "midi": 42,
      "time": 118.478,
      "duration": 0.109,
      "velocity": 0.49,
      "hand": "left"
    },
    {
      "midi": 35,
      "time": 118.696,
      "duration": 0.217,
      "velocity": 0.49,
      "hand": "left"
    },
    {
      "midi": 47,
      "time": 118.696,
      "duration": 0.217,
      "velocity": 0.49,
      "hand": "left"
    },
    {
      "midi": 83,
      "time": 118.696,
      "duration": 0.217,
      "velocity": 0.49,
      "hand": "right"
    },
    {
      "midi": 88,
      "time": 118.696,
      "duration": 0.217,
      "velocity": 0.49,
      "hand": "right"
    },
    {
      "midi": 45,
      "time": 118.913,
      "duration": 0.109,
      "velocity": 0.49,
      "hand": "left"
    },
    {
      "midi": 83,
      "time": 118.913,
      "duration": 0.109,
      "velocity": 0.49,
      "hand": "right"
    },
    {
      "midi": 84,
      "time": 118.913,
      "duration": 0.109,
      "velocity": 0.49,
      "hand": "right"
    },
    {
      "midi": 43,
      "time": 119.13,
      "duration": 0.109,
      "velocity": 0.49,
      "hand": "left"
    },
    {
      "midi": 83,
      "time": 119.13,
      "duration": 0.217,
      "velocity": 0.49,
      "hand": "right"
    },
    {
      "midi": 84,
      "time": 119.13,
      "duration": 0.217,
      "velocity": 0.49,
      "hand": "right"
    },
    {
      "midi": 88,
      "time": 119.13,
      "duration": 0.217,
      "velocity": 0.49,
      "hand": "right"
    },
    {
      "midi": 42,
      "time": 119.348,
      "duration": 0.109,
      "velocity": 0.49,
      "hand": "left"
    },
    {
      "midi": 35,
      "time": 119.457,
      "duration": 0.217,
      "velocity": 0.49,
      "hand": "left"
    },
    {
      "midi": 47,
      "time": 119.457,
      "duration": 0.217,
      "velocity": 0.49,
      "hand": "left"
    },
    {
      "midi": 83,
      "time": 119.457,
      "duration": 0.109,
      "velocity": 0.49,
      "hand": "right"
    },
    {
      "midi": 45,
      "time": 119.674,
      "duration": 0.109,
      "velocity": 0.49,
      "hand": "left"
    },
    {
      "midi": 83,
      "time": 119.674,
      "duration": 0.109,
      "velocity": 0.49,
      "hand": "right"
    },
    {
      "midi": 85,
      "time": 119.674,
      "duration": 0.109,
      "velocity": 0.49,
      "hand": "right"
    },
    {
      "midi": 43,
      "time": 119.891,
      "duration": 0.109,
      "velocity": 0.49,
      "hand": "left"
    },
    {
      "midi": 83,
      "time": 119.891,
      "duration": 0.109,
      "velocity": 0.49,
      "hand": "right"
    },
    {
      "midi": 86,
      "time": 119.891,
      "duration": 0.109,
      "velocity": 0.49,
      "hand": "right"
    },
    {
      "midi": 42,
      "time": 120.109,
      "duration": 0.109,
      "velocity": 0.49,
      "hand": "left"
    },
    {
      "midi": 83,
      "time": 120.109,
      "duration": 0.109,
      "velocity": 0.49,
      "hand": "right"
    },
    {
      "midi": 88,
      "time": 120.109,
      "duration": 0.109,
      "velocity": 0.49,
      "hand": "right"
    },
    {
      "midi": 35,
      "time": 120.326,
      "duration": 0.217,
      "velocity": 0.49,
      "hand": "left"
    },
    {
      "midi": 47,
      "time": 120.326,
      "duration": 0.217,
      "velocity": 0.49,
      "hand": "left"
    },
    {
      "midi": 83,
      "time": 120.326,
      "duration": 0.109,
      "velocity": 0.49,
      "hand": "right"
    },
    {
      "midi": 90,
      "time": 120.326,
      "duration": 0.109,
      "velocity": 0.49,
      "hand": "right"
    },
    {
      "midi": 45,
      "time": 120.435,
      "duration": 0.109,
      "velocity": 0.49,
      "hand": "left"
    },
    {
      "midi": 83,
      "time": 120.435,
      "duration": 0.109,
      "velocity": 0.49,
      "hand": "right"
    },
    {
      "midi": 86,
      "time": 120.435,
      "duration": 0.109,
      "velocity": 0.49,
      "hand": "right"
    },
    {
      "midi": 43,
      "time": 120.652,
      "duration": 0.109,
      "velocity": 0.49,
      "hand": "left"
    },
    {
      "midi": 83,
      "time": 120.652,
      "duration": 0.109,
      "velocity": 0.49,
      "hand": "right"
    },
    {
      "midi": 90,
      "time": 120.652,
      "duration": 0.109,
      "velocity": 0.49,
      "hand": "right"
    },
    {
      "midi": 42,
      "time": 120.87,
      "duration": 0.109,
      "velocity": 0.49,
      "hand": "left"
    },
    {
      "midi": 83,
      "time": 120.87,
      "duration": 0.109,
      "velocity": 0.49,
      "hand": "right"
    },
    {
      "midi": 95,
      "time": 120.87,
      "duration": 0.109,
      "velocity": 0.49,
      "hand": "right"
    },
    {
      "midi": 35,
      "time": 121.087,
      "duration": 0.217,
      "velocity": 0.49,
      "hand": "left"
    },
    {
      "midi": 47,
      "time": 121.087,
      "duration": 0.217,
      "velocity": 0.49,
      "hand": "left"
    },
    {
      "midi": 83,
      "time": 121.087,
      "duration": 0.109,
      "velocity": 0.49,
      "hand": "right"
    },
    {
      "midi": 90,
      "time": 121.087,
      "duration": 0.109,
      "velocity": 0.49,
      "hand": "right"
    },
    {
      "midi": 45,
      "time": 121.304,
      "duration": 0.109,
      "velocity": 0.49,
      "hand": "left"
    },
    {
      "midi": 83,
      "time": 121.304,
      "duration": 0.109,
      "velocity": 0.49,
      "hand": "right"
    },
    {
      "midi": 86,
      "time": 121.304,
      "duration": 0.109,
      "velocity": 0.49,
      "hand": "right"
    },
    {
      "midi": 43,
      "time": 121.413,
      "duration": 0.109,
      "velocity": 0.49,
      "hand": "left"
    },
    {
      "midi": 83,
      "time": 121.413,
      "duration": 0.109,
      "velocity": 0.49,
      "hand": "right"
    },
    {
      "midi": 90,
      "time": 121.413,
      "duration": 0.109,
      "velocity": 0.49,
      "hand": "right"
    },
    {
      "midi": 42,
      "time": 121.63,
      "duration": 0.109,
      "velocity": 0.49,
      "hand": "left"
    },
    {
      "midi": 83,
      "time": 121.63,
      "duration": 0.109,
      "velocity": 0.49,
      "hand": "right"
    },
    {
      "midi": 95,
      "time": 121.63,
      "duration": 0.109,
      "velocity": 0.49,
      "hand": "right"
    },
    {
      "midi": 35,
      "time": 121.848,
      "duration": 0.217,
      "velocity": 0.49,
      "hand": "left"
    },
    {
      "midi": 47,
      "time": 121.848,
      "duration": 0.217,
      "velocity": 0.49,
      "hand": "left"
    },
    {
      "midi": 83,
      "time": 121.848,
      "duration": 0.652,
      "velocity": 0.49,
      "hand": "right"
    },
    {
      "midi": 45,
      "time": 122.065,
      "duration": 0.109,
      "velocity": 0.49,
      "hand": "left"
    },
    {
      "midi": 43,
      "time": 122.283,
      "duration": 0.109,
      "velocity": 0.49,
      "hand": "left"
    },
    {
      "midi": 42,
      "time": 122.391,
      "duration": 0.109,
      "velocity": 0.49,
      "hand": "left"
    },
    {
      "midi": 35,
      "time": 122.609,
      "duration": 0.326,
      "velocity": 0.49,
      "hand": "left"
    },
    {
      "midi": 47,
      "time": 122.609,
      "duration": 0.326,
      "velocity": 0.49,
      "hand": "left"
    },
    {
      "midi": 92,
      "time": 122.935,
      "duration": 0.054,
      "velocity": 0.49,
      "hand": "right"
    },
    {
      "midi": 93,
      "time": 122.935,
      "duration": 0.054,
      "velocity": 0.49,
      "hand": "right"
    },
    {
      "midi": 94,
      "time": 122.935,
      "duration": 0.054,
      "velocity": 0.49,
      "hand": "right"
    },
    {
      "midi": 50,
      "time": 123.043,
      "duration": 0.217,
      "velocity": 0.49,
      "hand": "left"
    },
    {
      "midi": 53,
      "time": 123.043,
      "duration": 0.217,
      "velocity": 0.49,
      "hand": "left"
    },
    {
      "midi": 56,
      "time": 123.043,
      "duration": 0.217,
      "velocity": 0.49,
      "hand": "left"
    },
    {
      "midi": 59,
      "time": 123.043,
      "duration": 0.217,
      "velocity": 0.49,
      "hand": "left"
    },
    {
      "midi": 86,
      "time": 123.043,
      "duration": 0.109,
      "velocity": 0.5,
      "hand": "right"
    },
    {
      "midi": 95,
      "time": 123.043,
      "duration": 0.109,
      "velocity": 0.5,
      "hand": "right"
    },
    {
      "midi": 35,
      "time": 124.13,
      "duration": 0.326,
      "velocity": 0.49,
      "hand": "left"
    },
    {
      "midi": 47,
      "time": 124.13,
      "duration": 0.326,
      "velocity": 0.49,
      "hand": "left"
    },
    {
      "midi": 92,
      "time": 124.457,
      "duration": 0.054,
      "velocity": 0.5,
      "hand": "right"
    },
    {
      "midi": 50,
      "time": 124.565,
      "duration": 0.217,
      "velocity": 0.49,
      "hand": "left"
    },
    {
      "midi": 53,
      "time": 124.565,
      "duration": 0.217,
      "velocity": 0.49,
      "hand": "left"
    },
    {
      "midi": 56,
      "time": 124.565,
      "duration": 0.217,
      "velocity": 0.49,
      "hand": "left"
    },
    {
      "midi": 59,
      "time": 124.565,
      "duration": 0.217,
      "velocity": 0.49,
      "hand": "left"
    },
    {
      "midi": 86,
      "time": 124.565,
      "duration": 0.217,
      "velocity": 0.5,
      "hand": "right"
    },
    {
      "midi": 93,
      "time": 124.565,
      "duration": 0.054,
      "velocity": 0.5,
      "hand": "right"
    },
    {
      "midi": 94,
      "time": 124.565,
      "duration": 0.054,
      "velocity": 0.5,
      "hand": "right"
    },
    {
      "midi": 95,
      "time": 124.565,
      "duration": 0.217,
      "velocity": 0.5,
      "hand": "right"
    },
    {
      "midi": 43,
      "time": 125.761,
      "duration": 0.326,
      "velocity": 0.49,
      "hand": "left"
    },
    {
      "midi": 55,
      "time": 125.761,
      "duration": 0.326,
      "velocity": 0.49,
      "hand": "left"
    },
    {
      "midi": 71,
      "time": 125.761,
      "duration": 0.109,
      "velocity": 0.5,
      "hand": "right"
    },
    {
      "midi": 73,
      "time": 125.978,
      "duration": 0.109,
      "velocity": 0.5,
      "hand": "right"
    },
    {
      "midi": 50,
      "time": 126.087,
      "duration": 0.326,
      "velocity": 0.49,
      "hand": "left"
    },
    {
      "midi": 55,
      "time": 126.087,
      "duration": 0.326,
      "velocity": 0.49,
      "hand": "left"
    },
    {
      "midi": 59,
      "time": 126.087,
      "duration": 0.326,
      "velocity": 0.49,
      "hand": "left"
    },
    {
      "midi": 74,
      "time": 126.087,
      "duration": 0.109,
      "velocity": 0.5,
      "hand": "right"
    },
    {
      "midi": 76,
      "time": 126.304,
      "duration": 0.109,
      "velocity": 0.5,
      "hand": "right"
    },
    {
      "midi": 42,
      "time": 126.522,
      "duration": 0.326,
      "velocity": 0.49,
      "hand": "left"
    },
    {
      "midi": 54,
      "time": 126.522,
      "duration": 0.326,
      "velocity": 0.49,
      "hand": "left"
    },
    {
      "midi": 78,
      "time": 126.522,
      "duration": 0.109,
      "velocity": 0.5,
      "hand": "right"
    },
    {
      "midi": 74,
      "time": 126.739,
      "duration": 0.109,
      "velocity": 0.5,
      "hand": "right"
    },
    {
      "midi": 50,
      "time": 126.957,
      "duration": 0.326,
      "velocity": 0.49,
      "hand": "left"
    },
    {
      "midi": 54,
      "time": 126.957,
      "duration": 0.326,
      "velocity": 0.49,
      "hand": "left"
    },
    {
      "midi": 59,
      "time": 126.957,
      "duration": 0.326,
      "velocity": 0.49,
      "hand": "left"
    },
    {
      "midi": 78,
      "time": 126.957,
      "duration": 0.109,
      "velocity": 0.5,
      "hand": "right"
    },
    {
      "midi": 83,
      "time": 127.065,
      "duration": 0.109,
      "velocity": 0.5,
      "hand": "right"
    },
    {
      "midi": 30,
      "time": 127.283,
      "duration": 0.326,
      "velocity": 0.49,
      "hand": "left"
    },
    {
      "midi": 42,
      "time": 127.283,
      "duration": 0.326,
      "velocity": 0.49,
      "hand": "left"
    },
    {
      "midi": 82,
      "time": 127.283,
      "duration": 0.109,
      "velocity": 0.5,
      "hand": "right"
    },
    {
      "midi": 78,
      "time": 127.5,
      "duration": 0.109,
      "velocity": 0.5,
      "hand": "right"
    },
    {
      "midi": 49,
      "time": 127.717,
      "duration": 0.326,
      "velocity": 0.49,
      "hand": "left"
    },
    {
      "midi": 54,
      "time": 127.717,
      "duration": 0.326,
      "velocity": 0.49,
      "hand": "left"
    },
    {
      "midi": 58,
      "time": 127.717,
      "duration": 0.326,
      "velocity": 0.49,
      "hand": "left"
    },
    {
      "midi": 82,
      "time": 127.717,
      "duration": 0.109,
      "velocity": 0.5,
      "hand": "right"
    },
    {
      "midi": 85,
      "time": 127.826,
      "duration": 0.109,
      "velocity": 0.5,
      "hand": "right"
    },
    {
      "midi": 35,
      "time": 128.043,
      "duration": 0.326,
      "velocity": 0.49,
      "hand": "left"
    },
    {
      "midi": 47,
      "time": 128.043,
      "duration": 0.326,
      "velocity": 0.49,
      "hand": "left"
    },
    {
      "midi": 83,
      "time": 128.043,
      "duration": 0.652,
      "velocity": 0.5,
      "hand": "right"
    },
    {
      "midi": 50,
      "time": 128.478,
      "duration": 0.326,
      "velocity": 0.49,
      "hand": "left"
    },
    {
      "midi": 54,
      "time": 128.478,
      "duration": 0.326,
      "velocity": 0.49,
      "hand": "left"
    },
    {
      "midi": 59,
      "time": 128.478,
      "duration": 0.326,
      "velocity": 0.49,
      "hand": "left"
    },
    {
      "midi": 35,
      "time": 128.804,
      "duration": 0.326,
      "velocity": 0.49,
      "hand": "left"
    },
    {
      "midi": 47,
      "time": 128.804,
      "duration": 0.326,
      "velocity": 0.49,
      "hand": "left"
    },
    {
      "midi": 92,
      "time": 129.13,
      "duration": 0.054,
      "velocity": 0.5,
      "hand": "right"
    },
    {
      "midi": 50,
      "time": 129.239,
      "duration": 0.217,
      "velocity": 0.49,
      "hand": "left"
    },
    {
      "midi": 53,
      "time": 129.239,
      "duration": 0.217,
      "velocity": 0.49,
      "hand": "left"
    },
    {
      "midi": 56,
      "time": 129.239,
      "duration": 0.217,
      "velocity": 0.49,
      "hand": "left"
    },
    {
      "midi": 59,
      "time": 129.239,
      "duration": 0.217,
      "velocity": 0.49,
      "hand": "left"
    },
    {
      "midi": 86,
      "time": 129.239,
      "duration": 0.109,
      "velocity": 0.5,
      "hand": "right"
    },
    {
      "midi": 93,
      "time": 129.239,
      "duration": 0.054,
      "velocity": 0.5,
      "hand": "right"
    },
    {
      "midi": 94,
      "time": 129.239,
      "duration": 0.054,
      "velocity": 0.5,
      "hand": "right"
    },
    {
      "midi": 95,
      "time": 129.239,
      "duration": 0.109,
      "velocity": 0.5,
      "hand": "right"
    },
    {
      "midi": 35,
      "time": 130.435,
      "duration": 0.326,
      "velocity": 0.49,
      "hand": "left"
    },
    {
      "midi": 47,
      "time": 130.435,
      "duration": 0.326,
      "velocity": 0.49,
      "hand": "left"
    },
    {
      "midi": 50,
      "time": 130.761,
      "duration": 0.217,
      "velocity": 0.49,
      "hand": "left"
    },
    {
      "midi": 53,
      "time": 130.761,
      "duration": 0.217,
      "velocity": 0.49,
      "hand": "left"
    },
    {
      "midi": 56,
      "time": 130.761,
      "duration": 0.217,
      "velocity": 0.49,
      "hand": "left"
    },
    {
      "midi": 59,
      "time": 130.761,
      "duration": 0.217,
      "velocity": 0.49,
      "hand": "left"
    },
    {
      "midi": 86,
      "time": 130.761,
      "duration": 0.217,
      "velocity": 0.5,
      "hand": "right"
    },
    {
      "midi": 92,
      "time": 130.761,
      "duration": 0.054,
      "velocity": 0.5,
      "hand": "right"
    },
    {
      "midi": 93,
      "time": 130.761,
      "duration": 0.054,
      "velocity": 0.5,
      "hand": "right"
    },
    {
      "midi": 94,
      "time": 130.761,
      "duration": 0.054,
      "velocity": 0.5,
      "hand": "right"
    },
    {
      "midi": 95,
      "time": 130.761,
      "duration": 0.217,
      "velocity": 0.5,
      "hand": "right"
    },
    {
      "midi": 43,
      "time": 131.957,
      "duration": 0.326,
      "velocity": 0.49,
      "hand": "left"
    },
    {
      "midi": 55,
      "time": 131.957,
      "duration": 0.326,
      "velocity": 0.49,
      "hand": "left"
    },
    {
      "midi": 83,
      "time": 131.957,
      "duration": 0.109,
      "velocity": 0.5,
      "hand": "right"
    },
    {
      "midi": 85,
      "time": 132.174,
      "duration": 0.109,
      "velocity": 0.5,
      "hand": "right"
    },
    {
      "midi": 50,
      "time": 132.391,
      "duration": 0.326,
      "velocity": 0.49,
      "hand": "left"
    },
    {
      "midi": 55,
      "time": 132.391,
      "duration": 0.326,
      "velocity": 0.49,
      "hand": "left"
    },
    {
      "midi": 59,
      "time": 132.391,
      "duration": 0.326,
      "velocity": 0.49,
      "hand": "left"
    },
    {
      "midi": 86,
      "time": 132.391,
      "duration": 0.109,
      "velocity": 0.5,
      "hand": "right"
    },
    {
      "midi": 88,
      "time": 132.609,
      "duration": 0.109,
      "velocity": 0.5,
      "hand": "right"
    },
    {
      "midi": 42,
      "time": 132.717,
      "duration": 0.326,
      "velocity": 0.49,
      "hand": "left"
    },
    {
      "midi": 54,
      "time": 132.717,
      "duration": 0.326,
      "velocity": 0.49,
      "hand": "left"
    },
    {
      "midi": 90,
      "time": 132.717,
      "duration": 0.109,
      "velocity": 0.5,
      "hand": "right"
    },
    {
      "midi": 86,
      "time": 132.935,
      "duration": 0.109,
      "velocity": 0.5,
      "hand": "right"
    },
    {
      "midi": 50,
      "time": 133.152,
      "duration": 0.326,
      "velocity": 0.49,
      "hand": "left"
    },
    {
      "midi": 54,
      "time": 133.152,
      "duration": 0.326,
      "velocity": 0.49,
      "hand": "left"
    },
    {
      "midi": 59,
      "time": 133.152,
      "duration": 0.326,
      "velocity": 0.49,
      "hand": "left"
    },
    {
      "midi": 90,
      "time": 133.152,
      "duration": 0.109,
      "velocity": 0.5,
      "hand": "right"
    },
    {
      "midi": 95,
      "time": 133.37,
      "duration": 0.109,
      "velocity": 0.5,
      "hand": "right"
    },
    {
      "midi": 30,
      "time": 133.478,
      "duration": 0.326,
      "velocity": 0.49,
      "hand": "left"
    },
    {
      "midi": 42,
      "time": 133.478,
      "duration": 0.326,
      "velocity": 0.49,
      "hand": "left"
    },
    {
      "midi": 94,
      "time": 133.478,
      "duration": 0.109,
      "velocity": 0.5,
      "hand": "right"
    },
    {
      "midi": 90,
      "time": 133.696,
      "duration": 0.109,
      "velocity": 0.5,
      "hand": "right"
    },
    {
      "midi": 49,
      "time": 133.913,
      "duration": 0.326,
      "velocity": 0.49,
      "hand": "left"
    },
    {
      "midi": 54,
      "time": 133.913,
      "duration": 0.326,
      "velocity": 0.49,
      "hand": "left"
    },
    {
      "midi": 58,
      "time": 133.913,
      "duration": 0.326,
      "velocity": 0.49,
      "hand": "left"
    },
    {
      "midi": 94,
      "time": 133.913,
      "duration": 0.109,
      "velocity": 0.5,
      "hand": "right"
    },
    {
      "midi": 97,
      "time": 134.13,
      "duration": 0.109,
      "velocity": 0.5,
      "hand": "right"
    },
    {
      "midi": 35,
      "time": 134.348,
      "duration": 0.326,
      "velocity": 0.49,
      "hand": "left"
    },
    {
      "midi": 47,
      "time": 134.348,
      "duration": 0.326,
      "velocity": 0.49,
      "hand": "left"
    },
    {
      "midi": 95,
      "time": 134.348,
      "duration": 0.652,
      "velocity": 0.5,
      "hand": "right"
    },
    {
      "midi": 50,
      "time": 134.674,
      "duration": 0.326,
      "velocity": 0.49,
      "hand": "left"
    },
    {
      "midi": 54,
      "time": 134.674,
      "duration": 0.326,
      "velocity": 0.49,
      "hand": "left"
    },
    {
      "midi": 59,
      "time": 134.674,
      "duration": 0.326,
      "velocity": 0.49,
      "hand": "left"
    },
    {
      "midi": 35,
      "time": 135.109,
      "duration": 0.326,
      "velocity": 0.49,
      "hand": "left"
    },
    {
      "midi": 47,
      "time": 135.109,
      "duration": 0.326,
      "velocity": 0.49,
      "hand": "left"
    },
    {
      "midi": 50,
      "time": 135.435,
      "duration": 0.217,
      "velocity": 0.49,
      "hand": "left"
    },
    {
      "midi": 53,
      "time": 135.435,
      "duration": 0.217,
      "velocity": 0.49,
      "hand": "left"
    },
    {
      "midi": 56,
      "time": 135.435,
      "duration": 0.217,
      "velocity": 0.49,
      "hand": "left"
    },
    {
      "midi": 59,
      "time": 135.435,
      "duration": 0.217,
      "velocity": 0.49,
      "hand": "left"
    },
    {
      "midi": 86,
      "time": 135.435,
      "duration": 0.109,
      "velocity": 0.5,
      "hand": "right"
    },
    {
      "midi": 92,
      "time": 135.435,
      "duration": 0.054,
      "velocity": 0.5,
      "hand": "right"
    },
    {
      "midi": 93,
      "time": 135.435,
      "duration": 0.054,
      "velocity": 0.5,
      "hand": "right"
    },
    {
      "midi": 94,
      "time": 135.435,
      "duration": 0.054,
      "velocity": 0.5,
      "hand": "right"
    },
    {
      "midi": 95,
      "time": 135.435,
      "duration": 0.109,
      "velocity": 0.5,
      "hand": "right"
    },
    {
      "midi": 35,
      "time": 136.63,
      "duration": 0.326,
      "velocity": 0.49,
      "hand": "left"
    },
    {
      "midi": 47,
      "time": 136.63,
      "duration": 0.326,
      "velocity": 0.49,
      "hand": "left"
    },
    {
      "midi": 92,
      "time": 136.957,
      "duration": 0.054,
      "velocity": 0.5,
      "hand": "right"
    },
    {
      "midi": 93,
      "time": 136.957,
      "duration": 0.054,
      "velocity": 0.5,
      "hand": "right"
    },
    {
      "midi": 94,
      "time": 136.957,
      "duration": 0.054,
      "velocity": 0.5,
      "hand": "right"
    },
    {
      "midi": 50,
      "time": 137.065,
      "duration": 0.217,
      "velocity": 0.49,
      "hand": "left"
    },
    {
      "midi": 53,
      "time": 137.065,
      "duration": 0.217,
      "velocity": 0.49,
      "hand": "left"
    },
    {
      "midi": 56,
      "time": 137.065,
      "duration": 0.217,
      "velocity": 0.49,
      "hand": "left"
    },
    {
      "midi": 59,
      "time": 137.065,
      "duration": 0.217,
      "velocity": 0.49,
      "hand": "left"
    },
    {
      "midi": 86,
      "time": 137.065,
      "duration": 0.109,
      "velocity": 0.5,
      "hand": "right"
    },
    {
      "midi": 95,
      "time": 137.065,
      "duration": 0.109,
      "velocity": 0.5,
      "hand": "right"
    },
    {
      "midi": 35,
      "time": 138.152,
      "duration": 0.326,
      "velocity": 0.49,
      "hand": "left"
    },
    {
      "midi": 47,
      "time": 138.152,
      "duration": 0.326,
      "velocity": 0.49,
      "hand": "left"
    },
    {
      "midi": 92,
      "time": 138.478,
      "duration": 0.054,
      "velocity": 0.5,
      "hand": "right"
    },
    {
      "midi": 50,
      "time": 138.587,
      "duration": 0.217,
      "velocity": 0.49,
      "hand": "left"
    },
    {
      "midi": 53,
      "time": 138.587,
      "duration": 0.217,
      "velocity": 0.49,
      "hand": "left"
    },
    {
      "midi": 56,
      "time": 138.587,
      "duration": 0.217,
      "velocity": 0.49,
      "hand": "left"
    },
    {
      "midi": 59,
      "time": 138.587,
      "duration": 0.217,
      "velocity": 0.49,
      "hand": "left"
    },
    {
      "midi": 86,
      "time": 138.587,
      "duration": 0.326,
      "velocity": 0.49,
      "hand": "right"
    },
    {
      "midi": 93,
      "time": 138.587,
      "duration": 0.054,
      "velocity": 0.5,
      "hand": "right"
    },
    {
      "midi": 94,
      "time": 138.587,
      "duration": 0.054,
      "velocity": 0.5,
      "hand": "right"
    },
    {
      "midi": 95,
      "time": 138.587,
      "duration": 0.326,
      "velocity": 0.49,
      "hand": "right"
    },
    {
      "midi": 92,
      "time": 138.913,
      "duration": 0.054,
      "velocity": 0.49,
      "hand": "right"
    },
    {
      "midi": 93,
      "time": 138.913,
      "duration": 0.054,
      "velocity": 0.49,
      "hand": "right"
    },
    {
      "midi": 94,
      "time": 138.913,
      "duration": 0.054,
      "velocity": 0.49,
      "hand": "right"
    },
    {
      "midi": 50,
      "time": 139.022,
      "duration": 0.217,
      "velocity": 0.49,
      "hand": "left"
    },
    {
      "midi": 53,
      "time": 139.022,
      "duration": 0.217,
      "velocity": 0.49,
      "hand": "left"
    },
    {
      "midi": 56,
      "time": 139.022,
      "duration": 0.217,
      "velocity": 0.49,
      "hand": "left"
    },
    {
      "midi": 59,
      "time": 139.022,
      "duration": 0.217,
      "velocity": 0.49,
      "hand": "left"
    },
    {
      "midi": 86,
      "time": 139.022,
      "duration": 0.326,
      "velocity": 0.49,
      "hand": "right"
    },
    {
      "midi": 95,
      "time": 139.022,
      "duration": 0.326,
      "velocity": 0.49,
      "hand": "right"
    },
    {
      "midi": 50,
      "time": 139.348,
      "duration": 0.217,
      "velocity": 0.49,
      "hand": "left"
    },
    {
      "midi": 53,
      "time": 139.348,
      "duration": 0.217,
      "velocity": 0.49,
      "hand": "left"
    },
    {
      "midi": 56,
      "time": 139.348,
      "duration": 0.217,
      "velocity": 0.49,
      "hand": "left"
    },
    {
      "midi": 59,
      "time": 139.348,
      "duration": 0.217,
      "velocity": 0.49,
      "hand": "left"
    },
    {
      "midi": 86,
      "time": 139.348,
      "duration": 0.326,
      "velocity": 0.49,
      "hand": "right"
    },
    {
      "midi": 92,
      "time": 139.348,
      "duration": 0.054,
      "velocity": 0.49,
      "hand": "right"
    },
    {
      "midi": 93,
      "time": 139.348,
      "duration": 0.054,
      "velocity": 0.49,
      "hand": "right"
    },
    {
      "midi": 94,
      "time": 139.348,
      "duration": 0.054,
      "velocity": 0.49,
      "hand": "right"
    },
    {
      "midi": 95,
      "time": 139.348,
      "duration": 0.326,
      "velocity": 0.49,
      "hand": "right"
    },
    {
      "midi": 92,
      "time": 139.674,
      "duration": 0.054,
      "velocity": 0.49,
      "hand": "right"
    },
    {
      "midi": 93,
      "time": 139.674,
      "duration": 0.054,
      "velocity": 0.49,
      "hand": "right"
    },
    {
      "midi": 50,
      "time": 139.783,
      "duration": 0.217,
      "velocity": 0.49,
      "hand": "left"
    },
    {
      "midi": 53,
      "time": 139.783,
      "duration": 0.217,
      "velocity": 0.49,
      "hand": "left"
    },
    {
      "midi": 56,
      "time": 139.783,
      "duration": 0.217,
      "velocity": 0.49,
      "hand": "left"
    },
    {
      "midi": 59,
      "time": 139.783,
      "duration": 0.217,
      "velocity": 0.49,
      "hand": "left"
    },
    {
      "midi": 86,
      "time": 139.783,
      "duration": 0.326,
      "velocity": 0.49,
      "hand": "right"
    },
    {
      "midi": 94,
      "time": 139.783,
      "duration": 0.054,
      "velocity": 0.49,
      "hand": "right"
    },
    {
      "midi": 95,
      "time": 139.783,
      "duration": 0.326,
      "velocity": 0.49,
      "hand": "right"
    },
    {
      "midi": 50,
      "time": 140.109,
      "duration": 0.217,
      "velocity": 0.49,
      "hand": "left"
    },
    {
      "midi": 53,
      "time": 140.109,
      "duration": 0.217,
      "velocity": 0.49,
      "hand": "left"
    },
    {
      "midi": 56,
      "time": 140.109,
      "duration": 0.217,
      "velocity": 0.49,
      "hand": "left"
    },
    {
      "midi": 59,
      "time": 140.109,
      "duration": 0.217,
      "velocity": 0.49,
      "hand": "left"
    },
    {
      "midi": 92,
      "time": 140.109,
      "duration": 0.054,
      "velocity": 0.5,
      "hand": "right"
    },
    {
      "midi": 93,
      "time": 140.109,
      "duration": 0.054,
      "velocity": 0.51,
      "hand": "right"
    },
    {
      "midi": 94,
      "time": 140.109,
      "duration": 0.054,
      "velocity": 0.51,
      "hand": "right"
    },
    {
      "midi": 86,
      "time": 140.217,
      "duration": 0.326,
      "velocity": 0.51,
      "hand": "right"
    },
    {
      "midi": 95,
      "time": 140.217,
      "duration": 0.326,
      "velocity": 0.51,
      "hand": "right"
    },
    {
      "midi": 50,
      "time": 140.543,
      "duration": 0.217,
      "velocity": 0.49,
      "hand": "left"
    },
    {
      "midi": 53,
      "time": 140.543,
      "duration": 0.217,
      "velocity": 0.49,
      "hand": "left"
    },
    {
      "midi": 56,
      "time": 140.543,
      "duration": 0.217,
      "velocity": 0.49,
      "hand": "left"
    },
    {
      "midi": 59,
      "time": 140.543,
      "duration": 0.217,
      "velocity": 0.49,
      "hand": "left"
    },
    {
      "midi": 86,
      "time": 140.543,
      "duration": 0.326,
      "velocity": 0.54,
      "hand": "right"
    },
    {
      "midi": 92,
      "time": 140.543,
      "duration": 0.054,
      "velocity": 0.54,
      "hand": "right"
    },
    {
      "midi": 93,
      "time": 140.543,
      "duration": 0.054,
      "velocity": 0.54,
      "hand": "right"
    },
    {
      "midi": 94,
      "time": 140.543,
      "duration": 0.054,
      "velocity": 0.54,
      "hand": "right"
    },
    {
      "midi": 95,
      "time": 140.543,
      "duration": 0.326,
      "velocity": 0.54,
      "hand": "right"
    },
    {
      "midi": 92,
      "time": 140.87,
      "duration": 0.054,
      "velocity": 0.56,
      "hand": "right"
    },
    {
      "midi": 50,
      "time": 140.978,
      "duration": 0.217,
      "velocity": 0.49,
      "hand": "left"
    },
    {
      "midi": 53,
      "time": 140.978,
      "duration": 0.217,
      "velocity": 0.49,
      "hand": "left"
    },
    {
      "midi": 56,
      "time": 140.978,
      "duration": 0.217,
      "velocity": 0.49,
      "hand": "left"
    },
    {
      "midi": 59,
      "time": 140.978,
      "duration": 0.217,
      "velocity": 0.49,
      "hand": "left"
    },
    {
      "midi": 86,
      "time": 140.978,
      "duration": 0.326,
      "velocity": 0.57,
      "hand": "right"
    },
    {
      "midi": 93,
      "time": 140.978,
      "duration": 0.054,
      "velocity": 0.56,
      "hand": "right"
    },
    {
      "midi": 94,
      "time": 140.978,
      "duration": 0.054,
      "velocity": 0.56,
      "hand": "right"
    },
    {
      "midi": 95,
      "time": 140.978,
      "duration": 0.326,
      "velocity": 0.57,
      "hand": "right"
    },
    {
      "midi": 35,
      "time": 142.065,
      "duration": 0.109,
      "velocity": 0.49,
      "hand": "left"
    },
    {
      "midi": 47,
      "time": 142.174,
      "duration": 0.109,
      "velocity": 0.49,
      "hand": "left"
    },
    {
      "midi": 35,
      "time": 142.283,
      "duration": 0.109,
      "velocity": 0.49,
      "hand": "left"
    },
    {
      "midi": 47,
      "time": 142.391,
      "duration": 0.109,
      "velocity": 0.49,
      "hand": "left"
    },
    {
      "midi": 35,
      "time": 142.5,
      "duration": 0.109,
      "velocity": 0.49,
      "hand": "left"
    },
    {
      "midi": 47,
      "time": 142.609,
      "duration": 0.109,
      "velocity": 0.49,
      "hand": "left"
    },
    {
      "midi": 35,
      "time": 142.717,
      "duration": 0.109,
      "velocity": 0.49,
      "hand": "left"
    },
    {
      "midi": 35,
      "time": 142.826,
      "duration": 0.109,
      "velocity": 0.49,
      "hand": "left"
    },
    {
      "midi": 47,
      "time": 142.826,
      "duration": 0.109,
      "velocity": 0.49,
      "hand": "left"
    },
    {
      "midi": 47,
      "time": 142.935,
      "duration": 0.109,
      "velocity": 0.49,
      "hand": "left"
    },
    {
      "midi": 35,
      "time": 143.043,
      "duration": 0.109,
      "velocity": 0.49,
      "hand": "left"
    },
    {
      "midi": 47,
      "time": 143.152,
      "duration": 0.109,
      "velocity": 0.49,
      "hand": "left"
    },
    {
      "midi": 35,
      "time": 143.261,
      "duration": 0.109,
      "velocity": 0.49,
      "hand": "left"
    },
    {
      "midi": 47,
      "time": 143.37,
      "duration": 0.109,
      "velocity": 0.49,
      "hand": "left"
    },
    {
      "midi": 35,
      "time": 143.478,
      "duration": 0.109,
      "velocity": 0.49,
      "hand": "left"
    },
    {
      "midi": 47,
      "time": 143.587,
      "duration": 0.109,
      "velocity": 0.56,
      "hand": "left"
    },
    {
      "midi": 35,
      "time": 143.696,
      "duration": 0.109,
      "velocity": 0.64,
      "hand": "left"
    },
    {
      "midi": 35,
      "time": 143.804,
      "duration": 0.109,
      "velocity": 0.71,
      "hand": "left"
    },
    {
      "midi": 47,
      "time": 143.804,
      "duration": 0.109,
      "velocity": 0.71,
      "hand": "left"
    },
    {
      "midi": 47,
      "time": 143.913,
      "duration": 0.109,
      "velocity": 0.71,
      "hand": "left"
    },
    {
      "midi": 35,
      "time": 144.022,
      "duration": 0.109,
      "velocity": 0.71,
      "hand": "left"
    },
    {
      "midi": 47,
      "time": 144.13,
      "duration": 0.109,
      "velocity": 0.71,
      "hand": "left"
    },
    {
      "midi": 35,
      "time": 144.239,
      "duration": 0.109,
      "velocity": 0.71,
      "hand": "left"
    },
    {
      "midi": 47,
      "time": 144.348,
      "duration": 0.109,
      "velocity": 0.71,
      "hand": "left"
    },
    {
      "midi": 23,
      "time": 144.457,
      "duration": 0.326,
      "velocity": 0.8,
      "hand": "left"
    },
    {
      "midi": 35,
      "time": 144.457,
      "duration": 0.326,
      "velocity": 0.8,
      "hand": "left"
    },
    {
      "midi": 47,
      "time": 144.783,
      "duration": 0.217,
      "velocity": 0.8,
      "hand": "left"
    },
    {
      "midi": 50,
      "time": 144.783,
      "duration": 0.217,
      "velocity": 0.8,
      "hand": "left"
    },
    {
      "midi": 54,
      "time": 144.783,
      "duration": 0.217,
      "velocity": 0.8,
      "hand": "left"
    },
    {
      "midi": 59,
      "time": 144.783,
      "duration": 0.217,
      "velocity": 0.8,
      "hand": "left"
    },
    {
      "midi": 92,
      "time": 144.783,
      "duration": 0.054,
      "velocity": 0.8,
      "hand": "right"
    },
    {
      "midi": 86,
      "time": 144.891,
      "duration": 0.326,
      "velocity": 0.8,
      "hand": "right"
    },
    {
      "midi": 93,
      "time": 144.891,
      "duration": 0.054,
      "velocity": 0.8,
      "hand": "right"
    },
    {
      "midi": 94,
      "time": 144.891,
      "duration": 0.054,
      "velocity": 0.8,
      "hand": "right"
    },
    {
      "midi": 95,
      "time": 144.891,
      "duration": 0.326,
      "velocity": 0.8,
      "hand": "right"
    }
  ],
  "arrangements": {
    "easy": [
      {
        "midi": 66,
        "time": 0,
        "duration": 1.522,
        "velocity": 0.54,
        "hand": "right"
      },
      {
        "midi": 62,
        "time": 24.783,
        "duration": 0.29,
        "velocity": 0.49,
        "hand": "right"
      },
      {
        "midi": 62,
        "time": 28.261,
        "duration": 0.29,
        "velocity": 0.49,
        "hand": "right"
      },
      {
        "midi": 66,
        "time": 44.783,
        "duration": 0.29,
        "velocity": 0.49,
        "hand": "right"
      },
      {
        "midi": 65,
        "time": 45.652,
        "duration": 0.29,
        "velocity": 0.49,
        "hand": "right"
      },
      {
        "midi": 64,
        "time": 46.522,
        "duration": 0.29,
        "velocity": 0.49,
        "hand": "right"
      },
      {
        "midi": 69,
        "time": 49.565,
        "duration": 0.761,
        "velocity": 0.49,
        "hand": "right"
      },
      {
        "midi": 62,
        "time": 50,
        "duration": 0.326,
        "velocity": 0.71,
        "hand": "right"
      },
      {
        "midi": 66,
        "time": 50.87,
        "duration": 0.326,
        "velocity": 0.71,
        "hand": "right"
      },
      {
        "midi": 78,
        "time": 51.739,
        "duration": 0.29,
        "velocity": 0.71,
        "hand": "right"
      },
      {
        "midi": 77,
        "time": 52.609,
        "duration": 0.29,
        "velocity": 0.71,
        "hand": "right"
      },
      {
        "midi": 76,
        "time": 53.478,
        "duration": 0.29,
        "velocity": 0.71,
        "hand": "right"
      },
      {
        "midi": 66,
        "time": 54.348,
        "duration": 0.326,
        "velocity": 0.71,
        "hand": "right"
      },
      {
        "midi": 69,
        "time": 56.087,
        "duration": 0.326,
        "velocity": 0.71,
        "hand": "right"
      },
      {
        "midi": 81,
        "time": 56.522,
        "duration": 0.761,
        "velocity": 0.49,
        "hand": "right"
      },
      {
        "midi": 74,
        "time": 56.957,
        "duration": 0.326,
        "velocity": 0.71,
        "hand": "right"
      },
      {
        "midi": 66,
        "time": 57.826,
        "duration": 0.326,
        "velocity": 0.71,
        "hand": "right"
      },
      {
        "midi": 73,
        "time": 58.696,
        "duration": 0.326,
        "velocity": 0.51,
        "hand": "right"
      },
      {
        "midi": 74,
        "time": 59.565,
        "duration": 0.326,
        "velocity": 0.53,
        "hand": "right"
      },
      {
        "midi": 73,
        "time": 60.435,
        "duration": 0.326,
        "velocity": 0.54,
        "hand": "right"
      },
      {
        "midi": 66,
        "time": 61.304,
        "duration": 0.326,
        "velocity": 0.71,
        "hand": "right"
      },
      {
        "midi": 73,
        "time": 62.174,
        "duration": 0.326,
        "velocity": 0.56,
        "hand": "right"
      },
      {
        "midi": 74,
        "time": 63.043,
        "duration": 0.326,
        "velocity": 0.57,
        "hand": "right"
      },
      {
        "midi": 73,
        "time": 63.478,
        "duration": 0.761,
        "velocity": 0.57,
        "hand": "right"
      },
      {
        "midi": 70,
        "time": 63.913,
        "duration": 0.326,
        "velocity": 0.71,
        "hand": "right"
      },
      {
        "midi": 85,
        "time": 65.652,
        "duration": 0.29,
        "velocity": 0.61,
        "hand": "right"
      },
      {
        "midi": 86,
        "time": 66.522,
        "duration": 0.29,
        "velocity": 0.61,
        "hand": "right"
      },
      {
        "midi": 85,
        "time": 67.391,
        "duration": 0.29,
        "velocity": 0.62,
        "hand": "right"
      },
      {
        "midi": 85,
        "time": 69.13,
        "duration": 0.29,
        "velocity": 0.65,
        "hand": "right"
      },
      {
        "midi": 86,
        "time": 70,
        "duration": 0.29,
        "velocity": 0.66,
        "hand": "right"
      },
      {
        "midi": 85,
        "time": 70.435,
        "duration": 0.761,
        "velocity": 0.66,
        "hand": "right"
      },
      {
        "midi": 82,
        "time": 70.87,
        "duration": 0.326,
        "velocity": 0.71,
        "hand": "right"
      },
      {
        "midi": 66,
        "time": 72.609,
        "duration": 0.29,
        "velocity": 0.69,
        "hand": "right"
      },
      {
        "midi": 65,
        "time": 73.478,
        "duration": 0.29,
        "velocity": 0.69,
        "hand": "right"
      },
      {
        "midi": 65,
        "time": 74.348,
        "duration": 0.29,
        "velocity": 0.7,
        "hand": "right"
      },
      {
        "midi": 69,
        "time": 77.391,
        "duration": 0.761,
        "velocity": 0.72,
        "hand": "right"
      },
      {
        "midi": 64,
        "time": 77.826,
        "duration": 0.326,
        "velocity": 0.71,
        "hand": "right"
      },
      {
        "midi": 66,
        "time": 78.696,
        "duration": 0.326,
        "velocity": 0.71,
        "hand": "right"
      },
      {
        "midi": 78,
        "time": 79.565,
        "duration": 0.326,
        "velocity": 0.75,
        "hand": "right"
      },
      {
        "midi": 77,
        "time": 80.435,
        "duration": 0.29,
        "velocity": 0.76,
        "hand": "right"
      },
      {
        "midi": 76,
        "time": 81.304,
        "duration": 0.326,
        "velocity": 0.76,
        "hand": "right"
      },
      {
        "midi": 74,
        "time": 83.043,
        "duration": 0.326,
        "velocity": 0.71,
        "hand": "right"
      },
      {
        "midi": 74,
        "time": 83.913,
        "duration": 0.326,
        "velocity": 0.71,
        "hand": "right"
      },
      {
        "midi": 71,
        "time": 84.348,
        "duration": 0.761,
        "velocity": 0.79,
        "hand": "right"
      },
      {
        "midi": 83,
        "time": 85.217,
        "duration": 0.652,
        "velocity": 0.8,
        "hand": "right"
      },
      {
        "midi": 90,
        "time": 85.978,
        "duration": 0.29,
        "velocity": 0.8,
        "hand": "right"
      },
      {
        "midi": 90,
        "time": 86.413,
        "duration": 0.29,
        "velocity": 0.8,
        "hand": "right"
      },
      {
        "midi": 89,
        "time": 87.174,
        "duration": 0.29,
        "velocity": 0.8,
        "hand": "right"
      },
      {
        "midi": 83,
        "time": 87.609,
        "duration": 0.652,
        "velocity": 0.71,
        "hand": "right"
      },
      {
        "midi": 83,
        "time": 88.37,
        "duration": 0.652,
        "velocity": 0.8,
        "hand": "right"
      },
      {
        "midi": 83,
        "time": 89.13,
        "duration": 0.652,
        "velocity": 0.71,
        "hand": "right"
      },
      {
        "midi": 86,
        "time": 89.891,
        "duration": 0.435,
        "velocity": 0.71,
        "hand": "right"
      },
      {
        "midi": 86,
        "time": 90.326,
        "duration": 0.326,
        "velocity": 0.8,
        "hand": "right"
      },
      {
        "midi": 83,
        "time": 91.413,
        "duration": 0.652,
        "velocity": 0.8,
        "hand": "right"
      },
      {
        "midi": 90,
        "time": 92.283,
        "duration": 0.29,
        "velocity": 0.8,
        "hand": "right"
      },
      {
        "midi": 89,
        "time": 93.043,
        "duration": 0.29,
        "velocity": 0.8,
        "hand": "right"
      },
      {
        "midi": 88,
        "time": 93.804,
        "duration": 0.29,
        "velocity": 0.8,
        "hand": "right"
      },
      {
        "midi": 83,
        "time": 94.565,
        "duration": 0.652,
        "velocity": 0.8,
        "hand": "right"
      },
      {
        "midi": 83,
        "time": 95.326,
        "duration": 0.652,
        "velocity": 0.71,
        "hand": "right"
      },
      {
        "midi": 86,
        "time": 96.087,
        "duration": 0.435,
        "velocity": 0.71,
        "hand": "right"
      },
      {
        "midi": 86,
        "time": 96.522,
        "duration": 0.326,
        "velocity": 0.8,
        "hand": "right"
      },
      {
        "midi": 93,
        "time": 96.957,
        "duration": 0.652,
        "velocity": 0.8,
        "hand": "right"
      },
      {
        "midi": 90,
        "time": 97.717,
        "duration": 0.652,
        "velocity": 0.8,
        "hand": "right"
      },
      {
        "midi": 97,
        "time": 98.478,
        "duration": 0.29,
        "velocity": 0.8,
        "hand": "right"
      },
      {
        "midi": 98,
        "time": 99.239,
        "duration": 0.29,
        "velocity": 0.49,
        "hand": "right"
      },
      {
        "midi": 98,
        "time": 99.674,
        "duration": 0.326,
        "velocity": 0.49,
        "hand": "right"
      },
      {
        "midi": 97,
        "time": 100.435,
        "duration": 0.326,
        "velocity": 0.49,
        "hand": "right"
      },
      {
        "midi": 97,
        "time": 101.63,
        "duration": 0.29,
        "velocity": 0.49,
        "hand": "right"
      },
      {
        "midi": 98,
        "time": 102.391,
        "duration": 0.29,
        "velocity": 0.49,
        "hand": "right"
      },
      {
        "midi": 97,
        "time": 103.152,
        "duration": 0.652,
        "velocity": 0.49,
        "hand": "right"
      },
      {
        "midi": 90,
        "time": 103.913,
        "duration": 0.652,
        "velocity": 0.71,
        "hand": "right"
      },
      {
        "midi": 97,
        "time": 104.674,
        "duration": 0.29,
        "velocity": 0.8,
        "hand": "right"
      },
      {
        "midi": 97,
        "time": 105.109,
        "duration": 0.326,
        "velocity": 0.8,
        "hand": "right"
      },
      {
        "midi": 99,
        "time": 105.87,
        "duration": 0.326,
        "velocity": 0.49,
        "hand": "right"
      },
      {
        "midi": 97,
        "time": 106.63,
        "duration": 0.326,
        "velocity": 0.49,
        "hand": "right"
      },
      {
        "midi": 97,
        "time": 107.826,
        "duration": 0.29,
        "velocity": 0.49,
        "hand": "right"
      },
      {
        "midi": 98,
        "time": 108.587,
        "duration": 0.29,
        "velocity": 0.49,
        "hand": "right"
      },
      {
        "midi": 98,
        "time": 109.022,
        "duration": 0.326,
        "velocity": 0.49,
        "hand": "right"
      },
      {
        "midi": 83,
        "time": 110.109,
        "duration": 0.652,
        "velocity": 0.8,
        "hand": "right"
      },
      {
        "midi": 90,
        "time": 110.978,
        "duration": 0.29,
        "velocity": 0.8,
        "hand": "right"
      },
      {
        "midi": 89,
        "time": 111.739,
        "duration": 0.29,
        "velocity": 0.8,
        "hand": "right"
      },
      {
        "midi": 88,
        "time": 112.5,
        "duration": 0.29,
        "velocity": 0.8,
        "hand": "right"
      },
      {
        "midi": 83,
        "time": 113.261,
        "duration": 0.652,
        "velocity": 0.8,
        "hand": "right"
      },
      {
        "midi": 83,
        "time": 114.022,
        "duration": 0.29,
        "velocity": 0.71,
        "hand": "right"
      },
      {
        "midi": 86,
        "time": 114.783,
        "duration": 0.435,
        "velocity": 0.71,
        "hand": "right"
      },
      {
        "midi": 93,
        "time": 115.652,
        "duration": 0.652,
        "velocity": 0.8,
        "hand": "right"
      },
      {
        "midi": 90,
        "time": 117.174,
        "duration": 0.29,
        "velocity": 0.49,
        "hand": "right"
      },
      {
        "midi": 90,
        "time": 117.609,
        "duration": 0.29,
        "velocity": 0.49,
        "hand": "right"
      },
      {
        "midi": 89,
        "time": 118.37,
        "duration": 0.29,
        "velocity": 0.49,
        "hand": "right"
      },
      {
        "midi": 88,
        "time": 119.13,
        "duration": 0.29,
        "velocity": 0.49,
        "hand": "right"
      },
      {
        "midi": 83,
        "time": 121.848,
        "duration": 0.652,
        "velocity": 0.49,
        "hand": "right"
      },
      {
        "midi": 95,
        "time": 124.565,
        "duration": 0.29,
        "velocity": 0.5,
        "hand": "right"
      },
      {
        "midi": 83,
        "time": 128.043,
        "duration": 0.652,
        "velocity": 0.5,
        "hand": "right"
      },
      {
        "midi": 95,
        "time": 130.761,
        "duration": 0.29,
        "velocity": 0.5,
        "hand": "right"
      },
      {
        "midi": 95,
        "time": 134.348,
        "duration": 0.652,
        "velocity": 0.5,
        "hand": "right"
      },
      {
        "midi": 95,
        "time": 138.587,
        "duration": 0.326,
        "velocity": 0.49,
        "hand": "right"
      },
      {
        "midi": 95,
        "time": 139.022,
        "duration": 0.326,
        "velocity": 0.49,
        "hand": "right"
      },
      {
        "midi": 95,
        "time": 139.783,
        "duration": 0.326,
        "velocity": 0.49,
        "hand": "right"
      },
      {
        "midi": 95,
        "time": 140.543,
        "duration": 0.326,
        "velocity": 0.54,
        "hand": "right"
      },
      {
        "midi": 95,
        "time": 140.978,
        "duration": 0.326,
        "velocity": 0.57,
        "hand": "right"
      },
      {
        "midi": 95,
        "time": 144.891,
        "duration": 0.326,
        "velocity": 0.8,
        "hand": "right"
      }
    ],
    "medium": [
      {
        "midi": 54,
        "time": 0,
        "duration": 1.522,
        "velocity": 0.54,
        "hand": "right"
      },
      {
        "midi": 66,
        "time": 0,
        "duration": 1.522,
        "velocity": 0.54,
        "hand": "right"
      },
      {
        "midi": 23,
        "time": 1.739,
        "duration": 0.217,
        "velocity": 0.49,
        "hand": "left"
      },
      {
        "midi": 35,
        "time": 1.739,
        "duration": 0.109,
        "velocity": 0.49,
        "hand": "right"
      },
      {
        "midi": 37,
        "time": 1.957,
        "duration": 0.109,
        "velocity": 0.49,
        "hand": "right"
      },
      {
        "midi": 30,
        "time": 2.174,
        "duration": 0.217,
        "velocity": 0.49,
        "hand": "left"
      },
      {
        "midi": 38,
        "time": 2.174,
        "duration": 0.109,
        "velocity": 0.49,
        "hand": "right"
      },
      {
        "midi": 40,
        "time": 2.391,
        "duration": 0.109,
        "velocity": 0.49,
        "hand": "right"
      },
      {
        "midi": 23,
        "time": 2.609,
        "duration": 0.217,
        "velocity": 0.49,
        "hand": "left"
      },
      {
        "midi": 42,
        "time": 2.609,
        "duration": 0.109,
        "velocity": 0.49,
        "hand": "right"
      },
      {
        "midi": 38,
        "time": 2.826,
        "duration": 0.109,
        "velocity": 0.49,
        "hand": "right"
      },
      {
        "midi": 30,
        "time": 3.043,
        "duration": 0.217,
        "velocity": 0.49,
        "hand": "left"
      },
      {
        "midi": 42,
        "time": 3.043,
        "duration": 0.217,
        "velocity": 0.49,
        "hand": "right"
      },
      {
        "midi": 23,
        "time": 3.478,
        "duration": 0.217,
        "velocity": 0.49,
        "hand": "left"
      },
      {
        "midi": 41,
        "time": 3.478,
        "duration": 0.109,
        "velocity": 0.49,
        "hand": "right"
      },
      {
        "midi": 37,
        "time": 3.696,
        "duration": 0.109,
        "velocity": 0.49,
        "hand": "right"
      },
      {
        "midi": 30,
        "time": 3.913,
        "duration": 0.217,
        "velocity": 0.49,
        "hand": "left"
      },
      {
        "midi": 41,
        "time": 3.913,
        "duration": 0.217,
        "velocity": 0.49,
        "hand": "right"
      },
      {
        "midi": 23,
        "time": 4.348,
        "duration": 0.217,
        "velocity": 0.49,
        "hand": "left"
      },
      {
        "midi": 40,
        "time": 4.348,
        "duration": 0.109,
        "velocity": 0.49,
        "hand": "right"
      },
      {
        "midi": 36,
        "time": 4.565,
        "duration": 0.109,
        "velocity": 0.49,
        "hand": "right"
      },
      {
        "midi": 30,
        "time": 4.783,
        "duration": 0.217,
        "velocity": 0.49,
        "hand": "left"
      },
      {
        "midi": 40,
        "time": 4.783,
        "duration": 0.217,
        "velocity": 0.49,
        "hand": "right"
      },
      {
        "midi": 23,
        "time": 5.217,
        "duration": 0.217,
        "velocity": 0.49,
        "hand": "left"
      },
      {
        "midi": 35,
        "time": 5.217,
        "duration": 0.109,
        "velocity": 0.49,
        "hand": "right"
      },
      {
        "midi": 37,
        "time": 5.435,
        "duration": 0.109,
        "velocity": 0.49,
        "hand": "right"
      },
      {
        "midi": 30,
        "time": 5.652,
        "duration": 0.217,
        "velocity": 0.49,
        "hand": "left"
      },
      {
        "midi": 38,
        "time": 5.652,
        "duration": 0.109,
        "velocity": 0.49,
        "hand": "right"
      },
      {
        "midi": 40,
        "time": 5.87,
        "duration": 0.109,
        "velocity": 0.49,
        "hand": "right"
      },
      {
        "midi": 23,
        "time": 6.087,
        "duration": 0.217,
        "velocity": 0.49,
        "hand": "left"
      },
      {
        "midi": 42,
        "time": 6.087,
        "duration": 0.109,
        "velocity": 0.49,
        "hand": "right"
      },
      {
        "midi": 38,
        "time": 6.304,
        "duration": 0.109,
        "velocity": 0.49,
        "hand": "right"
      },
      {
        "midi": 30,
        "time": 6.522,
        "duration": 0.217,
        "velocity": 0.49,
        "hand": "left"
      },
      {
        "midi": 42,
        "time": 6.522,
        "duration": 0.109,
        "velocity": 0.49,
        "hand": "right"
      },
      {
        "midi": 47,
        "time": 6.739,
        "duration": 0.109,
        "velocity": 0.49,
        "hand": "right"
      },
      {
        "midi": 26,
        "time": 6.957,
        "duration": 0.217,
        "velocity": 0.49,
        "hand": "left"
      },
      {
        "midi": 45,
        "time": 6.957,
        "duration": 0.109,
        "velocity": 0.49,
        "hand": "right"
      },
      {
        "midi": 42,
        "time": 7.174,
        "duration": 0.109,
        "velocity": 0.49,
        "hand": "right"
      },
      {
        "midi": 33,
        "time": 7.391,
        "duration": 0.217,
        "velocity": 0.49,
        "hand": "left"
      },
      {
        "midi": 38,
        "time": 7.391,
        "duration": 0.109,
        "velocity": 0.49,
        "hand": "right"
      },
      {
        "midi": 42,
        "time": 7.609,
        "duration": 0.109,
        "velocity": 0.49,
        "hand": "right"
      },
      {
        "midi": 26,
        "time": 7.826,
        "duration": 0.217,
        "velocity": 0.49,
        "hand": "left"
      },
      {
        "midi": 45,
        "time": 7.826,
        "duration": 0.761,
        "velocity": 0.49,
        "hand": "right"
      },
      {
        "midi": 33,
        "time": 8.261,
        "duration": 0.217,
        "velocity": 0.49,
        "hand": "left"
      },
      {
        "midi": 23,
        "time": 8.696,
        "duration": 0.217,
        "velocity": 0.49,
        "hand": "left"
      },
      {
        "midi": 47,
        "time": 8.696,
        "duration": 0.109,
        "velocity": 0.49,
        "hand": "right"
      },
      {
        "midi": 49,
        "time": 8.913,
        "duration": 0.109,
        "velocity": 0.49,
        "hand": "right"
      },
      {
        "midi": 30,
        "time": 9.13,
        "duration": 0.217,
        "velocity": 0.49,
        "hand": "left"
      },
      {
        "midi": 50,
        "time": 9.13,
        "duration": 0.109,
        "velocity": 0.49,
        "hand": "right"
      },
      {
        "midi": 52,
        "time": 9.348,
        "duration": 0.109,
        "velocity": 0.49,
        "hand": "right"
      },
      {
        "midi": 23,
        "time": 9.565,
        "duration": 0.217,
        "velocity": 0.49,
        "hand": "left"
      },
      {
        "midi": 54,
        "time": 9.565,
        "duration": 0.109,
        "velocity": 0.49,
        "hand": "right"
      },
      {
        "midi": 50,
        "time": 9.783,
        "duration": 0.109,
        "velocity": 0.49,
        "hand": "right"
      },
      {
        "midi": 30,
        "time": 10,
        "duration": 0.217,
        "velocity": 0.49,
        "hand": "left"
      },
      {
        "midi": 54,
        "time": 10,
        "duration": 0.217,
        "velocity": 0.49,
        "hand": "right"
      },
      {
        "midi": 23,
        "time": 10.435,
        "duration": 0.217,
        "velocity": 0.49,
        "hand": "left"
      },
      {
        "midi": 53,
        "time": 10.435,
        "duration": 0.109,
        "velocity": 0.49,
        "hand": "right"
      },
      {
        "midi": 49,
        "time": 10.652,
        "duration": 0.109,
        "velocity": 0.49,
        "hand": "right"
      },
      {
        "midi": 30,
        "time": 10.87,
        "duration": 0.217,
        "velocity": 0.49,
        "hand": "left"
      },
      {
        "midi": 53,
        "time": 10.87,
        "duration": 0.217,
        "velocity": 0.49,
        "hand": "right"
      },
      {
        "midi": 23,
        "time": 11.304,
        "duration": 0.217,
        "velocity": 0.49,
        "hand": "left"
      },
      {
        "midi": 52,
        "time": 11.304,
        "duration": 0.109,
        "velocity": 0.49,
        "hand": "right"
      },
      {
        "midi": 48,
        "time": 11.522,
        "duration": 0.109,
        "velocity": 0.49,
        "hand": "right"
      },
      {
        "midi": 30,
        "time": 11.739,
        "duration": 0.217,
        "velocity": 0.49,
        "hand": "left"
      },
      {
        "midi": 52,
        "time": 11.739,
        "duration": 0.217,
        "velocity": 0.49,
        "hand": "right"
      },
      {
        "midi": 23,
        "time": 12.174,
        "duration": 0.217,
        "velocity": 0.49,
        "hand": "left"
      },
      {
        "midi": 47,
        "time": 12.174,
        "duration": 0.109,
        "velocity": 0.49,
        "hand": "right"
      },
      {
        "midi": 49,
        "time": 12.391,
        "duration": 0.109,
        "velocity": 0.49,
        "hand": "right"
      },
      {
        "midi": 30,
        "time": 12.609,
        "duration": 0.217,
        "velocity": 0.49,
        "hand": "left"
      },
      {
        "midi": 50,
        "time": 12.609,
        "duration": 0.109,
        "velocity": 0.49,
        "hand": "right"
      },
      {
        "midi": 52,
        "time": 12.826,
        "duration": 0.109,
        "velocity": 0.49,
        "hand": "right"
      },
      {
        "midi": 23,
        "time": 13.043,
        "duration": 0.217,
        "velocity": 0.49,
        "hand": "left"
      },
      {
        "midi": 54,
        "time": 13.043,
        "duration": 0.109,
        "velocity": 0.49,
        "hand": "right"
      },
      {
        "midi": 50,
        "time": 13.261,
        "duration": 0.109,
        "velocity": 0.49,
        "hand": "right"
      },
      {
        "midi": 30,
        "time": 13.478,
        "duration": 0.217,
        "velocity": 0.49,
        "hand": "left"
      },
      {
        "midi": 54,
        "time": 13.478,
        "duration": 0.109,
        "velocity": 0.49,
        "hand": "right"
      },
      {
        "midi": 59,
        "time": 13.696,
        "duration": 0.109,
        "velocity": 0.49,
        "hand": "right"
      },
      {
        "midi": 26,
        "time": 13.913,
        "duration": 0.217,
        "velocity": 0.49,
        "hand": "left"
      },
      {
        "midi": 57,
        "time": 13.913,
        "duration": 0.109,
        "velocity": 0.49,
        "hand": "right"
      },
      {
        "midi": 54,
        "time": 14.13,
        "duration": 0.109,
        "velocity": 0.49,
        "hand": "right"
      },
      {
        "midi": 33,
        "time": 14.348,
        "duration": 0.217,
        "velocity": 0.49,
        "hand": "left"
      },
      {
        "midi": 50,
        "time": 14.348,
        "duration": 0.109,
        "velocity": 0.49,
        "hand": "right"
      },
      {
        "midi": 54,
        "time": 14.565,
        "duration": 0.109,
        "velocity": 0.49,
        "hand": "right"
      },
      {
        "midi": 26,
        "time": 14.783,
        "duration": 0.217,
        "velocity": 0.49,
        "hand": "left"
      },
      {
        "midi": 45,
        "time": 14.783,
        "duration": 0.761,
        "velocity": 0.49,
        "hand": "right"
      },
      {
        "midi": 57,
        "time": 14.783,
        "duration": 0.761,
        "velocity": 0.49,
        "hand": "right"
      },
      {
        "midi": 33,
        "time": 15.217,
        "duration": 0.217,
        "velocity": 0.49,
        "hand": "left"
      },
      {
        "midi": 30,
        "time": 15.652,
        "duration": 0.326,
        "velocity": 0.49,
        "hand": "left"
      },
      {
        "midi": 42,
        "time": 15.652,
        "duration": 0.109,
        "velocity": 0.49,
        "hand": "right"
      },
      {
        "midi": 44,
        "time": 15.87,
        "duration": 0.109,
        "velocity": 0.49,
        "hand": "right"
      },
      {
        "midi": 37,
        "time": 16.087,
        "duration": 0.326,
        "velocity": 0.49,
        "hand": "left"
      },
      {
        "midi": 46,
        "time": 16.087,
        "duration": 0.109,
        "velocity": 0.49,
        "hand": "right"
      },
      {
        "midi": 47,
        "time": 16.304,
        "duration": 0.109,
        "velocity": 0.49,
        "hand": "right"
      },
      {
        "midi": 30,
        "time": 16.522,
        "duration": 0.326,
        "velocity": 0.49,
        "hand": "left"
      },
      {
        "midi": 49,
        "time": 16.522,
        "duration": 0.109,
        "velocity": 0.49,
        "hand": "right"
      },
      {
        "midi": 46,
        "time": 16.739,
        "duration": 0.109,
        "velocity": 0.49,
        "hand": "right"
      },
      {
        "midi": 37,
        "time": 16.957,
        "duration": 0.326,
        "velocity": 0.49,
        "hand": "left"
      },
      {
        "midi": 49,
        "time": 16.957,
        "duration": 0.217,
        "velocity": 0.49,
        "hand": "right"
      },
      {
        "midi": 26,
        "time": 17.391,
        "duration": 0.326,
        "velocity": 0.49,
        "hand": "left"
      },
      {
        "midi": 50,
        "time": 17.391,
        "duration": 0.109,
        "velocity": 0.49,
        "hand": "right"
      },
      {
        "midi": 46,
        "time": 17.609,
        "duration": 0.109,
        "velocity": 0.49,
        "hand": "right"
      },
      {
        "midi": 34,
        "time": 17.826,
        "duration": 0.326,
        "velocity": 0.49,
        "hand": "left"
      },
      {
        "midi": 50,
        "time": 17.826,
        "duration": 0.217,
        "velocity": 0.49,
        "hand": "right"
      },
      {
        "midi": 30,
        "time": 18.261,
        "duration": 0.326,
        "velocity": 0.49,
        "hand": "left"
      },
      {
        "midi": 49,
        "time": 18.261,
        "duration": 0.109,
        "velocity": 0.49,
        "hand": "right"
      },
      {
        "midi": 46,
        "time": 18.478,
        "duration": 0.109,
        "velocity": 0.49,
        "hand": "right"
      },
      {
        "midi": 37,
        "time": 18.696,
        "duration": 0.326,
        "velocity": 0.49,
        "hand": "left"
      },
      {
        "midi": 49,
        "time": 18.696,
        "duration": 0.217,
        "velocity": 0.49,
        "hand": "right"
      },
      {
        "midi": 30,
        "time": 19.13,
        "duration": 0.326,
        "velocity": 0.49,
        "hand": "left"
      },
      {
        "midi": 42,
        "time": 19.13,
        "duration": 0.109,
        "velocity": 0.49,
        "hand": "right"
      },
      {
        "midi": 44,
        "time": 19.348,
        "duration": 0.109,
        "velocity": 0.49,
        "hand": "right"
      },
      {
        "midi": 37,
        "time": 19.565,
        "duration": 0.326,
        "velocity": 0.49,
        "hand": "left"
      },
      {
        "midi": 46,
        "time": 19.565,
        "duration": 0.109,
        "velocity": 0.49,
        "hand": "right"
      },
      {
        "midi": 47,
        "time": 19.783,
        "duration": 0.109,
        "velocity": 0.49,
        "hand": "right"
      },
      {
        "midi": 30,
        "time": 20,
        "duration": 0.326,
        "velocity": 0.49,
        "hand": "left"
      },
      {
        "midi": 49,
        "time": 20,
        "duration": 0.109,
        "velocity": 0.49,
        "hand": "right"
      },
      {
        "midi": 46,
        "time": 20.217,
        "duration": 0.109,
        "velocity": 0.49,
        "hand": "right"
      },
      {
        "midi": 37,
        "time": 20.435,
        "duration": 0.326,
        "velocity": 0.49,
        "hand": "left"
      },
      {
        "midi": 49,
        "time": 20.435,
        "duration": 0.217,
        "velocity": 0.49,
        "hand": "right"
      },
      {
        "midi": 26,
        "time": 20.87,
        "duration": 0.326,
        "velocity": 0.49,
        "hand": "left"
      },
      {
        "midi": 50,
        "time": 20.87,
        "duration": 0.109,
        "velocity": 0.49,
        "hand": "right"
      },
      {
        "midi": 46,
        "time": 21.087,
        "duration": 0.109,
        "velocity": 0.49,
        "hand": "right"
      },
      {
        "midi": 34,
        "time": 21.304,
        "duration": 0.326,
        "velocity": 0.49,
        "hand": "left"
      },
      {
        "midi": 50,
        "time": 21.304,
        "duration": 0.217,
        "velocity": 0.49,
        "hand": "right"
      },
      {
        "midi": 30,
        "time": 21.739,
        "duration": 0.326,
        "velocity": 0.49,
        "hand": "left"
      },
      {
        "midi": 49,
        "time": 21.739,
        "duration": 0.761,
        "velocity": 0.49,
        "hand": "right"
      },
      {
        "midi": 37,
        "time": 22.174,
        "duration": 0.326,
        "velocity": 0.49,
        "hand": "left"
      },
      {
        "midi": 30,
        "time": 22.609,
        "duration": 0.326,
        "velocity": 0.49,
        "hand": "left"
      },
      {
        "midi": 54,
        "time": 22.609,
        "duration": 0.109,
        "velocity": 0.49,
        "hand": "right"
      },
      {
        "midi": 56,
        "time": 22.826,
        "duration": 0.109,
        "velocity": 0.49,
        "hand": "right"
      },
      {
        "midi": 37,
        "time": 23.043,
        "duration": 0.326,
        "velocity": 0.49,
        "hand": "left"
      },
      {
        "midi": 58,
        "time": 23.043,
        "duration": 0.109,
        "velocity": 0.49,
        "hand": "right"
      },
      {
        "midi": 59,
        "time": 23.261,
        "duration": 0.109,
        "velocity": 0.49,
        "hand": "right"
      },
      {
        "midi": 30,
        "time": 23.478,
        "duration": 0.326,
        "velocity": 0.49,
        "hand": "left"
      },
      {
        "midi": 61,
        "time": 23.478,
        "duration": 0.109,
        "velocity": 0.49,
        "hand": "right"
      },
      {
        "midi": 58,
        "time": 23.696,
        "duration": 0.109,
        "velocity": 0.49,
        "hand": "right"
      },
      {
        "midi": 37,
        "time": 23.913,
        "duration": 0.326,
        "velocity": 0.49,
        "hand": "left"
      },
      {
        "midi": 61,
        "time": 23.913,
        "duration": 0.217,
        "velocity": 0.49,
        "hand": "right"
      },
      {
        "midi": 26,
        "time": 24.348,
        "duration": 0.326,
        "velocity": 0.49,
        "hand": "left"
      },
      {
        "midi": 62,
        "time": 24.348,
        "duration": 0.109,
        "velocity": 0.49,
        "hand": "right"
      },
      {
        "midi": 58,
        "time": 24.565,
        "duration": 0.109,
        "velocity": 0.49,
        "hand": "right"
      },
      {
        "midi": 34,
        "time": 24.783,
        "duration": 0.326,
        "velocity": 0.49,
        "hand": "left"
      },
      {
        "midi": 62,
        "time": 24.783,
        "duration": 0.217,
        "velocity": 0.49,
        "hand": "right"
      },
      {
        "midi": 30,
        "time": 25.217,
        "duration": 0.326,
        "velocity": 0.49,
        "hand": "left"
      },
      {
        "midi": 61,
        "time": 25.217,
        "duration": 0.109,
        "velocity": 0.49,
        "hand": "right"
      },
      {
        "midi": 58,
        "time": 25.435,
        "duration": 0.109,
        "velocity": 0.49,
        "hand": "right"
      },
      {
        "midi": 37,
        "time": 25.652,
        "duration": 0.326,
        "velocity": 0.49,
        "hand": "left"
      },
      {
        "midi": 61,
        "time": 25.652,
        "duration": 0.217,
        "velocity": 0.49,
        "hand": "right"
      },
      {
        "midi": 30,
        "time": 26.087,
        "duration": 0.326,
        "velocity": 0.49,
        "hand": "left"
      },
      {
        "midi": 54,
        "time": 26.087,
        "duration": 0.109,
        "velocity": 0.49,
        "hand": "right"
      },
      {
        "midi": 56,
        "time": 26.304,
        "duration": 0.109,
        "velocity": 0.49,
        "hand": "right"
      },
      {
        "midi": 37,
        "time": 26.522,
        "duration": 0.326,
        "velocity": 0.49,
        "hand": "left"
      },
      {
        "midi": 58,
        "time": 26.522,
        "duration": 0.109,
        "velocity": 0.49,
        "hand": "right"
      },
      {
        "midi": 59,
        "time": 26.739,
        "duration": 0.109,
        "velocity": 0.49,
        "hand": "right"
      },
      {
        "midi": 30,
        "time": 26.957,
        "duration": 0.326,
        "velocity": 0.49,
        "hand": "left"
      },
      {
        "midi": 61,
        "time": 26.957,
        "duration": 0.109,
        "velocity": 0.49,
        "hand": "right"
      },
      {
        "midi": 58,
        "time": 27.174,
        "duration": 0.109,
        "velocity": 0.49,
        "hand": "right"
      },
      {
        "midi": 37,
        "time": 27.391,
        "duration": 0.326,
        "velocity": 0.49,
        "hand": "left"
      },
      {
        "midi": 61,
        "time": 27.391,
        "duration": 0.217,
        "velocity": 0.49,
        "hand": "right"
      },
      {
        "midi": 26,
        "time": 27.826,
        "duration": 0.326,
        "velocity": 0.49,
        "hand": "left"
      },
      {
        "midi": 62,
        "time": 27.826,
        "duration": 0.109,
        "velocity": 0.49,
        "hand": "right"
      },
      {
        "midi": 58,
        "time": 28.043,
        "duration": 0.109,
        "velocity": 0.49,
        "hand": "right"
      },
      {
        "midi": 34,
        "time": 28.261,
        "duration": 0.326,
        "velocity": 0.49,
        "hand": "left"
      },
      {
        "midi": 62,
        "time": 28.261,
        "duration": 0.217,
        "velocity": 0.49,
        "hand": "right"
      },
      {
        "midi": 30,
        "time": 28.696,
        "duration": 0.326,
        "velocity": 0.49,
        "hand": "left"
      },
      {
        "midi": 49,
        "time": 28.696,
        "duration": 0.761,
        "velocity": 0.49,
        "hand": "right"
      },
      {
        "midi": 61,
        "time": 28.696,
        "duration": 0.761,
        "velocity": 0.49,
        "hand": "right"
      },
      {
        "midi": 37,
        "time": 29.13,
        "duration": 0.326,
        "velocity": 0.49,
        "hand": "left"
      },
      {
        "midi": 23,
        "time": 29.565,
        "duration": 0.217,
        "velocity": 0.49,
        "hand": "left"
      },
      {
        "midi": 35,
        "time": 29.565,
        "duration": 0.109,
        "velocity": 0.49,
        "hand": "right"
      },
      {
        "midi": 37,
        "time": 29.783,
        "duration": 0.109,
        "velocity": 0.49,
        "hand": "right"
      },
      {
        "midi": 30,
        "time": 30,
        "duration": 0.217,
        "velocity": 0.49,
        "hand": "left"
      },
      {
        "midi": 38,
        "time": 30,
        "duration": 0.109,
        "velocity": 0.49,
        "hand": "right"
      },
      {
        "midi": 40,
        "time": 30.217,
        "duration": 0.109,
        "velocity": 0.49,
        "hand": "right"
      },
      {
        "midi": 23,
        "time": 30.435,
        "duration": 0.217,
        "velocity": 0.49,
        "hand": "left"
      },
      {
        "midi": 42,
        "time": 30.435,
        "duration": 0.109,
        "velocity": 0.49,
        "hand": "right"
      },
      {
        "midi": 38,
        "time": 30.652,
        "duration": 0.109,
        "velocity": 0.49,
        "hand": "right"
      },
      {
        "midi": 30,
        "time": 30.87,
        "duration": 0.217,
        "velocity": 0.49,
        "hand": "left"
      },
      {
        "midi": 42,
        "time": 30.87,
        "duration": 0.217,
        "velocity": 0.49,
        "hand": "right"
      },
      {
        "midi": 23,
        "time": 31.304,
        "duration": 0.217,
        "velocity": 0.49,
        "hand": "left"
      },
      {
        "midi": 41,
        "time": 31.304,
        "duration": 0.109,
        "velocity": 0.49,
        "hand": "right"
      },
      {
        "midi": 37,
        "time": 31.522,
        "duration": 0.109,
        "velocity": 0.49,
        "hand": "right"
      },
      {
        "midi": 30,
        "time": 31.739,
        "duration": 0.217,
        "velocity": 0.49,
        "hand": "left"
      },
      {
        "midi": 41,
        "time": 31.739,
        "duration": 0.217,
        "velocity": 0.49,
        "hand": "right"
      },
      {
        "midi": 23,
        "time": 32.174,
        "duration": 0.217,
        "velocity": 0.49,
        "hand": "left"
      },
      {
        "midi": 40,
        "time": 32.174,
        "duration": 0.109,
        "velocity": 0.49,
        "hand": "right"
      },
      {
        "midi": 36,
        "time": 32.391,
        "duration": 0.109,
        "velocity": 0.49,
        "hand": "right"
      },
      {
        "midi": 30,
        "time": 32.609,
        "duration": 0.217,
        "velocity": 0.49,
        "hand": "left"
      },
      {
        "midi": 40,
        "time": 32.609,
        "duration": 0.217,
        "velocity": 0.49,
        "hand": "right"
      },
      {
        "midi": 23,
        "time": 33.043,
        "duration": 0.217,
        "velocity": 0.49,
        "hand": "left"
      },
      {
        "midi": 35,
        "time": 33.043,
        "duration": 0.109,
        "velocity": 0.49,
        "hand": "right"
      },
      {
        "midi": 37,
        "time": 33.261,
        "duration": 0.109,
        "velocity": 0.49,
        "hand": "right"
      },
      {
        "midi": 30,
        "time": 33.478,
        "duration": 0.217,
        "velocity": 0.49,
        "hand": "left"
      },
      {
        "midi": 38,
        "time": 33.478,
        "duration": 0.109,
        "velocity": 0.49,
        "hand": "right"
      },
      {
        "midi": 40,
        "time": 33.696,
        "duration": 0.109,
        "velocity": 0.49,
        "hand": "right"
      },
      {
        "midi": 23,
        "time": 33.913,
        "duration": 0.217,
        "velocity": 0.49,
        "hand": "left"
      },
      {
        "midi": 42,
        "time": 33.913,
        "duration": 0.109,
        "velocity": 0.49,
        "hand": "right"
      },
      {
        "midi": 38,
        "time": 34.13,
        "duration": 0.109,
        "velocity": 0.49,
        "hand": "right"
      },
      {
        "midi": 30,
        "time": 34.348,
        "duration": 0.217,
        "velocity": 0.49,
        "hand": "left"
      },
      {
        "midi": 42,
        "time": 34.348,
        "duration": 0.109,
        "velocity": 0.49,
        "hand": "right"
      },
      {
        "midi": 47,
        "time": 34.565,
        "duration": 0.109,
        "velocity": 0.49,
        "hand": "right"
      },
      {
        "midi": 26,
        "time": 34.783,
        "duration": 0.217,
        "velocity": 0.49,
        "hand": "left"
      },
      {
        "midi": 45,
        "time": 34.783,
        "duration": 0.109,
        "velocity": 0.49,
        "hand": "right"
      },
      {
        "midi": 42,
        "time": 35,
        "duration": 0.109,
        "velocity": 0.49,
        "hand": "right"
      },
      {
        "midi": 33,
        "time": 35.217,
        "duration": 0.217,
        "velocity": 0.49,
        "hand": "left"
      },
      {
        "midi": 38,
        "time": 35.217,
        "duration": 0.109,
        "velocity": 0.49,
        "hand": "right"
      },
      {
        "midi": 42,
        "time": 35.435,
        "duration": 0.109,
        "velocity": 0.49,
        "hand": "right"
      },
      {
        "midi": 26,
        "time": 35.652,
        "duration": 0.217,
        "velocity": 0.49,
        "hand": "left"
      },
      {
        "midi": 45,
        "time": 35.652,
        "duration": 0.761,
        "velocity": 0.49,
        "hand": "right"
      },
      {
        "midi": 33,
        "time": 36.087,
        "duration": 0.217,
        "velocity": 0.49,
        "hand": "left"
      },
      {
        "midi": 23,
        "time": 36.522,
        "duration": 0.217,
        "velocity": 0.49,
        "hand": "left"
      },
      {
        "midi": 47,
        "time": 36.522,
        "duration": 0.109,
        "velocity": 0.49,
        "hand": "right"
      },
      {
        "midi": 49,
        "time": 36.739,
        "duration": 0.109,
        "velocity": 0.49,
        "hand": "right"
      },
      {
        "midi": 30,
        "time": 36.957,
        "duration": 0.217,
        "velocity": 0.49,
        "hand": "left"
      },
      {
        "midi": 50,
        "time": 36.957,
        "duration": 0.109,
        "velocity": 0.49,
        "hand": "right"
      },
      {
        "midi": 52,
        "time": 37.174,
        "duration": 0.109,
        "velocity": 0.49,
        "hand": "right"
      },
      {
        "midi": 23,
        "time": 37.391,
        "duration": 0.217,
        "velocity": 0.49,
        "hand": "left"
      },
      {
        "midi": 54,
        "time": 37.391,
        "duration": 0.109,
        "velocity": 0.49,
        "hand": "right"
      },
      {
        "midi": 50,
        "time": 37.609,
        "duration": 0.109,
        "velocity": 0.49,
        "hand": "right"
      },
      {
        "midi": 30,
        "time": 37.826,
        "duration": 0.217,
        "velocity": 0.49,
        "hand": "left"
      },
      {
        "midi": 54,
        "time": 37.826,
        "duration": 0.217,
        "velocity": 0.49,
        "hand": "right"
      },
      {
        "midi": 23,
        "time": 38.261,
        "duration": 0.217,
        "velocity": 0.49,
        "hand": "left"
      },
      {
        "midi": 53,
        "time": 38.261,
        "duration": 0.109,
        "velocity": 0.49,
        "hand": "right"
      },
      {
        "midi": 49,
        "time": 38.478,
        "duration": 0.109,
        "velocity": 0.49,
        "hand": "right"
      },
      {
        "midi": 30,
        "time": 38.696,
        "duration": 0.217,
        "velocity": 0.49,
        "hand": "left"
      },
      {
        "midi": 53,
        "time": 38.696,
        "duration": 0.217,
        "velocity": 0.49,
        "hand": "right"
      },
      {
        "midi": 23,
        "time": 39.13,
        "duration": 0.217,
        "velocity": 0.49,
        "hand": "left"
      },
      {
        "midi": 52,
        "time": 39.13,
        "duration": 0.109,
        "velocity": 0.49,
        "hand": "right"
      },
      {
        "midi": 48,
        "time": 39.348,
        "duration": 0.109,
        "velocity": 0.49,
        "hand": "right"
      },
      {
        "midi": 30,
        "time": 39.565,
        "duration": 0.217,
        "velocity": 0.49,
        "hand": "left"
      },
      {
        "midi": 52,
        "time": 39.565,
        "duration": 0.217,
        "velocity": 0.49,
        "hand": "right"
      },
      {
        "midi": 23,
        "time": 40,
        "duration": 0.217,
        "velocity": 0.49,
        "hand": "left"
      },
      {
        "midi": 47,
        "time": 40,
        "duration": 0.109,
        "velocity": 0.49,
        "hand": "right"
      },
      {
        "midi": 49,
        "time": 40.217,
        "duration": 0.109,
        "velocity": 0.49,
        "hand": "right"
      },
      {
        "midi": 35,
        "time": 40.435,
        "duration": 0.217,
        "velocity": 0.49,
        "hand": "left"
      },
      {
        "midi": 50,
        "time": 40.435,
        "duration": 0.109,
        "velocity": 0.49,
        "hand": "right"
      },
      {
        "midi": 52,
        "time": 40.652,
        "duration": 0.109,
        "velocity": 0.49,
        "hand": "right"
      },
      {
        "midi": 33,
        "time": 40.87,
        "duration": 0.217,
        "velocity": 0.49,
        "hand": "left"
      },
      {
        "midi": 54,
        "time": 40.87,
        "duration": 0.109,
        "velocity": 0.49,
        "hand": "right"
      },
      {
        "midi": 50,
        "time": 41.087,
        "duration": 0.109,
        "velocity": 0.49,
        "hand": "right"
      },
      {
        "midi": 31,
        "time": 41.304,
        "duration": 0.217,
        "velocity": 0.49,
        "hand": "left"
      },
      {
        "midi": 54,
        "time": 41.304,
        "duration": 0.109,
        "velocity": 0.49,
        "hand": "right"
      },
      {
        "midi": 59,
        "time": 41.522,
        "duration": 0.109,
        "velocity": 0.49,
        "hand": "right"
      },
      {
        "midi": 30,
        "time": 41.739,
        "duration": 0.217,
        "velocity": 0.49,
        "hand": "left"
      },
      {
        "midi": 57,
        "time": 41.739,
        "duration": 0.109,
        "velocity": 0.49,
        "hand": "right"
      },
      {
        "midi": 54,
        "time": 41.957,
        "duration": 0.109,
        "velocity": 0.49,
        "hand": "right"
      },
      {
        "midi": 28,
        "time": 42.174,
        "duration": 0.217,
        "velocity": 0.49,
        "hand": "left"
      },
      {
        "midi": 50,
        "time": 42.174,
        "duration": 0.109,
        "velocity": 0.49,
        "hand": "right"
      },
      {
        "midi": 54,
        "time": 42.391,
        "duration": 0.109,
        "velocity": 0.49,
        "hand": "right"
      },
      {
        "midi": 25,
        "time": 42.609,
        "duration": 0.217,
        "velocity": 0.49,
        "hand": "left"
      },
      {
        "midi": 45,
        "time": 42.609,
        "duration": 0.761,
        "velocity": 0.49,
        "hand": "right"
      },
      {
        "midi": 57,
        "time": 42.609,
        "duration": 0.761,
        "velocity": 0.49,
        "hand": "right"
      },
      {
        "midi": 23,
        "time": 43.043,
        "duration": 0.217,
        "velocity": 0.49,
        "hand": "left"
      },
      {
        "midi": 23,
        "time": 43.478,
        "duration": 0.326,
        "velocity": 0.49,
        "hand": "left"
      },
      {
        "midi": 59,
        "time": 43.478,
        "duration": 0.109,
        "velocity": 0.49,
        "hand": "right"
      },
      {
        "midi": 61,
        "time": 43.696,
        "duration": 0.109,
        "velocity": 0.49,
        "hand": "right"
      },
      {
        "midi": 42,
        "time": 43.913,
        "duration": 0.109,
        "velocity": 0.49,
        "hand": "left"
      },
      {
        "midi": 54,
        "time": 43.913,
        "duration": 0.109,
        "velocity": 0.49,
        "hand": "right"
      },
      {
        "midi": 62,
        "time": 43.913,
        "duration": 0.109,
        "velocity": 0.49,
        "hand": "right"
      },
      {
        "midi": 41,
        "time": 44.022,
        "duration": 0.109,
        "velocity": 0.49,
        "hand": "left"
      },
      {
        "midi": 42,
        "time": 44.13,
        "duration": 0.217,
        "velocity": 0.49,
        "hand": "left"
      },
      {
        "midi": 64,
        "time": 44.13,
        "duration": 0.109,
        "velocity": 0.49,
        "hand": "right"
      },
      {
        "midi": 35,
        "time": 44.348,
        "duration": 0.217,
        "velocity": 0.49,
        "hand": "left"
      },
      {
        "midi": 66,
        "time": 44.348,
        "duration": 0.109,
        "velocity": 0.49,
        "hand": "right"
      },
      {
        "midi": 62,
        "time": 44.565,
        "duration": 0.109,
        "velocity": 0.49,
        "hand": "right"
      },
      {
        "midi": 42,
        "time": 44.783,
        "duration": 0.109,
        "velocity": 0.49,
        "hand": "left"
      },
      {
        "midi": 54,
        "time": 44.783,
        "duration": 0.217,
        "velocity": 0.49,
        "hand": "right"
      },
      {
        "midi": 66,
        "time": 44.783,
        "duration": 0.217,
        "velocity": 0.49,
        "hand": "right"
      },
      {
        "midi": 41,
        "time": 44.891,
        "duration": 0.109,
        "velocity": 0.49,
        "hand": "left"
      },
      {
        "midi": 42,
        "time": 45,
        "duration": 0.217,
        "velocity": 0.49,
        "hand": "left"
      },
      {
        "midi": 35,
        "time": 45.217,
        "duration": 0.217,
        "velocity": 0.49,
        "hand": "left"
      },
      {
        "midi": 65,
        "time": 45.217,
        "duration": 0.109,
        "velocity": 0.49,
        "hand": "right"
      },
      {
        "midi": 61,
        "time": 45.435,
        "duration": 0.109,
        "velocity": 0.49,
        "hand": "right"
      },
      {
        "midi": 42,
        "time": 45.652,
        "duration": 0.109,
        "velocity": 0.49,
        "hand": "left"
      },
      {
        "midi": 53,
        "time": 45.652,
        "duration": 0.217,
        "velocity": 0.49,
        "hand": "right"
      },
      {
        "midi": 65,
        "time": 45.652,
        "duration": 0.217,
        "velocity": 0.49,
        "hand": "right"
      },
      {
        "midi": 41,
        "time": 45.761,
        "duration": 0.109,
        "velocity": 0.49,
        "hand": "left"
      },
      {
        "midi": 42,
        "time": 45.87,
        "duration": 0.217,
        "velocity": 0.49,
        "hand": "left"
      },
      {
        "midi": 35,
        "time": 46.087,
        "duration": 0.217,
        "velocity": 0.49,
        "hand": "left"
      },
      {
        "midi": 64,
        "time": 46.087,
        "duration": 0.109,
        "velocity": 0.49,
        "hand": "right"
      },
      {
        "midi": 60,
        "time": 46.304,
        "duration": 0.109,
        "velocity": 0.49,
        "hand": "right"
      },
      {
        "midi": 42,
        "time": 46.522,
        "duration": 0.109,
        "velocity": 0.49,
        "hand": "left"
      },
      {
        "midi": 52,
        "time": 46.522,
        "duration": 0.217,
        "velocity": 0.49,
        "hand": "right"
      },
      {
        "midi": 64,
        "time": 46.522,
        "duration": 0.217,
        "velocity": 0.49,
        "hand": "right"
      },
      {
        "midi": 41,
        "time": 46.63,
        "duration": 0.109,
        "velocity": 0.49,
        "hand": "left"
      },
      {
        "midi": 42,
        "time": 46.739,
        "duration": 0.217,
        "velocity": 0.49,
        "hand": "left"
      },
      {
        "midi": 35,
        "time": 46.957,
        "duration": 0.217,
        "velocity": 0.49,
        "hand": "left"
      },
      {
        "midi": 59,
        "time": 46.957,
        "duration": 0.109,
        "velocity": 0.49,
        "hand": "right"
      },
      {
        "midi": 61,
        "time": 47.174,
        "duration": 0.109,
        "velocity": 0.49,
        "hand": "right"
      },
      {
        "midi": 42,
        "time": 47.391,
        "duration": 0.109,
        "velocity": 0.49,
        "hand": "left"
      },
      {
        "midi": 54,
        "time": 47.391,
        "duration": 0.109,
        "velocity": 0.49,
        "hand": "right"
      },
      {
        "midi": 62,
        "time": 47.391,
        "duration": 0.109,
        "velocity": 0.49,
        "hand": "right"
      },
      {
        "midi": 41,
        "time": 47.5,
        "duration": 0.109,
        "velocity": 0.49,
        "hand": "left"
      },
      {
        "midi": 42,
        "time": 47.609,
        "duration": 0.217,
        "velocity": 0.49,
        "hand": "left"
      },
      {
        "midi": 64,
        "time": 47.609,
        "duration": 0.109,
        "velocity": 0.49,
        "hand": "right"
      },
      {
        "midi": 35,
        "time": 47.826,
        "duration": 0.217,
        "velocity": 0.49,
        "hand": "left"
      },
      {
        "midi": 66,
        "time": 47.826,
        "duration": 0.109,
        "velocity": 0.49,
        "hand": "right"
      },
      {
        "midi": 62,
        "time": 48.043,
        "duration": 0.109,
        "velocity": 0.49,
        "hand": "right"
      },
      {
        "midi": 42,
        "time": 48.261,
        "duration": 0.109,
        "velocity": 0.49,
        "hand": "left"
      },
      {
        "midi": 50,
        "time": 48.261,
        "duration": 0.109,
        "velocity": 0.49,
        "hand": "left"
      },
      {
        "midi": 66,
        "time": 48.261,
        "duration": 0.109,
        "velocity": 0.49,
        "hand": "right"
      },
      {
        "midi": 41,
        "time": 48.37,
        "duration": 0.109,
        "velocity": 0.49,
        "hand": "left"
      },
      {
        "midi": 42,
        "time": 48.478,
        "duration": 0.217,
        "velocity": 0.49,
        "hand": "left"
      },
      {
        "midi": 71,
        "time": 48.478,
        "duration": 0.109,
        "velocity": 0.49,
        "hand": "right"
      },
      {
        "midi": 38,
        "time": 48.696,
        "duration": 0.217,
        "velocity": 0.49,
        "hand": "left"
      },
      {
        "midi": 69,
        "time": 48.696,
        "duration": 0.109,
        "velocity": 0.49,
        "hand": "right"
      },
      {
        "midi": 66,
        "time": 48.913,
        "duration": 0.109,
        "velocity": 0.49,
        "hand": "right"
      },
      {
        "midi": 45,
        "time": 49.13,
        "duration": 0.109,
        "velocity": 0.49,
        "hand": "left"
      },
      {
        "midi": 57,
        "time": 49.13,
        "duration": 0.109,
        "velocity": 0.49,
        "hand": "right"
      },
      {
        "midi": 62,
        "time": 49.13,
        "duration": 0.109,
        "velocity": 0.49,
        "hand": "right"
      },
      {
        "midi": 44,
        "time": 49.239,
        "duration": 0.109,
        "velocity": 0.49,
        "hand": "left"
      },
      {
        "midi": 45,
        "time": 49.348,
        "duration": 0.217,
        "velocity": 0.49,
        "hand": "left"
      },
      {
        "midi": 66,
        "time": 49.348,
        "duration": 0.109,
        "velocity": 0.49,
        "hand": "right"
      },
      {
        "midi": 38,
        "time": 49.565,
        "duration": 0.217,
        "velocity": 0.49,
        "hand": "left"
      },
      {
        "midi": 69,
        "time": 49.565,
        "duration": 0.761,
        "velocity": 0.49,
        "hand": "right"
      },
      {
        "midi": 45,
        "time": 50,
        "duration": 0.109,
        "velocity": 0.49,
        "hand": "left"
      },
      {
        "midi": 57,
        "time": 50,
        "duration": 0.326,
        "velocity": 0.71,
        "hand": "right"
      },
      {
        "midi": 62,
        "time": 50,
        "duration": 0.326,
        "velocity": 0.71,
        "hand": "right"
      },
      {
        "midi": 44,
        "time": 50.109,
        "duration": 0.109,
        "velocity": 0.49,
        "hand": "left"
      },
      {
        "midi": 45,
        "time": 50.217,
        "duration": 0.217,
        "velocity": 0.49,
        "hand": "left"
      },
      {
        "midi": 35,
        "time": 50.435,
        "duration": 0.217,
        "velocity": 0.49,
        "hand": "left"
      },
      {
        "midi": 71,
        "time": 50.435,
        "duration": 0.109,
        "velocity": 0.49,
        "hand": "right"
      },
      {
        "midi": 73,
        "time": 50.652,
        "duration": 0.109,
        "velocity": 0.49,
        "hand": "right"
      },
      {
        "midi": 42,
        "time": 50.87,
        "duration": 0.109,
        "velocity": 0.49,
        "hand": "left"
      },
      {
        "midi": 66,
        "time": 50.87,
        "duration": 0.326,
        "velocity": 0.71,
        "hand": "right"
      },
      {
        "midi": 74,
        "time": 50.87,
        "duration": 0.109,
        "velocity": 0.71,
        "hand": "right"
      },
      {
        "midi": 41,
        "time": 50.978,
        "duration": 0.109,
        "velocity": 0.49,
        "hand": "left"
      },
      {
        "midi": 42,
        "time": 51.087,
        "duration": 0.217,
        "velocity": 0.49,
        "hand": "left"
      },
      {
        "midi": 76,
        "time": 51.087,
        "duration": 0.109,
        "velocity": 0.71,
        "hand": "right"
      },
      {
        "midi": 35,
        "time": 51.304,
        "duration": 0.217,
        "velocity": 0.49,
        "hand": "left"
      },
      {
        "midi": 78,
        "time": 51.304,
        "duration": 0.109,
        "velocity": 0.49,
        "hand": "right"
      },
      {
        "midi": 74,
        "time": 51.522,
        "duration": 0.109,
        "velocity": 0.49,
        "hand": "right"
      },
      {
        "midi": 42,
        "time": 51.739,
        "duration": 0.109,
        "velocity": 0.49,
        "hand": "left"
      },
      {
        "midi": 66,
        "time": 51.739,
        "duration": 0.326,
        "velocity": 0.71,
        "hand": "right"
      },
      {
        "midi": 78,
        "time": 51.739,
        "duration": 0.217,
        "velocity": 0.71,
        "hand": "right"
      },
      {
        "midi": 41,
        "time": 51.848,
        "duration": 0.109,
        "velocity": 0.49,
        "hand": "left"
      },
      {
        "midi": 42,
        "time": 51.957,
        "duration": 0.217,
        "velocity": 0.49,
        "hand": "left"
      },
      {
        "midi": 35,
        "time": 52.174,
        "duration": 0.217,
        "velocity": 0.49,
        "hand": "left"
      },
      {
        "midi": 77,
        "time": 52.174,
        "duration": 0.109,
        "velocity": 0.49,
        "hand": "right"
      },
      {
        "midi": 73,
        "time": 52.391,
        "duration": 0.109,
        "velocity": 0.49,
        "hand": "right"
      },
      {
        "midi": 42,
        "time": 52.609,
        "duration": 0.109,
        "velocity": 0.49,
        "hand": "left"
      },
      {
        "midi": 66,
        "time": 52.609,
        "duration": 0.326,
        "velocity": 0.71,
        "hand": "right"
      },
      {
        "midi": 77,
        "time": 52.609,
        "duration": 0.217,
        "velocity": 0.71,
        "hand": "right"
      },
      {
        "midi": 41,
        "time": 52.717,
        "duration": 0.109,
        "velocity": 0.49,
        "hand": "left"
      },
      {
        "midi": 42,
        "time": 52.826,
        "duration": 0.217,
        "velocity": 0.49,
        "hand": "left"
      },
      {
        "midi": 35,
        "time": 53.043,
        "duration": 0.217,
        "velocity": 0.49,
        "hand": "left"
      },
      {
        "midi": 76,
        "time": 53.043,
        "duration": 0.109,
        "velocity": 0.49,
        "hand": "right"
      },
      {
        "midi": 72,
        "time": 53.261,
        "duration": 0.109,
        "velocity": 0.49,
        "hand": "right"
      },
      {
        "midi": 42,
        "time": 53.478,
        "duration": 0.109,
        "velocity": 0.49,
        "hand": "left"
      },
      {
        "midi": 66,
        "time": 53.478,
        "duration": 0.326,
        "velocity": 0.71,
        "hand": "right"
      },
      {
        "midi": 76,
        "time": 53.478,
        "duration": 0.217,
        "velocity": 0.71,
        "hand": "right"
      },
      {
        "midi": 41,
        "time": 53.587,
        "duration": 0.109,
        "velocity": 0.49,
        "hand": "left"
      },
      {
        "midi": 42,
        "time": 53.696,
        "duration": 0.217,
        "velocity": 0.49,
        "hand": "left"
      },
      {
        "midi": 35,
        "time": 53.913,
        "duration": 0.217,
        "velocity": 0.49,
        "hand": "left"
      },
      {
        "midi": 71,
        "time": 53.913,
        "duration": 0.109,
        "velocity": 0.49,
        "hand": "right"
      },
      {
        "midi": 73,
        "time": 54.13,
        "duration": 0.109,
        "velocity": 0.49,
        "hand": "right"
      },
      {
        "midi": 42,
        "time": 54.348,
        "duration": 0.109,
        "velocity": 0.49,
        "hand": "left"
      },
      {
        "midi": 66,
        "time": 54.348,
        "duration": 0.326,
        "velocity": 0.71,
        "hand": "right"
      },
      {
        "midi": 74,
        "time": 54.348,
        "duration": 0.109,
        "velocity": 0.71,
        "hand": "right"
      },
      {
        "midi": 41,
        "time": 54.457,
        "duration": 0.109,
        "velocity": 0.49,
        "hand": "left"
      },
      {
        "midi": 42,
        "time": 54.565,
        "duration": 0.217,
        "velocity": 0.49,
        "hand": "left"
      },
      {
        "midi": 76,
        "time": 54.565,
        "duration": 0.109,
        "velocity": 0.71,
        "hand": "right"
      },
      {
        "midi": 35,
        "time": 54.783,
        "duration": 0.217,
        "velocity": 0.49,
        "hand": "left"
      },
      {
        "midi": 78,
        "time": 54.783,
        "duration": 0.109,
        "velocity": 0.49,
        "hand": "right"
      },
      {
        "midi": 74,
        "time": 55,
        "duration": 0.109,
        "velocity": 0.49,
        "hand": "right"
      },
      {
        "midi": 42,
        "time": 55.217,
        "duration": 0.109,
        "velocity": 0.49,
        "hand": "left"
      },
      {
        "midi": 50,
        "time": 55.217,
        "duration": 0.109,
        "velocity": 0.49,
        "hand": "left"
      },
      {
        "midi": 78,
        "time": 55.217,
        "duration": 0.109,
        "velocity": 0.49,
        "hand": "right"
      },
      {
        "midi": 41,
        "time": 55.326,
        "duration": 0.109,
        "velocity": 0.49,
        "hand": "left"
      },
      {
        "midi": 42,
        "time": 55.435,
        "duration": 0.217,
        "velocity": 0.49,
        "hand": "left"
      },
      {
        "midi": 83,
        "time": 55.435,
        "duration": 0.109,
        "velocity": 0.49,
        "hand": "right"
      },
      {
        "midi": 38,
        "time": 55.652,
        "duration": 0.217,
        "velocity": 0.49,
        "hand": "left"
      },
      {
        "midi": 81,
        "time": 55.652,
        "duration": 0.109,
        "velocity": 0.49,
        "hand": "right"
      },
      {
        "midi": 78,
        "time": 55.87,
        "duration": 0.109,
        "velocity": 0.49,
        "hand": "right"
      },
      {
        "midi": 45,
        "time": 56.087,
        "duration": 0.109,
        "velocity": 0.49,
        "hand": "left"
      },
      {
        "midi": 69,
        "time": 56.087,
        "duration": 0.326,
        "velocity": 0.71,
        "hand": "right"
      },
      {
        "midi": 74,
        "time": 56.087,
        "duration": 0.109,
        "velocity": 0.71,
        "hand": "right"
      },
      {
        "midi": 44,
        "time": 56.196,
        "duration": 0.109,
        "velocity": 0.49,
        "hand": "left"
      },
      {
        "midi": 45,
        "time": 56.304,
        "duration": 0.217,
        "velocity": 0.49,
        "hand": "left"
      },
      {
        "midi": 78,
        "time": 56.304,
        "duration": 0.109,
        "velocity": 0.71,
        "hand": "right"
      },
      {
        "midi": 38,
        "time": 56.522,
        "duration": 0.217,
        "velocity": 0.49,
        "hand": "left"
      },
      {
        "midi": 81,
        "time": 56.522,
        "duration": 0.761,
        "velocity": 0.49,
        "hand": "right"
      },
      {
        "midi": 45,
        "time": 56.957,
        "duration": 0.109,
        "velocity": 0.49,
        "hand": "left"
      },
      {
        "midi": 69,
        "time": 56.957,
        "duration": 0.326,
        "velocity": 0.71,
        "hand": "right"
      },
      {
        "midi": 74,
        "time": 56.957,
        "duration": 0.326,
        "velocity": 0.71,
        "hand": "right"
      },
      {
        "midi": 44,
        "time": 57.065,
        "duration": 0.109,
        "velocity": 0.49,
        "hand": "left"
      },
      {
        "midi": 45,
        "time": 57.174,
        "duration": 0.217,
        "velocity": 0.49,
        "hand": "left"
      },
      {
        "midi": 42,
        "time": 57.391,
        "duration": 0.217,
        "velocity": 0.49,
        "hand": "left"
      },
      {
        "midi": 66,
        "time": 57.391,
        "duration": 0.109,
        "velocity": 0.5,
        "hand": "right"
      },
      {
        "midi": 68,
        "time": 57.609,
        "duration": 0.109,
        "velocity": 0.5,
        "hand": "right"
      },
      {
        "midi": 49,
        "time": 57.826,
        "duration": 0.109,
        "velocity": 0.49,
        "hand": "left"
      },
      {
        "midi": 66,
        "time": 57.826,
        "duration": 0.326,
        "velocity": 0.71,
        "hand": "right"
      },
      {
        "midi": 70,
        "time": 57.826,
        "duration": 0.109,
        "velocity": 0.5,
        "hand": "right"
      },
      {
        "midi": 48,
        "time": 57.935,
        "duration": 0.109,
        "velocity": 0.49,
        "hand": "left"
      },
      {
        "midi": 49,
        "time": 58.043,
        "duration": 0.217,
        "velocity": 0.49,
        "hand": "left"
      },
      {
        "midi": 71,
        "time": 58.043,
        "duration": 0.109,
        "velocity": 0.5,
        "hand": "right"
      },
      {
        "midi": 42,
        "time": 58.261,
        "duration": 0.217,
        "velocity": 0.49,
        "hand": "left"
      },
      {
        "midi": 73,
        "time": 58.261,
        "duration": 0.109,
        "velocity": 0.5,
        "hand": "right"
      },
      {
        "midi": 70,
        "time": 58.478,
        "duration": 0.109,
        "velocity": 0.51,
        "hand": "right"
      },
      {
        "midi": 49,
        "time": 58.696,
        "duration": 0.109,
        "velocity": 0.49,
        "hand": "left"
      },
      {
        "midi": 66,
        "time": 58.696,
        "duration": 0.326,
        "velocity": 0.71,
        "hand": "right"
      },
      {
        "midi": 73,
        "time": 58.696,
        "duration": 0.326,
        "velocity": 0.51,
        "hand": "right"
      },
      {
        "midi": 48,
        "time": 58.804,
        "duration": 0.109,
        "velocity": 0.49,
        "hand": "left"
      },
      {
        "midi": 49,
        "time": 58.913,
        "duration": 0.217,
        "velocity": 0.49,
        "hand": "left"
      },
      {
        "midi": 38,
        "time": 59.13,
        "duration": 0.217,
        "velocity": 0.49,
        "hand": "left"
      },
      {
        "midi": 74,
        "time": 59.13,
        "duration": 0.109,
        "velocity": 0.52,
        "hand": "right"
      },
      {
        "midi": 70,
        "time": 59.348,
        "duration": 0.109,
        "velocity": 0.52,
        "hand": "right"
      },
      {
        "midi": 50,
        "time": 59.565,
        "duration": 0.109,
        "velocity": 0.49,
        "hand": "left"
      },
      {
        "midi": 66,
        "time": 59.565,
        "duration": 0.326,
        "velocity": 0.71,
        "hand": "right"
      },
      {
        "midi": 74,
        "time": 59.565,
        "duration": 0.326,
        "velocity": 0.53,
        "hand": "right"
      },
      {
        "midi": 49,
        "time": 59.674,
        "duration": 0.109,
        "velocity": 0.49,
        "hand": "left"
      },
      {
        "midi": 50,
        "time": 59.783,
        "duration": 0.217,
        "velocity": 0.49,
        "hand": "left"
      },
      {
        "midi": 42,
        "time": 60,
        "duration": 0.217,
        "velocity": 0.49,
        "hand": "left"
      },
      {
        "midi": 73,
        "time": 60,
        "duration": 0.109,
        "velocity": 0.53,
        "hand": "right"
      },
      {
        "midi": 70,
        "time": 60.217,
        "duration": 0.109,
        "velocity": 0.54,
        "hand": "right"
      },
      {
        "midi": 49,
        "time": 60.435,
        "duration": 0.109,
        "velocity": 0.49,
        "hand": "left"
      },
      {
        "midi": 66,
        "time": 60.435,
        "duration": 0.326,
        "velocity": 0.71,
        "hand": "right"
      },
      {
        "midi": 73,
        "time": 60.435,
        "duration": 0.326,
        "velocity": 0.54,
        "hand": "right"
      },
      {
        "midi": 48,
        "time": 60.543,
        "duration": 0.109,
        "velocity": 0.49,
        "hand": "left"
      },
      {
        "midi": 49,
        "time": 60.652,
        "duration": 0.217,
        "velocity": 0.49,
        "hand": "left"
      },
      {
        "midi": 42,
        "time": 60.87,
        "duration": 0.217,
        "velocity": 0.49,
        "hand": "left"
      },
      {
        "midi": 66,
        "time": 60.87,
        "duration": 0.109,
        "velocity": 0.54,
        "hand": "right"
      },
      {
        "midi": 68,
        "time": 61.087,
        "duration": 0.109,
        "velocity": 0.54,
        "hand": "right"
      },
      {
        "midi": 49,
        "time": 61.304,
        "duration": 0.109,
        "velocity": 0.49,
        "hand": "left"
      },
      {
        "midi": 66,
        "time": 61.304,
        "duration": 0.326,
        "velocity": 0.71,
        "hand": "right"
      },
      {
        "midi": 70,
        "time": 61.304,
        "duration": 0.109,
        "velocity": 0.54,
        "hand": "right"
      },
      {
        "midi": 48,
        "time": 61.413,
        "duration": 0.109,
        "velocity": 0.49,
        "hand": "left"
      },
      {
        "midi": 49,
        "time": 61.522,
        "duration": 0.217,
        "velocity": 0.49,
        "hand": "left"
      },
      {
        "midi": 71,
        "time": 61.522,
        "duration": 0.109,
        "velocity": 0.55,
        "hand": "right"
      },
      {
        "midi": 42,
        "time": 61.739,
        "duration": 0.217,
        "velocity": 0.49,
        "hand": "left"
      },
      {
        "midi": 73,
        "time": 61.739,
        "duration": 0.109,
        "velocity": 0.55,
        "hand": "right"
      },
      {
        "midi": 70,
        "time": 61.957,
        "duration": 0.109,
        "velocity": 0.56,
        "hand": "right"
      },
      {
        "midi": 49,
        "time": 62.174,
        "duration": 0.109,
        "velocity": 0.49,
        "hand": "left"
      },
      {
        "midi": 66,
        "time": 62.174,
        "duration": 0.326,
        "velocity": 0.71,
        "hand": "right"
      },
      {
        "midi": 73,
        "time": 62.174,
        "duration": 0.326,
        "velocity": 0.56,
        "hand": "right"
      },
      {
        "midi": 48,
        "time": 62.283,
        "duration": 0.109,
        "velocity": 0.49,
        "hand": "left"
      },
      {
        "midi": 49,
        "time": 62.391,
        "duration": 0.217,
        "velocity": 0.49,
        "hand": "left"
      },
      {
        "midi": 38,
        "time": 62.609,
        "duration": 0.217,
        "velocity": 0.49,
        "hand": "left"
      },
      {
        "midi": 74,
        "time": 62.609,
        "duration": 0.109,
        "velocity": 0.57,
        "hand": "right"
      },
      {
        "midi": 70,
        "time": 62.826,
        "duration": 0.109,
        "velocity": 0.57,
        "hand": "right"
      },
      {
        "midi": 50,
        "time": 63.043,
        "duration": 0.109,
        "velocity": 0.49,
        "hand": "left"
      },
      {
        "midi": 66,
        "time": 63.043,
        "duration": 0.326,
        "velocity": 0.71,
        "hand": "right"
      },
      {
        "midi": 74,
        "time": 63.043,
        "duration": 0.326,
        "velocity": 0.57,
        "hand": "right"
      },
      {
        "midi": 49,
        "time": 63.152,
        "duration": 0.109,
        "velocity": 0.49,
        "hand": "left"
      },
      {
        "midi": 50,
        "time": 63.261,
        "duration": 0.217,
        "velocity": 0.49,
        "hand": "left"
      },
      {
        "midi": 42,
        "time": 63.478,
        "duration": 0.217,
        "velocity": 0.49,
        "hand": "left"
      },
      {
        "midi": 73,
        "time": 63.478,
        "duration": 0.761,
        "velocity": 0.57,
        "hand": "right"
      },
      {
        "midi": 49,
        "time": 63.913,
        "duration": 0.109,
        "velocity": 0.49,
        "hand": "left"
      },
      {
        "midi": 66,
        "time": 63.913,
        "duration": 0.326,
        "velocity": 0.71,
        "hand": "right"
      },
      {
        "midi": 70,
        "time": 63.913,
        "duration": 0.326,
        "velocity": 0.71,
        "hand": "right"
      },
      {
        "midi": 48,
        "time": 64.022,
        "duration": 0.109,
        "velocity": 0.49,
        "hand": "left"
      },
      {
        "midi": 49,
        "time": 64.13,
        "duration": 0.217,
        "velocity": 0.49,
        "hand": "left"
      },
      {
        "midi": 42,
        "time": 64.348,
        "duration": 0.217,
        "velocity": 0.49,
        "hand": "left"
      },
      {
        "midi": 78,
        "time": 64.348,
        "duration": 0.109,
        "velocity": 0.58,
        "hand": "right"
      },
      {
        "midi": 80,
        "time": 64.565,
        "duration": 0.109,
        "velocity": 0.59,
        "hand": "right"
      },
      {
        "midi": 49,
        "time": 64.783,
        "duration": 0.109,
        "velocity": 0.49,
        "hand": "left"
      },
      {
        "midi": 78,
        "time": 64.783,
        "duration": 0.109,
        "velocity": 0.59,
        "hand": "right"
      },
      {
        "midi": 82,
        "time": 64.783,
        "duration": 0.109,
        "velocity": 0.59,
        "hand": "right"
      },
      {
        "midi": 48,
        "time": 64.891,
        "duration": 0.109,
        "velocity": 0.49,
        "hand": "left"
      },
      {
        "midi": 49,
        "time": 65,
        "duration": 0.217,
        "velocity": 0.49,
        "hand": "left"
      },
      {
        "midi": 83,
        "time": 65,
        "duration": 0.109,
        "velocity": 0.6,
        "hand": "right"
      },
      {
        "midi": 42,
        "time": 65.217,
        "duration": 0.217,
        "velocity": 0.49,
        "hand": "left"
      },
      {
        "midi": 85,
        "time": 65.217,
        "duration": 0.109,
        "velocity": 0.6,
        "hand": "right"
      },
      {
        "midi": 82,
        "time": 65.435,
        "duration": 0.109,
        "velocity": 0.6,
        "hand": "right"
      },
      {
        "midi": 49,
        "time": 65.652,
        "duration": 0.109,
        "velocity": 0.49,
        "hand": "left"
      },
      {
        "midi": 78,
        "time": 65.652,
        "duration": 0.217,
        "velocity": 0.61,
        "hand": "right"
      },
      {
        "midi": 85,
        "time": 65.652,
        "duration": 0.217,
        "velocity": 0.61,
        "hand": "right"
      },
      {
        "midi": 48,
        "time": 65.761,
        "duration": 0.109,
        "velocity": 0.49,
        "hand": "left"
      },
      {
        "midi": 49,
        "time": 65.87,
        "duration": 0.217,
        "velocity": 0.49,
        "hand": "left"
      },
      {
        "midi": 38,
        "time": 66.087,
        "duration": 0.217,
        "velocity": 0.49,
        "hand": "left"
      },
      {
        "midi": 86,
        "time": 66.087,
        "duration": 0.109,
        "velocity": 0.61,
        "hand": "right"
      },
      {
        "midi": 82,
        "time": 66.304,
        "duration": 0.109,
        "velocity": 0.61,
        "hand": "right"
      },
      {
        "midi": 50,
        "time": 66.522,
        "duration": 0.109,
        "velocity": 0.49,
        "hand": "left"
      },
      {
        "midi": 78,
        "time": 66.522,
        "duration": 0.217,
        "velocity": 0.61,
        "hand": "right"
      },
      {
        "midi": 86,
        "time": 66.522,
        "duration": 0.217,
        "velocity": 0.61,
        "hand": "right"
      },
      {
        "midi": 49,
        "time": 66.63,
        "duration": 0.109,
        "velocity": 0.49,
        "hand": "left"
      },
      {
        "midi": 50,
        "time": 66.739,
        "duration": 0.217,
        "velocity": 0.49,
        "hand": "left"
      },
      {
        "midi": 42,
        "time": 66.957,
        "duration": 0.217,
        "velocity": 0.49,
        "hand": "left"
      },
      {
        "midi": 85,
        "time": 66.957,
        "duration": 0.109,
        "velocity": 0.62,
        "hand": "right"
      },
      {
        "midi": 82,
        "time": 67.174,
        "duration": 0.109,
        "velocity": 0.62,
        "hand": "right"
      },
      {
        "midi": 49,
        "time": 67.391,
        "duration": 0.109,
        "velocity": 0.49,
        "hand": "left"
      },
      {
        "midi": 78,
        "time": 67.391,
        "duration": 0.217,
        "velocity": 0.62,
        "hand": "right"
      },
      {
        "midi": 85,
        "time": 67.391,
        "duration": 0.217,
        "velocity": 0.62,
        "hand": "right"
      },
      {
        "midi": 48,
        "time": 67.5,
        "duration": 0.109,
        "velocity": 0.49,
        "hand": "left"
      },
      {
        "midi": 49,
        "time": 67.609,
        "duration": 0.217,
        "velocity": 0.49,
        "hand": "left"
      },
      {
        "midi": 42,
        "time": 67.826,
        "duration": 0.217,
        "velocity": 0.49,
        "hand": "left"
      },
      {
        "midi": 78,
        "time": 67.826,
        "duration": 0.109,
        "velocity": 0.63,
        "hand": "right"
      },
      {
        "midi": 80,
        "time": 68.043,
        "duration": 0.109,
        "velocity": 0.64,
        "hand": "right"
      },
      {
        "midi": 49,
        "time": 68.261,
        "duration": 0.109,
        "velocity": 0.49,
        "hand": "left"
      },
      {
        "midi": 78,
        "time": 68.261,
        "duration": 0.109,
        "velocity": 0.64,
        "hand": "right"
      },
      {
        "midi": 82,
        "time": 68.261,
        "duration": 0.109,
        "velocity": 0.64,
        "hand": "right"
      },
      {
        "midi": 48,
        "time": 68.37,
        "duration": 0.109,
        "velocity": 0.49,
        "hand": "left"
      },
      {
        "midi": 49,
        "time": 68.478,
        "duration": 0.217,
        "velocity": 0.49,
        "hand": "left"
      },
      {
        "midi": 83,
        "time": 68.478,
        "duration": 0.109,
        "velocity": 0.64,
        "hand": "right"
      },
      {
        "midi": 42,
        "time": 68.696,
        "duration": 0.217,
        "velocity": 0.49,
        "hand": "left"
      },
      {
        "midi": 85,
        "time": 68.696,
        "duration": 0.109,
        "velocity": 0.65,
        "hand": "right"
      },
      {
        "midi": 82,
        "time": 68.913,
        "duration": 0.109,
        "velocity": 0.65,
        "hand": "right"
      },
      {
        "midi": 49,
        "time": 69.13,
        "duration": 0.109,
        "velocity": 0.49,
        "hand": "left"
      },
      {
        "midi": 78,
        "time": 69.13,
        "duration": 0.217,
        "velocity": 0.65,
        "hand": "right"
      },
      {
        "midi": 85,
        "time": 69.13,
        "duration": 0.217,
        "velocity": 0.65,
        "hand": "right"
      },
      {
        "midi": 48,
        "time": 69.239,
        "duration": 0.109,
        "velocity": 0.49,
        "hand": "left"
      },
      {
        "midi": 49,
        "time": 69.348,
        "duration": 0.217,
        "velocity": 0.49,
        "hand": "left"
      },
      {
        "midi": 38,
        "time": 69.565,
        "duration": 0.217,
        "velocity": 0.49,
        "hand": "left"
      },
      {
        "midi": 86,
        "time": 69.565,
        "duration": 0.109,
        "velocity": 0.65,
        "hand": "right"
      },
      {
        "midi": 82,
        "time": 69.783,
        "duration": 0.109,
        "velocity": 0.65,
        "hand": "right"
      },
      {
        "midi": 50,
        "time": 70,
        "duration": 0.109,
        "velocity": 0.49,
        "hand": "left"
      },
      {
        "midi": 78,
        "time": 70,
        "duration": 0.217,
        "velocity": 0.66,
        "hand": "right"
      },
      {
        "midi": 86,
        "time": 70,
        "duration": 0.217,
        "velocity": 0.66,
        "hand": "right"
      },
      {
        "midi": 49,
        "time": 70.109,
        "duration": 0.109,
        "velocity": 0.49,
        "hand": "left"
      },
      {
        "midi": 50,
        "time": 70.217,
        "duration": 0.217,
        "velocity": 0.49,
        "hand": "left"
      },
      {
        "midi": 42,
        "time": 70.435,
        "duration": 0.217,
        "velocity": 0.49,
        "hand": "left"
      },
      {
        "midi": 85,
        "time": 70.435,
        "duration": 0.761,
        "velocity": 0.66,
        "hand": "right"
      },
      {
        "midi": 49,
        "time": 70.87,
        "duration": 0.109,
        "velocity": 0.49,
        "hand": "left"
      },
      {
        "midi": 78,
        "time": 70.87,
        "duration": 0.326,
        "velocity": 0.71,
        "hand": "right"
      },
      {
        "midi": 82,
        "time": 70.87,
        "duration": 0.326,
        "velocity": 0.71,
        "hand": "right"
      },
      {
        "midi": 48,
        "time": 70.978,
        "duration": 0.109,
        "velocity": 0.49,
        "hand": "left"
      },
      {
        "midi": 49,
        "time": 71.087,
        "duration": 0.217,
        "velocity": 0.49,
        "hand": "left"
      },
      {
        "midi": 35,
        "time": 71.304,
        "duration": 0.109,
        "velocity": 0.49,
        "hand": "left"
      },
      {
        "midi": 59,
        "time": 71.304,
        "duration": 0.109,
        "velocity": 0.68,
        "hand": "right"
      },
      {
        "midi": 41,
        "time": 71.413,
        "duration": 0.109,
        "velocity": 0.49,
        "hand": "left"
      },
      {
        "midi": 61,
        "time": 71.522,
        "duration": 0.109,
        "velocity": 0.68,
        "hand": "right"
      },
      {
        "midi": 42,
        "time": 71.63,
        "duration": 0.109,
        "velocity": 0.49,
        "hand": "left"
      },
      {
        "midi": 50,
        "time": 71.739,
        "duration": 0.109,
        "velocity": 0.49,
        "hand": "left"
      },
      {
        "midi": 54,
        "time": 71.739,
        "duration": 0.109,
        "velocity": 0.68,
        "hand": "right"
      },
      {
        "midi": 62,
        "time": 71.739,
        "duration": 0.109,
        "velocity": 0.68,
        "hand": "right"
      },
      {
        "midi": 41,
        "time": 71.848,
        "duration": 0.109,
        "velocity": 0.49,
        "hand": "left"
      },
      {
        "midi": 64,
        "time": 71.957,
        "duration": 0.109,
        "velocity": 0.68,
        "hand": "right"
      },
      {
        "midi": 42,
        "time": 72.065,
        "duration": 0.109,
        "velocity": 0.49,
        "hand": "left"
      },
      {
        "midi": 35,
        "time": 72.174,
        "duration": 0.109,
        "velocity": 0.49,
        "hand": "left"
      },
      {
        "midi": 66,
        "time": 72.174,
        "duration": 0.109,
        "velocity": 0.69,
        "hand": "right"
      },
      {
        "midi": 41,
        "time": 72.283,
        "duration": 0.109,
        "velocity": 0.49,
        "hand": "left"
      },
      {
        "midi": 62,
        "time": 72.391,
        "duration": 0.109,
        "velocity": 0.69,
        "hand": "right"
      },
      {
        "midi": 42,
        "time": 72.5,
        "duration": 0.109,
        "velocity": 0.49,
        "hand": "left"
      },
      {
        "midi": 50,
        "time": 72.609,
        "duration": 0.109,
        "velocity": 0.49,
        "hand": "left"
      },
      {
        "midi": 54,
        "time": 72.609,
        "duration": 0.217,
        "velocity": 0.69,
        "hand": "right"
      },
      {
        "midi": 66,
        "time": 72.609,
        "duration": 0.217,
        "velocity": 0.69,
        "hand": "right"
      },
      {
        "midi": 41,
        "time": 72.717,
        "duration": 0.109,
        "velocity": 0.49,
        "hand": "left"
      },
      {
        "midi": 42,
        "time": 72.935,
        "duration": 0.109,
        "velocity": 0.49,
        "hand": "left"
      },
      {
        "midi": 35,
        "time": 73.043,
        "duration": 0.109,
        "velocity": 0.49,
        "hand": "left"
      },
      {
        "midi": 65,
        "time": 73.043,
        "duration": 0.109,
        "velocity": 0.69,
        "hand": "right"
      },
      {
        "midi": 41,
        "time": 73.152,
        "duration": 0.109,
        "velocity": 0.49,
        "hand": "left"
      },
      {
        "midi": 61,
        "time": 73.261,
        "duration": 0.109,
        "velocity": 0.69,
        "hand": "right"
      },
      {
        "midi": 42,
        "time": 73.37,
        "duration": 0.109,
        "velocity": 0.49,
        "hand": "left"
      },
      {
        "midi": 49,
        "time": 73.478,
        "duration": 0.109,
        "velocity": 0.49,
        "hand": "left"
      },
      {
        "midi": 54,
        "time": 73.478,
        "duration": 0.217,
        "velocity": 0.69,
        "hand": "right"
      },
      {
        "midi": 65,
        "time": 73.478,
        "duration": 0.217,
        "velocity": 0.69,
        "hand": "right"
      },
      {
        "midi": 41,
        "time": 73.587,
        "duration": 0.109,
        "velocity": 0.49,
        "hand": "left"
      },
      {
        "midi": 42,
        "time": 73.804,
        "duration": 0.109,
        "velocity": 0.49,
        "hand": "left"
      },
      {
        "midi": 35,
        "time": 73.913,
        "duration": 0.109,
        "velocity": 0.49,
        "hand": "left"
      },
      {
        "midi": 64,
        "time": 73.913,
        "duration": 0.109,
        "velocity": 0.7,
        "hand": "right"
      },
      {
        "midi": 41,
        "time": 74.022,
        "duration": 0.109,
        "velocity": 0.49,
        "hand": "left"
      },
      {
        "midi": 60,
        "time": 74.13,
        "duration": 0.109,
        "velocity": 0.7,
        "hand": "right"
      },
      {
        "midi": 42,
        "time": 74.239,
        "duration": 0.109,
        "velocity": 0.49,
        "hand": "left"
      },
      {
        "midi": 48,
        "time": 74.348,
        "duration": 0.109,
        "velocity": 0.49,
        "hand": "left"
      },
      {
        "midi": 54,
        "time": 74.348,
        "duration": 0.217,
        "velocity": 0.7,
        "hand": "right"
      },
      {
        "midi": 65,
        "time": 74.348,
        "duration": 0.217,
        "velocity": 0.7,
        "hand": "right"
      },
      {
        "midi": 41,
        "time": 74.457,
        "duration": 0.109,
        "velocity": 0.49,
        "hand": "left"
      },
      {
        "midi": 42,
        "time": 74.674,
        "duration": 0.109,
        "velocity": 0.49,
        "hand": "left"
      },
      {
        "midi": 35,
        "time": 74.783,
        "duration": 0.109,
        "velocity": 0.49,
        "hand": "left"
      },
      {
        "midi": 59,
        "time": 74.783,
        "duration": 0.109,
        "velocity": 0.7,
        "hand": "right"
      },
      {
        "midi": 41,
        "time": 74.891,
        "duration": 0.109,
        "velocity": 0.49,
        "hand": "left"
      },
      {
        "midi": 61,
        "time": 75,
        "duration": 0.109,
        "velocity": 0.71,
        "hand": "right"
      },
      {
        "midi": 42,
        "time": 75.109,
        "duration": 0.109,
        "velocity": 0.49,
        "hand": "left"
      },
      {
        "midi": 50,
        "time": 75.217,
        "duration": 0.109,
        "velocity": 0.49,
        "hand": "left"
      },
      {
        "midi": 54,
        "time": 75.217,
        "duration": 0.109,
        "velocity": 0.71,
        "hand": "right"
      },
      {
        "midi": 62,
        "time": 75.217,
        "duration": 0.109,
        "velocity": 0.71,
        "hand": "right"
      },
      {
        "midi": 41,
        "time": 75.326,
        "duration": 0.109,
        "velocity": 0.49,
        "hand": "left"
      },
      {
        "midi": 64,
        "time": 75.435,
        "duration": 0.109,
        "velocity": 0.71,
        "hand": "right"
      },
      {
        "midi": 42,
        "time": 75.543,
        "duration": 0.109,
        "velocity": 0.49,
        "hand": "left"
      },
      {
        "midi": 35,
        "time": 75.652,
        "duration": 0.109,
        "velocity": 0.49,
        "hand": "left"
      },
      {
        "midi": 66,
        "time": 75.652,
        "duration": 0.109,
        "velocity": 0.71,
        "hand": "right"
      },
      {
        "midi": 41,
        "time": 75.761,
        "duration": 0.109,
        "velocity": 0.49,
        "hand": "left"
      },
      {
        "midi": 62,
        "time": 75.87,
        "duration": 0.109,
        "velocity": 0.72,
        "hand": "right"
      },
      {
        "midi": 42,
        "time": 75.978,
        "duration": 0.109,
        "velocity": 0.49,
        "hand": "left"
      },
      {
        "midi": 50,
        "time": 76.087,
        "duration": 0.109,
        "velocity": 0.49,
        "hand": "left"
      },
      {
        "midi": 59,
        "time": 76.087,
        "duration": 0.109,
        "velocity": 0.72,
        "hand": "right"
      },
      {
        "midi": 66,
        "time": 76.087,
        "duration": 0.109,
        "velocity": 0.72,
        "hand": "right"
      },
      {
        "midi": 41,
        "time": 76.196,
        "duration": 0.109,
        "velocity": 0.49,
        "hand": "left"
      },
      {
        "midi": 71,
        "time": 76.304,
        "duration": 0.109,
        "velocity": 0.72,
        "hand": "right"
      },
      {
        "midi": 42,
        "time": 76.413,
        "duration": 0.109,
        "velocity": 0.49,
        "hand": "left"
      },
      {
        "midi": 38,
        "time": 76.522,
        "duration": 0.109,
        "velocity": 0.49,
        "hand": "left"
      },
      {
        "midi": 69,
        "time": 76.522,
        "duration": 0.109,
        "velocity": 0.72,
        "hand": "right"
      },
      {
        "midi": 44,
        "time": 76.63,
        "duration": 0.109,
        "velocity": 0.49,
        "hand": "left"
      },
      {
        "midi": 66,
        "time": 76.739,
        "duration": 0.109,
        "velocity": 0.72,
        "hand": "right"
      },
      {
        "midi": 45,
        "time": 76.848,
        "duration": 0.109,
        "velocity": 0.49,
        "hand": "left"
      },
      {
        "midi": 54,
        "time": 76.957,
        "duration": 0.109,
        "velocity": 0.49,
        "hand": "left"
      },
      {
        "midi": 57,
        "time": 76.957,
        "duration": 0.109,
        "velocity": 0.72,
        "hand": "right"
      },
      {
        "midi": 64,
        "time": 76.957,
        "duration": 0.109,
        "velocity": 0.72,
        "hand": "right"
      },
      {
        "midi": 44,
        "time": 77.065,
        "duration": 0.109,
        "velocity": 0.49,
        "hand": "left"
      },
      {
        "midi": 66,
        "time": 77.174,
        "duration": 0.109,
        "velocity": 0.72,
        "hand": "right"
      },
      {
        "midi": 45,
        "time": 77.283,
        "duration": 0.109,
        "velocity": 0.49,
        "hand": "left"
      },
      {
        "midi": 38,
        "time": 77.391,
        "duration": 0.109,
        "velocity": 0.49,
        "hand": "left"
      },
      {
        "midi": 69,
        "time": 77.391,
        "duration": 0.761,
        "velocity": 0.72,
        "hand": "right"
      },
      {
        "midi": 44,
        "time": 77.5,
        "duration": 0.109,
        "velocity": 0.49,
        "hand": "left"
      },
      {
        "midi": 45,
        "time": 77.717,
        "duration": 0.109,
        "velocity": 0.49,
        "hand": "left"
      },
      {
        "midi": 54,
        "time": 77.826,
        "duration": 0.109,
        "velocity": 0.49,
        "hand": "left"
      },
      {
        "midi": 57,
        "time": 77.826,
        "duration": 0.326,
        "velocity": 0.71,
        "hand": "right"
      },
      {
        "midi": 64,
        "time": 77.826,
        "duration": 0.326,
        "velocity": 0.71,
        "hand": "right"
      },
      {
        "midi": 44,
        "time": 77.935,
        "duration": 0.109,
        "velocity": 0.49,
        "hand": "left"
      },
      {
        "midi": 45,
        "time": 78.152,
        "duration": 0.109,
        "velocity": 0.49,
        "hand": "left"
      },
      {
        "midi": 35,
        "time": 78.261,
        "duration": 0.109,
        "velocity": 0.49,
        "hand": "left"
      },
      {
        "midi": 71,
        "time": 78.261,
        "duration": 0.109,
        "velocity": 0.73,
        "hand": "right"
      },
      {
        "midi": 41,
        "time": 78.37,
        "duration": 0.109,
        "velocity": 0.49,
        "hand": "left"
      },
      {
        "midi": 73,
        "time": 78.478,
        "duration": 0.109,
        "velocity": 0.74,
        "hand": "right"
      },
      {
        "midi": 42,
        "time": 78.587,
        "duration": 0.109,
        "velocity": 0.49,
        "hand": "left"
      },
      {
        "midi": 50,
        "time": 78.696,
        "duration": 0.109,
        "velocity": 0.49,
        "hand": "left"
      },
      {
        "midi": 66,
        "time": 78.696,
        "duration": 0.326,
        "velocity": 0.71,
        "hand": "right"
      },
      {
        "midi": 74,
        "time": 78.696,
        "duration": 0.109,
        "velocity": 0.74,
        "hand": "right"
      },
      {
        "midi": 41,
        "time": 78.804,
        "duration": 0.109,
        "velocity": 0.49,
        "hand": "left"
      },
      {
        "midi": 76,
        "time": 78.913,
        "duration": 0.109,
        "velocity": 0.74,
        "hand": "right"
      },
      {
        "midi": 42,
        "time": 79.022,
        "duration": 0.109,
        "velocity": 0.49,
        "hand": "left"
      },
      {
        "midi": 35,
        "time": 79.13,
        "duration": 0.109,
        "velocity": 0.49,
        "hand": "left"
      },
      {
        "midi": 78,
        "time": 79.13,
        "duration": 0.109,
        "velocity": 0.74,
        "hand": "right"
      },
      {
        "midi": 41,
        "time": 79.239,
        "duration": 0.109,
        "velocity": 0.49,
        "hand": "left"
      },
      {
        "midi": 74,
        "time": 79.348,
        "duration": 0.109,
        "velocity": 0.75,
        "hand": "right"
      },
      {
        "midi": 42,
        "time": 79.457,
        "duration": 0.109,
        "velocity": 0.49,
        "hand": "left"
      },
      {
        "midi": 50,
        "time": 79.565,
        "duration": 0.109,
        "velocity": 0.49,
        "hand": "left"
      },
      {
        "midi": 66,
        "time": 79.565,
        "duration": 0.326,
        "velocity": 0.71,
        "hand": "right"
      },
      {
        "midi": 78,
        "time": 79.565,
        "duration": 0.326,
        "velocity": 0.75,
        "hand": "right"
      },
      {
        "midi": 41,
        "time": 79.674,
        "duration": 0.109,
        "velocity": 0.49,
        "hand": "left"
      },
      {
        "midi": 42,
        "time": 79.891,
        "duration": 0.109,
        "velocity": 0.49,
        "hand": "left"
      },
      {
        "midi": 35,
        "time": 80,
        "duration": 0.109,
        "velocity": 0.49,
        "hand": "left"
      },
      {
        "midi": 77,
        "time": 80,
        "duration": 0.109,
        "velocity": 0.75,
        "hand": "right"
      },
      {
        "midi": 41,
        "time": 80.109,
        "duration": 0.109,
        "velocity": 0.49,
        "hand": "left"
      },
      {
        "midi": 73,
        "time": 80.217,
        "duration": 0.109,
        "velocity": 0.76,
        "hand": "right"
      },
      {
        "midi": 42,
        "time": 80.326,
        "duration": 0.109,
        "velocity": 0.49,
        "hand": "left"
      },
      {
        "midi": 50,
        "time": 80.435,
        "duration": 0.109,
        "velocity": 0.49,
        "hand": "left"
      },
      {
        "midi": 66,
        "time": 80.435,
        "duration": 0.326,
        "velocity": 0.71,
        "hand": "right"
      },
      {
        "midi": 77,
        "time": 80.435,
        "duration": 0.217,
        "velocity": 0.76,
        "hand": "right"
      },
      {
        "midi": 41,
        "time": 80.543,
        "duration": 0.109,
        "velocity": 0.49,
        "hand": "left"
      },
      {
        "midi": 42,
        "time": 80.761,
        "duration": 0.109,
        "velocity": 0.49,
        "hand": "left"
      },
      {
        "midi": 35,
        "time": 80.87,
        "duration": 0.109,
        "velocity": 0.49,
        "hand": "left"
      },
      {
        "midi": 76,
        "time": 80.87,
        "duration": 0.109,
        "velocity": 0.76,
        "hand": "right"
      },
      {
        "midi": 41,
        "time": 80.978,
        "duration": 0.109,
        "velocity": 0.49,
        "hand": "left"
      },
      {
        "midi": 72,
        "time": 81.087,
        "duration": 0.109,
        "velocity": 0.76,
        "hand": "right"
      },
      {
        "midi": 42,
        "time": 81.196,
        "duration": 0.109,
        "velocity": 0.49,
        "hand": "left"
      },
      {
        "midi": 50,
        "time": 81.304,
        "duration": 0.109,
        "velocity": 0.49,
        "hand": "left"
      },
      {
        "midi": 66,
        "time": 81.304,
        "duration": 0.326,
        "velocity": 0.71,
        "hand": "right"
      },
      {
        "midi": 76,
        "time": 81.304,
        "duration": 0.326,
        "velocity": 0.76,
        "hand": "right"
      },
      {
        "midi": 41,
        "time": 81.413,
        "duration": 0.109,
        "velocity": 0.49,
        "hand": "left"
      },
      {
        "midi": 42,
        "time": 81.63,
        "duration": 0.109,
        "velocity": 0.49,
        "hand": "left"
      },
      {
        "midi": 35,
        "time": 81.739,
        "duration": 0.109,
        "velocity": 0.49,
        "hand": "left"
      },
      {
        "midi": 71,
        "time": 81.739,
        "duration": 0.109,
        "velocity": 0.76,
        "hand": "right"
      },
      {
        "midi": 41,
        "time": 81.848,
        "duration": 0.109,
        "velocity": 0.49,
        "hand": "left"
      },
      {
        "midi": 73,
        "time": 81.957,
        "duration": 0.109,
        "velocity": 0.76,
        "hand": "right"
      },
      {
        "midi": 42,
        "time": 82.065,
        "duration": 0.109,
        "velocity": 0.49,
        "hand": "left"
      },
      {
        "midi": 47,
        "time": 82.174,
        "duration": 0.217,
        "velocity": 0.49,
        "hand": "left"
      },
      {
        "midi": 59,
        "time": 82.174,
        "duration": 0.217,
        "velocity": 0.49,
        "hand": "left"
      },
      {
        "midi": 74,
        "time": 82.174,
        "duration": 0.109,
        "velocity": 0.77,
        "hand": "right"
      },
      {
        "midi": 76,
        "time": 82.391,
        "duration": 0.109,
        "velocity": 0.77,
        "hand": "right"
      },
      {
        "midi": 45,
        "time": 82.609,
        "duration": 0.217,
        "velocity": 0.49,
        "hand": "left"
      },
      {
        "midi": 57,
        "time": 82.609,
        "duration": 0.217,
        "velocity": 0.49,
        "hand": "left"
      },
      {
        "midi": 78,
        "time": 82.609,
        "duration": 0.109,
        "velocity": 0.77,
        "hand": "right"
      },
      {
        "midi": 74,
        "time": 82.826,
        "duration": 0.109,
        "velocity": 0.77,
        "hand": "right"
      },
      {
        "midi": 43,
        "time": 83.043,
        "duration": 0.217,
        "velocity": 0.49,
        "hand": "left"
      },
      {
        "midi": 71,
        "time": 83.043,
        "duration": 0.326,
        "velocity": 0.71,
        "hand": "right"
      },
      {
        "midi": 78,
        "time": 83.043,
        "duration": 0.109,
        "velocity": 0.78,
        "hand": "right"
      },
      {
        "midi": 83,
        "time": 83.261,
        "duration": 0.109,
        "velocity": 0.78,
        "hand": "right"
      },
      {
        "midi": 42,
        "time": 83.478,
        "duration": 0.326,
        "velocity": 0.49,
        "hand": "left"
      },
      {
        "midi": 54,
        "time": 83.478,
        "duration": 0.326,
        "velocity": 0.49,
        "hand": "left"
      },
      {
        "midi": 78,
        "time": 83.478,
        "duration": 0.109,
        "velocity": 0.78,
        "hand": "right"
      },
      {
        "midi": 74,
        "time": 83.696,
        "duration": 0.109,
        "velocity": 0.78,
        "hand": "right"
      },
      {
        "midi": 40,
        "time": 83.913,
        "duration": 0.326,
        "velocity": 0.49,
        "hand": "left"
      },
      {
        "midi": 71,
        "time": 83.913,
        "duration": 0.326,
        "velocity": 0.71,
        "hand": "right"
      },
      {
        "midi": 78,
        "time": 83.913,
        "duration": 0.109,
        "velocity": 0.79,
        "hand": "right"
      },
      {
        "midi": 83,
        "time": 84.13,
        "duration": 0.109,
        "velocity": 0.79,
        "hand": "right"
      },
      {
        "midi": 38,
        "time": 84.348,
        "duration": 0.326,
        "velocity": 0.49,
        "hand": "left"
      },
      {
        "midi": 50,
        "time": 84.348,
        "duration": 0.326,
        "velocity": 0.49,
        "hand": "left"
      },
      {
        "midi": 71,
        "time": 84.348,
        "duration": 0.761,
        "velocity": 0.79,
        "hand": "right"
      },
      {
        "midi": 37,
        "time": 84.783,
        "duration": 0.326,
        "velocity": 0.49,
        "hand": "left"
      },
      {
        "midi": 47,
        "time": 84.783,
        "duration": 0.326,
        "velocity": 0.49,
        "hand": "left"
      },
      {
        "midi": 49,
        "time": 84.783,
        "duration": 0.326,
        "velocity": 0.49,
        "hand": "left"
      },
      {
        "midi": 35,
        "time": 85.217,
        "duration": 0.217,
        "velocity": 0.49,
        "hand": "left"
      },
      {
        "midi": 47,
        "time": 85.217,
        "duration": 0.217,
        "velocity": 0.49,
        "hand": "left"
      },
      {
        "midi": 83,
        "time": 85.217,
        "duration": 0.652,
        "velocity": 0.8,
        "hand": "right"
      },
      {
        "midi": 45,
        "time": 85.435,
        "duration": 0.109,
        "velocity": 0.49,
        "hand": "left"
      },
      {
        "midi": 85,
        "time": 85.435,
        "duration": 0.109,
        "velocity": 0.8,
        "hand": "right"
      },
      {
        "midi": 43,
        "time": 85.652,
        "duration": 0.109,
        "velocity": 0.49,
        "hand": "left"
      },
      {
        "midi": 86,
        "time": 85.652,
        "duration": 0.109,
        "velocity": 0.8,
        "hand": "right"
      },
      {
        "midi": 42,
        "time": 85.761,
        "duration": 0.109,
        "velocity": 0.49,
        "hand": "left"
      },
      {
        "midi": 88,
        "time": 85.761,
        "duration": 0.109,
        "velocity": 0.8,
        "hand": "right"
      },
      {
        "midi": 35,
        "time": 85.978,
        "duration": 0.217,
        "velocity": 0.49,
        "hand": "left"
      },
      {
        "midi": 83,
        "time": 85.978,
        "duration": 0.652,
        "velocity": 0.71,
        "hand": "right"
      },
      {
        "midi": 90,
        "time": 85.978,
        "duration": 0.217,
        "velocity": 0.8,
        "hand": "right"
      },
      {
        "midi": 45,
        "time": 86.196,
        "duration": 0.109,
        "velocity": 0.49,
        "hand": "left"
      },
      {
        "midi": 86,
        "time": 86.196,
        "duration": 0.109,
        "velocity": 0.8,
        "hand": "right"
      },
      {
        "midi": 43,
        "time": 86.413,
        "duration": 0.109,
        "velocity": 0.49,
        "hand": "left"
      },
      {
        "midi": 90,
        "time": 86.413,
        "duration": 0.217,
        "velocity": 0.8,
        "hand": "right"
      },
      {
        "midi": 42,
        "time": 86.63,
        "duration": 0.109,
        "velocity": 0.49,
        "hand": "left"
      },
      {
        "midi": 35,
        "time": 86.739,
        "duration": 0.217,
        "velocity": 0.49,
        "hand": "left"
      },
      {
        "midi": 83,
        "time": 86.739,
        "duration": 0.652,
        "velocity": 0.71,
        "hand": "right"
      },
      {
        "midi": 89,
        "time": 86.739,
        "duration": 0.109,
        "velocity": 0.8,
        "hand": "right"
      },
      {
        "midi": 45,
        "time": 86.957,
        "duration": 0.109,
        "velocity": 0.49,
        "hand": "left"
      },
      {
        "midi": 85,
        "time": 86.957,
        "duration": 0.109,
        "velocity": 0.8,
        "hand": "right"
      },
      {
        "midi": 43,
        "time": 87.174,
        "duration": 0.109,
        "velocity": 0.49,
        "hand": "left"
      },
      {
        "midi": 89,
        "time": 87.174,
        "duration": 0.217,
        "velocity": 0.8,
        "hand": "right"
      },
      {
        "midi": 42,
        "time": 87.391,
        "duration": 0.109,
        "velocity": 0.49,
        "hand": "left"
      },
      {
        "midi": 35,
        "time": 87.609,
        "duration": 0.217,
        "velocity": 0.49,
        "hand": "left"
      },
      {
        "midi": 83,
        "time": 87.609,
        "duration": 0.652,
        "velocity": 0.71,
        "hand": "right"
      },
      {
        "midi": 88,
        "time": 87.609,
        "duration": 0.109,
        "velocity": 0.8,
        "hand": "right"
      },
      {
        "midi": 45,
        "time": 87.717,
        "duration": 0.109,
        "velocity": 0.49,
        "hand": "left"
      },
      {
        "midi": 84,
        "time": 87.717,
        "duration": 0.109,
        "velocity": 0.8,
        "hand": "right"
      },
      {
        "midi": 43,
        "time": 87.935,
        "duration": 0.109,
        "velocity": 0.49,
        "hand": "left"
      },
      {
        "midi": 88,
        "time": 87.935,
        "duration": 0.217,
        "velocity": 0.8,
        "hand": "right"
      },
      {
        "midi": 42,
        "time": 88.152,
        "duration": 0.109,
        "velocity": 0.49,
        "hand": "left"
      },
      {
        "midi": 35,
        "time": 88.37,
        "duration": 0.217,
        "velocity": 0.49,
        "hand": "left"
      },
      {
        "midi": 47,
        "time": 88.37,
        "duration": 0.217,
        "velocity": 0.49,
        "hand": "left"
      },
      {
        "midi": 83,
        "time": 88.37,
        "duration": 0.652,
        "velocity": 0.8,
        "hand": "right"
      },
      {
        "midi": 45,
        "time": 88.478,
        "duration": 0.109,
        "velocity": 0.49,
        "hand": "left"
      },
      {
        "midi": 85,
        "time": 88.478,
        "duration": 0.109,
        "velocity": 0.8,
        "hand": "right"
      },
      {
        "midi": 43,
        "time": 88.696,
        "duration": 0.109,
        "velocity": 0.49,
        "hand": "left"
      },
      {
        "midi": 86,
        "time": 88.696,
        "duration": 0.109,
        "velocity": 0.8,
        "hand": "right"
      },
      {
        "midi": 42,
        "time": 88.913,
        "duration": 0.109,
        "velocity": 0.49,
        "hand": "left"
      },
      {
        "midi": 88,
        "time": 88.913,
        "duration": 0.109,
        "velocity": 0.8,
        "hand": "right"
      },
      {
        "midi": 35,
        "time": 89.13,
        "duration": 0.217,
        "velocity": 0.49,
        "hand": "left"
      },
      {
        "midi": 83,
        "time": 89.13,
        "duration": 0.652,
        "velocity": 0.71,
        "hand": "right"
      },
      {
        "midi": 90,
        "time": 89.13,
        "duration": 0.109,
        "velocity": 0.8,
        "hand": "right"
      },
      {
        "midi": 45,
        "time": 89.348,
        "duration": 0.109,
        "velocity": 0.49,
        "hand": "left"
      },
      {
        "midi": 86,
        "time": 89.348,
        "duration": 0.109,
        "velocity": 0.8,
        "hand": "right"
      },
      {
        "midi": 43,
        "time": 89.457,
        "duration": 0.109,
        "velocity": 0.49,
        "hand": "left"
      },
      {
        "midi": 90,
        "time": 89.457,
        "duration": 0.109,
        "velocity": 0.8,
        "hand": "right"
      },
      {
        "midi": 42,
        "time": 89.674,
        "duration": 0.109,
        "velocity": 0.49,
        "hand": "left"
      },
      {
        "midi": 95,
        "time": 89.674,
        "duration": 0.109,
        "velocity": 0.8,
        "hand": "right"
      },
      {
        "midi": 38,
        "time": 89.891,
        "duration": 0.217,
        "velocity": 0.49,
        "hand": "left"
      },
      {
        "midi": 81,
        "time": 89.891,
        "duration": 0.652,
        "velocity": 0.71,
        "hand": "right"
      },
      {
        "midi": 93,
        "time": 89.891,
        "duration": 0.109,
        "velocity": 0.8,
        "hand": "right"
      },
      {
        "midi": 49,
        "time": 90.109,
        "duration": 0.109,
        "velocity": 0.49,
        "hand": "left"
      },
      {
        "midi": 90,
        "time": 90.109,
        "duration": 0.109,
        "velocity": 0.8,
        "hand": "right"
      },
      {
        "midi": 47,
        "time": 90.326,
        "duration": 0.109,
        "velocity": 0.49,
        "hand": "left"
      },
      {
        "midi": 86,
        "time": 90.326,
        "duration": 0.326,
        "velocity": 0.8,
        "hand": "right"
      },
      {
        "midi": 45,
        "time": 90.435,
        "duration": 0.109,
        "velocity": 0.49,
        "hand": "left"
      },
      {
        "midi": 90,
        "time": 90.435,
        "duration": 0.109,
        "velocity": 0.8,
        "hand": "right"
      },
      {
        "midi": 38,
        "time": 90.652,
        "duration": 0.217,
        "velocity": 0.49,
        "hand": "left"
      },
      {
        "midi": 81,
        "time": 90.652,
        "duration": 0.652,
        "velocity": 0.71,
        "hand": "right"
      },
      {
        "midi": 93,
        "time": 90.652,
        "duration": 0.652,
        "velocity": 0.8,
        "hand": "right"
      },
      {
        "midi": 49,
        "time": 90.87,
        "duration": 0.109,
        "velocity": 0.49,
        "hand": "left"
      },
      {
        "midi": 47,
        "time": 91.087,
        "duration": 0.109,
        "velocity": 0.49,
        "hand": "left"
      },
      {
        "midi": 45,
        "time": 91.304,
        "duration": 0.109,
        "velocity": 0.49,
        "hand": "left"
      },
      {
        "midi": 35,
        "time": 91.413,
        "duration": 0.217,
        "velocity": 0.49,
        "hand": "left"
      },
      {
        "midi": 47,
        "time": 91.413,
        "duration": 0.217,
        "velocity": 0.49,
        "hand": "left"
      },
      {
        "midi": 83,
        "time": 91.413,
        "duration": 0.652,
        "velocity": 0.8,
        "hand": "right"
      },
      {
        "midi": 45,
        "time": 91.63,
        "duration": 0.109,
        "velocity": 0.49,
        "hand": "left"
      },
      {
        "midi": 85,
        "time": 91.63,
        "duration": 0.109,
        "velocity": 0.8,
        "hand": "right"
      },
      {
        "midi": 43,
        "time": 91.848,
        "duration": 0.109,
        "velocity": 0.49,
        "hand": "left"
      },
      {
        "midi": 86,
        "time": 91.848,
        "duration": 0.109,
        "velocity": 0.8,
        "hand": "right"
      },
      {
        "midi": 42,
        "time": 92.065,
        "duration": 0.109,
        "velocity": 0.49,
        "hand": "left"
      },
      {
        "midi": 88,
        "time": 92.065,
        "duration": 0.109,
        "velocity": 0.8,
        "hand": "right"
      },
      {
        "midi": 35,
        "time": 92.283,
        "duration": 0.217,
        "velocity": 0.49,
        "hand": "left"
      },
      {
        "midi": 83,
        "time": 92.283,
        "duration": 0.652,
        "velocity": 0.71,
        "hand": "right"
      },
      {
        "midi": 90,
        "time": 92.283,
        "duration": 0.217,
        "velocity": 0.8,
        "hand": "right"
      },
      {
        "midi": 45,
        "time": 92.391,
        "duration": 0.109,
        "velocity": 0.49,
        "hand": "left"
      },
      {
        "midi": 86,
        "time": 92.391,
        "duration": 0.109,
        "velocity": 0.8,
        "hand": "right"
      },
      {
        "midi": 43,
        "time": 92.609,
        "duration": 0.109,
        "velocity": 0.49,
        "hand": "left"
      },
      {
        "midi": 90,
        "time": 92.609,
        "duration": 0.217,
        "velocity": 0.8,
        "hand": "right"
      },
      {
        "midi": 42,
        "time": 92.826,
        "duration": 0.109,
        "velocity": 0.49,
        "hand": "left"
      },
      {
        "midi": 35,
        "time": 93.043,
        "duration": 0.217,
        "velocity": 0.49,
        "hand": "left"
      },
      {
        "midi": 83,
        "time": 93.043,
        "duration": 0.652,
        "velocity": 0.71,
        "hand": "right"
      },
      {
        "midi": 89,
        "time": 93.043,
        "duration": 0.217,
        "velocity": 0.8,
        "hand": "right"
      },
      {
        "midi": 45,
        "time": 93.152,
        "duration": 0.109,
        "velocity": 0.49,
        "hand": "left"
      },
      {
        "midi": 85,
        "time": 93.152,
        "duration": 0.109,
        "velocity": 0.8,
        "hand": "right"
      },
      {
        "midi": 43,
        "time": 93.37,
        "duration": 0.109,
        "velocity": 0.49,
        "hand": "left"
      },
      {
        "midi": 89,
        "time": 93.37,
        "duration": 0.217,
        "velocity": 0.8,
        "hand": "right"
      },
      {
        "midi": 42,
        "time": 93.587,
        "duration": 0.109,
        "velocity": 0.49,
        "hand": "left"
      },
      {
        "midi": 35,
        "time": 93.804,
        "duration": 0.217,
        "velocity": 0.49,
        "hand": "left"
      },
      {
        "midi": 83,
        "time": 93.804,
        "duration": 0.652,
        "velocity": 0.71,
        "hand": "right"
      },
      {
        "midi": 88,
        "time": 93.804,
        "duration": 0.217,
        "velocity": 0.8,
        "hand": "right"
      },
      {
        "midi": 45,
        "time": 94.022,
        "duration": 0.109,
        "velocity": 0.49,
        "hand": "left"
      },
      {
        "midi": 84,
        "time": 94.022,
        "duration": 0.109,
        "velocity": 0.8,
        "hand": "right"
      },
      {
        "midi": 43,
        "time": 94.13,
        "duration": 0.109,
        "velocity": 0.49,
        "hand": "left"
      },
      {
        "midi": 88,
        "time": 94.13,
        "duration": 0.217,
        "velocity": 0.8,
        "hand": "right"
      },
      {
        "midi": 42,
        "time": 94.348,
        "duration": 0.109,
        "velocity": 0.49,
        "hand": "left"
      },
      {
        "midi": 35,
        "time": 94.565,
        "duration": 0.217,
        "velocity": 0.49,
        "hand": "left"
      },
      {
        "midi": 47,
        "time": 94.565,
        "duration": 0.217,
        "velocity": 0.49,
        "hand": "left"
      },
      {
        "midi": 83,
        "time": 94.565,
        "duration": 0.652,
        "velocity": 0.8,
        "hand": "right"
      },
      {
        "midi": 45,
        "time": 94.783,
        "duration": 0.109,
        "velocity": 0.49,
        "hand": "left"
      },
      {
        "midi": 85,
        "time": 94.783,
        "duration": 0.109,
        "velocity": 0.8,
        "hand": "right"
      },
      {
        "midi": 43,
        "time": 95,
        "duration": 0.109,
        "velocity": 0.49,
        "hand": "left"
      },
      {
        "midi": 86,
        "time": 95,
        "duration": 0.109,
        "velocity": 0.8,
        "hand": "right"
      },
      {
        "midi": 42,
        "time": 95.109,
        "duration": 0.109,
        "velocity": 0.49,
        "hand": "left"
      },
      {
        "midi": 88,
        "time": 95.109,
        "duration": 0.109,
        "velocity": 0.8,
        "hand": "right"
      },
      {
        "midi": 35,
        "time": 95.326,
        "duration": 0.217,
        "velocity": 0.49,
        "hand": "left"
      },
      {
        "midi": 83,
        "time": 95.326,
        "duration": 0.652,
        "velocity": 0.71,
        "hand": "right"
      },
      {
        "midi": 90,
        "time": 95.326,
        "duration": 0.109,
        "velocity": 0.8,
        "hand": "right"
      },
      {
        "midi": 45,
        "time": 95.543,
        "duration": 0.109,
        "velocity": 0.49,
        "hand": "left"
      },
      {
        "midi": 86,
        "time": 95.543,
        "duration": 0.109,
        "velocity": 0.8,
        "hand": "right"
      },
      {
        "midi": 43,
        "time": 95.761,
        "duration": 0.109,
        "velocity": 0.49,
        "hand": "left"
      },
      {
        "midi": 90,
        "time": 95.761,
        "duration": 0.109,
        "velocity": 0.8,
        "hand": "right"
      },
      {
        "midi": 42,
        "time": 95.978,
        "duration": 0.109,
        "velocity": 0.49,
        "hand": "left"
      },
      {
        "midi": 95,
        "time": 95.978,
        "duration": 0.109,
        "velocity": 0.8,
        "hand": "right"
      },
      {
        "midi": 35,
        "time": 96.087,
        "duration": 0.217,
        "velocity": 0.49,
        "hand": "left"
      },
      {
        "midi": 81,
        "time": 96.087,
        "duration": 0.652,
        "velocity": 0.71,
        "hand": "right"
      },
      {
        "midi": 93,
        "time": 96.087,
        "duration": 0.109,
        "velocity": 0.8,
        "hand": "right"
      },
      {
        "midi": 45,
        "time": 96.304,
        "duration": 0.109,
        "velocity": 0.49,
        "hand": "left"
      },
      {
        "midi": 90,
        "time": 96.304,
        "duration": 0.109,
        "velocity": 0.8,
        "hand": "right"
      },
      {
        "midi": 43,
        "time": 96.522,
        "duration": 0.109,
        "velocity": 0.49,
        "hand": "left"
      },
      {
        "midi": 86,
        "time": 96.522,
        "duration": 0.326,
        "velocity": 0.8,
        "hand": "right"
      },
      {
        "midi": 42,
        "time": 96.739,
        "duration": 0.109,
        "velocity": 0.49,
        "hand": "left"
      },
      {
        "midi": 90,
        "time": 96.739,
        "duration": 0.109,
        "velocity": 0.8,
        "hand": "right"
      },
      {
        "midi": 35,
        "time": 96.957,
        "duration": 0.217,
        "velocity": 0.49,
        "hand": "left"
      },
      {
        "midi": 81,
        "time": 96.957,
        "duration": 0.652,
        "velocity": 0.71,
        "hand": "right"
      },
      {
        "midi": 93,
        "time": 96.957,
        "duration": 0.652,
        "velocity": 0.8,
        "hand": "right"
      },
      {
        "midi": 45,
        "time": 97.065,
        "duration": 0.109,
        "velocity": 0.49,
        "hand": "left"
      },
      {
        "midi": 43,
        "time": 97.283,
        "duration": 0.109,
        "velocity": 0.49,
        "hand": "left"
      },
      {
        "midi": 42,
        "time": 97.5,
        "duration": 0.109,
        "velocity": 0.49,
        "hand": "left"
      },
      {
        "midi": 42,
        "time": 97.717,
        "duration": 0.217,
        "velocity": 0.49,
        "hand": "left"
      },
      {
        "midi": 54,
        "time": 97.717,
        "duration": 0.217,
        "velocity": 0.49,
        "hand": "left"
      },
      {
        "midi": 90,
        "time": 97.717,
        "duration": 0.652,
        "velocity": 0.8,
        "hand": "right"
      },
      {
        "midi": 52,
        "time": 97.826,
        "duration": 0.109,
        "velocity": 0.49,
        "hand": "left"
      },
      {
        "midi": 92,
        "time": 97.826,
        "duration": 0.109,
        "velocity": 0.8,
        "hand": "right"
      },
      {
        "midi": 50,
        "time": 98.043,
        "duration": 0.109,
        "velocity": 0.49,
        "hand": "left"
      },
      {
        "midi": 94,
        "time": 98.043,
        "duration": 0.109,
        "velocity": 0.8,
        "hand": "right"
      },
      {
        "midi": 49,
        "time": 98.261,
        "duration": 0.109,
        "velocity": 0.49,
        "hand": "left"
      },
      {
        "midi": 95,
        "time": 98.261,
        "duration": 0.109,
        "velocity": 0.8,
        "hand": "right"
      },
      {
        "midi": 42,
        "time": 98.478,
        "duration": 0.217,
        "velocity": 0.49,
        "hand": "left"
      },
      {
        "midi": 85,
        "time": 98.478,
        "duration": 0.326,
        "velocity": 0.71,
        "hand": "right"
      },
      {
        "midi": 97,
        "time": 98.478,
        "duration": 0.217,
        "velocity": 0.8,
        "hand": "right"
      },
      {
        "midi": 52,
        "time": 98.696,
        "duration": 0.109,
        "velocity": 0.49,
        "hand": "left"
      },
      {
        "midi": 94,
        "time": 98.696,
        "duration": 0.109,
        "velocity": 0.8,
        "hand": "right"
      },
      {
        "midi": 50,
        "time": 98.804,
        "duration": 0.109,
        "velocity": 0.49,
        "hand": "left"
      },
      {
        "midi": 90,
        "time": 98.804,
        "duration": 0.326,
        "velocity": 0.71,
        "hand": "right"
      },
      {
        "midi": 97,
        "time": 98.804,
        "duration": 0.326,
        "velocity": 0.8,
        "hand": "right"
      },
      {
        "midi": 49,
        "time": 99.022,
        "duration": 0.109,
        "velocity": 0.49,
        "hand": "left"
      },
      {
        "midi": 38,
        "time": 99.239,
        "duration": 0.217,
        "velocity": 0.49,
        "hand": "left"
      },
      {
        "midi": 86,
        "time": 99.239,
        "duration": 0.217,
        "velocity": 0.49,
        "hand": "right"
      },
      {
        "midi": 98,
        "time": 99.239,
        "duration": 0.217,
        "velocity": 0.49,
        "hand": "right"
      },
      {
        "midi": 49,
        "time": 99.457,
        "duration": 0.109,
        "velocity": 0.49,
        "hand": "left"
      },
      {
        "midi": 94,
        "time": 99.457,
        "duration": 0.109,
        "velocity": 0.49,
        "hand": "right"
      },
      {
        "midi": 50,
        "time": 99.674,
        "duration": 0.109,
        "velocity": 0.49,
        "hand": "left"
      },
      {
        "midi": 90,
        "time": 99.674,
        "duration": 0.326,
        "velocity": 0.49,
        "hand": "right"
      },
      {
        "midi": 98,
        "time": 99.674,
        "duration": 0.326,
        "velocity": 0.49,
        "hand": "right"
      },
      {
        "midi": 52,
        "time": 99.783,
        "duration": 0.109,
        "velocity": 0.49,
        "hand": "left"
      },
      {
        "midi": 42,
        "time": 100,
        "duration": 0.217,
        "velocity": 0.49,
        "hand": "left"
      },
      {
        "midi": 85,
        "time": 100,
        "duration": 0.217,
        "velocity": 0.49,
        "hand": "right"
      },
      {
        "midi": 97,
        "time": 100,
        "duration": 0.217,
        "velocity": 0.49,
        "hand": "right"
      },
      {
        "midi": 52,
        "time": 100.217,
        "duration": 0.109,
        "velocity": 0.49,
        "hand": "left"
      },
      {
        "midi": 94,
        "time": 100.217,
        "duration": 0.109,
        "velocity": 0.49,
        "hand": "right"
      },
      {
        "midi": 50,
        "time": 100.435,
        "duration": 0.109,
        "velocity": 0.49,
        "hand": "left"
      },
      {
        "midi": 90,
        "time": 100.435,
        "duration": 0.326,
        "velocity": 0.49,
        "hand": "right"
      },
      {
        "midi": 97,
        "time": 100.435,
        "duration": 0.326,
        "velocity": 0.49,
        "hand": "right"
      },
      {
        "midi": 49,
        "time": 100.652,
        "duration": 0.109,
        "velocity": 0.49,
        "hand": "left"
      },
      {
        "midi": 42,
        "time": 100.761,
        "duration": 0.217,
        "velocity": 0.49,
        "hand": "left"
      },
      {
        "midi": 54,
        "time": 100.761,
        "duration": 0.217,
        "velocity": 0.49,
        "hand": "left"
      },
      {
        "midi": 90,
        "time": 100.761,
        "duration": 0.109,
        "velocity": 0.49,
        "hand": "right"
      },
      {
        "midi": 52,
        "time": 100.978,
        "duration": 0.109,
        "velocity": 0.49,
        "hand": "left"
      },
      {
        "midi": 90,
        "time": 100.978,
        "duration": 0.109,
        "velocity": 0.49,
        "hand": "right"
      },
      {
        "midi": 91,
        "time": 100.978,
        "duration": 0.109,
        "velocity": 0.49,
        "hand": "right"
      },
      {
        "midi": 50,
        "time": 101.196,
        "duration": 0.109,
        "velocity": 0.49,
        "hand": "left"
      },
      {
        "midi": 90,
        "time": 101.196,
        "duration": 0.109,
        "velocity": 0.49,
        "hand": "right"
      },
      {
        "midi": 94,
        "time": 101.196,
        "duration": 0.109,
        "velocity": 0.49,
        "hand": "right"
      },
      {
        "midi": 49,
        "time": 101.413,
        "duration": 0.109,
        "velocity": 0.49,
        "hand": "left"
      },
      {
        "midi": 90,
        "time": 101.413,
        "duration": 0.109,
        "velocity": 0.49,
        "hand": "right"
      },
      {
        "midi": 95,
        "time": 101.413,
        "duration": 0.109,
        "velocity": 0.49,
        "hand": "right"
      },
      {
        "midi": 42,
        "time": 101.63,
        "duration": 0.217,
        "velocity": 0.49,
        "hand": "left"
      },
      {
        "midi": 85,
        "time": 101.63,
        "duration": 0.217,
        "velocity": 0.49,
        "hand": "right"
      },
      {
        "midi": 97,
        "time": 101.63,
        "duration": 0.217,
        "velocity": 0.49,
        "hand": "right"
      },
      {
        "midi": 52,
        "time": 101.739,
        "duration": 0.109,
        "velocity": 0.49,
        "hand": "left"
      },
      {
        "midi": 90,
        "time": 101.739,
        "duration": 0.109,
        "velocity": 0.49,
        "hand": "right"
      },
      {
        "midi": 94,
        "time": 101.739,
        "duration": 0.109,
        "velocity": 0.49,
        "hand": "right"
      },
      {
        "midi": 50,
        "time": 101.957,
        "duration": 0.109,
        "velocity": 0.49,
        "hand": "left"
      },
      {
        "midi": 90,
        "time": 101.957,
        "duration": 0.326,
        "velocity": 0.49,
        "hand": "right"
      },
      {
        "midi": 97,
        "time": 101.957,
        "duration": 0.326,
        "velocity": 0.49,
        "hand": "right"
      },
      {
        "midi": 49,
        "time": 102.174,
        "duration": 0.109,
        "velocity": 0.49,
        "hand": "left"
      },
      {
        "midi": 38,
        "time": 102.391,
        "duration": 0.217,
        "velocity": 0.49,
        "hand": "left"
      },
      {
        "midi": 86,
        "time": 102.391,
        "duration": 0.217,
        "velocity": 0.49,
        "hand": "right"
      },
      {
        "midi": 98,
        "time": 102.391,
        "duration": 0.217,
        "velocity": 0.49,
        "hand": "right"
      },
      {
        "midi": 49,
        "time": 102.609,
        "duration": 0.109,
        "velocity": 0.49,
        "hand": "left"
      },
      {
        "midi": 90,
        "time": 102.609,
        "duration": 0.109,
        "velocity": 0.49,
        "hand": "right"
      },
      {
        "midi": 94,
        "time": 102.609,
        "duration": 0.109,
        "velocity": 0.49,
        "hand": "right"
      },
      {
        "midi": 50,
        "time": 102.717,
        "duration": 0.109,
        "velocity": 0.49,
        "hand": "left"
      },
      {
        "midi": 90,
        "time": 102.717,
        "duration": 0.326,
        "velocity": 0.49,
        "hand": "right"
      },
      {
        "midi": 98,
        "time": 102.717,
        "duration": 0.326,
        "velocity": 0.49,
        "hand": "right"
      },
      {
        "midi": 52,
        "time": 102.935,
        "duration": 0.109,
        "velocity": 0.49,
        "hand": "left"
      },
      {
        "midi": 42,
        "time": 103.152,
        "duration": 0.217,
        "velocity": 0.49,
        "hand": "left"
      },
      {
        "midi": 85,
        "time": 103.152,
        "duration": 0.652,
        "velocity": 0.49,
        "hand": "right"
      },
      {
        "midi": 97,
        "time": 103.152,
        "duration": 0.652,
        "velocity": 0.49,
        "hand": "right"
      },
      {
        "midi": 52,
        "time": 103.37,
        "duration": 0.109,
        "velocity": 0.49,
        "hand": "left"
      },
      {
        "midi": 50,
        "time": 103.478,
        "duration": 0.109,
        "velocity": 0.49,
        "hand": "left"
      },
      {
        "midi": 49,
        "time": 103.696,
        "duration": 0.109,
        "velocity": 0.49,
        "hand": "left"
      },
      {
        "midi": 42,
        "time": 103.913,
        "duration": 0.217,
        "velocity": 0.49,
        "hand": "left"
      },
      {
        "midi": 54,
        "time": 103.913,
        "duration": 0.217,
        "velocity": 0.49,
        "hand": "left"
      },
      {
        "midi": 90,
        "time": 103.913,
        "duration": 0.652,
        "velocity": 0.71,
        "hand": "right"
      },
      {
        "midi": 53,
        "time": 104.13,
        "duration": 0.109,
        "velocity": 0.49,
        "hand": "left"
      },
      {
        "midi": 92,
        "time": 104.13,
        "duration": 0.109,
        "velocity": 0.8,
        "hand": "right"
      },
      {
        "midi": 51,
        "time": 104.348,
        "duration": 0.109,
        "velocity": 0.49,
        "hand": "left"
      },
      {
        "midi": 94,
        "time": 104.348,
        "duration": 0.109,
        "velocity": 0.8,
        "hand": "right"
      },
      {
        "midi": 49,
        "time": 104.457,
        "duration": 0.109,
        "velocity": 0.49,
        "hand": "left"
      },
      {
        "midi": 95,
        "time": 104.457,
        "duration": 0.109,
        "velocity": 0.8,
        "hand": "right"
      },
      {
        "midi": 42,
        "time": 104.674,
        "duration": 0.217,
        "velocity": 0.49,
        "hand": "left"
      },
      {
        "midi": 85,
        "time": 104.674,
        "duration": 0.326,
        "velocity": 0.71,
        "hand": "right"
      },
      {
        "midi": 97,
        "time": 104.674,
        "duration": 0.217,
        "velocity": 0.8,
        "hand": "right"
      },
      {
        "midi": 53,
        "time": 104.891,
        "duration": 0.109,
        "velocity": 0.49,
        "hand": "left"
      },
      {
        "midi": 94,
        "time": 104.891,
        "duration": 0.109,
        "velocity": 0.8,
        "hand": "right"
      },
      {
        "midi": 51,
        "time": 105.109,
        "duration": 0.109,
        "velocity": 0.49,
        "hand": "left"
      },
      {
        "midi": 90,
        "time": 105.109,
        "duration": 0.326,
        "velocity": 0.71,
        "hand": "right"
      },
      {
        "midi": 97,
        "time": 105.109,
        "duration": 0.326,
        "velocity": 0.8,
        "hand": "right"
      },
      {
        "midi": 49,
        "time": 105.326,
        "duration": 0.109,
        "velocity": 0.49,
        "hand": "left"
      },
      {
        "midi": 39,
        "time": 105.435,
        "duration": 0.217,
        "velocity": 0.49,
        "hand": "left"
      },
      {
        "midi": 87,
        "time": 105.435,
        "duration": 0.217,
        "velocity": 0.49,
        "hand": "right"
      },
      {
        "midi": 99,
        "time": 105.435,
        "duration": 0.217,
        "velocity": 0.49,
        "hand": "right"
      },
      {
        "midi": 49,
        "time": 105.652,
        "duration": 0.109,
        "velocity": 0.49,
        "hand": "left"
      },
      {
        "midi": 94,
        "time": 105.652,
        "duration": 0.109,
        "velocity": 0.49,
        "hand": "right"
      },
      {
        "midi": 51,
        "time": 105.87,
        "duration": 0.109,
        "velocity": 0.49,
        "hand": "left"
      },
      {
        "midi": 90,
        "time": 105.87,
        "duration": 0.326,
        "velocity": 0.49,
        "hand": "right"
      },
      {
        "midi": 99,
        "time": 105.87,
        "duration": 0.326,
        "velocity": 0.49,
        "hand": "right"
      },
      {
        "midi": 53,
        "time": 106.087,
        "duration": 0.109,
        "velocity": 0.49,
        "hand": "left"
      },
      {
        "midi": 42,
        "time": 106.304,
        "duration": 0.217,
        "velocity": 0.49,
        "hand": "left"
      },
      {
        "midi": 85,
        "time": 106.304,
        "duration": 0.217,
        "velocity": 0.49,
        "hand": "right"
      },
      {
        "midi": 97,
        "time": 106.304,
        "duration": 0.217,
        "velocity": 0.49,
        "hand": "right"
      },
      {
        "midi": 53,
        "time": 106.413,
        "duration": 0.109,
        "velocity": 0.49,
        "hand": "left"
      },
      {
        "midi": 94,
        "time": 106.413,
        "duration": 0.109,
        "velocity": 0.49,
        "hand": "right"
      },
      {
        "midi": 51,
        "time": 106.63,
        "duration": 0.109,
        "velocity": 0.49,
        "hand": "left"
      },
      {
        "midi": 90,
        "time": 106.63,
        "duration": 0.326,
        "velocity": 0.49,
        "hand": "right"
      },
      {
        "midi": 97,
        "time": 106.63,
        "duration": 0.326,
        "velocity": 0.49,
        "hand": "right"
      },
      {
        "midi": 49,
        "time": 106.848,
        "duration": 0.109,
        "velocity": 0.49,
        "hand": "left"
      },
      {
        "midi": 42,
        "time": 107.065,
        "duration": 0.217,
        "velocity": 0.49,
        "hand": "left"
      },
      {
        "midi": 54,
        "time": 107.065,
        "duration": 0.217,
        "velocity": 0.49,
        "hand": "left"
      },
      {
        "midi": 90,
        "time": 107.065,
        "duration": 0.109,
        "velocity": 0.49,
        "hand": "right"
      },
      {
        "midi": 53,
        "time": 107.283,
        "duration": 0.109,
        "velocity": 0.49,
        "hand": "left"
      },
      {
        "midi": 90,
        "time": 107.283,
        "duration": 0.109,
        "velocity": 0.49,
        "hand": "right"
      },
      {
        "midi": 91,
        "time": 107.283,
        "duration": 0.109,
        "velocity": 0.49,
        "hand": "right"
      },
      {
        "midi": 51,
        "time": 107.391,
        "duration": 0.109,
        "velocity": 0.49,
        "hand": "left"
      },
      {
        "midi": 90,
        "time": 107.391,
        "duration": 0.109,
        "velocity": 0.49,
        "hand": "right"
      },
      {
        "midi": 94,
        "time": 107.391,
        "duration": 0.109,
        "velocity": 0.49,
        "hand": "right"
      },
      {
        "midi": 49,
        "time": 107.609,
        "duration": 0.109,
        "velocity": 0.49,
        "hand": "left"
      },
      {
        "midi": 90,
        "time": 107.609,
        "duration": 0.109,
        "velocity": 0.49,
        "hand": "right"
      },
      {
        "midi": 95,
        "time": 107.609,
        "duration": 0.109,
        "velocity": 0.49,
        "hand": "right"
      },
      {
        "midi": 42,
        "time": 107.826,
        "duration": 0.217,
        "velocity": 0.49,
        "hand": "left"
      },
      {
        "midi": 85,
        "time": 107.826,
        "duration": 0.217,
        "velocity": 0.49,
        "hand": "right"
      },
      {
        "midi": 97,
        "time": 107.826,
        "duration": 0.217,
        "velocity": 0.49,
        "hand": "right"
      },
      {
        "midi": 53,
        "time": 108.043,
        "duration": 0.109,
        "velocity": 0.49,
        "hand": "left"
      },
      {
        "midi": 90,
        "time": 108.043,
        "duration": 0.109,
        "velocity": 0.49,
        "hand": "right"
      },
      {
        "midi": 94,
        "time": 108.043,
        "duration": 0.109,
        "velocity": 0.49,
        "hand": "right"
      },
      {
        "midi": 51,
        "time": 108.152,
        "duration": 0.109,
        "velocity": 0.49,
        "hand": "left"
      },
      {
        "midi": 90,
        "time": 108.152,
        "duration": 0.326,
        "velocity": 0.49,
        "hand": "right"
      },
      {
        "midi": 97,
        "time": 108.152,
        "duration": 0.326,
        "velocity": 0.49,
        "hand": "right"
      },
      {
        "midi": 49,
        "time": 108.37,
        "duration": 0.109,
        "velocity": 0.49,
        "hand": "left"
      },
      {
        "midi": 39,
        "time": 108.587,
        "duration": 0.217,
        "velocity": 0.49,
        "hand": "left"
      },
      {
        "midi": 86,
        "time": 108.587,
        "duration": 0.217,
        "velocity": 0.49,
        "hand": "right"
      },
      {
        "midi": 98,
        "time": 108.587,
        "duration": 0.217,
        "velocity": 0.49,
        "hand": "right"
      },
      {
        "midi": 49,
        "time": 108.804,
        "duration": 0.109,
        "velocity": 0.49,
        "hand": "left"
      },
      {
        "midi": 90,
        "time": 108.804,
        "duration": 0.109,
        "velocity": 0.49,
        "hand": "right"
      },
      {
        "midi": 94,
        "time": 108.804,
        "duration": 0.109,
        "velocity": 0.49,
        "hand": "right"
      },
      {
        "midi": 51,
        "time": 109.022,
        "duration": 0.109,
        "velocity": 0.49,
        "hand": "left"
      },
      {
        "midi": 90,
        "time": 109.022,
        "duration": 0.326,
        "velocity": 0.49,
        "hand": "right"
      },
      {
        "midi": 98,
        "time": 109.022,
        "duration": 0.326,
        "velocity": 0.49,
        "hand": "right"
      },
      {
        "midi": 53,
        "time": 109.13,
        "duration": 0.109,
        "velocity": 0.49,
        "hand": "left"
      },
      {
        "midi": 42,
        "time": 109.348,
        "duration": 0.217,
        "velocity": 0.49,
        "hand": "left"
      },
      {
        "midi": 85,
        "time": 109.348,
        "duration": 0.652,
        "velocity": 0.49,
        "hand": "right"
      },
      {
        "midi": 97,
        "time": 109.348,
        "duration": 0.652,
        "velocity": 0.49,
        "hand": "right"
      },
      {
        "midi": 53,
        "time": 109.565,
        "duration": 0.109,
        "velocity": 0.49,
        "hand": "left"
      },
      {
        "midi": 51,
        "time": 109.783,
        "duration": 0.109,
        "velocity": 0.49,
        "hand": "left"
      },
      {
        "midi": 49,
        "time": 110,
        "duration": 0.109,
        "velocity": 0.49,
        "hand": "left"
      },
      {
        "midi": 35,
        "time": 110.109,
        "duration": 0.217,
        "velocity": 0.49,
        "hand": "left"
      },
      {
        "midi": 47,
        "time": 110.109,
        "duration": 0.217,
        "velocity": 0.49,
        "hand": "left"
      },
      {
        "midi": 83,
        "time": 110.109,
        "duration": 0.652,
        "velocity": 0.8,
        "hand": "right"
      },
      {
        "midi": 45,
        "time": 110.326,
        "duration": 0.109,
        "velocity": 0.49,
        "hand": "left"
      },
      {
        "midi": 85,
        "time": 110.326,
        "duration": 0.109,
        "velocity": 0.8,
        "hand": "right"
      },
      {
        "midi": 43,
        "time": 110.543,
        "duration": 0.109,
        "velocity": 0.49,
        "hand": "left"
      },
      {
        "midi": 86,
        "time": 110.543,
        "duration": 0.109,
        "velocity": 0.8,
        "hand": "right"
      },
      {
        "midi": 42,
        "time": 110.761,
        "duration": 0.109,
        "velocity": 0.49,
        "hand": "left"
      },
      {
        "midi": 88,
        "time": 110.761,
        "duration": 0.109,
        "velocity": 0.8,
        "hand": "right"
      },
      {
        "midi": 35,
        "time": 110.978,
        "duration": 0.217,
        "velocity": 0.49,
        "hand": "left"
      },
      {
        "midi": 83,
        "time": 110.978,
        "duration": 0.652,
        "velocity": 0.71,
        "hand": "right"
      },
      {
        "midi": 90,
        "time": 110.978,
        "duration": 0.217,
        "velocity": 0.8,
        "hand": "right"
      },
      {
        "midi": 45,
        "time": 111.087,
        "duration": 0.109,
        "velocity": 0.49,
        "hand": "left"
      },
      {
        "midi": 86,
        "time": 111.087,
        "duration": 0.109,
        "velocity": 0.8,
        "hand": "right"
      },
      {
        "midi": 43,
        "time": 111.304,
        "duration": 0.109,
        "velocity": 0.49,
        "hand": "left"
      },
      {
        "midi": 90,
        "time": 111.304,
        "duration": 0.326,
        "velocity": 0.8,
        "hand": "right"
      },
      {
        "midi": 42,
        "time": 111.522,
        "duration": 0.109,
        "velocity": 0.49,
        "hand": "left"
      },
      {
        "midi": 35,
        "time": 111.739,
        "duration": 0.217,
        "velocity": 0.49,
        "hand": "left"
      },
      {
        "midi": 83,
        "time": 111.739,
        "duration": 0.652,
        "velocity": 0.71,
        "hand": "right"
      },
      {
        "midi": 89,
        "time": 111.739,
        "duration": 0.217,
        "velocity": 0.8,
        "hand": "right"
      },
      {
        "midi": 45,
        "time": 111.957,
        "duration": 0.109,
        "velocity": 0.49,
        "hand": "left"
      },
      {
        "midi": 85,
        "time": 111.957,
        "duration": 0.109,
        "velocity": 0.8,
        "hand": "right"
      },
      {
        "midi": 43,
        "time": 112.065,
        "duration": 0.109,
        "velocity": 0.49,
        "hand": "left"
      },
      {
        "midi": 89,
        "time": 112.065,
        "duration": 0.217,
        "velocity": 0.8,
        "hand": "right"
      },
      {
        "midi": 42,
        "time": 112.283,
        "duration": 0.109,
        "velocity": 0.49,
        "hand": "left"
      },
      {
        "midi": 35,
        "time": 112.5,
        "duration": 0.217,
        "velocity": 0.49,
        "hand": "left"
      },
      {
        "midi": 83,
        "time": 112.5,
        "duration": 0.652,
        "velocity": 0.71,
        "hand": "right"
      },
      {
        "midi": 88,
        "time": 112.5,
        "duration": 0.217,
        "velocity": 0.8,
        "hand": "right"
      },
      {
        "midi": 45,
        "time": 112.717,
        "duration": 0.109,
        "velocity": 0.49,
        "hand": "left"
      },
      {
        "midi": 84,
        "time": 112.717,
        "duration": 0.109,
        "velocity": 0.8,
        "hand": "right"
      },
      {
        "midi": 43,
        "time": 112.826,
        "duration": 0.109,
        "velocity": 0.49,
        "hand": "left"
      },
      {
        "midi": 88,
        "time": 112.826,
        "duration": 0.217,
        "velocity": 0.8,
        "hand": "right"
      },
      {
        "midi": 42,
        "time": 113.043,
        "duration": 0.109,
        "velocity": 0.49,
        "hand": "left"
      },
      {
        "midi": 35,
        "time": 113.261,
        "duration": 0.217,
        "velocity": 0.49,
        "hand": "left"
      },
      {
        "midi": 47,
        "time": 113.261,
        "duration": 0.217,
        "velocity": 0.49,
        "hand": "left"
      },
      {
        "midi": 83,
        "time": 113.261,
        "duration": 0.652,
        "velocity": 0.8,
        "hand": "right"
      },
      {
        "midi": 45,
        "time": 113.478,
        "duration": 0.109,
        "velocity": 0.49,
        "hand": "left"
      },
      {
        "midi": 85,
        "time": 113.478,
        "duration": 0.109,
        "velocity": 0.8,
        "hand": "right"
      },
      {
        "midi": 43,
        "time": 113.696,
        "duration": 0.109,
        "velocity": 0.49,
        "hand": "left"
      },
      {
        "midi": 86,
        "time": 113.696,
        "duration": 0.109,
        "velocity": 0.8,
        "hand": "right"
      },
      {
        "midi": 42,
        "time": 113.804,
        "duration": 0.109,
        "velocity": 0.49,
        "hand": "left"
      },
      {
        "midi": 88,
        "time": 113.804,
        "duration": 0.109,
        "velocity": 0.8,
        "hand": "right"
      },
      {
        "midi": 35,
        "time": 114.022,
        "duration": 0.217,
        "velocity": 0.49,
        "hand": "left"
      },
      {
        "midi": 83,
        "time": 114.022,
        "duration": 0.217,
        "velocity": 0.71,
        "hand": "right"
      },
      {
        "midi": 90,
        "time": 114.022,
        "duration": 0.109,
        "velocity": 0.8,
        "hand": "right"
      },
      {
        "midi": 45,
        "time": 114.239,
        "duration": 0.109,
        "velocity": 0.49,
        "hand": "left"
      },
      {
        "midi": 83,
        "time": 114.239,
        "duration": 0.435,
        "velocity": 0.8,
        "hand": "right"
      },
      {
        "midi": 43,
        "time": 114.457,
        "duration": 0.109,
        "velocity": 0.49,
        "hand": "left"
      },
      {
        "midi": 90,
        "time": 114.457,
        "duration": 0.109,
        "velocity": 0.8,
        "hand": "right"
      },
      {
        "midi": 42,
        "time": 114.674,
        "duration": 0.109,
        "velocity": 0.49,
        "hand": "left"
      },
      {
        "midi": 95,
        "time": 114.674,
        "duration": 0.109,
        "velocity": 0.8,
        "hand": "right"
      },
      {
        "midi": 38,
        "time": 114.783,
        "duration": 0.217,
        "velocity": 0.49,
        "hand": "left"
      },
      {
        "midi": 81,
        "time": 114.783,
        "duration": 0.652,
        "velocity": 0.71,
        "hand": "right"
      },
      {
        "midi": 93,
        "time": 114.783,
        "duration": 0.109,
        "velocity": 0.8,
        "hand": "right"
      },
      {
        "midi": 49,
        "time": 115,
        "duration": 0.109,
        "velocity": 0.49,
        "hand": "left"
      },
      {
        "midi": 90,
        "time": 115,
        "duration": 0.109,
        "velocity": 0.8,
        "hand": "right"
      },
      {
        "midi": 45,
        "time": 115.217,
        "duration": 0.109,
        "velocity": 0.49,
        "hand": "left"
      },
      {
        "midi": 86,
        "time": 115.217,
        "duration": 0.326,
        "velocity": 0.8,
        "hand": "right"
      },
      {
        "midi": 43,
        "time": 115.435,
        "duration": 0.109,
        "velocity": 0.49,
        "hand": "left"
      },
      {
        "midi": 90,
        "time": 115.435,
        "duration": 0.109,
        "velocity": 0.8,
        "hand": "right"
      },
      {
        "midi": 38,
        "time": 115.652,
        "duration": 0.217,
        "velocity": 0.49,
        "hand": "left"
      },
      {
        "midi": 81,
        "time": 115.652,
        "duration": 0.652,
        "velocity": 0.71,
        "hand": "right"
      },
      {
        "midi": 93,
        "time": 115.652,
        "duration": 0.652,
        "velocity": 0.8,
        "hand": "right"
      },
      {
        "midi": 49,
        "time": 115.761,
        "duration": 0.109,
        "velocity": 0.49,
        "hand": "left"
      },
      {
        "midi": 45,
        "time": 115.978,
        "duration": 0.109,
        "velocity": 0.49,
        "hand": "left"
      },
      {
        "midi": 43,
        "time": 116.196,
        "duration": 0.109,
        "velocity": 0.49,
        "hand": "left"
      },
      {
        "midi": 35,
        "time": 116.413,
        "duration": 0.217,
        "velocity": 0.49,
        "hand": "left"
      },
      {
        "midi": 47,
        "time": 116.413,
        "duration": 0.217,
        "velocity": 0.49,
        "hand": "left"
      },
      {
        "midi": 83,
        "time": 116.413,
        "duration": 0.109,
        "velocity": 0.49,
        "hand": "right"
      },
      {
        "midi": 45,
        "time": 116.63,
        "duration": 0.109,
        "velocity": 0.49,
        "hand": "left"
      },
      {
        "midi": 83,
        "time": 116.63,
        "duration": 0.109,
        "velocity": 0.49,
        "hand": "right"
      },
      {
        "midi": 85,
        "time": 116.63,
        "duration": 0.109,
        "velocity": 0.49,
        "hand": "right"
      },
      {
        "midi": 43,
        "time": 116.739,
        "duration": 0.109,
        "velocity": 0.49,
        "hand": "left"
      },
      {
        "midi": 83,
        "time": 116.739,
        "duration": 0.109,
        "velocity": 0.49,
        "hand": "right"
      },
      {
        "midi": 86,
        "time": 116.739,
        "duration": 0.109,
        "velocity": 0.49,
        "hand": "right"
      },
      {
        "midi": 42,
        "time": 116.957,
        "duration": 0.109,
        "velocity": 0.49,
        "hand": "left"
      },
      {
        "midi": 83,
        "time": 116.957,
        "duration": 0.109,
        "velocity": 0.49,
        "hand": "right"
      },
      {
        "midi": 88,
        "time": 116.957,
        "duration": 0.109,
        "velocity": 0.49,
        "hand": "right"
      },
      {
        "midi": 35,
        "time": 117.174,
        "duration": 0.217,
        "velocity": 0.49,
        "hand": "left"
      },
      {
        "midi": 83,
        "time": 117.174,
        "duration": 0.217,
        "velocity": 0.49,
        "hand": "right"
      },
      {
        "midi": 90,
        "time": 117.174,
        "duration": 0.217,
        "velocity": 0.49,
        "hand": "right"
      },
      {
        "midi": 45,
        "time": 117.391,
        "duration": 0.109,
        "velocity": 0.49,
        "hand": "left"
      },
      {
        "midi": 83,
        "time": 117.391,
        "duration": 0.109,
        "velocity": 0.49,
        "hand": "right"
      },
      {
        "midi": 86,
        "time": 117.391,
        "duration": 0.109,
        "velocity": 0.49,
        "hand": "right"
      },
      {
        "midi": 43,
        "time": 117.609,
        "duration": 0.109,
        "velocity": 0.49,
        "hand": "left"
      },
      {
        "midi": 86,
        "time": 117.609,
        "duration": 0.217,
        "velocity": 0.49,
        "hand": "right"
      },
      {
        "midi": 90,
        "time": 117.609,
        "duration": 0.217,
        "velocity": 0.49,
        "hand": "right"
      },
      {
        "midi": 42,
        "time": 117.717,
        "duration": 0.109,
        "velocity": 0.49,
        "hand": "left"
      },
      {
        "midi": 35,
        "time": 117.935,
        "duration": 0.217,
        "velocity": 0.49,
        "hand": "left"
      },
      {
        "midi": 83,
        "time": 117.935,
        "duration": 0.217,
        "velocity": 0.49,
        "hand": "right"
      },
      {
        "midi": 89,
        "time": 117.935,
        "duration": 0.217,
        "velocity": 0.49,
        "hand": "right"
      },
      {
        "midi": 45,
        "time": 118.152,
        "duration": 0.109,
        "velocity": 0.49,
        "hand": "left"
      },
      {
        "midi": 83,
        "time": 118.152,
        "duration": 0.109,
        "velocity": 0.49,
        "hand": "right"
      },
      {
        "midi": 85,
        "time": 118.152,
        "duration": 0.109,
        "velocity": 0.49,
        "hand": "right"
      },
      {
        "midi": 43,
        "time": 118.37,
        "duration": 0.109,
        "velocity": 0.49,
        "hand": "left"
      },
      {
        "midi": 85,
        "time": 118.37,
        "duration": 0.217,
        "velocity": 0.49,
        "hand": "right"
      },
      {
        "midi": 89,
        "time": 118.37,
        "duration": 0.217,
        "velocity": 0.49,
        "hand": "right"
      },
      {
        "midi": 42,
        "time": 118.478,
        "duration": 0.109,
        "velocity": 0.49,
        "hand": "left"
      },
      {
        "midi": 35,
        "time": 118.696,
        "duration": 0.217,
        "velocity": 0.49,
        "hand": "left"
      },
      {
        "midi": 83,
        "time": 118.696,
        "duration": 0.217,
        "velocity": 0.49,
        "hand": "right"
      },
      {
        "midi": 88,
        "time": 118.696,
        "duration": 0.217,
        "velocity": 0.49,
        "hand": "right"
      },
      {
        "midi": 45,
        "time": 118.913,
        "duration": 0.109,
        "velocity": 0.49,
        "hand": "left"
      },
      {
        "midi": 83,
        "time": 118.913,
        "duration": 0.109,
        "velocity": 0.49,
        "hand": "right"
      },
      {
        "midi": 84,
        "time": 118.913,
        "duration": 0.109,
        "velocity": 0.49,
        "hand": "right"
      },
      {
        "midi": 43,
        "time": 119.13,
        "duration": 0.109,
        "velocity": 0.49,
        "hand": "left"
      },
      {
        "midi": 84,
        "time": 119.13,
        "duration": 0.217,
        "velocity": 0.49,
        "hand": "right"
      },
      {
        "midi": 88,
        "time": 119.13,
        "duration": 0.217,
        "velocity": 0.49,
        "hand": "right"
      },
      {
        "midi": 42,
        "time": 119.348,
        "duration": 0.109,
        "velocity": 0.49,
        "hand": "left"
      },
      {
        "midi": 35,
        "time": 119.457,
        "duration": 0.217,
        "velocity": 0.49,
        "hand": "left"
      },
      {
        "midi": 47,
        "time": 119.457,
        "duration": 0.217,
        "velocity": 0.49,
        "hand": "left"
      },
      {
        "midi": 83,
        "time": 119.457,
        "duration": 0.109,
        "velocity": 0.49,
        "hand": "right"
      },
      {
        "midi": 45,
        "time": 119.674,
        "duration": 0.109,
        "velocity": 0.49,
        "hand": "left"
      },
      {
        "midi": 83,
        "time": 119.674,
        "duration": 0.109,
        "velocity": 0.49,
        "hand": "right"
      },
      {
        "midi": 85,
        "time": 119.674,
        "duration": 0.109,
        "velocity": 0.49,
        "hand": "right"
      },
      {
        "midi": 43,
        "time": 119.891,
        "duration": 0.109,
        "velocity": 0.49,
        "hand": "left"
      },
      {
        "midi": 83,
        "time": 119.891,
        "duration": 0.109,
        "velocity": 0.49,
        "hand": "right"
      },
      {
        "midi": 86,
        "time": 119.891,
        "duration": 0.109,
        "velocity": 0.49,
        "hand": "right"
      },
      {
        "midi": 42,
        "time": 120.109,
        "duration": 0.109,
        "velocity": 0.49,
        "hand": "left"
      },
      {
        "midi": 83,
        "time": 120.109,
        "duration": 0.109,
        "velocity": 0.49,
        "hand": "right"
      },
      {
        "midi": 88,
        "time": 120.109,
        "duration": 0.109,
        "velocity": 0.49,
        "hand": "right"
      },
      {
        "midi": 35,
        "time": 120.326,
        "duration": 0.217,
        "velocity": 0.49,
        "hand": "left"
      },
      {
        "midi": 83,
        "time": 120.326,
        "duration": 0.109,
        "velocity": 0.49,
        "hand": "right"
      },
      {
        "midi": 90,
        "time": 120.326,
        "duration": 0.109,
        "velocity": 0.49,
        "hand": "right"
      },
      {
        "midi": 45,
        "time": 120.435,
        "duration": 0.109,
        "velocity": 0.49,
        "hand": "left"
      },
      {
        "midi": 83,
        "time": 120.435,
        "duration": 0.109,
        "velocity": 0.49,
        "hand": "right"
      },
      {
        "midi": 86,
        "time": 120.435,
        "duration": 0.109,
        "velocity": 0.49,
        "hand": "right"
      },
      {
        "midi": 43,
        "time": 120.652,
        "duration": 0.109,
        "velocity": 0.49,
        "hand": "left"
      },
      {
        "midi": 83,
        "time": 120.652,
        "duration": 0.109,
        "velocity": 0.49,
        "hand": "right"
      },
      {
        "midi": 90,
        "time": 120.652,
        "duration": 0.109,
        "velocity": 0.49,
        "hand": "right"
      },
      {
        "midi": 42,
        "time": 120.87,
        "duration": 0.109,
        "velocity": 0.49,
        "hand": "left"
      },
      {
        "midi": 83,
        "time": 120.87,
        "duration": 0.109,
        "velocity": 0.49,
        "hand": "right"
      },
      {
        "midi": 95,
        "time": 120.87,
        "duration": 0.109,
        "velocity": 0.49,
        "hand": "right"
      },
      {
        "midi": 35,
        "time": 121.087,
        "duration": 0.217,
        "velocity": 0.49,
        "hand": "left"
      },
      {
        "midi": 83,
        "time": 121.087,
        "duration": 0.109,
        "velocity": 0.49,
        "hand": "right"
      },
      {
        "midi": 90,
        "time": 121.087,
        "duration": 0.109,
        "velocity": 0.49,
        "hand": "right"
      },
      {
        "midi": 45,
        "time": 121.304,
        "duration": 0.109,
        "velocity": 0.49,
        "hand": "left"
      },
      {
        "midi": 83,
        "time": 121.304,
        "duration": 0.109,
        "velocity": 0.49,
        "hand": "right"
      },
      {
        "midi": 86,
        "time": 121.304,
        "duration": 0.109,
        "velocity": 0.49,
        "hand": "right"
      },
      {
        "midi": 43,
        "time": 121.413,
        "duration": 0.109,
        "velocity": 0.49,
        "hand": "left"
      },
      {
        "midi": 83,
        "time": 121.413,
        "duration": 0.109,
        "velocity": 0.49,
        "hand": "right"
      },
      {
        "midi": 90,
        "time": 121.413,
        "duration": 0.109,
        "velocity": 0.49,
        "hand": "right"
      },
      {
        "midi": 42,
        "time": 121.63,
        "duration": 0.109,
        "velocity": 0.49,
        "hand": "left"
      },
      {
        "midi": 83,
        "time": 121.63,
        "duration": 0.109,
        "velocity": 0.49,
        "hand": "right"
      },
      {
        "midi": 95,
        "time": 121.63,
        "duration": 0.109,
        "velocity": 0.49,
        "hand": "right"
      },
      {
        "midi": 35,
        "time": 121.848,
        "duration": 0.217,
        "velocity": 0.49,
        "hand": "left"
      },
      {
        "midi": 47,
        "time": 121.848,
        "duration": 0.217,
        "velocity": 0.49,
        "hand": "left"
      },
      {
        "midi": 83,
        "time": 121.848,
        "duration": 0.652,
        "velocity": 0.49,
        "hand": "right"
      },
      {
        "midi": 45,
        "time": 122.065,
        "duration": 0.109,
        "velocity": 0.49,
        "hand": "left"
      },
      {
        "midi": 43,
        "time": 122.283,
        "duration": 0.109,
        "velocity": 0.49,
        "hand": "left"
      },
      {
        "midi": 42,
        "time": 122.391,
        "duration": 0.109,
        "velocity": 0.49,
        "hand": "left"
      },
      {
        "midi": 35,
        "time": 122.609,
        "duration": 0.326,
        "velocity": 0.49,
        "hand": "left"
      },
      {
        "midi": 47,
        "time": 122.609,
        "duration": 0.326,
        "velocity": 0.49,
        "hand": "left"
      },
      {
        "midi": 50,
        "time": 123.043,
        "duration": 0.217,
        "velocity": 0.49,
        "hand": "left"
      },
      {
        "midi": 59,
        "time": 123.043,
        "duration": 0.217,
        "velocity": 0.49,
        "hand": "left"
      },
      {
        "midi": 95,
        "time": 123.043,
        "duration": 0.109,
        "velocity": 0.5,
        "hand": "right"
      },
      {
        "midi": 35,
        "time": 124.13,
        "duration": 0.326,
        "velocity": 0.49,
        "hand": "left"
      },
      {
        "midi": 47,
        "time": 124.13,
        "duration": 0.326,
        "velocity": 0.49,
        "hand": "left"
      },
      {
        "midi": 50,
        "time": 124.565,
        "duration": 0.217,
        "velocity": 0.49,
        "hand": "left"
      },
      {
        "midi": 59,
        "time": 124.565,
        "duration": 0.217,
        "velocity": 0.49,
        "hand": "left"
      },
      {
        "midi": 95,
        "time": 124.565,
        "duration": 0.217,
        "velocity": 0.5,
        "hand": "right"
      },
      {
        "midi": 43,
        "time": 125.761,
        "duration": 0.326,
        "velocity": 0.49,
        "hand": "left"
      },
      {
        "midi": 55,
        "time": 125.761,
        "duration": 0.326,
        "velocity": 0.49,
        "hand": "left"
      },
      {
        "midi": 71,
        "time": 125.761,
        "duration": 0.109,
        "velocity": 0.5,
        "hand": "right"
      },
      {
        "midi": 73,
        "time": 125.978,
        "duration": 0.109,
        "velocity": 0.5,
        "hand": "right"
      },
      {
        "midi": 50,
        "time": 126.087,
        "duration": 0.326,
        "velocity": 0.49,
        "hand": "left"
      },
      {
        "midi": 59,
        "time": 126.087,
        "duration": 0.326,
        "velocity": 0.49,
        "hand": "left"
      },
      {
        "midi": 74,
        "time": 126.087,
        "duration": 0.109,
        "velocity": 0.5,
        "hand": "right"
      },
      {
        "midi": 76,
        "time": 126.304,
        "duration": 0.109,
        "velocity": 0.5,
        "hand": "right"
      },
      {
        "midi": 42,
        "time": 126.522,
        "duration": 0.326,
        "velocity": 0.49,
        "hand": "left"
      },
      {
        "midi": 54,
        "time": 126.522,
        "duration": 0.326,
        "velocity": 0.49,
        "hand": "left"
      },
      {
        "midi": 78,
        "time": 126.522,
        "duration": 0.109,
        "velocity": 0.5,
        "hand": "right"
      },
      {
        "midi": 74,
        "time": 126.739,
        "duration": 0.109,
        "velocity": 0.5,
        "hand": "right"
      },
      {
        "midi": 50,
        "time": 126.957,
        "duration": 0.326,
        "velocity": 0.49,
        "hand": "left"
      },
      {
        "midi": 59,
        "time": 126.957,
        "duration": 0.326,
        "velocity": 0.49,
        "hand": "left"
      },
      {
        "midi": 78,
        "time": 126.957,
        "duration": 0.109,
        "velocity": 0.5,
        "hand": "right"
      },
      {
        "midi": 83,
        "time": 127.065,
        "duration": 0.109,
        "velocity": 0.5,
        "hand": "right"
      },
      {
        "midi": 30,
        "time": 127.283,
        "duration": 0.326,
        "velocity": 0.49,
        "hand": "left"
      },
      {
        "midi": 42,
        "time": 127.283,
        "duration": 0.326,
        "velocity": 0.49,
        "hand": "left"
      },
      {
        "midi": 82,
        "time": 127.283,
        "duration": 0.109,
        "velocity": 0.5,
        "hand": "right"
      },
      {
        "midi": 78,
        "time": 127.5,
        "duration": 0.109,
        "velocity": 0.5,
        "hand": "right"
      },
      {
        "midi": 49,
        "time": 127.717,
        "duration": 0.326,
        "velocity": 0.49,
        "hand": "left"
      },
      {
        "midi": 58,
        "time": 127.717,
        "duration": 0.326,
        "velocity": 0.49,
        "hand": "left"
      },
      {
        "midi": 82,
        "time": 127.717,
        "duration": 0.109,
        "velocity": 0.5,
        "hand": "right"
      },
      {
        "midi": 85,
        "time": 127.826,
        "duration": 0.109,
        "velocity": 0.5,
        "hand": "right"
      },
      {
        "midi": 35,
        "time": 128.043,
        "duration": 0.326,
        "velocity": 0.49,
        "hand": "left"
      },
      {
        "midi": 47,
        "time": 128.043,
        "duration": 0.326,
        "velocity": 0.49,
        "hand": "left"
      },
      {
        "midi": 83,
        "time": 128.043,
        "duration": 0.652,
        "velocity": 0.5,
        "hand": "right"
      },
      {
        "midi": 50,
        "time": 128.478,
        "duration": 0.326,
        "velocity": 0.49,
        "hand": "left"
      },
      {
        "midi": 54,
        "time": 128.478,
        "duration": 0.326,
        "velocity": 0.49,
        "hand": "left"
      },
      {
        "midi": 59,
        "time": 128.478,
        "duration": 0.326,
        "velocity": 0.49,
        "hand": "left"
      },
      {
        "midi": 35,
        "time": 128.804,
        "duration": 0.326,
        "velocity": 0.49,
        "hand": "left"
      },
      {
        "midi": 47,
        "time": 128.804,
        "duration": 0.326,
        "velocity": 0.49,
        "hand": "left"
      },
      {
        "midi": 50,
        "time": 129.239,
        "duration": 0.217,
        "velocity": 0.49,
        "hand": "left"
      },
      {
        "midi": 59,
        "time": 129.239,
        "duration": 0.217,
        "velocity": 0.49,
        "hand": "left"
      },
      {
        "midi": 95,
        "time": 129.239,
        "duration": 0.109,
        "velocity": 0.5,
        "hand": "right"
      },
      {
        "midi": 35,
        "time": 130.435,
        "duration": 0.326,
        "velocity": 0.49,
        "hand": "left"
      },
      {
        "midi": 47,
        "time": 130.435,
        "duration": 0.326,
        "velocity": 0.49,
        "hand": "left"
      },
      {
        "midi": 50,
        "time": 130.761,
        "duration": 0.217,
        "velocity": 0.49,
        "hand": "left"
      },
      {
        "midi": 59,
        "time": 130.761,
        "duration": 0.217,
        "velocity": 0.49,
        "hand": "left"
      },
      {
        "midi": 95,
        "time": 130.761,
        "duration": 0.217,
        "velocity": 0.5,
        "hand": "right"
      },
      {
        "midi": 43,
        "time": 131.957,
        "duration": 0.326,
        "velocity": 0.49,
        "hand": "left"
      },
      {
        "midi": 55,
        "time": 131.957,
        "duration": 0.326,
        "velocity": 0.49,
        "hand": "left"
      },
      {
        "midi": 83,
        "time": 131.957,
        "duration": 0.109,
        "velocity": 0.5,
        "hand": "right"
      },
      {
        "midi": 85,
        "time": 132.174,
        "duration": 0.109,
        "velocity": 0.5,
        "hand": "right"
      },
      {
        "midi": 50,
        "time": 132.391,
        "duration": 0.326,
        "velocity": 0.49,
        "hand": "left"
      },
      {
        "midi": 59,
        "time": 132.391,
        "duration": 0.326,
        "velocity": 0.49,
        "hand": "left"
      },
      {
        "midi": 86,
        "time": 132.391,
        "duration": 0.109,
        "velocity": 0.5,
        "hand": "right"
      },
      {
        "midi": 88,
        "time": 132.609,
        "duration": 0.109,
        "velocity": 0.5,
        "hand": "right"
      },
      {
        "midi": 42,
        "time": 132.717,
        "duration": 0.326,
        "velocity": 0.49,
        "hand": "left"
      },
      {
        "midi": 54,
        "time": 132.717,
        "duration": 0.326,
        "velocity": 0.49,
        "hand": "left"
      },
      {
        "midi": 90,
        "time": 132.717,
        "duration": 0.109,
        "velocity": 0.5,
        "hand": "right"
      },
      {
        "midi": 86,
        "time": 132.935,
        "duration": 0.109,
        "velocity": 0.5,
        "hand": "right"
      },
      {
        "midi": 50,
        "time": 133.152,
        "duration": 0.326,
        "velocity": 0.49,
        "hand": "left"
      },
      {
        "midi": 59,
        "time": 133.152,
        "duration": 0.326,
        "velocity": 0.49,
        "hand": "left"
      },
      {
        "midi": 90,
        "time": 133.152,
        "duration": 0.109,
        "velocity": 0.5,
        "hand": "right"
      },
      {
        "midi": 95,
        "time": 133.37,
        "duration": 0.109,
        "velocity": 0.5,
        "hand": "right"
      },
      {
        "midi": 30,
        "time": 133.478,
        "duration": 0.326,
        "velocity": 0.49,
        "hand": "left"
      },
      {
        "midi": 42,
        "time": 133.478,
        "duration": 0.326,
        "velocity": 0.49,
        "hand": "left"
      },
      {
        "midi": 94,
        "time": 133.478,
        "duration": 0.109,
        "velocity": 0.5,
        "hand": "right"
      },
      {
        "midi": 90,
        "time": 133.696,
        "duration": 0.109,
        "velocity": 0.5,
        "hand": "right"
      },
      {
        "midi": 49,
        "time": 133.913,
        "duration": 0.326,
        "velocity": 0.49,
        "hand": "left"
      },
      {
        "midi": 58,
        "time": 133.913,
        "duration": 0.326,
        "velocity": 0.49,
        "hand": "left"
      },
      {
        "midi": 94,
        "time": 133.913,
        "duration": 0.109,
        "velocity": 0.5,
        "hand": "right"
      },
      {
        "midi": 97,
        "time": 134.13,
        "duration": 0.109,
        "velocity": 0.5,
        "hand": "right"
      },
      {
        "midi": 35,
        "time": 134.348,
        "duration": 0.326,
        "velocity": 0.49,
        "hand": "left"
      },
      {
        "midi": 47,
        "time": 134.348,
        "duration": 0.326,
        "velocity": 0.49,
        "hand": "left"
      },
      {
        "midi": 95,
        "time": 134.348,
        "duration": 0.652,
        "velocity": 0.5,
        "hand": "right"
      },
      {
        "midi": 50,
        "time": 134.674,
        "duration": 0.326,
        "velocity": 0.49,
        "hand": "left"
      },
      {
        "midi": 54,
        "time": 134.674,
        "duration": 0.326,
        "velocity": 0.49,
        "hand": "left"
      },
      {
        "midi": 59,
        "time": 134.674,
        "duration": 0.326,
        "velocity": 0.49,
        "hand": "left"
      },
      {
        "midi": 35,
        "time": 135.109,
        "duration": 0.326,
        "velocity": 0.49,
        "hand": "left"
      },
      {
        "midi": 47,
        "time": 135.109,
        "duration": 0.326,
        "velocity": 0.49,
        "hand": "left"
      },
      {
        "midi": 50,
        "time": 135.435,
        "duration": 0.217,
        "velocity": 0.49,
        "hand": "left"
      },
      {
        "midi": 59,
        "time": 135.435,
        "duration": 0.217,
        "velocity": 0.49,
        "hand": "left"
      },
      {
        "midi": 95,
        "time": 135.435,
        "duration": 0.109,
        "velocity": 0.5,
        "hand": "right"
      },
      {
        "midi": 35,
        "time": 136.63,
        "duration": 0.326,
        "velocity": 0.49,
        "hand": "left"
      },
      {
        "midi": 47,
        "time": 136.63,
        "duration": 0.326,
        "velocity": 0.49,
        "hand": "left"
      },
      {
        "midi": 50,
        "time": 137.065,
        "duration": 0.217,
        "velocity": 0.49,
        "hand": "left"
      },
      {
        "midi": 59,
        "time": 137.065,
        "duration": 0.217,
        "velocity": 0.49,
        "hand": "left"
      },
      {
        "midi": 95,
        "time": 137.065,
        "duration": 0.109,
        "velocity": 0.5,
        "hand": "right"
      },
      {
        "midi": 35,
        "time": 138.152,
        "duration": 0.326,
        "velocity": 0.49,
        "hand": "left"
      },
      {
        "midi": 47,
        "time": 138.152,
        "duration": 0.326,
        "velocity": 0.49,
        "hand": "left"
      },
      {
        "midi": 50,
        "time": 138.587,
        "duration": 0.217,
        "velocity": 0.49,
        "hand": "left"
      },
      {
        "midi": 59,
        "time": 138.587,
        "duration": 0.217,
        "velocity": 0.49,
        "hand": "left"
      },
      {
        "midi": 95,
        "time": 138.587,
        "duration": 0.326,
        "velocity": 0.49,
        "hand": "right"
      },
      {
        "midi": 50,
        "time": 139.022,
        "duration": 0.217,
        "velocity": 0.49,
        "hand": "left"
      },
      {
        "midi": 59,
        "time": 139.022,
        "duration": 0.217,
        "velocity": 0.49,
        "hand": "left"
      },
      {
        "midi": 95,
        "time": 139.022,
        "duration": 0.326,
        "velocity": 0.49,
        "hand": "right"
      },
      {
        "midi": 50,
        "time": 139.348,
        "duration": 0.217,
        "velocity": 0.49,
        "hand": "left"
      },
      {
        "midi": 59,
        "time": 139.348,
        "duration": 0.217,
        "velocity": 0.49,
        "hand": "left"
      },
      {
        "midi": 95,
        "time": 139.348,
        "duration": 0.326,
        "velocity": 0.49,
        "hand": "right"
      },
      {
        "midi": 50,
        "time": 139.783,
        "duration": 0.217,
        "velocity": 0.49,
        "hand": "left"
      },
      {
        "midi": 59,
        "time": 139.783,
        "duration": 0.217,
        "velocity": 0.49,
        "hand": "left"
      },
      {
        "midi": 95,
        "time": 139.783,
        "duration": 0.326,
        "velocity": 0.49,
        "hand": "right"
      },
      {
        "midi": 50,
        "time": 140.109,
        "duration": 0.217,
        "velocity": 0.49,
        "hand": "left"
      },
      {
        "midi": 56,
        "time": 140.109,
        "duration": 0.217,
        "velocity": 0.49,
        "hand": "left"
      },
      {
        "midi": 59,
        "time": 140.109,
        "duration": 0.217,
        "velocity": 0.49,
        "hand": "left"
      },
      {
        "midi": 86,
        "time": 140.217,
        "duration": 0.326,
        "velocity": 0.51,
        "hand": "right"
      },
      {
        "midi": 95,
        "time": 140.217,
        "duration": 0.326,
        "velocity": 0.51,
        "hand": "right"
      },
      {
        "midi": 50,
        "time": 140.543,
        "duration": 0.217,
        "velocity": 0.49,
        "hand": "left"
      },
      {
        "midi": 59,
        "time": 140.543,
        "duration": 0.217,
        "velocity": 0.49,
        "hand": "left"
      },
      {
        "midi": 95,
        "time": 140.543,
        "duration": 0.326,
        "velocity": 0.54,
        "hand": "right"
      },
      {
        "midi": 50,
        "time": 140.978,
        "duration": 0.217,
        "velocity": 0.49,
        "hand": "left"
      },
      {
        "midi": 59,
        "time": 140.978,
        "duration": 0.217,
        "velocity": 0.49,
        "hand": "left"
      },
      {
        "midi": 95,
        "time": 140.978,
        "duration": 0.326,
        "velocity": 0.57,
        "hand": "right"
      },
      {
        "midi": 35,
        "time": 142.065,
        "duration": 0.109,
        "velocity": 0.49,
        "hand": "left"
      },
      {
        "midi": 47,
        "time": 142.174,
        "duration": 0.109,
        "velocity": 0.49,
        "hand": "left"
      },
      {
        "midi": 35,
        "time": 142.283,
        "duration": 0.109,
        "velocity": 0.49,
        "hand": "left"
      },
      {
        "midi": 47,
        "time": 142.391,
        "duration": 0.109,
        "velocity": 0.49,
        "hand": "left"
      },
      {
        "midi": 35,
        "time": 142.5,
        "duration": 0.109,
        "velocity": 0.49,
        "hand": "left"
      },
      {
        "midi": 47,
        "time": 142.609,
        "duration": 0.109,
        "velocity": 0.49,
        "hand": "left"
      },
      {
        "midi": 35,
        "time": 142.717,
        "duration": 0.109,
        "velocity": 0.49,
        "hand": "left"
      },
      {
        "midi": 35,
        "time": 142.826,
        "duration": 0.109,
        "velocity": 0.49,
        "hand": "left"
      },
      {
        "midi": 47,
        "time": 142.826,
        "duration": 0.109,
        "velocity": 0.49,
        "hand": "left"
      },
      {
        "midi": 47,
        "time": 142.935,
        "duration": 0.109,
        "velocity": 0.49,
        "hand": "left"
      },
      {
        "midi": 35,
        "time": 143.043,
        "duration": 0.109,
        "velocity": 0.49,
        "hand": "left"
      },
      {
        "midi": 47,
        "time": 143.152,
        "duration": 0.109,
        "velocity": 0.49,
        "hand": "left"
      },
      {
        "midi": 35,
        "time": 143.261,
        "duration": 0.109,
        "velocity": 0.49,
        "hand": "left"
      },
      {
        "midi": 47,
        "time": 143.37,
        "duration": 0.109,
        "velocity": 0.49,
        "hand": "left"
      },
      {
        "midi": 35,
        "time": 143.478,
        "duration": 0.109,
        "velocity": 0.49,
        "hand": "left"
      },
      {
        "midi": 47,
        "time": 143.587,
        "duration": 0.109,
        "velocity": 0.56,
        "hand": "left"
      },
      {
        "midi": 35,
        "time": 143.696,
        "duration": 0.109,
        "velocity": 0.64,
        "hand": "left"
      },
      {
        "midi": 35,
        "time": 143.804,
        "duration": 0.109,
        "velocity": 0.71,
        "hand": "left"
      },
      {
        "midi": 47,
        "time": 143.804,
        "duration": 0.109,
        "velocity": 0.71,
        "hand": "left"
      },
      {
        "midi": 47,
        "time": 143.913,
        "duration": 0.109,
        "velocity": 0.71,
        "hand": "left"
      },
      {
        "midi": 35,
        "time": 144.022,
        "duration": 0.109,
        "velocity": 0.71,
        "hand": "left"
      },
      {
        "midi": 47,
        "time": 144.13,
        "duration": 0.109,
        "velocity": 0.71,
        "hand": "left"
      },
      {
        "midi": 35,
        "time": 144.239,
        "duration": 0.109,
        "velocity": 0.71,
        "hand": "left"
      },
      {
        "midi": 47,
        "time": 144.348,
        "duration": 0.109,
        "velocity": 0.71,
        "hand": "left"
      },
      {
        "midi": 23,
        "time": 144.457,
        "duration": 0.326,
        "velocity": 0.8,
        "hand": "left"
      },
      {
        "midi": 35,
        "time": 144.457,
        "duration": 0.326,
        "velocity": 0.8,
        "hand": "left"
      },
      {
        "midi": 47,
        "time": 144.783,
        "duration": 0.217,
        "velocity": 0.8,
        "hand": "left"
      },
      {
        "midi": 54,
        "time": 144.783,
        "duration": 0.217,
        "velocity": 0.8,
        "hand": "left"
      },
      {
        "midi": 59,
        "time": 144.783,
        "duration": 0.217,
        "velocity": 0.8,
        "hand": "left"
      },
      {
        "midi": 86,
        "time": 144.891,
        "duration": 0.326,
        "velocity": 0.8,
        "hand": "right"
      },
      {
        "midi": 95,
        "time": 144.891,
        "duration": 0.326,
        "velocity": 0.8,
        "hand": "right"
      }
    ],
    "hard": [
      {
        "midi": 54,
        "time": 0,
        "duration": 1.522,
        "velocity": 0.54,
        "hand": "right"
      },
      {
        "midi": 66,
        "time": 0,
        "duration": 1.522,
        "velocity": 0.54,
        "hand": "right"
      },
      {
        "midi": 23,
        "time": 1.739,
        "duration": 0.217,
        "velocity": 0.49,
        "hand": "left"
      },
      {
        "midi": 35,
        "time": 1.739,
        "duration": 0.109,
        "velocity": 0.49,
        "hand": "right"
      },
      {
        "midi": 37,
        "time": 1.957,
        "duration": 0.109,
        "velocity": 0.49,
        "hand": "right"
      },
      {
        "midi": 30,
        "time": 2.174,
        "duration": 0.217,
        "velocity": 0.49,
        "hand": "left"
      },
      {
        "midi": 38,
        "time": 2.174,
        "duration": 0.109,
        "velocity": 0.49,
        "hand": "right"
      },
      {
        "midi": 40,
        "time": 2.391,
        "duration": 0.109,
        "velocity": 0.49,
        "hand": "right"
      },
      {
        "midi": 23,
        "time": 2.609,
        "duration": 0.217,
        "velocity": 0.49,
        "hand": "left"
      },
      {
        "midi": 42,
        "time": 2.609,
        "duration": 0.109,
        "velocity": 0.49,
        "hand": "right"
      },
      {
        "midi": 38,
        "time": 2.826,
        "duration": 0.109,
        "velocity": 0.49,
        "hand": "right"
      },
      {
        "midi": 30,
        "time": 3.043,
        "duration": 0.217,
        "velocity": 0.49,
        "hand": "left"
      },
      {
        "midi": 42,
        "time": 3.043,
        "duration": 0.217,
        "velocity": 0.49,
        "hand": "right"
      },
      {
        "midi": 23,
        "time": 3.478,
        "duration": 0.217,
        "velocity": 0.49,
        "hand": "left"
      },
      {
        "midi": 41,
        "time": 3.478,
        "duration": 0.109,
        "velocity": 0.49,
        "hand": "right"
      },
      {
        "midi": 37,
        "time": 3.696,
        "duration": 0.109,
        "velocity": 0.49,
        "hand": "right"
      },
      {
        "midi": 30,
        "time": 3.913,
        "duration": 0.217,
        "velocity": 0.49,
        "hand": "left"
      },
      {
        "midi": 41,
        "time": 3.913,
        "duration": 0.217,
        "velocity": 0.49,
        "hand": "right"
      },
      {
        "midi": 23,
        "time": 4.348,
        "duration": 0.217,
        "velocity": 0.49,
        "hand": "left"
      },
      {
        "midi": 40,
        "time": 4.348,
        "duration": 0.109,
        "velocity": 0.49,
        "hand": "right"
      },
      {
        "midi": 36,
        "time": 4.565,
        "duration": 0.109,
        "velocity": 0.49,
        "hand": "right"
      },
      {
        "midi": 30,
        "time": 4.783,
        "duration": 0.217,
        "velocity": 0.49,
        "hand": "left"
      },
      {
        "midi": 40,
        "time": 4.783,
        "duration": 0.217,
        "velocity": 0.49,
        "hand": "right"
      },
      {
        "midi": 23,
        "time": 5.217,
        "duration": 0.217,
        "velocity": 0.49,
        "hand": "left"
      },
      {
        "midi": 35,
        "time": 5.217,
        "duration": 0.109,
        "velocity": 0.49,
        "hand": "right"
      },
      {
        "midi": 37,
        "time": 5.435,
        "duration": 0.109,
        "velocity": 0.49,
        "hand": "right"
      },
      {
        "midi": 30,
        "time": 5.652,
        "duration": 0.217,
        "velocity": 0.49,
        "hand": "left"
      },
      {
        "midi": 38,
        "time": 5.652,
        "duration": 0.109,
        "velocity": 0.49,
        "hand": "right"
      },
      {
        "midi": 40,
        "time": 5.87,
        "duration": 0.109,
        "velocity": 0.49,
        "hand": "right"
      },
      {
        "midi": 23,
        "time": 6.087,
        "duration": 0.217,
        "velocity": 0.49,
        "hand": "left"
      },
      {
        "midi": 42,
        "time": 6.087,
        "duration": 0.109,
        "velocity": 0.49,
        "hand": "right"
      },
      {
        "midi": 38,
        "time": 6.304,
        "duration": 0.109,
        "velocity": 0.49,
        "hand": "right"
      },
      {
        "midi": 30,
        "time": 6.522,
        "duration": 0.217,
        "velocity": 0.49,
        "hand": "left"
      },
      {
        "midi": 42,
        "time": 6.522,
        "duration": 0.109,
        "velocity": 0.49,
        "hand": "right"
      },
      {
        "midi": 47,
        "time": 6.739,
        "duration": 0.109,
        "velocity": 0.49,
        "hand": "right"
      },
      {
        "midi": 26,
        "time": 6.957,
        "duration": 0.217,
        "velocity": 0.49,
        "hand": "left"
      },
      {
        "midi": 45,
        "time": 6.957,
        "duration": 0.109,
        "velocity": 0.49,
        "hand": "right"
      },
      {
        "midi": 42,
        "time": 7.174,
        "duration": 0.109,
        "velocity": 0.49,
        "hand": "right"
      },
      {
        "midi": 33,
        "time": 7.391,
        "duration": 0.217,
        "velocity": 0.49,
        "hand": "left"
      },
      {
        "midi": 38,
        "time": 7.391,
        "duration": 0.109,
        "velocity": 0.49,
        "hand": "right"
      },
      {
        "midi": 42,
        "time": 7.609,
        "duration": 0.109,
        "velocity": 0.49,
        "hand": "right"
      },
      {
        "midi": 26,
        "time": 7.826,
        "duration": 0.217,
        "velocity": 0.49,
        "hand": "left"
      },
      {
        "midi": 45,
        "time": 7.826,
        "duration": 0.761,
        "velocity": 0.49,
        "hand": "right"
      },
      {
        "midi": 33,
        "time": 8.261,
        "duration": 0.217,
        "velocity": 0.49,
        "hand": "left"
      },
      {
        "midi": 23,
        "time": 8.696,
        "duration": 0.217,
        "velocity": 0.49,
        "hand": "left"
      },
      {
        "midi": 47,
        "time": 8.696,
        "duration": 0.109,
        "velocity": 0.49,
        "hand": "right"
      },
      {
        "midi": 49,
        "time": 8.913,
        "duration": 0.109,
        "velocity": 0.49,
        "hand": "right"
      },
      {
        "midi": 30,
        "time": 9.13,
        "duration": 0.217,
        "velocity": 0.49,
        "hand": "left"
      },
      {
        "midi": 50,
        "time": 9.13,
        "duration": 0.109,
        "velocity": 0.49,
        "hand": "right"
      },
      {
        "midi": 52,
        "time": 9.348,
        "duration": 0.109,
        "velocity": 0.49,
        "hand": "right"
      },
      {
        "midi": 23,
        "time": 9.565,
        "duration": 0.217,
        "velocity": 0.49,
        "hand": "left"
      },
      {
        "midi": 54,
        "time": 9.565,
        "duration": 0.109,
        "velocity": 0.49,
        "hand": "right"
      },
      {
        "midi": 50,
        "time": 9.783,
        "duration": 0.109,
        "velocity": 0.49,
        "hand": "right"
      },
      {
        "midi": 30,
        "time": 10,
        "duration": 0.217,
        "velocity": 0.49,
        "hand": "left"
      },
      {
        "midi": 54,
        "time": 10,
        "duration": 0.217,
        "velocity": 0.49,
        "hand": "right"
      },
      {
        "midi": 23,
        "time": 10.435,
        "duration": 0.217,
        "velocity": 0.49,
        "hand": "left"
      },
      {
        "midi": 53,
        "time": 10.435,
        "duration": 0.109,
        "velocity": 0.49,
        "hand": "right"
      },
      {
        "midi": 49,
        "time": 10.652,
        "duration": 0.109,
        "velocity": 0.49,
        "hand": "right"
      },
      {
        "midi": 30,
        "time": 10.87,
        "duration": 0.217,
        "velocity": 0.49,
        "hand": "left"
      },
      {
        "midi": 53,
        "time": 10.87,
        "duration": 0.217,
        "velocity": 0.49,
        "hand": "right"
      },
      {
        "midi": 23,
        "time": 11.304,
        "duration": 0.217,
        "velocity": 0.49,
        "hand": "left"
      },
      {
        "midi": 52,
        "time": 11.304,
        "duration": 0.109,
        "velocity": 0.49,
        "hand": "right"
      },
      {
        "midi": 48,
        "time": 11.522,
        "duration": 0.109,
        "velocity": 0.49,
        "hand": "right"
      },
      {
        "midi": 30,
        "time": 11.739,
        "duration": 0.217,
        "velocity": 0.49,
        "hand": "left"
      },
      {
        "midi": 52,
        "time": 11.739,
        "duration": 0.217,
        "velocity": 0.49,
        "hand": "right"
      },
      {
        "midi": 23,
        "time": 12.174,
        "duration": 0.217,
        "velocity": 0.49,
        "hand": "left"
      },
      {
        "midi": 47,
        "time": 12.174,
        "duration": 0.109,
        "velocity": 0.49,
        "hand": "right"
      },
      {
        "midi": 49,
        "time": 12.391,
        "duration": 0.109,
        "velocity": 0.49,
        "hand": "right"
      },
      {
        "midi": 30,
        "time": 12.609,
        "duration": 0.217,
        "velocity": 0.49,
        "hand": "left"
      },
      {
        "midi": 50,
        "time": 12.609,
        "duration": 0.109,
        "velocity": 0.49,
        "hand": "right"
      },
      {
        "midi": 52,
        "time": 12.826,
        "duration": 0.109,
        "velocity": 0.49,
        "hand": "right"
      },
      {
        "midi": 23,
        "time": 13.043,
        "duration": 0.217,
        "velocity": 0.49,
        "hand": "left"
      },
      {
        "midi": 54,
        "time": 13.043,
        "duration": 0.109,
        "velocity": 0.49,
        "hand": "right"
      },
      {
        "midi": 50,
        "time": 13.261,
        "duration": 0.109,
        "velocity": 0.49,
        "hand": "right"
      },
      {
        "midi": 30,
        "time": 13.478,
        "duration": 0.217,
        "velocity": 0.49,
        "hand": "left"
      },
      {
        "midi": 54,
        "time": 13.478,
        "duration": 0.109,
        "velocity": 0.49,
        "hand": "right"
      },
      {
        "midi": 59,
        "time": 13.696,
        "duration": 0.109,
        "velocity": 0.49,
        "hand": "right"
      },
      {
        "midi": 26,
        "time": 13.913,
        "duration": 0.217,
        "velocity": 0.49,
        "hand": "left"
      },
      {
        "midi": 57,
        "time": 13.913,
        "duration": 0.109,
        "velocity": 0.49,
        "hand": "right"
      },
      {
        "midi": 54,
        "time": 14.13,
        "duration": 0.109,
        "velocity": 0.49,
        "hand": "right"
      },
      {
        "midi": 33,
        "time": 14.348,
        "duration": 0.217,
        "velocity": 0.49,
        "hand": "left"
      },
      {
        "midi": 50,
        "time": 14.348,
        "duration": 0.109,
        "velocity": 0.49,
        "hand": "right"
      },
      {
        "midi": 54,
        "time": 14.565,
        "duration": 0.109,
        "velocity": 0.49,
        "hand": "right"
      },
      {
        "midi": 26,
        "time": 14.783,
        "duration": 0.217,
        "velocity": 0.49,
        "hand": "left"
      },
      {
        "midi": 45,
        "time": 14.783,
        "duration": 0.761,
        "velocity": 0.49,
        "hand": "right"
      },
      {
        "midi": 57,
        "time": 14.783,
        "duration": 0.761,
        "velocity": 0.49,
        "hand": "right"
      },
      {
        "midi": 33,
        "time": 15.217,
        "duration": 0.217,
        "velocity": 0.49,
        "hand": "left"
      },
      {
        "midi": 30,
        "time": 15.652,
        "duration": 0.326,
        "velocity": 0.49,
        "hand": "left"
      },
      {
        "midi": 42,
        "time": 15.652,
        "duration": 0.109,
        "velocity": 0.49,
        "hand": "right"
      },
      {
        "midi": 44,
        "time": 15.87,
        "duration": 0.109,
        "velocity": 0.49,
        "hand": "right"
      },
      {
        "midi": 37,
        "time": 16.087,
        "duration": 0.326,
        "velocity": 0.49,
        "hand": "left"
      },
      {
        "midi": 46,
        "time": 16.087,
        "duration": 0.109,
        "velocity": 0.49,
        "hand": "right"
      },
      {
        "midi": 47,
        "time": 16.304,
        "duration": 0.109,
        "velocity": 0.49,
        "hand": "right"
      },
      {
        "midi": 30,
        "time": 16.522,
        "duration": 0.326,
        "velocity": 0.49,
        "hand": "left"
      },
      {
        "midi": 49,
        "time": 16.522,
        "duration": 0.109,
        "velocity": 0.49,
        "hand": "right"
      },
      {
        "midi": 46,
        "time": 16.739,
        "duration": 0.109,
        "velocity": 0.49,
        "hand": "right"
      },
      {
        "midi": 37,
        "time": 16.957,
        "duration": 0.326,
        "velocity": 0.49,
        "hand": "left"
      },
      {
        "midi": 49,
        "time": 16.957,
        "duration": 0.217,
        "velocity": 0.49,
        "hand": "right"
      },
      {
        "midi": 26,
        "time": 17.391,
        "duration": 0.326,
        "velocity": 0.49,
        "hand": "left"
      },
      {
        "midi": 50,
        "time": 17.391,
        "duration": 0.109,
        "velocity": 0.49,
        "hand": "right"
      },
      {
        "midi": 46,
        "time": 17.609,
        "duration": 0.109,
        "velocity": 0.49,
        "hand": "right"
      },
      {
        "midi": 34,
        "time": 17.826,
        "duration": 0.326,
        "velocity": 0.49,
        "hand": "left"
      },
      {
        "midi": 50,
        "time": 17.826,
        "duration": 0.217,
        "velocity": 0.49,
        "hand": "right"
      },
      {
        "midi": 30,
        "time": 18.261,
        "duration": 0.326,
        "velocity": 0.49,
        "hand": "left"
      },
      {
        "midi": 49,
        "time": 18.261,
        "duration": 0.109,
        "velocity": 0.49,
        "hand": "right"
      },
      {
        "midi": 46,
        "time": 18.478,
        "duration": 0.109,
        "velocity": 0.49,
        "hand": "right"
      },
      {
        "midi": 37,
        "time": 18.696,
        "duration": 0.326,
        "velocity": 0.49,
        "hand": "left"
      },
      {
        "midi": 49,
        "time": 18.696,
        "duration": 0.217,
        "velocity": 0.49,
        "hand": "right"
      },
      {
        "midi": 30,
        "time": 19.13,
        "duration": 0.326,
        "velocity": 0.49,
        "hand": "left"
      },
      {
        "midi": 42,
        "time": 19.13,
        "duration": 0.109,
        "velocity": 0.49,
        "hand": "right"
      },
      {
        "midi": 44,
        "time": 19.348,
        "duration": 0.109,
        "velocity": 0.49,
        "hand": "right"
      },
      {
        "midi": 37,
        "time": 19.565,
        "duration": 0.326,
        "velocity": 0.49,
        "hand": "left"
      },
      {
        "midi": 46,
        "time": 19.565,
        "duration": 0.109,
        "velocity": 0.49,
        "hand": "right"
      },
      {
        "midi": 47,
        "time": 19.783,
        "duration": 0.109,
        "velocity": 0.49,
        "hand": "right"
      },
      {
        "midi": 30,
        "time": 20,
        "duration": 0.326,
        "velocity": 0.49,
        "hand": "left"
      },
      {
        "midi": 49,
        "time": 20,
        "duration": 0.109,
        "velocity": 0.49,
        "hand": "right"
      },
      {
        "midi": 46,
        "time": 20.217,
        "duration": 0.109,
        "velocity": 0.49,
        "hand": "right"
      },
      {
        "midi": 37,
        "time": 20.435,
        "duration": 0.326,
        "velocity": 0.49,
        "hand": "left"
      },
      {
        "midi": 49,
        "time": 20.435,
        "duration": 0.217,
        "velocity": 0.49,
        "hand": "right"
      },
      {
        "midi": 26,
        "time": 20.87,
        "duration": 0.326,
        "velocity": 0.49,
        "hand": "left"
      },
      {
        "midi": 50,
        "time": 20.87,
        "duration": 0.109,
        "velocity": 0.49,
        "hand": "right"
      },
      {
        "midi": 46,
        "time": 21.087,
        "duration": 0.109,
        "velocity": 0.49,
        "hand": "right"
      },
      {
        "midi": 34,
        "time": 21.304,
        "duration": 0.326,
        "velocity": 0.49,
        "hand": "left"
      },
      {
        "midi": 50,
        "time": 21.304,
        "duration": 0.217,
        "velocity": 0.49,
        "hand": "right"
      },
      {
        "midi": 30,
        "time": 21.739,
        "duration": 0.326,
        "velocity": 0.49,
        "hand": "left"
      },
      {
        "midi": 49,
        "time": 21.739,
        "duration": 0.761,
        "velocity": 0.49,
        "hand": "right"
      },
      {
        "midi": 37,
        "time": 22.174,
        "duration": 0.326,
        "velocity": 0.49,
        "hand": "left"
      },
      {
        "midi": 30,
        "time": 22.609,
        "duration": 0.326,
        "velocity": 0.49,
        "hand": "left"
      },
      {
        "midi": 54,
        "time": 22.609,
        "duration": 0.109,
        "velocity": 0.49,
        "hand": "right"
      },
      {
        "midi": 56,
        "time": 22.826,
        "duration": 0.109,
        "velocity": 0.49,
        "hand": "right"
      },
      {
        "midi": 37,
        "time": 23.043,
        "duration": 0.326,
        "velocity": 0.49,
        "hand": "left"
      },
      {
        "midi": 58,
        "time": 23.043,
        "duration": 0.109,
        "velocity": 0.49,
        "hand": "right"
      },
      {
        "midi": 59,
        "time": 23.261,
        "duration": 0.109,
        "velocity": 0.49,
        "hand": "right"
      },
      {
        "midi": 30,
        "time": 23.478,
        "duration": 0.326,
        "velocity": 0.49,
        "hand": "left"
      },
      {
        "midi": 61,
        "time": 23.478,
        "duration": 0.109,
        "velocity": 0.49,
        "hand": "right"
      },
      {
        "midi": 58,
        "time": 23.696,
        "duration": 0.109,
        "velocity": 0.49,
        "hand": "right"
      },
      {
        "midi": 37,
        "time": 23.913,
        "duration": 0.326,
        "velocity": 0.49,
        "hand": "left"
      },
      {
        "midi": 61,
        "time": 23.913,
        "duration": 0.217,
        "velocity": 0.49,
        "hand": "right"
      },
      {
        "midi": 26,
        "time": 24.348,
        "duration": 0.326,
        "velocity": 0.49,
        "hand": "left"
      },
      {
        "midi": 62,
        "time": 24.348,
        "duration": 0.109,
        "velocity": 0.49,
        "hand": "right"
      },
      {
        "midi": 58,
        "time": 24.565,
        "duration": 0.109,
        "velocity": 0.49,
        "hand": "right"
      },
      {
        "midi": 34,
        "time": 24.783,
        "duration": 0.326,
        "velocity": 0.49,
        "hand": "left"
      },
      {
        "midi": 62,
        "time": 24.783,
        "duration": 0.217,
        "velocity": 0.49,
        "hand": "right"
      },
      {
        "midi": 30,
        "time": 25.217,
        "duration": 0.326,
        "velocity": 0.49,
        "hand": "left"
      },
      {
        "midi": 61,
        "time": 25.217,
        "duration": 0.109,
        "velocity": 0.49,
        "hand": "right"
      },
      {
        "midi": 58,
        "time": 25.435,
        "duration": 0.109,
        "velocity": 0.49,
        "hand": "right"
      },
      {
        "midi": 37,
        "time": 25.652,
        "duration": 0.326,
        "velocity": 0.49,
        "hand": "left"
      },
      {
        "midi": 61,
        "time": 25.652,
        "duration": 0.217,
        "velocity": 0.49,
        "hand": "right"
      },
      {
        "midi": 30,
        "time": 26.087,
        "duration": 0.326,
        "velocity": 0.49,
        "hand": "left"
      },
      {
        "midi": 54,
        "time": 26.087,
        "duration": 0.109,
        "velocity": 0.49,
        "hand": "right"
      },
      {
        "midi": 56,
        "time": 26.304,
        "duration": 0.109,
        "velocity": 0.49,
        "hand": "right"
      },
      {
        "midi": 37,
        "time": 26.522,
        "duration": 0.326,
        "velocity": 0.49,
        "hand": "left"
      },
      {
        "midi": 58,
        "time": 26.522,
        "duration": 0.109,
        "velocity": 0.49,
        "hand": "right"
      },
      {
        "midi": 59,
        "time": 26.739,
        "duration": 0.109,
        "velocity": 0.49,
        "hand": "right"
      },
      {
        "midi": 30,
        "time": 26.957,
        "duration": 0.326,
        "velocity": 0.49,
        "hand": "left"
      },
      {
        "midi": 61,
        "time": 26.957,
        "duration": 0.109,
        "velocity": 0.49,
        "hand": "right"
      },
      {
        "midi": 58,
        "time": 27.174,
        "duration": 0.109,
        "velocity": 0.49,
        "hand": "right"
      },
      {
        "midi": 37,
        "time": 27.391,
        "duration": 0.326,
        "velocity": 0.49,
        "hand": "left"
      },
      {
        "midi": 61,
        "time": 27.391,
        "duration": 0.217,
        "velocity": 0.49,
        "hand": "right"
      },
      {
        "midi": 26,
        "time": 27.826,
        "duration": 0.326,
        "velocity": 0.49,
        "hand": "left"
      },
      {
        "midi": 62,
        "time": 27.826,
        "duration": 0.109,
        "velocity": 0.49,
        "hand": "right"
      },
      {
        "midi": 58,
        "time": 28.043,
        "duration": 0.109,
        "velocity": 0.49,
        "hand": "right"
      },
      {
        "midi": 34,
        "time": 28.261,
        "duration": 0.326,
        "velocity": 0.49,
        "hand": "left"
      },
      {
        "midi": 62,
        "time": 28.261,
        "duration": 0.217,
        "velocity": 0.49,
        "hand": "right"
      },
      {
        "midi": 30,
        "time": 28.696,
        "duration": 0.326,
        "velocity": 0.49,
        "hand": "left"
      },
      {
        "midi": 49,
        "time": 28.696,
        "duration": 0.761,
        "velocity": 0.49,
        "hand": "right"
      },
      {
        "midi": 61,
        "time": 28.696,
        "duration": 0.761,
        "velocity": 0.49,
        "hand": "right"
      },
      {
        "midi": 37,
        "time": 29.13,
        "duration": 0.326,
        "velocity": 0.49,
        "hand": "left"
      },
      {
        "midi": 23,
        "time": 29.565,
        "duration": 0.217,
        "velocity": 0.49,
        "hand": "left"
      },
      {
        "midi": 35,
        "time": 29.565,
        "duration": 0.109,
        "velocity": 0.49,
        "hand": "right"
      },
      {
        "midi": 37,
        "time": 29.783,
        "duration": 0.109,
        "velocity": 0.49,
        "hand": "right"
      },
      {
        "midi": 30,
        "time": 30,
        "duration": 0.217,
        "velocity": 0.49,
        "hand": "left"
      },
      {
        "midi": 38,
        "time": 30,
        "duration": 0.109,
        "velocity": 0.49,
        "hand": "right"
      },
      {
        "midi": 40,
        "time": 30.217,
        "duration": 0.109,
        "velocity": 0.49,
        "hand": "right"
      },
      {
        "midi": 23,
        "time": 30.435,
        "duration": 0.217,
        "velocity": 0.49,
        "hand": "left"
      },
      {
        "midi": 42,
        "time": 30.435,
        "duration": 0.109,
        "velocity": 0.49,
        "hand": "right"
      },
      {
        "midi": 38,
        "time": 30.652,
        "duration": 0.109,
        "velocity": 0.49,
        "hand": "right"
      },
      {
        "midi": 30,
        "time": 30.87,
        "duration": 0.217,
        "velocity": 0.49,
        "hand": "left"
      },
      {
        "midi": 42,
        "time": 30.87,
        "duration": 0.217,
        "velocity": 0.49,
        "hand": "right"
      },
      {
        "midi": 23,
        "time": 31.304,
        "duration": 0.217,
        "velocity": 0.49,
        "hand": "left"
      },
      {
        "midi": 41,
        "time": 31.304,
        "duration": 0.109,
        "velocity": 0.49,
        "hand": "right"
      },
      {
        "midi": 37,
        "time": 31.522,
        "duration": 0.109,
        "velocity": 0.49,
        "hand": "right"
      },
      {
        "midi": 30,
        "time": 31.739,
        "duration": 0.217,
        "velocity": 0.49,
        "hand": "left"
      },
      {
        "midi": 41,
        "time": 31.739,
        "duration": 0.217,
        "velocity": 0.49,
        "hand": "right"
      },
      {
        "midi": 23,
        "time": 32.174,
        "duration": 0.217,
        "velocity": 0.49,
        "hand": "left"
      },
      {
        "midi": 40,
        "time": 32.174,
        "duration": 0.109,
        "velocity": 0.49,
        "hand": "right"
      },
      {
        "midi": 36,
        "time": 32.391,
        "duration": 0.109,
        "velocity": 0.49,
        "hand": "right"
      },
      {
        "midi": 30,
        "time": 32.609,
        "duration": 0.217,
        "velocity": 0.49,
        "hand": "left"
      },
      {
        "midi": 40,
        "time": 32.609,
        "duration": 0.217,
        "velocity": 0.49,
        "hand": "right"
      },
      {
        "midi": 23,
        "time": 33.043,
        "duration": 0.217,
        "velocity": 0.49,
        "hand": "left"
      },
      {
        "midi": 35,
        "time": 33.043,
        "duration": 0.109,
        "velocity": 0.49,
        "hand": "right"
      },
      {
        "midi": 37,
        "time": 33.261,
        "duration": 0.109,
        "velocity": 0.49,
        "hand": "right"
      },
      {
        "midi": 30,
        "time": 33.478,
        "duration": 0.217,
        "velocity": 0.49,
        "hand": "left"
      },
      {
        "midi": 38,
        "time": 33.478,
        "duration": 0.109,
        "velocity": 0.49,
        "hand": "right"
      },
      {
        "midi": 40,
        "time": 33.696,
        "duration": 0.109,
        "velocity": 0.49,
        "hand": "right"
      },
      {
        "midi": 23,
        "time": 33.913,
        "duration": 0.217,
        "velocity": 0.49,
        "hand": "left"
      },
      {
        "midi": 42,
        "time": 33.913,
        "duration": 0.109,
        "velocity": 0.49,
        "hand": "right"
      },
      {
        "midi": 38,
        "time": 34.13,
        "duration": 0.109,
        "velocity": 0.49,
        "hand": "right"
      },
      {
        "midi": 30,
        "time": 34.348,
        "duration": 0.217,
        "velocity": 0.49,
        "hand": "left"
      },
      {
        "midi": 42,
        "time": 34.348,
        "duration": 0.109,
        "velocity": 0.49,
        "hand": "right"
      },
      {
        "midi": 47,
        "time": 34.565,
        "duration": 0.109,
        "velocity": 0.49,
        "hand": "right"
      },
      {
        "midi": 26,
        "time": 34.783,
        "duration": 0.217,
        "velocity": 0.49,
        "hand": "left"
      },
      {
        "midi": 45,
        "time": 34.783,
        "duration": 0.109,
        "velocity": 0.49,
        "hand": "right"
      },
      {
        "midi": 42,
        "time": 35,
        "duration": 0.109,
        "velocity": 0.49,
        "hand": "right"
      },
      {
        "midi": 33,
        "time": 35.217,
        "duration": 0.217,
        "velocity": 0.49,
        "hand": "left"
      },
      {
        "midi": 38,
        "time": 35.217,
        "duration": 0.109,
        "velocity": 0.49,
        "hand": "right"
      },
      {
        "midi": 42,
        "time": 35.435,
        "duration": 0.109,
        "velocity": 0.49,
        "hand": "right"
      },
      {
        "midi": 26,
        "time": 35.652,
        "duration": 0.217,
        "velocity": 0.49,
        "hand": "left"
      },
      {
        "midi": 45,
        "time": 35.652,
        "duration": 0.761,
        "velocity": 0.49,
        "hand": "right"
      },
      {
        "midi": 33,
        "time": 36.087,
        "duration": 0.217,
        "velocity": 0.49,
        "hand": "left"
      },
      {
        "midi": 23,
        "time": 36.522,
        "duration": 0.217,
        "velocity": 0.49,
        "hand": "left"
      },
      {
        "midi": 47,
        "time": 36.522,
        "duration": 0.109,
        "velocity": 0.49,
        "hand": "right"
      },
      {
        "midi": 49,
        "time": 36.739,
        "duration": 0.109,
        "velocity": 0.49,
        "hand": "right"
      },
      {
        "midi": 30,
        "time": 36.957,
        "duration": 0.217,
        "velocity": 0.49,
        "hand": "left"
      },
      {
        "midi": 50,
        "time": 36.957,
        "duration": 0.109,
        "velocity": 0.49,
        "hand": "right"
      },
      {
        "midi": 52,
        "time": 37.174,
        "duration": 0.109,
        "velocity": 0.49,
        "hand": "right"
      },
      {
        "midi": 23,
        "time": 37.391,
        "duration": 0.217,
        "velocity": 0.49,
        "hand": "left"
      },
      {
        "midi": 54,
        "time": 37.391,
        "duration": 0.109,
        "velocity": 0.49,
        "hand": "right"
      },
      {
        "midi": 50,
        "time": 37.609,
        "duration": 0.109,
        "velocity": 0.49,
        "hand": "right"
      },
      {
        "midi": 30,
        "time": 37.826,
        "duration": 0.217,
        "velocity": 0.49,
        "hand": "left"
      },
      {
        "midi": 54,
        "time": 37.826,
        "duration": 0.217,
        "velocity": 0.49,
        "hand": "right"
      },
      {
        "midi": 23,
        "time": 38.261,
        "duration": 0.217,
        "velocity": 0.49,
        "hand": "left"
      },
      {
        "midi": 53,
        "time": 38.261,
        "duration": 0.109,
        "velocity": 0.49,
        "hand": "right"
      },
      {
        "midi": 49,
        "time": 38.478,
        "duration": 0.109,
        "velocity": 0.49,
        "hand": "right"
      },
      {
        "midi": 30,
        "time": 38.696,
        "duration": 0.217,
        "velocity": 0.49,
        "hand": "left"
      },
      {
        "midi": 53,
        "time": 38.696,
        "duration": 0.217,
        "velocity": 0.49,
        "hand": "right"
      },
      {
        "midi": 23,
        "time": 39.13,
        "duration": 0.217,
        "velocity": 0.49,
        "hand": "left"
      },
      {
        "midi": 52,
        "time": 39.13,
        "duration": 0.109,
        "velocity": 0.49,
        "hand": "right"
      },
      {
        "midi": 48,
        "time": 39.348,
        "duration": 0.109,
        "velocity": 0.49,
        "hand": "right"
      },
      {
        "midi": 30,
        "time": 39.565,
        "duration": 0.217,
        "velocity": 0.49,
        "hand": "left"
      },
      {
        "midi": 52,
        "time": 39.565,
        "duration": 0.217,
        "velocity": 0.49,
        "hand": "right"
      },
      {
        "midi": 23,
        "time": 40,
        "duration": 0.217,
        "velocity": 0.49,
        "hand": "left"
      },
      {
        "midi": 47,
        "time": 40,
        "duration": 0.109,
        "velocity": 0.49,
        "hand": "right"
      },
      {
        "midi": 49,
        "time": 40.217,
        "duration": 0.109,
        "velocity": 0.49,
        "hand": "right"
      },
      {
        "midi": 35,
        "time": 40.435,
        "duration": 0.217,
        "velocity": 0.49,
        "hand": "left"
      },
      {
        "midi": 50,
        "time": 40.435,
        "duration": 0.109,
        "velocity": 0.49,
        "hand": "right"
      },
      {
        "midi": 52,
        "time": 40.652,
        "duration": 0.109,
        "velocity": 0.49,
        "hand": "right"
      },
      {
        "midi": 33,
        "time": 40.87,
        "duration": 0.217,
        "velocity": 0.49,
        "hand": "left"
      },
      {
        "midi": 54,
        "time": 40.87,
        "duration": 0.109,
        "velocity": 0.49,
        "hand": "right"
      },
      {
        "midi": 50,
        "time": 41.087,
        "duration": 0.109,
        "velocity": 0.49,
        "hand": "right"
      },
      {
        "midi": 31,
        "time": 41.304,
        "duration": 0.217,
        "velocity": 0.49,
        "hand": "left"
      },
      {
        "midi": 54,
        "time": 41.304,
        "duration": 0.109,
        "velocity": 0.49,
        "hand": "right"
      },
      {
        "midi": 59,
        "time": 41.522,
        "duration": 0.109,
        "velocity": 0.49,
        "hand": "right"
      },
      {
        "midi": 30,
        "time": 41.739,
        "duration": 0.217,
        "velocity": 0.49,
        "hand": "left"
      },
      {
        "midi": 57,
        "time": 41.739,
        "duration": 0.109,
        "velocity": 0.49,
        "hand": "right"
      },
      {
        "midi": 54,
        "time": 41.957,
        "duration": 0.109,
        "velocity": 0.49,
        "hand": "right"
      },
      {
        "midi": 28,
        "time": 42.174,
        "duration": 0.217,
        "velocity": 0.49,
        "hand": "left"
      },
      {
        "midi": 50,
        "time": 42.174,
        "duration": 0.109,
        "velocity": 0.49,
        "hand": "right"
      },
      {
        "midi": 54,
        "time": 42.391,
        "duration": 0.109,
        "velocity": 0.49,
        "hand": "right"
      },
      {
        "midi": 25,
        "time": 42.609,
        "duration": 0.217,
        "velocity": 0.49,
        "hand": "left"
      },
      {
        "midi": 45,
        "time": 42.609,
        "duration": 0.761,
        "velocity": 0.49,
        "hand": "right"
      },
      {
        "midi": 57,
        "time": 42.609,
        "duration": 0.761,
        "velocity": 0.49,
        "hand": "right"
      },
      {
        "midi": 23,
        "time": 43.043,
        "duration": 0.217,
        "velocity": 0.49,
        "hand": "left"
      },
      {
        "midi": 23,
        "time": 43.478,
        "duration": 0.326,
        "velocity": 0.49,
        "hand": "left"
      },
      {
        "midi": 59,
        "time": 43.478,
        "duration": 0.109,
        "velocity": 0.49,
        "hand": "right"
      },
      {
        "midi": 61,
        "time": 43.696,
        "duration": 0.109,
        "velocity": 0.49,
        "hand": "right"
      },
      {
        "midi": 42,
        "time": 43.913,
        "duration": 0.109,
        "velocity": 0.49,
        "hand": "left"
      },
      {
        "midi": 50,
        "time": 43.913,
        "duration": 0.109,
        "velocity": 0.49,
        "hand": "left"
      },
      {
        "midi": 54,
        "time": 43.913,
        "duration": 0.109,
        "velocity": 0.49,
        "hand": "right"
      },
      {
        "midi": 62,
        "time": 43.913,
        "duration": 0.109,
        "velocity": 0.49,
        "hand": "right"
      },
      {
        "midi": 41,
        "time": 44.022,
        "duration": 0.109,
        "velocity": 0.49,
        "hand": "left"
      },
      {
        "midi": 42,
        "time": 44.13,
        "duration": 0.217,
        "velocity": 0.49,
        "hand": "left"
      },
      {
        "midi": 64,
        "time": 44.13,
        "duration": 0.109,
        "velocity": 0.49,
        "hand": "right"
      },
      {
        "midi": 35,
        "time": 44.348,
        "duration": 0.217,
        "velocity": 0.49,
        "hand": "left"
      },
      {
        "midi": 66,
        "time": 44.348,
        "duration": 0.109,
        "velocity": 0.49,
        "hand": "right"
      },
      {
        "midi": 62,
        "time": 44.565,
        "duration": 0.109,
        "velocity": 0.49,
        "hand": "right"
      },
      {
        "midi": 42,
        "time": 44.783,
        "duration": 0.109,
        "velocity": 0.49,
        "hand": "left"
      },
      {
        "midi": 50,
        "time": 44.783,
        "duration": 0.109,
        "velocity": 0.49,
        "hand": "left"
      },
      {
        "midi": 54,
        "time": 44.783,
        "duration": 0.217,
        "velocity": 0.49,
        "hand": "right"
      },
      {
        "midi": 66,
        "time": 44.783,
        "duration": 0.217,
        "velocity": 0.49,
        "hand": "right"
      },
      {
        "midi": 41,
        "time": 44.891,
        "duration": 0.109,
        "velocity": 0.49,
        "hand": "left"
      },
      {
        "midi": 42,
        "time": 45,
        "duration": 0.217,
        "velocity": 0.49,
        "hand": "left"
      },
      {
        "midi": 35,
        "time": 45.217,
        "duration": 0.217,
        "velocity": 0.49,
        "hand": "left"
      },
      {
        "midi": 65,
        "time": 45.217,
        "duration": 0.109,
        "velocity": 0.49,
        "hand": "right"
      },
      {
        "midi": 61,
        "time": 45.435,
        "duration": 0.109,
        "velocity": 0.49,
        "hand": "right"
      },
      {
        "midi": 42,
        "time": 45.652,
        "duration": 0.109,
        "velocity": 0.49,
        "hand": "left"
      },
      {
        "midi": 49,
        "time": 45.652,
        "duration": 0.109,
        "velocity": 0.49,
        "hand": "left"
      },
      {
        "midi": 53,
        "time": 45.652,
        "duration": 0.217,
        "velocity": 0.49,
        "hand": "right"
      },
      {
        "midi": 65,
        "time": 45.652,
        "duration": 0.217,
        "velocity": 0.49,
        "hand": "right"
      },
      {
        "midi": 41,
        "time": 45.761,
        "duration": 0.109,
        "velocity": 0.49,
        "hand": "left"
      },
      {
        "midi": 42,
        "time": 45.87,
        "duration": 0.217,
        "velocity": 0.49,
        "hand": "left"
      },
      {
        "midi": 35,
        "time": 46.087,
        "duration": 0.217,
        "velocity": 0.49,
        "hand": "left"
      },
      {
        "midi": 64,
        "time": 46.087,
        "duration": 0.109,
        "velocity": 0.49,
        "hand": "right"
      },
      {
        "midi": 60,
        "time": 46.304,
        "duration": 0.109,
        "velocity": 0.49,
        "hand": "right"
      },
      {
        "midi": 42,
        "time": 46.522,
        "duration": 0.109,
        "velocity": 0.49,
        "hand": "left"
      },
      {
        "midi": 48,
        "time": 46.522,
        "duration": 0.109,
        "velocity": 0.49,
        "hand": "left"
      },
      {
        "midi": 52,
        "time": 46.522,
        "duration": 0.217,
        "velocity": 0.49,
        "hand": "right"
      },
      {
        "midi": 64,
        "time": 46.522,
        "duration": 0.217,
        "velocity": 0.49,
        "hand": "right"
      },
      {
        "midi": 41,
        "time": 46.63,
        "duration": 0.109,
        "velocity": 0.49,
        "hand": "left"
      },
      {
        "midi": 42,
        "time": 46.739,
        "duration": 0.217,
        "velocity": 0.49,
        "hand": "left"
      },
      {
        "midi": 35,
        "time": 46.957,
        "duration": 0.217,
        "velocity": 0.49,
        "hand": "left"
      },
      {
        "midi": 59,
        "time": 46.957,
        "duration": 0.109,
        "velocity": 0.49,
        "hand": "right"
      },
      {
        "midi": 61,
        "time": 47.174,
        "duration": 0.109,
        "velocity": 0.49,
        "hand": "right"
      },
      {
        "midi": 42,
        "time": 47.391,
        "duration": 0.109,
        "velocity": 0.49,
        "hand": "left"
      },
      {
        "midi": 50,
        "time": 47.391,
        "duration": 0.109,
        "velocity": 0.49,
        "hand": "left"
      },
      {
        "midi": 54,
        "time": 47.391,
        "duration": 0.109,
        "velocity": 0.49,
        "hand": "right"
      },
      {
        "midi": 62,
        "time": 47.391,
        "duration": 0.109,
        "velocity": 0.49,
        "hand": "right"
      },
      {
        "midi": 41,
        "time": 47.5,
        "duration": 0.109,
        "velocity": 0.49,
        "hand": "left"
      },
      {
        "midi": 42,
        "time": 47.609,
        "duration": 0.217,
        "velocity": 0.49,
        "hand": "left"
      },
      {
        "midi": 64,
        "time": 47.609,
        "duration": 0.109,
        "velocity": 0.49,
        "hand": "right"
      },
      {
        "midi": 35,
        "time": 47.826,
        "duration": 0.217,
        "velocity": 0.49,
        "hand": "left"
      },
      {
        "midi": 66,
        "time": 47.826,
        "duration": 0.109,
        "velocity": 0.49,
        "hand": "right"
      },
      {
        "midi": 62,
        "time": 48.043,
        "duration": 0.109,
        "velocity": 0.49,
        "hand": "right"
      },
      {
        "midi": 42,
        "time": 48.261,
        "duration": 0.109,
        "velocity": 0.49,
        "hand": "left"
      },
      {
        "midi": 50,
        "time": 48.261,
        "duration": 0.109,
        "velocity": 0.49,
        "hand": "left"
      },
      {
        "midi": 66,
        "time": 48.261,
        "duration": 0.109,
        "velocity": 0.49,
        "hand": "right"
      },
      {
        "midi": 41,
        "time": 48.37,
        "duration": 0.109,
        "velocity": 0.49,
        "hand": "left"
      },
      {
        "midi": 42,
        "time": 48.478,
        "duration": 0.217,
        "velocity": 0.49,
        "hand": "left"
      },
      {
        "midi": 71,
        "time": 48.478,
        "duration": 0.109,
        "velocity": 0.49,
        "hand": "right"
      },
      {
        "midi": 38,
        "time": 48.696,
        "duration": 0.217,
        "velocity": 0.49,
        "hand": "left"
      },
      {
        "midi": 69,
        "time": 48.696,
        "duration": 0.109,
        "velocity": 0.49,
        "hand": "right"
      },
      {
        "midi": 66,
        "time": 48.913,
        "duration": 0.109,
        "velocity": 0.49,
        "hand": "right"
      },
      {
        "midi": 45,
        "time": 49.13,
        "duration": 0.109,
        "velocity": 0.49,
        "hand": "left"
      },
      {
        "midi": 54,
        "time": 49.13,
        "duration": 0.109,
        "velocity": 0.49,
        "hand": "left"
      },
      {
        "midi": 57,
        "time": 49.13,
        "duration": 0.109,
        "velocity": 0.49,
        "hand": "right"
      },
      {
        "midi": 62,
        "time": 49.13,
        "duration": 0.109,
        "velocity": 0.49,
        "hand": "right"
      },
      {
        "midi": 44,
        "time": 49.239,
        "duration": 0.109,
        "velocity": 0.49,
        "hand": "left"
      },
      {
        "midi": 45,
        "time": 49.348,
        "duration": 0.217,
        "velocity": 0.49,
        "hand": "left"
      },
      {
        "midi": 66,
        "time": 49.348,
        "duration": 0.109,
        "velocity": 0.49,
        "hand": "right"
      },
      {
        "midi": 38,
        "time": 49.565,
        "duration": 0.217,
        "velocity": 0.49,
        "hand": "left"
      },
      {
        "midi": 69,
        "time": 49.565,
        "duration": 0.761,
        "velocity": 0.49,
        "hand": "right"
      },
      {
        "midi": 45,
        "time": 50,
        "duration": 0.109,
        "velocity": 0.49,
        "hand": "left"
      },
      {
        "midi": 54,
        "time": 50,
        "duration": 0.109,
        "velocity": 0.49,
        "hand": "left"
      },
      {
        "midi": 57,
        "time": 50,
        "duration": 0.326,
        "velocity": 0.71,
        "hand": "right"
      },
      {
        "midi": 62,
        "time": 50,
        "duration": 0.326,
        "velocity": 0.71,
        "hand": "right"
      },
      {
        "midi": 44,
        "time": 50.109,
        "duration": 0.109,
        "velocity": 0.49,
        "hand": "left"
      },
      {
        "midi": 45,
        "time": 50.217,
        "duration": 0.217,
        "velocity": 0.49,
        "hand": "left"
      },
      {
        "midi": 35,
        "time": 50.435,
        "duration": 0.217,
        "velocity": 0.49,
        "hand": "left"
      },
      {
        "midi": 71,
        "time": 50.435,
        "duration": 0.109,
        "velocity": 0.49,
        "hand": "right"
      },
      {
        "midi": 73,
        "time": 50.652,
        "duration": 0.109,
        "velocity": 0.49,
        "hand": "right"
      },
      {
        "midi": 42,
        "time": 50.87,
        "duration": 0.109,
        "velocity": 0.49,
        "hand": "left"
      },
      {
        "midi": 50,
        "time": 50.87,
        "duration": 0.109,
        "velocity": 0.49,
        "hand": "left"
      },
      {
        "midi": 66,
        "time": 50.87,
        "duration": 0.326,
        "velocity": 0.71,
        "hand": "right"
      },
      {
        "midi": 74,
        "time": 50.87,
        "duration": 0.109,
        "velocity": 0.71,
        "hand": "right"
      },
      {
        "midi": 41,
        "time": 50.978,
        "duration": 0.109,
        "velocity": 0.49,
        "hand": "left"
      },
      {
        "midi": 42,
        "time": 51.087,
        "duration": 0.217,
        "velocity": 0.49,
        "hand": "left"
      },
      {
        "midi": 76,
        "time": 51.087,
        "duration": 0.109,
        "velocity": 0.71,
        "hand": "right"
      },
      {
        "midi": 35,
        "time": 51.304,
        "duration": 0.217,
        "velocity": 0.49,
        "hand": "left"
      },
      {
        "midi": 78,
        "time": 51.304,
        "duration": 0.109,
        "velocity": 0.49,
        "hand": "right"
      },
      {
        "midi": 74,
        "time": 51.522,
        "duration": 0.109,
        "velocity": 0.49,
        "hand": "right"
      },
      {
        "midi": 42,
        "time": 51.739,
        "duration": 0.109,
        "velocity": 0.49,
        "hand": "left"
      },
      {
        "midi": 50,
        "time": 51.739,
        "duration": 0.109,
        "velocity": 0.49,
        "hand": "left"
      },
      {
        "midi": 66,
        "time": 51.739,
        "duration": 0.326,
        "velocity": 0.71,
        "hand": "right"
      },
      {
        "midi": 78,
        "time": 51.739,
        "duration": 0.217,
        "velocity": 0.71,
        "hand": "right"
      },
      {
        "midi": 41,
        "time": 51.848,
        "duration": 0.109,
        "velocity": 0.49,
        "hand": "left"
      },
      {
        "midi": 42,
        "time": 51.957,
        "duration": 0.217,
        "velocity": 0.49,
        "hand": "left"
      },
      {
        "midi": 35,
        "time": 52.174,
        "duration": 0.217,
        "velocity": 0.49,
        "hand": "left"
      },
      {
        "midi": 77,
        "time": 52.174,
        "duration": 0.109,
        "velocity": 0.49,
        "hand": "right"
      },
      {
        "midi": 73,
        "time": 52.391,
        "duration": 0.109,
        "velocity": 0.49,
        "hand": "right"
      },
      {
        "midi": 42,
        "time": 52.609,
        "duration": 0.109,
        "velocity": 0.49,
        "hand": "left"
      },
      {
        "midi": 49,
        "time": 52.609,
        "duration": 0.109,
        "velocity": 0.49,
        "hand": "left"
      },
      {
        "midi": 66,
        "time": 52.609,
        "duration": 0.326,
        "velocity": 0.71,
        "hand": "right"
      },
      {
        "midi": 77,
        "time": 52.609,
        "duration": 0.217,
        "velocity": 0.71,
        "hand": "right"
      },
      {
        "midi": 41,
        "time": 52.717,
        "duration": 0.109,
        "velocity": 0.49,
        "hand": "left"
      },
      {
        "midi": 42,
        "time": 52.826,
        "duration": 0.217,
        "velocity": 0.49,
        "hand": "left"
      },
      {
        "midi": 35,
        "time": 53.043,
        "duration": 0.217,
        "velocity": 0.49,
        "hand": "left"
      },
      {
        "midi": 76,
        "time": 53.043,
        "duration": 0.109,
        "velocity": 0.49,
        "hand": "right"
      },
      {
        "midi": 72,
        "time": 53.261,
        "duration": 0.109,
        "velocity": 0.49,
        "hand": "right"
      },
      {
        "midi": 42,
        "time": 53.478,
        "duration": 0.109,
        "velocity": 0.49,
        "hand": "left"
      },
      {
        "midi": 50,
        "time": 53.478,
        "duration": 0.109,
        "velocity": 0.49,
        "hand": "left"
      },
      {
        "midi": 66,
        "time": 53.478,
        "duration": 0.326,
        "velocity": 0.71,
        "hand": "right"
      },
      {
        "midi": 76,
        "time": 53.478,
        "duration": 0.217,
        "velocity": 0.71,
        "hand": "right"
      },
      {
        "midi": 41,
        "time": 53.587,
        "duration": 0.109,
        "velocity": 0.49,
        "hand": "left"
      },
      {
        "midi": 42,
        "time": 53.696,
        "duration": 0.217,
        "velocity": 0.49,
        "hand": "left"
      },
      {
        "midi": 35,
        "time": 53.913,
        "duration": 0.217,
        "velocity": 0.49,
        "hand": "left"
      },
      {
        "midi": 71,
        "time": 53.913,
        "duration": 0.109,
        "velocity": 0.49,
        "hand": "right"
      },
      {
        "midi": 73,
        "time": 54.13,
        "duration": 0.109,
        "velocity": 0.49,
        "hand": "right"
      },
      {
        "midi": 42,
        "time": 54.348,
        "duration": 0.109,
        "velocity": 0.49,
        "hand": "left"
      },
      {
        "midi": 50,
        "time": 54.348,
        "duration": 0.109,
        "velocity": 0.49,
        "hand": "left"
      },
      {
        "midi": 66,
        "time": 54.348,
        "duration": 0.326,
        "velocity": 0.71,
        "hand": "right"
      },
      {
        "midi": 74,
        "time": 54.348,
        "duration": 0.109,
        "velocity": 0.71,
        "hand": "right"
      },
      {
        "midi": 41,
        "time": 54.457,
        "duration": 0.109,
        "velocity": 0.49,
        "hand": "left"
      },
      {
        "midi": 42,
        "time": 54.565,
        "duration": 0.217,
        "velocity": 0.49,
        "hand": "left"
      },
      {
        "midi": 76,
        "time": 54.565,
        "duration": 0.109,
        "velocity": 0.71,
        "hand": "right"
      },
      {
        "midi": 35,
        "time": 54.783,
        "duration": 0.217,
        "velocity": 0.49,
        "hand": "left"
      },
      {
        "midi": 78,
        "time": 54.783,
        "duration": 0.109,
        "velocity": 0.49,
        "hand": "right"
      },
      {
        "midi": 74,
        "time": 55,
        "duration": 0.109,
        "velocity": 0.49,
        "hand": "right"
      },
      {
        "midi": 42,
        "time": 55.217,
        "duration": 0.109,
        "velocity": 0.49,
        "hand": "left"
      },
      {
        "midi": 50,
        "time": 55.217,
        "duration": 0.109,
        "velocity": 0.49,
        "hand": "left"
      },
      {
        "midi": 78,
        "time": 55.217,
        "duration": 0.109,
        "velocity": 0.49,
        "hand": "right"
      },
      {
        "midi": 41,
        "time": 55.326,
        "duration": 0.109,
        "velocity": 0.49,
        "hand": "left"
      },
      {
        "midi": 42,
        "time": 55.435,
        "duration": 0.217,
        "velocity": 0.49,
        "hand": "left"
      },
      {
        "midi": 83,
        "time": 55.435,
        "duration": 0.109,
        "velocity": 0.49,
        "hand": "right"
      },
      {
        "midi": 38,
        "time": 55.652,
        "duration": 0.217,
        "velocity": 0.49,
        "hand": "left"
      },
      {
        "midi": 81,
        "time": 55.652,
        "duration": 0.109,
        "velocity": 0.49,
        "hand": "right"
      },
      {
        "midi": 78,
        "time": 55.87,
        "duration": 0.109,
        "velocity": 0.49,
        "hand": "right"
      },
      {
        "midi": 45,
        "time": 56.087,
        "duration": 0.109,
        "velocity": 0.49,
        "hand": "left"
      },
      {
        "midi": 54,
        "time": 56.087,
        "duration": 0.109,
        "velocity": 0.49,
        "hand": "left"
      },
      {
        "midi": 69,
        "time": 56.087,
        "duration": 0.326,
        "velocity": 0.71,
        "hand": "right"
      },
      {
        "midi": 74,
        "time": 56.087,
        "duration": 0.109,
        "velocity": 0.71,
        "hand": "right"
      },
      {
        "midi": 44,
        "time": 56.196,
        "duration": 0.109,
        "velocity": 0.49,
        "hand": "left"
      },
      {
        "midi": 45,
        "time": 56.304,
        "duration": 0.217,
        "velocity": 0.49,
        "hand": "left"
      },
      {
        "midi": 78,
        "time": 56.304,
        "duration": 0.109,
        "velocity": 0.71,
        "hand": "right"
      },
      {
        "midi": 38,
        "time": 56.522,
        "duration": 0.217,
        "velocity": 0.49,
        "hand": "left"
      },
      {
        "midi": 81,
        "time": 56.522,
        "duration": 0.761,
        "velocity": 0.49,
        "hand": "right"
      },
      {
        "midi": 45,
        "time": 56.957,
        "duration": 0.109,
        "velocity": 0.49,
        "hand": "left"
      },
      {
        "midi": 54,
        "time": 56.957,
        "duration": 0.109,
        "velocity": 0.49,
        "hand": "left"
      },
      {
        "midi": 69,
        "time": 56.957,
        "duration": 0.326,
        "velocity": 0.71,
        "hand": "right"
      },
      {
        "midi": 74,
        "time": 56.957,
        "duration": 0.326,
        "velocity": 0.71,
        "hand": "right"
      },
      {
        "midi": 44,
        "time": 57.065,
        "duration": 0.109,
        "velocity": 0.49,
        "hand": "left"
      },
      {
        "midi": 45,
        "time": 57.174,
        "duration": 0.217,
        "velocity": 0.49,
        "hand": "left"
      },
      {
        "midi": 42,
        "time": 57.391,
        "duration": 0.217,
        "velocity": 0.49,
        "hand": "left"
      },
      {
        "midi": 66,
        "time": 57.391,
        "duration": 0.109,
        "velocity": 0.5,
        "hand": "right"
      },
      {
        "midi": 68,
        "time": 57.609,
        "duration": 0.109,
        "velocity": 0.5,
        "hand": "right"
      },
      {
        "midi": 49,
        "time": 57.826,
        "duration": 0.109,
        "velocity": 0.49,
        "hand": "left"
      },
      {
        "midi": 58,
        "time": 57.826,
        "duration": 0.109,
        "velocity": 0.49,
        "hand": "left"
      },
      {
        "midi": 66,
        "time": 57.826,
        "duration": 0.326,
        "velocity": 0.71,
        "hand": "right"
      },
      {
        "midi": 70,
        "time": 57.826,
        "duration": 0.109,
        "velocity": 0.5,
        "hand": "right"
      },
      {
        "midi": 48,
        "time": 57.935,
        "duration": 0.109,
        "velocity": 0.49,
        "hand": "left"
      },
      {
        "midi": 49,
        "time": 58.043,
        "duration": 0.217,
        "velocity": 0.49,
        "hand": "left"
      },
      {
        "midi": 71,
        "time": 58.043,
        "duration": 0.109,
        "velocity": 0.5,
        "hand": "right"
      },
      {
        "midi": 42,
        "time": 58.261,
        "duration": 0.217,
        "velocity": 0.49,
        "hand": "left"
      },
      {
        "midi": 73,
        "time": 58.261,
        "duration": 0.109,
        "velocity": 0.5,
        "hand": "right"
      },
      {
        "midi": 70,
        "time": 58.478,
        "duration": 0.109,
        "velocity": 0.51,
        "hand": "right"
      },
      {
        "midi": 49,
        "time": 58.696,
        "duration": 0.109,
        "velocity": 0.49,
        "hand": "left"
      },
      {
        "midi": 58,
        "time": 58.696,
        "duration": 0.109,
        "velocity": 0.49,
        "hand": "left"
      },
      {
        "midi": 66,
        "time": 58.696,
        "duration": 0.326,
        "velocity": 0.71,
        "hand": "right"
      },
      {
        "midi": 70,
        "time": 58.696,
        "duration": 0.326,
        "velocity": 0.71,
        "hand": "right"
      },
      {
        "midi": 73,
        "time": 58.696,
        "duration": 0.326,
        "velocity": 0.51,
        "hand": "right"
      },
      {
        "midi": 48,
        "time": 58.804,
        "duration": 0.109,
        "velocity": 0.49,
        "hand": "left"
      },
      {
        "midi": 49,
        "time": 58.913,
        "duration": 0.217,
        "velocity": 0.49,
        "hand": "left"
      },
      {
        "midi": 38,
        "time": 59.13,
        "duration": 0.217,
        "velocity": 0.49,
        "hand": "left"
      },
      {
        "midi": 74,
        "time": 59.13,
        "duration": 0.109,
        "velocity": 0.52,
        "hand": "right"
      },
      {
        "midi": 70,
        "time": 59.348,
        "duration": 0.109,
        "velocity": 0.52,
        "hand": "right"
      },
      {
        "midi": 50,
        "time": 59.565,
        "duration": 0.109,
        "velocity": 0.49,
        "hand": "left"
      },
      {
        "midi": 58,
        "time": 59.565,
        "duration": 0.109,
        "velocity": 0.49,
        "hand": "left"
      },
      {
        "midi": 66,
        "time": 59.565,
        "duration": 0.326,
        "velocity": 0.71,
        "hand": "right"
      },
      {
        "midi": 70,
        "time": 59.565,
        "duration": 0.326,
        "velocity": 0.71,
        "hand": "right"
      },
      {
        "midi": 74,
        "time": 59.565,
        "duration": 0.326,
        "velocity": 0.53,
        "hand": "right"
      },
      {
        "midi": 49,
        "time": 59.674,
        "duration": 0.109,
        "velocity": 0.49,
        "hand": "left"
      },
      {
        "midi": 50,
        "time": 59.783,
        "duration": 0.217,
        "velocity": 0.49,
        "hand": "left"
      },
      {
        "midi": 42,
        "time": 60,
        "duration": 0.217,
        "velocity": 0.49,
        "hand": "left"
      },
      {
        "midi": 73,
        "time": 60,
        "duration": 0.109,
        "velocity": 0.53,
        "hand": "right"
      },
      {
        "midi": 70,
        "time": 60.217,
        "duration": 0.109,
        "velocity": 0.54,
        "hand": "right"
      },
      {
        "midi": 49,
        "time": 60.435,
        "duration": 0.109,
        "velocity": 0.49,
        "hand": "left"
      },
      {
        "midi": 58,
        "time": 60.435,
        "duration": 0.109,
        "velocity": 0.49,
        "hand": "left"
      },
      {
        "midi": 66,
        "time": 60.435,
        "duration": 0.326,
        "velocity": 0.71,
        "hand": "right"
      },
      {
        "midi": 70,
        "time": 60.435,
        "duration": 0.326,
        "velocity": 0.71,
        "hand": "right"
      },
      {
        "midi": 73,
        "time": 60.435,
        "duration": 0.326,
        "velocity": 0.54,
        "hand": "right"
      },
      {
        "midi": 48,
        "time": 60.543,
        "duration": 0.109,
        "velocity": 0.49,
        "hand": "left"
      },
      {
        "midi": 49,
        "time": 60.652,
        "duration": 0.217,
        "velocity": 0.49,
        "hand": "left"
      },
      {
        "midi": 42,
        "time": 60.87,
        "duration": 0.217,
        "velocity": 0.49,
        "hand": "left"
      },
      {
        "midi": 66,
        "time": 60.87,
        "duration": 0.109,
        "velocity": 0.54,
        "hand": "right"
      },
      {
        "midi": 68,
        "time": 61.087,
        "duration": 0.109,
        "velocity": 0.54,
        "hand": "right"
      },
      {
        "midi": 49,
        "time": 61.304,
        "duration": 0.109,
        "velocity": 0.49,
        "hand": "left"
      },
      {
        "midi": 58,
        "time": 61.304,
        "duration": 0.109,
        "velocity": 0.49,
        "hand": "left"
      },
      {
        "midi": 66,
        "time": 61.304,
        "duration": 0.326,
        "velocity": 0.71,
        "hand": "right"
      },
      {
        "midi": 70,
        "time": 61.304,
        "duration": 0.109,
        "velocity": 0.54,
        "hand": "right"
      },
      {
        "midi": 48,
        "time": 61.413,
        "duration": 0.109,
        "velocity": 0.49,
        "hand": "left"
      },
      {
        "midi": 49,
        "time": 61.522,
        "duration": 0.217,
        "velocity": 0.49,
        "hand": "left"
      },
      {
        "midi": 71,
        "time": 61.522,
        "duration": 0.109,
        "velocity": 0.55,
        "hand": "right"
      },
      {
        "midi": 42,
        "time": 61.739,
        "duration": 0.217,
        "velocity": 0.49,
        "hand": "left"
      },
      {
        "midi": 73,
        "time": 61.739,
        "duration": 0.109,
        "velocity": 0.55,
        "hand": "right"
      },
      {
        "midi": 70,
        "time": 61.957,
        "duration": 0.109,
        "velocity": 0.56,
        "hand": "right"
      },
      {
        "midi": 49,
        "time": 62.174,
        "duration": 0.109,
        "velocity": 0.49,
        "hand": "left"
      },
      {
        "midi": 58,
        "time": 62.174,
        "duration": 0.109,
        "velocity": 0.49,
        "hand": "left"
      },
      {
        "midi": 66,
        "time": 62.174,
        "duration": 0.326,
        "velocity": 0.71,
        "hand": "right"
      },
      {
        "midi": 70,
        "time": 62.174,
        "duration": 0.326,
        "velocity": 0.71,
        "hand": "right"
      },
      {
        "midi": 73,
        "time": 62.174,
        "duration": 0.326,
        "velocity": 0.56,
        "hand": "right"
      },
      {
        "midi": 48,
        "time": 62.283,
        "duration": 0.109,
        "velocity": 0.49,
        "hand": "left"
      },
      {
        "midi": 49,
        "time": 62.391,
        "duration": 0.217,
        "velocity": 0.49,
        "hand": "left"
      },
      {
        "midi": 38,
        "time": 62.609,
        "duration": 0.217,
        "velocity": 0.49,
        "hand": "left"
      },
      {
        "midi": 74,
        "time": 62.609,
        "duration": 0.109,
        "velocity": 0.57,
        "hand": "right"
      },
      {
        "midi": 70,
        "time": 62.826,
        "duration": 0.109,
        "velocity": 0.57,
        "hand": "right"
      },
      {
        "midi": 50,
        "time": 63.043,
        "duration": 0.109,
        "velocity": 0.49,
        "hand": "left"
      },
      {
        "midi": 58,
        "time": 63.043,
        "duration": 0.109,
        "velocity": 0.49,
        "hand": "left"
      },
      {
        "midi": 66,
        "time": 63.043,
        "duration": 0.326,
        "velocity": 0.71,
        "hand": "right"
      },
      {
        "midi": 70,
        "time": 63.043,
        "duration": 0.326,
        "velocity": 0.71,
        "hand": "right"
      },
      {
        "midi": 74,
        "time": 63.043,
        "duration": 0.326,
        "velocity": 0.57,
        "hand": "right"
      },
      {
        "midi": 49,
        "time": 63.152,
        "duration": 0.109,
        "velocity": 0.49,
        "hand": "left"
      },
      {
        "midi": 50,
        "time": 63.261,
        "duration": 0.217,
        "velocity": 0.49,
        "hand": "left"
      },
      {
        "midi": 42,
        "time": 63.478,
        "duration": 0.217,
        "velocity": 0.49,
        "hand": "left"
      },
      {
        "midi": 73,
        "time": 63.478,
        "duration": 0.761,
        "velocity": 0.57,
        "hand": "right"
      },
      {
        "midi": 49,
        "time": 63.913,
        "duration": 0.109,
        "velocity": 0.49,
        "hand": "left"
      },
      {
        "midi": 58,
        "time": 63.913,
        "duration": 0.109,
        "velocity": 0.49,
        "hand": "left"
      },
      {
        "midi": 66,
        "time": 63.913,
        "duration": 0.326,
        "velocity": 0.71,
        "hand": "right"
      },
      {
        "midi": 70,
        "time": 63.913,
        "duration": 0.326,
        "velocity": 0.71,
        "hand": "right"
      },
      {
        "midi": 48,
        "time": 64.022,
        "duration": 0.109,
        "velocity": 0.49,
        "hand": "left"
      },
      {
        "midi": 49,
        "time": 64.13,
        "duration": 0.217,
        "velocity": 0.49,
        "hand": "left"
      },
      {
        "midi": 42,
        "time": 64.348,
        "duration": 0.217,
        "velocity": 0.49,
        "hand": "left"
      },
      {
        "midi": 78,
        "time": 64.348,
        "duration": 0.109,
        "velocity": 0.58,
        "hand": "right"
      },
      {
        "midi": 80,
        "time": 64.565,
        "duration": 0.109,
        "velocity": 0.59,
        "hand": "right"
      },
      {
        "midi": 49,
        "time": 64.783,
        "duration": 0.109,
        "velocity": 0.49,
        "hand": "left"
      },
      {
        "midi": 58,
        "time": 64.783,
        "duration": 0.109,
        "velocity": 0.49,
        "hand": "left"
      },
      {
        "midi": 78,
        "time": 64.783,
        "duration": 0.109,
        "velocity": 0.59,
        "hand": "right"
      },
      {
        "midi": 82,
        "time": 64.783,
        "duration": 0.109,
        "velocity": 0.59,
        "hand": "right"
      },
      {
        "midi": 48,
        "time": 64.891,
        "duration": 0.109,
        "velocity": 0.49,
        "hand": "left"
      },
      {
        "midi": 49,
        "time": 65,
        "duration": 0.217,
        "velocity": 0.49,
        "hand": "left"
      },
      {
        "midi": 83,
        "time": 65,
        "duration": 0.109,
        "velocity": 0.6,
        "hand": "right"
      },
      {
        "midi": 42,
        "time": 65.217,
        "duration": 0.217,
        "velocity": 0.49,
        "hand": "left"
      },
      {
        "midi": 85,
        "time": 65.217,
        "duration": 0.109,
        "velocity": 0.6,
        "hand": "right"
      },
      {
        "midi": 82,
        "time": 65.435,
        "duration": 0.109,
        "velocity": 0.6,
        "hand": "right"
      },
      {
        "midi": 49,
        "time": 65.652,
        "duration": 0.109,
        "velocity": 0.49,
        "hand": "left"
      },
      {
        "midi": 58,
        "time": 65.652,
        "duration": 0.109,
        "velocity": 0.49,
        "hand": "left"
      },
      {
        "midi": 78,
        "time": 65.652,
        "duration": 0.217,
        "velocity": 0.61,
        "hand": "right"
      },
      {
        "midi": 82,
        "time": 65.652,
        "duration": 0.217,
        "velocity": 0.61,
        "hand": "right"
      },
      {
        "midi": 85,
        "time": 65.652,
        "duration": 0.217,
        "velocity": 0.61,
        "hand": "right"
      },
      {
        "midi": 48,
        "time": 65.761,
        "duration": 0.109,
        "velocity": 0.49,
        "hand": "left"
      },
      {
        "midi": 49,
        "time": 65.87,
        "duration": 0.217,
        "velocity": 0.49,
        "hand": "left"
      },
      {
        "midi": 38,
        "time": 66.087,
        "duration": 0.217,
        "velocity": 0.49,
        "hand": "left"
      },
      {
        "midi": 86,
        "time": 66.087,
        "duration": 0.109,
        "velocity": 0.61,
        "hand": "right"
      },
      {
        "midi": 82,
        "time": 66.304,
        "duration": 0.109,
        "velocity": 0.61,
        "hand": "right"
      },
      {
        "midi": 50,
        "time": 66.522,
        "duration": 0.109,
        "velocity": 0.49,
        "hand": "left"
      },
      {
        "midi": 58,
        "time": 66.522,
        "duration": 0.109,
        "velocity": 0.49,
        "hand": "left"
      },
      {
        "midi": 78,
        "time": 66.522,
        "duration": 0.217,
        "velocity": 0.61,
        "hand": "right"
      },
      {
        "midi": 82,
        "time": 66.522,
        "duration": 0.217,
        "velocity": 0.61,
        "hand": "right"
      },
      {
        "midi": 86,
        "time": 66.522,
        "duration": 0.217,
        "velocity": 0.61,
        "hand": "right"
      },
      {
        "midi": 49,
        "time": 66.63,
        "duration": 0.109,
        "velocity": 0.49,
        "hand": "left"
      },
      {
        "midi": 50,
        "time": 66.739,
        "duration": 0.217,
        "velocity": 0.49,
        "hand": "left"
      },
      {
        "midi": 42,
        "time": 66.957,
        "duration": 0.217,
        "velocity": 0.49,
        "hand": "left"
      },
      {
        "midi": 85,
        "time": 66.957,
        "duration": 0.109,
        "velocity": 0.62,
        "hand": "right"
      },
      {
        "midi": 82,
        "time": 67.174,
        "duration": 0.109,
        "velocity": 0.62,
        "hand": "right"
      },
      {
        "midi": 49,
        "time": 67.391,
        "duration": 0.109,
        "velocity": 0.49,
        "hand": "left"
      },
      {
        "midi": 58,
        "time": 67.391,
        "duration": 0.109,
        "velocity": 0.49,
        "hand": "left"
      },
      {
        "midi": 78,
        "time": 67.391,
        "duration": 0.217,
        "velocity": 0.62,
        "hand": "right"
      },
      {
        "midi": 82,
        "time": 67.391,
        "duration": 0.217,
        "velocity": 0.62,
        "hand": "right"
      },
      {
        "midi": 85,
        "time": 67.391,
        "duration": 0.217,
        "velocity": 0.62,
        "hand": "right"
      },
      {
        "midi": 48,
        "time": 67.5,
        "duration": 0.109,
        "velocity": 0.49,
        "hand": "left"
      },
      {
        "midi": 49,
        "time": 67.609,
        "duration": 0.217,
        "velocity": 0.49,
        "hand": "left"
      },
      {
        "midi": 42,
        "time": 67.826,
        "duration": 0.217,
        "velocity": 0.49,
        "hand": "left"
      },
      {
        "midi": 78,
        "time": 67.826,
        "duration": 0.109,
        "velocity": 0.63,
        "hand": "right"
      },
      {
        "midi": 80,
        "time": 68.043,
        "duration": 0.109,
        "velocity": 0.64,
        "hand": "right"
      },
      {
        "midi": 49,
        "time": 68.261,
        "duration": 0.109,
        "velocity": 0.49,
        "hand": "left"
      },
      {
        "midi": 58,
        "time": 68.261,
        "duration": 0.109,
        "velocity": 0.49,
        "hand": "left"
      },
      {
        "midi": 78,
        "time": 68.261,
        "duration": 0.109,
        "velocity": 0.64,
        "hand": "right"
      },
      {
        "midi": 82,
        "time": 68.261,
        "duration": 0.109,
        "velocity": 0.64,
        "hand": "right"
      },
      {
        "midi": 48,
        "time": 68.37,
        "duration": 0.109,
        "velocity": 0.49,
        "hand": "left"
      },
      {
        "midi": 49,
        "time": 68.478,
        "duration": 0.217,
        "velocity": 0.49,
        "hand": "left"
      },
      {
        "midi": 83,
        "time": 68.478,
        "duration": 0.109,
        "velocity": 0.64,
        "hand": "right"
      },
      {
        "midi": 42,
        "time": 68.696,
        "duration": 0.217,
        "velocity": 0.49,
        "hand": "left"
      },
      {
        "midi": 85,
        "time": 68.696,
        "duration": 0.109,
        "velocity": 0.65,
        "hand": "right"
      },
      {
        "midi": 82,
        "time": 68.913,
        "duration": 0.109,
        "velocity": 0.65,
        "hand": "right"
      },
      {
        "midi": 49,
        "time": 69.13,
        "duration": 0.109,
        "velocity": 0.49,
        "hand": "left"
      },
      {
        "midi": 58,
        "time": 69.13,
        "duration": 0.109,
        "velocity": 0.49,
        "hand": "left"
      },
      {
        "midi": 78,
        "time": 69.13,
        "duration": 0.217,
        "velocity": 0.65,
        "hand": "right"
      },
      {
        "midi": 82,
        "time": 69.13,
        "duration": 0.217,
        "velocity": 0.65,
        "hand": "right"
      },
      {
        "midi": 85,
        "time": 69.13,
        "duration": 0.217,
        "velocity": 0.65,
        "hand": "right"
      },
      {
        "midi": 48,
        "time": 69.239,
        "duration": 0.109,
        "velocity": 0.49,
        "hand": "left"
      },
      {
        "midi": 49,
        "time": 69.348,
        "duration": 0.217,
        "velocity": 0.49,
        "hand": "left"
      },
      {
        "midi": 38,
        "time": 69.565,
        "duration": 0.217,
        "velocity": 0.49,
        "hand": "left"
      },
      {
        "midi": 86,
        "time": 69.565,
        "duration": 0.109,
        "velocity": 0.65,
        "hand": "right"
      },
      {
        "midi": 82,
        "time": 69.783,
        "duration": 0.109,
        "velocity": 0.65,
        "hand": "right"
      },
      {
        "midi": 50,
        "time": 70,
        "duration": 0.109,
        "velocity": 0.49,
        "hand": "left"
      },
      {
        "midi": 58,
        "time": 70,
        "duration": 0.109,
        "velocity": 0.49,
        "hand": "left"
      },
      {
        "midi": 78,
        "time": 70,
        "duration": 0.217,
        "velocity": 0.66,
        "hand": "right"
      },
      {
        "midi": 82,
        "time": 70,
        "duration": 0.217,
        "velocity": 0.66,
        "hand": "right"
      },
      {
        "midi": 86,
        "time": 70,
        "duration": 0.217,
        "velocity": 0.66,
        "hand": "right"
      },
      {
        "midi": 49,
        "time": 70.109,
        "duration": 0.109,
        "velocity": 0.49,
        "hand": "left"
      },
      {
        "midi": 50,
        "time": 70.217,
        "duration": 0.217,
        "velocity": 0.49,
        "hand": "left"
      },
      {
        "midi": 42,
        "time": 70.435,
        "duration": 0.217,
        "velocity": 0.49,
        "hand": "left"
      },
      {
        "midi": 85,
        "time": 70.435,
        "duration": 0.761,
        "velocity": 0.66,
        "hand": "right"
      },
      {
        "midi": 49,
        "time": 70.87,
        "duration": 0.109,
        "velocity": 0.49,
        "hand": "left"
      },
      {
        "midi": 58,
        "time": 70.87,
        "duration": 0.109,
        "velocity": 0.49,
        "hand": "left"
      },
      {
        "midi": 78,
        "time": 70.87,
        "duration": 0.326,
        "velocity": 0.71,
        "hand": "right"
      },
      {
        "midi": 82,
        "time": 70.87,
        "duration": 0.326,
        "velocity": 0.71,
        "hand": "right"
      },
      {
        "midi": 48,
        "time": 70.978,
        "duration": 0.109,
        "velocity": 0.49,
        "hand": "left"
      },
      {
        "midi": 49,
        "time": 71.087,
        "duration": 0.217,
        "velocity": 0.49,
        "hand": "left"
      },
      {
        "midi": 35,
        "time": 71.304,
        "duration": 0.109,
        "velocity": 0.49,
        "hand": "left"
      },
      {
        "midi": 59,
        "time": 71.304,
        "duration": 0.109,
        "velocity": 0.68,
        "hand": "right"
      },
      {
        "midi": 41,
        "time": 71.413,
        "duration": 0.109,
        "velocity": 0.49,
        "hand": "left"
      },
      {
        "midi": 61,
        "time": 71.522,
        "duration": 0.109,
        "velocity": 0.68,
        "hand": "right"
      },
      {
        "midi": 42,
        "time": 71.63,
        "duration": 0.109,
        "velocity": 0.49,
        "hand": "left"
      },
      {
        "midi": 50,
        "time": 71.739,
        "duration": 0.109,
        "velocity": 0.49,
        "hand": "left"
      },
      {
        "midi": 54,
        "time": 71.739,
        "duration": 0.109,
        "velocity": 0.68,
        "hand": "right"
      },
      {
        "midi": 62,
        "time": 71.739,
        "duration": 0.109,
        "velocity": 0.68,
        "hand": "right"
      },
      {
        "midi": 41,
        "time": 71.848,
        "duration": 0.109,
        "velocity": 0.49,
        "hand": "left"
      },
      {
        "midi": 64,
        "time": 71.957,
        "duration": 0.109,
        "velocity": 0.68,
        "hand": "right"
      },
      {
        "midi": 42,
        "time": 72.065,
        "duration": 0.109,
        "velocity": 0.49,
        "hand": "left"
      },
      {
        "midi": 35,
        "time": 72.174,
        "duration": 0.109,
        "velocity": 0.49,
        "hand": "left"
      },
      {
        "midi": 66,
        "time": 72.174,
        "duration": 0.109,
        "velocity": 0.69,
        "hand": "right"
      },
      {
        "midi": 41,
        "time": 72.283,
        "duration": 0.109,
        "velocity": 0.49,
        "hand": "left"
      },
      {
        "midi": 62,
        "time": 72.391,
        "duration": 0.109,
        "velocity": 0.69,
        "hand": "right"
      },
      {
        "midi": 42,
        "time": 72.5,
        "duration": 0.109,
        "velocity": 0.49,
        "hand": "left"
      },
      {
        "midi": 50,
        "time": 72.609,
        "duration": 0.109,
        "velocity": 0.49,
        "hand": "left"
      },
      {
        "midi": 54,
        "time": 72.609,
        "duration": 0.217,
        "velocity": 0.69,
        "hand": "right"
      },
      {
        "midi": 66,
        "time": 72.609,
        "duration": 0.217,
        "velocity": 0.69,
        "hand": "right"
      },
      {
        "midi": 41,
        "time": 72.717,
        "duration": 0.109,
        "velocity": 0.49,
        "hand": "left"
      },
      {
        "midi": 42,
        "time": 72.935,
        "duration": 0.109,
        "velocity": 0.49,
        "hand": "left"
      },
      {
        "midi": 35,
        "time": 73.043,
        "duration": 0.109,
        "velocity": 0.49,
        "hand": "left"
      },
      {
        "midi": 65,
        "time": 73.043,
        "duration": 0.109,
        "velocity": 0.69,
        "hand": "right"
      },
      {
        "midi": 41,
        "time": 73.152,
        "duration": 0.109,
        "velocity": 0.49,
        "hand": "left"
      },
      {
        "midi": 61,
        "time": 73.261,
        "duration": 0.109,
        "velocity": 0.69,
        "hand": "right"
      },
      {
        "midi": 42,
        "time": 73.37,
        "duration": 0.109,
        "velocity": 0.49,
        "hand": "left"
      },
      {
        "midi": 49,
        "time": 73.478,
        "duration": 0.109,
        "velocity": 0.49,
        "hand": "left"
      },
      {
        "midi": 54,
        "time": 73.478,
        "duration": 0.217,
        "velocity": 0.69,
        "hand": "right"
      },
      {
        "midi": 65,
        "time": 73.478,
        "duration": 0.217,
        "velocity": 0.69,
        "hand": "right"
      },
      {
        "midi": 41,
        "time": 73.587,
        "duration": 0.109,
        "velocity": 0.49,
        "hand": "left"
      },
      {
        "midi": 42,
        "time": 73.804,
        "duration": 0.109,
        "velocity": 0.49,
        "hand": "left"
      },
      {
        "midi": 35,
        "time": 73.913,
        "duration": 0.109,
        "velocity": 0.49,
        "hand": "left"
      },
      {
        "midi": 64,
        "time": 73.913,
        "duration": 0.109,
        "velocity": 0.7,
        "hand": "right"
      },
      {
        "midi": 41,
        "time": 74.022,
        "duration": 0.109,
        "velocity": 0.49,
        "hand": "left"
      },
      {
        "midi": 60,
        "time": 74.13,
        "duration": 0.109,
        "velocity": 0.7,
        "hand": "right"
      },
      {
        "midi": 42,
        "time": 74.239,
        "duration": 0.109,
        "velocity": 0.49,
        "hand": "left"
      },
      {
        "midi": 48,
        "time": 74.348,
        "duration": 0.109,
        "velocity": 0.49,
        "hand": "left"
      },
      {
        "midi": 54,
        "time": 74.348,
        "duration": 0.217,
        "velocity": 0.7,
        "hand": "right"
      },
      {
        "midi": 65,
        "time": 74.348,
        "duration": 0.217,
        "velocity": 0.7,
        "hand": "right"
      },
      {
        "midi": 41,
        "time": 74.457,
        "duration": 0.109,
        "velocity": 0.49,
        "hand": "left"
      },
      {
        "midi": 42,
        "time": 74.674,
        "duration": 0.109,
        "velocity": 0.49,
        "hand": "left"
      },
      {
        "midi": 35,
        "time": 74.783,
        "duration": 0.109,
        "velocity": 0.49,
        "hand": "left"
      },
      {
        "midi": 59,
        "time": 74.783,
        "duration": 0.109,
        "velocity": 0.7,
        "hand": "right"
      },
      {
        "midi": 41,
        "time": 74.891,
        "duration": 0.109,
        "velocity": 0.49,
        "hand": "left"
      },
      {
        "midi": 61,
        "time": 75,
        "duration": 0.109,
        "velocity": 0.71,
        "hand": "right"
      },
      {
        "midi": 42,
        "time": 75.109,
        "duration": 0.109,
        "velocity": 0.49,
        "hand": "left"
      },
      {
        "midi": 50,
        "time": 75.217,
        "duration": 0.109,
        "velocity": 0.49,
        "hand": "left"
      },
      {
        "midi": 54,
        "time": 75.217,
        "duration": 0.109,
        "velocity": 0.71,
        "hand": "right"
      },
      {
        "midi": 62,
        "time": 75.217,
        "duration": 0.109,
        "velocity": 0.71,
        "hand": "right"
      },
      {
        "midi": 41,
        "time": 75.326,
        "duration": 0.109,
        "velocity": 0.49,
        "hand": "left"
      },
      {
        "midi": 64,
        "time": 75.435,
        "duration": 0.109,
        "velocity": 0.71,
        "hand": "right"
      },
      {
        "midi": 42,
        "time": 75.543,
        "duration": 0.109,
        "velocity": 0.49,
        "hand": "left"
      },
      {
        "midi": 35,
        "time": 75.652,
        "duration": 0.109,
        "velocity": 0.49,
        "hand": "left"
      },
      {
        "midi": 66,
        "time": 75.652,
        "duration": 0.109,
        "velocity": 0.71,
        "hand": "right"
      },
      {
        "midi": 41,
        "time": 75.761,
        "duration": 0.109,
        "velocity": 0.49,
        "hand": "left"
      },
      {
        "midi": 62,
        "time": 75.87,
        "duration": 0.109,
        "velocity": 0.72,
        "hand": "right"
      },
      {
        "midi": 42,
        "time": 75.978,
        "duration": 0.109,
        "velocity": 0.49,
        "hand": "left"
      },
      {
        "midi": 50,
        "time": 76.087,
        "duration": 0.109,
        "velocity": 0.49,
        "hand": "left"
      },
      {
        "midi": 59,
        "time": 76.087,
        "duration": 0.109,
        "velocity": 0.72,
        "hand": "right"
      },
      {
        "midi": 66,
        "time": 76.087,
        "duration": 0.109,
        "velocity": 0.72,
        "hand": "right"
      },
      {
        "midi": 41,
        "time": 76.196,
        "duration": 0.109,
        "velocity": 0.49,
        "hand": "left"
      },
      {
        "midi": 71,
        "time": 76.304,
        "duration": 0.109,
        "velocity": 0.72,
        "hand": "right"
      },
      {
        "midi": 42,
        "time": 76.413,
        "duration": 0.109,
        "velocity": 0.49,
        "hand": "left"
      },
      {
        "midi": 38,
        "time": 76.522,
        "duration": 0.109,
        "velocity": 0.49,
        "hand": "left"
      },
      {
        "midi": 69,
        "time": 76.522,
        "duration": 0.109,
        "velocity": 0.72,
        "hand": "right"
      },
      {
        "midi": 44,
        "time": 76.63,
        "duration": 0.109,
        "velocity": 0.49,
        "hand": "left"
      },
      {
        "midi": 66,
        "time": 76.739,
        "duration": 0.109,
        "velocity": 0.72,
        "hand": "right"
      },
      {
        "midi": 45,
        "time": 76.848,
        "duration": 0.109,
        "velocity": 0.49,
        "hand": "left"
      },
      {
        "midi": 54,
        "time": 76.957,
        "duration": 0.109,
        "velocity": 0.49,
        "hand": "left"
      },
      {
        "midi": 57,
        "time": 76.957,
        "duration": 0.109,
        "velocity": 0.72,
        "hand": "right"
      },
      {
        "midi": 64,
        "time": 76.957,
        "duration": 0.109,
        "velocity": 0.72,
        "hand": "right"
      },
      {
        "midi": 44,
        "time": 77.065,
        "duration": 0.109,
        "velocity": 0.49,
        "hand": "left"
      },
      {
        "midi": 66,
        "time": 77.174,
        "duration": 0.109,
        "velocity": 0.72,
        "hand": "right"
      },
      {
        "midi": 45,
        "time": 77.283,
        "duration": 0.109,
        "velocity": 0.49,
        "hand": "left"
      },
      {
        "midi": 38,
        "time": 77.391,
        "duration": 0.109,
        "velocity": 0.49,
        "hand": "left"
      },
      {
        "midi": 69,
        "time": 77.391,
        "duration": 0.761,
        "velocity": 0.72,
        "hand": "right"
      },
      {
        "midi": 44,
        "time": 77.5,
        "duration": 0.109,
        "velocity": 0.49,
        "hand": "left"
      },
      {
        "midi": 45,
        "time": 77.717,
        "duration": 0.109,
        "velocity": 0.49,
        "hand": "left"
      },
      {
        "midi": 54,
        "time": 77.826,
        "duration": 0.109,
        "velocity": 0.49,
        "hand": "left"
      },
      {
        "midi": 57,
        "time": 77.826,
        "duration": 0.326,
        "velocity": 0.71,
        "hand": "right"
      },
      {
        "midi": 64,
        "time": 77.826,
        "duration": 0.326,
        "velocity": 0.71,
        "hand": "right"
      },
      {
        "midi": 44,
        "time": 77.935,
        "duration": 0.109,
        "velocity": 0.49,
        "hand": "left"
      },
      {
        "midi": 45,
        "time": 78.152,
        "duration": 0.109,
        "velocity": 0.49,
        "hand": "left"
      },
      {
        "midi": 35,
        "time": 78.261,
        "duration": 0.109,
        "velocity": 0.49,
        "hand": "left"
      },
      {
        "midi": 71,
        "time": 78.261,
        "duration": 0.109,
        "velocity": 0.73,
        "hand": "right"
      },
      {
        "midi": 41,
        "time": 78.37,
        "duration": 0.109,
        "velocity": 0.49,
        "hand": "left"
      },
      {
        "midi": 73,
        "time": 78.478,
        "duration": 0.109,
        "velocity": 0.74,
        "hand": "right"
      },
      {
        "midi": 42,
        "time": 78.587,
        "duration": 0.109,
        "velocity": 0.49,
        "hand": "left"
      },
      {
        "midi": 50,
        "time": 78.696,
        "duration": 0.109,
        "velocity": 0.49,
        "hand": "left"
      },
      {
        "midi": 66,
        "time": 78.696,
        "duration": 0.326,
        "velocity": 0.71,
        "hand": "right"
      },
      {
        "midi": 74,
        "time": 78.696,
        "duration": 0.109,
        "velocity": 0.74,
        "hand": "right"
      },
      {
        "midi": 41,
        "time": 78.804,
        "duration": 0.109,
        "velocity": 0.49,
        "hand": "left"
      },
      {
        "midi": 76,
        "time": 78.913,
        "duration": 0.109,
        "velocity": 0.74,
        "hand": "right"
      },
      {
        "midi": 42,
        "time": 79.022,
        "duration": 0.109,
        "velocity": 0.49,
        "hand": "left"
      },
      {
        "midi": 35,
        "time": 79.13,
        "duration": 0.109,
        "velocity": 0.49,
        "hand": "left"
      },
      {
        "midi": 78,
        "time": 79.13,
        "duration": 0.109,
        "velocity": 0.74,
        "hand": "right"
      },
      {
        "midi": 41,
        "time": 79.239,
        "duration": 0.109,
        "velocity": 0.49,
        "hand": "left"
      },
      {
        "midi": 74,
        "time": 79.348,
        "duration": 0.109,
        "velocity": 0.75,
        "hand": "right"
      },
      {
        "midi": 42,
        "time": 79.457,
        "duration": 0.109,
        "velocity": 0.49,
        "hand": "left"
      },
      {
        "midi": 50,
        "time": 79.565,
        "duration": 0.109,
        "velocity": 0.49,
        "hand": "left"
      },
      {
        "midi": 66,
        "time": 79.565,
        "duration": 0.326,
        "velocity": 0.71,
        "hand": "right"
      },
      {
        "midi": 78,
        "time": 79.565,
        "duration": 0.326,
        "velocity": 0.75,
        "hand": "right"
      },
      {
        "midi": 41,
        "time": 79.674,
        "duration": 0.109,
        "velocity": 0.49,
        "hand": "left"
      },
      {
        "midi": 42,
        "time": 79.891,
        "duration": 0.109,
        "velocity": 0.49,
        "hand": "left"
      },
      {
        "midi": 35,
        "time": 80,
        "duration": 0.109,
        "velocity": 0.49,
        "hand": "left"
      },
      {
        "midi": 77,
        "time": 80,
        "duration": 0.109,
        "velocity": 0.75,
        "hand": "right"
      },
      {
        "midi": 41,
        "time": 80.109,
        "duration": 0.109,
        "velocity": 0.49,
        "hand": "left"
      },
      {
        "midi": 73,
        "time": 80.217,
        "duration": 0.109,
        "velocity": 0.76,
        "hand": "right"
      },
      {
        "midi": 42,
        "time": 80.326,
        "duration": 0.109,
        "velocity": 0.49,
        "hand": "left"
      },
      {
        "midi": 50,
        "time": 80.435,
        "duration": 0.109,
        "velocity": 0.49,
        "hand": "left"
      },
      {
        "midi": 66,
        "time": 80.435,
        "duration": 0.326,
        "velocity": 0.71,
        "hand": "right"
      },
      {
        "midi": 77,
        "time": 80.435,
        "duration": 0.217,
        "velocity": 0.76,
        "hand": "right"
      },
      {
        "midi": 41,
        "time": 80.543,
        "duration": 0.109,
        "velocity": 0.49,
        "hand": "left"
      },
      {
        "midi": 42,
        "time": 80.761,
        "duration": 0.109,
        "velocity": 0.49,
        "hand": "left"
      },
      {
        "midi": 35,
        "time": 80.87,
        "duration": 0.109,
        "velocity": 0.49,
        "hand": "left"
      },
      {
        "midi": 76,
        "time": 80.87,
        "duration": 0.109,
        "velocity": 0.76,
        "hand": "right"
      },
      {
        "midi": 41,
        "time": 80.978,
        "duration": 0.109,
        "velocity": 0.49,
        "hand": "left"
      },
      {
        "midi": 72,
        "time": 81.087,
        "duration": 0.109,
        "velocity": 0.76,
        "hand": "right"
      },
      {
        "midi": 42,
        "time": 81.196,
        "duration": 0.109,
        "velocity": 0.49,
        "hand": "left"
      },
      {
        "midi": 50,
        "time": 81.304,
        "duration": 0.109,
        "velocity": 0.49,
        "hand": "left"
      },
      {
        "midi": 66,
        "time": 81.304,
        "duration": 0.326,
        "velocity": 0.71,
        "hand": "right"
      },
      {
        "midi": 76,
        "time": 81.304,
        "duration": 0.326,
        "velocity": 0.76,
        "hand": "right"
      },
      {
        "midi": 41,
        "time": 81.413,
        "duration": 0.109,
        "velocity": 0.49,
        "hand": "left"
      },
      {
        "midi": 42,
        "time": 81.63,
        "duration": 0.109,
        "velocity": 0.49,
        "hand": "left"
      },
      {
        "midi": 35,
        "time": 81.739,
        "duration": 0.109,
        "velocity": 0.49,
        "hand": "left"
      },
      {
        "midi": 71,
        "time": 81.739,
        "duration": 0.109,
        "velocity": 0.76,
        "hand": "right"
      },
      {
        "midi": 41,
        "time": 81.848,
        "duration": 0.109,
        "velocity": 0.49,
        "hand": "left"
      },
      {
        "midi": 73,
        "time": 81.957,
        "duration": 0.109,
        "velocity": 0.76,
        "hand": "right"
      },
      {
        "midi": 42,
        "time": 82.065,
        "duration": 0.109,
        "velocity": 0.49,
        "hand": "left"
      },
      {
        "midi": 47,
        "time": 82.174,
        "duration": 0.217,
        "velocity": 0.49,
        "hand": "left"
      },
      {
        "midi": 59,
        "time": 82.174,
        "duration": 0.217,
        "velocity": 0.49,
        "hand": "left"
      },
      {
        "midi": 74,
        "time": 82.174,
        "duration": 0.109,
        "velocity": 0.77,
        "hand": "right"
      },
      {
        "midi": 76,
        "time": 82.391,
        "duration": 0.109,
        "velocity": 0.77,
        "hand": "right"
      },
      {
        "midi": 45,
        "time": 82.609,
        "duration": 0.217,
        "velocity": 0.49,
        "hand": "left"
      },
      {
        "midi": 47,
        "time": 82.609,
        "duration": 0.217,
        "velocity": 0.49,
        "hand": "left"
      },
      {
        "midi": 57,
        "time": 82.609,
        "duration": 0.217,
        "velocity": 0.49,
        "hand": "left"
      },
      {
        "midi": 78,
        "time": 82.609,
        "duration": 0.109,
        "velocity": 0.77,
        "hand": "right"
      },
      {
        "midi": 74,
        "time": 82.826,
        "duration": 0.109,
        "velocity": 0.77,
        "hand": "right"
      },
      {
        "midi": 43,
        "time": 83.043,
        "duration": 0.217,
        "velocity": 0.49,
        "hand": "left"
      },
      {
        "midi": 47,
        "time": 83.043,
        "duration": 0.217,
        "velocity": 0.49,
        "hand": "left"
      },
      {
        "midi": 55,
        "time": 83.043,
        "duration": 0.217,
        "velocity": 0.49,
        "hand": "left"
      },
      {
        "midi": 71,
        "time": 83.043,
        "duration": 0.326,
        "velocity": 0.71,
        "hand": "right"
      },
      {
        "midi": 74,
        "time": 83.043,
        "duration": 0.326,
        "velocity": 0.71,
        "hand": "right"
      },
      {
        "midi": 78,
        "time": 83.043,
        "duration": 0.109,
        "velocity": 0.78,
        "hand": "right"
      },
      {
        "midi": 83,
        "time": 83.261,
        "duration": 0.109,
        "velocity": 0.78,
        "hand": "right"
      },
      {
        "midi": 42,
        "time": 83.478,
        "duration": 0.326,
        "velocity": 0.49,
        "hand": "left"
      },
      {
        "midi": 47,
        "time": 83.478,
        "duration": 0.326,
        "velocity": 0.49,
        "hand": "left"
      },
      {
        "midi": 54,
        "time": 83.478,
        "duration": 0.326,
        "velocity": 0.49,
        "hand": "left"
      },
      {
        "midi": 78,
        "time": 83.478,
        "duration": 0.109,
        "velocity": 0.78,
        "hand": "right"
      },
      {
        "midi": 74,
        "time": 83.696,
        "duration": 0.109,
        "velocity": 0.78,
        "hand": "right"
      },
      {
        "midi": 40,
        "time": 83.913,
        "duration": 0.326,
        "velocity": 0.49,
        "hand": "left"
      },
      {
        "midi": 47,
        "time": 83.913,
        "duration": 0.326,
        "velocity": 0.49,
        "hand": "left"
      },
      {
        "midi": 52,
        "time": 83.913,
        "duration": 0.326,
        "velocity": 0.49,
        "hand": "left"
      },
      {
        "midi": 71,
        "time": 83.913,
        "duration": 0.326,
        "velocity": 0.71,
        "hand": "right"
      },
      {
        "midi": 74,
        "time": 83.913,
        "duration": 0.326,
        "velocity": 0.71,
        "hand": "right"
      },
      {
        "midi": 78,
        "time": 83.913,
        "duration": 0.109,
        "velocity": 0.79,
        "hand": "right"
      },
      {
        "midi": 83,
        "time": 84.13,
        "duration": 0.109,
        "velocity": 0.79,
        "hand": "right"
      },
      {
        "midi": 38,
        "time": 84.348,
        "duration": 0.326,
        "velocity": 0.49,
        "hand": "left"
      },
      {
        "midi": 47,
        "time": 84.348,
        "duration": 0.326,
        "velocity": 0.49,
        "hand": "left"
      },
      {
        "midi": 50,
        "time": 84.348,
        "duration": 0.326,
        "velocity": 0.49,
        "hand": "left"
      },
      {
        "midi": 71,
        "time": 84.348,
        "duration": 0.761,
        "velocity": 0.79,
        "hand": "right"
      },
      {
        "midi": 37,
        "time": 84.783,
        "duration": 0.326,
        "velocity": 0.49,
        "hand": "left"
      },
      {
        "midi": 47,
        "time": 84.783,
        "duration": 0.326,
        "velocity": 0.49,
        "hand": "left"
      },
      {
        "midi": 49,
        "time": 84.783,
        "duration": 0.326,
        "velocity": 0.49,
        "hand": "left"
      },
      {
        "midi": 35,
        "time": 85.217,
        "duration": 0.217,
        "velocity": 0.49,
        "hand": "left"
      },
      {
        "midi": 47,
        "time": 85.217,
        "duration": 0.217,
        "velocity": 0.49,
        "hand": "left"
      },
      {
        "midi": 83,
        "time": 85.217,
        "duration": 0.652,
        "velocity": 0.8,
        "hand": "right"
      },
      {
        "midi": 45,
        "time": 85.435,
        "duration": 0.109,
        "velocity": 0.49,
        "hand": "left"
      },
      {
        "midi": 85,
        "time": 85.435,
        "duration": 0.109,
        "velocity": 0.8,
        "hand": "right"
      },
      {
        "midi": 43,
        "time": 85.652,
        "duration": 0.109,
        "velocity": 0.49,
        "hand": "left"
      },
      {
        "midi": 86,
        "time": 85.652,
        "duration": 0.109,
        "velocity": 0.8,
        "hand": "right"
      },
      {
        "midi": 42,
        "time": 85.761,
        "duration": 0.109,
        "velocity": 0.49,
        "hand": "left"
      },
      {
        "midi": 88,
        "time": 85.761,
        "duration": 0.109,
        "velocity": 0.8,
        "hand": "right"
      },
      {
        "midi": 35,
        "time": 85.978,
        "duration": 0.217,
        "velocity": 0.49,
        "hand": "left"
      },
      {
        "midi": 47,
        "time": 85.978,
        "duration": 0.217,
        "velocity": 0.49,
        "hand": "left"
      },
      {
        "midi": 83,
        "time": 85.978,
        "duration": 0.652,
        "velocity": 0.71,
        "hand": "right"
      },
      {
        "midi": 90,
        "time": 85.978,
        "duration": 0.217,
        "velocity": 0.8,
        "hand": "right"
      },
      {
        "midi": 45,
        "time": 86.196,
        "duration": 0.109,
        "velocity": 0.49,
        "hand": "left"
      },
      {
        "midi": 86,
        "time": 86.196,
        "duration": 0.109,
        "velocity": 0.8,
        "hand": "right"
      },
      {
        "midi": 43,
        "time": 86.413,
        "duration": 0.109,
        "velocity": 0.49,
        "hand": "left"
      },
      {
        "midi": 90,
        "time": 86.413,
        "duration": 0.217,
        "velocity": 0.8,
        "hand": "right"
      },
      {
        "midi": 42,
        "time": 86.63,
        "duration": 0.109,
        "velocity": 0.49,
        "hand": "left"
      },
      {
        "midi": 35,
        "time": 86.739,
        "duration": 0.217,
        "velocity": 0.49,
        "hand": "left"
      },
      {
        "midi": 47,
        "time": 86.739,
        "duration": 0.217,
        "velocity": 0.49,
        "hand": "left"
      },
      {
        "midi": 83,
        "time": 86.739,
        "duration": 0.652,
        "velocity": 0.71,
        "hand": "right"
      },
      {
        "midi": 89,
        "time": 86.739,
        "duration": 0.109,
        "velocity": 0.8,
        "hand": "right"
      },
      {
        "midi": 45,
        "time": 86.957,
        "duration": 0.109,
        "velocity": 0.49,
        "hand": "left"
      },
      {
        "midi": 85,
        "time": 86.957,
        "duration": 0.109,
        "velocity": 0.8,
        "hand": "right"
      },
      {
        "midi": 43,
        "time": 87.174,
        "duration": 0.109,
        "velocity": 0.49,
        "hand": "left"
      },
      {
        "midi": 89,
        "time": 87.174,
        "duration": 0.217,
        "velocity": 0.8,
        "hand": "right"
      },
      {
        "midi": 42,
        "time": 87.391,
        "duration": 0.109,
        "velocity": 0.49,
        "hand": "left"
      },
      {
        "midi": 35,
        "time": 87.609,
        "duration": 0.217,
        "velocity": 0.49,
        "hand": "left"
      },
      {
        "midi": 47,
        "time": 87.609,
        "duration": 0.217,
        "velocity": 0.49,
        "hand": "left"
      },
      {
        "midi": 83,
        "time": 87.609,
        "duration": 0.652,
        "velocity": 0.71,
        "hand": "right"
      },
      {
        "midi": 88,
        "time": 87.609,
        "duration": 0.109,
        "velocity": 0.8,
        "hand": "right"
      },
      {
        "midi": 45,
        "time": 87.717,
        "duration": 0.109,
        "velocity": 0.49,
        "hand": "left"
      },
      {
        "midi": 84,
        "time": 87.717,
        "duration": 0.109,
        "velocity": 0.8,
        "hand": "right"
      },
      {
        "midi": 43,
        "time": 87.935,
        "duration": 0.109,
        "velocity": 0.49,
        "hand": "left"
      },
      {
        "midi": 88,
        "time": 87.935,
        "duration": 0.217,
        "velocity": 0.8,
        "hand": "right"
      },
      {
        "midi": 42,
        "time": 88.152,
        "duration": 0.109,
        "velocity": 0.49,
        "hand": "left"
      },
      {
        "midi": 35,
        "time": 88.37,
        "duration": 0.217,
        "velocity": 0.49,
        "hand": "left"
      },
      {
        "midi": 47,
        "time": 88.37,
        "duration": 0.217,
        "velocity": 0.49,
        "hand": "left"
      },
      {
        "midi": 83,
        "time": 88.37,
        "duration": 0.652,
        "velocity": 0.8,
        "hand": "right"
      },
      {
        "midi": 45,
        "time": 88.478,
        "duration": 0.109,
        "velocity": 0.49,
        "hand": "left"
      },
      {
        "midi": 85,
        "time": 88.478,
        "duration": 0.109,
        "velocity": 0.8,
        "hand": "right"
      },
      {
        "midi": 43,
        "time": 88.696,
        "duration": 0.109,
        "velocity": 0.49,
        "hand": "left"
      },
      {
        "midi": 86,
        "time": 88.696,
        "duration": 0.109,
        "velocity": 0.8,
        "hand": "right"
      },
      {
        "midi": 42,
        "time": 88.913,
        "duration": 0.109,
        "velocity": 0.49,
        "hand": "left"
      },
      {
        "midi": 88,
        "time": 88.913,
        "duration": 0.109,
        "velocity": 0.8,
        "hand": "right"
      },
      {
        "midi": 35,
        "time": 89.13,
        "duration": 0.217,
        "velocity": 0.49,
        "hand": "left"
      },
      {
        "midi": 47,
        "time": 89.13,
        "duration": 0.217,
        "velocity": 0.49,
        "hand": "left"
      },
      {
        "midi": 83,
        "time": 89.13,
        "duration": 0.652,
        "velocity": 0.71,
        "hand": "right"
      },
      {
        "midi": 90,
        "time": 89.13,
        "duration": 0.109,
        "velocity": 0.8,
        "hand": "right"
      },
      {
        "midi": 45,
        "time": 89.348,
        "duration": 0.109,
        "velocity": 0.49,
        "hand": "left"
      },
      {
        "midi": 86,
        "time": 89.348,
        "duration": 0.109,
        "velocity": 0.8,
        "hand": "right"
      },
      {
        "midi": 43,
        "time": 89.457,
        "duration": 0.109,
        "velocity": 0.49,
        "hand": "left"
      },
      {
        "midi": 90,
        "time": 89.457,
        "duration": 0.109,
        "velocity": 0.8,
        "hand": "right"
      },
      {
        "midi": 42,
        "time": 89.674,
        "duration": 0.109,
        "velocity": 0.49,
        "hand": "left"
      },
      {
        "midi": 95,
        "time": 89.674,
        "duration": 0.109,
        "velocity": 0.8,
        "hand": "right"
      },
      {
        "midi": 38,
        "time": 89.891,
        "duration": 0.217,
        "velocity": 0.49,
        "hand": "left"
      },
      {
        "midi": 50,
        "time": 89.891,
        "duration": 0.217,
        "velocity": 0.49,
        "hand": "left"
      },
      {
        "midi": 81,
        "time": 89.891,
        "duration": 0.652,
        "velocity": 0.71,
        "hand": "right"
      },
      {
        "midi": 86,
        "time": 89.891,
        "duration": 0.435,
        "velocity": 0.71,
        "hand": "right"
      },
      {
        "midi": 93,
        "time": 89.891,
        "duration": 0.109,
        "velocity": 0.8,
        "hand": "right"
      },
      {
        "midi": 49,
        "time": 90.109,
        "duration": 0.109,
        "velocity": 0.49,
        "hand": "left"
      },
      {
        "midi": 90,
        "time": 90.109,
        "duration": 0.109,
        "velocity": 0.8,
        "hand": "right"
      },
      {
        "midi": 47,
        "time": 90.326,
        "duration": 0.109,
        "velocity": 0.49,
        "hand": "left"
      },
      {
        "midi": 86,
        "time": 90.326,
        "duration": 0.326,
        "velocity": 0.8,
        "hand": "right"
      },
      {
        "midi": 45,
        "time": 90.435,
        "duration": 0.109,
        "velocity": 0.49,
        "hand": "left"
      },
      {
        "midi": 90,
        "time": 90.435,
        "duration": 0.109,
        "velocity": 0.8,
        "hand": "right"
      },
      {
        "midi": 38,
        "time": 90.652,
        "duration": 0.217,
        "velocity": 0.49,
        "hand": "left"
      },
      {
        "midi": 50,
        "time": 90.652,
        "duration": 0.217,
        "velocity": 0.49,
        "hand": "left"
      },
      {
        "midi": 81,
        "time": 90.652,
        "duration": 0.652,
        "velocity": 0.71,
        "hand": "right"
      },
      {
        "midi": 86,
        "time": 90.652,
        "duration": 0.652,
        "velocity": 0.71,
        "hand": "right"
      },
      {
        "midi": 93,
        "time": 90.652,
        "duration": 0.652,
        "velocity": 0.8,
        "hand": "right"
      },
      {
        "midi": 49,
        "time": 90.87,
        "duration": 0.109,
        "velocity": 0.49,
        "hand": "left"
      },
      {
        "midi": 47,
        "time": 91.087,
        "duration": 0.109,
        "velocity": 0.49,
        "hand": "left"
      },
      {
        "midi": 45,
        "time": 91.304,
        "duration": 0.109,
        "velocity": 0.49,
        "hand": "left"
      },
      {
        "midi": 35,
        "time": 91.413,
        "duration": 0.217,
        "velocity": 0.49,
        "hand": "left"
      },
      {
        "midi": 47,
        "time": 91.413,
        "duration": 0.217,
        "velocity": 0.49,
        "hand": "left"
      },
      {
        "midi": 83,
        "time": 91.413,
        "duration": 0.652,
        "velocity": 0.8,
        "hand": "right"
      },
      {
        "midi": 45,
        "time": 91.63,
        "duration": 0.109,
        "velocity": 0.49,
        "hand": "left"
      },
      {
        "midi": 85,
        "time": 91.63,
        "duration": 0.109,
        "velocity": 0.8,
        "hand": "right"
      },
      {
        "midi": 43,
        "time": 91.848,
        "duration": 0.109,
        "velocity": 0.49,
        "hand": "left"
      },
      {
        "midi": 86,
        "time": 91.848,
        "duration": 0.109,
        "velocity": 0.8,
        "hand": "right"
      },
      {
        "midi": 42,
        "time": 92.065,
        "duration": 0.109,
        "velocity": 0.49,
        "hand": "left"
      },
      {
        "midi": 88,
        "time": 92.065,
        "duration": 0.109,
        "velocity": 0.8,
        "hand": "right"
      },
      {
        "midi": 35,
        "time": 92.283,
        "duration": 0.217,
        "velocity": 0.49,
        "hand": "left"
      },
      {
        "midi": 47,
        "time": 92.283,
        "duration": 0.217,
        "velocity": 0.49,
        "hand": "left"
      },
      {
        "midi": 83,
        "time": 92.283,
        "duration": 0.652,
        "velocity": 0.71,
        "hand": "right"
      },
      {
        "midi": 90,
        "time": 92.283,
        "duration": 0.217,
        "velocity": 0.8,
        "hand": "right"
      },
      {
        "midi": 45,
        "time": 92.391,
        "duration": 0.109,
        "velocity": 0.49,
        "hand": "left"
      },
      {
        "midi": 86,
        "time": 92.391,
        "duration": 0.109,
        "velocity": 0.8,
        "hand": "right"
      },
      {
        "midi": 43,
        "time": 92.609,
        "duration": 0.109,
        "velocity": 0.49,
        "hand": "left"
      },
      {
        "midi": 90,
        "time": 92.609,
        "duration": 0.217,
        "velocity": 0.8,
        "hand": "right"
      },
      {
        "midi": 42,
        "time": 92.826,
        "duration": 0.109,
        "velocity": 0.49,
        "hand": "left"
      },
      {
        "midi": 35,
        "time": 93.043,
        "duration": 0.217,
        "velocity": 0.49,
        "hand": "left"
      },
      {
        "midi": 47,
        "time": 93.043,
        "duration": 0.217,
        "velocity": 0.49,
        "hand": "left"
      },
      {
        "midi": 83,
        "time": 93.043,
        "duration": 0.652,
        "velocity": 0.71,
        "hand": "right"
      },
      {
        "midi": 89,
        "time": 93.043,
        "duration": 0.217,
        "velocity": 0.8,
        "hand": "right"
      },
      {
        "midi": 45,
        "time": 93.152,
        "duration": 0.109,
        "velocity": 0.49,
        "hand": "left"
      },
      {
        "midi": 85,
        "time": 93.152,
        "duration": 0.109,
        "velocity": 0.8,
        "hand": "right"
      },
      {
        "midi": 43,
        "time": 93.37,
        "duration": 0.109,
        "velocity": 0.49,
        "hand": "left"
      },
      {
        "midi": 89,
        "time": 93.37,
        "duration": 0.217,
        "velocity": 0.8,
        "hand": "right"
      },
      {
        "midi": 42,
        "time": 93.587,
        "duration": 0.109,
        "velocity": 0.49,
        "hand": "left"
      },
      {
        "midi": 35,
        "time": 93.804,
        "duration": 0.217,
        "velocity": 0.49,
        "hand": "left"
      },
      {
        "midi": 47,
        "time": 93.804,
        "duration": 0.217,
        "velocity": 0.49,
        "hand": "left"
      },
      {
        "midi": 83,
        "time": 93.804,
        "duration": 0.652,
        "velocity": 0.71,
        "hand": "right"
      },
      {
        "midi": 88,
        "time": 93.804,
        "duration": 0.217,
        "velocity": 0.8,
        "hand": "right"
      },
      {
        "midi": 45,
        "time": 94.022,
        "duration": 0.109,
        "velocity": 0.49,
        "hand": "left"
      },
      {
        "midi": 84,
        "time": 94.022,
        "duration": 0.109,
        "velocity": 0.8,
        "hand": "right"
      },
      {
        "midi": 43,
        "time": 94.13,
        "duration": 0.109,
        "velocity": 0.49,
        "hand": "left"
      },
      {
        "midi": 88,
        "time": 94.13,
        "duration": 0.217,
        "velocity": 0.8,
        "hand": "right"
      },
      {
        "midi": 42,
        "time": 94.348,
        "duration": 0.109,
        "velocity": 0.49,
        "hand": "left"
      },
      {
        "midi": 35,
        "time": 94.565,
        "duration": 0.217,
        "velocity": 0.49,
        "hand": "left"
      },
      {
        "midi": 47,
        "time": 94.565,
        "duration": 0.217,
        "velocity": 0.49,
        "hand": "left"
      },
      {
        "midi": 83,
        "time": 94.565,
        "duration": 0.652,
        "velocity": 0.8,
        "hand": "right"
      },
      {
        "midi": 45,
        "time": 94.783,
        "duration": 0.109,
        "velocity": 0.49,
        "hand": "left"
      },
      {
        "midi": 85,
        "time": 94.783,
        "duration": 0.109,
        "velocity": 0.8,
        "hand": "right"
      },
      {
        "midi": 43,
        "time": 95,
        "duration": 0.109,
        "velocity": 0.49,
        "hand": "left"
      },
      {
        "midi": 86,
        "time": 95,
        "duration": 0.109,
        "velocity": 0.8,
        "hand": "right"
      },
      {
        "midi": 42,
        "time": 95.109,
        "duration": 0.109,
        "velocity": 0.49,
        "hand": "left"
      },
      {
        "midi": 88,
        "time": 95.109,
        "duration": 0.109,
        "velocity": 0.8,
        "hand": "right"
      },
      {
        "midi": 35,
        "time": 95.326,
        "duration": 0.217,
        "velocity": 0.49,
        "hand": "left"
      },
      {
        "midi": 47,
        "time": 95.326,
        "duration": 0.217,
        "velocity": 0.49,
        "hand": "left"
      },
      {
        "midi": 83,
        "time": 95.326,
        "duration": 0.652,
        "velocity": 0.71,
        "hand": "right"
      },
      {
        "midi": 90,
        "time": 95.326,
        "duration": 0.109,
        "velocity": 0.8,
        "hand": "right"
      },
      {
        "midi": 45,
        "time": 95.543,
        "duration": 0.109,
        "velocity": 0.49,
        "hand": "left"
      },
      {
        "midi": 86,
        "time": 95.543,
        "duration": 0.109,
        "velocity": 0.8,
        "hand": "right"
      },
      {
        "midi": 43,
        "time": 95.761,
        "duration": 0.109,
        "velocity": 0.49,
        "hand": "left"
      },
      {
        "midi": 90,
        "time": 95.761,
        "duration": 0.109,
        "velocity": 0.8,
        "hand": "right"
      },
      {
        "midi": 42,
        "time": 95.978,
        "duration": 0.109,
        "velocity": 0.49,
        "hand": "left"
      },
      {
        "midi": 95,
        "time": 95.978,
        "duration": 0.109,
        "velocity": 0.8,
        "hand": "right"
      },
      {
        "midi": 35,
        "time": 96.087,
        "duration": 0.217,
        "velocity": 0.49,
        "hand": "left"
      },
      {
        "midi": 47,
        "time": 96.087,
        "duration": 0.217,
        "velocity": 0.49,
        "hand": "left"
      },
      {
        "midi": 81,
        "time": 96.087,
        "duration": 0.652,
        "velocity": 0.71,
        "hand": "right"
      },
      {
        "midi": 86,
        "time": 96.087,
        "duration": 0.435,
        "velocity": 0.71,
        "hand": "right"
      },
      {
        "midi": 93,
        "time": 96.087,
        "duration": 0.109,
        "velocity": 0.8,
        "hand": "right"
      },
      {
        "midi": 45,
        "time": 96.304,
        "duration": 0.109,
        "velocity": 0.49,
        "hand": "left"
      },
      {
        "midi": 90,
        "time": 96.304,
        "duration": 0.109,
        "velocity": 0.8,
        "hand": "right"
      },
      {
        "midi": 43,
        "time": 96.522,
        "duration": 0.109,
        "velocity": 0.49,
        "hand": "left"
      },
      {
        "midi": 86,
        "time": 96.522,
        "duration": 0.326,
        "velocity": 0.8,
        "hand": "right"
      },
      {
        "midi": 42,
        "time": 96.739,
        "duration": 0.109,
        "velocity": 0.49,
        "hand": "left"
      },
      {
        "midi": 90,
        "time": 96.739,
        "duration": 0.109,
        "velocity": 0.8,
        "hand": "right"
      },
      {
        "midi": 35,
        "time": 96.957,
        "duration": 0.217,
        "velocity": 0.49,
        "hand": "left"
      },
      {
        "midi": 47,
        "time": 96.957,
        "duration": 0.217,
        "velocity": 0.49,
        "hand": "left"
      },
      {
        "midi": 81,
        "time": 96.957,
        "duration": 0.652,
        "velocity": 0.71,
        "hand": "right"
      },
      {
        "midi": 86,
        "time": 96.957,
        "duration": 0.652,
        "velocity": 0.71,
        "hand": "right"
      },
      {
        "midi": 93,
        "time": 96.957,
        "duration": 0.652,
        "velocity": 0.8,
        "hand": "right"
      },
      {
        "midi": 45,
        "time": 97.065,
        "duration": 0.109,
        "velocity": 0.49,
        "hand": "left"
      },
      {
        "midi": 43,
        "time": 97.283,
        "duration": 0.109,
        "velocity": 0.49,
        "hand": "left"
      },
      {
        "midi": 42,
        "time": 97.5,
        "duration": 0.109,
        "velocity": 0.49,
        "hand": "left"
      },
      {
        "midi": 42,
        "time": 97.717,
        "duration": 0.217,
        "velocity": 0.49,
        "hand": "left"
      },
      {
        "midi": 54,
        "time": 97.717,
        "duration": 0.217,
        "velocity": 0.49,
        "hand": "left"
      },
      {
        "midi": 90,
        "time": 97.717,
        "duration": 0.652,
        "velocity": 0.8,
        "hand": "right"
      },
      {
        "midi": 52,
        "time": 97.826,
        "duration": 0.109,
        "velocity": 0.49,
        "hand": "left"
      },
      {
        "midi": 92,
        "time": 97.826,
        "duration": 0.109,
        "velocity": 0.8,
        "hand": "right"
      },
      {
        "midi": 50,
        "time": 98.043,
        "duration": 0.109,
        "velocity": 0.49,
        "hand": "left"
      },
      {
        "midi": 94,
        "time": 98.043,
        "duration": 0.109,
        "velocity": 0.8,
        "hand": "right"
      },
      {
        "midi": 49,
        "time": 98.261,
        "duration": 0.109,
        "velocity": 0.49,
        "hand": "left"
      },
      {
        "midi": 95,
        "time": 98.261,
        "duration": 0.109,
        "velocity": 0.8,
        "hand": "right"
      },
      {
        "midi": 42,
        "time": 98.478,
        "duration": 0.217,
        "velocity": 0.49,
        "hand": "left"
      },
      {
        "midi": 54,
        "time": 98.478,
        "duration": 0.217,
        "velocity": 0.49,
        "hand": "left"
      },
      {
        "midi": 85,
        "time": 98.478,
        "duration": 0.326,
        "velocity": 0.71,
        "hand": "right"
      },
      {
        "midi": 90,
        "time": 98.478,
        "duration": 0.326,
        "velocity": 0.71,
        "hand": "right"
      },
      {
        "midi": 97,
        "time": 98.478,
        "duration": 0.217,
        "velocity": 0.8,
        "hand": "right"
      },
      {
        "midi": 52,
        "time": 98.696,
        "duration": 0.109,
        "velocity": 0.49,
        "hand": "left"
      },
      {
        "midi": 94,
        "time": 98.696,
        "duration": 0.109,
        "velocity": 0.8,
        "hand": "right"
      },
      {
        "midi": 50,
        "time": 98.804,
        "duration": 0.109,
        "velocity": 0.49,
        "hand": "left"
      },
      {
        "midi": 85,
        "time": 98.804,
        "duration": 0.326,
        "velocity": 0.71,
        "hand": "right"
      },
      {
        "midi": 90,
        "time": 98.804,
        "duration": 0.326,
        "velocity": 0.71,
        "hand": "right"
      },
      {
        "midi": 97,
        "time": 98.804,
        "duration": 0.326,
        "velocity": 0.8,
        "hand": "right"
      },
      {
        "midi": 49,
        "time": 99.022,
        "duration": 0.109,
        "velocity": 0.49,
        "hand": "left"
      },
      {
        "midi": 38,
        "time": 99.239,
        "duration": 0.217,
        "velocity": 0.49,
        "hand": "left"
      },
      {
        "midi": 50,
        "time": 99.239,
        "duration": 0.217,
        "velocity": 0.49,
        "hand": "left"
      },
      {
        "midi": 86,
        "time": 99.239,
        "duration": 0.217,
        "velocity": 0.49,
        "hand": "right"
      },
      {
        "midi": 90,
        "time": 99.239,
        "duration": 0.217,
        "velocity": 0.49,
        "hand": "right"
      },
      {
        "midi": 98,
        "time": 99.239,
        "duration": 0.217,
        "velocity": 0.49,
        "hand": "right"
      },
      {
        "midi": 49,
        "time": 99.457,
        "duration": 0.109,
        "velocity": 0.49,
        "hand": "left"
      },
      {
        "midi": 94,
        "time": 99.457,
        "duration": 0.109,
        "velocity": 0.49,
        "hand": "right"
      },
      {
        "midi": 50,
        "time": 99.674,
        "duration": 0.109,
        "velocity": 0.49,
        "hand": "left"
      },
      {
        "midi": 86,
        "time": 99.674,
        "duration": 0.326,
        "velocity": 0.49,
        "hand": "right"
      },
      {
        "midi": 90,
        "time": 99.674,
        "duration": 0.326,
        "velocity": 0.49,
        "hand": "right"
      },
      {
        "midi": 98,
        "time": 99.674,
        "duration": 0.326,
        "velocity": 0.49,
        "hand": "right"
      },
      {
        "midi": 52,
        "time": 99.783,
        "duration": 0.109,
        "velocity": 0.49,
        "hand": "left"
      },
      {
        "midi": 42,
        "time": 100,
        "duration": 0.217,
        "velocity": 0.49,
        "hand": "left"
      },
      {
        "midi": 54,
        "time": 100,
        "duration": 0.217,
        "velocity": 0.49,
        "hand": "left"
      },
      {
        "midi": 85,
        "time": 100,
        "duration": 0.217,
        "velocity": 0.49,
        "hand": "right"
      },
      {
        "midi": 90,
        "time": 100,
        "duration": 0.217,
        "velocity": 0.49,
        "hand": "right"
      },
      {
        "midi": 97,
        "time": 100,
        "duration": 0.217,
        "velocity": 0.49,
        "hand": "right"
      },
      {
        "midi": 52,
        "time": 100.217,
        "duration": 0.109,
        "velocity": 0.49,
        "hand": "left"
      },
      {
        "midi": 94,
        "time": 100.217,
        "duration": 0.109,
        "velocity": 0.49,
        "hand": "right"
      },
      {
        "midi": 50,
        "time": 100.435,
        "duration": 0.109,
        "velocity": 0.49,
        "hand": "left"
      },
      {
        "midi": 85,
        "time": 100.435,
        "duration": 0.326,
        "velocity": 0.49,
        "hand": "right"
      },
      {
        "midi": 90,
        "time": 100.435,
        "duration": 0.326,
        "velocity": 0.49,
        "hand": "right"
      },
      {
        "midi": 97,
        "time": 100.435,
        "duration": 0.326,
        "velocity": 0.49,
        "hand": "right"
      },
      {
        "midi": 49,
        "time": 100.652,
        "duration": 0.109,
        "velocity": 0.49,
        "hand": "left"
      },
      {
        "midi": 42,
        "time": 100.761,
        "duration": 0.217,
        "velocity": 0.49,
        "hand": "left"
      },
      {
        "midi": 54,
        "time": 100.761,
        "duration": 0.217,
        "velocity": 0.49,
        "hand": "left"
      },
      {
        "midi": 90,
        "time": 100.761,
        "duration": 0.109,
        "velocity": 0.49,
        "hand": "right"
      },
      {
        "midi": 52,
        "time": 100.978,
        "duration": 0.109,
        "velocity": 0.49,
        "hand": "left"
      },
      {
        "midi": 90,
        "time": 100.978,
        "duration": 0.109,
        "velocity": 0.49,
        "hand": "right"
      },
      {
        "midi": 91,
        "time": 100.978,
        "duration": 0.109,
        "velocity": 0.49,
        "hand": "right"
      },
      {
        "midi": 50,
        "time": 101.196,
        "duration": 0.109,
        "velocity": 0.49,
        "hand": "left"
      },
      {
        "midi": 90,
        "time": 101.196,
        "duration": 0.109,
        "velocity": 0.49,
        "hand": "right"
      },
      {
        "midi": 94,
        "time": 101.196,
        "duration": 0.109,
        "velocity": 0.49,
        "hand": "right"
      },
      {
        "midi": 49,
        "time": 101.413,
        "duration": 0.109,
        "velocity": 0.49,
        "hand": "left"
      },
      {
        "midi": 90,
        "time": 101.413,
        "duration": 0.109,
        "velocity": 0.49,
        "hand": "right"
      },
      {
        "midi": 95,
        "time": 101.413,
        "duration": 0.109,
        "velocity": 0.49,
        "hand": "right"
      },
      {
        "midi": 42,
        "time": 101.63,
        "duration": 0.217,
        "velocity": 0.49,
        "hand": "left"
      },
      {
        "midi": 54,
        "time": 101.63,
        "duration": 0.217,
        "velocity": 0.49,
        "hand": "left"
      },
      {
        "midi": 85,
        "time": 101.63,
        "duration": 0.217,
        "velocity": 0.49,
        "hand": "right"
      },
      {
        "midi": 90,
        "time": 101.63,
        "duration": 0.217,
        "velocity": 0.49,
        "hand": "right"
      },
      {
        "midi": 97,
        "time": 101.63,
        "duration": 0.217,
        "velocity": 0.49,
        "hand": "right"
      },
      {
        "midi": 52,
        "time": 101.739,
        "duration": 0.109,
        "velocity": 0.49,
        "hand": "left"
      },
      {
        "midi": 85,
        "time": 101.739,
        "duration": 0.109,
        "velocity": 0.49,
        "hand": "right"
      },
      {
        "midi": 90,
        "time": 101.739,
        "duration": 0.109,
        "velocity": 0.49,
        "hand": "right"
      },
      {
        "midi": 94,
        "time": 101.739,
        "duration": 0.109,
        "velocity": 0.49,
        "hand": "right"
      },
      {
        "midi": 50,
        "time": 101.957,
        "duration": 0.109,
        "velocity": 0.49,
        "hand": "left"
      },
      {
        "midi": 85,
        "time": 101.957,
        "duration": 0.326,
        "velocity": 0.49,
        "hand": "right"
      },
      {
        "midi": 90,
        "time": 101.957,
        "duration": 0.326,
        "velocity": 0.49,
        "hand": "right"
      },
      {
        "midi": 97,
        "time": 101.957,
        "duration": 0.326,
        "velocity": 0.49,
        "hand": "right"
      },
      {
        "midi": 49,
        "time": 102.174,
        "duration": 0.109,
        "velocity": 0.49,
        "hand": "left"
      },
      {
        "midi": 38,
        "time": 102.391,
        "duration": 0.217,
        "velocity": 0.49,
        "hand": "left"
      },
      {
        "midi": 50,
        "time": 102.391,
        "duration": 0.217,
        "velocity": 0.49,
        "hand": "left"
      },
      {
        "midi": 86,
        "time": 102.391,
        "duration": 0.217,
        "velocity": 0.49,
        "hand": "right"
      },
      {
        "midi": 90,
        "time": 102.391,
        "duration": 0.217,
        "velocity": 0.49,
        "hand": "right"
      },
      {
        "midi": 98,
        "time": 102.391,
        "duration": 0.217,
        "velocity": 0.49,
        "hand": "right"
      },
      {
        "midi": 49,
        "time": 102.609,
        "duration": 0.109,
        "velocity": 0.49,
        "hand": "left"
      },
      {
        "midi": 86,
        "time": 102.609,
        "duration": 0.109,
        "velocity": 0.49,
        "hand": "right"
      },
      {
        "midi": 90,
        "time": 102.609,
        "duration": 0.109,
        "velocity": 0.49,
        "hand": "right"
      },
      {
        "midi": 94,
        "time": 102.609,
        "duration": 0.109,
        "velocity": 0.49,
        "hand": "right"
      },
      {
        "midi": 50,
        "time": 102.717,
        "duration": 0.109,
        "velocity": 0.49,
        "hand": "left"
      },
      {
        "midi": 86,
        "time": 102.717,
        "duration": 0.326,
        "velocity": 0.49,
        "hand": "right"
      },
      {
        "midi": 90,
        "time": 102.717,
        "duration": 0.326,
        "velocity": 0.49,
        "hand": "right"
      },
      {
        "midi": 98,
        "time": 102.717,
        "duration": 0.326,
        "velocity": 0.49,
        "hand": "right"
      },
      {
        "midi": 52,
        "time": 102.935,
        "duration": 0.109,
        "velocity": 0.49,
        "hand": "left"
      },
      {
        "midi": 42,
        "time": 103.152,
        "duration": 0.217,
        "velocity": 0.49,
        "hand": "left"
      },
      {
        "midi": 54,
        "time": 103.152,
        "duration": 0.217,
        "velocity": 0.49,
        "hand": "left"
      },
      {
        "midi": 85,
        "time": 103.152,
        "duration": 0.652,
        "velocity": 0.49,
        "hand": "right"
      },
      {
        "midi": 90,
        "time": 103.152,
        "duration": 0.652,
        "velocity": 0.49,
        "hand": "right"
      },
      {
        "midi": 97,
        "time": 103.152,
        "duration": 0.652,
        "velocity": 0.49,
        "hand": "right"
      },
      {
        "midi": 52,
        "time": 103.37,
        "duration": 0.109,
        "velocity": 0.49,
        "hand": "left"
      },
      {
        "midi": 50,
        "time": 103.478,
        "duration": 0.109,
        "velocity": 0.49,
        "hand": "left"
      },
      {
        "midi": 49,
        "time": 103.696,
        "duration": 0.109,
        "velocity": 0.49,
        "hand": "left"
      },
      {
        "midi": 42,
        "time": 103.913,
        "duration": 0.217,
        "velocity": 0.49,
        "hand": "left"
      },
      {
        "midi": 54,
        "time": 103.913,
        "duration": 0.217,
        "velocity": 0.49,
        "hand": "left"
      },
      {
        "midi": 90,
        "time": 103.913,
        "duration": 0.652,
        "velocity": 0.71,
        "hand": "right"
      },
      {
        "midi": 53,
        "time": 104.13,
        "duration": 0.109,
        "velocity": 0.49,
        "hand": "left"
      },
      {
        "midi": 92,
        "time": 104.13,
        "duration": 0.109,
        "velocity": 0.8,
        "hand": "right"
      },
      {
        "midi": 51,
        "time": 104.348,
        "duration": 0.109,
        "velocity": 0.49,
        "hand": "left"
      },
      {
        "midi": 94,
        "time": 104.348,
        "duration": 0.109,
        "velocity": 0.8,
        "hand": "right"
      },
      {
        "midi": 49,
        "time": 104.457,
        "duration": 0.109,
        "velocity": 0.49,
        "hand": "left"
      },
      {
        "midi": 95,
        "time": 104.457,
        "duration": 0.109,
        "velocity": 0.8,
        "hand": "right"
      },
      {
        "midi": 42,
        "time": 104.674,
        "duration": 0.217,
        "velocity": 0.49,
        "hand": "left"
      },
      {
        "midi": 54,
        "time": 104.674,
        "duration": 0.217,
        "velocity": 0.49,
        "hand": "left"
      },
      {
        "midi": 85,
        "time": 104.674,
        "duration": 0.326,
        "velocity": 0.71,
        "hand": "right"
      },
      {
        "midi": 90,
        "time": 104.674,
        "duration": 0.326,
        "velocity": 0.71,
        "hand": "right"
      },
      {
        "midi": 97,
        "time": 104.674,
        "duration": 0.217,
        "velocity": 0.8,
        "hand": "right"
      },
      {
        "midi": 53,
        "time": 104.891,
        "duration": 0.109,
        "velocity": 0.49,
        "hand": "left"
      },
      {
        "midi": 94,
        "time": 104.891,
        "duration": 0.109,
        "velocity": 0.8,
        "hand": "right"
      },
      {
        "midi": 51,
        "time": 105.109,
        "duration": 0.109,
        "velocity": 0.49,
        "hand": "left"
      },
      {
        "midi": 85,
        "time": 105.109,
        "duration": 0.326,
        "velocity": 0.71,
        "hand": "right"
      },
      {
        "midi": 90,
        "time": 105.109,
        "duration": 0.326,
        "velocity": 0.71,
        "hand": "right"
      },
      {
        "midi": 97,
        "time": 105.109,
        "duration": 0.326,
        "velocity": 0.8,
        "hand": "right"
      },
      {
        "midi": 49,
        "time": 105.326,
        "duration": 0.109,
        "velocity": 0.49,
        "hand": "left"
      },
      {
        "midi": 39,
        "time": 105.435,
        "duration": 0.217,
        "velocity": 0.49,
        "hand": "left"
      },
      {
        "midi": 51,
        "time": 105.435,
        "duration": 0.217,
        "velocity": 0.49,
        "hand": "left"
      },
      {
        "midi": 87,
        "time": 105.435,
        "duration": 0.217,
        "velocity": 0.49,
        "hand": "right"
      },
      {
        "midi": 90,
        "time": 105.435,
        "duration": 0.217,
        "velocity": 0.49,
        "hand": "right"
      },
      {
        "midi": 99,
        "time": 105.435,
        "duration": 0.217,
        "velocity": 0.49,
        "hand": "right"
      },
      {
        "midi": 49,
        "time": 105.652,
        "duration": 0.109,
        "velocity": 0.49,
        "hand": "left"
      },
      {
        "midi": 94,
        "time": 105.652,
        "duration": 0.109,
        "velocity": 0.49,
        "hand": "right"
      },
      {
        "midi": 51,
        "time": 105.87,
        "duration": 0.109,
        "velocity": 0.49,
        "hand": "left"
      },
      {
        "midi": 87,
        "time": 105.87,
        "duration": 0.326,
        "velocity": 0.49,
        "hand": "right"
      },
      {
        "midi": 90,
        "time": 105.87,
        "duration": 0.326,
        "velocity": 0.49,
        "hand": "right"
      },
      {
        "midi": 99,
        "time": 105.87,
        "duration": 0.326,
        "velocity": 0.49,
        "hand": "right"
      },
      {
        "midi": 53,
        "time": 106.087,
        "duration": 0.109,
        "velocity": 0.49,
        "hand": "left"
      },
      {
        "midi": 42,
        "time": 106.304,
        "duration": 0.217,
        "velocity": 0.49,
        "hand": "left"
      },
      {
        "midi": 54,
        "time": 106.304,
        "duration": 0.217,
        "velocity": 0.49,
        "hand": "left"
      },
      {
        "midi": 85,
        "time": 106.304,
        "duration": 0.217,
        "velocity": 0.49,
        "hand": "right"
      },
      {
        "midi": 90,
        "time": 106.304,
        "duration": 0.217,
        "velocity": 0.49,
        "hand": "right"
      },
      {
        "midi": 97,
        "time": 106.304,
        "duration": 0.217,
        "velocity": 0.49,
        "hand": "right"
      },
      {
        "midi": 53,
        "time": 106.413,
        "duration": 0.109,
        "velocity": 0.49,
        "hand": "left"
      },
      {
        "midi": 94,
        "time": 106.413,
        "duration": 0.109,
        "velocity": 0.49,
        "hand": "right"
      },
      {
        "midi": 51,
        "time": 106.63,
        "duration": 0.109,
        "velocity": 0.49,
        "hand": "left"
      },
      {
        "midi": 85,
        "time": 106.63,
        "duration": 0.326,
        "velocity": 0.49,
        "hand": "right"
      },
      {
        "midi": 90,
        "time": 106.63,
        "duration": 0.326,
        "velocity": 0.49,
        "hand": "right"
      },
      {
        "midi": 97,
        "time": 106.63,
        "duration": 0.326,
        "velocity": 0.49,
        "hand": "right"
      },
      {
        "midi": 49,
        "time": 106.848,
        "duration": 0.109,
        "velocity": 0.49,
        "hand": "left"
      },
      {
        "midi": 42,
        "time": 107.065,
        "duration": 0.217,
        "velocity": 0.49,
        "hand": "left"
      },
      {
        "midi": 54,
        "time": 107.065,
        "duration": 0.217,
        "velocity": 0.49,
        "hand": "left"
      },
      {
        "midi": 90,
        "time": 107.065,
        "duration": 0.109,
        "velocity": 0.49,
        "hand": "right"
      },
      {
        "midi": 53,
        "time": 107.283,
        "duration": 0.109,
        "velocity": 0.49,
        "hand": "left"
      },
      {
        "midi": 90,
        "time": 107.283,
        "duration": 0.109,
        "velocity": 0.49,
        "hand": "right"
      },
      {
        "midi": 91,
        "time": 107.283,
        "duration": 0.109,
        "velocity": 0.49,
        "hand": "right"
      },
      {
        "midi": 51,
        "time": 107.391,
        "duration": 0.109,
        "velocity": 0.49,
        "hand": "left"
      },
      {
        "midi": 90,
        "time": 107.391,
        "duration": 0.109,
        "velocity": 0.49,
        "hand": "right"
      },
      {
        "midi": 94,
        "time": 107.391,
        "duration": 0.109,
        "velocity": 0.49,
        "hand": "right"
      },
      {
        "midi": 49,
        "time": 107.609,
        "duration": 0.109,
        "velocity": 0.49,
        "hand": "left"
      },
      {
        "midi": 90,
        "time": 107.609,
        "duration": 0.109,
        "velocity": 0.49,
        "hand": "right"
      },
      {
        "midi": 95,
        "time": 107.609,
        "duration": 0.109,
        "velocity": 0.49,
        "hand": "right"
      },
      {
        "midi": 42,
        "time": 107.826,
        "duration": 0.217,
        "velocity": 0.49,
        "hand": "left"
      },
      {
        "midi": 54,
        "time": 107.826,
        "duration": 0.217,
        "velocity": 0.49,
        "hand": "left"
      },
      {
        "midi": 85,
        "time": 107.826,
        "duration": 0.217,
        "velocity": 0.49,
        "hand": "right"
      },
      {
        "midi": 90,
        "time": 107.826,
        "duration": 0.217,
        "velocity": 0.49,
        "hand": "right"
      },
      {
        "midi": 97,
        "time": 107.826,
        "duration": 0.217,
        "velocity": 0.49,
        "hand": "right"
      },
      {
        "midi": 53,
        "time": 108.043,
        "duration": 0.109,
        "velocity": 0.49,
        "hand": "left"
      },
      {
        "midi": 85,
        "time": 108.043,
        "duration": 0.109,
        "velocity": 0.49,
        "hand": "right"
      },
      {
        "midi": 90,
        "time": 108.043,
        "duration": 0.109,
        "velocity": 0.49,
        "hand": "right"
      },
      {
        "midi": 94,
        "time": 108.043,
        "duration": 0.109,
        "velocity": 0.49,
        "hand": "right"
      },
      {
        "midi": 51,
        "time": 108.152,
        "duration": 0.109,
        "velocity": 0.49,
        "hand": "left"
      },
      {
        "midi": 85,
        "time": 108.152,
        "duration": 0.326,
        "velocity": 0.49,
        "hand": "right"
      },
      {
        "midi": 90,
        "time": 108.152,
        "duration": 0.326,
        "velocity": 0.49,
        "hand": "right"
      },
      {
        "midi": 97,
        "time": 108.152,
        "duration": 0.326,
        "velocity": 0.49,
        "hand": "right"
      },
      {
        "midi": 49,
        "time": 108.37,
        "duration": 0.109,
        "velocity": 0.49,
        "hand": "left"
      },
      {
        "midi": 39,
        "time": 108.587,
        "duration": 0.217,
        "velocity": 0.49,
        "hand": "left"
      },
      {
        "midi": 51,
        "time": 108.587,
        "duration": 0.217,
        "velocity": 0.49,
        "hand": "left"
      },
      {
        "midi": 86,
        "time": 108.587,
        "duration": 0.217,
        "velocity": 0.49,
        "hand": "right"
      },
      {
        "midi": 90,
        "time": 108.587,
        "duration": 0.217,
        "velocity": 0.49,
        "hand": "right"
      },
      {
        "midi": 98,
        "time": 108.587,
        "duration": 0.217,
        "velocity": 0.49,
        "hand": "right"
      },
      {
        "midi": 49,
        "time": 108.804,
        "duration": 0.109,
        "velocity": 0.49,
        "hand": "left"
      },
      {
        "midi": 86,
        "time": 108.804,
        "duration": 0.109,
        "velocity": 0.49,
        "hand": "right"
      },
      {
        "midi": 90,
        "time": 108.804,
        "duration": 0.109,
        "velocity": 0.49,
        "hand": "right"
      },
      {
        "midi": 94,
        "time": 108.804,
        "duration": 0.109,
        "velocity": 0.49,
        "hand": "right"
      },
      {
        "midi": 51,
        "time": 109.022,
        "duration": 0.109,
        "velocity": 0.49,
        "hand": "left"
      },
      {
        "midi": 86,
        "time": 109.022,
        "duration": 0.326,
        "velocity": 0.49,
        "hand": "right"
      },
      {
        "midi": 90,
        "time": 109.022,
        "duration": 0.326,
        "velocity": 0.49,
        "hand": "right"
      },
      {
        "midi": 98,
        "time": 109.022,
        "duration": 0.326,
        "velocity": 0.49,
        "hand": "right"
      },
      {
        "midi": 53,
        "time": 109.13,
        "duration": 0.109,
        "velocity": 0.49,
        "hand": "left"
      },
      {
        "midi": 42,
        "time": 109.348,
        "duration": 0.217,
        "velocity": 0.49,
        "hand": "left"
      },
      {
        "midi": 54,
        "time": 109.348,
        "duration": 0.217,
        "velocity": 0.49,
        "hand": "left"
      },
      {
        "midi": 85,
        "time": 109.348,
        "duration": 0.652,
        "velocity": 0.49,
        "hand": "right"
      },
      {
        "midi": 90,
        "time": 109.348,
        "duration": 0.652,
        "velocity": 0.49,
        "hand": "right"
      },
      {
        "midi": 97,
        "time": 109.348,
        "duration": 0.652,
        "velocity": 0.49,
        "hand": "right"
      },
      {
        "midi": 53,
        "time": 109.565,
        "duration": 0.109,
        "velocity": 0.49,
        "hand": "left"
      },
      {
        "midi": 51,
        "time": 109.783,
        "duration": 0.109,
        "velocity": 0.49,
        "hand": "left"
      },
      {
        "midi": 49,
        "time": 110,
        "duration": 0.109,
        "velocity": 0.49,
        "hand": "left"
      },
      {
        "midi": 35,
        "time": 110.109,
        "duration": 0.217,
        "velocity": 0.49,
        "hand": "left"
      },
      {
        "midi": 47,
        "time": 110.109,
        "duration": 0.217,
        "velocity": 0.49,
        "hand": "left"
      },
      {
        "midi": 83,
        "time": 110.109,
        "duration": 0.652,
        "velocity": 0.8,
        "hand": "right"
      },
      {
        "midi": 45,
        "time": 110.326,
        "duration": 0.109,
        "velocity": 0.49,
        "hand": "left"
      },
      {
        "midi": 85,
        "time": 110.326,
        "duration": 0.109,
        "velocity": 0.8,
        "hand": "right"
      },
      {
        "midi": 43,
        "time": 110.543,
        "duration": 0.109,
        "velocity": 0.49,
        "hand": "left"
      },
      {
        "midi": 86,
        "time": 110.543,
        "duration": 0.109,
        "velocity": 0.8,
        "hand": "right"
      },
      {
        "midi": 42,
        "time": 110.761,
        "duration": 0.109,
        "velocity": 0.49,
        "hand": "left"
      },
      {
        "midi": 88,
        "time": 110.761,
        "duration": 0.109,
        "velocity": 0.8,
        "hand": "right"
      },
      {
        "midi": 35,
        "time": 110.978,
        "duration": 0.217,
        "velocity": 0.49,
        "hand": "left"
      },
      {
        "midi": 47,
        "time": 110.978,
        "duration": 0.217,
        "velocity": 0.49,
        "hand": "left"
      },
      {
        "midi": 83,
        "time": 110.978,
        "duration": 0.652,
        "velocity": 0.71,
        "hand": "right"
      },
      {
        "midi": 90,
        "time": 110.978,
        "duration": 0.217,
        "velocity": 0.8,
        "hand": "right"
      },
      {
        "midi": 45,
        "time": 111.087,
        "duration": 0.109,
        "velocity": 0.49,
        "hand": "left"
      },
      {
        "midi": 86,
        "time": 111.087,
        "duration": 0.109,
        "velocity": 0.8,
        "hand": "right"
      },
      {
        "midi": 43,
        "time": 111.304,
        "duration": 0.109,
        "velocity": 0.49,
        "hand": "left"
      },
      {
        "midi": 90,
        "time": 111.304,
        "duration": 0.326,
        "velocity": 0.8,
        "hand": "right"
      },
      {
        "midi": 42,
        "time": 111.522,
        "duration": 0.109,
        "velocity": 0.49,
        "hand": "left"
      },
      {
        "midi": 35,
        "time": 111.739,
        "duration": 0.217,
        "velocity": 0.49,
        "hand": "left"
      },
      {
        "midi": 47,
        "time": 111.739,
        "duration": 0.217,
        "velocity": 0.49,
        "hand": "left"
      },
      {
        "midi": 83,
        "time": 111.739,
        "duration": 0.652,
        "velocity": 0.71,
        "hand": "right"
      },
      {
        "midi": 89,
        "time": 111.739,
        "duration": 0.217,
        "velocity": 0.8,
        "hand": "right"
      },
      {
        "midi": 45,
        "time": 111.957,
        "duration": 0.109,
        "velocity": 0.49,
        "hand": "left"
      },
      {
        "midi": 85,
        "time": 111.957,
        "duration": 0.109,
        "velocity": 0.8,
        "hand": "right"
      },
      {
        "midi": 43,
        "time": 112.065,
        "duration": 0.109,
        "velocity": 0.49,
        "hand": "left"
      },
      {
        "midi": 89,
        "time": 112.065,
        "duration": 0.217,
        "velocity": 0.8,
        "hand": "right"
      },
      {
        "midi": 42,
        "time": 112.283,
        "duration": 0.109,
        "velocity": 0.49,
        "hand": "left"
      },
      {
        "midi": 35,
        "time": 112.5,
        "duration": 0.217,
        "velocity": 0.49,
        "hand": "left"
      },
      {
        "midi": 47,
        "time": 112.5,
        "duration": 0.217,
        "velocity": 0.49,
        "hand": "left"
      },
      {
        "midi": 83,
        "time": 112.5,
        "duration": 0.652,
        "velocity": 0.71,
        "hand": "right"
      },
      {
        "midi": 88,
        "time": 112.5,
        "duration": 0.217,
        "velocity": 0.8,
        "hand": "right"
      },
      {
        "midi": 45,
        "time": 112.717,
        "duration": 0.109,
        "velocity": 0.49,
        "hand": "left"
      },
      {
        "midi": 84,
        "time": 112.717,
        "duration": 0.109,
        "velocity": 0.8,
        "hand": "right"
      },
      {
        "midi": 43,
        "time": 112.826,
        "duration": 0.109,
        "velocity": 0.49,
        "hand": "left"
      },
      {
        "midi": 88,
        "time": 112.826,
        "duration": 0.217,
        "velocity": 0.8,
        "hand": "right"
      },
      {
        "midi": 42,
        "time": 113.043,
        "duration": 0.109,
        "velocity": 0.49,
        "hand": "left"
      },
      {
        "midi": 35,
        "time": 113.261,
        "duration": 0.217,
        "velocity": 0.49,
        "hand": "left"
      },
      {
        "midi": 47,
        "time": 113.261,
        "duration": 0.217,
        "velocity": 0.49,
        "hand": "left"
      },
      {
        "midi": 83,
        "time": 113.261,
        "duration": 0.652,
        "velocity": 0.8,
        "hand": "right"
      },
      {
        "midi": 45,
        "time": 113.478,
        "duration": 0.109,
        "velocity": 0.49,
        "hand": "left"
      },
      {
        "midi": 85,
        "time": 113.478,
        "duration": 0.109,
        "velocity": 0.8,
        "hand": "right"
      },
      {
        "midi": 43,
        "time": 113.696,
        "duration": 0.109,
        "velocity": 0.49,
        "hand": "left"
      },
      {
        "midi": 86,
        "time": 113.696,
        "duration": 0.109,
        "velocity": 0.8,
        "hand": "right"
      },
      {
        "midi": 42,
        "time": 113.804,
        "duration": 0.109,
        "velocity": 0.49,
        "hand": "left"
      },
      {
        "midi": 88,
        "time": 113.804,
        "duration": 0.109,
        "velocity": 0.8,
        "hand": "right"
      },
      {
        "midi": 35,
        "time": 114.022,
        "duration": 0.217,
        "velocity": 0.49,
        "hand": "left"
      },
      {
        "midi": 47,
        "time": 114.022,
        "duration": 0.217,
        "velocity": 0.49,
        "hand": "left"
      },
      {
        "midi": 83,
        "time": 114.022,
        "duration": 0.217,
        "velocity": 0.71,
        "hand": "right"
      },
      {
        "midi": 90,
        "time": 114.022,
        "duration": 0.109,
        "velocity": 0.8,
        "hand": "right"
      },
      {
        "midi": 45,
        "time": 114.239,
        "duration": 0.109,
        "velocity": 0.49,
        "hand": "left"
      },
      {
        "midi": 83,
        "time": 114.239,
        "duration": 0.435,
        "velocity": 0.8,
        "hand": "right"
      },
      {
        "midi": 43,
        "time": 114.457,
        "duration": 0.109,
        "velocity": 0.49,
        "hand": "left"
      },
      {
        "midi": 90,
        "time": 114.457,
        "duration": 0.109,
        "velocity": 0.8,
        "hand": "right"
      },
      {
        "midi": 42,
        "time": 114.674,
        "duration": 0.109,
        "velocity": 0.49,
        "hand": "left"
      },
      {
        "midi": 95,
        "time": 114.674,
        "duration": 0.109,
        "velocity": 0.8,
        "hand": "right"
      },
      {
        "midi": 38,
        "time": 114.783,
        "duration": 0.217,
        "velocity": 0.49,
        "hand": "left"
      },
      {
        "midi": 50,
        "time": 114.783,
        "duration": 0.217,
        "velocity": 0.49,
        "hand": "left"
      },
      {
        "midi": 81,
        "time": 114.783,
        "duration": 0.652,
        "velocity": 0.71,
        "hand": "right"
      },
      {
        "midi": 86,
        "time": 114.783,
        "duration": 0.435,
        "velocity": 0.71,
        "hand": "right"
      },
      {
        "midi": 93,
        "time": 114.783,
        "duration": 0.109,
        "velocity": 0.8,
        "hand": "right"
      },
      {
        "midi": 49,
        "time": 115,
        "duration": 0.109,
        "velocity": 0.49,
        "hand": "left"
      },
      {
        "midi": 90,
        "time": 115,
        "duration": 0.109,
        "velocity": 0.8,
        "hand": "right"
      },
      {
        "midi": 45,
        "time": 115.217,
        "duration": 0.109,
        "velocity": 0.49,
        "hand": "left"
      },
      {
        "midi": 86,
        "time": 115.217,
        "duration": 0.326,
        "velocity": 0.8,
        "hand": "right"
      },
      {
        "midi": 43,
        "time": 115.435,
        "duration": 0.109,
        "velocity": 0.49,
        "hand": "left"
      },
      {
        "midi": 90,
        "time": 115.435,
        "duration": 0.109,
        "velocity": 0.8,
        "hand": "right"
      },
      {
        "midi": 38,
        "time": 115.652,
        "duration": 0.217,
        "velocity": 0.49,
        "hand": "left"
      },
      {
        "midi": 50,
        "time": 115.652,
        "duration": 0.217,
        "velocity": 0.49,
        "hand": "left"
      },
      {
        "midi": 81,
        "time": 115.652,
        "duration": 0.652,
        "velocity": 0.71,
        "hand": "right"
      },
      {
        "midi": 86,
        "time": 115.652,
        "duration": 0.652,
        "velocity": 0.71,
        "hand": "right"
      },
      {
        "midi": 93,
        "time": 115.652,
        "duration": 0.652,
        "velocity": 0.8,
        "hand": "right"
      },
      {
        "midi": 49,
        "time": 115.761,
        "duration": 0.109,
        "velocity": 0.49,
        "hand": "left"
      },
      {
        "midi": 45,
        "time": 115.978,
        "duration": 0.109,
        "velocity": 0.49,
        "hand": "left"
      },
      {
        "midi": 43,
        "time": 116.196,
        "duration": 0.109,
        "velocity": 0.49,
        "hand": "left"
      },
      {
        "midi": 35,
        "time": 116.413,
        "duration": 0.217,
        "velocity": 0.49,
        "hand": "left"
      },
      {
        "midi": 47,
        "time": 116.413,
        "duration": 0.217,
        "velocity": 0.49,
        "hand": "left"
      },
      {
        "midi": 83,
        "time": 116.413,
        "duration": 0.109,
        "velocity": 0.49,
        "hand": "right"
      },
      {
        "midi": 45,
        "time": 116.63,
        "duration": 0.109,
        "velocity": 0.49,
        "hand": "left"
      },
      {
        "midi": 83,
        "time": 116.63,
        "duration": 0.109,
        "velocity": 0.49,
        "hand": "right"
      },
      {
        "midi": 85,
        "time": 116.63,
        "duration": 0.109,
        "velocity": 0.49,
        "hand": "right"
      },
      {
        "midi": 43,
        "time": 116.739,
        "duration": 0.109,
        "velocity": 0.49,
        "hand": "left"
      },
      {
        "midi": 83,
        "time": 116.739,
        "duration": 0.109,
        "velocity": 0.49,
        "hand": "right"
      },
      {
        "midi": 86,
        "time": 116.739,
        "duration": 0.109,
        "velocity": 0.49,
        "hand": "right"
      },
      {
        "midi": 42,
        "time": 116.957,
        "duration": 0.109,
        "velocity": 0.49,
        "hand": "left"
      },
      {
        "midi": 83,
        "time": 116.957,
        "duration": 0.109,
        "velocity": 0.49,
        "hand": "right"
      },
      {
        "midi": 88,
        "time": 116.957,
        "duration": 0.109,
        "velocity": 0.49,
        "hand": "right"
      },
      {
        "midi": 35,
        "time": 117.174,
        "duration": 0.217,
        "velocity": 0.49,
        "hand": "left"
      },
      {
        "midi": 47,
        "time": 117.174,
        "duration": 0.217,
        "velocity": 0.49,
        "hand": "left"
      },
      {
        "midi": 83,
        "time": 117.174,
        "duration": 0.217,
        "velocity": 0.49,
        "hand": "right"
      },
      {
        "midi": 90,
        "time": 117.174,
        "duration": 0.217,
        "velocity": 0.49,
        "hand": "right"
      },
      {
        "midi": 45,
        "time": 117.391,
        "duration": 0.109,
        "velocity": 0.49,
        "hand": "left"
      },
      {
        "midi": 83,
        "time": 117.391,
        "duration": 0.109,
        "velocity": 0.49,
        "hand": "right"
      },
      {
        "midi": 86,
        "time": 117.391,
        "duration": 0.109,
        "velocity": 0.49,
        "hand": "right"
      },
      {
        "midi": 43,
        "time": 117.609,
        "duration": 0.109,
        "velocity": 0.49,
        "hand": "left"
      },
      {
        "midi": 83,
        "time": 117.609,
        "duration": 0.217,
        "velocity": 0.49,
        "hand": "right"
      },
      {
        "midi": 86,
        "time": 117.609,
        "duration": 0.217,
        "velocity": 0.49,
        "hand": "right"
      },
      {
        "midi": 90,
        "time": 117.609,
        "duration": 0.217,
        "velocity": 0.49,
        "hand": "right"
      },
      {
        "midi": 42,
        "time": 117.717,
        "duration": 0.109,
        "velocity": 0.49,
        "hand": "left"
      },
      {
        "midi": 35,
        "time": 117.935,
        "duration": 0.217,
        "velocity": 0.49,
        "hand": "left"
      },
      {
        "midi": 47,
        "time": 117.935,
        "duration": 0.217,
        "velocity": 0.49,
        "hand": "left"
      },
      {
        "midi": 83,
        "time": 117.935,
        "duration": 0.217,
        "velocity": 0.49,
        "hand": "right"
      },
      {
        "midi": 89,
        "time": 117.935,
        "duration": 0.217,
        "velocity": 0.49,
        "hand": "right"
      },
      {
        "midi": 45,
        "time": 118.152,
        "duration": 0.109,
        "velocity": 0.49,
        "hand": "left"
      },
      {
        "midi": 83,
        "time": 118.152,
        "duration": 0.109,
        "velocity": 0.49,
        "hand": "right"
      },
      {
        "midi": 85,
        "time": 118.152,
        "duration": 0.109,
        "velocity": 0.49,
        "hand": "right"
      },
      {
        "midi": 43,
        "time": 118.37,
        "duration": 0.109,
        "velocity": 0.49,
        "hand": "left"
      },
      {
        "midi": 83,
        "time": 118.37,
        "duration": 0.217,
        "velocity": 0.49,
        "hand": "right"
      },
      {
        "midi": 85,
        "time": 118.37,
        "duration": 0.217,
        "velocity": 0.49,
        "hand": "right"
      },
      {
        "midi": 89,
        "time": 118.37,
        "duration": 0.217,
        "velocity": 0.49,
        "hand": "right"
      },
      {
        "midi": 42,
        "time": 118.478,
        "duration": 0.109,
        "velocity": 0.49,
        "hand": "left"
      },
      {
        "midi": 35,
        "time": 118.696,
        "duration": 0.217,
        "velocity": 0.49,
        "hand": "left"
      },
      {
        "midi": 47,
        "time": 118.696,
        "duration": 0.217,
        "velocity": 0.49,
        "hand": "left"
      },
      {
        "midi": 83,
        "time": 118.696,
        "duration": 0.217,
        "velocity": 0.49,
        "hand": "right"
      },
      {
        "midi": 88,
        "time": 118.696,
        "duration": 0.217,
        "velocity": 0.49,
        "hand": "right"
      },
      {
        "midi": 45,
        "time": 118.913,
        "duration": 0.109,
        "velocity": 0.49,
        "hand": "left"
      },
      {
        "midi": 83,
        "time": 118.913,
        "duration": 0.109,
        "velocity": 0.49,
        "hand": "right"
      },
      {
        "midi": 84,
        "time": 118.913,
        "duration": 0.109,
        "velocity": 0.49,
        "hand": "right"
      },
      {
        "midi": 43,
        "time": 119.13,
        "duration": 0.109,
        "velocity": 0.49,
        "hand": "left"
      },
      {
        "midi": 83,
        "time": 119.13,
        "duration": 0.217,
        "velocity": 0.49,
        "hand": "right"
      },
      {
        "midi": 84,
        "time": 119.13,
        "duration": 0.217,
        "velocity": 0.49,
        "hand": "right"
      },
      {
        "midi": 88,
        "time": 119.13,
        "duration": 0.217,
        "velocity": 0.49,
        "hand": "right"
      },
      {
        "midi": 42,
        "time": 119.348,
        "duration": 0.109,
        "velocity": 0.49,
        "hand": "left"
      },
      {
        "midi": 35,
        "time": 119.457,
        "duration": 0.217,
        "velocity": 0.49,
        "hand": "left"
      },
      {
        "midi": 47,
        "time": 119.457,
        "duration": 0.217,
        "velocity": 0.49,
        "hand": "left"
      },
      {
        "midi": 83,
        "time": 119.457,
        "duration": 0.109,
        "velocity": 0.49,
        "hand": "right"
      },
      {
        "midi": 45,
        "time": 119.674,
        "duration": 0.109,
        "velocity": 0.49,
        "hand": "left"
      },
      {
        "midi": 83,
        "time": 119.674,
        "duration": 0.109,
        "velocity": 0.49,
        "hand": "right"
      },
      {
        "midi": 85,
        "time": 119.674,
        "duration": 0.109,
        "velocity": 0.49,
        "hand": "right"
      },
      {
        "midi": 43,
        "time": 119.891,
        "duration": 0.109,
        "velocity": 0.49,
        "hand": "left"
      },
      {
        "midi": 83,
        "time": 119.891,
        "duration": 0.109,
        "velocity": 0.49,
        "hand": "right"
      },
      {
        "midi": 86,
        "time": 119.891,
        "duration": 0.109,
        "velocity": 0.49,
        "hand": "right"
      },
      {
        "midi": 42,
        "time": 120.109,
        "duration": 0.109,
        "velocity": 0.49,
        "hand": "left"
      },
      {
        "midi": 83,
        "time": 120.109,
        "duration": 0.109,
        "velocity": 0.49,
        "hand": "right"
      },
      {
        "midi": 88,
        "time": 120.109,
        "duration": 0.109,
        "velocity": 0.49,
        "hand": "right"
      },
      {
        "midi": 35,
        "time": 120.326,
        "duration": 0.217,
        "velocity": 0.49,
        "hand": "left"
      },
      {
        "midi": 47,
        "time": 120.326,
        "duration": 0.217,
        "velocity": 0.49,
        "hand": "left"
      },
      {
        "midi": 83,
        "time": 120.326,
        "duration": 0.109,
        "velocity": 0.49,
        "hand": "right"
      },
      {
        "midi": 90,
        "time": 120.326,
        "duration": 0.109,
        "velocity": 0.49,
        "hand": "right"
      },
      {
        "midi": 45,
        "time": 120.435,
        "duration": 0.109,
        "velocity": 0.49,
        "hand": "left"
      },
      {
        "midi": 83,
        "time": 120.435,
        "duration": 0.109,
        "velocity": 0.49,
        "hand": "right"
      },
      {
        "midi": 86,
        "time": 120.435,
        "duration": 0.109,
        "velocity": 0.49,
        "hand": "right"
      },
      {
        "midi": 43,
        "time": 120.652,
        "duration": 0.109,
        "velocity": 0.49,
        "hand": "left"
      },
      {
        "midi": 83,
        "time": 120.652,
        "duration": 0.109,
        "velocity": 0.49,
        "hand": "right"
      },
      {
        "midi": 90,
        "time": 120.652,
        "duration": 0.109,
        "velocity": 0.49,
        "hand": "right"
      },
      {
        "midi": 42,
        "time": 120.87,
        "duration": 0.109,
        "velocity": 0.49,
        "hand": "left"
      },
      {
        "midi": 83,
        "time": 120.87,
        "duration": 0.109,
        "velocity": 0.49,
        "hand": "right"
      },
      {
        "midi": 95,
        "time": 120.87,
        "duration": 0.109,
        "velocity": 0.49,
        "hand": "right"
      },
      {
        "midi": 35,
        "time": 121.087,
        "duration": 0.217,
        "velocity": 0.49,
        "hand": "left"
      },
      {
        "midi": 47,
        "time": 121.087,
        "duration": 0.217,
        "velocity": 0.49,
        "hand": "left"
      },
      {
        "midi": 83,
        "time": 121.087,
        "duration": 0.109,
        "velocity": 0.49,
        "hand": "right"
      },
      {
        "midi": 90,
        "time": 121.087,
        "duration": 0.109,
        "velocity": 0.49,
        "hand": "right"
      },
      {
        "midi": 45,
        "time": 121.304,
        "duration": 0.109,
        "velocity": 0.49,
        "hand": "left"
      },
      {
        "midi": 83,
        "time": 121.304,
        "duration": 0.109,
        "velocity": 0.49,
        "hand": "right"
      },
      {
        "midi": 86,
        "time": 121.304,
        "duration": 0.109,
        "velocity": 0.49,
        "hand": "right"
      },
      {
        "midi": 43,
        "time": 121.413,
        "duration": 0.109,
        "velocity": 0.49,
        "hand": "left"
      },
      {
        "midi": 83,
        "time": 121.413,
        "duration": 0.109,
        "velocity": 0.49,
        "hand": "right"
      },
      {
        "midi": 90,
        "time": 121.413,
        "duration": 0.109,
        "velocity": 0.49,
        "hand": "right"
      },
      {
        "midi": 42,
        "time": 121.63,
        "duration": 0.109,
        "velocity": 0.49,
        "hand": "left"
      },
      {
        "midi": 83,
        "time": 121.63,
        "duration": 0.109,
        "velocity": 0.49,
        "hand": "right"
      },
      {
        "midi": 95,
        "time": 121.63,
        "duration": 0.109,
        "velocity": 0.49,
        "hand": "right"
      },
      {
        "midi": 35,
        "time": 121.848,
        "duration": 0.217,
        "velocity": 0.49,
        "hand": "left"
      },
      {
        "midi": 47,
        "time": 121.848,
        "duration": 0.217,
        "velocity": 0.49,
        "hand": "left"
      },
      {
        "midi": 83,
        "time": 121.848,
        "duration": 0.652,
        "velocity": 0.49,
        "hand": "right"
      },
      {
        "midi": 45,
        "time": 122.065,
        "duration": 0.109,
        "velocity": 0.49,
        "hand": "left"
      },
      {
        "midi": 43,
        "time": 122.283,
        "duration": 0.109,
        "velocity": 0.49,
        "hand": "left"
      },
      {
        "midi": 42,
        "time": 122.391,
        "duration": 0.109,
        "velocity": 0.49,
        "hand": "left"
      },
      {
        "midi": 35,
        "time": 122.609,
        "duration": 0.326,
        "velocity": 0.49,
        "hand": "left"
      },
      {
        "midi": 47,
        "time": 122.609,
        "duration": 0.326,
        "velocity": 0.49,
        "hand": "left"
      },
      {
        "midi": 92,
        "time": 122.935,
        "duration": 0.054,
        "velocity": 0.49,
        "hand": "right"
      },
      {
        "midi": 93,
        "time": 122.935,
        "duration": 0.054,
        "velocity": 0.49,
        "hand": "right"
      },
      {
        "midi": 94,
        "time": 122.935,
        "duration": 0.054,
        "velocity": 0.49,
        "hand": "right"
      },
      {
        "midi": 50,
        "time": 123.043,
        "duration": 0.217,
        "velocity": 0.49,
        "hand": "left"
      },
      {
        "midi": 53,
        "time": 123.043,
        "duration": 0.217,
        "velocity": 0.49,
        "hand": "left"
      },
      {
        "midi": 56,
        "time": 123.043,
        "duration": 0.217,
        "velocity": 0.49,
        "hand": "left"
      },
      {
        "midi": 59,
        "time": 123.043,
        "duration": 0.217,
        "velocity": 0.49,
        "hand": "left"
      },
      {
        "midi": 86,
        "time": 123.043,
        "duration": 0.109,
        "velocity": 0.5,
        "hand": "right"
      },
      {
        "midi": 95,
        "time": 123.043,
        "duration": 0.109,
        "velocity": 0.5,
        "hand": "right"
      },
      {
        "midi": 35,
        "time": 124.13,
        "duration": 0.326,
        "velocity": 0.49,
        "hand": "left"
      },
      {
        "midi": 47,
        "time": 124.13,
        "duration": 0.326,
        "velocity": 0.49,
        "hand": "left"
      },
      {
        "midi": 92,
        "time": 124.457,
        "duration": 0.054,
        "velocity": 0.5,
        "hand": "right"
      },
      {
        "midi": 50,
        "time": 124.565,
        "duration": 0.217,
        "velocity": 0.49,
        "hand": "left"
      },
      {
        "midi": 53,
        "time": 124.565,
        "duration": 0.217,
        "velocity": 0.49,
        "hand": "left"
      },
      {
        "midi": 56,
        "time": 124.565,
        "duration": 0.217,
        "velocity": 0.49,
        "hand": "left"
      },
      {
        "midi": 59,
        "time": 124.565,
        "duration": 0.217,
        "velocity": 0.49,
        "hand": "left"
      },
      {
        "midi": 86,
        "time": 124.565,
        "duration": 0.217,
        "velocity": 0.5,
        "hand": "right"
      },
      {
        "midi": 93,
        "time": 124.565,
        "duration": 0.054,
        "velocity": 0.5,
        "hand": "right"
      },
      {
        "midi": 94,
        "time": 124.565,
        "duration": 0.054,
        "velocity": 0.5,
        "hand": "right"
      },
      {
        "midi": 95,
        "time": 124.565,
        "duration": 0.217,
        "velocity": 0.5,
        "hand": "right"
      },
      {
        "midi": 43,
        "time": 125.761,
        "duration": 0.326,
        "velocity": 0.49,
        "hand": "left"
      },
      {
        "midi": 55,
        "time": 125.761,
        "duration": 0.326,
        "velocity": 0.49,
        "hand": "left"
      },
      {
        "midi": 71,
        "time": 125.761,
        "duration": 0.109,
        "velocity": 0.5,
        "hand": "right"
      },
      {
        "midi": 73,
        "time": 125.978,
        "duration": 0.109,
        "velocity": 0.5,
        "hand": "right"
      },
      {
        "midi": 50,
        "time": 126.087,
        "duration": 0.326,
        "velocity": 0.49,
        "hand": "left"
      },
      {
        "midi": 55,
        "time": 126.087,
        "duration": 0.326,
        "velocity": 0.49,
        "hand": "left"
      },
      {
        "midi": 59,
        "time": 126.087,
        "duration": 0.326,
        "velocity": 0.49,
        "hand": "left"
      },
      {
        "midi": 74,
        "time": 126.087,
        "duration": 0.109,
        "velocity": 0.5,
        "hand": "right"
      },
      {
        "midi": 76,
        "time": 126.304,
        "duration": 0.109,
        "velocity": 0.5,
        "hand": "right"
      },
      {
        "midi": 42,
        "time": 126.522,
        "duration": 0.326,
        "velocity": 0.49,
        "hand": "left"
      },
      {
        "midi": 54,
        "time": 126.522,
        "duration": 0.326,
        "velocity": 0.49,
        "hand": "left"
      },
      {
        "midi": 78,
        "time": 126.522,
        "duration": 0.109,
        "velocity": 0.5,
        "hand": "right"
      },
      {
        "midi": 74,
        "time": 126.739,
        "duration": 0.109,
        "velocity": 0.5,
        "hand": "right"
      },
      {
        "midi": 50,
        "time": 126.957,
        "duration": 0.326,
        "velocity": 0.49,
        "hand": "left"
      },
      {
        "midi": 54,
        "time": 126.957,
        "duration": 0.326,
        "velocity": 0.49,
        "hand": "left"
      },
      {
        "midi": 59,
        "time": 126.957,
        "duration": 0.326,
        "velocity": 0.49,
        "hand": "left"
      },
      {
        "midi": 78,
        "time": 126.957,
        "duration": 0.109,
        "velocity": 0.5,
        "hand": "right"
      },
      {
        "midi": 83,
        "time": 127.065,
        "duration": 0.109,
        "velocity": 0.5,
        "hand": "right"
      },
      {
        "midi": 30,
        "time": 127.283,
        "duration": 0.326,
        "velocity": 0.49,
        "hand": "left"
      },
      {
        "midi": 42,
        "time": 127.283,
        "duration": 0.326,
        "velocity": 0.49,
        "hand": "left"
      },
      {
        "midi": 82,
        "time": 127.283,
        "duration": 0.109,
        "velocity": 0.5,
        "hand": "right"
      },
      {
        "midi": 78,
        "time": 127.5,
        "duration": 0.109,
        "velocity": 0.5,
        "hand": "right"
      },
      {
        "midi": 49,
        "time": 127.717,
        "duration": 0.326,
        "velocity": 0.49,
        "hand": "left"
      },
      {
        "midi": 54,
        "time": 127.717,
        "duration": 0.326,
        "velocity": 0.49,
        "hand": "left"
      },
      {
        "midi": 58,
        "time": 127.717,
        "duration": 0.326,
        "velocity": 0.49,
        "hand": "left"
      },
      {
        "midi": 82,
        "time": 127.717,
        "duration": 0.109,
        "velocity": 0.5,
        "hand": "right"
      },
      {
        "midi": 85,
        "time": 127.826,
        "duration": 0.109,
        "velocity": 0.5,
        "hand": "right"
      },
      {
        "midi": 35,
        "time": 128.043,
        "duration": 0.326,
        "velocity": 0.49,
        "hand": "left"
      },
      {
        "midi": 47,
        "time": 128.043,
        "duration": 0.326,
        "velocity": 0.49,
        "hand": "left"
      },
      {
        "midi": 83,
        "time": 128.043,
        "duration": 0.652,
        "velocity": 0.5,
        "hand": "right"
      },
      {
        "midi": 50,
        "time": 128.478,
        "duration": 0.326,
        "velocity": 0.49,
        "hand": "left"
      },
      {
        "midi": 54,
        "time": 128.478,
        "duration": 0.326,
        "velocity": 0.49,
        "hand": "left"
      },
      {
        "midi": 59,
        "time": 128.478,
        "duration": 0.326,
        "velocity": 0.49,
        "hand": "left"
      },
      {
        "midi": 35,
        "time": 128.804,
        "duration": 0.326,
        "velocity": 0.49,
        "hand": "left"
      },
      {
        "midi": 47,
        "time": 128.804,
        "duration": 0.326,
        "velocity": 0.49,
        "hand": "left"
      },
      {
        "midi": 92,
        "time": 129.13,
        "duration": 0.054,
        "velocity": 0.5,
        "hand": "right"
      },
      {
        "midi": 50,
        "time": 129.239,
        "duration": 0.217,
        "velocity": 0.49,
        "hand": "left"
      },
      {
        "midi": 53,
        "time": 129.239,
        "duration": 0.217,
        "velocity": 0.49,
        "hand": "left"
      },
      {
        "midi": 56,
        "time": 129.239,
        "duration": 0.217,
        "velocity": 0.49,
        "hand": "left"
      },
      {
        "midi": 59,
        "time": 129.239,
        "duration": 0.217,
        "velocity": 0.49,
        "hand": "left"
      },
      {
        "midi": 86,
        "time": 129.239,
        "duration": 0.109,
        "velocity": 0.5,
        "hand": "right"
      },
      {
        "midi": 93,
        "time": 129.239,
        "duration": 0.054,
        "velocity": 0.5,
        "hand": "right"
      },
      {
        "midi": 94,
        "time": 129.239,
        "duration": 0.054,
        "velocity": 0.5,
        "hand": "right"
      },
      {
        "midi": 95,
        "time": 129.239,
        "duration": 0.109,
        "velocity": 0.5,
        "hand": "right"
      },
      {
        "midi": 35,
        "time": 130.435,
        "duration": 0.326,
        "velocity": 0.49,
        "hand": "left"
      },
      {
        "midi": 47,
        "time": 130.435,
        "duration": 0.326,
        "velocity": 0.49,
        "hand": "left"
      },
      {
        "midi": 50,
        "time": 130.761,
        "duration": 0.217,
        "velocity": 0.49,
        "hand": "left"
      },
      {
        "midi": 53,
        "time": 130.761,
        "duration": 0.217,
        "velocity": 0.49,
        "hand": "left"
      },
      {
        "midi": 56,
        "time": 130.761,
        "duration": 0.217,
        "velocity": 0.49,
        "hand": "left"
      },
      {
        "midi": 59,
        "time": 130.761,
        "duration": 0.217,
        "velocity": 0.49,
        "hand": "left"
      },
      {
        "midi": 86,
        "time": 130.761,
        "duration": 0.217,
        "velocity": 0.5,
        "hand": "right"
      },
      {
        "midi": 92,
        "time": 130.761,
        "duration": 0.054,
        "velocity": 0.5,
        "hand": "right"
      },
      {
        "midi": 93,
        "time": 130.761,
        "duration": 0.054,
        "velocity": 0.5,
        "hand": "right"
      },
      {
        "midi": 94,
        "time": 130.761,
        "duration": 0.054,
        "velocity": 0.5,
        "hand": "right"
      },
      {
        "midi": 95,
        "time": 130.761,
        "duration": 0.217,
        "velocity": 0.5,
        "hand": "right"
      },
      {
        "midi": 43,
        "time": 131.957,
        "duration": 0.326,
        "velocity": 0.49,
        "hand": "left"
      },
      {
        "midi": 55,
        "time": 131.957,
        "duration": 0.326,
        "velocity": 0.49,
        "hand": "left"
      },
      {
        "midi": 83,
        "time": 131.957,
        "duration": 0.109,
        "velocity": 0.5,
        "hand": "right"
      },
      {
        "midi": 85,
        "time": 132.174,
        "duration": 0.109,
        "velocity": 0.5,
        "hand": "right"
      },
      {
        "midi": 50,
        "time": 132.391,
        "duration": 0.326,
        "velocity": 0.49,
        "hand": "left"
      },
      {
        "midi": 55,
        "time": 132.391,
        "duration": 0.326,
        "velocity": 0.49,
        "hand": "left"
      },
      {
        "midi": 59,
        "time": 132.391,
        "duration": 0.326,
        "velocity": 0.49,
        "hand": "left"
      },
      {
        "midi": 86,
        "time": 132.391,
        "duration": 0.109,
        "velocity": 0.5,
        "hand": "right"
      },
      {
        "midi": 88,
        "time": 132.609,
        "duration": 0.109,
        "velocity": 0.5,
        "hand": "right"
      },
      {
        "midi": 42,
        "time": 132.717,
        "duration": 0.326,
        "velocity": 0.49,
        "hand": "left"
      },
      {
        "midi": 54,
        "time": 132.717,
        "duration": 0.326,
        "velocity": 0.49,
        "hand": "left"
      },
      {
        "midi": 90,
        "time": 132.717,
        "duration": 0.109,
        "velocity": 0.5,
        "hand": "right"
      },
      {
        "midi": 86,
        "time": 132.935,
        "duration": 0.109,
        "velocity": 0.5,
        "hand": "right"
      },
      {
        "midi": 50,
        "time": 133.152,
        "duration": 0.326,
        "velocity": 0.49,
        "hand": "left"
      },
      {
        "midi": 54,
        "time": 133.152,
        "duration": 0.326,
        "velocity": 0.49,
        "hand": "left"
      },
      {
        "midi": 59,
        "time": 133.152,
        "duration": 0.326,
        "velocity": 0.49,
        "hand": "left"
      },
      {
        "midi": 90,
        "time": 133.152,
        "duration": 0.109,
        "velocity": 0.5,
        "hand": "right"
      },
      {
        "midi": 95,
        "time": 133.37,
        "duration": 0.109,
        "velocity": 0.5,
        "hand": "right"
      },
      {
        "midi": 30,
        "time": 133.478,
        "duration": 0.326,
        "velocity": 0.49,
        "hand": "left"
      },
      {
        "midi": 42,
        "time": 133.478,
        "duration": 0.326,
        "velocity": 0.49,
        "hand": "left"
      },
      {
        "midi": 94,
        "time": 133.478,
        "duration": 0.109,
        "velocity": 0.5,
        "hand": "right"
      },
      {
        "midi": 90,
        "time": 133.696,
        "duration": 0.109,
        "velocity": 0.5,
        "hand": "right"
      },
      {
        "midi": 49,
        "time": 133.913,
        "duration": 0.326,
        "velocity": 0.49,
        "hand": "left"
      },
      {
        "midi": 54,
        "time": 133.913,
        "duration": 0.326,
        "velocity": 0.49,
        "hand": "left"
      },
      {
        "midi": 58,
        "time": 133.913,
        "duration": 0.326,
        "velocity": 0.49,
        "hand": "left"
      },
      {
        "midi": 94,
        "time": 133.913,
        "duration": 0.109,
        "velocity": 0.5,
        "hand": "right"
      },
      {
        "midi": 97,
        "time": 134.13,
        "duration": 0.109,
        "velocity": 0.5,
        "hand": "right"
      },
      {
        "midi": 35,
        "time": 134.348,
        "duration": 0.326,
        "velocity": 0.49,
        "hand": "left"
      },
      {
        "midi": 47,
        "time": 134.348,
        "duration": 0.326,
        "velocity": 0.49,
        "hand": "left"
      },
      {
        "midi": 95,
        "time": 134.348,
        "duration": 0.652,
        "velocity": 0.5,
        "hand": "right"
      },
      {
        "midi": 50,
        "time": 134.674,
        "duration": 0.326,
        "velocity": 0.49,
        "hand": "left"
      },
      {
        "midi": 54,
        "time": 134.674,
        "duration": 0.326,
        "velocity": 0.49,
        "hand": "left"
      },
      {
        "midi": 59,
        "time": 134.674,
        "duration": 0.326,
        "velocity": 0.49,
        "hand": "left"
      },
      {
        "midi": 35,
        "time": 135.109,
        "duration": 0.326,
        "velocity": 0.49,
        "hand": "left"
      },
      {
        "midi": 47,
        "time": 135.109,
        "duration": 0.326,
        "velocity": 0.49,
        "hand": "left"
      },
      {
        "midi": 50,
        "time": 135.435,
        "duration": 0.217,
        "velocity": 0.49,
        "hand": "left"
      },
      {
        "midi": 53,
        "time": 135.435,
        "duration": 0.217,
        "velocity": 0.49,
        "hand": "left"
      },
      {
        "midi": 56,
        "time": 135.435,
        "duration": 0.217,
        "velocity": 0.49,
        "hand": "left"
      },
      {
        "midi": 59,
        "time": 135.435,
        "duration": 0.217,
        "velocity": 0.49,
        "hand": "left"
      },
      {
        "midi": 86,
        "time": 135.435,
        "duration": 0.109,
        "velocity": 0.5,
        "hand": "right"
      },
      {
        "midi": 92,
        "time": 135.435,
        "duration": 0.054,
        "velocity": 0.5,
        "hand": "right"
      },
      {
        "midi": 93,
        "time": 135.435,
        "duration": 0.054,
        "velocity": 0.5,
        "hand": "right"
      },
      {
        "midi": 94,
        "time": 135.435,
        "duration": 0.054,
        "velocity": 0.5,
        "hand": "right"
      },
      {
        "midi": 95,
        "time": 135.435,
        "duration": 0.109,
        "velocity": 0.5,
        "hand": "right"
      },
      {
        "midi": 35,
        "time": 136.63,
        "duration": 0.326,
        "velocity": 0.49,
        "hand": "left"
      },
      {
        "midi": 47,
        "time": 136.63,
        "duration": 0.326,
        "velocity": 0.49,
        "hand": "left"
      },
      {
        "midi": 92,
        "time": 136.957,
        "duration": 0.054,
        "velocity": 0.5,
        "hand": "right"
      },
      {
        "midi": 93,
        "time": 136.957,
        "duration": 0.054,
        "velocity": 0.5,
        "hand": "right"
      },
      {
        "midi": 94,
        "time": 136.957,
        "duration": 0.054,
        "velocity": 0.5,
        "hand": "right"
      },
      {
        "midi": 50,
        "time": 137.065,
        "duration": 0.217,
        "velocity": 0.49,
        "hand": "left"
      },
      {
        "midi": 53,
        "time": 137.065,
        "duration": 0.217,
        "velocity": 0.49,
        "hand": "left"
      },
      {
        "midi": 56,
        "time": 137.065,
        "duration": 0.217,
        "velocity": 0.49,
        "hand": "left"
      },
      {
        "midi": 59,
        "time": 137.065,
        "duration": 0.217,
        "velocity": 0.49,
        "hand": "left"
      },
      {
        "midi": 86,
        "time": 137.065,
        "duration": 0.109,
        "velocity": 0.5,
        "hand": "right"
      },
      {
        "midi": 95,
        "time": 137.065,
        "duration": 0.109,
        "velocity": 0.5,
        "hand": "right"
      },
      {
        "midi": 35,
        "time": 138.152,
        "duration": 0.326,
        "velocity": 0.49,
        "hand": "left"
      },
      {
        "midi": 47,
        "time": 138.152,
        "duration": 0.326,
        "velocity": 0.49,
        "hand": "left"
      },
      {
        "midi": 92,
        "time": 138.478,
        "duration": 0.054,
        "velocity": 0.5,
        "hand": "right"
      },
      {
        "midi": 50,
        "time": 138.587,
        "duration": 0.217,
        "velocity": 0.49,
        "hand": "left"
      },
      {
        "midi": 53,
        "time": 138.587,
        "duration": 0.217,
        "velocity": 0.49,
        "hand": "left"
      },
      {
        "midi": 56,
        "time": 138.587,
        "duration": 0.217,
        "velocity": 0.49,
        "hand": "left"
      },
      {
        "midi": 59,
        "time": 138.587,
        "duration": 0.217,
        "velocity": 0.49,
        "hand": "left"
      },
      {
        "midi": 86,
        "time": 138.587,
        "duration": 0.326,
        "velocity": 0.49,
        "hand": "right"
      },
      {
        "midi": 93,
        "time": 138.587,
        "duration": 0.054,
        "velocity": 0.5,
        "hand": "right"
      },
      {
        "midi": 94,
        "time": 138.587,
        "duration": 0.054,
        "velocity": 0.5,
        "hand": "right"
      },
      {
        "midi": 95,
        "time": 138.587,
        "duration": 0.326,
        "velocity": 0.49,
        "hand": "right"
      },
      {
        "midi": 92,
        "time": 138.913,
        "duration": 0.054,
        "velocity": 0.49,
        "hand": "right"
      },
      {
        "midi": 93,
        "time": 138.913,
        "duration": 0.054,
        "velocity": 0.49,
        "hand": "right"
      },
      {
        "midi": 94,
        "time": 138.913,
        "duration": 0.054,
        "velocity": 0.49,
        "hand": "right"
      },
      {
        "midi": 50,
        "time": 139.022,
        "duration": 0.217,
        "velocity": 0.49,
        "hand": "left"
      },
      {
        "midi": 53,
        "time": 139.022,
        "duration": 0.217,
        "velocity": 0.49,
        "hand": "left"
      },
      {
        "midi": 56,
        "time": 139.022,
        "duration": 0.217,
        "velocity": 0.49,
        "hand": "left"
      },
      {
        "midi": 59,
        "time": 139.022,
        "duration": 0.217,
        "velocity": 0.49,
        "hand": "left"
      },
      {
        "midi": 86,
        "time": 139.022,
        "duration": 0.326,
        "velocity": 0.49,
        "hand": "right"
      },
      {
        "midi": 95,
        "time": 139.022,
        "duration": 0.326,
        "velocity": 0.49,
        "hand": "right"
      },
      {
        "midi": 50,
        "time": 139.348,
        "duration": 0.217,
        "velocity": 0.49,
        "hand": "left"
      },
      {
        "midi": 53,
        "time": 139.348,
        "duration": 0.217,
        "velocity": 0.49,
        "hand": "left"
      },
      {
        "midi": 56,
        "time": 139.348,
        "duration": 0.217,
        "velocity": 0.49,
        "hand": "left"
      },
      {
        "midi": 59,
        "time": 139.348,
        "duration": 0.217,
        "velocity": 0.49,
        "hand": "left"
      },
      {
        "midi": 86,
        "time": 139.348,
        "duration": 0.326,
        "velocity": 0.49,
        "hand": "right"
      },
      {
        "midi": 92,
        "time": 139.348,
        "duration": 0.054,
        "velocity": 0.49,
        "hand": "right"
      },
      {
        "midi": 93,
        "time": 139.348,
        "duration": 0.054,
        "velocity": 0.49,
        "hand": "right"
      },
      {
        "midi": 94,
        "time": 139.348,
        "duration": 0.054,
        "velocity": 0.49,
        "hand": "right"
      },
      {
        "midi": 95,
        "time": 139.348,
        "duration": 0.326,
        "velocity": 0.49,
        "hand": "right"
      },
      {
        "midi": 92,
        "time": 139.674,
        "duration": 0.054,
        "velocity": 0.49,
        "hand": "right"
      },
      {
        "midi": 93,
        "time": 139.674,
        "duration": 0.054,
        "velocity": 0.49,
        "hand": "right"
      },
      {
        "midi": 50,
        "time": 139.783,
        "duration": 0.217,
        "velocity": 0.49,
        "hand": "left"
      },
      {
        "midi": 53,
        "time": 139.783,
        "duration": 0.217,
        "velocity": 0.49,
        "hand": "left"
      },
      {
        "midi": 56,
        "time": 139.783,
        "duration": 0.217,
        "velocity": 0.49,
        "hand": "left"
      },
      {
        "midi": 59,
        "time": 139.783,
        "duration": 0.217,
        "velocity": 0.49,
        "hand": "left"
      },
      {
        "midi": 86,
        "time": 139.783,
        "duration": 0.326,
        "velocity": 0.49,
        "hand": "right"
      },
      {
        "midi": 94,
        "time": 139.783,
        "duration": 0.054,
        "velocity": 0.49,
        "hand": "right"
      },
      {
        "midi": 95,
        "time": 139.783,
        "duration": 0.326,
        "velocity": 0.49,
        "hand": "right"
      },
      {
        "midi": 50,
        "time": 140.109,
        "duration": 0.217,
        "velocity": 0.49,
        "hand": "left"
      },
      {
        "midi": 53,
        "time": 140.109,
        "duration": 0.217,
        "velocity": 0.49,
        "hand": "left"
      },
      {
        "midi": 56,
        "time": 140.109,
        "duration": 0.217,
        "velocity": 0.49,
        "hand": "left"
      },
      {
        "midi": 59,
        "time": 140.109,
        "duration": 0.217,
        "velocity": 0.49,
        "hand": "left"
      },
      {
        "midi": 92,
        "time": 140.109,
        "duration": 0.054,
        "velocity": 0.5,
        "hand": "right"
      },
      {
        "midi": 93,
        "time": 140.109,
        "duration": 0.054,
        "velocity": 0.51,
        "hand": "right"
      },
      {
        "midi": 94,
        "time": 140.109,
        "duration": 0.054,
        "velocity": 0.51,
        "hand": "right"
      },
      {
        "midi": 86,
        "time": 140.217,
        "duration": 0.326,
        "velocity": 0.51,
        "hand": "right"
      },
      {
        "midi": 95,
        "time": 140.217,
        "duration": 0.326,
        "velocity": 0.51,
        "hand": "right"
      },
      {
        "midi": 50,
        "time": 140.543,
        "duration": 0.217,
        "velocity": 0.49,
        "hand": "left"
      },
      {
        "midi": 53,
        "time": 140.543,
        "duration": 0.217,
        "velocity": 0.49,
        "hand": "left"
      },
      {
        "midi": 56,
        "time": 140.543,
        "duration": 0.217,
        "velocity": 0.49,
        "hand": "left"
      },
      {
        "midi": 59,
        "time": 140.543,
        "duration": 0.217,
        "velocity": 0.49,
        "hand": "left"
      },
      {
        "midi": 86,
        "time": 140.543,
        "duration": 0.326,
        "velocity": 0.54,
        "hand": "right"
      },
      {
        "midi": 92,
        "time": 140.543,
        "duration": 0.054,
        "velocity": 0.54,
        "hand": "right"
      },
      {
        "midi": 93,
        "time": 140.543,
        "duration": 0.054,
        "velocity": 0.54,
        "hand": "right"
      },
      {
        "midi": 94,
        "time": 140.543,
        "duration": 0.054,
        "velocity": 0.54,
        "hand": "right"
      },
      {
        "midi": 95,
        "time": 140.543,
        "duration": 0.326,
        "velocity": 0.54,
        "hand": "right"
      },
      {
        "midi": 92,
        "time": 140.87,
        "duration": 0.054,
        "velocity": 0.56,
        "hand": "right"
      },
      {
        "midi": 50,
        "time": 140.978,
        "duration": 0.217,
        "velocity": 0.49,
        "hand": "left"
      },
      {
        "midi": 53,
        "time": 140.978,
        "duration": 0.217,
        "velocity": 0.49,
        "hand": "left"
      },
      {
        "midi": 56,
        "time": 140.978,
        "duration": 0.217,
        "velocity": 0.49,
        "hand": "left"
      },
      {
        "midi": 59,
        "time": 140.978,
        "duration": 0.217,
        "velocity": 0.49,
        "hand": "left"
      },
      {
        "midi": 86,
        "time": 140.978,
        "duration": 0.326,
        "velocity": 0.57,
        "hand": "right"
      },
      {
        "midi": 93,
        "time": 140.978,
        "duration": 0.054,
        "velocity": 0.56,
        "hand": "right"
      },
      {
        "midi": 94,
        "time": 140.978,
        "duration": 0.054,
        "velocity": 0.56,
        "hand": "right"
      },
      {
        "midi": 95,
        "time": 140.978,
        "duration": 0.326,
        "velocity": 0.57,
        "hand": "right"
      },
      {
        "midi": 35,
        "time": 142.065,
        "duration": 0.109,
        "velocity": 0.49,
        "hand": "left"
      },
      {
        "midi": 47,
        "time": 142.174,
        "duration": 0.109,
        "velocity": 0.49,
        "hand": "left"
      },
      {
        "midi": 35,
        "time": 142.283,
        "duration": 0.109,
        "velocity": 0.49,
        "hand": "left"
      },
      {
        "midi": 47,
        "time": 142.391,
        "duration": 0.109,
        "velocity": 0.49,
        "hand": "left"
      },
      {
        "midi": 35,
        "time": 142.5,
        "duration": 0.109,
        "velocity": 0.49,
        "hand": "left"
      },
      {
        "midi": 47,
        "time": 142.609,
        "duration": 0.109,
        "velocity": 0.49,
        "hand": "left"
      },
      {
        "midi": 35,
        "time": 142.717,
        "duration": 0.109,
        "velocity": 0.49,
        "hand": "left"
      },
      {
        "midi": 35,
        "time": 142.826,
        "duration": 0.109,
        "velocity": 0.49,
        "hand": "left"
      },
      {
        "midi": 47,
        "time": 142.826,
        "duration": 0.109,
        "velocity": 0.49,
        "hand": "left"
      },
      {
        "midi": 47,
        "time": 142.935,
        "duration": 0.109,
        "velocity": 0.49,
        "hand": "left"
      },
      {
        "midi": 35,
        "time": 143.043,
        "duration": 0.109,
        "velocity": 0.49,
        "hand": "left"
      },
      {
        "midi": 47,
        "time": 143.152,
        "duration": 0.109,
        "velocity": 0.49,
        "hand": "left"
      },
      {
        "midi": 35,
        "time": 143.261,
        "duration": 0.109,
        "velocity": 0.49,
        "hand": "left"
      },
      {
        "midi": 47,
        "time": 143.37,
        "duration": 0.109,
        "velocity": 0.49,
        "hand": "left"
      },
      {
        "midi": 35,
        "time": 143.478,
        "duration": 0.109,
        "velocity": 0.49,
        "hand": "left"
      },
      {
        "midi": 47,
        "time": 143.587,
        "duration": 0.109,
        "velocity": 0.56,
        "hand": "left"
      },
      {
        "midi": 35,
        "time": 143.696,
        "duration": 0.109,
        "velocity": 0.64,
        "hand": "left"
      },
      {
        "midi": 35,
        "time": 143.804,
        "duration": 0.109,
        "velocity": 0.71,
        "hand": "left"
      },
      {
        "midi": 47,
        "time": 143.804,
        "duration": 0.109,
        "velocity": 0.71,
        "hand": "left"
      },
      {
        "midi": 47,
        "time": 143.913,
        "duration": 0.109,
        "velocity": 0.71,
        "hand": "left"
      },
      {
        "midi": 35,
        "time": 144.022,
        "duration": 0.109,
        "velocity": 0.71,
        "hand": "left"
      },
      {
        "midi": 47,
        "time": 144.13,
        "duration": 0.109,
        "velocity": 0.71,
        "hand": "left"
      },
      {
        "midi": 35,
        "time": 144.239,
        "duration": 0.109,
        "velocity": 0.71,
        "hand": "left"
      },
      {
        "midi": 47,
        "time": 144.348,
        "duration": 0.109,
        "velocity": 0.71,
        "hand": "left"
      },
      {
        "midi": 23,
        "time": 144.457,
        "duration": 0.326,
        "velocity": 0.8,
        "hand": "left"
      },
      {
        "midi": 35,
        "time": 144.457,
        "duration": 0.326,
        "velocity": 0.8,
        "hand": "left"
      },
      {
        "midi": 47,
        "time": 144.783,
        "duration": 0.217,
        "velocity": 0.8,
        "hand": "left"
      },
      {
        "midi": 50,
        "time": 144.783,
        "duration": 0.217,
        "velocity": 0.8,
        "hand": "left"
      },
      {
        "midi": 54,
        "time": 144.783,
        "duration": 0.217,
        "velocity": 0.8,
        "hand": "left"
      },
      {
        "midi": 59,
        "time": 144.783,
        "duration": 0.217,
        "velocity": 0.8,
        "hand": "left"
      },
      {
        "midi": 92,
        "time": 144.783,
        "duration": 0.054,
        "velocity": 0.8,
        "hand": "right"
      },
      {
        "midi": 86,
        "time": 144.891,
        "duration": 0.326,
        "velocity": 0.8,
        "hand": "right"
      },
      {
        "midi": 93,
        "time": 144.891,
        "duration": 0.054,
        "velocity": 0.8,
        "hand": "right"
      },
      {
        "midi": 94,
        "time": 144.891,
        "duration": 0.054,
        "velocity": 0.8,
        "hand": "right"
      },
      {
        "midi": 95,
        "time": 144.891,
        "duration": 0.326,
        "velocity": 0.8,
        "hand": "right"
      }
    ]
  },
  "notes1Hand": [
    {
      "midi": 66,
      "time": 0,
      "duration": 1.522,
      "velocity": 0.54,
      "hand": "right"
    },
    {
      "midi": 62,
      "time": 24.783,
      "duration": 0.29,
      "velocity": 0.49,
      "hand": "right"
    },
    {
      "midi": 62,
      "time": 28.261,
      "duration": 0.29,
      "velocity": 0.49,
      "hand": "right"
    },
    {
      "midi": 66,
      "time": 44.783,
      "duration": 0.29,
      "velocity": 0.49,
      "hand": "right"
    },
    {
      "midi": 65,
      "time": 45.652,
      "duration": 0.29,
      "velocity": 0.49,
      "hand": "right"
    },
    {
      "midi": 64,
      "time": 46.522,
      "duration": 0.29,
      "velocity": 0.49,
      "hand": "right"
    },
    {
      "midi": 69,
      "time": 49.565,
      "duration": 0.761,
      "velocity": 0.49,
      "hand": "right"
    },
    {
      "midi": 62,
      "time": 50,
      "duration": 0.326,
      "velocity": 0.71,
      "hand": "right"
    },
    {
      "midi": 66,
      "time": 50.87,
      "duration": 0.326,
      "velocity": 0.71,
      "hand": "right"
    },
    {
      "midi": 78,
      "time": 51.739,
      "duration": 0.29,
      "velocity": 0.71,
      "hand": "right"
    },
    {
      "midi": 77,
      "time": 52.609,
      "duration": 0.29,
      "velocity": 0.71,
      "hand": "right"
    },
    {
      "midi": 76,
      "time": 53.478,
      "duration": 0.29,
      "velocity": 0.71,
      "hand": "right"
    },
    {
      "midi": 66,
      "time": 54.348,
      "duration": 0.326,
      "velocity": 0.71,
      "hand": "right"
    },
    {
      "midi": 69,
      "time": 56.087,
      "duration": 0.326,
      "velocity": 0.71,
      "hand": "right"
    },
    {
      "midi": 81,
      "time": 56.522,
      "duration": 0.761,
      "velocity": 0.49,
      "hand": "right"
    },
    {
      "midi": 74,
      "time": 56.957,
      "duration": 0.326,
      "velocity": 0.71,
      "hand": "right"
    },
    {
      "midi": 66,
      "time": 57.826,
      "duration": 0.326,
      "velocity": 0.71,
      "hand": "right"
    },
    {
      "midi": 73,
      "time": 58.696,
      "duration": 0.326,
      "velocity": 0.51,
      "hand": "right"
    },
    {
      "midi": 74,
      "time": 59.565,
      "duration": 0.326,
      "velocity": 0.53,
      "hand": "right"
    },
    {
      "midi": 73,
      "time": 60.435,
      "duration": 0.326,
      "velocity": 0.54,
      "hand": "right"
    },
    {
      "midi": 66,
      "time": 61.304,
      "duration": 0.326,
      "velocity": 0.71,
      "hand": "right"
    },
    {
      "midi": 73,
      "time": 62.174,
      "duration": 0.326,
      "velocity": 0.56,
      "hand": "right"
    },
    {
      "midi": 74,
      "time": 63.043,
      "duration": 0.326,
      "velocity": 0.57,
      "hand": "right"
    },
    {
      "midi": 73,
      "time": 63.478,
      "duration": 0.761,
      "velocity": 0.57,
      "hand": "right"
    },
    {
      "midi": 70,
      "time": 63.913,
      "duration": 0.326,
      "velocity": 0.71,
      "hand": "right"
    },
    {
      "midi": 85,
      "time": 65.652,
      "duration": 0.29,
      "velocity": 0.61,
      "hand": "right"
    },
    {
      "midi": 86,
      "time": 66.522,
      "duration": 0.29,
      "velocity": 0.61,
      "hand": "right"
    },
    {
      "midi": 85,
      "time": 67.391,
      "duration": 0.29,
      "velocity": 0.62,
      "hand": "right"
    },
    {
      "midi": 85,
      "time": 69.13,
      "duration": 0.29,
      "velocity": 0.65,
      "hand": "right"
    },
    {
      "midi": 86,
      "time": 70,
      "duration": 0.29,
      "velocity": 0.66,
      "hand": "right"
    },
    {
      "midi": 85,
      "time": 70.435,
      "duration": 0.761,
      "velocity": 0.66,
      "hand": "right"
    },
    {
      "midi": 82,
      "time": 70.87,
      "duration": 0.326,
      "velocity": 0.71,
      "hand": "right"
    },
    {
      "midi": 66,
      "time": 72.609,
      "duration": 0.29,
      "velocity": 0.69,
      "hand": "right"
    },
    {
      "midi": 65,
      "time": 73.478,
      "duration": 0.29,
      "velocity": 0.69,
      "hand": "right"
    },
    {
      "midi": 65,
      "time": 74.348,
      "duration": 0.29,
      "velocity": 0.7,
      "hand": "right"
    },
    {
      "midi": 69,
      "time": 77.391,
      "duration": 0.761,
      "velocity": 0.72,
      "hand": "right"
    },
    {
      "midi": 64,
      "time": 77.826,
      "duration": 0.326,
      "velocity": 0.71,
      "hand": "right"
    },
    {
      "midi": 66,
      "time": 78.696,
      "duration": 0.326,
      "velocity": 0.71,
      "hand": "right"
    },
    {
      "midi": 78,
      "time": 79.565,
      "duration": 0.326,
      "velocity": 0.75,
      "hand": "right"
    },
    {
      "midi": 77,
      "time": 80.435,
      "duration": 0.29,
      "velocity": 0.76,
      "hand": "right"
    },
    {
      "midi": 76,
      "time": 81.304,
      "duration": 0.326,
      "velocity": 0.76,
      "hand": "right"
    },
    {
      "midi": 74,
      "time": 83.043,
      "duration": 0.326,
      "velocity": 0.71,
      "hand": "right"
    },
    {
      "midi": 74,
      "time": 83.913,
      "duration": 0.326,
      "velocity": 0.71,
      "hand": "right"
    },
    {
      "midi": 71,
      "time": 84.348,
      "duration": 0.761,
      "velocity": 0.79,
      "hand": "right"
    },
    {
      "midi": 83,
      "time": 85.217,
      "duration": 0.652,
      "velocity": 0.8,
      "hand": "right"
    },
    {
      "midi": 90,
      "time": 85.978,
      "duration": 0.29,
      "velocity": 0.8,
      "hand": "right"
    },
    {
      "midi": 90,
      "time": 86.413,
      "duration": 0.29,
      "velocity": 0.8,
      "hand": "right"
    },
    {
      "midi": 89,
      "time": 87.174,
      "duration": 0.29,
      "velocity": 0.8,
      "hand": "right"
    },
    {
      "midi": 83,
      "time": 87.609,
      "duration": 0.652,
      "velocity": 0.71,
      "hand": "right"
    },
    {
      "midi": 83,
      "time": 88.37,
      "duration": 0.652,
      "velocity": 0.8,
      "hand": "right"
    },
    {
      "midi": 83,
      "time": 89.13,
      "duration": 0.652,
      "velocity": 0.71,
      "hand": "right"
    },
    {
      "midi": 86,
      "time": 89.891,
      "duration": 0.435,
      "velocity": 0.71,
      "hand": "right"
    },
    {
      "midi": 86,
      "time": 90.326,
      "duration": 0.326,
      "velocity": 0.8,
      "hand": "right"
    },
    {
      "midi": 83,
      "time": 91.413,
      "duration": 0.652,
      "velocity": 0.8,
      "hand": "right"
    },
    {
      "midi": 90,
      "time": 92.283,
      "duration": 0.29,
      "velocity": 0.8,
      "hand": "right"
    },
    {
      "midi": 89,
      "time": 93.043,
      "duration": 0.29,
      "velocity": 0.8,
      "hand": "right"
    },
    {
      "midi": 88,
      "time": 93.804,
      "duration": 0.29,
      "velocity": 0.8,
      "hand": "right"
    },
    {
      "midi": 83,
      "time": 94.565,
      "duration": 0.652,
      "velocity": 0.8,
      "hand": "right"
    },
    {
      "midi": 83,
      "time": 95.326,
      "duration": 0.652,
      "velocity": 0.71,
      "hand": "right"
    },
    {
      "midi": 86,
      "time": 96.087,
      "duration": 0.435,
      "velocity": 0.71,
      "hand": "right"
    },
    {
      "midi": 86,
      "time": 96.522,
      "duration": 0.326,
      "velocity": 0.8,
      "hand": "right"
    },
    {
      "midi": 93,
      "time": 96.957,
      "duration": 0.652,
      "velocity": 0.8,
      "hand": "right"
    },
    {
      "midi": 90,
      "time": 97.717,
      "duration": 0.652,
      "velocity": 0.8,
      "hand": "right"
    },
    {
      "midi": 97,
      "time": 98.478,
      "duration": 0.29,
      "velocity": 0.8,
      "hand": "right"
    },
    {
      "midi": 98,
      "time": 99.239,
      "duration": 0.29,
      "velocity": 0.49,
      "hand": "right"
    },
    {
      "midi": 98,
      "time": 99.674,
      "duration": 0.326,
      "velocity": 0.49,
      "hand": "right"
    },
    {
      "midi": 97,
      "time": 100.435,
      "duration": 0.326,
      "velocity": 0.49,
      "hand": "right"
    },
    {
      "midi": 97,
      "time": 101.63,
      "duration": 0.29,
      "velocity": 0.49,
      "hand": "right"
    },
    {
      "midi": 98,
      "time": 102.391,
      "duration": 0.29,
      "velocity": 0.49,
      "hand": "right"
    },
    {
      "midi": 97,
      "time": 103.152,
      "duration": 0.652,
      "velocity": 0.49,
      "hand": "right"
    },
    {
      "midi": 90,
      "time": 103.913,
      "duration": 0.652,
      "velocity": 0.71,
      "hand": "right"
    },
    {
      "midi": 97,
      "time": 104.674,
      "duration": 0.29,
      "velocity": 0.8,
      "hand": "right"
    },
    {
      "midi": 97,
      "time": 105.109,
      "duration": 0.326,
      "velocity": 0.8,
      "hand": "right"
    },
    {
      "midi": 99,
      "time": 105.87,
      "duration": 0.326,
      "velocity": 0.49,
      "hand": "right"
    },
    {
      "midi": 97,
      "time": 106.63,
      "duration": 0.326,
      "velocity": 0.49,
      "hand": "right"
    },
    {
      "midi": 97,
      "time": 107.826,
      "duration": 0.29,
      "velocity": 0.49,
      "hand": "right"
    },
    {
      "midi": 98,
      "time": 108.587,
      "duration": 0.29,
      "velocity": 0.49,
      "hand": "right"
    },
    {
      "midi": 98,
      "time": 109.022,
      "duration": 0.326,
      "velocity": 0.49,
      "hand": "right"
    },
    {
      "midi": 83,
      "time": 110.109,
      "duration": 0.652,
      "velocity": 0.8,
      "hand": "right"
    },
    {
      "midi": 90,
      "time": 110.978,
      "duration": 0.29,
      "velocity": 0.8,
      "hand": "right"
    },
    {
      "midi": 89,
      "time": 111.739,
      "duration": 0.29,
      "velocity": 0.8,
      "hand": "right"
    },
    {
      "midi": 88,
      "time": 112.5,
      "duration": 0.29,
      "velocity": 0.8,
      "hand": "right"
    },
    {
      "midi": 83,
      "time": 113.261,
      "duration": 0.652,
      "velocity": 0.8,
      "hand": "right"
    },
    {
      "midi": 83,
      "time": 114.022,
      "duration": 0.29,
      "velocity": 0.71,
      "hand": "right"
    },
    {
      "midi": 86,
      "time": 114.783,
      "duration": 0.435,
      "velocity": 0.71,
      "hand": "right"
    },
    {
      "midi": 93,
      "time": 115.652,
      "duration": 0.652,
      "velocity": 0.8,
      "hand": "right"
    },
    {
      "midi": 90,
      "time": 117.174,
      "duration": 0.29,
      "velocity": 0.49,
      "hand": "right"
    },
    {
      "midi": 90,
      "time": 117.609,
      "duration": 0.29,
      "velocity": 0.49,
      "hand": "right"
    },
    {
      "midi": 89,
      "time": 118.37,
      "duration": 0.29,
      "velocity": 0.49,
      "hand": "right"
    },
    {
      "midi": 88,
      "time": 119.13,
      "duration": 0.29,
      "velocity": 0.49,
      "hand": "right"
    },
    {
      "midi": 83,
      "time": 121.848,
      "duration": 0.652,
      "velocity": 0.49,
      "hand": "right"
    },
    {
      "midi": 95,
      "time": 124.565,
      "duration": 0.29,
      "velocity": 0.5,
      "hand": "right"
    },
    {
      "midi": 83,
      "time": 128.043,
      "duration": 0.652,
      "velocity": 0.5,
      "hand": "right"
    },
    {
      "midi": 95,
      "time": 130.761,
      "duration": 0.29,
      "velocity": 0.5,
      "hand": "right"
    },
    {
      "midi": 95,
      "time": 134.348,
      "duration": 0.652,
      "velocity": 0.5,
      "hand": "right"
    },
    {
      "midi": 95,
      "time": 138.587,
      "duration": 0.326,
      "velocity": 0.49,
      "hand": "right"
    },
    {
      "midi": 95,
      "time": 139.022,
      "duration": 0.326,
      "velocity": 0.49,
      "hand": "right"
    },
    {
      "midi": 95,
      "time": 139.783,
      "duration": 0.326,
      "velocity": 0.49,
      "hand": "right"
    },
    {
      "midi": 95,
      "time": 140.543,
      "duration": 0.326,
      "velocity": 0.54,
      "hand": "right"
    },
    {
      "midi": 95,
      "time": 140.978,
      "duration": 0.326,
      "velocity": 0.57,
      "hand": "right"
    },
    {
      "midi": 95,
      "time": 144.891,
      "duration": 0.326,
      "velocity": 0.8,
      "hand": "right"
    }
  ],
  "notes2Hands": [
    {
      "midi": 54,
      "time": 0,
      "duration": 1.522,
      "velocity": 0.54,
      "hand": "right"
    },
    {
      "midi": 66,
      "time": 0,
      "duration": 1.522,
      "velocity": 0.54,
      "hand": "right"
    },
    {
      "midi": 23,
      "time": 1.739,
      "duration": 0.217,
      "velocity": 0.49,
      "hand": "left"
    },
    {
      "midi": 35,
      "time": 1.739,
      "duration": 0.109,
      "velocity": 0.49,
      "hand": "right"
    },
    {
      "midi": 37,
      "time": 1.957,
      "duration": 0.109,
      "velocity": 0.49,
      "hand": "right"
    },
    {
      "midi": 30,
      "time": 2.174,
      "duration": 0.217,
      "velocity": 0.49,
      "hand": "left"
    },
    {
      "midi": 38,
      "time": 2.174,
      "duration": 0.109,
      "velocity": 0.49,
      "hand": "right"
    },
    {
      "midi": 40,
      "time": 2.391,
      "duration": 0.109,
      "velocity": 0.49,
      "hand": "right"
    },
    {
      "midi": 23,
      "time": 2.609,
      "duration": 0.217,
      "velocity": 0.49,
      "hand": "left"
    },
    {
      "midi": 42,
      "time": 2.609,
      "duration": 0.109,
      "velocity": 0.49,
      "hand": "right"
    },
    {
      "midi": 38,
      "time": 2.826,
      "duration": 0.109,
      "velocity": 0.49,
      "hand": "right"
    },
    {
      "midi": 30,
      "time": 3.043,
      "duration": 0.217,
      "velocity": 0.49,
      "hand": "left"
    },
    {
      "midi": 42,
      "time": 3.043,
      "duration": 0.217,
      "velocity": 0.49,
      "hand": "right"
    },
    {
      "midi": 23,
      "time": 3.478,
      "duration": 0.217,
      "velocity": 0.49,
      "hand": "left"
    },
    {
      "midi": 41,
      "time": 3.478,
      "duration": 0.109,
      "velocity": 0.49,
      "hand": "right"
    },
    {
      "midi": 37,
      "time": 3.696,
      "duration": 0.109,
      "velocity": 0.49,
      "hand": "right"
    },
    {
      "midi": 30,
      "time": 3.913,
      "duration": 0.217,
      "velocity": 0.49,
      "hand": "left"
    },
    {
      "midi": 41,
      "time": 3.913,
      "duration": 0.217,
      "velocity": 0.49,
      "hand": "right"
    },
    {
      "midi": 23,
      "time": 4.348,
      "duration": 0.217,
      "velocity": 0.49,
      "hand": "left"
    },
    {
      "midi": 40,
      "time": 4.348,
      "duration": 0.109,
      "velocity": 0.49,
      "hand": "right"
    },
    {
      "midi": 36,
      "time": 4.565,
      "duration": 0.109,
      "velocity": 0.49,
      "hand": "right"
    },
    {
      "midi": 30,
      "time": 4.783,
      "duration": 0.217,
      "velocity": 0.49,
      "hand": "left"
    },
    {
      "midi": 40,
      "time": 4.783,
      "duration": 0.217,
      "velocity": 0.49,
      "hand": "right"
    },
    {
      "midi": 23,
      "time": 5.217,
      "duration": 0.217,
      "velocity": 0.49,
      "hand": "left"
    },
    {
      "midi": 35,
      "time": 5.217,
      "duration": 0.109,
      "velocity": 0.49,
      "hand": "right"
    },
    {
      "midi": 37,
      "time": 5.435,
      "duration": 0.109,
      "velocity": 0.49,
      "hand": "right"
    },
    {
      "midi": 30,
      "time": 5.652,
      "duration": 0.217,
      "velocity": 0.49,
      "hand": "left"
    },
    {
      "midi": 38,
      "time": 5.652,
      "duration": 0.109,
      "velocity": 0.49,
      "hand": "right"
    },
    {
      "midi": 40,
      "time": 5.87,
      "duration": 0.109,
      "velocity": 0.49,
      "hand": "right"
    },
    {
      "midi": 23,
      "time": 6.087,
      "duration": 0.217,
      "velocity": 0.49,
      "hand": "left"
    },
    {
      "midi": 42,
      "time": 6.087,
      "duration": 0.109,
      "velocity": 0.49,
      "hand": "right"
    },
    {
      "midi": 38,
      "time": 6.304,
      "duration": 0.109,
      "velocity": 0.49,
      "hand": "right"
    },
    {
      "midi": 30,
      "time": 6.522,
      "duration": 0.217,
      "velocity": 0.49,
      "hand": "left"
    },
    {
      "midi": 42,
      "time": 6.522,
      "duration": 0.109,
      "velocity": 0.49,
      "hand": "right"
    },
    {
      "midi": 47,
      "time": 6.739,
      "duration": 0.109,
      "velocity": 0.49,
      "hand": "right"
    },
    {
      "midi": 26,
      "time": 6.957,
      "duration": 0.217,
      "velocity": 0.49,
      "hand": "left"
    },
    {
      "midi": 45,
      "time": 6.957,
      "duration": 0.109,
      "velocity": 0.49,
      "hand": "right"
    },
    {
      "midi": 42,
      "time": 7.174,
      "duration": 0.109,
      "velocity": 0.49,
      "hand": "right"
    },
    {
      "midi": 33,
      "time": 7.391,
      "duration": 0.217,
      "velocity": 0.49,
      "hand": "left"
    },
    {
      "midi": 38,
      "time": 7.391,
      "duration": 0.109,
      "velocity": 0.49,
      "hand": "right"
    },
    {
      "midi": 42,
      "time": 7.609,
      "duration": 0.109,
      "velocity": 0.49,
      "hand": "right"
    },
    {
      "midi": 26,
      "time": 7.826,
      "duration": 0.217,
      "velocity": 0.49,
      "hand": "left"
    },
    {
      "midi": 45,
      "time": 7.826,
      "duration": 0.761,
      "velocity": 0.49,
      "hand": "right"
    },
    {
      "midi": 33,
      "time": 8.261,
      "duration": 0.217,
      "velocity": 0.49,
      "hand": "left"
    },
    {
      "midi": 23,
      "time": 8.696,
      "duration": 0.217,
      "velocity": 0.49,
      "hand": "left"
    },
    {
      "midi": 47,
      "time": 8.696,
      "duration": 0.109,
      "velocity": 0.49,
      "hand": "right"
    },
    {
      "midi": 49,
      "time": 8.913,
      "duration": 0.109,
      "velocity": 0.49,
      "hand": "right"
    },
    {
      "midi": 30,
      "time": 9.13,
      "duration": 0.217,
      "velocity": 0.49,
      "hand": "left"
    },
    {
      "midi": 50,
      "time": 9.13,
      "duration": 0.109,
      "velocity": 0.49,
      "hand": "right"
    },
    {
      "midi": 52,
      "time": 9.348,
      "duration": 0.109,
      "velocity": 0.49,
      "hand": "right"
    },
    {
      "midi": 23,
      "time": 9.565,
      "duration": 0.217,
      "velocity": 0.49,
      "hand": "left"
    },
    {
      "midi": 54,
      "time": 9.565,
      "duration": 0.109,
      "velocity": 0.49,
      "hand": "right"
    },
    {
      "midi": 50,
      "time": 9.783,
      "duration": 0.109,
      "velocity": 0.49,
      "hand": "right"
    },
    {
      "midi": 30,
      "time": 10,
      "duration": 0.217,
      "velocity": 0.49,
      "hand": "left"
    },
    {
      "midi": 54,
      "time": 10,
      "duration": 0.217,
      "velocity": 0.49,
      "hand": "right"
    },
    {
      "midi": 23,
      "time": 10.435,
      "duration": 0.217,
      "velocity": 0.49,
      "hand": "left"
    },
    {
      "midi": 53,
      "time": 10.435,
      "duration": 0.109,
      "velocity": 0.49,
      "hand": "right"
    },
    {
      "midi": 49,
      "time": 10.652,
      "duration": 0.109,
      "velocity": 0.49,
      "hand": "right"
    },
    {
      "midi": 30,
      "time": 10.87,
      "duration": 0.217,
      "velocity": 0.49,
      "hand": "left"
    },
    {
      "midi": 53,
      "time": 10.87,
      "duration": 0.217,
      "velocity": 0.49,
      "hand": "right"
    },
    {
      "midi": 23,
      "time": 11.304,
      "duration": 0.217,
      "velocity": 0.49,
      "hand": "left"
    },
    {
      "midi": 52,
      "time": 11.304,
      "duration": 0.109,
      "velocity": 0.49,
      "hand": "right"
    },
    {
      "midi": 48,
      "time": 11.522,
      "duration": 0.109,
      "velocity": 0.49,
      "hand": "right"
    },
    {
      "midi": 30,
      "time": 11.739,
      "duration": 0.217,
      "velocity": 0.49,
      "hand": "left"
    },
    {
      "midi": 52,
      "time": 11.739,
      "duration": 0.217,
      "velocity": 0.49,
      "hand": "right"
    },
    {
      "midi": 23,
      "time": 12.174,
      "duration": 0.217,
      "velocity": 0.49,
      "hand": "left"
    },
    {
      "midi": 47,
      "time": 12.174,
      "duration": 0.109,
      "velocity": 0.49,
      "hand": "right"
    },
    {
      "midi": 49,
      "time": 12.391,
      "duration": 0.109,
      "velocity": 0.49,
      "hand": "right"
    },
    {
      "midi": 30,
      "time": 12.609,
      "duration": 0.217,
      "velocity": 0.49,
      "hand": "left"
    },
    {
      "midi": 50,
      "time": 12.609,
      "duration": 0.109,
      "velocity": 0.49,
      "hand": "right"
    },
    {
      "midi": 52,
      "time": 12.826,
      "duration": 0.109,
      "velocity": 0.49,
      "hand": "right"
    },
    {
      "midi": 23,
      "time": 13.043,
      "duration": 0.217,
      "velocity": 0.49,
      "hand": "left"
    },
    {
      "midi": 54,
      "time": 13.043,
      "duration": 0.109,
      "velocity": 0.49,
      "hand": "right"
    },
    {
      "midi": 50,
      "time": 13.261,
      "duration": 0.109,
      "velocity": 0.49,
      "hand": "right"
    },
    {
      "midi": 30,
      "time": 13.478,
      "duration": 0.217,
      "velocity": 0.49,
      "hand": "left"
    },
    {
      "midi": 54,
      "time": 13.478,
      "duration": 0.109,
      "velocity": 0.49,
      "hand": "right"
    },
    {
      "midi": 59,
      "time": 13.696,
      "duration": 0.109,
      "velocity": 0.49,
      "hand": "right"
    },
    {
      "midi": 26,
      "time": 13.913,
      "duration": 0.217,
      "velocity": 0.49,
      "hand": "left"
    },
    {
      "midi": 57,
      "time": 13.913,
      "duration": 0.109,
      "velocity": 0.49,
      "hand": "right"
    },
    {
      "midi": 54,
      "time": 14.13,
      "duration": 0.109,
      "velocity": 0.49,
      "hand": "right"
    },
    {
      "midi": 33,
      "time": 14.348,
      "duration": 0.217,
      "velocity": 0.49,
      "hand": "left"
    },
    {
      "midi": 50,
      "time": 14.348,
      "duration": 0.109,
      "velocity": 0.49,
      "hand": "right"
    },
    {
      "midi": 54,
      "time": 14.565,
      "duration": 0.109,
      "velocity": 0.49,
      "hand": "right"
    },
    {
      "midi": 26,
      "time": 14.783,
      "duration": 0.217,
      "velocity": 0.49,
      "hand": "left"
    },
    {
      "midi": 45,
      "time": 14.783,
      "duration": 0.761,
      "velocity": 0.49,
      "hand": "right"
    },
    {
      "midi": 57,
      "time": 14.783,
      "duration": 0.761,
      "velocity": 0.49,
      "hand": "right"
    },
    {
      "midi": 33,
      "time": 15.217,
      "duration": 0.217,
      "velocity": 0.49,
      "hand": "left"
    },
    {
      "midi": 30,
      "time": 15.652,
      "duration": 0.326,
      "velocity": 0.49,
      "hand": "left"
    },
    {
      "midi": 42,
      "time": 15.652,
      "duration": 0.109,
      "velocity": 0.49,
      "hand": "right"
    },
    {
      "midi": 44,
      "time": 15.87,
      "duration": 0.109,
      "velocity": 0.49,
      "hand": "right"
    },
    {
      "midi": 37,
      "time": 16.087,
      "duration": 0.326,
      "velocity": 0.49,
      "hand": "left"
    },
    {
      "midi": 46,
      "time": 16.087,
      "duration": 0.109,
      "velocity": 0.49,
      "hand": "right"
    },
    {
      "midi": 47,
      "time": 16.304,
      "duration": 0.109,
      "velocity": 0.49,
      "hand": "right"
    },
    {
      "midi": 30,
      "time": 16.522,
      "duration": 0.326,
      "velocity": 0.49,
      "hand": "left"
    },
    {
      "midi": 49,
      "time": 16.522,
      "duration": 0.109,
      "velocity": 0.49,
      "hand": "right"
    },
    {
      "midi": 46,
      "time": 16.739,
      "duration": 0.109,
      "velocity": 0.49,
      "hand": "right"
    },
    {
      "midi": 37,
      "time": 16.957,
      "duration": 0.326,
      "velocity": 0.49,
      "hand": "left"
    },
    {
      "midi": 49,
      "time": 16.957,
      "duration": 0.217,
      "velocity": 0.49,
      "hand": "right"
    },
    {
      "midi": 26,
      "time": 17.391,
      "duration": 0.326,
      "velocity": 0.49,
      "hand": "left"
    },
    {
      "midi": 50,
      "time": 17.391,
      "duration": 0.109,
      "velocity": 0.49,
      "hand": "right"
    },
    {
      "midi": 46,
      "time": 17.609,
      "duration": 0.109,
      "velocity": 0.49,
      "hand": "right"
    },
    {
      "midi": 34,
      "time": 17.826,
      "duration": 0.326,
      "velocity": 0.49,
      "hand": "left"
    },
    {
      "midi": 50,
      "time": 17.826,
      "duration": 0.217,
      "velocity": 0.49,
      "hand": "right"
    },
    {
      "midi": 30,
      "time": 18.261,
      "duration": 0.326,
      "velocity": 0.49,
      "hand": "left"
    },
    {
      "midi": 49,
      "time": 18.261,
      "duration": 0.109,
      "velocity": 0.49,
      "hand": "right"
    },
    {
      "midi": 46,
      "time": 18.478,
      "duration": 0.109,
      "velocity": 0.49,
      "hand": "right"
    },
    {
      "midi": 37,
      "time": 18.696,
      "duration": 0.326,
      "velocity": 0.49,
      "hand": "left"
    },
    {
      "midi": 49,
      "time": 18.696,
      "duration": 0.217,
      "velocity": 0.49,
      "hand": "right"
    },
    {
      "midi": 30,
      "time": 19.13,
      "duration": 0.326,
      "velocity": 0.49,
      "hand": "left"
    },
    {
      "midi": 42,
      "time": 19.13,
      "duration": 0.109,
      "velocity": 0.49,
      "hand": "right"
    },
    {
      "midi": 44,
      "time": 19.348,
      "duration": 0.109,
      "velocity": 0.49,
      "hand": "right"
    },
    {
      "midi": 37,
      "time": 19.565,
      "duration": 0.326,
      "velocity": 0.49,
      "hand": "left"
    },
    {
      "midi": 46,
      "time": 19.565,
      "duration": 0.109,
      "velocity": 0.49,
      "hand": "right"
    },
    {
      "midi": 47,
      "time": 19.783,
      "duration": 0.109,
      "velocity": 0.49,
      "hand": "right"
    },
    {
      "midi": 30,
      "time": 20,
      "duration": 0.326,
      "velocity": 0.49,
      "hand": "left"
    },
    {
      "midi": 49,
      "time": 20,
      "duration": 0.109,
      "velocity": 0.49,
      "hand": "right"
    },
    {
      "midi": 46,
      "time": 20.217,
      "duration": 0.109,
      "velocity": 0.49,
      "hand": "right"
    },
    {
      "midi": 37,
      "time": 20.435,
      "duration": 0.326,
      "velocity": 0.49,
      "hand": "left"
    },
    {
      "midi": 49,
      "time": 20.435,
      "duration": 0.217,
      "velocity": 0.49,
      "hand": "right"
    },
    {
      "midi": 26,
      "time": 20.87,
      "duration": 0.326,
      "velocity": 0.49,
      "hand": "left"
    },
    {
      "midi": 50,
      "time": 20.87,
      "duration": 0.109,
      "velocity": 0.49,
      "hand": "right"
    },
    {
      "midi": 46,
      "time": 21.087,
      "duration": 0.109,
      "velocity": 0.49,
      "hand": "right"
    },
    {
      "midi": 34,
      "time": 21.304,
      "duration": 0.326,
      "velocity": 0.49,
      "hand": "left"
    },
    {
      "midi": 50,
      "time": 21.304,
      "duration": 0.217,
      "velocity": 0.49,
      "hand": "right"
    },
    {
      "midi": 30,
      "time": 21.739,
      "duration": 0.326,
      "velocity": 0.49,
      "hand": "left"
    },
    {
      "midi": 49,
      "time": 21.739,
      "duration": 0.761,
      "velocity": 0.49,
      "hand": "right"
    },
    {
      "midi": 37,
      "time": 22.174,
      "duration": 0.326,
      "velocity": 0.49,
      "hand": "left"
    },
    {
      "midi": 30,
      "time": 22.609,
      "duration": 0.326,
      "velocity": 0.49,
      "hand": "left"
    },
    {
      "midi": 54,
      "time": 22.609,
      "duration": 0.109,
      "velocity": 0.49,
      "hand": "right"
    },
    {
      "midi": 56,
      "time": 22.826,
      "duration": 0.109,
      "velocity": 0.49,
      "hand": "right"
    },
    {
      "midi": 37,
      "time": 23.043,
      "duration": 0.326,
      "velocity": 0.49,
      "hand": "left"
    },
    {
      "midi": 58,
      "time": 23.043,
      "duration": 0.109,
      "velocity": 0.49,
      "hand": "right"
    },
    {
      "midi": 59,
      "time": 23.261,
      "duration": 0.109,
      "velocity": 0.49,
      "hand": "right"
    },
    {
      "midi": 30,
      "time": 23.478,
      "duration": 0.326,
      "velocity": 0.49,
      "hand": "left"
    },
    {
      "midi": 61,
      "time": 23.478,
      "duration": 0.109,
      "velocity": 0.49,
      "hand": "right"
    },
    {
      "midi": 58,
      "time": 23.696,
      "duration": 0.109,
      "velocity": 0.49,
      "hand": "right"
    },
    {
      "midi": 37,
      "time": 23.913,
      "duration": 0.326,
      "velocity": 0.49,
      "hand": "left"
    },
    {
      "midi": 61,
      "time": 23.913,
      "duration": 0.217,
      "velocity": 0.49,
      "hand": "right"
    },
    {
      "midi": 26,
      "time": 24.348,
      "duration": 0.326,
      "velocity": 0.49,
      "hand": "left"
    },
    {
      "midi": 62,
      "time": 24.348,
      "duration": 0.109,
      "velocity": 0.49,
      "hand": "right"
    },
    {
      "midi": 58,
      "time": 24.565,
      "duration": 0.109,
      "velocity": 0.49,
      "hand": "right"
    },
    {
      "midi": 34,
      "time": 24.783,
      "duration": 0.326,
      "velocity": 0.49,
      "hand": "left"
    },
    {
      "midi": 62,
      "time": 24.783,
      "duration": 0.217,
      "velocity": 0.49,
      "hand": "right"
    },
    {
      "midi": 30,
      "time": 25.217,
      "duration": 0.326,
      "velocity": 0.49,
      "hand": "left"
    },
    {
      "midi": 61,
      "time": 25.217,
      "duration": 0.109,
      "velocity": 0.49,
      "hand": "right"
    },
    {
      "midi": 58,
      "time": 25.435,
      "duration": 0.109,
      "velocity": 0.49,
      "hand": "right"
    },
    {
      "midi": 37,
      "time": 25.652,
      "duration": 0.326,
      "velocity": 0.49,
      "hand": "left"
    },
    {
      "midi": 61,
      "time": 25.652,
      "duration": 0.217,
      "velocity": 0.49,
      "hand": "right"
    },
    {
      "midi": 30,
      "time": 26.087,
      "duration": 0.326,
      "velocity": 0.49,
      "hand": "left"
    },
    {
      "midi": 54,
      "time": 26.087,
      "duration": 0.109,
      "velocity": 0.49,
      "hand": "right"
    },
    {
      "midi": 56,
      "time": 26.304,
      "duration": 0.109,
      "velocity": 0.49,
      "hand": "right"
    },
    {
      "midi": 37,
      "time": 26.522,
      "duration": 0.326,
      "velocity": 0.49,
      "hand": "left"
    },
    {
      "midi": 58,
      "time": 26.522,
      "duration": 0.109,
      "velocity": 0.49,
      "hand": "right"
    },
    {
      "midi": 59,
      "time": 26.739,
      "duration": 0.109,
      "velocity": 0.49,
      "hand": "right"
    },
    {
      "midi": 30,
      "time": 26.957,
      "duration": 0.326,
      "velocity": 0.49,
      "hand": "left"
    },
    {
      "midi": 61,
      "time": 26.957,
      "duration": 0.109,
      "velocity": 0.49,
      "hand": "right"
    },
    {
      "midi": 58,
      "time": 27.174,
      "duration": 0.109,
      "velocity": 0.49,
      "hand": "right"
    },
    {
      "midi": 37,
      "time": 27.391,
      "duration": 0.326,
      "velocity": 0.49,
      "hand": "left"
    },
    {
      "midi": 61,
      "time": 27.391,
      "duration": 0.217,
      "velocity": 0.49,
      "hand": "right"
    },
    {
      "midi": 26,
      "time": 27.826,
      "duration": 0.326,
      "velocity": 0.49,
      "hand": "left"
    },
    {
      "midi": 62,
      "time": 27.826,
      "duration": 0.109,
      "velocity": 0.49,
      "hand": "right"
    },
    {
      "midi": 58,
      "time": 28.043,
      "duration": 0.109,
      "velocity": 0.49,
      "hand": "right"
    },
    {
      "midi": 34,
      "time": 28.261,
      "duration": 0.326,
      "velocity": 0.49,
      "hand": "left"
    },
    {
      "midi": 62,
      "time": 28.261,
      "duration": 0.217,
      "velocity": 0.49,
      "hand": "right"
    },
    {
      "midi": 30,
      "time": 28.696,
      "duration": 0.326,
      "velocity": 0.49,
      "hand": "left"
    },
    {
      "midi": 49,
      "time": 28.696,
      "duration": 0.761,
      "velocity": 0.49,
      "hand": "right"
    },
    {
      "midi": 61,
      "time": 28.696,
      "duration": 0.761,
      "velocity": 0.49,
      "hand": "right"
    },
    {
      "midi": 37,
      "time": 29.13,
      "duration": 0.326,
      "velocity": 0.49,
      "hand": "left"
    },
    {
      "midi": 23,
      "time": 29.565,
      "duration": 0.217,
      "velocity": 0.49,
      "hand": "left"
    },
    {
      "midi": 35,
      "time": 29.565,
      "duration": 0.109,
      "velocity": 0.49,
      "hand": "right"
    },
    {
      "midi": 37,
      "time": 29.783,
      "duration": 0.109,
      "velocity": 0.49,
      "hand": "right"
    },
    {
      "midi": 30,
      "time": 30,
      "duration": 0.217,
      "velocity": 0.49,
      "hand": "left"
    },
    {
      "midi": 38,
      "time": 30,
      "duration": 0.109,
      "velocity": 0.49,
      "hand": "right"
    },
    {
      "midi": 40,
      "time": 30.217,
      "duration": 0.109,
      "velocity": 0.49,
      "hand": "right"
    },
    {
      "midi": 23,
      "time": 30.435,
      "duration": 0.217,
      "velocity": 0.49,
      "hand": "left"
    },
    {
      "midi": 42,
      "time": 30.435,
      "duration": 0.109,
      "velocity": 0.49,
      "hand": "right"
    },
    {
      "midi": 38,
      "time": 30.652,
      "duration": 0.109,
      "velocity": 0.49,
      "hand": "right"
    },
    {
      "midi": 30,
      "time": 30.87,
      "duration": 0.217,
      "velocity": 0.49,
      "hand": "left"
    },
    {
      "midi": 42,
      "time": 30.87,
      "duration": 0.217,
      "velocity": 0.49,
      "hand": "right"
    },
    {
      "midi": 23,
      "time": 31.304,
      "duration": 0.217,
      "velocity": 0.49,
      "hand": "left"
    },
    {
      "midi": 41,
      "time": 31.304,
      "duration": 0.109,
      "velocity": 0.49,
      "hand": "right"
    },
    {
      "midi": 37,
      "time": 31.522,
      "duration": 0.109,
      "velocity": 0.49,
      "hand": "right"
    },
    {
      "midi": 30,
      "time": 31.739,
      "duration": 0.217,
      "velocity": 0.49,
      "hand": "left"
    },
    {
      "midi": 41,
      "time": 31.739,
      "duration": 0.217,
      "velocity": 0.49,
      "hand": "right"
    },
    {
      "midi": 23,
      "time": 32.174,
      "duration": 0.217,
      "velocity": 0.49,
      "hand": "left"
    },
    {
      "midi": 40,
      "time": 32.174,
      "duration": 0.109,
      "velocity": 0.49,
      "hand": "right"
    },
    {
      "midi": 36,
      "time": 32.391,
      "duration": 0.109,
      "velocity": 0.49,
      "hand": "right"
    },
    {
      "midi": 30,
      "time": 32.609,
      "duration": 0.217,
      "velocity": 0.49,
      "hand": "left"
    },
    {
      "midi": 40,
      "time": 32.609,
      "duration": 0.217,
      "velocity": 0.49,
      "hand": "right"
    },
    {
      "midi": 23,
      "time": 33.043,
      "duration": 0.217,
      "velocity": 0.49,
      "hand": "left"
    },
    {
      "midi": 35,
      "time": 33.043,
      "duration": 0.109,
      "velocity": 0.49,
      "hand": "right"
    },
    {
      "midi": 37,
      "time": 33.261,
      "duration": 0.109,
      "velocity": 0.49,
      "hand": "right"
    },
    {
      "midi": 30,
      "time": 33.478,
      "duration": 0.217,
      "velocity": 0.49,
      "hand": "left"
    },
    {
      "midi": 38,
      "time": 33.478,
      "duration": 0.109,
      "velocity": 0.49,
      "hand": "right"
    },
    {
      "midi": 40,
      "time": 33.696,
      "duration": 0.109,
      "velocity": 0.49,
      "hand": "right"
    },
    {
      "midi": 23,
      "time": 33.913,
      "duration": 0.217,
      "velocity": 0.49,
      "hand": "left"
    },
    {
      "midi": 42,
      "time": 33.913,
      "duration": 0.109,
      "velocity": 0.49,
      "hand": "right"
    },
    {
      "midi": 38,
      "time": 34.13,
      "duration": 0.109,
      "velocity": 0.49,
      "hand": "right"
    },
    {
      "midi": 30,
      "time": 34.348,
      "duration": 0.217,
      "velocity": 0.49,
      "hand": "left"
    },
    {
      "midi": 42,
      "time": 34.348,
      "duration": 0.109,
      "velocity": 0.49,
      "hand": "right"
    },
    {
      "midi": 47,
      "time": 34.565,
      "duration": 0.109,
      "velocity": 0.49,
      "hand": "right"
    },
    {
      "midi": 26,
      "time": 34.783,
      "duration": 0.217,
      "velocity": 0.49,
      "hand": "left"
    },
    {
      "midi": 45,
      "time": 34.783,
      "duration": 0.109,
      "velocity": 0.49,
      "hand": "right"
    },
    {
      "midi": 42,
      "time": 35,
      "duration": 0.109,
      "velocity": 0.49,
      "hand": "right"
    },
    {
      "midi": 33,
      "time": 35.217,
      "duration": 0.217,
      "velocity": 0.49,
      "hand": "left"
    },
    {
      "midi": 38,
      "time": 35.217,
      "duration": 0.109,
      "velocity": 0.49,
      "hand": "right"
    },
    {
      "midi": 42,
      "time": 35.435,
      "duration": 0.109,
      "velocity": 0.49,
      "hand": "right"
    },
    {
      "midi": 26,
      "time": 35.652,
      "duration": 0.217,
      "velocity": 0.49,
      "hand": "left"
    },
    {
      "midi": 45,
      "time": 35.652,
      "duration": 0.761,
      "velocity": 0.49,
      "hand": "right"
    },
    {
      "midi": 33,
      "time": 36.087,
      "duration": 0.217,
      "velocity": 0.49,
      "hand": "left"
    },
    {
      "midi": 23,
      "time": 36.522,
      "duration": 0.217,
      "velocity": 0.49,
      "hand": "left"
    },
    {
      "midi": 47,
      "time": 36.522,
      "duration": 0.109,
      "velocity": 0.49,
      "hand": "right"
    },
    {
      "midi": 49,
      "time": 36.739,
      "duration": 0.109,
      "velocity": 0.49,
      "hand": "right"
    },
    {
      "midi": 30,
      "time": 36.957,
      "duration": 0.217,
      "velocity": 0.49,
      "hand": "left"
    },
    {
      "midi": 50,
      "time": 36.957,
      "duration": 0.109,
      "velocity": 0.49,
      "hand": "right"
    },
    {
      "midi": 52,
      "time": 37.174,
      "duration": 0.109,
      "velocity": 0.49,
      "hand": "right"
    },
    {
      "midi": 23,
      "time": 37.391,
      "duration": 0.217,
      "velocity": 0.49,
      "hand": "left"
    },
    {
      "midi": 54,
      "time": 37.391,
      "duration": 0.109,
      "velocity": 0.49,
      "hand": "right"
    },
    {
      "midi": 50,
      "time": 37.609,
      "duration": 0.109,
      "velocity": 0.49,
      "hand": "right"
    },
    {
      "midi": 30,
      "time": 37.826,
      "duration": 0.217,
      "velocity": 0.49,
      "hand": "left"
    },
    {
      "midi": 54,
      "time": 37.826,
      "duration": 0.217,
      "velocity": 0.49,
      "hand": "right"
    },
    {
      "midi": 23,
      "time": 38.261,
      "duration": 0.217,
      "velocity": 0.49,
      "hand": "left"
    },
    {
      "midi": 53,
      "time": 38.261,
      "duration": 0.109,
      "velocity": 0.49,
      "hand": "right"
    },
    {
      "midi": 49,
      "time": 38.478,
      "duration": 0.109,
      "velocity": 0.49,
      "hand": "right"
    },
    {
      "midi": 30,
      "time": 38.696,
      "duration": 0.217,
      "velocity": 0.49,
      "hand": "left"
    },
    {
      "midi": 53,
      "time": 38.696,
      "duration": 0.217,
      "velocity": 0.49,
      "hand": "right"
    },
    {
      "midi": 23,
      "time": 39.13,
      "duration": 0.217,
      "velocity": 0.49,
      "hand": "left"
    },
    {
      "midi": 52,
      "time": 39.13,
      "duration": 0.109,
      "velocity": 0.49,
      "hand": "right"
    },
    {
      "midi": 48,
      "time": 39.348,
      "duration": 0.109,
      "velocity": 0.49,
      "hand": "right"
    },
    {
      "midi": 30,
      "time": 39.565,
      "duration": 0.217,
      "velocity": 0.49,
      "hand": "left"
    },
    {
      "midi": 52,
      "time": 39.565,
      "duration": 0.217,
      "velocity": 0.49,
      "hand": "right"
    },
    {
      "midi": 23,
      "time": 40,
      "duration": 0.217,
      "velocity": 0.49,
      "hand": "left"
    },
    {
      "midi": 47,
      "time": 40,
      "duration": 0.109,
      "velocity": 0.49,
      "hand": "right"
    },
    {
      "midi": 49,
      "time": 40.217,
      "duration": 0.109,
      "velocity": 0.49,
      "hand": "right"
    },
    {
      "midi": 35,
      "time": 40.435,
      "duration": 0.217,
      "velocity": 0.49,
      "hand": "left"
    },
    {
      "midi": 50,
      "time": 40.435,
      "duration": 0.109,
      "velocity": 0.49,
      "hand": "right"
    },
    {
      "midi": 52,
      "time": 40.652,
      "duration": 0.109,
      "velocity": 0.49,
      "hand": "right"
    },
    {
      "midi": 33,
      "time": 40.87,
      "duration": 0.217,
      "velocity": 0.49,
      "hand": "left"
    },
    {
      "midi": 54,
      "time": 40.87,
      "duration": 0.109,
      "velocity": 0.49,
      "hand": "right"
    },
    {
      "midi": 50,
      "time": 41.087,
      "duration": 0.109,
      "velocity": 0.49,
      "hand": "right"
    },
    {
      "midi": 31,
      "time": 41.304,
      "duration": 0.217,
      "velocity": 0.49,
      "hand": "left"
    },
    {
      "midi": 54,
      "time": 41.304,
      "duration": 0.109,
      "velocity": 0.49,
      "hand": "right"
    },
    {
      "midi": 59,
      "time": 41.522,
      "duration": 0.109,
      "velocity": 0.49,
      "hand": "right"
    },
    {
      "midi": 30,
      "time": 41.739,
      "duration": 0.217,
      "velocity": 0.49,
      "hand": "left"
    },
    {
      "midi": 57,
      "time": 41.739,
      "duration": 0.109,
      "velocity": 0.49,
      "hand": "right"
    },
    {
      "midi": 54,
      "time": 41.957,
      "duration": 0.109,
      "velocity": 0.49,
      "hand": "right"
    },
    {
      "midi": 28,
      "time": 42.174,
      "duration": 0.217,
      "velocity": 0.49,
      "hand": "left"
    },
    {
      "midi": 50,
      "time": 42.174,
      "duration": 0.109,
      "velocity": 0.49,
      "hand": "right"
    },
    {
      "midi": 54,
      "time": 42.391,
      "duration": 0.109,
      "velocity": 0.49,
      "hand": "right"
    },
    {
      "midi": 25,
      "time": 42.609,
      "duration": 0.217,
      "velocity": 0.49,
      "hand": "left"
    },
    {
      "midi": 45,
      "time": 42.609,
      "duration": 0.761,
      "velocity": 0.49,
      "hand": "right"
    },
    {
      "midi": 57,
      "time": 42.609,
      "duration": 0.761,
      "velocity": 0.49,
      "hand": "right"
    },
    {
      "midi": 23,
      "time": 43.043,
      "duration": 0.217,
      "velocity": 0.49,
      "hand": "left"
    },
    {
      "midi": 23,
      "time": 43.478,
      "duration": 0.326,
      "velocity": 0.49,
      "hand": "left"
    },
    {
      "midi": 59,
      "time": 43.478,
      "duration": 0.109,
      "velocity": 0.49,
      "hand": "right"
    },
    {
      "midi": 61,
      "time": 43.696,
      "duration": 0.109,
      "velocity": 0.49,
      "hand": "right"
    },
    {
      "midi": 42,
      "time": 43.913,
      "duration": 0.109,
      "velocity": 0.49,
      "hand": "left"
    },
    {
      "midi": 50,
      "time": 43.913,
      "duration": 0.109,
      "velocity": 0.49,
      "hand": "left"
    },
    {
      "midi": 54,
      "time": 43.913,
      "duration": 0.109,
      "velocity": 0.49,
      "hand": "right"
    },
    {
      "midi": 62,
      "time": 43.913,
      "duration": 0.109,
      "velocity": 0.49,
      "hand": "right"
    },
    {
      "midi": 41,
      "time": 44.022,
      "duration": 0.109,
      "velocity": 0.49,
      "hand": "left"
    },
    {
      "midi": 42,
      "time": 44.13,
      "duration": 0.217,
      "velocity": 0.49,
      "hand": "left"
    },
    {
      "midi": 64,
      "time": 44.13,
      "duration": 0.109,
      "velocity": 0.49,
      "hand": "right"
    },
    {
      "midi": 35,
      "time": 44.348,
      "duration": 0.217,
      "velocity": 0.49,
      "hand": "left"
    },
    {
      "midi": 66,
      "time": 44.348,
      "duration": 0.109,
      "velocity": 0.49,
      "hand": "right"
    },
    {
      "midi": 62,
      "time": 44.565,
      "duration": 0.109,
      "velocity": 0.49,
      "hand": "right"
    },
    {
      "midi": 42,
      "time": 44.783,
      "duration": 0.109,
      "velocity": 0.49,
      "hand": "left"
    },
    {
      "midi": 50,
      "time": 44.783,
      "duration": 0.109,
      "velocity": 0.49,
      "hand": "left"
    },
    {
      "midi": 54,
      "time": 44.783,
      "duration": 0.217,
      "velocity": 0.49,
      "hand": "right"
    },
    {
      "midi": 66,
      "time": 44.783,
      "duration": 0.217,
      "velocity": 0.49,
      "hand": "right"
    },
    {
      "midi": 41,
      "time": 44.891,
      "duration": 0.109,
      "velocity": 0.49,
      "hand": "left"
    },
    {
      "midi": 42,
      "time": 45,
      "duration": 0.217,
      "velocity": 0.49,
      "hand": "left"
    },
    {
      "midi": 35,
      "time": 45.217,
      "duration": 0.217,
      "velocity": 0.49,
      "hand": "left"
    },
    {
      "midi": 65,
      "time": 45.217,
      "duration": 0.109,
      "velocity": 0.49,
      "hand": "right"
    },
    {
      "midi": 61,
      "time": 45.435,
      "duration": 0.109,
      "velocity": 0.49,
      "hand": "right"
    },
    {
      "midi": 42,
      "time": 45.652,
      "duration": 0.109,
      "velocity": 0.49,
      "hand": "left"
    },
    {
      "midi": 49,
      "time": 45.652,
      "duration": 0.109,
      "velocity": 0.49,
      "hand": "left"
    },
    {
      "midi": 53,
      "time": 45.652,
      "duration": 0.217,
      "velocity": 0.49,
      "hand": "right"
    },
    {
      "midi": 65,
      "time": 45.652,
      "duration": 0.217,
      "velocity": 0.49,
      "hand": "right"
    },
    {
      "midi": 41,
      "time": 45.761,
      "duration": 0.109,
      "velocity": 0.49,
      "hand": "left"
    },
    {
      "midi": 42,
      "time": 45.87,
      "duration": 0.217,
      "velocity": 0.49,
      "hand": "left"
    },
    {
      "midi": 35,
      "time": 46.087,
      "duration": 0.217,
      "velocity": 0.49,
      "hand": "left"
    },
    {
      "midi": 64,
      "time": 46.087,
      "duration": 0.109,
      "velocity": 0.49,
      "hand": "right"
    },
    {
      "midi": 60,
      "time": 46.304,
      "duration": 0.109,
      "velocity": 0.49,
      "hand": "right"
    },
    {
      "midi": 42,
      "time": 46.522,
      "duration": 0.109,
      "velocity": 0.49,
      "hand": "left"
    },
    {
      "midi": 48,
      "time": 46.522,
      "duration": 0.109,
      "velocity": 0.49,
      "hand": "left"
    },
    {
      "midi": 52,
      "time": 46.522,
      "duration": 0.217,
      "velocity": 0.49,
      "hand": "right"
    },
    {
      "midi": 64,
      "time": 46.522,
      "duration": 0.217,
      "velocity": 0.49,
      "hand": "right"
    },
    {
      "midi": 41,
      "time": 46.63,
      "duration": 0.109,
      "velocity": 0.49,
      "hand": "left"
    },
    {
      "midi": 42,
      "time": 46.739,
      "duration": 0.217,
      "velocity": 0.49,
      "hand": "left"
    },
    {
      "midi": 35,
      "time": 46.957,
      "duration": 0.217,
      "velocity": 0.49,
      "hand": "left"
    },
    {
      "midi": 59,
      "time": 46.957,
      "duration": 0.109,
      "velocity": 0.49,
      "hand": "right"
    },
    {
      "midi": 61,
      "time": 47.174,
      "duration": 0.109,
      "velocity": 0.49,
      "hand": "right"
    },
    {
      "midi": 42,
      "time": 47.391,
      "duration": 0.109,
      "velocity": 0.49,
      "hand": "left"
    },
    {
      "midi": 50,
      "time": 47.391,
      "duration": 0.109,
      "velocity": 0.49,
      "hand": "left"
    },
    {
      "midi": 54,
      "time": 47.391,
      "duration": 0.109,
      "velocity": 0.49,
      "hand": "right"
    },
    {
      "midi": 62,
      "time": 47.391,
      "duration": 0.109,
      "velocity": 0.49,
      "hand": "right"
    },
    {
      "midi": 41,
      "time": 47.5,
      "duration": 0.109,
      "velocity": 0.49,
      "hand": "left"
    },
    {
      "midi": 42,
      "time": 47.609,
      "duration": 0.217,
      "velocity": 0.49,
      "hand": "left"
    },
    {
      "midi": 64,
      "time": 47.609,
      "duration": 0.109,
      "velocity": 0.49,
      "hand": "right"
    },
    {
      "midi": 35,
      "time": 47.826,
      "duration": 0.217,
      "velocity": 0.49,
      "hand": "left"
    },
    {
      "midi": 66,
      "time": 47.826,
      "duration": 0.109,
      "velocity": 0.49,
      "hand": "right"
    },
    {
      "midi": 62,
      "time": 48.043,
      "duration": 0.109,
      "velocity": 0.49,
      "hand": "right"
    },
    {
      "midi": 42,
      "time": 48.261,
      "duration": 0.109,
      "velocity": 0.49,
      "hand": "left"
    },
    {
      "midi": 50,
      "time": 48.261,
      "duration": 0.109,
      "velocity": 0.49,
      "hand": "left"
    },
    {
      "midi": 66,
      "time": 48.261,
      "duration": 0.109,
      "velocity": 0.49,
      "hand": "right"
    },
    {
      "midi": 41,
      "time": 48.37,
      "duration": 0.109,
      "velocity": 0.49,
      "hand": "left"
    },
    {
      "midi": 42,
      "time": 48.478,
      "duration": 0.217,
      "velocity": 0.49,
      "hand": "left"
    },
    {
      "midi": 71,
      "time": 48.478,
      "duration": 0.109,
      "velocity": 0.49,
      "hand": "right"
    },
    {
      "midi": 38,
      "time": 48.696,
      "duration": 0.217,
      "velocity": 0.49,
      "hand": "left"
    },
    {
      "midi": 69,
      "time": 48.696,
      "duration": 0.109,
      "velocity": 0.49,
      "hand": "right"
    },
    {
      "midi": 66,
      "time": 48.913,
      "duration": 0.109,
      "velocity": 0.49,
      "hand": "right"
    },
    {
      "midi": 45,
      "time": 49.13,
      "duration": 0.109,
      "velocity": 0.49,
      "hand": "left"
    },
    {
      "midi": 54,
      "time": 49.13,
      "duration": 0.109,
      "velocity": 0.49,
      "hand": "left"
    },
    {
      "midi": 57,
      "time": 49.13,
      "duration": 0.109,
      "velocity": 0.49,
      "hand": "right"
    },
    {
      "midi": 62,
      "time": 49.13,
      "duration": 0.109,
      "velocity": 0.49,
      "hand": "right"
    },
    {
      "midi": 44,
      "time": 49.239,
      "duration": 0.109,
      "velocity": 0.49,
      "hand": "left"
    },
    {
      "midi": 45,
      "time": 49.348,
      "duration": 0.217,
      "velocity": 0.49,
      "hand": "left"
    },
    {
      "midi": 66,
      "time": 49.348,
      "duration": 0.109,
      "velocity": 0.49,
      "hand": "right"
    },
    {
      "midi": 38,
      "time": 49.565,
      "duration": 0.217,
      "velocity": 0.49,
      "hand": "left"
    },
    {
      "midi": 69,
      "time": 49.565,
      "duration": 0.761,
      "velocity": 0.49,
      "hand": "right"
    },
    {
      "midi": 45,
      "time": 50,
      "duration": 0.109,
      "velocity": 0.49,
      "hand": "left"
    },
    {
      "midi": 54,
      "time": 50,
      "duration": 0.109,
      "velocity": 0.49,
      "hand": "left"
    },
    {
      "midi": 57,
      "time": 50,
      "duration": 0.326,
      "velocity": 0.71,
      "hand": "right"
    },
    {
      "midi": 62,
      "time": 50,
      "duration": 0.326,
      "velocity": 0.71,
      "hand": "right"
    },
    {
      "midi": 44,
      "time": 50.109,
      "duration": 0.109,
      "velocity": 0.49,
      "hand": "left"
    },
    {
      "midi": 45,
      "time": 50.217,
      "duration": 0.217,
      "velocity": 0.49,
      "hand": "left"
    },
    {
      "midi": 35,
      "time": 50.435,
      "duration": 0.217,
      "velocity": 0.49,
      "hand": "left"
    },
    {
      "midi": 71,
      "time": 50.435,
      "duration": 0.109,
      "velocity": 0.49,
      "hand": "right"
    },
    {
      "midi": 73,
      "time": 50.652,
      "duration": 0.109,
      "velocity": 0.49,
      "hand": "right"
    },
    {
      "midi": 42,
      "time": 50.87,
      "duration": 0.109,
      "velocity": 0.49,
      "hand": "left"
    },
    {
      "midi": 50,
      "time": 50.87,
      "duration": 0.109,
      "velocity": 0.49,
      "hand": "left"
    },
    {
      "midi": 66,
      "time": 50.87,
      "duration": 0.326,
      "velocity": 0.71,
      "hand": "right"
    },
    {
      "midi": 74,
      "time": 50.87,
      "duration": 0.109,
      "velocity": 0.71,
      "hand": "right"
    },
    {
      "midi": 41,
      "time": 50.978,
      "duration": 0.109,
      "velocity": 0.49,
      "hand": "left"
    },
    {
      "midi": 42,
      "time": 51.087,
      "duration": 0.217,
      "velocity": 0.49,
      "hand": "left"
    },
    {
      "midi": 76,
      "time": 51.087,
      "duration": 0.109,
      "velocity": 0.71,
      "hand": "right"
    },
    {
      "midi": 35,
      "time": 51.304,
      "duration": 0.217,
      "velocity": 0.49,
      "hand": "left"
    },
    {
      "midi": 78,
      "time": 51.304,
      "duration": 0.109,
      "velocity": 0.49,
      "hand": "right"
    },
    {
      "midi": 74,
      "time": 51.522,
      "duration": 0.109,
      "velocity": 0.49,
      "hand": "right"
    },
    {
      "midi": 42,
      "time": 51.739,
      "duration": 0.109,
      "velocity": 0.49,
      "hand": "left"
    },
    {
      "midi": 50,
      "time": 51.739,
      "duration": 0.109,
      "velocity": 0.49,
      "hand": "left"
    },
    {
      "midi": 66,
      "time": 51.739,
      "duration": 0.326,
      "velocity": 0.71,
      "hand": "right"
    },
    {
      "midi": 78,
      "time": 51.739,
      "duration": 0.217,
      "velocity": 0.71,
      "hand": "right"
    },
    {
      "midi": 41,
      "time": 51.848,
      "duration": 0.109,
      "velocity": 0.49,
      "hand": "left"
    },
    {
      "midi": 42,
      "time": 51.957,
      "duration": 0.217,
      "velocity": 0.49,
      "hand": "left"
    },
    {
      "midi": 35,
      "time": 52.174,
      "duration": 0.217,
      "velocity": 0.49,
      "hand": "left"
    },
    {
      "midi": 77,
      "time": 52.174,
      "duration": 0.109,
      "velocity": 0.49,
      "hand": "right"
    },
    {
      "midi": 73,
      "time": 52.391,
      "duration": 0.109,
      "velocity": 0.49,
      "hand": "right"
    },
    {
      "midi": 42,
      "time": 52.609,
      "duration": 0.109,
      "velocity": 0.49,
      "hand": "left"
    },
    {
      "midi": 49,
      "time": 52.609,
      "duration": 0.109,
      "velocity": 0.49,
      "hand": "left"
    },
    {
      "midi": 66,
      "time": 52.609,
      "duration": 0.326,
      "velocity": 0.71,
      "hand": "right"
    },
    {
      "midi": 77,
      "time": 52.609,
      "duration": 0.217,
      "velocity": 0.71,
      "hand": "right"
    },
    {
      "midi": 41,
      "time": 52.717,
      "duration": 0.109,
      "velocity": 0.49,
      "hand": "left"
    },
    {
      "midi": 42,
      "time": 52.826,
      "duration": 0.217,
      "velocity": 0.49,
      "hand": "left"
    },
    {
      "midi": 35,
      "time": 53.043,
      "duration": 0.217,
      "velocity": 0.49,
      "hand": "left"
    },
    {
      "midi": 76,
      "time": 53.043,
      "duration": 0.109,
      "velocity": 0.49,
      "hand": "right"
    },
    {
      "midi": 72,
      "time": 53.261,
      "duration": 0.109,
      "velocity": 0.49,
      "hand": "right"
    },
    {
      "midi": 42,
      "time": 53.478,
      "duration": 0.109,
      "velocity": 0.49,
      "hand": "left"
    },
    {
      "midi": 50,
      "time": 53.478,
      "duration": 0.109,
      "velocity": 0.49,
      "hand": "left"
    },
    {
      "midi": 66,
      "time": 53.478,
      "duration": 0.326,
      "velocity": 0.71,
      "hand": "right"
    },
    {
      "midi": 76,
      "time": 53.478,
      "duration": 0.217,
      "velocity": 0.71,
      "hand": "right"
    },
    {
      "midi": 41,
      "time": 53.587,
      "duration": 0.109,
      "velocity": 0.49,
      "hand": "left"
    },
    {
      "midi": 42,
      "time": 53.696,
      "duration": 0.217,
      "velocity": 0.49,
      "hand": "left"
    },
    {
      "midi": 35,
      "time": 53.913,
      "duration": 0.217,
      "velocity": 0.49,
      "hand": "left"
    },
    {
      "midi": 71,
      "time": 53.913,
      "duration": 0.109,
      "velocity": 0.49,
      "hand": "right"
    },
    {
      "midi": 73,
      "time": 54.13,
      "duration": 0.109,
      "velocity": 0.49,
      "hand": "right"
    },
    {
      "midi": 42,
      "time": 54.348,
      "duration": 0.109,
      "velocity": 0.49,
      "hand": "left"
    },
    {
      "midi": 50,
      "time": 54.348,
      "duration": 0.109,
      "velocity": 0.49,
      "hand": "left"
    },
    {
      "midi": 66,
      "time": 54.348,
      "duration": 0.326,
      "velocity": 0.71,
      "hand": "right"
    },
    {
      "midi": 74,
      "time": 54.348,
      "duration": 0.109,
      "velocity": 0.71,
      "hand": "right"
    },
    {
      "midi": 41,
      "time": 54.457,
      "duration": 0.109,
      "velocity": 0.49,
      "hand": "left"
    },
    {
      "midi": 42,
      "time": 54.565,
      "duration": 0.217,
      "velocity": 0.49,
      "hand": "left"
    },
    {
      "midi": 76,
      "time": 54.565,
      "duration": 0.109,
      "velocity": 0.71,
      "hand": "right"
    },
    {
      "midi": 35,
      "time": 54.783,
      "duration": 0.217,
      "velocity": 0.49,
      "hand": "left"
    },
    {
      "midi": 78,
      "time": 54.783,
      "duration": 0.109,
      "velocity": 0.49,
      "hand": "right"
    },
    {
      "midi": 74,
      "time": 55,
      "duration": 0.109,
      "velocity": 0.49,
      "hand": "right"
    },
    {
      "midi": 42,
      "time": 55.217,
      "duration": 0.109,
      "velocity": 0.49,
      "hand": "left"
    },
    {
      "midi": 50,
      "time": 55.217,
      "duration": 0.109,
      "velocity": 0.49,
      "hand": "left"
    },
    {
      "midi": 78,
      "time": 55.217,
      "duration": 0.109,
      "velocity": 0.49,
      "hand": "right"
    },
    {
      "midi": 41,
      "time": 55.326,
      "duration": 0.109,
      "velocity": 0.49,
      "hand": "left"
    },
    {
      "midi": 42,
      "time": 55.435,
      "duration": 0.217,
      "velocity": 0.49,
      "hand": "left"
    },
    {
      "midi": 83,
      "time": 55.435,
      "duration": 0.109,
      "velocity": 0.49,
      "hand": "right"
    },
    {
      "midi": 38,
      "time": 55.652,
      "duration": 0.217,
      "velocity": 0.49,
      "hand": "left"
    },
    {
      "midi": 81,
      "time": 55.652,
      "duration": 0.109,
      "velocity": 0.49,
      "hand": "right"
    },
    {
      "midi": 78,
      "time": 55.87,
      "duration": 0.109,
      "velocity": 0.49,
      "hand": "right"
    },
    {
      "midi": 45,
      "time": 56.087,
      "duration": 0.109,
      "velocity": 0.49,
      "hand": "left"
    },
    {
      "midi": 54,
      "time": 56.087,
      "duration": 0.109,
      "velocity": 0.49,
      "hand": "left"
    },
    {
      "midi": 69,
      "time": 56.087,
      "duration": 0.326,
      "velocity": 0.71,
      "hand": "right"
    },
    {
      "midi": 74,
      "time": 56.087,
      "duration": 0.109,
      "velocity": 0.71,
      "hand": "right"
    },
    {
      "midi": 44,
      "time": 56.196,
      "duration": 0.109,
      "velocity": 0.49,
      "hand": "left"
    },
    {
      "midi": 45,
      "time": 56.304,
      "duration": 0.217,
      "velocity": 0.49,
      "hand": "left"
    },
    {
      "midi": 78,
      "time": 56.304,
      "duration": 0.109,
      "velocity": 0.71,
      "hand": "right"
    },
    {
      "midi": 38,
      "time": 56.522,
      "duration": 0.217,
      "velocity": 0.49,
      "hand": "left"
    },
    {
      "midi": 81,
      "time": 56.522,
      "duration": 0.761,
      "velocity": 0.49,
      "hand": "right"
    },
    {
      "midi": 45,
      "time": 56.957,
      "duration": 0.109,
      "velocity": 0.49,
      "hand": "left"
    },
    {
      "midi": 54,
      "time": 56.957,
      "duration": 0.109,
      "velocity": 0.49,
      "hand": "left"
    },
    {
      "midi": 69,
      "time": 56.957,
      "duration": 0.326,
      "velocity": 0.71,
      "hand": "right"
    },
    {
      "midi": 74,
      "time": 56.957,
      "duration": 0.326,
      "velocity": 0.71,
      "hand": "right"
    },
    {
      "midi": 44,
      "time": 57.065,
      "duration": 0.109,
      "velocity": 0.49,
      "hand": "left"
    },
    {
      "midi": 45,
      "time": 57.174,
      "duration": 0.217,
      "velocity": 0.49,
      "hand": "left"
    },
    {
      "midi": 42,
      "time": 57.391,
      "duration": 0.217,
      "velocity": 0.49,
      "hand": "left"
    },
    {
      "midi": 66,
      "time": 57.391,
      "duration": 0.109,
      "velocity": 0.5,
      "hand": "right"
    },
    {
      "midi": 68,
      "time": 57.609,
      "duration": 0.109,
      "velocity": 0.5,
      "hand": "right"
    },
    {
      "midi": 49,
      "time": 57.826,
      "duration": 0.109,
      "velocity": 0.49,
      "hand": "left"
    },
    {
      "midi": 58,
      "time": 57.826,
      "duration": 0.109,
      "velocity": 0.49,
      "hand": "left"
    },
    {
      "midi": 66,
      "time": 57.826,
      "duration": 0.326,
      "velocity": 0.71,
      "hand": "right"
    },
    {
      "midi": 70,
      "time": 57.826,
      "duration": 0.109,
      "velocity": 0.5,
      "hand": "right"
    },
    {
      "midi": 48,
      "time": 57.935,
      "duration": 0.109,
      "velocity": 0.49,
      "hand": "left"
    },
    {
      "midi": 49,
      "time": 58.043,
      "duration": 0.217,
      "velocity": 0.49,
      "hand": "left"
    },
    {
      "midi": 71,
      "time": 58.043,
      "duration": 0.109,
      "velocity": 0.5,
      "hand": "right"
    },
    {
      "midi": 42,
      "time": 58.261,
      "duration": 0.217,
      "velocity": 0.49,
      "hand": "left"
    },
    {
      "midi": 73,
      "time": 58.261,
      "duration": 0.109,
      "velocity": 0.5,
      "hand": "right"
    },
    {
      "midi": 70,
      "time": 58.478,
      "duration": 0.109,
      "velocity": 0.51,
      "hand": "right"
    },
    {
      "midi": 49,
      "time": 58.696,
      "duration": 0.109,
      "velocity": 0.49,
      "hand": "left"
    },
    {
      "midi": 58,
      "time": 58.696,
      "duration": 0.109,
      "velocity": 0.49,
      "hand": "left"
    },
    {
      "midi": 66,
      "time": 58.696,
      "duration": 0.326,
      "velocity": 0.71,
      "hand": "right"
    },
    {
      "midi": 70,
      "time": 58.696,
      "duration": 0.326,
      "velocity": 0.71,
      "hand": "right"
    },
    {
      "midi": 73,
      "time": 58.696,
      "duration": 0.326,
      "velocity": 0.51,
      "hand": "right"
    },
    {
      "midi": 48,
      "time": 58.804,
      "duration": 0.109,
      "velocity": 0.49,
      "hand": "left"
    },
    {
      "midi": 49,
      "time": 58.913,
      "duration": 0.217,
      "velocity": 0.49,
      "hand": "left"
    },
    {
      "midi": 38,
      "time": 59.13,
      "duration": 0.217,
      "velocity": 0.49,
      "hand": "left"
    },
    {
      "midi": 74,
      "time": 59.13,
      "duration": 0.109,
      "velocity": 0.52,
      "hand": "right"
    },
    {
      "midi": 70,
      "time": 59.348,
      "duration": 0.109,
      "velocity": 0.52,
      "hand": "right"
    },
    {
      "midi": 50,
      "time": 59.565,
      "duration": 0.109,
      "velocity": 0.49,
      "hand": "left"
    },
    {
      "midi": 58,
      "time": 59.565,
      "duration": 0.109,
      "velocity": 0.49,
      "hand": "left"
    },
    {
      "midi": 66,
      "time": 59.565,
      "duration": 0.326,
      "velocity": 0.71,
      "hand": "right"
    },
    {
      "midi": 70,
      "time": 59.565,
      "duration": 0.326,
      "velocity": 0.71,
      "hand": "right"
    },
    {
      "midi": 74,
      "time": 59.565,
      "duration": 0.326,
      "velocity": 0.53,
      "hand": "right"
    },
    {
      "midi": 49,
      "time": 59.674,
      "duration": 0.109,
      "velocity": 0.49,
      "hand": "left"
    },
    {
      "midi": 50,
      "time": 59.783,
      "duration": 0.217,
      "velocity": 0.49,
      "hand": "left"
    },
    {
      "midi": 42,
      "time": 60,
      "duration": 0.217,
      "velocity": 0.49,
      "hand": "left"
    },
    {
      "midi": 73,
      "time": 60,
      "duration": 0.109,
      "velocity": 0.53,
      "hand": "right"
    },
    {
      "midi": 70,
      "time": 60.217,
      "duration": 0.109,
      "velocity": 0.54,
      "hand": "right"
    },
    {
      "midi": 49,
      "time": 60.435,
      "duration": 0.109,
      "velocity": 0.49,
      "hand": "left"
    },
    {
      "midi": 58,
      "time": 60.435,
      "duration": 0.109,
      "velocity": 0.49,
      "hand": "left"
    },
    {
      "midi": 66,
      "time": 60.435,
      "duration": 0.326,
      "velocity": 0.71,
      "hand": "right"
    },
    {
      "midi": 70,
      "time": 60.435,
      "duration": 0.326,
      "velocity": 0.71,
      "hand": "right"
    },
    {
      "midi": 73,
      "time": 60.435,
      "duration": 0.326,
      "velocity": 0.54,
      "hand": "right"
    },
    {
      "midi": 48,
      "time": 60.543,
      "duration": 0.109,
      "velocity": 0.49,
      "hand": "left"
    },
    {
      "midi": 49,
      "time": 60.652,
      "duration": 0.217,
      "velocity": 0.49,
      "hand": "left"
    },
    {
      "midi": 42,
      "time": 60.87,
      "duration": 0.217,
      "velocity": 0.49,
      "hand": "left"
    },
    {
      "midi": 66,
      "time": 60.87,
      "duration": 0.109,
      "velocity": 0.54,
      "hand": "right"
    },
    {
      "midi": 68,
      "time": 61.087,
      "duration": 0.109,
      "velocity": 0.54,
      "hand": "right"
    },
    {
      "midi": 49,
      "time": 61.304,
      "duration": 0.109,
      "velocity": 0.49,
      "hand": "left"
    },
    {
      "midi": 58,
      "time": 61.304,
      "duration": 0.109,
      "velocity": 0.49,
      "hand": "left"
    },
    {
      "midi": 66,
      "time": 61.304,
      "duration": 0.326,
      "velocity": 0.71,
      "hand": "right"
    },
    {
      "midi": 70,
      "time": 61.304,
      "duration": 0.109,
      "velocity": 0.54,
      "hand": "right"
    },
    {
      "midi": 48,
      "time": 61.413,
      "duration": 0.109,
      "velocity": 0.49,
      "hand": "left"
    },
    {
      "midi": 49,
      "time": 61.522,
      "duration": 0.217,
      "velocity": 0.49,
      "hand": "left"
    },
    {
      "midi": 71,
      "time": 61.522,
      "duration": 0.109,
      "velocity": 0.55,
      "hand": "right"
    },
    {
      "midi": 42,
      "time": 61.739,
      "duration": 0.217,
      "velocity": 0.49,
      "hand": "left"
    },
    {
      "midi": 73,
      "time": 61.739,
      "duration": 0.109,
      "velocity": 0.55,
      "hand": "right"
    },
    {
      "midi": 70,
      "time": 61.957,
      "duration": 0.109,
      "velocity": 0.56,
      "hand": "right"
    },
    {
      "midi": 49,
      "time": 62.174,
      "duration": 0.109,
      "velocity": 0.49,
      "hand": "left"
    },
    {
      "midi": 58,
      "time": 62.174,
      "duration": 0.109,
      "velocity": 0.49,
      "hand": "left"
    },
    {
      "midi": 66,
      "time": 62.174,
      "duration": 0.326,
      "velocity": 0.71,
      "hand": "right"
    },
    {
      "midi": 70,
      "time": 62.174,
      "duration": 0.326,
      "velocity": 0.71,
      "hand": "right"
    },
    {
      "midi": 73,
      "time": 62.174,
      "duration": 0.326,
      "velocity": 0.56,
      "hand": "right"
    },
    {
      "midi": 48,
      "time": 62.283,
      "duration": 0.109,
      "velocity": 0.49,
      "hand": "left"
    },
    {
      "midi": 49,
      "time": 62.391,
      "duration": 0.217,
      "velocity": 0.49,
      "hand": "left"
    },
    {
      "midi": 38,
      "time": 62.609,
      "duration": 0.217,
      "velocity": 0.49,
      "hand": "left"
    },
    {
      "midi": 74,
      "time": 62.609,
      "duration": 0.109,
      "velocity": 0.57,
      "hand": "right"
    },
    {
      "midi": 70,
      "time": 62.826,
      "duration": 0.109,
      "velocity": 0.57,
      "hand": "right"
    },
    {
      "midi": 50,
      "time": 63.043,
      "duration": 0.109,
      "velocity": 0.49,
      "hand": "left"
    },
    {
      "midi": 58,
      "time": 63.043,
      "duration": 0.109,
      "velocity": 0.49,
      "hand": "left"
    },
    {
      "midi": 66,
      "time": 63.043,
      "duration": 0.326,
      "velocity": 0.71,
      "hand": "right"
    },
    {
      "midi": 70,
      "time": 63.043,
      "duration": 0.326,
      "velocity": 0.71,
      "hand": "right"
    },
    {
      "midi": 74,
      "time": 63.043,
      "duration": 0.326,
      "velocity": 0.57,
      "hand": "right"
    },
    {
      "midi": 49,
      "time": 63.152,
      "duration": 0.109,
      "velocity": 0.49,
      "hand": "left"
    },
    {
      "midi": 50,
      "time": 63.261,
      "duration": 0.217,
      "velocity": 0.49,
      "hand": "left"
    },
    {
      "midi": 42,
      "time": 63.478,
      "duration": 0.217,
      "velocity": 0.49,
      "hand": "left"
    },
    {
      "midi": 73,
      "time": 63.478,
      "duration": 0.761,
      "velocity": 0.57,
      "hand": "right"
    },
    {
      "midi": 49,
      "time": 63.913,
      "duration": 0.109,
      "velocity": 0.49,
      "hand": "left"
    },
    {
      "midi": 58,
      "time": 63.913,
      "duration": 0.109,
      "velocity": 0.49,
      "hand": "left"
    },
    {
      "midi": 66,
      "time": 63.913,
      "duration": 0.326,
      "velocity": 0.71,
      "hand": "right"
    },
    {
      "midi": 70,
      "time": 63.913,
      "duration": 0.326,
      "velocity": 0.71,
      "hand": "right"
    },
    {
      "midi": 48,
      "time": 64.022,
      "duration": 0.109,
      "velocity": 0.49,
      "hand": "left"
    },
    {
      "midi": 49,
      "time": 64.13,
      "duration": 0.217,
      "velocity": 0.49,
      "hand": "left"
    },
    {
      "midi": 42,
      "time": 64.348,
      "duration": 0.217,
      "velocity": 0.49,
      "hand": "left"
    },
    {
      "midi": 78,
      "time": 64.348,
      "duration": 0.109,
      "velocity": 0.58,
      "hand": "right"
    },
    {
      "midi": 80,
      "time": 64.565,
      "duration": 0.109,
      "velocity": 0.59,
      "hand": "right"
    },
    {
      "midi": 49,
      "time": 64.783,
      "duration": 0.109,
      "velocity": 0.49,
      "hand": "left"
    },
    {
      "midi": 58,
      "time": 64.783,
      "duration": 0.109,
      "velocity": 0.49,
      "hand": "left"
    },
    {
      "midi": 78,
      "time": 64.783,
      "duration": 0.109,
      "velocity": 0.59,
      "hand": "right"
    },
    {
      "midi": 82,
      "time": 64.783,
      "duration": 0.109,
      "velocity": 0.59,
      "hand": "right"
    },
    {
      "midi": 48,
      "time": 64.891,
      "duration": 0.109,
      "velocity": 0.49,
      "hand": "left"
    },
    {
      "midi": 49,
      "time": 65,
      "duration": 0.217,
      "velocity": 0.49,
      "hand": "left"
    },
    {
      "midi": 83,
      "time": 65,
      "duration": 0.109,
      "velocity": 0.6,
      "hand": "right"
    },
    {
      "midi": 42,
      "time": 65.217,
      "duration": 0.217,
      "velocity": 0.49,
      "hand": "left"
    },
    {
      "midi": 85,
      "time": 65.217,
      "duration": 0.109,
      "velocity": 0.6,
      "hand": "right"
    },
    {
      "midi": 82,
      "time": 65.435,
      "duration": 0.109,
      "velocity": 0.6,
      "hand": "right"
    },
    {
      "midi": 49,
      "time": 65.652,
      "duration": 0.109,
      "velocity": 0.49,
      "hand": "left"
    },
    {
      "midi": 58,
      "time": 65.652,
      "duration": 0.109,
      "velocity": 0.49,
      "hand": "left"
    },
    {
      "midi": 78,
      "time": 65.652,
      "duration": 0.217,
      "velocity": 0.61,
      "hand": "right"
    },
    {
      "midi": 82,
      "time": 65.652,
      "duration": 0.217,
      "velocity": 0.61,
      "hand": "right"
    },
    {
      "midi": 85,
      "time": 65.652,
      "duration": 0.217,
      "velocity": 0.61,
      "hand": "right"
    },
    {
      "midi": 48,
      "time": 65.761,
      "duration": 0.109,
      "velocity": 0.49,
      "hand": "left"
    },
    {
      "midi": 49,
      "time": 65.87,
      "duration": 0.217,
      "velocity": 0.49,
      "hand": "left"
    },
    {
      "midi": 38,
      "time": 66.087,
      "duration": 0.217,
      "velocity": 0.49,
      "hand": "left"
    },
    {
      "midi": 86,
      "time": 66.087,
      "duration": 0.109,
      "velocity": 0.61,
      "hand": "right"
    },
    {
      "midi": 82,
      "time": 66.304,
      "duration": 0.109,
      "velocity": 0.61,
      "hand": "right"
    },
    {
      "midi": 50,
      "time": 66.522,
      "duration": 0.109,
      "velocity": 0.49,
      "hand": "left"
    },
    {
      "midi": 58,
      "time": 66.522,
      "duration": 0.109,
      "velocity": 0.49,
      "hand": "left"
    },
    {
      "midi": 78,
      "time": 66.522,
      "duration": 0.217,
      "velocity": 0.61,
      "hand": "right"
    },
    {
      "midi": 82,
      "time": 66.522,
      "duration": 0.217,
      "velocity": 0.61,
      "hand": "right"
    },
    {
      "midi": 86,
      "time": 66.522,
      "duration": 0.217,
      "velocity": 0.61,
      "hand": "right"
    },
    {
      "midi": 49,
      "time": 66.63,
      "duration": 0.109,
      "velocity": 0.49,
      "hand": "left"
    },
    {
      "midi": 50,
      "time": 66.739,
      "duration": 0.217,
      "velocity": 0.49,
      "hand": "left"
    },
    {
      "midi": 42,
      "time": 66.957,
      "duration": 0.217,
      "velocity": 0.49,
      "hand": "left"
    },
    {
      "midi": 85,
      "time": 66.957,
      "duration": 0.109,
      "velocity": 0.62,
      "hand": "right"
    },
    {
      "midi": 82,
      "time": 67.174,
      "duration": 0.109,
      "velocity": 0.62,
      "hand": "right"
    },
    {
      "midi": 49,
      "time": 67.391,
      "duration": 0.109,
      "velocity": 0.49,
      "hand": "left"
    },
    {
      "midi": 58,
      "time": 67.391,
      "duration": 0.109,
      "velocity": 0.49,
      "hand": "left"
    },
    {
      "midi": 78,
      "time": 67.391,
      "duration": 0.217,
      "velocity": 0.62,
      "hand": "right"
    },
    {
      "midi": 82,
      "time": 67.391,
      "duration": 0.217,
      "velocity": 0.62,
      "hand": "right"
    },
    {
      "midi": 85,
      "time": 67.391,
      "duration": 0.217,
      "velocity": 0.62,
      "hand": "right"
    },
    {
      "midi": 48,
      "time": 67.5,
      "duration": 0.109,
      "velocity": 0.49,
      "hand": "left"
    },
    {
      "midi": 49,
      "time": 67.609,
      "duration": 0.217,
      "velocity": 0.49,
      "hand": "left"
    },
    {
      "midi": 42,
      "time": 67.826,
      "duration": 0.217,
      "velocity": 0.49,
      "hand": "left"
    },
    {
      "midi": 78,
      "time": 67.826,
      "duration": 0.109,
      "velocity": 0.63,
      "hand": "right"
    },
    {
      "midi": 80,
      "time": 68.043,
      "duration": 0.109,
      "velocity": 0.64,
      "hand": "right"
    },
    {
      "midi": 49,
      "time": 68.261,
      "duration": 0.109,
      "velocity": 0.49,
      "hand": "left"
    },
    {
      "midi": 58,
      "time": 68.261,
      "duration": 0.109,
      "velocity": 0.49,
      "hand": "left"
    },
    {
      "midi": 78,
      "time": 68.261,
      "duration": 0.109,
      "velocity": 0.64,
      "hand": "right"
    },
    {
      "midi": 82,
      "time": 68.261,
      "duration": 0.109,
      "velocity": 0.64,
      "hand": "right"
    },
    {
      "midi": 48,
      "time": 68.37,
      "duration": 0.109,
      "velocity": 0.49,
      "hand": "left"
    },
    {
      "midi": 49,
      "time": 68.478,
      "duration": 0.217,
      "velocity": 0.49,
      "hand": "left"
    },
    {
      "midi": 83,
      "time": 68.478,
      "duration": 0.109,
      "velocity": 0.64,
      "hand": "right"
    },
    {
      "midi": 42,
      "time": 68.696,
      "duration": 0.217,
      "velocity": 0.49,
      "hand": "left"
    },
    {
      "midi": 85,
      "time": 68.696,
      "duration": 0.109,
      "velocity": 0.65,
      "hand": "right"
    },
    {
      "midi": 82,
      "time": 68.913,
      "duration": 0.109,
      "velocity": 0.65,
      "hand": "right"
    },
    {
      "midi": 49,
      "time": 69.13,
      "duration": 0.109,
      "velocity": 0.49,
      "hand": "left"
    },
    {
      "midi": 58,
      "time": 69.13,
      "duration": 0.109,
      "velocity": 0.49,
      "hand": "left"
    },
    {
      "midi": 78,
      "time": 69.13,
      "duration": 0.217,
      "velocity": 0.65,
      "hand": "right"
    },
    {
      "midi": 82,
      "time": 69.13,
      "duration": 0.217,
      "velocity": 0.65,
      "hand": "right"
    },
    {
      "midi": 85,
      "time": 69.13,
      "duration": 0.217,
      "velocity": 0.65,
      "hand": "right"
    },
    {
      "midi": 48,
      "time": 69.239,
      "duration": 0.109,
      "velocity": 0.49,
      "hand": "left"
    },
    {
      "midi": 49,
      "time": 69.348,
      "duration": 0.217,
      "velocity": 0.49,
      "hand": "left"
    },
    {
      "midi": 38,
      "time": 69.565,
      "duration": 0.217,
      "velocity": 0.49,
      "hand": "left"
    },
    {
      "midi": 86,
      "time": 69.565,
      "duration": 0.109,
      "velocity": 0.65,
      "hand": "right"
    },
    {
      "midi": 82,
      "time": 69.783,
      "duration": 0.109,
      "velocity": 0.65,
      "hand": "right"
    },
    {
      "midi": 50,
      "time": 70,
      "duration": 0.109,
      "velocity": 0.49,
      "hand": "left"
    },
    {
      "midi": 58,
      "time": 70,
      "duration": 0.109,
      "velocity": 0.49,
      "hand": "left"
    },
    {
      "midi": 78,
      "time": 70,
      "duration": 0.217,
      "velocity": 0.66,
      "hand": "right"
    },
    {
      "midi": 82,
      "time": 70,
      "duration": 0.217,
      "velocity": 0.66,
      "hand": "right"
    },
    {
      "midi": 86,
      "time": 70,
      "duration": 0.217,
      "velocity": 0.66,
      "hand": "right"
    },
    {
      "midi": 49,
      "time": 70.109,
      "duration": 0.109,
      "velocity": 0.49,
      "hand": "left"
    },
    {
      "midi": 50,
      "time": 70.217,
      "duration": 0.217,
      "velocity": 0.49,
      "hand": "left"
    },
    {
      "midi": 42,
      "time": 70.435,
      "duration": 0.217,
      "velocity": 0.49,
      "hand": "left"
    },
    {
      "midi": 85,
      "time": 70.435,
      "duration": 0.761,
      "velocity": 0.66,
      "hand": "right"
    },
    {
      "midi": 49,
      "time": 70.87,
      "duration": 0.109,
      "velocity": 0.49,
      "hand": "left"
    },
    {
      "midi": 58,
      "time": 70.87,
      "duration": 0.109,
      "velocity": 0.49,
      "hand": "left"
    },
    {
      "midi": 78,
      "time": 70.87,
      "duration": 0.326,
      "velocity": 0.71,
      "hand": "right"
    },
    {
      "midi": 82,
      "time": 70.87,
      "duration": 0.326,
      "velocity": 0.71,
      "hand": "right"
    },
    {
      "midi": 48,
      "time": 70.978,
      "duration": 0.109,
      "velocity": 0.49,
      "hand": "left"
    },
    {
      "midi": 49,
      "time": 71.087,
      "duration": 0.217,
      "velocity": 0.49,
      "hand": "left"
    },
    {
      "midi": 35,
      "time": 71.304,
      "duration": 0.109,
      "velocity": 0.49,
      "hand": "left"
    },
    {
      "midi": 59,
      "time": 71.304,
      "duration": 0.109,
      "velocity": 0.68,
      "hand": "right"
    },
    {
      "midi": 41,
      "time": 71.413,
      "duration": 0.109,
      "velocity": 0.49,
      "hand": "left"
    },
    {
      "midi": 61,
      "time": 71.522,
      "duration": 0.109,
      "velocity": 0.68,
      "hand": "right"
    },
    {
      "midi": 42,
      "time": 71.63,
      "duration": 0.109,
      "velocity": 0.49,
      "hand": "left"
    },
    {
      "midi": 50,
      "time": 71.739,
      "duration": 0.109,
      "velocity": 0.49,
      "hand": "left"
    },
    {
      "midi": 54,
      "time": 71.739,
      "duration": 0.109,
      "velocity": 0.68,
      "hand": "right"
    },
    {
      "midi": 62,
      "time": 71.739,
      "duration": 0.109,
      "velocity": 0.68,
      "hand": "right"
    },
    {
      "midi": 41,
      "time": 71.848,
      "duration": 0.109,
      "velocity": 0.49,
      "hand": "left"
    },
    {
      "midi": 64,
      "time": 71.957,
      "duration": 0.109,
      "velocity": 0.68,
      "hand": "right"
    },
    {
      "midi": 42,
      "time": 72.065,
      "duration": 0.109,
      "velocity": 0.49,
      "hand": "left"
    },
    {
      "midi": 35,
      "time": 72.174,
      "duration": 0.109,
      "velocity": 0.49,
      "hand": "left"
    },
    {
      "midi": 66,
      "time": 72.174,
      "duration": 0.109,
      "velocity": 0.69,
      "hand": "right"
    },
    {
      "midi": 41,
      "time": 72.283,
      "duration": 0.109,
      "velocity": 0.49,
      "hand": "left"
    },
    {
      "midi": 62,
      "time": 72.391,
      "duration": 0.109,
      "velocity": 0.69,
      "hand": "right"
    },
    {
      "midi": 42,
      "time": 72.5,
      "duration": 0.109,
      "velocity": 0.49,
      "hand": "left"
    },
    {
      "midi": 50,
      "time": 72.609,
      "duration": 0.109,
      "velocity": 0.49,
      "hand": "left"
    },
    {
      "midi": 54,
      "time": 72.609,
      "duration": 0.217,
      "velocity": 0.69,
      "hand": "right"
    },
    {
      "midi": 66,
      "time": 72.609,
      "duration": 0.217,
      "velocity": 0.69,
      "hand": "right"
    },
    {
      "midi": 41,
      "time": 72.717,
      "duration": 0.109,
      "velocity": 0.49,
      "hand": "left"
    },
    {
      "midi": 42,
      "time": 72.935,
      "duration": 0.109,
      "velocity": 0.49,
      "hand": "left"
    },
    {
      "midi": 35,
      "time": 73.043,
      "duration": 0.109,
      "velocity": 0.49,
      "hand": "left"
    },
    {
      "midi": 65,
      "time": 73.043,
      "duration": 0.109,
      "velocity": 0.69,
      "hand": "right"
    },
    {
      "midi": 41,
      "time": 73.152,
      "duration": 0.109,
      "velocity": 0.49,
      "hand": "left"
    },
    {
      "midi": 61,
      "time": 73.261,
      "duration": 0.109,
      "velocity": 0.69,
      "hand": "right"
    },
    {
      "midi": 42,
      "time": 73.37,
      "duration": 0.109,
      "velocity": 0.49,
      "hand": "left"
    },
    {
      "midi": 49,
      "time": 73.478,
      "duration": 0.109,
      "velocity": 0.49,
      "hand": "left"
    },
    {
      "midi": 54,
      "time": 73.478,
      "duration": 0.217,
      "velocity": 0.69,
      "hand": "right"
    },
    {
      "midi": 65,
      "time": 73.478,
      "duration": 0.217,
      "velocity": 0.69,
      "hand": "right"
    },
    {
      "midi": 41,
      "time": 73.587,
      "duration": 0.109,
      "velocity": 0.49,
      "hand": "left"
    },
    {
      "midi": 42,
      "time": 73.804,
      "duration": 0.109,
      "velocity": 0.49,
      "hand": "left"
    },
    {
      "midi": 35,
      "time": 73.913,
      "duration": 0.109,
      "velocity": 0.49,
      "hand": "left"
    },
    {
      "midi": 64,
      "time": 73.913,
      "duration": 0.109,
      "velocity": 0.7,
      "hand": "right"
    },
    {
      "midi": 41,
      "time": 74.022,
      "duration": 0.109,
      "velocity": 0.49,
      "hand": "left"
    },
    {
      "midi": 60,
      "time": 74.13,
      "duration": 0.109,
      "velocity": 0.7,
      "hand": "right"
    },
    {
      "midi": 42,
      "time": 74.239,
      "duration": 0.109,
      "velocity": 0.49,
      "hand": "left"
    },
    {
      "midi": 48,
      "time": 74.348,
      "duration": 0.109,
      "velocity": 0.49,
      "hand": "left"
    },
    {
      "midi": 54,
      "time": 74.348,
      "duration": 0.217,
      "velocity": 0.7,
      "hand": "right"
    },
    {
      "midi": 65,
      "time": 74.348,
      "duration": 0.217,
      "velocity": 0.7,
      "hand": "right"
    },
    {
      "midi": 41,
      "time": 74.457,
      "duration": 0.109,
      "velocity": 0.49,
      "hand": "left"
    },
    {
      "midi": 42,
      "time": 74.674,
      "duration": 0.109,
      "velocity": 0.49,
      "hand": "left"
    },
    {
      "midi": 35,
      "time": 74.783,
      "duration": 0.109,
      "velocity": 0.49,
      "hand": "left"
    },
    {
      "midi": 59,
      "time": 74.783,
      "duration": 0.109,
      "velocity": 0.7,
      "hand": "right"
    },
    {
      "midi": 41,
      "time": 74.891,
      "duration": 0.109,
      "velocity": 0.49,
      "hand": "left"
    },
    {
      "midi": 61,
      "time": 75,
      "duration": 0.109,
      "velocity": 0.71,
      "hand": "right"
    },
    {
      "midi": 42,
      "time": 75.109,
      "duration": 0.109,
      "velocity": 0.49,
      "hand": "left"
    },
    {
      "midi": 50,
      "time": 75.217,
      "duration": 0.109,
      "velocity": 0.49,
      "hand": "left"
    },
    {
      "midi": 54,
      "time": 75.217,
      "duration": 0.109,
      "velocity": 0.71,
      "hand": "right"
    },
    {
      "midi": 62,
      "time": 75.217,
      "duration": 0.109,
      "velocity": 0.71,
      "hand": "right"
    },
    {
      "midi": 41,
      "time": 75.326,
      "duration": 0.109,
      "velocity": 0.49,
      "hand": "left"
    },
    {
      "midi": 64,
      "time": 75.435,
      "duration": 0.109,
      "velocity": 0.71,
      "hand": "right"
    },
    {
      "midi": 42,
      "time": 75.543,
      "duration": 0.109,
      "velocity": 0.49,
      "hand": "left"
    },
    {
      "midi": 35,
      "time": 75.652,
      "duration": 0.109,
      "velocity": 0.49,
      "hand": "left"
    },
    {
      "midi": 66,
      "time": 75.652,
      "duration": 0.109,
      "velocity": 0.71,
      "hand": "right"
    },
    {
      "midi": 41,
      "time": 75.761,
      "duration": 0.109,
      "velocity": 0.49,
      "hand": "left"
    },
    {
      "midi": 62,
      "time": 75.87,
      "duration": 0.109,
      "velocity": 0.72,
      "hand": "right"
    },
    {
      "midi": 42,
      "time": 75.978,
      "duration": 0.109,
      "velocity": 0.49,
      "hand": "left"
    },
    {
      "midi": 50,
      "time": 76.087,
      "duration": 0.109,
      "velocity": 0.49,
      "hand": "left"
    },
    {
      "midi": 59,
      "time": 76.087,
      "duration": 0.109,
      "velocity": 0.72,
      "hand": "right"
    },
    {
      "midi": 66,
      "time": 76.087,
      "duration": 0.109,
      "velocity": 0.72,
      "hand": "right"
    },
    {
      "midi": 41,
      "time": 76.196,
      "duration": 0.109,
      "velocity": 0.49,
      "hand": "left"
    },
    {
      "midi": 71,
      "time": 76.304,
      "duration": 0.109,
      "velocity": 0.72,
      "hand": "right"
    },
    {
      "midi": 42,
      "time": 76.413,
      "duration": 0.109,
      "velocity": 0.49,
      "hand": "left"
    },
    {
      "midi": 38,
      "time": 76.522,
      "duration": 0.109,
      "velocity": 0.49,
      "hand": "left"
    },
    {
      "midi": 69,
      "time": 76.522,
      "duration": 0.109,
      "velocity": 0.72,
      "hand": "right"
    },
    {
      "midi": 44,
      "time": 76.63,
      "duration": 0.109,
      "velocity": 0.49,
      "hand": "left"
    },
    {
      "midi": 66,
      "time": 76.739,
      "duration": 0.109,
      "velocity": 0.72,
      "hand": "right"
    },
    {
      "midi": 45,
      "time": 76.848,
      "duration": 0.109,
      "velocity": 0.49,
      "hand": "left"
    },
    {
      "midi": 54,
      "time": 76.957,
      "duration": 0.109,
      "velocity": 0.49,
      "hand": "left"
    },
    {
      "midi": 57,
      "time": 76.957,
      "duration": 0.109,
      "velocity": 0.72,
      "hand": "right"
    },
    {
      "midi": 64,
      "time": 76.957,
      "duration": 0.109,
      "velocity": 0.72,
      "hand": "right"
    },
    {
      "midi": 44,
      "time": 77.065,
      "duration": 0.109,
      "velocity": 0.49,
      "hand": "left"
    },
    {
      "midi": 66,
      "time": 77.174,
      "duration": 0.109,
      "velocity": 0.72,
      "hand": "right"
    },
    {
      "midi": 45,
      "time": 77.283,
      "duration": 0.109,
      "velocity": 0.49,
      "hand": "left"
    },
    {
      "midi": 38,
      "time": 77.391,
      "duration": 0.109,
      "velocity": 0.49,
      "hand": "left"
    },
    {
      "midi": 69,
      "time": 77.391,
      "duration": 0.761,
      "velocity": 0.72,
      "hand": "right"
    },
    {
      "midi": 44,
      "time": 77.5,
      "duration": 0.109,
      "velocity": 0.49,
      "hand": "left"
    },
    {
      "midi": 45,
      "time": 77.717,
      "duration": 0.109,
      "velocity": 0.49,
      "hand": "left"
    },
    {
      "midi": 54,
      "time": 77.826,
      "duration": 0.109,
      "velocity": 0.49,
      "hand": "left"
    },
    {
      "midi": 57,
      "time": 77.826,
      "duration": 0.326,
      "velocity": 0.71,
      "hand": "right"
    },
    {
      "midi": 64,
      "time": 77.826,
      "duration": 0.326,
      "velocity": 0.71,
      "hand": "right"
    },
    {
      "midi": 44,
      "time": 77.935,
      "duration": 0.109,
      "velocity": 0.49,
      "hand": "left"
    },
    {
      "midi": 45,
      "time": 78.152,
      "duration": 0.109,
      "velocity": 0.49,
      "hand": "left"
    },
    {
      "midi": 35,
      "time": 78.261,
      "duration": 0.109,
      "velocity": 0.49,
      "hand": "left"
    },
    {
      "midi": 71,
      "time": 78.261,
      "duration": 0.109,
      "velocity": 0.73,
      "hand": "right"
    },
    {
      "midi": 41,
      "time": 78.37,
      "duration": 0.109,
      "velocity": 0.49,
      "hand": "left"
    },
    {
      "midi": 73,
      "time": 78.478,
      "duration": 0.109,
      "velocity": 0.74,
      "hand": "right"
    },
    {
      "midi": 42,
      "time": 78.587,
      "duration": 0.109,
      "velocity": 0.49,
      "hand": "left"
    },
    {
      "midi": 50,
      "time": 78.696,
      "duration": 0.109,
      "velocity": 0.49,
      "hand": "left"
    },
    {
      "midi": 66,
      "time": 78.696,
      "duration": 0.326,
      "velocity": 0.71,
      "hand": "right"
    },
    {
      "midi": 74,
      "time": 78.696,
      "duration": 0.109,
      "velocity": 0.74,
      "hand": "right"
    },
    {
      "midi": 41,
      "time": 78.804,
      "duration": 0.109,
      "velocity": 0.49,
      "hand": "left"
    },
    {
      "midi": 76,
      "time": 78.913,
      "duration": 0.109,
      "velocity": 0.74,
      "hand": "right"
    },
    {
      "midi": 42,
      "time": 79.022,
      "duration": 0.109,
      "velocity": 0.49,
      "hand": "left"
    },
    {
      "midi": 35,
      "time": 79.13,
      "duration": 0.109,
      "velocity": 0.49,
      "hand": "left"
    },
    {
      "midi": 78,
      "time": 79.13,
      "duration": 0.109,
      "velocity": 0.74,
      "hand": "right"
    },
    {
      "midi": 41,
      "time": 79.239,
      "duration": 0.109,
      "velocity": 0.49,
      "hand": "left"
    },
    {
      "midi": 74,
      "time": 79.348,
      "duration": 0.109,
      "velocity": 0.75,
      "hand": "right"
    },
    {
      "midi": 42,
      "time": 79.457,
      "duration": 0.109,
      "velocity": 0.49,
      "hand": "left"
    },
    {
      "midi": 50,
      "time": 79.565,
      "duration": 0.109,
      "velocity": 0.49,
      "hand": "left"
    },
    {
      "midi": 66,
      "time": 79.565,
      "duration": 0.326,
      "velocity": 0.71,
      "hand": "right"
    },
    {
      "midi": 78,
      "time": 79.565,
      "duration": 0.326,
      "velocity": 0.75,
      "hand": "right"
    },
    {
      "midi": 41,
      "time": 79.674,
      "duration": 0.109,
      "velocity": 0.49,
      "hand": "left"
    },
    {
      "midi": 42,
      "time": 79.891,
      "duration": 0.109,
      "velocity": 0.49,
      "hand": "left"
    },
    {
      "midi": 35,
      "time": 80,
      "duration": 0.109,
      "velocity": 0.49,
      "hand": "left"
    },
    {
      "midi": 77,
      "time": 80,
      "duration": 0.109,
      "velocity": 0.75,
      "hand": "right"
    },
    {
      "midi": 41,
      "time": 80.109,
      "duration": 0.109,
      "velocity": 0.49,
      "hand": "left"
    },
    {
      "midi": 73,
      "time": 80.217,
      "duration": 0.109,
      "velocity": 0.76,
      "hand": "right"
    },
    {
      "midi": 42,
      "time": 80.326,
      "duration": 0.109,
      "velocity": 0.49,
      "hand": "left"
    },
    {
      "midi": 50,
      "time": 80.435,
      "duration": 0.109,
      "velocity": 0.49,
      "hand": "left"
    },
    {
      "midi": 66,
      "time": 80.435,
      "duration": 0.326,
      "velocity": 0.71,
      "hand": "right"
    },
    {
      "midi": 77,
      "time": 80.435,
      "duration": 0.217,
      "velocity": 0.76,
      "hand": "right"
    },
    {
      "midi": 41,
      "time": 80.543,
      "duration": 0.109,
      "velocity": 0.49,
      "hand": "left"
    },
    {
      "midi": 42,
      "time": 80.761,
      "duration": 0.109,
      "velocity": 0.49,
      "hand": "left"
    },
    {
      "midi": 35,
      "time": 80.87,
      "duration": 0.109,
      "velocity": 0.49,
      "hand": "left"
    },
    {
      "midi": 76,
      "time": 80.87,
      "duration": 0.109,
      "velocity": 0.76,
      "hand": "right"
    },
    {
      "midi": 41,
      "time": 80.978,
      "duration": 0.109,
      "velocity": 0.49,
      "hand": "left"
    },
    {
      "midi": 72,
      "time": 81.087,
      "duration": 0.109,
      "velocity": 0.76,
      "hand": "right"
    },
    {
      "midi": 42,
      "time": 81.196,
      "duration": 0.109,
      "velocity": 0.49,
      "hand": "left"
    },
    {
      "midi": 50,
      "time": 81.304,
      "duration": 0.109,
      "velocity": 0.49,
      "hand": "left"
    },
    {
      "midi": 66,
      "time": 81.304,
      "duration": 0.326,
      "velocity": 0.71,
      "hand": "right"
    },
    {
      "midi": 76,
      "time": 81.304,
      "duration": 0.326,
      "velocity": 0.76,
      "hand": "right"
    },
    {
      "midi": 41,
      "time": 81.413,
      "duration": 0.109,
      "velocity": 0.49,
      "hand": "left"
    },
    {
      "midi": 42,
      "time": 81.63,
      "duration": 0.109,
      "velocity": 0.49,
      "hand": "left"
    },
    {
      "midi": 35,
      "time": 81.739,
      "duration": 0.109,
      "velocity": 0.49,
      "hand": "left"
    },
    {
      "midi": 71,
      "time": 81.739,
      "duration": 0.109,
      "velocity": 0.76,
      "hand": "right"
    },
    {
      "midi": 41,
      "time": 81.848,
      "duration": 0.109,
      "velocity": 0.49,
      "hand": "left"
    },
    {
      "midi": 73,
      "time": 81.957,
      "duration": 0.109,
      "velocity": 0.76,
      "hand": "right"
    },
    {
      "midi": 42,
      "time": 82.065,
      "duration": 0.109,
      "velocity": 0.49,
      "hand": "left"
    },
    {
      "midi": 47,
      "time": 82.174,
      "duration": 0.217,
      "velocity": 0.49,
      "hand": "left"
    },
    {
      "midi": 59,
      "time": 82.174,
      "duration": 0.217,
      "velocity": 0.49,
      "hand": "left"
    },
    {
      "midi": 74,
      "time": 82.174,
      "duration": 0.109,
      "velocity": 0.77,
      "hand": "right"
    },
    {
      "midi": 76,
      "time": 82.391,
      "duration": 0.109,
      "velocity": 0.77,
      "hand": "right"
    },
    {
      "midi": 45,
      "time": 82.609,
      "duration": 0.217,
      "velocity": 0.49,
      "hand": "left"
    },
    {
      "midi": 47,
      "time": 82.609,
      "duration": 0.217,
      "velocity": 0.49,
      "hand": "left"
    },
    {
      "midi": 57,
      "time": 82.609,
      "duration": 0.217,
      "velocity": 0.49,
      "hand": "left"
    },
    {
      "midi": 78,
      "time": 82.609,
      "duration": 0.109,
      "velocity": 0.77,
      "hand": "right"
    },
    {
      "midi": 74,
      "time": 82.826,
      "duration": 0.109,
      "velocity": 0.77,
      "hand": "right"
    },
    {
      "midi": 43,
      "time": 83.043,
      "duration": 0.217,
      "velocity": 0.49,
      "hand": "left"
    },
    {
      "midi": 47,
      "time": 83.043,
      "duration": 0.217,
      "velocity": 0.49,
      "hand": "left"
    },
    {
      "midi": 55,
      "time": 83.043,
      "duration": 0.217,
      "velocity": 0.49,
      "hand": "left"
    },
    {
      "midi": 71,
      "time": 83.043,
      "duration": 0.326,
      "velocity": 0.71,
      "hand": "right"
    },
    {
      "midi": 74,
      "time": 83.043,
      "duration": 0.326,
      "velocity": 0.71,
      "hand": "right"
    },
    {
      "midi": 78,
      "time": 83.043,
      "duration": 0.109,
      "velocity": 0.78,
      "hand": "right"
    },
    {
      "midi": 83,
      "time": 83.261,
      "duration": 0.109,
      "velocity": 0.78,
      "hand": "right"
    },
    {
      "midi": 42,
      "time": 83.478,
      "duration": 0.326,
      "velocity": 0.49,
      "hand": "left"
    },
    {
      "midi": 47,
      "time": 83.478,
      "duration": 0.326,
      "velocity": 0.49,
      "hand": "left"
    },
    {
      "midi": 54,
      "time": 83.478,
      "duration": 0.326,
      "velocity": 0.49,
      "hand": "left"
    },
    {
      "midi": 78,
      "time": 83.478,
      "duration": 0.109,
      "velocity": 0.78,
      "hand": "right"
    },
    {
      "midi": 74,
      "time": 83.696,
      "duration": 0.109,
      "velocity": 0.78,
      "hand": "right"
    },
    {
      "midi": 40,
      "time": 83.913,
      "duration": 0.326,
      "velocity": 0.49,
      "hand": "left"
    },
    {
      "midi": 47,
      "time": 83.913,
      "duration": 0.326,
      "velocity": 0.49,
      "hand": "left"
    },
    {
      "midi": 52,
      "time": 83.913,
      "duration": 0.326,
      "velocity": 0.49,
      "hand": "left"
    },
    {
      "midi": 71,
      "time": 83.913,
      "duration": 0.326,
      "velocity": 0.71,
      "hand": "right"
    },
    {
      "midi": 74,
      "time": 83.913,
      "duration": 0.326,
      "velocity": 0.71,
      "hand": "right"
    },
    {
      "midi": 78,
      "time": 83.913,
      "duration": 0.109,
      "velocity": 0.79,
      "hand": "right"
    },
    {
      "midi": 83,
      "time": 84.13,
      "duration": 0.109,
      "velocity": 0.79,
      "hand": "right"
    },
    {
      "midi": 38,
      "time": 84.348,
      "duration": 0.326,
      "velocity": 0.49,
      "hand": "left"
    },
    {
      "midi": 47,
      "time": 84.348,
      "duration": 0.326,
      "velocity": 0.49,
      "hand": "left"
    },
    {
      "midi": 50,
      "time": 84.348,
      "duration": 0.326,
      "velocity": 0.49,
      "hand": "left"
    },
    {
      "midi": 71,
      "time": 84.348,
      "duration": 0.761,
      "velocity": 0.79,
      "hand": "right"
    },
    {
      "midi": 37,
      "time": 84.783,
      "duration": 0.326,
      "velocity": 0.49,
      "hand": "left"
    },
    {
      "midi": 47,
      "time": 84.783,
      "duration": 0.326,
      "velocity": 0.49,
      "hand": "left"
    },
    {
      "midi": 49,
      "time": 84.783,
      "duration": 0.326,
      "velocity": 0.49,
      "hand": "left"
    },
    {
      "midi": 35,
      "time": 85.217,
      "duration": 0.217,
      "velocity": 0.49,
      "hand": "left"
    },
    {
      "midi": 47,
      "time": 85.217,
      "duration": 0.217,
      "velocity": 0.49,
      "hand": "left"
    },
    {
      "midi": 83,
      "time": 85.217,
      "duration": 0.652,
      "velocity": 0.8,
      "hand": "right"
    },
    {
      "midi": 45,
      "time": 85.435,
      "duration": 0.109,
      "velocity": 0.49,
      "hand": "left"
    },
    {
      "midi": 85,
      "time": 85.435,
      "duration": 0.109,
      "velocity": 0.8,
      "hand": "right"
    },
    {
      "midi": 43,
      "time": 85.652,
      "duration": 0.109,
      "velocity": 0.49,
      "hand": "left"
    },
    {
      "midi": 86,
      "time": 85.652,
      "duration": 0.109,
      "velocity": 0.8,
      "hand": "right"
    },
    {
      "midi": 42,
      "time": 85.761,
      "duration": 0.109,
      "velocity": 0.49,
      "hand": "left"
    },
    {
      "midi": 88,
      "time": 85.761,
      "duration": 0.109,
      "velocity": 0.8,
      "hand": "right"
    },
    {
      "midi": 35,
      "time": 85.978,
      "duration": 0.217,
      "velocity": 0.49,
      "hand": "left"
    },
    {
      "midi": 47,
      "time": 85.978,
      "duration": 0.217,
      "velocity": 0.49,
      "hand": "left"
    },
    {
      "midi": 83,
      "time": 85.978,
      "duration": 0.652,
      "velocity": 0.71,
      "hand": "right"
    },
    {
      "midi": 90,
      "time": 85.978,
      "duration": 0.217,
      "velocity": 0.8,
      "hand": "right"
    },
    {
      "midi": 45,
      "time": 86.196,
      "duration": 0.109,
      "velocity": 0.49,
      "hand": "left"
    },
    {
      "midi": 86,
      "time": 86.196,
      "duration": 0.109,
      "velocity": 0.8,
      "hand": "right"
    },
    {
      "midi": 43,
      "time": 86.413,
      "duration": 0.109,
      "velocity": 0.49,
      "hand": "left"
    },
    {
      "midi": 90,
      "time": 86.413,
      "duration": 0.217,
      "velocity": 0.8,
      "hand": "right"
    },
    {
      "midi": 42,
      "time": 86.63,
      "duration": 0.109,
      "velocity": 0.49,
      "hand": "left"
    },
    {
      "midi": 35,
      "time": 86.739,
      "duration": 0.217,
      "velocity": 0.49,
      "hand": "left"
    },
    {
      "midi": 47,
      "time": 86.739,
      "duration": 0.217,
      "velocity": 0.49,
      "hand": "left"
    },
    {
      "midi": 83,
      "time": 86.739,
      "duration": 0.652,
      "velocity": 0.71,
      "hand": "right"
    },
    {
      "midi": 89,
      "time": 86.739,
      "duration": 0.109,
      "velocity": 0.8,
      "hand": "right"
    },
    {
      "midi": 45,
      "time": 86.957,
      "duration": 0.109,
      "velocity": 0.49,
      "hand": "left"
    },
    {
      "midi": 85,
      "time": 86.957,
      "duration": 0.109,
      "velocity": 0.8,
      "hand": "right"
    },
    {
      "midi": 43,
      "time": 87.174,
      "duration": 0.109,
      "velocity": 0.49,
      "hand": "left"
    },
    {
      "midi": 89,
      "time": 87.174,
      "duration": 0.217,
      "velocity": 0.8,
      "hand": "right"
    },
    {
      "midi": 42,
      "time": 87.391,
      "duration": 0.109,
      "velocity": 0.49,
      "hand": "left"
    },
    {
      "midi": 35,
      "time": 87.609,
      "duration": 0.217,
      "velocity": 0.49,
      "hand": "left"
    },
    {
      "midi": 47,
      "time": 87.609,
      "duration": 0.217,
      "velocity": 0.49,
      "hand": "left"
    },
    {
      "midi": 83,
      "time": 87.609,
      "duration": 0.652,
      "velocity": 0.71,
      "hand": "right"
    },
    {
      "midi": 88,
      "time": 87.609,
      "duration": 0.109,
      "velocity": 0.8,
      "hand": "right"
    },
    {
      "midi": 45,
      "time": 87.717,
      "duration": 0.109,
      "velocity": 0.49,
      "hand": "left"
    },
    {
      "midi": 84,
      "time": 87.717,
      "duration": 0.109,
      "velocity": 0.8,
      "hand": "right"
    },
    {
      "midi": 43,
      "time": 87.935,
      "duration": 0.109,
      "velocity": 0.49,
      "hand": "left"
    },
    {
      "midi": 88,
      "time": 87.935,
      "duration": 0.217,
      "velocity": 0.8,
      "hand": "right"
    },
    {
      "midi": 42,
      "time": 88.152,
      "duration": 0.109,
      "velocity": 0.49,
      "hand": "left"
    },
    {
      "midi": 35,
      "time": 88.37,
      "duration": 0.217,
      "velocity": 0.49,
      "hand": "left"
    },
    {
      "midi": 47,
      "time": 88.37,
      "duration": 0.217,
      "velocity": 0.49,
      "hand": "left"
    },
    {
      "midi": 83,
      "time": 88.37,
      "duration": 0.652,
      "velocity": 0.8,
      "hand": "right"
    },
    {
      "midi": 45,
      "time": 88.478,
      "duration": 0.109,
      "velocity": 0.49,
      "hand": "left"
    },
    {
      "midi": 85,
      "time": 88.478,
      "duration": 0.109,
      "velocity": 0.8,
      "hand": "right"
    },
    {
      "midi": 43,
      "time": 88.696,
      "duration": 0.109,
      "velocity": 0.49,
      "hand": "left"
    },
    {
      "midi": 86,
      "time": 88.696,
      "duration": 0.109,
      "velocity": 0.8,
      "hand": "right"
    },
    {
      "midi": 42,
      "time": 88.913,
      "duration": 0.109,
      "velocity": 0.49,
      "hand": "left"
    },
    {
      "midi": 88,
      "time": 88.913,
      "duration": 0.109,
      "velocity": 0.8,
      "hand": "right"
    },
    {
      "midi": 35,
      "time": 89.13,
      "duration": 0.217,
      "velocity": 0.49,
      "hand": "left"
    },
    {
      "midi": 47,
      "time": 89.13,
      "duration": 0.217,
      "velocity": 0.49,
      "hand": "left"
    },
    {
      "midi": 83,
      "time": 89.13,
      "duration": 0.652,
      "velocity": 0.71,
      "hand": "right"
    },
    {
      "midi": 90,
      "time": 89.13,
      "duration": 0.109,
      "velocity": 0.8,
      "hand": "right"
    },
    {
      "midi": 45,
      "time": 89.348,
      "duration": 0.109,
      "velocity": 0.49,
      "hand": "left"
    },
    {
      "midi": 86,
      "time": 89.348,
      "duration": 0.109,
      "velocity": 0.8,
      "hand": "right"
    },
    {
      "midi": 43,
      "time": 89.457,
      "duration": 0.109,
      "velocity": 0.49,
      "hand": "left"
    },
    {
      "midi": 90,
      "time": 89.457,
      "duration": 0.109,
      "velocity": 0.8,
      "hand": "right"
    },
    {
      "midi": 42,
      "time": 89.674,
      "duration": 0.109,
      "velocity": 0.49,
      "hand": "left"
    },
    {
      "midi": 95,
      "time": 89.674,
      "duration": 0.109,
      "velocity": 0.8,
      "hand": "right"
    },
    {
      "midi": 38,
      "time": 89.891,
      "duration": 0.217,
      "velocity": 0.49,
      "hand": "left"
    },
    {
      "midi": 50,
      "time": 89.891,
      "duration": 0.217,
      "velocity": 0.49,
      "hand": "left"
    },
    {
      "midi": 81,
      "time": 89.891,
      "duration": 0.652,
      "velocity": 0.71,
      "hand": "right"
    },
    {
      "midi": 86,
      "time": 89.891,
      "duration": 0.435,
      "velocity": 0.71,
      "hand": "right"
    },
    {
      "midi": 93,
      "time": 89.891,
      "duration": 0.109,
      "velocity": 0.8,
      "hand": "right"
    },
    {
      "midi": 49,
      "time": 90.109,
      "duration": 0.109,
      "velocity": 0.49,
      "hand": "left"
    },
    {
      "midi": 90,
      "time": 90.109,
      "duration": 0.109,
      "velocity": 0.8,
      "hand": "right"
    },
    {
      "midi": 47,
      "time": 90.326,
      "duration": 0.109,
      "velocity": 0.49,
      "hand": "left"
    },
    {
      "midi": 86,
      "time": 90.326,
      "duration": 0.326,
      "velocity": 0.8,
      "hand": "right"
    },
    {
      "midi": 45,
      "time": 90.435,
      "duration": 0.109,
      "velocity": 0.49,
      "hand": "left"
    },
    {
      "midi": 90,
      "time": 90.435,
      "duration": 0.109,
      "velocity": 0.8,
      "hand": "right"
    },
    {
      "midi": 38,
      "time": 90.652,
      "duration": 0.217,
      "velocity": 0.49,
      "hand": "left"
    },
    {
      "midi": 50,
      "time": 90.652,
      "duration": 0.217,
      "velocity": 0.49,
      "hand": "left"
    },
    {
      "midi": 81,
      "time": 90.652,
      "duration": 0.652,
      "velocity": 0.71,
      "hand": "right"
    },
    {
      "midi": 86,
      "time": 90.652,
      "duration": 0.652,
      "velocity": 0.71,
      "hand": "right"
    },
    {
      "midi": 93,
      "time": 90.652,
      "duration": 0.652,
      "velocity": 0.8,
      "hand": "right"
    },
    {
      "midi": 49,
      "time": 90.87,
      "duration": 0.109,
      "velocity": 0.49,
      "hand": "left"
    },
    {
      "midi": 47,
      "time": 91.087,
      "duration": 0.109,
      "velocity": 0.49,
      "hand": "left"
    },
    {
      "midi": 45,
      "time": 91.304,
      "duration": 0.109,
      "velocity": 0.49,
      "hand": "left"
    },
    {
      "midi": 35,
      "time": 91.413,
      "duration": 0.217,
      "velocity": 0.49,
      "hand": "left"
    },
    {
      "midi": 47,
      "time": 91.413,
      "duration": 0.217,
      "velocity": 0.49,
      "hand": "left"
    },
    {
      "midi": 83,
      "time": 91.413,
      "duration": 0.652,
      "velocity": 0.8,
      "hand": "right"
    },
    {
      "midi": 45,
      "time": 91.63,
      "duration": 0.109,
      "velocity": 0.49,
      "hand": "left"
    },
    {
      "midi": 85,
      "time": 91.63,
      "duration": 0.109,
      "velocity": 0.8,
      "hand": "right"
    },
    {
      "midi": 43,
      "time": 91.848,
      "duration": 0.109,
      "velocity": 0.49,
      "hand": "left"
    },
    {
      "midi": 86,
      "time": 91.848,
      "duration": 0.109,
      "velocity": 0.8,
      "hand": "right"
    },
    {
      "midi": 42,
      "time": 92.065,
      "duration": 0.109,
      "velocity": 0.49,
      "hand": "left"
    },
    {
      "midi": 88,
      "time": 92.065,
      "duration": 0.109,
      "velocity": 0.8,
      "hand": "right"
    },
    {
      "midi": 35,
      "time": 92.283,
      "duration": 0.217,
      "velocity": 0.49,
      "hand": "left"
    },
    {
      "midi": 47,
      "time": 92.283,
      "duration": 0.217,
      "velocity": 0.49,
      "hand": "left"
    },
    {
      "midi": 83,
      "time": 92.283,
      "duration": 0.652,
      "velocity": 0.71,
      "hand": "right"
    },
    {
      "midi": 90,
      "time": 92.283,
      "duration": 0.217,
      "velocity": 0.8,
      "hand": "right"
    },
    {
      "midi": 45,
      "time": 92.391,
      "duration": 0.109,
      "velocity": 0.49,
      "hand": "left"
    },
    {
      "midi": 86,
      "time": 92.391,
      "duration": 0.109,
      "velocity": 0.8,
      "hand": "right"
    },
    {
      "midi": 43,
      "time": 92.609,
      "duration": 0.109,
      "velocity": 0.49,
      "hand": "left"
    },
    {
      "midi": 90,
      "time": 92.609,
      "duration": 0.217,
      "velocity": 0.8,
      "hand": "right"
    },
    {
      "midi": 42,
      "time": 92.826,
      "duration": 0.109,
      "velocity": 0.49,
      "hand": "left"
    },
    {
      "midi": 35,
      "time": 93.043,
      "duration": 0.217,
      "velocity": 0.49,
      "hand": "left"
    },
    {
      "midi": 47,
      "time": 93.043,
      "duration": 0.217,
      "velocity": 0.49,
      "hand": "left"
    },
    {
      "midi": 83,
      "time": 93.043,
      "duration": 0.652,
      "velocity": 0.71,
      "hand": "right"
    },
    {
      "midi": 89,
      "time": 93.043,
      "duration": 0.217,
      "velocity": 0.8,
      "hand": "right"
    },
    {
      "midi": 45,
      "time": 93.152,
      "duration": 0.109,
      "velocity": 0.49,
      "hand": "left"
    },
    {
      "midi": 85,
      "time": 93.152,
      "duration": 0.109,
      "velocity": 0.8,
      "hand": "right"
    },
    {
      "midi": 43,
      "time": 93.37,
      "duration": 0.109,
      "velocity": 0.49,
      "hand": "left"
    },
    {
      "midi": 89,
      "time": 93.37,
      "duration": 0.217,
      "velocity": 0.8,
      "hand": "right"
    },
    {
      "midi": 42,
      "time": 93.587,
      "duration": 0.109,
      "velocity": 0.49,
      "hand": "left"
    },
    {
      "midi": 35,
      "time": 93.804,
      "duration": 0.217,
      "velocity": 0.49,
      "hand": "left"
    },
    {
      "midi": 47,
      "time": 93.804,
      "duration": 0.217,
      "velocity": 0.49,
      "hand": "left"
    },
    {
      "midi": 83,
      "time": 93.804,
      "duration": 0.652,
      "velocity": 0.71,
      "hand": "right"
    },
    {
      "midi": 88,
      "time": 93.804,
      "duration": 0.217,
      "velocity": 0.8,
      "hand": "right"
    },
    {
      "midi": 45,
      "time": 94.022,
      "duration": 0.109,
      "velocity": 0.49,
      "hand": "left"
    },
    {
      "midi": 84,
      "time": 94.022,
      "duration": 0.109,
      "velocity": 0.8,
      "hand": "right"
    },
    {
      "midi": 43,
      "time": 94.13,
      "duration": 0.109,
      "velocity": 0.49,
      "hand": "left"
    },
    {
      "midi": 88,
      "time": 94.13,
      "duration": 0.217,
      "velocity": 0.8,
      "hand": "right"
    },
    {
      "midi": 42,
      "time": 94.348,
      "duration": 0.109,
      "velocity": 0.49,
      "hand": "left"
    },
    {
      "midi": 35,
      "time": 94.565,
      "duration": 0.217,
      "velocity": 0.49,
      "hand": "left"
    },
    {
      "midi": 47,
      "time": 94.565,
      "duration": 0.217,
      "velocity": 0.49,
      "hand": "left"
    },
    {
      "midi": 83,
      "time": 94.565,
      "duration": 0.652,
      "velocity": 0.8,
      "hand": "right"
    },
    {
      "midi": 45,
      "time": 94.783,
      "duration": 0.109,
      "velocity": 0.49,
      "hand": "left"
    },
    {
      "midi": 85,
      "time": 94.783,
      "duration": 0.109,
      "velocity": 0.8,
      "hand": "right"
    },
    {
      "midi": 43,
      "time": 95,
      "duration": 0.109,
      "velocity": 0.49,
      "hand": "left"
    },
    {
      "midi": 86,
      "time": 95,
      "duration": 0.109,
      "velocity": 0.8,
      "hand": "right"
    },
    {
      "midi": 42,
      "time": 95.109,
      "duration": 0.109,
      "velocity": 0.49,
      "hand": "left"
    },
    {
      "midi": 88,
      "time": 95.109,
      "duration": 0.109,
      "velocity": 0.8,
      "hand": "right"
    },
    {
      "midi": 35,
      "time": 95.326,
      "duration": 0.217,
      "velocity": 0.49,
      "hand": "left"
    },
    {
      "midi": 47,
      "time": 95.326,
      "duration": 0.217,
      "velocity": 0.49,
      "hand": "left"
    },
    {
      "midi": 83,
      "time": 95.326,
      "duration": 0.652,
      "velocity": 0.71,
      "hand": "right"
    },
    {
      "midi": 90,
      "time": 95.326,
      "duration": 0.109,
      "velocity": 0.8,
      "hand": "right"
    },
    {
      "midi": 45,
      "time": 95.543,
      "duration": 0.109,
      "velocity": 0.49,
      "hand": "left"
    },
    {
      "midi": 86,
      "time": 95.543,
      "duration": 0.109,
      "velocity": 0.8,
      "hand": "right"
    },
    {
      "midi": 43,
      "time": 95.761,
      "duration": 0.109,
      "velocity": 0.49,
      "hand": "left"
    },
    {
      "midi": 90,
      "time": 95.761,
      "duration": 0.109,
      "velocity": 0.8,
      "hand": "right"
    },
    {
      "midi": 42,
      "time": 95.978,
      "duration": 0.109,
      "velocity": 0.49,
      "hand": "left"
    },
    {
      "midi": 95,
      "time": 95.978,
      "duration": 0.109,
      "velocity": 0.8,
      "hand": "right"
    },
    {
      "midi": 35,
      "time": 96.087,
      "duration": 0.217,
      "velocity": 0.49,
      "hand": "left"
    },
    {
      "midi": 47,
      "time": 96.087,
      "duration": 0.217,
      "velocity": 0.49,
      "hand": "left"
    },
    {
      "midi": 81,
      "time": 96.087,
      "duration": 0.652,
      "velocity": 0.71,
      "hand": "right"
    },
    {
      "midi": 86,
      "time": 96.087,
      "duration": 0.435,
      "velocity": 0.71,
      "hand": "right"
    },
    {
      "midi": 93,
      "time": 96.087,
      "duration": 0.109,
      "velocity": 0.8,
      "hand": "right"
    },
    {
      "midi": 45,
      "time": 96.304,
      "duration": 0.109,
      "velocity": 0.49,
      "hand": "left"
    },
    {
      "midi": 90,
      "time": 96.304,
      "duration": 0.109,
      "velocity": 0.8,
      "hand": "right"
    },
    {
      "midi": 43,
      "time": 96.522,
      "duration": 0.109,
      "velocity": 0.49,
      "hand": "left"
    },
    {
      "midi": 86,
      "time": 96.522,
      "duration": 0.326,
      "velocity": 0.8,
      "hand": "right"
    },
    {
      "midi": 42,
      "time": 96.739,
      "duration": 0.109,
      "velocity": 0.49,
      "hand": "left"
    },
    {
      "midi": 90,
      "time": 96.739,
      "duration": 0.109,
      "velocity": 0.8,
      "hand": "right"
    },
    {
      "midi": 35,
      "time": 96.957,
      "duration": 0.217,
      "velocity": 0.49,
      "hand": "left"
    },
    {
      "midi": 47,
      "time": 96.957,
      "duration": 0.217,
      "velocity": 0.49,
      "hand": "left"
    },
    {
      "midi": 81,
      "time": 96.957,
      "duration": 0.652,
      "velocity": 0.71,
      "hand": "right"
    },
    {
      "midi": 86,
      "time": 96.957,
      "duration": 0.652,
      "velocity": 0.71,
      "hand": "right"
    },
    {
      "midi": 93,
      "time": 96.957,
      "duration": 0.652,
      "velocity": 0.8,
      "hand": "right"
    },
    {
      "midi": 45,
      "time": 97.065,
      "duration": 0.109,
      "velocity": 0.49,
      "hand": "left"
    },
    {
      "midi": 43,
      "time": 97.283,
      "duration": 0.109,
      "velocity": 0.49,
      "hand": "left"
    },
    {
      "midi": 42,
      "time": 97.5,
      "duration": 0.109,
      "velocity": 0.49,
      "hand": "left"
    },
    {
      "midi": 42,
      "time": 97.717,
      "duration": 0.217,
      "velocity": 0.49,
      "hand": "left"
    },
    {
      "midi": 54,
      "time": 97.717,
      "duration": 0.217,
      "velocity": 0.49,
      "hand": "left"
    },
    {
      "midi": 90,
      "time": 97.717,
      "duration": 0.652,
      "velocity": 0.8,
      "hand": "right"
    },
    {
      "midi": 52,
      "time": 97.826,
      "duration": 0.109,
      "velocity": 0.49,
      "hand": "left"
    },
    {
      "midi": 92,
      "time": 97.826,
      "duration": 0.109,
      "velocity": 0.8,
      "hand": "right"
    },
    {
      "midi": 50,
      "time": 98.043,
      "duration": 0.109,
      "velocity": 0.49,
      "hand": "left"
    },
    {
      "midi": 94,
      "time": 98.043,
      "duration": 0.109,
      "velocity": 0.8,
      "hand": "right"
    },
    {
      "midi": 49,
      "time": 98.261,
      "duration": 0.109,
      "velocity": 0.49,
      "hand": "left"
    },
    {
      "midi": 95,
      "time": 98.261,
      "duration": 0.109,
      "velocity": 0.8,
      "hand": "right"
    },
    {
      "midi": 42,
      "time": 98.478,
      "duration": 0.217,
      "velocity": 0.49,
      "hand": "left"
    },
    {
      "midi": 54,
      "time": 98.478,
      "duration": 0.217,
      "velocity": 0.49,
      "hand": "left"
    },
    {
      "midi": 85,
      "time": 98.478,
      "duration": 0.326,
      "velocity": 0.71,
      "hand": "right"
    },
    {
      "midi": 90,
      "time": 98.478,
      "duration": 0.326,
      "velocity": 0.71,
      "hand": "right"
    },
    {
      "midi": 97,
      "time": 98.478,
      "duration": 0.217,
      "velocity": 0.8,
      "hand": "right"
    },
    {
      "midi": 52,
      "time": 98.696,
      "duration": 0.109,
      "velocity": 0.49,
      "hand": "left"
    },
    {
      "midi": 94,
      "time": 98.696,
      "duration": 0.109,
      "velocity": 0.8,
      "hand": "right"
    },
    {
      "midi": 50,
      "time": 98.804,
      "duration": 0.109,
      "velocity": 0.49,
      "hand": "left"
    },
    {
      "midi": 85,
      "time": 98.804,
      "duration": 0.326,
      "velocity": 0.71,
      "hand": "right"
    },
    {
      "midi": 90,
      "time": 98.804,
      "duration": 0.326,
      "velocity": 0.71,
      "hand": "right"
    },
    {
      "midi": 97,
      "time": 98.804,
      "duration": 0.326,
      "velocity": 0.8,
      "hand": "right"
    },
    {
      "midi": 49,
      "time": 99.022,
      "duration": 0.109,
      "velocity": 0.49,
      "hand": "left"
    },
    {
      "midi": 38,
      "time": 99.239,
      "duration": 0.217,
      "velocity": 0.49,
      "hand": "left"
    },
    {
      "midi": 50,
      "time": 99.239,
      "duration": 0.217,
      "velocity": 0.49,
      "hand": "left"
    },
    {
      "midi": 86,
      "time": 99.239,
      "duration": 0.217,
      "velocity": 0.49,
      "hand": "right"
    },
    {
      "midi": 90,
      "time": 99.239,
      "duration": 0.217,
      "velocity": 0.49,
      "hand": "right"
    },
    {
      "midi": 98,
      "time": 99.239,
      "duration": 0.217,
      "velocity": 0.49,
      "hand": "right"
    },
    {
      "midi": 49,
      "time": 99.457,
      "duration": 0.109,
      "velocity": 0.49,
      "hand": "left"
    },
    {
      "midi": 94,
      "time": 99.457,
      "duration": 0.109,
      "velocity": 0.49,
      "hand": "right"
    },
    {
      "midi": 50,
      "time": 99.674,
      "duration": 0.109,
      "velocity": 0.49,
      "hand": "left"
    },
    {
      "midi": 86,
      "time": 99.674,
      "duration": 0.326,
      "velocity": 0.49,
      "hand": "right"
    },
    {
      "midi": 90,
      "time": 99.674,
      "duration": 0.326,
      "velocity": 0.49,
      "hand": "right"
    },
    {
      "midi": 98,
      "time": 99.674,
      "duration": 0.326,
      "velocity": 0.49,
      "hand": "right"
    },
    {
      "midi": 52,
      "time": 99.783,
      "duration": 0.109,
      "velocity": 0.49,
      "hand": "left"
    },
    {
      "midi": 42,
      "time": 100,
      "duration": 0.217,
      "velocity": 0.49,
      "hand": "left"
    },
    {
      "midi": 54,
      "time": 100,
      "duration": 0.217,
      "velocity": 0.49,
      "hand": "left"
    },
    {
      "midi": 85,
      "time": 100,
      "duration": 0.217,
      "velocity": 0.49,
      "hand": "right"
    },
    {
      "midi": 90,
      "time": 100,
      "duration": 0.217,
      "velocity": 0.49,
      "hand": "right"
    },
    {
      "midi": 97,
      "time": 100,
      "duration": 0.217,
      "velocity": 0.49,
      "hand": "right"
    },
    {
      "midi": 52,
      "time": 100.217,
      "duration": 0.109,
      "velocity": 0.49,
      "hand": "left"
    },
    {
      "midi": 94,
      "time": 100.217,
      "duration": 0.109,
      "velocity": 0.49,
      "hand": "right"
    },
    {
      "midi": 50,
      "time": 100.435,
      "duration": 0.109,
      "velocity": 0.49,
      "hand": "left"
    },
    {
      "midi": 85,
      "time": 100.435,
      "duration": 0.326,
      "velocity": 0.49,
      "hand": "right"
    },
    {
      "midi": 90,
      "time": 100.435,
      "duration": 0.326,
      "velocity": 0.49,
      "hand": "right"
    },
    {
      "midi": 97,
      "time": 100.435,
      "duration": 0.326,
      "velocity": 0.49,
      "hand": "right"
    },
    {
      "midi": 49,
      "time": 100.652,
      "duration": 0.109,
      "velocity": 0.49,
      "hand": "left"
    },
    {
      "midi": 42,
      "time": 100.761,
      "duration": 0.217,
      "velocity": 0.49,
      "hand": "left"
    },
    {
      "midi": 54,
      "time": 100.761,
      "duration": 0.217,
      "velocity": 0.49,
      "hand": "left"
    },
    {
      "midi": 90,
      "time": 100.761,
      "duration": 0.109,
      "velocity": 0.49,
      "hand": "right"
    },
    {
      "midi": 52,
      "time": 100.978,
      "duration": 0.109,
      "velocity": 0.49,
      "hand": "left"
    },
    {
      "midi": 90,
      "time": 100.978,
      "duration": 0.109,
      "velocity": 0.49,
      "hand": "right"
    },
    {
      "midi": 91,
      "time": 100.978,
      "duration": 0.109,
      "velocity": 0.49,
      "hand": "right"
    },
    {
      "midi": 50,
      "time": 101.196,
      "duration": 0.109,
      "velocity": 0.49,
      "hand": "left"
    },
    {
      "midi": 90,
      "time": 101.196,
      "duration": 0.109,
      "velocity": 0.49,
      "hand": "right"
    },
    {
      "midi": 94,
      "time": 101.196,
      "duration": 0.109,
      "velocity": 0.49,
      "hand": "right"
    },
    {
      "midi": 49,
      "time": 101.413,
      "duration": 0.109,
      "velocity": 0.49,
      "hand": "left"
    },
    {
      "midi": 90,
      "time": 101.413,
      "duration": 0.109,
      "velocity": 0.49,
      "hand": "right"
    },
    {
      "midi": 95,
      "time": 101.413,
      "duration": 0.109,
      "velocity": 0.49,
      "hand": "right"
    },
    {
      "midi": 42,
      "time": 101.63,
      "duration": 0.217,
      "velocity": 0.49,
      "hand": "left"
    },
    {
      "midi": 54,
      "time": 101.63,
      "duration": 0.217,
      "velocity": 0.49,
      "hand": "left"
    },
    {
      "midi": 85,
      "time": 101.63,
      "duration": 0.217,
      "velocity": 0.49,
      "hand": "right"
    },
    {
      "midi": 90,
      "time": 101.63,
      "duration": 0.217,
      "velocity": 0.49,
      "hand": "right"
    },
    {
      "midi": 97,
      "time": 101.63,
      "duration": 0.217,
      "velocity": 0.49,
      "hand": "right"
    },
    {
      "midi": 52,
      "time": 101.739,
      "duration": 0.109,
      "velocity": 0.49,
      "hand": "left"
    },
    {
      "midi": 85,
      "time": 101.739,
      "duration": 0.109,
      "velocity": 0.49,
      "hand": "right"
    },
    {
      "midi": 90,
      "time": 101.739,
      "duration": 0.109,
      "velocity": 0.49,
      "hand": "right"
    },
    {
      "midi": 94,
      "time": 101.739,
      "duration": 0.109,
      "velocity": 0.49,
      "hand": "right"
    },
    {
      "midi": 50,
      "time": 101.957,
      "duration": 0.109,
      "velocity": 0.49,
      "hand": "left"
    },
    {
      "midi": 85,
      "time": 101.957,
      "duration": 0.326,
      "velocity": 0.49,
      "hand": "right"
    },
    {
      "midi": 90,
      "time": 101.957,
      "duration": 0.326,
      "velocity": 0.49,
      "hand": "right"
    },
    {
      "midi": 97,
      "time": 101.957,
      "duration": 0.326,
      "velocity": 0.49,
      "hand": "right"
    },
    {
      "midi": 49,
      "time": 102.174,
      "duration": 0.109,
      "velocity": 0.49,
      "hand": "left"
    },
    {
      "midi": 38,
      "time": 102.391,
      "duration": 0.217,
      "velocity": 0.49,
      "hand": "left"
    },
    {
      "midi": 50,
      "time": 102.391,
      "duration": 0.217,
      "velocity": 0.49,
      "hand": "left"
    },
    {
      "midi": 86,
      "time": 102.391,
      "duration": 0.217,
      "velocity": 0.49,
      "hand": "right"
    },
    {
      "midi": 90,
      "time": 102.391,
      "duration": 0.217,
      "velocity": 0.49,
      "hand": "right"
    },
    {
      "midi": 98,
      "time": 102.391,
      "duration": 0.217,
      "velocity": 0.49,
      "hand": "right"
    },
    {
      "midi": 49,
      "time": 102.609,
      "duration": 0.109,
      "velocity": 0.49,
      "hand": "left"
    },
    {
      "midi": 86,
      "time": 102.609,
      "duration": 0.109,
      "velocity": 0.49,
      "hand": "right"
    },
    {
      "midi": 90,
      "time": 102.609,
      "duration": 0.109,
      "velocity": 0.49,
      "hand": "right"
    },
    {
      "midi": 94,
      "time": 102.609,
      "duration": 0.109,
      "velocity": 0.49,
      "hand": "right"
    },
    {
      "midi": 50,
      "time": 102.717,
      "duration": 0.109,
      "velocity": 0.49,
      "hand": "left"
    },
    {
      "midi": 86,
      "time": 102.717,
      "duration": 0.326,
      "velocity": 0.49,
      "hand": "right"
    },
    {
      "midi": 90,
      "time": 102.717,
      "duration": 0.326,
      "velocity": 0.49,
      "hand": "right"
    },
    {
      "midi": 98,
      "time": 102.717,
      "duration": 0.326,
      "velocity": 0.49,
      "hand": "right"
    },
    {
      "midi": 52,
      "time": 102.935,
      "duration": 0.109,
      "velocity": 0.49,
      "hand": "left"
    },
    {
      "midi": 42,
      "time": 103.152,
      "duration": 0.217,
      "velocity": 0.49,
      "hand": "left"
    },
    {
      "midi": 54,
      "time": 103.152,
      "duration": 0.217,
      "velocity": 0.49,
      "hand": "left"
    },
    {
      "midi": 85,
      "time": 103.152,
      "duration": 0.652,
      "velocity": 0.49,
      "hand": "right"
    },
    {
      "midi": 90,
      "time": 103.152,
      "duration": 0.652,
      "velocity": 0.49,
      "hand": "right"
    },
    {
      "midi": 97,
      "time": 103.152,
      "duration": 0.652,
      "velocity": 0.49,
      "hand": "right"
    },
    {
      "midi": 52,
      "time": 103.37,
      "duration": 0.109,
      "velocity": 0.49,
      "hand": "left"
    },
    {
      "midi": 50,
      "time": 103.478,
      "duration": 0.109,
      "velocity": 0.49,
      "hand": "left"
    },
    {
      "midi": 49,
      "time": 103.696,
      "duration": 0.109,
      "velocity": 0.49,
      "hand": "left"
    },
    {
      "midi": 42,
      "time": 103.913,
      "duration": 0.217,
      "velocity": 0.49,
      "hand": "left"
    },
    {
      "midi": 54,
      "time": 103.913,
      "duration": 0.217,
      "velocity": 0.49,
      "hand": "left"
    },
    {
      "midi": 90,
      "time": 103.913,
      "duration": 0.652,
      "velocity": 0.71,
      "hand": "right"
    },
    {
      "midi": 53,
      "time": 104.13,
      "duration": 0.109,
      "velocity": 0.49,
      "hand": "left"
    },
    {
      "midi": 92,
      "time": 104.13,
      "duration": 0.109,
      "velocity": 0.8,
      "hand": "right"
    },
    {
      "midi": 51,
      "time": 104.348,
      "duration": 0.109,
      "velocity": 0.49,
      "hand": "left"
    },
    {
      "midi": 94,
      "time": 104.348,
      "duration": 0.109,
      "velocity": 0.8,
      "hand": "right"
    },
    {
      "midi": 49,
      "time": 104.457,
      "duration": 0.109,
      "velocity": 0.49,
      "hand": "left"
    },
    {
      "midi": 95,
      "time": 104.457,
      "duration": 0.109,
      "velocity": 0.8,
      "hand": "right"
    },
    {
      "midi": 42,
      "time": 104.674,
      "duration": 0.217,
      "velocity": 0.49,
      "hand": "left"
    },
    {
      "midi": 54,
      "time": 104.674,
      "duration": 0.217,
      "velocity": 0.49,
      "hand": "left"
    },
    {
      "midi": 85,
      "time": 104.674,
      "duration": 0.326,
      "velocity": 0.71,
      "hand": "right"
    },
    {
      "midi": 90,
      "time": 104.674,
      "duration": 0.326,
      "velocity": 0.71,
      "hand": "right"
    },
    {
      "midi": 97,
      "time": 104.674,
      "duration": 0.217,
      "velocity": 0.8,
      "hand": "right"
    },
    {
      "midi": 53,
      "time": 104.891,
      "duration": 0.109,
      "velocity": 0.49,
      "hand": "left"
    },
    {
      "midi": 94,
      "time": 104.891,
      "duration": 0.109,
      "velocity": 0.8,
      "hand": "right"
    },
    {
      "midi": 51,
      "time": 105.109,
      "duration": 0.109,
      "velocity": 0.49,
      "hand": "left"
    },
    {
      "midi": 85,
      "time": 105.109,
      "duration": 0.326,
      "velocity": 0.71,
      "hand": "right"
    },
    {
      "midi": 90,
      "time": 105.109,
      "duration": 0.326,
      "velocity": 0.71,
      "hand": "right"
    },
    {
      "midi": 97,
      "time": 105.109,
      "duration": 0.326,
      "velocity": 0.8,
      "hand": "right"
    },
    {
      "midi": 49,
      "time": 105.326,
      "duration": 0.109,
      "velocity": 0.49,
      "hand": "left"
    },
    {
      "midi": 39,
      "time": 105.435,
      "duration": 0.217,
      "velocity": 0.49,
      "hand": "left"
    },
    {
      "midi": 51,
      "time": 105.435,
      "duration": 0.217,
      "velocity": 0.49,
      "hand": "left"
    },
    {
      "midi": 87,
      "time": 105.435,
      "duration": 0.217,
      "velocity": 0.49,
      "hand": "right"
    },
    {
      "midi": 90,
      "time": 105.435,
      "duration": 0.217,
      "velocity": 0.49,
      "hand": "right"
    },
    {
      "midi": 99,
      "time": 105.435,
      "duration": 0.217,
      "velocity": 0.49,
      "hand": "right"
    },
    {
      "midi": 49,
      "time": 105.652,
      "duration": 0.109,
      "velocity": 0.49,
      "hand": "left"
    },
    {
      "midi": 94,
      "time": 105.652,
      "duration": 0.109,
      "velocity": 0.49,
      "hand": "right"
    },
    {
      "midi": 51,
      "time": 105.87,
      "duration": 0.109,
      "velocity": 0.49,
      "hand": "left"
    },
    {
      "midi": 87,
      "time": 105.87,
      "duration": 0.326,
      "velocity": 0.49,
      "hand": "right"
    },
    {
      "midi": 90,
      "time": 105.87,
      "duration": 0.326,
      "velocity": 0.49,
      "hand": "right"
    },
    {
      "midi": 99,
      "time": 105.87,
      "duration": 0.326,
      "velocity": 0.49,
      "hand": "right"
    },
    {
      "midi": 53,
      "time": 106.087,
      "duration": 0.109,
      "velocity": 0.49,
      "hand": "left"
    },
    {
      "midi": 42,
      "time": 106.304,
      "duration": 0.217,
      "velocity": 0.49,
      "hand": "left"
    },
    {
      "midi": 54,
      "time": 106.304,
      "duration": 0.217,
      "velocity": 0.49,
      "hand": "left"
    },
    {
      "midi": 85,
      "time": 106.304,
      "duration": 0.217,
      "velocity": 0.49,
      "hand": "right"
    },
    {
      "midi": 90,
      "time": 106.304,
      "duration": 0.217,
      "velocity": 0.49,
      "hand": "right"
    },
    {
      "midi": 97,
      "time": 106.304,
      "duration": 0.217,
      "velocity": 0.49,
      "hand": "right"
    },
    {
      "midi": 53,
      "time": 106.413,
      "duration": 0.109,
      "velocity": 0.49,
      "hand": "left"
    },
    {
      "midi": 94,
      "time": 106.413,
      "duration": 0.109,
      "velocity": 0.49,
      "hand": "right"
    },
    {
      "midi": 51,
      "time": 106.63,
      "duration": 0.109,
      "velocity": 0.49,
      "hand": "left"
    },
    {
      "midi": 85,
      "time": 106.63,
      "duration": 0.326,
      "velocity": 0.49,
      "hand": "right"
    },
    {
      "midi": 90,
      "time": 106.63,
      "duration": 0.326,
      "velocity": 0.49,
      "hand": "right"
    },
    {
      "midi": 97,
      "time": 106.63,
      "duration": 0.326,
      "velocity": 0.49,
      "hand": "right"
    },
    {
      "midi": 49,
      "time": 106.848,
      "duration": 0.109,
      "velocity": 0.49,
      "hand": "left"
    },
    {
      "midi": 42,
      "time": 107.065,
      "duration": 0.217,
      "velocity": 0.49,
      "hand": "left"
    },
    {
      "midi": 54,
      "time": 107.065,
      "duration": 0.217,
      "velocity": 0.49,
      "hand": "left"
    },
    {
      "midi": 90,
      "time": 107.065,
      "duration": 0.109,
      "velocity": 0.49,
      "hand": "right"
    },
    {
      "midi": 53,
      "time": 107.283,
      "duration": 0.109,
      "velocity": 0.49,
      "hand": "left"
    },
    {
      "midi": 90,
      "time": 107.283,
      "duration": 0.109,
      "velocity": 0.49,
      "hand": "right"
    },
    {
      "midi": 91,
      "time": 107.283,
      "duration": 0.109,
      "velocity": 0.49,
      "hand": "right"
    },
    {
      "midi": 51,
      "time": 107.391,
      "duration": 0.109,
      "velocity": 0.49,
      "hand": "left"
    },
    {
      "midi": 90,
      "time": 107.391,
      "duration": 0.109,
      "velocity": 0.49,
      "hand": "right"
    },
    {
      "midi": 94,
      "time": 107.391,
      "duration": 0.109,
      "velocity": 0.49,
      "hand": "right"
    },
    {
      "midi": 49,
      "time": 107.609,
      "duration": 0.109,
      "velocity": 0.49,
      "hand": "left"
    },
    {
      "midi": 90,
      "time": 107.609,
      "duration": 0.109,
      "velocity": 0.49,
      "hand": "right"
    },
    {
      "midi": 95,
      "time": 107.609,
      "duration": 0.109,
      "velocity": 0.49,
      "hand": "right"
    },
    {
      "midi": 42,
      "time": 107.826,
      "duration": 0.217,
      "velocity": 0.49,
      "hand": "left"
    },
    {
      "midi": 54,
      "time": 107.826,
      "duration": 0.217,
      "velocity": 0.49,
      "hand": "left"
    },
    {
      "midi": 85,
      "time": 107.826,
      "duration": 0.217,
      "velocity": 0.49,
      "hand": "right"
    },
    {
      "midi": 90,
      "time": 107.826,
      "duration": 0.217,
      "velocity": 0.49,
      "hand": "right"
    },
    {
      "midi": 97,
      "time": 107.826,
      "duration": 0.217,
      "velocity": 0.49,
      "hand": "right"
    },
    {
      "midi": 53,
      "time": 108.043,
      "duration": 0.109,
      "velocity": 0.49,
      "hand": "left"
    },
    {
      "midi": 85,
      "time": 108.043,
      "duration": 0.109,
      "velocity": 0.49,
      "hand": "right"
    },
    {
      "midi": 90,
      "time": 108.043,
      "duration": 0.109,
      "velocity": 0.49,
      "hand": "right"
    },
    {
      "midi": 94,
      "time": 108.043,
      "duration": 0.109,
      "velocity": 0.49,
      "hand": "right"
    },
    {
      "midi": 51,
      "time": 108.152,
      "duration": 0.109,
      "velocity": 0.49,
      "hand": "left"
    },
    {
      "midi": 85,
      "time": 108.152,
      "duration": 0.326,
      "velocity": 0.49,
      "hand": "right"
    },
    {
      "midi": 90,
      "time": 108.152,
      "duration": 0.326,
      "velocity": 0.49,
      "hand": "right"
    },
    {
      "midi": 97,
      "time": 108.152,
      "duration": 0.326,
      "velocity": 0.49,
      "hand": "right"
    },
    {
      "midi": 49,
      "time": 108.37,
      "duration": 0.109,
      "velocity": 0.49,
      "hand": "left"
    },
    {
      "midi": 39,
      "time": 108.587,
      "duration": 0.217,
      "velocity": 0.49,
      "hand": "left"
    },
    {
      "midi": 51,
      "time": 108.587,
      "duration": 0.217,
      "velocity": 0.49,
      "hand": "left"
    },
    {
      "midi": 86,
      "time": 108.587,
      "duration": 0.217,
      "velocity": 0.49,
      "hand": "right"
    },
    {
      "midi": 90,
      "time": 108.587,
      "duration": 0.217,
      "velocity": 0.49,
      "hand": "right"
    },
    {
      "midi": 98,
      "time": 108.587,
      "duration": 0.217,
      "velocity": 0.49,
      "hand": "right"
    },
    {
      "midi": 49,
      "time": 108.804,
      "duration": 0.109,
      "velocity": 0.49,
      "hand": "left"
    },
    {
      "midi": 86,
      "time": 108.804,
      "duration": 0.109,
      "velocity": 0.49,
      "hand": "right"
    },
    {
      "midi": 90,
      "time": 108.804,
      "duration": 0.109,
      "velocity": 0.49,
      "hand": "right"
    },
    {
      "midi": 94,
      "time": 108.804,
      "duration": 0.109,
      "velocity": 0.49,
      "hand": "right"
    },
    {
      "midi": 51,
      "time": 109.022,
      "duration": 0.109,
      "velocity": 0.49,
      "hand": "left"
    },
    {
      "midi": 86,
      "time": 109.022,
      "duration": 0.326,
      "velocity": 0.49,
      "hand": "right"
    },
    {
      "midi": 90,
      "time": 109.022,
      "duration": 0.326,
      "velocity": 0.49,
      "hand": "right"
    },
    {
      "midi": 98,
      "time": 109.022,
      "duration": 0.326,
      "velocity": 0.49,
      "hand": "right"
    },
    {
      "midi": 53,
      "time": 109.13,
      "duration": 0.109,
      "velocity": 0.49,
      "hand": "left"
    },
    {
      "midi": 42,
      "time": 109.348,
      "duration": 0.217,
      "velocity": 0.49,
      "hand": "left"
    },
    {
      "midi": 54,
      "time": 109.348,
      "duration": 0.217,
      "velocity": 0.49,
      "hand": "left"
    },
    {
      "midi": 85,
      "time": 109.348,
      "duration": 0.652,
      "velocity": 0.49,
      "hand": "right"
    },
    {
      "midi": 90,
      "time": 109.348,
      "duration": 0.652,
      "velocity": 0.49,
      "hand": "right"
    },
    {
      "midi": 97,
      "time": 109.348,
      "duration": 0.652,
      "velocity": 0.49,
      "hand": "right"
    },
    {
      "midi": 53,
      "time": 109.565,
      "duration": 0.109,
      "velocity": 0.49,
      "hand": "left"
    },
    {
      "midi": 51,
      "time": 109.783,
      "duration": 0.109,
      "velocity": 0.49,
      "hand": "left"
    },
    {
      "midi": 49,
      "time": 110,
      "duration": 0.109,
      "velocity": 0.49,
      "hand": "left"
    },
    {
      "midi": 35,
      "time": 110.109,
      "duration": 0.217,
      "velocity": 0.49,
      "hand": "left"
    },
    {
      "midi": 47,
      "time": 110.109,
      "duration": 0.217,
      "velocity": 0.49,
      "hand": "left"
    },
    {
      "midi": 83,
      "time": 110.109,
      "duration": 0.652,
      "velocity": 0.8,
      "hand": "right"
    },
    {
      "midi": 45,
      "time": 110.326,
      "duration": 0.109,
      "velocity": 0.49,
      "hand": "left"
    },
    {
      "midi": 85,
      "time": 110.326,
      "duration": 0.109,
      "velocity": 0.8,
      "hand": "right"
    },
    {
      "midi": 43,
      "time": 110.543,
      "duration": 0.109,
      "velocity": 0.49,
      "hand": "left"
    },
    {
      "midi": 86,
      "time": 110.543,
      "duration": 0.109,
      "velocity": 0.8,
      "hand": "right"
    },
    {
      "midi": 42,
      "time": 110.761,
      "duration": 0.109,
      "velocity": 0.49,
      "hand": "left"
    },
    {
      "midi": 88,
      "time": 110.761,
      "duration": 0.109,
      "velocity": 0.8,
      "hand": "right"
    },
    {
      "midi": 35,
      "time": 110.978,
      "duration": 0.217,
      "velocity": 0.49,
      "hand": "left"
    },
    {
      "midi": 47,
      "time": 110.978,
      "duration": 0.217,
      "velocity": 0.49,
      "hand": "left"
    },
    {
      "midi": 83,
      "time": 110.978,
      "duration": 0.652,
      "velocity": 0.71,
      "hand": "right"
    },
    {
      "midi": 90,
      "time": 110.978,
      "duration": 0.217,
      "velocity": 0.8,
      "hand": "right"
    },
    {
      "midi": 45,
      "time": 111.087,
      "duration": 0.109,
      "velocity": 0.49,
      "hand": "left"
    },
    {
      "midi": 86,
      "time": 111.087,
      "duration": 0.109,
      "velocity": 0.8,
      "hand": "right"
    },
    {
      "midi": 43,
      "time": 111.304,
      "duration": 0.109,
      "velocity": 0.49,
      "hand": "left"
    },
    {
      "midi": 90,
      "time": 111.304,
      "duration": 0.326,
      "velocity": 0.8,
      "hand": "right"
    },
    {
      "midi": 42,
      "time": 111.522,
      "duration": 0.109,
      "velocity": 0.49,
      "hand": "left"
    },
    {
      "midi": 35,
      "time": 111.739,
      "duration": 0.217,
      "velocity": 0.49,
      "hand": "left"
    },
    {
      "midi": 47,
      "time": 111.739,
      "duration": 0.217,
      "velocity": 0.49,
      "hand": "left"
    },
    {
      "midi": 83,
      "time": 111.739,
      "duration": 0.652,
      "velocity": 0.71,
      "hand": "right"
    },
    {
      "midi": 89,
      "time": 111.739,
      "duration": 0.217,
      "velocity": 0.8,
      "hand": "right"
    },
    {
      "midi": 45,
      "time": 111.957,
      "duration": 0.109,
      "velocity": 0.49,
      "hand": "left"
    },
    {
      "midi": 85,
      "time": 111.957,
      "duration": 0.109,
      "velocity": 0.8,
      "hand": "right"
    },
    {
      "midi": 43,
      "time": 112.065,
      "duration": 0.109,
      "velocity": 0.49,
      "hand": "left"
    },
    {
      "midi": 89,
      "time": 112.065,
      "duration": 0.217,
      "velocity": 0.8,
      "hand": "right"
    },
    {
      "midi": 42,
      "time": 112.283,
      "duration": 0.109,
      "velocity": 0.49,
      "hand": "left"
    },
    {
      "midi": 35,
      "time": 112.5,
      "duration": 0.217,
      "velocity": 0.49,
      "hand": "left"
    },
    {
      "midi": 47,
      "time": 112.5,
      "duration": 0.217,
      "velocity": 0.49,
      "hand": "left"
    },
    {
      "midi": 83,
      "time": 112.5,
      "duration": 0.652,
      "velocity": 0.71,
      "hand": "right"
    },
    {
      "midi": 88,
      "time": 112.5,
      "duration": 0.217,
      "velocity": 0.8,
      "hand": "right"
    },
    {
      "midi": 45,
      "time": 112.717,
      "duration": 0.109,
      "velocity": 0.49,
      "hand": "left"
    },
    {
      "midi": 84,
      "time": 112.717,
      "duration": 0.109,
      "velocity": 0.8,
      "hand": "right"
    },
    {
      "midi": 43,
      "time": 112.826,
      "duration": 0.109,
      "velocity": 0.49,
      "hand": "left"
    },
    {
      "midi": 88,
      "time": 112.826,
      "duration": 0.217,
      "velocity": 0.8,
      "hand": "right"
    },
    {
      "midi": 42,
      "time": 113.043,
      "duration": 0.109,
      "velocity": 0.49,
      "hand": "left"
    },
    {
      "midi": 35,
      "time": 113.261,
      "duration": 0.217,
      "velocity": 0.49,
      "hand": "left"
    },
    {
      "midi": 47,
      "time": 113.261,
      "duration": 0.217,
      "velocity": 0.49,
      "hand": "left"
    },
    {
      "midi": 83,
      "time": 113.261,
      "duration": 0.652,
      "velocity": 0.8,
      "hand": "right"
    },
    {
      "midi": 45,
      "time": 113.478,
      "duration": 0.109,
      "velocity": 0.49,
      "hand": "left"
    },
    {
      "midi": 85,
      "time": 113.478,
      "duration": 0.109,
      "velocity": 0.8,
      "hand": "right"
    },
    {
      "midi": 43,
      "time": 113.696,
      "duration": 0.109,
      "velocity": 0.49,
      "hand": "left"
    },
    {
      "midi": 86,
      "time": 113.696,
      "duration": 0.109,
      "velocity": 0.8,
      "hand": "right"
    },
    {
      "midi": 42,
      "time": 113.804,
      "duration": 0.109,
      "velocity": 0.49,
      "hand": "left"
    },
    {
      "midi": 88,
      "time": 113.804,
      "duration": 0.109,
      "velocity": 0.8,
      "hand": "right"
    },
    {
      "midi": 35,
      "time": 114.022,
      "duration": 0.217,
      "velocity": 0.49,
      "hand": "left"
    },
    {
      "midi": 47,
      "time": 114.022,
      "duration": 0.217,
      "velocity": 0.49,
      "hand": "left"
    },
    {
      "midi": 83,
      "time": 114.022,
      "duration": 0.217,
      "velocity": 0.71,
      "hand": "right"
    },
    {
      "midi": 90,
      "time": 114.022,
      "duration": 0.109,
      "velocity": 0.8,
      "hand": "right"
    },
    {
      "midi": 45,
      "time": 114.239,
      "duration": 0.109,
      "velocity": 0.49,
      "hand": "left"
    },
    {
      "midi": 83,
      "time": 114.239,
      "duration": 0.435,
      "velocity": 0.8,
      "hand": "right"
    },
    {
      "midi": 43,
      "time": 114.457,
      "duration": 0.109,
      "velocity": 0.49,
      "hand": "left"
    },
    {
      "midi": 90,
      "time": 114.457,
      "duration": 0.109,
      "velocity": 0.8,
      "hand": "right"
    },
    {
      "midi": 42,
      "time": 114.674,
      "duration": 0.109,
      "velocity": 0.49,
      "hand": "left"
    },
    {
      "midi": 95,
      "time": 114.674,
      "duration": 0.109,
      "velocity": 0.8,
      "hand": "right"
    },
    {
      "midi": 38,
      "time": 114.783,
      "duration": 0.217,
      "velocity": 0.49,
      "hand": "left"
    },
    {
      "midi": 50,
      "time": 114.783,
      "duration": 0.217,
      "velocity": 0.49,
      "hand": "left"
    },
    {
      "midi": 81,
      "time": 114.783,
      "duration": 0.652,
      "velocity": 0.71,
      "hand": "right"
    },
    {
      "midi": 86,
      "time": 114.783,
      "duration": 0.435,
      "velocity": 0.71,
      "hand": "right"
    },
    {
      "midi": 93,
      "time": 114.783,
      "duration": 0.109,
      "velocity": 0.8,
      "hand": "right"
    },
    {
      "midi": 49,
      "time": 115,
      "duration": 0.109,
      "velocity": 0.49,
      "hand": "left"
    },
    {
      "midi": 90,
      "time": 115,
      "duration": 0.109,
      "velocity": 0.8,
      "hand": "right"
    },
    {
      "midi": 45,
      "time": 115.217,
      "duration": 0.109,
      "velocity": 0.49,
      "hand": "left"
    },
    {
      "midi": 86,
      "time": 115.217,
      "duration": 0.326,
      "velocity": 0.8,
      "hand": "right"
    },
    {
      "midi": 43,
      "time": 115.435,
      "duration": 0.109,
      "velocity": 0.49,
      "hand": "left"
    },
    {
      "midi": 90,
      "time": 115.435,
      "duration": 0.109,
      "velocity": 0.8,
      "hand": "right"
    },
    {
      "midi": 38,
      "time": 115.652,
      "duration": 0.217,
      "velocity": 0.49,
      "hand": "left"
    },
    {
      "midi": 50,
      "time": 115.652,
      "duration": 0.217,
      "velocity": 0.49,
      "hand": "left"
    },
    {
      "midi": 81,
      "time": 115.652,
      "duration": 0.652,
      "velocity": 0.71,
      "hand": "right"
    },
    {
      "midi": 86,
      "time": 115.652,
      "duration": 0.652,
      "velocity": 0.71,
      "hand": "right"
    },
    {
      "midi": 93,
      "time": 115.652,
      "duration": 0.652,
      "velocity": 0.8,
      "hand": "right"
    },
    {
      "midi": 49,
      "time": 115.761,
      "duration": 0.109,
      "velocity": 0.49,
      "hand": "left"
    },
    {
      "midi": 45,
      "time": 115.978,
      "duration": 0.109,
      "velocity": 0.49,
      "hand": "left"
    },
    {
      "midi": 43,
      "time": 116.196,
      "duration": 0.109,
      "velocity": 0.49,
      "hand": "left"
    },
    {
      "midi": 35,
      "time": 116.413,
      "duration": 0.217,
      "velocity": 0.49,
      "hand": "left"
    },
    {
      "midi": 47,
      "time": 116.413,
      "duration": 0.217,
      "velocity": 0.49,
      "hand": "left"
    },
    {
      "midi": 83,
      "time": 116.413,
      "duration": 0.109,
      "velocity": 0.49,
      "hand": "right"
    },
    {
      "midi": 45,
      "time": 116.63,
      "duration": 0.109,
      "velocity": 0.49,
      "hand": "left"
    },
    {
      "midi": 83,
      "time": 116.63,
      "duration": 0.109,
      "velocity": 0.49,
      "hand": "right"
    },
    {
      "midi": 85,
      "time": 116.63,
      "duration": 0.109,
      "velocity": 0.49,
      "hand": "right"
    },
    {
      "midi": 43,
      "time": 116.739,
      "duration": 0.109,
      "velocity": 0.49,
      "hand": "left"
    },
    {
      "midi": 83,
      "time": 116.739,
      "duration": 0.109,
      "velocity": 0.49,
      "hand": "right"
    },
    {
      "midi": 86,
      "time": 116.739,
      "duration": 0.109,
      "velocity": 0.49,
      "hand": "right"
    },
    {
      "midi": 42,
      "time": 116.957,
      "duration": 0.109,
      "velocity": 0.49,
      "hand": "left"
    },
    {
      "midi": 83,
      "time": 116.957,
      "duration": 0.109,
      "velocity": 0.49,
      "hand": "right"
    },
    {
      "midi": 88,
      "time": 116.957,
      "duration": 0.109,
      "velocity": 0.49,
      "hand": "right"
    },
    {
      "midi": 35,
      "time": 117.174,
      "duration": 0.217,
      "velocity": 0.49,
      "hand": "left"
    },
    {
      "midi": 47,
      "time": 117.174,
      "duration": 0.217,
      "velocity": 0.49,
      "hand": "left"
    },
    {
      "midi": 83,
      "time": 117.174,
      "duration": 0.217,
      "velocity": 0.49,
      "hand": "right"
    },
    {
      "midi": 90,
      "time": 117.174,
      "duration": 0.217,
      "velocity": 0.49,
      "hand": "right"
    },
    {
      "midi": 45,
      "time": 117.391,
      "duration": 0.109,
      "velocity": 0.49,
      "hand": "left"
    },
    {
      "midi": 83,
      "time": 117.391,
      "duration": 0.109,
      "velocity": 0.49,
      "hand": "right"
    },
    {
      "midi": 86,
      "time": 117.391,
      "duration": 0.109,
      "velocity": 0.49,
      "hand": "right"
    },
    {
      "midi": 43,
      "time": 117.609,
      "duration": 0.109,
      "velocity": 0.49,
      "hand": "left"
    },
    {
      "midi": 83,
      "time": 117.609,
      "duration": 0.217,
      "velocity": 0.49,
      "hand": "right"
    },
    {
      "midi": 86,
      "time": 117.609,
      "duration": 0.217,
      "velocity": 0.49,
      "hand": "right"
    },
    {
      "midi": 90,
      "time": 117.609,
      "duration": 0.217,
      "velocity": 0.49,
      "hand": "right"
    },
    {
      "midi": 42,
      "time": 117.717,
      "duration": 0.109,
      "velocity": 0.49,
      "hand": "left"
    },
    {
      "midi": 35,
      "time": 117.935,
      "duration": 0.217,
      "velocity": 0.49,
      "hand": "left"
    },
    {
      "midi": 47,
      "time": 117.935,
      "duration": 0.217,
      "velocity": 0.49,
      "hand": "left"
    },
    {
      "midi": 83,
      "time": 117.935,
      "duration": 0.217,
      "velocity": 0.49,
      "hand": "right"
    },
    {
      "midi": 89,
      "time": 117.935,
      "duration": 0.217,
      "velocity": 0.49,
      "hand": "right"
    },
    {
      "midi": 45,
      "time": 118.152,
      "duration": 0.109,
      "velocity": 0.49,
      "hand": "left"
    },
    {
      "midi": 83,
      "time": 118.152,
      "duration": 0.109,
      "velocity": 0.49,
      "hand": "right"
    },
    {
      "midi": 85,
      "time": 118.152,
      "duration": 0.109,
      "velocity": 0.49,
      "hand": "right"
    },
    {
      "midi": 43,
      "time": 118.37,
      "duration": 0.109,
      "velocity": 0.49,
      "hand": "left"
    },
    {
      "midi": 83,
      "time": 118.37,
      "duration": 0.217,
      "velocity": 0.49,
      "hand": "right"
    },
    {
      "midi": 85,
      "time": 118.37,
      "duration": 0.217,
      "velocity": 0.49,
      "hand": "right"
    },
    {
      "midi": 89,
      "time": 118.37,
      "duration": 0.217,
      "velocity": 0.49,
      "hand": "right"
    },
    {
      "midi": 42,
      "time": 118.478,
      "duration": 0.109,
      "velocity": 0.49,
      "hand": "left"
    },
    {
      "midi": 35,
      "time": 118.696,
      "duration": 0.217,
      "velocity": 0.49,
      "hand": "left"
    },
    {
      "midi": 47,
      "time": 118.696,
      "duration": 0.217,
      "velocity": 0.49,
      "hand": "left"
    },
    {
      "midi": 83,
      "time": 118.696,
      "duration": 0.217,
      "velocity": 0.49,
      "hand": "right"
    },
    {
      "midi": 88,
      "time": 118.696,
      "duration": 0.217,
      "velocity": 0.49,
      "hand": "right"
    },
    {
      "midi": 45,
      "time": 118.913,
      "duration": 0.109,
      "velocity": 0.49,
      "hand": "left"
    },
    {
      "midi": 83,
      "time": 118.913,
      "duration": 0.109,
      "velocity": 0.49,
      "hand": "right"
    },
    {
      "midi": 84,
      "time": 118.913,
      "duration": 0.109,
      "velocity": 0.49,
      "hand": "right"
    },
    {
      "midi": 43,
      "time": 119.13,
      "duration": 0.109,
      "velocity": 0.49,
      "hand": "left"
    },
    {
      "midi": 83,
      "time": 119.13,
      "duration": 0.217,
      "velocity": 0.49,
      "hand": "right"
    },
    {
      "midi": 84,
      "time": 119.13,
      "duration": 0.217,
      "velocity": 0.49,
      "hand": "right"
    },
    {
      "midi": 88,
      "time": 119.13,
      "duration": 0.217,
      "velocity": 0.49,
      "hand": "right"
    },
    {
      "midi": 42,
      "time": 119.348,
      "duration": 0.109,
      "velocity": 0.49,
      "hand": "left"
    },
    {
      "midi": 35,
      "time": 119.457,
      "duration": 0.217,
      "velocity": 0.49,
      "hand": "left"
    },
    {
      "midi": 47,
      "time": 119.457,
      "duration": 0.217,
      "velocity": 0.49,
      "hand": "left"
    },
    {
      "midi": 83,
      "time": 119.457,
      "duration": 0.109,
      "velocity": 0.49,
      "hand": "right"
    },
    {
      "midi": 45,
      "time": 119.674,
      "duration": 0.109,
      "velocity": 0.49,
      "hand": "left"
    },
    {
      "midi": 83,
      "time": 119.674,
      "duration": 0.109,
      "velocity": 0.49,
      "hand": "right"
    },
    {
      "midi": 85,
      "time": 119.674,
      "duration": 0.109,
      "velocity": 0.49,
      "hand": "right"
    },
    {
      "midi": 43,
      "time": 119.891,
      "duration": 0.109,
      "velocity": 0.49,
      "hand": "left"
    },
    {
      "midi": 83,
      "time": 119.891,
      "duration": 0.109,
      "velocity": 0.49,
      "hand": "right"
    },
    {
      "midi": 86,
      "time": 119.891,
      "duration": 0.109,
      "velocity": 0.49,
      "hand": "right"
    },
    {
      "midi": 42,
      "time": 120.109,
      "duration": 0.109,
      "velocity": 0.49,
      "hand": "left"
    },
    {
      "midi": 83,
      "time": 120.109,
      "duration": 0.109,
      "velocity": 0.49,
      "hand": "right"
    },
    {
      "midi": 88,
      "time": 120.109,
      "duration": 0.109,
      "velocity": 0.49,
      "hand": "right"
    },
    {
      "midi": 35,
      "time": 120.326,
      "duration": 0.217,
      "velocity": 0.49,
      "hand": "left"
    },
    {
      "midi": 47,
      "time": 120.326,
      "duration": 0.217,
      "velocity": 0.49,
      "hand": "left"
    },
    {
      "midi": 83,
      "time": 120.326,
      "duration": 0.109,
      "velocity": 0.49,
      "hand": "right"
    },
    {
      "midi": 90,
      "time": 120.326,
      "duration": 0.109,
      "velocity": 0.49,
      "hand": "right"
    },
    {
      "midi": 45,
      "time": 120.435,
      "duration": 0.109,
      "velocity": 0.49,
      "hand": "left"
    },
    {
      "midi": 83,
      "time": 120.435,
      "duration": 0.109,
      "velocity": 0.49,
      "hand": "right"
    },
    {
      "midi": 86,
      "time": 120.435,
      "duration": 0.109,
      "velocity": 0.49,
      "hand": "right"
    },
    {
      "midi": 43,
      "time": 120.652,
      "duration": 0.109,
      "velocity": 0.49,
      "hand": "left"
    },
    {
      "midi": 83,
      "time": 120.652,
      "duration": 0.109,
      "velocity": 0.49,
      "hand": "right"
    },
    {
      "midi": 90,
      "time": 120.652,
      "duration": 0.109,
      "velocity": 0.49,
      "hand": "right"
    },
    {
      "midi": 42,
      "time": 120.87,
      "duration": 0.109,
      "velocity": 0.49,
      "hand": "left"
    },
    {
      "midi": 83,
      "time": 120.87,
      "duration": 0.109,
      "velocity": 0.49,
      "hand": "right"
    },
    {
      "midi": 95,
      "time": 120.87,
      "duration": 0.109,
      "velocity": 0.49,
      "hand": "right"
    },
    {
      "midi": 35,
      "time": 121.087,
      "duration": 0.217,
      "velocity": 0.49,
      "hand": "left"
    },
    {
      "midi": 47,
      "time": 121.087,
      "duration": 0.217,
      "velocity": 0.49,
      "hand": "left"
    },
    {
      "midi": 83,
      "time": 121.087,
      "duration": 0.109,
      "velocity": 0.49,
      "hand": "right"
    },
    {
      "midi": 90,
      "time": 121.087,
      "duration": 0.109,
      "velocity": 0.49,
      "hand": "right"
    },
    {
      "midi": 45,
      "time": 121.304,
      "duration": 0.109,
      "velocity": 0.49,
      "hand": "left"
    },
    {
      "midi": 83,
      "time": 121.304,
      "duration": 0.109,
      "velocity": 0.49,
      "hand": "right"
    },
    {
      "midi": 86,
      "time": 121.304,
      "duration": 0.109,
      "velocity": 0.49,
      "hand": "right"
    },
    {
      "midi": 43,
      "time": 121.413,
      "duration": 0.109,
      "velocity": 0.49,
      "hand": "left"
    },
    {
      "midi": 83,
      "time": 121.413,
      "duration": 0.109,
      "velocity": 0.49,
      "hand": "right"
    },
    {
      "midi": 90,
      "time": 121.413,
      "duration": 0.109,
      "velocity": 0.49,
      "hand": "right"
    },
    {
      "midi": 42,
      "time": 121.63,
      "duration": 0.109,
      "velocity": 0.49,
      "hand": "left"
    },
    {
      "midi": 83,
      "time": 121.63,
      "duration": 0.109,
      "velocity": 0.49,
      "hand": "right"
    },
    {
      "midi": 95,
      "time": 121.63,
      "duration": 0.109,
      "velocity": 0.49,
      "hand": "right"
    },
    {
      "midi": 35,
      "time": 121.848,
      "duration": 0.217,
      "velocity": 0.49,
      "hand": "left"
    },
    {
      "midi": 47,
      "time": 121.848,
      "duration": 0.217,
      "velocity": 0.49,
      "hand": "left"
    },
    {
      "midi": 83,
      "time": 121.848,
      "duration": 0.652,
      "velocity": 0.49,
      "hand": "right"
    },
    {
      "midi": 45,
      "time": 122.065,
      "duration": 0.109,
      "velocity": 0.49,
      "hand": "left"
    },
    {
      "midi": 43,
      "time": 122.283,
      "duration": 0.109,
      "velocity": 0.49,
      "hand": "left"
    },
    {
      "midi": 42,
      "time": 122.391,
      "duration": 0.109,
      "velocity": 0.49,
      "hand": "left"
    },
    {
      "midi": 35,
      "time": 122.609,
      "duration": 0.326,
      "velocity": 0.49,
      "hand": "left"
    },
    {
      "midi": 47,
      "time": 122.609,
      "duration": 0.326,
      "velocity": 0.49,
      "hand": "left"
    },
    {
      "midi": 92,
      "time": 122.935,
      "duration": 0.054,
      "velocity": 0.49,
      "hand": "right"
    },
    {
      "midi": 93,
      "time": 122.935,
      "duration": 0.054,
      "velocity": 0.49,
      "hand": "right"
    },
    {
      "midi": 94,
      "time": 122.935,
      "duration": 0.054,
      "velocity": 0.49,
      "hand": "right"
    },
    {
      "midi": 50,
      "time": 123.043,
      "duration": 0.217,
      "velocity": 0.49,
      "hand": "left"
    },
    {
      "midi": 53,
      "time": 123.043,
      "duration": 0.217,
      "velocity": 0.49,
      "hand": "left"
    },
    {
      "midi": 56,
      "time": 123.043,
      "duration": 0.217,
      "velocity": 0.49,
      "hand": "left"
    },
    {
      "midi": 59,
      "time": 123.043,
      "duration": 0.217,
      "velocity": 0.49,
      "hand": "left"
    },
    {
      "midi": 86,
      "time": 123.043,
      "duration": 0.109,
      "velocity": 0.5,
      "hand": "right"
    },
    {
      "midi": 95,
      "time": 123.043,
      "duration": 0.109,
      "velocity": 0.5,
      "hand": "right"
    },
    {
      "midi": 35,
      "time": 124.13,
      "duration": 0.326,
      "velocity": 0.49,
      "hand": "left"
    },
    {
      "midi": 47,
      "time": 124.13,
      "duration": 0.326,
      "velocity": 0.49,
      "hand": "left"
    },
    {
      "midi": 92,
      "time": 124.457,
      "duration": 0.054,
      "velocity": 0.5,
      "hand": "right"
    },
    {
      "midi": 50,
      "time": 124.565,
      "duration": 0.217,
      "velocity": 0.49,
      "hand": "left"
    },
    {
      "midi": 53,
      "time": 124.565,
      "duration": 0.217,
      "velocity": 0.49,
      "hand": "left"
    },
    {
      "midi": 56,
      "time": 124.565,
      "duration": 0.217,
      "velocity": 0.49,
      "hand": "left"
    },
    {
      "midi": 59,
      "time": 124.565,
      "duration": 0.217,
      "velocity": 0.49,
      "hand": "left"
    },
    {
      "midi": 86,
      "time": 124.565,
      "duration": 0.217,
      "velocity": 0.5,
      "hand": "right"
    },
    {
      "midi": 93,
      "time": 124.565,
      "duration": 0.054,
      "velocity": 0.5,
      "hand": "right"
    },
    {
      "midi": 94,
      "time": 124.565,
      "duration": 0.054,
      "velocity": 0.5,
      "hand": "right"
    },
    {
      "midi": 95,
      "time": 124.565,
      "duration": 0.217,
      "velocity": 0.5,
      "hand": "right"
    },
    {
      "midi": 43,
      "time": 125.761,
      "duration": 0.326,
      "velocity": 0.49,
      "hand": "left"
    },
    {
      "midi": 55,
      "time": 125.761,
      "duration": 0.326,
      "velocity": 0.49,
      "hand": "left"
    },
    {
      "midi": 71,
      "time": 125.761,
      "duration": 0.109,
      "velocity": 0.5,
      "hand": "right"
    },
    {
      "midi": 73,
      "time": 125.978,
      "duration": 0.109,
      "velocity": 0.5,
      "hand": "right"
    },
    {
      "midi": 50,
      "time": 126.087,
      "duration": 0.326,
      "velocity": 0.49,
      "hand": "left"
    },
    {
      "midi": 55,
      "time": 126.087,
      "duration": 0.326,
      "velocity": 0.49,
      "hand": "left"
    },
    {
      "midi": 59,
      "time": 126.087,
      "duration": 0.326,
      "velocity": 0.49,
      "hand": "left"
    },
    {
      "midi": 74,
      "time": 126.087,
      "duration": 0.109,
      "velocity": 0.5,
      "hand": "right"
    },
    {
      "midi": 76,
      "time": 126.304,
      "duration": 0.109,
      "velocity": 0.5,
      "hand": "right"
    },
    {
      "midi": 42,
      "time": 126.522,
      "duration": 0.326,
      "velocity": 0.49,
      "hand": "left"
    },
    {
      "midi": 54,
      "time": 126.522,
      "duration": 0.326,
      "velocity": 0.49,
      "hand": "left"
    },
    {
      "midi": 78,
      "time": 126.522,
      "duration": 0.109,
      "velocity": 0.5,
      "hand": "right"
    },
    {
      "midi": 74,
      "time": 126.739,
      "duration": 0.109,
      "velocity": 0.5,
      "hand": "right"
    },
    {
      "midi": 50,
      "time": 126.957,
      "duration": 0.326,
      "velocity": 0.49,
      "hand": "left"
    },
    {
      "midi": 54,
      "time": 126.957,
      "duration": 0.326,
      "velocity": 0.49,
      "hand": "left"
    },
    {
      "midi": 59,
      "time": 126.957,
      "duration": 0.326,
      "velocity": 0.49,
      "hand": "left"
    },
    {
      "midi": 78,
      "time": 126.957,
      "duration": 0.109,
      "velocity": 0.5,
      "hand": "right"
    },
    {
      "midi": 83,
      "time": 127.065,
      "duration": 0.109,
      "velocity": 0.5,
      "hand": "right"
    },
    {
      "midi": 30,
      "time": 127.283,
      "duration": 0.326,
      "velocity": 0.49,
      "hand": "left"
    },
    {
      "midi": 42,
      "time": 127.283,
      "duration": 0.326,
      "velocity": 0.49,
      "hand": "left"
    },
    {
      "midi": 82,
      "time": 127.283,
      "duration": 0.109,
      "velocity": 0.5,
      "hand": "right"
    },
    {
      "midi": 78,
      "time": 127.5,
      "duration": 0.109,
      "velocity": 0.5,
      "hand": "right"
    },
    {
      "midi": 49,
      "time": 127.717,
      "duration": 0.326,
      "velocity": 0.49,
      "hand": "left"
    },
    {
      "midi": 54,
      "time": 127.717,
      "duration": 0.326,
      "velocity": 0.49,
      "hand": "left"
    },
    {
      "midi": 58,
      "time": 127.717,
      "duration": 0.326,
      "velocity": 0.49,
      "hand": "left"
    },
    {
      "midi": 82,
      "time": 127.717,
      "duration": 0.109,
      "velocity": 0.5,
      "hand": "right"
    },
    {
      "midi": 85,
      "time": 127.826,
      "duration": 0.109,
      "velocity": 0.5,
      "hand": "right"
    },
    {
      "midi": 35,
      "time": 128.043,
      "duration": 0.326,
      "velocity": 0.49,
      "hand": "left"
    },
    {
      "midi": 47,
      "time": 128.043,
      "duration": 0.326,
      "velocity": 0.49,
      "hand": "left"
    },
    {
      "midi": 83,
      "time": 128.043,
      "duration": 0.652,
      "velocity": 0.5,
      "hand": "right"
    },
    {
      "midi": 50,
      "time": 128.478,
      "duration": 0.326,
      "velocity": 0.49,
      "hand": "left"
    },
    {
      "midi": 54,
      "time": 128.478,
      "duration": 0.326,
      "velocity": 0.49,
      "hand": "left"
    },
    {
      "midi": 59,
      "time": 128.478,
      "duration": 0.326,
      "velocity": 0.49,
      "hand": "left"
    },
    {
      "midi": 35,
      "time": 128.804,
      "duration": 0.326,
      "velocity": 0.49,
      "hand": "left"
    },
    {
      "midi": 47,
      "time": 128.804,
      "duration": 0.326,
      "velocity": 0.49,
      "hand": "left"
    },
    {
      "midi": 92,
      "time": 129.13,
      "duration": 0.054,
      "velocity": 0.5,
      "hand": "right"
    },
    {
      "midi": 50,
      "time": 129.239,
      "duration": 0.217,
      "velocity": 0.49,
      "hand": "left"
    },
    {
      "midi": 53,
      "time": 129.239,
      "duration": 0.217,
      "velocity": 0.49,
      "hand": "left"
    },
    {
      "midi": 56,
      "time": 129.239,
      "duration": 0.217,
      "velocity": 0.49,
      "hand": "left"
    },
    {
      "midi": 59,
      "time": 129.239,
      "duration": 0.217,
      "velocity": 0.49,
      "hand": "left"
    },
    {
      "midi": 86,
      "time": 129.239,
      "duration": 0.109,
      "velocity": 0.5,
      "hand": "right"
    },
    {
      "midi": 93,
      "time": 129.239,
      "duration": 0.054,
      "velocity": 0.5,
      "hand": "right"
    },
    {
      "midi": 94,
      "time": 129.239,
      "duration": 0.054,
      "velocity": 0.5,
      "hand": "right"
    },
    {
      "midi": 95,
      "time": 129.239,
      "duration": 0.109,
      "velocity": 0.5,
      "hand": "right"
    },
    {
      "midi": 35,
      "time": 130.435,
      "duration": 0.326,
      "velocity": 0.49,
      "hand": "left"
    },
    {
      "midi": 47,
      "time": 130.435,
      "duration": 0.326,
      "velocity": 0.49,
      "hand": "left"
    },
    {
      "midi": 50,
      "time": 130.761,
      "duration": 0.217,
      "velocity": 0.49,
      "hand": "left"
    },
    {
      "midi": 53,
      "time": 130.761,
      "duration": 0.217,
      "velocity": 0.49,
      "hand": "left"
    },
    {
      "midi": 56,
      "time": 130.761,
      "duration": 0.217,
      "velocity": 0.49,
      "hand": "left"
    },
    {
      "midi": 59,
      "time": 130.761,
      "duration": 0.217,
      "velocity": 0.49,
      "hand": "left"
    },
    {
      "midi": 86,
      "time": 130.761,
      "duration": 0.217,
      "velocity": 0.5,
      "hand": "right"
    },
    {
      "midi": 92,
      "time": 130.761,
      "duration": 0.054,
      "velocity": 0.5,
      "hand": "right"
    },
    {
      "midi": 93,
      "time": 130.761,
      "duration": 0.054,
      "velocity": 0.5,
      "hand": "right"
    },
    {
      "midi": 94,
      "time": 130.761,
      "duration": 0.054,
      "velocity": 0.5,
      "hand": "right"
    },
    {
      "midi": 95,
      "time": 130.761,
      "duration": 0.217,
      "velocity": 0.5,
      "hand": "right"
    },
    {
      "midi": 43,
      "time": 131.957,
      "duration": 0.326,
      "velocity": 0.49,
      "hand": "left"
    },
    {
      "midi": 55,
      "time": 131.957,
      "duration": 0.326,
      "velocity": 0.49,
      "hand": "left"
    },
    {
      "midi": 83,
      "time": 131.957,
      "duration": 0.109,
      "velocity": 0.5,
      "hand": "right"
    },
    {
      "midi": 85,
      "time": 132.174,
      "duration": 0.109,
      "velocity": 0.5,
      "hand": "right"
    },
    {
      "midi": 50,
      "time": 132.391,
      "duration": 0.326,
      "velocity": 0.49,
      "hand": "left"
    },
    {
      "midi": 55,
      "time": 132.391,
      "duration": 0.326,
      "velocity": 0.49,
      "hand": "left"
    },
    {
      "midi": 59,
      "time": 132.391,
      "duration": 0.326,
      "velocity": 0.49,
      "hand": "left"
    },
    {
      "midi": 86,
      "time": 132.391,
      "duration": 0.109,
      "velocity": 0.5,
      "hand": "right"
    },
    {
      "midi": 88,
      "time": 132.609,
      "duration": 0.109,
      "velocity": 0.5,
      "hand": "right"
    },
    {
      "midi": 42,
      "time": 132.717,
      "duration": 0.326,
      "velocity": 0.49,
      "hand": "left"
    },
    {
      "midi": 54,
      "time": 132.717,
      "duration": 0.326,
      "velocity": 0.49,
      "hand": "left"
    },
    {
      "midi": 90,
      "time": 132.717,
      "duration": 0.109,
      "velocity": 0.5,
      "hand": "right"
    },
    {
      "midi": 86,
      "time": 132.935,
      "duration": 0.109,
      "velocity": 0.5,
      "hand": "right"
    },
    {
      "midi": 50,
      "time": 133.152,
      "duration": 0.326,
      "velocity": 0.49,
      "hand": "left"
    },
    {
      "midi": 54,
      "time": 133.152,
      "duration": 0.326,
      "velocity": 0.49,
      "hand": "left"
    },
    {
      "midi": 59,
      "time": 133.152,
      "duration": 0.326,
      "velocity": 0.49,
      "hand": "left"
    },
    {
      "midi": 90,
      "time": 133.152,
      "duration": 0.109,
      "velocity": 0.5,
      "hand": "right"
    },
    {
      "midi": 95,
      "time": 133.37,
      "duration": 0.109,
      "velocity": 0.5,
      "hand": "right"
    },
    {
      "midi": 30,
      "time": 133.478,
      "duration": 0.326,
      "velocity": 0.49,
      "hand": "left"
    },
    {
      "midi": 42,
      "time": 133.478,
      "duration": 0.326,
      "velocity": 0.49,
      "hand": "left"
    },
    {
      "midi": 94,
      "time": 133.478,
      "duration": 0.109,
      "velocity": 0.5,
      "hand": "right"
    },
    {
      "midi": 90,
      "time": 133.696,
      "duration": 0.109,
      "velocity": 0.5,
      "hand": "right"
    },
    {
      "midi": 49,
      "time": 133.913,
      "duration": 0.326,
      "velocity": 0.49,
      "hand": "left"
    },
    {
      "midi": 54,
      "time": 133.913,
      "duration": 0.326,
      "velocity": 0.49,
      "hand": "left"
    },
    {
      "midi": 58,
      "time": 133.913,
      "duration": 0.326,
      "velocity": 0.49,
      "hand": "left"
    },
    {
      "midi": 94,
      "time": 133.913,
      "duration": 0.109,
      "velocity": 0.5,
      "hand": "right"
    },
    {
      "midi": 97,
      "time": 134.13,
      "duration": 0.109,
      "velocity": 0.5,
      "hand": "right"
    },
    {
      "midi": 35,
      "time": 134.348,
      "duration": 0.326,
      "velocity": 0.49,
      "hand": "left"
    },
    {
      "midi": 47,
      "time": 134.348,
      "duration": 0.326,
      "velocity": 0.49,
      "hand": "left"
    },
    {
      "midi": 95,
      "time": 134.348,
      "duration": 0.652,
      "velocity": 0.5,
      "hand": "right"
    },
    {
      "midi": 50,
      "time": 134.674,
      "duration": 0.326,
      "velocity": 0.49,
      "hand": "left"
    },
    {
      "midi": 54,
      "time": 134.674,
      "duration": 0.326,
      "velocity": 0.49,
      "hand": "left"
    },
    {
      "midi": 59,
      "time": 134.674,
      "duration": 0.326,
      "velocity": 0.49,
      "hand": "left"
    },
    {
      "midi": 35,
      "time": 135.109,
      "duration": 0.326,
      "velocity": 0.49,
      "hand": "left"
    },
    {
      "midi": 47,
      "time": 135.109,
      "duration": 0.326,
      "velocity": 0.49,
      "hand": "left"
    },
    {
      "midi": 50,
      "time": 135.435,
      "duration": 0.217,
      "velocity": 0.49,
      "hand": "left"
    },
    {
      "midi": 53,
      "time": 135.435,
      "duration": 0.217,
      "velocity": 0.49,
      "hand": "left"
    },
    {
      "midi": 56,
      "time": 135.435,
      "duration": 0.217,
      "velocity": 0.49,
      "hand": "left"
    },
    {
      "midi": 59,
      "time": 135.435,
      "duration": 0.217,
      "velocity": 0.49,
      "hand": "left"
    },
    {
      "midi": 86,
      "time": 135.435,
      "duration": 0.109,
      "velocity": 0.5,
      "hand": "right"
    },
    {
      "midi": 92,
      "time": 135.435,
      "duration": 0.054,
      "velocity": 0.5,
      "hand": "right"
    },
    {
      "midi": 93,
      "time": 135.435,
      "duration": 0.054,
      "velocity": 0.5,
      "hand": "right"
    },
    {
      "midi": 94,
      "time": 135.435,
      "duration": 0.054,
      "velocity": 0.5,
      "hand": "right"
    },
    {
      "midi": 95,
      "time": 135.435,
      "duration": 0.109,
      "velocity": 0.5,
      "hand": "right"
    },
    {
      "midi": 35,
      "time": 136.63,
      "duration": 0.326,
      "velocity": 0.49,
      "hand": "left"
    },
    {
      "midi": 47,
      "time": 136.63,
      "duration": 0.326,
      "velocity": 0.49,
      "hand": "left"
    },
    {
      "midi": 92,
      "time": 136.957,
      "duration": 0.054,
      "velocity": 0.5,
      "hand": "right"
    },
    {
      "midi": 93,
      "time": 136.957,
      "duration": 0.054,
      "velocity": 0.5,
      "hand": "right"
    },
    {
      "midi": 94,
      "time": 136.957,
      "duration": 0.054,
      "velocity": 0.5,
      "hand": "right"
    },
    {
      "midi": 50,
      "time": 137.065,
      "duration": 0.217,
      "velocity": 0.49,
      "hand": "left"
    },
    {
      "midi": 53,
      "time": 137.065,
      "duration": 0.217,
      "velocity": 0.49,
      "hand": "left"
    },
    {
      "midi": 56,
      "time": 137.065,
      "duration": 0.217,
      "velocity": 0.49,
      "hand": "left"
    },
    {
      "midi": 59,
      "time": 137.065,
      "duration": 0.217,
      "velocity": 0.49,
      "hand": "left"
    },
    {
      "midi": 86,
      "time": 137.065,
      "duration": 0.109,
      "velocity": 0.5,
      "hand": "right"
    },
    {
      "midi": 95,
      "time": 137.065,
      "duration": 0.109,
      "velocity": 0.5,
      "hand": "right"
    },
    {
      "midi": 35,
      "time": 138.152,
      "duration": 0.326,
      "velocity": 0.49,
      "hand": "left"
    },
    {
      "midi": 47,
      "time": 138.152,
      "duration": 0.326,
      "velocity": 0.49,
      "hand": "left"
    },
    {
      "midi": 92,
      "time": 138.478,
      "duration": 0.054,
      "velocity": 0.5,
      "hand": "right"
    },
    {
      "midi": 50,
      "time": 138.587,
      "duration": 0.217,
      "velocity": 0.49,
      "hand": "left"
    },
    {
      "midi": 53,
      "time": 138.587,
      "duration": 0.217,
      "velocity": 0.49,
      "hand": "left"
    },
    {
      "midi": 56,
      "time": 138.587,
      "duration": 0.217,
      "velocity": 0.49,
      "hand": "left"
    },
    {
      "midi": 59,
      "time": 138.587,
      "duration": 0.217,
      "velocity": 0.49,
      "hand": "left"
    },
    {
      "midi": 86,
      "time": 138.587,
      "duration": 0.326,
      "velocity": 0.49,
      "hand": "right"
    },
    {
      "midi": 93,
      "time": 138.587,
      "duration": 0.054,
      "velocity": 0.5,
      "hand": "right"
    },
    {
      "midi": 94,
      "time": 138.587,
      "duration": 0.054,
      "velocity": 0.5,
      "hand": "right"
    },
    {
      "midi": 95,
      "time": 138.587,
      "duration": 0.326,
      "velocity": 0.49,
      "hand": "right"
    },
    {
      "midi": 92,
      "time": 138.913,
      "duration": 0.054,
      "velocity": 0.49,
      "hand": "right"
    },
    {
      "midi": 93,
      "time": 138.913,
      "duration": 0.054,
      "velocity": 0.49,
      "hand": "right"
    },
    {
      "midi": 94,
      "time": 138.913,
      "duration": 0.054,
      "velocity": 0.49,
      "hand": "right"
    },
    {
      "midi": 50,
      "time": 139.022,
      "duration": 0.217,
      "velocity": 0.49,
      "hand": "left"
    },
    {
      "midi": 53,
      "time": 139.022,
      "duration": 0.217,
      "velocity": 0.49,
      "hand": "left"
    },
    {
      "midi": 56,
      "time": 139.022,
      "duration": 0.217,
      "velocity": 0.49,
      "hand": "left"
    },
    {
      "midi": 59,
      "time": 139.022,
      "duration": 0.217,
      "velocity": 0.49,
      "hand": "left"
    },
    {
      "midi": 86,
      "time": 139.022,
      "duration": 0.326,
      "velocity": 0.49,
      "hand": "right"
    },
    {
      "midi": 95,
      "time": 139.022,
      "duration": 0.326,
      "velocity": 0.49,
      "hand": "right"
    },
    {
      "midi": 50,
      "time": 139.348,
      "duration": 0.217,
      "velocity": 0.49,
      "hand": "left"
    },
    {
      "midi": 53,
      "time": 139.348,
      "duration": 0.217,
      "velocity": 0.49,
      "hand": "left"
    },
    {
      "midi": 56,
      "time": 139.348,
      "duration": 0.217,
      "velocity": 0.49,
      "hand": "left"
    },
    {
      "midi": 59,
      "time": 139.348,
      "duration": 0.217,
      "velocity": 0.49,
      "hand": "left"
    },
    {
      "midi": 86,
      "time": 139.348,
      "duration": 0.326,
      "velocity": 0.49,
      "hand": "right"
    },
    {
      "midi": 92,
      "time": 139.348,
      "duration": 0.054,
      "velocity": 0.49,
      "hand": "right"
    },
    {
      "midi": 93,
      "time": 139.348,
      "duration": 0.054,
      "velocity": 0.49,
      "hand": "right"
    },
    {
      "midi": 94,
      "time": 139.348,
      "duration": 0.054,
      "velocity": 0.49,
      "hand": "right"
    },
    {
      "midi": 95,
      "time": 139.348,
      "duration": 0.326,
      "velocity": 0.49,
      "hand": "right"
    },
    {
      "midi": 92,
      "time": 139.674,
      "duration": 0.054,
      "velocity": 0.49,
      "hand": "right"
    },
    {
      "midi": 93,
      "time": 139.674,
      "duration": 0.054,
      "velocity": 0.49,
      "hand": "right"
    },
    {
      "midi": 50,
      "time": 139.783,
      "duration": 0.217,
      "velocity": 0.49,
      "hand": "left"
    },
    {
      "midi": 53,
      "time": 139.783,
      "duration": 0.217,
      "velocity": 0.49,
      "hand": "left"
    },
    {
      "midi": 56,
      "time": 139.783,
      "duration": 0.217,
      "velocity": 0.49,
      "hand": "left"
    },
    {
      "midi": 59,
      "time": 139.783,
      "duration": 0.217,
      "velocity": 0.49,
      "hand": "left"
    },
    {
      "midi": 86,
      "time": 139.783,
      "duration": 0.326,
      "velocity": 0.49,
      "hand": "right"
    },
    {
      "midi": 94,
      "time": 139.783,
      "duration": 0.054,
      "velocity": 0.49,
      "hand": "right"
    },
    {
      "midi": 95,
      "time": 139.783,
      "duration": 0.326,
      "velocity": 0.49,
      "hand": "right"
    },
    {
      "midi": 50,
      "time": 140.109,
      "duration": 0.217,
      "velocity": 0.49,
      "hand": "left"
    },
    {
      "midi": 53,
      "time": 140.109,
      "duration": 0.217,
      "velocity": 0.49,
      "hand": "left"
    },
    {
      "midi": 56,
      "time": 140.109,
      "duration": 0.217,
      "velocity": 0.49,
      "hand": "left"
    },
    {
      "midi": 59,
      "time": 140.109,
      "duration": 0.217,
      "velocity": 0.49,
      "hand": "left"
    },
    {
      "midi": 92,
      "time": 140.109,
      "duration": 0.054,
      "velocity": 0.5,
      "hand": "right"
    },
    {
      "midi": 93,
      "time": 140.109,
      "duration": 0.054,
      "velocity": 0.51,
      "hand": "right"
    },
    {
      "midi": 94,
      "time": 140.109,
      "duration": 0.054,
      "velocity": 0.51,
      "hand": "right"
    },
    {
      "midi": 86,
      "time": 140.217,
      "duration": 0.326,
      "velocity": 0.51,
      "hand": "right"
    },
    {
      "midi": 95,
      "time": 140.217,
      "duration": 0.326,
      "velocity": 0.51,
      "hand": "right"
    },
    {
      "midi": 50,
      "time": 140.543,
      "duration": 0.217,
      "velocity": 0.49,
      "hand": "left"
    },
    {
      "midi": 53,
      "time": 140.543,
      "duration": 0.217,
      "velocity": 0.49,
      "hand": "left"
    },
    {
      "midi": 56,
      "time": 140.543,
      "duration": 0.217,
      "velocity": 0.49,
      "hand": "left"
    },
    {
      "midi": 59,
      "time": 140.543,
      "duration": 0.217,
      "velocity": 0.49,
      "hand": "left"
    },
    {
      "midi": 86,
      "time": 140.543,
      "duration": 0.326,
      "velocity": 0.54,
      "hand": "right"
    },
    {
      "midi": 92,
      "time": 140.543,
      "duration": 0.054,
      "velocity": 0.54,
      "hand": "right"
    },
    {
      "midi": 93,
      "time": 140.543,
      "duration": 0.054,
      "velocity": 0.54,
      "hand": "right"
    },
    {
      "midi": 94,
      "time": 140.543,
      "duration": 0.054,
      "velocity": 0.54,
      "hand": "right"
    },
    {
      "midi": 95,
      "time": 140.543,
      "duration": 0.326,
      "velocity": 0.54,
      "hand": "right"
    },
    {
      "midi": 92,
      "time": 140.87,
      "duration": 0.054,
      "velocity": 0.56,
      "hand": "right"
    },
    {
      "midi": 50,
      "time": 140.978,
      "duration": 0.217,
      "velocity": 0.49,
      "hand": "left"
    },
    {
      "midi": 53,
      "time": 140.978,
      "duration": 0.217,
      "velocity": 0.49,
      "hand": "left"
    },
    {
      "midi": 56,
      "time": 140.978,
      "duration": 0.217,
      "velocity": 0.49,
      "hand": "left"
    },
    {
      "midi": 59,
      "time": 140.978,
      "duration": 0.217,
      "velocity": 0.49,
      "hand": "left"
    },
    {
      "midi": 86,
      "time": 140.978,
      "duration": 0.326,
      "velocity": 0.57,
      "hand": "right"
    },
    {
      "midi": 93,
      "time": 140.978,
      "duration": 0.054,
      "velocity": 0.56,
      "hand": "right"
    },
    {
      "midi": 94,
      "time": 140.978,
      "duration": 0.054,
      "velocity": 0.56,
      "hand": "right"
    },
    {
      "midi": 95,
      "time": 140.978,
      "duration": 0.326,
      "velocity": 0.57,
      "hand": "right"
    },
    {
      "midi": 35,
      "time": 142.065,
      "duration": 0.109,
      "velocity": 0.49,
      "hand": "left"
    },
    {
      "midi": 47,
      "time": 142.174,
      "duration": 0.109,
      "velocity": 0.49,
      "hand": "left"
    },
    {
      "midi": 35,
      "time": 142.283,
      "duration": 0.109,
      "velocity": 0.49,
      "hand": "left"
    },
    {
      "midi": 47,
      "time": 142.391,
      "duration": 0.109,
      "velocity": 0.49,
      "hand": "left"
    },
    {
      "midi": 35,
      "time": 142.5,
      "duration": 0.109,
      "velocity": 0.49,
      "hand": "left"
    },
    {
      "midi": 47,
      "time": 142.609,
      "duration": 0.109,
      "velocity": 0.49,
      "hand": "left"
    },
    {
      "midi": 35,
      "time": 142.717,
      "duration": 0.109,
      "velocity": 0.49,
      "hand": "left"
    },
    {
      "midi": 35,
      "time": 142.826,
      "duration": 0.109,
      "velocity": 0.49,
      "hand": "left"
    },
    {
      "midi": 47,
      "time": 142.826,
      "duration": 0.109,
      "velocity": 0.49,
      "hand": "left"
    },
    {
      "midi": 47,
      "time": 142.935,
      "duration": 0.109,
      "velocity": 0.49,
      "hand": "left"
    },
    {
      "midi": 35,
      "time": 143.043,
      "duration": 0.109,
      "velocity": 0.49,
      "hand": "left"
    },
    {
      "midi": 47,
      "time": 143.152,
      "duration": 0.109,
      "velocity": 0.49,
      "hand": "left"
    },
    {
      "midi": 35,
      "time": 143.261,
      "duration": 0.109,
      "velocity": 0.49,
      "hand": "left"
    },
    {
      "midi": 47,
      "time": 143.37,
      "duration": 0.109,
      "velocity": 0.49,
      "hand": "left"
    },
    {
      "midi": 35,
      "time": 143.478,
      "duration": 0.109,
      "velocity": 0.49,
      "hand": "left"
    },
    {
      "midi": 47,
      "time": 143.587,
      "duration": 0.109,
      "velocity": 0.56,
      "hand": "left"
    },
    {
      "midi": 35,
      "time": 143.696,
      "duration": 0.109,
      "velocity": 0.64,
      "hand": "left"
    },
    {
      "midi": 35,
      "time": 143.804,
      "duration": 0.109,
      "velocity": 0.71,
      "hand": "left"
    },
    {
      "midi": 47,
      "time": 143.804,
      "duration": 0.109,
      "velocity": 0.71,
      "hand": "left"
    },
    {
      "midi": 47,
      "time": 143.913,
      "duration": 0.109,
      "velocity": 0.71,
      "hand": "left"
    },
    {
      "midi": 35,
      "time": 144.022,
      "duration": 0.109,
      "velocity": 0.71,
      "hand": "left"
    },
    {
      "midi": 47,
      "time": 144.13,
      "duration": 0.109,
      "velocity": 0.71,
      "hand": "left"
    },
    {
      "midi": 35,
      "time": 144.239,
      "duration": 0.109,
      "velocity": 0.71,
      "hand": "left"
    },
    {
      "midi": 47,
      "time": 144.348,
      "duration": 0.109,
      "velocity": 0.71,
      "hand": "left"
    },
    {
      "midi": 23,
      "time": 144.457,
      "duration": 0.326,
      "velocity": 0.8,
      "hand": "left"
    },
    {
      "midi": 35,
      "time": 144.457,
      "duration": 0.326,
      "velocity": 0.8,
      "hand": "left"
    },
    {
      "midi": 47,
      "time": 144.783,
      "duration": 0.217,
      "velocity": 0.8,
      "hand": "left"
    },
    {
      "midi": 50,
      "time": 144.783,
      "duration": 0.217,
      "velocity": 0.8,
      "hand": "left"
    },
    {
      "midi": 54,
      "time": 144.783,
      "duration": 0.217,
      "velocity": 0.8,
      "hand": "left"
    },
    {
      "midi": 59,
      "time": 144.783,
      "duration": 0.217,
      "velocity": 0.8,
      "hand": "left"
    },
    {
      "midi": 92,
      "time": 144.783,
      "duration": 0.054,
      "velocity": 0.8,
      "hand": "right"
    },
    {
      "midi": 86,
      "time": 144.891,
      "duration": 0.326,
      "velocity": 0.8,
      "hand": "right"
    },
    {
      "midi": 93,
      "time": 144.891,
      "duration": 0.054,
      "velocity": 0.8,
      "hand": "right"
    },
    {
      "midi": 94,
      "time": 144.891,
      "duration": 0.054,
      "velocity": 0.8,
      "hand": "right"
    },
    {
      "midi": 95,
      "time": 144.891,
      "duration": 0.326,
      "velocity": 0.8,
      "hand": "right"
    }
  ]
}
