{
  "id": "mais-perto-quero-estar",
  "title": "Mais Perto Quero Estar",
  "artist": "Sarah Flower Adams",
  "difficulty": "Fácil",
  "bpm": 100,
  "duration": 38,
  "category": "Religiosos",
  "isPremium": false,
  "coverUrl": "/images/covers/placeholder.png",
  "notes": [
    {
      "midi": 53,
      "time": 0,
      "duration": 1.2,
      "velocity": 0.5,
      "hand": "left"
    },
    {
      "midi": 60,
      "time": 0,
      "duration": 1.2,
      "velocity": 0.5,
      "hand": "right"
    },
    {
      "midi": 69,
      "time": 0,
      "duration": 1.2,
      "velocity": 0.5,
      "hand": "right"
    },
    {
      "midi": 48,
      "time": 1.2,
      "duration": 0.6,
      "velocity": 0.57,
      "hand": "left"
    },
    {
      "midi": 52,
      "time": 1.2,
      "duration": 0.6,
      "velocity": 0.57,
      "hand": "left"
    },
    {
      "midi": 58,
      "time": 1.2,
      "duration": 0.6,
      "velocity": 0.55,
      "hand": "left"
    },
    {
      "midi": 67,
      "time": 1.2,
      "duration": 0.6,
      "velocity": 0.55,
      "hand": "right"
    },
    {
      "midi": 50,
      "time": 1.8,
      "duration": 0.6,
      "velocity": 0.61,
      "hand": "left"
    },
    {
      "midi": 53,
      "time": 1.8,
      "duration": 0.6,
      "velocity": 0.61,
      "hand": "left"
    },
    {
      "midi": 57,
      "time": 1.8,
      "duration": 0.6,
      "velocity": 0.53,
      "hand": "left"
    },
    {
      "midi": 65,
      "time": 1.8,
      "duration": 0.6,
      "velocity": 0.53,
      "hand": "right"
    },
    {
      "midi": 46,
      "time": 2.4,
      "duration": 0.9,
      "velocity": 0.61,
      "hand": "left"
    },
    {
      "midi": 58,
      "time": 2.4,
      "duration": 0.9,
      "velocity": 0.61,
      "hand": "left"
    },
    {
      "midi": 62,
      "time": 2.4,
      "duration": 0.9,
      "velocity": 0.56,
      "hand": "right"
    },
    {
      "midi": 65,
      "time": 2.4,
      "duration": 0.9,
      "velocity": 0.56,
      "hand": "right"
    },
    {
      "midi": 46,
      "time": 3.3,
      "duration": 0.3,
      "velocity": 0.54,
      "hand": "left"
    },
    {
      "midi": 53,
      "time": 3.3,
      "duration": 0.3,
      "velocity": 0.54,
      "hand": "left"
    },
    {
      "midi": 58,
      "time": 3.3,
      "duration": 0.3,
      "velocity": 0.5,
      "hand": "left"
    },
    {
      "midi": 62,
      "time": 3.3,
      "duration": 0.3,
      "velocity": 0.5,
      "hand": "right"
    },
    {
      "midi": 46,
      "time": 3.6,
      "duration": 1.2,
      "velocity": 0.62,
      "hand": "left"
    },
    {
      "midi": 53,
      "time": 3.6,
      "duration": 1.2,
      "velocity": 0.62,
      "hand": "left"
    },
    {
      "midi": 58,
      "time": 3.6,
      "duration": 1.2,
      "velocity": 0.57,
      "hand": "left"
    },
    {
      "midi": 62,
      "time": 3.6,
      "duration": 1.2,
      "velocity": 0.57,
      "hand": "right"
    },
    {
      "midi": 41,
      "time": 4.8,
      "duration": 1.2,
      "velocity": 0.59,
      "hand": "left"
    },
    {
      "midi": 57,
      "time": 4.8,
      "duration": 1.2,
      "velocity": 0.59,
      "hand": "left"
    },
    {
      "midi": 60,
      "time": 4.8,
      "duration": 1.2,
      "velocity": 0.54,
      "hand": "right"
    },
    {
      "midi": 45,
      "time": 6,
      "duration": 0.6,
      "velocity": 0.6,
      "hand": "left"
    },
    {
      "midi": 53,
      "time": 6,
      "duration": 0.6,
      "velocity": 0.6,
      "hand": "left"
    },
    {
      "midi": 60,
      "time": 6,
      "duration": 0.6,
      "velocity": 0.7,
      "hand": "right"
    },
    {
      "midi": 65,
      "time": 6,
      "duration": 0.6,
      "velocity": 0.7,
      "hand": "right"
    },
    {
      "midi": 41,
      "time": 6.6,
      "duration": 0.6,
      "velocity": 0.57,
      "hand": "left"
    },
    {
      "midi": 53,
      "time": 6.6,
      "duration": 0.6,
      "velocity": 0.57,
      "hand": "left"
    },
    {
      "midi": 60,
      "time": 6.6,
      "duration": 0.6,
      "velocity": 0.66,
      "hand": "right"
    },
    {
      "midi": 69,
      "time": 6.6,
      "duration": 0.6,
      "velocity": 0.66,
      "hand": "right"
    },
    {
      "midi": 48,
      "time": 7.2,
      "duration": 2.4,
      "velocity": 0.58,
      "hand": "left"
    },
    {
      "midi": 52,
      "time": 7.2,
      "duration": 2.4,
      "velocity": 0.58,
      "hand": "left"
    },
    {
      "midi": 60,
      "time": 7.2,
      "duration": 2.4,
      "velocity": 0.6,
      "hand": "right"
    },
    {
      "midi": 67,
      "time": 7.2,
      "duration": 2.4,
      "velocity": 0.6,
      "hand": "right"
    },
    {
      "midi": 53,
      "time": 9.6,
      "duration": 1.2,
      "velocity": 0.56,
      "hand": "left"
    },
    {
      "midi": 60,
      "time": 9.6,
      "duration": 1.2,
      "velocity": 0.61,
      "hand": "right"
    },
    {
      "midi": 69,
      "time": 9.6,
      "duration": 1.2,
      "velocity": 0.61,
      "hand": "right"
    },
    {
      "midi": 48,
      "time": 10.8,
      "duration": 0.6,
      "velocity": 0.58,
      "hand": "left"
    },
    {
      "midi": 52,
      "time": 10.8,
      "duration": 0.6,
      "velocity": 0.58,
      "hand": "left"
    },
    {
      "midi": 58,
      "time": 10.8,
      "duration": 0.6,
      "velocity": 0.57,
      "hand": "left"
    },
    {
      "midi": 67,
      "time": 10.8,
      "duration": 0.6,
      "velocity": 0.57,
      "hand": "right"
    },
    {
      "midi": 50,
      "time": 11.4,
      "duration": 0.6,
      "velocity": 0.61,
      "hand": "left"
    },
    {
      "midi": 53,
      "time": 11.4,
      "duration": 0.6,
      "velocity": 0.61,
      "hand": "left"
    },
    {
      "midi": 57,
      "time": 11.4,
      "duration": 0.6,
      "velocity": 0.57,
      "hand": "left"
    },
    {
      "midi": 65,
      "time": 11.4,
      "duration": 0.6,
      "velocity": 0.57,
      "hand": "right"
    },
    {
      "midi": 46,
      "time": 12,
      "duration": 0.9,
      "velocity": 0.63,
      "hand": "left"
    },
    {
      "midi": 58,
      "time": 12,
      "duration": 0.9,
      "velocity": 0.63,
      "hand": "left"
    },
    {
      "midi": 62,
      "time": 12,
      "duration": 0.9,
      "velocity": 0.63,
      "hand": "right"
    },
    {
      "midi": 65,
      "time": 12,
      "duration": 0.9,
      "velocity": 0.63,
      "hand": "right"
    },
    {
      "midi": 46,
      "time": 12.9,
      "duration": 0.3,
      "velocity": 0.58,
      "hand": "left"
    },
    {
      "midi": 53,
      "time": 12.9,
      "duration": 0.3,
      "velocity": 0.58,
      "hand": "left"
    },
    {
      "midi": 58,
      "time": 12.9,
      "duration": 0.3,
      "velocity": 0.59,
      "hand": "left"
    },
    {
      "midi": 62,
      "time": 12.9,
      "duration": 0.3,
      "velocity": 0.59,
      "hand": "right"
    },
    {
      "midi": 46,
      "time": 13.2,
      "duration": 1.2,
      "velocity": 0.56,
      "hand": "left"
    },
    {
      "midi": 53,
      "time": 13.2,
      "duration": 1.2,
      "velocity": 0.56,
      "hand": "left"
    },
    {
      "midi": 58,
      "time": 13.2,
      "duration": 1.2,
      "velocity": 0.61,
      "hand": "left"
    },
    {
      "midi": 62,
      "time": 13.2,
      "duration": 1.2,
      "velocity": 0.61,
      "hand": "right"
    },
    {
      "midi": 48,
      "time": 14.4,
      "duration": 1.2,
      "velocity": 0.5,
      "hand": "left"
    },
    {
      "midi": 53,
      "time": 14.4,
      "duration": 0.6,
      "velocity": 0.6,
      "hand": "left"
    },
    {
      "midi": 57,
      "time": 14.4,
      "duration": 0.6,
      "velocity": 0.56,
      "hand": "left"
    },
    {
      "midi": 60,
      "time": 14.4,
      "duration": 0.6,
      "velocity": 0.56,
      "hand": "right"
    },
    {
      "midi": 57,
      "time": 15,
      "duration": 0.6,
      "velocity": 0.65,
      "hand": "left"
    },
    {
      "midi": 60,
      "time": 15,
      "duration": 0.6,
      "velocity": 0.69,
      "hand": "right"
    },
    {
      "midi": 65,
      "time": 15,
      "duration": 0.6,
      "velocity": 0.69,
      "hand": "right"
    },
    {
      "midi": 48,
      "time": 15.6,
      "duration": 0.6,
      "velocity": 0.57,
      "hand": "left"
    },
    {
      "midi": 55,
      "time": 15.6,
      "duration": 0.6,
      "velocity": 0.57,
      "hand": "left"
    },
    {
      "midi": 60,
      "time": 15.6,
      "duration": 0.6,
      "velocity": 0.53,
      "hand": "right"
    },
    {
      "midi": 64,
      "time": 15.6,
      "duration": 0.6,
      "velocity": 0.53,
      "hand": "right"
    },
    {
      "midi": 48,
      "time": 16.2,
      "duration": 0.6,
      "velocity": 0.64,
      "hand": "left"
    },
    {
      "midi": 58,
      "time": 16.2,
      "duration": 0.6,
      "velocity": 0.64,
      "hand": "left"
    },
    {
      "midi": 60,
      "time": 16.2,
      "duration": 0.6,
      "velocity": 0.65,
      "hand": "right"
    },
    {
      "midi": 67,
      "time": 16.2,
      "duration": 0.6,
      "velocity": 0.65,
      "hand": "right"
    },
    {
      "midi": 41,
      "time": 16.8,
      "duration": 2.4,
      "velocity": 0.56,
      "hand": "left"
    },
    {
      "midi": 57,
      "time": 16.8,
      "duration": 2.4,
      "velocity": 0.56,
      "hand": "left"
    },
    {
      "midi": 60,
      "time": 16.8,
      "duration": 2.4,
      "velocity": 0.6,
      "hand": "right"
    },
    {
      "midi": 65,
      "time": 16.8,
      "duration": 2.4,
      "velocity": 0.6,
      "hand": "right"
    },
    {
      "midi": 53,
      "time": 19.2,
      "duration": 1.2,
      "velocity": 0.57,
      "hand": "left"
    },
    {
      "midi": 57,
      "time": 19.2,
      "duration": 1.2,
      "velocity": 0.57,
      "hand": "left"
    },
    {
      "midi": 65,
      "time": 19.2,
      "duration": 1.2,
      "velocity": 0.72,
      "hand": "right"
    },
    {
      "midi": 72,
      "time": 19.2,
      "duration": 1.2,
      "velocity": 0.72,
      "hand": "right"
    },
    {
      "midi": 53,
      "time": 20.4,
      "duration": 0.6,
      "velocity": 0.57,
      "hand": "left"
    },
    {
      "midi": 58,
      "time": 20.4,
      "duration": 0.6,
      "velocity": 0.57,
      "hand": "left"
    },
    {
      "midi": 65,
      "time": 20.4,
      "duration": 0.6,
      "velocity": 0.65,
      "hand": "right"
    },
    {
      "midi": 74,
      "time": 20.4,
      "duration": 0.6,
      "velocity": 0.65,
      "hand": "right"
    },
    {
      "midi": 53,
      "time": 21,
      "duration": 0.6,
      "velocity": 0.56,
      "hand": "left"
    },
    {
      "midi": 57,
      "time": 21,
      "duration": 0.6,
      "velocity": 0.56,
      "hand": "left"
    },
    {
      "midi": 65,
      "time": 21,
      "duration": 0.6,
      "velocity": 0.54,
      "hand": "right"
    },
    {
      "midi": 72,
      "time": 21,
      "duration": 0.6,
      "velocity": 0.54,
      "hand": "right"
    },
    {
      "midi": 53,
      "time": 21.6,
      "duration": 0.9,
      "velocity": 0.62,
      "hand": "left"
    },
    {
      "midi": 57,
      "time": 21.6,
      "duration": 0.9,
      "velocity": 0.62,
      "hand": "left"
    },
    {
      "midi": 65,
      "time": 21.6,
      "duration": 0.9,
      "velocity": 0.6,
      "hand": "right"
    },
    {
      "midi": 72,
      "time": 21.6,
      "duration": 0.9,
      "velocity": 0.6,
      "hand": "right"
    },
    {
      "midi": 53,
      "time": 22.5,
      "duration": 0.3,
      "velocity": 0.62,
      "hand": "left"
    },
    {
      "midi": 60,
      "time": 22.5,
      "duration": 0.3,
      "velocity": 0.62,
      "hand": "right"
    },
    {
      "midi": 65,
      "time": 22.5,
      "duration": 0.3,
      "velocity": 0.54,
      "hand": "right"
    },
    {
      "midi": 69,
      "time": 22.5,
      "duration": 0.3,
      "velocity": 0.54,
      "hand": "right"
    },
    {
      "midi": 53,
      "time": 22.8,
      "duration": 1.2,
      "velocity": 0.56,
      "hand": "left"
    },
    {
      "midi": 57,
      "time": 22.8,
      "duration": 1.2,
      "velocity": 0.56,
      "hand": "left"
    },
    {
      "midi": 65,
      "time": 22.8,
      "duration": 1.2,
      "velocity": 0.67,
      "hand": "right"
    },
    {
      "midi": 72,
      "time": 22.8,
      "duration": 1.2,
      "velocity": 0.67,
      "hand": "right"
    },
    {
      "midi": 53,
      "time": 24,
      "duration": 1.2,
      "velocity": 0.56,
      "hand": "left"
    },
    {
      "midi": 57,
      "time": 24,
      "duration": 1.2,
      "velocity": 0.56,
      "hand": "left"
    },
    {
      "midi": 65,
      "time": 24,
      "duration": 1.2,
      "velocity": 0.59,
      "hand": "right"
    },
    {
      "midi": 72,
      "time": 24,
      "duration": 1.2,
      "velocity": 0.59,
      "hand": "right"
    },
    {
      "midi": 46,
      "time": 25.2,
      "duration": 0.6,
      "velocity": 0.61,
      "hand": "left"
    },
    {
      "midi": 58,
      "time": 25.2,
      "duration": 0.6,
      "velocity": 0.61,
      "hand": "left"
    },
    {
      "midi": 65,
      "time": 25.2,
      "duration": 0.6,
      "velocity": 0.63,
      "hand": "right"
    },
    {
      "midi": 74,
      "time": 25.2,
      "duration": 0.6,
      "velocity": 0.63,
      "hand": "right"
    },
    {
      "midi": 53,
      "time": 25.8,
      "duration": 0.6,
      "velocity": 0.59,
      "hand": "left"
    },
    {
      "midi": 57,
      "time": 25.8,
      "duration": 0.6,
      "velocity": 0.59,
      "hand": "left"
    },
    {
      "midi": 65,
      "time": 25.8,
      "duration": 0.6,
      "velocity": 0.57,
      "hand": "right"
    },
    {
      "midi": 72,
      "time": 25.8,
      "duration": 0.6,
      "velocity": 0.57,
      "hand": "right"
    },
    {
      "midi": 52,
      "time": 26.4,
      "duration": 0.9,
      "velocity": 0.57,
      "hand": "left"
    },
    {
      "midi": 55,
      "time": 26.4,
      "duration": 0.9,
      "velocity": 0.57,
      "hand": "left"
    },
    {
      "midi": 67,
      "time": 26.4,
      "duration": 0.9,
      "velocity": 0.64,
      "hand": "right"
    },
    {
      "midi": 72,
      "time": 26.4,
      "duration": 0.9,
      "velocity": 0.64,
      "hand": "right"
    },
    {
      "midi": 53,
      "time": 27.3,
      "duration": 0.3,
      "velocity": 0.57,
      "hand": "left"
    },
    {
      "midi": 60,
      "time": 27.3,
      "duration": 0.3,
      "velocity": 0.52,
      "hand": "right"
    },
    {
      "midi": 69,
      "time": 27.3,
      "duration": 0.3,
      "velocity": 0.52,
      "hand": "right"
    },
    {
      "midi": 48,
      "time": 27.6,
      "duration": 1.2,
      "velocity": 0.57,
      "hand": "left"
    },
    {
      "midi": 52,
      "time": 27.6,
      "duration": 1.2,
      "velocity": 0.57,
      "hand": "left"
    },
    {
      "midi": 60,
      "time": 27.6,
      "duration": 1.2,
      "velocity": 0.52,
      "hand": "right"
    },
    {
      "midi": 67,
      "time": 27.6,
      "duration": 1.2,
      "velocity": 0.52,
      "hand": "right"
    },
    {
      "midi": 53,
      "time": 28.8,
      "duration": 1.2,
      "velocity": 0.61,
      "hand": "left"
    },
    {
      "midi": 60,
      "time": 28.8,
      "duration": 1.2,
      "velocity": 0.66,
      "hand": "right"
    },
    {
      "midi": 69,
      "time": 28.8,
      "duration": 1.2,
      "velocity": 0.66,
      "hand": "right"
    },
    {
      "midi": 48,
      "time": 30,
      "duration": 0.6,
      "velocity": 0.58,
      "hand": "left"
    },
    {
      "midi": 52,
      "time": 30,
      "duration": 0.6,
      "velocity": 0.58,
      "hand": "left"
    },
    {
      "midi": 58,
      "time": 30,
      "duration": 0.6,
      "velocity": 0.52,
      "hand": "left"
    },
    {
      "midi": 67,
      "time": 30,
      "duration": 0.6,
      "velocity": 0.52,
      "hand": "right"
    },
    {
      "midi": 50,
      "time": 30.6,
      "duration": 0.6,
      "velocity": 0.61,
      "hand": "left"
    },
    {
      "midi": 53,
      "time": 30.6,
      "duration": 0.6,
      "velocity": 0.61,
      "hand": "left"
    },
    {
      "midi": 57,
      "time": 30.6,
      "duration": 0.6,
      "velocity": 0.56,
      "hand": "left"
    },
    {
      "midi": 65,
      "time": 30.6,
      "duration": 0.6,
      "velocity": 0.56,
      "hand": "right"
    },
    {
      "midi": 46,
      "time": 31.2,
      "duration": 0.9,
      "velocity": 0.62,
      "hand": "left"
    },
    {
      "midi": 58,
      "time": 31.2,
      "duration": 0.9,
      "velocity": 0.62,
      "hand": "left"
    },
    {
      "midi": 62,
      "time": 31.2,
      "duration": 0.9,
      "velocity": 0.59,
      "hand": "right"
    },
    {
      "midi": 65,
      "time": 31.2,
      "duration": 0.9,
      "velocity": 0.59,
      "hand": "right"
    },
    {
      "midi": 46,
      "time": 32.1,
      "duration": 0.3,
      "velocity": 0.56,
      "hand": "left"
    },
    {
      "midi": 53,
      "time": 32.1,
      "duration": 0.3,
      "velocity": 0.56,
      "hand": "left"
    },
    {
      "midi": 58,
      "time": 32.1,
      "duration": 0.3,
      "velocity": 0.54,
      "hand": "left"
    },
    {
      "midi": 62,
      "time": 32.1,
      "duration": 0.3,
      "velocity": 0.54,
      "hand": "right"
    },
    {
      "midi": 46,
      "time": 32.4,
      "duration": 1.2,
      "velocity": 0.59,
      "hand": "left"
    },
    {
      "midi": 53,
      "time": 32.4,
      "duration": 1.2,
      "velocity": 0.59,
      "hand": "left"
    },
    {
      "midi": 58,
      "time": 32.4,
      "duration": 1.2,
      "velocity": 0.63,
      "hand": "left"
    },
    {
      "midi": 62,
      "time": 32.4,
      "duration": 1.2,
      "velocity": 0.63,
      "hand": "right"
    },
    {
      "midi": 48,
      "time": 33.6,
      "duration": 1.2,
      "velocity": 0.52,
      "hand": "left"
    },
    {
      "midi": 53,
      "time": 33.6,
      "duration": 0.6,
      "velocity": 0.58,
      "hand": "left"
    },
    {
      "midi": 57,
      "time": 33.6,
      "duration": 0.6,
      "velocity": 0.51,
      "hand": "left"
    },
    {
      "midi": 60,
      "time": 33.6,
      "duration": 0.6,
      "velocity": 0.51,
      "hand": "right"
    },
    {
      "midi": 57,
      "time": 34.2,
      "duration": 0.6,
      "velocity": 0.62,
      "hand": "left"
    },
    {
      "midi": 60,
      "time": 34.2,
      "duration": 0.6,
      "velocity": 0.7,
      "hand": "right"
    },
    {
      "midi": 65,
      "time": 34.2,
      "duration": 0.6,
      "velocity": 0.7,
      "hand": "right"
    },
    {
      "midi": 48,
      "time": 34.8,
      "duration": 0.6,
      "velocity": 0.6,
      "hand": "left"
    },
    {
      "midi": 55,
      "time": 34.8,
      "duration": 0.6,
      "velocity": 0.6,
      "hand": "left"
    },
    {
      "midi": 60,
      "time": 34.8,
      "duration": 0.6,
      "velocity": 0.6,
      "hand": "right"
    },
    {
      "midi": 64,
      "time": 34.8,
      "duration": 0.6,
      "velocity": 0.6,
      "hand": "right"
    },
    {
      "midi": 48,
      "time": 35.4,
      "duration": 0.6,
      "velocity": 0.65,
      "hand": "left"
    },
    {
      "midi": 58,
      "time": 35.4,
      "duration": 0.6,
      "velocity": 0.65,
      "hand": "left"
    },
    {
      "midi": 60,
      "time": 35.4,
      "duration": 0.6,
      "velocity": 0.65,
      "hand": "right"
    },
    {
      "midi": 67,
      "time": 35.4,
      "duration": 0.6,
      "velocity": 0.65,
      "hand": "right"
    },
    {
      "midi": 41,
      "time": 36,
      "duration": 2.4,
      "velocity": 0.58,
      "hand": "left"
    },
    {
      "midi": 57,
      "time": 36,
      "duration": 2.4,
      "velocity": 0.58,
      "hand": "left"
    },
    {
      "midi": 60,
      "time": 36,
      "duration": 2.4,
      "velocity": 0.55,
      "hand": "right"
    },
    {
      "midi": 65,
      "time": 36,
      "duration": 2.4,
      "velocity": 0.55,
      "hand": "right"
    }
  ],
  "arrangements": {
    "easy": [
      {
        "midi": 69,
        "time": 0,
        "duration": 1.2,
        "velocity": 0.5,
        "hand": "right"
      },
      {
        "midi": 67,
        "time": 1.2,
        "duration": 0.6,
        "velocity": 0.55,
        "hand": "right"
      },
      {
        "midi": 65,
        "time": 1.8,
        "duration": 0.6,
        "velocity": 0.53,
        "hand": "right"
      },
      {
        "midi": 65,
        "time": 2.4,
        "duration": 0.9,
        "velocity": 0.56,
        "hand": "right"
      },
      {
        "midi": 62,
        "time": 3.3,
        "duration": 0.3,
        "velocity": 0.5,
        "hand": "right"
      },
      {
        "midi": 62,
        "time": 3.6,
        "duration": 1.2,
        "velocity": 0.57,
        "hand": "right"
      },
      {
        "midi": 60,
        "time": 4.8,
        "duration": 1.2,
        "velocity": 0.54,
        "hand": "right"
      },
      {
        "midi": 65,
        "time": 6,
        "duration": 0.6,
        "velocity": 0.7,
        "hand": "right"
      },
      {
        "midi": 69,
        "time": 6.6,
        "duration": 0.6,
        "velocity": 0.66,
        "hand": "right"
      },
      {
        "midi": 67,
        "time": 7.2,
        "duration": 2.4,
        "velocity": 0.6,
        "hand": "right"
      },
      {
        "midi": 69,
        "time": 9.6,
        "duration": 1.2,
        "velocity": 0.61,
        "hand": "right"
      },
      {
        "midi": 67,
        "time": 10.8,
        "duration": 0.6,
        "velocity": 0.57,
        "hand": "right"
      },
      {
        "midi": 65,
        "time": 11.4,
        "duration": 0.6,
        "velocity": 0.57,
        "hand": "right"
      },
      {
        "midi": 65,
        "time": 12,
        "duration": 0.9,
        "velocity": 0.63,
        "hand": "right"
      },
      {
        "midi": 62,
        "time": 12.9,
        "duration": 0.3,
        "velocity": 0.59,
        "hand": "right"
      },
      {
        "midi": 62,
        "time": 13.2,
        "duration": 1.2,
        "velocity": 0.61,
        "hand": "right"
      },
      {
        "midi": 60,
        "time": 14.4,
        "duration": 0.6,
        "velocity": 0.56,
        "hand": "right"
      },
      {
        "midi": 65,
        "time": 15,
        "duration": 0.6,
        "velocity": 0.69,
        "hand": "right"
      },
      {
        "midi": 64,
        "time": 15.6,
        "duration": 0.6,
        "velocity": 0.53,
        "hand": "right"
      },
      {
        "midi": 67,
        "time": 16.2,
        "duration": 0.6,
        "velocity": 0.65,
        "hand": "right"
      },
      {
        "midi": 65,
        "time": 16.8,
        "duration": 2.4,
        "velocity": 0.6,
        "hand": "right"
      },
      {
        "midi": 72,
        "time": 19.2,
        "duration": 1.2,
        "velocity": 0.72,
        "hand": "right"
      },
      {
        "midi": 74,
        "time": 20.4,
        "duration": 0.6,
        "velocity": 0.65,
        "hand": "right"
      },
      {
        "midi": 72,
        "time": 21,
        "duration": 0.6,
        "velocity": 0.54,
        "hand": "right"
      },
      {
        "midi": 72,
        "time": 21.6,
        "duration": 0.9,
        "velocity": 0.6,
        "hand": "right"
      },
      {
        "midi": 69,
        "time": 22.5,
        "duration": 0.3,
        "velocity": 0.54,
        "hand": "right"
      },
      {
        "midi": 72,
        "time": 22.8,
        "duration": 1.2,
        "velocity": 0.67,
        "hand": "right"
      },
      {
        "midi": 72,
        "time": 24,
        "duration": 1.2,
        "velocity": 0.59,
        "hand": "right"
      },
      {
        "midi": 74,
        "time": 25.2,
        "duration": 0.6,
        "velocity": 0.63,
        "hand": "right"
      },
      {
        "midi": 72,
        "time": 25.8,
        "duration": 0.6,
        "velocity": 0.57,
        "hand": "right"
      },
      {
        "midi": 72,
        "time": 26.4,
        "duration": 0.9,
        "velocity": 0.64,
        "hand": "right"
      },
      {
        "midi": 69,
        "time": 27.3,
        "duration": 0.3,
        "velocity": 0.52,
        "hand": "right"
      },
      {
        "midi": 67,
        "time": 27.6,
        "duration": 1.2,
        "velocity": 0.52,
        "hand": "right"
      },
      {
        "midi": 69,
        "time": 28.8,
        "duration": 1.2,
        "velocity": 0.66,
        "hand": "right"
      },
      {
        "midi": 67,
        "time": 30,
        "duration": 0.6,
        "velocity": 0.52,
        "hand": "right"
      },
      {
        "midi": 65,
        "time": 30.6,
        "duration": 0.6,
        "velocity": 0.56,
        "hand": "right"
      },
      {
        "midi": 65,
        "time": 31.2,
        "duration": 0.9,
        "velocity": 0.59,
        "hand": "right"
      },
      {
        "midi": 62,
        "time": 32.1,
        "duration": 0.3,
        "velocity": 0.54,
        "hand": "right"
      },
      {
        "midi": 62,
        "time": 32.4,
        "duration": 1.2,
        "velocity": 0.63,
        "hand": "right"
      },
      {
        "midi": 60,
        "time": 33.6,
        "duration": 0.6,
        "velocity": 0.51,
        "hand": "right"
      },
      {
        "midi": 65,
        "time": 34.2,
        "duration": 0.6,
        "velocity": 0.7,
        "hand": "right"
      },
      {
        "midi": 64,
        "time": 34.8,
        "duration": 0.6,
        "velocity": 0.6,
        "hand": "right"
      },
      {
        "midi": 67,
        "time": 35.4,
        "duration": 0.6,
        "velocity": 0.65,
        "hand": "right"
      },
      {
        "midi": 65,
        "time": 36,
        "duration": 2.4,
        "velocity": 0.55,
        "hand": "right"
      }
    ],
    "medium": [
      {
        "midi": 53,
        "time": 0,
        "duration": 1.2,
        "velocity": 0.5,
        "hand": "left"
      },
      {
        "midi": 60,
        "time": 0,
        "duration": 1.2,
        "velocity": 0.5,
        "hand": "right"
      },
      {
        "midi": 69,
        "time": 0,
        "duration": 1.2,
        "velocity": 0.5,
        "hand": "right"
      },
      {
        "midi": 48,
        "time": 1.2,
        "duration": 0.6,
        "velocity": 0.57,
        "hand": "left"
      },
      {
        "midi": 58,
        "time": 1.2,
        "duration": 0.6,
        "velocity": 0.55,
        "hand": "left"
      },
      {
        "midi": 67,
        "time": 1.2,
        "duration": 0.6,
        "velocity": 0.55,
        "hand": "right"
      },
      {
        "midi": 50,
        "time": 1.8,
        "duration": 0.6,
        "velocity": 0.61,
        "hand": "left"
      },
      {
        "midi": 57,
        "time": 1.8,
        "duration": 0.6,
        "velocity": 0.53,
        "hand": "left"
      },
      {
        "midi": 65,
        "time": 1.8,
        "duration": 0.6,
        "velocity": 0.53,
        "hand": "right"
      },
      {
        "midi": 46,
        "time": 2.4,
        "duration": 0.9,
        "velocity": 0.61,
        "hand": "left"
      },
      {
        "midi": 62,
        "time": 2.4,
        "duration": 0.9,
        "velocity": 0.56,
        "hand": "right"
      },
      {
        "midi": 65,
        "time": 2.4,
        "duration": 0.9,
        "velocity": 0.56,
        "hand": "right"
      },
      {
        "midi": 46,
        "time": 3.3,
        "duration": 0.3,
        "velocity": 0.54,
        "hand": "left"
      },
      {
        "midi": 58,
        "time": 3.3,
        "duration": 0.3,
        "velocity": 0.5,
        "hand": "left"
      },
      {
        "midi": 62,
        "time": 3.3,
        "duration": 0.3,
        "velocity": 0.5,
        "hand": "right"
      },
      {
        "midi": 46,
        "time": 3.6,
        "duration": 1.2,
        "velocity": 0.62,
        "hand": "left"
      },
      {
        "midi": 58,
        "time": 3.6,
        "duration": 1.2,
        "velocity": 0.57,
        "hand": "left"
      },
      {
        "midi": 62,
        "time": 3.6,
        "duration": 1.2,
        "velocity": 0.57,
        "hand": "right"
      },
      {
        "midi": 41,
        "time": 4.8,
        "duration": 1.2,
        "velocity": 0.59,
        "hand": "left"
      },
      {
        "midi": 57,
        "time": 4.8,
        "duration": 1.2,
        "velocity": 0.59,
        "hand": "left"
      },
      {
        "midi": 60,
        "time": 4.8,
        "duration": 1.2,
        "velocity": 0.54,
        "hand": "right"
      },
      {
        "midi": 45,
        "time": 6,
        "duration": 0.6,
        "velocity": 0.6,
        "hand": "left"
      },
      {
        "midi": 60,
        "time": 6,
        "duration": 0.6,
        "velocity": 0.7,
        "hand": "right"
      },
      {
        "midi": 65,
        "time": 6,
        "duration": 0.6,
        "velocity": 0.7,
        "hand": "right"
      },
      {
        "midi": 41,
        "time": 6.6,
        "duration": 0.6,
        "velocity": 0.57,
        "hand": "left"
      },
      {
        "midi": 60,
        "time": 6.6,
        "duration": 0.6,
        "velocity": 0.66,
        "hand": "right"
      },
      {
        "midi": 69,
        "time": 6.6,
        "duration": 0.6,
        "velocity": 0.66,
        "hand": "right"
      },
      {
        "midi": 48,
        "time": 7.2,
        "duration": 2.4,
        "velocity": 0.58,
        "hand": "left"
      },
      {
        "midi": 60,
        "time": 7.2,
        "duration": 2.4,
        "velocity": 0.6,
        "hand": "right"
      },
      {
        "midi": 67,
        "time": 7.2,
        "duration": 2.4,
        "velocity": 0.6,
        "hand": "right"
      },
      {
        "midi": 53,
        "time": 9.6,
        "duration": 1.2,
        "velocity": 0.56,
        "hand": "left"
      },
      {
        "midi": 60,
        "time": 9.6,
        "duration": 1.2,
        "velocity": 0.61,
        "hand": "right"
      },
      {
        "midi": 69,
        "time": 9.6,
        "duration": 1.2,
        "velocity": 0.61,
        "hand": "right"
      },
      {
        "midi": 48,
        "time": 10.8,
        "duration": 0.6,
        "velocity": 0.58,
        "hand": "left"
      },
      {
        "midi": 58,
        "time": 10.8,
        "duration": 0.6,
        "velocity": 0.57,
        "hand": "left"
      },
      {
        "midi": 67,
        "time": 10.8,
        "duration": 0.6,
        "velocity": 0.57,
        "hand": "right"
      },
      {
        "midi": 50,
        "time": 11.4,
        "duration": 0.6,
        "velocity": 0.61,
        "hand": "left"
      },
      {
        "midi": 57,
        "time": 11.4,
        "duration": 0.6,
        "velocity": 0.57,
        "hand": "left"
      },
      {
        "midi": 65,
        "time": 11.4,
        "duration": 0.6,
        "velocity": 0.57,
        "hand": "right"
      },
      {
        "midi": 46,
        "time": 12,
        "duration": 0.9,
        "velocity": 0.63,
        "hand": "left"
      },
      {
        "midi": 62,
        "time": 12,
        "duration": 0.9,
        "velocity": 0.63,
        "hand": "right"
      },
      {
        "midi": 65,
        "time": 12,
        "duration": 0.9,
        "velocity": 0.63,
        "hand": "right"
      },
      {
        "midi": 46,
        "time": 12.9,
        "duration": 0.3,
        "velocity": 0.58,
        "hand": "left"
      },
      {
        "midi": 58,
        "time": 12.9,
        "duration": 0.3,
        "velocity": 0.59,
        "hand": "left"
      },
      {
        "midi": 62,
        "time": 12.9,
        "duration": 0.3,
        "velocity": 0.59,
        "hand": "right"
      },
      {
        "midi": 46,
        "time": 13.2,
        "duration": 1.2,
        "velocity": 0.56,
        "hand": "left"
      },
      {
        "midi": 58,
        "time": 13.2,
        "duration": 1.2,
        "velocity": 0.61,
        "hand": "left"
      },
      {
        "midi": 62,
        "time": 13.2,
        "duration": 1.2,
        "velocity": 0.61,
        "hand": "right"
      },
      {
        "midi": 48,
        "time": 14.4,
        "duration": 1.2,
        "velocity": 0.5,
        "hand": "left"
      },
      {
        "midi": 57,
        "time": 14.4,
        "duration": 0.6,
        "velocity": 0.56,
        "hand": "left"
      },
      {
        "midi": 60,
        "time": 14.4,
        "duration": 0.6,
        "velocity": 0.56,
        "hand": "right"
      },
      {
        "midi": 57,
        "time": 15,
        "duration": 0.6,
        "velocity": 0.65,
        "hand": "left"
      },
      {
        "midi": 60,
        "time": 15,
        "duration": 0.6,
        "velocity": 0.69,
        "hand": "right"
      },
      {
        "midi": 65,
        "time": 15,
        "duration": 0.6,
        "velocity": 0.69,
        "hand": "right"
      },
      {
        "midi": 48,
        "time": 15.6,
        "duration": 0.6,
        "velocity": 0.57,
        "hand": "left"
      },
      {
        "midi": 60,
        "time": 15.6,
        "duration": 0.6,
        "velocity": 0.53,
        "hand": "right"
      },
      {
        "midi": 64,
        "time": 15.6,
        "duration": 0.6,
        "velocity": 0.53,
        "hand": "right"
      },
      {
        "midi": 48,
        "time": 16.2,
        "duration": 0.6,
        "velocity": 0.64,
        "hand": "left"
      },
      {
        "midi": 60,
        "time": 16.2,
        "duration": 0.6,
        "velocity": 0.65,
        "hand": "right"
      },
      {
        "midi": 67,
        "time": 16.2,
        "duration": 0.6,
        "velocity": 0.65,
        "hand": "right"
      },
      {
        "midi": 41,
        "time": 16.8,
        "duration": 2.4,
        "velocity": 0.56,
        "hand": "left"
      },
      {
        "midi": 60,
        "time": 16.8,
        "duration": 2.4,
        "velocity": 0.6,
        "hand": "right"
      },
      {
        "midi": 65,
        "time": 16.8,
        "duration": 2.4,
        "velocity": 0.6,
        "hand": "right"
      },
      {
        "midi": 53,
        "time": 19.2,
        "duration": 1.2,
        "velocity": 0.57,
        "hand": "left"
      },
      {
        "midi": 65,
        "time": 19.2,
        "duration": 1.2,
        "velocity": 0.72,
        "hand": "right"
      },
      {
        "midi": 72,
        "time": 19.2,
        "duration": 1.2,
        "velocity": 0.72,
        "hand": "right"
      },
      {
        "midi": 53,
        "time": 20.4,
        "duration": 0.6,
        "velocity": 0.57,
        "hand": "left"
      },
      {
        "midi": 65,
        "time": 20.4,
        "duration": 0.6,
        "velocity": 0.65,
        "hand": "right"
      },
      {
        "midi": 74,
        "time": 20.4,
        "duration": 0.6,
        "velocity": 0.65,
        "hand": "right"
      },
      {
        "midi": 53,
        "time": 21,
        "duration": 0.6,
        "velocity": 0.56,
        "hand": "left"
      },
      {
        "midi": 65,
        "time": 21,
        "duration": 0.6,
        "velocity": 0.54,
        "hand": "right"
      },
      {
        "midi": 72,
        "time": 21,
        "duration": 0.6,
        "velocity": 0.54,
        "hand": "right"
      },
      {
        "midi": 53,
        "time": 21.6,
        "duration": 0.9,
        "velocity": 0.62,
        "hand": "left"
      },
      {
        "midi": 65,
        "time": 21.6,
        "duration": 0.9,
        "velocity": 0.6,
        "hand": "right"
      },
      {
        "midi": 72,
        "time": 21.6,
        "duration": 0.9,
        "velocity": 0.6,
        "hand": "right"
      },
      {
        "midi": 53,
        "time": 22.5,
        "duration": 0.3,
        "velocity": 0.62,
        "hand": "left"
      },
      {
        "midi": 65,
        "time": 22.5,
        "duration": 0.3,
        "velocity": 0.54,
        "hand": "right"
      },
      {
        "midi": 69,
        "time": 22.5,
        "duration": 0.3,
        "velocity": 0.54,
        "hand": "right"
      },
      {
        "midi": 53,
        "time": 22.8,
        "duration": 1.2,
        "velocity": 0.56,
        "hand": "left"
      },
      {
        "midi": 65,
        "time": 22.8,
        "duration": 1.2,
        "velocity": 0.67,
        "hand": "right"
      },
      {
        "midi": 72,
        "time": 22.8,
        "duration": 1.2,
        "velocity": 0.67,
        "hand": "right"
      },
      {
        "midi": 53,
        "time": 24,
        "duration": 1.2,
        "velocity": 0.56,
        "hand": "left"
      },
      {
        "midi": 65,
        "time": 24,
        "duration": 1.2,
        "velocity": 0.59,
        "hand": "right"
      },
      {
        "midi": 72,
        "time": 24,
        "duration": 1.2,
        "velocity": 0.59,
        "hand": "right"
      },
      {
        "midi": 46,
        "time": 25.2,
        "duration": 0.6,
        "velocity": 0.61,
        "hand": "left"
      },
      {
        "midi": 65,
        "time": 25.2,
        "duration": 0.6,
        "velocity": 0.63,
        "hand": "right"
      },
      {
        "midi": 74,
        "time": 25.2,
        "duration": 0.6,
        "velocity": 0.63,
        "hand": "right"
      },
      {
        "midi": 53,
        "time": 25.8,
        "duration": 0.6,
        "velocity": 0.59,
        "hand": "left"
      },
      {
        "midi": 65,
        "time": 25.8,
        "duration": 0.6,
        "velocity": 0.57,
        "hand": "right"
      },
      {
        "midi": 72,
        "time": 25.8,
        "duration": 0.6,
        "velocity": 0.57,
        "hand": "right"
      },
      {
        "midi": 52,
        "time": 26.4,
        "duration": 0.9,
        "velocity": 0.57,
        "hand": "left"
      },
      {
        "midi": 67,
        "time": 26.4,
        "duration": 0.9,
        "velocity": 0.64,
        "hand": "right"
      },
      {
        "midi": 72,
        "time": 26.4,
        "duration": 0.9,
        "velocity": 0.64,
        "hand": "right"
      },
      {
        "midi": 53,
        "time": 27.3,
        "duration": 0.3,
        "velocity": 0.57,
        "hand": "left"
      },
      {
        "midi": 60,
        "time": 27.3,
        "duration": 0.3,
        "velocity": 0.52,
        "hand": "right"
      },
      {
        "midi": 69,
        "time": 27.3,
        "duration": 0.3,
        "velocity": 0.52,
        "hand": "right"
      },
      {
        "midi": 48,
        "time": 27.6,
        "duration": 1.2,
        "velocity": 0.57,
        "hand": "left"
      },
      {
        "midi": 60,
        "time": 27.6,
        "duration": 1.2,
        "velocity": 0.52,
        "hand": "right"
      },
      {
        "midi": 67,
        "time": 27.6,
        "duration": 1.2,
        "velocity": 0.52,
        "hand": "right"
      },
      {
        "midi": 53,
        "time": 28.8,
        "duration": 1.2,
        "velocity": 0.61,
        "hand": "left"
      },
      {
        "midi": 60,
        "time": 28.8,
        "duration": 1.2,
        "velocity": 0.66,
        "hand": "right"
      },
      {
        "midi": 69,
        "time": 28.8,
        "duration": 1.2,
        "velocity": 0.66,
        "hand": "right"
      },
      {
        "midi": 48,
        "time": 30,
        "duration": 0.6,
        "velocity": 0.58,
        "hand": "left"
      },
      {
        "midi": 58,
        "time": 30,
        "duration": 0.6,
        "velocity": 0.52,
        "hand": "left"
      },
      {
        "midi": 67,
        "time": 30,
        "duration": 0.6,
        "velocity": 0.52,
        "hand": "right"
      },
      {
        "midi": 50,
        "time": 30.6,
        "duration": 0.6,
        "velocity": 0.61,
        "hand": "left"
      },
      {
        "midi": 57,
        "time": 30.6,
        "duration": 0.6,
        "velocity": 0.56,
        "hand": "left"
      },
      {
        "midi": 65,
        "time": 30.6,
        "duration": 0.6,
        "velocity": 0.56,
        "hand": "right"
      },
      {
        "midi": 46,
        "time": 31.2,
        "duration": 0.9,
        "velocity": 0.62,
        "hand": "left"
      },
      {
        "midi": 62,
        "time": 31.2,
        "duration": 0.9,
        "velocity": 0.59,
        "hand": "right"
      },
      {
        "midi": 65,
        "time": 31.2,
        "duration": 0.9,
        "velocity": 0.59,
        "hand": "right"
      },
      {
        "midi": 46,
        "time": 32.1,
        "duration": 0.3,
        "velocity": 0.56,
        "hand": "left"
      },
      {
        "midi": 58,
        "time": 32.1,
        "duration": 0.3,
        "velocity": 0.54,
        "hand": "left"
      },
      {
        "midi": 62,
        "time": 32.1,
        "duration": 0.3,
        "velocity": 0.54,
        "hand": "right"
      },
      {
        "midi": 46,
        "time": 32.4,
        "duration": 1.2,
        "velocity": 0.59,
        "hand": "left"
      },
      {
        "midi": 58,
        "time": 32.4,
        "duration": 1.2,
        "velocity": 0.63,
        "hand": "left"
      },
      {
        "midi": 62,
        "time": 32.4,
        "duration": 1.2,
        "velocity": 0.63,
        "hand": "right"
      },
      {
        "midi": 48,
        "time": 33.6,
        "duration": 1.2,
        "velocity": 0.52,
        "hand": "left"
      },
      {
        "midi": 57,
        "time": 33.6,
        "duration": 0.6,
        "velocity": 0.51,
        "hand": "left"
      },
      {
        "midi": 60,
        "time": 33.6,
        "duration": 0.6,
        "velocity": 0.51,
        "hand": "right"
      },
      {
        "midi": 57,
        "time": 34.2,
        "duration": 0.6,
        "velocity": 0.62,
        "hand": "left"
      },
      {
        "midi": 60,
        "time": 34.2,
        "duration": 0.6,
        "velocity": 0.7,
        "hand": "right"
      },
      {
        "midi": 65,
        "time": 34.2,
        "duration": 0.6,
        "velocity": 0.7,
        "hand": "right"
      },
      {
        "midi": 48,
        "time": 34.8,
        "duration": 0.6,
        "velocity": 0.6,
        "hand": "left"
      },
      {
        "midi": 60,
        "time": 34.8,
        "duration": 0.6,
        "velocity": 0.6,
        "hand": "right"
      },
      {
        "midi": 64,
        "time": 34.8,
        "duration": 0.6,
        "velocity": 0.6,
        "hand": "right"
      },
      {
        "midi": 48,
        "time": 35.4,
        "duration": 0.6,
        "velocity": 0.65,
        "hand": "left"
      },
      {
        "midi": 60,
        "time": 35.4,
        "duration": 0.6,
        "velocity": 0.65,
        "hand": "right"
      },
      {
        "midi": 67,
        "time": 35.4,
        "duration": 0.6,
        "velocity": 0.65,
        "hand": "right"
      },
      {
        "midi": 41,
        "time": 36,
        "duration": 2.4,
        "velocity": 0.58,
        "hand": "left"
      },
      {
        "midi": 60,
        "time": 36,
        "duration": 2.4,
        "velocity": 0.55,
        "hand": "right"
      },
      {
        "midi": 65,
        "time": 36,
        "duration": 2.4,
        "velocity": 0.55,
        "hand": "right"
      }
    ],
    "hard": [
      {
        "midi": 53,
        "time": 0,
        "duration": 1.2,
        "velocity": 0.5,
        "hand": "left"
      },
      {
        "midi": 60,
        "time": 0,
        "duration": 1.2,
        "velocity": 0.5,
        "hand": "right"
      },
      {
        "midi": 69,
        "time": 0,
        "duration": 1.2,
        "velocity": 0.5,
        "hand": "right"
      },
      {
        "midi": 48,
        "time": 1.2,
        "duration": 0.6,
        "velocity": 0.57,
        "hand": "left"
      },
      {
        "midi": 52,
        "time": 1.2,
        "duration": 0.6,
        "velocity": 0.57,
        "hand": "left"
      },
      {
        "midi": 58,
        "time": 1.2,
        "duration": 0.6,
        "velocity": 0.55,
        "hand": "left"
      },
      {
        "midi": 67,
        "time": 1.2,
        "duration": 0.6,
        "velocity": 0.55,
        "hand": "right"
      },
      {
        "midi": 50,
        "time": 1.8,
        "duration": 0.6,
        "velocity": 0.61,
        "hand": "left"
      },
      {
        "midi": 53,
        "time": 1.8,
        "duration": 0.6,
        "velocity": 0.61,
        "hand": "left"
      },
      {
        "midi": 57,
        "time": 1.8,
        "duration": 0.6,
        "velocity": 0.53,
        "hand": "left"
      },
      {
        "midi": 65,
        "time": 1.8,
        "duration": 0.6,
        "velocity": 0.53,
        "hand": "right"
      },
      {
        "midi": 46,
        "time": 2.4,
        "duration": 0.9,
        "velocity": 0.61,
        "hand": "left"
      },
      {
        "midi": 58,
        "time": 2.4,
        "duration": 0.9,
        "velocity": 0.61,
        "hand": "left"
      },
      {
        "midi": 62,
        "time": 2.4,
        "duration": 0.9,
        "velocity": 0.56,
        "hand": "right"
      },
      {
        "midi": 65,
        "time": 2.4,
        "duration": 0.9,
        "velocity": 0.56,
        "hand": "right"
      },
      {
        "midi": 46,
        "time": 3.3,
        "duration": 0.3,
        "velocity": 0.54,
        "hand": "left"
      },
      {
        "midi": 53,
        "time": 3.3,
        "duration": 0.3,
        "velocity": 0.54,
        "hand": "left"
      },
      {
        "midi": 58,
        "time": 3.3,
        "duration": 0.3,
        "velocity": 0.5,
        "hand": "left"
      },
      {
        "midi": 62,
        "time": 3.3,
        "duration": 0.3,
        "velocity": 0.5,
        "hand": "right"
      },
      {
        "midi": 46,
        "time": 3.6,
        "duration": 1.2,
        "velocity": 0.62,
        "hand": "left"
      },
      {
        "midi": 53,
        "time": 3.6,
        "duration": 1.2,
        "velocity": 0.62,
        "hand": "left"
      },
      {
        "midi": 58,
        "time": 3.6,
        "duration": 1.2,
        "velocity": 0.57,
        "hand": "left"
      },
      {
        "midi": 62,
        "time": 3.6,
        "duration": 1.2,
        "velocity": 0.57,
        "hand": "right"
      },
      {
        "midi": 41,
        "time": 4.8,
        "duration": 1.2,
        "velocity": 0.59,
        "hand": "left"
      },
      {
        "midi": 57,
        "time": 4.8,
        "duration": 1.2,
        "velocity": 0.59,
        "hand": "left"
      },
      {
        "midi": 60,
        "time": 4.8,
        "duration": 1.2,
        "velocity": 0.54,
        "hand": "right"
      },
      {
        "midi": 45,
        "time": 6,
        "duration": 0.6,
        "velocity": 0.6,
        "hand": "left"
      },
      {
        "midi": 53,
        "time": 6,
        "duration": 0.6,
        "velocity": 0.6,
        "hand": "left"
      },
      {
        "midi": 60,
        "time": 6,
        "duration": 0.6,
        "velocity": 0.7,
        "hand": "right"
      },
      {
        "midi": 65,
        "time": 6,
        "duration": 0.6,
        "velocity": 0.7,
        "hand": "right"
      },
      {
        "midi": 41,
        "time": 6.6,
        "duration": 0.6,
        "velocity": 0.57,
        "hand": "left"
      },
      {
        "midi": 53,
        "time": 6.6,
        "duration": 0.6,
        "velocity": 0.57,
        "hand": "left"
      },
      {
        "midi": 60,
        "time": 6.6,
        "duration": 0.6,
        "velocity": 0.66,
        "hand": "right"
      },
      {
        "midi": 69,
        "time": 6.6,
        "duration": 0.6,
        "velocity": 0.66,
        "hand": "right"
      },
      {
        "midi": 48,
        "time": 7.2,
        "duration": 2.4,
        "velocity": 0.58,
        "hand": "left"
      },
      {
        "midi": 52,
        "time": 7.2,
        "duration": 2.4,
        "velocity": 0.58,
        "hand": "left"
      },
      {
        "midi": 60,
        "time": 7.2,
        "duration": 2.4,
        "velocity": 0.6,
        "hand": "right"
      },
      {
        "midi": 67,
        "time": 7.2,
        "duration": 2.4,
        "velocity": 0.6,
        "hand": "right"
      },
      {
        "midi": 53,
        "time": 9.6,
        "duration": 1.2,
        "velocity": 0.56,
        "hand": "left"
      },
      {
        "midi": 60,
        "time": 9.6,
        "duration": 1.2,
        "velocity": 0.61,
        "hand": "right"
      },
      {
        "midi": 69,
        "time": 9.6,
        "duration": 1.2,
        "velocity": 0.61,
        "hand": "right"
      },
      {
        "midi": 48,
        "time": 10.8,
        "duration": 0.6,
        "velocity": 0.58,
        "hand": "left"
      },
      {
        "midi": 52,
        "time": 10.8,
        "duration": 0.6,
        "velocity": 0.58,
        "hand": "left"
      },
      {
        "midi": 58,
        "time": 10.8,
        "duration": 0.6,
        "velocity": 0.57,
        "hand": "left"
      },
      {
        "midi": 67,
        "time": 10.8,
        "duration": 0.6,
        "velocity": 0.57,
        "hand": "right"
      },
      {
        "midi": 50,
        "time": 11.4,
        "duration": 0.6,
        "velocity": 0.61,
        "hand": "left"
      },
      {
        "midi": 53,
        "time": 11.4,
        "duration": 0.6,
        "velocity": 0.61,
        "hand": "left"
      },
      {
        "midi": 57,
        "time": 11.4,
        "duration": 0.6,
        "velocity": 0.57,
        "hand": "left"
      },
      {
        "midi": 65,
        "time": 11.4,
        "duration": 0.6,
        "velocity": 0.57,
        "hand": "right"
      },
      {
        "midi": 46,
        "time": 12,
        "duration": 0.9,
        "velocity": 0.63,
        "hand": "left"
      },
      {
        "midi": 58,
        "time": 12,
        "duration": 0.9,
        "velocity": 0.63,
        "hand": "left"
      },
      {
        "midi": 62,
        "time": 12,
        "duration": 0.9,
        "velocity": 0.63,
        "hand": "right"
      },
      {
        "midi": 65,
        "time": 12,
        "duration": 0.9,
        "velocity": 0.63,
        "hand": "right"
      },
      {
        "midi": 46,
        "time": 12.9,
        "duration": 0.3,
        "velocity": 0.58,
        "hand": "left"
      },
      {
        "midi": 53,
        "time": 12.9,
        "duration": 0.3,
        "velocity": 0.58,
        "hand": "left"
      },
      {
        "midi": 58,
        "time": 12.9,
        "duration": 0.3,
        "velocity": 0.59,
        "hand": "left"
      },
      {
        "midi": 62,
        "time": 12.9,
        "duration": 0.3,
        "velocity": 0.59,
        "hand": "right"
      },
      {
        "midi": 46,
        "time": 13.2,
        "duration": 1.2,
        "velocity": 0.56,
        "hand": "left"
      },
      {
        "midi": 53,
        "time": 13.2,
        "duration": 1.2,
        "velocity": 0.56,
        "hand": "left"
      },
      {
        "midi": 58,
        "time": 13.2,
        "duration": 1.2,
        "velocity": 0.61,
        "hand": "left"
      },
      {
        "midi": 62,
        "time": 13.2,
        "duration": 1.2,
        "velocity": 0.61,
        "hand": "right"
      },
      {
        "midi": 48,
        "time": 14.4,
        "duration": 1.2,
        "velocity": 0.5,
        "hand": "left"
      },
      {
        "midi": 53,
        "time": 14.4,
        "duration": 0.6,
        "velocity": 0.6,
        "hand": "left"
      },
      {
        "midi": 57,
        "time": 14.4,
        "duration": 0.6,
        "velocity": 0.56,
        "hand": "left"
      },
      {
        "midi": 60,
        "time": 14.4,
        "duration": 0.6,
        "velocity": 0.56,
        "hand": "right"
      },
      {
        "midi": 57,
        "time": 15,
        "duration": 0.6,
        "velocity": 0.65,
        "hand": "left"
      },
      {
        "midi": 60,
        "time": 15,
        "duration": 0.6,
        "velocity": 0.69,
        "hand": "right"
      },
      {
        "midi": 65,
        "time": 15,
        "duration": 0.6,
        "velocity": 0.69,
        "hand": "right"
      },
      {
        "midi": 48,
        "time": 15.6,
        "duration": 0.6,
        "velocity": 0.57,
        "hand": "left"
      },
      {
        "midi": 55,
        "time": 15.6,
        "duration": 0.6,
        "velocity": 0.57,
        "hand": "left"
      },
      {
        "midi": 60,
        "time": 15.6,
        "duration": 0.6,
        "velocity": 0.53,
        "hand": "right"
      },
      {
        "midi": 64,
        "time": 15.6,
        "duration": 0.6,
        "velocity": 0.53,
        "hand": "right"
      },
      {
        "midi": 48,
        "time": 16.2,
        "duration": 0.6,
        "velocity": 0.64,
        "hand": "left"
      },
      {
        "midi": 58,
        "time": 16.2,
        "duration": 0.6,
        "velocity": 0.64,
        "hand": "left"
      },
      {
        "midi": 60,
        "time": 16.2,
        "duration": 0.6,
        "velocity": 0.65,
        "hand": "right"
      },
      {
        "midi": 67,
        "time": 16.2,
        "duration": 0.6,
        "velocity": 0.65,
        "hand": "right"
      },
      {
        "midi": 41,
        "time": 16.8,
        "duration": 2.4,
        "velocity": 0.56,
        "hand": "left"
      },
      {
        "midi": 57,
        "time": 16.8,
        "duration": 2.4,
        "velocity": 0.56,
        "hand": "left"
      },
      {
        "midi": 60,
        "time": 16.8,
        "duration": 2.4,
        "velocity": 0.6,
        "hand": "right"
      },
      {
        "midi": 65,
        "time": 16.8,
        "duration": 2.4,
        "velocity": 0.6,
        "hand": "right"
      },
      {
        "midi": 53,
        "time": 19.2,
        "duration": 1.2,
        "velocity": 0.57,
        "hand": "left"
      },
      {
        "midi": 57,
        "time": 19.2,
        "duration": 1.2,
        "velocity": 0.57,
        "hand": "left"
      },
      {
        "midi": 65,
        "time": 19.2,
        "duration": 1.2,
        "velocity": 0.72,
        "hand": "right"
      },
      {
        "midi": 72,
        "time": 19.2,
        "duration": 1.2,
        "velocity": 0.72,
        "hand": "right"
      },
      {
        "midi": 53,
        "time": 20.4,
        "duration": 0.6,
        "velocity": 0.57,
        "hand": "left"
      },
      {
        "midi": 58,
        "time": 20.4,
        "duration": 0.6,
        "velocity": 0.57,
        "hand": "left"
      },
      {
        "midi": 65,
        "time": 20.4,
        "duration": 0.6,
        "velocity": 0.65,
        "hand": "right"
      },
      {
        "midi": 74,
        "time": 20.4,
        "duration": 0.6,
        "velocity": 0.65,
        "hand": "right"
      },
      {
        "midi": 53,
        "time": 21,
        "duration": 0.6,
        "velocity": 0.56,
        "hand": "left"
      },
      {
        "midi": 57,
        "time": 21,
        "duration": 0.6,
        "velocity": 0.56,
        "hand": "left"
      },
      {
        "midi": 65,
        "time": 21,
        "duration": 0.6,
        "velocity": 0.54,
        "hand": "right"
      },
      {
        "midi": 72,
        "time": 21,
        "duration": 0.6,
        "velocity": 0.54,
        "hand": "right"
      },
      {
        "midi": 53,
        "time": 21.6,
        "duration": 0.9,
        "velocity": 0.62,
        "hand": "left"
      },
      {
        "midi": 57,
        "time": 21.6,
        "duration": 0.9,
        "velocity": 0.62,
        "hand": "left"
      },
      {
        "midi": 65,
        "time": 21.6,
        "duration": 0.9,
        "velocity": 0.6,
        "hand": "right"
      },
      {
        "midi": 72,
        "time": 21.6,
        "duration": 0.9,
        "velocity": 0.6,
        "hand": "right"
      },
      {
        "midi": 53,
        "time": 22.5,
        "duration": 0.3,
        "velocity": 0.62,
        "hand": "left"
      },
      {
        "midi": 60,
        "time": 22.5,
        "duration": 0.3,
        "velocity": 0.62,
        "hand": "right"
      },
      {
        "midi": 65,
        "time": 22.5,
        "duration": 0.3,
        "velocity": 0.54,
        "hand": "right"
      },
      {
        "midi": 69,
        "time": 22.5,
        "duration": 0.3,
        "velocity": 0.54,
        "hand": "right"
      },
      {
        "midi": 53,
        "time": 22.8,
        "duration": 1.2,
        "velocity": 0.56,
        "hand": "left"
      },
      {
        "midi": 57,
        "time": 22.8,
        "duration": 1.2,
        "velocity": 0.56,
        "hand": "left"
      },
      {
        "midi": 65,
        "time": 22.8,
        "duration": 1.2,
        "velocity": 0.67,
        "hand": "right"
      },
      {
        "midi": 72,
        "time": 22.8,
        "duration": 1.2,
        "velocity": 0.67,
        "hand": "right"
      },
      {
        "midi": 53,
        "time": 24,
        "duration": 1.2,
        "velocity": 0.56,
        "hand": "left"
      },
      {
        "midi": 57,
        "time": 24,
        "duration": 1.2,
        "velocity": 0.56,
        "hand": "left"
      },
      {
        "midi": 65,
        "time": 24,
        "duration": 1.2,
        "velocity": 0.59,
        "hand": "right"
      },
      {
        "midi": 72,
        "time": 24,
        "duration": 1.2,
        "velocity": 0.59,
        "hand": "right"
      },
      {
        "midi": 46,
        "time": 25.2,
        "duration": 0.6,
        "velocity": 0.61,
        "hand": "left"
      },
      {
        "midi": 58,
        "time": 25.2,
        "duration": 0.6,
        "velocity": 0.61,
        "hand": "left"
      },
      {
        "midi": 65,
        "time": 25.2,
        "duration": 0.6,
        "velocity": 0.63,
        "hand": "right"
      },
      {
        "midi": 74,
        "time": 25.2,
        "duration": 0.6,
        "velocity": 0.63,
        "hand": "right"
      },
      {
        "midi": 53,
        "time": 25.8,
        "duration": 0.6,
        "velocity": 0.59,
        "hand": "left"
      },
      {
        "midi": 57,
        "time": 25.8,
        "duration": 0.6,
        "velocity": 0.59,
        "hand": "left"
      },
      {
        "midi": 65,
        "time": 25.8,
        "duration": 0.6,
        "velocity": 0.57,
        "hand": "right"
      },
      {
        "midi": 72,
        "time": 25.8,
        "duration": 0.6,
        "velocity": 0.57,
        "hand": "right"
      },
      {
        "midi": 52,
        "time": 26.4,
        "duration": 0.9,
        "velocity": 0.57,
        "hand": "left"
      },
      {
        "midi": 55,
        "time": 26.4,
        "duration": 0.9,
        "velocity": 0.57,
        "hand": "left"
      },
      {
        "midi": 67,
        "time": 26.4,
        "duration": 0.9,
        "velocity": 0.64,
        "hand": "right"
      },
      {
        "midi": 72,
        "time": 26.4,
        "duration": 0.9,
        "velocity": 0.64,
        "hand": "right"
      },
      {
        "midi": 53,
        "time": 27.3,
        "duration": 0.3,
        "velocity": 0.57,
        "hand": "left"
      },
      {
        "midi": 60,
        "time": 27.3,
        "duration": 0.3,
        "velocity": 0.52,
        "hand": "right"
      },
      {
        "midi": 69,
        "time": 27.3,
        "duration": 0.3,
        "velocity": 0.52,
        "hand": "right"
      },
      {
        "midi": 48,
        "time": 27.6,
        "duration": 1.2,
        "velocity": 0.57,
        "hand": "left"
      },
      {
        "midi": 52,
        "time": 27.6,
        "duration": 1.2,
        "velocity": 0.57,
        "hand": "left"
      },
      {
        "midi": 60,
        "time": 27.6,
        "duration": 1.2,
        "velocity": 0.52,
        "hand": "right"
      },
      {
        "midi": 67,
        "time": 27.6,
        "duration": 1.2,
        "velocity": 0.52,
        "hand": "right"
      },
      {
        "midi": 53,
        "time": 28.8,
        "duration": 1.2,
        "velocity": 0.61,
        "hand": "left"
      },
      {
        "midi": 60,
        "time": 28.8,
        "duration": 1.2,
        "velocity": 0.66,
        "hand": "right"
      },
      {
        "midi": 69,
        "time": 28.8,
        "duration": 1.2,
        "velocity": 0.66,
        "hand": "right"
      },
      {
        "midi": 48,
        "time": 30,
        "duration": 0.6,
        "velocity": 0.58,
        "hand": "left"
      },
      {
        "midi": 52,
        "time": 30,
        "duration": 0.6,
        "velocity": 0.58,
        "hand": "left"
      },
      {
        "midi": 58,
        "time": 30,
        "duration": 0.6,
        "velocity": 0.52,
        "hand": "left"
      },
      {
        "midi": 67,
        "time": 30,
        "duration": 0.6,
        "velocity": 0.52,
        "hand": "right"
      },
      {
        "midi": 50,
        "time": 30.6,
        "duration": 0.6,
        "velocity": 0.61,
        "hand": "left"
      },
      {
        "midi": 53,
        "time": 30.6,
        "duration": 0.6,
        "velocity": 0.61,
        "hand": "left"
      },
      {
        "midi": 57,
        "time": 30.6,
        "duration": 0.6,
        "velocity": 0.56,
        "hand": "left"
      },
      {
        "midi": 65,
        "time": 30.6,
        "duration": 0.6,
        "velocity": 0.56,
        "hand": "right"
      },
      {
        "midi": 46,
        "time": 31.2,
        "duration": 0.9,
        "velocity": 0.62,
        "hand": "left"
      },
      {
        "midi": 58,
        "time": 31.2,
        "duration": 0.9,
        "velocity": 0.62,
        "hand": "left"
      },
      {
        "midi": 62,
        "time": 31.2,
        "duration": 0.9,
        "velocity": 0.59,
        "hand": "right"
      },
      {
        "midi": 65,
        "time": 31.2,
        "duration": 0.9,
        "velocity": 0.59,
        "hand": "right"
      },
      {
        "midi": 46,
        "time": 32.1,
        "duration": 0.3,
        "velocity": 0.56,
        "hand": "left"
      },
      {
        "midi": 53,
        "time": 32.1,
        "duration": 0.3,
        "velocity": 0.56,
        "hand": "left"
      },
      {
        "midi": 58,
        "time": 32.1,
        "duration": 0.3,
        "velocity": 0.54,
        "hand": "left"
      },
      {
        "midi": 62,
        "time": 32.1,
        "duration": 0.3,
        "velocity": 0.54,
        "hand": "right"
      },
      {
        "midi": 46,
        "time": 32.4,
        "duration": 1.2,
        "velocity": 0.59,
        "hand": "left"
      },
      {
        "midi": 53,
        "time": 32.4,
        "duration": 1.2,
        "velocity": 0.59,
        "hand": "left"
      },
      {
        "midi": 58,
        "time": 32.4,
        "duration": 1.2,
        "velocity": 0.63,
        "hand": "left"
      },
      {
        "midi": 62,
        "time": 32.4,
        "duration": 1.2,
        "velocity": 0.63,
        "hand": "right"
      },
      {
        "midi": 48,
        "time": 33.6,
        "duration": 1.2,
        "velocity": 0.52,
        "hand": "left"
      },
      {
        "midi": 53,
        "time": 33.6,
        "duration": 0.6,
        "velocity": 0.58,
        "hand": "left"
      },
      {
        "midi": 57,
        "time": 33.6,
        "duration": 0.6,
        "velocity": 0.51,
        "hand": "left"
      },
      {
        "midi": 60,
        "time": 33.6,
        "duration": 0.6,
        "velocity": 0.51,
        "hand": "right"
      },
      {
        "midi": 57,
        "time": 34.2,
        "duration": 0.6,
        "velocity": 0.62,
        "hand": "left"
      },
      {
        "midi": 60,
        "time": 34.2,
        "duration": 0.6,
        "velocity": 0.7,
        "hand": "right"
      },
      {
        "midi": 65,
        "time": 34.2,
        "duration": 0.6,
        "velocity": 0.7,
        "hand": "right"
      },
      {
        "midi": 48,
        "time": 34.8,
        "duration": 0.6,
        "velocity": 0.6,
        "hand": "left"
      },
      {
        "midi": 55,
        "time": 34.8,
        "duration": 0.6,
        "velocity": 0.6,
        "hand": "left"
      },
      {
        "midi": 60,
        "time": 34.8,
        "duration": 0.6,
        "velocity": 0.6,
        "hand": "right"
      },
      {
        "midi": 64,
        "time": 34.8,
        "duration": 0.6,
        "velocity": 0.6,
        "hand": "right"
      },
      {
        "midi": 48,
        "time": 35.4,
        "duration": 0.6,
        "velocity": 0.65,
        "hand": "left"
      },
      {
        "midi": 58,
        "time": 35.4,
        "duration": 0.6,
        "velocity": 0.65,
        "hand": "left"
      },
      {
        "midi": 60,
        "time": 35.4,
        "duration": 0.6,
        "velocity": 0.65,
        "hand": "right"
      },
      {
        "midi": 67,
        "time": 35.4,
        "duration": 0.6,
        "velocity": 0.65,
        "hand": "right"
      },
      {
        "midi": 41,
        "time": 36,
        "duration": 2.4,
        "velocity": 0.58,
        "hand": "left"
      },
      {
        "midi": 57,
        "time": 36,
        "duration": 2.4,
        "velocity": 0.58,
        "hand": "left"
      },
      {
        "midi": 60,
        "time": 36,
        "duration": 2.4,
        "velocity": 0.55,
        "hand": "right"
      },
      {
        "midi": 65,
        "time": 36,
        "duration": 2.4,
        "velocity": 0.55,
        "hand": "right"
      }
    ]
  },
  "notes1Hand": [
    {
      "midi": 69,
      "time": 0,
      "duration": 1.2,
      "velocity": 0.5,
      "hand": "right"
    },
    {
      "midi": 67,
      "time": 1.2,
      "duration": 0.6,
      "velocity": 0.55,
      "hand": "right"
    },
    {
      "midi": 65,
      "time": 1.8,
      "duration": 0.6,
      "velocity": 0.53,
      "hand": "right"
    },
    {
      "midi": 65,
      "time": 2.4,
      "duration": 0.9,
      "velocity": 0.56,
      "hand": "right"
    },
    {
      "midi": 62,
      "time": 3.3,
      "duration": 0.3,
      "velocity": 0.5,
      "hand": "right"
    },
    {
      "midi": 62,
      "time": 3.6,
      "duration": 1.2,
      "velocity": 0.57,
      "hand": "right"
    },
    {
      "midi": 60,
      "time": 4.8,
      "duration": 1.2,
      "velocity": 0.54,
      "hand": "right"
    },
    {
      "midi": 65,
      "time": 6,
      "duration": 0.6,
      "velocity": 0.7,
      "hand": "right"
    },
    {
      "midi": 69,
      "time": 6.6,
      "duration": 0.6,
      "velocity": 0.66,
      "hand": "right"
    },
    {
      "midi": 67,
      "time": 7.2,
      "duration": 2.4,
      "velocity": 0.6,
      "hand": "right"
    },
    {
      "midi": 69,
      "time": 9.6,
      "duration": 1.2,
      "velocity": 0.61,
      "hand": "right"
    },
    {
      "midi": 67,
      "time": 10.8,
      "duration": 0.6,
      "velocity": 0.57,
      "hand": "right"
    },
    {
      "midi": 65,
      "time": 11.4,
      "duration": 0.6,
      "velocity": 0.57,
      "hand": "right"
    },
    {
      "midi": 65,
      "time": 12,
      "duration": 0.9,
      "velocity": 0.63,
      "hand": "right"
    },
    {
      "midi": 62,
      "time": 12.9,
      "duration": 0.3,
      "velocity": 0.59,
      "hand": "right"
    },
    {
      "midi": 62,
      "time": 13.2,
      "duration": 1.2,
      "velocity": 0.61,
      "hand": "right"
    },
    {
      "midi": 60,
      "time": 14.4,
      "duration": 0.6,
      "velocity": 0.56,
      "hand": "right"
    },
    {
      "midi": 65,
      "time": 15,
      "duration": 0.6,
      "velocity": 0.69,
      "hand": "right"
    },
    {
      "midi": 64,
      "time": 15.6,
      "duration": 0.6,
      "velocity": 0.53,
      "hand": "right"
    },
    {
      "midi": 67,
      "time": 16.2,
      "duration": 0.6,
      "velocity": 0.65,
      "hand": "right"
    },
    {
      "midi": 65,
      "time": 16.8,
      "duration": 2.4,
      "velocity": 0.6,
      "hand": "right"
    },
    {
      "midi": 72,
      "time": 19.2,
      "duration": 1.2,
      "velocity": 0.72,
      "hand": "right"
    },
    {
      "midi": 74,
      "time": 20.4,
      "duration": 0.6,
      "velocity": 0.65,
      "hand": "right"
    },
    {
      "midi": 72,
      "time": 21,
      "duration": 0.6,
      "velocity": 0.54,
      "hand": "right"
    },
    {
      "midi": 72,
      "time": 21.6,
      "duration": 0.9,
      "velocity": 0.6,
      "hand": "right"
    },
    {
      "midi": 69,
      "time": 22.5,
      "duration": 0.3,
      "velocity": 0.54,
      "hand": "right"
    },
    {
      "midi": 72,
      "time": 22.8,
      "duration": 1.2,
      "velocity": 0.67,
      "hand": "right"
    },
    {
      "midi": 72,
      "time": 24,
      "duration": 1.2,
      "velocity": 0.59,
      "hand": "right"
    },
    {
      "midi": 74,
      "time": 25.2,
      "duration": 0.6,
      "velocity": 0.63,
      "hand": "right"
    },
    {
      "midi": 72,
      "time": 25.8,
      "duration": 0.6,
      "velocity": 0.57,
      "hand": "right"
    },
    {
      "midi": 72,
      "time": 26.4,
      "duration": 0.9,
      "velocity": 0.64,
      "hand": "right"
    },
    {
      "midi": 69,
      "time": 27.3,
      "duration": 0.3,
      "velocity": 0.52,
      "hand": "right"
    },
    {
      "midi": 67,
      "time": 27.6,
      "duration": 1.2,
      "velocity": 0.52,
      "hand": "right"
    },
    {
      "midi": 69,
      "time": 28.8,
      "duration": 1.2,
      "velocity": 0.66,
      "hand": "right"
    },
    {
      "midi": 67,
      "time": 30,
      "duration": 0.6,
      "velocity": 0.52,
      "hand": "right"
    },
    {
      "midi": 65,
      "time": 30.6,
      "duration": 0.6,
      "velocity": 0.56,
      "hand": "right"
    },
    {
      "midi": 65,
      "time": 31.2,
      "duration": 0.9,
      "velocity": 0.59,
      "hand": "right"
    },
    {
      "midi": 62,
      "time": 32.1,
      "duration": 0.3,
      "velocity": 0.54,
      "hand": "right"
    },
    {
      "midi": 62,
      "time": 32.4,
      "duration": 1.2,
      "velocity": 0.63,
      "hand": "right"
    },
    {
      "midi": 60,
      "time": 33.6,
      "duration": 0.6,
      "velocity": 0.51,
      "hand": "right"
    },
    {
      "midi": 65,
      "time": 34.2,
      "duration": 0.6,
      "velocity": 0.7,
      "hand": "right"
    },
    {
      "midi": 64,
      "time": 34.8,
      "duration": 0.6,
      "velocity": 0.6,
      "hand": "right"
    },
    {
      "midi": 67,
      "time": 35.4,
      "duration": 0.6,
      "velocity": 0.65,
      "hand": "right"
    },
    {
      "midi": 65,
      "time": 36,
      "duration": 2.4,
      "velocity": 0.55,
      "hand": "right"
    }
  ],
  "notes2Hands": [
    {
      "midi": 53,
      "time": 0,
      "duration": 1.2,
      "velocity": 0.5,
      "hand": "left"
    },
    {
      "midi": 60,
      "time": 0,
      "duration": 1.2,
      "velocity": 0.5,
      "hand": "right"
    },
    {
      "midi": 69,
      "time": 0,
      "duration": 1.2,
      "velocity": 0.5,
      "hand": "right"
    },
    {
      "midi": 48,
      "time": 1.2,
      "duration": 0.6,
      "velocity": 0.57,
      "hand": "left"
    },
    {
      "midi": 52,
      "time": 1.2,
      "duration": 0.6,
      "velocity": 0.57,
      "hand": "left"
    },
    {
      "midi": 58,
      "time": 1.2,
      "duration": 0.6,
      "velocity": 0.55,
      "hand": "left"
    },
    {
      "midi": 67,
      "time": 1.2,
      "duration": 0.6,
      "velocity": 0.55,
      "hand": "right"
    },
    {
      "midi": 50,
      "time": 1.8,
      "duration": 0.6,
      "velocity": 0.61,
      "hand": "left"
    },
    {
      "midi": 53,
      "time": 1.8,
      "duration": 0.6,
      "velocity": 0.61,
      "hand": "left"
    },
    {
      "midi": 57,
      "time": 1.8,
      "duration": 0.6,
      "velocity": 0.53,
      "hand": "left"
    },
    {
      "midi": 65,
      "time": 1.8,
      "duration": 0.6,
      "velocity": 0.53,
      "hand": "right"
    },
    {
      "midi": 46,
      "time": 2.4,
      "duration": 0.9,
      "velocity": 0.61,
      "hand": "left"
    },
    {
      "midi": 58,
      "time": 2.4,
      "duration": 0.9,
      "velocity": 0.61,
      "hand": "left"
    },
    {
      "midi": 62,
      "time": 2.4,
      "duration": 0.9,
      "velocity": 0.56,
      "hand": "right"
    },
    {
      "midi": 65,
      "time": 2.4,
      "duration": 0.9,
      "velocity": 0.56,
      "hand": "right"
    },
    {
      "midi": 46,
      "time": 3.3,
      "duration": 0.3,
      "velocity": 0.54,
      "hand": "left"
    },
    {
      "midi": 53,
      "time": 3.3,
      "duration": 0.3,
      "velocity": 0.54,
      "hand": "left"
    },
    {
      "midi": 58,
      "time": 3.3,
      "duration": 0.3,
      "velocity": 0.5,
      "hand": "left"
    },
    {
      "midi": 62,
      "time": 3.3,
      "duration": 0.3,
      "velocity": 0.5,
      "hand": "right"
    },
    {
      "midi": 46,
      "time": 3.6,
      "duration": 1.2,
      "velocity": 0.62,
      "hand": "left"
    },
    {
      "midi": 53,
      "time": 3.6,
      "duration": 1.2,
      "velocity": 0.62,
      "hand": "left"
    },
    {
      "midi": 58,
      "time": 3.6,
      "duration": 1.2,
      "velocity": 0.57,
      "hand": "left"
    },
    {
      "midi": 62,
      "time": 3.6,
      "duration": 1.2,
      "velocity": 0.57,
      "hand": "right"
    },
    {
      "midi": 41,
      "time": 4.8,
      "duration": 1.2,
      "velocity": 0.59,
      "hand": "left"
    },
    {
      "midi": 57,
      "time": 4.8,
      "duration": 1.2,
      "velocity": 0.59,
      "hand": "left"
    },
    {
      "midi": 60,
      "time": 4.8,
      "duration": 1.2,
      "velocity": 0.54,
      "hand": "right"
    },
    {
      "midi": 45,
      "time": 6,
      "duration": 0.6,
      "velocity": 0.6,
      "hand": "left"
    },
    {
      "midi": 53,
      "time": 6,
      "duration": 0.6,
      "velocity": 0.6,
      "hand": "left"
    },
    {
      "midi": 60,
      "time": 6,
      "duration": 0.6,
      "velocity": 0.7,
      "hand": "right"
    },
    {
      "midi": 65,
      "time": 6,
      "duration": 0.6,
      "velocity": 0.7,
      "hand": "right"
    },
    {
      "midi": 41,
      "time": 6.6,
      "duration": 0.6,
      "velocity": 0.57,
      "hand": "left"
    },
    {
      "midi": 53,
      "time": 6.6,
      "duration": 0.6,
      "velocity": 0.57,
      "hand": "left"
    },
    {
      "midi": 60,
      "time": 6.6,
      "duration": 0.6,
      "velocity": 0.66,
      "hand": "right"
    },
    {
      "midi": 69,
      "time": 6.6,
      "duration": 0.6,
      "velocity": 0.66,
      "hand": "right"
    },
    {
      "midi": 48,
      "time": 7.2,
      "duration": 2.4,
      "velocity": 0.58,
      "hand": "left"
    },
    {
      "midi": 52,
      "time": 7.2,
      "duration": 2.4,
      "velocity": 0.58,
      "hand": "left"
    },
    {
      "midi": 60,
      "time": 7.2,
      "duration": 2.4,
      "velocity": 0.6,
      "hand": "right"
    },
    {
      "midi": 67,
      "time": 7.2,
      "duration": 2.4,
      "velocity": 0.6,
      "hand": "right"
    },
    {
      "midi": 53,
      "time": 9.6,
      "duration": 1.2,
      "velocity": 0.56,
      "hand": "left"
    },
    {
      "midi": 60,
      "time": 9.6,
      "duration": 1.2,
      "velocity": 0.61,
      "hand": "right"
    },
    {
      "midi": 69,
      "time": 9.6,
      "duration": 1.2,
      "velocity": 0.61,
      "hand": "right"
    },
    {
      "midi": 48,
      "time": 10.8,
      "duration": 0.6,
      "velocity": 0.58,
      "hand": "left"
    },
    {
      "midi": 52,
      "time": 10.8,
      "duration": 0.6,
      "velocity": 0.58,
      "hand": "left"
    },
    {
      "midi": 58,
      "time": 10.8,
      "duration": 0.6,
      "velocity": 0.57,
      "hand": "left"
    },
    {
      "midi": 67,
      "time": 10.8,
      "duration": 0.6,
      "velocity": 0.57,
      "hand": "right"
    },
    {
      "midi": 50,
      "time": 11.4,
      "duration": 0.6,
      "velocity": 0.61,
      "hand": "left"
    },
    {
      "midi": 53,
      "time": 11.4,
      "duration": 0.6,
      "velocity": 0.61,
      "hand": "left"
    },
    {
      "midi": 57,
      "time": 11.4,
      "duration": 0.6,
      "velocity": 0.57,
      "hand": "left"
    },
    {
      "midi": 65,
      "time": 11.4,
      "duration": 0.6,
      "velocity": 0.57,
      "hand": "right"
    },
    {
      "midi": 46,
      "time": 12,
      "duration": 0.9,
      "velocity": 0.63,
      "hand": "left"
    },
    {
      "midi": 58,
      "time": 12,
      "duration": 0.9,
      "velocity": 0.63,
      "hand": "left"
    },
    {
      "midi": 62,
      "time": 12,
      "duration": 0.9,
      "velocity": 0.63,
      "hand": "right"
    },
    {
      "midi": 65,
      "time": 12,
      "duration": 0.9,
      "velocity": 0.63,
      "hand": "right"
    },
    {
      "midi": 46,
      "time": 12.9,
      "duration": 0.3,
      "velocity": 0.58,
      "hand": "left"
    },
    {
      "midi": 53,
      "time": 12.9,
      "duration": 0.3,
      "velocity": 0.58,
      "hand": "left"
    },
    {
      "midi": 58,
      "time": 12.9,
      "duration": 0.3,
      "velocity": 0.59,
      "hand": "left"
    },
    {
      "midi": 62,
      "time": 12.9,
      "duration": 0.3,
      "velocity": 0.59,
      "hand": "right"
    },
    {
      "midi": 46,
      "time": 13.2,
      "duration": 1.2,
      "velocity": 0.56,
      "hand": "left"
    },
    {
      "midi": 53,
      "time": 13.2,
      "duration": 1.2,
      "velocity": 0.56,
      "hand": "left"
    },
    {
      "midi": 58,
      "time": 13.2,
      "duration": 1.2,
      "velocity": 0.61,
      "hand": "left"
    },
    {
      "midi": 62,
      "time": 13.2,
      "duration": 1.2,
      "velocity": 0.61,
      "hand": "right"
    },
    {
      "midi": 48,
      "time": 14.4,
      "duration": 1.2,
      "velocity": 0.5,
      "hand": "left"
    },
    {
      "midi": 53,
      "time": 14.4,
      "duration": 0.6,
      "velocity": 0.6,
      "hand": "left"
    },
    {
      "midi": 57,
      "time": 14.4,
      "duration": 0.6,
      "velocity": 0.56,
      "hand": "left"
    },
    {
      "midi": 60,
      "time": 14.4,
      "duration": 0.6,
      "velocity": 0.56,
      "hand": "right"
    },
    {
      "midi": 57,
      "time": 15,
      "duration": 0.6,
      "velocity": 0.65,
      "hand": "left"
    },
    {
      "midi": 60,
      "time": 15,
      "duration": 0.6,
      "velocity": 0.69,
      "hand": "right"
    },
    {
      "midi": 65,
      "time": 15,
      "duration": 0.6,
      "velocity": 0.69,
      "hand": "right"
    },
    {
      "midi": 48,
      "time": 15.6,
      "duration": 0.6,
      "velocity": 0.57,
      "hand": "left"
    },
    {
      "midi": 55,
      "time": 15.6,
      "duration": 0.6,
      "velocity": 0.57,
      "hand": "left"
    },
    {
      "midi": 60,
      "time": 15.6,
      "duration": 0.6,
      "velocity": 0.53,
      "hand": "right"
    },
    {
      "midi": 64,
      "time": 15.6,
      "duration": 0.6,
      "velocity": 0.53,
      "hand": "right"
    },
    {
      "midi": 48,
      "time": 16.2,
      "duration": 0.6,
      "velocity": 0.64,
      "hand": "left"
    },
    {
      "midi": 58,
      "time": 16.2,
      "duration": 0.6,
      "velocity": 0.64,
      "hand": "left"
    },
    {
      "midi": 60,
      "time": 16.2,
      "duration": 0.6,
      "velocity": 0.65,
      "hand": "right"
    },
    {
      "midi": 67,
      "time": 16.2,
      "duration": 0.6,
      "velocity": 0.65,
      "hand": "right"
    },
    {
      "midi": 41,
      "time": 16.8,
      "duration": 2.4,
      "velocity": 0.56,
      "hand": "left"
    },
    {
      "midi": 57,
      "time": 16.8,
      "duration": 2.4,
      "velocity": 0.56,
      "hand": "left"
    },
    {
      "midi": 60,
      "time": 16.8,
      "duration": 2.4,
      "velocity": 0.6,
      "hand": "right"
    },
    {
      "midi": 65,
      "time": 16.8,
      "duration": 2.4,
      "velocity": 0.6,
      "hand": "right"
    },
    {
      "midi": 53,
      "time": 19.2,
      "duration": 1.2,
      "velocity": 0.57,
      "hand": "left"
    },
    {
      "midi": 57,
      "time": 19.2,
      "duration": 1.2,
      "velocity": 0.57,
      "hand": "left"
    },
    {
      "midi": 65,
      "time": 19.2,
      "duration": 1.2,
      "velocity": 0.72,
      "hand": "right"
    },
    {
      "midi": 72,
      "time": 19.2,
      "duration": 1.2,
      "velocity": 0.72,
      "hand": "right"
    },
    {
      "midi": 53,
      "time": 20.4,
      "duration": 0.6,
      "velocity": 0.57,
      "hand": "left"
    },
    {
      "midi": 58,
      "time": 20.4,
      "duration": 0.6,
      "velocity": 0.57,
      "hand": "left"
    },
    {
      "midi": 65,
      "time": 20.4,
      "duration": 0.6,
      "velocity": 0.65,
      "hand": "right"
    },
    {
      "midi": 74,
      "time": 20.4,
      "duration": 0.6,
      "velocity": 0.65,
      "hand": "right"
    },
    {
      "midi": 53,
      "time": 21,
      "duration": 0.6,
      "velocity": 0.56,
      "hand": "left"
    },
    {
      "midi": 57,
      "time": 21,
      "duration": 0.6,
      "velocity": 0.56,
      "hand": "left"
    },
    {
      "midi": 65,
      "time": 21,
      "duration": 0.6,
      "velocity": 0.54,
      "hand": "right"
    },
    {
      "midi": 72,
      "time": 21,
      "duration": 0.6,
      "velocity": 0.54,
      "hand": "right"
    },
    {
      "midi": 53,
      "time": 21.6,
      "duration": 0.9,
      "velocity": 0.62,
      "hand": "left"
    },
    {
      "midi": 57,
      "time": 21.6,
      "duration": 0.9,
      "velocity": 0.62,
      "hand": "left"
    },
    {
      "midi": 65,
      "time": 21.6,
      "duration": 0.9,
      "velocity": 0.6,
      "hand": "right"
    },
    {
      "midi": 72,
      "time": 21.6,
      "duration": 0.9,
      "velocity": 0.6,
      "hand": "right"
    },
    {
      "midi": 53,
      "time": 22.5,
      "duration": 0.3,
      "velocity": 0.62,
      "hand": "left"
    },
    {
      "midi": 60,
      "time": 22.5,
      "duration": 0.3,
      "velocity": 0.62,
      "hand": "right"
    },
    {
      "midi": 65,
      "time": 22.5,
      "duration": 0.3,
      "velocity": 0.54,
      "hand": "right"
    },
    {
      "midi": 69,
      "time": 22.5,
      "duration": 0.3,
      "velocity": 0.54,
      "hand": "right"
    },
    {
      "midi": 53,
      "time": 22.8,
      "duration": 1.2,
      "velocity": 0.56,
      "hand": "left"
    },
    {
      "midi": 57,
      "time": 22.8,
      "duration": 1.2,
      "velocity": 0.56,
      "hand": "left"
    },
    {
      "midi": 65,
      "time": 22.8,
      "duration": 1.2,
      "velocity": 0.67,
      "hand": "right"
    },
    {
      "midi": 72,
      "time": 22.8,
      "duration": 1.2,
      "velocity": 0.67,
      "hand": "right"
    },
    {
      "midi": 53,
      "time": 24,
      "duration": 1.2,
      "velocity": 0.56,
      "hand": "left"
    },
    {
      "midi": 57,
      "time": 24,
      "duration": 1.2,
      "velocity": 0.56,
      "hand": "left"
    },
    {
      "midi": 65,
      "time": 24,
      "duration": 1.2,
      "velocity": 0.59,
      "hand": "right"
    },
    {
      "midi": 72,
      "time": 24,
      "duration": 1.2,
      "velocity": 0.59,
      "hand": "right"
    },
    {
      "midi": 46,
      "time": 25.2,
      "duration": 0.6,
      "velocity": 0.61,
      "hand": "left"
    },
    {
      "midi": 58,
      "time": 25.2,
      "duration": 0.6,
      "velocity": 0.61,
      "hand": "left"
    },
    {
      "midi": 65,
      "time": 25.2,
      "duration": 0.6,
      "velocity": 0.63,
      "hand": "right"
    },
    {
      "midi": 74,
      "time": 25.2,
      "duration": 0.6,
      "velocity": 0.63,
      "hand": "right"
    },
    {
      "midi": 53,
      "time": 25.8,
      "duration": 0.6,
      "velocity": 0.59,
      "hand": "left"
    },
    {
      "midi": 57,
      "time": 25.8,
      "duration": 0.6,
      "velocity": 0.59,
      "hand": "left"
    },
    {
      "midi": 65,
      "time": 25.8,
      "duration": 0.6,
      "velocity": 0.57,
      "hand": "right"
    },
    {
      "midi": 72,
      "time": 25.8,
      "duration": 0.6,
      "velocity": 0.57,
      "hand": "right"
    },
    {
      "midi": 52,
      "time": 26.4,
      "duration": 0.9,
      "velocity": 0.57,
      "hand": "left"
    },
    {
      "midi": 55,
      "time": 26.4,
      "duration": 0.9,
      "velocity": 0.57,
      "hand": "left"
    },
    {
      "midi": 67,
      "time": 26.4,
      "duration": 0.9,
      "velocity": 0.64,
      "hand": "right"
    },
    {
      "midi": 72,
      "time": 26.4,
      "duration": 0.9,
      "velocity": 0.64,
      "hand": "right"
    },
    {
      "midi": 53,
      "time": 27.3,
      "duration": 0.3,
      "velocity": 0.57,
      "hand": "left"
    },
    {
      "midi": 60,
      "time": 27.3,
      "duration": 0.3,
      "velocity": 0.52,
      "hand": "right"
    },
    {
      "midi": 69,
      "time": 27.3,
      "duration": 0.3,
      "velocity": 0.52,
      "hand": "right"
    },
    {
      "midi": 48,
      "time": 27.6,
      "duration": 1.2,
      "velocity": 0.57,
      "hand": "left"
    },
    {
      "midi": 52,
      "time": 27.6,
      "duration": 1.2,
      "velocity": 0.57,
      "hand": "left"
    },
    {
      "midi": 60,
      "time": 27.6,
      "duration": 1.2,
      "velocity": 0.52,
      "hand": "right"
    },
    {
      "midi": 67,
      "time": 27.6,
      "duration": 1.2,
      "velocity": 0.52,
      "hand": "right"
    },
    {
      "midi": 53,
      "time": 28.8,
      "duration": 1.2,
      "velocity": 0.61,
      "hand": "left"
    },
    {
      "midi": 60,
      "time": 28.8,
      "duration": 1.2,
      "velocity": 0.66,
      "hand": "right"
    },
    {
      "midi": 69,
      "time": 28.8,
      "duration": 1.2,
      "velocity": 0.66,
      "hand": "right"
    },
    {
      "midi": 48,
      "time": 30,
      "duration": 0.6,
      "velocity": 0.58,
      "hand": "left"
    },
    {
      "midi": 52,
      "time": 30,
      "duration": 0.6,
      "velocity": 0.58,
      "hand": "left"
    },
    {
      "midi": 58,
      "time": 30,
      "duration": 0.6,
      "velocity": 0.52,
      "hand": "left"
    },
    {
      "midi": 67,
      "time": 30,
      "duration": 0.6,
      "velocity": 0.52,
      "hand": "right"
    },
    {
      "midi": 50,
      "time": 30.6,
      "duration": 0.6,
      "velocity": 0.61,
      "hand": "left"
    },
    {
      "midi": 53,
      "time": 30.6,
      "duration": 0.6,
      "velocity": 0.61,
      "hand": "left"
    },
    {
      "midi": 57,
      "time": 30.6,
      "duration": 0.6,
      "velocity": 0.56,
      "hand": "left"
    },
    {
      "midi": 65,
      "time": 30.6,
      "duration": 0.6,
      "velocity": 0.56,
      "hand": "right"
    },
    {
      "midi": 46,
      "time": 31.2,
      "duration": 0.9,
      "velocity": 0.62,
      "hand": "left"
    },
    {
      "midi": 58,
      "time": 31.2,
      "duration": 0.9,
      "velocity": 0.62,
      "hand": "left"
    },
    {
      "midi": 62,
      "time": 31.2,
      "duration": 0.9,
      "velocity": 0.59,
      "hand": "right"
    },
    {
      "midi": 65,
      "time": 31.2,
      "duration": 0.9,
      "velocity": 0.59,
      "hand": "right"
    },
    {
      "midi": 46,
      "time": 32.1,
      "duration": 0.3,
      "velocity": 0.56,
      "hand": "left"
    },
    {
      "midi": 53,
      "time": 32.1,
      "duration": 0.3,
      "velocity": 0.56,
      "hand": "left"
    },
    {
      "midi": 58,
      "time": 32.1,
      "duration": 0.3,
      "velocity": 0.54,
      "hand": "left"
    },
    {
      "midi": 62,
      "time": 32.1,
      "duration": 0.3,
      "velocity": 0.54,
      "hand": "right"
    },
    {
      "midi": 46,
      "time": 32.4,
      "duration": 1.2,
      "velocity": 0.59,
      "hand": "left"
    },
    {
      "midi": 53,
      "time": 32.4,
      "duration": 1.2,
      "velocity": 0.59,
      "hand": "left"
    },
    {
      "midi": 58,
      "time": 32.4,
      "duration": 1.2,
      "velocity": 0.63,
      "hand": "left"
    },
    {
      "midi": 62,
      "time": 32.4,
      "duration": 1.2,
      "velocity": 0.63,
      "hand": "right"
    },
    {
      "midi": 48,
      "time": 33.6,
      "duration": 1.2,
      "velocity": 0.52,
      "hand": "left"
    },
    {
      "midi": 53,
      "time": 33.6,
      "duration": 0.6,
      "velocity": 0.58,
      "hand": "left"
    },
    {
      "midi": 57,
      "time": 33.6,
      "duration": 0.6,
      "velocity": 0.51,
      "hand": "left"
    },
    {
      "midi": 60,
      "time": 33.6,
      "duration": 0.6,
      "velocity": 0.51,
      "hand": "right"
    },
    {
      "midi": 57,
      "time": 34.2,
      "duration": 0.6,
      "velocity": 0.62,
      "hand": "left"
    },
    {
      "midi": 60,
      "time": 34.2,
      "duration": 0.6,
      "velocity": 0.7,
      "hand": "right"
    },
    {
      "midi": 65,
      "time": 34.2,
      "duration": 0.6,
      "velocity": 0.7,
      "hand": "right"
    },
    {
      "midi": 48,
      "time": 34.8,
      "duration": 0.6,
      "velocity": 0.6,
      "hand": "left"
    },
    {
      "midi": 55,
      "time": 34.8,
      "duration": 0.6,
      "velocity": 0.6,
      "hand": "left"
    },
    {
      "midi": 60,
      "time": 34.8,
      "duration": 0.6,
      "velocity": 0.6,
      "hand": "right"
    },
    {
      "midi": 64,
      "time": 34.8,
      "duration": 0.6,
      "velocity": 0.6,
      "hand": "right"
    },
    {
      "midi": 48,
      "time": 35.4,
      "duration": 0.6,
      "velocity": 0.65,
      "hand": "left"
    },
    {
      "midi": 58,
      "time": 35.4,
      "duration": 0.6,
      "velocity": 0.65,
      "hand": "left"
    },
    {
      "midi": 60,
      "time": 35.4,
      "duration": 0.6,
      "velocity": 0.65,
      "hand": "right"
    },
    {
      "midi": 67,
      "time": 35.4,
      "duration": 0.6,
      "velocity": 0.65,
      "hand": "right"
    },
    {
      "midi": 41,
      "time": 36,
      "duration": 2.4,
      "velocity": 0.58,
      "hand": "left"
    },
    {
      "midi": 57,
      "time": 36,
      "duration": 2.4,
      "velocity": 0.58,
      "hand": "left"
    },
    {
      "midi": 60,
      "time": 36,
      "duration": 2.4,
      "velocity": 0.55,
      "hand": "right"
    },
    {
      "midi": 65,
      "time": 36,
      "duration": 2.4,
      "velocity": 0.55,
      "hand": "right"
    }
  ]
}
