{
  "id": "march-of-the-wooden-soldierstchaikovsky",
  "title": "control track",
  "artist": "MIDI Source",
  "difficulty": "Médio",
  "bpm": 140,
  "duration": 40,
  "category": "A revisar",
  "isPremium": true,
  "coverUrl": "/images/covers/placeholder.png",
  "notes": [
    {
      "midi": 62,
      "time": 0,
      "duration": 0.214,
      "velocity": 0.71,
      "hand": "right"
    },
    {
      "midi": 66,
      "time": 0,
      "duration": 0.214,
      "velocity": 0.71,
      "hand": "right"
    },
    {
      "midi": 69,
      "time": 0,
      "duration": 0.214,
      "velocity": 0.71,
      "hand": "right"
    },
    {
      "midi": 74,
      "time": 0,
      "duration": 0.214,
      "velocity": 0.71,
      "hand": "right"
    },
    {
      "midi": 74,
      "time": 0.429,
      "duration": 0.214,
      "velocity": 0.71,
      "hand": "right"
    },
    {
      "midi": 62,
      "time": 0.857,
      "duration": 0.321,
      "velocity": 0.71,
      "hand": "right"
    },
    {
      "midi": 67,
      "time": 0.857,
      "duration": 0.321,
      "velocity": 0.71,
      "hand": "right"
    },
    {
      "midi": 71,
      "time": 0.857,
      "duration": 0.321,
      "velocity": 0.71,
      "hand": "right"
    },
    {
      "midi": 66,
      "time": 1.179,
      "duration": 0.107,
      "velocity": 0.71,
      "hand": "right"
    },
    {
      "midi": 70,
      "time": 1.179,
      "duration": 0.107,
      "velocity": 0.71,
      "hand": "right"
    },
    {
      "midi": 67,
      "time": 1.286,
      "duration": 0.214,
      "velocity": 0.71,
      "hand": "right"
    },
    {
      "midi": 71,
      "time": 1.286,
      "duration": 0.214,
      "velocity": 0.71,
      "hand": "right"
    },
    {
      "midi": 64,
      "time": 1.607,
      "duration": 0.107,
      "velocity": 0.71,
      "hand": "right"
    },
    {
      "midi": 73,
      "time": 1.607,
      "duration": 0.107,
      "velocity": 0.71,
      "hand": "right"
    },
    {
      "midi": 62,
      "time": 1.714,
      "duration": 0.214,
      "velocity": 0.71,
      "hand": "right"
    },
    {
      "midi": 66,
      "time": 1.714,
      "duration": 0.214,
      "velocity": 0.71,
      "hand": "right"
    },
    {
      "midi": 69,
      "time": 1.714,
      "duration": 0.214,
      "velocity": 0.71,
      "hand": "right"
    },
    {
      "midi": 74,
      "time": 1.714,
      "duration": 0.214,
      "velocity": 0.71,
      "hand": "right"
    },
    {
      "midi": 74,
      "time": 2.143,
      "duration": 0.214,
      "velocity": 0.71,
      "hand": "right"
    },
    {
      "midi": 62,
      "time": 2.571,
      "duration": 0.321,
      "velocity": 0.71,
      "hand": "right"
    },
    {
      "midi": 67,
      "time": 2.571,
      "duration": 0.321,
      "velocity": 0.71,
      "hand": "right"
    },
    {
      "midi": 71,
      "time": 2.571,
      "duration": 0.321,
      "velocity": 0.71,
      "hand": "right"
    },
    {
      "midi": 66,
      "time": 2.893,
      "duration": 0.107,
      "velocity": 0.71,
      "hand": "right"
    },
    {
      "midi": 70,
      "time": 2.893,
      "duration": 0.107,
      "velocity": 0.71,
      "hand": "right"
    },
    {
      "midi": 67,
      "time": 3,
      "duration": 0.214,
      "velocity": 0.71,
      "hand": "right"
    },
    {
      "midi": 71,
      "time": 3,
      "duration": 0.214,
      "velocity": 0.71,
      "hand": "right"
    },
    {
      "midi": 64,
      "time": 3.321,
      "duration": 0.107,
      "velocity": 0.71,
      "hand": "right"
    },
    {
      "midi": 73,
      "time": 3.321,
      "duration": 0.107,
      "velocity": 0.71,
      "hand": "right"
    },
    {
      "midi": 62,
      "time": 3.429,
      "duration": 0.214,
      "velocity": 0.71,
      "hand": "right"
    },
    {
      "midi": 66,
      "time": 3.429,
      "duration": 0.214,
      "velocity": 0.71,
      "hand": "right"
    },
    {
      "midi": 69,
      "time": 3.429,
      "duration": 0.214,
      "velocity": 0.71,
      "hand": "right"
    },
    {
      "midi": 74,
      "time": 3.429,
      "duration": 0.214,
      "velocity": 0.71,
      "hand": "right"
    },
    {
      "midi": 69,
      "time": 3.857,
      "duration": 0.214,
      "velocity": 0.71,
      "hand": "right"
    },
    {
      "midi": 73,
      "time": 3.857,
      "duration": 0.214,
      "velocity": 0.71,
      "hand": "right"
    },
    {
      "midi": 76,
      "time": 3.857,
      "duration": 0.214,
      "velocity": 0.71,
      "hand": "right"
    },
    {
      "midi": 74,
      "time": 4.286,
      "duration": 0.214,
      "velocity": 0.71,
      "hand": "right"
    },
    {
      "midi": 78,
      "time": 4.286,
      "duration": 0.214,
      "velocity": 0.71,
      "hand": "right"
    },
    {
      "midi": 74,
      "time": 4.714,
      "duration": 0.214,
      "velocity": 0.71,
      "hand": "right"
    },
    {
      "midi": 78,
      "time": 4.714,
      "duration": 0.214,
      "velocity": 0.71,
      "hand": "right"
    },
    {
      "midi": 62,
      "time": 5.143,
      "duration": 0.214,
      "velocity": 0.71,
      "hand": "right"
    },
    {
      "midi": 69,
      "time": 5.143,
      "duration": 0.214,
      "velocity": 0.71,
      "hand": "right"
    },
    {
      "midi": 76,
      "time": 5.143,
      "duration": 0.214,
      "velocity": 0.71,
      "hand": "right"
    },
    {
      "midi": 79,
      "time": 5.143,
      "duration": 0.214,
      "velocity": 0.71,
      "hand": "right"
    },
    {
      "midi": 74,
      "time": 5.464,
      "duration": 0.107,
      "velocity": 0.71,
      "hand": "right"
    },
    {
      "midi": 78,
      "time": 5.464,
      "duration": 0.107,
      "velocity": 0.71,
      "hand": "right"
    },
    {
      "midi": 73,
      "time": 5.571,
      "duration": 0.214,
      "velocity": 0.71,
      "hand": "right"
    },
    {
      "midi": 76,
      "time": 5.571,
      "duration": 0.214,
      "velocity": 0.71,
      "hand": "right"
    },
    {
      "midi": 71,
      "time": 5.893,
      "duration": 0.107,
      "velocity": 0.71,
      "hand": "right"
    },
    {
      "midi": 74,
      "time": 5.893,
      "duration": 0.107,
      "velocity": 0.71,
      "hand": "right"
    },
    {
      "midi": 69,
      "time": 6,
      "duration": 0.214,
      "velocity": 0.71,
      "hand": "right"
    },
    {
      "midi": 73,
      "time": 6,
      "duration": 0.214,
      "velocity": 0.71,
      "hand": "right"
    },
    {
      "midi": 76,
      "time": 6,
      "duration": 0.214,
      "velocity": 0.71,
      "hand": "right"
    },
    {
      "midi": 69,
      "time": 6.214,
      "duration": 0.107,
      "velocity": 0.71,
      "hand": "right"
    },
    {
      "midi": 69,
      "time": 6.321,
      "duration": 0.107,
      "velocity": 0.71,
      "hand": "right"
    },
    {
      "midi": 69,
      "time": 6.429,
      "duration": 0.214,
      "velocity": 0.71,
      "hand": "right"
    },
    {
      "midi": 69,
      "time": 6.643,
      "duration": 0.214,
      "velocity": 0.71,
      "hand": "right"
    },
    {
      "midi": 62,
      "time": 6.857,
      "duration": 0.214,
      "velocity": 0.71,
      "hand": "right"
    },
    {
      "midi": 66,
      "time": 6.857,
      "duration": 0.214,
      "velocity": 0.71,
      "hand": "right"
    },
    {
      "midi": 69,
      "time": 6.857,
      "duration": 0.214,
      "velocity": 0.71,
      "hand": "right"
    },
    {
      "midi": 74,
      "time": 6.857,
      "duration": 0.214,
      "velocity": 0.71,
      "hand": "right"
    },
    {
      "midi": 74,
      "time": 7.286,
      "duration": 0.214,
      "velocity": 0.71,
      "hand": "right"
    },
    {
      "midi": 62,
      "time": 7.714,
      "duration": 0.321,
      "velocity": 0.71,
      "hand": "right"
    },
    {
      "midi": 67,
      "time": 7.714,
      "duration": 0.321,
      "velocity": 0.71,
      "hand": "right"
    },
    {
      "midi": 71,
      "time": 7.714,
      "duration": 0.321,
      "velocity": 0.71,
      "hand": "right"
    },
    {
      "midi": 66,
      "time": 8.036,
      "duration": 0.107,
      "velocity": 0.71,
      "hand": "right"
    },
    {
      "midi": 70,
      "time": 8.036,
      "duration": 0.107,
      "velocity": 0.71,
      "hand": "right"
    },
    {
      "midi": 67,
      "time": 8.143,
      "duration": 0.214,
      "velocity": 0.71,
      "hand": "right"
    },
    {
      "midi": 71,
      "time": 8.143,
      "duration": 0.214,
      "velocity": 0.71,
      "hand": "right"
    },
    {
      "midi": 64,
      "time": 8.464,
      "duration": 0.107,
      "velocity": 0.71,
      "hand": "right"
    },
    {
      "midi": 73,
      "time": 8.464,
      "duration": 0.107,
      "velocity": 0.71,
      "hand": "right"
    },
    {
      "midi": 62,
      "time": 8.571,
      "duration": 0.214,
      "velocity": 0.71,
      "hand": "right"
    },
    {
      "midi": 66,
      "time": 8.571,
      "duration": 0.214,
      "velocity": 0.71,
      "hand": "right"
    },
    {
      "midi": 69,
      "time": 8.571,
      "duration": 0.214,
      "velocity": 0.71,
      "hand": "right"
    },
    {
      "midi": 74,
      "time": 8.571,
      "duration": 0.214,
      "velocity": 0.71,
      "hand": "right"
    },
    {
      "midi": 74,
      "time": 9,
      "duration": 0.214,
      "velocity": 0.71,
      "hand": "right"
    },
    {
      "midi": 62,
      "time": 9.429,
      "duration": 0.321,
      "velocity": 0.71,
      "hand": "right"
    },
    {
      "midi": 67,
      "time": 9.429,
      "duration": 0.321,
      "velocity": 0.71,
      "hand": "right"
    },
    {
      "midi": 71,
      "time": 9.429,
      "duration": 0.321,
      "velocity": 0.71,
      "hand": "right"
    },
    {
      "midi": 66,
      "time": 9.75,
      "duration": 0.107,
      "velocity": 0.71,
      "hand": "right"
    },
    {
      "midi": 70,
      "time": 9.75,
      "duration": 0.107,
      "velocity": 0.71,
      "hand": "right"
    },
    {
      "midi": 67,
      "time": 9.857,
      "duration": 0.214,
      "velocity": 0.71,
      "hand": "right"
    },
    {
      "midi": 71,
      "time": 9.857,
      "duration": 0.214,
      "velocity": 0.71,
      "hand": "right"
    },
    {
      "midi": 64,
      "time": 10.179,
      "duration": 0.107,
      "velocity": 0.71,
      "hand": "right"
    },
    {
      "midi": 73,
      "time": 10.179,
      "duration": 0.107,
      "velocity": 0.71,
      "hand": "right"
    },
    {
      "midi": 62,
      "time": 10.286,
      "duration": 0.214,
      "velocity": 0.71,
      "hand": "right"
    },
    {
      "midi": 66,
      "time": 10.286,
      "duration": 0.214,
      "velocity": 0.71,
      "hand": "right"
    },
    {
      "midi": 69,
      "time": 10.286,
      "duration": 0.214,
      "velocity": 0.71,
      "hand": "right"
    },
    {
      "midi": 74,
      "time": 10.286,
      "duration": 0.214,
      "velocity": 0.71,
      "hand": "right"
    },
    {
      "midi": 69,
      "time": 10.714,
      "duration": 0.214,
      "velocity": 0.71,
      "hand": "right"
    },
    {
      "midi": 73,
      "time": 10.714,
      "duration": 0.214,
      "velocity": 0.71,
      "hand": "right"
    },
    {
      "midi": 76,
      "time": 10.714,
      "duration": 0.214,
      "velocity": 0.71,
      "hand": "right"
    },
    {
      "midi": 74,
      "time": 11.143,
      "duration": 0.214,
      "velocity": 0.71,
      "hand": "right"
    },
    {
      "midi": 78,
      "time": 11.143,
      "duration": 0.214,
      "velocity": 0.71,
      "hand": "right"
    },
    {
      "midi": 62,
      "time": 11.571,
      "duration": 0.214,
      "velocity": 0.71,
      "hand": "right"
    },
    {
      "midi": 74,
      "time": 11.571,
      "duration": 0.214,
      "velocity": 0.71,
      "hand": "right"
    },
    {
      "midi": 78,
      "time": 11.571,
      "duration": 0.214,
      "velocity": 0.71,
      "hand": "right"
    },
    {
      "midi": 64,
      "time": 12,
      "duration": 0.857,
      "velocity": 0.71,
      "hand": "right"
    },
    {
      "midi": 73,
      "time": 12,
      "duration": 0.214,
      "velocity": 0.71,
      "hand": "right"
    },
    {
      "midi": 76,
      "time": 12,
      "duration": 0.214,
      "velocity": 0.71,
      "hand": "right"
    },
    {
      "midi": 71,
      "time": 12.321,
      "duration": 0.107,
      "velocity": 0.71,
      "hand": "right"
    },
    {
      "midi": 74,
      "time": 12.321,
      "duration": 0.107,
      "velocity": 0.71,
      "hand": "right"
    },
    {
      "midi": 69,
      "time": 12.429,
      "duration": 0.214,
      "velocity": 0.71,
      "hand": "right"
    },
    {
      "midi": 73,
      "time": 12.429,
      "duration": 0.214,
      "velocity": 0.71,
      "hand": "right"
    },
    {
      "midi": 68,
      "time": 12.75,
      "duration": 0.107,
      "velocity": 0.71,
      "hand": "right"
    },
    {
      "midi": 71,
      "time": 12.75,
      "duration": 0.107,
      "velocity": 0.71,
      "hand": "right"
    },
    {
      "midi": 57,
      "time": 12.857,
      "duration": 0.214,
      "velocity": 0.71,
      "hand": "left"
    },
    {
      "midi": 69,
      "time": 12.857,
      "duration": 0.214,
      "velocity": 0.71,
      "hand": "right"
    },
    {
      "midi": 57,
      "time": 13.071,
      "duration": 0.107,
      "velocity": 0.71,
      "hand": "left"
    },
    {
      "midi": 57,
      "time": 13.179,
      "duration": 0.107,
      "velocity": 0.71,
      "hand": "left"
    },
    {
      "midi": 57,
      "time": 13.286,
      "duration": 0.214,
      "velocity": 0.71,
      "hand": "left"
    },
    {
      "midi": 57,
      "time": 13.5,
      "duration": 0.214,
      "velocity": 0.71,
      "hand": "left"
    },
    {
      "midi": 57,
      "time": 13.714,
      "duration": 0.214,
      "velocity": 0.71,
      "hand": "left"
    },
    {
      "midi": 61,
      "time": 13.714,
      "duration": 0.214,
      "velocity": 0.71,
      "hand": "right"
    },
    {
      "midi": 64,
      "time": 13.714,
      "duration": 0.214,
      "velocity": 0.71,
      "hand": "right"
    },
    {
      "midi": 69,
      "time": 13.714,
      "duration": 0.214,
      "velocity": 0.71,
      "hand": "right"
    },
    {
      "midi": 69,
      "time": 14.143,
      "duration": 0.214,
      "velocity": 0.71,
      "hand": "right"
    },
    {
      "midi": 57,
      "time": 14.571,
      "duration": 0.857,
      "velocity": 0.71,
      "hand": "left"
    },
    {
      "midi": 62,
      "time": 14.571,
      "duration": 0.857,
      "velocity": 0.71,
      "hand": "right"
    },
    {
      "midi": 65,
      "time": 14.571,
      "duration": 0.857,
      "velocity": 0.71,
      "hand": "right"
    },
    {
      "midi": 70,
      "time": 14.571,
      "duration": 0.321,
      "velocity": 0.71,
      "hand": "right"
    },
    {
      "midi": 69,
      "time": 14.893,
      "duration": 0.107,
      "velocity": 0.71,
      "hand": "right"
    },
    {
      "midi": 70,
      "time": 15,
      "duration": 0.214,
      "velocity": 0.71,
      "hand": "right"
    },
    {
      "midi": 68,
      "time": 15.321,
      "duration": 0.107,
      "velocity": 0.71,
      "hand": "right"
    },
    {
      "midi": 57,
      "time": 15.429,
      "duration": 0.214,
      "velocity": 0.71,
      "hand": "left"
    },
    {
      "midi": 61,
      "time": 15.429,
      "duration": 0.214,
      "velocity": 0.71,
      "hand": "right"
    },
    {
      "midi": 64,
      "time": 15.429,
      "duration": 0.214,
      "velocity": 0.71,
      "hand": "right"
    },
    {
      "midi": 69,
      "time": 15.429,
      "duration": 0.214,
      "velocity": 0.71,
      "hand": "right"
    },
    {
      "midi": 69,
      "time": 15.857,
      "duration": 0.214,
      "velocity": 0.71,
      "hand": "right"
    },
    {
      "midi": 57,
      "time": 16.286,
      "duration": 0.857,
      "velocity": 0.71,
      "hand": "left"
    },
    {
      "midi": 62,
      "time": 16.286,
      "duration": 0.857,
      "velocity": 0.71,
      "hand": "right"
    },
    {
      "midi": 65,
      "time": 16.286,
      "duration": 0.857,
      "velocity": 0.71,
      "hand": "right"
    },
    {
      "midi": 70,
      "time": 16.286,
      "duration": 0.321,
      "velocity": 0.71,
      "hand": "right"
    },
    {
      "midi": 69,
      "time": 16.607,
      "duration": 0.107,
      "velocity": 0.71,
      "hand": "right"
    },
    {
      "midi": 70,
      "time": 16.714,
      "duration": 0.214,
      "velocity": 0.71,
      "hand": "right"
    },
    {
      "midi": 68,
      "time": 17.036,
      "duration": 0.107,
      "velocity": 0.71,
      "hand": "right"
    },
    {
      "midi": 57,
      "time": 17.143,
      "duration": 0.214,
      "velocity": 0.71,
      "hand": "left"
    },
    {
      "midi": 61,
      "time": 17.143,
      "duration": 0.214,
      "velocity": 0.71,
      "hand": "right"
    },
    {
      "midi": 64,
      "time": 17.143,
      "duration": 0.214,
      "velocity": 0.71,
      "hand": "right"
    },
    {
      "midi": 69,
      "time": 17.143,
      "duration": 0.214,
      "velocity": 0.71,
      "hand": "right"
    },
    {
      "midi": 64,
      "time": 17.571,
      "duration": 0.214,
      "velocity": 0.71,
      "hand": "right"
    },
    {
      "midi": 68,
      "time": 17.571,
      "duration": 0.214,
      "velocity": 0.71,
      "hand": "right"
    },
    {
      "midi": 71,
      "time": 17.571,
      "duration": 0.214,
      "velocity": 0.71,
      "hand": "right"
    },
    {
      "midi": 61,
      "time": 18,
      "duration": 0.214,
      "velocity": 0.71,
      "hand": "right"
    },
    {
      "midi": 65,
      "time": 18,
      "duration": 0.214,
      "velocity": 0.71,
      "hand": "right"
    },
    {
      "midi": 68,
      "time": 18,
      "duration": 0.214,
      "velocity": 0.71,
      "hand": "right"
    },
    {
      "midi": 73,
      "time": 18,
      "duration": 0.214,
      "velocity": 0.71,
      "hand": "right"
    },
    {
      "midi": 66,
      "time": 18.429,
      "duration": 0.214,
      "velocity": 0.71,
      "hand": "right"
    },
    {
      "midi": 69,
      "time": 18.429,
      "duration": 0.214,
      "velocity": 0.71,
      "hand": "right"
    },
    {
      "midi": 73,
      "time": 18.429,
      "duration": 0.214,
      "velocity": 0.71,
      "hand": "right"
    },
    {
      "midi": 59,
      "time": 18.857,
      "duration": 0.214,
      "velocity": 0.71,
      "hand": "left"
    },
    {
      "midi": 66,
      "time": 18.857,
      "duration": 0.214,
      "velocity": 0.71,
      "hand": "right"
    },
    {
      "midi": 71,
      "time": 18.857,
      "duration": 0.214,
      "velocity": 0.71,
      "hand": "right"
    },
    {
      "midi": 74,
      "time": 18.857,
      "duration": 0.214,
      "velocity": 0.71,
      "hand": "right"
    },
    {
      "midi": 73,
      "time": 19.179,
      "duration": 0.107,
      "velocity": 0.71,
      "hand": "right"
    },
    {
      "midi": 71,
      "time": 19.286,
      "duration": 0.214,
      "velocity": 0.71,
      "hand": "right"
    },
    {
      "midi": 69,
      "time": 19.607,
      "duration": 0.107,
      "velocity": 0.71,
      "hand": "right"
    },
    {
      "midi": 64,
      "time": 19.714,
      "duration": 0.214,
      "velocity": 0.71,
      "hand": "right"
    },
    {
      "midi": 68,
      "time": 19.714,
      "duration": 0.214,
      "velocity": 0.71,
      "hand": "right"
    },
    {
      "midi": 62,
      "time": 20.036,
      "duration": 0.107,
      "velocity": 0.71,
      "hand": "right"
    },
    {
      "midi": 61,
      "time": 20.143,
      "duration": 0.214,
      "velocity": 0.71,
      "hand": "right"
    },
    {
      "midi": 59,
      "time": 20.464,
      "duration": 0.107,
      "velocity": 0.71,
      "hand": "left"
    },
    {
      "midi": 57,
      "time": 20.571,
      "duration": 0.214,
      "velocity": 0.71,
      "hand": "left"
    },
    {
      "midi": 61,
      "time": 20.571,
      "duration": 0.214,
      "velocity": 0.71,
      "hand": "right"
    },
    {
      "midi": 64,
      "time": 20.571,
      "duration": 0.214,
      "velocity": 0.71,
      "hand": "right"
    },
    {
      "midi": 69,
      "time": 20.571,
      "duration": 0.214,
      "velocity": 0.71,
      "hand": "right"
    },
    {
      "midi": 69,
      "time": 21,
      "duration": 0.214,
      "velocity": 0.71,
      "hand": "right"
    },
    {
      "midi": 57,
      "time": 21.429,
      "duration": 0.857,
      "velocity": 0.71,
      "hand": "left"
    },
    {
      "midi": 62,
      "time": 21.429,
      "duration": 0.857,
      "velocity": 0.71,
      "hand": "right"
    },
    {
      "midi": 65,
      "time": 21.429,
      "duration": 0.857,
      "velocity": 0.71,
      "hand": "right"
    },
    {
      "midi": 70,
      "time": 21.429,
      "duration": 0.321,
      "velocity": 0.71,
      "hand": "right"
    },
    {
      "midi": 69,
      "time": 21.75,
      "duration": 0.107,
      "velocity": 0.71,
      "hand": "right"
    },
    {
      "midi": 70,
      "time": 21.857,
      "duration": 0.214,
      "velocity": 0.71,
      "hand": "right"
    },
    {
      "midi": 68,
      "time": 22.179,
      "duration": 0.107,
      "velocity": 0.71,
      "hand": "right"
    },
    {
      "midi": 57,
      "time": 22.286,
      "duration": 0.214,
      "velocity": 0.71,
      "hand": "left"
    },
    {
      "midi": 61,
      "time": 22.286,
      "duration": 0.214,
      "velocity": 0.71,
      "hand": "right"
    },
    {
      "midi": 64,
      "time": 22.286,
      "duration": 0.214,
      "velocity": 0.71,
      "hand": "right"
    },
    {
      "midi": 69,
      "time": 22.286,
      "duration": 0.214,
      "velocity": 0.71,
      "hand": "right"
    },
    {
      "midi": 69,
      "time": 22.714,
      "duration": 0.214,
      "velocity": 0.71,
      "hand": "right"
    },
    {
      "midi": 57,
      "time": 23.143,
      "duration": 0.857,
      "velocity": 0.71,
      "hand": "left"
    },
    {
      "midi": 62,
      "time": 23.143,
      "duration": 0.857,
      "velocity": 0.71,
      "hand": "right"
    },
    {
      "midi": 65,
      "time": 23.143,
      "duration": 0.857,
      "velocity": 0.71,
      "hand": "right"
    },
    {
      "midi": 70,
      "time": 23.143,
      "duration": 0.321,
      "velocity": 0.71,
      "hand": "right"
    },
    {
      "midi": 69,
      "time": 23.464,
      "duration": 0.107,
      "velocity": 0.71,
      "hand": "right"
    },
    {
      "midi": 70,
      "time": 23.571,
      "duration": 0.214,
      "velocity": 0.71,
      "hand": "right"
    },
    {
      "midi": 68,
      "time": 23.893,
      "duration": 0.107,
      "velocity": 0.71,
      "hand": "right"
    },
    {
      "midi": 57,
      "time": 24,
      "duration": 0.214,
      "velocity": 0.71,
      "hand": "left"
    },
    {
      "midi": 61,
      "time": 24,
      "duration": 0.214,
      "velocity": 0.71,
      "hand": "right"
    },
    {
      "midi": 64,
      "time": 24,
      "duration": 0.214,
      "velocity": 0.71,
      "hand": "right"
    },
    {
      "midi": 69,
      "time": 24,
      "duration": 0.214,
      "velocity": 0.71,
      "hand": "right"
    },
    {
      "midi": 64,
      "time": 24.429,
      "duration": 0.214,
      "velocity": 0.71,
      "hand": "right"
    },
    {
      "midi": 68,
      "time": 24.429,
      "duration": 0.214,
      "velocity": 0.71,
      "hand": "right"
    },
    {
      "midi": 71,
      "time": 24.429,
      "duration": 0.214,
      "velocity": 0.71,
      "hand": "right"
    },
    {
      "midi": 61,
      "time": 24.857,
      "duration": 0.214,
      "velocity": 0.71,
      "hand": "right"
    },
    {
      "midi": 65,
      "time": 24.857,
      "duration": 0.214,
      "velocity": 0.71,
      "hand": "right"
    },
    {
      "midi": 68,
      "time": 24.857,
      "duration": 0.214,
      "velocity": 0.71,
      "hand": "right"
    },
    {
      "midi": 73,
      "time": 24.857,
      "duration": 0.214,
      "velocity": 0.71,
      "hand": "right"
    },
    {
      "midi": 66,
      "time": 25.286,
      "duration": 0.214,
      "velocity": 0.71,
      "hand": "right"
    },
    {
      "midi": 69,
      "time": 25.286,
      "duration": 0.214,
      "velocity": 0.71,
      "hand": "right"
    },
    {
      "midi": 73,
      "time": 25.286,
      "duration": 0.214,
      "velocity": 0.71,
      "hand": "right"
    },
    {
      "midi": 59,
      "time": 25.714,
      "duration": 0.214,
      "velocity": 0.71,
      "hand": "left"
    },
    {
      "midi": 66,
      "time": 25.714,
      "duration": 0.214,
      "velocity": 0.71,
      "hand": "right"
    },
    {
      "midi": 71,
      "time": 25.714,
      "duration": 0.214,
      "velocity": 0.71,
      "hand": "right"
    },
    {
      "midi": 74,
      "time": 25.714,
      "duration": 0.214,
      "velocity": 0.71,
      "hand": "right"
    },
    {
      "midi": 73,
      "time": 26.036,
      "duration": 0.107,
      "velocity": 0.71,
      "hand": "right"
    },
    {
      "midi": 64,
      "time": 26.143,
      "duration": 0.214,
      "velocity": 0.71,
      "hand": "right"
    },
    {
      "midi": 68,
      "time": 26.143,
      "duration": 0.214,
      "velocity": 0.71,
      "hand": "right"
    },
    {
      "midi": 71,
      "time": 26.143,
      "duration": 0.214,
      "velocity": 0.71,
      "hand": "right"
    },
    {
      "midi": 73,
      "time": 26.464,
      "duration": 0.107,
      "velocity": 0.71,
      "hand": "right"
    },
    {
      "midi": 57,
      "time": 26.571,
      "duration": 0.214,
      "velocity": 0.71,
      "hand": "left"
    },
    {
      "midi": 69,
      "time": 26.571,
      "duration": 0.214,
      "velocity": 0.71,
      "hand": "right"
    },
    {
      "midi": 57,
      "time": 26.893,
      "duration": 0.107,
      "velocity": 0.71,
      "hand": "left"
    },
    {
      "midi": 59,
      "time": 27,
      "duration": 0.214,
      "velocity": 0.71,
      "hand": "left"
    },
    {
      "midi": 61,
      "time": 27.321,
      "duration": 0.107,
      "velocity": 0.71,
      "hand": "right"
    },
    {
      "midi": 62,
      "time": 27.429,
      "duration": 0.214,
      "velocity": 0.71,
      "hand": "right"
    },
    {
      "midi": 66,
      "time": 27.429,
      "duration": 0.214,
      "velocity": 0.71,
      "hand": "right"
    },
    {
      "midi": 69,
      "time": 27.429,
      "duration": 0.214,
      "velocity": 0.71,
      "hand": "right"
    },
    {
      "midi": 74,
      "time": 27.429,
      "duration": 0.214,
      "velocity": 0.71,
      "hand": "right"
    },
    {
      "midi": 74,
      "time": 27.857,
      "duration": 0.214,
      "velocity": 0.71,
      "hand": "right"
    },
    {
      "midi": 62,
      "time": 28.286,
      "duration": 0.321,
      "velocity": 0.71,
      "hand": "right"
    },
    {
      "midi": 67,
      "time": 28.286,
      "duration": 0.321,
      "velocity": 0.71,
      "hand": "right"
    },
    {
      "midi": 71,
      "time": 28.286,
      "duration": 0.321,
      "velocity": 0.71,
      "hand": "right"
    },
    {
      "midi": 66,
      "time": 28.607,
      "duration": 0.107,
      "velocity": 0.71,
      "hand": "right"
    },
    {
      "midi": 70,
      "time": 28.607,
      "duration": 0.107,
      "velocity": 0.71,
      "hand": "right"
    },
    {
      "midi": 67,
      "time": 28.714,
      "duration": 0.214,
      "velocity": 0.71,
      "hand": "right"
    },
    {
      "midi": 71,
      "time": 28.714,
      "duration": 0.214,
      "velocity": 0.71,
      "hand": "right"
    },
    {
      "midi": 64,
      "time": 29.036,
      "duration": 0.107,
      "velocity": 0.71,
      "hand": "right"
    },
    {
      "midi": 73,
      "time": 29.036,
      "duration": 0.107,
      "velocity": 0.71,
      "hand": "right"
    },
    {
      "midi": 62,
      "time": 29.143,
      "duration": 0.214,
      "velocity": 0.71,
      "hand": "right"
    },
    {
      "midi": 66,
      "time": 29.143,
      "duration": 0.214,
      "velocity": 0.71,
      "hand": "right"
    },
    {
      "midi": 69,
      "time": 29.143,
      "duration": 0.214,
      "velocity": 0.71,
      "hand": "right"
    },
    {
      "midi": 74,
      "time": 29.143,
      "duration": 0.214,
      "velocity": 0.71,
      "hand": "right"
    },
    {
      "midi": 74,
      "time": 29.571,
      "duration": 0.214,
      "velocity": 0.71,
      "hand": "right"
    },
    {
      "midi": 62,
      "time": 30,
      "duration": 0.321,
      "velocity": 0.71,
      "hand": "right"
    },
    {
      "midi": 67,
      "time": 30,
      "duration": 0.321,
      "velocity": 0.71,
      "hand": "right"
    },
    {
      "midi": 71,
      "time": 30,
      "duration": 0.321,
      "velocity": 0.71,
      "hand": "right"
    },
    {
      "midi": 66,
      "time": 30.321,
      "duration": 0.107,
      "velocity": 0.71,
      "hand": "right"
    },
    {
      "midi": 70,
      "time": 30.321,
      "duration": 0.107,
      "velocity": 0.71,
      "hand": "right"
    },
    {
      "midi": 67,
      "time": 30.429,
      "duration": 0.214,
      "velocity": 0.71,
      "hand": "right"
    },
    {
      "midi": 71,
      "time": 30.429,
      "duration": 0.214,
      "velocity": 0.71,
      "hand": "right"
    },
    {
      "midi": 64,
      "time": 30.75,
      "duration": 0.107,
      "velocity": 0.71,
      "hand": "right"
    },
    {
      "midi": 73,
      "time": 30.75,
      "duration": 0.107,
      "velocity": 0.71,
      "hand": "right"
    },
    {
      "midi": 62,
      "time": 30.857,
      "duration": 0.214,
      "velocity": 0.71,
      "hand": "right"
    },
    {
      "midi": 66,
      "time": 30.857,
      "duration": 0.214,
      "velocity": 0.71,
      "hand": "right"
    },
    {
      "midi": 69,
      "time": 30.857,
      "duration": 0.214,
      "velocity": 0.71,
      "hand": "right"
    },
    {
      "midi": 74,
      "time": 30.857,
      "duration": 0.214,
      "velocity": 0.71,
      "hand": "right"
    },
    {
      "midi": 69,
      "time": 31.286,
      "duration": 0.214,
      "velocity": 0.71,
      "hand": "right"
    },
    {
      "midi": 73,
      "time": 31.286,
      "duration": 0.214,
      "velocity": 0.71,
      "hand": "right"
    },
    {
      "midi": 76,
      "time": 31.286,
      "duration": 0.214,
      "velocity": 0.71,
      "hand": "right"
    },
    {
      "midi": 74,
      "time": 31.714,
      "duration": 0.214,
      "velocity": 0.71,
      "hand": "right"
    },
    {
      "midi": 78,
      "time": 31.714,
      "duration": 0.214,
      "velocity": 0.71,
      "hand": "right"
    },
    {
      "midi": 74,
      "time": 32.143,
      "duration": 0.214,
      "velocity": 0.71,
      "hand": "right"
    },
    {
      "midi": 78,
      "time": 32.143,
      "duration": 0.214,
      "velocity": 0.71,
      "hand": "right"
    },
    {
      "midi": 62,
      "time": 32.571,
      "duration": 0.214,
      "velocity": 0.71,
      "hand": "right"
    },
    {
      "midi": 69,
      "time": 32.571,
      "duration": 0.214,
      "velocity": 0.71,
      "hand": "right"
    },
    {
      "midi": 76,
      "time": 32.571,
      "duration": 0.214,
      "velocity": 0.71,
      "hand": "right"
    },
    {
      "midi": 79,
      "time": 32.571,
      "duration": 0.214,
      "velocity": 0.71,
      "hand": "right"
    },
    {
      "midi": 74,
      "time": 32.893,
      "duration": 0.107,
      "velocity": 0.71,
      "hand": "right"
    },
    {
      "midi": 78,
      "time": 32.893,
      "duration": 0.107,
      "velocity": 0.71,
      "hand": "right"
    },
    {
      "midi": 73,
      "time": 33,
      "duration": 0.214,
      "velocity": 0.71,
      "hand": "right"
    },
    {
      "midi": 76,
      "time": 33,
      "duration": 0.214,
      "velocity": 0.71,
      "hand": "right"
    },
    {
      "midi": 71,
      "time": 33.321,
      "duration": 0.107,
      "velocity": 0.71,
      "hand": "right"
    },
    {
      "midi": 74,
      "time": 33.321,
      "duration": 0.107,
      "velocity": 0.71,
      "hand": "right"
    },
    {
      "midi": 69,
      "time": 33.429,
      "duration": 0.214,
      "velocity": 0.71,
      "hand": "right"
    },
    {
      "midi": 73,
      "time": 33.429,
      "duration": 0.214,
      "velocity": 0.71,
      "hand": "right"
    },
    {
      "midi": 76,
      "time": 33.429,
      "duration": 0.214,
      "velocity": 0.71,
      "hand": "right"
    },
    {
      "midi": 69,
      "time": 33.643,
      "duration": 0.107,
      "velocity": 0.71,
      "hand": "right"
    },
    {
      "midi": 69,
      "time": 33.75,
      "duration": 0.107,
      "velocity": 0.71,
      "hand": "right"
    },
    {
      "midi": 69,
      "time": 33.857,
      "duration": 0.214,
      "velocity": 0.71,
      "hand": "right"
    },
    {
      "midi": 69,
      "time": 34.071,
      "duration": 0.214,
      "velocity": 0.71,
      "hand": "right"
    },
    {
      "midi": 62,
      "time": 34.286,
      "duration": 0.214,
      "velocity": 0.71,
      "hand": "right"
    },
    {
      "midi": 66,
      "time": 34.286,
      "duration": 0.214,
      "velocity": 0.71,
      "hand": "right"
    },
    {
      "midi": 69,
      "time": 34.286,
      "duration": 0.214,
      "velocity": 0.71,
      "hand": "right"
    },
    {
      "midi": 74,
      "time": 34.286,
      "duration": 0.214,
      "velocity": 0.71,
      "hand": "right"
    },
    {
      "midi": 74,
      "time": 34.714,
      "duration": 0.214,
      "velocity": 0.71,
      "hand": "right"
    },
    {
      "midi": 62,
      "time": 35.143,
      "duration": 0.321,
      "velocity": 0.71,
      "hand": "right"
    },
    {
      "midi": 67,
      "time": 35.143,
      "duration": 0.321,
      "velocity": 0.71,
      "hand": "right"
    },
    {
      "midi": 71,
      "time": 35.143,
      "duration": 0.321,
      "velocity": 0.71,
      "hand": "right"
    },
    {
      "midi": 66,
      "time": 35.464,
      "duration": 0.107,
      "velocity": 0.71,
      "hand": "right"
    },
    {
      "midi": 70,
      "time": 35.464,
      "duration": 0.107,
      "velocity": 0.71,
      "hand": "right"
    },
    {
      "midi": 67,
      "time": 35.571,
      "duration": 0.214,
      "velocity": 0.71,
      "hand": "right"
    },
    {
      "midi": 71,
      "time": 35.571,
      "duration": 0.214,
      "velocity": 0.71,
      "hand": "right"
    },
    {
      "midi": 64,
      "time": 35.893,
      "duration": 0.107,
      "velocity": 0.71,
      "hand": "right"
    },
    {
      "midi": 73,
      "time": 35.893,
      "duration": 0.107,
      "velocity": 0.71,
      "hand": "right"
    },
    {
      "midi": 62,
      "time": 36,
      "duration": 0.214,
      "velocity": 0.71,
      "hand": "right"
    },
    {
      "midi": 66,
      "time": 36,
      "duration": 0.214,
      "velocity": 0.71,
      "hand": "right"
    },
    {
      "midi": 74,
      "time": 36,
      "duration": 0.214,
      "velocity": 0.71,
      "hand": "right"
    },
    {
      "midi": 74,
      "time": 36.429,
      "duration": 0.214,
      "velocity": 0.71,
      "hand": "right"
    },
    {
      "midi": 62,
      "time": 36.857,
      "duration": 0.321,
      "velocity": 0.71,
      "hand": "right"
    },
    {
      "midi": 67,
      "time": 36.857,
      "duration": 0.321,
      "velocity": 0.71,
      "hand": "right"
    },
    {
      "midi": 71,
      "time": 36.857,
      "duration": 0.321,
      "velocity": 0.71,
      "hand": "right"
    },
    {
      "midi": 66,
      "time": 37.179,
      "duration": 0.107,
      "velocity": 0.71,
      "hand": "right"
    },
    {
      "midi": 70,
      "time": 37.179,
      "duration": 0.107,
      "velocity": 0.71,
      "hand": "right"
    },
    {
      "midi": 67,
      "time": 37.286,
      "duration": 0.214,
      "velocity": 0.71,
      "hand": "right"
    },
    {
      "midi": 71,
      "time": 37.286,
      "duration": 0.214,
      "velocity": 0.71,
      "hand": "right"
    },
    {
      "midi": 64,
      "time": 37.607,
      "duration": 0.107,
      "velocity": 0.71,
      "hand": "right"
    },
    {
      "midi": 73,
      "time": 37.607,
      "duration": 0.107,
      "velocity": 0.71,
      "hand": "right"
    },
    {
      "midi": 62,
      "time": 37.714,
      "duration": 0.214,
      "velocity": 0.71,
      "hand": "right"
    },
    {
      "midi": 66,
      "time": 37.714,
      "duration": 0.214,
      "velocity": 0.71,
      "hand": "right"
    },
    {
      "midi": 69,
      "time": 37.714,
      "duration": 0.214,
      "velocity": 0.71,
      "hand": "right"
    },
    {
      "midi": 74,
      "time": 37.714,
      "duration": 0.214,
      "velocity": 0.71,
      "hand": "right"
    },
    {
      "midi": 69,
      "time": 38.143,
      "duration": 0.214,
      "velocity": 0.71,
      "hand": "right"
    },
    {
      "midi": 73,
      "time": 38.143,
      "duration": 0.214,
      "velocity": 0.71,
      "hand": "right"
    },
    {
      "midi": 76,
      "time": 38.143,
      "duration": 0.214,
      "velocity": 0.71,
      "hand": "right"
    },
    {
      "midi": 74,
      "time": 38.571,
      "duration": 0.214,
      "velocity": 0.71,
      "hand": "right"
    },
    {
      "midi": 78,
      "time": 38.571,
      "duration": 0.214,
      "velocity": 0.71,
      "hand": "right"
    },
    {
      "midi": 71,
      "time": 39,
      "duration": 0.214,
      "velocity": 0.71,
      "hand": "right"
    },
    {
      "midi": 74,
      "time": 39,
      "duration": 0.214,
      "velocity": 0.71,
      "hand": "right"
    },
    {
      "midi": 78,
      "time": 39,
      "duration": 0.214,
      "velocity": 0.71,
      "hand": "right"
    },
    {
      "midi": 67,
      "time": 39.429,
      "duration": 0.214,
      "velocity": 0.71,
      "hand": "right"
    },
    {
      "midi": 71,
      "time": 39.429,
      "duration": 0.214,
      "velocity": 0.71,
      "hand": "right"
    },
    {
      "midi": 76,
      "time": 39.429,
      "duration": 0.214,
      "velocity": 0.71,
      "hand": "right"
    },
    {
      "midi": 75,
      "time": 39.75,
      "duration": 0.107,
      "velocity": 0.71,
      "hand": "right"
    },
    {
      "midi": 69,
      "time": 39.857,
      "duration": 0.214,
      "velocity": 0.71,
      "hand": "right"
    },
    {
      "midi": 73,
      "time": 39.857,
      "duration": 0.214,
      "velocity": 0.71,
      "hand": "right"
    },
    {
      "midi": 76,
      "time": 39.857,
      "duration": 0.214,
      "velocity": 0.71,
      "hand": "right"
    },
    {
      "midi": 78,
      "time": 40.179,
      "duration": 0.107,
      "velocity": 0.71,
      "hand": "right"
    },
    {
      "midi": 62,
      "time": 40.286,
      "duration": 0.214,
      "velocity": 0.71,
      "hand": "right"
    },
    {
      "midi": 74,
      "time": 40.286,
      "duration": 0.214,
      "velocity": 0.71,
      "hand": "right"
    }
  ],
  "arrangements": {
    "easy": [
      {
        "midi": 74,
        "time": 0,
        "duration": 0.214,
        "velocity": 0.71,
        "hand": "right"
      },
      {
        "midi": 74,
        "time": 0.429,
        "duration": 0.214,
        "velocity": 0.71,
        "hand": "right"
      },
      {
        "midi": 71,
        "time": 0.857,
        "duration": 0.321,
        "velocity": 0.71,
        "hand": "right"
      },
      {
        "midi": 70,
        "time": 1.179,
        "duration": 0.214,
        "velocity": 0.71,
        "hand": "right"
      },
      {
        "midi": 73,
        "time": 1.607,
        "duration": 0.214,
        "velocity": 0.71,
        "hand": "right"
      },
      {
        "midi": 74,
        "time": 2.143,
        "duration": 0.214,
        "velocity": 0.71,
        "hand": "right"
      },
      {
        "midi": 71,
        "time": 2.571,
        "duration": 0.321,
        "velocity": 0.71,
        "hand": "right"
      },
      {
        "midi": 70,
        "time": 2.893,
        "duration": 0.214,
        "velocity": 0.71,
        "hand": "right"
      },
      {
        "midi": 73,
        "time": 3.321,
        "duration": 0.214,
        "velocity": 0.71,
        "hand": "right"
      },
      {
        "midi": 76,
        "time": 3.857,
        "duration": 0.214,
        "velocity": 0.71,
        "hand": "right"
      },
      {
        "midi": 78,
        "time": 4.286,
        "duration": 0.214,
        "velocity": 0.71,
        "hand": "right"
      },
      {
        "midi": 78,
        "time": 4.714,
        "duration": 0.214,
        "velocity": 0.71,
        "hand": "right"
      },
      {
        "midi": 79,
        "time": 5.143,
        "duration": 0.214,
        "velocity": 0.71,
        "hand": "right"
      },
      {
        "midi": 78,
        "time": 5.464,
        "duration": 0.214,
        "velocity": 0.71,
        "hand": "right"
      },
      {
        "midi": 74,
        "time": 5.893,
        "duration": 0.214,
        "velocity": 0.71,
        "hand": "right"
      },
      {
        "midi": 69,
        "time": 6.214,
        "duration": 0.214,
        "velocity": 0.71,
        "hand": "right"
      },
      {
        "midi": 74,
        "time": 6.857,
        "duration": 0.214,
        "velocity": 0.71,
        "hand": "right"
      },
      {
        "midi": 74,
        "time": 7.286,
        "duration": 0.214,
        "velocity": 0.71,
        "hand": "right"
      },
      {
        "midi": 71,
        "time": 7.714,
        "duration": 0.321,
        "velocity": 0.71,
        "hand": "right"
      },
      {
        "midi": 70,
        "time": 8.036,
        "duration": 0.214,
        "velocity": 0.71,
        "hand": "right"
      },
      {
        "midi": 73,
        "time": 8.464,
        "duration": 0.214,
        "velocity": 0.71,
        "hand": "right"
      },
      {
        "midi": 74,
        "time": 9,
        "duration": 0.214,
        "velocity": 0.71,
        "hand": "right"
      },
      {
        "midi": 71,
        "time": 9.429,
        "duration": 0.321,
        "velocity": 0.71,
        "hand": "right"
      },
      {
        "midi": 70,
        "time": 9.75,
        "duration": 0.214,
        "velocity": 0.71,
        "hand": "right"
      },
      {
        "midi": 73,
        "time": 10.179,
        "duration": 0.214,
        "velocity": 0.71,
        "hand": "right"
      },
      {
        "midi": 76,
        "time": 10.714,
        "duration": 0.214,
        "velocity": 0.71,
        "hand": "right"
      },
      {
        "midi": 78,
        "time": 11.143,
        "duration": 0.214,
        "velocity": 0.71,
        "hand": "right"
      },
      {
        "midi": 78,
        "time": 11.571,
        "duration": 0.214,
        "velocity": 0.71,
        "hand": "right"
      },
      {
        "midi": 76,
        "time": 12,
        "duration": 0.214,
        "velocity": 0.71,
        "hand": "right"
      },
      {
        "midi": 74,
        "time": 12.321,
        "duration": 0.214,
        "velocity": 0.71,
        "hand": "right"
      },
      {
        "midi": 71,
        "time": 12.75,
        "duration": 0.214,
        "velocity": 0.71,
        "hand": "right"
      },
      {
        "midi": 69,
        "time": 13.714,
        "duration": 0.214,
        "velocity": 0.71,
        "hand": "right"
      },
      {
        "midi": 69,
        "time": 14.143,
        "duration": 0.214,
        "velocity": 0.71,
        "hand": "right"
      },
      {
        "midi": 70,
        "time": 14.571,
        "duration": 0.321,
        "velocity": 0.71,
        "hand": "right"
      },
      {
        "midi": 69,
        "time": 14.893,
        "duration": 0.214,
        "velocity": 0.71,
        "hand": "right"
      },
      {
        "midi": 68,
        "time": 15.321,
        "duration": 0.214,
        "velocity": 0.71,
        "hand": "right"
      },
      {
        "midi": 69,
        "time": 15.857,
        "duration": 0.214,
        "velocity": 0.71,
        "hand": "right"
      },
      {
        "midi": 70,
        "time": 16.286,
        "duration": 0.321,
        "velocity": 0.71,
        "hand": "right"
      },
      {
        "midi": 69,
        "time": 16.607,
        "duration": 0.214,
        "velocity": 0.71,
        "hand": "right"
      },
      {
        "midi": 68,
        "time": 17.036,
        "duration": 0.214,
        "velocity": 0.71,
        "hand": "right"
      },
      {
        "midi": 71,
        "time": 17.571,
        "duration": 0.214,
        "velocity": 0.71,
        "hand": "right"
      },
      {
        "midi": 73,
        "time": 18,
        "duration": 0.214,
        "velocity": 0.71,
        "hand": "right"
      },
      {
        "midi": 73,
        "time": 18.429,
        "duration": 0.214,
        "velocity": 0.71,
        "hand": "right"
      },
      {
        "midi": 74,
        "time": 18.857,
        "duration": 0.214,
        "velocity": 0.71,
        "hand": "right"
      },
      {
        "midi": 73,
        "time": 19.179,
        "duration": 0.214,
        "velocity": 0.71,
        "hand": "right"
      },
      {
        "midi": 69,
        "time": 19.607,
        "duration": 0.214,
        "velocity": 0.71,
        "hand": "right"
      },
      {
        "midi": 62,
        "time": 20.036,
        "duration": 0.214,
        "velocity": 0.71,
        "hand": "right"
      },
      {
        "midi": 69,
        "time": 20.571,
        "duration": 0.214,
        "velocity": 0.71,
        "hand": "right"
      },
      {
        "midi": 69,
        "time": 21,
        "duration": 0.214,
        "velocity": 0.71,
        "hand": "right"
      },
      {
        "midi": 70,
        "time": 21.429,
        "duration": 0.321,
        "velocity": 0.71,
        "hand": "right"
      },
      {
        "midi": 69,
        "time": 21.75,
        "duration": 0.214,
        "velocity": 0.71,
        "hand": "right"
      },
      {
        "midi": 68,
        "time": 22.179,
        "duration": 0.214,
        "velocity": 0.71,
        "hand": "right"
      },
      {
        "midi": 69,
        "time": 22.714,
        "duration": 0.214,
        "velocity": 0.71,
        "hand": "right"
      },
      {
        "midi": 70,
        "time": 23.143,
        "duration": 0.321,
        "velocity": 0.71,
        "hand": "right"
      },
      {
        "midi": 69,
        "time": 23.464,
        "duration": 0.214,
        "velocity": 0.71,
        "hand": "right"
      },
      {
        "midi": 68,
        "time": 23.893,
        "duration": 0.214,
        "velocity": 0.71,
        "hand": "right"
      },
      {
        "midi": 71,
        "time": 24.429,
        "duration": 0.214,
        "velocity": 0.71,
        "hand": "right"
      },
      {
        "midi": 73,
        "time": 24.857,
        "duration": 0.214,
        "velocity": 0.71,
        "hand": "right"
      },
      {
        "midi": 73,
        "time": 25.286,
        "duration": 0.214,
        "velocity": 0.71,
        "hand": "right"
      },
      {
        "midi": 74,
        "time": 25.714,
        "duration": 0.214,
        "velocity": 0.71,
        "hand": "right"
      },
      {
        "midi": 73,
        "time": 26.036,
        "duration": 0.214,
        "velocity": 0.71,
        "hand": "right"
      },
      {
        "midi": 73,
        "time": 26.464,
        "duration": 0.214,
        "velocity": 0.71,
        "hand": "right"
      },
      {
        "midi": 61,
        "time": 27.321,
        "duration": 0.214,
        "velocity": 0.71,
        "hand": "right"
      },
      {
        "midi": 74,
        "time": 27.857,
        "duration": 0.214,
        "velocity": 0.71,
        "hand": "right"
      },
      {
        "midi": 71,
        "time": 28.286,
        "duration": 0.321,
        "velocity": 0.71,
        "hand": "right"
      },
      {
        "midi": 70,
        "time": 28.607,
        "duration": 0.214,
        "velocity": 0.71,
        "hand": "right"
      },
      {
        "midi": 73,
        "time": 29.036,
        "duration": 0.214,
        "velocity": 0.71,
        "hand": "right"
      },
      {
        "midi": 74,
        "time": 29.571,
        "duration": 0.214,
        "velocity": 0.71,
        "hand": "right"
      },
      {
        "midi": 71,
        "time": 30,
        "duration": 0.321,
        "velocity": 0.71,
        "hand": "right"
      },
      {
        "midi": 70,
        "time": 30.321,
        "duration": 0.214,
        "velocity": 0.71,
        "hand": "right"
      },
      {
        "midi": 73,
        "time": 30.75,
        "duration": 0.214,
        "velocity": 0.71,
        "hand": "right"
      },
      {
        "midi": 76,
        "time": 31.286,
        "duration": 0.214,
        "velocity": 0.71,
        "hand": "right"
      },
      {
        "midi": 78,
        "time": 31.714,
        "duration": 0.214,
        "velocity": 0.71,
        "hand": "right"
      },
      {
        "midi": 78,
        "time": 32.143,
        "duration": 0.214,
        "velocity": 0.71,
        "hand": "right"
      },
      {
        "midi": 79,
        "time": 32.571,
        "duration": 0.214,
        "velocity": 0.71,
        "hand": "right"
      },
      {
        "midi": 78,
        "time": 32.893,
        "duration": 0.214,
        "velocity": 0.71,
        "hand": "right"
      },
      {
        "midi": 74,
        "time": 33.321,
        "duration": 0.214,
        "velocity": 0.71,
        "hand": "right"
      },
      {
        "midi": 69,
        "time": 33.643,
        "duration": 0.214,
        "velocity": 0.71,
        "hand": "right"
      },
      {
        "midi": 69,
        "time": 34.071,
        "duration": 0.214,
        "velocity": 0.71,
        "hand": "right"
      },
      {
        "midi": 74,
        "time": 34.286,
        "duration": 0.214,
        "velocity": 0.71,
        "hand": "right"
      },
      {
        "midi": 74,
        "time": 34.714,
        "duration": 0.214,
        "velocity": 0.71,
        "hand": "right"
      },
      {
        "midi": 71,
        "time": 35.143,
        "duration": 0.321,
        "velocity": 0.71,
        "hand": "right"
      },
      {
        "midi": 70,
        "time": 35.464,
        "duration": 0.214,
        "velocity": 0.71,
        "hand": "right"
      },
      {
        "midi": 73,
        "time": 35.893,
        "duration": 0.214,
        "velocity": 0.71,
        "hand": "right"
      },
      {
        "midi": 74,
        "time": 36.429,
        "duration": 0.214,
        "velocity": 0.71,
        "hand": "right"
      },
      {
        "midi": 71,
        "time": 36.857,
        "duration": 0.321,
        "velocity": 0.71,
        "hand": "right"
      },
      {
        "midi": 70,
        "time": 37.179,
        "duration": 0.214,
        "velocity": 0.71,
        "hand": "right"
      },
      {
        "midi": 73,
        "time": 37.607,
        "duration": 0.214,
        "velocity": 0.71,
        "hand": "right"
      },
      {
        "midi": 76,
        "time": 38.143,
        "duration": 0.214,
        "velocity": 0.71,
        "hand": "right"
      },
      {
        "midi": 78,
        "time": 38.571,
        "duration": 0.214,
        "velocity": 0.71,
        "hand": "right"
      },
      {
        "midi": 78,
        "time": 39,
        "duration": 0.214,
        "velocity": 0.71,
        "hand": "right"
      },
      {
        "midi": 76,
        "time": 39.429,
        "duration": 0.214,
        "velocity": 0.71,
        "hand": "right"
      },
      {
        "midi": 75,
        "time": 39.75,
        "duration": 0.214,
        "velocity": 0.71,
        "hand": "right"
      },
      {
        "midi": 78,
        "time": 40.179,
        "duration": 0.214,
        "velocity": 0.71,
        "hand": "right"
      }
    ],
    "medium": [
      {
        "midi": 62,
        "time": 0,
        "duration": 0.214,
        "velocity": 0.71,
        "hand": "right"
      },
      {
        "midi": 69,
        "time": 0,
        "duration": 0.214,
        "velocity": 0.71,
        "hand": "right"
      },
      {
        "midi": 74,
        "time": 0,
        "duration": 0.214,
        "velocity": 0.71,
        "hand": "right"
      },
      {
        "midi": 74,
        "time": 0.429,
        "duration": 0.214,
        "velocity": 0.71,
        "hand": "right"
      },
      {
        "midi": 62,
        "time": 0.857,
        "duration": 0.321,
        "velocity": 0.71,
        "hand": "right"
      },
      {
        "midi": 67,
        "time": 0.857,
        "duration": 0.321,
        "velocity": 0.71,
        "hand": "right"
      },
      {
        "midi": 71,
        "time": 0.857,
        "duration": 0.321,
        "velocity": 0.71,
        "hand": "right"
      },
      {
        "midi": 66,
        "time": 1.179,
        "duration": 0.107,
        "velocity": 0.71,
        "hand": "right"
      },
      {
        "midi": 70,
        "time": 1.179,
        "duration": 0.107,
        "velocity": 0.71,
        "hand": "right"
      },
      {
        "midi": 67,
        "time": 1.286,
        "duration": 0.214,
        "velocity": 0.71,
        "hand": "right"
      },
      {
        "midi": 71,
        "time": 1.286,
        "duration": 0.214,
        "velocity": 0.71,
        "hand": "right"
      },
      {
        "midi": 64,
        "time": 1.607,
        "duration": 0.107,
        "velocity": 0.71,
        "hand": "right"
      },
      {
        "midi": 73,
        "time": 1.607,
        "duration": 0.107,
        "velocity": 0.71,
        "hand": "right"
      },
      {
        "midi": 62,
        "time": 1.714,
        "duration": 0.214,
        "velocity": 0.71,
        "hand": "right"
      },
      {
        "midi": 69,
        "time": 1.714,
        "duration": 0.214,
        "velocity": 0.71,
        "hand": "right"
      },
      {
        "midi": 74,
        "time": 1.714,
        "duration": 0.214,
        "velocity": 0.71,
        "hand": "right"
      },
      {
        "midi": 74,
        "time": 2.143,
        "duration": 0.214,
        "velocity": 0.71,
        "hand": "right"
      },
      {
        "midi": 62,
        "time": 2.571,
        "duration": 0.321,
        "velocity": 0.71,
        "hand": "right"
      },
      {
        "midi": 67,
        "time": 2.571,
        "duration": 0.321,
        "velocity": 0.71,
        "hand": "right"
      },
      {
        "midi": 71,
        "time": 2.571,
        "duration": 0.321,
        "velocity": 0.71,
        "hand": "right"
      },
      {
        "midi": 66,
        "time": 2.893,
        "duration": 0.107,
        "velocity": 0.71,
        "hand": "right"
      },
      {
        "midi": 70,
        "time": 2.893,
        "duration": 0.107,
        "velocity": 0.71,
        "hand": "right"
      },
      {
        "midi": 67,
        "time": 3,
        "duration": 0.214,
        "velocity": 0.71,
        "hand": "right"
      },
      {
        "midi": 71,
        "time": 3,
        "duration": 0.214,
        "velocity": 0.71,
        "hand": "right"
      },
      {
        "midi": 64,
        "time": 3.321,
        "duration": 0.107,
        "velocity": 0.71,
        "hand": "right"
      },
      {
        "midi": 73,
        "time": 3.321,
        "duration": 0.107,
        "velocity": 0.71,
        "hand": "right"
      },
      {
        "midi": 62,
        "time": 3.429,
        "duration": 0.214,
        "velocity": 0.71,
        "hand": "right"
      },
      {
        "midi": 69,
        "time": 3.429,
        "duration": 0.214,
        "velocity": 0.71,
        "hand": "right"
      },
      {
        "midi": 74,
        "time": 3.429,
        "duration": 0.214,
        "velocity": 0.71,
        "hand": "right"
      },
      {
        "midi": 69,
        "time": 3.857,
        "duration": 0.214,
        "velocity": 0.71,
        "hand": "right"
      },
      {
        "midi": 73,
        "time": 3.857,
        "duration": 0.214,
        "velocity": 0.71,
        "hand": "right"
      },
      {
        "midi": 76,
        "time": 3.857,
        "duration": 0.214,
        "velocity": 0.71,
        "hand": "right"
      },
      {
        "midi": 74,
        "time": 4.286,
        "duration": 0.214,
        "velocity": 0.71,
        "hand": "right"
      },
      {
        "midi": 78,
        "time": 4.286,
        "duration": 0.214,
        "velocity": 0.71,
        "hand": "right"
      },
      {
        "midi": 74,
        "time": 4.714,
        "duration": 0.214,
        "velocity": 0.71,
        "hand": "right"
      },
      {
        "midi": 78,
        "time": 4.714,
        "duration": 0.214,
        "velocity": 0.71,
        "hand": "right"
      },
      {
        "midi": 62,
        "time": 5.143,
        "duration": 0.214,
        "velocity": 0.71,
        "hand": "right"
      },
      {
        "midi": 76,
        "time": 5.143,
        "duration": 0.214,
        "velocity": 0.71,
        "hand": "right"
      },
      {
        "midi": 79,
        "time": 5.143,
        "duration": 0.214,
        "velocity": 0.71,
        "hand": "right"
      },
      {
        "midi": 74,
        "time": 5.464,
        "duration": 0.107,
        "velocity": 0.71,
        "hand": "right"
      },
      {
        "midi": 78,
        "time": 5.464,
        "duration": 0.107,
        "velocity": 0.71,
        "hand": "right"
      },
      {
        "midi": 73,
        "time": 5.571,
        "duration": 0.214,
        "velocity": 0.71,
        "hand": "right"
      },
      {
        "midi": 76,
        "time": 5.571,
        "duration": 0.214,
        "velocity": 0.71,
        "hand": "right"
      },
      {
        "midi": 71,
        "time": 5.893,
        "duration": 0.107,
        "velocity": 0.71,
        "hand": "right"
      },
      {
        "midi": 74,
        "time": 5.893,
        "duration": 0.107,
        "velocity": 0.71,
        "hand": "right"
      },
      {
        "midi": 69,
        "time": 6,
        "duration": 0.214,
        "velocity": 0.71,
        "hand": "right"
      },
      {
        "midi": 73,
        "time": 6,
        "duration": 0.214,
        "velocity": 0.71,
        "hand": "right"
      },
      {
        "midi": 76,
        "time": 6,
        "duration": 0.214,
        "velocity": 0.71,
        "hand": "right"
      },
      {
        "midi": 69,
        "time": 6.214,
        "duration": 0.107,
        "velocity": 0.71,
        "hand": "right"
      },
      {
        "midi": 69,
        "time": 6.321,
        "duration": 0.107,
        "velocity": 0.71,
        "hand": "right"
      },
      {
        "midi": 69,
        "time": 6.429,
        "duration": 0.214,
        "velocity": 0.71,
        "hand": "right"
      },
      {
        "midi": 69,
        "time": 6.643,
        "duration": 0.214,
        "velocity": 0.71,
        "hand": "right"
      },
      {
        "midi": 62,
        "time": 6.857,
        "duration": 0.214,
        "velocity": 0.71,
        "hand": "right"
      },
      {
        "midi": 69,
        "time": 6.857,
        "duration": 0.214,
        "velocity": 0.71,
        "hand": "right"
      },
      {
        "midi": 74,
        "time": 6.857,
        "duration": 0.214,
        "velocity": 0.71,
        "hand": "right"
      },
      {
        "midi": 74,
        "time": 7.286,
        "duration": 0.214,
        "velocity": 0.71,
        "hand": "right"
      },
      {
        "midi": 62,
        "time": 7.714,
        "duration": 0.321,
        "velocity": 0.71,
        "hand": "right"
      },
      {
        "midi": 67,
        "time": 7.714,
        "duration": 0.321,
        "velocity": 0.71,
        "hand": "right"
      },
      {
        "midi": 71,
        "time": 7.714,
        "duration": 0.321,
        "velocity": 0.71,
        "hand": "right"
      },
      {
        "midi": 66,
        "time": 8.036,
        "duration": 0.107,
        "velocity": 0.71,
        "hand": "right"
      },
      {
        "midi": 70,
        "time": 8.036,
        "duration": 0.107,
        "velocity": 0.71,
        "hand": "right"
      },
      {
        "midi": 67,
        "time": 8.143,
        "duration": 0.214,
        "velocity": 0.71,
        "hand": "right"
      },
      {
        "midi": 71,
        "time": 8.143,
        "duration": 0.214,
        "velocity": 0.71,
        "hand": "right"
      },
      {
        "midi": 64,
        "time": 8.464,
        "duration": 0.107,
        "velocity": 0.71,
        "hand": "right"
      },
      {
        "midi": 73,
        "time": 8.464,
        "duration": 0.107,
        "velocity": 0.71,
        "hand": "right"
      },
      {
        "midi": 62,
        "time": 8.571,
        "duration": 0.214,
        "velocity": 0.71,
        "hand": "right"
      },
      {
        "midi": 69,
        "time": 8.571,
        "duration": 0.214,
        "velocity": 0.71,
        "hand": "right"
      },
      {
        "midi": 74,
        "time": 8.571,
        "duration": 0.214,
        "velocity": 0.71,
        "hand": "right"
      },
      {
        "midi": 74,
        "time": 9,
        "duration": 0.214,
        "velocity": 0.71,
        "hand": "right"
      },
      {
        "midi": 62,
        "time": 9.429,
        "duration": 0.321,
        "velocity": 0.71,
        "hand": "right"
      },
      {
        "midi": 67,
        "time": 9.429,
        "duration": 0.321,
        "velocity": 0.71,
        "hand": "right"
      },
      {
        "midi": 71,
        "time": 9.429,
        "duration": 0.321,
        "velocity": 0.71,
        "hand": "right"
      },
      {
        "midi": 66,
        "time": 9.75,
        "duration": 0.107,
        "velocity": 0.71,
        "hand": "right"
      },
      {
        "midi": 70,
        "time": 9.75,
        "duration": 0.107,
        "velocity": 0.71,
        "hand": "right"
      },
      {
        "midi": 67,
        "time": 9.857,
        "duration": 0.214,
        "velocity": 0.71,
        "hand": "right"
      },
      {
        "midi": 71,
        "time": 9.857,
        "duration": 0.214,
        "velocity": 0.71,
        "hand": "right"
      },
      {
        "midi": 64,
        "time": 10.179,
        "duration": 0.107,
        "velocity": 0.71,
        "hand": "right"
      },
      {
        "midi": 73,
        "time": 10.179,
        "duration": 0.107,
        "velocity": 0.71,
        "hand": "right"
      },
      {
        "midi": 62,
        "time": 10.286,
        "duration": 0.214,
        "velocity": 0.71,
        "hand": "right"
      },
      {
        "midi": 69,
        "time": 10.286,
        "duration": 0.214,
        "velocity": 0.71,
        "hand": "right"
      },
      {
        "midi": 74,
        "time": 10.286,
        "duration": 0.214,
        "velocity": 0.71,
        "hand": "right"
      },
      {
        "midi": 69,
        "time": 10.714,
        "duration": 0.214,
        "velocity": 0.71,
        "hand": "right"
      },
      {
        "midi": 73,
        "time": 10.714,
        "duration": 0.214,
        "velocity": 0.71,
        "hand": "right"
      },
      {
        "midi": 76,
        "time": 10.714,
        "duration": 0.214,
        "velocity": 0.71,
        "hand": "right"
      },
      {
        "midi": 74,
        "time": 11.143,
        "duration": 0.214,
        "velocity": 0.71,
        "hand": "right"
      },
      {
        "midi": 78,
        "time": 11.143,
        "duration": 0.214,
        "velocity": 0.71,
        "hand": "right"
      },
      {
        "midi": 62,
        "time": 11.571,
        "duration": 0.214,
        "velocity": 0.71,
        "hand": "right"
      },
      {
        "midi": 74,
        "time": 11.571,
        "duration": 0.214,
        "velocity": 0.71,
        "hand": "right"
      },
      {
        "midi": 78,
        "time": 11.571,
        "duration": 0.214,
        "velocity": 0.71,
        "hand": "right"
      },
      {
        "midi": 64,
        "time": 12,
        "duration": 0.857,
        "velocity": 0.71,
        "hand": "right"
      },
      {
        "midi": 73,
        "time": 12,
        "duration": 0.214,
        "velocity": 0.71,
        "hand": "right"
      },
      {
        "midi": 76,
        "time": 12,
        "duration": 0.214,
        "velocity": 0.71,
        "hand": "right"
      },
      {
        "midi": 71,
        "time": 12.321,
        "duration": 0.107,
        "velocity": 0.71,
        "hand": "right"
      },
      {
        "midi": 74,
        "time": 12.321,
        "duration": 0.107,
        "velocity": 0.71,
        "hand": "right"
      },
      {
        "midi": 69,
        "time": 12.429,
        "duration": 0.214,
        "velocity": 0.71,
        "hand": "right"
      },
      {
        "midi": 73,
        "time": 12.429,
        "duration": 0.214,
        "velocity": 0.71,
        "hand": "right"
      },
      {
        "midi": 68,
        "time": 12.75,
        "duration": 0.107,
        "velocity": 0.71,
        "hand": "right"
      },
      {
        "midi": 71,
        "time": 12.75,
        "duration": 0.107,
        "velocity": 0.71,
        "hand": "right"
      },
      {
        "midi": 57,
        "time": 12.857,
        "duration": 0.214,
        "velocity": 0.71,
        "hand": "left"
      },
      {
        "midi": 69,
        "time": 12.857,
        "duration": 0.214,
        "velocity": 0.71,
        "hand": "right"
      },
      {
        "midi": 57,
        "time": 13.071,
        "duration": 0.107,
        "velocity": 0.71,
        "hand": "left"
      },
      {
        "midi": 57,
        "time": 13.179,
        "duration": 0.107,
        "velocity": 0.71,
        "hand": "left"
      },
      {
        "midi": 57,
        "time": 13.286,
        "duration": 0.214,
        "velocity": 0.71,
        "hand": "left"
      },
      {
        "midi": 57,
        "time": 13.5,
        "duration": 0.214,
        "velocity": 0.71,
        "hand": "left"
      },
      {
        "midi": 57,
        "time": 13.714,
        "duration": 0.214,
        "velocity": 0.71,
        "hand": "left"
      },
      {
        "midi": 64,
        "time": 13.714,
        "duration": 0.214,
        "velocity": 0.71,
        "hand": "right"
      },
      {
        "midi": 69,
        "time": 13.714,
        "duration": 0.214,
        "velocity": 0.71,
        "hand": "right"
      },
      {
        "midi": 69,
        "time": 14.143,
        "duration": 0.214,
        "velocity": 0.71,
        "hand": "right"
      },
      {
        "midi": 57,
        "time": 14.571,
        "duration": 0.857,
        "velocity": 0.71,
        "hand": "left"
      },
      {
        "midi": 65,
        "time": 14.571,
        "duration": 0.857,
        "velocity": 0.71,
        "hand": "right"
      },
      {
        "midi": 70,
        "time": 14.571,
        "duration": 0.321,
        "velocity": 0.71,
        "hand": "right"
      },
      {
        "midi": 69,
        "time": 14.893,
        "duration": 0.107,
        "velocity": 0.71,
        "hand": "right"
      },
      {
        "midi": 70,
        "time": 15,
        "duration": 0.214,
        "velocity": 0.71,
        "hand": "right"
      },
      {
        "midi": 68,
        "time": 15.321,
        "duration": 0.107,
        "velocity": 0.71,
        "hand": "right"
      },
      {
        "midi": 57,
        "time": 15.429,
        "duration": 0.214,
        "velocity": 0.71,
        "hand": "left"
      },
      {
        "midi": 64,
        "time": 15.429,
        "duration": 0.214,
        "velocity": 0.71,
        "hand": "right"
      },
      {
        "midi": 69,
        "time": 15.429,
        "duration": 0.214,
        "velocity": 0.71,
        "hand": "right"
      },
      {
        "midi": 69,
        "time": 15.857,
        "duration": 0.214,
        "velocity": 0.71,
        "hand": "right"
      },
      {
        "midi": 57,
        "time": 16.286,
        "duration": 0.857,
        "velocity": 0.71,
        "hand": "left"
      },
      {
        "midi": 65,
        "time": 16.286,
        "duration": 0.857,
        "velocity": 0.71,
        "hand": "right"
      },
      {
        "midi": 70,
        "time": 16.286,
        "duration": 0.321,
        "velocity": 0.71,
        "hand": "right"
      },
      {
        "midi": 69,
        "time": 16.607,
        "duration": 0.107,
        "velocity": 0.71,
        "hand": "right"
      },
      {
        "midi": 70,
        "time": 16.714,
        "duration": 0.214,
        "velocity": 0.71,
        "hand": "right"
      },
      {
        "midi": 68,
        "time": 17.036,
        "duration": 0.107,
        "velocity": 0.71,
        "hand": "right"
      },
      {
        "midi": 57,
        "time": 17.143,
        "duration": 0.214,
        "velocity": 0.71,
        "hand": "left"
      },
      {
        "midi": 64,
        "time": 17.143,
        "duration": 0.214,
        "velocity": 0.71,
        "hand": "right"
      },
      {
        "midi": 69,
        "time": 17.143,
        "duration": 0.214,
        "velocity": 0.71,
        "hand": "right"
      },
      {
        "midi": 64,
        "time": 17.571,
        "duration": 0.214,
        "velocity": 0.71,
        "hand": "right"
      },
      {
        "midi": 68,
        "time": 17.571,
        "duration": 0.214,
        "velocity": 0.71,
        "hand": "right"
      },
      {
        "midi": 71,
        "time": 17.571,
        "duration": 0.214,
        "velocity": 0.71,
        "hand": "right"
      },
      {
        "midi": 61,
        "time": 18,
        "duration": 0.214,
        "velocity": 0.71,
        "hand": "right"
      },
      {
        "midi": 68,
        "time": 18,
        "duration": 0.214,
        "velocity": 0.71,
        "hand": "right"
      },
      {
        "midi": 73,
        "time": 18,
        "duration": 0.214,
        "velocity": 0.71,
        "hand": "right"
      },
      {
        "midi": 66,
        "time": 18.429,
        "duration": 0.214,
        "velocity": 0.71,
        "hand": "right"
      },
      {
        "midi": 69,
        "time": 18.429,
        "duration": 0.214,
        "velocity": 0.71,
        "hand": "right"
      },
      {
        "midi": 73,
        "time": 18.429,
        "duration": 0.214,
        "velocity": 0.71,
        "hand": "right"
      },
      {
        "midi": 59,
        "time": 18.857,
        "duration": 0.214,
        "velocity": 0.71,
        "hand": "left"
      },
      {
        "midi": 71,
        "time": 18.857,
        "duration": 0.214,
        "velocity": 0.71,
        "hand": "right"
      },
      {
        "midi": 74,
        "time": 18.857,
        "duration": 0.214,
        "velocity": 0.71,
        "hand": "right"
      },
      {
        "midi": 73,
        "time": 19.179,
        "duration": 0.107,
        "velocity": 0.71,
        "hand": "right"
      },
      {
        "midi": 71,
        "time": 19.286,
        "duration": 0.214,
        "velocity": 0.71,
        "hand": "right"
      },
      {
        "midi": 69,
        "time": 19.607,
        "duration": 0.107,
        "velocity": 0.71,
        "hand": "right"
      },
      {
        "midi": 64,
        "time": 19.714,
        "duration": 0.214,
        "velocity": 0.71,
        "hand": "right"
      },
      {
        "midi": 68,
        "time": 19.714,
        "duration": 0.214,
        "velocity": 0.71,
        "hand": "right"
      },
      {
        "midi": 62,
        "time": 20.036,
        "duration": 0.107,
        "velocity": 0.71,
        "hand": "right"
      },
      {
        "midi": 61,
        "time": 20.143,
        "duration": 0.214,
        "velocity": 0.71,
        "hand": "right"
      },
      {
        "midi": 59,
        "time": 20.464,
        "duration": 0.107,
        "velocity": 0.71,
        "hand": "left"
      },
      {
        "midi": 57,
        "time": 20.571,
        "duration": 0.214,
        "velocity": 0.71,
        "hand": "left"
      },
      {
        "midi": 64,
        "time": 20.571,
        "duration": 0.214,
        "velocity": 0.71,
        "hand": "right"
      },
      {
        "midi": 69,
        "time": 20.571,
        "duration": 0.214,
        "velocity": 0.71,
        "hand": "right"
      },
      {
        "midi": 69,
        "time": 21,
        "duration": 0.214,
        "velocity": 0.71,
        "hand": "right"
      },
      {
        "midi": 57,
        "time": 21.429,
        "duration": 0.857,
        "velocity": 0.71,
        "hand": "left"
      },
      {
        "midi": 65,
        "time": 21.429,
        "duration": 0.857,
        "velocity": 0.71,
        "hand": "right"
      },
      {
        "midi": 70,
        "time": 21.429,
        "duration": 0.321,
        "velocity": 0.71,
        "hand": "right"
      },
      {
        "midi": 69,
        "time": 21.75,
        "duration": 0.107,
        "velocity": 0.71,
        "hand": "right"
      },
      {
        "midi": 70,
        "time": 21.857,
        "duration": 0.214,
        "velocity": 0.71,
        "hand": "right"
      },
      {
        "midi": 68,
        "time": 22.179,
        "duration": 0.107,
        "velocity": 0.71,
        "hand": "right"
      },
      {
        "midi": 57,
        "time": 22.286,
        "duration": 0.214,
        "velocity": 0.71,
        "hand": "left"
      },
      {
        "midi": 64,
        "time": 22.286,
        "duration": 0.214,
        "velocity": 0.71,
        "hand": "right"
      },
      {
        "midi": 69,
        "time": 22.286,
        "duration": 0.214,
        "velocity": 0.71,
        "hand": "right"
      },
      {
        "midi": 69,
        "time": 22.714,
        "duration": 0.214,
        "velocity": 0.71,
        "hand": "right"
      },
      {
        "midi": 57,
        "time": 23.143,
        "duration": 0.857,
        "velocity": 0.71,
        "hand": "left"
      },
      {
        "midi": 65,
        "time": 23.143,
        "duration": 0.857,
        "velocity": 0.71,
        "hand": "right"
      },
      {
        "midi": 70,
        "time": 23.143,
        "duration": 0.321,
        "velocity": 0.71,
        "hand": "right"
      },
      {
        "midi": 69,
        "time": 23.464,
        "duration": 0.107,
        "velocity": 0.71,
        "hand": "right"
      },
      {
        "midi": 70,
        "time": 23.571,
        "duration": 0.214,
        "velocity": 0.71,
        "hand": "right"
      },
      {
        "midi": 68,
        "time": 23.893,
        "duration": 0.107,
        "velocity": 0.71,
        "hand": "right"
      },
      {
        "midi": 57,
        "time": 24,
        "duration": 0.214,
        "velocity": 0.71,
        "hand": "left"
      },
      {
        "midi": 64,
        "time": 24,
        "duration": 0.214,
        "velocity": 0.71,
        "hand": "right"
      },
      {
        "midi": 69,
        "time": 24,
        "duration": 0.214,
        "velocity": 0.71,
        "hand": "right"
      },
      {
        "midi": 64,
        "time": 24.429,
        "duration": 0.214,
        "velocity": 0.71,
        "hand": "right"
      },
      {
        "midi": 68,
        "time": 24.429,
        "duration": 0.214,
        "velocity": 0.71,
        "hand": "right"
      },
      {
        "midi": 71,
        "time": 24.429,
        "duration": 0.214,
        "velocity": 0.71,
        "hand": "right"
      },
      {
        "midi": 61,
        "time": 24.857,
        "duration": 0.214,
        "velocity": 0.71,
        "hand": "right"
      },
      {
        "midi": 68,
        "time": 24.857,
        "duration": 0.214,
        "velocity": 0.71,
        "hand": "right"
      },
      {
        "midi": 73,
        "time": 24.857,
        "duration": 0.214,
        "velocity": 0.71,
        "hand": "right"
      },
      {
        "midi": 66,
        "time": 25.286,
        "duration": 0.214,
        "velocity": 0.71,
        "hand": "right"
      },
      {
        "midi": 69,
        "time": 25.286,
        "duration": 0.214,
        "velocity": 0.71,
        "hand": "right"
      },
      {
        "midi": 73,
        "time": 25.286,
        "duration": 0.214,
        "velocity": 0.71,
        "hand": "right"
      },
      {
        "midi": 59,
        "time": 25.714,
        "duration": 0.214,
        "velocity": 0.71,
        "hand": "left"
      },
      {
        "midi": 71,
        "time": 25.714,
        "duration": 0.214,
        "velocity": 0.71,
        "hand": "right"
      },
      {
        "midi": 74,
        "time": 25.714,
        "duration": 0.214,
        "velocity": 0.71,
        "hand": "right"
      },
      {
        "midi": 73,
        "time": 26.036,
        "duration": 0.107,
        "velocity": 0.71,
        "hand": "right"
      },
      {
        "midi": 64,
        "time": 26.143,
        "duration": 0.214,
        "velocity": 0.71,
        "hand": "right"
      },
      {
        "midi": 68,
        "time": 26.143,
        "duration": 0.214,
        "velocity": 0.71,
        "hand": "right"
      },
      {
        "midi": 71,
        "time": 26.143,
        "duration": 0.214,
        "velocity": 0.71,
        "hand": "right"
      },
      {
        "midi": 73,
        "time": 26.464,
        "duration": 0.107,
        "velocity": 0.71,
        "hand": "right"
      },
      {
        "midi": 57,
        "time": 26.571,
        "duration": 0.214,
        "velocity": 0.71,
        "hand": "left"
      },
      {
        "midi": 69,
        "time": 26.571,
        "duration": 0.214,
        "velocity": 0.71,
        "hand": "right"
      },
      {
        "midi": 57,
        "time": 26.893,
        "duration": 0.107,
        "velocity": 0.71,
        "hand": "left"
      },
      {
        "midi": 59,
        "time": 27,
        "duration": 0.214,
        "velocity": 0.71,
        "hand": "left"
      },
      {
        "midi": 61,
        "time": 27.321,
        "duration": 0.107,
        "velocity": 0.71,
        "hand": "right"
      },
      {
        "midi": 62,
        "time": 27.429,
        "duration": 0.214,
        "velocity": 0.71,
        "hand": "right"
      },
      {
        "midi": 69,
        "time": 27.429,
        "duration": 0.214,
        "velocity": 0.71,
        "hand": "right"
      },
      {
        "midi": 74,
        "time": 27.429,
        "duration": 0.214,
        "velocity": 0.71,
        "hand": "right"
      },
      {
        "midi": 74,
        "time": 27.857,
        "duration": 0.214,
        "velocity": 0.71,
        "hand": "right"
      },
      {
        "midi": 62,
        "time": 28.286,
        "duration": 0.321,
        "velocity": 0.71,
        "hand": "right"
      },
      {
        "midi": 67,
        "time": 28.286,
        "duration": 0.321,
        "velocity": 0.71,
        "hand": "right"
      },
      {
        "midi": 71,
        "time": 28.286,
        "duration": 0.321,
        "velocity": 0.71,
        "hand": "right"
      },
      {
        "midi": 66,
        "time": 28.607,
        "duration": 0.107,
        "velocity": 0.71,
        "hand": "right"
      },
      {
        "midi": 70,
        "time": 28.607,
        "duration": 0.107,
        "velocity": 0.71,
        "hand": "right"
      },
      {
        "midi": 67,
        "time": 28.714,
        "duration": 0.214,
        "velocity": 0.71,
        "hand": "right"
      },
      {
        "midi": 71,
        "time": 28.714,
        "duration": 0.214,
        "velocity": 0.71,
        "hand": "right"
      },
      {
        "midi": 64,
        "time": 29.036,
        "duration": 0.107,
        "velocity": 0.71,
        "hand": "right"
      },
      {
        "midi": 73,
        "time": 29.036,
        "duration": 0.107,
        "velocity": 0.71,
        "hand": "right"
      },
      {
        "midi": 62,
        "time": 29.143,
        "duration": 0.214,
        "velocity": 0.71,
        "hand": "right"
      },
      {
        "midi": 69,
        "time": 29.143,
        "duration": 0.214,
        "velocity": 0.71,
        "hand": "right"
      },
      {
        "midi": 74,
        "time": 29.143,
        "duration": 0.214,
        "velocity": 0.71,
        "hand": "right"
      },
      {
        "midi": 74,
        "time": 29.571,
        "duration": 0.214,
        "velocity": 0.71,
        "hand": "right"
      },
      {
        "midi": 62,
        "time": 30,
        "duration": 0.321,
        "velocity": 0.71,
        "hand": "right"
      },
      {
        "midi": 67,
        "time": 30,
        "duration": 0.321,
        "velocity": 0.71,
        "hand": "right"
      },
      {
        "midi": 71,
        "time": 30,
        "duration": 0.321,
        "velocity": 0.71,
        "hand": "right"
      },
      {
        "midi": 66,
        "time": 30.321,
        "duration": 0.107,
        "velocity": 0.71,
        "hand": "right"
      },
      {
        "midi": 70,
        "time": 30.321,
        "duration": 0.107,
        "velocity": 0.71,
        "hand": "right"
      },
      {
        "midi": 67,
        "time": 30.429,
        "duration": 0.214,
        "velocity": 0.71,
        "hand": "right"
      },
      {
        "midi": 71,
        "time": 30.429,
        "duration": 0.214,
        "velocity": 0.71,
        "hand": "right"
      },
      {
        "midi": 64,
        "time": 30.75,
        "duration": 0.107,
        "velocity": 0.71,
        "hand": "right"
      },
      {
        "midi": 73,
        "time": 30.75,
        "duration": 0.107,
        "velocity": 0.71,
        "hand": "right"
      },
      {
        "midi": 62,
        "time": 30.857,
        "duration": 0.214,
        "velocity": 0.71,
        "hand": "right"
      },
      {
        "midi": 69,
        "time": 30.857,
        "duration": 0.214,
        "velocity": 0.71,
        "hand": "right"
      },
      {
        "midi": 74,
        "time": 30.857,
        "duration": 0.214,
        "velocity": 0.71,
        "hand": "right"
      },
      {
        "midi": 69,
        "time": 31.286,
        "duration": 0.214,
        "velocity": 0.71,
        "hand": "right"
      },
      {
        "midi": 73,
        "time": 31.286,
        "duration": 0.214,
        "velocity": 0.71,
        "hand": "right"
      },
      {
        "midi": 76,
        "time": 31.286,
        "duration": 0.214,
        "velocity": 0.71,
        "hand": "right"
      },
      {
        "midi": 74,
        "time": 31.714,
        "duration": 0.214,
        "velocity": 0.71,
        "hand": "right"
      },
      {
        "midi": 78,
        "time": 31.714,
        "duration": 0.214,
        "velocity": 0.71,
        "hand": "right"
      },
      {
        "midi": 74,
        "time": 32.143,
        "duration": 0.214,
        "velocity": 0.71,
        "hand": "right"
      },
      {
        "midi": 78,
        "time": 32.143,
        "duration": 0.214,
        "velocity": 0.71,
        "hand": "right"
      },
      {
        "midi": 62,
        "time": 32.571,
        "duration": 0.214,
        "velocity": 0.71,
        "hand": "right"
      },
      {
        "midi": 76,
        "time": 32.571,
        "duration": 0.214,
        "velocity": 0.71,
        "hand": "right"
      },
      {
        "midi": 79,
        "time": 32.571,
        "duration": 0.214,
        "velocity": 0.71,
        "hand": "right"
      },
      {
        "midi": 74,
        "time": 32.893,
        "duration": 0.107,
        "velocity": 0.71,
        "hand": "right"
      },
      {
        "midi": 78,
        "time": 32.893,
        "duration": 0.107,
        "velocity": 0.71,
        "hand": "right"
      },
      {
        "midi": 73,
        "time": 33,
        "duration": 0.214,
        "velocity": 0.71,
        "hand": "right"
      },
      {
        "midi": 76,
        "time": 33,
        "duration": 0.214,
        "velocity": 0.71,
        "hand": "right"
      },
      {
        "midi": 71,
        "time": 33.321,
        "duration": 0.107,
        "velocity": 0.71,
        "hand": "right"
      },
      {
        "midi": 74,
        "time": 33.321,
        "duration": 0.107,
        "velocity": 0.71,
        "hand": "right"
      },
      {
        "midi": 69,
        "time": 33.429,
        "duration": 0.214,
        "velocity": 0.71,
        "hand": "right"
      },
      {
        "midi": 73,
        "time": 33.429,
        "duration": 0.214,
        "velocity": 0.71,
        "hand": "right"
      },
      {
        "midi": 76,
        "time": 33.429,
        "duration": 0.214,
        "velocity": 0.71,
        "hand": "right"
      },
      {
        "midi": 69,
        "time": 33.643,
        "duration": 0.107,
        "velocity": 0.71,
        "hand": "right"
      },
      {
        "midi": 69,
        "time": 33.75,
        "duration": 0.107,
        "velocity": 0.71,
        "hand": "right"
      },
      {
        "midi": 69,
        "time": 33.857,
        "duration": 0.214,
        "velocity": 0.71,
        "hand": "right"
      },
      {
        "midi": 69,
        "time": 34.071,
        "duration": 0.214,
        "velocity": 0.71,
        "hand": "right"
      },
      {
        "midi": 62,
        "time": 34.286,
        "duration": 0.214,
        "velocity": 0.71,
        "hand": "right"
      },
      {
        "midi": 69,
        "time": 34.286,
        "duration": 0.214,
        "velocity": 0.71,
        "hand": "right"
      },
      {
        "midi": 74,
        "time": 34.286,
        "duration": 0.214,
        "velocity": 0.71,
        "hand": "right"
      },
      {
        "midi": 74,
        "time": 34.714,
        "duration": 0.214,
        "velocity": 0.71,
        "hand": "right"
      },
      {
        "midi": 62,
        "time": 35.143,
        "duration": 0.321,
        "velocity": 0.71,
        "hand": "right"
      },
      {
        "midi": 67,
        "time": 35.143,
        "duration": 0.321,
        "velocity": 0.71,
        "hand": "right"
      },
      {
        "midi": 71,
        "time": 35.143,
        "duration": 0.321,
        "velocity": 0.71,
        "hand": "right"
      },
      {
        "midi": 66,
        "time": 35.464,
        "duration": 0.107,
        "velocity": 0.71,
        "hand": "right"
      },
      {
        "midi": 70,
        "time": 35.464,
        "duration": 0.107,
        "velocity": 0.71,
        "hand": "right"
      },
      {
        "midi": 67,
        "time": 35.571,
        "duration": 0.214,
        "velocity": 0.71,
        "hand": "right"
      },
      {
        "midi": 71,
        "time": 35.571,
        "duration": 0.214,
        "velocity": 0.71,
        "hand": "right"
      },
      {
        "midi": 64,
        "time": 35.893,
        "duration": 0.107,
        "velocity": 0.71,
        "hand": "right"
      },
      {
        "midi": 73,
        "time": 35.893,
        "duration": 0.107,
        "velocity": 0.71,
        "hand": "right"
      },
      {
        "midi": 62,
        "time": 36,
        "duration": 0.214,
        "velocity": 0.71,
        "hand": "right"
      },
      {
        "midi": 66,
        "time": 36,
        "duration": 0.214,
        "velocity": 0.71,
        "hand": "right"
      },
      {
        "midi": 74,
        "time": 36,
        "duration": 0.214,
        "velocity": 0.71,
        "hand": "right"
      },
      {
        "midi": 74,
        "time": 36.429,
        "duration": 0.214,
        "velocity": 0.71,
        "hand": "right"
      },
      {
        "midi": 62,
        "time": 36.857,
        "duration": 0.321,
        "velocity": 0.71,
        "hand": "right"
      },
      {
        "midi": 67,
        "time": 36.857,
        "duration": 0.321,
        "velocity": 0.71,
        "hand": "right"
      },
      {
        "midi": 71,
        "time": 36.857,
        "duration": 0.321,
        "velocity": 0.71,
        "hand": "right"
      },
      {
        "midi": 66,
        "time": 37.179,
        "duration": 0.107,
        "velocity": 0.71,
        "hand": "right"
      },
      {
        "midi": 70,
        "time": 37.179,
        "duration": 0.107,
        "velocity": 0.71,
        "hand": "right"
      },
      {
        "midi": 67,
        "time": 37.286,
        "duration": 0.214,
        "velocity": 0.71,
        "hand": "right"
      },
      {
        "midi": 71,
        "time": 37.286,
        "duration": 0.214,
        "velocity": 0.71,
        "hand": "right"
      },
      {
        "midi": 64,
        "time": 37.607,
        "duration": 0.107,
        "velocity": 0.71,
        "hand": "right"
      },
      {
        "midi": 73,
        "time": 37.607,
        "duration": 0.107,
        "velocity": 0.71,
        "hand": "right"
      },
      {
        "midi": 62,
        "time": 37.714,
        "duration": 0.214,
        "velocity": 0.71,
        "hand": "right"
      },
      {
        "midi": 69,
        "time": 37.714,
        "duration": 0.214,
        "velocity": 0.71,
        "hand": "right"
      },
      {
        "midi": 74,
        "time": 37.714,
        "duration": 0.214,
        "velocity": 0.71,
        "hand": "right"
      },
      {
        "midi": 69,
        "time": 38.143,
        "duration": 0.214,
        "velocity": 0.71,
        "hand": "right"
      },
      {
        "midi": 73,
        "time": 38.143,
        "duration": 0.214,
        "velocity": 0.71,
        "hand": "right"
      },
      {
        "midi": 76,
        "time": 38.143,
        "duration": 0.214,
        "velocity": 0.71,
        "hand": "right"
      },
      {
        "midi": 74,
        "time": 38.571,
        "duration": 0.214,
        "velocity": 0.71,
        "hand": "right"
      },
      {
        "midi": 78,
        "time": 38.571,
        "duration": 0.214,
        "velocity": 0.71,
        "hand": "right"
      },
      {
        "midi": 71,
        "time": 39,
        "duration": 0.214,
        "velocity": 0.71,
        "hand": "right"
      },
      {
        "midi": 74,
        "time": 39,
        "duration": 0.214,
        "velocity": 0.71,
        "hand": "right"
      },
      {
        "midi": 78,
        "time": 39,
        "duration": 0.214,
        "velocity": 0.71,
        "hand": "right"
      },
      {
        "midi": 67,
        "time": 39.429,
        "duration": 0.214,
        "velocity": 0.71,
        "hand": "right"
      },
      {
        "midi": 71,
        "time": 39.429,
        "duration": 0.214,
        "velocity": 0.71,
        "hand": "right"
      },
      {
        "midi": 76,
        "time": 39.429,
        "duration": 0.214,
        "velocity": 0.71,
        "hand": "right"
      },
      {
        "midi": 75,
        "time": 39.75,
        "duration": 0.107,
        "velocity": 0.71,
        "hand": "right"
      },
      {
        "midi": 69,
        "time": 39.857,
        "duration": 0.214,
        "velocity": 0.71,
        "hand": "right"
      },
      {
        "midi": 73,
        "time": 39.857,
        "duration": 0.214,
        "velocity": 0.71,
        "hand": "right"
      },
      {
        "midi": 76,
        "time": 39.857,
        "duration": 0.214,
        "velocity": 0.71,
        "hand": "right"
      },
      {
        "midi": 78,
        "time": 40.179,
        "duration": 0.107,
        "velocity": 0.71,
        "hand": "right"
      },
      {
        "midi": 62,
        "time": 40.286,
        "duration": 0.214,
        "velocity": 0.71,
        "hand": "right"
      },
      {
        "midi": 74,
        "time": 40.286,
        "duration": 0.214,
        "velocity": 0.71,
        "hand": "right"
      }
    ],
    "hard": [
      {
        "midi": 62,
        "time": 0,
        "duration": 0.214,
        "velocity": 0.71,
        "hand": "right"
      },
      {
        "midi": 66,
        "time": 0,
        "duration": 0.214,
        "velocity": 0.71,
        "hand": "right"
      },
      {
        "midi": 69,
        "time": 0,
        "duration": 0.214,
        "velocity": 0.71,
        "hand": "right"
      },
      {
        "midi": 74,
        "time": 0,
        "duration": 0.214,
        "velocity": 0.71,
        "hand": "right"
      },
      {
        "midi": 74,
        "time": 0.429,
        "duration": 0.214,
        "velocity": 0.71,
        "hand": "right"
      },
      {
        "midi": 62,
        "time": 0.857,
        "duration": 0.321,
        "velocity": 0.71,
        "hand": "right"
      },
      {
        "midi": 67,
        "time": 0.857,
        "duration": 0.321,
        "velocity": 0.71,
        "hand": "right"
      },
      {
        "midi": 71,
        "time": 0.857,
        "duration": 0.321,
        "velocity": 0.71,
        "hand": "right"
      },
      {
        "midi": 66,
        "time": 1.179,
        "duration": 0.107,
        "velocity": 0.71,
        "hand": "right"
      },
      {
        "midi": 70,
        "time": 1.179,
        "duration": 0.107,
        "velocity": 0.71,
        "hand": "right"
      },
      {
        "midi": 67,
        "time": 1.286,
        "duration": 0.214,
        "velocity": 0.71,
        "hand": "right"
      },
      {
        "midi": 71,
        "time": 1.286,
        "duration": 0.214,
        "velocity": 0.71,
        "hand": "right"
      },
      {
        "midi": 64,
        "time": 1.607,
        "duration": 0.107,
        "velocity": 0.71,
        "hand": "right"
      },
      {
        "midi": 73,
        "time": 1.607,
        "duration": 0.107,
        "velocity": 0.71,
        "hand": "right"
      },
      {
        "midi": 62,
        "time": 1.714,
        "duration": 0.214,
        "velocity": 0.71,
        "hand": "right"
      },
      {
        "midi": 66,
        "time": 1.714,
        "duration": 0.214,
        "velocity": 0.71,
        "hand": "right"
      },
      {
        "midi": 69,
        "time": 1.714,
        "duration": 0.214,
        "velocity": 0.71,
        "hand": "right"
      },
      {
        "midi": 74,
        "time": 1.714,
        "duration": 0.214,
        "velocity": 0.71,
        "hand": "right"
      },
      {
        "midi": 74,
        "time": 2.143,
        "duration": 0.214,
        "velocity": 0.71,
        "hand": "right"
      },
      {
        "midi": 62,
        "time": 2.571,
        "duration": 0.321,
        "velocity": 0.71,
        "hand": "right"
      },
      {
        "midi": 67,
        "time": 2.571,
        "duration": 0.321,
        "velocity": 0.71,
        "hand": "right"
      },
      {
        "midi": 71,
        "time": 2.571,
        "duration": 0.321,
        "velocity": 0.71,
        "hand": "right"
      },
      {
        "midi": 66,
        "time": 2.893,
        "duration": 0.107,
        "velocity": 0.71,
        "hand": "right"
      },
      {
        "midi": 70,
        "time": 2.893,
        "duration": 0.107,
        "velocity": 0.71,
        "hand": "right"
      },
      {
        "midi": 67,
        "time": 3,
        "duration": 0.214,
        "velocity": 0.71,
        "hand": "right"
      },
      {
        "midi": 71,
        "time": 3,
        "duration": 0.214,
        "velocity": 0.71,
        "hand": "right"
      },
      {
        "midi": 64,
        "time": 3.321,
        "duration": 0.107,
        "velocity": 0.71,
        "hand": "right"
      },
      {
        "midi": 73,
        "time": 3.321,
        "duration": 0.107,
        "velocity": 0.71,
        "hand": "right"
      },
      {
        "midi": 62,
        "time": 3.429,
        "duration": 0.214,
        "velocity": 0.71,
        "hand": "right"
      },
      {
        "midi": 66,
        "time": 3.429,
        "duration": 0.214,
        "velocity": 0.71,
        "hand": "right"
      },
      {
        "midi": 69,
        "time": 3.429,
        "duration": 0.214,
        "velocity": 0.71,
        "hand": "right"
      },
      {
        "midi": 74,
        "time": 3.429,
        "duration": 0.214,
        "velocity": 0.71,
        "hand": "right"
      },
      {
        "midi": 69,
        "time": 3.857,
        "duration": 0.214,
        "velocity": 0.71,
        "hand": "right"
      },
      {
        "midi": 73,
        "time": 3.857,
        "duration": 0.214,
        "velocity": 0.71,
        "hand": "right"
      },
      {
        "midi": 76,
        "time": 3.857,
        "duration": 0.214,
        "velocity": 0.71,
        "hand": "right"
      },
      {
        "midi": 74,
        "time": 4.286,
        "duration": 0.214,
        "velocity": 0.71,
        "hand": "right"
      },
      {
        "midi": 78,
        "time": 4.286,
        "duration": 0.214,
        "velocity": 0.71,
        "hand": "right"
      },
      {
        "midi": 74,
        "time": 4.714,
        "duration": 0.214,
        "velocity": 0.71,
        "hand": "right"
      },
      {
        "midi": 78,
        "time": 4.714,
        "duration": 0.214,
        "velocity": 0.71,
        "hand": "right"
      },
      {
        "midi": 62,
        "time": 5.143,
        "duration": 0.214,
        "velocity": 0.71,
        "hand": "right"
      },
      {
        "midi": 69,
        "time": 5.143,
        "duration": 0.214,
        "velocity": 0.71,
        "hand": "right"
      },
      {
        "midi": 76,
        "time": 5.143,
        "duration": 0.214,
        "velocity": 0.71,
        "hand": "right"
      },
      {
        "midi": 79,
        "time": 5.143,
        "duration": 0.214,
        "velocity": 0.71,
        "hand": "right"
      },
      {
        "midi": 74,
        "time": 5.464,
        "duration": 0.107,
        "velocity": 0.71,
        "hand": "right"
      },
      {
        "midi": 78,
        "time": 5.464,
        "duration": 0.107,
        "velocity": 0.71,
        "hand": "right"
      },
      {
        "midi": 73,
        "time": 5.571,
        "duration": 0.214,
        "velocity": 0.71,
        "hand": "right"
      },
      {
        "midi": 76,
        "time": 5.571,
        "duration": 0.214,
        "velocity": 0.71,
        "hand": "right"
      },
      {
        "midi": 71,
        "time": 5.893,
        "duration": 0.107,
        "velocity": 0.71,
        "hand": "right"
      },
      {
        "midi": 74,
        "time": 5.893,
        "duration": 0.107,
        "velocity": 0.71,
        "hand": "right"
      },
      {
        "midi": 69,
        "time": 6,
        "duration": 0.214,
        "velocity": 0.71,
        "hand": "right"
      },
      {
        "midi": 73,
        "time": 6,
        "duration": 0.214,
        "velocity": 0.71,
        "hand": "right"
      },
      {
        "midi": 76,
        "time": 6,
        "duration": 0.214,
        "velocity": 0.71,
        "hand": "right"
      },
      {
        "midi": 69,
        "time": 6.214,
        "duration": 0.107,
        "velocity": 0.71,
        "hand": "right"
      },
      {
        "midi": 69,
        "time": 6.321,
        "duration": 0.107,
        "velocity": 0.71,
        "hand": "right"
      },
      {
        "midi": 69,
        "time": 6.429,
        "duration": 0.214,
        "velocity": 0.71,
        "hand": "right"
      },
      {
        "midi": 69,
        "time": 6.643,
        "duration": 0.214,
        "velocity": 0.71,
        "hand": "right"
      },
      {
        "midi": 62,
        "time": 6.857,
        "duration": 0.214,
        "velocity": 0.71,
        "hand": "right"
      },
      {
        "midi": 66,
        "time": 6.857,
        "duration": 0.214,
        "velocity": 0.71,
        "hand": "right"
      },
      {
        "midi": 69,
        "time": 6.857,
        "duration": 0.214,
        "velocity": 0.71,
        "hand": "right"
      },
      {
        "midi": 74,
        "time": 6.857,
        "duration": 0.214,
        "velocity": 0.71,
        "hand": "right"
      },
      {
        "midi": 74,
        "time": 7.286,
        "duration": 0.214,
        "velocity": 0.71,
        "hand": "right"
      },
      {
        "midi": 62,
        "time": 7.714,
        "duration": 0.321,
        "velocity": 0.71,
        "hand": "right"
      },
      {
        "midi": 67,
        "time": 7.714,
        "duration": 0.321,
        "velocity": 0.71,
        "hand": "right"
      },
      {
        "midi": 71,
        "time": 7.714,
        "duration": 0.321,
        "velocity": 0.71,
        "hand": "right"
      },
      {
        "midi": 66,
        "time": 8.036,
        "duration": 0.107,
        "velocity": 0.71,
        "hand": "right"
      },
      {
        "midi": 70,
        "time": 8.036,
        "duration": 0.107,
        "velocity": 0.71,
        "hand": "right"
      },
      {
        "midi": 67,
        "time": 8.143,
        "duration": 0.214,
        "velocity": 0.71,
        "hand": "right"
      },
      {
        "midi": 71,
        "time": 8.143,
        "duration": 0.214,
        "velocity": 0.71,
        "hand": "right"
      },
      {
        "midi": 64,
        "time": 8.464,
        "duration": 0.107,
        "velocity": 0.71,
        "hand": "right"
      },
      {
        "midi": 73,
        "time": 8.464,
        "duration": 0.107,
        "velocity": 0.71,
        "hand": "right"
      },
      {
        "midi": 62,
        "time": 8.571,
        "duration": 0.214,
        "velocity": 0.71,
        "hand": "right"
      },
      {
        "midi": 66,
        "time": 8.571,
        "duration": 0.214,
        "velocity": 0.71,
        "hand": "right"
      },
      {
        "midi": 69,
        "time": 8.571,
        "duration": 0.214,
        "velocity": 0.71,
        "hand": "right"
      },
      {
        "midi": 74,
        "time": 8.571,
        "duration": 0.214,
        "velocity": 0.71,
        "hand": "right"
      },
      {
        "midi": 74,
        "time": 9,
        "duration": 0.214,
        "velocity": 0.71,
        "hand": "right"
      },
      {
        "midi": 62,
        "time": 9.429,
        "duration": 0.321,
        "velocity": 0.71,
        "hand": "right"
      },
      {
        "midi": 67,
        "time": 9.429,
        "duration": 0.321,
        "velocity": 0.71,
        "hand": "right"
      },
      {
        "midi": 71,
        "time": 9.429,
        "duration": 0.321,
        "velocity": 0.71,
        "hand": "right"
      },
      {
        "midi": 66,
        "time": 9.75,
        "duration": 0.107,
        "velocity": 0.71,
        "hand": "right"
      },
      {
        "midi": 70,
        "time": 9.75,
        "duration": 0.107,
        "velocity": 0.71,
        "hand": "right"
      },
      {
        "midi": 67,
        "time": 9.857,
        "duration": 0.214,
        "velocity": 0.71,
        "hand": "right"
      },
      {
        "midi": 71,
        "time": 9.857,
        "duration": 0.214,
        "velocity": 0.71,
        "hand": "right"
      },
      {
        "midi": 64,
        "time": 10.179,
        "duration": 0.107,
        "velocity": 0.71,
        "hand": "right"
      },
      {
        "midi": 73,
        "time": 10.179,
        "duration": 0.107,
        "velocity": 0.71,
        "hand": "right"
      },
      {
        "midi": 62,
        "time": 10.286,
        "duration": 0.214,
        "velocity": 0.71,
        "hand": "right"
      },
      {
        "midi": 66,
        "time": 10.286,
        "duration": 0.214,
        "velocity": 0.71,
        "hand": "right"
      },
      {
        "midi": 69,
        "time": 10.286,
        "duration": 0.214,
        "velocity": 0.71,
        "hand": "right"
      },
      {
        "midi": 74,
        "time": 10.286,
        "duration": 0.214,
        "velocity": 0.71,
        "hand": "right"
      },
      {
        "midi": 69,
        "time": 10.714,
        "duration": 0.214,
        "velocity": 0.71,
        "hand": "right"
      },
      {
        "midi": 73,
        "time": 10.714,
        "duration": 0.214,
        "velocity": 0.71,
        "hand": "right"
      },
      {
        "midi": 76,
        "time": 10.714,
        "duration": 0.214,
        "velocity": 0.71,
        "hand": "right"
      },
      {
        "midi": 74,
        "time": 11.143,
        "duration": 0.214,
        "velocity": 0.71,
        "hand": "right"
      },
      {
        "midi": 78,
        "time": 11.143,
        "duration": 0.214,
        "velocity": 0.71,
        "hand": "right"
      },
      {
        "midi": 62,
        "time": 11.571,
        "duration": 0.214,
        "velocity": 0.71,
        "hand": "right"
      },
      {
        "midi": 74,
        "time": 11.571,
        "duration": 0.214,
        "velocity": 0.71,
        "hand": "right"
      },
      {
        "midi": 78,
        "time": 11.571,
        "duration": 0.214,
        "velocity": 0.71,
        "hand": "right"
      },
      {
        "midi": 64,
        "time": 12,
        "duration": 0.857,
        "velocity": 0.71,
        "hand": "right"
      },
      {
        "midi": 73,
        "time": 12,
        "duration": 0.214,
        "velocity": 0.71,
        "hand": "right"
      },
      {
        "midi": 76,
        "time": 12,
        "duration": 0.214,
        "velocity": 0.71,
        "hand": "right"
      },
      {
        "midi": 71,
        "time": 12.321,
        "duration": 0.107,
        "velocity": 0.71,
        "hand": "right"
      },
      {
        "midi": 74,
        "time": 12.321,
        "duration": 0.107,
        "velocity": 0.71,
        "hand": "right"
      },
      {
        "midi": 69,
        "time": 12.429,
        "duration": 0.214,
        "velocity": 0.71,
        "hand": "right"
      },
      {
        "midi": 73,
        "time": 12.429,
        "duration": 0.214,
        "velocity": 0.71,
        "hand": "right"
      },
      {
        "midi": 68,
        "time": 12.75,
        "duration": 0.107,
        "velocity": 0.71,
        "hand": "right"
      },
      {
        "midi": 71,
        "time": 12.75,
        "duration": 0.107,
        "velocity": 0.71,
        "hand": "right"
      },
      {
        "midi": 57,
        "time": 12.857,
        "duration": 0.214,
        "velocity": 0.71,
        "hand": "left"
      },
      {
        "midi": 69,
        "time": 12.857,
        "duration": 0.214,
        "velocity": 0.71,
        "hand": "right"
      },
      {
        "midi": 57,
        "time": 13.071,
        "duration": 0.107,
        "velocity": 0.71,
        "hand": "left"
      },
      {
        "midi": 57,
        "time": 13.179,
        "duration": 0.107,
        "velocity": 0.71,
        "hand": "left"
      },
      {
        "midi": 57,
        "time": 13.286,
        "duration": 0.214,
        "velocity": 0.71,
        "hand": "left"
      },
      {
        "midi": 57,
        "time": 13.5,
        "duration": 0.214,
        "velocity": 0.71,
        "hand": "left"
      },
      {
        "midi": 57,
        "time": 13.714,
        "duration": 0.214,
        "velocity": 0.71,
        "hand": "left"
      },
      {
        "midi": 61,
        "time": 13.714,
        "duration": 0.214,
        "velocity": 0.71,
        "hand": "right"
      },
      {
        "midi": 64,
        "time": 13.714,
        "duration": 0.214,
        "velocity": 0.71,
        "hand": "right"
      },
      {
        "midi": 69,
        "time": 13.714,
        "duration": 0.214,
        "velocity": 0.71,
        "hand": "right"
      },
      {
        "midi": 69,
        "time": 14.143,
        "duration": 0.214,
        "velocity": 0.71,
        "hand": "right"
      },
      {
        "midi": 57,
        "time": 14.571,
        "duration": 0.857,
        "velocity": 0.71,
        "hand": "left"
      },
      {
        "midi": 62,
        "time": 14.571,
        "duration": 0.857,
        "velocity": 0.71,
        "hand": "right"
      },
      {
        "midi": 65,
        "time": 14.571,
        "duration": 0.857,
        "velocity": 0.71,
        "hand": "right"
      },
      {
        "midi": 70,
        "time": 14.571,
        "duration": 0.321,
        "velocity": 0.71,
        "hand": "right"
      },
      {
        "midi": 69,
        "time": 14.893,
        "duration": 0.107,
        "velocity": 0.71,
        "hand": "right"
      },
      {
        "midi": 70,
        "time": 15,
        "duration": 0.214,
        "velocity": 0.71,
        "hand": "right"
      },
      {
        "midi": 68,
        "time": 15.321,
        "duration": 0.107,
        "velocity": 0.71,
        "hand": "right"
      },
      {
        "midi": 57,
        "time": 15.429,
        "duration": 0.214,
        "velocity": 0.71,
        "hand": "left"
      },
      {
        "midi": 61,
        "time": 15.429,
        "duration": 0.214,
        "velocity": 0.71,
        "hand": "right"
      },
      {
        "midi": 64,
        "time": 15.429,
        "duration": 0.214,
        "velocity": 0.71,
        "hand": "right"
      },
      {
        "midi": 69,
        "time": 15.429,
        "duration": 0.214,
        "velocity": 0.71,
        "hand": "right"
      },
      {
        "midi": 69,
        "time": 15.857,
        "duration": 0.214,
        "velocity": 0.71,
        "hand": "right"
      },
      {
        "midi": 57,
        "time": 16.286,
        "duration": 0.857,
        "velocity": 0.71,
        "hand": "left"
      },
      {
        "midi": 62,
        "time": 16.286,
        "duration": 0.857,
        "velocity": 0.71,
        "hand": "right"
      },
      {
        "midi": 65,
        "time": 16.286,
        "duration": 0.857,
        "velocity": 0.71,
        "hand": "right"
      },
      {
        "midi": 70,
        "time": 16.286,
        "duration": 0.321,
        "velocity": 0.71,
        "hand": "right"
      },
      {
        "midi": 69,
        "time": 16.607,
        "duration": 0.107,
        "velocity": 0.71,
        "hand": "right"
      },
      {
        "midi": 70,
        "time": 16.714,
        "duration": 0.214,
        "velocity": 0.71,
        "hand": "right"
      },
      {
        "midi": 68,
        "time": 17.036,
        "duration": 0.107,
        "velocity": 0.71,
        "hand": "right"
      },
      {
        "midi": 57,
        "time": 17.143,
        "duration": 0.214,
        "velocity": 0.71,
        "hand": "left"
      },
      {
        "midi": 61,
        "time": 17.143,
        "duration": 0.214,
        "velocity": 0.71,
        "hand": "right"
      },
      {
        "midi": 64,
        "time": 17.143,
        "duration": 0.214,
        "velocity": 0.71,
        "hand": "right"
      },
      {
        "midi": 69,
        "time": 17.143,
        "duration": 0.214,
        "velocity": 0.71,
        "hand": "right"
      },
      {
        "midi": 64,
        "time": 17.571,
        "duration": 0.214,
        "velocity": 0.71,
        "hand": "right"
      },
      {
        "midi": 68,
        "time": 17.571,
        "duration": 0.214,
        "velocity": 0.71,
        "hand": "right"
      },
      {
        "midi": 71,
        "time": 17.571,
        "duration": 0.214,
        "velocity": 0.71,
        "hand": "right"
      },
      {
        "midi": 61,
        "time": 18,
        "duration": 0.214,
        "velocity": 0.71,
        "hand": "right"
      },
      {
        "midi": 65,
        "time": 18,
        "duration": 0.214,
        "velocity": 0.71,
        "hand": "right"
      },
      {
        "midi": 68,
        "time": 18,
        "duration": 0.214,
        "velocity": 0.71,
        "hand": "right"
      },
      {
        "midi": 73,
        "time": 18,
        "duration": 0.214,
        "velocity": 0.71,
        "hand": "right"
      },
      {
        "midi": 66,
        "time": 18.429,
        "duration": 0.214,
        "velocity": 0.71,
        "hand": "right"
      },
      {
        "midi": 69,
        "time": 18.429,
        "duration": 0.214,
        "velocity": 0.71,
        "hand": "right"
      },
      {
        "midi": 73,
        "time": 18.429,
        "duration": 0.214,
        "velocity": 0.71,
        "hand": "right"
      },
      {
        "midi": 59,
        "time": 18.857,
        "duration": 0.214,
        "velocity": 0.71,
        "hand": "left"
      },
      {
        "midi": 66,
        "time": 18.857,
        "duration": 0.214,
        "velocity": 0.71,
        "hand": "right"
      },
      {
        "midi": 71,
        "time": 18.857,
        "duration": 0.214,
        "velocity": 0.71,
        "hand": "right"
      },
      {
        "midi": 74,
        "time": 18.857,
        "duration": 0.214,
        "velocity": 0.71,
        "hand": "right"
      },
      {
        "midi": 73,
        "time": 19.179,
        "duration": 0.107,
        "velocity": 0.71,
        "hand": "right"
      },
      {
        "midi": 71,
        "time": 19.286,
        "duration": 0.214,
        "velocity": 0.71,
        "hand": "right"
      },
      {
        "midi": 69,
        "time": 19.607,
        "duration": 0.107,
        "velocity": 0.71,
        "hand": "right"
      },
      {
        "midi": 64,
        "time": 19.714,
        "duration": 0.214,
        "velocity": 0.71,
        "hand": "right"
      },
      {
        "midi": 68,
        "time": 19.714,
        "duration": 0.214,
        "velocity": 0.71,
        "hand": "right"
      },
      {
        "midi": 62,
        "time": 20.036,
        "duration": 0.107,
        "velocity": 0.71,
        "hand": "right"
      },
      {
        "midi": 61,
        "time": 20.143,
        "duration": 0.214,
        "velocity": 0.71,
        "hand": "right"
      },
      {
        "midi": 59,
        "time": 20.464,
        "duration": 0.107,
        "velocity": 0.71,
        "hand": "left"
      },
      {
        "midi": 57,
        "time": 20.571,
        "duration": 0.214,
        "velocity": 0.71,
        "hand": "left"
      },
      {
        "midi": 61,
        "time": 20.571,
        "duration": 0.214,
        "velocity": 0.71,
        "hand": "right"
      },
      {
        "midi": 64,
        "time": 20.571,
        "duration": 0.214,
        "velocity": 0.71,
        "hand": "right"
      },
      {
        "midi": 69,
        "time": 20.571,
        "duration": 0.214,
        "velocity": 0.71,
        "hand": "right"
      },
      {
        "midi": 69,
        "time": 21,
        "duration": 0.214,
        "velocity": 0.71,
        "hand": "right"
      },
      {
        "midi": 57,
        "time": 21.429,
        "duration": 0.857,
        "velocity": 0.71,
        "hand": "left"
      },
      {
        "midi": 62,
        "time": 21.429,
        "duration": 0.857,
        "velocity": 0.71,
        "hand": "right"
      },
      {
        "midi": 65,
        "time": 21.429,
        "duration": 0.857,
        "velocity": 0.71,
        "hand": "right"
      },
      {
        "midi": 70,
        "time": 21.429,
        "duration": 0.321,
        "velocity": 0.71,
        "hand": "right"
      },
      {
        "midi": 69,
        "time": 21.75,
        "duration": 0.107,
        "velocity": 0.71,
        "hand": "right"
      },
      {
        "midi": 70,
        "time": 21.857,
        "duration": 0.214,
        "velocity": 0.71,
        "hand": "right"
      },
      {
        "midi": 68,
        "time": 22.179,
        "duration": 0.107,
        "velocity": 0.71,
        "hand": "right"
      },
      {
        "midi": 57,
        "time": 22.286,
        "duration": 0.214,
        "velocity": 0.71,
        "hand": "left"
      },
      {
        "midi": 61,
        "time": 22.286,
        "duration": 0.214,
        "velocity": 0.71,
        "hand": "right"
      },
      {
        "midi": 64,
        "time": 22.286,
        "duration": 0.214,
        "velocity": 0.71,
        "hand": "right"
      },
      {
        "midi": 69,
        "time": 22.286,
        "duration": 0.214,
        "velocity": 0.71,
        "hand": "right"
      },
      {
        "midi": 69,
        "time": 22.714,
        "duration": 0.214,
        "velocity": 0.71,
        "hand": "right"
      },
      {
        "midi": 57,
        "time": 23.143,
        "duration": 0.857,
        "velocity": 0.71,
        "hand": "left"
      },
      {
        "midi": 62,
        "time": 23.143,
        "duration": 0.857,
        "velocity": 0.71,
        "hand": "right"
      },
      {
        "midi": 65,
        "time": 23.143,
        "duration": 0.857,
        "velocity": 0.71,
        "hand": "right"
      },
      {
        "midi": 70,
        "time": 23.143,
        "duration": 0.321,
        "velocity": 0.71,
        "hand": "right"
      },
      {
        "midi": 69,
        "time": 23.464,
        "duration": 0.107,
        "velocity": 0.71,
        "hand": "right"
      },
      {
        "midi": 70,
        "time": 23.571,
        "duration": 0.214,
        "velocity": 0.71,
        "hand": "right"
      },
      {
        "midi": 68,
        "time": 23.893,
        "duration": 0.107,
        "velocity": 0.71,
        "hand": "right"
      },
      {
        "midi": 57,
        "time": 24,
        "duration": 0.214,
        "velocity": 0.71,
        "hand": "left"
      },
      {
        "midi": 61,
        "time": 24,
        "duration": 0.214,
        "velocity": 0.71,
        "hand": "right"
      },
      {
        "midi": 64,
        "time": 24,
        "duration": 0.214,
        "velocity": 0.71,
        "hand": "right"
      },
      {
        "midi": 69,
        "time": 24,
        "duration": 0.214,
        "velocity": 0.71,
        "hand": "right"
      },
      {
        "midi": 64,
        "time": 24.429,
        "duration": 0.214,
        "velocity": 0.71,
        "hand": "right"
      },
      {
        "midi": 68,
        "time": 24.429,
        "duration": 0.214,
        "velocity": 0.71,
        "hand": "right"
      },
      {
        "midi": 71,
        "time": 24.429,
        "duration": 0.214,
        "velocity": 0.71,
        "hand": "right"
      },
      {
        "midi": 61,
        "time": 24.857,
        "duration": 0.214,
        "velocity": 0.71,
        "hand": "right"
      },
      {
        "midi": 65,
        "time": 24.857,
        "duration": 0.214,
        "velocity": 0.71,
        "hand": "right"
      },
      {
        "midi": 68,
        "time": 24.857,
        "duration": 0.214,
        "velocity": 0.71,
        "hand": "right"
      },
      {
        "midi": 73,
        "time": 24.857,
        "duration": 0.214,
        "velocity": 0.71,
        "hand": "right"
      },
      {
        "midi": 66,
        "time": 25.286,
        "duration": 0.214,
        "velocity": 0.71,
        "hand": "right"
      },
      {
        "midi": 69,
        "time": 25.286,
        "duration": 0.214,
        "velocity": 0.71,
        "hand": "right"
      },
      {
        "midi": 73,
        "time": 25.286,
        "duration": 0.214,
        "velocity": 0.71,
        "hand": "right"
      },
      {
        "midi": 59,
        "time": 25.714,
        "duration": 0.214,
        "velocity": 0.71,
        "hand": "left"
      },
      {
        "midi": 66,
        "time": 25.714,
        "duration": 0.214,
        "velocity": 0.71,
        "hand": "right"
      },
      {
        "midi": 71,
        "time": 25.714,
        "duration": 0.214,
        "velocity": 0.71,
        "hand": "right"
      },
      {
        "midi": 74,
        "time": 25.714,
        "duration": 0.214,
        "velocity": 0.71,
        "hand": "right"
      },
      {
        "midi": 73,
        "time": 26.036,
        "duration": 0.107,
        "velocity": 0.71,
        "hand": "right"
      },
      {
        "midi": 64,
        "time": 26.143,
        "duration": 0.214,
        "velocity": 0.71,
        "hand": "right"
      },
      {
        "midi": 68,
        "time": 26.143,
        "duration": 0.214,
        "velocity": 0.71,
        "hand": "right"
      },
      {
        "midi": 71,
        "time": 26.143,
        "duration": 0.214,
        "velocity": 0.71,
        "hand": "right"
      },
      {
        "midi": 73,
        "time": 26.464,
        "duration": 0.107,
        "velocity": 0.71,
        "hand": "right"
      },
      {
        "midi": 57,
        "time": 26.571,
        "duration": 0.214,
        "velocity": 0.71,
        "hand": "left"
      },
      {
        "midi": 69,
        "time": 26.571,
        "duration": 0.214,
        "velocity": 0.71,
        "hand": "right"
      },
      {
        "midi": 57,
        "time": 26.893,
        "duration": 0.107,
        "velocity": 0.71,
        "hand": "left"
      },
      {
        "midi": 59,
        "time": 27,
        "duration": 0.214,
        "velocity": 0.71,
        "hand": "left"
      },
      {
        "midi": 61,
        "time": 27.321,
        "duration": 0.107,
        "velocity": 0.71,
        "hand": "right"
      },
      {
        "midi": 62,
        "time": 27.429,
        "duration": 0.214,
        "velocity": 0.71,
        "hand": "right"
      },
      {
        "midi": 66,
        "time": 27.429,
        "duration": 0.214,
        "velocity": 0.71,
        "hand": "right"
      },
      {
        "midi": 69,
        "time": 27.429,
        "duration": 0.214,
        "velocity": 0.71,
        "hand": "right"
      },
      {
        "midi": 74,
        "time": 27.429,
        "duration": 0.214,
        "velocity": 0.71,
        "hand": "right"
      },
      {
        "midi": 74,
        "time": 27.857,
        "duration": 0.214,
        "velocity": 0.71,
        "hand": "right"
      },
      {
        "midi": 62,
        "time": 28.286,
        "duration": 0.321,
        "velocity": 0.71,
        "hand": "right"
      },
      {
        "midi": 67,
        "time": 28.286,
        "duration": 0.321,
        "velocity": 0.71,
        "hand": "right"
      },
      {
        "midi": 71,
        "time": 28.286,
        "duration": 0.321,
        "velocity": 0.71,
        "hand": "right"
      },
      {
        "midi": 66,
        "time": 28.607,
        "duration": 0.107,
        "velocity": 0.71,
        "hand": "right"
      },
      {
        "midi": 70,
        "time": 28.607,
        "duration": 0.107,
        "velocity": 0.71,
        "hand": "right"
      },
      {
        "midi": 67,
        "time": 28.714,
        "duration": 0.214,
        "velocity": 0.71,
        "hand": "right"
      },
      {
        "midi": 71,
        "time": 28.714,
        "duration": 0.214,
        "velocity": 0.71,
        "hand": "right"
      },
      {
        "midi": 64,
        "time": 29.036,
        "duration": 0.107,
        "velocity": 0.71,
        "hand": "right"
      },
      {
        "midi": 73,
        "time": 29.036,
        "duration": 0.107,
        "velocity": 0.71,
        "hand": "right"
      },
      {
        "midi": 62,
        "time": 29.143,
        "duration": 0.214,
        "velocity": 0.71,
        "hand": "right"
      },
      {
        "midi": 66,
        "time": 29.143,
        "duration": 0.214,
        "velocity": 0.71,
        "hand": "right"
      },
      {
        "midi": 69,
        "time": 29.143,
        "duration": 0.214,
        "velocity": 0.71,
        "hand": "right"
      },
      {
        "midi": 74,
        "time": 29.143,
        "duration": 0.214,
        "velocity": 0.71,
        "hand": "right"
      },
      {
        "midi": 74,
        "time": 29.571,
        "duration": 0.214,
        "velocity": 0.71,
        "hand": "right"
      },
      {
        "midi": 62,
        "time": 30,
        "duration": 0.321,
        "velocity": 0.71,
        "hand": "right"
      },
      {
        "midi": 67,
        "time": 30,
        "duration": 0.321,
        "velocity": 0.71,
        "hand": "right"
      },
      {
        "midi": 71,
        "time": 30,
        "duration": 0.321,
        "velocity": 0.71,
        "hand": "right"
      },
      {
        "midi": 66,
        "time": 30.321,
        "duration": 0.107,
        "velocity": 0.71,
        "hand": "right"
      },
      {
        "midi": 70,
        "time": 30.321,
        "duration": 0.107,
        "velocity": 0.71,
        "hand": "right"
      },
      {
        "midi": 67,
        "time": 30.429,
        "duration": 0.214,
        "velocity": 0.71,
        "hand": "right"
      },
      {
        "midi": 71,
        "time": 30.429,
        "duration": 0.214,
        "velocity": 0.71,
        "hand": "right"
      },
      {
        "midi": 64,
        "time": 30.75,
        "duration": 0.107,
        "velocity": 0.71,
        "hand": "right"
      },
      {
        "midi": 73,
        "time": 30.75,
        "duration": 0.107,
        "velocity": 0.71,
        "hand": "right"
      },
      {
        "midi": 62,
        "time": 30.857,
        "duration": 0.214,
        "velocity": 0.71,
        "hand": "right"
      },
      {
        "midi": 66,
        "time": 30.857,
        "duration": 0.214,
        "velocity": 0.71,
        "hand": "right"
      },
      {
        "midi": 69,
        "time": 30.857,
        "duration": 0.214,
        "velocity": 0.71,
        "hand": "right"
      },
      {
        "midi": 74,
        "time": 30.857,
        "duration": 0.214,
        "velocity": 0.71,
        "hand": "right"
      },
      {
        "midi": 69,
        "time": 31.286,
        "duration": 0.214,
        "velocity": 0.71,
        "hand": "right"
      },
      {
        "midi": 73,
        "time": 31.286,
        "duration": 0.214,
        "velocity": 0.71,
        "hand": "right"
      },
      {
        "midi": 76,
        "time": 31.286,
        "duration": 0.214,
        "velocity": 0.71,
        "hand": "right"
      },
      {
        "midi": 74,
        "time": 31.714,
        "duration": 0.214,
        "velocity": 0.71,
        "hand": "right"
      },
      {
        "midi": 78,
        "time": 31.714,
        "duration": 0.214,
        "velocity": 0.71,
        "hand": "right"
      },
      {
        "midi": 74,
        "time": 32.143,
        "duration": 0.214,
        "velocity": 0.71,
        "hand": "right"
      },
      {
        "midi": 78,
        "time": 32.143,
        "duration": 0.214,
        "velocity": 0.71,
        "hand": "right"
      },
      {
        "midi": 62,
        "time": 32.571,
        "duration": 0.214,
        "velocity": 0.71,
        "hand": "right"
      },
      {
        "midi": 69,
        "time": 32.571,
        "duration": 0.214,
        "velocity": 0.71,
        "hand": "right"
      },
      {
        "midi": 76,
        "time": 32.571,
        "duration": 0.214,
        "velocity": 0.71,
        "hand": "right"
      },
      {
        "midi": 79,
        "time": 32.571,
        "duration": 0.214,
        "velocity": 0.71,
        "hand": "right"
      },
      {
        "midi": 74,
        "time": 32.893,
        "duration": 0.107,
        "velocity": 0.71,
        "hand": "right"
      },
      {
        "midi": 78,
        "time": 32.893,
        "duration": 0.107,
        "velocity": 0.71,
        "hand": "right"
      },
      {
        "midi": 73,
        "time": 33,
        "duration": 0.214,
        "velocity": 0.71,
        "hand": "right"
      },
      {
        "midi": 76,
        "time": 33,
        "duration": 0.214,
        "velocity": 0.71,
        "hand": "right"
      },
      {
        "midi": 71,
        "time": 33.321,
        "duration": 0.107,
        "velocity": 0.71,
        "hand": "right"
      },
      {
        "midi": 74,
        "time": 33.321,
        "duration": 0.107,
        "velocity": 0.71,
        "hand": "right"
      },
      {
        "midi": 69,
        "time": 33.429,
        "duration": 0.214,
        "velocity": 0.71,
        "hand": "right"
      },
      {
        "midi": 73,
        "time": 33.429,
        "duration": 0.214,
        "velocity": 0.71,
        "hand": "right"
      },
      {
        "midi": 76,
        "time": 33.429,
        "duration": 0.214,
        "velocity": 0.71,
        "hand": "right"
      },
      {
        "midi": 69,
        "time": 33.643,
        "duration": 0.107,
        "velocity": 0.71,
        "hand": "right"
      },
      {
        "midi": 69,
        "time": 33.75,
        "duration": 0.107,
        "velocity": 0.71,
        "hand": "right"
      },
      {
        "midi": 69,
        "time": 33.857,
        "duration": 0.214,
        "velocity": 0.71,
        "hand": "right"
      },
      {
        "midi": 69,
        "time": 34.071,
        "duration": 0.214,
        "velocity": 0.71,
        "hand": "right"
      },
      {
        "midi": 62,
        "time": 34.286,
        "duration": 0.214,
        "velocity": 0.71,
        "hand": "right"
      },
      {
        "midi": 66,
        "time": 34.286,
        "duration": 0.214,
        "velocity": 0.71,
        "hand": "right"
      },
      {
        "midi": 69,
        "time": 34.286,
        "duration": 0.214,
        "velocity": 0.71,
        "hand": "right"
      },
      {
        "midi": 74,
        "time": 34.286,
        "duration": 0.214,
        "velocity": 0.71,
        "hand": "right"
      },
      {
        "midi": 74,
        "time": 34.714,
        "duration": 0.214,
        "velocity": 0.71,
        "hand": "right"
      },
      {
        "midi": 62,
        "time": 35.143,
        "duration": 0.321,
        "velocity": 0.71,
        "hand": "right"
      },
      {
        "midi": 67,
        "time": 35.143,
        "duration": 0.321,
        "velocity": 0.71,
        "hand": "right"
      },
      {
        "midi": 71,
        "time": 35.143,
        "duration": 0.321,
        "velocity": 0.71,
        "hand": "right"
      },
      {
        "midi": 66,
        "time": 35.464,
        "duration": 0.107,
        "velocity": 0.71,
        "hand": "right"
      },
      {
        "midi": 70,
        "time": 35.464,
        "duration": 0.107,
        "velocity": 0.71,
        "hand": "right"
      },
      {
        "midi": 67,
        "time": 35.571,
        "duration": 0.214,
        "velocity": 0.71,
        "hand": "right"
      },
      {
        "midi": 71,
        "time": 35.571,
        "duration": 0.214,
        "velocity": 0.71,
        "hand": "right"
      },
      {
        "midi": 64,
        "time": 35.893,
        "duration": 0.107,
        "velocity": 0.71,
        "hand": "right"
      },
      {
        "midi": 73,
        "time": 35.893,
        "duration": 0.107,
        "velocity": 0.71,
        "hand": "right"
      },
      {
        "midi": 62,
        "time": 36,
        "duration": 0.214,
        "velocity": 0.71,
        "hand": "right"
      },
      {
        "midi": 66,
        "time": 36,
        "duration": 0.214,
        "velocity": 0.71,
        "hand": "right"
      },
      {
        "midi": 74,
        "time": 36,
        "duration": 0.214,
        "velocity": 0.71,
        "hand": "right"
      },
      {
        "midi": 74,
        "time": 36.429,
        "duration": 0.214,
        "velocity": 0.71,
        "hand": "right"
      },
      {
        "midi": 62,
        "time": 36.857,
        "duration": 0.321,
        "velocity": 0.71,
        "hand": "right"
      },
      {
        "midi": 67,
        "time": 36.857,
        "duration": 0.321,
        "velocity": 0.71,
        "hand": "right"
      },
      {
        "midi": 71,
        "time": 36.857,
        "duration": 0.321,
        "velocity": 0.71,
        "hand": "right"
      },
      {
        "midi": 66,
        "time": 37.179,
        "duration": 0.107,
        "velocity": 0.71,
        "hand": "right"
      },
      {
        "midi": 70,
        "time": 37.179,
        "duration": 0.107,
        "velocity": 0.71,
        "hand": "right"
      },
      {
        "midi": 67,
        "time": 37.286,
        "duration": 0.214,
        "velocity": 0.71,
        "hand": "right"
      },
      {
        "midi": 71,
        "time": 37.286,
        "duration": 0.214,
        "velocity": 0.71,
        "hand": "right"
      },
      {
        "midi": 64,
        "time": 37.607,
        "duration": 0.107,
        "velocity": 0.71,
        "hand": "right"
      },
      {
        "midi": 73,
        "time": 37.607,
        "duration": 0.107,
        "velocity": 0.71,
        "hand": "right"
      },
      {
        "midi": 62,
        "time": 37.714,
        "duration": 0.214,
        "velocity": 0.71,
        "hand": "right"
      },
      {
        "midi": 66,
        "time": 37.714,
        "duration": 0.214,
        "velocity": 0.71,
        "hand": "right"
      },
      {
        "midi": 69,
        "time": 37.714,
        "duration": 0.214,
        "velocity": 0.71,
        "hand": "right"
      },
      {
        "midi": 74,
        "time": 37.714,
        "duration": 0.214,
        "velocity": 0.71,
        "hand": "right"
      },
      {
        "midi": 69,
        "time": 38.143,
        "duration": 0.214,
        "velocity": 0.71,
        "hand": "right"
      },
      {
        "midi": 73,
        "time": 38.143,
        "duration": 0.214,
        "velocity": 0.71,
        "hand": "right"
      },
      {
        "midi": 76,
        "time": 38.143,
        "duration": 0.214,
        "velocity": 0.71,
        "hand": "right"
      },
      {
        "midi": 74,
        "time": 38.571,
        "duration": 0.214,
        "velocity": 0.71,
        "hand": "right"
      },
      {
        "midi": 78,
        "time": 38.571,
        "duration": 0.214,
        "velocity": 0.71,
        "hand": "right"
      },
      {
        "midi": 71,
        "time": 39,
        "duration": 0.214,
        "velocity": 0.71,
        "hand": "right"
      },
      {
        "midi": 74,
        "time": 39,
        "duration": 0.214,
        "velocity": 0.71,
        "hand": "right"
      },
      {
        "midi": 78,
        "time": 39,
        "duration": 0.214,
        "velocity": 0.71,
        "hand": "right"
      },
      {
        "midi": 67,
        "time": 39.429,
        "duration": 0.214,
        "velocity": 0.71,
        "hand": "right"
      },
      {
        "midi": 71,
        "time": 39.429,
        "duration": 0.214,
        "velocity": 0.71,
        "hand": "right"
      },
      {
        "midi": 76,
        "time": 39.429,
        "duration": 0.214,
        "velocity": 0.71,
        "hand": "right"
      },
      {
        "midi": 75,
        "time": 39.75,
        "duration": 0.107,
        "velocity": 0.71,
        "hand": "right"
      },
      {
        "midi": 69,
        "time": 39.857,
        "duration": 0.214,
        "velocity": 0.71,
        "hand": "right"
      },
      {
        "midi": 73,
        "time": 39.857,
        "duration": 0.214,
        "velocity": 0.71,
        "hand": "right"
      },
      {
        "midi": 76,
        "time": 39.857,
        "duration": 0.214,
        "velocity": 0.71,
        "hand": "right"
      },
      {
        "midi": 78,
        "time": 40.179,
        "duration": 0.107,
        "velocity": 0.71,
        "hand": "right"
      },
      {
        "midi": 62,
        "time": 40.286,
        "duration": 0.214,
        "velocity": 0.71,
        "hand": "right"
      },
      {
        "midi": 74,
        "time": 40.286,
        "duration": 0.214,
        "velocity": 0.71,
        "hand": "right"
      }
    ]
  },
  "notes1Hand": [
    {
      "midi": 74,
      "time": 0,
      "duration": 0.214,
      "velocity": 0.71,
      "hand": "right"
    },
    {
      "midi": 74,
      "time": 0.429,
      "duration": 0.214,
      "velocity": 0.71,
      "hand": "right"
    },
    {
      "midi": 71,
      "time": 0.857,
      "duration": 0.321,
      "velocity": 0.71,
      "hand": "right"
    },
    {
      "midi": 70,
      "time": 1.179,
      "duration": 0.214,
      "velocity": 0.71,
      "hand": "right"
    },
    {
      "midi": 73,
      "time": 1.607,
      "duration": 0.214,
      "velocity": 0.71,
      "hand": "right"
    },
    {
      "midi": 74,
      "time": 2.143,
      "duration": 0.214,
      "velocity": 0.71,
      "hand": "right"
    },
    {
      "midi": 71,
      "time": 2.571,
      "duration": 0.321,
      "velocity": 0.71,
      "hand": "right"
    },
    {
      "midi": 70,
      "time": 2.893,
      "duration": 0.214,
      "velocity": 0.71,
      "hand": "right"
    },
    {
      "midi": 73,
      "time": 3.321,
      "duration": 0.214,
      "velocity": 0.71,
      "hand": "right"
    },
    {
      "midi": 76,
      "time": 3.857,
      "duration": 0.214,
      "velocity": 0.71,
      "hand": "right"
    },
    {
      "midi": 78,
      "time": 4.286,
      "duration": 0.214,
      "velocity": 0.71,
      "hand": "right"
    },
    {
      "midi": 78,
      "time": 4.714,
      "duration": 0.214,
      "velocity": 0.71,
      "hand": "right"
    },
    {
      "midi": 79,
      "time": 5.143,
      "duration": 0.214,
      "velocity": 0.71,
      "hand": "right"
    },
    {
      "midi": 78,
      "time": 5.464,
      "duration": 0.214,
      "velocity": 0.71,
      "hand": "right"
    },
    {
      "midi": 74,
      "time": 5.893,
      "duration": 0.214,
      "velocity": 0.71,
      "hand": "right"
    },
    {
      "midi": 69,
      "time": 6.214,
      "duration": 0.214,
      "velocity": 0.71,
      "hand": "right"
    },
    {
      "midi": 74,
      "time": 6.857,
      "duration": 0.214,
      "velocity": 0.71,
      "hand": "right"
    },
    {
      "midi": 74,
      "time": 7.286,
      "duration": 0.214,
      "velocity": 0.71,
      "hand": "right"
    },
    {
      "midi": 71,
      "time": 7.714,
      "duration": 0.321,
      "velocity": 0.71,
      "hand": "right"
    },
    {
      "midi": 70,
      "time": 8.036,
      "duration": 0.214,
      "velocity": 0.71,
      "hand": "right"
    },
    {
      "midi": 73,
      "time": 8.464,
      "duration": 0.214,
      "velocity": 0.71,
      "hand": "right"
    },
    {
      "midi": 74,
      "time": 9,
      "duration": 0.214,
      "velocity": 0.71,
      "hand": "right"
    },
    {
      "midi": 71,
      "time": 9.429,
      "duration": 0.321,
      "velocity": 0.71,
      "hand": "right"
    },
    {
      "midi": 70,
      "time": 9.75,
      "duration": 0.214,
      "velocity": 0.71,
      "hand": "right"
    },
    {
      "midi": 73,
      "time": 10.179,
      "duration": 0.214,
      "velocity": 0.71,
      "hand": "right"
    },
    {
      "midi": 76,
      "time": 10.714,
      "duration": 0.214,
      "velocity": 0.71,
      "hand": "right"
    },
    {
      "midi": 78,
      "time": 11.143,
      "duration": 0.214,
      "velocity": 0.71,
      "hand": "right"
    },
    {
      "midi": 78,
      "time": 11.571,
      "duration": 0.214,
      "velocity": 0.71,
      "hand": "right"
    },
    {
      "midi": 76,
      "time": 12,
      "duration": 0.214,
      "velocity": 0.71,
      "hand": "right"
    },
    {
      "midi": 74,
      "time": 12.321,
      "duration": 0.214,
      "velocity": 0.71,
      "hand": "right"
    },
    {
      "midi": 71,
      "time": 12.75,
      "duration": 0.214,
      "velocity": 0.71,
      "hand": "right"
    },
    {
      "midi": 69,
      "time": 13.714,
      "duration": 0.214,
      "velocity": 0.71,
      "hand": "right"
    },
    {
      "midi": 69,
      "time": 14.143,
      "duration": 0.214,
      "velocity": 0.71,
      "hand": "right"
    },
    {
      "midi": 70,
      "time": 14.571,
      "duration": 0.321,
      "velocity": 0.71,
      "hand": "right"
    },
    {
      "midi": 69,
      "time": 14.893,
      "duration": 0.214,
      "velocity": 0.71,
      "hand": "right"
    },
    {
      "midi": 68,
      "time": 15.321,
      "duration": 0.214,
      "velocity": 0.71,
      "hand": "right"
    },
    {
      "midi": 69,
      "time": 15.857,
      "duration": 0.214,
      "velocity": 0.71,
      "hand": "right"
    },
    {
      "midi": 70,
      "time": 16.286,
      "duration": 0.321,
      "velocity": 0.71,
      "hand": "right"
    },
    {
      "midi": 69,
      "time": 16.607,
      "duration": 0.214,
      "velocity": 0.71,
      "hand": "right"
    },
    {
      "midi": 68,
      "time": 17.036,
      "duration": 0.214,
      "velocity": 0.71,
      "hand": "right"
    },
    {
      "midi": 71,
      "time": 17.571,
      "duration": 0.214,
      "velocity": 0.71,
      "hand": "right"
    },
    {
      "midi": 73,
      "time": 18,
      "duration": 0.214,
      "velocity": 0.71,
      "hand": "right"
    },
    {
      "midi": 73,
      "time": 18.429,
      "duration": 0.214,
      "velocity": 0.71,
      "hand": "right"
    },
    {
      "midi": 74,
      "time": 18.857,
      "duration": 0.214,
      "velocity": 0.71,
      "hand": "right"
    },
    {
      "midi": 73,
      "time": 19.179,
      "duration": 0.214,
      "velocity": 0.71,
      "hand": "right"
    },
    {
      "midi": 69,
      "time": 19.607,
      "duration": 0.214,
      "velocity": 0.71,
      "hand": "right"
    },
    {
      "midi": 62,
      "time": 20.036,
      "duration": 0.214,
      "velocity": 0.71,
      "hand": "right"
    },
    {
      "midi": 69,
      "time": 20.571,
      "duration": 0.214,
      "velocity": 0.71,
      "hand": "right"
    },
    {
      "midi": 69,
      "time": 21,
      "duration": 0.214,
      "velocity": 0.71,
      "hand": "right"
    },
    {
      "midi": 70,
      "time": 21.429,
      "duration": 0.321,
      "velocity": 0.71,
      "hand": "right"
    },
    {
      "midi": 69,
      "time": 21.75,
      "duration": 0.214,
      "velocity": 0.71,
      "hand": "right"
    },
    {
      "midi": 68,
      "time": 22.179,
      "duration": 0.214,
      "velocity": 0.71,
      "hand": "right"
    },
    {
      "midi": 69,
      "time": 22.714,
      "duration": 0.214,
      "velocity": 0.71,
      "hand": "right"
    },
    {
      "midi": 70,
      "time": 23.143,
      "duration": 0.321,
      "velocity": 0.71,
      "hand": "right"
    },
    {
      "midi": 69,
      "time": 23.464,
      "duration": 0.214,
      "velocity": 0.71,
      "hand": "right"
    },
    {
      "midi": 68,
      "time": 23.893,
      "duration": 0.214,
      "velocity": 0.71,
      "hand": "right"
    },
    {
      "midi": 71,
      "time": 24.429,
      "duration": 0.214,
      "velocity": 0.71,
      "hand": "right"
    },
    {
      "midi": 73,
      "time": 24.857,
      "duration": 0.214,
      "velocity": 0.71,
      "hand": "right"
    },
    {
      "midi": 73,
      "time": 25.286,
      "duration": 0.214,
      "velocity": 0.71,
      "hand": "right"
    },
    {
      "midi": 74,
      "time": 25.714,
      "duration": 0.214,
      "velocity": 0.71,
      "hand": "right"
    },
    {
      "midi": 73,
      "time": 26.036,
      "duration": 0.214,
      "velocity": 0.71,
      "hand": "right"
    },
    {
      "midi": 73,
      "time": 26.464,
      "duration": 0.214,
      "velocity": 0.71,
      "hand": "right"
    },
    {
      "midi": 61,
      "time": 27.321,
      "duration": 0.214,
      "velocity": 0.71,
      "hand": "right"
    },
    {
      "midi": 74,
      "time": 27.857,
      "duration": 0.214,
      "velocity": 0.71,
      "hand": "right"
    },
    {
      "midi": 71,
      "time": 28.286,
      "duration": 0.321,
      "velocity": 0.71,
      "hand": "right"
    },
    {
      "midi": 70,
      "time": 28.607,
      "duration": 0.214,
      "velocity": 0.71,
      "hand": "right"
    },
    {
      "midi": 73,
      "time": 29.036,
      "duration": 0.214,
      "velocity": 0.71,
      "hand": "right"
    },
    {
      "midi": 74,
      "time": 29.571,
      "duration": 0.214,
      "velocity": 0.71,
      "hand": "right"
    },
    {
      "midi": 71,
      "time": 30,
      "duration": 0.321,
      "velocity": 0.71,
      "hand": "right"
    },
    {
      "midi": 70,
      "time": 30.321,
      "duration": 0.214,
      "velocity": 0.71,
      "hand": "right"
    },
    {
      "midi": 73,
      "time": 30.75,
      "duration": 0.214,
      "velocity": 0.71,
      "hand": "right"
    },
    {
      "midi": 76,
      "time": 31.286,
      "duration": 0.214,
      "velocity": 0.71,
      "hand": "right"
    },
    {
      "midi": 78,
      "time": 31.714,
      "duration": 0.214,
      "velocity": 0.71,
      "hand": "right"
    },
    {
      "midi": 78,
      "time": 32.143,
      "duration": 0.214,
      "velocity": 0.71,
      "hand": "right"
    },
    {
      "midi": 79,
      "time": 32.571,
      "duration": 0.214,
      "velocity": 0.71,
      "hand": "right"
    },
    {
      "midi": 78,
      "time": 32.893,
      "duration": 0.214,
      "velocity": 0.71,
      "hand": "right"
    },
    {
      "midi": 74,
      "time": 33.321,
      "duration": 0.214,
      "velocity": 0.71,
      "hand": "right"
    },
    {
      "midi": 69,
      "time": 33.643,
      "duration": 0.214,
      "velocity": 0.71,
      "hand": "right"
    },
    {
      "midi": 69,
      "time": 34.071,
      "duration": 0.214,
      "velocity": 0.71,
      "hand": "right"
    },
    {
      "midi": 74,
      "time": 34.286,
      "duration": 0.214,
      "velocity": 0.71,
      "hand": "right"
    },
    {
      "midi": 74,
      "time": 34.714,
      "duration": 0.214,
      "velocity": 0.71,
      "hand": "right"
    },
    {
      "midi": 71,
      "time": 35.143,
      "duration": 0.321,
      "velocity": 0.71,
      "hand": "right"
    },
    {
      "midi": 70,
      "time": 35.464,
      "duration": 0.214,
      "velocity": 0.71,
      "hand": "right"
    },
    {
      "midi": 73,
      "time": 35.893,
      "duration": 0.214,
      "velocity": 0.71,
      "hand": "right"
    },
    {
      "midi": 74,
      "time": 36.429,
      "duration": 0.214,
      "velocity": 0.71,
      "hand": "right"
    },
    {
      "midi": 71,
      "time": 36.857,
      "duration": 0.321,
      "velocity": 0.71,
      "hand": "right"
    },
    {
      "midi": 70,
      "time": 37.179,
      "duration": 0.214,
      "velocity": 0.71,
      "hand": "right"
    },
    {
      "midi": 73,
      "time": 37.607,
      "duration": 0.214,
      "velocity": 0.71,
      "hand": "right"
    },
    {
      "midi": 76,
      "time": 38.143,
      "duration": 0.214,
      "velocity": 0.71,
      "hand": "right"
    },
    {
      "midi": 78,
      "time": 38.571,
      "duration": 0.214,
      "velocity": 0.71,
      "hand": "right"
    },
    {
      "midi": 78,
      "time": 39,
      "duration": 0.214,
      "velocity": 0.71,
      "hand": "right"
    },
    {
      "midi": 76,
      "time": 39.429,
      "duration": 0.214,
      "velocity": 0.71,
      "hand": "right"
    },
    {
      "midi": 75,
      "time": 39.75,
      "duration": 0.214,
      "velocity": 0.71,
      "hand": "right"
    },
    {
      "midi": 78,
      "time": 40.179,
      "duration": 0.214,
      "velocity": 0.71,
      "hand": "right"
    }
  ],
  "notes2Hands": [
    {
      "midi": 62,
      "time": 0,
      "duration": 0.214,
      "velocity": 0.71,
      "hand": "right"
    },
    {
      "midi": 66,
      "time": 0,
      "duration": 0.214,
      "velocity": 0.71,
      "hand": "right"
    },
    {
      "midi": 69,
      "time": 0,
      "duration": 0.214,
      "velocity": 0.71,
      "hand": "right"
    },
    {
      "midi": 74,
      "time": 0,
      "duration": 0.214,
      "velocity": 0.71,
      "hand": "right"
    },
    {
      "midi": 74,
      "time": 0.429,
      "duration": 0.214,
      "velocity": 0.71,
      "hand": "right"
    },
    {
      "midi": 62,
      "time": 0.857,
      "duration": 0.321,
      "velocity": 0.71,
      "hand": "right"
    },
    {
      "midi": 67,
      "time": 0.857,
      "duration": 0.321,
      "velocity": 0.71,
      "hand": "right"
    },
    {
      "midi": 71,
      "time": 0.857,
      "duration": 0.321,
      "velocity": 0.71,
      "hand": "right"
    },
    {
      "midi": 66,
      "time": 1.179,
      "duration": 0.107,
      "velocity": 0.71,
      "hand": "right"
    },
    {
      "midi": 70,
      "time": 1.179,
      "duration": 0.107,
      "velocity": 0.71,
      "hand": "right"
    },
    {
      "midi": 67,
      "time": 1.286,
      "duration": 0.214,
      "velocity": 0.71,
      "hand": "right"
    },
    {
      "midi": 71,
      "time": 1.286,
      "duration": 0.214,
      "velocity": 0.71,
      "hand": "right"
    },
    {
      "midi": 64,
      "time": 1.607,
      "duration": 0.107,
      "velocity": 0.71,
      "hand": "right"
    },
    {
      "midi": 73,
      "time": 1.607,
      "duration": 0.107,
      "velocity": 0.71,
      "hand": "right"
    },
    {
      "midi": 62,
      "time": 1.714,
      "duration": 0.214,
      "velocity": 0.71,
      "hand": "right"
    },
    {
      "midi": 66,
      "time": 1.714,
      "duration": 0.214,
      "velocity": 0.71,
      "hand": "right"
    },
    {
      "midi": 69,
      "time": 1.714,
      "duration": 0.214,
      "velocity": 0.71,
      "hand": "right"
    },
    {
      "midi": 74,
      "time": 1.714,
      "duration": 0.214,
      "velocity": 0.71,
      "hand": "right"
    },
    {
      "midi": 74,
      "time": 2.143,
      "duration": 0.214,
      "velocity": 0.71,
      "hand": "right"
    },
    {
      "midi": 62,
      "time": 2.571,
      "duration": 0.321,
      "velocity": 0.71,
      "hand": "right"
    },
    {
      "midi": 67,
      "time": 2.571,
      "duration": 0.321,
      "velocity": 0.71,
      "hand": "right"
    },
    {
      "midi": 71,
      "time": 2.571,
      "duration": 0.321,
      "velocity": 0.71,
      "hand": "right"
    },
    {
      "midi": 66,
      "time": 2.893,
      "duration": 0.107,
      "velocity": 0.71,
      "hand": "right"
    },
    {
      "midi": 70,
      "time": 2.893,
      "duration": 0.107,
      "velocity": 0.71,
      "hand": "right"
    },
    {
      "midi": 67,
      "time": 3,
      "duration": 0.214,
      "velocity": 0.71,
      "hand": "right"
    },
    {
      "midi": 71,
      "time": 3,
      "duration": 0.214,
      "velocity": 0.71,
      "hand": "right"
    },
    {
      "midi": 64,
      "time": 3.321,
      "duration": 0.107,
      "velocity": 0.71,
      "hand": "right"
    },
    {
      "midi": 73,
      "time": 3.321,
      "duration": 0.107,
      "velocity": 0.71,
      "hand": "right"
    },
    {
      "midi": 62,
      "time": 3.429,
      "duration": 0.214,
      "velocity": 0.71,
      "hand": "right"
    },
    {
      "midi": 66,
      "time": 3.429,
      "duration": 0.214,
      "velocity": 0.71,
      "hand": "right"
    },
    {
      "midi": 69,
      "time": 3.429,
      "duration": 0.214,
      "velocity": 0.71,
      "hand": "right"
    },
    {
      "midi": 74,
      "time": 3.429,
      "duration": 0.214,
      "velocity": 0.71,
      "hand": "right"
    },
    {
      "midi": 69,
      "time": 3.857,
      "duration": 0.214,
      "velocity": 0.71,
      "hand": "right"
    },
    {
      "midi": 73,
      "time": 3.857,
      "duration": 0.214,
      "velocity": 0.71,
      "hand": "right"
    },
    {
      "midi": 76,
      "time": 3.857,
      "duration": 0.214,
      "velocity": 0.71,
      "hand": "right"
    },
    {
      "midi": 74,
      "time": 4.286,
      "duration": 0.214,
      "velocity": 0.71,
      "hand": "right"
    },
    {
      "midi": 78,
      "time": 4.286,
      "duration": 0.214,
      "velocity": 0.71,
      "hand": "right"
    },
    {
      "midi": 74,
      "time": 4.714,
      "duration": 0.214,
      "velocity": 0.71,
      "hand": "right"
    },
    {
      "midi": 78,
      "time": 4.714,
      "duration": 0.214,
      "velocity": 0.71,
      "hand": "right"
    },
    {
      "midi": 62,
      "time": 5.143,
      "duration": 0.214,
      "velocity": 0.71,
      "hand": "right"
    },
    {
      "midi": 69,
      "time": 5.143,
      "duration": 0.214,
      "velocity": 0.71,
      "hand": "right"
    },
    {
      "midi": 76,
      "time": 5.143,
      "duration": 0.214,
      "velocity": 0.71,
      "hand": "right"
    },
    {
      "midi": 79,
      "time": 5.143,
      "duration": 0.214,
      "velocity": 0.71,
      "hand": "right"
    },
    {
      "midi": 74,
      "time": 5.464,
      "duration": 0.107,
      "velocity": 0.71,
      "hand": "right"
    },
    {
      "midi": 78,
      "time": 5.464,
      "duration": 0.107,
      "velocity": 0.71,
      "hand": "right"
    },
    {
      "midi": 73,
      "time": 5.571,
      "duration": 0.214,
      "velocity": 0.71,
      "hand": "right"
    },
    {
      "midi": 76,
      "time": 5.571,
      "duration": 0.214,
      "velocity": 0.71,
      "hand": "right"
    },
    {
      "midi": 71,
      "time": 5.893,
      "duration": 0.107,
      "velocity": 0.71,
      "hand": "right"
    },
    {
      "midi": 74,
      "time": 5.893,
      "duration": 0.107,
      "velocity": 0.71,
      "hand": "right"
    },
    {
      "midi": 69,
      "time": 6,
      "duration": 0.214,
      "velocity": 0.71,
      "hand": "right"
    },
    {
      "midi": 73,
      "time": 6,
      "duration": 0.214,
      "velocity": 0.71,
      "hand": "right"
    },
    {
      "midi": 76,
      "time": 6,
      "duration": 0.214,
      "velocity": 0.71,
      "hand": "right"
    },
    {
      "midi": 69,
      "time": 6.214,
      "duration": 0.107,
      "velocity": 0.71,
      "hand": "right"
    },
    {
      "midi": 69,
      "time": 6.321,
      "duration": 0.107,
      "velocity": 0.71,
      "hand": "right"
    },
    {
      "midi": 69,
      "time": 6.429,
      "duration": 0.214,
      "velocity": 0.71,
      "hand": "right"
    },
    {
      "midi": 69,
      "time": 6.643,
      "duration": 0.214,
      "velocity": 0.71,
      "hand": "right"
    },
    {
      "midi": 62,
      "time": 6.857,
      "duration": 0.214,
      "velocity": 0.71,
      "hand": "right"
    },
    {
      "midi": 66,
      "time": 6.857,
      "duration": 0.214,
      "velocity": 0.71,
      "hand": "right"
    },
    {
      "midi": 69,
      "time": 6.857,
      "duration": 0.214,
      "velocity": 0.71,
      "hand": "right"
    },
    {
      "midi": 74,
      "time": 6.857,
      "duration": 0.214,
      "velocity": 0.71,
      "hand": "right"
    },
    {
      "midi": 74,
      "time": 7.286,
      "duration": 0.214,
      "velocity": 0.71,
      "hand": "right"
    },
    {
      "midi": 62,
      "time": 7.714,
      "duration": 0.321,
      "velocity": 0.71,
      "hand": "right"
    },
    {
      "midi": 67,
      "time": 7.714,
      "duration": 0.321,
      "velocity": 0.71,
      "hand": "right"
    },
    {
      "midi": 71,
      "time": 7.714,
      "duration": 0.321,
      "velocity": 0.71,
      "hand": "right"
    },
    {
      "midi": 66,
      "time": 8.036,
      "duration": 0.107,
      "velocity": 0.71,
      "hand": "right"
    },
    {
      "midi": 70,
      "time": 8.036,
      "duration": 0.107,
      "velocity": 0.71,
      "hand": "right"
    },
    {
      "midi": 67,
      "time": 8.143,
      "duration": 0.214,
      "velocity": 0.71,
      "hand": "right"
    },
    {
      "midi": 71,
      "time": 8.143,
      "duration": 0.214,
      "velocity": 0.71,
      "hand": "right"
    },
    {
      "midi": 64,
      "time": 8.464,
      "duration": 0.107,
      "velocity": 0.71,
      "hand": "right"
    },
    {
      "midi": 73,
      "time": 8.464,
      "duration": 0.107,
      "velocity": 0.71,
      "hand": "right"
    },
    {
      "midi": 62,
      "time": 8.571,
      "duration": 0.214,
      "velocity": 0.71,
      "hand": "right"
    },
    {
      "midi": 66,
      "time": 8.571,
      "duration": 0.214,
      "velocity": 0.71,
      "hand": "right"
    },
    {
      "midi": 69,
      "time": 8.571,
      "duration": 0.214,
      "velocity": 0.71,
      "hand": "right"
    },
    {
      "midi": 74,
      "time": 8.571,
      "duration": 0.214,
      "velocity": 0.71,
      "hand": "right"
    },
    {
      "midi": 74,
      "time": 9,
      "duration": 0.214,
      "velocity": 0.71,
      "hand": "right"
    },
    {
      "midi": 62,
      "time": 9.429,
      "duration": 0.321,
      "velocity": 0.71,
      "hand": "right"
    },
    {
      "midi": 67,
      "time": 9.429,
      "duration": 0.321,
      "velocity": 0.71,
      "hand": "right"
    },
    {
      "midi": 71,
      "time": 9.429,
      "duration": 0.321,
      "velocity": 0.71,
      "hand": "right"
    },
    {
      "midi": 66,
      "time": 9.75,
      "duration": 0.107,
      "velocity": 0.71,
      "hand": "right"
    },
    {
      "midi": 70,
      "time": 9.75,
      "duration": 0.107,
      "velocity": 0.71,
      "hand": "right"
    },
    {
      "midi": 67,
      "time": 9.857,
      "duration": 0.214,
      "velocity": 0.71,
      "hand": "right"
    },
    {
      "midi": 71,
      "time": 9.857,
      "duration": 0.214,
      "velocity": 0.71,
      "hand": "right"
    },
    {
      "midi": 64,
      "time": 10.179,
      "duration": 0.107,
      "velocity": 0.71,
      "hand": "right"
    },
    {
      "midi": 73,
      "time": 10.179,
      "duration": 0.107,
      "velocity": 0.71,
      "hand": "right"
    },
    {
      "midi": 62,
      "time": 10.286,
      "duration": 0.214,
      "velocity": 0.71,
      "hand": "right"
    },
    {
      "midi": 66,
      "time": 10.286,
      "duration": 0.214,
      "velocity": 0.71,
      "hand": "right"
    },
    {
      "midi": 69,
      "time": 10.286,
      "duration": 0.214,
      "velocity": 0.71,
      "hand": "right"
    },
    {
      "midi": 74,
      "time": 10.286,
      "duration": 0.214,
      "velocity": 0.71,
      "hand": "right"
    },
    {
      "midi": 69,
      "time": 10.714,
      "duration": 0.214,
      "velocity": 0.71,
      "hand": "right"
    },
    {
      "midi": 73,
      "time": 10.714,
      "duration": 0.214,
      "velocity": 0.71,
      "hand": "right"
    },
    {
      "midi": 76,
      "time": 10.714,
      "duration": 0.214,
      "velocity": 0.71,
      "hand": "right"
    },
    {
      "midi": 74,
      "time": 11.143,
      "duration": 0.214,
      "velocity": 0.71,
      "hand": "right"
    },
    {
      "midi": 78,
      "time": 11.143,
      "duration": 0.214,
      "velocity": 0.71,
      "hand": "right"
    },
    {
      "midi": 62,
      "time": 11.571,
      "duration": 0.214,
      "velocity": 0.71,
      "hand": "right"
    },
    {
      "midi": 74,
      "time": 11.571,
      "duration": 0.214,
      "velocity": 0.71,
      "hand": "right"
    },
    {
      "midi": 78,
      "time": 11.571,
      "duration": 0.214,
      "velocity": 0.71,
      "hand": "right"
    },
    {
      "midi": 64,
      "time": 12,
      "duration": 0.857,
      "velocity": 0.71,
      "hand": "right"
    },
    {
      "midi": 73,
      "time": 12,
      "duration": 0.214,
      "velocity": 0.71,
      "hand": "right"
    },
    {
      "midi": 76,
      "time": 12,
      "duration": 0.214,
      "velocity": 0.71,
      "hand": "right"
    },
    {
      "midi": 71,
      "time": 12.321,
      "duration": 0.107,
      "velocity": 0.71,
      "hand": "right"
    },
    {
      "midi": 74,
      "time": 12.321,
      "duration": 0.107,
      "velocity": 0.71,
      "hand": "right"
    },
    {
      "midi": 69,
      "time": 12.429,
      "duration": 0.214,
      "velocity": 0.71,
      "hand": "right"
    },
    {
      "midi": 73,
      "time": 12.429,
      "duration": 0.214,
      "velocity": 0.71,
      "hand": "right"
    },
    {
      "midi": 68,
      "time": 12.75,
      "duration": 0.107,
      "velocity": 0.71,
      "hand": "right"
    },
    {
      "midi": 71,
      "time": 12.75,
      "duration": 0.107,
      "velocity": 0.71,
      "hand": "right"
    },
    {
      "midi": 57,
      "time": 12.857,
      "duration": 0.214,
      "velocity": 0.71,
      "hand": "left"
    },
    {
      "midi": 69,
      "time": 12.857,
      "duration": 0.214,
      "velocity": 0.71,
      "hand": "right"
    },
    {
      "midi": 57,
      "time": 13.071,
      "duration": 0.107,
      "velocity": 0.71,
      "hand": "left"
    },
    {
      "midi": 57,
      "time": 13.179,
      "duration": 0.107,
      "velocity": 0.71,
      "hand": "left"
    },
    {
      "midi": 57,
      "time": 13.286,
      "duration": 0.214,
      "velocity": 0.71,
      "hand": "left"
    },
    {
      "midi": 57,
      "time": 13.5,
      "duration": 0.214,
      "velocity": 0.71,
      "hand": "left"
    },
    {
      "midi": 57,
      "time": 13.714,
      "duration": 0.214,
      "velocity": 0.71,
      "hand": "left"
    },
    {
      "midi": 61,
      "time": 13.714,
      "duration": 0.214,
      "velocity": 0.71,
      "hand": "right"
    },
    {
      "midi": 64,
      "time": 13.714,
      "duration": 0.214,
      "velocity": 0.71,
      "hand": "right"
    },
    {
      "midi": 69,
      "time": 13.714,
      "duration": 0.214,
      "velocity": 0.71,
      "hand": "right"
    },
    {
      "midi": 69,
      "time": 14.143,
      "duration": 0.214,
      "velocity": 0.71,
      "hand": "right"
    },
    {
      "midi": 57,
      "time": 14.571,
      "duration": 0.857,
      "velocity": 0.71,
      "hand": "left"
    },
    {
      "midi": 62,
      "time": 14.571,
      "duration": 0.857,
      "velocity": 0.71,
      "hand": "right"
    },
    {
      "midi": 65,
      "time": 14.571,
      "duration": 0.857,
      "velocity": 0.71,
      "hand": "right"
    },
    {
      "midi": 70,
      "time": 14.571,
      "duration": 0.321,
      "velocity": 0.71,
      "hand": "right"
    },
    {
      "midi": 69,
      "time": 14.893,
      "duration": 0.107,
      "velocity": 0.71,
      "hand": "right"
    },
    {
      "midi": 70,
      "time": 15,
      "duration": 0.214,
      "velocity": 0.71,
      "hand": "right"
    },
    {
      "midi": 68,
      "time": 15.321,
      "duration": 0.107,
      "velocity": 0.71,
      "hand": "right"
    },
    {
      "midi": 57,
      "time": 15.429,
      "duration": 0.214,
      "velocity": 0.71,
      "hand": "left"
    },
    {
      "midi": 61,
      "time": 15.429,
      "duration": 0.214,
      "velocity": 0.71,
      "hand": "right"
    },
    {
      "midi": 64,
      "time": 15.429,
      "duration": 0.214,
      "velocity": 0.71,
      "hand": "right"
    },
    {
      "midi": 69,
      "time": 15.429,
      "duration": 0.214,
      "velocity": 0.71,
      "hand": "right"
    },
    {
      "midi": 69,
      "time": 15.857,
      "duration": 0.214,
      "velocity": 0.71,
      "hand": "right"
    },
    {
      "midi": 57,
      "time": 16.286,
      "duration": 0.857,
      "velocity": 0.71,
      "hand": "left"
    },
    {
      "midi": 62,
      "time": 16.286,
      "duration": 0.857,
      "velocity": 0.71,
      "hand": "right"
    },
    {
      "midi": 65,
      "time": 16.286,
      "duration": 0.857,
      "velocity": 0.71,
      "hand": "right"
    },
    {
      "midi": 70,
      "time": 16.286,
      "duration": 0.321,
      "velocity": 0.71,
      "hand": "right"
    },
    {
      "midi": 69,
      "time": 16.607,
      "duration": 0.107,
      "velocity": 0.71,
      "hand": "right"
    },
    {
      "midi": 70,
      "time": 16.714,
      "duration": 0.214,
      "velocity": 0.71,
      "hand": "right"
    },
    {
      "midi": 68,
      "time": 17.036,
      "duration": 0.107,
      "velocity": 0.71,
      "hand": "right"
    },
    {
      "midi": 57,
      "time": 17.143,
      "duration": 0.214,
      "velocity": 0.71,
      "hand": "left"
    },
    {
      "midi": 61,
      "time": 17.143,
      "duration": 0.214,
      "velocity": 0.71,
      "hand": "right"
    },
    {
      "midi": 64,
      "time": 17.143,
      "duration": 0.214,
      "velocity": 0.71,
      "hand": "right"
    },
    {
      "midi": 69,
      "time": 17.143,
      "duration": 0.214,
      "velocity": 0.71,
      "hand": "right"
    },
    {
      "midi": 64,
      "time": 17.571,
      "duration": 0.214,
      "velocity": 0.71,
      "hand": "right"
    },
    {
      "midi": 68,
      "time": 17.571,
      "duration": 0.214,
      "velocity": 0.71,
      "hand": "right"
    },
    {
      "midi": 71,
      "time": 17.571,
      "duration": 0.214,
      "velocity": 0.71,
      "hand": "right"
    },
    {
      "midi": 61,
      "time": 18,
      "duration": 0.214,
      "velocity": 0.71,
      "hand": "right"
    },
    {
      "midi": 65,
      "time": 18,
      "duration": 0.214,
      "velocity": 0.71,
      "hand": "right"
    },
    {
      "midi": 68,
      "time": 18,
      "duration": 0.214,
      "velocity": 0.71,
      "hand": "right"
    },
    {
      "midi": 73,
      "time": 18,
      "duration": 0.214,
      "velocity": 0.71,
      "hand": "right"
    },
    {
      "midi": 66,
      "time": 18.429,
      "duration": 0.214,
      "velocity": 0.71,
      "hand": "right"
    },
    {
      "midi": 69,
      "time": 18.429,
      "duration": 0.214,
      "velocity": 0.71,
      "hand": "right"
    },
    {
      "midi": 73,
      "time": 18.429,
      "duration": 0.214,
      "velocity": 0.71,
      "hand": "right"
    },
    {
      "midi": 59,
      "time": 18.857,
      "duration": 0.214,
      "velocity": 0.71,
      "hand": "left"
    },
    {
      "midi": 66,
      "time": 18.857,
      "duration": 0.214,
      "velocity": 0.71,
      "hand": "right"
    },
    {
      "midi": 71,
      "time": 18.857,
      "duration": 0.214,
      "velocity": 0.71,
      "hand": "right"
    },
    {
      "midi": 74,
      "time": 18.857,
      "duration": 0.214,
      "velocity": 0.71,
      "hand": "right"
    },
    {
      "midi": 73,
      "time": 19.179,
      "duration": 0.107,
      "velocity": 0.71,
      "hand": "right"
    },
    {
      "midi": 71,
      "time": 19.286,
      "duration": 0.214,
      "velocity": 0.71,
      "hand": "right"
    },
    {
      "midi": 69,
      "time": 19.607,
      "duration": 0.107,
      "velocity": 0.71,
      "hand": "right"
    },
    {
      "midi": 64,
      "time": 19.714,
      "duration": 0.214,
      "velocity": 0.71,
      "hand": "right"
    },
    {
      "midi": 68,
      "time": 19.714,
      "duration": 0.214,
      "velocity": 0.71,
      "hand": "right"
    },
    {
      "midi": 62,
      "time": 20.036,
      "duration": 0.107,
      "velocity": 0.71,
      "hand": "right"
    },
    {
      "midi": 61,
      "time": 20.143,
      "duration": 0.214,
      "velocity": 0.71,
      "hand": "right"
    },
    {
      "midi": 59,
      "time": 20.464,
      "duration": 0.107,
      "velocity": 0.71,
      "hand": "left"
    },
    {
      "midi": 57,
      "time": 20.571,
      "duration": 0.214,
      "velocity": 0.71,
      "hand": "left"
    },
    {
      "midi": 61,
      "time": 20.571,
      "duration": 0.214,
      "velocity": 0.71,
      "hand": "right"
    },
    {
      "midi": 64,
      "time": 20.571,
      "duration": 0.214,
      "velocity": 0.71,
      "hand": "right"
    },
    {
      "midi": 69,
      "time": 20.571,
      "duration": 0.214,
      "velocity": 0.71,
      "hand": "right"
    },
    {
      "midi": 69,
      "time": 21,
      "duration": 0.214,
      "velocity": 0.71,
      "hand": "right"
    },
    {
      "midi": 57,
      "time": 21.429,
      "duration": 0.857,
      "velocity": 0.71,
      "hand": "left"
    },
    {
      "midi": 62,
      "time": 21.429,
      "duration": 0.857,
      "velocity": 0.71,
      "hand": "right"
    },
    {
      "midi": 65,
      "time": 21.429,
      "duration": 0.857,
      "velocity": 0.71,
      "hand": "right"
    },
    {
      "midi": 70,
      "time": 21.429,
      "duration": 0.321,
      "velocity": 0.71,
      "hand": "right"
    },
    {
      "midi": 69,
      "time": 21.75,
      "duration": 0.107,
      "velocity": 0.71,
      "hand": "right"
    },
    {
      "midi": 70,
      "time": 21.857,
      "duration": 0.214,
      "velocity": 0.71,
      "hand": "right"
    },
    {
      "midi": 68,
      "time": 22.179,
      "duration": 0.107,
      "velocity": 0.71,
      "hand": "right"
    },
    {
      "midi": 57,
      "time": 22.286,
      "duration": 0.214,
      "velocity": 0.71,
      "hand": "left"
    },
    {
      "midi": 61,
      "time": 22.286,
      "duration": 0.214,
      "velocity": 0.71,
      "hand": "right"
    },
    {
      "midi": 64,
      "time": 22.286,
      "duration": 0.214,
      "velocity": 0.71,
      "hand": "right"
    },
    {
      "midi": 69,
      "time": 22.286,
      "duration": 0.214,
      "velocity": 0.71,
      "hand": "right"
    },
    {
      "midi": 69,
      "time": 22.714,
      "duration": 0.214,
      "velocity": 0.71,
      "hand": "right"
    },
    {
      "midi": 57,
      "time": 23.143,
      "duration": 0.857,
      "velocity": 0.71,
      "hand": "left"
    },
    {
      "midi": 62,
      "time": 23.143,
      "duration": 0.857,
      "velocity": 0.71,
      "hand": "right"
    },
    {
      "midi": 65,
      "time": 23.143,
      "duration": 0.857,
      "velocity": 0.71,
      "hand": "right"
    },
    {
      "midi": 70,
      "time": 23.143,
      "duration": 0.321,
      "velocity": 0.71,
      "hand": "right"
    },
    {
      "midi": 69,
      "time": 23.464,
      "duration": 0.107,
      "velocity": 0.71,
      "hand": "right"
    },
    {
      "midi": 70,
      "time": 23.571,
      "duration": 0.214,
      "velocity": 0.71,
      "hand": "right"
    },
    {
      "midi": 68,
      "time": 23.893,
      "duration": 0.107,
      "velocity": 0.71,
      "hand": "right"
    },
    {
      "midi": 57,
      "time": 24,
      "duration": 0.214,
      "velocity": 0.71,
      "hand": "left"
    },
    {
      "midi": 61,
      "time": 24,
      "duration": 0.214,
      "velocity": 0.71,
      "hand": "right"
    },
    {
      "midi": 64,
      "time": 24,
      "duration": 0.214,
      "velocity": 0.71,
      "hand": "right"
    },
    {
      "midi": 69,
      "time": 24,
      "duration": 0.214,
      "velocity": 0.71,
      "hand": "right"
    },
    {
      "midi": 64,
      "time": 24.429,
      "duration": 0.214,
      "velocity": 0.71,
      "hand": "right"
    },
    {
      "midi": 68,
      "time": 24.429,
      "duration": 0.214,
      "velocity": 0.71,
      "hand": "right"
    },
    {
      "midi": 71,
      "time": 24.429,
      "duration": 0.214,
      "velocity": 0.71,
      "hand": "right"
    },
    {
      "midi": 61,
      "time": 24.857,
      "duration": 0.214,
      "velocity": 0.71,
      "hand": "right"
    },
    {
      "midi": 65,
      "time": 24.857,
      "duration": 0.214,
      "velocity": 0.71,
      "hand": "right"
    },
    {
      "midi": 68,
      "time": 24.857,
      "duration": 0.214,
      "velocity": 0.71,
      "hand": "right"
    },
    {
      "midi": 73,
      "time": 24.857,
      "duration": 0.214,
      "velocity": 0.71,
      "hand": "right"
    },
    {
      "midi": 66,
      "time": 25.286,
      "duration": 0.214,
      "velocity": 0.71,
      "hand": "right"
    },
    {
      "midi": 69,
      "time": 25.286,
      "duration": 0.214,
      "velocity": 0.71,
      "hand": "right"
    },
    {
      "midi": 73,
      "time": 25.286,
      "duration": 0.214,
      "velocity": 0.71,
      "hand": "right"
    },
    {
      "midi": 59,
      "time": 25.714,
      "duration": 0.214,
      "velocity": 0.71,
      "hand": "left"
    },
    {
      "midi": 66,
      "time": 25.714,
      "duration": 0.214,
      "velocity": 0.71,
      "hand": "right"
    },
    {
      "midi": 71,
      "time": 25.714,
      "duration": 0.214,
      "velocity": 0.71,
      "hand": "right"
    },
    {
      "midi": 74,
      "time": 25.714,
      "duration": 0.214,
      "velocity": 0.71,
      "hand": "right"
    },
    {
      "midi": 73,
      "time": 26.036,
      "duration": 0.107,
      "velocity": 0.71,
      "hand": "right"
    },
    {
      "midi": 64,
      "time": 26.143,
      "duration": 0.214,
      "velocity": 0.71,
      "hand": "right"
    },
    {
      "midi": 68,
      "time": 26.143,
      "duration": 0.214,
      "velocity": 0.71,
      "hand": "right"
    },
    {
      "midi": 71,
      "time": 26.143,
      "duration": 0.214,
      "velocity": 0.71,
      "hand": "right"
    },
    {
      "midi": 73,
      "time": 26.464,
      "duration": 0.107,
      "velocity": 0.71,
      "hand": "right"
    },
    {
      "midi": 57,
      "time": 26.571,
      "duration": 0.214,
      "velocity": 0.71,
      "hand": "left"
    },
    {
      "midi": 69,
      "time": 26.571,
      "duration": 0.214,
      "velocity": 0.71,
      "hand": "right"
    },
    {
      "midi": 57,
      "time": 26.893,
      "duration": 0.107,
      "velocity": 0.71,
      "hand": "left"
    },
    {
      "midi": 59,
      "time": 27,
      "duration": 0.214,
      "velocity": 0.71,
      "hand": "left"
    },
    {
      "midi": 61,
      "time": 27.321,
      "duration": 0.107,
      "velocity": 0.71,
      "hand": "right"
    },
    {
      "midi": 62,
      "time": 27.429,
      "duration": 0.214,
      "velocity": 0.71,
      "hand": "right"
    },
    {
      "midi": 66,
      "time": 27.429,
      "duration": 0.214,
      "velocity": 0.71,
      "hand": "right"
    },
    {
      "midi": 69,
      "time": 27.429,
      "duration": 0.214,
      "velocity": 0.71,
      "hand": "right"
    },
    {
      "midi": 74,
      "time": 27.429,
      "duration": 0.214,
      "velocity": 0.71,
      "hand": "right"
    },
    {
      "midi": 74,
      "time": 27.857,
      "duration": 0.214,
      "velocity": 0.71,
      "hand": "right"
    },
    {
      "midi": 62,
      "time": 28.286,
      "duration": 0.321,
      "velocity": 0.71,
      "hand": "right"
    },
    {
      "midi": 67,
      "time": 28.286,
      "duration": 0.321,
      "velocity": 0.71,
      "hand": "right"
    },
    {
      "midi": 71,
      "time": 28.286,
      "duration": 0.321,
      "velocity": 0.71,
      "hand": "right"
    },
    {
      "midi": 66,
      "time": 28.607,
      "duration": 0.107,
      "velocity": 0.71,
      "hand": "right"
    },
    {
      "midi": 70,
      "time": 28.607,
      "duration": 0.107,
      "velocity": 0.71,
      "hand": "right"
    },
    {
      "midi": 67,
      "time": 28.714,
      "duration": 0.214,
      "velocity": 0.71,
      "hand": "right"
    },
    {
      "midi": 71,
      "time": 28.714,
      "duration": 0.214,
      "velocity": 0.71,
      "hand": "right"
    },
    {
      "midi": 64,
      "time": 29.036,
      "duration": 0.107,
      "velocity": 0.71,
      "hand": "right"
    },
    {
      "midi": 73,
      "time": 29.036,
      "duration": 0.107,
      "velocity": 0.71,
      "hand": "right"
    },
    {
      "midi": 62,
      "time": 29.143,
      "duration": 0.214,
      "velocity": 0.71,
      "hand": "right"
    },
    {
      "midi": 66,
      "time": 29.143,
      "duration": 0.214,
      "velocity": 0.71,
      "hand": "right"
    },
    {
      "midi": 69,
      "time": 29.143,
      "duration": 0.214,
      "velocity": 0.71,
      "hand": "right"
    },
    {
      "midi": 74,
      "time": 29.143,
      "duration": 0.214,
      "velocity": 0.71,
      "hand": "right"
    },
    {
      "midi": 74,
      "time": 29.571,
      "duration": 0.214,
      "velocity": 0.71,
      "hand": "right"
    },
    {
      "midi": 62,
      "time": 30,
      "duration": 0.321,
      "velocity": 0.71,
      "hand": "right"
    },
    {
      "midi": 67,
      "time": 30,
      "duration": 0.321,
      "velocity": 0.71,
      "hand": "right"
    },
    {
      "midi": 71,
      "time": 30,
      "duration": 0.321,
      "velocity": 0.71,
      "hand": "right"
    },
    {
      "midi": 66,
      "time": 30.321,
      "duration": 0.107,
      "velocity": 0.71,
      "hand": "right"
    },
    {
      "midi": 70,
      "time": 30.321,
      "duration": 0.107,
      "velocity": 0.71,
      "hand": "right"
    },
    {
      "midi": 67,
      "time": 30.429,
      "duration": 0.214,
      "velocity": 0.71,
      "hand": "right"
    },
    {
      "midi": 71,
      "time": 30.429,
      "duration": 0.214,
      "velocity": 0.71,
      "hand": "right"
    },
    {
      "midi": 64,
      "time": 30.75,
      "duration": 0.107,
      "velocity": 0.71,
      "hand": "right"
    },
    {
      "midi": 73,
      "time": 30.75,
      "duration": 0.107,
      "velocity": 0.71,
      "hand": "right"
    },
    {
      "midi": 62,
      "time": 30.857,
      "duration": 0.214,
      "velocity": 0.71,
      "hand": "right"
    },
    {
      "midi": 66,
      "time": 30.857,
      "duration": 0.214,
      "velocity": 0.71,
      "hand": "right"
    },
    {
      "midi": 69,
      "time": 30.857,
      "duration": 0.214,
      "velocity": 0.71,
      "hand": "right"
    },
    {
      "midi": 74,
      "time": 30.857,
      "duration": 0.214,
      "velocity": 0.71,
      "hand": "right"
    },
    {
      "midi": 69,
      "time": 31.286,
      "duration": 0.214,
      "velocity": 0.71,
      "hand": "right"
    },
    {
      "midi": 73,
      "time": 31.286,
      "duration": 0.214,
      "velocity": 0.71,
      "hand": "right"
    },
    {
      "midi": 76,
      "time": 31.286,
      "duration": 0.214,
      "velocity": 0.71,
      "hand": "right"
    },
    {
      "midi": 74,
      "time": 31.714,
      "duration": 0.214,
      "velocity": 0.71,
      "hand": "right"
    },
    {
      "midi": 78,
      "time": 31.714,
      "duration": 0.214,
      "velocity": 0.71,
      "hand": "right"
    },
    {
      "midi": 74,
      "time": 32.143,
      "duration": 0.214,
      "velocity": 0.71,
      "hand": "right"
    },
    {
      "midi": 78,
      "time": 32.143,
      "duration": 0.214,
      "velocity": 0.71,
      "hand": "right"
    },
    {
      "midi": 62,
      "time": 32.571,
      "duration": 0.214,
      "velocity": 0.71,
      "hand": "right"
    },
    {
      "midi": 69,
      "time": 32.571,
      "duration": 0.214,
      "velocity": 0.71,
      "hand": "right"
    },
    {
      "midi": 76,
      "time": 32.571,
      "duration": 0.214,
      "velocity": 0.71,
      "hand": "right"
    },
    {
      "midi": 79,
      "time": 32.571,
      "duration": 0.214,
      "velocity": 0.71,
      "hand": "right"
    },
    {
      "midi": 74,
      "time": 32.893,
      "duration": 0.107,
      "velocity": 0.71,
      "hand": "right"
    },
    {
      "midi": 78,
      "time": 32.893,
      "duration": 0.107,
      "velocity": 0.71,
      "hand": "right"
    },
    {
      "midi": 73,
      "time": 33,
      "duration": 0.214,
      "velocity": 0.71,
      "hand": "right"
    },
    {
      "midi": 76,
      "time": 33,
      "duration": 0.214,
      "velocity": 0.71,
      "hand": "right"
    },
    {
      "midi": 71,
      "time": 33.321,
      "duration": 0.107,
      "velocity": 0.71,
      "hand": "right"
    },
    {
      "midi": 74,
      "time": 33.321,
      "duration": 0.107,
      "velocity": 0.71,
      "hand": "right"
    },
    {
      "midi": 69,
      "time": 33.429,
      "duration": 0.214,
      "velocity": 0.71,
      "hand": "right"
    },
    {
      "midi": 73,
      "time": 33.429,
      "duration": 0.214,
      "velocity": 0.71,
      "hand": "right"
    },
    {
      "midi": 76,
      "time": 33.429,
      "duration": 0.214,
      "velocity": 0.71,
      "hand": "right"
    },
    {
      "midi": 69,
      "time": 33.643,
      "duration": 0.107,
      "velocity": 0.71,
      "hand": "right"
    },
    {
      "midi": 69,
      "time": 33.75,
      "duration": 0.107,
      "velocity": 0.71,
      "hand": "right"
    },
    {
      "midi": 69,
      "time": 33.857,
      "duration": 0.214,
      "velocity": 0.71,
      "hand": "right"
    },
    {
      "midi": 69,
      "time": 34.071,
      "duration": 0.214,
      "velocity": 0.71,
      "hand": "right"
    },
    {
      "midi": 62,
      "time": 34.286,
      "duration": 0.214,
      "velocity": 0.71,
      "hand": "right"
    },
    {
      "midi": 66,
      "time": 34.286,
      "duration": 0.214,
      "velocity": 0.71,
      "hand": "right"
    },
    {
      "midi": 69,
      "time": 34.286,
      "duration": 0.214,
      "velocity": 0.71,
      "hand": "right"
    },
    {
      "midi": 74,
      "time": 34.286,
      "duration": 0.214,
      "velocity": 0.71,
      "hand": "right"
    },
    {
      "midi": 74,
      "time": 34.714,
      "duration": 0.214,
      "velocity": 0.71,
      "hand": "right"
    },
    {
      "midi": 62,
      "time": 35.143,
      "duration": 0.321,
      "velocity": 0.71,
      "hand": "right"
    },
    {
      "midi": 67,
      "time": 35.143,
      "duration": 0.321,
      "velocity": 0.71,
      "hand": "right"
    },
    {
      "midi": 71,
      "time": 35.143,
      "duration": 0.321,
      "velocity": 0.71,
      "hand": "right"
    },
    {
      "midi": 66,
      "time": 35.464,
      "duration": 0.107,
      "velocity": 0.71,
      "hand": "right"
    },
    {
      "midi": 70,
      "time": 35.464,
      "duration": 0.107,
      "velocity": 0.71,
      "hand": "right"
    },
    {
      "midi": 67,
      "time": 35.571,
      "duration": 0.214,
      "velocity": 0.71,
      "hand": "right"
    },
    {
      "midi": 71,
      "time": 35.571,
      "duration": 0.214,
      "velocity": 0.71,
      "hand": "right"
    },
    {
      "midi": 64,
      "time": 35.893,
      "duration": 0.107,
      "velocity": 0.71,
      "hand": "right"
    },
    {
      "midi": 73,
      "time": 35.893,
      "duration": 0.107,
      "velocity": 0.71,
      "hand": "right"
    },
    {
      "midi": 62,
      "time": 36,
      "duration": 0.214,
      "velocity": 0.71,
      "hand": "right"
    },
    {
      "midi": 66,
      "time": 36,
      "duration": 0.214,
      "velocity": 0.71,
      "hand": "right"
    },
    {
      "midi": 74,
      "time": 36,
      "duration": 0.214,
      "velocity": 0.71,
      "hand": "right"
    },
    {
      "midi": 74,
      "time": 36.429,
      "duration": 0.214,
      "velocity": 0.71,
      "hand": "right"
    },
    {
      "midi": 62,
      "time": 36.857,
      "duration": 0.321,
      "velocity": 0.71,
      "hand": "right"
    },
    {
      "midi": 67,
      "time": 36.857,
      "duration": 0.321,
      "velocity": 0.71,
      "hand": "right"
    },
    {
      "midi": 71,
      "time": 36.857,
      "duration": 0.321,
      "velocity": 0.71,
      "hand": "right"
    },
    {
      "midi": 66,
      "time": 37.179,
      "duration": 0.107,
      "velocity": 0.71,
      "hand": "right"
    },
    {
      "midi": 70,
      "time": 37.179,
      "duration": 0.107,
      "velocity": 0.71,
      "hand": "right"
    },
    {
      "midi": 67,
      "time": 37.286,
      "duration": 0.214,
      "velocity": 0.71,
      "hand": "right"
    },
    {
      "midi": 71,
      "time": 37.286,
      "duration": 0.214,
      "velocity": 0.71,
      "hand": "right"
    },
    {
      "midi": 64,
      "time": 37.607,
      "duration": 0.107,
      "velocity": 0.71,
      "hand": "right"
    },
    {
      "midi": 73,
      "time": 37.607,
      "duration": 0.107,
      "velocity": 0.71,
      "hand": "right"
    },
    {
      "midi": 62,
      "time": 37.714,
      "duration": 0.214,
      "velocity": 0.71,
      "hand": "right"
    },
    {
      "midi": 66,
      "time": 37.714,
      "duration": 0.214,
      "velocity": 0.71,
      "hand": "right"
    },
    {
      "midi": 69,
      "time": 37.714,
      "duration": 0.214,
      "velocity": 0.71,
      "hand": "right"
    },
    {
      "midi": 74,
      "time": 37.714,
      "duration": 0.214,
      "velocity": 0.71,
      "hand": "right"
    },
    {
      "midi": 69,
      "time": 38.143,
      "duration": 0.214,
      "velocity": 0.71,
      "hand": "right"
    },
    {
      "midi": 73,
      "time": 38.143,
      "duration": 0.214,
      "velocity": 0.71,
      "hand": "right"
    },
    {
      "midi": 76,
      "time": 38.143,
      "duration": 0.214,
      "velocity": 0.71,
      "hand": "right"
    },
    {
      "midi": 74,
      "time": 38.571,
      "duration": 0.214,
      "velocity": 0.71,
      "hand": "right"
    },
    {
      "midi": 78,
      "time": 38.571,
      "duration": 0.214,
      "velocity": 0.71,
      "hand": "right"
    },
    {
      "midi": 71,
      "time": 39,
      "duration": 0.214,
      "velocity": 0.71,
      "hand": "right"
    },
    {
      "midi": 74,
      "time": 39,
      "duration": 0.214,
      "velocity": 0.71,
      "hand": "right"
    },
    {
      "midi": 78,
      "time": 39,
      "duration": 0.214,
      "velocity": 0.71,
      "hand": "right"
    },
    {
      "midi": 67,
      "time": 39.429,
      "duration": 0.214,
      "velocity": 0.71,
      "hand": "right"
    },
    {
      "midi": 71,
      "time": 39.429,
      "duration": 0.214,
      "velocity": 0.71,
      "hand": "right"
    },
    {
      "midi": 76,
      "time": 39.429,
      "duration": 0.214,
      "velocity": 0.71,
      "hand": "right"
    },
    {
      "midi": 75,
      "time": 39.75,
      "duration": 0.107,
      "velocity": 0.71,
      "hand": "right"
    },
    {
      "midi": 69,
      "time": 39.857,
      "duration": 0.214,
      "velocity": 0.71,
      "hand": "right"
    },
    {
      "midi": 73,
      "time": 39.857,
      "duration": 0.214,
      "velocity": 0.71,
      "hand": "right"
    },
    {
      "midi": 76,
      "time": 39.857,
      "duration": 0.214,
      "velocity": 0.71,
      "hand": "right"
    },
    {
      "midi": 78,
      "time": 40.179,
      "duration": 0.107,
      "velocity": 0.71,
      "hand": "right"
    },
    {
      "midi": 62,
      "time": 40.286,
      "duration": 0.214,
      "velocity": 0.71,
      "hand": "right"
    },
    {
      "midi": 74,
      "time": 40.286,
      "duration": 0.214,
      "velocity": 0.71,
      "hand": "right"
    }
  ]
}
