{
  "id": "marche-funebre-kv-453amozart",
  "title": "Marcha Fúnebre, KV 453a",
  "artist": "Wolfgang Amadeus Mozart",
  "difficulty": "Médio",
  "bpm": 60,
  "duration": 63,
  "category": "Clássicos",
  "isPremium": true,
  "coverUrl": "/images/covers/placeholder.png",
  "notes": [
    {
      "midi": 36,
      "time": 0,
      "duration": 1,
      "velocity": 0.71,
      "hand": "left"
    },
    {
      "midi": 48,
      "time": 0,
      "duration": 1,
      "velocity": 0.71,
      "hand": "left"
    },
    {
      "midi": 60,
      "time": 0,
      "duration": 1,
      "velocity": 0.71,
      "hand": "right"
    },
    {
      "midi": 63,
      "time": 0,
      "duration": 1,
      "velocity": 0.71,
      "hand": "right"
    },
    {
      "midi": 67,
      "time": 0,
      "duration": 1,
      "velocity": 0.71,
      "hand": "right"
    },
    {
      "midi": 72,
      "time": 0,
      "duration": 1,
      "velocity": 0.71,
      "hand": "right"
    },
    {
      "midi": 36,
      "time": 1,
      "duration": 1,
      "velocity": 0.71,
      "hand": "left"
    },
    {
      "midi": 48,
      "time": 1,
      "duration": 1,
      "velocity": 0.71,
      "hand": "left"
    },
    {
      "midi": 60,
      "time": 1,
      "duration": 0.75,
      "velocity": 0.71,
      "hand": "right"
    },
    {
      "midi": 63,
      "time": 1,
      "duration": 0.75,
      "velocity": 0.71,
      "hand": "right"
    },
    {
      "midi": 67,
      "time": 1,
      "duration": 0.75,
      "velocity": 0.71,
      "hand": "right"
    },
    {
      "midi": 60,
      "time": 1.75,
      "duration": 0.25,
      "velocity": 0.71,
      "hand": "right"
    },
    {
      "midi": 63,
      "time": 1.75,
      "duration": 0.25,
      "velocity": 0.71,
      "hand": "right"
    },
    {
      "midi": 67,
      "time": 1.75,
      "duration": 0.25,
      "velocity": 0.71,
      "hand": "right"
    },
    {
      "midi": 39,
      "time": 2,
      "duration": 1,
      "velocity": 0.71,
      "hand": "left"
    },
    {
      "midi": 51,
      "time": 2,
      "duration": 1,
      "velocity": 0.71,
      "hand": "left"
    },
    {
      "midi": 60,
      "time": 2,
      "duration": 1,
      "velocity": 0.71,
      "hand": "right"
    },
    {
      "midi": 63,
      "time": 2,
      "duration": 1,
      "velocity": 0.71,
      "hand": "right"
    },
    {
      "midi": 67,
      "time": 2,
      "duration": 1,
      "velocity": 0.71,
      "hand": "right"
    },
    {
      "midi": 35,
      "time": 3,
      "duration": 1,
      "velocity": 0.71,
      "hand": "left"
    },
    {
      "midi": 47,
      "time": 3,
      "duration": 1,
      "velocity": 0.71,
      "hand": "left"
    },
    {
      "midi": 62,
      "time": 3,
      "duration": 1,
      "velocity": 0.71,
      "hand": "right"
    },
    {
      "midi": 65,
      "time": 3,
      "duration": 1,
      "velocity": 0.71,
      "hand": "right"
    },
    {
      "midi": 67,
      "time": 3,
      "duration": 1,
      "velocity": 0.71,
      "hand": "right"
    },
    {
      "midi": 36,
      "time": 4,
      "duration": 1,
      "velocity": 0.71,
      "hand": "left"
    },
    {
      "midi": 48,
      "time": 4,
      "duration": 1,
      "velocity": 0.71,
      "hand": "left"
    },
    {
      "midi": 60,
      "time": 4,
      "duration": 1,
      "velocity": 0.71,
      "hand": "right"
    },
    {
      "midi": 63,
      "time": 4,
      "duration": 1,
      "velocity": 0.71,
      "hand": "right"
    },
    {
      "midi": 67,
      "time": 4,
      "duration": 1,
      "velocity": 0.71,
      "hand": "right"
    },
    {
      "midi": 67,
      "time": 5,
      "duration": 0.5,
      "velocity": 0.71,
      "hand": "right"
    },
    {
      "midi": 75,
      "time": 5,
      "duration": 0.5,
      "velocity": 0.71,
      "hand": "right"
    },
    {
      "midi": 66,
      "time": 5.5,
      "duration": 0.5,
      "velocity": 0.71,
      "hand": "right"
    },
    {
      "midi": 74,
      "time": 5.5,
      "duration": 0.5,
      "velocity": 0.71,
      "hand": "right"
    },
    {
      "midi": 68,
      "time": 6,
      "duration": 0.5,
      "velocity": 0.71,
      "hand": "right"
    },
    {
      "midi": 77,
      "time": 6,
      "duration": 0.5,
      "velocity": 0.71,
      "hand": "right"
    },
    {
      "midi": 67,
      "time": 6.5,
      "duration": 0.5,
      "velocity": 0.71,
      "hand": "right"
    },
    {
      "midi": 75,
      "time": 6.5,
      "duration": 0.5,
      "velocity": 0.71,
      "hand": "right"
    },
    {
      "midi": 65,
      "time": 7,
      "duration": 0.5,
      "velocity": 0.71,
      "hand": "right"
    },
    {
      "midi": 74,
      "time": 7,
      "duration": 0.5,
      "velocity": 0.71,
      "hand": "right"
    },
    {
      "midi": 63,
      "time": 7.5,
      "duration": 0.5,
      "velocity": 0.71,
      "hand": "right"
    },
    {
      "midi": 72,
      "time": 7.5,
      "duration": 0.5,
      "velocity": 0.71,
      "hand": "right"
    },
    {
      "midi": 31,
      "time": 8,
      "duration": 1,
      "velocity": 0.71,
      "hand": "left"
    },
    {
      "midi": 43,
      "time": 8,
      "duration": 1,
      "velocity": 0.71,
      "hand": "left"
    },
    {
      "midi": 71,
      "time": 8,
      "duration": 1,
      "velocity": 0.71,
      "hand": "right"
    },
    {
      "midi": 74,
      "time": 8,
      "duration": 1,
      "velocity": 0.71,
      "hand": "right"
    },
    {
      "midi": 79,
      "time": 8,
      "duration": 1,
      "velocity": 0.71,
      "hand": "right"
    },
    {
      "midi": 35,
      "time": 9,
      "duration": 1,
      "velocity": 0.71,
      "hand": "left"
    },
    {
      "midi": 47,
      "time": 9,
      "duration": 1,
      "velocity": 0.71,
      "hand": "left"
    },
    {
      "midi": 62,
      "time": 9,
      "duration": 0.75,
      "velocity": 0.71,
      "hand": "right"
    },
    {
      "midi": 67,
      "time": 9,
      "duration": 0.75,
      "velocity": 0.71,
      "hand": "right"
    },
    {
      "midi": 62,
      "time": 9.75,
      "duration": 0.25,
      "velocity": 0.71,
      "hand": "right"
    },
    {
      "midi": 67,
      "time": 9.75,
      "duration": 0.25,
      "velocity": 0.71,
      "hand": "right"
    },
    {
      "midi": 36,
      "time": 10,
      "duration": 1,
      "velocity": 0.71,
      "hand": "left"
    },
    {
      "midi": 48,
      "time": 10,
      "duration": 1,
      "velocity": 0.71,
      "hand": "left"
    },
    {
      "midi": 63,
      "time": 10,
      "duration": 1,
      "velocity": 0.71,
      "hand": "right"
    },
    {
      "midi": 67,
      "time": 10,
      "duration": 1,
      "velocity": 0.71,
      "hand": "right"
    },
    {
      "midi": 32,
      "time": 11,
      "duration": 1,
      "velocity": 0.71,
      "hand": "left"
    },
    {
      "midi": 44,
      "time": 11,
      "duration": 1,
      "velocity": 0.71,
      "hand": "left"
    },
    {
      "midi": 60,
      "time": 11,
      "duration": 1,
      "velocity": 0.71,
      "hand": "right"
    },
    {
      "midi": 66,
      "time": 11,
      "duration": 1,
      "velocity": 0.71,
      "hand": "right"
    },
    {
      "midi": 31,
      "time": 12,
      "duration": 1,
      "velocity": 0.71,
      "hand": "left"
    },
    {
      "midi": 43,
      "time": 12,
      "duration": 1,
      "velocity": 0.71,
      "hand": "left"
    },
    {
      "midi": 59,
      "time": 12,
      "duration": 1,
      "velocity": 0.71,
      "hand": "left"
    },
    {
      "midi": 67,
      "time": 12,
      "duration": 1,
      "velocity": 0.71,
      "hand": "right"
    },
    {
      "midi": 71,
      "time": 13,
      "duration": 0.5,
      "velocity": 0.71,
      "hand": "right"
    },
    {
      "midi": 74,
      "time": 13,
      "duration": 0.5,
      "velocity": 0.71,
      "hand": "right"
    },
    {
      "midi": 72,
      "time": 13.5,
      "duration": 0.5,
      "velocity": 0.71,
      "hand": "right"
    },
    {
      "midi": 75,
      "time": 13.5,
      "duration": 0.5,
      "velocity": 0.71,
      "hand": "right"
    },
    {
      "midi": 75,
      "time": 14,
      "duration": 0.5,
      "velocity": 0.71,
      "hand": "right"
    },
    {
      "midi": 79,
      "time": 14,
      "duration": 0.5,
      "velocity": 0.71,
      "hand": "right"
    },
    {
      "midi": 74,
      "time": 14.5,
      "duration": 0.5,
      "velocity": 0.71,
      "hand": "right"
    },
    {
      "midi": 77,
      "time": 14.5,
      "duration": 0.5,
      "velocity": 0.71,
      "hand": "right"
    },
    {
      "midi": 72,
      "time": 15,
      "duration": 0.5,
      "velocity": 0.71,
      "hand": "right"
    },
    {
      "midi": 75,
      "time": 15,
      "duration": 0.5,
      "velocity": 0.71,
      "hand": "right"
    },
    {
      "midi": 71,
      "time": 15.5,
      "duration": 0.5,
      "velocity": 0.71,
      "hand": "right"
    },
    {
      "midi": 74,
      "time": 15.5,
      "duration": 0.5,
      "velocity": 0.71,
      "hand": "right"
    },
    {
      "midi": 36,
      "time": 16,
      "duration": 1,
      "velocity": 0.71,
      "hand": "left"
    },
    {
      "midi": 48,
      "time": 16,
      "duration": 1,
      "velocity": 0.71,
      "hand": "left"
    },
    {
      "midi": 72,
      "time": 16,
      "duration": 0.5,
      "velocity": 0.71,
      "hand": "right"
    },
    {
      "midi": 75,
      "time": 16,
      "duration": 0.5,
      "velocity": 0.71,
      "hand": "right"
    },
    {
      "midi": 67,
      "time": 16.5,
      "duration": 1,
      "velocity": 0.71,
      "hand": "right"
    },
    {
      "midi": 75,
      "time": 16.5,
      "duration": 1,
      "velocity": 0.71,
      "hand": "right"
    },
    {
      "midi": 36,
      "time": 17,
      "duration": 1,
      "velocity": 0.71,
      "hand": "left"
    },
    {
      "midi": 48,
      "time": 17,
      "duration": 1,
      "velocity": 0.71,
      "hand": "left"
    },
    {
      "midi": 67,
      "time": 17.5,
      "duration": 1,
      "velocity": 0.71,
      "hand": "right"
    },
    {
      "midi": 75,
      "time": 17.5,
      "duration": 1,
      "velocity": 0.71,
      "hand": "right"
    },
    {
      "midi": 35,
      "time": 18,
      "duration": 1,
      "velocity": 0.71,
      "hand": "left"
    },
    {
      "midi": 47,
      "time": 18,
      "duration": 1,
      "velocity": 0.71,
      "hand": "left"
    },
    {
      "midi": 68,
      "time": 18.5,
      "duration": 1,
      "velocity": 0.71,
      "hand": "right"
    },
    {
      "midi": 75,
      "time": 18.5,
      "duration": 1,
      "velocity": 0.71,
      "hand": "right"
    },
    {
      "midi": 35,
      "time": 19,
      "duration": 1,
      "velocity": 0.71,
      "hand": "left"
    },
    {
      "midi": 47,
      "time": 19,
      "duration": 1,
      "velocity": 0.71,
      "hand": "left"
    },
    {
      "midi": 69,
      "time": 19.5,
      "duration": 0.5,
      "velocity": 0.71,
      "hand": "right"
    },
    {
      "midi": 75,
      "time": 19.5,
      "duration": 0.5,
      "velocity": 0.71,
      "hand": "right"
    },
    {
      "midi": 34,
      "time": 20,
      "duration": 1,
      "velocity": 0.71,
      "hand": "left"
    },
    {
      "midi": 46,
      "time": 20,
      "duration": 1,
      "velocity": 0.71,
      "hand": "left"
    },
    {
      "midi": 70,
      "time": 20,
      "duration": 0.5,
      "velocity": 0.71,
      "hand": "right"
    },
    {
      "midi": 74,
      "time": 20,
      "duration": 0.5,
      "velocity": 0.71,
      "hand": "right"
    },
    {
      "midi": 74,
      "time": 20.5,
      "duration": 1,
      "velocity": 0.71,
      "hand": "right"
    },
    {
      "midi": 80,
      "time": 20.5,
      "duration": 1,
      "velocity": 0.71,
      "hand": "right"
    },
    {
      "midi": 36,
      "time": 21,
      "duration": 1,
      "velocity": 0.71,
      "hand": "left"
    },
    {
      "midi": 48,
      "time": 21,
      "duration": 1,
      "velocity": 0.71,
      "hand": "left"
    },
    {
      "midi": 75,
      "time": 21.5,
      "duration": 1,
      "velocity": 0.71,
      "hand": "right"
    },
    {
      "midi": 80,
      "time": 21.5,
      "duration": 1,
      "velocity": 0.71,
      "hand": "right"
    },
    {
      "midi": 37,
      "time": 22,
      "duration": 1,
      "velocity": 0.71,
      "hand": "left"
    },
    {
      "midi": 49,
      "time": 22,
      "duration": 1,
      "velocity": 0.71,
      "hand": "left"
    },
    {
      "midi": 76,
      "time": 22.5,
      "duration": 1,
      "velocity": 0.71,
      "hand": "right"
    },
    {
      "midi": 80,
      "time": 22.5,
      "duration": 1,
      "velocity": 0.71,
      "hand": "right"
    },
    {
      "midi": 38,
      "time": 23,
      "duration": 1,
      "velocity": 0.71,
      "hand": "left"
    },
    {
      "midi": 50,
      "time": 23,
      "duration": 1,
      "velocity": 0.71,
      "hand": "left"
    },
    {
      "midi": 77,
      "time": 23.5,
      "duration": 0.5,
      "velocity": 0.71,
      "hand": "right"
    },
    {
      "midi": 80,
      "time": 23.5,
      "duration": 0.5,
      "velocity": 0.71,
      "hand": "right"
    },
    {
      "midi": 39,
      "time": 24,
      "duration": 1,
      "velocity": 0.71,
      "hand": "left"
    },
    {
      "midi": 51,
      "time": 24,
      "duration": 1,
      "velocity": 0.71,
      "hand": "left"
    },
    {
      "midi": 70,
      "time": 24,
      "duration": 1,
      "velocity": 0.71,
      "hand": "right"
    },
    {
      "midi": 80,
      "time": 24,
      "duration": 0.5,
      "velocity": 0.71,
      "hand": "right"
    },
    {
      "midi": 79,
      "time": 24.5,
      "duration": 0.5,
      "velocity": 0.71,
      "hand": "right"
    },
    {
      "midi": 56,
      "time": 25,
      "duration": 1,
      "velocity": 0.71,
      "hand": "left"
    },
    {
      "midi": 68,
      "time": 25.5,
      "duration": 0.5,
      "velocity": 0.71,
      "hand": "right"
    },
    {
      "midi": 77,
      "time": 25.5,
      "duration": 0.5,
      "velocity": 0.71,
      "hand": "right"
    },
    {
      "midi": 58,
      "time": 26,
      "duration": 1,
      "velocity": 0.71,
      "hand": "left"
    },
    {
      "midi": 68,
      "time": 26,
      "duration": 0.5,
      "velocity": 0.71,
      "hand": "right"
    },
    {
      "midi": 77,
      "time": 26,
      "duration": 0.5,
      "velocity": 0.71,
      "hand": "right"
    },
    {
      "midi": 67,
      "time": 26.5,
      "duration": 0.5,
      "velocity": 0.71,
      "hand": "right"
    },
    {
      "midi": 75,
      "time": 26.5,
      "duration": 0.5,
      "velocity": 0.71,
      "hand": "right"
    },
    {
      "midi": 46,
      "time": 27,
      "duration": 1,
      "velocity": 0.71,
      "hand": "left"
    },
    {
      "midi": 65,
      "time": 27.5,
      "duration": 0.5,
      "velocity": 0.71,
      "hand": "right"
    },
    {
      "midi": 74,
      "time": 27.5,
      "duration": 0.5,
      "velocity": 0.71,
      "hand": "right"
    },
    {
      "midi": 51,
      "time": 28,
      "duration": 1,
      "velocity": 0.71,
      "hand": "left"
    },
    {
      "midi": 65,
      "time": 28,
      "duration": 2,
      "velocity": 0.71,
      "hand": "right"
    },
    {
      "midi": 68,
      "time": 28,
      "duration": 2,
      "velocity": 0.71,
      "hand": "right"
    },
    {
      "midi": 74,
      "time": 28,
      "duration": 2,
      "velocity": 0.71,
      "hand": "right"
    },
    {
      "midi": 46,
      "time": 29,
      "duration": 1,
      "velocity": 0.71,
      "hand": "left"
    },
    {
      "midi": 39,
      "time": 30,
      "duration": 1,
      "velocity": 0.71,
      "hand": "left"
    },
    {
      "midi": 67,
      "time": 30,
      "duration": 1,
      "velocity": 0.71,
      "hand": "right"
    },
    {
      "midi": 70,
      "time": 30,
      "duration": 1,
      "velocity": 0.71,
      "hand": "right"
    },
    {
      "midi": 75,
      "time": 30,
      "duration": 1,
      "velocity": 0.71,
      "hand": "right"
    },
    {
      "midi": 31,
      "time": 32,
      "duration": 1,
      "velocity": 0.75,
      "hand": "left"
    },
    {
      "midi": 43,
      "time": 32,
      "duration": 1,
      "velocity": 0.75,
      "hand": "left"
    },
    {
      "midi": 71,
      "time": 32,
      "duration": 1,
      "velocity": 0.71,
      "hand": "right"
    },
    {
      "midi": 74,
      "time": 32,
      "duration": 1,
      "velocity": 0.71,
      "hand": "right"
    },
    {
      "midi": 79,
      "time": 32,
      "duration": 1,
      "velocity": 0.71,
      "hand": "right"
    },
    {
      "midi": 59,
      "time": 33,
      "duration": 0.75,
      "velocity": 0.71,
      "hand": "left"
    },
    {
      "midi": 62,
      "time": 33,
      "duration": 0.75,
      "velocity": 0.71,
      "hand": "right"
    },
    {
      "midi": 67,
      "time": 33,
      "duration": 0.75,
      "velocity": 0.71,
      "hand": "right"
    },
    {
      "midi": 59,
      "time": 33.75,
      "duration": 0.25,
      "velocity": 0.71,
      "hand": "left"
    },
    {
      "midi": 62,
      "time": 33.75,
      "duration": 0.25,
      "velocity": 0.71,
      "hand": "right"
    },
    {
      "midi": 67,
      "time": 33.75,
      "duration": 0.25,
      "velocity": 0.71,
      "hand": "right"
    },
    {
      "midi": 43,
      "time": 34,
      "duration": 1,
      "velocity": 0.75,
      "hand": "left"
    },
    {
      "midi": 55,
      "time": 34,
      "duration": 1,
      "velocity": 0.75,
      "hand": "left"
    },
    {
      "midi": 60,
      "time": 34,
      "duration": 2,
      "velocity": 0.71,
      "hand": "right"
    },
    {
      "midi": 63,
      "time": 34,
      "duration": 2,
      "velocity": 0.71,
      "hand": "right"
    },
    {
      "midi": 68,
      "time": 34,
      "duration": 2,
      "velocity": 0.71,
      "hand": "right"
    },
    {
      "midi": 43,
      "time": 35,
      "duration": 0.75,
      "velocity": 0.75,
      "hand": "left"
    },
    {
      "midi": 55,
      "time": 35,
      "duration": 0.75,
      "velocity": 0.75,
      "hand": "left"
    },
    {
      "midi": 43,
      "time": 35.75,
      "duration": 0.25,
      "velocity": 0.75,
      "hand": "left"
    },
    {
      "midi": 55,
      "time": 35.75,
      "duration": 0.25,
      "velocity": 0.75,
      "hand": "left"
    },
    {
      "midi": 43,
      "time": 36,
      "duration": 1,
      "velocity": 0.75,
      "hand": "left"
    },
    {
      "midi": 55,
      "time": 36,
      "duration": 1,
      "velocity": 0.75,
      "hand": "left"
    },
    {
      "midi": 71,
      "time": 36,
      "duration": 1,
      "velocity": 0.71,
      "hand": "right"
    },
    {
      "midi": 74,
      "time": 36,
      "duration": 1,
      "velocity": 0.71,
      "hand": "right"
    },
    {
      "midi": 79,
      "time": 36,
      "duration": 1,
      "velocity": 0.71,
      "hand": "right"
    },
    {
      "midi": 62,
      "time": 37,
      "duration": 0.75,
      "velocity": 0.71,
      "hand": "right"
    },
    {
      "midi": 65,
      "time": 37,
      "duration": 0.75,
      "velocity": 0.71,
      "hand": "right"
    },
    {
      "midi": 71,
      "time": 37,
      "duration": 0.75,
      "velocity": 0.71,
      "hand": "right"
    },
    {
      "midi": 62,
      "time": 37.75,
      "duration": 0.25,
      "velocity": 0.71,
      "hand": "right"
    },
    {
      "midi": 65,
      "time": 37.75,
      "duration": 0.25,
      "velocity": 0.71,
      "hand": "right"
    },
    {
      "midi": 71,
      "time": 37.75,
      "duration": 0.25,
      "velocity": 0.71,
      "hand": "right"
    },
    {
      "midi": 43,
      "time": 38,
      "duration": 1,
      "velocity": 0.75,
      "hand": "left"
    },
    {
      "midi": 55,
      "time": 38,
      "duration": 1,
      "velocity": 0.75,
      "hand": "left"
    },
    {
      "midi": 63,
      "time": 38,
      "duration": 2,
      "velocity": 0.71,
      "hand": "right"
    },
    {
      "midi": 67,
      "time": 38,
      "duration": 2,
      "velocity": 0.71,
      "hand": "right"
    },
    {
      "midi": 72,
      "time": 38,
      "duration": 2,
      "velocity": 0.71,
      "hand": "right"
    },
    {
      "midi": 43,
      "time": 39,
      "duration": 0.75,
      "velocity": 0.75,
      "hand": "left"
    },
    {
      "midi": 55,
      "time": 39,
      "duration": 0.75,
      "velocity": 0.75,
      "hand": "left"
    },
    {
      "midi": 43,
      "time": 39.75,
      "duration": 0.25,
      "velocity": 0.75,
      "hand": "left"
    },
    {
      "midi": 55,
      "time": 39.75,
      "duration": 0.25,
      "velocity": 0.75,
      "hand": "left"
    },
    {
      "midi": 43,
      "time": 40,
      "duration": 1,
      "velocity": 0.75,
      "hand": "left"
    },
    {
      "midi": 55,
      "time": 40,
      "duration": 1,
      "velocity": 0.75,
      "hand": "left"
    },
    {
      "midi": 67,
      "time": 40,
      "duration": 1,
      "velocity": 0.71,
      "hand": "right"
    },
    {
      "midi": 67,
      "time": 41,
      "duration": 0.75,
      "velocity": 0.54,
      "hand": "right"
    },
    {
      "midi": 75,
      "time": 41,
      "duration": 2,
      "velocity": 0.71,
      "hand": "right"
    },
    {
      "midi": 79,
      "time": 41,
      "duration": 1,
      "velocity": 0.54,
      "hand": "right"
    },
    {
      "midi": 67,
      "time": 41.75,
      "duration": 0.25,
      "velocity": 0.54,
      "hand": "right"
    },
    {
      "midi": 67,
      "time": 42,
      "duration": 1,
      "velocity": 0.54,
      "hand": "right"
    },
    {
      "midi": 78,
      "time": 42,
      "duration": 1,
      "velocity": 0.54,
      "hand": "right"
    },
    {
      "midi": 67,
      "time": 43,
      "duration": 0.75,
      "velocity": 0.54,
      "hand": "right"
    },
    {
      "midi": 74,
      "time": 43,
      "duration": 1,
      "velocity": 0.54,
      "hand": "right"
    },
    {
      "midi": 77,
      "time": 43,
      "duration": 1,
      "velocity": 0.54,
      "hand": "right"
    },
    {
      "midi": 67,
      "time": 43.75,
      "duration": 0.25,
      "velocity": 0.54,
      "hand": "right"
    },
    {
      "midi": 67,
      "time": 44,
      "duration": 1,
      "velocity": 0.54,
      "hand": "right"
    },
    {
      "midi": 73,
      "time": 44,
      "duration": 1,
      "velocity": 0.54,
      "hand": "right"
    },
    {
      "midi": 76,
      "time": 44,
      "duration": 1,
      "velocity": 0.54,
      "hand": "right"
    },
    {
      "midi": 66,
      "time": 45,
      "duration": 0.75,
      "velocity": 0.54,
      "hand": "right"
    },
    {
      "midi": 72,
      "time": 45,
      "duration": 1,
      "velocity": 0.54,
      "hand": "right"
    },
    {
      "midi": 75,
      "time": 45,
      "duration": 1,
      "velocity": 0.54,
      "hand": "right"
    },
    {
      "midi": 66,
      "time": 45.75,
      "duration": 0.25,
      "velocity": 0.54,
      "hand": "right"
    },
    {
      "midi": 67,
      "time": 46,
      "duration": 1,
      "velocity": 0.54,
      "hand": "right"
    },
    {
      "midi": 71,
      "time": 46,
      "duration": 1,
      "velocity": 0.54,
      "hand": "right"
    },
    {
      "midi": 74,
      "time": 46,
      "duration": 1,
      "velocity": 0.54,
      "hand": "right"
    },
    {
      "midi": 41,
      "time": 47,
      "duration": 0.75,
      "velocity": 0.75,
      "hand": "left"
    },
    {
      "midi": 53,
      "time": 47,
      "duration": 0.75,
      "velocity": 0.75,
      "hand": "left"
    },
    {
      "midi": 41,
      "time": 47.75,
      "duration": 0.25,
      "velocity": 0.75,
      "hand": "left"
    },
    {
      "midi": 53,
      "time": 47.75,
      "duration": 0.25,
      "velocity": 0.75,
      "hand": "left"
    },
    {
      "midi": 39,
      "time": 48,
      "duration": 1,
      "velocity": 0.75,
      "hand": "left"
    },
    {
      "midi": 51,
      "time": 48,
      "duration": 1,
      "velocity": 0.75,
      "hand": "left"
    },
    {
      "midi": 72,
      "time": 48,
      "duration": 1,
      "velocity": 0.71,
      "hand": "right"
    },
    {
      "midi": 79,
      "time": 48,
      "duration": 1,
      "velocity": 0.71,
      "hand": "right"
    },
    {
      "midi": 84,
      "time": 48,
      "duration": 1,
      "velocity": 0.71,
      "hand": "right"
    },
    {
      "midi": 39,
      "time": 49,
      "duration": 0.75,
      "velocity": 0.75,
      "hand": "left"
    },
    {
      "midi": 51,
      "time": 49,
      "duration": 0.75,
      "velocity": 0.75,
      "hand": "left"
    },
    {
      "midi": 63,
      "time": 49,
      "duration": 0.75,
      "velocity": 0.71,
      "hand": "right"
    },
    {
      "midi": 67,
      "time": 49,
      "duration": 0.75,
      "velocity": 0.71,
      "hand": "right"
    },
    {
      "midi": 72,
      "time": 49,
      "duration": 0.75,
      "velocity": 0.71,
      "hand": "right"
    },
    {
      "midi": 39,
      "time": 49.75,
      "duration": 0.25,
      "velocity": 0.75,
      "hand": "left"
    },
    {
      "midi": 51,
      "time": 49.75,
      "duration": 0.25,
      "velocity": 0.75,
      "hand": "left"
    },
    {
      "midi": 63,
      "time": 49.75,
      "duration": 0.25,
      "velocity": 0.71,
      "hand": "right"
    },
    {
      "midi": 67,
      "time": 49.75,
      "duration": 0.25,
      "velocity": 0.71,
      "hand": "right"
    },
    {
      "midi": 72,
      "time": 49.75,
      "duration": 0.25,
      "velocity": 0.71,
      "hand": "right"
    },
    {
      "midi": 39,
      "time": 50,
      "duration": 1,
      "velocity": 0.75,
      "hand": "left"
    },
    {
      "midi": 51,
      "time": 50,
      "duration": 1,
      "velocity": 0.75,
      "hand": "left"
    },
    {
      "midi": 63,
      "time": 50,
      "duration": 1,
      "velocity": 0.71,
      "hand": "right"
    },
    {
      "midi": 67,
      "time": 50,
      "duration": 1,
      "velocity": 0.71,
      "hand": "right"
    },
    {
      "midi": 72,
      "time": 50,
      "duration": 1,
      "velocity": 0.71,
      "hand": "right"
    },
    {
      "midi": 39,
      "time": 51,
      "duration": 1,
      "velocity": 0.75,
      "hand": "left"
    },
    {
      "midi": 51,
      "time": 51,
      "duration": 1,
      "velocity": 0.75,
      "hand": "left"
    },
    {
      "midi": 63,
      "time": 51,
      "duration": 1,
      "velocity": 0.71,
      "hand": "right"
    },
    {
      "midi": 67,
      "time": 51,
      "duration": 1,
      "velocity": 0.71,
      "hand": "right"
    },
    {
      "midi": 72,
      "time": 51,
      "duration": 1,
      "velocity": 0.71,
      "hand": "right"
    },
    {
      "midi": 41,
      "time": 52,
      "duration": 1,
      "velocity": 0.75,
      "hand": "left"
    },
    {
      "midi": 53,
      "time": 52,
      "duration": 1,
      "velocity": 0.75,
      "hand": "left"
    },
    {
      "midi": 61,
      "time": 52,
      "duration": 1,
      "velocity": 0.71,
      "hand": "right"
    },
    {
      "midi": 68,
      "time": 52,
      "duration": 1,
      "velocity": 0.71,
      "hand": "right"
    },
    {
      "midi": 73,
      "time": 52,
      "duration": 1,
      "velocity": 0.71,
      "hand": "right"
    },
    {
      "midi": 77,
      "time": 53,
      "duration": 1,
      "velocity": 0.71,
      "hand": "right"
    },
    {
      "midi": 85,
      "time": 53,
      "duration": 1,
      "velocity": 0.71,
      "hand": "right"
    },
    {
      "midi": 80,
      "time": 54,
      "duration": 1,
      "velocity": 0.71,
      "hand": "right"
    },
    {
      "midi": 89,
      "time": 54,
      "duration": 1,
      "velocity": 0.71,
      "hand": "right"
    },
    {
      "midi": 65,
      "time": 55,
      "duration": 1,
      "velocity": 0.54,
      "hand": "right"
    },
    {
      "midi": 68,
      "time": 55,
      "duration": 1,
      "velocity": 0.54,
      "hand": "right"
    },
    {
      "midi": 74,
      "time": 55,
      "duration": 1,
      "velocity": 0.71,
      "hand": "right"
    },
    {
      "midi": 83,
      "time": 55,
      "duration": 1,
      "velocity": 0.71,
      "hand": "right"
    },
    {
      "midi": 63,
      "time": 56,
      "duration": 1,
      "velocity": 0.54,
      "hand": "right"
    },
    {
      "midi": 67,
      "time": 56,
      "duration": 1,
      "velocity": 0.54,
      "hand": "right"
    },
    {
      "midi": 86,
      "time": 56,
      "duration": 0.5,
      "velocity": 0.71,
      "hand": "right"
    },
    {
      "midi": 84,
      "time": 56.5,
      "duration": 0.5,
      "velocity": 0.71,
      "hand": "right"
    },
    {
      "midi": 65,
      "time": 57,
      "duration": 1,
      "velocity": 0.54,
      "hand": "right"
    },
    {
      "midi": 77,
      "time": 57.5,
      "duration": 0.5,
      "velocity": 0.71,
      "hand": "right"
    },
    {
      "midi": 80,
      "time": 57.5,
      "duration": 0.5,
      "velocity": 0.71,
      "hand": "right"
    },
    {
      "midi": 67,
      "time": 58,
      "duration": 1,
      "velocity": 0.54,
      "hand": "right"
    },
    {
      "midi": 77,
      "time": 58,
      "duration": 0.5,
      "velocity": 0.71,
      "hand": "right"
    },
    {
      "midi": 80,
      "time": 58,
      "duration": 0.5,
      "velocity": 0.71,
      "hand": "right"
    },
    {
      "midi": 75,
      "time": 58.5,
      "duration": 0.5,
      "velocity": 0.71,
      "hand": "right"
    },
    {
      "midi": 79,
      "time": 58.5,
      "duration": 0.5,
      "velocity": 0.71,
      "hand": "right"
    },
    {
      "midi": 55,
      "time": 59,
      "duration": 1,
      "velocity": 0.54,
      "hand": "left"
    },
    {
      "midi": 62,
      "time": 59.5,
      "duration": 0.5,
      "velocity": 0.71,
      "hand": "right"
    },
    {
      "midi": 71,
      "time": 59.5,
      "duration": 0.5,
      "velocity": 0.71,
      "hand": "right"
    },
    {
      "midi": 60,
      "time": 60,
      "duration": 1,
      "velocity": 0.54,
      "hand": "right"
    },
    {
      "midi": 65,
      "time": 60,
      "duration": 2,
      "velocity": 0.71,
      "hand": "right"
    },
    {
      "midi": 67,
      "time": 60,
      "duration": 3,
      "velocity": 0.71,
      "hand": "right"
    },
    {
      "midi": 71,
      "time": 60,
      "duration": 2,
      "velocity": 0.71,
      "hand": "right"
    },
    {
      "midi": 74,
      "time": 60,
      "duration": 2,
      "velocity": 0.71,
      "hand": "right"
    },
    {
      "midi": 55,
      "time": 61,
      "duration": 1,
      "velocity": 0.54,
      "hand": "left"
    },
    {
      "midi": 48,
      "time": 62,
      "duration": 1,
      "velocity": 0.54,
      "hand": "left"
    },
    {
      "midi": 63,
      "time": 62,
      "duration": 1,
      "velocity": 0.71,
      "hand": "right"
    },
    {
      "midi": 72,
      "time": 62,
      "duration": 1,
      "velocity": 0.71,
      "hand": "right"
    }
  ],
  "arrangements": {
    "easy": [
      {
        "midi": 72,
        "time": 0,
        "duration": 1,
        "velocity": 0.71,
        "hand": "right"
      },
      {
        "midi": 67,
        "time": 1,
        "duration": 0.75,
        "velocity": 0.71,
        "hand": "right"
      },
      {
        "midi": 67,
        "time": 1.75,
        "duration": 0.5,
        "velocity": 0.71,
        "hand": "right"
      },
      {
        "midi": 67,
        "time": 3,
        "duration": 1,
        "velocity": 0.71,
        "hand": "right"
      },
      {
        "midi": 67,
        "time": 4,
        "duration": 1,
        "velocity": 0.71,
        "hand": "right"
      },
      {
        "midi": 75,
        "time": 5,
        "duration": 0.5,
        "velocity": 0.71,
        "hand": "right"
      },
      {
        "midi": 74,
        "time": 5.5,
        "duration": 0.5,
        "velocity": 0.71,
        "hand": "right"
      },
      {
        "midi": 77,
        "time": 6,
        "duration": 0.5,
        "velocity": 0.71,
        "hand": "right"
      },
      {
        "midi": 75,
        "time": 6.5,
        "duration": 0.5,
        "velocity": 0.71,
        "hand": "right"
      },
      {
        "midi": 74,
        "time": 7,
        "duration": 0.5,
        "velocity": 0.71,
        "hand": "right"
      },
      {
        "midi": 72,
        "time": 7.5,
        "duration": 0.5,
        "velocity": 0.71,
        "hand": "right"
      },
      {
        "midi": 79,
        "time": 8,
        "duration": 1,
        "velocity": 0.71,
        "hand": "right"
      },
      {
        "midi": 67,
        "time": 9,
        "duration": 0.75,
        "velocity": 0.71,
        "hand": "right"
      },
      {
        "midi": 67,
        "time": 9.75,
        "duration": 0.5,
        "velocity": 0.71,
        "hand": "right"
      },
      {
        "midi": 66,
        "time": 11,
        "duration": 1,
        "velocity": 0.71,
        "hand": "right"
      },
      {
        "midi": 67,
        "time": 12,
        "duration": 1,
        "velocity": 0.71,
        "hand": "right"
      },
      {
        "midi": 74,
        "time": 13,
        "duration": 0.5,
        "velocity": 0.71,
        "hand": "right"
      },
      {
        "midi": 75,
        "time": 13.5,
        "duration": 0.5,
        "velocity": 0.71,
        "hand": "right"
      },
      {
        "midi": 79,
        "time": 14,
        "duration": 0.5,
        "velocity": 0.71,
        "hand": "right"
      },
      {
        "midi": 77,
        "time": 14.5,
        "duration": 0.5,
        "velocity": 0.71,
        "hand": "right"
      },
      {
        "midi": 75,
        "time": 15,
        "duration": 0.5,
        "velocity": 0.71,
        "hand": "right"
      },
      {
        "midi": 74,
        "time": 15.5,
        "duration": 0.5,
        "velocity": 0.71,
        "hand": "right"
      },
      {
        "midi": 75,
        "time": 16,
        "duration": 0.5,
        "velocity": 0.71,
        "hand": "right"
      },
      {
        "midi": 75,
        "time": 17.5,
        "duration": 1,
        "velocity": 0.71,
        "hand": "right"
      },
      {
        "midi": 75,
        "time": 18.5,
        "duration": 1,
        "velocity": 0.71,
        "hand": "right"
      },
      {
        "midi": 75,
        "time": 19.5,
        "duration": 0.5,
        "velocity": 0.71,
        "hand": "right"
      },
      {
        "midi": 74,
        "time": 20,
        "duration": 0.5,
        "velocity": 0.71,
        "hand": "right"
      },
      {
        "midi": 80,
        "time": 20.5,
        "duration": 1,
        "velocity": 0.71,
        "hand": "right"
      },
      {
        "midi": 80,
        "time": 21.5,
        "duration": 1,
        "velocity": 0.71,
        "hand": "right"
      },
      {
        "midi": 80,
        "time": 22.5,
        "duration": 1,
        "velocity": 0.71,
        "hand": "right"
      },
      {
        "midi": 80,
        "time": 23.5,
        "duration": 0.5,
        "velocity": 0.71,
        "hand": "right"
      },
      {
        "midi": 79,
        "time": 24.5,
        "duration": 0.5,
        "velocity": 0.71,
        "hand": "right"
      },
      {
        "midi": 77,
        "time": 25.5,
        "duration": 0.5,
        "velocity": 0.71,
        "hand": "right"
      },
      {
        "midi": 75,
        "time": 26.5,
        "duration": 0.5,
        "velocity": 0.71,
        "hand": "right"
      },
      {
        "midi": 74,
        "time": 27.5,
        "duration": 0.5,
        "velocity": 0.71,
        "hand": "right"
      },
      {
        "midi": 75,
        "time": 30,
        "duration": 1,
        "velocity": 0.71,
        "hand": "right"
      },
      {
        "midi": 79,
        "time": 32,
        "duration": 1,
        "velocity": 0.71,
        "hand": "right"
      },
      {
        "midi": 67,
        "time": 33,
        "duration": 0.75,
        "velocity": 0.71,
        "hand": "right"
      },
      {
        "midi": 67,
        "time": 33.75,
        "duration": 0.5,
        "velocity": 0.71,
        "hand": "right"
      },
      {
        "midi": 79,
        "time": 36,
        "duration": 1,
        "velocity": 0.71,
        "hand": "right"
      },
      {
        "midi": 71,
        "time": 37,
        "duration": 0.75,
        "velocity": 0.71,
        "hand": "right"
      },
      {
        "midi": 71,
        "time": 37.75,
        "duration": 0.5,
        "velocity": 0.71,
        "hand": "right"
      },
      {
        "midi": 67,
        "time": 40,
        "duration": 1,
        "velocity": 0.71,
        "hand": "right"
      },
      {
        "midi": 79,
        "time": 41,
        "duration": 1,
        "velocity": 0.54,
        "hand": "right"
      },
      {
        "midi": 67,
        "time": 41.75,
        "duration": 0.5,
        "velocity": 0.54,
        "hand": "right"
      },
      {
        "midi": 77,
        "time": 43,
        "duration": 1,
        "velocity": 0.54,
        "hand": "right"
      },
      {
        "midi": 67,
        "time": 43.75,
        "duration": 0.5,
        "velocity": 0.54,
        "hand": "right"
      },
      {
        "midi": 75,
        "time": 45,
        "duration": 1,
        "velocity": 0.54,
        "hand": "right"
      },
      {
        "midi": 66,
        "time": 45.75,
        "duration": 0.5,
        "velocity": 0.54,
        "hand": "right"
      },
      {
        "midi": 84,
        "time": 48,
        "duration": 1,
        "velocity": 0.71,
        "hand": "right"
      },
      {
        "midi": 72,
        "time": 49,
        "duration": 0.75,
        "velocity": 0.71,
        "hand": "right"
      },
      {
        "midi": 72,
        "time": 49.75,
        "duration": 0.5,
        "velocity": 0.71,
        "hand": "right"
      },
      {
        "midi": 72,
        "time": 51,
        "duration": 1,
        "velocity": 0.71,
        "hand": "right"
      },
      {
        "midi": 73,
        "time": 52,
        "duration": 1,
        "velocity": 0.71,
        "hand": "right"
      },
      {
        "midi": 85,
        "time": 53,
        "duration": 1,
        "velocity": 0.71,
        "hand": "right"
      },
      {
        "midi": 89,
        "time": 54,
        "duration": 1,
        "velocity": 0.71,
        "hand": "right"
      },
      {
        "midi": 83,
        "time": 55,
        "duration": 1,
        "velocity": 0.71,
        "hand": "right"
      },
      {
        "midi": 86,
        "time": 56,
        "duration": 0.5,
        "velocity": 0.71,
        "hand": "right"
      },
      {
        "midi": 84,
        "time": 56.5,
        "duration": 0.5,
        "velocity": 0.71,
        "hand": "right"
      },
      {
        "midi": 65,
        "time": 57,
        "duration": 1,
        "velocity": 0.54,
        "hand": "right"
      },
      {
        "midi": 80,
        "time": 57.5,
        "duration": 0.5,
        "velocity": 0.71,
        "hand": "right"
      },
      {
        "midi": 79,
        "time": 58.5,
        "duration": 0.5,
        "velocity": 0.71,
        "hand": "right"
      },
      {
        "midi": 71,
        "time": 59.5,
        "duration": 0.5,
        "velocity": 0.71,
        "hand": "right"
      },
      {
        "midi": 74,
        "time": 60,
        "duration": 2,
        "velocity": 0.71,
        "hand": "right"
      },
      {
        "midi": 72,
        "time": 62,
        "duration": 1,
        "velocity": 0.71,
        "hand": "right"
      }
    ],
    "medium": [
      {
        "midi": 36,
        "time": 0,
        "duration": 1,
        "velocity": 0.71,
        "hand": "left"
      },
      {
        "midi": 63,
        "time": 0,
        "duration": 1,
        "velocity": 0.71,
        "hand": "right"
      },
      {
        "midi": 72,
        "time": 0,
        "duration": 1,
        "velocity": 0.71,
        "hand": "right"
      },
      {
        "midi": 36,
        "time": 1,
        "duration": 1,
        "velocity": 0.71,
        "hand": "left"
      },
      {
        "midi": 60,
        "time": 1,
        "duration": 0.75,
        "velocity": 0.71,
        "hand": "right"
      },
      {
        "midi": 67,
        "time": 1,
        "duration": 0.75,
        "velocity": 0.71,
        "hand": "right"
      },
      {
        "midi": 60,
        "time": 1.75,
        "duration": 0.25,
        "velocity": 0.71,
        "hand": "right"
      },
      {
        "midi": 63,
        "time": 1.75,
        "duration": 0.25,
        "velocity": 0.71,
        "hand": "right"
      },
      {
        "midi": 67,
        "time": 1.75,
        "duration": 0.25,
        "velocity": 0.71,
        "hand": "right"
      },
      {
        "midi": 39,
        "time": 2,
        "duration": 1,
        "velocity": 0.71,
        "hand": "left"
      },
      {
        "midi": 60,
        "time": 2,
        "duration": 1,
        "velocity": 0.71,
        "hand": "right"
      },
      {
        "midi": 67,
        "time": 2,
        "duration": 1,
        "velocity": 0.71,
        "hand": "right"
      },
      {
        "midi": 35,
        "time": 3,
        "duration": 1,
        "velocity": 0.71,
        "hand": "left"
      },
      {
        "midi": 62,
        "time": 3,
        "duration": 1,
        "velocity": 0.71,
        "hand": "right"
      },
      {
        "midi": 67,
        "time": 3,
        "duration": 1,
        "velocity": 0.71,
        "hand": "right"
      },
      {
        "midi": 36,
        "time": 4,
        "duration": 1,
        "velocity": 0.71,
        "hand": "left"
      },
      {
        "midi": 60,
        "time": 4,
        "duration": 1,
        "velocity": 0.71,
        "hand": "right"
      },
      {
        "midi": 67,
        "time": 4,
        "duration": 1,
        "velocity": 0.71,
        "hand": "right"
      },
      {
        "midi": 67,
        "time": 5,
        "duration": 0.5,
        "velocity": 0.71,
        "hand": "right"
      },
      {
        "midi": 75,
        "time": 5,
        "duration": 0.5,
        "velocity": 0.71,
        "hand": "right"
      },
      {
        "midi": 66,
        "time": 5.5,
        "duration": 0.5,
        "velocity": 0.71,
        "hand": "right"
      },
      {
        "midi": 74,
        "time": 5.5,
        "duration": 0.5,
        "velocity": 0.71,
        "hand": "right"
      },
      {
        "midi": 68,
        "time": 6,
        "duration": 0.5,
        "velocity": 0.71,
        "hand": "right"
      },
      {
        "midi": 77,
        "time": 6,
        "duration": 0.5,
        "velocity": 0.71,
        "hand": "right"
      },
      {
        "midi": 67,
        "time": 6.5,
        "duration": 0.5,
        "velocity": 0.71,
        "hand": "right"
      },
      {
        "midi": 75,
        "time": 6.5,
        "duration": 0.5,
        "velocity": 0.71,
        "hand": "right"
      },
      {
        "midi": 65,
        "time": 7,
        "duration": 0.5,
        "velocity": 0.71,
        "hand": "right"
      },
      {
        "midi": 74,
        "time": 7,
        "duration": 0.5,
        "velocity": 0.71,
        "hand": "right"
      },
      {
        "midi": 63,
        "time": 7.5,
        "duration": 0.5,
        "velocity": 0.71,
        "hand": "right"
      },
      {
        "midi": 72,
        "time": 7.5,
        "duration": 0.5,
        "velocity": 0.71,
        "hand": "right"
      },
      {
        "midi": 31,
        "time": 8,
        "duration": 1,
        "velocity": 0.71,
        "hand": "left"
      },
      {
        "midi": 71,
        "time": 8,
        "duration": 1,
        "velocity": 0.71,
        "hand": "right"
      },
      {
        "midi": 79,
        "time": 8,
        "duration": 1,
        "velocity": 0.71,
        "hand": "right"
      },
      {
        "midi": 35,
        "time": 9,
        "duration": 1,
        "velocity": 0.71,
        "hand": "left"
      },
      {
        "midi": 62,
        "time": 9,
        "duration": 0.75,
        "velocity": 0.71,
        "hand": "right"
      },
      {
        "midi": 67,
        "time": 9,
        "duration": 0.75,
        "velocity": 0.71,
        "hand": "right"
      },
      {
        "midi": 62,
        "time": 9.75,
        "duration": 0.25,
        "velocity": 0.71,
        "hand": "right"
      },
      {
        "midi": 67,
        "time": 9.75,
        "duration": 0.25,
        "velocity": 0.71,
        "hand": "right"
      },
      {
        "midi": 36,
        "time": 10,
        "duration": 1,
        "velocity": 0.71,
        "hand": "left"
      },
      {
        "midi": 63,
        "time": 10,
        "duration": 1,
        "velocity": 0.71,
        "hand": "right"
      },
      {
        "midi": 67,
        "time": 10,
        "duration": 1,
        "velocity": 0.71,
        "hand": "right"
      },
      {
        "midi": 32,
        "time": 11,
        "duration": 1,
        "velocity": 0.71,
        "hand": "left"
      },
      {
        "midi": 60,
        "time": 11,
        "duration": 1,
        "velocity": 0.71,
        "hand": "right"
      },
      {
        "midi": 66,
        "time": 11,
        "duration": 1,
        "velocity": 0.71,
        "hand": "right"
      },
      {
        "midi": 31,
        "time": 12,
        "duration": 1,
        "velocity": 0.71,
        "hand": "left"
      },
      {
        "midi": 59,
        "time": 12,
        "duration": 1,
        "velocity": 0.71,
        "hand": "left"
      },
      {
        "midi": 67,
        "time": 12,
        "duration": 1,
        "velocity": 0.71,
        "hand": "right"
      },
      {
        "midi": 71,
        "time": 13,
        "duration": 0.5,
        "velocity": 0.71,
        "hand": "right"
      },
      {
        "midi": 74,
        "time": 13,
        "duration": 0.5,
        "velocity": 0.71,
        "hand": "right"
      },
      {
        "midi": 72,
        "time": 13.5,
        "duration": 0.5,
        "velocity": 0.71,
        "hand": "right"
      },
      {
        "midi": 75,
        "time": 13.5,
        "duration": 0.5,
        "velocity": 0.71,
        "hand": "right"
      },
      {
        "midi": 75,
        "time": 14,
        "duration": 0.5,
        "velocity": 0.71,
        "hand": "right"
      },
      {
        "midi": 79,
        "time": 14,
        "duration": 0.5,
        "velocity": 0.71,
        "hand": "right"
      },
      {
        "midi": 74,
        "time": 14.5,
        "duration": 0.5,
        "velocity": 0.71,
        "hand": "right"
      },
      {
        "midi": 77,
        "time": 14.5,
        "duration": 0.5,
        "velocity": 0.71,
        "hand": "right"
      },
      {
        "midi": 72,
        "time": 15,
        "duration": 0.5,
        "velocity": 0.71,
        "hand": "right"
      },
      {
        "midi": 75,
        "time": 15,
        "duration": 0.5,
        "velocity": 0.71,
        "hand": "right"
      },
      {
        "midi": 71,
        "time": 15.5,
        "duration": 0.5,
        "velocity": 0.71,
        "hand": "right"
      },
      {
        "midi": 74,
        "time": 15.5,
        "duration": 0.5,
        "velocity": 0.71,
        "hand": "right"
      },
      {
        "midi": 36,
        "time": 16,
        "duration": 1,
        "velocity": 0.71,
        "hand": "left"
      },
      {
        "midi": 72,
        "time": 16,
        "duration": 0.5,
        "velocity": 0.71,
        "hand": "right"
      },
      {
        "midi": 75,
        "time": 16,
        "duration": 0.5,
        "velocity": 0.71,
        "hand": "right"
      },
      {
        "midi": 67,
        "time": 16.5,
        "duration": 1,
        "velocity": 0.71,
        "hand": "right"
      },
      {
        "midi": 75,
        "time": 16.5,
        "duration": 1,
        "velocity": 0.71,
        "hand": "right"
      },
      {
        "midi": 36,
        "time": 17,
        "duration": 1,
        "velocity": 0.71,
        "hand": "left"
      },
      {
        "midi": 48,
        "time": 17,
        "duration": 1,
        "velocity": 0.71,
        "hand": "left"
      },
      {
        "midi": 67,
        "time": 17.5,
        "duration": 1,
        "velocity": 0.71,
        "hand": "right"
      },
      {
        "midi": 75,
        "time": 17.5,
        "duration": 1,
        "velocity": 0.71,
        "hand": "right"
      },
      {
        "midi": 35,
        "time": 18,
        "duration": 1,
        "velocity": 0.71,
        "hand": "left"
      },
      {
        "midi": 47,
        "time": 18,
        "duration": 1,
        "velocity": 0.71,
        "hand": "left"
      },
      {
        "midi": 68,
        "time": 18.5,
        "duration": 1,
        "velocity": 0.71,
        "hand": "right"
      },
      {
        "midi": 75,
        "time": 18.5,
        "duration": 1,
        "velocity": 0.71,
        "hand": "right"
      },
      {
        "midi": 35,
        "time": 19,
        "duration": 1,
        "velocity": 0.71,
        "hand": "left"
      },
      {
        "midi": 47,
        "time": 19,
        "duration": 1,
        "velocity": 0.71,
        "hand": "left"
      },
      {
        "midi": 69,
        "time": 19.5,
        "duration": 0.5,
        "velocity": 0.71,
        "hand": "right"
      },
      {
        "midi": 75,
        "time": 19.5,
        "duration": 0.5,
        "velocity": 0.71,
        "hand": "right"
      },
      {
        "midi": 34,
        "time": 20,
        "duration": 1,
        "velocity": 0.71,
        "hand": "left"
      },
      {
        "midi": 70,
        "time": 20,
        "duration": 0.5,
        "velocity": 0.71,
        "hand": "right"
      },
      {
        "midi": 74,
        "time": 20,
        "duration": 0.5,
        "velocity": 0.71,
        "hand": "right"
      },
      {
        "midi": 74,
        "time": 20.5,
        "duration": 1,
        "velocity": 0.71,
        "hand": "right"
      },
      {
        "midi": 80,
        "time": 20.5,
        "duration": 1,
        "velocity": 0.71,
        "hand": "right"
      },
      {
        "midi": 36,
        "time": 21,
        "duration": 1,
        "velocity": 0.71,
        "hand": "left"
      },
      {
        "midi": 48,
        "time": 21,
        "duration": 1,
        "velocity": 0.71,
        "hand": "left"
      },
      {
        "midi": 75,
        "time": 21.5,
        "duration": 1,
        "velocity": 0.71,
        "hand": "right"
      },
      {
        "midi": 80,
        "time": 21.5,
        "duration": 1,
        "velocity": 0.71,
        "hand": "right"
      },
      {
        "midi": 37,
        "time": 22,
        "duration": 1,
        "velocity": 0.71,
        "hand": "left"
      },
      {
        "midi": 49,
        "time": 22,
        "duration": 1,
        "velocity": 0.71,
        "hand": "left"
      },
      {
        "midi": 76,
        "time": 22.5,
        "duration": 1,
        "velocity": 0.71,
        "hand": "right"
      },
      {
        "midi": 80,
        "time": 22.5,
        "duration": 1,
        "velocity": 0.71,
        "hand": "right"
      },
      {
        "midi": 38,
        "time": 23,
        "duration": 1,
        "velocity": 0.71,
        "hand": "left"
      },
      {
        "midi": 50,
        "time": 23,
        "duration": 1,
        "velocity": 0.71,
        "hand": "left"
      },
      {
        "midi": 77,
        "time": 23.5,
        "duration": 0.5,
        "velocity": 0.71,
        "hand": "right"
      },
      {
        "midi": 80,
        "time": 23.5,
        "duration": 0.5,
        "velocity": 0.71,
        "hand": "right"
      },
      {
        "midi": 39,
        "time": 24,
        "duration": 1,
        "velocity": 0.71,
        "hand": "left"
      },
      {
        "midi": 70,
        "time": 24,
        "duration": 1,
        "velocity": 0.71,
        "hand": "right"
      },
      {
        "midi": 80,
        "time": 24,
        "duration": 0.5,
        "velocity": 0.71,
        "hand": "right"
      },
      {
        "midi": 79,
        "time": 24.5,
        "duration": 0.5,
        "velocity": 0.71,
        "hand": "right"
      },
      {
        "midi": 56,
        "time": 25,
        "duration": 1,
        "velocity": 0.71,
        "hand": "left"
      },
      {
        "midi": 68,
        "time": 25.5,
        "duration": 0.5,
        "velocity": 0.71,
        "hand": "right"
      },
      {
        "midi": 77,
        "time": 25.5,
        "duration": 0.5,
        "velocity": 0.71,
        "hand": "right"
      },
      {
        "midi": 58,
        "time": 26,
        "duration": 1,
        "velocity": 0.71,
        "hand": "left"
      },
      {
        "midi": 68,
        "time": 26,
        "duration": 0.5,
        "velocity": 0.71,
        "hand": "right"
      },
      {
        "midi": 77,
        "time": 26,
        "duration": 0.5,
        "velocity": 0.71,
        "hand": "right"
      },
      {
        "midi": 67,
        "time": 26.5,
        "duration": 0.5,
        "velocity": 0.71,
        "hand": "right"
      },
      {
        "midi": 75,
        "time": 26.5,
        "duration": 0.5,
        "velocity": 0.71,
        "hand": "right"
      },
      {
        "midi": 46,
        "time": 27,
        "duration": 1,
        "velocity": 0.71,
        "hand": "left"
      },
      {
        "midi": 65,
        "time": 27.5,
        "duration": 0.5,
        "velocity": 0.71,
        "hand": "right"
      },
      {
        "midi": 74,
        "time": 27.5,
        "duration": 0.5,
        "velocity": 0.71,
        "hand": "right"
      },
      {
        "midi": 51,
        "time": 28,
        "duration": 1,
        "velocity": 0.71,
        "hand": "left"
      },
      {
        "midi": 68,
        "time": 28,
        "duration": 2,
        "velocity": 0.71,
        "hand": "right"
      },
      {
        "midi": 74,
        "time": 28,
        "duration": 2,
        "velocity": 0.71,
        "hand": "right"
      },
      {
        "midi": 46,
        "time": 29,
        "duration": 1,
        "velocity": 0.71,
        "hand": "left"
      },
      {
        "midi": 39,
        "time": 30,
        "duration": 1,
        "velocity": 0.71,
        "hand": "left"
      },
      {
        "midi": 70,
        "time": 30,
        "duration": 1,
        "velocity": 0.71,
        "hand": "right"
      },
      {
        "midi": 75,
        "time": 30,
        "duration": 1,
        "velocity": 0.71,
        "hand": "right"
      },
      {
        "midi": 31,
        "time": 32,
        "duration": 1,
        "velocity": 0.75,
        "hand": "left"
      },
      {
        "midi": 71,
        "time": 32,
        "duration": 1,
        "velocity": 0.71,
        "hand": "right"
      },
      {
        "midi": 79,
        "time": 32,
        "duration": 1,
        "velocity": 0.71,
        "hand": "right"
      },
      {
        "midi": 59,
        "time": 33,
        "duration": 0.75,
        "velocity": 0.71,
        "hand": "left"
      },
      {
        "midi": 62,
        "time": 33,
        "duration": 0.75,
        "velocity": 0.71,
        "hand": "right"
      },
      {
        "midi": 67,
        "time": 33,
        "duration": 0.75,
        "velocity": 0.71,
        "hand": "right"
      },
      {
        "midi": 59,
        "time": 33.75,
        "duration": 0.25,
        "velocity": 0.71,
        "hand": "left"
      },
      {
        "midi": 62,
        "time": 33.75,
        "duration": 0.25,
        "velocity": 0.71,
        "hand": "right"
      },
      {
        "midi": 67,
        "time": 33.75,
        "duration": 0.25,
        "velocity": 0.71,
        "hand": "right"
      },
      {
        "midi": 43,
        "time": 34,
        "duration": 1,
        "velocity": 0.75,
        "hand": "left"
      },
      {
        "midi": 60,
        "time": 34,
        "duration": 2,
        "velocity": 0.71,
        "hand": "right"
      },
      {
        "midi": 68,
        "time": 34,
        "duration": 2,
        "velocity": 0.71,
        "hand": "right"
      },
      {
        "midi": 43,
        "time": 35,
        "duration": 0.75,
        "velocity": 0.75,
        "hand": "left"
      },
      {
        "midi": 55,
        "time": 35,
        "duration": 0.75,
        "velocity": 0.75,
        "hand": "left"
      },
      {
        "midi": 43,
        "time": 35.75,
        "duration": 0.25,
        "velocity": 0.75,
        "hand": "left"
      },
      {
        "midi": 55,
        "time": 35.75,
        "duration": 0.25,
        "velocity": 0.75,
        "hand": "left"
      },
      {
        "midi": 43,
        "time": 36,
        "duration": 1,
        "velocity": 0.75,
        "hand": "left"
      },
      {
        "midi": 71,
        "time": 36,
        "duration": 1,
        "velocity": 0.71,
        "hand": "right"
      },
      {
        "midi": 79,
        "time": 36,
        "duration": 1,
        "velocity": 0.71,
        "hand": "right"
      },
      {
        "midi": 62,
        "time": 37,
        "duration": 0.75,
        "velocity": 0.71,
        "hand": "right"
      },
      {
        "midi": 65,
        "time": 37,
        "duration": 0.75,
        "velocity": 0.71,
        "hand": "right"
      },
      {
        "midi": 71,
        "time": 37,
        "duration": 0.75,
        "velocity": 0.71,
        "hand": "right"
      },
      {
        "midi": 62,
        "time": 37.75,
        "duration": 0.25,
        "velocity": 0.71,
        "hand": "right"
      },
      {
        "midi": 65,
        "time": 37.75,
        "duration": 0.25,
        "velocity": 0.71,
        "hand": "right"
      },
      {
        "midi": 71,
        "time": 37.75,
        "duration": 0.25,
        "velocity": 0.71,
        "hand": "right"
      },
      {
        "midi": 43,
        "time": 38,
        "duration": 1,
        "velocity": 0.75,
        "hand": "left"
      },
      {
        "midi": 63,
        "time": 38,
        "duration": 2,
        "velocity": 0.71,
        "hand": "right"
      },
      {
        "midi": 72,
        "time": 38,
        "duration": 2,
        "velocity": 0.71,
        "hand": "right"
      },
      {
        "midi": 43,
        "time": 39,
        "duration": 0.75,
        "velocity": 0.75,
        "hand": "left"
      },
      {
        "midi": 55,
        "time": 39,
        "duration": 0.75,
        "velocity": 0.75,
        "hand": "left"
      },
      {
        "midi": 43,
        "time": 39.75,
        "duration": 0.25,
        "velocity": 0.75,
        "hand": "left"
      },
      {
        "midi": 55,
        "time": 39.75,
        "duration": 0.25,
        "velocity": 0.75,
        "hand": "left"
      },
      {
        "midi": 43,
        "time": 40,
        "duration": 1,
        "velocity": 0.75,
        "hand": "left"
      },
      {
        "midi": 55,
        "time": 40,
        "duration": 1,
        "velocity": 0.75,
        "hand": "left"
      },
      {
        "midi": 67,
        "time": 40,
        "duration": 1,
        "velocity": 0.71,
        "hand": "right"
      },
      {
        "midi": 67,
        "time": 41,
        "duration": 0.75,
        "velocity": 0.54,
        "hand": "right"
      },
      {
        "midi": 75,
        "time": 41,
        "duration": 2,
        "velocity": 0.71,
        "hand": "right"
      },
      {
        "midi": 79,
        "time": 41,
        "duration": 1,
        "velocity": 0.54,
        "hand": "right"
      },
      {
        "midi": 67,
        "time": 41.75,
        "duration": 0.25,
        "velocity": 0.54,
        "hand": "right"
      },
      {
        "midi": 67,
        "time": 42,
        "duration": 1,
        "velocity": 0.54,
        "hand": "right"
      },
      {
        "midi": 78,
        "time": 42,
        "duration": 1,
        "velocity": 0.54,
        "hand": "right"
      },
      {
        "midi": 67,
        "time": 43,
        "duration": 0.75,
        "velocity": 0.54,
        "hand": "right"
      },
      {
        "midi": 74,
        "time": 43,
        "duration": 1,
        "velocity": 0.54,
        "hand": "right"
      },
      {
        "midi": 77,
        "time": 43,
        "duration": 1,
        "velocity": 0.54,
        "hand": "right"
      },
      {
        "midi": 67,
        "time": 43.75,
        "duration": 0.25,
        "velocity": 0.54,
        "hand": "right"
      },
      {
        "midi": 67,
        "time": 44,
        "duration": 1,
        "velocity": 0.54,
        "hand": "right"
      },
      {
        "midi": 73,
        "time": 44,
        "duration": 1,
        "velocity": 0.54,
        "hand": "right"
      },
      {
        "midi": 76,
        "time": 44,
        "duration": 1,
        "velocity": 0.54,
        "hand": "right"
      },
      {
        "midi": 66,
        "time": 45,
        "duration": 0.75,
        "velocity": 0.54,
        "hand": "right"
      },
      {
        "midi": 72,
        "time": 45,
        "duration": 1,
        "velocity": 0.54,
        "hand": "right"
      },
      {
        "midi": 75,
        "time": 45,
        "duration": 1,
        "velocity": 0.54,
        "hand": "right"
      },
      {
        "midi": 66,
        "time": 45.75,
        "duration": 0.25,
        "velocity": 0.54,
        "hand": "right"
      },
      {
        "midi": 67,
        "time": 46,
        "duration": 1,
        "velocity": 0.54,
        "hand": "right"
      },
      {
        "midi": 71,
        "time": 46,
        "duration": 1,
        "velocity": 0.54,
        "hand": "right"
      },
      {
        "midi": 74,
        "time": 46,
        "duration": 1,
        "velocity": 0.54,
        "hand": "right"
      },
      {
        "midi": 41,
        "time": 47,
        "duration": 0.75,
        "velocity": 0.75,
        "hand": "left"
      },
      {
        "midi": 53,
        "time": 47,
        "duration": 0.75,
        "velocity": 0.75,
        "hand": "left"
      },
      {
        "midi": 41,
        "time": 47.75,
        "duration": 0.25,
        "velocity": 0.75,
        "hand": "left"
      },
      {
        "midi": 53,
        "time": 47.75,
        "duration": 0.25,
        "velocity": 0.75,
        "hand": "left"
      },
      {
        "midi": 39,
        "time": 48,
        "duration": 1,
        "velocity": 0.75,
        "hand": "left"
      },
      {
        "midi": 72,
        "time": 48,
        "duration": 1,
        "velocity": 0.71,
        "hand": "right"
      },
      {
        "midi": 84,
        "time": 48,
        "duration": 1,
        "velocity": 0.71,
        "hand": "right"
      },
      {
        "midi": 39,
        "time": 49,
        "duration": 0.75,
        "velocity": 0.75,
        "hand": "left"
      },
      {
        "midi": 63,
        "time": 49,
        "duration": 0.75,
        "velocity": 0.71,
        "hand": "right"
      },
      {
        "midi": 72,
        "time": 49,
        "duration": 0.75,
        "velocity": 0.71,
        "hand": "right"
      },
      {
        "midi": 39,
        "time": 49.75,
        "duration": 0.25,
        "velocity": 0.75,
        "hand": "left"
      },
      {
        "midi": 63,
        "time": 49.75,
        "duration": 0.25,
        "velocity": 0.71,
        "hand": "right"
      },
      {
        "midi": 72,
        "time": 49.75,
        "duration": 0.25,
        "velocity": 0.71,
        "hand": "right"
      },
      {
        "midi": 39,
        "time": 50,
        "duration": 1,
        "velocity": 0.75,
        "hand": "left"
      },
      {
        "midi": 63,
        "time": 50,
        "duration": 1,
        "velocity": 0.71,
        "hand": "right"
      },
      {
        "midi": 72,
        "time": 50,
        "duration": 1,
        "velocity": 0.71,
        "hand": "right"
      },
      {
        "midi": 39,
        "time": 51,
        "duration": 1,
        "velocity": 0.75,
        "hand": "left"
      },
      {
        "midi": 63,
        "time": 51,
        "duration": 1,
        "velocity": 0.71,
        "hand": "right"
      },
      {
        "midi": 72,
        "time": 51,
        "duration": 1,
        "velocity": 0.71,
        "hand": "right"
      },
      {
        "midi": 41,
        "time": 52,
        "duration": 1,
        "velocity": 0.75,
        "hand": "left"
      },
      {
        "midi": 61,
        "time": 52,
        "duration": 1,
        "velocity": 0.71,
        "hand": "right"
      },
      {
        "midi": 73,
        "time": 52,
        "duration": 1,
        "velocity": 0.71,
        "hand": "right"
      },
      {
        "midi": 77,
        "time": 53,
        "duration": 1,
        "velocity": 0.71,
        "hand": "right"
      },
      {
        "midi": 85,
        "time": 53,
        "duration": 1,
        "velocity": 0.71,
        "hand": "right"
      },
      {
        "midi": 80,
        "time": 54,
        "duration": 1,
        "velocity": 0.71,
        "hand": "right"
      },
      {
        "midi": 89,
        "time": 54,
        "duration": 1,
        "velocity": 0.71,
        "hand": "right"
      },
      {
        "midi": 65,
        "time": 55,
        "duration": 1,
        "velocity": 0.54,
        "hand": "right"
      },
      {
        "midi": 74,
        "time": 55,
        "duration": 1,
        "velocity": 0.71,
        "hand": "right"
      },
      {
        "midi": 83,
        "time": 55,
        "duration": 1,
        "velocity": 0.71,
        "hand": "right"
      },
      {
        "midi": 63,
        "time": 56,
        "duration": 1,
        "velocity": 0.54,
        "hand": "right"
      },
      {
        "midi": 67,
        "time": 56,
        "duration": 1,
        "velocity": 0.54,
        "hand": "right"
      },
      {
        "midi": 86,
        "time": 56,
        "duration": 0.5,
        "velocity": 0.71,
        "hand": "right"
      },
      {
        "midi": 84,
        "time": 56.5,
        "duration": 0.5,
        "velocity": 0.71,
        "hand": "right"
      },
      {
        "midi": 65,
        "time": 57,
        "duration": 1,
        "velocity": 0.54,
        "hand": "right"
      },
      {
        "midi": 77,
        "time": 57.5,
        "duration": 0.5,
        "velocity": 0.71,
        "hand": "right"
      },
      {
        "midi": 80,
        "time": 57.5,
        "duration": 0.5,
        "velocity": 0.71,
        "hand": "right"
      },
      {
        "midi": 67,
        "time": 58,
        "duration": 1,
        "velocity": 0.54,
        "hand": "right"
      },
      {
        "midi": 77,
        "time": 58,
        "duration": 0.5,
        "velocity": 0.71,
        "hand": "right"
      },
      {
        "midi": 80,
        "time": 58,
        "duration": 0.5,
        "velocity": 0.71,
        "hand": "right"
      },
      {
        "midi": 75,
        "time": 58.5,
        "duration": 0.5,
        "velocity": 0.71,
        "hand": "right"
      },
      {
        "midi": 79,
        "time": 58.5,
        "duration": 0.5,
        "velocity": 0.71,
        "hand": "right"
      },
      {
        "midi": 55,
        "time": 59,
        "duration": 1,
        "velocity": 0.54,
        "hand": "left"
      },
      {
        "midi": 62,
        "time": 59.5,
        "duration": 0.5,
        "velocity": 0.71,
        "hand": "right"
      },
      {
        "midi": 71,
        "time": 59.5,
        "duration": 0.5,
        "velocity": 0.71,
        "hand": "right"
      },
      {
        "midi": 60,
        "time": 60,
        "duration": 1,
        "velocity": 0.54,
        "hand": "right"
      },
      {
        "midi": 67,
        "time": 60,
        "duration": 3,
        "velocity": 0.71,
        "hand": "right"
      },
      {
        "midi": 74,
        "time": 60,
        "duration": 2,
        "velocity": 0.71,
        "hand": "right"
      },
      {
        "midi": 55,
        "time": 61,
        "duration": 1,
        "velocity": 0.54,
        "hand": "left"
      },
      {
        "midi": 48,
        "time": 62,
        "duration": 1,
        "velocity": 0.54,
        "hand": "left"
      },
      {
        "midi": 63,
        "time": 62,
        "duration": 1,
        "velocity": 0.71,
        "hand": "right"
      },
      {
        "midi": 72,
        "time": 62,
        "duration": 1,
        "velocity": 0.71,
        "hand": "right"
      }
    ],
    "hard": [
      {
        "midi": 36,
        "time": 0,
        "duration": 1,
        "velocity": 0.71,
        "hand": "left"
      },
      {
        "midi": 48,
        "time": 0,
        "duration": 1,
        "velocity": 0.71,
        "hand": "left"
      },
      {
        "midi": 60,
        "time": 0,
        "duration": 1,
        "velocity": 0.71,
        "hand": "right"
      },
      {
        "midi": 63,
        "time": 0,
        "duration": 1,
        "velocity": 0.71,
        "hand": "right"
      },
      {
        "midi": 67,
        "time": 0,
        "duration": 1,
        "velocity": 0.71,
        "hand": "right"
      },
      {
        "midi": 72,
        "time": 0,
        "duration": 1,
        "velocity": 0.71,
        "hand": "right"
      },
      {
        "midi": 36,
        "time": 1,
        "duration": 1,
        "velocity": 0.71,
        "hand": "left"
      },
      {
        "midi": 48,
        "time": 1,
        "duration": 1,
        "velocity": 0.71,
        "hand": "left"
      },
      {
        "midi": 60,
        "time": 1,
        "duration": 0.75,
        "velocity": 0.71,
        "hand": "right"
      },
      {
        "midi": 63,
        "time": 1,
        "duration": 0.75,
        "velocity": 0.71,
        "hand": "right"
      },
      {
        "midi": 67,
        "time": 1,
        "duration": 0.75,
        "velocity": 0.71,
        "hand": "right"
      },
      {
        "midi": 60,
        "time": 1.75,
        "duration": 0.25,
        "velocity": 0.71,
        "hand": "right"
      },
      {
        "midi": 63,
        "time": 1.75,
        "duration": 0.25,
        "velocity": 0.71,
        "hand": "right"
      },
      {
        "midi": 67,
        "time": 1.75,
        "duration": 0.25,
        "velocity": 0.71,
        "hand": "right"
      },
      {
        "midi": 39,
        "time": 2,
        "duration": 1,
        "velocity": 0.71,
        "hand": "left"
      },
      {
        "midi": 51,
        "time": 2,
        "duration": 1,
        "velocity": 0.71,
        "hand": "left"
      },
      {
        "midi": 60,
        "time": 2,
        "duration": 1,
        "velocity": 0.71,
        "hand": "right"
      },
      {
        "midi": 63,
        "time": 2,
        "duration": 1,
        "velocity": 0.71,
        "hand": "right"
      },
      {
        "midi": 67,
        "time": 2,
        "duration": 1,
        "velocity": 0.71,
        "hand": "right"
      },
      {
        "midi": 35,
        "time": 3,
        "duration": 1,
        "velocity": 0.71,
        "hand": "left"
      },
      {
        "midi": 47,
        "time": 3,
        "duration": 1,
        "velocity": 0.71,
        "hand": "left"
      },
      {
        "midi": 62,
        "time": 3,
        "duration": 1,
        "velocity": 0.71,
        "hand": "right"
      },
      {
        "midi": 65,
        "time": 3,
        "duration": 1,
        "velocity": 0.71,
        "hand": "right"
      },
      {
        "midi": 67,
        "time": 3,
        "duration": 1,
        "velocity": 0.71,
        "hand": "right"
      },
      {
        "midi": 36,
        "time": 4,
        "duration": 1,
        "velocity": 0.71,
        "hand": "left"
      },
      {
        "midi": 48,
        "time": 4,
        "duration": 1,
        "velocity": 0.71,
        "hand": "left"
      },
      {
        "midi": 60,
        "time": 4,
        "duration": 1,
        "velocity": 0.71,
        "hand": "right"
      },
      {
        "midi": 63,
        "time": 4,
        "duration": 1,
        "velocity": 0.71,
        "hand": "right"
      },
      {
        "midi": 67,
        "time": 4,
        "duration": 1,
        "velocity": 0.71,
        "hand": "right"
      },
      {
        "midi": 67,
        "time": 5,
        "duration": 0.5,
        "velocity": 0.71,
        "hand": "right"
      },
      {
        "midi": 75,
        "time": 5,
        "duration": 0.5,
        "velocity": 0.71,
        "hand": "right"
      },
      {
        "midi": 66,
        "time": 5.5,
        "duration": 0.5,
        "velocity": 0.71,
        "hand": "right"
      },
      {
        "midi": 74,
        "time": 5.5,
        "duration": 0.5,
        "velocity": 0.71,
        "hand": "right"
      },
      {
        "midi": 68,
        "time": 6,
        "duration": 0.5,
        "velocity": 0.71,
        "hand": "right"
      },
      {
        "midi": 77,
        "time": 6,
        "duration": 0.5,
        "velocity": 0.71,
        "hand": "right"
      },
      {
        "midi": 67,
        "time": 6.5,
        "duration": 0.5,
        "velocity": 0.71,
        "hand": "right"
      },
      {
        "midi": 75,
        "time": 6.5,
        "duration": 0.5,
        "velocity": 0.71,
        "hand": "right"
      },
      {
        "midi": 65,
        "time": 7,
        "duration": 0.5,
        "velocity": 0.71,
        "hand": "right"
      },
      {
        "midi": 74,
        "time": 7,
        "duration": 0.5,
        "velocity": 0.71,
        "hand": "right"
      },
      {
        "midi": 63,
        "time": 7.5,
        "duration": 0.5,
        "velocity": 0.71,
        "hand": "right"
      },
      {
        "midi": 72,
        "time": 7.5,
        "duration": 0.5,
        "velocity": 0.71,
        "hand": "right"
      },
      {
        "midi": 31,
        "time": 8,
        "duration": 1,
        "velocity": 0.71,
        "hand": "left"
      },
      {
        "midi": 43,
        "time": 8,
        "duration": 1,
        "velocity": 0.71,
        "hand": "left"
      },
      {
        "midi": 71,
        "time": 8,
        "duration": 1,
        "velocity": 0.71,
        "hand": "right"
      },
      {
        "midi": 74,
        "time": 8,
        "duration": 1,
        "velocity": 0.71,
        "hand": "right"
      },
      {
        "midi": 79,
        "time": 8,
        "duration": 1,
        "velocity": 0.71,
        "hand": "right"
      },
      {
        "midi": 35,
        "time": 9,
        "duration": 1,
        "velocity": 0.71,
        "hand": "left"
      },
      {
        "midi": 47,
        "time": 9,
        "duration": 1,
        "velocity": 0.71,
        "hand": "left"
      },
      {
        "midi": 62,
        "time": 9,
        "duration": 0.75,
        "velocity": 0.71,
        "hand": "right"
      },
      {
        "midi": 67,
        "time": 9,
        "duration": 0.75,
        "velocity": 0.71,
        "hand": "right"
      },
      {
        "midi": 62,
        "time": 9.75,
        "duration": 0.25,
        "velocity": 0.71,
        "hand": "right"
      },
      {
        "midi": 67,
        "time": 9.75,
        "duration": 0.25,
        "velocity": 0.71,
        "hand": "right"
      },
      {
        "midi": 36,
        "time": 10,
        "duration": 1,
        "velocity": 0.71,
        "hand": "left"
      },
      {
        "midi": 48,
        "time": 10,
        "duration": 1,
        "velocity": 0.71,
        "hand": "left"
      },
      {
        "midi": 63,
        "time": 10,
        "duration": 1,
        "velocity": 0.71,
        "hand": "right"
      },
      {
        "midi": 67,
        "time": 10,
        "duration": 1,
        "velocity": 0.71,
        "hand": "right"
      },
      {
        "midi": 32,
        "time": 11,
        "duration": 1,
        "velocity": 0.71,
        "hand": "left"
      },
      {
        "midi": 44,
        "time": 11,
        "duration": 1,
        "velocity": 0.71,
        "hand": "left"
      },
      {
        "midi": 60,
        "time": 11,
        "duration": 1,
        "velocity": 0.71,
        "hand": "right"
      },
      {
        "midi": 66,
        "time": 11,
        "duration": 1,
        "velocity": 0.71,
        "hand": "right"
      },
      {
        "midi": 31,
        "time": 12,
        "duration": 1,
        "velocity": 0.71,
        "hand": "left"
      },
      {
        "midi": 43,
        "time": 12,
        "duration": 1,
        "velocity": 0.71,
        "hand": "left"
      },
      {
        "midi": 59,
        "time": 12,
        "duration": 1,
        "velocity": 0.71,
        "hand": "left"
      },
      {
        "midi": 67,
        "time": 12,
        "duration": 1,
        "velocity": 0.71,
        "hand": "right"
      },
      {
        "midi": 71,
        "time": 13,
        "duration": 0.5,
        "velocity": 0.71,
        "hand": "right"
      },
      {
        "midi": 74,
        "time": 13,
        "duration": 0.5,
        "velocity": 0.71,
        "hand": "right"
      },
      {
        "midi": 72,
        "time": 13.5,
        "duration": 0.5,
        "velocity": 0.71,
        "hand": "right"
      },
      {
        "midi": 75,
        "time": 13.5,
        "duration": 0.5,
        "velocity": 0.71,
        "hand": "right"
      },
      {
        "midi": 75,
        "time": 14,
        "duration": 0.5,
        "velocity": 0.71,
        "hand": "right"
      },
      {
        "midi": 79,
        "time": 14,
        "duration": 0.5,
        "velocity": 0.71,
        "hand": "right"
      },
      {
        "midi": 74,
        "time": 14.5,
        "duration": 0.5,
        "velocity": 0.71,
        "hand": "right"
      },
      {
        "midi": 77,
        "time": 14.5,
        "duration": 0.5,
        "velocity": 0.71,
        "hand": "right"
      },
      {
        "midi": 72,
        "time": 15,
        "duration": 0.5,
        "velocity": 0.71,
        "hand": "right"
      },
      {
        "midi": 75,
        "time": 15,
        "duration": 0.5,
        "velocity": 0.71,
        "hand": "right"
      },
      {
        "midi": 71,
        "time": 15.5,
        "duration": 0.5,
        "velocity": 0.71,
        "hand": "right"
      },
      {
        "midi": 74,
        "time": 15.5,
        "duration": 0.5,
        "velocity": 0.71,
        "hand": "right"
      },
      {
        "midi": 36,
        "time": 16,
        "duration": 1,
        "velocity": 0.71,
        "hand": "left"
      },
      {
        "midi": 48,
        "time": 16,
        "duration": 1,
        "velocity": 0.71,
        "hand": "left"
      },
      {
        "midi": 72,
        "time": 16,
        "duration": 0.5,
        "velocity": 0.71,
        "hand": "right"
      },
      {
        "midi": 75,
        "time": 16,
        "duration": 0.5,
        "velocity": 0.71,
        "hand": "right"
      },
      {
        "midi": 67,
        "time": 16.5,
        "duration": 1,
        "velocity": 0.71,
        "hand": "right"
      },
      {
        "midi": 75,
        "time": 16.5,
        "duration": 1,
        "velocity": 0.71,
        "hand": "right"
      },
      {
        "midi": 36,
        "time": 17,
        "duration": 1,
        "velocity": 0.71,
        "hand": "left"
      },
      {
        "midi": 48,
        "time": 17,
        "duration": 1,
        "velocity": 0.71,
        "hand": "left"
      },
      {
        "midi": 67,
        "time": 17.5,
        "duration": 1,
        "velocity": 0.71,
        "hand": "right"
      },
      {
        "midi": 75,
        "time": 17.5,
        "duration": 1,
        "velocity": 0.71,
        "hand": "right"
      },
      {
        "midi": 35,
        "time": 18,
        "duration": 1,
        "velocity": 0.71,
        "hand": "left"
      },
      {
        "midi": 47,
        "time": 18,
        "duration": 1,
        "velocity": 0.71,
        "hand": "left"
      },
      {
        "midi": 68,
        "time": 18.5,
        "duration": 1,
        "velocity": 0.71,
        "hand": "right"
      },
      {
        "midi": 75,
        "time": 18.5,
        "duration": 1,
        "velocity": 0.71,
        "hand": "right"
      },
      {
        "midi": 35,
        "time": 19,
        "duration": 1,
        "velocity": 0.71,
        "hand": "left"
      },
      {
        "midi": 47,
        "time": 19,
        "duration": 1,
        "velocity": 0.71,
        "hand": "left"
      },
      {
        "midi": 69,
        "time": 19.5,
        "duration": 0.5,
        "velocity": 0.71,
        "hand": "right"
      },
      {
        "midi": 75,
        "time": 19.5,
        "duration": 0.5,
        "velocity": 0.71,
        "hand": "right"
      },
      {
        "midi": 34,
        "time": 20,
        "duration": 1,
        "velocity": 0.71,
        "hand": "left"
      },
      {
        "midi": 46,
        "time": 20,
        "duration": 1,
        "velocity": 0.71,
        "hand": "left"
      },
      {
        "midi": 70,
        "time": 20,
        "duration": 0.5,
        "velocity": 0.71,
        "hand": "right"
      },
      {
        "midi": 74,
        "time": 20,
        "duration": 0.5,
        "velocity": 0.71,
        "hand": "right"
      },
      {
        "midi": 74,
        "time": 20.5,
        "duration": 1,
        "velocity": 0.71,
        "hand": "right"
      },
      {
        "midi": 80,
        "time": 20.5,
        "duration": 1,
        "velocity": 0.71,
        "hand": "right"
      },
      {
        "midi": 36,
        "time": 21,
        "duration": 1,
        "velocity": 0.71,
        "hand": "left"
      },
      {
        "midi": 48,
        "time": 21,
        "duration": 1,
        "velocity": 0.71,
        "hand": "left"
      },
      {
        "midi": 75,
        "time": 21.5,
        "duration": 1,
        "velocity": 0.71,
        "hand": "right"
      },
      {
        "midi": 80,
        "time": 21.5,
        "duration": 1,
        "velocity": 0.71,
        "hand": "right"
      },
      {
        "midi": 37,
        "time": 22,
        "duration": 1,
        "velocity": 0.71,
        "hand": "left"
      },
      {
        "midi": 49,
        "time": 22,
        "duration": 1,
        "velocity": 0.71,
        "hand": "left"
      },
      {
        "midi": 76,
        "time": 22.5,
        "duration": 1,
        "velocity": 0.71,
        "hand": "right"
      },
      {
        "midi": 80,
        "time": 22.5,
        "duration": 1,
        "velocity": 0.71,
        "hand": "right"
      },
      {
        "midi": 38,
        "time": 23,
        "duration": 1,
        "velocity": 0.71,
        "hand": "left"
      },
      {
        "midi": 50,
        "time": 23,
        "duration": 1,
        "velocity": 0.71,
        "hand": "left"
      },
      {
        "midi": 77,
        "time": 23.5,
        "duration": 0.5,
        "velocity": 0.71,
        "hand": "right"
      },
      {
        "midi": 80,
        "time": 23.5,
        "duration": 0.5,
        "velocity": 0.71,
        "hand": "right"
      },
      {
        "midi": 39,
        "time": 24,
        "duration": 1,
        "velocity": 0.71,
        "hand": "left"
      },
      {
        "midi": 51,
        "time": 24,
        "duration": 1,
        "velocity": 0.71,
        "hand": "left"
      },
      {
        "midi": 70,
        "time": 24,
        "duration": 1,
        "velocity": 0.71,
        "hand": "right"
      },
      {
        "midi": 80,
        "time": 24,
        "duration": 0.5,
        "velocity": 0.71,
        "hand": "right"
      },
      {
        "midi": 79,
        "time": 24.5,
        "duration": 0.5,
        "velocity": 0.71,
        "hand": "right"
      },
      {
        "midi": 56,
        "time": 25,
        "duration": 1,
        "velocity": 0.71,
        "hand": "left"
      },
      {
        "midi": 68,
        "time": 25.5,
        "duration": 0.5,
        "velocity": 0.71,
        "hand": "right"
      },
      {
        "midi": 77,
        "time": 25.5,
        "duration": 0.5,
        "velocity": 0.71,
        "hand": "right"
      },
      {
        "midi": 58,
        "time": 26,
        "duration": 1,
        "velocity": 0.71,
        "hand": "left"
      },
      {
        "midi": 68,
        "time": 26,
        "duration": 0.5,
        "velocity": 0.71,
        "hand": "right"
      },
      {
        "midi": 77,
        "time": 26,
        "duration": 0.5,
        "velocity": 0.71,
        "hand": "right"
      },
      {
        "midi": 67,
        "time": 26.5,
        "duration": 0.5,
        "velocity": 0.71,
        "hand": "right"
      },
      {
        "midi": 75,
        "time": 26.5,
        "duration": 0.5,
        "velocity": 0.71,
        "hand": "right"
      },
      {
        "midi": 46,
        "time": 27,
        "duration": 1,
        "velocity": 0.71,
        "hand": "left"
      },
      {
        "midi": 65,
        "time": 27.5,
        "duration": 0.5,
        "velocity": 0.71,
        "hand": "right"
      },
      {
        "midi": 74,
        "time": 27.5,
        "duration": 0.5,
        "velocity": 0.71,
        "hand": "right"
      },
      {
        "midi": 51,
        "time": 28,
        "duration": 1,
        "velocity": 0.71,
        "hand": "left"
      },
      {
        "midi": 65,
        "time": 28,
        "duration": 2,
        "velocity": 0.71,
        "hand": "right"
      },
      {
        "midi": 68,
        "time": 28,
        "duration": 2,
        "velocity": 0.71,
        "hand": "right"
      },
      {
        "midi": 74,
        "time": 28,
        "duration": 2,
        "velocity": 0.71,
        "hand": "right"
      },
      {
        "midi": 46,
        "time": 29,
        "duration": 1,
        "velocity": 0.71,
        "hand": "left"
      },
      {
        "midi": 39,
        "time": 30,
        "duration": 1,
        "velocity": 0.71,
        "hand": "left"
      },
      {
        "midi": 67,
        "time": 30,
        "duration": 1,
        "velocity": 0.71,
        "hand": "right"
      },
      {
        "midi": 70,
        "time": 30,
        "duration": 1,
        "velocity": 0.71,
        "hand": "right"
      },
      {
        "midi": 75,
        "time": 30,
        "duration": 1,
        "velocity": 0.71,
        "hand": "right"
      },
      {
        "midi": 31,
        "time": 32,
        "duration": 1,
        "velocity": 0.75,
        "hand": "left"
      },
      {
        "midi": 43,
        "time": 32,
        "duration": 1,
        "velocity": 0.75,
        "hand": "left"
      },
      {
        "midi": 71,
        "time": 32,
        "duration": 1,
        "velocity": 0.71,
        "hand": "right"
      },
      {
        "midi": 74,
        "time": 32,
        "duration": 1,
        "velocity": 0.71,
        "hand": "right"
      },
      {
        "midi": 79,
        "time": 32,
        "duration": 1,
        "velocity": 0.71,
        "hand": "right"
      },
      {
        "midi": 59,
        "time": 33,
        "duration": 0.75,
        "velocity": 0.71,
        "hand": "left"
      },
      {
        "midi": 62,
        "time": 33,
        "duration": 0.75,
        "velocity": 0.71,
        "hand": "right"
      },
      {
        "midi": 67,
        "time": 33,
        "duration": 0.75,
        "velocity": 0.71,
        "hand": "right"
      },
      {
        "midi": 59,
        "time": 33.75,
        "duration": 0.25,
        "velocity": 0.71,
        "hand": "left"
      },
      {
        "midi": 62,
        "time": 33.75,
        "duration": 0.25,
        "velocity": 0.71,
        "hand": "right"
      },
      {
        "midi": 67,
        "time": 33.75,
        "duration": 0.25,
        "velocity": 0.71,
        "hand": "right"
      },
      {
        "midi": 43,
        "time": 34,
        "duration": 1,
        "velocity": 0.75,
        "hand": "left"
      },
      {
        "midi": 55,
        "time": 34,
        "duration": 1,
        "velocity": 0.75,
        "hand": "left"
      },
      {
        "midi": 60,
        "time": 34,
        "duration": 2,
        "velocity": 0.71,
        "hand": "right"
      },
      {
        "midi": 63,
        "time": 34,
        "duration": 2,
        "velocity": 0.71,
        "hand": "right"
      },
      {
        "midi": 68,
        "time": 34,
        "duration": 2,
        "velocity": 0.71,
        "hand": "right"
      },
      {
        "midi": 43,
        "time": 35,
        "duration": 0.75,
        "velocity": 0.75,
        "hand": "left"
      },
      {
        "midi": 55,
        "time": 35,
        "duration": 0.75,
        "velocity": 0.75,
        "hand": "left"
      },
      {
        "midi": 43,
        "time": 35.75,
        "duration": 0.25,
        "velocity": 0.75,
        "hand": "left"
      },
      {
        "midi": 55,
        "time": 35.75,
        "duration": 0.25,
        "velocity": 0.75,
        "hand": "left"
      },
      {
        "midi": 43,
        "time": 36,
        "duration": 1,
        "velocity": 0.75,
        "hand": "left"
      },
      {
        "midi": 55,
        "time": 36,
        "duration": 1,
        "velocity": 0.75,
        "hand": "left"
      },
      {
        "midi": 71,
        "time": 36,
        "duration": 1,
        "velocity": 0.71,
        "hand": "right"
      },
      {
        "midi": 74,
        "time": 36,
        "duration": 1,
        "velocity": 0.71,
        "hand": "right"
      },
      {
        "midi": 79,
        "time": 36,
        "duration": 1,
        "velocity": 0.71,
        "hand": "right"
      },
      {
        "midi": 62,
        "time": 37,
        "duration": 0.75,
        "velocity": 0.71,
        "hand": "right"
      },
      {
        "midi": 65,
        "time": 37,
        "duration": 0.75,
        "velocity": 0.71,
        "hand": "right"
      },
      {
        "midi": 71,
        "time": 37,
        "duration": 0.75,
        "velocity": 0.71,
        "hand": "right"
      },
      {
        "midi": 62,
        "time": 37.75,
        "duration": 0.25,
        "velocity": 0.71,
        "hand": "right"
      },
      {
        "midi": 65,
        "time": 37.75,
        "duration": 0.25,
        "velocity": 0.71,
        "hand": "right"
      },
      {
        "midi": 71,
        "time": 37.75,
        "duration": 0.25,
        "velocity": 0.71,
        "hand": "right"
      },
      {
        "midi": 43,
        "time": 38,
        "duration": 1,
        "velocity": 0.75,
        "hand": "left"
      },
      {
        "midi": 55,
        "time": 38,
        "duration": 1,
        "velocity": 0.75,
        "hand": "left"
      },
      {
        "midi": 63,
        "time": 38,
        "duration": 2,
        "velocity": 0.71,
        "hand": "right"
      },
      {
        "midi": 67,
        "time": 38,
        "duration": 2,
        "velocity": 0.71,
        "hand": "right"
      },
      {
        "midi": 72,
        "time": 38,
        "duration": 2,
        "velocity": 0.71,
        "hand": "right"
      },
      {
        "midi": 43,
        "time": 39,
        "duration": 0.75,
        "velocity": 0.75,
        "hand": "left"
      },
      {
        "midi": 55,
        "time": 39,
        "duration": 0.75,
        "velocity": 0.75,
        "hand": "left"
      },
      {
        "midi": 43,
        "time": 39.75,
        "duration": 0.25,
        "velocity": 0.75,
        "hand": "left"
      },
      {
        "midi": 55,
        "time": 39.75,
        "duration": 0.25,
        "velocity": 0.75,
        "hand": "left"
      },
      {
        "midi": 43,
        "time": 40,
        "duration": 1,
        "velocity": 0.75,
        "hand": "left"
      },
      {
        "midi": 55,
        "time": 40,
        "duration": 1,
        "velocity": 0.75,
        "hand": "left"
      },
      {
        "midi": 67,
        "time": 40,
        "duration": 1,
        "velocity": 0.71,
        "hand": "right"
      },
      {
        "midi": 67,
        "time": 41,
        "duration": 0.75,
        "velocity": 0.54,
        "hand": "right"
      },
      {
        "midi": 75,
        "time": 41,
        "duration": 2,
        "velocity": 0.71,
        "hand": "right"
      },
      {
        "midi": 79,
        "time": 41,
        "duration": 1,
        "velocity": 0.54,
        "hand": "right"
      },
      {
        "midi": 67,
        "time": 41.75,
        "duration": 0.25,
        "velocity": 0.54,
        "hand": "right"
      },
      {
        "midi": 67,
        "time": 42,
        "duration": 1,
        "velocity": 0.54,
        "hand": "right"
      },
      {
        "midi": 78,
        "time": 42,
        "duration": 1,
        "velocity": 0.54,
        "hand": "right"
      },
      {
        "midi": 67,
        "time": 43,
        "duration": 0.75,
        "velocity": 0.54,
        "hand": "right"
      },
      {
        "midi": 74,
        "time": 43,
        "duration": 1,
        "velocity": 0.54,
        "hand": "right"
      },
      {
        "midi": 77,
        "time": 43,
        "duration": 1,
        "velocity": 0.54,
        "hand": "right"
      },
      {
        "midi": 67,
        "time": 43.75,
        "duration": 0.25,
        "velocity": 0.54,
        "hand": "right"
      },
      {
        "midi": 67,
        "time": 44,
        "duration": 1,
        "velocity": 0.54,
        "hand": "right"
      },
      {
        "midi": 73,
        "time": 44,
        "duration": 1,
        "velocity": 0.54,
        "hand": "right"
      },
      {
        "midi": 76,
        "time": 44,
        "duration": 1,
        "velocity": 0.54,
        "hand": "right"
      },
      {
        "midi": 66,
        "time": 45,
        "duration": 0.75,
        "velocity": 0.54,
        "hand": "right"
      },
      {
        "midi": 72,
        "time": 45,
        "duration": 1,
        "velocity": 0.54,
        "hand": "right"
      },
      {
        "midi": 75,
        "time": 45,
        "duration": 1,
        "velocity": 0.54,
        "hand": "right"
      },
      {
        "midi": 66,
        "time": 45.75,
        "duration": 0.25,
        "velocity": 0.54,
        "hand": "right"
      },
      {
        "midi": 67,
        "time": 46,
        "duration": 1,
        "velocity": 0.54,
        "hand": "right"
      },
      {
        "midi": 71,
        "time": 46,
        "duration": 1,
        "velocity": 0.54,
        "hand": "right"
      },
      {
        "midi": 74,
        "time": 46,
        "duration": 1,
        "velocity": 0.54,
        "hand": "right"
      },
      {
        "midi": 41,
        "time": 47,
        "duration": 0.75,
        "velocity": 0.75,
        "hand": "left"
      },
      {
        "midi": 53,
        "time": 47,
        "duration": 0.75,
        "velocity": 0.75,
        "hand": "left"
      },
      {
        "midi": 41,
        "time": 47.75,
        "duration": 0.25,
        "velocity": 0.75,
        "hand": "left"
      },
      {
        "midi": 53,
        "time": 47.75,
        "duration": 0.25,
        "velocity": 0.75,
        "hand": "left"
      },
      {
        "midi": 39,
        "time": 48,
        "duration": 1,
        "velocity": 0.75,
        "hand": "left"
      },
      {
        "midi": 51,
        "time": 48,
        "duration": 1,
        "velocity": 0.75,
        "hand": "left"
      },
      {
        "midi": 72,
        "time": 48,
        "duration": 1,
        "velocity": 0.71,
        "hand": "right"
      },
      {
        "midi": 79,
        "time": 48,
        "duration": 1,
        "velocity": 0.71,
        "hand": "right"
      },
      {
        "midi": 84,
        "time": 48,
        "duration": 1,
        "velocity": 0.71,
        "hand": "right"
      },
      {
        "midi": 39,
        "time": 49,
        "duration": 0.75,
        "velocity": 0.75,
        "hand": "left"
      },
      {
        "midi": 51,
        "time": 49,
        "duration": 0.75,
        "velocity": 0.75,
        "hand": "left"
      },
      {
        "midi": 63,
        "time": 49,
        "duration": 0.75,
        "velocity": 0.71,
        "hand": "right"
      },
      {
        "midi": 67,
        "time": 49,
        "duration": 0.75,
        "velocity": 0.71,
        "hand": "right"
      },
      {
        "midi": 72,
        "time": 49,
        "duration": 0.75,
        "velocity": 0.71,
        "hand": "right"
      },
      {
        "midi": 39,
        "time": 49.75,
        "duration": 0.25,
        "velocity": 0.75,
        "hand": "left"
      },
      {
        "midi": 51,
        "time": 49.75,
        "duration": 0.25,
        "velocity": 0.75,
        "hand": "left"
      },
      {
        "midi": 63,
        "time": 49.75,
        "duration": 0.25,
        "velocity": 0.71,
        "hand": "right"
      },
      {
        "midi": 67,
        "time": 49.75,
        "duration": 0.25,
        "velocity": 0.71,
        "hand": "right"
      },
      {
        "midi": 72,
        "time": 49.75,
        "duration": 0.25,
        "velocity": 0.71,
        "hand": "right"
      },
      {
        "midi": 39,
        "time": 50,
        "duration": 1,
        "velocity": 0.75,
        "hand": "left"
      },
      {
        "midi": 51,
        "time": 50,
        "duration": 1,
        "velocity": 0.75,
        "hand": "left"
      },
      {
        "midi": 63,
        "time": 50,
        "duration": 1,
        "velocity": 0.71,
        "hand": "right"
      },
      {
        "midi": 67,
        "time": 50,
        "duration": 1,
        "velocity": 0.71,
        "hand": "right"
      },
      {
        "midi": 72,
        "time": 50,
        "duration": 1,
        "velocity": 0.71,
        "hand": "right"
      },
      {
        "midi": 39,
        "time": 51,
        "duration": 1,
        "velocity": 0.75,
        "hand": "left"
      },
      {
        "midi": 51,
        "time": 51,
        "duration": 1,
        "velocity": 0.75,
        "hand": "left"
      },
      {
        "midi": 63,
        "time": 51,
        "duration": 1,
        "velocity": 0.71,
        "hand": "right"
      },
      {
        "midi": 67,
        "time": 51,
        "duration": 1,
        "velocity": 0.71,
        "hand": "right"
      },
      {
        "midi": 72,
        "time": 51,
        "duration": 1,
        "velocity": 0.71,
        "hand": "right"
      },
      {
        "midi": 41,
        "time": 52,
        "duration": 1,
        "velocity": 0.75,
        "hand": "left"
      },
      {
        "midi": 53,
        "time": 52,
        "duration": 1,
        "velocity": 0.75,
        "hand": "left"
      },
      {
        "midi": 61,
        "time": 52,
        "duration": 1,
        "velocity": 0.71,
        "hand": "right"
      },
      {
        "midi": 68,
        "time": 52,
        "duration": 1,
        "velocity": 0.71,
        "hand": "right"
      },
      {
        "midi": 73,
        "time": 52,
        "duration": 1,
        "velocity": 0.71,
        "hand": "right"
      },
      {
        "midi": 77,
        "time": 53,
        "duration": 1,
        "velocity": 0.71,
        "hand": "right"
      },
      {
        "midi": 85,
        "time": 53,
        "duration": 1,
        "velocity": 0.71,
        "hand": "right"
      },
      {
        "midi": 80,
        "time": 54,
        "duration": 1,
        "velocity": 0.71,
        "hand": "right"
      },
      {
        "midi": 89,
        "time": 54,
        "duration": 1,
        "velocity": 0.71,
        "hand": "right"
      },
      {
        "midi": 65,
        "time": 55,
        "duration": 1,
        "velocity": 0.54,
        "hand": "right"
      },
      {
        "midi": 68,
        "time": 55,
        "duration": 1,
        "velocity": 0.54,
        "hand": "right"
      },
      {
        "midi": 74,
        "time": 55,
        "duration": 1,
        "velocity": 0.71,
        "hand": "right"
      },
      {
        "midi": 83,
        "time": 55,
        "duration": 1,
        "velocity": 0.71,
        "hand": "right"
      },
      {
        "midi": 63,
        "time": 56,
        "duration": 1,
        "velocity": 0.54,
        "hand": "right"
      },
      {
        "midi": 67,
        "time": 56,
        "duration": 1,
        "velocity": 0.54,
        "hand": "right"
      },
      {
        "midi": 86,
        "time": 56,
        "duration": 0.5,
        "velocity": 0.71,
        "hand": "right"
      },
      {
        "midi": 84,
        "time": 56.5,
        "duration": 0.5,
        "velocity": 0.71,
        "hand": "right"
      },
      {
        "midi": 65,
        "time": 57,
        "duration": 1,
        "velocity": 0.54,
        "hand": "right"
      },
      {
        "midi": 77,
        "time": 57.5,
        "duration": 0.5,
        "velocity": 0.71,
        "hand": "right"
      },
      {
        "midi": 80,
        "time": 57.5,
        "duration": 0.5,
        "velocity": 0.71,
        "hand": "right"
      },
      {
        "midi": 67,
        "time": 58,
        "duration": 1,
        "velocity": 0.54,
        "hand": "right"
      },
      {
        "midi": 77,
        "time": 58,
        "duration": 0.5,
        "velocity": 0.71,
        "hand": "right"
      },
      {
        "midi": 80,
        "time": 58,
        "duration": 0.5,
        "velocity": 0.71,
        "hand": "right"
      },
      {
        "midi": 75,
        "time": 58.5,
        "duration": 0.5,
        "velocity": 0.71,
        "hand": "right"
      },
      {
        "midi": 79,
        "time": 58.5,
        "duration": 0.5,
        "velocity": 0.71,
        "hand": "right"
      },
      {
        "midi": 55,
        "time": 59,
        "duration": 1,
        "velocity": 0.54,
        "hand": "left"
      },
      {
        "midi": 62,
        "time": 59.5,
        "duration": 0.5,
        "velocity": 0.71,
        "hand": "right"
      },
      {
        "midi": 71,
        "time": 59.5,
        "duration": 0.5,
        "velocity": 0.71,
        "hand": "right"
      },
      {
        "midi": 60,
        "time": 60,
        "duration": 1,
        "velocity": 0.54,
        "hand": "right"
      },
      {
        "midi": 65,
        "time": 60,
        "duration": 2,
        "velocity": 0.71,
        "hand": "right"
      },
      {
        "midi": 67,
        "time": 60,
        "duration": 3,
        "velocity": 0.71,
        "hand": "right"
      },
      {
        "midi": 71,
        "time": 60,
        "duration": 2,
        "velocity": 0.71,
        "hand": "right"
      },
      {
        "midi": 74,
        "time": 60,
        "duration": 2,
        "velocity": 0.71,
        "hand": "right"
      },
      {
        "midi": 55,
        "time": 61,
        "duration": 1,
        "velocity": 0.54,
        "hand": "left"
      },
      {
        "midi": 48,
        "time": 62,
        "duration": 1,
        "velocity": 0.54,
        "hand": "left"
      },
      {
        "midi": 63,
        "time": 62,
        "duration": 1,
        "velocity": 0.71,
        "hand": "right"
      },
      {
        "midi": 72,
        "time": 62,
        "duration": 1,
        "velocity": 0.71,
        "hand": "right"
      }
    ]
  },
  "notes1Hand": [
    {
      "midi": 72,
      "time": 0,
      "duration": 1,
      "velocity": 0.71,
      "hand": "right"
    },
    {
      "midi": 67,
      "time": 1,
      "duration": 0.75,
      "velocity": 0.71,
      "hand": "right"
    },
    {
      "midi": 67,
      "time": 1.75,
      "duration": 0.5,
      "velocity": 0.71,
      "hand": "right"
    },
    {
      "midi": 67,
      "time": 3,
      "duration": 1,
      "velocity": 0.71,
      "hand": "right"
    },
    {
      "midi": 67,
      "time": 4,
      "duration": 1,
      "velocity": 0.71,
      "hand": "right"
    },
    {
      "midi": 75,
      "time": 5,
      "duration": 0.5,
      "velocity": 0.71,
      "hand": "right"
    },
    {
      "midi": 74,
      "time": 5.5,
      "duration": 0.5,
      "velocity": 0.71,
      "hand": "right"
    },
    {
      "midi": 77,
      "time": 6,
      "duration": 0.5,
      "velocity": 0.71,
      "hand": "right"
    },
    {
      "midi": 75,
      "time": 6.5,
      "duration": 0.5,
      "velocity": 0.71,
      "hand": "right"
    },
    {
      "midi": 74,
      "time": 7,
      "duration": 0.5,
      "velocity": 0.71,
      "hand": "right"
    },
    {
      "midi": 72,
      "time": 7.5,
      "duration": 0.5,
      "velocity": 0.71,
      "hand": "right"
    },
    {
      "midi": 79,
      "time": 8,
      "duration": 1,
      "velocity": 0.71,
      "hand": "right"
    },
    {
      "midi": 67,
      "time": 9,
      "duration": 0.75,
      "velocity": 0.71,
      "hand": "right"
    },
    {
      "midi": 67,
      "time": 9.75,
      "duration": 0.5,
      "velocity": 0.71,
      "hand": "right"
    },
    {
      "midi": 66,
      "time": 11,
      "duration": 1,
      "velocity": 0.71,
      "hand": "right"
    },
    {
      "midi": 67,
      "time": 12,
      "duration": 1,
      "velocity": 0.71,
      "hand": "right"
    },
    {
      "midi": 74,
      "time": 13,
      "duration": 0.5,
      "velocity": 0.71,
      "hand": "right"
    },
    {
      "midi": 75,
      "time": 13.5,
      "duration": 0.5,
      "velocity": 0.71,
      "hand": "right"
    },
    {
      "midi": 79,
      "time": 14,
      "duration": 0.5,
      "velocity": 0.71,
      "hand": "right"
    },
    {
      "midi": 77,
      "time": 14.5,
      "duration": 0.5,
      "velocity": 0.71,
      "hand": "right"
    },
    {
      "midi": 75,
      "time": 15,
      "duration": 0.5,
      "velocity": 0.71,
      "hand": "right"
    },
    {
      "midi": 74,
      "time": 15.5,
      "duration": 0.5,
      "velocity": 0.71,
      "hand": "right"
    },
    {
      "midi": 75,
      "time": 16,
      "duration": 0.5,
      "velocity": 0.71,
      "hand": "right"
    },
    {
      "midi": 75,
      "time": 17.5,
      "duration": 1,
      "velocity": 0.71,
      "hand": "right"
    },
    {
      "midi": 75,
      "time": 18.5,
      "duration": 1,
      "velocity": 0.71,
      "hand": "right"
    },
    {
      "midi": 75,
      "time": 19.5,
      "duration": 0.5,
      "velocity": 0.71,
      "hand": "right"
    },
    {
      "midi": 74,
      "time": 20,
      "duration": 0.5,
      "velocity": 0.71,
      "hand": "right"
    },
    {
      "midi": 80,
      "time": 20.5,
      "duration": 1,
      "velocity": 0.71,
      "hand": "right"
    },
    {
      "midi": 80,
      "time": 21.5,
      "duration": 1,
      "velocity": 0.71,
      "hand": "right"
    },
    {
      "midi": 80,
      "time": 22.5,
      "duration": 1,
      "velocity": 0.71,
      "hand": "right"
    },
    {
      "midi": 80,
      "time": 23.5,
      "duration": 0.5,
      "velocity": 0.71,
      "hand": "right"
    },
    {
      "midi": 79,
      "time": 24.5,
      "duration": 0.5,
      "velocity": 0.71,
      "hand": "right"
    },
    {
      "midi": 77,
      "time": 25.5,
      "duration": 0.5,
      "velocity": 0.71,
      "hand": "right"
    },
    {
      "midi": 75,
      "time": 26.5,
      "duration": 0.5,
      "velocity": 0.71,
      "hand": "right"
    },
    {
      "midi": 74,
      "time": 27.5,
      "duration": 0.5,
      "velocity": 0.71,
      "hand": "right"
    },
    {
      "midi": 75,
      "time": 30,
      "duration": 1,
      "velocity": 0.71,
      "hand": "right"
    },
    {
      "midi": 79,
      "time": 32,
      "duration": 1,
      "velocity": 0.71,
      "hand": "right"
    },
    {
      "midi": 67,
      "time": 33,
      "duration": 0.75,
      "velocity": 0.71,
      "hand": "right"
    },
    {
      "midi": 67,
      "time": 33.75,
      "duration": 0.5,
      "velocity": 0.71,
      "hand": "right"
    },
    {
      "midi": 79,
      "time": 36,
      "duration": 1,
      "velocity": 0.71,
      "hand": "right"
    },
    {
      "midi": 71,
      "time": 37,
      "duration": 0.75,
      "velocity": 0.71,
      "hand": "right"
    },
    {
      "midi": 71,
      "time": 37.75,
      "duration": 0.5,
      "velocity": 0.71,
      "hand": "right"
    },
    {
      "midi": 67,
      "time": 40,
      "duration": 1,
      "velocity": 0.71,
      "hand": "right"
    },
    {
      "midi": 79,
      "time": 41,
      "duration": 1,
      "velocity": 0.54,
      "hand": "right"
    },
    {
      "midi": 67,
      "time": 41.75,
      "duration": 0.5,
      "velocity": 0.54,
      "hand": "right"
    },
    {
      "midi": 77,
      "time": 43,
      "duration": 1,
      "velocity": 0.54,
      "hand": "right"
    },
    {
      "midi": 67,
      "time": 43.75,
      "duration": 0.5,
      "velocity": 0.54,
      "hand": "right"
    },
    {
      "midi": 75,
      "time": 45,
      "duration": 1,
      "velocity": 0.54,
      "hand": "right"
    },
    {
      "midi": 66,
      "time": 45.75,
      "duration": 0.5,
      "velocity": 0.54,
      "hand": "right"
    },
    {
      "midi": 84,
      "time": 48,
      "duration": 1,
      "velocity": 0.71,
      "hand": "right"
    },
    {
      "midi": 72,
      "time": 49,
      "duration": 0.75,
      "velocity": 0.71,
      "hand": "right"
    },
    {
      "midi": 72,
      "time": 49.75,
      "duration": 0.5,
      "velocity": 0.71,
      "hand": "right"
    },
    {
      "midi": 72,
      "time": 51,
      "duration": 1,
      "velocity": 0.71,
      "hand": "right"
    },
    {
      "midi": 73,
      "time": 52,
      "duration": 1,
      "velocity": 0.71,
      "hand": "right"
    },
    {
      "midi": 85,
      "time": 53,
      "duration": 1,
      "velocity": 0.71,
      "hand": "right"
    },
    {
      "midi": 89,
      "time": 54,
      "duration": 1,
      "velocity": 0.71,
      "hand": "right"
    },
    {
      "midi": 83,
      "time": 55,
      "duration": 1,
      "velocity": 0.71,
      "hand": "right"
    },
    {
      "midi": 86,
      "time": 56,
      "duration": 0.5,
      "velocity": 0.71,
      "hand": "right"
    },
    {
      "midi": 84,
      "time": 56.5,
      "duration": 0.5,
      "velocity": 0.71,
      "hand": "right"
    },
    {
      "midi": 65,
      "time": 57,
      "duration": 1,
      "velocity": 0.54,
      "hand": "right"
    },
    {
      "midi": 80,
      "time": 57.5,
      "duration": 0.5,
      "velocity": 0.71,
      "hand": "right"
    },
    {
      "midi": 79,
      "time": 58.5,
      "duration": 0.5,
      "velocity": 0.71,
      "hand": "right"
    },
    {
      "midi": 71,
      "time": 59.5,
      "duration": 0.5,
      "velocity": 0.71,
      "hand": "right"
    },
    {
      "midi": 74,
      "time": 60,
      "duration": 2,
      "velocity": 0.71,
      "hand": "right"
    },
    {
      "midi": 72,
      "time": 62,
      "duration": 1,
      "velocity": 0.71,
      "hand": "right"
    }
  ],
  "notes2Hands": [
    {
      "midi": 36,
      "time": 0,
      "duration": 1,
      "velocity": 0.71,
      "hand": "left"
    },
    {
      "midi": 48,
      "time": 0,
      "duration": 1,
      "velocity": 0.71,
      "hand": "left"
    },
    {
      "midi": 60,
      "time": 0,
      "duration": 1,
      "velocity": 0.71,
      "hand": "right"
    },
    {
      "midi": 63,
      "time": 0,
      "duration": 1,
      "velocity": 0.71,
      "hand": "right"
    },
    {
      "midi": 67,
      "time": 0,
      "duration": 1,
      "velocity": 0.71,
      "hand": "right"
    },
    {
      "midi": 72,
      "time": 0,
      "duration": 1,
      "velocity": 0.71,
      "hand": "right"
    },
    {
      "midi": 36,
      "time": 1,
      "duration": 1,
      "velocity": 0.71,
      "hand": "left"
    },
    {
      "midi": 48,
      "time": 1,
      "duration": 1,
      "velocity": 0.71,
      "hand": "left"
    },
    {
      "midi": 60,
      "time": 1,
      "duration": 0.75,
      "velocity": 0.71,
      "hand": "right"
    },
    {
      "midi": 63,
      "time": 1,
      "duration": 0.75,
      "velocity": 0.71,
      "hand": "right"
    },
    {
      "midi": 67,
      "time": 1,
      "duration": 0.75,
      "velocity": 0.71,
      "hand": "right"
    },
    {
      "midi": 60,
      "time": 1.75,
      "duration": 0.25,
      "velocity": 0.71,
      "hand": "right"
    },
    {
      "midi": 63,
      "time": 1.75,
      "duration": 0.25,
      "velocity": 0.71,
      "hand": "right"
    },
    {
      "midi": 67,
      "time": 1.75,
      "duration": 0.25,
      "velocity": 0.71,
      "hand": "right"
    },
    {
      "midi": 39,
      "time": 2,
      "duration": 1,
      "velocity": 0.71,
      "hand": "left"
    },
    {
      "midi": 51,
      "time": 2,
      "duration": 1,
      "velocity": 0.71,
      "hand": "left"
    },
    {
      "midi": 60,
      "time": 2,
      "duration": 1,
      "velocity": 0.71,
      "hand": "right"
    },
    {
      "midi": 63,
      "time": 2,
      "duration": 1,
      "velocity": 0.71,
      "hand": "right"
    },
    {
      "midi": 67,
      "time": 2,
      "duration": 1,
      "velocity": 0.71,
      "hand": "right"
    },
    {
      "midi": 35,
      "time": 3,
      "duration": 1,
      "velocity": 0.71,
      "hand": "left"
    },
    {
      "midi": 47,
      "time": 3,
      "duration": 1,
      "velocity": 0.71,
      "hand": "left"
    },
    {
      "midi": 62,
      "time": 3,
      "duration": 1,
      "velocity": 0.71,
      "hand": "right"
    },
    {
      "midi": 65,
      "time": 3,
      "duration": 1,
      "velocity": 0.71,
      "hand": "right"
    },
    {
      "midi": 67,
      "time": 3,
      "duration": 1,
      "velocity": 0.71,
      "hand": "right"
    },
    {
      "midi": 36,
      "time": 4,
      "duration": 1,
      "velocity": 0.71,
      "hand": "left"
    },
    {
      "midi": 48,
      "time": 4,
      "duration": 1,
      "velocity": 0.71,
      "hand": "left"
    },
    {
      "midi": 60,
      "time": 4,
      "duration": 1,
      "velocity": 0.71,
      "hand": "right"
    },
    {
      "midi": 63,
      "time": 4,
      "duration": 1,
      "velocity": 0.71,
      "hand": "right"
    },
    {
      "midi": 67,
      "time": 4,
      "duration": 1,
      "velocity": 0.71,
      "hand": "right"
    },
    {
      "midi": 67,
      "time": 5,
      "duration": 0.5,
      "velocity": 0.71,
      "hand": "right"
    },
    {
      "midi": 75,
      "time": 5,
      "duration": 0.5,
      "velocity": 0.71,
      "hand": "right"
    },
    {
      "midi": 66,
      "time": 5.5,
      "duration": 0.5,
      "velocity": 0.71,
      "hand": "right"
    },
    {
      "midi": 74,
      "time": 5.5,
      "duration": 0.5,
      "velocity": 0.71,
      "hand": "right"
    },
    {
      "midi": 68,
      "time": 6,
      "duration": 0.5,
      "velocity": 0.71,
      "hand": "right"
    },
    {
      "midi": 77,
      "time": 6,
      "duration": 0.5,
      "velocity": 0.71,
      "hand": "right"
    },
    {
      "midi": 67,
      "time": 6.5,
      "duration": 0.5,
      "velocity": 0.71,
      "hand": "right"
    },
    {
      "midi": 75,
      "time": 6.5,
      "duration": 0.5,
      "velocity": 0.71,
      "hand": "right"
    },
    {
      "midi": 65,
      "time": 7,
      "duration": 0.5,
      "velocity": 0.71,
      "hand": "right"
    },
    {
      "midi": 74,
      "time": 7,
      "duration": 0.5,
      "velocity": 0.71,
      "hand": "right"
    },
    {
      "midi": 63,
      "time": 7.5,
      "duration": 0.5,
      "velocity": 0.71,
      "hand": "right"
    },
    {
      "midi": 72,
      "time": 7.5,
      "duration": 0.5,
      "velocity": 0.71,
      "hand": "right"
    },
    {
      "midi": 31,
      "time": 8,
      "duration": 1,
      "velocity": 0.71,
      "hand": "left"
    },
    {
      "midi": 43,
      "time": 8,
      "duration": 1,
      "velocity": 0.71,
      "hand": "left"
    },
    {
      "midi": 71,
      "time": 8,
      "duration": 1,
      "velocity": 0.71,
      "hand": "right"
    },
    {
      "midi": 74,
      "time": 8,
      "duration": 1,
      "velocity": 0.71,
      "hand": "right"
    },
    {
      "midi": 79,
      "time": 8,
      "duration": 1,
      "velocity": 0.71,
      "hand": "right"
    },
    {
      "midi": 35,
      "time": 9,
      "duration": 1,
      "velocity": 0.71,
      "hand": "left"
    },
    {
      "midi": 47,
      "time": 9,
      "duration": 1,
      "velocity": 0.71,
      "hand": "left"
    },
    {
      "midi": 62,
      "time": 9,
      "duration": 0.75,
      "velocity": 0.71,
      "hand": "right"
    },
    {
      "midi": 67,
      "time": 9,
      "duration": 0.75,
      "velocity": 0.71,
      "hand": "right"
    },
    {
      "midi": 62,
      "time": 9.75,
      "duration": 0.25,
      "velocity": 0.71,
      "hand": "right"
    },
    {
      "midi": 67,
      "time": 9.75,
      "duration": 0.25,
      "velocity": 0.71,
      "hand": "right"
    },
    {
      "midi": 36,
      "time": 10,
      "duration": 1,
      "velocity": 0.71,
      "hand": "left"
    },
    {
      "midi": 48,
      "time": 10,
      "duration": 1,
      "velocity": 0.71,
      "hand": "left"
    },
    {
      "midi": 63,
      "time": 10,
      "duration": 1,
      "velocity": 0.71,
      "hand": "right"
    },
    {
      "midi": 67,
      "time": 10,
      "duration": 1,
      "velocity": 0.71,
      "hand": "right"
    },
    {
      "midi": 32,
      "time": 11,
      "duration": 1,
      "velocity": 0.71,
      "hand": "left"
    },
    {
      "midi": 44,
      "time": 11,
      "duration": 1,
      "velocity": 0.71,
      "hand": "left"
    },
    {
      "midi": 60,
      "time": 11,
      "duration": 1,
      "velocity": 0.71,
      "hand": "right"
    },
    {
      "midi": 66,
      "time": 11,
      "duration": 1,
      "velocity": 0.71,
      "hand": "right"
    },
    {
      "midi": 31,
      "time": 12,
      "duration": 1,
      "velocity": 0.71,
      "hand": "left"
    },
    {
      "midi": 43,
      "time": 12,
      "duration": 1,
      "velocity": 0.71,
      "hand": "left"
    },
    {
      "midi": 59,
      "time": 12,
      "duration": 1,
      "velocity": 0.71,
      "hand": "left"
    },
    {
      "midi": 67,
      "time": 12,
      "duration": 1,
      "velocity": 0.71,
      "hand": "right"
    },
    {
      "midi": 71,
      "time": 13,
      "duration": 0.5,
      "velocity": 0.71,
      "hand": "right"
    },
    {
      "midi": 74,
      "time": 13,
      "duration": 0.5,
      "velocity": 0.71,
      "hand": "right"
    },
    {
      "midi": 72,
      "time": 13.5,
      "duration": 0.5,
      "velocity": 0.71,
      "hand": "right"
    },
    {
      "midi": 75,
      "time": 13.5,
      "duration": 0.5,
      "velocity": 0.71,
      "hand": "right"
    },
    {
      "midi": 75,
      "time": 14,
      "duration": 0.5,
      "velocity": 0.71,
      "hand": "right"
    },
    {
      "midi": 79,
      "time": 14,
      "duration": 0.5,
      "velocity": 0.71,
      "hand": "right"
    },
    {
      "midi": 74,
      "time": 14.5,
      "duration": 0.5,
      "velocity": 0.71,
      "hand": "right"
    },
    {
      "midi": 77,
      "time": 14.5,
      "duration": 0.5,
      "velocity": 0.71,
      "hand": "right"
    },
    {
      "midi": 72,
      "time": 15,
      "duration": 0.5,
      "velocity": 0.71,
      "hand": "right"
    },
    {
      "midi": 75,
      "time": 15,
      "duration": 0.5,
      "velocity": 0.71,
      "hand": "right"
    },
    {
      "midi": 71,
      "time": 15.5,
      "duration": 0.5,
      "velocity": 0.71,
      "hand": "right"
    },
    {
      "midi": 74,
      "time": 15.5,
      "duration": 0.5,
      "velocity": 0.71,
      "hand": "right"
    },
    {
      "midi": 36,
      "time": 16,
      "duration": 1,
      "velocity": 0.71,
      "hand": "left"
    },
    {
      "midi": 48,
      "time": 16,
      "duration": 1,
      "velocity": 0.71,
      "hand": "left"
    },
    {
      "midi": 72,
      "time": 16,
      "duration": 0.5,
      "velocity": 0.71,
      "hand": "right"
    },
    {
      "midi": 75,
      "time": 16,
      "duration": 0.5,
      "velocity": 0.71,
      "hand": "right"
    },
    {
      "midi": 67,
      "time": 16.5,
      "duration": 1,
      "velocity": 0.71,
      "hand": "right"
    },
    {
      "midi": 75,
      "time": 16.5,
      "duration": 1,
      "velocity": 0.71,
      "hand": "right"
    },
    {
      "midi": 36,
      "time": 17,
      "duration": 1,
      "velocity": 0.71,
      "hand": "left"
    },
    {
      "midi": 48,
      "time": 17,
      "duration": 1,
      "velocity": 0.71,
      "hand": "left"
    },
    {
      "midi": 67,
      "time": 17.5,
      "duration": 1,
      "velocity": 0.71,
      "hand": "right"
    },
    {
      "midi": 75,
      "time": 17.5,
      "duration": 1,
      "velocity": 0.71,
      "hand": "right"
    },
    {
      "midi": 35,
      "time": 18,
      "duration": 1,
      "velocity": 0.71,
      "hand": "left"
    },
    {
      "midi": 47,
      "time": 18,
      "duration": 1,
      "velocity": 0.71,
      "hand": "left"
    },
    {
      "midi": 68,
      "time": 18.5,
      "duration": 1,
      "velocity": 0.71,
      "hand": "right"
    },
    {
      "midi": 75,
      "time": 18.5,
      "duration": 1,
      "velocity": 0.71,
      "hand": "right"
    },
    {
      "midi": 35,
      "time": 19,
      "duration": 1,
      "velocity": 0.71,
      "hand": "left"
    },
    {
      "midi": 47,
      "time": 19,
      "duration": 1,
      "velocity": 0.71,
      "hand": "left"
    },
    {
      "midi": 69,
      "time": 19.5,
      "duration": 0.5,
      "velocity": 0.71,
      "hand": "right"
    },
    {
      "midi": 75,
      "time": 19.5,
      "duration": 0.5,
      "velocity": 0.71,
      "hand": "right"
    },
    {
      "midi": 34,
      "time": 20,
      "duration": 1,
      "velocity": 0.71,
      "hand": "left"
    },
    {
      "midi": 46,
      "time": 20,
      "duration": 1,
      "velocity": 0.71,
      "hand": "left"
    },
    {
      "midi": 70,
      "time": 20,
      "duration": 0.5,
      "velocity": 0.71,
      "hand": "right"
    },
    {
      "midi": 74,
      "time": 20,
      "duration": 0.5,
      "velocity": 0.71,
      "hand": "right"
    },
    {
      "midi": 74,
      "time": 20.5,
      "duration": 1,
      "velocity": 0.71,
      "hand": "right"
    },
    {
      "midi": 80,
      "time": 20.5,
      "duration": 1,
      "velocity": 0.71,
      "hand": "right"
    },
    {
      "midi": 36,
      "time": 21,
      "duration": 1,
      "velocity": 0.71,
      "hand": "left"
    },
    {
      "midi": 48,
      "time": 21,
      "duration": 1,
      "velocity": 0.71,
      "hand": "left"
    },
    {
      "midi": 75,
      "time": 21.5,
      "duration": 1,
      "velocity": 0.71,
      "hand": "right"
    },
    {
      "midi": 80,
      "time": 21.5,
      "duration": 1,
      "velocity": 0.71,
      "hand": "right"
    },
    {
      "midi": 37,
      "time": 22,
      "duration": 1,
      "velocity": 0.71,
      "hand": "left"
    },
    {
      "midi": 49,
      "time": 22,
      "duration": 1,
      "velocity": 0.71,
      "hand": "left"
    },
    {
      "midi": 76,
      "time": 22.5,
      "duration": 1,
      "velocity": 0.71,
      "hand": "right"
    },
    {
      "midi": 80,
      "time": 22.5,
      "duration": 1,
      "velocity": 0.71,
      "hand": "right"
    },
    {
      "midi": 38,
      "time": 23,
      "duration": 1,
      "velocity": 0.71,
      "hand": "left"
    },
    {
      "midi": 50,
      "time": 23,
      "duration": 1,
      "velocity": 0.71,
      "hand": "left"
    },
    {
      "midi": 77,
      "time": 23.5,
      "duration": 0.5,
      "velocity": 0.71,
      "hand": "right"
    },
    {
      "midi": 80,
      "time": 23.5,
      "duration": 0.5,
      "velocity": 0.71,
      "hand": "right"
    },
    {
      "midi": 39,
      "time": 24,
      "duration": 1,
      "velocity": 0.71,
      "hand": "left"
    },
    {
      "midi": 51,
      "time": 24,
      "duration": 1,
      "velocity": 0.71,
      "hand": "left"
    },
    {
      "midi": 70,
      "time": 24,
      "duration": 1,
      "velocity": 0.71,
      "hand": "right"
    },
    {
      "midi": 80,
      "time": 24,
      "duration": 0.5,
      "velocity": 0.71,
      "hand": "right"
    },
    {
      "midi": 79,
      "time": 24.5,
      "duration": 0.5,
      "velocity": 0.71,
      "hand": "right"
    },
    {
      "midi": 56,
      "time": 25,
      "duration": 1,
      "velocity": 0.71,
      "hand": "left"
    },
    {
      "midi": 68,
      "time": 25.5,
      "duration": 0.5,
      "velocity": 0.71,
      "hand": "right"
    },
    {
      "midi": 77,
      "time": 25.5,
      "duration": 0.5,
      "velocity": 0.71,
      "hand": "right"
    },
    {
      "midi": 58,
      "time": 26,
      "duration": 1,
      "velocity": 0.71,
      "hand": "left"
    },
    {
      "midi": 68,
      "time": 26,
      "duration": 0.5,
      "velocity": 0.71,
      "hand": "right"
    },
    {
      "midi": 77,
      "time": 26,
      "duration": 0.5,
      "velocity": 0.71,
      "hand": "right"
    },
    {
      "midi": 67,
      "time": 26.5,
      "duration": 0.5,
      "velocity": 0.71,
      "hand": "right"
    },
    {
      "midi": 75,
      "time": 26.5,
      "duration": 0.5,
      "velocity": 0.71,
      "hand": "right"
    },
    {
      "midi": 46,
      "time": 27,
      "duration": 1,
      "velocity": 0.71,
      "hand": "left"
    },
    {
      "midi": 65,
      "time": 27.5,
      "duration": 0.5,
      "velocity": 0.71,
      "hand": "right"
    },
    {
      "midi": 74,
      "time": 27.5,
      "duration": 0.5,
      "velocity": 0.71,
      "hand": "right"
    },
    {
      "midi": 51,
      "time": 28,
      "duration": 1,
      "velocity": 0.71,
      "hand": "left"
    },
    {
      "midi": 65,
      "time": 28,
      "duration": 2,
      "velocity": 0.71,
      "hand": "right"
    },
    {
      "midi": 68,
      "time": 28,
      "duration": 2,
      "velocity": 0.71,
      "hand": "right"
    },
    {
      "midi": 74,
      "time": 28,
      "duration": 2,
      "velocity": 0.71,
      "hand": "right"
    },
    {
      "midi": 46,
      "time": 29,
      "duration": 1,
      "velocity": 0.71,
      "hand": "left"
    },
    {
      "midi": 39,
      "time": 30,
      "duration": 1,
      "velocity": 0.71,
      "hand": "left"
    },
    {
      "midi": 67,
      "time": 30,
      "duration": 1,
      "velocity": 0.71,
      "hand": "right"
    },
    {
      "midi": 70,
      "time": 30,
      "duration": 1,
      "velocity": 0.71,
      "hand": "right"
    },
    {
      "midi": 75,
      "time": 30,
      "duration": 1,
      "velocity": 0.71,
      "hand": "right"
    },
    {
      "midi": 31,
      "time": 32,
      "duration": 1,
      "velocity": 0.75,
      "hand": "left"
    },
    {
      "midi": 43,
      "time": 32,
      "duration": 1,
      "velocity": 0.75,
      "hand": "left"
    },
    {
      "midi": 71,
      "time": 32,
      "duration": 1,
      "velocity": 0.71,
      "hand": "right"
    },
    {
      "midi": 74,
      "time": 32,
      "duration": 1,
      "velocity": 0.71,
      "hand": "right"
    },
    {
      "midi": 79,
      "time": 32,
      "duration": 1,
      "velocity": 0.71,
      "hand": "right"
    },
    {
      "midi": 59,
      "time": 33,
      "duration": 0.75,
      "velocity": 0.71,
      "hand": "left"
    },
    {
      "midi": 62,
      "time": 33,
      "duration": 0.75,
      "velocity": 0.71,
      "hand": "right"
    },
    {
      "midi": 67,
      "time": 33,
      "duration": 0.75,
      "velocity": 0.71,
      "hand": "right"
    },
    {
      "midi": 59,
      "time": 33.75,
      "duration": 0.25,
      "velocity": 0.71,
      "hand": "left"
    },
    {
      "midi": 62,
      "time": 33.75,
      "duration": 0.25,
      "velocity": 0.71,
      "hand": "right"
    },
    {
      "midi": 67,
      "time": 33.75,
      "duration": 0.25,
      "velocity": 0.71,
      "hand": "right"
    },
    {
      "midi": 43,
      "time": 34,
      "duration": 1,
      "velocity": 0.75,
      "hand": "left"
    },
    {
      "midi": 55,
      "time": 34,
      "duration": 1,
      "velocity": 0.75,
      "hand": "left"
    },
    {
      "midi": 60,
      "time": 34,
      "duration": 2,
      "velocity": 0.71,
      "hand": "right"
    },
    {
      "midi": 63,
      "time": 34,
      "duration": 2,
      "velocity": 0.71,
      "hand": "right"
    },
    {
      "midi": 68,
      "time": 34,
      "duration": 2,
      "velocity": 0.71,
      "hand": "right"
    },
    {
      "midi": 43,
      "time": 35,
      "duration": 0.75,
      "velocity": 0.75,
      "hand": "left"
    },
    {
      "midi": 55,
      "time": 35,
      "duration": 0.75,
      "velocity": 0.75,
      "hand": "left"
    },
    {
      "midi": 43,
      "time": 35.75,
      "duration": 0.25,
      "velocity": 0.75,
      "hand": "left"
    },
    {
      "midi": 55,
      "time": 35.75,
      "duration": 0.25,
      "velocity": 0.75,
      "hand": "left"
    },
    {
      "midi": 43,
      "time": 36,
      "duration": 1,
      "velocity": 0.75,
      "hand": "left"
    },
    {
      "midi": 55,
      "time": 36,
      "duration": 1,
      "velocity": 0.75,
      "hand": "left"
    },
    {
      "midi": 71,
      "time": 36,
      "duration": 1,
      "velocity": 0.71,
      "hand": "right"
    },
    {
      "midi": 74,
      "time": 36,
      "duration": 1,
      "velocity": 0.71,
      "hand": "right"
    },
    {
      "midi": 79,
      "time": 36,
      "duration": 1,
      "velocity": 0.71,
      "hand": "right"
    },
    {
      "midi": 62,
      "time": 37,
      "duration": 0.75,
      "velocity": 0.71,
      "hand": "right"
    },
    {
      "midi": 65,
      "time": 37,
      "duration": 0.75,
      "velocity": 0.71,
      "hand": "right"
    },
    {
      "midi": 71,
      "time": 37,
      "duration": 0.75,
      "velocity": 0.71,
      "hand": "right"
    },
    {
      "midi": 62,
      "time": 37.75,
      "duration": 0.25,
      "velocity": 0.71,
      "hand": "right"
    },
    {
      "midi": 65,
      "time": 37.75,
      "duration": 0.25,
      "velocity": 0.71,
      "hand": "right"
    },
    {
      "midi": 71,
      "time": 37.75,
      "duration": 0.25,
      "velocity": 0.71,
      "hand": "right"
    },
    {
      "midi": 43,
      "time": 38,
      "duration": 1,
      "velocity": 0.75,
      "hand": "left"
    },
    {
      "midi": 55,
      "time": 38,
      "duration": 1,
      "velocity": 0.75,
      "hand": "left"
    },
    {
      "midi": 63,
      "time": 38,
      "duration": 2,
      "velocity": 0.71,
      "hand": "right"
    },
    {
      "midi": 67,
      "time": 38,
      "duration": 2,
      "velocity": 0.71,
      "hand": "right"
    },
    {
      "midi": 72,
      "time": 38,
      "duration": 2,
      "velocity": 0.71,
      "hand": "right"
    },
    {
      "midi": 43,
      "time": 39,
      "duration": 0.75,
      "velocity": 0.75,
      "hand": "left"
    },
    {
      "midi": 55,
      "time": 39,
      "duration": 0.75,
      "velocity": 0.75,
      "hand": "left"
    },
    {
      "midi": 43,
      "time": 39.75,
      "duration": 0.25,
      "velocity": 0.75,
      "hand": "left"
    },
    {
      "midi": 55,
      "time": 39.75,
      "duration": 0.25,
      "velocity": 0.75,
      "hand": "left"
    },
    {
      "midi": 43,
      "time": 40,
      "duration": 1,
      "velocity": 0.75,
      "hand": "left"
    },
    {
      "midi": 55,
      "time": 40,
      "duration": 1,
      "velocity": 0.75,
      "hand": "left"
    },
    {
      "midi": 67,
      "time": 40,
      "duration": 1,
      "velocity": 0.71,
      "hand": "right"
    },
    {
      "midi": 67,
      "time": 41,
      "duration": 0.75,
      "velocity": 0.54,
      "hand": "right"
    },
    {
      "midi": 75,
      "time": 41,
      "duration": 2,
      "velocity": 0.71,
      "hand": "right"
    },
    {
      "midi": 79,
      "time": 41,
      "duration": 1,
      "velocity": 0.54,
      "hand": "right"
    },
    {
      "midi": 67,
      "time": 41.75,
      "duration": 0.25,
      "velocity": 0.54,
      "hand": "right"
    },
    {
      "midi": 67,
      "time": 42,
      "duration": 1,
      "velocity": 0.54,
      "hand": "right"
    },
    {
      "midi": 78,
      "time": 42,
      "duration": 1,
      "velocity": 0.54,
      "hand": "right"
    },
    {
      "midi": 67,
      "time": 43,
      "duration": 0.75,
      "velocity": 0.54,
      "hand": "right"
    },
    {
      "midi": 74,
      "time": 43,
      "duration": 1,
      "velocity": 0.54,
      "hand": "right"
    },
    {
      "midi": 77,
      "time": 43,
      "duration": 1,
      "velocity": 0.54,
      "hand": "right"
    },
    {
      "midi": 67,
      "time": 43.75,
      "duration": 0.25,
      "velocity": 0.54,
      "hand": "right"
    },
    {
      "midi": 67,
      "time": 44,
      "duration": 1,
      "velocity": 0.54,
      "hand": "right"
    },
    {
      "midi": 73,
      "time": 44,
      "duration": 1,
      "velocity": 0.54,
      "hand": "right"
    },
    {
      "midi": 76,
      "time": 44,
      "duration": 1,
      "velocity": 0.54,
      "hand": "right"
    },
    {
      "midi": 66,
      "time": 45,
      "duration": 0.75,
      "velocity": 0.54,
      "hand": "right"
    },
    {
      "midi": 72,
      "time": 45,
      "duration": 1,
      "velocity": 0.54,
      "hand": "right"
    },
    {
      "midi": 75,
      "time": 45,
      "duration": 1,
      "velocity": 0.54,
      "hand": "right"
    },
    {
      "midi": 66,
      "time": 45.75,
      "duration": 0.25,
      "velocity": 0.54,
      "hand": "right"
    },
    {
      "midi": 67,
      "time": 46,
      "duration": 1,
      "velocity": 0.54,
      "hand": "right"
    },
    {
      "midi": 71,
      "time": 46,
      "duration": 1,
      "velocity": 0.54,
      "hand": "right"
    },
    {
      "midi": 74,
      "time": 46,
      "duration": 1,
      "velocity": 0.54,
      "hand": "right"
    },
    {
      "midi": 41,
      "time": 47,
      "duration": 0.75,
      "velocity": 0.75,
      "hand": "left"
    },
    {
      "midi": 53,
      "time": 47,
      "duration": 0.75,
      "velocity": 0.75,
      "hand": "left"
    },
    {
      "midi": 41,
      "time": 47.75,
      "duration": 0.25,
      "velocity": 0.75,
      "hand": "left"
    },
    {
      "midi": 53,
      "time": 47.75,
      "duration": 0.25,
      "velocity": 0.75,
      "hand": "left"
    },
    {
      "midi": 39,
      "time": 48,
      "duration": 1,
      "velocity": 0.75,
      "hand": "left"
    },
    {
      "midi": 51,
      "time": 48,
      "duration": 1,
      "velocity": 0.75,
      "hand": "left"
    },
    {
      "midi": 72,
      "time": 48,
      "duration": 1,
      "velocity": 0.71,
      "hand": "right"
    },
    {
      "midi": 79,
      "time": 48,
      "duration": 1,
      "velocity": 0.71,
      "hand": "right"
    },
    {
      "midi": 84,
      "time": 48,
      "duration": 1,
      "velocity": 0.71,
      "hand": "right"
    },
    {
      "midi": 39,
      "time": 49,
      "duration": 0.75,
      "velocity": 0.75,
      "hand": "left"
    },
    {
      "midi": 51,
      "time": 49,
      "duration": 0.75,
      "velocity": 0.75,
      "hand": "left"
    },
    {
      "midi": 63,
      "time": 49,
      "duration": 0.75,
      "velocity": 0.71,
      "hand": "right"
    },
    {
      "midi": 67,
      "time": 49,
      "duration": 0.75,
      "velocity": 0.71,
      "hand": "right"
    },
    {
      "midi": 72,
      "time": 49,
      "duration": 0.75,
      "velocity": 0.71,
      "hand": "right"
    },
    {
      "midi": 39,
      "time": 49.75,
      "duration": 0.25,
      "velocity": 0.75,
      "hand": "left"
    },
    {
      "midi": 51,
      "time": 49.75,
      "duration": 0.25,
      "velocity": 0.75,
      "hand": "left"
    },
    {
      "midi": 63,
      "time": 49.75,
      "duration": 0.25,
      "velocity": 0.71,
      "hand": "right"
    },
    {
      "midi": 67,
      "time": 49.75,
      "duration": 0.25,
      "velocity": 0.71,
      "hand": "right"
    },
    {
      "midi": 72,
      "time": 49.75,
      "duration": 0.25,
      "velocity": 0.71,
      "hand": "right"
    },
    {
      "midi": 39,
      "time": 50,
      "duration": 1,
      "velocity": 0.75,
      "hand": "left"
    },
    {
      "midi": 51,
      "time": 50,
      "duration": 1,
      "velocity": 0.75,
      "hand": "left"
    },
    {
      "midi": 63,
      "time": 50,
      "duration": 1,
      "velocity": 0.71,
      "hand": "right"
    },
    {
      "midi": 67,
      "time": 50,
      "duration": 1,
      "velocity": 0.71,
      "hand": "right"
    },
    {
      "midi": 72,
      "time": 50,
      "duration": 1,
      "velocity": 0.71,
      "hand": "right"
    },
    {
      "midi": 39,
      "time": 51,
      "duration": 1,
      "velocity": 0.75,
      "hand": "left"
    },
    {
      "midi": 51,
      "time": 51,
      "duration": 1,
      "velocity": 0.75,
      "hand": "left"
    },
    {
      "midi": 63,
      "time": 51,
      "duration": 1,
      "velocity": 0.71,
      "hand": "right"
    },
    {
      "midi": 67,
      "time": 51,
      "duration": 1,
      "velocity": 0.71,
      "hand": "right"
    },
    {
      "midi": 72,
      "time": 51,
      "duration": 1,
      "velocity": 0.71,
      "hand": "right"
    },
    {
      "midi": 41,
      "time": 52,
      "duration": 1,
      "velocity": 0.75,
      "hand": "left"
    },
    {
      "midi": 53,
      "time": 52,
      "duration": 1,
      "velocity": 0.75,
      "hand": "left"
    },
    {
      "midi": 61,
      "time": 52,
      "duration": 1,
      "velocity": 0.71,
      "hand": "right"
    },
    {
      "midi": 68,
      "time": 52,
      "duration": 1,
      "velocity": 0.71,
      "hand": "right"
    },
    {
      "midi": 73,
      "time": 52,
      "duration": 1,
      "velocity": 0.71,
      "hand": "right"
    },
    {
      "midi": 77,
      "time": 53,
      "duration": 1,
      "velocity": 0.71,
      "hand": "right"
    },
    {
      "midi": 85,
      "time": 53,
      "duration": 1,
      "velocity": 0.71,
      "hand": "right"
    },
    {
      "midi": 80,
      "time": 54,
      "duration": 1,
      "velocity": 0.71,
      "hand": "right"
    },
    {
      "midi": 89,
      "time": 54,
      "duration": 1,
      "velocity": 0.71,
      "hand": "right"
    },
    {
      "midi": 65,
      "time": 55,
      "duration": 1,
      "velocity": 0.54,
      "hand": "right"
    },
    {
      "midi": 68,
      "time": 55,
      "duration": 1,
      "velocity": 0.54,
      "hand": "right"
    },
    {
      "midi": 74,
      "time": 55,
      "duration": 1,
      "velocity": 0.71,
      "hand": "right"
    },
    {
      "midi": 83,
      "time": 55,
      "duration": 1,
      "velocity": 0.71,
      "hand": "right"
    },
    {
      "midi": 63,
      "time": 56,
      "duration": 1,
      "velocity": 0.54,
      "hand": "right"
    },
    {
      "midi": 67,
      "time": 56,
      "duration": 1,
      "velocity": 0.54,
      "hand": "right"
    },
    {
      "midi": 86,
      "time": 56,
      "duration": 0.5,
      "velocity": 0.71,
      "hand": "right"
    },
    {
      "midi": 84,
      "time": 56.5,
      "duration": 0.5,
      "velocity": 0.71,
      "hand": "right"
    },
    {
      "midi": 65,
      "time": 57,
      "duration": 1,
      "velocity": 0.54,
      "hand": "right"
    },
    {
      "midi": 77,
      "time": 57.5,
      "duration": 0.5,
      "velocity": 0.71,
      "hand": "right"
    },
    {
      "midi": 80,
      "time": 57.5,
      "duration": 0.5,
      "velocity": 0.71,
      "hand": "right"
    },
    {
      "midi": 67,
      "time": 58,
      "duration": 1,
      "velocity": 0.54,
      "hand": "right"
    },
    {
      "midi": 77,
      "time": 58,
      "duration": 0.5,
      "velocity": 0.71,
      "hand": "right"
    },
    {
      "midi": 80,
      "time": 58,
      "duration": 0.5,
      "velocity": 0.71,
      "hand": "right"
    },
    {
      "midi": 75,
      "time": 58.5,
      "duration": 0.5,
      "velocity": 0.71,
      "hand": "right"
    },
    {
      "midi": 79,
      "time": 58.5,
      "duration": 0.5,
      "velocity": 0.71,
      "hand": "right"
    },
    {
      "midi": 55,
      "time": 59,
      "duration": 1,
      "velocity": 0.54,
      "hand": "left"
    },
    {
      "midi": 62,
      "time": 59.5,
      "duration": 0.5,
      "velocity": 0.71,
      "hand": "right"
    },
    {
      "midi": 71,
      "time": 59.5,
      "duration": 0.5,
      "velocity": 0.71,
      "hand": "right"
    },
    {
      "midi": 60,
      "time": 60,
      "duration": 1,
      "velocity": 0.54,
      "hand": "right"
    },
    {
      "midi": 65,
      "time": 60,
      "duration": 2,
      "velocity": 0.71,
      "hand": "right"
    },
    {
      "midi": 67,
      "time": 60,
      "duration": 3,
      "velocity": 0.71,
      "hand": "right"
    },
    {
      "midi": 71,
      "time": 60,
      "duration": 2,
      "velocity": 0.71,
      "hand": "right"
    },
    {
      "midi": 74,
      "time": 60,
      "duration": 2,
      "velocity": 0.71,
      "hand": "right"
    },
    {
      "midi": 55,
      "time": 61,
      "duration": 1,
      "velocity": 0.54,
      "hand": "left"
    },
    {
      "midi": 48,
      "time": 62,
      "duration": 1,
      "velocity": 0.54,
      "hand": "left"
    },
    {
      "midi": 63,
      "time": 62,
      "duration": 1,
      "velocity": 0.71,
      "hand": "right"
    },
    {
      "midi": 72,
      "time": 62,
      "duration": 1,
      "velocity": 0.71,
      "hand": "right"
    }
  ]
}
