{
  "id": "minha-machadinha",
  "title": "Minha Machadinha",
  "artist": "Tradicional",
  "difficulty": "Fácil",
  "bpm": 80,
  "duration": 36,
  "category": "Infantis",
  "isPremium": false,
  "coverUrl": "/images/covers/placeholder.png",
  "notes": [
    {
      "midi": 67,
      "time": 0,
      "duration": 0.375,
      "velocity": 1,
      "hand": "right"
    },
    {
      "midi": 67,
      "time": 0.375,
      "duration": 0.375,
      "velocity": 1,
      "hand": "right"
    },
    {
      "midi": 72,
      "time": 0.75,
      "duration": 0.375,
      "velocity": 1,
      "hand": "right"
    },
    {
      "midi": 48,
      "time": 0.938,
      "duration": 0.375,
      "velocity": 1,
      "hand": "left"
    },
    {
      "midi": 60,
      "time": 0.938,
      "duration": 0.375,
      "velocity": 1,
      "hand": "right"
    },
    {
      "midi": 51,
      "time": 1.125,
      "duration": 0.375,
      "velocity": 1,
      "hand": "left"
    },
    {
      "midi": 55,
      "time": 1.125,
      "duration": 0.375,
      "velocity": 1,
      "hand": "left"
    },
    {
      "midi": 72,
      "time": 1.125,
      "duration": 0.188,
      "velocity": 1,
      "hand": "right"
    },
    {
      "midi": 43,
      "time": 1.313,
      "duration": 0.188,
      "velocity": 1,
      "hand": "left"
    },
    {
      "midi": 55,
      "time": 1.313,
      "duration": 0.188,
      "velocity": 1,
      "hand": "left"
    },
    {
      "midi": 74,
      "time": 1.313,
      "duration": 0.188,
      "velocity": 1,
      "hand": "right"
    },
    {
      "midi": 39,
      "time": 1.5,
      "duration": 0.375,
      "velocity": 1,
      "hand": "left"
    },
    {
      "midi": 51,
      "time": 1.5,
      "duration": 0.375,
      "velocity": 1,
      "hand": "left"
    },
    {
      "midi": 53,
      "time": 1.5,
      "duration": 0.375,
      "velocity": 1,
      "hand": "left"
    },
    {
      "midi": 57,
      "time": 1.5,
      "duration": 0.375,
      "velocity": 1,
      "hand": "left"
    },
    {
      "midi": 75,
      "time": 1.5,
      "duration": 0.375,
      "velocity": 1,
      "hand": "right"
    },
    {
      "midi": 38,
      "time": 1.875,
      "duration": 0.375,
      "velocity": 1,
      "hand": "left"
    },
    {
      "midi": 50,
      "time": 1.875,
      "duration": 0.375,
      "velocity": 1,
      "hand": "left"
    },
    {
      "midi": 54,
      "time": 1.875,
      "duration": 0.375,
      "velocity": 1,
      "hand": "left"
    },
    {
      "midi": 59,
      "time": 1.875,
      "duration": 0.375,
      "velocity": 1,
      "hand": "left"
    },
    {
      "midi": 74,
      "time": 1.875,
      "duration": 0.375,
      "velocity": 1,
      "hand": "right"
    },
    {
      "midi": 36,
      "time": 2.25,
      "duration": 0.375,
      "velocity": 1,
      "hand": "left"
    },
    {
      "midi": 48,
      "time": 2.25,
      "duration": 0.375,
      "velocity": 1,
      "hand": "left"
    },
    {
      "midi": 55,
      "time": 2.25,
      "duration": 0.375,
      "velocity": 1,
      "hand": "left"
    },
    {
      "midi": 60,
      "time": 2.25,
      "duration": 0.375,
      "velocity": 1,
      "hand": "right"
    },
    {
      "midi": 72,
      "time": 2.25,
      "duration": 0.375,
      "velocity": 1,
      "hand": "right"
    },
    {
      "midi": 31,
      "time": 2.625,
      "duration": 0.375,
      "velocity": 1,
      "hand": "left"
    },
    {
      "midi": 43,
      "time": 2.625,
      "duration": 0.375,
      "velocity": 1,
      "hand": "left"
    },
    {
      "midi": 51,
      "time": 2.625,
      "duration": 0.375,
      "velocity": 1,
      "hand": "left"
    },
    {
      "midi": 72,
      "time": 2.625,
      "duration": 0.375,
      "velocity": 1,
      "hand": "right"
    },
    {
      "midi": 67,
      "time": 3,
      "duration": 0.375,
      "velocity": 1,
      "hand": "right"
    },
    {
      "midi": 67,
      "time": 3.375,
      "duration": 0.375,
      "velocity": 1,
      "hand": "right"
    },
    {
      "midi": 72,
      "time": 3.75,
      "duration": 0.375,
      "velocity": 1,
      "hand": "right"
    },
    {
      "midi": 48,
      "time": 3.938,
      "duration": 0.375,
      "velocity": 1,
      "hand": "left"
    },
    {
      "midi": 60,
      "time": 3.938,
      "duration": 0.375,
      "velocity": 1,
      "hand": "right"
    },
    {
      "midi": 51,
      "time": 4.125,
      "duration": 0.375,
      "velocity": 1,
      "hand": "left"
    },
    {
      "midi": 55,
      "time": 4.125,
      "duration": 0.375,
      "velocity": 1,
      "hand": "left"
    },
    {
      "midi": 72,
      "time": 4.125,
      "duration": 0.188,
      "velocity": 1,
      "hand": "right"
    },
    {
      "midi": 43,
      "time": 4.313,
      "duration": 0.188,
      "velocity": 1,
      "hand": "left"
    },
    {
      "midi": 55,
      "time": 4.313,
      "duration": 0.188,
      "velocity": 1,
      "hand": "left"
    },
    {
      "midi": 74,
      "time": 4.313,
      "duration": 0.188,
      "velocity": 1,
      "hand": "right"
    },
    {
      "midi": 39,
      "time": 4.5,
      "duration": 0.375,
      "velocity": 1,
      "hand": "left"
    },
    {
      "midi": 51,
      "time": 4.5,
      "duration": 0.375,
      "velocity": 1,
      "hand": "left"
    },
    {
      "midi": 53,
      "time": 4.5,
      "duration": 0.375,
      "velocity": 1,
      "hand": "left"
    },
    {
      "midi": 57,
      "time": 4.5,
      "duration": 0.375,
      "velocity": 1,
      "hand": "left"
    },
    {
      "midi": 75,
      "time": 4.5,
      "duration": 0.375,
      "velocity": 1,
      "hand": "right"
    },
    {
      "midi": 38,
      "time": 4.875,
      "duration": 0.375,
      "velocity": 1,
      "hand": "left"
    },
    {
      "midi": 50,
      "time": 4.875,
      "duration": 0.375,
      "velocity": 1,
      "hand": "left"
    },
    {
      "midi": 54,
      "time": 4.875,
      "duration": 0.375,
      "velocity": 1,
      "hand": "left"
    },
    {
      "midi": 59,
      "time": 4.875,
      "duration": 0.375,
      "velocity": 1,
      "hand": "left"
    },
    {
      "midi": 74,
      "time": 4.875,
      "duration": 0.375,
      "velocity": 1,
      "hand": "right"
    },
    {
      "midi": 36,
      "time": 5.25,
      "duration": 0.375,
      "velocity": 1,
      "hand": "left"
    },
    {
      "midi": 48,
      "time": 5.25,
      "duration": 0.375,
      "velocity": 1,
      "hand": "left"
    },
    {
      "midi": 55,
      "time": 5.25,
      "duration": 0.375,
      "velocity": 1,
      "hand": "left"
    },
    {
      "midi": 60,
      "time": 5.25,
      "duration": 0.375,
      "velocity": 1,
      "hand": "right"
    },
    {
      "midi": 72,
      "time": 5.25,
      "duration": 0.375,
      "velocity": 1,
      "hand": "right"
    },
    {
      "midi": 31,
      "time": 5.625,
      "duration": 0.375,
      "velocity": 1,
      "hand": "left"
    },
    {
      "midi": 43,
      "time": 5.625,
      "duration": 0.375,
      "velocity": 1,
      "hand": "left"
    },
    {
      "midi": 51,
      "time": 5.625,
      "duration": 0.375,
      "velocity": 1,
      "hand": "left"
    },
    {
      "midi": 72,
      "time": 5.625,
      "duration": 0.375,
      "velocity": 1,
      "hand": "right"
    },
    {
      "midi": 72,
      "time": 6,
      "duration": 0.375,
      "velocity": 1,
      "hand": "right"
    },
    {
      "midi": 72,
      "time": 6.375,
      "duration": 0.188,
      "velocity": 1,
      "hand": "right"
    },
    {
      "midi": 70,
      "time": 6.563,
      "duration": 0.188,
      "velocity": 1,
      "hand": "right"
    },
    {
      "midi": 68,
      "time": 6.75,
      "duration": 0.375,
      "velocity": 1,
      "hand": "right"
    },
    {
      "midi": 44,
      "time": 6.938,
      "duration": 0.375,
      "velocity": 1,
      "hand": "left"
    },
    {
      "midi": 56,
      "time": 6.938,
      "duration": 0.375,
      "velocity": 1,
      "hand": "left"
    },
    {
      "midi": 53,
      "time": 7.125,
      "duration": 0.375,
      "velocity": 1,
      "hand": "left"
    },
    {
      "midi": 60,
      "time": 7.125,
      "duration": 0.375,
      "velocity": 1,
      "hand": "right"
    },
    {
      "midi": 43,
      "time": 7.313,
      "duration": 0.188,
      "velocity": 1,
      "hand": "left"
    },
    {
      "midi": 55,
      "time": 7.313,
      "duration": 0.188,
      "velocity": 1,
      "hand": "left"
    },
    {
      "midi": 70,
      "time": 7.313,
      "duration": 0.188,
      "velocity": 1,
      "hand": "right"
    },
    {
      "midi": 41,
      "time": 7.5,
      "duration": 0.375,
      "velocity": 1,
      "hand": "left"
    },
    {
      "midi": 50,
      "time": 7.5,
      "duration": 0.375,
      "velocity": 1,
      "hand": "left"
    },
    {
      "midi": 53,
      "time": 7.5,
      "duration": 0.375,
      "velocity": 1,
      "hand": "left"
    },
    {
      "midi": 56,
      "time": 7.5,
      "duration": 0.375,
      "velocity": 1,
      "hand": "left"
    },
    {
      "midi": 72,
      "time": 7.5,
      "duration": 0.188,
      "velocity": 1,
      "hand": "right"
    },
    {
      "midi": 72,
      "time": 7.688,
      "duration": 0.188,
      "velocity": 1,
      "hand": "right"
    },
    {
      "midi": 40,
      "time": 7.875,
      "duration": 0.375,
      "velocity": 1,
      "hand": "left"
    },
    {
      "midi": 47,
      "time": 7.875,
      "duration": 0.375,
      "velocity": 1,
      "hand": "left"
    },
    {
      "midi": 52,
      "time": 7.875,
      "duration": 0.375,
      "velocity": 1,
      "hand": "left"
    },
    {
      "midi": 59,
      "time": 7.875,
      "duration": 0.375,
      "velocity": 1,
      "hand": "left"
    },
    {
      "midi": 72,
      "time": 7.875,
      "duration": 0.188,
      "velocity": 1,
      "hand": "right"
    },
    {
      "midi": 68,
      "time": 8.063,
      "duration": 0.188,
      "velocity": 1,
      "hand": "right"
    },
    {
      "midi": 39,
      "time": 8.25,
      "duration": 0.375,
      "velocity": 1,
      "hand": "left"
    },
    {
      "midi": 46,
      "time": 8.25,
      "duration": 0.375,
      "velocity": 1,
      "hand": "left"
    },
    {
      "midi": 51,
      "time": 8.25,
      "duration": 0.375,
      "velocity": 1,
      "hand": "left"
    },
    {
      "midi": 60,
      "time": 8.25,
      "duration": 0.375,
      "velocity": 1,
      "hand": "right"
    },
    {
      "midi": 67,
      "time": 8.25,
      "duration": 0.375,
      "velocity": 1,
      "hand": "right"
    },
    {
      "midi": 36,
      "time": 8.625,
      "duration": 0.375,
      "velocity": 1,
      "hand": "left"
    },
    {
      "midi": 48,
      "time": 8.625,
      "duration": 0.375,
      "velocity": 1,
      "hand": "left"
    },
    {
      "midi": 51,
      "time": 8.625,
      "duration": 0.375,
      "velocity": 1,
      "hand": "left"
    },
    {
      "midi": 67,
      "time": 8.625,
      "duration": 0.375,
      "velocity": 1,
      "hand": "right"
    },
    {
      "midi": 72,
      "time": 9,
      "duration": 0.375,
      "velocity": 1,
      "hand": "right"
    },
    {
      "midi": 72,
      "time": 9.375,
      "duration": 0.188,
      "velocity": 1,
      "hand": "right"
    },
    {
      "midi": 70,
      "time": 9.563,
      "duration": 0.188,
      "velocity": 1,
      "hand": "right"
    },
    {
      "midi": 68,
      "time": 9.75,
      "duration": 0.375,
      "velocity": 1,
      "hand": "right"
    },
    {
      "midi": 44,
      "time": 9.938,
      "duration": 0.375,
      "velocity": 1,
      "hand": "left"
    },
    {
      "midi": 56,
      "time": 9.938,
      "duration": 0.375,
      "velocity": 1,
      "hand": "left"
    },
    {
      "midi": 53,
      "time": 10.125,
      "duration": 0.375,
      "velocity": 1,
      "hand": "left"
    },
    {
      "midi": 60,
      "time": 10.125,
      "duration": 0.375,
      "velocity": 1,
      "hand": "right"
    },
    {
      "midi": 43,
      "time": 10.313,
      "duration": 0.188,
      "velocity": 1,
      "hand": "left"
    },
    {
      "midi": 55,
      "time": 10.313,
      "duration": 0.188,
      "velocity": 1,
      "hand": "left"
    },
    {
      "midi": 70,
      "time": 10.313,
      "duration": 0.188,
      "velocity": 1,
      "hand": "right"
    },
    {
      "midi": 41,
      "time": 10.5,
      "duration": 0.375,
      "velocity": 1,
      "hand": "left"
    },
    {
      "midi": 50,
      "time": 10.5,
      "duration": 0.375,
      "velocity": 1,
      "hand": "left"
    },
    {
      "midi": 53,
      "time": 10.5,
      "duration": 0.375,
      "velocity": 1,
      "hand": "left"
    },
    {
      "midi": 56,
      "time": 10.5,
      "duration": 0.375,
      "velocity": 1,
      "hand": "left"
    },
    {
      "midi": 72,
      "time": 10.5,
      "duration": 0.188,
      "velocity": 1,
      "hand": "right"
    },
    {
      "midi": 72,
      "time": 10.688,
      "duration": 0.188,
      "velocity": 1,
      "hand": "right"
    },
    {
      "midi": 40,
      "time": 10.875,
      "duration": 0.375,
      "velocity": 1,
      "hand": "left"
    },
    {
      "midi": 47,
      "time": 10.875,
      "duration": 0.375,
      "velocity": 1,
      "hand": "left"
    },
    {
      "midi": 52,
      "time": 10.875,
      "duration": 0.375,
      "velocity": 1,
      "hand": "left"
    },
    {
      "midi": 59,
      "time": 10.875,
      "duration": 0.375,
      "velocity": 1,
      "hand": "left"
    },
    {
      "midi": 72,
      "time": 10.875,
      "duration": 0.188,
      "velocity": 1,
      "hand": "right"
    },
    {
      "midi": 68,
      "time": 11.063,
      "duration": 0.188,
      "velocity": 1,
      "hand": "right"
    },
    {
      "midi": 39,
      "time": 11.25,
      "duration": 0.375,
      "velocity": 1,
      "hand": "left"
    },
    {
      "midi": 48,
      "time": 11.25,
      "duration": 0.375,
      "velocity": 1,
      "hand": "left"
    },
    {
      "midi": 51,
      "time": 11.25,
      "duration": 0.375,
      "velocity": 1,
      "hand": "left"
    },
    {
      "midi": 60,
      "time": 11.25,
      "duration": 0.375,
      "velocity": 1,
      "hand": "right"
    },
    {
      "midi": 67,
      "time": 11.25,
      "duration": 0.375,
      "velocity": 1,
      "hand": "right"
    },
    {
      "midi": 31,
      "time": 11.625,
      "duration": 0.375,
      "velocity": 1,
      "hand": "left"
    },
    {
      "midi": 43,
      "time": 11.625,
      "duration": 0.375,
      "velocity": 1,
      "hand": "left"
    },
    {
      "midi": 67,
      "time": 11.625,
      "duration": 0.188,
      "velocity": 1,
      "hand": "right"
    },
    {
      "midi": 67,
      "time": 11.813,
      "duration": 0.188,
      "velocity": 1,
      "hand": "right"
    },
    {
      "midi": 19,
      "time": 12,
      "duration": 23.25,
      "velocity": 0.47,
      "hand": "left"
    },
    {
      "midi": 67,
      "time": 12,
      "duration": 0.188,
      "velocity": 1,
      "hand": "right"
    },
    {
      "midi": 67,
      "time": 12.188,
      "duration": 0.188,
      "velocity": 1,
      "hand": "right"
    },
    {
      "midi": 67,
      "time": 12.375,
      "duration": 0.188,
      "velocity": 1,
      "hand": "right"
    },
    {
      "midi": 67,
      "time": 12.563,
      "duration": 0.188,
      "velocity": 1,
      "hand": "right"
    },
    {
      "midi": 72,
      "time": 12.75,
      "duration": 0.188,
      "velocity": 1,
      "hand": "right"
    },
    {
      "midi": 48,
      "time": 12.938,
      "duration": 0.375,
      "velocity": 1,
      "hand": "left"
    },
    {
      "midi": 60,
      "time": 12.938,
      "duration": 0.375,
      "velocity": 1,
      "hand": "right"
    },
    {
      "midi": 72,
      "time": 12.938,
      "duration": 0.188,
      "velocity": 1,
      "hand": "right"
    },
    {
      "midi": 51,
      "time": 13.125,
      "duration": 0.375,
      "velocity": 1,
      "hand": "left"
    },
    {
      "midi": 55,
      "time": 13.125,
      "duration": 0.375,
      "velocity": 1,
      "hand": "left"
    },
    {
      "midi": 72,
      "time": 13.125,
      "duration": 0.188,
      "velocity": 1,
      "hand": "right"
    },
    {
      "midi": 43,
      "time": 13.313,
      "duration": 0.188,
      "velocity": 1,
      "hand": "left"
    },
    {
      "midi": 55,
      "time": 13.313,
      "duration": 0.188,
      "velocity": 1,
      "hand": "left"
    },
    {
      "midi": 74,
      "time": 13.313,
      "duration": 0.188,
      "velocity": 1,
      "hand": "right"
    },
    {
      "midi": 39,
      "time": 13.5,
      "duration": 0.375,
      "velocity": 1,
      "hand": "left"
    },
    {
      "midi": 51,
      "time": 13.5,
      "duration": 0.375,
      "velocity": 1,
      "hand": "left"
    },
    {
      "midi": 53,
      "time": 13.5,
      "duration": 0.375,
      "velocity": 1,
      "hand": "left"
    },
    {
      "midi": 57,
      "time": 13.5,
      "duration": 0.375,
      "velocity": 1,
      "hand": "left"
    },
    {
      "midi": 75,
      "time": 13.5,
      "duration": 0.375,
      "velocity": 1,
      "hand": "right"
    },
    {
      "midi": 38,
      "time": 13.875,
      "duration": 0.375,
      "velocity": 1,
      "hand": "left"
    },
    {
      "midi": 50,
      "time": 13.875,
      "duration": 0.375,
      "velocity": 1,
      "hand": "left"
    },
    {
      "midi": 54,
      "time": 13.875,
      "duration": 0.375,
      "velocity": 1,
      "hand": "left"
    },
    {
      "midi": 59,
      "time": 13.875,
      "duration": 0.375,
      "velocity": 1,
      "hand": "left"
    },
    {
      "midi": 74,
      "time": 13.875,
      "duration": 0.375,
      "velocity": 1,
      "hand": "right"
    },
    {
      "midi": 36,
      "time": 14.25,
      "duration": 0.375,
      "velocity": 1,
      "hand": "left"
    },
    {
      "midi": 48,
      "time": 14.25,
      "duration": 0.375,
      "velocity": 1,
      "hand": "left"
    },
    {
      "midi": 55,
      "time": 14.25,
      "duration": 0.375,
      "velocity": 1,
      "hand": "left"
    },
    {
      "midi": 60,
      "time": 14.25,
      "duration": 0.375,
      "velocity": 1,
      "hand": "right"
    },
    {
      "midi": 72,
      "time": 14.25,
      "duration": 0.375,
      "velocity": 1,
      "hand": "right"
    },
    {
      "midi": 31,
      "time": 14.625,
      "duration": 0.375,
      "velocity": 1,
      "hand": "left"
    },
    {
      "midi": 43,
      "time": 14.625,
      "duration": 0.375,
      "velocity": 1,
      "hand": "left"
    },
    {
      "midi": 51,
      "time": 14.625,
      "duration": 0.375,
      "velocity": 1,
      "hand": "left"
    },
    {
      "midi": 72,
      "time": 14.625,
      "duration": 0.188,
      "velocity": 1,
      "hand": "right"
    },
    {
      "midi": 67,
      "time": 14.813,
      "duration": 0.188,
      "velocity": 1,
      "hand": "right"
    },
    {
      "midi": 67,
      "time": 15,
      "duration": 0.188,
      "velocity": 1,
      "hand": "right"
    },
    {
      "midi": 67,
      "time": 15.188,
      "duration": 0.188,
      "velocity": 1,
      "hand": "right"
    },
    {
      "midi": 67,
      "time": 15.375,
      "duration": 0.188,
      "velocity": 1,
      "hand": "right"
    },
    {
      "midi": 67,
      "time": 15.563,
      "duration": 0.188,
      "velocity": 1,
      "hand": "right"
    },
    {
      "midi": 72,
      "time": 15.75,
      "duration": 0.188,
      "velocity": 1,
      "hand": "right"
    },
    {
      "midi": 48,
      "time": 15.938,
      "duration": 0.375,
      "velocity": 1,
      "hand": "left"
    },
    {
      "midi": 60,
      "time": 15.938,
      "duration": 0.375,
      "velocity": 1,
      "hand": "right"
    },
    {
      "midi": 72,
      "time": 15.938,
      "duration": 0.188,
      "velocity": 1,
      "hand": "right"
    },
    {
      "midi": 51,
      "time": 16.125,
      "duration": 0.375,
      "velocity": 1,
      "hand": "left"
    },
    {
      "midi": 55,
      "time": 16.125,
      "duration": 0.375,
      "velocity": 1,
      "hand": "left"
    },
    {
      "midi": 72,
      "time": 16.125,
      "duration": 0.188,
      "velocity": 1,
      "hand": "right"
    },
    {
      "midi": 43,
      "time": 16.313,
      "duration": 0.188,
      "velocity": 1,
      "hand": "left"
    },
    {
      "midi": 55,
      "time": 16.313,
      "duration": 0.188,
      "velocity": 1,
      "hand": "left"
    },
    {
      "midi": 74,
      "time": 16.313,
      "duration": 0.188,
      "velocity": 1,
      "hand": "right"
    },
    {
      "midi": 39,
      "time": 16.5,
      "duration": 0.375,
      "velocity": 1,
      "hand": "left"
    },
    {
      "midi": 51,
      "time": 16.5,
      "duration": 0.375,
      "velocity": 1,
      "hand": "left"
    },
    {
      "midi": 53,
      "time": 16.5,
      "duration": 0.375,
      "velocity": 1,
      "hand": "left"
    },
    {
      "midi": 57,
      "time": 16.5,
      "duration": 0.375,
      "velocity": 1,
      "hand": "left"
    },
    {
      "midi": 75,
      "time": 16.5,
      "duration": 0.375,
      "velocity": 1,
      "hand": "right"
    },
    {
      "midi": 38,
      "time": 16.875,
      "duration": 0.375,
      "velocity": 1,
      "hand": "left"
    },
    {
      "midi": 50,
      "time": 16.875,
      "duration": 0.375,
      "velocity": 1,
      "hand": "left"
    },
    {
      "midi": 54,
      "time": 16.875,
      "duration": 0.375,
      "velocity": 1,
      "hand": "left"
    },
    {
      "midi": 59,
      "time": 16.875,
      "duration": 0.375,
      "velocity": 1,
      "hand": "left"
    },
    {
      "midi": 74,
      "time": 16.875,
      "duration": 0.375,
      "velocity": 1,
      "hand": "right"
    },
    {
      "midi": 36,
      "time": 17.25,
      "duration": 0.375,
      "velocity": 1,
      "hand": "left"
    },
    {
      "midi": 48,
      "time": 17.25,
      "duration": 0.375,
      "velocity": 1,
      "hand": "left"
    },
    {
      "midi": 55,
      "time": 17.25,
      "duration": 0.375,
      "velocity": 1,
      "hand": "left"
    },
    {
      "midi": 60,
      "time": 17.25,
      "duration": 0.375,
      "velocity": 1,
      "hand": "right"
    },
    {
      "midi": 72,
      "time": 17.25,
      "duration": 0.375,
      "velocity": 1,
      "hand": "right"
    },
    {
      "midi": 31,
      "time": 17.625,
      "duration": 0.375,
      "velocity": 1,
      "hand": "left"
    },
    {
      "midi": 43,
      "time": 17.625,
      "duration": 0.375,
      "velocity": 1,
      "hand": "left"
    },
    {
      "midi": 51,
      "time": 17.625,
      "duration": 0.375,
      "velocity": 1,
      "hand": "left"
    },
    {
      "midi": 72,
      "time": 17.625,
      "duration": 0.375,
      "velocity": 1,
      "hand": "right"
    },
    {
      "midi": 72,
      "time": 18,
      "duration": 0.188,
      "velocity": 1,
      "hand": "right"
    },
    {
      "midi": 72,
      "time": 18.188,
      "duration": 0.188,
      "velocity": 1,
      "hand": "right"
    },
    {
      "midi": 72,
      "time": 18.375,
      "duration": 0.188,
      "velocity": 1,
      "hand": "right"
    },
    {
      "midi": 70,
      "time": 18.563,
      "duration": 0.188,
      "velocity": 1,
      "hand": "right"
    },
    {
      "midi": 68,
      "time": 18.75,
      "duration": 0.188,
      "velocity": 1,
      "hand": "right"
    },
    {
      "midi": 44,
      "time": 18.938,
      "duration": 0.375,
      "velocity": 1,
      "hand": "left"
    },
    {
      "midi": 56,
      "time": 18.938,
      "duration": 0.375,
      "velocity": 1,
      "hand": "left"
    },
    {
      "midi": 68,
      "time": 18.938,
      "duration": 0.188,
      "velocity": 1,
      "hand": "right"
    },
    {
      "midi": 53,
      "time": 19.125,
      "duration": 0.375,
      "velocity": 1,
      "hand": "left"
    },
    {
      "midi": 60,
      "time": 19.125,
      "duration": 0.375,
      "velocity": 1,
      "hand": "right"
    },
    {
      "midi": 68,
      "time": 19.125,
      "duration": 0.188,
      "velocity": 1,
      "hand": "right"
    },
    {
      "midi": 43,
      "time": 19.313,
      "duration": 0.188,
      "velocity": 1,
      "hand": "left"
    },
    {
      "midi": 55,
      "time": 19.313,
      "duration": 0.188,
      "velocity": 1,
      "hand": "left"
    },
    {
      "midi": 70,
      "time": 19.313,
      "duration": 0.188,
      "velocity": 1,
      "hand": "right"
    },
    {
      "midi": 41,
      "time": 19.5,
      "duration": 0.375,
      "velocity": 1,
      "hand": "left"
    },
    {
      "midi": 50,
      "time": 19.5,
      "duration": 0.375,
      "velocity": 1,
      "hand": "left"
    },
    {
      "midi": 53,
      "time": 19.5,
      "duration": 0.375,
      "velocity": 1,
      "hand": "left"
    },
    {
      "midi": 56,
      "time": 19.5,
      "duration": 0.375,
      "velocity": 1,
      "hand": "left"
    },
    {
      "midi": 72,
      "time": 19.5,
      "duration": 0.188,
      "velocity": 1,
      "hand": "right"
    },
    {
      "midi": 72,
      "time": 19.688,
      "duration": 0.188,
      "velocity": 1,
      "hand": "right"
    },
    {
      "midi": 40,
      "time": 19.875,
      "duration": 0.375,
      "velocity": 1,
      "hand": "left"
    },
    {
      "midi": 47,
      "time": 19.875,
      "duration": 0.375,
      "velocity": 1,
      "hand": "left"
    },
    {
      "midi": 52,
      "time": 19.875,
      "duration": 0.375,
      "velocity": 1,
      "hand": "left"
    },
    {
      "midi": 59,
      "time": 19.875,
      "duration": 0.375,
      "velocity": 1,
      "hand": "left"
    },
    {
      "midi": 68,
      "time": 19.875,
      "duration": 0.375,
      "velocity": 1,
      "hand": "right"
    },
    {
      "midi": 39,
      "time": 20.25,
      "duration": 0.375,
      "velocity": 1,
      "hand": "left"
    },
    {
      "midi": 46,
      "time": 20.25,
      "duration": 0.375,
      "velocity": 1,
      "hand": "left"
    },
    {
      "midi": 51,
      "time": 20.25,
      "duration": 0.375,
      "velocity": 1,
      "hand": "left"
    },
    {
      "midi": 60,
      "time": 20.25,
      "duration": 0.375,
      "velocity": 1,
      "hand": "right"
    },
    {
      "midi": 67,
      "time": 20.25,
      "duration": 0.375,
      "velocity": 1,
      "hand": "right"
    },
    {
      "midi": 36,
      "time": 20.625,
      "duration": 0.375,
      "velocity": 1,
      "hand": "left"
    },
    {
      "midi": 48,
      "time": 20.625,
      "duration": 0.375,
      "velocity": 1,
      "hand": "left"
    },
    {
      "midi": 51,
      "time": 20.625,
      "duration": 0.375,
      "velocity": 1,
      "hand": "left"
    },
    {
      "midi": 67,
      "time": 20.625,
      "duration": 0.375,
      "velocity": 1,
      "hand": "right"
    },
    {
      "midi": 72,
      "time": 21,
      "duration": 0.188,
      "velocity": 1,
      "hand": "right"
    },
    {
      "midi": 72,
      "time": 21.188,
      "duration": 0.188,
      "velocity": 1,
      "hand": "right"
    },
    {
      "midi": 72,
      "time": 21.375,
      "duration": 0.188,
      "velocity": 1,
      "hand": "right"
    },
    {
      "midi": 70,
      "time": 21.563,
      "duration": 0.188,
      "velocity": 1,
      "hand": "right"
    },
    {
      "midi": 68,
      "time": 21.75,
      "duration": 0.188,
      "velocity": 1,
      "hand": "right"
    },
    {
      "midi": 44,
      "time": 21.938,
      "duration": 0.375,
      "velocity": 1,
      "hand": "left"
    },
    {
      "midi": 56,
      "time": 21.938,
      "duration": 0.375,
      "velocity": 1,
      "hand": "left"
    },
    {
      "midi": 68,
      "time": 21.938,
      "duration": 0.188,
      "velocity": 1,
      "hand": "right"
    },
    {
      "midi": 53,
      "time": 22.125,
      "duration": 0.375,
      "velocity": 1,
      "hand": "left"
    },
    {
      "midi": 60,
      "time": 22.125,
      "duration": 0.375,
      "velocity": 1,
      "hand": "right"
    },
    {
      "midi": 68,
      "time": 22.125,
      "duration": 0.188,
      "velocity": 1,
      "hand": "right"
    },
    {
      "midi": 43,
      "time": 22.313,
      "duration": 0.188,
      "velocity": 1,
      "hand": "left"
    },
    {
      "midi": 55,
      "time": 22.313,
      "duration": 0.188,
      "velocity": 1,
      "hand": "left"
    },
    {
      "midi": 70,
      "time": 22.313,
      "duration": 0.188,
      "velocity": 1,
      "hand": "right"
    },
    {
      "midi": 41,
      "time": 22.5,
      "duration": 0.375,
      "velocity": 1,
      "hand": "left"
    },
    {
      "midi": 50,
      "time": 22.5,
      "duration": 0.375,
      "velocity": 1,
      "hand": "left"
    },
    {
      "midi": 53,
      "time": 22.5,
      "duration": 0.375,
      "velocity": 1,
      "hand": "left"
    },
    {
      "midi": 56,
      "time": 22.5,
      "duration": 0.375,
      "velocity": 1,
      "hand": "left"
    },
    {
      "midi": 72,
      "time": 22.5,
      "duration": 0.188,
      "velocity": 1,
      "hand": "right"
    },
    {
      "midi": 72,
      "time": 22.688,
      "duration": 0.188,
      "velocity": 1,
      "hand": "right"
    },
    {
      "midi": 40,
      "time": 22.875,
      "duration": 0.375,
      "velocity": 1,
      "hand": "left"
    },
    {
      "midi": 47,
      "time": 22.875,
      "duration": 0.375,
      "velocity": 1,
      "hand": "left"
    },
    {
      "midi": 52,
      "time": 22.875,
      "duration": 0.375,
      "velocity": 1,
      "hand": "left"
    },
    {
      "midi": 59,
      "time": 22.875,
      "duration": 0.375,
      "velocity": 1,
      "hand": "left"
    },
    {
      "midi": 68,
      "time": 22.875,
      "duration": 0.375,
      "velocity": 1,
      "hand": "right"
    },
    {
      "midi": 39,
      "time": 23.25,
      "duration": 0.375,
      "velocity": 1,
      "hand": "left"
    },
    {
      "midi": 48,
      "time": 23.25,
      "duration": 0.375,
      "velocity": 1,
      "hand": "left"
    },
    {
      "midi": 51,
      "time": 23.25,
      "duration": 0.375,
      "velocity": 1,
      "hand": "left"
    },
    {
      "midi": 60,
      "time": 23.25,
      "duration": 0.375,
      "velocity": 1,
      "hand": "right"
    },
    {
      "midi": 67,
      "time": 23.25,
      "duration": 0.375,
      "velocity": 1,
      "hand": "right"
    },
    {
      "midi": 31,
      "time": 23.625,
      "duration": 0.375,
      "velocity": 1,
      "hand": "left"
    },
    {
      "midi": 43,
      "time": 23.625,
      "duration": 0.375,
      "velocity": 1,
      "hand": "left"
    },
    {
      "midi": 67,
      "time": 23.625,
      "duration": 0.375,
      "velocity": 1,
      "hand": "right"
    },
    {
      "midi": 67,
      "time": 24,
      "duration": 0.188,
      "velocity": 1,
      "hand": "right"
    },
    {
      "midi": 79,
      "time": 24,
      "duration": 11.25,
      "velocity": 0.35,
      "hand": "right"
    },
    {
      "midi": 67,
      "time": 24.188,
      "duration": 0.188,
      "velocity": 1,
      "hand": "right"
    },
    {
      "midi": 67,
      "time": 24.375,
      "duration": 0.188,
      "velocity": 1,
      "hand": "right"
    },
    {
      "midi": 67,
      "time": 24.563,
      "duration": 0.188,
      "velocity": 1,
      "hand": "right"
    },
    {
      "midi": 72,
      "time": 24.75,
      "duration": 0.188,
      "velocity": 1,
      "hand": "right"
    },
    {
      "midi": 48,
      "time": 24.938,
      "duration": 0.375,
      "velocity": 1,
      "hand": "left"
    },
    {
      "midi": 60,
      "time": 24.938,
      "duration": 0.375,
      "velocity": 1,
      "hand": "right"
    },
    {
      "midi": 72,
      "time": 24.938,
      "duration": 0.188,
      "velocity": 1,
      "hand": "right"
    },
    {
      "midi": 51,
      "time": 25.125,
      "duration": 0.375,
      "velocity": 1,
      "hand": "left"
    },
    {
      "midi": 55,
      "time": 25.125,
      "duration": 0.375,
      "velocity": 1,
      "hand": "left"
    },
    {
      "midi": 72,
      "time": 25.125,
      "duration": 0.188,
      "velocity": 1,
      "hand": "right"
    },
    {
      "midi": 43,
      "time": 25.313,
      "duration": 0.188,
      "velocity": 1,
      "hand": "left"
    },
    {
      "midi": 55,
      "time": 25.313,
      "duration": 0.188,
      "velocity": 1,
      "hand": "left"
    },
    {
      "midi": 74,
      "time": 25.313,
      "duration": 0.188,
      "velocity": 1,
      "hand": "right"
    },
    {
      "midi": 39,
      "time": 25.5,
      "duration": 0.375,
      "velocity": 1,
      "hand": "left"
    },
    {
      "midi": 51,
      "time": 25.5,
      "duration": 0.375,
      "velocity": 1,
      "hand": "left"
    },
    {
      "midi": 53,
      "time": 25.5,
      "duration": 0.375,
      "velocity": 1,
      "hand": "left"
    },
    {
      "midi": 57,
      "time": 25.5,
      "duration": 0.375,
      "velocity": 1,
      "hand": "left"
    },
    {
      "midi": 75,
      "time": 25.5,
      "duration": 0.375,
      "velocity": 1,
      "hand": "right"
    },
    {
      "midi": 38,
      "time": 25.875,
      "duration": 0.375,
      "velocity": 1,
      "hand": "left"
    },
    {
      "midi": 50,
      "time": 25.875,
      "duration": 0.375,
      "velocity": 1,
      "hand": "left"
    },
    {
      "midi": 54,
      "time": 25.875,
      "duration": 0.375,
      "velocity": 1,
      "hand": "left"
    },
    {
      "midi": 59,
      "time": 25.875,
      "duration": 0.375,
      "velocity": 1,
      "hand": "left"
    },
    {
      "midi": 74,
      "time": 25.875,
      "duration": 0.375,
      "velocity": 1,
      "hand": "right"
    },
    {
      "midi": 36,
      "time": 26.25,
      "duration": 0.375,
      "velocity": 1,
      "hand": "left"
    },
    {
      "midi": 48,
      "time": 26.25,
      "duration": 0.375,
      "velocity": 1,
      "hand": "left"
    },
    {
      "midi": 55,
      "time": 26.25,
      "duration": 0.375,
      "velocity": 1,
      "hand": "left"
    },
    {
      "midi": 60,
      "time": 26.25,
      "duration": 0.375,
      "velocity": 1,
      "hand": "right"
    },
    {
      "midi": 72,
      "time": 26.25,
      "duration": 0.563,
      "velocity": 1,
      "hand": "right"
    },
    {
      "midi": 31,
      "time": 26.625,
      "duration": 0.375,
      "velocity": 1,
      "hand": "left"
    },
    {
      "midi": 43,
      "time": 26.625,
      "duration": 0.375,
      "velocity": 1,
      "hand": "left"
    },
    {
      "midi": 51,
      "time": 26.625,
      "duration": 0.375,
      "velocity": 1,
      "hand": "left"
    },
    {
      "midi": 67,
      "time": 27,
      "duration": 0.188,
      "velocity": 1,
      "hand": "right"
    },
    {
      "midi": 67,
      "time": 27.188,
      "duration": 0.188,
      "velocity": 1,
      "hand": "right"
    },
    {
      "midi": 67,
      "time": 27.375,
      "duration": 0.188,
      "velocity": 1,
      "hand": "right"
    },
    {
      "midi": 67,
      "time": 27.563,
      "duration": 0.188,
      "velocity": 1,
      "hand": "right"
    },
    {
      "midi": 72,
      "time": 27.75,
      "duration": 0.188,
      "velocity": 1,
      "hand": "right"
    },
    {
      "midi": 48,
      "time": 27.938,
      "duration": 0.375,
      "velocity": 1,
      "hand": "left"
    },
    {
      "midi": 60,
      "time": 27.938,
      "duration": 0.375,
      "velocity": 1,
      "hand": "right"
    },
    {
      "midi": 72,
      "time": 27.938,
      "duration": 0.188,
      "velocity": 1,
      "hand": "right"
    },
    {
      "midi": 51,
      "time": 28.125,
      "duration": 0.375,
      "velocity": 1,
      "hand": "left"
    },
    {
      "midi": 55,
      "time": 28.125,
      "duration": 0.375,
      "velocity": 1,
      "hand": "left"
    },
    {
      "midi": 72,
      "time": 28.125,
      "duration": 0.188,
      "velocity": 1,
      "hand": "right"
    },
    {
      "midi": 43,
      "time": 28.313,
      "duration": 0.188,
      "velocity": 1,
      "hand": "left"
    },
    {
      "midi": 55,
      "time": 28.313,
      "duration": 0.188,
      "velocity": 1,
      "hand": "left"
    },
    {
      "midi": 74,
      "time": 28.313,
      "duration": 0.188,
      "velocity": 1,
      "hand": "right"
    },
    {
      "midi": 39,
      "time": 28.5,
      "duration": 0.375,
      "velocity": 1,
      "hand": "left"
    },
    {
      "midi": 51,
      "time": 28.5,
      "duration": 0.375,
      "velocity": 1,
      "hand": "left"
    },
    {
      "midi": 53,
      "time": 28.5,
      "duration": 0.375,
      "velocity": 1,
      "hand": "left"
    },
    {
      "midi": 57,
      "time": 28.5,
      "duration": 0.375,
      "velocity": 1,
      "hand": "left"
    },
    {
      "midi": 75,
      "time": 28.5,
      "duration": 0.375,
      "velocity": 1,
      "hand": "right"
    },
    {
      "midi": 38,
      "time": 28.875,
      "duration": 0.375,
      "velocity": 1,
      "hand": "left"
    },
    {
      "midi": 50,
      "time": 28.875,
      "duration": 0.375,
      "velocity": 1,
      "hand": "left"
    },
    {
      "midi": 54,
      "time": 28.875,
      "duration": 0.375,
      "velocity": 1,
      "hand": "left"
    },
    {
      "midi": 59,
      "time": 28.875,
      "duration": 0.375,
      "velocity": 1,
      "hand": "left"
    },
    {
      "midi": 74,
      "time": 28.875,
      "duration": 0.375,
      "velocity": 1,
      "hand": "right"
    },
    {
      "midi": 36,
      "time": 29.25,
      "duration": 0.375,
      "velocity": 1,
      "hand": "left"
    },
    {
      "midi": 48,
      "time": 29.25,
      "duration": 0.375,
      "velocity": 1,
      "hand": "left"
    },
    {
      "midi": 55,
      "time": 29.25,
      "duration": 0.375,
      "velocity": 1,
      "hand": "left"
    },
    {
      "midi": 60,
      "time": 29.25,
      "duration": 0.375,
      "velocity": 1,
      "hand": "right"
    },
    {
      "midi": 72,
      "time": 29.25,
      "duration": 0.563,
      "velocity": 1,
      "hand": "right"
    },
    {
      "midi": 31,
      "time": 29.625,
      "duration": 0.375,
      "velocity": 1,
      "hand": "left"
    },
    {
      "midi": 43,
      "time": 29.625,
      "duration": 0.375,
      "velocity": 1,
      "hand": "left"
    },
    {
      "midi": 51,
      "time": 29.625,
      "duration": 0.375,
      "velocity": 1,
      "hand": "left"
    },
    {
      "midi": 72,
      "time": 30,
      "duration": 0.188,
      "velocity": 1,
      "hand": "right"
    },
    {
      "midi": 72,
      "time": 30.188,
      "duration": 0.188,
      "velocity": 1,
      "hand": "right"
    },
    {
      "midi": 72,
      "time": 30.375,
      "duration": 0.188,
      "velocity": 1,
      "hand": "right"
    },
    {
      "midi": 70,
      "time": 30.563,
      "duration": 0.188,
      "velocity": 1,
      "hand": "right"
    },
    {
      "midi": 68,
      "time": 30.75,
      "duration": 0.188,
      "velocity": 1,
      "hand": "right"
    },
    {
      "midi": 44,
      "time": 30.938,
      "duration": 0.375,
      "velocity": 1,
      "hand": "left"
    },
    {
      "midi": 56,
      "time": 30.938,
      "duration": 0.375,
      "velocity": 1,
      "hand": "left"
    },
    {
      "midi": 68,
      "time": 30.938,
      "duration": 0.188,
      "velocity": 1,
      "hand": "right"
    },
    {
      "midi": 53,
      "time": 31.125,
      "duration": 0.375,
      "velocity": 1,
      "hand": "left"
    },
    {
      "midi": 60,
      "time": 31.125,
      "duration": 0.375,
      "velocity": 1,
      "hand": "right"
    },
    {
      "midi": 68,
      "time": 31.125,
      "duration": 0.188,
      "velocity": 1,
      "hand": "right"
    },
    {
      "midi": 43,
      "time": 31.313,
      "duration": 0.188,
      "velocity": 1,
      "hand": "left"
    },
    {
      "midi": 55,
      "time": 31.313,
      "duration": 0.188,
      "velocity": 1,
      "hand": "left"
    },
    {
      "midi": 70,
      "time": 31.313,
      "duration": 0.188,
      "velocity": 1,
      "hand": "right"
    },
    {
      "midi": 41,
      "time": 31.5,
      "duration": 0.375,
      "velocity": 1,
      "hand": "left"
    },
    {
      "midi": 50,
      "time": 31.5,
      "duration": 0.375,
      "velocity": 1,
      "hand": "left"
    },
    {
      "midi": 53,
      "time": 31.5,
      "duration": 0.375,
      "velocity": 1,
      "hand": "left"
    },
    {
      "midi": 56,
      "time": 31.5,
      "duration": 0.375,
      "velocity": 1,
      "hand": "left"
    },
    {
      "midi": 72,
      "time": 31.5,
      "duration": 0.375,
      "velocity": 1,
      "hand": "right"
    },
    {
      "midi": 40,
      "time": 31.875,
      "duration": 0.375,
      "velocity": 1,
      "hand": "left"
    },
    {
      "midi": 47,
      "time": 31.875,
      "duration": 0.375,
      "velocity": 1,
      "hand": "left"
    },
    {
      "midi": 52,
      "time": 31.875,
      "duration": 0.375,
      "velocity": 1,
      "hand": "left"
    },
    {
      "midi": 59,
      "time": 31.875,
      "duration": 0.375,
      "velocity": 1,
      "hand": "left"
    },
    {
      "midi": 68,
      "time": 31.875,
      "duration": 0.375,
      "velocity": 1,
      "hand": "right"
    },
    {
      "midi": 39,
      "time": 32.25,
      "duration": 0.375,
      "velocity": 1,
      "hand": "left"
    },
    {
      "midi": 46,
      "time": 32.25,
      "duration": 0.375,
      "velocity": 1,
      "hand": "left"
    },
    {
      "midi": 51,
      "time": 32.25,
      "duration": 0.375,
      "velocity": 1,
      "hand": "left"
    },
    {
      "midi": 60,
      "time": 32.25,
      "duration": 0.375,
      "velocity": 1,
      "hand": "right"
    },
    {
      "midi": 67,
      "time": 32.25,
      "duration": 0.563,
      "velocity": 1,
      "hand": "right"
    },
    {
      "midi": 36,
      "time": 32.625,
      "duration": 0.375,
      "velocity": 1,
      "hand": "left"
    },
    {
      "midi": 48,
      "time": 32.625,
      "duration": 0.375,
      "velocity": 1,
      "hand": "left"
    },
    {
      "midi": 51,
      "time": 32.625,
      "duration": 0.375,
      "velocity": 1,
      "hand": "left"
    },
    {
      "midi": 72,
      "time": 33,
      "duration": 0.188,
      "velocity": 1,
      "hand": "right"
    },
    {
      "midi": 72,
      "time": 33.188,
      "duration": 0.188,
      "velocity": 1,
      "hand": "right"
    },
    {
      "midi": 72,
      "time": 33.375,
      "duration": 0.188,
      "velocity": 1,
      "hand": "right"
    },
    {
      "midi": 70,
      "time": 33.563,
      "duration": 0.188,
      "velocity": 1,
      "hand": "right"
    },
    {
      "midi": 68,
      "time": 33.75,
      "duration": 0.188,
      "velocity": 1,
      "hand": "right"
    },
    {
      "midi": 44,
      "time": 33.938,
      "duration": 0.375,
      "velocity": 1,
      "hand": "left"
    },
    {
      "midi": 56,
      "time": 33.938,
      "duration": 0.375,
      "velocity": 1,
      "hand": "left"
    },
    {
      "midi": 68,
      "time": 33.938,
      "duration": 0.188,
      "velocity": 1,
      "hand": "right"
    },
    {
      "midi": 53,
      "time": 34.125,
      "duration": 0.375,
      "velocity": 1,
      "hand": "left"
    },
    {
      "midi": 60,
      "time": 34.125,
      "duration": 0.375,
      "velocity": 1,
      "hand": "right"
    },
    {
      "midi": 68,
      "time": 34.125,
      "duration": 0.188,
      "velocity": 1,
      "hand": "right"
    },
    {
      "midi": 43,
      "time": 34.313,
      "duration": 0.188,
      "velocity": 1,
      "hand": "left"
    },
    {
      "midi": 55,
      "time": 34.313,
      "duration": 0.188,
      "velocity": 1,
      "hand": "left"
    },
    {
      "midi": 70,
      "time": 34.313,
      "duration": 0.188,
      "velocity": 1,
      "hand": "right"
    },
    {
      "midi": 41,
      "time": 34.5,
      "duration": 0.375,
      "velocity": 1,
      "hand": "left"
    },
    {
      "midi": 50,
      "time": 34.5,
      "duration": 0.375,
      "velocity": 1,
      "hand": "left"
    },
    {
      "midi": 53,
      "time": 34.5,
      "duration": 0.375,
      "velocity": 1,
      "hand": "left"
    },
    {
      "midi": 56,
      "time": 34.5,
      "duration": 0.375,
      "velocity": 1,
      "hand": "left"
    },
    {
      "midi": 72,
      "time": 34.5,
      "duration": 0.375,
      "velocity": 1,
      "hand": "right"
    },
    {
      "midi": 40,
      "time": 34.875,
      "duration": 0.375,
      "velocity": 1,
      "hand": "left"
    },
    {
      "midi": 47,
      "time": 34.875,
      "duration": 0.375,
      "velocity": 1,
      "hand": "left"
    },
    {
      "midi": 52,
      "time": 34.875,
      "duration": 0.375,
      "velocity": 1,
      "hand": "left"
    },
    {
      "midi": 59,
      "time": 34.875,
      "duration": 0.375,
      "velocity": 1,
      "hand": "left"
    },
    {
      "midi": 68,
      "time": 34.875,
      "duration": 0.375,
      "velocity": 1,
      "hand": "right"
    },
    {
      "midi": 39,
      "time": 35.25,
      "duration": 0.375,
      "velocity": 1,
      "hand": "left"
    },
    {
      "midi": 48,
      "time": 35.25,
      "duration": 0.375,
      "velocity": 1,
      "hand": "left"
    },
    {
      "midi": 51,
      "time": 35.25,
      "duration": 0.375,
      "velocity": 1,
      "hand": "left"
    },
    {
      "midi": 60,
      "time": 35.25,
      "duration": 0.375,
      "velocity": 1,
      "hand": "right"
    },
    {
      "midi": 67,
      "time": 35.25,
      "duration": 0.375,
      "velocity": 1,
      "hand": "right"
    },
    {
      "midi": 24,
      "time": 35.625,
      "duration": 0.375,
      "velocity": 1,
      "hand": "left"
    },
    {
      "midi": 36,
      "time": 35.625,
      "duration": 0.375,
      "velocity": 1,
      "hand": "left"
    }
  ],
  "arrangements": {
    "easy": [
      {
        "midi": 67,
        "time": 0,
        "duration": 0.375,
        "velocity": 1,
        "hand": "right"
      },
      {
        "midi": 67,
        "time": 0.375,
        "duration": 0.375,
        "velocity": 1,
        "hand": "right"
      },
      {
        "midi": 72,
        "time": 0.75,
        "duration": 0.375,
        "velocity": 1,
        "hand": "right"
      },
      {
        "midi": 60,
        "time": 0.938,
        "duration": 0.375,
        "velocity": 1,
        "hand": "right"
      },
      {
        "midi": 72,
        "time": 1.125,
        "duration": 0.25,
        "velocity": 1,
        "hand": "right"
      },
      {
        "midi": 74,
        "time": 1.313,
        "duration": 0.25,
        "velocity": 1,
        "hand": "right"
      },
      {
        "midi": 75,
        "time": 1.5,
        "duration": 0.375,
        "velocity": 1,
        "hand": "right"
      },
      {
        "midi": 74,
        "time": 1.875,
        "duration": 0.375,
        "velocity": 1,
        "hand": "right"
      },
      {
        "midi": 72,
        "time": 2.25,
        "duration": 0.375,
        "velocity": 1,
        "hand": "right"
      },
      {
        "midi": 72,
        "time": 2.625,
        "duration": 0.375,
        "velocity": 1,
        "hand": "right"
      },
      {
        "midi": 67,
        "time": 3,
        "duration": 0.375,
        "velocity": 1,
        "hand": "right"
      },
      {
        "midi": 67,
        "time": 3.375,
        "duration": 0.375,
        "velocity": 1,
        "hand": "right"
      },
      {
        "midi": 72,
        "time": 3.75,
        "duration": 0.375,
        "velocity": 1,
        "hand": "right"
      },
      {
        "midi": 60,
        "time": 3.938,
        "duration": 0.375,
        "velocity": 1,
        "hand": "right"
      },
      {
        "midi": 72,
        "time": 4.125,
        "duration": 0.25,
        "velocity": 1,
        "hand": "right"
      },
      {
        "midi": 74,
        "time": 4.313,
        "duration": 0.25,
        "velocity": 1,
        "hand": "right"
      },
      {
        "midi": 75,
        "time": 4.5,
        "duration": 0.375,
        "velocity": 1,
        "hand": "right"
      },
      {
        "midi": 74,
        "time": 4.875,
        "duration": 0.375,
        "velocity": 1,
        "hand": "right"
      },
      {
        "midi": 72,
        "time": 5.25,
        "duration": 0.375,
        "velocity": 1,
        "hand": "right"
      },
      {
        "midi": 72,
        "time": 5.625,
        "duration": 0.375,
        "velocity": 1,
        "hand": "right"
      },
      {
        "midi": 72,
        "time": 6,
        "duration": 0.375,
        "velocity": 1,
        "hand": "right"
      },
      {
        "midi": 72,
        "time": 6.375,
        "duration": 0.25,
        "velocity": 1,
        "hand": "right"
      },
      {
        "midi": 70,
        "time": 6.563,
        "duration": 0.25,
        "velocity": 1,
        "hand": "right"
      },
      {
        "midi": 68,
        "time": 6.75,
        "duration": 0.375,
        "velocity": 1,
        "hand": "right"
      },
      {
        "midi": 56,
        "time": 6.938,
        "duration": 0.375,
        "velocity": 1,
        "hand": "right"
      },
      {
        "midi": 60,
        "time": 7.125,
        "duration": 0.375,
        "velocity": 1,
        "hand": "right"
      },
      {
        "midi": 70,
        "time": 7.313,
        "duration": 0.25,
        "velocity": 1,
        "hand": "right"
      },
      {
        "midi": 72,
        "time": 7.5,
        "duration": 0.25,
        "velocity": 1,
        "hand": "right"
      },
      {
        "midi": 72,
        "time": 7.688,
        "duration": 0.25,
        "velocity": 1,
        "hand": "right"
      },
      {
        "midi": 68,
        "time": 8.063,
        "duration": 0.25,
        "velocity": 1,
        "hand": "right"
      },
      {
        "midi": 67,
        "time": 8.25,
        "duration": 0.375,
        "velocity": 1,
        "hand": "right"
      },
      {
        "midi": 67,
        "time": 8.625,
        "duration": 0.375,
        "velocity": 1,
        "hand": "right"
      },
      {
        "midi": 72,
        "time": 9,
        "duration": 0.375,
        "velocity": 1,
        "hand": "right"
      },
      {
        "midi": 72,
        "time": 9.375,
        "duration": 0.25,
        "velocity": 1,
        "hand": "right"
      },
      {
        "midi": 70,
        "time": 9.563,
        "duration": 0.25,
        "velocity": 1,
        "hand": "right"
      },
      {
        "midi": 68,
        "time": 9.75,
        "duration": 0.375,
        "velocity": 1,
        "hand": "right"
      },
      {
        "midi": 56,
        "time": 9.938,
        "duration": 0.375,
        "velocity": 1,
        "hand": "right"
      },
      {
        "midi": 60,
        "time": 10.125,
        "duration": 0.375,
        "velocity": 1,
        "hand": "right"
      },
      {
        "midi": 70,
        "time": 10.313,
        "duration": 0.25,
        "velocity": 1,
        "hand": "right"
      },
      {
        "midi": 72,
        "time": 10.5,
        "duration": 0.25,
        "velocity": 1,
        "hand": "right"
      },
      {
        "midi": 72,
        "time": 10.688,
        "duration": 0.25,
        "velocity": 1,
        "hand": "right"
      },
      {
        "midi": 68,
        "time": 11.063,
        "duration": 0.25,
        "velocity": 1,
        "hand": "right"
      },
      {
        "midi": 67,
        "time": 11.25,
        "duration": 0.375,
        "velocity": 1,
        "hand": "right"
      },
      {
        "midi": 67,
        "time": 11.625,
        "duration": 0.25,
        "velocity": 1,
        "hand": "right"
      },
      {
        "midi": 67,
        "time": 11.813,
        "duration": 0.25,
        "velocity": 1,
        "hand": "right"
      },
      {
        "midi": 67,
        "time": 12.188,
        "duration": 0.25,
        "velocity": 1,
        "hand": "right"
      },
      {
        "midi": 67,
        "time": 12.563,
        "duration": 0.25,
        "velocity": 1,
        "hand": "right"
      },
      {
        "midi": 72,
        "time": 12.75,
        "duration": 0.25,
        "velocity": 1,
        "hand": "right"
      },
      {
        "midi": 72,
        "time": 12.938,
        "duration": 0.25,
        "velocity": 1,
        "hand": "right"
      },
      {
        "midi": 74,
        "time": 13.313,
        "duration": 0.25,
        "velocity": 1,
        "hand": "right"
      },
      {
        "midi": 75,
        "time": 13.5,
        "duration": 0.375,
        "velocity": 1,
        "hand": "right"
      },
      {
        "midi": 74,
        "time": 13.875,
        "duration": 0.375,
        "velocity": 1,
        "hand": "right"
      },
      {
        "midi": 72,
        "time": 14.25,
        "duration": 0.375,
        "velocity": 1,
        "hand": "right"
      },
      {
        "midi": 72,
        "time": 14.625,
        "duration": 0.25,
        "velocity": 1,
        "hand": "right"
      },
      {
        "midi": 67,
        "time": 14.813,
        "duration": 0.25,
        "velocity": 1,
        "hand": "right"
      },
      {
        "midi": 67,
        "time": 15.188,
        "duration": 0.25,
        "velocity": 1,
        "hand": "right"
      },
      {
        "midi": 67,
        "time": 15.563,
        "duration": 0.25,
        "velocity": 1,
        "hand": "right"
      },
      {
        "midi": 72,
        "time": 15.75,
        "duration": 0.25,
        "velocity": 1,
        "hand": "right"
      },
      {
        "midi": 72,
        "time": 15.938,
        "duration": 0.25,
        "velocity": 1,
        "hand": "right"
      },
      {
        "midi": 74,
        "time": 16.313,
        "duration": 0.25,
        "velocity": 1,
        "hand": "right"
      },
      {
        "midi": 75,
        "time": 16.5,
        "duration": 0.375,
        "velocity": 1,
        "hand": "right"
      },
      {
        "midi": 74,
        "time": 16.875,
        "duration": 0.375,
        "velocity": 1,
        "hand": "right"
      },
      {
        "midi": 72,
        "time": 17.25,
        "duration": 0.375,
        "velocity": 1,
        "hand": "right"
      },
      {
        "midi": 72,
        "time": 17.625,
        "duration": 0.375,
        "velocity": 1,
        "hand": "right"
      },
      {
        "midi": 72,
        "time": 18,
        "duration": 0.25,
        "velocity": 1,
        "hand": "right"
      },
      {
        "midi": 72,
        "time": 18.188,
        "duration": 0.25,
        "velocity": 1,
        "hand": "right"
      },
      {
        "midi": 70,
        "time": 18.563,
        "duration": 0.25,
        "velocity": 1,
        "hand": "right"
      },
      {
        "midi": 68,
        "time": 18.75,
        "duration": 0.25,
        "velocity": 1,
        "hand": "right"
      },
      {
        "midi": 68,
        "time": 18.938,
        "duration": 0.25,
        "velocity": 1,
        "hand": "right"
      },
      {
        "midi": 70,
        "time": 19.313,
        "duration": 0.25,
        "velocity": 1,
        "hand": "right"
      },
      {
        "midi": 72,
        "time": 19.5,
        "duration": 0.25,
        "velocity": 1,
        "hand": "right"
      },
      {
        "midi": 72,
        "time": 19.688,
        "duration": 0.25,
        "velocity": 1,
        "hand": "right"
      },
      {
        "midi": 68,
        "time": 19.875,
        "duration": 0.375,
        "velocity": 1,
        "hand": "right"
      },
      {
        "midi": 67,
        "time": 20.25,
        "duration": 0.375,
        "velocity": 1,
        "hand": "right"
      },
      {
        "midi": 67,
        "time": 20.625,
        "duration": 0.375,
        "velocity": 1,
        "hand": "right"
      },
      {
        "midi": 72,
        "time": 21,
        "duration": 0.25,
        "velocity": 1,
        "hand": "right"
      },
      {
        "midi": 72,
        "time": 21.188,
        "duration": 0.25,
        "velocity": 1,
        "hand": "right"
      },
      {
        "midi": 70,
        "time": 21.563,
        "duration": 0.25,
        "velocity": 1,
        "hand": "right"
      },
      {
        "midi": 68,
        "time": 21.75,
        "duration": 0.25,
        "velocity": 1,
        "hand": "right"
      },
      {
        "midi": 68,
        "time": 21.938,
        "duration": 0.25,
        "velocity": 1,
        "hand": "right"
      },
      {
        "midi": 70,
        "time": 22.313,
        "duration": 0.25,
        "velocity": 1,
        "hand": "right"
      },
      {
        "midi": 72,
        "time": 22.5,
        "duration": 0.25,
        "velocity": 1,
        "hand": "right"
      },
      {
        "midi": 72,
        "time": 22.688,
        "duration": 0.25,
        "velocity": 1,
        "hand": "right"
      },
      {
        "midi": 68,
        "time": 22.875,
        "duration": 0.375,
        "velocity": 1,
        "hand": "right"
      },
      {
        "midi": 67,
        "time": 23.25,
        "duration": 0.375,
        "velocity": 1,
        "hand": "right"
      },
      {
        "midi": 67,
        "time": 23.625,
        "duration": 0.375,
        "velocity": 1,
        "hand": "right"
      },
      {
        "midi": 79,
        "time": 24,
        "duration": 11.25,
        "velocity": 0.35,
        "hand": "right"
      },
      {
        "midi": 67,
        "time": 24.188,
        "duration": 0.25,
        "velocity": 1,
        "hand": "right"
      },
      {
        "midi": 67,
        "time": 24.563,
        "duration": 0.25,
        "velocity": 1,
        "hand": "right"
      },
      {
        "midi": 72,
        "time": 24.75,
        "duration": 0.25,
        "velocity": 1,
        "hand": "right"
      },
      {
        "midi": 72,
        "time": 24.938,
        "duration": 0.25,
        "velocity": 1,
        "hand": "right"
      },
      {
        "midi": 74,
        "time": 25.313,
        "duration": 0.25,
        "velocity": 1,
        "hand": "right"
      },
      {
        "midi": 75,
        "time": 25.5,
        "duration": 0.375,
        "velocity": 1,
        "hand": "right"
      },
      {
        "midi": 74,
        "time": 25.875,
        "duration": 0.375,
        "velocity": 1,
        "hand": "right"
      },
      {
        "midi": 72,
        "time": 26.25,
        "duration": 0.563,
        "velocity": 1,
        "hand": "right"
      },
      {
        "midi": 51,
        "time": 26.625,
        "duration": 0.375,
        "velocity": 1,
        "hand": "right"
      },
      {
        "midi": 67,
        "time": 27,
        "duration": 0.25,
        "velocity": 1,
        "hand": "right"
      },
      {
        "midi": 67,
        "time": 27.188,
        "duration": 0.25,
        "velocity": 1,
        "hand": "right"
      },
      {
        "midi": 67,
        "time": 27.563,
        "duration": 0.25,
        "velocity": 1,
        "hand": "right"
      },
      {
        "midi": 72,
        "time": 27.75,
        "duration": 0.25,
        "velocity": 1,
        "hand": "right"
      },
      {
        "midi": 72,
        "time": 27.938,
        "duration": 0.25,
        "velocity": 1,
        "hand": "right"
      },
      {
        "midi": 74,
        "time": 28.313,
        "duration": 0.25,
        "velocity": 1,
        "hand": "right"
      },
      {
        "midi": 75,
        "time": 28.5,
        "duration": 0.375,
        "velocity": 1,
        "hand": "right"
      },
      {
        "midi": 74,
        "time": 28.875,
        "duration": 0.375,
        "velocity": 1,
        "hand": "right"
      },
      {
        "midi": 72,
        "time": 29.25,
        "duration": 0.563,
        "velocity": 1,
        "hand": "right"
      },
      {
        "midi": 51,
        "time": 29.625,
        "duration": 0.375,
        "velocity": 1,
        "hand": "right"
      },
      {
        "midi": 72,
        "time": 30,
        "duration": 0.25,
        "velocity": 1,
        "hand": "right"
      },
      {
        "midi": 72,
        "time": 30.188,
        "duration": 0.25,
        "velocity": 1,
        "hand": "right"
      },
      {
        "midi": 70,
        "time": 30.563,
        "duration": 0.25,
        "velocity": 1,
        "hand": "right"
      },
      {
        "midi": 68,
        "time": 30.75,
        "duration": 0.25,
        "velocity": 1,
        "hand": "right"
      },
      {
        "midi": 68,
        "time": 30.938,
        "duration": 0.25,
        "velocity": 1,
        "hand": "right"
      },
      {
        "midi": 70,
        "time": 31.313,
        "duration": 0.25,
        "velocity": 1,
        "hand": "right"
      },
      {
        "midi": 72,
        "time": 31.5,
        "duration": 0.375,
        "velocity": 1,
        "hand": "right"
      },
      {
        "midi": 68,
        "time": 31.875,
        "duration": 0.375,
        "velocity": 1,
        "hand": "right"
      },
      {
        "midi": 67,
        "time": 32.25,
        "duration": 0.563,
        "velocity": 1,
        "hand": "right"
      },
      {
        "midi": 51,
        "time": 32.625,
        "duration": 0.375,
        "velocity": 1,
        "hand": "right"
      },
      {
        "midi": 72,
        "time": 33,
        "duration": 0.25,
        "velocity": 1,
        "hand": "right"
      },
      {
        "midi": 72,
        "time": 33.188,
        "duration": 0.25,
        "velocity": 1,
        "hand": "right"
      },
      {
        "midi": 70,
        "time": 33.563,
        "duration": 0.25,
        "velocity": 1,
        "hand": "right"
      },
      {
        "midi": 68,
        "time": 33.75,
        "duration": 0.25,
        "velocity": 1,
        "hand": "right"
      },
      {
        "midi": 68,
        "time": 33.938,
        "duration": 0.25,
        "velocity": 1,
        "hand": "right"
      },
      {
        "midi": 70,
        "time": 34.313,
        "duration": 0.25,
        "velocity": 1,
        "hand": "right"
      },
      {
        "midi": 72,
        "time": 34.5,
        "duration": 0.375,
        "velocity": 1,
        "hand": "right"
      },
      {
        "midi": 68,
        "time": 34.875,
        "duration": 0.375,
        "velocity": 1,
        "hand": "right"
      },
      {
        "midi": 67,
        "time": 35.25,
        "duration": 0.375,
        "velocity": 1,
        "hand": "right"
      },
      {
        "midi": 36,
        "time": 35.625,
        "duration": 0.375,
        "velocity": 1,
        "hand": "right"
      }
    ],
    "medium": [
      {
        "midi": 67,
        "time": 0,
        "duration": 0.375,
        "velocity": 1,
        "hand": "right"
      },
      {
        "midi": 67,
        "time": 0.375,
        "duration": 0.375,
        "velocity": 1,
        "hand": "right"
      },
      {
        "midi": 72,
        "time": 0.75,
        "duration": 0.375,
        "velocity": 1,
        "hand": "right"
      },
      {
        "midi": 48,
        "time": 0.938,
        "duration": 0.375,
        "velocity": 1,
        "hand": "left"
      },
      {
        "midi": 60,
        "time": 0.938,
        "duration": 0.375,
        "velocity": 1,
        "hand": "right"
      },
      {
        "midi": 51,
        "time": 1.125,
        "duration": 0.375,
        "velocity": 1,
        "hand": "left"
      },
      {
        "midi": 55,
        "time": 1.125,
        "duration": 0.375,
        "velocity": 1,
        "hand": "left"
      },
      {
        "midi": 72,
        "time": 1.125,
        "duration": 0.188,
        "velocity": 1,
        "hand": "right"
      },
      {
        "midi": 43,
        "time": 1.313,
        "duration": 0.188,
        "velocity": 1,
        "hand": "left"
      },
      {
        "midi": 55,
        "time": 1.313,
        "duration": 0.188,
        "velocity": 1,
        "hand": "left"
      },
      {
        "midi": 74,
        "time": 1.313,
        "duration": 0.188,
        "velocity": 1,
        "hand": "right"
      },
      {
        "midi": 39,
        "time": 1.5,
        "duration": 0.375,
        "velocity": 1,
        "hand": "left"
      },
      {
        "midi": 53,
        "time": 1.5,
        "duration": 0.375,
        "velocity": 1,
        "hand": "left"
      },
      {
        "midi": 75,
        "time": 1.5,
        "duration": 0.375,
        "velocity": 1,
        "hand": "right"
      },
      {
        "midi": 38,
        "time": 1.875,
        "duration": 0.375,
        "velocity": 1,
        "hand": "left"
      },
      {
        "midi": 54,
        "time": 1.875,
        "duration": 0.375,
        "velocity": 1,
        "hand": "left"
      },
      {
        "midi": 74,
        "time": 1.875,
        "duration": 0.375,
        "velocity": 1,
        "hand": "right"
      },
      {
        "midi": 36,
        "time": 2.25,
        "duration": 0.375,
        "velocity": 1,
        "hand": "left"
      },
      {
        "midi": 55,
        "time": 2.25,
        "duration": 0.375,
        "velocity": 1,
        "hand": "left"
      },
      {
        "midi": 72,
        "time": 2.25,
        "duration": 0.375,
        "velocity": 1,
        "hand": "right"
      },
      {
        "midi": 31,
        "time": 2.625,
        "duration": 0.375,
        "velocity": 1,
        "hand": "left"
      },
      {
        "midi": 51,
        "time": 2.625,
        "duration": 0.375,
        "velocity": 1,
        "hand": "left"
      },
      {
        "midi": 72,
        "time": 2.625,
        "duration": 0.375,
        "velocity": 1,
        "hand": "right"
      },
      {
        "midi": 67,
        "time": 3,
        "duration": 0.375,
        "velocity": 1,
        "hand": "right"
      },
      {
        "midi": 67,
        "time": 3.375,
        "duration": 0.375,
        "velocity": 1,
        "hand": "right"
      },
      {
        "midi": 72,
        "time": 3.75,
        "duration": 0.375,
        "velocity": 1,
        "hand": "right"
      },
      {
        "midi": 48,
        "time": 3.938,
        "duration": 0.375,
        "velocity": 1,
        "hand": "left"
      },
      {
        "midi": 60,
        "time": 3.938,
        "duration": 0.375,
        "velocity": 1,
        "hand": "right"
      },
      {
        "midi": 51,
        "time": 4.125,
        "duration": 0.375,
        "velocity": 1,
        "hand": "left"
      },
      {
        "midi": 55,
        "time": 4.125,
        "duration": 0.375,
        "velocity": 1,
        "hand": "left"
      },
      {
        "midi": 72,
        "time": 4.125,
        "duration": 0.188,
        "velocity": 1,
        "hand": "right"
      },
      {
        "midi": 43,
        "time": 4.313,
        "duration": 0.188,
        "velocity": 1,
        "hand": "left"
      },
      {
        "midi": 55,
        "time": 4.313,
        "duration": 0.188,
        "velocity": 1,
        "hand": "left"
      },
      {
        "midi": 74,
        "time": 4.313,
        "duration": 0.188,
        "velocity": 1,
        "hand": "right"
      },
      {
        "midi": 39,
        "time": 4.5,
        "duration": 0.375,
        "velocity": 1,
        "hand": "left"
      },
      {
        "midi": 53,
        "time": 4.5,
        "duration": 0.375,
        "velocity": 1,
        "hand": "left"
      },
      {
        "midi": 75,
        "time": 4.5,
        "duration": 0.375,
        "velocity": 1,
        "hand": "right"
      },
      {
        "midi": 38,
        "time": 4.875,
        "duration": 0.375,
        "velocity": 1,
        "hand": "left"
      },
      {
        "midi": 54,
        "time": 4.875,
        "duration": 0.375,
        "velocity": 1,
        "hand": "left"
      },
      {
        "midi": 74,
        "time": 4.875,
        "duration": 0.375,
        "velocity": 1,
        "hand": "right"
      },
      {
        "midi": 36,
        "time": 5.25,
        "duration": 0.375,
        "velocity": 1,
        "hand": "left"
      },
      {
        "midi": 55,
        "time": 5.25,
        "duration": 0.375,
        "velocity": 1,
        "hand": "left"
      },
      {
        "midi": 72,
        "time": 5.25,
        "duration": 0.375,
        "velocity": 1,
        "hand": "right"
      },
      {
        "midi": 31,
        "time": 5.625,
        "duration": 0.375,
        "velocity": 1,
        "hand": "left"
      },
      {
        "midi": 51,
        "time": 5.625,
        "duration": 0.375,
        "velocity": 1,
        "hand": "left"
      },
      {
        "midi": 72,
        "time": 5.625,
        "duration": 0.375,
        "velocity": 1,
        "hand": "right"
      },
      {
        "midi": 72,
        "time": 6,
        "duration": 0.375,
        "velocity": 1,
        "hand": "right"
      },
      {
        "midi": 72,
        "time": 6.375,
        "duration": 0.188,
        "velocity": 1,
        "hand": "right"
      },
      {
        "midi": 70,
        "time": 6.563,
        "duration": 0.188,
        "velocity": 1,
        "hand": "right"
      },
      {
        "midi": 68,
        "time": 6.75,
        "duration": 0.375,
        "velocity": 1,
        "hand": "right"
      },
      {
        "midi": 44,
        "time": 6.938,
        "duration": 0.375,
        "velocity": 1,
        "hand": "left"
      },
      {
        "midi": 56,
        "time": 6.938,
        "duration": 0.375,
        "velocity": 1,
        "hand": "left"
      },
      {
        "midi": 53,
        "time": 7.125,
        "duration": 0.375,
        "velocity": 1,
        "hand": "left"
      },
      {
        "midi": 60,
        "time": 7.125,
        "duration": 0.375,
        "velocity": 1,
        "hand": "right"
      },
      {
        "midi": 43,
        "time": 7.313,
        "duration": 0.188,
        "velocity": 1,
        "hand": "left"
      },
      {
        "midi": 55,
        "time": 7.313,
        "duration": 0.188,
        "velocity": 1,
        "hand": "left"
      },
      {
        "midi": 70,
        "time": 7.313,
        "duration": 0.188,
        "velocity": 1,
        "hand": "right"
      },
      {
        "midi": 41,
        "time": 7.5,
        "duration": 0.375,
        "velocity": 1,
        "hand": "left"
      },
      {
        "midi": 53,
        "time": 7.5,
        "duration": 0.375,
        "velocity": 1,
        "hand": "left"
      },
      {
        "midi": 72,
        "time": 7.5,
        "duration": 0.188,
        "velocity": 1,
        "hand": "right"
      },
      {
        "midi": 72,
        "time": 7.688,
        "duration": 0.188,
        "velocity": 1,
        "hand": "right"
      },
      {
        "midi": 40,
        "time": 7.875,
        "duration": 0.375,
        "velocity": 1,
        "hand": "left"
      },
      {
        "midi": 52,
        "time": 7.875,
        "duration": 0.375,
        "velocity": 1,
        "hand": "left"
      },
      {
        "midi": 72,
        "time": 7.875,
        "duration": 0.188,
        "velocity": 1,
        "hand": "right"
      },
      {
        "midi": 68,
        "time": 8.063,
        "duration": 0.188,
        "velocity": 1,
        "hand": "right"
      },
      {
        "midi": 39,
        "time": 8.25,
        "duration": 0.375,
        "velocity": 1,
        "hand": "left"
      },
      {
        "midi": 51,
        "time": 8.25,
        "duration": 0.375,
        "velocity": 1,
        "hand": "left"
      },
      {
        "midi": 67,
        "time": 8.25,
        "duration": 0.375,
        "velocity": 1,
        "hand": "right"
      },
      {
        "midi": 36,
        "time": 8.625,
        "duration": 0.375,
        "velocity": 1,
        "hand": "left"
      },
      {
        "midi": 51,
        "time": 8.625,
        "duration": 0.375,
        "velocity": 1,
        "hand": "left"
      },
      {
        "midi": 67,
        "time": 8.625,
        "duration": 0.375,
        "velocity": 1,
        "hand": "right"
      },
      {
        "midi": 72,
        "time": 9,
        "duration": 0.375,
        "velocity": 1,
        "hand": "right"
      },
      {
        "midi": 72,
        "time": 9.375,
        "duration": 0.188,
        "velocity": 1,
        "hand": "right"
      },
      {
        "midi": 70,
        "time": 9.563,
        "duration": 0.188,
        "velocity": 1,
        "hand": "right"
      },
      {
        "midi": 68,
        "time": 9.75,
        "duration": 0.375,
        "velocity": 1,
        "hand": "right"
      },
      {
        "midi": 44,
        "time": 9.938,
        "duration": 0.375,
        "velocity": 1,
        "hand": "left"
      },
      {
        "midi": 56,
        "time": 9.938,
        "duration": 0.375,
        "velocity": 1,
        "hand": "left"
      },
      {
        "midi": 53,
        "time": 10.125,
        "duration": 0.375,
        "velocity": 1,
        "hand": "left"
      },
      {
        "midi": 60,
        "time": 10.125,
        "duration": 0.375,
        "velocity": 1,
        "hand": "right"
      },
      {
        "midi": 43,
        "time": 10.313,
        "duration": 0.188,
        "velocity": 1,
        "hand": "left"
      },
      {
        "midi": 55,
        "time": 10.313,
        "duration": 0.188,
        "velocity": 1,
        "hand": "left"
      },
      {
        "midi": 70,
        "time": 10.313,
        "duration": 0.188,
        "velocity": 1,
        "hand": "right"
      },
      {
        "midi": 41,
        "time": 10.5,
        "duration": 0.375,
        "velocity": 1,
        "hand": "left"
      },
      {
        "midi": 53,
        "time": 10.5,
        "duration": 0.375,
        "velocity": 1,
        "hand": "left"
      },
      {
        "midi": 72,
        "time": 10.5,
        "duration": 0.188,
        "velocity": 1,
        "hand": "right"
      },
      {
        "midi": 72,
        "time": 10.688,
        "duration": 0.188,
        "velocity": 1,
        "hand": "right"
      },
      {
        "midi": 40,
        "time": 10.875,
        "duration": 0.375,
        "velocity": 1,
        "hand": "left"
      },
      {
        "midi": 52,
        "time": 10.875,
        "duration": 0.375,
        "velocity": 1,
        "hand": "left"
      },
      {
        "midi": 72,
        "time": 10.875,
        "duration": 0.188,
        "velocity": 1,
        "hand": "right"
      },
      {
        "midi": 68,
        "time": 11.063,
        "duration": 0.188,
        "velocity": 1,
        "hand": "right"
      },
      {
        "midi": 39,
        "time": 11.25,
        "duration": 0.375,
        "velocity": 1,
        "hand": "left"
      },
      {
        "midi": 51,
        "time": 11.25,
        "duration": 0.375,
        "velocity": 1,
        "hand": "left"
      },
      {
        "midi": 67,
        "time": 11.25,
        "duration": 0.375,
        "velocity": 1,
        "hand": "right"
      },
      {
        "midi": 31,
        "time": 11.625,
        "duration": 0.375,
        "velocity": 1,
        "hand": "left"
      },
      {
        "midi": 43,
        "time": 11.625,
        "duration": 0.375,
        "velocity": 1,
        "hand": "left"
      },
      {
        "midi": 67,
        "time": 11.625,
        "duration": 0.188,
        "velocity": 1,
        "hand": "right"
      },
      {
        "midi": 67,
        "time": 11.813,
        "duration": 0.188,
        "velocity": 1,
        "hand": "right"
      },
      {
        "midi": 19,
        "time": 12,
        "duration": 23.25,
        "velocity": 0.47,
        "hand": "left"
      },
      {
        "midi": 67,
        "time": 12,
        "duration": 0.188,
        "velocity": 1,
        "hand": "right"
      },
      {
        "midi": 67,
        "time": 12.188,
        "duration": 0.188,
        "velocity": 1,
        "hand": "right"
      },
      {
        "midi": 67,
        "time": 12.375,
        "duration": 0.188,
        "velocity": 1,
        "hand": "right"
      },
      {
        "midi": 67,
        "time": 12.563,
        "duration": 0.188,
        "velocity": 1,
        "hand": "right"
      },
      {
        "midi": 72,
        "time": 12.75,
        "duration": 0.188,
        "velocity": 1,
        "hand": "right"
      },
      {
        "midi": 48,
        "time": 12.938,
        "duration": 0.375,
        "velocity": 1,
        "hand": "left"
      },
      {
        "midi": 60,
        "time": 12.938,
        "duration": 0.375,
        "velocity": 1,
        "hand": "right"
      },
      {
        "midi": 72,
        "time": 12.938,
        "duration": 0.188,
        "velocity": 1,
        "hand": "right"
      },
      {
        "midi": 51,
        "time": 13.125,
        "duration": 0.375,
        "velocity": 1,
        "hand": "left"
      },
      {
        "midi": 55,
        "time": 13.125,
        "duration": 0.375,
        "velocity": 1,
        "hand": "left"
      },
      {
        "midi": 72,
        "time": 13.125,
        "duration": 0.188,
        "velocity": 1,
        "hand": "right"
      },
      {
        "midi": 43,
        "time": 13.313,
        "duration": 0.188,
        "velocity": 1,
        "hand": "left"
      },
      {
        "midi": 55,
        "time": 13.313,
        "duration": 0.188,
        "velocity": 1,
        "hand": "left"
      },
      {
        "midi": 74,
        "time": 13.313,
        "duration": 0.188,
        "velocity": 1,
        "hand": "right"
      },
      {
        "midi": 39,
        "time": 13.5,
        "duration": 0.375,
        "velocity": 1,
        "hand": "left"
      },
      {
        "midi": 53,
        "time": 13.5,
        "duration": 0.375,
        "velocity": 1,
        "hand": "left"
      },
      {
        "midi": 75,
        "time": 13.5,
        "duration": 0.375,
        "velocity": 1,
        "hand": "right"
      },
      {
        "midi": 38,
        "time": 13.875,
        "duration": 0.375,
        "velocity": 1,
        "hand": "left"
      },
      {
        "midi": 54,
        "time": 13.875,
        "duration": 0.375,
        "velocity": 1,
        "hand": "left"
      },
      {
        "midi": 74,
        "time": 13.875,
        "duration": 0.375,
        "velocity": 1,
        "hand": "right"
      },
      {
        "midi": 36,
        "time": 14.25,
        "duration": 0.375,
        "velocity": 1,
        "hand": "left"
      },
      {
        "midi": 55,
        "time": 14.25,
        "duration": 0.375,
        "velocity": 1,
        "hand": "left"
      },
      {
        "midi": 72,
        "time": 14.25,
        "duration": 0.375,
        "velocity": 1,
        "hand": "right"
      },
      {
        "midi": 31,
        "time": 14.625,
        "duration": 0.375,
        "velocity": 1,
        "hand": "left"
      },
      {
        "midi": 51,
        "time": 14.625,
        "duration": 0.375,
        "velocity": 1,
        "hand": "left"
      },
      {
        "midi": 72,
        "time": 14.625,
        "duration": 0.188,
        "velocity": 1,
        "hand": "right"
      },
      {
        "midi": 67,
        "time": 14.813,
        "duration": 0.188,
        "velocity": 1,
        "hand": "right"
      },
      {
        "midi": 67,
        "time": 15,
        "duration": 0.188,
        "velocity": 1,
        "hand": "right"
      },
      {
        "midi": 67,
        "time": 15.188,
        "duration": 0.188,
        "velocity": 1,
        "hand": "right"
      },
      {
        "midi": 67,
        "time": 15.375,
        "duration": 0.188,
        "velocity": 1,
        "hand": "right"
      },
      {
        "midi": 67,
        "time": 15.563,
        "duration": 0.188,
        "velocity": 1,
        "hand": "right"
      },
      {
        "midi": 72,
        "time": 15.75,
        "duration": 0.188,
        "velocity": 1,
        "hand": "right"
      },
      {
        "midi": 48,
        "time": 15.938,
        "duration": 0.375,
        "velocity": 1,
        "hand": "left"
      },
      {
        "midi": 60,
        "time": 15.938,
        "duration": 0.375,
        "velocity": 1,
        "hand": "right"
      },
      {
        "midi": 72,
        "time": 15.938,
        "duration": 0.188,
        "velocity": 1,
        "hand": "right"
      },
      {
        "midi": 51,
        "time": 16.125,
        "duration": 0.375,
        "velocity": 1,
        "hand": "left"
      },
      {
        "midi": 55,
        "time": 16.125,
        "duration": 0.375,
        "velocity": 1,
        "hand": "left"
      },
      {
        "midi": 72,
        "time": 16.125,
        "duration": 0.188,
        "velocity": 1,
        "hand": "right"
      },
      {
        "midi": 43,
        "time": 16.313,
        "duration": 0.188,
        "velocity": 1,
        "hand": "left"
      },
      {
        "midi": 55,
        "time": 16.313,
        "duration": 0.188,
        "velocity": 1,
        "hand": "left"
      },
      {
        "midi": 74,
        "time": 16.313,
        "duration": 0.188,
        "velocity": 1,
        "hand": "right"
      },
      {
        "midi": 39,
        "time": 16.5,
        "duration": 0.375,
        "velocity": 1,
        "hand": "left"
      },
      {
        "midi": 53,
        "time": 16.5,
        "duration": 0.375,
        "velocity": 1,
        "hand": "left"
      },
      {
        "midi": 75,
        "time": 16.5,
        "duration": 0.375,
        "velocity": 1,
        "hand": "right"
      },
      {
        "midi": 38,
        "time": 16.875,
        "duration": 0.375,
        "velocity": 1,
        "hand": "left"
      },
      {
        "midi": 54,
        "time": 16.875,
        "duration": 0.375,
        "velocity": 1,
        "hand": "left"
      },
      {
        "midi": 74,
        "time": 16.875,
        "duration": 0.375,
        "velocity": 1,
        "hand": "right"
      },
      {
        "midi": 36,
        "time": 17.25,
        "duration": 0.375,
        "velocity": 1,
        "hand": "left"
      },
      {
        "midi": 55,
        "time": 17.25,
        "duration": 0.375,
        "velocity": 1,
        "hand": "left"
      },
      {
        "midi": 72,
        "time": 17.25,
        "duration": 0.375,
        "velocity": 1,
        "hand": "right"
      },
      {
        "midi": 31,
        "time": 17.625,
        "duration": 0.375,
        "velocity": 1,
        "hand": "left"
      },
      {
        "midi": 51,
        "time": 17.625,
        "duration": 0.375,
        "velocity": 1,
        "hand": "left"
      },
      {
        "midi": 72,
        "time": 17.625,
        "duration": 0.375,
        "velocity": 1,
        "hand": "right"
      },
      {
        "midi": 72,
        "time": 18,
        "duration": 0.188,
        "velocity": 1,
        "hand": "right"
      },
      {
        "midi": 72,
        "time": 18.188,
        "duration": 0.188,
        "velocity": 1,
        "hand": "right"
      },
      {
        "midi": 72,
        "time": 18.375,
        "duration": 0.188,
        "velocity": 1,
        "hand": "right"
      },
      {
        "midi": 70,
        "time": 18.563,
        "duration": 0.188,
        "velocity": 1,
        "hand": "right"
      },
      {
        "midi": 68,
        "time": 18.75,
        "duration": 0.188,
        "velocity": 1,
        "hand": "right"
      },
      {
        "midi": 44,
        "time": 18.938,
        "duration": 0.375,
        "velocity": 1,
        "hand": "left"
      },
      {
        "midi": 56,
        "time": 18.938,
        "duration": 0.375,
        "velocity": 1,
        "hand": "left"
      },
      {
        "midi": 68,
        "time": 18.938,
        "duration": 0.188,
        "velocity": 1,
        "hand": "right"
      },
      {
        "midi": 53,
        "time": 19.125,
        "duration": 0.375,
        "velocity": 1,
        "hand": "left"
      },
      {
        "midi": 60,
        "time": 19.125,
        "duration": 0.375,
        "velocity": 1,
        "hand": "right"
      },
      {
        "midi": 68,
        "time": 19.125,
        "duration": 0.188,
        "velocity": 1,
        "hand": "right"
      },
      {
        "midi": 43,
        "time": 19.313,
        "duration": 0.188,
        "velocity": 1,
        "hand": "left"
      },
      {
        "midi": 55,
        "time": 19.313,
        "duration": 0.188,
        "velocity": 1,
        "hand": "left"
      },
      {
        "midi": 70,
        "time": 19.313,
        "duration": 0.188,
        "velocity": 1,
        "hand": "right"
      },
      {
        "midi": 41,
        "time": 19.5,
        "duration": 0.375,
        "velocity": 1,
        "hand": "left"
      },
      {
        "midi": 53,
        "time": 19.5,
        "duration": 0.375,
        "velocity": 1,
        "hand": "left"
      },
      {
        "midi": 72,
        "time": 19.5,
        "duration": 0.188,
        "velocity": 1,
        "hand": "right"
      },
      {
        "midi": 72,
        "time": 19.688,
        "duration": 0.188,
        "velocity": 1,
        "hand": "right"
      },
      {
        "midi": 40,
        "time": 19.875,
        "duration": 0.375,
        "velocity": 1,
        "hand": "left"
      },
      {
        "midi": 52,
        "time": 19.875,
        "duration": 0.375,
        "velocity": 1,
        "hand": "left"
      },
      {
        "midi": 68,
        "time": 19.875,
        "duration": 0.375,
        "velocity": 1,
        "hand": "right"
      },
      {
        "midi": 39,
        "time": 20.25,
        "duration": 0.375,
        "velocity": 1,
        "hand": "left"
      },
      {
        "midi": 51,
        "time": 20.25,
        "duration": 0.375,
        "velocity": 1,
        "hand": "left"
      },
      {
        "midi": 67,
        "time": 20.25,
        "duration": 0.375,
        "velocity": 1,
        "hand": "right"
      },
      {
        "midi": 36,
        "time": 20.625,
        "duration": 0.375,
        "velocity": 1,
        "hand": "left"
      },
      {
        "midi": 51,
        "time": 20.625,
        "duration": 0.375,
        "velocity": 1,
        "hand": "left"
      },
      {
        "midi": 67,
        "time": 20.625,
        "duration": 0.375,
        "velocity": 1,
        "hand": "right"
      },
      {
        "midi": 72,
        "time": 21,
        "duration": 0.188,
        "velocity": 1,
        "hand": "right"
      },
      {
        "midi": 72,
        "time": 21.188,
        "duration": 0.188,
        "velocity": 1,
        "hand": "right"
      },
      {
        "midi": 72,
        "time": 21.375,
        "duration": 0.188,
        "velocity": 1,
        "hand": "right"
      },
      {
        "midi": 70,
        "time": 21.563,
        "duration": 0.188,
        "velocity": 1,
        "hand": "right"
      },
      {
        "midi": 68,
        "time": 21.75,
        "duration": 0.188,
        "velocity": 1,
        "hand": "right"
      },
      {
        "midi": 44,
        "time": 21.938,
        "duration": 0.375,
        "velocity": 1,
        "hand": "left"
      },
      {
        "midi": 56,
        "time": 21.938,
        "duration": 0.375,
        "velocity": 1,
        "hand": "left"
      },
      {
        "midi": 68,
        "time": 21.938,
        "duration": 0.188,
        "velocity": 1,
        "hand": "right"
      },
      {
        "midi": 53,
        "time": 22.125,
        "duration": 0.375,
        "velocity": 1,
        "hand": "left"
      },
      {
        "midi": 60,
        "time": 22.125,
        "duration": 0.375,
        "velocity": 1,
        "hand": "right"
      },
      {
        "midi": 68,
        "time": 22.125,
        "duration": 0.188,
        "velocity": 1,
        "hand": "right"
      },
      {
        "midi": 43,
        "time": 22.313,
        "duration": 0.188,
        "velocity": 1,
        "hand": "left"
      },
      {
        "midi": 55,
        "time": 22.313,
        "duration": 0.188,
        "velocity": 1,
        "hand": "left"
      },
      {
        "midi": 70,
        "time": 22.313,
        "duration": 0.188,
        "velocity": 1,
        "hand": "right"
      },
      {
        "midi": 41,
        "time": 22.5,
        "duration": 0.375,
        "velocity": 1,
        "hand": "left"
      },
      {
        "midi": 53,
        "time": 22.5,
        "duration": 0.375,
        "velocity": 1,
        "hand": "left"
      },
      {
        "midi": 72,
        "time": 22.5,
        "duration": 0.188,
        "velocity": 1,
        "hand": "right"
      },
      {
        "midi": 72,
        "time": 22.688,
        "duration": 0.188,
        "velocity": 1,
        "hand": "right"
      },
      {
        "midi": 40,
        "time": 22.875,
        "duration": 0.375,
        "velocity": 1,
        "hand": "left"
      },
      {
        "midi": 52,
        "time": 22.875,
        "duration": 0.375,
        "velocity": 1,
        "hand": "left"
      },
      {
        "midi": 68,
        "time": 22.875,
        "duration": 0.375,
        "velocity": 1,
        "hand": "right"
      },
      {
        "midi": 39,
        "time": 23.25,
        "duration": 0.375,
        "velocity": 1,
        "hand": "left"
      },
      {
        "midi": 51,
        "time": 23.25,
        "duration": 0.375,
        "velocity": 1,
        "hand": "left"
      },
      {
        "midi": 67,
        "time": 23.25,
        "duration": 0.375,
        "velocity": 1,
        "hand": "right"
      },
      {
        "midi": 31,
        "time": 23.625,
        "duration": 0.375,
        "velocity": 1,
        "hand": "left"
      },
      {
        "midi": 43,
        "time": 23.625,
        "duration": 0.375,
        "velocity": 1,
        "hand": "left"
      },
      {
        "midi": 67,
        "time": 23.625,
        "duration": 0.375,
        "velocity": 1,
        "hand": "right"
      },
      {
        "midi": 67,
        "time": 24,
        "duration": 0.188,
        "velocity": 1,
        "hand": "right"
      },
      {
        "midi": 79,
        "time": 24,
        "duration": 11.25,
        "velocity": 0.35,
        "hand": "right"
      },
      {
        "midi": 67,
        "time": 24.188,
        "duration": 0.188,
        "velocity": 1,
        "hand": "right"
      },
      {
        "midi": 67,
        "time": 24.375,
        "duration": 0.188,
        "velocity": 1,
        "hand": "right"
      },
      {
        "midi": 67,
        "time": 24.563,
        "duration": 0.188,
        "velocity": 1,
        "hand": "right"
      },
      {
        "midi": 72,
        "time": 24.75,
        "duration": 0.188,
        "velocity": 1,
        "hand": "right"
      },
      {
        "midi": 48,
        "time": 24.938,
        "duration": 0.375,
        "velocity": 1,
        "hand": "left"
      },
      {
        "midi": 60,
        "time": 24.938,
        "duration": 0.375,
        "velocity": 1,
        "hand": "right"
      },
      {
        "midi": 72,
        "time": 24.938,
        "duration": 0.188,
        "velocity": 1,
        "hand": "right"
      },
      {
        "midi": 51,
        "time": 25.125,
        "duration": 0.375,
        "velocity": 1,
        "hand": "left"
      },
      {
        "midi": 55,
        "time": 25.125,
        "duration": 0.375,
        "velocity": 1,
        "hand": "left"
      },
      {
        "midi": 72,
        "time": 25.125,
        "duration": 0.188,
        "velocity": 1,
        "hand": "right"
      },
      {
        "midi": 43,
        "time": 25.313,
        "duration": 0.188,
        "velocity": 1,
        "hand": "left"
      },
      {
        "midi": 55,
        "time": 25.313,
        "duration": 0.188,
        "velocity": 1,
        "hand": "left"
      },
      {
        "midi": 74,
        "time": 25.313,
        "duration": 0.188,
        "velocity": 1,
        "hand": "right"
      },
      {
        "midi": 39,
        "time": 25.5,
        "duration": 0.375,
        "velocity": 1,
        "hand": "left"
      },
      {
        "midi": 53,
        "time": 25.5,
        "duration": 0.375,
        "velocity": 1,
        "hand": "left"
      },
      {
        "midi": 75,
        "time": 25.5,
        "duration": 0.375,
        "velocity": 1,
        "hand": "right"
      },
      {
        "midi": 38,
        "time": 25.875,
        "duration": 0.375,
        "velocity": 1,
        "hand": "left"
      },
      {
        "midi": 54,
        "time": 25.875,
        "duration": 0.375,
        "velocity": 1,
        "hand": "left"
      },
      {
        "midi": 74,
        "time": 25.875,
        "duration": 0.375,
        "velocity": 1,
        "hand": "right"
      },
      {
        "midi": 36,
        "time": 26.25,
        "duration": 0.375,
        "velocity": 1,
        "hand": "left"
      },
      {
        "midi": 55,
        "time": 26.25,
        "duration": 0.375,
        "velocity": 1,
        "hand": "left"
      },
      {
        "midi": 72,
        "time": 26.25,
        "duration": 0.563,
        "velocity": 1,
        "hand": "right"
      },
      {
        "midi": 31,
        "time": 26.625,
        "duration": 0.375,
        "velocity": 1,
        "hand": "left"
      },
      {
        "midi": 43,
        "time": 26.625,
        "duration": 0.375,
        "velocity": 1,
        "hand": "left"
      },
      {
        "midi": 51,
        "time": 26.625,
        "duration": 0.375,
        "velocity": 1,
        "hand": "left"
      },
      {
        "midi": 67,
        "time": 27,
        "duration": 0.188,
        "velocity": 1,
        "hand": "right"
      },
      {
        "midi": 67,
        "time": 27.188,
        "duration": 0.188,
        "velocity": 1,
        "hand": "right"
      },
      {
        "midi": 67,
        "time": 27.375,
        "duration": 0.188,
        "velocity": 1,
        "hand": "right"
      },
      {
        "midi": 67,
        "time": 27.563,
        "duration": 0.188,
        "velocity": 1,
        "hand": "right"
      },
      {
        "midi": 72,
        "time": 27.75,
        "duration": 0.188,
        "velocity": 1,
        "hand": "right"
      },
      {
        "midi": 48,
        "time": 27.938,
        "duration": 0.375,
        "velocity": 1,
        "hand": "left"
      },
      {
        "midi": 60,
        "time": 27.938,
        "duration": 0.375,
        "velocity": 1,
        "hand": "right"
      },
      {
        "midi": 72,
        "time": 27.938,
        "duration": 0.188,
        "velocity": 1,
        "hand": "right"
      },
      {
        "midi": 51,
        "time": 28.125,
        "duration": 0.375,
        "velocity": 1,
        "hand": "left"
      },
      {
        "midi": 55,
        "time": 28.125,
        "duration": 0.375,
        "velocity": 1,
        "hand": "left"
      },
      {
        "midi": 72,
        "time": 28.125,
        "duration": 0.188,
        "velocity": 1,
        "hand": "right"
      },
      {
        "midi": 43,
        "time": 28.313,
        "duration": 0.188,
        "velocity": 1,
        "hand": "left"
      },
      {
        "midi": 55,
        "time": 28.313,
        "duration": 0.188,
        "velocity": 1,
        "hand": "left"
      },
      {
        "midi": 74,
        "time": 28.313,
        "duration": 0.188,
        "velocity": 1,
        "hand": "right"
      },
      {
        "midi": 39,
        "time": 28.5,
        "duration": 0.375,
        "velocity": 1,
        "hand": "left"
      },
      {
        "midi": 53,
        "time": 28.5,
        "duration": 0.375,
        "velocity": 1,
        "hand": "left"
      },
      {
        "midi": 75,
        "time": 28.5,
        "duration": 0.375,
        "velocity": 1,
        "hand": "right"
      },
      {
        "midi": 38,
        "time": 28.875,
        "duration": 0.375,
        "velocity": 1,
        "hand": "left"
      },
      {
        "midi": 54,
        "time": 28.875,
        "duration": 0.375,
        "velocity": 1,
        "hand": "left"
      },
      {
        "midi": 74,
        "time": 28.875,
        "duration": 0.375,
        "velocity": 1,
        "hand": "right"
      },
      {
        "midi": 36,
        "time": 29.25,
        "duration": 0.375,
        "velocity": 1,
        "hand": "left"
      },
      {
        "midi": 55,
        "time": 29.25,
        "duration": 0.375,
        "velocity": 1,
        "hand": "left"
      },
      {
        "midi": 72,
        "time": 29.25,
        "duration": 0.563,
        "velocity": 1,
        "hand": "right"
      },
      {
        "midi": 31,
        "time": 29.625,
        "duration": 0.375,
        "velocity": 1,
        "hand": "left"
      },
      {
        "midi": 43,
        "time": 29.625,
        "duration": 0.375,
        "velocity": 1,
        "hand": "left"
      },
      {
        "midi": 51,
        "time": 29.625,
        "duration": 0.375,
        "velocity": 1,
        "hand": "left"
      },
      {
        "midi": 72,
        "time": 30,
        "duration": 0.188,
        "velocity": 1,
        "hand": "right"
      },
      {
        "midi": 72,
        "time": 30.188,
        "duration": 0.188,
        "velocity": 1,
        "hand": "right"
      },
      {
        "midi": 72,
        "time": 30.375,
        "duration": 0.188,
        "velocity": 1,
        "hand": "right"
      },
      {
        "midi": 70,
        "time": 30.563,
        "duration": 0.188,
        "velocity": 1,
        "hand": "right"
      },
      {
        "midi": 68,
        "time": 30.75,
        "duration": 0.188,
        "velocity": 1,
        "hand": "right"
      },
      {
        "midi": 44,
        "time": 30.938,
        "duration": 0.375,
        "velocity": 1,
        "hand": "left"
      },
      {
        "midi": 56,
        "time": 30.938,
        "duration": 0.375,
        "velocity": 1,
        "hand": "left"
      },
      {
        "midi": 68,
        "time": 30.938,
        "duration": 0.188,
        "velocity": 1,
        "hand": "right"
      },
      {
        "midi": 53,
        "time": 31.125,
        "duration": 0.375,
        "velocity": 1,
        "hand": "left"
      },
      {
        "midi": 60,
        "time": 31.125,
        "duration": 0.375,
        "velocity": 1,
        "hand": "right"
      },
      {
        "midi": 68,
        "time": 31.125,
        "duration": 0.188,
        "velocity": 1,
        "hand": "right"
      },
      {
        "midi": 43,
        "time": 31.313,
        "duration": 0.188,
        "velocity": 1,
        "hand": "left"
      },
      {
        "midi": 55,
        "time": 31.313,
        "duration": 0.188,
        "velocity": 1,
        "hand": "left"
      },
      {
        "midi": 70,
        "time": 31.313,
        "duration": 0.188,
        "velocity": 1,
        "hand": "right"
      },
      {
        "midi": 41,
        "time": 31.5,
        "duration": 0.375,
        "velocity": 1,
        "hand": "left"
      },
      {
        "midi": 53,
        "time": 31.5,
        "duration": 0.375,
        "velocity": 1,
        "hand": "left"
      },
      {
        "midi": 72,
        "time": 31.5,
        "duration": 0.375,
        "velocity": 1,
        "hand": "right"
      },
      {
        "midi": 40,
        "time": 31.875,
        "duration": 0.375,
        "velocity": 1,
        "hand": "left"
      },
      {
        "midi": 52,
        "time": 31.875,
        "duration": 0.375,
        "velocity": 1,
        "hand": "left"
      },
      {
        "midi": 68,
        "time": 31.875,
        "duration": 0.375,
        "velocity": 1,
        "hand": "right"
      },
      {
        "midi": 39,
        "time": 32.25,
        "duration": 0.375,
        "velocity": 1,
        "hand": "left"
      },
      {
        "midi": 51,
        "time": 32.25,
        "duration": 0.375,
        "velocity": 1,
        "hand": "left"
      },
      {
        "midi": 67,
        "time": 32.25,
        "duration": 0.563,
        "velocity": 1,
        "hand": "right"
      },
      {
        "midi": 36,
        "time": 32.625,
        "duration": 0.375,
        "velocity": 1,
        "hand": "left"
      },
      {
        "midi": 48,
        "time": 32.625,
        "duration": 0.375,
        "velocity": 1,
        "hand": "left"
      },
      {
        "midi": 51,
        "time": 32.625,
        "duration": 0.375,
        "velocity": 1,
        "hand": "left"
      },
      {
        "midi": 72,
        "time": 33,
        "duration": 0.188,
        "velocity": 1,
        "hand": "right"
      },
      {
        "midi": 72,
        "time": 33.188,
        "duration": 0.188,
        "velocity": 1,
        "hand": "right"
      },
      {
        "midi": 72,
        "time": 33.375,
        "duration": 0.188,
        "velocity": 1,
        "hand": "right"
      },
      {
        "midi": 70,
        "time": 33.563,
        "duration": 0.188,
        "velocity": 1,
        "hand": "right"
      },
      {
        "midi": 68,
        "time": 33.75,
        "duration": 0.188,
        "velocity": 1,
        "hand": "right"
      },
      {
        "midi": 44,
        "time": 33.938,
        "duration": 0.375,
        "velocity": 1,
        "hand": "left"
      },
      {
        "midi": 56,
        "time": 33.938,
        "duration": 0.375,
        "velocity": 1,
        "hand": "left"
      },
      {
        "midi": 68,
        "time": 33.938,
        "duration": 0.188,
        "velocity": 1,
        "hand": "right"
      },
      {
        "midi": 53,
        "time": 34.125,
        "duration": 0.375,
        "velocity": 1,
        "hand": "left"
      },
      {
        "midi": 60,
        "time": 34.125,
        "duration": 0.375,
        "velocity": 1,
        "hand": "right"
      },
      {
        "midi": 68,
        "time": 34.125,
        "duration": 0.188,
        "velocity": 1,
        "hand": "right"
      },
      {
        "midi": 43,
        "time": 34.313,
        "duration": 0.188,
        "velocity": 1,
        "hand": "left"
      },
      {
        "midi": 55,
        "time": 34.313,
        "duration": 0.188,
        "velocity": 1,
        "hand": "left"
      },
      {
        "midi": 70,
        "time": 34.313,
        "duration": 0.188,
        "velocity": 1,
        "hand": "right"
      },
      {
        "midi": 41,
        "time": 34.5,
        "duration": 0.375,
        "velocity": 1,
        "hand": "left"
      },
      {
        "midi": 53,
        "time": 34.5,
        "duration": 0.375,
        "velocity": 1,
        "hand": "left"
      },
      {
        "midi": 72,
        "time": 34.5,
        "duration": 0.375,
        "velocity": 1,
        "hand": "right"
      },
      {
        "midi": 40,
        "time": 34.875,
        "duration": 0.375,
        "velocity": 1,
        "hand": "left"
      },
      {
        "midi": 52,
        "time": 34.875,
        "duration": 0.375,
        "velocity": 1,
        "hand": "left"
      },
      {
        "midi": 68,
        "time": 34.875,
        "duration": 0.375,
        "velocity": 1,
        "hand": "right"
      },
      {
        "midi": 39,
        "time": 35.25,
        "duration": 0.375,
        "velocity": 1,
        "hand": "left"
      },
      {
        "midi": 51,
        "time": 35.25,
        "duration": 0.375,
        "velocity": 1,
        "hand": "left"
      },
      {
        "midi": 67,
        "time": 35.25,
        "duration": 0.375,
        "velocity": 1,
        "hand": "right"
      },
      {
        "midi": 24,
        "time": 35.625,
        "duration": 0.375,
        "velocity": 1,
        "hand": "left"
      },
      {
        "midi": 36,
        "time": 35.625,
        "duration": 0.375,
        "velocity": 1,
        "hand": "left"
      }
    ],
    "hard": [
      {
        "midi": 67,
        "time": 0,
        "duration": 0.375,
        "velocity": 1,
        "hand": "right"
      },
      {
        "midi": 67,
        "time": 0.375,
        "duration": 0.375,
        "velocity": 1,
        "hand": "right"
      },
      {
        "midi": 72,
        "time": 0.75,
        "duration": 0.375,
        "velocity": 1,
        "hand": "right"
      },
      {
        "midi": 48,
        "time": 0.938,
        "duration": 0.375,
        "velocity": 1,
        "hand": "left"
      },
      {
        "midi": 60,
        "time": 0.938,
        "duration": 0.375,
        "velocity": 1,
        "hand": "right"
      },
      {
        "midi": 51,
        "time": 1.125,
        "duration": 0.375,
        "velocity": 1,
        "hand": "left"
      },
      {
        "midi": 55,
        "time": 1.125,
        "duration": 0.375,
        "velocity": 1,
        "hand": "left"
      },
      {
        "midi": 72,
        "time": 1.125,
        "duration": 0.188,
        "velocity": 1,
        "hand": "right"
      },
      {
        "midi": 43,
        "time": 1.313,
        "duration": 0.188,
        "velocity": 1,
        "hand": "left"
      },
      {
        "midi": 55,
        "time": 1.313,
        "duration": 0.188,
        "velocity": 1,
        "hand": "left"
      },
      {
        "midi": 74,
        "time": 1.313,
        "duration": 0.188,
        "velocity": 1,
        "hand": "right"
      },
      {
        "midi": 39,
        "time": 1.5,
        "duration": 0.375,
        "velocity": 1,
        "hand": "left"
      },
      {
        "midi": 51,
        "time": 1.5,
        "duration": 0.375,
        "velocity": 1,
        "hand": "left"
      },
      {
        "midi": 53,
        "time": 1.5,
        "duration": 0.375,
        "velocity": 1,
        "hand": "left"
      },
      {
        "midi": 57,
        "time": 1.5,
        "duration": 0.375,
        "velocity": 1,
        "hand": "left"
      },
      {
        "midi": 75,
        "time": 1.5,
        "duration": 0.375,
        "velocity": 1,
        "hand": "right"
      },
      {
        "midi": 38,
        "time": 1.875,
        "duration": 0.375,
        "velocity": 1,
        "hand": "left"
      },
      {
        "midi": 50,
        "time": 1.875,
        "duration": 0.375,
        "velocity": 1,
        "hand": "left"
      },
      {
        "midi": 54,
        "time": 1.875,
        "duration": 0.375,
        "velocity": 1,
        "hand": "left"
      },
      {
        "midi": 59,
        "time": 1.875,
        "duration": 0.375,
        "velocity": 1,
        "hand": "left"
      },
      {
        "midi": 74,
        "time": 1.875,
        "duration": 0.375,
        "velocity": 1,
        "hand": "right"
      },
      {
        "midi": 36,
        "time": 2.25,
        "duration": 0.375,
        "velocity": 1,
        "hand": "left"
      },
      {
        "midi": 48,
        "time": 2.25,
        "duration": 0.375,
        "velocity": 1,
        "hand": "left"
      },
      {
        "midi": 55,
        "time": 2.25,
        "duration": 0.375,
        "velocity": 1,
        "hand": "left"
      },
      {
        "midi": 60,
        "time": 2.25,
        "duration": 0.375,
        "velocity": 1,
        "hand": "right"
      },
      {
        "midi": 72,
        "time": 2.25,
        "duration": 0.375,
        "velocity": 1,
        "hand": "right"
      },
      {
        "midi": 31,
        "time": 2.625,
        "duration": 0.375,
        "velocity": 1,
        "hand": "left"
      },
      {
        "midi": 43,
        "time": 2.625,
        "duration": 0.375,
        "velocity": 1,
        "hand": "left"
      },
      {
        "midi": 51,
        "time": 2.625,
        "duration": 0.375,
        "velocity": 1,
        "hand": "left"
      },
      {
        "midi": 72,
        "time": 2.625,
        "duration": 0.375,
        "velocity": 1,
        "hand": "right"
      },
      {
        "midi": 67,
        "time": 3,
        "duration": 0.375,
        "velocity": 1,
        "hand": "right"
      },
      {
        "midi": 67,
        "time": 3.375,
        "duration": 0.375,
        "velocity": 1,
        "hand": "right"
      },
      {
        "midi": 72,
        "time": 3.75,
        "duration": 0.375,
        "velocity": 1,
        "hand": "right"
      },
      {
        "midi": 48,
        "time": 3.938,
        "duration": 0.375,
        "velocity": 1,
        "hand": "left"
      },
      {
        "midi": 60,
        "time": 3.938,
        "duration": 0.375,
        "velocity": 1,
        "hand": "right"
      },
      {
        "midi": 51,
        "time": 4.125,
        "duration": 0.375,
        "velocity": 1,
        "hand": "left"
      },
      {
        "midi": 55,
        "time": 4.125,
        "duration": 0.375,
        "velocity": 1,
        "hand": "left"
      },
      {
        "midi": 72,
        "time": 4.125,
        "duration": 0.188,
        "velocity": 1,
        "hand": "right"
      },
      {
        "midi": 43,
        "time": 4.313,
        "duration": 0.188,
        "velocity": 1,
        "hand": "left"
      },
      {
        "midi": 55,
        "time": 4.313,
        "duration": 0.188,
        "velocity": 1,
        "hand": "left"
      },
      {
        "midi": 74,
        "time": 4.313,
        "duration": 0.188,
        "velocity": 1,
        "hand": "right"
      },
      {
        "midi": 39,
        "time": 4.5,
        "duration": 0.375,
        "velocity": 1,
        "hand": "left"
      },
      {
        "midi": 51,
        "time": 4.5,
        "duration": 0.375,
        "velocity": 1,
        "hand": "left"
      },
      {
        "midi": 53,
        "time": 4.5,
        "duration": 0.375,
        "velocity": 1,
        "hand": "left"
      },
      {
        "midi": 57,
        "time": 4.5,
        "duration": 0.375,
        "velocity": 1,
        "hand": "left"
      },
      {
        "midi": 75,
        "time": 4.5,
        "duration": 0.375,
        "velocity": 1,
        "hand": "right"
      },
      {
        "midi": 38,
        "time": 4.875,
        "duration": 0.375,
        "velocity": 1,
        "hand": "left"
      },
      {
        "midi": 50,
        "time": 4.875,
        "duration": 0.375,
        "velocity": 1,
        "hand": "left"
      },
      {
        "midi": 54,
        "time": 4.875,
        "duration": 0.375,
        "velocity": 1,
        "hand": "left"
      },
      {
        "midi": 59,
        "time": 4.875,
        "duration": 0.375,
        "velocity": 1,
        "hand": "left"
      },
      {
        "midi": 74,
        "time": 4.875,
        "duration": 0.375,
        "velocity": 1,
        "hand": "right"
      },
      {
        "midi": 36,
        "time": 5.25,
        "duration": 0.375,
        "velocity": 1,
        "hand": "left"
      },
      {
        "midi": 48,
        "time": 5.25,
        "duration": 0.375,
        "velocity": 1,
        "hand": "left"
      },
      {
        "midi": 55,
        "time": 5.25,
        "duration": 0.375,
        "velocity": 1,
        "hand": "left"
      },
      {
        "midi": 60,
        "time": 5.25,
        "duration": 0.375,
        "velocity": 1,
        "hand": "right"
      },
      {
        "midi": 72,
        "time": 5.25,
        "duration": 0.375,
        "velocity": 1,
        "hand": "right"
      },
      {
        "midi": 31,
        "time": 5.625,
        "duration": 0.375,
        "velocity": 1,
        "hand": "left"
      },
      {
        "midi": 43,
        "time": 5.625,
        "duration": 0.375,
        "velocity": 1,
        "hand": "left"
      },
      {
        "midi": 51,
        "time": 5.625,
        "duration": 0.375,
        "velocity": 1,
        "hand": "left"
      },
      {
        "midi": 72,
        "time": 5.625,
        "duration": 0.375,
        "velocity": 1,
        "hand": "right"
      },
      {
        "midi": 72,
        "time": 6,
        "duration": 0.375,
        "velocity": 1,
        "hand": "right"
      },
      {
        "midi": 72,
        "time": 6.375,
        "duration": 0.188,
        "velocity": 1,
        "hand": "right"
      },
      {
        "midi": 70,
        "time": 6.563,
        "duration": 0.188,
        "velocity": 1,
        "hand": "right"
      },
      {
        "midi": 68,
        "time": 6.75,
        "duration": 0.375,
        "velocity": 1,
        "hand": "right"
      },
      {
        "midi": 44,
        "time": 6.938,
        "duration": 0.375,
        "velocity": 1,
        "hand": "left"
      },
      {
        "midi": 56,
        "time": 6.938,
        "duration": 0.375,
        "velocity": 1,
        "hand": "left"
      },
      {
        "midi": 53,
        "time": 7.125,
        "duration": 0.375,
        "velocity": 1,
        "hand": "left"
      },
      {
        "midi": 60,
        "time": 7.125,
        "duration": 0.375,
        "velocity": 1,
        "hand": "right"
      },
      {
        "midi": 43,
        "time": 7.313,
        "duration": 0.188,
        "velocity": 1,
        "hand": "left"
      },
      {
        "midi": 55,
        "time": 7.313,
        "duration": 0.188,
        "velocity": 1,
        "hand": "left"
      },
      {
        "midi": 70,
        "time": 7.313,
        "duration": 0.188,
        "velocity": 1,
        "hand": "right"
      },
      {
        "midi": 41,
        "time": 7.5,
        "duration": 0.375,
        "velocity": 1,
        "hand": "left"
      },
      {
        "midi": 50,
        "time": 7.5,
        "duration": 0.375,
        "velocity": 1,
        "hand": "left"
      },
      {
        "midi": 53,
        "time": 7.5,
        "duration": 0.375,
        "velocity": 1,
        "hand": "left"
      },
      {
        "midi": 56,
        "time": 7.5,
        "duration": 0.375,
        "velocity": 1,
        "hand": "left"
      },
      {
        "midi": 72,
        "time": 7.5,
        "duration": 0.188,
        "velocity": 1,
        "hand": "right"
      },
      {
        "midi": 72,
        "time": 7.688,
        "duration": 0.188,
        "velocity": 1,
        "hand": "right"
      },
      {
        "midi": 40,
        "time": 7.875,
        "duration": 0.375,
        "velocity": 1,
        "hand": "left"
      },
      {
        "midi": 47,
        "time": 7.875,
        "duration": 0.375,
        "velocity": 1,
        "hand": "left"
      },
      {
        "midi": 52,
        "time": 7.875,
        "duration": 0.375,
        "velocity": 1,
        "hand": "left"
      },
      {
        "midi": 59,
        "time": 7.875,
        "duration": 0.375,
        "velocity": 1,
        "hand": "left"
      },
      {
        "midi": 72,
        "time": 7.875,
        "duration": 0.188,
        "velocity": 1,
        "hand": "right"
      },
      {
        "midi": 68,
        "time": 8.063,
        "duration": 0.188,
        "velocity": 1,
        "hand": "right"
      },
      {
        "midi": 39,
        "time": 8.25,
        "duration": 0.375,
        "velocity": 1,
        "hand": "left"
      },
      {
        "midi": 46,
        "time": 8.25,
        "duration": 0.375,
        "velocity": 1,
        "hand": "left"
      },
      {
        "midi": 51,
        "time": 8.25,
        "duration": 0.375,
        "velocity": 1,
        "hand": "left"
      },
      {
        "midi": 60,
        "time": 8.25,
        "duration": 0.375,
        "velocity": 1,
        "hand": "right"
      },
      {
        "midi": 67,
        "time": 8.25,
        "duration": 0.375,
        "velocity": 1,
        "hand": "right"
      },
      {
        "midi": 36,
        "time": 8.625,
        "duration": 0.375,
        "velocity": 1,
        "hand": "left"
      },
      {
        "midi": 48,
        "time": 8.625,
        "duration": 0.375,
        "velocity": 1,
        "hand": "left"
      },
      {
        "midi": 51,
        "time": 8.625,
        "duration": 0.375,
        "velocity": 1,
        "hand": "left"
      },
      {
        "midi": 67,
        "time": 8.625,
        "duration": 0.375,
        "velocity": 1,
        "hand": "right"
      },
      {
        "midi": 72,
        "time": 9,
        "duration": 0.375,
        "velocity": 1,
        "hand": "right"
      },
      {
        "midi": 72,
        "time": 9.375,
        "duration": 0.188,
        "velocity": 1,
        "hand": "right"
      },
      {
        "midi": 70,
        "time": 9.563,
        "duration": 0.188,
        "velocity": 1,
        "hand": "right"
      },
      {
        "midi": 68,
        "time": 9.75,
        "duration": 0.375,
        "velocity": 1,
        "hand": "right"
      },
      {
        "midi": 44,
        "time": 9.938,
        "duration": 0.375,
        "velocity": 1,
        "hand": "left"
      },
      {
        "midi": 56,
        "time": 9.938,
        "duration": 0.375,
        "velocity": 1,
        "hand": "left"
      },
      {
        "midi": 53,
        "time": 10.125,
        "duration": 0.375,
        "velocity": 1,
        "hand": "left"
      },
      {
        "midi": 60,
        "time": 10.125,
        "duration": 0.375,
        "velocity": 1,
        "hand": "right"
      },
      {
        "midi": 43,
        "time": 10.313,
        "duration": 0.188,
        "velocity": 1,
        "hand": "left"
      },
      {
        "midi": 55,
        "time": 10.313,
        "duration": 0.188,
        "velocity": 1,
        "hand": "left"
      },
      {
        "midi": 70,
        "time": 10.313,
        "duration": 0.188,
        "velocity": 1,
        "hand": "right"
      },
      {
        "midi": 41,
        "time": 10.5,
        "duration": 0.375,
        "velocity": 1,
        "hand": "left"
      },
      {
        "midi": 50,
        "time": 10.5,
        "duration": 0.375,
        "velocity": 1,
        "hand": "left"
      },
      {
        "midi": 53,
        "time": 10.5,
        "duration": 0.375,
        "velocity": 1,
        "hand": "left"
      },
      {
        "midi": 56,
        "time": 10.5,
        "duration": 0.375,
        "velocity": 1,
        "hand": "left"
      },
      {
        "midi": 72,
        "time": 10.5,
        "duration": 0.188,
        "velocity": 1,
        "hand": "right"
      },
      {
        "midi": 72,
        "time": 10.688,
        "duration": 0.188,
        "velocity": 1,
        "hand": "right"
      },
      {
        "midi": 40,
        "time": 10.875,
        "duration": 0.375,
        "velocity": 1,
        "hand": "left"
      },
      {
        "midi": 47,
        "time": 10.875,
        "duration": 0.375,
        "velocity": 1,
        "hand": "left"
      },
      {
        "midi": 52,
        "time": 10.875,
        "duration": 0.375,
        "velocity": 1,
        "hand": "left"
      },
      {
        "midi": 59,
        "time": 10.875,
        "duration": 0.375,
        "velocity": 1,
        "hand": "left"
      },
      {
        "midi": 72,
        "time": 10.875,
        "duration": 0.188,
        "velocity": 1,
        "hand": "right"
      },
      {
        "midi": 68,
        "time": 11.063,
        "duration": 0.188,
        "velocity": 1,
        "hand": "right"
      },
      {
        "midi": 39,
        "time": 11.25,
        "duration": 0.375,
        "velocity": 1,
        "hand": "left"
      },
      {
        "midi": 48,
        "time": 11.25,
        "duration": 0.375,
        "velocity": 1,
        "hand": "left"
      },
      {
        "midi": 51,
        "time": 11.25,
        "duration": 0.375,
        "velocity": 1,
        "hand": "left"
      },
      {
        "midi": 60,
        "time": 11.25,
        "duration": 0.375,
        "velocity": 1,
        "hand": "right"
      },
      {
        "midi": 67,
        "time": 11.25,
        "duration": 0.375,
        "velocity": 1,
        "hand": "right"
      },
      {
        "midi": 31,
        "time": 11.625,
        "duration": 0.375,
        "velocity": 1,
        "hand": "left"
      },
      {
        "midi": 43,
        "time": 11.625,
        "duration": 0.375,
        "velocity": 1,
        "hand": "left"
      },
      {
        "midi": 67,
        "time": 11.625,
        "duration": 0.188,
        "velocity": 1,
        "hand": "right"
      },
      {
        "midi": 67,
        "time": 11.813,
        "duration": 0.188,
        "velocity": 1,
        "hand": "right"
      },
      {
        "midi": 19,
        "time": 12,
        "duration": 23.25,
        "velocity": 0.47,
        "hand": "left"
      },
      {
        "midi": 67,
        "time": 12,
        "duration": 0.188,
        "velocity": 1,
        "hand": "right"
      },
      {
        "midi": 67,
        "time": 12.188,
        "duration": 0.188,
        "velocity": 1,
        "hand": "right"
      },
      {
        "midi": 67,
        "time": 12.375,
        "duration": 0.188,
        "velocity": 1,
        "hand": "right"
      },
      {
        "midi": 67,
        "time": 12.563,
        "duration": 0.188,
        "velocity": 1,
        "hand": "right"
      },
      {
        "midi": 72,
        "time": 12.75,
        "duration": 0.188,
        "velocity": 1,
        "hand": "right"
      },
      {
        "midi": 48,
        "time": 12.938,
        "duration": 0.375,
        "velocity": 1,
        "hand": "left"
      },
      {
        "midi": 60,
        "time": 12.938,
        "duration": 0.375,
        "velocity": 1,
        "hand": "right"
      },
      {
        "midi": 72,
        "time": 12.938,
        "duration": 0.188,
        "velocity": 1,
        "hand": "right"
      },
      {
        "midi": 51,
        "time": 13.125,
        "duration": 0.375,
        "velocity": 1,
        "hand": "left"
      },
      {
        "midi": 55,
        "time": 13.125,
        "duration": 0.375,
        "velocity": 1,
        "hand": "left"
      },
      {
        "midi": 72,
        "time": 13.125,
        "duration": 0.188,
        "velocity": 1,
        "hand": "right"
      },
      {
        "midi": 43,
        "time": 13.313,
        "duration": 0.188,
        "velocity": 1,
        "hand": "left"
      },
      {
        "midi": 55,
        "time": 13.313,
        "duration": 0.188,
        "velocity": 1,
        "hand": "left"
      },
      {
        "midi": 74,
        "time": 13.313,
        "duration": 0.188,
        "velocity": 1,
        "hand": "right"
      },
      {
        "midi": 39,
        "time": 13.5,
        "duration": 0.375,
        "velocity": 1,
        "hand": "left"
      },
      {
        "midi": 51,
        "time": 13.5,
        "duration": 0.375,
        "velocity": 1,
        "hand": "left"
      },
      {
        "midi": 53,
        "time": 13.5,
        "duration": 0.375,
        "velocity": 1,
        "hand": "left"
      },
      {
        "midi": 57,
        "time": 13.5,
        "duration": 0.375,
        "velocity": 1,
        "hand": "left"
      },
      {
        "midi": 75,
        "time": 13.5,
        "duration": 0.375,
        "velocity": 1,
        "hand": "right"
      },
      {
        "midi": 38,
        "time": 13.875,
        "duration": 0.375,
        "velocity": 1,
        "hand": "left"
      },
      {
        "midi": 50,
        "time": 13.875,
        "duration": 0.375,
        "velocity": 1,
        "hand": "left"
      },
      {
        "midi": 54,
        "time": 13.875,
        "duration": 0.375,
        "velocity": 1,
        "hand": "left"
      },
      {
        "midi": 59,
        "time": 13.875,
        "duration": 0.375,
        "velocity": 1,
        "hand": "left"
      },
      {
        "midi": 74,
        "time": 13.875,
        "duration": 0.375,
        "velocity": 1,
        "hand": "right"
      },
      {
        "midi": 36,
        "time": 14.25,
        "duration": 0.375,
        "velocity": 1,
        "hand": "left"
      },
      {
        "midi": 48,
        "time": 14.25,
        "duration": 0.375,
        "velocity": 1,
        "hand": "left"
      },
      {
        "midi": 55,
        "time": 14.25,
        "duration": 0.375,
        "velocity": 1,
        "hand": "left"
      },
      {
        "midi": 60,
        "time": 14.25,
        "duration": 0.375,
        "velocity": 1,
        "hand": "right"
      },
      {
        "midi": 72,
        "time": 14.25,
        "duration": 0.375,
        "velocity": 1,
        "hand": "right"
      },
      {
        "midi": 31,
        "time": 14.625,
        "duration": 0.375,
        "velocity": 1,
        "hand": "left"
      },
      {
        "midi": 43,
        "time": 14.625,
        "duration": 0.375,
        "velocity": 1,
        "hand": "left"
      },
      {
        "midi": 51,
        "time": 14.625,
        "duration": 0.375,
        "velocity": 1,
        "hand": "left"
      },
      {
        "midi": 72,
        "time": 14.625,
        "duration": 0.188,
        "velocity": 1,
        "hand": "right"
      },
      {
        "midi": 67,
        "time": 14.813,
        "duration": 0.188,
        "velocity": 1,
        "hand": "right"
      },
      {
        "midi": 67,
        "time": 15,
        "duration": 0.188,
        "velocity": 1,
        "hand": "right"
      },
      {
        "midi": 67,
        "time": 15.188,
        "duration": 0.188,
        "velocity": 1,
        "hand": "right"
      },
      {
        "midi": 67,
        "time": 15.375,
        "duration": 0.188,
        "velocity": 1,
        "hand": "right"
      },
      {
        "midi": 67,
        "time": 15.563,
        "duration": 0.188,
        "velocity": 1,
        "hand": "right"
      },
      {
        "midi": 72,
        "time": 15.75,
        "duration": 0.188,
        "velocity": 1,
        "hand": "right"
      },
      {
        "midi": 48,
        "time": 15.938,
        "duration": 0.375,
        "velocity": 1,
        "hand": "left"
      },
      {
        "midi": 60,
        "time": 15.938,
        "duration": 0.375,
        "velocity": 1,
        "hand": "right"
      },
      {
        "midi": 72,
        "time": 15.938,
        "duration": 0.188,
        "velocity": 1,
        "hand": "right"
      },
      {
        "midi": 51,
        "time": 16.125,
        "duration": 0.375,
        "velocity": 1,
        "hand": "left"
      },
      {
        "midi": 55,
        "time": 16.125,
        "duration": 0.375,
        "velocity": 1,
        "hand": "left"
      },
      {
        "midi": 72,
        "time": 16.125,
        "duration": 0.188,
        "velocity": 1,
        "hand": "right"
      },
      {
        "midi": 43,
        "time": 16.313,
        "duration": 0.188,
        "velocity": 1,
        "hand": "left"
      },
      {
        "midi": 55,
        "time": 16.313,
        "duration": 0.188,
        "velocity": 1,
        "hand": "left"
      },
      {
        "midi": 74,
        "time": 16.313,
        "duration": 0.188,
        "velocity": 1,
        "hand": "right"
      },
      {
        "midi": 39,
        "time": 16.5,
        "duration": 0.375,
        "velocity": 1,
        "hand": "left"
      },
      {
        "midi": 51,
        "time": 16.5,
        "duration": 0.375,
        "velocity": 1,
        "hand": "left"
      },
      {
        "midi": 53,
        "time": 16.5,
        "duration": 0.375,
        "velocity": 1,
        "hand": "left"
      },
      {
        "midi": 57,
        "time": 16.5,
        "duration": 0.375,
        "velocity": 1,
        "hand": "left"
      },
      {
        "midi": 75,
        "time": 16.5,
        "duration": 0.375,
        "velocity": 1,
        "hand": "right"
      },
      {
        "midi": 38,
        "time": 16.875,
        "duration": 0.375,
        "velocity": 1,
        "hand": "left"
      },
      {
        "midi": 50,
        "time": 16.875,
        "duration": 0.375,
        "velocity": 1,
        "hand": "left"
      },
      {
        "midi": 54,
        "time": 16.875,
        "duration": 0.375,
        "velocity": 1,
        "hand": "left"
      },
      {
        "midi": 59,
        "time": 16.875,
        "duration": 0.375,
        "velocity": 1,
        "hand": "left"
      },
      {
        "midi": 74,
        "time": 16.875,
        "duration": 0.375,
        "velocity": 1,
        "hand": "right"
      },
      {
        "midi": 36,
        "time": 17.25,
        "duration": 0.375,
        "velocity": 1,
        "hand": "left"
      },
      {
        "midi": 48,
        "time": 17.25,
        "duration": 0.375,
        "velocity": 1,
        "hand": "left"
      },
      {
        "midi": 55,
        "time": 17.25,
        "duration": 0.375,
        "velocity": 1,
        "hand": "left"
      },
      {
        "midi": 60,
        "time": 17.25,
        "duration": 0.375,
        "velocity": 1,
        "hand": "right"
      },
      {
        "midi": 72,
        "time": 17.25,
        "duration": 0.375,
        "velocity": 1,
        "hand": "right"
      },
      {
        "midi": 31,
        "time": 17.625,
        "duration": 0.375,
        "velocity": 1,
        "hand": "left"
      },
      {
        "midi": 43,
        "time": 17.625,
        "duration": 0.375,
        "velocity": 1,
        "hand": "left"
      },
      {
        "midi": 51,
        "time": 17.625,
        "duration": 0.375,
        "velocity": 1,
        "hand": "left"
      },
      {
        "midi": 72,
        "time": 17.625,
        "duration": 0.375,
        "velocity": 1,
        "hand": "right"
      },
      {
        "midi": 72,
        "time": 18,
        "duration": 0.188,
        "velocity": 1,
        "hand": "right"
      },
      {
        "midi": 72,
        "time": 18.188,
        "duration": 0.188,
        "velocity": 1,
        "hand": "right"
      },
      {
        "midi": 72,
        "time": 18.375,
        "duration": 0.188,
        "velocity": 1,
        "hand": "right"
      },
      {
        "midi": 70,
        "time": 18.563,
        "duration": 0.188,
        "velocity": 1,
        "hand": "right"
      },
      {
        "midi": 68,
        "time": 18.75,
        "duration": 0.188,
        "velocity": 1,
        "hand": "right"
      },
      {
        "midi": 44,
        "time": 18.938,
        "duration": 0.375,
        "velocity": 1,
        "hand": "left"
      },
      {
        "midi": 56,
        "time": 18.938,
        "duration": 0.375,
        "velocity": 1,
        "hand": "left"
      },
      {
        "midi": 68,
        "time": 18.938,
        "duration": 0.188,
        "velocity": 1,
        "hand": "right"
      },
      {
        "midi": 53,
        "time": 19.125,
        "duration": 0.375,
        "velocity": 1,
        "hand": "left"
      },
      {
        "midi": 60,
        "time": 19.125,
        "duration": 0.375,
        "velocity": 1,
        "hand": "right"
      },
      {
        "midi": 68,
        "time": 19.125,
        "duration": 0.188,
        "velocity": 1,
        "hand": "right"
      },
      {
        "midi": 43,
        "time": 19.313,
        "duration": 0.188,
        "velocity": 1,
        "hand": "left"
      },
      {
        "midi": 55,
        "time": 19.313,
        "duration": 0.188,
        "velocity": 1,
        "hand": "left"
      },
      {
        "midi": 70,
        "time": 19.313,
        "duration": 0.188,
        "velocity": 1,
        "hand": "right"
      },
      {
        "midi": 41,
        "time": 19.5,
        "duration": 0.375,
        "velocity": 1,
        "hand": "left"
      },
      {
        "midi": 50,
        "time": 19.5,
        "duration": 0.375,
        "velocity": 1,
        "hand": "left"
      },
      {
        "midi": 53,
        "time": 19.5,
        "duration": 0.375,
        "velocity": 1,
        "hand": "left"
      },
      {
        "midi": 56,
        "time": 19.5,
        "duration": 0.375,
        "velocity": 1,
        "hand": "left"
      },
      {
        "midi": 72,
        "time": 19.5,
        "duration": 0.188,
        "velocity": 1,
        "hand": "right"
      },
      {
        "midi": 72,
        "time": 19.688,
        "duration": 0.188,
        "velocity": 1,
        "hand": "right"
      },
      {
        "midi": 40,
        "time": 19.875,
        "duration": 0.375,
        "velocity": 1,
        "hand": "left"
      },
      {
        "midi": 47,
        "time": 19.875,
        "duration": 0.375,
        "velocity": 1,
        "hand": "left"
      },
      {
        "midi": 52,
        "time": 19.875,
        "duration": 0.375,
        "velocity": 1,
        "hand": "left"
      },
      {
        "midi": 59,
        "time": 19.875,
        "duration": 0.375,
        "velocity": 1,
        "hand": "left"
      },
      {
        "midi": 68,
        "time": 19.875,
        "duration": 0.375,
        "velocity": 1,
        "hand": "right"
      },
      {
        "midi": 39,
        "time": 20.25,
        "duration": 0.375,
        "velocity": 1,
        "hand": "left"
      },
      {
        "midi": 46,
        "time": 20.25,
        "duration": 0.375,
        "velocity": 1,
        "hand": "left"
      },
      {
        "midi": 51,
        "time": 20.25,
        "duration": 0.375,
        "velocity": 1,
        "hand": "left"
      },
      {
        "midi": 60,
        "time": 20.25,
        "duration": 0.375,
        "velocity": 1,
        "hand": "right"
      },
      {
        "midi": 67,
        "time": 20.25,
        "duration": 0.375,
        "velocity": 1,
        "hand": "right"
      },
      {
        "midi": 36,
        "time": 20.625,
        "duration": 0.375,
        "velocity": 1,
        "hand": "left"
      },
      {
        "midi": 48,
        "time": 20.625,
        "duration": 0.375,
        "velocity": 1,
        "hand": "left"
      },
      {
        "midi": 51,
        "time": 20.625,
        "duration": 0.375,
        "velocity": 1,
        "hand": "left"
      },
      {
        "midi": 67,
        "time": 20.625,
        "duration": 0.375,
        "velocity": 1,
        "hand": "right"
      },
      {
        "midi": 72,
        "time": 21,
        "duration": 0.188,
        "velocity": 1,
        "hand": "right"
      },
      {
        "midi": 72,
        "time": 21.188,
        "duration": 0.188,
        "velocity": 1,
        "hand": "right"
      },
      {
        "midi": 72,
        "time": 21.375,
        "duration": 0.188,
        "velocity": 1,
        "hand": "right"
      },
      {
        "midi": 70,
        "time": 21.563,
        "duration": 0.188,
        "velocity": 1,
        "hand": "right"
      },
      {
        "midi": 68,
        "time": 21.75,
        "duration": 0.188,
        "velocity": 1,
        "hand": "right"
      },
      {
        "midi": 44,
        "time": 21.938,
        "duration": 0.375,
        "velocity": 1,
        "hand": "left"
      },
      {
        "midi": 56,
        "time": 21.938,
        "duration": 0.375,
        "velocity": 1,
        "hand": "left"
      },
      {
        "midi": 68,
        "time": 21.938,
        "duration": 0.188,
        "velocity": 1,
        "hand": "right"
      },
      {
        "midi": 53,
        "time": 22.125,
        "duration": 0.375,
        "velocity": 1,
        "hand": "left"
      },
      {
        "midi": 60,
        "time": 22.125,
        "duration": 0.375,
        "velocity": 1,
        "hand": "right"
      },
      {
        "midi": 68,
        "time": 22.125,
        "duration": 0.188,
        "velocity": 1,
        "hand": "right"
      },
      {
        "midi": 43,
        "time": 22.313,
        "duration": 0.188,
        "velocity": 1,
        "hand": "left"
      },
      {
        "midi": 55,
        "time": 22.313,
        "duration": 0.188,
        "velocity": 1,
        "hand": "left"
      },
      {
        "midi": 70,
        "time": 22.313,
        "duration": 0.188,
        "velocity": 1,
        "hand": "right"
      },
      {
        "midi": 41,
        "time": 22.5,
        "duration": 0.375,
        "velocity": 1,
        "hand": "left"
      },
      {
        "midi": 50,
        "time": 22.5,
        "duration": 0.375,
        "velocity": 1,
        "hand": "left"
      },
      {
        "midi": 53,
        "time": 22.5,
        "duration": 0.375,
        "velocity": 1,
        "hand": "left"
      },
      {
        "midi": 56,
        "time": 22.5,
        "duration": 0.375,
        "velocity": 1,
        "hand": "left"
      },
      {
        "midi": 72,
        "time": 22.5,
        "duration": 0.188,
        "velocity": 1,
        "hand": "right"
      },
      {
        "midi": 72,
        "time": 22.688,
        "duration": 0.188,
        "velocity": 1,
        "hand": "right"
      },
      {
        "midi": 40,
        "time": 22.875,
        "duration": 0.375,
        "velocity": 1,
        "hand": "left"
      },
      {
        "midi": 47,
        "time": 22.875,
        "duration": 0.375,
        "velocity": 1,
        "hand": "left"
      },
      {
        "midi": 52,
        "time": 22.875,
        "duration": 0.375,
        "velocity": 1,
        "hand": "left"
      },
      {
        "midi": 59,
        "time": 22.875,
        "duration": 0.375,
        "velocity": 1,
        "hand": "left"
      },
      {
        "midi": 68,
        "time": 22.875,
        "duration": 0.375,
        "velocity": 1,
        "hand": "right"
      },
      {
        "midi": 39,
        "time": 23.25,
        "duration": 0.375,
        "velocity": 1,
        "hand": "left"
      },
      {
        "midi": 48,
        "time": 23.25,
        "duration": 0.375,
        "velocity": 1,
        "hand": "left"
      },
      {
        "midi": 51,
        "time": 23.25,
        "duration": 0.375,
        "velocity": 1,
        "hand": "left"
      },
      {
        "midi": 60,
        "time": 23.25,
        "duration": 0.375,
        "velocity": 1,
        "hand": "right"
      },
      {
        "midi": 67,
        "time": 23.25,
        "duration": 0.375,
        "velocity": 1,
        "hand": "right"
      },
      {
        "midi": 31,
        "time": 23.625,
        "duration": 0.375,
        "velocity": 1,
        "hand": "left"
      },
      {
        "midi": 43,
        "time": 23.625,
        "duration": 0.375,
        "velocity": 1,
        "hand": "left"
      },
      {
        "midi": 67,
        "time": 23.625,
        "duration": 0.375,
        "velocity": 1,
        "hand": "right"
      },
      {
        "midi": 67,
        "time": 24,
        "duration": 0.188,
        "velocity": 1,
        "hand": "right"
      },
      {
        "midi": 79,
        "time": 24,
        "duration": 11.25,
        "velocity": 0.35,
        "hand": "right"
      },
      {
        "midi": 67,
        "time": 24.188,
        "duration": 0.188,
        "velocity": 1,
        "hand": "right"
      },
      {
        "midi": 67,
        "time": 24.375,
        "duration": 0.188,
        "velocity": 1,
        "hand": "right"
      },
      {
        "midi": 67,
        "time": 24.563,
        "duration": 0.188,
        "velocity": 1,
        "hand": "right"
      },
      {
        "midi": 72,
        "time": 24.75,
        "duration": 0.188,
        "velocity": 1,
        "hand": "right"
      },
      {
        "midi": 48,
        "time": 24.938,
        "duration": 0.375,
        "velocity": 1,
        "hand": "left"
      },
      {
        "midi": 60,
        "time": 24.938,
        "duration": 0.375,
        "velocity": 1,
        "hand": "right"
      },
      {
        "midi": 72,
        "time": 24.938,
        "duration": 0.188,
        "velocity": 1,
        "hand": "right"
      },
      {
        "midi": 51,
        "time": 25.125,
        "duration": 0.375,
        "velocity": 1,
        "hand": "left"
      },
      {
        "midi": 55,
        "time": 25.125,
        "duration": 0.375,
        "velocity": 1,
        "hand": "left"
      },
      {
        "midi": 72,
        "time": 25.125,
        "duration": 0.188,
        "velocity": 1,
        "hand": "right"
      },
      {
        "midi": 43,
        "time": 25.313,
        "duration": 0.188,
        "velocity": 1,
        "hand": "left"
      },
      {
        "midi": 55,
        "time": 25.313,
        "duration": 0.188,
        "velocity": 1,
        "hand": "left"
      },
      {
        "midi": 74,
        "time": 25.313,
        "duration": 0.188,
        "velocity": 1,
        "hand": "right"
      },
      {
        "midi": 39,
        "time": 25.5,
        "duration": 0.375,
        "velocity": 1,
        "hand": "left"
      },
      {
        "midi": 51,
        "time": 25.5,
        "duration": 0.375,
        "velocity": 1,
        "hand": "left"
      },
      {
        "midi": 53,
        "time": 25.5,
        "duration": 0.375,
        "velocity": 1,
        "hand": "left"
      },
      {
        "midi": 57,
        "time": 25.5,
        "duration": 0.375,
        "velocity": 1,
        "hand": "left"
      },
      {
        "midi": 75,
        "time": 25.5,
        "duration": 0.375,
        "velocity": 1,
        "hand": "right"
      },
      {
        "midi": 38,
        "time": 25.875,
        "duration": 0.375,
        "velocity": 1,
        "hand": "left"
      },
      {
        "midi": 50,
        "time": 25.875,
        "duration": 0.375,
        "velocity": 1,
        "hand": "left"
      },
      {
        "midi": 54,
        "time": 25.875,
        "duration": 0.375,
        "velocity": 1,
        "hand": "left"
      },
      {
        "midi": 59,
        "time": 25.875,
        "duration": 0.375,
        "velocity": 1,
        "hand": "left"
      },
      {
        "midi": 74,
        "time": 25.875,
        "duration": 0.375,
        "velocity": 1,
        "hand": "right"
      },
      {
        "midi": 36,
        "time": 26.25,
        "duration": 0.375,
        "velocity": 1,
        "hand": "left"
      },
      {
        "midi": 48,
        "time": 26.25,
        "duration": 0.375,
        "velocity": 1,
        "hand": "left"
      },
      {
        "midi": 55,
        "time": 26.25,
        "duration": 0.375,
        "velocity": 1,
        "hand": "left"
      },
      {
        "midi": 60,
        "time": 26.25,
        "duration": 0.375,
        "velocity": 1,
        "hand": "right"
      },
      {
        "midi": 72,
        "time": 26.25,
        "duration": 0.563,
        "velocity": 1,
        "hand": "right"
      },
      {
        "midi": 31,
        "time": 26.625,
        "duration": 0.375,
        "velocity": 1,
        "hand": "left"
      },
      {
        "midi": 43,
        "time": 26.625,
        "duration": 0.375,
        "velocity": 1,
        "hand": "left"
      },
      {
        "midi": 51,
        "time": 26.625,
        "duration": 0.375,
        "velocity": 1,
        "hand": "left"
      },
      {
        "midi": 67,
        "time": 27,
        "duration": 0.188,
        "velocity": 1,
        "hand": "right"
      },
      {
        "midi": 67,
        "time": 27.188,
        "duration": 0.188,
        "velocity": 1,
        "hand": "right"
      },
      {
        "midi": 67,
        "time": 27.375,
        "duration": 0.188,
        "velocity": 1,
        "hand": "right"
      },
      {
        "midi": 67,
        "time": 27.563,
        "duration": 0.188,
        "velocity": 1,
        "hand": "right"
      },
      {
        "midi": 72,
        "time": 27.75,
        "duration": 0.188,
        "velocity": 1,
        "hand": "right"
      },
      {
        "midi": 48,
        "time": 27.938,
        "duration": 0.375,
        "velocity": 1,
        "hand": "left"
      },
      {
        "midi": 60,
        "time": 27.938,
        "duration": 0.375,
        "velocity": 1,
        "hand": "right"
      },
      {
        "midi": 72,
        "time": 27.938,
        "duration": 0.188,
        "velocity": 1,
        "hand": "right"
      },
      {
        "midi": 51,
        "time": 28.125,
        "duration": 0.375,
        "velocity": 1,
        "hand": "left"
      },
      {
        "midi": 55,
        "time": 28.125,
        "duration": 0.375,
        "velocity": 1,
        "hand": "left"
      },
      {
        "midi": 72,
        "time": 28.125,
        "duration": 0.188,
        "velocity": 1,
        "hand": "right"
      },
      {
        "midi": 43,
        "time": 28.313,
        "duration": 0.188,
        "velocity": 1,
        "hand": "left"
      },
      {
        "midi": 55,
        "time": 28.313,
        "duration": 0.188,
        "velocity": 1,
        "hand": "left"
      },
      {
        "midi": 74,
        "time": 28.313,
        "duration": 0.188,
        "velocity": 1,
        "hand": "right"
      },
      {
        "midi": 39,
        "time": 28.5,
        "duration": 0.375,
        "velocity": 1,
        "hand": "left"
      },
      {
        "midi": 51,
        "time": 28.5,
        "duration": 0.375,
        "velocity": 1,
        "hand": "left"
      },
      {
        "midi": 53,
        "time": 28.5,
        "duration": 0.375,
        "velocity": 1,
        "hand": "left"
      },
      {
        "midi": 57,
        "time": 28.5,
        "duration": 0.375,
        "velocity": 1,
        "hand": "left"
      },
      {
        "midi": 75,
        "time": 28.5,
        "duration": 0.375,
        "velocity": 1,
        "hand": "right"
      },
      {
        "midi": 38,
        "time": 28.875,
        "duration": 0.375,
        "velocity": 1,
        "hand": "left"
      },
      {
        "midi": 50,
        "time": 28.875,
        "duration": 0.375,
        "velocity": 1,
        "hand": "left"
      },
      {
        "midi": 54,
        "time": 28.875,
        "duration": 0.375,
        "velocity": 1,
        "hand": "left"
      },
      {
        "midi": 59,
        "time": 28.875,
        "duration": 0.375,
        "velocity": 1,
        "hand": "left"
      },
      {
        "midi": 74,
        "time": 28.875,
        "duration": 0.375,
        "velocity": 1,
        "hand": "right"
      },
      {
        "midi": 36,
        "time": 29.25,
        "duration": 0.375,
        "velocity": 1,
        "hand": "left"
      },
      {
        "midi": 48,
        "time": 29.25,
        "duration": 0.375,
        "velocity": 1,
        "hand": "left"
      },
      {
        "midi": 55,
        "time": 29.25,
        "duration": 0.375,
        "velocity": 1,
        "hand": "left"
      },
      {
        "midi": 60,
        "time": 29.25,
        "duration": 0.375,
        "velocity": 1,
        "hand": "right"
      },
      {
        "midi": 72,
        "time": 29.25,
        "duration": 0.563,
        "velocity": 1,
        "hand": "right"
      },
      {
        "midi": 31,
        "time": 29.625,
        "duration": 0.375,
        "velocity": 1,
        "hand": "left"
      },
      {
        "midi": 43,
        "time": 29.625,
        "duration": 0.375,
        "velocity": 1,
        "hand": "left"
      },
      {
        "midi": 51,
        "time": 29.625,
        "duration": 0.375,
        "velocity": 1,
        "hand": "left"
      },
      {
        "midi": 72,
        "time": 30,
        "duration": 0.188,
        "velocity": 1,
        "hand": "right"
      },
      {
        "midi": 72,
        "time": 30.188,
        "duration": 0.188,
        "velocity": 1,
        "hand": "right"
      },
      {
        "midi": 72,
        "time": 30.375,
        "duration": 0.188,
        "velocity": 1,
        "hand": "right"
      },
      {
        "midi": 70,
        "time": 30.563,
        "duration": 0.188,
        "velocity": 1,
        "hand": "right"
      },
      {
        "midi": 68,
        "time": 30.75,
        "duration": 0.188,
        "velocity": 1,
        "hand": "right"
      },
      {
        "midi": 44,
        "time": 30.938,
        "duration": 0.375,
        "velocity": 1,
        "hand": "left"
      },
      {
        "midi": 56,
        "time": 30.938,
        "duration": 0.375,
        "velocity": 1,
        "hand": "left"
      },
      {
        "midi": 68,
        "time": 30.938,
        "duration": 0.188,
        "velocity": 1,
        "hand": "right"
      },
      {
        "midi": 53,
        "time": 31.125,
        "duration": 0.375,
        "velocity": 1,
        "hand": "left"
      },
      {
        "midi": 60,
        "time": 31.125,
        "duration": 0.375,
        "velocity": 1,
        "hand": "right"
      },
      {
        "midi": 68,
        "time": 31.125,
        "duration": 0.188,
        "velocity": 1,
        "hand": "right"
      },
      {
        "midi": 43,
        "time": 31.313,
        "duration": 0.188,
        "velocity": 1,
        "hand": "left"
      },
      {
        "midi": 55,
        "time": 31.313,
        "duration": 0.188,
        "velocity": 1,
        "hand": "left"
      },
      {
        "midi": 70,
        "time": 31.313,
        "duration": 0.188,
        "velocity": 1,
        "hand": "right"
      },
      {
        "midi": 41,
        "time": 31.5,
        "duration": 0.375,
        "velocity": 1,
        "hand": "left"
      },
      {
        "midi": 50,
        "time": 31.5,
        "duration": 0.375,
        "velocity": 1,
        "hand": "left"
      },
      {
        "midi": 53,
        "time": 31.5,
        "duration": 0.375,
        "velocity": 1,
        "hand": "left"
      },
      {
        "midi": 56,
        "time": 31.5,
        "duration": 0.375,
        "velocity": 1,
        "hand": "left"
      },
      {
        "midi": 72,
        "time": 31.5,
        "duration": 0.375,
        "velocity": 1,
        "hand": "right"
      },
      {
        "midi": 40,
        "time": 31.875,
        "duration": 0.375,
        "velocity": 1,
        "hand": "left"
      },
      {
        "midi": 47,
        "time": 31.875,
        "duration": 0.375,
        "velocity": 1,
        "hand": "left"
      },
      {
        "midi": 52,
        "time": 31.875,
        "duration": 0.375,
        "velocity": 1,
        "hand": "left"
      },
      {
        "midi": 59,
        "time": 31.875,
        "duration": 0.375,
        "velocity": 1,
        "hand": "left"
      },
      {
        "midi": 68,
        "time": 31.875,
        "duration": 0.375,
        "velocity": 1,
        "hand": "right"
      },
      {
        "midi": 39,
        "time": 32.25,
        "duration": 0.375,
        "velocity": 1,
        "hand": "left"
      },
      {
        "midi": 46,
        "time": 32.25,
        "duration": 0.375,
        "velocity": 1,
        "hand": "left"
      },
      {
        "midi": 51,
        "time": 32.25,
        "duration": 0.375,
        "velocity": 1,
        "hand": "left"
      },
      {
        "midi": 60,
        "time": 32.25,
        "duration": 0.375,
        "velocity": 1,
        "hand": "right"
      },
      {
        "midi": 67,
        "time": 32.25,
        "duration": 0.563,
        "velocity": 1,
        "hand": "right"
      },
      {
        "midi": 36,
        "time": 32.625,
        "duration": 0.375,
        "velocity": 1,
        "hand": "left"
      },
      {
        "midi": 48,
        "time": 32.625,
        "duration": 0.375,
        "velocity": 1,
        "hand": "left"
      },
      {
        "midi": 51,
        "time": 32.625,
        "duration": 0.375,
        "velocity": 1,
        "hand": "left"
      },
      {
        "midi": 72,
        "time": 33,
        "duration": 0.188,
        "velocity": 1,
        "hand": "right"
      },
      {
        "midi": 72,
        "time": 33.188,
        "duration": 0.188,
        "velocity": 1,
        "hand": "right"
      },
      {
        "midi": 72,
        "time": 33.375,
        "duration": 0.188,
        "velocity": 1,
        "hand": "right"
      },
      {
        "midi": 70,
        "time": 33.563,
        "duration": 0.188,
        "velocity": 1,
        "hand": "right"
      },
      {
        "midi": 68,
        "time": 33.75,
        "duration": 0.188,
        "velocity": 1,
        "hand": "right"
      },
      {
        "midi": 44,
        "time": 33.938,
        "duration": 0.375,
        "velocity": 1,
        "hand": "left"
      },
      {
        "midi": 56,
        "time": 33.938,
        "duration": 0.375,
        "velocity": 1,
        "hand": "left"
      },
      {
        "midi": 68,
        "time": 33.938,
        "duration": 0.188,
        "velocity": 1,
        "hand": "right"
      },
      {
        "midi": 53,
        "time": 34.125,
        "duration": 0.375,
        "velocity": 1,
        "hand": "left"
      },
      {
        "midi": 60,
        "time": 34.125,
        "duration": 0.375,
        "velocity": 1,
        "hand": "right"
      },
      {
        "midi": 68,
        "time": 34.125,
        "duration": 0.188,
        "velocity": 1,
        "hand": "right"
      },
      {
        "midi": 43,
        "time": 34.313,
        "duration": 0.188,
        "velocity": 1,
        "hand": "left"
      },
      {
        "midi": 55,
        "time": 34.313,
        "duration": 0.188,
        "velocity": 1,
        "hand": "left"
      },
      {
        "midi": 70,
        "time": 34.313,
        "duration": 0.188,
        "velocity": 1,
        "hand": "right"
      },
      {
        "midi": 41,
        "time": 34.5,
        "duration": 0.375,
        "velocity": 1,
        "hand": "left"
      },
      {
        "midi": 50,
        "time": 34.5,
        "duration": 0.375,
        "velocity": 1,
        "hand": "left"
      },
      {
        "midi": 53,
        "time": 34.5,
        "duration": 0.375,
        "velocity": 1,
        "hand": "left"
      },
      {
        "midi": 56,
        "time": 34.5,
        "duration": 0.375,
        "velocity": 1,
        "hand": "left"
      },
      {
        "midi": 72,
        "time": 34.5,
        "duration": 0.375,
        "velocity": 1,
        "hand": "right"
      },
      {
        "midi": 40,
        "time": 34.875,
        "duration": 0.375,
        "velocity": 1,
        "hand": "left"
      },
      {
        "midi": 47,
        "time": 34.875,
        "duration": 0.375,
        "velocity": 1,
        "hand": "left"
      },
      {
        "midi": 52,
        "time": 34.875,
        "duration": 0.375,
        "velocity": 1,
        "hand": "left"
      },
      {
        "midi": 59,
        "time": 34.875,
        "duration": 0.375,
        "velocity": 1,
        "hand": "left"
      },
      {
        "midi": 68,
        "time": 34.875,
        "duration": 0.375,
        "velocity": 1,
        "hand": "right"
      },
      {
        "midi": 39,
        "time": 35.25,
        "duration": 0.375,
        "velocity": 1,
        "hand": "left"
      },
      {
        "midi": 48,
        "time": 35.25,
        "duration": 0.375,
        "velocity": 1,
        "hand": "left"
      },
      {
        "midi": 51,
        "time": 35.25,
        "duration": 0.375,
        "velocity": 1,
        "hand": "left"
      },
      {
        "midi": 60,
        "time": 35.25,
        "duration": 0.375,
        "velocity": 1,
        "hand": "right"
      },
      {
        "midi": 67,
        "time": 35.25,
        "duration": 0.375,
        "velocity": 1,
        "hand": "right"
      },
      {
        "midi": 24,
        "time": 35.625,
        "duration": 0.375,
        "velocity": 1,
        "hand": "left"
      },
      {
        "midi": 36,
        "time": 35.625,
        "duration": 0.375,
        "velocity": 1,
        "hand": "left"
      }
    ]
  },
  "notes1Hand": [
    {
      "midi": 67,
      "time": 0,
      "duration": 0.375,
      "velocity": 1,
      "hand": "right"
    },
    {
      "midi": 67,
      "time": 0.375,
      "duration": 0.375,
      "velocity": 1,
      "hand": "right"
    },
    {
      "midi": 72,
      "time": 0.75,
      "duration": 0.375,
      "velocity": 1,
      "hand": "right"
    },
    {
      "midi": 60,
      "time": 0.938,
      "duration": 0.375,
      "velocity": 1,
      "hand": "right"
    },
    {
      "midi": 72,
      "time": 1.125,
      "duration": 0.25,
      "velocity": 1,
      "hand": "right"
    },
    {
      "midi": 74,
      "time": 1.313,
      "duration": 0.25,
      "velocity": 1,
      "hand": "right"
    },
    {
      "midi": 75,
      "time": 1.5,
      "duration": 0.375,
      "velocity": 1,
      "hand": "right"
    },
    {
      "midi": 74,
      "time": 1.875,
      "duration": 0.375,
      "velocity": 1,
      "hand": "right"
    },
    {
      "midi": 72,
      "time": 2.25,
      "duration": 0.375,
      "velocity": 1,
      "hand": "right"
    },
    {
      "midi": 72,
      "time": 2.625,
      "duration": 0.375,
      "velocity": 1,
      "hand": "right"
    },
    {
      "midi": 67,
      "time": 3,
      "duration": 0.375,
      "velocity": 1,
      "hand": "right"
    },
    {
      "midi": 67,
      "time": 3.375,
      "duration": 0.375,
      "velocity": 1,
      "hand": "right"
    },
    {
      "midi": 72,
      "time": 3.75,
      "duration": 0.375,
      "velocity": 1,
      "hand": "right"
    },
    {
      "midi": 60,
      "time": 3.938,
      "duration": 0.375,
      "velocity": 1,
      "hand": "right"
    },
    {
      "midi": 72,
      "time": 4.125,
      "duration": 0.25,
      "velocity": 1,
      "hand": "right"
    },
    {
      "midi": 74,
      "time": 4.313,
      "duration": 0.25,
      "velocity": 1,
      "hand": "right"
    },
    {
      "midi": 75,
      "time": 4.5,
      "duration": 0.375,
      "velocity": 1,
      "hand": "right"
    },
    {
      "midi": 74,
      "time": 4.875,
      "duration": 0.375,
      "velocity": 1,
      "hand": "right"
    },
    {
      "midi": 72,
      "time": 5.25,
      "duration": 0.375,
      "velocity": 1,
      "hand": "right"
    },
    {
      "midi": 72,
      "time": 5.625,
      "duration": 0.375,
      "velocity": 1,
      "hand": "right"
    },
    {
      "midi": 72,
      "time": 6,
      "duration": 0.375,
      "velocity": 1,
      "hand": "right"
    },
    {
      "midi": 72,
      "time": 6.375,
      "duration": 0.25,
      "velocity": 1,
      "hand": "right"
    },
    {
      "midi": 70,
      "time": 6.563,
      "duration": 0.25,
      "velocity": 1,
      "hand": "right"
    },
    {
      "midi": 68,
      "time": 6.75,
      "duration": 0.375,
      "velocity": 1,
      "hand": "right"
    },
    {
      "midi": 56,
      "time": 6.938,
      "duration": 0.375,
      "velocity": 1,
      "hand": "right"
    },
    {
      "midi": 60,
      "time": 7.125,
      "duration": 0.375,
      "velocity": 1,
      "hand": "right"
    },
    {
      "midi": 70,
      "time": 7.313,
      "duration": 0.25,
      "velocity": 1,
      "hand": "right"
    },
    {
      "midi": 72,
      "time": 7.5,
      "duration": 0.25,
      "velocity": 1,
      "hand": "right"
    },
    {
      "midi": 72,
      "time": 7.688,
      "duration": 0.25,
      "velocity": 1,
      "hand": "right"
    },
    {
      "midi": 68,
      "time": 8.063,
      "duration": 0.25,
      "velocity": 1,
      "hand": "right"
    },
    {
      "midi": 67,
      "time": 8.25,
      "duration": 0.375,
      "velocity": 1,
      "hand": "right"
    },
    {
      "midi": 67,
      "time": 8.625,
      "duration": 0.375,
      "velocity": 1,
      "hand": "right"
    },
    {
      "midi": 72,
      "time": 9,
      "duration": 0.375,
      "velocity": 1,
      "hand": "right"
    },
    {
      "midi": 72,
      "time": 9.375,
      "duration": 0.25,
      "velocity": 1,
      "hand": "right"
    },
    {
      "midi": 70,
      "time": 9.563,
      "duration": 0.25,
      "velocity": 1,
      "hand": "right"
    },
    {
      "midi": 68,
      "time": 9.75,
      "duration": 0.375,
      "velocity": 1,
      "hand": "right"
    },
    {
      "midi": 56,
      "time": 9.938,
      "duration": 0.375,
      "velocity": 1,
      "hand": "right"
    },
    {
      "midi": 60,
      "time": 10.125,
      "duration": 0.375,
      "velocity": 1,
      "hand": "right"
    },
    {
      "midi": 70,
      "time": 10.313,
      "duration": 0.25,
      "velocity": 1,
      "hand": "right"
    },
    {
      "midi": 72,
      "time": 10.5,
      "duration": 0.25,
      "velocity": 1,
      "hand": "right"
    },
    {
      "midi": 72,
      "time": 10.688,
      "duration": 0.25,
      "velocity": 1,
      "hand": "right"
    },
    {
      "midi": 68,
      "time": 11.063,
      "duration": 0.25,
      "velocity": 1,
      "hand": "right"
    },
    {
      "midi": 67,
      "time": 11.25,
      "duration": 0.375,
      "velocity": 1,
      "hand": "right"
    },
    {
      "midi": 67,
      "time": 11.625,
      "duration": 0.25,
      "velocity": 1,
      "hand": "right"
    },
    {
      "midi": 67,
      "time": 11.813,
      "duration": 0.25,
      "velocity": 1,
      "hand": "right"
    },
    {
      "midi": 67,
      "time": 12.188,
      "duration": 0.25,
      "velocity": 1,
      "hand": "right"
    },
    {
      "midi": 67,
      "time": 12.563,
      "duration": 0.25,
      "velocity": 1,
      "hand": "right"
    },
    {
      "midi": 72,
      "time": 12.75,
      "duration": 0.25,
      "velocity": 1,
      "hand": "right"
    },
    {
      "midi": 72,
      "time": 12.938,
      "duration": 0.25,
      "velocity": 1,
      "hand": "right"
    },
    {
      "midi": 74,
      "time": 13.313,
      "duration": 0.25,
      "velocity": 1,
      "hand": "right"
    },
    {
      "midi": 75,
      "time": 13.5,
      "duration": 0.375,
      "velocity": 1,
      "hand": "right"
    },
    {
      "midi": 74,
      "time": 13.875,
      "duration": 0.375,
      "velocity": 1,
      "hand": "right"
    },
    {
      "midi": 72,
      "time": 14.25,
      "duration": 0.375,
      "velocity": 1,
      "hand": "right"
    },
    {
      "midi": 72,
      "time": 14.625,
      "duration": 0.25,
      "velocity": 1,
      "hand": "right"
    },
    {
      "midi": 67,
      "time": 14.813,
      "duration": 0.25,
      "velocity": 1,
      "hand": "right"
    },
    {
      "midi": 67,
      "time": 15.188,
      "duration": 0.25,
      "velocity": 1,
      "hand": "right"
    },
    {
      "midi": 67,
      "time": 15.563,
      "duration": 0.25,
      "velocity": 1,
      "hand": "right"
    },
    {
      "midi": 72,
      "time": 15.75,
      "duration": 0.25,
      "velocity": 1,
      "hand": "right"
    },
    {
      "midi": 72,
      "time": 15.938,
      "duration": 0.25,
      "velocity": 1,
      "hand": "right"
    },
    {
      "midi": 74,
      "time": 16.313,
      "duration": 0.25,
      "velocity": 1,
      "hand": "right"
    },
    {
      "midi": 75,
      "time": 16.5,
      "duration": 0.375,
      "velocity": 1,
      "hand": "right"
    },
    {
      "midi": 74,
      "time": 16.875,
      "duration": 0.375,
      "velocity": 1,
      "hand": "right"
    },
    {
      "midi": 72,
      "time": 17.25,
      "duration": 0.375,
      "velocity": 1,
      "hand": "right"
    },
    {
      "midi": 72,
      "time": 17.625,
      "duration": 0.375,
      "velocity": 1,
      "hand": "right"
    },
    {
      "midi": 72,
      "time": 18,
      "duration": 0.25,
      "velocity": 1,
      "hand": "right"
    },
    {
      "midi": 72,
      "time": 18.188,
      "duration": 0.25,
      "velocity": 1,
      "hand": "right"
    },
    {
      "midi": 70,
      "time": 18.563,
      "duration": 0.25,
      "velocity": 1,
      "hand": "right"
    },
    {
      "midi": 68,
      "time": 18.75,
      "duration": 0.25,
      "velocity": 1,
      "hand": "right"
    },
    {
      "midi": 68,
      "time": 18.938,
      "duration": 0.25,
      "velocity": 1,
      "hand": "right"
    },
    {
      "midi": 70,
      "time": 19.313,
      "duration": 0.25,
      "velocity": 1,
      "hand": "right"
    },
    {
      "midi": 72,
      "time": 19.5,
      "duration": 0.25,
      "velocity": 1,
      "hand": "right"
    },
    {
      "midi": 72,
      "time": 19.688,
      "duration": 0.25,
      "velocity": 1,
      "hand": "right"
    },
    {
      "midi": 68,
      "time": 19.875,
      "duration": 0.375,
      "velocity": 1,
      "hand": "right"
    },
    {
      "midi": 67,
      "time": 20.25,
      "duration": 0.375,
      "velocity": 1,
      "hand": "right"
    },
    {
      "midi": 67,
      "time": 20.625,
      "duration": 0.375,
      "velocity": 1,
      "hand": "right"
    },
    {
      "midi": 72,
      "time": 21,
      "duration": 0.25,
      "velocity": 1,
      "hand": "right"
    },
    {
      "midi": 72,
      "time": 21.188,
      "duration": 0.25,
      "velocity": 1,
      "hand": "right"
    },
    {
      "midi": 70,
      "time": 21.563,
      "duration": 0.25,
      "velocity": 1,
      "hand": "right"
    },
    {
      "midi": 68,
      "time": 21.75,
      "duration": 0.25,
      "velocity": 1,
      "hand": "right"
    },
    {
      "midi": 68,
      "time": 21.938,
      "duration": 0.25,
      "velocity": 1,
      "hand": "right"
    },
    {
      "midi": 70,
      "time": 22.313,
      "duration": 0.25,
      "velocity": 1,
      "hand": "right"
    },
    {
      "midi": 72,
      "time": 22.5,
      "duration": 0.25,
      "velocity": 1,
      "hand": "right"
    },
    {
      "midi": 72,
      "time": 22.688,
      "duration": 0.25,
      "velocity": 1,
      "hand": "right"
    },
    {
      "midi": 68,
      "time": 22.875,
      "duration": 0.375,
      "velocity": 1,
      "hand": "right"
    },
    {
      "midi": 67,
      "time": 23.25,
      "duration": 0.375,
      "velocity": 1,
      "hand": "right"
    },
    {
      "midi": 67,
      "time": 23.625,
      "duration": 0.375,
      "velocity": 1,
      "hand": "right"
    },
    {
      "midi": 79,
      "time": 24,
      "duration": 11.25,
      "velocity": 0.35,
      "hand": "right"
    },
    {
      "midi": 67,
      "time": 24.188,
      "duration": 0.25,
      "velocity": 1,
      "hand": "right"
    },
    {
      "midi": 67,
      "time": 24.563,
      "duration": 0.25,
      "velocity": 1,
      "hand": "right"
    },
    {
      "midi": 72,
      "time": 24.75,
      "duration": 0.25,
      "velocity": 1,
      "hand": "right"
    },
    {
      "midi": 72,
      "time": 24.938,
      "duration": 0.25,
      "velocity": 1,
      "hand": "right"
    },
    {
      "midi": 74,
      "time": 25.313,
      "duration": 0.25,
      "velocity": 1,
      "hand": "right"
    },
    {
      "midi": 75,
      "time": 25.5,
      "duration": 0.375,
      "velocity": 1,
      "hand": "right"
    },
    {
      "midi": 74,
      "time": 25.875,
      "duration": 0.375,
      "velocity": 1,
      "hand": "right"
    },
    {
      "midi": 72,
      "time": 26.25,
      "duration": 0.563,
      "velocity": 1,
      "hand": "right"
    },
    {
      "midi": 51,
      "time": 26.625,
      "duration": 0.375,
      "velocity": 1,
      "hand": "right"
    },
    {
      "midi": 67,
      "time": 27,
      "duration": 0.25,
      "velocity": 1,
      "hand": "right"
    },
    {
      "midi": 67,
      "time": 27.188,
      "duration": 0.25,
      "velocity": 1,
      "hand": "right"
    },
    {
      "midi": 67,
      "time": 27.563,
      "duration": 0.25,
      "velocity": 1,
      "hand": "right"
    },
    {
      "midi": 72,
      "time": 27.75,
      "duration": 0.25,
      "velocity": 1,
      "hand": "right"
    },
    {
      "midi": 72,
      "time": 27.938,
      "duration": 0.25,
      "velocity": 1,
      "hand": "right"
    },
    {
      "midi": 74,
      "time": 28.313,
      "duration": 0.25,
      "velocity": 1,
      "hand": "right"
    },
    {
      "midi": 75,
      "time": 28.5,
      "duration": 0.375,
      "velocity": 1,
      "hand": "right"
    },
    {
      "midi": 74,
      "time": 28.875,
      "duration": 0.375,
      "velocity": 1,
      "hand": "right"
    },
    {
      "midi": 72,
      "time": 29.25,
      "duration": 0.563,
      "velocity": 1,
      "hand": "right"
    },
    {
      "midi": 51,
      "time": 29.625,
      "duration": 0.375,
      "velocity": 1,
      "hand": "right"
    },
    {
      "midi": 72,
      "time": 30,
      "duration": 0.25,
      "velocity": 1,
      "hand": "right"
    },
    {
      "midi": 72,
      "time": 30.188,
      "duration": 0.25,
      "velocity": 1,
      "hand": "right"
    },
    {
      "midi": 70,
      "time": 30.563,
      "duration": 0.25,
      "velocity": 1,
      "hand": "right"
    },
    {
      "midi": 68,
      "time": 30.75,
      "duration": 0.25,
      "velocity": 1,
      "hand": "right"
    },
    {
      "midi": 68,
      "time": 30.938,
      "duration": 0.25,
      "velocity": 1,
      "hand": "right"
    },
    {
      "midi": 70,
      "time": 31.313,
      "duration": 0.25,
      "velocity": 1,
      "hand": "right"
    },
    {
      "midi": 72,
      "time": 31.5,
      "duration": 0.375,
      "velocity": 1,
      "hand": "right"
    },
    {
      "midi": 68,
      "time": 31.875,
      "duration": 0.375,
      "velocity": 1,
      "hand": "right"
    },
    {
      "midi": 67,
      "time": 32.25,
      "duration": 0.563,
      "velocity": 1,
      "hand": "right"
    },
    {
      "midi": 51,
      "time": 32.625,
      "duration": 0.375,
      "velocity": 1,
      "hand": "right"
    },
    {
      "midi": 72,
      "time": 33,
      "duration": 0.25,
      "velocity": 1,
      "hand": "right"
    },
    {
      "midi": 72,
      "time": 33.188,
      "duration": 0.25,
      "velocity": 1,
      "hand": "right"
    },
    {
      "midi": 70,
      "time": 33.563,
      "duration": 0.25,
      "velocity": 1,
      "hand": "right"
    },
    {
      "midi": 68,
      "time": 33.75,
      "duration": 0.25,
      "velocity": 1,
      "hand": "right"
    },
    {
      "midi": 68,
      "time": 33.938,
      "duration": 0.25,
      "velocity": 1,
      "hand": "right"
    },
    {
      "midi": 70,
      "time": 34.313,
      "duration": 0.25,
      "velocity": 1,
      "hand": "right"
    },
    {
      "midi": 72,
      "time": 34.5,
      "duration": 0.375,
      "velocity": 1,
      "hand": "right"
    },
    {
      "midi": 68,
      "time": 34.875,
      "duration": 0.375,
      "velocity": 1,
      "hand": "right"
    },
    {
      "midi": 67,
      "time": 35.25,
      "duration": 0.375,
      "velocity": 1,
      "hand": "right"
    },
    {
      "midi": 36,
      "time": 35.625,
      "duration": 0.375,
      "velocity": 1,
      "hand": "right"
    }
  ],
  "notes2Hands": [
    {
      "midi": 67,
      "time": 0,
      "duration": 0.375,
      "velocity": 1,
      "hand": "right"
    },
    {
      "midi": 67,
      "time": 0.375,
      "duration": 0.375,
      "velocity": 1,
      "hand": "right"
    },
    {
      "midi": 72,
      "time": 0.75,
      "duration": 0.375,
      "velocity": 1,
      "hand": "right"
    },
    {
      "midi": 48,
      "time": 0.938,
      "duration": 0.375,
      "velocity": 1,
      "hand": "left"
    },
    {
      "midi": 60,
      "time": 0.938,
      "duration": 0.375,
      "velocity": 1,
      "hand": "right"
    },
    {
      "midi": 51,
      "time": 1.125,
      "duration": 0.375,
      "velocity": 1,
      "hand": "left"
    },
    {
      "midi": 55,
      "time": 1.125,
      "duration": 0.375,
      "velocity": 1,
      "hand": "left"
    },
    {
      "midi": 72,
      "time": 1.125,
      "duration": 0.188,
      "velocity": 1,
      "hand": "right"
    },
    {
      "midi": 43,
      "time": 1.313,
      "duration": 0.188,
      "velocity": 1,
      "hand": "left"
    },
    {
      "midi": 55,
      "time": 1.313,
      "duration": 0.188,
      "velocity": 1,
      "hand": "left"
    },
    {
      "midi": 74,
      "time": 1.313,
      "duration": 0.188,
      "velocity": 1,
      "hand": "right"
    },
    {
      "midi": 39,
      "time": 1.5,
      "duration": 0.375,
      "velocity": 1,
      "hand": "left"
    },
    {
      "midi": 51,
      "time": 1.5,
      "duration": 0.375,
      "velocity": 1,
      "hand": "left"
    },
    {
      "midi": 53,
      "time": 1.5,
      "duration": 0.375,
      "velocity": 1,
      "hand": "left"
    },
    {
      "midi": 57,
      "time": 1.5,
      "duration": 0.375,
      "velocity": 1,
      "hand": "left"
    },
    {
      "midi": 75,
      "time": 1.5,
      "duration": 0.375,
      "velocity": 1,
      "hand": "right"
    },
    {
      "midi": 38,
      "time": 1.875,
      "duration": 0.375,
      "velocity": 1,
      "hand": "left"
    },
    {
      "midi": 50,
      "time": 1.875,
      "duration": 0.375,
      "velocity": 1,
      "hand": "left"
    },
    {
      "midi": 54,
      "time": 1.875,
      "duration": 0.375,
      "velocity": 1,
      "hand": "left"
    },
    {
      "midi": 59,
      "time": 1.875,
      "duration": 0.375,
      "velocity": 1,
      "hand": "left"
    },
    {
      "midi": 74,
      "time": 1.875,
      "duration": 0.375,
      "velocity": 1,
      "hand": "right"
    },
    {
      "midi": 36,
      "time": 2.25,
      "duration": 0.375,
      "velocity": 1,
      "hand": "left"
    },
    {
      "midi": 48,
      "time": 2.25,
      "duration": 0.375,
      "velocity": 1,
      "hand": "left"
    },
    {
      "midi": 55,
      "time": 2.25,
      "duration": 0.375,
      "velocity": 1,
      "hand": "left"
    },
    {
      "midi": 60,
      "time": 2.25,
      "duration": 0.375,
      "velocity": 1,
      "hand": "right"
    },
    {
      "midi": 72,
      "time": 2.25,
      "duration": 0.375,
      "velocity": 1,
      "hand": "right"
    },
    {
      "midi": 31,
      "time": 2.625,
      "duration": 0.375,
      "velocity": 1,
      "hand": "left"
    },
    {
      "midi": 43,
      "time": 2.625,
      "duration": 0.375,
      "velocity": 1,
      "hand": "left"
    },
    {
      "midi": 51,
      "time": 2.625,
      "duration": 0.375,
      "velocity": 1,
      "hand": "left"
    },
    {
      "midi": 72,
      "time": 2.625,
      "duration": 0.375,
      "velocity": 1,
      "hand": "right"
    },
    {
      "midi": 67,
      "time": 3,
      "duration": 0.375,
      "velocity": 1,
      "hand": "right"
    },
    {
      "midi": 67,
      "time": 3.375,
      "duration": 0.375,
      "velocity": 1,
      "hand": "right"
    },
    {
      "midi": 72,
      "time": 3.75,
      "duration": 0.375,
      "velocity": 1,
      "hand": "right"
    },
    {
      "midi": 48,
      "time": 3.938,
      "duration": 0.375,
      "velocity": 1,
      "hand": "left"
    },
    {
      "midi": 60,
      "time": 3.938,
      "duration": 0.375,
      "velocity": 1,
      "hand": "right"
    },
    {
      "midi": 51,
      "time": 4.125,
      "duration": 0.375,
      "velocity": 1,
      "hand": "left"
    },
    {
      "midi": 55,
      "time": 4.125,
      "duration": 0.375,
      "velocity": 1,
      "hand": "left"
    },
    {
      "midi": 72,
      "time": 4.125,
      "duration": 0.188,
      "velocity": 1,
      "hand": "right"
    },
    {
      "midi": 43,
      "time": 4.313,
      "duration": 0.188,
      "velocity": 1,
      "hand": "left"
    },
    {
      "midi": 55,
      "time": 4.313,
      "duration": 0.188,
      "velocity": 1,
      "hand": "left"
    },
    {
      "midi": 74,
      "time": 4.313,
      "duration": 0.188,
      "velocity": 1,
      "hand": "right"
    },
    {
      "midi": 39,
      "time": 4.5,
      "duration": 0.375,
      "velocity": 1,
      "hand": "left"
    },
    {
      "midi": 51,
      "time": 4.5,
      "duration": 0.375,
      "velocity": 1,
      "hand": "left"
    },
    {
      "midi": 53,
      "time": 4.5,
      "duration": 0.375,
      "velocity": 1,
      "hand": "left"
    },
    {
      "midi": 57,
      "time": 4.5,
      "duration": 0.375,
      "velocity": 1,
      "hand": "left"
    },
    {
      "midi": 75,
      "time": 4.5,
      "duration": 0.375,
      "velocity": 1,
      "hand": "right"
    },
    {
      "midi": 38,
      "time": 4.875,
      "duration": 0.375,
      "velocity": 1,
      "hand": "left"
    },
    {
      "midi": 50,
      "time": 4.875,
      "duration": 0.375,
      "velocity": 1,
      "hand": "left"
    },
    {
      "midi": 54,
      "time": 4.875,
      "duration": 0.375,
      "velocity": 1,
      "hand": "left"
    },
    {
      "midi": 59,
      "time": 4.875,
      "duration": 0.375,
      "velocity": 1,
      "hand": "left"
    },
    {
      "midi": 74,
      "time": 4.875,
      "duration": 0.375,
      "velocity": 1,
      "hand": "right"
    },
    {
      "midi": 36,
      "time": 5.25,
      "duration": 0.375,
      "velocity": 1,
      "hand": "left"
    },
    {
      "midi": 48,
      "time": 5.25,
      "duration": 0.375,
      "velocity": 1,
      "hand": "left"
    },
    {
      "midi": 55,
      "time": 5.25,
      "duration": 0.375,
      "velocity": 1,
      "hand": "left"
    },
    {
      "midi": 60,
      "time": 5.25,
      "duration": 0.375,
      "velocity": 1,
      "hand": "right"
    },
    {
      "midi": 72,
      "time": 5.25,
      "duration": 0.375,
      "velocity": 1,
      "hand": "right"
    },
    {
      "midi": 31,
      "time": 5.625,
      "duration": 0.375,
      "velocity": 1,
      "hand": "left"
    },
    {
      "midi": 43,
      "time": 5.625,
      "duration": 0.375,
      "velocity": 1,
      "hand": "left"
    },
    {
      "midi": 51,
      "time": 5.625,
      "duration": 0.375,
      "velocity": 1,
      "hand": "left"
    },
    {
      "midi": 72,
      "time": 5.625,
      "duration": 0.375,
      "velocity": 1,
      "hand": "right"
    },
    {
      "midi": 72,
      "time": 6,
      "duration": 0.375,
      "velocity": 1,
      "hand": "right"
    },
    {
      "midi": 72,
      "time": 6.375,
      "duration": 0.188,
      "velocity": 1,
      "hand": "right"
    },
    {
      "midi": 70,
      "time": 6.563,
      "duration": 0.188,
      "velocity": 1,
      "hand": "right"
    },
    {
      "midi": 68,
      "time": 6.75,
      "duration": 0.375,
      "velocity": 1,
      "hand": "right"
    },
    {
      "midi": 44,
      "time": 6.938,
      "duration": 0.375,
      "velocity": 1,
      "hand": "left"
    },
    {
      "midi": 56,
      "time": 6.938,
      "duration": 0.375,
      "velocity": 1,
      "hand": "left"
    },
    {
      "midi": 53,
      "time": 7.125,
      "duration": 0.375,
      "velocity": 1,
      "hand": "left"
    },
    {
      "midi": 60,
      "time": 7.125,
      "duration": 0.375,
      "velocity": 1,
      "hand": "right"
    },
    {
      "midi": 43,
      "time": 7.313,
      "duration": 0.188,
      "velocity": 1,
      "hand": "left"
    },
    {
      "midi": 55,
      "time": 7.313,
      "duration": 0.188,
      "velocity": 1,
      "hand": "left"
    },
    {
      "midi": 70,
      "time": 7.313,
      "duration": 0.188,
      "velocity": 1,
      "hand": "right"
    },
    {
      "midi": 41,
      "time": 7.5,
      "duration": 0.375,
      "velocity": 1,
      "hand": "left"
    },
    {
      "midi": 50,
      "time": 7.5,
      "duration": 0.375,
      "velocity": 1,
      "hand": "left"
    },
    {
      "midi": 53,
      "time": 7.5,
      "duration": 0.375,
      "velocity": 1,
      "hand": "left"
    },
    {
      "midi": 56,
      "time": 7.5,
      "duration": 0.375,
      "velocity": 1,
      "hand": "left"
    },
    {
      "midi": 72,
      "time": 7.5,
      "duration": 0.188,
      "velocity": 1,
      "hand": "right"
    },
    {
      "midi": 72,
      "time": 7.688,
      "duration": 0.188,
      "velocity": 1,
      "hand": "right"
    },
    {
      "midi": 40,
      "time": 7.875,
      "duration": 0.375,
      "velocity": 1,
      "hand": "left"
    },
    {
      "midi": 47,
      "time": 7.875,
      "duration": 0.375,
      "velocity": 1,
      "hand": "left"
    },
    {
      "midi": 52,
      "time": 7.875,
      "duration": 0.375,
      "velocity": 1,
      "hand": "left"
    },
    {
      "midi": 59,
      "time": 7.875,
      "duration": 0.375,
      "velocity": 1,
      "hand": "left"
    },
    {
      "midi": 72,
      "time": 7.875,
      "duration": 0.188,
      "velocity": 1,
      "hand": "right"
    },
    {
      "midi": 68,
      "time": 8.063,
      "duration": 0.188,
      "velocity": 1,
      "hand": "right"
    },
    {
      "midi": 39,
      "time": 8.25,
      "duration": 0.375,
      "velocity": 1,
      "hand": "left"
    },
    {
      "midi": 46,
      "time": 8.25,
      "duration": 0.375,
      "velocity": 1,
      "hand": "left"
    },
    {
      "midi": 51,
      "time": 8.25,
      "duration": 0.375,
      "velocity": 1,
      "hand": "left"
    },
    {
      "midi": 60,
      "time": 8.25,
      "duration": 0.375,
      "velocity": 1,
      "hand": "right"
    },
    {
      "midi": 67,
      "time": 8.25,
      "duration": 0.375,
      "velocity": 1,
      "hand": "right"
    },
    {
      "midi": 36,
      "time": 8.625,
      "duration": 0.375,
      "velocity": 1,
      "hand": "left"
    },
    {
      "midi": 48,
      "time": 8.625,
      "duration": 0.375,
      "velocity": 1,
      "hand": "left"
    },
    {
      "midi": 51,
      "time": 8.625,
      "duration": 0.375,
      "velocity": 1,
      "hand": "left"
    },
    {
      "midi": 67,
      "time": 8.625,
      "duration": 0.375,
      "velocity": 1,
      "hand": "right"
    },
    {
      "midi": 72,
      "time": 9,
      "duration": 0.375,
      "velocity": 1,
      "hand": "right"
    },
    {
      "midi": 72,
      "time": 9.375,
      "duration": 0.188,
      "velocity": 1,
      "hand": "right"
    },
    {
      "midi": 70,
      "time": 9.563,
      "duration": 0.188,
      "velocity": 1,
      "hand": "right"
    },
    {
      "midi": 68,
      "time": 9.75,
      "duration": 0.375,
      "velocity": 1,
      "hand": "right"
    },
    {
      "midi": 44,
      "time": 9.938,
      "duration": 0.375,
      "velocity": 1,
      "hand": "left"
    },
    {
      "midi": 56,
      "time": 9.938,
      "duration": 0.375,
      "velocity": 1,
      "hand": "left"
    },
    {
      "midi": 53,
      "time": 10.125,
      "duration": 0.375,
      "velocity": 1,
      "hand": "left"
    },
    {
      "midi": 60,
      "time": 10.125,
      "duration": 0.375,
      "velocity": 1,
      "hand": "right"
    },
    {
      "midi": 43,
      "time": 10.313,
      "duration": 0.188,
      "velocity": 1,
      "hand": "left"
    },
    {
      "midi": 55,
      "time": 10.313,
      "duration": 0.188,
      "velocity": 1,
      "hand": "left"
    },
    {
      "midi": 70,
      "time": 10.313,
      "duration": 0.188,
      "velocity": 1,
      "hand": "right"
    },
    {
      "midi": 41,
      "time": 10.5,
      "duration": 0.375,
      "velocity": 1,
      "hand": "left"
    },
    {
      "midi": 50,
      "time": 10.5,
      "duration": 0.375,
      "velocity": 1,
      "hand": "left"
    },
    {
      "midi": 53,
      "time": 10.5,
      "duration": 0.375,
      "velocity": 1,
      "hand": "left"
    },
    {
      "midi": 56,
      "time": 10.5,
      "duration": 0.375,
      "velocity": 1,
      "hand": "left"
    },
    {
      "midi": 72,
      "time": 10.5,
      "duration": 0.188,
      "velocity": 1,
      "hand": "right"
    },
    {
      "midi": 72,
      "time": 10.688,
      "duration": 0.188,
      "velocity": 1,
      "hand": "right"
    },
    {
      "midi": 40,
      "time": 10.875,
      "duration": 0.375,
      "velocity": 1,
      "hand": "left"
    },
    {
      "midi": 47,
      "time": 10.875,
      "duration": 0.375,
      "velocity": 1,
      "hand": "left"
    },
    {
      "midi": 52,
      "time": 10.875,
      "duration": 0.375,
      "velocity": 1,
      "hand": "left"
    },
    {
      "midi": 59,
      "time": 10.875,
      "duration": 0.375,
      "velocity": 1,
      "hand": "left"
    },
    {
      "midi": 72,
      "time": 10.875,
      "duration": 0.188,
      "velocity": 1,
      "hand": "right"
    },
    {
      "midi": 68,
      "time": 11.063,
      "duration": 0.188,
      "velocity": 1,
      "hand": "right"
    },
    {
      "midi": 39,
      "time": 11.25,
      "duration": 0.375,
      "velocity": 1,
      "hand": "left"
    },
    {
      "midi": 48,
      "time": 11.25,
      "duration": 0.375,
      "velocity": 1,
      "hand": "left"
    },
    {
      "midi": 51,
      "time": 11.25,
      "duration": 0.375,
      "velocity": 1,
      "hand": "left"
    },
    {
      "midi": 60,
      "time": 11.25,
      "duration": 0.375,
      "velocity": 1,
      "hand": "right"
    },
    {
      "midi": 67,
      "time": 11.25,
      "duration": 0.375,
      "velocity": 1,
      "hand": "right"
    },
    {
      "midi": 31,
      "time": 11.625,
      "duration": 0.375,
      "velocity": 1,
      "hand": "left"
    },
    {
      "midi": 43,
      "time": 11.625,
      "duration": 0.375,
      "velocity": 1,
      "hand": "left"
    },
    {
      "midi": 67,
      "time": 11.625,
      "duration": 0.188,
      "velocity": 1,
      "hand": "right"
    },
    {
      "midi": 67,
      "time": 11.813,
      "duration": 0.188,
      "velocity": 1,
      "hand": "right"
    },
    {
      "midi": 19,
      "time": 12,
      "duration": 23.25,
      "velocity": 0.47,
      "hand": "left"
    },
    {
      "midi": 67,
      "time": 12,
      "duration": 0.188,
      "velocity": 1,
      "hand": "right"
    },
    {
      "midi": 67,
      "time": 12.188,
      "duration": 0.188,
      "velocity": 1,
      "hand": "right"
    },
    {
      "midi": 67,
      "time": 12.375,
      "duration": 0.188,
      "velocity": 1,
      "hand": "right"
    },
    {
      "midi": 67,
      "time": 12.563,
      "duration": 0.188,
      "velocity": 1,
      "hand": "right"
    },
    {
      "midi": 72,
      "time": 12.75,
      "duration": 0.188,
      "velocity": 1,
      "hand": "right"
    },
    {
      "midi": 48,
      "time": 12.938,
      "duration": 0.375,
      "velocity": 1,
      "hand": "left"
    },
    {
      "midi": 60,
      "time": 12.938,
      "duration": 0.375,
      "velocity": 1,
      "hand": "right"
    },
    {
      "midi": 72,
      "time": 12.938,
      "duration": 0.188,
      "velocity": 1,
      "hand": "right"
    },
    {
      "midi": 51,
      "time": 13.125,
      "duration": 0.375,
      "velocity": 1,
      "hand": "left"
    },
    {
      "midi": 55,
      "time": 13.125,
      "duration": 0.375,
      "velocity": 1,
      "hand": "left"
    },
    {
      "midi": 72,
      "time": 13.125,
      "duration": 0.188,
      "velocity": 1,
      "hand": "right"
    },
    {
      "midi": 43,
      "time": 13.313,
      "duration": 0.188,
      "velocity": 1,
      "hand": "left"
    },
    {
      "midi": 55,
      "time": 13.313,
      "duration": 0.188,
      "velocity": 1,
      "hand": "left"
    },
    {
      "midi": 74,
      "time": 13.313,
      "duration": 0.188,
      "velocity": 1,
      "hand": "right"
    },
    {
      "midi": 39,
      "time": 13.5,
      "duration": 0.375,
      "velocity": 1,
      "hand": "left"
    },
    {
      "midi": 51,
      "time": 13.5,
      "duration": 0.375,
      "velocity": 1,
      "hand": "left"
    },
    {
      "midi": 53,
      "time": 13.5,
      "duration": 0.375,
      "velocity": 1,
      "hand": "left"
    },
    {
      "midi": 57,
      "time": 13.5,
      "duration": 0.375,
      "velocity": 1,
      "hand": "left"
    },
    {
      "midi": 75,
      "time": 13.5,
      "duration": 0.375,
      "velocity": 1,
      "hand": "right"
    },
    {
      "midi": 38,
      "time": 13.875,
      "duration": 0.375,
      "velocity": 1,
      "hand": "left"
    },
    {
      "midi": 50,
      "time": 13.875,
      "duration": 0.375,
      "velocity": 1,
      "hand": "left"
    },
    {
      "midi": 54,
      "time": 13.875,
      "duration": 0.375,
      "velocity": 1,
      "hand": "left"
    },
    {
      "midi": 59,
      "time": 13.875,
      "duration": 0.375,
      "velocity": 1,
      "hand": "left"
    },
    {
      "midi": 74,
      "time": 13.875,
      "duration": 0.375,
      "velocity": 1,
      "hand": "right"
    },
    {
      "midi": 36,
      "time": 14.25,
      "duration": 0.375,
      "velocity": 1,
      "hand": "left"
    },
    {
      "midi": 48,
      "time": 14.25,
      "duration": 0.375,
      "velocity": 1,
      "hand": "left"
    },
    {
      "midi": 55,
      "time": 14.25,
      "duration": 0.375,
      "velocity": 1,
      "hand": "left"
    },
    {
      "midi": 60,
      "time": 14.25,
      "duration": 0.375,
      "velocity": 1,
      "hand": "right"
    },
    {
      "midi": 72,
      "time": 14.25,
      "duration": 0.375,
      "velocity": 1,
      "hand": "right"
    },
    {
      "midi": 31,
      "time": 14.625,
      "duration": 0.375,
      "velocity": 1,
      "hand": "left"
    },
    {
      "midi": 43,
      "time": 14.625,
      "duration": 0.375,
      "velocity": 1,
      "hand": "left"
    },
    {
      "midi": 51,
      "time": 14.625,
      "duration": 0.375,
      "velocity": 1,
      "hand": "left"
    },
    {
      "midi": 72,
      "time": 14.625,
      "duration": 0.188,
      "velocity": 1,
      "hand": "right"
    },
    {
      "midi": 67,
      "time": 14.813,
      "duration": 0.188,
      "velocity": 1,
      "hand": "right"
    },
    {
      "midi": 67,
      "time": 15,
      "duration": 0.188,
      "velocity": 1,
      "hand": "right"
    },
    {
      "midi": 67,
      "time": 15.188,
      "duration": 0.188,
      "velocity": 1,
      "hand": "right"
    },
    {
      "midi": 67,
      "time": 15.375,
      "duration": 0.188,
      "velocity": 1,
      "hand": "right"
    },
    {
      "midi": 67,
      "time": 15.563,
      "duration": 0.188,
      "velocity": 1,
      "hand": "right"
    },
    {
      "midi": 72,
      "time": 15.75,
      "duration": 0.188,
      "velocity": 1,
      "hand": "right"
    },
    {
      "midi": 48,
      "time": 15.938,
      "duration": 0.375,
      "velocity": 1,
      "hand": "left"
    },
    {
      "midi": 60,
      "time": 15.938,
      "duration": 0.375,
      "velocity": 1,
      "hand": "right"
    },
    {
      "midi": 72,
      "time": 15.938,
      "duration": 0.188,
      "velocity": 1,
      "hand": "right"
    },
    {
      "midi": 51,
      "time": 16.125,
      "duration": 0.375,
      "velocity": 1,
      "hand": "left"
    },
    {
      "midi": 55,
      "time": 16.125,
      "duration": 0.375,
      "velocity": 1,
      "hand": "left"
    },
    {
      "midi": 72,
      "time": 16.125,
      "duration": 0.188,
      "velocity": 1,
      "hand": "right"
    },
    {
      "midi": 43,
      "time": 16.313,
      "duration": 0.188,
      "velocity": 1,
      "hand": "left"
    },
    {
      "midi": 55,
      "time": 16.313,
      "duration": 0.188,
      "velocity": 1,
      "hand": "left"
    },
    {
      "midi": 74,
      "time": 16.313,
      "duration": 0.188,
      "velocity": 1,
      "hand": "right"
    },
    {
      "midi": 39,
      "time": 16.5,
      "duration": 0.375,
      "velocity": 1,
      "hand": "left"
    },
    {
      "midi": 51,
      "time": 16.5,
      "duration": 0.375,
      "velocity": 1,
      "hand": "left"
    },
    {
      "midi": 53,
      "time": 16.5,
      "duration": 0.375,
      "velocity": 1,
      "hand": "left"
    },
    {
      "midi": 57,
      "time": 16.5,
      "duration": 0.375,
      "velocity": 1,
      "hand": "left"
    },
    {
      "midi": 75,
      "time": 16.5,
      "duration": 0.375,
      "velocity": 1,
      "hand": "right"
    },
    {
      "midi": 38,
      "time": 16.875,
      "duration": 0.375,
      "velocity": 1,
      "hand": "left"
    },
    {
      "midi": 50,
      "time": 16.875,
      "duration": 0.375,
      "velocity": 1,
      "hand": "left"
    },
    {
      "midi": 54,
      "time": 16.875,
      "duration": 0.375,
      "velocity": 1,
      "hand": "left"
    },
    {
      "midi": 59,
      "time": 16.875,
      "duration": 0.375,
      "velocity": 1,
      "hand": "left"
    },
    {
      "midi": 74,
      "time": 16.875,
      "duration": 0.375,
      "velocity": 1,
      "hand": "right"
    },
    {
      "midi": 36,
      "time": 17.25,
      "duration": 0.375,
      "velocity": 1,
      "hand": "left"
    },
    {
      "midi": 48,
      "time": 17.25,
      "duration": 0.375,
      "velocity": 1,
      "hand": "left"
    },
    {
      "midi": 55,
      "time": 17.25,
      "duration": 0.375,
      "velocity": 1,
      "hand": "left"
    },
    {
      "midi": 60,
      "time": 17.25,
      "duration": 0.375,
      "velocity": 1,
      "hand": "right"
    },
    {
      "midi": 72,
      "time": 17.25,
      "duration": 0.375,
      "velocity": 1,
      "hand": "right"
    },
    {
      "midi": 31,
      "time": 17.625,
      "duration": 0.375,
      "velocity": 1,
      "hand": "left"
    },
    {
      "midi": 43,
      "time": 17.625,
      "duration": 0.375,
      "velocity": 1,
      "hand": "left"
    },
    {
      "midi": 51,
      "time": 17.625,
      "duration": 0.375,
      "velocity": 1,
      "hand": "left"
    },
    {
      "midi": 72,
      "time": 17.625,
      "duration": 0.375,
      "velocity": 1,
      "hand": "right"
    },
    {
      "midi": 72,
      "time": 18,
      "duration": 0.188,
      "velocity": 1,
      "hand": "right"
    },
    {
      "midi": 72,
      "time": 18.188,
      "duration": 0.188,
      "velocity": 1,
      "hand": "right"
    },
    {
      "midi": 72,
      "time": 18.375,
      "duration": 0.188,
      "velocity": 1,
      "hand": "right"
    },
    {
      "midi": 70,
      "time": 18.563,
      "duration": 0.188,
      "velocity": 1,
      "hand": "right"
    },
    {
      "midi": 68,
      "time": 18.75,
      "duration": 0.188,
      "velocity": 1,
      "hand": "right"
    },
    {
      "midi": 44,
      "time": 18.938,
      "duration": 0.375,
      "velocity": 1,
      "hand": "left"
    },
    {
      "midi": 56,
      "time": 18.938,
      "duration": 0.375,
      "velocity": 1,
      "hand": "left"
    },
    {
      "midi": 68,
      "time": 18.938,
      "duration": 0.188,
      "velocity": 1,
      "hand": "right"
    },
    {
      "midi": 53,
      "time": 19.125,
      "duration": 0.375,
      "velocity": 1,
      "hand": "left"
    },
    {
      "midi": 60,
      "time": 19.125,
      "duration": 0.375,
      "velocity": 1,
      "hand": "right"
    },
    {
      "midi": 68,
      "time": 19.125,
      "duration": 0.188,
      "velocity": 1,
      "hand": "right"
    },
    {
      "midi": 43,
      "time": 19.313,
      "duration": 0.188,
      "velocity": 1,
      "hand": "left"
    },
    {
      "midi": 55,
      "time": 19.313,
      "duration": 0.188,
      "velocity": 1,
      "hand": "left"
    },
    {
      "midi": 70,
      "time": 19.313,
      "duration": 0.188,
      "velocity": 1,
      "hand": "right"
    },
    {
      "midi": 41,
      "time": 19.5,
      "duration": 0.375,
      "velocity": 1,
      "hand": "left"
    },
    {
      "midi": 50,
      "time": 19.5,
      "duration": 0.375,
      "velocity": 1,
      "hand": "left"
    },
    {
      "midi": 53,
      "time": 19.5,
      "duration": 0.375,
      "velocity": 1,
      "hand": "left"
    },
    {
      "midi": 56,
      "time": 19.5,
      "duration": 0.375,
      "velocity": 1,
      "hand": "left"
    },
    {
      "midi": 72,
      "time": 19.5,
      "duration": 0.188,
      "velocity": 1,
      "hand": "right"
    },
    {
      "midi": 72,
      "time": 19.688,
      "duration": 0.188,
      "velocity": 1,
      "hand": "right"
    },
    {
      "midi": 40,
      "time": 19.875,
      "duration": 0.375,
      "velocity": 1,
      "hand": "left"
    },
    {
      "midi": 47,
      "time": 19.875,
      "duration": 0.375,
      "velocity": 1,
      "hand": "left"
    },
    {
      "midi": 52,
      "time": 19.875,
      "duration": 0.375,
      "velocity": 1,
      "hand": "left"
    },
    {
      "midi": 59,
      "time": 19.875,
      "duration": 0.375,
      "velocity": 1,
      "hand": "left"
    },
    {
      "midi": 68,
      "time": 19.875,
      "duration": 0.375,
      "velocity": 1,
      "hand": "right"
    },
    {
      "midi": 39,
      "time": 20.25,
      "duration": 0.375,
      "velocity": 1,
      "hand": "left"
    },
    {
      "midi": 46,
      "time": 20.25,
      "duration": 0.375,
      "velocity": 1,
      "hand": "left"
    },
    {
      "midi": 51,
      "time": 20.25,
      "duration": 0.375,
      "velocity": 1,
      "hand": "left"
    },
    {
      "midi": 60,
      "time": 20.25,
      "duration": 0.375,
      "velocity": 1,
      "hand": "right"
    },
    {
      "midi": 67,
      "time": 20.25,
      "duration": 0.375,
      "velocity": 1,
      "hand": "right"
    },
    {
      "midi": 36,
      "time": 20.625,
      "duration": 0.375,
      "velocity": 1,
      "hand": "left"
    },
    {
      "midi": 48,
      "time": 20.625,
      "duration": 0.375,
      "velocity": 1,
      "hand": "left"
    },
    {
      "midi": 51,
      "time": 20.625,
      "duration": 0.375,
      "velocity": 1,
      "hand": "left"
    },
    {
      "midi": 67,
      "time": 20.625,
      "duration": 0.375,
      "velocity": 1,
      "hand": "right"
    },
    {
      "midi": 72,
      "time": 21,
      "duration": 0.188,
      "velocity": 1,
      "hand": "right"
    },
    {
      "midi": 72,
      "time": 21.188,
      "duration": 0.188,
      "velocity": 1,
      "hand": "right"
    },
    {
      "midi": 72,
      "time": 21.375,
      "duration": 0.188,
      "velocity": 1,
      "hand": "right"
    },
    {
      "midi": 70,
      "time": 21.563,
      "duration": 0.188,
      "velocity": 1,
      "hand": "right"
    },
    {
      "midi": 68,
      "time": 21.75,
      "duration": 0.188,
      "velocity": 1,
      "hand": "right"
    },
    {
      "midi": 44,
      "time": 21.938,
      "duration": 0.375,
      "velocity": 1,
      "hand": "left"
    },
    {
      "midi": 56,
      "time": 21.938,
      "duration": 0.375,
      "velocity": 1,
      "hand": "left"
    },
    {
      "midi": 68,
      "time": 21.938,
      "duration": 0.188,
      "velocity": 1,
      "hand": "right"
    },
    {
      "midi": 53,
      "time": 22.125,
      "duration": 0.375,
      "velocity": 1,
      "hand": "left"
    },
    {
      "midi": 60,
      "time": 22.125,
      "duration": 0.375,
      "velocity": 1,
      "hand": "right"
    },
    {
      "midi": 68,
      "time": 22.125,
      "duration": 0.188,
      "velocity": 1,
      "hand": "right"
    },
    {
      "midi": 43,
      "time": 22.313,
      "duration": 0.188,
      "velocity": 1,
      "hand": "left"
    },
    {
      "midi": 55,
      "time": 22.313,
      "duration": 0.188,
      "velocity": 1,
      "hand": "left"
    },
    {
      "midi": 70,
      "time": 22.313,
      "duration": 0.188,
      "velocity": 1,
      "hand": "right"
    },
    {
      "midi": 41,
      "time": 22.5,
      "duration": 0.375,
      "velocity": 1,
      "hand": "left"
    },
    {
      "midi": 50,
      "time": 22.5,
      "duration": 0.375,
      "velocity": 1,
      "hand": "left"
    },
    {
      "midi": 53,
      "time": 22.5,
      "duration": 0.375,
      "velocity": 1,
      "hand": "left"
    },
    {
      "midi": 56,
      "time": 22.5,
      "duration": 0.375,
      "velocity": 1,
      "hand": "left"
    },
    {
      "midi": 72,
      "time": 22.5,
      "duration": 0.188,
      "velocity": 1,
      "hand": "right"
    },
    {
      "midi": 72,
      "time": 22.688,
      "duration": 0.188,
      "velocity": 1,
      "hand": "right"
    },
    {
      "midi": 40,
      "time": 22.875,
      "duration": 0.375,
      "velocity": 1,
      "hand": "left"
    },
    {
      "midi": 47,
      "time": 22.875,
      "duration": 0.375,
      "velocity": 1,
      "hand": "left"
    },
    {
      "midi": 52,
      "time": 22.875,
      "duration": 0.375,
      "velocity": 1,
      "hand": "left"
    },
    {
      "midi": 59,
      "time": 22.875,
      "duration": 0.375,
      "velocity": 1,
      "hand": "left"
    },
    {
      "midi": 68,
      "time": 22.875,
      "duration": 0.375,
      "velocity": 1,
      "hand": "right"
    },
    {
      "midi": 39,
      "time": 23.25,
      "duration": 0.375,
      "velocity": 1,
      "hand": "left"
    },
    {
      "midi": 48,
      "time": 23.25,
      "duration": 0.375,
      "velocity": 1,
      "hand": "left"
    },
    {
      "midi": 51,
      "time": 23.25,
      "duration": 0.375,
      "velocity": 1,
      "hand": "left"
    },
    {
      "midi": 60,
      "time": 23.25,
      "duration": 0.375,
      "velocity": 1,
      "hand": "right"
    },
    {
      "midi": 67,
      "time": 23.25,
      "duration": 0.375,
      "velocity": 1,
      "hand": "right"
    },
    {
      "midi": 31,
      "time": 23.625,
      "duration": 0.375,
      "velocity": 1,
      "hand": "left"
    },
    {
      "midi": 43,
      "time": 23.625,
      "duration": 0.375,
      "velocity": 1,
      "hand": "left"
    },
    {
      "midi": 67,
      "time": 23.625,
      "duration": 0.375,
      "velocity": 1,
      "hand": "right"
    },
    {
      "midi": 67,
      "time": 24,
      "duration": 0.188,
      "velocity": 1,
      "hand": "right"
    },
    {
      "midi": 79,
      "time": 24,
      "duration": 11.25,
      "velocity": 0.35,
      "hand": "right"
    },
    {
      "midi": 67,
      "time": 24.188,
      "duration": 0.188,
      "velocity": 1,
      "hand": "right"
    },
    {
      "midi": 67,
      "time": 24.375,
      "duration": 0.188,
      "velocity": 1,
      "hand": "right"
    },
    {
      "midi": 67,
      "time": 24.563,
      "duration": 0.188,
      "velocity": 1,
      "hand": "right"
    },
    {
      "midi": 72,
      "time": 24.75,
      "duration": 0.188,
      "velocity": 1,
      "hand": "right"
    },
    {
      "midi": 48,
      "time": 24.938,
      "duration": 0.375,
      "velocity": 1,
      "hand": "left"
    },
    {
      "midi": 60,
      "time": 24.938,
      "duration": 0.375,
      "velocity": 1,
      "hand": "right"
    },
    {
      "midi": 72,
      "time": 24.938,
      "duration": 0.188,
      "velocity": 1,
      "hand": "right"
    },
    {
      "midi": 51,
      "time": 25.125,
      "duration": 0.375,
      "velocity": 1,
      "hand": "left"
    },
    {
      "midi": 55,
      "time": 25.125,
      "duration": 0.375,
      "velocity": 1,
      "hand": "left"
    },
    {
      "midi": 72,
      "time": 25.125,
      "duration": 0.188,
      "velocity": 1,
      "hand": "right"
    },
    {
      "midi": 43,
      "time": 25.313,
      "duration": 0.188,
      "velocity": 1,
      "hand": "left"
    },
    {
      "midi": 55,
      "time": 25.313,
      "duration": 0.188,
      "velocity": 1,
      "hand": "left"
    },
    {
      "midi": 74,
      "time": 25.313,
      "duration": 0.188,
      "velocity": 1,
      "hand": "right"
    },
    {
      "midi": 39,
      "time": 25.5,
      "duration": 0.375,
      "velocity": 1,
      "hand": "left"
    },
    {
      "midi": 51,
      "time": 25.5,
      "duration": 0.375,
      "velocity": 1,
      "hand": "left"
    },
    {
      "midi": 53,
      "time": 25.5,
      "duration": 0.375,
      "velocity": 1,
      "hand": "left"
    },
    {
      "midi": 57,
      "time": 25.5,
      "duration": 0.375,
      "velocity": 1,
      "hand": "left"
    },
    {
      "midi": 75,
      "time": 25.5,
      "duration": 0.375,
      "velocity": 1,
      "hand": "right"
    },
    {
      "midi": 38,
      "time": 25.875,
      "duration": 0.375,
      "velocity": 1,
      "hand": "left"
    },
    {
      "midi": 50,
      "time": 25.875,
      "duration": 0.375,
      "velocity": 1,
      "hand": "left"
    },
    {
      "midi": 54,
      "time": 25.875,
      "duration": 0.375,
      "velocity": 1,
      "hand": "left"
    },
    {
      "midi": 59,
      "time": 25.875,
      "duration": 0.375,
      "velocity": 1,
      "hand": "left"
    },
    {
      "midi": 74,
      "time": 25.875,
      "duration": 0.375,
      "velocity": 1,
      "hand": "right"
    },
    {
      "midi": 36,
      "time": 26.25,
      "duration": 0.375,
      "velocity": 1,
      "hand": "left"
    },
    {
      "midi": 48,
      "time": 26.25,
      "duration": 0.375,
      "velocity": 1,
      "hand": "left"
    },
    {
      "midi": 55,
      "time": 26.25,
      "duration": 0.375,
      "velocity": 1,
      "hand": "left"
    },
    {
      "midi": 60,
      "time": 26.25,
      "duration": 0.375,
      "velocity": 1,
      "hand": "right"
    },
    {
      "midi": 72,
      "time": 26.25,
      "duration": 0.563,
      "velocity": 1,
      "hand": "right"
    },
    {
      "midi": 31,
      "time": 26.625,
      "duration": 0.375,
      "velocity": 1,
      "hand": "left"
    },
    {
      "midi": 43,
      "time": 26.625,
      "duration": 0.375,
      "velocity": 1,
      "hand": "left"
    },
    {
      "midi": 51,
      "time": 26.625,
      "duration": 0.375,
      "velocity": 1,
      "hand": "left"
    },
    {
      "midi": 67,
      "time": 27,
      "duration": 0.188,
      "velocity": 1,
      "hand": "right"
    },
    {
      "midi": 67,
      "time": 27.188,
      "duration": 0.188,
      "velocity": 1,
      "hand": "right"
    },
    {
      "midi": 67,
      "time": 27.375,
      "duration": 0.188,
      "velocity": 1,
      "hand": "right"
    },
    {
      "midi": 67,
      "time": 27.563,
      "duration": 0.188,
      "velocity": 1,
      "hand": "right"
    },
    {
      "midi": 72,
      "time": 27.75,
      "duration": 0.188,
      "velocity": 1,
      "hand": "right"
    },
    {
      "midi": 48,
      "time": 27.938,
      "duration": 0.375,
      "velocity": 1,
      "hand": "left"
    },
    {
      "midi": 60,
      "time": 27.938,
      "duration": 0.375,
      "velocity": 1,
      "hand": "right"
    },
    {
      "midi": 72,
      "time": 27.938,
      "duration": 0.188,
      "velocity": 1,
      "hand": "right"
    },
    {
      "midi": 51,
      "time": 28.125,
      "duration": 0.375,
      "velocity": 1,
      "hand": "left"
    },
    {
      "midi": 55,
      "time": 28.125,
      "duration": 0.375,
      "velocity": 1,
      "hand": "left"
    },
    {
      "midi": 72,
      "time": 28.125,
      "duration": 0.188,
      "velocity": 1,
      "hand": "right"
    },
    {
      "midi": 43,
      "time": 28.313,
      "duration": 0.188,
      "velocity": 1,
      "hand": "left"
    },
    {
      "midi": 55,
      "time": 28.313,
      "duration": 0.188,
      "velocity": 1,
      "hand": "left"
    },
    {
      "midi": 74,
      "time": 28.313,
      "duration": 0.188,
      "velocity": 1,
      "hand": "right"
    },
    {
      "midi": 39,
      "time": 28.5,
      "duration": 0.375,
      "velocity": 1,
      "hand": "left"
    },
    {
      "midi": 51,
      "time": 28.5,
      "duration": 0.375,
      "velocity": 1,
      "hand": "left"
    },
    {
      "midi": 53,
      "time": 28.5,
      "duration": 0.375,
      "velocity": 1,
      "hand": "left"
    },
    {
      "midi": 57,
      "time": 28.5,
      "duration": 0.375,
      "velocity": 1,
      "hand": "left"
    },
    {
      "midi": 75,
      "time": 28.5,
      "duration": 0.375,
      "velocity": 1,
      "hand": "right"
    },
    {
      "midi": 38,
      "time": 28.875,
      "duration": 0.375,
      "velocity": 1,
      "hand": "left"
    },
    {
      "midi": 50,
      "time": 28.875,
      "duration": 0.375,
      "velocity": 1,
      "hand": "left"
    },
    {
      "midi": 54,
      "time": 28.875,
      "duration": 0.375,
      "velocity": 1,
      "hand": "left"
    },
    {
      "midi": 59,
      "time": 28.875,
      "duration": 0.375,
      "velocity": 1,
      "hand": "left"
    },
    {
      "midi": 74,
      "time": 28.875,
      "duration": 0.375,
      "velocity": 1,
      "hand": "right"
    },
    {
      "midi": 36,
      "time": 29.25,
      "duration": 0.375,
      "velocity": 1,
      "hand": "left"
    },
    {
      "midi": 48,
      "time": 29.25,
      "duration": 0.375,
      "velocity": 1,
      "hand": "left"
    },
    {
      "midi": 55,
      "time": 29.25,
      "duration": 0.375,
      "velocity": 1,
      "hand": "left"
    },
    {
      "midi": 60,
      "time": 29.25,
      "duration": 0.375,
      "velocity": 1,
      "hand": "right"
    },
    {
      "midi": 72,
      "time": 29.25,
      "duration": 0.563,
      "velocity": 1,
      "hand": "right"
    },
    {
      "midi": 31,
      "time": 29.625,
      "duration": 0.375,
      "velocity": 1,
      "hand": "left"
    },
    {
      "midi": 43,
      "time": 29.625,
      "duration": 0.375,
      "velocity": 1,
      "hand": "left"
    },
    {
      "midi": 51,
      "time": 29.625,
      "duration": 0.375,
      "velocity": 1,
      "hand": "left"
    },
    {
      "midi": 72,
      "time": 30,
      "duration": 0.188,
      "velocity": 1,
      "hand": "right"
    },
    {
      "midi": 72,
      "time": 30.188,
      "duration": 0.188,
      "velocity": 1,
      "hand": "right"
    },
    {
      "midi": 72,
      "time": 30.375,
      "duration": 0.188,
      "velocity": 1,
      "hand": "right"
    },
    {
      "midi": 70,
      "time": 30.563,
      "duration": 0.188,
      "velocity": 1,
      "hand": "right"
    },
    {
      "midi": 68,
      "time": 30.75,
      "duration": 0.188,
      "velocity": 1,
      "hand": "right"
    },
    {
      "midi": 44,
      "time": 30.938,
      "duration": 0.375,
      "velocity": 1,
      "hand": "left"
    },
    {
      "midi": 56,
      "time": 30.938,
      "duration": 0.375,
      "velocity": 1,
      "hand": "left"
    },
    {
      "midi": 68,
      "time": 30.938,
      "duration": 0.188,
      "velocity": 1,
      "hand": "right"
    },
    {
      "midi": 53,
      "time": 31.125,
      "duration": 0.375,
      "velocity": 1,
      "hand": "left"
    },
    {
      "midi": 60,
      "time": 31.125,
      "duration": 0.375,
      "velocity": 1,
      "hand": "right"
    },
    {
      "midi": 68,
      "time": 31.125,
      "duration": 0.188,
      "velocity": 1,
      "hand": "right"
    },
    {
      "midi": 43,
      "time": 31.313,
      "duration": 0.188,
      "velocity": 1,
      "hand": "left"
    },
    {
      "midi": 55,
      "time": 31.313,
      "duration": 0.188,
      "velocity": 1,
      "hand": "left"
    },
    {
      "midi": 70,
      "time": 31.313,
      "duration": 0.188,
      "velocity": 1,
      "hand": "right"
    },
    {
      "midi": 41,
      "time": 31.5,
      "duration": 0.375,
      "velocity": 1,
      "hand": "left"
    },
    {
      "midi": 50,
      "time": 31.5,
      "duration": 0.375,
      "velocity": 1,
      "hand": "left"
    },
    {
      "midi": 53,
      "time": 31.5,
      "duration": 0.375,
      "velocity": 1,
      "hand": "left"
    },
    {
      "midi": 56,
      "time": 31.5,
      "duration": 0.375,
      "velocity": 1,
      "hand": "left"
    },
    {
      "midi": 72,
      "time": 31.5,
      "duration": 0.375,
      "velocity": 1,
      "hand": "right"
    },
    {
      "midi": 40,
      "time": 31.875,
      "duration": 0.375,
      "velocity": 1,
      "hand": "left"
    },
    {
      "midi": 47,
      "time": 31.875,
      "duration": 0.375,
      "velocity": 1,
      "hand": "left"
    },
    {
      "midi": 52,
      "time": 31.875,
      "duration": 0.375,
      "velocity": 1,
      "hand": "left"
    },
    {
      "midi": 59,
      "time": 31.875,
      "duration": 0.375,
      "velocity": 1,
      "hand": "left"
    },
    {
      "midi": 68,
      "time": 31.875,
      "duration": 0.375,
      "velocity": 1,
      "hand": "right"
    },
    {
      "midi": 39,
      "time": 32.25,
      "duration": 0.375,
      "velocity": 1,
      "hand": "left"
    },
    {
      "midi": 46,
      "time": 32.25,
      "duration": 0.375,
      "velocity": 1,
      "hand": "left"
    },
    {
      "midi": 51,
      "time": 32.25,
      "duration": 0.375,
      "velocity": 1,
      "hand": "left"
    },
    {
      "midi": 60,
      "time": 32.25,
      "duration": 0.375,
      "velocity": 1,
      "hand": "right"
    },
    {
      "midi": 67,
      "time": 32.25,
      "duration": 0.563,
      "velocity": 1,
      "hand": "right"
    },
    {
      "midi": 36,
      "time": 32.625,
      "duration": 0.375,
      "velocity": 1,
      "hand": "left"
    },
    {
      "midi": 48,
      "time": 32.625,
      "duration": 0.375,
      "velocity": 1,
      "hand": "left"
    },
    {
      "midi": 51,
      "time": 32.625,
      "duration": 0.375,
      "velocity": 1,
      "hand": "left"
    },
    {
      "midi": 72,
      "time": 33,
      "duration": 0.188,
      "velocity": 1,
      "hand": "right"
    },
    {
      "midi": 72,
      "time": 33.188,
      "duration": 0.188,
      "velocity": 1,
      "hand": "right"
    },
    {
      "midi": 72,
      "time": 33.375,
      "duration": 0.188,
      "velocity": 1,
      "hand": "right"
    },
    {
      "midi": 70,
      "time": 33.563,
      "duration": 0.188,
      "velocity": 1,
      "hand": "right"
    },
    {
      "midi": 68,
      "time": 33.75,
      "duration": 0.188,
      "velocity": 1,
      "hand": "right"
    },
    {
      "midi": 44,
      "time": 33.938,
      "duration": 0.375,
      "velocity": 1,
      "hand": "left"
    },
    {
      "midi": 56,
      "time": 33.938,
      "duration": 0.375,
      "velocity": 1,
      "hand": "left"
    },
    {
      "midi": 68,
      "time": 33.938,
      "duration": 0.188,
      "velocity": 1,
      "hand": "right"
    },
    {
      "midi": 53,
      "time": 34.125,
      "duration": 0.375,
      "velocity": 1,
      "hand": "left"
    },
    {
      "midi": 60,
      "time": 34.125,
      "duration": 0.375,
      "velocity": 1,
      "hand": "right"
    },
    {
      "midi": 68,
      "time": 34.125,
      "duration": 0.188,
      "velocity": 1,
      "hand": "right"
    },
    {
      "midi": 43,
      "time": 34.313,
      "duration": 0.188,
      "velocity": 1,
      "hand": "left"
    },
    {
      "midi": 55,
      "time": 34.313,
      "duration": 0.188,
      "velocity": 1,
      "hand": "left"
    },
    {
      "midi": 70,
      "time": 34.313,
      "duration": 0.188,
      "velocity": 1,
      "hand": "right"
    },
    {
      "midi": 41,
      "time": 34.5,
      "duration": 0.375,
      "velocity": 1,
      "hand": "left"
    },
    {
      "midi": 50,
      "time": 34.5,
      "duration": 0.375,
      "velocity": 1,
      "hand": "left"
    },
    {
      "midi": 53,
      "time": 34.5,
      "duration": 0.375,
      "velocity": 1,
      "hand": "left"
    },
    {
      "midi": 56,
      "time": 34.5,
      "duration": 0.375,
      "velocity": 1,
      "hand": "left"
    },
    {
      "midi": 72,
      "time": 34.5,
      "duration": 0.375,
      "velocity": 1,
      "hand": "right"
    },
    {
      "midi": 40,
      "time": 34.875,
      "duration": 0.375,
      "velocity": 1,
      "hand": "left"
    },
    {
      "midi": 47,
      "time": 34.875,
      "duration": 0.375,
      "velocity": 1,
      "hand": "left"
    },
    {
      "midi": 52,
      "time": 34.875,
      "duration": 0.375,
      "velocity": 1,
      "hand": "left"
    },
    {
      "midi": 59,
      "time": 34.875,
      "duration": 0.375,
      "velocity": 1,
      "hand": "left"
    },
    {
      "midi": 68,
      "time": 34.875,
      "duration": 0.375,
      "velocity": 1,
      "hand": "right"
    },
    {
      "midi": 39,
      "time": 35.25,
      "duration": 0.375,
      "velocity": 1,
      "hand": "left"
    },
    {
      "midi": 48,
      "time": 35.25,
      "duration": 0.375,
      "velocity": 1,
      "hand": "left"
    },
    {
      "midi": 51,
      "time": 35.25,
      "duration": 0.375,
      "velocity": 1,
      "hand": "left"
    },
    {
      "midi": 60,
      "time": 35.25,
      "duration": 0.375,
      "velocity": 1,
      "hand": "right"
    },
    {
      "midi": 67,
      "time": 35.25,
      "duration": 0.375,
      "velocity": 1,
      "hand": "right"
    },
    {
      "midi": 24,
      "time": 35.625,
      "duration": 0.375,
      "velocity": 1,
      "hand": "left"
    },
    {
      "midi": 36,
      "time": 35.625,
      "duration": 0.375,
      "velocity": 1,
      "hand": "left"
    }
  ]
}
