{
  "id": "minueto-1",
  "title": "Recorder\u0000",
  "artist": "MIDI Source",
  "difficulty": "Médio",
  "bpm": 90,
  "duration": 32,
  "category": "A revisar",
  "isPremium": true,
  "coverUrl": "/images/covers/placeholder.png",
  "notes": [
    {
      "midi": 74,
      "time": 0,
      "duration": 0.667,
      "velocity": 0.63,
      "hand": "right"
    },
    {
      "midi": 67,
      "time": 0.667,
      "duration": 0.333,
      "velocity": 0.63,
      "hand": "right"
    },
    {
      "midi": 69,
      "time": 1,
      "duration": 0.333,
      "velocity": 0.63,
      "hand": "right"
    },
    {
      "midi": 71,
      "time": 1.333,
      "duration": 0.333,
      "velocity": 0.63,
      "hand": "right"
    },
    {
      "midi": 72,
      "time": 1.667,
      "duration": 0.333,
      "velocity": 0.63,
      "hand": "right"
    },
    {
      "midi": 74,
      "time": 2,
      "duration": 0.667,
      "velocity": 0.63,
      "hand": "right"
    },
    {
      "midi": 67,
      "time": 2.667,
      "duration": 0.667,
      "velocity": 0.63,
      "hand": "right"
    },
    {
      "midi": 67,
      "time": 3.333,
      "duration": 0.667,
      "velocity": 0.63,
      "hand": "right"
    },
    {
      "midi": 76,
      "time": 4,
      "duration": 0.667,
      "velocity": 0.63,
      "hand": "right"
    },
    {
      "midi": 72,
      "time": 4.667,
      "duration": 0.333,
      "velocity": 0.63,
      "hand": "right"
    },
    {
      "midi": 74,
      "time": 5,
      "duration": 0.333,
      "velocity": 0.63,
      "hand": "right"
    },
    {
      "midi": 76,
      "time": 5.333,
      "duration": 0.333,
      "velocity": 0.63,
      "hand": "right"
    },
    {
      "midi": 78,
      "time": 5.667,
      "duration": 0.333,
      "velocity": 0.63,
      "hand": "right"
    },
    {
      "midi": 79,
      "time": 6,
      "duration": 0.667,
      "velocity": 0.63,
      "hand": "right"
    },
    {
      "midi": 67,
      "time": 6.667,
      "duration": 0.667,
      "velocity": 0.63,
      "hand": "right"
    },
    {
      "midi": 67,
      "time": 7.333,
      "duration": 0.667,
      "velocity": 0.63,
      "hand": "right"
    },
    {
      "midi": 72,
      "time": 8,
      "duration": 0.667,
      "velocity": 0.63,
      "hand": "right"
    },
    {
      "midi": 74,
      "time": 8.667,
      "duration": 0.333,
      "velocity": 0.63,
      "hand": "right"
    },
    {
      "midi": 72,
      "time": 9,
      "duration": 0.333,
      "velocity": 0.63,
      "hand": "right"
    },
    {
      "midi": 71,
      "time": 9.333,
      "duration": 0.333,
      "velocity": 0.63,
      "hand": "right"
    },
    {
      "midi": 69,
      "time": 9.667,
      "duration": 0.333,
      "velocity": 0.63,
      "hand": "right"
    },
    {
      "midi": 71,
      "time": 10,
      "duration": 0.667,
      "velocity": 0.63,
      "hand": "right"
    },
    {
      "midi": 72,
      "time": 10.667,
      "duration": 0.333,
      "velocity": 0.63,
      "hand": "right"
    },
    {
      "midi": 71,
      "time": 11,
      "duration": 0.333,
      "velocity": 0.63,
      "hand": "right"
    },
    {
      "midi": 69,
      "time": 11.333,
      "duration": 0.333,
      "velocity": 0.63,
      "hand": "right"
    },
    {
      "midi": 67,
      "time": 11.667,
      "duration": 0.333,
      "velocity": 0.63,
      "hand": "right"
    },
    {
      "midi": 66,
      "time": 12,
      "duration": 0.667,
      "velocity": 0.63,
      "hand": "right"
    },
    {
      "midi": 67,
      "time": 12.667,
      "duration": 0.333,
      "velocity": 0.63,
      "hand": "right"
    },
    {
      "midi": 69,
      "time": 13,
      "duration": 0.333,
      "velocity": 0.63,
      "hand": "right"
    },
    {
      "midi": 71,
      "time": 13.333,
      "duration": 0.333,
      "velocity": 0.63,
      "hand": "right"
    },
    {
      "midi": 67,
      "time": 13.667,
      "duration": 0.333,
      "velocity": 0.63,
      "hand": "right"
    },
    {
      "midi": 71,
      "time": 14,
      "duration": 0.667,
      "velocity": 0.63,
      "hand": "right"
    },
    {
      "midi": 69,
      "time": 14.667,
      "duration": 1.333,
      "velocity": 0.63,
      "hand": "right"
    },
    {
      "midi": 74,
      "time": 16,
      "duration": 0.667,
      "velocity": 0.63,
      "hand": "right"
    },
    {
      "midi": 67,
      "time": 16.667,
      "duration": 0.333,
      "velocity": 0.63,
      "hand": "right"
    },
    {
      "midi": 69,
      "time": 17,
      "duration": 0.333,
      "velocity": 0.63,
      "hand": "right"
    },
    {
      "midi": 71,
      "time": 17.333,
      "duration": 0.333,
      "velocity": 0.63,
      "hand": "right"
    },
    {
      "midi": 72,
      "time": 17.667,
      "duration": 0.333,
      "velocity": 0.63,
      "hand": "right"
    },
    {
      "midi": 74,
      "time": 18,
      "duration": 0.667,
      "velocity": 0.63,
      "hand": "right"
    },
    {
      "midi": 67,
      "time": 18.667,
      "duration": 0.667,
      "velocity": 0.63,
      "hand": "right"
    },
    {
      "midi": 67,
      "time": 19.333,
      "duration": 0.667,
      "velocity": 0.63,
      "hand": "right"
    },
    {
      "midi": 76,
      "time": 20,
      "duration": 0.667,
      "velocity": 0.63,
      "hand": "right"
    },
    {
      "midi": 72,
      "time": 20.667,
      "duration": 0.333,
      "velocity": 0.63,
      "hand": "right"
    },
    {
      "midi": 74,
      "time": 21,
      "duration": 0.333,
      "velocity": 0.63,
      "hand": "right"
    },
    {
      "midi": 76,
      "time": 21.333,
      "duration": 0.333,
      "velocity": 0.63,
      "hand": "right"
    },
    {
      "midi": 78,
      "time": 21.667,
      "duration": 0.333,
      "velocity": 0.63,
      "hand": "right"
    },
    {
      "midi": 79,
      "time": 22,
      "duration": 0.667,
      "velocity": 0.63,
      "hand": "right"
    },
    {
      "midi": 67,
      "time": 22.667,
      "duration": 0.667,
      "velocity": 0.63,
      "hand": "right"
    },
    {
      "midi": 67,
      "time": 23.333,
      "duration": 0.667,
      "velocity": 0.63,
      "hand": "right"
    },
    {
      "midi": 72,
      "time": 24,
      "duration": 0.667,
      "velocity": 0.63,
      "hand": "right"
    },
    {
      "midi": 74,
      "time": 24.667,
      "duration": 0.333,
      "velocity": 0.63,
      "hand": "right"
    },
    {
      "midi": 72,
      "time": 25,
      "duration": 0.333,
      "velocity": 0.63,
      "hand": "right"
    },
    {
      "midi": 71,
      "time": 25.333,
      "duration": 0.333,
      "velocity": 0.63,
      "hand": "right"
    },
    {
      "midi": 69,
      "time": 25.667,
      "duration": 0.333,
      "velocity": 0.63,
      "hand": "right"
    },
    {
      "midi": 71,
      "time": 26,
      "duration": 0.667,
      "velocity": 0.63,
      "hand": "right"
    },
    {
      "midi": 72,
      "time": 26.667,
      "duration": 0.333,
      "velocity": 0.63,
      "hand": "right"
    },
    {
      "midi": 71,
      "time": 27,
      "duration": 0.333,
      "velocity": 0.63,
      "hand": "right"
    },
    {
      "midi": 69,
      "time": 27.333,
      "duration": 0.333,
      "velocity": 0.63,
      "hand": "right"
    },
    {
      "midi": 67,
      "time": 27.667,
      "duration": 0.333,
      "velocity": 0.63,
      "hand": "right"
    },
    {
      "midi": 69,
      "time": 28,
      "duration": 0.667,
      "velocity": 0.63,
      "hand": "right"
    },
    {
      "midi": 71,
      "time": 28.667,
      "duration": 0.333,
      "velocity": 0.63,
      "hand": "right"
    },
    {
      "midi": 69,
      "time": 29,
      "duration": 0.333,
      "velocity": 0.63,
      "hand": "right"
    },
    {
      "midi": 67,
      "time": 29.333,
      "duration": 0.333,
      "velocity": 0.63,
      "hand": "right"
    },
    {
      "midi": 66,
      "time": 29.667,
      "duration": 0.333,
      "velocity": 0.63,
      "hand": "right"
    },
    {
      "midi": 67,
      "time": 30,
      "duration": 1.833,
      "velocity": 0.63,
      "hand": "right"
    }
  ],
  "arrangements": {
    "easy": [
      {
        "midi": 74,
        "time": 0,
        "duration": 0.667,
        "velocity": 0.63,
        "hand": "right"
      },
      {
        "midi": 67,
        "time": 0.667,
        "duration": 0.333,
        "velocity": 0.63,
        "hand": "right"
      },
      {
        "midi": 69,
        "time": 1,
        "duration": 0.333,
        "velocity": 0.63,
        "hand": "right"
      },
      {
        "midi": 71,
        "time": 1.333,
        "duration": 0.333,
        "velocity": 0.63,
        "hand": "right"
      },
      {
        "midi": 72,
        "time": 1.667,
        "duration": 0.333,
        "velocity": 0.63,
        "hand": "right"
      },
      {
        "midi": 74,
        "time": 2,
        "duration": 0.667,
        "velocity": 0.63,
        "hand": "right"
      },
      {
        "midi": 67,
        "time": 2.667,
        "duration": 0.667,
        "velocity": 0.63,
        "hand": "right"
      },
      {
        "midi": 67,
        "time": 3.333,
        "duration": 0.667,
        "velocity": 0.63,
        "hand": "right"
      },
      {
        "midi": 76,
        "time": 4,
        "duration": 0.667,
        "velocity": 0.63,
        "hand": "right"
      },
      {
        "midi": 72,
        "time": 4.667,
        "duration": 0.333,
        "velocity": 0.63,
        "hand": "right"
      },
      {
        "midi": 74,
        "time": 5,
        "duration": 0.333,
        "velocity": 0.63,
        "hand": "right"
      },
      {
        "midi": 76,
        "time": 5.333,
        "duration": 0.333,
        "velocity": 0.63,
        "hand": "right"
      },
      {
        "midi": 78,
        "time": 5.667,
        "duration": 0.333,
        "velocity": 0.63,
        "hand": "right"
      },
      {
        "midi": 79,
        "time": 6,
        "duration": 0.667,
        "velocity": 0.63,
        "hand": "right"
      },
      {
        "midi": 67,
        "time": 6.667,
        "duration": 0.667,
        "velocity": 0.63,
        "hand": "right"
      },
      {
        "midi": 67,
        "time": 7.333,
        "duration": 0.667,
        "velocity": 0.63,
        "hand": "right"
      },
      {
        "midi": 72,
        "time": 8,
        "duration": 0.667,
        "velocity": 0.63,
        "hand": "right"
      },
      {
        "midi": 74,
        "time": 8.667,
        "duration": 0.333,
        "velocity": 0.63,
        "hand": "right"
      },
      {
        "midi": 72,
        "time": 9,
        "duration": 0.333,
        "velocity": 0.63,
        "hand": "right"
      },
      {
        "midi": 71,
        "time": 9.333,
        "duration": 0.333,
        "velocity": 0.63,
        "hand": "right"
      },
      {
        "midi": 69,
        "time": 9.667,
        "duration": 0.333,
        "velocity": 0.63,
        "hand": "right"
      },
      {
        "midi": 71,
        "time": 10,
        "duration": 0.667,
        "velocity": 0.63,
        "hand": "right"
      },
      {
        "midi": 72,
        "time": 10.667,
        "duration": 0.333,
        "velocity": 0.63,
        "hand": "right"
      },
      {
        "midi": 71,
        "time": 11,
        "duration": 0.333,
        "velocity": 0.63,
        "hand": "right"
      },
      {
        "midi": 69,
        "time": 11.333,
        "duration": 0.333,
        "velocity": 0.63,
        "hand": "right"
      },
      {
        "midi": 67,
        "time": 11.667,
        "duration": 0.333,
        "velocity": 0.63,
        "hand": "right"
      },
      {
        "midi": 66,
        "time": 12,
        "duration": 0.667,
        "velocity": 0.63,
        "hand": "right"
      },
      {
        "midi": 67,
        "time": 12.667,
        "duration": 0.333,
        "velocity": 0.63,
        "hand": "right"
      },
      {
        "midi": 69,
        "time": 13,
        "duration": 0.333,
        "velocity": 0.63,
        "hand": "right"
      },
      {
        "midi": 71,
        "time": 13.333,
        "duration": 0.333,
        "velocity": 0.63,
        "hand": "right"
      },
      {
        "midi": 67,
        "time": 13.667,
        "duration": 0.333,
        "velocity": 0.63,
        "hand": "right"
      },
      {
        "midi": 71,
        "time": 14,
        "duration": 0.667,
        "velocity": 0.63,
        "hand": "right"
      },
      {
        "midi": 69,
        "time": 14.667,
        "duration": 1.333,
        "velocity": 0.63,
        "hand": "right"
      },
      {
        "midi": 74,
        "time": 16,
        "duration": 0.667,
        "velocity": 0.63,
        "hand": "right"
      },
      {
        "midi": 67,
        "time": 16.667,
        "duration": 0.333,
        "velocity": 0.63,
        "hand": "right"
      },
      {
        "midi": 69,
        "time": 17,
        "duration": 0.333,
        "velocity": 0.63,
        "hand": "right"
      },
      {
        "midi": 71,
        "time": 17.333,
        "duration": 0.333,
        "velocity": 0.63,
        "hand": "right"
      },
      {
        "midi": 72,
        "time": 17.667,
        "duration": 0.333,
        "velocity": 0.63,
        "hand": "right"
      },
      {
        "midi": 74,
        "time": 18,
        "duration": 0.667,
        "velocity": 0.63,
        "hand": "right"
      },
      {
        "midi": 67,
        "time": 18.667,
        "duration": 0.667,
        "velocity": 0.63,
        "hand": "right"
      },
      {
        "midi": 67,
        "time": 19.333,
        "duration": 0.667,
        "velocity": 0.63,
        "hand": "right"
      },
      {
        "midi": 76,
        "time": 20,
        "duration": 0.667,
        "velocity": 0.63,
        "hand": "right"
      },
      {
        "midi": 72,
        "time": 20.667,
        "duration": 0.333,
        "velocity": 0.63,
        "hand": "right"
      },
      {
        "midi": 74,
        "time": 21,
        "duration": 0.333,
        "velocity": 0.63,
        "hand": "right"
      },
      {
        "midi": 76,
        "time": 21.333,
        "duration": 0.333,
        "velocity": 0.63,
        "hand": "right"
      },
      {
        "midi": 78,
        "time": 21.667,
        "duration": 0.333,
        "velocity": 0.63,
        "hand": "right"
      },
      {
        "midi": 79,
        "time": 22,
        "duration": 0.667,
        "velocity": 0.63,
        "hand": "right"
      },
      {
        "midi": 67,
        "time": 22.667,
        "duration": 0.667,
        "velocity": 0.63,
        "hand": "right"
      },
      {
        "midi": 67,
        "time": 23.333,
        "duration": 0.667,
        "velocity": 0.63,
        "hand": "right"
      },
      {
        "midi": 72,
        "time": 24,
        "duration": 0.667,
        "velocity": 0.63,
        "hand": "right"
      },
      {
        "midi": 74,
        "time": 24.667,
        "duration": 0.333,
        "velocity": 0.63,
        "hand": "right"
      },
      {
        "midi": 72,
        "time": 25,
        "duration": 0.333,
        "velocity": 0.63,
        "hand": "right"
      },
      {
        "midi": 71,
        "time": 25.333,
        "duration": 0.333,
        "velocity": 0.63,
        "hand": "right"
      },
      {
        "midi": 69,
        "time": 25.667,
        "duration": 0.333,
        "velocity": 0.63,
        "hand": "right"
      },
      {
        "midi": 71,
        "time": 26,
        "duration": 0.667,
        "velocity": 0.63,
        "hand": "right"
      },
      {
        "midi": 72,
        "time": 26.667,
        "duration": 0.333,
        "velocity": 0.63,
        "hand": "right"
      },
      {
        "midi": 71,
        "time": 27,
        "duration": 0.333,
        "velocity": 0.63,
        "hand": "right"
      },
      {
        "midi": 69,
        "time": 27.333,
        "duration": 0.333,
        "velocity": 0.63,
        "hand": "right"
      },
      {
        "midi": 67,
        "time": 27.667,
        "duration": 0.333,
        "velocity": 0.63,
        "hand": "right"
      },
      {
        "midi": 69,
        "time": 28,
        "duration": 0.667,
        "velocity": 0.63,
        "hand": "right"
      },
      {
        "midi": 71,
        "time": 28.667,
        "duration": 0.333,
        "velocity": 0.63,
        "hand": "right"
      },
      {
        "midi": 69,
        "time": 29,
        "duration": 0.333,
        "velocity": 0.63,
        "hand": "right"
      },
      {
        "midi": 67,
        "time": 29.333,
        "duration": 0.333,
        "velocity": 0.63,
        "hand": "right"
      },
      {
        "midi": 66,
        "time": 29.667,
        "duration": 0.333,
        "velocity": 0.63,
        "hand": "right"
      },
      {
        "midi": 67,
        "time": 30,
        "duration": 1.833,
        "velocity": 0.63,
        "hand": "right"
      }
    ],
    "medium": [
      {
        "midi": 74,
        "time": 0,
        "duration": 0.667,
        "velocity": 0.63,
        "hand": "right"
      },
      {
        "midi": 67,
        "time": 0.667,
        "duration": 0.333,
        "velocity": 0.63,
        "hand": "right"
      },
      {
        "midi": 69,
        "time": 1,
        "duration": 0.333,
        "velocity": 0.63,
        "hand": "right"
      },
      {
        "midi": 71,
        "time": 1.333,
        "duration": 0.333,
        "velocity": 0.63,
        "hand": "right"
      },
      {
        "midi": 72,
        "time": 1.667,
        "duration": 0.333,
        "velocity": 0.63,
        "hand": "right"
      },
      {
        "midi": 74,
        "time": 2,
        "duration": 0.667,
        "velocity": 0.63,
        "hand": "right"
      },
      {
        "midi": 67,
        "time": 2.667,
        "duration": 0.667,
        "velocity": 0.63,
        "hand": "right"
      },
      {
        "midi": 67,
        "time": 3.333,
        "duration": 0.667,
        "velocity": 0.63,
        "hand": "right"
      },
      {
        "midi": 76,
        "time": 4,
        "duration": 0.667,
        "velocity": 0.63,
        "hand": "right"
      },
      {
        "midi": 72,
        "time": 4.667,
        "duration": 0.333,
        "velocity": 0.63,
        "hand": "right"
      },
      {
        "midi": 74,
        "time": 5,
        "duration": 0.333,
        "velocity": 0.63,
        "hand": "right"
      },
      {
        "midi": 76,
        "time": 5.333,
        "duration": 0.333,
        "velocity": 0.63,
        "hand": "right"
      },
      {
        "midi": 78,
        "time": 5.667,
        "duration": 0.333,
        "velocity": 0.63,
        "hand": "right"
      },
      {
        "midi": 79,
        "time": 6,
        "duration": 0.667,
        "velocity": 0.63,
        "hand": "right"
      },
      {
        "midi": 67,
        "time": 6.667,
        "duration": 0.667,
        "velocity": 0.63,
        "hand": "right"
      },
      {
        "midi": 67,
        "time": 7.333,
        "duration": 0.667,
        "velocity": 0.63,
        "hand": "right"
      },
      {
        "midi": 72,
        "time": 8,
        "duration": 0.667,
        "velocity": 0.63,
        "hand": "right"
      },
      {
        "midi": 74,
        "time": 8.667,
        "duration": 0.333,
        "velocity": 0.63,
        "hand": "right"
      },
      {
        "midi": 72,
        "time": 9,
        "duration": 0.333,
        "velocity": 0.63,
        "hand": "right"
      },
      {
        "midi": 71,
        "time": 9.333,
        "duration": 0.333,
        "velocity": 0.63,
        "hand": "right"
      },
      {
        "midi": 69,
        "time": 9.667,
        "duration": 0.333,
        "velocity": 0.63,
        "hand": "right"
      },
      {
        "midi": 71,
        "time": 10,
        "duration": 0.667,
        "velocity": 0.63,
        "hand": "right"
      },
      {
        "midi": 72,
        "time": 10.667,
        "duration": 0.333,
        "velocity": 0.63,
        "hand": "right"
      },
      {
        "midi": 71,
        "time": 11,
        "duration": 0.333,
        "velocity": 0.63,
        "hand": "right"
      },
      {
        "midi": 69,
        "time": 11.333,
        "duration": 0.333,
        "velocity": 0.63,
        "hand": "right"
      },
      {
        "midi": 67,
        "time": 11.667,
        "duration": 0.333,
        "velocity": 0.63,
        "hand": "right"
      },
      {
        "midi": 66,
        "time": 12,
        "duration": 0.667,
        "velocity": 0.63,
        "hand": "right"
      },
      {
        "midi": 67,
        "time": 12.667,
        "duration": 0.333,
        "velocity": 0.63,
        "hand": "right"
      },
      {
        "midi": 69,
        "time": 13,
        "duration": 0.333,
        "velocity": 0.63,
        "hand": "right"
      },
      {
        "midi": 71,
        "time": 13.333,
        "duration": 0.333,
        "velocity": 0.63,
        "hand": "right"
      },
      {
        "midi": 67,
        "time": 13.667,
        "duration": 0.333,
        "velocity": 0.63,
        "hand": "right"
      },
      {
        "midi": 71,
        "time": 14,
        "duration": 0.667,
        "velocity": 0.63,
        "hand": "right"
      },
      {
        "midi": 69,
        "time": 14.667,
        "duration": 1.333,
        "velocity": 0.63,
        "hand": "right"
      },
      {
        "midi": 74,
        "time": 16,
        "duration": 0.667,
        "velocity": 0.63,
        "hand": "right"
      },
      {
        "midi": 67,
        "time": 16.667,
        "duration": 0.333,
        "velocity": 0.63,
        "hand": "right"
      },
      {
        "midi": 69,
        "time": 17,
        "duration": 0.333,
        "velocity": 0.63,
        "hand": "right"
      },
      {
        "midi": 71,
        "time": 17.333,
        "duration": 0.333,
        "velocity": 0.63,
        "hand": "right"
      },
      {
        "midi": 72,
        "time": 17.667,
        "duration": 0.333,
        "velocity": 0.63,
        "hand": "right"
      },
      {
        "midi": 74,
        "time": 18,
        "duration": 0.667,
        "velocity": 0.63,
        "hand": "right"
      },
      {
        "midi": 67,
        "time": 18.667,
        "duration": 0.667,
        "velocity": 0.63,
        "hand": "right"
      },
      {
        "midi": 67,
        "time": 19.333,
        "duration": 0.667,
        "velocity": 0.63,
        "hand": "right"
      },
      {
        "midi": 76,
        "time": 20,
        "duration": 0.667,
        "velocity": 0.63,
        "hand": "right"
      },
      {
        "midi": 72,
        "time": 20.667,
        "duration": 0.333,
        "velocity": 0.63,
        "hand": "right"
      },
      {
        "midi": 74,
        "time": 21,
        "duration": 0.333,
        "velocity": 0.63,
        "hand": "right"
      },
      {
        "midi": 76,
        "time": 21.333,
        "duration": 0.333,
        "velocity": 0.63,
        "hand": "right"
      },
      {
        "midi": 78,
        "time": 21.667,
        "duration": 0.333,
        "velocity": 0.63,
        "hand": "right"
      },
      {
        "midi": 79,
        "time": 22,
        "duration": 0.667,
        "velocity": 0.63,
        "hand": "right"
      },
      {
        "midi": 67,
        "time": 22.667,
        "duration": 0.667,
        "velocity": 0.63,
        "hand": "right"
      },
      {
        "midi": 67,
        "time": 23.333,
        "duration": 0.667,
        "velocity": 0.63,
        "hand": "right"
      },
      {
        "midi": 72,
        "time": 24,
        "duration": 0.667,
        "velocity": 0.63,
        "hand": "right"
      },
      {
        "midi": 74,
        "time": 24.667,
        "duration": 0.333,
        "velocity": 0.63,
        "hand": "right"
      },
      {
        "midi": 72,
        "time": 25,
        "duration": 0.333,
        "velocity": 0.63,
        "hand": "right"
      },
      {
        "midi": 71,
        "time": 25.333,
        "duration": 0.333,
        "velocity": 0.63,
        "hand": "right"
      },
      {
        "midi": 69,
        "time": 25.667,
        "duration": 0.333,
        "velocity": 0.63,
        "hand": "right"
      },
      {
        "midi": 71,
        "time": 26,
        "duration": 0.667,
        "velocity": 0.63,
        "hand": "right"
      },
      {
        "midi": 72,
        "time": 26.667,
        "duration": 0.333,
        "velocity": 0.63,
        "hand": "right"
      },
      {
        "midi": 71,
        "time": 27,
        "duration": 0.333,
        "velocity": 0.63,
        "hand": "right"
      },
      {
        "midi": 69,
        "time": 27.333,
        "duration": 0.333,
        "velocity": 0.63,
        "hand": "right"
      },
      {
        "midi": 67,
        "time": 27.667,
        "duration": 0.333,
        "velocity": 0.63,
        "hand": "right"
      },
      {
        "midi": 69,
        "time": 28,
        "duration": 0.667,
        "velocity": 0.63,
        "hand": "right"
      },
      {
        "midi": 71,
        "time": 28.667,
        "duration": 0.333,
        "velocity": 0.63,
        "hand": "right"
      },
      {
        "midi": 69,
        "time": 29,
        "duration": 0.333,
        "velocity": 0.63,
        "hand": "right"
      },
      {
        "midi": 67,
        "time": 29.333,
        "duration": 0.333,
        "velocity": 0.63,
        "hand": "right"
      },
      {
        "midi": 66,
        "time": 29.667,
        "duration": 0.333,
        "velocity": 0.63,
        "hand": "right"
      },
      {
        "midi": 67,
        "time": 30,
        "duration": 1.833,
        "velocity": 0.63,
        "hand": "right"
      }
    ],
    "hard": [
      {
        "midi": 74,
        "time": 0,
        "duration": 0.667,
        "velocity": 0.63,
        "hand": "right"
      },
      {
        "midi": 67,
        "time": 0.667,
        "duration": 0.333,
        "velocity": 0.63,
        "hand": "right"
      },
      {
        "midi": 69,
        "time": 1,
        "duration": 0.333,
        "velocity": 0.63,
        "hand": "right"
      },
      {
        "midi": 71,
        "time": 1.333,
        "duration": 0.333,
        "velocity": 0.63,
        "hand": "right"
      },
      {
        "midi": 72,
        "time": 1.667,
        "duration": 0.333,
        "velocity": 0.63,
        "hand": "right"
      },
      {
        "midi": 74,
        "time": 2,
        "duration": 0.667,
        "velocity": 0.63,
        "hand": "right"
      },
      {
        "midi": 67,
        "time": 2.667,
        "duration": 0.667,
        "velocity": 0.63,
        "hand": "right"
      },
      {
        "midi": 67,
        "time": 3.333,
        "duration": 0.667,
        "velocity": 0.63,
        "hand": "right"
      },
      {
        "midi": 76,
        "time": 4,
        "duration": 0.667,
        "velocity": 0.63,
        "hand": "right"
      },
      {
        "midi": 72,
        "time": 4.667,
        "duration": 0.333,
        "velocity": 0.63,
        "hand": "right"
      },
      {
        "midi": 74,
        "time": 5,
        "duration": 0.333,
        "velocity": 0.63,
        "hand": "right"
      },
      {
        "midi": 76,
        "time": 5.333,
        "duration": 0.333,
        "velocity": 0.63,
        "hand": "right"
      },
      {
        "midi": 78,
        "time": 5.667,
        "duration": 0.333,
        "velocity": 0.63,
        "hand": "right"
      },
      {
        "midi": 79,
        "time": 6,
        "duration": 0.667,
        "velocity": 0.63,
        "hand": "right"
      },
      {
        "midi": 67,
        "time": 6.667,
        "duration": 0.667,
        "velocity": 0.63,
        "hand": "right"
      },
      {
        "midi": 67,
        "time": 7.333,
        "duration": 0.667,
        "velocity": 0.63,
        "hand": "right"
      },
      {
        "midi": 72,
        "time": 8,
        "duration": 0.667,
        "velocity": 0.63,
        "hand": "right"
      },
      {
        "midi": 74,
        "time": 8.667,
        "duration": 0.333,
        "velocity": 0.63,
        "hand": "right"
      },
      {
        "midi": 72,
        "time": 9,
        "duration": 0.333,
        "velocity": 0.63,
        "hand": "right"
      },
      {
        "midi": 71,
        "time": 9.333,
        "duration": 0.333,
        "velocity": 0.63,
        "hand": "right"
      },
      {
        "midi": 69,
        "time": 9.667,
        "duration": 0.333,
        "velocity": 0.63,
        "hand": "right"
      },
      {
        "midi": 71,
        "time": 10,
        "duration": 0.667,
        "velocity": 0.63,
        "hand": "right"
      },
      {
        "midi": 72,
        "time": 10.667,
        "duration": 0.333,
        "velocity": 0.63,
        "hand": "right"
      },
      {
        "midi": 71,
        "time": 11,
        "duration": 0.333,
        "velocity": 0.63,
        "hand": "right"
      },
      {
        "midi": 69,
        "time": 11.333,
        "duration": 0.333,
        "velocity": 0.63,
        "hand": "right"
      },
      {
        "midi": 67,
        "time": 11.667,
        "duration": 0.333,
        "velocity": 0.63,
        "hand": "right"
      },
      {
        "midi": 66,
        "time": 12,
        "duration": 0.667,
        "velocity": 0.63,
        "hand": "right"
      },
      {
        "midi": 67,
        "time": 12.667,
        "duration": 0.333,
        "velocity": 0.63,
        "hand": "right"
      },
      {
        "midi": 69,
        "time": 13,
        "duration": 0.333,
        "velocity": 0.63,
        "hand": "right"
      },
      {
        "midi": 71,
        "time": 13.333,
        "duration": 0.333,
        "velocity": 0.63,
        "hand": "right"
      },
      {
        "midi": 67,
        "time": 13.667,
        "duration": 0.333,
        "velocity": 0.63,
        "hand": "right"
      },
      {
        "midi": 71,
        "time": 14,
        "duration": 0.667,
        "velocity": 0.63,
        "hand": "right"
      },
      {
        "midi": 69,
        "time": 14.667,
        "duration": 1.333,
        "velocity": 0.63,
        "hand": "right"
      },
      {
        "midi": 74,
        "time": 16,
        "duration": 0.667,
        "velocity": 0.63,
        "hand": "right"
      },
      {
        "midi": 67,
        "time": 16.667,
        "duration": 0.333,
        "velocity": 0.63,
        "hand": "right"
      },
      {
        "midi": 69,
        "time": 17,
        "duration": 0.333,
        "velocity": 0.63,
        "hand": "right"
      },
      {
        "midi": 71,
        "time": 17.333,
        "duration": 0.333,
        "velocity": 0.63,
        "hand": "right"
      },
      {
        "midi": 72,
        "time": 17.667,
        "duration": 0.333,
        "velocity": 0.63,
        "hand": "right"
      },
      {
        "midi": 74,
        "time": 18,
        "duration": 0.667,
        "velocity": 0.63,
        "hand": "right"
      },
      {
        "midi": 67,
        "time": 18.667,
        "duration": 0.667,
        "velocity": 0.63,
        "hand": "right"
      },
      {
        "midi": 67,
        "time": 19.333,
        "duration": 0.667,
        "velocity": 0.63,
        "hand": "right"
      },
      {
        "midi": 76,
        "time": 20,
        "duration": 0.667,
        "velocity": 0.63,
        "hand": "right"
      },
      {
        "midi": 72,
        "time": 20.667,
        "duration": 0.333,
        "velocity": 0.63,
        "hand": "right"
      },
      {
        "midi": 74,
        "time": 21,
        "duration": 0.333,
        "velocity": 0.63,
        "hand": "right"
      },
      {
        "midi": 76,
        "time": 21.333,
        "duration": 0.333,
        "velocity": 0.63,
        "hand": "right"
      },
      {
        "midi": 78,
        "time": 21.667,
        "duration": 0.333,
        "velocity": 0.63,
        "hand": "right"
      },
      {
        "midi": 79,
        "time": 22,
        "duration": 0.667,
        "velocity": 0.63,
        "hand": "right"
      },
      {
        "midi": 67,
        "time": 22.667,
        "duration": 0.667,
        "velocity": 0.63,
        "hand": "right"
      },
      {
        "midi": 67,
        "time": 23.333,
        "duration": 0.667,
        "velocity": 0.63,
        "hand": "right"
      },
      {
        "midi": 72,
        "time": 24,
        "duration": 0.667,
        "velocity": 0.63,
        "hand": "right"
      },
      {
        "midi": 74,
        "time": 24.667,
        "duration": 0.333,
        "velocity": 0.63,
        "hand": "right"
      },
      {
        "midi": 72,
        "time": 25,
        "duration": 0.333,
        "velocity": 0.63,
        "hand": "right"
      },
      {
        "midi": 71,
        "time": 25.333,
        "duration": 0.333,
        "velocity": 0.63,
        "hand": "right"
      },
      {
        "midi": 69,
        "time": 25.667,
        "duration": 0.333,
        "velocity": 0.63,
        "hand": "right"
      },
      {
        "midi": 71,
        "time": 26,
        "duration": 0.667,
        "velocity": 0.63,
        "hand": "right"
      },
      {
        "midi": 72,
        "time": 26.667,
        "duration": 0.333,
        "velocity": 0.63,
        "hand": "right"
      },
      {
        "midi": 71,
        "time": 27,
        "duration": 0.333,
        "velocity": 0.63,
        "hand": "right"
      },
      {
        "midi": 69,
        "time": 27.333,
        "duration": 0.333,
        "velocity": 0.63,
        "hand": "right"
      },
      {
        "midi": 67,
        "time": 27.667,
        "duration": 0.333,
        "velocity": 0.63,
        "hand": "right"
      },
      {
        "midi": 69,
        "time": 28,
        "duration": 0.667,
        "velocity": 0.63,
        "hand": "right"
      },
      {
        "midi": 71,
        "time": 28.667,
        "duration": 0.333,
        "velocity": 0.63,
        "hand": "right"
      },
      {
        "midi": 69,
        "time": 29,
        "duration": 0.333,
        "velocity": 0.63,
        "hand": "right"
      },
      {
        "midi": 67,
        "time": 29.333,
        "duration": 0.333,
        "velocity": 0.63,
        "hand": "right"
      },
      {
        "midi": 66,
        "time": 29.667,
        "duration": 0.333,
        "velocity": 0.63,
        "hand": "right"
      },
      {
        "midi": 67,
        "time": 30,
        "duration": 1.833,
        "velocity": 0.63,
        "hand": "right"
      }
    ]
  },
  "notes1Hand": [
    {
      "midi": 74,
      "time": 0,
      "duration": 0.667,
      "velocity": 0.63,
      "hand": "right"
    },
    {
      "midi": 67,
      "time": 0.667,
      "duration": 0.333,
      "velocity": 0.63,
      "hand": "right"
    },
    {
      "midi": 69,
      "time": 1,
      "duration": 0.333,
      "velocity": 0.63,
      "hand": "right"
    },
    {
      "midi": 71,
      "time": 1.333,
      "duration": 0.333,
      "velocity": 0.63,
      "hand": "right"
    },
    {
      "midi": 72,
      "time": 1.667,
      "duration": 0.333,
      "velocity": 0.63,
      "hand": "right"
    },
    {
      "midi": 74,
      "time": 2,
      "duration": 0.667,
      "velocity": 0.63,
      "hand": "right"
    },
    {
      "midi": 67,
      "time": 2.667,
      "duration": 0.667,
      "velocity": 0.63,
      "hand": "right"
    },
    {
      "midi": 67,
      "time": 3.333,
      "duration": 0.667,
      "velocity": 0.63,
      "hand": "right"
    },
    {
      "midi": 76,
      "time": 4,
      "duration": 0.667,
      "velocity": 0.63,
      "hand": "right"
    },
    {
      "midi": 72,
      "time": 4.667,
      "duration": 0.333,
      "velocity": 0.63,
      "hand": "right"
    },
    {
      "midi": 74,
      "time": 5,
      "duration": 0.333,
      "velocity": 0.63,
      "hand": "right"
    },
    {
      "midi": 76,
      "time": 5.333,
      "duration": 0.333,
      "velocity": 0.63,
      "hand": "right"
    },
    {
      "midi": 78,
      "time": 5.667,
      "duration": 0.333,
      "velocity": 0.63,
      "hand": "right"
    },
    {
      "midi": 79,
      "time": 6,
      "duration": 0.667,
      "velocity": 0.63,
      "hand": "right"
    },
    {
      "midi": 67,
      "time": 6.667,
      "duration": 0.667,
      "velocity": 0.63,
      "hand": "right"
    },
    {
      "midi": 67,
      "time": 7.333,
      "duration": 0.667,
      "velocity": 0.63,
      "hand": "right"
    },
    {
      "midi": 72,
      "time": 8,
      "duration": 0.667,
      "velocity": 0.63,
      "hand": "right"
    },
    {
      "midi": 74,
      "time": 8.667,
      "duration": 0.333,
      "velocity": 0.63,
      "hand": "right"
    },
    {
      "midi": 72,
      "time": 9,
      "duration": 0.333,
      "velocity": 0.63,
      "hand": "right"
    },
    {
      "midi": 71,
      "time": 9.333,
      "duration": 0.333,
      "velocity": 0.63,
      "hand": "right"
    },
    {
      "midi": 69,
      "time": 9.667,
      "duration": 0.333,
      "velocity": 0.63,
      "hand": "right"
    },
    {
      "midi": 71,
      "time": 10,
      "duration": 0.667,
      "velocity": 0.63,
      "hand": "right"
    },
    {
      "midi": 72,
      "time": 10.667,
      "duration": 0.333,
      "velocity": 0.63,
      "hand": "right"
    },
    {
      "midi": 71,
      "time": 11,
      "duration": 0.333,
      "velocity": 0.63,
      "hand": "right"
    },
    {
      "midi": 69,
      "time": 11.333,
      "duration": 0.333,
      "velocity": 0.63,
      "hand": "right"
    },
    {
      "midi": 67,
      "time": 11.667,
      "duration": 0.333,
      "velocity": 0.63,
      "hand": "right"
    },
    {
      "midi": 66,
      "time": 12,
      "duration": 0.667,
      "velocity": 0.63,
      "hand": "right"
    },
    {
      "midi": 67,
      "time": 12.667,
      "duration": 0.333,
      "velocity": 0.63,
      "hand": "right"
    },
    {
      "midi": 69,
      "time": 13,
      "duration": 0.333,
      "velocity": 0.63,
      "hand": "right"
    },
    {
      "midi": 71,
      "time": 13.333,
      "duration": 0.333,
      "velocity": 0.63,
      "hand": "right"
    },
    {
      "midi": 67,
      "time": 13.667,
      "duration": 0.333,
      "velocity": 0.63,
      "hand": "right"
    },
    {
      "midi": 71,
      "time": 14,
      "duration": 0.667,
      "velocity": 0.63,
      "hand": "right"
    },
    {
      "midi": 69,
      "time": 14.667,
      "duration": 1.333,
      "velocity": 0.63,
      "hand": "right"
    },
    {
      "midi": 74,
      "time": 16,
      "duration": 0.667,
      "velocity": 0.63,
      "hand": "right"
    },
    {
      "midi": 67,
      "time": 16.667,
      "duration": 0.333,
      "velocity": 0.63,
      "hand": "right"
    },
    {
      "midi": 69,
      "time": 17,
      "duration": 0.333,
      "velocity": 0.63,
      "hand": "right"
    },
    {
      "midi": 71,
      "time": 17.333,
      "duration": 0.333,
      "velocity": 0.63,
      "hand": "right"
    },
    {
      "midi": 72,
      "time": 17.667,
      "duration": 0.333,
      "velocity": 0.63,
      "hand": "right"
    },
    {
      "midi": 74,
      "time": 18,
      "duration": 0.667,
      "velocity": 0.63,
      "hand": "right"
    },
    {
      "midi": 67,
      "time": 18.667,
      "duration": 0.667,
      "velocity": 0.63,
      "hand": "right"
    },
    {
      "midi": 67,
      "time": 19.333,
      "duration": 0.667,
      "velocity": 0.63,
      "hand": "right"
    },
    {
      "midi": 76,
      "time": 20,
      "duration": 0.667,
      "velocity": 0.63,
      "hand": "right"
    },
    {
      "midi": 72,
      "time": 20.667,
      "duration": 0.333,
      "velocity": 0.63,
      "hand": "right"
    },
    {
      "midi": 74,
      "time": 21,
      "duration": 0.333,
      "velocity": 0.63,
      "hand": "right"
    },
    {
      "midi": 76,
      "time": 21.333,
      "duration": 0.333,
      "velocity": 0.63,
      "hand": "right"
    },
    {
      "midi": 78,
      "time": 21.667,
      "duration": 0.333,
      "velocity": 0.63,
      "hand": "right"
    },
    {
      "midi": 79,
      "time": 22,
      "duration": 0.667,
      "velocity": 0.63,
      "hand": "right"
    },
    {
      "midi": 67,
      "time": 22.667,
      "duration": 0.667,
      "velocity": 0.63,
      "hand": "right"
    },
    {
      "midi": 67,
      "time": 23.333,
      "duration": 0.667,
      "velocity": 0.63,
      "hand": "right"
    },
    {
      "midi": 72,
      "time": 24,
      "duration": 0.667,
      "velocity": 0.63,
      "hand": "right"
    },
    {
      "midi": 74,
      "time": 24.667,
      "duration": 0.333,
      "velocity": 0.63,
      "hand": "right"
    },
    {
      "midi": 72,
      "time": 25,
      "duration": 0.333,
      "velocity": 0.63,
      "hand": "right"
    },
    {
      "midi": 71,
      "time": 25.333,
      "duration": 0.333,
      "velocity": 0.63,
      "hand": "right"
    },
    {
      "midi": 69,
      "time": 25.667,
      "duration": 0.333,
      "velocity": 0.63,
      "hand": "right"
    },
    {
      "midi": 71,
      "time": 26,
      "duration": 0.667,
      "velocity": 0.63,
      "hand": "right"
    },
    {
      "midi": 72,
      "time": 26.667,
      "duration": 0.333,
      "velocity": 0.63,
      "hand": "right"
    },
    {
      "midi": 71,
      "time": 27,
      "duration": 0.333,
      "velocity": 0.63,
      "hand": "right"
    },
    {
      "midi": 69,
      "time": 27.333,
      "duration": 0.333,
      "velocity": 0.63,
      "hand": "right"
    },
    {
      "midi": 67,
      "time": 27.667,
      "duration": 0.333,
      "velocity": 0.63,
      "hand": "right"
    },
    {
      "midi": 69,
      "time": 28,
      "duration": 0.667,
      "velocity": 0.63,
      "hand": "right"
    },
    {
      "midi": 71,
      "time": 28.667,
      "duration": 0.333,
      "velocity": 0.63,
      "hand": "right"
    },
    {
      "midi": 69,
      "time": 29,
      "duration": 0.333,
      "velocity": 0.63,
      "hand": "right"
    },
    {
      "midi": 67,
      "time": 29.333,
      "duration": 0.333,
      "velocity": 0.63,
      "hand": "right"
    },
    {
      "midi": 66,
      "time": 29.667,
      "duration": 0.333,
      "velocity": 0.63,
      "hand": "right"
    },
    {
      "midi": 67,
      "time": 30,
      "duration": 1.833,
      "velocity": 0.63,
      "hand": "right"
    }
  ],
  "notes2Hands": [
    {
      "midi": 74,
      "time": 0,
      "duration": 0.667,
      "velocity": 0.63,
      "hand": "right"
    },
    {
      "midi": 67,
      "time": 0.667,
      "duration": 0.333,
      "velocity": 0.63,
      "hand": "right"
    },
    {
      "midi": 69,
      "time": 1,
      "duration": 0.333,
      "velocity": 0.63,
      "hand": "right"
    },
    {
      "midi": 71,
      "time": 1.333,
      "duration": 0.333,
      "velocity": 0.63,
      "hand": "right"
    },
    {
      "midi": 72,
      "time": 1.667,
      "duration": 0.333,
      "velocity": 0.63,
      "hand": "right"
    },
    {
      "midi": 74,
      "time": 2,
      "duration": 0.667,
      "velocity": 0.63,
      "hand": "right"
    },
    {
      "midi": 67,
      "time": 2.667,
      "duration": 0.667,
      "velocity": 0.63,
      "hand": "right"
    },
    {
      "midi": 67,
      "time": 3.333,
      "duration": 0.667,
      "velocity": 0.63,
      "hand": "right"
    },
    {
      "midi": 76,
      "time": 4,
      "duration": 0.667,
      "velocity": 0.63,
      "hand": "right"
    },
    {
      "midi": 72,
      "time": 4.667,
      "duration": 0.333,
      "velocity": 0.63,
      "hand": "right"
    },
    {
      "midi": 74,
      "time": 5,
      "duration": 0.333,
      "velocity": 0.63,
      "hand": "right"
    },
    {
      "midi": 76,
      "time": 5.333,
      "duration": 0.333,
      "velocity": 0.63,
      "hand": "right"
    },
    {
      "midi": 78,
      "time": 5.667,
      "duration": 0.333,
      "velocity": 0.63,
      "hand": "right"
    },
    {
      "midi": 79,
      "time": 6,
      "duration": 0.667,
      "velocity": 0.63,
      "hand": "right"
    },
    {
      "midi": 67,
      "time": 6.667,
      "duration": 0.667,
      "velocity": 0.63,
      "hand": "right"
    },
    {
      "midi": 67,
      "time": 7.333,
      "duration": 0.667,
      "velocity": 0.63,
      "hand": "right"
    },
    {
      "midi": 72,
      "time": 8,
      "duration": 0.667,
      "velocity": 0.63,
      "hand": "right"
    },
    {
      "midi": 74,
      "time": 8.667,
      "duration": 0.333,
      "velocity": 0.63,
      "hand": "right"
    },
    {
      "midi": 72,
      "time": 9,
      "duration": 0.333,
      "velocity": 0.63,
      "hand": "right"
    },
    {
      "midi": 71,
      "time": 9.333,
      "duration": 0.333,
      "velocity": 0.63,
      "hand": "right"
    },
    {
      "midi": 69,
      "time": 9.667,
      "duration": 0.333,
      "velocity": 0.63,
      "hand": "right"
    },
    {
      "midi": 71,
      "time": 10,
      "duration": 0.667,
      "velocity": 0.63,
      "hand": "right"
    },
    {
      "midi": 72,
      "time": 10.667,
      "duration": 0.333,
      "velocity": 0.63,
      "hand": "right"
    },
    {
      "midi": 71,
      "time": 11,
      "duration": 0.333,
      "velocity": 0.63,
      "hand": "right"
    },
    {
      "midi": 69,
      "time": 11.333,
      "duration": 0.333,
      "velocity": 0.63,
      "hand": "right"
    },
    {
      "midi": 67,
      "time": 11.667,
      "duration": 0.333,
      "velocity": 0.63,
      "hand": "right"
    },
    {
      "midi": 66,
      "time": 12,
      "duration": 0.667,
      "velocity": 0.63,
      "hand": "right"
    },
    {
      "midi": 67,
      "time": 12.667,
      "duration": 0.333,
      "velocity": 0.63,
      "hand": "right"
    },
    {
      "midi": 69,
      "time": 13,
      "duration": 0.333,
      "velocity": 0.63,
      "hand": "right"
    },
    {
      "midi": 71,
      "time": 13.333,
      "duration": 0.333,
      "velocity": 0.63,
      "hand": "right"
    },
    {
      "midi": 67,
      "time": 13.667,
      "duration": 0.333,
      "velocity": 0.63,
      "hand": "right"
    },
    {
      "midi": 71,
      "time": 14,
      "duration": 0.667,
      "velocity": 0.63,
      "hand": "right"
    },
    {
      "midi": 69,
      "time": 14.667,
      "duration": 1.333,
      "velocity": 0.63,
      "hand": "right"
    },
    {
      "midi": 74,
      "time": 16,
      "duration": 0.667,
      "velocity": 0.63,
      "hand": "right"
    },
    {
      "midi": 67,
      "time": 16.667,
      "duration": 0.333,
      "velocity": 0.63,
      "hand": "right"
    },
    {
      "midi": 69,
      "time": 17,
      "duration": 0.333,
      "velocity": 0.63,
      "hand": "right"
    },
    {
      "midi": 71,
      "time": 17.333,
      "duration": 0.333,
      "velocity": 0.63,
      "hand": "right"
    },
    {
      "midi": 72,
      "time": 17.667,
      "duration": 0.333,
      "velocity": 0.63,
      "hand": "right"
    },
    {
      "midi": 74,
      "time": 18,
      "duration": 0.667,
      "velocity": 0.63,
      "hand": "right"
    },
    {
      "midi": 67,
      "time": 18.667,
      "duration": 0.667,
      "velocity": 0.63,
      "hand": "right"
    },
    {
      "midi": 67,
      "time": 19.333,
      "duration": 0.667,
      "velocity": 0.63,
      "hand": "right"
    },
    {
      "midi": 76,
      "time": 20,
      "duration": 0.667,
      "velocity": 0.63,
      "hand": "right"
    },
    {
      "midi": 72,
      "time": 20.667,
      "duration": 0.333,
      "velocity": 0.63,
      "hand": "right"
    },
    {
      "midi": 74,
      "time": 21,
      "duration": 0.333,
      "velocity": 0.63,
      "hand": "right"
    },
    {
      "midi": 76,
      "time": 21.333,
      "duration": 0.333,
      "velocity": 0.63,
      "hand": "right"
    },
    {
      "midi": 78,
      "time": 21.667,
      "duration": 0.333,
      "velocity": 0.63,
      "hand": "right"
    },
    {
      "midi": 79,
      "time": 22,
      "duration": 0.667,
      "velocity": 0.63,
      "hand": "right"
    },
    {
      "midi": 67,
      "time": 22.667,
      "duration": 0.667,
      "velocity": 0.63,
      "hand": "right"
    },
    {
      "midi": 67,
      "time": 23.333,
      "duration": 0.667,
      "velocity": 0.63,
      "hand": "right"
    },
    {
      "midi": 72,
      "time": 24,
      "duration": 0.667,
      "velocity": 0.63,
      "hand": "right"
    },
    {
      "midi": 74,
      "time": 24.667,
      "duration": 0.333,
      "velocity": 0.63,
      "hand": "right"
    },
    {
      "midi": 72,
      "time": 25,
      "duration": 0.333,
      "velocity": 0.63,
      "hand": "right"
    },
    {
      "midi": 71,
      "time": 25.333,
      "duration": 0.333,
      "velocity": 0.63,
      "hand": "right"
    },
    {
      "midi": 69,
      "time": 25.667,
      "duration": 0.333,
      "velocity": 0.63,
      "hand": "right"
    },
    {
      "midi": 71,
      "time": 26,
      "duration": 0.667,
      "velocity": 0.63,
      "hand": "right"
    },
    {
      "midi": 72,
      "time": 26.667,
      "duration": 0.333,
      "velocity": 0.63,
      "hand": "right"
    },
    {
      "midi": 71,
      "time": 27,
      "duration": 0.333,
      "velocity": 0.63,
      "hand": "right"
    },
    {
      "midi": 69,
      "time": 27.333,
      "duration": 0.333,
      "velocity": 0.63,
      "hand": "right"
    },
    {
      "midi": 67,
      "time": 27.667,
      "duration": 0.333,
      "velocity": 0.63,
      "hand": "right"
    },
    {
      "midi": 69,
      "time": 28,
      "duration": 0.667,
      "velocity": 0.63,
      "hand": "right"
    },
    {
      "midi": 71,
      "time": 28.667,
      "duration": 0.333,
      "velocity": 0.63,
      "hand": "right"
    },
    {
      "midi": 69,
      "time": 29,
      "duration": 0.333,
      "velocity": 0.63,
      "hand": "right"
    },
    {
      "midi": 67,
      "time": 29.333,
      "duration": 0.333,
      "velocity": 0.63,
      "hand": "right"
    },
    {
      "midi": 66,
      "time": 29.667,
      "duration": 0.333,
      "velocity": 0.63,
      "hand": "right"
    },
    {
      "midi": 67,
      "time": 30,
      "duration": 1.833,
      "velocity": 0.63,
      "hand": "right"
    }
  ]
}
