{
  "id": "minute-waltz-dificil",
  "title": "Minute Waltz Dificil",
  "artist": "MIDI Source",
  "difficulty": "Médio",
  "bpm": 140,
  "duration": 10,
  "category": "A revisar",
  "isPremium": true,
  "coverUrl": "/images/covers/placeholder.png",
  "notes": [
    {
      "midi": 46,
      "time": 0,
      "duration": 0.429,
      "velocity": 0.63,
      "hand": "left"
    },
    {
      "midi": 70,
      "time": 0,
      "duration": 0.107,
      "velocity": 0.71,
      "hand": "right"
    },
    {
      "midi": 69,
      "time": 0.107,
      "duration": 0.107,
      "velocity": 0.71,
      "hand": "right"
    },
    {
      "midi": 68,
      "time": 0.214,
      "duration": 0.107,
      "velocity": 0.71,
      "hand": "right"
    },
    {
      "midi": 69,
      "time": 0.321,
      "duration": 0.107,
      "velocity": 0.71,
      "hand": "right"
    },
    {
      "midi": 58,
      "time": 0.429,
      "duration": 0.214,
      "velocity": 0.59,
      "hand": "left"
    },
    {
      "midi": 61,
      "time": 0.429,
      "duration": 0.214,
      "velocity": 0.59,
      "hand": "left"
    },
    {
      "midi": 70,
      "time": 0.429,
      "duration": 0.107,
      "velocity": 0.71,
      "hand": "right"
    },
    {
      "midi": 72,
      "time": 0.536,
      "duration": 0.107,
      "velocity": 0.71,
      "hand": "right"
    },
    {
      "midi": 73,
      "time": 0.643,
      "duration": 0.107,
      "velocity": 0.71,
      "hand": "right"
    },
    {
      "midi": 75,
      "time": 0.75,
      "duration": 0.107,
      "velocity": 0.71,
      "hand": "right"
    },
    {
      "midi": 58,
      "time": 0.857,
      "duration": 0.214,
      "velocity": 0.59,
      "hand": "left"
    },
    {
      "midi": 61,
      "time": 0.857,
      "duration": 0.214,
      "velocity": 0.59,
      "hand": "left"
    },
    {
      "midi": 76,
      "time": 0.857,
      "duration": 0.107,
      "velocity": 0.71,
      "hand": "right"
    },
    {
      "midi": 70,
      "time": 0.964,
      "duration": 0.107,
      "velocity": 0.71,
      "hand": "right"
    },
    {
      "midi": 69,
      "time": 1.071,
      "duration": 0.107,
      "velocity": 0.71,
      "hand": "right"
    },
    {
      "midi": 68,
      "time": 1.179,
      "duration": 0.107,
      "velocity": 0.71,
      "hand": "right"
    },
    {
      "midi": 46,
      "time": 1.286,
      "duration": 0.429,
      "velocity": 0.63,
      "hand": "left"
    },
    {
      "midi": 69,
      "time": 1.286,
      "duration": 0.107,
      "velocity": 0.71,
      "hand": "right"
    },
    {
      "midi": 70,
      "time": 1.393,
      "duration": 0.107,
      "velocity": 0.71,
      "hand": "right"
    },
    {
      "midi": 72,
      "time": 1.5,
      "duration": 0.107,
      "velocity": 0.71,
      "hand": "right"
    },
    {
      "midi": 73,
      "time": 1.607,
      "duration": 0.107,
      "velocity": 0.71,
      "hand": "right"
    },
    {
      "midi": 58,
      "time": 1.714,
      "duration": 0.214,
      "velocity": 0.59,
      "hand": "left"
    },
    {
      "midi": 61,
      "time": 1.714,
      "duration": 0.214,
      "velocity": 0.59,
      "hand": "left"
    },
    {
      "midi": 75,
      "time": 1.714,
      "duration": 0.107,
      "velocity": 0.71,
      "hand": "right"
    },
    {
      "midi": 76,
      "time": 1.821,
      "duration": 0.107,
      "velocity": 0.71,
      "hand": "right"
    },
    {
      "midi": 70,
      "time": 1.929,
      "duration": 0.107,
      "velocity": 0.71,
      "hand": "right"
    },
    {
      "midi": 69,
      "time": 2.036,
      "duration": 0.107,
      "velocity": 0.71,
      "hand": "right"
    },
    {
      "midi": 58,
      "time": 2.143,
      "duration": 0.214,
      "velocity": 0.59,
      "hand": "left"
    },
    {
      "midi": 61,
      "time": 2.143,
      "duration": 0.214,
      "velocity": 0.59,
      "hand": "left"
    },
    {
      "midi": 68,
      "time": 2.143,
      "duration": 0.107,
      "velocity": 0.71,
      "hand": "right"
    },
    {
      "midi": 69,
      "time": 2.25,
      "duration": 0.107,
      "velocity": 0.71,
      "hand": "right"
    },
    {
      "midi": 70,
      "time": 2.357,
      "duration": 0.107,
      "velocity": 0.71,
      "hand": "right"
    },
    {
      "midi": 72,
      "time": 2.464,
      "duration": 0.107,
      "velocity": 0.71,
      "hand": "right"
    },
    {
      "midi": 46,
      "time": 2.571,
      "duration": 0.429,
      "velocity": 0.63,
      "hand": "left"
    },
    {
      "midi": 73,
      "time": 2.571,
      "duration": 0.107,
      "velocity": 0.71,
      "hand": "right"
    },
    {
      "midi": 75,
      "time": 2.679,
      "duration": 0.107,
      "velocity": 0.71,
      "hand": "right"
    },
    {
      "midi": 76,
      "time": 2.786,
      "duration": 0.107,
      "velocity": 0.71,
      "hand": "right"
    },
    {
      "midi": 70,
      "time": 2.893,
      "duration": 0.107,
      "velocity": 0.71,
      "hand": "right"
    },
    {
      "midi": 58,
      "time": 3,
      "duration": 0.214,
      "velocity": 0.59,
      "hand": "left"
    },
    {
      "midi": 61,
      "time": 3,
      "duration": 0.214,
      "velocity": 0.59,
      "hand": "left"
    },
    {
      "midi": 69,
      "time": 3,
      "duration": 0.107,
      "velocity": 0.71,
      "hand": "right"
    },
    {
      "midi": 68,
      "time": 3.107,
      "duration": 0.107,
      "velocity": 0.71,
      "hand": "right"
    },
    {
      "midi": 69,
      "time": 3.214,
      "duration": 0.107,
      "velocity": 0.71,
      "hand": "right"
    },
    {
      "midi": 70,
      "time": 3.321,
      "duration": 0.107,
      "velocity": 0.71,
      "hand": "right"
    },
    {
      "midi": 58,
      "time": 3.429,
      "duration": 0.214,
      "velocity": 0.59,
      "hand": "left"
    },
    {
      "midi": 61,
      "time": 3.429,
      "duration": 0.214,
      "velocity": 0.59,
      "hand": "left"
    },
    {
      "midi": 72,
      "time": 3.429,
      "duration": 0.107,
      "velocity": 0.71,
      "hand": "right"
    },
    {
      "midi": 73,
      "time": 3.536,
      "duration": 0.107,
      "velocity": 0.71,
      "hand": "right"
    },
    {
      "midi": 75,
      "time": 3.643,
      "duration": 0.107,
      "velocity": 0.71,
      "hand": "right"
    },
    {
      "midi": 76,
      "time": 3.75,
      "duration": 0.107,
      "velocity": 0.71,
      "hand": "right"
    },
    {
      "midi": 46,
      "time": 3.857,
      "duration": 0.429,
      "velocity": 0.63,
      "hand": "left"
    },
    {
      "midi": 58,
      "time": 4.286,
      "duration": 0.214,
      "velocity": 0.59,
      "hand": "left"
    },
    {
      "midi": 61,
      "time": 4.286,
      "duration": 0.214,
      "velocity": 0.59,
      "hand": "left"
    },
    {
      "midi": 58,
      "time": 4.714,
      "duration": 0.214,
      "velocity": 0.59,
      "hand": "left"
    },
    {
      "midi": 61,
      "time": 4.714,
      "duration": 0.214,
      "velocity": 0.59,
      "hand": "left"
    },
    {
      "midi": 46,
      "time": 5.143,
      "duration": 0.429,
      "velocity": 0.63,
      "hand": "left"
    },
    {
      "midi": 58,
      "time": 5.571,
      "duration": 0.214,
      "velocity": 0.59,
      "hand": "left"
    },
    {
      "midi": 61,
      "time": 5.571,
      "duration": 0.214,
      "velocity": 0.59,
      "hand": "left"
    },
    {
      "midi": 58,
      "time": 6,
      "duration": 0.214,
      "velocity": 0.59,
      "hand": "left"
    },
    {
      "midi": 61,
      "time": 6,
      "duration": 0.214,
      "velocity": 0.59,
      "hand": "left"
    },
    {
      "midi": 46,
      "time": 6.429,
      "duration": 0.429,
      "velocity": 0.63,
      "hand": "left"
    },
    {
      "midi": 58,
      "time": 6.857,
      "duration": 0.214,
      "velocity": 0.59,
      "hand": "left"
    },
    {
      "midi": 61,
      "time": 6.857,
      "duration": 0.214,
      "velocity": 0.59,
      "hand": "left"
    },
    {
      "midi": 58,
      "time": 7.286,
      "duration": 0.214,
      "velocity": 0.59,
      "hand": "left"
    },
    {
      "midi": 61,
      "time": 7.286,
      "duration": 0.214,
      "velocity": 0.59,
      "hand": "left"
    },
    {
      "midi": 46,
      "time": 7.714,
      "duration": 0.429,
      "velocity": 0.63,
      "hand": "left"
    },
    {
      "midi": 58,
      "time": 8.143,
      "duration": 0.214,
      "velocity": 0.59,
      "hand": "left"
    },
    {
      "midi": 61,
      "time": 8.143,
      "duration": 0.214,
      "velocity": 0.59,
      "hand": "left"
    },
    {
      "midi": 58,
      "time": 8.571,
      "duration": 0.214,
      "velocity": 0.59,
      "hand": "left"
    },
    {
      "midi": 61,
      "time": 8.571,
      "duration": 0.214,
      "velocity": 0.59,
      "hand": "left"
    },
    {
      "midi": 46,
      "time": 9,
      "duration": 0.429,
      "velocity": 0.63,
      "hand": "left"
    },
    {
      "midi": 58,
      "time": 9.429,
      "duration": 0.214,
      "velocity": 0.59,
      "hand": "left"
    },
    {
      "midi": 61,
      "time": 9.429,
      "duration": 0.214,
      "velocity": 0.59,
      "hand": "left"
    },
    {
      "midi": 58,
      "time": 9.857,
      "duration": 0.214,
      "velocity": 0.59,
      "hand": "left"
    },
    {
      "midi": 61,
      "time": 9.857,
      "duration": 0.214,
      "velocity": 0.59,
      "hand": "left"
    }
  ],
  "arrangements": {
    "easy": [
      {
        "midi": 70,
        "time": 0,
        "duration": 0.143,
        "velocity": 0.71,
        "hand": "right"
      },
      {
        "midi": 69,
        "time": 0.107,
        "duration": 0.143,
        "velocity": 0.71,
        "hand": "right"
      },
      {
        "midi": 68,
        "time": 0.214,
        "duration": 0.143,
        "velocity": 0.71,
        "hand": "right"
      },
      {
        "midi": 69,
        "time": 0.321,
        "duration": 0.143,
        "velocity": 0.71,
        "hand": "right"
      },
      {
        "midi": 70,
        "time": 0.429,
        "duration": 0.143,
        "velocity": 0.71,
        "hand": "right"
      },
      {
        "midi": 72,
        "time": 0.536,
        "duration": 0.143,
        "velocity": 0.71,
        "hand": "right"
      },
      {
        "midi": 73,
        "time": 0.643,
        "duration": 0.143,
        "velocity": 0.71,
        "hand": "right"
      },
      {
        "midi": 75,
        "time": 0.75,
        "duration": 0.143,
        "velocity": 0.71,
        "hand": "right"
      },
      {
        "midi": 76,
        "time": 0.857,
        "duration": 0.143,
        "velocity": 0.71,
        "hand": "right"
      },
      {
        "midi": 70,
        "time": 0.964,
        "duration": 0.143,
        "velocity": 0.71,
        "hand": "right"
      },
      {
        "midi": 69,
        "time": 1.071,
        "duration": 0.143,
        "velocity": 0.71,
        "hand": "right"
      },
      {
        "midi": 68,
        "time": 1.179,
        "duration": 0.143,
        "velocity": 0.71,
        "hand": "right"
      },
      {
        "midi": 69,
        "time": 1.286,
        "duration": 0.143,
        "velocity": 0.71,
        "hand": "right"
      },
      {
        "midi": 70,
        "time": 1.393,
        "duration": 0.143,
        "velocity": 0.71,
        "hand": "right"
      },
      {
        "midi": 72,
        "time": 1.5,
        "duration": 0.143,
        "velocity": 0.71,
        "hand": "right"
      },
      {
        "midi": 73,
        "time": 1.607,
        "duration": 0.143,
        "velocity": 0.71,
        "hand": "right"
      },
      {
        "midi": 75,
        "time": 1.714,
        "duration": 0.143,
        "velocity": 0.71,
        "hand": "right"
      },
      {
        "midi": 76,
        "time": 1.821,
        "duration": 0.143,
        "velocity": 0.71,
        "hand": "right"
      },
      {
        "midi": 70,
        "time": 1.929,
        "duration": 0.143,
        "velocity": 0.71,
        "hand": "right"
      },
      {
        "midi": 69,
        "time": 2.036,
        "duration": 0.143,
        "velocity": 0.71,
        "hand": "right"
      },
      {
        "midi": 68,
        "time": 2.143,
        "duration": 0.143,
        "velocity": 0.71,
        "hand": "right"
      },
      {
        "midi": 69,
        "time": 2.25,
        "duration": 0.143,
        "velocity": 0.71,
        "hand": "right"
      },
      {
        "midi": 70,
        "time": 2.357,
        "duration": 0.143,
        "velocity": 0.71,
        "hand": "right"
      },
      {
        "midi": 72,
        "time": 2.464,
        "duration": 0.143,
        "velocity": 0.71,
        "hand": "right"
      },
      {
        "midi": 73,
        "time": 2.571,
        "duration": 0.143,
        "velocity": 0.71,
        "hand": "right"
      },
      {
        "midi": 75,
        "time": 2.679,
        "duration": 0.143,
        "velocity": 0.71,
        "hand": "right"
      },
      {
        "midi": 76,
        "time": 2.786,
        "duration": 0.143,
        "velocity": 0.71,
        "hand": "right"
      },
      {
        "midi": 70,
        "time": 2.893,
        "duration": 0.143,
        "velocity": 0.71,
        "hand": "right"
      },
      {
        "midi": 69,
        "time": 3,
        "duration": 0.143,
        "velocity": 0.71,
        "hand": "right"
      },
      {
        "midi": 68,
        "time": 3.107,
        "duration": 0.143,
        "velocity": 0.71,
        "hand": "right"
      },
      {
        "midi": 69,
        "time": 3.214,
        "duration": 0.143,
        "velocity": 0.71,
        "hand": "right"
      },
      {
        "midi": 70,
        "time": 3.321,
        "duration": 0.143,
        "velocity": 0.71,
        "hand": "right"
      },
      {
        "midi": 72,
        "time": 3.429,
        "duration": 0.143,
        "velocity": 0.71,
        "hand": "right"
      },
      {
        "midi": 73,
        "time": 3.536,
        "duration": 0.143,
        "velocity": 0.71,
        "hand": "right"
      },
      {
        "midi": 75,
        "time": 3.643,
        "duration": 0.143,
        "velocity": 0.71,
        "hand": "right"
      },
      {
        "midi": 76,
        "time": 3.75,
        "duration": 0.143,
        "velocity": 0.71,
        "hand": "right"
      },
      {
        "midi": 46,
        "time": 3.857,
        "duration": 0.429,
        "velocity": 0.63,
        "hand": "right"
      },
      {
        "midi": 61,
        "time": 4.286,
        "duration": 0.214,
        "velocity": 0.59,
        "hand": "right"
      },
      {
        "midi": 61,
        "time": 4.714,
        "duration": 0.214,
        "velocity": 0.59,
        "hand": "right"
      },
      {
        "midi": 46,
        "time": 5.143,
        "duration": 0.429,
        "velocity": 0.63,
        "hand": "right"
      },
      {
        "midi": 61,
        "time": 5.571,
        "duration": 0.214,
        "velocity": 0.59,
        "hand": "right"
      },
      {
        "midi": 61,
        "time": 6,
        "duration": 0.214,
        "velocity": 0.59,
        "hand": "right"
      },
      {
        "midi": 46,
        "time": 6.429,
        "duration": 0.429,
        "velocity": 0.63,
        "hand": "right"
      },
      {
        "midi": 61,
        "time": 6.857,
        "duration": 0.214,
        "velocity": 0.59,
        "hand": "right"
      },
      {
        "midi": 61,
        "time": 7.286,
        "duration": 0.214,
        "velocity": 0.59,
        "hand": "right"
      },
      {
        "midi": 46,
        "time": 7.714,
        "duration": 0.429,
        "velocity": 0.63,
        "hand": "right"
      },
      {
        "midi": 61,
        "time": 8.143,
        "duration": 0.214,
        "velocity": 0.59,
        "hand": "right"
      },
      {
        "midi": 61,
        "time": 8.571,
        "duration": 0.214,
        "velocity": 0.59,
        "hand": "right"
      },
      {
        "midi": 46,
        "time": 9,
        "duration": 0.429,
        "velocity": 0.63,
        "hand": "right"
      },
      {
        "midi": 61,
        "time": 9.429,
        "duration": 0.214,
        "velocity": 0.59,
        "hand": "right"
      },
      {
        "midi": 61,
        "time": 9.857,
        "duration": 0.214,
        "velocity": 0.59,
        "hand": "right"
      }
    ],
    "medium": [
      {
        "midi": 46,
        "time": 0,
        "duration": 0.429,
        "velocity": 0.63,
        "hand": "left"
      },
      {
        "midi": 70,
        "time": 0,
        "duration": 0.107,
        "velocity": 0.71,
        "hand": "right"
      },
      {
        "midi": 69,
        "time": 0.107,
        "duration": 0.107,
        "velocity": 0.71,
        "hand": "right"
      },
      {
        "midi": 68,
        "time": 0.214,
        "duration": 0.107,
        "velocity": 0.71,
        "hand": "right"
      },
      {
        "midi": 69,
        "time": 0.321,
        "duration": 0.107,
        "velocity": 0.71,
        "hand": "right"
      },
      {
        "midi": 58,
        "time": 0.429,
        "duration": 0.214,
        "velocity": 0.59,
        "hand": "left"
      },
      {
        "midi": 61,
        "time": 0.429,
        "duration": 0.214,
        "velocity": 0.59,
        "hand": "left"
      },
      {
        "midi": 70,
        "time": 0.429,
        "duration": 0.107,
        "velocity": 0.71,
        "hand": "right"
      },
      {
        "midi": 72,
        "time": 0.536,
        "duration": 0.107,
        "velocity": 0.71,
        "hand": "right"
      },
      {
        "midi": 73,
        "time": 0.643,
        "duration": 0.107,
        "velocity": 0.71,
        "hand": "right"
      },
      {
        "midi": 75,
        "time": 0.75,
        "duration": 0.107,
        "velocity": 0.71,
        "hand": "right"
      },
      {
        "midi": 58,
        "time": 0.857,
        "duration": 0.214,
        "velocity": 0.59,
        "hand": "left"
      },
      {
        "midi": 61,
        "time": 0.857,
        "duration": 0.214,
        "velocity": 0.59,
        "hand": "left"
      },
      {
        "midi": 76,
        "time": 0.857,
        "duration": 0.107,
        "velocity": 0.71,
        "hand": "right"
      },
      {
        "midi": 70,
        "time": 0.964,
        "duration": 0.107,
        "velocity": 0.71,
        "hand": "right"
      },
      {
        "midi": 69,
        "time": 1.071,
        "duration": 0.107,
        "velocity": 0.71,
        "hand": "right"
      },
      {
        "midi": 68,
        "time": 1.179,
        "duration": 0.107,
        "velocity": 0.71,
        "hand": "right"
      },
      {
        "midi": 46,
        "time": 1.286,
        "duration": 0.429,
        "velocity": 0.63,
        "hand": "left"
      },
      {
        "midi": 69,
        "time": 1.286,
        "duration": 0.107,
        "velocity": 0.71,
        "hand": "right"
      },
      {
        "midi": 70,
        "time": 1.393,
        "duration": 0.107,
        "velocity": 0.71,
        "hand": "right"
      },
      {
        "midi": 72,
        "time": 1.5,
        "duration": 0.107,
        "velocity": 0.71,
        "hand": "right"
      },
      {
        "midi": 73,
        "time": 1.607,
        "duration": 0.107,
        "velocity": 0.71,
        "hand": "right"
      },
      {
        "midi": 58,
        "time": 1.714,
        "duration": 0.214,
        "velocity": 0.59,
        "hand": "left"
      },
      {
        "midi": 61,
        "time": 1.714,
        "duration": 0.214,
        "velocity": 0.59,
        "hand": "left"
      },
      {
        "midi": 75,
        "time": 1.714,
        "duration": 0.107,
        "velocity": 0.71,
        "hand": "right"
      },
      {
        "midi": 76,
        "time": 1.821,
        "duration": 0.107,
        "velocity": 0.71,
        "hand": "right"
      },
      {
        "midi": 70,
        "time": 1.929,
        "duration": 0.107,
        "velocity": 0.71,
        "hand": "right"
      },
      {
        "midi": 69,
        "time": 2.036,
        "duration": 0.107,
        "velocity": 0.71,
        "hand": "right"
      },
      {
        "midi": 58,
        "time": 2.143,
        "duration": 0.214,
        "velocity": 0.59,
        "hand": "left"
      },
      {
        "midi": 61,
        "time": 2.143,
        "duration": 0.214,
        "velocity": 0.59,
        "hand": "left"
      },
      {
        "midi": 68,
        "time": 2.143,
        "duration": 0.107,
        "velocity": 0.71,
        "hand": "right"
      },
      {
        "midi": 69,
        "time": 2.25,
        "duration": 0.107,
        "velocity": 0.71,
        "hand": "right"
      },
      {
        "midi": 70,
        "time": 2.357,
        "duration": 0.107,
        "velocity": 0.71,
        "hand": "right"
      },
      {
        "midi": 72,
        "time": 2.464,
        "duration": 0.107,
        "velocity": 0.71,
        "hand": "right"
      },
      {
        "midi": 46,
        "time": 2.571,
        "duration": 0.429,
        "velocity": 0.63,
        "hand": "left"
      },
      {
        "midi": 73,
        "time": 2.571,
        "duration": 0.107,
        "velocity": 0.71,
        "hand": "right"
      },
      {
        "midi": 75,
        "time": 2.679,
        "duration": 0.107,
        "velocity": 0.71,
        "hand": "right"
      },
      {
        "midi": 76,
        "time": 2.786,
        "duration": 0.107,
        "velocity": 0.71,
        "hand": "right"
      },
      {
        "midi": 70,
        "time": 2.893,
        "duration": 0.107,
        "velocity": 0.71,
        "hand": "right"
      },
      {
        "midi": 58,
        "time": 3,
        "duration": 0.214,
        "velocity": 0.59,
        "hand": "left"
      },
      {
        "midi": 61,
        "time": 3,
        "duration": 0.214,
        "velocity": 0.59,
        "hand": "left"
      },
      {
        "midi": 69,
        "time": 3,
        "duration": 0.107,
        "velocity": 0.71,
        "hand": "right"
      },
      {
        "midi": 68,
        "time": 3.107,
        "duration": 0.107,
        "velocity": 0.71,
        "hand": "right"
      },
      {
        "midi": 69,
        "time": 3.214,
        "duration": 0.107,
        "velocity": 0.71,
        "hand": "right"
      },
      {
        "midi": 70,
        "time": 3.321,
        "duration": 0.107,
        "velocity": 0.71,
        "hand": "right"
      },
      {
        "midi": 58,
        "time": 3.429,
        "duration": 0.214,
        "velocity": 0.59,
        "hand": "left"
      },
      {
        "midi": 61,
        "time": 3.429,
        "duration": 0.214,
        "velocity": 0.59,
        "hand": "left"
      },
      {
        "midi": 72,
        "time": 3.429,
        "duration": 0.107,
        "velocity": 0.71,
        "hand": "right"
      },
      {
        "midi": 73,
        "time": 3.536,
        "duration": 0.107,
        "velocity": 0.71,
        "hand": "right"
      },
      {
        "midi": 75,
        "time": 3.643,
        "duration": 0.107,
        "velocity": 0.71,
        "hand": "right"
      },
      {
        "midi": 76,
        "time": 3.75,
        "duration": 0.107,
        "velocity": 0.71,
        "hand": "right"
      },
      {
        "midi": 46,
        "time": 3.857,
        "duration": 0.429,
        "velocity": 0.63,
        "hand": "left"
      },
      {
        "midi": 58,
        "time": 4.286,
        "duration": 0.214,
        "velocity": 0.59,
        "hand": "left"
      },
      {
        "midi": 61,
        "time": 4.286,
        "duration": 0.214,
        "velocity": 0.59,
        "hand": "left"
      },
      {
        "midi": 58,
        "time": 4.714,
        "duration": 0.214,
        "velocity": 0.59,
        "hand": "left"
      },
      {
        "midi": 61,
        "time": 4.714,
        "duration": 0.214,
        "velocity": 0.59,
        "hand": "left"
      },
      {
        "midi": 46,
        "time": 5.143,
        "duration": 0.429,
        "velocity": 0.63,
        "hand": "left"
      },
      {
        "midi": 58,
        "time": 5.571,
        "duration": 0.214,
        "velocity": 0.59,
        "hand": "left"
      },
      {
        "midi": 61,
        "time": 5.571,
        "duration": 0.214,
        "velocity": 0.59,
        "hand": "left"
      },
      {
        "midi": 58,
        "time": 6,
        "duration": 0.214,
        "velocity": 0.59,
        "hand": "left"
      },
      {
        "midi": 61,
        "time": 6,
        "duration": 0.214,
        "velocity": 0.59,
        "hand": "left"
      },
      {
        "midi": 46,
        "time": 6.429,
        "duration": 0.429,
        "velocity": 0.63,
        "hand": "left"
      },
      {
        "midi": 58,
        "time": 6.857,
        "duration": 0.214,
        "velocity": 0.59,
        "hand": "left"
      },
      {
        "midi": 61,
        "time": 6.857,
        "duration": 0.214,
        "velocity": 0.59,
        "hand": "left"
      },
      {
        "midi": 58,
        "time": 7.286,
        "duration": 0.214,
        "velocity": 0.59,
        "hand": "left"
      },
      {
        "midi": 61,
        "time": 7.286,
        "duration": 0.214,
        "velocity": 0.59,
        "hand": "left"
      },
      {
        "midi": 46,
        "time": 7.714,
        "duration": 0.429,
        "velocity": 0.63,
        "hand": "left"
      },
      {
        "midi": 58,
        "time": 8.143,
        "duration": 0.214,
        "velocity": 0.59,
        "hand": "left"
      },
      {
        "midi": 61,
        "time": 8.143,
        "duration": 0.214,
        "velocity": 0.59,
        "hand": "left"
      },
      {
        "midi": 58,
        "time": 8.571,
        "duration": 0.214,
        "velocity": 0.59,
        "hand": "left"
      },
      {
        "midi": 61,
        "time": 8.571,
        "duration": 0.214,
        "velocity": 0.59,
        "hand": "left"
      },
      {
        "midi": 46,
        "time": 9,
        "duration": 0.429,
        "velocity": 0.63,
        "hand": "left"
      },
      {
        "midi": 58,
        "time": 9.429,
        "duration": 0.214,
        "velocity": 0.59,
        "hand": "left"
      },
      {
        "midi": 61,
        "time": 9.429,
        "duration": 0.214,
        "velocity": 0.59,
        "hand": "left"
      },
      {
        "midi": 58,
        "time": 9.857,
        "duration": 0.214,
        "velocity": 0.59,
        "hand": "left"
      },
      {
        "midi": 61,
        "time": 9.857,
        "duration": 0.214,
        "velocity": 0.59,
        "hand": "left"
      }
    ],
    "hard": [
      {
        "midi": 46,
        "time": 0,
        "duration": 0.429,
        "velocity": 0.63,
        "hand": "left"
      },
      {
        "midi": 70,
        "time": 0,
        "duration": 0.107,
        "velocity": 0.71,
        "hand": "right"
      },
      {
        "midi": 69,
        "time": 0.107,
        "duration": 0.107,
        "velocity": 0.71,
        "hand": "right"
      },
      {
        "midi": 68,
        "time": 0.214,
        "duration": 0.107,
        "velocity": 0.71,
        "hand": "right"
      },
      {
        "midi": 69,
        "time": 0.321,
        "duration": 0.107,
        "velocity": 0.71,
        "hand": "right"
      },
      {
        "midi": 58,
        "time": 0.429,
        "duration": 0.214,
        "velocity": 0.59,
        "hand": "left"
      },
      {
        "midi": 61,
        "time": 0.429,
        "duration": 0.214,
        "velocity": 0.59,
        "hand": "left"
      },
      {
        "midi": 70,
        "time": 0.429,
        "duration": 0.107,
        "velocity": 0.71,
        "hand": "right"
      },
      {
        "midi": 72,
        "time": 0.536,
        "duration": 0.107,
        "velocity": 0.71,
        "hand": "right"
      },
      {
        "midi": 73,
        "time": 0.643,
        "duration": 0.107,
        "velocity": 0.71,
        "hand": "right"
      },
      {
        "midi": 75,
        "time": 0.75,
        "duration": 0.107,
        "velocity": 0.71,
        "hand": "right"
      },
      {
        "midi": 58,
        "time": 0.857,
        "duration": 0.214,
        "velocity": 0.59,
        "hand": "left"
      },
      {
        "midi": 61,
        "time": 0.857,
        "duration": 0.214,
        "velocity": 0.59,
        "hand": "left"
      },
      {
        "midi": 76,
        "time": 0.857,
        "duration": 0.107,
        "velocity": 0.71,
        "hand": "right"
      },
      {
        "midi": 70,
        "time": 0.964,
        "duration": 0.107,
        "velocity": 0.71,
        "hand": "right"
      },
      {
        "midi": 69,
        "time": 1.071,
        "duration": 0.107,
        "velocity": 0.71,
        "hand": "right"
      },
      {
        "midi": 68,
        "time": 1.179,
        "duration": 0.107,
        "velocity": 0.71,
        "hand": "right"
      },
      {
        "midi": 46,
        "time": 1.286,
        "duration": 0.429,
        "velocity": 0.63,
        "hand": "left"
      },
      {
        "midi": 69,
        "time": 1.286,
        "duration": 0.107,
        "velocity": 0.71,
        "hand": "right"
      },
      {
        "midi": 70,
        "time": 1.393,
        "duration": 0.107,
        "velocity": 0.71,
        "hand": "right"
      },
      {
        "midi": 72,
        "time": 1.5,
        "duration": 0.107,
        "velocity": 0.71,
        "hand": "right"
      },
      {
        "midi": 73,
        "time": 1.607,
        "duration": 0.107,
        "velocity": 0.71,
        "hand": "right"
      },
      {
        "midi": 58,
        "time": 1.714,
        "duration": 0.214,
        "velocity": 0.59,
        "hand": "left"
      },
      {
        "midi": 61,
        "time": 1.714,
        "duration": 0.214,
        "velocity": 0.59,
        "hand": "left"
      },
      {
        "midi": 75,
        "time": 1.714,
        "duration": 0.107,
        "velocity": 0.71,
        "hand": "right"
      },
      {
        "midi": 76,
        "time": 1.821,
        "duration": 0.107,
        "velocity": 0.71,
        "hand": "right"
      },
      {
        "midi": 70,
        "time": 1.929,
        "duration": 0.107,
        "velocity": 0.71,
        "hand": "right"
      },
      {
        "midi": 69,
        "time": 2.036,
        "duration": 0.107,
        "velocity": 0.71,
        "hand": "right"
      },
      {
        "midi": 58,
        "time": 2.143,
        "duration": 0.214,
        "velocity": 0.59,
        "hand": "left"
      },
      {
        "midi": 61,
        "time": 2.143,
        "duration": 0.214,
        "velocity": 0.59,
        "hand": "left"
      },
      {
        "midi": 68,
        "time": 2.143,
        "duration": 0.107,
        "velocity": 0.71,
        "hand": "right"
      },
      {
        "midi": 69,
        "time": 2.25,
        "duration": 0.107,
        "velocity": 0.71,
        "hand": "right"
      },
      {
        "midi": 70,
        "time": 2.357,
        "duration": 0.107,
        "velocity": 0.71,
        "hand": "right"
      },
      {
        "midi": 72,
        "time": 2.464,
        "duration": 0.107,
        "velocity": 0.71,
        "hand": "right"
      },
      {
        "midi": 46,
        "time": 2.571,
        "duration": 0.429,
        "velocity": 0.63,
        "hand": "left"
      },
      {
        "midi": 73,
        "time": 2.571,
        "duration": 0.107,
        "velocity": 0.71,
        "hand": "right"
      },
      {
        "midi": 75,
        "time": 2.679,
        "duration": 0.107,
        "velocity": 0.71,
        "hand": "right"
      },
      {
        "midi": 76,
        "time": 2.786,
        "duration": 0.107,
        "velocity": 0.71,
        "hand": "right"
      },
      {
        "midi": 70,
        "time": 2.893,
        "duration": 0.107,
        "velocity": 0.71,
        "hand": "right"
      },
      {
        "midi": 58,
        "time": 3,
        "duration": 0.214,
        "velocity": 0.59,
        "hand": "left"
      },
      {
        "midi": 61,
        "time": 3,
        "duration": 0.214,
        "velocity": 0.59,
        "hand": "left"
      },
      {
        "midi": 69,
        "time": 3,
        "duration": 0.107,
        "velocity": 0.71,
        "hand": "right"
      },
      {
        "midi": 68,
        "time": 3.107,
        "duration": 0.107,
        "velocity": 0.71,
        "hand": "right"
      },
      {
        "midi": 69,
        "time": 3.214,
        "duration": 0.107,
        "velocity": 0.71,
        "hand": "right"
      },
      {
        "midi": 70,
        "time": 3.321,
        "duration": 0.107,
        "velocity": 0.71,
        "hand": "right"
      },
      {
        "midi": 58,
        "time": 3.429,
        "duration": 0.214,
        "velocity": 0.59,
        "hand": "left"
      },
      {
        "midi": 61,
        "time": 3.429,
        "duration": 0.214,
        "velocity": 0.59,
        "hand": "left"
      },
      {
        "midi": 72,
        "time": 3.429,
        "duration": 0.107,
        "velocity": 0.71,
        "hand": "right"
      },
      {
        "midi": 73,
        "time": 3.536,
        "duration": 0.107,
        "velocity": 0.71,
        "hand": "right"
      },
      {
        "midi": 75,
        "time": 3.643,
        "duration": 0.107,
        "velocity": 0.71,
        "hand": "right"
      },
      {
        "midi": 76,
        "time": 3.75,
        "duration": 0.107,
        "velocity": 0.71,
        "hand": "right"
      },
      {
        "midi": 46,
        "time": 3.857,
        "duration": 0.429,
        "velocity": 0.63,
        "hand": "left"
      },
      {
        "midi": 58,
        "time": 4.286,
        "duration": 0.214,
        "velocity": 0.59,
        "hand": "left"
      },
      {
        "midi": 61,
        "time": 4.286,
        "duration": 0.214,
        "velocity": 0.59,
        "hand": "left"
      },
      {
        "midi": 58,
        "time": 4.714,
        "duration": 0.214,
        "velocity": 0.59,
        "hand": "left"
      },
      {
        "midi": 61,
        "time": 4.714,
        "duration": 0.214,
        "velocity": 0.59,
        "hand": "left"
      },
      {
        "midi": 46,
        "time": 5.143,
        "duration": 0.429,
        "velocity": 0.63,
        "hand": "left"
      },
      {
        "midi": 58,
        "time": 5.571,
        "duration": 0.214,
        "velocity": 0.59,
        "hand": "left"
      },
      {
        "midi": 61,
        "time": 5.571,
        "duration": 0.214,
        "velocity": 0.59,
        "hand": "left"
      },
      {
        "midi": 58,
        "time": 6,
        "duration": 0.214,
        "velocity": 0.59,
        "hand": "left"
      },
      {
        "midi": 61,
        "time": 6,
        "duration": 0.214,
        "velocity": 0.59,
        "hand": "left"
      },
      {
        "midi": 46,
        "time": 6.429,
        "duration": 0.429,
        "velocity": 0.63,
        "hand": "left"
      },
      {
        "midi": 58,
        "time": 6.857,
        "duration": 0.214,
        "velocity": 0.59,
        "hand": "left"
      },
      {
        "midi": 61,
        "time": 6.857,
        "duration": 0.214,
        "velocity": 0.59,
        "hand": "left"
      },
      {
        "midi": 58,
        "time": 7.286,
        "duration": 0.214,
        "velocity": 0.59,
        "hand": "left"
      },
      {
        "midi": 61,
        "time": 7.286,
        "duration": 0.214,
        "velocity": 0.59,
        "hand": "left"
      },
      {
        "midi": 46,
        "time": 7.714,
        "duration": 0.429,
        "velocity": 0.63,
        "hand": "left"
      },
      {
        "midi": 58,
        "time": 8.143,
        "duration": 0.214,
        "velocity": 0.59,
        "hand": "left"
      },
      {
        "midi": 61,
        "time": 8.143,
        "duration": 0.214,
        "velocity": 0.59,
        "hand": "left"
      },
      {
        "midi": 58,
        "time": 8.571,
        "duration": 0.214,
        "velocity": 0.59,
        "hand": "left"
      },
      {
        "midi": 61,
        "time": 8.571,
        "duration": 0.214,
        "velocity": 0.59,
        "hand": "left"
      },
      {
        "midi": 46,
        "time": 9,
        "duration": 0.429,
        "velocity": 0.63,
        "hand": "left"
      },
      {
        "midi": 58,
        "time": 9.429,
        "duration": 0.214,
        "velocity": 0.59,
        "hand": "left"
      },
      {
        "midi": 61,
        "time": 9.429,
        "duration": 0.214,
        "velocity": 0.59,
        "hand": "left"
      },
      {
        "midi": 58,
        "time": 9.857,
        "duration": 0.214,
        "velocity": 0.59,
        "hand": "left"
      },
      {
        "midi": 61,
        "time": 9.857,
        "duration": 0.214,
        "velocity": 0.59,
        "hand": "left"
      }
    ]
  },
  "notes1Hand": [
    {
      "midi": 70,
      "time": 0,
      "duration": 0.143,
      "velocity": 0.71,
      "hand": "right"
    },
    {
      "midi": 69,
      "time": 0.107,
      "duration": 0.143,
      "velocity": 0.71,
      "hand": "right"
    },
    {
      "midi": 68,
      "time": 0.214,
      "duration": 0.143,
      "velocity": 0.71,
      "hand": "right"
    },
    {
      "midi": 69,
      "time": 0.321,
      "duration": 0.143,
      "velocity": 0.71,
      "hand": "right"
    },
    {
      "midi": 70,
      "time": 0.429,
      "duration": 0.143,
      "velocity": 0.71,
      "hand": "right"
    },
    {
      "midi": 72,
      "time": 0.536,
      "duration": 0.143,
      "velocity": 0.71,
      "hand": "right"
    },
    {
      "midi": 73,
      "time": 0.643,
      "duration": 0.143,
      "velocity": 0.71,
      "hand": "right"
    },
    {
      "midi": 75,
      "time": 0.75,
      "duration": 0.143,
      "velocity": 0.71,
      "hand": "right"
    },
    {
      "midi": 76,
      "time": 0.857,
      "duration": 0.143,
      "velocity": 0.71,
      "hand": "right"
    },
    {
      "midi": 70,
      "time": 0.964,
      "duration": 0.143,
      "velocity": 0.71,
      "hand": "right"
    },
    {
      "midi": 69,
      "time": 1.071,
      "duration": 0.143,
      "velocity": 0.71,
      "hand": "right"
    },
    {
      "midi": 68,
      "time": 1.179,
      "duration": 0.143,
      "velocity": 0.71,
      "hand": "right"
    },
    {
      "midi": 69,
      "time": 1.286,
      "duration": 0.143,
      "velocity": 0.71,
      "hand": "right"
    },
    {
      "midi": 70,
      "time": 1.393,
      "duration": 0.143,
      "velocity": 0.71,
      "hand": "right"
    },
    {
      "midi": 72,
      "time": 1.5,
      "duration": 0.143,
      "velocity": 0.71,
      "hand": "right"
    },
    {
      "midi": 73,
      "time": 1.607,
      "duration": 0.143,
      "velocity": 0.71,
      "hand": "right"
    },
    {
      "midi": 75,
      "time": 1.714,
      "duration": 0.143,
      "velocity": 0.71,
      "hand": "right"
    },
    {
      "midi": 76,
      "time": 1.821,
      "duration": 0.143,
      "velocity": 0.71,
      "hand": "right"
    },
    {
      "midi": 70,
      "time": 1.929,
      "duration": 0.143,
      "velocity": 0.71,
      "hand": "right"
    },
    {
      "midi": 69,
      "time": 2.036,
      "duration": 0.143,
      "velocity": 0.71,
      "hand": "right"
    },
    {
      "midi": 68,
      "time": 2.143,
      "duration": 0.143,
      "velocity": 0.71,
      "hand": "right"
    },
    {
      "midi": 69,
      "time": 2.25,
      "duration": 0.143,
      "velocity": 0.71,
      "hand": "right"
    },
    {
      "midi": 70,
      "time": 2.357,
      "duration": 0.143,
      "velocity": 0.71,
      "hand": "right"
    },
    {
      "midi": 72,
      "time": 2.464,
      "duration": 0.143,
      "velocity": 0.71,
      "hand": "right"
    },
    {
      "midi": 73,
      "time": 2.571,
      "duration": 0.143,
      "velocity": 0.71,
      "hand": "right"
    },
    {
      "midi": 75,
      "time": 2.679,
      "duration": 0.143,
      "velocity": 0.71,
      "hand": "right"
    },
    {
      "midi": 76,
      "time": 2.786,
      "duration": 0.143,
      "velocity": 0.71,
      "hand": "right"
    },
    {
      "midi": 70,
      "time": 2.893,
      "duration": 0.143,
      "velocity": 0.71,
      "hand": "right"
    },
    {
      "midi": 69,
      "time": 3,
      "duration": 0.143,
      "velocity": 0.71,
      "hand": "right"
    },
    {
      "midi": 68,
      "time": 3.107,
      "duration": 0.143,
      "velocity": 0.71,
      "hand": "right"
    },
    {
      "midi": 69,
      "time": 3.214,
      "duration": 0.143,
      "velocity": 0.71,
      "hand": "right"
    },
    {
      "midi": 70,
      "time": 3.321,
      "duration": 0.143,
      "velocity": 0.71,
      "hand": "right"
    },
    {
      "midi": 72,
      "time": 3.429,
      "duration": 0.143,
      "velocity": 0.71,
      "hand": "right"
    },
    {
      "midi": 73,
      "time": 3.536,
      "duration": 0.143,
      "velocity": 0.71,
      "hand": "right"
    },
    {
      "midi": 75,
      "time": 3.643,
      "duration": 0.143,
      "velocity": 0.71,
      "hand": "right"
    },
    {
      "midi": 76,
      "time": 3.75,
      "duration": 0.143,
      "velocity": 0.71,
      "hand": "right"
    },
    {
      "midi": 46,
      "time": 3.857,
      "duration": 0.429,
      "velocity": 0.63,
      "hand": "right"
    },
    {
      "midi": 61,
      "time": 4.286,
      "duration": 0.214,
      "velocity": 0.59,
      "hand": "right"
    },
    {
      "midi": 61,
      "time": 4.714,
      "duration": 0.214,
      "velocity": 0.59,
      "hand": "right"
    },
    {
      "midi": 46,
      "time": 5.143,
      "duration": 0.429,
      "velocity": 0.63,
      "hand": "right"
    },
    {
      "midi": 61,
      "time": 5.571,
      "duration": 0.214,
      "velocity": 0.59,
      "hand": "right"
    },
    {
      "midi": 61,
      "time": 6,
      "duration": 0.214,
      "velocity": 0.59,
      "hand": "right"
    },
    {
      "midi": 46,
      "time": 6.429,
      "duration": 0.429,
      "velocity": 0.63,
      "hand": "right"
    },
    {
      "midi": 61,
      "time": 6.857,
      "duration": 0.214,
      "velocity": 0.59,
      "hand": "right"
    },
    {
      "midi": 61,
      "time": 7.286,
      "duration": 0.214,
      "velocity": 0.59,
      "hand": "right"
    },
    {
      "midi": 46,
      "time": 7.714,
      "duration": 0.429,
      "velocity": 0.63,
      "hand": "right"
    },
    {
      "midi": 61,
      "time": 8.143,
      "duration": 0.214,
      "velocity": 0.59,
      "hand": "right"
    },
    {
      "midi": 61,
      "time": 8.571,
      "duration": 0.214,
      "velocity": 0.59,
      "hand": "right"
    },
    {
      "midi": 46,
      "time": 9,
      "duration": 0.429,
      "velocity": 0.63,
      "hand": "right"
    },
    {
      "midi": 61,
      "time": 9.429,
      "duration": 0.214,
      "velocity": 0.59,
      "hand": "right"
    },
    {
      "midi": 61,
      "time": 9.857,
      "duration": 0.214,
      "velocity": 0.59,
      "hand": "right"
    }
  ],
  "notes2Hands": [
    {
      "midi": 46,
      "time": 0,
      "duration": 0.429,
      "velocity": 0.63,
      "hand": "left"
    },
    {
      "midi": 70,
      "time": 0,
      "duration": 0.107,
      "velocity": 0.71,
      "hand": "right"
    },
    {
      "midi": 69,
      "time": 0.107,
      "duration": 0.107,
      "velocity": 0.71,
      "hand": "right"
    },
    {
      "midi": 68,
      "time": 0.214,
      "duration": 0.107,
      "velocity": 0.71,
      "hand": "right"
    },
    {
      "midi": 69,
      "time": 0.321,
      "duration": 0.107,
      "velocity": 0.71,
      "hand": "right"
    },
    {
      "midi": 58,
      "time": 0.429,
      "duration": 0.214,
      "velocity": 0.59,
      "hand": "left"
    },
    {
      "midi": 61,
      "time": 0.429,
      "duration": 0.214,
      "velocity": 0.59,
      "hand": "left"
    },
    {
      "midi": 70,
      "time": 0.429,
      "duration": 0.107,
      "velocity": 0.71,
      "hand": "right"
    },
    {
      "midi": 72,
      "time": 0.536,
      "duration": 0.107,
      "velocity": 0.71,
      "hand": "right"
    },
    {
      "midi": 73,
      "time": 0.643,
      "duration": 0.107,
      "velocity": 0.71,
      "hand": "right"
    },
    {
      "midi": 75,
      "time": 0.75,
      "duration": 0.107,
      "velocity": 0.71,
      "hand": "right"
    },
    {
      "midi": 58,
      "time": 0.857,
      "duration": 0.214,
      "velocity": 0.59,
      "hand": "left"
    },
    {
      "midi": 61,
      "time": 0.857,
      "duration": 0.214,
      "velocity": 0.59,
      "hand": "left"
    },
    {
      "midi": 76,
      "time": 0.857,
      "duration": 0.107,
      "velocity": 0.71,
      "hand": "right"
    },
    {
      "midi": 70,
      "time": 0.964,
      "duration": 0.107,
      "velocity": 0.71,
      "hand": "right"
    },
    {
      "midi": 69,
      "time": 1.071,
      "duration": 0.107,
      "velocity": 0.71,
      "hand": "right"
    },
    {
      "midi": 68,
      "time": 1.179,
      "duration": 0.107,
      "velocity": 0.71,
      "hand": "right"
    },
    {
      "midi": 46,
      "time": 1.286,
      "duration": 0.429,
      "velocity": 0.63,
      "hand": "left"
    },
    {
      "midi": 69,
      "time": 1.286,
      "duration": 0.107,
      "velocity": 0.71,
      "hand": "right"
    },
    {
      "midi": 70,
      "time": 1.393,
      "duration": 0.107,
      "velocity": 0.71,
      "hand": "right"
    },
    {
      "midi": 72,
      "time": 1.5,
      "duration": 0.107,
      "velocity": 0.71,
      "hand": "right"
    },
    {
      "midi": 73,
      "time": 1.607,
      "duration": 0.107,
      "velocity": 0.71,
      "hand": "right"
    },
    {
      "midi": 58,
      "time": 1.714,
      "duration": 0.214,
      "velocity": 0.59,
      "hand": "left"
    },
    {
      "midi": 61,
      "time": 1.714,
      "duration": 0.214,
      "velocity": 0.59,
      "hand": "left"
    },
    {
      "midi": 75,
      "time": 1.714,
      "duration": 0.107,
      "velocity": 0.71,
      "hand": "right"
    },
    {
      "midi": 76,
      "time": 1.821,
      "duration": 0.107,
      "velocity": 0.71,
      "hand": "right"
    },
    {
      "midi": 70,
      "time": 1.929,
      "duration": 0.107,
      "velocity": 0.71,
      "hand": "right"
    },
    {
      "midi": 69,
      "time": 2.036,
      "duration": 0.107,
      "velocity": 0.71,
      "hand": "right"
    },
    {
      "midi": 58,
      "time": 2.143,
      "duration": 0.214,
      "velocity": 0.59,
      "hand": "left"
    },
    {
      "midi": 61,
      "time": 2.143,
      "duration": 0.214,
      "velocity": 0.59,
      "hand": "left"
    },
    {
      "midi": 68,
      "time": 2.143,
      "duration": 0.107,
      "velocity": 0.71,
      "hand": "right"
    },
    {
      "midi": 69,
      "time": 2.25,
      "duration": 0.107,
      "velocity": 0.71,
      "hand": "right"
    },
    {
      "midi": 70,
      "time": 2.357,
      "duration": 0.107,
      "velocity": 0.71,
      "hand": "right"
    },
    {
      "midi": 72,
      "time": 2.464,
      "duration": 0.107,
      "velocity": 0.71,
      "hand": "right"
    },
    {
      "midi": 46,
      "time": 2.571,
      "duration": 0.429,
      "velocity": 0.63,
      "hand": "left"
    },
    {
      "midi": 73,
      "time": 2.571,
      "duration": 0.107,
      "velocity": 0.71,
      "hand": "right"
    },
    {
      "midi": 75,
      "time": 2.679,
      "duration": 0.107,
      "velocity": 0.71,
      "hand": "right"
    },
    {
      "midi": 76,
      "time": 2.786,
      "duration": 0.107,
      "velocity": 0.71,
      "hand": "right"
    },
    {
      "midi": 70,
      "time": 2.893,
      "duration": 0.107,
      "velocity": 0.71,
      "hand": "right"
    },
    {
      "midi": 58,
      "time": 3,
      "duration": 0.214,
      "velocity": 0.59,
      "hand": "left"
    },
    {
      "midi": 61,
      "time": 3,
      "duration": 0.214,
      "velocity": 0.59,
      "hand": "left"
    },
    {
      "midi": 69,
      "time": 3,
      "duration": 0.107,
      "velocity": 0.71,
      "hand": "right"
    },
    {
      "midi": 68,
      "time": 3.107,
      "duration": 0.107,
      "velocity": 0.71,
      "hand": "right"
    },
    {
      "midi": 69,
      "time": 3.214,
      "duration": 0.107,
      "velocity": 0.71,
      "hand": "right"
    },
    {
      "midi": 70,
      "time": 3.321,
      "duration": 0.107,
      "velocity": 0.71,
      "hand": "right"
    },
    {
      "midi": 58,
      "time": 3.429,
      "duration": 0.214,
      "velocity": 0.59,
      "hand": "left"
    },
    {
      "midi": 61,
      "time": 3.429,
      "duration": 0.214,
      "velocity": 0.59,
      "hand": "left"
    },
    {
      "midi": 72,
      "time": 3.429,
      "duration": 0.107,
      "velocity": 0.71,
      "hand": "right"
    },
    {
      "midi": 73,
      "time": 3.536,
      "duration": 0.107,
      "velocity": 0.71,
      "hand": "right"
    },
    {
      "midi": 75,
      "time": 3.643,
      "duration": 0.107,
      "velocity": 0.71,
      "hand": "right"
    },
    {
      "midi": 76,
      "time": 3.75,
      "duration": 0.107,
      "velocity": 0.71,
      "hand": "right"
    },
    {
      "midi": 46,
      "time": 3.857,
      "duration": 0.429,
      "velocity": 0.63,
      "hand": "left"
    },
    {
      "midi": 58,
      "time": 4.286,
      "duration": 0.214,
      "velocity": 0.59,
      "hand": "left"
    },
    {
      "midi": 61,
      "time": 4.286,
      "duration": 0.214,
      "velocity": 0.59,
      "hand": "left"
    },
    {
      "midi": 58,
      "time": 4.714,
      "duration": 0.214,
      "velocity": 0.59,
      "hand": "left"
    },
    {
      "midi": 61,
      "time": 4.714,
      "duration": 0.214,
      "velocity": 0.59,
      "hand": "left"
    },
    {
      "midi": 46,
      "time": 5.143,
      "duration": 0.429,
      "velocity": 0.63,
      "hand": "left"
    },
    {
      "midi": 58,
      "time": 5.571,
      "duration": 0.214,
      "velocity": 0.59,
      "hand": "left"
    },
    {
      "midi": 61,
      "time": 5.571,
      "duration": 0.214,
      "velocity": 0.59,
      "hand": "left"
    },
    {
      "midi": 58,
      "time": 6,
      "duration": 0.214,
      "velocity": 0.59,
      "hand": "left"
    },
    {
      "midi": 61,
      "time": 6,
      "duration": 0.214,
      "velocity": 0.59,
      "hand": "left"
    },
    {
      "midi": 46,
      "time": 6.429,
      "duration": 0.429,
      "velocity": 0.63,
      "hand": "left"
    },
    {
      "midi": 58,
      "time": 6.857,
      "duration": 0.214,
      "velocity": 0.59,
      "hand": "left"
    },
    {
      "midi": 61,
      "time": 6.857,
      "duration": 0.214,
      "velocity": 0.59,
      "hand": "left"
    },
    {
      "midi": 58,
      "time": 7.286,
      "duration": 0.214,
      "velocity": 0.59,
      "hand": "left"
    },
    {
      "midi": 61,
      "time": 7.286,
      "duration": 0.214,
      "velocity": 0.59,
      "hand": "left"
    },
    {
      "midi": 46,
      "time": 7.714,
      "duration": 0.429,
      "velocity": 0.63,
      "hand": "left"
    },
    {
      "midi": 58,
      "time": 8.143,
      "duration": 0.214,
      "velocity": 0.59,
      "hand": "left"
    },
    {
      "midi": 61,
      "time": 8.143,
      "duration": 0.214,
      "velocity": 0.59,
      "hand": "left"
    },
    {
      "midi": 58,
      "time": 8.571,
      "duration": 0.214,
      "velocity": 0.59,
      "hand": "left"
    },
    {
      "midi": 61,
      "time": 8.571,
      "duration": 0.214,
      "velocity": 0.59,
      "hand": "left"
    },
    {
      "midi": 46,
      "time": 9,
      "duration": 0.429,
      "velocity": 0.63,
      "hand": "left"
    },
    {
      "midi": 58,
      "time": 9.429,
      "duration": 0.214,
      "velocity": 0.59,
      "hand": "left"
    },
    {
      "midi": 61,
      "time": 9.429,
      "duration": 0.214,
      "velocity": 0.59,
      "hand": "left"
    },
    {
      "midi": 58,
      "time": 9.857,
      "duration": 0.214,
      "velocity": 0.59,
      "hand": "left"
    },
    {
      "midi": 61,
      "time": 9.857,
      "duration": 0.214,
      "velocity": 0.59,
      "hand": "left"
    }
  ]
}
