{
  "id": "minute-waltz",
  "title": "Valsa do Minuto (Op. 64 nº 1)",
  "artist": "Frédéric Chopin",
  "difficulty": "Difícil",
  "bpm": 280,
  "duration": 90,
  "category": "Clássicos",
  "isPremium": true,
  "coverUrl": "/images/covers/placeholder.png",
  "notes": [
    {
      "midi": 68,
      "time": 0,
      "duration": 0.214,
      "velocity": 0.71,
      "hand": "right"
    },
    {
      "midi": 67,
      "time": 0.214,
      "duration": 0.107,
      "velocity": 0.71,
      "hand": "right"
    },
    {
      "midi": 68,
      "time": 0.321,
      "duration": 0.107,
      "velocity": 0.71,
      "hand": "right"
    },
    {
      "midi": 72,
      "time": 0.429,
      "duration": 0.107,
      "velocity": 0.71,
      "hand": "right"
    },
    {
      "midi": 70,
      "time": 0.536,
      "duration": 0.107,
      "velocity": 0.71,
      "hand": "right"
    },
    {
      "midi": 67,
      "time": 0.643,
      "duration": 0.107,
      "velocity": 0.71,
      "hand": "right"
    },
    {
      "midi": 68,
      "time": 0.75,
      "duration": 0.107,
      "velocity": 0.71,
      "hand": "right"
    },
    {
      "midi": 70,
      "time": 0.857,
      "duration": 0.107,
      "velocity": 0.71,
      "hand": "right"
    },
    {
      "midi": 68,
      "time": 0.964,
      "duration": 0.107,
      "velocity": 0.71,
      "hand": "right"
    },
    {
      "midi": 72,
      "time": 1.071,
      "duration": 0.107,
      "velocity": 0.71,
      "hand": "right"
    },
    {
      "midi": 70,
      "time": 1.179,
      "duration": 0.107,
      "velocity": 0.71,
      "hand": "right"
    },
    {
      "midi": 67,
      "time": 1.286,
      "duration": 0.107,
      "velocity": 0.71,
      "hand": "right"
    },
    {
      "midi": 68,
      "time": 1.393,
      "duration": 0.107,
      "velocity": 0.71,
      "hand": "right"
    },
    {
      "midi": 72,
      "time": 1.5,
      "duration": 0.107,
      "velocity": 0.71,
      "hand": "right"
    },
    {
      "midi": 70,
      "time": 1.607,
      "duration": 0.107,
      "velocity": 0.71,
      "hand": "right"
    },
    {
      "midi": 67,
      "time": 1.714,
      "duration": 0.107,
      "velocity": 0.71,
      "hand": "right"
    },
    {
      "midi": 68,
      "time": 1.821,
      "duration": 0.107,
      "velocity": 0.71,
      "hand": "right"
    },
    {
      "midi": 72,
      "time": 1.929,
      "duration": 0.107,
      "velocity": 0.71,
      "hand": "right"
    },
    {
      "midi": 70,
      "time": 2.036,
      "duration": 0.107,
      "velocity": 0.71,
      "hand": "right"
    },
    {
      "midi": 67,
      "time": 2.143,
      "duration": 0.107,
      "velocity": 0.71,
      "hand": "right"
    },
    {
      "midi": 68,
      "time": 2.25,
      "duration": 0.107,
      "velocity": 0.71,
      "hand": "right"
    },
    {
      "midi": 72,
      "time": 2.357,
      "duration": 0.107,
      "velocity": 0.71,
      "hand": "right"
    },
    {
      "midi": 70,
      "time": 2.464,
      "duration": 0.107,
      "velocity": 0.71,
      "hand": "right"
    },
    {
      "midi": 49,
      "time": 2.571,
      "duration": 0.214,
      "velocity": 0.71,
      "hand": "left"
    },
    {
      "midi": 67,
      "time": 2.571,
      "duration": 0.107,
      "velocity": 0.71,
      "hand": "right"
    },
    {
      "midi": 68,
      "time": 2.679,
      "duration": 0.107,
      "velocity": 0.71,
      "hand": "right"
    },
    {
      "midi": 56,
      "time": 2.786,
      "duration": 0.214,
      "velocity": 0.71,
      "hand": "left"
    },
    {
      "midi": 61,
      "time": 2.786,
      "duration": 0.214,
      "velocity": 0.71,
      "hand": "right"
    },
    {
      "midi": 65,
      "time": 2.786,
      "duration": 0.214,
      "velocity": 0.71,
      "hand": "right"
    },
    {
      "midi": 72,
      "time": 2.786,
      "duration": 0.107,
      "velocity": 0.71,
      "hand": "right"
    },
    {
      "midi": 70,
      "time": 2.893,
      "duration": 0.107,
      "velocity": 0.71,
      "hand": "right"
    },
    {
      "midi": 56,
      "time": 3,
      "duration": 0.214,
      "velocity": 0.71,
      "hand": "left"
    },
    {
      "midi": 61,
      "time": 3,
      "duration": 0.214,
      "velocity": 0.71,
      "hand": "right"
    },
    {
      "midi": 65,
      "time": 3,
      "duration": 0.214,
      "velocity": 0.71,
      "hand": "right"
    },
    {
      "midi": 67,
      "time": 3,
      "duration": 0.107,
      "velocity": 0.71,
      "hand": "right"
    },
    {
      "midi": 68,
      "time": 3.107,
      "duration": 0.107,
      "velocity": 0.71,
      "hand": "right"
    },
    {
      "midi": 53,
      "time": 3.214,
      "duration": 0.214,
      "velocity": 0.71,
      "hand": "left"
    },
    {
      "midi": 72,
      "time": 3.214,
      "duration": 0.107,
      "velocity": 0.71,
      "hand": "right"
    },
    {
      "midi": 70,
      "time": 3.321,
      "duration": 0.107,
      "velocity": 0.71,
      "hand": "right"
    },
    {
      "midi": 56,
      "time": 3.429,
      "duration": 0.214,
      "velocity": 0.71,
      "hand": "left"
    },
    {
      "midi": 61,
      "time": 3.429,
      "duration": 0.214,
      "velocity": 0.71,
      "hand": "right"
    },
    {
      "midi": 65,
      "time": 3.429,
      "duration": 0.214,
      "velocity": 0.71,
      "hand": "right"
    },
    {
      "midi": 67,
      "time": 3.429,
      "duration": 0.107,
      "velocity": 0.71,
      "hand": "right"
    },
    {
      "midi": 68,
      "time": 3.536,
      "duration": 0.107,
      "velocity": 0.71,
      "hand": "right"
    },
    {
      "midi": 56,
      "time": 3.643,
      "duration": 0.214,
      "velocity": 0.71,
      "hand": "left"
    },
    {
      "midi": 61,
      "time": 3.643,
      "duration": 0.214,
      "velocity": 0.71,
      "hand": "right"
    },
    {
      "midi": 65,
      "time": 3.643,
      "duration": 0.214,
      "velocity": 0.71,
      "hand": "right"
    },
    {
      "midi": 72,
      "time": 3.643,
      "duration": 0.107,
      "velocity": 0.71,
      "hand": "right"
    },
    {
      "midi": 70,
      "time": 3.75,
      "duration": 0.107,
      "velocity": 0.71,
      "hand": "right"
    },
    {
      "midi": 49,
      "time": 3.857,
      "duration": 0.214,
      "velocity": 0.71,
      "hand": "left"
    },
    {
      "midi": 67,
      "time": 3.857,
      "duration": 0.107,
      "velocity": 0.71,
      "hand": "right"
    },
    {
      "midi": 68,
      "time": 3.964,
      "duration": 0.107,
      "velocity": 0.71,
      "hand": "right"
    },
    {
      "midi": 56,
      "time": 4.071,
      "duration": 0.214,
      "velocity": 0.71,
      "hand": "left"
    },
    {
      "midi": 61,
      "time": 4.071,
      "duration": 0.214,
      "velocity": 0.71,
      "hand": "right"
    },
    {
      "midi": 65,
      "time": 4.071,
      "duration": 0.214,
      "velocity": 0.71,
      "hand": "right"
    },
    {
      "midi": 72,
      "time": 4.071,
      "duration": 0.107,
      "velocity": 0.71,
      "hand": "right"
    },
    {
      "midi": 70,
      "time": 4.179,
      "duration": 0.107,
      "velocity": 0.71,
      "hand": "right"
    },
    {
      "midi": 56,
      "time": 4.286,
      "duration": 0.214,
      "velocity": 0.71,
      "hand": "left"
    },
    {
      "midi": 61,
      "time": 4.286,
      "duration": 0.214,
      "velocity": 0.71,
      "hand": "right"
    },
    {
      "midi": 65,
      "time": 4.286,
      "duration": 0.214,
      "velocity": 0.71,
      "hand": "right"
    },
    {
      "midi": 67,
      "time": 4.286,
      "duration": 0.107,
      "velocity": 0.71,
      "hand": "right"
    },
    {
      "midi": 68,
      "time": 4.393,
      "duration": 0.107,
      "velocity": 0.71,
      "hand": "right"
    },
    {
      "midi": 53,
      "time": 4.5,
      "duration": 0.214,
      "velocity": 0.71,
      "hand": "left"
    },
    {
      "midi": 70,
      "time": 4.5,
      "duration": 0.107,
      "velocity": 0.71,
      "hand": "right"
    },
    {
      "midi": 72,
      "time": 4.607,
      "duration": 0.107,
      "velocity": 0.71,
      "hand": "right"
    },
    {
      "midi": 56,
      "time": 4.714,
      "duration": 0.214,
      "velocity": 0.71,
      "hand": "left"
    },
    {
      "midi": 61,
      "time": 4.714,
      "duration": 0.214,
      "velocity": 0.71,
      "hand": "right"
    },
    {
      "midi": 65,
      "time": 4.714,
      "duration": 0.214,
      "velocity": 0.71,
      "hand": "right"
    },
    {
      "midi": 73,
      "time": 4.714,
      "duration": 0.107,
      "velocity": 0.71,
      "hand": "right"
    },
    {
      "midi": 75,
      "time": 4.821,
      "duration": 0.107,
      "velocity": 0.71,
      "hand": "right"
    },
    {
      "midi": 56,
      "time": 4.929,
      "duration": 0.214,
      "velocity": 0.71,
      "hand": "left"
    },
    {
      "midi": 61,
      "time": 4.929,
      "duration": 0.214,
      "velocity": 0.71,
      "hand": "right"
    },
    {
      "midi": 65,
      "time": 4.929,
      "duration": 0.214,
      "velocity": 0.71,
      "hand": "right"
    },
    {
      "midi": 77,
      "time": 4.929,
      "duration": 0.107,
      "velocity": 0.71,
      "hand": "right"
    },
    {
      "midi": 78,
      "time": 5.036,
      "duration": 0.107,
      "velocity": 0.71,
      "hand": "right"
    },
    {
      "midi": 44,
      "time": 5.143,
      "duration": 0.214,
      "velocity": 0.71,
      "hand": "left"
    },
    {
      "midi": 82,
      "time": 5.143,
      "duration": 0.321,
      "velocity": 0.71,
      "hand": "right"
    },
    {
      "midi": 56,
      "time": 5.357,
      "duration": 0.214,
      "velocity": 0.71,
      "hand": "left"
    },
    {
      "midi": 60,
      "time": 5.357,
      "duration": 0.214,
      "velocity": 0.71,
      "hand": "right"
    },
    {
      "midi": 66,
      "time": 5.357,
      "duration": 0.214,
      "velocity": 0.71,
      "hand": "right"
    },
    {
      "midi": 80,
      "time": 5.464,
      "duration": 0.107,
      "velocity": 0.71,
      "hand": "right"
    },
    {
      "midi": 56,
      "time": 5.571,
      "duration": 0.214,
      "velocity": 0.71,
      "hand": "left"
    },
    {
      "midi": 60,
      "time": 5.571,
      "duration": 0.214,
      "velocity": 0.71,
      "hand": "right"
    },
    {
      "midi": 66,
      "time": 5.571,
      "duration": 0.214,
      "velocity": 0.71,
      "hand": "right"
    },
    {
      "midi": 78,
      "time": 5.571,
      "duration": 0.107,
      "velocity": 0.71,
      "hand": "right"
    },
    {
      "midi": 77,
      "time": 5.679,
      "duration": 0.107,
      "velocity": 0.71,
      "hand": "right"
    },
    {
      "midi": 51,
      "time": 5.786,
      "duration": 0.214,
      "velocity": 0.71,
      "hand": "left"
    },
    {
      "midi": 77,
      "time": 5.786,
      "duration": 0.107,
      "velocity": 0.71,
      "hand": "right"
    },
    {
      "midi": 75,
      "time": 5.893,
      "duration": 0.107,
      "velocity": 0.71,
      "hand": "right"
    },
    {
      "midi": 56,
      "time": 6,
      "duration": 0.214,
      "velocity": 0.71,
      "hand": "left"
    },
    {
      "midi": 60,
      "time": 6,
      "duration": 0.214,
      "velocity": 0.71,
      "hand": "right"
    },
    {
      "midi": 66,
      "time": 6,
      "duration": 0.214,
      "velocity": 0.71,
      "hand": "right"
    },
    {
      "midi": 75,
      "time": 6,
      "duration": 0.107,
      "velocity": 0.71,
      "hand": "right"
    },
    {
      "midi": 74,
      "time": 6.107,
      "duration": 0.107,
      "velocity": 0.71,
      "hand": "right"
    },
    {
      "midi": 56,
      "time": 6.214,
      "duration": 0.214,
      "velocity": 0.71,
      "hand": "left"
    },
    {
      "midi": 60,
      "time": 6.214,
      "duration": 0.214,
      "velocity": 0.71,
      "hand": "right"
    },
    {
      "midi": 66,
      "time": 6.214,
      "duration": 0.214,
      "velocity": 0.71,
      "hand": "right"
    },
    {
      "midi": 75,
      "time": 6.214,
      "duration": 0.214,
      "velocity": 0.71,
      "hand": "right"
    },
    {
      "midi": 44,
      "time": 6.429,
      "duration": 0.214,
      "velocity": 0.71,
      "hand": "left"
    },
    {
      "midi": 82,
      "time": 6.429,
      "duration": 0.321,
      "velocity": 0.71,
      "hand": "right"
    },
    {
      "midi": 60,
      "time": 6.643,
      "duration": 0.214,
      "velocity": 0.71,
      "hand": "right"
    },
    {
      "midi": 66,
      "time": 6.643,
      "duration": 0.214,
      "velocity": 0.71,
      "hand": "right"
    },
    {
      "midi": 80,
      "time": 6.75,
      "duration": 0.107,
      "velocity": 0.71,
      "hand": "right"
    },
    {
      "midi": 60,
      "time": 6.857,
      "duration": 0.214,
      "velocity": 0.71,
      "hand": "right"
    },
    {
      "midi": 66,
      "time": 6.857,
      "duration": 0.214,
      "velocity": 0.71,
      "hand": "right"
    },
    {
      "midi": 78,
      "time": 6.857,
      "duration": 0.107,
      "velocity": 0.71,
      "hand": "right"
    },
    {
      "midi": 77,
      "time": 6.964,
      "duration": 0.107,
      "velocity": 0.71,
      "hand": "right"
    },
    {
      "midi": 56,
      "time": 7.071,
      "duration": 0.214,
      "velocity": 0.71,
      "hand": "left"
    },
    {
      "midi": 77,
      "time": 7.071,
      "duration": 0.107,
      "velocity": 0.71,
      "hand": "right"
    },
    {
      "midi": 75,
      "time": 7.179,
      "duration": 0.107,
      "velocity": 0.71,
      "hand": "right"
    },
    {
      "midi": 60,
      "time": 7.286,
      "duration": 0.214,
      "velocity": 0.71,
      "hand": "right"
    },
    {
      "midi": 66,
      "time": 7.286,
      "duration": 0.214,
      "velocity": 0.71,
      "hand": "right"
    },
    {
      "midi": 74,
      "time": 7.286,
      "duration": 0.107,
      "velocity": 0.71,
      "hand": "right"
    },
    {
      "midi": 75,
      "time": 7.393,
      "duration": 0.107,
      "velocity": 0.71,
      "hand": "right"
    },
    {
      "midi": 60,
      "time": 7.5,
      "duration": 0.214,
      "velocity": 0.71,
      "hand": "right"
    },
    {
      "midi": 66,
      "time": 7.5,
      "duration": 0.214,
      "velocity": 0.71,
      "hand": "right"
    },
    {
      "midi": 77,
      "time": 7.5,
      "duration": 0.107,
      "velocity": 0.71,
      "hand": "right"
    },
    {
      "midi": 70,
      "time": 7.607,
      "duration": 0.107,
      "velocity": 0.71,
      "hand": "right"
    },
    {
      "midi": 49,
      "time": 7.714,
      "duration": 0.214,
      "velocity": 0.71,
      "hand": "left"
    },
    {
      "midi": 67,
      "time": 7.714,
      "duration": 0.107,
      "velocity": 0.71,
      "hand": "right"
    },
    {
      "midi": 68,
      "time": 7.821,
      "duration": 0.107,
      "velocity": 0.71,
      "hand": "right"
    },
    {
      "midi": 56,
      "time": 7.929,
      "duration": 0.214,
      "velocity": 0.71,
      "hand": "left"
    },
    {
      "midi": 61,
      "time": 7.929,
      "duration": 0.214,
      "velocity": 0.71,
      "hand": "right"
    },
    {
      "midi": 65,
      "time": 7.929,
      "duration": 0.214,
      "velocity": 0.71,
      "hand": "right"
    },
    {
      "midi": 72,
      "time": 7.929,
      "duration": 0.107,
      "velocity": 0.71,
      "hand": "right"
    },
    {
      "midi": 70,
      "time": 8.036,
      "duration": 0.107,
      "velocity": 0.71,
      "hand": "right"
    },
    {
      "midi": 56,
      "time": 8.143,
      "duration": 0.214,
      "velocity": 0.71,
      "hand": "left"
    },
    {
      "midi": 61,
      "time": 8.143,
      "duration": 0.214,
      "velocity": 0.71,
      "hand": "right"
    },
    {
      "midi": 65,
      "time": 8.143,
      "duration": 0.214,
      "velocity": 0.71,
      "hand": "right"
    },
    {
      "midi": 67,
      "time": 8.143,
      "duration": 0.107,
      "velocity": 0.71,
      "hand": "right"
    },
    {
      "midi": 68,
      "time": 8.25,
      "duration": 0.107,
      "velocity": 0.71,
      "hand": "right"
    },
    {
      "midi": 53,
      "time": 8.357,
      "duration": 0.214,
      "velocity": 0.71,
      "hand": "left"
    },
    {
      "midi": 72,
      "time": 8.357,
      "duration": 0.107,
      "velocity": 0.71,
      "hand": "right"
    },
    {
      "midi": 70,
      "time": 8.464,
      "duration": 0.107,
      "velocity": 0.71,
      "hand": "right"
    },
    {
      "midi": 56,
      "time": 8.571,
      "duration": 0.214,
      "velocity": 0.71,
      "hand": "left"
    },
    {
      "midi": 61,
      "time": 8.571,
      "duration": 0.214,
      "velocity": 0.71,
      "hand": "right"
    },
    {
      "midi": 65,
      "time": 8.571,
      "duration": 0.214,
      "velocity": 0.71,
      "hand": "right"
    },
    {
      "midi": 67,
      "time": 8.571,
      "duration": 0.107,
      "velocity": 0.71,
      "hand": "right"
    },
    {
      "midi": 68,
      "time": 8.679,
      "duration": 0.107,
      "velocity": 0.71,
      "hand": "right"
    },
    {
      "midi": 56,
      "time": 8.786,
      "duration": 0.214,
      "velocity": 0.71,
      "hand": "left"
    },
    {
      "midi": 61,
      "time": 8.786,
      "duration": 0.214,
      "velocity": 0.71,
      "hand": "right"
    },
    {
      "midi": 65,
      "time": 8.786,
      "duration": 0.214,
      "velocity": 0.71,
      "hand": "right"
    },
    {
      "midi": 72,
      "time": 8.786,
      "duration": 0.107,
      "velocity": 0.71,
      "hand": "right"
    },
    {
      "midi": 70,
      "time": 8.893,
      "duration": 0.107,
      "velocity": 0.71,
      "hand": "right"
    },
    {
      "midi": 49,
      "time": 9,
      "duration": 0.214,
      "velocity": 0.71,
      "hand": "left"
    },
    {
      "midi": 67,
      "time": 9,
      "duration": 0.107,
      "velocity": 0.71,
      "hand": "right"
    },
    {
      "midi": 68,
      "time": 9.107,
      "duration": 0.107,
      "velocity": 0.71,
      "hand": "right"
    },
    {
      "midi": 56,
      "time": 9.214,
      "duration": 0.214,
      "velocity": 0.71,
      "hand": "left"
    },
    {
      "midi": 61,
      "time": 9.214,
      "duration": 0.214,
      "velocity": 0.71,
      "hand": "right"
    },
    {
      "midi": 65,
      "time": 9.214,
      "duration": 0.214,
      "velocity": 0.71,
      "hand": "right"
    },
    {
      "midi": 72,
      "time": 9.214,
      "duration": 0.107,
      "velocity": 0.71,
      "hand": "right"
    },
    {
      "midi": 70,
      "time": 9.321,
      "duration": 0.107,
      "velocity": 0.71,
      "hand": "right"
    },
    {
      "midi": 56,
      "time": 9.429,
      "duration": 0.214,
      "velocity": 0.71,
      "hand": "left"
    },
    {
      "midi": 61,
      "time": 9.429,
      "duration": 0.214,
      "velocity": 0.71,
      "hand": "right"
    },
    {
      "midi": 65,
      "time": 9.429,
      "duration": 0.214,
      "velocity": 0.71,
      "hand": "right"
    },
    {
      "midi": 67,
      "time": 9.429,
      "duration": 0.107,
      "velocity": 0.71,
      "hand": "right"
    },
    {
      "midi": 68,
      "time": 9.536,
      "duration": 0.107,
      "velocity": 0.71,
      "hand": "right"
    },
    {
      "midi": 53,
      "time": 9.643,
      "duration": 0.214,
      "velocity": 0.71,
      "hand": "left"
    },
    {
      "midi": 70,
      "time": 9.643,
      "duration": 0.107,
      "velocity": 0.71,
      "hand": "right"
    },
    {
      "midi": 72,
      "time": 9.75,
      "duration": 0.107,
      "velocity": 0.71,
      "hand": "right"
    },
    {
      "midi": 56,
      "time": 9.857,
      "duration": 0.214,
      "velocity": 0.71,
      "hand": "left"
    },
    {
      "midi": 61,
      "time": 9.857,
      "duration": 0.214,
      "velocity": 0.71,
      "hand": "right"
    },
    {
      "midi": 65,
      "time": 9.857,
      "duration": 0.214,
      "velocity": 0.71,
      "hand": "right"
    },
    {
      "midi": 73,
      "time": 9.857,
      "duration": 0.107,
      "velocity": 0.71,
      "hand": "right"
    },
    {
      "midi": 75,
      "time": 9.964,
      "duration": 0.107,
      "velocity": 0.71,
      "hand": "right"
    },
    {
      "midi": 56,
      "time": 10.071,
      "duration": 0.214,
      "velocity": 0.71,
      "hand": "left"
    },
    {
      "midi": 61,
      "time": 10.071,
      "duration": 0.214,
      "velocity": 0.71,
      "hand": "right"
    },
    {
      "midi": 65,
      "time": 10.071,
      "duration": 0.214,
      "velocity": 0.71,
      "hand": "right"
    },
    {
      "midi": 77,
      "time": 10.071,
      "duration": 0.107,
      "velocity": 0.71,
      "hand": "right"
    },
    {
      "midi": 78,
      "time": 10.179,
      "duration": 0.107,
      "velocity": 0.71,
      "hand": "right"
    },
    {
      "midi": 44,
      "time": 10.286,
      "duration": 0.214,
      "velocity": 0.71,
      "hand": "left"
    },
    {
      "midi": 82,
      "time": 10.286,
      "duration": 0.321,
      "velocity": 0.71,
      "hand": "right"
    },
    {
      "midi": 56,
      "time": 10.5,
      "duration": 0.214,
      "velocity": 0.71,
      "hand": "left"
    },
    {
      "midi": 60,
      "time": 10.5,
      "duration": 0.214,
      "velocity": 0.71,
      "hand": "right"
    },
    {
      "midi": 66,
      "time": 10.5,
      "duration": 0.214,
      "velocity": 0.71,
      "hand": "right"
    },
    {
      "midi": 80,
      "time": 10.607,
      "duration": 0.107,
      "velocity": 0.71,
      "hand": "right"
    },
    {
      "midi": 56,
      "time": 10.714,
      "duration": 0.214,
      "velocity": 0.71,
      "hand": "left"
    },
    {
      "midi": 60,
      "time": 10.714,
      "duration": 0.214,
      "velocity": 0.71,
      "hand": "right"
    },
    {
      "midi": 66,
      "time": 10.714,
      "duration": 0.214,
      "velocity": 0.71,
      "hand": "right"
    },
    {
      "midi": 78,
      "time": 10.714,
      "duration": 0.107,
      "velocity": 0.71,
      "hand": "right"
    },
    {
      "midi": 77,
      "time": 10.821,
      "duration": 0.107,
      "velocity": 0.71,
      "hand": "right"
    },
    {
      "midi": 51,
      "time": 10.929,
      "duration": 0.214,
      "velocity": 0.71,
      "hand": "left"
    },
    {
      "midi": 77,
      "time": 10.929,
      "duration": 0.107,
      "velocity": 0.71,
      "hand": "right"
    },
    {
      "midi": 75,
      "time": 11.036,
      "duration": 0.107,
      "velocity": 0.71,
      "hand": "right"
    },
    {
      "midi": 56,
      "time": 11.143,
      "duration": 0.214,
      "velocity": 0.71,
      "hand": "left"
    },
    {
      "midi": 60,
      "time": 11.143,
      "duration": 0.214,
      "velocity": 0.71,
      "hand": "right"
    },
    {
      "midi": 66,
      "time": 11.143,
      "duration": 0.214,
      "velocity": 0.71,
      "hand": "right"
    },
    {
      "midi": 75,
      "time": 11.143,
      "duration": 0.107,
      "velocity": 0.71,
      "hand": "right"
    },
    {
      "midi": 74,
      "time": 11.25,
      "duration": 0.107,
      "velocity": 0.71,
      "hand": "right"
    },
    {
      "midi": 56,
      "time": 11.357,
      "duration": 0.214,
      "velocity": 0.71,
      "hand": "left"
    },
    {
      "midi": 60,
      "time": 11.357,
      "duration": 0.214,
      "velocity": 0.71,
      "hand": "right"
    },
    {
      "midi": 66,
      "time": 11.357,
      "duration": 0.214,
      "velocity": 0.71,
      "hand": "right"
    },
    {
      "midi": 75,
      "time": 11.357,
      "duration": 0.214,
      "velocity": 0.71,
      "hand": "right"
    },
    {
      "midi": 44,
      "time": 11.571,
      "duration": 0.214,
      "velocity": 0.71,
      "hand": "left"
    },
    {
      "midi": 82,
      "time": 11.571,
      "duration": 0.321,
      "velocity": 0.71,
      "hand": "right"
    },
    {
      "midi": 56,
      "time": 11.786,
      "duration": 0.214,
      "velocity": 0.71,
      "hand": "left"
    },
    {
      "midi": 60,
      "time": 11.786,
      "duration": 0.214,
      "velocity": 0.71,
      "hand": "right"
    },
    {
      "midi": 66,
      "time": 11.786,
      "duration": 0.214,
      "velocity": 0.71,
      "hand": "right"
    },
    {
      "midi": 80,
      "time": 11.893,
      "duration": 0.107,
      "velocity": 0.71,
      "hand": "right"
    },
    {
      "midi": 56,
      "time": 12,
      "duration": 0.214,
      "velocity": 0.71,
      "hand": "left"
    },
    {
      "midi": 60,
      "time": 12,
      "duration": 0.214,
      "velocity": 0.71,
      "hand": "right"
    },
    {
      "midi": 66,
      "time": 12,
      "duration": 0.214,
      "velocity": 0.71,
      "hand": "right"
    },
    {
      "midi": 78,
      "time": 12,
      "duration": 0.107,
      "velocity": 0.71,
      "hand": "right"
    },
    {
      "midi": 77,
      "time": 12.107,
      "duration": 0.107,
      "velocity": 0.71,
      "hand": "right"
    },
    {
      "midi": 56,
      "time": 12.214,
      "duration": 0.214,
      "velocity": 0.71,
      "hand": "left"
    },
    {
      "midi": 75,
      "time": 12.214,
      "duration": 0.107,
      "velocity": 0.71,
      "hand": "right"
    },
    {
      "midi": 77,
      "time": 12.321,
      "duration": 0.107,
      "velocity": 0.71,
      "hand": "right"
    },
    {
      "midi": 60,
      "time": 12.429,
      "duration": 0.214,
      "velocity": 0.71,
      "hand": "right"
    },
    {
      "midi": 66,
      "time": 12.429,
      "duration": 0.214,
      "velocity": 0.71,
      "hand": "right"
    },
    {
      "midi": 75,
      "time": 12.429,
      "duration": 0.107,
      "velocity": 0.71,
      "hand": "right"
    },
    {
      "midi": 74,
      "time": 12.536,
      "duration": 0.107,
      "velocity": 0.71,
      "hand": "right"
    },
    {
      "midi": 44,
      "time": 12.643,
      "duration": 0.214,
      "velocity": 0.71,
      "hand": "left"
    },
    {
      "midi": 75,
      "time": 12.643,
      "duration": 0.107,
      "velocity": 0.71,
      "hand": "right"
    },
    {
      "midi": 76,
      "time": 12.75,
      "duration": 0.107,
      "velocity": 0.71,
      "hand": "right"
    },
    {
      "midi": 45,
      "time": 12.857,
      "duration": 0.214,
      "velocity": 0.71,
      "hand": "left"
    },
    {
      "midi": 77,
      "time": 12.857,
      "duration": 0.054,
      "velocity": 0.71,
      "hand": "right"
    },
    {
      "midi": 78,
      "time": 12.911,
      "duration": 0.054,
      "velocity": 0.71,
      "hand": "right"
    },
    {
      "midi": 77,
      "time": 13.018,
      "duration": 0.054,
      "velocity": 0.71,
      "hand": "right"
    },
    {
      "midi": 53,
      "time": 13.071,
      "duration": 0.214,
      "velocity": 0.71,
      "hand": "left"
    },
    {
      "midi": 60,
      "time": 13.071,
      "duration": 0.214,
      "velocity": 0.71,
      "hand": "right"
    },
    {
      "midi": 63,
      "time": 13.071,
      "duration": 0.214,
      "velocity": 0.71,
      "hand": "right"
    },
    {
      "midi": 76,
      "time": 13.071,
      "duration": 0.107,
      "velocity": 0.71,
      "hand": "right"
    },
    {
      "midi": 77,
      "time": 13.179,
      "duration": 0.107,
      "velocity": 0.71,
      "hand": "right"
    },
    {
      "midi": 53,
      "time": 13.286,
      "duration": 0.214,
      "velocity": 0.71,
      "hand": "left"
    },
    {
      "midi": 60,
      "time": 13.286,
      "duration": 0.214,
      "velocity": 0.71,
      "hand": "right"
    },
    {
      "midi": 63,
      "time": 13.286,
      "duration": 0.214,
      "velocity": 0.71,
      "hand": "right"
    },
    {
      "midi": 80,
      "time": 13.286,
      "duration": 0.107,
      "velocity": 0.71,
      "hand": "right"
    },
    {
      "midi": 78,
      "time": 13.393,
      "duration": 0.107,
      "velocity": 0.71,
      "hand": "right"
    },
    {
      "midi": 46,
      "time": 13.5,
      "duration": 0.214,
      "velocity": 0.71,
      "hand": "left"
    },
    {
      "midi": 77,
      "time": 13.5,
      "duration": 0.107,
      "velocity": 0.71,
      "hand": "right"
    },
    {
      "midi": 78,
      "time": 13.607,
      "duration": 0.107,
      "velocity": 0.71,
      "hand": "right"
    },
    {
      "midi": 53,
      "time": 13.714,
      "duration": 0.214,
      "velocity": 0.71,
      "hand": "left"
    },
    {
      "midi": 61,
      "time": 13.714,
      "duration": 0.214,
      "velocity": 0.71,
      "hand": "right"
    },
    {
      "midi": 77,
      "time": 13.714,
      "duration": 0.107,
      "velocity": 0.71,
      "hand": "right"
    },
    {
      "midi": 76,
      "time": 13.821,
      "duration": 0.107,
      "velocity": 0.71,
      "hand": "right"
    },
    {
      "midi": 53,
      "time": 13.929,
      "duration": 0.214,
      "velocity": 0.71,
      "hand": "left"
    },
    {
      "midi": 61,
      "time": 13.929,
      "duration": 0.214,
      "velocity": 0.71,
      "hand": "right"
    },
    {
      "midi": 77,
      "time": 13.929,
      "duration": 0.107,
      "velocity": 0.71,
      "hand": "right"
    },
    {
      "midi": 82,
      "time": 14.036,
      "duration": 0.107,
      "velocity": 0.71,
      "hand": "right"
    },
    {
      "midi": 48,
      "time": 14.143,
      "duration": 0.214,
      "velocity": 0.71,
      "hand": "left"
    },
    {
      "midi": 80,
      "time": 14.143,
      "duration": 0.054,
      "velocity": 0.71,
      "hand": "right"
    },
    {
      "midi": 82,
      "time": 14.196,
      "duration": 0.054,
      "velocity": 0.71,
      "hand": "right"
    },
    {
      "midi": 80,
      "time": 14.304,
      "duration": 0.054,
      "velocity": 0.71,
      "hand": "right"
    },
    {
      "midi": 56,
      "time": 14.357,
      "duration": 0.214,
      "velocity": 0.71,
      "hand": "left"
    },
    {
      "midi": 63,
      "time": 14.357,
      "duration": 0.214,
      "velocity": 0.71,
      "hand": "right"
    },
    {
      "midi": 66,
      "time": 14.357,
      "duration": 0.214,
      "velocity": 0.71,
      "hand": "right"
    },
    {
      "midi": 79,
      "time": 14.357,
      "duration": 0.107,
      "velocity": 0.71,
      "hand": "right"
    },
    {
      "midi": 80,
      "time": 14.464,
      "duration": 0.107,
      "velocity": 0.71,
      "hand": "right"
    },
    {
      "midi": 56,
      "time": 14.571,
      "duration": 0.214,
      "velocity": 0.71,
      "hand": "left"
    },
    {
      "midi": 63,
      "time": 14.571,
      "duration": 0.214,
      "velocity": 0.71,
      "hand": "right"
    },
    {
      "midi": 66,
      "time": 14.571,
      "duration": 0.214,
      "velocity": 0.71,
      "hand": "right"
    },
    {
      "midi": 84,
      "time": 14.571,
      "duration": 0.107,
      "velocity": 0.71,
      "hand": "right"
    },
    {
      "midi": 82,
      "time": 14.679,
      "duration": 0.107,
      "velocity": 0.71,
      "hand": "right"
    },
    {
      "midi": 49,
      "time": 14.786,
      "duration": 0.214,
      "velocity": 0.71,
      "hand": "left"
    },
    {
      "midi": 80,
      "time": 14.786,
      "duration": 0.107,
      "velocity": 0.71,
      "hand": "right"
    },
    {
      "midi": 82,
      "time": 14.893,
      "duration": 0.107,
      "velocity": 0.71,
      "hand": "right"
    },
    {
      "midi": 56,
      "time": 15,
      "duration": 0.214,
      "velocity": 0.71,
      "hand": "left"
    },
    {
      "midi": 65,
      "time": 15,
      "duration": 0.214,
      "velocity": 0.71,
      "hand": "right"
    },
    {
      "midi": 80,
      "time": 15,
      "duration": 0.107,
      "velocity": 0.71,
      "hand": "right"
    },
    {
      "midi": 79,
      "time": 15.107,
      "duration": 0.107,
      "velocity": 0.71,
      "hand": "right"
    },
    {
      "midi": 80,
      "time": 15.214,
      "duration": 0.107,
      "velocity": 0.71,
      "hand": "right"
    },
    {
      "midi": 85,
      "time": 15.321,
      "duration": 0.107,
      "velocity": 0.71,
      "hand": "right"
    },
    {
      "midi": 54,
      "time": 15.429,
      "duration": 0.214,
      "velocity": 0.71,
      "hand": "left"
    },
    {
      "midi": 84,
      "time": 15.429,
      "duration": 0.107,
      "velocity": 0.71,
      "hand": "right"
    },
    {
      "midi": 82,
      "time": 15.536,
      "duration": 0.107,
      "velocity": 0.71,
      "hand": "right"
    },
    {
      "midi": 58,
      "time": 15.643,
      "duration": 0.214,
      "velocity": 0.71,
      "hand": "left"
    },
    {
      "midi": 63,
      "time": 15.643,
      "duration": 0.214,
      "velocity": 0.71,
      "hand": "right"
    },
    {
      "midi": 80,
      "time": 15.643,
      "duration": 0.107,
      "velocity": 0.71,
      "hand": "right"
    },
    {
      "midi": 78,
      "time": 15.75,
      "duration": 0.107,
      "velocity": 0.71,
      "hand": "right"
    },
    {
      "midi": 77,
      "time": 15.857,
      "duration": 0.107,
      "velocity": 0.71,
      "hand": "right"
    },
    {
      "midi": 75,
      "time": 15.964,
      "duration": 0.107,
      "velocity": 0.71,
      "hand": "right"
    },
    {
      "midi": 44,
      "time": 16.071,
      "duration": 0.214,
      "velocity": 0.71,
      "hand": "left"
    },
    {
      "midi": 73,
      "time": 16.071,
      "duration": 0.107,
      "velocity": 0.71,
      "hand": "right"
    },
    {
      "midi": 72,
      "time": 16.179,
      "duration": 0.107,
      "velocity": 0.71,
      "hand": "right"
    },
    {
      "midi": 53,
      "time": 16.286,
      "duration": 0.214,
      "velocity": 0.71,
      "hand": "left"
    },
    {
      "midi": 56,
      "time": 16.286,
      "duration": 0.214,
      "velocity": 0.71,
      "hand": "left"
    },
    {
      "midi": 61,
      "time": 16.286,
      "duration": 0.214,
      "velocity": 0.71,
      "hand": "right"
    },
    {
      "midi": 70,
      "time": 16.286,
      "duration": 0.107,
      "velocity": 0.71,
      "hand": "right"
    },
    {
      "midi": 68,
      "time": 16.393,
      "duration": 0.107,
      "velocity": 0.71,
      "hand": "right"
    },
    {
      "midi": 66,
      "time": 16.5,
      "duration": 0.107,
      "velocity": 0.71,
      "hand": "right"
    },
    {
      "midi": 65,
      "time": 16.607,
      "duration": 0.107,
      "velocity": 0.71,
      "hand": "right"
    },
    {
      "midi": 44,
      "time": 16.714,
      "duration": 0.214,
      "velocity": 0.71,
      "hand": "left"
    },
    {
      "midi": 63,
      "time": 16.714,
      "duration": 0.107,
      "velocity": 0.71,
      "hand": "right"
    },
    {
      "midi": 61,
      "time": 16.821,
      "duration": 0.107,
      "velocity": 0.71,
      "hand": "right"
    },
    {
      "midi": 54,
      "time": 16.929,
      "duration": 0.214,
      "velocity": 0.71,
      "hand": "left"
    },
    {
      "midi": 56,
      "time": 16.929,
      "duration": 0.214,
      "velocity": 0.71,
      "hand": "left"
    },
    {
      "midi": 60,
      "time": 16.929,
      "duration": 0.107,
      "velocity": 0.71,
      "hand": "right"
    },
    {
      "midi": 63,
      "time": 17.036,
      "duration": 0.107,
      "velocity": 0.71,
      "hand": "right"
    },
    {
      "midi": 54,
      "time": 17.143,
      "duration": 0.214,
      "velocity": 0.71,
      "hand": "left"
    },
    {
      "midi": 56,
      "time": 17.143,
      "duration": 0.214,
      "velocity": 0.71,
      "hand": "left"
    },
    {
      "midi": 60,
      "time": 17.143,
      "duration": 0.214,
      "velocity": 0.71,
      "hand": "right"
    },
    {
      "midi": 70,
      "time": 17.143,
      "duration": 0.107,
      "velocity": 0.71,
      "hand": "right"
    },
    {
      "midi": 68,
      "time": 17.25,
      "duration": 0.107,
      "velocity": 0.71,
      "hand": "right"
    },
    {
      "midi": 49,
      "time": 17.357,
      "duration": 0.214,
      "velocity": 0.71,
      "hand": "left"
    },
    {
      "midi": 67,
      "time": 17.357,
      "duration": 0.107,
      "velocity": 0.71,
      "hand": "right"
    },
    {
      "midi": 68,
      "time": 17.464,
      "duration": 0.107,
      "velocity": 0.71,
      "hand": "right"
    },
    {
      "midi": 56,
      "time": 17.571,
      "duration": 0.214,
      "velocity": 0.71,
      "hand": "left"
    },
    {
      "midi": 61,
      "time": 17.571,
      "duration": 0.214,
      "velocity": 0.71,
      "hand": "right"
    },
    {
      "midi": 65,
      "time": 17.571,
      "duration": 0.214,
      "velocity": 0.71,
      "hand": "right"
    },
    {
      "midi": 70,
      "time": 17.571,
      "duration": 0.107,
      "velocity": 0.71,
      "hand": "right"
    },
    {
      "midi": 72,
      "time": 17.679,
      "duration": 0.107,
      "velocity": 0.71,
      "hand": "right"
    },
    {
      "midi": 73,
      "time": 17.786,
      "duration": 0.107,
      "velocity": 0.71,
      "hand": "right"
    },
    {
      "midi": 75,
      "time": 17.893,
      "duration": 0.107,
      "velocity": 0.71,
      "hand": "right"
    },
    {
      "midi": 57,
      "time": 18,
      "duration": 0.643,
      "velocity": 0.71,
      "hand": "left"
    },
    {
      "midi": 77,
      "time": 18,
      "duration": 0.054,
      "velocity": 0.71,
      "hand": "right"
    },
    {
      "midi": 78,
      "time": 18.054,
      "duration": 0.054,
      "velocity": 0.71,
      "hand": "right"
    },
    {
      "midi": 77,
      "time": 18.161,
      "duration": 0.054,
      "velocity": 0.71,
      "hand": "right"
    },
    {
      "midi": 63,
      "time": 18.214,
      "duration": 0.214,
      "velocity": 0.71,
      "hand": "right"
    },
    {
      "midi": 65,
      "time": 18.214,
      "duration": 0.214,
      "velocity": 0.71,
      "hand": "right"
    },
    {
      "midi": 76,
      "time": 18.214,
      "duration": 0.107,
      "velocity": 0.71,
      "hand": "right"
    },
    {
      "midi": 77,
      "time": 18.321,
      "duration": 0.107,
      "velocity": 0.71,
      "hand": "right"
    },
    {
      "midi": 63,
      "time": 18.429,
      "duration": 0.214,
      "velocity": 0.71,
      "hand": "right"
    },
    {
      "midi": 65,
      "time": 18.429,
      "duration": 0.214,
      "velocity": 0.71,
      "hand": "right"
    },
    {
      "midi": 80,
      "time": 18.429,
      "duration": 0.107,
      "velocity": 0.71,
      "hand": "right"
    },
    {
      "midi": 78,
      "time": 18.536,
      "duration": 0.107,
      "velocity": 0.71,
      "hand": "right"
    },
    {
      "midi": 58,
      "time": 18.643,
      "duration": 0.643,
      "velocity": 0.71,
      "hand": "left"
    },
    {
      "midi": 77,
      "time": 18.643,
      "duration": 0.107,
      "velocity": 0.71,
      "hand": "right"
    },
    {
      "midi": 78,
      "time": 18.75,
      "duration": 0.107,
      "velocity": 0.71,
      "hand": "right"
    },
    {
      "midi": 61,
      "time": 18.857,
      "duration": 0.214,
      "velocity": 0.71,
      "hand": "right"
    },
    {
      "midi": 65,
      "time": 18.857,
      "duration": 0.214,
      "velocity": 0.71,
      "hand": "right"
    },
    {
      "midi": 77,
      "time": 18.857,
      "duration": 0.107,
      "velocity": 0.71,
      "hand": "right"
    },
    {
      "midi": 76,
      "time": 18.964,
      "duration": 0.107,
      "velocity": 0.71,
      "hand": "right"
    },
    {
      "midi": 61,
      "time": 19.071,
      "duration": 0.214,
      "velocity": 0.71,
      "hand": "right"
    },
    {
      "midi": 65,
      "time": 19.071,
      "duration": 0.214,
      "velocity": 0.71,
      "hand": "right"
    },
    {
      "midi": 77,
      "time": 19.071,
      "duration": 0.107,
      "velocity": 0.71,
      "hand": "right"
    },
    {
      "midi": 82,
      "time": 19.179,
      "duration": 0.107,
      "velocity": 0.71,
      "hand": "right"
    },
    {
      "midi": 60,
      "time": 19.286,
      "duration": 0.643,
      "velocity": 0.71,
      "hand": "right"
    },
    {
      "midi": 80,
      "time": 19.286,
      "duration": 0.054,
      "velocity": 0.71,
      "hand": "right"
    },
    {
      "midi": 82,
      "time": 19.339,
      "duration": 0.054,
      "velocity": 0.71,
      "hand": "right"
    },
    {
      "midi": 80,
      "time": 19.446,
      "duration": 0.054,
      "velocity": 0.71,
      "hand": "right"
    },
    {
      "midi": 66,
      "time": 19.5,
      "duration": 0.214,
      "velocity": 0.71,
      "hand": "right"
    },
    {
      "midi": 68,
      "time": 19.5,
      "duration": 0.214,
      "velocity": 0.71,
      "hand": "right"
    },
    {
      "midi": 79,
      "time": 19.5,
      "duration": 0.107,
      "velocity": 0.71,
      "hand": "right"
    },
    {
      "midi": 80,
      "time": 19.607,
      "duration": 0.107,
      "velocity": 0.71,
      "hand": "right"
    },
    {
      "midi": 66,
      "time": 19.714,
      "duration": 0.214,
      "velocity": 0.71,
      "hand": "right"
    },
    {
      "midi": 68,
      "time": 19.714,
      "duration": 0.214,
      "velocity": 0.71,
      "hand": "right"
    },
    {
      "midi": 84,
      "time": 19.714,
      "duration": 0.107,
      "velocity": 0.71,
      "hand": "right"
    },
    {
      "midi": 82,
      "time": 19.821,
      "duration": 0.107,
      "velocity": 0.71,
      "hand": "right"
    },
    {
      "midi": 61,
      "time": 19.929,
      "duration": 0.214,
      "velocity": 0.71,
      "hand": "right"
    },
    {
      "midi": 80,
      "time": 19.929,
      "duration": 0.107,
      "velocity": 0.71,
      "hand": "right"
    },
    {
      "midi": 82,
      "time": 20.036,
      "duration": 0.107,
      "velocity": 0.71,
      "hand": "right"
    },
    {
      "midi": 65,
      "time": 20.143,
      "duration": 0.214,
      "velocity": 0.71,
      "hand": "right"
    },
    {
      "midi": 68,
      "time": 20.143,
      "duration": 0.214,
      "velocity": 0.71,
      "hand": "right"
    },
    {
      "midi": 80,
      "time": 20.143,
      "duration": 0.107,
      "velocity": 0.71,
      "hand": "right"
    },
    {
      "midi": 79,
      "time": 20.25,
      "duration": 0.107,
      "velocity": 0.71,
      "hand": "right"
    },
    {
      "midi": 80,
      "time": 20.357,
      "duration": 0.107,
      "velocity": 0.71,
      "hand": "right"
    },
    {
      "midi": 89,
      "time": 20.464,
      "duration": 0.107,
      "velocity": 0.71,
      "hand": "right"
    },
    {
      "midi": 54,
      "time": 20.571,
      "duration": 0.214,
      "velocity": 0.71,
      "hand": "left"
    },
    {
      "midi": 87,
      "time": 20.571,
      "duration": 0.107,
      "velocity": 0.71,
      "hand": "right"
    },
    {
      "midi": 85,
      "time": 20.679,
      "duration": 0.107,
      "velocity": 0.71,
      "hand": "right"
    },
    {
      "midi": 61,
      "time": 20.786,
      "duration": 0.214,
      "velocity": 0.71,
      "hand": "right"
    },
    {
      "midi": 63,
      "time": 20.786,
      "duration": 0.214,
      "velocity": 0.71,
      "hand": "right"
    },
    {
      "midi": 70,
      "time": 20.786,
      "duration": 0.214,
      "velocity": 0.71,
      "hand": "right"
    },
    {
      "midi": 84,
      "time": 20.786,
      "duration": 0.107,
      "velocity": 0.71,
      "hand": "right"
    },
    {
      "midi": 82,
      "time": 20.893,
      "duration": 0.107,
      "velocity": 0.71,
      "hand": "right"
    },
    {
      "midi": 80,
      "time": 21,
      "duration": 0.107,
      "velocity": 0.71,
      "hand": "right"
    },
    {
      "midi": 78,
      "time": 21.107,
      "duration": 0.107,
      "velocity": 0.71,
      "hand": "right"
    },
    {
      "midi": 44,
      "time": 21.214,
      "duration": 0.214,
      "velocity": 0.71,
      "hand": "left"
    },
    {
      "midi": 77,
      "time": 21.214,
      "duration": 0.107,
      "velocity": 0.71,
      "hand": "right"
    },
    {
      "midi": 75,
      "time": 21.321,
      "duration": 0.107,
      "velocity": 0.71,
      "hand": "right"
    },
    {
      "midi": 53,
      "time": 21.429,
      "duration": 0.214,
      "velocity": 0.71,
      "hand": "left"
    },
    {
      "midi": 56,
      "time": 21.429,
      "duration": 0.214,
      "velocity": 0.71,
      "hand": "left"
    },
    {
      "midi": 61,
      "time": 21.429,
      "duration": 0.214,
      "velocity": 0.71,
      "hand": "right"
    },
    {
      "midi": 73,
      "time": 21.429,
      "duration": 0.107,
      "velocity": 0.71,
      "hand": "right"
    },
    {
      "midi": 72,
      "time": 21.536,
      "duration": 0.107,
      "velocity": 0.71,
      "hand": "right"
    },
    {
      "midi": 70,
      "time": 21.643,
      "duration": 0.107,
      "velocity": 0.71,
      "hand": "right"
    },
    {
      "midi": 68,
      "time": 21.75,
      "duration": 0.107,
      "velocity": 0.71,
      "hand": "right"
    },
    {
      "midi": 44,
      "time": 21.857,
      "duration": 0.214,
      "velocity": 0.71,
      "hand": "left"
    },
    {
      "midi": 69,
      "time": 21.857,
      "duration": 0.107,
      "velocity": 0.71,
      "hand": "right"
    },
    {
      "midi": 72,
      "time": 21.964,
      "duration": 0.107,
      "velocity": 0.71,
      "hand": "right"
    },
    {
      "midi": 54,
      "time": 22.071,
      "duration": 0.214,
      "velocity": 0.71,
      "hand": "left"
    },
    {
      "midi": 56,
      "time": 22.071,
      "duration": 0.214,
      "velocity": 0.71,
      "hand": "left"
    },
    {
      "midi": 70,
      "time": 22.071,
      "duration": 0.107,
      "velocity": 0.71,
      "hand": "right"
    },
    {
      "midi": 65,
      "time": 22.179,
      "duration": 0.107,
      "velocity": 0.71,
      "hand": "right"
    },
    {
      "midi": 54,
      "time": 22.286,
      "duration": 0.214,
      "velocity": 0.71,
      "hand": "left"
    },
    {
      "midi": 56,
      "time": 22.286,
      "duration": 0.214,
      "velocity": 0.71,
      "hand": "left"
    },
    {
      "midi": 66,
      "time": 22.286,
      "duration": 0.107,
      "velocity": 0.71,
      "hand": "right"
    },
    {
      "midi": 60,
      "time": 22.393,
      "duration": 0.107,
      "velocity": 0.71,
      "hand": "right"
    },
    {
      "midi": 49,
      "time": 22.5,
      "duration": 0.214,
      "velocity": 0.71,
      "hand": "left"
    },
    {
      "midi": 61,
      "time": 22.5,
      "duration": 0.214,
      "velocity": 0.71,
      "hand": "right"
    },
    {
      "midi": 56,
      "time": 22.714,
      "duration": 0.214,
      "velocity": 0.71,
      "hand": "left"
    },
    {
      "midi": 65,
      "time": 22.714,
      "duration": 0.214,
      "velocity": 0.71,
      "hand": "right"
    },
    {
      "midi": 77,
      "time": 22.929,
      "duration": 0.214,
      "velocity": 0.71,
      "hand": "right"
    },
    {
      "midi": 45,
      "time": 23.143,
      "duration": 0.214,
      "velocity": 0.71,
      "hand": "left"
    },
    {
      "midi": 77,
      "time": 23.143,
      "duration": 0.054,
      "velocity": 0.71,
      "hand": "right"
    },
    {
      "midi": 78,
      "time": 23.196,
      "duration": 0.054,
      "velocity": 0.71,
      "hand": "right"
    },
    {
      "midi": 77,
      "time": 23.304,
      "duration": 0.054,
      "velocity": 0.71,
      "hand": "right"
    },
    {
      "midi": 53,
      "time": 23.357,
      "duration": 0.214,
      "velocity": 0.71,
      "hand": "left"
    },
    {
      "midi": 60,
      "time": 23.357,
      "duration": 0.214,
      "velocity": 0.71,
      "hand": "right"
    },
    {
      "midi": 63,
      "time": 23.357,
      "duration": 0.214,
      "velocity": 0.71,
      "hand": "right"
    },
    {
      "midi": 76,
      "time": 23.357,
      "duration": 0.107,
      "velocity": 0.71,
      "hand": "right"
    },
    {
      "midi": 77,
      "time": 23.464,
      "duration": 0.107,
      "velocity": 0.71,
      "hand": "right"
    },
    {
      "midi": 53,
      "time": 23.571,
      "duration": 0.214,
      "velocity": 0.71,
      "hand": "left"
    },
    {
      "midi": 60,
      "time": 23.571,
      "duration": 0.214,
      "velocity": 0.71,
      "hand": "right"
    },
    {
      "midi": 63,
      "time": 23.571,
      "duration": 0.214,
      "velocity": 0.71,
      "hand": "right"
    },
    {
      "midi": 80,
      "time": 23.571,
      "duration": 0.107,
      "velocity": 0.71,
      "hand": "right"
    },
    {
      "midi": 78,
      "time": 23.679,
      "duration": 0.107,
      "velocity": 0.71,
      "hand": "right"
    },
    {
      "midi": 46,
      "time": 23.786,
      "duration": 0.214,
      "velocity": 0.71,
      "hand": "left"
    },
    {
      "midi": 77,
      "time": 23.786,
      "duration": 0.107,
      "velocity": 0.71,
      "hand": "right"
    },
    {
      "midi": 78,
      "time": 23.893,
      "duration": 0.107,
      "velocity": 0.71,
      "hand": "right"
    },
    {
      "midi": 53,
      "time": 24,
      "duration": 0.214,
      "velocity": 0.71,
      "hand": "left"
    },
    {
      "midi": 61,
      "time": 24,
      "duration": 0.214,
      "velocity": 0.71,
      "hand": "right"
    },
    {
      "midi": 77,
      "time": 24,
      "duration": 0.107,
      "velocity": 0.71,
      "hand": "right"
    },
    {
      "midi": 76,
      "time": 24.107,
      "duration": 0.107,
      "velocity": 0.71,
      "hand": "right"
    },
    {
      "midi": 53,
      "time": 24.214,
      "duration": 0.214,
      "velocity": 0.71,
      "hand": "left"
    },
    {
      "midi": 61,
      "time": 24.214,
      "duration": 0.214,
      "velocity": 0.71,
      "hand": "right"
    },
    {
      "midi": 77,
      "time": 24.214,
      "duration": 0.107,
      "velocity": 0.71,
      "hand": "right"
    },
    {
      "midi": 82,
      "time": 24.321,
      "duration": 0.107,
      "velocity": 0.71,
      "hand": "right"
    },
    {
      "midi": 48,
      "time": 24.429,
      "duration": 0.214,
      "velocity": 0.71,
      "hand": "left"
    },
    {
      "midi": 80,
      "time": 24.429,
      "duration": 0.054,
      "velocity": 0.71,
      "hand": "right"
    },
    {
      "midi": 82,
      "time": 24.482,
      "duration": 0.054,
      "velocity": 0.71,
      "hand": "right"
    },
    {
      "midi": 80,
      "time": 24.589,
      "duration": 0.054,
      "velocity": 0.71,
      "hand": "right"
    },
    {
      "midi": 56,
      "time": 24.643,
      "duration": 0.214,
      "velocity": 0.71,
      "hand": "left"
    },
    {
      "midi": 63,
      "time": 24.643,
      "duration": 0.214,
      "velocity": 0.71,
      "hand": "right"
    },
    {
      "midi": 66,
      "time": 24.643,
      "duration": 0.214,
      "velocity": 0.71,
      "hand": "right"
    },
    {
      "midi": 79,
      "time": 24.643,
      "duration": 0.107,
      "velocity": 0.71,
      "hand": "right"
    },
    {
      "midi": 80,
      "time": 24.75,
      "duration": 0.107,
      "velocity": 0.71,
      "hand": "right"
    },
    {
      "midi": 56,
      "time": 24.857,
      "duration": 0.214,
      "velocity": 0.71,
      "hand": "left"
    },
    {
      "midi": 63,
      "time": 24.857,
      "duration": 0.214,
      "velocity": 0.71,
      "hand": "right"
    },
    {
      "midi": 66,
      "time": 24.857,
      "duration": 0.214,
      "velocity": 0.71,
      "hand": "right"
    },
    {
      "midi": 84,
      "time": 24.857,
      "duration": 0.107,
      "velocity": 0.71,
      "hand": "right"
    },
    {
      "midi": 82,
      "time": 24.964,
      "duration": 0.107,
      "velocity": 0.71,
      "hand": "right"
    },
    {
      "midi": 49,
      "time": 25.071,
      "duration": 0.214,
      "velocity": 0.71,
      "hand": "left"
    },
    {
      "midi": 80,
      "time": 25.071,
      "duration": 0.107,
      "velocity": 0.71,
      "hand": "right"
    },
    {
      "midi": 82,
      "time": 25.179,
      "duration": 0.107,
      "velocity": 0.71,
      "hand": "right"
    },
    {
      "midi": 56,
      "time": 25.286,
      "duration": 0.214,
      "velocity": 0.71,
      "hand": "left"
    },
    {
      "midi": 65,
      "time": 25.286,
      "duration": 0.214,
      "velocity": 0.71,
      "hand": "right"
    },
    {
      "midi": 80,
      "time": 25.286,
      "duration": 0.107,
      "velocity": 0.71,
      "hand": "right"
    },
    {
      "midi": 79,
      "time": 25.393,
      "duration": 0.107,
      "velocity": 0.71,
      "hand": "right"
    },
    {
      "midi": 80,
      "time": 25.5,
      "duration": 0.107,
      "velocity": 0.71,
      "hand": "right"
    },
    {
      "midi": 85,
      "time": 25.607,
      "duration": 0.107,
      "velocity": 0.71,
      "hand": "right"
    },
    {
      "midi": 54,
      "time": 25.714,
      "duration": 0.214,
      "velocity": 0.71,
      "hand": "left"
    },
    {
      "midi": 84,
      "time": 25.714,
      "duration": 0.107,
      "velocity": 0.71,
      "hand": "right"
    },
    {
      "midi": 82,
      "time": 25.821,
      "duration": 0.107,
      "velocity": 0.71,
      "hand": "right"
    },
    {
      "midi": 58,
      "time": 25.929,
      "duration": 0.214,
      "velocity": 0.71,
      "hand": "left"
    },
    {
      "midi": 63,
      "time": 25.929,
      "duration": 0.214,
      "velocity": 0.71,
      "hand": "right"
    },
    {
      "midi": 80,
      "time": 25.929,
      "duration": 0.107,
      "velocity": 0.71,
      "hand": "right"
    },
    {
      "midi": 78,
      "time": 26.036,
      "duration": 0.107,
      "velocity": 0.71,
      "hand": "right"
    },
    {
      "midi": 77,
      "time": 26.143,
      "duration": 0.107,
      "velocity": 0.71,
      "hand": "right"
    },
    {
      "midi": 75,
      "time": 26.25,
      "duration": 0.107,
      "velocity": 0.71,
      "hand": "right"
    },
    {
      "midi": 44,
      "time": 26.357,
      "duration": 0.214,
      "velocity": 0.71,
      "hand": "left"
    },
    {
      "midi": 73,
      "time": 26.357,
      "duration": 0.107,
      "velocity": 0.71,
      "hand": "right"
    },
    {
      "midi": 72,
      "time": 26.464,
      "duration": 0.107,
      "velocity": 0.71,
      "hand": "right"
    },
    {
      "midi": 53,
      "time": 26.571,
      "duration": 0.214,
      "velocity": 0.71,
      "hand": "left"
    },
    {
      "midi": 56,
      "time": 26.571,
      "duration": 0.214,
      "velocity": 0.71,
      "hand": "left"
    },
    {
      "midi": 61,
      "time": 26.571,
      "duration": 0.214,
      "velocity": 0.71,
      "hand": "right"
    },
    {
      "midi": 70,
      "time": 26.571,
      "duration": 0.107,
      "velocity": 0.71,
      "hand": "right"
    },
    {
      "midi": 68,
      "time": 26.679,
      "duration": 0.107,
      "velocity": 0.71,
      "hand": "right"
    },
    {
      "midi": 66,
      "time": 26.786,
      "duration": 0.107,
      "velocity": 0.71,
      "hand": "right"
    },
    {
      "midi": 65,
      "time": 26.893,
      "duration": 0.107,
      "velocity": 0.71,
      "hand": "right"
    },
    {
      "midi": 44,
      "time": 27,
      "duration": 0.214,
      "velocity": 0.71,
      "hand": "left"
    },
    {
      "midi": 63,
      "time": 27,
      "duration": 0.107,
      "velocity": 0.71,
      "hand": "right"
    },
    {
      "midi": 61,
      "time": 27.107,
      "duration": 0.107,
      "velocity": 0.71,
      "hand": "right"
    },
    {
      "midi": 54,
      "time": 27.214,
      "duration": 0.214,
      "velocity": 0.71,
      "hand": "left"
    },
    {
      "midi": 56,
      "time": 27.214,
      "duration": 0.214,
      "velocity": 0.71,
      "hand": "left"
    },
    {
      "midi": 60,
      "time": 27.214,
      "duration": 0.107,
      "velocity": 0.71,
      "hand": "right"
    },
    {
      "midi": 63,
      "time": 27.321,
      "duration": 0.107,
      "velocity": 0.71,
      "hand": "right"
    },
    {
      "midi": 54,
      "time": 27.429,
      "duration": 0.214,
      "velocity": 0.71,
      "hand": "left"
    },
    {
      "midi": 56,
      "time": 27.429,
      "duration": 0.214,
      "velocity": 0.71,
      "hand": "left"
    },
    {
      "midi": 60,
      "time": 27.429,
      "duration": 0.214,
      "velocity": 0.71,
      "hand": "right"
    },
    {
      "midi": 70,
      "time": 27.429,
      "duration": 0.107,
      "velocity": 0.71,
      "hand": "right"
    },
    {
      "midi": 68,
      "time": 27.536,
      "duration": 0.107,
      "velocity": 0.71,
      "hand": "right"
    },
    {
      "midi": 49,
      "time": 27.643,
      "duration": 0.214,
      "velocity": 0.71,
      "hand": "left"
    },
    {
      "midi": 67,
      "time": 27.643,
      "duration": 0.107,
      "velocity": 0.71,
      "hand": "right"
    },
    {
      "midi": 68,
      "time": 27.75,
      "duration": 0.107,
      "velocity": 0.71,
      "hand": "right"
    },
    {
      "midi": 56,
      "time": 27.857,
      "duration": 0.214,
      "velocity": 0.71,
      "hand": "left"
    },
    {
      "midi": 61,
      "time": 27.857,
      "duration": 0.214,
      "velocity": 0.71,
      "hand": "right"
    },
    {
      "midi": 65,
      "time": 27.857,
      "duration": 0.214,
      "velocity": 0.71,
      "hand": "right"
    },
    {
      "midi": 70,
      "time": 27.857,
      "duration": 0.107,
      "velocity": 0.71,
      "hand": "right"
    },
    {
      "midi": 72,
      "time": 27.964,
      "duration": 0.107,
      "velocity": 0.71,
      "hand": "right"
    },
    {
      "midi": 73,
      "time": 28.071,
      "duration": 0.107,
      "velocity": 0.71,
      "hand": "right"
    },
    {
      "midi": 75,
      "time": 28.179,
      "duration": 0.107,
      "velocity": 0.71,
      "hand": "right"
    },
    {
      "midi": 57,
      "time": 28.286,
      "duration": 0.643,
      "velocity": 0.71,
      "hand": "left"
    },
    {
      "midi": 77,
      "time": 28.286,
      "duration": 0.054,
      "velocity": 0.71,
      "hand": "right"
    },
    {
      "midi": 78,
      "time": 28.339,
      "duration": 0.054,
      "velocity": 0.71,
      "hand": "right"
    },
    {
      "midi": 77,
      "time": 28.446,
      "duration": 0.054,
      "velocity": 0.71,
      "hand": "right"
    },
    {
      "midi": 63,
      "time": 28.5,
      "duration": 0.214,
      "velocity": 0.71,
      "hand": "right"
    },
    {
      "midi": 65,
      "time": 28.5,
      "duration": 0.214,
      "velocity": 0.71,
      "hand": "right"
    },
    {
      "midi": 76,
      "time": 28.5,
      "duration": 0.107,
      "velocity": 0.71,
      "hand": "right"
    },
    {
      "midi": 77,
      "time": 28.607,
      "duration": 0.107,
      "velocity": 0.71,
      "hand": "right"
    },
    {
      "midi": 63,
      "time": 28.714,
      "duration": 0.214,
      "velocity": 0.71,
      "hand": "right"
    },
    {
      "midi": 65,
      "time": 28.714,
      "duration": 0.214,
      "velocity": 0.71,
      "hand": "right"
    },
    {
      "midi": 80,
      "time": 28.714,
      "duration": 0.107,
      "velocity": 0.71,
      "hand": "right"
    },
    {
      "midi": 78,
      "time": 28.821,
      "duration": 0.107,
      "velocity": 0.71,
      "hand": "right"
    },
    {
      "midi": 58,
      "time": 28.929,
      "duration": 0.643,
      "velocity": 0.71,
      "hand": "left"
    },
    {
      "midi": 77,
      "time": 28.929,
      "duration": 0.107,
      "velocity": 0.71,
      "hand": "right"
    },
    {
      "midi": 78,
      "time": 29.036,
      "duration": 0.107,
      "velocity": 0.71,
      "hand": "right"
    },
    {
      "midi": 61,
      "time": 29.143,
      "duration": 0.214,
      "velocity": 0.71,
      "hand": "right"
    },
    {
      "midi": 65,
      "time": 29.143,
      "duration": 0.214,
      "velocity": 0.71,
      "hand": "right"
    },
    {
      "midi": 77,
      "time": 29.143,
      "duration": 0.107,
      "velocity": 0.71,
      "hand": "right"
    },
    {
      "midi": 76,
      "time": 29.25,
      "duration": 0.107,
      "velocity": 0.71,
      "hand": "right"
    },
    {
      "midi": 61,
      "time": 29.357,
      "duration": 0.214,
      "velocity": 0.71,
      "hand": "right"
    },
    {
      "midi": 65,
      "time": 29.357,
      "duration": 0.214,
      "velocity": 0.71,
      "hand": "right"
    },
    {
      "midi": 77,
      "time": 29.357,
      "duration": 0.107,
      "velocity": 0.71,
      "hand": "right"
    },
    {
      "midi": 82,
      "time": 29.464,
      "duration": 0.107,
      "velocity": 0.71,
      "hand": "right"
    },
    {
      "midi": 60,
      "time": 29.571,
      "duration": 0.643,
      "velocity": 0.71,
      "hand": "right"
    },
    {
      "midi": 80,
      "time": 29.571,
      "duration": 0.054,
      "velocity": 0.71,
      "hand": "right"
    },
    {
      "midi": 82,
      "time": 29.625,
      "duration": 0.054,
      "velocity": 0.71,
      "hand": "right"
    },
    {
      "midi": 80,
      "time": 29.732,
      "duration": 0.054,
      "velocity": 0.71,
      "hand": "right"
    },
    {
      "midi": 66,
      "time": 29.786,
      "duration": 0.214,
      "velocity": 0.71,
      "hand": "right"
    },
    {
      "midi": 68,
      "time": 29.786,
      "duration": 0.214,
      "velocity": 0.71,
      "hand": "right"
    },
    {
      "midi": 79,
      "time": 29.786,
      "duration": 0.107,
      "velocity": 0.71,
      "hand": "right"
    },
    {
      "midi": 80,
      "time": 29.893,
      "duration": 0.107,
      "velocity": 0.71,
      "hand": "right"
    },
    {
      "midi": 66,
      "time": 30,
      "duration": 0.214,
      "velocity": 0.71,
      "hand": "right"
    },
    {
      "midi": 68,
      "time": 30,
      "duration": 0.214,
      "velocity": 0.71,
      "hand": "right"
    },
    {
      "midi": 84,
      "time": 30,
      "duration": 0.107,
      "velocity": 0.71,
      "hand": "right"
    },
    {
      "midi": 82,
      "time": 30.107,
      "duration": 0.107,
      "velocity": 0.71,
      "hand": "right"
    },
    {
      "midi": 61,
      "time": 30.214,
      "duration": 0.214,
      "velocity": 0.71,
      "hand": "right"
    },
    {
      "midi": 80,
      "time": 30.214,
      "duration": 0.107,
      "velocity": 0.71,
      "hand": "right"
    },
    {
      "midi": 82,
      "time": 30.321,
      "duration": 0.107,
      "velocity": 0.71,
      "hand": "right"
    },
    {
      "midi": 65,
      "time": 30.429,
      "duration": 0.214,
      "velocity": 0.71,
      "hand": "right"
    },
    {
      "midi": 68,
      "time": 30.429,
      "duration": 0.214,
      "velocity": 0.71,
      "hand": "right"
    },
    {
      "midi": 80,
      "time": 30.429,
      "duration": 0.107,
      "velocity": 0.71,
      "hand": "right"
    },
    {
      "midi": 79,
      "time": 30.536,
      "duration": 0.107,
      "velocity": 0.71,
      "hand": "right"
    },
    {
      "midi": 80,
      "time": 30.643,
      "duration": 0.107,
      "velocity": 0.71,
      "hand": "right"
    },
    {
      "midi": 89,
      "time": 30.75,
      "duration": 0.107,
      "velocity": 0.71,
      "hand": "right"
    },
    {
      "midi": 54,
      "time": 30.857,
      "duration": 0.214,
      "velocity": 0.71,
      "hand": "left"
    },
    {
      "midi": 87,
      "time": 30.857,
      "duration": 0.107,
      "velocity": 0.71,
      "hand": "right"
    },
    {
      "midi": 85,
      "time": 30.964,
      "duration": 0.107,
      "velocity": 0.71,
      "hand": "right"
    },
    {
      "midi": 61,
      "time": 31.071,
      "duration": 0.214,
      "velocity": 0.71,
      "hand": "right"
    },
    {
      "midi": 63,
      "time": 31.071,
      "duration": 0.214,
      "velocity": 0.71,
      "hand": "right"
    },
    {
      "midi": 70,
      "time": 31.071,
      "duration": 0.214,
      "velocity": 0.71,
      "hand": "right"
    },
    {
      "midi": 84,
      "time": 31.071,
      "duration": 0.107,
      "velocity": 0.71,
      "hand": "right"
    },
    {
      "midi": 82,
      "time": 31.179,
      "duration": 0.107,
      "velocity": 0.71,
      "hand": "right"
    },
    {
      "midi": 80,
      "time": 31.286,
      "duration": 0.107,
      "velocity": 0.71,
      "hand": "right"
    },
    {
      "midi": 78,
      "time": 31.393,
      "duration": 0.107,
      "velocity": 0.71,
      "hand": "right"
    },
    {
      "midi": 44,
      "time": 31.5,
      "duration": 0.214,
      "velocity": 0.71,
      "hand": "left"
    },
    {
      "midi": 77,
      "time": 31.5,
      "duration": 0.107,
      "velocity": 0.71,
      "hand": "right"
    },
    {
      "midi": 75,
      "time": 31.607,
      "duration": 0.107,
      "velocity": 0.71,
      "hand": "right"
    },
    {
      "midi": 53,
      "time": 31.714,
      "duration": 0.214,
      "velocity": 0.71,
      "hand": "left"
    },
    {
      "midi": 56,
      "time": 31.714,
      "duration": 0.214,
      "velocity": 0.71,
      "hand": "left"
    },
    {
      "midi": 61,
      "time": 31.714,
      "duration": 0.214,
      "velocity": 0.71,
      "hand": "right"
    },
    {
      "midi": 73,
      "time": 31.714,
      "duration": 0.107,
      "velocity": 0.71,
      "hand": "right"
    },
    {
      "midi": 72,
      "time": 31.821,
      "duration": 0.107,
      "velocity": 0.71,
      "hand": "right"
    },
    {
      "midi": 70,
      "time": 31.929,
      "duration": 0.107,
      "velocity": 0.71,
      "hand": "right"
    },
    {
      "midi": 68,
      "time": 32.036,
      "duration": 0.107,
      "velocity": 0.71,
      "hand": "right"
    },
    {
      "midi": 44,
      "time": 32.143,
      "duration": 0.214,
      "velocity": 0.71,
      "hand": "left"
    },
    {
      "midi": 69,
      "time": 32.143,
      "duration": 0.107,
      "velocity": 0.71,
      "hand": "right"
    },
    {
      "midi": 72,
      "time": 32.25,
      "duration": 0.107,
      "velocity": 0.71,
      "hand": "right"
    },
    {
      "midi": 54,
      "time": 32.357,
      "duration": 0.214,
      "velocity": 0.71,
      "hand": "left"
    },
    {
      "midi": 56,
      "time": 32.357,
      "duration": 0.214,
      "velocity": 0.71,
      "hand": "left"
    },
    {
      "midi": 70,
      "time": 32.357,
      "duration": 0.107,
      "velocity": 0.71,
      "hand": "right"
    },
    {
      "midi": 65,
      "time": 32.464,
      "duration": 0.107,
      "velocity": 0.71,
      "hand": "right"
    },
    {
      "midi": 54,
      "time": 32.571,
      "duration": 0.214,
      "velocity": 0.71,
      "hand": "left"
    },
    {
      "midi": 56,
      "time": 32.571,
      "duration": 0.214,
      "velocity": 0.71,
      "hand": "left"
    },
    {
      "midi": 66,
      "time": 32.571,
      "duration": 0.107,
      "velocity": 0.71,
      "hand": "right"
    },
    {
      "midi": 60,
      "time": 32.679,
      "duration": 0.107,
      "velocity": 0.71,
      "hand": "right"
    },
    {
      "midi": 49,
      "time": 32.786,
      "duration": 0.214,
      "velocity": 0.71,
      "hand": "left"
    },
    {
      "midi": 61,
      "time": 32.786,
      "duration": 0.214,
      "velocity": 0.71,
      "hand": "right"
    },
    {
      "midi": 56,
      "time": 33,
      "duration": 0.214,
      "velocity": 0.71,
      "hand": "left"
    },
    {
      "midi": 65,
      "time": 33,
      "duration": 0.214,
      "velocity": 0.71,
      "hand": "right"
    },
    {
      "midi": 68,
      "time": 33.214,
      "duration": 0.643,
      "velocity": 0.71,
      "hand": "right"
    },
    {
      "midi": 44,
      "time": 33.429,
      "duration": 0.214,
      "velocity": 0.71,
      "hand": "left"
    },
    {
      "midi": 54,
      "time": 33.643,
      "duration": 0.214,
      "velocity": 0.71,
      "hand": "left"
    },
    {
      "midi": 56,
      "time": 33.643,
      "duration": 0.214,
      "velocity": 0.71,
      "hand": "left"
    },
    {
      "midi": 60,
      "time": 33.643,
      "duration": 0.214,
      "velocity": 0.71,
      "hand": "right"
    },
    {
      "midi": 54,
      "time": 33.857,
      "duration": 0.214,
      "velocity": 0.71,
      "hand": "left"
    },
    {
      "midi": 56,
      "time": 33.857,
      "duration": 0.214,
      "velocity": 0.71,
      "hand": "left"
    },
    {
      "midi": 60,
      "time": 33.857,
      "duration": 0.214,
      "velocity": 0.71,
      "hand": "right"
    },
    {
      "midi": 63,
      "time": 33.857,
      "duration": 0.214,
      "velocity": 0.71,
      "hand": "right"
    },
    {
      "midi": 54,
      "time": 34.071,
      "duration": 0.214,
      "velocity": 0.71,
      "hand": "left"
    },
    {
      "midi": 56,
      "time": 34.071,
      "duration": 0.214,
      "velocity": 0.71,
      "hand": "left"
    },
    {
      "midi": 60,
      "time": 34.071,
      "duration": 0.214,
      "velocity": 0.71,
      "hand": "right"
    },
    {
      "midi": 68,
      "time": 34.071,
      "duration": 0.429,
      "velocity": 0.71,
      "hand": "right"
    },
    {
      "midi": 54,
      "time": 34.286,
      "duration": 0.214,
      "velocity": 0.71,
      "hand": "left"
    },
    {
      "midi": 56,
      "time": 34.286,
      "duration": 0.214,
      "velocity": 0.71,
      "hand": "left"
    },
    {
      "midi": 60,
      "time": 34.286,
      "duration": 0.214,
      "velocity": 0.71,
      "hand": "right"
    },
    {
      "midi": 54,
      "time": 34.5,
      "duration": 0.214,
      "velocity": 0.71,
      "hand": "left"
    },
    {
      "midi": 56,
      "time": 34.5,
      "duration": 0.214,
      "velocity": 0.71,
      "hand": "left"
    },
    {
      "midi": 60,
      "time": 34.5,
      "duration": 0.214,
      "velocity": 0.71,
      "hand": "right"
    },
    {
      "midi": 64,
      "time": 34.5,
      "duration": 0.214,
      "velocity": 0.71,
      "hand": "right"
    },
    {
      "midi": 49,
      "time": 34.714,
      "duration": 0.214,
      "velocity": 0.71,
      "hand": "left"
    },
    {
      "midi": 68,
      "time": 34.714,
      "duration": 0.429,
      "velocity": 0.71,
      "hand": "right"
    },
    {
      "midi": 56,
      "time": 34.929,
      "duration": 0.214,
      "velocity": 0.71,
      "hand": "left"
    },
    {
      "midi": 61,
      "time": 34.929,
      "duration": 0.214,
      "velocity": 0.71,
      "hand": "right"
    },
    {
      "midi": 56,
      "time": 35.143,
      "duration": 0.214,
      "velocity": 0.71,
      "hand": "left"
    },
    {
      "midi": 61,
      "time": 35.143,
      "duration": 0.214,
      "velocity": 0.71,
      "hand": "right"
    },
    {
      "midi": 65,
      "time": 35.143,
      "duration": 0.214,
      "velocity": 0.71,
      "hand": "right"
    },
    {
      "midi": 44,
      "time": 35.357,
      "duration": 0.214,
      "velocity": 0.71,
      "hand": "left"
    },
    {
      "midi": 77,
      "time": 35.357,
      "duration": 0.429,
      "velocity": 0.71,
      "hand": "right"
    },
    {
      "midi": 56,
      "time": 35.571,
      "duration": 0.214,
      "velocity": 0.71,
      "hand": "left"
    },
    {
      "midi": 61,
      "time": 35.571,
      "duration": 0.214,
      "velocity": 0.71,
      "hand": "right"
    },
    {
      "midi": 65,
      "time": 35.571,
      "duration": 0.214,
      "velocity": 0.71,
      "hand": "right"
    },
    {
      "midi": 56,
      "time": 35.786,
      "duration": 0.214,
      "velocity": 0.71,
      "hand": "left"
    },
    {
      "midi": 61,
      "time": 35.786,
      "duration": 0.214,
      "velocity": 0.71,
      "hand": "right"
    },
    {
      "midi": 65,
      "time": 35.786,
      "duration": 0.214,
      "velocity": 0.71,
      "hand": "right"
    },
    {
      "midi": 77,
      "time": 35.786,
      "duration": 0.643,
      "velocity": 0.71,
      "hand": "right"
    },
    {
      "midi": 51,
      "time": 36,
      "duration": 0.214,
      "velocity": 0.71,
      "hand": "left"
    },
    {
      "midi": 56,
      "time": 36.214,
      "duration": 0.214,
      "velocity": 0.71,
      "hand": "left"
    },
    {
      "midi": 60,
      "time": 36.214,
      "duration": 0.214,
      "velocity": 0.71,
      "hand": "right"
    },
    {
      "midi": 66,
      "time": 36.214,
      "duration": 0.214,
      "velocity": 0.71,
      "hand": "right"
    },
    {
      "midi": 56,
      "time": 36.429,
      "duration": 0.214,
      "velocity": 0.71,
      "hand": "left"
    },
    {
      "midi": 60,
      "time": 36.429,
      "duration": 0.214,
      "velocity": 0.71,
      "hand": "right"
    },
    {
      "midi": 66,
      "time": 36.429,
      "duration": 0.214,
      "velocity": 0.71,
      "hand": "right"
    },
    {
      "midi": 70,
      "time": 36.429,
      "duration": 0.214,
      "velocity": 0.71,
      "hand": "right"
    },
    {
      "midi": 44,
      "time": 36.643,
      "duration": 0.214,
      "velocity": 0.71,
      "hand": "left"
    },
    {
      "midi": 77,
      "time": 36.643,
      "duration": 0.429,
      "velocity": 0.71,
      "hand": "right"
    },
    {
      "midi": 56,
      "time": 36.857,
      "duration": 0.214,
      "velocity": 0.71,
      "hand": "left"
    },
    {
      "midi": 63,
      "time": 36.857,
      "duration": 0.214,
      "velocity": 0.71,
      "hand": "right"
    },
    {
      "midi": 66,
      "time": 36.857,
      "duration": 0.214,
      "velocity": 0.71,
      "hand": "right"
    },
    {
      "midi": 56,
      "time": 37.071,
      "duration": 0.214,
      "velocity": 0.71,
      "hand": "left"
    },
    {
      "midi": 63,
      "time": 37.071,
      "duration": 0.214,
      "velocity": 0.71,
      "hand": "right"
    },
    {
      "midi": 66,
      "time": 37.071,
      "duration": 0.214,
      "velocity": 0.71,
      "hand": "right"
    },
    {
      "midi": 72,
      "time": 37.071,
      "duration": 0.214,
      "velocity": 0.71,
      "hand": "right"
    },
    {
      "midi": 49,
      "time": 37.286,
      "duration": 0.214,
      "velocity": 0.71,
      "hand": "left"
    },
    {
      "midi": 75,
      "time": 37.286,
      "duration": 0.429,
      "velocity": 0.71,
      "hand": "right"
    },
    {
      "midi": 56,
      "time": 37.5,
      "duration": 0.214,
      "velocity": 0.71,
      "hand": "left"
    },
    {
      "midi": 61,
      "time": 37.5,
      "duration": 0.214,
      "velocity": 0.71,
      "hand": "right"
    },
    {
      "midi": 65,
      "time": 37.5,
      "duration": 0.214,
      "velocity": 0.71,
      "hand": "right"
    },
    {
      "midi": 56,
      "time": 37.714,
      "duration": 0.214,
      "velocity": 0.71,
      "hand": "left"
    },
    {
      "midi": 61,
      "time": 37.714,
      "duration": 0.214,
      "velocity": 0.71,
      "hand": "right"
    },
    {
      "midi": 65,
      "time": 37.714,
      "duration": 0.214,
      "velocity": 0.71,
      "hand": "right"
    },
    {
      "midi": 73,
      "time": 37.714,
      "duration": 0.214,
      "velocity": 0.71,
      "hand": "right"
    },
    {
      "midi": 53,
      "time": 37.929,
      "duration": 0.214,
      "velocity": 0.71,
      "hand": "left"
    },
    {
      "midi": 72,
      "time": 37.929,
      "duration": 0.161,
      "velocity": 0.71,
      "hand": "right"
    },
    {
      "midi": 75,
      "time": 38.089,
      "duration": 0.161,
      "velocity": 0.71,
      "hand": "right"
    },
    {
      "midi": 56,
      "time": 38.143,
      "duration": 0.214,
      "velocity": 0.71,
      "hand": "left"
    },
    {
      "midi": 61,
      "time": 38.143,
      "duration": 0.214,
      "velocity": 0.71,
      "hand": "right"
    },
    {
      "midi": 65,
      "time": 38.143,
      "duration": 0.214,
      "velocity": 0.71,
      "hand": "right"
    },
    {
      "midi": 73,
      "time": 38.25,
      "duration": 0.161,
      "velocity": 0.71,
      "hand": "right"
    },
    {
      "midi": 56,
      "time": 38.357,
      "duration": 0.214,
      "velocity": 0.71,
      "hand": "left"
    },
    {
      "midi": 61,
      "time": 38.357,
      "duration": 0.214,
      "velocity": 0.71,
      "hand": "right"
    },
    {
      "midi": 65,
      "time": 38.357,
      "duration": 0.214,
      "velocity": 0.71,
      "hand": "right"
    },
    {
      "midi": 70,
      "time": 38.411,
      "duration": 0.161,
      "velocity": 0.71,
      "hand": "right"
    },
    {
      "midi": 48,
      "time": 38.571,
      "duration": 0.214,
      "velocity": 0.71,
      "hand": "left"
    },
    {
      "midi": 68,
      "time": 38.571,
      "duration": 0.429,
      "velocity": 0.71,
      "hand": "right"
    },
    {
      "midi": 54,
      "time": 38.786,
      "duration": 0.214,
      "velocity": 0.71,
      "hand": "left"
    },
    {
      "midi": 56,
      "time": 38.786,
      "duration": 0.214,
      "velocity": 0.71,
      "hand": "left"
    },
    {
      "midi": 54,
      "time": 39,
      "duration": 0.214,
      "velocity": 0.71,
      "hand": "left"
    },
    {
      "midi": 56,
      "time": 39,
      "duration": 0.214,
      "velocity": 0.71,
      "hand": "left"
    },
    {
      "midi": 63,
      "time": 39,
      "duration": 0.214,
      "velocity": 0.71,
      "hand": "right"
    },
    {
      "midi": 44,
      "time": 39.214,
      "duration": 0.214,
      "velocity": 0.71,
      "hand": "left"
    },
    {
      "midi": 68,
      "time": 39.214,
      "duration": 0.429,
      "velocity": 0.71,
      "hand": "right"
    },
    {
      "midi": 54,
      "time": 39.429,
      "duration": 0.214,
      "velocity": 0.71,
      "hand": "left"
    },
    {
      "midi": 56,
      "time": 39.429,
      "duration": 0.214,
      "velocity": 0.71,
      "hand": "left"
    },
    {
      "midi": 54,
      "time": 39.643,
      "duration": 0.214,
      "velocity": 0.71,
      "hand": "left"
    },
    {
      "midi": 56,
      "time": 39.643,
      "duration": 0.214,
      "velocity": 0.71,
      "hand": "left"
    },
    {
      "midi": 60,
      "time": 39.643,
      "duration": 0.214,
      "velocity": 0.71,
      "hand": "right"
    },
    {
      "midi": 64,
      "time": 39.643,
      "duration": 0.214,
      "velocity": 0.71,
      "hand": "right"
    },
    {
      "midi": 49,
      "time": 39.857,
      "duration": 0.214,
      "velocity": 0.71,
      "hand": "left"
    },
    {
      "midi": 68,
      "time": 39.857,
      "duration": 0.429,
      "velocity": 0.71,
      "hand": "right"
    },
    {
      "midi": 56,
      "time": 40.071,
      "duration": 0.214,
      "velocity": 0.71,
      "hand": "left"
    },
    {
      "midi": 61,
      "time": 40.071,
      "duration": 0.214,
      "velocity": 0.71,
      "hand": "right"
    },
    {
      "midi": 56,
      "time": 40.286,
      "duration": 0.214,
      "velocity": 0.71,
      "hand": "left"
    },
    {
      "midi": 61,
      "time": 40.286,
      "duration": 0.214,
      "velocity": 0.71,
      "hand": "right"
    },
    {
      "midi": 65,
      "time": 40.286,
      "duration": 0.214,
      "velocity": 0.71,
      "hand": "right"
    },
    {
      "midi": 47,
      "time": 40.5,
      "duration": 0.214,
      "velocity": 0.71,
      "hand": "left"
    },
    {
      "midi": 77,
      "time": 40.5,
      "duration": 0.643,
      "velocity": 0.71,
      "hand": "right"
    },
    {
      "midi": 56,
      "time": 40.714,
      "duration": 0.214,
      "velocity": 0.71,
      "hand": "left"
    },
    {
      "midi": 61,
      "time": 40.714,
      "duration": 0.214,
      "velocity": 0.71,
      "hand": "right"
    },
    {
      "midi": 65,
      "time": 40.714,
      "duration": 0.214,
      "velocity": 0.71,
      "hand": "right"
    },
    {
      "midi": 56,
      "time": 40.929,
      "duration": 0.214,
      "velocity": 0.71,
      "hand": "left"
    },
    {
      "midi": 61,
      "time": 40.929,
      "duration": 0.214,
      "velocity": 0.71,
      "hand": "right"
    },
    {
      "midi": 65,
      "time": 40.929,
      "duration": 0.214,
      "velocity": 0.71,
      "hand": "right"
    },
    {
      "midi": 48,
      "time": 41.143,
      "duration": 0.214,
      "velocity": 0.71,
      "hand": "left"
    },
    {
      "midi": 72,
      "time": 41.143,
      "duration": 0.214,
      "velocity": 0.71,
      "hand": "right"
    },
    {
      "midi": 56,
      "time": 41.357,
      "duration": 0.214,
      "velocity": 0.71,
      "hand": "left"
    },
    {
      "midi": 60,
      "time": 41.357,
      "duration": 0.214,
      "velocity": 0.71,
      "hand": "right"
    },
    {
      "midi": 65,
      "time": 41.357,
      "duration": 0.214,
      "velocity": 0.71,
      "hand": "right"
    },
    {
      "midi": 71,
      "time": 41.357,
      "duration": 0.214,
      "velocity": 0.71,
      "hand": "right"
    },
    {
      "midi": 56,
      "time": 41.571,
      "duration": 0.214,
      "velocity": 0.71,
      "hand": "left"
    },
    {
      "midi": 60,
      "time": 41.571,
      "duration": 0.214,
      "velocity": 0.71,
      "hand": "right"
    },
    {
      "midi": 65,
      "time": 41.571,
      "duration": 0.214,
      "velocity": 0.71,
      "hand": "right"
    },
    {
      "midi": 72,
      "time": 41.571,
      "duration": 0.214,
      "velocity": 0.71,
      "hand": "right"
    },
    {
      "midi": 36,
      "time": 41.786,
      "duration": 0.214,
      "velocity": 0.71,
      "hand": "left"
    },
    {
      "midi": 80,
      "time": 41.786,
      "duration": 0.214,
      "velocity": 0.71,
      "hand": "right"
    },
    {
      "midi": 55,
      "time": 42,
      "duration": 0.214,
      "velocity": 0.71,
      "hand": "left"
    },
    {
      "midi": 60,
      "time": 42,
      "duration": 0.214,
      "velocity": 0.71,
      "hand": "right"
    },
    {
      "midi": 64,
      "time": 42,
      "duration": 0.214,
      "velocity": 0.71,
      "hand": "right"
    },
    {
      "midi": 70,
      "time": 42,
      "duration": 0.214,
      "velocity": 0.71,
      "hand": "right"
    },
    {
      "midi": 79,
      "time": 42.214,
      "duration": 0.214,
      "velocity": 0.71,
      "hand": "right"
    },
    {
      "midi": 41,
      "time": 42.429,
      "duration": 0.214,
      "velocity": 0.71,
      "hand": "left"
    },
    {
      "midi": 69,
      "time": 42.429,
      "duration": 0.214,
      "velocity": 0.71,
      "hand": "right"
    },
    {
      "midi": 78,
      "time": 42.643,
      "duration": 0.214,
      "velocity": 0.71,
      "hand": "right"
    },
    {
      "midi": 53,
      "time": 42.857,
      "duration": 0.214,
      "velocity": 0.71,
      "hand": "left"
    },
    {
      "midi": 60,
      "time": 42.857,
      "duration": 0.214,
      "velocity": 0.71,
      "hand": "right"
    },
    {
      "midi": 68,
      "time": 42.857,
      "duration": 0.214,
      "velocity": 0.71,
      "hand": "right"
    },
    {
      "midi": 77,
      "time": 43.071,
      "duration": 0.214,
      "velocity": 0.71,
      "hand": "right"
    },
    {
      "midi": 65,
      "time": 43.286,
      "duration": 0.214,
      "velocity": 0.71,
      "hand": "right"
    },
    {
      "midi": 70,
      "time": 43.5,
      "duration": 0.214,
      "velocity": 0.71,
      "hand": "right"
    },
    {
      "midi": 48,
      "time": 43.714,
      "duration": 0.214,
      "velocity": 0.71,
      "hand": "left"
    },
    {
      "midi": 68,
      "time": 43.714,
      "duration": 0.429,
      "velocity": 0.71,
      "hand": "right"
    },
    {
      "midi": 54,
      "time": 43.929,
      "duration": 0.214,
      "velocity": 0.71,
      "hand": "left"
    },
    {
      "midi": 56,
      "time": 43.929,
      "duration": 0.214,
      "velocity": 0.71,
      "hand": "left"
    },
    {
      "midi": 54,
      "time": 44.143,
      "duration": 0.214,
      "velocity": 0.71,
      "hand": "left"
    },
    {
      "midi": 56,
      "time": 44.143,
      "duration": 0.214,
      "velocity": 0.71,
      "hand": "left"
    },
    {
      "midi": 63,
      "time": 44.143,
      "duration": 0.214,
      "velocity": 0.71,
      "hand": "right"
    },
    {
      "midi": 44,
      "time": 44.357,
      "duration": 0.214,
      "velocity": 0.71,
      "hand": "left"
    },
    {
      "midi": 68,
      "time": 44.357,
      "duration": 0.429,
      "velocity": 0.71,
      "hand": "right"
    },
    {
      "midi": 80,
      "time": 44.357,
      "duration": 0.027,
      "velocity": 0.71,
      "hand": "right"
    },
    {
      "midi": 54,
      "time": 44.571,
      "duration": 0.214,
      "velocity": 0.71,
      "hand": "left"
    },
    {
      "midi": 56,
      "time": 44.571,
      "duration": 0.214,
      "velocity": 0.71,
      "hand": "left"
    },
    {
      "midi": 60,
      "time": 44.571,
      "duration": 0.214,
      "velocity": 0.71,
      "hand": "right"
    },
    {
      "midi": 54,
      "time": 44.786,
      "duration": 0.214,
      "velocity": 0.71,
      "hand": "left"
    },
    {
      "midi": 56,
      "time": 44.786,
      "duration": 0.214,
      "velocity": 0.71,
      "hand": "left"
    },
    {
      "midi": 60,
      "time": 44.786,
      "duration": 0.214,
      "velocity": 0.71,
      "hand": "right"
    },
    {
      "midi": 64,
      "time": 44.786,
      "duration": 0.214,
      "velocity": 0.71,
      "hand": "right"
    },
    {
      "midi": 49,
      "time": 45,
      "duration": 0.214,
      "velocity": 0.71,
      "hand": "left"
    },
    {
      "midi": 68,
      "time": 45,
      "duration": 0.429,
      "velocity": 0.71,
      "hand": "right"
    },
    {
      "midi": 80,
      "time": 45,
      "duration": 0.027,
      "velocity": 0.71,
      "hand": "right"
    },
    {
      "midi": 56,
      "time": 45.214,
      "duration": 0.214,
      "velocity": 0.71,
      "hand": "left"
    },
    {
      "midi": 61,
      "time": 45.214,
      "duration": 0.214,
      "velocity": 0.71,
      "hand": "right"
    },
    {
      "midi": 56,
      "time": 45.429,
      "duration": 0.214,
      "velocity": 0.71,
      "hand": "left"
    },
    {
      "midi": 61,
      "time": 45.429,
      "duration": 0.214,
      "velocity": 0.71,
      "hand": "right"
    },
    {
      "midi": 65,
      "time": 45.429,
      "duration": 0.214,
      "velocity": 0.71,
      "hand": "right"
    },
    {
      "midi": 44,
      "time": 45.643,
      "duration": 0.214,
      "velocity": 0.71,
      "hand": "left"
    },
    {
      "midi": 77,
      "time": 45.643,
      "duration": 0.429,
      "velocity": 0.71,
      "hand": "right"
    },
    {
      "midi": 80,
      "time": 45.643,
      "duration": 0.027,
      "velocity": 0.71,
      "hand": "right"
    },
    {
      "midi": 56,
      "time": 45.857,
      "duration": 0.214,
      "velocity": 0.71,
      "hand": "left"
    },
    {
      "midi": 61,
      "time": 45.857,
      "duration": 0.214,
      "velocity": 0.71,
      "hand": "right"
    },
    {
      "midi": 65,
      "time": 45.857,
      "duration": 0.214,
      "velocity": 0.71,
      "hand": "right"
    },
    {
      "midi": 56,
      "time": 46.071,
      "duration": 0.214,
      "velocity": 0.71,
      "hand": "left"
    },
    {
      "midi": 61,
      "time": 46.071,
      "duration": 0.214,
      "velocity": 0.71,
      "hand": "right"
    },
    {
      "midi": 65,
      "time": 46.071,
      "duration": 0.214,
      "velocity": 0.71,
      "hand": "right"
    },
    {
      "midi": 77,
      "time": 46.071,
      "duration": 0.214,
      "velocity": 0.71,
      "hand": "right"
    },
    {
      "midi": 51,
      "time": 46.286,
      "duration": 0.214,
      "velocity": 0.71,
      "hand": "left"
    },
    {
      "midi": 77,
      "time": 46.286,
      "duration": 0.429,
      "velocity": 0.71,
      "hand": "right"
    },
    {
      "midi": 80,
      "time": 46.286,
      "duration": 0.027,
      "velocity": 0.71,
      "hand": "right"
    },
    {
      "midi": 56,
      "time": 46.5,
      "duration": 0.214,
      "velocity": 0.71,
      "hand": "left"
    },
    {
      "midi": 60,
      "time": 46.5,
      "duration": 0.214,
      "velocity": 0.71,
      "hand": "right"
    },
    {
      "midi": 66,
      "time": 46.5,
      "duration": 0.214,
      "velocity": 0.71,
      "hand": "right"
    },
    {
      "midi": 56,
      "time": 46.714,
      "duration": 0.214,
      "velocity": 0.71,
      "hand": "left"
    },
    {
      "midi": 60,
      "time": 46.714,
      "duration": 0.214,
      "velocity": 0.71,
      "hand": "right"
    },
    {
      "midi": 66,
      "time": 46.714,
      "duration": 0.214,
      "velocity": 0.71,
      "hand": "right"
    },
    {
      "midi": 70,
      "time": 46.714,
      "duration": 0.214,
      "velocity": 0.71,
      "hand": "right"
    },
    {
      "midi": 44,
      "time": 46.929,
      "duration": 0.214,
      "velocity": 0.71,
      "hand": "left"
    },
    {
      "midi": 77,
      "time": 46.929,
      "duration": 0.429,
      "velocity": 0.71,
      "hand": "right"
    },
    {
      "midi": 80,
      "time": 46.929,
      "duration": 0.027,
      "velocity": 0.71,
      "hand": "right"
    },
    {
      "midi": 56,
      "time": 47.143,
      "duration": 0.214,
      "velocity": 0.71,
      "hand": "left"
    },
    {
      "midi": 63,
      "time": 47.143,
      "duration": 0.214,
      "velocity": 0.71,
      "hand": "right"
    },
    {
      "midi": 66,
      "time": 47.143,
      "duration": 0.214,
      "velocity": 0.71,
      "hand": "right"
    },
    {
      "midi": 56,
      "time": 47.357,
      "duration": 0.214,
      "velocity": 0.71,
      "hand": "left"
    },
    {
      "midi": 63,
      "time": 47.357,
      "duration": 0.214,
      "velocity": 0.71,
      "hand": "right"
    },
    {
      "midi": 66,
      "time": 47.357,
      "duration": 0.214,
      "velocity": 0.71,
      "hand": "right"
    },
    {
      "midi": 72,
      "time": 47.357,
      "duration": 0.214,
      "velocity": 0.71,
      "hand": "right"
    },
    {
      "midi": 49,
      "time": 47.571,
      "duration": 0.214,
      "velocity": 0.71,
      "hand": "left"
    },
    {
      "midi": 75,
      "time": 47.571,
      "duration": 0.214,
      "velocity": 0.71,
      "hand": "right"
    },
    {
      "midi": 80,
      "time": 47.571,
      "duration": 0.027,
      "velocity": 0.71,
      "hand": "right"
    },
    {
      "midi": 56,
      "time": 47.786,
      "duration": 0.214,
      "velocity": 0.71,
      "hand": "left"
    },
    {
      "midi": 61,
      "time": 47.786,
      "duration": 0.214,
      "velocity": 0.71,
      "hand": "right"
    },
    {
      "midi": 65,
      "time": 47.786,
      "duration": 0.214,
      "velocity": 0.71,
      "hand": "right"
    },
    {
      "midi": 73,
      "time": 47.786,
      "duration": 0.214,
      "velocity": 0.71,
      "hand": "right"
    },
    {
      "midi": 56,
      "time": 48,
      "duration": 0.214,
      "velocity": 0.71,
      "hand": "left"
    },
    {
      "midi": 61,
      "time": 48,
      "duration": 0.214,
      "velocity": 0.71,
      "hand": "right"
    },
    {
      "midi": 65,
      "time": 48,
      "duration": 0.214,
      "velocity": 0.71,
      "hand": "right"
    },
    {
      "midi": 72,
      "time": 48,
      "duration": 0.214,
      "velocity": 0.71,
      "hand": "right"
    },
    {
      "midi": 53,
      "time": 48.214,
      "duration": 0.214,
      "velocity": 0.71,
      "hand": "left"
    },
    {
      "midi": 75,
      "time": 48.214,
      "duration": 0.214,
      "velocity": 0.71,
      "hand": "right"
    },
    {
      "midi": 80,
      "time": 48.214,
      "duration": 0.027,
      "velocity": 0.71,
      "hand": "right"
    },
    {
      "midi": 56,
      "time": 48.429,
      "duration": 0.214,
      "velocity": 0.71,
      "hand": "left"
    },
    {
      "midi": 61,
      "time": 48.429,
      "duration": 0.214,
      "velocity": 0.71,
      "hand": "right"
    },
    {
      "midi": 65,
      "time": 48.429,
      "duration": 0.214,
      "velocity": 0.71,
      "hand": "right"
    },
    {
      "midi": 73,
      "time": 48.429,
      "duration": 0.321,
      "velocity": 0.71,
      "hand": "right"
    },
    {
      "midi": 56,
      "time": 48.643,
      "duration": 0.214,
      "velocity": 0.71,
      "hand": "left"
    },
    {
      "midi": 61,
      "time": 48.643,
      "duration": 0.214,
      "velocity": 0.71,
      "hand": "right"
    },
    {
      "midi": 65,
      "time": 48.643,
      "duration": 0.214,
      "velocity": 0.71,
      "hand": "right"
    },
    {
      "midi": 70,
      "time": 48.75,
      "duration": 0.107,
      "velocity": 0.71,
      "hand": "right"
    },
    {
      "midi": 48,
      "time": 48.857,
      "duration": 0.643,
      "velocity": 0.71,
      "hand": "left"
    },
    {
      "midi": 68,
      "time": 48.857,
      "duration": 0.429,
      "velocity": 0.71,
      "hand": "right"
    },
    {
      "midi": 80,
      "time": 48.857,
      "duration": 0.027,
      "velocity": 0.71,
      "hand": "right"
    },
    {
      "midi": 54,
      "time": 49.071,
      "duration": 0.214,
      "velocity": 0.71,
      "hand": "left"
    },
    {
      "midi": 56,
      "time": 49.071,
      "duration": 0.214,
      "velocity": 0.71,
      "hand": "left"
    },
    {
      "midi": 54,
      "time": 49.286,
      "duration": 0.214,
      "velocity": 0.71,
      "hand": "left"
    },
    {
      "midi": 56,
      "time": 49.286,
      "duration": 0.214,
      "velocity": 0.71,
      "hand": "left"
    },
    {
      "midi": 63,
      "time": 49.286,
      "duration": 0.214,
      "velocity": 0.71,
      "hand": "right"
    },
    {
      "midi": 44,
      "time": 49.5,
      "duration": 0.214,
      "velocity": 0.71,
      "hand": "left"
    },
    {
      "midi": 68,
      "time": 49.5,
      "duration": 0.429,
      "velocity": 0.71,
      "hand": "right"
    },
    {
      "midi": 80,
      "time": 49.5,
      "duration": 0.027,
      "velocity": 0.71,
      "hand": "right"
    },
    {
      "midi": 54,
      "time": 49.714,
      "duration": 0.214,
      "velocity": 0.71,
      "hand": "left"
    },
    {
      "midi": 56,
      "time": 49.714,
      "duration": 0.214,
      "velocity": 0.71,
      "hand": "left"
    },
    {
      "midi": 60,
      "time": 49.714,
      "duration": 0.214,
      "velocity": 0.71,
      "hand": "right"
    },
    {
      "midi": 54,
      "time": 49.929,
      "duration": 0.214,
      "velocity": 0.71,
      "hand": "left"
    },
    {
      "midi": 56,
      "time": 49.929,
      "duration": 0.214,
      "velocity": 0.71,
      "hand": "left"
    },
    {
      "midi": 60,
      "time": 49.929,
      "duration": 0.214,
      "velocity": 0.71,
      "hand": "right"
    },
    {
      "midi": 64,
      "time": 49.929,
      "duration": 0.214,
      "velocity": 0.71,
      "hand": "right"
    },
    {
      "midi": 47,
      "time": 50.143,
      "duration": 0.214,
      "velocity": 0.71,
      "hand": "left"
    },
    {
      "midi": 68,
      "time": 50.143,
      "duration": 0.429,
      "velocity": 0.71,
      "hand": "right"
    },
    {
      "midi": 80,
      "time": 50.143,
      "duration": 0.027,
      "velocity": 0.71,
      "hand": "right"
    },
    {
      "midi": 53,
      "time": 50.357,
      "duration": 0.214,
      "velocity": 0.71,
      "hand": "left"
    },
    {
      "midi": 56,
      "time": 50.357,
      "duration": 0.214,
      "velocity": 0.71,
      "hand": "left"
    },
    {
      "midi": 63,
      "time": 50.357,
      "duration": 0.214,
      "velocity": 0.71,
      "hand": "right"
    },
    {
      "midi": 53,
      "time": 50.571,
      "duration": 0.214,
      "velocity": 0.71,
      "hand": "left"
    },
    {
      "midi": 56,
      "time": 50.571,
      "duration": 0.214,
      "velocity": 0.71,
      "hand": "left"
    },
    {
      "midi": 63,
      "time": 50.571,
      "duration": 0.214,
      "velocity": 0.71,
      "hand": "right"
    },
    {
      "midi": 65,
      "time": 50.571,
      "duration": 0.214,
      "velocity": 0.71,
      "hand": "right"
    },
    {
      "midi": 46,
      "time": 50.786,
      "duration": 0.214,
      "velocity": 0.71,
      "hand": "left"
    },
    {
      "midi": 77,
      "time": 50.786,
      "duration": 0.643,
      "velocity": 0.71,
      "hand": "right"
    },
    {
      "midi": 53,
      "time": 51,
      "duration": 0.214,
      "velocity": 0.71,
      "hand": "left"
    },
    {
      "midi": 56,
      "time": 51,
      "duration": 0.214,
      "velocity": 0.71,
      "hand": "left"
    },
    {
      "midi": 62,
      "time": 51,
      "duration": 0.214,
      "velocity": 0.71,
      "hand": "right"
    },
    {
      "midi": 53,
      "time": 51.214,
      "duration": 0.214,
      "velocity": 0.71,
      "hand": "left"
    },
    {
      "midi": 56,
      "time": 51.214,
      "duration": 0.214,
      "velocity": 0.71,
      "hand": "left"
    },
    {
      "midi": 62,
      "time": 51.214,
      "duration": 0.214,
      "velocity": 0.71,
      "hand": "right"
    },
    {
      "midi": 51,
      "time": 51.429,
      "duration": 0.214,
      "velocity": 0.71,
      "hand": "left"
    },
    {
      "midi": 77,
      "time": 51.429,
      "duration": 0.429,
      "velocity": 0.71,
      "hand": "right"
    },
    {
      "midi": 61,
      "time": 51.643,
      "duration": 0.214,
      "velocity": 0.71,
      "hand": "right"
    },
    {
      "midi": 67,
      "time": 51.643,
      "duration": 0.214,
      "velocity": 0.71,
      "hand": "right"
    },
    {
      "midi": 61,
      "time": 51.857,
      "duration": 0.214,
      "velocity": 0.71,
      "hand": "right"
    },
    {
      "midi": 67,
      "time": 51.857,
      "duration": 0.214,
      "velocity": 0.71,
      "hand": "right"
    },
    {
      "midi": 70,
      "time": 51.857,
      "duration": 0.214,
      "velocity": 0.71,
      "hand": "right"
    },
    {
      "midi": 75,
      "time": 52.071,
      "duration": 0.429,
      "velocity": 0.71,
      "hand": "right"
    },
    {
      "midi": 61,
      "time": 52.286,
      "duration": 0.214,
      "velocity": 0.71,
      "hand": "right"
    },
    {
      "midi": 66,
      "time": 52.286,
      "duration": 0.214,
      "velocity": 0.71,
      "hand": "right"
    },
    {
      "midi": 61,
      "time": 52.5,
      "duration": 0.214,
      "velocity": 0.71,
      "hand": "right"
    },
    {
      "midi": 66,
      "time": 52.5,
      "duration": 0.214,
      "velocity": 0.71,
      "hand": "right"
    },
    {
      "midi": 69,
      "time": 52.5,
      "duration": 0.214,
      "velocity": 0.71,
      "hand": "right"
    },
    {
      "midi": 56,
      "time": 52.714,
      "duration": 0.429,
      "velocity": 0.71,
      "hand": "left"
    },
    {
      "midi": 75,
      "time": 52.714,
      "duration": 0.214,
      "velocity": 0.71,
      "hand": "right"
    },
    {
      "midi": 60,
      "time": 52.929,
      "duration": 0.214,
      "velocity": 0.71,
      "hand": "right"
    },
    {
      "midi": 66,
      "time": 52.929,
      "duration": 0.214,
      "velocity": 0.71,
      "hand": "right"
    },
    {
      "midi": 68,
      "time": 52.929,
      "duration": 0.214,
      "velocity": 0.71,
      "hand": "right"
    },
    {
      "midi": 74,
      "time": 53.143,
      "duration": 0.214,
      "velocity": 0.71,
      "hand": "right"
    },
    {
      "midi": 77,
      "time": 53.357,
      "duration": 0.214,
      "velocity": 0.71,
      "hand": "right"
    },
    {
      "midi": 75,
      "time": 53.571,
      "duration": 0.214,
      "velocity": 0.71,
      "hand": "right"
    },
    {
      "midi": 80,
      "time": 53.786,
      "duration": 0.214,
      "velocity": 0.71,
      "hand": "right"
    },
    {
      "midi": 68,
      "time": 54,
      "duration": 2.571,
      "velocity": 0.71,
      "hand": "right"
    },
    {
      "midi": 67,
      "time": 56.571,
      "duration": 0.107,
      "velocity": 0.71,
      "hand": "right"
    },
    {
      "midi": 68,
      "time": 56.679,
      "duration": 0.107,
      "velocity": 0.71,
      "hand": "right"
    },
    {
      "midi": 72,
      "time": 56.786,
      "duration": 0.107,
      "velocity": 0.71,
      "hand": "right"
    },
    {
      "midi": 70,
      "time": 56.893,
      "duration": 0.107,
      "velocity": 0.71,
      "hand": "right"
    },
    {
      "midi": 67,
      "time": 57,
      "duration": 0.107,
      "velocity": 0.71,
      "hand": "right"
    },
    {
      "midi": 68,
      "time": 57.107,
      "duration": 0.107,
      "velocity": 0.71,
      "hand": "right"
    },
    {
      "midi": 72,
      "time": 57.214,
      "duration": 0.107,
      "velocity": 0.71,
      "hand": "right"
    },
    {
      "midi": 70,
      "time": 57.321,
      "duration": 0.107,
      "velocity": 0.71,
      "hand": "right"
    },
    {
      "midi": 67,
      "time": 57.429,
      "duration": 0.107,
      "velocity": 0.71,
      "hand": "right"
    },
    {
      "midi": 68,
      "time": 57.536,
      "duration": 0.107,
      "velocity": 0.71,
      "hand": "right"
    },
    {
      "midi": 72,
      "time": 57.643,
      "duration": 0.107,
      "velocity": 0.71,
      "hand": "right"
    },
    {
      "midi": 70,
      "time": 57.75,
      "duration": 0.107,
      "velocity": 0.71,
      "hand": "right"
    },
    {
      "midi": 67,
      "time": 57.857,
      "duration": 0.107,
      "velocity": 0.71,
      "hand": "right"
    },
    {
      "midi": 68,
      "time": 57.964,
      "duration": 0.107,
      "velocity": 0.71,
      "hand": "right"
    },
    {
      "midi": 72,
      "time": 58.071,
      "duration": 0.107,
      "velocity": 0.71,
      "hand": "right"
    },
    {
      "midi": 70,
      "time": 58.179,
      "duration": 0.107,
      "velocity": 0.71,
      "hand": "right"
    },
    {
      "midi": 67,
      "time": 58.286,
      "duration": 0.107,
      "velocity": 0.71,
      "hand": "right"
    },
    {
      "midi": 68,
      "time": 58.393,
      "duration": 0.107,
      "velocity": 0.71,
      "hand": "right"
    },
    {
      "midi": 72,
      "time": 58.5,
      "duration": 0.107,
      "velocity": 0.71,
      "hand": "right"
    },
    {
      "midi": 70,
      "time": 58.607,
      "duration": 0.107,
      "velocity": 0.71,
      "hand": "right"
    },
    {
      "midi": 67,
      "time": 58.714,
      "duration": 0.107,
      "velocity": 0.71,
      "hand": "right"
    },
    {
      "midi": 68,
      "time": 58.821,
      "duration": 0.107,
      "velocity": 0.71,
      "hand": "right"
    },
    {
      "midi": 72,
      "time": 58.929,
      "duration": 0.107,
      "velocity": 0.71,
      "hand": "right"
    },
    {
      "midi": 70,
      "time": 59.036,
      "duration": 0.107,
      "velocity": 0.71,
      "hand": "right"
    },
    {
      "midi": 37,
      "time": 59.143,
      "duration": 0.214,
      "velocity": 0.71,
      "hand": "left"
    },
    {
      "midi": 67,
      "time": 59.143,
      "duration": 0.107,
      "velocity": 0.71,
      "hand": "right"
    },
    {
      "midi": 68,
      "time": 59.25,
      "duration": 0.107,
      "velocity": 0.71,
      "hand": "right"
    },
    {
      "midi": 56,
      "time": 59.357,
      "duration": 0.214,
      "velocity": 0.71,
      "hand": "left"
    },
    {
      "midi": 61,
      "time": 59.357,
      "duration": 0.214,
      "velocity": 0.71,
      "hand": "right"
    },
    {
      "midi": 65,
      "time": 59.357,
      "duration": 0.214,
      "velocity": 0.71,
      "hand": "right"
    },
    {
      "midi": 72,
      "time": 59.357,
      "duration": 0.107,
      "velocity": 0.71,
      "hand": "right"
    },
    {
      "midi": 70,
      "time": 59.464,
      "duration": 0.107,
      "velocity": 0.71,
      "hand": "right"
    },
    {
      "midi": 56,
      "time": 59.571,
      "duration": 0.214,
      "velocity": 0.71,
      "hand": "left"
    },
    {
      "midi": 61,
      "time": 59.571,
      "duration": 0.214,
      "velocity": 0.71,
      "hand": "right"
    },
    {
      "midi": 65,
      "time": 59.571,
      "duration": 0.214,
      "velocity": 0.71,
      "hand": "right"
    },
    {
      "midi": 67,
      "time": 59.571,
      "duration": 0.107,
      "velocity": 0.71,
      "hand": "right"
    },
    {
      "midi": 68,
      "time": 59.679,
      "duration": 0.107,
      "velocity": 0.71,
      "hand": "right"
    },
    {
      "midi": 53,
      "time": 59.786,
      "duration": 0.214,
      "velocity": 0.71,
      "hand": "left"
    },
    {
      "midi": 72,
      "time": 59.786,
      "duration": 0.107,
      "velocity": 0.71,
      "hand": "right"
    },
    {
      "midi": 70,
      "time": 59.893,
      "duration": 0.107,
      "velocity": 0.71,
      "hand": "right"
    },
    {
      "midi": 56,
      "time": 60,
      "duration": 0.214,
      "velocity": 0.71,
      "hand": "left"
    },
    {
      "midi": 61,
      "time": 60,
      "duration": 0.214,
      "velocity": 0.71,
      "hand": "right"
    },
    {
      "midi": 65,
      "time": 60,
      "duration": 0.214,
      "velocity": 0.71,
      "hand": "right"
    },
    {
      "midi": 67,
      "time": 60,
      "duration": 0.107,
      "velocity": 0.71,
      "hand": "right"
    },
    {
      "midi": 68,
      "time": 60.107,
      "duration": 0.107,
      "velocity": 0.71,
      "hand": "right"
    },
    {
      "midi": 56,
      "time": 60.214,
      "duration": 0.214,
      "velocity": 0.71,
      "hand": "left"
    },
    {
      "midi": 61,
      "time": 60.214,
      "duration": 0.214,
      "velocity": 0.71,
      "hand": "right"
    },
    {
      "midi": 65,
      "time": 60.214,
      "duration": 0.214,
      "velocity": 0.71,
      "hand": "right"
    },
    {
      "midi": 72,
      "time": 60.214,
      "duration": 0.107,
      "velocity": 0.71,
      "hand": "right"
    },
    {
      "midi": 70,
      "time": 60.321,
      "duration": 0.107,
      "velocity": 0.71,
      "hand": "right"
    },
    {
      "midi": 49,
      "time": 60.429,
      "duration": 0.214,
      "velocity": 0.71,
      "hand": "left"
    },
    {
      "midi": 67,
      "time": 60.429,
      "duration": 0.107,
      "velocity": 0.71,
      "hand": "right"
    },
    {
      "midi": 68,
      "time": 60.536,
      "duration": 0.107,
      "velocity": 0.71,
      "hand": "right"
    },
    {
      "midi": 56,
      "time": 60.643,
      "duration": 0.214,
      "velocity": 0.71,
      "hand": "left"
    },
    {
      "midi": 61,
      "time": 60.643,
      "duration": 0.214,
      "velocity": 0.71,
      "hand": "right"
    },
    {
      "midi": 65,
      "time": 60.643,
      "duration": 0.214,
      "velocity": 0.71,
      "hand": "right"
    },
    {
      "midi": 72,
      "time": 60.643,
      "duration": 0.107,
      "velocity": 0.71,
      "hand": "right"
    },
    {
      "midi": 70,
      "time": 60.75,
      "duration": 0.107,
      "velocity": 0.71,
      "hand": "right"
    },
    {
      "midi": 56,
      "time": 60.857,
      "duration": 0.214,
      "velocity": 0.71,
      "hand": "left"
    },
    {
      "midi": 61,
      "time": 60.857,
      "duration": 0.214,
      "velocity": 0.71,
      "hand": "right"
    },
    {
      "midi": 65,
      "time": 60.857,
      "duration": 0.214,
      "velocity": 0.71,
      "hand": "right"
    },
    {
      "midi": 67,
      "time": 60.857,
      "duration": 0.107,
      "velocity": 0.71,
      "hand": "right"
    },
    {
      "midi": 68,
      "time": 60.964,
      "duration": 0.107,
      "velocity": 0.71,
      "hand": "right"
    },
    {
      "midi": 53,
      "time": 61.071,
      "duration": 0.214,
      "velocity": 0.71,
      "hand": "left"
    },
    {
      "midi": 70,
      "time": 61.071,
      "duration": 0.107,
      "velocity": 0.71,
      "hand": "right"
    },
    {
      "midi": 72,
      "time": 61.179,
      "duration": 0.107,
      "velocity": 0.71,
      "hand": "right"
    },
    {
      "midi": 56,
      "time": 61.286,
      "duration": 0.214,
      "velocity": 0.71,
      "hand": "left"
    },
    {
      "midi": 61,
      "time": 61.286,
      "duration": 0.214,
      "velocity": 0.71,
      "hand": "right"
    },
    {
      "midi": 65,
      "time": 61.286,
      "duration": 0.214,
      "velocity": 0.71,
      "hand": "right"
    },
    {
      "midi": 73,
      "time": 61.286,
      "duration": 0.107,
      "velocity": 0.71,
      "hand": "right"
    },
    {
      "midi": 75,
      "time": 61.393,
      "duration": 0.107,
      "velocity": 0.71,
      "hand": "right"
    },
    {
      "midi": 56,
      "time": 61.5,
      "duration": 0.214,
      "velocity": 0.71,
      "hand": "left"
    },
    {
      "midi": 61,
      "time": 61.5,
      "duration": 0.214,
      "velocity": 0.71,
      "hand": "right"
    },
    {
      "midi": 65,
      "time": 61.5,
      "duration": 0.214,
      "velocity": 0.71,
      "hand": "right"
    },
    {
      "midi": 77,
      "time": 61.5,
      "duration": 0.107,
      "velocity": 0.71,
      "hand": "right"
    },
    {
      "midi": 78,
      "time": 61.607,
      "duration": 0.107,
      "velocity": 0.71,
      "hand": "right"
    },
    {
      "midi": 44,
      "time": 61.714,
      "duration": 0.214,
      "velocity": 0.71,
      "hand": "left"
    },
    {
      "midi": 82,
      "time": 61.714,
      "duration": 0.321,
      "velocity": 0.71,
      "hand": "right"
    },
    {
      "midi": 56,
      "time": 61.929,
      "duration": 0.214,
      "velocity": 0.71,
      "hand": "left"
    },
    {
      "midi": 60,
      "time": 61.929,
      "duration": 0.214,
      "velocity": 0.71,
      "hand": "right"
    },
    {
      "midi": 66,
      "time": 61.929,
      "duration": 0.214,
      "velocity": 0.71,
      "hand": "right"
    },
    {
      "midi": 80,
      "time": 62.036,
      "duration": 0.107,
      "velocity": 0.71,
      "hand": "right"
    },
    {
      "midi": 56,
      "time": 62.143,
      "duration": 0.214,
      "velocity": 0.71,
      "hand": "left"
    },
    {
      "midi": 60,
      "time": 62.143,
      "duration": 0.214,
      "velocity": 0.71,
      "hand": "right"
    },
    {
      "midi": 66,
      "time": 62.143,
      "duration": 0.214,
      "velocity": 0.71,
      "hand": "right"
    },
    {
      "midi": 78,
      "time": 62.143,
      "duration": 0.107,
      "velocity": 0.71,
      "hand": "right"
    },
    {
      "midi": 77,
      "time": 62.25,
      "duration": 0.107,
      "velocity": 0.71,
      "hand": "right"
    },
    {
      "midi": 51,
      "time": 62.357,
      "duration": 0.214,
      "velocity": 0.71,
      "hand": "left"
    },
    {
      "midi": 77,
      "time": 62.357,
      "duration": 0.107,
      "velocity": 0.71,
      "hand": "right"
    },
    {
      "midi": 75,
      "time": 62.464,
      "duration": 0.107,
      "velocity": 0.71,
      "hand": "right"
    },
    {
      "midi": 56,
      "time": 62.571,
      "duration": 0.214,
      "velocity": 0.71,
      "hand": "left"
    },
    {
      "midi": 60,
      "time": 62.571,
      "duration": 0.214,
      "velocity": 0.71,
      "hand": "right"
    },
    {
      "midi": 66,
      "time": 62.571,
      "duration": 0.214,
      "velocity": 0.71,
      "hand": "right"
    },
    {
      "midi": 75,
      "time": 62.571,
      "duration": 0.107,
      "velocity": 0.71,
      "hand": "right"
    },
    {
      "midi": 74,
      "time": 62.679,
      "duration": 0.107,
      "velocity": 0.71,
      "hand": "right"
    },
    {
      "midi": 56,
      "time": 62.786,
      "duration": 0.214,
      "velocity": 0.71,
      "hand": "left"
    },
    {
      "midi": 60,
      "time": 62.786,
      "duration": 0.214,
      "velocity": 0.71,
      "hand": "right"
    },
    {
      "midi": 66,
      "time": 62.786,
      "duration": 0.214,
      "velocity": 0.71,
      "hand": "right"
    },
    {
      "midi": 75,
      "time": 62.786,
      "duration": 0.214,
      "velocity": 0.71,
      "hand": "right"
    },
    {
      "midi": 44,
      "time": 63,
      "duration": 0.214,
      "velocity": 0.71,
      "hand": "left"
    },
    {
      "midi": 82,
      "time": 63,
      "duration": 0.321,
      "velocity": 0.71,
      "hand": "right"
    },
    {
      "midi": 60,
      "time": 63.214,
      "duration": 0.214,
      "velocity": 0.71,
      "hand": "right"
    },
    {
      "midi": 66,
      "time": 63.214,
      "duration": 0.214,
      "velocity": 0.71,
      "hand": "right"
    },
    {
      "midi": 80,
      "time": 63.321,
      "duration": 0.107,
      "velocity": 0.71,
      "hand": "right"
    },
    {
      "midi": 60,
      "time": 63.429,
      "duration": 0.214,
      "velocity": 0.71,
      "hand": "right"
    },
    {
      "midi": 66,
      "time": 63.429,
      "duration": 0.214,
      "velocity": 0.71,
      "hand": "right"
    },
    {
      "midi": 78,
      "time": 63.429,
      "duration": 0.107,
      "velocity": 0.71,
      "hand": "right"
    },
    {
      "midi": 77,
      "time": 63.536,
      "duration": 0.107,
      "velocity": 0.71,
      "hand": "right"
    },
    {
      "midi": 56,
      "time": 63.643,
      "duration": 0.214,
      "velocity": 0.71,
      "hand": "left"
    },
    {
      "midi": 77,
      "time": 63.643,
      "duration": 0.107,
      "velocity": 0.71,
      "hand": "right"
    },
    {
      "midi": 75,
      "time": 63.75,
      "duration": 0.107,
      "velocity": 0.71,
      "hand": "right"
    },
    {
      "midi": 60,
      "time": 63.857,
      "duration": 0.214,
      "velocity": 0.71,
      "hand": "right"
    },
    {
      "midi": 66,
      "time": 63.857,
      "duration": 0.214,
      "velocity": 0.71,
      "hand": "right"
    },
    {
      "midi": 74,
      "time": 63.857,
      "duration": 0.107,
      "velocity": 0.71,
      "hand": "right"
    },
    {
      "midi": 75,
      "time": 63.964,
      "duration": 0.107,
      "velocity": 0.71,
      "hand": "right"
    },
    {
      "midi": 60,
      "time": 64.071,
      "duration": 0.214,
      "velocity": 0.71,
      "hand": "right"
    },
    {
      "midi": 66,
      "time": 64.071,
      "duration": 0.214,
      "velocity": 0.71,
      "hand": "right"
    },
    {
      "midi": 77,
      "time": 64.071,
      "duration": 0.107,
      "velocity": 0.71,
      "hand": "right"
    },
    {
      "midi": 71,
      "time": 64.179,
      "duration": 0.107,
      "velocity": 0.71,
      "hand": "right"
    },
    {
      "midi": 49,
      "time": 64.286,
      "duration": 0.214,
      "velocity": 0.71,
      "hand": "left"
    },
    {
      "midi": 67,
      "time": 64.286,
      "duration": 0.107,
      "velocity": 0.71,
      "hand": "right"
    },
    {
      "midi": 68,
      "time": 64.393,
      "duration": 0.107,
      "velocity": 0.71,
      "hand": "right"
    },
    {
      "midi": 56,
      "time": 64.5,
      "duration": 0.214,
      "velocity": 0.71,
      "hand": "left"
    },
    {
      "midi": 61,
      "time": 64.5,
      "duration": 0.214,
      "velocity": 0.71,
      "hand": "right"
    },
    {
      "midi": 65,
      "time": 64.5,
      "duration": 0.214,
      "velocity": 0.71,
      "hand": "right"
    },
    {
      "midi": 72,
      "time": 64.5,
      "duration": 0.107,
      "velocity": 0.71,
      "hand": "right"
    },
    {
      "midi": 70,
      "time": 64.607,
      "duration": 0.107,
      "velocity": 0.71,
      "hand": "right"
    },
    {
      "midi": 56,
      "time": 64.714,
      "duration": 0.214,
      "velocity": 0.71,
      "hand": "left"
    },
    {
      "midi": 61,
      "time": 64.714,
      "duration": 0.214,
      "velocity": 0.71,
      "hand": "right"
    },
    {
      "midi": 65,
      "time": 64.714,
      "duration": 0.214,
      "velocity": 0.71,
      "hand": "right"
    },
    {
      "midi": 67,
      "time": 64.714,
      "duration": 0.107,
      "velocity": 0.71,
      "hand": "right"
    },
    {
      "midi": 68,
      "time": 64.821,
      "duration": 0.107,
      "velocity": 0.71,
      "hand": "right"
    },
    {
      "midi": 53,
      "time": 64.929,
      "duration": 0.214,
      "velocity": 0.71,
      "hand": "left"
    },
    {
      "midi": 72,
      "time": 64.929,
      "duration": 0.107,
      "velocity": 0.71,
      "hand": "right"
    },
    {
      "midi": 70,
      "time": 65.036,
      "duration": 0.107,
      "velocity": 0.71,
      "hand": "right"
    },
    {
      "midi": 56,
      "time": 65.143,
      "duration": 0.214,
      "velocity": 0.71,
      "hand": "left"
    },
    {
      "midi": 61,
      "time": 65.143,
      "duration": 0.214,
      "velocity": 0.71,
      "hand": "right"
    },
    {
      "midi": 65,
      "time": 65.143,
      "duration": 0.214,
      "velocity": 0.71,
      "hand": "right"
    },
    {
      "midi": 67,
      "time": 65.143,
      "duration": 0.107,
      "velocity": 0.71,
      "hand": "right"
    },
    {
      "midi": 68,
      "time": 65.25,
      "duration": 0.107,
      "velocity": 0.71,
      "hand": "right"
    },
    {
      "midi": 56,
      "time": 65.357,
      "duration": 0.214,
      "velocity": 0.71,
      "hand": "left"
    },
    {
      "midi": 61,
      "time": 65.357,
      "duration": 0.214,
      "velocity": 0.71,
      "hand": "right"
    },
    {
      "midi": 65,
      "time": 65.357,
      "duration": 0.214,
      "velocity": 0.71,
      "hand": "right"
    },
    {
      "midi": 72,
      "time": 65.357,
      "duration": 0.107,
      "velocity": 0.71,
      "hand": "right"
    },
    {
      "midi": 70,
      "time": 65.464,
      "duration": 0.107,
      "velocity": 0.71,
      "hand": "right"
    },
    {
      "midi": 49,
      "time": 65.571,
      "duration": 0.214,
      "velocity": 0.71,
      "hand": "left"
    },
    {
      "midi": 67,
      "time": 65.571,
      "duration": 0.107,
      "velocity": 0.71,
      "hand": "right"
    },
    {
      "midi": 68,
      "time": 65.679,
      "duration": 0.107,
      "velocity": 0.71,
      "hand": "right"
    },
    {
      "midi": 56,
      "time": 65.786,
      "duration": 0.214,
      "velocity": 0.71,
      "hand": "left"
    },
    {
      "midi": 61,
      "time": 65.786,
      "duration": 0.214,
      "velocity": 0.71,
      "hand": "right"
    },
    {
      "midi": 65,
      "time": 65.786,
      "duration": 0.214,
      "velocity": 0.71,
      "hand": "right"
    },
    {
      "midi": 72,
      "time": 65.786,
      "duration": 0.107,
      "velocity": 0.71,
      "hand": "right"
    },
    {
      "midi": 70,
      "time": 65.893,
      "duration": 0.107,
      "velocity": 0.71,
      "hand": "right"
    },
    {
      "midi": 56,
      "time": 66,
      "duration": 0.214,
      "velocity": 0.71,
      "hand": "left"
    },
    {
      "midi": 61,
      "time": 66,
      "duration": 0.214,
      "velocity": 0.71,
      "hand": "right"
    },
    {
      "midi": 65,
      "time": 66,
      "duration": 0.214,
      "velocity": 0.71,
      "hand": "right"
    },
    {
      "midi": 67,
      "time": 66,
      "duration": 0.107,
      "velocity": 0.71,
      "hand": "right"
    },
    {
      "midi": 68,
      "time": 66.107,
      "duration": 0.107,
      "velocity": 0.71,
      "hand": "right"
    },
    {
      "midi": 53,
      "time": 66.214,
      "duration": 0.214,
      "velocity": 0.71,
      "hand": "left"
    },
    {
      "midi": 70,
      "time": 66.214,
      "duration": 0.107,
      "velocity": 0.71,
      "hand": "right"
    },
    {
      "midi": 72,
      "time": 66.321,
      "duration": 0.107,
      "velocity": 0.71,
      "hand": "right"
    },
    {
      "midi": 56,
      "time": 66.429,
      "duration": 0.214,
      "velocity": 0.71,
      "hand": "left"
    },
    {
      "midi": 61,
      "time": 66.429,
      "duration": 0.214,
      "velocity": 0.71,
      "hand": "right"
    },
    {
      "midi": 65,
      "time": 66.429,
      "duration": 0.214,
      "velocity": 0.71,
      "hand": "right"
    },
    {
      "midi": 73,
      "time": 66.429,
      "duration": 0.107,
      "velocity": 0.71,
      "hand": "right"
    },
    {
      "midi": 75,
      "time": 66.536,
      "duration": 0.107,
      "velocity": 0.71,
      "hand": "right"
    },
    {
      "midi": 56,
      "time": 66.643,
      "duration": 0.214,
      "velocity": 0.71,
      "hand": "left"
    },
    {
      "midi": 61,
      "time": 66.643,
      "duration": 0.214,
      "velocity": 0.71,
      "hand": "right"
    },
    {
      "midi": 65,
      "time": 66.643,
      "duration": 0.214,
      "velocity": 0.71,
      "hand": "right"
    },
    {
      "midi": 77,
      "time": 66.643,
      "duration": 0.107,
      "velocity": 0.71,
      "hand": "right"
    },
    {
      "midi": 78,
      "time": 66.75,
      "duration": 0.107,
      "velocity": 0.71,
      "hand": "right"
    },
    {
      "midi": 44,
      "time": 66.857,
      "duration": 0.214,
      "velocity": 0.71,
      "hand": "left"
    },
    {
      "midi": 82,
      "time": 66.857,
      "duration": 0.321,
      "velocity": 0.71,
      "hand": "right"
    },
    {
      "midi": 56,
      "time": 67.071,
      "duration": 0.214,
      "velocity": 0.71,
      "hand": "left"
    },
    {
      "midi": 60,
      "time": 67.071,
      "duration": 0.214,
      "velocity": 0.71,
      "hand": "right"
    },
    {
      "midi": 66,
      "time": 67.071,
      "duration": 0.214,
      "velocity": 0.71,
      "hand": "right"
    },
    {
      "midi": 80,
      "time": 67.179,
      "duration": 0.107,
      "velocity": 0.71,
      "hand": "right"
    },
    {
      "midi": 56,
      "time": 67.286,
      "duration": 0.214,
      "velocity": 0.71,
      "hand": "left"
    },
    {
      "midi": 60,
      "time": 67.286,
      "duration": 0.214,
      "velocity": 0.71,
      "hand": "right"
    },
    {
      "midi": 66,
      "time": 67.286,
      "duration": 0.214,
      "velocity": 0.71,
      "hand": "right"
    },
    {
      "midi": 78,
      "time": 67.286,
      "duration": 0.107,
      "velocity": 0.71,
      "hand": "right"
    },
    {
      "midi": 77,
      "time": 67.393,
      "duration": 0.107,
      "velocity": 0.71,
      "hand": "right"
    },
    {
      "midi": 51,
      "time": 67.5,
      "duration": 0.214,
      "velocity": 0.71,
      "hand": "left"
    },
    {
      "midi": 77,
      "time": 67.5,
      "duration": 0.107,
      "velocity": 0.71,
      "hand": "right"
    },
    {
      "midi": 75,
      "time": 67.607,
      "duration": 0.107,
      "velocity": 0.71,
      "hand": "right"
    },
    {
      "midi": 56,
      "time": 67.714,
      "duration": 0.214,
      "velocity": 0.71,
      "hand": "left"
    },
    {
      "midi": 60,
      "time": 67.714,
      "duration": 0.214,
      "velocity": 0.71,
      "hand": "right"
    },
    {
      "midi": 66,
      "time": 67.714,
      "duration": 0.214,
      "velocity": 0.71,
      "hand": "right"
    },
    {
      "midi": 75,
      "time": 67.714,
      "duration": 0.107,
      "velocity": 0.71,
      "hand": "right"
    },
    {
      "midi": 74,
      "time": 67.821,
      "duration": 0.107,
      "velocity": 0.71,
      "hand": "right"
    },
    {
      "midi": 56,
      "time": 67.929,
      "duration": 0.214,
      "velocity": 0.71,
      "hand": "left"
    },
    {
      "midi": 60,
      "time": 67.929,
      "duration": 0.214,
      "velocity": 0.71,
      "hand": "right"
    },
    {
      "midi": 66,
      "time": 67.929,
      "duration": 0.214,
      "velocity": 0.71,
      "hand": "right"
    },
    {
      "midi": 75,
      "time": 67.929,
      "duration": 0.214,
      "velocity": 0.71,
      "hand": "right"
    },
    {
      "midi": 44,
      "time": 68.143,
      "duration": 0.214,
      "velocity": 0.71,
      "hand": "left"
    },
    {
      "midi": 82,
      "time": 68.143,
      "duration": 0.321,
      "velocity": 0.71,
      "hand": "right"
    },
    {
      "midi": 56,
      "time": 68.357,
      "duration": 0.214,
      "velocity": 0.71,
      "hand": "left"
    },
    {
      "midi": 60,
      "time": 68.357,
      "duration": 0.214,
      "velocity": 0.71,
      "hand": "right"
    },
    {
      "midi": 66,
      "time": 68.357,
      "duration": 0.214,
      "velocity": 0.71,
      "hand": "right"
    },
    {
      "midi": 80,
      "time": 68.464,
      "duration": 0.107,
      "velocity": 0.71,
      "hand": "right"
    },
    {
      "midi": 56,
      "time": 68.571,
      "duration": 0.214,
      "velocity": 0.71,
      "hand": "left"
    },
    {
      "midi": 60,
      "time": 68.571,
      "duration": 0.214,
      "velocity": 0.71,
      "hand": "right"
    },
    {
      "midi": 66,
      "time": 68.571,
      "duration": 0.214,
      "velocity": 0.71,
      "hand": "right"
    },
    {
      "midi": 78,
      "time": 68.571,
      "duration": 0.107,
      "velocity": 0.71,
      "hand": "right"
    },
    {
      "midi": 77,
      "time": 68.679,
      "duration": 0.107,
      "velocity": 0.71,
      "hand": "right"
    },
    {
      "midi": 56,
      "time": 68.786,
      "duration": 0.214,
      "velocity": 0.71,
      "hand": "left"
    },
    {
      "midi": 75,
      "time": 68.786,
      "duration": 0.107,
      "velocity": 0.71,
      "hand": "right"
    },
    {
      "midi": 77,
      "time": 68.893,
      "duration": 0.107,
      "velocity": 0.71,
      "hand": "right"
    },
    {
      "midi": 60,
      "time": 69,
      "duration": 0.214,
      "velocity": 0.71,
      "hand": "right"
    },
    {
      "midi": 66,
      "time": 69,
      "duration": 0.214,
      "velocity": 0.71,
      "hand": "right"
    },
    {
      "midi": 75,
      "time": 69,
      "duration": 0.107,
      "velocity": 0.71,
      "hand": "right"
    },
    {
      "midi": 74,
      "time": 69.107,
      "duration": 0.107,
      "velocity": 0.71,
      "hand": "right"
    },
    {
      "midi": 44,
      "time": 69.214,
      "duration": 0.214,
      "velocity": 0.71,
      "hand": "left"
    },
    {
      "midi": 75,
      "time": 69.214,
      "duration": 0.107,
      "velocity": 0.71,
      "hand": "right"
    },
    {
      "midi": 76,
      "time": 69.321,
      "duration": 0.107,
      "velocity": 0.71,
      "hand": "right"
    },
    {
      "midi": 45,
      "time": 69.429,
      "duration": 0.214,
      "velocity": 0.71,
      "hand": "left"
    },
    {
      "midi": 77,
      "time": 69.429,
      "duration": 0.054,
      "velocity": 0.71,
      "hand": "right"
    },
    {
      "midi": 78,
      "time": 69.482,
      "duration": 0.054,
      "velocity": 0.71,
      "hand": "right"
    },
    {
      "midi": 77,
      "time": 69.589,
      "duration": 0.054,
      "velocity": 0.71,
      "hand": "right"
    },
    {
      "midi": 53,
      "time": 69.643,
      "duration": 0.214,
      "velocity": 0.71,
      "hand": "left"
    },
    {
      "midi": 60,
      "time": 69.643,
      "duration": 0.214,
      "velocity": 0.71,
      "hand": "right"
    },
    {
      "midi": 63,
      "time": 69.643,
      "duration": 0.214,
      "velocity": 0.71,
      "hand": "right"
    },
    {
      "midi": 76,
      "time": 69.643,
      "duration": 0.107,
      "velocity": 0.71,
      "hand": "right"
    },
    {
      "midi": 77,
      "time": 69.75,
      "duration": 0.107,
      "velocity": 0.71,
      "hand": "right"
    },
    {
      "midi": 53,
      "time": 69.857,
      "duration": 0.214,
      "velocity": 0.71,
      "hand": "left"
    },
    {
      "midi": 60,
      "time": 69.857,
      "duration": 0.214,
      "velocity": 0.71,
      "hand": "right"
    },
    {
      "midi": 63,
      "time": 69.857,
      "duration": 0.214,
      "velocity": 0.71,
      "hand": "right"
    },
    {
      "midi": 80,
      "time": 69.857,
      "duration": 0.107,
      "velocity": 0.71,
      "hand": "right"
    },
    {
      "midi": 78,
      "time": 69.964,
      "duration": 0.107,
      "velocity": 0.71,
      "hand": "right"
    },
    {
      "midi": 46,
      "time": 70.071,
      "duration": 0.214,
      "velocity": 0.71,
      "hand": "left"
    },
    {
      "midi": 77,
      "time": 70.071,
      "duration": 0.107,
      "velocity": 0.71,
      "hand": "right"
    },
    {
      "midi": 78,
      "time": 70.179,
      "duration": 0.107,
      "velocity": 0.71,
      "hand": "right"
    },
    {
      "midi": 53,
      "time": 70.286,
      "duration": 0.214,
      "velocity": 0.71,
      "hand": "left"
    },
    {
      "midi": 61,
      "time": 70.286,
      "duration": 0.214,
      "velocity": 0.71,
      "hand": "right"
    },
    {
      "midi": 77,
      "time": 70.286,
      "duration": 0.107,
      "velocity": 0.71,
      "hand": "right"
    },
    {
      "midi": 76,
      "time": 70.393,
      "duration": 0.107,
      "velocity": 0.71,
      "hand": "right"
    },
    {
      "midi": 53,
      "time": 70.5,
      "duration": 0.214,
      "velocity": 0.71,
      "hand": "left"
    },
    {
      "midi": 61,
      "time": 70.5,
      "duration": 0.214,
      "velocity": 0.71,
      "hand": "right"
    },
    {
      "midi": 77,
      "time": 70.5,
      "duration": 0.107,
      "velocity": 0.71,
      "hand": "right"
    },
    {
      "midi": 82,
      "time": 70.607,
      "duration": 0.107,
      "velocity": 0.71,
      "hand": "right"
    },
    {
      "midi": 48,
      "time": 70.714,
      "duration": 0.214,
      "velocity": 0.71,
      "hand": "left"
    },
    {
      "midi": 80,
      "time": 70.714,
      "duration": 0.054,
      "velocity": 0.71,
      "hand": "right"
    },
    {
      "midi": 82,
      "time": 70.768,
      "duration": 0.054,
      "velocity": 0.71,
      "hand": "right"
    },
    {
      "midi": 80,
      "time": 70.875,
      "duration": 0.054,
      "velocity": 0.71,
      "hand": "right"
    },
    {
      "midi": 56,
      "time": 70.929,
      "duration": 0.214,
      "velocity": 0.71,
      "hand": "left"
    },
    {
      "midi": 63,
      "time": 70.929,
      "duration": 0.214,
      "velocity": 0.71,
      "hand": "right"
    },
    {
      "midi": 66,
      "time": 70.929,
      "duration": 0.214,
      "velocity": 0.71,
      "hand": "right"
    },
    {
      "midi": 79,
      "time": 70.929,
      "duration": 0.107,
      "velocity": 0.71,
      "hand": "right"
    },
    {
      "midi": 80,
      "time": 71.036,
      "duration": 0.107,
      "velocity": 0.71,
      "hand": "right"
    },
    {
      "midi": 56,
      "time": 71.143,
      "duration": 0.214,
      "velocity": 0.71,
      "hand": "left"
    },
    {
      "midi": 63,
      "time": 71.143,
      "duration": 0.214,
      "velocity": 0.71,
      "hand": "right"
    },
    {
      "midi": 66,
      "time": 71.143,
      "duration": 0.214,
      "velocity": 0.71,
      "hand": "right"
    },
    {
      "midi": 84,
      "time": 71.143,
      "duration": 0.107,
      "velocity": 0.71,
      "hand": "right"
    },
    {
      "midi": 82,
      "time": 71.25,
      "duration": 0.107,
      "velocity": 0.71,
      "hand": "right"
    },
    {
      "midi": 49,
      "time": 71.357,
      "duration": 0.214,
      "velocity": 0.71,
      "hand": "left"
    },
    {
      "midi": 80,
      "time": 71.357,
      "duration": 0.107,
      "velocity": 0.71,
      "hand": "right"
    },
    {
      "midi": 82,
      "time": 71.464,
      "duration": 0.107,
      "velocity": 0.71,
      "hand": "right"
    },
    {
      "midi": 56,
      "time": 71.571,
      "duration": 0.214,
      "velocity": 0.71,
      "hand": "left"
    },
    {
      "midi": 65,
      "time": 71.571,
      "duration": 0.214,
      "velocity": 0.71,
      "hand": "right"
    },
    {
      "midi": 80,
      "time": 71.571,
      "duration": 0.107,
      "velocity": 0.71,
      "hand": "right"
    },
    {
      "midi": 79,
      "time": 71.679,
      "duration": 0.107,
      "velocity": 0.71,
      "hand": "right"
    },
    {
      "midi": 80,
      "time": 71.786,
      "duration": 0.107,
      "velocity": 0.71,
      "hand": "right"
    },
    {
      "midi": 85,
      "time": 71.893,
      "duration": 0.107,
      "velocity": 0.71,
      "hand": "right"
    },
    {
      "midi": 54,
      "time": 72,
      "duration": 0.214,
      "velocity": 0.71,
      "hand": "left"
    },
    {
      "midi": 84,
      "time": 72,
      "duration": 0.107,
      "velocity": 0.71,
      "hand": "right"
    },
    {
      "midi": 82,
      "time": 72.107,
      "duration": 0.107,
      "velocity": 0.71,
      "hand": "right"
    },
    {
      "midi": 58,
      "time": 72.214,
      "duration": 0.214,
      "velocity": 0.71,
      "hand": "left"
    },
    {
      "midi": 63,
      "time": 72.214,
      "duration": 0.214,
      "velocity": 0.71,
      "hand": "right"
    },
    {
      "midi": 80,
      "time": 72.214,
      "duration": 0.107,
      "velocity": 0.71,
      "hand": "right"
    },
    {
      "midi": 78,
      "time": 72.321,
      "duration": 0.107,
      "velocity": 0.71,
      "hand": "right"
    },
    {
      "midi": 77,
      "time": 72.429,
      "duration": 0.107,
      "velocity": 0.71,
      "hand": "right"
    },
    {
      "midi": 75,
      "time": 72.536,
      "duration": 0.107,
      "velocity": 0.71,
      "hand": "right"
    },
    {
      "midi": 44,
      "time": 72.643,
      "duration": 0.214,
      "velocity": 0.71,
      "hand": "left"
    },
    {
      "midi": 73,
      "time": 72.643,
      "duration": 0.107,
      "velocity": 0.71,
      "hand": "right"
    },
    {
      "midi": 72,
      "time": 72.75,
      "duration": 0.107,
      "velocity": 0.71,
      "hand": "right"
    },
    {
      "midi": 53,
      "time": 72.857,
      "duration": 0.214,
      "velocity": 0.71,
      "hand": "left"
    },
    {
      "midi": 56,
      "time": 72.857,
      "duration": 0.214,
      "velocity": 0.71,
      "hand": "left"
    },
    {
      "midi": 61,
      "time": 72.857,
      "duration": 0.214,
      "velocity": 0.71,
      "hand": "right"
    },
    {
      "midi": 70,
      "time": 72.857,
      "duration": 0.107,
      "velocity": 0.71,
      "hand": "right"
    },
    {
      "midi": 68,
      "time": 72.964,
      "duration": 0.107,
      "velocity": 0.71,
      "hand": "right"
    },
    {
      "midi": 66,
      "time": 73.071,
      "duration": 0.107,
      "velocity": 0.71,
      "hand": "right"
    },
    {
      "midi": 65,
      "time": 73.179,
      "duration": 0.107,
      "velocity": 0.71,
      "hand": "right"
    },
    {
      "midi": 44,
      "time": 73.286,
      "duration": 0.214,
      "velocity": 0.71,
      "hand": "left"
    },
    {
      "midi": 63,
      "time": 73.286,
      "duration": 0.107,
      "velocity": 0.71,
      "hand": "right"
    },
    {
      "midi": 61,
      "time": 73.393,
      "duration": 0.107,
      "velocity": 0.71,
      "hand": "right"
    },
    {
      "midi": 54,
      "time": 73.5,
      "duration": 0.214,
      "velocity": 0.71,
      "hand": "left"
    },
    {
      "midi": 56,
      "time": 73.5,
      "duration": 0.214,
      "velocity": 0.71,
      "hand": "left"
    },
    {
      "midi": 60,
      "time": 73.5,
      "duration": 0.107,
      "velocity": 0.71,
      "hand": "right"
    },
    {
      "midi": 63,
      "time": 73.607,
      "duration": 0.107,
      "velocity": 0.71,
      "hand": "right"
    },
    {
      "midi": 54,
      "time": 73.714,
      "duration": 0.214,
      "velocity": 0.71,
      "hand": "left"
    },
    {
      "midi": 56,
      "time": 73.714,
      "duration": 0.214,
      "velocity": 0.71,
      "hand": "left"
    },
    {
      "midi": 60,
      "time": 73.714,
      "duration": 0.214,
      "velocity": 0.71,
      "hand": "right"
    },
    {
      "midi": 70,
      "time": 73.714,
      "duration": 0.107,
      "velocity": 0.71,
      "hand": "right"
    },
    {
      "midi": 68,
      "time": 73.821,
      "duration": 0.107,
      "velocity": 0.71,
      "hand": "right"
    },
    {
      "midi": 49,
      "time": 73.929,
      "duration": 0.214,
      "velocity": 0.71,
      "hand": "left"
    },
    {
      "midi": 67,
      "time": 73.929,
      "duration": 0.107,
      "velocity": 0.71,
      "hand": "right"
    },
    {
      "midi": 68,
      "time": 74.036,
      "duration": 0.107,
      "velocity": 0.71,
      "hand": "right"
    },
    {
      "midi": 56,
      "time": 74.143,
      "duration": 0.214,
      "velocity": 0.71,
      "hand": "left"
    },
    {
      "midi": 61,
      "time": 74.143,
      "duration": 0.214,
      "velocity": 0.71,
      "hand": "right"
    },
    {
      "midi": 65,
      "time": 74.143,
      "duration": 0.214,
      "velocity": 0.71,
      "hand": "right"
    },
    {
      "midi": 70,
      "time": 74.143,
      "duration": 0.107,
      "velocity": 0.71,
      "hand": "right"
    },
    {
      "midi": 72,
      "time": 74.25,
      "duration": 0.107,
      "velocity": 0.71,
      "hand": "right"
    },
    {
      "midi": 73,
      "time": 74.357,
      "duration": 0.107,
      "velocity": 0.71,
      "hand": "right"
    },
    {
      "midi": 75,
      "time": 74.464,
      "duration": 0.107,
      "velocity": 0.71,
      "hand": "right"
    },
    {
      "midi": 57,
      "time": 74.571,
      "duration": 0.643,
      "velocity": 0.71,
      "hand": "left"
    },
    {
      "midi": 77,
      "time": 74.571,
      "duration": 0.054,
      "velocity": 0.71,
      "hand": "right"
    },
    {
      "midi": 78,
      "time": 74.625,
      "duration": 0.054,
      "velocity": 0.71,
      "hand": "right"
    },
    {
      "midi": 77,
      "time": 74.732,
      "duration": 0.054,
      "velocity": 0.71,
      "hand": "right"
    },
    {
      "midi": 63,
      "time": 74.786,
      "duration": 0.214,
      "velocity": 0.71,
      "hand": "right"
    },
    {
      "midi": 65,
      "time": 74.786,
      "duration": 0.214,
      "velocity": 0.71,
      "hand": "right"
    },
    {
      "midi": 76,
      "time": 74.786,
      "duration": 0.107,
      "velocity": 0.71,
      "hand": "right"
    },
    {
      "midi": 77,
      "time": 74.893,
      "duration": 0.107,
      "velocity": 0.71,
      "hand": "right"
    },
    {
      "midi": 63,
      "time": 75,
      "duration": 0.214,
      "velocity": 0.71,
      "hand": "right"
    },
    {
      "midi": 65,
      "time": 75,
      "duration": 0.214,
      "velocity": 0.71,
      "hand": "right"
    },
    {
      "midi": 80,
      "time": 75,
      "duration": 0.107,
      "velocity": 0.71,
      "hand": "right"
    },
    {
      "midi": 78,
      "time": 75.107,
      "duration": 0.107,
      "velocity": 0.71,
      "hand": "right"
    },
    {
      "midi": 58,
      "time": 75.214,
      "duration": 0.643,
      "velocity": 0.71,
      "hand": "left"
    },
    {
      "midi": 77,
      "time": 75.214,
      "duration": 0.107,
      "velocity": 0.71,
      "hand": "right"
    },
    {
      "midi": 78,
      "time": 75.321,
      "duration": 0.107,
      "velocity": 0.71,
      "hand": "right"
    },
    {
      "midi": 61,
      "time": 75.429,
      "duration": 0.214,
      "velocity": 0.71,
      "hand": "right"
    },
    {
      "midi": 65,
      "time": 75.429,
      "duration": 0.214,
      "velocity": 0.71,
      "hand": "right"
    },
    {
      "midi": 77,
      "time": 75.429,
      "duration": 0.107,
      "velocity": 0.71,
      "hand": "right"
    },
    {
      "midi": 76,
      "time": 75.536,
      "duration": 0.107,
      "velocity": 0.71,
      "hand": "right"
    },
    {
      "midi": 61,
      "time": 75.643,
      "duration": 0.214,
      "velocity": 0.71,
      "hand": "right"
    },
    {
      "midi": 65,
      "time": 75.643,
      "duration": 0.214,
      "velocity": 0.71,
      "hand": "right"
    },
    {
      "midi": 77,
      "time": 75.643,
      "duration": 0.107,
      "velocity": 0.71,
      "hand": "right"
    },
    {
      "midi": 82,
      "time": 75.75,
      "duration": 0.107,
      "velocity": 0.71,
      "hand": "right"
    },
    {
      "midi": 60,
      "time": 75.857,
      "duration": 0.643,
      "velocity": 0.71,
      "hand": "right"
    },
    {
      "midi": 80,
      "time": 75.857,
      "duration": 0.054,
      "velocity": 0.71,
      "hand": "right"
    },
    {
      "midi": 82,
      "time": 75.911,
      "duration": 0.054,
      "velocity": 0.71,
      "hand": "right"
    },
    {
      "midi": 80,
      "time": 76.018,
      "duration": 0.054,
      "velocity": 0.71,
      "hand": "right"
    },
    {
      "midi": 66,
      "time": 76.071,
      "duration": 0.214,
      "velocity": 0.71,
      "hand": "right"
    },
    {
      "midi": 68,
      "time": 76.071,
      "duration": 0.214,
      "velocity": 0.71,
      "hand": "right"
    },
    {
      "midi": 79,
      "time": 76.071,
      "duration": 0.107,
      "velocity": 0.71,
      "hand": "right"
    },
    {
      "midi": 80,
      "time": 76.179,
      "duration": 0.107,
      "velocity": 0.71,
      "hand": "right"
    },
    {
      "midi": 66,
      "time": 76.286,
      "duration": 0.214,
      "velocity": 0.71,
      "hand": "right"
    },
    {
      "midi": 68,
      "time": 76.286,
      "duration": 0.214,
      "velocity": 0.71,
      "hand": "right"
    },
    {
      "midi": 84,
      "time": 76.286,
      "duration": 0.107,
      "velocity": 0.71,
      "hand": "right"
    },
    {
      "midi": 82,
      "time": 76.393,
      "duration": 0.107,
      "velocity": 0.71,
      "hand": "right"
    },
    {
      "midi": 61,
      "time": 76.5,
      "duration": 0.214,
      "velocity": 0.71,
      "hand": "right"
    },
    {
      "midi": 80,
      "time": 76.5,
      "duration": 0.107,
      "velocity": 0.71,
      "hand": "right"
    },
    {
      "midi": 82,
      "time": 76.607,
      "duration": 0.107,
      "velocity": 0.71,
      "hand": "right"
    },
    {
      "midi": 65,
      "time": 76.714,
      "duration": 0.214,
      "velocity": 0.71,
      "hand": "right"
    },
    {
      "midi": 68,
      "time": 76.714,
      "duration": 0.214,
      "velocity": 0.71,
      "hand": "right"
    },
    {
      "midi": 80,
      "time": 76.714,
      "duration": 0.107,
      "velocity": 0.71,
      "hand": "right"
    },
    {
      "midi": 79,
      "time": 76.821,
      "duration": 0.107,
      "velocity": 0.71,
      "hand": "right"
    },
    {
      "midi": 80,
      "time": 76.929,
      "duration": 0.107,
      "velocity": 0.71,
      "hand": "right"
    },
    {
      "midi": 89,
      "time": 77.036,
      "duration": 0.107,
      "velocity": 0.71,
      "hand": "right"
    },
    {
      "midi": 54,
      "time": 77.143,
      "duration": 0.214,
      "velocity": 0.71,
      "hand": "left"
    },
    {
      "midi": 87,
      "time": 77.143,
      "duration": 0.107,
      "velocity": 0.71,
      "hand": "right"
    },
    {
      "midi": 85,
      "time": 77.25,
      "duration": 0.107,
      "velocity": 0.71,
      "hand": "right"
    },
    {
      "midi": 61,
      "time": 77.357,
      "duration": 0.214,
      "velocity": 0.71,
      "hand": "right"
    },
    {
      "midi": 63,
      "time": 77.357,
      "duration": 0.214,
      "velocity": 0.71,
      "hand": "right"
    },
    {
      "midi": 70,
      "time": 77.357,
      "duration": 0.214,
      "velocity": 0.71,
      "hand": "right"
    },
    {
      "midi": 84,
      "time": 77.357,
      "duration": 0.107,
      "velocity": 0.71,
      "hand": "right"
    },
    {
      "midi": 82,
      "time": 77.464,
      "duration": 0.107,
      "velocity": 0.71,
      "hand": "right"
    },
    {
      "midi": 80,
      "time": 77.571,
      "duration": 0.107,
      "velocity": 0.71,
      "hand": "right"
    },
    {
      "midi": 78,
      "time": 77.679,
      "duration": 0.107,
      "velocity": 0.71,
      "hand": "right"
    },
    {
      "midi": 44,
      "time": 77.786,
      "duration": 0.214,
      "velocity": 0.71,
      "hand": "left"
    },
    {
      "midi": 77,
      "time": 77.786,
      "duration": 0.107,
      "velocity": 0.71,
      "hand": "right"
    },
    {
      "midi": 75,
      "time": 77.893,
      "duration": 0.107,
      "velocity": 0.71,
      "hand": "right"
    },
    {
      "midi": 53,
      "time": 78,
      "duration": 0.214,
      "velocity": 0.71,
      "hand": "left"
    },
    {
      "midi": 56,
      "time": 78,
      "duration": 0.214,
      "velocity": 0.71,
      "hand": "left"
    },
    {
      "midi": 61,
      "time": 78,
      "duration": 0.214,
      "velocity": 0.71,
      "hand": "right"
    },
    {
      "midi": 73,
      "time": 78,
      "duration": 0.107,
      "velocity": 0.71,
      "hand": "right"
    },
    {
      "midi": 72,
      "time": 78.107,
      "duration": 0.107,
      "velocity": 0.71,
      "hand": "right"
    },
    {
      "midi": 70,
      "time": 78.214,
      "duration": 0.107,
      "velocity": 0.71,
      "hand": "right"
    },
    {
      "midi": 68,
      "time": 78.321,
      "duration": 0.107,
      "velocity": 0.71,
      "hand": "right"
    },
    {
      "midi": 44,
      "time": 78.429,
      "duration": 0.214,
      "velocity": 0.71,
      "hand": "left"
    },
    {
      "midi": 69,
      "time": 78.429,
      "duration": 0.107,
      "velocity": 0.71,
      "hand": "right"
    },
    {
      "midi": 72,
      "time": 78.536,
      "duration": 0.107,
      "velocity": 0.71,
      "hand": "right"
    },
    {
      "midi": 54,
      "time": 78.643,
      "duration": 0.214,
      "velocity": 0.71,
      "hand": "left"
    },
    {
      "midi": 56,
      "time": 78.643,
      "duration": 0.214,
      "velocity": 0.71,
      "hand": "left"
    },
    {
      "midi": 70,
      "time": 78.643,
      "duration": 0.107,
      "velocity": 0.71,
      "hand": "right"
    },
    {
      "midi": 65,
      "time": 78.75,
      "duration": 0.107,
      "velocity": 0.71,
      "hand": "right"
    },
    {
      "midi": 54,
      "time": 78.857,
      "duration": 0.214,
      "velocity": 0.71,
      "hand": "left"
    },
    {
      "midi": 56,
      "time": 78.857,
      "duration": 0.214,
      "velocity": 0.71,
      "hand": "left"
    },
    {
      "midi": 66,
      "time": 78.857,
      "duration": 0.107,
      "velocity": 0.71,
      "hand": "right"
    },
    {
      "midi": 60,
      "time": 78.964,
      "duration": 0.107,
      "velocity": 0.71,
      "hand": "right"
    },
    {
      "midi": 49,
      "time": 79.071,
      "duration": 0.214,
      "velocity": 0.71,
      "hand": "left"
    },
    {
      "midi": 61,
      "time": 79.071,
      "duration": 0.214,
      "velocity": 0.71,
      "hand": "right"
    },
    {
      "midi": 56,
      "time": 79.286,
      "duration": 0.214,
      "velocity": 0.71,
      "hand": "left"
    },
    {
      "midi": 65,
      "time": 79.286,
      "duration": 0.214,
      "velocity": 0.71,
      "hand": "right"
    },
    {
      "midi": 77,
      "time": 79.5,
      "duration": 0.268,
      "velocity": 0.71,
      "hand": "right"
    },
    {
      "midi": 45,
      "time": 79.714,
      "duration": 0.214,
      "velocity": 0.71,
      "hand": "left"
    },
    {
      "midi": 78,
      "time": 79.768,
      "duration": 0.054,
      "velocity": 0.71,
      "hand": "right"
    },
    {
      "midi": 77,
      "time": 79.875,
      "duration": 0.054,
      "velocity": 0.71,
      "hand": "right"
    },
    {
      "midi": 53,
      "time": 79.929,
      "duration": 0.214,
      "velocity": 0.71,
      "hand": "left"
    },
    {
      "midi": 60,
      "time": 79.929,
      "duration": 0.214,
      "velocity": 0.71,
      "hand": "right"
    },
    {
      "midi": 63,
      "time": 79.929,
      "duration": 0.214,
      "velocity": 0.71,
      "hand": "right"
    },
    {
      "midi": 76,
      "time": 79.929,
      "duration": 0.107,
      "velocity": 0.71,
      "hand": "right"
    },
    {
      "midi": 77,
      "time": 80.036,
      "duration": 0.107,
      "velocity": 0.71,
      "hand": "right"
    },
    {
      "midi": 53,
      "time": 80.143,
      "duration": 0.214,
      "velocity": 0.71,
      "hand": "left"
    },
    {
      "midi": 60,
      "time": 80.143,
      "duration": 0.214,
      "velocity": 0.71,
      "hand": "right"
    },
    {
      "midi": 63,
      "time": 80.143,
      "duration": 0.214,
      "velocity": 0.71,
      "hand": "right"
    },
    {
      "midi": 80,
      "time": 80.143,
      "duration": 0.107,
      "velocity": 0.71,
      "hand": "right"
    },
    {
      "midi": 78,
      "time": 80.25,
      "duration": 0.107,
      "velocity": 0.71,
      "hand": "right"
    },
    {
      "midi": 46,
      "time": 80.357,
      "duration": 0.214,
      "velocity": 0.71,
      "hand": "left"
    },
    {
      "midi": 77,
      "time": 80.357,
      "duration": 0.107,
      "velocity": 0.71,
      "hand": "right"
    },
    {
      "midi": 78,
      "time": 80.464,
      "duration": 0.107,
      "velocity": 0.71,
      "hand": "right"
    },
    {
      "midi": 53,
      "time": 80.571,
      "duration": 0.214,
      "velocity": 0.71,
      "hand": "left"
    },
    {
      "midi": 61,
      "time": 80.571,
      "duration": 0.214,
      "velocity": 0.71,
      "hand": "right"
    },
    {
      "midi": 77,
      "time": 80.571,
      "duration": 0.107,
      "velocity": 0.71,
      "hand": "right"
    },
    {
      "midi": 76,
      "time": 80.679,
      "duration": 0.107,
      "velocity": 0.71,
      "hand": "right"
    },
    {
      "midi": 53,
      "time": 80.786,
      "duration": 0.214,
      "velocity": 0.71,
      "hand": "left"
    },
    {
      "midi": 61,
      "time": 80.786,
      "duration": 0.214,
      "velocity": 0.71,
      "hand": "right"
    },
    {
      "midi": 77,
      "time": 80.786,
      "duration": 0.107,
      "velocity": 0.71,
      "hand": "right"
    },
    {
      "midi": 82,
      "time": 80.893,
      "duration": 0.107,
      "velocity": 0.71,
      "hand": "right"
    },
    {
      "midi": 48,
      "time": 81,
      "duration": 0.214,
      "velocity": 0.71,
      "hand": "left"
    },
    {
      "midi": 80,
      "time": 81,
      "duration": 0.054,
      "velocity": 0.71,
      "hand": "right"
    },
    {
      "midi": 82,
      "time": 81.054,
      "duration": 0.054,
      "velocity": 0.71,
      "hand": "right"
    },
    {
      "midi": 80,
      "time": 81.161,
      "duration": 0.054,
      "velocity": 0.71,
      "hand": "right"
    },
    {
      "midi": 56,
      "time": 81.214,
      "duration": 0.214,
      "velocity": 0.71,
      "hand": "left"
    },
    {
      "midi": 63,
      "time": 81.214,
      "duration": 0.214,
      "velocity": 0.71,
      "hand": "right"
    },
    {
      "midi": 66,
      "time": 81.214,
      "duration": 0.214,
      "velocity": 0.71,
      "hand": "right"
    },
    {
      "midi": 79,
      "time": 81.214,
      "duration": 0.107,
      "velocity": 0.71,
      "hand": "right"
    },
    {
      "midi": 80,
      "time": 81.321,
      "duration": 0.107,
      "velocity": 0.71,
      "hand": "right"
    },
    {
      "midi": 56,
      "time": 81.429,
      "duration": 0.214,
      "velocity": 0.71,
      "hand": "left"
    },
    {
      "midi": 63,
      "time": 81.429,
      "duration": 0.214,
      "velocity": 0.71,
      "hand": "right"
    },
    {
      "midi": 66,
      "time": 81.429,
      "duration": 0.214,
      "velocity": 0.71,
      "hand": "right"
    },
    {
      "midi": 84,
      "time": 81.429,
      "duration": 0.107,
      "velocity": 0.71,
      "hand": "right"
    },
    {
      "midi": 82,
      "time": 81.536,
      "duration": 0.107,
      "velocity": 0.71,
      "hand": "right"
    },
    {
      "midi": 49,
      "time": 81.643,
      "duration": 0.214,
      "velocity": 0.71,
      "hand": "left"
    },
    {
      "midi": 80,
      "time": 81.643,
      "duration": 0.107,
      "velocity": 0.71,
      "hand": "right"
    },
    {
      "midi": 82,
      "time": 81.75,
      "duration": 0.107,
      "velocity": 0.71,
      "hand": "right"
    },
    {
      "midi": 56,
      "time": 81.857,
      "duration": 0.214,
      "velocity": 0.71,
      "hand": "left"
    },
    {
      "midi": 65,
      "time": 81.857,
      "duration": 0.214,
      "velocity": 0.71,
      "hand": "right"
    },
    {
      "midi": 80,
      "time": 81.857,
      "duration": 0.107,
      "velocity": 0.71,
      "hand": "right"
    },
    {
      "midi": 79,
      "time": 81.964,
      "duration": 0.107,
      "velocity": 0.71,
      "hand": "right"
    },
    {
      "midi": 80,
      "time": 82.071,
      "duration": 0.107,
      "velocity": 0.71,
      "hand": "right"
    },
    {
      "midi": 85,
      "time": 82.179,
      "duration": 0.107,
      "velocity": 0.71,
      "hand": "right"
    },
    {
      "midi": 54,
      "time": 82.286,
      "duration": 0.214,
      "velocity": 0.71,
      "hand": "left"
    },
    {
      "midi": 84,
      "time": 82.286,
      "duration": 0.107,
      "velocity": 0.71,
      "hand": "right"
    },
    {
      "midi": 82,
      "time": 82.393,
      "duration": 0.107,
      "velocity": 0.71,
      "hand": "right"
    },
    {
      "midi": 58,
      "time": 82.5,
      "duration": 0.214,
      "velocity": 0.71,
      "hand": "left"
    },
    {
      "midi": 63,
      "time": 82.5,
      "duration": 0.214,
      "velocity": 0.71,
      "hand": "right"
    },
    {
      "midi": 80,
      "time": 82.5,
      "duration": 0.107,
      "velocity": 0.71,
      "hand": "right"
    },
    {
      "midi": 78,
      "time": 82.607,
      "duration": 0.107,
      "velocity": 0.71,
      "hand": "right"
    },
    {
      "midi": 77,
      "time": 82.714,
      "duration": 0.107,
      "velocity": 0.71,
      "hand": "right"
    },
    {
      "midi": 75,
      "time": 82.821,
      "duration": 0.107,
      "velocity": 0.71,
      "hand": "right"
    },
    {
      "midi": 44,
      "time": 82.929,
      "duration": 0.214,
      "velocity": 0.71,
      "hand": "left"
    },
    {
      "midi": 73,
      "time": 82.929,
      "duration": 0.107,
      "velocity": 0.71,
      "hand": "right"
    },
    {
      "midi": 72,
      "time": 83.036,
      "duration": 0.107,
      "velocity": 0.71,
      "hand": "right"
    },
    {
      "midi": 53,
      "time": 83.143,
      "duration": 0.214,
      "velocity": 0.71,
      "hand": "left"
    },
    {
      "midi": 56,
      "time": 83.143,
      "duration": 0.214,
      "velocity": 0.71,
      "hand": "left"
    },
    {
      "midi": 61,
      "time": 83.143,
      "duration": 0.214,
      "velocity": 0.71,
      "hand": "right"
    },
    {
      "midi": 70,
      "time": 83.143,
      "duration": 0.107,
      "velocity": 0.71,
      "hand": "right"
    },
    {
      "midi": 68,
      "time": 83.25,
      "duration": 0.107,
      "velocity": 0.71,
      "hand": "right"
    },
    {
      "midi": 66,
      "time": 83.357,
      "duration": 0.107,
      "velocity": 0.71,
      "hand": "right"
    },
    {
      "midi": 65,
      "time": 83.464,
      "duration": 0.107,
      "velocity": 0.71,
      "hand": "right"
    },
    {
      "midi": 44,
      "time": 83.571,
      "duration": 0.214,
      "velocity": 0.71,
      "hand": "left"
    },
    {
      "midi": 63,
      "time": 83.571,
      "duration": 0.107,
      "velocity": 0.71,
      "hand": "right"
    },
    {
      "midi": 61,
      "time": 83.679,
      "duration": 0.107,
      "velocity": 0.71,
      "hand": "right"
    },
    {
      "midi": 54,
      "time": 83.786,
      "duration": 0.214,
      "velocity": 0.71,
      "hand": "left"
    },
    {
      "midi": 56,
      "time": 83.786,
      "duration": 0.214,
      "velocity": 0.71,
      "hand": "left"
    },
    {
      "midi": 60,
      "time": 83.786,
      "duration": 0.107,
      "velocity": 0.71,
      "hand": "right"
    },
    {
      "midi": 63,
      "time": 83.893,
      "duration": 0.107,
      "velocity": 0.71,
      "hand": "right"
    },
    {
      "midi": 54,
      "time": 84,
      "duration": 0.214,
      "velocity": 0.71,
      "hand": "left"
    },
    {
      "midi": 56,
      "time": 84,
      "duration": 0.214,
      "velocity": 0.71,
      "hand": "left"
    },
    {
      "midi": 60,
      "time": 84,
      "duration": 0.214,
      "velocity": 0.71,
      "hand": "right"
    },
    {
      "midi": 70,
      "time": 84,
      "duration": 0.107,
      "velocity": 0.71,
      "hand": "right"
    },
    {
      "midi": 68,
      "time": 84.107,
      "duration": 0.107,
      "velocity": 0.71,
      "hand": "right"
    },
    {
      "midi": 49,
      "time": 84.214,
      "duration": 0.214,
      "velocity": 0.71,
      "hand": "left"
    },
    {
      "midi": 67,
      "time": 84.214,
      "duration": 0.107,
      "velocity": 0.71,
      "hand": "right"
    },
    {
      "midi": 68,
      "time": 84.321,
      "duration": 0.107,
      "velocity": 0.71,
      "hand": "right"
    },
    {
      "midi": 56,
      "time": 84.429,
      "duration": 0.214,
      "velocity": 0.71,
      "hand": "left"
    },
    {
      "midi": 61,
      "time": 84.429,
      "duration": 0.214,
      "velocity": 0.71,
      "hand": "right"
    },
    {
      "midi": 65,
      "time": 84.429,
      "duration": 0.214,
      "velocity": 0.71,
      "hand": "right"
    },
    {
      "midi": 70,
      "time": 84.429,
      "duration": 0.107,
      "velocity": 0.71,
      "hand": "right"
    },
    {
      "midi": 72,
      "time": 84.536,
      "duration": 0.107,
      "velocity": 0.71,
      "hand": "right"
    },
    {
      "midi": 73,
      "time": 84.643,
      "duration": 0.107,
      "velocity": 0.71,
      "hand": "right"
    },
    {
      "midi": 75,
      "time": 84.75,
      "duration": 0.107,
      "velocity": 0.71,
      "hand": "right"
    },
    {
      "midi": 57,
      "time": 84.857,
      "duration": 0.643,
      "velocity": 0.71,
      "hand": "left"
    },
    {
      "midi": 77,
      "time": 84.857,
      "duration": 0.054,
      "velocity": 0.71,
      "hand": "right"
    },
    {
      "midi": 78,
      "time": 84.911,
      "duration": 0.054,
      "velocity": 0.71,
      "hand": "right"
    },
    {
      "midi": 77,
      "time": 85.018,
      "duration": 0.054,
      "velocity": 0.71,
      "hand": "right"
    },
    {
      "midi": 63,
      "time": 85.071,
      "duration": 0.214,
      "velocity": 0.71,
      "hand": "right"
    },
    {
      "midi": 65,
      "time": 85.071,
      "duration": 0.214,
      "velocity": 0.71,
      "hand": "right"
    },
    {
      "midi": 76,
      "time": 85.071,
      "duration": 0.107,
      "velocity": 0.71,
      "hand": "right"
    },
    {
      "midi": 77,
      "time": 85.179,
      "duration": 0.107,
      "velocity": 0.71,
      "hand": "right"
    },
    {
      "midi": 63,
      "time": 85.286,
      "duration": 0.214,
      "velocity": 0.71,
      "hand": "right"
    },
    {
      "midi": 65,
      "time": 85.286,
      "duration": 0.214,
      "velocity": 0.71,
      "hand": "right"
    },
    {
      "midi": 80,
      "time": 85.286,
      "duration": 0.107,
      "velocity": 0.71,
      "hand": "right"
    },
    {
      "midi": 78,
      "time": 85.393,
      "duration": 0.107,
      "velocity": 0.71,
      "hand": "right"
    },
    {
      "midi": 58,
      "time": 85.5,
      "duration": 0.643,
      "velocity": 0.71,
      "hand": "left"
    },
    {
      "midi": 77,
      "time": 85.5,
      "duration": 0.107,
      "velocity": 0.71,
      "hand": "right"
    },
    {
      "midi": 78,
      "time": 85.607,
      "duration": 0.107,
      "velocity": 0.71,
      "hand": "right"
    },
    {
      "midi": 61,
      "time": 85.714,
      "duration": 0.214,
      "velocity": 0.71,
      "hand": "right"
    },
    {
      "midi": 65,
      "time": 85.714,
      "duration": 0.214,
      "velocity": 0.71,
      "hand": "right"
    },
    {
      "midi": 77,
      "time": 85.714,
      "duration": 0.107,
      "velocity": 0.71,
      "hand": "right"
    },
    {
      "midi": 76,
      "time": 85.821,
      "duration": 0.107,
      "velocity": 0.71,
      "hand": "right"
    },
    {
      "midi": 61,
      "time": 85.929,
      "duration": 0.214,
      "velocity": 0.71,
      "hand": "right"
    },
    {
      "midi": 65,
      "time": 85.929,
      "duration": 0.214,
      "velocity": 0.71,
      "hand": "right"
    },
    {
      "midi": 77,
      "time": 85.929,
      "duration": 0.107,
      "velocity": 0.71,
      "hand": "right"
    },
    {
      "midi": 82,
      "time": 86.036,
      "duration": 0.107,
      "velocity": 0.71,
      "hand": "right"
    },
    {
      "midi": 60,
      "time": 86.143,
      "duration": 0.643,
      "velocity": 0.71,
      "hand": "right"
    },
    {
      "midi": 80,
      "time": 86.143,
      "duration": 0.054,
      "velocity": 0.71,
      "hand": "right"
    },
    {
      "midi": 82,
      "time": 86.196,
      "duration": 0.054,
      "velocity": 0.71,
      "hand": "right"
    },
    {
      "midi": 80,
      "time": 86.304,
      "duration": 0.054,
      "velocity": 0.71,
      "hand": "right"
    },
    {
      "midi": 66,
      "time": 86.357,
      "duration": 0.214,
      "velocity": 0.71,
      "hand": "right"
    },
    {
      "midi": 68,
      "time": 86.357,
      "duration": 0.214,
      "velocity": 0.71,
      "hand": "right"
    },
    {
      "midi": 79,
      "time": 86.357,
      "duration": 0.107,
      "velocity": 0.71,
      "hand": "right"
    },
    {
      "midi": 80,
      "time": 86.464,
      "duration": 0.107,
      "velocity": 0.71,
      "hand": "right"
    },
    {
      "midi": 66,
      "time": 86.571,
      "duration": 0.214,
      "velocity": 0.71,
      "hand": "right"
    },
    {
      "midi": 68,
      "time": 86.571,
      "duration": 0.214,
      "velocity": 0.71,
      "hand": "right"
    },
    {
      "midi": 84,
      "time": 86.571,
      "duration": 0.107,
      "velocity": 0.71,
      "hand": "right"
    },
    {
      "midi": 82,
      "time": 86.679,
      "duration": 0.107,
      "velocity": 0.71,
      "hand": "right"
    },
    {
      "midi": 61,
      "time": 86.786,
      "duration": 0.214,
      "velocity": 0.71,
      "hand": "right"
    },
    {
      "midi": 80,
      "time": 86.786,
      "duration": 0.107,
      "velocity": 0.71,
      "hand": "right"
    },
    {
      "midi": 82,
      "time": 86.893,
      "duration": 0.107,
      "velocity": 0.71,
      "hand": "right"
    },
    {
      "midi": 65,
      "time": 87,
      "duration": 0.214,
      "velocity": 0.71,
      "hand": "right"
    },
    {
      "midi": 68,
      "time": 87,
      "duration": 0.214,
      "velocity": 0.71,
      "hand": "right"
    },
    {
      "midi": 80,
      "time": 87,
      "duration": 0.107,
      "velocity": 0.71,
      "hand": "right"
    },
    {
      "midi": 79,
      "time": 87.107,
      "duration": 0.107,
      "velocity": 0.71,
      "hand": "right"
    },
    {
      "midi": 80,
      "time": 87.214,
      "duration": 0.107,
      "velocity": 0.71,
      "hand": "right"
    },
    {
      "midi": 101,
      "time": 87.321,
      "duration": 0.107,
      "velocity": 0.71,
      "hand": "right"
    },
    {
      "midi": 42,
      "time": 87.429,
      "duration": 0.214,
      "velocity": 0.71,
      "hand": "left"
    },
    {
      "midi": 99,
      "time": 87.429,
      "duration": 0.054,
      "velocity": 0.71,
      "hand": "right"
    },
    {
      "midi": 97,
      "time": 87.482,
      "duration": 0.054,
      "velocity": 0.71,
      "hand": "right"
    },
    {
      "midi": 96,
      "time": 87.589,
      "duration": 0.054,
      "velocity": 0.71,
      "hand": "right"
    },
    {
      "midi": 61,
      "time": 87.643,
      "duration": 0.214,
      "velocity": 0.71,
      "hand": "right"
    },
    {
      "midi": 63,
      "time": 87.643,
      "duration": 0.214,
      "velocity": 0.71,
      "hand": "right"
    },
    {
      "midi": 70,
      "time": 87.643,
      "duration": 0.214,
      "velocity": 0.71,
      "hand": "right"
    },
    {
      "midi": 94,
      "time": 87.643,
      "duration": 0.054,
      "velocity": 0.71,
      "hand": "right"
    },
    {
      "midi": 92,
      "time": 87.75,
      "duration": 0.054,
      "velocity": 0.71,
      "hand": "right"
    },
    {
      "midi": 90,
      "time": 87.804,
      "duration": 0.054,
      "velocity": 0.71,
      "hand": "right"
    },
    {
      "midi": 89,
      "time": 87.911,
      "duration": 0.054,
      "velocity": 0.71,
      "hand": "right"
    },
    {
      "midi": 87,
      "time": 87.964,
      "duration": 0.054,
      "velocity": 0.71,
      "hand": "right"
    },
    {
      "midi": 85,
      "time": 88.071,
      "duration": 0.054,
      "velocity": 0.71,
      "hand": "right"
    },
    {
      "midi": 84,
      "time": 88.125,
      "duration": 0.054,
      "velocity": 0.71,
      "hand": "right"
    },
    {
      "midi": 82,
      "time": 88.232,
      "duration": 0.054,
      "velocity": 0.71,
      "hand": "right"
    },
    {
      "midi": 80,
      "time": 88.286,
      "duration": 0.054,
      "velocity": 0.71,
      "hand": "right"
    },
    {
      "midi": 78,
      "time": 88.393,
      "duration": 0.054,
      "velocity": 0.71,
      "hand": "right"
    },
    {
      "midi": 77,
      "time": 88.446,
      "duration": 0.054,
      "velocity": 0.71,
      "hand": "right"
    },
    {
      "midi": 75,
      "time": 88.554,
      "duration": 0.054,
      "velocity": 0.71,
      "hand": "right"
    },
    {
      "midi": 73,
      "time": 88.607,
      "duration": 0.054,
      "velocity": 0.71,
      "hand": "right"
    },
    {
      "midi": 44,
      "time": 88.714,
      "duration": 0.214,
      "velocity": 0.71,
      "hand": "left"
    },
    {
      "midi": 72,
      "time": 88.714,
      "duration": 0.054,
      "velocity": 0.71,
      "hand": "right"
    },
    {
      "midi": 70,
      "time": 88.768,
      "duration": 0.054,
      "velocity": 0.71,
      "hand": "right"
    },
    {
      "midi": 69,
      "time": 88.875,
      "duration": 0.054,
      "velocity": 0.71,
      "hand": "right"
    },
    {
      "midi": 54,
      "time": 88.929,
      "duration": 0.214,
      "velocity": 0.71,
      "hand": "left"
    },
    {
      "midi": 56,
      "time": 88.929,
      "duration": 0.214,
      "velocity": 0.71,
      "hand": "left"
    },
    {
      "midi": 72,
      "time": 88.929,
      "duration": 0.054,
      "velocity": 0.71,
      "hand": "right"
    },
    {
      "midi": 70,
      "time": 89.036,
      "duration": 0.054,
      "velocity": 0.71,
      "hand": "right"
    },
    {
      "midi": 65,
      "time": 89.089,
      "duration": 0.054,
      "velocity": 0.71,
      "hand": "right"
    },
    {
      "midi": 54,
      "time": 89.143,
      "duration": 0.214,
      "velocity": 0.71,
      "hand": "left"
    },
    {
      "midi": 56,
      "time": 89.143,
      "duration": 0.214,
      "velocity": 0.71,
      "hand": "left"
    },
    {
      "midi": 66,
      "time": 89.196,
      "duration": 0.054,
      "velocity": 0.71,
      "hand": "right"
    },
    {
      "midi": 60,
      "time": 89.25,
      "duration": 0.054,
      "velocity": 0.71,
      "hand": "right"
    },
    {
      "midi": 37,
      "time": 89.357,
      "duration": 0.214,
      "velocity": 0.71,
      "hand": "left"
    },
    {
      "midi": 61,
      "time": 89.357,
      "duration": 0.429,
      "velocity": 0.71,
      "hand": "right"
    },
    {
      "midi": 53,
      "time": 89.571,
      "duration": 0.214,
      "velocity": 0.71,
      "hand": "left"
    },
    {
      "midi": 56,
      "time": 89.571,
      "duration": 0.214,
      "velocity": 0.71,
      "hand": "left"
    },
    {
      "midi": 65,
      "time": 89.571,
      "duration": 0.214,
      "velocity": 0.71,
      "hand": "right"
    }
  ],
  "arrangements": {
    "easy": [
      {
        "midi": 68,
        "time": 0,
        "duration": 0.214,
        "velocity": 0.71,
        "hand": "right"
      },
      {
        "midi": 67,
        "time": 0.214,
        "duration": 0.107,
        "velocity": 0.71,
        "hand": "right"
      },
      {
        "midi": 72,
        "time": 0.429,
        "duration": 0.107,
        "velocity": 0.71,
        "hand": "right"
      },
      {
        "midi": 67,
        "time": 0.643,
        "duration": 0.107,
        "velocity": 0.71,
        "hand": "right"
      },
      {
        "midi": 70,
        "time": 0.857,
        "duration": 0.107,
        "velocity": 0.71,
        "hand": "right"
      },
      {
        "midi": 72,
        "time": 1.071,
        "duration": 0.107,
        "velocity": 0.71,
        "hand": "right"
      },
      {
        "midi": 70,
        "time": 1.179,
        "duration": 0.107,
        "velocity": 0.71,
        "hand": "right"
      },
      {
        "midi": 68,
        "time": 1.393,
        "duration": 0.107,
        "velocity": 0.71,
        "hand": "right"
      },
      {
        "midi": 70,
        "time": 1.607,
        "duration": 0.107,
        "velocity": 0.71,
        "hand": "right"
      },
      {
        "midi": 68,
        "time": 1.821,
        "duration": 0.107,
        "velocity": 0.71,
        "hand": "right"
      },
      {
        "midi": 72,
        "time": 1.929,
        "duration": 0.107,
        "velocity": 0.71,
        "hand": "right"
      },
      {
        "midi": 67,
        "time": 2.143,
        "duration": 0.107,
        "velocity": 0.71,
        "hand": "right"
      },
      {
        "midi": 72,
        "time": 2.357,
        "duration": 0.107,
        "velocity": 0.71,
        "hand": "right"
      },
      {
        "midi": 67,
        "time": 2.571,
        "duration": 0.107,
        "velocity": 0.71,
        "hand": "right"
      },
      {
        "midi": 68,
        "time": 2.679,
        "duration": 0.107,
        "velocity": 0.71,
        "hand": "right"
      },
      {
        "midi": 70,
        "time": 2.893,
        "duration": 0.107,
        "velocity": 0.71,
        "hand": "right"
      },
      {
        "midi": 68,
        "time": 3.107,
        "duration": 0.107,
        "velocity": 0.71,
        "hand": "right"
      },
      {
        "midi": 70,
        "time": 3.321,
        "duration": 0.107,
        "velocity": 0.71,
        "hand": "right"
      },
      {
        "midi": 67,
        "time": 3.429,
        "duration": 0.107,
        "velocity": 0.71,
        "hand": "right"
      },
      {
        "midi": 72,
        "time": 3.643,
        "duration": 0.107,
        "velocity": 0.71,
        "hand": "right"
      },
      {
        "midi": 67,
        "time": 3.857,
        "duration": 0.107,
        "velocity": 0.71,
        "hand": "right"
      },
      {
        "midi": 72,
        "time": 4.071,
        "duration": 0.107,
        "velocity": 0.71,
        "hand": "right"
      },
      {
        "midi": 70,
        "time": 4.179,
        "duration": 0.107,
        "velocity": 0.71,
        "hand": "right"
      },
      {
        "midi": 68,
        "time": 4.393,
        "duration": 0.107,
        "velocity": 0.71,
        "hand": "right"
      },
      {
        "midi": 72,
        "time": 4.607,
        "duration": 0.107,
        "velocity": 0.71,
        "hand": "right"
      },
      {
        "midi": 75,
        "time": 4.821,
        "duration": 0.107,
        "velocity": 0.71,
        "hand": "right"
      },
      {
        "midi": 77,
        "time": 4.929,
        "duration": 0.107,
        "velocity": 0.71,
        "hand": "right"
      },
      {
        "midi": 82,
        "time": 5.143,
        "duration": 0.321,
        "velocity": 0.71,
        "hand": "right"
      },
      {
        "midi": 66,
        "time": 5.357,
        "duration": 0.214,
        "velocity": 0.71,
        "hand": "right"
      },
      {
        "midi": 78,
        "time": 5.571,
        "duration": 0.107,
        "velocity": 0.71,
        "hand": "right"
      },
      {
        "midi": 77,
        "time": 5.679,
        "duration": 0.107,
        "velocity": 0.71,
        "hand": "right"
      },
      {
        "midi": 75,
        "time": 5.893,
        "duration": 0.107,
        "velocity": 0.71,
        "hand": "right"
      },
      {
        "midi": 74,
        "time": 6.107,
        "duration": 0.107,
        "velocity": 0.71,
        "hand": "right"
      },
      {
        "midi": 82,
        "time": 6.429,
        "duration": 0.321,
        "velocity": 0.71,
        "hand": "right"
      },
      {
        "midi": 66,
        "time": 6.643,
        "duration": 0.214,
        "velocity": 0.71,
        "hand": "right"
      },
      {
        "midi": 78,
        "time": 6.857,
        "duration": 0.107,
        "velocity": 0.71,
        "hand": "right"
      },
      {
        "midi": 77,
        "time": 7.071,
        "duration": 0.107,
        "velocity": 0.71,
        "hand": "right"
      },
      {
        "midi": 75,
        "time": 7.179,
        "duration": 0.107,
        "velocity": 0.71,
        "hand": "right"
      },
      {
        "midi": 75,
        "time": 7.393,
        "duration": 0.107,
        "velocity": 0.71,
        "hand": "right"
      },
      {
        "midi": 70,
        "time": 7.607,
        "duration": 0.107,
        "velocity": 0.71,
        "hand": "right"
      },
      {
        "midi": 68,
        "time": 7.821,
        "duration": 0.107,
        "velocity": 0.71,
        "hand": "right"
      },
      {
        "midi": 72,
        "time": 7.929,
        "duration": 0.107,
        "velocity": 0.71,
        "hand": "right"
      },
      {
        "midi": 67,
        "time": 8.143,
        "duration": 0.107,
        "velocity": 0.71,
        "hand": "right"
      },
      {
        "midi": 72,
        "time": 8.357,
        "duration": 0.107,
        "velocity": 0.71,
        "hand": "right"
      },
      {
        "midi": 67,
        "time": 8.571,
        "duration": 0.107,
        "velocity": 0.71,
        "hand": "right"
      },
      {
        "midi": 68,
        "time": 8.679,
        "duration": 0.107,
        "velocity": 0.71,
        "hand": "right"
      },
      {
        "midi": 70,
        "time": 8.893,
        "duration": 0.107,
        "velocity": 0.71,
        "hand": "right"
      },
      {
        "midi": 68,
        "time": 9.107,
        "duration": 0.107,
        "velocity": 0.71,
        "hand": "right"
      },
      {
        "midi": 70,
        "time": 9.321,
        "duration": 0.107,
        "velocity": 0.71,
        "hand": "right"
      },
      {
        "midi": 67,
        "time": 9.429,
        "duration": 0.107,
        "velocity": 0.71,
        "hand": "right"
      },
      {
        "midi": 70,
        "time": 9.643,
        "duration": 0.107,
        "velocity": 0.71,
        "hand": "right"
      },
      {
        "midi": 73,
        "time": 9.857,
        "duration": 0.107,
        "velocity": 0.71,
        "hand": "right"
      },
      {
        "midi": 77,
        "time": 10.071,
        "duration": 0.107,
        "velocity": 0.71,
        "hand": "right"
      },
      {
        "midi": 78,
        "time": 10.179,
        "duration": 0.107,
        "velocity": 0.71,
        "hand": "right"
      },
      {
        "midi": 66,
        "time": 10.5,
        "duration": 0.214,
        "velocity": 0.71,
        "hand": "right"
      },
      {
        "midi": 78,
        "time": 10.714,
        "duration": 0.107,
        "velocity": 0.71,
        "hand": "right"
      },
      {
        "midi": 77,
        "time": 10.929,
        "duration": 0.107,
        "velocity": 0.71,
        "hand": "right"
      },
      {
        "midi": 75,
        "time": 11.143,
        "duration": 0.107,
        "velocity": 0.71,
        "hand": "right"
      },
      {
        "midi": 75,
        "time": 11.357,
        "duration": 0.214,
        "velocity": 0.71,
        "hand": "right"
      },
      {
        "midi": 82,
        "time": 11.571,
        "duration": 0.321,
        "velocity": 0.71,
        "hand": "right"
      },
      {
        "midi": 66,
        "time": 11.786,
        "duration": 0.214,
        "velocity": 0.71,
        "hand": "right"
      },
      {
        "midi": 78,
        "time": 12,
        "duration": 0.107,
        "velocity": 0.71,
        "hand": "right"
      },
      {
        "midi": 75,
        "time": 12.214,
        "duration": 0.107,
        "velocity": 0.71,
        "hand": "right"
      },
      {
        "midi": 75,
        "time": 12.429,
        "duration": 0.107,
        "velocity": 0.71,
        "hand": "right"
      },
      {
        "midi": 75,
        "time": 12.643,
        "duration": 0.107,
        "velocity": 0.71,
        "hand": "right"
      },
      {
        "midi": 78,
        "time": 12.911,
        "duration": 0.107,
        "velocity": 0.71,
        "hand": "right"
      },
      {
        "midi": 77,
        "time": 13.179,
        "duration": 0.107,
        "velocity": 0.71,
        "hand": "right"
      },
      {
        "midi": 78,
        "time": 13.393,
        "duration": 0.107,
        "velocity": 0.71,
        "hand": "right"
      },
      {
        "midi": 78,
        "time": 13.607,
        "duration": 0.107,
        "velocity": 0.71,
        "hand": "right"
      },
      {
        "midi": 76,
        "time": 13.821,
        "duration": 0.107,
        "velocity": 0.71,
        "hand": "right"
      },
      {
        "midi": 77,
        "time": 13.929,
        "duration": 0.107,
        "velocity": 0.71,
        "hand": "right"
      },
      {
        "midi": 82,
        "time": 14.196,
        "duration": 0.107,
        "velocity": 0.71,
        "hand": "right"
      },
      {
        "midi": 80,
        "time": 14.304,
        "duration": 0.107,
        "velocity": 0.71,
        "hand": "right"
      },
      {
        "midi": 80,
        "time": 14.464,
        "duration": 0.107,
        "velocity": 0.71,
        "hand": "right"
      },
      {
        "midi": 82,
        "time": 14.679,
        "duration": 0.107,
        "velocity": 0.71,
        "hand": "right"
      },
      {
        "midi": 82,
        "time": 14.893,
        "duration": 0.107,
        "velocity": 0.71,
        "hand": "right"
      },
      {
        "midi": 79,
        "time": 15.107,
        "duration": 0.107,
        "velocity": 0.71,
        "hand": "right"
      },
      {
        "midi": 85,
        "time": 15.321,
        "duration": 0.107,
        "velocity": 0.71,
        "hand": "right"
      },
      {
        "midi": 84,
        "time": 15.429,
        "duration": 0.107,
        "velocity": 0.71,
        "hand": "right"
      },
      {
        "midi": 80,
        "time": 15.643,
        "duration": 0.107,
        "velocity": 0.71,
        "hand": "right"
      },
      {
        "midi": 77,
        "time": 15.857,
        "duration": 0.107,
        "velocity": 0.71,
        "hand": "right"
      },
      {
        "midi": 73,
        "time": 16.071,
        "duration": 0.107,
        "velocity": 0.71,
        "hand": "right"
      },
      {
        "midi": 72,
        "time": 16.179,
        "duration": 0.107,
        "velocity": 0.71,
        "hand": "right"
      },
      {
        "midi": 68,
        "time": 16.393,
        "duration": 0.107,
        "velocity": 0.71,
        "hand": "right"
      },
      {
        "midi": 65,
        "time": 16.607,
        "duration": 0.107,
        "velocity": 0.71,
        "hand": "right"
      },
      {
        "midi": 61,
        "time": 16.821,
        "duration": 0.107,
        "velocity": 0.71,
        "hand": "right"
      },
      {
        "midi": 60,
        "time": 16.929,
        "duration": 0.107,
        "velocity": 0.71,
        "hand": "right"
      },
      {
        "midi": 70,
        "time": 17.143,
        "duration": 0.107,
        "velocity": 0.71,
        "hand": "right"
      },
      {
        "midi": 67,
        "time": 17.357,
        "duration": 0.107,
        "velocity": 0.71,
        "hand": "right"
      },
      {
        "midi": 70,
        "time": 17.571,
        "duration": 0.107,
        "velocity": 0.71,
        "hand": "right"
      },
      {
        "midi": 72,
        "time": 17.679,
        "duration": 0.107,
        "velocity": 0.71,
        "hand": "right"
      },
      {
        "midi": 75,
        "time": 17.893,
        "duration": 0.107,
        "velocity": 0.71,
        "hand": "right"
      },
      {
        "midi": 78,
        "time": 18.054,
        "duration": 0.107,
        "velocity": 0.71,
        "hand": "right"
      },
      {
        "midi": 77,
        "time": 18.321,
        "duration": 0.107,
        "velocity": 0.71,
        "hand": "right"
      },
      {
        "midi": 80,
        "time": 18.429,
        "duration": 0.107,
        "velocity": 0.71,
        "hand": "right"
      },
      {
        "midi": 77,
        "time": 18.643,
        "duration": 0.107,
        "velocity": 0.71,
        "hand": "right"
      },
      {
        "midi": 77,
        "time": 18.857,
        "duration": 0.107,
        "velocity": 0.71,
        "hand": "right"
      },
      {
        "midi": 77,
        "time": 19.071,
        "duration": 0.107,
        "velocity": 0.71,
        "hand": "right"
      },
      {
        "midi": 82,
        "time": 19.179,
        "duration": 0.107,
        "velocity": 0.71,
        "hand": "right"
      },
      {
        "midi": 82,
        "time": 19.339,
        "duration": 0.107,
        "velocity": 0.71,
        "hand": "right"
      },
      {
        "midi": 80,
        "time": 19.607,
        "duration": 0.107,
        "velocity": 0.71,
        "hand": "right"
      },
      {
        "midi": 82,
        "time": 19.821,
        "duration": 0.107,
        "velocity": 0.71,
        "hand": "right"
      },
      {
        "midi": 80,
        "time": 19.929,
        "duration": 0.107,
        "velocity": 0.71,
        "hand": "right"
      },
      {
        "midi": 80,
        "time": 20.143,
        "duration": 0.107,
        "velocity": 0.71,
        "hand": "right"
      },
      {
        "midi": 80,
        "time": 20.357,
        "duration": 0.107,
        "velocity": 0.71,
        "hand": "right"
      },
      {
        "midi": 87,
        "time": 20.571,
        "duration": 0.107,
        "velocity": 0.71,
        "hand": "right"
      },
      {
        "midi": 85,
        "time": 20.679,
        "duration": 0.107,
        "velocity": 0.71,
        "hand": "right"
      },
      {
        "midi": 82,
        "time": 20.893,
        "duration": 0.107,
        "velocity": 0.71,
        "hand": "right"
      },
      {
        "midi": 78,
        "time": 21.107,
        "duration": 0.107,
        "velocity": 0.71,
        "hand": "right"
      },
      {
        "midi": 75,
        "time": 21.321,
        "duration": 0.107,
        "velocity": 0.71,
        "hand": "right"
      },
      {
        "midi": 73,
        "time": 21.429,
        "duration": 0.107,
        "velocity": 0.71,
        "hand": "right"
      },
      {
        "midi": 70,
        "time": 21.643,
        "duration": 0.107,
        "velocity": 0.71,
        "hand": "right"
      },
      {
        "midi": 69,
        "time": 21.857,
        "duration": 0.107,
        "velocity": 0.71,
        "hand": "right"
      },
      {
        "midi": 70,
        "time": 22.071,
        "duration": 0.107,
        "velocity": 0.71,
        "hand": "right"
      },
      {
        "midi": 65,
        "time": 22.179,
        "duration": 0.107,
        "velocity": 0.71,
        "hand": "right"
      },
      {
        "midi": 60,
        "time": 22.393,
        "duration": 0.107,
        "velocity": 0.71,
        "hand": "right"
      },
      {
        "midi": 65,
        "time": 22.714,
        "duration": 0.214,
        "velocity": 0.71,
        "hand": "right"
      },
      {
        "midi": 77,
        "time": 22.929,
        "duration": 0.214,
        "velocity": 0.71,
        "hand": "right"
      },
      {
        "midi": 78,
        "time": 23.196,
        "duration": 0.107,
        "velocity": 0.71,
        "hand": "right"
      },
      {
        "midi": 77,
        "time": 23.304,
        "duration": 0.107,
        "velocity": 0.71,
        "hand": "right"
      },
      {
        "midi": 77,
        "time": 23.464,
        "duration": 0.107,
        "velocity": 0.71,
        "hand": "right"
      },
      {
        "midi": 78,
        "time": 23.679,
        "duration": 0.107,
        "velocity": 0.71,
        "hand": "right"
      },
      {
        "midi": 78,
        "time": 23.893,
        "duration": 0.107,
        "velocity": 0.71,
        "hand": "right"
      },
      {
        "midi": 76,
        "time": 24.107,
        "duration": 0.107,
        "velocity": 0.71,
        "hand": "right"
      },
      {
        "midi": 82,
        "time": 24.321,
        "duration": 0.107,
        "velocity": 0.71,
        "hand": "right"
      },
      {
        "midi": 82,
        "time": 24.482,
        "duration": 0.107,
        "velocity": 0.71,
        "hand": "right"
      },
      {
        "midi": 80,
        "time": 24.75,
        "duration": 0.107,
        "velocity": 0.71,
        "hand": "right"
      },
      {
        "midi": 82,
        "time": 24.964,
        "duration": 0.107,
        "velocity": 0.71,
        "hand": "right"
      },
      {
        "midi": 82,
        "time": 25.179,
        "duration": 0.107,
        "velocity": 0.71,
        "hand": "right"
      },
      {
        "midi": 79,
        "time": 25.393,
        "duration": 0.107,
        "velocity": 0.71,
        "hand": "right"
      },
      {
        "midi": 85,
        "time": 25.607,
        "duration": 0.107,
        "velocity": 0.71,
        "hand": "right"
      },
      {
        "midi": 82,
        "time": 25.821,
        "duration": 0.107,
        "velocity": 0.71,
        "hand": "right"
      },
      {
        "midi": 80,
        "time": 25.929,
        "duration": 0.107,
        "velocity": 0.71,
        "hand": "right"
      },
      {
        "midi": 77,
        "time": 26.143,
        "duration": 0.107,
        "velocity": 0.71,
        "hand": "right"
      },
      {
        "midi": 73,
        "time": 26.357,
        "duration": 0.107,
        "velocity": 0.71,
        "hand": "right"
      },
      {
        "midi": 70,
        "time": 26.571,
        "duration": 0.107,
        "velocity": 0.71,
        "hand": "right"
      },
      {
        "midi": 68,
        "time": 26.679,
        "duration": 0.107,
        "velocity": 0.71,
        "hand": "right"
      },
      {
        "midi": 65,
        "time": 26.893,
        "duration": 0.107,
        "velocity": 0.71,
        "hand": "right"
      },
      {
        "midi": 61,
        "time": 27.107,
        "duration": 0.107,
        "velocity": 0.71,
        "hand": "right"
      },
      {
        "midi": 63,
        "time": 27.321,
        "duration": 0.107,
        "velocity": 0.71,
        "hand": "right"
      },
      {
        "midi": 70,
        "time": 27.429,
        "duration": 0.107,
        "velocity": 0.71,
        "hand": "right"
      },
      {
        "midi": 67,
        "time": 27.643,
        "duration": 0.107,
        "velocity": 0.71,
        "hand": "right"
      },
      {
        "midi": 70,
        "time": 27.857,
        "duration": 0.107,
        "velocity": 0.71,
        "hand": "right"
      },
      {
        "midi": 73,
        "time": 28.071,
        "duration": 0.107,
        "velocity": 0.71,
        "hand": "right"
      },
      {
        "midi": 75,
        "time": 28.179,
        "duration": 0.107,
        "velocity": 0.71,
        "hand": "right"
      },
      {
        "midi": 78,
        "time": 28.339,
        "duration": 0.107,
        "velocity": 0.71,
        "hand": "right"
      },
      {
        "midi": 77,
        "time": 28.607,
        "duration": 0.107,
        "velocity": 0.71,
        "hand": "right"
      },
      {
        "midi": 78,
        "time": 28.821,
        "duration": 0.107,
        "velocity": 0.71,
        "hand": "right"
      },
      {
        "midi": 77,
        "time": 28.929,
        "duration": 0.107,
        "velocity": 0.71,
        "hand": "right"
      },
      {
        "midi": 77,
        "time": 29.143,
        "duration": 0.107,
        "velocity": 0.71,
        "hand": "right"
      },
      {
        "midi": 77,
        "time": 29.357,
        "duration": 0.107,
        "velocity": 0.71,
        "hand": "right"
      },
      {
        "midi": 82,
        "time": 29.625,
        "duration": 0.107,
        "velocity": 0.71,
        "hand": "right"
      },
      {
        "midi": 80,
        "time": 29.893,
        "duration": 0.107,
        "velocity": 0.71,
        "hand": "right"
      },
      {
        "midi": 82,
        "time": 30.107,
        "duration": 0.107,
        "velocity": 0.71,
        "hand": "right"
      },
      {
        "midi": 82,
        "time": 30.321,
        "duration": 0.107,
        "velocity": 0.71,
        "hand": "right"
      },
      {
        "midi": 80,
        "time": 30.429,
        "duration": 0.107,
        "velocity": 0.71,
        "hand": "right"
      },
      {
        "midi": 80,
        "time": 30.643,
        "duration": 0.107,
        "velocity": 0.71,
        "hand": "right"
      },
      {
        "midi": 87,
        "time": 30.857,
        "duration": 0.107,
        "velocity": 0.71,
        "hand": "right"
      },
      {
        "midi": 84,
        "time": 31.071,
        "duration": 0.107,
        "velocity": 0.71,
        "hand": "right"
      },
      {
        "midi": 82,
        "time": 31.179,
        "duration": 0.107,
        "velocity": 0.71,
        "hand": "right"
      },
      {
        "midi": 78,
        "time": 31.393,
        "duration": 0.107,
        "velocity": 0.71,
        "hand": "right"
      },
      {
        "midi": 75,
        "time": 31.607,
        "duration": 0.107,
        "velocity": 0.71,
        "hand": "right"
      },
      {
        "midi": 72,
        "time": 31.821,
        "duration": 0.107,
        "velocity": 0.71,
        "hand": "right"
      },
      {
        "midi": 70,
        "time": 31.929,
        "duration": 0.107,
        "velocity": 0.71,
        "hand": "right"
      },
      {
        "midi": 69,
        "time": 32.143,
        "duration": 0.107,
        "velocity": 0.71,
        "hand": "right"
      },
      {
        "midi": 70,
        "time": 32.357,
        "duration": 0.107,
        "velocity": 0.71,
        "hand": "right"
      },
      {
        "midi": 66,
        "time": 32.571,
        "duration": 0.107,
        "velocity": 0.71,
        "hand": "right"
      },
      {
        "midi": 60,
        "time": 32.679,
        "duration": 0.107,
        "velocity": 0.71,
        "hand": "right"
      },
      {
        "midi": 65,
        "time": 33,
        "duration": 0.214,
        "velocity": 0.71,
        "hand": "right"
      },
      {
        "midi": 68,
        "time": 33.214,
        "duration": 0.643,
        "velocity": 0.71,
        "hand": "right"
      },
      {
        "midi": 60,
        "time": 33.643,
        "duration": 0.214,
        "velocity": 0.71,
        "hand": "right"
      },
      {
        "midi": 63,
        "time": 33.857,
        "duration": 0.214,
        "velocity": 0.71,
        "hand": "right"
      },
      {
        "midi": 68,
        "time": 34.071,
        "duration": 0.429,
        "velocity": 0.71,
        "hand": "right"
      },
      {
        "midi": 60,
        "time": 34.286,
        "duration": 0.214,
        "velocity": 0.71,
        "hand": "right"
      },
      {
        "midi": 64,
        "time": 34.5,
        "duration": 0.214,
        "velocity": 0.71,
        "hand": "right"
      },
      {
        "midi": 68,
        "time": 34.714,
        "duration": 0.429,
        "velocity": 0.71,
        "hand": "right"
      },
      {
        "midi": 61,
        "time": 34.929,
        "duration": 0.214,
        "velocity": 0.71,
        "hand": "right"
      },
      {
        "midi": 65,
        "time": 35.143,
        "duration": 0.214,
        "velocity": 0.71,
        "hand": "right"
      },
      {
        "midi": 77,
        "time": 35.357,
        "duration": 0.429,
        "velocity": 0.71,
        "hand": "right"
      },
      {
        "midi": 65,
        "time": 35.571,
        "duration": 0.214,
        "velocity": 0.71,
        "hand": "right"
      },
      {
        "midi": 77,
        "time": 35.786,
        "duration": 0.643,
        "velocity": 0.71,
        "hand": "right"
      },
      {
        "midi": 66,
        "time": 36.214,
        "duration": 0.214,
        "velocity": 0.71,
        "hand": "right"
      },
      {
        "midi": 70,
        "time": 36.429,
        "duration": 0.214,
        "velocity": 0.71,
        "hand": "right"
      },
      {
        "midi": 77,
        "time": 36.643,
        "duration": 0.429,
        "velocity": 0.71,
        "hand": "right"
      },
      {
        "midi": 66,
        "time": 36.857,
        "duration": 0.214,
        "velocity": 0.71,
        "hand": "right"
      },
      {
        "midi": 72,
        "time": 37.071,
        "duration": 0.214,
        "velocity": 0.71,
        "hand": "right"
      },
      {
        "midi": 75,
        "time": 37.286,
        "duration": 0.429,
        "velocity": 0.71,
        "hand": "right"
      },
      {
        "midi": 65,
        "time": 37.5,
        "duration": 0.214,
        "velocity": 0.71,
        "hand": "right"
      },
      {
        "midi": 73,
        "time": 37.714,
        "duration": 0.214,
        "velocity": 0.71,
        "hand": "right"
      },
      {
        "midi": 72,
        "time": 37.929,
        "duration": 0.161,
        "velocity": 0.71,
        "hand": "right"
      },
      {
        "midi": 75,
        "time": 38.089,
        "duration": 0.161,
        "velocity": 0.71,
        "hand": "right"
      },
      {
        "midi": 73,
        "time": 38.25,
        "duration": 0.161,
        "velocity": 0.71,
        "hand": "right"
      },
      {
        "midi": 70,
        "time": 38.411,
        "duration": 0.161,
        "velocity": 0.71,
        "hand": "right"
      },
      {
        "midi": 68,
        "time": 38.571,
        "duration": 0.429,
        "velocity": 0.71,
        "hand": "right"
      },
      {
        "midi": 63,
        "time": 39,
        "duration": 0.214,
        "velocity": 0.71,
        "hand": "right"
      },
      {
        "midi": 68,
        "time": 39.214,
        "duration": 0.429,
        "velocity": 0.71,
        "hand": "right"
      },
      {
        "midi": 64,
        "time": 39.643,
        "duration": 0.214,
        "velocity": 0.71,
        "hand": "right"
      },
      {
        "midi": 68,
        "time": 39.857,
        "duration": 0.429,
        "velocity": 0.71,
        "hand": "right"
      },
      {
        "midi": 61,
        "time": 40.071,
        "duration": 0.214,
        "velocity": 0.71,
        "hand": "right"
      },
      {
        "midi": 65,
        "time": 40.286,
        "duration": 0.214,
        "velocity": 0.71,
        "hand": "right"
      },
      {
        "midi": 77,
        "time": 40.5,
        "duration": 0.643,
        "velocity": 0.71,
        "hand": "right"
      },
      {
        "midi": 65,
        "time": 40.714,
        "duration": 0.214,
        "velocity": 0.71,
        "hand": "right"
      },
      {
        "midi": 65,
        "time": 40.929,
        "duration": 0.214,
        "velocity": 0.71,
        "hand": "right"
      },
      {
        "midi": 72,
        "time": 41.143,
        "duration": 0.214,
        "velocity": 0.71,
        "hand": "right"
      },
      {
        "midi": 71,
        "time": 41.357,
        "duration": 0.214,
        "velocity": 0.71,
        "hand": "right"
      },
      {
        "midi": 72,
        "time": 41.571,
        "duration": 0.214,
        "velocity": 0.71,
        "hand": "right"
      },
      {
        "midi": 80,
        "time": 41.786,
        "duration": 0.214,
        "velocity": 0.71,
        "hand": "right"
      },
      {
        "midi": 70,
        "time": 42,
        "duration": 0.214,
        "velocity": 0.71,
        "hand": "right"
      },
      {
        "midi": 79,
        "time": 42.214,
        "duration": 0.214,
        "velocity": 0.71,
        "hand": "right"
      },
      {
        "midi": 69,
        "time": 42.429,
        "duration": 0.214,
        "velocity": 0.71,
        "hand": "right"
      },
      {
        "midi": 78,
        "time": 42.643,
        "duration": 0.214,
        "velocity": 0.71,
        "hand": "right"
      },
      {
        "midi": 68,
        "time": 42.857,
        "duration": 0.214,
        "velocity": 0.71,
        "hand": "right"
      },
      {
        "midi": 77,
        "time": 43.071,
        "duration": 0.214,
        "velocity": 0.71,
        "hand": "right"
      },
      {
        "midi": 65,
        "time": 43.286,
        "duration": 0.214,
        "velocity": 0.71,
        "hand": "right"
      },
      {
        "midi": 70,
        "time": 43.5,
        "duration": 0.214,
        "velocity": 0.71,
        "hand": "right"
      },
      {
        "midi": 68,
        "time": 43.714,
        "duration": 0.429,
        "velocity": 0.71,
        "hand": "right"
      },
      {
        "midi": 63,
        "time": 44.143,
        "duration": 0.214,
        "velocity": 0.71,
        "hand": "right"
      },
      {
        "midi": 68,
        "time": 44.357,
        "duration": 0.429,
        "velocity": 0.71,
        "hand": "right"
      },
      {
        "midi": 60,
        "time": 44.571,
        "duration": 0.214,
        "velocity": 0.71,
        "hand": "right"
      },
      {
        "midi": 64,
        "time": 44.786,
        "duration": 0.214,
        "velocity": 0.71,
        "hand": "right"
      },
      {
        "midi": 68,
        "time": 45,
        "duration": 0.429,
        "velocity": 0.71,
        "hand": "right"
      },
      {
        "midi": 61,
        "time": 45.214,
        "duration": 0.214,
        "velocity": 0.71,
        "hand": "right"
      },
      {
        "midi": 65,
        "time": 45.429,
        "duration": 0.214,
        "velocity": 0.71,
        "hand": "right"
      },
      {
        "midi": 77,
        "time": 45.643,
        "duration": 0.429,
        "velocity": 0.71,
        "hand": "right"
      },
      {
        "midi": 65,
        "time": 45.857,
        "duration": 0.214,
        "velocity": 0.71,
        "hand": "right"
      },
      {
        "midi": 77,
        "time": 46.071,
        "duration": 0.214,
        "velocity": 0.71,
        "hand": "right"
      },
      {
        "midi": 77,
        "time": 46.286,
        "duration": 0.429,
        "velocity": 0.71,
        "hand": "right"
      },
      {
        "midi": 66,
        "time": 46.5,
        "duration": 0.214,
        "velocity": 0.71,
        "hand": "right"
      },
      {
        "midi": 70,
        "time": 46.714,
        "duration": 0.214,
        "velocity": 0.71,
        "hand": "right"
      },
      {
        "midi": 77,
        "time": 46.929,
        "duration": 0.429,
        "velocity": 0.71,
        "hand": "right"
      },
      {
        "midi": 66,
        "time": 47.143,
        "duration": 0.214,
        "velocity": 0.71,
        "hand": "right"
      },
      {
        "midi": 72,
        "time": 47.357,
        "duration": 0.214,
        "velocity": 0.71,
        "hand": "right"
      },
      {
        "midi": 75,
        "time": 47.571,
        "duration": 0.214,
        "velocity": 0.71,
        "hand": "right"
      },
      {
        "midi": 73,
        "time": 47.786,
        "duration": 0.214,
        "velocity": 0.71,
        "hand": "right"
      },
      {
        "midi": 72,
        "time": 48,
        "duration": 0.214,
        "velocity": 0.71,
        "hand": "right"
      },
      {
        "midi": 75,
        "time": 48.214,
        "duration": 0.214,
        "velocity": 0.71,
        "hand": "right"
      },
      {
        "midi": 73,
        "time": 48.429,
        "duration": 0.321,
        "velocity": 0.71,
        "hand": "right"
      },
      {
        "midi": 65,
        "time": 48.643,
        "duration": 0.214,
        "velocity": 0.71,
        "hand": "right"
      },
      {
        "midi": 68,
        "time": 48.857,
        "duration": 0.429,
        "velocity": 0.71,
        "hand": "right"
      },
      {
        "midi": 63,
        "time": 49.286,
        "duration": 0.214,
        "velocity": 0.71,
        "hand": "right"
      },
      {
        "midi": 68,
        "time": 49.5,
        "duration": 0.429,
        "velocity": 0.71,
        "hand": "right"
      },
      {
        "midi": 60,
        "time": 49.714,
        "duration": 0.214,
        "velocity": 0.71,
        "hand": "right"
      },
      {
        "midi": 64,
        "time": 49.929,
        "duration": 0.214,
        "velocity": 0.71,
        "hand": "right"
      },
      {
        "midi": 68,
        "time": 50.143,
        "duration": 0.429,
        "velocity": 0.71,
        "hand": "right"
      },
      {
        "midi": 63,
        "time": 50.357,
        "duration": 0.214,
        "velocity": 0.71,
        "hand": "right"
      },
      {
        "midi": 65,
        "time": 50.571,
        "duration": 0.214,
        "velocity": 0.71,
        "hand": "right"
      },
      {
        "midi": 77,
        "time": 50.786,
        "duration": 0.643,
        "velocity": 0.71,
        "hand": "right"
      },
      {
        "midi": 62,
        "time": 51,
        "duration": 0.214,
        "velocity": 0.71,
        "hand": "right"
      },
      {
        "midi": 62,
        "time": 51.214,
        "duration": 0.214,
        "velocity": 0.71,
        "hand": "right"
      },
      {
        "midi": 77,
        "time": 51.429,
        "duration": 0.429,
        "velocity": 0.71,
        "hand": "right"
      },
      {
        "midi": 67,
        "time": 51.643,
        "duration": 0.214,
        "velocity": 0.71,
        "hand": "right"
      },
      {
        "midi": 70,
        "time": 51.857,
        "duration": 0.214,
        "velocity": 0.71,
        "hand": "right"
      },
      {
        "midi": 75,
        "time": 52.071,
        "duration": 0.429,
        "velocity": 0.71,
        "hand": "right"
      },
      {
        "midi": 66,
        "time": 52.286,
        "duration": 0.214,
        "velocity": 0.71,
        "hand": "right"
      },
      {
        "midi": 69,
        "time": 52.5,
        "duration": 0.214,
        "velocity": 0.71,
        "hand": "right"
      },
      {
        "midi": 75,
        "time": 52.714,
        "duration": 0.214,
        "velocity": 0.71,
        "hand": "right"
      },
      {
        "midi": 68,
        "time": 52.929,
        "duration": 0.214,
        "velocity": 0.71,
        "hand": "right"
      },
      {
        "midi": 74,
        "time": 53.143,
        "duration": 0.214,
        "velocity": 0.71,
        "hand": "right"
      },
      {
        "midi": 77,
        "time": 53.357,
        "duration": 0.214,
        "velocity": 0.71,
        "hand": "right"
      },
      {
        "midi": 75,
        "time": 53.571,
        "duration": 0.214,
        "velocity": 0.71,
        "hand": "right"
      },
      {
        "midi": 80,
        "time": 53.786,
        "duration": 0.214,
        "velocity": 0.71,
        "hand": "right"
      },
      {
        "midi": 68,
        "time": 54,
        "duration": 2.571,
        "velocity": 0.71,
        "hand": "right"
      },
      {
        "midi": 67,
        "time": 56.571,
        "duration": 0.107,
        "velocity": 0.71,
        "hand": "right"
      },
      {
        "midi": 68,
        "time": 56.679,
        "duration": 0.107,
        "velocity": 0.71,
        "hand": "right"
      },
      {
        "midi": 70,
        "time": 56.893,
        "duration": 0.107,
        "velocity": 0.71,
        "hand": "right"
      },
      {
        "midi": 68,
        "time": 57.107,
        "duration": 0.107,
        "velocity": 0.71,
        "hand": "right"
      },
      {
        "midi": 70,
        "time": 57.321,
        "duration": 0.107,
        "velocity": 0.71,
        "hand": "right"
      },
      {
        "midi": 67,
        "time": 57.429,
        "duration": 0.107,
        "velocity": 0.71,
        "hand": "right"
      },
      {
        "midi": 72,
        "time": 57.643,
        "duration": 0.107,
        "velocity": 0.71,
        "hand": "right"
      },
      {
        "midi": 67,
        "time": 57.857,
        "duration": 0.107,
        "velocity": 0.71,
        "hand": "right"
      },
      {
        "midi": 72,
        "time": 58.071,
        "duration": 0.107,
        "velocity": 0.71,
        "hand": "right"
      },
      {
        "midi": 70,
        "time": 58.179,
        "duration": 0.107,
        "velocity": 0.71,
        "hand": "right"
      },
      {
        "midi": 68,
        "time": 58.393,
        "duration": 0.107,
        "velocity": 0.71,
        "hand": "right"
      },
      {
        "midi": 70,
        "time": 58.607,
        "duration": 0.107,
        "velocity": 0.71,
        "hand": "right"
      },
      {
        "midi": 68,
        "time": 58.821,
        "duration": 0.107,
        "velocity": 0.71,
        "hand": "right"
      },
      {
        "midi": 72,
        "time": 58.929,
        "duration": 0.107,
        "velocity": 0.71,
        "hand": "right"
      },
      {
        "midi": 67,
        "time": 59.143,
        "duration": 0.107,
        "velocity": 0.71,
        "hand": "right"
      },
      {
        "midi": 72,
        "time": 59.357,
        "duration": 0.107,
        "velocity": 0.71,
        "hand": "right"
      },
      {
        "midi": 67,
        "time": 59.571,
        "duration": 0.107,
        "velocity": 0.71,
        "hand": "right"
      },
      {
        "midi": 68,
        "time": 59.679,
        "duration": 0.107,
        "velocity": 0.71,
        "hand": "right"
      },
      {
        "midi": 70,
        "time": 59.893,
        "duration": 0.107,
        "velocity": 0.71,
        "hand": "right"
      },
      {
        "midi": 68,
        "time": 60.107,
        "duration": 0.107,
        "velocity": 0.71,
        "hand": "right"
      },
      {
        "midi": 70,
        "time": 60.321,
        "duration": 0.107,
        "velocity": 0.71,
        "hand": "right"
      },
      {
        "midi": 67,
        "time": 60.429,
        "duration": 0.107,
        "velocity": 0.71,
        "hand": "right"
      },
      {
        "midi": 72,
        "time": 60.643,
        "duration": 0.107,
        "velocity": 0.71,
        "hand": "right"
      },
      {
        "midi": 67,
        "time": 60.857,
        "duration": 0.107,
        "velocity": 0.71,
        "hand": "right"
      },
      {
        "midi": 70,
        "time": 61.071,
        "duration": 0.107,
        "velocity": 0.71,
        "hand": "right"
      },
      {
        "midi": 72,
        "time": 61.179,
        "duration": 0.107,
        "velocity": 0.71,
        "hand": "right"
      },
      {
        "midi": 75,
        "time": 61.393,
        "duration": 0.107,
        "velocity": 0.71,
        "hand": "right"
      },
      {
        "midi": 78,
        "time": 61.607,
        "duration": 0.107,
        "velocity": 0.71,
        "hand": "right"
      },
      {
        "midi": 66,
        "time": 61.929,
        "duration": 0.214,
        "velocity": 0.71,
        "hand": "right"
      },
      {
        "midi": 78,
        "time": 62.143,
        "duration": 0.107,
        "velocity": 0.71,
        "hand": "right"
      },
      {
        "midi": 77,
        "time": 62.357,
        "duration": 0.107,
        "velocity": 0.71,
        "hand": "right"
      },
      {
        "midi": 75,
        "time": 62.571,
        "duration": 0.107,
        "velocity": 0.71,
        "hand": "right"
      },
      {
        "midi": 74,
        "time": 62.679,
        "duration": 0.107,
        "velocity": 0.71,
        "hand": "right"
      },
      {
        "midi": 82,
        "time": 63,
        "duration": 0.321,
        "velocity": 0.71,
        "hand": "right"
      },
      {
        "midi": 66,
        "time": 63.214,
        "duration": 0.214,
        "velocity": 0.71,
        "hand": "right"
      },
      {
        "midi": 78,
        "time": 63.429,
        "duration": 0.107,
        "velocity": 0.71,
        "hand": "right"
      },
      {
        "midi": 77,
        "time": 63.643,
        "duration": 0.107,
        "velocity": 0.71,
        "hand": "right"
      },
      {
        "midi": 74,
        "time": 63.857,
        "duration": 0.107,
        "velocity": 0.71,
        "hand": "right"
      },
      {
        "midi": 77,
        "time": 64.071,
        "duration": 0.107,
        "velocity": 0.71,
        "hand": "right"
      },
      {
        "midi": 71,
        "time": 64.179,
        "duration": 0.107,
        "velocity": 0.71,
        "hand": "right"
      },
      {
        "midi": 68,
        "time": 64.393,
        "duration": 0.107,
        "velocity": 0.71,
        "hand": "right"
      },
      {
        "midi": 70,
        "time": 64.607,
        "duration": 0.107,
        "velocity": 0.71,
        "hand": "right"
      },
      {
        "midi": 68,
        "time": 64.821,
        "duration": 0.107,
        "velocity": 0.71,
        "hand": "right"
      },
      {
        "midi": 72,
        "time": 64.929,
        "duration": 0.107,
        "velocity": 0.71,
        "hand": "right"
      },
      {
        "midi": 67,
        "time": 65.143,
        "duration": 0.107,
        "velocity": 0.71,
        "hand": "right"
      },
      {
        "midi": 72,
        "time": 65.357,
        "duration": 0.107,
        "velocity": 0.71,
        "hand": "right"
      },
      {
        "midi": 67,
        "time": 65.571,
        "duration": 0.107,
        "velocity": 0.71,
        "hand": "right"
      },
      {
        "midi": 68,
        "time": 65.679,
        "duration": 0.107,
        "velocity": 0.71,
        "hand": "right"
      },
      {
        "midi": 70,
        "time": 65.893,
        "duration": 0.107,
        "velocity": 0.71,
        "hand": "right"
      },
      {
        "midi": 68,
        "time": 66.107,
        "duration": 0.107,
        "velocity": 0.71,
        "hand": "right"
      },
      {
        "midi": 72,
        "time": 66.321,
        "duration": 0.107,
        "velocity": 0.71,
        "hand": "right"
      },
      {
        "midi": 73,
        "time": 66.429,
        "duration": 0.107,
        "velocity": 0.71,
        "hand": "right"
      },
      {
        "midi": 77,
        "time": 66.643,
        "duration": 0.107,
        "velocity": 0.71,
        "hand": "right"
      },
      {
        "midi": 82,
        "time": 66.857,
        "duration": 0.321,
        "velocity": 0.71,
        "hand": "right"
      },
      {
        "midi": 66,
        "time": 67.071,
        "duration": 0.214,
        "velocity": 0.71,
        "hand": "right"
      },
      {
        "midi": 80,
        "time": 67.179,
        "duration": 0.107,
        "velocity": 0.71,
        "hand": "right"
      },
      {
        "midi": 77,
        "time": 67.393,
        "duration": 0.107,
        "velocity": 0.71,
        "hand": "right"
      },
      {
        "midi": 75,
        "time": 67.607,
        "duration": 0.107,
        "velocity": 0.71,
        "hand": "right"
      },
      {
        "midi": 74,
        "time": 67.821,
        "duration": 0.107,
        "velocity": 0.71,
        "hand": "right"
      },
      {
        "midi": 75,
        "time": 67.929,
        "duration": 0.214,
        "velocity": 0.71,
        "hand": "right"
      },
      {
        "midi": 82,
        "time": 68.143,
        "duration": 0.321,
        "velocity": 0.71,
        "hand": "right"
      },
      {
        "midi": 66,
        "time": 68.357,
        "duration": 0.214,
        "velocity": 0.71,
        "hand": "right"
      },
      {
        "midi": 78,
        "time": 68.571,
        "duration": 0.107,
        "velocity": 0.71,
        "hand": "right"
      },
      {
        "midi": 77,
        "time": 68.679,
        "duration": 0.107,
        "velocity": 0.71,
        "hand": "right"
      },
      {
        "midi": 77,
        "time": 68.893,
        "duration": 0.107,
        "velocity": 0.71,
        "hand": "right"
      },
      {
        "midi": 74,
        "time": 69.107,
        "duration": 0.107,
        "velocity": 0.71,
        "hand": "right"
      },
      {
        "midi": 76,
        "time": 69.321,
        "duration": 0.107,
        "velocity": 0.71,
        "hand": "right"
      },
      {
        "midi": 78,
        "time": 69.482,
        "duration": 0.107,
        "velocity": 0.71,
        "hand": "right"
      },
      {
        "midi": 77,
        "time": 69.75,
        "duration": 0.107,
        "velocity": 0.71,
        "hand": "right"
      },
      {
        "midi": 78,
        "time": 69.964,
        "duration": 0.107,
        "velocity": 0.71,
        "hand": "right"
      },
      {
        "midi": 78,
        "time": 70.179,
        "duration": 0.107,
        "velocity": 0.71,
        "hand": "right"
      },
      {
        "midi": 76,
        "time": 70.393,
        "duration": 0.107,
        "velocity": 0.71,
        "hand": "right"
      },
      {
        "midi": 82,
        "time": 70.607,
        "duration": 0.107,
        "velocity": 0.71,
        "hand": "right"
      },
      {
        "midi": 82,
        "time": 70.768,
        "duration": 0.107,
        "velocity": 0.71,
        "hand": "right"
      },
      {
        "midi": 80,
        "time": 71.036,
        "duration": 0.107,
        "velocity": 0.71,
        "hand": "right"
      },
      {
        "midi": 82,
        "time": 71.25,
        "duration": 0.107,
        "velocity": 0.71,
        "hand": "right"
      },
      {
        "midi": 82,
        "time": 71.464,
        "duration": 0.107,
        "velocity": 0.71,
        "hand": "right"
      },
      {
        "midi": 79,
        "time": 71.679,
        "duration": 0.107,
        "velocity": 0.71,
        "hand": "right"
      },
      {
        "midi": 85,
        "time": 71.893,
        "duration": 0.107,
        "velocity": 0.71,
        "hand": "right"
      },
      {
        "midi": 82,
        "time": 72.107,
        "duration": 0.107,
        "velocity": 0.71,
        "hand": "right"
      },
      {
        "midi": 78,
        "time": 72.321,
        "duration": 0.107,
        "velocity": 0.71,
        "hand": "right"
      },
      {
        "midi": 77,
        "time": 72.429,
        "duration": 0.107,
        "velocity": 0.71,
        "hand": "right"
      },
      {
        "midi": 73,
        "time": 72.643,
        "duration": 0.107,
        "velocity": 0.71,
        "hand": "right"
      },
      {
        "midi": 70,
        "time": 72.857,
        "duration": 0.107,
        "velocity": 0.71,
        "hand": "right"
      },
      {
        "midi": 66,
        "time": 73.071,
        "duration": 0.107,
        "velocity": 0.71,
        "hand": "right"
      },
      {
        "midi": 65,
        "time": 73.179,
        "duration": 0.107,
        "velocity": 0.71,
        "hand": "right"
      },
      {
        "midi": 61,
        "time": 73.393,
        "duration": 0.107,
        "velocity": 0.71,
        "hand": "right"
      },
      {
        "midi": 63,
        "time": 73.607,
        "duration": 0.107,
        "velocity": 0.71,
        "hand": "right"
      },
      {
        "midi": 68,
        "time": 73.821,
        "duration": 0.107,
        "velocity": 0.71,
        "hand": "right"
      },
      {
        "midi": 67,
        "time": 73.929,
        "duration": 0.107,
        "velocity": 0.71,
        "hand": "right"
      },
      {
        "midi": 70,
        "time": 74.143,
        "duration": 0.107,
        "velocity": 0.71,
        "hand": "right"
      },
      {
        "midi": 73,
        "time": 74.357,
        "duration": 0.107,
        "velocity": 0.71,
        "hand": "right"
      },
      {
        "midi": 78,
        "time": 74.625,
        "duration": 0.107,
        "velocity": 0.71,
        "hand": "right"
      },
      {
        "midi": 77,
        "time": 74.893,
        "duration": 0.107,
        "velocity": 0.71,
        "hand": "right"
      },
      {
        "midi": 78,
        "time": 75.107,
        "duration": 0.107,
        "velocity": 0.71,
        "hand": "right"
      },
      {
        "midi": 78,
        "time": 75.321,
        "duration": 0.107,
        "velocity": 0.71,
        "hand": "right"
      },
      {
        "midi": 77,
        "time": 75.429,
        "duration": 0.107,
        "velocity": 0.71,
        "hand": "right"
      },
      {
        "midi": 77,
        "time": 75.643,
        "duration": 0.107,
        "velocity": 0.71,
        "hand": "right"
      },
      {
        "midi": 82,
        "time": 75.911,
        "duration": 0.107,
        "velocity": 0.71,
        "hand": "right"
      },
      {
        "midi": 80,
        "time": 76.179,
        "duration": 0.107,
        "velocity": 0.71,
        "hand": "right"
      },
      {
        "midi": 82,
        "time": 76.393,
        "duration": 0.107,
        "velocity": 0.71,
        "hand": "right"
      },
      {
        "midi": 82,
        "time": 76.607,
        "duration": 0.107,
        "velocity": 0.71,
        "hand": "right"
      },
      {
        "midi": 79,
        "time": 76.821,
        "duration": 0.107,
        "velocity": 0.71,
        "hand": "right"
      },
      {
        "midi": 80,
        "time": 76.929,
        "duration": 0.107,
        "velocity": 0.71,
        "hand": "right"
      },
      {
        "midi": 87,
        "time": 77.143,
        "duration": 0.107,
        "velocity": 0.71,
        "hand": "right"
      },
      {
        "midi": 84,
        "time": 77.357,
        "duration": 0.107,
        "velocity": 0.71,
        "hand": "right"
      },
      {
        "midi": 80,
        "time": 77.571,
        "duration": 0.107,
        "velocity": 0.71,
        "hand": "right"
      },
      {
        "midi": 78,
        "time": 77.679,
        "duration": 0.107,
        "velocity": 0.71,
        "hand": "right"
      },
      {
        "midi": 75,
        "time": 77.893,
        "duration": 0.107,
        "velocity": 0.71,
        "hand": "right"
      },
      {
        "midi": 72,
        "time": 78.107,
        "duration": 0.107,
        "velocity": 0.71,
        "hand": "right"
      },
      {
        "midi": 68,
        "time": 78.321,
        "duration": 0.107,
        "velocity": 0.71,
        "hand": "right"
      },
      {
        "midi": 69,
        "time": 78.429,
        "duration": 0.107,
        "velocity": 0.71,
        "hand": "right"
      },
      {
        "midi": 70,
        "time": 78.643,
        "duration": 0.107,
        "velocity": 0.71,
        "hand": "right"
      },
      {
        "midi": 66,
        "time": 78.857,
        "duration": 0.107,
        "velocity": 0.71,
        "hand": "right"
      },
      {
        "midi": 61,
        "time": 79.071,
        "duration": 0.214,
        "velocity": 0.71,
        "hand": "right"
      },
      {
        "midi": 65,
        "time": 79.286,
        "duration": 0.214,
        "velocity": 0.71,
        "hand": "right"
      },
      {
        "midi": 77,
        "time": 79.5,
        "duration": 0.268,
        "velocity": 0.71,
        "hand": "right"
      },
      {
        "midi": 78,
        "time": 79.768,
        "duration": 0.107,
        "velocity": 0.71,
        "hand": "right"
      },
      {
        "midi": 77,
        "time": 80.036,
        "duration": 0.107,
        "velocity": 0.71,
        "hand": "right"
      },
      {
        "midi": 78,
        "time": 80.25,
        "duration": 0.107,
        "velocity": 0.71,
        "hand": "right"
      },
      {
        "midi": 78,
        "time": 80.464,
        "duration": 0.107,
        "velocity": 0.71,
        "hand": "right"
      },
      {
        "midi": 76,
        "time": 80.679,
        "duration": 0.107,
        "velocity": 0.71,
        "hand": "right"
      },
      {
        "midi": 82,
        "time": 80.893,
        "duration": 0.107,
        "velocity": 0.71,
        "hand": "right"
      },
      {
        "midi": 82,
        "time": 81.054,
        "duration": 0.107,
        "velocity": 0.71,
        "hand": "right"
      },
      {
        "midi": 80,
        "time": 81.321,
        "duration": 0.107,
        "velocity": 0.71,
        "hand": "right"
      },
      {
        "midi": 84,
        "time": 81.429,
        "duration": 0.107,
        "velocity": 0.71,
        "hand": "right"
      },
      {
        "midi": 80,
        "time": 81.643,
        "duration": 0.107,
        "velocity": 0.71,
        "hand": "right"
      },
      {
        "midi": 80,
        "time": 81.857,
        "duration": 0.107,
        "velocity": 0.71,
        "hand": "right"
      },
      {
        "midi": 80,
        "time": 82.071,
        "duration": 0.107,
        "velocity": 0.71,
        "hand": "right"
      },
      {
        "midi": 85,
        "time": 82.179,
        "duration": 0.107,
        "velocity": 0.71,
        "hand": "right"
      },
      {
        "midi": 82,
        "time": 82.393,
        "duration": 0.107,
        "velocity": 0.71,
        "hand": "right"
      },
      {
        "midi": 78,
        "time": 82.607,
        "duration": 0.107,
        "velocity": 0.71,
        "hand": "right"
      },
      {
        "midi": 75,
        "time": 82.821,
        "duration": 0.107,
        "velocity": 0.71,
        "hand": "right"
      },
      {
        "midi": 73,
        "time": 82.929,
        "duration": 0.107,
        "velocity": 0.71,
        "hand": "right"
      },
      {
        "midi": 70,
        "time": 83.143,
        "duration": 0.107,
        "velocity": 0.71,
        "hand": "right"
      },
      {
        "midi": 66,
        "time": 83.357,
        "duration": 0.107,
        "velocity": 0.71,
        "hand": "right"
      },
      {
        "midi": 63,
        "time": 83.571,
        "duration": 0.107,
        "velocity": 0.71,
        "hand": "right"
      },
      {
        "midi": 61,
        "time": 83.679,
        "duration": 0.107,
        "velocity": 0.71,
        "hand": "right"
      },
      {
        "midi": 63,
        "time": 83.893,
        "duration": 0.107,
        "velocity": 0.71,
        "hand": "right"
      },
      {
        "midi": 68,
        "time": 84.107,
        "duration": 0.107,
        "velocity": 0.71,
        "hand": "right"
      },
      {
        "midi": 68,
        "time": 84.321,
        "duration": 0.107,
        "velocity": 0.71,
        "hand": "right"
      },
      {
        "midi": 70,
        "time": 84.429,
        "duration": 0.107,
        "velocity": 0.71,
        "hand": "right"
      },
      {
        "midi": 73,
        "time": 84.643,
        "duration": 0.107,
        "velocity": 0.71,
        "hand": "right"
      },
      {
        "midi": 78,
        "time": 84.911,
        "duration": 0.107,
        "velocity": 0.71,
        "hand": "right"
      },
      {
        "midi": 77,
        "time": 85.179,
        "duration": 0.107,
        "velocity": 0.71,
        "hand": "right"
      },
      {
        "midi": 78,
        "time": 85.393,
        "duration": 0.107,
        "velocity": 0.71,
        "hand": "right"
      },
      {
        "midi": 78,
        "time": 85.607,
        "duration": 0.107,
        "velocity": 0.71,
        "hand": "right"
      },
      {
        "midi": 76,
        "time": 85.821,
        "duration": 0.107,
        "velocity": 0.71,
        "hand": "right"
      },
      {
        "midi": 77,
        "time": 85.929,
        "duration": 0.107,
        "velocity": 0.71,
        "hand": "right"
      },
      {
        "midi": 82,
        "time": 86.196,
        "duration": 0.107,
        "velocity": 0.71,
        "hand": "right"
      },
      {
        "midi": 80,
        "time": 86.304,
        "duration": 0.107,
        "velocity": 0.71,
        "hand": "right"
      },
      {
        "midi": 80,
        "time": 86.464,
        "duration": 0.107,
        "velocity": 0.71,
        "hand": "right"
      },
      {
        "midi": 82,
        "time": 86.679,
        "duration": 0.107,
        "velocity": 0.71,
        "hand": "right"
      },
      {
        "midi": 82,
        "time": 86.893,
        "duration": 0.107,
        "velocity": 0.71,
        "hand": "right"
      },
      {
        "midi": 79,
        "time": 87.107,
        "duration": 0.107,
        "velocity": 0.71,
        "hand": "right"
      },
      {
        "midi": 101,
        "time": 87.321,
        "duration": 0.107,
        "velocity": 0.71,
        "hand": "right"
      },
      {
        "midi": 99,
        "time": 87.429,
        "duration": 0.107,
        "velocity": 0.71,
        "hand": "right"
      },
      {
        "midi": 96,
        "time": 87.589,
        "duration": 0.107,
        "velocity": 0.71,
        "hand": "right"
      },
      {
        "midi": 92,
        "time": 87.75,
        "duration": 0.107,
        "velocity": 0.71,
        "hand": "right"
      },
      {
        "midi": 89,
        "time": 87.911,
        "duration": 0.107,
        "velocity": 0.71,
        "hand": "right"
      },
      {
        "midi": 85,
        "time": 88.071,
        "duration": 0.107,
        "velocity": 0.71,
        "hand": "right"
      },
      {
        "midi": 82,
        "time": 88.232,
        "duration": 0.107,
        "velocity": 0.71,
        "hand": "right"
      },
      {
        "midi": 78,
        "time": 88.393,
        "duration": 0.107,
        "velocity": 0.71,
        "hand": "right"
      },
      {
        "midi": 75,
        "time": 88.554,
        "duration": 0.107,
        "velocity": 0.71,
        "hand": "right"
      },
      {
        "midi": 72,
        "time": 88.714,
        "duration": 0.107,
        "velocity": 0.71,
        "hand": "right"
      },
      {
        "midi": 72,
        "time": 88.929,
        "duration": 0.107,
        "velocity": 0.71,
        "hand": "right"
      },
      {
        "midi": 66,
        "time": 89.196,
        "duration": 0.107,
        "velocity": 0.71,
        "hand": "right"
      },
      {
        "midi": 61,
        "time": 89.357,
        "duration": 0.429,
        "velocity": 0.71,
        "hand": "right"
      },
      {
        "midi": 65,
        "time": 89.571,
        "duration": 0.214,
        "velocity": 0.71,
        "hand": "right"
      }
    ],
    "medium": [
      {
        "midi": 68,
        "time": 0,
        "duration": 0.214,
        "velocity": 0.71,
        "hand": "right"
      },
      {
        "midi": 67,
        "time": 0.214,
        "duration": 0.107,
        "velocity": 0.71,
        "hand": "right"
      },
      {
        "midi": 68,
        "time": 0.321,
        "duration": 0.107,
        "velocity": 0.71,
        "hand": "right"
      },
      {
        "midi": 72,
        "time": 0.429,
        "duration": 0.107,
        "velocity": 0.71,
        "hand": "right"
      },
      {
        "midi": 70,
        "time": 0.536,
        "duration": 0.107,
        "velocity": 0.71,
        "hand": "right"
      },
      {
        "midi": 67,
        "time": 0.643,
        "duration": 0.107,
        "velocity": 0.71,
        "hand": "right"
      },
      {
        "midi": 68,
        "time": 0.75,
        "duration": 0.107,
        "velocity": 0.71,
        "hand": "right"
      },
      {
        "midi": 70,
        "time": 0.857,
        "duration": 0.107,
        "velocity": 0.71,
        "hand": "right"
      },
      {
        "midi": 68,
        "time": 0.964,
        "duration": 0.107,
        "velocity": 0.71,
        "hand": "right"
      },
      {
        "midi": 72,
        "time": 1.071,
        "duration": 0.107,
        "velocity": 0.71,
        "hand": "right"
      },
      {
        "midi": 70,
        "time": 1.179,
        "duration": 0.107,
        "velocity": 0.71,
        "hand": "right"
      },
      {
        "midi": 67,
        "time": 1.286,
        "duration": 0.107,
        "velocity": 0.71,
        "hand": "right"
      },
      {
        "midi": 68,
        "time": 1.393,
        "duration": 0.107,
        "velocity": 0.71,
        "hand": "right"
      },
      {
        "midi": 72,
        "time": 1.5,
        "duration": 0.107,
        "velocity": 0.71,
        "hand": "right"
      },
      {
        "midi": 70,
        "time": 1.607,
        "duration": 0.107,
        "velocity": 0.71,
        "hand": "right"
      },
      {
        "midi": 67,
        "time": 1.714,
        "duration": 0.107,
        "velocity": 0.71,
        "hand": "right"
      },
      {
        "midi": 68,
        "time": 1.821,
        "duration": 0.107,
        "velocity": 0.71,
        "hand": "right"
      },
      {
        "midi": 72,
        "time": 1.929,
        "duration": 0.107,
        "velocity": 0.71,
        "hand": "right"
      },
      {
        "midi": 70,
        "time": 2.036,
        "duration": 0.107,
        "velocity": 0.71,
        "hand": "right"
      },
      {
        "midi": 67,
        "time": 2.143,
        "duration": 0.107,
        "velocity": 0.71,
        "hand": "right"
      },
      {
        "midi": 68,
        "time": 2.25,
        "duration": 0.107,
        "velocity": 0.71,
        "hand": "right"
      },
      {
        "midi": 72,
        "time": 2.357,
        "duration": 0.107,
        "velocity": 0.71,
        "hand": "right"
      },
      {
        "midi": 70,
        "time": 2.464,
        "duration": 0.107,
        "velocity": 0.71,
        "hand": "right"
      },
      {
        "midi": 49,
        "time": 2.571,
        "duration": 0.214,
        "velocity": 0.71,
        "hand": "left"
      },
      {
        "midi": 67,
        "time": 2.571,
        "duration": 0.107,
        "velocity": 0.71,
        "hand": "right"
      },
      {
        "midi": 68,
        "time": 2.679,
        "duration": 0.107,
        "velocity": 0.71,
        "hand": "right"
      },
      {
        "midi": 56,
        "time": 2.786,
        "duration": 0.214,
        "velocity": 0.71,
        "hand": "left"
      },
      {
        "midi": 65,
        "time": 2.786,
        "duration": 0.214,
        "velocity": 0.71,
        "hand": "right"
      },
      {
        "midi": 72,
        "time": 2.786,
        "duration": 0.107,
        "velocity": 0.71,
        "hand": "right"
      },
      {
        "midi": 70,
        "time": 2.893,
        "duration": 0.107,
        "velocity": 0.71,
        "hand": "right"
      },
      {
        "midi": 56,
        "time": 3,
        "duration": 0.214,
        "velocity": 0.71,
        "hand": "left"
      },
      {
        "midi": 65,
        "time": 3,
        "duration": 0.214,
        "velocity": 0.71,
        "hand": "right"
      },
      {
        "midi": 67,
        "time": 3,
        "duration": 0.107,
        "velocity": 0.71,
        "hand": "right"
      },
      {
        "midi": 68,
        "time": 3.107,
        "duration": 0.107,
        "velocity": 0.71,
        "hand": "right"
      },
      {
        "midi": 53,
        "time": 3.214,
        "duration": 0.214,
        "velocity": 0.71,
        "hand": "left"
      },
      {
        "midi": 72,
        "time": 3.214,
        "duration": 0.107,
        "velocity": 0.71,
        "hand": "right"
      },
      {
        "midi": 70,
        "time": 3.321,
        "duration": 0.107,
        "velocity": 0.71,
        "hand": "right"
      },
      {
        "midi": 56,
        "time": 3.429,
        "duration": 0.214,
        "velocity": 0.71,
        "hand": "left"
      },
      {
        "midi": 65,
        "time": 3.429,
        "duration": 0.214,
        "velocity": 0.71,
        "hand": "right"
      },
      {
        "midi": 67,
        "time": 3.429,
        "duration": 0.107,
        "velocity": 0.71,
        "hand": "right"
      },
      {
        "midi": 68,
        "time": 3.536,
        "duration": 0.107,
        "velocity": 0.71,
        "hand": "right"
      },
      {
        "midi": 56,
        "time": 3.643,
        "duration": 0.214,
        "velocity": 0.71,
        "hand": "left"
      },
      {
        "midi": 65,
        "time": 3.643,
        "duration": 0.214,
        "velocity": 0.71,
        "hand": "right"
      },
      {
        "midi": 72,
        "time": 3.643,
        "duration": 0.107,
        "velocity": 0.71,
        "hand": "right"
      },
      {
        "midi": 70,
        "time": 3.75,
        "duration": 0.107,
        "velocity": 0.71,
        "hand": "right"
      },
      {
        "midi": 49,
        "time": 3.857,
        "duration": 0.214,
        "velocity": 0.71,
        "hand": "left"
      },
      {
        "midi": 67,
        "time": 3.857,
        "duration": 0.107,
        "velocity": 0.71,
        "hand": "right"
      },
      {
        "midi": 68,
        "time": 3.964,
        "duration": 0.107,
        "velocity": 0.71,
        "hand": "right"
      },
      {
        "midi": 56,
        "time": 4.071,
        "duration": 0.214,
        "velocity": 0.71,
        "hand": "left"
      },
      {
        "midi": 65,
        "time": 4.071,
        "duration": 0.214,
        "velocity": 0.71,
        "hand": "right"
      },
      {
        "midi": 72,
        "time": 4.071,
        "duration": 0.107,
        "velocity": 0.71,
        "hand": "right"
      },
      {
        "midi": 70,
        "time": 4.179,
        "duration": 0.107,
        "velocity": 0.71,
        "hand": "right"
      },
      {
        "midi": 56,
        "time": 4.286,
        "duration": 0.214,
        "velocity": 0.71,
        "hand": "left"
      },
      {
        "midi": 65,
        "time": 4.286,
        "duration": 0.214,
        "velocity": 0.71,
        "hand": "right"
      },
      {
        "midi": 67,
        "time": 4.286,
        "duration": 0.107,
        "velocity": 0.71,
        "hand": "right"
      },
      {
        "midi": 68,
        "time": 4.393,
        "duration": 0.107,
        "velocity": 0.71,
        "hand": "right"
      },
      {
        "midi": 53,
        "time": 4.5,
        "duration": 0.214,
        "velocity": 0.71,
        "hand": "left"
      },
      {
        "midi": 70,
        "time": 4.5,
        "duration": 0.107,
        "velocity": 0.71,
        "hand": "right"
      },
      {
        "midi": 72,
        "time": 4.607,
        "duration": 0.107,
        "velocity": 0.71,
        "hand": "right"
      },
      {
        "midi": 56,
        "time": 4.714,
        "duration": 0.214,
        "velocity": 0.71,
        "hand": "left"
      },
      {
        "midi": 65,
        "time": 4.714,
        "duration": 0.214,
        "velocity": 0.71,
        "hand": "right"
      },
      {
        "midi": 73,
        "time": 4.714,
        "duration": 0.107,
        "velocity": 0.71,
        "hand": "right"
      },
      {
        "midi": 75,
        "time": 4.821,
        "duration": 0.107,
        "velocity": 0.71,
        "hand": "right"
      },
      {
        "midi": 56,
        "time": 4.929,
        "duration": 0.214,
        "velocity": 0.71,
        "hand": "left"
      },
      {
        "midi": 65,
        "time": 4.929,
        "duration": 0.214,
        "velocity": 0.71,
        "hand": "right"
      },
      {
        "midi": 77,
        "time": 4.929,
        "duration": 0.107,
        "velocity": 0.71,
        "hand": "right"
      },
      {
        "midi": 78,
        "time": 5.036,
        "duration": 0.107,
        "velocity": 0.71,
        "hand": "right"
      },
      {
        "midi": 44,
        "time": 5.143,
        "duration": 0.214,
        "velocity": 0.71,
        "hand": "left"
      },
      {
        "midi": 82,
        "time": 5.143,
        "duration": 0.321,
        "velocity": 0.71,
        "hand": "right"
      },
      {
        "midi": 56,
        "time": 5.357,
        "duration": 0.214,
        "velocity": 0.71,
        "hand": "left"
      },
      {
        "midi": 60,
        "time": 5.357,
        "duration": 0.214,
        "velocity": 0.71,
        "hand": "right"
      },
      {
        "midi": 66,
        "time": 5.357,
        "duration": 0.214,
        "velocity": 0.71,
        "hand": "right"
      },
      {
        "midi": 80,
        "time": 5.464,
        "duration": 0.107,
        "velocity": 0.71,
        "hand": "right"
      },
      {
        "midi": 56,
        "time": 5.571,
        "duration": 0.214,
        "velocity": 0.71,
        "hand": "left"
      },
      {
        "midi": 66,
        "time": 5.571,
        "duration": 0.214,
        "velocity": 0.71,
        "hand": "right"
      },
      {
        "midi": 78,
        "time": 5.571,
        "duration": 0.107,
        "velocity": 0.71,
        "hand": "right"
      },
      {
        "midi": 77,
        "time": 5.679,
        "duration": 0.107,
        "velocity": 0.71,
        "hand": "right"
      },
      {
        "midi": 51,
        "time": 5.786,
        "duration": 0.214,
        "velocity": 0.71,
        "hand": "left"
      },
      {
        "midi": 77,
        "time": 5.786,
        "duration": 0.107,
        "velocity": 0.71,
        "hand": "right"
      },
      {
        "midi": 75,
        "time": 5.893,
        "duration": 0.107,
        "velocity": 0.71,
        "hand": "right"
      },
      {
        "midi": 56,
        "time": 6,
        "duration": 0.214,
        "velocity": 0.71,
        "hand": "left"
      },
      {
        "midi": 66,
        "time": 6,
        "duration": 0.214,
        "velocity": 0.71,
        "hand": "right"
      },
      {
        "midi": 75,
        "time": 6,
        "duration": 0.107,
        "velocity": 0.71,
        "hand": "right"
      },
      {
        "midi": 74,
        "time": 6.107,
        "duration": 0.107,
        "velocity": 0.71,
        "hand": "right"
      },
      {
        "midi": 56,
        "time": 6.214,
        "duration": 0.214,
        "velocity": 0.71,
        "hand": "left"
      },
      {
        "midi": 66,
        "time": 6.214,
        "duration": 0.214,
        "velocity": 0.71,
        "hand": "right"
      },
      {
        "midi": 75,
        "time": 6.214,
        "duration": 0.214,
        "velocity": 0.71,
        "hand": "right"
      },
      {
        "midi": 44,
        "time": 6.429,
        "duration": 0.214,
        "velocity": 0.71,
        "hand": "left"
      },
      {
        "midi": 82,
        "time": 6.429,
        "duration": 0.321,
        "velocity": 0.71,
        "hand": "right"
      },
      {
        "midi": 60,
        "time": 6.643,
        "duration": 0.214,
        "velocity": 0.71,
        "hand": "right"
      },
      {
        "midi": 66,
        "time": 6.643,
        "duration": 0.214,
        "velocity": 0.71,
        "hand": "right"
      },
      {
        "midi": 80,
        "time": 6.75,
        "duration": 0.107,
        "velocity": 0.71,
        "hand": "right"
      },
      {
        "midi": 60,
        "time": 6.857,
        "duration": 0.214,
        "velocity": 0.71,
        "hand": "right"
      },
      {
        "midi": 66,
        "time": 6.857,
        "duration": 0.214,
        "velocity": 0.71,
        "hand": "right"
      },
      {
        "midi": 78,
        "time": 6.857,
        "duration": 0.107,
        "velocity": 0.71,
        "hand": "right"
      },
      {
        "midi": 77,
        "time": 6.964,
        "duration": 0.107,
        "velocity": 0.71,
        "hand": "right"
      },
      {
        "midi": 56,
        "time": 7.071,
        "duration": 0.214,
        "velocity": 0.71,
        "hand": "left"
      },
      {
        "midi": 77,
        "time": 7.071,
        "duration": 0.107,
        "velocity": 0.71,
        "hand": "right"
      },
      {
        "midi": 75,
        "time": 7.179,
        "duration": 0.107,
        "velocity": 0.71,
        "hand": "right"
      },
      {
        "midi": 60,
        "time": 7.286,
        "duration": 0.214,
        "velocity": 0.71,
        "hand": "right"
      },
      {
        "midi": 66,
        "time": 7.286,
        "duration": 0.214,
        "velocity": 0.71,
        "hand": "right"
      },
      {
        "midi": 74,
        "time": 7.286,
        "duration": 0.107,
        "velocity": 0.71,
        "hand": "right"
      },
      {
        "midi": 75,
        "time": 7.393,
        "duration": 0.107,
        "velocity": 0.71,
        "hand": "right"
      },
      {
        "midi": 60,
        "time": 7.5,
        "duration": 0.214,
        "velocity": 0.71,
        "hand": "right"
      },
      {
        "midi": 66,
        "time": 7.5,
        "duration": 0.214,
        "velocity": 0.71,
        "hand": "right"
      },
      {
        "midi": 77,
        "time": 7.5,
        "duration": 0.107,
        "velocity": 0.71,
        "hand": "right"
      },
      {
        "midi": 70,
        "time": 7.607,
        "duration": 0.107,
        "velocity": 0.71,
        "hand": "right"
      },
      {
        "midi": 49,
        "time": 7.714,
        "duration": 0.214,
        "velocity": 0.71,
        "hand": "left"
      },
      {
        "midi": 67,
        "time": 7.714,
        "duration": 0.107,
        "velocity": 0.71,
        "hand": "right"
      },
      {
        "midi": 68,
        "time": 7.821,
        "duration": 0.107,
        "velocity": 0.71,
        "hand": "right"
      },
      {
        "midi": 56,
        "time": 7.929,
        "duration": 0.214,
        "velocity": 0.71,
        "hand": "left"
      },
      {
        "midi": 65,
        "time": 7.929,
        "duration": 0.214,
        "velocity": 0.71,
        "hand": "right"
      },
      {
        "midi": 72,
        "time": 7.929,
        "duration": 0.107,
        "velocity": 0.71,
        "hand": "right"
      },
      {
        "midi": 70,
        "time": 8.036,
        "duration": 0.107,
        "velocity": 0.71,
        "hand": "right"
      },
      {
        "midi": 56,
        "time": 8.143,
        "duration": 0.214,
        "velocity": 0.71,
        "hand": "left"
      },
      {
        "midi": 65,
        "time": 8.143,
        "duration": 0.214,
        "velocity": 0.71,
        "hand": "right"
      },
      {
        "midi": 67,
        "time": 8.143,
        "duration": 0.107,
        "velocity": 0.71,
        "hand": "right"
      },
      {
        "midi": 68,
        "time": 8.25,
        "duration": 0.107,
        "velocity": 0.71,
        "hand": "right"
      },
      {
        "midi": 53,
        "time": 8.357,
        "duration": 0.214,
        "velocity": 0.71,
        "hand": "left"
      },
      {
        "midi": 72,
        "time": 8.357,
        "duration": 0.107,
        "velocity": 0.71,
        "hand": "right"
      },
      {
        "midi": 70,
        "time": 8.464,
        "duration": 0.107,
        "velocity": 0.71,
        "hand": "right"
      },
      {
        "midi": 56,
        "time": 8.571,
        "duration": 0.214,
        "velocity": 0.71,
        "hand": "left"
      },
      {
        "midi": 65,
        "time": 8.571,
        "duration": 0.214,
        "velocity": 0.71,
        "hand": "right"
      },
      {
        "midi": 67,
        "time": 8.571,
        "duration": 0.107,
        "velocity": 0.71,
        "hand": "right"
      },
      {
        "midi": 68,
        "time": 8.679,
        "duration": 0.107,
        "velocity": 0.71,
        "hand": "right"
      },
      {
        "midi": 56,
        "time": 8.786,
        "duration": 0.214,
        "velocity": 0.71,
        "hand": "left"
      },
      {
        "midi": 65,
        "time": 8.786,
        "duration": 0.214,
        "velocity": 0.71,
        "hand": "right"
      },
      {
        "midi": 72,
        "time": 8.786,
        "duration": 0.107,
        "velocity": 0.71,
        "hand": "right"
      },
      {
        "midi": 70,
        "time": 8.893,
        "duration": 0.107,
        "velocity": 0.71,
        "hand": "right"
      },
      {
        "midi": 49,
        "time": 9,
        "duration": 0.214,
        "velocity": 0.71,
        "hand": "left"
      },
      {
        "midi": 67,
        "time": 9,
        "duration": 0.107,
        "velocity": 0.71,
        "hand": "right"
      },
      {
        "midi": 68,
        "time": 9.107,
        "duration": 0.107,
        "velocity": 0.71,
        "hand": "right"
      },
      {
        "midi": 56,
        "time": 9.214,
        "duration": 0.214,
        "velocity": 0.71,
        "hand": "left"
      },
      {
        "midi": 65,
        "time": 9.214,
        "duration": 0.214,
        "velocity": 0.71,
        "hand": "right"
      },
      {
        "midi": 72,
        "time": 9.214,
        "duration": 0.107,
        "velocity": 0.71,
        "hand": "right"
      },
      {
        "midi": 70,
        "time": 9.321,
        "duration": 0.107,
        "velocity": 0.71,
        "hand": "right"
      },
      {
        "midi": 56,
        "time": 9.429,
        "duration": 0.214,
        "velocity": 0.71,
        "hand": "left"
      },
      {
        "midi": 65,
        "time": 9.429,
        "duration": 0.214,
        "velocity": 0.71,
        "hand": "right"
      },
      {
        "midi": 67,
        "time": 9.429,
        "duration": 0.107,
        "velocity": 0.71,
        "hand": "right"
      },
      {
        "midi": 68,
        "time": 9.536,
        "duration": 0.107,
        "velocity": 0.71,
        "hand": "right"
      },
      {
        "midi": 53,
        "time": 9.643,
        "duration": 0.214,
        "velocity": 0.71,
        "hand": "left"
      },
      {
        "midi": 70,
        "time": 9.643,
        "duration": 0.107,
        "velocity": 0.71,
        "hand": "right"
      },
      {
        "midi": 72,
        "time": 9.75,
        "duration": 0.107,
        "velocity": 0.71,
        "hand": "right"
      },
      {
        "midi": 56,
        "time": 9.857,
        "duration": 0.214,
        "velocity": 0.71,
        "hand": "left"
      },
      {
        "midi": 65,
        "time": 9.857,
        "duration": 0.214,
        "velocity": 0.71,
        "hand": "right"
      },
      {
        "midi": 73,
        "time": 9.857,
        "duration": 0.107,
        "velocity": 0.71,
        "hand": "right"
      },
      {
        "midi": 75,
        "time": 9.964,
        "duration": 0.107,
        "velocity": 0.71,
        "hand": "right"
      },
      {
        "midi": 56,
        "time": 10.071,
        "duration": 0.214,
        "velocity": 0.71,
        "hand": "left"
      },
      {
        "midi": 65,
        "time": 10.071,
        "duration": 0.214,
        "velocity": 0.71,
        "hand": "right"
      },
      {
        "midi": 77,
        "time": 10.071,
        "duration": 0.107,
        "velocity": 0.71,
        "hand": "right"
      },
      {
        "midi": 78,
        "time": 10.179,
        "duration": 0.107,
        "velocity": 0.71,
        "hand": "right"
      },
      {
        "midi": 44,
        "time": 10.286,
        "duration": 0.214,
        "velocity": 0.71,
        "hand": "left"
      },
      {
        "midi": 82,
        "time": 10.286,
        "duration": 0.321,
        "velocity": 0.71,
        "hand": "right"
      },
      {
        "midi": 56,
        "time": 10.5,
        "duration": 0.214,
        "velocity": 0.71,
        "hand": "left"
      },
      {
        "midi": 60,
        "time": 10.5,
        "duration": 0.214,
        "velocity": 0.71,
        "hand": "right"
      },
      {
        "midi": 66,
        "time": 10.5,
        "duration": 0.214,
        "velocity": 0.71,
        "hand": "right"
      },
      {
        "midi": 80,
        "time": 10.607,
        "duration": 0.107,
        "velocity": 0.71,
        "hand": "right"
      },
      {
        "midi": 56,
        "time": 10.714,
        "duration": 0.214,
        "velocity": 0.71,
        "hand": "left"
      },
      {
        "midi": 66,
        "time": 10.714,
        "duration": 0.214,
        "velocity": 0.71,
        "hand": "right"
      },
      {
        "midi": 78,
        "time": 10.714,
        "duration": 0.107,
        "velocity": 0.71,
        "hand": "right"
      },
      {
        "midi": 77,
        "time": 10.821,
        "duration": 0.107,
        "velocity": 0.71,
        "hand": "right"
      },
      {
        "midi": 51,
        "time": 10.929,
        "duration": 0.214,
        "velocity": 0.71,
        "hand": "left"
      },
      {
        "midi": 77,
        "time": 10.929,
        "duration": 0.107,
        "velocity": 0.71,
        "hand": "right"
      },
      {
        "midi": 75,
        "time": 11.036,
        "duration": 0.107,
        "velocity": 0.71,
        "hand": "right"
      },
      {
        "midi": 56,
        "time": 11.143,
        "duration": 0.214,
        "velocity": 0.71,
        "hand": "left"
      },
      {
        "midi": 66,
        "time": 11.143,
        "duration": 0.214,
        "velocity": 0.71,
        "hand": "right"
      },
      {
        "midi": 75,
        "time": 11.143,
        "duration": 0.107,
        "velocity": 0.71,
        "hand": "right"
      },
      {
        "midi": 74,
        "time": 11.25,
        "duration": 0.107,
        "velocity": 0.71,
        "hand": "right"
      },
      {
        "midi": 56,
        "time": 11.357,
        "duration": 0.214,
        "velocity": 0.71,
        "hand": "left"
      },
      {
        "midi": 66,
        "time": 11.357,
        "duration": 0.214,
        "velocity": 0.71,
        "hand": "right"
      },
      {
        "midi": 75,
        "time": 11.357,
        "duration": 0.214,
        "velocity": 0.71,
        "hand": "right"
      },
      {
        "midi": 44,
        "time": 11.571,
        "duration": 0.214,
        "velocity": 0.71,
        "hand": "left"
      },
      {
        "midi": 82,
        "time": 11.571,
        "duration": 0.321,
        "velocity": 0.71,
        "hand": "right"
      },
      {
        "midi": 56,
        "time": 11.786,
        "duration": 0.214,
        "velocity": 0.71,
        "hand": "left"
      },
      {
        "midi": 60,
        "time": 11.786,
        "duration": 0.214,
        "velocity": 0.71,
        "hand": "right"
      },
      {
        "midi": 66,
        "time": 11.786,
        "duration": 0.214,
        "velocity": 0.71,
        "hand": "right"
      },
      {
        "midi": 80,
        "time": 11.893,
        "duration": 0.107,
        "velocity": 0.71,
        "hand": "right"
      },
      {
        "midi": 56,
        "time": 12,
        "duration": 0.214,
        "velocity": 0.71,
        "hand": "left"
      },
      {
        "midi": 66,
        "time": 12,
        "duration": 0.214,
        "velocity": 0.71,
        "hand": "right"
      },
      {
        "midi": 78,
        "time": 12,
        "duration": 0.107,
        "velocity": 0.71,
        "hand": "right"
      },
      {
        "midi": 77,
        "time": 12.107,
        "duration": 0.107,
        "velocity": 0.71,
        "hand": "right"
      },
      {
        "midi": 56,
        "time": 12.214,
        "duration": 0.214,
        "velocity": 0.71,
        "hand": "left"
      },
      {
        "midi": 75,
        "time": 12.214,
        "duration": 0.107,
        "velocity": 0.71,
        "hand": "right"
      },
      {
        "midi": 77,
        "time": 12.321,
        "duration": 0.107,
        "velocity": 0.71,
        "hand": "right"
      },
      {
        "midi": 60,
        "time": 12.429,
        "duration": 0.214,
        "velocity": 0.71,
        "hand": "right"
      },
      {
        "midi": 66,
        "time": 12.429,
        "duration": 0.214,
        "velocity": 0.71,
        "hand": "right"
      },
      {
        "midi": 75,
        "time": 12.429,
        "duration": 0.107,
        "velocity": 0.71,
        "hand": "right"
      },
      {
        "midi": 74,
        "time": 12.536,
        "duration": 0.107,
        "velocity": 0.71,
        "hand": "right"
      },
      {
        "midi": 44,
        "time": 12.643,
        "duration": 0.214,
        "velocity": 0.71,
        "hand": "left"
      },
      {
        "midi": 75,
        "time": 12.643,
        "duration": 0.107,
        "velocity": 0.71,
        "hand": "right"
      },
      {
        "midi": 76,
        "time": 12.75,
        "duration": 0.107,
        "velocity": 0.71,
        "hand": "right"
      },
      {
        "midi": 45,
        "time": 12.857,
        "duration": 0.214,
        "velocity": 0.71,
        "hand": "left"
      },
      {
        "midi": 77,
        "time": 12.857,
        "duration": 0.054,
        "velocity": 0.71,
        "hand": "right"
      },
      {
        "midi": 78,
        "time": 12.911,
        "duration": 0.054,
        "velocity": 0.71,
        "hand": "right"
      },
      {
        "midi": 53,
        "time": 13.071,
        "duration": 0.214,
        "velocity": 0.71,
        "hand": "left"
      },
      {
        "midi": 63,
        "time": 13.071,
        "duration": 0.214,
        "velocity": 0.71,
        "hand": "right"
      },
      {
        "midi": 77,
        "time": 13.018,
        "duration": 0.054,
        "velocity": 0.71,
        "hand": "right"
      },
      {
        "midi": 77,
        "time": 13.179,
        "duration": 0.107,
        "velocity": 0.71,
        "hand": "right"
      },
      {
        "midi": 53,
        "time": 13.286,
        "duration": 0.214,
        "velocity": 0.71,
        "hand": "left"
      },
      {
        "midi": 63,
        "time": 13.286,
        "duration": 0.214,
        "velocity": 0.71,
        "hand": "right"
      },
      {
        "midi": 80,
        "time": 13.286,
        "duration": 0.107,
        "velocity": 0.71,
        "hand": "right"
      },
      {
        "midi": 78,
        "time": 13.393,
        "duration": 0.107,
        "velocity": 0.71,
        "hand": "right"
      },
      {
        "midi": 46,
        "time": 13.5,
        "duration": 0.214,
        "velocity": 0.71,
        "hand": "left"
      },
      {
        "midi": 77,
        "time": 13.5,
        "duration": 0.107,
        "velocity": 0.71,
        "hand": "right"
      },
      {
        "midi": 78,
        "time": 13.607,
        "duration": 0.107,
        "velocity": 0.71,
        "hand": "right"
      },
      {
        "midi": 53,
        "time": 13.714,
        "duration": 0.214,
        "velocity": 0.71,
        "hand": "left"
      },
      {
        "midi": 61,
        "time": 13.714,
        "duration": 0.214,
        "velocity": 0.71,
        "hand": "right"
      },
      {
        "midi": 77,
        "time": 13.714,
        "duration": 0.107,
        "velocity": 0.71,
        "hand": "right"
      },
      {
        "midi": 76,
        "time": 13.821,
        "duration": 0.107,
        "velocity": 0.71,
        "hand": "right"
      },
      {
        "midi": 53,
        "time": 13.929,
        "duration": 0.214,
        "velocity": 0.71,
        "hand": "left"
      },
      {
        "midi": 61,
        "time": 13.929,
        "duration": 0.214,
        "velocity": 0.71,
        "hand": "right"
      },
      {
        "midi": 77,
        "time": 13.929,
        "duration": 0.107,
        "velocity": 0.71,
        "hand": "right"
      },
      {
        "midi": 82,
        "time": 14.036,
        "duration": 0.107,
        "velocity": 0.71,
        "hand": "right"
      },
      {
        "midi": 48,
        "time": 14.143,
        "duration": 0.214,
        "velocity": 0.71,
        "hand": "left"
      },
      {
        "midi": 80,
        "time": 14.143,
        "duration": 0.054,
        "velocity": 0.71,
        "hand": "right"
      },
      {
        "midi": 82,
        "time": 14.196,
        "duration": 0.054,
        "velocity": 0.71,
        "hand": "right"
      },
      {
        "midi": 56,
        "time": 14.357,
        "duration": 0.214,
        "velocity": 0.71,
        "hand": "left"
      },
      {
        "midi": 66,
        "time": 14.357,
        "duration": 0.214,
        "velocity": 0.71,
        "hand": "right"
      },
      {
        "midi": 80,
        "time": 14.304,
        "duration": 0.054,
        "velocity": 0.71,
        "hand": "right"
      },
      {
        "midi": 80,
        "time": 14.464,
        "duration": 0.107,
        "velocity": 0.71,
        "hand": "right"
      },
      {
        "midi": 56,
        "time": 14.571,
        "duration": 0.214,
        "velocity": 0.71,
        "hand": "left"
      },
      {
        "midi": 66,
        "time": 14.571,
        "duration": 0.214,
        "velocity": 0.71,
        "hand": "right"
      },
      {
        "midi": 84,
        "time": 14.571,
        "duration": 0.107,
        "velocity": 0.71,
        "hand": "right"
      },
      {
        "midi": 82,
        "time": 14.679,
        "duration": 0.107,
        "velocity": 0.71,
        "hand": "right"
      },
      {
        "midi": 49,
        "time": 14.786,
        "duration": 0.214,
        "velocity": 0.71,
        "hand": "left"
      },
      {
        "midi": 80,
        "time": 14.786,
        "duration": 0.107,
        "velocity": 0.71,
        "hand": "right"
      },
      {
        "midi": 82,
        "time": 14.893,
        "duration": 0.107,
        "velocity": 0.71,
        "hand": "right"
      },
      {
        "midi": 56,
        "time": 15,
        "duration": 0.214,
        "velocity": 0.71,
        "hand": "left"
      },
      {
        "midi": 65,
        "time": 15,
        "duration": 0.214,
        "velocity": 0.71,
        "hand": "right"
      },
      {
        "midi": 80,
        "time": 15,
        "duration": 0.107,
        "velocity": 0.71,
        "hand": "right"
      },
      {
        "midi": 79,
        "time": 15.107,
        "duration": 0.107,
        "velocity": 0.71,
        "hand": "right"
      },
      {
        "midi": 80,
        "time": 15.214,
        "duration": 0.107,
        "velocity": 0.71,
        "hand": "right"
      },
      {
        "midi": 85,
        "time": 15.321,
        "duration": 0.107,
        "velocity": 0.71,
        "hand": "right"
      },
      {
        "midi": 54,
        "time": 15.429,
        "duration": 0.214,
        "velocity": 0.71,
        "hand": "left"
      },
      {
        "midi": 84,
        "time": 15.429,
        "duration": 0.107,
        "velocity": 0.71,
        "hand": "right"
      },
      {
        "midi": 82,
        "time": 15.536,
        "duration": 0.107,
        "velocity": 0.71,
        "hand": "right"
      },
      {
        "midi": 58,
        "time": 15.643,
        "duration": 0.214,
        "velocity": 0.71,
        "hand": "left"
      },
      {
        "midi": 63,
        "time": 15.643,
        "duration": 0.214,
        "velocity": 0.71,
        "hand": "right"
      },
      {
        "midi": 80,
        "time": 15.643,
        "duration": 0.107,
        "velocity": 0.71,
        "hand": "right"
      },
      {
        "midi": 78,
        "time": 15.75,
        "duration": 0.107,
        "velocity": 0.71,
        "hand": "right"
      },
      {
        "midi": 77,
        "time": 15.857,
        "duration": 0.107,
        "velocity": 0.71,
        "hand": "right"
      },
      {
        "midi": 75,
        "time": 15.964,
        "duration": 0.107,
        "velocity": 0.71,
        "hand": "right"
      },
      {
        "midi": 44,
        "time": 16.071,
        "duration": 0.214,
        "velocity": 0.71,
        "hand": "left"
      },
      {
        "midi": 73,
        "time": 16.071,
        "duration": 0.107,
        "velocity": 0.71,
        "hand": "right"
      },
      {
        "midi": 72,
        "time": 16.179,
        "duration": 0.107,
        "velocity": 0.71,
        "hand": "right"
      },
      {
        "midi": 53,
        "time": 16.286,
        "duration": 0.214,
        "velocity": 0.71,
        "hand": "left"
      },
      {
        "midi": 61,
        "time": 16.286,
        "duration": 0.214,
        "velocity": 0.71,
        "hand": "right"
      },
      {
        "midi": 70,
        "time": 16.286,
        "duration": 0.107,
        "velocity": 0.71,
        "hand": "right"
      },
      {
        "midi": 68,
        "time": 16.393,
        "duration": 0.107,
        "velocity": 0.71,
        "hand": "right"
      },
      {
        "midi": 66,
        "time": 16.5,
        "duration": 0.107,
        "velocity": 0.71,
        "hand": "right"
      },
      {
        "midi": 65,
        "time": 16.607,
        "duration": 0.107,
        "velocity": 0.71,
        "hand": "right"
      },
      {
        "midi": 44,
        "time": 16.714,
        "duration": 0.214,
        "velocity": 0.71,
        "hand": "left"
      },
      {
        "midi": 63,
        "time": 16.714,
        "duration": 0.107,
        "velocity": 0.71,
        "hand": "right"
      },
      {
        "midi": 61,
        "time": 16.821,
        "duration": 0.107,
        "velocity": 0.71,
        "hand": "right"
      },
      {
        "midi": 54,
        "time": 16.929,
        "duration": 0.214,
        "velocity": 0.71,
        "hand": "left"
      },
      {
        "midi": 56,
        "time": 16.929,
        "duration": 0.214,
        "velocity": 0.71,
        "hand": "left"
      },
      {
        "midi": 60,
        "time": 16.929,
        "duration": 0.107,
        "velocity": 0.71,
        "hand": "right"
      },
      {
        "midi": 63,
        "time": 17.036,
        "duration": 0.107,
        "velocity": 0.71,
        "hand": "right"
      },
      {
        "midi": 54,
        "time": 17.143,
        "duration": 0.214,
        "velocity": 0.71,
        "hand": "left"
      },
      {
        "midi": 60,
        "time": 17.143,
        "duration": 0.214,
        "velocity": 0.71,
        "hand": "right"
      },
      {
        "midi": 70,
        "time": 17.143,
        "duration": 0.107,
        "velocity": 0.71,
        "hand": "right"
      },
      {
        "midi": 68,
        "time": 17.25,
        "duration": 0.107,
        "velocity": 0.71,
        "hand": "right"
      },
      {
        "midi": 49,
        "time": 17.357,
        "duration": 0.214,
        "velocity": 0.71,
        "hand": "left"
      },
      {
        "midi": 67,
        "time": 17.357,
        "duration": 0.107,
        "velocity": 0.71,
        "hand": "right"
      },
      {
        "midi": 68,
        "time": 17.464,
        "duration": 0.107,
        "velocity": 0.71,
        "hand": "right"
      },
      {
        "midi": 56,
        "time": 17.571,
        "duration": 0.214,
        "velocity": 0.71,
        "hand": "left"
      },
      {
        "midi": 65,
        "time": 17.571,
        "duration": 0.214,
        "velocity": 0.71,
        "hand": "right"
      },
      {
        "midi": 70,
        "time": 17.571,
        "duration": 0.107,
        "velocity": 0.71,
        "hand": "right"
      },
      {
        "midi": 72,
        "time": 17.679,
        "duration": 0.107,
        "velocity": 0.71,
        "hand": "right"
      },
      {
        "midi": 73,
        "time": 17.786,
        "duration": 0.107,
        "velocity": 0.71,
        "hand": "right"
      },
      {
        "midi": 75,
        "time": 17.893,
        "duration": 0.107,
        "velocity": 0.71,
        "hand": "right"
      },
      {
        "midi": 57,
        "time": 18,
        "duration": 0.643,
        "velocity": 0.71,
        "hand": "left"
      },
      {
        "midi": 77,
        "time": 18,
        "duration": 0.054,
        "velocity": 0.71,
        "hand": "right"
      },
      {
        "midi": 78,
        "time": 18.054,
        "duration": 0.054,
        "velocity": 0.71,
        "hand": "right"
      },
      {
        "midi": 63,
        "time": 18.214,
        "duration": 0.214,
        "velocity": 0.71,
        "hand": "right"
      },
      {
        "midi": 76,
        "time": 18.214,
        "duration": 0.107,
        "velocity": 0.71,
        "hand": "right"
      },
      {
        "midi": 77,
        "time": 18.161,
        "duration": 0.054,
        "velocity": 0.71,
        "hand": "right"
      },
      {
        "midi": 77,
        "time": 18.321,
        "duration": 0.107,
        "velocity": 0.71,
        "hand": "right"
      },
      {
        "midi": 63,
        "time": 18.429,
        "duration": 0.214,
        "velocity": 0.71,
        "hand": "right"
      },
      {
        "midi": 65,
        "time": 18.429,
        "duration": 0.214,
        "velocity": 0.71,
        "hand": "right"
      },
      {
        "midi": 80,
        "time": 18.429,
        "duration": 0.107,
        "velocity": 0.71,
        "hand": "right"
      },
      {
        "midi": 78,
        "time": 18.536,
        "duration": 0.107,
        "velocity": 0.71,
        "hand": "right"
      },
      {
        "midi": 58,
        "time": 18.643,
        "duration": 0.643,
        "velocity": 0.71,
        "hand": "left"
      },
      {
        "midi": 77,
        "time": 18.643,
        "duration": 0.107,
        "velocity": 0.71,
        "hand": "right"
      },
      {
        "midi": 78,
        "time": 18.75,
        "duration": 0.107,
        "velocity": 0.71,
        "hand": "right"
      },
      {
        "midi": 61,
        "time": 18.857,
        "duration": 0.214,
        "velocity": 0.71,
        "hand": "right"
      },
      {
        "midi": 65,
        "time": 18.857,
        "duration": 0.214,
        "velocity": 0.71,
        "hand": "right"
      },
      {
        "midi": 77,
        "time": 18.857,
        "duration": 0.107,
        "velocity": 0.71,
        "hand": "right"
      },
      {
        "midi": 76,
        "time": 18.964,
        "duration": 0.107,
        "velocity": 0.71,
        "hand": "right"
      },
      {
        "midi": 61,
        "time": 19.071,
        "duration": 0.214,
        "velocity": 0.71,
        "hand": "right"
      },
      {
        "midi": 65,
        "time": 19.071,
        "duration": 0.214,
        "velocity": 0.71,
        "hand": "right"
      },
      {
        "midi": 77,
        "time": 19.071,
        "duration": 0.107,
        "velocity": 0.71,
        "hand": "right"
      },
      {
        "midi": 82,
        "time": 19.179,
        "duration": 0.107,
        "velocity": 0.71,
        "hand": "right"
      },
      {
        "midi": 60,
        "time": 19.286,
        "duration": 0.643,
        "velocity": 0.71,
        "hand": "right"
      },
      {
        "midi": 80,
        "time": 19.286,
        "duration": 0.054,
        "velocity": 0.71,
        "hand": "right"
      },
      {
        "midi": 82,
        "time": 19.339,
        "duration": 0.054,
        "velocity": 0.71,
        "hand": "right"
      },
      {
        "midi": 66,
        "time": 19.5,
        "duration": 0.214,
        "velocity": 0.71,
        "hand": "right"
      },
      {
        "midi": 79,
        "time": 19.5,
        "duration": 0.107,
        "velocity": 0.71,
        "hand": "right"
      },
      {
        "midi": 80,
        "time": 19.446,
        "duration": 0.054,
        "velocity": 0.71,
        "hand": "right"
      },
      {
        "midi": 80,
        "time": 19.607,
        "duration": 0.107,
        "velocity": 0.71,
        "hand": "right"
      },
      {
        "midi": 66,
        "time": 19.714,
        "duration": 0.214,
        "velocity": 0.71,
        "hand": "right"
      },
      {
        "midi": 68,
        "time": 19.714,
        "duration": 0.214,
        "velocity": 0.71,
        "hand": "right"
      },
      {
        "midi": 84,
        "time": 19.714,
        "duration": 0.107,
        "velocity": 0.71,
        "hand": "right"
      },
      {
        "midi": 82,
        "time": 19.821,
        "duration": 0.107,
        "velocity": 0.71,
        "hand": "right"
      },
      {
        "midi": 61,
        "time": 19.929,
        "duration": 0.214,
        "velocity": 0.71,
        "hand": "right"
      },
      {
        "midi": 80,
        "time": 19.929,
        "duration": 0.107,
        "velocity": 0.71,
        "hand": "right"
      },
      {
        "midi": 82,
        "time": 20.036,
        "duration": 0.107,
        "velocity": 0.71,
        "hand": "right"
      },
      {
        "midi": 65,
        "time": 20.143,
        "duration": 0.214,
        "velocity": 0.71,
        "hand": "right"
      },
      {
        "midi": 68,
        "time": 20.143,
        "duration": 0.214,
        "velocity": 0.71,
        "hand": "right"
      },
      {
        "midi": 80,
        "time": 20.143,
        "duration": 0.107,
        "velocity": 0.71,
        "hand": "right"
      },
      {
        "midi": 79,
        "time": 20.25,
        "duration": 0.107,
        "velocity": 0.71,
        "hand": "right"
      },
      {
        "midi": 80,
        "time": 20.357,
        "duration": 0.107,
        "velocity": 0.71,
        "hand": "right"
      },
      {
        "midi": 89,
        "time": 20.464,
        "duration": 0.107,
        "velocity": 0.71,
        "hand": "right"
      },
      {
        "midi": 54,
        "time": 20.571,
        "duration": 0.214,
        "velocity": 0.71,
        "hand": "left"
      },
      {
        "midi": 87,
        "time": 20.571,
        "duration": 0.107,
        "velocity": 0.71,
        "hand": "right"
      },
      {
        "midi": 85,
        "time": 20.679,
        "duration": 0.107,
        "velocity": 0.71,
        "hand": "right"
      },
      {
        "midi": 61,
        "time": 20.786,
        "duration": 0.214,
        "velocity": 0.71,
        "hand": "right"
      },
      {
        "midi": 70,
        "time": 20.786,
        "duration": 0.214,
        "velocity": 0.71,
        "hand": "right"
      },
      {
        "midi": 84,
        "time": 20.786,
        "duration": 0.107,
        "velocity": 0.71,
        "hand": "right"
      },
      {
        "midi": 82,
        "time": 20.893,
        "duration": 0.107,
        "velocity": 0.71,
        "hand": "right"
      },
      {
        "midi": 80,
        "time": 21,
        "duration": 0.107,
        "velocity": 0.71,
        "hand": "right"
      },
      {
        "midi": 78,
        "time": 21.107,
        "duration": 0.107,
        "velocity": 0.71,
        "hand": "right"
      },
      {
        "midi": 44,
        "time": 21.214,
        "duration": 0.214,
        "velocity": 0.71,
        "hand": "left"
      },
      {
        "midi": 77,
        "time": 21.214,
        "duration": 0.107,
        "velocity": 0.71,
        "hand": "right"
      },
      {
        "midi": 75,
        "time": 21.321,
        "duration": 0.107,
        "velocity": 0.71,
        "hand": "right"
      },
      {
        "midi": 53,
        "time": 21.429,
        "duration": 0.214,
        "velocity": 0.71,
        "hand": "left"
      },
      {
        "midi": 61,
        "time": 21.429,
        "duration": 0.214,
        "velocity": 0.71,
        "hand": "right"
      },
      {
        "midi": 73,
        "time": 21.429,
        "duration": 0.107,
        "velocity": 0.71,
        "hand": "right"
      },
      {
        "midi": 72,
        "time": 21.536,
        "duration": 0.107,
        "velocity": 0.71,
        "hand": "right"
      },
      {
        "midi": 70,
        "time": 21.643,
        "duration": 0.107,
        "velocity": 0.71,
        "hand": "right"
      },
      {
        "midi": 68,
        "time": 21.75,
        "duration": 0.107,
        "velocity": 0.71,
        "hand": "right"
      },
      {
        "midi": 44,
        "time": 21.857,
        "duration": 0.214,
        "velocity": 0.71,
        "hand": "left"
      },
      {
        "midi": 69,
        "time": 21.857,
        "duration": 0.107,
        "velocity": 0.71,
        "hand": "right"
      },
      {
        "midi": 72,
        "time": 21.964,
        "duration": 0.107,
        "velocity": 0.71,
        "hand": "right"
      },
      {
        "midi": 54,
        "time": 22.071,
        "duration": 0.214,
        "velocity": 0.71,
        "hand": "left"
      },
      {
        "midi": 56,
        "time": 22.071,
        "duration": 0.214,
        "velocity": 0.71,
        "hand": "left"
      },
      {
        "midi": 70,
        "time": 22.071,
        "duration": 0.107,
        "velocity": 0.71,
        "hand": "right"
      },
      {
        "midi": 65,
        "time": 22.179,
        "duration": 0.107,
        "velocity": 0.71,
        "hand": "right"
      },
      {
        "midi": 54,
        "time": 22.286,
        "duration": 0.214,
        "velocity": 0.71,
        "hand": "left"
      },
      {
        "midi": 56,
        "time": 22.286,
        "duration": 0.214,
        "velocity": 0.71,
        "hand": "left"
      },
      {
        "midi": 66,
        "time": 22.286,
        "duration": 0.107,
        "velocity": 0.71,
        "hand": "right"
      },
      {
        "midi": 60,
        "time": 22.393,
        "duration": 0.107,
        "velocity": 0.71,
        "hand": "right"
      },
      {
        "midi": 49,
        "time": 22.5,
        "duration": 0.214,
        "velocity": 0.71,
        "hand": "left"
      },
      {
        "midi": 61,
        "time": 22.5,
        "duration": 0.214,
        "velocity": 0.71,
        "hand": "right"
      },
      {
        "midi": 56,
        "time": 22.714,
        "duration": 0.214,
        "velocity": 0.71,
        "hand": "left"
      },
      {
        "midi": 65,
        "time": 22.714,
        "duration": 0.214,
        "velocity": 0.71,
        "hand": "right"
      },
      {
        "midi": 77,
        "time": 22.929,
        "duration": 0.214,
        "velocity": 0.71,
        "hand": "right"
      },
      {
        "midi": 45,
        "time": 23.143,
        "duration": 0.214,
        "velocity": 0.71,
        "hand": "left"
      },
      {
        "midi": 77,
        "time": 23.143,
        "duration": 0.054,
        "velocity": 0.71,
        "hand": "right"
      },
      {
        "midi": 78,
        "time": 23.196,
        "duration": 0.054,
        "velocity": 0.71,
        "hand": "right"
      },
      {
        "midi": 53,
        "time": 23.357,
        "duration": 0.214,
        "velocity": 0.71,
        "hand": "left"
      },
      {
        "midi": 63,
        "time": 23.357,
        "duration": 0.214,
        "velocity": 0.71,
        "hand": "right"
      },
      {
        "midi": 77,
        "time": 23.304,
        "duration": 0.054,
        "velocity": 0.71,
        "hand": "right"
      },
      {
        "midi": 77,
        "time": 23.464,
        "duration": 0.107,
        "velocity": 0.71,
        "hand": "right"
      },
      {
        "midi": 53,
        "time": 23.571,
        "duration": 0.214,
        "velocity": 0.71,
        "hand": "left"
      },
      {
        "midi": 63,
        "time": 23.571,
        "duration": 0.214,
        "velocity": 0.71,
        "hand": "right"
      },
      {
        "midi": 80,
        "time": 23.571,
        "duration": 0.107,
        "velocity": 0.71,
        "hand": "right"
      },
      {
        "midi": 78,
        "time": 23.679,
        "duration": 0.107,
        "velocity": 0.71,
        "hand": "right"
      },
      {
        "midi": 46,
        "time": 23.786,
        "duration": 0.214,
        "velocity": 0.71,
        "hand": "left"
      },
      {
        "midi": 77,
        "time": 23.786,
        "duration": 0.107,
        "velocity": 0.71,
        "hand": "right"
      },
      {
        "midi": 78,
        "time": 23.893,
        "duration": 0.107,
        "velocity": 0.71,
        "hand": "right"
      },
      {
        "midi": 53,
        "time": 24,
        "duration": 0.214,
        "velocity": 0.71,
        "hand": "left"
      },
      {
        "midi": 61,
        "time": 24,
        "duration": 0.214,
        "velocity": 0.71,
        "hand": "right"
      },
      {
        "midi": 77,
        "time": 24,
        "duration": 0.107,
        "velocity": 0.71,
        "hand": "right"
      },
      {
        "midi": 76,
        "time": 24.107,
        "duration": 0.107,
        "velocity": 0.71,
        "hand": "right"
      },
      {
        "midi": 53,
        "time": 24.214,
        "duration": 0.214,
        "velocity": 0.71,
        "hand": "left"
      },
      {
        "midi": 61,
        "time": 24.214,
        "duration": 0.214,
        "velocity": 0.71,
        "hand": "right"
      },
      {
        "midi": 77,
        "time": 24.214,
        "duration": 0.107,
        "velocity": 0.71,
        "hand": "right"
      },
      {
        "midi": 82,
        "time": 24.321,
        "duration": 0.107,
        "velocity": 0.71,
        "hand": "right"
      },
      {
        "midi": 48,
        "time": 24.429,
        "duration": 0.214,
        "velocity": 0.71,
        "hand": "left"
      },
      {
        "midi": 80,
        "time": 24.429,
        "duration": 0.054,
        "velocity": 0.71,
        "hand": "right"
      },
      {
        "midi": 82,
        "time": 24.482,
        "duration": 0.054,
        "velocity": 0.71,
        "hand": "right"
      },
      {
        "midi": 56,
        "time": 24.643,
        "duration": 0.214,
        "velocity": 0.71,
        "hand": "left"
      },
      {
        "midi": 66,
        "time": 24.643,
        "duration": 0.214,
        "velocity": 0.71,
        "hand": "right"
      },
      {
        "midi": 80,
        "time": 24.589,
        "duration": 0.054,
        "velocity": 0.71,
        "hand": "right"
      },
      {
        "midi": 80,
        "time": 24.75,
        "duration": 0.107,
        "velocity": 0.71,
        "hand": "right"
      },
      {
        "midi": 56,
        "time": 24.857,
        "duration": 0.214,
        "velocity": 0.71,
        "hand": "left"
      },
      {
        "midi": 66,
        "time": 24.857,
        "duration": 0.214,
        "velocity": 0.71,
        "hand": "right"
      },
      {
        "midi": 84,
        "time": 24.857,
        "duration": 0.107,
        "velocity": 0.71,
        "hand": "right"
      },
      {
        "midi": 82,
        "time": 24.964,
        "duration": 0.107,
        "velocity": 0.71,
        "hand": "right"
      },
      {
        "midi": 49,
        "time": 25.071,
        "duration": 0.214,
        "velocity": 0.71,
        "hand": "left"
      },
      {
        "midi": 80,
        "time": 25.071,
        "duration": 0.107,
        "velocity": 0.71,
        "hand": "right"
      },
      {
        "midi": 82,
        "time": 25.179,
        "duration": 0.107,
        "velocity": 0.71,
        "hand": "right"
      },
      {
        "midi": 56,
        "time": 25.286,
        "duration": 0.214,
        "velocity": 0.71,
        "hand": "left"
      },
      {
        "midi": 65,
        "time": 25.286,
        "duration": 0.214,
        "velocity": 0.71,
        "hand": "right"
      },
      {
        "midi": 80,
        "time": 25.286,
        "duration": 0.107,
        "velocity": 0.71,
        "hand": "right"
      },
      {
        "midi": 79,
        "time": 25.393,
        "duration": 0.107,
        "velocity": 0.71,
        "hand": "right"
      },
      {
        "midi": 80,
        "time": 25.5,
        "duration": 0.107,
        "velocity": 0.71,
        "hand": "right"
      },
      {
        "midi": 85,
        "time": 25.607,
        "duration": 0.107,
        "velocity": 0.71,
        "hand": "right"
      },
      {
        "midi": 54,
        "time": 25.714,
        "duration": 0.214,
        "velocity": 0.71,
        "hand": "left"
      },
      {
        "midi": 84,
        "time": 25.714,
        "duration": 0.107,
        "velocity": 0.71,
        "hand": "right"
      },
      {
        "midi": 82,
        "time": 25.821,
        "duration": 0.107,
        "velocity": 0.71,
        "hand": "right"
      },
      {
        "midi": 58,
        "time": 25.929,
        "duration": 0.214,
        "velocity": 0.71,
        "hand": "left"
      },
      {
        "midi": 63,
        "time": 25.929,
        "duration": 0.214,
        "velocity": 0.71,
        "hand": "right"
      },
      {
        "midi": 80,
        "time": 25.929,
        "duration": 0.107,
        "velocity": 0.71,
        "hand": "right"
      },
      {
        "midi": 78,
        "time": 26.036,
        "duration": 0.107,
        "velocity": 0.71,
        "hand": "right"
      },
      {
        "midi": 77,
        "time": 26.143,
        "duration": 0.107,
        "velocity": 0.71,
        "hand": "right"
      },
      {
        "midi": 75,
        "time": 26.25,
        "duration": 0.107,
        "velocity": 0.71,
        "hand": "right"
      },
      {
        "midi": 44,
        "time": 26.357,
        "duration": 0.214,
        "velocity": 0.71,
        "hand": "left"
      },
      {
        "midi": 73,
        "time": 26.357,
        "duration": 0.107,
        "velocity": 0.71,
        "hand": "right"
      },
      {
        "midi": 72,
        "time": 26.464,
        "duration": 0.107,
        "velocity": 0.71,
        "hand": "right"
      },
      {
        "midi": 53,
        "time": 26.571,
        "duration": 0.214,
        "velocity": 0.71,
        "hand": "left"
      },
      {
        "midi": 61,
        "time": 26.571,
        "duration": 0.214,
        "velocity": 0.71,
        "hand": "right"
      },
      {
        "midi": 70,
        "time": 26.571,
        "duration": 0.107,
        "velocity": 0.71,
        "hand": "right"
      },
      {
        "midi": 68,
        "time": 26.679,
        "duration": 0.107,
        "velocity": 0.71,
        "hand": "right"
      },
      {
        "midi": 66,
        "time": 26.786,
        "duration": 0.107,
        "velocity": 0.71,
        "hand": "right"
      },
      {
        "midi": 65,
        "time": 26.893,
        "duration": 0.107,
        "velocity": 0.71,
        "hand": "right"
      },
      {
        "midi": 44,
        "time": 27,
        "duration": 0.214,
        "velocity": 0.71,
        "hand": "left"
      },
      {
        "midi": 63,
        "time": 27,
        "duration": 0.107,
        "velocity": 0.71,
        "hand": "right"
      },
      {
        "midi": 61,
        "time": 27.107,
        "duration": 0.107,
        "velocity": 0.71,
        "hand": "right"
      },
      {
        "midi": 54,
        "time": 27.214,
        "duration": 0.214,
        "velocity": 0.71,
        "hand": "left"
      },
      {
        "midi": 56,
        "time": 27.214,
        "duration": 0.214,
        "velocity": 0.71,
        "hand": "left"
      },
      {
        "midi": 60,
        "time": 27.214,
        "duration": 0.107,
        "velocity": 0.71,
        "hand": "right"
      },
      {
        "midi": 63,
        "time": 27.321,
        "duration": 0.107,
        "velocity": 0.71,
        "hand": "right"
      },
      {
        "midi": 54,
        "time": 27.429,
        "duration": 0.214,
        "velocity": 0.71,
        "hand": "left"
      },
      {
        "midi": 60,
        "time": 27.429,
        "duration": 0.214,
        "velocity": 0.71,
        "hand": "right"
      },
      {
        "midi": 70,
        "time": 27.429,
        "duration": 0.107,
        "velocity": 0.71,
        "hand": "right"
      },
      {
        "midi": 68,
        "time": 27.536,
        "duration": 0.107,
        "velocity": 0.71,
        "hand": "right"
      },
      {
        "midi": 49,
        "time": 27.643,
        "duration": 0.214,
        "velocity": 0.71,
        "hand": "left"
      },
      {
        "midi": 67,
        "time": 27.643,
        "duration": 0.107,
        "velocity": 0.71,
        "hand": "right"
      },
      {
        "midi": 68,
        "time": 27.75,
        "duration": 0.107,
        "velocity": 0.71,
        "hand": "right"
      },
      {
        "midi": 56,
        "time": 27.857,
        "duration": 0.214,
        "velocity": 0.71,
        "hand": "left"
      },
      {
        "midi": 65,
        "time": 27.857,
        "duration": 0.214,
        "velocity": 0.71,
        "hand": "right"
      },
      {
        "midi": 70,
        "time": 27.857,
        "duration": 0.107,
        "velocity": 0.71,
        "hand": "right"
      },
      {
        "midi": 72,
        "time": 27.964,
        "duration": 0.107,
        "velocity": 0.71,
        "hand": "right"
      },
      {
        "midi": 73,
        "time": 28.071,
        "duration": 0.107,
        "velocity": 0.71,
        "hand": "right"
      },
      {
        "midi": 75,
        "time": 28.179,
        "duration": 0.107,
        "velocity": 0.71,
        "hand": "right"
      },
      {
        "midi": 57,
        "time": 28.286,
        "duration": 0.643,
        "velocity": 0.71,
        "hand": "left"
      },
      {
        "midi": 77,
        "time": 28.286,
        "duration": 0.054,
        "velocity": 0.71,
        "hand": "right"
      },
      {
        "midi": 78,
        "time": 28.339,
        "duration": 0.054,
        "velocity": 0.71,
        "hand": "right"
      },
      {
        "midi": 63,
        "time": 28.5,
        "duration": 0.214,
        "velocity": 0.71,
        "hand": "right"
      },
      {
        "midi": 76,
        "time": 28.5,
        "duration": 0.107,
        "velocity": 0.71,
        "hand": "right"
      },
      {
        "midi": 77,
        "time": 28.446,
        "duration": 0.054,
        "velocity": 0.71,
        "hand": "right"
      },
      {
        "midi": 77,
        "time": 28.607,
        "duration": 0.107,
        "velocity": 0.71,
        "hand": "right"
      },
      {
        "midi": 63,
        "time": 28.714,
        "duration": 0.214,
        "velocity": 0.71,
        "hand": "right"
      },
      {
        "midi": 65,
        "time": 28.714,
        "duration": 0.214,
        "velocity": 0.71,
        "hand": "right"
      },
      {
        "midi": 80,
        "time": 28.714,
        "duration": 0.107,
        "velocity": 0.71,
        "hand": "right"
      },
      {
        "midi": 78,
        "time": 28.821,
        "duration": 0.107,
        "velocity": 0.71,
        "hand": "right"
      },
      {
        "midi": 58,
        "time": 28.929,
        "duration": 0.643,
        "velocity": 0.71,
        "hand": "left"
      },
      {
        "midi": 77,
        "time": 28.929,
        "duration": 0.107,
        "velocity": 0.71,
        "hand": "right"
      },
      {
        "midi": 78,
        "time": 29.036,
        "duration": 0.107,
        "velocity": 0.71,
        "hand": "right"
      },
      {
        "midi": 61,
        "time": 29.143,
        "duration": 0.214,
        "velocity": 0.71,
        "hand": "right"
      },
      {
        "midi": 65,
        "time": 29.143,
        "duration": 0.214,
        "velocity": 0.71,
        "hand": "right"
      },
      {
        "midi": 77,
        "time": 29.143,
        "duration": 0.107,
        "velocity": 0.71,
        "hand": "right"
      },
      {
        "midi": 76,
        "time": 29.25,
        "duration": 0.107,
        "velocity": 0.71,
        "hand": "right"
      },
      {
        "midi": 61,
        "time": 29.357,
        "duration": 0.214,
        "velocity": 0.71,
        "hand": "right"
      },
      {
        "midi": 65,
        "time": 29.357,
        "duration": 0.214,
        "velocity": 0.71,
        "hand": "right"
      },
      {
        "midi": 77,
        "time": 29.357,
        "duration": 0.107,
        "velocity": 0.71,
        "hand": "right"
      },
      {
        "midi": 82,
        "time": 29.464,
        "duration": 0.107,
        "velocity": 0.71,
        "hand": "right"
      },
      {
        "midi": 60,
        "time": 29.571,
        "duration": 0.643,
        "velocity": 0.71,
        "hand": "right"
      },
      {
        "midi": 80,
        "time": 29.571,
        "duration": 0.054,
        "velocity": 0.71,
        "hand": "right"
      },
      {
        "midi": 82,
        "time": 29.625,
        "duration": 0.054,
        "velocity": 0.71,
        "hand": "right"
      },
      {
        "midi": 66,
        "time": 29.786,
        "duration": 0.214,
        "velocity": 0.71,
        "hand": "right"
      },
      {
        "midi": 79,
        "time": 29.786,
        "duration": 0.107,
        "velocity": 0.71,
        "hand": "right"
      },
      {
        "midi": 80,
        "time": 29.732,
        "duration": 0.054,
        "velocity": 0.71,
        "hand": "right"
      },
      {
        "midi": 80,
        "time": 29.893,
        "duration": 0.107,
        "velocity": 0.71,
        "hand": "right"
      },
      {
        "midi": 66,
        "time": 30,
        "duration": 0.214,
        "velocity": 0.71,
        "hand": "right"
      },
      {
        "midi": 68,
        "time": 30,
        "duration": 0.214,
        "velocity": 0.71,
        "hand": "right"
      },
      {
        "midi": 84,
        "time": 30,
        "duration": 0.107,
        "velocity": 0.71,
        "hand": "right"
      },
      {
        "midi": 82,
        "time": 30.107,
        "duration": 0.107,
        "velocity": 0.71,
        "hand": "right"
      },
      {
        "midi": 61,
        "time": 30.214,
        "duration": 0.214,
        "velocity": 0.71,
        "hand": "right"
      },
      {
        "midi": 80,
        "time": 30.214,
        "duration": 0.107,
        "velocity": 0.71,
        "hand": "right"
      },
      {
        "midi": 82,
        "time": 30.321,
        "duration": 0.107,
        "velocity": 0.71,
        "hand": "right"
      },
      {
        "midi": 65,
        "time": 30.429,
        "duration": 0.214,
        "velocity": 0.71,
        "hand": "right"
      },
      {
        "midi": 68,
        "time": 30.429,
        "duration": 0.214,
        "velocity": 0.71,
        "hand": "right"
      },
      {
        "midi": 80,
        "time": 30.429,
        "duration": 0.107,
        "velocity": 0.71,
        "hand": "right"
      },
      {
        "midi": 79,
        "time": 30.536,
        "duration": 0.107,
        "velocity": 0.71,
        "hand": "right"
      },
      {
        "midi": 80,
        "time": 30.643,
        "duration": 0.107,
        "velocity": 0.71,
        "hand": "right"
      },
      {
        "midi": 89,
        "time": 30.75,
        "duration": 0.107,
        "velocity": 0.71,
        "hand": "right"
      },
      {
        "midi": 54,
        "time": 30.857,
        "duration": 0.214,
        "velocity": 0.71,
        "hand": "left"
      },
      {
        "midi": 87,
        "time": 30.857,
        "duration": 0.107,
        "velocity": 0.71,
        "hand": "right"
      },
      {
        "midi": 85,
        "time": 30.964,
        "duration": 0.107,
        "velocity": 0.71,
        "hand": "right"
      },
      {
        "midi": 61,
        "time": 31.071,
        "duration": 0.214,
        "velocity": 0.71,
        "hand": "right"
      },
      {
        "midi": 70,
        "time": 31.071,
        "duration": 0.214,
        "velocity": 0.71,
        "hand": "right"
      },
      {
        "midi": 84,
        "time": 31.071,
        "duration": 0.107,
        "velocity": 0.71,
        "hand": "right"
      },
      {
        "midi": 82,
        "time": 31.179,
        "duration": 0.107,
        "velocity": 0.71,
        "hand": "right"
      },
      {
        "midi": 80,
        "time": 31.286,
        "duration": 0.107,
        "velocity": 0.71,
        "hand": "right"
      },
      {
        "midi": 78,
        "time": 31.393,
        "duration": 0.107,
        "velocity": 0.71,
        "hand": "right"
      },
      {
        "midi": 44,
        "time": 31.5,
        "duration": 0.214,
        "velocity": 0.71,
        "hand": "left"
      },
      {
        "midi": 77,
        "time": 31.5,
        "duration": 0.107,
        "velocity": 0.71,
        "hand": "right"
      },
      {
        "midi": 75,
        "time": 31.607,
        "duration": 0.107,
        "velocity": 0.71,
        "hand": "right"
      },
      {
        "midi": 53,
        "time": 31.714,
        "duration": 0.214,
        "velocity": 0.71,
        "hand": "left"
      },
      {
        "midi": 61,
        "time": 31.714,
        "duration": 0.214,
        "velocity": 0.71,
        "hand": "right"
      },
      {
        "midi": 73,
        "time": 31.714,
        "duration": 0.107,
        "velocity": 0.71,
        "hand": "right"
      },
      {
        "midi": 72,
        "time": 31.821,
        "duration": 0.107,
        "velocity": 0.71,
        "hand": "right"
      },
      {
        "midi": 70,
        "time": 31.929,
        "duration": 0.107,
        "velocity": 0.71,
        "hand": "right"
      },
      {
        "midi": 68,
        "time": 32.036,
        "duration": 0.107,
        "velocity": 0.71,
        "hand": "right"
      },
      {
        "midi": 44,
        "time": 32.143,
        "duration": 0.214,
        "velocity": 0.71,
        "hand": "left"
      },
      {
        "midi": 69,
        "time": 32.143,
        "duration": 0.107,
        "velocity": 0.71,
        "hand": "right"
      },
      {
        "midi": 72,
        "time": 32.25,
        "duration": 0.107,
        "velocity": 0.71,
        "hand": "right"
      },
      {
        "midi": 54,
        "time": 32.357,
        "duration": 0.214,
        "velocity": 0.71,
        "hand": "left"
      },
      {
        "midi": 56,
        "time": 32.357,
        "duration": 0.214,
        "velocity": 0.71,
        "hand": "left"
      },
      {
        "midi": 70,
        "time": 32.357,
        "duration": 0.107,
        "velocity": 0.71,
        "hand": "right"
      },
      {
        "midi": 65,
        "time": 32.464,
        "duration": 0.107,
        "velocity": 0.71,
        "hand": "right"
      },
      {
        "midi": 54,
        "time": 32.571,
        "duration": 0.214,
        "velocity": 0.71,
        "hand": "left"
      },
      {
        "midi": 56,
        "time": 32.571,
        "duration": 0.214,
        "velocity": 0.71,
        "hand": "left"
      },
      {
        "midi": 66,
        "time": 32.571,
        "duration": 0.107,
        "velocity": 0.71,
        "hand": "right"
      },
      {
        "midi": 60,
        "time": 32.679,
        "duration": 0.107,
        "velocity": 0.71,
        "hand": "right"
      },
      {
        "midi": 49,
        "time": 32.786,
        "duration": 0.214,
        "velocity": 0.71,
        "hand": "left"
      },
      {
        "midi": 61,
        "time": 32.786,
        "duration": 0.214,
        "velocity": 0.71,
        "hand": "right"
      },
      {
        "midi": 56,
        "time": 33,
        "duration": 0.214,
        "velocity": 0.71,
        "hand": "left"
      },
      {
        "midi": 65,
        "time": 33,
        "duration": 0.214,
        "velocity": 0.71,
        "hand": "right"
      },
      {
        "midi": 68,
        "time": 33.214,
        "duration": 0.643,
        "velocity": 0.71,
        "hand": "right"
      },
      {
        "midi": 44,
        "time": 33.429,
        "duration": 0.214,
        "velocity": 0.71,
        "hand": "left"
      },
      {
        "midi": 54,
        "time": 33.643,
        "duration": 0.214,
        "velocity": 0.71,
        "hand": "left"
      },
      {
        "midi": 56,
        "time": 33.643,
        "duration": 0.214,
        "velocity": 0.71,
        "hand": "left"
      },
      {
        "midi": 60,
        "time": 33.643,
        "duration": 0.214,
        "velocity": 0.71,
        "hand": "right"
      },
      {
        "midi": 54,
        "time": 33.857,
        "duration": 0.214,
        "velocity": 0.71,
        "hand": "left"
      },
      {
        "midi": 60,
        "time": 33.857,
        "duration": 0.214,
        "velocity": 0.71,
        "hand": "right"
      },
      {
        "midi": 63,
        "time": 33.857,
        "duration": 0.214,
        "velocity": 0.71,
        "hand": "right"
      },
      {
        "midi": 54,
        "time": 34.071,
        "duration": 0.214,
        "velocity": 0.71,
        "hand": "left"
      },
      {
        "midi": 60,
        "time": 34.071,
        "duration": 0.214,
        "velocity": 0.71,
        "hand": "right"
      },
      {
        "midi": 68,
        "time": 34.071,
        "duration": 0.429,
        "velocity": 0.71,
        "hand": "right"
      },
      {
        "midi": 54,
        "time": 34.286,
        "duration": 0.214,
        "velocity": 0.71,
        "hand": "left"
      },
      {
        "midi": 56,
        "time": 34.286,
        "duration": 0.214,
        "velocity": 0.71,
        "hand": "left"
      },
      {
        "midi": 60,
        "time": 34.286,
        "duration": 0.214,
        "velocity": 0.71,
        "hand": "right"
      },
      {
        "midi": 54,
        "time": 34.5,
        "duration": 0.214,
        "velocity": 0.71,
        "hand": "left"
      },
      {
        "midi": 60,
        "time": 34.5,
        "duration": 0.214,
        "velocity": 0.71,
        "hand": "right"
      },
      {
        "midi": 64,
        "time": 34.5,
        "duration": 0.214,
        "velocity": 0.71,
        "hand": "right"
      },
      {
        "midi": 49,
        "time": 34.714,
        "duration": 0.214,
        "velocity": 0.71,
        "hand": "left"
      },
      {
        "midi": 68,
        "time": 34.714,
        "duration": 0.429,
        "velocity": 0.71,
        "hand": "right"
      },
      {
        "midi": 56,
        "time": 34.929,
        "duration": 0.214,
        "velocity": 0.71,
        "hand": "left"
      },
      {
        "midi": 61,
        "time": 34.929,
        "duration": 0.214,
        "velocity": 0.71,
        "hand": "right"
      },
      {
        "midi": 56,
        "time": 35.143,
        "duration": 0.214,
        "velocity": 0.71,
        "hand": "left"
      },
      {
        "midi": 61,
        "time": 35.143,
        "duration": 0.214,
        "velocity": 0.71,
        "hand": "right"
      },
      {
        "midi": 65,
        "time": 35.143,
        "duration": 0.214,
        "velocity": 0.71,
        "hand": "right"
      },
      {
        "midi": 44,
        "time": 35.357,
        "duration": 0.214,
        "velocity": 0.71,
        "hand": "left"
      },
      {
        "midi": 77,
        "time": 35.357,
        "duration": 0.429,
        "velocity": 0.71,
        "hand": "right"
      },
      {
        "midi": 56,
        "time": 35.571,
        "duration": 0.214,
        "velocity": 0.71,
        "hand": "left"
      },
      {
        "midi": 61,
        "time": 35.571,
        "duration": 0.214,
        "velocity": 0.71,
        "hand": "right"
      },
      {
        "midi": 65,
        "time": 35.571,
        "duration": 0.214,
        "velocity": 0.71,
        "hand": "right"
      },
      {
        "midi": 56,
        "time": 35.786,
        "duration": 0.214,
        "velocity": 0.71,
        "hand": "left"
      },
      {
        "midi": 65,
        "time": 35.786,
        "duration": 0.214,
        "velocity": 0.71,
        "hand": "right"
      },
      {
        "midi": 77,
        "time": 35.786,
        "duration": 0.643,
        "velocity": 0.71,
        "hand": "right"
      },
      {
        "midi": 51,
        "time": 36,
        "duration": 0.214,
        "velocity": 0.71,
        "hand": "left"
      },
      {
        "midi": 56,
        "time": 36.214,
        "duration": 0.214,
        "velocity": 0.71,
        "hand": "left"
      },
      {
        "midi": 60,
        "time": 36.214,
        "duration": 0.214,
        "velocity": 0.71,
        "hand": "right"
      },
      {
        "midi": 66,
        "time": 36.214,
        "duration": 0.214,
        "velocity": 0.71,
        "hand": "right"
      },
      {
        "midi": 56,
        "time": 36.429,
        "duration": 0.214,
        "velocity": 0.71,
        "hand": "left"
      },
      {
        "midi": 66,
        "time": 36.429,
        "duration": 0.214,
        "velocity": 0.71,
        "hand": "right"
      },
      {
        "midi": 70,
        "time": 36.429,
        "duration": 0.214,
        "velocity": 0.71,
        "hand": "right"
      },
      {
        "midi": 44,
        "time": 36.643,
        "duration": 0.214,
        "velocity": 0.71,
        "hand": "left"
      },
      {
        "midi": 77,
        "time": 36.643,
        "duration": 0.429,
        "velocity": 0.71,
        "hand": "right"
      },
      {
        "midi": 56,
        "time": 36.857,
        "duration": 0.214,
        "velocity": 0.71,
        "hand": "left"
      },
      {
        "midi": 63,
        "time": 36.857,
        "duration": 0.214,
        "velocity": 0.71,
        "hand": "right"
      },
      {
        "midi": 66,
        "time": 36.857,
        "duration": 0.214,
        "velocity": 0.71,
        "hand": "right"
      },
      {
        "midi": 56,
        "time": 37.071,
        "duration": 0.214,
        "velocity": 0.71,
        "hand": "left"
      },
      {
        "midi": 66,
        "time": 37.071,
        "duration": 0.214,
        "velocity": 0.71,
        "hand": "right"
      },
      {
        "midi": 72,
        "time": 37.071,
        "duration": 0.214,
        "velocity": 0.71,
        "hand": "right"
      },
      {
        "midi": 49,
        "time": 37.286,
        "duration": 0.214,
        "velocity": 0.71,
        "hand": "left"
      },
      {
        "midi": 75,
        "time": 37.286,
        "duration": 0.429,
        "velocity": 0.71,
        "hand": "right"
      },
      {
        "midi": 56,
        "time": 37.5,
        "duration": 0.214,
        "velocity": 0.71,
        "hand": "left"
      },
      {
        "midi": 61,
        "time": 37.5,
        "duration": 0.214,
        "velocity": 0.71,
        "hand": "right"
      },
      {
        "midi": 65,
        "time": 37.5,
        "duration": 0.214,
        "velocity": 0.71,
        "hand": "right"
      },
      {
        "midi": 56,
        "time": 37.714,
        "duration": 0.214,
        "velocity": 0.71,
        "hand": "left"
      },
      {
        "midi": 65,
        "time": 37.714,
        "duration": 0.214,
        "velocity": 0.71,
        "hand": "right"
      },
      {
        "midi": 73,
        "time": 37.714,
        "duration": 0.214,
        "velocity": 0.71,
        "hand": "right"
      },
      {
        "midi": 53,
        "time": 37.929,
        "duration": 0.214,
        "velocity": 0.71,
        "hand": "left"
      },
      {
        "midi": 72,
        "time": 37.929,
        "duration": 0.161,
        "velocity": 0.71,
        "hand": "right"
      },
      {
        "midi": 56,
        "time": 38.143,
        "duration": 0.214,
        "velocity": 0.71,
        "hand": "left"
      },
      {
        "midi": 65,
        "time": 38.143,
        "duration": 0.214,
        "velocity": 0.71,
        "hand": "right"
      },
      {
        "midi": 75,
        "time": 38.089,
        "duration": 0.161,
        "velocity": 0.71,
        "hand": "right"
      },
      {
        "midi": 73,
        "time": 38.25,
        "duration": 0.161,
        "velocity": 0.71,
        "hand": "right"
      },
      {
        "midi": 56,
        "time": 38.357,
        "duration": 0.214,
        "velocity": 0.71,
        "hand": "left"
      },
      {
        "midi": 65,
        "time": 38.357,
        "duration": 0.214,
        "velocity": 0.71,
        "hand": "right"
      },
      {
        "midi": 70,
        "time": 38.411,
        "duration": 0.161,
        "velocity": 0.71,
        "hand": "right"
      },
      {
        "midi": 48,
        "time": 38.571,
        "duration": 0.214,
        "velocity": 0.71,
        "hand": "left"
      },
      {
        "midi": 68,
        "time": 38.571,
        "duration": 0.429,
        "velocity": 0.71,
        "hand": "right"
      },
      {
        "midi": 54,
        "time": 38.786,
        "duration": 0.214,
        "velocity": 0.71,
        "hand": "left"
      },
      {
        "midi": 56,
        "time": 38.786,
        "duration": 0.214,
        "velocity": 0.71,
        "hand": "left"
      },
      {
        "midi": 54,
        "time": 39,
        "duration": 0.214,
        "velocity": 0.71,
        "hand": "left"
      },
      {
        "midi": 56,
        "time": 39,
        "duration": 0.214,
        "velocity": 0.71,
        "hand": "left"
      },
      {
        "midi": 63,
        "time": 39,
        "duration": 0.214,
        "velocity": 0.71,
        "hand": "right"
      },
      {
        "midi": 44,
        "time": 39.214,
        "duration": 0.214,
        "velocity": 0.71,
        "hand": "left"
      },
      {
        "midi": 68,
        "time": 39.214,
        "duration": 0.429,
        "velocity": 0.71,
        "hand": "right"
      },
      {
        "midi": 54,
        "time": 39.429,
        "duration": 0.214,
        "velocity": 0.71,
        "hand": "left"
      },
      {
        "midi": 56,
        "time": 39.429,
        "duration": 0.214,
        "velocity": 0.71,
        "hand": "left"
      },
      {
        "midi": 54,
        "time": 39.643,
        "duration": 0.214,
        "velocity": 0.71,
        "hand": "left"
      },
      {
        "midi": 60,
        "time": 39.643,
        "duration": 0.214,
        "velocity": 0.71,
        "hand": "right"
      },
      {
        "midi": 64,
        "time": 39.643,
        "duration": 0.214,
        "velocity": 0.71,
        "hand": "right"
      },
      {
        "midi": 49,
        "time": 39.857,
        "duration": 0.214,
        "velocity": 0.71,
        "hand": "left"
      },
      {
        "midi": 68,
        "time": 39.857,
        "duration": 0.429,
        "velocity": 0.71,
        "hand": "right"
      },
      {
        "midi": 56,
        "time": 40.071,
        "duration": 0.214,
        "velocity": 0.71,
        "hand": "left"
      },
      {
        "midi": 61,
        "time": 40.071,
        "duration": 0.214,
        "velocity": 0.71,
        "hand": "right"
      },
      {
        "midi": 56,
        "time": 40.286,
        "duration": 0.214,
        "velocity": 0.71,
        "hand": "left"
      },
      {
        "midi": 61,
        "time": 40.286,
        "duration": 0.214,
        "velocity": 0.71,
        "hand": "right"
      },
      {
        "midi": 65,
        "time": 40.286,
        "duration": 0.214,
        "velocity": 0.71,
        "hand": "right"
      },
      {
        "midi": 47,
        "time": 40.5,
        "duration": 0.214,
        "velocity": 0.71,
        "hand": "left"
      },
      {
        "midi": 77,
        "time": 40.5,
        "duration": 0.643,
        "velocity": 0.71,
        "hand": "right"
      },
      {
        "midi": 56,
        "time": 40.714,
        "duration": 0.214,
        "velocity": 0.71,
        "hand": "left"
      },
      {
        "midi": 61,
        "time": 40.714,
        "duration": 0.214,
        "velocity": 0.71,
        "hand": "right"
      },
      {
        "midi": 65,
        "time": 40.714,
        "duration": 0.214,
        "velocity": 0.71,
        "hand": "right"
      },
      {
        "midi": 56,
        "time": 40.929,
        "duration": 0.214,
        "velocity": 0.71,
        "hand": "left"
      },
      {
        "midi": 61,
        "time": 40.929,
        "duration": 0.214,
        "velocity": 0.71,
        "hand": "right"
      },
      {
        "midi": 65,
        "time": 40.929,
        "duration": 0.214,
        "velocity": 0.71,
        "hand": "right"
      },
      {
        "midi": 48,
        "time": 41.143,
        "duration": 0.214,
        "velocity": 0.71,
        "hand": "left"
      },
      {
        "midi": 72,
        "time": 41.143,
        "duration": 0.214,
        "velocity": 0.71,
        "hand": "right"
      },
      {
        "midi": 56,
        "time": 41.357,
        "duration": 0.214,
        "velocity": 0.71,
        "hand": "left"
      },
      {
        "midi": 65,
        "time": 41.357,
        "duration": 0.214,
        "velocity": 0.71,
        "hand": "right"
      },
      {
        "midi": 71,
        "time": 41.357,
        "duration": 0.214,
        "velocity": 0.71,
        "hand": "right"
      },
      {
        "midi": 56,
        "time": 41.571,
        "duration": 0.214,
        "velocity": 0.71,
        "hand": "left"
      },
      {
        "midi": 65,
        "time": 41.571,
        "duration": 0.214,
        "velocity": 0.71,
        "hand": "right"
      },
      {
        "midi": 72,
        "time": 41.571,
        "duration": 0.214,
        "velocity": 0.71,
        "hand": "right"
      },
      {
        "midi": 36,
        "time": 41.786,
        "duration": 0.214,
        "velocity": 0.71,
        "hand": "left"
      },
      {
        "midi": 80,
        "time": 41.786,
        "duration": 0.214,
        "velocity": 0.71,
        "hand": "right"
      },
      {
        "midi": 55,
        "time": 42,
        "duration": 0.214,
        "velocity": 0.71,
        "hand": "left"
      },
      {
        "midi": 64,
        "time": 42,
        "duration": 0.214,
        "velocity": 0.71,
        "hand": "right"
      },
      {
        "midi": 70,
        "time": 42,
        "duration": 0.214,
        "velocity": 0.71,
        "hand": "right"
      },
      {
        "midi": 79,
        "time": 42.214,
        "duration": 0.214,
        "velocity": 0.71,
        "hand": "right"
      },
      {
        "midi": 41,
        "time": 42.429,
        "duration": 0.214,
        "velocity": 0.71,
        "hand": "left"
      },
      {
        "midi": 69,
        "time": 42.429,
        "duration": 0.214,
        "velocity": 0.71,
        "hand": "right"
      },
      {
        "midi": 78,
        "time": 42.643,
        "duration": 0.214,
        "velocity": 0.71,
        "hand": "right"
      },
      {
        "midi": 53,
        "time": 42.857,
        "duration": 0.214,
        "velocity": 0.71,
        "hand": "left"
      },
      {
        "midi": 60,
        "time": 42.857,
        "duration": 0.214,
        "velocity": 0.71,
        "hand": "right"
      },
      {
        "midi": 68,
        "time": 42.857,
        "duration": 0.214,
        "velocity": 0.71,
        "hand": "right"
      },
      {
        "midi": 77,
        "time": 43.071,
        "duration": 0.214,
        "velocity": 0.71,
        "hand": "right"
      },
      {
        "midi": 65,
        "time": 43.286,
        "duration": 0.214,
        "velocity": 0.71,
        "hand": "right"
      },
      {
        "midi": 70,
        "time": 43.5,
        "duration": 0.214,
        "velocity": 0.71,
        "hand": "right"
      },
      {
        "midi": 48,
        "time": 43.714,
        "duration": 0.214,
        "velocity": 0.71,
        "hand": "left"
      },
      {
        "midi": 68,
        "time": 43.714,
        "duration": 0.429,
        "velocity": 0.71,
        "hand": "right"
      },
      {
        "midi": 54,
        "time": 43.929,
        "duration": 0.214,
        "velocity": 0.71,
        "hand": "left"
      },
      {
        "midi": 56,
        "time": 43.929,
        "duration": 0.214,
        "velocity": 0.71,
        "hand": "left"
      },
      {
        "midi": 54,
        "time": 44.143,
        "duration": 0.214,
        "velocity": 0.71,
        "hand": "left"
      },
      {
        "midi": 56,
        "time": 44.143,
        "duration": 0.214,
        "velocity": 0.71,
        "hand": "left"
      },
      {
        "midi": 63,
        "time": 44.143,
        "duration": 0.214,
        "velocity": 0.71,
        "hand": "right"
      },
      {
        "midi": 44,
        "time": 44.357,
        "duration": 0.214,
        "velocity": 0.71,
        "hand": "left"
      },
      {
        "midi": 68,
        "time": 44.357,
        "duration": 0.429,
        "velocity": 0.71,
        "hand": "right"
      },
      {
        "midi": 80,
        "time": 44.357,
        "duration": 0.054,
        "velocity": 0.71,
        "hand": "right"
      },
      {
        "midi": 54,
        "time": 44.571,
        "duration": 0.214,
        "velocity": 0.71,
        "hand": "left"
      },
      {
        "midi": 56,
        "time": 44.571,
        "duration": 0.214,
        "velocity": 0.71,
        "hand": "left"
      },
      {
        "midi": 60,
        "time": 44.571,
        "duration": 0.214,
        "velocity": 0.71,
        "hand": "right"
      },
      {
        "midi": 54,
        "time": 44.786,
        "duration": 0.214,
        "velocity": 0.71,
        "hand": "left"
      },
      {
        "midi": 60,
        "time": 44.786,
        "duration": 0.214,
        "velocity": 0.71,
        "hand": "right"
      },
      {
        "midi": 64,
        "time": 44.786,
        "duration": 0.214,
        "velocity": 0.71,
        "hand": "right"
      },
      {
        "midi": 49,
        "time": 45,
        "duration": 0.214,
        "velocity": 0.71,
        "hand": "left"
      },
      {
        "midi": 68,
        "time": 45,
        "duration": 0.429,
        "velocity": 0.71,
        "hand": "right"
      },
      {
        "midi": 80,
        "time": 45,
        "duration": 0.054,
        "velocity": 0.71,
        "hand": "right"
      },
      {
        "midi": 56,
        "time": 45.214,
        "duration": 0.214,
        "velocity": 0.71,
        "hand": "left"
      },
      {
        "midi": 61,
        "time": 45.214,
        "duration": 0.214,
        "velocity": 0.71,
        "hand": "right"
      },
      {
        "midi": 56,
        "time": 45.429,
        "duration": 0.214,
        "velocity": 0.71,
        "hand": "left"
      },
      {
        "midi": 61,
        "time": 45.429,
        "duration": 0.214,
        "velocity": 0.71,
        "hand": "right"
      },
      {
        "midi": 65,
        "time": 45.429,
        "duration": 0.214,
        "velocity": 0.71,
        "hand": "right"
      },
      {
        "midi": 44,
        "time": 45.643,
        "duration": 0.214,
        "velocity": 0.71,
        "hand": "left"
      },
      {
        "midi": 77,
        "time": 45.643,
        "duration": 0.429,
        "velocity": 0.71,
        "hand": "right"
      },
      {
        "midi": 80,
        "time": 45.643,
        "duration": 0.054,
        "velocity": 0.71,
        "hand": "right"
      },
      {
        "midi": 56,
        "time": 45.857,
        "duration": 0.214,
        "velocity": 0.71,
        "hand": "left"
      },
      {
        "midi": 61,
        "time": 45.857,
        "duration": 0.214,
        "velocity": 0.71,
        "hand": "right"
      },
      {
        "midi": 65,
        "time": 45.857,
        "duration": 0.214,
        "velocity": 0.71,
        "hand": "right"
      },
      {
        "midi": 56,
        "time": 46.071,
        "duration": 0.214,
        "velocity": 0.71,
        "hand": "left"
      },
      {
        "midi": 65,
        "time": 46.071,
        "duration": 0.214,
        "velocity": 0.71,
        "hand": "right"
      },
      {
        "midi": 77,
        "time": 46.071,
        "duration": 0.214,
        "velocity": 0.71,
        "hand": "right"
      },
      {
        "midi": 51,
        "time": 46.286,
        "duration": 0.214,
        "velocity": 0.71,
        "hand": "left"
      },
      {
        "midi": 77,
        "time": 46.286,
        "duration": 0.429,
        "velocity": 0.71,
        "hand": "right"
      },
      {
        "midi": 80,
        "time": 46.286,
        "duration": 0.054,
        "velocity": 0.71,
        "hand": "right"
      },
      {
        "midi": 56,
        "time": 46.5,
        "duration": 0.214,
        "velocity": 0.71,
        "hand": "left"
      },
      {
        "midi": 60,
        "time": 46.5,
        "duration": 0.214,
        "velocity": 0.71,
        "hand": "right"
      },
      {
        "midi": 66,
        "time": 46.5,
        "duration": 0.214,
        "velocity": 0.71,
        "hand": "right"
      },
      {
        "midi": 56,
        "time": 46.714,
        "duration": 0.214,
        "velocity": 0.71,
        "hand": "left"
      },
      {
        "midi": 66,
        "time": 46.714,
        "duration": 0.214,
        "velocity": 0.71,
        "hand": "right"
      },
      {
        "midi": 70,
        "time": 46.714,
        "duration": 0.214,
        "velocity": 0.71,
        "hand": "right"
      },
      {
        "midi": 44,
        "time": 46.929,
        "duration": 0.214,
        "velocity": 0.71,
        "hand": "left"
      },
      {
        "midi": 77,
        "time": 46.929,
        "duration": 0.429,
        "velocity": 0.71,
        "hand": "right"
      },
      {
        "midi": 80,
        "time": 46.929,
        "duration": 0.054,
        "velocity": 0.71,
        "hand": "right"
      },
      {
        "midi": 56,
        "time": 47.143,
        "duration": 0.214,
        "velocity": 0.71,
        "hand": "left"
      },
      {
        "midi": 63,
        "time": 47.143,
        "duration": 0.214,
        "velocity": 0.71,
        "hand": "right"
      },
      {
        "midi": 66,
        "time": 47.143,
        "duration": 0.214,
        "velocity": 0.71,
        "hand": "right"
      },
      {
        "midi": 56,
        "time": 47.357,
        "duration": 0.214,
        "velocity": 0.71,
        "hand": "left"
      },
      {
        "midi": 66,
        "time": 47.357,
        "duration": 0.214,
        "velocity": 0.71,
        "hand": "right"
      },
      {
        "midi": 72,
        "time": 47.357,
        "duration": 0.214,
        "velocity": 0.71,
        "hand": "right"
      },
      {
        "midi": 49,
        "time": 47.571,
        "duration": 0.214,
        "velocity": 0.71,
        "hand": "left"
      },
      {
        "midi": 75,
        "time": 47.571,
        "duration": 0.214,
        "velocity": 0.71,
        "hand": "right"
      },
      {
        "midi": 80,
        "time": 47.571,
        "duration": 0.054,
        "velocity": 0.71,
        "hand": "right"
      },
      {
        "midi": 56,
        "time": 47.786,
        "duration": 0.214,
        "velocity": 0.71,
        "hand": "left"
      },
      {
        "midi": 65,
        "time": 47.786,
        "duration": 0.214,
        "velocity": 0.71,
        "hand": "right"
      },
      {
        "midi": 73,
        "time": 47.786,
        "duration": 0.214,
        "velocity": 0.71,
        "hand": "right"
      },
      {
        "midi": 56,
        "time": 48,
        "duration": 0.214,
        "velocity": 0.71,
        "hand": "left"
      },
      {
        "midi": 65,
        "time": 48,
        "duration": 0.214,
        "velocity": 0.71,
        "hand": "right"
      },
      {
        "midi": 72,
        "time": 48,
        "duration": 0.214,
        "velocity": 0.71,
        "hand": "right"
      },
      {
        "midi": 53,
        "time": 48.214,
        "duration": 0.214,
        "velocity": 0.71,
        "hand": "left"
      },
      {
        "midi": 75,
        "time": 48.214,
        "duration": 0.214,
        "velocity": 0.71,
        "hand": "right"
      },
      {
        "midi": 80,
        "time": 48.214,
        "duration": 0.054,
        "velocity": 0.71,
        "hand": "right"
      },
      {
        "midi": 56,
        "time": 48.429,
        "duration": 0.214,
        "velocity": 0.71,
        "hand": "left"
      },
      {
        "midi": 65,
        "time": 48.429,
        "duration": 0.214,
        "velocity": 0.71,
        "hand": "right"
      },
      {
        "midi": 73,
        "time": 48.429,
        "duration": 0.321,
        "velocity": 0.71,
        "hand": "right"
      },
      {
        "midi": 56,
        "time": 48.643,
        "duration": 0.214,
        "velocity": 0.71,
        "hand": "left"
      },
      {
        "midi": 61,
        "time": 48.643,
        "duration": 0.214,
        "velocity": 0.71,
        "hand": "right"
      },
      {
        "midi": 65,
        "time": 48.643,
        "duration": 0.214,
        "velocity": 0.71,
        "hand": "right"
      },
      {
        "midi": 70,
        "time": 48.75,
        "duration": 0.107,
        "velocity": 0.71,
        "hand": "right"
      },
      {
        "midi": 48,
        "time": 48.857,
        "duration": 0.643,
        "velocity": 0.71,
        "hand": "left"
      },
      {
        "midi": 68,
        "time": 48.857,
        "duration": 0.429,
        "velocity": 0.71,
        "hand": "right"
      },
      {
        "midi": 80,
        "time": 48.857,
        "duration": 0.054,
        "velocity": 0.71,
        "hand": "right"
      },
      {
        "midi": 54,
        "time": 49.071,
        "duration": 0.214,
        "velocity": 0.71,
        "hand": "left"
      },
      {
        "midi": 56,
        "time": 49.071,
        "duration": 0.214,
        "velocity": 0.71,
        "hand": "left"
      },
      {
        "midi": 54,
        "time": 49.286,
        "duration": 0.214,
        "velocity": 0.71,
        "hand": "left"
      },
      {
        "midi": 56,
        "time": 49.286,
        "duration": 0.214,
        "velocity": 0.71,
        "hand": "left"
      },
      {
        "midi": 63,
        "time": 49.286,
        "duration": 0.214,
        "velocity": 0.71,
        "hand": "right"
      },
      {
        "midi": 44,
        "time": 49.5,
        "duration": 0.214,
        "velocity": 0.71,
        "hand": "left"
      },
      {
        "midi": 68,
        "time": 49.5,
        "duration": 0.429,
        "velocity": 0.71,
        "hand": "right"
      },
      {
        "midi": 80,
        "time": 49.5,
        "duration": 0.054,
        "velocity": 0.71,
        "hand": "right"
      },
      {
        "midi": 54,
        "time": 49.714,
        "duration": 0.214,
        "velocity": 0.71,
        "hand": "left"
      },
      {
        "midi": 56,
        "time": 49.714,
        "duration": 0.214,
        "velocity": 0.71,
        "hand": "left"
      },
      {
        "midi": 60,
        "time": 49.714,
        "duration": 0.214,
        "velocity": 0.71,
        "hand": "right"
      },
      {
        "midi": 54,
        "time": 49.929,
        "duration": 0.214,
        "velocity": 0.71,
        "hand": "left"
      },
      {
        "midi": 60,
        "time": 49.929,
        "duration": 0.214,
        "velocity": 0.71,
        "hand": "right"
      },
      {
        "midi": 64,
        "time": 49.929,
        "duration": 0.214,
        "velocity": 0.71,
        "hand": "right"
      },
      {
        "midi": 47,
        "time": 50.143,
        "duration": 0.214,
        "velocity": 0.71,
        "hand": "left"
      },
      {
        "midi": 68,
        "time": 50.143,
        "duration": 0.429,
        "velocity": 0.71,
        "hand": "right"
      },
      {
        "midi": 80,
        "time": 50.143,
        "duration": 0.054,
        "velocity": 0.71,
        "hand": "right"
      },
      {
        "midi": 53,
        "time": 50.357,
        "duration": 0.214,
        "velocity": 0.71,
        "hand": "left"
      },
      {
        "midi": 56,
        "time": 50.357,
        "duration": 0.214,
        "velocity": 0.71,
        "hand": "left"
      },
      {
        "midi": 63,
        "time": 50.357,
        "duration": 0.214,
        "velocity": 0.71,
        "hand": "right"
      },
      {
        "midi": 53,
        "time": 50.571,
        "duration": 0.214,
        "velocity": 0.71,
        "hand": "left"
      },
      {
        "midi": 63,
        "time": 50.571,
        "duration": 0.214,
        "velocity": 0.71,
        "hand": "right"
      },
      {
        "midi": 65,
        "time": 50.571,
        "duration": 0.214,
        "velocity": 0.71,
        "hand": "right"
      },
      {
        "midi": 46,
        "time": 50.786,
        "duration": 0.214,
        "velocity": 0.71,
        "hand": "left"
      },
      {
        "midi": 77,
        "time": 50.786,
        "duration": 0.643,
        "velocity": 0.71,
        "hand": "right"
      },
      {
        "midi": 53,
        "time": 51,
        "duration": 0.214,
        "velocity": 0.71,
        "hand": "left"
      },
      {
        "midi": 56,
        "time": 51,
        "duration": 0.214,
        "velocity": 0.71,
        "hand": "left"
      },
      {
        "midi": 62,
        "time": 51,
        "duration": 0.214,
        "velocity": 0.71,
        "hand": "right"
      },
      {
        "midi": 53,
        "time": 51.214,
        "duration": 0.214,
        "velocity": 0.71,
        "hand": "left"
      },
      {
        "midi": 56,
        "time": 51.214,
        "duration": 0.214,
        "velocity": 0.71,
        "hand": "left"
      },
      {
        "midi": 62,
        "time": 51.214,
        "duration": 0.214,
        "velocity": 0.71,
        "hand": "right"
      },
      {
        "midi": 51,
        "time": 51.429,
        "duration": 0.214,
        "velocity": 0.71,
        "hand": "left"
      },
      {
        "midi": 77,
        "time": 51.429,
        "duration": 0.429,
        "velocity": 0.71,
        "hand": "right"
      },
      {
        "midi": 61,
        "time": 51.643,
        "duration": 0.214,
        "velocity": 0.71,
        "hand": "right"
      },
      {
        "midi": 67,
        "time": 51.643,
        "duration": 0.214,
        "velocity": 0.71,
        "hand": "right"
      },
      {
        "midi": 61,
        "time": 51.857,
        "duration": 0.214,
        "velocity": 0.71,
        "hand": "right"
      },
      {
        "midi": 67,
        "time": 51.857,
        "duration": 0.214,
        "velocity": 0.71,
        "hand": "right"
      },
      {
        "midi": 70,
        "time": 51.857,
        "duration": 0.214,
        "velocity": 0.71,
        "hand": "right"
      },
      {
        "midi": 75,
        "time": 52.071,
        "duration": 0.429,
        "velocity": 0.71,
        "hand": "right"
      },
      {
        "midi": 61,
        "time": 52.286,
        "duration": 0.214,
        "velocity": 0.71,
        "hand": "right"
      },
      {
        "midi": 66,
        "time": 52.286,
        "duration": 0.214,
        "velocity": 0.71,
        "hand": "right"
      },
      {
        "midi": 61,
        "time": 52.5,
        "duration": 0.214,
        "velocity": 0.71,
        "hand": "right"
      },
      {
        "midi": 66,
        "time": 52.5,
        "duration": 0.214,
        "velocity": 0.71,
        "hand": "right"
      },
      {
        "midi": 69,
        "time": 52.5,
        "duration": 0.214,
        "velocity": 0.71,
        "hand": "right"
      },
      {
        "midi": 56,
        "time": 52.714,
        "duration": 0.429,
        "velocity": 0.71,
        "hand": "left"
      },
      {
        "midi": 75,
        "time": 52.714,
        "duration": 0.214,
        "velocity": 0.71,
        "hand": "right"
      },
      {
        "midi": 60,
        "time": 52.929,
        "duration": 0.214,
        "velocity": 0.71,
        "hand": "right"
      },
      {
        "midi": 66,
        "time": 52.929,
        "duration": 0.214,
        "velocity": 0.71,
        "hand": "right"
      },
      {
        "midi": 68,
        "time": 52.929,
        "duration": 0.214,
        "velocity": 0.71,
        "hand": "right"
      },
      {
        "midi": 74,
        "time": 53.143,
        "duration": 0.214,
        "velocity": 0.71,
        "hand": "right"
      },
      {
        "midi": 77,
        "time": 53.357,
        "duration": 0.214,
        "velocity": 0.71,
        "hand": "right"
      },
      {
        "midi": 75,
        "time": 53.571,
        "duration": 0.214,
        "velocity": 0.71,
        "hand": "right"
      },
      {
        "midi": 80,
        "time": 53.786,
        "duration": 0.214,
        "velocity": 0.71,
        "hand": "right"
      },
      {
        "midi": 68,
        "time": 54,
        "duration": 2.571,
        "velocity": 0.71,
        "hand": "right"
      },
      {
        "midi": 67,
        "time": 56.571,
        "duration": 0.107,
        "velocity": 0.71,
        "hand": "right"
      },
      {
        "midi": 68,
        "time": 56.679,
        "duration": 0.107,
        "velocity": 0.71,
        "hand": "right"
      },
      {
        "midi": 72,
        "time": 56.786,
        "duration": 0.107,
        "velocity": 0.71,
        "hand": "right"
      },
      {
        "midi": 70,
        "time": 56.893,
        "duration": 0.107,
        "velocity": 0.71,
        "hand": "right"
      },
      {
        "midi": 67,
        "time": 57,
        "duration": 0.107,
        "velocity": 0.71,
        "hand": "right"
      },
      {
        "midi": 68,
        "time": 57.107,
        "duration": 0.107,
        "velocity": 0.71,
        "hand": "right"
      },
      {
        "midi": 72,
        "time": 57.214,
        "duration": 0.107,
        "velocity": 0.71,
        "hand": "right"
      },
      {
        "midi": 70,
        "time": 57.321,
        "duration": 0.107,
        "velocity": 0.71,
        "hand": "right"
      },
      {
        "midi": 67,
        "time": 57.429,
        "duration": 0.107,
        "velocity": 0.71,
        "hand": "right"
      },
      {
        "midi": 68,
        "time": 57.536,
        "duration": 0.107,
        "velocity": 0.71,
        "hand": "right"
      },
      {
        "midi": 72,
        "time": 57.643,
        "duration": 0.107,
        "velocity": 0.71,
        "hand": "right"
      },
      {
        "midi": 70,
        "time": 57.75,
        "duration": 0.107,
        "velocity": 0.71,
        "hand": "right"
      },
      {
        "midi": 67,
        "time": 57.857,
        "duration": 0.107,
        "velocity": 0.71,
        "hand": "right"
      },
      {
        "midi": 68,
        "time": 57.964,
        "duration": 0.107,
        "velocity": 0.71,
        "hand": "right"
      },
      {
        "midi": 72,
        "time": 58.071,
        "duration": 0.107,
        "velocity": 0.71,
        "hand": "right"
      },
      {
        "midi": 70,
        "time": 58.179,
        "duration": 0.107,
        "velocity": 0.71,
        "hand": "right"
      },
      {
        "midi": 67,
        "time": 58.286,
        "duration": 0.107,
        "velocity": 0.71,
        "hand": "right"
      },
      {
        "midi": 68,
        "time": 58.393,
        "duration": 0.107,
        "velocity": 0.71,
        "hand": "right"
      },
      {
        "midi": 72,
        "time": 58.5,
        "duration": 0.107,
        "velocity": 0.71,
        "hand": "right"
      },
      {
        "midi": 70,
        "time": 58.607,
        "duration": 0.107,
        "velocity": 0.71,
        "hand": "right"
      },
      {
        "midi": 67,
        "time": 58.714,
        "duration": 0.107,
        "velocity": 0.71,
        "hand": "right"
      },
      {
        "midi": 68,
        "time": 58.821,
        "duration": 0.107,
        "velocity": 0.71,
        "hand": "right"
      },
      {
        "midi": 72,
        "time": 58.929,
        "duration": 0.107,
        "velocity": 0.71,
        "hand": "right"
      },
      {
        "midi": 70,
        "time": 59.036,
        "duration": 0.107,
        "velocity": 0.71,
        "hand": "right"
      },
      {
        "midi": 37,
        "time": 59.143,
        "duration": 0.214,
        "velocity": 0.71,
        "hand": "left"
      },
      {
        "midi": 67,
        "time": 59.143,
        "duration": 0.107,
        "velocity": 0.71,
        "hand": "right"
      },
      {
        "midi": 68,
        "time": 59.25,
        "duration": 0.107,
        "velocity": 0.71,
        "hand": "right"
      },
      {
        "midi": 56,
        "time": 59.357,
        "duration": 0.214,
        "velocity": 0.71,
        "hand": "left"
      },
      {
        "midi": 65,
        "time": 59.357,
        "duration": 0.214,
        "velocity": 0.71,
        "hand": "right"
      },
      {
        "midi": 72,
        "time": 59.357,
        "duration": 0.107,
        "velocity": 0.71,
        "hand": "right"
      },
      {
        "midi": 70,
        "time": 59.464,
        "duration": 0.107,
        "velocity": 0.71,
        "hand": "right"
      },
      {
        "midi": 56,
        "time": 59.571,
        "duration": 0.214,
        "velocity": 0.71,
        "hand": "left"
      },
      {
        "midi": 65,
        "time": 59.571,
        "duration": 0.214,
        "velocity": 0.71,
        "hand": "right"
      },
      {
        "midi": 67,
        "time": 59.571,
        "duration": 0.107,
        "velocity": 0.71,
        "hand": "right"
      },
      {
        "midi": 68,
        "time": 59.679,
        "duration": 0.107,
        "velocity": 0.71,
        "hand": "right"
      },
      {
        "midi": 53,
        "time": 59.786,
        "duration": 0.214,
        "velocity": 0.71,
        "hand": "left"
      },
      {
        "midi": 72,
        "time": 59.786,
        "duration": 0.107,
        "velocity": 0.71,
        "hand": "right"
      },
      {
        "midi": 70,
        "time": 59.893,
        "duration": 0.107,
        "velocity": 0.71,
        "hand": "right"
      },
      {
        "midi": 56,
        "time": 60,
        "duration": 0.214,
        "velocity": 0.71,
        "hand": "left"
      },
      {
        "midi": 65,
        "time": 60,
        "duration": 0.214,
        "velocity": 0.71,
        "hand": "right"
      },
      {
        "midi": 67,
        "time": 60,
        "duration": 0.107,
        "velocity": 0.71,
        "hand": "right"
      },
      {
        "midi": 68,
        "time": 60.107,
        "duration": 0.107,
        "velocity": 0.71,
        "hand": "right"
      },
      {
        "midi": 56,
        "time": 60.214,
        "duration": 0.214,
        "velocity": 0.71,
        "hand": "left"
      },
      {
        "midi": 65,
        "time": 60.214,
        "duration": 0.214,
        "velocity": 0.71,
        "hand": "right"
      },
      {
        "midi": 72,
        "time": 60.214,
        "duration": 0.107,
        "velocity": 0.71,
        "hand": "right"
      },
      {
        "midi": 70,
        "time": 60.321,
        "duration": 0.107,
        "velocity": 0.71,
        "hand": "right"
      },
      {
        "midi": 49,
        "time": 60.429,
        "duration": 0.214,
        "velocity": 0.71,
        "hand": "left"
      },
      {
        "midi": 67,
        "time": 60.429,
        "duration": 0.107,
        "velocity": 0.71,
        "hand": "right"
      },
      {
        "midi": 68,
        "time": 60.536,
        "duration": 0.107,
        "velocity": 0.71,
        "hand": "right"
      },
      {
        "midi": 56,
        "time": 60.643,
        "duration": 0.214,
        "velocity": 0.71,
        "hand": "left"
      },
      {
        "midi": 65,
        "time": 60.643,
        "duration": 0.214,
        "velocity": 0.71,
        "hand": "right"
      },
      {
        "midi": 72,
        "time": 60.643,
        "duration": 0.107,
        "velocity": 0.71,
        "hand": "right"
      },
      {
        "midi": 70,
        "time": 60.75,
        "duration": 0.107,
        "velocity": 0.71,
        "hand": "right"
      },
      {
        "midi": 56,
        "time": 60.857,
        "duration": 0.214,
        "velocity": 0.71,
        "hand": "left"
      },
      {
        "midi": 65,
        "time": 60.857,
        "duration": 0.214,
        "velocity": 0.71,
        "hand": "right"
      },
      {
        "midi": 67,
        "time": 60.857,
        "duration": 0.107,
        "velocity": 0.71,
        "hand": "right"
      },
      {
        "midi": 68,
        "time": 60.964,
        "duration": 0.107,
        "velocity": 0.71,
        "hand": "right"
      },
      {
        "midi": 53,
        "time": 61.071,
        "duration": 0.214,
        "velocity": 0.71,
        "hand": "left"
      },
      {
        "midi": 70,
        "time": 61.071,
        "duration": 0.107,
        "velocity": 0.71,
        "hand": "right"
      },
      {
        "midi": 72,
        "time": 61.179,
        "duration": 0.107,
        "velocity": 0.71,
        "hand": "right"
      },
      {
        "midi": 56,
        "time": 61.286,
        "duration": 0.214,
        "velocity": 0.71,
        "hand": "left"
      },
      {
        "midi": 65,
        "time": 61.286,
        "duration": 0.214,
        "velocity": 0.71,
        "hand": "right"
      },
      {
        "midi": 73,
        "time": 61.286,
        "duration": 0.107,
        "velocity": 0.71,
        "hand": "right"
      },
      {
        "midi": 75,
        "time": 61.393,
        "duration": 0.107,
        "velocity": 0.71,
        "hand": "right"
      },
      {
        "midi": 56,
        "time": 61.5,
        "duration": 0.214,
        "velocity": 0.71,
        "hand": "left"
      },
      {
        "midi": 65,
        "time": 61.5,
        "duration": 0.214,
        "velocity": 0.71,
        "hand": "right"
      },
      {
        "midi": 77,
        "time": 61.5,
        "duration": 0.107,
        "velocity": 0.71,
        "hand": "right"
      },
      {
        "midi": 78,
        "time": 61.607,
        "duration": 0.107,
        "velocity": 0.71,
        "hand": "right"
      },
      {
        "midi": 44,
        "time": 61.714,
        "duration": 0.214,
        "velocity": 0.71,
        "hand": "left"
      },
      {
        "midi": 82,
        "time": 61.714,
        "duration": 0.321,
        "velocity": 0.71,
        "hand": "right"
      },
      {
        "midi": 56,
        "time": 61.929,
        "duration": 0.214,
        "velocity": 0.71,
        "hand": "left"
      },
      {
        "midi": 60,
        "time": 61.929,
        "duration": 0.214,
        "velocity": 0.71,
        "hand": "right"
      },
      {
        "midi": 66,
        "time": 61.929,
        "duration": 0.214,
        "velocity": 0.71,
        "hand": "right"
      },
      {
        "midi": 80,
        "time": 62.036,
        "duration": 0.107,
        "velocity": 0.71,
        "hand": "right"
      },
      {
        "midi": 56,
        "time": 62.143,
        "duration": 0.214,
        "velocity": 0.71,
        "hand": "left"
      },
      {
        "midi": 66,
        "time": 62.143,
        "duration": 0.214,
        "velocity": 0.71,
        "hand": "right"
      },
      {
        "midi": 78,
        "time": 62.143,
        "duration": 0.107,
        "velocity": 0.71,
        "hand": "right"
      },
      {
        "midi": 77,
        "time": 62.25,
        "duration": 0.107,
        "velocity": 0.71,
        "hand": "right"
      },
      {
        "midi": 51,
        "time": 62.357,
        "duration": 0.214,
        "velocity": 0.71,
        "hand": "left"
      },
      {
        "midi": 77,
        "time": 62.357,
        "duration": 0.107,
        "velocity": 0.71,
        "hand": "right"
      },
      {
        "midi": 75,
        "time": 62.464,
        "duration": 0.107,
        "velocity": 0.71,
        "hand": "right"
      },
      {
        "midi": 56,
        "time": 62.571,
        "duration": 0.214,
        "velocity": 0.71,
        "hand": "left"
      },
      {
        "midi": 66,
        "time": 62.571,
        "duration": 0.214,
        "velocity": 0.71,
        "hand": "right"
      },
      {
        "midi": 75,
        "time": 62.571,
        "duration": 0.107,
        "velocity": 0.71,
        "hand": "right"
      },
      {
        "midi": 74,
        "time": 62.679,
        "duration": 0.107,
        "velocity": 0.71,
        "hand": "right"
      },
      {
        "midi": 56,
        "time": 62.786,
        "duration": 0.214,
        "velocity": 0.71,
        "hand": "left"
      },
      {
        "midi": 66,
        "time": 62.786,
        "duration": 0.214,
        "velocity": 0.71,
        "hand": "right"
      },
      {
        "midi": 75,
        "time": 62.786,
        "duration": 0.214,
        "velocity": 0.71,
        "hand": "right"
      },
      {
        "midi": 44,
        "time": 63,
        "duration": 0.214,
        "velocity": 0.71,
        "hand": "left"
      },
      {
        "midi": 82,
        "time": 63,
        "duration": 0.321,
        "velocity": 0.71,
        "hand": "right"
      },
      {
        "midi": 60,
        "time": 63.214,
        "duration": 0.214,
        "velocity": 0.71,
        "hand": "right"
      },
      {
        "midi": 66,
        "time": 63.214,
        "duration": 0.214,
        "velocity": 0.71,
        "hand": "right"
      },
      {
        "midi": 80,
        "time": 63.321,
        "duration": 0.107,
        "velocity": 0.71,
        "hand": "right"
      },
      {
        "midi": 60,
        "time": 63.429,
        "duration": 0.214,
        "velocity": 0.71,
        "hand": "right"
      },
      {
        "midi": 66,
        "time": 63.429,
        "duration": 0.214,
        "velocity": 0.71,
        "hand": "right"
      },
      {
        "midi": 78,
        "time": 63.429,
        "duration": 0.107,
        "velocity": 0.71,
        "hand": "right"
      },
      {
        "midi": 77,
        "time": 63.536,
        "duration": 0.107,
        "velocity": 0.71,
        "hand": "right"
      },
      {
        "midi": 56,
        "time": 63.643,
        "duration": 0.214,
        "velocity": 0.71,
        "hand": "left"
      },
      {
        "midi": 77,
        "time": 63.643,
        "duration": 0.107,
        "velocity": 0.71,
        "hand": "right"
      },
      {
        "midi": 75,
        "time": 63.75,
        "duration": 0.107,
        "velocity": 0.71,
        "hand": "right"
      },
      {
        "midi": 60,
        "time": 63.857,
        "duration": 0.214,
        "velocity": 0.71,
        "hand": "right"
      },
      {
        "midi": 66,
        "time": 63.857,
        "duration": 0.214,
        "velocity": 0.71,
        "hand": "right"
      },
      {
        "midi": 74,
        "time": 63.857,
        "duration": 0.107,
        "velocity": 0.71,
        "hand": "right"
      },
      {
        "midi": 75,
        "time": 63.964,
        "duration": 0.107,
        "velocity": 0.71,
        "hand": "right"
      },
      {
        "midi": 60,
        "time": 64.071,
        "duration": 0.214,
        "velocity": 0.71,
        "hand": "right"
      },
      {
        "midi": 66,
        "time": 64.071,
        "duration": 0.214,
        "velocity": 0.71,
        "hand": "right"
      },
      {
        "midi": 77,
        "time": 64.071,
        "duration": 0.107,
        "velocity": 0.71,
        "hand": "right"
      },
      {
        "midi": 71,
        "time": 64.179,
        "duration": 0.107,
        "velocity": 0.71,
        "hand": "right"
      },
      {
        "midi": 49,
        "time": 64.286,
        "duration": 0.214,
        "velocity": 0.71,
        "hand": "left"
      },
      {
        "midi": 67,
        "time": 64.286,
        "duration": 0.107,
        "velocity": 0.71,
        "hand": "right"
      },
      {
        "midi": 68,
        "time": 64.393,
        "duration": 0.107,
        "velocity": 0.71,
        "hand": "right"
      },
      {
        "midi": 56,
        "time": 64.5,
        "duration": 0.214,
        "velocity": 0.71,
        "hand": "left"
      },
      {
        "midi": 65,
        "time": 64.5,
        "duration": 0.214,
        "velocity": 0.71,
        "hand": "right"
      },
      {
        "midi": 72,
        "time": 64.5,
        "duration": 0.107,
        "velocity": 0.71,
        "hand": "right"
      },
      {
        "midi": 70,
        "time": 64.607,
        "duration": 0.107,
        "velocity": 0.71,
        "hand": "right"
      },
      {
        "midi": 56,
        "time": 64.714,
        "duration": 0.214,
        "velocity": 0.71,
        "hand": "left"
      },
      {
        "midi": 65,
        "time": 64.714,
        "duration": 0.214,
        "velocity": 0.71,
        "hand": "right"
      },
      {
        "midi": 67,
        "time": 64.714,
        "duration": 0.107,
        "velocity": 0.71,
        "hand": "right"
      },
      {
        "midi": 68,
        "time": 64.821,
        "duration": 0.107,
        "velocity": 0.71,
        "hand": "right"
      },
      {
        "midi": 53,
        "time": 64.929,
        "duration": 0.214,
        "velocity": 0.71,
        "hand": "left"
      },
      {
        "midi": 72,
        "time": 64.929,
        "duration": 0.107,
        "velocity": 0.71,
        "hand": "right"
      },
      {
        "midi": 70,
        "time": 65.036,
        "duration": 0.107,
        "velocity": 0.71,
        "hand": "right"
      },
      {
        "midi": 56,
        "time": 65.143,
        "duration": 0.214,
        "velocity": 0.71,
        "hand": "left"
      },
      {
        "midi": 65,
        "time": 65.143,
        "duration": 0.214,
        "velocity": 0.71,
        "hand": "right"
      },
      {
        "midi": 67,
        "time": 65.143,
        "duration": 0.107,
        "velocity": 0.71,
        "hand": "right"
      },
      {
        "midi": 68,
        "time": 65.25,
        "duration": 0.107,
        "velocity": 0.71,
        "hand": "right"
      },
      {
        "midi": 56,
        "time": 65.357,
        "duration": 0.214,
        "velocity": 0.71,
        "hand": "left"
      },
      {
        "midi": 65,
        "time": 65.357,
        "duration": 0.214,
        "velocity": 0.71,
        "hand": "right"
      },
      {
        "midi": 72,
        "time": 65.357,
        "duration": 0.107,
        "velocity": 0.71,
        "hand": "right"
      },
      {
        "midi": 70,
        "time": 65.464,
        "duration": 0.107,
        "velocity": 0.71,
        "hand": "right"
      },
      {
        "midi": 49,
        "time": 65.571,
        "duration": 0.214,
        "velocity": 0.71,
        "hand": "left"
      },
      {
        "midi": 67,
        "time": 65.571,
        "duration": 0.107,
        "velocity": 0.71,
        "hand": "right"
      },
      {
        "midi": 68,
        "time": 65.679,
        "duration": 0.107,
        "velocity": 0.71,
        "hand": "right"
      },
      {
        "midi": 56,
        "time": 65.786,
        "duration": 0.214,
        "velocity": 0.71,
        "hand": "left"
      },
      {
        "midi": 65,
        "time": 65.786,
        "duration": 0.214,
        "velocity": 0.71,
        "hand": "right"
      },
      {
        "midi": 72,
        "time": 65.786,
        "duration": 0.107,
        "velocity": 0.71,
        "hand": "right"
      },
      {
        "midi": 70,
        "time": 65.893,
        "duration": 0.107,
        "velocity": 0.71,
        "hand": "right"
      },
      {
        "midi": 56,
        "time": 66,
        "duration": 0.214,
        "velocity": 0.71,
        "hand": "left"
      },
      {
        "midi": 65,
        "time": 66,
        "duration": 0.214,
        "velocity": 0.71,
        "hand": "right"
      },
      {
        "midi": 67,
        "time": 66,
        "duration": 0.107,
        "velocity": 0.71,
        "hand": "right"
      },
      {
        "midi": 68,
        "time": 66.107,
        "duration": 0.107,
        "velocity": 0.71,
        "hand": "right"
      },
      {
        "midi": 53,
        "time": 66.214,
        "duration": 0.214,
        "velocity": 0.71,
        "hand": "left"
      },
      {
        "midi": 70,
        "time": 66.214,
        "duration": 0.107,
        "velocity": 0.71,
        "hand": "right"
      },
      {
        "midi": 72,
        "time": 66.321,
        "duration": 0.107,
        "velocity": 0.71,
        "hand": "right"
      },
      {
        "midi": 56,
        "time": 66.429,
        "duration": 0.214,
        "velocity": 0.71,
        "hand": "left"
      },
      {
        "midi": 65,
        "time": 66.429,
        "duration": 0.214,
        "velocity": 0.71,
        "hand": "right"
      },
      {
        "midi": 73,
        "time": 66.429,
        "duration": 0.107,
        "velocity": 0.71,
        "hand": "right"
      },
      {
        "midi": 75,
        "time": 66.536,
        "duration": 0.107,
        "velocity": 0.71,
        "hand": "right"
      },
      {
        "midi": 56,
        "time": 66.643,
        "duration": 0.214,
        "velocity": 0.71,
        "hand": "left"
      },
      {
        "midi": 65,
        "time": 66.643,
        "duration": 0.214,
        "velocity": 0.71,
        "hand": "right"
      },
      {
        "midi": 77,
        "time": 66.643,
        "duration": 0.107,
        "velocity": 0.71,
        "hand": "right"
      },
      {
        "midi": 78,
        "time": 66.75,
        "duration": 0.107,
        "velocity": 0.71,
        "hand": "right"
      },
      {
        "midi": 44,
        "time": 66.857,
        "duration": 0.214,
        "velocity": 0.71,
        "hand": "left"
      },
      {
        "midi": 82,
        "time": 66.857,
        "duration": 0.321,
        "velocity": 0.71,
        "hand": "right"
      },
      {
        "midi": 56,
        "time": 67.071,
        "duration": 0.214,
        "velocity": 0.71,
        "hand": "left"
      },
      {
        "midi": 60,
        "time": 67.071,
        "duration": 0.214,
        "velocity": 0.71,
        "hand": "right"
      },
      {
        "midi": 66,
        "time": 67.071,
        "duration": 0.214,
        "velocity": 0.71,
        "hand": "right"
      },
      {
        "midi": 80,
        "time": 67.179,
        "duration": 0.107,
        "velocity": 0.71,
        "hand": "right"
      },
      {
        "midi": 56,
        "time": 67.286,
        "duration": 0.214,
        "velocity": 0.71,
        "hand": "left"
      },
      {
        "midi": 66,
        "time": 67.286,
        "duration": 0.214,
        "velocity": 0.71,
        "hand": "right"
      },
      {
        "midi": 78,
        "time": 67.286,
        "duration": 0.107,
        "velocity": 0.71,
        "hand": "right"
      },
      {
        "midi": 77,
        "time": 67.393,
        "duration": 0.107,
        "velocity": 0.71,
        "hand": "right"
      },
      {
        "midi": 51,
        "time": 67.5,
        "duration": 0.214,
        "velocity": 0.71,
        "hand": "left"
      },
      {
        "midi": 77,
        "time": 67.5,
        "duration": 0.107,
        "velocity": 0.71,
        "hand": "right"
      },
      {
        "midi": 75,
        "time": 67.607,
        "duration": 0.107,
        "velocity": 0.71,
        "hand": "right"
      },
      {
        "midi": 56,
        "time": 67.714,
        "duration": 0.214,
        "velocity": 0.71,
        "hand": "left"
      },
      {
        "midi": 66,
        "time": 67.714,
        "duration": 0.214,
        "velocity": 0.71,
        "hand": "right"
      },
      {
        "midi": 75,
        "time": 67.714,
        "duration": 0.107,
        "velocity": 0.71,
        "hand": "right"
      },
      {
        "midi": 74,
        "time": 67.821,
        "duration": 0.107,
        "velocity": 0.71,
        "hand": "right"
      },
      {
        "midi": 56,
        "time": 67.929,
        "duration": 0.214,
        "velocity": 0.71,
        "hand": "left"
      },
      {
        "midi": 66,
        "time": 67.929,
        "duration": 0.214,
        "velocity": 0.71,
        "hand": "right"
      },
      {
        "midi": 75,
        "time": 67.929,
        "duration": 0.214,
        "velocity": 0.71,
        "hand": "right"
      },
      {
        "midi": 44,
        "time": 68.143,
        "duration": 0.214,
        "velocity": 0.71,
        "hand": "left"
      },
      {
        "midi": 82,
        "time": 68.143,
        "duration": 0.321,
        "velocity": 0.71,
        "hand": "right"
      },
      {
        "midi": 56,
        "time": 68.357,
        "duration": 0.214,
        "velocity": 0.71,
        "hand": "left"
      },
      {
        "midi": 60,
        "time": 68.357,
        "duration": 0.214,
        "velocity": 0.71,
        "hand": "right"
      },
      {
        "midi": 66,
        "time": 68.357,
        "duration": 0.214,
        "velocity": 0.71,
        "hand": "right"
      },
      {
        "midi": 80,
        "time": 68.464,
        "duration": 0.107,
        "velocity": 0.71,
        "hand": "right"
      },
      {
        "midi": 56,
        "time": 68.571,
        "duration": 0.214,
        "velocity": 0.71,
        "hand": "left"
      },
      {
        "midi": 66,
        "time": 68.571,
        "duration": 0.214,
        "velocity": 0.71,
        "hand": "right"
      },
      {
        "midi": 78,
        "time": 68.571,
        "duration": 0.107,
        "velocity": 0.71,
        "hand": "right"
      },
      {
        "midi": 77,
        "time": 68.679,
        "duration": 0.107,
        "velocity": 0.71,
        "hand": "right"
      },
      {
        "midi": 56,
        "time": 68.786,
        "duration": 0.214,
        "velocity": 0.71,
        "hand": "left"
      },
      {
        "midi": 75,
        "time": 68.786,
        "duration": 0.107,
        "velocity": 0.71,
        "hand": "right"
      },
      {
        "midi": 77,
        "time": 68.893,
        "duration": 0.107,
        "velocity": 0.71,
        "hand": "right"
      },
      {
        "midi": 60,
        "time": 69,
        "duration": 0.214,
        "velocity": 0.71,
        "hand": "right"
      },
      {
        "midi": 66,
        "time": 69,
        "duration": 0.214,
        "velocity": 0.71,
        "hand": "right"
      },
      {
        "midi": 75,
        "time": 69,
        "duration": 0.107,
        "velocity": 0.71,
        "hand": "right"
      },
      {
        "midi": 74,
        "time": 69.107,
        "duration": 0.107,
        "velocity": 0.71,
        "hand": "right"
      },
      {
        "midi": 44,
        "time": 69.214,
        "duration": 0.214,
        "velocity": 0.71,
        "hand": "left"
      },
      {
        "midi": 75,
        "time": 69.214,
        "duration": 0.107,
        "velocity": 0.71,
        "hand": "right"
      },
      {
        "midi": 76,
        "time": 69.321,
        "duration": 0.107,
        "velocity": 0.71,
        "hand": "right"
      },
      {
        "midi": 45,
        "time": 69.429,
        "duration": 0.214,
        "velocity": 0.71,
        "hand": "left"
      },
      {
        "midi": 77,
        "time": 69.429,
        "duration": 0.054,
        "velocity": 0.71,
        "hand": "right"
      },
      {
        "midi": 78,
        "time": 69.482,
        "duration": 0.054,
        "velocity": 0.71,
        "hand": "right"
      },
      {
        "midi": 53,
        "time": 69.643,
        "duration": 0.214,
        "velocity": 0.71,
        "hand": "left"
      },
      {
        "midi": 63,
        "time": 69.643,
        "duration": 0.214,
        "velocity": 0.71,
        "hand": "right"
      },
      {
        "midi": 77,
        "time": 69.589,
        "duration": 0.054,
        "velocity": 0.71,
        "hand": "right"
      },
      {
        "midi": 77,
        "time": 69.75,
        "duration": 0.107,
        "velocity": 0.71,
        "hand": "right"
      },
      {
        "midi": 53,
        "time": 69.857,
        "duration": 0.214,
        "velocity": 0.71,
        "hand": "left"
      },
      {
        "midi": 63,
        "time": 69.857,
        "duration": 0.214,
        "velocity": 0.71,
        "hand": "right"
      },
      {
        "midi": 80,
        "time": 69.857,
        "duration": 0.107,
        "velocity": 0.71,
        "hand": "right"
      },
      {
        "midi": 78,
        "time": 69.964,
        "duration": 0.107,
        "velocity": 0.71,
        "hand": "right"
      },
      {
        "midi": 46,
        "time": 70.071,
        "duration": 0.214,
        "velocity": 0.71,
        "hand": "left"
      },
      {
        "midi": 77,
        "time": 70.071,
        "duration": 0.107,
        "velocity": 0.71,
        "hand": "right"
      },
      {
        "midi": 78,
        "time": 70.179,
        "duration": 0.107,
        "velocity": 0.71,
        "hand": "right"
      },
      {
        "midi": 53,
        "time": 70.286,
        "duration": 0.214,
        "velocity": 0.71,
        "hand": "left"
      },
      {
        "midi": 61,
        "time": 70.286,
        "duration": 0.214,
        "velocity": 0.71,
        "hand": "right"
      },
      {
        "midi": 77,
        "time": 70.286,
        "duration": 0.107,
        "velocity": 0.71,
        "hand": "right"
      },
      {
        "midi": 76,
        "time": 70.393,
        "duration": 0.107,
        "velocity": 0.71,
        "hand": "right"
      },
      {
        "midi": 53,
        "time": 70.5,
        "duration": 0.214,
        "velocity": 0.71,
        "hand": "left"
      },
      {
        "midi": 61,
        "time": 70.5,
        "duration": 0.214,
        "velocity": 0.71,
        "hand": "right"
      },
      {
        "midi": 77,
        "time": 70.5,
        "duration": 0.107,
        "velocity": 0.71,
        "hand": "right"
      },
      {
        "midi": 82,
        "time": 70.607,
        "duration": 0.107,
        "velocity": 0.71,
        "hand": "right"
      },
      {
        "midi": 48,
        "time": 70.714,
        "duration": 0.214,
        "velocity": 0.71,
        "hand": "left"
      },
      {
        "midi": 80,
        "time": 70.714,
        "duration": 0.054,
        "velocity": 0.71,
        "hand": "right"
      },
      {
        "midi": 82,
        "time": 70.768,
        "duration": 0.054,
        "velocity": 0.71,
        "hand": "right"
      },
      {
        "midi": 56,
        "time": 70.929,
        "duration": 0.214,
        "velocity": 0.71,
        "hand": "left"
      },
      {
        "midi": 66,
        "time": 70.929,
        "duration": 0.214,
        "velocity": 0.71,
        "hand": "right"
      },
      {
        "midi": 80,
        "time": 70.875,
        "duration": 0.054,
        "velocity": 0.71,
        "hand": "right"
      },
      {
        "midi": 80,
        "time": 71.036,
        "duration": 0.107,
        "velocity": 0.71,
        "hand": "right"
      },
      {
        "midi": 56,
        "time": 71.143,
        "duration": 0.214,
        "velocity": 0.71,
        "hand": "left"
      },
      {
        "midi": 66,
        "time": 71.143,
        "duration": 0.214,
        "velocity": 0.71,
        "hand": "right"
      },
      {
        "midi": 84,
        "time": 71.143,
        "duration": 0.107,
        "velocity": 0.71,
        "hand": "right"
      },
      {
        "midi": 82,
        "time": 71.25,
        "duration": 0.107,
        "velocity": 0.71,
        "hand": "right"
      },
      {
        "midi": 49,
        "time": 71.357,
        "duration": 0.214,
        "velocity": 0.71,
        "hand": "left"
      },
      {
        "midi": 80,
        "time": 71.357,
        "duration": 0.107,
        "velocity": 0.71,
        "hand": "right"
      },
      {
        "midi": 82,
        "time": 71.464,
        "duration": 0.107,
        "velocity": 0.71,
        "hand": "right"
      },
      {
        "midi": 56,
        "time": 71.571,
        "duration": 0.214,
        "velocity": 0.71,
        "hand": "left"
      },
      {
        "midi": 65,
        "time": 71.571,
        "duration": 0.214,
        "velocity": 0.71,
        "hand": "right"
      },
      {
        "midi": 80,
        "time": 71.571,
        "duration": 0.107,
        "velocity": 0.71,
        "hand": "right"
      },
      {
        "midi": 79,
        "time": 71.679,
        "duration": 0.107,
        "velocity": 0.71,
        "hand": "right"
      },
      {
        "midi": 80,
        "time": 71.786,
        "duration": 0.107,
        "velocity": 0.71,
        "hand": "right"
      },
      {
        "midi": 85,
        "time": 71.893,
        "duration": 0.107,
        "velocity": 0.71,
        "hand": "right"
      },
      {
        "midi": 54,
        "time": 72,
        "duration": 0.214,
        "velocity": 0.71,
        "hand": "left"
      },
      {
        "midi": 84,
        "time": 72,
        "duration": 0.107,
        "velocity": 0.71,
        "hand": "right"
      },
      {
        "midi": 82,
        "time": 72.107,
        "duration": 0.107,
        "velocity": 0.71,
        "hand": "right"
      },
      {
        "midi": 58,
        "time": 72.214,
        "duration": 0.214,
        "velocity": 0.71,
        "hand": "left"
      },
      {
        "midi": 63,
        "time": 72.214,
        "duration": 0.214,
        "velocity": 0.71,
        "hand": "right"
      },
      {
        "midi": 80,
        "time": 72.214,
        "duration": 0.107,
        "velocity": 0.71,
        "hand": "right"
      },
      {
        "midi": 78,
        "time": 72.321,
        "duration": 0.107,
        "velocity": 0.71,
        "hand": "right"
      },
      {
        "midi": 77,
        "time": 72.429,
        "duration": 0.107,
        "velocity": 0.71,
        "hand": "right"
      },
      {
        "midi": 75,
        "time": 72.536,
        "duration": 0.107,
        "velocity": 0.71,
        "hand": "right"
      },
      {
        "midi": 44,
        "time": 72.643,
        "duration": 0.214,
        "velocity": 0.71,
        "hand": "left"
      },
      {
        "midi": 73,
        "time": 72.643,
        "duration": 0.107,
        "velocity": 0.71,
        "hand": "right"
      },
      {
        "midi": 72,
        "time": 72.75,
        "duration": 0.107,
        "velocity": 0.71,
        "hand": "right"
      },
      {
        "midi": 53,
        "time": 72.857,
        "duration": 0.214,
        "velocity": 0.71,
        "hand": "left"
      },
      {
        "midi": 61,
        "time": 72.857,
        "duration": 0.214,
        "velocity": 0.71,
        "hand": "right"
      },
      {
        "midi": 70,
        "time": 72.857,
        "duration": 0.107,
        "velocity": 0.71,
        "hand": "right"
      },
      {
        "midi": 68,
        "time": 72.964,
        "duration": 0.107,
        "velocity": 0.71,
        "hand": "right"
      },
      {
        "midi": 66,
        "time": 73.071,
        "duration": 0.107,
        "velocity": 0.71,
        "hand": "right"
      },
      {
        "midi": 65,
        "time": 73.179,
        "duration": 0.107,
        "velocity": 0.71,
        "hand": "right"
      },
      {
        "midi": 44,
        "time": 73.286,
        "duration": 0.214,
        "velocity": 0.71,
        "hand": "left"
      },
      {
        "midi": 63,
        "time": 73.286,
        "duration": 0.107,
        "velocity": 0.71,
        "hand": "right"
      },
      {
        "midi": 61,
        "time": 73.393,
        "duration": 0.107,
        "velocity": 0.71,
        "hand": "right"
      },
      {
        "midi": 54,
        "time": 73.5,
        "duration": 0.214,
        "velocity": 0.71,
        "hand": "left"
      },
      {
        "midi": 56,
        "time": 73.5,
        "duration": 0.214,
        "velocity": 0.71,
        "hand": "left"
      },
      {
        "midi": 60,
        "time": 73.5,
        "duration": 0.107,
        "velocity": 0.71,
        "hand": "right"
      },
      {
        "midi": 63,
        "time": 73.607,
        "duration": 0.107,
        "velocity": 0.71,
        "hand": "right"
      },
      {
        "midi": 54,
        "time": 73.714,
        "duration": 0.214,
        "velocity": 0.71,
        "hand": "left"
      },
      {
        "midi": 60,
        "time": 73.714,
        "duration": 0.214,
        "velocity": 0.71,
        "hand": "right"
      },
      {
        "midi": 70,
        "time": 73.714,
        "duration": 0.107,
        "velocity": 0.71,
        "hand": "right"
      },
      {
        "midi": 68,
        "time": 73.821,
        "duration": 0.107,
        "velocity": 0.71,
        "hand": "right"
      },
      {
        "midi": 49,
        "time": 73.929,
        "duration": 0.214,
        "velocity": 0.71,
        "hand": "left"
      },
      {
        "midi": 67,
        "time": 73.929,
        "duration": 0.107,
        "velocity": 0.71,
        "hand": "right"
      },
      {
        "midi": 68,
        "time": 74.036,
        "duration": 0.107,
        "velocity": 0.71,
        "hand": "right"
      },
      {
        "midi": 56,
        "time": 74.143,
        "duration": 0.214,
        "velocity": 0.71,
        "hand": "left"
      },
      {
        "midi": 65,
        "time": 74.143,
        "duration": 0.214,
        "velocity": 0.71,
        "hand": "right"
      },
      {
        "midi": 70,
        "time": 74.143,
        "duration": 0.107,
        "velocity": 0.71,
        "hand": "right"
      },
      {
        "midi": 72,
        "time": 74.25,
        "duration": 0.107,
        "velocity": 0.71,
        "hand": "right"
      },
      {
        "midi": 73,
        "time": 74.357,
        "duration": 0.107,
        "velocity": 0.71,
        "hand": "right"
      },
      {
        "midi": 75,
        "time": 74.464,
        "duration": 0.107,
        "velocity": 0.71,
        "hand": "right"
      },
      {
        "midi": 57,
        "time": 74.571,
        "duration": 0.643,
        "velocity": 0.71,
        "hand": "left"
      },
      {
        "midi": 77,
        "time": 74.571,
        "duration": 0.054,
        "velocity": 0.71,
        "hand": "right"
      },
      {
        "midi": 78,
        "time": 74.625,
        "duration": 0.054,
        "velocity": 0.71,
        "hand": "right"
      },
      {
        "midi": 63,
        "time": 74.786,
        "duration": 0.214,
        "velocity": 0.71,
        "hand": "right"
      },
      {
        "midi": 76,
        "time": 74.786,
        "duration": 0.107,
        "velocity": 0.71,
        "hand": "right"
      },
      {
        "midi": 77,
        "time": 74.732,
        "duration": 0.054,
        "velocity": 0.71,
        "hand": "right"
      },
      {
        "midi": 77,
        "time": 74.893,
        "duration": 0.107,
        "velocity": 0.71,
        "hand": "right"
      },
      {
        "midi": 63,
        "time": 75,
        "duration": 0.214,
        "velocity": 0.71,
        "hand": "right"
      },
      {
        "midi": 65,
        "time": 75,
        "duration": 0.214,
        "velocity": 0.71,
        "hand": "right"
      },
      {
        "midi": 80,
        "time": 75,
        "duration": 0.107,
        "velocity": 0.71,
        "hand": "right"
      },
      {
        "midi": 78,
        "time": 75.107,
        "duration": 0.107,
        "velocity": 0.71,
        "hand": "right"
      },
      {
        "midi": 58,
        "time": 75.214,
        "duration": 0.643,
        "velocity": 0.71,
        "hand": "left"
      },
      {
        "midi": 77,
        "time": 75.214,
        "duration": 0.107,
        "velocity": 0.71,
        "hand": "right"
      },
      {
        "midi": 78,
        "time": 75.321,
        "duration": 0.107,
        "velocity": 0.71,
        "hand": "right"
      },
      {
        "midi": 61,
        "time": 75.429,
        "duration": 0.214,
        "velocity": 0.71,
        "hand": "right"
      },
      {
        "midi": 65,
        "time": 75.429,
        "duration": 0.214,
        "velocity": 0.71,
        "hand": "right"
      },
      {
        "midi": 77,
        "time": 75.429,
        "duration": 0.107,
        "velocity": 0.71,
        "hand": "right"
      },
      {
        "midi": 76,
        "time": 75.536,
        "duration": 0.107,
        "velocity": 0.71,
        "hand": "right"
      },
      {
        "midi": 61,
        "time": 75.643,
        "duration": 0.214,
        "velocity": 0.71,
        "hand": "right"
      },
      {
        "midi": 65,
        "time": 75.643,
        "duration": 0.214,
        "velocity": 0.71,
        "hand": "right"
      },
      {
        "midi": 77,
        "time": 75.643,
        "duration": 0.107,
        "velocity": 0.71,
        "hand": "right"
      },
      {
        "midi": 82,
        "time": 75.75,
        "duration": 0.107,
        "velocity": 0.71,
        "hand": "right"
      },
      {
        "midi": 60,
        "time": 75.857,
        "duration": 0.643,
        "velocity": 0.71,
        "hand": "right"
      },
      {
        "midi": 80,
        "time": 75.857,
        "duration": 0.054,
        "velocity": 0.71,
        "hand": "right"
      },
      {
        "midi": 82,
        "time": 75.911,
        "duration": 0.054,
        "velocity": 0.71,
        "hand": "right"
      },
      {
        "midi": 66,
        "time": 76.071,
        "duration": 0.214,
        "velocity": 0.71,
        "hand": "right"
      },
      {
        "midi": 79,
        "time": 76.071,
        "duration": 0.107,
        "velocity": 0.71,
        "hand": "right"
      },
      {
        "midi": 80,
        "time": 76.018,
        "duration": 0.054,
        "velocity": 0.71,
        "hand": "right"
      },
      {
        "midi": 80,
        "time": 76.179,
        "duration": 0.107,
        "velocity": 0.71,
        "hand": "right"
      },
      {
        "midi": 66,
        "time": 76.286,
        "duration": 0.214,
        "velocity": 0.71,
        "hand": "right"
      },
      {
        "midi": 68,
        "time": 76.286,
        "duration": 0.214,
        "velocity": 0.71,
        "hand": "right"
      },
      {
        "midi": 84,
        "time": 76.286,
        "duration": 0.107,
        "velocity": 0.71,
        "hand": "right"
      },
      {
        "midi": 82,
        "time": 76.393,
        "duration": 0.107,
        "velocity": 0.71,
        "hand": "right"
      },
      {
        "midi": 61,
        "time": 76.5,
        "duration": 0.214,
        "velocity": 0.71,
        "hand": "right"
      },
      {
        "midi": 80,
        "time": 76.5,
        "duration": 0.107,
        "velocity": 0.71,
        "hand": "right"
      },
      {
        "midi": 82,
        "time": 76.607,
        "duration": 0.107,
        "velocity": 0.71,
        "hand": "right"
      },
      {
        "midi": 65,
        "time": 76.714,
        "duration": 0.214,
        "velocity": 0.71,
        "hand": "right"
      },
      {
        "midi": 68,
        "time": 76.714,
        "duration": 0.214,
        "velocity": 0.71,
        "hand": "right"
      },
      {
        "midi": 80,
        "time": 76.714,
        "duration": 0.107,
        "velocity": 0.71,
        "hand": "right"
      },
      {
        "midi": 79,
        "time": 76.821,
        "duration": 0.107,
        "velocity": 0.71,
        "hand": "right"
      },
      {
        "midi": 80,
        "time": 76.929,
        "duration": 0.107,
        "velocity": 0.71,
        "hand": "right"
      },
      {
        "midi": 89,
        "time": 77.036,
        "duration": 0.107,
        "velocity": 0.71,
        "hand": "right"
      },
      {
        "midi": 54,
        "time": 77.143,
        "duration": 0.214,
        "velocity": 0.71,
        "hand": "left"
      },
      {
        "midi": 87,
        "time": 77.143,
        "duration": 0.107,
        "velocity": 0.71,
        "hand": "right"
      },
      {
        "midi": 85,
        "time": 77.25,
        "duration": 0.107,
        "velocity": 0.71,
        "hand": "right"
      },
      {
        "midi": 61,
        "time": 77.357,
        "duration": 0.214,
        "velocity": 0.71,
        "hand": "right"
      },
      {
        "midi": 70,
        "time": 77.357,
        "duration": 0.214,
        "velocity": 0.71,
        "hand": "right"
      },
      {
        "midi": 84,
        "time": 77.357,
        "duration": 0.107,
        "velocity": 0.71,
        "hand": "right"
      },
      {
        "midi": 82,
        "time": 77.464,
        "duration": 0.107,
        "velocity": 0.71,
        "hand": "right"
      },
      {
        "midi": 80,
        "time": 77.571,
        "duration": 0.107,
        "velocity": 0.71,
        "hand": "right"
      },
      {
        "midi": 78,
        "time": 77.679,
        "duration": 0.107,
        "velocity": 0.71,
        "hand": "right"
      },
      {
        "midi": 44,
        "time": 77.786,
        "duration": 0.214,
        "velocity": 0.71,
        "hand": "left"
      },
      {
        "midi": 77,
        "time": 77.786,
        "duration": 0.107,
        "velocity": 0.71,
        "hand": "right"
      },
      {
        "midi": 75,
        "time": 77.893,
        "duration": 0.107,
        "velocity": 0.71,
        "hand": "right"
      },
      {
        "midi": 53,
        "time": 78,
        "duration": 0.214,
        "velocity": 0.71,
        "hand": "left"
      },
      {
        "midi": 61,
        "time": 78,
        "duration": 0.214,
        "velocity": 0.71,
        "hand": "right"
      },
      {
        "midi": 73,
        "time": 78,
        "duration": 0.107,
        "velocity": 0.71,
        "hand": "right"
      },
      {
        "midi": 72,
        "time": 78.107,
        "duration": 0.107,
        "velocity": 0.71,
        "hand": "right"
      },
      {
        "midi": 70,
        "time": 78.214,
        "duration": 0.107,
        "velocity": 0.71,
        "hand": "right"
      },
      {
        "midi": 68,
        "time": 78.321,
        "duration": 0.107,
        "velocity": 0.71,
        "hand": "right"
      },
      {
        "midi": 44,
        "time": 78.429,
        "duration": 0.214,
        "velocity": 0.71,
        "hand": "left"
      },
      {
        "midi": 69,
        "time": 78.429,
        "duration": 0.107,
        "velocity": 0.71,
        "hand": "right"
      },
      {
        "midi": 72,
        "time": 78.536,
        "duration": 0.107,
        "velocity": 0.71,
        "hand": "right"
      },
      {
        "midi": 54,
        "time": 78.643,
        "duration": 0.214,
        "velocity": 0.71,
        "hand": "left"
      },
      {
        "midi": 56,
        "time": 78.643,
        "duration": 0.214,
        "velocity": 0.71,
        "hand": "left"
      },
      {
        "midi": 70,
        "time": 78.643,
        "duration": 0.107,
        "velocity": 0.71,
        "hand": "right"
      },
      {
        "midi": 65,
        "time": 78.75,
        "duration": 0.107,
        "velocity": 0.71,
        "hand": "right"
      },
      {
        "midi": 54,
        "time": 78.857,
        "duration": 0.214,
        "velocity": 0.71,
        "hand": "left"
      },
      {
        "midi": 56,
        "time": 78.857,
        "duration": 0.214,
        "velocity": 0.71,
        "hand": "left"
      },
      {
        "midi": 66,
        "time": 78.857,
        "duration": 0.107,
        "velocity": 0.71,
        "hand": "right"
      },
      {
        "midi": 60,
        "time": 78.964,
        "duration": 0.107,
        "velocity": 0.71,
        "hand": "right"
      },
      {
        "midi": 49,
        "time": 79.071,
        "duration": 0.214,
        "velocity": 0.71,
        "hand": "left"
      },
      {
        "midi": 61,
        "time": 79.071,
        "duration": 0.214,
        "velocity": 0.71,
        "hand": "right"
      },
      {
        "midi": 56,
        "time": 79.286,
        "duration": 0.214,
        "velocity": 0.71,
        "hand": "left"
      },
      {
        "midi": 65,
        "time": 79.286,
        "duration": 0.214,
        "velocity": 0.71,
        "hand": "right"
      },
      {
        "midi": 77,
        "time": 79.5,
        "duration": 0.268,
        "velocity": 0.71,
        "hand": "right"
      },
      {
        "midi": 45,
        "time": 79.714,
        "duration": 0.214,
        "velocity": 0.71,
        "hand": "left"
      },
      {
        "midi": 78,
        "time": 79.768,
        "duration": 0.054,
        "velocity": 0.71,
        "hand": "right"
      },
      {
        "midi": 53,
        "time": 79.929,
        "duration": 0.214,
        "velocity": 0.71,
        "hand": "left"
      },
      {
        "midi": 63,
        "time": 79.929,
        "duration": 0.214,
        "velocity": 0.71,
        "hand": "right"
      },
      {
        "midi": 77,
        "time": 79.875,
        "duration": 0.054,
        "velocity": 0.71,
        "hand": "right"
      },
      {
        "midi": 77,
        "time": 80.036,
        "duration": 0.107,
        "velocity": 0.71,
        "hand": "right"
      },
      {
        "midi": 53,
        "time": 80.143,
        "duration": 0.214,
        "velocity": 0.71,
        "hand": "left"
      },
      {
        "midi": 63,
        "time": 80.143,
        "duration": 0.214,
        "velocity": 0.71,
        "hand": "right"
      },
      {
        "midi": 80,
        "time": 80.143,
        "duration": 0.107,
        "velocity": 0.71,
        "hand": "right"
      },
      {
        "midi": 78,
        "time": 80.25,
        "duration": 0.107,
        "velocity": 0.71,
        "hand": "right"
      },
      {
        "midi": 46,
        "time": 80.357,
        "duration": 0.214,
        "velocity": 0.71,
        "hand": "left"
      },
      {
        "midi": 77,
        "time": 80.357,
        "duration": 0.107,
        "velocity": 0.71,
        "hand": "right"
      },
      {
        "midi": 78,
        "time": 80.464,
        "duration": 0.107,
        "velocity": 0.71,
        "hand": "right"
      },
      {
        "midi": 53,
        "time": 80.571,
        "duration": 0.214,
        "velocity": 0.71,
        "hand": "left"
      },
      {
        "midi": 61,
        "time": 80.571,
        "duration": 0.214,
        "velocity": 0.71,
        "hand": "right"
      },
      {
        "midi": 77,
        "time": 80.571,
        "duration": 0.107,
        "velocity": 0.71,
        "hand": "right"
      },
      {
        "midi": 76,
        "time": 80.679,
        "duration": 0.107,
        "velocity": 0.71,
        "hand": "right"
      },
      {
        "midi": 53,
        "time": 80.786,
        "duration": 0.214,
        "velocity": 0.71,
        "hand": "left"
      },
      {
        "midi": 61,
        "time": 80.786,
        "duration": 0.214,
        "velocity": 0.71,
        "hand": "right"
      },
      {
        "midi": 77,
        "time": 80.786,
        "duration": 0.107,
        "velocity": 0.71,
        "hand": "right"
      },
      {
        "midi": 82,
        "time": 80.893,
        "duration": 0.107,
        "velocity": 0.71,
        "hand": "right"
      },
      {
        "midi": 48,
        "time": 81,
        "duration": 0.214,
        "velocity": 0.71,
        "hand": "left"
      },
      {
        "midi": 80,
        "time": 81,
        "duration": 0.054,
        "velocity": 0.71,
        "hand": "right"
      },
      {
        "midi": 82,
        "time": 81.054,
        "duration": 0.054,
        "velocity": 0.71,
        "hand": "right"
      },
      {
        "midi": 56,
        "time": 81.214,
        "duration": 0.214,
        "velocity": 0.71,
        "hand": "left"
      },
      {
        "midi": 66,
        "time": 81.214,
        "duration": 0.214,
        "velocity": 0.71,
        "hand": "right"
      },
      {
        "midi": 80,
        "time": 81.161,
        "duration": 0.054,
        "velocity": 0.71,
        "hand": "right"
      },
      {
        "midi": 80,
        "time": 81.321,
        "duration": 0.107,
        "velocity": 0.71,
        "hand": "right"
      },
      {
        "midi": 56,
        "time": 81.429,
        "duration": 0.214,
        "velocity": 0.71,
        "hand": "left"
      },
      {
        "midi": 66,
        "time": 81.429,
        "duration": 0.214,
        "velocity": 0.71,
        "hand": "right"
      },
      {
        "midi": 84,
        "time": 81.429,
        "duration": 0.107,
        "velocity": 0.71,
        "hand": "right"
      },
      {
        "midi": 82,
        "time": 81.536,
        "duration": 0.107,
        "velocity": 0.71,
        "hand": "right"
      },
      {
        "midi": 49,
        "time": 81.643,
        "duration": 0.214,
        "velocity": 0.71,
        "hand": "left"
      },
      {
        "midi": 80,
        "time": 81.643,
        "duration": 0.107,
        "velocity": 0.71,
        "hand": "right"
      },
      {
        "midi": 82,
        "time": 81.75,
        "duration": 0.107,
        "velocity": 0.71,
        "hand": "right"
      },
      {
        "midi": 56,
        "time": 81.857,
        "duration": 0.214,
        "velocity": 0.71,
        "hand": "left"
      },
      {
        "midi": 65,
        "time": 81.857,
        "duration": 0.214,
        "velocity": 0.71,
        "hand": "right"
      },
      {
        "midi": 80,
        "time": 81.857,
        "duration": 0.107,
        "velocity": 0.71,
        "hand": "right"
      },
      {
        "midi": 79,
        "time": 81.964,
        "duration": 0.107,
        "velocity": 0.71,
        "hand": "right"
      },
      {
        "midi": 80,
        "time": 82.071,
        "duration": 0.107,
        "velocity": 0.71,
        "hand": "right"
      },
      {
        "midi": 85,
        "time": 82.179,
        "duration": 0.107,
        "velocity": 0.71,
        "hand": "right"
      },
      {
        "midi": 54,
        "time": 82.286,
        "duration": 0.214,
        "velocity": 0.71,
        "hand": "left"
      },
      {
        "midi": 84,
        "time": 82.286,
        "duration": 0.107,
        "velocity": 0.71,
        "hand": "right"
      },
      {
        "midi": 82,
        "time": 82.393,
        "duration": 0.107,
        "velocity": 0.71,
        "hand": "right"
      },
      {
        "midi": 58,
        "time": 82.5,
        "duration": 0.214,
        "velocity": 0.71,
        "hand": "left"
      },
      {
        "midi": 63,
        "time": 82.5,
        "duration": 0.214,
        "velocity": 0.71,
        "hand": "right"
      },
      {
        "midi": 80,
        "time": 82.5,
        "duration": 0.107,
        "velocity": 0.71,
        "hand": "right"
      },
      {
        "midi": 78,
        "time": 82.607,
        "duration": 0.107,
        "velocity": 0.71,
        "hand": "right"
      },
      {
        "midi": 77,
        "time": 82.714,
        "duration": 0.107,
        "velocity": 0.71,
        "hand": "right"
      },
      {
        "midi": 75,
        "time": 82.821,
        "duration": 0.107,
        "velocity": 0.71,
        "hand": "right"
      },
      {
        "midi": 44,
        "time": 82.929,
        "duration": 0.214,
        "velocity": 0.71,
        "hand": "left"
      },
      {
        "midi": 73,
        "time": 82.929,
        "duration": 0.107,
        "velocity": 0.71,
        "hand": "right"
      },
      {
        "midi": 72,
        "time": 83.036,
        "duration": 0.107,
        "velocity": 0.71,
        "hand": "right"
      },
      {
        "midi": 53,
        "time": 83.143,
        "duration": 0.214,
        "velocity": 0.71,
        "hand": "left"
      },
      {
        "midi": 61,
        "time": 83.143,
        "duration": 0.214,
        "velocity": 0.71,
        "hand": "right"
      },
      {
        "midi": 70,
        "time": 83.143,
        "duration": 0.107,
        "velocity": 0.71,
        "hand": "right"
      },
      {
        "midi": 68,
        "time": 83.25,
        "duration": 0.107,
        "velocity": 0.71,
        "hand": "right"
      },
      {
        "midi": 66,
        "time": 83.357,
        "duration": 0.107,
        "velocity": 0.71,
        "hand": "right"
      },
      {
        "midi": 65,
        "time": 83.464,
        "duration": 0.107,
        "velocity": 0.71,
        "hand": "right"
      },
      {
        "midi": 44,
        "time": 83.571,
        "duration": 0.214,
        "velocity": 0.71,
        "hand": "left"
      },
      {
        "midi": 63,
        "time": 83.571,
        "duration": 0.107,
        "velocity": 0.71,
        "hand": "right"
      },
      {
        "midi": 61,
        "time": 83.679,
        "duration": 0.107,
        "velocity": 0.71,
        "hand": "right"
      },
      {
        "midi": 54,
        "time": 83.786,
        "duration": 0.214,
        "velocity": 0.71,
        "hand": "left"
      },
      {
        "midi": 56,
        "time": 83.786,
        "duration": 0.214,
        "velocity": 0.71,
        "hand": "left"
      },
      {
        "midi": 60,
        "time": 83.786,
        "duration": 0.107,
        "velocity": 0.71,
        "hand": "right"
      },
      {
        "midi": 63,
        "time": 83.893,
        "duration": 0.107,
        "velocity": 0.71,
        "hand": "right"
      },
      {
        "midi": 54,
        "time": 84,
        "duration": 0.214,
        "velocity": 0.71,
        "hand": "left"
      },
      {
        "midi": 60,
        "time": 84,
        "duration": 0.214,
        "velocity": 0.71,
        "hand": "right"
      },
      {
        "midi": 70,
        "time": 84,
        "duration": 0.107,
        "velocity": 0.71,
        "hand": "right"
      },
      {
        "midi": 68,
        "time": 84.107,
        "duration": 0.107,
        "velocity": 0.71,
        "hand": "right"
      },
      {
        "midi": 49,
        "time": 84.214,
        "duration": 0.214,
        "velocity": 0.71,
        "hand": "left"
      },
      {
        "midi": 67,
        "time": 84.214,
        "duration": 0.107,
        "velocity": 0.71,
        "hand": "right"
      },
      {
        "midi": 68,
        "time": 84.321,
        "duration": 0.107,
        "velocity": 0.71,
        "hand": "right"
      },
      {
        "midi": 56,
        "time": 84.429,
        "duration": 0.214,
        "velocity": 0.71,
        "hand": "left"
      },
      {
        "midi": 65,
        "time": 84.429,
        "duration": 0.214,
        "velocity": 0.71,
        "hand": "right"
      },
      {
        "midi": 70,
        "time": 84.429,
        "duration": 0.107,
        "velocity": 0.71,
        "hand": "right"
      },
      {
        "midi": 72,
        "time": 84.536,
        "duration": 0.107,
        "velocity": 0.71,
        "hand": "right"
      },
      {
        "midi": 73,
        "time": 84.643,
        "duration": 0.107,
        "velocity": 0.71,
        "hand": "right"
      },
      {
        "midi": 75,
        "time": 84.75,
        "duration": 0.107,
        "velocity": 0.71,
        "hand": "right"
      },
      {
        "midi": 57,
        "time": 84.857,
        "duration": 0.643,
        "velocity": 0.71,
        "hand": "left"
      },
      {
        "midi": 77,
        "time": 84.857,
        "duration": 0.054,
        "velocity": 0.71,
        "hand": "right"
      },
      {
        "midi": 78,
        "time": 84.911,
        "duration": 0.054,
        "velocity": 0.71,
        "hand": "right"
      },
      {
        "midi": 63,
        "time": 85.071,
        "duration": 0.214,
        "velocity": 0.71,
        "hand": "right"
      },
      {
        "midi": 76,
        "time": 85.071,
        "duration": 0.107,
        "velocity": 0.71,
        "hand": "right"
      },
      {
        "midi": 77,
        "time": 85.018,
        "duration": 0.054,
        "velocity": 0.71,
        "hand": "right"
      },
      {
        "midi": 77,
        "time": 85.179,
        "duration": 0.107,
        "velocity": 0.71,
        "hand": "right"
      },
      {
        "midi": 63,
        "time": 85.286,
        "duration": 0.214,
        "velocity": 0.71,
        "hand": "right"
      },
      {
        "midi": 65,
        "time": 85.286,
        "duration": 0.214,
        "velocity": 0.71,
        "hand": "right"
      },
      {
        "midi": 80,
        "time": 85.286,
        "duration": 0.107,
        "velocity": 0.71,
        "hand": "right"
      },
      {
        "midi": 78,
        "time": 85.393,
        "duration": 0.107,
        "velocity": 0.71,
        "hand": "right"
      },
      {
        "midi": 58,
        "time": 85.5,
        "duration": 0.643,
        "velocity": 0.71,
        "hand": "left"
      },
      {
        "midi": 77,
        "time": 85.5,
        "duration": 0.107,
        "velocity": 0.71,
        "hand": "right"
      },
      {
        "midi": 78,
        "time": 85.607,
        "duration": 0.107,
        "velocity": 0.71,
        "hand": "right"
      },
      {
        "midi": 61,
        "time": 85.714,
        "duration": 0.214,
        "velocity": 0.71,
        "hand": "right"
      },
      {
        "midi": 65,
        "time": 85.714,
        "duration": 0.214,
        "velocity": 0.71,
        "hand": "right"
      },
      {
        "midi": 77,
        "time": 85.714,
        "duration": 0.107,
        "velocity": 0.71,
        "hand": "right"
      },
      {
        "midi": 76,
        "time": 85.821,
        "duration": 0.107,
        "velocity": 0.71,
        "hand": "right"
      },
      {
        "midi": 61,
        "time": 85.929,
        "duration": 0.214,
        "velocity": 0.71,
        "hand": "right"
      },
      {
        "midi": 65,
        "time": 85.929,
        "duration": 0.214,
        "velocity": 0.71,
        "hand": "right"
      },
      {
        "midi": 77,
        "time": 85.929,
        "duration": 0.107,
        "velocity": 0.71,
        "hand": "right"
      },
      {
        "midi": 82,
        "time": 86.036,
        "duration": 0.107,
        "velocity": 0.71,
        "hand": "right"
      },
      {
        "midi": 60,
        "time": 86.143,
        "duration": 0.643,
        "velocity": 0.71,
        "hand": "right"
      },
      {
        "midi": 80,
        "time": 86.143,
        "duration": 0.054,
        "velocity": 0.71,
        "hand": "right"
      },
      {
        "midi": 82,
        "time": 86.196,
        "duration": 0.054,
        "velocity": 0.71,
        "hand": "right"
      },
      {
        "midi": 66,
        "time": 86.357,
        "duration": 0.214,
        "velocity": 0.71,
        "hand": "right"
      },
      {
        "midi": 79,
        "time": 86.357,
        "duration": 0.107,
        "velocity": 0.71,
        "hand": "right"
      },
      {
        "midi": 80,
        "time": 86.304,
        "duration": 0.054,
        "velocity": 0.71,
        "hand": "right"
      },
      {
        "midi": 80,
        "time": 86.464,
        "duration": 0.107,
        "velocity": 0.71,
        "hand": "right"
      },
      {
        "midi": 66,
        "time": 86.571,
        "duration": 0.214,
        "velocity": 0.71,
        "hand": "right"
      },
      {
        "midi": 68,
        "time": 86.571,
        "duration": 0.214,
        "velocity": 0.71,
        "hand": "right"
      },
      {
        "midi": 84,
        "time": 86.571,
        "duration": 0.107,
        "velocity": 0.71,
        "hand": "right"
      },
      {
        "midi": 82,
        "time": 86.679,
        "duration": 0.107,
        "velocity": 0.71,
        "hand": "right"
      },
      {
        "midi": 61,
        "time": 86.786,
        "duration": 0.214,
        "velocity": 0.71,
        "hand": "right"
      },
      {
        "midi": 80,
        "time": 86.786,
        "duration": 0.107,
        "velocity": 0.71,
        "hand": "right"
      },
      {
        "midi": 82,
        "time": 86.893,
        "duration": 0.107,
        "velocity": 0.71,
        "hand": "right"
      },
      {
        "midi": 65,
        "time": 87,
        "duration": 0.214,
        "velocity": 0.71,
        "hand": "right"
      },
      {
        "midi": 68,
        "time": 87,
        "duration": 0.214,
        "velocity": 0.71,
        "hand": "right"
      },
      {
        "midi": 80,
        "time": 87,
        "duration": 0.107,
        "velocity": 0.71,
        "hand": "right"
      },
      {
        "midi": 79,
        "time": 87.107,
        "duration": 0.107,
        "velocity": 0.71,
        "hand": "right"
      },
      {
        "midi": 80,
        "time": 87.214,
        "duration": 0.107,
        "velocity": 0.71,
        "hand": "right"
      },
      {
        "midi": 101,
        "time": 87.321,
        "duration": 0.107,
        "velocity": 0.71,
        "hand": "right"
      },
      {
        "midi": 42,
        "time": 87.429,
        "duration": 0.214,
        "velocity": 0.71,
        "hand": "left"
      },
      {
        "midi": 97,
        "time": 87.482,
        "duration": 0.054,
        "velocity": 0.71,
        "hand": "right"
      },
      {
        "midi": 99,
        "time": 87.429,
        "duration": 0.054,
        "velocity": 0.71,
        "hand": "right"
      },
      {
        "midi": 61,
        "time": 87.643,
        "duration": 0.214,
        "velocity": 0.71,
        "hand": "right"
      },
      {
        "midi": 70,
        "time": 87.643,
        "duration": 0.214,
        "velocity": 0.71,
        "hand": "right"
      },
      {
        "midi": 96,
        "time": 87.589,
        "duration": 0.054,
        "velocity": 0.71,
        "hand": "right"
      },
      {
        "midi": 90,
        "time": 87.804,
        "duration": 0.054,
        "velocity": 0.71,
        "hand": "right"
      },
      {
        "midi": 92,
        "time": 87.75,
        "duration": 0.054,
        "velocity": 0.71,
        "hand": "right"
      },
      {
        "midi": 87,
        "time": 87.964,
        "duration": 0.054,
        "velocity": 0.71,
        "hand": "right"
      },
      {
        "midi": 89,
        "time": 87.911,
        "duration": 0.054,
        "velocity": 0.71,
        "hand": "right"
      },
      {
        "midi": 84,
        "time": 88.125,
        "duration": 0.054,
        "velocity": 0.71,
        "hand": "right"
      },
      {
        "midi": 85,
        "time": 88.071,
        "duration": 0.054,
        "velocity": 0.71,
        "hand": "right"
      },
      {
        "midi": 80,
        "time": 88.286,
        "duration": 0.054,
        "velocity": 0.71,
        "hand": "right"
      },
      {
        "midi": 82,
        "time": 88.232,
        "duration": 0.054,
        "velocity": 0.71,
        "hand": "right"
      },
      {
        "midi": 77,
        "time": 88.446,
        "duration": 0.054,
        "velocity": 0.71,
        "hand": "right"
      },
      {
        "midi": 78,
        "time": 88.393,
        "duration": 0.054,
        "velocity": 0.71,
        "hand": "right"
      },
      {
        "midi": 73,
        "time": 88.607,
        "duration": 0.054,
        "velocity": 0.71,
        "hand": "right"
      },
      {
        "midi": 75,
        "time": 88.554,
        "duration": 0.054,
        "velocity": 0.71,
        "hand": "right"
      },
      {
        "midi": 44,
        "time": 88.714,
        "duration": 0.214,
        "velocity": 0.71,
        "hand": "left"
      },
      {
        "midi": 70,
        "time": 88.768,
        "duration": 0.054,
        "velocity": 0.71,
        "hand": "right"
      },
      {
        "midi": 72,
        "time": 88.714,
        "duration": 0.054,
        "velocity": 0.71,
        "hand": "right"
      },
      {
        "midi": 54,
        "time": 88.929,
        "duration": 0.214,
        "velocity": 0.71,
        "hand": "left"
      },
      {
        "midi": 69,
        "time": 88.875,
        "duration": 0.054,
        "velocity": 0.71,
        "hand": "right"
      },
      {
        "midi": 72,
        "time": 88.929,
        "duration": 0.054,
        "velocity": 0.71,
        "hand": "right"
      },
      {
        "midi": 65,
        "time": 89.089,
        "duration": 0.054,
        "velocity": 0.71,
        "hand": "right"
      },
      {
        "midi": 70,
        "time": 89.036,
        "duration": 0.054,
        "velocity": 0.71,
        "hand": "right"
      },
      {
        "midi": 54,
        "time": 89.143,
        "duration": 0.214,
        "velocity": 0.71,
        "hand": "left"
      },
      {
        "midi": 56,
        "time": 89.143,
        "duration": 0.214,
        "velocity": 0.71,
        "hand": "left"
      },
      {
        "midi": 66,
        "time": 89.196,
        "duration": 0.054,
        "velocity": 0.71,
        "hand": "right"
      },
      {
        "midi": 60,
        "time": 89.25,
        "duration": 0.054,
        "velocity": 0.71,
        "hand": "right"
      },
      {
        "midi": 37,
        "time": 89.357,
        "duration": 0.214,
        "velocity": 0.71,
        "hand": "left"
      },
      {
        "midi": 61,
        "time": 89.357,
        "duration": 0.429,
        "velocity": 0.71,
        "hand": "right"
      },
      {
        "midi": 53,
        "time": 89.571,
        "duration": 0.214,
        "velocity": 0.71,
        "hand": "left"
      },
      {
        "midi": 56,
        "time": 89.571,
        "duration": 0.214,
        "velocity": 0.71,
        "hand": "left"
      },
      {
        "midi": 65,
        "time": 89.571,
        "duration": 0.214,
        "velocity": 0.71,
        "hand": "right"
      }
    ],
    "hard": [
      {
        "midi": 68,
        "time": 0,
        "duration": 0.214,
        "velocity": 0.71,
        "hand": "right"
      },
      {
        "midi": 67,
        "time": 0.214,
        "duration": 0.107,
        "velocity": 0.71,
        "hand": "right"
      },
      {
        "midi": 68,
        "time": 0.321,
        "duration": 0.107,
        "velocity": 0.71,
        "hand": "right"
      },
      {
        "midi": 72,
        "time": 0.429,
        "duration": 0.107,
        "velocity": 0.71,
        "hand": "right"
      },
      {
        "midi": 70,
        "time": 0.536,
        "duration": 0.107,
        "velocity": 0.71,
        "hand": "right"
      },
      {
        "midi": 67,
        "time": 0.643,
        "duration": 0.107,
        "velocity": 0.71,
        "hand": "right"
      },
      {
        "midi": 68,
        "time": 0.75,
        "duration": 0.107,
        "velocity": 0.71,
        "hand": "right"
      },
      {
        "midi": 70,
        "time": 0.857,
        "duration": 0.107,
        "velocity": 0.71,
        "hand": "right"
      },
      {
        "midi": 68,
        "time": 0.964,
        "duration": 0.107,
        "velocity": 0.71,
        "hand": "right"
      },
      {
        "midi": 72,
        "time": 1.071,
        "duration": 0.107,
        "velocity": 0.71,
        "hand": "right"
      },
      {
        "midi": 70,
        "time": 1.179,
        "duration": 0.107,
        "velocity": 0.71,
        "hand": "right"
      },
      {
        "midi": 67,
        "time": 1.286,
        "duration": 0.107,
        "velocity": 0.71,
        "hand": "right"
      },
      {
        "midi": 68,
        "time": 1.393,
        "duration": 0.107,
        "velocity": 0.71,
        "hand": "right"
      },
      {
        "midi": 72,
        "time": 1.5,
        "duration": 0.107,
        "velocity": 0.71,
        "hand": "right"
      },
      {
        "midi": 70,
        "time": 1.607,
        "duration": 0.107,
        "velocity": 0.71,
        "hand": "right"
      },
      {
        "midi": 67,
        "time": 1.714,
        "duration": 0.107,
        "velocity": 0.71,
        "hand": "right"
      },
      {
        "midi": 68,
        "time": 1.821,
        "duration": 0.107,
        "velocity": 0.71,
        "hand": "right"
      },
      {
        "midi": 72,
        "time": 1.929,
        "duration": 0.107,
        "velocity": 0.71,
        "hand": "right"
      },
      {
        "midi": 70,
        "time": 2.036,
        "duration": 0.107,
        "velocity": 0.71,
        "hand": "right"
      },
      {
        "midi": 67,
        "time": 2.143,
        "duration": 0.107,
        "velocity": 0.71,
        "hand": "right"
      },
      {
        "midi": 68,
        "time": 2.25,
        "duration": 0.107,
        "velocity": 0.71,
        "hand": "right"
      },
      {
        "midi": 72,
        "time": 2.357,
        "duration": 0.107,
        "velocity": 0.71,
        "hand": "right"
      },
      {
        "midi": 70,
        "time": 2.464,
        "duration": 0.107,
        "velocity": 0.71,
        "hand": "right"
      },
      {
        "midi": 49,
        "time": 2.571,
        "duration": 0.214,
        "velocity": 0.71,
        "hand": "left"
      },
      {
        "midi": 67,
        "time": 2.571,
        "duration": 0.107,
        "velocity": 0.71,
        "hand": "right"
      },
      {
        "midi": 68,
        "time": 2.679,
        "duration": 0.107,
        "velocity": 0.71,
        "hand": "right"
      },
      {
        "midi": 56,
        "time": 2.786,
        "duration": 0.214,
        "velocity": 0.71,
        "hand": "left"
      },
      {
        "midi": 61,
        "time": 2.786,
        "duration": 0.214,
        "velocity": 0.71,
        "hand": "right"
      },
      {
        "midi": 65,
        "time": 2.786,
        "duration": 0.214,
        "velocity": 0.71,
        "hand": "right"
      },
      {
        "midi": 72,
        "time": 2.786,
        "duration": 0.107,
        "velocity": 0.71,
        "hand": "right"
      },
      {
        "midi": 70,
        "time": 2.893,
        "duration": 0.107,
        "velocity": 0.71,
        "hand": "right"
      },
      {
        "midi": 56,
        "time": 3,
        "duration": 0.214,
        "velocity": 0.71,
        "hand": "left"
      },
      {
        "midi": 61,
        "time": 3,
        "duration": 0.214,
        "velocity": 0.71,
        "hand": "right"
      },
      {
        "midi": 65,
        "time": 3,
        "duration": 0.214,
        "velocity": 0.71,
        "hand": "right"
      },
      {
        "midi": 67,
        "time": 3,
        "duration": 0.107,
        "velocity": 0.71,
        "hand": "right"
      },
      {
        "midi": 68,
        "time": 3.107,
        "duration": 0.107,
        "velocity": 0.71,
        "hand": "right"
      },
      {
        "midi": 53,
        "time": 3.214,
        "duration": 0.214,
        "velocity": 0.71,
        "hand": "left"
      },
      {
        "midi": 72,
        "time": 3.214,
        "duration": 0.107,
        "velocity": 0.71,
        "hand": "right"
      },
      {
        "midi": 70,
        "time": 3.321,
        "duration": 0.107,
        "velocity": 0.71,
        "hand": "right"
      },
      {
        "midi": 56,
        "time": 3.429,
        "duration": 0.214,
        "velocity": 0.71,
        "hand": "left"
      },
      {
        "midi": 61,
        "time": 3.429,
        "duration": 0.214,
        "velocity": 0.71,
        "hand": "right"
      },
      {
        "midi": 65,
        "time": 3.429,
        "duration": 0.214,
        "velocity": 0.71,
        "hand": "right"
      },
      {
        "midi": 67,
        "time": 3.429,
        "duration": 0.107,
        "velocity": 0.71,
        "hand": "right"
      },
      {
        "midi": 68,
        "time": 3.536,
        "duration": 0.107,
        "velocity": 0.71,
        "hand": "right"
      },
      {
        "midi": 56,
        "time": 3.643,
        "duration": 0.214,
        "velocity": 0.71,
        "hand": "left"
      },
      {
        "midi": 61,
        "time": 3.643,
        "duration": 0.214,
        "velocity": 0.71,
        "hand": "right"
      },
      {
        "midi": 65,
        "time": 3.643,
        "duration": 0.214,
        "velocity": 0.71,
        "hand": "right"
      },
      {
        "midi": 72,
        "time": 3.643,
        "duration": 0.107,
        "velocity": 0.71,
        "hand": "right"
      },
      {
        "midi": 70,
        "time": 3.75,
        "duration": 0.107,
        "velocity": 0.71,
        "hand": "right"
      },
      {
        "midi": 49,
        "time": 3.857,
        "duration": 0.214,
        "velocity": 0.71,
        "hand": "left"
      },
      {
        "midi": 67,
        "time": 3.857,
        "duration": 0.107,
        "velocity": 0.71,
        "hand": "right"
      },
      {
        "midi": 68,
        "time": 3.964,
        "duration": 0.107,
        "velocity": 0.71,
        "hand": "right"
      },
      {
        "midi": 56,
        "time": 4.071,
        "duration": 0.214,
        "velocity": 0.71,
        "hand": "left"
      },
      {
        "midi": 61,
        "time": 4.071,
        "duration": 0.214,
        "velocity": 0.71,
        "hand": "right"
      },
      {
        "midi": 65,
        "time": 4.071,
        "duration": 0.214,
        "velocity": 0.71,
        "hand": "right"
      },
      {
        "midi": 72,
        "time": 4.071,
        "duration": 0.107,
        "velocity": 0.71,
        "hand": "right"
      },
      {
        "midi": 70,
        "time": 4.179,
        "duration": 0.107,
        "velocity": 0.71,
        "hand": "right"
      },
      {
        "midi": 56,
        "time": 4.286,
        "duration": 0.214,
        "velocity": 0.71,
        "hand": "left"
      },
      {
        "midi": 61,
        "time": 4.286,
        "duration": 0.214,
        "velocity": 0.71,
        "hand": "right"
      },
      {
        "midi": 65,
        "time": 4.286,
        "duration": 0.214,
        "velocity": 0.71,
        "hand": "right"
      },
      {
        "midi": 67,
        "time": 4.286,
        "duration": 0.107,
        "velocity": 0.71,
        "hand": "right"
      },
      {
        "midi": 68,
        "time": 4.393,
        "duration": 0.107,
        "velocity": 0.71,
        "hand": "right"
      },
      {
        "midi": 53,
        "time": 4.5,
        "duration": 0.214,
        "velocity": 0.71,
        "hand": "left"
      },
      {
        "midi": 70,
        "time": 4.5,
        "duration": 0.107,
        "velocity": 0.71,
        "hand": "right"
      },
      {
        "midi": 72,
        "time": 4.607,
        "duration": 0.107,
        "velocity": 0.71,
        "hand": "right"
      },
      {
        "midi": 56,
        "time": 4.714,
        "duration": 0.214,
        "velocity": 0.71,
        "hand": "left"
      },
      {
        "midi": 61,
        "time": 4.714,
        "duration": 0.214,
        "velocity": 0.71,
        "hand": "right"
      },
      {
        "midi": 65,
        "time": 4.714,
        "duration": 0.214,
        "velocity": 0.71,
        "hand": "right"
      },
      {
        "midi": 73,
        "time": 4.714,
        "duration": 0.107,
        "velocity": 0.71,
        "hand": "right"
      },
      {
        "midi": 75,
        "time": 4.821,
        "duration": 0.107,
        "velocity": 0.71,
        "hand": "right"
      },
      {
        "midi": 56,
        "time": 4.929,
        "duration": 0.214,
        "velocity": 0.71,
        "hand": "left"
      },
      {
        "midi": 61,
        "time": 4.929,
        "duration": 0.214,
        "velocity": 0.71,
        "hand": "right"
      },
      {
        "midi": 65,
        "time": 4.929,
        "duration": 0.214,
        "velocity": 0.71,
        "hand": "right"
      },
      {
        "midi": 77,
        "time": 4.929,
        "duration": 0.107,
        "velocity": 0.71,
        "hand": "right"
      },
      {
        "midi": 78,
        "time": 5.036,
        "duration": 0.107,
        "velocity": 0.71,
        "hand": "right"
      },
      {
        "midi": 44,
        "time": 5.143,
        "duration": 0.214,
        "velocity": 0.71,
        "hand": "left"
      },
      {
        "midi": 82,
        "time": 5.143,
        "duration": 0.321,
        "velocity": 0.71,
        "hand": "right"
      },
      {
        "midi": 56,
        "time": 5.357,
        "duration": 0.214,
        "velocity": 0.71,
        "hand": "left"
      },
      {
        "midi": 60,
        "time": 5.357,
        "duration": 0.214,
        "velocity": 0.71,
        "hand": "right"
      },
      {
        "midi": 66,
        "time": 5.357,
        "duration": 0.214,
        "velocity": 0.71,
        "hand": "right"
      },
      {
        "midi": 80,
        "time": 5.464,
        "duration": 0.107,
        "velocity": 0.71,
        "hand": "right"
      },
      {
        "midi": 56,
        "time": 5.571,
        "duration": 0.214,
        "velocity": 0.71,
        "hand": "left"
      },
      {
        "midi": 60,
        "time": 5.571,
        "duration": 0.214,
        "velocity": 0.71,
        "hand": "right"
      },
      {
        "midi": 66,
        "time": 5.571,
        "duration": 0.214,
        "velocity": 0.71,
        "hand": "right"
      },
      {
        "midi": 78,
        "time": 5.571,
        "duration": 0.107,
        "velocity": 0.71,
        "hand": "right"
      },
      {
        "midi": 77,
        "time": 5.679,
        "duration": 0.107,
        "velocity": 0.71,
        "hand": "right"
      },
      {
        "midi": 51,
        "time": 5.786,
        "duration": 0.214,
        "velocity": 0.71,
        "hand": "left"
      },
      {
        "midi": 77,
        "time": 5.786,
        "duration": 0.107,
        "velocity": 0.71,
        "hand": "right"
      },
      {
        "midi": 75,
        "time": 5.893,
        "duration": 0.107,
        "velocity": 0.71,
        "hand": "right"
      },
      {
        "midi": 56,
        "time": 6,
        "duration": 0.214,
        "velocity": 0.71,
        "hand": "left"
      },
      {
        "midi": 60,
        "time": 6,
        "duration": 0.214,
        "velocity": 0.71,
        "hand": "right"
      },
      {
        "midi": 66,
        "time": 6,
        "duration": 0.214,
        "velocity": 0.71,
        "hand": "right"
      },
      {
        "midi": 75,
        "time": 6,
        "duration": 0.107,
        "velocity": 0.71,
        "hand": "right"
      },
      {
        "midi": 74,
        "time": 6.107,
        "duration": 0.107,
        "velocity": 0.71,
        "hand": "right"
      },
      {
        "midi": 56,
        "time": 6.214,
        "duration": 0.214,
        "velocity": 0.71,
        "hand": "left"
      },
      {
        "midi": 60,
        "time": 6.214,
        "duration": 0.214,
        "velocity": 0.71,
        "hand": "right"
      },
      {
        "midi": 66,
        "time": 6.214,
        "duration": 0.214,
        "velocity": 0.71,
        "hand": "right"
      },
      {
        "midi": 75,
        "time": 6.214,
        "duration": 0.214,
        "velocity": 0.71,
        "hand": "right"
      },
      {
        "midi": 44,
        "time": 6.429,
        "duration": 0.214,
        "velocity": 0.71,
        "hand": "left"
      },
      {
        "midi": 82,
        "time": 6.429,
        "duration": 0.321,
        "velocity": 0.71,
        "hand": "right"
      },
      {
        "midi": 60,
        "time": 6.643,
        "duration": 0.214,
        "velocity": 0.71,
        "hand": "right"
      },
      {
        "midi": 66,
        "time": 6.643,
        "duration": 0.214,
        "velocity": 0.71,
        "hand": "right"
      },
      {
        "midi": 80,
        "time": 6.75,
        "duration": 0.107,
        "velocity": 0.71,
        "hand": "right"
      },
      {
        "midi": 60,
        "time": 6.857,
        "duration": 0.214,
        "velocity": 0.71,
        "hand": "right"
      },
      {
        "midi": 66,
        "time": 6.857,
        "duration": 0.214,
        "velocity": 0.71,
        "hand": "right"
      },
      {
        "midi": 78,
        "time": 6.857,
        "duration": 0.107,
        "velocity": 0.71,
        "hand": "right"
      },
      {
        "midi": 77,
        "time": 6.964,
        "duration": 0.107,
        "velocity": 0.71,
        "hand": "right"
      },
      {
        "midi": 56,
        "time": 7.071,
        "duration": 0.214,
        "velocity": 0.71,
        "hand": "left"
      },
      {
        "midi": 77,
        "time": 7.071,
        "duration": 0.107,
        "velocity": 0.71,
        "hand": "right"
      },
      {
        "midi": 75,
        "time": 7.179,
        "duration": 0.107,
        "velocity": 0.71,
        "hand": "right"
      },
      {
        "midi": 60,
        "time": 7.286,
        "duration": 0.214,
        "velocity": 0.71,
        "hand": "right"
      },
      {
        "midi": 66,
        "time": 7.286,
        "duration": 0.214,
        "velocity": 0.71,
        "hand": "right"
      },
      {
        "midi": 74,
        "time": 7.286,
        "duration": 0.107,
        "velocity": 0.71,
        "hand": "right"
      },
      {
        "midi": 75,
        "time": 7.393,
        "duration": 0.107,
        "velocity": 0.71,
        "hand": "right"
      },
      {
        "midi": 60,
        "time": 7.5,
        "duration": 0.214,
        "velocity": 0.71,
        "hand": "right"
      },
      {
        "midi": 66,
        "time": 7.5,
        "duration": 0.214,
        "velocity": 0.71,
        "hand": "right"
      },
      {
        "midi": 77,
        "time": 7.5,
        "duration": 0.107,
        "velocity": 0.71,
        "hand": "right"
      },
      {
        "midi": 70,
        "time": 7.607,
        "duration": 0.107,
        "velocity": 0.71,
        "hand": "right"
      },
      {
        "midi": 49,
        "time": 7.714,
        "duration": 0.214,
        "velocity": 0.71,
        "hand": "left"
      },
      {
        "midi": 67,
        "time": 7.714,
        "duration": 0.107,
        "velocity": 0.71,
        "hand": "right"
      },
      {
        "midi": 68,
        "time": 7.821,
        "duration": 0.107,
        "velocity": 0.71,
        "hand": "right"
      },
      {
        "midi": 56,
        "time": 7.929,
        "duration": 0.214,
        "velocity": 0.71,
        "hand": "left"
      },
      {
        "midi": 61,
        "time": 7.929,
        "duration": 0.214,
        "velocity": 0.71,
        "hand": "right"
      },
      {
        "midi": 65,
        "time": 7.929,
        "duration": 0.214,
        "velocity": 0.71,
        "hand": "right"
      },
      {
        "midi": 72,
        "time": 7.929,
        "duration": 0.107,
        "velocity": 0.71,
        "hand": "right"
      },
      {
        "midi": 70,
        "time": 8.036,
        "duration": 0.107,
        "velocity": 0.71,
        "hand": "right"
      },
      {
        "midi": 56,
        "time": 8.143,
        "duration": 0.214,
        "velocity": 0.71,
        "hand": "left"
      },
      {
        "midi": 61,
        "time": 8.143,
        "duration": 0.214,
        "velocity": 0.71,
        "hand": "right"
      },
      {
        "midi": 65,
        "time": 8.143,
        "duration": 0.214,
        "velocity": 0.71,
        "hand": "right"
      },
      {
        "midi": 67,
        "time": 8.143,
        "duration": 0.107,
        "velocity": 0.71,
        "hand": "right"
      },
      {
        "midi": 68,
        "time": 8.25,
        "duration": 0.107,
        "velocity": 0.71,
        "hand": "right"
      },
      {
        "midi": 53,
        "time": 8.357,
        "duration": 0.214,
        "velocity": 0.71,
        "hand": "left"
      },
      {
        "midi": 72,
        "time": 8.357,
        "duration": 0.107,
        "velocity": 0.71,
        "hand": "right"
      },
      {
        "midi": 70,
        "time": 8.464,
        "duration": 0.107,
        "velocity": 0.71,
        "hand": "right"
      },
      {
        "midi": 56,
        "time": 8.571,
        "duration": 0.214,
        "velocity": 0.71,
        "hand": "left"
      },
      {
        "midi": 61,
        "time": 8.571,
        "duration": 0.214,
        "velocity": 0.71,
        "hand": "right"
      },
      {
        "midi": 65,
        "time": 8.571,
        "duration": 0.214,
        "velocity": 0.71,
        "hand": "right"
      },
      {
        "midi": 67,
        "time": 8.571,
        "duration": 0.107,
        "velocity": 0.71,
        "hand": "right"
      },
      {
        "midi": 68,
        "time": 8.679,
        "duration": 0.107,
        "velocity": 0.71,
        "hand": "right"
      },
      {
        "midi": 56,
        "time": 8.786,
        "duration": 0.214,
        "velocity": 0.71,
        "hand": "left"
      },
      {
        "midi": 61,
        "time": 8.786,
        "duration": 0.214,
        "velocity": 0.71,
        "hand": "right"
      },
      {
        "midi": 65,
        "time": 8.786,
        "duration": 0.214,
        "velocity": 0.71,
        "hand": "right"
      },
      {
        "midi": 72,
        "time": 8.786,
        "duration": 0.107,
        "velocity": 0.71,
        "hand": "right"
      },
      {
        "midi": 70,
        "time": 8.893,
        "duration": 0.107,
        "velocity": 0.71,
        "hand": "right"
      },
      {
        "midi": 49,
        "time": 9,
        "duration": 0.214,
        "velocity": 0.71,
        "hand": "left"
      },
      {
        "midi": 67,
        "time": 9,
        "duration": 0.107,
        "velocity": 0.71,
        "hand": "right"
      },
      {
        "midi": 68,
        "time": 9.107,
        "duration": 0.107,
        "velocity": 0.71,
        "hand": "right"
      },
      {
        "midi": 56,
        "time": 9.214,
        "duration": 0.214,
        "velocity": 0.71,
        "hand": "left"
      },
      {
        "midi": 61,
        "time": 9.214,
        "duration": 0.214,
        "velocity": 0.71,
        "hand": "right"
      },
      {
        "midi": 65,
        "time": 9.214,
        "duration": 0.214,
        "velocity": 0.71,
        "hand": "right"
      },
      {
        "midi": 72,
        "time": 9.214,
        "duration": 0.107,
        "velocity": 0.71,
        "hand": "right"
      },
      {
        "midi": 70,
        "time": 9.321,
        "duration": 0.107,
        "velocity": 0.71,
        "hand": "right"
      },
      {
        "midi": 56,
        "time": 9.429,
        "duration": 0.214,
        "velocity": 0.71,
        "hand": "left"
      },
      {
        "midi": 61,
        "time": 9.429,
        "duration": 0.214,
        "velocity": 0.71,
        "hand": "right"
      },
      {
        "midi": 65,
        "time": 9.429,
        "duration": 0.214,
        "velocity": 0.71,
        "hand": "right"
      },
      {
        "midi": 67,
        "time": 9.429,
        "duration": 0.107,
        "velocity": 0.71,
        "hand": "right"
      },
      {
        "midi": 68,
        "time": 9.536,
        "duration": 0.107,
        "velocity": 0.71,
        "hand": "right"
      },
      {
        "midi": 53,
        "time": 9.643,
        "duration": 0.214,
        "velocity": 0.71,
        "hand": "left"
      },
      {
        "midi": 70,
        "time": 9.643,
        "duration": 0.107,
        "velocity": 0.71,
        "hand": "right"
      },
      {
        "midi": 72,
        "time": 9.75,
        "duration": 0.107,
        "velocity": 0.71,
        "hand": "right"
      },
      {
        "midi": 56,
        "time": 9.857,
        "duration": 0.214,
        "velocity": 0.71,
        "hand": "left"
      },
      {
        "midi": 61,
        "time": 9.857,
        "duration": 0.214,
        "velocity": 0.71,
        "hand": "right"
      },
      {
        "midi": 65,
        "time": 9.857,
        "duration": 0.214,
        "velocity": 0.71,
        "hand": "right"
      },
      {
        "midi": 73,
        "time": 9.857,
        "duration": 0.107,
        "velocity": 0.71,
        "hand": "right"
      },
      {
        "midi": 75,
        "time": 9.964,
        "duration": 0.107,
        "velocity": 0.71,
        "hand": "right"
      },
      {
        "midi": 56,
        "time": 10.071,
        "duration": 0.214,
        "velocity": 0.71,
        "hand": "left"
      },
      {
        "midi": 61,
        "time": 10.071,
        "duration": 0.214,
        "velocity": 0.71,
        "hand": "right"
      },
      {
        "midi": 65,
        "time": 10.071,
        "duration": 0.214,
        "velocity": 0.71,
        "hand": "right"
      },
      {
        "midi": 77,
        "time": 10.071,
        "duration": 0.107,
        "velocity": 0.71,
        "hand": "right"
      },
      {
        "midi": 78,
        "time": 10.179,
        "duration": 0.107,
        "velocity": 0.71,
        "hand": "right"
      },
      {
        "midi": 44,
        "time": 10.286,
        "duration": 0.214,
        "velocity": 0.71,
        "hand": "left"
      },
      {
        "midi": 82,
        "time": 10.286,
        "duration": 0.321,
        "velocity": 0.71,
        "hand": "right"
      },
      {
        "midi": 56,
        "time": 10.5,
        "duration": 0.214,
        "velocity": 0.71,
        "hand": "left"
      },
      {
        "midi": 60,
        "time": 10.5,
        "duration": 0.214,
        "velocity": 0.71,
        "hand": "right"
      },
      {
        "midi": 66,
        "time": 10.5,
        "duration": 0.214,
        "velocity": 0.71,
        "hand": "right"
      },
      {
        "midi": 80,
        "time": 10.607,
        "duration": 0.107,
        "velocity": 0.71,
        "hand": "right"
      },
      {
        "midi": 56,
        "time": 10.714,
        "duration": 0.214,
        "velocity": 0.71,
        "hand": "left"
      },
      {
        "midi": 60,
        "time": 10.714,
        "duration": 0.214,
        "velocity": 0.71,
        "hand": "right"
      },
      {
        "midi": 66,
        "time": 10.714,
        "duration": 0.214,
        "velocity": 0.71,
        "hand": "right"
      },
      {
        "midi": 78,
        "time": 10.714,
        "duration": 0.107,
        "velocity": 0.71,
        "hand": "right"
      },
      {
        "midi": 77,
        "time": 10.821,
        "duration": 0.107,
        "velocity": 0.71,
        "hand": "right"
      },
      {
        "midi": 51,
        "time": 10.929,
        "duration": 0.214,
        "velocity": 0.71,
        "hand": "left"
      },
      {
        "midi": 77,
        "time": 10.929,
        "duration": 0.107,
        "velocity": 0.71,
        "hand": "right"
      },
      {
        "midi": 75,
        "time": 11.036,
        "duration": 0.107,
        "velocity": 0.71,
        "hand": "right"
      },
      {
        "midi": 56,
        "time": 11.143,
        "duration": 0.214,
        "velocity": 0.71,
        "hand": "left"
      },
      {
        "midi": 60,
        "time": 11.143,
        "duration": 0.214,
        "velocity": 0.71,
        "hand": "right"
      },
      {
        "midi": 66,
        "time": 11.143,
        "duration": 0.214,
        "velocity": 0.71,
        "hand": "right"
      },
      {
        "midi": 75,
        "time": 11.143,
        "duration": 0.107,
        "velocity": 0.71,
        "hand": "right"
      },
      {
        "midi": 74,
        "time": 11.25,
        "duration": 0.107,
        "velocity": 0.71,
        "hand": "right"
      },
      {
        "midi": 56,
        "time": 11.357,
        "duration": 0.214,
        "velocity": 0.71,
        "hand": "left"
      },
      {
        "midi": 60,
        "time": 11.357,
        "duration": 0.214,
        "velocity": 0.71,
        "hand": "right"
      },
      {
        "midi": 66,
        "time": 11.357,
        "duration": 0.214,
        "velocity": 0.71,
        "hand": "right"
      },
      {
        "midi": 75,
        "time": 11.357,
        "duration": 0.214,
        "velocity": 0.71,
        "hand": "right"
      },
      {
        "midi": 44,
        "time": 11.571,
        "duration": 0.214,
        "velocity": 0.71,
        "hand": "left"
      },
      {
        "midi": 82,
        "time": 11.571,
        "duration": 0.321,
        "velocity": 0.71,
        "hand": "right"
      },
      {
        "midi": 56,
        "time": 11.786,
        "duration": 0.214,
        "velocity": 0.71,
        "hand": "left"
      },
      {
        "midi": 60,
        "time": 11.786,
        "duration": 0.214,
        "velocity": 0.71,
        "hand": "right"
      },
      {
        "midi": 66,
        "time": 11.786,
        "duration": 0.214,
        "velocity": 0.71,
        "hand": "right"
      },
      {
        "midi": 80,
        "time": 11.893,
        "duration": 0.107,
        "velocity": 0.71,
        "hand": "right"
      },
      {
        "midi": 56,
        "time": 12,
        "duration": 0.214,
        "velocity": 0.71,
        "hand": "left"
      },
      {
        "midi": 60,
        "time": 12,
        "duration": 0.214,
        "velocity": 0.71,
        "hand": "right"
      },
      {
        "midi": 66,
        "time": 12,
        "duration": 0.214,
        "velocity": 0.71,
        "hand": "right"
      },
      {
        "midi": 78,
        "time": 12,
        "duration": 0.107,
        "velocity": 0.71,
        "hand": "right"
      },
      {
        "midi": 77,
        "time": 12.107,
        "duration": 0.107,
        "velocity": 0.71,
        "hand": "right"
      },
      {
        "midi": 56,
        "time": 12.214,
        "duration": 0.214,
        "velocity": 0.71,
        "hand": "left"
      },
      {
        "midi": 75,
        "time": 12.214,
        "duration": 0.107,
        "velocity": 0.71,
        "hand": "right"
      },
      {
        "midi": 77,
        "time": 12.321,
        "duration": 0.107,
        "velocity": 0.71,
        "hand": "right"
      },
      {
        "midi": 60,
        "time": 12.429,
        "duration": 0.214,
        "velocity": 0.71,
        "hand": "right"
      },
      {
        "midi": 66,
        "time": 12.429,
        "duration": 0.214,
        "velocity": 0.71,
        "hand": "right"
      },
      {
        "midi": 75,
        "time": 12.429,
        "duration": 0.107,
        "velocity": 0.71,
        "hand": "right"
      },
      {
        "midi": 74,
        "time": 12.536,
        "duration": 0.107,
        "velocity": 0.71,
        "hand": "right"
      },
      {
        "midi": 44,
        "time": 12.643,
        "duration": 0.214,
        "velocity": 0.71,
        "hand": "left"
      },
      {
        "midi": 75,
        "time": 12.643,
        "duration": 0.107,
        "velocity": 0.71,
        "hand": "right"
      },
      {
        "midi": 76,
        "time": 12.75,
        "duration": 0.107,
        "velocity": 0.71,
        "hand": "right"
      },
      {
        "midi": 45,
        "time": 12.857,
        "duration": 0.214,
        "velocity": 0.71,
        "hand": "left"
      },
      {
        "midi": 77,
        "time": 12.857,
        "duration": 0.054,
        "velocity": 0.71,
        "hand": "right"
      },
      {
        "midi": 78,
        "time": 12.911,
        "duration": 0.054,
        "velocity": 0.71,
        "hand": "right"
      },
      {
        "midi": 77,
        "time": 13.018,
        "duration": 0.054,
        "velocity": 0.71,
        "hand": "right"
      },
      {
        "midi": 53,
        "time": 13.071,
        "duration": 0.214,
        "velocity": 0.71,
        "hand": "left"
      },
      {
        "midi": 60,
        "time": 13.071,
        "duration": 0.214,
        "velocity": 0.71,
        "hand": "right"
      },
      {
        "midi": 63,
        "time": 13.071,
        "duration": 0.214,
        "velocity": 0.71,
        "hand": "right"
      },
      {
        "midi": 76,
        "time": 13.071,
        "duration": 0.107,
        "velocity": 0.71,
        "hand": "right"
      },
      {
        "midi": 77,
        "time": 13.179,
        "duration": 0.107,
        "velocity": 0.71,
        "hand": "right"
      },
      {
        "midi": 53,
        "time": 13.286,
        "duration": 0.214,
        "velocity": 0.71,
        "hand": "left"
      },
      {
        "midi": 60,
        "time": 13.286,
        "duration": 0.214,
        "velocity": 0.71,
        "hand": "right"
      },
      {
        "midi": 63,
        "time": 13.286,
        "duration": 0.214,
        "velocity": 0.71,
        "hand": "right"
      },
      {
        "midi": 80,
        "time": 13.286,
        "duration": 0.107,
        "velocity": 0.71,
        "hand": "right"
      },
      {
        "midi": 78,
        "time": 13.393,
        "duration": 0.107,
        "velocity": 0.71,
        "hand": "right"
      },
      {
        "midi": 46,
        "time": 13.5,
        "duration": 0.214,
        "velocity": 0.71,
        "hand": "left"
      },
      {
        "midi": 77,
        "time": 13.5,
        "duration": 0.107,
        "velocity": 0.71,
        "hand": "right"
      },
      {
        "midi": 78,
        "time": 13.607,
        "duration": 0.107,
        "velocity": 0.71,
        "hand": "right"
      },
      {
        "midi": 53,
        "time": 13.714,
        "duration": 0.214,
        "velocity": 0.71,
        "hand": "left"
      },
      {
        "midi": 61,
        "time": 13.714,
        "duration": 0.214,
        "velocity": 0.71,
        "hand": "right"
      },
      {
        "midi": 77,
        "time": 13.714,
        "duration": 0.107,
        "velocity": 0.71,
        "hand": "right"
      },
      {
        "midi": 76,
        "time": 13.821,
        "duration": 0.107,
        "velocity": 0.71,
        "hand": "right"
      },
      {
        "midi": 53,
        "time": 13.929,
        "duration": 0.214,
        "velocity": 0.71,
        "hand": "left"
      },
      {
        "midi": 61,
        "time": 13.929,
        "duration": 0.214,
        "velocity": 0.71,
        "hand": "right"
      },
      {
        "midi": 77,
        "time": 13.929,
        "duration": 0.107,
        "velocity": 0.71,
        "hand": "right"
      },
      {
        "midi": 82,
        "time": 14.036,
        "duration": 0.107,
        "velocity": 0.71,
        "hand": "right"
      },
      {
        "midi": 48,
        "time": 14.143,
        "duration": 0.214,
        "velocity": 0.71,
        "hand": "left"
      },
      {
        "midi": 80,
        "time": 14.143,
        "duration": 0.054,
        "velocity": 0.71,
        "hand": "right"
      },
      {
        "midi": 82,
        "time": 14.196,
        "duration": 0.054,
        "velocity": 0.71,
        "hand": "right"
      },
      {
        "midi": 80,
        "time": 14.304,
        "duration": 0.054,
        "velocity": 0.71,
        "hand": "right"
      },
      {
        "midi": 56,
        "time": 14.357,
        "duration": 0.214,
        "velocity": 0.71,
        "hand": "left"
      },
      {
        "midi": 63,
        "time": 14.357,
        "duration": 0.214,
        "velocity": 0.71,
        "hand": "right"
      },
      {
        "midi": 66,
        "time": 14.357,
        "duration": 0.214,
        "velocity": 0.71,
        "hand": "right"
      },
      {
        "midi": 79,
        "time": 14.357,
        "duration": 0.107,
        "velocity": 0.71,
        "hand": "right"
      },
      {
        "midi": 80,
        "time": 14.464,
        "duration": 0.107,
        "velocity": 0.71,
        "hand": "right"
      },
      {
        "midi": 56,
        "time": 14.571,
        "duration": 0.214,
        "velocity": 0.71,
        "hand": "left"
      },
      {
        "midi": 63,
        "time": 14.571,
        "duration": 0.214,
        "velocity": 0.71,
        "hand": "right"
      },
      {
        "midi": 66,
        "time": 14.571,
        "duration": 0.214,
        "velocity": 0.71,
        "hand": "right"
      },
      {
        "midi": 84,
        "time": 14.571,
        "duration": 0.107,
        "velocity": 0.71,
        "hand": "right"
      },
      {
        "midi": 82,
        "time": 14.679,
        "duration": 0.107,
        "velocity": 0.71,
        "hand": "right"
      },
      {
        "midi": 49,
        "time": 14.786,
        "duration": 0.214,
        "velocity": 0.71,
        "hand": "left"
      },
      {
        "midi": 80,
        "time": 14.786,
        "duration": 0.107,
        "velocity": 0.71,
        "hand": "right"
      },
      {
        "midi": 82,
        "time": 14.893,
        "duration": 0.107,
        "velocity": 0.71,
        "hand": "right"
      },
      {
        "midi": 56,
        "time": 15,
        "duration": 0.214,
        "velocity": 0.71,
        "hand": "left"
      },
      {
        "midi": 65,
        "time": 15,
        "duration": 0.214,
        "velocity": 0.71,
        "hand": "right"
      },
      {
        "midi": 80,
        "time": 15,
        "duration": 0.107,
        "velocity": 0.71,
        "hand": "right"
      },
      {
        "midi": 79,
        "time": 15.107,
        "duration": 0.107,
        "velocity": 0.71,
        "hand": "right"
      },
      {
        "midi": 80,
        "time": 15.214,
        "duration": 0.107,
        "velocity": 0.71,
        "hand": "right"
      },
      {
        "midi": 85,
        "time": 15.321,
        "duration": 0.107,
        "velocity": 0.71,
        "hand": "right"
      },
      {
        "midi": 54,
        "time": 15.429,
        "duration": 0.214,
        "velocity": 0.71,
        "hand": "left"
      },
      {
        "midi": 84,
        "time": 15.429,
        "duration": 0.107,
        "velocity": 0.71,
        "hand": "right"
      },
      {
        "midi": 82,
        "time": 15.536,
        "duration": 0.107,
        "velocity": 0.71,
        "hand": "right"
      },
      {
        "midi": 58,
        "time": 15.643,
        "duration": 0.214,
        "velocity": 0.71,
        "hand": "left"
      },
      {
        "midi": 63,
        "time": 15.643,
        "duration": 0.214,
        "velocity": 0.71,
        "hand": "right"
      },
      {
        "midi": 80,
        "time": 15.643,
        "duration": 0.107,
        "velocity": 0.71,
        "hand": "right"
      },
      {
        "midi": 78,
        "time": 15.75,
        "duration": 0.107,
        "velocity": 0.71,
        "hand": "right"
      },
      {
        "midi": 77,
        "time": 15.857,
        "duration": 0.107,
        "velocity": 0.71,
        "hand": "right"
      },
      {
        "midi": 75,
        "time": 15.964,
        "duration": 0.107,
        "velocity": 0.71,
        "hand": "right"
      },
      {
        "midi": 44,
        "time": 16.071,
        "duration": 0.214,
        "velocity": 0.71,
        "hand": "left"
      },
      {
        "midi": 73,
        "time": 16.071,
        "duration": 0.107,
        "velocity": 0.71,
        "hand": "right"
      },
      {
        "midi": 72,
        "time": 16.179,
        "duration": 0.107,
        "velocity": 0.71,
        "hand": "right"
      },
      {
        "midi": 53,
        "time": 16.286,
        "duration": 0.214,
        "velocity": 0.71,
        "hand": "left"
      },
      {
        "midi": 56,
        "time": 16.286,
        "duration": 0.214,
        "velocity": 0.71,
        "hand": "left"
      },
      {
        "midi": 61,
        "time": 16.286,
        "duration": 0.214,
        "velocity": 0.71,
        "hand": "right"
      },
      {
        "midi": 70,
        "time": 16.286,
        "duration": 0.107,
        "velocity": 0.71,
        "hand": "right"
      },
      {
        "midi": 68,
        "time": 16.393,
        "duration": 0.107,
        "velocity": 0.71,
        "hand": "right"
      },
      {
        "midi": 66,
        "time": 16.5,
        "duration": 0.107,
        "velocity": 0.71,
        "hand": "right"
      },
      {
        "midi": 65,
        "time": 16.607,
        "duration": 0.107,
        "velocity": 0.71,
        "hand": "right"
      },
      {
        "midi": 44,
        "time": 16.714,
        "duration": 0.214,
        "velocity": 0.71,
        "hand": "left"
      },
      {
        "midi": 63,
        "time": 16.714,
        "duration": 0.107,
        "velocity": 0.71,
        "hand": "right"
      },
      {
        "midi": 61,
        "time": 16.821,
        "duration": 0.107,
        "velocity": 0.71,
        "hand": "right"
      },
      {
        "midi": 54,
        "time": 16.929,
        "duration": 0.214,
        "velocity": 0.71,
        "hand": "left"
      },
      {
        "midi": 56,
        "time": 16.929,
        "duration": 0.214,
        "velocity": 0.71,
        "hand": "left"
      },
      {
        "midi": 60,
        "time": 16.929,
        "duration": 0.107,
        "velocity": 0.71,
        "hand": "right"
      },
      {
        "midi": 63,
        "time": 17.036,
        "duration": 0.107,
        "velocity": 0.71,
        "hand": "right"
      },
      {
        "midi": 54,
        "time": 17.143,
        "duration": 0.214,
        "velocity": 0.71,
        "hand": "left"
      },
      {
        "midi": 56,
        "time": 17.143,
        "duration": 0.214,
        "velocity": 0.71,
        "hand": "left"
      },
      {
        "midi": 60,
        "time": 17.143,
        "duration": 0.214,
        "velocity": 0.71,
        "hand": "right"
      },
      {
        "midi": 70,
        "time": 17.143,
        "duration": 0.107,
        "velocity": 0.71,
        "hand": "right"
      },
      {
        "midi": 68,
        "time": 17.25,
        "duration": 0.107,
        "velocity": 0.71,
        "hand": "right"
      },
      {
        "midi": 49,
        "time": 17.357,
        "duration": 0.214,
        "velocity": 0.71,
        "hand": "left"
      },
      {
        "midi": 67,
        "time": 17.357,
        "duration": 0.107,
        "velocity": 0.71,
        "hand": "right"
      },
      {
        "midi": 68,
        "time": 17.464,
        "duration": 0.107,
        "velocity": 0.71,
        "hand": "right"
      },
      {
        "midi": 56,
        "time": 17.571,
        "duration": 0.214,
        "velocity": 0.71,
        "hand": "left"
      },
      {
        "midi": 61,
        "time": 17.571,
        "duration": 0.214,
        "velocity": 0.71,
        "hand": "right"
      },
      {
        "midi": 65,
        "time": 17.571,
        "duration": 0.214,
        "velocity": 0.71,
        "hand": "right"
      },
      {
        "midi": 70,
        "time": 17.571,
        "duration": 0.107,
        "velocity": 0.71,
        "hand": "right"
      },
      {
        "midi": 72,
        "time": 17.679,
        "duration": 0.107,
        "velocity": 0.71,
        "hand": "right"
      },
      {
        "midi": 73,
        "time": 17.786,
        "duration": 0.107,
        "velocity": 0.71,
        "hand": "right"
      },
      {
        "midi": 75,
        "time": 17.893,
        "duration": 0.107,
        "velocity": 0.71,
        "hand": "right"
      },
      {
        "midi": 57,
        "time": 18,
        "duration": 0.643,
        "velocity": 0.71,
        "hand": "left"
      },
      {
        "midi": 77,
        "time": 18,
        "duration": 0.054,
        "velocity": 0.71,
        "hand": "right"
      },
      {
        "midi": 78,
        "time": 18.054,
        "duration": 0.054,
        "velocity": 0.71,
        "hand": "right"
      },
      {
        "midi": 77,
        "time": 18.161,
        "duration": 0.054,
        "velocity": 0.71,
        "hand": "right"
      },
      {
        "midi": 63,
        "time": 18.214,
        "duration": 0.214,
        "velocity": 0.71,
        "hand": "right"
      },
      {
        "midi": 65,
        "time": 18.214,
        "duration": 0.214,
        "velocity": 0.71,
        "hand": "right"
      },
      {
        "midi": 76,
        "time": 18.214,
        "duration": 0.107,
        "velocity": 0.71,
        "hand": "right"
      },
      {
        "midi": 77,
        "time": 18.321,
        "duration": 0.107,
        "velocity": 0.71,
        "hand": "right"
      },
      {
        "midi": 63,
        "time": 18.429,
        "duration": 0.214,
        "velocity": 0.71,
        "hand": "right"
      },
      {
        "midi": 65,
        "time": 18.429,
        "duration": 0.214,
        "velocity": 0.71,
        "hand": "right"
      },
      {
        "midi": 80,
        "time": 18.429,
        "duration": 0.107,
        "velocity": 0.71,
        "hand": "right"
      },
      {
        "midi": 78,
        "time": 18.536,
        "duration": 0.107,
        "velocity": 0.71,
        "hand": "right"
      },
      {
        "midi": 58,
        "time": 18.643,
        "duration": 0.643,
        "velocity": 0.71,
        "hand": "left"
      },
      {
        "midi": 77,
        "time": 18.643,
        "duration": 0.107,
        "velocity": 0.71,
        "hand": "right"
      },
      {
        "midi": 78,
        "time": 18.75,
        "duration": 0.107,
        "velocity": 0.71,
        "hand": "right"
      },
      {
        "midi": 61,
        "time": 18.857,
        "duration": 0.214,
        "velocity": 0.71,
        "hand": "right"
      },
      {
        "midi": 65,
        "time": 18.857,
        "duration": 0.214,
        "velocity": 0.71,
        "hand": "right"
      },
      {
        "midi": 77,
        "time": 18.857,
        "duration": 0.107,
        "velocity": 0.71,
        "hand": "right"
      },
      {
        "midi": 76,
        "time": 18.964,
        "duration": 0.107,
        "velocity": 0.71,
        "hand": "right"
      },
      {
        "midi": 61,
        "time": 19.071,
        "duration": 0.214,
        "velocity": 0.71,
        "hand": "right"
      },
      {
        "midi": 65,
        "time": 19.071,
        "duration": 0.214,
        "velocity": 0.71,
        "hand": "right"
      },
      {
        "midi": 77,
        "time": 19.071,
        "duration": 0.107,
        "velocity": 0.71,
        "hand": "right"
      },
      {
        "midi": 82,
        "time": 19.179,
        "duration": 0.107,
        "velocity": 0.71,
        "hand": "right"
      },
      {
        "midi": 60,
        "time": 19.286,
        "duration": 0.643,
        "velocity": 0.71,
        "hand": "right"
      },
      {
        "midi": 80,
        "time": 19.286,
        "duration": 0.054,
        "velocity": 0.71,
        "hand": "right"
      },
      {
        "midi": 82,
        "time": 19.339,
        "duration": 0.054,
        "velocity": 0.71,
        "hand": "right"
      },
      {
        "midi": 80,
        "time": 19.446,
        "duration": 0.054,
        "velocity": 0.71,
        "hand": "right"
      },
      {
        "midi": 66,
        "time": 19.5,
        "duration": 0.214,
        "velocity": 0.71,
        "hand": "right"
      },
      {
        "midi": 68,
        "time": 19.5,
        "duration": 0.214,
        "velocity": 0.71,
        "hand": "right"
      },
      {
        "midi": 79,
        "time": 19.5,
        "duration": 0.107,
        "velocity": 0.71,
        "hand": "right"
      },
      {
        "midi": 80,
        "time": 19.607,
        "duration": 0.107,
        "velocity": 0.71,
        "hand": "right"
      },
      {
        "midi": 66,
        "time": 19.714,
        "duration": 0.214,
        "velocity": 0.71,
        "hand": "right"
      },
      {
        "midi": 68,
        "time": 19.714,
        "duration": 0.214,
        "velocity": 0.71,
        "hand": "right"
      },
      {
        "midi": 84,
        "time": 19.714,
        "duration": 0.107,
        "velocity": 0.71,
        "hand": "right"
      },
      {
        "midi": 82,
        "time": 19.821,
        "duration": 0.107,
        "velocity": 0.71,
        "hand": "right"
      },
      {
        "midi": 61,
        "time": 19.929,
        "duration": 0.214,
        "velocity": 0.71,
        "hand": "right"
      },
      {
        "midi": 80,
        "time": 19.929,
        "duration": 0.107,
        "velocity": 0.71,
        "hand": "right"
      },
      {
        "midi": 82,
        "time": 20.036,
        "duration": 0.107,
        "velocity": 0.71,
        "hand": "right"
      },
      {
        "midi": 65,
        "time": 20.143,
        "duration": 0.214,
        "velocity": 0.71,
        "hand": "right"
      },
      {
        "midi": 68,
        "time": 20.143,
        "duration": 0.214,
        "velocity": 0.71,
        "hand": "right"
      },
      {
        "midi": 80,
        "time": 20.143,
        "duration": 0.107,
        "velocity": 0.71,
        "hand": "right"
      },
      {
        "midi": 79,
        "time": 20.25,
        "duration": 0.107,
        "velocity": 0.71,
        "hand": "right"
      },
      {
        "midi": 80,
        "time": 20.357,
        "duration": 0.107,
        "velocity": 0.71,
        "hand": "right"
      },
      {
        "midi": 89,
        "time": 20.464,
        "duration": 0.107,
        "velocity": 0.71,
        "hand": "right"
      },
      {
        "midi": 54,
        "time": 20.571,
        "duration": 0.214,
        "velocity": 0.71,
        "hand": "left"
      },
      {
        "midi": 87,
        "time": 20.571,
        "duration": 0.107,
        "velocity": 0.71,
        "hand": "right"
      },
      {
        "midi": 85,
        "time": 20.679,
        "duration": 0.107,
        "velocity": 0.71,
        "hand": "right"
      },
      {
        "midi": 61,
        "time": 20.786,
        "duration": 0.214,
        "velocity": 0.71,
        "hand": "right"
      },
      {
        "midi": 63,
        "time": 20.786,
        "duration": 0.214,
        "velocity": 0.71,
        "hand": "right"
      },
      {
        "midi": 70,
        "time": 20.786,
        "duration": 0.214,
        "velocity": 0.71,
        "hand": "right"
      },
      {
        "midi": 84,
        "time": 20.786,
        "duration": 0.107,
        "velocity": 0.71,
        "hand": "right"
      },
      {
        "midi": 82,
        "time": 20.893,
        "duration": 0.107,
        "velocity": 0.71,
        "hand": "right"
      },
      {
        "midi": 80,
        "time": 21,
        "duration": 0.107,
        "velocity": 0.71,
        "hand": "right"
      },
      {
        "midi": 78,
        "time": 21.107,
        "duration": 0.107,
        "velocity": 0.71,
        "hand": "right"
      },
      {
        "midi": 44,
        "time": 21.214,
        "duration": 0.214,
        "velocity": 0.71,
        "hand": "left"
      },
      {
        "midi": 77,
        "time": 21.214,
        "duration": 0.107,
        "velocity": 0.71,
        "hand": "right"
      },
      {
        "midi": 75,
        "time": 21.321,
        "duration": 0.107,
        "velocity": 0.71,
        "hand": "right"
      },
      {
        "midi": 53,
        "time": 21.429,
        "duration": 0.214,
        "velocity": 0.71,
        "hand": "left"
      },
      {
        "midi": 56,
        "time": 21.429,
        "duration": 0.214,
        "velocity": 0.71,
        "hand": "left"
      },
      {
        "midi": 61,
        "time": 21.429,
        "duration": 0.214,
        "velocity": 0.71,
        "hand": "right"
      },
      {
        "midi": 73,
        "time": 21.429,
        "duration": 0.107,
        "velocity": 0.71,
        "hand": "right"
      },
      {
        "midi": 72,
        "time": 21.536,
        "duration": 0.107,
        "velocity": 0.71,
        "hand": "right"
      },
      {
        "midi": 70,
        "time": 21.643,
        "duration": 0.107,
        "velocity": 0.71,
        "hand": "right"
      },
      {
        "midi": 68,
        "time": 21.75,
        "duration": 0.107,
        "velocity": 0.71,
        "hand": "right"
      },
      {
        "midi": 44,
        "time": 21.857,
        "duration": 0.214,
        "velocity": 0.71,
        "hand": "left"
      },
      {
        "midi": 69,
        "time": 21.857,
        "duration": 0.107,
        "velocity": 0.71,
        "hand": "right"
      },
      {
        "midi": 72,
        "time": 21.964,
        "duration": 0.107,
        "velocity": 0.71,
        "hand": "right"
      },
      {
        "midi": 54,
        "time": 22.071,
        "duration": 0.214,
        "velocity": 0.71,
        "hand": "left"
      },
      {
        "midi": 56,
        "time": 22.071,
        "duration": 0.214,
        "velocity": 0.71,
        "hand": "left"
      },
      {
        "midi": 70,
        "time": 22.071,
        "duration": 0.107,
        "velocity": 0.71,
        "hand": "right"
      },
      {
        "midi": 65,
        "time": 22.179,
        "duration": 0.107,
        "velocity": 0.71,
        "hand": "right"
      },
      {
        "midi": 54,
        "time": 22.286,
        "duration": 0.214,
        "velocity": 0.71,
        "hand": "left"
      },
      {
        "midi": 56,
        "time": 22.286,
        "duration": 0.214,
        "velocity": 0.71,
        "hand": "left"
      },
      {
        "midi": 66,
        "time": 22.286,
        "duration": 0.107,
        "velocity": 0.71,
        "hand": "right"
      },
      {
        "midi": 60,
        "time": 22.393,
        "duration": 0.107,
        "velocity": 0.71,
        "hand": "right"
      },
      {
        "midi": 49,
        "time": 22.5,
        "duration": 0.214,
        "velocity": 0.71,
        "hand": "left"
      },
      {
        "midi": 61,
        "time": 22.5,
        "duration": 0.214,
        "velocity": 0.71,
        "hand": "right"
      },
      {
        "midi": 56,
        "time": 22.714,
        "duration": 0.214,
        "velocity": 0.71,
        "hand": "left"
      },
      {
        "midi": 65,
        "time": 22.714,
        "duration": 0.214,
        "velocity": 0.71,
        "hand": "right"
      },
      {
        "midi": 77,
        "time": 22.929,
        "duration": 0.214,
        "velocity": 0.71,
        "hand": "right"
      },
      {
        "midi": 45,
        "time": 23.143,
        "duration": 0.214,
        "velocity": 0.71,
        "hand": "left"
      },
      {
        "midi": 77,
        "time": 23.143,
        "duration": 0.054,
        "velocity": 0.71,
        "hand": "right"
      },
      {
        "midi": 78,
        "time": 23.196,
        "duration": 0.054,
        "velocity": 0.71,
        "hand": "right"
      },
      {
        "midi": 77,
        "time": 23.304,
        "duration": 0.054,
        "velocity": 0.71,
        "hand": "right"
      },
      {
        "midi": 53,
        "time": 23.357,
        "duration": 0.214,
        "velocity": 0.71,
        "hand": "left"
      },
      {
        "midi": 60,
        "time": 23.357,
        "duration": 0.214,
        "velocity": 0.71,
        "hand": "right"
      },
      {
        "midi": 63,
        "time": 23.357,
        "duration": 0.214,
        "velocity": 0.71,
        "hand": "right"
      },
      {
        "midi": 76,
        "time": 23.357,
        "duration": 0.107,
        "velocity": 0.71,
        "hand": "right"
      },
      {
        "midi": 77,
        "time": 23.464,
        "duration": 0.107,
        "velocity": 0.71,
        "hand": "right"
      },
      {
        "midi": 53,
        "time": 23.571,
        "duration": 0.214,
        "velocity": 0.71,
        "hand": "left"
      },
      {
        "midi": 60,
        "time": 23.571,
        "duration": 0.214,
        "velocity": 0.71,
        "hand": "right"
      },
      {
        "midi": 63,
        "time": 23.571,
        "duration": 0.214,
        "velocity": 0.71,
        "hand": "right"
      },
      {
        "midi": 80,
        "time": 23.571,
        "duration": 0.107,
        "velocity": 0.71,
        "hand": "right"
      },
      {
        "midi": 78,
        "time": 23.679,
        "duration": 0.107,
        "velocity": 0.71,
        "hand": "right"
      },
      {
        "midi": 46,
        "time": 23.786,
        "duration": 0.214,
        "velocity": 0.71,
        "hand": "left"
      },
      {
        "midi": 77,
        "time": 23.786,
        "duration": 0.107,
        "velocity": 0.71,
        "hand": "right"
      },
      {
        "midi": 78,
        "time": 23.893,
        "duration": 0.107,
        "velocity": 0.71,
        "hand": "right"
      },
      {
        "midi": 53,
        "time": 24,
        "duration": 0.214,
        "velocity": 0.71,
        "hand": "left"
      },
      {
        "midi": 61,
        "time": 24,
        "duration": 0.214,
        "velocity": 0.71,
        "hand": "right"
      },
      {
        "midi": 77,
        "time": 24,
        "duration": 0.107,
        "velocity": 0.71,
        "hand": "right"
      },
      {
        "midi": 76,
        "time": 24.107,
        "duration": 0.107,
        "velocity": 0.71,
        "hand": "right"
      },
      {
        "midi": 53,
        "time": 24.214,
        "duration": 0.214,
        "velocity": 0.71,
        "hand": "left"
      },
      {
        "midi": 61,
        "time": 24.214,
        "duration": 0.214,
        "velocity": 0.71,
        "hand": "right"
      },
      {
        "midi": 77,
        "time": 24.214,
        "duration": 0.107,
        "velocity": 0.71,
        "hand": "right"
      },
      {
        "midi": 82,
        "time": 24.321,
        "duration": 0.107,
        "velocity": 0.71,
        "hand": "right"
      },
      {
        "midi": 48,
        "time": 24.429,
        "duration": 0.214,
        "velocity": 0.71,
        "hand": "left"
      },
      {
        "midi": 80,
        "time": 24.429,
        "duration": 0.054,
        "velocity": 0.71,
        "hand": "right"
      },
      {
        "midi": 82,
        "time": 24.482,
        "duration": 0.054,
        "velocity": 0.71,
        "hand": "right"
      },
      {
        "midi": 80,
        "time": 24.589,
        "duration": 0.054,
        "velocity": 0.71,
        "hand": "right"
      },
      {
        "midi": 56,
        "time": 24.643,
        "duration": 0.214,
        "velocity": 0.71,
        "hand": "left"
      },
      {
        "midi": 63,
        "time": 24.643,
        "duration": 0.214,
        "velocity": 0.71,
        "hand": "right"
      },
      {
        "midi": 66,
        "time": 24.643,
        "duration": 0.214,
        "velocity": 0.71,
        "hand": "right"
      },
      {
        "midi": 79,
        "time": 24.643,
        "duration": 0.107,
        "velocity": 0.71,
        "hand": "right"
      },
      {
        "midi": 80,
        "time": 24.75,
        "duration": 0.107,
        "velocity": 0.71,
        "hand": "right"
      },
      {
        "midi": 56,
        "time": 24.857,
        "duration": 0.214,
        "velocity": 0.71,
        "hand": "left"
      },
      {
        "midi": 63,
        "time": 24.857,
        "duration": 0.214,
        "velocity": 0.71,
        "hand": "right"
      },
      {
        "midi": 66,
        "time": 24.857,
        "duration": 0.214,
        "velocity": 0.71,
        "hand": "right"
      },
      {
        "midi": 84,
        "time": 24.857,
        "duration": 0.107,
        "velocity": 0.71,
        "hand": "right"
      },
      {
        "midi": 82,
        "time": 24.964,
        "duration": 0.107,
        "velocity": 0.71,
        "hand": "right"
      },
      {
        "midi": 49,
        "time": 25.071,
        "duration": 0.214,
        "velocity": 0.71,
        "hand": "left"
      },
      {
        "midi": 80,
        "time": 25.071,
        "duration": 0.107,
        "velocity": 0.71,
        "hand": "right"
      },
      {
        "midi": 82,
        "time": 25.179,
        "duration": 0.107,
        "velocity": 0.71,
        "hand": "right"
      },
      {
        "midi": 56,
        "time": 25.286,
        "duration": 0.214,
        "velocity": 0.71,
        "hand": "left"
      },
      {
        "midi": 65,
        "time": 25.286,
        "duration": 0.214,
        "velocity": 0.71,
        "hand": "right"
      },
      {
        "midi": 80,
        "time": 25.286,
        "duration": 0.107,
        "velocity": 0.71,
        "hand": "right"
      },
      {
        "midi": 79,
        "time": 25.393,
        "duration": 0.107,
        "velocity": 0.71,
        "hand": "right"
      },
      {
        "midi": 80,
        "time": 25.5,
        "duration": 0.107,
        "velocity": 0.71,
        "hand": "right"
      },
      {
        "midi": 85,
        "time": 25.607,
        "duration": 0.107,
        "velocity": 0.71,
        "hand": "right"
      },
      {
        "midi": 54,
        "time": 25.714,
        "duration": 0.214,
        "velocity": 0.71,
        "hand": "left"
      },
      {
        "midi": 84,
        "time": 25.714,
        "duration": 0.107,
        "velocity": 0.71,
        "hand": "right"
      },
      {
        "midi": 82,
        "time": 25.821,
        "duration": 0.107,
        "velocity": 0.71,
        "hand": "right"
      },
      {
        "midi": 58,
        "time": 25.929,
        "duration": 0.214,
        "velocity": 0.71,
        "hand": "left"
      },
      {
        "midi": 63,
        "time": 25.929,
        "duration": 0.214,
        "velocity": 0.71,
        "hand": "right"
      },
      {
        "midi": 80,
        "time": 25.929,
        "duration": 0.107,
        "velocity": 0.71,
        "hand": "right"
      },
      {
        "midi": 78,
        "time": 26.036,
        "duration": 0.107,
        "velocity": 0.71,
        "hand": "right"
      },
      {
        "midi": 77,
        "time": 26.143,
        "duration": 0.107,
        "velocity": 0.71,
        "hand": "right"
      },
      {
        "midi": 75,
        "time": 26.25,
        "duration": 0.107,
        "velocity": 0.71,
        "hand": "right"
      },
      {
        "midi": 44,
        "time": 26.357,
        "duration": 0.214,
        "velocity": 0.71,
        "hand": "left"
      },
      {
        "midi": 73,
        "time": 26.357,
        "duration": 0.107,
        "velocity": 0.71,
        "hand": "right"
      },
      {
        "midi": 72,
        "time": 26.464,
        "duration": 0.107,
        "velocity": 0.71,
        "hand": "right"
      },
      {
        "midi": 53,
        "time": 26.571,
        "duration": 0.214,
        "velocity": 0.71,
        "hand": "left"
      },
      {
        "midi": 56,
        "time": 26.571,
        "duration": 0.214,
        "velocity": 0.71,
        "hand": "left"
      },
      {
        "midi": 61,
        "time": 26.571,
        "duration": 0.214,
        "velocity": 0.71,
        "hand": "right"
      },
      {
        "midi": 70,
        "time": 26.571,
        "duration": 0.107,
        "velocity": 0.71,
        "hand": "right"
      },
      {
        "midi": 68,
        "time": 26.679,
        "duration": 0.107,
        "velocity": 0.71,
        "hand": "right"
      },
      {
        "midi": 66,
        "time": 26.786,
        "duration": 0.107,
        "velocity": 0.71,
        "hand": "right"
      },
      {
        "midi": 65,
        "time": 26.893,
        "duration": 0.107,
        "velocity": 0.71,
        "hand": "right"
      },
      {
        "midi": 44,
        "time": 27,
        "duration": 0.214,
        "velocity": 0.71,
        "hand": "left"
      },
      {
        "midi": 63,
        "time": 27,
        "duration": 0.107,
        "velocity": 0.71,
        "hand": "right"
      },
      {
        "midi": 61,
        "time": 27.107,
        "duration": 0.107,
        "velocity": 0.71,
        "hand": "right"
      },
      {
        "midi": 54,
        "time": 27.214,
        "duration": 0.214,
        "velocity": 0.71,
        "hand": "left"
      },
      {
        "midi": 56,
        "time": 27.214,
        "duration": 0.214,
        "velocity": 0.71,
        "hand": "left"
      },
      {
        "midi": 60,
        "time": 27.214,
        "duration": 0.107,
        "velocity": 0.71,
        "hand": "right"
      },
      {
        "midi": 63,
        "time": 27.321,
        "duration": 0.107,
        "velocity": 0.71,
        "hand": "right"
      },
      {
        "midi": 54,
        "time": 27.429,
        "duration": 0.214,
        "velocity": 0.71,
        "hand": "left"
      },
      {
        "midi": 56,
        "time": 27.429,
        "duration": 0.214,
        "velocity": 0.71,
        "hand": "left"
      },
      {
        "midi": 60,
        "time": 27.429,
        "duration": 0.214,
        "velocity": 0.71,
        "hand": "right"
      },
      {
        "midi": 70,
        "time": 27.429,
        "duration": 0.107,
        "velocity": 0.71,
        "hand": "right"
      },
      {
        "midi": 68,
        "time": 27.536,
        "duration": 0.107,
        "velocity": 0.71,
        "hand": "right"
      },
      {
        "midi": 49,
        "time": 27.643,
        "duration": 0.214,
        "velocity": 0.71,
        "hand": "left"
      },
      {
        "midi": 67,
        "time": 27.643,
        "duration": 0.107,
        "velocity": 0.71,
        "hand": "right"
      },
      {
        "midi": 68,
        "time": 27.75,
        "duration": 0.107,
        "velocity": 0.71,
        "hand": "right"
      },
      {
        "midi": 56,
        "time": 27.857,
        "duration": 0.214,
        "velocity": 0.71,
        "hand": "left"
      },
      {
        "midi": 61,
        "time": 27.857,
        "duration": 0.214,
        "velocity": 0.71,
        "hand": "right"
      },
      {
        "midi": 65,
        "time": 27.857,
        "duration": 0.214,
        "velocity": 0.71,
        "hand": "right"
      },
      {
        "midi": 70,
        "time": 27.857,
        "duration": 0.107,
        "velocity": 0.71,
        "hand": "right"
      },
      {
        "midi": 72,
        "time": 27.964,
        "duration": 0.107,
        "velocity": 0.71,
        "hand": "right"
      },
      {
        "midi": 73,
        "time": 28.071,
        "duration": 0.107,
        "velocity": 0.71,
        "hand": "right"
      },
      {
        "midi": 75,
        "time": 28.179,
        "duration": 0.107,
        "velocity": 0.71,
        "hand": "right"
      },
      {
        "midi": 57,
        "time": 28.286,
        "duration": 0.643,
        "velocity": 0.71,
        "hand": "left"
      },
      {
        "midi": 77,
        "time": 28.286,
        "duration": 0.054,
        "velocity": 0.71,
        "hand": "right"
      },
      {
        "midi": 78,
        "time": 28.339,
        "duration": 0.054,
        "velocity": 0.71,
        "hand": "right"
      },
      {
        "midi": 77,
        "time": 28.446,
        "duration": 0.054,
        "velocity": 0.71,
        "hand": "right"
      },
      {
        "midi": 63,
        "time": 28.5,
        "duration": 0.214,
        "velocity": 0.71,
        "hand": "right"
      },
      {
        "midi": 65,
        "time": 28.5,
        "duration": 0.214,
        "velocity": 0.71,
        "hand": "right"
      },
      {
        "midi": 76,
        "time": 28.5,
        "duration": 0.107,
        "velocity": 0.71,
        "hand": "right"
      },
      {
        "midi": 77,
        "time": 28.607,
        "duration": 0.107,
        "velocity": 0.71,
        "hand": "right"
      },
      {
        "midi": 63,
        "time": 28.714,
        "duration": 0.214,
        "velocity": 0.71,
        "hand": "right"
      },
      {
        "midi": 65,
        "time": 28.714,
        "duration": 0.214,
        "velocity": 0.71,
        "hand": "right"
      },
      {
        "midi": 80,
        "time": 28.714,
        "duration": 0.107,
        "velocity": 0.71,
        "hand": "right"
      },
      {
        "midi": 78,
        "time": 28.821,
        "duration": 0.107,
        "velocity": 0.71,
        "hand": "right"
      },
      {
        "midi": 58,
        "time": 28.929,
        "duration": 0.643,
        "velocity": 0.71,
        "hand": "left"
      },
      {
        "midi": 77,
        "time": 28.929,
        "duration": 0.107,
        "velocity": 0.71,
        "hand": "right"
      },
      {
        "midi": 78,
        "time": 29.036,
        "duration": 0.107,
        "velocity": 0.71,
        "hand": "right"
      },
      {
        "midi": 61,
        "time": 29.143,
        "duration": 0.214,
        "velocity": 0.71,
        "hand": "right"
      },
      {
        "midi": 65,
        "time": 29.143,
        "duration": 0.214,
        "velocity": 0.71,
        "hand": "right"
      },
      {
        "midi": 77,
        "time": 29.143,
        "duration": 0.107,
        "velocity": 0.71,
        "hand": "right"
      },
      {
        "midi": 76,
        "time": 29.25,
        "duration": 0.107,
        "velocity": 0.71,
        "hand": "right"
      },
      {
        "midi": 61,
        "time": 29.357,
        "duration": 0.214,
        "velocity": 0.71,
        "hand": "right"
      },
      {
        "midi": 65,
        "time": 29.357,
        "duration": 0.214,
        "velocity": 0.71,
        "hand": "right"
      },
      {
        "midi": 77,
        "time": 29.357,
        "duration": 0.107,
        "velocity": 0.71,
        "hand": "right"
      },
      {
        "midi": 82,
        "time": 29.464,
        "duration": 0.107,
        "velocity": 0.71,
        "hand": "right"
      },
      {
        "midi": 60,
        "time": 29.571,
        "duration": 0.643,
        "velocity": 0.71,
        "hand": "right"
      },
      {
        "midi": 80,
        "time": 29.571,
        "duration": 0.054,
        "velocity": 0.71,
        "hand": "right"
      },
      {
        "midi": 82,
        "time": 29.625,
        "duration": 0.054,
        "velocity": 0.71,
        "hand": "right"
      },
      {
        "midi": 80,
        "time": 29.732,
        "duration": 0.054,
        "velocity": 0.71,
        "hand": "right"
      },
      {
        "midi": 66,
        "time": 29.786,
        "duration": 0.214,
        "velocity": 0.71,
        "hand": "right"
      },
      {
        "midi": 68,
        "time": 29.786,
        "duration": 0.214,
        "velocity": 0.71,
        "hand": "right"
      },
      {
        "midi": 79,
        "time": 29.786,
        "duration": 0.107,
        "velocity": 0.71,
        "hand": "right"
      },
      {
        "midi": 80,
        "time": 29.893,
        "duration": 0.107,
        "velocity": 0.71,
        "hand": "right"
      },
      {
        "midi": 66,
        "time": 30,
        "duration": 0.214,
        "velocity": 0.71,
        "hand": "right"
      },
      {
        "midi": 68,
        "time": 30,
        "duration": 0.214,
        "velocity": 0.71,
        "hand": "right"
      },
      {
        "midi": 84,
        "time": 30,
        "duration": 0.107,
        "velocity": 0.71,
        "hand": "right"
      },
      {
        "midi": 82,
        "time": 30.107,
        "duration": 0.107,
        "velocity": 0.71,
        "hand": "right"
      },
      {
        "midi": 61,
        "time": 30.214,
        "duration": 0.214,
        "velocity": 0.71,
        "hand": "right"
      },
      {
        "midi": 80,
        "time": 30.214,
        "duration": 0.107,
        "velocity": 0.71,
        "hand": "right"
      },
      {
        "midi": 82,
        "time": 30.321,
        "duration": 0.107,
        "velocity": 0.71,
        "hand": "right"
      },
      {
        "midi": 65,
        "time": 30.429,
        "duration": 0.214,
        "velocity": 0.71,
        "hand": "right"
      },
      {
        "midi": 68,
        "time": 30.429,
        "duration": 0.214,
        "velocity": 0.71,
        "hand": "right"
      },
      {
        "midi": 80,
        "time": 30.429,
        "duration": 0.107,
        "velocity": 0.71,
        "hand": "right"
      },
      {
        "midi": 79,
        "time": 30.536,
        "duration": 0.107,
        "velocity": 0.71,
        "hand": "right"
      },
      {
        "midi": 80,
        "time": 30.643,
        "duration": 0.107,
        "velocity": 0.71,
        "hand": "right"
      },
      {
        "midi": 89,
        "time": 30.75,
        "duration": 0.107,
        "velocity": 0.71,
        "hand": "right"
      },
      {
        "midi": 54,
        "time": 30.857,
        "duration": 0.214,
        "velocity": 0.71,
        "hand": "left"
      },
      {
        "midi": 87,
        "time": 30.857,
        "duration": 0.107,
        "velocity": 0.71,
        "hand": "right"
      },
      {
        "midi": 85,
        "time": 30.964,
        "duration": 0.107,
        "velocity": 0.71,
        "hand": "right"
      },
      {
        "midi": 61,
        "time": 31.071,
        "duration": 0.214,
        "velocity": 0.71,
        "hand": "right"
      },
      {
        "midi": 63,
        "time": 31.071,
        "duration": 0.214,
        "velocity": 0.71,
        "hand": "right"
      },
      {
        "midi": 70,
        "time": 31.071,
        "duration": 0.214,
        "velocity": 0.71,
        "hand": "right"
      },
      {
        "midi": 84,
        "time": 31.071,
        "duration": 0.107,
        "velocity": 0.71,
        "hand": "right"
      },
      {
        "midi": 82,
        "time": 31.179,
        "duration": 0.107,
        "velocity": 0.71,
        "hand": "right"
      },
      {
        "midi": 80,
        "time": 31.286,
        "duration": 0.107,
        "velocity": 0.71,
        "hand": "right"
      },
      {
        "midi": 78,
        "time": 31.393,
        "duration": 0.107,
        "velocity": 0.71,
        "hand": "right"
      },
      {
        "midi": 44,
        "time": 31.5,
        "duration": 0.214,
        "velocity": 0.71,
        "hand": "left"
      },
      {
        "midi": 77,
        "time": 31.5,
        "duration": 0.107,
        "velocity": 0.71,
        "hand": "right"
      },
      {
        "midi": 75,
        "time": 31.607,
        "duration": 0.107,
        "velocity": 0.71,
        "hand": "right"
      },
      {
        "midi": 53,
        "time": 31.714,
        "duration": 0.214,
        "velocity": 0.71,
        "hand": "left"
      },
      {
        "midi": 56,
        "time": 31.714,
        "duration": 0.214,
        "velocity": 0.71,
        "hand": "left"
      },
      {
        "midi": 61,
        "time": 31.714,
        "duration": 0.214,
        "velocity": 0.71,
        "hand": "right"
      },
      {
        "midi": 73,
        "time": 31.714,
        "duration": 0.107,
        "velocity": 0.71,
        "hand": "right"
      },
      {
        "midi": 72,
        "time": 31.821,
        "duration": 0.107,
        "velocity": 0.71,
        "hand": "right"
      },
      {
        "midi": 70,
        "time": 31.929,
        "duration": 0.107,
        "velocity": 0.71,
        "hand": "right"
      },
      {
        "midi": 68,
        "time": 32.036,
        "duration": 0.107,
        "velocity": 0.71,
        "hand": "right"
      },
      {
        "midi": 44,
        "time": 32.143,
        "duration": 0.214,
        "velocity": 0.71,
        "hand": "left"
      },
      {
        "midi": 69,
        "time": 32.143,
        "duration": 0.107,
        "velocity": 0.71,
        "hand": "right"
      },
      {
        "midi": 72,
        "time": 32.25,
        "duration": 0.107,
        "velocity": 0.71,
        "hand": "right"
      },
      {
        "midi": 54,
        "time": 32.357,
        "duration": 0.214,
        "velocity": 0.71,
        "hand": "left"
      },
      {
        "midi": 56,
        "time": 32.357,
        "duration": 0.214,
        "velocity": 0.71,
        "hand": "left"
      },
      {
        "midi": 70,
        "time": 32.357,
        "duration": 0.107,
        "velocity": 0.71,
        "hand": "right"
      },
      {
        "midi": 65,
        "time": 32.464,
        "duration": 0.107,
        "velocity": 0.71,
        "hand": "right"
      },
      {
        "midi": 54,
        "time": 32.571,
        "duration": 0.214,
        "velocity": 0.71,
        "hand": "left"
      },
      {
        "midi": 56,
        "time": 32.571,
        "duration": 0.214,
        "velocity": 0.71,
        "hand": "left"
      },
      {
        "midi": 66,
        "time": 32.571,
        "duration": 0.107,
        "velocity": 0.71,
        "hand": "right"
      },
      {
        "midi": 60,
        "time": 32.679,
        "duration": 0.107,
        "velocity": 0.71,
        "hand": "right"
      },
      {
        "midi": 49,
        "time": 32.786,
        "duration": 0.214,
        "velocity": 0.71,
        "hand": "left"
      },
      {
        "midi": 61,
        "time": 32.786,
        "duration": 0.214,
        "velocity": 0.71,
        "hand": "right"
      },
      {
        "midi": 56,
        "time": 33,
        "duration": 0.214,
        "velocity": 0.71,
        "hand": "left"
      },
      {
        "midi": 65,
        "time": 33,
        "duration": 0.214,
        "velocity": 0.71,
        "hand": "right"
      },
      {
        "midi": 68,
        "time": 33.214,
        "duration": 0.643,
        "velocity": 0.71,
        "hand": "right"
      },
      {
        "midi": 44,
        "time": 33.429,
        "duration": 0.214,
        "velocity": 0.71,
        "hand": "left"
      },
      {
        "midi": 54,
        "time": 33.643,
        "duration": 0.214,
        "velocity": 0.71,
        "hand": "left"
      },
      {
        "midi": 56,
        "time": 33.643,
        "duration": 0.214,
        "velocity": 0.71,
        "hand": "left"
      },
      {
        "midi": 60,
        "time": 33.643,
        "duration": 0.214,
        "velocity": 0.71,
        "hand": "right"
      },
      {
        "midi": 54,
        "time": 33.857,
        "duration": 0.214,
        "velocity": 0.71,
        "hand": "left"
      },
      {
        "midi": 56,
        "time": 33.857,
        "duration": 0.214,
        "velocity": 0.71,
        "hand": "left"
      },
      {
        "midi": 60,
        "time": 33.857,
        "duration": 0.214,
        "velocity": 0.71,
        "hand": "right"
      },
      {
        "midi": 63,
        "time": 33.857,
        "duration": 0.214,
        "velocity": 0.71,
        "hand": "right"
      },
      {
        "midi": 54,
        "time": 34.071,
        "duration": 0.214,
        "velocity": 0.71,
        "hand": "left"
      },
      {
        "midi": 56,
        "time": 34.071,
        "duration": 0.214,
        "velocity": 0.71,
        "hand": "left"
      },
      {
        "midi": 60,
        "time": 34.071,
        "duration": 0.214,
        "velocity": 0.71,
        "hand": "right"
      },
      {
        "midi": 68,
        "time": 34.071,
        "duration": 0.429,
        "velocity": 0.71,
        "hand": "right"
      },
      {
        "midi": 54,
        "time": 34.286,
        "duration": 0.214,
        "velocity": 0.71,
        "hand": "left"
      },
      {
        "midi": 56,
        "time": 34.286,
        "duration": 0.214,
        "velocity": 0.71,
        "hand": "left"
      },
      {
        "midi": 60,
        "time": 34.286,
        "duration": 0.214,
        "velocity": 0.71,
        "hand": "right"
      },
      {
        "midi": 54,
        "time": 34.5,
        "duration": 0.214,
        "velocity": 0.71,
        "hand": "left"
      },
      {
        "midi": 56,
        "time": 34.5,
        "duration": 0.214,
        "velocity": 0.71,
        "hand": "left"
      },
      {
        "midi": 60,
        "time": 34.5,
        "duration": 0.214,
        "velocity": 0.71,
        "hand": "right"
      },
      {
        "midi": 64,
        "time": 34.5,
        "duration": 0.214,
        "velocity": 0.71,
        "hand": "right"
      },
      {
        "midi": 49,
        "time": 34.714,
        "duration": 0.214,
        "velocity": 0.71,
        "hand": "left"
      },
      {
        "midi": 68,
        "time": 34.714,
        "duration": 0.429,
        "velocity": 0.71,
        "hand": "right"
      },
      {
        "midi": 56,
        "time": 34.929,
        "duration": 0.214,
        "velocity": 0.71,
        "hand": "left"
      },
      {
        "midi": 61,
        "time": 34.929,
        "duration": 0.214,
        "velocity": 0.71,
        "hand": "right"
      },
      {
        "midi": 56,
        "time": 35.143,
        "duration": 0.214,
        "velocity": 0.71,
        "hand": "left"
      },
      {
        "midi": 61,
        "time": 35.143,
        "duration": 0.214,
        "velocity": 0.71,
        "hand": "right"
      },
      {
        "midi": 65,
        "time": 35.143,
        "duration": 0.214,
        "velocity": 0.71,
        "hand": "right"
      },
      {
        "midi": 44,
        "time": 35.357,
        "duration": 0.214,
        "velocity": 0.71,
        "hand": "left"
      },
      {
        "midi": 77,
        "time": 35.357,
        "duration": 0.429,
        "velocity": 0.71,
        "hand": "right"
      },
      {
        "midi": 56,
        "time": 35.571,
        "duration": 0.214,
        "velocity": 0.71,
        "hand": "left"
      },
      {
        "midi": 61,
        "time": 35.571,
        "duration": 0.214,
        "velocity": 0.71,
        "hand": "right"
      },
      {
        "midi": 65,
        "time": 35.571,
        "duration": 0.214,
        "velocity": 0.71,
        "hand": "right"
      },
      {
        "midi": 56,
        "time": 35.786,
        "duration": 0.214,
        "velocity": 0.71,
        "hand": "left"
      },
      {
        "midi": 61,
        "time": 35.786,
        "duration": 0.214,
        "velocity": 0.71,
        "hand": "right"
      },
      {
        "midi": 65,
        "time": 35.786,
        "duration": 0.214,
        "velocity": 0.71,
        "hand": "right"
      },
      {
        "midi": 77,
        "time": 35.786,
        "duration": 0.643,
        "velocity": 0.71,
        "hand": "right"
      },
      {
        "midi": 51,
        "time": 36,
        "duration": 0.214,
        "velocity": 0.71,
        "hand": "left"
      },
      {
        "midi": 56,
        "time": 36.214,
        "duration": 0.214,
        "velocity": 0.71,
        "hand": "left"
      },
      {
        "midi": 60,
        "time": 36.214,
        "duration": 0.214,
        "velocity": 0.71,
        "hand": "right"
      },
      {
        "midi": 66,
        "time": 36.214,
        "duration": 0.214,
        "velocity": 0.71,
        "hand": "right"
      },
      {
        "midi": 56,
        "time": 36.429,
        "duration": 0.214,
        "velocity": 0.71,
        "hand": "left"
      },
      {
        "midi": 60,
        "time": 36.429,
        "duration": 0.214,
        "velocity": 0.71,
        "hand": "right"
      },
      {
        "midi": 66,
        "time": 36.429,
        "duration": 0.214,
        "velocity": 0.71,
        "hand": "right"
      },
      {
        "midi": 70,
        "time": 36.429,
        "duration": 0.214,
        "velocity": 0.71,
        "hand": "right"
      },
      {
        "midi": 44,
        "time": 36.643,
        "duration": 0.214,
        "velocity": 0.71,
        "hand": "left"
      },
      {
        "midi": 77,
        "time": 36.643,
        "duration": 0.429,
        "velocity": 0.71,
        "hand": "right"
      },
      {
        "midi": 56,
        "time": 36.857,
        "duration": 0.214,
        "velocity": 0.71,
        "hand": "left"
      },
      {
        "midi": 63,
        "time": 36.857,
        "duration": 0.214,
        "velocity": 0.71,
        "hand": "right"
      },
      {
        "midi": 66,
        "time": 36.857,
        "duration": 0.214,
        "velocity": 0.71,
        "hand": "right"
      },
      {
        "midi": 56,
        "time": 37.071,
        "duration": 0.214,
        "velocity": 0.71,
        "hand": "left"
      },
      {
        "midi": 63,
        "time": 37.071,
        "duration": 0.214,
        "velocity": 0.71,
        "hand": "right"
      },
      {
        "midi": 66,
        "time": 37.071,
        "duration": 0.214,
        "velocity": 0.71,
        "hand": "right"
      },
      {
        "midi": 72,
        "time": 37.071,
        "duration": 0.214,
        "velocity": 0.71,
        "hand": "right"
      },
      {
        "midi": 49,
        "time": 37.286,
        "duration": 0.214,
        "velocity": 0.71,
        "hand": "left"
      },
      {
        "midi": 75,
        "time": 37.286,
        "duration": 0.429,
        "velocity": 0.71,
        "hand": "right"
      },
      {
        "midi": 56,
        "time": 37.5,
        "duration": 0.214,
        "velocity": 0.71,
        "hand": "left"
      },
      {
        "midi": 61,
        "time": 37.5,
        "duration": 0.214,
        "velocity": 0.71,
        "hand": "right"
      },
      {
        "midi": 65,
        "time": 37.5,
        "duration": 0.214,
        "velocity": 0.71,
        "hand": "right"
      },
      {
        "midi": 56,
        "time": 37.714,
        "duration": 0.214,
        "velocity": 0.71,
        "hand": "left"
      },
      {
        "midi": 61,
        "time": 37.714,
        "duration": 0.214,
        "velocity": 0.71,
        "hand": "right"
      },
      {
        "midi": 65,
        "time": 37.714,
        "duration": 0.214,
        "velocity": 0.71,
        "hand": "right"
      },
      {
        "midi": 73,
        "time": 37.714,
        "duration": 0.214,
        "velocity": 0.71,
        "hand": "right"
      },
      {
        "midi": 53,
        "time": 37.929,
        "duration": 0.214,
        "velocity": 0.71,
        "hand": "left"
      },
      {
        "midi": 72,
        "time": 37.929,
        "duration": 0.161,
        "velocity": 0.71,
        "hand": "right"
      },
      {
        "midi": 75,
        "time": 38.089,
        "duration": 0.161,
        "velocity": 0.71,
        "hand": "right"
      },
      {
        "midi": 56,
        "time": 38.143,
        "duration": 0.214,
        "velocity": 0.71,
        "hand": "left"
      },
      {
        "midi": 61,
        "time": 38.143,
        "duration": 0.214,
        "velocity": 0.71,
        "hand": "right"
      },
      {
        "midi": 65,
        "time": 38.143,
        "duration": 0.214,
        "velocity": 0.71,
        "hand": "right"
      },
      {
        "midi": 73,
        "time": 38.25,
        "duration": 0.161,
        "velocity": 0.71,
        "hand": "right"
      },
      {
        "midi": 56,
        "time": 38.357,
        "duration": 0.214,
        "velocity": 0.71,
        "hand": "left"
      },
      {
        "midi": 61,
        "time": 38.357,
        "duration": 0.214,
        "velocity": 0.71,
        "hand": "right"
      },
      {
        "midi": 65,
        "time": 38.357,
        "duration": 0.214,
        "velocity": 0.71,
        "hand": "right"
      },
      {
        "midi": 70,
        "time": 38.411,
        "duration": 0.161,
        "velocity": 0.71,
        "hand": "right"
      },
      {
        "midi": 48,
        "time": 38.571,
        "duration": 0.214,
        "velocity": 0.71,
        "hand": "left"
      },
      {
        "midi": 68,
        "time": 38.571,
        "duration": 0.429,
        "velocity": 0.71,
        "hand": "right"
      },
      {
        "midi": 54,
        "time": 38.786,
        "duration": 0.214,
        "velocity": 0.71,
        "hand": "left"
      },
      {
        "midi": 56,
        "time": 38.786,
        "duration": 0.214,
        "velocity": 0.71,
        "hand": "left"
      },
      {
        "midi": 54,
        "time": 39,
        "duration": 0.214,
        "velocity": 0.71,
        "hand": "left"
      },
      {
        "midi": 56,
        "time": 39,
        "duration": 0.214,
        "velocity": 0.71,
        "hand": "left"
      },
      {
        "midi": 63,
        "time": 39,
        "duration": 0.214,
        "velocity": 0.71,
        "hand": "right"
      },
      {
        "midi": 44,
        "time": 39.214,
        "duration": 0.214,
        "velocity": 0.71,
        "hand": "left"
      },
      {
        "midi": 68,
        "time": 39.214,
        "duration": 0.429,
        "velocity": 0.71,
        "hand": "right"
      },
      {
        "midi": 54,
        "time": 39.429,
        "duration": 0.214,
        "velocity": 0.71,
        "hand": "left"
      },
      {
        "midi": 56,
        "time": 39.429,
        "duration": 0.214,
        "velocity": 0.71,
        "hand": "left"
      },
      {
        "midi": 54,
        "time": 39.643,
        "duration": 0.214,
        "velocity": 0.71,
        "hand": "left"
      },
      {
        "midi": 56,
        "time": 39.643,
        "duration": 0.214,
        "velocity": 0.71,
        "hand": "left"
      },
      {
        "midi": 60,
        "time": 39.643,
        "duration": 0.214,
        "velocity": 0.71,
        "hand": "right"
      },
      {
        "midi": 64,
        "time": 39.643,
        "duration": 0.214,
        "velocity": 0.71,
        "hand": "right"
      },
      {
        "midi": 49,
        "time": 39.857,
        "duration": 0.214,
        "velocity": 0.71,
        "hand": "left"
      },
      {
        "midi": 68,
        "time": 39.857,
        "duration": 0.429,
        "velocity": 0.71,
        "hand": "right"
      },
      {
        "midi": 56,
        "time": 40.071,
        "duration": 0.214,
        "velocity": 0.71,
        "hand": "left"
      },
      {
        "midi": 61,
        "time": 40.071,
        "duration": 0.214,
        "velocity": 0.71,
        "hand": "right"
      },
      {
        "midi": 56,
        "time": 40.286,
        "duration": 0.214,
        "velocity": 0.71,
        "hand": "left"
      },
      {
        "midi": 61,
        "time": 40.286,
        "duration": 0.214,
        "velocity": 0.71,
        "hand": "right"
      },
      {
        "midi": 65,
        "time": 40.286,
        "duration": 0.214,
        "velocity": 0.71,
        "hand": "right"
      },
      {
        "midi": 47,
        "time": 40.5,
        "duration": 0.214,
        "velocity": 0.71,
        "hand": "left"
      },
      {
        "midi": 77,
        "time": 40.5,
        "duration": 0.643,
        "velocity": 0.71,
        "hand": "right"
      },
      {
        "midi": 56,
        "time": 40.714,
        "duration": 0.214,
        "velocity": 0.71,
        "hand": "left"
      },
      {
        "midi": 61,
        "time": 40.714,
        "duration": 0.214,
        "velocity": 0.71,
        "hand": "right"
      },
      {
        "midi": 65,
        "time": 40.714,
        "duration": 0.214,
        "velocity": 0.71,
        "hand": "right"
      },
      {
        "midi": 56,
        "time": 40.929,
        "duration": 0.214,
        "velocity": 0.71,
        "hand": "left"
      },
      {
        "midi": 61,
        "time": 40.929,
        "duration": 0.214,
        "velocity": 0.71,
        "hand": "right"
      },
      {
        "midi": 65,
        "time": 40.929,
        "duration": 0.214,
        "velocity": 0.71,
        "hand": "right"
      },
      {
        "midi": 48,
        "time": 41.143,
        "duration": 0.214,
        "velocity": 0.71,
        "hand": "left"
      },
      {
        "midi": 72,
        "time": 41.143,
        "duration": 0.214,
        "velocity": 0.71,
        "hand": "right"
      },
      {
        "midi": 56,
        "time": 41.357,
        "duration": 0.214,
        "velocity": 0.71,
        "hand": "left"
      },
      {
        "midi": 60,
        "time": 41.357,
        "duration": 0.214,
        "velocity": 0.71,
        "hand": "right"
      },
      {
        "midi": 65,
        "time": 41.357,
        "duration": 0.214,
        "velocity": 0.71,
        "hand": "right"
      },
      {
        "midi": 71,
        "time": 41.357,
        "duration": 0.214,
        "velocity": 0.71,
        "hand": "right"
      },
      {
        "midi": 56,
        "time": 41.571,
        "duration": 0.214,
        "velocity": 0.71,
        "hand": "left"
      },
      {
        "midi": 60,
        "time": 41.571,
        "duration": 0.214,
        "velocity": 0.71,
        "hand": "right"
      },
      {
        "midi": 65,
        "time": 41.571,
        "duration": 0.214,
        "velocity": 0.71,
        "hand": "right"
      },
      {
        "midi": 72,
        "time": 41.571,
        "duration": 0.214,
        "velocity": 0.71,
        "hand": "right"
      },
      {
        "midi": 36,
        "time": 41.786,
        "duration": 0.214,
        "velocity": 0.71,
        "hand": "left"
      },
      {
        "midi": 80,
        "time": 41.786,
        "duration": 0.214,
        "velocity": 0.71,
        "hand": "right"
      },
      {
        "midi": 55,
        "time": 42,
        "duration": 0.214,
        "velocity": 0.71,
        "hand": "left"
      },
      {
        "midi": 60,
        "time": 42,
        "duration": 0.214,
        "velocity": 0.71,
        "hand": "right"
      },
      {
        "midi": 64,
        "time": 42,
        "duration": 0.214,
        "velocity": 0.71,
        "hand": "right"
      },
      {
        "midi": 70,
        "time": 42,
        "duration": 0.214,
        "velocity": 0.71,
        "hand": "right"
      },
      {
        "midi": 79,
        "time": 42.214,
        "duration": 0.214,
        "velocity": 0.71,
        "hand": "right"
      },
      {
        "midi": 41,
        "time": 42.429,
        "duration": 0.214,
        "velocity": 0.71,
        "hand": "left"
      },
      {
        "midi": 69,
        "time": 42.429,
        "duration": 0.214,
        "velocity": 0.71,
        "hand": "right"
      },
      {
        "midi": 78,
        "time": 42.643,
        "duration": 0.214,
        "velocity": 0.71,
        "hand": "right"
      },
      {
        "midi": 53,
        "time": 42.857,
        "duration": 0.214,
        "velocity": 0.71,
        "hand": "left"
      },
      {
        "midi": 60,
        "time": 42.857,
        "duration": 0.214,
        "velocity": 0.71,
        "hand": "right"
      },
      {
        "midi": 68,
        "time": 42.857,
        "duration": 0.214,
        "velocity": 0.71,
        "hand": "right"
      },
      {
        "midi": 77,
        "time": 43.071,
        "duration": 0.214,
        "velocity": 0.71,
        "hand": "right"
      },
      {
        "midi": 65,
        "time": 43.286,
        "duration": 0.214,
        "velocity": 0.71,
        "hand": "right"
      },
      {
        "midi": 70,
        "time": 43.5,
        "duration": 0.214,
        "velocity": 0.71,
        "hand": "right"
      },
      {
        "midi": 48,
        "time": 43.714,
        "duration": 0.214,
        "velocity": 0.71,
        "hand": "left"
      },
      {
        "midi": 68,
        "time": 43.714,
        "duration": 0.429,
        "velocity": 0.71,
        "hand": "right"
      },
      {
        "midi": 54,
        "time": 43.929,
        "duration": 0.214,
        "velocity": 0.71,
        "hand": "left"
      },
      {
        "midi": 56,
        "time": 43.929,
        "duration": 0.214,
        "velocity": 0.71,
        "hand": "left"
      },
      {
        "midi": 54,
        "time": 44.143,
        "duration": 0.214,
        "velocity": 0.71,
        "hand": "left"
      },
      {
        "midi": 56,
        "time": 44.143,
        "duration": 0.214,
        "velocity": 0.71,
        "hand": "left"
      },
      {
        "midi": 63,
        "time": 44.143,
        "duration": 0.214,
        "velocity": 0.71,
        "hand": "right"
      },
      {
        "midi": 44,
        "time": 44.357,
        "duration": 0.214,
        "velocity": 0.71,
        "hand": "left"
      },
      {
        "midi": 68,
        "time": 44.357,
        "duration": 0.429,
        "velocity": 0.71,
        "hand": "right"
      },
      {
        "midi": 80,
        "time": 44.357,
        "duration": 0.027,
        "velocity": 0.71,
        "hand": "right"
      },
      {
        "midi": 54,
        "time": 44.571,
        "duration": 0.214,
        "velocity": 0.71,
        "hand": "left"
      },
      {
        "midi": 56,
        "time": 44.571,
        "duration": 0.214,
        "velocity": 0.71,
        "hand": "left"
      },
      {
        "midi": 60,
        "time": 44.571,
        "duration": 0.214,
        "velocity": 0.71,
        "hand": "right"
      },
      {
        "midi": 54,
        "time": 44.786,
        "duration": 0.214,
        "velocity": 0.71,
        "hand": "left"
      },
      {
        "midi": 56,
        "time": 44.786,
        "duration": 0.214,
        "velocity": 0.71,
        "hand": "left"
      },
      {
        "midi": 60,
        "time": 44.786,
        "duration": 0.214,
        "velocity": 0.71,
        "hand": "right"
      },
      {
        "midi": 64,
        "time": 44.786,
        "duration": 0.214,
        "velocity": 0.71,
        "hand": "right"
      },
      {
        "midi": 49,
        "time": 45,
        "duration": 0.214,
        "velocity": 0.71,
        "hand": "left"
      },
      {
        "midi": 68,
        "time": 45,
        "duration": 0.429,
        "velocity": 0.71,
        "hand": "right"
      },
      {
        "midi": 80,
        "time": 45,
        "duration": 0.027,
        "velocity": 0.71,
        "hand": "right"
      },
      {
        "midi": 56,
        "time": 45.214,
        "duration": 0.214,
        "velocity": 0.71,
        "hand": "left"
      },
      {
        "midi": 61,
        "time": 45.214,
        "duration": 0.214,
        "velocity": 0.71,
        "hand": "right"
      },
      {
        "midi": 56,
        "time": 45.429,
        "duration": 0.214,
        "velocity": 0.71,
        "hand": "left"
      },
      {
        "midi": 61,
        "time": 45.429,
        "duration": 0.214,
        "velocity": 0.71,
        "hand": "right"
      },
      {
        "midi": 65,
        "time": 45.429,
        "duration": 0.214,
        "velocity": 0.71,
        "hand": "right"
      },
      {
        "midi": 44,
        "time": 45.643,
        "duration": 0.214,
        "velocity": 0.71,
        "hand": "left"
      },
      {
        "midi": 77,
        "time": 45.643,
        "duration": 0.429,
        "velocity": 0.71,
        "hand": "right"
      },
      {
        "midi": 80,
        "time": 45.643,
        "duration": 0.027,
        "velocity": 0.71,
        "hand": "right"
      },
      {
        "midi": 56,
        "time": 45.857,
        "duration": 0.214,
        "velocity": 0.71,
        "hand": "left"
      },
      {
        "midi": 61,
        "time": 45.857,
        "duration": 0.214,
        "velocity": 0.71,
        "hand": "right"
      },
      {
        "midi": 65,
        "time": 45.857,
        "duration": 0.214,
        "velocity": 0.71,
        "hand": "right"
      },
      {
        "midi": 56,
        "time": 46.071,
        "duration": 0.214,
        "velocity": 0.71,
        "hand": "left"
      },
      {
        "midi": 61,
        "time": 46.071,
        "duration": 0.214,
        "velocity": 0.71,
        "hand": "right"
      },
      {
        "midi": 65,
        "time": 46.071,
        "duration": 0.214,
        "velocity": 0.71,
        "hand": "right"
      },
      {
        "midi": 77,
        "time": 46.071,
        "duration": 0.214,
        "velocity": 0.71,
        "hand": "right"
      },
      {
        "midi": 51,
        "time": 46.286,
        "duration": 0.214,
        "velocity": 0.71,
        "hand": "left"
      },
      {
        "midi": 77,
        "time": 46.286,
        "duration": 0.429,
        "velocity": 0.71,
        "hand": "right"
      },
      {
        "midi": 80,
        "time": 46.286,
        "duration": 0.027,
        "velocity": 0.71,
        "hand": "right"
      },
      {
        "midi": 56,
        "time": 46.5,
        "duration": 0.214,
        "velocity": 0.71,
        "hand": "left"
      },
      {
        "midi": 60,
        "time": 46.5,
        "duration": 0.214,
        "velocity": 0.71,
        "hand": "right"
      },
      {
        "midi": 66,
        "time": 46.5,
        "duration": 0.214,
        "velocity": 0.71,
        "hand": "right"
      },
      {
        "midi": 56,
        "time": 46.714,
        "duration": 0.214,
        "velocity": 0.71,
        "hand": "left"
      },
      {
        "midi": 60,
        "time": 46.714,
        "duration": 0.214,
        "velocity": 0.71,
        "hand": "right"
      },
      {
        "midi": 66,
        "time": 46.714,
        "duration": 0.214,
        "velocity": 0.71,
        "hand": "right"
      },
      {
        "midi": 70,
        "time": 46.714,
        "duration": 0.214,
        "velocity": 0.71,
        "hand": "right"
      },
      {
        "midi": 44,
        "time": 46.929,
        "duration": 0.214,
        "velocity": 0.71,
        "hand": "left"
      },
      {
        "midi": 77,
        "time": 46.929,
        "duration": 0.429,
        "velocity": 0.71,
        "hand": "right"
      },
      {
        "midi": 80,
        "time": 46.929,
        "duration": 0.027,
        "velocity": 0.71,
        "hand": "right"
      },
      {
        "midi": 56,
        "time": 47.143,
        "duration": 0.214,
        "velocity": 0.71,
        "hand": "left"
      },
      {
        "midi": 63,
        "time": 47.143,
        "duration": 0.214,
        "velocity": 0.71,
        "hand": "right"
      },
      {
        "midi": 66,
        "time": 47.143,
        "duration": 0.214,
        "velocity": 0.71,
        "hand": "right"
      },
      {
        "midi": 56,
        "time": 47.357,
        "duration": 0.214,
        "velocity": 0.71,
        "hand": "left"
      },
      {
        "midi": 63,
        "time": 47.357,
        "duration": 0.214,
        "velocity": 0.71,
        "hand": "right"
      },
      {
        "midi": 66,
        "time": 47.357,
        "duration": 0.214,
        "velocity": 0.71,
        "hand": "right"
      },
      {
        "midi": 72,
        "time": 47.357,
        "duration": 0.214,
        "velocity": 0.71,
        "hand": "right"
      },
      {
        "midi": 49,
        "time": 47.571,
        "duration": 0.214,
        "velocity": 0.71,
        "hand": "left"
      },
      {
        "midi": 75,
        "time": 47.571,
        "duration": 0.214,
        "velocity": 0.71,
        "hand": "right"
      },
      {
        "midi": 80,
        "time": 47.571,
        "duration": 0.027,
        "velocity": 0.71,
        "hand": "right"
      },
      {
        "midi": 56,
        "time": 47.786,
        "duration": 0.214,
        "velocity": 0.71,
        "hand": "left"
      },
      {
        "midi": 61,
        "time": 47.786,
        "duration": 0.214,
        "velocity": 0.71,
        "hand": "right"
      },
      {
        "midi": 65,
        "time": 47.786,
        "duration": 0.214,
        "velocity": 0.71,
        "hand": "right"
      },
      {
        "midi": 73,
        "time": 47.786,
        "duration": 0.214,
        "velocity": 0.71,
        "hand": "right"
      },
      {
        "midi": 56,
        "time": 48,
        "duration": 0.214,
        "velocity": 0.71,
        "hand": "left"
      },
      {
        "midi": 61,
        "time": 48,
        "duration": 0.214,
        "velocity": 0.71,
        "hand": "right"
      },
      {
        "midi": 65,
        "time": 48,
        "duration": 0.214,
        "velocity": 0.71,
        "hand": "right"
      },
      {
        "midi": 72,
        "time": 48,
        "duration": 0.214,
        "velocity": 0.71,
        "hand": "right"
      },
      {
        "midi": 53,
        "time": 48.214,
        "duration": 0.214,
        "velocity": 0.71,
        "hand": "left"
      },
      {
        "midi": 75,
        "time": 48.214,
        "duration": 0.214,
        "velocity": 0.71,
        "hand": "right"
      },
      {
        "midi": 80,
        "time": 48.214,
        "duration": 0.027,
        "velocity": 0.71,
        "hand": "right"
      },
      {
        "midi": 56,
        "time": 48.429,
        "duration": 0.214,
        "velocity": 0.71,
        "hand": "left"
      },
      {
        "midi": 61,
        "time": 48.429,
        "duration": 0.214,
        "velocity": 0.71,
        "hand": "right"
      },
      {
        "midi": 65,
        "time": 48.429,
        "duration": 0.214,
        "velocity": 0.71,
        "hand": "right"
      },
      {
        "midi": 73,
        "time": 48.429,
        "duration": 0.321,
        "velocity": 0.71,
        "hand": "right"
      },
      {
        "midi": 56,
        "time": 48.643,
        "duration": 0.214,
        "velocity": 0.71,
        "hand": "left"
      },
      {
        "midi": 61,
        "time": 48.643,
        "duration": 0.214,
        "velocity": 0.71,
        "hand": "right"
      },
      {
        "midi": 65,
        "time": 48.643,
        "duration": 0.214,
        "velocity": 0.71,
        "hand": "right"
      },
      {
        "midi": 70,
        "time": 48.75,
        "duration": 0.107,
        "velocity": 0.71,
        "hand": "right"
      },
      {
        "midi": 48,
        "time": 48.857,
        "duration": 0.643,
        "velocity": 0.71,
        "hand": "left"
      },
      {
        "midi": 68,
        "time": 48.857,
        "duration": 0.429,
        "velocity": 0.71,
        "hand": "right"
      },
      {
        "midi": 80,
        "time": 48.857,
        "duration": 0.027,
        "velocity": 0.71,
        "hand": "right"
      },
      {
        "midi": 54,
        "time": 49.071,
        "duration": 0.214,
        "velocity": 0.71,
        "hand": "left"
      },
      {
        "midi": 56,
        "time": 49.071,
        "duration": 0.214,
        "velocity": 0.71,
        "hand": "left"
      },
      {
        "midi": 54,
        "time": 49.286,
        "duration": 0.214,
        "velocity": 0.71,
        "hand": "left"
      },
      {
        "midi": 56,
        "time": 49.286,
        "duration": 0.214,
        "velocity": 0.71,
        "hand": "left"
      },
      {
        "midi": 63,
        "time": 49.286,
        "duration": 0.214,
        "velocity": 0.71,
        "hand": "right"
      },
      {
        "midi": 44,
        "time": 49.5,
        "duration": 0.214,
        "velocity": 0.71,
        "hand": "left"
      },
      {
        "midi": 68,
        "time": 49.5,
        "duration": 0.429,
        "velocity": 0.71,
        "hand": "right"
      },
      {
        "midi": 80,
        "time": 49.5,
        "duration": 0.027,
        "velocity": 0.71,
        "hand": "right"
      },
      {
        "midi": 54,
        "time": 49.714,
        "duration": 0.214,
        "velocity": 0.71,
        "hand": "left"
      },
      {
        "midi": 56,
        "time": 49.714,
        "duration": 0.214,
        "velocity": 0.71,
        "hand": "left"
      },
      {
        "midi": 60,
        "time": 49.714,
        "duration": 0.214,
        "velocity": 0.71,
        "hand": "right"
      },
      {
        "midi": 54,
        "time": 49.929,
        "duration": 0.214,
        "velocity": 0.71,
        "hand": "left"
      },
      {
        "midi": 56,
        "time": 49.929,
        "duration": 0.214,
        "velocity": 0.71,
        "hand": "left"
      },
      {
        "midi": 60,
        "time": 49.929,
        "duration": 0.214,
        "velocity": 0.71,
        "hand": "right"
      },
      {
        "midi": 64,
        "time": 49.929,
        "duration": 0.214,
        "velocity": 0.71,
        "hand": "right"
      },
      {
        "midi": 47,
        "time": 50.143,
        "duration": 0.214,
        "velocity": 0.71,
        "hand": "left"
      },
      {
        "midi": 68,
        "time": 50.143,
        "duration": 0.429,
        "velocity": 0.71,
        "hand": "right"
      },
      {
        "midi": 80,
        "time": 50.143,
        "duration": 0.027,
        "velocity": 0.71,
        "hand": "right"
      },
      {
        "midi": 53,
        "time": 50.357,
        "duration": 0.214,
        "velocity": 0.71,
        "hand": "left"
      },
      {
        "midi": 56,
        "time": 50.357,
        "duration": 0.214,
        "velocity": 0.71,
        "hand": "left"
      },
      {
        "midi": 63,
        "time": 50.357,
        "duration": 0.214,
        "velocity": 0.71,
        "hand": "right"
      },
      {
        "midi": 53,
        "time": 50.571,
        "duration": 0.214,
        "velocity": 0.71,
        "hand": "left"
      },
      {
        "midi": 56,
        "time": 50.571,
        "duration": 0.214,
        "velocity": 0.71,
        "hand": "left"
      },
      {
        "midi": 63,
        "time": 50.571,
        "duration": 0.214,
        "velocity": 0.71,
        "hand": "right"
      },
      {
        "midi": 65,
        "time": 50.571,
        "duration": 0.214,
        "velocity": 0.71,
        "hand": "right"
      },
      {
        "midi": 46,
        "time": 50.786,
        "duration": 0.214,
        "velocity": 0.71,
        "hand": "left"
      },
      {
        "midi": 77,
        "time": 50.786,
        "duration": 0.643,
        "velocity": 0.71,
        "hand": "right"
      },
      {
        "midi": 53,
        "time": 51,
        "duration": 0.214,
        "velocity": 0.71,
        "hand": "left"
      },
      {
        "midi": 56,
        "time": 51,
        "duration": 0.214,
        "velocity": 0.71,
        "hand": "left"
      },
      {
        "midi": 62,
        "time": 51,
        "duration": 0.214,
        "velocity": 0.71,
        "hand": "right"
      },
      {
        "midi": 53,
        "time": 51.214,
        "duration": 0.214,
        "velocity": 0.71,
        "hand": "left"
      },
      {
        "midi": 56,
        "time": 51.214,
        "duration": 0.214,
        "velocity": 0.71,
        "hand": "left"
      },
      {
        "midi": 62,
        "time": 51.214,
        "duration": 0.214,
        "velocity": 0.71,
        "hand": "right"
      },
      {
        "midi": 51,
        "time": 51.429,
        "duration": 0.214,
        "velocity": 0.71,
        "hand": "left"
      },
      {
        "midi": 77,
        "time": 51.429,
        "duration": 0.429,
        "velocity": 0.71,
        "hand": "right"
      },
      {
        "midi": 61,
        "time": 51.643,
        "duration": 0.214,
        "velocity": 0.71,
        "hand": "right"
      },
      {
        "midi": 67,
        "time": 51.643,
        "duration": 0.214,
        "velocity": 0.71,
        "hand": "right"
      },
      {
        "midi": 61,
        "time": 51.857,
        "duration": 0.214,
        "velocity": 0.71,
        "hand": "right"
      },
      {
        "midi": 67,
        "time": 51.857,
        "duration": 0.214,
        "velocity": 0.71,
        "hand": "right"
      },
      {
        "midi": 70,
        "time": 51.857,
        "duration": 0.214,
        "velocity": 0.71,
        "hand": "right"
      },
      {
        "midi": 75,
        "time": 52.071,
        "duration": 0.429,
        "velocity": 0.71,
        "hand": "right"
      },
      {
        "midi": 61,
        "time": 52.286,
        "duration": 0.214,
        "velocity": 0.71,
        "hand": "right"
      },
      {
        "midi": 66,
        "time": 52.286,
        "duration": 0.214,
        "velocity": 0.71,
        "hand": "right"
      },
      {
        "midi": 61,
        "time": 52.5,
        "duration": 0.214,
        "velocity": 0.71,
        "hand": "right"
      },
      {
        "midi": 66,
        "time": 52.5,
        "duration": 0.214,
        "velocity": 0.71,
        "hand": "right"
      },
      {
        "midi": 69,
        "time": 52.5,
        "duration": 0.214,
        "velocity": 0.71,
        "hand": "right"
      },
      {
        "midi": 56,
        "time": 52.714,
        "duration": 0.429,
        "velocity": 0.71,
        "hand": "left"
      },
      {
        "midi": 75,
        "time": 52.714,
        "duration": 0.214,
        "velocity": 0.71,
        "hand": "right"
      },
      {
        "midi": 60,
        "time": 52.929,
        "duration": 0.214,
        "velocity": 0.71,
        "hand": "right"
      },
      {
        "midi": 66,
        "time": 52.929,
        "duration": 0.214,
        "velocity": 0.71,
        "hand": "right"
      },
      {
        "midi": 68,
        "time": 52.929,
        "duration": 0.214,
        "velocity": 0.71,
        "hand": "right"
      },
      {
        "midi": 74,
        "time": 53.143,
        "duration": 0.214,
        "velocity": 0.71,
        "hand": "right"
      },
      {
        "midi": 77,
        "time": 53.357,
        "duration": 0.214,
        "velocity": 0.71,
        "hand": "right"
      },
      {
        "midi": 75,
        "time": 53.571,
        "duration": 0.214,
        "velocity": 0.71,
        "hand": "right"
      },
      {
        "midi": 80,
        "time": 53.786,
        "duration": 0.214,
        "velocity": 0.71,
        "hand": "right"
      },
      {
        "midi": 68,
        "time": 54,
        "duration": 2.571,
        "velocity": 0.71,
        "hand": "right"
      },
      {
        "midi": 67,
        "time": 56.571,
        "duration": 0.107,
        "velocity": 0.71,
        "hand": "right"
      },
      {
        "midi": 68,
        "time": 56.679,
        "duration": 0.107,
        "velocity": 0.71,
        "hand": "right"
      },
      {
        "midi": 72,
        "time": 56.786,
        "duration": 0.107,
        "velocity": 0.71,
        "hand": "right"
      },
      {
        "midi": 70,
        "time": 56.893,
        "duration": 0.107,
        "velocity": 0.71,
        "hand": "right"
      },
      {
        "midi": 67,
        "time": 57,
        "duration": 0.107,
        "velocity": 0.71,
        "hand": "right"
      },
      {
        "midi": 68,
        "time": 57.107,
        "duration": 0.107,
        "velocity": 0.71,
        "hand": "right"
      },
      {
        "midi": 72,
        "time": 57.214,
        "duration": 0.107,
        "velocity": 0.71,
        "hand": "right"
      },
      {
        "midi": 70,
        "time": 57.321,
        "duration": 0.107,
        "velocity": 0.71,
        "hand": "right"
      },
      {
        "midi": 67,
        "time": 57.429,
        "duration": 0.107,
        "velocity": 0.71,
        "hand": "right"
      },
      {
        "midi": 68,
        "time": 57.536,
        "duration": 0.107,
        "velocity": 0.71,
        "hand": "right"
      },
      {
        "midi": 72,
        "time": 57.643,
        "duration": 0.107,
        "velocity": 0.71,
        "hand": "right"
      },
      {
        "midi": 70,
        "time": 57.75,
        "duration": 0.107,
        "velocity": 0.71,
        "hand": "right"
      },
      {
        "midi": 67,
        "time": 57.857,
        "duration": 0.107,
        "velocity": 0.71,
        "hand": "right"
      },
      {
        "midi": 68,
        "time": 57.964,
        "duration": 0.107,
        "velocity": 0.71,
        "hand": "right"
      },
      {
        "midi": 72,
        "time": 58.071,
        "duration": 0.107,
        "velocity": 0.71,
        "hand": "right"
      },
      {
        "midi": 70,
        "time": 58.179,
        "duration": 0.107,
        "velocity": 0.71,
        "hand": "right"
      },
      {
        "midi": 67,
        "time": 58.286,
        "duration": 0.107,
        "velocity": 0.71,
        "hand": "right"
      },
      {
        "midi": 68,
        "time": 58.393,
        "duration": 0.107,
        "velocity": 0.71,
        "hand": "right"
      },
      {
        "midi": 72,
        "time": 58.5,
        "duration": 0.107,
        "velocity": 0.71,
        "hand": "right"
      },
      {
        "midi": 70,
        "time": 58.607,
        "duration": 0.107,
        "velocity": 0.71,
        "hand": "right"
      },
      {
        "midi": 67,
        "time": 58.714,
        "duration": 0.107,
        "velocity": 0.71,
        "hand": "right"
      },
      {
        "midi": 68,
        "time": 58.821,
        "duration": 0.107,
        "velocity": 0.71,
        "hand": "right"
      },
      {
        "midi": 72,
        "time": 58.929,
        "duration": 0.107,
        "velocity": 0.71,
        "hand": "right"
      },
      {
        "midi": 70,
        "time": 59.036,
        "duration": 0.107,
        "velocity": 0.71,
        "hand": "right"
      },
      {
        "midi": 37,
        "time": 59.143,
        "duration": 0.214,
        "velocity": 0.71,
        "hand": "left"
      },
      {
        "midi": 67,
        "time": 59.143,
        "duration": 0.107,
        "velocity": 0.71,
        "hand": "right"
      },
      {
        "midi": 68,
        "time": 59.25,
        "duration": 0.107,
        "velocity": 0.71,
        "hand": "right"
      },
      {
        "midi": 56,
        "time": 59.357,
        "duration": 0.214,
        "velocity": 0.71,
        "hand": "left"
      },
      {
        "midi": 61,
        "time": 59.357,
        "duration": 0.214,
        "velocity": 0.71,
        "hand": "right"
      },
      {
        "midi": 65,
        "time": 59.357,
        "duration": 0.214,
        "velocity": 0.71,
        "hand": "right"
      },
      {
        "midi": 72,
        "time": 59.357,
        "duration": 0.107,
        "velocity": 0.71,
        "hand": "right"
      },
      {
        "midi": 70,
        "time": 59.464,
        "duration": 0.107,
        "velocity": 0.71,
        "hand": "right"
      },
      {
        "midi": 56,
        "time": 59.571,
        "duration": 0.214,
        "velocity": 0.71,
        "hand": "left"
      },
      {
        "midi": 61,
        "time": 59.571,
        "duration": 0.214,
        "velocity": 0.71,
        "hand": "right"
      },
      {
        "midi": 65,
        "time": 59.571,
        "duration": 0.214,
        "velocity": 0.71,
        "hand": "right"
      },
      {
        "midi": 67,
        "time": 59.571,
        "duration": 0.107,
        "velocity": 0.71,
        "hand": "right"
      },
      {
        "midi": 68,
        "time": 59.679,
        "duration": 0.107,
        "velocity": 0.71,
        "hand": "right"
      },
      {
        "midi": 53,
        "time": 59.786,
        "duration": 0.214,
        "velocity": 0.71,
        "hand": "left"
      },
      {
        "midi": 72,
        "time": 59.786,
        "duration": 0.107,
        "velocity": 0.71,
        "hand": "right"
      },
      {
        "midi": 70,
        "time": 59.893,
        "duration": 0.107,
        "velocity": 0.71,
        "hand": "right"
      },
      {
        "midi": 56,
        "time": 60,
        "duration": 0.214,
        "velocity": 0.71,
        "hand": "left"
      },
      {
        "midi": 61,
        "time": 60,
        "duration": 0.214,
        "velocity": 0.71,
        "hand": "right"
      },
      {
        "midi": 65,
        "time": 60,
        "duration": 0.214,
        "velocity": 0.71,
        "hand": "right"
      },
      {
        "midi": 67,
        "time": 60,
        "duration": 0.107,
        "velocity": 0.71,
        "hand": "right"
      },
      {
        "midi": 68,
        "time": 60.107,
        "duration": 0.107,
        "velocity": 0.71,
        "hand": "right"
      },
      {
        "midi": 56,
        "time": 60.214,
        "duration": 0.214,
        "velocity": 0.71,
        "hand": "left"
      },
      {
        "midi": 61,
        "time": 60.214,
        "duration": 0.214,
        "velocity": 0.71,
        "hand": "right"
      },
      {
        "midi": 65,
        "time": 60.214,
        "duration": 0.214,
        "velocity": 0.71,
        "hand": "right"
      },
      {
        "midi": 72,
        "time": 60.214,
        "duration": 0.107,
        "velocity": 0.71,
        "hand": "right"
      },
      {
        "midi": 70,
        "time": 60.321,
        "duration": 0.107,
        "velocity": 0.71,
        "hand": "right"
      },
      {
        "midi": 49,
        "time": 60.429,
        "duration": 0.214,
        "velocity": 0.71,
        "hand": "left"
      },
      {
        "midi": 67,
        "time": 60.429,
        "duration": 0.107,
        "velocity": 0.71,
        "hand": "right"
      },
      {
        "midi": 68,
        "time": 60.536,
        "duration": 0.107,
        "velocity": 0.71,
        "hand": "right"
      },
      {
        "midi": 56,
        "time": 60.643,
        "duration": 0.214,
        "velocity": 0.71,
        "hand": "left"
      },
      {
        "midi": 61,
        "time": 60.643,
        "duration": 0.214,
        "velocity": 0.71,
        "hand": "right"
      },
      {
        "midi": 65,
        "time": 60.643,
        "duration": 0.214,
        "velocity": 0.71,
        "hand": "right"
      },
      {
        "midi": 72,
        "time": 60.643,
        "duration": 0.107,
        "velocity": 0.71,
        "hand": "right"
      },
      {
        "midi": 70,
        "time": 60.75,
        "duration": 0.107,
        "velocity": 0.71,
        "hand": "right"
      },
      {
        "midi": 56,
        "time": 60.857,
        "duration": 0.214,
        "velocity": 0.71,
        "hand": "left"
      },
      {
        "midi": 61,
        "time": 60.857,
        "duration": 0.214,
        "velocity": 0.71,
        "hand": "right"
      },
      {
        "midi": 65,
        "time": 60.857,
        "duration": 0.214,
        "velocity": 0.71,
        "hand": "right"
      },
      {
        "midi": 67,
        "time": 60.857,
        "duration": 0.107,
        "velocity": 0.71,
        "hand": "right"
      },
      {
        "midi": 68,
        "time": 60.964,
        "duration": 0.107,
        "velocity": 0.71,
        "hand": "right"
      },
      {
        "midi": 53,
        "time": 61.071,
        "duration": 0.214,
        "velocity": 0.71,
        "hand": "left"
      },
      {
        "midi": 70,
        "time": 61.071,
        "duration": 0.107,
        "velocity": 0.71,
        "hand": "right"
      },
      {
        "midi": 72,
        "time": 61.179,
        "duration": 0.107,
        "velocity": 0.71,
        "hand": "right"
      },
      {
        "midi": 56,
        "time": 61.286,
        "duration": 0.214,
        "velocity": 0.71,
        "hand": "left"
      },
      {
        "midi": 61,
        "time": 61.286,
        "duration": 0.214,
        "velocity": 0.71,
        "hand": "right"
      },
      {
        "midi": 65,
        "time": 61.286,
        "duration": 0.214,
        "velocity": 0.71,
        "hand": "right"
      },
      {
        "midi": 73,
        "time": 61.286,
        "duration": 0.107,
        "velocity": 0.71,
        "hand": "right"
      },
      {
        "midi": 75,
        "time": 61.393,
        "duration": 0.107,
        "velocity": 0.71,
        "hand": "right"
      },
      {
        "midi": 56,
        "time": 61.5,
        "duration": 0.214,
        "velocity": 0.71,
        "hand": "left"
      },
      {
        "midi": 61,
        "time": 61.5,
        "duration": 0.214,
        "velocity": 0.71,
        "hand": "right"
      },
      {
        "midi": 65,
        "time": 61.5,
        "duration": 0.214,
        "velocity": 0.71,
        "hand": "right"
      },
      {
        "midi": 77,
        "time": 61.5,
        "duration": 0.107,
        "velocity": 0.71,
        "hand": "right"
      },
      {
        "midi": 78,
        "time": 61.607,
        "duration": 0.107,
        "velocity": 0.71,
        "hand": "right"
      },
      {
        "midi": 44,
        "time": 61.714,
        "duration": 0.214,
        "velocity": 0.71,
        "hand": "left"
      },
      {
        "midi": 82,
        "time": 61.714,
        "duration": 0.321,
        "velocity": 0.71,
        "hand": "right"
      },
      {
        "midi": 56,
        "time": 61.929,
        "duration": 0.214,
        "velocity": 0.71,
        "hand": "left"
      },
      {
        "midi": 60,
        "time": 61.929,
        "duration": 0.214,
        "velocity": 0.71,
        "hand": "right"
      },
      {
        "midi": 66,
        "time": 61.929,
        "duration": 0.214,
        "velocity": 0.71,
        "hand": "right"
      },
      {
        "midi": 80,
        "time": 62.036,
        "duration": 0.107,
        "velocity": 0.71,
        "hand": "right"
      },
      {
        "midi": 56,
        "time": 62.143,
        "duration": 0.214,
        "velocity": 0.71,
        "hand": "left"
      },
      {
        "midi": 60,
        "time": 62.143,
        "duration": 0.214,
        "velocity": 0.71,
        "hand": "right"
      },
      {
        "midi": 66,
        "time": 62.143,
        "duration": 0.214,
        "velocity": 0.71,
        "hand": "right"
      },
      {
        "midi": 78,
        "time": 62.143,
        "duration": 0.107,
        "velocity": 0.71,
        "hand": "right"
      },
      {
        "midi": 77,
        "time": 62.25,
        "duration": 0.107,
        "velocity": 0.71,
        "hand": "right"
      },
      {
        "midi": 51,
        "time": 62.357,
        "duration": 0.214,
        "velocity": 0.71,
        "hand": "left"
      },
      {
        "midi": 77,
        "time": 62.357,
        "duration": 0.107,
        "velocity": 0.71,
        "hand": "right"
      },
      {
        "midi": 75,
        "time": 62.464,
        "duration": 0.107,
        "velocity": 0.71,
        "hand": "right"
      },
      {
        "midi": 56,
        "time": 62.571,
        "duration": 0.214,
        "velocity": 0.71,
        "hand": "left"
      },
      {
        "midi": 60,
        "time": 62.571,
        "duration": 0.214,
        "velocity": 0.71,
        "hand": "right"
      },
      {
        "midi": 66,
        "time": 62.571,
        "duration": 0.214,
        "velocity": 0.71,
        "hand": "right"
      },
      {
        "midi": 75,
        "time": 62.571,
        "duration": 0.107,
        "velocity": 0.71,
        "hand": "right"
      },
      {
        "midi": 74,
        "time": 62.679,
        "duration": 0.107,
        "velocity": 0.71,
        "hand": "right"
      },
      {
        "midi": 56,
        "time": 62.786,
        "duration": 0.214,
        "velocity": 0.71,
        "hand": "left"
      },
      {
        "midi": 60,
        "time": 62.786,
        "duration": 0.214,
        "velocity": 0.71,
        "hand": "right"
      },
      {
        "midi": 66,
        "time": 62.786,
        "duration": 0.214,
        "velocity": 0.71,
        "hand": "right"
      },
      {
        "midi": 75,
        "time": 62.786,
        "duration": 0.214,
        "velocity": 0.71,
        "hand": "right"
      },
      {
        "midi": 44,
        "time": 63,
        "duration": 0.214,
        "velocity": 0.71,
        "hand": "left"
      },
      {
        "midi": 82,
        "time": 63,
        "duration": 0.321,
        "velocity": 0.71,
        "hand": "right"
      },
      {
        "midi": 60,
        "time": 63.214,
        "duration": 0.214,
        "velocity": 0.71,
        "hand": "right"
      },
      {
        "midi": 66,
        "time": 63.214,
        "duration": 0.214,
        "velocity": 0.71,
        "hand": "right"
      },
      {
        "midi": 80,
        "time": 63.321,
        "duration": 0.107,
        "velocity": 0.71,
        "hand": "right"
      },
      {
        "midi": 60,
        "time": 63.429,
        "duration": 0.214,
        "velocity": 0.71,
        "hand": "right"
      },
      {
        "midi": 66,
        "time": 63.429,
        "duration": 0.214,
        "velocity": 0.71,
        "hand": "right"
      },
      {
        "midi": 78,
        "time": 63.429,
        "duration": 0.107,
        "velocity": 0.71,
        "hand": "right"
      },
      {
        "midi": 77,
        "time": 63.536,
        "duration": 0.107,
        "velocity": 0.71,
        "hand": "right"
      },
      {
        "midi": 56,
        "time": 63.643,
        "duration": 0.214,
        "velocity": 0.71,
        "hand": "left"
      },
      {
        "midi": 77,
        "time": 63.643,
        "duration": 0.107,
        "velocity": 0.71,
        "hand": "right"
      },
      {
        "midi": 75,
        "time": 63.75,
        "duration": 0.107,
        "velocity": 0.71,
        "hand": "right"
      },
      {
        "midi": 60,
        "time": 63.857,
        "duration": 0.214,
        "velocity": 0.71,
        "hand": "right"
      },
      {
        "midi": 66,
        "time": 63.857,
        "duration": 0.214,
        "velocity": 0.71,
        "hand": "right"
      },
      {
        "midi": 74,
        "time": 63.857,
        "duration": 0.107,
        "velocity": 0.71,
        "hand": "right"
      },
      {
        "midi": 75,
        "time": 63.964,
        "duration": 0.107,
        "velocity": 0.71,
        "hand": "right"
      },
      {
        "midi": 60,
        "time": 64.071,
        "duration": 0.214,
        "velocity": 0.71,
        "hand": "right"
      },
      {
        "midi": 66,
        "time": 64.071,
        "duration": 0.214,
        "velocity": 0.71,
        "hand": "right"
      },
      {
        "midi": 77,
        "time": 64.071,
        "duration": 0.107,
        "velocity": 0.71,
        "hand": "right"
      },
      {
        "midi": 71,
        "time": 64.179,
        "duration": 0.107,
        "velocity": 0.71,
        "hand": "right"
      },
      {
        "midi": 49,
        "time": 64.286,
        "duration": 0.214,
        "velocity": 0.71,
        "hand": "left"
      },
      {
        "midi": 67,
        "time": 64.286,
        "duration": 0.107,
        "velocity": 0.71,
        "hand": "right"
      },
      {
        "midi": 68,
        "time": 64.393,
        "duration": 0.107,
        "velocity": 0.71,
        "hand": "right"
      },
      {
        "midi": 56,
        "time": 64.5,
        "duration": 0.214,
        "velocity": 0.71,
        "hand": "left"
      },
      {
        "midi": 61,
        "time": 64.5,
        "duration": 0.214,
        "velocity": 0.71,
        "hand": "right"
      },
      {
        "midi": 65,
        "time": 64.5,
        "duration": 0.214,
        "velocity": 0.71,
        "hand": "right"
      },
      {
        "midi": 72,
        "time": 64.5,
        "duration": 0.107,
        "velocity": 0.71,
        "hand": "right"
      },
      {
        "midi": 70,
        "time": 64.607,
        "duration": 0.107,
        "velocity": 0.71,
        "hand": "right"
      },
      {
        "midi": 56,
        "time": 64.714,
        "duration": 0.214,
        "velocity": 0.71,
        "hand": "left"
      },
      {
        "midi": 61,
        "time": 64.714,
        "duration": 0.214,
        "velocity": 0.71,
        "hand": "right"
      },
      {
        "midi": 65,
        "time": 64.714,
        "duration": 0.214,
        "velocity": 0.71,
        "hand": "right"
      },
      {
        "midi": 67,
        "time": 64.714,
        "duration": 0.107,
        "velocity": 0.71,
        "hand": "right"
      },
      {
        "midi": 68,
        "time": 64.821,
        "duration": 0.107,
        "velocity": 0.71,
        "hand": "right"
      },
      {
        "midi": 53,
        "time": 64.929,
        "duration": 0.214,
        "velocity": 0.71,
        "hand": "left"
      },
      {
        "midi": 72,
        "time": 64.929,
        "duration": 0.107,
        "velocity": 0.71,
        "hand": "right"
      },
      {
        "midi": 70,
        "time": 65.036,
        "duration": 0.107,
        "velocity": 0.71,
        "hand": "right"
      },
      {
        "midi": 56,
        "time": 65.143,
        "duration": 0.214,
        "velocity": 0.71,
        "hand": "left"
      },
      {
        "midi": 61,
        "time": 65.143,
        "duration": 0.214,
        "velocity": 0.71,
        "hand": "right"
      },
      {
        "midi": 65,
        "time": 65.143,
        "duration": 0.214,
        "velocity": 0.71,
        "hand": "right"
      },
      {
        "midi": 67,
        "time": 65.143,
        "duration": 0.107,
        "velocity": 0.71,
        "hand": "right"
      },
      {
        "midi": 68,
        "time": 65.25,
        "duration": 0.107,
        "velocity": 0.71,
        "hand": "right"
      },
      {
        "midi": 56,
        "time": 65.357,
        "duration": 0.214,
        "velocity": 0.71,
        "hand": "left"
      },
      {
        "midi": 61,
        "time": 65.357,
        "duration": 0.214,
        "velocity": 0.71,
        "hand": "right"
      },
      {
        "midi": 65,
        "time": 65.357,
        "duration": 0.214,
        "velocity": 0.71,
        "hand": "right"
      },
      {
        "midi": 72,
        "time": 65.357,
        "duration": 0.107,
        "velocity": 0.71,
        "hand": "right"
      },
      {
        "midi": 70,
        "time": 65.464,
        "duration": 0.107,
        "velocity": 0.71,
        "hand": "right"
      },
      {
        "midi": 49,
        "time": 65.571,
        "duration": 0.214,
        "velocity": 0.71,
        "hand": "left"
      },
      {
        "midi": 67,
        "time": 65.571,
        "duration": 0.107,
        "velocity": 0.71,
        "hand": "right"
      },
      {
        "midi": 68,
        "time": 65.679,
        "duration": 0.107,
        "velocity": 0.71,
        "hand": "right"
      },
      {
        "midi": 56,
        "time": 65.786,
        "duration": 0.214,
        "velocity": 0.71,
        "hand": "left"
      },
      {
        "midi": 61,
        "time": 65.786,
        "duration": 0.214,
        "velocity": 0.71,
        "hand": "right"
      },
      {
        "midi": 65,
        "time": 65.786,
        "duration": 0.214,
        "velocity": 0.71,
        "hand": "right"
      },
      {
        "midi": 72,
        "time": 65.786,
        "duration": 0.107,
        "velocity": 0.71,
        "hand": "right"
      },
      {
        "midi": 70,
        "time": 65.893,
        "duration": 0.107,
        "velocity": 0.71,
        "hand": "right"
      },
      {
        "midi": 56,
        "time": 66,
        "duration": 0.214,
        "velocity": 0.71,
        "hand": "left"
      },
      {
        "midi": 61,
        "time": 66,
        "duration": 0.214,
        "velocity": 0.71,
        "hand": "right"
      },
      {
        "midi": 65,
        "time": 66,
        "duration": 0.214,
        "velocity": 0.71,
        "hand": "right"
      },
      {
        "midi": 67,
        "time": 66,
        "duration": 0.107,
        "velocity": 0.71,
        "hand": "right"
      },
      {
        "midi": 68,
        "time": 66.107,
        "duration": 0.107,
        "velocity": 0.71,
        "hand": "right"
      },
      {
        "midi": 53,
        "time": 66.214,
        "duration": 0.214,
        "velocity": 0.71,
        "hand": "left"
      },
      {
        "midi": 70,
        "time": 66.214,
        "duration": 0.107,
        "velocity": 0.71,
        "hand": "right"
      },
      {
        "midi": 72,
        "time": 66.321,
        "duration": 0.107,
        "velocity": 0.71,
        "hand": "right"
      },
      {
        "midi": 56,
        "time": 66.429,
        "duration": 0.214,
        "velocity": 0.71,
        "hand": "left"
      },
      {
        "midi": 61,
        "time": 66.429,
        "duration": 0.214,
        "velocity": 0.71,
        "hand": "right"
      },
      {
        "midi": 65,
        "time": 66.429,
        "duration": 0.214,
        "velocity": 0.71,
        "hand": "right"
      },
      {
        "midi": 73,
        "time": 66.429,
        "duration": 0.107,
        "velocity": 0.71,
        "hand": "right"
      },
      {
        "midi": 75,
        "time": 66.536,
        "duration": 0.107,
        "velocity": 0.71,
        "hand": "right"
      },
      {
        "midi": 56,
        "time": 66.643,
        "duration": 0.214,
        "velocity": 0.71,
        "hand": "left"
      },
      {
        "midi": 61,
        "time": 66.643,
        "duration": 0.214,
        "velocity": 0.71,
        "hand": "right"
      },
      {
        "midi": 65,
        "time": 66.643,
        "duration": 0.214,
        "velocity": 0.71,
        "hand": "right"
      },
      {
        "midi": 77,
        "time": 66.643,
        "duration": 0.107,
        "velocity": 0.71,
        "hand": "right"
      },
      {
        "midi": 78,
        "time": 66.75,
        "duration": 0.107,
        "velocity": 0.71,
        "hand": "right"
      },
      {
        "midi": 44,
        "time": 66.857,
        "duration": 0.214,
        "velocity": 0.71,
        "hand": "left"
      },
      {
        "midi": 82,
        "time": 66.857,
        "duration": 0.321,
        "velocity": 0.71,
        "hand": "right"
      },
      {
        "midi": 56,
        "time": 67.071,
        "duration": 0.214,
        "velocity": 0.71,
        "hand": "left"
      },
      {
        "midi": 60,
        "time": 67.071,
        "duration": 0.214,
        "velocity": 0.71,
        "hand": "right"
      },
      {
        "midi": 66,
        "time": 67.071,
        "duration": 0.214,
        "velocity": 0.71,
        "hand": "right"
      },
      {
        "midi": 80,
        "time": 67.179,
        "duration": 0.107,
        "velocity": 0.71,
        "hand": "right"
      },
      {
        "midi": 56,
        "time": 67.286,
        "duration": 0.214,
        "velocity": 0.71,
        "hand": "left"
      },
      {
        "midi": 60,
        "time": 67.286,
        "duration": 0.214,
        "velocity": 0.71,
        "hand": "right"
      },
      {
        "midi": 66,
        "time": 67.286,
        "duration": 0.214,
        "velocity": 0.71,
        "hand": "right"
      },
      {
        "midi": 78,
        "time": 67.286,
        "duration": 0.107,
        "velocity": 0.71,
        "hand": "right"
      },
      {
        "midi": 77,
        "time": 67.393,
        "duration": 0.107,
        "velocity": 0.71,
        "hand": "right"
      },
      {
        "midi": 51,
        "time": 67.5,
        "duration": 0.214,
        "velocity": 0.71,
        "hand": "left"
      },
      {
        "midi": 77,
        "time": 67.5,
        "duration": 0.107,
        "velocity": 0.71,
        "hand": "right"
      },
      {
        "midi": 75,
        "time": 67.607,
        "duration": 0.107,
        "velocity": 0.71,
        "hand": "right"
      },
      {
        "midi": 56,
        "time": 67.714,
        "duration": 0.214,
        "velocity": 0.71,
        "hand": "left"
      },
      {
        "midi": 60,
        "time": 67.714,
        "duration": 0.214,
        "velocity": 0.71,
        "hand": "right"
      },
      {
        "midi": 66,
        "time": 67.714,
        "duration": 0.214,
        "velocity": 0.71,
        "hand": "right"
      },
      {
        "midi": 75,
        "time": 67.714,
        "duration": 0.107,
        "velocity": 0.71,
        "hand": "right"
      },
      {
        "midi": 74,
        "time": 67.821,
        "duration": 0.107,
        "velocity": 0.71,
        "hand": "right"
      },
      {
        "midi": 56,
        "time": 67.929,
        "duration": 0.214,
        "velocity": 0.71,
        "hand": "left"
      },
      {
        "midi": 60,
        "time": 67.929,
        "duration": 0.214,
        "velocity": 0.71,
        "hand": "right"
      },
      {
        "midi": 66,
        "time": 67.929,
        "duration": 0.214,
        "velocity": 0.71,
        "hand": "right"
      },
      {
        "midi": 75,
        "time": 67.929,
        "duration": 0.214,
        "velocity": 0.71,
        "hand": "right"
      },
      {
        "midi": 44,
        "time": 68.143,
        "duration": 0.214,
        "velocity": 0.71,
        "hand": "left"
      },
      {
        "midi": 82,
        "time": 68.143,
        "duration": 0.321,
        "velocity": 0.71,
        "hand": "right"
      },
      {
        "midi": 56,
        "time": 68.357,
        "duration": 0.214,
        "velocity": 0.71,
        "hand": "left"
      },
      {
        "midi": 60,
        "time": 68.357,
        "duration": 0.214,
        "velocity": 0.71,
        "hand": "right"
      },
      {
        "midi": 66,
        "time": 68.357,
        "duration": 0.214,
        "velocity": 0.71,
        "hand": "right"
      },
      {
        "midi": 80,
        "time": 68.464,
        "duration": 0.107,
        "velocity": 0.71,
        "hand": "right"
      },
      {
        "midi": 56,
        "time": 68.571,
        "duration": 0.214,
        "velocity": 0.71,
        "hand": "left"
      },
      {
        "midi": 60,
        "time": 68.571,
        "duration": 0.214,
        "velocity": 0.71,
        "hand": "right"
      },
      {
        "midi": 66,
        "time": 68.571,
        "duration": 0.214,
        "velocity": 0.71,
        "hand": "right"
      },
      {
        "midi": 78,
        "time": 68.571,
        "duration": 0.107,
        "velocity": 0.71,
        "hand": "right"
      },
      {
        "midi": 77,
        "time": 68.679,
        "duration": 0.107,
        "velocity": 0.71,
        "hand": "right"
      },
      {
        "midi": 56,
        "time": 68.786,
        "duration": 0.214,
        "velocity": 0.71,
        "hand": "left"
      },
      {
        "midi": 75,
        "time": 68.786,
        "duration": 0.107,
        "velocity": 0.71,
        "hand": "right"
      },
      {
        "midi": 77,
        "time": 68.893,
        "duration": 0.107,
        "velocity": 0.71,
        "hand": "right"
      },
      {
        "midi": 60,
        "time": 69,
        "duration": 0.214,
        "velocity": 0.71,
        "hand": "right"
      },
      {
        "midi": 66,
        "time": 69,
        "duration": 0.214,
        "velocity": 0.71,
        "hand": "right"
      },
      {
        "midi": 75,
        "time": 69,
        "duration": 0.107,
        "velocity": 0.71,
        "hand": "right"
      },
      {
        "midi": 74,
        "time": 69.107,
        "duration": 0.107,
        "velocity": 0.71,
        "hand": "right"
      },
      {
        "midi": 44,
        "time": 69.214,
        "duration": 0.214,
        "velocity": 0.71,
        "hand": "left"
      },
      {
        "midi": 75,
        "time": 69.214,
        "duration": 0.107,
        "velocity": 0.71,
        "hand": "right"
      },
      {
        "midi": 76,
        "time": 69.321,
        "duration": 0.107,
        "velocity": 0.71,
        "hand": "right"
      },
      {
        "midi": 45,
        "time": 69.429,
        "duration": 0.214,
        "velocity": 0.71,
        "hand": "left"
      },
      {
        "midi": 77,
        "time": 69.429,
        "duration": 0.054,
        "velocity": 0.71,
        "hand": "right"
      },
      {
        "midi": 78,
        "time": 69.482,
        "duration": 0.054,
        "velocity": 0.71,
        "hand": "right"
      },
      {
        "midi": 77,
        "time": 69.589,
        "duration": 0.054,
        "velocity": 0.71,
        "hand": "right"
      },
      {
        "midi": 53,
        "time": 69.643,
        "duration": 0.214,
        "velocity": 0.71,
        "hand": "left"
      },
      {
        "midi": 60,
        "time": 69.643,
        "duration": 0.214,
        "velocity": 0.71,
        "hand": "right"
      },
      {
        "midi": 63,
        "time": 69.643,
        "duration": 0.214,
        "velocity": 0.71,
        "hand": "right"
      },
      {
        "midi": 76,
        "time": 69.643,
        "duration": 0.107,
        "velocity": 0.71,
        "hand": "right"
      },
      {
        "midi": 77,
        "time": 69.75,
        "duration": 0.107,
        "velocity": 0.71,
        "hand": "right"
      },
      {
        "midi": 53,
        "time": 69.857,
        "duration": 0.214,
        "velocity": 0.71,
        "hand": "left"
      },
      {
        "midi": 60,
        "time": 69.857,
        "duration": 0.214,
        "velocity": 0.71,
        "hand": "right"
      },
      {
        "midi": 63,
        "time": 69.857,
        "duration": 0.214,
        "velocity": 0.71,
        "hand": "right"
      },
      {
        "midi": 80,
        "time": 69.857,
        "duration": 0.107,
        "velocity": 0.71,
        "hand": "right"
      },
      {
        "midi": 78,
        "time": 69.964,
        "duration": 0.107,
        "velocity": 0.71,
        "hand": "right"
      },
      {
        "midi": 46,
        "time": 70.071,
        "duration": 0.214,
        "velocity": 0.71,
        "hand": "left"
      },
      {
        "midi": 77,
        "time": 70.071,
        "duration": 0.107,
        "velocity": 0.71,
        "hand": "right"
      },
      {
        "midi": 78,
        "time": 70.179,
        "duration": 0.107,
        "velocity": 0.71,
        "hand": "right"
      },
      {
        "midi": 53,
        "time": 70.286,
        "duration": 0.214,
        "velocity": 0.71,
        "hand": "left"
      },
      {
        "midi": 61,
        "time": 70.286,
        "duration": 0.214,
        "velocity": 0.71,
        "hand": "right"
      },
      {
        "midi": 77,
        "time": 70.286,
        "duration": 0.107,
        "velocity": 0.71,
        "hand": "right"
      },
      {
        "midi": 76,
        "time": 70.393,
        "duration": 0.107,
        "velocity": 0.71,
        "hand": "right"
      },
      {
        "midi": 53,
        "time": 70.5,
        "duration": 0.214,
        "velocity": 0.71,
        "hand": "left"
      },
      {
        "midi": 61,
        "time": 70.5,
        "duration": 0.214,
        "velocity": 0.71,
        "hand": "right"
      },
      {
        "midi": 77,
        "time": 70.5,
        "duration": 0.107,
        "velocity": 0.71,
        "hand": "right"
      },
      {
        "midi": 82,
        "time": 70.607,
        "duration": 0.107,
        "velocity": 0.71,
        "hand": "right"
      },
      {
        "midi": 48,
        "time": 70.714,
        "duration": 0.214,
        "velocity": 0.71,
        "hand": "left"
      },
      {
        "midi": 80,
        "time": 70.714,
        "duration": 0.054,
        "velocity": 0.71,
        "hand": "right"
      },
      {
        "midi": 82,
        "time": 70.768,
        "duration": 0.054,
        "velocity": 0.71,
        "hand": "right"
      },
      {
        "midi": 80,
        "time": 70.875,
        "duration": 0.054,
        "velocity": 0.71,
        "hand": "right"
      },
      {
        "midi": 56,
        "time": 70.929,
        "duration": 0.214,
        "velocity": 0.71,
        "hand": "left"
      },
      {
        "midi": 63,
        "time": 70.929,
        "duration": 0.214,
        "velocity": 0.71,
        "hand": "right"
      },
      {
        "midi": 66,
        "time": 70.929,
        "duration": 0.214,
        "velocity": 0.71,
        "hand": "right"
      },
      {
        "midi": 79,
        "time": 70.929,
        "duration": 0.107,
        "velocity": 0.71,
        "hand": "right"
      },
      {
        "midi": 80,
        "time": 71.036,
        "duration": 0.107,
        "velocity": 0.71,
        "hand": "right"
      },
      {
        "midi": 56,
        "time": 71.143,
        "duration": 0.214,
        "velocity": 0.71,
        "hand": "left"
      },
      {
        "midi": 63,
        "time": 71.143,
        "duration": 0.214,
        "velocity": 0.71,
        "hand": "right"
      },
      {
        "midi": 66,
        "time": 71.143,
        "duration": 0.214,
        "velocity": 0.71,
        "hand": "right"
      },
      {
        "midi": 84,
        "time": 71.143,
        "duration": 0.107,
        "velocity": 0.71,
        "hand": "right"
      },
      {
        "midi": 82,
        "time": 71.25,
        "duration": 0.107,
        "velocity": 0.71,
        "hand": "right"
      },
      {
        "midi": 49,
        "time": 71.357,
        "duration": 0.214,
        "velocity": 0.71,
        "hand": "left"
      },
      {
        "midi": 80,
        "time": 71.357,
        "duration": 0.107,
        "velocity": 0.71,
        "hand": "right"
      },
      {
        "midi": 82,
        "time": 71.464,
        "duration": 0.107,
        "velocity": 0.71,
        "hand": "right"
      },
      {
        "midi": 56,
        "time": 71.571,
        "duration": 0.214,
        "velocity": 0.71,
        "hand": "left"
      },
      {
        "midi": 65,
        "time": 71.571,
        "duration": 0.214,
        "velocity": 0.71,
        "hand": "right"
      },
      {
        "midi": 80,
        "time": 71.571,
        "duration": 0.107,
        "velocity": 0.71,
        "hand": "right"
      },
      {
        "midi": 79,
        "time": 71.679,
        "duration": 0.107,
        "velocity": 0.71,
        "hand": "right"
      },
      {
        "midi": 80,
        "time": 71.786,
        "duration": 0.107,
        "velocity": 0.71,
        "hand": "right"
      },
      {
        "midi": 85,
        "time": 71.893,
        "duration": 0.107,
        "velocity": 0.71,
        "hand": "right"
      },
      {
        "midi": 54,
        "time": 72,
        "duration": 0.214,
        "velocity": 0.71,
        "hand": "left"
      },
      {
        "midi": 84,
        "time": 72,
        "duration": 0.107,
        "velocity": 0.71,
        "hand": "right"
      },
      {
        "midi": 82,
        "time": 72.107,
        "duration": 0.107,
        "velocity": 0.71,
        "hand": "right"
      },
      {
        "midi": 58,
        "time": 72.214,
        "duration": 0.214,
        "velocity": 0.71,
        "hand": "left"
      },
      {
        "midi": 63,
        "time": 72.214,
        "duration": 0.214,
        "velocity": 0.71,
        "hand": "right"
      },
      {
        "midi": 80,
        "time": 72.214,
        "duration": 0.107,
        "velocity": 0.71,
        "hand": "right"
      },
      {
        "midi": 78,
        "time": 72.321,
        "duration": 0.107,
        "velocity": 0.71,
        "hand": "right"
      },
      {
        "midi": 77,
        "time": 72.429,
        "duration": 0.107,
        "velocity": 0.71,
        "hand": "right"
      },
      {
        "midi": 75,
        "time": 72.536,
        "duration": 0.107,
        "velocity": 0.71,
        "hand": "right"
      },
      {
        "midi": 44,
        "time": 72.643,
        "duration": 0.214,
        "velocity": 0.71,
        "hand": "left"
      },
      {
        "midi": 73,
        "time": 72.643,
        "duration": 0.107,
        "velocity": 0.71,
        "hand": "right"
      },
      {
        "midi": 72,
        "time": 72.75,
        "duration": 0.107,
        "velocity": 0.71,
        "hand": "right"
      },
      {
        "midi": 53,
        "time": 72.857,
        "duration": 0.214,
        "velocity": 0.71,
        "hand": "left"
      },
      {
        "midi": 56,
        "time": 72.857,
        "duration": 0.214,
        "velocity": 0.71,
        "hand": "left"
      },
      {
        "midi": 61,
        "time": 72.857,
        "duration": 0.214,
        "velocity": 0.71,
        "hand": "right"
      },
      {
        "midi": 70,
        "time": 72.857,
        "duration": 0.107,
        "velocity": 0.71,
        "hand": "right"
      },
      {
        "midi": 68,
        "time": 72.964,
        "duration": 0.107,
        "velocity": 0.71,
        "hand": "right"
      },
      {
        "midi": 66,
        "time": 73.071,
        "duration": 0.107,
        "velocity": 0.71,
        "hand": "right"
      },
      {
        "midi": 65,
        "time": 73.179,
        "duration": 0.107,
        "velocity": 0.71,
        "hand": "right"
      },
      {
        "midi": 44,
        "time": 73.286,
        "duration": 0.214,
        "velocity": 0.71,
        "hand": "left"
      },
      {
        "midi": 63,
        "time": 73.286,
        "duration": 0.107,
        "velocity": 0.71,
        "hand": "right"
      },
      {
        "midi": 61,
        "time": 73.393,
        "duration": 0.107,
        "velocity": 0.71,
        "hand": "right"
      },
      {
        "midi": 54,
        "time": 73.5,
        "duration": 0.214,
        "velocity": 0.71,
        "hand": "left"
      },
      {
        "midi": 56,
        "time": 73.5,
        "duration": 0.214,
        "velocity": 0.71,
        "hand": "left"
      },
      {
        "midi": 60,
        "time": 73.5,
        "duration": 0.107,
        "velocity": 0.71,
        "hand": "right"
      },
      {
        "midi": 63,
        "time": 73.607,
        "duration": 0.107,
        "velocity": 0.71,
        "hand": "right"
      },
      {
        "midi": 54,
        "time": 73.714,
        "duration": 0.214,
        "velocity": 0.71,
        "hand": "left"
      },
      {
        "midi": 56,
        "time": 73.714,
        "duration": 0.214,
        "velocity": 0.71,
        "hand": "left"
      },
      {
        "midi": 60,
        "time": 73.714,
        "duration": 0.214,
        "velocity": 0.71,
        "hand": "right"
      },
      {
        "midi": 70,
        "time": 73.714,
        "duration": 0.107,
        "velocity": 0.71,
        "hand": "right"
      },
      {
        "midi": 68,
        "time": 73.821,
        "duration": 0.107,
        "velocity": 0.71,
        "hand": "right"
      },
      {
        "midi": 49,
        "time": 73.929,
        "duration": 0.214,
        "velocity": 0.71,
        "hand": "left"
      },
      {
        "midi": 67,
        "time": 73.929,
        "duration": 0.107,
        "velocity": 0.71,
        "hand": "right"
      },
      {
        "midi": 68,
        "time": 74.036,
        "duration": 0.107,
        "velocity": 0.71,
        "hand": "right"
      },
      {
        "midi": 56,
        "time": 74.143,
        "duration": 0.214,
        "velocity": 0.71,
        "hand": "left"
      },
      {
        "midi": 61,
        "time": 74.143,
        "duration": 0.214,
        "velocity": 0.71,
        "hand": "right"
      },
      {
        "midi": 65,
        "time": 74.143,
        "duration": 0.214,
        "velocity": 0.71,
        "hand": "right"
      },
      {
        "midi": 70,
        "time": 74.143,
        "duration": 0.107,
        "velocity": 0.71,
        "hand": "right"
      },
      {
        "midi": 72,
        "time": 74.25,
        "duration": 0.107,
        "velocity": 0.71,
        "hand": "right"
      },
      {
        "midi": 73,
        "time": 74.357,
        "duration": 0.107,
        "velocity": 0.71,
        "hand": "right"
      },
      {
        "midi": 75,
        "time": 74.464,
        "duration": 0.107,
        "velocity": 0.71,
        "hand": "right"
      },
      {
        "midi": 57,
        "time": 74.571,
        "duration": 0.643,
        "velocity": 0.71,
        "hand": "left"
      },
      {
        "midi": 77,
        "time": 74.571,
        "duration": 0.054,
        "velocity": 0.71,
        "hand": "right"
      },
      {
        "midi": 78,
        "time": 74.625,
        "duration": 0.054,
        "velocity": 0.71,
        "hand": "right"
      },
      {
        "midi": 77,
        "time": 74.732,
        "duration": 0.054,
        "velocity": 0.71,
        "hand": "right"
      },
      {
        "midi": 63,
        "time": 74.786,
        "duration": 0.214,
        "velocity": 0.71,
        "hand": "right"
      },
      {
        "midi": 65,
        "time": 74.786,
        "duration": 0.214,
        "velocity": 0.71,
        "hand": "right"
      },
      {
        "midi": 76,
        "time": 74.786,
        "duration": 0.107,
        "velocity": 0.71,
        "hand": "right"
      },
      {
        "midi": 77,
        "time": 74.893,
        "duration": 0.107,
        "velocity": 0.71,
        "hand": "right"
      },
      {
        "midi": 63,
        "time": 75,
        "duration": 0.214,
        "velocity": 0.71,
        "hand": "right"
      },
      {
        "midi": 65,
        "time": 75,
        "duration": 0.214,
        "velocity": 0.71,
        "hand": "right"
      },
      {
        "midi": 80,
        "time": 75,
        "duration": 0.107,
        "velocity": 0.71,
        "hand": "right"
      },
      {
        "midi": 78,
        "time": 75.107,
        "duration": 0.107,
        "velocity": 0.71,
        "hand": "right"
      },
      {
        "midi": 58,
        "time": 75.214,
        "duration": 0.643,
        "velocity": 0.71,
        "hand": "left"
      },
      {
        "midi": 77,
        "time": 75.214,
        "duration": 0.107,
        "velocity": 0.71,
        "hand": "right"
      },
      {
        "midi": 78,
        "time": 75.321,
        "duration": 0.107,
        "velocity": 0.71,
        "hand": "right"
      },
      {
        "midi": 61,
        "time": 75.429,
        "duration": 0.214,
        "velocity": 0.71,
        "hand": "right"
      },
      {
        "midi": 65,
        "time": 75.429,
        "duration": 0.214,
        "velocity": 0.71,
        "hand": "right"
      },
      {
        "midi": 77,
        "time": 75.429,
        "duration": 0.107,
        "velocity": 0.71,
        "hand": "right"
      },
      {
        "midi": 76,
        "time": 75.536,
        "duration": 0.107,
        "velocity": 0.71,
        "hand": "right"
      },
      {
        "midi": 61,
        "time": 75.643,
        "duration": 0.214,
        "velocity": 0.71,
        "hand": "right"
      },
      {
        "midi": 65,
        "time": 75.643,
        "duration": 0.214,
        "velocity": 0.71,
        "hand": "right"
      },
      {
        "midi": 77,
        "time": 75.643,
        "duration": 0.107,
        "velocity": 0.71,
        "hand": "right"
      },
      {
        "midi": 82,
        "time": 75.75,
        "duration": 0.107,
        "velocity": 0.71,
        "hand": "right"
      },
      {
        "midi": 60,
        "time": 75.857,
        "duration": 0.643,
        "velocity": 0.71,
        "hand": "right"
      },
      {
        "midi": 80,
        "time": 75.857,
        "duration": 0.054,
        "velocity": 0.71,
        "hand": "right"
      },
      {
        "midi": 82,
        "time": 75.911,
        "duration": 0.054,
        "velocity": 0.71,
        "hand": "right"
      },
      {
        "midi": 80,
        "time": 76.018,
        "duration": 0.054,
        "velocity": 0.71,
        "hand": "right"
      },
      {
        "midi": 66,
        "time": 76.071,
        "duration": 0.214,
        "velocity": 0.71,
        "hand": "right"
      },
      {
        "midi": 68,
        "time": 76.071,
        "duration": 0.214,
        "velocity": 0.71,
        "hand": "right"
      },
      {
        "midi": 79,
        "time": 76.071,
        "duration": 0.107,
        "velocity": 0.71,
        "hand": "right"
      },
      {
        "midi": 80,
        "time": 76.179,
        "duration": 0.107,
        "velocity": 0.71,
        "hand": "right"
      },
      {
        "midi": 66,
        "time": 76.286,
        "duration": 0.214,
        "velocity": 0.71,
        "hand": "right"
      },
      {
        "midi": 68,
        "time": 76.286,
        "duration": 0.214,
        "velocity": 0.71,
        "hand": "right"
      },
      {
        "midi": 84,
        "time": 76.286,
        "duration": 0.107,
        "velocity": 0.71,
        "hand": "right"
      },
      {
        "midi": 82,
        "time": 76.393,
        "duration": 0.107,
        "velocity": 0.71,
        "hand": "right"
      },
      {
        "midi": 61,
        "time": 76.5,
        "duration": 0.214,
        "velocity": 0.71,
        "hand": "right"
      },
      {
        "midi": 80,
        "time": 76.5,
        "duration": 0.107,
        "velocity": 0.71,
        "hand": "right"
      },
      {
        "midi": 82,
        "time": 76.607,
        "duration": 0.107,
        "velocity": 0.71,
        "hand": "right"
      },
      {
        "midi": 65,
        "time": 76.714,
        "duration": 0.214,
        "velocity": 0.71,
        "hand": "right"
      },
      {
        "midi": 68,
        "time": 76.714,
        "duration": 0.214,
        "velocity": 0.71,
        "hand": "right"
      },
      {
        "midi": 80,
        "time": 76.714,
        "duration": 0.107,
        "velocity": 0.71,
        "hand": "right"
      },
      {
        "midi": 79,
        "time": 76.821,
        "duration": 0.107,
        "velocity": 0.71,
        "hand": "right"
      },
      {
        "midi": 80,
        "time": 76.929,
        "duration": 0.107,
        "velocity": 0.71,
        "hand": "right"
      },
      {
        "midi": 89,
        "time": 77.036,
        "duration": 0.107,
        "velocity": 0.71,
        "hand": "right"
      },
      {
        "midi": 54,
        "time": 77.143,
        "duration": 0.214,
        "velocity": 0.71,
        "hand": "left"
      },
      {
        "midi": 87,
        "time": 77.143,
        "duration": 0.107,
        "velocity": 0.71,
        "hand": "right"
      },
      {
        "midi": 85,
        "time": 77.25,
        "duration": 0.107,
        "velocity": 0.71,
        "hand": "right"
      },
      {
        "midi": 61,
        "time": 77.357,
        "duration": 0.214,
        "velocity": 0.71,
        "hand": "right"
      },
      {
        "midi": 63,
        "time": 77.357,
        "duration": 0.214,
        "velocity": 0.71,
        "hand": "right"
      },
      {
        "midi": 70,
        "time": 77.357,
        "duration": 0.214,
        "velocity": 0.71,
        "hand": "right"
      },
      {
        "midi": 84,
        "time": 77.357,
        "duration": 0.107,
        "velocity": 0.71,
        "hand": "right"
      },
      {
        "midi": 82,
        "time": 77.464,
        "duration": 0.107,
        "velocity": 0.71,
        "hand": "right"
      },
      {
        "midi": 80,
        "time": 77.571,
        "duration": 0.107,
        "velocity": 0.71,
        "hand": "right"
      },
      {
        "midi": 78,
        "time": 77.679,
        "duration": 0.107,
        "velocity": 0.71,
        "hand": "right"
      },
      {
        "midi": 44,
        "time": 77.786,
        "duration": 0.214,
        "velocity": 0.71,
        "hand": "left"
      },
      {
        "midi": 77,
        "time": 77.786,
        "duration": 0.107,
        "velocity": 0.71,
        "hand": "right"
      },
      {
        "midi": 75,
        "time": 77.893,
        "duration": 0.107,
        "velocity": 0.71,
        "hand": "right"
      },
      {
        "midi": 53,
        "time": 78,
        "duration": 0.214,
        "velocity": 0.71,
        "hand": "left"
      },
      {
        "midi": 56,
        "time": 78,
        "duration": 0.214,
        "velocity": 0.71,
        "hand": "left"
      },
      {
        "midi": 61,
        "time": 78,
        "duration": 0.214,
        "velocity": 0.71,
        "hand": "right"
      },
      {
        "midi": 73,
        "time": 78,
        "duration": 0.107,
        "velocity": 0.71,
        "hand": "right"
      },
      {
        "midi": 72,
        "time": 78.107,
        "duration": 0.107,
        "velocity": 0.71,
        "hand": "right"
      },
      {
        "midi": 70,
        "time": 78.214,
        "duration": 0.107,
        "velocity": 0.71,
        "hand": "right"
      },
      {
        "midi": 68,
        "time": 78.321,
        "duration": 0.107,
        "velocity": 0.71,
        "hand": "right"
      },
      {
        "midi": 44,
        "time": 78.429,
        "duration": 0.214,
        "velocity": 0.71,
        "hand": "left"
      },
      {
        "midi": 69,
        "time": 78.429,
        "duration": 0.107,
        "velocity": 0.71,
        "hand": "right"
      },
      {
        "midi": 72,
        "time": 78.536,
        "duration": 0.107,
        "velocity": 0.71,
        "hand": "right"
      },
      {
        "midi": 54,
        "time": 78.643,
        "duration": 0.214,
        "velocity": 0.71,
        "hand": "left"
      },
      {
        "midi": 56,
        "time": 78.643,
        "duration": 0.214,
        "velocity": 0.71,
        "hand": "left"
      },
      {
        "midi": 70,
        "time": 78.643,
        "duration": 0.107,
        "velocity": 0.71,
        "hand": "right"
      },
      {
        "midi": 65,
        "time": 78.75,
        "duration": 0.107,
        "velocity": 0.71,
        "hand": "right"
      },
      {
        "midi": 54,
        "time": 78.857,
        "duration": 0.214,
        "velocity": 0.71,
        "hand": "left"
      },
      {
        "midi": 56,
        "time": 78.857,
        "duration": 0.214,
        "velocity": 0.71,
        "hand": "left"
      },
      {
        "midi": 66,
        "time": 78.857,
        "duration": 0.107,
        "velocity": 0.71,
        "hand": "right"
      },
      {
        "midi": 60,
        "time": 78.964,
        "duration": 0.107,
        "velocity": 0.71,
        "hand": "right"
      },
      {
        "midi": 49,
        "time": 79.071,
        "duration": 0.214,
        "velocity": 0.71,
        "hand": "left"
      },
      {
        "midi": 61,
        "time": 79.071,
        "duration": 0.214,
        "velocity": 0.71,
        "hand": "right"
      },
      {
        "midi": 56,
        "time": 79.286,
        "duration": 0.214,
        "velocity": 0.71,
        "hand": "left"
      },
      {
        "midi": 65,
        "time": 79.286,
        "duration": 0.214,
        "velocity": 0.71,
        "hand": "right"
      },
      {
        "midi": 77,
        "time": 79.5,
        "duration": 0.268,
        "velocity": 0.71,
        "hand": "right"
      },
      {
        "midi": 45,
        "time": 79.714,
        "duration": 0.214,
        "velocity": 0.71,
        "hand": "left"
      },
      {
        "midi": 78,
        "time": 79.768,
        "duration": 0.054,
        "velocity": 0.71,
        "hand": "right"
      },
      {
        "midi": 77,
        "time": 79.875,
        "duration": 0.054,
        "velocity": 0.71,
        "hand": "right"
      },
      {
        "midi": 53,
        "time": 79.929,
        "duration": 0.214,
        "velocity": 0.71,
        "hand": "left"
      },
      {
        "midi": 60,
        "time": 79.929,
        "duration": 0.214,
        "velocity": 0.71,
        "hand": "right"
      },
      {
        "midi": 63,
        "time": 79.929,
        "duration": 0.214,
        "velocity": 0.71,
        "hand": "right"
      },
      {
        "midi": 76,
        "time": 79.929,
        "duration": 0.107,
        "velocity": 0.71,
        "hand": "right"
      },
      {
        "midi": 77,
        "time": 80.036,
        "duration": 0.107,
        "velocity": 0.71,
        "hand": "right"
      },
      {
        "midi": 53,
        "time": 80.143,
        "duration": 0.214,
        "velocity": 0.71,
        "hand": "left"
      },
      {
        "midi": 60,
        "time": 80.143,
        "duration": 0.214,
        "velocity": 0.71,
        "hand": "right"
      },
      {
        "midi": 63,
        "time": 80.143,
        "duration": 0.214,
        "velocity": 0.71,
        "hand": "right"
      },
      {
        "midi": 80,
        "time": 80.143,
        "duration": 0.107,
        "velocity": 0.71,
        "hand": "right"
      },
      {
        "midi": 78,
        "time": 80.25,
        "duration": 0.107,
        "velocity": 0.71,
        "hand": "right"
      },
      {
        "midi": 46,
        "time": 80.357,
        "duration": 0.214,
        "velocity": 0.71,
        "hand": "left"
      },
      {
        "midi": 77,
        "time": 80.357,
        "duration": 0.107,
        "velocity": 0.71,
        "hand": "right"
      },
      {
        "midi": 78,
        "time": 80.464,
        "duration": 0.107,
        "velocity": 0.71,
        "hand": "right"
      },
      {
        "midi": 53,
        "time": 80.571,
        "duration": 0.214,
        "velocity": 0.71,
        "hand": "left"
      },
      {
        "midi": 61,
        "time": 80.571,
        "duration": 0.214,
        "velocity": 0.71,
        "hand": "right"
      },
      {
        "midi": 77,
        "time": 80.571,
        "duration": 0.107,
        "velocity": 0.71,
        "hand": "right"
      },
      {
        "midi": 76,
        "time": 80.679,
        "duration": 0.107,
        "velocity": 0.71,
        "hand": "right"
      },
      {
        "midi": 53,
        "time": 80.786,
        "duration": 0.214,
        "velocity": 0.71,
        "hand": "left"
      },
      {
        "midi": 61,
        "time": 80.786,
        "duration": 0.214,
        "velocity": 0.71,
        "hand": "right"
      },
      {
        "midi": 77,
        "time": 80.786,
        "duration": 0.107,
        "velocity": 0.71,
        "hand": "right"
      },
      {
        "midi": 82,
        "time": 80.893,
        "duration": 0.107,
        "velocity": 0.71,
        "hand": "right"
      },
      {
        "midi": 48,
        "time": 81,
        "duration": 0.214,
        "velocity": 0.71,
        "hand": "left"
      },
      {
        "midi": 80,
        "time": 81,
        "duration": 0.054,
        "velocity": 0.71,
        "hand": "right"
      },
      {
        "midi": 82,
        "time": 81.054,
        "duration": 0.054,
        "velocity": 0.71,
        "hand": "right"
      },
      {
        "midi": 80,
        "time": 81.161,
        "duration": 0.054,
        "velocity": 0.71,
        "hand": "right"
      },
      {
        "midi": 56,
        "time": 81.214,
        "duration": 0.214,
        "velocity": 0.71,
        "hand": "left"
      },
      {
        "midi": 63,
        "time": 81.214,
        "duration": 0.214,
        "velocity": 0.71,
        "hand": "right"
      },
      {
        "midi": 66,
        "time": 81.214,
        "duration": 0.214,
        "velocity": 0.71,
        "hand": "right"
      },
      {
        "midi": 79,
        "time": 81.214,
        "duration": 0.107,
        "velocity": 0.71,
        "hand": "right"
      },
      {
        "midi": 80,
        "time": 81.321,
        "duration": 0.107,
        "velocity": 0.71,
        "hand": "right"
      },
      {
        "midi": 56,
        "time": 81.429,
        "duration": 0.214,
        "velocity": 0.71,
        "hand": "left"
      },
      {
        "midi": 63,
        "time": 81.429,
        "duration": 0.214,
        "velocity": 0.71,
        "hand": "right"
      },
      {
        "midi": 66,
        "time": 81.429,
        "duration": 0.214,
        "velocity": 0.71,
        "hand": "right"
      },
      {
        "midi": 84,
        "time": 81.429,
        "duration": 0.107,
        "velocity": 0.71,
        "hand": "right"
      },
      {
        "midi": 82,
        "time": 81.536,
        "duration": 0.107,
        "velocity": 0.71,
        "hand": "right"
      },
      {
        "midi": 49,
        "time": 81.643,
        "duration": 0.214,
        "velocity": 0.71,
        "hand": "left"
      },
      {
        "midi": 80,
        "time": 81.643,
        "duration": 0.107,
        "velocity": 0.71,
        "hand": "right"
      },
      {
        "midi": 82,
        "time": 81.75,
        "duration": 0.107,
        "velocity": 0.71,
        "hand": "right"
      },
      {
        "midi": 56,
        "time": 81.857,
        "duration": 0.214,
        "velocity": 0.71,
        "hand": "left"
      },
      {
        "midi": 65,
        "time": 81.857,
        "duration": 0.214,
        "velocity": 0.71,
        "hand": "right"
      },
      {
        "midi": 80,
        "time": 81.857,
        "duration": 0.107,
        "velocity": 0.71,
        "hand": "right"
      },
      {
        "midi": 79,
        "time": 81.964,
        "duration": 0.107,
        "velocity": 0.71,
        "hand": "right"
      },
      {
        "midi": 80,
        "time": 82.071,
        "duration": 0.107,
        "velocity": 0.71,
        "hand": "right"
      },
      {
        "midi": 85,
        "time": 82.179,
        "duration": 0.107,
        "velocity": 0.71,
        "hand": "right"
      },
      {
        "midi": 54,
        "time": 82.286,
        "duration": 0.214,
        "velocity": 0.71,
        "hand": "left"
      },
      {
        "midi": 84,
        "time": 82.286,
        "duration": 0.107,
        "velocity": 0.71,
        "hand": "right"
      },
      {
        "midi": 82,
        "time": 82.393,
        "duration": 0.107,
        "velocity": 0.71,
        "hand": "right"
      },
      {
        "midi": 58,
        "time": 82.5,
        "duration": 0.214,
        "velocity": 0.71,
        "hand": "left"
      },
      {
        "midi": 63,
        "time": 82.5,
        "duration": 0.214,
        "velocity": 0.71,
        "hand": "right"
      },
      {
        "midi": 80,
        "time": 82.5,
        "duration": 0.107,
        "velocity": 0.71,
        "hand": "right"
      },
      {
        "midi": 78,
        "time": 82.607,
        "duration": 0.107,
        "velocity": 0.71,
        "hand": "right"
      },
      {
        "midi": 77,
        "time": 82.714,
        "duration": 0.107,
        "velocity": 0.71,
        "hand": "right"
      },
      {
        "midi": 75,
        "time": 82.821,
        "duration": 0.107,
        "velocity": 0.71,
        "hand": "right"
      },
      {
        "midi": 44,
        "time": 82.929,
        "duration": 0.214,
        "velocity": 0.71,
        "hand": "left"
      },
      {
        "midi": 73,
        "time": 82.929,
        "duration": 0.107,
        "velocity": 0.71,
        "hand": "right"
      },
      {
        "midi": 72,
        "time": 83.036,
        "duration": 0.107,
        "velocity": 0.71,
        "hand": "right"
      },
      {
        "midi": 53,
        "time": 83.143,
        "duration": 0.214,
        "velocity": 0.71,
        "hand": "left"
      },
      {
        "midi": 56,
        "time": 83.143,
        "duration": 0.214,
        "velocity": 0.71,
        "hand": "left"
      },
      {
        "midi": 61,
        "time": 83.143,
        "duration": 0.214,
        "velocity": 0.71,
        "hand": "right"
      },
      {
        "midi": 70,
        "time": 83.143,
        "duration": 0.107,
        "velocity": 0.71,
        "hand": "right"
      },
      {
        "midi": 68,
        "time": 83.25,
        "duration": 0.107,
        "velocity": 0.71,
        "hand": "right"
      },
      {
        "midi": 66,
        "time": 83.357,
        "duration": 0.107,
        "velocity": 0.71,
        "hand": "right"
      },
      {
        "midi": 65,
        "time": 83.464,
        "duration": 0.107,
        "velocity": 0.71,
        "hand": "right"
      },
      {
        "midi": 44,
        "time": 83.571,
        "duration": 0.214,
        "velocity": 0.71,
        "hand": "left"
      },
      {
        "midi": 63,
        "time": 83.571,
        "duration": 0.107,
        "velocity": 0.71,
        "hand": "right"
      },
      {
        "midi": 61,
        "time": 83.679,
        "duration": 0.107,
        "velocity": 0.71,
        "hand": "right"
      },
      {
        "midi": 54,
        "time": 83.786,
        "duration": 0.214,
        "velocity": 0.71,
        "hand": "left"
      },
      {
        "midi": 56,
        "time": 83.786,
        "duration": 0.214,
        "velocity": 0.71,
        "hand": "left"
      },
      {
        "midi": 60,
        "time": 83.786,
        "duration": 0.107,
        "velocity": 0.71,
        "hand": "right"
      },
      {
        "midi": 63,
        "time": 83.893,
        "duration": 0.107,
        "velocity": 0.71,
        "hand": "right"
      },
      {
        "midi": 54,
        "time": 84,
        "duration": 0.214,
        "velocity": 0.71,
        "hand": "left"
      },
      {
        "midi": 56,
        "time": 84,
        "duration": 0.214,
        "velocity": 0.71,
        "hand": "left"
      },
      {
        "midi": 60,
        "time": 84,
        "duration": 0.214,
        "velocity": 0.71,
        "hand": "right"
      },
      {
        "midi": 70,
        "time": 84,
        "duration": 0.107,
        "velocity": 0.71,
        "hand": "right"
      },
      {
        "midi": 68,
        "time": 84.107,
        "duration": 0.107,
        "velocity": 0.71,
        "hand": "right"
      },
      {
        "midi": 49,
        "time": 84.214,
        "duration": 0.214,
        "velocity": 0.71,
        "hand": "left"
      },
      {
        "midi": 67,
        "time": 84.214,
        "duration": 0.107,
        "velocity": 0.71,
        "hand": "right"
      },
      {
        "midi": 68,
        "time": 84.321,
        "duration": 0.107,
        "velocity": 0.71,
        "hand": "right"
      },
      {
        "midi": 56,
        "time": 84.429,
        "duration": 0.214,
        "velocity": 0.71,
        "hand": "left"
      },
      {
        "midi": 61,
        "time": 84.429,
        "duration": 0.214,
        "velocity": 0.71,
        "hand": "right"
      },
      {
        "midi": 65,
        "time": 84.429,
        "duration": 0.214,
        "velocity": 0.71,
        "hand": "right"
      },
      {
        "midi": 70,
        "time": 84.429,
        "duration": 0.107,
        "velocity": 0.71,
        "hand": "right"
      },
      {
        "midi": 72,
        "time": 84.536,
        "duration": 0.107,
        "velocity": 0.71,
        "hand": "right"
      },
      {
        "midi": 73,
        "time": 84.643,
        "duration": 0.107,
        "velocity": 0.71,
        "hand": "right"
      },
      {
        "midi": 75,
        "time": 84.75,
        "duration": 0.107,
        "velocity": 0.71,
        "hand": "right"
      },
      {
        "midi": 57,
        "time": 84.857,
        "duration": 0.643,
        "velocity": 0.71,
        "hand": "left"
      },
      {
        "midi": 77,
        "time": 84.857,
        "duration": 0.054,
        "velocity": 0.71,
        "hand": "right"
      },
      {
        "midi": 78,
        "time": 84.911,
        "duration": 0.054,
        "velocity": 0.71,
        "hand": "right"
      },
      {
        "midi": 77,
        "time": 85.018,
        "duration": 0.054,
        "velocity": 0.71,
        "hand": "right"
      },
      {
        "midi": 63,
        "time": 85.071,
        "duration": 0.214,
        "velocity": 0.71,
        "hand": "right"
      },
      {
        "midi": 65,
        "time": 85.071,
        "duration": 0.214,
        "velocity": 0.71,
        "hand": "right"
      },
      {
        "midi": 76,
        "time": 85.071,
        "duration": 0.107,
        "velocity": 0.71,
        "hand": "right"
      },
      {
        "midi": 77,
        "time": 85.179,
        "duration": 0.107,
        "velocity": 0.71,
        "hand": "right"
      },
      {
        "midi": 63,
        "time": 85.286,
        "duration": 0.214,
        "velocity": 0.71,
        "hand": "right"
      },
      {
        "midi": 65,
        "time": 85.286,
        "duration": 0.214,
        "velocity": 0.71,
        "hand": "right"
      },
      {
        "midi": 80,
        "time": 85.286,
        "duration": 0.107,
        "velocity": 0.71,
        "hand": "right"
      },
      {
        "midi": 78,
        "time": 85.393,
        "duration": 0.107,
        "velocity": 0.71,
        "hand": "right"
      },
      {
        "midi": 58,
        "time": 85.5,
        "duration": 0.643,
        "velocity": 0.71,
        "hand": "left"
      },
      {
        "midi": 77,
        "time": 85.5,
        "duration": 0.107,
        "velocity": 0.71,
        "hand": "right"
      },
      {
        "midi": 78,
        "time": 85.607,
        "duration": 0.107,
        "velocity": 0.71,
        "hand": "right"
      },
      {
        "midi": 61,
        "time": 85.714,
        "duration": 0.214,
        "velocity": 0.71,
        "hand": "right"
      },
      {
        "midi": 65,
        "time": 85.714,
        "duration": 0.214,
        "velocity": 0.71,
        "hand": "right"
      },
      {
        "midi": 77,
        "time": 85.714,
        "duration": 0.107,
        "velocity": 0.71,
        "hand": "right"
      },
      {
        "midi": 76,
        "time": 85.821,
        "duration": 0.107,
        "velocity": 0.71,
        "hand": "right"
      },
      {
        "midi": 61,
        "time": 85.929,
        "duration": 0.214,
        "velocity": 0.71,
        "hand": "right"
      },
      {
        "midi": 65,
        "time": 85.929,
        "duration": 0.214,
        "velocity": 0.71,
        "hand": "right"
      },
      {
        "midi": 77,
        "time": 85.929,
        "duration": 0.107,
        "velocity": 0.71,
        "hand": "right"
      },
      {
        "midi": 82,
        "time": 86.036,
        "duration": 0.107,
        "velocity": 0.71,
        "hand": "right"
      },
      {
        "midi": 60,
        "time": 86.143,
        "duration": 0.643,
        "velocity": 0.71,
        "hand": "right"
      },
      {
        "midi": 80,
        "time": 86.143,
        "duration": 0.054,
        "velocity": 0.71,
        "hand": "right"
      },
      {
        "midi": 82,
        "time": 86.196,
        "duration": 0.054,
        "velocity": 0.71,
        "hand": "right"
      },
      {
        "midi": 80,
        "time": 86.304,
        "duration": 0.054,
        "velocity": 0.71,
        "hand": "right"
      },
      {
        "midi": 66,
        "time": 86.357,
        "duration": 0.214,
        "velocity": 0.71,
        "hand": "right"
      },
      {
        "midi": 68,
        "time": 86.357,
        "duration": 0.214,
        "velocity": 0.71,
        "hand": "right"
      },
      {
        "midi": 79,
        "time": 86.357,
        "duration": 0.107,
        "velocity": 0.71,
        "hand": "right"
      },
      {
        "midi": 80,
        "time": 86.464,
        "duration": 0.107,
        "velocity": 0.71,
        "hand": "right"
      },
      {
        "midi": 66,
        "time": 86.571,
        "duration": 0.214,
        "velocity": 0.71,
        "hand": "right"
      },
      {
        "midi": 68,
        "time": 86.571,
        "duration": 0.214,
        "velocity": 0.71,
        "hand": "right"
      },
      {
        "midi": 84,
        "time": 86.571,
        "duration": 0.107,
        "velocity": 0.71,
        "hand": "right"
      },
      {
        "midi": 82,
        "time": 86.679,
        "duration": 0.107,
        "velocity": 0.71,
        "hand": "right"
      },
      {
        "midi": 61,
        "time": 86.786,
        "duration": 0.214,
        "velocity": 0.71,
        "hand": "right"
      },
      {
        "midi": 80,
        "time": 86.786,
        "duration": 0.107,
        "velocity": 0.71,
        "hand": "right"
      },
      {
        "midi": 82,
        "time": 86.893,
        "duration": 0.107,
        "velocity": 0.71,
        "hand": "right"
      },
      {
        "midi": 65,
        "time": 87,
        "duration": 0.214,
        "velocity": 0.71,
        "hand": "right"
      },
      {
        "midi": 68,
        "time": 87,
        "duration": 0.214,
        "velocity": 0.71,
        "hand": "right"
      },
      {
        "midi": 80,
        "time": 87,
        "duration": 0.107,
        "velocity": 0.71,
        "hand": "right"
      },
      {
        "midi": 79,
        "time": 87.107,
        "duration": 0.107,
        "velocity": 0.71,
        "hand": "right"
      },
      {
        "midi": 80,
        "time": 87.214,
        "duration": 0.107,
        "velocity": 0.71,
        "hand": "right"
      },
      {
        "midi": 101,
        "time": 87.321,
        "duration": 0.107,
        "velocity": 0.71,
        "hand": "right"
      },
      {
        "midi": 42,
        "time": 87.429,
        "duration": 0.214,
        "velocity": 0.71,
        "hand": "left"
      },
      {
        "midi": 99,
        "time": 87.429,
        "duration": 0.054,
        "velocity": 0.71,
        "hand": "right"
      },
      {
        "midi": 97,
        "time": 87.482,
        "duration": 0.054,
        "velocity": 0.71,
        "hand": "right"
      },
      {
        "midi": 96,
        "time": 87.589,
        "duration": 0.054,
        "velocity": 0.71,
        "hand": "right"
      },
      {
        "midi": 61,
        "time": 87.643,
        "duration": 0.214,
        "velocity": 0.71,
        "hand": "right"
      },
      {
        "midi": 63,
        "time": 87.643,
        "duration": 0.214,
        "velocity": 0.71,
        "hand": "right"
      },
      {
        "midi": 70,
        "time": 87.643,
        "duration": 0.214,
        "velocity": 0.71,
        "hand": "right"
      },
      {
        "midi": 94,
        "time": 87.643,
        "duration": 0.054,
        "velocity": 0.71,
        "hand": "right"
      },
      {
        "midi": 92,
        "time": 87.75,
        "duration": 0.054,
        "velocity": 0.71,
        "hand": "right"
      },
      {
        "midi": 90,
        "time": 87.804,
        "duration": 0.054,
        "velocity": 0.71,
        "hand": "right"
      },
      {
        "midi": 89,
        "time": 87.911,
        "duration": 0.054,
        "velocity": 0.71,
        "hand": "right"
      },
      {
        "midi": 87,
        "time": 87.964,
        "duration": 0.054,
        "velocity": 0.71,
        "hand": "right"
      },
      {
        "midi": 85,
        "time": 88.071,
        "duration": 0.054,
        "velocity": 0.71,
        "hand": "right"
      },
      {
        "midi": 84,
        "time": 88.125,
        "duration": 0.054,
        "velocity": 0.71,
        "hand": "right"
      },
      {
        "midi": 82,
        "time": 88.232,
        "duration": 0.054,
        "velocity": 0.71,
        "hand": "right"
      },
      {
        "midi": 80,
        "time": 88.286,
        "duration": 0.054,
        "velocity": 0.71,
        "hand": "right"
      },
      {
        "midi": 78,
        "time": 88.393,
        "duration": 0.054,
        "velocity": 0.71,
        "hand": "right"
      },
      {
        "midi": 77,
        "time": 88.446,
        "duration": 0.054,
        "velocity": 0.71,
        "hand": "right"
      },
      {
        "midi": 75,
        "time": 88.554,
        "duration": 0.054,
        "velocity": 0.71,
        "hand": "right"
      },
      {
        "midi": 73,
        "time": 88.607,
        "duration": 0.054,
        "velocity": 0.71,
        "hand": "right"
      },
      {
        "midi": 44,
        "time": 88.714,
        "duration": 0.214,
        "velocity": 0.71,
        "hand": "left"
      },
      {
        "midi": 72,
        "time": 88.714,
        "duration": 0.054,
        "velocity": 0.71,
        "hand": "right"
      },
      {
        "midi": 70,
        "time": 88.768,
        "duration": 0.054,
        "velocity": 0.71,
        "hand": "right"
      },
      {
        "midi": 69,
        "time": 88.875,
        "duration": 0.054,
        "velocity": 0.71,
        "hand": "right"
      },
      {
        "midi": 54,
        "time": 88.929,
        "duration": 0.214,
        "velocity": 0.71,
        "hand": "left"
      },
      {
        "midi": 56,
        "time": 88.929,
        "duration": 0.214,
        "velocity": 0.71,
        "hand": "left"
      },
      {
        "midi": 72,
        "time": 88.929,
        "duration": 0.054,
        "velocity": 0.71,
        "hand": "right"
      },
      {
        "midi": 70,
        "time": 89.036,
        "duration": 0.054,
        "velocity": 0.71,
        "hand": "right"
      },
      {
        "midi": 65,
        "time": 89.089,
        "duration": 0.054,
        "velocity": 0.71,
        "hand": "right"
      },
      {
        "midi": 54,
        "time": 89.143,
        "duration": 0.214,
        "velocity": 0.71,
        "hand": "left"
      },
      {
        "midi": 56,
        "time": 89.143,
        "duration": 0.214,
        "velocity": 0.71,
        "hand": "left"
      },
      {
        "midi": 66,
        "time": 89.196,
        "duration": 0.054,
        "velocity": 0.71,
        "hand": "right"
      },
      {
        "midi": 60,
        "time": 89.25,
        "duration": 0.054,
        "velocity": 0.71,
        "hand": "right"
      },
      {
        "midi": 37,
        "time": 89.357,
        "duration": 0.214,
        "velocity": 0.71,
        "hand": "left"
      },
      {
        "midi": 61,
        "time": 89.357,
        "duration": 0.429,
        "velocity": 0.71,
        "hand": "right"
      },
      {
        "midi": 53,
        "time": 89.571,
        "duration": 0.214,
        "velocity": 0.71,
        "hand": "left"
      },
      {
        "midi": 56,
        "time": 89.571,
        "duration": 0.214,
        "velocity": 0.71,
        "hand": "left"
      },
      {
        "midi": 65,
        "time": 89.571,
        "duration": 0.214,
        "velocity": 0.71,
        "hand": "right"
      }
    ]
  },
  "notes1Hand": [
    {
      "midi": 68,
      "time": 0,
      "duration": 0.214,
      "velocity": 0.71,
      "hand": "right"
    },
    {
      "midi": 67,
      "time": 0.214,
      "duration": 0.107,
      "velocity": 0.71,
      "hand": "right"
    },
    {
      "midi": 72,
      "time": 0.429,
      "duration": 0.107,
      "velocity": 0.71,
      "hand": "right"
    },
    {
      "midi": 67,
      "time": 0.643,
      "duration": 0.107,
      "velocity": 0.71,
      "hand": "right"
    },
    {
      "midi": 70,
      "time": 0.857,
      "duration": 0.107,
      "velocity": 0.71,
      "hand": "right"
    },
    {
      "midi": 72,
      "time": 1.071,
      "duration": 0.107,
      "velocity": 0.71,
      "hand": "right"
    },
    {
      "midi": 70,
      "time": 1.179,
      "duration": 0.107,
      "velocity": 0.71,
      "hand": "right"
    },
    {
      "midi": 68,
      "time": 1.393,
      "duration": 0.107,
      "velocity": 0.71,
      "hand": "right"
    },
    {
      "midi": 70,
      "time": 1.607,
      "duration": 0.107,
      "velocity": 0.71,
      "hand": "right"
    },
    {
      "midi": 68,
      "time": 1.821,
      "duration": 0.107,
      "velocity": 0.71,
      "hand": "right"
    },
    {
      "midi": 72,
      "time": 1.929,
      "duration": 0.107,
      "velocity": 0.71,
      "hand": "right"
    },
    {
      "midi": 67,
      "time": 2.143,
      "duration": 0.107,
      "velocity": 0.71,
      "hand": "right"
    },
    {
      "midi": 72,
      "time": 2.357,
      "duration": 0.107,
      "velocity": 0.71,
      "hand": "right"
    },
    {
      "midi": 67,
      "time": 2.571,
      "duration": 0.107,
      "velocity": 0.71,
      "hand": "right"
    },
    {
      "midi": 68,
      "time": 2.679,
      "duration": 0.107,
      "velocity": 0.71,
      "hand": "right"
    },
    {
      "midi": 70,
      "time": 2.893,
      "duration": 0.107,
      "velocity": 0.71,
      "hand": "right"
    },
    {
      "midi": 68,
      "time": 3.107,
      "duration": 0.107,
      "velocity": 0.71,
      "hand": "right"
    },
    {
      "midi": 70,
      "time": 3.321,
      "duration": 0.107,
      "velocity": 0.71,
      "hand": "right"
    },
    {
      "midi": 67,
      "time": 3.429,
      "duration": 0.107,
      "velocity": 0.71,
      "hand": "right"
    },
    {
      "midi": 72,
      "time": 3.643,
      "duration": 0.107,
      "velocity": 0.71,
      "hand": "right"
    },
    {
      "midi": 67,
      "time": 3.857,
      "duration": 0.107,
      "velocity": 0.71,
      "hand": "right"
    },
    {
      "midi": 72,
      "time": 4.071,
      "duration": 0.107,
      "velocity": 0.71,
      "hand": "right"
    },
    {
      "midi": 70,
      "time": 4.179,
      "duration": 0.107,
      "velocity": 0.71,
      "hand": "right"
    },
    {
      "midi": 68,
      "time": 4.393,
      "duration": 0.107,
      "velocity": 0.71,
      "hand": "right"
    },
    {
      "midi": 72,
      "time": 4.607,
      "duration": 0.107,
      "velocity": 0.71,
      "hand": "right"
    },
    {
      "midi": 75,
      "time": 4.821,
      "duration": 0.107,
      "velocity": 0.71,
      "hand": "right"
    },
    {
      "midi": 77,
      "time": 4.929,
      "duration": 0.107,
      "velocity": 0.71,
      "hand": "right"
    },
    {
      "midi": 82,
      "time": 5.143,
      "duration": 0.321,
      "velocity": 0.71,
      "hand": "right"
    },
    {
      "midi": 66,
      "time": 5.357,
      "duration": 0.214,
      "velocity": 0.71,
      "hand": "right"
    },
    {
      "midi": 78,
      "time": 5.571,
      "duration": 0.107,
      "velocity": 0.71,
      "hand": "right"
    },
    {
      "midi": 77,
      "time": 5.679,
      "duration": 0.107,
      "velocity": 0.71,
      "hand": "right"
    },
    {
      "midi": 75,
      "time": 5.893,
      "duration": 0.107,
      "velocity": 0.71,
      "hand": "right"
    },
    {
      "midi": 74,
      "time": 6.107,
      "duration": 0.107,
      "velocity": 0.71,
      "hand": "right"
    },
    {
      "midi": 82,
      "time": 6.429,
      "duration": 0.321,
      "velocity": 0.71,
      "hand": "right"
    },
    {
      "midi": 66,
      "time": 6.643,
      "duration": 0.214,
      "velocity": 0.71,
      "hand": "right"
    },
    {
      "midi": 78,
      "time": 6.857,
      "duration": 0.107,
      "velocity": 0.71,
      "hand": "right"
    },
    {
      "midi": 77,
      "time": 7.071,
      "duration": 0.107,
      "velocity": 0.71,
      "hand": "right"
    },
    {
      "midi": 75,
      "time": 7.179,
      "duration": 0.107,
      "velocity": 0.71,
      "hand": "right"
    },
    {
      "midi": 75,
      "time": 7.393,
      "duration": 0.107,
      "velocity": 0.71,
      "hand": "right"
    },
    {
      "midi": 70,
      "time": 7.607,
      "duration": 0.107,
      "velocity": 0.71,
      "hand": "right"
    },
    {
      "midi": 68,
      "time": 7.821,
      "duration": 0.107,
      "velocity": 0.71,
      "hand": "right"
    },
    {
      "midi": 72,
      "time": 7.929,
      "duration": 0.107,
      "velocity": 0.71,
      "hand": "right"
    },
    {
      "midi": 67,
      "time": 8.143,
      "duration": 0.107,
      "velocity": 0.71,
      "hand": "right"
    },
    {
      "midi": 72,
      "time": 8.357,
      "duration": 0.107,
      "velocity": 0.71,
      "hand": "right"
    },
    {
      "midi": 67,
      "time": 8.571,
      "duration": 0.107,
      "velocity": 0.71,
      "hand": "right"
    },
    {
      "midi": 68,
      "time": 8.679,
      "duration": 0.107,
      "velocity": 0.71,
      "hand": "right"
    },
    {
      "midi": 70,
      "time": 8.893,
      "duration": 0.107,
      "velocity": 0.71,
      "hand": "right"
    },
    {
      "midi": 68,
      "time": 9.107,
      "duration": 0.107,
      "velocity": 0.71,
      "hand": "right"
    },
    {
      "midi": 70,
      "time": 9.321,
      "duration": 0.107,
      "velocity": 0.71,
      "hand": "right"
    },
    {
      "midi": 67,
      "time": 9.429,
      "duration": 0.107,
      "velocity": 0.71,
      "hand": "right"
    },
    {
      "midi": 70,
      "time": 9.643,
      "duration": 0.107,
      "velocity": 0.71,
      "hand": "right"
    },
    {
      "midi": 73,
      "time": 9.857,
      "duration": 0.107,
      "velocity": 0.71,
      "hand": "right"
    },
    {
      "midi": 77,
      "time": 10.071,
      "duration": 0.107,
      "velocity": 0.71,
      "hand": "right"
    },
    {
      "midi": 78,
      "time": 10.179,
      "duration": 0.107,
      "velocity": 0.71,
      "hand": "right"
    },
    {
      "midi": 66,
      "time": 10.5,
      "duration": 0.214,
      "velocity": 0.71,
      "hand": "right"
    },
    {
      "midi": 78,
      "time": 10.714,
      "duration": 0.107,
      "velocity": 0.71,
      "hand": "right"
    },
    {
      "midi": 77,
      "time": 10.929,
      "duration": 0.107,
      "velocity": 0.71,
      "hand": "right"
    },
    {
      "midi": 75,
      "time": 11.143,
      "duration": 0.107,
      "velocity": 0.71,
      "hand": "right"
    },
    {
      "midi": 75,
      "time": 11.357,
      "duration": 0.214,
      "velocity": 0.71,
      "hand": "right"
    },
    {
      "midi": 82,
      "time": 11.571,
      "duration": 0.321,
      "velocity": 0.71,
      "hand": "right"
    },
    {
      "midi": 66,
      "time": 11.786,
      "duration": 0.214,
      "velocity": 0.71,
      "hand": "right"
    },
    {
      "midi": 78,
      "time": 12,
      "duration": 0.107,
      "velocity": 0.71,
      "hand": "right"
    },
    {
      "midi": 75,
      "time": 12.214,
      "duration": 0.107,
      "velocity": 0.71,
      "hand": "right"
    },
    {
      "midi": 75,
      "time": 12.429,
      "duration": 0.107,
      "velocity": 0.71,
      "hand": "right"
    },
    {
      "midi": 75,
      "time": 12.643,
      "duration": 0.107,
      "velocity": 0.71,
      "hand": "right"
    },
    {
      "midi": 78,
      "time": 12.911,
      "duration": 0.107,
      "velocity": 0.71,
      "hand": "right"
    },
    {
      "midi": 77,
      "time": 13.179,
      "duration": 0.107,
      "velocity": 0.71,
      "hand": "right"
    },
    {
      "midi": 78,
      "time": 13.393,
      "duration": 0.107,
      "velocity": 0.71,
      "hand": "right"
    },
    {
      "midi": 78,
      "time": 13.607,
      "duration": 0.107,
      "velocity": 0.71,
      "hand": "right"
    },
    {
      "midi": 76,
      "time": 13.821,
      "duration": 0.107,
      "velocity": 0.71,
      "hand": "right"
    },
    {
      "midi": 77,
      "time": 13.929,
      "duration": 0.107,
      "velocity": 0.71,
      "hand": "right"
    },
    {
      "midi": 82,
      "time": 14.196,
      "duration": 0.107,
      "velocity": 0.71,
      "hand": "right"
    },
    {
      "midi": 80,
      "time": 14.304,
      "duration": 0.107,
      "velocity": 0.71,
      "hand": "right"
    },
    {
      "midi": 80,
      "time": 14.464,
      "duration": 0.107,
      "velocity": 0.71,
      "hand": "right"
    },
    {
      "midi": 82,
      "time": 14.679,
      "duration": 0.107,
      "velocity": 0.71,
      "hand": "right"
    },
    {
      "midi": 82,
      "time": 14.893,
      "duration": 0.107,
      "velocity": 0.71,
      "hand": "right"
    },
    {
      "midi": 79,
      "time": 15.107,
      "duration": 0.107,
      "velocity": 0.71,
      "hand": "right"
    },
    {
      "midi": 85,
      "time": 15.321,
      "duration": 0.107,
      "velocity": 0.71,
      "hand": "right"
    },
    {
      "midi": 84,
      "time": 15.429,
      "duration": 0.107,
      "velocity": 0.71,
      "hand": "right"
    },
    {
      "midi": 80,
      "time": 15.643,
      "duration": 0.107,
      "velocity": 0.71,
      "hand": "right"
    },
    {
      "midi": 77,
      "time": 15.857,
      "duration": 0.107,
      "velocity": 0.71,
      "hand": "right"
    },
    {
      "midi": 73,
      "time": 16.071,
      "duration": 0.107,
      "velocity": 0.71,
      "hand": "right"
    },
    {
      "midi": 72,
      "time": 16.179,
      "duration": 0.107,
      "velocity": 0.71,
      "hand": "right"
    },
    {
      "midi": 68,
      "time": 16.393,
      "duration": 0.107,
      "velocity": 0.71,
      "hand": "right"
    },
    {
      "midi": 65,
      "time": 16.607,
      "duration": 0.107,
      "velocity": 0.71,
      "hand": "right"
    },
    {
      "midi": 61,
      "time": 16.821,
      "duration": 0.107,
      "velocity": 0.71,
      "hand": "right"
    },
    {
      "midi": 60,
      "time": 16.929,
      "duration": 0.107,
      "velocity": 0.71,
      "hand": "right"
    },
    {
      "midi": 70,
      "time": 17.143,
      "duration": 0.107,
      "velocity": 0.71,
      "hand": "right"
    },
    {
      "midi": 67,
      "time": 17.357,
      "duration": 0.107,
      "velocity": 0.71,
      "hand": "right"
    },
    {
      "midi": 70,
      "time": 17.571,
      "duration": 0.107,
      "velocity": 0.71,
      "hand": "right"
    },
    {
      "midi": 72,
      "time": 17.679,
      "duration": 0.107,
      "velocity": 0.71,
      "hand": "right"
    },
    {
      "midi": 75,
      "time": 17.893,
      "duration": 0.107,
      "velocity": 0.71,
      "hand": "right"
    },
    {
      "midi": 78,
      "time": 18.054,
      "duration": 0.107,
      "velocity": 0.71,
      "hand": "right"
    },
    {
      "midi": 77,
      "time": 18.321,
      "duration": 0.107,
      "velocity": 0.71,
      "hand": "right"
    },
    {
      "midi": 80,
      "time": 18.429,
      "duration": 0.107,
      "velocity": 0.71,
      "hand": "right"
    },
    {
      "midi": 77,
      "time": 18.643,
      "duration": 0.107,
      "velocity": 0.71,
      "hand": "right"
    },
    {
      "midi": 77,
      "time": 18.857,
      "duration": 0.107,
      "velocity": 0.71,
      "hand": "right"
    },
    {
      "midi": 77,
      "time": 19.071,
      "duration": 0.107,
      "velocity": 0.71,
      "hand": "right"
    },
    {
      "midi": 82,
      "time": 19.179,
      "duration": 0.107,
      "velocity": 0.71,
      "hand": "right"
    },
    {
      "midi": 82,
      "time": 19.339,
      "duration": 0.107,
      "velocity": 0.71,
      "hand": "right"
    },
    {
      "midi": 80,
      "time": 19.607,
      "duration": 0.107,
      "velocity": 0.71,
      "hand": "right"
    },
    {
      "midi": 82,
      "time": 19.821,
      "duration": 0.107,
      "velocity": 0.71,
      "hand": "right"
    },
    {
      "midi": 80,
      "time": 19.929,
      "duration": 0.107,
      "velocity": 0.71,
      "hand": "right"
    },
    {
      "midi": 80,
      "time": 20.143,
      "duration": 0.107,
      "velocity": 0.71,
      "hand": "right"
    },
    {
      "midi": 80,
      "time": 20.357,
      "duration": 0.107,
      "velocity": 0.71,
      "hand": "right"
    },
    {
      "midi": 87,
      "time": 20.571,
      "duration": 0.107,
      "velocity": 0.71,
      "hand": "right"
    },
    {
      "midi": 85,
      "time": 20.679,
      "duration": 0.107,
      "velocity": 0.71,
      "hand": "right"
    },
    {
      "midi": 82,
      "time": 20.893,
      "duration": 0.107,
      "velocity": 0.71,
      "hand": "right"
    },
    {
      "midi": 78,
      "time": 21.107,
      "duration": 0.107,
      "velocity": 0.71,
      "hand": "right"
    },
    {
      "midi": 75,
      "time": 21.321,
      "duration": 0.107,
      "velocity": 0.71,
      "hand": "right"
    },
    {
      "midi": 73,
      "time": 21.429,
      "duration": 0.107,
      "velocity": 0.71,
      "hand": "right"
    },
    {
      "midi": 70,
      "time": 21.643,
      "duration": 0.107,
      "velocity": 0.71,
      "hand": "right"
    },
    {
      "midi": 69,
      "time": 21.857,
      "duration": 0.107,
      "velocity": 0.71,
      "hand": "right"
    },
    {
      "midi": 70,
      "time": 22.071,
      "duration": 0.107,
      "velocity": 0.71,
      "hand": "right"
    },
    {
      "midi": 65,
      "time": 22.179,
      "duration": 0.107,
      "velocity": 0.71,
      "hand": "right"
    },
    {
      "midi": 60,
      "time": 22.393,
      "duration": 0.107,
      "velocity": 0.71,
      "hand": "right"
    },
    {
      "midi": 65,
      "time": 22.714,
      "duration": 0.214,
      "velocity": 0.71,
      "hand": "right"
    },
    {
      "midi": 77,
      "time": 22.929,
      "duration": 0.214,
      "velocity": 0.71,
      "hand": "right"
    },
    {
      "midi": 78,
      "time": 23.196,
      "duration": 0.107,
      "velocity": 0.71,
      "hand": "right"
    },
    {
      "midi": 77,
      "time": 23.304,
      "duration": 0.107,
      "velocity": 0.71,
      "hand": "right"
    },
    {
      "midi": 77,
      "time": 23.464,
      "duration": 0.107,
      "velocity": 0.71,
      "hand": "right"
    },
    {
      "midi": 78,
      "time": 23.679,
      "duration": 0.107,
      "velocity": 0.71,
      "hand": "right"
    },
    {
      "midi": 78,
      "time": 23.893,
      "duration": 0.107,
      "velocity": 0.71,
      "hand": "right"
    },
    {
      "midi": 76,
      "time": 24.107,
      "duration": 0.107,
      "velocity": 0.71,
      "hand": "right"
    },
    {
      "midi": 82,
      "time": 24.321,
      "duration": 0.107,
      "velocity": 0.71,
      "hand": "right"
    },
    {
      "midi": 82,
      "time": 24.482,
      "duration": 0.107,
      "velocity": 0.71,
      "hand": "right"
    },
    {
      "midi": 80,
      "time": 24.75,
      "duration": 0.107,
      "velocity": 0.71,
      "hand": "right"
    },
    {
      "midi": 82,
      "time": 24.964,
      "duration": 0.107,
      "velocity": 0.71,
      "hand": "right"
    },
    {
      "midi": 82,
      "time": 25.179,
      "duration": 0.107,
      "velocity": 0.71,
      "hand": "right"
    },
    {
      "midi": 79,
      "time": 25.393,
      "duration": 0.107,
      "velocity": 0.71,
      "hand": "right"
    },
    {
      "midi": 85,
      "time": 25.607,
      "duration": 0.107,
      "velocity": 0.71,
      "hand": "right"
    },
    {
      "midi": 82,
      "time": 25.821,
      "duration": 0.107,
      "velocity": 0.71,
      "hand": "right"
    },
    {
      "midi": 80,
      "time": 25.929,
      "duration": 0.107,
      "velocity": 0.71,
      "hand": "right"
    },
    {
      "midi": 77,
      "time": 26.143,
      "duration": 0.107,
      "velocity": 0.71,
      "hand": "right"
    },
    {
      "midi": 73,
      "time": 26.357,
      "duration": 0.107,
      "velocity": 0.71,
      "hand": "right"
    },
    {
      "midi": 70,
      "time": 26.571,
      "duration": 0.107,
      "velocity": 0.71,
      "hand": "right"
    },
    {
      "midi": 68,
      "time": 26.679,
      "duration": 0.107,
      "velocity": 0.71,
      "hand": "right"
    },
    {
      "midi": 65,
      "time": 26.893,
      "duration": 0.107,
      "velocity": 0.71,
      "hand": "right"
    },
    {
      "midi": 61,
      "time": 27.107,
      "duration": 0.107,
      "velocity": 0.71,
      "hand": "right"
    },
    {
      "midi": 63,
      "time": 27.321,
      "duration": 0.107,
      "velocity": 0.71,
      "hand": "right"
    },
    {
      "midi": 70,
      "time": 27.429,
      "duration": 0.107,
      "velocity": 0.71,
      "hand": "right"
    },
    {
      "midi": 67,
      "time": 27.643,
      "duration": 0.107,
      "velocity": 0.71,
      "hand": "right"
    },
    {
      "midi": 70,
      "time": 27.857,
      "duration": 0.107,
      "velocity": 0.71,
      "hand": "right"
    },
    {
      "midi": 73,
      "time": 28.071,
      "duration": 0.107,
      "velocity": 0.71,
      "hand": "right"
    },
    {
      "midi": 75,
      "time": 28.179,
      "duration": 0.107,
      "velocity": 0.71,
      "hand": "right"
    },
    {
      "midi": 78,
      "time": 28.339,
      "duration": 0.107,
      "velocity": 0.71,
      "hand": "right"
    },
    {
      "midi": 77,
      "time": 28.607,
      "duration": 0.107,
      "velocity": 0.71,
      "hand": "right"
    },
    {
      "midi": 78,
      "time": 28.821,
      "duration": 0.107,
      "velocity": 0.71,
      "hand": "right"
    },
    {
      "midi": 77,
      "time": 28.929,
      "duration": 0.107,
      "velocity": 0.71,
      "hand": "right"
    },
    {
      "midi": 77,
      "time": 29.143,
      "duration": 0.107,
      "velocity": 0.71,
      "hand": "right"
    },
    {
      "midi": 77,
      "time": 29.357,
      "duration": 0.107,
      "velocity": 0.71,
      "hand": "right"
    },
    {
      "midi": 82,
      "time": 29.625,
      "duration": 0.107,
      "velocity": 0.71,
      "hand": "right"
    },
    {
      "midi": 80,
      "time": 29.893,
      "duration": 0.107,
      "velocity": 0.71,
      "hand": "right"
    },
    {
      "midi": 82,
      "time": 30.107,
      "duration": 0.107,
      "velocity": 0.71,
      "hand": "right"
    },
    {
      "midi": 82,
      "time": 30.321,
      "duration": 0.107,
      "velocity": 0.71,
      "hand": "right"
    },
    {
      "midi": 80,
      "time": 30.429,
      "duration": 0.107,
      "velocity": 0.71,
      "hand": "right"
    },
    {
      "midi": 80,
      "time": 30.643,
      "duration": 0.107,
      "velocity": 0.71,
      "hand": "right"
    },
    {
      "midi": 87,
      "time": 30.857,
      "duration": 0.107,
      "velocity": 0.71,
      "hand": "right"
    },
    {
      "midi": 84,
      "time": 31.071,
      "duration": 0.107,
      "velocity": 0.71,
      "hand": "right"
    },
    {
      "midi": 82,
      "time": 31.179,
      "duration": 0.107,
      "velocity": 0.71,
      "hand": "right"
    },
    {
      "midi": 78,
      "time": 31.393,
      "duration": 0.107,
      "velocity": 0.71,
      "hand": "right"
    },
    {
      "midi": 75,
      "time": 31.607,
      "duration": 0.107,
      "velocity": 0.71,
      "hand": "right"
    },
    {
      "midi": 72,
      "time": 31.821,
      "duration": 0.107,
      "velocity": 0.71,
      "hand": "right"
    },
    {
      "midi": 70,
      "time": 31.929,
      "duration": 0.107,
      "velocity": 0.71,
      "hand": "right"
    },
    {
      "midi": 69,
      "time": 32.143,
      "duration": 0.107,
      "velocity": 0.71,
      "hand": "right"
    },
    {
      "midi": 70,
      "time": 32.357,
      "duration": 0.107,
      "velocity": 0.71,
      "hand": "right"
    },
    {
      "midi": 66,
      "time": 32.571,
      "duration": 0.107,
      "velocity": 0.71,
      "hand": "right"
    },
    {
      "midi": 60,
      "time": 32.679,
      "duration": 0.107,
      "velocity": 0.71,
      "hand": "right"
    },
    {
      "midi": 65,
      "time": 33,
      "duration": 0.214,
      "velocity": 0.71,
      "hand": "right"
    },
    {
      "midi": 68,
      "time": 33.214,
      "duration": 0.643,
      "velocity": 0.71,
      "hand": "right"
    },
    {
      "midi": 60,
      "time": 33.643,
      "duration": 0.214,
      "velocity": 0.71,
      "hand": "right"
    },
    {
      "midi": 63,
      "time": 33.857,
      "duration": 0.214,
      "velocity": 0.71,
      "hand": "right"
    },
    {
      "midi": 68,
      "time": 34.071,
      "duration": 0.429,
      "velocity": 0.71,
      "hand": "right"
    },
    {
      "midi": 60,
      "time": 34.286,
      "duration": 0.214,
      "velocity": 0.71,
      "hand": "right"
    },
    {
      "midi": 64,
      "time": 34.5,
      "duration": 0.214,
      "velocity": 0.71,
      "hand": "right"
    },
    {
      "midi": 68,
      "time": 34.714,
      "duration": 0.429,
      "velocity": 0.71,
      "hand": "right"
    },
    {
      "midi": 61,
      "time": 34.929,
      "duration": 0.214,
      "velocity": 0.71,
      "hand": "right"
    },
    {
      "midi": 65,
      "time": 35.143,
      "duration": 0.214,
      "velocity": 0.71,
      "hand": "right"
    },
    {
      "midi": 77,
      "time": 35.357,
      "duration": 0.429,
      "velocity": 0.71,
      "hand": "right"
    },
    {
      "midi": 65,
      "time": 35.571,
      "duration": 0.214,
      "velocity": 0.71,
      "hand": "right"
    },
    {
      "midi": 77,
      "time": 35.786,
      "duration": 0.643,
      "velocity": 0.71,
      "hand": "right"
    },
    {
      "midi": 66,
      "time": 36.214,
      "duration": 0.214,
      "velocity": 0.71,
      "hand": "right"
    },
    {
      "midi": 70,
      "time": 36.429,
      "duration": 0.214,
      "velocity": 0.71,
      "hand": "right"
    },
    {
      "midi": 77,
      "time": 36.643,
      "duration": 0.429,
      "velocity": 0.71,
      "hand": "right"
    },
    {
      "midi": 66,
      "time": 36.857,
      "duration": 0.214,
      "velocity": 0.71,
      "hand": "right"
    },
    {
      "midi": 72,
      "time": 37.071,
      "duration": 0.214,
      "velocity": 0.71,
      "hand": "right"
    },
    {
      "midi": 75,
      "time": 37.286,
      "duration": 0.429,
      "velocity": 0.71,
      "hand": "right"
    },
    {
      "midi": 65,
      "time": 37.5,
      "duration": 0.214,
      "velocity": 0.71,
      "hand": "right"
    },
    {
      "midi": 73,
      "time": 37.714,
      "duration": 0.214,
      "velocity": 0.71,
      "hand": "right"
    },
    {
      "midi": 72,
      "time": 37.929,
      "duration": 0.161,
      "velocity": 0.71,
      "hand": "right"
    },
    {
      "midi": 75,
      "time": 38.089,
      "duration": 0.161,
      "velocity": 0.71,
      "hand": "right"
    },
    {
      "midi": 73,
      "time": 38.25,
      "duration": 0.161,
      "velocity": 0.71,
      "hand": "right"
    },
    {
      "midi": 70,
      "time": 38.411,
      "duration": 0.161,
      "velocity": 0.71,
      "hand": "right"
    },
    {
      "midi": 68,
      "time": 38.571,
      "duration": 0.429,
      "velocity": 0.71,
      "hand": "right"
    },
    {
      "midi": 63,
      "time": 39,
      "duration": 0.214,
      "velocity": 0.71,
      "hand": "right"
    },
    {
      "midi": 68,
      "time": 39.214,
      "duration": 0.429,
      "velocity": 0.71,
      "hand": "right"
    },
    {
      "midi": 64,
      "time": 39.643,
      "duration": 0.214,
      "velocity": 0.71,
      "hand": "right"
    },
    {
      "midi": 68,
      "time": 39.857,
      "duration": 0.429,
      "velocity": 0.71,
      "hand": "right"
    },
    {
      "midi": 61,
      "time": 40.071,
      "duration": 0.214,
      "velocity": 0.71,
      "hand": "right"
    },
    {
      "midi": 65,
      "time": 40.286,
      "duration": 0.214,
      "velocity": 0.71,
      "hand": "right"
    },
    {
      "midi": 77,
      "time": 40.5,
      "duration": 0.643,
      "velocity": 0.71,
      "hand": "right"
    },
    {
      "midi": 65,
      "time": 40.714,
      "duration": 0.214,
      "velocity": 0.71,
      "hand": "right"
    },
    {
      "midi": 65,
      "time": 40.929,
      "duration": 0.214,
      "velocity": 0.71,
      "hand": "right"
    },
    {
      "midi": 72,
      "time": 41.143,
      "duration": 0.214,
      "velocity": 0.71,
      "hand": "right"
    },
    {
      "midi": 71,
      "time": 41.357,
      "duration": 0.214,
      "velocity": 0.71,
      "hand": "right"
    },
    {
      "midi": 72,
      "time": 41.571,
      "duration": 0.214,
      "velocity": 0.71,
      "hand": "right"
    },
    {
      "midi": 80,
      "time": 41.786,
      "duration": 0.214,
      "velocity": 0.71,
      "hand": "right"
    },
    {
      "midi": 70,
      "time": 42,
      "duration": 0.214,
      "velocity": 0.71,
      "hand": "right"
    },
    {
      "midi": 79,
      "time": 42.214,
      "duration": 0.214,
      "velocity": 0.71,
      "hand": "right"
    },
    {
      "midi": 69,
      "time": 42.429,
      "duration": 0.214,
      "velocity": 0.71,
      "hand": "right"
    },
    {
      "midi": 78,
      "time": 42.643,
      "duration": 0.214,
      "velocity": 0.71,
      "hand": "right"
    },
    {
      "midi": 68,
      "time": 42.857,
      "duration": 0.214,
      "velocity": 0.71,
      "hand": "right"
    },
    {
      "midi": 77,
      "time": 43.071,
      "duration": 0.214,
      "velocity": 0.71,
      "hand": "right"
    },
    {
      "midi": 65,
      "time": 43.286,
      "duration": 0.214,
      "velocity": 0.71,
      "hand": "right"
    },
    {
      "midi": 70,
      "time": 43.5,
      "duration": 0.214,
      "velocity": 0.71,
      "hand": "right"
    },
    {
      "midi": 68,
      "time": 43.714,
      "duration": 0.429,
      "velocity": 0.71,
      "hand": "right"
    },
    {
      "midi": 63,
      "time": 44.143,
      "duration": 0.214,
      "velocity": 0.71,
      "hand": "right"
    },
    {
      "midi": 68,
      "time": 44.357,
      "duration": 0.429,
      "velocity": 0.71,
      "hand": "right"
    },
    {
      "midi": 60,
      "time": 44.571,
      "duration": 0.214,
      "velocity": 0.71,
      "hand": "right"
    },
    {
      "midi": 64,
      "time": 44.786,
      "duration": 0.214,
      "velocity": 0.71,
      "hand": "right"
    },
    {
      "midi": 68,
      "time": 45,
      "duration": 0.429,
      "velocity": 0.71,
      "hand": "right"
    },
    {
      "midi": 61,
      "time": 45.214,
      "duration": 0.214,
      "velocity": 0.71,
      "hand": "right"
    },
    {
      "midi": 65,
      "time": 45.429,
      "duration": 0.214,
      "velocity": 0.71,
      "hand": "right"
    },
    {
      "midi": 77,
      "time": 45.643,
      "duration": 0.429,
      "velocity": 0.71,
      "hand": "right"
    },
    {
      "midi": 65,
      "time": 45.857,
      "duration": 0.214,
      "velocity": 0.71,
      "hand": "right"
    },
    {
      "midi": 77,
      "time": 46.071,
      "duration": 0.214,
      "velocity": 0.71,
      "hand": "right"
    },
    {
      "midi": 77,
      "time": 46.286,
      "duration": 0.429,
      "velocity": 0.71,
      "hand": "right"
    },
    {
      "midi": 66,
      "time": 46.5,
      "duration": 0.214,
      "velocity": 0.71,
      "hand": "right"
    },
    {
      "midi": 70,
      "time": 46.714,
      "duration": 0.214,
      "velocity": 0.71,
      "hand": "right"
    },
    {
      "midi": 77,
      "time": 46.929,
      "duration": 0.429,
      "velocity": 0.71,
      "hand": "right"
    },
    {
      "midi": 66,
      "time": 47.143,
      "duration": 0.214,
      "velocity": 0.71,
      "hand": "right"
    },
    {
      "midi": 72,
      "time": 47.357,
      "duration": 0.214,
      "velocity": 0.71,
      "hand": "right"
    },
    {
      "midi": 75,
      "time": 47.571,
      "duration": 0.214,
      "velocity": 0.71,
      "hand": "right"
    },
    {
      "midi": 73,
      "time": 47.786,
      "duration": 0.214,
      "velocity": 0.71,
      "hand": "right"
    },
    {
      "midi": 72,
      "time": 48,
      "duration": 0.214,
      "velocity": 0.71,
      "hand": "right"
    },
    {
      "midi": 75,
      "time": 48.214,
      "duration": 0.214,
      "velocity": 0.71,
      "hand": "right"
    },
    {
      "midi": 73,
      "time": 48.429,
      "duration": 0.321,
      "velocity": 0.71,
      "hand": "right"
    },
    {
      "midi": 65,
      "time": 48.643,
      "duration": 0.214,
      "velocity": 0.71,
      "hand": "right"
    },
    {
      "midi": 68,
      "time": 48.857,
      "duration": 0.429,
      "velocity": 0.71,
      "hand": "right"
    },
    {
      "midi": 63,
      "time": 49.286,
      "duration": 0.214,
      "velocity": 0.71,
      "hand": "right"
    },
    {
      "midi": 68,
      "time": 49.5,
      "duration": 0.429,
      "velocity": 0.71,
      "hand": "right"
    },
    {
      "midi": 60,
      "time": 49.714,
      "duration": 0.214,
      "velocity": 0.71,
      "hand": "right"
    },
    {
      "midi": 64,
      "time": 49.929,
      "duration": 0.214,
      "velocity": 0.71,
      "hand": "right"
    },
    {
      "midi": 68,
      "time": 50.143,
      "duration": 0.429,
      "velocity": 0.71,
      "hand": "right"
    },
    {
      "midi": 63,
      "time": 50.357,
      "duration": 0.214,
      "velocity": 0.71,
      "hand": "right"
    },
    {
      "midi": 65,
      "time": 50.571,
      "duration": 0.214,
      "velocity": 0.71,
      "hand": "right"
    },
    {
      "midi": 77,
      "time": 50.786,
      "duration": 0.643,
      "velocity": 0.71,
      "hand": "right"
    },
    {
      "midi": 62,
      "time": 51,
      "duration": 0.214,
      "velocity": 0.71,
      "hand": "right"
    },
    {
      "midi": 62,
      "time": 51.214,
      "duration": 0.214,
      "velocity": 0.71,
      "hand": "right"
    },
    {
      "midi": 77,
      "time": 51.429,
      "duration": 0.429,
      "velocity": 0.71,
      "hand": "right"
    },
    {
      "midi": 67,
      "time": 51.643,
      "duration": 0.214,
      "velocity": 0.71,
      "hand": "right"
    },
    {
      "midi": 70,
      "time": 51.857,
      "duration": 0.214,
      "velocity": 0.71,
      "hand": "right"
    },
    {
      "midi": 75,
      "time": 52.071,
      "duration": 0.429,
      "velocity": 0.71,
      "hand": "right"
    },
    {
      "midi": 66,
      "time": 52.286,
      "duration": 0.214,
      "velocity": 0.71,
      "hand": "right"
    },
    {
      "midi": 69,
      "time": 52.5,
      "duration": 0.214,
      "velocity": 0.71,
      "hand": "right"
    },
    {
      "midi": 75,
      "time": 52.714,
      "duration": 0.214,
      "velocity": 0.71,
      "hand": "right"
    },
    {
      "midi": 68,
      "time": 52.929,
      "duration": 0.214,
      "velocity": 0.71,
      "hand": "right"
    },
    {
      "midi": 74,
      "time": 53.143,
      "duration": 0.214,
      "velocity": 0.71,
      "hand": "right"
    },
    {
      "midi": 77,
      "time": 53.357,
      "duration": 0.214,
      "velocity": 0.71,
      "hand": "right"
    },
    {
      "midi": 75,
      "time": 53.571,
      "duration": 0.214,
      "velocity": 0.71,
      "hand": "right"
    },
    {
      "midi": 80,
      "time": 53.786,
      "duration": 0.214,
      "velocity": 0.71,
      "hand": "right"
    },
    {
      "midi": 68,
      "time": 54,
      "duration": 2.571,
      "velocity": 0.71,
      "hand": "right"
    },
    {
      "midi": 67,
      "time": 56.571,
      "duration": 0.107,
      "velocity": 0.71,
      "hand": "right"
    },
    {
      "midi": 68,
      "time": 56.679,
      "duration": 0.107,
      "velocity": 0.71,
      "hand": "right"
    },
    {
      "midi": 70,
      "time": 56.893,
      "duration": 0.107,
      "velocity": 0.71,
      "hand": "right"
    },
    {
      "midi": 68,
      "time": 57.107,
      "duration": 0.107,
      "velocity": 0.71,
      "hand": "right"
    },
    {
      "midi": 70,
      "time": 57.321,
      "duration": 0.107,
      "velocity": 0.71,
      "hand": "right"
    },
    {
      "midi": 67,
      "time": 57.429,
      "duration": 0.107,
      "velocity": 0.71,
      "hand": "right"
    },
    {
      "midi": 72,
      "time": 57.643,
      "duration": 0.107,
      "velocity": 0.71,
      "hand": "right"
    },
    {
      "midi": 67,
      "time": 57.857,
      "duration": 0.107,
      "velocity": 0.71,
      "hand": "right"
    },
    {
      "midi": 72,
      "time": 58.071,
      "duration": 0.107,
      "velocity": 0.71,
      "hand": "right"
    },
    {
      "midi": 70,
      "time": 58.179,
      "duration": 0.107,
      "velocity": 0.71,
      "hand": "right"
    },
    {
      "midi": 68,
      "time": 58.393,
      "duration": 0.107,
      "velocity": 0.71,
      "hand": "right"
    },
    {
      "midi": 70,
      "time": 58.607,
      "duration": 0.107,
      "velocity": 0.71,
      "hand": "right"
    },
    {
      "midi": 68,
      "time": 58.821,
      "duration": 0.107,
      "velocity": 0.71,
      "hand": "right"
    },
    {
      "midi": 72,
      "time": 58.929,
      "duration": 0.107,
      "velocity": 0.71,
      "hand": "right"
    },
    {
      "midi": 67,
      "time": 59.143,
      "duration": 0.107,
      "velocity": 0.71,
      "hand": "right"
    },
    {
      "midi": 72,
      "time": 59.357,
      "duration": 0.107,
      "velocity": 0.71,
      "hand": "right"
    },
    {
      "midi": 67,
      "time": 59.571,
      "duration": 0.107,
      "velocity": 0.71,
      "hand": "right"
    },
    {
      "midi": 68,
      "time": 59.679,
      "duration": 0.107,
      "velocity": 0.71,
      "hand": "right"
    },
    {
      "midi": 70,
      "time": 59.893,
      "duration": 0.107,
      "velocity": 0.71,
      "hand": "right"
    },
    {
      "midi": 68,
      "time": 60.107,
      "duration": 0.107,
      "velocity": 0.71,
      "hand": "right"
    },
    {
      "midi": 70,
      "time": 60.321,
      "duration": 0.107,
      "velocity": 0.71,
      "hand": "right"
    },
    {
      "midi": 67,
      "time": 60.429,
      "duration": 0.107,
      "velocity": 0.71,
      "hand": "right"
    },
    {
      "midi": 72,
      "time": 60.643,
      "duration": 0.107,
      "velocity": 0.71,
      "hand": "right"
    },
    {
      "midi": 67,
      "time": 60.857,
      "duration": 0.107,
      "velocity": 0.71,
      "hand": "right"
    },
    {
      "midi": 70,
      "time": 61.071,
      "duration": 0.107,
      "velocity": 0.71,
      "hand": "right"
    },
    {
      "midi": 72,
      "time": 61.179,
      "duration": 0.107,
      "velocity": 0.71,
      "hand": "right"
    },
    {
      "midi": 75,
      "time": 61.393,
      "duration": 0.107,
      "velocity": 0.71,
      "hand": "right"
    },
    {
      "midi": 78,
      "time": 61.607,
      "duration": 0.107,
      "velocity": 0.71,
      "hand": "right"
    },
    {
      "midi": 66,
      "time": 61.929,
      "duration": 0.214,
      "velocity": 0.71,
      "hand": "right"
    },
    {
      "midi": 78,
      "time": 62.143,
      "duration": 0.107,
      "velocity": 0.71,
      "hand": "right"
    },
    {
      "midi": 77,
      "time": 62.357,
      "duration": 0.107,
      "velocity": 0.71,
      "hand": "right"
    },
    {
      "midi": 75,
      "time": 62.571,
      "duration": 0.107,
      "velocity": 0.71,
      "hand": "right"
    },
    {
      "midi": 74,
      "time": 62.679,
      "duration": 0.107,
      "velocity": 0.71,
      "hand": "right"
    },
    {
      "midi": 82,
      "time": 63,
      "duration": 0.321,
      "velocity": 0.71,
      "hand": "right"
    },
    {
      "midi": 66,
      "time": 63.214,
      "duration": 0.214,
      "velocity": 0.71,
      "hand": "right"
    },
    {
      "midi": 78,
      "time": 63.429,
      "duration": 0.107,
      "velocity": 0.71,
      "hand": "right"
    },
    {
      "midi": 77,
      "time": 63.643,
      "duration": 0.107,
      "velocity": 0.71,
      "hand": "right"
    },
    {
      "midi": 74,
      "time": 63.857,
      "duration": 0.107,
      "velocity": 0.71,
      "hand": "right"
    },
    {
      "midi": 77,
      "time": 64.071,
      "duration": 0.107,
      "velocity": 0.71,
      "hand": "right"
    },
    {
      "midi": 71,
      "time": 64.179,
      "duration": 0.107,
      "velocity": 0.71,
      "hand": "right"
    },
    {
      "midi": 68,
      "time": 64.393,
      "duration": 0.107,
      "velocity": 0.71,
      "hand": "right"
    },
    {
      "midi": 70,
      "time": 64.607,
      "duration": 0.107,
      "velocity": 0.71,
      "hand": "right"
    },
    {
      "midi": 68,
      "time": 64.821,
      "duration": 0.107,
      "velocity": 0.71,
      "hand": "right"
    },
    {
      "midi": 72,
      "time": 64.929,
      "duration": 0.107,
      "velocity": 0.71,
      "hand": "right"
    },
    {
      "midi": 67,
      "time": 65.143,
      "duration": 0.107,
      "velocity": 0.71,
      "hand": "right"
    },
    {
      "midi": 72,
      "time": 65.357,
      "duration": 0.107,
      "velocity": 0.71,
      "hand": "right"
    },
    {
      "midi": 67,
      "time": 65.571,
      "duration": 0.107,
      "velocity": 0.71,
      "hand": "right"
    },
    {
      "midi": 68,
      "time": 65.679,
      "duration": 0.107,
      "velocity": 0.71,
      "hand": "right"
    },
    {
      "midi": 70,
      "time": 65.893,
      "duration": 0.107,
      "velocity": 0.71,
      "hand": "right"
    },
    {
      "midi": 68,
      "time": 66.107,
      "duration": 0.107,
      "velocity": 0.71,
      "hand": "right"
    },
    {
      "midi": 72,
      "time": 66.321,
      "duration": 0.107,
      "velocity": 0.71,
      "hand": "right"
    },
    {
      "midi": 73,
      "time": 66.429,
      "duration": 0.107,
      "velocity": 0.71,
      "hand": "right"
    },
    {
      "midi": 77,
      "time": 66.643,
      "duration": 0.107,
      "velocity": 0.71,
      "hand": "right"
    },
    {
      "midi": 82,
      "time": 66.857,
      "duration": 0.321,
      "velocity": 0.71,
      "hand": "right"
    },
    {
      "midi": 66,
      "time": 67.071,
      "duration": 0.214,
      "velocity": 0.71,
      "hand": "right"
    },
    {
      "midi": 80,
      "time": 67.179,
      "duration": 0.107,
      "velocity": 0.71,
      "hand": "right"
    },
    {
      "midi": 77,
      "time": 67.393,
      "duration": 0.107,
      "velocity": 0.71,
      "hand": "right"
    },
    {
      "midi": 75,
      "time": 67.607,
      "duration": 0.107,
      "velocity": 0.71,
      "hand": "right"
    },
    {
      "midi": 74,
      "time": 67.821,
      "duration": 0.107,
      "velocity": 0.71,
      "hand": "right"
    },
    {
      "midi": 75,
      "time": 67.929,
      "duration": 0.214,
      "velocity": 0.71,
      "hand": "right"
    },
    {
      "midi": 82,
      "time": 68.143,
      "duration": 0.321,
      "velocity": 0.71,
      "hand": "right"
    },
    {
      "midi": 66,
      "time": 68.357,
      "duration": 0.214,
      "velocity": 0.71,
      "hand": "right"
    },
    {
      "midi": 78,
      "time": 68.571,
      "duration": 0.107,
      "velocity": 0.71,
      "hand": "right"
    },
    {
      "midi": 77,
      "time": 68.679,
      "duration": 0.107,
      "velocity": 0.71,
      "hand": "right"
    },
    {
      "midi": 77,
      "time": 68.893,
      "duration": 0.107,
      "velocity": 0.71,
      "hand": "right"
    },
    {
      "midi": 74,
      "time": 69.107,
      "duration": 0.107,
      "velocity": 0.71,
      "hand": "right"
    },
    {
      "midi": 76,
      "time": 69.321,
      "duration": 0.107,
      "velocity": 0.71,
      "hand": "right"
    },
    {
      "midi": 78,
      "time": 69.482,
      "duration": 0.107,
      "velocity": 0.71,
      "hand": "right"
    },
    {
      "midi": 77,
      "time": 69.75,
      "duration": 0.107,
      "velocity": 0.71,
      "hand": "right"
    },
    {
      "midi": 78,
      "time": 69.964,
      "duration": 0.107,
      "velocity": 0.71,
      "hand": "right"
    },
    {
      "midi": 78,
      "time": 70.179,
      "duration": 0.107,
      "velocity": 0.71,
      "hand": "right"
    },
    {
      "midi": 76,
      "time": 70.393,
      "duration": 0.107,
      "velocity": 0.71,
      "hand": "right"
    },
    {
      "midi": 82,
      "time": 70.607,
      "duration": 0.107,
      "velocity": 0.71,
      "hand": "right"
    },
    {
      "midi": 82,
      "time": 70.768,
      "duration": 0.107,
      "velocity": 0.71,
      "hand": "right"
    },
    {
      "midi": 80,
      "time": 71.036,
      "duration": 0.107,
      "velocity": 0.71,
      "hand": "right"
    },
    {
      "midi": 82,
      "time": 71.25,
      "duration": 0.107,
      "velocity": 0.71,
      "hand": "right"
    },
    {
      "midi": 82,
      "time": 71.464,
      "duration": 0.107,
      "velocity": 0.71,
      "hand": "right"
    },
    {
      "midi": 79,
      "time": 71.679,
      "duration": 0.107,
      "velocity": 0.71,
      "hand": "right"
    },
    {
      "midi": 85,
      "time": 71.893,
      "duration": 0.107,
      "velocity": 0.71,
      "hand": "right"
    },
    {
      "midi": 82,
      "time": 72.107,
      "duration": 0.107,
      "velocity": 0.71,
      "hand": "right"
    },
    {
      "midi": 78,
      "time": 72.321,
      "duration": 0.107,
      "velocity": 0.71,
      "hand": "right"
    },
    {
      "midi": 77,
      "time": 72.429,
      "duration": 0.107,
      "velocity": 0.71,
      "hand": "right"
    },
    {
      "midi": 73,
      "time": 72.643,
      "duration": 0.107,
      "velocity": 0.71,
      "hand": "right"
    },
    {
      "midi": 70,
      "time": 72.857,
      "duration": 0.107,
      "velocity": 0.71,
      "hand": "right"
    },
    {
      "midi": 66,
      "time": 73.071,
      "duration": 0.107,
      "velocity": 0.71,
      "hand": "right"
    },
    {
      "midi": 65,
      "time": 73.179,
      "duration": 0.107,
      "velocity": 0.71,
      "hand": "right"
    },
    {
      "midi": 61,
      "time": 73.393,
      "duration": 0.107,
      "velocity": 0.71,
      "hand": "right"
    },
    {
      "midi": 63,
      "time": 73.607,
      "duration": 0.107,
      "velocity": 0.71,
      "hand": "right"
    },
    {
      "midi": 68,
      "time": 73.821,
      "duration": 0.107,
      "velocity": 0.71,
      "hand": "right"
    },
    {
      "midi": 67,
      "time": 73.929,
      "duration": 0.107,
      "velocity": 0.71,
      "hand": "right"
    },
    {
      "midi": 70,
      "time": 74.143,
      "duration": 0.107,
      "velocity": 0.71,
      "hand": "right"
    },
    {
      "midi": 73,
      "time": 74.357,
      "duration": 0.107,
      "velocity": 0.71,
      "hand": "right"
    },
    {
      "midi": 78,
      "time": 74.625,
      "duration": 0.107,
      "velocity": 0.71,
      "hand": "right"
    },
    {
      "midi": 77,
      "time": 74.893,
      "duration": 0.107,
      "velocity": 0.71,
      "hand": "right"
    },
    {
      "midi": 78,
      "time": 75.107,
      "duration": 0.107,
      "velocity": 0.71,
      "hand": "right"
    },
    {
      "midi": 78,
      "time": 75.321,
      "duration": 0.107,
      "velocity": 0.71,
      "hand": "right"
    },
    {
      "midi": 77,
      "time": 75.429,
      "duration": 0.107,
      "velocity": 0.71,
      "hand": "right"
    },
    {
      "midi": 77,
      "time": 75.643,
      "duration": 0.107,
      "velocity": 0.71,
      "hand": "right"
    },
    {
      "midi": 82,
      "time": 75.911,
      "duration": 0.107,
      "velocity": 0.71,
      "hand": "right"
    },
    {
      "midi": 80,
      "time": 76.179,
      "duration": 0.107,
      "velocity": 0.71,
      "hand": "right"
    },
    {
      "midi": 82,
      "time": 76.393,
      "duration": 0.107,
      "velocity": 0.71,
      "hand": "right"
    },
    {
      "midi": 82,
      "time": 76.607,
      "duration": 0.107,
      "velocity": 0.71,
      "hand": "right"
    },
    {
      "midi": 79,
      "time": 76.821,
      "duration": 0.107,
      "velocity": 0.71,
      "hand": "right"
    },
    {
      "midi": 80,
      "time": 76.929,
      "duration": 0.107,
      "velocity": 0.71,
      "hand": "right"
    },
    {
      "midi": 87,
      "time": 77.143,
      "duration": 0.107,
      "velocity": 0.71,
      "hand": "right"
    },
    {
      "midi": 84,
      "time": 77.357,
      "duration": 0.107,
      "velocity": 0.71,
      "hand": "right"
    },
    {
      "midi": 80,
      "time": 77.571,
      "duration": 0.107,
      "velocity": 0.71,
      "hand": "right"
    },
    {
      "midi": 78,
      "time": 77.679,
      "duration": 0.107,
      "velocity": 0.71,
      "hand": "right"
    },
    {
      "midi": 75,
      "time": 77.893,
      "duration": 0.107,
      "velocity": 0.71,
      "hand": "right"
    },
    {
      "midi": 72,
      "time": 78.107,
      "duration": 0.107,
      "velocity": 0.71,
      "hand": "right"
    },
    {
      "midi": 68,
      "time": 78.321,
      "duration": 0.107,
      "velocity": 0.71,
      "hand": "right"
    },
    {
      "midi": 69,
      "time": 78.429,
      "duration": 0.107,
      "velocity": 0.71,
      "hand": "right"
    },
    {
      "midi": 70,
      "time": 78.643,
      "duration": 0.107,
      "velocity": 0.71,
      "hand": "right"
    },
    {
      "midi": 66,
      "time": 78.857,
      "duration": 0.107,
      "velocity": 0.71,
      "hand": "right"
    },
    {
      "midi": 61,
      "time": 79.071,
      "duration": 0.214,
      "velocity": 0.71,
      "hand": "right"
    },
    {
      "midi": 65,
      "time": 79.286,
      "duration": 0.214,
      "velocity": 0.71,
      "hand": "right"
    },
    {
      "midi": 77,
      "time": 79.5,
      "duration": 0.268,
      "velocity": 0.71,
      "hand": "right"
    },
    {
      "midi": 78,
      "time": 79.768,
      "duration": 0.107,
      "velocity": 0.71,
      "hand": "right"
    },
    {
      "midi": 77,
      "time": 80.036,
      "duration": 0.107,
      "velocity": 0.71,
      "hand": "right"
    },
    {
      "midi": 78,
      "time": 80.25,
      "duration": 0.107,
      "velocity": 0.71,
      "hand": "right"
    },
    {
      "midi": 78,
      "time": 80.464,
      "duration": 0.107,
      "velocity": 0.71,
      "hand": "right"
    },
    {
      "midi": 76,
      "time": 80.679,
      "duration": 0.107,
      "velocity": 0.71,
      "hand": "right"
    },
    {
      "midi": 82,
      "time": 80.893,
      "duration": 0.107,
      "velocity": 0.71,
      "hand": "right"
    },
    {
      "midi": 82,
      "time": 81.054,
      "duration": 0.107,
      "velocity": 0.71,
      "hand": "right"
    },
    {
      "midi": 80,
      "time": 81.321,
      "duration": 0.107,
      "velocity": 0.71,
      "hand": "right"
    },
    {
      "midi": 84,
      "time": 81.429,
      "duration": 0.107,
      "velocity": 0.71,
      "hand": "right"
    },
    {
      "midi": 80,
      "time": 81.643,
      "duration": 0.107,
      "velocity": 0.71,
      "hand": "right"
    },
    {
      "midi": 80,
      "time": 81.857,
      "duration": 0.107,
      "velocity": 0.71,
      "hand": "right"
    },
    {
      "midi": 80,
      "time": 82.071,
      "duration": 0.107,
      "velocity": 0.71,
      "hand": "right"
    },
    {
      "midi": 85,
      "time": 82.179,
      "duration": 0.107,
      "velocity": 0.71,
      "hand": "right"
    },
    {
      "midi": 82,
      "time": 82.393,
      "duration": 0.107,
      "velocity": 0.71,
      "hand": "right"
    },
    {
      "midi": 78,
      "time": 82.607,
      "duration": 0.107,
      "velocity": 0.71,
      "hand": "right"
    },
    {
      "midi": 75,
      "time": 82.821,
      "duration": 0.107,
      "velocity": 0.71,
      "hand": "right"
    },
    {
      "midi": 73,
      "time": 82.929,
      "duration": 0.107,
      "velocity": 0.71,
      "hand": "right"
    },
    {
      "midi": 70,
      "time": 83.143,
      "duration": 0.107,
      "velocity": 0.71,
      "hand": "right"
    },
    {
      "midi": 66,
      "time": 83.357,
      "duration": 0.107,
      "velocity": 0.71,
      "hand": "right"
    },
    {
      "midi": 63,
      "time": 83.571,
      "duration": 0.107,
      "velocity": 0.71,
      "hand": "right"
    },
    {
      "midi": 61,
      "time": 83.679,
      "duration": 0.107,
      "velocity": 0.71,
      "hand": "right"
    },
    {
      "midi": 63,
      "time": 83.893,
      "duration": 0.107,
      "velocity": 0.71,
      "hand": "right"
    },
    {
      "midi": 68,
      "time": 84.107,
      "duration": 0.107,
      "velocity": 0.71,
      "hand": "right"
    },
    {
      "midi": 68,
      "time": 84.321,
      "duration": 0.107,
      "velocity": 0.71,
      "hand": "right"
    },
    {
      "midi": 70,
      "time": 84.429,
      "duration": 0.107,
      "velocity": 0.71,
      "hand": "right"
    },
    {
      "midi": 73,
      "time": 84.643,
      "duration": 0.107,
      "velocity": 0.71,
      "hand": "right"
    },
    {
      "midi": 78,
      "time": 84.911,
      "duration": 0.107,
      "velocity": 0.71,
      "hand": "right"
    },
    {
      "midi": 77,
      "time": 85.179,
      "duration": 0.107,
      "velocity": 0.71,
      "hand": "right"
    },
    {
      "midi": 78,
      "time": 85.393,
      "duration": 0.107,
      "velocity": 0.71,
      "hand": "right"
    },
    {
      "midi": 78,
      "time": 85.607,
      "duration": 0.107,
      "velocity": 0.71,
      "hand": "right"
    },
    {
      "midi": 76,
      "time": 85.821,
      "duration": 0.107,
      "velocity": 0.71,
      "hand": "right"
    },
    {
      "midi": 77,
      "time": 85.929,
      "duration": 0.107,
      "velocity": 0.71,
      "hand": "right"
    },
    {
      "midi": 82,
      "time": 86.196,
      "duration": 0.107,
      "velocity": 0.71,
      "hand": "right"
    },
    {
      "midi": 80,
      "time": 86.304,
      "duration": 0.107,
      "velocity": 0.71,
      "hand": "right"
    },
    {
      "midi": 80,
      "time": 86.464,
      "duration": 0.107,
      "velocity": 0.71,
      "hand": "right"
    },
    {
      "midi": 82,
      "time": 86.679,
      "duration": 0.107,
      "velocity": 0.71,
      "hand": "right"
    },
    {
      "midi": 82,
      "time": 86.893,
      "duration": 0.107,
      "velocity": 0.71,
      "hand": "right"
    },
    {
      "midi": 79,
      "time": 87.107,
      "duration": 0.107,
      "velocity": 0.71,
      "hand": "right"
    },
    {
      "midi": 101,
      "time": 87.321,
      "duration": 0.107,
      "velocity": 0.71,
      "hand": "right"
    },
    {
      "midi": 99,
      "time": 87.429,
      "duration": 0.107,
      "velocity": 0.71,
      "hand": "right"
    },
    {
      "midi": 96,
      "time": 87.589,
      "duration": 0.107,
      "velocity": 0.71,
      "hand": "right"
    },
    {
      "midi": 92,
      "time": 87.75,
      "duration": 0.107,
      "velocity": 0.71,
      "hand": "right"
    },
    {
      "midi": 89,
      "time": 87.911,
      "duration": 0.107,
      "velocity": 0.71,
      "hand": "right"
    },
    {
      "midi": 85,
      "time": 88.071,
      "duration": 0.107,
      "velocity": 0.71,
      "hand": "right"
    },
    {
      "midi": 82,
      "time": 88.232,
      "duration": 0.107,
      "velocity": 0.71,
      "hand": "right"
    },
    {
      "midi": 78,
      "time": 88.393,
      "duration": 0.107,
      "velocity": 0.71,
      "hand": "right"
    },
    {
      "midi": 75,
      "time": 88.554,
      "duration": 0.107,
      "velocity": 0.71,
      "hand": "right"
    },
    {
      "midi": 72,
      "time": 88.714,
      "duration": 0.107,
      "velocity": 0.71,
      "hand": "right"
    },
    {
      "midi": 72,
      "time": 88.929,
      "duration": 0.107,
      "velocity": 0.71,
      "hand": "right"
    },
    {
      "midi": 66,
      "time": 89.196,
      "duration": 0.107,
      "velocity": 0.71,
      "hand": "right"
    },
    {
      "midi": 61,
      "time": 89.357,
      "duration": 0.429,
      "velocity": 0.71,
      "hand": "right"
    },
    {
      "midi": 65,
      "time": 89.571,
      "duration": 0.214,
      "velocity": 0.71,
      "hand": "right"
    }
  ],
  "notes2Hands": [
    {
      "midi": 68,
      "time": 0,
      "duration": 0.214,
      "velocity": 0.71,
      "hand": "right"
    },
    {
      "midi": 67,
      "time": 0.214,
      "duration": 0.107,
      "velocity": 0.71,
      "hand": "right"
    },
    {
      "midi": 68,
      "time": 0.321,
      "duration": 0.107,
      "velocity": 0.71,
      "hand": "right"
    },
    {
      "midi": 72,
      "time": 0.429,
      "duration": 0.107,
      "velocity": 0.71,
      "hand": "right"
    },
    {
      "midi": 70,
      "time": 0.536,
      "duration": 0.107,
      "velocity": 0.71,
      "hand": "right"
    },
    {
      "midi": 67,
      "time": 0.643,
      "duration": 0.107,
      "velocity": 0.71,
      "hand": "right"
    },
    {
      "midi": 68,
      "time": 0.75,
      "duration": 0.107,
      "velocity": 0.71,
      "hand": "right"
    },
    {
      "midi": 70,
      "time": 0.857,
      "duration": 0.107,
      "velocity": 0.71,
      "hand": "right"
    },
    {
      "midi": 68,
      "time": 0.964,
      "duration": 0.107,
      "velocity": 0.71,
      "hand": "right"
    },
    {
      "midi": 72,
      "time": 1.071,
      "duration": 0.107,
      "velocity": 0.71,
      "hand": "right"
    },
    {
      "midi": 70,
      "time": 1.179,
      "duration": 0.107,
      "velocity": 0.71,
      "hand": "right"
    },
    {
      "midi": 67,
      "time": 1.286,
      "duration": 0.107,
      "velocity": 0.71,
      "hand": "right"
    },
    {
      "midi": 68,
      "time": 1.393,
      "duration": 0.107,
      "velocity": 0.71,
      "hand": "right"
    },
    {
      "midi": 72,
      "time": 1.5,
      "duration": 0.107,
      "velocity": 0.71,
      "hand": "right"
    },
    {
      "midi": 70,
      "time": 1.607,
      "duration": 0.107,
      "velocity": 0.71,
      "hand": "right"
    },
    {
      "midi": 67,
      "time": 1.714,
      "duration": 0.107,
      "velocity": 0.71,
      "hand": "right"
    },
    {
      "midi": 68,
      "time": 1.821,
      "duration": 0.107,
      "velocity": 0.71,
      "hand": "right"
    },
    {
      "midi": 72,
      "time": 1.929,
      "duration": 0.107,
      "velocity": 0.71,
      "hand": "right"
    },
    {
      "midi": 70,
      "time": 2.036,
      "duration": 0.107,
      "velocity": 0.71,
      "hand": "right"
    },
    {
      "midi": 67,
      "time": 2.143,
      "duration": 0.107,
      "velocity": 0.71,
      "hand": "right"
    },
    {
      "midi": 68,
      "time": 2.25,
      "duration": 0.107,
      "velocity": 0.71,
      "hand": "right"
    },
    {
      "midi": 72,
      "time": 2.357,
      "duration": 0.107,
      "velocity": 0.71,
      "hand": "right"
    },
    {
      "midi": 70,
      "time": 2.464,
      "duration": 0.107,
      "velocity": 0.71,
      "hand": "right"
    },
    {
      "midi": 49,
      "time": 2.571,
      "duration": 0.214,
      "velocity": 0.71,
      "hand": "left"
    },
    {
      "midi": 67,
      "time": 2.571,
      "duration": 0.107,
      "velocity": 0.71,
      "hand": "right"
    },
    {
      "midi": 68,
      "time": 2.679,
      "duration": 0.107,
      "velocity": 0.71,
      "hand": "right"
    },
    {
      "midi": 56,
      "time": 2.786,
      "duration": 0.214,
      "velocity": 0.71,
      "hand": "left"
    },
    {
      "midi": 61,
      "time": 2.786,
      "duration": 0.214,
      "velocity": 0.71,
      "hand": "right"
    },
    {
      "midi": 65,
      "time": 2.786,
      "duration": 0.214,
      "velocity": 0.71,
      "hand": "right"
    },
    {
      "midi": 72,
      "time": 2.786,
      "duration": 0.107,
      "velocity": 0.71,
      "hand": "right"
    },
    {
      "midi": 70,
      "time": 2.893,
      "duration": 0.107,
      "velocity": 0.71,
      "hand": "right"
    },
    {
      "midi": 56,
      "time": 3,
      "duration": 0.214,
      "velocity": 0.71,
      "hand": "left"
    },
    {
      "midi": 61,
      "time": 3,
      "duration": 0.214,
      "velocity": 0.71,
      "hand": "right"
    },
    {
      "midi": 65,
      "time": 3,
      "duration": 0.214,
      "velocity": 0.71,
      "hand": "right"
    },
    {
      "midi": 67,
      "time": 3,
      "duration": 0.107,
      "velocity": 0.71,
      "hand": "right"
    },
    {
      "midi": 68,
      "time": 3.107,
      "duration": 0.107,
      "velocity": 0.71,
      "hand": "right"
    },
    {
      "midi": 53,
      "time": 3.214,
      "duration": 0.214,
      "velocity": 0.71,
      "hand": "left"
    },
    {
      "midi": 72,
      "time": 3.214,
      "duration": 0.107,
      "velocity": 0.71,
      "hand": "right"
    },
    {
      "midi": 70,
      "time": 3.321,
      "duration": 0.107,
      "velocity": 0.71,
      "hand": "right"
    },
    {
      "midi": 56,
      "time": 3.429,
      "duration": 0.214,
      "velocity": 0.71,
      "hand": "left"
    },
    {
      "midi": 61,
      "time": 3.429,
      "duration": 0.214,
      "velocity": 0.71,
      "hand": "right"
    },
    {
      "midi": 65,
      "time": 3.429,
      "duration": 0.214,
      "velocity": 0.71,
      "hand": "right"
    },
    {
      "midi": 67,
      "time": 3.429,
      "duration": 0.107,
      "velocity": 0.71,
      "hand": "right"
    },
    {
      "midi": 68,
      "time": 3.536,
      "duration": 0.107,
      "velocity": 0.71,
      "hand": "right"
    },
    {
      "midi": 56,
      "time": 3.643,
      "duration": 0.214,
      "velocity": 0.71,
      "hand": "left"
    },
    {
      "midi": 61,
      "time": 3.643,
      "duration": 0.214,
      "velocity": 0.71,
      "hand": "right"
    },
    {
      "midi": 65,
      "time": 3.643,
      "duration": 0.214,
      "velocity": 0.71,
      "hand": "right"
    },
    {
      "midi": 72,
      "time": 3.643,
      "duration": 0.107,
      "velocity": 0.71,
      "hand": "right"
    },
    {
      "midi": 70,
      "time": 3.75,
      "duration": 0.107,
      "velocity": 0.71,
      "hand": "right"
    },
    {
      "midi": 49,
      "time": 3.857,
      "duration": 0.214,
      "velocity": 0.71,
      "hand": "left"
    },
    {
      "midi": 67,
      "time": 3.857,
      "duration": 0.107,
      "velocity": 0.71,
      "hand": "right"
    },
    {
      "midi": 68,
      "time": 3.964,
      "duration": 0.107,
      "velocity": 0.71,
      "hand": "right"
    },
    {
      "midi": 56,
      "time": 4.071,
      "duration": 0.214,
      "velocity": 0.71,
      "hand": "left"
    },
    {
      "midi": 61,
      "time": 4.071,
      "duration": 0.214,
      "velocity": 0.71,
      "hand": "right"
    },
    {
      "midi": 65,
      "time": 4.071,
      "duration": 0.214,
      "velocity": 0.71,
      "hand": "right"
    },
    {
      "midi": 72,
      "time": 4.071,
      "duration": 0.107,
      "velocity": 0.71,
      "hand": "right"
    },
    {
      "midi": 70,
      "time": 4.179,
      "duration": 0.107,
      "velocity": 0.71,
      "hand": "right"
    },
    {
      "midi": 56,
      "time": 4.286,
      "duration": 0.214,
      "velocity": 0.71,
      "hand": "left"
    },
    {
      "midi": 61,
      "time": 4.286,
      "duration": 0.214,
      "velocity": 0.71,
      "hand": "right"
    },
    {
      "midi": 65,
      "time": 4.286,
      "duration": 0.214,
      "velocity": 0.71,
      "hand": "right"
    },
    {
      "midi": 67,
      "time": 4.286,
      "duration": 0.107,
      "velocity": 0.71,
      "hand": "right"
    },
    {
      "midi": 68,
      "time": 4.393,
      "duration": 0.107,
      "velocity": 0.71,
      "hand": "right"
    },
    {
      "midi": 53,
      "time": 4.5,
      "duration": 0.214,
      "velocity": 0.71,
      "hand": "left"
    },
    {
      "midi": 70,
      "time": 4.5,
      "duration": 0.107,
      "velocity": 0.71,
      "hand": "right"
    },
    {
      "midi": 72,
      "time": 4.607,
      "duration": 0.107,
      "velocity": 0.71,
      "hand": "right"
    },
    {
      "midi": 56,
      "time": 4.714,
      "duration": 0.214,
      "velocity": 0.71,
      "hand": "left"
    },
    {
      "midi": 61,
      "time": 4.714,
      "duration": 0.214,
      "velocity": 0.71,
      "hand": "right"
    },
    {
      "midi": 65,
      "time": 4.714,
      "duration": 0.214,
      "velocity": 0.71,
      "hand": "right"
    },
    {
      "midi": 73,
      "time": 4.714,
      "duration": 0.107,
      "velocity": 0.71,
      "hand": "right"
    },
    {
      "midi": 75,
      "time": 4.821,
      "duration": 0.107,
      "velocity": 0.71,
      "hand": "right"
    },
    {
      "midi": 56,
      "time": 4.929,
      "duration": 0.214,
      "velocity": 0.71,
      "hand": "left"
    },
    {
      "midi": 61,
      "time": 4.929,
      "duration": 0.214,
      "velocity": 0.71,
      "hand": "right"
    },
    {
      "midi": 65,
      "time": 4.929,
      "duration": 0.214,
      "velocity": 0.71,
      "hand": "right"
    },
    {
      "midi": 77,
      "time": 4.929,
      "duration": 0.107,
      "velocity": 0.71,
      "hand": "right"
    },
    {
      "midi": 78,
      "time": 5.036,
      "duration": 0.107,
      "velocity": 0.71,
      "hand": "right"
    },
    {
      "midi": 44,
      "time": 5.143,
      "duration": 0.214,
      "velocity": 0.71,
      "hand": "left"
    },
    {
      "midi": 82,
      "time": 5.143,
      "duration": 0.321,
      "velocity": 0.71,
      "hand": "right"
    },
    {
      "midi": 56,
      "time": 5.357,
      "duration": 0.214,
      "velocity": 0.71,
      "hand": "left"
    },
    {
      "midi": 60,
      "time": 5.357,
      "duration": 0.214,
      "velocity": 0.71,
      "hand": "right"
    },
    {
      "midi": 66,
      "time": 5.357,
      "duration": 0.214,
      "velocity": 0.71,
      "hand": "right"
    },
    {
      "midi": 80,
      "time": 5.464,
      "duration": 0.107,
      "velocity": 0.71,
      "hand": "right"
    },
    {
      "midi": 56,
      "time": 5.571,
      "duration": 0.214,
      "velocity": 0.71,
      "hand": "left"
    },
    {
      "midi": 60,
      "time": 5.571,
      "duration": 0.214,
      "velocity": 0.71,
      "hand": "right"
    },
    {
      "midi": 66,
      "time": 5.571,
      "duration": 0.214,
      "velocity": 0.71,
      "hand": "right"
    },
    {
      "midi": 78,
      "time": 5.571,
      "duration": 0.107,
      "velocity": 0.71,
      "hand": "right"
    },
    {
      "midi": 77,
      "time": 5.679,
      "duration": 0.107,
      "velocity": 0.71,
      "hand": "right"
    },
    {
      "midi": 51,
      "time": 5.786,
      "duration": 0.214,
      "velocity": 0.71,
      "hand": "left"
    },
    {
      "midi": 77,
      "time": 5.786,
      "duration": 0.107,
      "velocity": 0.71,
      "hand": "right"
    },
    {
      "midi": 75,
      "time": 5.893,
      "duration": 0.107,
      "velocity": 0.71,
      "hand": "right"
    },
    {
      "midi": 56,
      "time": 6,
      "duration": 0.214,
      "velocity": 0.71,
      "hand": "left"
    },
    {
      "midi": 60,
      "time": 6,
      "duration": 0.214,
      "velocity": 0.71,
      "hand": "right"
    },
    {
      "midi": 66,
      "time": 6,
      "duration": 0.214,
      "velocity": 0.71,
      "hand": "right"
    },
    {
      "midi": 75,
      "time": 6,
      "duration": 0.107,
      "velocity": 0.71,
      "hand": "right"
    },
    {
      "midi": 74,
      "time": 6.107,
      "duration": 0.107,
      "velocity": 0.71,
      "hand": "right"
    },
    {
      "midi": 56,
      "time": 6.214,
      "duration": 0.214,
      "velocity": 0.71,
      "hand": "left"
    },
    {
      "midi": 60,
      "time": 6.214,
      "duration": 0.214,
      "velocity": 0.71,
      "hand": "right"
    },
    {
      "midi": 66,
      "time": 6.214,
      "duration": 0.214,
      "velocity": 0.71,
      "hand": "right"
    },
    {
      "midi": 75,
      "time": 6.214,
      "duration": 0.214,
      "velocity": 0.71,
      "hand": "right"
    },
    {
      "midi": 44,
      "time": 6.429,
      "duration": 0.214,
      "velocity": 0.71,
      "hand": "left"
    },
    {
      "midi": 82,
      "time": 6.429,
      "duration": 0.321,
      "velocity": 0.71,
      "hand": "right"
    },
    {
      "midi": 60,
      "time": 6.643,
      "duration": 0.214,
      "velocity": 0.71,
      "hand": "right"
    },
    {
      "midi": 66,
      "time": 6.643,
      "duration": 0.214,
      "velocity": 0.71,
      "hand": "right"
    },
    {
      "midi": 80,
      "time": 6.75,
      "duration": 0.107,
      "velocity": 0.71,
      "hand": "right"
    },
    {
      "midi": 60,
      "time": 6.857,
      "duration": 0.214,
      "velocity": 0.71,
      "hand": "right"
    },
    {
      "midi": 66,
      "time": 6.857,
      "duration": 0.214,
      "velocity": 0.71,
      "hand": "right"
    },
    {
      "midi": 78,
      "time": 6.857,
      "duration": 0.107,
      "velocity": 0.71,
      "hand": "right"
    },
    {
      "midi": 77,
      "time": 6.964,
      "duration": 0.107,
      "velocity": 0.71,
      "hand": "right"
    },
    {
      "midi": 56,
      "time": 7.071,
      "duration": 0.214,
      "velocity": 0.71,
      "hand": "left"
    },
    {
      "midi": 77,
      "time": 7.071,
      "duration": 0.107,
      "velocity": 0.71,
      "hand": "right"
    },
    {
      "midi": 75,
      "time": 7.179,
      "duration": 0.107,
      "velocity": 0.71,
      "hand": "right"
    },
    {
      "midi": 60,
      "time": 7.286,
      "duration": 0.214,
      "velocity": 0.71,
      "hand": "right"
    },
    {
      "midi": 66,
      "time": 7.286,
      "duration": 0.214,
      "velocity": 0.71,
      "hand": "right"
    },
    {
      "midi": 74,
      "time": 7.286,
      "duration": 0.107,
      "velocity": 0.71,
      "hand": "right"
    },
    {
      "midi": 75,
      "time": 7.393,
      "duration": 0.107,
      "velocity": 0.71,
      "hand": "right"
    },
    {
      "midi": 60,
      "time": 7.5,
      "duration": 0.214,
      "velocity": 0.71,
      "hand": "right"
    },
    {
      "midi": 66,
      "time": 7.5,
      "duration": 0.214,
      "velocity": 0.71,
      "hand": "right"
    },
    {
      "midi": 77,
      "time": 7.5,
      "duration": 0.107,
      "velocity": 0.71,
      "hand": "right"
    },
    {
      "midi": 70,
      "time": 7.607,
      "duration": 0.107,
      "velocity": 0.71,
      "hand": "right"
    },
    {
      "midi": 49,
      "time": 7.714,
      "duration": 0.214,
      "velocity": 0.71,
      "hand": "left"
    },
    {
      "midi": 67,
      "time": 7.714,
      "duration": 0.107,
      "velocity": 0.71,
      "hand": "right"
    },
    {
      "midi": 68,
      "time": 7.821,
      "duration": 0.107,
      "velocity": 0.71,
      "hand": "right"
    },
    {
      "midi": 56,
      "time": 7.929,
      "duration": 0.214,
      "velocity": 0.71,
      "hand": "left"
    },
    {
      "midi": 61,
      "time": 7.929,
      "duration": 0.214,
      "velocity": 0.71,
      "hand": "right"
    },
    {
      "midi": 65,
      "time": 7.929,
      "duration": 0.214,
      "velocity": 0.71,
      "hand": "right"
    },
    {
      "midi": 72,
      "time": 7.929,
      "duration": 0.107,
      "velocity": 0.71,
      "hand": "right"
    },
    {
      "midi": 70,
      "time": 8.036,
      "duration": 0.107,
      "velocity": 0.71,
      "hand": "right"
    },
    {
      "midi": 56,
      "time": 8.143,
      "duration": 0.214,
      "velocity": 0.71,
      "hand": "left"
    },
    {
      "midi": 61,
      "time": 8.143,
      "duration": 0.214,
      "velocity": 0.71,
      "hand": "right"
    },
    {
      "midi": 65,
      "time": 8.143,
      "duration": 0.214,
      "velocity": 0.71,
      "hand": "right"
    },
    {
      "midi": 67,
      "time": 8.143,
      "duration": 0.107,
      "velocity": 0.71,
      "hand": "right"
    },
    {
      "midi": 68,
      "time": 8.25,
      "duration": 0.107,
      "velocity": 0.71,
      "hand": "right"
    },
    {
      "midi": 53,
      "time": 8.357,
      "duration": 0.214,
      "velocity": 0.71,
      "hand": "left"
    },
    {
      "midi": 72,
      "time": 8.357,
      "duration": 0.107,
      "velocity": 0.71,
      "hand": "right"
    },
    {
      "midi": 70,
      "time": 8.464,
      "duration": 0.107,
      "velocity": 0.71,
      "hand": "right"
    },
    {
      "midi": 56,
      "time": 8.571,
      "duration": 0.214,
      "velocity": 0.71,
      "hand": "left"
    },
    {
      "midi": 61,
      "time": 8.571,
      "duration": 0.214,
      "velocity": 0.71,
      "hand": "right"
    },
    {
      "midi": 65,
      "time": 8.571,
      "duration": 0.214,
      "velocity": 0.71,
      "hand": "right"
    },
    {
      "midi": 67,
      "time": 8.571,
      "duration": 0.107,
      "velocity": 0.71,
      "hand": "right"
    },
    {
      "midi": 68,
      "time": 8.679,
      "duration": 0.107,
      "velocity": 0.71,
      "hand": "right"
    },
    {
      "midi": 56,
      "time": 8.786,
      "duration": 0.214,
      "velocity": 0.71,
      "hand": "left"
    },
    {
      "midi": 61,
      "time": 8.786,
      "duration": 0.214,
      "velocity": 0.71,
      "hand": "right"
    },
    {
      "midi": 65,
      "time": 8.786,
      "duration": 0.214,
      "velocity": 0.71,
      "hand": "right"
    },
    {
      "midi": 72,
      "time": 8.786,
      "duration": 0.107,
      "velocity": 0.71,
      "hand": "right"
    },
    {
      "midi": 70,
      "time": 8.893,
      "duration": 0.107,
      "velocity": 0.71,
      "hand": "right"
    },
    {
      "midi": 49,
      "time": 9,
      "duration": 0.214,
      "velocity": 0.71,
      "hand": "left"
    },
    {
      "midi": 67,
      "time": 9,
      "duration": 0.107,
      "velocity": 0.71,
      "hand": "right"
    },
    {
      "midi": 68,
      "time": 9.107,
      "duration": 0.107,
      "velocity": 0.71,
      "hand": "right"
    },
    {
      "midi": 56,
      "time": 9.214,
      "duration": 0.214,
      "velocity": 0.71,
      "hand": "left"
    },
    {
      "midi": 61,
      "time": 9.214,
      "duration": 0.214,
      "velocity": 0.71,
      "hand": "right"
    },
    {
      "midi": 65,
      "time": 9.214,
      "duration": 0.214,
      "velocity": 0.71,
      "hand": "right"
    },
    {
      "midi": 72,
      "time": 9.214,
      "duration": 0.107,
      "velocity": 0.71,
      "hand": "right"
    },
    {
      "midi": 70,
      "time": 9.321,
      "duration": 0.107,
      "velocity": 0.71,
      "hand": "right"
    },
    {
      "midi": 56,
      "time": 9.429,
      "duration": 0.214,
      "velocity": 0.71,
      "hand": "left"
    },
    {
      "midi": 61,
      "time": 9.429,
      "duration": 0.214,
      "velocity": 0.71,
      "hand": "right"
    },
    {
      "midi": 65,
      "time": 9.429,
      "duration": 0.214,
      "velocity": 0.71,
      "hand": "right"
    },
    {
      "midi": 67,
      "time": 9.429,
      "duration": 0.107,
      "velocity": 0.71,
      "hand": "right"
    },
    {
      "midi": 68,
      "time": 9.536,
      "duration": 0.107,
      "velocity": 0.71,
      "hand": "right"
    },
    {
      "midi": 53,
      "time": 9.643,
      "duration": 0.214,
      "velocity": 0.71,
      "hand": "left"
    },
    {
      "midi": 70,
      "time": 9.643,
      "duration": 0.107,
      "velocity": 0.71,
      "hand": "right"
    },
    {
      "midi": 72,
      "time": 9.75,
      "duration": 0.107,
      "velocity": 0.71,
      "hand": "right"
    },
    {
      "midi": 56,
      "time": 9.857,
      "duration": 0.214,
      "velocity": 0.71,
      "hand": "left"
    },
    {
      "midi": 61,
      "time": 9.857,
      "duration": 0.214,
      "velocity": 0.71,
      "hand": "right"
    },
    {
      "midi": 65,
      "time": 9.857,
      "duration": 0.214,
      "velocity": 0.71,
      "hand": "right"
    },
    {
      "midi": 73,
      "time": 9.857,
      "duration": 0.107,
      "velocity": 0.71,
      "hand": "right"
    },
    {
      "midi": 75,
      "time": 9.964,
      "duration": 0.107,
      "velocity": 0.71,
      "hand": "right"
    },
    {
      "midi": 56,
      "time": 10.071,
      "duration": 0.214,
      "velocity": 0.71,
      "hand": "left"
    },
    {
      "midi": 61,
      "time": 10.071,
      "duration": 0.214,
      "velocity": 0.71,
      "hand": "right"
    },
    {
      "midi": 65,
      "time": 10.071,
      "duration": 0.214,
      "velocity": 0.71,
      "hand": "right"
    },
    {
      "midi": 77,
      "time": 10.071,
      "duration": 0.107,
      "velocity": 0.71,
      "hand": "right"
    },
    {
      "midi": 78,
      "time": 10.179,
      "duration": 0.107,
      "velocity": 0.71,
      "hand": "right"
    },
    {
      "midi": 44,
      "time": 10.286,
      "duration": 0.214,
      "velocity": 0.71,
      "hand": "left"
    },
    {
      "midi": 82,
      "time": 10.286,
      "duration": 0.321,
      "velocity": 0.71,
      "hand": "right"
    },
    {
      "midi": 56,
      "time": 10.5,
      "duration": 0.214,
      "velocity": 0.71,
      "hand": "left"
    },
    {
      "midi": 60,
      "time": 10.5,
      "duration": 0.214,
      "velocity": 0.71,
      "hand": "right"
    },
    {
      "midi": 66,
      "time": 10.5,
      "duration": 0.214,
      "velocity": 0.71,
      "hand": "right"
    },
    {
      "midi": 80,
      "time": 10.607,
      "duration": 0.107,
      "velocity": 0.71,
      "hand": "right"
    },
    {
      "midi": 56,
      "time": 10.714,
      "duration": 0.214,
      "velocity": 0.71,
      "hand": "left"
    },
    {
      "midi": 60,
      "time": 10.714,
      "duration": 0.214,
      "velocity": 0.71,
      "hand": "right"
    },
    {
      "midi": 66,
      "time": 10.714,
      "duration": 0.214,
      "velocity": 0.71,
      "hand": "right"
    },
    {
      "midi": 78,
      "time": 10.714,
      "duration": 0.107,
      "velocity": 0.71,
      "hand": "right"
    },
    {
      "midi": 77,
      "time": 10.821,
      "duration": 0.107,
      "velocity": 0.71,
      "hand": "right"
    },
    {
      "midi": 51,
      "time": 10.929,
      "duration": 0.214,
      "velocity": 0.71,
      "hand": "left"
    },
    {
      "midi": 77,
      "time": 10.929,
      "duration": 0.107,
      "velocity": 0.71,
      "hand": "right"
    },
    {
      "midi": 75,
      "time": 11.036,
      "duration": 0.107,
      "velocity": 0.71,
      "hand": "right"
    },
    {
      "midi": 56,
      "time": 11.143,
      "duration": 0.214,
      "velocity": 0.71,
      "hand": "left"
    },
    {
      "midi": 60,
      "time": 11.143,
      "duration": 0.214,
      "velocity": 0.71,
      "hand": "right"
    },
    {
      "midi": 66,
      "time": 11.143,
      "duration": 0.214,
      "velocity": 0.71,
      "hand": "right"
    },
    {
      "midi": 75,
      "time": 11.143,
      "duration": 0.107,
      "velocity": 0.71,
      "hand": "right"
    },
    {
      "midi": 74,
      "time": 11.25,
      "duration": 0.107,
      "velocity": 0.71,
      "hand": "right"
    },
    {
      "midi": 56,
      "time": 11.357,
      "duration": 0.214,
      "velocity": 0.71,
      "hand": "left"
    },
    {
      "midi": 60,
      "time": 11.357,
      "duration": 0.214,
      "velocity": 0.71,
      "hand": "right"
    },
    {
      "midi": 66,
      "time": 11.357,
      "duration": 0.214,
      "velocity": 0.71,
      "hand": "right"
    },
    {
      "midi": 75,
      "time": 11.357,
      "duration": 0.214,
      "velocity": 0.71,
      "hand": "right"
    },
    {
      "midi": 44,
      "time": 11.571,
      "duration": 0.214,
      "velocity": 0.71,
      "hand": "left"
    },
    {
      "midi": 82,
      "time": 11.571,
      "duration": 0.321,
      "velocity": 0.71,
      "hand": "right"
    },
    {
      "midi": 56,
      "time": 11.786,
      "duration": 0.214,
      "velocity": 0.71,
      "hand": "left"
    },
    {
      "midi": 60,
      "time": 11.786,
      "duration": 0.214,
      "velocity": 0.71,
      "hand": "right"
    },
    {
      "midi": 66,
      "time": 11.786,
      "duration": 0.214,
      "velocity": 0.71,
      "hand": "right"
    },
    {
      "midi": 80,
      "time": 11.893,
      "duration": 0.107,
      "velocity": 0.71,
      "hand": "right"
    },
    {
      "midi": 56,
      "time": 12,
      "duration": 0.214,
      "velocity": 0.71,
      "hand": "left"
    },
    {
      "midi": 60,
      "time": 12,
      "duration": 0.214,
      "velocity": 0.71,
      "hand": "right"
    },
    {
      "midi": 66,
      "time": 12,
      "duration": 0.214,
      "velocity": 0.71,
      "hand": "right"
    },
    {
      "midi": 78,
      "time": 12,
      "duration": 0.107,
      "velocity": 0.71,
      "hand": "right"
    },
    {
      "midi": 77,
      "time": 12.107,
      "duration": 0.107,
      "velocity": 0.71,
      "hand": "right"
    },
    {
      "midi": 56,
      "time": 12.214,
      "duration": 0.214,
      "velocity": 0.71,
      "hand": "left"
    },
    {
      "midi": 75,
      "time": 12.214,
      "duration": 0.107,
      "velocity": 0.71,
      "hand": "right"
    },
    {
      "midi": 77,
      "time": 12.321,
      "duration": 0.107,
      "velocity": 0.71,
      "hand": "right"
    },
    {
      "midi": 60,
      "time": 12.429,
      "duration": 0.214,
      "velocity": 0.71,
      "hand": "right"
    },
    {
      "midi": 66,
      "time": 12.429,
      "duration": 0.214,
      "velocity": 0.71,
      "hand": "right"
    },
    {
      "midi": 75,
      "time": 12.429,
      "duration": 0.107,
      "velocity": 0.71,
      "hand": "right"
    },
    {
      "midi": 74,
      "time": 12.536,
      "duration": 0.107,
      "velocity": 0.71,
      "hand": "right"
    },
    {
      "midi": 44,
      "time": 12.643,
      "duration": 0.214,
      "velocity": 0.71,
      "hand": "left"
    },
    {
      "midi": 75,
      "time": 12.643,
      "duration": 0.107,
      "velocity": 0.71,
      "hand": "right"
    },
    {
      "midi": 76,
      "time": 12.75,
      "duration": 0.107,
      "velocity": 0.71,
      "hand": "right"
    },
    {
      "midi": 45,
      "time": 12.857,
      "duration": 0.214,
      "velocity": 0.71,
      "hand": "left"
    },
    {
      "midi": 77,
      "time": 12.857,
      "duration": 0.054,
      "velocity": 0.71,
      "hand": "right"
    },
    {
      "midi": 78,
      "time": 12.911,
      "duration": 0.054,
      "velocity": 0.71,
      "hand": "right"
    },
    {
      "midi": 77,
      "time": 13.018,
      "duration": 0.054,
      "velocity": 0.71,
      "hand": "right"
    },
    {
      "midi": 53,
      "time": 13.071,
      "duration": 0.214,
      "velocity": 0.71,
      "hand": "left"
    },
    {
      "midi": 60,
      "time": 13.071,
      "duration": 0.214,
      "velocity": 0.71,
      "hand": "right"
    },
    {
      "midi": 63,
      "time": 13.071,
      "duration": 0.214,
      "velocity": 0.71,
      "hand": "right"
    },
    {
      "midi": 76,
      "time": 13.071,
      "duration": 0.107,
      "velocity": 0.71,
      "hand": "right"
    },
    {
      "midi": 77,
      "time": 13.179,
      "duration": 0.107,
      "velocity": 0.71,
      "hand": "right"
    },
    {
      "midi": 53,
      "time": 13.286,
      "duration": 0.214,
      "velocity": 0.71,
      "hand": "left"
    },
    {
      "midi": 60,
      "time": 13.286,
      "duration": 0.214,
      "velocity": 0.71,
      "hand": "right"
    },
    {
      "midi": 63,
      "time": 13.286,
      "duration": 0.214,
      "velocity": 0.71,
      "hand": "right"
    },
    {
      "midi": 80,
      "time": 13.286,
      "duration": 0.107,
      "velocity": 0.71,
      "hand": "right"
    },
    {
      "midi": 78,
      "time": 13.393,
      "duration": 0.107,
      "velocity": 0.71,
      "hand": "right"
    },
    {
      "midi": 46,
      "time": 13.5,
      "duration": 0.214,
      "velocity": 0.71,
      "hand": "left"
    },
    {
      "midi": 77,
      "time": 13.5,
      "duration": 0.107,
      "velocity": 0.71,
      "hand": "right"
    },
    {
      "midi": 78,
      "time": 13.607,
      "duration": 0.107,
      "velocity": 0.71,
      "hand": "right"
    },
    {
      "midi": 53,
      "time": 13.714,
      "duration": 0.214,
      "velocity": 0.71,
      "hand": "left"
    },
    {
      "midi": 61,
      "time": 13.714,
      "duration": 0.214,
      "velocity": 0.71,
      "hand": "right"
    },
    {
      "midi": 77,
      "time": 13.714,
      "duration": 0.107,
      "velocity": 0.71,
      "hand": "right"
    },
    {
      "midi": 76,
      "time": 13.821,
      "duration": 0.107,
      "velocity": 0.71,
      "hand": "right"
    },
    {
      "midi": 53,
      "time": 13.929,
      "duration": 0.214,
      "velocity": 0.71,
      "hand": "left"
    },
    {
      "midi": 61,
      "time": 13.929,
      "duration": 0.214,
      "velocity": 0.71,
      "hand": "right"
    },
    {
      "midi": 77,
      "time": 13.929,
      "duration": 0.107,
      "velocity": 0.71,
      "hand": "right"
    },
    {
      "midi": 82,
      "time": 14.036,
      "duration": 0.107,
      "velocity": 0.71,
      "hand": "right"
    },
    {
      "midi": 48,
      "time": 14.143,
      "duration": 0.214,
      "velocity": 0.71,
      "hand": "left"
    },
    {
      "midi": 80,
      "time": 14.143,
      "duration": 0.054,
      "velocity": 0.71,
      "hand": "right"
    },
    {
      "midi": 82,
      "time": 14.196,
      "duration": 0.054,
      "velocity": 0.71,
      "hand": "right"
    },
    {
      "midi": 80,
      "time": 14.304,
      "duration": 0.054,
      "velocity": 0.71,
      "hand": "right"
    },
    {
      "midi": 56,
      "time": 14.357,
      "duration": 0.214,
      "velocity": 0.71,
      "hand": "left"
    },
    {
      "midi": 63,
      "time": 14.357,
      "duration": 0.214,
      "velocity": 0.71,
      "hand": "right"
    },
    {
      "midi": 66,
      "time": 14.357,
      "duration": 0.214,
      "velocity": 0.71,
      "hand": "right"
    },
    {
      "midi": 79,
      "time": 14.357,
      "duration": 0.107,
      "velocity": 0.71,
      "hand": "right"
    },
    {
      "midi": 80,
      "time": 14.464,
      "duration": 0.107,
      "velocity": 0.71,
      "hand": "right"
    },
    {
      "midi": 56,
      "time": 14.571,
      "duration": 0.214,
      "velocity": 0.71,
      "hand": "left"
    },
    {
      "midi": 63,
      "time": 14.571,
      "duration": 0.214,
      "velocity": 0.71,
      "hand": "right"
    },
    {
      "midi": 66,
      "time": 14.571,
      "duration": 0.214,
      "velocity": 0.71,
      "hand": "right"
    },
    {
      "midi": 84,
      "time": 14.571,
      "duration": 0.107,
      "velocity": 0.71,
      "hand": "right"
    },
    {
      "midi": 82,
      "time": 14.679,
      "duration": 0.107,
      "velocity": 0.71,
      "hand": "right"
    },
    {
      "midi": 49,
      "time": 14.786,
      "duration": 0.214,
      "velocity": 0.71,
      "hand": "left"
    },
    {
      "midi": 80,
      "time": 14.786,
      "duration": 0.107,
      "velocity": 0.71,
      "hand": "right"
    },
    {
      "midi": 82,
      "time": 14.893,
      "duration": 0.107,
      "velocity": 0.71,
      "hand": "right"
    },
    {
      "midi": 56,
      "time": 15,
      "duration": 0.214,
      "velocity": 0.71,
      "hand": "left"
    },
    {
      "midi": 65,
      "time": 15,
      "duration": 0.214,
      "velocity": 0.71,
      "hand": "right"
    },
    {
      "midi": 80,
      "time": 15,
      "duration": 0.107,
      "velocity": 0.71,
      "hand": "right"
    },
    {
      "midi": 79,
      "time": 15.107,
      "duration": 0.107,
      "velocity": 0.71,
      "hand": "right"
    },
    {
      "midi": 80,
      "time": 15.214,
      "duration": 0.107,
      "velocity": 0.71,
      "hand": "right"
    },
    {
      "midi": 85,
      "time": 15.321,
      "duration": 0.107,
      "velocity": 0.71,
      "hand": "right"
    },
    {
      "midi": 54,
      "time": 15.429,
      "duration": 0.214,
      "velocity": 0.71,
      "hand": "left"
    },
    {
      "midi": 84,
      "time": 15.429,
      "duration": 0.107,
      "velocity": 0.71,
      "hand": "right"
    },
    {
      "midi": 82,
      "time": 15.536,
      "duration": 0.107,
      "velocity": 0.71,
      "hand": "right"
    },
    {
      "midi": 58,
      "time": 15.643,
      "duration": 0.214,
      "velocity": 0.71,
      "hand": "left"
    },
    {
      "midi": 63,
      "time": 15.643,
      "duration": 0.214,
      "velocity": 0.71,
      "hand": "right"
    },
    {
      "midi": 80,
      "time": 15.643,
      "duration": 0.107,
      "velocity": 0.71,
      "hand": "right"
    },
    {
      "midi": 78,
      "time": 15.75,
      "duration": 0.107,
      "velocity": 0.71,
      "hand": "right"
    },
    {
      "midi": 77,
      "time": 15.857,
      "duration": 0.107,
      "velocity": 0.71,
      "hand": "right"
    },
    {
      "midi": 75,
      "time": 15.964,
      "duration": 0.107,
      "velocity": 0.71,
      "hand": "right"
    },
    {
      "midi": 44,
      "time": 16.071,
      "duration": 0.214,
      "velocity": 0.71,
      "hand": "left"
    },
    {
      "midi": 73,
      "time": 16.071,
      "duration": 0.107,
      "velocity": 0.71,
      "hand": "right"
    },
    {
      "midi": 72,
      "time": 16.179,
      "duration": 0.107,
      "velocity": 0.71,
      "hand": "right"
    },
    {
      "midi": 53,
      "time": 16.286,
      "duration": 0.214,
      "velocity": 0.71,
      "hand": "left"
    },
    {
      "midi": 56,
      "time": 16.286,
      "duration": 0.214,
      "velocity": 0.71,
      "hand": "left"
    },
    {
      "midi": 61,
      "time": 16.286,
      "duration": 0.214,
      "velocity": 0.71,
      "hand": "right"
    },
    {
      "midi": 70,
      "time": 16.286,
      "duration": 0.107,
      "velocity": 0.71,
      "hand": "right"
    },
    {
      "midi": 68,
      "time": 16.393,
      "duration": 0.107,
      "velocity": 0.71,
      "hand": "right"
    },
    {
      "midi": 66,
      "time": 16.5,
      "duration": 0.107,
      "velocity": 0.71,
      "hand": "right"
    },
    {
      "midi": 65,
      "time": 16.607,
      "duration": 0.107,
      "velocity": 0.71,
      "hand": "right"
    },
    {
      "midi": 44,
      "time": 16.714,
      "duration": 0.214,
      "velocity": 0.71,
      "hand": "left"
    },
    {
      "midi": 63,
      "time": 16.714,
      "duration": 0.107,
      "velocity": 0.71,
      "hand": "right"
    },
    {
      "midi": 61,
      "time": 16.821,
      "duration": 0.107,
      "velocity": 0.71,
      "hand": "right"
    },
    {
      "midi": 54,
      "time": 16.929,
      "duration": 0.214,
      "velocity": 0.71,
      "hand": "left"
    },
    {
      "midi": 56,
      "time": 16.929,
      "duration": 0.214,
      "velocity": 0.71,
      "hand": "left"
    },
    {
      "midi": 60,
      "time": 16.929,
      "duration": 0.107,
      "velocity": 0.71,
      "hand": "right"
    },
    {
      "midi": 63,
      "time": 17.036,
      "duration": 0.107,
      "velocity": 0.71,
      "hand": "right"
    },
    {
      "midi": 54,
      "time": 17.143,
      "duration": 0.214,
      "velocity": 0.71,
      "hand": "left"
    },
    {
      "midi": 56,
      "time": 17.143,
      "duration": 0.214,
      "velocity": 0.71,
      "hand": "left"
    },
    {
      "midi": 60,
      "time": 17.143,
      "duration": 0.214,
      "velocity": 0.71,
      "hand": "right"
    },
    {
      "midi": 70,
      "time": 17.143,
      "duration": 0.107,
      "velocity": 0.71,
      "hand": "right"
    },
    {
      "midi": 68,
      "time": 17.25,
      "duration": 0.107,
      "velocity": 0.71,
      "hand": "right"
    },
    {
      "midi": 49,
      "time": 17.357,
      "duration": 0.214,
      "velocity": 0.71,
      "hand": "left"
    },
    {
      "midi": 67,
      "time": 17.357,
      "duration": 0.107,
      "velocity": 0.71,
      "hand": "right"
    },
    {
      "midi": 68,
      "time": 17.464,
      "duration": 0.107,
      "velocity": 0.71,
      "hand": "right"
    },
    {
      "midi": 56,
      "time": 17.571,
      "duration": 0.214,
      "velocity": 0.71,
      "hand": "left"
    },
    {
      "midi": 61,
      "time": 17.571,
      "duration": 0.214,
      "velocity": 0.71,
      "hand": "right"
    },
    {
      "midi": 65,
      "time": 17.571,
      "duration": 0.214,
      "velocity": 0.71,
      "hand": "right"
    },
    {
      "midi": 70,
      "time": 17.571,
      "duration": 0.107,
      "velocity": 0.71,
      "hand": "right"
    },
    {
      "midi": 72,
      "time": 17.679,
      "duration": 0.107,
      "velocity": 0.71,
      "hand": "right"
    },
    {
      "midi": 73,
      "time": 17.786,
      "duration": 0.107,
      "velocity": 0.71,
      "hand": "right"
    },
    {
      "midi": 75,
      "time": 17.893,
      "duration": 0.107,
      "velocity": 0.71,
      "hand": "right"
    },
    {
      "midi": 57,
      "time": 18,
      "duration": 0.643,
      "velocity": 0.71,
      "hand": "left"
    },
    {
      "midi": 77,
      "time": 18,
      "duration": 0.054,
      "velocity": 0.71,
      "hand": "right"
    },
    {
      "midi": 78,
      "time": 18.054,
      "duration": 0.054,
      "velocity": 0.71,
      "hand": "right"
    },
    {
      "midi": 77,
      "time": 18.161,
      "duration": 0.054,
      "velocity": 0.71,
      "hand": "right"
    },
    {
      "midi": 63,
      "time": 18.214,
      "duration": 0.214,
      "velocity": 0.71,
      "hand": "right"
    },
    {
      "midi": 65,
      "time": 18.214,
      "duration": 0.214,
      "velocity": 0.71,
      "hand": "right"
    },
    {
      "midi": 76,
      "time": 18.214,
      "duration": 0.107,
      "velocity": 0.71,
      "hand": "right"
    },
    {
      "midi": 77,
      "time": 18.321,
      "duration": 0.107,
      "velocity": 0.71,
      "hand": "right"
    },
    {
      "midi": 63,
      "time": 18.429,
      "duration": 0.214,
      "velocity": 0.71,
      "hand": "right"
    },
    {
      "midi": 65,
      "time": 18.429,
      "duration": 0.214,
      "velocity": 0.71,
      "hand": "right"
    },
    {
      "midi": 80,
      "time": 18.429,
      "duration": 0.107,
      "velocity": 0.71,
      "hand": "right"
    },
    {
      "midi": 78,
      "time": 18.536,
      "duration": 0.107,
      "velocity": 0.71,
      "hand": "right"
    },
    {
      "midi": 58,
      "time": 18.643,
      "duration": 0.643,
      "velocity": 0.71,
      "hand": "left"
    },
    {
      "midi": 77,
      "time": 18.643,
      "duration": 0.107,
      "velocity": 0.71,
      "hand": "right"
    },
    {
      "midi": 78,
      "time": 18.75,
      "duration": 0.107,
      "velocity": 0.71,
      "hand": "right"
    },
    {
      "midi": 61,
      "time": 18.857,
      "duration": 0.214,
      "velocity": 0.71,
      "hand": "right"
    },
    {
      "midi": 65,
      "time": 18.857,
      "duration": 0.214,
      "velocity": 0.71,
      "hand": "right"
    },
    {
      "midi": 77,
      "time": 18.857,
      "duration": 0.107,
      "velocity": 0.71,
      "hand": "right"
    },
    {
      "midi": 76,
      "time": 18.964,
      "duration": 0.107,
      "velocity": 0.71,
      "hand": "right"
    },
    {
      "midi": 61,
      "time": 19.071,
      "duration": 0.214,
      "velocity": 0.71,
      "hand": "right"
    },
    {
      "midi": 65,
      "time": 19.071,
      "duration": 0.214,
      "velocity": 0.71,
      "hand": "right"
    },
    {
      "midi": 77,
      "time": 19.071,
      "duration": 0.107,
      "velocity": 0.71,
      "hand": "right"
    },
    {
      "midi": 82,
      "time": 19.179,
      "duration": 0.107,
      "velocity": 0.71,
      "hand": "right"
    },
    {
      "midi": 60,
      "time": 19.286,
      "duration": 0.643,
      "velocity": 0.71,
      "hand": "right"
    },
    {
      "midi": 80,
      "time": 19.286,
      "duration": 0.054,
      "velocity": 0.71,
      "hand": "right"
    },
    {
      "midi": 82,
      "time": 19.339,
      "duration": 0.054,
      "velocity": 0.71,
      "hand": "right"
    },
    {
      "midi": 80,
      "time": 19.446,
      "duration": 0.054,
      "velocity": 0.71,
      "hand": "right"
    },
    {
      "midi": 66,
      "time": 19.5,
      "duration": 0.214,
      "velocity": 0.71,
      "hand": "right"
    },
    {
      "midi": 68,
      "time": 19.5,
      "duration": 0.214,
      "velocity": 0.71,
      "hand": "right"
    },
    {
      "midi": 79,
      "time": 19.5,
      "duration": 0.107,
      "velocity": 0.71,
      "hand": "right"
    },
    {
      "midi": 80,
      "time": 19.607,
      "duration": 0.107,
      "velocity": 0.71,
      "hand": "right"
    },
    {
      "midi": 66,
      "time": 19.714,
      "duration": 0.214,
      "velocity": 0.71,
      "hand": "right"
    },
    {
      "midi": 68,
      "time": 19.714,
      "duration": 0.214,
      "velocity": 0.71,
      "hand": "right"
    },
    {
      "midi": 84,
      "time": 19.714,
      "duration": 0.107,
      "velocity": 0.71,
      "hand": "right"
    },
    {
      "midi": 82,
      "time": 19.821,
      "duration": 0.107,
      "velocity": 0.71,
      "hand": "right"
    },
    {
      "midi": 61,
      "time": 19.929,
      "duration": 0.214,
      "velocity": 0.71,
      "hand": "right"
    },
    {
      "midi": 80,
      "time": 19.929,
      "duration": 0.107,
      "velocity": 0.71,
      "hand": "right"
    },
    {
      "midi": 82,
      "time": 20.036,
      "duration": 0.107,
      "velocity": 0.71,
      "hand": "right"
    },
    {
      "midi": 65,
      "time": 20.143,
      "duration": 0.214,
      "velocity": 0.71,
      "hand": "right"
    },
    {
      "midi": 68,
      "time": 20.143,
      "duration": 0.214,
      "velocity": 0.71,
      "hand": "right"
    },
    {
      "midi": 80,
      "time": 20.143,
      "duration": 0.107,
      "velocity": 0.71,
      "hand": "right"
    },
    {
      "midi": 79,
      "time": 20.25,
      "duration": 0.107,
      "velocity": 0.71,
      "hand": "right"
    },
    {
      "midi": 80,
      "time": 20.357,
      "duration": 0.107,
      "velocity": 0.71,
      "hand": "right"
    },
    {
      "midi": 89,
      "time": 20.464,
      "duration": 0.107,
      "velocity": 0.71,
      "hand": "right"
    },
    {
      "midi": 54,
      "time": 20.571,
      "duration": 0.214,
      "velocity": 0.71,
      "hand": "left"
    },
    {
      "midi": 87,
      "time": 20.571,
      "duration": 0.107,
      "velocity": 0.71,
      "hand": "right"
    },
    {
      "midi": 85,
      "time": 20.679,
      "duration": 0.107,
      "velocity": 0.71,
      "hand": "right"
    },
    {
      "midi": 61,
      "time": 20.786,
      "duration": 0.214,
      "velocity": 0.71,
      "hand": "right"
    },
    {
      "midi": 63,
      "time": 20.786,
      "duration": 0.214,
      "velocity": 0.71,
      "hand": "right"
    },
    {
      "midi": 70,
      "time": 20.786,
      "duration": 0.214,
      "velocity": 0.71,
      "hand": "right"
    },
    {
      "midi": 84,
      "time": 20.786,
      "duration": 0.107,
      "velocity": 0.71,
      "hand": "right"
    },
    {
      "midi": 82,
      "time": 20.893,
      "duration": 0.107,
      "velocity": 0.71,
      "hand": "right"
    },
    {
      "midi": 80,
      "time": 21,
      "duration": 0.107,
      "velocity": 0.71,
      "hand": "right"
    },
    {
      "midi": 78,
      "time": 21.107,
      "duration": 0.107,
      "velocity": 0.71,
      "hand": "right"
    },
    {
      "midi": 44,
      "time": 21.214,
      "duration": 0.214,
      "velocity": 0.71,
      "hand": "left"
    },
    {
      "midi": 77,
      "time": 21.214,
      "duration": 0.107,
      "velocity": 0.71,
      "hand": "right"
    },
    {
      "midi": 75,
      "time": 21.321,
      "duration": 0.107,
      "velocity": 0.71,
      "hand": "right"
    },
    {
      "midi": 53,
      "time": 21.429,
      "duration": 0.214,
      "velocity": 0.71,
      "hand": "left"
    },
    {
      "midi": 56,
      "time": 21.429,
      "duration": 0.214,
      "velocity": 0.71,
      "hand": "left"
    },
    {
      "midi": 61,
      "time": 21.429,
      "duration": 0.214,
      "velocity": 0.71,
      "hand": "right"
    },
    {
      "midi": 73,
      "time": 21.429,
      "duration": 0.107,
      "velocity": 0.71,
      "hand": "right"
    },
    {
      "midi": 72,
      "time": 21.536,
      "duration": 0.107,
      "velocity": 0.71,
      "hand": "right"
    },
    {
      "midi": 70,
      "time": 21.643,
      "duration": 0.107,
      "velocity": 0.71,
      "hand": "right"
    },
    {
      "midi": 68,
      "time": 21.75,
      "duration": 0.107,
      "velocity": 0.71,
      "hand": "right"
    },
    {
      "midi": 44,
      "time": 21.857,
      "duration": 0.214,
      "velocity": 0.71,
      "hand": "left"
    },
    {
      "midi": 69,
      "time": 21.857,
      "duration": 0.107,
      "velocity": 0.71,
      "hand": "right"
    },
    {
      "midi": 72,
      "time": 21.964,
      "duration": 0.107,
      "velocity": 0.71,
      "hand": "right"
    },
    {
      "midi": 54,
      "time": 22.071,
      "duration": 0.214,
      "velocity": 0.71,
      "hand": "left"
    },
    {
      "midi": 56,
      "time": 22.071,
      "duration": 0.214,
      "velocity": 0.71,
      "hand": "left"
    },
    {
      "midi": 70,
      "time": 22.071,
      "duration": 0.107,
      "velocity": 0.71,
      "hand": "right"
    },
    {
      "midi": 65,
      "time": 22.179,
      "duration": 0.107,
      "velocity": 0.71,
      "hand": "right"
    },
    {
      "midi": 54,
      "time": 22.286,
      "duration": 0.214,
      "velocity": 0.71,
      "hand": "left"
    },
    {
      "midi": 56,
      "time": 22.286,
      "duration": 0.214,
      "velocity": 0.71,
      "hand": "left"
    },
    {
      "midi": 66,
      "time": 22.286,
      "duration": 0.107,
      "velocity": 0.71,
      "hand": "right"
    },
    {
      "midi": 60,
      "time": 22.393,
      "duration": 0.107,
      "velocity": 0.71,
      "hand": "right"
    },
    {
      "midi": 49,
      "time": 22.5,
      "duration": 0.214,
      "velocity": 0.71,
      "hand": "left"
    },
    {
      "midi": 61,
      "time": 22.5,
      "duration": 0.214,
      "velocity": 0.71,
      "hand": "right"
    },
    {
      "midi": 56,
      "time": 22.714,
      "duration": 0.214,
      "velocity": 0.71,
      "hand": "left"
    },
    {
      "midi": 65,
      "time": 22.714,
      "duration": 0.214,
      "velocity": 0.71,
      "hand": "right"
    },
    {
      "midi": 77,
      "time": 22.929,
      "duration": 0.214,
      "velocity": 0.71,
      "hand": "right"
    },
    {
      "midi": 45,
      "time": 23.143,
      "duration": 0.214,
      "velocity": 0.71,
      "hand": "left"
    },
    {
      "midi": 77,
      "time": 23.143,
      "duration": 0.054,
      "velocity": 0.71,
      "hand": "right"
    },
    {
      "midi": 78,
      "time": 23.196,
      "duration": 0.054,
      "velocity": 0.71,
      "hand": "right"
    },
    {
      "midi": 77,
      "time": 23.304,
      "duration": 0.054,
      "velocity": 0.71,
      "hand": "right"
    },
    {
      "midi": 53,
      "time": 23.357,
      "duration": 0.214,
      "velocity": 0.71,
      "hand": "left"
    },
    {
      "midi": 60,
      "time": 23.357,
      "duration": 0.214,
      "velocity": 0.71,
      "hand": "right"
    },
    {
      "midi": 63,
      "time": 23.357,
      "duration": 0.214,
      "velocity": 0.71,
      "hand": "right"
    },
    {
      "midi": 76,
      "time": 23.357,
      "duration": 0.107,
      "velocity": 0.71,
      "hand": "right"
    },
    {
      "midi": 77,
      "time": 23.464,
      "duration": 0.107,
      "velocity": 0.71,
      "hand": "right"
    },
    {
      "midi": 53,
      "time": 23.571,
      "duration": 0.214,
      "velocity": 0.71,
      "hand": "left"
    },
    {
      "midi": 60,
      "time": 23.571,
      "duration": 0.214,
      "velocity": 0.71,
      "hand": "right"
    },
    {
      "midi": 63,
      "time": 23.571,
      "duration": 0.214,
      "velocity": 0.71,
      "hand": "right"
    },
    {
      "midi": 80,
      "time": 23.571,
      "duration": 0.107,
      "velocity": 0.71,
      "hand": "right"
    },
    {
      "midi": 78,
      "time": 23.679,
      "duration": 0.107,
      "velocity": 0.71,
      "hand": "right"
    },
    {
      "midi": 46,
      "time": 23.786,
      "duration": 0.214,
      "velocity": 0.71,
      "hand": "left"
    },
    {
      "midi": 77,
      "time": 23.786,
      "duration": 0.107,
      "velocity": 0.71,
      "hand": "right"
    },
    {
      "midi": 78,
      "time": 23.893,
      "duration": 0.107,
      "velocity": 0.71,
      "hand": "right"
    },
    {
      "midi": 53,
      "time": 24,
      "duration": 0.214,
      "velocity": 0.71,
      "hand": "left"
    },
    {
      "midi": 61,
      "time": 24,
      "duration": 0.214,
      "velocity": 0.71,
      "hand": "right"
    },
    {
      "midi": 77,
      "time": 24,
      "duration": 0.107,
      "velocity": 0.71,
      "hand": "right"
    },
    {
      "midi": 76,
      "time": 24.107,
      "duration": 0.107,
      "velocity": 0.71,
      "hand": "right"
    },
    {
      "midi": 53,
      "time": 24.214,
      "duration": 0.214,
      "velocity": 0.71,
      "hand": "left"
    },
    {
      "midi": 61,
      "time": 24.214,
      "duration": 0.214,
      "velocity": 0.71,
      "hand": "right"
    },
    {
      "midi": 77,
      "time": 24.214,
      "duration": 0.107,
      "velocity": 0.71,
      "hand": "right"
    },
    {
      "midi": 82,
      "time": 24.321,
      "duration": 0.107,
      "velocity": 0.71,
      "hand": "right"
    },
    {
      "midi": 48,
      "time": 24.429,
      "duration": 0.214,
      "velocity": 0.71,
      "hand": "left"
    },
    {
      "midi": 80,
      "time": 24.429,
      "duration": 0.054,
      "velocity": 0.71,
      "hand": "right"
    },
    {
      "midi": 82,
      "time": 24.482,
      "duration": 0.054,
      "velocity": 0.71,
      "hand": "right"
    },
    {
      "midi": 80,
      "time": 24.589,
      "duration": 0.054,
      "velocity": 0.71,
      "hand": "right"
    },
    {
      "midi": 56,
      "time": 24.643,
      "duration": 0.214,
      "velocity": 0.71,
      "hand": "left"
    },
    {
      "midi": 63,
      "time": 24.643,
      "duration": 0.214,
      "velocity": 0.71,
      "hand": "right"
    },
    {
      "midi": 66,
      "time": 24.643,
      "duration": 0.214,
      "velocity": 0.71,
      "hand": "right"
    },
    {
      "midi": 79,
      "time": 24.643,
      "duration": 0.107,
      "velocity": 0.71,
      "hand": "right"
    },
    {
      "midi": 80,
      "time": 24.75,
      "duration": 0.107,
      "velocity": 0.71,
      "hand": "right"
    },
    {
      "midi": 56,
      "time": 24.857,
      "duration": 0.214,
      "velocity": 0.71,
      "hand": "left"
    },
    {
      "midi": 63,
      "time": 24.857,
      "duration": 0.214,
      "velocity": 0.71,
      "hand": "right"
    },
    {
      "midi": 66,
      "time": 24.857,
      "duration": 0.214,
      "velocity": 0.71,
      "hand": "right"
    },
    {
      "midi": 84,
      "time": 24.857,
      "duration": 0.107,
      "velocity": 0.71,
      "hand": "right"
    },
    {
      "midi": 82,
      "time": 24.964,
      "duration": 0.107,
      "velocity": 0.71,
      "hand": "right"
    },
    {
      "midi": 49,
      "time": 25.071,
      "duration": 0.214,
      "velocity": 0.71,
      "hand": "left"
    },
    {
      "midi": 80,
      "time": 25.071,
      "duration": 0.107,
      "velocity": 0.71,
      "hand": "right"
    },
    {
      "midi": 82,
      "time": 25.179,
      "duration": 0.107,
      "velocity": 0.71,
      "hand": "right"
    },
    {
      "midi": 56,
      "time": 25.286,
      "duration": 0.214,
      "velocity": 0.71,
      "hand": "left"
    },
    {
      "midi": 65,
      "time": 25.286,
      "duration": 0.214,
      "velocity": 0.71,
      "hand": "right"
    },
    {
      "midi": 80,
      "time": 25.286,
      "duration": 0.107,
      "velocity": 0.71,
      "hand": "right"
    },
    {
      "midi": 79,
      "time": 25.393,
      "duration": 0.107,
      "velocity": 0.71,
      "hand": "right"
    },
    {
      "midi": 80,
      "time": 25.5,
      "duration": 0.107,
      "velocity": 0.71,
      "hand": "right"
    },
    {
      "midi": 85,
      "time": 25.607,
      "duration": 0.107,
      "velocity": 0.71,
      "hand": "right"
    },
    {
      "midi": 54,
      "time": 25.714,
      "duration": 0.214,
      "velocity": 0.71,
      "hand": "left"
    },
    {
      "midi": 84,
      "time": 25.714,
      "duration": 0.107,
      "velocity": 0.71,
      "hand": "right"
    },
    {
      "midi": 82,
      "time": 25.821,
      "duration": 0.107,
      "velocity": 0.71,
      "hand": "right"
    },
    {
      "midi": 58,
      "time": 25.929,
      "duration": 0.214,
      "velocity": 0.71,
      "hand": "left"
    },
    {
      "midi": 63,
      "time": 25.929,
      "duration": 0.214,
      "velocity": 0.71,
      "hand": "right"
    },
    {
      "midi": 80,
      "time": 25.929,
      "duration": 0.107,
      "velocity": 0.71,
      "hand": "right"
    },
    {
      "midi": 78,
      "time": 26.036,
      "duration": 0.107,
      "velocity": 0.71,
      "hand": "right"
    },
    {
      "midi": 77,
      "time": 26.143,
      "duration": 0.107,
      "velocity": 0.71,
      "hand": "right"
    },
    {
      "midi": 75,
      "time": 26.25,
      "duration": 0.107,
      "velocity": 0.71,
      "hand": "right"
    },
    {
      "midi": 44,
      "time": 26.357,
      "duration": 0.214,
      "velocity": 0.71,
      "hand": "left"
    },
    {
      "midi": 73,
      "time": 26.357,
      "duration": 0.107,
      "velocity": 0.71,
      "hand": "right"
    },
    {
      "midi": 72,
      "time": 26.464,
      "duration": 0.107,
      "velocity": 0.71,
      "hand": "right"
    },
    {
      "midi": 53,
      "time": 26.571,
      "duration": 0.214,
      "velocity": 0.71,
      "hand": "left"
    },
    {
      "midi": 56,
      "time": 26.571,
      "duration": 0.214,
      "velocity": 0.71,
      "hand": "left"
    },
    {
      "midi": 61,
      "time": 26.571,
      "duration": 0.214,
      "velocity": 0.71,
      "hand": "right"
    },
    {
      "midi": 70,
      "time": 26.571,
      "duration": 0.107,
      "velocity": 0.71,
      "hand": "right"
    },
    {
      "midi": 68,
      "time": 26.679,
      "duration": 0.107,
      "velocity": 0.71,
      "hand": "right"
    },
    {
      "midi": 66,
      "time": 26.786,
      "duration": 0.107,
      "velocity": 0.71,
      "hand": "right"
    },
    {
      "midi": 65,
      "time": 26.893,
      "duration": 0.107,
      "velocity": 0.71,
      "hand": "right"
    },
    {
      "midi": 44,
      "time": 27,
      "duration": 0.214,
      "velocity": 0.71,
      "hand": "left"
    },
    {
      "midi": 63,
      "time": 27,
      "duration": 0.107,
      "velocity": 0.71,
      "hand": "right"
    },
    {
      "midi": 61,
      "time": 27.107,
      "duration": 0.107,
      "velocity": 0.71,
      "hand": "right"
    },
    {
      "midi": 54,
      "time": 27.214,
      "duration": 0.214,
      "velocity": 0.71,
      "hand": "left"
    },
    {
      "midi": 56,
      "time": 27.214,
      "duration": 0.214,
      "velocity": 0.71,
      "hand": "left"
    },
    {
      "midi": 60,
      "time": 27.214,
      "duration": 0.107,
      "velocity": 0.71,
      "hand": "right"
    },
    {
      "midi": 63,
      "time": 27.321,
      "duration": 0.107,
      "velocity": 0.71,
      "hand": "right"
    },
    {
      "midi": 54,
      "time": 27.429,
      "duration": 0.214,
      "velocity": 0.71,
      "hand": "left"
    },
    {
      "midi": 56,
      "time": 27.429,
      "duration": 0.214,
      "velocity": 0.71,
      "hand": "left"
    },
    {
      "midi": 60,
      "time": 27.429,
      "duration": 0.214,
      "velocity": 0.71,
      "hand": "right"
    },
    {
      "midi": 70,
      "time": 27.429,
      "duration": 0.107,
      "velocity": 0.71,
      "hand": "right"
    },
    {
      "midi": 68,
      "time": 27.536,
      "duration": 0.107,
      "velocity": 0.71,
      "hand": "right"
    },
    {
      "midi": 49,
      "time": 27.643,
      "duration": 0.214,
      "velocity": 0.71,
      "hand": "left"
    },
    {
      "midi": 67,
      "time": 27.643,
      "duration": 0.107,
      "velocity": 0.71,
      "hand": "right"
    },
    {
      "midi": 68,
      "time": 27.75,
      "duration": 0.107,
      "velocity": 0.71,
      "hand": "right"
    },
    {
      "midi": 56,
      "time": 27.857,
      "duration": 0.214,
      "velocity": 0.71,
      "hand": "left"
    },
    {
      "midi": 61,
      "time": 27.857,
      "duration": 0.214,
      "velocity": 0.71,
      "hand": "right"
    },
    {
      "midi": 65,
      "time": 27.857,
      "duration": 0.214,
      "velocity": 0.71,
      "hand": "right"
    },
    {
      "midi": 70,
      "time": 27.857,
      "duration": 0.107,
      "velocity": 0.71,
      "hand": "right"
    },
    {
      "midi": 72,
      "time": 27.964,
      "duration": 0.107,
      "velocity": 0.71,
      "hand": "right"
    },
    {
      "midi": 73,
      "time": 28.071,
      "duration": 0.107,
      "velocity": 0.71,
      "hand": "right"
    },
    {
      "midi": 75,
      "time": 28.179,
      "duration": 0.107,
      "velocity": 0.71,
      "hand": "right"
    },
    {
      "midi": 57,
      "time": 28.286,
      "duration": 0.643,
      "velocity": 0.71,
      "hand": "left"
    },
    {
      "midi": 77,
      "time": 28.286,
      "duration": 0.054,
      "velocity": 0.71,
      "hand": "right"
    },
    {
      "midi": 78,
      "time": 28.339,
      "duration": 0.054,
      "velocity": 0.71,
      "hand": "right"
    },
    {
      "midi": 77,
      "time": 28.446,
      "duration": 0.054,
      "velocity": 0.71,
      "hand": "right"
    },
    {
      "midi": 63,
      "time": 28.5,
      "duration": 0.214,
      "velocity": 0.71,
      "hand": "right"
    },
    {
      "midi": 65,
      "time": 28.5,
      "duration": 0.214,
      "velocity": 0.71,
      "hand": "right"
    },
    {
      "midi": 76,
      "time": 28.5,
      "duration": 0.107,
      "velocity": 0.71,
      "hand": "right"
    },
    {
      "midi": 77,
      "time": 28.607,
      "duration": 0.107,
      "velocity": 0.71,
      "hand": "right"
    },
    {
      "midi": 63,
      "time": 28.714,
      "duration": 0.214,
      "velocity": 0.71,
      "hand": "right"
    },
    {
      "midi": 65,
      "time": 28.714,
      "duration": 0.214,
      "velocity": 0.71,
      "hand": "right"
    },
    {
      "midi": 80,
      "time": 28.714,
      "duration": 0.107,
      "velocity": 0.71,
      "hand": "right"
    },
    {
      "midi": 78,
      "time": 28.821,
      "duration": 0.107,
      "velocity": 0.71,
      "hand": "right"
    },
    {
      "midi": 58,
      "time": 28.929,
      "duration": 0.643,
      "velocity": 0.71,
      "hand": "left"
    },
    {
      "midi": 77,
      "time": 28.929,
      "duration": 0.107,
      "velocity": 0.71,
      "hand": "right"
    },
    {
      "midi": 78,
      "time": 29.036,
      "duration": 0.107,
      "velocity": 0.71,
      "hand": "right"
    },
    {
      "midi": 61,
      "time": 29.143,
      "duration": 0.214,
      "velocity": 0.71,
      "hand": "right"
    },
    {
      "midi": 65,
      "time": 29.143,
      "duration": 0.214,
      "velocity": 0.71,
      "hand": "right"
    },
    {
      "midi": 77,
      "time": 29.143,
      "duration": 0.107,
      "velocity": 0.71,
      "hand": "right"
    },
    {
      "midi": 76,
      "time": 29.25,
      "duration": 0.107,
      "velocity": 0.71,
      "hand": "right"
    },
    {
      "midi": 61,
      "time": 29.357,
      "duration": 0.214,
      "velocity": 0.71,
      "hand": "right"
    },
    {
      "midi": 65,
      "time": 29.357,
      "duration": 0.214,
      "velocity": 0.71,
      "hand": "right"
    },
    {
      "midi": 77,
      "time": 29.357,
      "duration": 0.107,
      "velocity": 0.71,
      "hand": "right"
    },
    {
      "midi": 82,
      "time": 29.464,
      "duration": 0.107,
      "velocity": 0.71,
      "hand": "right"
    },
    {
      "midi": 60,
      "time": 29.571,
      "duration": 0.643,
      "velocity": 0.71,
      "hand": "right"
    },
    {
      "midi": 80,
      "time": 29.571,
      "duration": 0.054,
      "velocity": 0.71,
      "hand": "right"
    },
    {
      "midi": 82,
      "time": 29.625,
      "duration": 0.054,
      "velocity": 0.71,
      "hand": "right"
    },
    {
      "midi": 80,
      "time": 29.732,
      "duration": 0.054,
      "velocity": 0.71,
      "hand": "right"
    },
    {
      "midi": 66,
      "time": 29.786,
      "duration": 0.214,
      "velocity": 0.71,
      "hand": "right"
    },
    {
      "midi": 68,
      "time": 29.786,
      "duration": 0.214,
      "velocity": 0.71,
      "hand": "right"
    },
    {
      "midi": 79,
      "time": 29.786,
      "duration": 0.107,
      "velocity": 0.71,
      "hand": "right"
    },
    {
      "midi": 80,
      "time": 29.893,
      "duration": 0.107,
      "velocity": 0.71,
      "hand": "right"
    },
    {
      "midi": 66,
      "time": 30,
      "duration": 0.214,
      "velocity": 0.71,
      "hand": "right"
    },
    {
      "midi": 68,
      "time": 30,
      "duration": 0.214,
      "velocity": 0.71,
      "hand": "right"
    },
    {
      "midi": 84,
      "time": 30,
      "duration": 0.107,
      "velocity": 0.71,
      "hand": "right"
    },
    {
      "midi": 82,
      "time": 30.107,
      "duration": 0.107,
      "velocity": 0.71,
      "hand": "right"
    },
    {
      "midi": 61,
      "time": 30.214,
      "duration": 0.214,
      "velocity": 0.71,
      "hand": "right"
    },
    {
      "midi": 80,
      "time": 30.214,
      "duration": 0.107,
      "velocity": 0.71,
      "hand": "right"
    },
    {
      "midi": 82,
      "time": 30.321,
      "duration": 0.107,
      "velocity": 0.71,
      "hand": "right"
    },
    {
      "midi": 65,
      "time": 30.429,
      "duration": 0.214,
      "velocity": 0.71,
      "hand": "right"
    },
    {
      "midi": 68,
      "time": 30.429,
      "duration": 0.214,
      "velocity": 0.71,
      "hand": "right"
    },
    {
      "midi": 80,
      "time": 30.429,
      "duration": 0.107,
      "velocity": 0.71,
      "hand": "right"
    },
    {
      "midi": 79,
      "time": 30.536,
      "duration": 0.107,
      "velocity": 0.71,
      "hand": "right"
    },
    {
      "midi": 80,
      "time": 30.643,
      "duration": 0.107,
      "velocity": 0.71,
      "hand": "right"
    },
    {
      "midi": 89,
      "time": 30.75,
      "duration": 0.107,
      "velocity": 0.71,
      "hand": "right"
    },
    {
      "midi": 54,
      "time": 30.857,
      "duration": 0.214,
      "velocity": 0.71,
      "hand": "left"
    },
    {
      "midi": 87,
      "time": 30.857,
      "duration": 0.107,
      "velocity": 0.71,
      "hand": "right"
    },
    {
      "midi": 85,
      "time": 30.964,
      "duration": 0.107,
      "velocity": 0.71,
      "hand": "right"
    },
    {
      "midi": 61,
      "time": 31.071,
      "duration": 0.214,
      "velocity": 0.71,
      "hand": "right"
    },
    {
      "midi": 63,
      "time": 31.071,
      "duration": 0.214,
      "velocity": 0.71,
      "hand": "right"
    },
    {
      "midi": 70,
      "time": 31.071,
      "duration": 0.214,
      "velocity": 0.71,
      "hand": "right"
    },
    {
      "midi": 84,
      "time": 31.071,
      "duration": 0.107,
      "velocity": 0.71,
      "hand": "right"
    },
    {
      "midi": 82,
      "time": 31.179,
      "duration": 0.107,
      "velocity": 0.71,
      "hand": "right"
    },
    {
      "midi": 80,
      "time": 31.286,
      "duration": 0.107,
      "velocity": 0.71,
      "hand": "right"
    },
    {
      "midi": 78,
      "time": 31.393,
      "duration": 0.107,
      "velocity": 0.71,
      "hand": "right"
    },
    {
      "midi": 44,
      "time": 31.5,
      "duration": 0.214,
      "velocity": 0.71,
      "hand": "left"
    },
    {
      "midi": 77,
      "time": 31.5,
      "duration": 0.107,
      "velocity": 0.71,
      "hand": "right"
    },
    {
      "midi": 75,
      "time": 31.607,
      "duration": 0.107,
      "velocity": 0.71,
      "hand": "right"
    },
    {
      "midi": 53,
      "time": 31.714,
      "duration": 0.214,
      "velocity": 0.71,
      "hand": "left"
    },
    {
      "midi": 56,
      "time": 31.714,
      "duration": 0.214,
      "velocity": 0.71,
      "hand": "left"
    },
    {
      "midi": 61,
      "time": 31.714,
      "duration": 0.214,
      "velocity": 0.71,
      "hand": "right"
    },
    {
      "midi": 73,
      "time": 31.714,
      "duration": 0.107,
      "velocity": 0.71,
      "hand": "right"
    },
    {
      "midi": 72,
      "time": 31.821,
      "duration": 0.107,
      "velocity": 0.71,
      "hand": "right"
    },
    {
      "midi": 70,
      "time": 31.929,
      "duration": 0.107,
      "velocity": 0.71,
      "hand": "right"
    },
    {
      "midi": 68,
      "time": 32.036,
      "duration": 0.107,
      "velocity": 0.71,
      "hand": "right"
    },
    {
      "midi": 44,
      "time": 32.143,
      "duration": 0.214,
      "velocity": 0.71,
      "hand": "left"
    },
    {
      "midi": 69,
      "time": 32.143,
      "duration": 0.107,
      "velocity": 0.71,
      "hand": "right"
    },
    {
      "midi": 72,
      "time": 32.25,
      "duration": 0.107,
      "velocity": 0.71,
      "hand": "right"
    },
    {
      "midi": 54,
      "time": 32.357,
      "duration": 0.214,
      "velocity": 0.71,
      "hand": "left"
    },
    {
      "midi": 56,
      "time": 32.357,
      "duration": 0.214,
      "velocity": 0.71,
      "hand": "left"
    },
    {
      "midi": 70,
      "time": 32.357,
      "duration": 0.107,
      "velocity": 0.71,
      "hand": "right"
    },
    {
      "midi": 65,
      "time": 32.464,
      "duration": 0.107,
      "velocity": 0.71,
      "hand": "right"
    },
    {
      "midi": 54,
      "time": 32.571,
      "duration": 0.214,
      "velocity": 0.71,
      "hand": "left"
    },
    {
      "midi": 56,
      "time": 32.571,
      "duration": 0.214,
      "velocity": 0.71,
      "hand": "left"
    },
    {
      "midi": 66,
      "time": 32.571,
      "duration": 0.107,
      "velocity": 0.71,
      "hand": "right"
    },
    {
      "midi": 60,
      "time": 32.679,
      "duration": 0.107,
      "velocity": 0.71,
      "hand": "right"
    },
    {
      "midi": 49,
      "time": 32.786,
      "duration": 0.214,
      "velocity": 0.71,
      "hand": "left"
    },
    {
      "midi": 61,
      "time": 32.786,
      "duration": 0.214,
      "velocity": 0.71,
      "hand": "right"
    },
    {
      "midi": 56,
      "time": 33,
      "duration": 0.214,
      "velocity": 0.71,
      "hand": "left"
    },
    {
      "midi": 65,
      "time": 33,
      "duration": 0.214,
      "velocity": 0.71,
      "hand": "right"
    },
    {
      "midi": 68,
      "time": 33.214,
      "duration": 0.643,
      "velocity": 0.71,
      "hand": "right"
    },
    {
      "midi": 44,
      "time": 33.429,
      "duration": 0.214,
      "velocity": 0.71,
      "hand": "left"
    },
    {
      "midi": 54,
      "time": 33.643,
      "duration": 0.214,
      "velocity": 0.71,
      "hand": "left"
    },
    {
      "midi": 56,
      "time": 33.643,
      "duration": 0.214,
      "velocity": 0.71,
      "hand": "left"
    },
    {
      "midi": 60,
      "time": 33.643,
      "duration": 0.214,
      "velocity": 0.71,
      "hand": "right"
    },
    {
      "midi": 54,
      "time": 33.857,
      "duration": 0.214,
      "velocity": 0.71,
      "hand": "left"
    },
    {
      "midi": 56,
      "time": 33.857,
      "duration": 0.214,
      "velocity": 0.71,
      "hand": "left"
    },
    {
      "midi": 60,
      "time": 33.857,
      "duration": 0.214,
      "velocity": 0.71,
      "hand": "right"
    },
    {
      "midi": 63,
      "time": 33.857,
      "duration": 0.214,
      "velocity": 0.71,
      "hand": "right"
    },
    {
      "midi": 54,
      "time": 34.071,
      "duration": 0.214,
      "velocity": 0.71,
      "hand": "left"
    },
    {
      "midi": 56,
      "time": 34.071,
      "duration": 0.214,
      "velocity": 0.71,
      "hand": "left"
    },
    {
      "midi": 60,
      "time": 34.071,
      "duration": 0.214,
      "velocity": 0.71,
      "hand": "right"
    },
    {
      "midi": 68,
      "time": 34.071,
      "duration": 0.429,
      "velocity": 0.71,
      "hand": "right"
    },
    {
      "midi": 54,
      "time": 34.286,
      "duration": 0.214,
      "velocity": 0.71,
      "hand": "left"
    },
    {
      "midi": 56,
      "time": 34.286,
      "duration": 0.214,
      "velocity": 0.71,
      "hand": "left"
    },
    {
      "midi": 60,
      "time": 34.286,
      "duration": 0.214,
      "velocity": 0.71,
      "hand": "right"
    },
    {
      "midi": 54,
      "time": 34.5,
      "duration": 0.214,
      "velocity": 0.71,
      "hand": "left"
    },
    {
      "midi": 56,
      "time": 34.5,
      "duration": 0.214,
      "velocity": 0.71,
      "hand": "left"
    },
    {
      "midi": 60,
      "time": 34.5,
      "duration": 0.214,
      "velocity": 0.71,
      "hand": "right"
    },
    {
      "midi": 64,
      "time": 34.5,
      "duration": 0.214,
      "velocity": 0.71,
      "hand": "right"
    },
    {
      "midi": 49,
      "time": 34.714,
      "duration": 0.214,
      "velocity": 0.71,
      "hand": "left"
    },
    {
      "midi": 68,
      "time": 34.714,
      "duration": 0.429,
      "velocity": 0.71,
      "hand": "right"
    },
    {
      "midi": 56,
      "time": 34.929,
      "duration": 0.214,
      "velocity": 0.71,
      "hand": "left"
    },
    {
      "midi": 61,
      "time": 34.929,
      "duration": 0.214,
      "velocity": 0.71,
      "hand": "right"
    },
    {
      "midi": 56,
      "time": 35.143,
      "duration": 0.214,
      "velocity": 0.71,
      "hand": "left"
    },
    {
      "midi": 61,
      "time": 35.143,
      "duration": 0.214,
      "velocity": 0.71,
      "hand": "right"
    },
    {
      "midi": 65,
      "time": 35.143,
      "duration": 0.214,
      "velocity": 0.71,
      "hand": "right"
    },
    {
      "midi": 44,
      "time": 35.357,
      "duration": 0.214,
      "velocity": 0.71,
      "hand": "left"
    },
    {
      "midi": 77,
      "time": 35.357,
      "duration": 0.429,
      "velocity": 0.71,
      "hand": "right"
    },
    {
      "midi": 56,
      "time": 35.571,
      "duration": 0.214,
      "velocity": 0.71,
      "hand": "left"
    },
    {
      "midi": 61,
      "time": 35.571,
      "duration": 0.214,
      "velocity": 0.71,
      "hand": "right"
    },
    {
      "midi": 65,
      "time": 35.571,
      "duration": 0.214,
      "velocity": 0.71,
      "hand": "right"
    },
    {
      "midi": 56,
      "time": 35.786,
      "duration": 0.214,
      "velocity": 0.71,
      "hand": "left"
    },
    {
      "midi": 61,
      "time": 35.786,
      "duration": 0.214,
      "velocity": 0.71,
      "hand": "right"
    },
    {
      "midi": 65,
      "time": 35.786,
      "duration": 0.214,
      "velocity": 0.71,
      "hand": "right"
    },
    {
      "midi": 77,
      "time": 35.786,
      "duration": 0.643,
      "velocity": 0.71,
      "hand": "right"
    },
    {
      "midi": 51,
      "time": 36,
      "duration": 0.214,
      "velocity": 0.71,
      "hand": "left"
    },
    {
      "midi": 56,
      "time": 36.214,
      "duration": 0.214,
      "velocity": 0.71,
      "hand": "left"
    },
    {
      "midi": 60,
      "time": 36.214,
      "duration": 0.214,
      "velocity": 0.71,
      "hand": "right"
    },
    {
      "midi": 66,
      "time": 36.214,
      "duration": 0.214,
      "velocity": 0.71,
      "hand": "right"
    },
    {
      "midi": 56,
      "time": 36.429,
      "duration": 0.214,
      "velocity": 0.71,
      "hand": "left"
    },
    {
      "midi": 60,
      "time": 36.429,
      "duration": 0.214,
      "velocity": 0.71,
      "hand": "right"
    },
    {
      "midi": 66,
      "time": 36.429,
      "duration": 0.214,
      "velocity": 0.71,
      "hand": "right"
    },
    {
      "midi": 70,
      "time": 36.429,
      "duration": 0.214,
      "velocity": 0.71,
      "hand": "right"
    },
    {
      "midi": 44,
      "time": 36.643,
      "duration": 0.214,
      "velocity": 0.71,
      "hand": "left"
    },
    {
      "midi": 77,
      "time": 36.643,
      "duration": 0.429,
      "velocity": 0.71,
      "hand": "right"
    },
    {
      "midi": 56,
      "time": 36.857,
      "duration": 0.214,
      "velocity": 0.71,
      "hand": "left"
    },
    {
      "midi": 63,
      "time": 36.857,
      "duration": 0.214,
      "velocity": 0.71,
      "hand": "right"
    },
    {
      "midi": 66,
      "time": 36.857,
      "duration": 0.214,
      "velocity": 0.71,
      "hand": "right"
    },
    {
      "midi": 56,
      "time": 37.071,
      "duration": 0.214,
      "velocity": 0.71,
      "hand": "left"
    },
    {
      "midi": 63,
      "time": 37.071,
      "duration": 0.214,
      "velocity": 0.71,
      "hand": "right"
    },
    {
      "midi": 66,
      "time": 37.071,
      "duration": 0.214,
      "velocity": 0.71,
      "hand": "right"
    },
    {
      "midi": 72,
      "time": 37.071,
      "duration": 0.214,
      "velocity": 0.71,
      "hand": "right"
    },
    {
      "midi": 49,
      "time": 37.286,
      "duration": 0.214,
      "velocity": 0.71,
      "hand": "left"
    },
    {
      "midi": 75,
      "time": 37.286,
      "duration": 0.429,
      "velocity": 0.71,
      "hand": "right"
    },
    {
      "midi": 56,
      "time": 37.5,
      "duration": 0.214,
      "velocity": 0.71,
      "hand": "left"
    },
    {
      "midi": 61,
      "time": 37.5,
      "duration": 0.214,
      "velocity": 0.71,
      "hand": "right"
    },
    {
      "midi": 65,
      "time": 37.5,
      "duration": 0.214,
      "velocity": 0.71,
      "hand": "right"
    },
    {
      "midi": 56,
      "time": 37.714,
      "duration": 0.214,
      "velocity": 0.71,
      "hand": "left"
    },
    {
      "midi": 61,
      "time": 37.714,
      "duration": 0.214,
      "velocity": 0.71,
      "hand": "right"
    },
    {
      "midi": 65,
      "time": 37.714,
      "duration": 0.214,
      "velocity": 0.71,
      "hand": "right"
    },
    {
      "midi": 73,
      "time": 37.714,
      "duration": 0.214,
      "velocity": 0.71,
      "hand": "right"
    },
    {
      "midi": 53,
      "time": 37.929,
      "duration": 0.214,
      "velocity": 0.71,
      "hand": "left"
    },
    {
      "midi": 72,
      "time": 37.929,
      "duration": 0.161,
      "velocity": 0.71,
      "hand": "right"
    },
    {
      "midi": 75,
      "time": 38.089,
      "duration": 0.161,
      "velocity": 0.71,
      "hand": "right"
    },
    {
      "midi": 56,
      "time": 38.143,
      "duration": 0.214,
      "velocity": 0.71,
      "hand": "left"
    },
    {
      "midi": 61,
      "time": 38.143,
      "duration": 0.214,
      "velocity": 0.71,
      "hand": "right"
    },
    {
      "midi": 65,
      "time": 38.143,
      "duration": 0.214,
      "velocity": 0.71,
      "hand": "right"
    },
    {
      "midi": 73,
      "time": 38.25,
      "duration": 0.161,
      "velocity": 0.71,
      "hand": "right"
    },
    {
      "midi": 56,
      "time": 38.357,
      "duration": 0.214,
      "velocity": 0.71,
      "hand": "left"
    },
    {
      "midi": 61,
      "time": 38.357,
      "duration": 0.214,
      "velocity": 0.71,
      "hand": "right"
    },
    {
      "midi": 65,
      "time": 38.357,
      "duration": 0.214,
      "velocity": 0.71,
      "hand": "right"
    },
    {
      "midi": 70,
      "time": 38.411,
      "duration": 0.161,
      "velocity": 0.71,
      "hand": "right"
    },
    {
      "midi": 48,
      "time": 38.571,
      "duration": 0.214,
      "velocity": 0.71,
      "hand": "left"
    },
    {
      "midi": 68,
      "time": 38.571,
      "duration": 0.429,
      "velocity": 0.71,
      "hand": "right"
    },
    {
      "midi": 54,
      "time": 38.786,
      "duration": 0.214,
      "velocity": 0.71,
      "hand": "left"
    },
    {
      "midi": 56,
      "time": 38.786,
      "duration": 0.214,
      "velocity": 0.71,
      "hand": "left"
    },
    {
      "midi": 54,
      "time": 39,
      "duration": 0.214,
      "velocity": 0.71,
      "hand": "left"
    },
    {
      "midi": 56,
      "time": 39,
      "duration": 0.214,
      "velocity": 0.71,
      "hand": "left"
    },
    {
      "midi": 63,
      "time": 39,
      "duration": 0.214,
      "velocity": 0.71,
      "hand": "right"
    },
    {
      "midi": 44,
      "time": 39.214,
      "duration": 0.214,
      "velocity": 0.71,
      "hand": "left"
    },
    {
      "midi": 68,
      "time": 39.214,
      "duration": 0.429,
      "velocity": 0.71,
      "hand": "right"
    },
    {
      "midi": 54,
      "time": 39.429,
      "duration": 0.214,
      "velocity": 0.71,
      "hand": "left"
    },
    {
      "midi": 56,
      "time": 39.429,
      "duration": 0.214,
      "velocity": 0.71,
      "hand": "left"
    },
    {
      "midi": 54,
      "time": 39.643,
      "duration": 0.214,
      "velocity": 0.71,
      "hand": "left"
    },
    {
      "midi": 56,
      "time": 39.643,
      "duration": 0.214,
      "velocity": 0.71,
      "hand": "left"
    },
    {
      "midi": 60,
      "time": 39.643,
      "duration": 0.214,
      "velocity": 0.71,
      "hand": "right"
    },
    {
      "midi": 64,
      "time": 39.643,
      "duration": 0.214,
      "velocity": 0.71,
      "hand": "right"
    },
    {
      "midi": 49,
      "time": 39.857,
      "duration": 0.214,
      "velocity": 0.71,
      "hand": "left"
    },
    {
      "midi": 68,
      "time": 39.857,
      "duration": 0.429,
      "velocity": 0.71,
      "hand": "right"
    },
    {
      "midi": 56,
      "time": 40.071,
      "duration": 0.214,
      "velocity": 0.71,
      "hand": "left"
    },
    {
      "midi": 61,
      "time": 40.071,
      "duration": 0.214,
      "velocity": 0.71,
      "hand": "right"
    },
    {
      "midi": 56,
      "time": 40.286,
      "duration": 0.214,
      "velocity": 0.71,
      "hand": "left"
    },
    {
      "midi": 61,
      "time": 40.286,
      "duration": 0.214,
      "velocity": 0.71,
      "hand": "right"
    },
    {
      "midi": 65,
      "time": 40.286,
      "duration": 0.214,
      "velocity": 0.71,
      "hand": "right"
    },
    {
      "midi": 47,
      "time": 40.5,
      "duration": 0.214,
      "velocity": 0.71,
      "hand": "left"
    },
    {
      "midi": 77,
      "time": 40.5,
      "duration": 0.643,
      "velocity": 0.71,
      "hand": "right"
    },
    {
      "midi": 56,
      "time": 40.714,
      "duration": 0.214,
      "velocity": 0.71,
      "hand": "left"
    },
    {
      "midi": 61,
      "time": 40.714,
      "duration": 0.214,
      "velocity": 0.71,
      "hand": "right"
    },
    {
      "midi": 65,
      "time": 40.714,
      "duration": 0.214,
      "velocity": 0.71,
      "hand": "right"
    },
    {
      "midi": 56,
      "time": 40.929,
      "duration": 0.214,
      "velocity": 0.71,
      "hand": "left"
    },
    {
      "midi": 61,
      "time": 40.929,
      "duration": 0.214,
      "velocity": 0.71,
      "hand": "right"
    },
    {
      "midi": 65,
      "time": 40.929,
      "duration": 0.214,
      "velocity": 0.71,
      "hand": "right"
    },
    {
      "midi": 48,
      "time": 41.143,
      "duration": 0.214,
      "velocity": 0.71,
      "hand": "left"
    },
    {
      "midi": 72,
      "time": 41.143,
      "duration": 0.214,
      "velocity": 0.71,
      "hand": "right"
    },
    {
      "midi": 56,
      "time": 41.357,
      "duration": 0.214,
      "velocity": 0.71,
      "hand": "left"
    },
    {
      "midi": 60,
      "time": 41.357,
      "duration": 0.214,
      "velocity": 0.71,
      "hand": "right"
    },
    {
      "midi": 65,
      "time": 41.357,
      "duration": 0.214,
      "velocity": 0.71,
      "hand": "right"
    },
    {
      "midi": 71,
      "time": 41.357,
      "duration": 0.214,
      "velocity": 0.71,
      "hand": "right"
    },
    {
      "midi": 56,
      "time": 41.571,
      "duration": 0.214,
      "velocity": 0.71,
      "hand": "left"
    },
    {
      "midi": 60,
      "time": 41.571,
      "duration": 0.214,
      "velocity": 0.71,
      "hand": "right"
    },
    {
      "midi": 65,
      "time": 41.571,
      "duration": 0.214,
      "velocity": 0.71,
      "hand": "right"
    },
    {
      "midi": 72,
      "time": 41.571,
      "duration": 0.214,
      "velocity": 0.71,
      "hand": "right"
    },
    {
      "midi": 36,
      "time": 41.786,
      "duration": 0.214,
      "velocity": 0.71,
      "hand": "left"
    },
    {
      "midi": 80,
      "time": 41.786,
      "duration": 0.214,
      "velocity": 0.71,
      "hand": "right"
    },
    {
      "midi": 55,
      "time": 42,
      "duration": 0.214,
      "velocity": 0.71,
      "hand": "left"
    },
    {
      "midi": 60,
      "time": 42,
      "duration": 0.214,
      "velocity": 0.71,
      "hand": "right"
    },
    {
      "midi": 64,
      "time": 42,
      "duration": 0.214,
      "velocity": 0.71,
      "hand": "right"
    },
    {
      "midi": 70,
      "time": 42,
      "duration": 0.214,
      "velocity": 0.71,
      "hand": "right"
    },
    {
      "midi": 79,
      "time": 42.214,
      "duration": 0.214,
      "velocity": 0.71,
      "hand": "right"
    },
    {
      "midi": 41,
      "time": 42.429,
      "duration": 0.214,
      "velocity": 0.71,
      "hand": "left"
    },
    {
      "midi": 69,
      "time": 42.429,
      "duration": 0.214,
      "velocity": 0.71,
      "hand": "right"
    },
    {
      "midi": 78,
      "time": 42.643,
      "duration": 0.214,
      "velocity": 0.71,
      "hand": "right"
    },
    {
      "midi": 53,
      "time": 42.857,
      "duration": 0.214,
      "velocity": 0.71,
      "hand": "left"
    },
    {
      "midi": 60,
      "time": 42.857,
      "duration": 0.214,
      "velocity": 0.71,
      "hand": "right"
    },
    {
      "midi": 68,
      "time": 42.857,
      "duration": 0.214,
      "velocity": 0.71,
      "hand": "right"
    },
    {
      "midi": 77,
      "time": 43.071,
      "duration": 0.214,
      "velocity": 0.71,
      "hand": "right"
    },
    {
      "midi": 65,
      "time": 43.286,
      "duration": 0.214,
      "velocity": 0.71,
      "hand": "right"
    },
    {
      "midi": 70,
      "time": 43.5,
      "duration": 0.214,
      "velocity": 0.71,
      "hand": "right"
    },
    {
      "midi": 48,
      "time": 43.714,
      "duration": 0.214,
      "velocity": 0.71,
      "hand": "left"
    },
    {
      "midi": 68,
      "time": 43.714,
      "duration": 0.429,
      "velocity": 0.71,
      "hand": "right"
    },
    {
      "midi": 54,
      "time": 43.929,
      "duration": 0.214,
      "velocity": 0.71,
      "hand": "left"
    },
    {
      "midi": 56,
      "time": 43.929,
      "duration": 0.214,
      "velocity": 0.71,
      "hand": "left"
    },
    {
      "midi": 54,
      "time": 44.143,
      "duration": 0.214,
      "velocity": 0.71,
      "hand": "left"
    },
    {
      "midi": 56,
      "time": 44.143,
      "duration": 0.214,
      "velocity": 0.71,
      "hand": "left"
    },
    {
      "midi": 63,
      "time": 44.143,
      "duration": 0.214,
      "velocity": 0.71,
      "hand": "right"
    },
    {
      "midi": 44,
      "time": 44.357,
      "duration": 0.214,
      "velocity": 0.71,
      "hand": "left"
    },
    {
      "midi": 68,
      "time": 44.357,
      "duration": 0.429,
      "velocity": 0.71,
      "hand": "right"
    },
    {
      "midi": 80,
      "time": 44.357,
      "duration": 0.027,
      "velocity": 0.71,
      "hand": "right"
    },
    {
      "midi": 54,
      "time": 44.571,
      "duration": 0.214,
      "velocity": 0.71,
      "hand": "left"
    },
    {
      "midi": 56,
      "time": 44.571,
      "duration": 0.214,
      "velocity": 0.71,
      "hand": "left"
    },
    {
      "midi": 60,
      "time": 44.571,
      "duration": 0.214,
      "velocity": 0.71,
      "hand": "right"
    },
    {
      "midi": 54,
      "time": 44.786,
      "duration": 0.214,
      "velocity": 0.71,
      "hand": "left"
    },
    {
      "midi": 56,
      "time": 44.786,
      "duration": 0.214,
      "velocity": 0.71,
      "hand": "left"
    },
    {
      "midi": 60,
      "time": 44.786,
      "duration": 0.214,
      "velocity": 0.71,
      "hand": "right"
    },
    {
      "midi": 64,
      "time": 44.786,
      "duration": 0.214,
      "velocity": 0.71,
      "hand": "right"
    },
    {
      "midi": 49,
      "time": 45,
      "duration": 0.214,
      "velocity": 0.71,
      "hand": "left"
    },
    {
      "midi": 68,
      "time": 45,
      "duration": 0.429,
      "velocity": 0.71,
      "hand": "right"
    },
    {
      "midi": 80,
      "time": 45,
      "duration": 0.027,
      "velocity": 0.71,
      "hand": "right"
    },
    {
      "midi": 56,
      "time": 45.214,
      "duration": 0.214,
      "velocity": 0.71,
      "hand": "left"
    },
    {
      "midi": 61,
      "time": 45.214,
      "duration": 0.214,
      "velocity": 0.71,
      "hand": "right"
    },
    {
      "midi": 56,
      "time": 45.429,
      "duration": 0.214,
      "velocity": 0.71,
      "hand": "left"
    },
    {
      "midi": 61,
      "time": 45.429,
      "duration": 0.214,
      "velocity": 0.71,
      "hand": "right"
    },
    {
      "midi": 65,
      "time": 45.429,
      "duration": 0.214,
      "velocity": 0.71,
      "hand": "right"
    },
    {
      "midi": 44,
      "time": 45.643,
      "duration": 0.214,
      "velocity": 0.71,
      "hand": "left"
    },
    {
      "midi": 77,
      "time": 45.643,
      "duration": 0.429,
      "velocity": 0.71,
      "hand": "right"
    },
    {
      "midi": 80,
      "time": 45.643,
      "duration": 0.027,
      "velocity": 0.71,
      "hand": "right"
    },
    {
      "midi": 56,
      "time": 45.857,
      "duration": 0.214,
      "velocity": 0.71,
      "hand": "left"
    },
    {
      "midi": 61,
      "time": 45.857,
      "duration": 0.214,
      "velocity": 0.71,
      "hand": "right"
    },
    {
      "midi": 65,
      "time": 45.857,
      "duration": 0.214,
      "velocity": 0.71,
      "hand": "right"
    },
    {
      "midi": 56,
      "time": 46.071,
      "duration": 0.214,
      "velocity": 0.71,
      "hand": "left"
    },
    {
      "midi": 61,
      "time": 46.071,
      "duration": 0.214,
      "velocity": 0.71,
      "hand": "right"
    },
    {
      "midi": 65,
      "time": 46.071,
      "duration": 0.214,
      "velocity": 0.71,
      "hand": "right"
    },
    {
      "midi": 77,
      "time": 46.071,
      "duration": 0.214,
      "velocity": 0.71,
      "hand": "right"
    },
    {
      "midi": 51,
      "time": 46.286,
      "duration": 0.214,
      "velocity": 0.71,
      "hand": "left"
    },
    {
      "midi": 77,
      "time": 46.286,
      "duration": 0.429,
      "velocity": 0.71,
      "hand": "right"
    },
    {
      "midi": 80,
      "time": 46.286,
      "duration": 0.027,
      "velocity": 0.71,
      "hand": "right"
    },
    {
      "midi": 56,
      "time": 46.5,
      "duration": 0.214,
      "velocity": 0.71,
      "hand": "left"
    },
    {
      "midi": 60,
      "time": 46.5,
      "duration": 0.214,
      "velocity": 0.71,
      "hand": "right"
    },
    {
      "midi": 66,
      "time": 46.5,
      "duration": 0.214,
      "velocity": 0.71,
      "hand": "right"
    },
    {
      "midi": 56,
      "time": 46.714,
      "duration": 0.214,
      "velocity": 0.71,
      "hand": "left"
    },
    {
      "midi": 60,
      "time": 46.714,
      "duration": 0.214,
      "velocity": 0.71,
      "hand": "right"
    },
    {
      "midi": 66,
      "time": 46.714,
      "duration": 0.214,
      "velocity": 0.71,
      "hand": "right"
    },
    {
      "midi": 70,
      "time": 46.714,
      "duration": 0.214,
      "velocity": 0.71,
      "hand": "right"
    },
    {
      "midi": 44,
      "time": 46.929,
      "duration": 0.214,
      "velocity": 0.71,
      "hand": "left"
    },
    {
      "midi": 77,
      "time": 46.929,
      "duration": 0.429,
      "velocity": 0.71,
      "hand": "right"
    },
    {
      "midi": 80,
      "time": 46.929,
      "duration": 0.027,
      "velocity": 0.71,
      "hand": "right"
    },
    {
      "midi": 56,
      "time": 47.143,
      "duration": 0.214,
      "velocity": 0.71,
      "hand": "left"
    },
    {
      "midi": 63,
      "time": 47.143,
      "duration": 0.214,
      "velocity": 0.71,
      "hand": "right"
    },
    {
      "midi": 66,
      "time": 47.143,
      "duration": 0.214,
      "velocity": 0.71,
      "hand": "right"
    },
    {
      "midi": 56,
      "time": 47.357,
      "duration": 0.214,
      "velocity": 0.71,
      "hand": "left"
    },
    {
      "midi": 63,
      "time": 47.357,
      "duration": 0.214,
      "velocity": 0.71,
      "hand": "right"
    },
    {
      "midi": 66,
      "time": 47.357,
      "duration": 0.214,
      "velocity": 0.71,
      "hand": "right"
    },
    {
      "midi": 72,
      "time": 47.357,
      "duration": 0.214,
      "velocity": 0.71,
      "hand": "right"
    },
    {
      "midi": 49,
      "time": 47.571,
      "duration": 0.214,
      "velocity": 0.71,
      "hand": "left"
    },
    {
      "midi": 75,
      "time": 47.571,
      "duration": 0.214,
      "velocity": 0.71,
      "hand": "right"
    },
    {
      "midi": 80,
      "time": 47.571,
      "duration": 0.027,
      "velocity": 0.71,
      "hand": "right"
    },
    {
      "midi": 56,
      "time": 47.786,
      "duration": 0.214,
      "velocity": 0.71,
      "hand": "left"
    },
    {
      "midi": 61,
      "time": 47.786,
      "duration": 0.214,
      "velocity": 0.71,
      "hand": "right"
    },
    {
      "midi": 65,
      "time": 47.786,
      "duration": 0.214,
      "velocity": 0.71,
      "hand": "right"
    },
    {
      "midi": 73,
      "time": 47.786,
      "duration": 0.214,
      "velocity": 0.71,
      "hand": "right"
    },
    {
      "midi": 56,
      "time": 48,
      "duration": 0.214,
      "velocity": 0.71,
      "hand": "left"
    },
    {
      "midi": 61,
      "time": 48,
      "duration": 0.214,
      "velocity": 0.71,
      "hand": "right"
    },
    {
      "midi": 65,
      "time": 48,
      "duration": 0.214,
      "velocity": 0.71,
      "hand": "right"
    },
    {
      "midi": 72,
      "time": 48,
      "duration": 0.214,
      "velocity": 0.71,
      "hand": "right"
    },
    {
      "midi": 53,
      "time": 48.214,
      "duration": 0.214,
      "velocity": 0.71,
      "hand": "left"
    },
    {
      "midi": 75,
      "time": 48.214,
      "duration": 0.214,
      "velocity": 0.71,
      "hand": "right"
    },
    {
      "midi": 80,
      "time": 48.214,
      "duration": 0.027,
      "velocity": 0.71,
      "hand": "right"
    },
    {
      "midi": 56,
      "time": 48.429,
      "duration": 0.214,
      "velocity": 0.71,
      "hand": "left"
    },
    {
      "midi": 61,
      "time": 48.429,
      "duration": 0.214,
      "velocity": 0.71,
      "hand": "right"
    },
    {
      "midi": 65,
      "time": 48.429,
      "duration": 0.214,
      "velocity": 0.71,
      "hand": "right"
    },
    {
      "midi": 73,
      "time": 48.429,
      "duration": 0.321,
      "velocity": 0.71,
      "hand": "right"
    },
    {
      "midi": 56,
      "time": 48.643,
      "duration": 0.214,
      "velocity": 0.71,
      "hand": "left"
    },
    {
      "midi": 61,
      "time": 48.643,
      "duration": 0.214,
      "velocity": 0.71,
      "hand": "right"
    },
    {
      "midi": 65,
      "time": 48.643,
      "duration": 0.214,
      "velocity": 0.71,
      "hand": "right"
    },
    {
      "midi": 70,
      "time": 48.75,
      "duration": 0.107,
      "velocity": 0.71,
      "hand": "right"
    },
    {
      "midi": 48,
      "time": 48.857,
      "duration": 0.643,
      "velocity": 0.71,
      "hand": "left"
    },
    {
      "midi": 68,
      "time": 48.857,
      "duration": 0.429,
      "velocity": 0.71,
      "hand": "right"
    },
    {
      "midi": 80,
      "time": 48.857,
      "duration": 0.027,
      "velocity": 0.71,
      "hand": "right"
    },
    {
      "midi": 54,
      "time": 49.071,
      "duration": 0.214,
      "velocity": 0.71,
      "hand": "left"
    },
    {
      "midi": 56,
      "time": 49.071,
      "duration": 0.214,
      "velocity": 0.71,
      "hand": "left"
    },
    {
      "midi": 54,
      "time": 49.286,
      "duration": 0.214,
      "velocity": 0.71,
      "hand": "left"
    },
    {
      "midi": 56,
      "time": 49.286,
      "duration": 0.214,
      "velocity": 0.71,
      "hand": "left"
    },
    {
      "midi": 63,
      "time": 49.286,
      "duration": 0.214,
      "velocity": 0.71,
      "hand": "right"
    },
    {
      "midi": 44,
      "time": 49.5,
      "duration": 0.214,
      "velocity": 0.71,
      "hand": "left"
    },
    {
      "midi": 68,
      "time": 49.5,
      "duration": 0.429,
      "velocity": 0.71,
      "hand": "right"
    },
    {
      "midi": 80,
      "time": 49.5,
      "duration": 0.027,
      "velocity": 0.71,
      "hand": "right"
    },
    {
      "midi": 54,
      "time": 49.714,
      "duration": 0.214,
      "velocity": 0.71,
      "hand": "left"
    },
    {
      "midi": 56,
      "time": 49.714,
      "duration": 0.214,
      "velocity": 0.71,
      "hand": "left"
    },
    {
      "midi": 60,
      "time": 49.714,
      "duration": 0.214,
      "velocity": 0.71,
      "hand": "right"
    },
    {
      "midi": 54,
      "time": 49.929,
      "duration": 0.214,
      "velocity": 0.71,
      "hand": "left"
    },
    {
      "midi": 56,
      "time": 49.929,
      "duration": 0.214,
      "velocity": 0.71,
      "hand": "left"
    },
    {
      "midi": 60,
      "time": 49.929,
      "duration": 0.214,
      "velocity": 0.71,
      "hand": "right"
    },
    {
      "midi": 64,
      "time": 49.929,
      "duration": 0.214,
      "velocity": 0.71,
      "hand": "right"
    },
    {
      "midi": 47,
      "time": 50.143,
      "duration": 0.214,
      "velocity": 0.71,
      "hand": "left"
    },
    {
      "midi": 68,
      "time": 50.143,
      "duration": 0.429,
      "velocity": 0.71,
      "hand": "right"
    },
    {
      "midi": 80,
      "time": 50.143,
      "duration": 0.027,
      "velocity": 0.71,
      "hand": "right"
    },
    {
      "midi": 53,
      "time": 50.357,
      "duration": 0.214,
      "velocity": 0.71,
      "hand": "left"
    },
    {
      "midi": 56,
      "time": 50.357,
      "duration": 0.214,
      "velocity": 0.71,
      "hand": "left"
    },
    {
      "midi": 63,
      "time": 50.357,
      "duration": 0.214,
      "velocity": 0.71,
      "hand": "right"
    },
    {
      "midi": 53,
      "time": 50.571,
      "duration": 0.214,
      "velocity": 0.71,
      "hand": "left"
    },
    {
      "midi": 56,
      "time": 50.571,
      "duration": 0.214,
      "velocity": 0.71,
      "hand": "left"
    },
    {
      "midi": 63,
      "time": 50.571,
      "duration": 0.214,
      "velocity": 0.71,
      "hand": "right"
    },
    {
      "midi": 65,
      "time": 50.571,
      "duration": 0.214,
      "velocity": 0.71,
      "hand": "right"
    },
    {
      "midi": 46,
      "time": 50.786,
      "duration": 0.214,
      "velocity": 0.71,
      "hand": "left"
    },
    {
      "midi": 77,
      "time": 50.786,
      "duration": 0.643,
      "velocity": 0.71,
      "hand": "right"
    },
    {
      "midi": 53,
      "time": 51,
      "duration": 0.214,
      "velocity": 0.71,
      "hand": "left"
    },
    {
      "midi": 56,
      "time": 51,
      "duration": 0.214,
      "velocity": 0.71,
      "hand": "left"
    },
    {
      "midi": 62,
      "time": 51,
      "duration": 0.214,
      "velocity": 0.71,
      "hand": "right"
    },
    {
      "midi": 53,
      "time": 51.214,
      "duration": 0.214,
      "velocity": 0.71,
      "hand": "left"
    },
    {
      "midi": 56,
      "time": 51.214,
      "duration": 0.214,
      "velocity": 0.71,
      "hand": "left"
    },
    {
      "midi": 62,
      "time": 51.214,
      "duration": 0.214,
      "velocity": 0.71,
      "hand": "right"
    },
    {
      "midi": 51,
      "time": 51.429,
      "duration": 0.214,
      "velocity": 0.71,
      "hand": "left"
    },
    {
      "midi": 77,
      "time": 51.429,
      "duration": 0.429,
      "velocity": 0.71,
      "hand": "right"
    },
    {
      "midi": 61,
      "time": 51.643,
      "duration": 0.214,
      "velocity": 0.71,
      "hand": "right"
    },
    {
      "midi": 67,
      "time": 51.643,
      "duration": 0.214,
      "velocity": 0.71,
      "hand": "right"
    },
    {
      "midi": 61,
      "time": 51.857,
      "duration": 0.214,
      "velocity": 0.71,
      "hand": "right"
    },
    {
      "midi": 67,
      "time": 51.857,
      "duration": 0.214,
      "velocity": 0.71,
      "hand": "right"
    },
    {
      "midi": 70,
      "time": 51.857,
      "duration": 0.214,
      "velocity": 0.71,
      "hand": "right"
    },
    {
      "midi": 75,
      "time": 52.071,
      "duration": 0.429,
      "velocity": 0.71,
      "hand": "right"
    },
    {
      "midi": 61,
      "time": 52.286,
      "duration": 0.214,
      "velocity": 0.71,
      "hand": "right"
    },
    {
      "midi": 66,
      "time": 52.286,
      "duration": 0.214,
      "velocity": 0.71,
      "hand": "right"
    },
    {
      "midi": 61,
      "time": 52.5,
      "duration": 0.214,
      "velocity": 0.71,
      "hand": "right"
    },
    {
      "midi": 66,
      "time": 52.5,
      "duration": 0.214,
      "velocity": 0.71,
      "hand": "right"
    },
    {
      "midi": 69,
      "time": 52.5,
      "duration": 0.214,
      "velocity": 0.71,
      "hand": "right"
    },
    {
      "midi": 56,
      "time": 52.714,
      "duration": 0.429,
      "velocity": 0.71,
      "hand": "left"
    },
    {
      "midi": 75,
      "time": 52.714,
      "duration": 0.214,
      "velocity": 0.71,
      "hand": "right"
    },
    {
      "midi": 60,
      "time": 52.929,
      "duration": 0.214,
      "velocity": 0.71,
      "hand": "right"
    },
    {
      "midi": 66,
      "time": 52.929,
      "duration": 0.214,
      "velocity": 0.71,
      "hand": "right"
    },
    {
      "midi": 68,
      "time": 52.929,
      "duration": 0.214,
      "velocity": 0.71,
      "hand": "right"
    },
    {
      "midi": 74,
      "time": 53.143,
      "duration": 0.214,
      "velocity": 0.71,
      "hand": "right"
    },
    {
      "midi": 77,
      "time": 53.357,
      "duration": 0.214,
      "velocity": 0.71,
      "hand": "right"
    },
    {
      "midi": 75,
      "time": 53.571,
      "duration": 0.214,
      "velocity": 0.71,
      "hand": "right"
    },
    {
      "midi": 80,
      "time": 53.786,
      "duration": 0.214,
      "velocity": 0.71,
      "hand": "right"
    },
    {
      "midi": 68,
      "time": 54,
      "duration": 2.571,
      "velocity": 0.71,
      "hand": "right"
    },
    {
      "midi": 67,
      "time": 56.571,
      "duration": 0.107,
      "velocity": 0.71,
      "hand": "right"
    },
    {
      "midi": 68,
      "time": 56.679,
      "duration": 0.107,
      "velocity": 0.71,
      "hand": "right"
    },
    {
      "midi": 72,
      "time": 56.786,
      "duration": 0.107,
      "velocity": 0.71,
      "hand": "right"
    },
    {
      "midi": 70,
      "time": 56.893,
      "duration": 0.107,
      "velocity": 0.71,
      "hand": "right"
    },
    {
      "midi": 67,
      "time": 57,
      "duration": 0.107,
      "velocity": 0.71,
      "hand": "right"
    },
    {
      "midi": 68,
      "time": 57.107,
      "duration": 0.107,
      "velocity": 0.71,
      "hand": "right"
    },
    {
      "midi": 72,
      "time": 57.214,
      "duration": 0.107,
      "velocity": 0.71,
      "hand": "right"
    },
    {
      "midi": 70,
      "time": 57.321,
      "duration": 0.107,
      "velocity": 0.71,
      "hand": "right"
    },
    {
      "midi": 67,
      "time": 57.429,
      "duration": 0.107,
      "velocity": 0.71,
      "hand": "right"
    },
    {
      "midi": 68,
      "time": 57.536,
      "duration": 0.107,
      "velocity": 0.71,
      "hand": "right"
    },
    {
      "midi": 72,
      "time": 57.643,
      "duration": 0.107,
      "velocity": 0.71,
      "hand": "right"
    },
    {
      "midi": 70,
      "time": 57.75,
      "duration": 0.107,
      "velocity": 0.71,
      "hand": "right"
    },
    {
      "midi": 67,
      "time": 57.857,
      "duration": 0.107,
      "velocity": 0.71,
      "hand": "right"
    },
    {
      "midi": 68,
      "time": 57.964,
      "duration": 0.107,
      "velocity": 0.71,
      "hand": "right"
    },
    {
      "midi": 72,
      "time": 58.071,
      "duration": 0.107,
      "velocity": 0.71,
      "hand": "right"
    },
    {
      "midi": 70,
      "time": 58.179,
      "duration": 0.107,
      "velocity": 0.71,
      "hand": "right"
    },
    {
      "midi": 67,
      "time": 58.286,
      "duration": 0.107,
      "velocity": 0.71,
      "hand": "right"
    },
    {
      "midi": 68,
      "time": 58.393,
      "duration": 0.107,
      "velocity": 0.71,
      "hand": "right"
    },
    {
      "midi": 72,
      "time": 58.5,
      "duration": 0.107,
      "velocity": 0.71,
      "hand": "right"
    },
    {
      "midi": 70,
      "time": 58.607,
      "duration": 0.107,
      "velocity": 0.71,
      "hand": "right"
    },
    {
      "midi": 67,
      "time": 58.714,
      "duration": 0.107,
      "velocity": 0.71,
      "hand": "right"
    },
    {
      "midi": 68,
      "time": 58.821,
      "duration": 0.107,
      "velocity": 0.71,
      "hand": "right"
    },
    {
      "midi": 72,
      "time": 58.929,
      "duration": 0.107,
      "velocity": 0.71,
      "hand": "right"
    },
    {
      "midi": 70,
      "time": 59.036,
      "duration": 0.107,
      "velocity": 0.71,
      "hand": "right"
    },
    {
      "midi": 37,
      "time": 59.143,
      "duration": 0.214,
      "velocity": 0.71,
      "hand": "left"
    },
    {
      "midi": 67,
      "time": 59.143,
      "duration": 0.107,
      "velocity": 0.71,
      "hand": "right"
    },
    {
      "midi": 68,
      "time": 59.25,
      "duration": 0.107,
      "velocity": 0.71,
      "hand": "right"
    },
    {
      "midi": 56,
      "time": 59.357,
      "duration": 0.214,
      "velocity": 0.71,
      "hand": "left"
    },
    {
      "midi": 61,
      "time": 59.357,
      "duration": 0.214,
      "velocity": 0.71,
      "hand": "right"
    },
    {
      "midi": 65,
      "time": 59.357,
      "duration": 0.214,
      "velocity": 0.71,
      "hand": "right"
    },
    {
      "midi": 72,
      "time": 59.357,
      "duration": 0.107,
      "velocity": 0.71,
      "hand": "right"
    },
    {
      "midi": 70,
      "time": 59.464,
      "duration": 0.107,
      "velocity": 0.71,
      "hand": "right"
    },
    {
      "midi": 56,
      "time": 59.571,
      "duration": 0.214,
      "velocity": 0.71,
      "hand": "left"
    },
    {
      "midi": 61,
      "time": 59.571,
      "duration": 0.214,
      "velocity": 0.71,
      "hand": "right"
    },
    {
      "midi": 65,
      "time": 59.571,
      "duration": 0.214,
      "velocity": 0.71,
      "hand": "right"
    },
    {
      "midi": 67,
      "time": 59.571,
      "duration": 0.107,
      "velocity": 0.71,
      "hand": "right"
    },
    {
      "midi": 68,
      "time": 59.679,
      "duration": 0.107,
      "velocity": 0.71,
      "hand": "right"
    },
    {
      "midi": 53,
      "time": 59.786,
      "duration": 0.214,
      "velocity": 0.71,
      "hand": "left"
    },
    {
      "midi": 72,
      "time": 59.786,
      "duration": 0.107,
      "velocity": 0.71,
      "hand": "right"
    },
    {
      "midi": 70,
      "time": 59.893,
      "duration": 0.107,
      "velocity": 0.71,
      "hand": "right"
    },
    {
      "midi": 56,
      "time": 60,
      "duration": 0.214,
      "velocity": 0.71,
      "hand": "left"
    },
    {
      "midi": 61,
      "time": 60,
      "duration": 0.214,
      "velocity": 0.71,
      "hand": "right"
    },
    {
      "midi": 65,
      "time": 60,
      "duration": 0.214,
      "velocity": 0.71,
      "hand": "right"
    },
    {
      "midi": 67,
      "time": 60,
      "duration": 0.107,
      "velocity": 0.71,
      "hand": "right"
    },
    {
      "midi": 68,
      "time": 60.107,
      "duration": 0.107,
      "velocity": 0.71,
      "hand": "right"
    },
    {
      "midi": 56,
      "time": 60.214,
      "duration": 0.214,
      "velocity": 0.71,
      "hand": "left"
    },
    {
      "midi": 61,
      "time": 60.214,
      "duration": 0.214,
      "velocity": 0.71,
      "hand": "right"
    },
    {
      "midi": 65,
      "time": 60.214,
      "duration": 0.214,
      "velocity": 0.71,
      "hand": "right"
    },
    {
      "midi": 72,
      "time": 60.214,
      "duration": 0.107,
      "velocity": 0.71,
      "hand": "right"
    },
    {
      "midi": 70,
      "time": 60.321,
      "duration": 0.107,
      "velocity": 0.71,
      "hand": "right"
    },
    {
      "midi": 49,
      "time": 60.429,
      "duration": 0.214,
      "velocity": 0.71,
      "hand": "left"
    },
    {
      "midi": 67,
      "time": 60.429,
      "duration": 0.107,
      "velocity": 0.71,
      "hand": "right"
    },
    {
      "midi": 68,
      "time": 60.536,
      "duration": 0.107,
      "velocity": 0.71,
      "hand": "right"
    },
    {
      "midi": 56,
      "time": 60.643,
      "duration": 0.214,
      "velocity": 0.71,
      "hand": "left"
    },
    {
      "midi": 61,
      "time": 60.643,
      "duration": 0.214,
      "velocity": 0.71,
      "hand": "right"
    },
    {
      "midi": 65,
      "time": 60.643,
      "duration": 0.214,
      "velocity": 0.71,
      "hand": "right"
    },
    {
      "midi": 72,
      "time": 60.643,
      "duration": 0.107,
      "velocity": 0.71,
      "hand": "right"
    },
    {
      "midi": 70,
      "time": 60.75,
      "duration": 0.107,
      "velocity": 0.71,
      "hand": "right"
    },
    {
      "midi": 56,
      "time": 60.857,
      "duration": 0.214,
      "velocity": 0.71,
      "hand": "left"
    },
    {
      "midi": 61,
      "time": 60.857,
      "duration": 0.214,
      "velocity": 0.71,
      "hand": "right"
    },
    {
      "midi": 65,
      "time": 60.857,
      "duration": 0.214,
      "velocity": 0.71,
      "hand": "right"
    },
    {
      "midi": 67,
      "time": 60.857,
      "duration": 0.107,
      "velocity": 0.71,
      "hand": "right"
    },
    {
      "midi": 68,
      "time": 60.964,
      "duration": 0.107,
      "velocity": 0.71,
      "hand": "right"
    },
    {
      "midi": 53,
      "time": 61.071,
      "duration": 0.214,
      "velocity": 0.71,
      "hand": "left"
    },
    {
      "midi": 70,
      "time": 61.071,
      "duration": 0.107,
      "velocity": 0.71,
      "hand": "right"
    },
    {
      "midi": 72,
      "time": 61.179,
      "duration": 0.107,
      "velocity": 0.71,
      "hand": "right"
    },
    {
      "midi": 56,
      "time": 61.286,
      "duration": 0.214,
      "velocity": 0.71,
      "hand": "left"
    },
    {
      "midi": 61,
      "time": 61.286,
      "duration": 0.214,
      "velocity": 0.71,
      "hand": "right"
    },
    {
      "midi": 65,
      "time": 61.286,
      "duration": 0.214,
      "velocity": 0.71,
      "hand": "right"
    },
    {
      "midi": 73,
      "time": 61.286,
      "duration": 0.107,
      "velocity": 0.71,
      "hand": "right"
    },
    {
      "midi": 75,
      "time": 61.393,
      "duration": 0.107,
      "velocity": 0.71,
      "hand": "right"
    },
    {
      "midi": 56,
      "time": 61.5,
      "duration": 0.214,
      "velocity": 0.71,
      "hand": "left"
    },
    {
      "midi": 61,
      "time": 61.5,
      "duration": 0.214,
      "velocity": 0.71,
      "hand": "right"
    },
    {
      "midi": 65,
      "time": 61.5,
      "duration": 0.214,
      "velocity": 0.71,
      "hand": "right"
    },
    {
      "midi": 77,
      "time": 61.5,
      "duration": 0.107,
      "velocity": 0.71,
      "hand": "right"
    },
    {
      "midi": 78,
      "time": 61.607,
      "duration": 0.107,
      "velocity": 0.71,
      "hand": "right"
    },
    {
      "midi": 44,
      "time": 61.714,
      "duration": 0.214,
      "velocity": 0.71,
      "hand": "left"
    },
    {
      "midi": 82,
      "time": 61.714,
      "duration": 0.321,
      "velocity": 0.71,
      "hand": "right"
    },
    {
      "midi": 56,
      "time": 61.929,
      "duration": 0.214,
      "velocity": 0.71,
      "hand": "left"
    },
    {
      "midi": 60,
      "time": 61.929,
      "duration": 0.214,
      "velocity": 0.71,
      "hand": "right"
    },
    {
      "midi": 66,
      "time": 61.929,
      "duration": 0.214,
      "velocity": 0.71,
      "hand": "right"
    },
    {
      "midi": 80,
      "time": 62.036,
      "duration": 0.107,
      "velocity": 0.71,
      "hand": "right"
    },
    {
      "midi": 56,
      "time": 62.143,
      "duration": 0.214,
      "velocity": 0.71,
      "hand": "left"
    },
    {
      "midi": 60,
      "time": 62.143,
      "duration": 0.214,
      "velocity": 0.71,
      "hand": "right"
    },
    {
      "midi": 66,
      "time": 62.143,
      "duration": 0.214,
      "velocity": 0.71,
      "hand": "right"
    },
    {
      "midi": 78,
      "time": 62.143,
      "duration": 0.107,
      "velocity": 0.71,
      "hand": "right"
    },
    {
      "midi": 77,
      "time": 62.25,
      "duration": 0.107,
      "velocity": 0.71,
      "hand": "right"
    },
    {
      "midi": 51,
      "time": 62.357,
      "duration": 0.214,
      "velocity": 0.71,
      "hand": "left"
    },
    {
      "midi": 77,
      "time": 62.357,
      "duration": 0.107,
      "velocity": 0.71,
      "hand": "right"
    },
    {
      "midi": 75,
      "time": 62.464,
      "duration": 0.107,
      "velocity": 0.71,
      "hand": "right"
    },
    {
      "midi": 56,
      "time": 62.571,
      "duration": 0.214,
      "velocity": 0.71,
      "hand": "left"
    },
    {
      "midi": 60,
      "time": 62.571,
      "duration": 0.214,
      "velocity": 0.71,
      "hand": "right"
    },
    {
      "midi": 66,
      "time": 62.571,
      "duration": 0.214,
      "velocity": 0.71,
      "hand": "right"
    },
    {
      "midi": 75,
      "time": 62.571,
      "duration": 0.107,
      "velocity": 0.71,
      "hand": "right"
    },
    {
      "midi": 74,
      "time": 62.679,
      "duration": 0.107,
      "velocity": 0.71,
      "hand": "right"
    },
    {
      "midi": 56,
      "time": 62.786,
      "duration": 0.214,
      "velocity": 0.71,
      "hand": "left"
    },
    {
      "midi": 60,
      "time": 62.786,
      "duration": 0.214,
      "velocity": 0.71,
      "hand": "right"
    },
    {
      "midi": 66,
      "time": 62.786,
      "duration": 0.214,
      "velocity": 0.71,
      "hand": "right"
    },
    {
      "midi": 75,
      "time": 62.786,
      "duration": 0.214,
      "velocity": 0.71,
      "hand": "right"
    },
    {
      "midi": 44,
      "time": 63,
      "duration": 0.214,
      "velocity": 0.71,
      "hand": "left"
    },
    {
      "midi": 82,
      "time": 63,
      "duration": 0.321,
      "velocity": 0.71,
      "hand": "right"
    },
    {
      "midi": 60,
      "time": 63.214,
      "duration": 0.214,
      "velocity": 0.71,
      "hand": "right"
    },
    {
      "midi": 66,
      "time": 63.214,
      "duration": 0.214,
      "velocity": 0.71,
      "hand": "right"
    },
    {
      "midi": 80,
      "time": 63.321,
      "duration": 0.107,
      "velocity": 0.71,
      "hand": "right"
    },
    {
      "midi": 60,
      "time": 63.429,
      "duration": 0.214,
      "velocity": 0.71,
      "hand": "right"
    },
    {
      "midi": 66,
      "time": 63.429,
      "duration": 0.214,
      "velocity": 0.71,
      "hand": "right"
    },
    {
      "midi": 78,
      "time": 63.429,
      "duration": 0.107,
      "velocity": 0.71,
      "hand": "right"
    },
    {
      "midi": 77,
      "time": 63.536,
      "duration": 0.107,
      "velocity": 0.71,
      "hand": "right"
    },
    {
      "midi": 56,
      "time": 63.643,
      "duration": 0.214,
      "velocity": 0.71,
      "hand": "left"
    },
    {
      "midi": 77,
      "time": 63.643,
      "duration": 0.107,
      "velocity": 0.71,
      "hand": "right"
    },
    {
      "midi": 75,
      "time": 63.75,
      "duration": 0.107,
      "velocity": 0.71,
      "hand": "right"
    },
    {
      "midi": 60,
      "time": 63.857,
      "duration": 0.214,
      "velocity": 0.71,
      "hand": "right"
    },
    {
      "midi": 66,
      "time": 63.857,
      "duration": 0.214,
      "velocity": 0.71,
      "hand": "right"
    },
    {
      "midi": 74,
      "time": 63.857,
      "duration": 0.107,
      "velocity": 0.71,
      "hand": "right"
    },
    {
      "midi": 75,
      "time": 63.964,
      "duration": 0.107,
      "velocity": 0.71,
      "hand": "right"
    },
    {
      "midi": 60,
      "time": 64.071,
      "duration": 0.214,
      "velocity": 0.71,
      "hand": "right"
    },
    {
      "midi": 66,
      "time": 64.071,
      "duration": 0.214,
      "velocity": 0.71,
      "hand": "right"
    },
    {
      "midi": 77,
      "time": 64.071,
      "duration": 0.107,
      "velocity": 0.71,
      "hand": "right"
    },
    {
      "midi": 71,
      "time": 64.179,
      "duration": 0.107,
      "velocity": 0.71,
      "hand": "right"
    },
    {
      "midi": 49,
      "time": 64.286,
      "duration": 0.214,
      "velocity": 0.71,
      "hand": "left"
    },
    {
      "midi": 67,
      "time": 64.286,
      "duration": 0.107,
      "velocity": 0.71,
      "hand": "right"
    },
    {
      "midi": 68,
      "time": 64.393,
      "duration": 0.107,
      "velocity": 0.71,
      "hand": "right"
    },
    {
      "midi": 56,
      "time": 64.5,
      "duration": 0.214,
      "velocity": 0.71,
      "hand": "left"
    },
    {
      "midi": 61,
      "time": 64.5,
      "duration": 0.214,
      "velocity": 0.71,
      "hand": "right"
    },
    {
      "midi": 65,
      "time": 64.5,
      "duration": 0.214,
      "velocity": 0.71,
      "hand": "right"
    },
    {
      "midi": 72,
      "time": 64.5,
      "duration": 0.107,
      "velocity": 0.71,
      "hand": "right"
    },
    {
      "midi": 70,
      "time": 64.607,
      "duration": 0.107,
      "velocity": 0.71,
      "hand": "right"
    },
    {
      "midi": 56,
      "time": 64.714,
      "duration": 0.214,
      "velocity": 0.71,
      "hand": "left"
    },
    {
      "midi": 61,
      "time": 64.714,
      "duration": 0.214,
      "velocity": 0.71,
      "hand": "right"
    },
    {
      "midi": 65,
      "time": 64.714,
      "duration": 0.214,
      "velocity": 0.71,
      "hand": "right"
    },
    {
      "midi": 67,
      "time": 64.714,
      "duration": 0.107,
      "velocity": 0.71,
      "hand": "right"
    },
    {
      "midi": 68,
      "time": 64.821,
      "duration": 0.107,
      "velocity": 0.71,
      "hand": "right"
    },
    {
      "midi": 53,
      "time": 64.929,
      "duration": 0.214,
      "velocity": 0.71,
      "hand": "left"
    },
    {
      "midi": 72,
      "time": 64.929,
      "duration": 0.107,
      "velocity": 0.71,
      "hand": "right"
    },
    {
      "midi": 70,
      "time": 65.036,
      "duration": 0.107,
      "velocity": 0.71,
      "hand": "right"
    },
    {
      "midi": 56,
      "time": 65.143,
      "duration": 0.214,
      "velocity": 0.71,
      "hand": "left"
    },
    {
      "midi": 61,
      "time": 65.143,
      "duration": 0.214,
      "velocity": 0.71,
      "hand": "right"
    },
    {
      "midi": 65,
      "time": 65.143,
      "duration": 0.214,
      "velocity": 0.71,
      "hand": "right"
    },
    {
      "midi": 67,
      "time": 65.143,
      "duration": 0.107,
      "velocity": 0.71,
      "hand": "right"
    },
    {
      "midi": 68,
      "time": 65.25,
      "duration": 0.107,
      "velocity": 0.71,
      "hand": "right"
    },
    {
      "midi": 56,
      "time": 65.357,
      "duration": 0.214,
      "velocity": 0.71,
      "hand": "left"
    },
    {
      "midi": 61,
      "time": 65.357,
      "duration": 0.214,
      "velocity": 0.71,
      "hand": "right"
    },
    {
      "midi": 65,
      "time": 65.357,
      "duration": 0.214,
      "velocity": 0.71,
      "hand": "right"
    },
    {
      "midi": 72,
      "time": 65.357,
      "duration": 0.107,
      "velocity": 0.71,
      "hand": "right"
    },
    {
      "midi": 70,
      "time": 65.464,
      "duration": 0.107,
      "velocity": 0.71,
      "hand": "right"
    },
    {
      "midi": 49,
      "time": 65.571,
      "duration": 0.214,
      "velocity": 0.71,
      "hand": "left"
    },
    {
      "midi": 67,
      "time": 65.571,
      "duration": 0.107,
      "velocity": 0.71,
      "hand": "right"
    },
    {
      "midi": 68,
      "time": 65.679,
      "duration": 0.107,
      "velocity": 0.71,
      "hand": "right"
    },
    {
      "midi": 56,
      "time": 65.786,
      "duration": 0.214,
      "velocity": 0.71,
      "hand": "left"
    },
    {
      "midi": 61,
      "time": 65.786,
      "duration": 0.214,
      "velocity": 0.71,
      "hand": "right"
    },
    {
      "midi": 65,
      "time": 65.786,
      "duration": 0.214,
      "velocity": 0.71,
      "hand": "right"
    },
    {
      "midi": 72,
      "time": 65.786,
      "duration": 0.107,
      "velocity": 0.71,
      "hand": "right"
    },
    {
      "midi": 70,
      "time": 65.893,
      "duration": 0.107,
      "velocity": 0.71,
      "hand": "right"
    },
    {
      "midi": 56,
      "time": 66,
      "duration": 0.214,
      "velocity": 0.71,
      "hand": "left"
    },
    {
      "midi": 61,
      "time": 66,
      "duration": 0.214,
      "velocity": 0.71,
      "hand": "right"
    },
    {
      "midi": 65,
      "time": 66,
      "duration": 0.214,
      "velocity": 0.71,
      "hand": "right"
    },
    {
      "midi": 67,
      "time": 66,
      "duration": 0.107,
      "velocity": 0.71,
      "hand": "right"
    },
    {
      "midi": 68,
      "time": 66.107,
      "duration": 0.107,
      "velocity": 0.71,
      "hand": "right"
    },
    {
      "midi": 53,
      "time": 66.214,
      "duration": 0.214,
      "velocity": 0.71,
      "hand": "left"
    },
    {
      "midi": 70,
      "time": 66.214,
      "duration": 0.107,
      "velocity": 0.71,
      "hand": "right"
    },
    {
      "midi": 72,
      "time": 66.321,
      "duration": 0.107,
      "velocity": 0.71,
      "hand": "right"
    },
    {
      "midi": 56,
      "time": 66.429,
      "duration": 0.214,
      "velocity": 0.71,
      "hand": "left"
    },
    {
      "midi": 61,
      "time": 66.429,
      "duration": 0.214,
      "velocity": 0.71,
      "hand": "right"
    },
    {
      "midi": 65,
      "time": 66.429,
      "duration": 0.214,
      "velocity": 0.71,
      "hand": "right"
    },
    {
      "midi": 73,
      "time": 66.429,
      "duration": 0.107,
      "velocity": 0.71,
      "hand": "right"
    },
    {
      "midi": 75,
      "time": 66.536,
      "duration": 0.107,
      "velocity": 0.71,
      "hand": "right"
    },
    {
      "midi": 56,
      "time": 66.643,
      "duration": 0.214,
      "velocity": 0.71,
      "hand": "left"
    },
    {
      "midi": 61,
      "time": 66.643,
      "duration": 0.214,
      "velocity": 0.71,
      "hand": "right"
    },
    {
      "midi": 65,
      "time": 66.643,
      "duration": 0.214,
      "velocity": 0.71,
      "hand": "right"
    },
    {
      "midi": 77,
      "time": 66.643,
      "duration": 0.107,
      "velocity": 0.71,
      "hand": "right"
    },
    {
      "midi": 78,
      "time": 66.75,
      "duration": 0.107,
      "velocity": 0.71,
      "hand": "right"
    },
    {
      "midi": 44,
      "time": 66.857,
      "duration": 0.214,
      "velocity": 0.71,
      "hand": "left"
    },
    {
      "midi": 82,
      "time": 66.857,
      "duration": 0.321,
      "velocity": 0.71,
      "hand": "right"
    },
    {
      "midi": 56,
      "time": 67.071,
      "duration": 0.214,
      "velocity": 0.71,
      "hand": "left"
    },
    {
      "midi": 60,
      "time": 67.071,
      "duration": 0.214,
      "velocity": 0.71,
      "hand": "right"
    },
    {
      "midi": 66,
      "time": 67.071,
      "duration": 0.214,
      "velocity": 0.71,
      "hand": "right"
    },
    {
      "midi": 80,
      "time": 67.179,
      "duration": 0.107,
      "velocity": 0.71,
      "hand": "right"
    },
    {
      "midi": 56,
      "time": 67.286,
      "duration": 0.214,
      "velocity": 0.71,
      "hand": "left"
    },
    {
      "midi": 60,
      "time": 67.286,
      "duration": 0.214,
      "velocity": 0.71,
      "hand": "right"
    },
    {
      "midi": 66,
      "time": 67.286,
      "duration": 0.214,
      "velocity": 0.71,
      "hand": "right"
    },
    {
      "midi": 78,
      "time": 67.286,
      "duration": 0.107,
      "velocity": 0.71,
      "hand": "right"
    },
    {
      "midi": 77,
      "time": 67.393,
      "duration": 0.107,
      "velocity": 0.71,
      "hand": "right"
    },
    {
      "midi": 51,
      "time": 67.5,
      "duration": 0.214,
      "velocity": 0.71,
      "hand": "left"
    },
    {
      "midi": 77,
      "time": 67.5,
      "duration": 0.107,
      "velocity": 0.71,
      "hand": "right"
    },
    {
      "midi": 75,
      "time": 67.607,
      "duration": 0.107,
      "velocity": 0.71,
      "hand": "right"
    },
    {
      "midi": 56,
      "time": 67.714,
      "duration": 0.214,
      "velocity": 0.71,
      "hand": "left"
    },
    {
      "midi": 60,
      "time": 67.714,
      "duration": 0.214,
      "velocity": 0.71,
      "hand": "right"
    },
    {
      "midi": 66,
      "time": 67.714,
      "duration": 0.214,
      "velocity": 0.71,
      "hand": "right"
    },
    {
      "midi": 75,
      "time": 67.714,
      "duration": 0.107,
      "velocity": 0.71,
      "hand": "right"
    },
    {
      "midi": 74,
      "time": 67.821,
      "duration": 0.107,
      "velocity": 0.71,
      "hand": "right"
    },
    {
      "midi": 56,
      "time": 67.929,
      "duration": 0.214,
      "velocity": 0.71,
      "hand": "left"
    },
    {
      "midi": 60,
      "time": 67.929,
      "duration": 0.214,
      "velocity": 0.71,
      "hand": "right"
    },
    {
      "midi": 66,
      "time": 67.929,
      "duration": 0.214,
      "velocity": 0.71,
      "hand": "right"
    },
    {
      "midi": 75,
      "time": 67.929,
      "duration": 0.214,
      "velocity": 0.71,
      "hand": "right"
    },
    {
      "midi": 44,
      "time": 68.143,
      "duration": 0.214,
      "velocity": 0.71,
      "hand": "left"
    },
    {
      "midi": 82,
      "time": 68.143,
      "duration": 0.321,
      "velocity": 0.71,
      "hand": "right"
    },
    {
      "midi": 56,
      "time": 68.357,
      "duration": 0.214,
      "velocity": 0.71,
      "hand": "left"
    },
    {
      "midi": 60,
      "time": 68.357,
      "duration": 0.214,
      "velocity": 0.71,
      "hand": "right"
    },
    {
      "midi": 66,
      "time": 68.357,
      "duration": 0.214,
      "velocity": 0.71,
      "hand": "right"
    },
    {
      "midi": 80,
      "time": 68.464,
      "duration": 0.107,
      "velocity": 0.71,
      "hand": "right"
    },
    {
      "midi": 56,
      "time": 68.571,
      "duration": 0.214,
      "velocity": 0.71,
      "hand": "left"
    },
    {
      "midi": 60,
      "time": 68.571,
      "duration": 0.214,
      "velocity": 0.71,
      "hand": "right"
    },
    {
      "midi": 66,
      "time": 68.571,
      "duration": 0.214,
      "velocity": 0.71,
      "hand": "right"
    },
    {
      "midi": 78,
      "time": 68.571,
      "duration": 0.107,
      "velocity": 0.71,
      "hand": "right"
    },
    {
      "midi": 77,
      "time": 68.679,
      "duration": 0.107,
      "velocity": 0.71,
      "hand": "right"
    },
    {
      "midi": 56,
      "time": 68.786,
      "duration": 0.214,
      "velocity": 0.71,
      "hand": "left"
    },
    {
      "midi": 75,
      "time": 68.786,
      "duration": 0.107,
      "velocity": 0.71,
      "hand": "right"
    },
    {
      "midi": 77,
      "time": 68.893,
      "duration": 0.107,
      "velocity": 0.71,
      "hand": "right"
    },
    {
      "midi": 60,
      "time": 69,
      "duration": 0.214,
      "velocity": 0.71,
      "hand": "right"
    },
    {
      "midi": 66,
      "time": 69,
      "duration": 0.214,
      "velocity": 0.71,
      "hand": "right"
    },
    {
      "midi": 75,
      "time": 69,
      "duration": 0.107,
      "velocity": 0.71,
      "hand": "right"
    },
    {
      "midi": 74,
      "time": 69.107,
      "duration": 0.107,
      "velocity": 0.71,
      "hand": "right"
    },
    {
      "midi": 44,
      "time": 69.214,
      "duration": 0.214,
      "velocity": 0.71,
      "hand": "left"
    },
    {
      "midi": 75,
      "time": 69.214,
      "duration": 0.107,
      "velocity": 0.71,
      "hand": "right"
    },
    {
      "midi": 76,
      "time": 69.321,
      "duration": 0.107,
      "velocity": 0.71,
      "hand": "right"
    },
    {
      "midi": 45,
      "time": 69.429,
      "duration": 0.214,
      "velocity": 0.71,
      "hand": "left"
    },
    {
      "midi": 77,
      "time": 69.429,
      "duration": 0.054,
      "velocity": 0.71,
      "hand": "right"
    },
    {
      "midi": 78,
      "time": 69.482,
      "duration": 0.054,
      "velocity": 0.71,
      "hand": "right"
    },
    {
      "midi": 77,
      "time": 69.589,
      "duration": 0.054,
      "velocity": 0.71,
      "hand": "right"
    },
    {
      "midi": 53,
      "time": 69.643,
      "duration": 0.214,
      "velocity": 0.71,
      "hand": "left"
    },
    {
      "midi": 60,
      "time": 69.643,
      "duration": 0.214,
      "velocity": 0.71,
      "hand": "right"
    },
    {
      "midi": 63,
      "time": 69.643,
      "duration": 0.214,
      "velocity": 0.71,
      "hand": "right"
    },
    {
      "midi": 76,
      "time": 69.643,
      "duration": 0.107,
      "velocity": 0.71,
      "hand": "right"
    },
    {
      "midi": 77,
      "time": 69.75,
      "duration": 0.107,
      "velocity": 0.71,
      "hand": "right"
    },
    {
      "midi": 53,
      "time": 69.857,
      "duration": 0.214,
      "velocity": 0.71,
      "hand": "left"
    },
    {
      "midi": 60,
      "time": 69.857,
      "duration": 0.214,
      "velocity": 0.71,
      "hand": "right"
    },
    {
      "midi": 63,
      "time": 69.857,
      "duration": 0.214,
      "velocity": 0.71,
      "hand": "right"
    },
    {
      "midi": 80,
      "time": 69.857,
      "duration": 0.107,
      "velocity": 0.71,
      "hand": "right"
    },
    {
      "midi": 78,
      "time": 69.964,
      "duration": 0.107,
      "velocity": 0.71,
      "hand": "right"
    },
    {
      "midi": 46,
      "time": 70.071,
      "duration": 0.214,
      "velocity": 0.71,
      "hand": "left"
    },
    {
      "midi": 77,
      "time": 70.071,
      "duration": 0.107,
      "velocity": 0.71,
      "hand": "right"
    },
    {
      "midi": 78,
      "time": 70.179,
      "duration": 0.107,
      "velocity": 0.71,
      "hand": "right"
    },
    {
      "midi": 53,
      "time": 70.286,
      "duration": 0.214,
      "velocity": 0.71,
      "hand": "left"
    },
    {
      "midi": 61,
      "time": 70.286,
      "duration": 0.214,
      "velocity": 0.71,
      "hand": "right"
    },
    {
      "midi": 77,
      "time": 70.286,
      "duration": 0.107,
      "velocity": 0.71,
      "hand": "right"
    },
    {
      "midi": 76,
      "time": 70.393,
      "duration": 0.107,
      "velocity": 0.71,
      "hand": "right"
    },
    {
      "midi": 53,
      "time": 70.5,
      "duration": 0.214,
      "velocity": 0.71,
      "hand": "left"
    },
    {
      "midi": 61,
      "time": 70.5,
      "duration": 0.214,
      "velocity": 0.71,
      "hand": "right"
    },
    {
      "midi": 77,
      "time": 70.5,
      "duration": 0.107,
      "velocity": 0.71,
      "hand": "right"
    },
    {
      "midi": 82,
      "time": 70.607,
      "duration": 0.107,
      "velocity": 0.71,
      "hand": "right"
    },
    {
      "midi": 48,
      "time": 70.714,
      "duration": 0.214,
      "velocity": 0.71,
      "hand": "left"
    },
    {
      "midi": 80,
      "time": 70.714,
      "duration": 0.054,
      "velocity": 0.71,
      "hand": "right"
    },
    {
      "midi": 82,
      "time": 70.768,
      "duration": 0.054,
      "velocity": 0.71,
      "hand": "right"
    },
    {
      "midi": 80,
      "time": 70.875,
      "duration": 0.054,
      "velocity": 0.71,
      "hand": "right"
    },
    {
      "midi": 56,
      "time": 70.929,
      "duration": 0.214,
      "velocity": 0.71,
      "hand": "left"
    },
    {
      "midi": 63,
      "time": 70.929,
      "duration": 0.214,
      "velocity": 0.71,
      "hand": "right"
    },
    {
      "midi": 66,
      "time": 70.929,
      "duration": 0.214,
      "velocity": 0.71,
      "hand": "right"
    },
    {
      "midi": 79,
      "time": 70.929,
      "duration": 0.107,
      "velocity": 0.71,
      "hand": "right"
    },
    {
      "midi": 80,
      "time": 71.036,
      "duration": 0.107,
      "velocity": 0.71,
      "hand": "right"
    },
    {
      "midi": 56,
      "time": 71.143,
      "duration": 0.214,
      "velocity": 0.71,
      "hand": "left"
    },
    {
      "midi": 63,
      "time": 71.143,
      "duration": 0.214,
      "velocity": 0.71,
      "hand": "right"
    },
    {
      "midi": 66,
      "time": 71.143,
      "duration": 0.214,
      "velocity": 0.71,
      "hand": "right"
    },
    {
      "midi": 84,
      "time": 71.143,
      "duration": 0.107,
      "velocity": 0.71,
      "hand": "right"
    },
    {
      "midi": 82,
      "time": 71.25,
      "duration": 0.107,
      "velocity": 0.71,
      "hand": "right"
    },
    {
      "midi": 49,
      "time": 71.357,
      "duration": 0.214,
      "velocity": 0.71,
      "hand": "left"
    },
    {
      "midi": 80,
      "time": 71.357,
      "duration": 0.107,
      "velocity": 0.71,
      "hand": "right"
    },
    {
      "midi": 82,
      "time": 71.464,
      "duration": 0.107,
      "velocity": 0.71,
      "hand": "right"
    },
    {
      "midi": 56,
      "time": 71.571,
      "duration": 0.214,
      "velocity": 0.71,
      "hand": "left"
    },
    {
      "midi": 65,
      "time": 71.571,
      "duration": 0.214,
      "velocity": 0.71,
      "hand": "right"
    },
    {
      "midi": 80,
      "time": 71.571,
      "duration": 0.107,
      "velocity": 0.71,
      "hand": "right"
    },
    {
      "midi": 79,
      "time": 71.679,
      "duration": 0.107,
      "velocity": 0.71,
      "hand": "right"
    },
    {
      "midi": 80,
      "time": 71.786,
      "duration": 0.107,
      "velocity": 0.71,
      "hand": "right"
    },
    {
      "midi": 85,
      "time": 71.893,
      "duration": 0.107,
      "velocity": 0.71,
      "hand": "right"
    },
    {
      "midi": 54,
      "time": 72,
      "duration": 0.214,
      "velocity": 0.71,
      "hand": "left"
    },
    {
      "midi": 84,
      "time": 72,
      "duration": 0.107,
      "velocity": 0.71,
      "hand": "right"
    },
    {
      "midi": 82,
      "time": 72.107,
      "duration": 0.107,
      "velocity": 0.71,
      "hand": "right"
    },
    {
      "midi": 58,
      "time": 72.214,
      "duration": 0.214,
      "velocity": 0.71,
      "hand": "left"
    },
    {
      "midi": 63,
      "time": 72.214,
      "duration": 0.214,
      "velocity": 0.71,
      "hand": "right"
    },
    {
      "midi": 80,
      "time": 72.214,
      "duration": 0.107,
      "velocity": 0.71,
      "hand": "right"
    },
    {
      "midi": 78,
      "time": 72.321,
      "duration": 0.107,
      "velocity": 0.71,
      "hand": "right"
    },
    {
      "midi": 77,
      "time": 72.429,
      "duration": 0.107,
      "velocity": 0.71,
      "hand": "right"
    },
    {
      "midi": 75,
      "time": 72.536,
      "duration": 0.107,
      "velocity": 0.71,
      "hand": "right"
    },
    {
      "midi": 44,
      "time": 72.643,
      "duration": 0.214,
      "velocity": 0.71,
      "hand": "left"
    },
    {
      "midi": 73,
      "time": 72.643,
      "duration": 0.107,
      "velocity": 0.71,
      "hand": "right"
    },
    {
      "midi": 72,
      "time": 72.75,
      "duration": 0.107,
      "velocity": 0.71,
      "hand": "right"
    },
    {
      "midi": 53,
      "time": 72.857,
      "duration": 0.214,
      "velocity": 0.71,
      "hand": "left"
    },
    {
      "midi": 56,
      "time": 72.857,
      "duration": 0.214,
      "velocity": 0.71,
      "hand": "left"
    },
    {
      "midi": 61,
      "time": 72.857,
      "duration": 0.214,
      "velocity": 0.71,
      "hand": "right"
    },
    {
      "midi": 70,
      "time": 72.857,
      "duration": 0.107,
      "velocity": 0.71,
      "hand": "right"
    },
    {
      "midi": 68,
      "time": 72.964,
      "duration": 0.107,
      "velocity": 0.71,
      "hand": "right"
    },
    {
      "midi": 66,
      "time": 73.071,
      "duration": 0.107,
      "velocity": 0.71,
      "hand": "right"
    },
    {
      "midi": 65,
      "time": 73.179,
      "duration": 0.107,
      "velocity": 0.71,
      "hand": "right"
    },
    {
      "midi": 44,
      "time": 73.286,
      "duration": 0.214,
      "velocity": 0.71,
      "hand": "left"
    },
    {
      "midi": 63,
      "time": 73.286,
      "duration": 0.107,
      "velocity": 0.71,
      "hand": "right"
    },
    {
      "midi": 61,
      "time": 73.393,
      "duration": 0.107,
      "velocity": 0.71,
      "hand": "right"
    },
    {
      "midi": 54,
      "time": 73.5,
      "duration": 0.214,
      "velocity": 0.71,
      "hand": "left"
    },
    {
      "midi": 56,
      "time": 73.5,
      "duration": 0.214,
      "velocity": 0.71,
      "hand": "left"
    },
    {
      "midi": 60,
      "time": 73.5,
      "duration": 0.107,
      "velocity": 0.71,
      "hand": "right"
    },
    {
      "midi": 63,
      "time": 73.607,
      "duration": 0.107,
      "velocity": 0.71,
      "hand": "right"
    },
    {
      "midi": 54,
      "time": 73.714,
      "duration": 0.214,
      "velocity": 0.71,
      "hand": "left"
    },
    {
      "midi": 56,
      "time": 73.714,
      "duration": 0.214,
      "velocity": 0.71,
      "hand": "left"
    },
    {
      "midi": 60,
      "time": 73.714,
      "duration": 0.214,
      "velocity": 0.71,
      "hand": "right"
    },
    {
      "midi": 70,
      "time": 73.714,
      "duration": 0.107,
      "velocity": 0.71,
      "hand": "right"
    },
    {
      "midi": 68,
      "time": 73.821,
      "duration": 0.107,
      "velocity": 0.71,
      "hand": "right"
    },
    {
      "midi": 49,
      "time": 73.929,
      "duration": 0.214,
      "velocity": 0.71,
      "hand": "left"
    },
    {
      "midi": 67,
      "time": 73.929,
      "duration": 0.107,
      "velocity": 0.71,
      "hand": "right"
    },
    {
      "midi": 68,
      "time": 74.036,
      "duration": 0.107,
      "velocity": 0.71,
      "hand": "right"
    },
    {
      "midi": 56,
      "time": 74.143,
      "duration": 0.214,
      "velocity": 0.71,
      "hand": "left"
    },
    {
      "midi": 61,
      "time": 74.143,
      "duration": 0.214,
      "velocity": 0.71,
      "hand": "right"
    },
    {
      "midi": 65,
      "time": 74.143,
      "duration": 0.214,
      "velocity": 0.71,
      "hand": "right"
    },
    {
      "midi": 70,
      "time": 74.143,
      "duration": 0.107,
      "velocity": 0.71,
      "hand": "right"
    },
    {
      "midi": 72,
      "time": 74.25,
      "duration": 0.107,
      "velocity": 0.71,
      "hand": "right"
    },
    {
      "midi": 73,
      "time": 74.357,
      "duration": 0.107,
      "velocity": 0.71,
      "hand": "right"
    },
    {
      "midi": 75,
      "time": 74.464,
      "duration": 0.107,
      "velocity": 0.71,
      "hand": "right"
    },
    {
      "midi": 57,
      "time": 74.571,
      "duration": 0.643,
      "velocity": 0.71,
      "hand": "left"
    },
    {
      "midi": 77,
      "time": 74.571,
      "duration": 0.054,
      "velocity": 0.71,
      "hand": "right"
    },
    {
      "midi": 78,
      "time": 74.625,
      "duration": 0.054,
      "velocity": 0.71,
      "hand": "right"
    },
    {
      "midi": 77,
      "time": 74.732,
      "duration": 0.054,
      "velocity": 0.71,
      "hand": "right"
    },
    {
      "midi": 63,
      "time": 74.786,
      "duration": 0.214,
      "velocity": 0.71,
      "hand": "right"
    },
    {
      "midi": 65,
      "time": 74.786,
      "duration": 0.214,
      "velocity": 0.71,
      "hand": "right"
    },
    {
      "midi": 76,
      "time": 74.786,
      "duration": 0.107,
      "velocity": 0.71,
      "hand": "right"
    },
    {
      "midi": 77,
      "time": 74.893,
      "duration": 0.107,
      "velocity": 0.71,
      "hand": "right"
    },
    {
      "midi": 63,
      "time": 75,
      "duration": 0.214,
      "velocity": 0.71,
      "hand": "right"
    },
    {
      "midi": 65,
      "time": 75,
      "duration": 0.214,
      "velocity": 0.71,
      "hand": "right"
    },
    {
      "midi": 80,
      "time": 75,
      "duration": 0.107,
      "velocity": 0.71,
      "hand": "right"
    },
    {
      "midi": 78,
      "time": 75.107,
      "duration": 0.107,
      "velocity": 0.71,
      "hand": "right"
    },
    {
      "midi": 58,
      "time": 75.214,
      "duration": 0.643,
      "velocity": 0.71,
      "hand": "left"
    },
    {
      "midi": 77,
      "time": 75.214,
      "duration": 0.107,
      "velocity": 0.71,
      "hand": "right"
    },
    {
      "midi": 78,
      "time": 75.321,
      "duration": 0.107,
      "velocity": 0.71,
      "hand": "right"
    },
    {
      "midi": 61,
      "time": 75.429,
      "duration": 0.214,
      "velocity": 0.71,
      "hand": "right"
    },
    {
      "midi": 65,
      "time": 75.429,
      "duration": 0.214,
      "velocity": 0.71,
      "hand": "right"
    },
    {
      "midi": 77,
      "time": 75.429,
      "duration": 0.107,
      "velocity": 0.71,
      "hand": "right"
    },
    {
      "midi": 76,
      "time": 75.536,
      "duration": 0.107,
      "velocity": 0.71,
      "hand": "right"
    },
    {
      "midi": 61,
      "time": 75.643,
      "duration": 0.214,
      "velocity": 0.71,
      "hand": "right"
    },
    {
      "midi": 65,
      "time": 75.643,
      "duration": 0.214,
      "velocity": 0.71,
      "hand": "right"
    },
    {
      "midi": 77,
      "time": 75.643,
      "duration": 0.107,
      "velocity": 0.71,
      "hand": "right"
    },
    {
      "midi": 82,
      "time": 75.75,
      "duration": 0.107,
      "velocity": 0.71,
      "hand": "right"
    },
    {
      "midi": 60,
      "time": 75.857,
      "duration": 0.643,
      "velocity": 0.71,
      "hand": "right"
    },
    {
      "midi": 80,
      "time": 75.857,
      "duration": 0.054,
      "velocity": 0.71,
      "hand": "right"
    },
    {
      "midi": 82,
      "time": 75.911,
      "duration": 0.054,
      "velocity": 0.71,
      "hand": "right"
    },
    {
      "midi": 80,
      "time": 76.018,
      "duration": 0.054,
      "velocity": 0.71,
      "hand": "right"
    },
    {
      "midi": 66,
      "time": 76.071,
      "duration": 0.214,
      "velocity": 0.71,
      "hand": "right"
    },
    {
      "midi": 68,
      "time": 76.071,
      "duration": 0.214,
      "velocity": 0.71,
      "hand": "right"
    },
    {
      "midi": 79,
      "time": 76.071,
      "duration": 0.107,
      "velocity": 0.71,
      "hand": "right"
    },
    {
      "midi": 80,
      "time": 76.179,
      "duration": 0.107,
      "velocity": 0.71,
      "hand": "right"
    },
    {
      "midi": 66,
      "time": 76.286,
      "duration": 0.214,
      "velocity": 0.71,
      "hand": "right"
    },
    {
      "midi": 68,
      "time": 76.286,
      "duration": 0.214,
      "velocity": 0.71,
      "hand": "right"
    },
    {
      "midi": 84,
      "time": 76.286,
      "duration": 0.107,
      "velocity": 0.71,
      "hand": "right"
    },
    {
      "midi": 82,
      "time": 76.393,
      "duration": 0.107,
      "velocity": 0.71,
      "hand": "right"
    },
    {
      "midi": 61,
      "time": 76.5,
      "duration": 0.214,
      "velocity": 0.71,
      "hand": "right"
    },
    {
      "midi": 80,
      "time": 76.5,
      "duration": 0.107,
      "velocity": 0.71,
      "hand": "right"
    },
    {
      "midi": 82,
      "time": 76.607,
      "duration": 0.107,
      "velocity": 0.71,
      "hand": "right"
    },
    {
      "midi": 65,
      "time": 76.714,
      "duration": 0.214,
      "velocity": 0.71,
      "hand": "right"
    },
    {
      "midi": 68,
      "time": 76.714,
      "duration": 0.214,
      "velocity": 0.71,
      "hand": "right"
    },
    {
      "midi": 80,
      "time": 76.714,
      "duration": 0.107,
      "velocity": 0.71,
      "hand": "right"
    },
    {
      "midi": 79,
      "time": 76.821,
      "duration": 0.107,
      "velocity": 0.71,
      "hand": "right"
    },
    {
      "midi": 80,
      "time": 76.929,
      "duration": 0.107,
      "velocity": 0.71,
      "hand": "right"
    },
    {
      "midi": 89,
      "time": 77.036,
      "duration": 0.107,
      "velocity": 0.71,
      "hand": "right"
    },
    {
      "midi": 54,
      "time": 77.143,
      "duration": 0.214,
      "velocity": 0.71,
      "hand": "left"
    },
    {
      "midi": 87,
      "time": 77.143,
      "duration": 0.107,
      "velocity": 0.71,
      "hand": "right"
    },
    {
      "midi": 85,
      "time": 77.25,
      "duration": 0.107,
      "velocity": 0.71,
      "hand": "right"
    },
    {
      "midi": 61,
      "time": 77.357,
      "duration": 0.214,
      "velocity": 0.71,
      "hand": "right"
    },
    {
      "midi": 63,
      "time": 77.357,
      "duration": 0.214,
      "velocity": 0.71,
      "hand": "right"
    },
    {
      "midi": 70,
      "time": 77.357,
      "duration": 0.214,
      "velocity": 0.71,
      "hand": "right"
    },
    {
      "midi": 84,
      "time": 77.357,
      "duration": 0.107,
      "velocity": 0.71,
      "hand": "right"
    },
    {
      "midi": 82,
      "time": 77.464,
      "duration": 0.107,
      "velocity": 0.71,
      "hand": "right"
    },
    {
      "midi": 80,
      "time": 77.571,
      "duration": 0.107,
      "velocity": 0.71,
      "hand": "right"
    },
    {
      "midi": 78,
      "time": 77.679,
      "duration": 0.107,
      "velocity": 0.71,
      "hand": "right"
    },
    {
      "midi": 44,
      "time": 77.786,
      "duration": 0.214,
      "velocity": 0.71,
      "hand": "left"
    },
    {
      "midi": 77,
      "time": 77.786,
      "duration": 0.107,
      "velocity": 0.71,
      "hand": "right"
    },
    {
      "midi": 75,
      "time": 77.893,
      "duration": 0.107,
      "velocity": 0.71,
      "hand": "right"
    },
    {
      "midi": 53,
      "time": 78,
      "duration": 0.214,
      "velocity": 0.71,
      "hand": "left"
    },
    {
      "midi": 56,
      "time": 78,
      "duration": 0.214,
      "velocity": 0.71,
      "hand": "left"
    },
    {
      "midi": 61,
      "time": 78,
      "duration": 0.214,
      "velocity": 0.71,
      "hand": "right"
    },
    {
      "midi": 73,
      "time": 78,
      "duration": 0.107,
      "velocity": 0.71,
      "hand": "right"
    },
    {
      "midi": 72,
      "time": 78.107,
      "duration": 0.107,
      "velocity": 0.71,
      "hand": "right"
    },
    {
      "midi": 70,
      "time": 78.214,
      "duration": 0.107,
      "velocity": 0.71,
      "hand": "right"
    },
    {
      "midi": 68,
      "time": 78.321,
      "duration": 0.107,
      "velocity": 0.71,
      "hand": "right"
    },
    {
      "midi": 44,
      "time": 78.429,
      "duration": 0.214,
      "velocity": 0.71,
      "hand": "left"
    },
    {
      "midi": 69,
      "time": 78.429,
      "duration": 0.107,
      "velocity": 0.71,
      "hand": "right"
    },
    {
      "midi": 72,
      "time": 78.536,
      "duration": 0.107,
      "velocity": 0.71,
      "hand": "right"
    },
    {
      "midi": 54,
      "time": 78.643,
      "duration": 0.214,
      "velocity": 0.71,
      "hand": "left"
    },
    {
      "midi": 56,
      "time": 78.643,
      "duration": 0.214,
      "velocity": 0.71,
      "hand": "left"
    },
    {
      "midi": 70,
      "time": 78.643,
      "duration": 0.107,
      "velocity": 0.71,
      "hand": "right"
    },
    {
      "midi": 65,
      "time": 78.75,
      "duration": 0.107,
      "velocity": 0.71,
      "hand": "right"
    },
    {
      "midi": 54,
      "time": 78.857,
      "duration": 0.214,
      "velocity": 0.71,
      "hand": "left"
    },
    {
      "midi": 56,
      "time": 78.857,
      "duration": 0.214,
      "velocity": 0.71,
      "hand": "left"
    },
    {
      "midi": 66,
      "time": 78.857,
      "duration": 0.107,
      "velocity": 0.71,
      "hand": "right"
    },
    {
      "midi": 60,
      "time": 78.964,
      "duration": 0.107,
      "velocity": 0.71,
      "hand": "right"
    },
    {
      "midi": 49,
      "time": 79.071,
      "duration": 0.214,
      "velocity": 0.71,
      "hand": "left"
    },
    {
      "midi": 61,
      "time": 79.071,
      "duration": 0.214,
      "velocity": 0.71,
      "hand": "right"
    },
    {
      "midi": 56,
      "time": 79.286,
      "duration": 0.214,
      "velocity": 0.71,
      "hand": "left"
    },
    {
      "midi": 65,
      "time": 79.286,
      "duration": 0.214,
      "velocity": 0.71,
      "hand": "right"
    },
    {
      "midi": 77,
      "time": 79.5,
      "duration": 0.268,
      "velocity": 0.71,
      "hand": "right"
    },
    {
      "midi": 45,
      "time": 79.714,
      "duration": 0.214,
      "velocity": 0.71,
      "hand": "left"
    },
    {
      "midi": 78,
      "time": 79.768,
      "duration": 0.054,
      "velocity": 0.71,
      "hand": "right"
    },
    {
      "midi": 77,
      "time": 79.875,
      "duration": 0.054,
      "velocity": 0.71,
      "hand": "right"
    },
    {
      "midi": 53,
      "time": 79.929,
      "duration": 0.214,
      "velocity": 0.71,
      "hand": "left"
    },
    {
      "midi": 60,
      "time": 79.929,
      "duration": 0.214,
      "velocity": 0.71,
      "hand": "right"
    },
    {
      "midi": 63,
      "time": 79.929,
      "duration": 0.214,
      "velocity": 0.71,
      "hand": "right"
    },
    {
      "midi": 76,
      "time": 79.929,
      "duration": 0.107,
      "velocity": 0.71,
      "hand": "right"
    },
    {
      "midi": 77,
      "time": 80.036,
      "duration": 0.107,
      "velocity": 0.71,
      "hand": "right"
    },
    {
      "midi": 53,
      "time": 80.143,
      "duration": 0.214,
      "velocity": 0.71,
      "hand": "left"
    },
    {
      "midi": 60,
      "time": 80.143,
      "duration": 0.214,
      "velocity": 0.71,
      "hand": "right"
    },
    {
      "midi": 63,
      "time": 80.143,
      "duration": 0.214,
      "velocity": 0.71,
      "hand": "right"
    },
    {
      "midi": 80,
      "time": 80.143,
      "duration": 0.107,
      "velocity": 0.71,
      "hand": "right"
    },
    {
      "midi": 78,
      "time": 80.25,
      "duration": 0.107,
      "velocity": 0.71,
      "hand": "right"
    },
    {
      "midi": 46,
      "time": 80.357,
      "duration": 0.214,
      "velocity": 0.71,
      "hand": "left"
    },
    {
      "midi": 77,
      "time": 80.357,
      "duration": 0.107,
      "velocity": 0.71,
      "hand": "right"
    },
    {
      "midi": 78,
      "time": 80.464,
      "duration": 0.107,
      "velocity": 0.71,
      "hand": "right"
    },
    {
      "midi": 53,
      "time": 80.571,
      "duration": 0.214,
      "velocity": 0.71,
      "hand": "left"
    },
    {
      "midi": 61,
      "time": 80.571,
      "duration": 0.214,
      "velocity": 0.71,
      "hand": "right"
    },
    {
      "midi": 77,
      "time": 80.571,
      "duration": 0.107,
      "velocity": 0.71,
      "hand": "right"
    },
    {
      "midi": 76,
      "time": 80.679,
      "duration": 0.107,
      "velocity": 0.71,
      "hand": "right"
    },
    {
      "midi": 53,
      "time": 80.786,
      "duration": 0.214,
      "velocity": 0.71,
      "hand": "left"
    },
    {
      "midi": 61,
      "time": 80.786,
      "duration": 0.214,
      "velocity": 0.71,
      "hand": "right"
    },
    {
      "midi": 77,
      "time": 80.786,
      "duration": 0.107,
      "velocity": 0.71,
      "hand": "right"
    },
    {
      "midi": 82,
      "time": 80.893,
      "duration": 0.107,
      "velocity": 0.71,
      "hand": "right"
    },
    {
      "midi": 48,
      "time": 81,
      "duration": 0.214,
      "velocity": 0.71,
      "hand": "left"
    },
    {
      "midi": 80,
      "time": 81,
      "duration": 0.054,
      "velocity": 0.71,
      "hand": "right"
    },
    {
      "midi": 82,
      "time": 81.054,
      "duration": 0.054,
      "velocity": 0.71,
      "hand": "right"
    },
    {
      "midi": 80,
      "time": 81.161,
      "duration": 0.054,
      "velocity": 0.71,
      "hand": "right"
    },
    {
      "midi": 56,
      "time": 81.214,
      "duration": 0.214,
      "velocity": 0.71,
      "hand": "left"
    },
    {
      "midi": 63,
      "time": 81.214,
      "duration": 0.214,
      "velocity": 0.71,
      "hand": "right"
    },
    {
      "midi": 66,
      "time": 81.214,
      "duration": 0.214,
      "velocity": 0.71,
      "hand": "right"
    },
    {
      "midi": 79,
      "time": 81.214,
      "duration": 0.107,
      "velocity": 0.71,
      "hand": "right"
    },
    {
      "midi": 80,
      "time": 81.321,
      "duration": 0.107,
      "velocity": 0.71,
      "hand": "right"
    },
    {
      "midi": 56,
      "time": 81.429,
      "duration": 0.214,
      "velocity": 0.71,
      "hand": "left"
    },
    {
      "midi": 63,
      "time": 81.429,
      "duration": 0.214,
      "velocity": 0.71,
      "hand": "right"
    },
    {
      "midi": 66,
      "time": 81.429,
      "duration": 0.214,
      "velocity": 0.71,
      "hand": "right"
    },
    {
      "midi": 84,
      "time": 81.429,
      "duration": 0.107,
      "velocity": 0.71,
      "hand": "right"
    },
    {
      "midi": 82,
      "time": 81.536,
      "duration": 0.107,
      "velocity": 0.71,
      "hand": "right"
    },
    {
      "midi": 49,
      "time": 81.643,
      "duration": 0.214,
      "velocity": 0.71,
      "hand": "left"
    },
    {
      "midi": 80,
      "time": 81.643,
      "duration": 0.107,
      "velocity": 0.71,
      "hand": "right"
    },
    {
      "midi": 82,
      "time": 81.75,
      "duration": 0.107,
      "velocity": 0.71,
      "hand": "right"
    },
    {
      "midi": 56,
      "time": 81.857,
      "duration": 0.214,
      "velocity": 0.71,
      "hand": "left"
    },
    {
      "midi": 65,
      "time": 81.857,
      "duration": 0.214,
      "velocity": 0.71,
      "hand": "right"
    },
    {
      "midi": 80,
      "time": 81.857,
      "duration": 0.107,
      "velocity": 0.71,
      "hand": "right"
    },
    {
      "midi": 79,
      "time": 81.964,
      "duration": 0.107,
      "velocity": 0.71,
      "hand": "right"
    },
    {
      "midi": 80,
      "time": 82.071,
      "duration": 0.107,
      "velocity": 0.71,
      "hand": "right"
    },
    {
      "midi": 85,
      "time": 82.179,
      "duration": 0.107,
      "velocity": 0.71,
      "hand": "right"
    },
    {
      "midi": 54,
      "time": 82.286,
      "duration": 0.214,
      "velocity": 0.71,
      "hand": "left"
    },
    {
      "midi": 84,
      "time": 82.286,
      "duration": 0.107,
      "velocity": 0.71,
      "hand": "right"
    },
    {
      "midi": 82,
      "time": 82.393,
      "duration": 0.107,
      "velocity": 0.71,
      "hand": "right"
    },
    {
      "midi": 58,
      "time": 82.5,
      "duration": 0.214,
      "velocity": 0.71,
      "hand": "left"
    },
    {
      "midi": 63,
      "time": 82.5,
      "duration": 0.214,
      "velocity": 0.71,
      "hand": "right"
    },
    {
      "midi": 80,
      "time": 82.5,
      "duration": 0.107,
      "velocity": 0.71,
      "hand": "right"
    },
    {
      "midi": 78,
      "time": 82.607,
      "duration": 0.107,
      "velocity": 0.71,
      "hand": "right"
    },
    {
      "midi": 77,
      "time": 82.714,
      "duration": 0.107,
      "velocity": 0.71,
      "hand": "right"
    },
    {
      "midi": 75,
      "time": 82.821,
      "duration": 0.107,
      "velocity": 0.71,
      "hand": "right"
    },
    {
      "midi": 44,
      "time": 82.929,
      "duration": 0.214,
      "velocity": 0.71,
      "hand": "left"
    },
    {
      "midi": 73,
      "time": 82.929,
      "duration": 0.107,
      "velocity": 0.71,
      "hand": "right"
    },
    {
      "midi": 72,
      "time": 83.036,
      "duration": 0.107,
      "velocity": 0.71,
      "hand": "right"
    },
    {
      "midi": 53,
      "time": 83.143,
      "duration": 0.214,
      "velocity": 0.71,
      "hand": "left"
    },
    {
      "midi": 56,
      "time": 83.143,
      "duration": 0.214,
      "velocity": 0.71,
      "hand": "left"
    },
    {
      "midi": 61,
      "time": 83.143,
      "duration": 0.214,
      "velocity": 0.71,
      "hand": "right"
    },
    {
      "midi": 70,
      "time": 83.143,
      "duration": 0.107,
      "velocity": 0.71,
      "hand": "right"
    },
    {
      "midi": 68,
      "time": 83.25,
      "duration": 0.107,
      "velocity": 0.71,
      "hand": "right"
    },
    {
      "midi": 66,
      "time": 83.357,
      "duration": 0.107,
      "velocity": 0.71,
      "hand": "right"
    },
    {
      "midi": 65,
      "time": 83.464,
      "duration": 0.107,
      "velocity": 0.71,
      "hand": "right"
    },
    {
      "midi": 44,
      "time": 83.571,
      "duration": 0.214,
      "velocity": 0.71,
      "hand": "left"
    },
    {
      "midi": 63,
      "time": 83.571,
      "duration": 0.107,
      "velocity": 0.71,
      "hand": "right"
    },
    {
      "midi": 61,
      "time": 83.679,
      "duration": 0.107,
      "velocity": 0.71,
      "hand": "right"
    },
    {
      "midi": 54,
      "time": 83.786,
      "duration": 0.214,
      "velocity": 0.71,
      "hand": "left"
    },
    {
      "midi": 56,
      "time": 83.786,
      "duration": 0.214,
      "velocity": 0.71,
      "hand": "left"
    },
    {
      "midi": 60,
      "time": 83.786,
      "duration": 0.107,
      "velocity": 0.71,
      "hand": "right"
    },
    {
      "midi": 63,
      "time": 83.893,
      "duration": 0.107,
      "velocity": 0.71,
      "hand": "right"
    },
    {
      "midi": 54,
      "time": 84,
      "duration": 0.214,
      "velocity": 0.71,
      "hand": "left"
    },
    {
      "midi": 56,
      "time": 84,
      "duration": 0.214,
      "velocity": 0.71,
      "hand": "left"
    },
    {
      "midi": 60,
      "time": 84,
      "duration": 0.214,
      "velocity": 0.71,
      "hand": "right"
    },
    {
      "midi": 70,
      "time": 84,
      "duration": 0.107,
      "velocity": 0.71,
      "hand": "right"
    },
    {
      "midi": 68,
      "time": 84.107,
      "duration": 0.107,
      "velocity": 0.71,
      "hand": "right"
    },
    {
      "midi": 49,
      "time": 84.214,
      "duration": 0.214,
      "velocity": 0.71,
      "hand": "left"
    },
    {
      "midi": 67,
      "time": 84.214,
      "duration": 0.107,
      "velocity": 0.71,
      "hand": "right"
    },
    {
      "midi": 68,
      "time": 84.321,
      "duration": 0.107,
      "velocity": 0.71,
      "hand": "right"
    },
    {
      "midi": 56,
      "time": 84.429,
      "duration": 0.214,
      "velocity": 0.71,
      "hand": "left"
    },
    {
      "midi": 61,
      "time": 84.429,
      "duration": 0.214,
      "velocity": 0.71,
      "hand": "right"
    },
    {
      "midi": 65,
      "time": 84.429,
      "duration": 0.214,
      "velocity": 0.71,
      "hand": "right"
    },
    {
      "midi": 70,
      "time": 84.429,
      "duration": 0.107,
      "velocity": 0.71,
      "hand": "right"
    },
    {
      "midi": 72,
      "time": 84.536,
      "duration": 0.107,
      "velocity": 0.71,
      "hand": "right"
    },
    {
      "midi": 73,
      "time": 84.643,
      "duration": 0.107,
      "velocity": 0.71,
      "hand": "right"
    },
    {
      "midi": 75,
      "time": 84.75,
      "duration": 0.107,
      "velocity": 0.71,
      "hand": "right"
    },
    {
      "midi": 57,
      "time": 84.857,
      "duration": 0.643,
      "velocity": 0.71,
      "hand": "left"
    },
    {
      "midi": 77,
      "time": 84.857,
      "duration": 0.054,
      "velocity": 0.71,
      "hand": "right"
    },
    {
      "midi": 78,
      "time": 84.911,
      "duration": 0.054,
      "velocity": 0.71,
      "hand": "right"
    },
    {
      "midi": 77,
      "time": 85.018,
      "duration": 0.054,
      "velocity": 0.71,
      "hand": "right"
    },
    {
      "midi": 63,
      "time": 85.071,
      "duration": 0.214,
      "velocity": 0.71,
      "hand": "right"
    },
    {
      "midi": 65,
      "time": 85.071,
      "duration": 0.214,
      "velocity": 0.71,
      "hand": "right"
    },
    {
      "midi": 76,
      "time": 85.071,
      "duration": 0.107,
      "velocity": 0.71,
      "hand": "right"
    },
    {
      "midi": 77,
      "time": 85.179,
      "duration": 0.107,
      "velocity": 0.71,
      "hand": "right"
    },
    {
      "midi": 63,
      "time": 85.286,
      "duration": 0.214,
      "velocity": 0.71,
      "hand": "right"
    },
    {
      "midi": 65,
      "time": 85.286,
      "duration": 0.214,
      "velocity": 0.71,
      "hand": "right"
    },
    {
      "midi": 80,
      "time": 85.286,
      "duration": 0.107,
      "velocity": 0.71,
      "hand": "right"
    },
    {
      "midi": 78,
      "time": 85.393,
      "duration": 0.107,
      "velocity": 0.71,
      "hand": "right"
    },
    {
      "midi": 58,
      "time": 85.5,
      "duration": 0.643,
      "velocity": 0.71,
      "hand": "left"
    },
    {
      "midi": 77,
      "time": 85.5,
      "duration": 0.107,
      "velocity": 0.71,
      "hand": "right"
    },
    {
      "midi": 78,
      "time": 85.607,
      "duration": 0.107,
      "velocity": 0.71,
      "hand": "right"
    },
    {
      "midi": 61,
      "time": 85.714,
      "duration": 0.214,
      "velocity": 0.71,
      "hand": "right"
    },
    {
      "midi": 65,
      "time": 85.714,
      "duration": 0.214,
      "velocity": 0.71,
      "hand": "right"
    },
    {
      "midi": 77,
      "time": 85.714,
      "duration": 0.107,
      "velocity": 0.71,
      "hand": "right"
    },
    {
      "midi": 76,
      "time": 85.821,
      "duration": 0.107,
      "velocity": 0.71,
      "hand": "right"
    },
    {
      "midi": 61,
      "time": 85.929,
      "duration": 0.214,
      "velocity": 0.71,
      "hand": "right"
    },
    {
      "midi": 65,
      "time": 85.929,
      "duration": 0.214,
      "velocity": 0.71,
      "hand": "right"
    },
    {
      "midi": 77,
      "time": 85.929,
      "duration": 0.107,
      "velocity": 0.71,
      "hand": "right"
    },
    {
      "midi": 82,
      "time": 86.036,
      "duration": 0.107,
      "velocity": 0.71,
      "hand": "right"
    },
    {
      "midi": 60,
      "time": 86.143,
      "duration": 0.643,
      "velocity": 0.71,
      "hand": "right"
    },
    {
      "midi": 80,
      "time": 86.143,
      "duration": 0.054,
      "velocity": 0.71,
      "hand": "right"
    },
    {
      "midi": 82,
      "time": 86.196,
      "duration": 0.054,
      "velocity": 0.71,
      "hand": "right"
    },
    {
      "midi": 80,
      "time": 86.304,
      "duration": 0.054,
      "velocity": 0.71,
      "hand": "right"
    },
    {
      "midi": 66,
      "time": 86.357,
      "duration": 0.214,
      "velocity": 0.71,
      "hand": "right"
    },
    {
      "midi": 68,
      "time": 86.357,
      "duration": 0.214,
      "velocity": 0.71,
      "hand": "right"
    },
    {
      "midi": 79,
      "time": 86.357,
      "duration": 0.107,
      "velocity": 0.71,
      "hand": "right"
    },
    {
      "midi": 80,
      "time": 86.464,
      "duration": 0.107,
      "velocity": 0.71,
      "hand": "right"
    },
    {
      "midi": 66,
      "time": 86.571,
      "duration": 0.214,
      "velocity": 0.71,
      "hand": "right"
    },
    {
      "midi": 68,
      "time": 86.571,
      "duration": 0.214,
      "velocity": 0.71,
      "hand": "right"
    },
    {
      "midi": 84,
      "time": 86.571,
      "duration": 0.107,
      "velocity": 0.71,
      "hand": "right"
    },
    {
      "midi": 82,
      "time": 86.679,
      "duration": 0.107,
      "velocity": 0.71,
      "hand": "right"
    },
    {
      "midi": 61,
      "time": 86.786,
      "duration": 0.214,
      "velocity": 0.71,
      "hand": "right"
    },
    {
      "midi": 80,
      "time": 86.786,
      "duration": 0.107,
      "velocity": 0.71,
      "hand": "right"
    },
    {
      "midi": 82,
      "time": 86.893,
      "duration": 0.107,
      "velocity": 0.71,
      "hand": "right"
    },
    {
      "midi": 65,
      "time": 87,
      "duration": 0.214,
      "velocity": 0.71,
      "hand": "right"
    },
    {
      "midi": 68,
      "time": 87,
      "duration": 0.214,
      "velocity": 0.71,
      "hand": "right"
    },
    {
      "midi": 80,
      "time": 87,
      "duration": 0.107,
      "velocity": 0.71,
      "hand": "right"
    },
    {
      "midi": 79,
      "time": 87.107,
      "duration": 0.107,
      "velocity": 0.71,
      "hand": "right"
    },
    {
      "midi": 80,
      "time": 87.214,
      "duration": 0.107,
      "velocity": 0.71,
      "hand": "right"
    },
    {
      "midi": 101,
      "time": 87.321,
      "duration": 0.107,
      "velocity": 0.71,
      "hand": "right"
    },
    {
      "midi": 42,
      "time": 87.429,
      "duration": 0.214,
      "velocity": 0.71,
      "hand": "left"
    },
    {
      "midi": 99,
      "time": 87.429,
      "duration": 0.054,
      "velocity": 0.71,
      "hand": "right"
    },
    {
      "midi": 97,
      "time": 87.482,
      "duration": 0.054,
      "velocity": 0.71,
      "hand": "right"
    },
    {
      "midi": 96,
      "time": 87.589,
      "duration": 0.054,
      "velocity": 0.71,
      "hand": "right"
    },
    {
      "midi": 61,
      "time": 87.643,
      "duration": 0.214,
      "velocity": 0.71,
      "hand": "right"
    },
    {
      "midi": 63,
      "time": 87.643,
      "duration": 0.214,
      "velocity": 0.71,
      "hand": "right"
    },
    {
      "midi": 70,
      "time": 87.643,
      "duration": 0.214,
      "velocity": 0.71,
      "hand": "right"
    },
    {
      "midi": 94,
      "time": 87.643,
      "duration": 0.054,
      "velocity": 0.71,
      "hand": "right"
    },
    {
      "midi": 92,
      "time": 87.75,
      "duration": 0.054,
      "velocity": 0.71,
      "hand": "right"
    },
    {
      "midi": 90,
      "time": 87.804,
      "duration": 0.054,
      "velocity": 0.71,
      "hand": "right"
    },
    {
      "midi": 89,
      "time": 87.911,
      "duration": 0.054,
      "velocity": 0.71,
      "hand": "right"
    },
    {
      "midi": 87,
      "time": 87.964,
      "duration": 0.054,
      "velocity": 0.71,
      "hand": "right"
    },
    {
      "midi": 85,
      "time": 88.071,
      "duration": 0.054,
      "velocity": 0.71,
      "hand": "right"
    },
    {
      "midi": 84,
      "time": 88.125,
      "duration": 0.054,
      "velocity": 0.71,
      "hand": "right"
    },
    {
      "midi": 82,
      "time": 88.232,
      "duration": 0.054,
      "velocity": 0.71,
      "hand": "right"
    },
    {
      "midi": 80,
      "time": 88.286,
      "duration": 0.054,
      "velocity": 0.71,
      "hand": "right"
    },
    {
      "midi": 78,
      "time": 88.393,
      "duration": 0.054,
      "velocity": 0.71,
      "hand": "right"
    },
    {
      "midi": 77,
      "time": 88.446,
      "duration": 0.054,
      "velocity": 0.71,
      "hand": "right"
    },
    {
      "midi": 75,
      "time": 88.554,
      "duration": 0.054,
      "velocity": 0.71,
      "hand": "right"
    },
    {
      "midi": 73,
      "time": 88.607,
      "duration": 0.054,
      "velocity": 0.71,
      "hand": "right"
    },
    {
      "midi": 44,
      "time": 88.714,
      "duration": 0.214,
      "velocity": 0.71,
      "hand": "left"
    },
    {
      "midi": 72,
      "time": 88.714,
      "duration": 0.054,
      "velocity": 0.71,
      "hand": "right"
    },
    {
      "midi": 70,
      "time": 88.768,
      "duration": 0.054,
      "velocity": 0.71,
      "hand": "right"
    },
    {
      "midi": 69,
      "time": 88.875,
      "duration": 0.054,
      "velocity": 0.71,
      "hand": "right"
    },
    {
      "midi": 54,
      "time": 88.929,
      "duration": 0.214,
      "velocity": 0.71,
      "hand": "left"
    },
    {
      "midi": 56,
      "time": 88.929,
      "duration": 0.214,
      "velocity": 0.71,
      "hand": "left"
    },
    {
      "midi": 72,
      "time": 88.929,
      "duration": 0.054,
      "velocity": 0.71,
      "hand": "right"
    },
    {
      "midi": 70,
      "time": 89.036,
      "duration": 0.054,
      "velocity": 0.71,
      "hand": "right"
    },
    {
      "midi": 65,
      "time": 89.089,
      "duration": 0.054,
      "velocity": 0.71,
      "hand": "right"
    },
    {
      "midi": 54,
      "time": 89.143,
      "duration": 0.214,
      "velocity": 0.71,
      "hand": "left"
    },
    {
      "midi": 56,
      "time": 89.143,
      "duration": 0.214,
      "velocity": 0.71,
      "hand": "left"
    },
    {
      "midi": 66,
      "time": 89.196,
      "duration": 0.054,
      "velocity": 0.71,
      "hand": "right"
    },
    {
      "midi": 60,
      "time": 89.25,
      "duration": 0.054,
      "velocity": 0.71,
      "hand": "right"
    },
    {
      "midi": 37,
      "time": 89.357,
      "duration": 0.214,
      "velocity": 0.71,
      "hand": "left"
    },
    {
      "midi": 61,
      "time": 89.357,
      "duration": 0.429,
      "velocity": 0.71,
      "hand": "right"
    },
    {
      "midi": 53,
      "time": 89.571,
      "duration": 0.214,
      "velocity": 0.71,
      "hand": "left"
    },
    {
      "midi": 56,
      "time": 89.571,
      "duration": 0.214,
      "velocity": 0.71,
      "hand": "left"
    },
    {
      "midi": 65,
      "time": 89.571,
      "duration": 0.214,
      "velocity": 0.71,
      "hand": "right"
    }
  ]
}
