{
  "id": "minueto-em-sol-maior",
  "title": "Minueto Em Sol Maior",
  "artist": "MIDI Source",
  "difficulty": "Médio",
  "bpm": 120,
  "duration": 96,
  "category": "A revisar",
  "isPremium": true,
  "coverUrl": "/images/covers/placeholder.png",
  "notes": [
    {
      "midi": 55,
      "time": 0,
      "duration": 1,
      "velocity": 0.63,
      "hand": "left"
    },
    {
      "midi": 59,
      "time": 0,
      "duration": 1,
      "velocity": 0.63,
      "hand": "left"
    },
    {
      "midi": 62,
      "time": 0,
      "duration": 1,
      "velocity": 0.63,
      "hand": "right"
    },
    {
      "midi": 74,
      "time": 0,
      "duration": 0.5,
      "velocity": 0.63,
      "hand": "right"
    },
    {
      "midi": 67,
      "time": 0.5,
      "duration": 0.25,
      "velocity": 0.63,
      "hand": "right"
    },
    {
      "midi": 69,
      "time": 0.75,
      "duration": 0.25,
      "velocity": 0.63,
      "hand": "right"
    },
    {
      "midi": 57,
      "time": 1,
      "duration": 0.5,
      "velocity": 0.63,
      "hand": "left"
    },
    {
      "midi": 71,
      "time": 1,
      "duration": 0.25,
      "velocity": 0.63,
      "hand": "right"
    },
    {
      "midi": 72,
      "time": 1.25,
      "duration": 0.25,
      "velocity": 0.63,
      "hand": "right"
    },
    {
      "midi": 59,
      "time": 1.5,
      "duration": 1.5,
      "velocity": 0.63,
      "hand": "left"
    },
    {
      "midi": 74,
      "time": 1.5,
      "duration": 0.5,
      "velocity": 0.63,
      "hand": "right"
    },
    {
      "midi": 67,
      "time": 2,
      "duration": 0.25,
      "velocity": 0.63,
      "hand": "right"
    },
    {
      "midi": 67,
      "time": 2.5,
      "duration": 0.25,
      "velocity": 0.63,
      "hand": "right"
    },
    {
      "midi": 60,
      "time": 3,
      "duration": 1.5,
      "velocity": 0.63,
      "hand": "right"
    },
    {
      "midi": 76,
      "time": 3,
      "duration": 0.5,
      "velocity": 0.63,
      "hand": "right"
    },
    {
      "midi": 72,
      "time": 3.5,
      "duration": 0.063,
      "velocity": 0.63,
      "hand": "right"
    },
    {
      "midi": 71,
      "time": 3.625,
      "duration": 0.063,
      "velocity": 0.63,
      "hand": "right"
    },
    {
      "midi": 72,
      "time": 3.625,
      "duration": 0.125,
      "velocity": 0.63,
      "hand": "right"
    },
    {
      "midi": 74,
      "time": 3.75,
      "duration": 0.25,
      "velocity": 0.63,
      "hand": "right"
    },
    {
      "midi": 76,
      "time": 4,
      "duration": 0.25,
      "velocity": 0.63,
      "hand": "right"
    },
    {
      "midi": 78,
      "time": 4.25,
      "duration": 0.25,
      "velocity": 0.63,
      "hand": "right"
    },
    {
      "midi": 59,
      "time": 4.5,
      "duration": 1.5,
      "velocity": 0.63,
      "hand": "left"
    },
    {
      "midi": 79,
      "time": 4.5,
      "duration": 0.5,
      "velocity": 0.63,
      "hand": "right"
    },
    {
      "midi": 67,
      "time": 5,
      "duration": 0.25,
      "velocity": 0.63,
      "hand": "right"
    },
    {
      "midi": 67,
      "time": 5.5,
      "duration": 0.25,
      "velocity": 0.63,
      "hand": "right"
    },
    {
      "midi": 57,
      "time": 6,
      "duration": 1.5,
      "velocity": 0.63,
      "hand": "left"
    },
    {
      "midi": 72,
      "time": 6,
      "duration": 0.063,
      "velocity": 0.63,
      "hand": "right"
    },
    {
      "midi": 71,
      "time": 6.125,
      "duration": 0.063,
      "velocity": 0.63,
      "hand": "right"
    },
    {
      "midi": 72,
      "time": 6.125,
      "duration": 0.375,
      "velocity": 0.63,
      "hand": "right"
    },
    {
      "midi": 74,
      "time": 6.5,
      "duration": 0.25,
      "velocity": 0.63,
      "hand": "right"
    },
    {
      "midi": 72,
      "time": 6.75,
      "duration": 0.25,
      "velocity": 0.63,
      "hand": "right"
    },
    {
      "midi": 71,
      "time": 7,
      "duration": 0.25,
      "velocity": 0.63,
      "hand": "right"
    },
    {
      "midi": 69,
      "time": 7.25,
      "duration": 0.25,
      "velocity": 0.63,
      "hand": "right"
    },
    {
      "midi": 55,
      "time": 7.5,
      "duration": 1.5,
      "velocity": 0.63,
      "hand": "left"
    },
    {
      "midi": 71,
      "time": 7.5,
      "duration": 0.5,
      "velocity": 0.63,
      "hand": "right"
    },
    {
      "midi": 72,
      "time": 8,
      "duration": 0.25,
      "velocity": 0.63,
      "hand": "right"
    },
    {
      "midi": 71,
      "time": 8.25,
      "duration": 0.25,
      "velocity": 0.63,
      "hand": "right"
    },
    {
      "midi": 69,
      "time": 8.5,
      "duration": 0.25,
      "velocity": 0.63,
      "hand": "right"
    },
    {
      "midi": 67,
      "time": 8.75,
      "duration": 0.25,
      "velocity": 0.63,
      "hand": "right"
    },
    {
      "midi": 62,
      "time": 9,
      "duration": 0.5,
      "velocity": 0.63,
      "hand": "right"
    },
    {
      "midi": 66,
      "time": 9,
      "duration": 0.5,
      "velocity": 0.63,
      "hand": "right"
    },
    {
      "midi": 59,
      "time": 9.5,
      "duration": 0.5,
      "velocity": 0.63,
      "hand": "left"
    },
    {
      "midi": 67,
      "time": 9.5,
      "duration": 0.25,
      "velocity": 0.63,
      "hand": "right"
    },
    {
      "midi": 69,
      "time": 9.75,
      "duration": 0.25,
      "velocity": 0.63,
      "hand": "right"
    },
    {
      "midi": 55,
      "time": 10,
      "duration": 0.5,
      "velocity": 0.63,
      "hand": "left"
    },
    {
      "midi": 71,
      "time": 10,
      "duration": 0.25,
      "velocity": 0.63,
      "hand": "right"
    },
    {
      "midi": 67,
      "time": 10.25,
      "duration": 0.25,
      "velocity": 0.63,
      "hand": "right"
    },
    {
      "midi": 62,
      "time": 10.5,
      "duration": 0.5,
      "velocity": 0.63,
      "hand": "right"
    },
    {
      "midi": 71,
      "time": 10.5,
      "duration": 0.5,
      "velocity": 0.63,
      "hand": "right"
    },
    {
      "midi": 50,
      "time": 11,
      "duration": 0.25,
      "velocity": 0.63,
      "hand": "left"
    },
    {
      "midi": 69,
      "time": 11,
      "duration": 1,
      "velocity": 0.63,
      "hand": "right"
    },
    {
      "midi": 60,
      "time": 11.25,
      "duration": 0.25,
      "velocity": 0.63,
      "hand": "right"
    },
    {
      "midi": 59,
      "time": 11.5,
      "duration": 0.25,
      "velocity": 0.63,
      "hand": "left"
    },
    {
      "midi": 57,
      "time": 11.75,
      "duration": 0.25,
      "velocity": 0.63,
      "hand": "left"
    },
    {
      "midi": 59,
      "time": 12,
      "duration": 1,
      "velocity": 0.63,
      "hand": "left"
    },
    {
      "midi": 74,
      "time": 12,
      "duration": 0.5,
      "velocity": 0.63,
      "hand": "right"
    },
    {
      "midi": 67,
      "time": 12.5,
      "duration": 0.25,
      "velocity": 0.63,
      "hand": "right"
    },
    {
      "midi": 69,
      "time": 12.75,
      "duration": 0.25,
      "velocity": 0.63,
      "hand": "right"
    },
    {
      "midi": 57,
      "time": 13,
      "duration": 0.5,
      "velocity": 0.63,
      "hand": "left"
    },
    {
      "midi": 71,
      "time": 13,
      "duration": 0.25,
      "velocity": 0.63,
      "hand": "right"
    },
    {
      "midi": 72,
      "time": 13.25,
      "duration": 0.25,
      "velocity": 0.63,
      "hand": "right"
    },
    {
      "midi": 55,
      "time": 13.5,
      "duration": 0.5,
      "velocity": 0.63,
      "hand": "left"
    },
    {
      "midi": 74,
      "time": 13.5,
      "duration": 0.5,
      "velocity": 0.63,
      "hand": "right"
    },
    {
      "midi": 59,
      "time": 14,
      "duration": 0.25,
      "velocity": 0.63,
      "hand": "left"
    },
    {
      "midi": 67,
      "time": 14,
      "duration": 0.25,
      "velocity": 0.63,
      "hand": "right"
    },
    {
      "midi": 55,
      "time": 14.5,
      "duration": 0.25,
      "velocity": 0.63,
      "hand": "left"
    },
    {
      "midi": 67,
      "time": 14.5,
      "duration": 0.25,
      "velocity": 0.63,
      "hand": "right"
    },
    {
      "midi": 60,
      "time": 15,
      "duration": 1.5,
      "velocity": 0.63,
      "hand": "right"
    },
    {
      "midi": 76,
      "time": 15,
      "duration": 0.5,
      "velocity": 0.63,
      "hand": "right"
    },
    {
      "midi": 72,
      "time": 15.5,
      "duration": 0.063,
      "velocity": 0.63,
      "hand": "right"
    },
    {
      "midi": 71,
      "time": 15.625,
      "duration": 0.063,
      "velocity": 0.63,
      "hand": "right"
    },
    {
      "midi": 72,
      "time": 15.625,
      "duration": 0.125,
      "velocity": 0.63,
      "hand": "right"
    },
    {
      "midi": 74,
      "time": 15.75,
      "duration": 0.25,
      "velocity": 0.63,
      "hand": "right"
    },
    {
      "midi": 76,
      "time": 16,
      "duration": 0.25,
      "velocity": 0.63,
      "hand": "right"
    },
    {
      "midi": 78,
      "time": 16.25,
      "duration": 0.25,
      "velocity": 0.63,
      "hand": "right"
    },
    {
      "midi": 59,
      "time": 16.5,
      "duration": 0.5,
      "velocity": 0.63,
      "hand": "left"
    },
    {
      "midi": 79,
      "time": 16.5,
      "duration": 0.5,
      "velocity": 0.63,
      "hand": "right"
    },
    {
      "midi": 60,
      "time": 17,
      "duration": 0.25,
      "velocity": 0.63,
      "hand": "right"
    },
    {
      "midi": 67,
      "time": 17,
      "duration": 0.25,
      "velocity": 0.63,
      "hand": "right"
    },
    {
      "midi": 59,
      "time": 17.25,
      "duration": 0.25,
      "velocity": 0.63,
      "hand": "left"
    },
    {
      "midi": 57,
      "time": 17.5,
      "duration": 0.25,
      "velocity": 0.63,
      "hand": "left"
    },
    {
      "midi": 67,
      "time": 17.5,
      "duration": 0.25,
      "velocity": 0.63,
      "hand": "right"
    },
    {
      "midi": 55,
      "time": 17.75,
      "duration": 0.25,
      "velocity": 0.63,
      "hand": "left"
    },
    {
      "midi": 57,
      "time": 18,
      "duration": 1,
      "velocity": 0.63,
      "hand": "left"
    },
    {
      "midi": 72,
      "time": 18,
      "duration": 0.063,
      "velocity": 0.63,
      "hand": "right"
    },
    {
      "midi": 71,
      "time": 18.125,
      "duration": 0.063,
      "velocity": 0.63,
      "hand": "right"
    },
    {
      "midi": 72,
      "time": 18.125,
      "duration": 0.375,
      "velocity": 0.63,
      "hand": "right"
    },
    {
      "midi": 74,
      "time": 18.5,
      "duration": 0.25,
      "velocity": 0.63,
      "hand": "right"
    },
    {
      "midi": 72,
      "time": 18.75,
      "duration": 0.25,
      "velocity": 0.63,
      "hand": "right"
    },
    {
      "midi": 54,
      "time": 19,
      "duration": 0.5,
      "velocity": 0.63,
      "hand": "left"
    },
    {
      "midi": 71,
      "time": 19,
      "duration": 0.25,
      "velocity": 0.63,
      "hand": "right"
    },
    {
      "midi": 69,
      "time": 19.25,
      "duration": 0.25,
      "velocity": 0.63,
      "hand": "right"
    },
    {
      "midi": 55,
      "time": 19.5,
      "duration": 1,
      "velocity": 0.63,
      "hand": "left"
    },
    {
      "midi": 71,
      "time": 19.5,
      "duration": 0.5,
      "velocity": 0.63,
      "hand": "right"
    },
    {
      "midi": 72,
      "time": 20,
      "duration": 0.25,
      "velocity": 0.63,
      "hand": "right"
    },
    {
      "midi": 71,
      "time": 20.25,
      "duration": 0.25,
      "velocity": 0.63,
      "hand": "right"
    },
    {
      "midi": 59,
      "time": 20.5,
      "duration": 0.5,
      "velocity": 0.63,
      "hand": "left"
    },
    {
      "midi": 69,
      "time": 20.5,
      "duration": 0.25,
      "velocity": 0.63,
      "hand": "right"
    },
    {
      "midi": 67,
      "time": 20.75,
      "duration": 0.25,
      "velocity": 0.63,
      "hand": "right"
    },
    {
      "midi": 60,
      "time": 21,
      "duration": 0.5,
      "velocity": 0.63,
      "hand": "right"
    },
    {
      "midi": 69,
      "time": 21,
      "duration": 0.5,
      "velocity": 0.63,
      "hand": "right"
    },
    {
      "midi": 62,
      "time": 21.5,
      "duration": 0.5,
      "velocity": 0.63,
      "hand": "right"
    },
    {
      "midi": 71,
      "time": 21.5,
      "duration": 0.25,
      "velocity": 0.63,
      "hand": "right"
    },
    {
      "midi": 69,
      "time": 21.75,
      "duration": 0.25,
      "velocity": 0.63,
      "hand": "right"
    },
    {
      "midi": 50,
      "time": 22,
      "duration": 0.5,
      "velocity": 0.63,
      "hand": "left"
    },
    {
      "midi": 67,
      "time": 22,
      "duration": 0.25,
      "velocity": 0.63,
      "hand": "right"
    },
    {
      "midi": 66,
      "time": 22.25,
      "duration": 0.25,
      "velocity": 0.63,
      "hand": "right"
    },
    {
      "midi": 55,
      "time": 22.5,
      "duration": 1,
      "velocity": 0.63,
      "hand": "left"
    },
    {
      "midi": 67,
      "time": 22.5,
      "duration": 1.5,
      "velocity": 0.63,
      "hand": "right"
    },
    {
      "midi": 43,
      "time": 23.5,
      "duration": 0.5,
      "velocity": 0.63,
      "hand": "left"
    },
    {
      "midi": 55,
      "time": 24,
      "duration": 1,
      "velocity": 0.63,
      "hand": "left"
    },
    {
      "midi": 59,
      "time": 24,
      "duration": 1,
      "velocity": 0.63,
      "hand": "left"
    },
    {
      "midi": 62,
      "time": 24,
      "duration": 1,
      "velocity": 0.63,
      "hand": "right"
    },
    {
      "midi": 74,
      "time": 24,
      "duration": 0.5,
      "velocity": 0.63,
      "hand": "right"
    },
    {
      "midi": 67,
      "time": 24.5,
      "duration": 0.25,
      "velocity": 0.63,
      "hand": "right"
    },
    {
      "midi": 69,
      "time": 24.75,
      "duration": 0.25,
      "velocity": 0.63,
      "hand": "right"
    },
    {
      "midi": 57,
      "time": 25,
      "duration": 0.5,
      "velocity": 0.63,
      "hand": "left"
    },
    {
      "midi": 71,
      "time": 25,
      "duration": 0.25,
      "velocity": 0.63,
      "hand": "right"
    },
    {
      "midi": 72,
      "time": 25.25,
      "duration": 0.25,
      "velocity": 0.63,
      "hand": "right"
    },
    {
      "midi": 59,
      "time": 25.5,
      "duration": 1.5,
      "velocity": 0.63,
      "hand": "left"
    },
    {
      "midi": 74,
      "time": 25.5,
      "duration": 0.5,
      "velocity": 0.63,
      "hand": "right"
    },
    {
      "midi": 67,
      "time": 26,
      "duration": 0.25,
      "velocity": 0.63,
      "hand": "right"
    },
    {
      "midi": 67,
      "time": 26.5,
      "duration": 0.25,
      "velocity": 0.63,
      "hand": "right"
    },
    {
      "midi": 60,
      "time": 27,
      "duration": 1.5,
      "velocity": 0.63,
      "hand": "right"
    },
    {
      "midi": 76,
      "time": 27,
      "duration": 0.5,
      "velocity": 0.63,
      "hand": "right"
    },
    {
      "midi": 72,
      "time": 27.5,
      "duration": 0.063,
      "velocity": 0.63,
      "hand": "right"
    },
    {
      "midi": 71,
      "time": 27.625,
      "duration": 0.063,
      "velocity": 0.63,
      "hand": "right"
    },
    {
      "midi": 72,
      "time": 27.625,
      "duration": 0.125,
      "velocity": 0.63,
      "hand": "right"
    },
    {
      "midi": 74,
      "time": 27.75,
      "duration": 0.25,
      "velocity": 0.63,
      "hand": "right"
    },
    {
      "midi": 76,
      "time": 28,
      "duration": 0.25,
      "velocity": 0.63,
      "hand": "right"
    },
    {
      "midi": 78,
      "time": 28.25,
      "duration": 0.25,
      "velocity": 0.63,
      "hand": "right"
    },
    {
      "midi": 59,
      "time": 28.5,
      "duration": 1.5,
      "velocity": 0.63,
      "hand": "left"
    },
    {
      "midi": 79,
      "time": 28.5,
      "duration": 0.5,
      "velocity": 0.63,
      "hand": "right"
    },
    {
      "midi": 67,
      "time": 29,
      "duration": 0.25,
      "velocity": 0.63,
      "hand": "right"
    },
    {
      "midi": 67,
      "time": 29.5,
      "duration": 0.25,
      "velocity": 0.63,
      "hand": "right"
    },
    {
      "midi": 57,
      "time": 30,
      "duration": 1.5,
      "velocity": 0.63,
      "hand": "left"
    },
    {
      "midi": 72,
      "time": 30,
      "duration": 0.063,
      "velocity": 0.63,
      "hand": "right"
    },
    {
      "midi": 71,
      "time": 30.125,
      "duration": 0.063,
      "velocity": 0.63,
      "hand": "right"
    },
    {
      "midi": 72,
      "time": 30.125,
      "duration": 0.375,
      "velocity": 0.63,
      "hand": "right"
    },
    {
      "midi": 74,
      "time": 30.5,
      "duration": 0.25,
      "velocity": 0.63,
      "hand": "right"
    },
    {
      "midi": 72,
      "time": 30.75,
      "duration": 0.25,
      "velocity": 0.63,
      "hand": "right"
    },
    {
      "midi": 71,
      "time": 31,
      "duration": 0.25,
      "velocity": 0.63,
      "hand": "right"
    },
    {
      "midi": 69,
      "time": 31.25,
      "duration": 0.25,
      "velocity": 0.63,
      "hand": "right"
    },
    {
      "midi": 55,
      "time": 31.5,
      "duration": 1.5,
      "velocity": 0.63,
      "hand": "left"
    },
    {
      "midi": 71,
      "time": 31.5,
      "duration": 0.5,
      "velocity": 0.63,
      "hand": "right"
    },
    {
      "midi": 72,
      "time": 32,
      "duration": 0.25,
      "velocity": 0.63,
      "hand": "right"
    },
    {
      "midi": 71,
      "time": 32.25,
      "duration": 0.25,
      "velocity": 0.63,
      "hand": "right"
    },
    {
      "midi": 69,
      "time": 32.5,
      "duration": 0.25,
      "velocity": 0.63,
      "hand": "right"
    },
    {
      "midi": 67,
      "time": 32.75,
      "duration": 0.25,
      "velocity": 0.63,
      "hand": "right"
    },
    {
      "midi": 62,
      "time": 33,
      "duration": 0.5,
      "velocity": 0.63,
      "hand": "right"
    },
    {
      "midi": 66,
      "time": 33,
      "duration": 0.5,
      "velocity": 0.63,
      "hand": "right"
    },
    {
      "midi": 59,
      "time": 33.5,
      "duration": 0.5,
      "velocity": 0.63,
      "hand": "left"
    },
    {
      "midi": 67,
      "time": 33.5,
      "duration": 0.25,
      "velocity": 0.63,
      "hand": "right"
    },
    {
      "midi": 69,
      "time": 33.75,
      "duration": 0.25,
      "velocity": 0.63,
      "hand": "right"
    },
    {
      "midi": 55,
      "time": 34,
      "duration": 0.5,
      "velocity": 0.63,
      "hand": "left"
    },
    {
      "midi": 71,
      "time": 34,
      "duration": 0.25,
      "velocity": 0.63,
      "hand": "right"
    },
    {
      "midi": 67,
      "time": 34.25,
      "duration": 0.25,
      "velocity": 0.63,
      "hand": "right"
    },
    {
      "midi": 62,
      "time": 34.5,
      "duration": 0.5,
      "velocity": 0.63,
      "hand": "right"
    },
    {
      "midi": 71,
      "time": 34.5,
      "duration": 0.5,
      "velocity": 0.63,
      "hand": "right"
    },
    {
      "midi": 50,
      "time": 35,
      "duration": 0.25,
      "velocity": 0.63,
      "hand": "left"
    },
    {
      "midi": 69,
      "time": 35,
      "duration": 1,
      "velocity": 0.63,
      "hand": "right"
    },
    {
      "midi": 60,
      "time": 35.25,
      "duration": 0.25,
      "velocity": 0.63,
      "hand": "right"
    },
    {
      "midi": 59,
      "time": 35.5,
      "duration": 0.25,
      "velocity": 0.63,
      "hand": "left"
    },
    {
      "midi": 57,
      "time": 35.75,
      "duration": 0.25,
      "velocity": 0.63,
      "hand": "left"
    },
    {
      "midi": 59,
      "time": 36,
      "duration": 1,
      "velocity": 0.63,
      "hand": "left"
    },
    {
      "midi": 74,
      "time": 36,
      "duration": 0.5,
      "velocity": 0.63,
      "hand": "right"
    },
    {
      "midi": 67,
      "time": 36.5,
      "duration": 0.25,
      "velocity": 0.63,
      "hand": "right"
    },
    {
      "midi": 69,
      "time": 36.75,
      "duration": 0.25,
      "velocity": 0.63,
      "hand": "right"
    },
    {
      "midi": 57,
      "time": 37,
      "duration": 0.5,
      "velocity": 0.63,
      "hand": "left"
    },
    {
      "midi": 71,
      "time": 37,
      "duration": 0.25,
      "velocity": 0.63,
      "hand": "right"
    },
    {
      "midi": 72,
      "time": 37.25,
      "duration": 0.25,
      "velocity": 0.63,
      "hand": "right"
    },
    {
      "midi": 55,
      "time": 37.5,
      "duration": 0.5,
      "velocity": 0.63,
      "hand": "left"
    },
    {
      "midi": 74,
      "time": 37.5,
      "duration": 0.5,
      "velocity": 0.63,
      "hand": "right"
    },
    {
      "midi": 59,
      "time": 38,
      "duration": 0.25,
      "velocity": 0.63,
      "hand": "left"
    },
    {
      "midi": 67,
      "time": 38,
      "duration": 0.25,
      "velocity": 0.63,
      "hand": "right"
    },
    {
      "midi": 55,
      "time": 38.5,
      "duration": 0.25,
      "velocity": 0.63,
      "hand": "left"
    },
    {
      "midi": 67,
      "time": 38.5,
      "duration": 0.25,
      "velocity": 0.63,
      "hand": "right"
    },
    {
      "midi": 60,
      "time": 39,
      "duration": 1.5,
      "velocity": 0.63,
      "hand": "right"
    },
    {
      "midi": 76,
      "time": 39,
      "duration": 0.5,
      "velocity": 0.63,
      "hand": "right"
    },
    {
      "midi": 72,
      "time": 39.5,
      "duration": 0.063,
      "velocity": 0.63,
      "hand": "right"
    },
    {
      "midi": 71,
      "time": 39.625,
      "duration": 0.063,
      "velocity": 0.63,
      "hand": "right"
    },
    {
      "midi": 72,
      "time": 39.625,
      "duration": 0.125,
      "velocity": 0.63,
      "hand": "right"
    },
    {
      "midi": 74,
      "time": 39.75,
      "duration": 0.25,
      "velocity": 0.63,
      "hand": "right"
    },
    {
      "midi": 76,
      "time": 40,
      "duration": 0.25,
      "velocity": 0.63,
      "hand": "right"
    },
    {
      "midi": 78,
      "time": 40.25,
      "duration": 0.25,
      "velocity": 0.63,
      "hand": "right"
    },
    {
      "midi": 59,
      "time": 40.5,
      "duration": 0.5,
      "velocity": 0.63,
      "hand": "left"
    },
    {
      "midi": 79,
      "time": 40.5,
      "duration": 0.5,
      "velocity": 0.63,
      "hand": "right"
    },
    {
      "midi": 60,
      "time": 41,
      "duration": 0.25,
      "velocity": 0.63,
      "hand": "right"
    },
    {
      "midi": 67,
      "time": 41,
      "duration": 0.25,
      "velocity": 0.63,
      "hand": "right"
    },
    {
      "midi": 59,
      "time": 41.25,
      "duration": 0.25,
      "velocity": 0.63,
      "hand": "left"
    },
    {
      "midi": 57,
      "time": 41.5,
      "duration": 0.25,
      "velocity": 0.63,
      "hand": "left"
    },
    {
      "midi": 67,
      "time": 41.5,
      "duration": 0.25,
      "velocity": 0.63,
      "hand": "right"
    },
    {
      "midi": 55,
      "time": 41.75,
      "duration": 0.25,
      "velocity": 0.63,
      "hand": "left"
    },
    {
      "midi": 57,
      "time": 42,
      "duration": 1,
      "velocity": 0.63,
      "hand": "left"
    },
    {
      "midi": 72,
      "time": 42,
      "duration": 0.063,
      "velocity": 0.63,
      "hand": "right"
    },
    {
      "midi": 71,
      "time": 42.125,
      "duration": 0.063,
      "velocity": 0.63,
      "hand": "right"
    },
    {
      "midi": 72,
      "time": 42.125,
      "duration": 0.375,
      "velocity": 0.63,
      "hand": "right"
    },
    {
      "midi": 74,
      "time": 42.5,
      "duration": 0.25,
      "velocity": 0.63,
      "hand": "right"
    },
    {
      "midi": 72,
      "time": 42.75,
      "duration": 0.25,
      "velocity": 0.63,
      "hand": "right"
    },
    {
      "midi": 54,
      "time": 43,
      "duration": 0.5,
      "velocity": 0.63,
      "hand": "left"
    },
    {
      "midi": 71,
      "time": 43,
      "duration": 0.25,
      "velocity": 0.63,
      "hand": "right"
    },
    {
      "midi": 69,
      "time": 43.25,
      "duration": 0.25,
      "velocity": 0.63,
      "hand": "right"
    },
    {
      "midi": 55,
      "time": 43.5,
      "duration": 1,
      "velocity": 0.63,
      "hand": "left"
    },
    {
      "midi": 71,
      "time": 43.5,
      "duration": 0.5,
      "velocity": 0.63,
      "hand": "right"
    },
    {
      "midi": 72,
      "time": 44,
      "duration": 0.25,
      "velocity": 0.63,
      "hand": "right"
    },
    {
      "midi": 71,
      "time": 44.25,
      "duration": 0.25,
      "velocity": 0.63,
      "hand": "right"
    },
    {
      "midi": 59,
      "time": 44.5,
      "duration": 0.5,
      "velocity": 0.63,
      "hand": "left"
    },
    {
      "midi": 69,
      "time": 44.5,
      "duration": 0.25,
      "velocity": 0.63,
      "hand": "right"
    },
    {
      "midi": 67,
      "time": 44.75,
      "duration": 0.25,
      "velocity": 0.63,
      "hand": "right"
    },
    {
      "midi": 60,
      "time": 45,
      "duration": 0.5,
      "velocity": 0.63,
      "hand": "right"
    },
    {
      "midi": 69,
      "time": 45,
      "duration": 0.5,
      "velocity": 0.63,
      "hand": "right"
    },
    {
      "midi": 62,
      "time": 45.5,
      "duration": 0.5,
      "velocity": 0.63,
      "hand": "right"
    },
    {
      "midi": 71,
      "time": 45.5,
      "duration": 0.25,
      "velocity": 0.63,
      "hand": "right"
    },
    {
      "midi": 69,
      "time": 45.75,
      "duration": 0.25,
      "velocity": 0.63,
      "hand": "right"
    },
    {
      "midi": 50,
      "time": 46,
      "duration": 0.5,
      "velocity": 0.63,
      "hand": "left"
    },
    {
      "midi": 67,
      "time": 46,
      "duration": 0.25,
      "velocity": 0.63,
      "hand": "right"
    },
    {
      "midi": 66,
      "time": 46.25,
      "duration": 0.25,
      "velocity": 0.63,
      "hand": "right"
    },
    {
      "midi": 55,
      "time": 46.5,
      "duration": 1,
      "velocity": 0.63,
      "hand": "left"
    },
    {
      "midi": 67,
      "time": 46.5,
      "duration": 1.5,
      "velocity": 0.63,
      "hand": "right"
    },
    {
      "midi": 43,
      "time": 47.5,
      "duration": 0.5,
      "velocity": 0.63,
      "hand": "left"
    },
    {
      "midi": 55,
      "time": 48,
      "duration": 1.5,
      "velocity": 0.63,
      "hand": "left"
    },
    {
      "midi": 83,
      "time": 48,
      "duration": 0.5,
      "velocity": 0.63,
      "hand": "right"
    },
    {
      "midi": 79,
      "time": 48.5,
      "duration": 0.25,
      "velocity": 0.63,
      "hand": "right"
    },
    {
      "midi": 81,
      "time": 48.75,
      "duration": 0.25,
      "velocity": 0.63,
      "hand": "right"
    },
    {
      "midi": 83,
      "time": 49,
      "duration": 0.25,
      "velocity": 0.63,
      "hand": "right"
    },
    {
      "midi": 79,
      "time": 49.25,
      "duration": 0.25,
      "velocity": 0.63,
      "hand": "right"
    },
    {
      "midi": 54,
      "time": 49.5,
      "duration": 1.5,
      "velocity": 0.63,
      "hand": "left"
    },
    {
      "midi": 81,
      "time": 49.5,
      "duration": 0.5,
      "velocity": 0.63,
      "hand": "right"
    },
    {
      "midi": 74,
      "time": 50,
      "duration": 0.25,
      "velocity": 0.63,
      "hand": "right"
    },
    {
      "midi": 76,
      "time": 50.25,
      "duration": 0.25,
      "velocity": 0.63,
      "hand": "right"
    },
    {
      "midi": 78,
      "time": 50.5,
      "duration": 0.25,
      "velocity": 0.63,
      "hand": "right"
    },
    {
      "midi": 74,
      "time": 50.75,
      "duration": 0.25,
      "velocity": 0.63,
      "hand": "right"
    },
    {
      "midi": 52,
      "time": 51,
      "duration": 0.5,
      "velocity": 0.63,
      "hand": "left"
    },
    {
      "midi": 79,
      "time": 51,
      "duration": 0.5,
      "velocity": 0.63,
      "hand": "right"
    },
    {
      "midi": 55,
      "time": 51.5,
      "duration": 0.5,
      "velocity": 0.63,
      "hand": "left"
    },
    {
      "midi": 76,
      "time": 51.5,
      "duration": 0.25,
      "velocity": 0.63,
      "hand": "right"
    },
    {
      "midi": 78,
      "time": 51.75,
      "duration": 0.25,
      "velocity": 0.63,
      "hand": "right"
    },
    {
      "midi": 52,
      "time": 52,
      "duration": 0.5,
      "velocity": 0.63,
      "hand": "left"
    },
    {
      "midi": 79,
      "time": 52,
      "duration": 0.25,
      "velocity": 0.63,
      "hand": "right"
    },
    {
      "midi": 74,
      "time": 52.25,
      "duration": 0.25,
      "velocity": 0.63,
      "hand": "right"
    },
    {
      "midi": 57,
      "time": 52.5,
      "duration": 1,
      "velocity": 0.63,
      "hand": "left"
    },
    {
      "midi": 73,
      "time": 52.5,
      "duration": 0.5,
      "velocity": 0.63,
      "hand": "right"
    },
    {
      "midi": 71,
      "time": 53,
      "duration": 0.25,
      "velocity": 0.63,
      "hand": "right"
    },
    {
      "midi": 73,
      "time": 53.25,
      "duration": 0.25,
      "velocity": 0.63,
      "hand": "right"
    },
    {
      "midi": 45,
      "time": 53.5,
      "duration": 0.5,
      "velocity": 0.63,
      "hand": "left"
    },
    {
      "midi": 69,
      "time": 53.5,
      "duration": 0.5,
      "velocity": 0.63,
      "hand": "right"
    },
    {
      "midi": 57,
      "time": 54,
      "duration": 1.5,
      "velocity": 0.63,
      "hand": "left"
    },
    {
      "midi": 69,
      "time": 54,
      "duration": 0.25,
      "velocity": 0.63,
      "hand": "right"
    },
    {
      "midi": 71,
      "time": 54.25,
      "duration": 0.25,
      "velocity": 0.63,
      "hand": "right"
    },
    {
      "midi": 73,
      "time": 54.5,
      "duration": 0.25,
      "velocity": 0.63,
      "hand": "right"
    },
    {
      "midi": 74,
      "time": 54.75,
      "duration": 0.25,
      "velocity": 0.63,
      "hand": "right"
    },
    {
      "midi": 76,
      "time": 55,
      "duration": 0.25,
      "velocity": 0.63,
      "hand": "right"
    },
    {
      "midi": 78,
      "time": 55.25,
      "duration": 0.25,
      "velocity": 0.63,
      "hand": "right"
    },
    {
      "midi": 59,
      "time": 55.5,
      "duration": 0.5,
      "velocity": 0.63,
      "hand": "left"
    },
    {
      "midi": 79,
      "time": 55.5,
      "duration": 0.5,
      "velocity": 0.63,
      "hand": "right"
    },
    {
      "midi": 62,
      "time": 56,
      "duration": 0.5,
      "velocity": 0.63,
      "hand": "right"
    },
    {
      "midi": 78,
      "time": 56,
      "duration": 0.5,
      "velocity": 0.63,
      "hand": "right"
    },
    {
      "midi": 61,
      "time": 56.5,
      "duration": 0.5,
      "velocity": 0.63,
      "hand": "right"
    },
    {
      "midi": 76,
      "time": 56.5,
      "duration": 0.5,
      "velocity": 0.63,
      "hand": "right"
    },
    {
      "midi": 62,
      "time": 57,
      "duration": 0.5,
      "velocity": 0.63,
      "hand": "right"
    },
    {
      "midi": 78,
      "time": 57,
      "duration": 0.5,
      "velocity": 0.63,
      "hand": "right"
    },
    {
      "midi": 54,
      "time": 57.5,
      "duration": 0.5,
      "velocity": 0.63,
      "hand": "left"
    },
    {
      "midi": 69,
      "time": 57.5,
      "duration": 0.5,
      "velocity": 0.63,
      "hand": "right"
    },
    {
      "midi": 57,
      "time": 58,
      "duration": 0.5,
      "velocity": 0.63,
      "hand": "left"
    },
    {
      "midi": 73,
      "time": 58,
      "duration": 0.5,
      "velocity": 0.63,
      "hand": "right"
    },
    {
      "midi": 62,
      "time": 58.5,
      "duration": 0.5,
      "velocity": 0.63,
      "hand": "right"
    },
    {
      "midi": 74,
      "time": 58.5,
      "duration": 1.5,
      "velocity": 0.63,
      "hand": "right"
    },
    {
      "midi": 50,
      "time": 59,
      "duration": 0.5,
      "velocity": 0.63,
      "hand": "left"
    },
    {
      "midi": 60,
      "time": 59.5,
      "duration": 0.5,
      "velocity": 0.63,
      "hand": "right"
    },
    {
      "midi": 59,
      "time": 60,
      "duration": 1,
      "velocity": 0.63,
      "hand": "left"
    },
    {
      "midi": 74,
      "time": 60,
      "duration": 0.5,
      "velocity": 0.63,
      "hand": "right"
    },
    {
      "midi": 62,
      "time": 60.5,
      "duration": 1,
      "velocity": 0.63,
      "hand": "right"
    },
    {
      "midi": 67,
      "time": 60.5,
      "duration": 0.25,
      "velocity": 0.63,
      "hand": "right"
    },
    {
      "midi": 66,
      "time": 60.75,
      "duration": 0.25,
      "velocity": 0.63,
      "hand": "right"
    },
    {
      "midi": 59,
      "time": 61,
      "duration": 0.5,
      "velocity": 0.63,
      "hand": "left"
    },
    {
      "midi": 67,
      "time": 61,
      "duration": 0.5,
      "velocity": 0.63,
      "hand": "right"
    },
    {
      "midi": 60,
      "time": 61.5,
      "duration": 1,
      "velocity": 0.63,
      "hand": "right"
    },
    {
      "midi": 76,
      "time": 61.5,
      "duration": 0.5,
      "velocity": 0.63,
      "hand": "right"
    },
    {
      "midi": 64,
      "time": 62,
      "duration": 1,
      "velocity": 0.63,
      "hand": "right"
    },
    {
      "midi": 67,
      "time": 62,
      "duration": 0.25,
      "velocity": 0.63,
      "hand": "right"
    },
    {
      "midi": 66,
      "time": 62.25,
      "duration": 0.25,
      "velocity": 0.63,
      "hand": "right"
    },
    {
      "midi": 60,
      "time": 62.5,
      "duration": 0.5,
      "velocity": 0.63,
      "hand": "right"
    },
    {
      "midi": 67,
      "time": 62.5,
      "duration": 0.5,
      "velocity": 0.63,
      "hand": "right"
    },
    {
      "midi": 59,
      "time": 63,
      "duration": 0.5,
      "velocity": 0.63,
      "hand": "left"
    },
    {
      "midi": 74,
      "time": 63,
      "duration": 0.5,
      "velocity": 0.63,
      "hand": "right"
    },
    {
      "midi": 57,
      "time": 63.5,
      "duration": 0.5,
      "velocity": 0.63,
      "hand": "left"
    },
    {
      "midi": 72,
      "time": 63.5,
      "duration": 0.5,
      "velocity": 0.63,
      "hand": "right"
    },
    {
      "midi": 55,
      "time": 64,
      "duration": 0.5,
      "velocity": 0.63,
      "hand": "left"
    },
    {
      "midi": 71,
      "time": 64,
      "duration": 0.5,
      "velocity": 0.63,
      "hand": "right"
    },
    {
      "midi": 62,
      "time": 64.5,
      "duration": 1,
      "velocity": 0.63,
      "hand": "right"
    },
    {
      "midi": 69,
      "time": 64.5,
      "duration": 0.25,
      "velocity": 0.63,
      "hand": "right"
    },
    {
      "midi": 67,
      "time": 64.75,
      "duration": 0.25,
      "velocity": 0.63,
      "hand": "right"
    },
    {
      "midi": 66,
      "time": 65,
      "duration": 0.25,
      "velocity": 0.63,
      "hand": "right"
    },
    {
      "midi": 67,
      "time": 65.25,
      "duration": 0.25,
      "velocity": 0.63,
      "hand": "right"
    },
    {
      "midi": 69,
      "time": 65.5,
      "duration": 0.5,
      "velocity": 0.63,
      "hand": "right"
    },
    {
      "midi": 50,
      "time": 66,
      "duration": 1.5,
      "velocity": 0.63,
      "hand": "left"
    },
    {
      "midi": 62,
      "time": 66,
      "duration": 0.25,
      "velocity": 0.63,
      "hand": "right"
    },
    {
      "midi": 64,
      "time": 66.25,
      "duration": 0.25,
      "velocity": 0.63,
      "hand": "right"
    },
    {
      "midi": 66,
      "time": 66.5,
      "duration": 0.25,
      "velocity": 0.63,
      "hand": "right"
    },
    {
      "midi": 67,
      "time": 66.75,
      "duration": 0.25,
      "velocity": 0.63,
      "hand": "right"
    },
    {
      "midi": 54,
      "time": 67,
      "duration": 0.5,
      "velocity": 0.63,
      "hand": "left"
    },
    {
      "midi": 69,
      "time": 67,
      "duration": 0.25,
      "velocity": 0.63,
      "hand": "right"
    },
    {
      "midi": 71,
      "time": 67.25,
      "duration": 0.25,
      "velocity": 0.63,
      "hand": "right"
    },
    {
      "midi": 52,
      "time": 67.5,
      "duration": 0.5,
      "velocity": 0.63,
      "hand": "left"
    },
    {
      "midi": 72,
      "time": 67.5,
      "duration": 0.5,
      "velocity": 0.63,
      "hand": "right"
    },
    {
      "midi": 55,
      "time": 68,
      "duration": 0.5,
      "velocity": 0.63,
      "hand": "left"
    },
    {
      "midi": 72,
      "time": 68,
      "duration": 0.063,
      "velocity": 0.63,
      "hand": "right"
    },
    {
      "midi": 71,
      "time": 68.125,
      "duration": 0.063,
      "velocity": 0.63,
      "hand": "right"
    },
    {
      "midi": 72,
      "time": 68.125,
      "duration": 0.063,
      "velocity": 0.63,
      "hand": "right"
    },
    {
      "midi": 71,
      "time": 68.25,
      "duration": 0.25,
      "velocity": 0.63,
      "hand": "right"
    },
    {
      "midi": 54,
      "time": 68.5,
      "duration": 0.5,
      "velocity": 0.63,
      "hand": "left"
    },
    {
      "midi": 69,
      "time": 68.5,
      "duration": 0.5,
      "velocity": 0.63,
      "hand": "right"
    },
    {
      "midi": 55,
      "time": 69,
      "duration": 0.5,
      "velocity": 0.63,
      "hand": "left"
    },
    {
      "midi": 71,
      "time": 69,
      "duration": 0.25,
      "velocity": 0.63,
      "hand": "right"
    },
    {
      "midi": 74,
      "time": 69.25,
      "duration": 0.25,
      "velocity": 0.63,
      "hand": "right"
    },
    {
      "midi": 47,
      "time": 69.5,
      "duration": 0.5,
      "velocity": 0.63,
      "hand": "left"
    },
    {
      "midi": 67,
      "time": 69.5,
      "duration": 0.5,
      "velocity": 0.63,
      "hand": "right"
    },
    {
      "midi": 50,
      "time": 70,
      "duration": 0.5,
      "velocity": 0.63,
      "hand": "left"
    },
    {
      "midi": 66,
      "time": 70,
      "duration": 0.5,
      "velocity": 0.63,
      "hand": "right"
    },
    {
      "midi": 55,
      "time": 70.5,
      "duration": 0.5,
      "velocity": 0.63,
      "hand": "left"
    },
    {
      "midi": 59,
      "time": 70.5,
      "duration": 1.5,
      "velocity": 0.63,
      "hand": "left"
    },
    {
      "midi": 62,
      "time": 70.5,
      "duration": 1.5,
      "velocity": 0.63,
      "hand": "right"
    },
    {
      "midi": 67,
      "time": 70.5,
      "duration": 1.5,
      "velocity": 0.63,
      "hand": "right"
    },
    {
      "midi": 50,
      "time": 71,
      "duration": 0.5,
      "velocity": 0.63,
      "hand": "left"
    },
    {
      "midi": 43,
      "time": 71.5,
      "duration": 0.5,
      "velocity": 0.63,
      "hand": "left"
    },
    {
      "midi": 55,
      "time": 72,
      "duration": 1.5,
      "velocity": 0.63,
      "hand": "left"
    },
    {
      "midi": 83,
      "time": 72,
      "duration": 0.5,
      "velocity": 0.63,
      "hand": "right"
    },
    {
      "midi": 79,
      "time": 72.5,
      "duration": 0.25,
      "velocity": 0.63,
      "hand": "right"
    },
    {
      "midi": 81,
      "time": 72.75,
      "duration": 0.25,
      "velocity": 0.63,
      "hand": "right"
    },
    {
      "midi": 83,
      "time": 73,
      "duration": 0.25,
      "velocity": 0.63,
      "hand": "right"
    },
    {
      "midi": 79,
      "time": 73.25,
      "duration": 0.25,
      "velocity": 0.63,
      "hand": "right"
    },
    {
      "midi": 54,
      "time": 73.5,
      "duration": 1.5,
      "velocity": 0.63,
      "hand": "left"
    },
    {
      "midi": 81,
      "time": 73.5,
      "duration": 0.5,
      "velocity": 0.63,
      "hand": "right"
    },
    {
      "midi": 74,
      "time": 74,
      "duration": 0.25,
      "velocity": 0.63,
      "hand": "right"
    },
    {
      "midi": 76,
      "time": 74.25,
      "duration": 0.25,
      "velocity": 0.63,
      "hand": "right"
    },
    {
      "midi": 78,
      "time": 74.5,
      "duration": 0.25,
      "velocity": 0.63,
      "hand": "right"
    },
    {
      "midi": 74,
      "time": 74.75,
      "duration": 0.25,
      "velocity": 0.63,
      "hand": "right"
    },
    {
      "midi": 52,
      "time": 75,
      "duration": 0.5,
      "velocity": 0.63,
      "hand": "left"
    },
    {
      "midi": 79,
      "time": 75,
      "duration": 0.5,
      "velocity": 0.63,
      "hand": "right"
    },
    {
      "midi": 55,
      "time": 75.5,
      "duration": 0.5,
      "velocity": 0.63,
      "hand": "left"
    },
    {
      "midi": 76,
      "time": 75.5,
      "duration": 0.25,
      "velocity": 0.63,
      "hand": "right"
    },
    {
      "midi": 78,
      "time": 75.75,
      "duration": 0.25,
      "velocity": 0.63,
      "hand": "right"
    },
    {
      "midi": 52,
      "time": 76,
      "duration": 0.5,
      "velocity": 0.63,
      "hand": "left"
    },
    {
      "midi": 79,
      "time": 76,
      "duration": 0.25,
      "velocity": 0.63,
      "hand": "right"
    },
    {
      "midi": 74,
      "time": 76.25,
      "duration": 0.25,
      "velocity": 0.63,
      "hand": "right"
    },
    {
      "midi": 57,
      "time": 76.5,
      "duration": 1,
      "velocity": 0.63,
      "hand": "left"
    },
    {
      "midi": 73,
      "time": 76.5,
      "duration": 0.5,
      "velocity": 0.63,
      "hand": "right"
    },
    {
      "midi": 71,
      "time": 77,
      "duration": 0.25,
      "velocity": 0.63,
      "hand": "right"
    },
    {
      "midi": 73,
      "time": 77.25,
      "duration": 0.25,
      "velocity": 0.63,
      "hand": "right"
    },
    {
      "midi": 45,
      "time": 77.5,
      "duration": 0.5,
      "velocity": 0.63,
      "hand": "left"
    },
    {
      "midi": 69,
      "time": 77.5,
      "duration": 0.5,
      "velocity": 0.63,
      "hand": "right"
    },
    {
      "midi": 57,
      "time": 78,
      "duration": 1.5,
      "velocity": 0.63,
      "hand": "left"
    },
    {
      "midi": 69,
      "time": 78,
      "duration": 0.25,
      "velocity": 0.63,
      "hand": "right"
    },
    {
      "midi": 71,
      "time": 78.25,
      "duration": 0.25,
      "velocity": 0.63,
      "hand": "right"
    },
    {
      "midi": 73,
      "time": 78.5,
      "duration": 0.25,
      "velocity": 0.63,
      "hand": "right"
    },
    {
      "midi": 74,
      "time": 78.75,
      "duration": 0.25,
      "velocity": 0.63,
      "hand": "right"
    },
    {
      "midi": 76,
      "time": 79,
      "duration": 0.25,
      "velocity": 0.63,
      "hand": "right"
    },
    {
      "midi": 78,
      "time": 79.25,
      "duration": 0.25,
      "velocity": 0.63,
      "hand": "right"
    },
    {
      "midi": 59,
      "time": 79.5,
      "duration": 0.5,
      "velocity": 0.63,
      "hand": "left"
    },
    {
      "midi": 79,
      "time": 79.5,
      "duration": 0.5,
      "velocity": 0.63,
      "hand": "right"
    },
    {
      "midi": 62,
      "time": 80,
      "duration": 0.5,
      "velocity": 0.63,
      "hand": "right"
    },
    {
      "midi": 78,
      "time": 80,
      "duration": 0.5,
      "velocity": 0.63,
      "hand": "right"
    },
    {
      "midi": 61,
      "time": 80.5,
      "duration": 0.5,
      "velocity": 0.63,
      "hand": "right"
    },
    {
      "midi": 76,
      "time": 80.5,
      "duration": 0.5,
      "velocity": 0.63,
      "hand": "right"
    },
    {
      "midi": 62,
      "time": 81,
      "duration": 0.5,
      "velocity": 0.63,
      "hand": "right"
    },
    {
      "midi": 78,
      "time": 81,
      "duration": 0.5,
      "velocity": 0.63,
      "hand": "right"
    },
    {
      "midi": 54,
      "time": 81.5,
      "duration": 0.5,
      "velocity": 0.63,
      "hand": "left"
    },
    {
      "midi": 69,
      "time": 81.5,
      "duration": 0.5,
      "velocity": 0.63,
      "hand": "right"
    },
    {
      "midi": 57,
      "time": 82,
      "duration": 0.5,
      "velocity": 0.63,
      "hand": "left"
    },
    {
      "midi": 73,
      "time": 82,
      "duration": 0.5,
      "velocity": 0.63,
      "hand": "right"
    },
    {
      "midi": 62,
      "time": 82.5,
      "duration": 0.5,
      "velocity": 0.63,
      "hand": "right"
    },
    {
      "midi": 74,
      "time": 82.5,
      "duration": 1.5,
      "velocity": 0.63,
      "hand": "right"
    },
    {
      "midi": 50,
      "time": 83,
      "duration": 0.5,
      "velocity": 0.63,
      "hand": "left"
    },
    {
      "midi": 60,
      "time": 83.5,
      "duration": 0.5,
      "velocity": 0.63,
      "hand": "right"
    },
    {
      "midi": 59,
      "time": 84,
      "duration": 1,
      "velocity": 0.63,
      "hand": "left"
    },
    {
      "midi": 74,
      "time": 84,
      "duration": 0.5,
      "velocity": 0.63,
      "hand": "right"
    },
    {
      "midi": 62,
      "time": 84.5,
      "duration": 1,
      "velocity": 0.63,
      "hand": "right"
    },
    {
      "midi": 67,
      "time": 84.5,
      "duration": 0.25,
      "velocity": 0.63,
      "hand": "right"
    },
    {
      "midi": 66,
      "time": 84.75,
      "duration": 0.25,
      "velocity": 0.63,
      "hand": "right"
    },
    {
      "midi": 59,
      "time": 85,
      "duration": 0.5,
      "velocity": 0.63,
      "hand": "left"
    },
    {
      "midi": 67,
      "time": 85,
      "duration": 0.5,
      "velocity": 0.63,
      "hand": "right"
    },
    {
      "midi": 60,
      "time": 85.5,
      "duration": 1,
      "velocity": 0.63,
      "hand": "right"
    },
    {
      "midi": 76,
      "time": 85.5,
      "duration": 0.5,
      "velocity": 0.63,
      "hand": "right"
    },
    {
      "midi": 64,
      "time": 86,
      "duration": 1,
      "velocity": 0.63,
      "hand": "right"
    },
    {
      "midi": 67,
      "time": 86,
      "duration": 0.25,
      "velocity": 0.63,
      "hand": "right"
    },
    {
      "midi": 66,
      "time": 86.25,
      "duration": 0.25,
      "velocity": 0.63,
      "hand": "right"
    },
    {
      "midi": 60,
      "time": 86.5,
      "duration": 0.5,
      "velocity": 0.63,
      "hand": "right"
    },
    {
      "midi": 67,
      "time": 86.5,
      "duration": 0.5,
      "velocity": 0.63,
      "hand": "right"
    },
    {
      "midi": 59,
      "time": 87,
      "duration": 0.5,
      "velocity": 0.63,
      "hand": "left"
    },
    {
      "midi": 74,
      "time": 87,
      "duration": 0.5,
      "velocity": 0.63,
      "hand": "right"
    },
    {
      "midi": 57,
      "time": 87.5,
      "duration": 0.5,
      "velocity": 0.63,
      "hand": "left"
    },
    {
      "midi": 72,
      "time": 87.5,
      "duration": 0.5,
      "velocity": 0.63,
      "hand": "right"
    },
    {
      "midi": 55,
      "time": 88,
      "duration": 0.5,
      "velocity": 0.63,
      "hand": "left"
    },
    {
      "midi": 71,
      "time": 88,
      "duration": 0.5,
      "velocity": 0.63,
      "hand": "right"
    },
    {
      "midi": 62,
      "time": 88.5,
      "duration": 1,
      "velocity": 0.63,
      "hand": "right"
    },
    {
      "midi": 69,
      "time": 88.5,
      "duration": 0.25,
      "velocity": 0.63,
      "hand": "right"
    },
    {
      "midi": 67,
      "time": 88.75,
      "duration": 0.25,
      "velocity": 0.63,
      "hand": "right"
    },
    {
      "midi": 66,
      "time": 89,
      "duration": 0.25,
      "velocity": 0.63,
      "hand": "right"
    },
    {
      "midi": 67,
      "time": 89.25,
      "duration": 0.25,
      "velocity": 0.63,
      "hand": "right"
    },
    {
      "midi": 69,
      "time": 89.5,
      "duration": 0.5,
      "velocity": 0.63,
      "hand": "right"
    },
    {
      "midi": 50,
      "time": 90,
      "duration": 1.5,
      "velocity": 0.63,
      "hand": "left"
    },
    {
      "midi": 62,
      "time": 90,
      "duration": 0.25,
      "velocity": 0.63,
      "hand": "right"
    },
    {
      "midi": 64,
      "time": 90.25,
      "duration": 0.25,
      "velocity": 0.63,
      "hand": "right"
    },
    {
      "midi": 66,
      "time": 90.5,
      "duration": 0.25,
      "velocity": 0.63,
      "hand": "right"
    },
    {
      "midi": 67,
      "time": 90.75,
      "duration": 0.25,
      "velocity": 0.63,
      "hand": "right"
    },
    {
      "midi": 54,
      "time": 91,
      "duration": 0.5,
      "velocity": 0.63,
      "hand": "left"
    },
    {
      "midi": 69,
      "time": 91,
      "duration": 0.25,
      "velocity": 0.63,
      "hand": "right"
    },
    {
      "midi": 71,
      "time": 91.25,
      "duration": 0.25,
      "velocity": 0.63,
      "hand": "right"
    },
    {
      "midi": 52,
      "time": 91.5,
      "duration": 0.5,
      "velocity": 0.63,
      "hand": "left"
    },
    {
      "midi": 72,
      "time": 91.5,
      "duration": 0.5,
      "velocity": 0.63,
      "hand": "right"
    },
    {
      "midi": 55,
      "time": 92,
      "duration": 0.5,
      "velocity": 0.63,
      "hand": "left"
    },
    {
      "midi": 72,
      "time": 92,
      "duration": 0.063,
      "velocity": 0.63,
      "hand": "right"
    },
    {
      "midi": 71,
      "time": 92.125,
      "duration": 0.063,
      "velocity": 0.63,
      "hand": "right"
    },
    {
      "midi": 72,
      "time": 92.125,
      "duration": 0.063,
      "velocity": 0.63,
      "hand": "right"
    },
    {
      "midi": 71,
      "time": 92.25,
      "duration": 0.25,
      "velocity": 0.63,
      "hand": "right"
    },
    {
      "midi": 54,
      "time": 92.5,
      "duration": 0.5,
      "velocity": 0.63,
      "hand": "left"
    },
    {
      "midi": 69,
      "time": 92.5,
      "duration": 0.5,
      "velocity": 0.63,
      "hand": "right"
    },
    {
      "midi": 55,
      "time": 93,
      "duration": 0.5,
      "velocity": 0.63,
      "hand": "left"
    },
    {
      "midi": 71,
      "time": 93,
      "duration": 0.25,
      "velocity": 0.63,
      "hand": "right"
    },
    {
      "midi": 74,
      "time": 93.25,
      "duration": 0.25,
      "velocity": 0.63,
      "hand": "right"
    },
    {
      "midi": 47,
      "time": 93.5,
      "duration": 0.5,
      "velocity": 0.63,
      "hand": "left"
    },
    {
      "midi": 67,
      "time": 93.5,
      "duration": 0.5,
      "velocity": 0.63,
      "hand": "right"
    },
    {
      "midi": 50,
      "time": 94,
      "duration": 0.5,
      "velocity": 0.63,
      "hand": "left"
    },
    {
      "midi": 66,
      "time": 94,
      "duration": 0.5,
      "velocity": 0.63,
      "hand": "right"
    },
    {
      "midi": 55,
      "time": 94.5,
      "duration": 0.5,
      "velocity": 0.63,
      "hand": "left"
    },
    {
      "midi": 59,
      "time": 94.5,
      "duration": 1.5,
      "velocity": 0.63,
      "hand": "left"
    },
    {
      "midi": 62,
      "time": 94.5,
      "duration": 1.5,
      "velocity": 0.63,
      "hand": "right"
    },
    {
      "midi": 67,
      "time": 94.5,
      "duration": 1.5,
      "velocity": 0.63,
      "hand": "right"
    },
    {
      "midi": 50,
      "time": 95,
      "duration": 0.5,
      "velocity": 0.63,
      "hand": "left"
    },
    {
      "midi": 43,
      "time": 95.5,
      "duration": 0.5,
      "velocity": 0.63,
      "hand": "left"
    }
  ],
  "arrangements": {
    "easy": [
      {
        "midi": 74,
        "time": 0,
        "duration": 0.5,
        "velocity": 0.63,
        "hand": "right"
      },
      {
        "midi": 67,
        "time": 0.5,
        "duration": 0.25,
        "velocity": 0.63,
        "hand": "right"
      },
      {
        "midi": 69,
        "time": 0.75,
        "duration": 0.25,
        "velocity": 0.63,
        "hand": "right"
      },
      {
        "midi": 71,
        "time": 1,
        "duration": 0.25,
        "velocity": 0.63,
        "hand": "right"
      },
      {
        "midi": 72,
        "time": 1.25,
        "duration": 0.25,
        "velocity": 0.63,
        "hand": "right"
      },
      {
        "midi": 74,
        "time": 1.5,
        "duration": 0.5,
        "velocity": 0.63,
        "hand": "right"
      },
      {
        "midi": 67,
        "time": 2,
        "duration": 0.25,
        "velocity": 0.63,
        "hand": "right"
      },
      {
        "midi": 67,
        "time": 2.5,
        "duration": 0.25,
        "velocity": 0.63,
        "hand": "right"
      },
      {
        "midi": 76,
        "time": 3,
        "duration": 0.5,
        "velocity": 0.63,
        "hand": "right"
      },
      {
        "midi": 72,
        "time": 3.625,
        "duration": 0.25,
        "velocity": 0.63,
        "hand": "right"
      },
      {
        "midi": 76,
        "time": 4,
        "duration": 0.25,
        "velocity": 0.63,
        "hand": "right"
      },
      {
        "midi": 78,
        "time": 4.25,
        "duration": 0.25,
        "velocity": 0.63,
        "hand": "right"
      },
      {
        "midi": 79,
        "time": 4.5,
        "duration": 0.5,
        "velocity": 0.63,
        "hand": "right"
      },
      {
        "midi": 67,
        "time": 5,
        "duration": 0.25,
        "velocity": 0.63,
        "hand": "right"
      },
      {
        "midi": 67,
        "time": 5.5,
        "duration": 0.25,
        "velocity": 0.63,
        "hand": "right"
      },
      {
        "midi": 72,
        "time": 6.125,
        "duration": 0.375,
        "velocity": 0.63,
        "hand": "right"
      },
      {
        "midi": 74,
        "time": 6.5,
        "duration": 0.25,
        "velocity": 0.63,
        "hand": "right"
      },
      {
        "midi": 72,
        "time": 6.75,
        "duration": 0.25,
        "velocity": 0.63,
        "hand": "right"
      },
      {
        "midi": 71,
        "time": 7,
        "duration": 0.25,
        "velocity": 0.63,
        "hand": "right"
      },
      {
        "midi": 69,
        "time": 7.25,
        "duration": 0.25,
        "velocity": 0.63,
        "hand": "right"
      },
      {
        "midi": 71,
        "time": 7.5,
        "duration": 0.5,
        "velocity": 0.63,
        "hand": "right"
      },
      {
        "midi": 72,
        "time": 8,
        "duration": 0.25,
        "velocity": 0.63,
        "hand": "right"
      },
      {
        "midi": 71,
        "time": 8.25,
        "duration": 0.25,
        "velocity": 0.63,
        "hand": "right"
      },
      {
        "midi": 69,
        "time": 8.5,
        "duration": 0.25,
        "velocity": 0.63,
        "hand": "right"
      },
      {
        "midi": 67,
        "time": 8.75,
        "duration": 0.25,
        "velocity": 0.63,
        "hand": "right"
      },
      {
        "midi": 66,
        "time": 9,
        "duration": 0.5,
        "velocity": 0.63,
        "hand": "right"
      },
      {
        "midi": 67,
        "time": 9.5,
        "duration": 0.25,
        "velocity": 0.63,
        "hand": "right"
      },
      {
        "midi": 69,
        "time": 9.75,
        "duration": 0.25,
        "velocity": 0.63,
        "hand": "right"
      },
      {
        "midi": 71,
        "time": 10,
        "duration": 0.25,
        "velocity": 0.63,
        "hand": "right"
      },
      {
        "midi": 67,
        "time": 10.25,
        "duration": 0.25,
        "velocity": 0.63,
        "hand": "right"
      },
      {
        "midi": 71,
        "time": 10.5,
        "duration": 0.5,
        "velocity": 0.63,
        "hand": "right"
      },
      {
        "midi": 69,
        "time": 11,
        "duration": 1,
        "velocity": 0.63,
        "hand": "right"
      },
      {
        "midi": 60,
        "time": 11.25,
        "duration": 0.25,
        "velocity": 0.63,
        "hand": "right"
      },
      {
        "midi": 74,
        "time": 12,
        "duration": 0.5,
        "velocity": 0.63,
        "hand": "right"
      },
      {
        "midi": 67,
        "time": 12.5,
        "duration": 0.25,
        "velocity": 0.63,
        "hand": "right"
      },
      {
        "midi": 69,
        "time": 12.75,
        "duration": 0.25,
        "velocity": 0.63,
        "hand": "right"
      },
      {
        "midi": 71,
        "time": 13,
        "duration": 0.25,
        "velocity": 0.63,
        "hand": "right"
      },
      {
        "midi": 72,
        "time": 13.25,
        "duration": 0.25,
        "velocity": 0.63,
        "hand": "right"
      },
      {
        "midi": 74,
        "time": 13.5,
        "duration": 0.5,
        "velocity": 0.63,
        "hand": "right"
      },
      {
        "midi": 67,
        "time": 14,
        "duration": 0.25,
        "velocity": 0.63,
        "hand": "right"
      },
      {
        "midi": 67,
        "time": 14.5,
        "duration": 0.25,
        "velocity": 0.63,
        "hand": "right"
      },
      {
        "midi": 76,
        "time": 15,
        "duration": 0.5,
        "velocity": 0.63,
        "hand": "right"
      },
      {
        "midi": 72,
        "time": 15.625,
        "duration": 0.25,
        "velocity": 0.63,
        "hand": "right"
      },
      {
        "midi": 76,
        "time": 16,
        "duration": 0.25,
        "velocity": 0.63,
        "hand": "right"
      },
      {
        "midi": 78,
        "time": 16.25,
        "duration": 0.25,
        "velocity": 0.63,
        "hand": "right"
      },
      {
        "midi": 79,
        "time": 16.5,
        "duration": 0.5,
        "velocity": 0.63,
        "hand": "right"
      },
      {
        "midi": 67,
        "time": 17,
        "duration": 0.25,
        "velocity": 0.63,
        "hand": "right"
      },
      {
        "midi": 67,
        "time": 17.5,
        "duration": 0.25,
        "velocity": 0.63,
        "hand": "right"
      },
      {
        "midi": 72,
        "time": 18.125,
        "duration": 0.375,
        "velocity": 0.63,
        "hand": "right"
      },
      {
        "midi": 74,
        "time": 18.5,
        "duration": 0.25,
        "velocity": 0.63,
        "hand": "right"
      },
      {
        "midi": 72,
        "time": 18.75,
        "duration": 0.25,
        "velocity": 0.63,
        "hand": "right"
      },
      {
        "midi": 71,
        "time": 19,
        "duration": 0.25,
        "velocity": 0.63,
        "hand": "right"
      },
      {
        "midi": 69,
        "time": 19.25,
        "duration": 0.25,
        "velocity": 0.63,
        "hand": "right"
      },
      {
        "midi": 71,
        "time": 19.5,
        "duration": 0.5,
        "velocity": 0.63,
        "hand": "right"
      },
      {
        "midi": 72,
        "time": 20,
        "duration": 0.25,
        "velocity": 0.63,
        "hand": "right"
      },
      {
        "midi": 71,
        "time": 20.25,
        "duration": 0.25,
        "velocity": 0.63,
        "hand": "right"
      },
      {
        "midi": 69,
        "time": 20.5,
        "duration": 0.25,
        "velocity": 0.63,
        "hand": "right"
      },
      {
        "midi": 67,
        "time": 20.75,
        "duration": 0.25,
        "velocity": 0.63,
        "hand": "right"
      },
      {
        "midi": 69,
        "time": 21,
        "duration": 0.5,
        "velocity": 0.63,
        "hand": "right"
      },
      {
        "midi": 71,
        "time": 21.5,
        "duration": 0.25,
        "velocity": 0.63,
        "hand": "right"
      },
      {
        "midi": 69,
        "time": 21.75,
        "duration": 0.25,
        "velocity": 0.63,
        "hand": "right"
      },
      {
        "midi": 67,
        "time": 22,
        "duration": 0.25,
        "velocity": 0.63,
        "hand": "right"
      },
      {
        "midi": 66,
        "time": 22.25,
        "duration": 0.25,
        "velocity": 0.63,
        "hand": "right"
      },
      {
        "midi": 67,
        "time": 22.5,
        "duration": 1.5,
        "velocity": 0.63,
        "hand": "right"
      },
      {
        "midi": 74,
        "time": 24,
        "duration": 0.5,
        "velocity": 0.63,
        "hand": "right"
      },
      {
        "midi": 67,
        "time": 24.5,
        "duration": 0.25,
        "velocity": 0.63,
        "hand": "right"
      },
      {
        "midi": 69,
        "time": 24.75,
        "duration": 0.25,
        "velocity": 0.63,
        "hand": "right"
      },
      {
        "midi": 71,
        "time": 25,
        "duration": 0.25,
        "velocity": 0.63,
        "hand": "right"
      },
      {
        "midi": 72,
        "time": 25.25,
        "duration": 0.25,
        "velocity": 0.63,
        "hand": "right"
      },
      {
        "midi": 74,
        "time": 25.5,
        "duration": 0.5,
        "velocity": 0.63,
        "hand": "right"
      },
      {
        "midi": 67,
        "time": 26,
        "duration": 0.25,
        "velocity": 0.63,
        "hand": "right"
      },
      {
        "midi": 67,
        "time": 26.5,
        "duration": 0.25,
        "velocity": 0.63,
        "hand": "right"
      },
      {
        "midi": 76,
        "time": 27,
        "duration": 0.5,
        "velocity": 0.63,
        "hand": "right"
      },
      {
        "midi": 72,
        "time": 27.625,
        "duration": 0.25,
        "velocity": 0.63,
        "hand": "right"
      },
      {
        "midi": 76,
        "time": 28,
        "duration": 0.25,
        "velocity": 0.63,
        "hand": "right"
      },
      {
        "midi": 78,
        "time": 28.25,
        "duration": 0.25,
        "velocity": 0.63,
        "hand": "right"
      },
      {
        "midi": 79,
        "time": 28.5,
        "duration": 0.5,
        "velocity": 0.63,
        "hand": "right"
      },
      {
        "midi": 67,
        "time": 29,
        "duration": 0.25,
        "velocity": 0.63,
        "hand": "right"
      },
      {
        "midi": 67,
        "time": 29.5,
        "duration": 0.25,
        "velocity": 0.63,
        "hand": "right"
      },
      {
        "midi": 72,
        "time": 30.125,
        "duration": 0.375,
        "velocity": 0.63,
        "hand": "right"
      },
      {
        "midi": 74,
        "time": 30.5,
        "duration": 0.25,
        "velocity": 0.63,
        "hand": "right"
      },
      {
        "midi": 72,
        "time": 30.75,
        "duration": 0.25,
        "velocity": 0.63,
        "hand": "right"
      },
      {
        "midi": 71,
        "time": 31,
        "duration": 0.25,
        "velocity": 0.63,
        "hand": "right"
      },
      {
        "midi": 69,
        "time": 31.25,
        "duration": 0.25,
        "velocity": 0.63,
        "hand": "right"
      },
      {
        "midi": 71,
        "time": 31.5,
        "duration": 0.5,
        "velocity": 0.63,
        "hand": "right"
      },
      {
        "midi": 72,
        "time": 32,
        "duration": 0.25,
        "velocity": 0.63,
        "hand": "right"
      },
      {
        "midi": 71,
        "time": 32.25,
        "duration": 0.25,
        "velocity": 0.63,
        "hand": "right"
      },
      {
        "midi": 69,
        "time": 32.5,
        "duration": 0.25,
        "velocity": 0.63,
        "hand": "right"
      },
      {
        "midi": 67,
        "time": 32.75,
        "duration": 0.25,
        "velocity": 0.63,
        "hand": "right"
      },
      {
        "midi": 66,
        "time": 33,
        "duration": 0.5,
        "velocity": 0.63,
        "hand": "right"
      },
      {
        "midi": 67,
        "time": 33.5,
        "duration": 0.25,
        "velocity": 0.63,
        "hand": "right"
      },
      {
        "midi": 69,
        "time": 33.75,
        "duration": 0.25,
        "velocity": 0.63,
        "hand": "right"
      },
      {
        "midi": 71,
        "time": 34,
        "duration": 0.25,
        "velocity": 0.63,
        "hand": "right"
      },
      {
        "midi": 67,
        "time": 34.25,
        "duration": 0.25,
        "velocity": 0.63,
        "hand": "right"
      },
      {
        "midi": 71,
        "time": 34.5,
        "duration": 0.5,
        "velocity": 0.63,
        "hand": "right"
      },
      {
        "midi": 69,
        "time": 35,
        "duration": 1,
        "velocity": 0.63,
        "hand": "right"
      },
      {
        "midi": 60,
        "time": 35.25,
        "duration": 0.25,
        "velocity": 0.63,
        "hand": "right"
      },
      {
        "midi": 74,
        "time": 36,
        "duration": 0.5,
        "velocity": 0.63,
        "hand": "right"
      },
      {
        "midi": 67,
        "time": 36.5,
        "duration": 0.25,
        "velocity": 0.63,
        "hand": "right"
      },
      {
        "midi": 69,
        "time": 36.75,
        "duration": 0.25,
        "velocity": 0.63,
        "hand": "right"
      },
      {
        "midi": 71,
        "time": 37,
        "duration": 0.25,
        "velocity": 0.63,
        "hand": "right"
      },
      {
        "midi": 72,
        "time": 37.25,
        "duration": 0.25,
        "velocity": 0.63,
        "hand": "right"
      },
      {
        "midi": 74,
        "time": 37.5,
        "duration": 0.5,
        "velocity": 0.63,
        "hand": "right"
      },
      {
        "midi": 67,
        "time": 38,
        "duration": 0.25,
        "velocity": 0.63,
        "hand": "right"
      },
      {
        "midi": 67,
        "time": 38.5,
        "duration": 0.25,
        "velocity": 0.63,
        "hand": "right"
      },
      {
        "midi": 76,
        "time": 39,
        "duration": 0.5,
        "velocity": 0.63,
        "hand": "right"
      },
      {
        "midi": 72,
        "time": 39.625,
        "duration": 0.25,
        "velocity": 0.63,
        "hand": "right"
      },
      {
        "midi": 76,
        "time": 40,
        "duration": 0.25,
        "velocity": 0.63,
        "hand": "right"
      },
      {
        "midi": 78,
        "time": 40.25,
        "duration": 0.25,
        "velocity": 0.63,
        "hand": "right"
      },
      {
        "midi": 79,
        "time": 40.5,
        "duration": 0.5,
        "velocity": 0.63,
        "hand": "right"
      },
      {
        "midi": 67,
        "time": 41,
        "duration": 0.25,
        "velocity": 0.63,
        "hand": "right"
      },
      {
        "midi": 67,
        "time": 41.5,
        "duration": 0.25,
        "velocity": 0.63,
        "hand": "right"
      },
      {
        "midi": 72,
        "time": 42.125,
        "duration": 0.375,
        "velocity": 0.63,
        "hand": "right"
      },
      {
        "midi": 74,
        "time": 42.5,
        "duration": 0.25,
        "velocity": 0.63,
        "hand": "right"
      },
      {
        "midi": 72,
        "time": 42.75,
        "duration": 0.25,
        "velocity": 0.63,
        "hand": "right"
      },
      {
        "midi": 71,
        "time": 43,
        "duration": 0.25,
        "velocity": 0.63,
        "hand": "right"
      },
      {
        "midi": 69,
        "time": 43.25,
        "duration": 0.25,
        "velocity": 0.63,
        "hand": "right"
      },
      {
        "midi": 71,
        "time": 43.5,
        "duration": 0.5,
        "velocity": 0.63,
        "hand": "right"
      },
      {
        "midi": 72,
        "time": 44,
        "duration": 0.25,
        "velocity": 0.63,
        "hand": "right"
      },
      {
        "midi": 71,
        "time": 44.25,
        "duration": 0.25,
        "velocity": 0.63,
        "hand": "right"
      },
      {
        "midi": 69,
        "time": 44.5,
        "duration": 0.25,
        "velocity": 0.63,
        "hand": "right"
      },
      {
        "midi": 67,
        "time": 44.75,
        "duration": 0.25,
        "velocity": 0.63,
        "hand": "right"
      },
      {
        "midi": 69,
        "time": 45,
        "duration": 0.5,
        "velocity": 0.63,
        "hand": "right"
      },
      {
        "midi": 71,
        "time": 45.5,
        "duration": 0.25,
        "velocity": 0.63,
        "hand": "right"
      },
      {
        "midi": 69,
        "time": 45.75,
        "duration": 0.25,
        "velocity": 0.63,
        "hand": "right"
      },
      {
        "midi": 67,
        "time": 46,
        "duration": 0.25,
        "velocity": 0.63,
        "hand": "right"
      },
      {
        "midi": 66,
        "time": 46.25,
        "duration": 0.25,
        "velocity": 0.63,
        "hand": "right"
      },
      {
        "midi": 67,
        "time": 46.5,
        "duration": 1.5,
        "velocity": 0.63,
        "hand": "right"
      },
      {
        "midi": 83,
        "time": 48,
        "duration": 0.5,
        "velocity": 0.63,
        "hand": "right"
      },
      {
        "midi": 79,
        "time": 48.5,
        "duration": 0.25,
        "velocity": 0.63,
        "hand": "right"
      },
      {
        "midi": 81,
        "time": 48.75,
        "duration": 0.25,
        "velocity": 0.63,
        "hand": "right"
      },
      {
        "midi": 83,
        "time": 49,
        "duration": 0.25,
        "velocity": 0.63,
        "hand": "right"
      },
      {
        "midi": 79,
        "time": 49.25,
        "duration": 0.25,
        "velocity": 0.63,
        "hand": "right"
      },
      {
        "midi": 81,
        "time": 49.5,
        "duration": 0.5,
        "velocity": 0.63,
        "hand": "right"
      },
      {
        "midi": 74,
        "time": 50,
        "duration": 0.25,
        "velocity": 0.63,
        "hand": "right"
      },
      {
        "midi": 76,
        "time": 50.25,
        "duration": 0.25,
        "velocity": 0.63,
        "hand": "right"
      },
      {
        "midi": 78,
        "time": 50.5,
        "duration": 0.25,
        "velocity": 0.63,
        "hand": "right"
      },
      {
        "midi": 74,
        "time": 50.75,
        "duration": 0.25,
        "velocity": 0.63,
        "hand": "right"
      },
      {
        "midi": 79,
        "time": 51,
        "duration": 0.5,
        "velocity": 0.63,
        "hand": "right"
      },
      {
        "midi": 76,
        "time": 51.5,
        "duration": 0.25,
        "velocity": 0.63,
        "hand": "right"
      },
      {
        "midi": 78,
        "time": 51.75,
        "duration": 0.25,
        "velocity": 0.63,
        "hand": "right"
      },
      {
        "midi": 79,
        "time": 52,
        "duration": 0.25,
        "velocity": 0.63,
        "hand": "right"
      },
      {
        "midi": 74,
        "time": 52.25,
        "duration": 0.25,
        "velocity": 0.63,
        "hand": "right"
      },
      {
        "midi": 73,
        "time": 52.5,
        "duration": 0.5,
        "velocity": 0.63,
        "hand": "right"
      },
      {
        "midi": 71,
        "time": 53,
        "duration": 0.25,
        "velocity": 0.63,
        "hand": "right"
      },
      {
        "midi": 73,
        "time": 53.25,
        "duration": 0.25,
        "velocity": 0.63,
        "hand": "right"
      },
      {
        "midi": 69,
        "time": 53.5,
        "duration": 0.5,
        "velocity": 0.63,
        "hand": "right"
      },
      {
        "midi": 69,
        "time": 54,
        "duration": 0.25,
        "velocity": 0.63,
        "hand": "right"
      },
      {
        "midi": 71,
        "time": 54.25,
        "duration": 0.25,
        "velocity": 0.63,
        "hand": "right"
      },
      {
        "midi": 73,
        "time": 54.5,
        "duration": 0.25,
        "velocity": 0.63,
        "hand": "right"
      },
      {
        "midi": 74,
        "time": 54.75,
        "duration": 0.25,
        "velocity": 0.63,
        "hand": "right"
      },
      {
        "midi": 76,
        "time": 55,
        "duration": 0.25,
        "velocity": 0.63,
        "hand": "right"
      },
      {
        "midi": 78,
        "time": 55.25,
        "duration": 0.25,
        "velocity": 0.63,
        "hand": "right"
      },
      {
        "midi": 79,
        "time": 55.5,
        "duration": 0.5,
        "velocity": 0.63,
        "hand": "right"
      },
      {
        "midi": 78,
        "time": 56,
        "duration": 0.5,
        "velocity": 0.63,
        "hand": "right"
      },
      {
        "midi": 76,
        "time": 56.5,
        "duration": 0.5,
        "velocity": 0.63,
        "hand": "right"
      },
      {
        "midi": 78,
        "time": 57,
        "duration": 0.5,
        "velocity": 0.63,
        "hand": "right"
      },
      {
        "midi": 69,
        "time": 57.5,
        "duration": 0.5,
        "velocity": 0.63,
        "hand": "right"
      },
      {
        "midi": 73,
        "time": 58,
        "duration": 0.5,
        "velocity": 0.63,
        "hand": "right"
      },
      {
        "midi": 74,
        "time": 58.5,
        "duration": 1.5,
        "velocity": 0.63,
        "hand": "right"
      },
      {
        "midi": 60,
        "time": 59.5,
        "duration": 0.5,
        "velocity": 0.63,
        "hand": "right"
      },
      {
        "midi": 74,
        "time": 60,
        "duration": 0.5,
        "velocity": 0.63,
        "hand": "right"
      },
      {
        "midi": 67,
        "time": 60.5,
        "duration": 0.25,
        "velocity": 0.63,
        "hand": "right"
      },
      {
        "midi": 66,
        "time": 60.75,
        "duration": 0.25,
        "velocity": 0.63,
        "hand": "right"
      },
      {
        "midi": 67,
        "time": 61,
        "duration": 0.5,
        "velocity": 0.63,
        "hand": "right"
      },
      {
        "midi": 76,
        "time": 61.5,
        "duration": 0.5,
        "velocity": 0.63,
        "hand": "right"
      },
      {
        "midi": 67,
        "time": 62,
        "duration": 0.25,
        "velocity": 0.63,
        "hand": "right"
      },
      {
        "midi": 66,
        "time": 62.25,
        "duration": 0.25,
        "velocity": 0.63,
        "hand": "right"
      },
      {
        "midi": 67,
        "time": 62.5,
        "duration": 0.5,
        "velocity": 0.63,
        "hand": "right"
      },
      {
        "midi": 74,
        "time": 63,
        "duration": 0.5,
        "velocity": 0.63,
        "hand": "right"
      },
      {
        "midi": 72,
        "time": 63.5,
        "duration": 0.5,
        "velocity": 0.63,
        "hand": "right"
      },
      {
        "midi": 71,
        "time": 64,
        "duration": 0.5,
        "velocity": 0.63,
        "hand": "right"
      },
      {
        "midi": 69,
        "time": 64.5,
        "duration": 0.25,
        "velocity": 0.63,
        "hand": "right"
      },
      {
        "midi": 67,
        "time": 64.75,
        "duration": 0.25,
        "velocity": 0.63,
        "hand": "right"
      },
      {
        "midi": 66,
        "time": 65,
        "duration": 0.25,
        "velocity": 0.63,
        "hand": "right"
      },
      {
        "midi": 67,
        "time": 65.25,
        "duration": 0.25,
        "velocity": 0.63,
        "hand": "right"
      },
      {
        "midi": 69,
        "time": 65.5,
        "duration": 0.5,
        "velocity": 0.63,
        "hand": "right"
      },
      {
        "midi": 62,
        "time": 66,
        "duration": 0.25,
        "velocity": 0.63,
        "hand": "right"
      },
      {
        "midi": 64,
        "time": 66.25,
        "duration": 0.25,
        "velocity": 0.63,
        "hand": "right"
      },
      {
        "midi": 66,
        "time": 66.5,
        "duration": 0.25,
        "velocity": 0.63,
        "hand": "right"
      },
      {
        "midi": 67,
        "time": 66.75,
        "duration": 0.25,
        "velocity": 0.63,
        "hand": "right"
      },
      {
        "midi": 69,
        "time": 67,
        "duration": 0.25,
        "velocity": 0.63,
        "hand": "right"
      },
      {
        "midi": 71,
        "time": 67.25,
        "duration": 0.25,
        "velocity": 0.63,
        "hand": "right"
      },
      {
        "midi": 72,
        "time": 67.5,
        "duration": 0.5,
        "velocity": 0.63,
        "hand": "right"
      },
      {
        "midi": 71,
        "time": 68.25,
        "duration": 0.25,
        "velocity": 0.63,
        "hand": "right"
      },
      {
        "midi": 69,
        "time": 68.5,
        "duration": 0.5,
        "velocity": 0.63,
        "hand": "right"
      },
      {
        "midi": 71,
        "time": 69,
        "duration": 0.25,
        "velocity": 0.63,
        "hand": "right"
      },
      {
        "midi": 74,
        "time": 69.25,
        "duration": 0.25,
        "velocity": 0.63,
        "hand": "right"
      },
      {
        "midi": 67,
        "time": 69.5,
        "duration": 0.5,
        "velocity": 0.63,
        "hand": "right"
      },
      {
        "midi": 66,
        "time": 70,
        "duration": 0.5,
        "velocity": 0.63,
        "hand": "right"
      },
      {
        "midi": 67,
        "time": 70.5,
        "duration": 1.5,
        "velocity": 0.63,
        "hand": "right"
      },
      {
        "midi": 83,
        "time": 72,
        "duration": 0.5,
        "velocity": 0.63,
        "hand": "right"
      },
      {
        "midi": 79,
        "time": 72.5,
        "duration": 0.25,
        "velocity": 0.63,
        "hand": "right"
      },
      {
        "midi": 81,
        "time": 72.75,
        "duration": 0.25,
        "velocity": 0.63,
        "hand": "right"
      },
      {
        "midi": 83,
        "time": 73,
        "duration": 0.25,
        "velocity": 0.63,
        "hand": "right"
      },
      {
        "midi": 79,
        "time": 73.25,
        "duration": 0.25,
        "velocity": 0.63,
        "hand": "right"
      },
      {
        "midi": 81,
        "time": 73.5,
        "duration": 0.5,
        "velocity": 0.63,
        "hand": "right"
      },
      {
        "midi": 74,
        "time": 74,
        "duration": 0.25,
        "velocity": 0.63,
        "hand": "right"
      },
      {
        "midi": 76,
        "time": 74.25,
        "duration": 0.25,
        "velocity": 0.63,
        "hand": "right"
      },
      {
        "midi": 78,
        "time": 74.5,
        "duration": 0.25,
        "velocity": 0.63,
        "hand": "right"
      },
      {
        "midi": 74,
        "time": 74.75,
        "duration": 0.25,
        "velocity": 0.63,
        "hand": "right"
      },
      {
        "midi": 79,
        "time": 75,
        "duration": 0.5,
        "velocity": 0.63,
        "hand": "right"
      },
      {
        "midi": 76,
        "time": 75.5,
        "duration": 0.25,
        "velocity": 0.63,
        "hand": "right"
      },
      {
        "midi": 78,
        "time": 75.75,
        "duration": 0.25,
        "velocity": 0.63,
        "hand": "right"
      },
      {
        "midi": 79,
        "time": 76,
        "duration": 0.25,
        "velocity": 0.63,
        "hand": "right"
      },
      {
        "midi": 74,
        "time": 76.25,
        "duration": 0.25,
        "velocity": 0.63,
        "hand": "right"
      },
      {
        "midi": 73,
        "time": 76.5,
        "duration": 0.5,
        "velocity": 0.63,
        "hand": "right"
      },
      {
        "midi": 71,
        "time": 77,
        "duration": 0.25,
        "velocity": 0.63,
        "hand": "right"
      },
      {
        "midi": 73,
        "time": 77.25,
        "duration": 0.25,
        "velocity": 0.63,
        "hand": "right"
      },
      {
        "midi": 69,
        "time": 77.5,
        "duration": 0.5,
        "velocity": 0.63,
        "hand": "right"
      },
      {
        "midi": 69,
        "time": 78,
        "duration": 0.25,
        "velocity": 0.63,
        "hand": "right"
      },
      {
        "midi": 71,
        "time": 78.25,
        "duration": 0.25,
        "velocity": 0.63,
        "hand": "right"
      },
      {
        "midi": 73,
        "time": 78.5,
        "duration": 0.25,
        "velocity": 0.63,
        "hand": "right"
      },
      {
        "midi": 74,
        "time": 78.75,
        "duration": 0.25,
        "velocity": 0.63,
        "hand": "right"
      },
      {
        "midi": 76,
        "time": 79,
        "duration": 0.25,
        "velocity": 0.63,
        "hand": "right"
      },
      {
        "midi": 78,
        "time": 79.25,
        "duration": 0.25,
        "velocity": 0.63,
        "hand": "right"
      },
      {
        "midi": 79,
        "time": 79.5,
        "duration": 0.5,
        "velocity": 0.63,
        "hand": "right"
      },
      {
        "midi": 78,
        "time": 80,
        "duration": 0.5,
        "velocity": 0.63,
        "hand": "right"
      },
      {
        "midi": 76,
        "time": 80.5,
        "duration": 0.5,
        "velocity": 0.63,
        "hand": "right"
      },
      {
        "midi": 78,
        "time": 81,
        "duration": 0.5,
        "velocity": 0.63,
        "hand": "right"
      },
      {
        "midi": 69,
        "time": 81.5,
        "duration": 0.5,
        "velocity": 0.63,
        "hand": "right"
      },
      {
        "midi": 73,
        "time": 82,
        "duration": 0.5,
        "velocity": 0.63,
        "hand": "right"
      },
      {
        "midi": 74,
        "time": 82.5,
        "duration": 1.5,
        "velocity": 0.63,
        "hand": "right"
      },
      {
        "midi": 60,
        "time": 83.5,
        "duration": 0.5,
        "velocity": 0.63,
        "hand": "right"
      },
      {
        "midi": 74,
        "time": 84,
        "duration": 0.5,
        "velocity": 0.63,
        "hand": "right"
      },
      {
        "midi": 67,
        "time": 84.5,
        "duration": 0.25,
        "velocity": 0.63,
        "hand": "right"
      },
      {
        "midi": 66,
        "time": 84.75,
        "duration": 0.25,
        "velocity": 0.63,
        "hand": "right"
      },
      {
        "midi": 67,
        "time": 85,
        "duration": 0.5,
        "velocity": 0.63,
        "hand": "right"
      },
      {
        "midi": 76,
        "time": 85.5,
        "duration": 0.5,
        "velocity": 0.63,
        "hand": "right"
      },
      {
        "midi": 67,
        "time": 86,
        "duration": 0.25,
        "velocity": 0.63,
        "hand": "right"
      },
      {
        "midi": 66,
        "time": 86.25,
        "duration": 0.25,
        "velocity": 0.63,
        "hand": "right"
      },
      {
        "midi": 67,
        "time": 86.5,
        "duration": 0.5,
        "velocity": 0.63,
        "hand": "right"
      },
      {
        "midi": 74,
        "time": 87,
        "duration": 0.5,
        "velocity": 0.63,
        "hand": "right"
      },
      {
        "midi": 72,
        "time": 87.5,
        "duration": 0.5,
        "velocity": 0.63,
        "hand": "right"
      },
      {
        "midi": 71,
        "time": 88,
        "duration": 0.5,
        "velocity": 0.63,
        "hand": "right"
      },
      {
        "midi": 69,
        "time": 88.5,
        "duration": 0.25,
        "velocity": 0.63,
        "hand": "right"
      },
      {
        "midi": 67,
        "time": 88.75,
        "duration": 0.25,
        "velocity": 0.63,
        "hand": "right"
      },
      {
        "midi": 66,
        "time": 89,
        "duration": 0.25,
        "velocity": 0.63,
        "hand": "right"
      },
      {
        "midi": 67,
        "time": 89.25,
        "duration": 0.25,
        "velocity": 0.63,
        "hand": "right"
      },
      {
        "midi": 69,
        "time": 89.5,
        "duration": 0.5,
        "velocity": 0.63,
        "hand": "right"
      },
      {
        "midi": 62,
        "time": 90,
        "duration": 0.25,
        "velocity": 0.63,
        "hand": "right"
      },
      {
        "midi": 64,
        "time": 90.25,
        "duration": 0.25,
        "velocity": 0.63,
        "hand": "right"
      },
      {
        "midi": 66,
        "time": 90.5,
        "duration": 0.25,
        "velocity": 0.63,
        "hand": "right"
      },
      {
        "midi": 67,
        "time": 90.75,
        "duration": 0.25,
        "velocity": 0.63,
        "hand": "right"
      },
      {
        "midi": 69,
        "time": 91,
        "duration": 0.25,
        "velocity": 0.63,
        "hand": "right"
      },
      {
        "midi": 71,
        "time": 91.25,
        "duration": 0.25,
        "velocity": 0.63,
        "hand": "right"
      },
      {
        "midi": 72,
        "time": 91.5,
        "duration": 0.5,
        "velocity": 0.63,
        "hand": "right"
      },
      {
        "midi": 71,
        "time": 92.25,
        "duration": 0.25,
        "velocity": 0.63,
        "hand": "right"
      },
      {
        "midi": 69,
        "time": 92.5,
        "duration": 0.5,
        "velocity": 0.63,
        "hand": "right"
      },
      {
        "midi": 71,
        "time": 93,
        "duration": 0.25,
        "velocity": 0.63,
        "hand": "right"
      },
      {
        "midi": 74,
        "time": 93.25,
        "duration": 0.25,
        "velocity": 0.63,
        "hand": "right"
      },
      {
        "midi": 67,
        "time": 93.5,
        "duration": 0.5,
        "velocity": 0.63,
        "hand": "right"
      },
      {
        "midi": 66,
        "time": 94,
        "duration": 0.5,
        "velocity": 0.63,
        "hand": "right"
      },
      {
        "midi": 67,
        "time": 94.5,
        "duration": 1.5,
        "velocity": 0.63,
        "hand": "right"
      }
    ],
    "medium": [
      {
        "midi": 55,
        "time": 0,
        "duration": 1,
        "velocity": 0.63,
        "hand": "left"
      },
      {
        "midi": 62,
        "time": 0,
        "duration": 1,
        "velocity": 0.63,
        "hand": "right"
      },
      {
        "midi": 74,
        "time": 0,
        "duration": 0.5,
        "velocity": 0.63,
        "hand": "right"
      },
      {
        "midi": 67,
        "time": 0.5,
        "duration": 0.25,
        "velocity": 0.63,
        "hand": "right"
      },
      {
        "midi": 69,
        "time": 0.75,
        "duration": 0.25,
        "velocity": 0.63,
        "hand": "right"
      },
      {
        "midi": 57,
        "time": 1,
        "duration": 0.5,
        "velocity": 0.63,
        "hand": "left"
      },
      {
        "midi": 71,
        "time": 1,
        "duration": 0.25,
        "velocity": 0.63,
        "hand": "right"
      },
      {
        "midi": 72,
        "time": 1.25,
        "duration": 0.25,
        "velocity": 0.63,
        "hand": "right"
      },
      {
        "midi": 59,
        "time": 1.5,
        "duration": 1.5,
        "velocity": 0.63,
        "hand": "left"
      },
      {
        "midi": 74,
        "time": 1.5,
        "duration": 0.5,
        "velocity": 0.63,
        "hand": "right"
      },
      {
        "midi": 67,
        "time": 2,
        "duration": 0.25,
        "velocity": 0.63,
        "hand": "right"
      },
      {
        "midi": 67,
        "time": 2.5,
        "duration": 0.25,
        "velocity": 0.63,
        "hand": "right"
      },
      {
        "midi": 60,
        "time": 3,
        "duration": 1.5,
        "velocity": 0.63,
        "hand": "right"
      },
      {
        "midi": 76,
        "time": 3,
        "duration": 0.5,
        "velocity": 0.63,
        "hand": "right"
      },
      {
        "midi": 72,
        "time": 3.5,
        "duration": 0.125,
        "velocity": 0.63,
        "hand": "right"
      },
      {
        "midi": 71,
        "time": 3.625,
        "duration": 0.125,
        "velocity": 0.63,
        "hand": "right"
      },
      {
        "midi": 72,
        "time": 3.625,
        "duration": 0.125,
        "velocity": 0.63,
        "hand": "right"
      },
      {
        "midi": 74,
        "time": 3.75,
        "duration": 0.25,
        "velocity": 0.63,
        "hand": "right"
      },
      {
        "midi": 76,
        "time": 4,
        "duration": 0.25,
        "velocity": 0.63,
        "hand": "right"
      },
      {
        "midi": 78,
        "time": 4.25,
        "duration": 0.25,
        "velocity": 0.63,
        "hand": "right"
      },
      {
        "midi": 59,
        "time": 4.5,
        "duration": 1.5,
        "velocity": 0.63,
        "hand": "left"
      },
      {
        "midi": 79,
        "time": 4.5,
        "duration": 0.5,
        "velocity": 0.63,
        "hand": "right"
      },
      {
        "midi": 67,
        "time": 5,
        "duration": 0.25,
        "velocity": 0.63,
        "hand": "right"
      },
      {
        "midi": 67,
        "time": 5.5,
        "duration": 0.25,
        "velocity": 0.63,
        "hand": "right"
      },
      {
        "midi": 57,
        "time": 6,
        "duration": 1.5,
        "velocity": 0.63,
        "hand": "left"
      },
      {
        "midi": 72,
        "time": 6,
        "duration": 0.125,
        "velocity": 0.63,
        "hand": "right"
      },
      {
        "midi": 71,
        "time": 6.125,
        "duration": 0.125,
        "velocity": 0.63,
        "hand": "right"
      },
      {
        "midi": 72,
        "time": 6.125,
        "duration": 0.375,
        "velocity": 0.63,
        "hand": "right"
      },
      {
        "midi": 74,
        "time": 6.5,
        "duration": 0.25,
        "velocity": 0.63,
        "hand": "right"
      },
      {
        "midi": 72,
        "time": 6.75,
        "duration": 0.25,
        "velocity": 0.63,
        "hand": "right"
      },
      {
        "midi": 71,
        "time": 7,
        "duration": 0.25,
        "velocity": 0.63,
        "hand": "right"
      },
      {
        "midi": 69,
        "time": 7.25,
        "duration": 0.25,
        "velocity": 0.63,
        "hand": "right"
      },
      {
        "midi": 55,
        "time": 7.5,
        "duration": 1.5,
        "velocity": 0.63,
        "hand": "left"
      },
      {
        "midi": 71,
        "time": 7.5,
        "duration": 0.5,
        "velocity": 0.63,
        "hand": "right"
      },
      {
        "midi": 72,
        "time": 8,
        "duration": 0.25,
        "velocity": 0.63,
        "hand": "right"
      },
      {
        "midi": 71,
        "time": 8.25,
        "duration": 0.25,
        "velocity": 0.63,
        "hand": "right"
      },
      {
        "midi": 69,
        "time": 8.5,
        "duration": 0.25,
        "velocity": 0.63,
        "hand": "right"
      },
      {
        "midi": 67,
        "time": 8.75,
        "duration": 0.25,
        "velocity": 0.63,
        "hand": "right"
      },
      {
        "midi": 62,
        "time": 9,
        "duration": 0.5,
        "velocity": 0.63,
        "hand": "right"
      },
      {
        "midi": 66,
        "time": 9,
        "duration": 0.5,
        "velocity": 0.63,
        "hand": "right"
      },
      {
        "midi": 59,
        "time": 9.5,
        "duration": 0.5,
        "velocity": 0.63,
        "hand": "left"
      },
      {
        "midi": 67,
        "time": 9.5,
        "duration": 0.25,
        "velocity": 0.63,
        "hand": "right"
      },
      {
        "midi": 69,
        "time": 9.75,
        "duration": 0.25,
        "velocity": 0.63,
        "hand": "right"
      },
      {
        "midi": 55,
        "time": 10,
        "duration": 0.5,
        "velocity": 0.63,
        "hand": "left"
      },
      {
        "midi": 71,
        "time": 10,
        "duration": 0.25,
        "velocity": 0.63,
        "hand": "right"
      },
      {
        "midi": 67,
        "time": 10.25,
        "duration": 0.25,
        "velocity": 0.63,
        "hand": "right"
      },
      {
        "midi": 62,
        "time": 10.5,
        "duration": 0.5,
        "velocity": 0.63,
        "hand": "right"
      },
      {
        "midi": 71,
        "time": 10.5,
        "duration": 0.5,
        "velocity": 0.63,
        "hand": "right"
      },
      {
        "midi": 50,
        "time": 11,
        "duration": 0.25,
        "velocity": 0.63,
        "hand": "left"
      },
      {
        "midi": 69,
        "time": 11,
        "duration": 1,
        "velocity": 0.63,
        "hand": "right"
      },
      {
        "midi": 60,
        "time": 11.25,
        "duration": 0.25,
        "velocity": 0.63,
        "hand": "right"
      },
      {
        "midi": 59,
        "time": 11.5,
        "duration": 0.25,
        "velocity": 0.63,
        "hand": "left"
      },
      {
        "midi": 57,
        "time": 11.75,
        "duration": 0.25,
        "velocity": 0.63,
        "hand": "left"
      },
      {
        "midi": 59,
        "time": 12,
        "duration": 1,
        "velocity": 0.63,
        "hand": "left"
      },
      {
        "midi": 74,
        "time": 12,
        "duration": 0.5,
        "velocity": 0.63,
        "hand": "right"
      },
      {
        "midi": 67,
        "time": 12.5,
        "duration": 0.25,
        "velocity": 0.63,
        "hand": "right"
      },
      {
        "midi": 69,
        "time": 12.75,
        "duration": 0.25,
        "velocity": 0.63,
        "hand": "right"
      },
      {
        "midi": 57,
        "time": 13,
        "duration": 0.5,
        "velocity": 0.63,
        "hand": "left"
      },
      {
        "midi": 71,
        "time": 13,
        "duration": 0.25,
        "velocity": 0.63,
        "hand": "right"
      },
      {
        "midi": 72,
        "time": 13.25,
        "duration": 0.25,
        "velocity": 0.63,
        "hand": "right"
      },
      {
        "midi": 55,
        "time": 13.5,
        "duration": 0.5,
        "velocity": 0.63,
        "hand": "left"
      },
      {
        "midi": 74,
        "time": 13.5,
        "duration": 0.5,
        "velocity": 0.63,
        "hand": "right"
      },
      {
        "midi": 59,
        "time": 14,
        "duration": 0.25,
        "velocity": 0.63,
        "hand": "left"
      },
      {
        "midi": 67,
        "time": 14,
        "duration": 0.25,
        "velocity": 0.63,
        "hand": "right"
      },
      {
        "midi": 55,
        "time": 14.5,
        "duration": 0.25,
        "velocity": 0.63,
        "hand": "left"
      },
      {
        "midi": 67,
        "time": 14.5,
        "duration": 0.25,
        "velocity": 0.63,
        "hand": "right"
      },
      {
        "midi": 60,
        "time": 15,
        "duration": 1.5,
        "velocity": 0.63,
        "hand": "right"
      },
      {
        "midi": 76,
        "time": 15,
        "duration": 0.5,
        "velocity": 0.63,
        "hand": "right"
      },
      {
        "midi": 72,
        "time": 15.5,
        "duration": 0.125,
        "velocity": 0.63,
        "hand": "right"
      },
      {
        "midi": 71,
        "time": 15.625,
        "duration": 0.125,
        "velocity": 0.63,
        "hand": "right"
      },
      {
        "midi": 72,
        "time": 15.625,
        "duration": 0.125,
        "velocity": 0.63,
        "hand": "right"
      },
      {
        "midi": 74,
        "time": 15.75,
        "duration": 0.25,
        "velocity": 0.63,
        "hand": "right"
      },
      {
        "midi": 76,
        "time": 16,
        "duration": 0.25,
        "velocity": 0.63,
        "hand": "right"
      },
      {
        "midi": 78,
        "time": 16.25,
        "duration": 0.25,
        "velocity": 0.63,
        "hand": "right"
      },
      {
        "midi": 59,
        "time": 16.5,
        "duration": 0.5,
        "velocity": 0.63,
        "hand": "left"
      },
      {
        "midi": 79,
        "time": 16.5,
        "duration": 0.5,
        "velocity": 0.63,
        "hand": "right"
      },
      {
        "midi": 60,
        "time": 17,
        "duration": 0.25,
        "velocity": 0.63,
        "hand": "right"
      },
      {
        "midi": 67,
        "time": 17,
        "duration": 0.25,
        "velocity": 0.63,
        "hand": "right"
      },
      {
        "midi": 59,
        "time": 17.25,
        "duration": 0.25,
        "velocity": 0.63,
        "hand": "left"
      },
      {
        "midi": 57,
        "time": 17.5,
        "duration": 0.25,
        "velocity": 0.63,
        "hand": "left"
      },
      {
        "midi": 67,
        "time": 17.5,
        "duration": 0.25,
        "velocity": 0.63,
        "hand": "right"
      },
      {
        "midi": 55,
        "time": 17.75,
        "duration": 0.25,
        "velocity": 0.63,
        "hand": "left"
      },
      {
        "midi": 57,
        "time": 18,
        "duration": 1,
        "velocity": 0.63,
        "hand": "left"
      },
      {
        "midi": 72,
        "time": 18,
        "duration": 0.125,
        "velocity": 0.63,
        "hand": "right"
      },
      {
        "midi": 71,
        "time": 18.125,
        "duration": 0.125,
        "velocity": 0.63,
        "hand": "right"
      },
      {
        "midi": 72,
        "time": 18.125,
        "duration": 0.375,
        "velocity": 0.63,
        "hand": "right"
      },
      {
        "midi": 74,
        "time": 18.5,
        "duration": 0.25,
        "velocity": 0.63,
        "hand": "right"
      },
      {
        "midi": 72,
        "time": 18.75,
        "duration": 0.25,
        "velocity": 0.63,
        "hand": "right"
      },
      {
        "midi": 54,
        "time": 19,
        "duration": 0.5,
        "velocity": 0.63,
        "hand": "left"
      },
      {
        "midi": 71,
        "time": 19,
        "duration": 0.25,
        "velocity": 0.63,
        "hand": "right"
      },
      {
        "midi": 69,
        "time": 19.25,
        "duration": 0.25,
        "velocity": 0.63,
        "hand": "right"
      },
      {
        "midi": 55,
        "time": 19.5,
        "duration": 1,
        "velocity": 0.63,
        "hand": "left"
      },
      {
        "midi": 71,
        "time": 19.5,
        "duration": 0.5,
        "velocity": 0.63,
        "hand": "right"
      },
      {
        "midi": 72,
        "time": 20,
        "duration": 0.25,
        "velocity": 0.63,
        "hand": "right"
      },
      {
        "midi": 71,
        "time": 20.25,
        "duration": 0.25,
        "velocity": 0.63,
        "hand": "right"
      },
      {
        "midi": 59,
        "time": 20.5,
        "duration": 0.5,
        "velocity": 0.63,
        "hand": "left"
      },
      {
        "midi": 69,
        "time": 20.5,
        "duration": 0.25,
        "velocity": 0.63,
        "hand": "right"
      },
      {
        "midi": 67,
        "time": 20.75,
        "duration": 0.25,
        "velocity": 0.63,
        "hand": "right"
      },
      {
        "midi": 60,
        "time": 21,
        "duration": 0.5,
        "velocity": 0.63,
        "hand": "right"
      },
      {
        "midi": 69,
        "time": 21,
        "duration": 0.5,
        "velocity": 0.63,
        "hand": "right"
      },
      {
        "midi": 62,
        "time": 21.5,
        "duration": 0.5,
        "velocity": 0.63,
        "hand": "right"
      },
      {
        "midi": 71,
        "time": 21.5,
        "duration": 0.25,
        "velocity": 0.63,
        "hand": "right"
      },
      {
        "midi": 69,
        "time": 21.75,
        "duration": 0.25,
        "velocity": 0.63,
        "hand": "right"
      },
      {
        "midi": 50,
        "time": 22,
        "duration": 0.5,
        "velocity": 0.63,
        "hand": "left"
      },
      {
        "midi": 67,
        "time": 22,
        "duration": 0.25,
        "velocity": 0.63,
        "hand": "right"
      },
      {
        "midi": 66,
        "time": 22.25,
        "duration": 0.25,
        "velocity": 0.63,
        "hand": "right"
      },
      {
        "midi": 55,
        "time": 22.5,
        "duration": 1,
        "velocity": 0.63,
        "hand": "left"
      },
      {
        "midi": 67,
        "time": 22.5,
        "duration": 1.5,
        "velocity": 0.63,
        "hand": "right"
      },
      {
        "midi": 43,
        "time": 23.5,
        "duration": 0.5,
        "velocity": 0.63,
        "hand": "left"
      },
      {
        "midi": 55,
        "time": 24,
        "duration": 1,
        "velocity": 0.63,
        "hand": "left"
      },
      {
        "midi": 62,
        "time": 24,
        "duration": 1,
        "velocity": 0.63,
        "hand": "right"
      },
      {
        "midi": 74,
        "time": 24,
        "duration": 0.5,
        "velocity": 0.63,
        "hand": "right"
      },
      {
        "midi": 67,
        "time": 24.5,
        "duration": 0.25,
        "velocity": 0.63,
        "hand": "right"
      },
      {
        "midi": 69,
        "time": 24.75,
        "duration": 0.25,
        "velocity": 0.63,
        "hand": "right"
      },
      {
        "midi": 57,
        "time": 25,
        "duration": 0.5,
        "velocity": 0.63,
        "hand": "left"
      },
      {
        "midi": 71,
        "time": 25,
        "duration": 0.25,
        "velocity": 0.63,
        "hand": "right"
      },
      {
        "midi": 72,
        "time": 25.25,
        "duration": 0.25,
        "velocity": 0.63,
        "hand": "right"
      },
      {
        "midi": 59,
        "time": 25.5,
        "duration": 1.5,
        "velocity": 0.63,
        "hand": "left"
      },
      {
        "midi": 74,
        "time": 25.5,
        "duration": 0.5,
        "velocity": 0.63,
        "hand": "right"
      },
      {
        "midi": 67,
        "time": 26,
        "duration": 0.25,
        "velocity": 0.63,
        "hand": "right"
      },
      {
        "midi": 67,
        "time": 26.5,
        "duration": 0.25,
        "velocity": 0.63,
        "hand": "right"
      },
      {
        "midi": 60,
        "time": 27,
        "duration": 1.5,
        "velocity": 0.63,
        "hand": "right"
      },
      {
        "midi": 76,
        "time": 27,
        "duration": 0.5,
        "velocity": 0.63,
        "hand": "right"
      },
      {
        "midi": 72,
        "time": 27.5,
        "duration": 0.125,
        "velocity": 0.63,
        "hand": "right"
      },
      {
        "midi": 71,
        "time": 27.625,
        "duration": 0.125,
        "velocity": 0.63,
        "hand": "right"
      },
      {
        "midi": 72,
        "time": 27.625,
        "duration": 0.125,
        "velocity": 0.63,
        "hand": "right"
      },
      {
        "midi": 74,
        "time": 27.75,
        "duration": 0.25,
        "velocity": 0.63,
        "hand": "right"
      },
      {
        "midi": 76,
        "time": 28,
        "duration": 0.25,
        "velocity": 0.63,
        "hand": "right"
      },
      {
        "midi": 78,
        "time": 28.25,
        "duration": 0.25,
        "velocity": 0.63,
        "hand": "right"
      },
      {
        "midi": 59,
        "time": 28.5,
        "duration": 1.5,
        "velocity": 0.63,
        "hand": "left"
      },
      {
        "midi": 79,
        "time": 28.5,
        "duration": 0.5,
        "velocity": 0.63,
        "hand": "right"
      },
      {
        "midi": 67,
        "time": 29,
        "duration": 0.25,
        "velocity": 0.63,
        "hand": "right"
      },
      {
        "midi": 67,
        "time": 29.5,
        "duration": 0.25,
        "velocity": 0.63,
        "hand": "right"
      },
      {
        "midi": 57,
        "time": 30,
        "duration": 1.5,
        "velocity": 0.63,
        "hand": "left"
      },
      {
        "midi": 72,
        "time": 30,
        "duration": 0.125,
        "velocity": 0.63,
        "hand": "right"
      },
      {
        "midi": 71,
        "time": 30.125,
        "duration": 0.125,
        "velocity": 0.63,
        "hand": "right"
      },
      {
        "midi": 72,
        "time": 30.125,
        "duration": 0.375,
        "velocity": 0.63,
        "hand": "right"
      },
      {
        "midi": 74,
        "time": 30.5,
        "duration": 0.25,
        "velocity": 0.63,
        "hand": "right"
      },
      {
        "midi": 72,
        "time": 30.75,
        "duration": 0.25,
        "velocity": 0.63,
        "hand": "right"
      },
      {
        "midi": 71,
        "time": 31,
        "duration": 0.25,
        "velocity": 0.63,
        "hand": "right"
      },
      {
        "midi": 69,
        "time": 31.25,
        "duration": 0.25,
        "velocity": 0.63,
        "hand": "right"
      },
      {
        "midi": 55,
        "time": 31.5,
        "duration": 1.5,
        "velocity": 0.63,
        "hand": "left"
      },
      {
        "midi": 71,
        "time": 31.5,
        "duration": 0.5,
        "velocity": 0.63,
        "hand": "right"
      },
      {
        "midi": 72,
        "time": 32,
        "duration": 0.25,
        "velocity": 0.63,
        "hand": "right"
      },
      {
        "midi": 71,
        "time": 32.25,
        "duration": 0.25,
        "velocity": 0.63,
        "hand": "right"
      },
      {
        "midi": 69,
        "time": 32.5,
        "duration": 0.25,
        "velocity": 0.63,
        "hand": "right"
      },
      {
        "midi": 67,
        "time": 32.75,
        "duration": 0.25,
        "velocity": 0.63,
        "hand": "right"
      },
      {
        "midi": 62,
        "time": 33,
        "duration": 0.5,
        "velocity": 0.63,
        "hand": "right"
      },
      {
        "midi": 66,
        "time": 33,
        "duration": 0.5,
        "velocity": 0.63,
        "hand": "right"
      },
      {
        "midi": 59,
        "time": 33.5,
        "duration": 0.5,
        "velocity": 0.63,
        "hand": "left"
      },
      {
        "midi": 67,
        "time": 33.5,
        "duration": 0.25,
        "velocity": 0.63,
        "hand": "right"
      },
      {
        "midi": 69,
        "time": 33.75,
        "duration": 0.25,
        "velocity": 0.63,
        "hand": "right"
      },
      {
        "midi": 55,
        "time": 34,
        "duration": 0.5,
        "velocity": 0.63,
        "hand": "left"
      },
      {
        "midi": 71,
        "time": 34,
        "duration": 0.25,
        "velocity": 0.63,
        "hand": "right"
      },
      {
        "midi": 67,
        "time": 34.25,
        "duration": 0.25,
        "velocity": 0.63,
        "hand": "right"
      },
      {
        "midi": 62,
        "time": 34.5,
        "duration": 0.5,
        "velocity": 0.63,
        "hand": "right"
      },
      {
        "midi": 71,
        "time": 34.5,
        "duration": 0.5,
        "velocity": 0.63,
        "hand": "right"
      },
      {
        "midi": 50,
        "time": 35,
        "duration": 0.25,
        "velocity": 0.63,
        "hand": "left"
      },
      {
        "midi": 69,
        "time": 35,
        "duration": 1,
        "velocity": 0.63,
        "hand": "right"
      },
      {
        "midi": 60,
        "time": 35.25,
        "duration": 0.25,
        "velocity": 0.63,
        "hand": "right"
      },
      {
        "midi": 59,
        "time": 35.5,
        "duration": 0.25,
        "velocity": 0.63,
        "hand": "left"
      },
      {
        "midi": 57,
        "time": 35.75,
        "duration": 0.25,
        "velocity": 0.63,
        "hand": "left"
      },
      {
        "midi": 59,
        "time": 36,
        "duration": 1,
        "velocity": 0.63,
        "hand": "left"
      },
      {
        "midi": 74,
        "time": 36,
        "duration": 0.5,
        "velocity": 0.63,
        "hand": "right"
      },
      {
        "midi": 67,
        "time": 36.5,
        "duration": 0.25,
        "velocity": 0.63,
        "hand": "right"
      },
      {
        "midi": 69,
        "time": 36.75,
        "duration": 0.25,
        "velocity": 0.63,
        "hand": "right"
      },
      {
        "midi": 57,
        "time": 37,
        "duration": 0.5,
        "velocity": 0.63,
        "hand": "left"
      },
      {
        "midi": 71,
        "time": 37,
        "duration": 0.25,
        "velocity": 0.63,
        "hand": "right"
      },
      {
        "midi": 72,
        "time": 37.25,
        "duration": 0.25,
        "velocity": 0.63,
        "hand": "right"
      },
      {
        "midi": 55,
        "time": 37.5,
        "duration": 0.5,
        "velocity": 0.63,
        "hand": "left"
      },
      {
        "midi": 74,
        "time": 37.5,
        "duration": 0.5,
        "velocity": 0.63,
        "hand": "right"
      },
      {
        "midi": 59,
        "time": 38,
        "duration": 0.25,
        "velocity": 0.63,
        "hand": "left"
      },
      {
        "midi": 67,
        "time": 38,
        "duration": 0.25,
        "velocity": 0.63,
        "hand": "right"
      },
      {
        "midi": 55,
        "time": 38.5,
        "duration": 0.25,
        "velocity": 0.63,
        "hand": "left"
      },
      {
        "midi": 67,
        "time": 38.5,
        "duration": 0.25,
        "velocity": 0.63,
        "hand": "right"
      },
      {
        "midi": 60,
        "time": 39,
        "duration": 1.5,
        "velocity": 0.63,
        "hand": "right"
      },
      {
        "midi": 76,
        "time": 39,
        "duration": 0.5,
        "velocity": 0.63,
        "hand": "right"
      },
      {
        "midi": 72,
        "time": 39.5,
        "duration": 0.125,
        "velocity": 0.63,
        "hand": "right"
      },
      {
        "midi": 71,
        "time": 39.625,
        "duration": 0.125,
        "velocity": 0.63,
        "hand": "right"
      },
      {
        "midi": 72,
        "time": 39.625,
        "duration": 0.125,
        "velocity": 0.63,
        "hand": "right"
      },
      {
        "midi": 74,
        "time": 39.75,
        "duration": 0.25,
        "velocity": 0.63,
        "hand": "right"
      },
      {
        "midi": 76,
        "time": 40,
        "duration": 0.25,
        "velocity": 0.63,
        "hand": "right"
      },
      {
        "midi": 78,
        "time": 40.25,
        "duration": 0.25,
        "velocity": 0.63,
        "hand": "right"
      },
      {
        "midi": 59,
        "time": 40.5,
        "duration": 0.5,
        "velocity": 0.63,
        "hand": "left"
      },
      {
        "midi": 79,
        "time": 40.5,
        "duration": 0.5,
        "velocity": 0.63,
        "hand": "right"
      },
      {
        "midi": 60,
        "time": 41,
        "duration": 0.25,
        "velocity": 0.63,
        "hand": "right"
      },
      {
        "midi": 67,
        "time": 41,
        "duration": 0.25,
        "velocity": 0.63,
        "hand": "right"
      },
      {
        "midi": 59,
        "time": 41.25,
        "duration": 0.25,
        "velocity": 0.63,
        "hand": "left"
      },
      {
        "midi": 57,
        "time": 41.5,
        "duration": 0.25,
        "velocity": 0.63,
        "hand": "left"
      },
      {
        "midi": 67,
        "time": 41.5,
        "duration": 0.25,
        "velocity": 0.63,
        "hand": "right"
      },
      {
        "midi": 55,
        "time": 41.75,
        "duration": 0.25,
        "velocity": 0.63,
        "hand": "left"
      },
      {
        "midi": 57,
        "time": 42,
        "duration": 1,
        "velocity": 0.63,
        "hand": "left"
      },
      {
        "midi": 72,
        "time": 42,
        "duration": 0.125,
        "velocity": 0.63,
        "hand": "right"
      },
      {
        "midi": 71,
        "time": 42.125,
        "duration": 0.125,
        "velocity": 0.63,
        "hand": "right"
      },
      {
        "midi": 72,
        "time": 42.125,
        "duration": 0.375,
        "velocity": 0.63,
        "hand": "right"
      },
      {
        "midi": 74,
        "time": 42.5,
        "duration": 0.25,
        "velocity": 0.63,
        "hand": "right"
      },
      {
        "midi": 72,
        "time": 42.75,
        "duration": 0.25,
        "velocity": 0.63,
        "hand": "right"
      },
      {
        "midi": 54,
        "time": 43,
        "duration": 0.5,
        "velocity": 0.63,
        "hand": "left"
      },
      {
        "midi": 71,
        "time": 43,
        "duration": 0.25,
        "velocity": 0.63,
        "hand": "right"
      },
      {
        "midi": 69,
        "time": 43.25,
        "duration": 0.25,
        "velocity": 0.63,
        "hand": "right"
      },
      {
        "midi": 55,
        "time": 43.5,
        "duration": 1,
        "velocity": 0.63,
        "hand": "left"
      },
      {
        "midi": 71,
        "time": 43.5,
        "duration": 0.5,
        "velocity": 0.63,
        "hand": "right"
      },
      {
        "midi": 72,
        "time": 44,
        "duration": 0.25,
        "velocity": 0.63,
        "hand": "right"
      },
      {
        "midi": 71,
        "time": 44.25,
        "duration": 0.25,
        "velocity": 0.63,
        "hand": "right"
      },
      {
        "midi": 59,
        "time": 44.5,
        "duration": 0.5,
        "velocity": 0.63,
        "hand": "left"
      },
      {
        "midi": 69,
        "time": 44.5,
        "duration": 0.25,
        "velocity": 0.63,
        "hand": "right"
      },
      {
        "midi": 67,
        "time": 44.75,
        "duration": 0.25,
        "velocity": 0.63,
        "hand": "right"
      },
      {
        "midi": 60,
        "time": 45,
        "duration": 0.5,
        "velocity": 0.63,
        "hand": "right"
      },
      {
        "midi": 69,
        "time": 45,
        "duration": 0.5,
        "velocity": 0.63,
        "hand": "right"
      },
      {
        "midi": 62,
        "time": 45.5,
        "duration": 0.5,
        "velocity": 0.63,
        "hand": "right"
      },
      {
        "midi": 71,
        "time": 45.5,
        "duration": 0.25,
        "velocity": 0.63,
        "hand": "right"
      },
      {
        "midi": 69,
        "time": 45.75,
        "duration": 0.25,
        "velocity": 0.63,
        "hand": "right"
      },
      {
        "midi": 50,
        "time": 46,
        "duration": 0.5,
        "velocity": 0.63,
        "hand": "left"
      },
      {
        "midi": 67,
        "time": 46,
        "duration": 0.25,
        "velocity": 0.63,
        "hand": "right"
      },
      {
        "midi": 66,
        "time": 46.25,
        "duration": 0.25,
        "velocity": 0.63,
        "hand": "right"
      },
      {
        "midi": 55,
        "time": 46.5,
        "duration": 1,
        "velocity": 0.63,
        "hand": "left"
      },
      {
        "midi": 67,
        "time": 46.5,
        "duration": 1.5,
        "velocity": 0.63,
        "hand": "right"
      },
      {
        "midi": 43,
        "time": 47.5,
        "duration": 0.5,
        "velocity": 0.63,
        "hand": "left"
      },
      {
        "midi": 55,
        "time": 48,
        "duration": 1.5,
        "velocity": 0.63,
        "hand": "left"
      },
      {
        "midi": 83,
        "time": 48,
        "duration": 0.5,
        "velocity": 0.63,
        "hand": "right"
      },
      {
        "midi": 79,
        "time": 48.5,
        "duration": 0.25,
        "velocity": 0.63,
        "hand": "right"
      },
      {
        "midi": 81,
        "time": 48.75,
        "duration": 0.25,
        "velocity": 0.63,
        "hand": "right"
      },
      {
        "midi": 83,
        "time": 49,
        "duration": 0.25,
        "velocity": 0.63,
        "hand": "right"
      },
      {
        "midi": 79,
        "time": 49.25,
        "duration": 0.25,
        "velocity": 0.63,
        "hand": "right"
      },
      {
        "midi": 54,
        "time": 49.5,
        "duration": 1.5,
        "velocity": 0.63,
        "hand": "left"
      },
      {
        "midi": 81,
        "time": 49.5,
        "duration": 0.5,
        "velocity": 0.63,
        "hand": "right"
      },
      {
        "midi": 74,
        "time": 50,
        "duration": 0.25,
        "velocity": 0.63,
        "hand": "right"
      },
      {
        "midi": 76,
        "time": 50.25,
        "duration": 0.25,
        "velocity": 0.63,
        "hand": "right"
      },
      {
        "midi": 78,
        "time": 50.5,
        "duration": 0.25,
        "velocity": 0.63,
        "hand": "right"
      },
      {
        "midi": 74,
        "time": 50.75,
        "duration": 0.25,
        "velocity": 0.63,
        "hand": "right"
      },
      {
        "midi": 52,
        "time": 51,
        "duration": 0.5,
        "velocity": 0.63,
        "hand": "left"
      },
      {
        "midi": 79,
        "time": 51,
        "duration": 0.5,
        "velocity": 0.63,
        "hand": "right"
      },
      {
        "midi": 55,
        "time": 51.5,
        "duration": 0.5,
        "velocity": 0.63,
        "hand": "left"
      },
      {
        "midi": 76,
        "time": 51.5,
        "duration": 0.25,
        "velocity": 0.63,
        "hand": "right"
      },
      {
        "midi": 78,
        "time": 51.75,
        "duration": 0.25,
        "velocity": 0.63,
        "hand": "right"
      },
      {
        "midi": 52,
        "time": 52,
        "duration": 0.5,
        "velocity": 0.63,
        "hand": "left"
      },
      {
        "midi": 79,
        "time": 52,
        "duration": 0.25,
        "velocity": 0.63,
        "hand": "right"
      },
      {
        "midi": 74,
        "time": 52.25,
        "duration": 0.25,
        "velocity": 0.63,
        "hand": "right"
      },
      {
        "midi": 57,
        "time": 52.5,
        "duration": 1,
        "velocity": 0.63,
        "hand": "left"
      },
      {
        "midi": 73,
        "time": 52.5,
        "duration": 0.5,
        "velocity": 0.63,
        "hand": "right"
      },
      {
        "midi": 71,
        "time": 53,
        "duration": 0.25,
        "velocity": 0.63,
        "hand": "right"
      },
      {
        "midi": 73,
        "time": 53.25,
        "duration": 0.25,
        "velocity": 0.63,
        "hand": "right"
      },
      {
        "midi": 45,
        "time": 53.5,
        "duration": 0.5,
        "velocity": 0.63,
        "hand": "left"
      },
      {
        "midi": 69,
        "time": 53.5,
        "duration": 0.5,
        "velocity": 0.63,
        "hand": "right"
      },
      {
        "midi": 57,
        "time": 54,
        "duration": 1.5,
        "velocity": 0.63,
        "hand": "left"
      },
      {
        "midi": 69,
        "time": 54,
        "duration": 0.25,
        "velocity": 0.63,
        "hand": "right"
      },
      {
        "midi": 71,
        "time": 54.25,
        "duration": 0.25,
        "velocity": 0.63,
        "hand": "right"
      },
      {
        "midi": 73,
        "time": 54.5,
        "duration": 0.25,
        "velocity": 0.63,
        "hand": "right"
      },
      {
        "midi": 74,
        "time": 54.75,
        "duration": 0.25,
        "velocity": 0.63,
        "hand": "right"
      },
      {
        "midi": 76,
        "time": 55,
        "duration": 0.25,
        "velocity": 0.63,
        "hand": "right"
      },
      {
        "midi": 78,
        "time": 55.25,
        "duration": 0.25,
        "velocity": 0.63,
        "hand": "right"
      },
      {
        "midi": 59,
        "time": 55.5,
        "duration": 0.5,
        "velocity": 0.63,
        "hand": "left"
      },
      {
        "midi": 79,
        "time": 55.5,
        "duration": 0.5,
        "velocity": 0.63,
        "hand": "right"
      },
      {
        "midi": 62,
        "time": 56,
        "duration": 0.5,
        "velocity": 0.63,
        "hand": "right"
      },
      {
        "midi": 78,
        "time": 56,
        "duration": 0.5,
        "velocity": 0.63,
        "hand": "right"
      },
      {
        "midi": 61,
        "time": 56.5,
        "duration": 0.5,
        "velocity": 0.63,
        "hand": "right"
      },
      {
        "midi": 76,
        "time": 56.5,
        "duration": 0.5,
        "velocity": 0.63,
        "hand": "right"
      },
      {
        "midi": 62,
        "time": 57,
        "duration": 0.5,
        "velocity": 0.63,
        "hand": "right"
      },
      {
        "midi": 78,
        "time": 57,
        "duration": 0.5,
        "velocity": 0.63,
        "hand": "right"
      },
      {
        "midi": 54,
        "time": 57.5,
        "duration": 0.5,
        "velocity": 0.63,
        "hand": "left"
      },
      {
        "midi": 69,
        "time": 57.5,
        "duration": 0.5,
        "velocity": 0.63,
        "hand": "right"
      },
      {
        "midi": 57,
        "time": 58,
        "duration": 0.5,
        "velocity": 0.63,
        "hand": "left"
      },
      {
        "midi": 73,
        "time": 58,
        "duration": 0.5,
        "velocity": 0.63,
        "hand": "right"
      },
      {
        "midi": 62,
        "time": 58.5,
        "duration": 0.5,
        "velocity": 0.63,
        "hand": "right"
      },
      {
        "midi": 74,
        "time": 58.5,
        "duration": 1.5,
        "velocity": 0.63,
        "hand": "right"
      },
      {
        "midi": 50,
        "time": 59,
        "duration": 0.5,
        "velocity": 0.63,
        "hand": "left"
      },
      {
        "midi": 60,
        "time": 59.5,
        "duration": 0.5,
        "velocity": 0.63,
        "hand": "right"
      },
      {
        "midi": 59,
        "time": 60,
        "duration": 1,
        "velocity": 0.63,
        "hand": "left"
      },
      {
        "midi": 74,
        "time": 60,
        "duration": 0.5,
        "velocity": 0.63,
        "hand": "right"
      },
      {
        "midi": 62,
        "time": 60.5,
        "duration": 1,
        "velocity": 0.63,
        "hand": "right"
      },
      {
        "midi": 67,
        "time": 60.5,
        "duration": 0.25,
        "velocity": 0.63,
        "hand": "right"
      },
      {
        "midi": 66,
        "time": 60.75,
        "duration": 0.25,
        "velocity": 0.63,
        "hand": "right"
      },
      {
        "midi": 59,
        "time": 61,
        "duration": 0.5,
        "velocity": 0.63,
        "hand": "left"
      },
      {
        "midi": 67,
        "time": 61,
        "duration": 0.5,
        "velocity": 0.63,
        "hand": "right"
      },
      {
        "midi": 60,
        "time": 61.5,
        "duration": 1,
        "velocity": 0.63,
        "hand": "right"
      },
      {
        "midi": 76,
        "time": 61.5,
        "duration": 0.5,
        "velocity": 0.63,
        "hand": "right"
      },
      {
        "midi": 64,
        "time": 62,
        "duration": 1,
        "velocity": 0.63,
        "hand": "right"
      },
      {
        "midi": 67,
        "time": 62,
        "duration": 0.25,
        "velocity": 0.63,
        "hand": "right"
      },
      {
        "midi": 66,
        "time": 62.25,
        "duration": 0.25,
        "velocity": 0.63,
        "hand": "right"
      },
      {
        "midi": 60,
        "time": 62.5,
        "duration": 0.5,
        "velocity": 0.63,
        "hand": "right"
      },
      {
        "midi": 67,
        "time": 62.5,
        "duration": 0.5,
        "velocity": 0.63,
        "hand": "right"
      },
      {
        "midi": 59,
        "time": 63,
        "duration": 0.5,
        "velocity": 0.63,
        "hand": "left"
      },
      {
        "midi": 74,
        "time": 63,
        "duration": 0.5,
        "velocity": 0.63,
        "hand": "right"
      },
      {
        "midi": 57,
        "time": 63.5,
        "duration": 0.5,
        "velocity": 0.63,
        "hand": "left"
      },
      {
        "midi": 72,
        "time": 63.5,
        "duration": 0.5,
        "velocity": 0.63,
        "hand": "right"
      },
      {
        "midi": 55,
        "time": 64,
        "duration": 0.5,
        "velocity": 0.63,
        "hand": "left"
      },
      {
        "midi": 71,
        "time": 64,
        "duration": 0.5,
        "velocity": 0.63,
        "hand": "right"
      },
      {
        "midi": 62,
        "time": 64.5,
        "duration": 1,
        "velocity": 0.63,
        "hand": "right"
      },
      {
        "midi": 69,
        "time": 64.5,
        "duration": 0.25,
        "velocity": 0.63,
        "hand": "right"
      },
      {
        "midi": 67,
        "time": 64.75,
        "duration": 0.25,
        "velocity": 0.63,
        "hand": "right"
      },
      {
        "midi": 66,
        "time": 65,
        "duration": 0.25,
        "velocity": 0.63,
        "hand": "right"
      },
      {
        "midi": 67,
        "time": 65.25,
        "duration": 0.25,
        "velocity": 0.63,
        "hand": "right"
      },
      {
        "midi": 69,
        "time": 65.5,
        "duration": 0.5,
        "velocity": 0.63,
        "hand": "right"
      },
      {
        "midi": 50,
        "time": 66,
        "duration": 1.5,
        "velocity": 0.63,
        "hand": "left"
      },
      {
        "midi": 62,
        "time": 66,
        "duration": 0.25,
        "velocity": 0.63,
        "hand": "right"
      },
      {
        "midi": 64,
        "time": 66.25,
        "duration": 0.25,
        "velocity": 0.63,
        "hand": "right"
      },
      {
        "midi": 66,
        "time": 66.5,
        "duration": 0.25,
        "velocity": 0.63,
        "hand": "right"
      },
      {
        "midi": 67,
        "time": 66.75,
        "duration": 0.25,
        "velocity": 0.63,
        "hand": "right"
      },
      {
        "midi": 54,
        "time": 67,
        "duration": 0.5,
        "velocity": 0.63,
        "hand": "left"
      },
      {
        "midi": 69,
        "time": 67,
        "duration": 0.25,
        "velocity": 0.63,
        "hand": "right"
      },
      {
        "midi": 71,
        "time": 67.25,
        "duration": 0.25,
        "velocity": 0.63,
        "hand": "right"
      },
      {
        "midi": 52,
        "time": 67.5,
        "duration": 0.5,
        "velocity": 0.63,
        "hand": "left"
      },
      {
        "midi": 72,
        "time": 67.5,
        "duration": 0.5,
        "velocity": 0.63,
        "hand": "right"
      },
      {
        "midi": 55,
        "time": 68,
        "duration": 0.5,
        "velocity": 0.63,
        "hand": "left"
      },
      {
        "midi": 72,
        "time": 68,
        "duration": 0.125,
        "velocity": 0.63,
        "hand": "right"
      },
      {
        "midi": 71,
        "time": 68.125,
        "duration": 0.125,
        "velocity": 0.63,
        "hand": "right"
      },
      {
        "midi": 72,
        "time": 68.125,
        "duration": 0.125,
        "velocity": 0.63,
        "hand": "right"
      },
      {
        "midi": 71,
        "time": 68.25,
        "duration": 0.25,
        "velocity": 0.63,
        "hand": "right"
      },
      {
        "midi": 54,
        "time": 68.5,
        "duration": 0.5,
        "velocity": 0.63,
        "hand": "left"
      },
      {
        "midi": 69,
        "time": 68.5,
        "duration": 0.5,
        "velocity": 0.63,
        "hand": "right"
      },
      {
        "midi": 55,
        "time": 69,
        "duration": 0.5,
        "velocity": 0.63,
        "hand": "left"
      },
      {
        "midi": 71,
        "time": 69,
        "duration": 0.25,
        "velocity": 0.63,
        "hand": "right"
      },
      {
        "midi": 74,
        "time": 69.25,
        "duration": 0.25,
        "velocity": 0.63,
        "hand": "right"
      },
      {
        "midi": 47,
        "time": 69.5,
        "duration": 0.5,
        "velocity": 0.63,
        "hand": "left"
      },
      {
        "midi": 67,
        "time": 69.5,
        "duration": 0.5,
        "velocity": 0.63,
        "hand": "right"
      },
      {
        "midi": 50,
        "time": 70,
        "duration": 0.5,
        "velocity": 0.63,
        "hand": "left"
      },
      {
        "midi": 66,
        "time": 70,
        "duration": 0.5,
        "velocity": 0.63,
        "hand": "right"
      },
      {
        "midi": 55,
        "time": 70.5,
        "duration": 0.5,
        "velocity": 0.63,
        "hand": "left"
      },
      {
        "midi": 62,
        "time": 70.5,
        "duration": 1.5,
        "velocity": 0.63,
        "hand": "right"
      },
      {
        "midi": 67,
        "time": 70.5,
        "duration": 1.5,
        "velocity": 0.63,
        "hand": "right"
      },
      {
        "midi": 50,
        "time": 71,
        "duration": 0.5,
        "velocity": 0.63,
        "hand": "left"
      },
      {
        "midi": 43,
        "time": 71.5,
        "duration": 0.5,
        "velocity": 0.63,
        "hand": "left"
      },
      {
        "midi": 55,
        "time": 72,
        "duration": 1.5,
        "velocity": 0.63,
        "hand": "left"
      },
      {
        "midi": 83,
        "time": 72,
        "duration": 0.5,
        "velocity": 0.63,
        "hand": "right"
      },
      {
        "midi": 79,
        "time": 72.5,
        "duration": 0.25,
        "velocity": 0.63,
        "hand": "right"
      },
      {
        "midi": 81,
        "time": 72.75,
        "duration": 0.25,
        "velocity": 0.63,
        "hand": "right"
      },
      {
        "midi": 83,
        "time": 73,
        "duration": 0.25,
        "velocity": 0.63,
        "hand": "right"
      },
      {
        "midi": 79,
        "time": 73.25,
        "duration": 0.25,
        "velocity": 0.63,
        "hand": "right"
      },
      {
        "midi": 54,
        "time": 73.5,
        "duration": 1.5,
        "velocity": 0.63,
        "hand": "left"
      },
      {
        "midi": 81,
        "time": 73.5,
        "duration": 0.5,
        "velocity": 0.63,
        "hand": "right"
      },
      {
        "midi": 74,
        "time": 74,
        "duration": 0.25,
        "velocity": 0.63,
        "hand": "right"
      },
      {
        "midi": 76,
        "time": 74.25,
        "duration": 0.25,
        "velocity": 0.63,
        "hand": "right"
      },
      {
        "midi": 78,
        "time": 74.5,
        "duration": 0.25,
        "velocity": 0.63,
        "hand": "right"
      },
      {
        "midi": 74,
        "time": 74.75,
        "duration": 0.25,
        "velocity": 0.63,
        "hand": "right"
      },
      {
        "midi": 52,
        "time": 75,
        "duration": 0.5,
        "velocity": 0.63,
        "hand": "left"
      },
      {
        "midi": 79,
        "time": 75,
        "duration": 0.5,
        "velocity": 0.63,
        "hand": "right"
      },
      {
        "midi": 55,
        "time": 75.5,
        "duration": 0.5,
        "velocity": 0.63,
        "hand": "left"
      },
      {
        "midi": 76,
        "time": 75.5,
        "duration": 0.25,
        "velocity": 0.63,
        "hand": "right"
      },
      {
        "midi": 78,
        "time": 75.75,
        "duration": 0.25,
        "velocity": 0.63,
        "hand": "right"
      },
      {
        "midi": 52,
        "time": 76,
        "duration": 0.5,
        "velocity": 0.63,
        "hand": "left"
      },
      {
        "midi": 79,
        "time": 76,
        "duration": 0.25,
        "velocity": 0.63,
        "hand": "right"
      },
      {
        "midi": 74,
        "time": 76.25,
        "duration": 0.25,
        "velocity": 0.63,
        "hand": "right"
      },
      {
        "midi": 57,
        "time": 76.5,
        "duration": 1,
        "velocity": 0.63,
        "hand": "left"
      },
      {
        "midi": 73,
        "time": 76.5,
        "duration": 0.5,
        "velocity": 0.63,
        "hand": "right"
      },
      {
        "midi": 71,
        "time": 77,
        "duration": 0.25,
        "velocity": 0.63,
        "hand": "right"
      },
      {
        "midi": 73,
        "time": 77.25,
        "duration": 0.25,
        "velocity": 0.63,
        "hand": "right"
      },
      {
        "midi": 45,
        "time": 77.5,
        "duration": 0.5,
        "velocity": 0.63,
        "hand": "left"
      },
      {
        "midi": 69,
        "time": 77.5,
        "duration": 0.5,
        "velocity": 0.63,
        "hand": "right"
      },
      {
        "midi": 57,
        "time": 78,
        "duration": 1.5,
        "velocity": 0.63,
        "hand": "left"
      },
      {
        "midi": 69,
        "time": 78,
        "duration": 0.25,
        "velocity": 0.63,
        "hand": "right"
      },
      {
        "midi": 71,
        "time": 78.25,
        "duration": 0.25,
        "velocity": 0.63,
        "hand": "right"
      },
      {
        "midi": 73,
        "time": 78.5,
        "duration": 0.25,
        "velocity": 0.63,
        "hand": "right"
      },
      {
        "midi": 74,
        "time": 78.75,
        "duration": 0.25,
        "velocity": 0.63,
        "hand": "right"
      },
      {
        "midi": 76,
        "time": 79,
        "duration": 0.25,
        "velocity": 0.63,
        "hand": "right"
      },
      {
        "midi": 78,
        "time": 79.25,
        "duration": 0.25,
        "velocity": 0.63,
        "hand": "right"
      },
      {
        "midi": 59,
        "time": 79.5,
        "duration": 0.5,
        "velocity": 0.63,
        "hand": "left"
      },
      {
        "midi": 79,
        "time": 79.5,
        "duration": 0.5,
        "velocity": 0.63,
        "hand": "right"
      },
      {
        "midi": 62,
        "time": 80,
        "duration": 0.5,
        "velocity": 0.63,
        "hand": "right"
      },
      {
        "midi": 78,
        "time": 80,
        "duration": 0.5,
        "velocity": 0.63,
        "hand": "right"
      },
      {
        "midi": 61,
        "time": 80.5,
        "duration": 0.5,
        "velocity": 0.63,
        "hand": "right"
      },
      {
        "midi": 76,
        "time": 80.5,
        "duration": 0.5,
        "velocity": 0.63,
        "hand": "right"
      },
      {
        "midi": 62,
        "time": 81,
        "duration": 0.5,
        "velocity": 0.63,
        "hand": "right"
      },
      {
        "midi": 78,
        "time": 81,
        "duration": 0.5,
        "velocity": 0.63,
        "hand": "right"
      },
      {
        "midi": 54,
        "time": 81.5,
        "duration": 0.5,
        "velocity": 0.63,
        "hand": "left"
      },
      {
        "midi": 69,
        "time": 81.5,
        "duration": 0.5,
        "velocity": 0.63,
        "hand": "right"
      },
      {
        "midi": 57,
        "time": 82,
        "duration": 0.5,
        "velocity": 0.63,
        "hand": "left"
      },
      {
        "midi": 73,
        "time": 82,
        "duration": 0.5,
        "velocity": 0.63,
        "hand": "right"
      },
      {
        "midi": 62,
        "time": 82.5,
        "duration": 0.5,
        "velocity": 0.63,
        "hand": "right"
      },
      {
        "midi": 74,
        "time": 82.5,
        "duration": 1.5,
        "velocity": 0.63,
        "hand": "right"
      },
      {
        "midi": 50,
        "time": 83,
        "duration": 0.5,
        "velocity": 0.63,
        "hand": "left"
      },
      {
        "midi": 60,
        "time": 83.5,
        "duration": 0.5,
        "velocity": 0.63,
        "hand": "right"
      },
      {
        "midi": 59,
        "time": 84,
        "duration": 1,
        "velocity": 0.63,
        "hand": "left"
      },
      {
        "midi": 74,
        "time": 84,
        "duration": 0.5,
        "velocity": 0.63,
        "hand": "right"
      },
      {
        "midi": 62,
        "time": 84.5,
        "duration": 1,
        "velocity": 0.63,
        "hand": "right"
      },
      {
        "midi": 67,
        "time": 84.5,
        "duration": 0.25,
        "velocity": 0.63,
        "hand": "right"
      },
      {
        "midi": 66,
        "time": 84.75,
        "duration": 0.25,
        "velocity": 0.63,
        "hand": "right"
      },
      {
        "midi": 59,
        "time": 85,
        "duration": 0.5,
        "velocity": 0.63,
        "hand": "left"
      },
      {
        "midi": 67,
        "time": 85,
        "duration": 0.5,
        "velocity": 0.63,
        "hand": "right"
      },
      {
        "midi": 60,
        "time": 85.5,
        "duration": 1,
        "velocity": 0.63,
        "hand": "right"
      },
      {
        "midi": 76,
        "time": 85.5,
        "duration": 0.5,
        "velocity": 0.63,
        "hand": "right"
      },
      {
        "midi": 64,
        "time": 86,
        "duration": 1,
        "velocity": 0.63,
        "hand": "right"
      },
      {
        "midi": 67,
        "time": 86,
        "duration": 0.25,
        "velocity": 0.63,
        "hand": "right"
      },
      {
        "midi": 66,
        "time": 86.25,
        "duration": 0.25,
        "velocity": 0.63,
        "hand": "right"
      },
      {
        "midi": 60,
        "time": 86.5,
        "duration": 0.5,
        "velocity": 0.63,
        "hand": "right"
      },
      {
        "midi": 67,
        "time": 86.5,
        "duration": 0.5,
        "velocity": 0.63,
        "hand": "right"
      },
      {
        "midi": 59,
        "time": 87,
        "duration": 0.5,
        "velocity": 0.63,
        "hand": "left"
      },
      {
        "midi": 74,
        "time": 87,
        "duration": 0.5,
        "velocity": 0.63,
        "hand": "right"
      },
      {
        "midi": 57,
        "time": 87.5,
        "duration": 0.5,
        "velocity": 0.63,
        "hand": "left"
      },
      {
        "midi": 72,
        "time": 87.5,
        "duration": 0.5,
        "velocity": 0.63,
        "hand": "right"
      },
      {
        "midi": 55,
        "time": 88,
        "duration": 0.5,
        "velocity": 0.63,
        "hand": "left"
      },
      {
        "midi": 71,
        "time": 88,
        "duration": 0.5,
        "velocity": 0.63,
        "hand": "right"
      },
      {
        "midi": 62,
        "time": 88.5,
        "duration": 1,
        "velocity": 0.63,
        "hand": "right"
      },
      {
        "midi": 69,
        "time": 88.5,
        "duration": 0.25,
        "velocity": 0.63,
        "hand": "right"
      },
      {
        "midi": 67,
        "time": 88.75,
        "duration": 0.25,
        "velocity": 0.63,
        "hand": "right"
      },
      {
        "midi": 66,
        "time": 89,
        "duration": 0.25,
        "velocity": 0.63,
        "hand": "right"
      },
      {
        "midi": 67,
        "time": 89.25,
        "duration": 0.25,
        "velocity": 0.63,
        "hand": "right"
      },
      {
        "midi": 69,
        "time": 89.5,
        "duration": 0.5,
        "velocity": 0.63,
        "hand": "right"
      },
      {
        "midi": 50,
        "time": 90,
        "duration": 1.5,
        "velocity": 0.63,
        "hand": "left"
      },
      {
        "midi": 62,
        "time": 90,
        "duration": 0.25,
        "velocity": 0.63,
        "hand": "right"
      },
      {
        "midi": 64,
        "time": 90.25,
        "duration": 0.25,
        "velocity": 0.63,
        "hand": "right"
      },
      {
        "midi": 66,
        "time": 90.5,
        "duration": 0.25,
        "velocity": 0.63,
        "hand": "right"
      },
      {
        "midi": 67,
        "time": 90.75,
        "duration": 0.25,
        "velocity": 0.63,
        "hand": "right"
      },
      {
        "midi": 54,
        "time": 91,
        "duration": 0.5,
        "velocity": 0.63,
        "hand": "left"
      },
      {
        "midi": 69,
        "time": 91,
        "duration": 0.25,
        "velocity": 0.63,
        "hand": "right"
      },
      {
        "midi": 71,
        "time": 91.25,
        "duration": 0.25,
        "velocity": 0.63,
        "hand": "right"
      },
      {
        "midi": 52,
        "time": 91.5,
        "duration": 0.5,
        "velocity": 0.63,
        "hand": "left"
      },
      {
        "midi": 72,
        "time": 91.5,
        "duration": 0.5,
        "velocity": 0.63,
        "hand": "right"
      },
      {
        "midi": 55,
        "time": 92,
        "duration": 0.5,
        "velocity": 0.63,
        "hand": "left"
      },
      {
        "midi": 72,
        "time": 92,
        "duration": 0.125,
        "velocity": 0.63,
        "hand": "right"
      },
      {
        "midi": 71,
        "time": 92.125,
        "duration": 0.125,
        "velocity": 0.63,
        "hand": "right"
      },
      {
        "midi": 72,
        "time": 92.125,
        "duration": 0.125,
        "velocity": 0.63,
        "hand": "right"
      },
      {
        "midi": 71,
        "time": 92.25,
        "duration": 0.25,
        "velocity": 0.63,
        "hand": "right"
      },
      {
        "midi": 54,
        "time": 92.5,
        "duration": 0.5,
        "velocity": 0.63,
        "hand": "left"
      },
      {
        "midi": 69,
        "time": 92.5,
        "duration": 0.5,
        "velocity": 0.63,
        "hand": "right"
      },
      {
        "midi": 55,
        "time": 93,
        "duration": 0.5,
        "velocity": 0.63,
        "hand": "left"
      },
      {
        "midi": 71,
        "time": 93,
        "duration": 0.25,
        "velocity": 0.63,
        "hand": "right"
      },
      {
        "midi": 74,
        "time": 93.25,
        "duration": 0.25,
        "velocity": 0.63,
        "hand": "right"
      },
      {
        "midi": 47,
        "time": 93.5,
        "duration": 0.5,
        "velocity": 0.63,
        "hand": "left"
      },
      {
        "midi": 67,
        "time": 93.5,
        "duration": 0.5,
        "velocity": 0.63,
        "hand": "right"
      },
      {
        "midi": 50,
        "time": 94,
        "duration": 0.5,
        "velocity": 0.63,
        "hand": "left"
      },
      {
        "midi": 66,
        "time": 94,
        "duration": 0.5,
        "velocity": 0.63,
        "hand": "right"
      },
      {
        "midi": 55,
        "time": 94.5,
        "duration": 0.5,
        "velocity": 0.63,
        "hand": "left"
      },
      {
        "midi": 62,
        "time": 94.5,
        "duration": 1.5,
        "velocity": 0.63,
        "hand": "right"
      },
      {
        "midi": 67,
        "time": 94.5,
        "duration": 1.5,
        "velocity": 0.63,
        "hand": "right"
      },
      {
        "midi": 50,
        "time": 95,
        "duration": 0.5,
        "velocity": 0.63,
        "hand": "left"
      },
      {
        "midi": 43,
        "time": 95.5,
        "duration": 0.5,
        "velocity": 0.63,
        "hand": "left"
      }
    ],
    "hard": [
      {
        "midi": 55,
        "time": 0,
        "duration": 1,
        "velocity": 0.63,
        "hand": "left"
      },
      {
        "midi": 59,
        "time": 0,
        "duration": 1,
        "velocity": 0.63,
        "hand": "left"
      },
      {
        "midi": 62,
        "time": 0,
        "duration": 1,
        "velocity": 0.63,
        "hand": "right"
      },
      {
        "midi": 74,
        "time": 0,
        "duration": 0.5,
        "velocity": 0.63,
        "hand": "right"
      },
      {
        "midi": 67,
        "time": 0.5,
        "duration": 0.25,
        "velocity": 0.63,
        "hand": "right"
      },
      {
        "midi": 69,
        "time": 0.75,
        "duration": 0.25,
        "velocity": 0.63,
        "hand": "right"
      },
      {
        "midi": 57,
        "time": 1,
        "duration": 0.5,
        "velocity": 0.63,
        "hand": "left"
      },
      {
        "midi": 71,
        "time": 1,
        "duration": 0.25,
        "velocity": 0.63,
        "hand": "right"
      },
      {
        "midi": 72,
        "time": 1.25,
        "duration": 0.25,
        "velocity": 0.63,
        "hand": "right"
      },
      {
        "midi": 59,
        "time": 1.5,
        "duration": 1.5,
        "velocity": 0.63,
        "hand": "left"
      },
      {
        "midi": 74,
        "time": 1.5,
        "duration": 0.5,
        "velocity": 0.63,
        "hand": "right"
      },
      {
        "midi": 67,
        "time": 2,
        "duration": 0.25,
        "velocity": 0.63,
        "hand": "right"
      },
      {
        "midi": 67,
        "time": 2.5,
        "duration": 0.25,
        "velocity": 0.63,
        "hand": "right"
      },
      {
        "midi": 60,
        "time": 3,
        "duration": 1.5,
        "velocity": 0.63,
        "hand": "right"
      },
      {
        "midi": 76,
        "time": 3,
        "duration": 0.5,
        "velocity": 0.63,
        "hand": "right"
      },
      {
        "midi": 72,
        "time": 3.5,
        "duration": 0.063,
        "velocity": 0.63,
        "hand": "right"
      },
      {
        "midi": 71,
        "time": 3.625,
        "duration": 0.063,
        "velocity": 0.63,
        "hand": "right"
      },
      {
        "midi": 72,
        "time": 3.625,
        "duration": 0.125,
        "velocity": 0.63,
        "hand": "right"
      },
      {
        "midi": 74,
        "time": 3.75,
        "duration": 0.25,
        "velocity": 0.63,
        "hand": "right"
      },
      {
        "midi": 76,
        "time": 4,
        "duration": 0.25,
        "velocity": 0.63,
        "hand": "right"
      },
      {
        "midi": 78,
        "time": 4.25,
        "duration": 0.25,
        "velocity": 0.63,
        "hand": "right"
      },
      {
        "midi": 59,
        "time": 4.5,
        "duration": 1.5,
        "velocity": 0.63,
        "hand": "left"
      },
      {
        "midi": 79,
        "time": 4.5,
        "duration": 0.5,
        "velocity": 0.63,
        "hand": "right"
      },
      {
        "midi": 67,
        "time": 5,
        "duration": 0.25,
        "velocity": 0.63,
        "hand": "right"
      },
      {
        "midi": 67,
        "time": 5.5,
        "duration": 0.25,
        "velocity": 0.63,
        "hand": "right"
      },
      {
        "midi": 57,
        "time": 6,
        "duration": 1.5,
        "velocity": 0.63,
        "hand": "left"
      },
      {
        "midi": 72,
        "time": 6,
        "duration": 0.063,
        "velocity": 0.63,
        "hand": "right"
      },
      {
        "midi": 71,
        "time": 6.125,
        "duration": 0.063,
        "velocity": 0.63,
        "hand": "right"
      },
      {
        "midi": 72,
        "time": 6.125,
        "duration": 0.375,
        "velocity": 0.63,
        "hand": "right"
      },
      {
        "midi": 74,
        "time": 6.5,
        "duration": 0.25,
        "velocity": 0.63,
        "hand": "right"
      },
      {
        "midi": 72,
        "time": 6.75,
        "duration": 0.25,
        "velocity": 0.63,
        "hand": "right"
      },
      {
        "midi": 71,
        "time": 7,
        "duration": 0.25,
        "velocity": 0.63,
        "hand": "right"
      },
      {
        "midi": 69,
        "time": 7.25,
        "duration": 0.25,
        "velocity": 0.63,
        "hand": "right"
      },
      {
        "midi": 55,
        "time": 7.5,
        "duration": 1.5,
        "velocity": 0.63,
        "hand": "left"
      },
      {
        "midi": 71,
        "time": 7.5,
        "duration": 0.5,
        "velocity": 0.63,
        "hand": "right"
      },
      {
        "midi": 72,
        "time": 8,
        "duration": 0.25,
        "velocity": 0.63,
        "hand": "right"
      },
      {
        "midi": 71,
        "time": 8.25,
        "duration": 0.25,
        "velocity": 0.63,
        "hand": "right"
      },
      {
        "midi": 69,
        "time": 8.5,
        "duration": 0.25,
        "velocity": 0.63,
        "hand": "right"
      },
      {
        "midi": 67,
        "time": 8.75,
        "duration": 0.25,
        "velocity": 0.63,
        "hand": "right"
      },
      {
        "midi": 62,
        "time": 9,
        "duration": 0.5,
        "velocity": 0.63,
        "hand": "right"
      },
      {
        "midi": 66,
        "time": 9,
        "duration": 0.5,
        "velocity": 0.63,
        "hand": "right"
      },
      {
        "midi": 59,
        "time": 9.5,
        "duration": 0.5,
        "velocity": 0.63,
        "hand": "left"
      },
      {
        "midi": 67,
        "time": 9.5,
        "duration": 0.25,
        "velocity": 0.63,
        "hand": "right"
      },
      {
        "midi": 69,
        "time": 9.75,
        "duration": 0.25,
        "velocity": 0.63,
        "hand": "right"
      },
      {
        "midi": 55,
        "time": 10,
        "duration": 0.5,
        "velocity": 0.63,
        "hand": "left"
      },
      {
        "midi": 71,
        "time": 10,
        "duration": 0.25,
        "velocity": 0.63,
        "hand": "right"
      },
      {
        "midi": 67,
        "time": 10.25,
        "duration": 0.25,
        "velocity": 0.63,
        "hand": "right"
      },
      {
        "midi": 62,
        "time": 10.5,
        "duration": 0.5,
        "velocity": 0.63,
        "hand": "right"
      },
      {
        "midi": 71,
        "time": 10.5,
        "duration": 0.5,
        "velocity": 0.63,
        "hand": "right"
      },
      {
        "midi": 50,
        "time": 11,
        "duration": 0.25,
        "velocity": 0.63,
        "hand": "left"
      },
      {
        "midi": 69,
        "time": 11,
        "duration": 1,
        "velocity": 0.63,
        "hand": "right"
      },
      {
        "midi": 60,
        "time": 11.25,
        "duration": 0.25,
        "velocity": 0.63,
        "hand": "right"
      },
      {
        "midi": 59,
        "time": 11.5,
        "duration": 0.25,
        "velocity": 0.63,
        "hand": "left"
      },
      {
        "midi": 57,
        "time": 11.75,
        "duration": 0.25,
        "velocity": 0.63,
        "hand": "left"
      },
      {
        "midi": 59,
        "time": 12,
        "duration": 1,
        "velocity": 0.63,
        "hand": "left"
      },
      {
        "midi": 74,
        "time": 12,
        "duration": 0.5,
        "velocity": 0.63,
        "hand": "right"
      },
      {
        "midi": 67,
        "time": 12.5,
        "duration": 0.25,
        "velocity": 0.63,
        "hand": "right"
      },
      {
        "midi": 69,
        "time": 12.75,
        "duration": 0.25,
        "velocity": 0.63,
        "hand": "right"
      },
      {
        "midi": 57,
        "time": 13,
        "duration": 0.5,
        "velocity": 0.63,
        "hand": "left"
      },
      {
        "midi": 71,
        "time": 13,
        "duration": 0.25,
        "velocity": 0.63,
        "hand": "right"
      },
      {
        "midi": 72,
        "time": 13.25,
        "duration": 0.25,
        "velocity": 0.63,
        "hand": "right"
      },
      {
        "midi": 55,
        "time": 13.5,
        "duration": 0.5,
        "velocity": 0.63,
        "hand": "left"
      },
      {
        "midi": 74,
        "time": 13.5,
        "duration": 0.5,
        "velocity": 0.63,
        "hand": "right"
      },
      {
        "midi": 59,
        "time": 14,
        "duration": 0.25,
        "velocity": 0.63,
        "hand": "left"
      },
      {
        "midi": 67,
        "time": 14,
        "duration": 0.25,
        "velocity": 0.63,
        "hand": "right"
      },
      {
        "midi": 55,
        "time": 14.5,
        "duration": 0.25,
        "velocity": 0.63,
        "hand": "left"
      },
      {
        "midi": 67,
        "time": 14.5,
        "duration": 0.25,
        "velocity": 0.63,
        "hand": "right"
      },
      {
        "midi": 60,
        "time": 15,
        "duration": 1.5,
        "velocity": 0.63,
        "hand": "right"
      },
      {
        "midi": 76,
        "time": 15,
        "duration": 0.5,
        "velocity": 0.63,
        "hand": "right"
      },
      {
        "midi": 72,
        "time": 15.5,
        "duration": 0.063,
        "velocity": 0.63,
        "hand": "right"
      },
      {
        "midi": 71,
        "time": 15.625,
        "duration": 0.063,
        "velocity": 0.63,
        "hand": "right"
      },
      {
        "midi": 72,
        "time": 15.625,
        "duration": 0.125,
        "velocity": 0.63,
        "hand": "right"
      },
      {
        "midi": 74,
        "time": 15.75,
        "duration": 0.25,
        "velocity": 0.63,
        "hand": "right"
      },
      {
        "midi": 76,
        "time": 16,
        "duration": 0.25,
        "velocity": 0.63,
        "hand": "right"
      },
      {
        "midi": 78,
        "time": 16.25,
        "duration": 0.25,
        "velocity": 0.63,
        "hand": "right"
      },
      {
        "midi": 59,
        "time": 16.5,
        "duration": 0.5,
        "velocity": 0.63,
        "hand": "left"
      },
      {
        "midi": 79,
        "time": 16.5,
        "duration": 0.5,
        "velocity": 0.63,
        "hand": "right"
      },
      {
        "midi": 60,
        "time": 17,
        "duration": 0.25,
        "velocity": 0.63,
        "hand": "right"
      },
      {
        "midi": 67,
        "time": 17,
        "duration": 0.25,
        "velocity": 0.63,
        "hand": "right"
      },
      {
        "midi": 59,
        "time": 17.25,
        "duration": 0.25,
        "velocity": 0.63,
        "hand": "left"
      },
      {
        "midi": 57,
        "time": 17.5,
        "duration": 0.25,
        "velocity": 0.63,
        "hand": "left"
      },
      {
        "midi": 67,
        "time": 17.5,
        "duration": 0.25,
        "velocity": 0.63,
        "hand": "right"
      },
      {
        "midi": 55,
        "time": 17.75,
        "duration": 0.25,
        "velocity": 0.63,
        "hand": "left"
      },
      {
        "midi": 57,
        "time": 18,
        "duration": 1,
        "velocity": 0.63,
        "hand": "left"
      },
      {
        "midi": 72,
        "time": 18,
        "duration": 0.063,
        "velocity": 0.63,
        "hand": "right"
      },
      {
        "midi": 71,
        "time": 18.125,
        "duration": 0.063,
        "velocity": 0.63,
        "hand": "right"
      },
      {
        "midi": 72,
        "time": 18.125,
        "duration": 0.375,
        "velocity": 0.63,
        "hand": "right"
      },
      {
        "midi": 74,
        "time": 18.5,
        "duration": 0.25,
        "velocity": 0.63,
        "hand": "right"
      },
      {
        "midi": 72,
        "time": 18.75,
        "duration": 0.25,
        "velocity": 0.63,
        "hand": "right"
      },
      {
        "midi": 54,
        "time": 19,
        "duration": 0.5,
        "velocity": 0.63,
        "hand": "left"
      },
      {
        "midi": 71,
        "time": 19,
        "duration": 0.25,
        "velocity": 0.63,
        "hand": "right"
      },
      {
        "midi": 69,
        "time": 19.25,
        "duration": 0.25,
        "velocity": 0.63,
        "hand": "right"
      },
      {
        "midi": 55,
        "time": 19.5,
        "duration": 1,
        "velocity": 0.63,
        "hand": "left"
      },
      {
        "midi": 71,
        "time": 19.5,
        "duration": 0.5,
        "velocity": 0.63,
        "hand": "right"
      },
      {
        "midi": 72,
        "time": 20,
        "duration": 0.25,
        "velocity": 0.63,
        "hand": "right"
      },
      {
        "midi": 71,
        "time": 20.25,
        "duration": 0.25,
        "velocity": 0.63,
        "hand": "right"
      },
      {
        "midi": 59,
        "time": 20.5,
        "duration": 0.5,
        "velocity": 0.63,
        "hand": "left"
      },
      {
        "midi": 69,
        "time": 20.5,
        "duration": 0.25,
        "velocity": 0.63,
        "hand": "right"
      },
      {
        "midi": 67,
        "time": 20.75,
        "duration": 0.25,
        "velocity": 0.63,
        "hand": "right"
      },
      {
        "midi": 60,
        "time": 21,
        "duration": 0.5,
        "velocity": 0.63,
        "hand": "right"
      },
      {
        "midi": 69,
        "time": 21,
        "duration": 0.5,
        "velocity": 0.63,
        "hand": "right"
      },
      {
        "midi": 62,
        "time": 21.5,
        "duration": 0.5,
        "velocity": 0.63,
        "hand": "right"
      },
      {
        "midi": 71,
        "time": 21.5,
        "duration": 0.25,
        "velocity": 0.63,
        "hand": "right"
      },
      {
        "midi": 69,
        "time": 21.75,
        "duration": 0.25,
        "velocity": 0.63,
        "hand": "right"
      },
      {
        "midi": 50,
        "time": 22,
        "duration": 0.5,
        "velocity": 0.63,
        "hand": "left"
      },
      {
        "midi": 67,
        "time": 22,
        "duration": 0.25,
        "velocity": 0.63,
        "hand": "right"
      },
      {
        "midi": 66,
        "time": 22.25,
        "duration": 0.25,
        "velocity": 0.63,
        "hand": "right"
      },
      {
        "midi": 55,
        "time": 22.5,
        "duration": 1,
        "velocity": 0.63,
        "hand": "left"
      },
      {
        "midi": 67,
        "time": 22.5,
        "duration": 1.5,
        "velocity": 0.63,
        "hand": "right"
      },
      {
        "midi": 43,
        "time": 23.5,
        "duration": 0.5,
        "velocity": 0.63,
        "hand": "left"
      },
      {
        "midi": 55,
        "time": 24,
        "duration": 1,
        "velocity": 0.63,
        "hand": "left"
      },
      {
        "midi": 59,
        "time": 24,
        "duration": 1,
        "velocity": 0.63,
        "hand": "left"
      },
      {
        "midi": 62,
        "time": 24,
        "duration": 1,
        "velocity": 0.63,
        "hand": "right"
      },
      {
        "midi": 74,
        "time": 24,
        "duration": 0.5,
        "velocity": 0.63,
        "hand": "right"
      },
      {
        "midi": 67,
        "time": 24.5,
        "duration": 0.25,
        "velocity": 0.63,
        "hand": "right"
      },
      {
        "midi": 69,
        "time": 24.75,
        "duration": 0.25,
        "velocity": 0.63,
        "hand": "right"
      },
      {
        "midi": 57,
        "time": 25,
        "duration": 0.5,
        "velocity": 0.63,
        "hand": "left"
      },
      {
        "midi": 71,
        "time": 25,
        "duration": 0.25,
        "velocity": 0.63,
        "hand": "right"
      },
      {
        "midi": 72,
        "time": 25.25,
        "duration": 0.25,
        "velocity": 0.63,
        "hand": "right"
      },
      {
        "midi": 59,
        "time": 25.5,
        "duration": 1.5,
        "velocity": 0.63,
        "hand": "left"
      },
      {
        "midi": 74,
        "time": 25.5,
        "duration": 0.5,
        "velocity": 0.63,
        "hand": "right"
      },
      {
        "midi": 67,
        "time": 26,
        "duration": 0.25,
        "velocity": 0.63,
        "hand": "right"
      },
      {
        "midi": 67,
        "time": 26.5,
        "duration": 0.25,
        "velocity": 0.63,
        "hand": "right"
      },
      {
        "midi": 60,
        "time": 27,
        "duration": 1.5,
        "velocity": 0.63,
        "hand": "right"
      },
      {
        "midi": 76,
        "time": 27,
        "duration": 0.5,
        "velocity": 0.63,
        "hand": "right"
      },
      {
        "midi": 72,
        "time": 27.5,
        "duration": 0.063,
        "velocity": 0.63,
        "hand": "right"
      },
      {
        "midi": 71,
        "time": 27.625,
        "duration": 0.063,
        "velocity": 0.63,
        "hand": "right"
      },
      {
        "midi": 72,
        "time": 27.625,
        "duration": 0.125,
        "velocity": 0.63,
        "hand": "right"
      },
      {
        "midi": 74,
        "time": 27.75,
        "duration": 0.25,
        "velocity": 0.63,
        "hand": "right"
      },
      {
        "midi": 76,
        "time": 28,
        "duration": 0.25,
        "velocity": 0.63,
        "hand": "right"
      },
      {
        "midi": 78,
        "time": 28.25,
        "duration": 0.25,
        "velocity": 0.63,
        "hand": "right"
      },
      {
        "midi": 59,
        "time": 28.5,
        "duration": 1.5,
        "velocity": 0.63,
        "hand": "left"
      },
      {
        "midi": 79,
        "time": 28.5,
        "duration": 0.5,
        "velocity": 0.63,
        "hand": "right"
      },
      {
        "midi": 67,
        "time": 29,
        "duration": 0.25,
        "velocity": 0.63,
        "hand": "right"
      },
      {
        "midi": 67,
        "time": 29.5,
        "duration": 0.25,
        "velocity": 0.63,
        "hand": "right"
      },
      {
        "midi": 57,
        "time": 30,
        "duration": 1.5,
        "velocity": 0.63,
        "hand": "left"
      },
      {
        "midi": 72,
        "time": 30,
        "duration": 0.063,
        "velocity": 0.63,
        "hand": "right"
      },
      {
        "midi": 71,
        "time": 30.125,
        "duration": 0.063,
        "velocity": 0.63,
        "hand": "right"
      },
      {
        "midi": 72,
        "time": 30.125,
        "duration": 0.375,
        "velocity": 0.63,
        "hand": "right"
      },
      {
        "midi": 74,
        "time": 30.5,
        "duration": 0.25,
        "velocity": 0.63,
        "hand": "right"
      },
      {
        "midi": 72,
        "time": 30.75,
        "duration": 0.25,
        "velocity": 0.63,
        "hand": "right"
      },
      {
        "midi": 71,
        "time": 31,
        "duration": 0.25,
        "velocity": 0.63,
        "hand": "right"
      },
      {
        "midi": 69,
        "time": 31.25,
        "duration": 0.25,
        "velocity": 0.63,
        "hand": "right"
      },
      {
        "midi": 55,
        "time": 31.5,
        "duration": 1.5,
        "velocity": 0.63,
        "hand": "left"
      },
      {
        "midi": 71,
        "time": 31.5,
        "duration": 0.5,
        "velocity": 0.63,
        "hand": "right"
      },
      {
        "midi": 72,
        "time": 32,
        "duration": 0.25,
        "velocity": 0.63,
        "hand": "right"
      },
      {
        "midi": 71,
        "time": 32.25,
        "duration": 0.25,
        "velocity": 0.63,
        "hand": "right"
      },
      {
        "midi": 69,
        "time": 32.5,
        "duration": 0.25,
        "velocity": 0.63,
        "hand": "right"
      },
      {
        "midi": 67,
        "time": 32.75,
        "duration": 0.25,
        "velocity": 0.63,
        "hand": "right"
      },
      {
        "midi": 62,
        "time": 33,
        "duration": 0.5,
        "velocity": 0.63,
        "hand": "right"
      },
      {
        "midi": 66,
        "time": 33,
        "duration": 0.5,
        "velocity": 0.63,
        "hand": "right"
      },
      {
        "midi": 59,
        "time": 33.5,
        "duration": 0.5,
        "velocity": 0.63,
        "hand": "left"
      },
      {
        "midi": 67,
        "time": 33.5,
        "duration": 0.25,
        "velocity": 0.63,
        "hand": "right"
      },
      {
        "midi": 69,
        "time": 33.75,
        "duration": 0.25,
        "velocity": 0.63,
        "hand": "right"
      },
      {
        "midi": 55,
        "time": 34,
        "duration": 0.5,
        "velocity": 0.63,
        "hand": "left"
      },
      {
        "midi": 71,
        "time": 34,
        "duration": 0.25,
        "velocity": 0.63,
        "hand": "right"
      },
      {
        "midi": 67,
        "time": 34.25,
        "duration": 0.25,
        "velocity": 0.63,
        "hand": "right"
      },
      {
        "midi": 62,
        "time": 34.5,
        "duration": 0.5,
        "velocity": 0.63,
        "hand": "right"
      },
      {
        "midi": 71,
        "time": 34.5,
        "duration": 0.5,
        "velocity": 0.63,
        "hand": "right"
      },
      {
        "midi": 50,
        "time": 35,
        "duration": 0.25,
        "velocity": 0.63,
        "hand": "left"
      },
      {
        "midi": 69,
        "time": 35,
        "duration": 1,
        "velocity": 0.63,
        "hand": "right"
      },
      {
        "midi": 60,
        "time": 35.25,
        "duration": 0.25,
        "velocity": 0.63,
        "hand": "right"
      },
      {
        "midi": 59,
        "time": 35.5,
        "duration": 0.25,
        "velocity": 0.63,
        "hand": "left"
      },
      {
        "midi": 57,
        "time": 35.75,
        "duration": 0.25,
        "velocity": 0.63,
        "hand": "left"
      },
      {
        "midi": 59,
        "time": 36,
        "duration": 1,
        "velocity": 0.63,
        "hand": "left"
      },
      {
        "midi": 74,
        "time": 36,
        "duration": 0.5,
        "velocity": 0.63,
        "hand": "right"
      },
      {
        "midi": 67,
        "time": 36.5,
        "duration": 0.25,
        "velocity": 0.63,
        "hand": "right"
      },
      {
        "midi": 69,
        "time": 36.75,
        "duration": 0.25,
        "velocity": 0.63,
        "hand": "right"
      },
      {
        "midi": 57,
        "time": 37,
        "duration": 0.5,
        "velocity": 0.63,
        "hand": "left"
      },
      {
        "midi": 71,
        "time": 37,
        "duration": 0.25,
        "velocity": 0.63,
        "hand": "right"
      },
      {
        "midi": 72,
        "time": 37.25,
        "duration": 0.25,
        "velocity": 0.63,
        "hand": "right"
      },
      {
        "midi": 55,
        "time": 37.5,
        "duration": 0.5,
        "velocity": 0.63,
        "hand": "left"
      },
      {
        "midi": 74,
        "time": 37.5,
        "duration": 0.5,
        "velocity": 0.63,
        "hand": "right"
      },
      {
        "midi": 59,
        "time": 38,
        "duration": 0.25,
        "velocity": 0.63,
        "hand": "left"
      },
      {
        "midi": 67,
        "time": 38,
        "duration": 0.25,
        "velocity": 0.63,
        "hand": "right"
      },
      {
        "midi": 55,
        "time": 38.5,
        "duration": 0.25,
        "velocity": 0.63,
        "hand": "left"
      },
      {
        "midi": 67,
        "time": 38.5,
        "duration": 0.25,
        "velocity": 0.63,
        "hand": "right"
      },
      {
        "midi": 60,
        "time": 39,
        "duration": 1.5,
        "velocity": 0.63,
        "hand": "right"
      },
      {
        "midi": 76,
        "time": 39,
        "duration": 0.5,
        "velocity": 0.63,
        "hand": "right"
      },
      {
        "midi": 72,
        "time": 39.5,
        "duration": 0.063,
        "velocity": 0.63,
        "hand": "right"
      },
      {
        "midi": 71,
        "time": 39.625,
        "duration": 0.063,
        "velocity": 0.63,
        "hand": "right"
      },
      {
        "midi": 72,
        "time": 39.625,
        "duration": 0.125,
        "velocity": 0.63,
        "hand": "right"
      },
      {
        "midi": 74,
        "time": 39.75,
        "duration": 0.25,
        "velocity": 0.63,
        "hand": "right"
      },
      {
        "midi": 76,
        "time": 40,
        "duration": 0.25,
        "velocity": 0.63,
        "hand": "right"
      },
      {
        "midi": 78,
        "time": 40.25,
        "duration": 0.25,
        "velocity": 0.63,
        "hand": "right"
      },
      {
        "midi": 59,
        "time": 40.5,
        "duration": 0.5,
        "velocity": 0.63,
        "hand": "left"
      },
      {
        "midi": 79,
        "time": 40.5,
        "duration": 0.5,
        "velocity": 0.63,
        "hand": "right"
      },
      {
        "midi": 60,
        "time": 41,
        "duration": 0.25,
        "velocity": 0.63,
        "hand": "right"
      },
      {
        "midi": 67,
        "time": 41,
        "duration": 0.25,
        "velocity": 0.63,
        "hand": "right"
      },
      {
        "midi": 59,
        "time": 41.25,
        "duration": 0.25,
        "velocity": 0.63,
        "hand": "left"
      },
      {
        "midi": 57,
        "time": 41.5,
        "duration": 0.25,
        "velocity": 0.63,
        "hand": "left"
      },
      {
        "midi": 67,
        "time": 41.5,
        "duration": 0.25,
        "velocity": 0.63,
        "hand": "right"
      },
      {
        "midi": 55,
        "time": 41.75,
        "duration": 0.25,
        "velocity": 0.63,
        "hand": "left"
      },
      {
        "midi": 57,
        "time": 42,
        "duration": 1,
        "velocity": 0.63,
        "hand": "left"
      },
      {
        "midi": 72,
        "time": 42,
        "duration": 0.063,
        "velocity": 0.63,
        "hand": "right"
      },
      {
        "midi": 71,
        "time": 42.125,
        "duration": 0.063,
        "velocity": 0.63,
        "hand": "right"
      },
      {
        "midi": 72,
        "time": 42.125,
        "duration": 0.375,
        "velocity": 0.63,
        "hand": "right"
      },
      {
        "midi": 74,
        "time": 42.5,
        "duration": 0.25,
        "velocity": 0.63,
        "hand": "right"
      },
      {
        "midi": 72,
        "time": 42.75,
        "duration": 0.25,
        "velocity": 0.63,
        "hand": "right"
      },
      {
        "midi": 54,
        "time": 43,
        "duration": 0.5,
        "velocity": 0.63,
        "hand": "left"
      },
      {
        "midi": 71,
        "time": 43,
        "duration": 0.25,
        "velocity": 0.63,
        "hand": "right"
      },
      {
        "midi": 69,
        "time": 43.25,
        "duration": 0.25,
        "velocity": 0.63,
        "hand": "right"
      },
      {
        "midi": 55,
        "time": 43.5,
        "duration": 1,
        "velocity": 0.63,
        "hand": "left"
      },
      {
        "midi": 71,
        "time": 43.5,
        "duration": 0.5,
        "velocity": 0.63,
        "hand": "right"
      },
      {
        "midi": 72,
        "time": 44,
        "duration": 0.25,
        "velocity": 0.63,
        "hand": "right"
      },
      {
        "midi": 71,
        "time": 44.25,
        "duration": 0.25,
        "velocity": 0.63,
        "hand": "right"
      },
      {
        "midi": 59,
        "time": 44.5,
        "duration": 0.5,
        "velocity": 0.63,
        "hand": "left"
      },
      {
        "midi": 69,
        "time": 44.5,
        "duration": 0.25,
        "velocity": 0.63,
        "hand": "right"
      },
      {
        "midi": 67,
        "time": 44.75,
        "duration": 0.25,
        "velocity": 0.63,
        "hand": "right"
      },
      {
        "midi": 60,
        "time": 45,
        "duration": 0.5,
        "velocity": 0.63,
        "hand": "right"
      },
      {
        "midi": 69,
        "time": 45,
        "duration": 0.5,
        "velocity": 0.63,
        "hand": "right"
      },
      {
        "midi": 62,
        "time": 45.5,
        "duration": 0.5,
        "velocity": 0.63,
        "hand": "right"
      },
      {
        "midi": 71,
        "time": 45.5,
        "duration": 0.25,
        "velocity": 0.63,
        "hand": "right"
      },
      {
        "midi": 69,
        "time": 45.75,
        "duration": 0.25,
        "velocity": 0.63,
        "hand": "right"
      },
      {
        "midi": 50,
        "time": 46,
        "duration": 0.5,
        "velocity": 0.63,
        "hand": "left"
      },
      {
        "midi": 67,
        "time": 46,
        "duration": 0.25,
        "velocity": 0.63,
        "hand": "right"
      },
      {
        "midi": 66,
        "time": 46.25,
        "duration": 0.25,
        "velocity": 0.63,
        "hand": "right"
      },
      {
        "midi": 55,
        "time": 46.5,
        "duration": 1,
        "velocity": 0.63,
        "hand": "left"
      },
      {
        "midi": 67,
        "time": 46.5,
        "duration": 1.5,
        "velocity": 0.63,
        "hand": "right"
      },
      {
        "midi": 43,
        "time": 47.5,
        "duration": 0.5,
        "velocity": 0.63,
        "hand": "left"
      },
      {
        "midi": 55,
        "time": 48,
        "duration": 1.5,
        "velocity": 0.63,
        "hand": "left"
      },
      {
        "midi": 83,
        "time": 48,
        "duration": 0.5,
        "velocity": 0.63,
        "hand": "right"
      },
      {
        "midi": 79,
        "time": 48.5,
        "duration": 0.25,
        "velocity": 0.63,
        "hand": "right"
      },
      {
        "midi": 81,
        "time": 48.75,
        "duration": 0.25,
        "velocity": 0.63,
        "hand": "right"
      },
      {
        "midi": 83,
        "time": 49,
        "duration": 0.25,
        "velocity": 0.63,
        "hand": "right"
      },
      {
        "midi": 79,
        "time": 49.25,
        "duration": 0.25,
        "velocity": 0.63,
        "hand": "right"
      },
      {
        "midi": 54,
        "time": 49.5,
        "duration": 1.5,
        "velocity": 0.63,
        "hand": "left"
      },
      {
        "midi": 81,
        "time": 49.5,
        "duration": 0.5,
        "velocity": 0.63,
        "hand": "right"
      },
      {
        "midi": 74,
        "time": 50,
        "duration": 0.25,
        "velocity": 0.63,
        "hand": "right"
      },
      {
        "midi": 76,
        "time": 50.25,
        "duration": 0.25,
        "velocity": 0.63,
        "hand": "right"
      },
      {
        "midi": 78,
        "time": 50.5,
        "duration": 0.25,
        "velocity": 0.63,
        "hand": "right"
      },
      {
        "midi": 74,
        "time": 50.75,
        "duration": 0.25,
        "velocity": 0.63,
        "hand": "right"
      },
      {
        "midi": 52,
        "time": 51,
        "duration": 0.5,
        "velocity": 0.63,
        "hand": "left"
      },
      {
        "midi": 79,
        "time": 51,
        "duration": 0.5,
        "velocity": 0.63,
        "hand": "right"
      },
      {
        "midi": 55,
        "time": 51.5,
        "duration": 0.5,
        "velocity": 0.63,
        "hand": "left"
      },
      {
        "midi": 76,
        "time": 51.5,
        "duration": 0.25,
        "velocity": 0.63,
        "hand": "right"
      },
      {
        "midi": 78,
        "time": 51.75,
        "duration": 0.25,
        "velocity": 0.63,
        "hand": "right"
      },
      {
        "midi": 52,
        "time": 52,
        "duration": 0.5,
        "velocity": 0.63,
        "hand": "left"
      },
      {
        "midi": 79,
        "time": 52,
        "duration": 0.25,
        "velocity": 0.63,
        "hand": "right"
      },
      {
        "midi": 74,
        "time": 52.25,
        "duration": 0.25,
        "velocity": 0.63,
        "hand": "right"
      },
      {
        "midi": 57,
        "time": 52.5,
        "duration": 1,
        "velocity": 0.63,
        "hand": "left"
      },
      {
        "midi": 73,
        "time": 52.5,
        "duration": 0.5,
        "velocity": 0.63,
        "hand": "right"
      },
      {
        "midi": 71,
        "time": 53,
        "duration": 0.25,
        "velocity": 0.63,
        "hand": "right"
      },
      {
        "midi": 73,
        "time": 53.25,
        "duration": 0.25,
        "velocity": 0.63,
        "hand": "right"
      },
      {
        "midi": 45,
        "time": 53.5,
        "duration": 0.5,
        "velocity": 0.63,
        "hand": "left"
      },
      {
        "midi": 69,
        "time": 53.5,
        "duration": 0.5,
        "velocity": 0.63,
        "hand": "right"
      },
      {
        "midi": 57,
        "time": 54,
        "duration": 1.5,
        "velocity": 0.63,
        "hand": "left"
      },
      {
        "midi": 69,
        "time": 54,
        "duration": 0.25,
        "velocity": 0.63,
        "hand": "right"
      },
      {
        "midi": 71,
        "time": 54.25,
        "duration": 0.25,
        "velocity": 0.63,
        "hand": "right"
      },
      {
        "midi": 73,
        "time": 54.5,
        "duration": 0.25,
        "velocity": 0.63,
        "hand": "right"
      },
      {
        "midi": 74,
        "time": 54.75,
        "duration": 0.25,
        "velocity": 0.63,
        "hand": "right"
      },
      {
        "midi": 76,
        "time": 55,
        "duration": 0.25,
        "velocity": 0.63,
        "hand": "right"
      },
      {
        "midi": 78,
        "time": 55.25,
        "duration": 0.25,
        "velocity": 0.63,
        "hand": "right"
      },
      {
        "midi": 59,
        "time": 55.5,
        "duration": 0.5,
        "velocity": 0.63,
        "hand": "left"
      },
      {
        "midi": 79,
        "time": 55.5,
        "duration": 0.5,
        "velocity": 0.63,
        "hand": "right"
      },
      {
        "midi": 62,
        "time": 56,
        "duration": 0.5,
        "velocity": 0.63,
        "hand": "right"
      },
      {
        "midi": 78,
        "time": 56,
        "duration": 0.5,
        "velocity": 0.63,
        "hand": "right"
      },
      {
        "midi": 61,
        "time": 56.5,
        "duration": 0.5,
        "velocity": 0.63,
        "hand": "right"
      },
      {
        "midi": 76,
        "time": 56.5,
        "duration": 0.5,
        "velocity": 0.63,
        "hand": "right"
      },
      {
        "midi": 62,
        "time": 57,
        "duration": 0.5,
        "velocity": 0.63,
        "hand": "right"
      },
      {
        "midi": 78,
        "time": 57,
        "duration": 0.5,
        "velocity": 0.63,
        "hand": "right"
      },
      {
        "midi": 54,
        "time": 57.5,
        "duration": 0.5,
        "velocity": 0.63,
        "hand": "left"
      },
      {
        "midi": 69,
        "time": 57.5,
        "duration": 0.5,
        "velocity": 0.63,
        "hand": "right"
      },
      {
        "midi": 57,
        "time": 58,
        "duration": 0.5,
        "velocity": 0.63,
        "hand": "left"
      },
      {
        "midi": 73,
        "time": 58,
        "duration": 0.5,
        "velocity": 0.63,
        "hand": "right"
      },
      {
        "midi": 62,
        "time": 58.5,
        "duration": 0.5,
        "velocity": 0.63,
        "hand": "right"
      },
      {
        "midi": 74,
        "time": 58.5,
        "duration": 1.5,
        "velocity": 0.63,
        "hand": "right"
      },
      {
        "midi": 50,
        "time": 59,
        "duration": 0.5,
        "velocity": 0.63,
        "hand": "left"
      },
      {
        "midi": 60,
        "time": 59.5,
        "duration": 0.5,
        "velocity": 0.63,
        "hand": "right"
      },
      {
        "midi": 59,
        "time": 60,
        "duration": 1,
        "velocity": 0.63,
        "hand": "left"
      },
      {
        "midi": 74,
        "time": 60,
        "duration": 0.5,
        "velocity": 0.63,
        "hand": "right"
      },
      {
        "midi": 62,
        "time": 60.5,
        "duration": 1,
        "velocity": 0.63,
        "hand": "right"
      },
      {
        "midi": 67,
        "time": 60.5,
        "duration": 0.25,
        "velocity": 0.63,
        "hand": "right"
      },
      {
        "midi": 66,
        "time": 60.75,
        "duration": 0.25,
        "velocity": 0.63,
        "hand": "right"
      },
      {
        "midi": 59,
        "time": 61,
        "duration": 0.5,
        "velocity": 0.63,
        "hand": "left"
      },
      {
        "midi": 67,
        "time": 61,
        "duration": 0.5,
        "velocity": 0.63,
        "hand": "right"
      },
      {
        "midi": 60,
        "time": 61.5,
        "duration": 1,
        "velocity": 0.63,
        "hand": "right"
      },
      {
        "midi": 76,
        "time": 61.5,
        "duration": 0.5,
        "velocity": 0.63,
        "hand": "right"
      },
      {
        "midi": 64,
        "time": 62,
        "duration": 1,
        "velocity": 0.63,
        "hand": "right"
      },
      {
        "midi": 67,
        "time": 62,
        "duration": 0.25,
        "velocity": 0.63,
        "hand": "right"
      },
      {
        "midi": 66,
        "time": 62.25,
        "duration": 0.25,
        "velocity": 0.63,
        "hand": "right"
      },
      {
        "midi": 60,
        "time": 62.5,
        "duration": 0.5,
        "velocity": 0.63,
        "hand": "right"
      },
      {
        "midi": 67,
        "time": 62.5,
        "duration": 0.5,
        "velocity": 0.63,
        "hand": "right"
      },
      {
        "midi": 59,
        "time": 63,
        "duration": 0.5,
        "velocity": 0.63,
        "hand": "left"
      },
      {
        "midi": 74,
        "time": 63,
        "duration": 0.5,
        "velocity": 0.63,
        "hand": "right"
      },
      {
        "midi": 57,
        "time": 63.5,
        "duration": 0.5,
        "velocity": 0.63,
        "hand": "left"
      },
      {
        "midi": 72,
        "time": 63.5,
        "duration": 0.5,
        "velocity": 0.63,
        "hand": "right"
      },
      {
        "midi": 55,
        "time": 64,
        "duration": 0.5,
        "velocity": 0.63,
        "hand": "left"
      },
      {
        "midi": 71,
        "time": 64,
        "duration": 0.5,
        "velocity": 0.63,
        "hand": "right"
      },
      {
        "midi": 62,
        "time": 64.5,
        "duration": 1,
        "velocity": 0.63,
        "hand": "right"
      },
      {
        "midi": 69,
        "time": 64.5,
        "duration": 0.25,
        "velocity": 0.63,
        "hand": "right"
      },
      {
        "midi": 67,
        "time": 64.75,
        "duration": 0.25,
        "velocity": 0.63,
        "hand": "right"
      },
      {
        "midi": 66,
        "time": 65,
        "duration": 0.25,
        "velocity": 0.63,
        "hand": "right"
      },
      {
        "midi": 67,
        "time": 65.25,
        "duration": 0.25,
        "velocity": 0.63,
        "hand": "right"
      },
      {
        "midi": 69,
        "time": 65.5,
        "duration": 0.5,
        "velocity": 0.63,
        "hand": "right"
      },
      {
        "midi": 50,
        "time": 66,
        "duration": 1.5,
        "velocity": 0.63,
        "hand": "left"
      },
      {
        "midi": 62,
        "time": 66,
        "duration": 0.25,
        "velocity": 0.63,
        "hand": "right"
      },
      {
        "midi": 64,
        "time": 66.25,
        "duration": 0.25,
        "velocity": 0.63,
        "hand": "right"
      },
      {
        "midi": 66,
        "time": 66.5,
        "duration": 0.25,
        "velocity": 0.63,
        "hand": "right"
      },
      {
        "midi": 67,
        "time": 66.75,
        "duration": 0.25,
        "velocity": 0.63,
        "hand": "right"
      },
      {
        "midi": 54,
        "time": 67,
        "duration": 0.5,
        "velocity": 0.63,
        "hand": "left"
      },
      {
        "midi": 69,
        "time": 67,
        "duration": 0.25,
        "velocity": 0.63,
        "hand": "right"
      },
      {
        "midi": 71,
        "time": 67.25,
        "duration": 0.25,
        "velocity": 0.63,
        "hand": "right"
      },
      {
        "midi": 52,
        "time": 67.5,
        "duration": 0.5,
        "velocity": 0.63,
        "hand": "left"
      },
      {
        "midi": 72,
        "time": 67.5,
        "duration": 0.5,
        "velocity": 0.63,
        "hand": "right"
      },
      {
        "midi": 55,
        "time": 68,
        "duration": 0.5,
        "velocity": 0.63,
        "hand": "left"
      },
      {
        "midi": 72,
        "time": 68,
        "duration": 0.063,
        "velocity": 0.63,
        "hand": "right"
      },
      {
        "midi": 71,
        "time": 68.125,
        "duration": 0.063,
        "velocity": 0.63,
        "hand": "right"
      },
      {
        "midi": 72,
        "time": 68.125,
        "duration": 0.063,
        "velocity": 0.63,
        "hand": "right"
      },
      {
        "midi": 71,
        "time": 68.25,
        "duration": 0.25,
        "velocity": 0.63,
        "hand": "right"
      },
      {
        "midi": 54,
        "time": 68.5,
        "duration": 0.5,
        "velocity": 0.63,
        "hand": "left"
      },
      {
        "midi": 69,
        "time": 68.5,
        "duration": 0.5,
        "velocity": 0.63,
        "hand": "right"
      },
      {
        "midi": 55,
        "time": 69,
        "duration": 0.5,
        "velocity": 0.63,
        "hand": "left"
      },
      {
        "midi": 71,
        "time": 69,
        "duration": 0.25,
        "velocity": 0.63,
        "hand": "right"
      },
      {
        "midi": 74,
        "time": 69.25,
        "duration": 0.25,
        "velocity": 0.63,
        "hand": "right"
      },
      {
        "midi": 47,
        "time": 69.5,
        "duration": 0.5,
        "velocity": 0.63,
        "hand": "left"
      },
      {
        "midi": 67,
        "time": 69.5,
        "duration": 0.5,
        "velocity": 0.63,
        "hand": "right"
      },
      {
        "midi": 50,
        "time": 70,
        "duration": 0.5,
        "velocity": 0.63,
        "hand": "left"
      },
      {
        "midi": 66,
        "time": 70,
        "duration": 0.5,
        "velocity": 0.63,
        "hand": "right"
      },
      {
        "midi": 55,
        "time": 70.5,
        "duration": 0.5,
        "velocity": 0.63,
        "hand": "left"
      },
      {
        "midi": 59,
        "time": 70.5,
        "duration": 1.5,
        "velocity": 0.63,
        "hand": "left"
      },
      {
        "midi": 62,
        "time": 70.5,
        "duration": 1.5,
        "velocity": 0.63,
        "hand": "right"
      },
      {
        "midi": 67,
        "time": 70.5,
        "duration": 1.5,
        "velocity": 0.63,
        "hand": "right"
      },
      {
        "midi": 50,
        "time": 71,
        "duration": 0.5,
        "velocity": 0.63,
        "hand": "left"
      },
      {
        "midi": 43,
        "time": 71.5,
        "duration": 0.5,
        "velocity": 0.63,
        "hand": "left"
      },
      {
        "midi": 55,
        "time": 72,
        "duration": 1.5,
        "velocity": 0.63,
        "hand": "left"
      },
      {
        "midi": 83,
        "time": 72,
        "duration": 0.5,
        "velocity": 0.63,
        "hand": "right"
      },
      {
        "midi": 79,
        "time": 72.5,
        "duration": 0.25,
        "velocity": 0.63,
        "hand": "right"
      },
      {
        "midi": 81,
        "time": 72.75,
        "duration": 0.25,
        "velocity": 0.63,
        "hand": "right"
      },
      {
        "midi": 83,
        "time": 73,
        "duration": 0.25,
        "velocity": 0.63,
        "hand": "right"
      },
      {
        "midi": 79,
        "time": 73.25,
        "duration": 0.25,
        "velocity": 0.63,
        "hand": "right"
      },
      {
        "midi": 54,
        "time": 73.5,
        "duration": 1.5,
        "velocity": 0.63,
        "hand": "left"
      },
      {
        "midi": 81,
        "time": 73.5,
        "duration": 0.5,
        "velocity": 0.63,
        "hand": "right"
      },
      {
        "midi": 74,
        "time": 74,
        "duration": 0.25,
        "velocity": 0.63,
        "hand": "right"
      },
      {
        "midi": 76,
        "time": 74.25,
        "duration": 0.25,
        "velocity": 0.63,
        "hand": "right"
      },
      {
        "midi": 78,
        "time": 74.5,
        "duration": 0.25,
        "velocity": 0.63,
        "hand": "right"
      },
      {
        "midi": 74,
        "time": 74.75,
        "duration": 0.25,
        "velocity": 0.63,
        "hand": "right"
      },
      {
        "midi": 52,
        "time": 75,
        "duration": 0.5,
        "velocity": 0.63,
        "hand": "left"
      },
      {
        "midi": 79,
        "time": 75,
        "duration": 0.5,
        "velocity": 0.63,
        "hand": "right"
      },
      {
        "midi": 55,
        "time": 75.5,
        "duration": 0.5,
        "velocity": 0.63,
        "hand": "left"
      },
      {
        "midi": 76,
        "time": 75.5,
        "duration": 0.25,
        "velocity": 0.63,
        "hand": "right"
      },
      {
        "midi": 78,
        "time": 75.75,
        "duration": 0.25,
        "velocity": 0.63,
        "hand": "right"
      },
      {
        "midi": 52,
        "time": 76,
        "duration": 0.5,
        "velocity": 0.63,
        "hand": "left"
      },
      {
        "midi": 79,
        "time": 76,
        "duration": 0.25,
        "velocity": 0.63,
        "hand": "right"
      },
      {
        "midi": 74,
        "time": 76.25,
        "duration": 0.25,
        "velocity": 0.63,
        "hand": "right"
      },
      {
        "midi": 57,
        "time": 76.5,
        "duration": 1,
        "velocity": 0.63,
        "hand": "left"
      },
      {
        "midi": 73,
        "time": 76.5,
        "duration": 0.5,
        "velocity": 0.63,
        "hand": "right"
      },
      {
        "midi": 71,
        "time": 77,
        "duration": 0.25,
        "velocity": 0.63,
        "hand": "right"
      },
      {
        "midi": 73,
        "time": 77.25,
        "duration": 0.25,
        "velocity": 0.63,
        "hand": "right"
      },
      {
        "midi": 45,
        "time": 77.5,
        "duration": 0.5,
        "velocity": 0.63,
        "hand": "left"
      },
      {
        "midi": 69,
        "time": 77.5,
        "duration": 0.5,
        "velocity": 0.63,
        "hand": "right"
      },
      {
        "midi": 57,
        "time": 78,
        "duration": 1.5,
        "velocity": 0.63,
        "hand": "left"
      },
      {
        "midi": 69,
        "time": 78,
        "duration": 0.25,
        "velocity": 0.63,
        "hand": "right"
      },
      {
        "midi": 71,
        "time": 78.25,
        "duration": 0.25,
        "velocity": 0.63,
        "hand": "right"
      },
      {
        "midi": 73,
        "time": 78.5,
        "duration": 0.25,
        "velocity": 0.63,
        "hand": "right"
      },
      {
        "midi": 74,
        "time": 78.75,
        "duration": 0.25,
        "velocity": 0.63,
        "hand": "right"
      },
      {
        "midi": 76,
        "time": 79,
        "duration": 0.25,
        "velocity": 0.63,
        "hand": "right"
      },
      {
        "midi": 78,
        "time": 79.25,
        "duration": 0.25,
        "velocity": 0.63,
        "hand": "right"
      },
      {
        "midi": 59,
        "time": 79.5,
        "duration": 0.5,
        "velocity": 0.63,
        "hand": "left"
      },
      {
        "midi": 79,
        "time": 79.5,
        "duration": 0.5,
        "velocity": 0.63,
        "hand": "right"
      },
      {
        "midi": 62,
        "time": 80,
        "duration": 0.5,
        "velocity": 0.63,
        "hand": "right"
      },
      {
        "midi": 78,
        "time": 80,
        "duration": 0.5,
        "velocity": 0.63,
        "hand": "right"
      },
      {
        "midi": 61,
        "time": 80.5,
        "duration": 0.5,
        "velocity": 0.63,
        "hand": "right"
      },
      {
        "midi": 76,
        "time": 80.5,
        "duration": 0.5,
        "velocity": 0.63,
        "hand": "right"
      },
      {
        "midi": 62,
        "time": 81,
        "duration": 0.5,
        "velocity": 0.63,
        "hand": "right"
      },
      {
        "midi": 78,
        "time": 81,
        "duration": 0.5,
        "velocity": 0.63,
        "hand": "right"
      },
      {
        "midi": 54,
        "time": 81.5,
        "duration": 0.5,
        "velocity": 0.63,
        "hand": "left"
      },
      {
        "midi": 69,
        "time": 81.5,
        "duration": 0.5,
        "velocity": 0.63,
        "hand": "right"
      },
      {
        "midi": 57,
        "time": 82,
        "duration": 0.5,
        "velocity": 0.63,
        "hand": "left"
      },
      {
        "midi": 73,
        "time": 82,
        "duration": 0.5,
        "velocity": 0.63,
        "hand": "right"
      },
      {
        "midi": 62,
        "time": 82.5,
        "duration": 0.5,
        "velocity": 0.63,
        "hand": "right"
      },
      {
        "midi": 74,
        "time": 82.5,
        "duration": 1.5,
        "velocity": 0.63,
        "hand": "right"
      },
      {
        "midi": 50,
        "time": 83,
        "duration": 0.5,
        "velocity": 0.63,
        "hand": "left"
      },
      {
        "midi": 60,
        "time": 83.5,
        "duration": 0.5,
        "velocity": 0.63,
        "hand": "right"
      },
      {
        "midi": 59,
        "time": 84,
        "duration": 1,
        "velocity": 0.63,
        "hand": "left"
      },
      {
        "midi": 74,
        "time": 84,
        "duration": 0.5,
        "velocity": 0.63,
        "hand": "right"
      },
      {
        "midi": 62,
        "time": 84.5,
        "duration": 1,
        "velocity": 0.63,
        "hand": "right"
      },
      {
        "midi": 67,
        "time": 84.5,
        "duration": 0.25,
        "velocity": 0.63,
        "hand": "right"
      },
      {
        "midi": 66,
        "time": 84.75,
        "duration": 0.25,
        "velocity": 0.63,
        "hand": "right"
      },
      {
        "midi": 59,
        "time": 85,
        "duration": 0.5,
        "velocity": 0.63,
        "hand": "left"
      },
      {
        "midi": 67,
        "time": 85,
        "duration": 0.5,
        "velocity": 0.63,
        "hand": "right"
      },
      {
        "midi": 60,
        "time": 85.5,
        "duration": 1,
        "velocity": 0.63,
        "hand": "right"
      },
      {
        "midi": 76,
        "time": 85.5,
        "duration": 0.5,
        "velocity": 0.63,
        "hand": "right"
      },
      {
        "midi": 64,
        "time": 86,
        "duration": 1,
        "velocity": 0.63,
        "hand": "right"
      },
      {
        "midi": 67,
        "time": 86,
        "duration": 0.25,
        "velocity": 0.63,
        "hand": "right"
      },
      {
        "midi": 66,
        "time": 86.25,
        "duration": 0.25,
        "velocity": 0.63,
        "hand": "right"
      },
      {
        "midi": 60,
        "time": 86.5,
        "duration": 0.5,
        "velocity": 0.63,
        "hand": "right"
      },
      {
        "midi": 67,
        "time": 86.5,
        "duration": 0.5,
        "velocity": 0.63,
        "hand": "right"
      },
      {
        "midi": 59,
        "time": 87,
        "duration": 0.5,
        "velocity": 0.63,
        "hand": "left"
      },
      {
        "midi": 74,
        "time": 87,
        "duration": 0.5,
        "velocity": 0.63,
        "hand": "right"
      },
      {
        "midi": 57,
        "time": 87.5,
        "duration": 0.5,
        "velocity": 0.63,
        "hand": "left"
      },
      {
        "midi": 72,
        "time": 87.5,
        "duration": 0.5,
        "velocity": 0.63,
        "hand": "right"
      },
      {
        "midi": 55,
        "time": 88,
        "duration": 0.5,
        "velocity": 0.63,
        "hand": "left"
      },
      {
        "midi": 71,
        "time": 88,
        "duration": 0.5,
        "velocity": 0.63,
        "hand": "right"
      },
      {
        "midi": 62,
        "time": 88.5,
        "duration": 1,
        "velocity": 0.63,
        "hand": "right"
      },
      {
        "midi": 69,
        "time": 88.5,
        "duration": 0.25,
        "velocity": 0.63,
        "hand": "right"
      },
      {
        "midi": 67,
        "time": 88.75,
        "duration": 0.25,
        "velocity": 0.63,
        "hand": "right"
      },
      {
        "midi": 66,
        "time": 89,
        "duration": 0.25,
        "velocity": 0.63,
        "hand": "right"
      },
      {
        "midi": 67,
        "time": 89.25,
        "duration": 0.25,
        "velocity": 0.63,
        "hand": "right"
      },
      {
        "midi": 69,
        "time": 89.5,
        "duration": 0.5,
        "velocity": 0.63,
        "hand": "right"
      },
      {
        "midi": 50,
        "time": 90,
        "duration": 1.5,
        "velocity": 0.63,
        "hand": "left"
      },
      {
        "midi": 62,
        "time": 90,
        "duration": 0.25,
        "velocity": 0.63,
        "hand": "right"
      },
      {
        "midi": 64,
        "time": 90.25,
        "duration": 0.25,
        "velocity": 0.63,
        "hand": "right"
      },
      {
        "midi": 66,
        "time": 90.5,
        "duration": 0.25,
        "velocity": 0.63,
        "hand": "right"
      },
      {
        "midi": 67,
        "time": 90.75,
        "duration": 0.25,
        "velocity": 0.63,
        "hand": "right"
      },
      {
        "midi": 54,
        "time": 91,
        "duration": 0.5,
        "velocity": 0.63,
        "hand": "left"
      },
      {
        "midi": 69,
        "time": 91,
        "duration": 0.25,
        "velocity": 0.63,
        "hand": "right"
      },
      {
        "midi": 71,
        "time": 91.25,
        "duration": 0.25,
        "velocity": 0.63,
        "hand": "right"
      },
      {
        "midi": 52,
        "time": 91.5,
        "duration": 0.5,
        "velocity": 0.63,
        "hand": "left"
      },
      {
        "midi": 72,
        "time": 91.5,
        "duration": 0.5,
        "velocity": 0.63,
        "hand": "right"
      },
      {
        "midi": 55,
        "time": 92,
        "duration": 0.5,
        "velocity": 0.63,
        "hand": "left"
      },
      {
        "midi": 72,
        "time": 92,
        "duration": 0.063,
        "velocity": 0.63,
        "hand": "right"
      },
      {
        "midi": 71,
        "time": 92.125,
        "duration": 0.063,
        "velocity": 0.63,
        "hand": "right"
      },
      {
        "midi": 72,
        "time": 92.125,
        "duration": 0.063,
        "velocity": 0.63,
        "hand": "right"
      },
      {
        "midi": 71,
        "time": 92.25,
        "duration": 0.25,
        "velocity": 0.63,
        "hand": "right"
      },
      {
        "midi": 54,
        "time": 92.5,
        "duration": 0.5,
        "velocity": 0.63,
        "hand": "left"
      },
      {
        "midi": 69,
        "time": 92.5,
        "duration": 0.5,
        "velocity": 0.63,
        "hand": "right"
      },
      {
        "midi": 55,
        "time": 93,
        "duration": 0.5,
        "velocity": 0.63,
        "hand": "left"
      },
      {
        "midi": 71,
        "time": 93,
        "duration": 0.25,
        "velocity": 0.63,
        "hand": "right"
      },
      {
        "midi": 74,
        "time": 93.25,
        "duration": 0.25,
        "velocity": 0.63,
        "hand": "right"
      },
      {
        "midi": 47,
        "time": 93.5,
        "duration": 0.5,
        "velocity": 0.63,
        "hand": "left"
      },
      {
        "midi": 67,
        "time": 93.5,
        "duration": 0.5,
        "velocity": 0.63,
        "hand": "right"
      },
      {
        "midi": 50,
        "time": 94,
        "duration": 0.5,
        "velocity": 0.63,
        "hand": "left"
      },
      {
        "midi": 66,
        "time": 94,
        "duration": 0.5,
        "velocity": 0.63,
        "hand": "right"
      },
      {
        "midi": 55,
        "time": 94.5,
        "duration": 0.5,
        "velocity": 0.63,
        "hand": "left"
      },
      {
        "midi": 59,
        "time": 94.5,
        "duration": 1.5,
        "velocity": 0.63,
        "hand": "left"
      },
      {
        "midi": 62,
        "time": 94.5,
        "duration": 1.5,
        "velocity": 0.63,
        "hand": "right"
      },
      {
        "midi": 67,
        "time": 94.5,
        "duration": 1.5,
        "velocity": 0.63,
        "hand": "right"
      },
      {
        "midi": 50,
        "time": 95,
        "duration": 0.5,
        "velocity": 0.63,
        "hand": "left"
      },
      {
        "midi": 43,
        "time": 95.5,
        "duration": 0.5,
        "velocity": 0.63,
        "hand": "left"
      }
    ]
  },
  "notes1Hand": [
    {
      "midi": 74,
      "time": 0,
      "duration": 0.5,
      "velocity": 0.63,
      "hand": "right"
    },
    {
      "midi": 67,
      "time": 0.5,
      "duration": 0.25,
      "velocity": 0.63,
      "hand": "right"
    },
    {
      "midi": 69,
      "time": 0.75,
      "duration": 0.25,
      "velocity": 0.63,
      "hand": "right"
    },
    {
      "midi": 71,
      "time": 1,
      "duration": 0.25,
      "velocity": 0.63,
      "hand": "right"
    },
    {
      "midi": 72,
      "time": 1.25,
      "duration": 0.25,
      "velocity": 0.63,
      "hand": "right"
    },
    {
      "midi": 74,
      "time": 1.5,
      "duration": 0.5,
      "velocity": 0.63,
      "hand": "right"
    },
    {
      "midi": 67,
      "time": 2,
      "duration": 0.25,
      "velocity": 0.63,
      "hand": "right"
    },
    {
      "midi": 67,
      "time": 2.5,
      "duration": 0.25,
      "velocity": 0.63,
      "hand": "right"
    },
    {
      "midi": 76,
      "time": 3,
      "duration": 0.5,
      "velocity": 0.63,
      "hand": "right"
    },
    {
      "midi": 72,
      "time": 3.625,
      "duration": 0.25,
      "velocity": 0.63,
      "hand": "right"
    },
    {
      "midi": 76,
      "time": 4,
      "duration": 0.25,
      "velocity": 0.63,
      "hand": "right"
    },
    {
      "midi": 78,
      "time": 4.25,
      "duration": 0.25,
      "velocity": 0.63,
      "hand": "right"
    },
    {
      "midi": 79,
      "time": 4.5,
      "duration": 0.5,
      "velocity": 0.63,
      "hand": "right"
    },
    {
      "midi": 67,
      "time": 5,
      "duration": 0.25,
      "velocity": 0.63,
      "hand": "right"
    },
    {
      "midi": 67,
      "time": 5.5,
      "duration": 0.25,
      "velocity": 0.63,
      "hand": "right"
    },
    {
      "midi": 72,
      "time": 6.125,
      "duration": 0.375,
      "velocity": 0.63,
      "hand": "right"
    },
    {
      "midi": 74,
      "time": 6.5,
      "duration": 0.25,
      "velocity": 0.63,
      "hand": "right"
    },
    {
      "midi": 72,
      "time": 6.75,
      "duration": 0.25,
      "velocity": 0.63,
      "hand": "right"
    },
    {
      "midi": 71,
      "time": 7,
      "duration": 0.25,
      "velocity": 0.63,
      "hand": "right"
    },
    {
      "midi": 69,
      "time": 7.25,
      "duration": 0.25,
      "velocity": 0.63,
      "hand": "right"
    },
    {
      "midi": 71,
      "time": 7.5,
      "duration": 0.5,
      "velocity": 0.63,
      "hand": "right"
    },
    {
      "midi": 72,
      "time": 8,
      "duration": 0.25,
      "velocity": 0.63,
      "hand": "right"
    },
    {
      "midi": 71,
      "time": 8.25,
      "duration": 0.25,
      "velocity": 0.63,
      "hand": "right"
    },
    {
      "midi": 69,
      "time": 8.5,
      "duration": 0.25,
      "velocity": 0.63,
      "hand": "right"
    },
    {
      "midi": 67,
      "time": 8.75,
      "duration": 0.25,
      "velocity": 0.63,
      "hand": "right"
    },
    {
      "midi": 66,
      "time": 9,
      "duration": 0.5,
      "velocity": 0.63,
      "hand": "right"
    },
    {
      "midi": 67,
      "time": 9.5,
      "duration": 0.25,
      "velocity": 0.63,
      "hand": "right"
    },
    {
      "midi": 69,
      "time": 9.75,
      "duration": 0.25,
      "velocity": 0.63,
      "hand": "right"
    },
    {
      "midi": 71,
      "time": 10,
      "duration": 0.25,
      "velocity": 0.63,
      "hand": "right"
    },
    {
      "midi": 67,
      "time": 10.25,
      "duration": 0.25,
      "velocity": 0.63,
      "hand": "right"
    },
    {
      "midi": 71,
      "time": 10.5,
      "duration": 0.5,
      "velocity": 0.63,
      "hand": "right"
    },
    {
      "midi": 69,
      "time": 11,
      "duration": 1,
      "velocity": 0.63,
      "hand": "right"
    },
    {
      "midi": 60,
      "time": 11.25,
      "duration": 0.25,
      "velocity": 0.63,
      "hand": "right"
    },
    {
      "midi": 74,
      "time": 12,
      "duration": 0.5,
      "velocity": 0.63,
      "hand": "right"
    },
    {
      "midi": 67,
      "time": 12.5,
      "duration": 0.25,
      "velocity": 0.63,
      "hand": "right"
    },
    {
      "midi": 69,
      "time": 12.75,
      "duration": 0.25,
      "velocity": 0.63,
      "hand": "right"
    },
    {
      "midi": 71,
      "time": 13,
      "duration": 0.25,
      "velocity": 0.63,
      "hand": "right"
    },
    {
      "midi": 72,
      "time": 13.25,
      "duration": 0.25,
      "velocity": 0.63,
      "hand": "right"
    },
    {
      "midi": 74,
      "time": 13.5,
      "duration": 0.5,
      "velocity": 0.63,
      "hand": "right"
    },
    {
      "midi": 67,
      "time": 14,
      "duration": 0.25,
      "velocity": 0.63,
      "hand": "right"
    },
    {
      "midi": 67,
      "time": 14.5,
      "duration": 0.25,
      "velocity": 0.63,
      "hand": "right"
    },
    {
      "midi": 76,
      "time": 15,
      "duration": 0.5,
      "velocity": 0.63,
      "hand": "right"
    },
    {
      "midi": 72,
      "time": 15.625,
      "duration": 0.25,
      "velocity": 0.63,
      "hand": "right"
    },
    {
      "midi": 76,
      "time": 16,
      "duration": 0.25,
      "velocity": 0.63,
      "hand": "right"
    },
    {
      "midi": 78,
      "time": 16.25,
      "duration": 0.25,
      "velocity": 0.63,
      "hand": "right"
    },
    {
      "midi": 79,
      "time": 16.5,
      "duration": 0.5,
      "velocity": 0.63,
      "hand": "right"
    },
    {
      "midi": 67,
      "time": 17,
      "duration": 0.25,
      "velocity": 0.63,
      "hand": "right"
    },
    {
      "midi": 67,
      "time": 17.5,
      "duration": 0.25,
      "velocity": 0.63,
      "hand": "right"
    },
    {
      "midi": 72,
      "time": 18.125,
      "duration": 0.375,
      "velocity": 0.63,
      "hand": "right"
    },
    {
      "midi": 74,
      "time": 18.5,
      "duration": 0.25,
      "velocity": 0.63,
      "hand": "right"
    },
    {
      "midi": 72,
      "time": 18.75,
      "duration": 0.25,
      "velocity": 0.63,
      "hand": "right"
    },
    {
      "midi": 71,
      "time": 19,
      "duration": 0.25,
      "velocity": 0.63,
      "hand": "right"
    },
    {
      "midi": 69,
      "time": 19.25,
      "duration": 0.25,
      "velocity": 0.63,
      "hand": "right"
    },
    {
      "midi": 71,
      "time": 19.5,
      "duration": 0.5,
      "velocity": 0.63,
      "hand": "right"
    },
    {
      "midi": 72,
      "time": 20,
      "duration": 0.25,
      "velocity": 0.63,
      "hand": "right"
    },
    {
      "midi": 71,
      "time": 20.25,
      "duration": 0.25,
      "velocity": 0.63,
      "hand": "right"
    },
    {
      "midi": 69,
      "time": 20.5,
      "duration": 0.25,
      "velocity": 0.63,
      "hand": "right"
    },
    {
      "midi": 67,
      "time": 20.75,
      "duration": 0.25,
      "velocity": 0.63,
      "hand": "right"
    },
    {
      "midi": 69,
      "time": 21,
      "duration": 0.5,
      "velocity": 0.63,
      "hand": "right"
    },
    {
      "midi": 71,
      "time": 21.5,
      "duration": 0.25,
      "velocity": 0.63,
      "hand": "right"
    },
    {
      "midi": 69,
      "time": 21.75,
      "duration": 0.25,
      "velocity": 0.63,
      "hand": "right"
    },
    {
      "midi": 67,
      "time": 22,
      "duration": 0.25,
      "velocity": 0.63,
      "hand": "right"
    },
    {
      "midi": 66,
      "time": 22.25,
      "duration": 0.25,
      "velocity": 0.63,
      "hand": "right"
    },
    {
      "midi": 67,
      "time": 22.5,
      "duration": 1.5,
      "velocity": 0.63,
      "hand": "right"
    },
    {
      "midi": 74,
      "time": 24,
      "duration": 0.5,
      "velocity": 0.63,
      "hand": "right"
    },
    {
      "midi": 67,
      "time": 24.5,
      "duration": 0.25,
      "velocity": 0.63,
      "hand": "right"
    },
    {
      "midi": 69,
      "time": 24.75,
      "duration": 0.25,
      "velocity": 0.63,
      "hand": "right"
    },
    {
      "midi": 71,
      "time": 25,
      "duration": 0.25,
      "velocity": 0.63,
      "hand": "right"
    },
    {
      "midi": 72,
      "time": 25.25,
      "duration": 0.25,
      "velocity": 0.63,
      "hand": "right"
    },
    {
      "midi": 74,
      "time": 25.5,
      "duration": 0.5,
      "velocity": 0.63,
      "hand": "right"
    },
    {
      "midi": 67,
      "time": 26,
      "duration": 0.25,
      "velocity": 0.63,
      "hand": "right"
    },
    {
      "midi": 67,
      "time": 26.5,
      "duration": 0.25,
      "velocity": 0.63,
      "hand": "right"
    },
    {
      "midi": 76,
      "time": 27,
      "duration": 0.5,
      "velocity": 0.63,
      "hand": "right"
    },
    {
      "midi": 72,
      "time": 27.625,
      "duration": 0.25,
      "velocity": 0.63,
      "hand": "right"
    },
    {
      "midi": 76,
      "time": 28,
      "duration": 0.25,
      "velocity": 0.63,
      "hand": "right"
    },
    {
      "midi": 78,
      "time": 28.25,
      "duration": 0.25,
      "velocity": 0.63,
      "hand": "right"
    },
    {
      "midi": 79,
      "time": 28.5,
      "duration": 0.5,
      "velocity": 0.63,
      "hand": "right"
    },
    {
      "midi": 67,
      "time": 29,
      "duration": 0.25,
      "velocity": 0.63,
      "hand": "right"
    },
    {
      "midi": 67,
      "time": 29.5,
      "duration": 0.25,
      "velocity": 0.63,
      "hand": "right"
    },
    {
      "midi": 72,
      "time": 30.125,
      "duration": 0.375,
      "velocity": 0.63,
      "hand": "right"
    },
    {
      "midi": 74,
      "time": 30.5,
      "duration": 0.25,
      "velocity": 0.63,
      "hand": "right"
    },
    {
      "midi": 72,
      "time": 30.75,
      "duration": 0.25,
      "velocity": 0.63,
      "hand": "right"
    },
    {
      "midi": 71,
      "time": 31,
      "duration": 0.25,
      "velocity": 0.63,
      "hand": "right"
    },
    {
      "midi": 69,
      "time": 31.25,
      "duration": 0.25,
      "velocity": 0.63,
      "hand": "right"
    },
    {
      "midi": 71,
      "time": 31.5,
      "duration": 0.5,
      "velocity": 0.63,
      "hand": "right"
    },
    {
      "midi": 72,
      "time": 32,
      "duration": 0.25,
      "velocity": 0.63,
      "hand": "right"
    },
    {
      "midi": 71,
      "time": 32.25,
      "duration": 0.25,
      "velocity": 0.63,
      "hand": "right"
    },
    {
      "midi": 69,
      "time": 32.5,
      "duration": 0.25,
      "velocity": 0.63,
      "hand": "right"
    },
    {
      "midi": 67,
      "time": 32.75,
      "duration": 0.25,
      "velocity": 0.63,
      "hand": "right"
    },
    {
      "midi": 66,
      "time": 33,
      "duration": 0.5,
      "velocity": 0.63,
      "hand": "right"
    },
    {
      "midi": 67,
      "time": 33.5,
      "duration": 0.25,
      "velocity": 0.63,
      "hand": "right"
    },
    {
      "midi": 69,
      "time": 33.75,
      "duration": 0.25,
      "velocity": 0.63,
      "hand": "right"
    },
    {
      "midi": 71,
      "time": 34,
      "duration": 0.25,
      "velocity": 0.63,
      "hand": "right"
    },
    {
      "midi": 67,
      "time": 34.25,
      "duration": 0.25,
      "velocity": 0.63,
      "hand": "right"
    },
    {
      "midi": 71,
      "time": 34.5,
      "duration": 0.5,
      "velocity": 0.63,
      "hand": "right"
    },
    {
      "midi": 69,
      "time": 35,
      "duration": 1,
      "velocity": 0.63,
      "hand": "right"
    },
    {
      "midi": 60,
      "time": 35.25,
      "duration": 0.25,
      "velocity": 0.63,
      "hand": "right"
    },
    {
      "midi": 74,
      "time": 36,
      "duration": 0.5,
      "velocity": 0.63,
      "hand": "right"
    },
    {
      "midi": 67,
      "time": 36.5,
      "duration": 0.25,
      "velocity": 0.63,
      "hand": "right"
    },
    {
      "midi": 69,
      "time": 36.75,
      "duration": 0.25,
      "velocity": 0.63,
      "hand": "right"
    },
    {
      "midi": 71,
      "time": 37,
      "duration": 0.25,
      "velocity": 0.63,
      "hand": "right"
    },
    {
      "midi": 72,
      "time": 37.25,
      "duration": 0.25,
      "velocity": 0.63,
      "hand": "right"
    },
    {
      "midi": 74,
      "time": 37.5,
      "duration": 0.5,
      "velocity": 0.63,
      "hand": "right"
    },
    {
      "midi": 67,
      "time": 38,
      "duration": 0.25,
      "velocity": 0.63,
      "hand": "right"
    },
    {
      "midi": 67,
      "time": 38.5,
      "duration": 0.25,
      "velocity": 0.63,
      "hand": "right"
    },
    {
      "midi": 76,
      "time": 39,
      "duration": 0.5,
      "velocity": 0.63,
      "hand": "right"
    },
    {
      "midi": 72,
      "time": 39.625,
      "duration": 0.25,
      "velocity": 0.63,
      "hand": "right"
    },
    {
      "midi": 76,
      "time": 40,
      "duration": 0.25,
      "velocity": 0.63,
      "hand": "right"
    },
    {
      "midi": 78,
      "time": 40.25,
      "duration": 0.25,
      "velocity": 0.63,
      "hand": "right"
    },
    {
      "midi": 79,
      "time": 40.5,
      "duration": 0.5,
      "velocity": 0.63,
      "hand": "right"
    },
    {
      "midi": 67,
      "time": 41,
      "duration": 0.25,
      "velocity": 0.63,
      "hand": "right"
    },
    {
      "midi": 67,
      "time": 41.5,
      "duration": 0.25,
      "velocity": 0.63,
      "hand": "right"
    },
    {
      "midi": 72,
      "time": 42.125,
      "duration": 0.375,
      "velocity": 0.63,
      "hand": "right"
    },
    {
      "midi": 74,
      "time": 42.5,
      "duration": 0.25,
      "velocity": 0.63,
      "hand": "right"
    },
    {
      "midi": 72,
      "time": 42.75,
      "duration": 0.25,
      "velocity": 0.63,
      "hand": "right"
    },
    {
      "midi": 71,
      "time": 43,
      "duration": 0.25,
      "velocity": 0.63,
      "hand": "right"
    },
    {
      "midi": 69,
      "time": 43.25,
      "duration": 0.25,
      "velocity": 0.63,
      "hand": "right"
    },
    {
      "midi": 71,
      "time": 43.5,
      "duration": 0.5,
      "velocity": 0.63,
      "hand": "right"
    },
    {
      "midi": 72,
      "time": 44,
      "duration": 0.25,
      "velocity": 0.63,
      "hand": "right"
    },
    {
      "midi": 71,
      "time": 44.25,
      "duration": 0.25,
      "velocity": 0.63,
      "hand": "right"
    },
    {
      "midi": 69,
      "time": 44.5,
      "duration": 0.25,
      "velocity": 0.63,
      "hand": "right"
    },
    {
      "midi": 67,
      "time": 44.75,
      "duration": 0.25,
      "velocity": 0.63,
      "hand": "right"
    },
    {
      "midi": 69,
      "time": 45,
      "duration": 0.5,
      "velocity": 0.63,
      "hand": "right"
    },
    {
      "midi": 71,
      "time": 45.5,
      "duration": 0.25,
      "velocity": 0.63,
      "hand": "right"
    },
    {
      "midi": 69,
      "time": 45.75,
      "duration": 0.25,
      "velocity": 0.63,
      "hand": "right"
    },
    {
      "midi": 67,
      "time": 46,
      "duration": 0.25,
      "velocity": 0.63,
      "hand": "right"
    },
    {
      "midi": 66,
      "time": 46.25,
      "duration": 0.25,
      "velocity": 0.63,
      "hand": "right"
    },
    {
      "midi": 67,
      "time": 46.5,
      "duration": 1.5,
      "velocity": 0.63,
      "hand": "right"
    },
    {
      "midi": 83,
      "time": 48,
      "duration": 0.5,
      "velocity": 0.63,
      "hand": "right"
    },
    {
      "midi": 79,
      "time": 48.5,
      "duration": 0.25,
      "velocity": 0.63,
      "hand": "right"
    },
    {
      "midi": 81,
      "time": 48.75,
      "duration": 0.25,
      "velocity": 0.63,
      "hand": "right"
    },
    {
      "midi": 83,
      "time": 49,
      "duration": 0.25,
      "velocity": 0.63,
      "hand": "right"
    },
    {
      "midi": 79,
      "time": 49.25,
      "duration": 0.25,
      "velocity": 0.63,
      "hand": "right"
    },
    {
      "midi": 81,
      "time": 49.5,
      "duration": 0.5,
      "velocity": 0.63,
      "hand": "right"
    },
    {
      "midi": 74,
      "time": 50,
      "duration": 0.25,
      "velocity": 0.63,
      "hand": "right"
    },
    {
      "midi": 76,
      "time": 50.25,
      "duration": 0.25,
      "velocity": 0.63,
      "hand": "right"
    },
    {
      "midi": 78,
      "time": 50.5,
      "duration": 0.25,
      "velocity": 0.63,
      "hand": "right"
    },
    {
      "midi": 74,
      "time": 50.75,
      "duration": 0.25,
      "velocity": 0.63,
      "hand": "right"
    },
    {
      "midi": 79,
      "time": 51,
      "duration": 0.5,
      "velocity": 0.63,
      "hand": "right"
    },
    {
      "midi": 76,
      "time": 51.5,
      "duration": 0.25,
      "velocity": 0.63,
      "hand": "right"
    },
    {
      "midi": 78,
      "time": 51.75,
      "duration": 0.25,
      "velocity": 0.63,
      "hand": "right"
    },
    {
      "midi": 79,
      "time": 52,
      "duration": 0.25,
      "velocity": 0.63,
      "hand": "right"
    },
    {
      "midi": 74,
      "time": 52.25,
      "duration": 0.25,
      "velocity": 0.63,
      "hand": "right"
    },
    {
      "midi": 73,
      "time": 52.5,
      "duration": 0.5,
      "velocity": 0.63,
      "hand": "right"
    },
    {
      "midi": 71,
      "time": 53,
      "duration": 0.25,
      "velocity": 0.63,
      "hand": "right"
    },
    {
      "midi": 73,
      "time": 53.25,
      "duration": 0.25,
      "velocity": 0.63,
      "hand": "right"
    },
    {
      "midi": 69,
      "time": 53.5,
      "duration": 0.5,
      "velocity": 0.63,
      "hand": "right"
    },
    {
      "midi": 69,
      "time": 54,
      "duration": 0.25,
      "velocity": 0.63,
      "hand": "right"
    },
    {
      "midi": 71,
      "time": 54.25,
      "duration": 0.25,
      "velocity": 0.63,
      "hand": "right"
    },
    {
      "midi": 73,
      "time": 54.5,
      "duration": 0.25,
      "velocity": 0.63,
      "hand": "right"
    },
    {
      "midi": 74,
      "time": 54.75,
      "duration": 0.25,
      "velocity": 0.63,
      "hand": "right"
    },
    {
      "midi": 76,
      "time": 55,
      "duration": 0.25,
      "velocity": 0.63,
      "hand": "right"
    },
    {
      "midi": 78,
      "time": 55.25,
      "duration": 0.25,
      "velocity": 0.63,
      "hand": "right"
    },
    {
      "midi": 79,
      "time": 55.5,
      "duration": 0.5,
      "velocity": 0.63,
      "hand": "right"
    },
    {
      "midi": 78,
      "time": 56,
      "duration": 0.5,
      "velocity": 0.63,
      "hand": "right"
    },
    {
      "midi": 76,
      "time": 56.5,
      "duration": 0.5,
      "velocity": 0.63,
      "hand": "right"
    },
    {
      "midi": 78,
      "time": 57,
      "duration": 0.5,
      "velocity": 0.63,
      "hand": "right"
    },
    {
      "midi": 69,
      "time": 57.5,
      "duration": 0.5,
      "velocity": 0.63,
      "hand": "right"
    },
    {
      "midi": 73,
      "time": 58,
      "duration": 0.5,
      "velocity": 0.63,
      "hand": "right"
    },
    {
      "midi": 74,
      "time": 58.5,
      "duration": 1.5,
      "velocity": 0.63,
      "hand": "right"
    },
    {
      "midi": 60,
      "time": 59.5,
      "duration": 0.5,
      "velocity": 0.63,
      "hand": "right"
    },
    {
      "midi": 74,
      "time": 60,
      "duration": 0.5,
      "velocity": 0.63,
      "hand": "right"
    },
    {
      "midi": 67,
      "time": 60.5,
      "duration": 0.25,
      "velocity": 0.63,
      "hand": "right"
    },
    {
      "midi": 66,
      "time": 60.75,
      "duration": 0.25,
      "velocity": 0.63,
      "hand": "right"
    },
    {
      "midi": 67,
      "time": 61,
      "duration": 0.5,
      "velocity": 0.63,
      "hand": "right"
    },
    {
      "midi": 76,
      "time": 61.5,
      "duration": 0.5,
      "velocity": 0.63,
      "hand": "right"
    },
    {
      "midi": 67,
      "time": 62,
      "duration": 0.25,
      "velocity": 0.63,
      "hand": "right"
    },
    {
      "midi": 66,
      "time": 62.25,
      "duration": 0.25,
      "velocity": 0.63,
      "hand": "right"
    },
    {
      "midi": 67,
      "time": 62.5,
      "duration": 0.5,
      "velocity": 0.63,
      "hand": "right"
    },
    {
      "midi": 74,
      "time": 63,
      "duration": 0.5,
      "velocity": 0.63,
      "hand": "right"
    },
    {
      "midi": 72,
      "time": 63.5,
      "duration": 0.5,
      "velocity": 0.63,
      "hand": "right"
    },
    {
      "midi": 71,
      "time": 64,
      "duration": 0.5,
      "velocity": 0.63,
      "hand": "right"
    },
    {
      "midi": 69,
      "time": 64.5,
      "duration": 0.25,
      "velocity": 0.63,
      "hand": "right"
    },
    {
      "midi": 67,
      "time": 64.75,
      "duration": 0.25,
      "velocity": 0.63,
      "hand": "right"
    },
    {
      "midi": 66,
      "time": 65,
      "duration": 0.25,
      "velocity": 0.63,
      "hand": "right"
    },
    {
      "midi": 67,
      "time": 65.25,
      "duration": 0.25,
      "velocity": 0.63,
      "hand": "right"
    },
    {
      "midi": 69,
      "time": 65.5,
      "duration": 0.5,
      "velocity": 0.63,
      "hand": "right"
    },
    {
      "midi": 62,
      "time": 66,
      "duration": 0.25,
      "velocity": 0.63,
      "hand": "right"
    },
    {
      "midi": 64,
      "time": 66.25,
      "duration": 0.25,
      "velocity": 0.63,
      "hand": "right"
    },
    {
      "midi": 66,
      "time": 66.5,
      "duration": 0.25,
      "velocity": 0.63,
      "hand": "right"
    },
    {
      "midi": 67,
      "time": 66.75,
      "duration": 0.25,
      "velocity": 0.63,
      "hand": "right"
    },
    {
      "midi": 69,
      "time": 67,
      "duration": 0.25,
      "velocity": 0.63,
      "hand": "right"
    },
    {
      "midi": 71,
      "time": 67.25,
      "duration": 0.25,
      "velocity": 0.63,
      "hand": "right"
    },
    {
      "midi": 72,
      "time": 67.5,
      "duration": 0.5,
      "velocity": 0.63,
      "hand": "right"
    },
    {
      "midi": 71,
      "time": 68.25,
      "duration": 0.25,
      "velocity": 0.63,
      "hand": "right"
    },
    {
      "midi": 69,
      "time": 68.5,
      "duration": 0.5,
      "velocity": 0.63,
      "hand": "right"
    },
    {
      "midi": 71,
      "time": 69,
      "duration": 0.25,
      "velocity": 0.63,
      "hand": "right"
    },
    {
      "midi": 74,
      "time": 69.25,
      "duration": 0.25,
      "velocity": 0.63,
      "hand": "right"
    },
    {
      "midi": 67,
      "time": 69.5,
      "duration": 0.5,
      "velocity": 0.63,
      "hand": "right"
    },
    {
      "midi": 66,
      "time": 70,
      "duration": 0.5,
      "velocity": 0.63,
      "hand": "right"
    },
    {
      "midi": 67,
      "time": 70.5,
      "duration": 1.5,
      "velocity": 0.63,
      "hand": "right"
    },
    {
      "midi": 83,
      "time": 72,
      "duration": 0.5,
      "velocity": 0.63,
      "hand": "right"
    },
    {
      "midi": 79,
      "time": 72.5,
      "duration": 0.25,
      "velocity": 0.63,
      "hand": "right"
    },
    {
      "midi": 81,
      "time": 72.75,
      "duration": 0.25,
      "velocity": 0.63,
      "hand": "right"
    },
    {
      "midi": 83,
      "time": 73,
      "duration": 0.25,
      "velocity": 0.63,
      "hand": "right"
    },
    {
      "midi": 79,
      "time": 73.25,
      "duration": 0.25,
      "velocity": 0.63,
      "hand": "right"
    },
    {
      "midi": 81,
      "time": 73.5,
      "duration": 0.5,
      "velocity": 0.63,
      "hand": "right"
    },
    {
      "midi": 74,
      "time": 74,
      "duration": 0.25,
      "velocity": 0.63,
      "hand": "right"
    },
    {
      "midi": 76,
      "time": 74.25,
      "duration": 0.25,
      "velocity": 0.63,
      "hand": "right"
    },
    {
      "midi": 78,
      "time": 74.5,
      "duration": 0.25,
      "velocity": 0.63,
      "hand": "right"
    },
    {
      "midi": 74,
      "time": 74.75,
      "duration": 0.25,
      "velocity": 0.63,
      "hand": "right"
    },
    {
      "midi": 79,
      "time": 75,
      "duration": 0.5,
      "velocity": 0.63,
      "hand": "right"
    },
    {
      "midi": 76,
      "time": 75.5,
      "duration": 0.25,
      "velocity": 0.63,
      "hand": "right"
    },
    {
      "midi": 78,
      "time": 75.75,
      "duration": 0.25,
      "velocity": 0.63,
      "hand": "right"
    },
    {
      "midi": 79,
      "time": 76,
      "duration": 0.25,
      "velocity": 0.63,
      "hand": "right"
    },
    {
      "midi": 74,
      "time": 76.25,
      "duration": 0.25,
      "velocity": 0.63,
      "hand": "right"
    },
    {
      "midi": 73,
      "time": 76.5,
      "duration": 0.5,
      "velocity": 0.63,
      "hand": "right"
    },
    {
      "midi": 71,
      "time": 77,
      "duration": 0.25,
      "velocity": 0.63,
      "hand": "right"
    },
    {
      "midi": 73,
      "time": 77.25,
      "duration": 0.25,
      "velocity": 0.63,
      "hand": "right"
    },
    {
      "midi": 69,
      "time": 77.5,
      "duration": 0.5,
      "velocity": 0.63,
      "hand": "right"
    },
    {
      "midi": 69,
      "time": 78,
      "duration": 0.25,
      "velocity": 0.63,
      "hand": "right"
    },
    {
      "midi": 71,
      "time": 78.25,
      "duration": 0.25,
      "velocity": 0.63,
      "hand": "right"
    },
    {
      "midi": 73,
      "time": 78.5,
      "duration": 0.25,
      "velocity": 0.63,
      "hand": "right"
    },
    {
      "midi": 74,
      "time": 78.75,
      "duration": 0.25,
      "velocity": 0.63,
      "hand": "right"
    },
    {
      "midi": 76,
      "time": 79,
      "duration": 0.25,
      "velocity": 0.63,
      "hand": "right"
    },
    {
      "midi": 78,
      "time": 79.25,
      "duration": 0.25,
      "velocity": 0.63,
      "hand": "right"
    },
    {
      "midi": 79,
      "time": 79.5,
      "duration": 0.5,
      "velocity": 0.63,
      "hand": "right"
    },
    {
      "midi": 78,
      "time": 80,
      "duration": 0.5,
      "velocity": 0.63,
      "hand": "right"
    },
    {
      "midi": 76,
      "time": 80.5,
      "duration": 0.5,
      "velocity": 0.63,
      "hand": "right"
    },
    {
      "midi": 78,
      "time": 81,
      "duration": 0.5,
      "velocity": 0.63,
      "hand": "right"
    },
    {
      "midi": 69,
      "time": 81.5,
      "duration": 0.5,
      "velocity": 0.63,
      "hand": "right"
    },
    {
      "midi": 73,
      "time": 82,
      "duration": 0.5,
      "velocity": 0.63,
      "hand": "right"
    },
    {
      "midi": 74,
      "time": 82.5,
      "duration": 1.5,
      "velocity": 0.63,
      "hand": "right"
    },
    {
      "midi": 60,
      "time": 83.5,
      "duration": 0.5,
      "velocity": 0.63,
      "hand": "right"
    },
    {
      "midi": 74,
      "time": 84,
      "duration": 0.5,
      "velocity": 0.63,
      "hand": "right"
    },
    {
      "midi": 67,
      "time": 84.5,
      "duration": 0.25,
      "velocity": 0.63,
      "hand": "right"
    },
    {
      "midi": 66,
      "time": 84.75,
      "duration": 0.25,
      "velocity": 0.63,
      "hand": "right"
    },
    {
      "midi": 67,
      "time": 85,
      "duration": 0.5,
      "velocity": 0.63,
      "hand": "right"
    },
    {
      "midi": 76,
      "time": 85.5,
      "duration": 0.5,
      "velocity": 0.63,
      "hand": "right"
    },
    {
      "midi": 67,
      "time": 86,
      "duration": 0.25,
      "velocity": 0.63,
      "hand": "right"
    },
    {
      "midi": 66,
      "time": 86.25,
      "duration": 0.25,
      "velocity": 0.63,
      "hand": "right"
    },
    {
      "midi": 67,
      "time": 86.5,
      "duration": 0.5,
      "velocity": 0.63,
      "hand": "right"
    },
    {
      "midi": 74,
      "time": 87,
      "duration": 0.5,
      "velocity": 0.63,
      "hand": "right"
    },
    {
      "midi": 72,
      "time": 87.5,
      "duration": 0.5,
      "velocity": 0.63,
      "hand": "right"
    },
    {
      "midi": 71,
      "time": 88,
      "duration": 0.5,
      "velocity": 0.63,
      "hand": "right"
    },
    {
      "midi": 69,
      "time": 88.5,
      "duration": 0.25,
      "velocity": 0.63,
      "hand": "right"
    },
    {
      "midi": 67,
      "time": 88.75,
      "duration": 0.25,
      "velocity": 0.63,
      "hand": "right"
    },
    {
      "midi": 66,
      "time": 89,
      "duration": 0.25,
      "velocity": 0.63,
      "hand": "right"
    },
    {
      "midi": 67,
      "time": 89.25,
      "duration": 0.25,
      "velocity": 0.63,
      "hand": "right"
    },
    {
      "midi": 69,
      "time": 89.5,
      "duration": 0.5,
      "velocity": 0.63,
      "hand": "right"
    },
    {
      "midi": 62,
      "time": 90,
      "duration": 0.25,
      "velocity": 0.63,
      "hand": "right"
    },
    {
      "midi": 64,
      "time": 90.25,
      "duration": 0.25,
      "velocity": 0.63,
      "hand": "right"
    },
    {
      "midi": 66,
      "time": 90.5,
      "duration": 0.25,
      "velocity": 0.63,
      "hand": "right"
    },
    {
      "midi": 67,
      "time": 90.75,
      "duration": 0.25,
      "velocity": 0.63,
      "hand": "right"
    },
    {
      "midi": 69,
      "time": 91,
      "duration": 0.25,
      "velocity": 0.63,
      "hand": "right"
    },
    {
      "midi": 71,
      "time": 91.25,
      "duration": 0.25,
      "velocity": 0.63,
      "hand": "right"
    },
    {
      "midi": 72,
      "time": 91.5,
      "duration": 0.5,
      "velocity": 0.63,
      "hand": "right"
    },
    {
      "midi": 71,
      "time": 92.25,
      "duration": 0.25,
      "velocity": 0.63,
      "hand": "right"
    },
    {
      "midi": 69,
      "time": 92.5,
      "duration": 0.5,
      "velocity": 0.63,
      "hand": "right"
    },
    {
      "midi": 71,
      "time": 93,
      "duration": 0.25,
      "velocity": 0.63,
      "hand": "right"
    },
    {
      "midi": 74,
      "time": 93.25,
      "duration": 0.25,
      "velocity": 0.63,
      "hand": "right"
    },
    {
      "midi": 67,
      "time": 93.5,
      "duration": 0.5,
      "velocity": 0.63,
      "hand": "right"
    },
    {
      "midi": 66,
      "time": 94,
      "duration": 0.5,
      "velocity": 0.63,
      "hand": "right"
    },
    {
      "midi": 67,
      "time": 94.5,
      "duration": 1.5,
      "velocity": 0.63,
      "hand": "right"
    }
  ],
  "notes2Hands": [
    {
      "midi": 55,
      "time": 0,
      "duration": 1,
      "velocity": 0.63,
      "hand": "left"
    },
    {
      "midi": 59,
      "time": 0,
      "duration": 1,
      "velocity": 0.63,
      "hand": "left"
    },
    {
      "midi": 62,
      "time": 0,
      "duration": 1,
      "velocity": 0.63,
      "hand": "right"
    },
    {
      "midi": 74,
      "time": 0,
      "duration": 0.5,
      "velocity": 0.63,
      "hand": "right"
    },
    {
      "midi": 67,
      "time": 0.5,
      "duration": 0.25,
      "velocity": 0.63,
      "hand": "right"
    },
    {
      "midi": 69,
      "time": 0.75,
      "duration": 0.25,
      "velocity": 0.63,
      "hand": "right"
    },
    {
      "midi": 57,
      "time": 1,
      "duration": 0.5,
      "velocity": 0.63,
      "hand": "left"
    },
    {
      "midi": 71,
      "time": 1,
      "duration": 0.25,
      "velocity": 0.63,
      "hand": "right"
    },
    {
      "midi": 72,
      "time": 1.25,
      "duration": 0.25,
      "velocity": 0.63,
      "hand": "right"
    },
    {
      "midi": 59,
      "time": 1.5,
      "duration": 1.5,
      "velocity": 0.63,
      "hand": "left"
    },
    {
      "midi": 74,
      "time": 1.5,
      "duration": 0.5,
      "velocity": 0.63,
      "hand": "right"
    },
    {
      "midi": 67,
      "time": 2,
      "duration": 0.25,
      "velocity": 0.63,
      "hand": "right"
    },
    {
      "midi": 67,
      "time": 2.5,
      "duration": 0.25,
      "velocity": 0.63,
      "hand": "right"
    },
    {
      "midi": 60,
      "time": 3,
      "duration": 1.5,
      "velocity": 0.63,
      "hand": "right"
    },
    {
      "midi": 76,
      "time": 3,
      "duration": 0.5,
      "velocity": 0.63,
      "hand": "right"
    },
    {
      "midi": 72,
      "time": 3.5,
      "duration": 0.063,
      "velocity": 0.63,
      "hand": "right"
    },
    {
      "midi": 71,
      "time": 3.625,
      "duration": 0.063,
      "velocity": 0.63,
      "hand": "right"
    },
    {
      "midi": 72,
      "time": 3.625,
      "duration": 0.125,
      "velocity": 0.63,
      "hand": "right"
    },
    {
      "midi": 74,
      "time": 3.75,
      "duration": 0.25,
      "velocity": 0.63,
      "hand": "right"
    },
    {
      "midi": 76,
      "time": 4,
      "duration": 0.25,
      "velocity": 0.63,
      "hand": "right"
    },
    {
      "midi": 78,
      "time": 4.25,
      "duration": 0.25,
      "velocity": 0.63,
      "hand": "right"
    },
    {
      "midi": 59,
      "time": 4.5,
      "duration": 1.5,
      "velocity": 0.63,
      "hand": "left"
    },
    {
      "midi": 79,
      "time": 4.5,
      "duration": 0.5,
      "velocity": 0.63,
      "hand": "right"
    },
    {
      "midi": 67,
      "time": 5,
      "duration": 0.25,
      "velocity": 0.63,
      "hand": "right"
    },
    {
      "midi": 67,
      "time": 5.5,
      "duration": 0.25,
      "velocity": 0.63,
      "hand": "right"
    },
    {
      "midi": 57,
      "time": 6,
      "duration": 1.5,
      "velocity": 0.63,
      "hand": "left"
    },
    {
      "midi": 72,
      "time": 6,
      "duration": 0.063,
      "velocity": 0.63,
      "hand": "right"
    },
    {
      "midi": 71,
      "time": 6.125,
      "duration": 0.063,
      "velocity": 0.63,
      "hand": "right"
    },
    {
      "midi": 72,
      "time": 6.125,
      "duration": 0.375,
      "velocity": 0.63,
      "hand": "right"
    },
    {
      "midi": 74,
      "time": 6.5,
      "duration": 0.25,
      "velocity": 0.63,
      "hand": "right"
    },
    {
      "midi": 72,
      "time": 6.75,
      "duration": 0.25,
      "velocity": 0.63,
      "hand": "right"
    },
    {
      "midi": 71,
      "time": 7,
      "duration": 0.25,
      "velocity": 0.63,
      "hand": "right"
    },
    {
      "midi": 69,
      "time": 7.25,
      "duration": 0.25,
      "velocity": 0.63,
      "hand": "right"
    },
    {
      "midi": 55,
      "time": 7.5,
      "duration": 1.5,
      "velocity": 0.63,
      "hand": "left"
    },
    {
      "midi": 71,
      "time": 7.5,
      "duration": 0.5,
      "velocity": 0.63,
      "hand": "right"
    },
    {
      "midi": 72,
      "time": 8,
      "duration": 0.25,
      "velocity": 0.63,
      "hand": "right"
    },
    {
      "midi": 71,
      "time": 8.25,
      "duration": 0.25,
      "velocity": 0.63,
      "hand": "right"
    },
    {
      "midi": 69,
      "time": 8.5,
      "duration": 0.25,
      "velocity": 0.63,
      "hand": "right"
    },
    {
      "midi": 67,
      "time": 8.75,
      "duration": 0.25,
      "velocity": 0.63,
      "hand": "right"
    },
    {
      "midi": 62,
      "time": 9,
      "duration": 0.5,
      "velocity": 0.63,
      "hand": "right"
    },
    {
      "midi": 66,
      "time": 9,
      "duration": 0.5,
      "velocity": 0.63,
      "hand": "right"
    },
    {
      "midi": 59,
      "time": 9.5,
      "duration": 0.5,
      "velocity": 0.63,
      "hand": "left"
    },
    {
      "midi": 67,
      "time": 9.5,
      "duration": 0.25,
      "velocity": 0.63,
      "hand": "right"
    },
    {
      "midi": 69,
      "time": 9.75,
      "duration": 0.25,
      "velocity": 0.63,
      "hand": "right"
    },
    {
      "midi": 55,
      "time": 10,
      "duration": 0.5,
      "velocity": 0.63,
      "hand": "left"
    },
    {
      "midi": 71,
      "time": 10,
      "duration": 0.25,
      "velocity": 0.63,
      "hand": "right"
    },
    {
      "midi": 67,
      "time": 10.25,
      "duration": 0.25,
      "velocity": 0.63,
      "hand": "right"
    },
    {
      "midi": 62,
      "time": 10.5,
      "duration": 0.5,
      "velocity": 0.63,
      "hand": "right"
    },
    {
      "midi": 71,
      "time": 10.5,
      "duration": 0.5,
      "velocity": 0.63,
      "hand": "right"
    },
    {
      "midi": 50,
      "time": 11,
      "duration": 0.25,
      "velocity": 0.63,
      "hand": "left"
    },
    {
      "midi": 69,
      "time": 11,
      "duration": 1,
      "velocity": 0.63,
      "hand": "right"
    },
    {
      "midi": 60,
      "time": 11.25,
      "duration": 0.25,
      "velocity": 0.63,
      "hand": "right"
    },
    {
      "midi": 59,
      "time": 11.5,
      "duration": 0.25,
      "velocity": 0.63,
      "hand": "left"
    },
    {
      "midi": 57,
      "time": 11.75,
      "duration": 0.25,
      "velocity": 0.63,
      "hand": "left"
    },
    {
      "midi": 59,
      "time": 12,
      "duration": 1,
      "velocity": 0.63,
      "hand": "left"
    },
    {
      "midi": 74,
      "time": 12,
      "duration": 0.5,
      "velocity": 0.63,
      "hand": "right"
    },
    {
      "midi": 67,
      "time": 12.5,
      "duration": 0.25,
      "velocity": 0.63,
      "hand": "right"
    },
    {
      "midi": 69,
      "time": 12.75,
      "duration": 0.25,
      "velocity": 0.63,
      "hand": "right"
    },
    {
      "midi": 57,
      "time": 13,
      "duration": 0.5,
      "velocity": 0.63,
      "hand": "left"
    },
    {
      "midi": 71,
      "time": 13,
      "duration": 0.25,
      "velocity": 0.63,
      "hand": "right"
    },
    {
      "midi": 72,
      "time": 13.25,
      "duration": 0.25,
      "velocity": 0.63,
      "hand": "right"
    },
    {
      "midi": 55,
      "time": 13.5,
      "duration": 0.5,
      "velocity": 0.63,
      "hand": "left"
    },
    {
      "midi": 74,
      "time": 13.5,
      "duration": 0.5,
      "velocity": 0.63,
      "hand": "right"
    },
    {
      "midi": 59,
      "time": 14,
      "duration": 0.25,
      "velocity": 0.63,
      "hand": "left"
    },
    {
      "midi": 67,
      "time": 14,
      "duration": 0.25,
      "velocity": 0.63,
      "hand": "right"
    },
    {
      "midi": 55,
      "time": 14.5,
      "duration": 0.25,
      "velocity": 0.63,
      "hand": "left"
    },
    {
      "midi": 67,
      "time": 14.5,
      "duration": 0.25,
      "velocity": 0.63,
      "hand": "right"
    },
    {
      "midi": 60,
      "time": 15,
      "duration": 1.5,
      "velocity": 0.63,
      "hand": "right"
    },
    {
      "midi": 76,
      "time": 15,
      "duration": 0.5,
      "velocity": 0.63,
      "hand": "right"
    },
    {
      "midi": 72,
      "time": 15.5,
      "duration": 0.063,
      "velocity": 0.63,
      "hand": "right"
    },
    {
      "midi": 71,
      "time": 15.625,
      "duration": 0.063,
      "velocity": 0.63,
      "hand": "right"
    },
    {
      "midi": 72,
      "time": 15.625,
      "duration": 0.125,
      "velocity": 0.63,
      "hand": "right"
    },
    {
      "midi": 74,
      "time": 15.75,
      "duration": 0.25,
      "velocity": 0.63,
      "hand": "right"
    },
    {
      "midi": 76,
      "time": 16,
      "duration": 0.25,
      "velocity": 0.63,
      "hand": "right"
    },
    {
      "midi": 78,
      "time": 16.25,
      "duration": 0.25,
      "velocity": 0.63,
      "hand": "right"
    },
    {
      "midi": 59,
      "time": 16.5,
      "duration": 0.5,
      "velocity": 0.63,
      "hand": "left"
    },
    {
      "midi": 79,
      "time": 16.5,
      "duration": 0.5,
      "velocity": 0.63,
      "hand": "right"
    },
    {
      "midi": 60,
      "time": 17,
      "duration": 0.25,
      "velocity": 0.63,
      "hand": "right"
    },
    {
      "midi": 67,
      "time": 17,
      "duration": 0.25,
      "velocity": 0.63,
      "hand": "right"
    },
    {
      "midi": 59,
      "time": 17.25,
      "duration": 0.25,
      "velocity": 0.63,
      "hand": "left"
    },
    {
      "midi": 57,
      "time": 17.5,
      "duration": 0.25,
      "velocity": 0.63,
      "hand": "left"
    },
    {
      "midi": 67,
      "time": 17.5,
      "duration": 0.25,
      "velocity": 0.63,
      "hand": "right"
    },
    {
      "midi": 55,
      "time": 17.75,
      "duration": 0.25,
      "velocity": 0.63,
      "hand": "left"
    },
    {
      "midi": 57,
      "time": 18,
      "duration": 1,
      "velocity": 0.63,
      "hand": "left"
    },
    {
      "midi": 72,
      "time": 18,
      "duration": 0.063,
      "velocity": 0.63,
      "hand": "right"
    },
    {
      "midi": 71,
      "time": 18.125,
      "duration": 0.063,
      "velocity": 0.63,
      "hand": "right"
    },
    {
      "midi": 72,
      "time": 18.125,
      "duration": 0.375,
      "velocity": 0.63,
      "hand": "right"
    },
    {
      "midi": 74,
      "time": 18.5,
      "duration": 0.25,
      "velocity": 0.63,
      "hand": "right"
    },
    {
      "midi": 72,
      "time": 18.75,
      "duration": 0.25,
      "velocity": 0.63,
      "hand": "right"
    },
    {
      "midi": 54,
      "time": 19,
      "duration": 0.5,
      "velocity": 0.63,
      "hand": "left"
    },
    {
      "midi": 71,
      "time": 19,
      "duration": 0.25,
      "velocity": 0.63,
      "hand": "right"
    },
    {
      "midi": 69,
      "time": 19.25,
      "duration": 0.25,
      "velocity": 0.63,
      "hand": "right"
    },
    {
      "midi": 55,
      "time": 19.5,
      "duration": 1,
      "velocity": 0.63,
      "hand": "left"
    },
    {
      "midi": 71,
      "time": 19.5,
      "duration": 0.5,
      "velocity": 0.63,
      "hand": "right"
    },
    {
      "midi": 72,
      "time": 20,
      "duration": 0.25,
      "velocity": 0.63,
      "hand": "right"
    },
    {
      "midi": 71,
      "time": 20.25,
      "duration": 0.25,
      "velocity": 0.63,
      "hand": "right"
    },
    {
      "midi": 59,
      "time": 20.5,
      "duration": 0.5,
      "velocity": 0.63,
      "hand": "left"
    },
    {
      "midi": 69,
      "time": 20.5,
      "duration": 0.25,
      "velocity": 0.63,
      "hand": "right"
    },
    {
      "midi": 67,
      "time": 20.75,
      "duration": 0.25,
      "velocity": 0.63,
      "hand": "right"
    },
    {
      "midi": 60,
      "time": 21,
      "duration": 0.5,
      "velocity": 0.63,
      "hand": "right"
    },
    {
      "midi": 69,
      "time": 21,
      "duration": 0.5,
      "velocity": 0.63,
      "hand": "right"
    },
    {
      "midi": 62,
      "time": 21.5,
      "duration": 0.5,
      "velocity": 0.63,
      "hand": "right"
    },
    {
      "midi": 71,
      "time": 21.5,
      "duration": 0.25,
      "velocity": 0.63,
      "hand": "right"
    },
    {
      "midi": 69,
      "time": 21.75,
      "duration": 0.25,
      "velocity": 0.63,
      "hand": "right"
    },
    {
      "midi": 50,
      "time": 22,
      "duration": 0.5,
      "velocity": 0.63,
      "hand": "left"
    },
    {
      "midi": 67,
      "time": 22,
      "duration": 0.25,
      "velocity": 0.63,
      "hand": "right"
    },
    {
      "midi": 66,
      "time": 22.25,
      "duration": 0.25,
      "velocity": 0.63,
      "hand": "right"
    },
    {
      "midi": 55,
      "time": 22.5,
      "duration": 1,
      "velocity": 0.63,
      "hand": "left"
    },
    {
      "midi": 67,
      "time": 22.5,
      "duration": 1.5,
      "velocity": 0.63,
      "hand": "right"
    },
    {
      "midi": 43,
      "time": 23.5,
      "duration": 0.5,
      "velocity": 0.63,
      "hand": "left"
    },
    {
      "midi": 55,
      "time": 24,
      "duration": 1,
      "velocity": 0.63,
      "hand": "left"
    },
    {
      "midi": 59,
      "time": 24,
      "duration": 1,
      "velocity": 0.63,
      "hand": "left"
    },
    {
      "midi": 62,
      "time": 24,
      "duration": 1,
      "velocity": 0.63,
      "hand": "right"
    },
    {
      "midi": 74,
      "time": 24,
      "duration": 0.5,
      "velocity": 0.63,
      "hand": "right"
    },
    {
      "midi": 67,
      "time": 24.5,
      "duration": 0.25,
      "velocity": 0.63,
      "hand": "right"
    },
    {
      "midi": 69,
      "time": 24.75,
      "duration": 0.25,
      "velocity": 0.63,
      "hand": "right"
    },
    {
      "midi": 57,
      "time": 25,
      "duration": 0.5,
      "velocity": 0.63,
      "hand": "left"
    },
    {
      "midi": 71,
      "time": 25,
      "duration": 0.25,
      "velocity": 0.63,
      "hand": "right"
    },
    {
      "midi": 72,
      "time": 25.25,
      "duration": 0.25,
      "velocity": 0.63,
      "hand": "right"
    },
    {
      "midi": 59,
      "time": 25.5,
      "duration": 1.5,
      "velocity": 0.63,
      "hand": "left"
    },
    {
      "midi": 74,
      "time": 25.5,
      "duration": 0.5,
      "velocity": 0.63,
      "hand": "right"
    },
    {
      "midi": 67,
      "time": 26,
      "duration": 0.25,
      "velocity": 0.63,
      "hand": "right"
    },
    {
      "midi": 67,
      "time": 26.5,
      "duration": 0.25,
      "velocity": 0.63,
      "hand": "right"
    },
    {
      "midi": 60,
      "time": 27,
      "duration": 1.5,
      "velocity": 0.63,
      "hand": "right"
    },
    {
      "midi": 76,
      "time": 27,
      "duration": 0.5,
      "velocity": 0.63,
      "hand": "right"
    },
    {
      "midi": 72,
      "time": 27.5,
      "duration": 0.063,
      "velocity": 0.63,
      "hand": "right"
    },
    {
      "midi": 71,
      "time": 27.625,
      "duration": 0.063,
      "velocity": 0.63,
      "hand": "right"
    },
    {
      "midi": 72,
      "time": 27.625,
      "duration": 0.125,
      "velocity": 0.63,
      "hand": "right"
    },
    {
      "midi": 74,
      "time": 27.75,
      "duration": 0.25,
      "velocity": 0.63,
      "hand": "right"
    },
    {
      "midi": 76,
      "time": 28,
      "duration": 0.25,
      "velocity": 0.63,
      "hand": "right"
    },
    {
      "midi": 78,
      "time": 28.25,
      "duration": 0.25,
      "velocity": 0.63,
      "hand": "right"
    },
    {
      "midi": 59,
      "time": 28.5,
      "duration": 1.5,
      "velocity": 0.63,
      "hand": "left"
    },
    {
      "midi": 79,
      "time": 28.5,
      "duration": 0.5,
      "velocity": 0.63,
      "hand": "right"
    },
    {
      "midi": 67,
      "time": 29,
      "duration": 0.25,
      "velocity": 0.63,
      "hand": "right"
    },
    {
      "midi": 67,
      "time": 29.5,
      "duration": 0.25,
      "velocity": 0.63,
      "hand": "right"
    },
    {
      "midi": 57,
      "time": 30,
      "duration": 1.5,
      "velocity": 0.63,
      "hand": "left"
    },
    {
      "midi": 72,
      "time": 30,
      "duration": 0.063,
      "velocity": 0.63,
      "hand": "right"
    },
    {
      "midi": 71,
      "time": 30.125,
      "duration": 0.063,
      "velocity": 0.63,
      "hand": "right"
    },
    {
      "midi": 72,
      "time": 30.125,
      "duration": 0.375,
      "velocity": 0.63,
      "hand": "right"
    },
    {
      "midi": 74,
      "time": 30.5,
      "duration": 0.25,
      "velocity": 0.63,
      "hand": "right"
    },
    {
      "midi": 72,
      "time": 30.75,
      "duration": 0.25,
      "velocity": 0.63,
      "hand": "right"
    },
    {
      "midi": 71,
      "time": 31,
      "duration": 0.25,
      "velocity": 0.63,
      "hand": "right"
    },
    {
      "midi": 69,
      "time": 31.25,
      "duration": 0.25,
      "velocity": 0.63,
      "hand": "right"
    },
    {
      "midi": 55,
      "time": 31.5,
      "duration": 1.5,
      "velocity": 0.63,
      "hand": "left"
    },
    {
      "midi": 71,
      "time": 31.5,
      "duration": 0.5,
      "velocity": 0.63,
      "hand": "right"
    },
    {
      "midi": 72,
      "time": 32,
      "duration": 0.25,
      "velocity": 0.63,
      "hand": "right"
    },
    {
      "midi": 71,
      "time": 32.25,
      "duration": 0.25,
      "velocity": 0.63,
      "hand": "right"
    },
    {
      "midi": 69,
      "time": 32.5,
      "duration": 0.25,
      "velocity": 0.63,
      "hand": "right"
    },
    {
      "midi": 67,
      "time": 32.75,
      "duration": 0.25,
      "velocity": 0.63,
      "hand": "right"
    },
    {
      "midi": 62,
      "time": 33,
      "duration": 0.5,
      "velocity": 0.63,
      "hand": "right"
    },
    {
      "midi": 66,
      "time": 33,
      "duration": 0.5,
      "velocity": 0.63,
      "hand": "right"
    },
    {
      "midi": 59,
      "time": 33.5,
      "duration": 0.5,
      "velocity": 0.63,
      "hand": "left"
    },
    {
      "midi": 67,
      "time": 33.5,
      "duration": 0.25,
      "velocity": 0.63,
      "hand": "right"
    },
    {
      "midi": 69,
      "time": 33.75,
      "duration": 0.25,
      "velocity": 0.63,
      "hand": "right"
    },
    {
      "midi": 55,
      "time": 34,
      "duration": 0.5,
      "velocity": 0.63,
      "hand": "left"
    },
    {
      "midi": 71,
      "time": 34,
      "duration": 0.25,
      "velocity": 0.63,
      "hand": "right"
    },
    {
      "midi": 67,
      "time": 34.25,
      "duration": 0.25,
      "velocity": 0.63,
      "hand": "right"
    },
    {
      "midi": 62,
      "time": 34.5,
      "duration": 0.5,
      "velocity": 0.63,
      "hand": "right"
    },
    {
      "midi": 71,
      "time": 34.5,
      "duration": 0.5,
      "velocity": 0.63,
      "hand": "right"
    },
    {
      "midi": 50,
      "time": 35,
      "duration": 0.25,
      "velocity": 0.63,
      "hand": "left"
    },
    {
      "midi": 69,
      "time": 35,
      "duration": 1,
      "velocity": 0.63,
      "hand": "right"
    },
    {
      "midi": 60,
      "time": 35.25,
      "duration": 0.25,
      "velocity": 0.63,
      "hand": "right"
    },
    {
      "midi": 59,
      "time": 35.5,
      "duration": 0.25,
      "velocity": 0.63,
      "hand": "left"
    },
    {
      "midi": 57,
      "time": 35.75,
      "duration": 0.25,
      "velocity": 0.63,
      "hand": "left"
    },
    {
      "midi": 59,
      "time": 36,
      "duration": 1,
      "velocity": 0.63,
      "hand": "left"
    },
    {
      "midi": 74,
      "time": 36,
      "duration": 0.5,
      "velocity": 0.63,
      "hand": "right"
    },
    {
      "midi": 67,
      "time": 36.5,
      "duration": 0.25,
      "velocity": 0.63,
      "hand": "right"
    },
    {
      "midi": 69,
      "time": 36.75,
      "duration": 0.25,
      "velocity": 0.63,
      "hand": "right"
    },
    {
      "midi": 57,
      "time": 37,
      "duration": 0.5,
      "velocity": 0.63,
      "hand": "left"
    },
    {
      "midi": 71,
      "time": 37,
      "duration": 0.25,
      "velocity": 0.63,
      "hand": "right"
    },
    {
      "midi": 72,
      "time": 37.25,
      "duration": 0.25,
      "velocity": 0.63,
      "hand": "right"
    },
    {
      "midi": 55,
      "time": 37.5,
      "duration": 0.5,
      "velocity": 0.63,
      "hand": "left"
    },
    {
      "midi": 74,
      "time": 37.5,
      "duration": 0.5,
      "velocity": 0.63,
      "hand": "right"
    },
    {
      "midi": 59,
      "time": 38,
      "duration": 0.25,
      "velocity": 0.63,
      "hand": "left"
    },
    {
      "midi": 67,
      "time": 38,
      "duration": 0.25,
      "velocity": 0.63,
      "hand": "right"
    },
    {
      "midi": 55,
      "time": 38.5,
      "duration": 0.25,
      "velocity": 0.63,
      "hand": "left"
    },
    {
      "midi": 67,
      "time": 38.5,
      "duration": 0.25,
      "velocity": 0.63,
      "hand": "right"
    },
    {
      "midi": 60,
      "time": 39,
      "duration": 1.5,
      "velocity": 0.63,
      "hand": "right"
    },
    {
      "midi": 76,
      "time": 39,
      "duration": 0.5,
      "velocity": 0.63,
      "hand": "right"
    },
    {
      "midi": 72,
      "time": 39.5,
      "duration": 0.063,
      "velocity": 0.63,
      "hand": "right"
    },
    {
      "midi": 71,
      "time": 39.625,
      "duration": 0.063,
      "velocity": 0.63,
      "hand": "right"
    },
    {
      "midi": 72,
      "time": 39.625,
      "duration": 0.125,
      "velocity": 0.63,
      "hand": "right"
    },
    {
      "midi": 74,
      "time": 39.75,
      "duration": 0.25,
      "velocity": 0.63,
      "hand": "right"
    },
    {
      "midi": 76,
      "time": 40,
      "duration": 0.25,
      "velocity": 0.63,
      "hand": "right"
    },
    {
      "midi": 78,
      "time": 40.25,
      "duration": 0.25,
      "velocity": 0.63,
      "hand": "right"
    },
    {
      "midi": 59,
      "time": 40.5,
      "duration": 0.5,
      "velocity": 0.63,
      "hand": "left"
    },
    {
      "midi": 79,
      "time": 40.5,
      "duration": 0.5,
      "velocity": 0.63,
      "hand": "right"
    },
    {
      "midi": 60,
      "time": 41,
      "duration": 0.25,
      "velocity": 0.63,
      "hand": "right"
    },
    {
      "midi": 67,
      "time": 41,
      "duration": 0.25,
      "velocity": 0.63,
      "hand": "right"
    },
    {
      "midi": 59,
      "time": 41.25,
      "duration": 0.25,
      "velocity": 0.63,
      "hand": "left"
    },
    {
      "midi": 57,
      "time": 41.5,
      "duration": 0.25,
      "velocity": 0.63,
      "hand": "left"
    },
    {
      "midi": 67,
      "time": 41.5,
      "duration": 0.25,
      "velocity": 0.63,
      "hand": "right"
    },
    {
      "midi": 55,
      "time": 41.75,
      "duration": 0.25,
      "velocity": 0.63,
      "hand": "left"
    },
    {
      "midi": 57,
      "time": 42,
      "duration": 1,
      "velocity": 0.63,
      "hand": "left"
    },
    {
      "midi": 72,
      "time": 42,
      "duration": 0.063,
      "velocity": 0.63,
      "hand": "right"
    },
    {
      "midi": 71,
      "time": 42.125,
      "duration": 0.063,
      "velocity": 0.63,
      "hand": "right"
    },
    {
      "midi": 72,
      "time": 42.125,
      "duration": 0.375,
      "velocity": 0.63,
      "hand": "right"
    },
    {
      "midi": 74,
      "time": 42.5,
      "duration": 0.25,
      "velocity": 0.63,
      "hand": "right"
    },
    {
      "midi": 72,
      "time": 42.75,
      "duration": 0.25,
      "velocity": 0.63,
      "hand": "right"
    },
    {
      "midi": 54,
      "time": 43,
      "duration": 0.5,
      "velocity": 0.63,
      "hand": "left"
    },
    {
      "midi": 71,
      "time": 43,
      "duration": 0.25,
      "velocity": 0.63,
      "hand": "right"
    },
    {
      "midi": 69,
      "time": 43.25,
      "duration": 0.25,
      "velocity": 0.63,
      "hand": "right"
    },
    {
      "midi": 55,
      "time": 43.5,
      "duration": 1,
      "velocity": 0.63,
      "hand": "left"
    },
    {
      "midi": 71,
      "time": 43.5,
      "duration": 0.5,
      "velocity": 0.63,
      "hand": "right"
    },
    {
      "midi": 72,
      "time": 44,
      "duration": 0.25,
      "velocity": 0.63,
      "hand": "right"
    },
    {
      "midi": 71,
      "time": 44.25,
      "duration": 0.25,
      "velocity": 0.63,
      "hand": "right"
    },
    {
      "midi": 59,
      "time": 44.5,
      "duration": 0.5,
      "velocity": 0.63,
      "hand": "left"
    },
    {
      "midi": 69,
      "time": 44.5,
      "duration": 0.25,
      "velocity": 0.63,
      "hand": "right"
    },
    {
      "midi": 67,
      "time": 44.75,
      "duration": 0.25,
      "velocity": 0.63,
      "hand": "right"
    },
    {
      "midi": 60,
      "time": 45,
      "duration": 0.5,
      "velocity": 0.63,
      "hand": "right"
    },
    {
      "midi": 69,
      "time": 45,
      "duration": 0.5,
      "velocity": 0.63,
      "hand": "right"
    },
    {
      "midi": 62,
      "time": 45.5,
      "duration": 0.5,
      "velocity": 0.63,
      "hand": "right"
    },
    {
      "midi": 71,
      "time": 45.5,
      "duration": 0.25,
      "velocity": 0.63,
      "hand": "right"
    },
    {
      "midi": 69,
      "time": 45.75,
      "duration": 0.25,
      "velocity": 0.63,
      "hand": "right"
    },
    {
      "midi": 50,
      "time": 46,
      "duration": 0.5,
      "velocity": 0.63,
      "hand": "left"
    },
    {
      "midi": 67,
      "time": 46,
      "duration": 0.25,
      "velocity": 0.63,
      "hand": "right"
    },
    {
      "midi": 66,
      "time": 46.25,
      "duration": 0.25,
      "velocity": 0.63,
      "hand": "right"
    },
    {
      "midi": 55,
      "time": 46.5,
      "duration": 1,
      "velocity": 0.63,
      "hand": "left"
    },
    {
      "midi": 67,
      "time": 46.5,
      "duration": 1.5,
      "velocity": 0.63,
      "hand": "right"
    },
    {
      "midi": 43,
      "time": 47.5,
      "duration": 0.5,
      "velocity": 0.63,
      "hand": "left"
    },
    {
      "midi": 55,
      "time": 48,
      "duration": 1.5,
      "velocity": 0.63,
      "hand": "left"
    },
    {
      "midi": 83,
      "time": 48,
      "duration": 0.5,
      "velocity": 0.63,
      "hand": "right"
    },
    {
      "midi": 79,
      "time": 48.5,
      "duration": 0.25,
      "velocity": 0.63,
      "hand": "right"
    },
    {
      "midi": 81,
      "time": 48.75,
      "duration": 0.25,
      "velocity": 0.63,
      "hand": "right"
    },
    {
      "midi": 83,
      "time": 49,
      "duration": 0.25,
      "velocity": 0.63,
      "hand": "right"
    },
    {
      "midi": 79,
      "time": 49.25,
      "duration": 0.25,
      "velocity": 0.63,
      "hand": "right"
    },
    {
      "midi": 54,
      "time": 49.5,
      "duration": 1.5,
      "velocity": 0.63,
      "hand": "left"
    },
    {
      "midi": 81,
      "time": 49.5,
      "duration": 0.5,
      "velocity": 0.63,
      "hand": "right"
    },
    {
      "midi": 74,
      "time": 50,
      "duration": 0.25,
      "velocity": 0.63,
      "hand": "right"
    },
    {
      "midi": 76,
      "time": 50.25,
      "duration": 0.25,
      "velocity": 0.63,
      "hand": "right"
    },
    {
      "midi": 78,
      "time": 50.5,
      "duration": 0.25,
      "velocity": 0.63,
      "hand": "right"
    },
    {
      "midi": 74,
      "time": 50.75,
      "duration": 0.25,
      "velocity": 0.63,
      "hand": "right"
    },
    {
      "midi": 52,
      "time": 51,
      "duration": 0.5,
      "velocity": 0.63,
      "hand": "left"
    },
    {
      "midi": 79,
      "time": 51,
      "duration": 0.5,
      "velocity": 0.63,
      "hand": "right"
    },
    {
      "midi": 55,
      "time": 51.5,
      "duration": 0.5,
      "velocity": 0.63,
      "hand": "left"
    },
    {
      "midi": 76,
      "time": 51.5,
      "duration": 0.25,
      "velocity": 0.63,
      "hand": "right"
    },
    {
      "midi": 78,
      "time": 51.75,
      "duration": 0.25,
      "velocity": 0.63,
      "hand": "right"
    },
    {
      "midi": 52,
      "time": 52,
      "duration": 0.5,
      "velocity": 0.63,
      "hand": "left"
    },
    {
      "midi": 79,
      "time": 52,
      "duration": 0.25,
      "velocity": 0.63,
      "hand": "right"
    },
    {
      "midi": 74,
      "time": 52.25,
      "duration": 0.25,
      "velocity": 0.63,
      "hand": "right"
    },
    {
      "midi": 57,
      "time": 52.5,
      "duration": 1,
      "velocity": 0.63,
      "hand": "left"
    },
    {
      "midi": 73,
      "time": 52.5,
      "duration": 0.5,
      "velocity": 0.63,
      "hand": "right"
    },
    {
      "midi": 71,
      "time": 53,
      "duration": 0.25,
      "velocity": 0.63,
      "hand": "right"
    },
    {
      "midi": 73,
      "time": 53.25,
      "duration": 0.25,
      "velocity": 0.63,
      "hand": "right"
    },
    {
      "midi": 45,
      "time": 53.5,
      "duration": 0.5,
      "velocity": 0.63,
      "hand": "left"
    },
    {
      "midi": 69,
      "time": 53.5,
      "duration": 0.5,
      "velocity": 0.63,
      "hand": "right"
    },
    {
      "midi": 57,
      "time": 54,
      "duration": 1.5,
      "velocity": 0.63,
      "hand": "left"
    },
    {
      "midi": 69,
      "time": 54,
      "duration": 0.25,
      "velocity": 0.63,
      "hand": "right"
    },
    {
      "midi": 71,
      "time": 54.25,
      "duration": 0.25,
      "velocity": 0.63,
      "hand": "right"
    },
    {
      "midi": 73,
      "time": 54.5,
      "duration": 0.25,
      "velocity": 0.63,
      "hand": "right"
    },
    {
      "midi": 74,
      "time": 54.75,
      "duration": 0.25,
      "velocity": 0.63,
      "hand": "right"
    },
    {
      "midi": 76,
      "time": 55,
      "duration": 0.25,
      "velocity": 0.63,
      "hand": "right"
    },
    {
      "midi": 78,
      "time": 55.25,
      "duration": 0.25,
      "velocity": 0.63,
      "hand": "right"
    },
    {
      "midi": 59,
      "time": 55.5,
      "duration": 0.5,
      "velocity": 0.63,
      "hand": "left"
    },
    {
      "midi": 79,
      "time": 55.5,
      "duration": 0.5,
      "velocity": 0.63,
      "hand": "right"
    },
    {
      "midi": 62,
      "time": 56,
      "duration": 0.5,
      "velocity": 0.63,
      "hand": "right"
    },
    {
      "midi": 78,
      "time": 56,
      "duration": 0.5,
      "velocity": 0.63,
      "hand": "right"
    },
    {
      "midi": 61,
      "time": 56.5,
      "duration": 0.5,
      "velocity": 0.63,
      "hand": "right"
    },
    {
      "midi": 76,
      "time": 56.5,
      "duration": 0.5,
      "velocity": 0.63,
      "hand": "right"
    },
    {
      "midi": 62,
      "time": 57,
      "duration": 0.5,
      "velocity": 0.63,
      "hand": "right"
    },
    {
      "midi": 78,
      "time": 57,
      "duration": 0.5,
      "velocity": 0.63,
      "hand": "right"
    },
    {
      "midi": 54,
      "time": 57.5,
      "duration": 0.5,
      "velocity": 0.63,
      "hand": "left"
    },
    {
      "midi": 69,
      "time": 57.5,
      "duration": 0.5,
      "velocity": 0.63,
      "hand": "right"
    },
    {
      "midi": 57,
      "time": 58,
      "duration": 0.5,
      "velocity": 0.63,
      "hand": "left"
    },
    {
      "midi": 73,
      "time": 58,
      "duration": 0.5,
      "velocity": 0.63,
      "hand": "right"
    },
    {
      "midi": 62,
      "time": 58.5,
      "duration": 0.5,
      "velocity": 0.63,
      "hand": "right"
    },
    {
      "midi": 74,
      "time": 58.5,
      "duration": 1.5,
      "velocity": 0.63,
      "hand": "right"
    },
    {
      "midi": 50,
      "time": 59,
      "duration": 0.5,
      "velocity": 0.63,
      "hand": "left"
    },
    {
      "midi": 60,
      "time": 59.5,
      "duration": 0.5,
      "velocity": 0.63,
      "hand": "right"
    },
    {
      "midi": 59,
      "time": 60,
      "duration": 1,
      "velocity": 0.63,
      "hand": "left"
    },
    {
      "midi": 74,
      "time": 60,
      "duration": 0.5,
      "velocity": 0.63,
      "hand": "right"
    },
    {
      "midi": 62,
      "time": 60.5,
      "duration": 1,
      "velocity": 0.63,
      "hand": "right"
    },
    {
      "midi": 67,
      "time": 60.5,
      "duration": 0.25,
      "velocity": 0.63,
      "hand": "right"
    },
    {
      "midi": 66,
      "time": 60.75,
      "duration": 0.25,
      "velocity": 0.63,
      "hand": "right"
    },
    {
      "midi": 59,
      "time": 61,
      "duration": 0.5,
      "velocity": 0.63,
      "hand": "left"
    },
    {
      "midi": 67,
      "time": 61,
      "duration": 0.5,
      "velocity": 0.63,
      "hand": "right"
    },
    {
      "midi": 60,
      "time": 61.5,
      "duration": 1,
      "velocity": 0.63,
      "hand": "right"
    },
    {
      "midi": 76,
      "time": 61.5,
      "duration": 0.5,
      "velocity": 0.63,
      "hand": "right"
    },
    {
      "midi": 64,
      "time": 62,
      "duration": 1,
      "velocity": 0.63,
      "hand": "right"
    },
    {
      "midi": 67,
      "time": 62,
      "duration": 0.25,
      "velocity": 0.63,
      "hand": "right"
    },
    {
      "midi": 66,
      "time": 62.25,
      "duration": 0.25,
      "velocity": 0.63,
      "hand": "right"
    },
    {
      "midi": 60,
      "time": 62.5,
      "duration": 0.5,
      "velocity": 0.63,
      "hand": "right"
    },
    {
      "midi": 67,
      "time": 62.5,
      "duration": 0.5,
      "velocity": 0.63,
      "hand": "right"
    },
    {
      "midi": 59,
      "time": 63,
      "duration": 0.5,
      "velocity": 0.63,
      "hand": "left"
    },
    {
      "midi": 74,
      "time": 63,
      "duration": 0.5,
      "velocity": 0.63,
      "hand": "right"
    },
    {
      "midi": 57,
      "time": 63.5,
      "duration": 0.5,
      "velocity": 0.63,
      "hand": "left"
    },
    {
      "midi": 72,
      "time": 63.5,
      "duration": 0.5,
      "velocity": 0.63,
      "hand": "right"
    },
    {
      "midi": 55,
      "time": 64,
      "duration": 0.5,
      "velocity": 0.63,
      "hand": "left"
    },
    {
      "midi": 71,
      "time": 64,
      "duration": 0.5,
      "velocity": 0.63,
      "hand": "right"
    },
    {
      "midi": 62,
      "time": 64.5,
      "duration": 1,
      "velocity": 0.63,
      "hand": "right"
    },
    {
      "midi": 69,
      "time": 64.5,
      "duration": 0.25,
      "velocity": 0.63,
      "hand": "right"
    },
    {
      "midi": 67,
      "time": 64.75,
      "duration": 0.25,
      "velocity": 0.63,
      "hand": "right"
    },
    {
      "midi": 66,
      "time": 65,
      "duration": 0.25,
      "velocity": 0.63,
      "hand": "right"
    },
    {
      "midi": 67,
      "time": 65.25,
      "duration": 0.25,
      "velocity": 0.63,
      "hand": "right"
    },
    {
      "midi": 69,
      "time": 65.5,
      "duration": 0.5,
      "velocity": 0.63,
      "hand": "right"
    },
    {
      "midi": 50,
      "time": 66,
      "duration": 1.5,
      "velocity": 0.63,
      "hand": "left"
    },
    {
      "midi": 62,
      "time": 66,
      "duration": 0.25,
      "velocity": 0.63,
      "hand": "right"
    },
    {
      "midi": 64,
      "time": 66.25,
      "duration": 0.25,
      "velocity": 0.63,
      "hand": "right"
    },
    {
      "midi": 66,
      "time": 66.5,
      "duration": 0.25,
      "velocity": 0.63,
      "hand": "right"
    },
    {
      "midi": 67,
      "time": 66.75,
      "duration": 0.25,
      "velocity": 0.63,
      "hand": "right"
    },
    {
      "midi": 54,
      "time": 67,
      "duration": 0.5,
      "velocity": 0.63,
      "hand": "left"
    },
    {
      "midi": 69,
      "time": 67,
      "duration": 0.25,
      "velocity": 0.63,
      "hand": "right"
    },
    {
      "midi": 71,
      "time": 67.25,
      "duration": 0.25,
      "velocity": 0.63,
      "hand": "right"
    },
    {
      "midi": 52,
      "time": 67.5,
      "duration": 0.5,
      "velocity": 0.63,
      "hand": "left"
    },
    {
      "midi": 72,
      "time": 67.5,
      "duration": 0.5,
      "velocity": 0.63,
      "hand": "right"
    },
    {
      "midi": 55,
      "time": 68,
      "duration": 0.5,
      "velocity": 0.63,
      "hand": "left"
    },
    {
      "midi": 72,
      "time": 68,
      "duration": 0.063,
      "velocity": 0.63,
      "hand": "right"
    },
    {
      "midi": 71,
      "time": 68.125,
      "duration": 0.063,
      "velocity": 0.63,
      "hand": "right"
    },
    {
      "midi": 72,
      "time": 68.125,
      "duration": 0.063,
      "velocity": 0.63,
      "hand": "right"
    },
    {
      "midi": 71,
      "time": 68.25,
      "duration": 0.25,
      "velocity": 0.63,
      "hand": "right"
    },
    {
      "midi": 54,
      "time": 68.5,
      "duration": 0.5,
      "velocity": 0.63,
      "hand": "left"
    },
    {
      "midi": 69,
      "time": 68.5,
      "duration": 0.5,
      "velocity": 0.63,
      "hand": "right"
    },
    {
      "midi": 55,
      "time": 69,
      "duration": 0.5,
      "velocity": 0.63,
      "hand": "left"
    },
    {
      "midi": 71,
      "time": 69,
      "duration": 0.25,
      "velocity": 0.63,
      "hand": "right"
    },
    {
      "midi": 74,
      "time": 69.25,
      "duration": 0.25,
      "velocity": 0.63,
      "hand": "right"
    },
    {
      "midi": 47,
      "time": 69.5,
      "duration": 0.5,
      "velocity": 0.63,
      "hand": "left"
    },
    {
      "midi": 67,
      "time": 69.5,
      "duration": 0.5,
      "velocity": 0.63,
      "hand": "right"
    },
    {
      "midi": 50,
      "time": 70,
      "duration": 0.5,
      "velocity": 0.63,
      "hand": "left"
    },
    {
      "midi": 66,
      "time": 70,
      "duration": 0.5,
      "velocity": 0.63,
      "hand": "right"
    },
    {
      "midi": 55,
      "time": 70.5,
      "duration": 0.5,
      "velocity": 0.63,
      "hand": "left"
    },
    {
      "midi": 59,
      "time": 70.5,
      "duration": 1.5,
      "velocity": 0.63,
      "hand": "left"
    },
    {
      "midi": 62,
      "time": 70.5,
      "duration": 1.5,
      "velocity": 0.63,
      "hand": "right"
    },
    {
      "midi": 67,
      "time": 70.5,
      "duration": 1.5,
      "velocity": 0.63,
      "hand": "right"
    },
    {
      "midi": 50,
      "time": 71,
      "duration": 0.5,
      "velocity": 0.63,
      "hand": "left"
    },
    {
      "midi": 43,
      "time": 71.5,
      "duration": 0.5,
      "velocity": 0.63,
      "hand": "left"
    },
    {
      "midi": 55,
      "time": 72,
      "duration": 1.5,
      "velocity": 0.63,
      "hand": "left"
    },
    {
      "midi": 83,
      "time": 72,
      "duration": 0.5,
      "velocity": 0.63,
      "hand": "right"
    },
    {
      "midi": 79,
      "time": 72.5,
      "duration": 0.25,
      "velocity": 0.63,
      "hand": "right"
    },
    {
      "midi": 81,
      "time": 72.75,
      "duration": 0.25,
      "velocity": 0.63,
      "hand": "right"
    },
    {
      "midi": 83,
      "time": 73,
      "duration": 0.25,
      "velocity": 0.63,
      "hand": "right"
    },
    {
      "midi": 79,
      "time": 73.25,
      "duration": 0.25,
      "velocity": 0.63,
      "hand": "right"
    },
    {
      "midi": 54,
      "time": 73.5,
      "duration": 1.5,
      "velocity": 0.63,
      "hand": "left"
    },
    {
      "midi": 81,
      "time": 73.5,
      "duration": 0.5,
      "velocity": 0.63,
      "hand": "right"
    },
    {
      "midi": 74,
      "time": 74,
      "duration": 0.25,
      "velocity": 0.63,
      "hand": "right"
    },
    {
      "midi": 76,
      "time": 74.25,
      "duration": 0.25,
      "velocity": 0.63,
      "hand": "right"
    },
    {
      "midi": 78,
      "time": 74.5,
      "duration": 0.25,
      "velocity": 0.63,
      "hand": "right"
    },
    {
      "midi": 74,
      "time": 74.75,
      "duration": 0.25,
      "velocity": 0.63,
      "hand": "right"
    },
    {
      "midi": 52,
      "time": 75,
      "duration": 0.5,
      "velocity": 0.63,
      "hand": "left"
    },
    {
      "midi": 79,
      "time": 75,
      "duration": 0.5,
      "velocity": 0.63,
      "hand": "right"
    },
    {
      "midi": 55,
      "time": 75.5,
      "duration": 0.5,
      "velocity": 0.63,
      "hand": "left"
    },
    {
      "midi": 76,
      "time": 75.5,
      "duration": 0.25,
      "velocity": 0.63,
      "hand": "right"
    },
    {
      "midi": 78,
      "time": 75.75,
      "duration": 0.25,
      "velocity": 0.63,
      "hand": "right"
    },
    {
      "midi": 52,
      "time": 76,
      "duration": 0.5,
      "velocity": 0.63,
      "hand": "left"
    },
    {
      "midi": 79,
      "time": 76,
      "duration": 0.25,
      "velocity": 0.63,
      "hand": "right"
    },
    {
      "midi": 74,
      "time": 76.25,
      "duration": 0.25,
      "velocity": 0.63,
      "hand": "right"
    },
    {
      "midi": 57,
      "time": 76.5,
      "duration": 1,
      "velocity": 0.63,
      "hand": "left"
    },
    {
      "midi": 73,
      "time": 76.5,
      "duration": 0.5,
      "velocity": 0.63,
      "hand": "right"
    },
    {
      "midi": 71,
      "time": 77,
      "duration": 0.25,
      "velocity": 0.63,
      "hand": "right"
    },
    {
      "midi": 73,
      "time": 77.25,
      "duration": 0.25,
      "velocity": 0.63,
      "hand": "right"
    },
    {
      "midi": 45,
      "time": 77.5,
      "duration": 0.5,
      "velocity": 0.63,
      "hand": "left"
    },
    {
      "midi": 69,
      "time": 77.5,
      "duration": 0.5,
      "velocity": 0.63,
      "hand": "right"
    },
    {
      "midi": 57,
      "time": 78,
      "duration": 1.5,
      "velocity": 0.63,
      "hand": "left"
    },
    {
      "midi": 69,
      "time": 78,
      "duration": 0.25,
      "velocity": 0.63,
      "hand": "right"
    },
    {
      "midi": 71,
      "time": 78.25,
      "duration": 0.25,
      "velocity": 0.63,
      "hand": "right"
    },
    {
      "midi": 73,
      "time": 78.5,
      "duration": 0.25,
      "velocity": 0.63,
      "hand": "right"
    },
    {
      "midi": 74,
      "time": 78.75,
      "duration": 0.25,
      "velocity": 0.63,
      "hand": "right"
    },
    {
      "midi": 76,
      "time": 79,
      "duration": 0.25,
      "velocity": 0.63,
      "hand": "right"
    },
    {
      "midi": 78,
      "time": 79.25,
      "duration": 0.25,
      "velocity": 0.63,
      "hand": "right"
    },
    {
      "midi": 59,
      "time": 79.5,
      "duration": 0.5,
      "velocity": 0.63,
      "hand": "left"
    },
    {
      "midi": 79,
      "time": 79.5,
      "duration": 0.5,
      "velocity": 0.63,
      "hand": "right"
    },
    {
      "midi": 62,
      "time": 80,
      "duration": 0.5,
      "velocity": 0.63,
      "hand": "right"
    },
    {
      "midi": 78,
      "time": 80,
      "duration": 0.5,
      "velocity": 0.63,
      "hand": "right"
    },
    {
      "midi": 61,
      "time": 80.5,
      "duration": 0.5,
      "velocity": 0.63,
      "hand": "right"
    },
    {
      "midi": 76,
      "time": 80.5,
      "duration": 0.5,
      "velocity": 0.63,
      "hand": "right"
    },
    {
      "midi": 62,
      "time": 81,
      "duration": 0.5,
      "velocity": 0.63,
      "hand": "right"
    },
    {
      "midi": 78,
      "time": 81,
      "duration": 0.5,
      "velocity": 0.63,
      "hand": "right"
    },
    {
      "midi": 54,
      "time": 81.5,
      "duration": 0.5,
      "velocity": 0.63,
      "hand": "left"
    },
    {
      "midi": 69,
      "time": 81.5,
      "duration": 0.5,
      "velocity": 0.63,
      "hand": "right"
    },
    {
      "midi": 57,
      "time": 82,
      "duration": 0.5,
      "velocity": 0.63,
      "hand": "left"
    },
    {
      "midi": 73,
      "time": 82,
      "duration": 0.5,
      "velocity": 0.63,
      "hand": "right"
    },
    {
      "midi": 62,
      "time": 82.5,
      "duration": 0.5,
      "velocity": 0.63,
      "hand": "right"
    },
    {
      "midi": 74,
      "time": 82.5,
      "duration": 1.5,
      "velocity": 0.63,
      "hand": "right"
    },
    {
      "midi": 50,
      "time": 83,
      "duration": 0.5,
      "velocity": 0.63,
      "hand": "left"
    },
    {
      "midi": 60,
      "time": 83.5,
      "duration": 0.5,
      "velocity": 0.63,
      "hand": "right"
    },
    {
      "midi": 59,
      "time": 84,
      "duration": 1,
      "velocity": 0.63,
      "hand": "left"
    },
    {
      "midi": 74,
      "time": 84,
      "duration": 0.5,
      "velocity": 0.63,
      "hand": "right"
    },
    {
      "midi": 62,
      "time": 84.5,
      "duration": 1,
      "velocity": 0.63,
      "hand": "right"
    },
    {
      "midi": 67,
      "time": 84.5,
      "duration": 0.25,
      "velocity": 0.63,
      "hand": "right"
    },
    {
      "midi": 66,
      "time": 84.75,
      "duration": 0.25,
      "velocity": 0.63,
      "hand": "right"
    },
    {
      "midi": 59,
      "time": 85,
      "duration": 0.5,
      "velocity": 0.63,
      "hand": "left"
    },
    {
      "midi": 67,
      "time": 85,
      "duration": 0.5,
      "velocity": 0.63,
      "hand": "right"
    },
    {
      "midi": 60,
      "time": 85.5,
      "duration": 1,
      "velocity": 0.63,
      "hand": "right"
    },
    {
      "midi": 76,
      "time": 85.5,
      "duration": 0.5,
      "velocity": 0.63,
      "hand": "right"
    },
    {
      "midi": 64,
      "time": 86,
      "duration": 1,
      "velocity": 0.63,
      "hand": "right"
    },
    {
      "midi": 67,
      "time": 86,
      "duration": 0.25,
      "velocity": 0.63,
      "hand": "right"
    },
    {
      "midi": 66,
      "time": 86.25,
      "duration": 0.25,
      "velocity": 0.63,
      "hand": "right"
    },
    {
      "midi": 60,
      "time": 86.5,
      "duration": 0.5,
      "velocity": 0.63,
      "hand": "right"
    },
    {
      "midi": 67,
      "time": 86.5,
      "duration": 0.5,
      "velocity": 0.63,
      "hand": "right"
    },
    {
      "midi": 59,
      "time": 87,
      "duration": 0.5,
      "velocity": 0.63,
      "hand": "left"
    },
    {
      "midi": 74,
      "time": 87,
      "duration": 0.5,
      "velocity": 0.63,
      "hand": "right"
    },
    {
      "midi": 57,
      "time": 87.5,
      "duration": 0.5,
      "velocity": 0.63,
      "hand": "left"
    },
    {
      "midi": 72,
      "time": 87.5,
      "duration": 0.5,
      "velocity": 0.63,
      "hand": "right"
    },
    {
      "midi": 55,
      "time": 88,
      "duration": 0.5,
      "velocity": 0.63,
      "hand": "left"
    },
    {
      "midi": 71,
      "time": 88,
      "duration": 0.5,
      "velocity": 0.63,
      "hand": "right"
    },
    {
      "midi": 62,
      "time": 88.5,
      "duration": 1,
      "velocity": 0.63,
      "hand": "right"
    },
    {
      "midi": 69,
      "time": 88.5,
      "duration": 0.25,
      "velocity": 0.63,
      "hand": "right"
    },
    {
      "midi": 67,
      "time": 88.75,
      "duration": 0.25,
      "velocity": 0.63,
      "hand": "right"
    },
    {
      "midi": 66,
      "time": 89,
      "duration": 0.25,
      "velocity": 0.63,
      "hand": "right"
    },
    {
      "midi": 67,
      "time": 89.25,
      "duration": 0.25,
      "velocity": 0.63,
      "hand": "right"
    },
    {
      "midi": 69,
      "time": 89.5,
      "duration": 0.5,
      "velocity": 0.63,
      "hand": "right"
    },
    {
      "midi": 50,
      "time": 90,
      "duration": 1.5,
      "velocity": 0.63,
      "hand": "left"
    },
    {
      "midi": 62,
      "time": 90,
      "duration": 0.25,
      "velocity": 0.63,
      "hand": "right"
    },
    {
      "midi": 64,
      "time": 90.25,
      "duration": 0.25,
      "velocity": 0.63,
      "hand": "right"
    },
    {
      "midi": 66,
      "time": 90.5,
      "duration": 0.25,
      "velocity": 0.63,
      "hand": "right"
    },
    {
      "midi": 67,
      "time": 90.75,
      "duration": 0.25,
      "velocity": 0.63,
      "hand": "right"
    },
    {
      "midi": 54,
      "time": 91,
      "duration": 0.5,
      "velocity": 0.63,
      "hand": "left"
    },
    {
      "midi": 69,
      "time": 91,
      "duration": 0.25,
      "velocity": 0.63,
      "hand": "right"
    },
    {
      "midi": 71,
      "time": 91.25,
      "duration": 0.25,
      "velocity": 0.63,
      "hand": "right"
    },
    {
      "midi": 52,
      "time": 91.5,
      "duration": 0.5,
      "velocity": 0.63,
      "hand": "left"
    },
    {
      "midi": 72,
      "time": 91.5,
      "duration": 0.5,
      "velocity": 0.63,
      "hand": "right"
    },
    {
      "midi": 55,
      "time": 92,
      "duration": 0.5,
      "velocity": 0.63,
      "hand": "left"
    },
    {
      "midi": 72,
      "time": 92,
      "duration": 0.063,
      "velocity": 0.63,
      "hand": "right"
    },
    {
      "midi": 71,
      "time": 92.125,
      "duration": 0.063,
      "velocity": 0.63,
      "hand": "right"
    },
    {
      "midi": 72,
      "time": 92.125,
      "duration": 0.063,
      "velocity": 0.63,
      "hand": "right"
    },
    {
      "midi": 71,
      "time": 92.25,
      "duration": 0.25,
      "velocity": 0.63,
      "hand": "right"
    },
    {
      "midi": 54,
      "time": 92.5,
      "duration": 0.5,
      "velocity": 0.63,
      "hand": "left"
    },
    {
      "midi": 69,
      "time": 92.5,
      "duration": 0.5,
      "velocity": 0.63,
      "hand": "right"
    },
    {
      "midi": 55,
      "time": 93,
      "duration": 0.5,
      "velocity": 0.63,
      "hand": "left"
    },
    {
      "midi": 71,
      "time": 93,
      "duration": 0.25,
      "velocity": 0.63,
      "hand": "right"
    },
    {
      "midi": 74,
      "time": 93.25,
      "duration": 0.25,
      "velocity": 0.63,
      "hand": "right"
    },
    {
      "midi": 47,
      "time": 93.5,
      "duration": 0.5,
      "velocity": 0.63,
      "hand": "left"
    },
    {
      "midi": 67,
      "time": 93.5,
      "duration": 0.5,
      "velocity": 0.63,
      "hand": "right"
    },
    {
      "midi": 50,
      "time": 94,
      "duration": 0.5,
      "velocity": 0.63,
      "hand": "left"
    },
    {
      "midi": 66,
      "time": 94,
      "duration": 0.5,
      "velocity": 0.63,
      "hand": "right"
    },
    {
      "midi": 55,
      "time": 94.5,
      "duration": 0.5,
      "velocity": 0.63,
      "hand": "left"
    },
    {
      "midi": 59,
      "time": 94.5,
      "duration": 1.5,
      "velocity": 0.63,
      "hand": "left"
    },
    {
      "midi": 62,
      "time": 94.5,
      "duration": 1.5,
      "velocity": 0.63,
      "hand": "right"
    },
    {
      "midi": 67,
      "time": 94.5,
      "duration": 1.5,
      "velocity": 0.63,
      "hand": "right"
    },
    {
      "midi": 50,
      "time": 95,
      "duration": 0.5,
      "velocity": 0.63,
      "hand": "left"
    },
    {
      "midi": 43,
      "time": 95.5,
      "duration": 0.5,
      "velocity": 0.63,
      "hand": "left"
    }
  ]
}
