{
  "id": "morning-prayertchaikovsky",
  "title": "control track",
  "artist": "MIDI Source",
  "difficulty": "Médio",
  "bpm": 62,
  "duration": 70,
  "category": "A revisar",
  "isPremium": true,
  "coverUrl": "/images/covers/placeholder.png",
  "notes": [
    {
      "midi": 55,
      "time": 0,
      "duration": 0.968,
      "velocity": 0.71,
      "hand": "left"
    },
    {
      "midi": 62,
      "time": 0,
      "duration": 0.968,
      "velocity": 0.71,
      "hand": "right"
    },
    {
      "midi": 67,
      "time": 0,
      "duration": 0.968,
      "velocity": 0.54,
      "hand": "right"
    },
    {
      "midi": 71,
      "time": 0,
      "duration": 0.968,
      "velocity": 0.54,
      "hand": "right"
    },
    {
      "midi": 55,
      "time": 0.968,
      "duration": 1.452,
      "velocity": 0.71,
      "hand": "left"
    },
    {
      "midi": 62,
      "time": 0.968,
      "duration": 1.452,
      "velocity": 0.71,
      "hand": "right"
    },
    {
      "midi": 67,
      "time": 0.968,
      "duration": 1.452,
      "velocity": 0.54,
      "hand": "right"
    },
    {
      "midi": 71,
      "time": 0.968,
      "duration": 1.452,
      "velocity": 0.54,
      "hand": "right"
    },
    {
      "midi": 50,
      "time": 2.419,
      "duration": 0.484,
      "velocity": 0.71,
      "hand": "left"
    },
    {
      "midi": 62,
      "time": 2.419,
      "duration": 0.484,
      "velocity": 0.71,
      "hand": "right"
    },
    {
      "midi": 66,
      "time": 2.419,
      "duration": 0.484,
      "velocity": 0.54,
      "hand": "right"
    },
    {
      "midi": 69,
      "time": 2.419,
      "duration": 0.484,
      "velocity": 0.54,
      "hand": "right"
    },
    {
      "midi": 52,
      "time": 2.903,
      "duration": 0.968,
      "velocity": 0.71,
      "hand": "left"
    },
    {
      "midi": 60,
      "time": 2.903,
      "duration": 0.968,
      "velocity": 0.71,
      "hand": "right"
    },
    {
      "midi": 67,
      "time": 2.903,
      "duration": 0.968,
      "velocity": 0.54,
      "hand": "right"
    },
    {
      "midi": 72,
      "time": 2.903,
      "duration": 0.968,
      "velocity": 0.54,
      "hand": "right"
    },
    {
      "midi": 55,
      "time": 3.871,
      "duration": 1.935,
      "velocity": 0.71,
      "hand": "left"
    },
    {
      "midi": 62,
      "time": 3.871,
      "duration": 1.935,
      "velocity": 0.71,
      "hand": "right"
    },
    {
      "midi": 67,
      "time": 3.871,
      "duration": 1.935,
      "velocity": 0.54,
      "hand": "right"
    },
    {
      "midi": 71,
      "time": 3.871,
      "duration": 1.935,
      "velocity": 0.54,
      "hand": "right"
    },
    {
      "midi": 50,
      "time": 5.806,
      "duration": 0.968,
      "velocity": 0.71,
      "hand": "left"
    },
    {
      "midi": 62,
      "time": 5.806,
      "duration": 0.968,
      "velocity": 0.71,
      "hand": "right"
    },
    {
      "midi": 66,
      "time": 5.806,
      "duration": 0.968,
      "velocity": 0.54,
      "hand": "right"
    },
    {
      "midi": 69,
      "time": 5.806,
      "duration": 0.968,
      "velocity": 0.54,
      "hand": "right"
    },
    {
      "midi": 52,
      "time": 6.774,
      "duration": 0.968,
      "velocity": 0.71,
      "hand": "left"
    },
    {
      "midi": 59,
      "time": 6.774,
      "duration": 0.968,
      "velocity": 0.71,
      "hand": "left"
    },
    {
      "midi": 64,
      "time": 6.774,
      "duration": 0.968,
      "velocity": 0.62,
      "hand": "right"
    },
    {
      "midi": 67,
      "time": 6.774,
      "duration": 0.968,
      "velocity": 0.62,
      "hand": "right"
    },
    {
      "midi": 48,
      "time": 7.742,
      "duration": 0.968,
      "velocity": 0.71,
      "hand": "left"
    },
    {
      "midi": 52,
      "time": 7.742,
      "duration": 0.968,
      "velocity": 0.71,
      "hand": "left"
    },
    {
      "midi": 64,
      "time": 7.742,
      "duration": 0.968,
      "velocity": 0.69,
      "hand": "right"
    },
    {
      "midi": 69,
      "time": 7.742,
      "duration": 0.968,
      "velocity": 0.69,
      "hand": "right"
    },
    {
      "midi": 47,
      "time": 8.71,
      "duration": 2.903,
      "velocity": 0.71,
      "hand": "left"
    },
    {
      "midi": 54,
      "time": 8.71,
      "duration": 2.903,
      "velocity": 0.71,
      "hand": "left"
    },
    {
      "midi": 63,
      "time": 8.71,
      "duration": 2.903,
      "velocity": 0.77,
      "hand": "right"
    },
    {
      "midi": 71,
      "time": 8.71,
      "duration": 2.903,
      "velocity": 0.77,
      "hand": "right"
    },
    {
      "midi": 44,
      "time": 11.613,
      "duration": 0.968,
      "velocity": 0.71,
      "hand": "left"
    },
    {
      "midi": 52,
      "time": 11.613,
      "duration": 0.968,
      "velocity": 0.71,
      "hand": "left"
    },
    {
      "midi": 62,
      "time": 11.613,
      "duration": 0.968,
      "velocity": 0.71,
      "hand": "right"
    },
    {
      "midi": 71,
      "time": 11.613,
      "duration": 0.968,
      "velocity": 0.61,
      "hand": "right"
    },
    {
      "midi": 45,
      "time": 12.581,
      "duration": 0.968,
      "velocity": 0.71,
      "hand": "left"
    },
    {
      "midi": 52,
      "time": 12.581,
      "duration": 1.935,
      "velocity": 0.71,
      "hand": "left"
    },
    {
      "midi": 61,
      "time": 12.581,
      "duration": 1.935,
      "velocity": 0.71,
      "hand": "right"
    },
    {
      "midi": 64,
      "time": 12.581,
      "duration": 1.452,
      "velocity": 0.52,
      "hand": "right"
    },
    {
      "midi": 43,
      "time": 13.548,
      "duration": 0.968,
      "velocity": 0.71,
      "hand": "left"
    },
    {
      "midi": 69,
      "time": 14.032,
      "duration": 0.484,
      "velocity": 0.38,
      "hand": "right"
    },
    {
      "midi": 42,
      "time": 14.516,
      "duration": 0.968,
      "velocity": 0.71,
      "hand": "left"
    },
    {
      "midi": 50,
      "time": 14.516,
      "duration": 0.968,
      "velocity": 0.71,
      "hand": "left"
    },
    {
      "midi": 60,
      "time": 14.516,
      "duration": 0.968,
      "velocity": 0.71,
      "hand": "right"
    },
    {
      "midi": 69,
      "time": 14.516,
      "duration": 0.968,
      "velocity": 0.38,
      "hand": "right"
    },
    {
      "midi": 43,
      "time": 15.484,
      "duration": 0.968,
      "velocity": 0.71,
      "hand": "left"
    },
    {
      "midi": 50,
      "time": 15.484,
      "duration": 1.935,
      "velocity": 0.71,
      "hand": "left"
    },
    {
      "midi": 59,
      "time": 15.484,
      "duration": 0.968,
      "velocity": 0.71,
      "hand": "left"
    },
    {
      "midi": 62,
      "time": 15.484,
      "duration": 1.452,
      "velocity": 0.42,
      "hand": "right"
    },
    {
      "midi": 45,
      "time": 16.452,
      "duration": 0.968,
      "velocity": 0.71,
      "hand": "left"
    },
    {
      "midi": 60,
      "time": 16.452,
      "duration": 0.968,
      "velocity": 0.71,
      "hand": "right"
    },
    {
      "midi": 66,
      "time": 16.935,
      "duration": 0.484,
      "velocity": 0.48,
      "hand": "right"
    },
    {
      "midi": 47,
      "time": 17.419,
      "duration": 0.968,
      "velocity": 0.71,
      "hand": "left"
    },
    {
      "midi": 55,
      "time": 17.419,
      "duration": 0.968,
      "velocity": 0.71,
      "hand": "left"
    },
    {
      "midi": 62,
      "time": 17.419,
      "duration": 0.968,
      "velocity": 0.71,
      "hand": "right"
    },
    {
      "midi": 67,
      "time": 17.419,
      "duration": 0.968,
      "velocity": 0.5,
      "hand": "right"
    },
    {
      "midi": 48,
      "time": 18.387,
      "duration": 0.968,
      "velocity": 0.71,
      "hand": "left"
    },
    {
      "midi": 55,
      "time": 18.387,
      "duration": 0.968,
      "velocity": 0.71,
      "hand": "left"
    },
    {
      "midi": 64,
      "time": 18.387,
      "duration": 0.968,
      "velocity": 0.71,
      "hand": "right"
    },
    {
      "midi": 67,
      "time": 18.387,
      "duration": 0.968,
      "velocity": 0.54,
      "hand": "right"
    },
    {
      "midi": 49,
      "time": 19.355,
      "duration": 0.968,
      "velocity": 0.71,
      "hand": "left"
    },
    {
      "midi": 57,
      "time": 19.355,
      "duration": 0.968,
      "velocity": 0.71,
      "hand": "left"
    },
    {
      "midi": 67,
      "time": 19.355,
      "duration": 0.968,
      "velocity": 0.71,
      "hand": "right"
    },
    {
      "midi": 76,
      "time": 19.355,
      "duration": 0.726,
      "velocity": 0.57,
      "hand": "right"
    },
    {
      "midi": 69,
      "time": 20.081,
      "duration": 0.242,
      "velocity": 0.61,
      "hand": "right"
    },
    {
      "midi": 50,
      "time": 20.323,
      "duration": 2.903,
      "velocity": 0.71,
      "hand": "left"
    },
    {
      "midi": 57,
      "time": 20.323,
      "duration": 1.935,
      "velocity": 0.71,
      "hand": "left"
    },
    {
      "midi": 67,
      "time": 20.323,
      "duration": 0.968,
      "velocity": 0.71,
      "hand": "right"
    },
    {
      "midi": 69,
      "time": 20.323,
      "duration": 2.903,
      "velocity": 0.68,
      "hand": "right"
    },
    {
      "midi": 66,
      "time": 21.29,
      "duration": 0.484,
      "velocity": 0.71,
      "hand": "right"
    },
    {
      "midi": 64,
      "time": 21.774,
      "duration": 0.484,
      "velocity": 0.59,
      "hand": "right"
    },
    {
      "midi": 62,
      "time": 22.258,
      "duration": 0.968,
      "velocity": 0.71,
      "hand": "right"
    },
    {
      "midi": 66,
      "time": 22.258,
      "duration": 0.968,
      "velocity": 0.48,
      "hand": "right"
    },
    {
      "midi": 55,
      "time": 23.226,
      "duration": 0.968,
      "velocity": 0.71,
      "hand": "left"
    },
    {
      "midi": 62,
      "time": 23.226,
      "duration": 0.968,
      "velocity": 0.71,
      "hand": "right"
    },
    {
      "midi": 67,
      "time": 23.226,
      "duration": 0.968,
      "velocity": 0.54,
      "hand": "right"
    },
    {
      "midi": 71,
      "time": 23.226,
      "duration": 0.968,
      "velocity": 0.54,
      "hand": "right"
    },
    {
      "midi": 55,
      "time": 24.194,
      "duration": 1.452,
      "velocity": 0.71,
      "hand": "left"
    },
    {
      "midi": 62,
      "time": 24.194,
      "duration": 1.452,
      "velocity": 0.71,
      "hand": "right"
    },
    {
      "midi": 67,
      "time": 24.194,
      "duration": 1.452,
      "velocity": 0.54,
      "hand": "right"
    },
    {
      "midi": 71,
      "time": 24.194,
      "duration": 1.452,
      "velocity": 0.54,
      "hand": "right"
    },
    {
      "midi": 50,
      "time": 25.645,
      "duration": 0.484,
      "velocity": 0.71,
      "hand": "left"
    },
    {
      "midi": 62,
      "time": 25.645,
      "duration": 0.484,
      "velocity": 0.71,
      "hand": "right"
    },
    {
      "midi": 66,
      "time": 25.645,
      "duration": 0.484,
      "velocity": 0.54,
      "hand": "right"
    },
    {
      "midi": 69,
      "time": 25.645,
      "duration": 0.484,
      "velocity": 0.54,
      "hand": "right"
    },
    {
      "midi": 52,
      "time": 26.129,
      "duration": 0.968,
      "velocity": 0.71,
      "hand": "left"
    },
    {
      "midi": 60,
      "time": 26.129,
      "duration": 0.968,
      "velocity": 0.71,
      "hand": "right"
    },
    {
      "midi": 67,
      "time": 26.129,
      "duration": 0.968,
      "velocity": 0.54,
      "hand": "right"
    },
    {
      "midi": 72,
      "time": 26.129,
      "duration": 0.968,
      "velocity": 0.54,
      "hand": "right"
    },
    {
      "midi": 55,
      "time": 27.097,
      "duration": 0.968,
      "velocity": 0.71,
      "hand": "left"
    },
    {
      "midi": 62,
      "time": 27.097,
      "duration": 0.968,
      "velocity": 0.71,
      "hand": "right"
    },
    {
      "midi": 67,
      "time": 27.097,
      "duration": 1.452,
      "velocity": 0.59,
      "hand": "right"
    },
    {
      "midi": 71,
      "time": 27.097,
      "duration": 1.452,
      "velocity": 0.59,
      "hand": "right"
    },
    {
      "midi": 65,
      "time": 28.065,
      "duration": 0.968,
      "velocity": 0.71,
      "hand": "right"
    },
    {
      "midi": 67,
      "time": 28.548,
      "duration": 0.484,
      "velocity": 0.66,
      "hand": "right"
    },
    {
      "midi": 71,
      "time": 28.548,
      "duration": 0.484,
      "velocity": 0.66,
      "hand": "right"
    },
    {
      "midi": 64,
      "time": 29.032,
      "duration": 0.968,
      "velocity": 0.71,
      "hand": "right"
    },
    {
      "midi": 67,
      "time": 29.032,
      "duration": 0.968,
      "velocity": 0.68,
      "hand": "right"
    },
    {
      "midi": 72,
      "time": 29.032,
      "duration": 0.968,
      "velocity": 0.68,
      "hand": "right"
    },
    {
      "midi": 62,
      "time": 30,
      "duration": 0.968,
      "velocity": 0.71,
      "hand": "right"
    },
    {
      "midi": 67,
      "time": 30,
      "duration": 0.968,
      "velocity": 0.72,
      "hand": "right"
    },
    {
      "midi": 71,
      "time": 30,
      "duration": 0.968,
      "velocity": 0.72,
      "hand": "right"
    },
    {
      "midi": 74,
      "time": 30,
      "duration": 0.968,
      "velocity": 0.72,
      "hand": "right"
    },
    {
      "midi": 60,
      "time": 30.968,
      "duration": 0.484,
      "velocity": 0.71,
      "hand": "right"
    },
    {
      "midi": 67,
      "time": 30.968,
      "duration": 0.968,
      "velocity": 0.77,
      "hand": "right"
    },
    {
      "midi": 72,
      "time": 30.968,
      "duration": 0.968,
      "velocity": 0.77,
      "hand": "right"
    },
    {
      "midi": 76,
      "time": 30.968,
      "duration": 0.968,
      "velocity": 0.77,
      "hand": "right"
    },
    {
      "midi": 59,
      "time": 31.452,
      "duration": 0.484,
      "velocity": 0.71,
      "hand": "left"
    },
    {
      "midi": 58,
      "time": 31.935,
      "duration": 2.903,
      "velocity": 0.71,
      "hand": "left"
    },
    {
      "midi": 66,
      "time": 31.935,
      "duration": 2.903,
      "velocity": 0.71,
      "hand": "right"
    },
    {
      "midi": 73,
      "time": 31.935,
      "duration": 2.903,
      "velocity": 0.71,
      "hand": "right"
    },
    {
      "midi": 78,
      "time": 31.935,
      "duration": 1.935,
      "velocity": 0.75,
      "hand": "right"
    },
    {
      "midi": 78,
      "time": 33.871,
      "duration": 0.968,
      "velocity": 0.75,
      "hand": "right"
    },
    {
      "midi": 57,
      "time": 34.839,
      "duration": 0.968,
      "velocity": 0.71,
      "hand": "left"
    },
    {
      "midi": 66,
      "time": 34.839,
      "duration": 0.968,
      "velocity": 0.71,
      "hand": "right"
    },
    {
      "midi": 71,
      "time": 34.839,
      "duration": 0.968,
      "velocity": 0.71,
      "hand": "right"
    },
    {
      "midi": 75,
      "time": 34.839,
      "duration": 0.968,
      "velocity": 0.75,
      "hand": "right"
    },
    {
      "midi": 56,
      "time": 35.806,
      "duration": 0.968,
      "velocity": 0.71,
      "hand": "left"
    },
    {
      "midi": 64,
      "time": 35.806,
      "duration": 1.935,
      "velocity": 0.71,
      "hand": "right"
    },
    {
      "midi": 71,
      "time": 35.806,
      "duration": 0.968,
      "velocity": 0.71,
      "hand": "right"
    },
    {
      "midi": 76,
      "time": 35.806,
      "duration": 1.452,
      "velocity": 0.75,
      "hand": "right"
    },
    {
      "midi": 55,
      "time": 36.774,
      "duration": 0.968,
      "velocity": 0.71,
      "hand": "left"
    },
    {
      "midi": 69,
      "time": 36.774,
      "duration": 0.968,
      "velocity": 0.71,
      "hand": "right"
    },
    {
      "midi": 73,
      "time": 37.258,
      "duration": 0.484,
      "velocity": 0.7,
      "hand": "right"
    },
    {
      "midi": 54,
      "time": 37.742,
      "duration": 0.968,
      "velocity": 0.71,
      "hand": "left"
    },
    {
      "midi": 62,
      "time": 37.742,
      "duration": 0.968,
      "velocity": 0.71,
      "hand": "right"
    },
    {
      "midi": 69,
      "time": 37.742,
      "duration": 0.968,
      "velocity": 0.71,
      "hand": "right"
    },
    {
      "midi": 74,
      "time": 37.742,
      "duration": 0.968,
      "velocity": 0.69,
      "hand": "right"
    },
    {
      "midi": 55,
      "time": 38.71,
      "duration": 0.968,
      "velocity": 0.71,
      "hand": "left"
    },
    {
      "midi": 62,
      "time": 38.71,
      "duration": 0.968,
      "velocity": 0.71,
      "hand": "right"
    },
    {
      "midi": 67,
      "time": 38.71,
      "duration": 0.968,
      "velocity": 0.71,
      "hand": "right"
    },
    {
      "midi": 71,
      "time": 38.71,
      "duration": 0.968,
      "velocity": 0.66,
      "hand": "right"
    },
    {
      "midi": 52,
      "time": 39.677,
      "duration": 0.968,
      "velocity": 0.71,
      "hand": "left"
    },
    {
      "midi": 60,
      "time": 39.677,
      "duration": 0.968,
      "velocity": 0.71,
      "hand": "right"
    },
    {
      "midi": 67,
      "time": 39.677,
      "duration": 0.968,
      "velocity": 0.71,
      "hand": "right"
    },
    {
      "midi": 72,
      "time": 39.677,
      "duration": 0.968,
      "velocity": 0.63,
      "hand": "right"
    },
    {
      "midi": 48,
      "time": 40.645,
      "duration": 1.935,
      "velocity": 0.71,
      "hand": "left"
    },
    {
      "midi": 55,
      "time": 40.645,
      "duration": 1.935,
      "velocity": 0.71,
      "hand": "left"
    },
    {
      "midi": 64,
      "time": 40.645,
      "duration": 1.935,
      "velocity": 0.71,
      "hand": "right"
    },
    {
      "midi": 71,
      "time": 40.645,
      "duration": 0.726,
      "velocity": 0.61,
      "hand": "right"
    },
    {
      "midi": 69,
      "time": 41.371,
      "duration": 0.242,
      "velocity": 0.58,
      "hand": "right"
    },
    {
      "midi": 69,
      "time": 41.613,
      "duration": 0.968,
      "velocity": 0.57,
      "hand": "right"
    },
    {
      "midi": 50,
      "time": 42.581,
      "duration": 1.935,
      "velocity": 0.71,
      "hand": "left"
    },
    {
      "midi": 62,
      "time": 42.581,
      "duration": 0.484,
      "velocity": 0.71,
      "hand": "right"
    },
    {
      "midi": 66,
      "time": 42.581,
      "duration": 0.968,
      "velocity": 0.55,
      "hand": "right"
    },
    {
      "midi": 60,
      "time": 43.065,
      "duration": 0.484,
      "velocity": 0.71,
      "hand": "right"
    },
    {
      "midi": 43,
      "time": 43.548,
      "duration": 0.484,
      "velocity": 0.71,
      "hand": "left"
    },
    {
      "midi": 59,
      "time": 43.548,
      "duration": 0.968,
      "velocity": 0.71,
      "hand": "left"
    },
    {
      "midi": 67,
      "time": 43.548,
      "duration": 0.968,
      "velocity": 0.52,
      "hand": "right"
    },
    {
      "midi": 43,
      "time": 44.032,
      "duration": 0.484,
      "velocity": 0.71,
      "hand": "left"
    },
    {
      "midi": 43,
      "time": 44.516,
      "duration": 0.484,
      "velocity": 0.71,
      "hand": "left"
    },
    {
      "midi": 43,
      "time": 45,
      "duration": 0.484,
      "velocity": 0.71,
      "hand": "left"
    },
    {
      "midi": 43,
      "time": 45.484,
      "duration": 0.484,
      "velocity": 0.71,
      "hand": "left"
    },
    {
      "midi": 50,
      "time": 45.484,
      "duration": 0.968,
      "velocity": 0.71,
      "hand": "left"
    },
    {
      "midi": 71,
      "time": 45.484,
      "duration": 0.968,
      "velocity": 0.75,
      "hand": "right"
    },
    {
      "midi": 79,
      "time": 45.484,
      "duration": 0.968,
      "velocity": 0.52,
      "hand": "right"
    },
    {
      "midi": 43,
      "time": 45.968,
      "duration": 0.484,
      "velocity": 0.71,
      "hand": "left"
    },
    {
      "midi": 43,
      "time": 46.452,
      "duration": 0.484,
      "velocity": 0.71,
      "hand": "left"
    },
    {
      "midi": 51,
      "time": 46.452,
      "duration": 2.903,
      "velocity": 0.71,
      "hand": "left"
    },
    {
      "midi": 72,
      "time": 46.452,
      "duration": 0.726,
      "velocity": 0.75,
      "hand": "right"
    },
    {
      "midi": 78,
      "time": 46.452,
      "duration": 0.726,
      "velocity": 0.52,
      "hand": "right"
    },
    {
      "midi": 43,
      "time": 46.935,
      "duration": 0.484,
      "velocity": 0.71,
      "hand": "left"
    },
    {
      "midi": 72,
      "time": 47.177,
      "duration": 0.242,
      "velocity": 0.52,
      "hand": "right"
    },
    {
      "midi": 43,
      "time": 47.419,
      "duration": 0.484,
      "velocity": 0.71,
      "hand": "left"
    },
    {
      "midi": 72,
      "time": 47.419,
      "duration": 0.968,
      "velocity": 0.52,
      "hand": "right"
    },
    {
      "midi": 43,
      "time": 47.903,
      "duration": 0.484,
      "velocity": 0.71,
      "hand": "left"
    },
    {
      "midi": 43,
      "time": 48.387,
      "duration": 0.484,
      "velocity": 0.71,
      "hand": "left"
    },
    {
      "midi": 66,
      "time": 48.387,
      "duration": 0.968,
      "velocity": 0.75,
      "hand": "right"
    },
    {
      "midi": 71,
      "time": 48.387,
      "duration": 0.484,
      "velocity": 0.52,
      "hand": "right"
    },
    {
      "midi": 43,
      "time": 48.871,
      "duration": 0.484,
      "velocity": 0.71,
      "hand": "left"
    },
    {
      "midi": 69,
      "time": 48.871,
      "duration": 0.484,
      "velocity": 0.52,
      "hand": "right"
    },
    {
      "midi": 43,
      "time": 49.355,
      "duration": 0.484,
      "velocity": 0.71,
      "hand": "left"
    },
    {
      "midi": 50,
      "time": 49.355,
      "duration": 0.968,
      "velocity": 0.48,
      "hand": "left"
    },
    {
      "midi": 67,
      "time": 49.355,
      "duration": 0.968,
      "velocity": 0.75,
      "hand": "right"
    },
    {
      "midi": 71,
      "time": 49.355,
      "duration": 0.968,
      "velocity": 0.52,
      "hand": "right"
    },
    {
      "midi": 43,
      "time": 49.839,
      "duration": 0.484,
      "velocity": 0.71,
      "hand": "left"
    },
    {
      "midi": 43,
      "time": 50.323,
      "duration": 0.484,
      "velocity": 0.71,
      "hand": "left"
    },
    {
      "midi": 43,
      "time": 50.806,
      "duration": 0.484,
      "velocity": 0.71,
      "hand": "left"
    },
    {
      "midi": 43,
      "time": 51.29,
      "duration": 0.484,
      "velocity": 0.71,
      "hand": "left"
    },
    {
      "midi": 50,
      "time": 51.29,
      "duration": 0.968,
      "velocity": 0.48,
      "hand": "left"
    },
    {
      "midi": 59,
      "time": 51.29,
      "duration": 0.968,
      "velocity": 0.68,
      "hand": "left"
    },
    {
      "midi": 67,
      "time": 51.29,
      "duration": 0.968,
      "velocity": 0.52,
      "hand": "right"
    },
    {
      "midi": 43,
      "time": 51.774,
      "duration": 0.484,
      "velocity": 0.71,
      "hand": "left"
    },
    {
      "midi": 43,
      "time": 52.258,
      "duration": 0.484,
      "velocity": 0.71,
      "hand": "left"
    },
    {
      "midi": 51,
      "time": 52.258,
      "duration": 2.903,
      "velocity": 0.48,
      "hand": "left"
    },
    {
      "midi": 60,
      "time": 52.258,
      "duration": 0.726,
      "velocity": 0.68,
      "hand": "right"
    },
    {
      "midi": 66,
      "time": 52.258,
      "duration": 0.726,
      "velocity": 0.52,
      "hand": "right"
    },
    {
      "midi": 43,
      "time": 52.742,
      "duration": 0.484,
      "velocity": 0.71,
      "hand": "left"
    },
    {
      "midi": 60,
      "time": 52.984,
      "duration": 0.242,
      "velocity": 0.52,
      "hand": "right"
    },
    {
      "midi": 43,
      "time": 53.226,
      "duration": 0.484,
      "velocity": 0.71,
      "hand": "left"
    },
    {
      "midi": 60,
      "time": 53.226,
      "duration": 0.968,
      "velocity": 0.52,
      "hand": "right"
    },
    {
      "midi": 43,
      "time": 53.71,
      "duration": 0.484,
      "velocity": 0.71,
      "hand": "left"
    },
    {
      "midi": 43,
      "time": 54.194,
      "duration": 0.484,
      "velocity": 0.71,
      "hand": "left"
    },
    {
      "midi": 54,
      "time": 54.194,
      "duration": 0.968,
      "velocity": 0.68,
      "hand": "left"
    },
    {
      "midi": 59,
      "time": 54.194,
      "duration": 0.484,
      "velocity": 0.52,
      "hand": "left"
    },
    {
      "midi": 43,
      "time": 54.677,
      "duration": 0.484,
      "velocity": 0.71,
      "hand": "left"
    },
    {
      "midi": 57,
      "time": 54.677,
      "duration": 0.484,
      "velocity": 0.52,
      "hand": "left"
    },
    {
      "midi": 43,
      "time": 55.161,
      "duration": 0.484,
      "velocity": 0.71,
      "hand": "left"
    },
    {
      "midi": 50,
      "time": 55.161,
      "duration": 0.968,
      "velocity": 0.48,
      "hand": "left"
    },
    {
      "midi": 55,
      "time": 55.161,
      "duration": 0.968,
      "velocity": 0.77,
      "hand": "left"
    },
    {
      "midi": 59,
      "time": 55.161,
      "duration": 0.968,
      "velocity": 0.77,
      "hand": "left"
    },
    {
      "midi": 43,
      "time": 55.645,
      "duration": 0.484,
      "velocity": 0.71,
      "hand": "left"
    },
    {
      "midi": 43,
      "time": 56.129,
      "duration": 0.484,
      "velocity": 0.71,
      "hand": "left"
    },
    {
      "midi": 48,
      "time": 56.129,
      "duration": 0.968,
      "velocity": 0.48,
      "hand": "left"
    },
    {
      "midi": 55,
      "time": 56.129,
      "duration": 0.968,
      "velocity": 0.77,
      "hand": "left"
    },
    {
      "midi": 64,
      "time": 56.129,
      "duration": 0.968,
      "velocity": 0.77,
      "hand": "right"
    },
    {
      "midi": 43,
      "time": 56.613,
      "duration": 0.484,
      "velocity": 0.71,
      "hand": "left"
    },
    {
      "midi": 43,
      "time": 57.097,
      "duration": 0.484,
      "velocity": 0.71,
      "hand": "left"
    },
    {
      "midi": 47,
      "time": 57.097,
      "duration": 0.968,
      "velocity": 0.48,
      "hand": "left"
    },
    {
      "midi": 55,
      "time": 57.097,
      "duration": 0.968,
      "velocity": 0.77,
      "hand": "left"
    },
    {
      "midi": 62,
      "time": 57.097,
      "duration": 0.968,
      "velocity": 0.77,
      "hand": "right"
    },
    {
      "midi": 43,
      "time": 57.581,
      "duration": 0.484,
      "velocity": 0.71,
      "hand": "left"
    },
    {
      "midi": 43,
      "time": 58.065,
      "duration": 0.484,
      "velocity": 0.71,
      "hand": "left"
    },
    {
      "midi": 46,
      "time": 58.065,
      "duration": 1.935,
      "velocity": 0.48,
      "hand": "left"
    },
    {
      "midi": 61,
      "time": 58.065,
      "duration": 1.935,
      "velocity": 0.74,
      "hand": "right"
    },
    {
      "midi": 64,
      "time": 58.065,
      "duration": 1.935,
      "velocity": 0.74,
      "hand": "right"
    },
    {
      "midi": 43,
      "time": 58.548,
      "duration": 0.484,
      "velocity": 0.71,
      "hand": "left"
    },
    {
      "midi": 43,
      "time": 59.032,
      "duration": 0.484,
      "velocity": 0.71,
      "hand": "left"
    },
    {
      "midi": 43,
      "time": 59.516,
      "duration": 0.484,
      "velocity": 0.71,
      "hand": "left"
    },
    {
      "midi": 43,
      "time": 60,
      "duration": 0.484,
      "velocity": 0.71,
      "hand": "left"
    },
    {
      "midi": 45,
      "time": 60,
      "duration": 0.968,
      "velocity": 0.48,
      "hand": "left"
    },
    {
      "midi": 60,
      "time": 60,
      "duration": 0.968,
      "velocity": 0.69,
      "hand": "right"
    },
    {
      "midi": 66,
      "time": 60,
      "duration": 0.968,
      "velocity": 0.69,
      "hand": "right"
    },
    {
      "midi": 43,
      "time": 60.484,
      "duration": 0.484,
      "velocity": 0.71,
      "hand": "left"
    },
    {
      "midi": 43,
      "time": 60.968,
      "duration": 2.903,
      "velocity": 0.71,
      "hand": "left"
    },
    {
      "midi": 59,
      "time": 60.968,
      "duration": 1.935,
      "velocity": 0.71,
      "hand": "left"
    },
    {
      "midi": 67,
      "time": 60.968,
      "duration": 1.935,
      "velocity": 0.71,
      "hand": "right"
    },
    {
      "midi": 50,
      "time": 61.935,
      "duration": 1.935,
      "velocity": 0.48,
      "hand": "left"
    },
    {
      "midi": 59,
      "time": 62.903,
      "duration": 0.968,
      "velocity": 0.71,
      "hand": "left"
    },
    {
      "midi": 43,
      "time": 63.871,
      "duration": 2.903,
      "velocity": 0.71,
      "hand": "left"
    },
    {
      "midi": 50,
      "time": 63.871,
      "duration": 2.903,
      "velocity": 0.48,
      "hand": "left"
    },
    {
      "midi": 59,
      "time": 63.871,
      "duration": 1.935,
      "velocity": 0.71,
      "hand": "left"
    },
    {
      "midi": 62,
      "time": 63.871,
      "duration": 1.935,
      "velocity": 0.71,
      "hand": "right"
    },
    {
      "midi": 67,
      "time": 64.839,
      "duration": 0.968,
      "velocity": 0.71,
      "hand": "right"
    },
    {
      "midi": 67,
      "time": 65.806,
      "duration": 0.968,
      "velocity": 0.71,
      "hand": "right"
    },
    {
      "midi": 71,
      "time": 65.806,
      "duration": 0.968,
      "velocity": 0.71,
      "hand": "right"
    },
    {
      "midi": 43,
      "time": 66.774,
      "duration": 2.903,
      "velocity": 0.71,
      "hand": "left"
    },
    {
      "midi": 50,
      "time": 66.774,
      "duration": 2.903,
      "velocity": 0.48,
      "hand": "left"
    },
    {
      "midi": 67,
      "time": 66.774,
      "duration": 2.903,
      "velocity": 0.49,
      "hand": "right"
    },
    {
      "midi": 71,
      "time": 66.774,
      "duration": 2.903,
      "velocity": 0.49,
      "hand": "right"
    },
    {
      "midi": 74,
      "time": 66.774,
      "duration": 2.903,
      "velocity": 0.49,
      "hand": "right"
    }
  ],
  "arrangements": {
    "easy": [
      {
        "midi": 71,
        "time": 0,
        "duration": 0.968,
        "velocity": 0.54,
        "hand": "right"
      },
      {
        "midi": 71,
        "time": 0.968,
        "duration": 1.452,
        "velocity": 0.54,
        "hand": "right"
      },
      {
        "midi": 69,
        "time": 2.419,
        "duration": 0.484,
        "velocity": 0.54,
        "hand": "right"
      },
      {
        "midi": 72,
        "time": 2.903,
        "duration": 0.968,
        "velocity": 0.54,
        "hand": "right"
      },
      {
        "midi": 71,
        "time": 3.871,
        "duration": 1.935,
        "velocity": 0.54,
        "hand": "right"
      },
      {
        "midi": 69,
        "time": 5.806,
        "duration": 0.968,
        "velocity": 0.54,
        "hand": "right"
      },
      {
        "midi": 67,
        "time": 6.774,
        "duration": 0.968,
        "velocity": 0.62,
        "hand": "right"
      },
      {
        "midi": 69,
        "time": 7.742,
        "duration": 0.968,
        "velocity": 0.69,
        "hand": "right"
      },
      {
        "midi": 71,
        "time": 8.71,
        "duration": 2.903,
        "velocity": 0.77,
        "hand": "right"
      },
      {
        "midi": 71,
        "time": 11.613,
        "duration": 0.968,
        "velocity": 0.61,
        "hand": "right"
      },
      {
        "midi": 64,
        "time": 12.581,
        "duration": 1.452,
        "velocity": 0.52,
        "hand": "right"
      },
      {
        "midi": 69,
        "time": 14.032,
        "duration": 0.484,
        "velocity": 0.38,
        "hand": "right"
      },
      {
        "midi": 62,
        "time": 15.484,
        "duration": 1.452,
        "velocity": 0.42,
        "hand": "right"
      },
      {
        "midi": 60,
        "time": 16.452,
        "duration": 0.968,
        "velocity": 0.71,
        "hand": "right"
      },
      {
        "midi": 67,
        "time": 17.419,
        "duration": 0.968,
        "velocity": 0.5,
        "hand": "right"
      },
      {
        "midi": 67,
        "time": 18.387,
        "duration": 0.968,
        "velocity": 0.54,
        "hand": "right"
      },
      {
        "midi": 76,
        "time": 19.355,
        "duration": 0.726,
        "velocity": 0.57,
        "hand": "right"
      },
      {
        "midi": 69,
        "time": 20.081,
        "duration": 0.484,
        "velocity": 0.61,
        "hand": "right"
      },
      {
        "midi": 66,
        "time": 21.29,
        "duration": 0.484,
        "velocity": 0.71,
        "hand": "right"
      },
      {
        "midi": 64,
        "time": 21.774,
        "duration": 0.484,
        "velocity": 0.59,
        "hand": "right"
      },
      {
        "midi": 66,
        "time": 22.258,
        "duration": 0.968,
        "velocity": 0.48,
        "hand": "right"
      },
      {
        "midi": 71,
        "time": 23.226,
        "duration": 0.968,
        "velocity": 0.54,
        "hand": "right"
      },
      {
        "midi": 71,
        "time": 24.194,
        "duration": 1.452,
        "velocity": 0.54,
        "hand": "right"
      },
      {
        "midi": 69,
        "time": 25.645,
        "duration": 0.484,
        "velocity": 0.54,
        "hand": "right"
      },
      {
        "midi": 72,
        "time": 26.129,
        "duration": 0.968,
        "velocity": 0.54,
        "hand": "right"
      },
      {
        "midi": 71,
        "time": 27.097,
        "duration": 1.452,
        "velocity": 0.59,
        "hand": "right"
      },
      {
        "midi": 65,
        "time": 28.065,
        "duration": 0.968,
        "velocity": 0.71,
        "hand": "right"
      },
      {
        "midi": 72,
        "time": 29.032,
        "duration": 0.968,
        "velocity": 0.68,
        "hand": "right"
      },
      {
        "midi": 74,
        "time": 30,
        "duration": 0.968,
        "velocity": 0.72,
        "hand": "right"
      },
      {
        "midi": 76,
        "time": 30.968,
        "duration": 0.968,
        "velocity": 0.77,
        "hand": "right"
      },
      {
        "midi": 78,
        "time": 31.935,
        "duration": 1.935,
        "velocity": 0.75,
        "hand": "right"
      },
      {
        "midi": 78,
        "time": 33.871,
        "duration": 0.968,
        "velocity": 0.75,
        "hand": "right"
      },
      {
        "midi": 75,
        "time": 34.839,
        "duration": 0.968,
        "velocity": 0.75,
        "hand": "right"
      },
      {
        "midi": 76,
        "time": 35.806,
        "duration": 1.452,
        "velocity": 0.75,
        "hand": "right"
      },
      {
        "midi": 69,
        "time": 36.774,
        "duration": 0.968,
        "velocity": 0.71,
        "hand": "right"
      },
      {
        "midi": 73,
        "time": 37.258,
        "duration": 0.484,
        "velocity": 0.7,
        "hand": "right"
      },
      {
        "midi": 74,
        "time": 37.742,
        "duration": 0.968,
        "velocity": 0.69,
        "hand": "right"
      },
      {
        "midi": 71,
        "time": 38.71,
        "duration": 0.968,
        "velocity": 0.66,
        "hand": "right"
      },
      {
        "midi": 72,
        "time": 39.677,
        "duration": 0.968,
        "velocity": 0.63,
        "hand": "right"
      },
      {
        "midi": 71,
        "time": 40.645,
        "duration": 0.726,
        "velocity": 0.61,
        "hand": "right"
      },
      {
        "midi": 69,
        "time": 41.371,
        "duration": 0.484,
        "velocity": 0.58,
        "hand": "right"
      },
      {
        "midi": 66,
        "time": 42.581,
        "duration": 0.968,
        "velocity": 0.55,
        "hand": "right"
      },
      {
        "midi": 60,
        "time": 43.065,
        "duration": 0.484,
        "velocity": 0.71,
        "hand": "right"
      },
      {
        "midi": 79,
        "time": 45.484,
        "duration": 0.968,
        "velocity": 0.52,
        "hand": "right"
      },
      {
        "midi": 78,
        "time": 46.452,
        "duration": 0.726,
        "velocity": 0.52,
        "hand": "right"
      },
      {
        "midi": 72,
        "time": 47.177,
        "duration": 0.484,
        "velocity": 0.52,
        "hand": "right"
      },
      {
        "midi": 71,
        "time": 48.387,
        "duration": 0.484,
        "velocity": 0.52,
        "hand": "right"
      },
      {
        "midi": 69,
        "time": 48.871,
        "duration": 0.484,
        "velocity": 0.52,
        "hand": "right"
      },
      {
        "midi": 71,
        "time": 49.355,
        "duration": 0.968,
        "velocity": 0.52,
        "hand": "right"
      },
      {
        "midi": 67,
        "time": 51.29,
        "duration": 0.968,
        "velocity": 0.52,
        "hand": "right"
      },
      {
        "midi": 66,
        "time": 52.258,
        "duration": 0.726,
        "velocity": 0.52,
        "hand": "right"
      },
      {
        "midi": 60,
        "time": 52.984,
        "duration": 0.484,
        "velocity": 0.52,
        "hand": "right"
      },
      {
        "midi": 64,
        "time": 56.129,
        "duration": 0.968,
        "velocity": 0.77,
        "hand": "right"
      },
      {
        "midi": 62,
        "time": 57.097,
        "duration": 0.968,
        "velocity": 0.77,
        "hand": "right"
      },
      {
        "midi": 64,
        "time": 58.065,
        "duration": 1.935,
        "velocity": 0.74,
        "hand": "right"
      },
      {
        "midi": 66,
        "time": 60,
        "duration": 0.968,
        "velocity": 0.69,
        "hand": "right"
      },
      {
        "midi": 67,
        "time": 60.968,
        "duration": 1.935,
        "velocity": 0.71,
        "hand": "right"
      },
      {
        "midi": 62,
        "time": 63.871,
        "duration": 1.935,
        "velocity": 0.71,
        "hand": "right"
      },
      {
        "midi": 67,
        "time": 64.839,
        "duration": 0.968,
        "velocity": 0.71,
        "hand": "right"
      },
      {
        "midi": 71,
        "time": 65.806,
        "duration": 0.968,
        "velocity": 0.71,
        "hand": "right"
      },
      {
        "midi": 74,
        "time": 66.774,
        "duration": 2.903,
        "velocity": 0.49,
        "hand": "right"
      }
    ],
    "medium": [
      {
        "midi": 55,
        "time": 0,
        "duration": 0.968,
        "velocity": 0.71,
        "hand": "left"
      },
      {
        "midi": 67,
        "time": 0,
        "duration": 0.968,
        "velocity": 0.54,
        "hand": "right"
      },
      {
        "midi": 71,
        "time": 0,
        "duration": 0.968,
        "velocity": 0.54,
        "hand": "right"
      },
      {
        "midi": 55,
        "time": 0.968,
        "duration": 1.452,
        "velocity": 0.71,
        "hand": "left"
      },
      {
        "midi": 67,
        "time": 0.968,
        "duration": 1.452,
        "velocity": 0.54,
        "hand": "right"
      },
      {
        "midi": 71,
        "time": 0.968,
        "duration": 1.452,
        "velocity": 0.54,
        "hand": "right"
      },
      {
        "midi": 50,
        "time": 2.419,
        "duration": 0.484,
        "velocity": 0.71,
        "hand": "left"
      },
      {
        "midi": 66,
        "time": 2.419,
        "duration": 0.484,
        "velocity": 0.54,
        "hand": "right"
      },
      {
        "midi": 69,
        "time": 2.419,
        "duration": 0.484,
        "velocity": 0.54,
        "hand": "right"
      },
      {
        "midi": 52,
        "time": 2.903,
        "duration": 0.968,
        "velocity": 0.71,
        "hand": "left"
      },
      {
        "midi": 67,
        "time": 2.903,
        "duration": 0.968,
        "velocity": 0.54,
        "hand": "right"
      },
      {
        "midi": 72,
        "time": 2.903,
        "duration": 0.968,
        "velocity": 0.54,
        "hand": "right"
      },
      {
        "midi": 55,
        "time": 3.871,
        "duration": 1.935,
        "velocity": 0.71,
        "hand": "left"
      },
      {
        "midi": 67,
        "time": 3.871,
        "duration": 1.935,
        "velocity": 0.54,
        "hand": "right"
      },
      {
        "midi": 71,
        "time": 3.871,
        "duration": 1.935,
        "velocity": 0.54,
        "hand": "right"
      },
      {
        "midi": 50,
        "time": 5.806,
        "duration": 0.968,
        "velocity": 0.71,
        "hand": "left"
      },
      {
        "midi": 66,
        "time": 5.806,
        "duration": 0.968,
        "velocity": 0.54,
        "hand": "right"
      },
      {
        "midi": 69,
        "time": 5.806,
        "duration": 0.968,
        "velocity": 0.54,
        "hand": "right"
      },
      {
        "midi": 52,
        "time": 6.774,
        "duration": 0.968,
        "velocity": 0.71,
        "hand": "left"
      },
      {
        "midi": 64,
        "time": 6.774,
        "duration": 0.968,
        "velocity": 0.62,
        "hand": "right"
      },
      {
        "midi": 67,
        "time": 6.774,
        "duration": 0.968,
        "velocity": 0.62,
        "hand": "right"
      },
      {
        "midi": 48,
        "time": 7.742,
        "duration": 0.968,
        "velocity": 0.71,
        "hand": "left"
      },
      {
        "midi": 64,
        "time": 7.742,
        "duration": 0.968,
        "velocity": 0.69,
        "hand": "right"
      },
      {
        "midi": 69,
        "time": 7.742,
        "duration": 0.968,
        "velocity": 0.69,
        "hand": "right"
      },
      {
        "midi": 47,
        "time": 8.71,
        "duration": 2.903,
        "velocity": 0.71,
        "hand": "left"
      },
      {
        "midi": 63,
        "time": 8.71,
        "duration": 2.903,
        "velocity": 0.77,
        "hand": "right"
      },
      {
        "midi": 71,
        "time": 8.71,
        "duration": 2.903,
        "velocity": 0.77,
        "hand": "right"
      },
      {
        "midi": 44,
        "time": 11.613,
        "duration": 0.968,
        "velocity": 0.71,
        "hand": "left"
      },
      {
        "midi": 62,
        "time": 11.613,
        "duration": 0.968,
        "velocity": 0.71,
        "hand": "right"
      },
      {
        "midi": 71,
        "time": 11.613,
        "duration": 0.968,
        "velocity": 0.61,
        "hand": "right"
      },
      {
        "midi": 45,
        "time": 12.581,
        "duration": 0.968,
        "velocity": 0.71,
        "hand": "left"
      },
      {
        "midi": 61,
        "time": 12.581,
        "duration": 1.935,
        "velocity": 0.71,
        "hand": "right"
      },
      {
        "midi": 64,
        "time": 12.581,
        "duration": 1.452,
        "velocity": 0.52,
        "hand": "right"
      },
      {
        "midi": 43,
        "time": 13.548,
        "duration": 0.968,
        "velocity": 0.71,
        "hand": "left"
      },
      {
        "midi": 69,
        "time": 14.032,
        "duration": 0.484,
        "velocity": 0.38,
        "hand": "right"
      },
      {
        "midi": 42,
        "time": 14.516,
        "duration": 0.968,
        "velocity": 0.71,
        "hand": "left"
      },
      {
        "midi": 60,
        "time": 14.516,
        "duration": 0.968,
        "velocity": 0.71,
        "hand": "right"
      },
      {
        "midi": 69,
        "time": 14.516,
        "duration": 0.968,
        "velocity": 0.38,
        "hand": "right"
      },
      {
        "midi": 43,
        "time": 15.484,
        "duration": 0.968,
        "velocity": 0.71,
        "hand": "left"
      },
      {
        "midi": 59,
        "time": 15.484,
        "duration": 0.968,
        "velocity": 0.71,
        "hand": "left"
      },
      {
        "midi": 62,
        "time": 15.484,
        "duration": 1.452,
        "velocity": 0.42,
        "hand": "right"
      },
      {
        "midi": 45,
        "time": 16.452,
        "duration": 0.968,
        "velocity": 0.71,
        "hand": "left"
      },
      {
        "midi": 60,
        "time": 16.452,
        "duration": 0.968,
        "velocity": 0.71,
        "hand": "right"
      },
      {
        "midi": 66,
        "time": 16.935,
        "duration": 0.484,
        "velocity": 0.48,
        "hand": "right"
      },
      {
        "midi": 47,
        "time": 17.419,
        "duration": 0.968,
        "velocity": 0.71,
        "hand": "left"
      },
      {
        "midi": 62,
        "time": 17.419,
        "duration": 0.968,
        "velocity": 0.71,
        "hand": "right"
      },
      {
        "midi": 67,
        "time": 17.419,
        "duration": 0.968,
        "velocity": 0.5,
        "hand": "right"
      },
      {
        "midi": 48,
        "time": 18.387,
        "duration": 0.968,
        "velocity": 0.71,
        "hand": "left"
      },
      {
        "midi": 64,
        "time": 18.387,
        "duration": 0.968,
        "velocity": 0.71,
        "hand": "right"
      },
      {
        "midi": 67,
        "time": 18.387,
        "duration": 0.968,
        "velocity": 0.54,
        "hand": "right"
      },
      {
        "midi": 49,
        "time": 19.355,
        "duration": 0.968,
        "velocity": 0.71,
        "hand": "left"
      },
      {
        "midi": 67,
        "time": 19.355,
        "duration": 0.968,
        "velocity": 0.71,
        "hand": "right"
      },
      {
        "midi": 76,
        "time": 19.355,
        "duration": 0.726,
        "velocity": 0.57,
        "hand": "right"
      },
      {
        "midi": 69,
        "time": 20.081,
        "duration": 0.242,
        "velocity": 0.61,
        "hand": "right"
      },
      {
        "midi": 50,
        "time": 20.323,
        "duration": 2.903,
        "velocity": 0.71,
        "hand": "left"
      },
      {
        "midi": 67,
        "time": 20.323,
        "duration": 0.968,
        "velocity": 0.71,
        "hand": "right"
      },
      {
        "midi": 69,
        "time": 20.323,
        "duration": 2.903,
        "velocity": 0.68,
        "hand": "right"
      },
      {
        "midi": 66,
        "time": 21.29,
        "duration": 0.484,
        "velocity": 0.71,
        "hand": "right"
      },
      {
        "midi": 64,
        "time": 21.774,
        "duration": 0.484,
        "velocity": 0.59,
        "hand": "right"
      },
      {
        "midi": 62,
        "time": 22.258,
        "duration": 0.968,
        "velocity": 0.71,
        "hand": "right"
      },
      {
        "midi": 66,
        "time": 22.258,
        "duration": 0.968,
        "velocity": 0.48,
        "hand": "right"
      },
      {
        "midi": 55,
        "time": 23.226,
        "duration": 0.968,
        "velocity": 0.71,
        "hand": "left"
      },
      {
        "midi": 67,
        "time": 23.226,
        "duration": 0.968,
        "velocity": 0.54,
        "hand": "right"
      },
      {
        "midi": 71,
        "time": 23.226,
        "duration": 0.968,
        "velocity": 0.54,
        "hand": "right"
      },
      {
        "midi": 55,
        "time": 24.194,
        "duration": 1.452,
        "velocity": 0.71,
        "hand": "left"
      },
      {
        "midi": 67,
        "time": 24.194,
        "duration": 1.452,
        "velocity": 0.54,
        "hand": "right"
      },
      {
        "midi": 71,
        "time": 24.194,
        "duration": 1.452,
        "velocity": 0.54,
        "hand": "right"
      },
      {
        "midi": 50,
        "time": 25.645,
        "duration": 0.484,
        "velocity": 0.71,
        "hand": "left"
      },
      {
        "midi": 66,
        "time": 25.645,
        "duration": 0.484,
        "velocity": 0.54,
        "hand": "right"
      },
      {
        "midi": 69,
        "time": 25.645,
        "duration": 0.484,
        "velocity": 0.54,
        "hand": "right"
      },
      {
        "midi": 52,
        "time": 26.129,
        "duration": 0.968,
        "velocity": 0.71,
        "hand": "left"
      },
      {
        "midi": 67,
        "time": 26.129,
        "duration": 0.968,
        "velocity": 0.54,
        "hand": "right"
      },
      {
        "midi": 72,
        "time": 26.129,
        "duration": 0.968,
        "velocity": 0.54,
        "hand": "right"
      },
      {
        "midi": 55,
        "time": 27.097,
        "duration": 0.968,
        "velocity": 0.71,
        "hand": "left"
      },
      {
        "midi": 67,
        "time": 27.097,
        "duration": 1.452,
        "velocity": 0.59,
        "hand": "right"
      },
      {
        "midi": 71,
        "time": 27.097,
        "duration": 1.452,
        "velocity": 0.59,
        "hand": "right"
      },
      {
        "midi": 65,
        "time": 28.065,
        "duration": 0.968,
        "velocity": 0.71,
        "hand": "right"
      },
      {
        "midi": 67,
        "time": 28.548,
        "duration": 0.484,
        "velocity": 0.66,
        "hand": "right"
      },
      {
        "midi": 71,
        "time": 28.548,
        "duration": 0.484,
        "velocity": 0.66,
        "hand": "right"
      },
      {
        "midi": 64,
        "time": 29.032,
        "duration": 0.968,
        "velocity": 0.71,
        "hand": "right"
      },
      {
        "midi": 67,
        "time": 29.032,
        "duration": 0.968,
        "velocity": 0.68,
        "hand": "right"
      },
      {
        "midi": 72,
        "time": 29.032,
        "duration": 0.968,
        "velocity": 0.68,
        "hand": "right"
      },
      {
        "midi": 62,
        "time": 30,
        "duration": 0.968,
        "velocity": 0.71,
        "hand": "right"
      },
      {
        "midi": 71,
        "time": 30,
        "duration": 0.968,
        "velocity": 0.72,
        "hand": "right"
      },
      {
        "midi": 74,
        "time": 30,
        "duration": 0.968,
        "velocity": 0.72,
        "hand": "right"
      },
      {
        "midi": 60,
        "time": 30.968,
        "duration": 0.484,
        "velocity": 0.71,
        "hand": "right"
      },
      {
        "midi": 72,
        "time": 30.968,
        "duration": 0.968,
        "velocity": 0.77,
        "hand": "right"
      },
      {
        "midi": 76,
        "time": 30.968,
        "duration": 0.968,
        "velocity": 0.77,
        "hand": "right"
      },
      {
        "midi": 59,
        "time": 31.452,
        "duration": 0.484,
        "velocity": 0.71,
        "hand": "left"
      },
      {
        "midi": 58,
        "time": 31.935,
        "duration": 2.903,
        "velocity": 0.71,
        "hand": "left"
      },
      {
        "midi": 73,
        "time": 31.935,
        "duration": 2.903,
        "velocity": 0.71,
        "hand": "right"
      },
      {
        "midi": 78,
        "time": 31.935,
        "duration": 1.935,
        "velocity": 0.75,
        "hand": "right"
      },
      {
        "midi": 78,
        "time": 33.871,
        "duration": 0.968,
        "velocity": 0.75,
        "hand": "right"
      },
      {
        "midi": 57,
        "time": 34.839,
        "duration": 0.968,
        "velocity": 0.71,
        "hand": "left"
      },
      {
        "midi": 71,
        "time": 34.839,
        "duration": 0.968,
        "velocity": 0.71,
        "hand": "right"
      },
      {
        "midi": 75,
        "time": 34.839,
        "duration": 0.968,
        "velocity": 0.75,
        "hand": "right"
      },
      {
        "midi": 56,
        "time": 35.806,
        "duration": 0.968,
        "velocity": 0.71,
        "hand": "left"
      },
      {
        "midi": 71,
        "time": 35.806,
        "duration": 0.968,
        "velocity": 0.71,
        "hand": "right"
      },
      {
        "midi": 76,
        "time": 35.806,
        "duration": 1.452,
        "velocity": 0.75,
        "hand": "right"
      },
      {
        "midi": 55,
        "time": 36.774,
        "duration": 0.968,
        "velocity": 0.71,
        "hand": "left"
      },
      {
        "midi": 69,
        "time": 36.774,
        "duration": 0.968,
        "velocity": 0.71,
        "hand": "right"
      },
      {
        "midi": 73,
        "time": 37.258,
        "duration": 0.484,
        "velocity": 0.7,
        "hand": "right"
      },
      {
        "midi": 54,
        "time": 37.742,
        "duration": 0.968,
        "velocity": 0.71,
        "hand": "left"
      },
      {
        "midi": 69,
        "time": 37.742,
        "duration": 0.968,
        "velocity": 0.71,
        "hand": "right"
      },
      {
        "midi": 74,
        "time": 37.742,
        "duration": 0.968,
        "velocity": 0.69,
        "hand": "right"
      },
      {
        "midi": 55,
        "time": 38.71,
        "duration": 0.968,
        "velocity": 0.71,
        "hand": "left"
      },
      {
        "midi": 67,
        "time": 38.71,
        "duration": 0.968,
        "velocity": 0.71,
        "hand": "right"
      },
      {
        "midi": 71,
        "time": 38.71,
        "duration": 0.968,
        "velocity": 0.66,
        "hand": "right"
      },
      {
        "midi": 52,
        "time": 39.677,
        "duration": 0.968,
        "velocity": 0.71,
        "hand": "left"
      },
      {
        "midi": 67,
        "time": 39.677,
        "duration": 0.968,
        "velocity": 0.71,
        "hand": "right"
      },
      {
        "midi": 72,
        "time": 39.677,
        "duration": 0.968,
        "velocity": 0.63,
        "hand": "right"
      },
      {
        "midi": 48,
        "time": 40.645,
        "duration": 1.935,
        "velocity": 0.71,
        "hand": "left"
      },
      {
        "midi": 64,
        "time": 40.645,
        "duration": 1.935,
        "velocity": 0.71,
        "hand": "right"
      },
      {
        "midi": 71,
        "time": 40.645,
        "duration": 0.726,
        "velocity": 0.61,
        "hand": "right"
      },
      {
        "midi": 69,
        "time": 41.371,
        "duration": 0.242,
        "velocity": 0.58,
        "hand": "right"
      },
      {
        "midi": 69,
        "time": 41.613,
        "duration": 0.968,
        "velocity": 0.57,
        "hand": "right"
      },
      {
        "midi": 50,
        "time": 42.581,
        "duration": 1.935,
        "velocity": 0.71,
        "hand": "left"
      },
      {
        "midi": 62,
        "time": 42.581,
        "duration": 0.484,
        "velocity": 0.71,
        "hand": "right"
      },
      {
        "midi": 66,
        "time": 42.581,
        "duration": 0.968,
        "velocity": 0.55,
        "hand": "right"
      },
      {
        "midi": 60,
        "time": 43.065,
        "duration": 0.484,
        "velocity": 0.71,
        "hand": "right"
      },
      {
        "midi": 43,
        "time": 43.548,
        "duration": 0.484,
        "velocity": 0.71,
        "hand": "left"
      },
      {
        "midi": 59,
        "time": 43.548,
        "duration": 0.968,
        "velocity": 0.71,
        "hand": "left"
      },
      {
        "midi": 67,
        "time": 43.548,
        "duration": 0.968,
        "velocity": 0.52,
        "hand": "right"
      },
      {
        "midi": 43,
        "time": 44.032,
        "duration": 0.484,
        "velocity": 0.71,
        "hand": "left"
      },
      {
        "midi": 43,
        "time": 44.516,
        "duration": 0.484,
        "velocity": 0.71,
        "hand": "left"
      },
      {
        "midi": 43,
        "time": 45,
        "duration": 0.484,
        "velocity": 0.71,
        "hand": "left"
      },
      {
        "midi": 43,
        "time": 45.484,
        "duration": 0.484,
        "velocity": 0.71,
        "hand": "left"
      },
      {
        "midi": 71,
        "time": 45.484,
        "duration": 0.968,
        "velocity": 0.75,
        "hand": "right"
      },
      {
        "midi": 79,
        "time": 45.484,
        "duration": 0.968,
        "velocity": 0.52,
        "hand": "right"
      },
      {
        "midi": 43,
        "time": 45.968,
        "duration": 0.484,
        "velocity": 0.71,
        "hand": "left"
      },
      {
        "midi": 43,
        "time": 46.452,
        "duration": 0.484,
        "velocity": 0.71,
        "hand": "left"
      },
      {
        "midi": 72,
        "time": 46.452,
        "duration": 0.726,
        "velocity": 0.75,
        "hand": "right"
      },
      {
        "midi": 78,
        "time": 46.452,
        "duration": 0.726,
        "velocity": 0.52,
        "hand": "right"
      },
      {
        "midi": 43,
        "time": 46.935,
        "duration": 0.484,
        "velocity": 0.71,
        "hand": "left"
      },
      {
        "midi": 72,
        "time": 47.177,
        "duration": 0.242,
        "velocity": 0.52,
        "hand": "right"
      },
      {
        "midi": 43,
        "time": 47.419,
        "duration": 0.484,
        "velocity": 0.71,
        "hand": "left"
      },
      {
        "midi": 72,
        "time": 47.419,
        "duration": 0.968,
        "velocity": 0.52,
        "hand": "right"
      },
      {
        "midi": 43,
        "time": 47.903,
        "duration": 0.484,
        "velocity": 0.71,
        "hand": "left"
      },
      {
        "midi": 43,
        "time": 48.387,
        "duration": 0.484,
        "velocity": 0.71,
        "hand": "left"
      },
      {
        "midi": 66,
        "time": 48.387,
        "duration": 0.968,
        "velocity": 0.75,
        "hand": "right"
      },
      {
        "midi": 71,
        "time": 48.387,
        "duration": 0.484,
        "velocity": 0.52,
        "hand": "right"
      },
      {
        "midi": 43,
        "time": 48.871,
        "duration": 0.484,
        "velocity": 0.71,
        "hand": "left"
      },
      {
        "midi": 69,
        "time": 48.871,
        "duration": 0.484,
        "velocity": 0.52,
        "hand": "right"
      },
      {
        "midi": 43,
        "time": 49.355,
        "duration": 0.484,
        "velocity": 0.71,
        "hand": "left"
      },
      {
        "midi": 67,
        "time": 49.355,
        "duration": 0.968,
        "velocity": 0.75,
        "hand": "right"
      },
      {
        "midi": 71,
        "time": 49.355,
        "duration": 0.968,
        "velocity": 0.52,
        "hand": "right"
      },
      {
        "midi": 43,
        "time": 49.839,
        "duration": 0.484,
        "velocity": 0.71,
        "hand": "left"
      },
      {
        "midi": 43,
        "time": 50.323,
        "duration": 0.484,
        "velocity": 0.71,
        "hand": "left"
      },
      {
        "midi": 43,
        "time": 50.806,
        "duration": 0.484,
        "velocity": 0.71,
        "hand": "left"
      },
      {
        "midi": 43,
        "time": 51.29,
        "duration": 0.484,
        "velocity": 0.71,
        "hand": "left"
      },
      {
        "midi": 59,
        "time": 51.29,
        "duration": 0.968,
        "velocity": 0.68,
        "hand": "left"
      },
      {
        "midi": 67,
        "time": 51.29,
        "duration": 0.968,
        "velocity": 0.52,
        "hand": "right"
      },
      {
        "midi": 43,
        "time": 51.774,
        "duration": 0.484,
        "velocity": 0.71,
        "hand": "left"
      },
      {
        "midi": 43,
        "time": 52.258,
        "duration": 0.484,
        "velocity": 0.71,
        "hand": "left"
      },
      {
        "midi": 60,
        "time": 52.258,
        "duration": 0.726,
        "velocity": 0.68,
        "hand": "right"
      },
      {
        "midi": 66,
        "time": 52.258,
        "duration": 0.726,
        "velocity": 0.52,
        "hand": "right"
      },
      {
        "midi": 43,
        "time": 52.742,
        "duration": 0.484,
        "velocity": 0.71,
        "hand": "left"
      },
      {
        "midi": 60,
        "time": 52.984,
        "duration": 0.242,
        "velocity": 0.52,
        "hand": "right"
      },
      {
        "midi": 43,
        "time": 53.226,
        "duration": 0.484,
        "velocity": 0.71,
        "hand": "left"
      },
      {
        "midi": 60,
        "time": 53.226,
        "duration": 0.968,
        "velocity": 0.52,
        "hand": "right"
      },
      {
        "midi": 43,
        "time": 53.71,
        "duration": 0.484,
        "velocity": 0.71,
        "hand": "left"
      },
      {
        "midi": 43,
        "time": 54.194,
        "duration": 0.484,
        "velocity": 0.71,
        "hand": "left"
      },
      {
        "midi": 54,
        "time": 54.194,
        "duration": 0.968,
        "velocity": 0.68,
        "hand": "left"
      },
      {
        "midi": 59,
        "time": 54.194,
        "duration": 0.484,
        "velocity": 0.52,
        "hand": "left"
      },
      {
        "midi": 43,
        "time": 54.677,
        "duration": 0.484,
        "velocity": 0.71,
        "hand": "left"
      },
      {
        "midi": 57,
        "time": 54.677,
        "duration": 0.484,
        "velocity": 0.52,
        "hand": "left"
      },
      {
        "midi": 43,
        "time": 55.161,
        "duration": 0.484,
        "velocity": 0.71,
        "hand": "left"
      },
      {
        "midi": 55,
        "time": 55.161,
        "duration": 0.968,
        "velocity": 0.77,
        "hand": "left"
      },
      {
        "midi": 59,
        "time": 55.161,
        "duration": 0.968,
        "velocity": 0.77,
        "hand": "left"
      },
      {
        "midi": 43,
        "time": 55.645,
        "duration": 0.484,
        "velocity": 0.71,
        "hand": "left"
      },
      {
        "midi": 43,
        "time": 56.129,
        "duration": 0.484,
        "velocity": 0.71,
        "hand": "left"
      },
      {
        "midi": 55,
        "time": 56.129,
        "duration": 0.968,
        "velocity": 0.77,
        "hand": "left"
      },
      {
        "midi": 64,
        "time": 56.129,
        "duration": 0.968,
        "velocity": 0.77,
        "hand": "right"
      },
      {
        "midi": 43,
        "time": 56.613,
        "duration": 0.484,
        "velocity": 0.71,
        "hand": "left"
      },
      {
        "midi": 43,
        "time": 57.097,
        "duration": 0.484,
        "velocity": 0.71,
        "hand": "left"
      },
      {
        "midi": 55,
        "time": 57.097,
        "duration": 0.968,
        "velocity": 0.77,
        "hand": "left"
      },
      {
        "midi": 62,
        "time": 57.097,
        "duration": 0.968,
        "velocity": 0.77,
        "hand": "right"
      },
      {
        "midi": 43,
        "time": 57.581,
        "duration": 0.484,
        "velocity": 0.71,
        "hand": "left"
      },
      {
        "midi": 43,
        "time": 58.065,
        "duration": 0.484,
        "velocity": 0.71,
        "hand": "left"
      },
      {
        "midi": 61,
        "time": 58.065,
        "duration": 1.935,
        "velocity": 0.74,
        "hand": "right"
      },
      {
        "midi": 64,
        "time": 58.065,
        "duration": 1.935,
        "velocity": 0.74,
        "hand": "right"
      },
      {
        "midi": 43,
        "time": 58.548,
        "duration": 0.484,
        "velocity": 0.71,
        "hand": "left"
      },
      {
        "midi": 43,
        "time": 59.032,
        "duration": 0.484,
        "velocity": 0.71,
        "hand": "left"
      },
      {
        "midi": 43,
        "time": 59.516,
        "duration": 0.484,
        "velocity": 0.71,
        "hand": "left"
      },
      {
        "midi": 43,
        "time": 60,
        "duration": 0.484,
        "velocity": 0.71,
        "hand": "left"
      },
      {
        "midi": 60,
        "time": 60,
        "duration": 0.968,
        "velocity": 0.69,
        "hand": "right"
      },
      {
        "midi": 66,
        "time": 60,
        "duration": 0.968,
        "velocity": 0.69,
        "hand": "right"
      },
      {
        "midi": 43,
        "time": 60.484,
        "duration": 0.484,
        "velocity": 0.71,
        "hand": "left"
      },
      {
        "midi": 43,
        "time": 60.968,
        "duration": 2.903,
        "velocity": 0.71,
        "hand": "left"
      },
      {
        "midi": 59,
        "time": 60.968,
        "duration": 1.935,
        "velocity": 0.71,
        "hand": "left"
      },
      {
        "midi": 67,
        "time": 60.968,
        "duration": 1.935,
        "velocity": 0.71,
        "hand": "right"
      },
      {
        "midi": 50,
        "time": 61.935,
        "duration": 1.935,
        "velocity": 0.48,
        "hand": "left"
      },
      {
        "midi": 59,
        "time": 62.903,
        "duration": 0.968,
        "velocity": 0.71,
        "hand": "left"
      },
      {
        "midi": 43,
        "time": 63.871,
        "duration": 2.903,
        "velocity": 0.71,
        "hand": "left"
      },
      {
        "midi": 59,
        "time": 63.871,
        "duration": 1.935,
        "velocity": 0.71,
        "hand": "left"
      },
      {
        "midi": 62,
        "time": 63.871,
        "duration": 1.935,
        "velocity": 0.71,
        "hand": "right"
      },
      {
        "midi": 67,
        "time": 64.839,
        "duration": 0.968,
        "velocity": 0.71,
        "hand": "right"
      },
      {
        "midi": 67,
        "time": 65.806,
        "duration": 0.968,
        "velocity": 0.71,
        "hand": "right"
      },
      {
        "midi": 71,
        "time": 65.806,
        "duration": 0.968,
        "velocity": 0.71,
        "hand": "right"
      },
      {
        "midi": 43,
        "time": 66.774,
        "duration": 2.903,
        "velocity": 0.71,
        "hand": "left"
      },
      {
        "midi": 67,
        "time": 66.774,
        "duration": 2.903,
        "velocity": 0.49,
        "hand": "right"
      },
      {
        "midi": 74,
        "time": 66.774,
        "duration": 2.903,
        "velocity": 0.49,
        "hand": "right"
      }
    ],
    "hard": [
      {
        "midi": 55,
        "time": 0,
        "duration": 0.968,
        "velocity": 0.71,
        "hand": "left"
      },
      {
        "midi": 62,
        "time": 0,
        "duration": 0.968,
        "velocity": 0.71,
        "hand": "right"
      },
      {
        "midi": 67,
        "time": 0,
        "duration": 0.968,
        "velocity": 0.54,
        "hand": "right"
      },
      {
        "midi": 71,
        "time": 0,
        "duration": 0.968,
        "velocity": 0.54,
        "hand": "right"
      },
      {
        "midi": 55,
        "time": 0.968,
        "duration": 1.452,
        "velocity": 0.71,
        "hand": "left"
      },
      {
        "midi": 62,
        "time": 0.968,
        "duration": 1.452,
        "velocity": 0.71,
        "hand": "right"
      },
      {
        "midi": 67,
        "time": 0.968,
        "duration": 1.452,
        "velocity": 0.54,
        "hand": "right"
      },
      {
        "midi": 71,
        "time": 0.968,
        "duration": 1.452,
        "velocity": 0.54,
        "hand": "right"
      },
      {
        "midi": 50,
        "time": 2.419,
        "duration": 0.484,
        "velocity": 0.71,
        "hand": "left"
      },
      {
        "midi": 62,
        "time": 2.419,
        "duration": 0.484,
        "velocity": 0.71,
        "hand": "right"
      },
      {
        "midi": 66,
        "time": 2.419,
        "duration": 0.484,
        "velocity": 0.54,
        "hand": "right"
      },
      {
        "midi": 69,
        "time": 2.419,
        "duration": 0.484,
        "velocity": 0.54,
        "hand": "right"
      },
      {
        "midi": 52,
        "time": 2.903,
        "duration": 0.968,
        "velocity": 0.71,
        "hand": "left"
      },
      {
        "midi": 60,
        "time": 2.903,
        "duration": 0.968,
        "velocity": 0.71,
        "hand": "right"
      },
      {
        "midi": 67,
        "time": 2.903,
        "duration": 0.968,
        "velocity": 0.54,
        "hand": "right"
      },
      {
        "midi": 72,
        "time": 2.903,
        "duration": 0.968,
        "velocity": 0.54,
        "hand": "right"
      },
      {
        "midi": 55,
        "time": 3.871,
        "duration": 1.935,
        "velocity": 0.71,
        "hand": "left"
      },
      {
        "midi": 62,
        "time": 3.871,
        "duration": 1.935,
        "velocity": 0.71,
        "hand": "right"
      },
      {
        "midi": 67,
        "time": 3.871,
        "duration": 1.935,
        "velocity": 0.54,
        "hand": "right"
      },
      {
        "midi": 71,
        "time": 3.871,
        "duration": 1.935,
        "velocity": 0.54,
        "hand": "right"
      },
      {
        "midi": 50,
        "time": 5.806,
        "duration": 0.968,
        "velocity": 0.71,
        "hand": "left"
      },
      {
        "midi": 62,
        "time": 5.806,
        "duration": 0.968,
        "velocity": 0.71,
        "hand": "right"
      },
      {
        "midi": 66,
        "time": 5.806,
        "duration": 0.968,
        "velocity": 0.54,
        "hand": "right"
      },
      {
        "midi": 69,
        "time": 5.806,
        "duration": 0.968,
        "velocity": 0.54,
        "hand": "right"
      },
      {
        "midi": 52,
        "time": 6.774,
        "duration": 0.968,
        "velocity": 0.71,
        "hand": "left"
      },
      {
        "midi": 59,
        "time": 6.774,
        "duration": 0.968,
        "velocity": 0.71,
        "hand": "left"
      },
      {
        "midi": 64,
        "time": 6.774,
        "duration": 0.968,
        "velocity": 0.62,
        "hand": "right"
      },
      {
        "midi": 67,
        "time": 6.774,
        "duration": 0.968,
        "velocity": 0.62,
        "hand": "right"
      },
      {
        "midi": 48,
        "time": 7.742,
        "duration": 0.968,
        "velocity": 0.71,
        "hand": "left"
      },
      {
        "midi": 52,
        "time": 7.742,
        "duration": 0.968,
        "velocity": 0.71,
        "hand": "left"
      },
      {
        "midi": 64,
        "time": 7.742,
        "duration": 0.968,
        "velocity": 0.69,
        "hand": "right"
      },
      {
        "midi": 69,
        "time": 7.742,
        "duration": 0.968,
        "velocity": 0.69,
        "hand": "right"
      },
      {
        "midi": 47,
        "time": 8.71,
        "duration": 2.903,
        "velocity": 0.71,
        "hand": "left"
      },
      {
        "midi": 54,
        "time": 8.71,
        "duration": 2.903,
        "velocity": 0.71,
        "hand": "left"
      },
      {
        "midi": 63,
        "time": 8.71,
        "duration": 2.903,
        "velocity": 0.77,
        "hand": "right"
      },
      {
        "midi": 71,
        "time": 8.71,
        "duration": 2.903,
        "velocity": 0.77,
        "hand": "right"
      },
      {
        "midi": 44,
        "time": 11.613,
        "duration": 0.968,
        "velocity": 0.71,
        "hand": "left"
      },
      {
        "midi": 52,
        "time": 11.613,
        "duration": 0.968,
        "velocity": 0.71,
        "hand": "left"
      },
      {
        "midi": 62,
        "time": 11.613,
        "duration": 0.968,
        "velocity": 0.71,
        "hand": "right"
      },
      {
        "midi": 71,
        "time": 11.613,
        "duration": 0.968,
        "velocity": 0.61,
        "hand": "right"
      },
      {
        "midi": 45,
        "time": 12.581,
        "duration": 0.968,
        "velocity": 0.71,
        "hand": "left"
      },
      {
        "midi": 52,
        "time": 12.581,
        "duration": 1.935,
        "velocity": 0.71,
        "hand": "left"
      },
      {
        "midi": 61,
        "time": 12.581,
        "duration": 1.935,
        "velocity": 0.71,
        "hand": "right"
      },
      {
        "midi": 64,
        "time": 12.581,
        "duration": 1.452,
        "velocity": 0.52,
        "hand": "right"
      },
      {
        "midi": 43,
        "time": 13.548,
        "duration": 0.968,
        "velocity": 0.71,
        "hand": "left"
      },
      {
        "midi": 69,
        "time": 14.032,
        "duration": 0.484,
        "velocity": 0.38,
        "hand": "right"
      },
      {
        "midi": 42,
        "time": 14.516,
        "duration": 0.968,
        "velocity": 0.71,
        "hand": "left"
      },
      {
        "midi": 50,
        "time": 14.516,
        "duration": 0.968,
        "velocity": 0.71,
        "hand": "left"
      },
      {
        "midi": 60,
        "time": 14.516,
        "duration": 0.968,
        "velocity": 0.71,
        "hand": "right"
      },
      {
        "midi": 69,
        "time": 14.516,
        "duration": 0.968,
        "velocity": 0.38,
        "hand": "right"
      },
      {
        "midi": 43,
        "time": 15.484,
        "duration": 0.968,
        "velocity": 0.71,
        "hand": "left"
      },
      {
        "midi": 50,
        "time": 15.484,
        "duration": 1.935,
        "velocity": 0.71,
        "hand": "left"
      },
      {
        "midi": 59,
        "time": 15.484,
        "duration": 0.968,
        "velocity": 0.71,
        "hand": "left"
      },
      {
        "midi": 62,
        "time": 15.484,
        "duration": 1.452,
        "velocity": 0.42,
        "hand": "right"
      },
      {
        "midi": 45,
        "time": 16.452,
        "duration": 0.968,
        "velocity": 0.71,
        "hand": "left"
      },
      {
        "midi": 60,
        "time": 16.452,
        "duration": 0.968,
        "velocity": 0.71,
        "hand": "right"
      },
      {
        "midi": 66,
        "time": 16.935,
        "duration": 0.484,
        "velocity": 0.48,
        "hand": "right"
      },
      {
        "midi": 47,
        "time": 17.419,
        "duration": 0.968,
        "velocity": 0.71,
        "hand": "left"
      },
      {
        "midi": 55,
        "time": 17.419,
        "duration": 0.968,
        "velocity": 0.71,
        "hand": "left"
      },
      {
        "midi": 62,
        "time": 17.419,
        "duration": 0.968,
        "velocity": 0.71,
        "hand": "right"
      },
      {
        "midi": 67,
        "time": 17.419,
        "duration": 0.968,
        "velocity": 0.5,
        "hand": "right"
      },
      {
        "midi": 48,
        "time": 18.387,
        "duration": 0.968,
        "velocity": 0.71,
        "hand": "left"
      },
      {
        "midi": 55,
        "time": 18.387,
        "duration": 0.968,
        "velocity": 0.71,
        "hand": "left"
      },
      {
        "midi": 64,
        "time": 18.387,
        "duration": 0.968,
        "velocity": 0.71,
        "hand": "right"
      },
      {
        "midi": 67,
        "time": 18.387,
        "duration": 0.968,
        "velocity": 0.54,
        "hand": "right"
      },
      {
        "midi": 49,
        "time": 19.355,
        "duration": 0.968,
        "velocity": 0.71,
        "hand": "left"
      },
      {
        "midi": 57,
        "time": 19.355,
        "duration": 0.968,
        "velocity": 0.71,
        "hand": "left"
      },
      {
        "midi": 67,
        "time": 19.355,
        "duration": 0.968,
        "velocity": 0.71,
        "hand": "right"
      },
      {
        "midi": 76,
        "time": 19.355,
        "duration": 0.726,
        "velocity": 0.57,
        "hand": "right"
      },
      {
        "midi": 69,
        "time": 20.081,
        "duration": 0.242,
        "velocity": 0.61,
        "hand": "right"
      },
      {
        "midi": 50,
        "time": 20.323,
        "duration": 2.903,
        "velocity": 0.71,
        "hand": "left"
      },
      {
        "midi": 57,
        "time": 20.323,
        "duration": 1.935,
        "velocity": 0.71,
        "hand": "left"
      },
      {
        "midi": 67,
        "time": 20.323,
        "duration": 0.968,
        "velocity": 0.71,
        "hand": "right"
      },
      {
        "midi": 69,
        "time": 20.323,
        "duration": 2.903,
        "velocity": 0.68,
        "hand": "right"
      },
      {
        "midi": 66,
        "time": 21.29,
        "duration": 0.484,
        "velocity": 0.71,
        "hand": "right"
      },
      {
        "midi": 64,
        "time": 21.774,
        "duration": 0.484,
        "velocity": 0.59,
        "hand": "right"
      },
      {
        "midi": 62,
        "time": 22.258,
        "duration": 0.968,
        "velocity": 0.71,
        "hand": "right"
      },
      {
        "midi": 66,
        "time": 22.258,
        "duration": 0.968,
        "velocity": 0.48,
        "hand": "right"
      },
      {
        "midi": 55,
        "time": 23.226,
        "duration": 0.968,
        "velocity": 0.71,
        "hand": "left"
      },
      {
        "midi": 62,
        "time": 23.226,
        "duration": 0.968,
        "velocity": 0.71,
        "hand": "right"
      },
      {
        "midi": 67,
        "time": 23.226,
        "duration": 0.968,
        "velocity": 0.54,
        "hand": "right"
      },
      {
        "midi": 71,
        "time": 23.226,
        "duration": 0.968,
        "velocity": 0.54,
        "hand": "right"
      },
      {
        "midi": 55,
        "time": 24.194,
        "duration": 1.452,
        "velocity": 0.71,
        "hand": "left"
      },
      {
        "midi": 62,
        "time": 24.194,
        "duration": 1.452,
        "velocity": 0.71,
        "hand": "right"
      },
      {
        "midi": 67,
        "time": 24.194,
        "duration": 1.452,
        "velocity": 0.54,
        "hand": "right"
      },
      {
        "midi": 71,
        "time": 24.194,
        "duration": 1.452,
        "velocity": 0.54,
        "hand": "right"
      },
      {
        "midi": 50,
        "time": 25.645,
        "duration": 0.484,
        "velocity": 0.71,
        "hand": "left"
      },
      {
        "midi": 62,
        "time": 25.645,
        "duration": 0.484,
        "velocity": 0.71,
        "hand": "right"
      },
      {
        "midi": 66,
        "time": 25.645,
        "duration": 0.484,
        "velocity": 0.54,
        "hand": "right"
      },
      {
        "midi": 69,
        "time": 25.645,
        "duration": 0.484,
        "velocity": 0.54,
        "hand": "right"
      },
      {
        "midi": 52,
        "time": 26.129,
        "duration": 0.968,
        "velocity": 0.71,
        "hand": "left"
      },
      {
        "midi": 60,
        "time": 26.129,
        "duration": 0.968,
        "velocity": 0.71,
        "hand": "right"
      },
      {
        "midi": 67,
        "time": 26.129,
        "duration": 0.968,
        "velocity": 0.54,
        "hand": "right"
      },
      {
        "midi": 72,
        "time": 26.129,
        "duration": 0.968,
        "velocity": 0.54,
        "hand": "right"
      },
      {
        "midi": 55,
        "time": 27.097,
        "duration": 0.968,
        "velocity": 0.71,
        "hand": "left"
      },
      {
        "midi": 62,
        "time": 27.097,
        "duration": 0.968,
        "velocity": 0.71,
        "hand": "right"
      },
      {
        "midi": 67,
        "time": 27.097,
        "duration": 1.452,
        "velocity": 0.59,
        "hand": "right"
      },
      {
        "midi": 71,
        "time": 27.097,
        "duration": 1.452,
        "velocity": 0.59,
        "hand": "right"
      },
      {
        "midi": 65,
        "time": 28.065,
        "duration": 0.968,
        "velocity": 0.71,
        "hand": "right"
      },
      {
        "midi": 67,
        "time": 28.548,
        "duration": 0.484,
        "velocity": 0.66,
        "hand": "right"
      },
      {
        "midi": 71,
        "time": 28.548,
        "duration": 0.484,
        "velocity": 0.66,
        "hand": "right"
      },
      {
        "midi": 64,
        "time": 29.032,
        "duration": 0.968,
        "velocity": 0.71,
        "hand": "right"
      },
      {
        "midi": 67,
        "time": 29.032,
        "duration": 0.968,
        "velocity": 0.68,
        "hand": "right"
      },
      {
        "midi": 72,
        "time": 29.032,
        "duration": 0.968,
        "velocity": 0.68,
        "hand": "right"
      },
      {
        "midi": 62,
        "time": 30,
        "duration": 0.968,
        "velocity": 0.71,
        "hand": "right"
      },
      {
        "midi": 67,
        "time": 30,
        "duration": 0.968,
        "velocity": 0.72,
        "hand": "right"
      },
      {
        "midi": 71,
        "time": 30,
        "duration": 0.968,
        "velocity": 0.72,
        "hand": "right"
      },
      {
        "midi": 74,
        "time": 30,
        "duration": 0.968,
        "velocity": 0.72,
        "hand": "right"
      },
      {
        "midi": 60,
        "time": 30.968,
        "duration": 0.484,
        "velocity": 0.71,
        "hand": "right"
      },
      {
        "midi": 67,
        "time": 30.968,
        "duration": 0.968,
        "velocity": 0.77,
        "hand": "right"
      },
      {
        "midi": 72,
        "time": 30.968,
        "duration": 0.968,
        "velocity": 0.77,
        "hand": "right"
      },
      {
        "midi": 76,
        "time": 30.968,
        "duration": 0.968,
        "velocity": 0.77,
        "hand": "right"
      },
      {
        "midi": 59,
        "time": 31.452,
        "duration": 0.484,
        "velocity": 0.71,
        "hand": "left"
      },
      {
        "midi": 58,
        "time": 31.935,
        "duration": 2.903,
        "velocity": 0.71,
        "hand": "left"
      },
      {
        "midi": 66,
        "time": 31.935,
        "duration": 2.903,
        "velocity": 0.71,
        "hand": "right"
      },
      {
        "midi": 73,
        "time": 31.935,
        "duration": 2.903,
        "velocity": 0.71,
        "hand": "right"
      },
      {
        "midi": 78,
        "time": 31.935,
        "duration": 1.935,
        "velocity": 0.75,
        "hand": "right"
      },
      {
        "midi": 78,
        "time": 33.871,
        "duration": 0.968,
        "velocity": 0.75,
        "hand": "right"
      },
      {
        "midi": 57,
        "time": 34.839,
        "duration": 0.968,
        "velocity": 0.71,
        "hand": "left"
      },
      {
        "midi": 66,
        "time": 34.839,
        "duration": 0.968,
        "velocity": 0.71,
        "hand": "right"
      },
      {
        "midi": 71,
        "time": 34.839,
        "duration": 0.968,
        "velocity": 0.71,
        "hand": "right"
      },
      {
        "midi": 75,
        "time": 34.839,
        "duration": 0.968,
        "velocity": 0.75,
        "hand": "right"
      },
      {
        "midi": 56,
        "time": 35.806,
        "duration": 0.968,
        "velocity": 0.71,
        "hand": "left"
      },
      {
        "midi": 64,
        "time": 35.806,
        "duration": 1.935,
        "velocity": 0.71,
        "hand": "right"
      },
      {
        "midi": 71,
        "time": 35.806,
        "duration": 0.968,
        "velocity": 0.71,
        "hand": "right"
      },
      {
        "midi": 76,
        "time": 35.806,
        "duration": 1.452,
        "velocity": 0.75,
        "hand": "right"
      },
      {
        "midi": 55,
        "time": 36.774,
        "duration": 0.968,
        "velocity": 0.71,
        "hand": "left"
      },
      {
        "midi": 69,
        "time": 36.774,
        "duration": 0.968,
        "velocity": 0.71,
        "hand": "right"
      },
      {
        "midi": 73,
        "time": 37.258,
        "duration": 0.484,
        "velocity": 0.7,
        "hand": "right"
      },
      {
        "midi": 54,
        "time": 37.742,
        "duration": 0.968,
        "velocity": 0.71,
        "hand": "left"
      },
      {
        "midi": 62,
        "time": 37.742,
        "duration": 0.968,
        "velocity": 0.71,
        "hand": "right"
      },
      {
        "midi": 69,
        "time": 37.742,
        "duration": 0.968,
        "velocity": 0.71,
        "hand": "right"
      },
      {
        "midi": 74,
        "time": 37.742,
        "duration": 0.968,
        "velocity": 0.69,
        "hand": "right"
      },
      {
        "midi": 55,
        "time": 38.71,
        "duration": 0.968,
        "velocity": 0.71,
        "hand": "left"
      },
      {
        "midi": 62,
        "time": 38.71,
        "duration": 0.968,
        "velocity": 0.71,
        "hand": "right"
      },
      {
        "midi": 67,
        "time": 38.71,
        "duration": 0.968,
        "velocity": 0.71,
        "hand": "right"
      },
      {
        "midi": 71,
        "time": 38.71,
        "duration": 0.968,
        "velocity": 0.66,
        "hand": "right"
      },
      {
        "midi": 52,
        "time": 39.677,
        "duration": 0.968,
        "velocity": 0.71,
        "hand": "left"
      },
      {
        "midi": 60,
        "time": 39.677,
        "duration": 0.968,
        "velocity": 0.71,
        "hand": "right"
      },
      {
        "midi": 67,
        "time": 39.677,
        "duration": 0.968,
        "velocity": 0.71,
        "hand": "right"
      },
      {
        "midi": 72,
        "time": 39.677,
        "duration": 0.968,
        "velocity": 0.63,
        "hand": "right"
      },
      {
        "midi": 48,
        "time": 40.645,
        "duration": 1.935,
        "velocity": 0.71,
        "hand": "left"
      },
      {
        "midi": 55,
        "time": 40.645,
        "duration": 1.935,
        "velocity": 0.71,
        "hand": "left"
      },
      {
        "midi": 64,
        "time": 40.645,
        "duration": 1.935,
        "velocity": 0.71,
        "hand": "right"
      },
      {
        "midi": 71,
        "time": 40.645,
        "duration": 0.726,
        "velocity": 0.61,
        "hand": "right"
      },
      {
        "midi": 69,
        "time": 41.371,
        "duration": 0.242,
        "velocity": 0.58,
        "hand": "right"
      },
      {
        "midi": 69,
        "time": 41.613,
        "duration": 0.968,
        "velocity": 0.57,
        "hand": "right"
      },
      {
        "midi": 50,
        "time": 42.581,
        "duration": 1.935,
        "velocity": 0.71,
        "hand": "left"
      },
      {
        "midi": 62,
        "time": 42.581,
        "duration": 0.484,
        "velocity": 0.71,
        "hand": "right"
      },
      {
        "midi": 66,
        "time": 42.581,
        "duration": 0.968,
        "velocity": 0.55,
        "hand": "right"
      },
      {
        "midi": 60,
        "time": 43.065,
        "duration": 0.484,
        "velocity": 0.71,
        "hand": "right"
      },
      {
        "midi": 43,
        "time": 43.548,
        "duration": 0.484,
        "velocity": 0.71,
        "hand": "left"
      },
      {
        "midi": 59,
        "time": 43.548,
        "duration": 0.968,
        "velocity": 0.71,
        "hand": "left"
      },
      {
        "midi": 67,
        "time": 43.548,
        "duration": 0.968,
        "velocity": 0.52,
        "hand": "right"
      },
      {
        "midi": 43,
        "time": 44.032,
        "duration": 0.484,
        "velocity": 0.71,
        "hand": "left"
      },
      {
        "midi": 43,
        "time": 44.516,
        "duration": 0.484,
        "velocity": 0.71,
        "hand": "left"
      },
      {
        "midi": 43,
        "time": 45,
        "duration": 0.484,
        "velocity": 0.71,
        "hand": "left"
      },
      {
        "midi": 43,
        "time": 45.484,
        "duration": 0.484,
        "velocity": 0.71,
        "hand": "left"
      },
      {
        "midi": 50,
        "time": 45.484,
        "duration": 0.968,
        "velocity": 0.71,
        "hand": "left"
      },
      {
        "midi": 71,
        "time": 45.484,
        "duration": 0.968,
        "velocity": 0.75,
        "hand": "right"
      },
      {
        "midi": 79,
        "time": 45.484,
        "duration": 0.968,
        "velocity": 0.52,
        "hand": "right"
      },
      {
        "midi": 43,
        "time": 45.968,
        "duration": 0.484,
        "velocity": 0.71,
        "hand": "left"
      },
      {
        "midi": 43,
        "time": 46.452,
        "duration": 0.484,
        "velocity": 0.71,
        "hand": "left"
      },
      {
        "midi": 51,
        "time": 46.452,
        "duration": 2.903,
        "velocity": 0.71,
        "hand": "left"
      },
      {
        "midi": 72,
        "time": 46.452,
        "duration": 0.726,
        "velocity": 0.75,
        "hand": "right"
      },
      {
        "midi": 78,
        "time": 46.452,
        "duration": 0.726,
        "velocity": 0.52,
        "hand": "right"
      },
      {
        "midi": 43,
        "time": 46.935,
        "duration": 0.484,
        "velocity": 0.71,
        "hand": "left"
      },
      {
        "midi": 72,
        "time": 47.177,
        "duration": 0.242,
        "velocity": 0.52,
        "hand": "right"
      },
      {
        "midi": 43,
        "time": 47.419,
        "duration": 0.484,
        "velocity": 0.71,
        "hand": "left"
      },
      {
        "midi": 72,
        "time": 47.419,
        "duration": 0.968,
        "velocity": 0.52,
        "hand": "right"
      },
      {
        "midi": 43,
        "time": 47.903,
        "duration": 0.484,
        "velocity": 0.71,
        "hand": "left"
      },
      {
        "midi": 43,
        "time": 48.387,
        "duration": 0.484,
        "velocity": 0.71,
        "hand": "left"
      },
      {
        "midi": 66,
        "time": 48.387,
        "duration": 0.968,
        "velocity": 0.75,
        "hand": "right"
      },
      {
        "midi": 71,
        "time": 48.387,
        "duration": 0.484,
        "velocity": 0.52,
        "hand": "right"
      },
      {
        "midi": 43,
        "time": 48.871,
        "duration": 0.484,
        "velocity": 0.71,
        "hand": "left"
      },
      {
        "midi": 69,
        "time": 48.871,
        "duration": 0.484,
        "velocity": 0.52,
        "hand": "right"
      },
      {
        "midi": 43,
        "time": 49.355,
        "duration": 0.484,
        "velocity": 0.71,
        "hand": "left"
      },
      {
        "midi": 50,
        "time": 49.355,
        "duration": 0.968,
        "velocity": 0.48,
        "hand": "left"
      },
      {
        "midi": 67,
        "time": 49.355,
        "duration": 0.968,
        "velocity": 0.75,
        "hand": "right"
      },
      {
        "midi": 71,
        "time": 49.355,
        "duration": 0.968,
        "velocity": 0.52,
        "hand": "right"
      },
      {
        "midi": 43,
        "time": 49.839,
        "duration": 0.484,
        "velocity": 0.71,
        "hand": "left"
      },
      {
        "midi": 43,
        "time": 50.323,
        "duration": 0.484,
        "velocity": 0.71,
        "hand": "left"
      },
      {
        "midi": 43,
        "time": 50.806,
        "duration": 0.484,
        "velocity": 0.71,
        "hand": "left"
      },
      {
        "midi": 43,
        "time": 51.29,
        "duration": 0.484,
        "velocity": 0.71,
        "hand": "left"
      },
      {
        "midi": 50,
        "time": 51.29,
        "duration": 0.968,
        "velocity": 0.48,
        "hand": "left"
      },
      {
        "midi": 59,
        "time": 51.29,
        "duration": 0.968,
        "velocity": 0.68,
        "hand": "left"
      },
      {
        "midi": 67,
        "time": 51.29,
        "duration": 0.968,
        "velocity": 0.52,
        "hand": "right"
      },
      {
        "midi": 43,
        "time": 51.774,
        "duration": 0.484,
        "velocity": 0.71,
        "hand": "left"
      },
      {
        "midi": 43,
        "time": 52.258,
        "duration": 0.484,
        "velocity": 0.71,
        "hand": "left"
      },
      {
        "midi": 51,
        "time": 52.258,
        "duration": 2.903,
        "velocity": 0.48,
        "hand": "left"
      },
      {
        "midi": 60,
        "time": 52.258,
        "duration": 0.726,
        "velocity": 0.68,
        "hand": "right"
      },
      {
        "midi": 66,
        "time": 52.258,
        "duration": 0.726,
        "velocity": 0.52,
        "hand": "right"
      },
      {
        "midi": 43,
        "time": 52.742,
        "duration": 0.484,
        "velocity": 0.71,
        "hand": "left"
      },
      {
        "midi": 60,
        "time": 52.984,
        "duration": 0.242,
        "velocity": 0.52,
        "hand": "right"
      },
      {
        "midi": 43,
        "time": 53.226,
        "duration": 0.484,
        "velocity": 0.71,
        "hand": "left"
      },
      {
        "midi": 60,
        "time": 53.226,
        "duration": 0.968,
        "velocity": 0.52,
        "hand": "right"
      },
      {
        "midi": 43,
        "time": 53.71,
        "duration": 0.484,
        "velocity": 0.71,
        "hand": "left"
      },
      {
        "midi": 43,
        "time": 54.194,
        "duration": 0.484,
        "velocity": 0.71,
        "hand": "left"
      },
      {
        "midi": 54,
        "time": 54.194,
        "duration": 0.968,
        "velocity": 0.68,
        "hand": "left"
      },
      {
        "midi": 59,
        "time": 54.194,
        "duration": 0.484,
        "velocity": 0.52,
        "hand": "left"
      },
      {
        "midi": 43,
        "time": 54.677,
        "duration": 0.484,
        "velocity": 0.71,
        "hand": "left"
      },
      {
        "midi": 57,
        "time": 54.677,
        "duration": 0.484,
        "velocity": 0.52,
        "hand": "left"
      },
      {
        "midi": 43,
        "time": 55.161,
        "duration": 0.484,
        "velocity": 0.71,
        "hand": "left"
      },
      {
        "midi": 50,
        "time": 55.161,
        "duration": 0.968,
        "velocity": 0.48,
        "hand": "left"
      },
      {
        "midi": 55,
        "time": 55.161,
        "duration": 0.968,
        "velocity": 0.77,
        "hand": "left"
      },
      {
        "midi": 59,
        "time": 55.161,
        "duration": 0.968,
        "velocity": 0.77,
        "hand": "left"
      },
      {
        "midi": 43,
        "time": 55.645,
        "duration": 0.484,
        "velocity": 0.71,
        "hand": "left"
      },
      {
        "midi": 43,
        "time": 56.129,
        "duration": 0.484,
        "velocity": 0.71,
        "hand": "left"
      },
      {
        "midi": 48,
        "time": 56.129,
        "duration": 0.968,
        "velocity": 0.48,
        "hand": "left"
      },
      {
        "midi": 55,
        "time": 56.129,
        "duration": 0.968,
        "velocity": 0.77,
        "hand": "left"
      },
      {
        "midi": 64,
        "time": 56.129,
        "duration": 0.968,
        "velocity": 0.77,
        "hand": "right"
      },
      {
        "midi": 43,
        "time": 56.613,
        "duration": 0.484,
        "velocity": 0.71,
        "hand": "left"
      },
      {
        "midi": 43,
        "time": 57.097,
        "duration": 0.484,
        "velocity": 0.71,
        "hand": "left"
      },
      {
        "midi": 47,
        "time": 57.097,
        "duration": 0.968,
        "velocity": 0.48,
        "hand": "left"
      },
      {
        "midi": 55,
        "time": 57.097,
        "duration": 0.968,
        "velocity": 0.77,
        "hand": "left"
      },
      {
        "midi": 62,
        "time": 57.097,
        "duration": 0.968,
        "velocity": 0.77,
        "hand": "right"
      },
      {
        "midi": 43,
        "time": 57.581,
        "duration": 0.484,
        "velocity": 0.71,
        "hand": "left"
      },
      {
        "midi": 43,
        "time": 58.065,
        "duration": 0.484,
        "velocity": 0.71,
        "hand": "left"
      },
      {
        "midi": 46,
        "time": 58.065,
        "duration": 1.935,
        "velocity": 0.48,
        "hand": "left"
      },
      {
        "midi": 61,
        "time": 58.065,
        "duration": 1.935,
        "velocity": 0.74,
        "hand": "right"
      },
      {
        "midi": 64,
        "time": 58.065,
        "duration": 1.935,
        "velocity": 0.74,
        "hand": "right"
      },
      {
        "midi": 43,
        "time": 58.548,
        "duration": 0.484,
        "velocity": 0.71,
        "hand": "left"
      },
      {
        "midi": 43,
        "time": 59.032,
        "duration": 0.484,
        "velocity": 0.71,
        "hand": "left"
      },
      {
        "midi": 43,
        "time": 59.516,
        "duration": 0.484,
        "velocity": 0.71,
        "hand": "left"
      },
      {
        "midi": 43,
        "time": 60,
        "duration": 0.484,
        "velocity": 0.71,
        "hand": "left"
      },
      {
        "midi": 45,
        "time": 60,
        "duration": 0.968,
        "velocity": 0.48,
        "hand": "left"
      },
      {
        "midi": 60,
        "time": 60,
        "duration": 0.968,
        "velocity": 0.69,
        "hand": "right"
      },
      {
        "midi": 66,
        "time": 60,
        "duration": 0.968,
        "velocity": 0.69,
        "hand": "right"
      },
      {
        "midi": 43,
        "time": 60.484,
        "duration": 0.484,
        "velocity": 0.71,
        "hand": "left"
      },
      {
        "midi": 43,
        "time": 60.968,
        "duration": 2.903,
        "velocity": 0.71,
        "hand": "left"
      },
      {
        "midi": 59,
        "time": 60.968,
        "duration": 1.935,
        "velocity": 0.71,
        "hand": "left"
      },
      {
        "midi": 67,
        "time": 60.968,
        "duration": 1.935,
        "velocity": 0.71,
        "hand": "right"
      },
      {
        "midi": 50,
        "time": 61.935,
        "duration": 1.935,
        "velocity": 0.48,
        "hand": "left"
      },
      {
        "midi": 59,
        "time": 62.903,
        "duration": 0.968,
        "velocity": 0.71,
        "hand": "left"
      },
      {
        "midi": 43,
        "time": 63.871,
        "duration": 2.903,
        "velocity": 0.71,
        "hand": "left"
      },
      {
        "midi": 50,
        "time": 63.871,
        "duration": 2.903,
        "velocity": 0.48,
        "hand": "left"
      },
      {
        "midi": 59,
        "time": 63.871,
        "duration": 1.935,
        "velocity": 0.71,
        "hand": "left"
      },
      {
        "midi": 62,
        "time": 63.871,
        "duration": 1.935,
        "velocity": 0.71,
        "hand": "right"
      },
      {
        "midi": 67,
        "time": 64.839,
        "duration": 0.968,
        "velocity": 0.71,
        "hand": "right"
      },
      {
        "midi": 67,
        "time": 65.806,
        "duration": 0.968,
        "velocity": 0.71,
        "hand": "right"
      },
      {
        "midi": 71,
        "time": 65.806,
        "duration": 0.968,
        "velocity": 0.71,
        "hand": "right"
      },
      {
        "midi": 43,
        "time": 66.774,
        "duration": 2.903,
        "velocity": 0.71,
        "hand": "left"
      },
      {
        "midi": 50,
        "time": 66.774,
        "duration": 2.903,
        "velocity": 0.48,
        "hand": "left"
      },
      {
        "midi": 67,
        "time": 66.774,
        "duration": 2.903,
        "velocity": 0.49,
        "hand": "right"
      },
      {
        "midi": 71,
        "time": 66.774,
        "duration": 2.903,
        "velocity": 0.49,
        "hand": "right"
      },
      {
        "midi": 74,
        "time": 66.774,
        "duration": 2.903,
        "velocity": 0.49,
        "hand": "right"
      }
    ]
  },
  "notes1Hand": [
    {
      "midi": 71,
      "time": 0,
      "duration": 0.968,
      "velocity": 0.54,
      "hand": "right"
    },
    {
      "midi": 71,
      "time": 0.968,
      "duration": 1.452,
      "velocity": 0.54,
      "hand": "right"
    },
    {
      "midi": 69,
      "time": 2.419,
      "duration": 0.484,
      "velocity": 0.54,
      "hand": "right"
    },
    {
      "midi": 72,
      "time": 2.903,
      "duration": 0.968,
      "velocity": 0.54,
      "hand": "right"
    },
    {
      "midi": 71,
      "time": 3.871,
      "duration": 1.935,
      "velocity": 0.54,
      "hand": "right"
    },
    {
      "midi": 69,
      "time": 5.806,
      "duration": 0.968,
      "velocity": 0.54,
      "hand": "right"
    },
    {
      "midi": 67,
      "time": 6.774,
      "duration": 0.968,
      "velocity": 0.62,
      "hand": "right"
    },
    {
      "midi": 69,
      "time": 7.742,
      "duration": 0.968,
      "velocity": 0.69,
      "hand": "right"
    },
    {
      "midi": 71,
      "time": 8.71,
      "duration": 2.903,
      "velocity": 0.77,
      "hand": "right"
    },
    {
      "midi": 71,
      "time": 11.613,
      "duration": 0.968,
      "velocity": 0.61,
      "hand": "right"
    },
    {
      "midi": 64,
      "time": 12.581,
      "duration": 1.452,
      "velocity": 0.52,
      "hand": "right"
    },
    {
      "midi": 69,
      "time": 14.032,
      "duration": 0.484,
      "velocity": 0.38,
      "hand": "right"
    },
    {
      "midi": 62,
      "time": 15.484,
      "duration": 1.452,
      "velocity": 0.42,
      "hand": "right"
    },
    {
      "midi": 60,
      "time": 16.452,
      "duration": 0.968,
      "velocity": 0.71,
      "hand": "right"
    },
    {
      "midi": 67,
      "time": 17.419,
      "duration": 0.968,
      "velocity": 0.5,
      "hand": "right"
    },
    {
      "midi": 67,
      "time": 18.387,
      "duration": 0.968,
      "velocity": 0.54,
      "hand": "right"
    },
    {
      "midi": 76,
      "time": 19.355,
      "duration": 0.726,
      "velocity": 0.57,
      "hand": "right"
    },
    {
      "midi": 69,
      "time": 20.081,
      "duration": 0.484,
      "velocity": 0.61,
      "hand": "right"
    },
    {
      "midi": 66,
      "time": 21.29,
      "duration": 0.484,
      "velocity": 0.71,
      "hand": "right"
    },
    {
      "midi": 64,
      "time": 21.774,
      "duration": 0.484,
      "velocity": 0.59,
      "hand": "right"
    },
    {
      "midi": 66,
      "time": 22.258,
      "duration": 0.968,
      "velocity": 0.48,
      "hand": "right"
    },
    {
      "midi": 71,
      "time": 23.226,
      "duration": 0.968,
      "velocity": 0.54,
      "hand": "right"
    },
    {
      "midi": 71,
      "time": 24.194,
      "duration": 1.452,
      "velocity": 0.54,
      "hand": "right"
    },
    {
      "midi": 69,
      "time": 25.645,
      "duration": 0.484,
      "velocity": 0.54,
      "hand": "right"
    },
    {
      "midi": 72,
      "time": 26.129,
      "duration": 0.968,
      "velocity": 0.54,
      "hand": "right"
    },
    {
      "midi": 71,
      "time": 27.097,
      "duration": 1.452,
      "velocity": 0.59,
      "hand": "right"
    },
    {
      "midi": 65,
      "time": 28.065,
      "duration": 0.968,
      "velocity": 0.71,
      "hand": "right"
    },
    {
      "midi": 72,
      "time": 29.032,
      "duration": 0.968,
      "velocity": 0.68,
      "hand": "right"
    },
    {
      "midi": 74,
      "time": 30,
      "duration": 0.968,
      "velocity": 0.72,
      "hand": "right"
    },
    {
      "midi": 76,
      "time": 30.968,
      "duration": 0.968,
      "velocity": 0.77,
      "hand": "right"
    },
    {
      "midi": 78,
      "time": 31.935,
      "duration": 1.935,
      "velocity": 0.75,
      "hand": "right"
    },
    {
      "midi": 78,
      "time": 33.871,
      "duration": 0.968,
      "velocity": 0.75,
      "hand": "right"
    },
    {
      "midi": 75,
      "time": 34.839,
      "duration": 0.968,
      "velocity": 0.75,
      "hand": "right"
    },
    {
      "midi": 76,
      "time": 35.806,
      "duration": 1.452,
      "velocity": 0.75,
      "hand": "right"
    },
    {
      "midi": 69,
      "time": 36.774,
      "duration": 0.968,
      "velocity": 0.71,
      "hand": "right"
    },
    {
      "midi": 73,
      "time": 37.258,
      "duration": 0.484,
      "velocity": 0.7,
      "hand": "right"
    },
    {
      "midi": 74,
      "time": 37.742,
      "duration": 0.968,
      "velocity": 0.69,
      "hand": "right"
    },
    {
      "midi": 71,
      "time": 38.71,
      "duration": 0.968,
      "velocity": 0.66,
      "hand": "right"
    },
    {
      "midi": 72,
      "time": 39.677,
      "duration": 0.968,
      "velocity": 0.63,
      "hand": "right"
    },
    {
      "midi": 71,
      "time": 40.645,
      "duration": 0.726,
      "velocity": 0.61,
      "hand": "right"
    },
    {
      "midi": 69,
      "time": 41.371,
      "duration": 0.484,
      "velocity": 0.58,
      "hand": "right"
    },
    {
      "midi": 66,
      "time": 42.581,
      "duration": 0.968,
      "velocity": 0.55,
      "hand": "right"
    },
    {
      "midi": 60,
      "time": 43.065,
      "duration": 0.484,
      "velocity": 0.71,
      "hand": "right"
    },
    {
      "midi": 79,
      "time": 45.484,
      "duration": 0.968,
      "velocity": 0.52,
      "hand": "right"
    },
    {
      "midi": 78,
      "time": 46.452,
      "duration": 0.726,
      "velocity": 0.52,
      "hand": "right"
    },
    {
      "midi": 72,
      "time": 47.177,
      "duration": 0.484,
      "velocity": 0.52,
      "hand": "right"
    },
    {
      "midi": 71,
      "time": 48.387,
      "duration": 0.484,
      "velocity": 0.52,
      "hand": "right"
    },
    {
      "midi": 69,
      "time": 48.871,
      "duration": 0.484,
      "velocity": 0.52,
      "hand": "right"
    },
    {
      "midi": 71,
      "time": 49.355,
      "duration": 0.968,
      "velocity": 0.52,
      "hand": "right"
    },
    {
      "midi": 67,
      "time": 51.29,
      "duration": 0.968,
      "velocity": 0.52,
      "hand": "right"
    },
    {
      "midi": 66,
      "time": 52.258,
      "duration": 0.726,
      "velocity": 0.52,
      "hand": "right"
    },
    {
      "midi": 60,
      "time": 52.984,
      "duration": 0.484,
      "velocity": 0.52,
      "hand": "right"
    },
    {
      "midi": 64,
      "time": 56.129,
      "duration": 0.968,
      "velocity": 0.77,
      "hand": "right"
    },
    {
      "midi": 62,
      "time": 57.097,
      "duration": 0.968,
      "velocity": 0.77,
      "hand": "right"
    },
    {
      "midi": 64,
      "time": 58.065,
      "duration": 1.935,
      "velocity": 0.74,
      "hand": "right"
    },
    {
      "midi": 66,
      "time": 60,
      "duration": 0.968,
      "velocity": 0.69,
      "hand": "right"
    },
    {
      "midi": 67,
      "time": 60.968,
      "duration": 1.935,
      "velocity": 0.71,
      "hand": "right"
    },
    {
      "midi": 62,
      "time": 63.871,
      "duration": 1.935,
      "velocity": 0.71,
      "hand": "right"
    },
    {
      "midi": 67,
      "time": 64.839,
      "duration": 0.968,
      "velocity": 0.71,
      "hand": "right"
    },
    {
      "midi": 71,
      "time": 65.806,
      "duration": 0.968,
      "velocity": 0.71,
      "hand": "right"
    },
    {
      "midi": 74,
      "time": 66.774,
      "duration": 2.903,
      "velocity": 0.49,
      "hand": "right"
    }
  ],
  "notes2Hands": [
    {
      "midi": 55,
      "time": 0,
      "duration": 0.968,
      "velocity": 0.71,
      "hand": "left"
    },
    {
      "midi": 62,
      "time": 0,
      "duration": 0.968,
      "velocity": 0.71,
      "hand": "right"
    },
    {
      "midi": 67,
      "time": 0,
      "duration": 0.968,
      "velocity": 0.54,
      "hand": "right"
    },
    {
      "midi": 71,
      "time": 0,
      "duration": 0.968,
      "velocity": 0.54,
      "hand": "right"
    },
    {
      "midi": 55,
      "time": 0.968,
      "duration": 1.452,
      "velocity": 0.71,
      "hand": "left"
    },
    {
      "midi": 62,
      "time": 0.968,
      "duration": 1.452,
      "velocity": 0.71,
      "hand": "right"
    },
    {
      "midi": 67,
      "time": 0.968,
      "duration": 1.452,
      "velocity": 0.54,
      "hand": "right"
    },
    {
      "midi": 71,
      "time": 0.968,
      "duration": 1.452,
      "velocity": 0.54,
      "hand": "right"
    },
    {
      "midi": 50,
      "time": 2.419,
      "duration": 0.484,
      "velocity": 0.71,
      "hand": "left"
    },
    {
      "midi": 62,
      "time": 2.419,
      "duration": 0.484,
      "velocity": 0.71,
      "hand": "right"
    },
    {
      "midi": 66,
      "time": 2.419,
      "duration": 0.484,
      "velocity": 0.54,
      "hand": "right"
    },
    {
      "midi": 69,
      "time": 2.419,
      "duration": 0.484,
      "velocity": 0.54,
      "hand": "right"
    },
    {
      "midi": 52,
      "time": 2.903,
      "duration": 0.968,
      "velocity": 0.71,
      "hand": "left"
    },
    {
      "midi": 60,
      "time": 2.903,
      "duration": 0.968,
      "velocity": 0.71,
      "hand": "right"
    },
    {
      "midi": 67,
      "time": 2.903,
      "duration": 0.968,
      "velocity": 0.54,
      "hand": "right"
    },
    {
      "midi": 72,
      "time": 2.903,
      "duration": 0.968,
      "velocity": 0.54,
      "hand": "right"
    },
    {
      "midi": 55,
      "time": 3.871,
      "duration": 1.935,
      "velocity": 0.71,
      "hand": "left"
    },
    {
      "midi": 62,
      "time": 3.871,
      "duration": 1.935,
      "velocity": 0.71,
      "hand": "right"
    },
    {
      "midi": 67,
      "time": 3.871,
      "duration": 1.935,
      "velocity": 0.54,
      "hand": "right"
    },
    {
      "midi": 71,
      "time": 3.871,
      "duration": 1.935,
      "velocity": 0.54,
      "hand": "right"
    },
    {
      "midi": 50,
      "time": 5.806,
      "duration": 0.968,
      "velocity": 0.71,
      "hand": "left"
    },
    {
      "midi": 62,
      "time": 5.806,
      "duration": 0.968,
      "velocity": 0.71,
      "hand": "right"
    },
    {
      "midi": 66,
      "time": 5.806,
      "duration": 0.968,
      "velocity": 0.54,
      "hand": "right"
    },
    {
      "midi": 69,
      "time": 5.806,
      "duration": 0.968,
      "velocity": 0.54,
      "hand": "right"
    },
    {
      "midi": 52,
      "time": 6.774,
      "duration": 0.968,
      "velocity": 0.71,
      "hand": "left"
    },
    {
      "midi": 59,
      "time": 6.774,
      "duration": 0.968,
      "velocity": 0.71,
      "hand": "left"
    },
    {
      "midi": 64,
      "time": 6.774,
      "duration": 0.968,
      "velocity": 0.62,
      "hand": "right"
    },
    {
      "midi": 67,
      "time": 6.774,
      "duration": 0.968,
      "velocity": 0.62,
      "hand": "right"
    },
    {
      "midi": 48,
      "time": 7.742,
      "duration": 0.968,
      "velocity": 0.71,
      "hand": "left"
    },
    {
      "midi": 52,
      "time": 7.742,
      "duration": 0.968,
      "velocity": 0.71,
      "hand": "left"
    },
    {
      "midi": 64,
      "time": 7.742,
      "duration": 0.968,
      "velocity": 0.69,
      "hand": "right"
    },
    {
      "midi": 69,
      "time": 7.742,
      "duration": 0.968,
      "velocity": 0.69,
      "hand": "right"
    },
    {
      "midi": 47,
      "time": 8.71,
      "duration": 2.903,
      "velocity": 0.71,
      "hand": "left"
    },
    {
      "midi": 54,
      "time": 8.71,
      "duration": 2.903,
      "velocity": 0.71,
      "hand": "left"
    },
    {
      "midi": 63,
      "time": 8.71,
      "duration": 2.903,
      "velocity": 0.77,
      "hand": "right"
    },
    {
      "midi": 71,
      "time": 8.71,
      "duration": 2.903,
      "velocity": 0.77,
      "hand": "right"
    },
    {
      "midi": 44,
      "time": 11.613,
      "duration": 0.968,
      "velocity": 0.71,
      "hand": "left"
    },
    {
      "midi": 52,
      "time": 11.613,
      "duration": 0.968,
      "velocity": 0.71,
      "hand": "left"
    },
    {
      "midi": 62,
      "time": 11.613,
      "duration": 0.968,
      "velocity": 0.71,
      "hand": "right"
    },
    {
      "midi": 71,
      "time": 11.613,
      "duration": 0.968,
      "velocity": 0.61,
      "hand": "right"
    },
    {
      "midi": 45,
      "time": 12.581,
      "duration": 0.968,
      "velocity": 0.71,
      "hand": "left"
    },
    {
      "midi": 52,
      "time": 12.581,
      "duration": 1.935,
      "velocity": 0.71,
      "hand": "left"
    },
    {
      "midi": 61,
      "time": 12.581,
      "duration": 1.935,
      "velocity": 0.71,
      "hand": "right"
    },
    {
      "midi": 64,
      "time": 12.581,
      "duration": 1.452,
      "velocity": 0.52,
      "hand": "right"
    },
    {
      "midi": 43,
      "time": 13.548,
      "duration": 0.968,
      "velocity": 0.71,
      "hand": "left"
    },
    {
      "midi": 69,
      "time": 14.032,
      "duration": 0.484,
      "velocity": 0.38,
      "hand": "right"
    },
    {
      "midi": 42,
      "time": 14.516,
      "duration": 0.968,
      "velocity": 0.71,
      "hand": "left"
    },
    {
      "midi": 50,
      "time": 14.516,
      "duration": 0.968,
      "velocity": 0.71,
      "hand": "left"
    },
    {
      "midi": 60,
      "time": 14.516,
      "duration": 0.968,
      "velocity": 0.71,
      "hand": "right"
    },
    {
      "midi": 69,
      "time": 14.516,
      "duration": 0.968,
      "velocity": 0.38,
      "hand": "right"
    },
    {
      "midi": 43,
      "time": 15.484,
      "duration": 0.968,
      "velocity": 0.71,
      "hand": "left"
    },
    {
      "midi": 50,
      "time": 15.484,
      "duration": 1.935,
      "velocity": 0.71,
      "hand": "left"
    },
    {
      "midi": 59,
      "time": 15.484,
      "duration": 0.968,
      "velocity": 0.71,
      "hand": "left"
    },
    {
      "midi": 62,
      "time": 15.484,
      "duration": 1.452,
      "velocity": 0.42,
      "hand": "right"
    },
    {
      "midi": 45,
      "time": 16.452,
      "duration": 0.968,
      "velocity": 0.71,
      "hand": "left"
    },
    {
      "midi": 60,
      "time": 16.452,
      "duration": 0.968,
      "velocity": 0.71,
      "hand": "right"
    },
    {
      "midi": 66,
      "time": 16.935,
      "duration": 0.484,
      "velocity": 0.48,
      "hand": "right"
    },
    {
      "midi": 47,
      "time": 17.419,
      "duration": 0.968,
      "velocity": 0.71,
      "hand": "left"
    },
    {
      "midi": 55,
      "time": 17.419,
      "duration": 0.968,
      "velocity": 0.71,
      "hand": "left"
    },
    {
      "midi": 62,
      "time": 17.419,
      "duration": 0.968,
      "velocity": 0.71,
      "hand": "right"
    },
    {
      "midi": 67,
      "time": 17.419,
      "duration": 0.968,
      "velocity": 0.5,
      "hand": "right"
    },
    {
      "midi": 48,
      "time": 18.387,
      "duration": 0.968,
      "velocity": 0.71,
      "hand": "left"
    },
    {
      "midi": 55,
      "time": 18.387,
      "duration": 0.968,
      "velocity": 0.71,
      "hand": "left"
    },
    {
      "midi": 64,
      "time": 18.387,
      "duration": 0.968,
      "velocity": 0.71,
      "hand": "right"
    },
    {
      "midi": 67,
      "time": 18.387,
      "duration": 0.968,
      "velocity": 0.54,
      "hand": "right"
    },
    {
      "midi": 49,
      "time": 19.355,
      "duration": 0.968,
      "velocity": 0.71,
      "hand": "left"
    },
    {
      "midi": 57,
      "time": 19.355,
      "duration": 0.968,
      "velocity": 0.71,
      "hand": "left"
    },
    {
      "midi": 67,
      "time": 19.355,
      "duration": 0.968,
      "velocity": 0.71,
      "hand": "right"
    },
    {
      "midi": 76,
      "time": 19.355,
      "duration": 0.726,
      "velocity": 0.57,
      "hand": "right"
    },
    {
      "midi": 69,
      "time": 20.081,
      "duration": 0.242,
      "velocity": 0.61,
      "hand": "right"
    },
    {
      "midi": 50,
      "time": 20.323,
      "duration": 2.903,
      "velocity": 0.71,
      "hand": "left"
    },
    {
      "midi": 57,
      "time": 20.323,
      "duration": 1.935,
      "velocity": 0.71,
      "hand": "left"
    },
    {
      "midi": 67,
      "time": 20.323,
      "duration": 0.968,
      "velocity": 0.71,
      "hand": "right"
    },
    {
      "midi": 69,
      "time": 20.323,
      "duration": 2.903,
      "velocity": 0.68,
      "hand": "right"
    },
    {
      "midi": 66,
      "time": 21.29,
      "duration": 0.484,
      "velocity": 0.71,
      "hand": "right"
    },
    {
      "midi": 64,
      "time": 21.774,
      "duration": 0.484,
      "velocity": 0.59,
      "hand": "right"
    },
    {
      "midi": 62,
      "time": 22.258,
      "duration": 0.968,
      "velocity": 0.71,
      "hand": "right"
    },
    {
      "midi": 66,
      "time": 22.258,
      "duration": 0.968,
      "velocity": 0.48,
      "hand": "right"
    },
    {
      "midi": 55,
      "time": 23.226,
      "duration": 0.968,
      "velocity": 0.71,
      "hand": "left"
    },
    {
      "midi": 62,
      "time": 23.226,
      "duration": 0.968,
      "velocity": 0.71,
      "hand": "right"
    },
    {
      "midi": 67,
      "time": 23.226,
      "duration": 0.968,
      "velocity": 0.54,
      "hand": "right"
    },
    {
      "midi": 71,
      "time": 23.226,
      "duration": 0.968,
      "velocity": 0.54,
      "hand": "right"
    },
    {
      "midi": 55,
      "time": 24.194,
      "duration": 1.452,
      "velocity": 0.71,
      "hand": "left"
    },
    {
      "midi": 62,
      "time": 24.194,
      "duration": 1.452,
      "velocity": 0.71,
      "hand": "right"
    },
    {
      "midi": 67,
      "time": 24.194,
      "duration": 1.452,
      "velocity": 0.54,
      "hand": "right"
    },
    {
      "midi": 71,
      "time": 24.194,
      "duration": 1.452,
      "velocity": 0.54,
      "hand": "right"
    },
    {
      "midi": 50,
      "time": 25.645,
      "duration": 0.484,
      "velocity": 0.71,
      "hand": "left"
    },
    {
      "midi": 62,
      "time": 25.645,
      "duration": 0.484,
      "velocity": 0.71,
      "hand": "right"
    },
    {
      "midi": 66,
      "time": 25.645,
      "duration": 0.484,
      "velocity": 0.54,
      "hand": "right"
    },
    {
      "midi": 69,
      "time": 25.645,
      "duration": 0.484,
      "velocity": 0.54,
      "hand": "right"
    },
    {
      "midi": 52,
      "time": 26.129,
      "duration": 0.968,
      "velocity": 0.71,
      "hand": "left"
    },
    {
      "midi": 60,
      "time": 26.129,
      "duration": 0.968,
      "velocity": 0.71,
      "hand": "right"
    },
    {
      "midi": 67,
      "time": 26.129,
      "duration": 0.968,
      "velocity": 0.54,
      "hand": "right"
    },
    {
      "midi": 72,
      "time": 26.129,
      "duration": 0.968,
      "velocity": 0.54,
      "hand": "right"
    },
    {
      "midi": 55,
      "time": 27.097,
      "duration": 0.968,
      "velocity": 0.71,
      "hand": "left"
    },
    {
      "midi": 62,
      "time": 27.097,
      "duration": 0.968,
      "velocity": 0.71,
      "hand": "right"
    },
    {
      "midi": 67,
      "time": 27.097,
      "duration": 1.452,
      "velocity": 0.59,
      "hand": "right"
    },
    {
      "midi": 71,
      "time": 27.097,
      "duration": 1.452,
      "velocity": 0.59,
      "hand": "right"
    },
    {
      "midi": 65,
      "time": 28.065,
      "duration": 0.968,
      "velocity": 0.71,
      "hand": "right"
    },
    {
      "midi": 67,
      "time": 28.548,
      "duration": 0.484,
      "velocity": 0.66,
      "hand": "right"
    },
    {
      "midi": 71,
      "time": 28.548,
      "duration": 0.484,
      "velocity": 0.66,
      "hand": "right"
    },
    {
      "midi": 64,
      "time": 29.032,
      "duration": 0.968,
      "velocity": 0.71,
      "hand": "right"
    },
    {
      "midi": 67,
      "time": 29.032,
      "duration": 0.968,
      "velocity": 0.68,
      "hand": "right"
    },
    {
      "midi": 72,
      "time": 29.032,
      "duration": 0.968,
      "velocity": 0.68,
      "hand": "right"
    },
    {
      "midi": 62,
      "time": 30,
      "duration": 0.968,
      "velocity": 0.71,
      "hand": "right"
    },
    {
      "midi": 67,
      "time": 30,
      "duration": 0.968,
      "velocity": 0.72,
      "hand": "right"
    },
    {
      "midi": 71,
      "time": 30,
      "duration": 0.968,
      "velocity": 0.72,
      "hand": "right"
    },
    {
      "midi": 74,
      "time": 30,
      "duration": 0.968,
      "velocity": 0.72,
      "hand": "right"
    },
    {
      "midi": 60,
      "time": 30.968,
      "duration": 0.484,
      "velocity": 0.71,
      "hand": "right"
    },
    {
      "midi": 67,
      "time": 30.968,
      "duration": 0.968,
      "velocity": 0.77,
      "hand": "right"
    },
    {
      "midi": 72,
      "time": 30.968,
      "duration": 0.968,
      "velocity": 0.77,
      "hand": "right"
    },
    {
      "midi": 76,
      "time": 30.968,
      "duration": 0.968,
      "velocity": 0.77,
      "hand": "right"
    },
    {
      "midi": 59,
      "time": 31.452,
      "duration": 0.484,
      "velocity": 0.71,
      "hand": "left"
    },
    {
      "midi": 58,
      "time": 31.935,
      "duration": 2.903,
      "velocity": 0.71,
      "hand": "left"
    },
    {
      "midi": 66,
      "time": 31.935,
      "duration": 2.903,
      "velocity": 0.71,
      "hand": "right"
    },
    {
      "midi": 73,
      "time": 31.935,
      "duration": 2.903,
      "velocity": 0.71,
      "hand": "right"
    },
    {
      "midi": 78,
      "time": 31.935,
      "duration": 1.935,
      "velocity": 0.75,
      "hand": "right"
    },
    {
      "midi": 78,
      "time": 33.871,
      "duration": 0.968,
      "velocity": 0.75,
      "hand": "right"
    },
    {
      "midi": 57,
      "time": 34.839,
      "duration": 0.968,
      "velocity": 0.71,
      "hand": "left"
    },
    {
      "midi": 66,
      "time": 34.839,
      "duration": 0.968,
      "velocity": 0.71,
      "hand": "right"
    },
    {
      "midi": 71,
      "time": 34.839,
      "duration": 0.968,
      "velocity": 0.71,
      "hand": "right"
    },
    {
      "midi": 75,
      "time": 34.839,
      "duration": 0.968,
      "velocity": 0.75,
      "hand": "right"
    },
    {
      "midi": 56,
      "time": 35.806,
      "duration": 0.968,
      "velocity": 0.71,
      "hand": "left"
    },
    {
      "midi": 64,
      "time": 35.806,
      "duration": 1.935,
      "velocity": 0.71,
      "hand": "right"
    },
    {
      "midi": 71,
      "time": 35.806,
      "duration": 0.968,
      "velocity": 0.71,
      "hand": "right"
    },
    {
      "midi": 76,
      "time": 35.806,
      "duration": 1.452,
      "velocity": 0.75,
      "hand": "right"
    },
    {
      "midi": 55,
      "time": 36.774,
      "duration": 0.968,
      "velocity": 0.71,
      "hand": "left"
    },
    {
      "midi": 69,
      "time": 36.774,
      "duration": 0.968,
      "velocity": 0.71,
      "hand": "right"
    },
    {
      "midi": 73,
      "time": 37.258,
      "duration": 0.484,
      "velocity": 0.7,
      "hand": "right"
    },
    {
      "midi": 54,
      "time": 37.742,
      "duration": 0.968,
      "velocity": 0.71,
      "hand": "left"
    },
    {
      "midi": 62,
      "time": 37.742,
      "duration": 0.968,
      "velocity": 0.71,
      "hand": "right"
    },
    {
      "midi": 69,
      "time": 37.742,
      "duration": 0.968,
      "velocity": 0.71,
      "hand": "right"
    },
    {
      "midi": 74,
      "time": 37.742,
      "duration": 0.968,
      "velocity": 0.69,
      "hand": "right"
    },
    {
      "midi": 55,
      "time": 38.71,
      "duration": 0.968,
      "velocity": 0.71,
      "hand": "left"
    },
    {
      "midi": 62,
      "time": 38.71,
      "duration": 0.968,
      "velocity": 0.71,
      "hand": "right"
    },
    {
      "midi": 67,
      "time": 38.71,
      "duration": 0.968,
      "velocity": 0.71,
      "hand": "right"
    },
    {
      "midi": 71,
      "time": 38.71,
      "duration": 0.968,
      "velocity": 0.66,
      "hand": "right"
    },
    {
      "midi": 52,
      "time": 39.677,
      "duration": 0.968,
      "velocity": 0.71,
      "hand": "left"
    },
    {
      "midi": 60,
      "time": 39.677,
      "duration": 0.968,
      "velocity": 0.71,
      "hand": "right"
    },
    {
      "midi": 67,
      "time": 39.677,
      "duration": 0.968,
      "velocity": 0.71,
      "hand": "right"
    },
    {
      "midi": 72,
      "time": 39.677,
      "duration": 0.968,
      "velocity": 0.63,
      "hand": "right"
    },
    {
      "midi": 48,
      "time": 40.645,
      "duration": 1.935,
      "velocity": 0.71,
      "hand": "left"
    },
    {
      "midi": 55,
      "time": 40.645,
      "duration": 1.935,
      "velocity": 0.71,
      "hand": "left"
    },
    {
      "midi": 64,
      "time": 40.645,
      "duration": 1.935,
      "velocity": 0.71,
      "hand": "right"
    },
    {
      "midi": 71,
      "time": 40.645,
      "duration": 0.726,
      "velocity": 0.61,
      "hand": "right"
    },
    {
      "midi": 69,
      "time": 41.371,
      "duration": 0.242,
      "velocity": 0.58,
      "hand": "right"
    },
    {
      "midi": 69,
      "time": 41.613,
      "duration": 0.968,
      "velocity": 0.57,
      "hand": "right"
    },
    {
      "midi": 50,
      "time": 42.581,
      "duration": 1.935,
      "velocity": 0.71,
      "hand": "left"
    },
    {
      "midi": 62,
      "time": 42.581,
      "duration": 0.484,
      "velocity": 0.71,
      "hand": "right"
    },
    {
      "midi": 66,
      "time": 42.581,
      "duration": 0.968,
      "velocity": 0.55,
      "hand": "right"
    },
    {
      "midi": 60,
      "time": 43.065,
      "duration": 0.484,
      "velocity": 0.71,
      "hand": "right"
    },
    {
      "midi": 43,
      "time": 43.548,
      "duration": 0.484,
      "velocity": 0.71,
      "hand": "left"
    },
    {
      "midi": 59,
      "time": 43.548,
      "duration": 0.968,
      "velocity": 0.71,
      "hand": "left"
    },
    {
      "midi": 67,
      "time": 43.548,
      "duration": 0.968,
      "velocity": 0.52,
      "hand": "right"
    },
    {
      "midi": 43,
      "time": 44.032,
      "duration": 0.484,
      "velocity": 0.71,
      "hand": "left"
    },
    {
      "midi": 43,
      "time": 44.516,
      "duration": 0.484,
      "velocity": 0.71,
      "hand": "left"
    },
    {
      "midi": 43,
      "time": 45,
      "duration": 0.484,
      "velocity": 0.71,
      "hand": "left"
    },
    {
      "midi": 43,
      "time": 45.484,
      "duration": 0.484,
      "velocity": 0.71,
      "hand": "left"
    },
    {
      "midi": 50,
      "time": 45.484,
      "duration": 0.968,
      "velocity": 0.71,
      "hand": "left"
    },
    {
      "midi": 71,
      "time": 45.484,
      "duration": 0.968,
      "velocity": 0.75,
      "hand": "right"
    },
    {
      "midi": 79,
      "time": 45.484,
      "duration": 0.968,
      "velocity": 0.52,
      "hand": "right"
    },
    {
      "midi": 43,
      "time": 45.968,
      "duration": 0.484,
      "velocity": 0.71,
      "hand": "left"
    },
    {
      "midi": 43,
      "time": 46.452,
      "duration": 0.484,
      "velocity": 0.71,
      "hand": "left"
    },
    {
      "midi": 51,
      "time": 46.452,
      "duration": 2.903,
      "velocity": 0.71,
      "hand": "left"
    },
    {
      "midi": 72,
      "time": 46.452,
      "duration": 0.726,
      "velocity": 0.75,
      "hand": "right"
    },
    {
      "midi": 78,
      "time": 46.452,
      "duration": 0.726,
      "velocity": 0.52,
      "hand": "right"
    },
    {
      "midi": 43,
      "time": 46.935,
      "duration": 0.484,
      "velocity": 0.71,
      "hand": "left"
    },
    {
      "midi": 72,
      "time": 47.177,
      "duration": 0.242,
      "velocity": 0.52,
      "hand": "right"
    },
    {
      "midi": 43,
      "time": 47.419,
      "duration": 0.484,
      "velocity": 0.71,
      "hand": "left"
    },
    {
      "midi": 72,
      "time": 47.419,
      "duration": 0.968,
      "velocity": 0.52,
      "hand": "right"
    },
    {
      "midi": 43,
      "time": 47.903,
      "duration": 0.484,
      "velocity": 0.71,
      "hand": "left"
    },
    {
      "midi": 43,
      "time": 48.387,
      "duration": 0.484,
      "velocity": 0.71,
      "hand": "left"
    },
    {
      "midi": 66,
      "time": 48.387,
      "duration": 0.968,
      "velocity": 0.75,
      "hand": "right"
    },
    {
      "midi": 71,
      "time": 48.387,
      "duration": 0.484,
      "velocity": 0.52,
      "hand": "right"
    },
    {
      "midi": 43,
      "time": 48.871,
      "duration": 0.484,
      "velocity": 0.71,
      "hand": "left"
    },
    {
      "midi": 69,
      "time": 48.871,
      "duration": 0.484,
      "velocity": 0.52,
      "hand": "right"
    },
    {
      "midi": 43,
      "time": 49.355,
      "duration": 0.484,
      "velocity": 0.71,
      "hand": "left"
    },
    {
      "midi": 50,
      "time": 49.355,
      "duration": 0.968,
      "velocity": 0.48,
      "hand": "left"
    },
    {
      "midi": 67,
      "time": 49.355,
      "duration": 0.968,
      "velocity": 0.75,
      "hand": "right"
    },
    {
      "midi": 71,
      "time": 49.355,
      "duration": 0.968,
      "velocity": 0.52,
      "hand": "right"
    },
    {
      "midi": 43,
      "time": 49.839,
      "duration": 0.484,
      "velocity": 0.71,
      "hand": "left"
    },
    {
      "midi": 43,
      "time": 50.323,
      "duration": 0.484,
      "velocity": 0.71,
      "hand": "left"
    },
    {
      "midi": 43,
      "time": 50.806,
      "duration": 0.484,
      "velocity": 0.71,
      "hand": "left"
    },
    {
      "midi": 43,
      "time": 51.29,
      "duration": 0.484,
      "velocity": 0.71,
      "hand": "left"
    },
    {
      "midi": 50,
      "time": 51.29,
      "duration": 0.968,
      "velocity": 0.48,
      "hand": "left"
    },
    {
      "midi": 59,
      "time": 51.29,
      "duration": 0.968,
      "velocity": 0.68,
      "hand": "left"
    },
    {
      "midi": 67,
      "time": 51.29,
      "duration": 0.968,
      "velocity": 0.52,
      "hand": "right"
    },
    {
      "midi": 43,
      "time": 51.774,
      "duration": 0.484,
      "velocity": 0.71,
      "hand": "left"
    },
    {
      "midi": 43,
      "time": 52.258,
      "duration": 0.484,
      "velocity": 0.71,
      "hand": "left"
    },
    {
      "midi": 51,
      "time": 52.258,
      "duration": 2.903,
      "velocity": 0.48,
      "hand": "left"
    },
    {
      "midi": 60,
      "time": 52.258,
      "duration": 0.726,
      "velocity": 0.68,
      "hand": "right"
    },
    {
      "midi": 66,
      "time": 52.258,
      "duration": 0.726,
      "velocity": 0.52,
      "hand": "right"
    },
    {
      "midi": 43,
      "time": 52.742,
      "duration": 0.484,
      "velocity": 0.71,
      "hand": "left"
    },
    {
      "midi": 60,
      "time": 52.984,
      "duration": 0.242,
      "velocity": 0.52,
      "hand": "right"
    },
    {
      "midi": 43,
      "time": 53.226,
      "duration": 0.484,
      "velocity": 0.71,
      "hand": "left"
    },
    {
      "midi": 60,
      "time": 53.226,
      "duration": 0.968,
      "velocity": 0.52,
      "hand": "right"
    },
    {
      "midi": 43,
      "time": 53.71,
      "duration": 0.484,
      "velocity": 0.71,
      "hand": "left"
    },
    {
      "midi": 43,
      "time": 54.194,
      "duration": 0.484,
      "velocity": 0.71,
      "hand": "left"
    },
    {
      "midi": 54,
      "time": 54.194,
      "duration": 0.968,
      "velocity": 0.68,
      "hand": "left"
    },
    {
      "midi": 59,
      "time": 54.194,
      "duration": 0.484,
      "velocity": 0.52,
      "hand": "left"
    },
    {
      "midi": 43,
      "time": 54.677,
      "duration": 0.484,
      "velocity": 0.71,
      "hand": "left"
    },
    {
      "midi": 57,
      "time": 54.677,
      "duration": 0.484,
      "velocity": 0.52,
      "hand": "left"
    },
    {
      "midi": 43,
      "time": 55.161,
      "duration": 0.484,
      "velocity": 0.71,
      "hand": "left"
    },
    {
      "midi": 50,
      "time": 55.161,
      "duration": 0.968,
      "velocity": 0.48,
      "hand": "left"
    },
    {
      "midi": 55,
      "time": 55.161,
      "duration": 0.968,
      "velocity": 0.77,
      "hand": "left"
    },
    {
      "midi": 59,
      "time": 55.161,
      "duration": 0.968,
      "velocity": 0.77,
      "hand": "left"
    },
    {
      "midi": 43,
      "time": 55.645,
      "duration": 0.484,
      "velocity": 0.71,
      "hand": "left"
    },
    {
      "midi": 43,
      "time": 56.129,
      "duration": 0.484,
      "velocity": 0.71,
      "hand": "left"
    },
    {
      "midi": 48,
      "time": 56.129,
      "duration": 0.968,
      "velocity": 0.48,
      "hand": "left"
    },
    {
      "midi": 55,
      "time": 56.129,
      "duration": 0.968,
      "velocity": 0.77,
      "hand": "left"
    },
    {
      "midi": 64,
      "time": 56.129,
      "duration": 0.968,
      "velocity": 0.77,
      "hand": "right"
    },
    {
      "midi": 43,
      "time": 56.613,
      "duration": 0.484,
      "velocity": 0.71,
      "hand": "left"
    },
    {
      "midi": 43,
      "time": 57.097,
      "duration": 0.484,
      "velocity": 0.71,
      "hand": "left"
    },
    {
      "midi": 47,
      "time": 57.097,
      "duration": 0.968,
      "velocity": 0.48,
      "hand": "left"
    },
    {
      "midi": 55,
      "time": 57.097,
      "duration": 0.968,
      "velocity": 0.77,
      "hand": "left"
    },
    {
      "midi": 62,
      "time": 57.097,
      "duration": 0.968,
      "velocity": 0.77,
      "hand": "right"
    },
    {
      "midi": 43,
      "time": 57.581,
      "duration": 0.484,
      "velocity": 0.71,
      "hand": "left"
    },
    {
      "midi": 43,
      "time": 58.065,
      "duration": 0.484,
      "velocity": 0.71,
      "hand": "left"
    },
    {
      "midi": 46,
      "time": 58.065,
      "duration": 1.935,
      "velocity": 0.48,
      "hand": "left"
    },
    {
      "midi": 61,
      "time": 58.065,
      "duration": 1.935,
      "velocity": 0.74,
      "hand": "right"
    },
    {
      "midi": 64,
      "time": 58.065,
      "duration": 1.935,
      "velocity": 0.74,
      "hand": "right"
    },
    {
      "midi": 43,
      "time": 58.548,
      "duration": 0.484,
      "velocity": 0.71,
      "hand": "left"
    },
    {
      "midi": 43,
      "time": 59.032,
      "duration": 0.484,
      "velocity": 0.71,
      "hand": "left"
    },
    {
      "midi": 43,
      "time": 59.516,
      "duration": 0.484,
      "velocity": 0.71,
      "hand": "left"
    },
    {
      "midi": 43,
      "time": 60,
      "duration": 0.484,
      "velocity": 0.71,
      "hand": "left"
    },
    {
      "midi": 45,
      "time": 60,
      "duration": 0.968,
      "velocity": 0.48,
      "hand": "left"
    },
    {
      "midi": 60,
      "time": 60,
      "duration": 0.968,
      "velocity": 0.69,
      "hand": "right"
    },
    {
      "midi": 66,
      "time": 60,
      "duration": 0.968,
      "velocity": 0.69,
      "hand": "right"
    },
    {
      "midi": 43,
      "time": 60.484,
      "duration": 0.484,
      "velocity": 0.71,
      "hand": "left"
    },
    {
      "midi": 43,
      "time": 60.968,
      "duration": 2.903,
      "velocity": 0.71,
      "hand": "left"
    },
    {
      "midi": 59,
      "time": 60.968,
      "duration": 1.935,
      "velocity": 0.71,
      "hand": "left"
    },
    {
      "midi": 67,
      "time": 60.968,
      "duration": 1.935,
      "velocity": 0.71,
      "hand": "right"
    },
    {
      "midi": 50,
      "time": 61.935,
      "duration": 1.935,
      "velocity": 0.48,
      "hand": "left"
    },
    {
      "midi": 59,
      "time": 62.903,
      "duration": 0.968,
      "velocity": 0.71,
      "hand": "left"
    },
    {
      "midi": 43,
      "time": 63.871,
      "duration": 2.903,
      "velocity": 0.71,
      "hand": "left"
    },
    {
      "midi": 50,
      "time": 63.871,
      "duration": 2.903,
      "velocity": 0.48,
      "hand": "left"
    },
    {
      "midi": 59,
      "time": 63.871,
      "duration": 1.935,
      "velocity": 0.71,
      "hand": "left"
    },
    {
      "midi": 62,
      "time": 63.871,
      "duration": 1.935,
      "velocity": 0.71,
      "hand": "right"
    },
    {
      "midi": 67,
      "time": 64.839,
      "duration": 0.968,
      "velocity": 0.71,
      "hand": "right"
    },
    {
      "midi": 67,
      "time": 65.806,
      "duration": 0.968,
      "velocity": 0.71,
      "hand": "right"
    },
    {
      "midi": 71,
      "time": 65.806,
      "duration": 0.968,
      "velocity": 0.71,
      "hand": "right"
    },
    {
      "midi": 43,
      "time": 66.774,
      "duration": 2.903,
      "velocity": 0.71,
      "hand": "left"
    },
    {
      "midi": 50,
      "time": 66.774,
      "duration": 2.903,
      "velocity": 0.48,
      "hand": "left"
    },
    {
      "midi": 67,
      "time": 66.774,
      "duration": 2.903,
      "velocity": 0.49,
      "hand": "right"
    },
    {
      "midi": 71,
      "time": 66.774,
      "duration": 2.903,
      "velocity": 0.49,
      "hand": "right"
    },
    {
      "midi": 74,
      "time": 66.774,
      "duration": 2.903,
      "velocity": 0.49,
      "hand": "right"
    }
  ]
}
