{
  "id": "nocturne-op9",
  "title": "Nocturne Op. 9 No. 2",
  "artist": "Frédéric Chopin",
  "difficulty": "Médio",
  "bpm": 88,
  "duration": 120,
  "category": "Clássicos",
  "isPremium": true,
  "coverUrl": "/images/covers/nocturne_op9.png",
  "notes": [
    {
      "midi": 70,
      "time": 0.0,
      "duration": 0.5,
      "hand": "left",
      "velocity": 80
    },
    {
      "midi": 79,
      "time": 0.5,
      "duration": 1.0,
      "hand": "left",
      "velocity": 80
    },
    {
      "midi": 77,
      "time": 1.5,
      "duration": 0.5,
      "hand": "left",
      "velocity": 80
    },
    {
      "midi": 75,
      "time": 2.0,
      "duration": 0.5,
      "hand": "left",
      "velocity": 80
    },
    {
      "midi": 74,
      "time": 2.5,
      "duration": 0.5,
      "hand": "left",
      "velocity": 80
    },
    {
      "midi": 75,
      "time": 3.0,
      "duration": 1.0,
      "hand": "left",
      "velocity": 80
    }
  ],
  "notes1Hand": [
    {
      "midi": 70,
      "time": 0.0,
      "duration": 0.5,
      "hand": "left",
      "velocity": 80
    },
    {
      "midi": 79,
      "time": 0.5,
      "duration": 1.0,
      "hand": "left",
      "velocity": 80
    },
    {
      "midi": 77,
      "time": 1.5,
      "duration": 0.5,
      "hand": "left",
      "velocity": 80
    },
    {
      "midi": 75,
      "time": 2.0,
      "duration": 0.5,
      "hand": "left",
      "velocity": 80
    },
    {
      "midi": 74,
      "time": 2.5,
      "duration": 0.5,
      "hand": "left",
      "velocity": 80
    },
    {
      "midi": 75,
      "time": 3.0,
      "duration": 1.0,
      "hand": "left",
      "velocity": 80
    }
  ],
  "notes2Hands": [
    {
      "midi": 70,
      "time": 0.0,
      "duration": 0.5,
      "hand": "left",
      "velocity": 80
    },
    {
      "midi": 51,
      "time": 0.0,
      "duration": 1.0,
      "hand": "left",
      "velocity": 80
    },
    {
      "midi": 79,
      "time": 0.5,
      "duration": 1.0,
      "hand": "left",
      "velocity": 80
    },
    {
      "midi": 63,
      "time": 1.0,
      "duration": 1.0,
      "hand": "left",
      "velocity": 80
    },
    {
      "midi": 67,
      "time": 1.0,
      "duration": 1.0,
      "hand": "left",
      "velocity": 80
    },
    {
      "midi": 70,
      "time": 1.0,
      "duration": 1.0,
      "hand": "left",
      "velocity": 80
    },
    {
      "midi": 77,
      "time": 1.5,
      "duration": 0.5,
      "hand": "left",
      "velocity": 80
    },
    {
      "midi": 75,
      "time": 2.0,
      "duration": 0.5,
      "hand": "left",
      "velocity": 80
    },
    {
      "midi": 51,
      "time": 2.0,
      "duration": 1.0,
      "hand": "left",
      "velocity": 80
    },
    {
      "midi": 74,
      "time": 2.5,
      "duration": 0.5,
      "hand": "left",
      "velocity": 80
    },
    {
      "midi": 75,
      "time": 3.0,
      "duration": 1.0,
      "hand": "left",
      "velocity": 80
    },
    {
      "midi": 63,
      "time": 3.0,
      "duration": 1.0,
      "hand": "left",
      "velocity": 80
    },
    {
      "midi": 67,
      "time": 3.0,
      "duration": 1.0,
      "hand": "left",
      "velocity": 80
    },
    {
      "midi": 70,
      "time": 3.0,
      "duration": 1.0,
      "hand": "left",
      "velocity": 80
    }
  ]
}