{
  "id": "nocturne-op9-facil",
  "title": "Nocturne Op9 Facil",
  "artist": "MIDI Source",
  "difficulty": "Médio",
  "bpm": 88,
  "duration": 3,
  "category": "A revisar",
  "isPremium": true,
  "coverUrl": "/images/covers/placeholder.png",
  "notes": [
    {
      "midi": 70,
      "time": 0,
      "duration": 0.341,
      "velocity": 0.71,
      "hand": "right"
    },
    {
      "midi": 79,
      "time": 0.341,
      "duration": 0.682,
      "velocity": 0.71,
      "hand": "right"
    },
    {
      "midi": 77,
      "time": 1.023,
      "duration": 0.341,
      "velocity": 0.71,
      "hand": "right"
    },
    {
      "midi": 75,
      "time": 1.364,
      "duration": 0.341,
      "velocity": 0.71,
      "hand": "right"
    },
    {
      "midi": 74,
      "time": 1.705,
      "duration": 0.341,
      "velocity": 0.71,
      "hand": "right"
    },
    {
      "midi": 75,
      "time": 2.045,
      "duration": 0.682,
      "velocity": 0.71,
      "hand": "right"
    }
  ],
  "arrangements": {
    "easy": [
      {
        "midi": 70,
        "time": 0,
        "duration": 0.341,
        "velocity": 0.71,
        "hand": "right"
      },
      {
        "midi": 79,
        "time": 0.341,
        "duration": 0.682,
        "velocity": 0.71,
        "hand": "right"
      },
      {
        "midi": 77,
        "time": 1.023,
        "duration": 0.341,
        "velocity": 0.71,
        "hand": "right"
      },
      {
        "midi": 75,
        "time": 1.364,
        "duration": 0.341,
        "velocity": 0.71,
        "hand": "right"
      },
      {
        "midi": 74,
        "time": 1.705,
        "duration": 0.341,
        "velocity": 0.71,
        "hand": "right"
      },
      {
        "midi": 75,
        "time": 2.045,
        "duration": 0.682,
        "velocity": 0.71,
        "hand": "right"
      }
    ],
    "medium": [
      {
        "midi": 70,
        "time": 0,
        "duration": 0.341,
        "velocity": 0.71,
        "hand": "right"
      },
      {
        "midi": 79,
        "time": 0.341,
        "duration": 0.682,
        "velocity": 0.71,
        "hand": "right"
      },
      {
        "midi": 77,
        "time": 1.023,
        "duration": 0.341,
        "velocity": 0.71,
        "hand": "right"
      },
      {
        "midi": 75,
        "time": 1.364,
        "duration": 0.341,
        "velocity": 0.71,
        "hand": "right"
      },
      {
        "midi": 74,
        "time": 1.705,
        "duration": 0.341,
        "velocity": 0.71,
        "hand": "right"
      },
      {
        "midi": 75,
        "time": 2.045,
        "duration": 0.682,
        "velocity": 0.71,
        "hand": "right"
      }
    ],
    "hard": [
      {
        "midi": 70,
        "time": 0,
        "duration": 0.341,
        "velocity": 0.71,
        "hand": "right"
      },
      {
        "midi": 79,
        "time": 0.341,
        "duration": 0.682,
        "velocity": 0.71,
        "hand": "right"
      },
      {
        "midi": 77,
        "time": 1.023,
        "duration": 0.341,
        "velocity": 0.71,
        "hand": "right"
      },
      {
        "midi": 75,
        "time": 1.364,
        "duration": 0.341,
        "velocity": 0.71,
        "hand": "right"
      },
      {
        "midi": 74,
        "time": 1.705,
        "duration": 0.341,
        "velocity": 0.71,
        "hand": "right"
      },
      {
        "midi": 75,
        "time": 2.045,
        "duration": 0.682,
        "velocity": 0.71,
        "hand": "right"
      }
    ]
  },
  "notes1Hand": [
    {
      "midi": 70,
      "time": 0,
      "duration": 0.341,
      "velocity": 0.71,
      "hand": "right"
    },
    {
      "midi": 79,
      "time": 0.341,
      "duration": 0.682,
      "velocity": 0.71,
      "hand": "right"
    },
    {
      "midi": 77,
      "time": 1.023,
      "duration": 0.341,
      "velocity": 0.71,
      "hand": "right"
    },
    {
      "midi": 75,
      "time": 1.364,
      "duration": 0.341,
      "velocity": 0.71,
      "hand": "right"
    },
    {
      "midi": 74,
      "time": 1.705,
      "duration": 0.341,
      "velocity": 0.71,
      "hand": "right"
    },
    {
      "midi": 75,
      "time": 2.045,
      "duration": 0.682,
      "velocity": 0.71,
      "hand": "right"
    }
  ],
  "notes2Hands": [
    {
      "midi": 70,
      "time": 0,
      "duration": 0.341,
      "velocity": 0.71,
      "hand": "right"
    },
    {
      "midi": 79,
      "time": 0.341,
      "duration": 0.682,
      "velocity": 0.71,
      "hand": "right"
    },
    {
      "midi": 77,
      "time": 1.023,
      "duration": 0.341,
      "velocity": 0.71,
      "hand": "right"
    },
    {
      "midi": 75,
      "time": 1.364,
      "duration": 0.341,
      "velocity": 0.71,
      "hand": "right"
    },
    {
      "midi": 74,
      "time": 1.705,
      "duration": 0.341,
      "velocity": 0.71,
      "hand": "right"
    },
    {
      "midi": 75,
      "time": 2.045,
      "duration": 0.682,
      "velocity": 0.71,
      "hand": "right"
    }
  ]
}
