{
  "id": "noite-feliz",
  "title": "Noite Feliz",
  "artist": "Franz Xaver Gruber",
  "difficulty": "Fácil",
  "bpm": 53,
  "duration": 41,
  "category": "Religiosos",
  "isPremium": false,
  "coverUrl": "/images/covers/placeholder.png",
  "notes": [
    {
      "midi": 46,
      "time": 0,
      "duration": 1.132,
      "velocity": 0.52,
      "hand": "left"
    },
    {
      "midi": 58,
      "time": 0,
      "duration": 1.132,
      "velocity": 0.52,
      "hand": "left"
    },
    {
      "midi": 62,
      "time": 0,
      "duration": 0.849,
      "velocity": 0.53,
      "hand": "right"
    },
    {
      "midi": 65,
      "time": 0,
      "duration": 0.849,
      "velocity": 0.53,
      "hand": "right"
    },
    {
      "midi": 63,
      "time": 0.849,
      "duration": 0.283,
      "velocity": 0.6,
      "hand": "right"
    },
    {
      "midi": 67,
      "time": 0.849,
      "duration": 0.283,
      "velocity": 0.6,
      "hand": "right"
    },
    {
      "midi": 46,
      "time": 1.132,
      "duration": 0.566,
      "velocity": 0.54,
      "hand": "left"
    },
    {
      "midi": 58,
      "time": 1.132,
      "duration": 0.566,
      "velocity": 0.54,
      "hand": "left"
    },
    {
      "midi": 62,
      "time": 1.132,
      "duration": 0.566,
      "velocity": 0.54,
      "hand": "right"
    },
    {
      "midi": 65,
      "time": 1.132,
      "duration": 0.566,
      "velocity": 0.54,
      "hand": "right"
    },
    {
      "midi": 46,
      "time": 1.698,
      "duration": 1.698,
      "velocity": 0.52,
      "hand": "left"
    },
    {
      "midi": 53,
      "time": 1.698,
      "duration": 1.698,
      "velocity": 0.52,
      "hand": "left"
    },
    {
      "midi": 58,
      "time": 1.698,
      "duration": 1.698,
      "velocity": 0.5,
      "hand": "left"
    },
    {
      "midi": 62,
      "time": 1.698,
      "duration": 1.698,
      "velocity": 0.5,
      "hand": "right"
    },
    {
      "midi": 46,
      "time": 3.396,
      "duration": 1.132,
      "velocity": 0.57,
      "hand": "left"
    },
    {
      "midi": 58,
      "time": 3.396,
      "duration": 1.132,
      "velocity": 0.57,
      "hand": "left"
    },
    {
      "midi": 62,
      "time": 3.396,
      "duration": 0.849,
      "velocity": 0.61,
      "hand": "right"
    },
    {
      "midi": 65,
      "time": 3.396,
      "duration": 0.849,
      "velocity": 0.61,
      "hand": "right"
    },
    {
      "midi": 63,
      "time": 4.245,
      "duration": 0.283,
      "velocity": 0.6,
      "hand": "right"
    },
    {
      "midi": 67,
      "time": 4.245,
      "duration": 0.283,
      "velocity": 0.6,
      "hand": "right"
    },
    {
      "midi": 46,
      "time": 4.528,
      "duration": 0.566,
      "velocity": 0.54,
      "hand": "left"
    },
    {
      "midi": 58,
      "time": 4.528,
      "duration": 0.566,
      "velocity": 0.54,
      "hand": "left"
    },
    {
      "midi": 62,
      "time": 4.528,
      "duration": 0.566,
      "velocity": 0.5,
      "hand": "right"
    },
    {
      "midi": 65,
      "time": 4.528,
      "duration": 0.566,
      "velocity": 0.5,
      "hand": "right"
    },
    {
      "midi": 46,
      "time": 5.094,
      "duration": 1.698,
      "velocity": 0.54,
      "hand": "left"
    },
    {
      "midi": 53,
      "time": 5.094,
      "duration": 1.698,
      "velocity": 0.54,
      "hand": "left"
    },
    {
      "midi": 58,
      "time": 5.094,
      "duration": 1.698,
      "velocity": 0.53,
      "hand": "left"
    },
    {
      "midi": 62,
      "time": 5.094,
      "duration": 1.698,
      "velocity": 0.53,
      "hand": "right"
    },
    {
      "midi": 53,
      "time": 6.792,
      "duration": 1.132,
      "velocity": 0.57,
      "hand": "left"
    },
    {
      "midi": 57,
      "time": 6.792,
      "duration": 1.132,
      "velocity": 0.57,
      "hand": "left"
    },
    {
      "midi": 63,
      "time": 6.792,
      "duration": 1.132,
      "velocity": 0.7,
      "hand": "right"
    },
    {
      "midi": 72,
      "time": 6.792,
      "duration": 1.132,
      "velocity": 0.7,
      "hand": "right"
    },
    {
      "midi": 53,
      "time": 7.925,
      "duration": 0.566,
      "velocity": 0.57,
      "hand": "left"
    },
    {
      "midi": 57,
      "time": 7.925,
      "duration": 0.566,
      "velocity": 0.57,
      "hand": "left"
    },
    {
      "midi": 63,
      "time": 7.925,
      "duration": 0.566,
      "velocity": 0.56,
      "hand": "right"
    },
    {
      "midi": 72,
      "time": 7.925,
      "duration": 0.566,
      "velocity": 0.56,
      "hand": "right"
    },
    {
      "midi": 53,
      "time": 8.491,
      "duration": 1.698,
      "velocity": 0.53,
      "hand": "left"
    },
    {
      "midi": 60,
      "time": 8.491,
      "duration": 1.698,
      "velocity": 0.5,
      "hand": "right"
    },
    {
      "midi": 69,
      "time": 8.491,
      "duration": 1.698,
      "velocity": 0.5,
      "hand": "right"
    },
    {
      "midi": 46,
      "time": 10.189,
      "duration": 1.132,
      "velocity": 0.56,
      "hand": "left"
    },
    {
      "midi": 53,
      "time": 10.189,
      "duration": 1.132,
      "velocity": 0.56,
      "hand": "left"
    },
    {
      "midi": 62,
      "time": 10.189,
      "duration": 1.132,
      "velocity": 0.58,
      "hand": "right"
    },
    {
      "midi": 70,
      "time": 10.189,
      "duration": 1.132,
      "velocity": 0.58,
      "hand": "right"
    },
    {
      "midi": 46,
      "time": 11.321,
      "duration": 0.566,
      "velocity": 0.55,
      "hand": "left"
    },
    {
      "midi": 53,
      "time": 11.321,
      "duration": 0.566,
      "velocity": 0.55,
      "hand": "left"
    },
    {
      "midi": 62,
      "time": 11.321,
      "duration": 0.566,
      "velocity": 0.56,
      "hand": "right"
    },
    {
      "midi": 70,
      "time": 11.321,
      "duration": 0.566,
      "velocity": 0.56,
      "hand": "right"
    },
    {
      "midi": 46,
      "time": 11.887,
      "duration": 1.698,
      "velocity": 0.58,
      "hand": "left"
    },
    {
      "midi": 58,
      "time": 11.887,
      "duration": 1.698,
      "velocity": 0.58,
      "hand": "left"
    },
    {
      "midi": 62,
      "time": 11.887,
      "duration": 1.698,
      "velocity": 0.49,
      "hand": "right"
    },
    {
      "midi": 65,
      "time": 11.887,
      "duration": 1.698,
      "velocity": 0.49,
      "hand": "right"
    },
    {
      "midi": 51,
      "time": 13.585,
      "duration": 1.132,
      "velocity": 0.57,
      "hand": "left"
    },
    {
      "midi": 58,
      "time": 13.585,
      "duration": 1.132,
      "velocity": 0.57,
      "hand": "left"
    },
    {
      "midi": 63,
      "time": 13.585,
      "duration": 1.132,
      "velocity": 0.54,
      "hand": "right"
    },
    {
      "midi": 67,
      "time": 13.585,
      "duration": 1.132,
      "velocity": 0.54,
      "hand": "right"
    },
    {
      "midi": 51,
      "time": 14.717,
      "duration": 0.566,
      "velocity": 0.57,
      "hand": "left"
    },
    {
      "midi": 58,
      "time": 14.717,
      "duration": 0.566,
      "velocity": 0.57,
      "hand": "left"
    },
    {
      "midi": 63,
      "time": 14.717,
      "duration": 0.566,
      "velocity": 0.59,
      "hand": "right"
    },
    {
      "midi": 67,
      "time": 14.717,
      "duration": 0.566,
      "velocity": 0.59,
      "hand": "right"
    },
    {
      "midi": 51,
      "time": 15.566,
      "duration": 1.132,
      "velocity": 0.52,
      "hand": "left"
    },
    {
      "midi": 55,
      "time": 15.566,
      "duration": 0.849,
      "velocity": 0.53,
      "hand": "left"
    },
    {
      "midi": 67,
      "time": 15.566,
      "duration": 0.849,
      "velocity": 0.6,
      "hand": "right"
    },
    {
      "midi": 70,
      "time": 15.566,
      "duration": 0.849,
      "velocity": 0.6,
      "hand": "right"
    },
    {
      "midi": 57,
      "time": 16.415,
      "duration": 0.283,
      "velocity": 0.59,
      "hand": "left"
    },
    {
      "midi": 65,
      "time": 16.415,
      "duration": 0.283,
      "velocity": 0.52,
      "hand": "right"
    },
    {
      "midi": 69,
      "time": 16.415,
      "duration": 0.283,
      "velocity": 0.52,
      "hand": "right"
    },
    {
      "midi": 51,
      "time": 16.698,
      "duration": 0.566,
      "velocity": 0.58,
      "hand": "left"
    },
    {
      "midi": 58,
      "time": 16.698,
      "duration": 0.566,
      "velocity": 0.58,
      "hand": "left"
    },
    {
      "midi": 63,
      "time": 16.698,
      "duration": 0.566,
      "velocity": 0.52,
      "hand": "right"
    },
    {
      "midi": 67,
      "time": 16.698,
      "duration": 0.566,
      "velocity": 0.52,
      "hand": "right"
    },
    {
      "midi": 46,
      "time": 17.264,
      "duration": 0.849,
      "velocity": 0.55,
      "hand": "left"
    },
    {
      "midi": 58,
      "time": 17.264,
      "duration": 0.849,
      "velocity": 0.55,
      "hand": "left"
    },
    {
      "midi": 62,
      "time": 17.264,
      "duration": 0.849,
      "velocity": 0.5,
      "hand": "right"
    },
    {
      "midi": 65,
      "time": 17.264,
      "duration": 0.849,
      "velocity": 0.5,
      "hand": "right"
    },
    {
      "midi": 46,
      "time": 18.113,
      "duration": 0.283,
      "velocity": 0.54,
      "hand": "left"
    },
    {
      "midi": 58,
      "time": 18.113,
      "duration": 0.283,
      "velocity": 0.54,
      "hand": "left"
    },
    {
      "midi": 63,
      "time": 18.113,
      "duration": 0.283,
      "velocity": 0.58,
      "hand": "right"
    },
    {
      "midi": 67,
      "time": 18.113,
      "duration": 0.283,
      "velocity": 0.58,
      "hand": "right"
    },
    {
      "midi": 46,
      "time": 18.396,
      "duration": 0.566,
      "velocity": 0.57,
      "hand": "left"
    },
    {
      "midi": 58,
      "time": 18.396,
      "duration": 0.566,
      "velocity": 0.57,
      "hand": "left"
    },
    {
      "midi": 62,
      "time": 18.396,
      "duration": 0.566,
      "velocity": 0.51,
      "hand": "right"
    },
    {
      "midi": 65,
      "time": 18.396,
      "duration": 0.566,
      "velocity": 0.51,
      "hand": "right"
    },
    {
      "midi": 46,
      "time": 18.962,
      "duration": 1.698,
      "velocity": 0.52,
      "hand": "left"
    },
    {
      "midi": 53,
      "time": 18.962,
      "duration": 1.698,
      "velocity": 0.52,
      "hand": "left"
    },
    {
      "midi": 58,
      "time": 18.962,
      "duration": 1.698,
      "velocity": 0.45,
      "hand": "left"
    },
    {
      "midi": 62,
      "time": 18.962,
      "duration": 1.698,
      "velocity": 0.45,
      "hand": "right"
    },
    {
      "midi": 51,
      "time": 20.66,
      "duration": 1.132,
      "velocity": 0.57,
      "hand": "left"
    },
    {
      "midi": 58,
      "time": 20.66,
      "duration": 1.132,
      "velocity": 0.57,
      "hand": "left"
    },
    {
      "midi": 63,
      "time": 20.66,
      "duration": 1.132,
      "velocity": 0.66,
      "hand": "right"
    },
    {
      "midi": 67,
      "time": 20.66,
      "duration": 1.132,
      "velocity": 0.66,
      "hand": "right"
    },
    {
      "midi": 51,
      "time": 21.792,
      "duration": 0.566,
      "velocity": 0.58,
      "hand": "left"
    },
    {
      "midi": 58,
      "time": 21.792,
      "duration": 0.566,
      "velocity": 0.58,
      "hand": "left"
    },
    {
      "midi": 63,
      "time": 21.792,
      "duration": 0.566,
      "velocity": 0.62,
      "hand": "right"
    },
    {
      "midi": 67,
      "time": 21.792,
      "duration": 0.566,
      "velocity": 0.62,
      "hand": "right"
    },
    {
      "midi": 51,
      "time": 22.358,
      "duration": 0.849,
      "velocity": 0.51,
      "hand": "left"
    },
    {
      "midi": 55,
      "time": 22.358,
      "duration": 0.849,
      "velocity": 0.51,
      "hand": "left"
    },
    {
      "midi": 67,
      "time": 22.358,
      "duration": 0.849,
      "velocity": 0.6,
      "hand": "right"
    },
    {
      "midi": 70,
      "time": 22.358,
      "duration": 0.849,
      "velocity": 0.6,
      "hand": "right"
    },
    {
      "midi": 51,
      "time": 23.208,
      "duration": 0.283,
      "velocity": 0.59,
      "hand": "left"
    },
    {
      "midi": 57,
      "time": 23.208,
      "duration": 0.283,
      "velocity": 0.59,
      "hand": "left"
    },
    {
      "midi": 65,
      "time": 23.208,
      "duration": 0.283,
      "velocity": 0.52,
      "hand": "right"
    },
    {
      "midi": 69,
      "time": 23.208,
      "duration": 0.283,
      "velocity": 0.52,
      "hand": "right"
    },
    {
      "midi": 51,
      "time": 23.491,
      "duration": 0.566,
      "velocity": 0.57,
      "hand": "left"
    },
    {
      "midi": 58,
      "time": 23.491,
      "duration": 0.566,
      "velocity": 0.57,
      "hand": "left"
    },
    {
      "midi": 63,
      "time": 23.491,
      "duration": 0.566,
      "velocity": 0.53,
      "hand": "right"
    },
    {
      "midi": 67,
      "time": 23.491,
      "duration": 0.566,
      "velocity": 0.53,
      "hand": "right"
    },
    {
      "midi": 46,
      "time": 24.057,
      "duration": 0.849,
      "velocity": 0.57,
      "hand": "left"
    },
    {
      "midi": 58,
      "time": 24.057,
      "duration": 0.849,
      "velocity": 0.57,
      "hand": "left"
    },
    {
      "midi": 62,
      "time": 24.057,
      "duration": 0.849,
      "velocity": 0.5,
      "hand": "right"
    },
    {
      "midi": 65,
      "time": 24.057,
      "duration": 0.849,
      "velocity": 0.5,
      "hand": "right"
    },
    {
      "midi": 46,
      "time": 24.906,
      "duration": 0.283,
      "velocity": 0.54,
      "hand": "left"
    },
    {
      "midi": 58,
      "time": 24.906,
      "duration": 0.283,
      "velocity": 0.54,
      "hand": "left"
    },
    {
      "midi": 63,
      "time": 24.906,
      "duration": 0.283,
      "velocity": 0.57,
      "hand": "right"
    },
    {
      "midi": 67,
      "time": 24.906,
      "duration": 0.283,
      "velocity": 0.57,
      "hand": "right"
    },
    {
      "midi": 46,
      "time": 25.189,
      "duration": 0.566,
      "velocity": 0.55,
      "hand": "left"
    },
    {
      "midi": 58,
      "time": 25.189,
      "duration": 0.566,
      "velocity": 0.55,
      "hand": "left"
    },
    {
      "midi": 62,
      "time": 25.189,
      "duration": 0.566,
      "velocity": 0.54,
      "hand": "right"
    },
    {
      "midi": 65,
      "time": 25.189,
      "duration": 0.566,
      "velocity": 0.54,
      "hand": "right"
    },
    {
      "midi": 46,
      "time": 25.755,
      "duration": 1.698,
      "velocity": 0.52,
      "hand": "left"
    },
    {
      "midi": 53,
      "time": 25.755,
      "duration": 1.698,
      "velocity": 0.52,
      "hand": "left"
    },
    {
      "midi": 58,
      "time": 25.755,
      "duration": 1.698,
      "velocity": 0.49,
      "hand": "left"
    },
    {
      "midi": 62,
      "time": 25.755,
      "duration": 1.698,
      "velocity": 0.49,
      "hand": "right"
    },
    {
      "midi": 53,
      "time": 27.453,
      "duration": 1.132,
      "velocity": 0.62,
      "hand": "left"
    },
    {
      "midi": 57,
      "time": 27.453,
      "duration": 1.132,
      "velocity": 0.62,
      "hand": "left"
    },
    {
      "midi": 63,
      "time": 27.453,
      "duration": 1.132,
      "velocity": 0.67,
      "hand": "right"
    },
    {
      "midi": 72,
      "time": 27.453,
      "duration": 1.132,
      "velocity": 0.67,
      "hand": "right"
    },
    {
      "midi": 53,
      "time": 28.585,
      "duration": 0.566,
      "velocity": 0.57,
      "hand": "left"
    },
    {
      "midi": 57,
      "time": 28.585,
      "duration": 0.566,
      "velocity": 0.57,
      "hand": "left"
    },
    {
      "midi": 63,
      "time": 28.585,
      "duration": 0.566,
      "velocity": 0.59,
      "hand": "right"
    },
    {
      "midi": 72,
      "time": 28.585,
      "duration": 0.566,
      "velocity": 0.59,
      "hand": "right"
    },
    {
      "midi": 53,
      "time": 29.151,
      "duration": 0.849,
      "velocity": 0.57,
      "hand": "left"
    },
    {
      "midi": 60,
      "time": 29.151,
      "duration": 0.849,
      "velocity": 0.57,
      "hand": "right"
    },
    {
      "midi": 69,
      "time": 29.151,
      "duration": 0.849,
      "velocity": 0.57,
      "hand": "right"
    },
    {
      "midi": 75,
      "time": 29.151,
      "duration": 0.849,
      "velocity": 0.57,
      "hand": "right"
    },
    {
      "midi": 53,
      "time": 30,
      "duration": 0.283,
      "velocity": 0.56,
      "hand": "left"
    },
    {
      "midi": 57,
      "time": 30,
      "duration": 0.283,
      "velocity": 0.56,
      "hand": "left"
    },
    {
      "midi": 63,
      "time": 30,
      "duration": 0.283,
      "velocity": 0.5,
      "hand": "right"
    },
    {
      "midi": 72,
      "time": 30,
      "duration": 0.283,
      "velocity": 0.5,
      "hand": "right"
    },
    {
      "midi": 53,
      "time": 30.283,
      "duration": 0.566,
      "velocity": 0.53,
      "hand": "left"
    },
    {
      "midi": 60,
      "time": 30.283,
      "duration": 0.566,
      "velocity": 0.5,
      "hand": "right"
    },
    {
      "midi": 69,
      "time": 30.283,
      "duration": 0.566,
      "velocity": 0.5,
      "hand": "right"
    },
    {
      "midi": 46,
      "time": 30.849,
      "duration": 3.396,
      "velocity": 0.53,
      "hand": "left"
    },
    {
      "midi": 53,
      "time": 30.849,
      "duration": 1.698,
      "velocity": 0.57,
      "hand": "left"
    },
    {
      "midi": 62,
      "time": 30.849,
      "duration": 1.698,
      "velocity": 0.52,
      "hand": "right"
    },
    {
      "midi": 70,
      "time": 30.849,
      "duration": 1.698,
      "velocity": 0.52,
      "hand": "right"
    },
    {
      "midi": 58,
      "time": 32.547,
      "duration": 1.698,
      "velocity": 0.57,
      "hand": "left"
    },
    {
      "midi": 65,
      "time": 32.547,
      "duration": 1.698,
      "velocity": 0.62,
      "hand": "right"
    },
    {
      "midi": 74,
      "time": 32.547,
      "duration": 1.698,
      "velocity": 0.62,
      "hand": "right"
    },
    {
      "midi": 53,
      "time": 34.245,
      "duration": 1.132,
      "velocity": 0.53,
      "hand": "left"
    },
    {
      "midi": 58,
      "time": 34.245,
      "duration": 1.132,
      "velocity": 0.53,
      "hand": "left"
    },
    {
      "midi": 62,
      "time": 34.245,
      "duration": 1.132,
      "velocity": 0.51,
      "hand": "right"
    },
    {
      "midi": 70,
      "time": 34.245,
      "duration": 0.849,
      "velocity": 0.53,
      "hand": "right"
    },
    {
      "midi": 65,
      "time": 35.094,
      "duration": 0.283,
      "velocity": 0.46,
      "hand": "right"
    },
    {
      "midi": 53,
      "time": 35.377,
      "duration": 0.566,
      "velocity": 0.51,
      "hand": "left"
    },
    {
      "midi": 58,
      "time": 35.377,
      "duration": 0.566,
      "velocity": 0.46,
      "hand": "left"
    },
    {
      "midi": 62,
      "time": 35.377,
      "duration": 0.566,
      "velocity": 0.46,
      "hand": "right"
    },
    {
      "midi": 41,
      "time": 35.943,
      "duration": 0.849,
      "velocity": 0.6,
      "hand": "left"
    },
    {
      "midi": 53,
      "time": 35.943,
      "duration": 0.849,
      "velocity": 0.6,
      "hand": "left"
    },
    {
      "midi": 62,
      "time": 35.943,
      "duration": 0.849,
      "velocity": 0.6,
      "hand": "right"
    },
    {
      "midi": 65,
      "time": 35.943,
      "duration": 0.849,
      "velocity": 0.6,
      "hand": "right"
    },
    {
      "midi": 41,
      "time": 36.792,
      "duration": 0.283,
      "velocity": 0.55,
      "hand": "left"
    },
    {
      "midi": 53,
      "time": 36.792,
      "duration": 0.283,
      "velocity": 0.55,
      "hand": "left"
    },
    {
      "midi": 60,
      "time": 36.792,
      "duration": 0.283,
      "velocity": 0.54,
      "hand": "right"
    },
    {
      "midi": 63,
      "time": 36.792,
      "duration": 0.283,
      "velocity": 0.54,
      "hand": "right"
    },
    {
      "midi": 41,
      "time": 37.075,
      "duration": 0.566,
      "velocity": 0.5,
      "hand": "left"
    },
    {
      "midi": 51,
      "time": 37.075,
      "duration": 0.566,
      "velocity": 0.5,
      "hand": "left"
    },
    {
      "midi": 57,
      "time": 37.075,
      "duration": 0.566,
      "velocity": 0.52,
      "hand": "left"
    },
    {
      "midi": 60,
      "time": 37.075,
      "duration": 0.566,
      "velocity": 0.52,
      "hand": "right"
    },
    {
      "midi": 46,
      "time": 37.642,
      "duration": 3.396,
      "velocity": 0.55,
      "hand": "left"
    },
    {
      "midi": 50,
      "time": 37.642,
      "duration": 3.396,
      "velocity": 0.55,
      "hand": "left"
    },
    {
      "midi": 58,
      "time": 37.642,
      "duration": 3.396,
      "velocity": 0.5,
      "hand": "left"
    }
  ],
  "arrangements": {
    "easy": [
      {
        "midi": 65,
        "time": 0,
        "duration": 0.849,
        "velocity": 0.53,
        "hand": "right"
      },
      {
        "midi": 67,
        "time": 0.849,
        "duration": 0.377,
        "velocity": 0.6,
        "hand": "right"
      },
      {
        "midi": 65,
        "time": 1.132,
        "duration": 0.566,
        "velocity": 0.54,
        "hand": "right"
      },
      {
        "midi": 62,
        "time": 1.698,
        "duration": 1.698,
        "velocity": 0.5,
        "hand": "right"
      },
      {
        "midi": 65,
        "time": 3.396,
        "duration": 0.849,
        "velocity": 0.61,
        "hand": "right"
      },
      {
        "midi": 67,
        "time": 4.245,
        "duration": 0.377,
        "velocity": 0.6,
        "hand": "right"
      },
      {
        "midi": 65,
        "time": 4.528,
        "duration": 0.566,
        "velocity": 0.5,
        "hand": "right"
      },
      {
        "midi": 62,
        "time": 5.094,
        "duration": 1.698,
        "velocity": 0.53,
        "hand": "right"
      },
      {
        "midi": 72,
        "time": 6.792,
        "duration": 1.132,
        "velocity": 0.7,
        "hand": "right"
      },
      {
        "midi": 72,
        "time": 7.925,
        "duration": 0.566,
        "velocity": 0.56,
        "hand": "right"
      },
      {
        "midi": 69,
        "time": 8.491,
        "duration": 1.698,
        "velocity": 0.5,
        "hand": "right"
      },
      {
        "midi": 70,
        "time": 10.189,
        "duration": 1.132,
        "velocity": 0.58,
        "hand": "right"
      },
      {
        "midi": 70,
        "time": 11.321,
        "duration": 0.566,
        "velocity": 0.56,
        "hand": "right"
      },
      {
        "midi": 65,
        "time": 11.887,
        "duration": 1.698,
        "velocity": 0.49,
        "hand": "right"
      },
      {
        "midi": 67,
        "time": 13.585,
        "duration": 1.132,
        "velocity": 0.54,
        "hand": "right"
      },
      {
        "midi": 67,
        "time": 14.717,
        "duration": 0.566,
        "velocity": 0.59,
        "hand": "right"
      },
      {
        "midi": 70,
        "time": 15.566,
        "duration": 0.849,
        "velocity": 0.6,
        "hand": "right"
      },
      {
        "midi": 69,
        "time": 16.415,
        "duration": 0.377,
        "velocity": 0.52,
        "hand": "right"
      },
      {
        "midi": 67,
        "time": 16.698,
        "duration": 0.566,
        "velocity": 0.52,
        "hand": "right"
      },
      {
        "midi": 65,
        "time": 17.264,
        "duration": 0.849,
        "velocity": 0.5,
        "hand": "right"
      },
      {
        "midi": 67,
        "time": 18.113,
        "duration": 0.377,
        "velocity": 0.58,
        "hand": "right"
      },
      {
        "midi": 65,
        "time": 18.396,
        "duration": 0.566,
        "velocity": 0.51,
        "hand": "right"
      },
      {
        "midi": 62,
        "time": 18.962,
        "duration": 1.698,
        "velocity": 0.45,
        "hand": "right"
      },
      {
        "midi": 67,
        "time": 20.66,
        "duration": 1.132,
        "velocity": 0.66,
        "hand": "right"
      },
      {
        "midi": 67,
        "time": 21.792,
        "duration": 0.566,
        "velocity": 0.62,
        "hand": "right"
      },
      {
        "midi": 70,
        "time": 22.358,
        "duration": 0.849,
        "velocity": 0.6,
        "hand": "right"
      },
      {
        "midi": 69,
        "time": 23.208,
        "duration": 0.377,
        "velocity": 0.52,
        "hand": "right"
      },
      {
        "midi": 67,
        "time": 23.491,
        "duration": 0.566,
        "velocity": 0.53,
        "hand": "right"
      },
      {
        "midi": 65,
        "time": 24.057,
        "duration": 0.849,
        "velocity": 0.5,
        "hand": "right"
      },
      {
        "midi": 67,
        "time": 24.906,
        "duration": 0.377,
        "velocity": 0.57,
        "hand": "right"
      },
      {
        "midi": 65,
        "time": 25.189,
        "duration": 0.566,
        "velocity": 0.54,
        "hand": "right"
      },
      {
        "midi": 62,
        "time": 25.755,
        "duration": 1.698,
        "velocity": 0.49,
        "hand": "right"
      },
      {
        "midi": 72,
        "time": 27.453,
        "duration": 1.132,
        "velocity": 0.67,
        "hand": "right"
      },
      {
        "midi": 72,
        "time": 28.585,
        "duration": 0.566,
        "velocity": 0.59,
        "hand": "right"
      },
      {
        "midi": 75,
        "time": 29.151,
        "duration": 0.849,
        "velocity": 0.57,
        "hand": "right"
      },
      {
        "midi": 72,
        "time": 30,
        "duration": 0.377,
        "velocity": 0.5,
        "hand": "right"
      },
      {
        "midi": 69,
        "time": 30.283,
        "duration": 0.566,
        "velocity": 0.5,
        "hand": "right"
      },
      {
        "midi": 70,
        "time": 30.849,
        "duration": 1.698,
        "velocity": 0.52,
        "hand": "right"
      },
      {
        "midi": 74,
        "time": 32.547,
        "duration": 1.698,
        "velocity": 0.62,
        "hand": "right"
      },
      {
        "midi": 70,
        "time": 34.245,
        "duration": 0.849,
        "velocity": 0.53,
        "hand": "right"
      },
      {
        "midi": 65,
        "time": 35.094,
        "duration": 0.377,
        "velocity": 0.46,
        "hand": "right"
      },
      {
        "midi": 62,
        "time": 35.377,
        "duration": 0.566,
        "velocity": 0.46,
        "hand": "right"
      },
      {
        "midi": 65,
        "time": 35.943,
        "duration": 0.849,
        "velocity": 0.6,
        "hand": "right"
      },
      {
        "midi": 63,
        "time": 36.792,
        "duration": 0.377,
        "velocity": 0.54,
        "hand": "right"
      },
      {
        "midi": 60,
        "time": 37.075,
        "duration": 0.566,
        "velocity": 0.52,
        "hand": "right"
      },
      {
        "midi": 58,
        "time": 37.642,
        "duration": 3.396,
        "velocity": 0.5,
        "hand": "right"
      }
    ],
    "medium": [
      {
        "midi": 46,
        "time": 0,
        "duration": 1.132,
        "velocity": 0.52,
        "hand": "left"
      },
      {
        "midi": 62,
        "time": 0,
        "duration": 0.849,
        "velocity": 0.53,
        "hand": "right"
      },
      {
        "midi": 65,
        "time": 0,
        "duration": 0.849,
        "velocity": 0.53,
        "hand": "right"
      },
      {
        "midi": 63,
        "time": 0.849,
        "duration": 0.283,
        "velocity": 0.6,
        "hand": "right"
      },
      {
        "midi": 67,
        "time": 0.849,
        "duration": 0.283,
        "velocity": 0.6,
        "hand": "right"
      },
      {
        "midi": 46,
        "time": 1.132,
        "duration": 0.566,
        "velocity": 0.54,
        "hand": "left"
      },
      {
        "midi": 62,
        "time": 1.132,
        "duration": 0.566,
        "velocity": 0.54,
        "hand": "right"
      },
      {
        "midi": 65,
        "time": 1.132,
        "duration": 0.566,
        "velocity": 0.54,
        "hand": "right"
      },
      {
        "midi": 46,
        "time": 1.698,
        "duration": 1.698,
        "velocity": 0.52,
        "hand": "left"
      },
      {
        "midi": 58,
        "time": 1.698,
        "duration": 1.698,
        "velocity": 0.5,
        "hand": "left"
      },
      {
        "midi": 62,
        "time": 1.698,
        "duration": 1.698,
        "velocity": 0.5,
        "hand": "right"
      },
      {
        "midi": 46,
        "time": 3.396,
        "duration": 1.132,
        "velocity": 0.57,
        "hand": "left"
      },
      {
        "midi": 62,
        "time": 3.396,
        "duration": 0.849,
        "velocity": 0.61,
        "hand": "right"
      },
      {
        "midi": 65,
        "time": 3.396,
        "duration": 0.849,
        "velocity": 0.61,
        "hand": "right"
      },
      {
        "midi": 63,
        "time": 4.245,
        "duration": 0.283,
        "velocity": 0.6,
        "hand": "right"
      },
      {
        "midi": 67,
        "time": 4.245,
        "duration": 0.283,
        "velocity": 0.6,
        "hand": "right"
      },
      {
        "midi": 46,
        "time": 4.528,
        "duration": 0.566,
        "velocity": 0.54,
        "hand": "left"
      },
      {
        "midi": 62,
        "time": 4.528,
        "duration": 0.566,
        "velocity": 0.5,
        "hand": "right"
      },
      {
        "midi": 65,
        "time": 4.528,
        "duration": 0.566,
        "velocity": 0.5,
        "hand": "right"
      },
      {
        "midi": 46,
        "time": 5.094,
        "duration": 1.698,
        "velocity": 0.54,
        "hand": "left"
      },
      {
        "midi": 58,
        "time": 5.094,
        "duration": 1.698,
        "velocity": 0.53,
        "hand": "left"
      },
      {
        "midi": 62,
        "time": 5.094,
        "duration": 1.698,
        "velocity": 0.53,
        "hand": "right"
      },
      {
        "midi": 53,
        "time": 6.792,
        "duration": 1.132,
        "velocity": 0.57,
        "hand": "left"
      },
      {
        "midi": 63,
        "time": 6.792,
        "duration": 1.132,
        "velocity": 0.7,
        "hand": "right"
      },
      {
        "midi": 72,
        "time": 6.792,
        "duration": 1.132,
        "velocity": 0.7,
        "hand": "right"
      },
      {
        "midi": 53,
        "time": 7.925,
        "duration": 0.566,
        "velocity": 0.57,
        "hand": "left"
      },
      {
        "midi": 63,
        "time": 7.925,
        "duration": 0.566,
        "velocity": 0.56,
        "hand": "right"
      },
      {
        "midi": 72,
        "time": 7.925,
        "duration": 0.566,
        "velocity": 0.56,
        "hand": "right"
      },
      {
        "midi": 53,
        "time": 8.491,
        "duration": 1.698,
        "velocity": 0.53,
        "hand": "left"
      },
      {
        "midi": 60,
        "time": 8.491,
        "duration": 1.698,
        "velocity": 0.5,
        "hand": "right"
      },
      {
        "midi": 69,
        "time": 8.491,
        "duration": 1.698,
        "velocity": 0.5,
        "hand": "right"
      },
      {
        "midi": 46,
        "time": 10.189,
        "duration": 1.132,
        "velocity": 0.56,
        "hand": "left"
      },
      {
        "midi": 62,
        "time": 10.189,
        "duration": 1.132,
        "velocity": 0.58,
        "hand": "right"
      },
      {
        "midi": 70,
        "time": 10.189,
        "duration": 1.132,
        "velocity": 0.58,
        "hand": "right"
      },
      {
        "midi": 46,
        "time": 11.321,
        "duration": 0.566,
        "velocity": 0.55,
        "hand": "left"
      },
      {
        "midi": 62,
        "time": 11.321,
        "duration": 0.566,
        "velocity": 0.56,
        "hand": "right"
      },
      {
        "midi": 70,
        "time": 11.321,
        "duration": 0.566,
        "velocity": 0.56,
        "hand": "right"
      },
      {
        "midi": 46,
        "time": 11.887,
        "duration": 1.698,
        "velocity": 0.58,
        "hand": "left"
      },
      {
        "midi": 62,
        "time": 11.887,
        "duration": 1.698,
        "velocity": 0.49,
        "hand": "right"
      },
      {
        "midi": 65,
        "time": 11.887,
        "duration": 1.698,
        "velocity": 0.49,
        "hand": "right"
      },
      {
        "midi": 51,
        "time": 13.585,
        "duration": 1.132,
        "velocity": 0.57,
        "hand": "left"
      },
      {
        "midi": 63,
        "time": 13.585,
        "duration": 1.132,
        "velocity": 0.54,
        "hand": "right"
      },
      {
        "midi": 67,
        "time": 13.585,
        "duration": 1.132,
        "velocity": 0.54,
        "hand": "right"
      },
      {
        "midi": 51,
        "time": 14.717,
        "duration": 0.566,
        "velocity": 0.57,
        "hand": "left"
      },
      {
        "midi": 63,
        "time": 14.717,
        "duration": 0.566,
        "velocity": 0.59,
        "hand": "right"
      },
      {
        "midi": 67,
        "time": 14.717,
        "duration": 0.566,
        "velocity": 0.59,
        "hand": "right"
      },
      {
        "midi": 51,
        "time": 15.566,
        "duration": 1.132,
        "velocity": 0.52,
        "hand": "left"
      },
      {
        "midi": 67,
        "time": 15.566,
        "duration": 0.849,
        "velocity": 0.6,
        "hand": "right"
      },
      {
        "midi": 70,
        "time": 15.566,
        "duration": 0.849,
        "velocity": 0.6,
        "hand": "right"
      },
      {
        "midi": 57,
        "time": 16.415,
        "duration": 0.283,
        "velocity": 0.59,
        "hand": "left"
      },
      {
        "midi": 65,
        "time": 16.415,
        "duration": 0.283,
        "velocity": 0.52,
        "hand": "right"
      },
      {
        "midi": 69,
        "time": 16.415,
        "duration": 0.283,
        "velocity": 0.52,
        "hand": "right"
      },
      {
        "midi": 51,
        "time": 16.698,
        "duration": 0.566,
        "velocity": 0.58,
        "hand": "left"
      },
      {
        "midi": 63,
        "time": 16.698,
        "duration": 0.566,
        "velocity": 0.52,
        "hand": "right"
      },
      {
        "midi": 67,
        "time": 16.698,
        "duration": 0.566,
        "velocity": 0.52,
        "hand": "right"
      },
      {
        "midi": 46,
        "time": 17.264,
        "duration": 0.849,
        "velocity": 0.55,
        "hand": "left"
      },
      {
        "midi": 62,
        "time": 17.264,
        "duration": 0.849,
        "velocity": 0.5,
        "hand": "right"
      },
      {
        "midi": 65,
        "time": 17.264,
        "duration": 0.849,
        "velocity": 0.5,
        "hand": "right"
      },
      {
        "midi": 46,
        "time": 18.113,
        "duration": 0.283,
        "velocity": 0.54,
        "hand": "left"
      },
      {
        "midi": 63,
        "time": 18.113,
        "duration": 0.283,
        "velocity": 0.58,
        "hand": "right"
      },
      {
        "midi": 67,
        "time": 18.113,
        "duration": 0.283,
        "velocity": 0.58,
        "hand": "right"
      },
      {
        "midi": 46,
        "time": 18.396,
        "duration": 0.566,
        "velocity": 0.57,
        "hand": "left"
      },
      {
        "midi": 62,
        "time": 18.396,
        "duration": 0.566,
        "velocity": 0.51,
        "hand": "right"
      },
      {
        "midi": 65,
        "time": 18.396,
        "duration": 0.566,
        "velocity": 0.51,
        "hand": "right"
      },
      {
        "midi": 46,
        "time": 18.962,
        "duration": 1.698,
        "velocity": 0.52,
        "hand": "left"
      },
      {
        "midi": 58,
        "time": 18.962,
        "duration": 1.698,
        "velocity": 0.45,
        "hand": "left"
      },
      {
        "midi": 62,
        "time": 18.962,
        "duration": 1.698,
        "velocity": 0.45,
        "hand": "right"
      },
      {
        "midi": 51,
        "time": 20.66,
        "duration": 1.132,
        "velocity": 0.57,
        "hand": "left"
      },
      {
        "midi": 63,
        "time": 20.66,
        "duration": 1.132,
        "velocity": 0.66,
        "hand": "right"
      },
      {
        "midi": 67,
        "time": 20.66,
        "duration": 1.132,
        "velocity": 0.66,
        "hand": "right"
      },
      {
        "midi": 51,
        "time": 21.792,
        "duration": 0.566,
        "velocity": 0.58,
        "hand": "left"
      },
      {
        "midi": 63,
        "time": 21.792,
        "duration": 0.566,
        "velocity": 0.62,
        "hand": "right"
      },
      {
        "midi": 67,
        "time": 21.792,
        "duration": 0.566,
        "velocity": 0.62,
        "hand": "right"
      },
      {
        "midi": 51,
        "time": 22.358,
        "duration": 0.849,
        "velocity": 0.51,
        "hand": "left"
      },
      {
        "midi": 67,
        "time": 22.358,
        "duration": 0.849,
        "velocity": 0.6,
        "hand": "right"
      },
      {
        "midi": 70,
        "time": 22.358,
        "duration": 0.849,
        "velocity": 0.6,
        "hand": "right"
      },
      {
        "midi": 51,
        "time": 23.208,
        "duration": 0.283,
        "velocity": 0.59,
        "hand": "left"
      },
      {
        "midi": 65,
        "time": 23.208,
        "duration": 0.283,
        "velocity": 0.52,
        "hand": "right"
      },
      {
        "midi": 69,
        "time": 23.208,
        "duration": 0.283,
        "velocity": 0.52,
        "hand": "right"
      },
      {
        "midi": 51,
        "time": 23.491,
        "duration": 0.566,
        "velocity": 0.57,
        "hand": "left"
      },
      {
        "midi": 63,
        "time": 23.491,
        "duration": 0.566,
        "velocity": 0.53,
        "hand": "right"
      },
      {
        "midi": 67,
        "time": 23.491,
        "duration": 0.566,
        "velocity": 0.53,
        "hand": "right"
      },
      {
        "midi": 46,
        "time": 24.057,
        "duration": 0.849,
        "velocity": 0.57,
        "hand": "left"
      },
      {
        "midi": 62,
        "time": 24.057,
        "duration": 0.849,
        "velocity": 0.5,
        "hand": "right"
      },
      {
        "midi": 65,
        "time": 24.057,
        "duration": 0.849,
        "velocity": 0.5,
        "hand": "right"
      },
      {
        "midi": 46,
        "time": 24.906,
        "duration": 0.283,
        "velocity": 0.54,
        "hand": "left"
      },
      {
        "midi": 63,
        "time": 24.906,
        "duration": 0.283,
        "velocity": 0.57,
        "hand": "right"
      },
      {
        "midi": 67,
        "time": 24.906,
        "duration": 0.283,
        "velocity": 0.57,
        "hand": "right"
      },
      {
        "midi": 46,
        "time": 25.189,
        "duration": 0.566,
        "velocity": 0.55,
        "hand": "left"
      },
      {
        "midi": 62,
        "time": 25.189,
        "duration": 0.566,
        "velocity": 0.54,
        "hand": "right"
      },
      {
        "midi": 65,
        "time": 25.189,
        "duration": 0.566,
        "velocity": 0.54,
        "hand": "right"
      },
      {
        "midi": 46,
        "time": 25.755,
        "duration": 1.698,
        "velocity": 0.52,
        "hand": "left"
      },
      {
        "midi": 58,
        "time": 25.755,
        "duration": 1.698,
        "velocity": 0.49,
        "hand": "left"
      },
      {
        "midi": 62,
        "time": 25.755,
        "duration": 1.698,
        "velocity": 0.49,
        "hand": "right"
      },
      {
        "midi": 53,
        "time": 27.453,
        "duration": 1.132,
        "velocity": 0.62,
        "hand": "left"
      },
      {
        "midi": 63,
        "time": 27.453,
        "duration": 1.132,
        "velocity": 0.67,
        "hand": "right"
      },
      {
        "midi": 72,
        "time": 27.453,
        "duration": 1.132,
        "velocity": 0.67,
        "hand": "right"
      },
      {
        "midi": 53,
        "time": 28.585,
        "duration": 0.566,
        "velocity": 0.57,
        "hand": "left"
      },
      {
        "midi": 63,
        "time": 28.585,
        "duration": 0.566,
        "velocity": 0.59,
        "hand": "right"
      },
      {
        "midi": 72,
        "time": 28.585,
        "duration": 0.566,
        "velocity": 0.59,
        "hand": "right"
      },
      {
        "midi": 53,
        "time": 29.151,
        "duration": 0.849,
        "velocity": 0.57,
        "hand": "left"
      },
      {
        "midi": 69,
        "time": 29.151,
        "duration": 0.849,
        "velocity": 0.57,
        "hand": "right"
      },
      {
        "midi": 75,
        "time": 29.151,
        "duration": 0.849,
        "velocity": 0.57,
        "hand": "right"
      },
      {
        "midi": 53,
        "time": 30,
        "duration": 0.283,
        "velocity": 0.56,
        "hand": "left"
      },
      {
        "midi": 63,
        "time": 30,
        "duration": 0.283,
        "velocity": 0.5,
        "hand": "right"
      },
      {
        "midi": 72,
        "time": 30,
        "duration": 0.283,
        "velocity": 0.5,
        "hand": "right"
      },
      {
        "midi": 53,
        "time": 30.283,
        "duration": 0.566,
        "velocity": 0.53,
        "hand": "left"
      },
      {
        "midi": 60,
        "time": 30.283,
        "duration": 0.566,
        "velocity": 0.5,
        "hand": "right"
      },
      {
        "midi": 69,
        "time": 30.283,
        "duration": 0.566,
        "velocity": 0.5,
        "hand": "right"
      },
      {
        "midi": 46,
        "time": 30.849,
        "duration": 3.396,
        "velocity": 0.53,
        "hand": "left"
      },
      {
        "midi": 62,
        "time": 30.849,
        "duration": 1.698,
        "velocity": 0.52,
        "hand": "right"
      },
      {
        "midi": 70,
        "time": 30.849,
        "duration": 1.698,
        "velocity": 0.52,
        "hand": "right"
      },
      {
        "midi": 58,
        "time": 32.547,
        "duration": 1.698,
        "velocity": 0.57,
        "hand": "left"
      },
      {
        "midi": 65,
        "time": 32.547,
        "duration": 1.698,
        "velocity": 0.62,
        "hand": "right"
      },
      {
        "midi": 74,
        "time": 32.547,
        "duration": 1.698,
        "velocity": 0.62,
        "hand": "right"
      },
      {
        "midi": 53,
        "time": 34.245,
        "duration": 1.132,
        "velocity": 0.53,
        "hand": "left"
      },
      {
        "midi": 62,
        "time": 34.245,
        "duration": 1.132,
        "velocity": 0.51,
        "hand": "right"
      },
      {
        "midi": 70,
        "time": 34.245,
        "duration": 0.849,
        "velocity": 0.53,
        "hand": "right"
      },
      {
        "midi": 65,
        "time": 35.094,
        "duration": 0.283,
        "velocity": 0.46,
        "hand": "right"
      },
      {
        "midi": 53,
        "time": 35.377,
        "duration": 0.566,
        "velocity": 0.51,
        "hand": "left"
      },
      {
        "midi": 58,
        "time": 35.377,
        "duration": 0.566,
        "velocity": 0.46,
        "hand": "left"
      },
      {
        "midi": 62,
        "time": 35.377,
        "duration": 0.566,
        "velocity": 0.46,
        "hand": "right"
      },
      {
        "midi": 41,
        "time": 35.943,
        "duration": 0.849,
        "velocity": 0.6,
        "hand": "left"
      },
      {
        "midi": 62,
        "time": 35.943,
        "duration": 0.849,
        "velocity": 0.6,
        "hand": "right"
      },
      {
        "midi": 65,
        "time": 35.943,
        "duration": 0.849,
        "velocity": 0.6,
        "hand": "right"
      },
      {
        "midi": 41,
        "time": 36.792,
        "duration": 0.283,
        "velocity": 0.55,
        "hand": "left"
      },
      {
        "midi": 60,
        "time": 36.792,
        "duration": 0.283,
        "velocity": 0.54,
        "hand": "right"
      },
      {
        "midi": 63,
        "time": 36.792,
        "duration": 0.283,
        "velocity": 0.54,
        "hand": "right"
      },
      {
        "midi": 41,
        "time": 37.075,
        "duration": 0.566,
        "velocity": 0.5,
        "hand": "left"
      },
      {
        "midi": 57,
        "time": 37.075,
        "duration": 0.566,
        "velocity": 0.52,
        "hand": "left"
      },
      {
        "midi": 60,
        "time": 37.075,
        "duration": 0.566,
        "velocity": 0.52,
        "hand": "right"
      },
      {
        "midi": 46,
        "time": 37.642,
        "duration": 3.396,
        "velocity": 0.55,
        "hand": "left"
      },
      {
        "midi": 50,
        "time": 37.642,
        "duration": 3.396,
        "velocity": 0.55,
        "hand": "left"
      },
      {
        "midi": 58,
        "time": 37.642,
        "duration": 3.396,
        "velocity": 0.5,
        "hand": "left"
      }
    ],
    "hard": [
      {
        "midi": 46,
        "time": 0,
        "duration": 1.132,
        "velocity": 0.52,
        "hand": "left"
      },
      {
        "midi": 58,
        "time": 0,
        "duration": 1.132,
        "velocity": 0.52,
        "hand": "left"
      },
      {
        "midi": 62,
        "time": 0,
        "duration": 0.849,
        "velocity": 0.53,
        "hand": "right"
      },
      {
        "midi": 65,
        "time": 0,
        "duration": 0.849,
        "velocity": 0.53,
        "hand": "right"
      },
      {
        "midi": 63,
        "time": 0.849,
        "duration": 0.283,
        "velocity": 0.6,
        "hand": "right"
      },
      {
        "midi": 67,
        "time": 0.849,
        "duration": 0.283,
        "velocity": 0.6,
        "hand": "right"
      },
      {
        "midi": 46,
        "time": 1.132,
        "duration": 0.566,
        "velocity": 0.54,
        "hand": "left"
      },
      {
        "midi": 58,
        "time": 1.132,
        "duration": 0.566,
        "velocity": 0.54,
        "hand": "left"
      },
      {
        "midi": 62,
        "time": 1.132,
        "duration": 0.566,
        "velocity": 0.54,
        "hand": "right"
      },
      {
        "midi": 65,
        "time": 1.132,
        "duration": 0.566,
        "velocity": 0.54,
        "hand": "right"
      },
      {
        "midi": 46,
        "time": 1.698,
        "duration": 1.698,
        "velocity": 0.52,
        "hand": "left"
      },
      {
        "midi": 53,
        "time": 1.698,
        "duration": 1.698,
        "velocity": 0.52,
        "hand": "left"
      },
      {
        "midi": 58,
        "time": 1.698,
        "duration": 1.698,
        "velocity": 0.5,
        "hand": "left"
      },
      {
        "midi": 62,
        "time": 1.698,
        "duration": 1.698,
        "velocity": 0.5,
        "hand": "right"
      },
      {
        "midi": 46,
        "time": 3.396,
        "duration": 1.132,
        "velocity": 0.57,
        "hand": "left"
      },
      {
        "midi": 58,
        "time": 3.396,
        "duration": 1.132,
        "velocity": 0.57,
        "hand": "left"
      },
      {
        "midi": 62,
        "time": 3.396,
        "duration": 0.849,
        "velocity": 0.61,
        "hand": "right"
      },
      {
        "midi": 65,
        "time": 3.396,
        "duration": 0.849,
        "velocity": 0.61,
        "hand": "right"
      },
      {
        "midi": 63,
        "time": 4.245,
        "duration": 0.283,
        "velocity": 0.6,
        "hand": "right"
      },
      {
        "midi": 67,
        "time": 4.245,
        "duration": 0.283,
        "velocity": 0.6,
        "hand": "right"
      },
      {
        "midi": 46,
        "time": 4.528,
        "duration": 0.566,
        "velocity": 0.54,
        "hand": "left"
      },
      {
        "midi": 58,
        "time": 4.528,
        "duration": 0.566,
        "velocity": 0.54,
        "hand": "left"
      },
      {
        "midi": 62,
        "time": 4.528,
        "duration": 0.566,
        "velocity": 0.5,
        "hand": "right"
      },
      {
        "midi": 65,
        "time": 4.528,
        "duration": 0.566,
        "velocity": 0.5,
        "hand": "right"
      },
      {
        "midi": 46,
        "time": 5.094,
        "duration": 1.698,
        "velocity": 0.54,
        "hand": "left"
      },
      {
        "midi": 53,
        "time": 5.094,
        "duration": 1.698,
        "velocity": 0.54,
        "hand": "left"
      },
      {
        "midi": 58,
        "time": 5.094,
        "duration": 1.698,
        "velocity": 0.53,
        "hand": "left"
      },
      {
        "midi": 62,
        "time": 5.094,
        "duration": 1.698,
        "velocity": 0.53,
        "hand": "right"
      },
      {
        "midi": 53,
        "time": 6.792,
        "duration": 1.132,
        "velocity": 0.57,
        "hand": "left"
      },
      {
        "midi": 57,
        "time": 6.792,
        "duration": 1.132,
        "velocity": 0.57,
        "hand": "left"
      },
      {
        "midi": 63,
        "time": 6.792,
        "duration": 1.132,
        "velocity": 0.7,
        "hand": "right"
      },
      {
        "midi": 72,
        "time": 6.792,
        "duration": 1.132,
        "velocity": 0.7,
        "hand": "right"
      },
      {
        "midi": 53,
        "time": 7.925,
        "duration": 0.566,
        "velocity": 0.57,
        "hand": "left"
      },
      {
        "midi": 57,
        "time": 7.925,
        "duration": 0.566,
        "velocity": 0.57,
        "hand": "left"
      },
      {
        "midi": 63,
        "time": 7.925,
        "duration": 0.566,
        "velocity": 0.56,
        "hand": "right"
      },
      {
        "midi": 72,
        "time": 7.925,
        "duration": 0.566,
        "velocity": 0.56,
        "hand": "right"
      },
      {
        "midi": 53,
        "time": 8.491,
        "duration": 1.698,
        "velocity": 0.53,
        "hand": "left"
      },
      {
        "midi": 60,
        "time": 8.491,
        "duration": 1.698,
        "velocity": 0.5,
        "hand": "right"
      },
      {
        "midi": 69,
        "time": 8.491,
        "duration": 1.698,
        "velocity": 0.5,
        "hand": "right"
      },
      {
        "midi": 46,
        "time": 10.189,
        "duration": 1.132,
        "velocity": 0.56,
        "hand": "left"
      },
      {
        "midi": 53,
        "time": 10.189,
        "duration": 1.132,
        "velocity": 0.56,
        "hand": "left"
      },
      {
        "midi": 62,
        "time": 10.189,
        "duration": 1.132,
        "velocity": 0.58,
        "hand": "right"
      },
      {
        "midi": 70,
        "time": 10.189,
        "duration": 1.132,
        "velocity": 0.58,
        "hand": "right"
      },
      {
        "midi": 46,
        "time": 11.321,
        "duration": 0.566,
        "velocity": 0.55,
        "hand": "left"
      },
      {
        "midi": 53,
        "time": 11.321,
        "duration": 0.566,
        "velocity": 0.55,
        "hand": "left"
      },
      {
        "midi": 62,
        "time": 11.321,
        "duration": 0.566,
        "velocity": 0.56,
        "hand": "right"
      },
      {
        "midi": 70,
        "time": 11.321,
        "duration": 0.566,
        "velocity": 0.56,
        "hand": "right"
      },
      {
        "midi": 46,
        "time": 11.887,
        "duration": 1.698,
        "velocity": 0.58,
        "hand": "left"
      },
      {
        "midi": 58,
        "time": 11.887,
        "duration": 1.698,
        "velocity": 0.58,
        "hand": "left"
      },
      {
        "midi": 62,
        "time": 11.887,
        "duration": 1.698,
        "velocity": 0.49,
        "hand": "right"
      },
      {
        "midi": 65,
        "time": 11.887,
        "duration": 1.698,
        "velocity": 0.49,
        "hand": "right"
      },
      {
        "midi": 51,
        "time": 13.585,
        "duration": 1.132,
        "velocity": 0.57,
        "hand": "left"
      },
      {
        "midi": 58,
        "time": 13.585,
        "duration": 1.132,
        "velocity": 0.57,
        "hand": "left"
      },
      {
        "midi": 63,
        "time": 13.585,
        "duration": 1.132,
        "velocity": 0.54,
        "hand": "right"
      },
      {
        "midi": 67,
        "time": 13.585,
        "duration": 1.132,
        "velocity": 0.54,
        "hand": "right"
      },
      {
        "midi": 51,
        "time": 14.717,
        "duration": 0.566,
        "velocity": 0.57,
        "hand": "left"
      },
      {
        "midi": 58,
        "time": 14.717,
        "duration": 0.566,
        "velocity": 0.57,
        "hand": "left"
      },
      {
        "midi": 63,
        "time": 14.717,
        "duration": 0.566,
        "velocity": 0.59,
        "hand": "right"
      },
      {
        "midi": 67,
        "time": 14.717,
        "duration": 0.566,
        "velocity": 0.59,
        "hand": "right"
      },
      {
        "midi": 51,
        "time": 15.566,
        "duration": 1.132,
        "velocity": 0.52,
        "hand": "left"
      },
      {
        "midi": 55,
        "time": 15.566,
        "duration": 0.849,
        "velocity": 0.53,
        "hand": "left"
      },
      {
        "midi": 67,
        "time": 15.566,
        "duration": 0.849,
        "velocity": 0.6,
        "hand": "right"
      },
      {
        "midi": 70,
        "time": 15.566,
        "duration": 0.849,
        "velocity": 0.6,
        "hand": "right"
      },
      {
        "midi": 57,
        "time": 16.415,
        "duration": 0.283,
        "velocity": 0.59,
        "hand": "left"
      },
      {
        "midi": 65,
        "time": 16.415,
        "duration": 0.283,
        "velocity": 0.52,
        "hand": "right"
      },
      {
        "midi": 69,
        "time": 16.415,
        "duration": 0.283,
        "velocity": 0.52,
        "hand": "right"
      },
      {
        "midi": 51,
        "time": 16.698,
        "duration": 0.566,
        "velocity": 0.58,
        "hand": "left"
      },
      {
        "midi": 58,
        "time": 16.698,
        "duration": 0.566,
        "velocity": 0.58,
        "hand": "left"
      },
      {
        "midi": 63,
        "time": 16.698,
        "duration": 0.566,
        "velocity": 0.52,
        "hand": "right"
      },
      {
        "midi": 67,
        "time": 16.698,
        "duration": 0.566,
        "velocity": 0.52,
        "hand": "right"
      },
      {
        "midi": 46,
        "time": 17.264,
        "duration": 0.849,
        "velocity": 0.55,
        "hand": "left"
      },
      {
        "midi": 58,
        "time": 17.264,
        "duration": 0.849,
        "velocity": 0.55,
        "hand": "left"
      },
      {
        "midi": 62,
        "time": 17.264,
        "duration": 0.849,
        "velocity": 0.5,
        "hand": "right"
      },
      {
        "midi": 65,
        "time": 17.264,
        "duration": 0.849,
        "velocity": 0.5,
        "hand": "right"
      },
      {
        "midi": 46,
        "time": 18.113,
        "duration": 0.283,
        "velocity": 0.54,
        "hand": "left"
      },
      {
        "midi": 58,
        "time": 18.113,
        "duration": 0.283,
        "velocity": 0.54,
        "hand": "left"
      },
      {
        "midi": 63,
        "time": 18.113,
        "duration": 0.283,
        "velocity": 0.58,
        "hand": "right"
      },
      {
        "midi": 67,
        "time": 18.113,
        "duration": 0.283,
        "velocity": 0.58,
        "hand": "right"
      },
      {
        "midi": 46,
        "time": 18.396,
        "duration": 0.566,
        "velocity": 0.57,
        "hand": "left"
      },
      {
        "midi": 58,
        "time": 18.396,
        "duration": 0.566,
        "velocity": 0.57,
        "hand": "left"
      },
      {
        "midi": 62,
        "time": 18.396,
        "duration": 0.566,
        "velocity": 0.51,
        "hand": "right"
      },
      {
        "midi": 65,
        "time": 18.396,
        "duration": 0.566,
        "velocity": 0.51,
        "hand": "right"
      },
      {
        "midi": 46,
        "time": 18.962,
        "duration": 1.698,
        "velocity": 0.52,
        "hand": "left"
      },
      {
        "midi": 53,
        "time": 18.962,
        "duration": 1.698,
        "velocity": 0.52,
        "hand": "left"
      },
      {
        "midi": 58,
        "time": 18.962,
        "duration": 1.698,
        "velocity": 0.45,
        "hand": "left"
      },
      {
        "midi": 62,
        "time": 18.962,
        "duration": 1.698,
        "velocity": 0.45,
        "hand": "right"
      },
      {
        "midi": 51,
        "time": 20.66,
        "duration": 1.132,
        "velocity": 0.57,
        "hand": "left"
      },
      {
        "midi": 58,
        "time": 20.66,
        "duration": 1.132,
        "velocity": 0.57,
        "hand": "left"
      },
      {
        "midi": 63,
        "time": 20.66,
        "duration": 1.132,
        "velocity": 0.66,
        "hand": "right"
      },
      {
        "midi": 67,
        "time": 20.66,
        "duration": 1.132,
        "velocity": 0.66,
        "hand": "right"
      },
      {
        "midi": 51,
        "time": 21.792,
        "duration": 0.566,
        "velocity": 0.58,
        "hand": "left"
      },
      {
        "midi": 58,
        "time": 21.792,
        "duration": 0.566,
        "velocity": 0.58,
        "hand": "left"
      },
      {
        "midi": 63,
        "time": 21.792,
        "duration": 0.566,
        "velocity": 0.62,
        "hand": "right"
      },
      {
        "midi": 67,
        "time": 21.792,
        "duration": 0.566,
        "velocity": 0.62,
        "hand": "right"
      },
      {
        "midi": 51,
        "time": 22.358,
        "duration": 0.849,
        "velocity": 0.51,
        "hand": "left"
      },
      {
        "midi": 55,
        "time": 22.358,
        "duration": 0.849,
        "velocity": 0.51,
        "hand": "left"
      },
      {
        "midi": 67,
        "time": 22.358,
        "duration": 0.849,
        "velocity": 0.6,
        "hand": "right"
      },
      {
        "midi": 70,
        "time": 22.358,
        "duration": 0.849,
        "velocity": 0.6,
        "hand": "right"
      },
      {
        "midi": 51,
        "time": 23.208,
        "duration": 0.283,
        "velocity": 0.59,
        "hand": "left"
      },
      {
        "midi": 57,
        "time": 23.208,
        "duration": 0.283,
        "velocity": 0.59,
        "hand": "left"
      },
      {
        "midi": 65,
        "time": 23.208,
        "duration": 0.283,
        "velocity": 0.52,
        "hand": "right"
      },
      {
        "midi": 69,
        "time": 23.208,
        "duration": 0.283,
        "velocity": 0.52,
        "hand": "right"
      },
      {
        "midi": 51,
        "time": 23.491,
        "duration": 0.566,
        "velocity": 0.57,
        "hand": "left"
      },
      {
        "midi": 58,
        "time": 23.491,
        "duration": 0.566,
        "velocity": 0.57,
        "hand": "left"
      },
      {
        "midi": 63,
        "time": 23.491,
        "duration": 0.566,
        "velocity": 0.53,
        "hand": "right"
      },
      {
        "midi": 67,
        "time": 23.491,
        "duration": 0.566,
        "velocity": 0.53,
        "hand": "right"
      },
      {
        "midi": 46,
        "time": 24.057,
        "duration": 0.849,
        "velocity": 0.57,
        "hand": "left"
      },
      {
        "midi": 58,
        "time": 24.057,
        "duration": 0.849,
        "velocity": 0.57,
        "hand": "left"
      },
      {
        "midi": 62,
        "time": 24.057,
        "duration": 0.849,
        "velocity": 0.5,
        "hand": "right"
      },
      {
        "midi": 65,
        "time": 24.057,
        "duration": 0.849,
        "velocity": 0.5,
        "hand": "right"
      },
      {
        "midi": 46,
        "time": 24.906,
        "duration": 0.283,
        "velocity": 0.54,
        "hand": "left"
      },
      {
        "midi": 58,
        "time": 24.906,
        "duration": 0.283,
        "velocity": 0.54,
        "hand": "left"
      },
      {
        "midi": 63,
        "time": 24.906,
        "duration": 0.283,
        "velocity": 0.57,
        "hand": "right"
      },
      {
        "midi": 67,
        "time": 24.906,
        "duration": 0.283,
        "velocity": 0.57,
        "hand": "right"
      },
      {
        "midi": 46,
        "time": 25.189,
        "duration": 0.566,
        "velocity": 0.55,
        "hand": "left"
      },
      {
        "midi": 58,
        "time": 25.189,
        "duration": 0.566,
        "velocity": 0.55,
        "hand": "left"
      },
      {
        "midi": 62,
        "time": 25.189,
        "duration": 0.566,
        "velocity": 0.54,
        "hand": "right"
      },
      {
        "midi": 65,
        "time": 25.189,
        "duration": 0.566,
        "velocity": 0.54,
        "hand": "right"
      },
      {
        "midi": 46,
        "time": 25.755,
        "duration": 1.698,
        "velocity": 0.52,
        "hand": "left"
      },
      {
        "midi": 53,
        "time": 25.755,
        "duration": 1.698,
        "velocity": 0.52,
        "hand": "left"
      },
      {
        "midi": 58,
        "time": 25.755,
        "duration": 1.698,
        "velocity": 0.49,
        "hand": "left"
      },
      {
        "midi": 62,
        "time": 25.755,
        "duration": 1.698,
        "velocity": 0.49,
        "hand": "right"
      },
      {
        "midi": 53,
        "time": 27.453,
        "duration": 1.132,
        "velocity": 0.62,
        "hand": "left"
      },
      {
        "midi": 57,
        "time": 27.453,
        "duration": 1.132,
        "velocity": 0.62,
        "hand": "left"
      },
      {
        "midi": 63,
        "time": 27.453,
        "duration": 1.132,
        "velocity": 0.67,
        "hand": "right"
      },
      {
        "midi": 72,
        "time": 27.453,
        "duration": 1.132,
        "velocity": 0.67,
        "hand": "right"
      },
      {
        "midi": 53,
        "time": 28.585,
        "duration": 0.566,
        "velocity": 0.57,
        "hand": "left"
      },
      {
        "midi": 57,
        "time": 28.585,
        "duration": 0.566,
        "velocity": 0.57,
        "hand": "left"
      },
      {
        "midi": 63,
        "time": 28.585,
        "duration": 0.566,
        "velocity": 0.59,
        "hand": "right"
      },
      {
        "midi": 72,
        "time": 28.585,
        "duration": 0.566,
        "velocity": 0.59,
        "hand": "right"
      },
      {
        "midi": 53,
        "time": 29.151,
        "duration": 0.849,
        "velocity": 0.57,
        "hand": "left"
      },
      {
        "midi": 60,
        "time": 29.151,
        "duration": 0.849,
        "velocity": 0.57,
        "hand": "right"
      },
      {
        "midi": 69,
        "time": 29.151,
        "duration": 0.849,
        "velocity": 0.57,
        "hand": "right"
      },
      {
        "midi": 75,
        "time": 29.151,
        "duration": 0.849,
        "velocity": 0.57,
        "hand": "right"
      },
      {
        "midi": 53,
        "time": 30,
        "duration": 0.283,
        "velocity": 0.56,
        "hand": "left"
      },
      {
        "midi": 57,
        "time": 30,
        "duration": 0.283,
        "velocity": 0.56,
        "hand": "left"
      },
      {
        "midi": 63,
        "time": 30,
        "duration": 0.283,
        "velocity": 0.5,
        "hand": "right"
      },
      {
        "midi": 72,
        "time": 30,
        "duration": 0.283,
        "velocity": 0.5,
        "hand": "right"
      },
      {
        "midi": 53,
        "time": 30.283,
        "duration": 0.566,
        "velocity": 0.53,
        "hand": "left"
      },
      {
        "midi": 60,
        "time": 30.283,
        "duration": 0.566,
        "velocity": 0.5,
        "hand": "right"
      },
      {
        "midi": 69,
        "time": 30.283,
        "duration": 0.566,
        "velocity": 0.5,
        "hand": "right"
      },
      {
        "midi": 46,
        "time": 30.849,
        "duration": 3.396,
        "velocity": 0.53,
        "hand": "left"
      },
      {
        "midi": 53,
        "time": 30.849,
        "duration": 1.698,
        "velocity": 0.57,
        "hand": "left"
      },
      {
        "midi": 62,
        "time": 30.849,
        "duration": 1.698,
        "velocity": 0.52,
        "hand": "right"
      },
      {
        "midi": 70,
        "time": 30.849,
        "duration": 1.698,
        "velocity": 0.52,
        "hand": "right"
      },
      {
        "midi": 58,
        "time": 32.547,
        "duration": 1.698,
        "velocity": 0.57,
        "hand": "left"
      },
      {
        "midi": 65,
        "time": 32.547,
        "duration": 1.698,
        "velocity": 0.62,
        "hand": "right"
      },
      {
        "midi": 74,
        "time": 32.547,
        "duration": 1.698,
        "velocity": 0.62,
        "hand": "right"
      },
      {
        "midi": 53,
        "time": 34.245,
        "duration": 1.132,
        "velocity": 0.53,
        "hand": "left"
      },
      {
        "midi": 58,
        "time": 34.245,
        "duration": 1.132,
        "velocity": 0.53,
        "hand": "left"
      },
      {
        "midi": 62,
        "time": 34.245,
        "duration": 1.132,
        "velocity": 0.51,
        "hand": "right"
      },
      {
        "midi": 70,
        "time": 34.245,
        "duration": 0.849,
        "velocity": 0.53,
        "hand": "right"
      },
      {
        "midi": 65,
        "time": 35.094,
        "duration": 0.283,
        "velocity": 0.46,
        "hand": "right"
      },
      {
        "midi": 53,
        "time": 35.377,
        "duration": 0.566,
        "velocity": 0.51,
        "hand": "left"
      },
      {
        "midi": 58,
        "time": 35.377,
        "duration": 0.566,
        "velocity": 0.46,
        "hand": "left"
      },
      {
        "midi": 62,
        "time": 35.377,
        "duration": 0.566,
        "velocity": 0.46,
        "hand": "right"
      },
      {
        "midi": 41,
        "time": 35.943,
        "duration": 0.849,
        "velocity": 0.6,
        "hand": "left"
      },
      {
        "midi": 53,
        "time": 35.943,
        "duration": 0.849,
        "velocity": 0.6,
        "hand": "left"
      },
      {
        "midi": 62,
        "time": 35.943,
        "duration": 0.849,
        "velocity": 0.6,
        "hand": "right"
      },
      {
        "midi": 65,
        "time": 35.943,
        "duration": 0.849,
        "velocity": 0.6,
        "hand": "right"
      },
      {
        "midi": 41,
        "time": 36.792,
        "duration": 0.283,
        "velocity": 0.55,
        "hand": "left"
      },
      {
        "midi": 53,
        "time": 36.792,
        "duration": 0.283,
        "velocity": 0.55,
        "hand": "left"
      },
      {
        "midi": 60,
        "time": 36.792,
        "duration": 0.283,
        "velocity": 0.54,
        "hand": "right"
      },
      {
        "midi": 63,
        "time": 36.792,
        "duration": 0.283,
        "velocity": 0.54,
        "hand": "right"
      },
      {
        "midi": 41,
        "time": 37.075,
        "duration": 0.566,
        "velocity": 0.5,
        "hand": "left"
      },
      {
        "midi": 51,
        "time": 37.075,
        "duration": 0.566,
        "velocity": 0.5,
        "hand": "left"
      },
      {
        "midi": 57,
        "time": 37.075,
        "duration": 0.566,
        "velocity": 0.52,
        "hand": "left"
      },
      {
        "midi": 60,
        "time": 37.075,
        "duration": 0.566,
        "velocity": 0.52,
        "hand": "right"
      },
      {
        "midi": 46,
        "time": 37.642,
        "duration": 3.396,
        "velocity": 0.55,
        "hand": "left"
      },
      {
        "midi": 50,
        "time": 37.642,
        "duration": 3.396,
        "velocity": 0.55,
        "hand": "left"
      },
      {
        "midi": 58,
        "time": 37.642,
        "duration": 3.396,
        "velocity": 0.5,
        "hand": "left"
      }
    ]
  },
  "notes1Hand": [
    {
      "midi": 65,
      "time": 0,
      "duration": 0.849,
      "velocity": 0.53,
      "hand": "right"
    },
    {
      "midi": 67,
      "time": 0.849,
      "duration": 0.377,
      "velocity": 0.6,
      "hand": "right"
    },
    {
      "midi": 65,
      "time": 1.132,
      "duration": 0.566,
      "velocity": 0.54,
      "hand": "right"
    },
    {
      "midi": 62,
      "time": 1.698,
      "duration": 1.698,
      "velocity": 0.5,
      "hand": "right"
    },
    {
      "midi": 65,
      "time": 3.396,
      "duration": 0.849,
      "velocity": 0.61,
      "hand": "right"
    },
    {
      "midi": 67,
      "time": 4.245,
      "duration": 0.377,
      "velocity": 0.6,
      "hand": "right"
    },
    {
      "midi": 65,
      "time": 4.528,
      "duration": 0.566,
      "velocity": 0.5,
      "hand": "right"
    },
    {
      "midi": 62,
      "time": 5.094,
      "duration": 1.698,
      "velocity": 0.53,
      "hand": "right"
    },
    {
      "midi": 72,
      "time": 6.792,
      "duration": 1.132,
      "velocity": 0.7,
      "hand": "right"
    },
    {
      "midi": 72,
      "time": 7.925,
      "duration": 0.566,
      "velocity": 0.56,
      "hand": "right"
    },
    {
      "midi": 69,
      "time": 8.491,
      "duration": 1.698,
      "velocity": 0.5,
      "hand": "right"
    },
    {
      "midi": 70,
      "time": 10.189,
      "duration": 1.132,
      "velocity": 0.58,
      "hand": "right"
    },
    {
      "midi": 70,
      "time": 11.321,
      "duration": 0.566,
      "velocity": 0.56,
      "hand": "right"
    },
    {
      "midi": 65,
      "time": 11.887,
      "duration": 1.698,
      "velocity": 0.49,
      "hand": "right"
    },
    {
      "midi": 67,
      "time": 13.585,
      "duration": 1.132,
      "velocity": 0.54,
      "hand": "right"
    },
    {
      "midi": 67,
      "time": 14.717,
      "duration": 0.566,
      "velocity": 0.59,
      "hand": "right"
    },
    {
      "midi": 70,
      "time": 15.566,
      "duration": 0.849,
      "velocity": 0.6,
      "hand": "right"
    },
    {
      "midi": 69,
      "time": 16.415,
      "duration": 0.377,
      "velocity": 0.52,
      "hand": "right"
    },
    {
      "midi": 67,
      "time": 16.698,
      "duration": 0.566,
      "velocity": 0.52,
      "hand": "right"
    },
    {
      "midi": 65,
      "time": 17.264,
      "duration": 0.849,
      "velocity": 0.5,
      "hand": "right"
    },
    {
      "midi": 67,
      "time": 18.113,
      "duration": 0.377,
      "velocity": 0.58,
      "hand": "right"
    },
    {
      "midi": 65,
      "time": 18.396,
      "duration": 0.566,
      "velocity": 0.51,
      "hand": "right"
    },
    {
      "midi": 62,
      "time": 18.962,
      "duration": 1.698,
      "velocity": 0.45,
      "hand": "right"
    },
    {
      "midi": 67,
      "time": 20.66,
      "duration": 1.132,
      "velocity": 0.66,
      "hand": "right"
    },
    {
      "midi": 67,
      "time": 21.792,
      "duration": 0.566,
      "velocity": 0.62,
      "hand": "right"
    },
    {
      "midi": 70,
      "time": 22.358,
      "duration": 0.849,
      "velocity": 0.6,
      "hand": "right"
    },
    {
      "midi": 69,
      "time": 23.208,
      "duration": 0.377,
      "velocity": 0.52,
      "hand": "right"
    },
    {
      "midi": 67,
      "time": 23.491,
      "duration": 0.566,
      "velocity": 0.53,
      "hand": "right"
    },
    {
      "midi": 65,
      "time": 24.057,
      "duration": 0.849,
      "velocity": 0.5,
      "hand": "right"
    },
    {
      "midi": 67,
      "time": 24.906,
      "duration": 0.377,
      "velocity": 0.57,
      "hand": "right"
    },
    {
      "midi": 65,
      "time": 25.189,
      "duration": 0.566,
      "velocity": 0.54,
      "hand": "right"
    },
    {
      "midi": 62,
      "time": 25.755,
      "duration": 1.698,
      "velocity": 0.49,
      "hand": "right"
    },
    {
      "midi": 72,
      "time": 27.453,
      "duration": 1.132,
      "velocity": 0.67,
      "hand": "right"
    },
    {
      "midi": 72,
      "time": 28.585,
      "duration": 0.566,
      "velocity": 0.59,
      "hand": "right"
    },
    {
      "midi": 75,
      "time": 29.151,
      "duration": 0.849,
      "velocity": 0.57,
      "hand": "right"
    },
    {
      "midi": 72,
      "time": 30,
      "duration": 0.377,
      "velocity": 0.5,
      "hand": "right"
    },
    {
      "midi": 69,
      "time": 30.283,
      "duration": 0.566,
      "velocity": 0.5,
      "hand": "right"
    },
    {
      "midi": 70,
      "time": 30.849,
      "duration": 1.698,
      "velocity": 0.52,
      "hand": "right"
    },
    {
      "midi": 74,
      "time": 32.547,
      "duration": 1.698,
      "velocity": 0.62,
      "hand": "right"
    },
    {
      "midi": 70,
      "time": 34.245,
      "duration": 0.849,
      "velocity": 0.53,
      "hand": "right"
    },
    {
      "midi": 65,
      "time": 35.094,
      "duration": 0.377,
      "velocity": 0.46,
      "hand": "right"
    },
    {
      "midi": 62,
      "time": 35.377,
      "duration": 0.566,
      "velocity": 0.46,
      "hand": "right"
    },
    {
      "midi": 65,
      "time": 35.943,
      "duration": 0.849,
      "velocity": 0.6,
      "hand": "right"
    },
    {
      "midi": 63,
      "time": 36.792,
      "duration": 0.377,
      "velocity": 0.54,
      "hand": "right"
    },
    {
      "midi": 60,
      "time": 37.075,
      "duration": 0.566,
      "velocity": 0.52,
      "hand": "right"
    },
    {
      "midi": 58,
      "time": 37.642,
      "duration": 3.396,
      "velocity": 0.5,
      "hand": "right"
    }
  ],
  "notes2Hands": [
    {
      "midi": 46,
      "time": 0,
      "duration": 1.132,
      "velocity": 0.52,
      "hand": "left"
    },
    {
      "midi": 58,
      "time": 0,
      "duration": 1.132,
      "velocity": 0.52,
      "hand": "left"
    },
    {
      "midi": 62,
      "time": 0,
      "duration": 0.849,
      "velocity": 0.53,
      "hand": "right"
    },
    {
      "midi": 65,
      "time": 0,
      "duration": 0.849,
      "velocity": 0.53,
      "hand": "right"
    },
    {
      "midi": 63,
      "time": 0.849,
      "duration": 0.283,
      "velocity": 0.6,
      "hand": "right"
    },
    {
      "midi": 67,
      "time": 0.849,
      "duration": 0.283,
      "velocity": 0.6,
      "hand": "right"
    },
    {
      "midi": 46,
      "time": 1.132,
      "duration": 0.566,
      "velocity": 0.54,
      "hand": "left"
    },
    {
      "midi": 58,
      "time": 1.132,
      "duration": 0.566,
      "velocity": 0.54,
      "hand": "left"
    },
    {
      "midi": 62,
      "time": 1.132,
      "duration": 0.566,
      "velocity": 0.54,
      "hand": "right"
    },
    {
      "midi": 65,
      "time": 1.132,
      "duration": 0.566,
      "velocity": 0.54,
      "hand": "right"
    },
    {
      "midi": 46,
      "time": 1.698,
      "duration": 1.698,
      "velocity": 0.52,
      "hand": "left"
    },
    {
      "midi": 53,
      "time": 1.698,
      "duration": 1.698,
      "velocity": 0.52,
      "hand": "left"
    },
    {
      "midi": 58,
      "time": 1.698,
      "duration": 1.698,
      "velocity": 0.5,
      "hand": "left"
    },
    {
      "midi": 62,
      "time": 1.698,
      "duration": 1.698,
      "velocity": 0.5,
      "hand": "right"
    },
    {
      "midi": 46,
      "time": 3.396,
      "duration": 1.132,
      "velocity": 0.57,
      "hand": "left"
    },
    {
      "midi": 58,
      "time": 3.396,
      "duration": 1.132,
      "velocity": 0.57,
      "hand": "left"
    },
    {
      "midi": 62,
      "time": 3.396,
      "duration": 0.849,
      "velocity": 0.61,
      "hand": "right"
    },
    {
      "midi": 65,
      "time": 3.396,
      "duration": 0.849,
      "velocity": 0.61,
      "hand": "right"
    },
    {
      "midi": 63,
      "time": 4.245,
      "duration": 0.283,
      "velocity": 0.6,
      "hand": "right"
    },
    {
      "midi": 67,
      "time": 4.245,
      "duration": 0.283,
      "velocity": 0.6,
      "hand": "right"
    },
    {
      "midi": 46,
      "time": 4.528,
      "duration": 0.566,
      "velocity": 0.54,
      "hand": "left"
    },
    {
      "midi": 58,
      "time": 4.528,
      "duration": 0.566,
      "velocity": 0.54,
      "hand": "left"
    },
    {
      "midi": 62,
      "time": 4.528,
      "duration": 0.566,
      "velocity": 0.5,
      "hand": "right"
    },
    {
      "midi": 65,
      "time": 4.528,
      "duration": 0.566,
      "velocity": 0.5,
      "hand": "right"
    },
    {
      "midi": 46,
      "time": 5.094,
      "duration": 1.698,
      "velocity": 0.54,
      "hand": "left"
    },
    {
      "midi": 53,
      "time": 5.094,
      "duration": 1.698,
      "velocity": 0.54,
      "hand": "left"
    },
    {
      "midi": 58,
      "time": 5.094,
      "duration": 1.698,
      "velocity": 0.53,
      "hand": "left"
    },
    {
      "midi": 62,
      "time": 5.094,
      "duration": 1.698,
      "velocity": 0.53,
      "hand": "right"
    },
    {
      "midi": 53,
      "time": 6.792,
      "duration": 1.132,
      "velocity": 0.57,
      "hand": "left"
    },
    {
      "midi": 57,
      "time": 6.792,
      "duration": 1.132,
      "velocity": 0.57,
      "hand": "left"
    },
    {
      "midi": 63,
      "time": 6.792,
      "duration": 1.132,
      "velocity": 0.7,
      "hand": "right"
    },
    {
      "midi": 72,
      "time": 6.792,
      "duration": 1.132,
      "velocity": 0.7,
      "hand": "right"
    },
    {
      "midi": 53,
      "time": 7.925,
      "duration": 0.566,
      "velocity": 0.57,
      "hand": "left"
    },
    {
      "midi": 57,
      "time": 7.925,
      "duration": 0.566,
      "velocity": 0.57,
      "hand": "left"
    },
    {
      "midi": 63,
      "time": 7.925,
      "duration": 0.566,
      "velocity": 0.56,
      "hand": "right"
    },
    {
      "midi": 72,
      "time": 7.925,
      "duration": 0.566,
      "velocity": 0.56,
      "hand": "right"
    },
    {
      "midi": 53,
      "time": 8.491,
      "duration": 1.698,
      "velocity": 0.53,
      "hand": "left"
    },
    {
      "midi": 60,
      "time": 8.491,
      "duration": 1.698,
      "velocity": 0.5,
      "hand": "right"
    },
    {
      "midi": 69,
      "time": 8.491,
      "duration": 1.698,
      "velocity": 0.5,
      "hand": "right"
    },
    {
      "midi": 46,
      "time": 10.189,
      "duration": 1.132,
      "velocity": 0.56,
      "hand": "left"
    },
    {
      "midi": 53,
      "time": 10.189,
      "duration": 1.132,
      "velocity": 0.56,
      "hand": "left"
    },
    {
      "midi": 62,
      "time": 10.189,
      "duration": 1.132,
      "velocity": 0.58,
      "hand": "right"
    },
    {
      "midi": 70,
      "time": 10.189,
      "duration": 1.132,
      "velocity": 0.58,
      "hand": "right"
    },
    {
      "midi": 46,
      "time": 11.321,
      "duration": 0.566,
      "velocity": 0.55,
      "hand": "left"
    },
    {
      "midi": 53,
      "time": 11.321,
      "duration": 0.566,
      "velocity": 0.55,
      "hand": "left"
    },
    {
      "midi": 62,
      "time": 11.321,
      "duration": 0.566,
      "velocity": 0.56,
      "hand": "right"
    },
    {
      "midi": 70,
      "time": 11.321,
      "duration": 0.566,
      "velocity": 0.56,
      "hand": "right"
    },
    {
      "midi": 46,
      "time": 11.887,
      "duration": 1.698,
      "velocity": 0.58,
      "hand": "left"
    },
    {
      "midi": 58,
      "time": 11.887,
      "duration": 1.698,
      "velocity": 0.58,
      "hand": "left"
    },
    {
      "midi": 62,
      "time": 11.887,
      "duration": 1.698,
      "velocity": 0.49,
      "hand": "right"
    },
    {
      "midi": 65,
      "time": 11.887,
      "duration": 1.698,
      "velocity": 0.49,
      "hand": "right"
    },
    {
      "midi": 51,
      "time": 13.585,
      "duration": 1.132,
      "velocity": 0.57,
      "hand": "left"
    },
    {
      "midi": 58,
      "time": 13.585,
      "duration": 1.132,
      "velocity": 0.57,
      "hand": "left"
    },
    {
      "midi": 63,
      "time": 13.585,
      "duration": 1.132,
      "velocity": 0.54,
      "hand": "right"
    },
    {
      "midi": 67,
      "time": 13.585,
      "duration": 1.132,
      "velocity": 0.54,
      "hand": "right"
    },
    {
      "midi": 51,
      "time": 14.717,
      "duration": 0.566,
      "velocity": 0.57,
      "hand": "left"
    },
    {
      "midi": 58,
      "time": 14.717,
      "duration": 0.566,
      "velocity": 0.57,
      "hand": "left"
    },
    {
      "midi": 63,
      "time": 14.717,
      "duration": 0.566,
      "velocity": 0.59,
      "hand": "right"
    },
    {
      "midi": 67,
      "time": 14.717,
      "duration": 0.566,
      "velocity": 0.59,
      "hand": "right"
    },
    {
      "midi": 51,
      "time": 15.566,
      "duration": 1.132,
      "velocity": 0.52,
      "hand": "left"
    },
    {
      "midi": 55,
      "time": 15.566,
      "duration": 0.849,
      "velocity": 0.53,
      "hand": "left"
    },
    {
      "midi": 67,
      "time": 15.566,
      "duration": 0.849,
      "velocity": 0.6,
      "hand": "right"
    },
    {
      "midi": 70,
      "time": 15.566,
      "duration": 0.849,
      "velocity": 0.6,
      "hand": "right"
    },
    {
      "midi": 57,
      "time": 16.415,
      "duration": 0.283,
      "velocity": 0.59,
      "hand": "left"
    },
    {
      "midi": 65,
      "time": 16.415,
      "duration": 0.283,
      "velocity": 0.52,
      "hand": "right"
    },
    {
      "midi": 69,
      "time": 16.415,
      "duration": 0.283,
      "velocity": 0.52,
      "hand": "right"
    },
    {
      "midi": 51,
      "time": 16.698,
      "duration": 0.566,
      "velocity": 0.58,
      "hand": "left"
    },
    {
      "midi": 58,
      "time": 16.698,
      "duration": 0.566,
      "velocity": 0.58,
      "hand": "left"
    },
    {
      "midi": 63,
      "time": 16.698,
      "duration": 0.566,
      "velocity": 0.52,
      "hand": "right"
    },
    {
      "midi": 67,
      "time": 16.698,
      "duration": 0.566,
      "velocity": 0.52,
      "hand": "right"
    },
    {
      "midi": 46,
      "time": 17.264,
      "duration": 0.849,
      "velocity": 0.55,
      "hand": "left"
    },
    {
      "midi": 58,
      "time": 17.264,
      "duration": 0.849,
      "velocity": 0.55,
      "hand": "left"
    },
    {
      "midi": 62,
      "time": 17.264,
      "duration": 0.849,
      "velocity": 0.5,
      "hand": "right"
    },
    {
      "midi": 65,
      "time": 17.264,
      "duration": 0.849,
      "velocity": 0.5,
      "hand": "right"
    },
    {
      "midi": 46,
      "time": 18.113,
      "duration": 0.283,
      "velocity": 0.54,
      "hand": "left"
    },
    {
      "midi": 58,
      "time": 18.113,
      "duration": 0.283,
      "velocity": 0.54,
      "hand": "left"
    },
    {
      "midi": 63,
      "time": 18.113,
      "duration": 0.283,
      "velocity": 0.58,
      "hand": "right"
    },
    {
      "midi": 67,
      "time": 18.113,
      "duration": 0.283,
      "velocity": 0.58,
      "hand": "right"
    },
    {
      "midi": 46,
      "time": 18.396,
      "duration": 0.566,
      "velocity": 0.57,
      "hand": "left"
    },
    {
      "midi": 58,
      "time": 18.396,
      "duration": 0.566,
      "velocity": 0.57,
      "hand": "left"
    },
    {
      "midi": 62,
      "time": 18.396,
      "duration": 0.566,
      "velocity": 0.51,
      "hand": "right"
    },
    {
      "midi": 65,
      "time": 18.396,
      "duration": 0.566,
      "velocity": 0.51,
      "hand": "right"
    },
    {
      "midi": 46,
      "time": 18.962,
      "duration": 1.698,
      "velocity": 0.52,
      "hand": "left"
    },
    {
      "midi": 53,
      "time": 18.962,
      "duration": 1.698,
      "velocity": 0.52,
      "hand": "left"
    },
    {
      "midi": 58,
      "time": 18.962,
      "duration": 1.698,
      "velocity": 0.45,
      "hand": "left"
    },
    {
      "midi": 62,
      "time": 18.962,
      "duration": 1.698,
      "velocity": 0.45,
      "hand": "right"
    },
    {
      "midi": 51,
      "time": 20.66,
      "duration": 1.132,
      "velocity": 0.57,
      "hand": "left"
    },
    {
      "midi": 58,
      "time": 20.66,
      "duration": 1.132,
      "velocity": 0.57,
      "hand": "left"
    },
    {
      "midi": 63,
      "time": 20.66,
      "duration": 1.132,
      "velocity": 0.66,
      "hand": "right"
    },
    {
      "midi": 67,
      "time": 20.66,
      "duration": 1.132,
      "velocity": 0.66,
      "hand": "right"
    },
    {
      "midi": 51,
      "time": 21.792,
      "duration": 0.566,
      "velocity": 0.58,
      "hand": "left"
    },
    {
      "midi": 58,
      "time": 21.792,
      "duration": 0.566,
      "velocity": 0.58,
      "hand": "left"
    },
    {
      "midi": 63,
      "time": 21.792,
      "duration": 0.566,
      "velocity": 0.62,
      "hand": "right"
    },
    {
      "midi": 67,
      "time": 21.792,
      "duration": 0.566,
      "velocity": 0.62,
      "hand": "right"
    },
    {
      "midi": 51,
      "time": 22.358,
      "duration": 0.849,
      "velocity": 0.51,
      "hand": "left"
    },
    {
      "midi": 55,
      "time": 22.358,
      "duration": 0.849,
      "velocity": 0.51,
      "hand": "left"
    },
    {
      "midi": 67,
      "time": 22.358,
      "duration": 0.849,
      "velocity": 0.6,
      "hand": "right"
    },
    {
      "midi": 70,
      "time": 22.358,
      "duration": 0.849,
      "velocity": 0.6,
      "hand": "right"
    },
    {
      "midi": 51,
      "time": 23.208,
      "duration": 0.283,
      "velocity": 0.59,
      "hand": "left"
    },
    {
      "midi": 57,
      "time": 23.208,
      "duration": 0.283,
      "velocity": 0.59,
      "hand": "left"
    },
    {
      "midi": 65,
      "time": 23.208,
      "duration": 0.283,
      "velocity": 0.52,
      "hand": "right"
    },
    {
      "midi": 69,
      "time": 23.208,
      "duration": 0.283,
      "velocity": 0.52,
      "hand": "right"
    },
    {
      "midi": 51,
      "time": 23.491,
      "duration": 0.566,
      "velocity": 0.57,
      "hand": "left"
    },
    {
      "midi": 58,
      "time": 23.491,
      "duration": 0.566,
      "velocity": 0.57,
      "hand": "left"
    },
    {
      "midi": 63,
      "time": 23.491,
      "duration": 0.566,
      "velocity": 0.53,
      "hand": "right"
    },
    {
      "midi": 67,
      "time": 23.491,
      "duration": 0.566,
      "velocity": 0.53,
      "hand": "right"
    },
    {
      "midi": 46,
      "time": 24.057,
      "duration": 0.849,
      "velocity": 0.57,
      "hand": "left"
    },
    {
      "midi": 58,
      "time": 24.057,
      "duration": 0.849,
      "velocity": 0.57,
      "hand": "left"
    },
    {
      "midi": 62,
      "time": 24.057,
      "duration": 0.849,
      "velocity": 0.5,
      "hand": "right"
    },
    {
      "midi": 65,
      "time": 24.057,
      "duration": 0.849,
      "velocity": 0.5,
      "hand": "right"
    },
    {
      "midi": 46,
      "time": 24.906,
      "duration": 0.283,
      "velocity": 0.54,
      "hand": "left"
    },
    {
      "midi": 58,
      "time": 24.906,
      "duration": 0.283,
      "velocity": 0.54,
      "hand": "left"
    },
    {
      "midi": 63,
      "time": 24.906,
      "duration": 0.283,
      "velocity": 0.57,
      "hand": "right"
    },
    {
      "midi": 67,
      "time": 24.906,
      "duration": 0.283,
      "velocity": 0.57,
      "hand": "right"
    },
    {
      "midi": 46,
      "time": 25.189,
      "duration": 0.566,
      "velocity": 0.55,
      "hand": "left"
    },
    {
      "midi": 58,
      "time": 25.189,
      "duration": 0.566,
      "velocity": 0.55,
      "hand": "left"
    },
    {
      "midi": 62,
      "time": 25.189,
      "duration": 0.566,
      "velocity": 0.54,
      "hand": "right"
    },
    {
      "midi": 65,
      "time": 25.189,
      "duration": 0.566,
      "velocity": 0.54,
      "hand": "right"
    },
    {
      "midi": 46,
      "time": 25.755,
      "duration": 1.698,
      "velocity": 0.52,
      "hand": "left"
    },
    {
      "midi": 53,
      "time": 25.755,
      "duration": 1.698,
      "velocity": 0.52,
      "hand": "left"
    },
    {
      "midi": 58,
      "time": 25.755,
      "duration": 1.698,
      "velocity": 0.49,
      "hand": "left"
    },
    {
      "midi": 62,
      "time": 25.755,
      "duration": 1.698,
      "velocity": 0.49,
      "hand": "right"
    },
    {
      "midi": 53,
      "time": 27.453,
      "duration": 1.132,
      "velocity": 0.62,
      "hand": "left"
    },
    {
      "midi": 57,
      "time": 27.453,
      "duration": 1.132,
      "velocity": 0.62,
      "hand": "left"
    },
    {
      "midi": 63,
      "time": 27.453,
      "duration": 1.132,
      "velocity": 0.67,
      "hand": "right"
    },
    {
      "midi": 72,
      "time": 27.453,
      "duration": 1.132,
      "velocity": 0.67,
      "hand": "right"
    },
    {
      "midi": 53,
      "time": 28.585,
      "duration": 0.566,
      "velocity": 0.57,
      "hand": "left"
    },
    {
      "midi": 57,
      "time": 28.585,
      "duration": 0.566,
      "velocity": 0.57,
      "hand": "left"
    },
    {
      "midi": 63,
      "time": 28.585,
      "duration": 0.566,
      "velocity": 0.59,
      "hand": "right"
    },
    {
      "midi": 72,
      "time": 28.585,
      "duration": 0.566,
      "velocity": 0.59,
      "hand": "right"
    },
    {
      "midi": 53,
      "time": 29.151,
      "duration": 0.849,
      "velocity": 0.57,
      "hand": "left"
    },
    {
      "midi": 60,
      "time": 29.151,
      "duration": 0.849,
      "velocity": 0.57,
      "hand": "right"
    },
    {
      "midi": 69,
      "time": 29.151,
      "duration": 0.849,
      "velocity": 0.57,
      "hand": "right"
    },
    {
      "midi": 75,
      "time": 29.151,
      "duration": 0.849,
      "velocity": 0.57,
      "hand": "right"
    },
    {
      "midi": 53,
      "time": 30,
      "duration": 0.283,
      "velocity": 0.56,
      "hand": "left"
    },
    {
      "midi": 57,
      "time": 30,
      "duration": 0.283,
      "velocity": 0.56,
      "hand": "left"
    },
    {
      "midi": 63,
      "time": 30,
      "duration": 0.283,
      "velocity": 0.5,
      "hand": "right"
    },
    {
      "midi": 72,
      "time": 30,
      "duration": 0.283,
      "velocity": 0.5,
      "hand": "right"
    },
    {
      "midi": 53,
      "time": 30.283,
      "duration": 0.566,
      "velocity": 0.53,
      "hand": "left"
    },
    {
      "midi": 60,
      "time": 30.283,
      "duration": 0.566,
      "velocity": 0.5,
      "hand": "right"
    },
    {
      "midi": 69,
      "time": 30.283,
      "duration": 0.566,
      "velocity": 0.5,
      "hand": "right"
    },
    {
      "midi": 46,
      "time": 30.849,
      "duration": 3.396,
      "velocity": 0.53,
      "hand": "left"
    },
    {
      "midi": 53,
      "time": 30.849,
      "duration": 1.698,
      "velocity": 0.57,
      "hand": "left"
    },
    {
      "midi": 62,
      "time": 30.849,
      "duration": 1.698,
      "velocity": 0.52,
      "hand": "right"
    },
    {
      "midi": 70,
      "time": 30.849,
      "duration": 1.698,
      "velocity": 0.52,
      "hand": "right"
    },
    {
      "midi": 58,
      "time": 32.547,
      "duration": 1.698,
      "velocity": 0.57,
      "hand": "left"
    },
    {
      "midi": 65,
      "time": 32.547,
      "duration": 1.698,
      "velocity": 0.62,
      "hand": "right"
    },
    {
      "midi": 74,
      "time": 32.547,
      "duration": 1.698,
      "velocity": 0.62,
      "hand": "right"
    },
    {
      "midi": 53,
      "time": 34.245,
      "duration": 1.132,
      "velocity": 0.53,
      "hand": "left"
    },
    {
      "midi": 58,
      "time": 34.245,
      "duration": 1.132,
      "velocity": 0.53,
      "hand": "left"
    },
    {
      "midi": 62,
      "time": 34.245,
      "duration": 1.132,
      "velocity": 0.51,
      "hand": "right"
    },
    {
      "midi": 70,
      "time": 34.245,
      "duration": 0.849,
      "velocity": 0.53,
      "hand": "right"
    },
    {
      "midi": 65,
      "time": 35.094,
      "duration": 0.283,
      "velocity": 0.46,
      "hand": "right"
    },
    {
      "midi": 53,
      "time": 35.377,
      "duration": 0.566,
      "velocity": 0.51,
      "hand": "left"
    },
    {
      "midi": 58,
      "time": 35.377,
      "duration": 0.566,
      "velocity": 0.46,
      "hand": "left"
    },
    {
      "midi": 62,
      "time": 35.377,
      "duration": 0.566,
      "velocity": 0.46,
      "hand": "right"
    },
    {
      "midi": 41,
      "time": 35.943,
      "duration": 0.849,
      "velocity": 0.6,
      "hand": "left"
    },
    {
      "midi": 53,
      "time": 35.943,
      "duration": 0.849,
      "velocity": 0.6,
      "hand": "left"
    },
    {
      "midi": 62,
      "time": 35.943,
      "duration": 0.849,
      "velocity": 0.6,
      "hand": "right"
    },
    {
      "midi": 65,
      "time": 35.943,
      "duration": 0.849,
      "velocity": 0.6,
      "hand": "right"
    },
    {
      "midi": 41,
      "time": 36.792,
      "duration": 0.283,
      "velocity": 0.55,
      "hand": "left"
    },
    {
      "midi": 53,
      "time": 36.792,
      "duration": 0.283,
      "velocity": 0.55,
      "hand": "left"
    },
    {
      "midi": 60,
      "time": 36.792,
      "duration": 0.283,
      "velocity": 0.54,
      "hand": "right"
    },
    {
      "midi": 63,
      "time": 36.792,
      "duration": 0.283,
      "velocity": 0.54,
      "hand": "right"
    },
    {
      "midi": 41,
      "time": 37.075,
      "duration": 0.566,
      "velocity": 0.5,
      "hand": "left"
    },
    {
      "midi": 51,
      "time": 37.075,
      "duration": 0.566,
      "velocity": 0.5,
      "hand": "left"
    },
    {
      "midi": 57,
      "time": 37.075,
      "duration": 0.566,
      "velocity": 0.52,
      "hand": "left"
    },
    {
      "midi": 60,
      "time": 37.075,
      "duration": 0.566,
      "velocity": 0.52,
      "hand": "right"
    },
    {
      "midi": 46,
      "time": 37.642,
      "duration": 3.396,
      "velocity": 0.55,
      "hand": "left"
    },
    {
      "midi": 50,
      "time": 37.642,
      "duration": 3.396,
      "velocity": 0.55,
      "hand": "left"
    },
    {
      "midi": 58,
      "time": 37.642,
      "duration": 3.396,
      "velocity": 0.5,
      "hand": "left"
    }
  ]
}
