{
  "id": "notteegiornomozart",
  "title": "control track",
  "artist": "MIDI Source",
  "difficulty": "Médio",
  "bpm": 155,
  "duration": 113,
  "category": "A revisar",
  "isPremium": true,
  "coverUrl": "/images/covers/placeholder.png",
  "notes": [
    {
      "midi": 53,
      "time": 0,
      "duration": 0.194,
      "velocity": 0.71,
      "hand": "left"
    },
    {
      "midi": 65,
      "time": 0,
      "duration": 0.194,
      "velocity": 0.71,
      "hand": "right"
    },
    {
      "midi": 48,
      "time": 0.387,
      "duration": 0.194,
      "velocity": 0.71,
      "hand": "left"
    },
    {
      "midi": 60,
      "time": 0.387,
      "duration": 0.194,
      "velocity": 0.71,
      "hand": "right"
    },
    {
      "midi": 53,
      "time": 0.774,
      "duration": 0.194,
      "velocity": 0.71,
      "hand": "left"
    },
    {
      "midi": 65,
      "time": 0.774,
      "duration": 0.194,
      "velocity": 0.71,
      "hand": "right"
    },
    {
      "midi": 48,
      "time": 1.161,
      "duration": 0.194,
      "velocity": 0.71,
      "hand": "left"
    },
    {
      "midi": 60,
      "time": 1.161,
      "duration": 0.194,
      "velocity": 0.71,
      "hand": "right"
    },
    {
      "midi": 53,
      "time": 1.548,
      "duration": 0.387,
      "velocity": 0.71,
      "hand": "left"
    },
    {
      "midi": 65,
      "time": 1.548,
      "duration": 0.387,
      "velocity": 0.71,
      "hand": "right"
    },
    {
      "midi": 48,
      "time": 2.129,
      "duration": 0.097,
      "velocity": 0.71,
      "hand": "left"
    },
    {
      "midi": 60,
      "time": 2.129,
      "duration": 0.097,
      "velocity": 0.71,
      "hand": "right"
    },
    {
      "midi": 50,
      "time": 2.226,
      "duration": 0.097,
      "velocity": 0.71,
      "hand": "left"
    },
    {
      "midi": 52,
      "time": 2.226,
      "duration": 0.097,
      "velocity": 0.71,
      "hand": "left"
    },
    {
      "midi": 62,
      "time": 2.226,
      "duration": 0.097,
      "velocity": 0.71,
      "hand": "right"
    },
    {
      "midi": 64,
      "time": 2.226,
      "duration": 0.097,
      "velocity": 0.71,
      "hand": "right"
    },
    {
      "midi": 53,
      "time": 2.323,
      "duration": 0.387,
      "velocity": 0.71,
      "hand": "left"
    },
    {
      "midi": 65,
      "time": 2.323,
      "duration": 0.387,
      "velocity": 0.71,
      "hand": "right"
    },
    {
      "midi": 55,
      "time": 3.097,
      "duration": 0.194,
      "velocity": 0.71,
      "hand": "left"
    },
    {
      "midi": 67,
      "time": 3.097,
      "duration": 0.194,
      "velocity": 0.71,
      "hand": "right"
    },
    {
      "midi": 48,
      "time": 3.484,
      "duration": 0.194,
      "velocity": 0.71,
      "hand": "left"
    },
    {
      "midi": 60,
      "time": 3.484,
      "duration": 0.194,
      "velocity": 0.71,
      "hand": "right"
    },
    {
      "midi": 55,
      "time": 3.871,
      "duration": 0.194,
      "velocity": 0.71,
      "hand": "left"
    },
    {
      "midi": 67,
      "time": 3.871,
      "duration": 0.194,
      "velocity": 0.71,
      "hand": "right"
    },
    {
      "midi": 48,
      "time": 4.258,
      "duration": 0.194,
      "velocity": 0.71,
      "hand": "left"
    },
    {
      "midi": 60,
      "time": 4.258,
      "duration": 0.194,
      "velocity": 0.71,
      "hand": "right"
    },
    {
      "midi": 55,
      "time": 4.645,
      "duration": 0.387,
      "velocity": 0.71,
      "hand": "left"
    },
    {
      "midi": 67,
      "time": 4.645,
      "duration": 0.387,
      "velocity": 0.71,
      "hand": "right"
    },
    {
      "midi": 48,
      "time": 5.226,
      "duration": 0.048,
      "velocity": 0.71,
      "hand": "left"
    },
    {
      "midi": 50,
      "time": 5.226,
      "duration": 0.048,
      "velocity": 0.71,
      "hand": "left"
    },
    {
      "midi": 60,
      "time": 5.226,
      "duration": 0.048,
      "velocity": 0.71,
      "hand": "right"
    },
    {
      "midi": 62,
      "time": 5.226,
      "duration": 0.048,
      "velocity": 0.71,
      "hand": "right"
    },
    {
      "midi": 52,
      "time": 5.323,
      "duration": 0.048,
      "velocity": 0.71,
      "hand": "left"
    },
    {
      "midi": 53,
      "time": 5.323,
      "duration": 0.048,
      "velocity": 0.71,
      "hand": "left"
    },
    {
      "midi": 64,
      "time": 5.323,
      "duration": 0.048,
      "velocity": 0.71,
      "hand": "right"
    },
    {
      "midi": 65,
      "time": 5.323,
      "duration": 0.048,
      "velocity": 0.71,
      "hand": "right"
    },
    {
      "midi": 55,
      "time": 5.419,
      "duration": 0.387,
      "velocity": 0.71,
      "hand": "left"
    },
    {
      "midi": 67,
      "time": 5.419,
      "duration": 0.387,
      "velocity": 0.71,
      "hand": "right"
    },
    {
      "midi": 57,
      "time": 6.194,
      "duration": 0.194,
      "velocity": 0.71,
      "hand": "left"
    },
    {
      "midi": 69,
      "time": 6.194,
      "duration": 0.194,
      "velocity": 0.71,
      "hand": "right"
    },
    {
      "midi": 53,
      "time": 6.581,
      "duration": 0.194,
      "velocity": 0.71,
      "hand": "left"
    },
    {
      "midi": 65,
      "time": 6.581,
      "duration": 0.194,
      "velocity": 0.71,
      "hand": "right"
    },
    {
      "midi": 57,
      "time": 6.968,
      "duration": 0.194,
      "velocity": 0.71,
      "hand": "left"
    },
    {
      "midi": 69,
      "time": 6.968,
      "duration": 0.194,
      "velocity": 0.71,
      "hand": "right"
    },
    {
      "midi": 53,
      "time": 7.355,
      "duration": 0.194,
      "velocity": 0.71,
      "hand": "left"
    },
    {
      "midi": 65,
      "time": 7.355,
      "duration": 0.194,
      "velocity": 0.71,
      "hand": "right"
    },
    {
      "midi": 57,
      "time": 7.742,
      "duration": 0.387,
      "velocity": 0.71,
      "hand": "left"
    },
    {
      "midi": 69,
      "time": 7.742,
      "duration": 0.387,
      "velocity": 0.71,
      "hand": "right"
    },
    {
      "midi": 53,
      "time": 8.323,
      "duration": 0.097,
      "velocity": 0.71,
      "hand": "left"
    },
    {
      "midi": 65,
      "time": 8.323,
      "duration": 0.097,
      "velocity": 0.71,
      "hand": "right"
    },
    {
      "midi": 55,
      "time": 8.419,
      "duration": 0.097,
      "velocity": 0.71,
      "hand": "left"
    },
    {
      "midi": 67,
      "time": 8.419,
      "duration": 0.097,
      "velocity": 0.71,
      "hand": "right"
    },
    {
      "midi": 57,
      "time": 8.516,
      "duration": 0.387,
      "velocity": 0.71,
      "hand": "left"
    },
    {
      "midi": 69,
      "time": 8.516,
      "duration": 0.387,
      "velocity": 0.71,
      "hand": "right"
    },
    {
      "midi": 58,
      "time": 9.29,
      "duration": 0.194,
      "velocity": 0.71,
      "hand": "left"
    },
    {
      "midi": 70,
      "time": 9.29,
      "duration": 0.194,
      "velocity": 0.71,
      "hand": "right"
    },
    {
      "midi": 55,
      "time": 9.677,
      "duration": 0.194,
      "velocity": 0.71,
      "hand": "left"
    },
    {
      "midi": 67,
      "time": 9.677,
      "duration": 0.194,
      "velocity": 0.71,
      "hand": "right"
    },
    {
      "midi": 58,
      "time": 10.065,
      "duration": 0.194,
      "velocity": 0.71,
      "hand": "left"
    },
    {
      "midi": 70,
      "time": 10.065,
      "duration": 0.194,
      "velocity": 0.71,
      "hand": "right"
    },
    {
      "midi": 55,
      "time": 10.452,
      "duration": 0.194,
      "velocity": 0.71,
      "hand": "left"
    },
    {
      "midi": 67,
      "time": 10.452,
      "duration": 0.194,
      "velocity": 0.71,
      "hand": "right"
    },
    {
      "midi": 58,
      "time": 10.839,
      "duration": 0.387,
      "velocity": 0.71,
      "hand": "left"
    },
    {
      "midi": 70,
      "time": 10.839,
      "duration": 0.387,
      "velocity": 0.71,
      "hand": "right"
    },
    {
      "midi": 67,
      "time": 11.419,
      "duration": 0.097,
      "velocity": 0.71,
      "hand": "right"
    },
    {
      "midi": 69,
      "time": 11.516,
      "duration": 0.097,
      "velocity": 0.71,
      "hand": "right"
    },
    {
      "midi": 55,
      "time": 11.613,
      "duration": 0.387,
      "velocity": 0.71,
      "hand": "left"
    },
    {
      "midi": 58,
      "time": 11.613,
      "duration": 0.387,
      "velocity": 0.71,
      "hand": "left"
    },
    {
      "midi": 70,
      "time": 11.613,
      "duration": 0.387,
      "velocity": 0.71,
      "hand": "right"
    },
    {
      "midi": 70,
      "time": 12.194,
      "duration": 0.048,
      "velocity": 0.71,
      "hand": "right"
    },
    {
      "midi": 72,
      "time": 12.194,
      "duration": 0.048,
      "velocity": 0.71,
      "hand": "right"
    },
    {
      "midi": 74,
      "time": 12.29,
      "duration": 0.048,
      "velocity": 0.71,
      "hand": "right"
    },
    {
      "midi": 76,
      "time": 12.29,
      "duration": 0.048,
      "velocity": 0.71,
      "hand": "right"
    },
    {
      "midi": 52,
      "time": 12.387,
      "duration": 0.387,
      "velocity": 0.71,
      "hand": "left"
    },
    {
      "midi": 55,
      "time": 12.387,
      "duration": 0.387,
      "velocity": 0.71,
      "hand": "left"
    },
    {
      "midi": 58,
      "time": 12.387,
      "duration": 0.387,
      "velocity": 0.71,
      "hand": "left"
    },
    {
      "midi": 77,
      "time": 12.387,
      "duration": 0.048,
      "velocity": 0.71,
      "hand": "right"
    },
    {
      "midi": 79,
      "time": 12.387,
      "duration": 0.387,
      "velocity": 0.71,
      "hand": "right"
    },
    {
      "midi": 76,
      "time": 12.968,
      "duration": 0.048,
      "velocity": 0.71,
      "hand": "right"
    },
    {
      "midi": 77,
      "time": 12.968,
      "duration": 0.048,
      "velocity": 0.71,
      "hand": "right"
    },
    {
      "midi": 79,
      "time": 13.065,
      "duration": 0.048,
      "velocity": 0.71,
      "hand": "right"
    },
    {
      "midi": 81,
      "time": 13.065,
      "duration": 0.048,
      "velocity": 0.71,
      "hand": "right"
    },
    {
      "midi": 48,
      "time": 13.161,
      "duration": 0.387,
      "velocity": 0.71,
      "hand": "left"
    },
    {
      "midi": 52,
      "time": 13.161,
      "duration": 0.387,
      "velocity": 0.71,
      "hand": "left"
    },
    {
      "midi": 55,
      "time": 13.161,
      "duration": 0.387,
      "velocity": 0.71,
      "hand": "left"
    },
    {
      "midi": 82,
      "time": 13.161,
      "duration": 0.194,
      "velocity": 0.71,
      "hand": "right"
    },
    {
      "midi": 81,
      "time": 13.355,
      "duration": 0.097,
      "velocity": 0.71,
      "hand": "right"
    },
    {
      "midi": 79,
      "time": 13.452,
      "duration": 0.097,
      "velocity": 0.71,
      "hand": "right"
    },
    {
      "midi": 77,
      "time": 13.548,
      "duration": 0.097,
      "velocity": 0.71,
      "hand": "right"
    },
    {
      "midi": 76,
      "time": 13.645,
      "duration": 0.097,
      "velocity": 0.71,
      "hand": "right"
    },
    {
      "midi": 74,
      "time": 13.742,
      "duration": 0.097,
      "velocity": 0.71,
      "hand": "right"
    },
    {
      "midi": 72,
      "time": 13.839,
      "duration": 0.097,
      "velocity": 0.71,
      "hand": "right"
    },
    {
      "midi": 48,
      "time": 13.935,
      "duration": 0.387,
      "velocity": 0.71,
      "hand": "left"
    },
    {
      "midi": 52,
      "time": 13.935,
      "duration": 0.387,
      "velocity": 0.71,
      "hand": "left"
    },
    {
      "midi": 55,
      "time": 13.935,
      "duration": 0.387,
      "velocity": 0.71,
      "hand": "left"
    },
    {
      "midi": 70,
      "time": 13.935,
      "duration": 0.194,
      "velocity": 0.71,
      "hand": "right"
    },
    {
      "midi": 69,
      "time": 14.129,
      "duration": 0.097,
      "velocity": 0.71,
      "hand": "right"
    },
    {
      "midi": 67,
      "time": 14.226,
      "duration": 0.097,
      "velocity": 0.71,
      "hand": "right"
    },
    {
      "midi": 65,
      "time": 14.323,
      "duration": 0.097,
      "velocity": 0.71,
      "hand": "right"
    },
    {
      "midi": 64,
      "time": 14.419,
      "duration": 0.097,
      "velocity": 0.71,
      "hand": "right"
    },
    {
      "midi": 62,
      "time": 14.516,
      "duration": 0.097,
      "velocity": 0.71,
      "hand": "right"
    },
    {
      "midi": 60,
      "time": 14.613,
      "duration": 0.097,
      "velocity": 0.71,
      "hand": "right"
    },
    {
      "midi": 48,
      "time": 14.71,
      "duration": 0.774,
      "velocity": 0.71,
      "hand": "left"
    },
    {
      "midi": 52,
      "time": 14.71,
      "duration": 0.774,
      "velocity": 0.71,
      "hand": "left"
    },
    {
      "midi": 55,
      "time": 14.71,
      "duration": 0.774,
      "velocity": 0.71,
      "hand": "left"
    },
    {
      "midi": 58,
      "time": 14.71,
      "duration": 0.774,
      "velocity": 0.71,
      "hand": "left"
    },
    {
      "midi": 53,
      "time": 15.484,
      "duration": 0.387,
      "velocity": 0.71,
      "hand": "left"
    },
    {
      "midi": 53,
      "time": 15.484,
      "duration": 0.194,
      "velocity": 0.71,
      "hand": "left"
    },
    {
      "midi": 65,
      "time": 15.484,
      "duration": 0.194,
      "velocity": 0.71,
      "hand": "right"
    },
    {
      "midi": 48,
      "time": 15.871,
      "duration": 0.387,
      "velocity": 0.71,
      "hand": "left"
    },
    {
      "midi": 48,
      "time": 15.871,
      "duration": 0.194,
      "velocity": 0.71,
      "hand": "left"
    },
    {
      "midi": 60,
      "time": 15.871,
      "duration": 0.194,
      "velocity": 0.71,
      "hand": "right"
    },
    {
      "midi": 53,
      "time": 16.258,
      "duration": 0.387,
      "velocity": 0.71,
      "hand": "left"
    },
    {
      "midi": 53,
      "time": 16.258,
      "duration": 0.194,
      "velocity": 0.71,
      "hand": "left"
    },
    {
      "midi": 65,
      "time": 16.258,
      "duration": 0.194,
      "velocity": 0.71,
      "hand": "right"
    },
    {
      "midi": 48,
      "time": 16.645,
      "duration": 0.387,
      "velocity": 0.71,
      "hand": "left"
    },
    {
      "midi": 48,
      "time": 16.645,
      "duration": 0.194,
      "velocity": 0.71,
      "hand": "left"
    },
    {
      "midi": 60,
      "time": 16.645,
      "duration": 0.194,
      "velocity": 0.71,
      "hand": "right"
    },
    {
      "midi": 53,
      "time": 17.032,
      "duration": 0.387,
      "velocity": 0.71,
      "hand": "left"
    },
    {
      "midi": 65,
      "time": 17.032,
      "duration": 0.387,
      "velocity": 0.71,
      "hand": "right"
    },
    {
      "midi": 48,
      "time": 17.419,
      "duration": 0.387,
      "velocity": 0.71,
      "hand": "left"
    },
    {
      "midi": 48,
      "time": 17.613,
      "duration": 0.097,
      "velocity": 0.71,
      "hand": "left"
    },
    {
      "midi": 60,
      "time": 17.613,
      "duration": 0.097,
      "velocity": 0.71,
      "hand": "right"
    },
    {
      "midi": 50,
      "time": 17.71,
      "duration": 0.097,
      "velocity": 0.71,
      "hand": "left"
    },
    {
      "midi": 52,
      "time": 17.71,
      "duration": 0.097,
      "velocity": 0.71,
      "hand": "left"
    },
    {
      "midi": 62,
      "time": 17.71,
      "duration": 0.097,
      "velocity": 0.71,
      "hand": "right"
    },
    {
      "midi": 64,
      "time": 17.71,
      "duration": 0.097,
      "velocity": 0.71,
      "hand": "right"
    },
    {
      "midi": 53,
      "time": 17.806,
      "duration": 0.387,
      "velocity": 0.71,
      "hand": "left"
    },
    {
      "midi": 65,
      "time": 17.806,
      "duration": 0.387,
      "velocity": 0.71,
      "hand": "right"
    },
    {
      "midi": 55,
      "time": 18.581,
      "duration": 0.387,
      "velocity": 0.71,
      "hand": "left"
    },
    {
      "midi": 55,
      "time": 18.581,
      "duration": 0.194,
      "velocity": 0.71,
      "hand": "left"
    },
    {
      "midi": 67,
      "time": 18.581,
      "duration": 0.194,
      "velocity": 0.71,
      "hand": "right"
    },
    {
      "midi": 48,
      "time": 18.968,
      "duration": 0.387,
      "velocity": 0.71,
      "hand": "left"
    },
    {
      "midi": 48,
      "time": 18.968,
      "duration": 0.194,
      "velocity": 0.71,
      "hand": "left"
    },
    {
      "midi": 60,
      "time": 18.968,
      "duration": 0.194,
      "velocity": 0.71,
      "hand": "right"
    },
    {
      "midi": 55,
      "time": 19.355,
      "duration": 0.387,
      "velocity": 0.71,
      "hand": "left"
    },
    {
      "midi": 55,
      "time": 19.355,
      "duration": 0.194,
      "velocity": 0.71,
      "hand": "left"
    },
    {
      "midi": 67,
      "time": 19.355,
      "duration": 0.194,
      "velocity": 0.71,
      "hand": "right"
    },
    {
      "midi": 48,
      "time": 19.742,
      "duration": 0.387,
      "velocity": 0.71,
      "hand": "left"
    },
    {
      "midi": 48,
      "time": 19.742,
      "duration": 0.194,
      "velocity": 0.71,
      "hand": "left"
    },
    {
      "midi": 60,
      "time": 19.742,
      "duration": 0.194,
      "velocity": 0.71,
      "hand": "right"
    },
    {
      "midi": 55,
      "time": 20.129,
      "duration": 0.387,
      "velocity": 0.71,
      "hand": "left"
    },
    {
      "midi": 67,
      "time": 20.129,
      "duration": 0.387,
      "velocity": 0.71,
      "hand": "right"
    },
    {
      "midi": 48,
      "time": 20.516,
      "duration": 0.387,
      "velocity": 0.71,
      "hand": "left"
    },
    {
      "midi": 48,
      "time": 20.71,
      "duration": 0.048,
      "velocity": 0.71,
      "hand": "left"
    },
    {
      "midi": 50,
      "time": 20.71,
      "duration": 0.048,
      "velocity": 0.71,
      "hand": "left"
    },
    {
      "midi": 60,
      "time": 20.71,
      "duration": 0.048,
      "velocity": 0.71,
      "hand": "right"
    },
    {
      "midi": 62,
      "time": 20.71,
      "duration": 0.048,
      "velocity": 0.71,
      "hand": "right"
    },
    {
      "midi": 52,
      "time": 20.806,
      "duration": 0.048,
      "velocity": 0.71,
      "hand": "left"
    },
    {
      "midi": 53,
      "time": 20.806,
      "duration": 0.048,
      "velocity": 0.71,
      "hand": "left"
    },
    {
      "midi": 64,
      "time": 20.806,
      "duration": 0.048,
      "velocity": 0.71,
      "hand": "right"
    },
    {
      "midi": 65,
      "time": 20.806,
      "duration": 0.048,
      "velocity": 0.71,
      "hand": "right"
    },
    {
      "midi": 55,
      "time": 20.903,
      "duration": 0.387,
      "velocity": 0.71,
      "hand": "left"
    },
    {
      "midi": 67,
      "time": 20.903,
      "duration": 0.387,
      "velocity": 0.71,
      "hand": "right"
    },
    {
      "midi": 57,
      "time": 21.677,
      "duration": 0.387,
      "velocity": 0.71,
      "hand": "left"
    },
    {
      "midi": 57,
      "time": 21.677,
      "duration": 0.194,
      "velocity": 0.71,
      "hand": "left"
    },
    {
      "midi": 69,
      "time": 21.677,
      "duration": 0.194,
      "velocity": 0.71,
      "hand": "right"
    },
    {
      "midi": 53,
      "time": 22.065,
      "duration": 0.387,
      "velocity": 0.71,
      "hand": "left"
    },
    {
      "midi": 53,
      "time": 22.065,
      "duration": 0.194,
      "velocity": 0.71,
      "hand": "left"
    },
    {
      "midi": 65,
      "time": 22.065,
      "duration": 0.194,
      "velocity": 0.71,
      "hand": "right"
    },
    {
      "midi": 57,
      "time": 22.452,
      "duration": 0.387,
      "velocity": 0.71,
      "hand": "left"
    },
    {
      "midi": 57,
      "time": 22.452,
      "duration": 0.194,
      "velocity": 0.71,
      "hand": "left"
    },
    {
      "midi": 69,
      "time": 22.452,
      "duration": 0.194,
      "velocity": 0.71,
      "hand": "right"
    },
    {
      "midi": 53,
      "time": 22.839,
      "duration": 0.387,
      "velocity": 0.71,
      "hand": "left"
    },
    {
      "midi": 53,
      "time": 22.839,
      "duration": 0.194,
      "velocity": 0.71,
      "hand": "left"
    },
    {
      "midi": 65,
      "time": 22.839,
      "duration": 0.194,
      "velocity": 0.71,
      "hand": "right"
    },
    {
      "midi": 57,
      "time": 23.226,
      "duration": 0.387,
      "velocity": 0.71,
      "hand": "left"
    },
    {
      "midi": 69,
      "time": 23.226,
      "duration": 0.387,
      "velocity": 0.71,
      "hand": "right"
    },
    {
      "midi": 53,
      "time": 23.613,
      "duration": 0.387,
      "velocity": 0.71,
      "hand": "left"
    },
    {
      "midi": 53,
      "time": 23.806,
      "duration": 0.097,
      "velocity": 0.71,
      "hand": "left"
    },
    {
      "midi": 65,
      "time": 23.806,
      "duration": 0.097,
      "velocity": 0.71,
      "hand": "right"
    },
    {
      "midi": 55,
      "time": 23.903,
      "duration": 0.097,
      "velocity": 0.71,
      "hand": "left"
    },
    {
      "midi": 67,
      "time": 23.903,
      "duration": 0.097,
      "velocity": 0.71,
      "hand": "right"
    },
    {
      "midi": 57,
      "time": 24,
      "duration": 0.387,
      "velocity": 0.71,
      "hand": "left"
    },
    {
      "midi": 69,
      "time": 24,
      "duration": 0.387,
      "velocity": 0.71,
      "hand": "right"
    },
    {
      "midi": 58,
      "time": 24.774,
      "duration": 0.387,
      "velocity": 0.71,
      "hand": "left"
    },
    {
      "midi": 58,
      "time": 24.774,
      "duration": 0.194,
      "velocity": 0.71,
      "hand": "left"
    },
    {
      "midi": 70,
      "time": 24.774,
      "duration": 0.194,
      "velocity": 0.71,
      "hand": "right"
    },
    {
      "midi": 55,
      "time": 25.161,
      "duration": 0.387,
      "velocity": 0.71,
      "hand": "left"
    },
    {
      "midi": 55,
      "time": 25.161,
      "duration": 0.194,
      "velocity": 0.71,
      "hand": "left"
    },
    {
      "midi": 67,
      "time": 25.161,
      "duration": 0.194,
      "velocity": 0.71,
      "hand": "right"
    },
    {
      "midi": 58,
      "time": 25.548,
      "duration": 0.387,
      "velocity": 0.71,
      "hand": "left"
    },
    {
      "midi": 58,
      "time": 25.548,
      "duration": 0.194,
      "velocity": 0.71,
      "hand": "left"
    },
    {
      "midi": 70,
      "time": 25.548,
      "duration": 0.194,
      "velocity": 0.71,
      "hand": "right"
    },
    {
      "midi": 55,
      "time": 25.935,
      "duration": 0.387,
      "velocity": 0.71,
      "hand": "left"
    },
    {
      "midi": 55,
      "time": 25.935,
      "duration": 0.194,
      "velocity": 0.71,
      "hand": "left"
    },
    {
      "midi": 67,
      "time": 25.935,
      "duration": 0.194,
      "velocity": 0.71,
      "hand": "right"
    },
    {
      "midi": 58,
      "time": 26.323,
      "duration": 0.387,
      "velocity": 0.71,
      "hand": "left"
    },
    {
      "midi": 70,
      "time": 26.323,
      "duration": 0.387,
      "velocity": 0.71,
      "hand": "right"
    },
    {
      "midi": 55,
      "time": 26.71,
      "duration": 0.387,
      "velocity": 0.71,
      "hand": "left"
    },
    {
      "midi": 76,
      "time": 26.903,
      "duration": 0.048,
      "velocity": 0.71,
      "hand": "right"
    },
    {
      "midi": 77,
      "time": 26.903,
      "duration": 0.048,
      "velocity": 0.71,
      "hand": "right"
    },
    {
      "midi": 79,
      "time": 27,
      "duration": 0.048,
      "velocity": 0.71,
      "hand": "right"
    },
    {
      "midi": 81,
      "time": 27,
      "duration": 0.048,
      "velocity": 0.71,
      "hand": "right"
    },
    {
      "midi": 48,
      "time": 27.097,
      "duration": 0.387,
      "velocity": 0.71,
      "hand": "left"
    },
    {
      "midi": 52,
      "time": 27.097,
      "duration": 0.387,
      "velocity": 0.71,
      "hand": "left"
    },
    {
      "midi": 55,
      "time": 27.097,
      "duration": 0.387,
      "velocity": 0.71,
      "hand": "left"
    },
    {
      "midi": 58,
      "time": 27.097,
      "duration": 1.935,
      "velocity": 0.71,
      "hand": "left"
    },
    {
      "midi": 82,
      "time": 27.097,
      "duration": 0.194,
      "velocity": 0.71,
      "hand": "right"
    },
    {
      "midi": 81,
      "time": 27.29,
      "duration": 0.097,
      "velocity": 0.71,
      "hand": "right"
    },
    {
      "midi": 79,
      "time": 27.387,
      "duration": 0.097,
      "velocity": 0.71,
      "hand": "right"
    },
    {
      "midi": 77,
      "time": 27.484,
      "duration": 0.097,
      "velocity": 0.71,
      "hand": "right"
    },
    {
      "midi": 76,
      "time": 27.581,
      "duration": 0.097,
      "velocity": 0.71,
      "hand": "right"
    },
    {
      "midi": 74,
      "time": 27.677,
      "duration": 0.097,
      "velocity": 0.71,
      "hand": "right"
    },
    {
      "midi": 72,
      "time": 27.774,
      "duration": 0.097,
      "velocity": 0.71,
      "hand": "right"
    },
    {
      "midi": 48,
      "time": 27.871,
      "duration": 0.387,
      "velocity": 0.71,
      "hand": "left"
    },
    {
      "midi": 52,
      "time": 27.871,
      "duration": 0.387,
      "velocity": 0.71,
      "hand": "left"
    },
    {
      "midi": 55,
      "time": 27.871,
      "duration": 0.387,
      "velocity": 0.71,
      "hand": "left"
    },
    {
      "midi": 70,
      "time": 27.871,
      "duration": 0.194,
      "velocity": 0.71,
      "hand": "right"
    },
    {
      "midi": 69,
      "time": 28.065,
      "duration": 0.097,
      "velocity": 0.71,
      "hand": "right"
    },
    {
      "midi": 67,
      "time": 28.161,
      "duration": 0.097,
      "velocity": 0.71,
      "hand": "right"
    },
    {
      "midi": 65,
      "time": 28.258,
      "duration": 0.097,
      "velocity": 0.71,
      "hand": "right"
    },
    {
      "midi": 64,
      "time": 28.355,
      "duration": 0.097,
      "velocity": 0.71,
      "hand": "right"
    },
    {
      "midi": 62,
      "time": 28.452,
      "duration": 0.097,
      "velocity": 0.71,
      "hand": "right"
    },
    {
      "midi": 60,
      "time": 28.548,
      "duration": 0.097,
      "velocity": 0.71,
      "hand": "right"
    },
    {
      "midi": 48,
      "time": 28.645,
      "duration": 0.387,
      "velocity": 0.71,
      "hand": "left"
    },
    {
      "midi": 52,
      "time": 28.645,
      "duration": 0.387,
      "velocity": 0.71,
      "hand": "left"
    },
    {
      "midi": 55,
      "time": 28.645,
      "duration": 0.387,
      "velocity": 0.71,
      "hand": "left"
    },
    {
      "midi": 58,
      "time": 28.645,
      "duration": 0.387,
      "velocity": 0.71,
      "hand": "left"
    },
    {
      "midi": 41,
      "time": 30.194,
      "duration": 0.387,
      "velocity": 0.71,
      "hand": "left"
    },
    {
      "midi": 53,
      "time": 30.194,
      "duration": 0.387,
      "velocity": 0.71,
      "hand": "left"
    },
    {
      "midi": 57,
      "time": 30.194,
      "duration": 1.161,
      "velocity": 0.71,
      "hand": "left"
    },
    {
      "midi": 69,
      "time": 30.194,
      "duration": 0.097,
      "velocity": 0.71,
      "hand": "right"
    },
    {
      "midi": 65,
      "time": 30.29,
      "duration": 0.097,
      "velocity": 0.71,
      "hand": "right"
    },
    {
      "midi": 60,
      "time": 30.484,
      "duration": 0.097,
      "velocity": 0.71,
      "hand": "right"
    },
    {
      "midi": 69,
      "time": 30.581,
      "duration": 0.097,
      "velocity": 0.71,
      "hand": "right"
    },
    {
      "midi": 65,
      "time": 30.677,
      "duration": 0.097,
      "velocity": 0.71,
      "hand": "right"
    },
    {
      "midi": 60,
      "time": 30.871,
      "duration": 0.097,
      "velocity": 0.71,
      "hand": "right"
    },
    {
      "midi": 69,
      "time": 30.968,
      "duration": 0.097,
      "velocity": 0.71,
      "hand": "right"
    },
    {
      "midi": 65,
      "time": 31.065,
      "duration": 0.097,
      "velocity": 0.71,
      "hand": "right"
    },
    {
      "midi": 60,
      "time": 31.258,
      "duration": 0.097,
      "velocity": 0.71,
      "hand": "right"
    },
    {
      "midi": 58,
      "time": 31.355,
      "duration": 0.387,
      "velocity": 0.71,
      "hand": "left"
    },
    {
      "midi": 70,
      "time": 31.355,
      "duration": 0.097,
      "velocity": 0.71,
      "hand": "right"
    },
    {
      "midi": 67,
      "time": 31.452,
      "duration": 0.097,
      "velocity": 0.71,
      "hand": "right"
    },
    {
      "midi": 60,
      "time": 31.645,
      "duration": 0.097,
      "velocity": 0.71,
      "hand": "right"
    },
    {
      "midi": 60,
      "time": 31.742,
      "duration": 0.387,
      "velocity": 0.71,
      "hand": "right"
    },
    {
      "midi": 72,
      "time": 31.742,
      "duration": 0.097,
      "velocity": 0.71,
      "hand": "right"
    },
    {
      "midi": 69,
      "time": 31.839,
      "duration": 0.097,
      "velocity": 0.71,
      "hand": "right"
    },
    {
      "midi": 60,
      "time": 32.032,
      "duration": 0.097,
      "velocity": 0.71,
      "hand": "right"
    },
    {
      "midi": 58,
      "time": 32.129,
      "duration": 0.387,
      "velocity": 0.71,
      "hand": "left"
    },
    {
      "midi": 70,
      "time": 32.129,
      "duration": 0.097,
      "velocity": 0.71,
      "hand": "right"
    },
    {
      "midi": 67,
      "time": 32.226,
      "duration": 0.097,
      "velocity": 0.71,
      "hand": "right"
    },
    {
      "midi": 60,
      "time": 32.419,
      "duration": 0.097,
      "velocity": 0.71,
      "hand": "right"
    },
    {
      "midi": 57,
      "time": 32.516,
      "duration": 0.387,
      "velocity": 0.71,
      "hand": "left"
    },
    {
      "midi": 69,
      "time": 32.516,
      "duration": 0.097,
      "velocity": 0.71,
      "hand": "right"
    },
    {
      "midi": 65,
      "time": 32.613,
      "duration": 0.097,
      "velocity": 0.71,
      "hand": "right"
    },
    {
      "midi": 60,
      "time": 32.806,
      "duration": 0.097,
      "velocity": 0.71,
      "hand": "right"
    },
    {
      "midi": 55,
      "time": 32.903,
      "duration": 0.387,
      "velocity": 0.71,
      "hand": "left"
    },
    {
      "midi": 67,
      "time": 32.903,
      "duration": 0.097,
      "velocity": 0.71,
      "hand": "right"
    },
    {
      "midi": 64,
      "time": 33,
      "duration": 0.097,
      "velocity": 0.71,
      "hand": "right"
    },
    {
      "midi": 60,
      "time": 33.194,
      "duration": 0.097,
      "velocity": 0.71,
      "hand": "right"
    },
    {
      "midi": 41,
      "time": 33.29,
      "duration": 0.387,
      "velocity": 0.71,
      "hand": "left"
    },
    {
      "midi": 53,
      "time": 33.29,
      "duration": 0.387,
      "velocity": 0.71,
      "hand": "left"
    },
    {
      "midi": 79,
      "time": 33.29,
      "duration": 0.048,
      "velocity": 0.71,
      "hand": "right"
    },
    {
      "midi": 81,
      "time": 33.29,
      "duration": 0.048,
      "velocity": 0.71,
      "hand": "right"
    },
    {
      "midi": 82,
      "time": 33.29,
      "duration": 0.048,
      "velocity": 0.71,
      "hand": "right"
    },
    {
      "midi": 84,
      "time": 33.29,
      "duration": 0.048,
      "velocity": 0.71,
      "hand": "right"
    },
    {
      "midi": 77,
      "time": 33.387,
      "duration": 0.29,
      "velocity": 0.71,
      "hand": "right"
    },
    {
      "midi": 81,
      "time": 33.387,
      "duration": 0.29,
      "velocity": 0.71,
      "hand": "right"
    },
    {
      "midi": 45,
      "time": 33.677,
      "duration": 0.387,
      "velocity": 0.71,
      "hand": "left"
    },
    {
      "midi": 53,
      "time": 33.677,
      "duration": 0.387,
      "velocity": 0.71,
      "hand": "left"
    },
    {
      "midi": 57,
      "time": 33.677,
      "duration": 0.387,
      "velocity": 0.71,
      "hand": "left"
    },
    {
      "midi": 77,
      "time": 33.677,
      "duration": 0.194,
      "velocity": 0.71,
      "hand": "right"
    },
    {
      "midi": 81,
      "time": 33.677,
      "duration": 0.194,
      "velocity": 0.71,
      "hand": "right"
    },
    {
      "midi": 77,
      "time": 33.871,
      "duration": 0.194,
      "velocity": 0.71,
      "hand": "right"
    },
    {
      "midi": 81,
      "time": 33.871,
      "duration": 0.194,
      "velocity": 0.71,
      "hand": "right"
    },
    {
      "midi": 48,
      "time": 34.065,
      "duration": 0.387,
      "velocity": 0.71,
      "hand": "left"
    },
    {
      "midi": 60,
      "time": 34.065,
      "duration": 0.387,
      "velocity": 0.71,
      "hand": "right"
    },
    {
      "midi": 77,
      "time": 34.065,
      "duration": 0.194,
      "velocity": 0.71,
      "hand": "right"
    },
    {
      "midi": 81,
      "time": 34.065,
      "duration": 0.194,
      "velocity": 0.71,
      "hand": "right"
    },
    {
      "midi": 79,
      "time": 34.258,
      "duration": 0.097,
      "velocity": 0.71,
      "hand": "right"
    },
    {
      "midi": 81,
      "time": 34.355,
      "duration": 0.097,
      "velocity": 0.71,
      "hand": "right"
    },
    {
      "midi": 36,
      "time": 34.452,
      "duration": 0.387,
      "velocity": 0.71,
      "hand": "left"
    },
    {
      "midi": 48,
      "time": 34.452,
      "duration": 0.387,
      "velocity": 0.71,
      "hand": "left"
    },
    {
      "midi": 79,
      "time": 34.452,
      "duration": 0.194,
      "velocity": 0.71,
      "hand": "right"
    },
    {
      "midi": 82,
      "time": 34.452,
      "duration": 0.194,
      "velocity": 0.71,
      "hand": "right"
    },
    {
      "midi": 76,
      "time": 34.645,
      "duration": 0.194,
      "velocity": 0.71,
      "hand": "right"
    },
    {
      "midi": 79,
      "time": 34.645,
      "duration": 0.194,
      "velocity": 0.71,
      "hand": "right"
    },
    {
      "midi": 41,
      "time": 34.839,
      "duration": 0.387,
      "velocity": 0.71,
      "hand": "left"
    },
    {
      "midi": 53,
      "time": 34.839,
      "duration": 0.387,
      "velocity": 0.71,
      "hand": "left"
    },
    {
      "midi": 57,
      "time": 34.839,
      "duration": 1.161,
      "velocity": 0.71,
      "hand": "left"
    },
    {
      "midi": 69,
      "time": 34.839,
      "duration": 0.097,
      "velocity": 0.71,
      "hand": "right"
    },
    {
      "midi": 65,
      "time": 34.935,
      "duration": 0.097,
      "velocity": 0.71,
      "hand": "right"
    },
    {
      "midi": 60,
      "time": 35.129,
      "duration": 0.097,
      "velocity": 0.71,
      "hand": "right"
    },
    {
      "midi": 69,
      "time": 35.226,
      "duration": 0.097,
      "velocity": 0.71,
      "hand": "right"
    },
    {
      "midi": 65,
      "time": 35.323,
      "duration": 0.097,
      "velocity": 0.71,
      "hand": "right"
    },
    {
      "midi": 60,
      "time": 35.516,
      "duration": 0.097,
      "velocity": 0.71,
      "hand": "right"
    },
    {
      "midi": 69,
      "time": 35.613,
      "duration": 0.097,
      "velocity": 0.71,
      "hand": "right"
    },
    {
      "midi": 65,
      "time": 35.71,
      "duration": 0.097,
      "velocity": 0.71,
      "hand": "right"
    },
    {
      "midi": 60,
      "time": 35.903,
      "duration": 0.097,
      "velocity": 0.71,
      "hand": "right"
    },
    {
      "midi": 58,
      "time": 36,
      "duration": 0.387,
      "velocity": 0.71,
      "hand": "left"
    },
    {
      "midi": 70,
      "time": 36,
      "duration": 0.097,
      "velocity": 0.71,
      "hand": "right"
    },
    {
      "midi": 67,
      "time": 36.097,
      "duration": 0.097,
      "velocity": 0.71,
      "hand": "right"
    },
    {
      "midi": 60,
      "time": 36.29,
      "duration": 0.097,
      "velocity": 0.71,
      "hand": "right"
    },
    {
      "midi": 60,
      "time": 36.387,
      "duration": 0.387,
      "velocity": 0.71,
      "hand": "right"
    },
    {
      "midi": 72,
      "time": 36.387,
      "duration": 0.097,
      "velocity": 0.71,
      "hand": "right"
    },
    {
      "midi": 69,
      "time": 36.484,
      "duration": 0.097,
      "velocity": 0.71,
      "hand": "right"
    },
    {
      "midi": 60,
      "time": 36.677,
      "duration": 0.097,
      "velocity": 0.71,
      "hand": "right"
    },
    {
      "midi": 58,
      "time": 36.774,
      "duration": 0.387,
      "velocity": 0.71,
      "hand": "left"
    },
    {
      "midi": 70,
      "time": 36.774,
      "duration": 0.097,
      "velocity": 0.71,
      "hand": "right"
    },
    {
      "midi": 67,
      "time": 36.871,
      "duration": 0.097,
      "velocity": 0.71,
      "hand": "right"
    },
    {
      "midi": 60,
      "time": 37.065,
      "duration": 0.097,
      "velocity": 0.71,
      "hand": "right"
    },
    {
      "midi": 57,
      "time": 37.161,
      "duration": 0.387,
      "velocity": 0.71,
      "hand": "left"
    },
    {
      "midi": 69,
      "time": 37.161,
      "duration": 0.097,
      "velocity": 0.71,
      "hand": "right"
    },
    {
      "midi": 65,
      "time": 37.258,
      "duration": 0.097,
      "velocity": 0.71,
      "hand": "right"
    },
    {
      "midi": 60,
      "time": 37.452,
      "duration": 0.097,
      "velocity": 0.71,
      "hand": "right"
    },
    {
      "midi": 48,
      "time": 37.548,
      "duration": 0.387,
      "velocity": 0.71,
      "hand": "left"
    },
    {
      "midi": 55,
      "time": 37.548,
      "duration": 0.387,
      "velocity": 0.71,
      "hand": "left"
    },
    {
      "midi": 58,
      "time": 37.548,
      "duration": 0.387,
      "velocity": 0.71,
      "hand": "left"
    },
    {
      "midi": 67,
      "time": 37.548,
      "duration": 0.097,
      "velocity": 0.71,
      "hand": "right"
    },
    {
      "midi": 64,
      "time": 37.645,
      "duration": 0.097,
      "velocity": 0.71,
      "hand": "right"
    },
    {
      "midi": 60,
      "time": 37.839,
      "duration": 0.097,
      "velocity": 0.71,
      "hand": "right"
    },
    {
      "midi": 53,
      "time": 37.935,
      "duration": 0.387,
      "velocity": 0.71,
      "hand": "left"
    },
    {
      "midi": 57,
      "time": 37.935,
      "duration": 0.387,
      "velocity": 0.71,
      "hand": "left"
    },
    {
      "midi": 65,
      "time": 37.935,
      "duration": 0.387,
      "velocity": 0.71,
      "hand": "right"
    },
    {
      "midi": 53,
      "time": 38.71,
      "duration": 0.387,
      "velocity": 0.71,
      "hand": "left"
    },
    {
      "midi": 65,
      "time": 38.71,
      "duration": 0.387,
      "velocity": 0.71,
      "hand": "right"
    },
    {
      "midi": 57,
      "time": 39.097,
      "duration": 0.387,
      "velocity": 0.71,
      "hand": "left"
    },
    {
      "midi": 69,
      "time": 39.097,
      "duration": 0.387,
      "velocity": 0.71,
      "hand": "right"
    },
    {
      "midi": 46,
      "time": 39.484,
      "duration": 0.774,
      "velocity": 0.71,
      "hand": "left"
    },
    {
      "midi": 46,
      "time": 39.484,
      "duration": 0.387,
      "velocity": 0.71,
      "hand": "left"
    },
    {
      "midi": 58,
      "time": 39.871,
      "duration": 0.387,
      "velocity": 0.71,
      "hand": "left"
    },
    {
      "midi": 50,
      "time": 40.258,
      "duration": 0.774,
      "velocity": 0.71,
      "hand": "left"
    },
    {
      "midi": 50,
      "time": 40.258,
      "duration": 0.387,
      "velocity": 0.71,
      "hand": "left"
    },
    {
      "midi": 62,
      "time": 40.645,
      "duration": 0.387,
      "velocity": 0.71,
      "hand": "right"
    },
    {
      "midi": 48,
      "time": 41.032,
      "duration": 0.774,
      "velocity": 0.71,
      "hand": "left"
    },
    {
      "midi": 48,
      "time": 41.032,
      "duration": 0.387,
      "velocity": 0.71,
      "hand": "left"
    },
    {
      "midi": 60,
      "time": 41.419,
      "duration": 0.387,
      "velocity": 0.71,
      "hand": "right"
    },
    {
      "midi": 52,
      "time": 41.806,
      "duration": 0.774,
      "velocity": 0.71,
      "hand": "left"
    },
    {
      "midi": 52,
      "time": 41.806,
      "duration": 0.387,
      "velocity": 0.71,
      "hand": "left"
    },
    {
      "midi": 64,
      "time": 42.194,
      "duration": 0.387,
      "velocity": 0.71,
      "hand": "right"
    },
    {
      "midi": 53,
      "time": 42.581,
      "duration": 0.194,
      "velocity": 0.71,
      "hand": "left"
    },
    {
      "midi": 53,
      "time": 42.581,
      "duration": 0.387,
      "velocity": 0.71,
      "hand": "left"
    },
    {
      "midi": 65,
      "time": 42.581,
      "duration": 0.194,
      "velocity": 0.71,
      "hand": "right"
    },
    {
      "midi": 57,
      "time": 42.968,
      "duration": 0.194,
      "velocity": 0.71,
      "hand": "left"
    },
    {
      "midi": 69,
      "time": 42.968,
      "duration": 0.194,
      "velocity": 0.71,
      "hand": "right"
    },
    {
      "midi": 60,
      "time": 43.355,
      "duration": 0.194,
      "velocity": 0.71,
      "hand": "right"
    },
    {
      "midi": 72,
      "time": 43.355,
      "duration": 0.194,
      "velocity": 0.71,
      "hand": "right"
    },
    {
      "midi": 57,
      "time": 43.742,
      "duration": 0.194,
      "velocity": 0.71,
      "hand": "left"
    },
    {
      "midi": 69,
      "time": 43.742,
      "duration": 0.194,
      "velocity": 0.71,
      "hand": "right"
    },
    {
      "midi": 53,
      "time": 44.129,
      "duration": 0.194,
      "velocity": 0.71,
      "hand": "left"
    },
    {
      "midi": 65,
      "time": 44.129,
      "duration": 0.194,
      "velocity": 0.71,
      "hand": "right"
    },
    {
      "midi": 48,
      "time": 44.516,
      "duration": 0.194,
      "velocity": 0.71,
      "hand": "left"
    },
    {
      "midi": 60,
      "time": 44.516,
      "duration": 0.194,
      "velocity": 0.71,
      "hand": "right"
    },
    {
      "midi": 45,
      "time": 44.903,
      "duration": 0.387,
      "velocity": 0.71,
      "hand": "left"
    },
    {
      "midi": 46,
      "time": 44.903,
      "duration": 0.194,
      "velocity": 0.71,
      "hand": "left"
    },
    {
      "midi": 57,
      "time": 44.903,
      "duration": 0.387,
      "velocity": 0.71,
      "hand": "left"
    },
    {
      "midi": 48,
      "time": 45.29,
      "duration": 0.387,
      "velocity": 0.71,
      "hand": "left"
    },
    {
      "midi": 60,
      "time": 45.29,
      "duration": 0.387,
      "velocity": 0.71,
      "hand": "right"
    },
    {
      "midi": 46,
      "time": 45.677,
      "duration": 0.774,
      "velocity": 0.71,
      "hand": "left"
    },
    {
      "midi": 46,
      "time": 45.677,
      "duration": 0.387,
      "velocity": 0.71,
      "hand": "left"
    },
    {
      "midi": 58,
      "time": 46.065,
      "duration": 0.387,
      "velocity": 0.71,
      "hand": "left"
    },
    {
      "midi": 50,
      "time": 46.452,
      "duration": 0.774,
      "velocity": 0.71,
      "hand": "left"
    },
    {
      "midi": 50,
      "time": 46.452,
      "duration": 0.387,
      "velocity": 0.71,
      "hand": "left"
    },
    {
      "midi": 62,
      "time": 46.839,
      "duration": 0.387,
      "velocity": 0.71,
      "hand": "right"
    },
    {
      "midi": 48,
      "time": 47.226,
      "duration": 1.161,
      "velocity": 0.71,
      "hand": "left"
    },
    {
      "midi": 48,
      "time": 47.226,
      "duration": 0.387,
      "velocity": 0.71,
      "hand": "left"
    },
    {
      "midi": 53,
      "time": 47.226,
      "duration": 0.774,
      "velocity": 0.71,
      "hand": "left"
    },
    {
      "midi": 57,
      "time": 47.226,
      "duration": 0.774,
      "velocity": 0.71,
      "hand": "left"
    },
    {
      "midi": 60,
      "time": 47.613,
      "duration": 0.387,
      "velocity": 0.71,
      "hand": "right"
    },
    {
      "midi": 48,
      "time": 48,
      "duration": 0.387,
      "velocity": 0.71,
      "hand": "left"
    },
    {
      "midi": 52,
      "time": 48,
      "duration": 0.774,
      "velocity": 0.71,
      "hand": "left"
    },
    {
      "midi": 55,
      "time": 48,
      "duration": 0.774,
      "velocity": 0.71,
      "hand": "left"
    },
    {
      "midi": 50,
      "time": 48.387,
      "duration": 0.194,
      "velocity": 0.71,
      "hand": "left"
    },
    {
      "midi": 60,
      "time": 48.387,
      "duration": 0.387,
      "velocity": 0.71,
      "hand": "right"
    },
    {
      "midi": 52,
      "time": 48.581,
      "duration": 0.194,
      "velocity": 0.71,
      "hand": "left"
    },
    {
      "midi": 53,
      "time": 48.774,
      "duration": 0.387,
      "velocity": 0.71,
      "hand": "left"
    },
    {
      "midi": 53,
      "time": 48.774,
      "duration": 0.774,
      "velocity": 0.71,
      "hand": "left"
    },
    {
      "midi": 65,
      "time": 48.774,
      "duration": 0.387,
      "velocity": 0.71,
      "hand": "right"
    },
    {
      "midi": 53,
      "time": 49.548,
      "duration": 0.774,
      "velocity": 0.71,
      "hand": "left"
    },
    {
      "midi": 62,
      "time": 49.548,
      "duration": 0.774,
      "velocity": 0.71,
      "hand": "right"
    },
    {
      "midi": 70,
      "time": 49.548,
      "duration": 0.581,
      "velocity": 0.71,
      "hand": "right"
    },
    {
      "midi": 72,
      "time": 50.129,
      "duration": 0.097,
      "velocity": 0.71,
      "hand": "right"
    },
    {
      "midi": 70,
      "time": 50.226,
      "duration": 0.097,
      "velocity": 0.71,
      "hand": "right"
    },
    {
      "midi": 53,
      "time": 50.323,
      "duration": 0.774,
      "velocity": 0.71,
      "hand": "left"
    },
    {
      "midi": 60,
      "time": 50.323,
      "duration": 0.387,
      "velocity": 0.71,
      "hand": "right"
    },
    {
      "midi": 69,
      "time": 50.323,
      "duration": 0.194,
      "velocity": 0.71,
      "hand": "right"
    },
    {
      "midi": 65,
      "time": 50.71,
      "duration": 0.194,
      "velocity": 0.71,
      "hand": "right"
    },
    {
      "midi": 53,
      "time": 51.097,
      "duration": 0.774,
      "velocity": 0.71,
      "hand": "left"
    },
    {
      "midi": 58,
      "time": 51.097,
      "duration": 0.581,
      "velocity": 0.71,
      "hand": "left"
    },
    {
      "midi": 74,
      "time": 51.097,
      "duration": 0.581,
      "velocity": 0.71,
      "hand": "right"
    },
    {
      "midi": 60,
      "time": 51.677,
      "duration": 0.097,
      "velocity": 0.71,
      "hand": "right"
    },
    {
      "midi": 76,
      "time": 51.677,
      "duration": 0.097,
      "velocity": 0.71,
      "hand": "right"
    },
    {
      "midi": 62,
      "time": 51.774,
      "duration": 0.097,
      "velocity": 0.71,
      "hand": "right"
    },
    {
      "midi": 77,
      "time": 51.774,
      "duration": 0.097,
      "velocity": 0.71,
      "hand": "right"
    },
    {
      "midi": 53,
      "time": 51.871,
      "duration": 0.387,
      "velocity": 0.71,
      "hand": "left"
    },
    {
      "midi": 57,
      "time": 51.871,
      "duration": 0.387,
      "velocity": 0.71,
      "hand": "left"
    },
    {
      "midi": 72,
      "time": 51.871,
      "duration": 0.387,
      "velocity": 0.71,
      "hand": "right"
    },
    {
      "midi": 57,
      "time": 52.645,
      "duration": 0.387,
      "velocity": 0.71,
      "hand": "left"
    },
    {
      "midi": 60,
      "time": 53.032,
      "duration": 0.387,
      "velocity": 0.71,
      "hand": "right"
    },
    {
      "midi": 48,
      "time": 53.419,
      "duration": 1.548,
      "velocity": 0.71,
      "hand": "left"
    },
    {
      "midi": 58,
      "time": 53.419,
      "duration": 1.548,
      "velocity": 0.71,
      "hand": "left"
    },
    {
      "midi": 60,
      "time": 53.419,
      "duration": 0.194,
      "velocity": 0.71,
      "hand": "right"
    },
    {
      "midi": 60,
      "time": 53.419,
      "duration": 1.935,
      "velocity": 0.71,
      "hand": "right"
    },
    {
      "midi": 64,
      "time": 53.419,
      "duration": 1.548,
      "velocity": 0.71,
      "hand": "right"
    },
    {
      "midi": 58,
      "time": 53.613,
      "duration": 0.194,
      "velocity": 0.71,
      "hand": "left"
    },
    {
      "midi": 57,
      "time": 53.806,
      "duration": 0.194,
      "velocity": 0.71,
      "hand": "left"
    },
    {
      "midi": 55,
      "time": 54,
      "duration": 0.194,
      "velocity": 0.71,
      "hand": "left"
    },
    {
      "midi": 55,
      "time": 54.194,
      "duration": 0.387,
      "velocity": 0.71,
      "hand": "left"
    },
    {
      "midi": 55,
      "time": 54.581,
      "duration": 0.387,
      "velocity": 0.71,
      "hand": "left"
    },
    {
      "midi": 41,
      "time": 54.968,
      "duration": 0.387,
      "velocity": 0.71,
      "hand": "left"
    },
    {
      "midi": 53,
      "time": 54.968,
      "duration": 0.387,
      "velocity": 0.71,
      "hand": "left"
    },
    {
      "midi": 57,
      "time": 54.968,
      "duration": 0.387,
      "velocity": 0.71,
      "hand": "left"
    },
    {
      "midi": 65,
      "time": 54.968,
      "duration": 0.387,
      "velocity": 0.71,
      "hand": "right"
    },
    {
      "midi": 53,
      "time": 55.355,
      "duration": 0.387,
      "velocity": 0.71,
      "hand": "left"
    },
    {
      "midi": 53,
      "time": 55.742,
      "duration": 0.774,
      "velocity": 0.71,
      "hand": "left"
    },
    {
      "midi": 62,
      "time": 55.742,
      "duration": 0.774,
      "velocity": 0.71,
      "hand": "right"
    },
    {
      "midi": 70,
      "time": 55.742,
      "duration": 0.581,
      "velocity": 0.71,
      "hand": "right"
    },
    {
      "midi": 72,
      "time": 56.323,
      "duration": 0.097,
      "velocity": 0.71,
      "hand": "right"
    },
    {
      "midi": 70,
      "time": 56.419,
      "duration": 0.097,
      "velocity": 0.71,
      "hand": "right"
    },
    {
      "midi": 53,
      "time": 56.516,
      "duration": 0.774,
      "velocity": 0.71,
      "hand": "left"
    },
    {
      "midi": 60,
      "time": 56.516,
      "duration": 0.387,
      "velocity": 0.71,
      "hand": "right"
    },
    {
      "midi": 69,
      "time": 56.516,
      "duration": 0.194,
      "velocity": 0.71,
      "hand": "right"
    },
    {
      "midi": 65,
      "time": 56.903,
      "duration": 0.194,
      "velocity": 0.71,
      "hand": "right"
    },
    {
      "midi": 53,
      "time": 57.29,
      "duration": 0.774,
      "velocity": 0.71,
      "hand": "left"
    },
    {
      "midi": 58,
      "time": 57.29,
      "duration": 0.581,
      "velocity": 0.71,
      "hand": "left"
    },
    {
      "midi": 74,
      "time": 57.29,
      "duration": 0.581,
      "velocity": 0.71,
      "hand": "right"
    },
    {
      "midi": 60,
      "time": 57.871,
      "duration": 0.097,
      "velocity": 0.71,
      "hand": "right"
    },
    {
      "midi": 76,
      "time": 57.871,
      "duration": 0.097,
      "velocity": 0.71,
      "hand": "right"
    },
    {
      "midi": 62,
      "time": 57.968,
      "duration": 0.097,
      "velocity": 0.71,
      "hand": "right"
    },
    {
      "midi": 77,
      "time": 57.968,
      "duration": 0.097,
      "velocity": 0.71,
      "hand": "right"
    },
    {
      "midi": 53,
      "time": 58.065,
      "duration": 0.387,
      "velocity": 0.71,
      "hand": "left"
    },
    {
      "midi": 57,
      "time": 58.065,
      "duration": 0.387,
      "velocity": 0.71,
      "hand": "left"
    },
    {
      "midi": 72,
      "time": 58.065,
      "duration": 0.387,
      "velocity": 0.71,
      "hand": "right"
    },
    {
      "midi": 57,
      "time": 58.839,
      "duration": 0.387,
      "velocity": 0.71,
      "hand": "left"
    },
    {
      "midi": 60,
      "time": 59.226,
      "duration": 0.387,
      "velocity": 0.71,
      "hand": "right"
    },
    {
      "midi": 48,
      "time": 59.613,
      "duration": 1.548,
      "velocity": 0.71,
      "hand": "left"
    },
    {
      "midi": 58,
      "time": 59.613,
      "duration": 1.548,
      "velocity": 0.71,
      "hand": "left"
    },
    {
      "midi": 60,
      "time": 59.613,
      "duration": 0.194,
      "velocity": 0.71,
      "hand": "right"
    },
    {
      "midi": 60,
      "time": 59.613,
      "duration": 1.548,
      "velocity": 0.71,
      "hand": "right"
    },
    {
      "midi": 64,
      "time": 59.613,
      "duration": 1.548,
      "velocity": 0.71,
      "hand": "right"
    },
    {
      "midi": 58,
      "time": 59.806,
      "duration": 0.194,
      "velocity": 0.71,
      "hand": "left"
    },
    {
      "midi": 57,
      "time": 60,
      "duration": 0.194,
      "velocity": 0.71,
      "hand": "left"
    },
    {
      "midi": 55,
      "time": 60.194,
      "duration": 0.194,
      "velocity": 0.71,
      "hand": "left"
    },
    {
      "midi": 55,
      "time": 60.387,
      "duration": 0.581,
      "velocity": 0.71,
      "hand": "left"
    },
    {
      "midi": 57,
      "time": 60.968,
      "duration": 0.194,
      "velocity": 0.71,
      "hand": "left"
    },
    {
      "midi": 41,
      "time": 61.161,
      "duration": 0.387,
      "velocity": 0.71,
      "hand": "left"
    },
    {
      "midi": 53,
      "time": 61.161,
      "duration": 0.387,
      "velocity": 0.71,
      "hand": "left"
    },
    {
      "midi": 53,
      "time": 61.548,
      "duration": 0.387,
      "velocity": 0.71,
      "hand": "left"
    },
    {
      "midi": 57,
      "time": 61.548,
      "duration": 0.387,
      "velocity": 0.71,
      "hand": "left"
    },
    {
      "midi": 60,
      "time": 61.548,
      "duration": 0.387,
      "velocity": 0.71,
      "hand": "right"
    },
    {
      "midi": 65,
      "time": 61.548,
      "duration": 0.387,
      "velocity": 0.71,
      "hand": "right"
    },
    {
      "midi": 41,
      "time": 61.935,
      "duration": 0.387,
      "velocity": 0.71,
      "hand": "left"
    },
    {
      "midi": 53,
      "time": 61.935,
      "duration": 0.387,
      "velocity": 0.71,
      "hand": "left"
    },
    {
      "midi": 53,
      "time": 62.323,
      "duration": 0.387,
      "velocity": 0.71,
      "hand": "left"
    },
    {
      "midi": 57,
      "time": 62.323,
      "duration": 0.387,
      "velocity": 0.71,
      "hand": "left"
    },
    {
      "midi": 62,
      "time": 62.323,
      "duration": 0.387,
      "velocity": 0.71,
      "hand": "right"
    },
    {
      "midi": 65,
      "time": 62.323,
      "duration": 0.387,
      "velocity": 0.71,
      "hand": "right"
    },
    {
      "midi": 43,
      "time": 62.71,
      "duration": 0.387,
      "velocity": 0.71,
      "hand": "left"
    },
    {
      "midi": 52,
      "time": 62.71,
      "duration": 0.581,
      "velocity": 0.71,
      "hand": "left"
    },
    {
      "midi": 55,
      "time": 63.097,
      "duration": 0.387,
      "velocity": 0.71,
      "hand": "left"
    },
    {
      "midi": 60,
      "time": 63.097,
      "duration": 0.387,
      "velocity": 0.71,
      "hand": "right"
    },
    {
      "midi": 64,
      "time": 63.097,
      "duration": 0.387,
      "velocity": 0.71,
      "hand": "right"
    },
    {
      "midi": 52,
      "time": 63.29,
      "duration": 0.194,
      "velocity": 0.71,
      "hand": "left"
    },
    {
      "midi": 43,
      "time": 63.484,
      "duration": 0.387,
      "velocity": 0.71,
      "hand": "left"
    },
    {
      "midi": 50,
      "time": 63.484,
      "duration": 0.581,
      "velocity": 0.71,
      "hand": "left"
    },
    {
      "midi": 53,
      "time": 63.871,
      "duration": 0.387,
      "velocity": 0.71,
      "hand": "left"
    },
    {
      "midi": 59,
      "time": 63.871,
      "duration": 0.387,
      "velocity": 0.71,
      "hand": "left"
    },
    {
      "midi": 62,
      "time": 63.871,
      "duration": 0.387,
      "velocity": 0.71,
      "hand": "right"
    },
    {
      "midi": 50,
      "time": 64.065,
      "duration": 0.194,
      "velocity": 0.71,
      "hand": "left"
    },
    {
      "midi": 36,
      "time": 64.258,
      "duration": 0.387,
      "velocity": 0.71,
      "hand": "left"
    },
    {
      "midi": 48,
      "time": 64.258,
      "duration": 0.387,
      "velocity": 0.71,
      "hand": "left"
    },
    {
      "midi": 48,
      "time": 64.645,
      "duration": 0.194,
      "velocity": 0.71,
      "hand": "left"
    },
    {
      "midi": 52,
      "time": 64.645,
      "duration": 0.387,
      "velocity": 0.71,
      "hand": "left"
    },
    {
      "midi": 55,
      "time": 64.645,
      "duration": 0.387,
      "velocity": 0.71,
      "hand": "left"
    },
    {
      "midi": 60,
      "time": 64.645,
      "duration": 0.387,
      "velocity": 0.71,
      "hand": "right"
    },
    {
      "midi": 48,
      "time": 64.839,
      "duration": 0.194,
      "velocity": 0.71,
      "hand": "left"
    },
    {
      "midi": 43,
      "time": 65.032,
      "duration": 0.387,
      "velocity": 0.71,
      "hand": "left"
    },
    {
      "midi": 50,
      "time": 65.032,
      "duration": 0.581,
      "velocity": 0.71,
      "hand": "left"
    },
    {
      "midi": 53,
      "time": 65.419,
      "duration": 0.387,
      "velocity": 0.71,
      "hand": "left"
    },
    {
      "midi": 55,
      "time": 65.419,
      "duration": 0.387,
      "velocity": 0.71,
      "hand": "left"
    },
    {
      "midi": 59,
      "time": 65.419,
      "duration": 0.387,
      "velocity": 0.71,
      "hand": "left"
    },
    {
      "midi": 62,
      "time": 65.419,
      "duration": 0.387,
      "velocity": 0.71,
      "hand": "right"
    },
    {
      "midi": 52,
      "time": 65.613,
      "duration": 0.194,
      "velocity": 0.71,
      "hand": "left"
    },
    {
      "midi": 36,
      "time": 65.806,
      "duration": 0.387,
      "velocity": 0.71,
      "hand": "left"
    },
    {
      "midi": 48,
      "time": 65.806,
      "duration": 0.387,
      "velocity": 0.71,
      "hand": "left"
    },
    {
      "midi": 48,
      "time": 66.194,
      "duration": 0.194,
      "velocity": 0.71,
      "hand": "left"
    },
    {
      "midi": 52,
      "time": 66.194,
      "duration": 0.387,
      "velocity": 0.71,
      "hand": "left"
    },
    {
      "midi": 55,
      "time": 66.194,
      "duration": 0.387,
      "velocity": 0.71,
      "hand": "left"
    },
    {
      "midi": 60,
      "time": 66.194,
      "duration": 0.387,
      "velocity": 0.71,
      "hand": "right"
    },
    {
      "midi": 48,
      "time": 66.387,
      "duration": 0.194,
      "velocity": 0.71,
      "hand": "left"
    },
    {
      "midi": 31,
      "time": 66.581,
      "duration": 0.387,
      "velocity": 0.71,
      "hand": "left"
    },
    {
      "midi": 43,
      "time": 66.581,
      "duration": 0.387,
      "velocity": 0.71,
      "hand": "left"
    },
    {
      "midi": 50,
      "time": 66.581,
      "duration": 0.581,
      "velocity": 0.71,
      "hand": "left"
    },
    {
      "midi": 53,
      "time": 66.581,
      "duration": 0.387,
      "velocity": 0.71,
      "hand": "left"
    },
    {
      "midi": 55,
      "time": 66.581,
      "duration": 0.387,
      "velocity": 0.71,
      "hand": "left"
    },
    {
      "midi": 59,
      "time": 66.581,
      "duration": 0.387,
      "velocity": 0.71,
      "hand": "left"
    },
    {
      "midi": 62,
      "time": 66.581,
      "duration": 0.387,
      "velocity": 0.71,
      "hand": "right"
    },
    {
      "midi": 52,
      "time": 67.161,
      "duration": 0.194,
      "velocity": 0.71,
      "hand": "left"
    },
    {
      "midi": 36,
      "time": 67.355,
      "duration": 0.387,
      "velocity": 0.71,
      "hand": "left"
    },
    {
      "midi": 48,
      "time": 67.355,
      "duration": 0.387,
      "velocity": 0.71,
      "hand": "left"
    },
    {
      "midi": 52,
      "time": 67.355,
      "duration": 0.387,
      "velocity": 0.71,
      "hand": "left"
    },
    {
      "midi": 55,
      "time": 67.355,
      "duration": 0.387,
      "velocity": 0.71,
      "hand": "left"
    },
    {
      "midi": 60,
      "time": 67.355,
      "duration": 0.387,
      "velocity": 0.71,
      "hand": "right"
    },
    {
      "midi": 48,
      "time": 67.742,
      "duration": 0.387,
      "velocity": 0.71,
      "hand": "left"
    },
    {
      "midi": 41,
      "time": 68.903,
      "duration": 0.387,
      "velocity": 0.71,
      "hand": "left"
    },
    {
      "midi": 53,
      "time": 68.903,
      "duration": 0.387,
      "velocity": 0.71,
      "hand": "left"
    },
    {
      "midi": 57,
      "time": 68.903,
      "duration": 1.161,
      "velocity": 0.71,
      "hand": "left"
    },
    {
      "midi": 69,
      "time": 68.903,
      "duration": 0.097,
      "velocity": 0.71,
      "hand": "right"
    },
    {
      "midi": 65,
      "time": 69,
      "duration": 0.097,
      "velocity": 0.71,
      "hand": "right"
    },
    {
      "midi": 60,
      "time": 69.194,
      "duration": 0.097,
      "velocity": 0.71,
      "hand": "right"
    },
    {
      "midi": 69,
      "time": 69.29,
      "duration": 0.097,
      "velocity": 0.71,
      "hand": "right"
    },
    {
      "midi": 65,
      "time": 69.387,
      "duration": 0.097,
      "velocity": 0.71,
      "hand": "right"
    },
    {
      "midi": 60,
      "time": 69.581,
      "duration": 0.097,
      "velocity": 0.71,
      "hand": "right"
    },
    {
      "midi": 69,
      "time": 69.677,
      "duration": 0.097,
      "velocity": 0.71,
      "hand": "right"
    },
    {
      "midi": 65,
      "time": 69.774,
      "duration": 0.097,
      "velocity": 0.71,
      "hand": "right"
    },
    {
      "midi": 60,
      "time": 69.968,
      "duration": 0.097,
      "velocity": 0.71,
      "hand": "right"
    },
    {
      "midi": 58,
      "time": 70.065,
      "duration": 0.387,
      "velocity": 0.71,
      "hand": "left"
    },
    {
      "midi": 70,
      "time": 70.065,
      "duration": 0.097,
      "velocity": 0.71,
      "hand": "right"
    },
    {
      "midi": 67,
      "time": 70.161,
      "duration": 0.097,
      "velocity": 0.71,
      "hand": "right"
    },
    {
      "midi": 60,
      "time": 70.355,
      "duration": 0.097,
      "velocity": 0.71,
      "hand": "right"
    },
    {
      "midi": 60,
      "time": 70.452,
      "duration": 0.387,
      "velocity": 0.71,
      "hand": "right"
    },
    {
      "midi": 72,
      "time": 70.452,
      "duration": 0.097,
      "velocity": 0.71,
      "hand": "right"
    },
    {
      "midi": 69,
      "time": 70.548,
      "duration": 0.097,
      "velocity": 0.71,
      "hand": "right"
    },
    {
      "midi": 60,
      "time": 70.742,
      "duration": 0.097,
      "velocity": 0.71,
      "hand": "right"
    },
    {
      "midi": 58,
      "time": 70.839,
      "duration": 0.387,
      "velocity": 0.71,
      "hand": "left"
    },
    {
      "midi": 70,
      "time": 70.839,
      "duration": 0.097,
      "velocity": 0.71,
      "hand": "right"
    },
    {
      "midi": 67,
      "time": 70.935,
      "duration": 0.097,
      "velocity": 0.71,
      "hand": "right"
    },
    {
      "midi": 60,
      "time": 71.129,
      "duration": 0.097,
      "velocity": 0.71,
      "hand": "right"
    },
    {
      "midi": 57,
      "time": 71.226,
      "duration": 0.387,
      "velocity": 0.71,
      "hand": "left"
    },
    {
      "midi": 69,
      "time": 71.226,
      "duration": 0.097,
      "velocity": 0.71,
      "hand": "right"
    },
    {
      "midi": 65,
      "time": 71.323,
      "duration": 0.097,
      "velocity": 0.71,
      "hand": "right"
    },
    {
      "midi": 60,
      "time": 71.516,
      "duration": 0.097,
      "velocity": 0.71,
      "hand": "right"
    },
    {
      "midi": 55,
      "time": 71.613,
      "duration": 0.387,
      "velocity": 0.71,
      "hand": "left"
    },
    {
      "midi": 67,
      "time": 71.613,
      "duration": 0.097,
      "velocity": 0.71,
      "hand": "right"
    },
    {
      "midi": 64,
      "time": 71.71,
      "duration": 0.097,
      "velocity": 0.71,
      "hand": "right"
    },
    {
      "midi": 60,
      "time": 71.903,
      "duration": 0.097,
      "velocity": 0.71,
      "hand": "right"
    },
    {
      "midi": 41,
      "time": 72,
      "duration": 0.387,
      "velocity": 0.71,
      "hand": "left"
    },
    {
      "midi": 53,
      "time": 72,
      "duration": 0.387,
      "velocity": 0.71,
      "hand": "left"
    },
    {
      "midi": 79,
      "time": 72,
      "duration": 0.048,
      "velocity": 0.71,
      "hand": "right"
    },
    {
      "midi": 81,
      "time": 72,
      "duration": 0.048,
      "velocity": 0.71,
      "hand": "right"
    },
    {
      "midi": 82,
      "time": 72,
      "duration": 0.048,
      "velocity": 0.71,
      "hand": "right"
    },
    {
      "midi": 84,
      "time": 72,
      "duration": 0.048,
      "velocity": 0.71,
      "hand": "right"
    },
    {
      "midi": 77,
      "time": 72.097,
      "duration": 0.29,
      "velocity": 0.71,
      "hand": "right"
    },
    {
      "midi": 81,
      "time": 72.097,
      "duration": 0.29,
      "velocity": 0.71,
      "hand": "right"
    },
    {
      "midi": 45,
      "time": 72.387,
      "duration": 0.387,
      "velocity": 0.71,
      "hand": "left"
    },
    {
      "midi": 53,
      "time": 72.387,
      "duration": 0.387,
      "velocity": 0.71,
      "hand": "left"
    },
    {
      "midi": 57,
      "time": 72.387,
      "duration": 0.387,
      "velocity": 0.71,
      "hand": "left"
    },
    {
      "midi": 77,
      "time": 72.387,
      "duration": 0.194,
      "velocity": 0.71,
      "hand": "right"
    },
    {
      "midi": 81,
      "time": 72.387,
      "duration": 0.194,
      "velocity": 0.71,
      "hand": "right"
    },
    {
      "midi": 77,
      "time": 72.581,
      "duration": 0.194,
      "velocity": 0.71,
      "hand": "right"
    },
    {
      "midi": 81,
      "time": 72.581,
      "duration": 0.194,
      "velocity": 0.71,
      "hand": "right"
    },
    {
      "midi": 48,
      "time": 72.774,
      "duration": 0.387,
      "velocity": 0.71,
      "hand": "left"
    },
    {
      "midi": 60,
      "time": 72.774,
      "duration": 0.387,
      "velocity": 0.71,
      "hand": "right"
    },
    {
      "midi": 77,
      "time": 72.774,
      "duration": 0.194,
      "velocity": 0.71,
      "hand": "right"
    },
    {
      "midi": 81,
      "time": 72.774,
      "duration": 0.194,
      "velocity": 0.71,
      "hand": "right"
    },
    {
      "midi": 79,
      "time": 72.968,
      "duration": 0.097,
      "velocity": 0.71,
      "hand": "right"
    },
    {
      "midi": 81,
      "time": 73.065,
      "duration": 0.097,
      "velocity": 0.71,
      "hand": "right"
    },
    {
      "midi": 36,
      "time": 73.161,
      "duration": 0.387,
      "velocity": 0.71,
      "hand": "left"
    },
    {
      "midi": 48,
      "time": 73.161,
      "duration": 0.387,
      "velocity": 0.71,
      "hand": "left"
    },
    {
      "midi": 79,
      "time": 73.161,
      "duration": 0.194,
      "velocity": 0.71,
      "hand": "right"
    },
    {
      "midi": 82,
      "time": 73.161,
      "duration": 0.194,
      "velocity": 0.71,
      "hand": "right"
    },
    {
      "midi": 76,
      "time": 73.355,
      "duration": 0.194,
      "velocity": 0.71,
      "hand": "right"
    },
    {
      "midi": 79,
      "time": 73.355,
      "duration": 0.194,
      "velocity": 0.71,
      "hand": "right"
    },
    {
      "midi": 41,
      "time": 73.548,
      "duration": 0.387,
      "velocity": 0.71,
      "hand": "left"
    },
    {
      "midi": 53,
      "time": 73.548,
      "duration": 0.387,
      "velocity": 0.71,
      "hand": "left"
    },
    {
      "midi": 57,
      "time": 73.548,
      "duration": 1.161,
      "velocity": 0.71,
      "hand": "left"
    },
    {
      "midi": 69,
      "time": 73.548,
      "duration": 0.097,
      "velocity": 0.71,
      "hand": "right"
    },
    {
      "midi": 65,
      "time": 73.645,
      "duration": 0.097,
      "velocity": 0.71,
      "hand": "right"
    },
    {
      "midi": 60,
      "time": 73.839,
      "duration": 0.097,
      "velocity": 0.71,
      "hand": "right"
    },
    {
      "midi": 69,
      "time": 73.935,
      "duration": 0.097,
      "velocity": 0.71,
      "hand": "right"
    },
    {
      "midi": 65,
      "time": 74.032,
      "duration": 0.097,
      "velocity": 0.71,
      "hand": "right"
    },
    {
      "midi": 60,
      "time": 74.226,
      "duration": 0.097,
      "velocity": 0.71,
      "hand": "right"
    },
    {
      "midi": 69,
      "time": 74.323,
      "duration": 0.097,
      "velocity": 0.71,
      "hand": "right"
    },
    {
      "midi": 65,
      "time": 74.419,
      "duration": 0.097,
      "velocity": 0.71,
      "hand": "right"
    },
    {
      "midi": 60,
      "time": 74.613,
      "duration": 0.097,
      "velocity": 0.71,
      "hand": "right"
    },
    {
      "midi": 58,
      "time": 74.71,
      "duration": 0.387,
      "velocity": 0.71,
      "hand": "left"
    },
    {
      "midi": 70,
      "time": 74.71,
      "duration": 0.097,
      "velocity": 0.71,
      "hand": "right"
    },
    {
      "midi": 67,
      "time": 74.806,
      "duration": 0.097,
      "velocity": 0.71,
      "hand": "right"
    },
    {
      "midi": 60,
      "time": 75,
      "duration": 0.097,
      "velocity": 0.71,
      "hand": "right"
    },
    {
      "midi": 60,
      "time": 75.097,
      "duration": 0.387,
      "velocity": 0.71,
      "hand": "right"
    },
    {
      "midi": 72,
      "time": 75.097,
      "duration": 0.097,
      "velocity": 0.71,
      "hand": "right"
    },
    {
      "midi": 69,
      "time": 75.194,
      "duration": 0.097,
      "velocity": 0.71,
      "hand": "right"
    },
    {
      "midi": 60,
      "time": 75.387,
      "duration": 0.097,
      "velocity": 0.71,
      "hand": "right"
    },
    {
      "midi": 58,
      "time": 75.484,
      "duration": 0.387,
      "velocity": 0.71,
      "hand": "left"
    },
    {
      "midi": 70,
      "time": 75.484,
      "duration": 0.097,
      "velocity": 0.71,
      "hand": "right"
    },
    {
      "midi": 67,
      "time": 75.581,
      "duration": 0.097,
      "velocity": 0.71,
      "hand": "right"
    },
    {
      "midi": 60,
      "time": 75.774,
      "duration": 0.097,
      "velocity": 0.71,
      "hand": "right"
    },
    {
      "midi": 57,
      "time": 75.871,
      "duration": 0.387,
      "velocity": 0.71,
      "hand": "left"
    },
    {
      "midi": 69,
      "time": 75.871,
      "duration": 0.097,
      "velocity": 0.71,
      "hand": "right"
    },
    {
      "midi": 65,
      "time": 75.968,
      "duration": 0.097,
      "velocity": 0.71,
      "hand": "right"
    },
    {
      "midi": 60,
      "time": 76.161,
      "duration": 0.097,
      "velocity": 0.71,
      "hand": "right"
    },
    {
      "midi": 55,
      "time": 76.258,
      "duration": 0.387,
      "velocity": 0.71,
      "hand": "left"
    },
    {
      "midi": 67,
      "time": 76.258,
      "duration": 0.097,
      "velocity": 0.71,
      "hand": "right"
    },
    {
      "midi": 64,
      "time": 76.355,
      "duration": 0.097,
      "velocity": 0.71,
      "hand": "right"
    },
    {
      "midi": 60,
      "time": 76.548,
      "duration": 0.097,
      "velocity": 0.71,
      "hand": "right"
    },
    {
      "midi": 53,
      "time": 76.645,
      "duration": 0.387,
      "velocity": 0.71,
      "hand": "left"
    },
    {
      "midi": 65,
      "time": 76.645,
      "duration": 0.387,
      "velocity": 0.71,
      "hand": "right"
    },
    {
      "midi": 53,
      "time": 77.419,
      "duration": 0.387,
      "velocity": 0.71,
      "hand": "left"
    },
    {
      "midi": 65,
      "time": 77.419,
      "duration": 0.387,
      "velocity": 0.71,
      "hand": "right"
    },
    {
      "midi": 57,
      "time": 77.806,
      "duration": 0.387,
      "velocity": 0.71,
      "hand": "left"
    },
    {
      "midi": 69,
      "time": 77.806,
      "duration": 0.387,
      "velocity": 0.71,
      "hand": "right"
    },
    {
      "midi": 46,
      "time": 78.194,
      "duration": 0.774,
      "velocity": 0.71,
      "hand": "left"
    },
    {
      "midi": 46,
      "time": 78.194,
      "duration": 0.387,
      "velocity": 0.71,
      "hand": "left"
    },
    {
      "midi": 58,
      "time": 78.581,
      "duration": 0.387,
      "velocity": 0.71,
      "hand": "left"
    },
    {
      "midi": 50,
      "time": 78.968,
      "duration": 0.774,
      "velocity": 0.71,
      "hand": "left"
    },
    {
      "midi": 50,
      "time": 78.968,
      "duration": 0.387,
      "velocity": 0.71,
      "hand": "left"
    },
    {
      "midi": 62,
      "time": 79.355,
      "duration": 0.387,
      "velocity": 0.71,
      "hand": "right"
    },
    {
      "midi": 48,
      "time": 79.742,
      "duration": 0.774,
      "velocity": 0.71,
      "hand": "left"
    },
    {
      "midi": 48,
      "time": 79.742,
      "duration": 0.387,
      "velocity": 0.71,
      "hand": "left"
    },
    {
      "midi": 60,
      "time": 80.129,
      "duration": 0.387,
      "velocity": 0.71,
      "hand": "right"
    },
    {
      "midi": 52,
      "time": 80.516,
      "duration": 0.774,
      "velocity": 0.71,
      "hand": "left"
    },
    {
      "midi": 52,
      "time": 80.516,
      "duration": 0.387,
      "velocity": 0.71,
      "hand": "left"
    },
    {
      "midi": 64,
      "time": 80.903,
      "duration": 0.387,
      "velocity": 0.71,
      "hand": "right"
    },
    {
      "midi": 53,
      "time": 81.29,
      "duration": 0.194,
      "velocity": 0.71,
      "hand": "left"
    },
    {
      "midi": 53,
      "time": 81.29,
      "duration": 0.387,
      "velocity": 0.71,
      "hand": "left"
    },
    {
      "midi": 65,
      "time": 81.29,
      "duration": 0.194,
      "velocity": 0.71,
      "hand": "right"
    },
    {
      "midi": 57,
      "time": 81.677,
      "duration": 0.194,
      "velocity": 0.71,
      "hand": "left"
    },
    {
      "midi": 69,
      "time": 81.677,
      "duration": 0.194,
      "velocity": 0.71,
      "hand": "right"
    },
    {
      "midi": 81,
      "time": 81.677,
      "duration": 0.194,
      "velocity": 0.71,
      "hand": "right"
    },
    {
      "midi": 60,
      "time": 82.065,
      "duration": 0.194,
      "velocity": 0.71,
      "hand": "right"
    },
    {
      "midi": 72,
      "time": 82.065,
      "duration": 0.194,
      "velocity": 0.71,
      "hand": "right"
    },
    {
      "midi": 84,
      "time": 82.065,
      "duration": 0.194,
      "velocity": 0.71,
      "hand": "right"
    },
    {
      "midi": 57,
      "time": 82.452,
      "duration": 0.194,
      "velocity": 0.71,
      "hand": "left"
    },
    {
      "midi": 69,
      "time": 82.452,
      "duration": 0.194,
      "velocity": 0.71,
      "hand": "right"
    },
    {
      "midi": 81,
      "time": 82.452,
      "duration": 0.194,
      "velocity": 0.71,
      "hand": "right"
    },
    {
      "midi": 53,
      "time": 82.839,
      "duration": 0.194,
      "velocity": 0.71,
      "hand": "left"
    },
    {
      "midi": 65,
      "time": 82.839,
      "duration": 0.194,
      "velocity": 0.71,
      "hand": "right"
    },
    {
      "midi": 77,
      "time": 82.839,
      "duration": 0.194,
      "velocity": 0.71,
      "hand": "right"
    },
    {
      "midi": 48,
      "time": 83.226,
      "duration": 0.194,
      "velocity": 0.71,
      "hand": "left"
    },
    {
      "midi": 60,
      "time": 83.226,
      "duration": 0.194,
      "velocity": 0.71,
      "hand": "right"
    },
    {
      "midi": 72,
      "time": 83.226,
      "duration": 0.194,
      "velocity": 0.71,
      "hand": "right"
    },
    {
      "midi": 45,
      "time": 83.613,
      "duration": 0.387,
      "velocity": 0.71,
      "hand": "left"
    },
    {
      "midi": 46,
      "time": 83.613,
      "duration": 0.194,
      "velocity": 0.71,
      "hand": "left"
    },
    {
      "midi": 57,
      "time": 83.613,
      "duration": 0.387,
      "velocity": 0.71,
      "hand": "left"
    },
    {
      "midi": 69,
      "time": 83.613,
      "duration": 0.387,
      "velocity": 0.71,
      "hand": "right"
    },
    {
      "midi": 48,
      "time": 84,
      "duration": 0.387,
      "velocity": 0.71,
      "hand": "left"
    },
    {
      "midi": 60,
      "time": 84,
      "duration": 0.387,
      "velocity": 0.71,
      "hand": "right"
    },
    {
      "midi": 72,
      "time": 84,
      "duration": 0.387,
      "velocity": 0.71,
      "hand": "right"
    },
    {
      "midi": 46,
      "time": 84.387,
      "duration": 0.774,
      "velocity": 0.71,
      "hand": "left"
    },
    {
      "midi": 46,
      "time": 84.387,
      "duration": 0.387,
      "velocity": 0.71,
      "hand": "left"
    },
    {
      "midi": 58,
      "time": 84.774,
      "duration": 0.387,
      "velocity": 0.71,
      "hand": "left"
    },
    {
      "midi": 70,
      "time": 84.774,
      "duration": 0.387,
      "velocity": 0.71,
      "hand": "right"
    },
    {
      "midi": 50,
      "time": 85.161,
      "duration": 0.774,
      "velocity": 0.71,
      "hand": "left"
    },
    {
      "midi": 50,
      "time": 85.161,
      "duration": 0.387,
      "velocity": 0.71,
      "hand": "left"
    },
    {
      "midi": 62,
      "time": 85.548,
      "duration": 0.387,
      "velocity": 0.71,
      "hand": "right"
    },
    {
      "midi": 74,
      "time": 85.548,
      "duration": 0.387,
      "velocity": 0.71,
      "hand": "right"
    },
    {
      "midi": 48,
      "time": 85.935,
      "duration": 1.161,
      "velocity": 0.71,
      "hand": "left"
    },
    {
      "midi": 48,
      "time": 85.935,
      "duration": 0.387,
      "velocity": 0.71,
      "hand": "left"
    },
    {
      "midi": 53,
      "time": 85.935,
      "duration": 0.774,
      "velocity": 0.71,
      "hand": "left"
    },
    {
      "midi": 57,
      "time": 85.935,
      "duration": 0.774,
      "velocity": 0.71,
      "hand": "left"
    },
    {
      "midi": 60,
      "time": 86.323,
      "duration": 0.387,
      "velocity": 0.71,
      "hand": "right"
    },
    {
      "midi": 72,
      "time": 86.323,
      "duration": 0.387,
      "velocity": 0.71,
      "hand": "right"
    },
    {
      "midi": 48,
      "time": 86.71,
      "duration": 0.387,
      "velocity": 0.71,
      "hand": "left"
    },
    {
      "midi": 52,
      "time": 86.71,
      "duration": 0.774,
      "velocity": 0.71,
      "hand": "left"
    },
    {
      "midi": 55,
      "time": 86.71,
      "duration": 0.774,
      "velocity": 0.71,
      "hand": "left"
    },
    {
      "midi": 50,
      "time": 87.097,
      "duration": 0.194,
      "velocity": 0.71,
      "hand": "left"
    },
    {
      "midi": 60,
      "time": 87.097,
      "duration": 0.387,
      "velocity": 0.71,
      "hand": "right"
    },
    {
      "midi": 72,
      "time": 87.097,
      "duration": 0.387,
      "velocity": 0.71,
      "hand": "right"
    },
    {
      "midi": 52,
      "time": 87.29,
      "duration": 0.194,
      "velocity": 0.71,
      "hand": "left"
    },
    {
      "midi": 53,
      "time": 87.484,
      "duration": 0.387,
      "velocity": 0.71,
      "hand": "left"
    },
    {
      "midi": 57,
      "time": 87.484,
      "duration": 0.387,
      "velocity": 0.71,
      "hand": "left"
    },
    {
      "midi": 53,
      "time": 87.871,
      "duration": 0.194,
      "velocity": 0.71,
      "hand": "left"
    },
    {
      "midi": 57,
      "time": 87.871,
      "duration": 0.194,
      "velocity": 0.71,
      "hand": "left"
    },
    {
      "midi": 60,
      "time": 87.871,
      "duration": 0.194,
      "velocity": 0.71,
      "hand": "right"
    },
    {
      "midi": 65,
      "time": 87.871,
      "duration": 0.194,
      "velocity": 0.71,
      "hand": "right"
    },
    {
      "midi": 53,
      "time": 88.065,
      "duration": 0.194,
      "velocity": 0.71,
      "hand": "left"
    },
    {
      "midi": 57,
      "time": 88.065,
      "duration": 0.194,
      "velocity": 0.71,
      "hand": "left"
    },
    {
      "midi": 60,
      "time": 88.065,
      "duration": 0.194,
      "velocity": 0.71,
      "hand": "right"
    },
    {
      "midi": 65,
      "time": 88.065,
      "duration": 0.194,
      "velocity": 0.71,
      "hand": "right"
    },
    {
      "midi": 58,
      "time": 88.258,
      "duration": 0.387,
      "velocity": 0.71,
      "hand": "left"
    },
    {
      "midi": 62,
      "time": 88.258,
      "duration": 0.387,
      "velocity": 0.71,
      "hand": "right"
    },
    {
      "midi": 65,
      "time": 88.258,
      "duration": 0.387,
      "velocity": 0.71,
      "hand": "right"
    },
    {
      "midi": 53,
      "time": 88.645,
      "duration": 0.194,
      "velocity": 0.71,
      "hand": "left"
    },
    {
      "midi": 58,
      "time": 88.645,
      "duration": 0.194,
      "velocity": 0.71,
      "hand": "left"
    },
    {
      "midi": 65,
      "time": 88.645,
      "duration": 0.194,
      "velocity": 0.71,
      "hand": "right"
    },
    {
      "midi": 74,
      "time": 88.645,
      "duration": 0.194,
      "velocity": 0.71,
      "hand": "right"
    },
    {
      "midi": 82,
      "time": 88.645,
      "duration": 0.194,
      "velocity": 0.71,
      "hand": "right"
    },
    {
      "midi": 53,
      "time": 88.839,
      "duration": 0.194,
      "velocity": 0.71,
      "hand": "left"
    },
    {
      "midi": 58,
      "time": 88.839,
      "duration": 0.194,
      "velocity": 0.71,
      "hand": "left"
    },
    {
      "midi": 65,
      "time": 88.839,
      "duration": 0.194,
      "velocity": 0.71,
      "hand": "right"
    },
    {
      "midi": 74,
      "time": 88.839,
      "duration": 0.194,
      "velocity": 0.71,
      "hand": "right"
    },
    {
      "midi": 82,
      "time": 88.839,
      "duration": 0.194,
      "velocity": 0.71,
      "hand": "right"
    },
    {
      "midi": 53,
      "time": 89.032,
      "duration": 0.387,
      "velocity": 0.71,
      "hand": "left"
    },
    {
      "midi": 65,
      "time": 89.032,
      "duration": 0.387,
      "velocity": 0.71,
      "hand": "right"
    },
    {
      "midi": 72,
      "time": 89.032,
      "duration": 0.387,
      "velocity": 0.71,
      "hand": "right"
    },
    {
      "midi": 81,
      "time": 89.032,
      "duration": 0.387,
      "velocity": 0.71,
      "hand": "right"
    },
    {
      "midi": 53,
      "time": 89.419,
      "duration": 0.194,
      "velocity": 0.71,
      "hand": "left"
    },
    {
      "midi": 57,
      "time": 89.419,
      "duration": 0.194,
      "velocity": 0.71,
      "hand": "left"
    },
    {
      "midi": 60,
      "time": 89.419,
      "duration": 0.194,
      "velocity": 0.71,
      "hand": "right"
    },
    {
      "midi": 65,
      "time": 89.419,
      "duration": 0.194,
      "velocity": 0.71,
      "hand": "right"
    },
    {
      "midi": 53,
      "time": 89.613,
      "duration": 0.194,
      "velocity": 0.71,
      "hand": "left"
    },
    {
      "midi": 57,
      "time": 89.613,
      "duration": 0.194,
      "velocity": 0.71,
      "hand": "left"
    },
    {
      "midi": 60,
      "time": 89.613,
      "duration": 0.194,
      "velocity": 0.71,
      "hand": "right"
    },
    {
      "midi": 65,
      "time": 89.613,
      "duration": 0.194,
      "velocity": 0.71,
      "hand": "right"
    },
    {
      "midi": 58,
      "time": 89.806,
      "duration": 0.387,
      "velocity": 0.71,
      "hand": "left"
    },
    {
      "midi": 62,
      "time": 89.806,
      "duration": 0.387,
      "velocity": 0.71,
      "hand": "right"
    },
    {
      "midi": 65,
      "time": 89.806,
      "duration": 0.387,
      "velocity": 0.71,
      "hand": "right"
    },
    {
      "midi": 53,
      "time": 90,
      "duration": 0.194,
      "velocity": 0.71,
      "hand": "left"
    },
    {
      "midi": 53,
      "time": 90.194,
      "duration": 0.194,
      "velocity": 0.71,
      "hand": "left"
    },
    {
      "midi": 58,
      "time": 90.194,
      "duration": 0.194,
      "velocity": 0.71,
      "hand": "left"
    },
    {
      "midi": 65,
      "time": 90.194,
      "duration": 0.194,
      "velocity": 0.71,
      "hand": "right"
    },
    {
      "midi": 74,
      "time": 90.194,
      "duration": 0.194,
      "velocity": 0.71,
      "hand": "right"
    },
    {
      "midi": 82,
      "time": 90.194,
      "duration": 0.194,
      "velocity": 0.71,
      "hand": "right"
    },
    {
      "midi": 53,
      "time": 90.387,
      "duration": 0.194,
      "velocity": 0.71,
      "hand": "left"
    },
    {
      "midi": 58,
      "time": 90.387,
      "duration": 0.194,
      "velocity": 0.71,
      "hand": "left"
    },
    {
      "midi": 65,
      "time": 90.387,
      "duration": 0.194,
      "velocity": 0.71,
      "hand": "right"
    },
    {
      "midi": 74,
      "time": 90.387,
      "duration": 0.194,
      "velocity": 0.71,
      "hand": "right"
    },
    {
      "midi": 82,
      "time": 90.387,
      "duration": 0.194,
      "velocity": 0.71,
      "hand": "right"
    },
    {
      "midi": 53,
      "time": 90.581,
      "duration": 0.387,
      "velocity": 0.71,
      "hand": "left"
    },
    {
      "midi": 65,
      "time": 90.581,
      "duration": 0.387,
      "velocity": 0.71,
      "hand": "right"
    },
    {
      "midi": 72,
      "time": 90.581,
      "duration": 0.387,
      "velocity": 0.71,
      "hand": "right"
    },
    {
      "midi": 81,
      "time": 90.581,
      "duration": 0.387,
      "velocity": 0.71,
      "hand": "right"
    },
    {
      "midi": 53,
      "time": 90.968,
      "duration": 0.387,
      "velocity": 0.71,
      "hand": "left"
    },
    {
      "midi": 53,
      "time": 90.968,
      "duration": 0.194,
      "velocity": 0.71,
      "hand": "left"
    },
    {
      "midi": 57,
      "time": 90.968,
      "duration": 0.194,
      "velocity": 0.71,
      "hand": "left"
    },
    {
      "midi": 60,
      "time": 90.968,
      "duration": 0.194,
      "velocity": 0.71,
      "hand": "right"
    },
    {
      "midi": 65,
      "time": 90.968,
      "duration": 0.194,
      "velocity": 0.71,
      "hand": "right"
    },
    {
      "midi": 53,
      "time": 91.161,
      "duration": 0.194,
      "velocity": 0.71,
      "hand": "left"
    },
    {
      "midi": 57,
      "time": 91.161,
      "duration": 0.194,
      "velocity": 0.71,
      "hand": "left"
    },
    {
      "midi": 60,
      "time": 91.161,
      "duration": 0.194,
      "velocity": 0.71,
      "hand": "right"
    },
    {
      "midi": 65,
      "time": 91.161,
      "duration": 0.194,
      "velocity": 0.71,
      "hand": "right"
    },
    {
      "midi": 58,
      "time": 91.355,
      "duration": 0.387,
      "velocity": 0.71,
      "hand": "left"
    },
    {
      "midi": 62,
      "time": 91.355,
      "duration": 0.387,
      "velocity": 0.71,
      "hand": "right"
    },
    {
      "midi": 65,
      "time": 91.355,
      "duration": 0.387,
      "velocity": 0.71,
      "hand": "right"
    },
    {
      "midi": 53,
      "time": 91.742,
      "duration": 0.194,
      "velocity": 0.71,
      "hand": "left"
    },
    {
      "midi": 58,
      "time": 91.742,
      "duration": 0.194,
      "velocity": 0.71,
      "hand": "left"
    },
    {
      "midi": 65,
      "time": 91.742,
      "duration": 0.194,
      "velocity": 0.71,
      "hand": "right"
    },
    {
      "midi": 74,
      "time": 91.742,
      "duration": 0.194,
      "velocity": 0.71,
      "hand": "right"
    },
    {
      "midi": 82,
      "time": 91.742,
      "duration": 0.194,
      "velocity": 0.71,
      "hand": "right"
    },
    {
      "midi": 53,
      "time": 91.935,
      "duration": 0.194,
      "velocity": 0.71,
      "hand": "left"
    },
    {
      "midi": 58,
      "time": 91.935,
      "duration": 0.194,
      "velocity": 0.71,
      "hand": "left"
    },
    {
      "midi": 65,
      "time": 91.935,
      "duration": 0.194,
      "velocity": 0.71,
      "hand": "right"
    },
    {
      "midi": 74,
      "time": 91.935,
      "duration": 0.194,
      "velocity": 0.71,
      "hand": "right"
    },
    {
      "midi": 82,
      "time": 91.935,
      "duration": 0.194,
      "velocity": 0.71,
      "hand": "right"
    },
    {
      "midi": 53,
      "time": 92.129,
      "duration": 0.387,
      "velocity": 0.71,
      "hand": "left"
    },
    {
      "midi": 65,
      "time": 92.129,
      "duration": 0.387,
      "velocity": 0.71,
      "hand": "right"
    },
    {
      "midi": 72,
      "time": 92.129,
      "duration": 0.387,
      "velocity": 0.71,
      "hand": "right"
    },
    {
      "midi": 81,
      "time": 92.129,
      "duration": 0.387,
      "velocity": 0.71,
      "hand": "right"
    },
    {
      "midi": 53,
      "time": 92.516,
      "duration": 0.194,
      "velocity": 0.71,
      "hand": "left"
    },
    {
      "midi": 57,
      "time": 92.516,
      "duration": 0.194,
      "velocity": 0.71,
      "hand": "left"
    },
    {
      "midi": 60,
      "time": 92.516,
      "duration": 0.194,
      "velocity": 0.71,
      "hand": "right"
    },
    {
      "midi": 65,
      "time": 92.516,
      "duration": 0.194,
      "velocity": 0.71,
      "hand": "right"
    },
    {
      "midi": 53,
      "time": 92.71,
      "duration": 0.194,
      "velocity": 0.71,
      "hand": "left"
    },
    {
      "midi": 57,
      "time": 92.71,
      "duration": 0.194,
      "velocity": 0.71,
      "hand": "left"
    },
    {
      "midi": 60,
      "time": 92.71,
      "duration": 0.194,
      "velocity": 0.71,
      "hand": "right"
    },
    {
      "midi": 65,
      "time": 92.71,
      "duration": 0.194,
      "velocity": 0.71,
      "hand": "right"
    },
    {
      "midi": 58,
      "time": 92.903,
      "duration": 0.387,
      "velocity": 0.71,
      "hand": "left"
    },
    {
      "midi": 62,
      "time": 92.903,
      "duration": 0.387,
      "velocity": 0.71,
      "hand": "right"
    },
    {
      "midi": 65,
      "time": 92.903,
      "duration": 0.387,
      "velocity": 0.71,
      "hand": "right"
    },
    {
      "midi": 53,
      "time": 93.097,
      "duration": 0.194,
      "velocity": 0.71,
      "hand": "left"
    },
    {
      "midi": 53,
      "time": 93.29,
      "duration": 0.194,
      "velocity": 0.71,
      "hand": "left"
    },
    {
      "midi": 58,
      "time": 93.29,
      "duration": 0.194,
      "velocity": 0.71,
      "hand": "left"
    },
    {
      "midi": 65,
      "time": 93.29,
      "duration": 0.194,
      "velocity": 0.71,
      "hand": "right"
    },
    {
      "midi": 74,
      "time": 93.29,
      "duration": 0.194,
      "velocity": 0.71,
      "hand": "right"
    },
    {
      "midi": 82,
      "time": 93.29,
      "duration": 0.194,
      "velocity": 0.71,
      "hand": "right"
    },
    {
      "midi": 53,
      "time": 93.484,
      "duration": 0.194,
      "velocity": 0.71,
      "hand": "left"
    },
    {
      "midi": 58,
      "time": 93.484,
      "duration": 0.194,
      "velocity": 0.71,
      "hand": "left"
    },
    {
      "midi": 65,
      "time": 93.484,
      "duration": 0.194,
      "velocity": 0.71,
      "hand": "right"
    },
    {
      "midi": 74,
      "time": 93.484,
      "duration": 0.194,
      "velocity": 0.71,
      "hand": "right"
    },
    {
      "midi": 82,
      "time": 93.484,
      "duration": 0.194,
      "velocity": 0.71,
      "hand": "right"
    },
    {
      "midi": 53,
      "time": 93.677,
      "duration": 0.194,
      "velocity": 0.71,
      "hand": "left"
    },
    {
      "midi": 65,
      "time": 93.677,
      "duration": 0.387,
      "velocity": 0.71,
      "hand": "right"
    },
    {
      "midi": 72,
      "time": 93.677,
      "duration": 0.194,
      "velocity": 0.71,
      "hand": "right"
    },
    {
      "midi": 81,
      "time": 93.677,
      "duration": 0.194,
      "velocity": 0.71,
      "hand": "right"
    },
    {
      "midi": 53,
      "time": 93.871,
      "duration": 0.194,
      "velocity": 0.71,
      "hand": "left"
    },
    {
      "midi": 69,
      "time": 93.871,
      "duration": 0.194,
      "velocity": 0.71,
      "hand": "right"
    },
    {
      "midi": 72,
      "time": 93.871,
      "duration": 0.194,
      "velocity": 0.71,
      "hand": "right"
    },
    {
      "midi": 53,
      "time": 94.065,
      "duration": 0.194,
      "velocity": 0.71,
      "hand": "left"
    },
    {
      "midi": 58,
      "time": 94.065,
      "duration": 0.194,
      "velocity": 0.71,
      "hand": "left"
    },
    {
      "midi": 70,
      "time": 94.065,
      "duration": 0.194,
      "velocity": 0.71,
      "hand": "right"
    },
    {
      "midi": 74,
      "time": 94.065,
      "duration": 0.194,
      "velocity": 0.71,
      "hand": "right"
    },
    {
      "midi": 53,
      "time": 94.258,
      "duration": 0.194,
      "velocity": 0.71,
      "hand": "left"
    },
    {
      "midi": 58,
      "time": 94.258,
      "duration": 0.194,
      "velocity": 0.71,
      "hand": "left"
    },
    {
      "midi": 70,
      "time": 94.258,
      "duration": 0.194,
      "velocity": 0.71,
      "hand": "right"
    },
    {
      "midi": 74,
      "time": 94.258,
      "duration": 0.194,
      "velocity": 0.71,
      "hand": "right"
    },
    {
      "midi": 53,
      "time": 94.452,
      "duration": 0.194,
      "velocity": 0.71,
      "hand": "left"
    },
    {
      "midi": 69,
      "time": 94.452,
      "duration": 0.194,
      "velocity": 0.71,
      "hand": "right"
    },
    {
      "midi": 72,
      "time": 94.452,
      "duration": 0.194,
      "velocity": 0.71,
      "hand": "right"
    },
    {
      "midi": 53,
      "time": 94.645,
      "duration": 0.194,
      "velocity": 0.71,
      "hand": "left"
    },
    {
      "midi": 69,
      "time": 94.645,
      "duration": 0.194,
      "velocity": 0.71,
      "hand": "right"
    },
    {
      "midi": 72,
      "time": 94.645,
      "duration": 0.194,
      "velocity": 0.71,
      "hand": "right"
    },
    {
      "midi": 53,
      "time": 94.839,
      "duration": 0.194,
      "velocity": 0.71,
      "hand": "left"
    },
    {
      "midi": 58,
      "time": 94.839,
      "duration": 0.194,
      "velocity": 0.71,
      "hand": "left"
    },
    {
      "midi": 70,
      "time": 94.839,
      "duration": 0.194,
      "velocity": 0.71,
      "hand": "right"
    },
    {
      "midi": 74,
      "time": 94.839,
      "duration": 0.194,
      "velocity": 0.71,
      "hand": "right"
    },
    {
      "midi": 53,
      "time": 95.032,
      "duration": 0.194,
      "velocity": 0.71,
      "hand": "left"
    },
    {
      "midi": 58,
      "time": 95.032,
      "duration": 0.194,
      "velocity": 0.71,
      "hand": "left"
    },
    {
      "midi": 70,
      "time": 95.032,
      "duration": 0.194,
      "velocity": 0.71,
      "hand": "right"
    },
    {
      "midi": 74,
      "time": 95.032,
      "duration": 0.194,
      "velocity": 0.71,
      "hand": "right"
    },
    {
      "midi": 53,
      "time": 95.226,
      "duration": 0.194,
      "velocity": 0.71,
      "hand": "left"
    },
    {
      "midi": 69,
      "time": 95.226,
      "duration": 0.194,
      "velocity": 0.71,
      "hand": "right"
    },
    {
      "midi": 72,
      "time": 95.226,
      "duration": 0.194,
      "velocity": 0.71,
      "hand": "right"
    },
    {
      "midi": 53,
      "time": 95.419,
      "duration": 0.194,
      "velocity": 0.71,
      "hand": "left"
    },
    {
      "midi": 65,
      "time": 95.419,
      "duration": 0.194,
      "velocity": 0.71,
      "hand": "right"
    },
    {
      "midi": 81,
      "time": 95.419,
      "duration": 0.194,
      "velocity": 0.71,
      "hand": "right"
    },
    {
      "midi": 84,
      "time": 95.419,
      "duration": 0.194,
      "velocity": 0.71,
      "hand": "right"
    },
    {
      "midi": 53,
      "time": 95.613,
      "duration": 0.194,
      "velocity": 0.71,
      "hand": "left"
    },
    {
      "midi": 58,
      "time": 95.613,
      "duration": 0.194,
      "velocity": 0.71,
      "hand": "left"
    },
    {
      "midi": 65,
      "time": 95.613,
      "duration": 0.194,
      "velocity": 0.71,
      "hand": "right"
    },
    {
      "midi": 82,
      "time": 95.613,
      "duration": 0.194,
      "velocity": 0.71,
      "hand": "right"
    },
    {
      "midi": 86,
      "time": 95.613,
      "duration": 0.194,
      "velocity": 0.71,
      "hand": "right"
    },
    {
      "midi": 53,
      "time": 95.806,
      "duration": 0.194,
      "velocity": 0.71,
      "hand": "left"
    },
    {
      "midi": 58,
      "time": 95.806,
      "duration": 0.194,
      "velocity": 0.71,
      "hand": "left"
    },
    {
      "midi": 65,
      "time": 95.806,
      "duration": 0.194,
      "velocity": 0.71,
      "hand": "right"
    },
    {
      "midi": 82,
      "time": 95.806,
      "duration": 0.194,
      "velocity": 0.71,
      "hand": "right"
    },
    {
      "midi": 86,
      "time": 95.806,
      "duration": 0.194,
      "velocity": 0.71,
      "hand": "right"
    },
    {
      "midi": 53,
      "time": 96,
      "duration": 0.194,
      "velocity": 0.71,
      "hand": "left"
    },
    {
      "midi": 65,
      "time": 96,
      "duration": 0.194,
      "velocity": 0.71,
      "hand": "right"
    },
    {
      "midi": 81,
      "time": 96,
      "duration": 0.194,
      "velocity": 0.71,
      "hand": "right"
    },
    {
      "midi": 84,
      "time": 96,
      "duration": 0.194,
      "velocity": 0.71,
      "hand": "right"
    },
    {
      "midi": 53,
      "time": 96.194,
      "duration": 0.194,
      "velocity": 0.71,
      "hand": "left"
    },
    {
      "midi": 65,
      "time": 96.194,
      "duration": 0.194,
      "velocity": 0.71,
      "hand": "right"
    },
    {
      "midi": 81,
      "time": 96.194,
      "duration": 0.194,
      "velocity": 0.71,
      "hand": "right"
    },
    {
      "midi": 84,
      "time": 96.194,
      "duration": 0.194,
      "velocity": 0.71,
      "hand": "right"
    },
    {
      "midi": 53,
      "time": 96.387,
      "duration": 0.194,
      "velocity": 0.71,
      "hand": "left"
    },
    {
      "midi": 58,
      "time": 96.387,
      "duration": 0.194,
      "velocity": 0.71,
      "hand": "left"
    },
    {
      "midi": 65,
      "time": 96.387,
      "duration": 0.194,
      "velocity": 0.71,
      "hand": "right"
    },
    {
      "midi": 82,
      "time": 96.387,
      "duration": 0.194,
      "velocity": 0.71,
      "hand": "right"
    },
    {
      "midi": 86,
      "time": 96.387,
      "duration": 0.194,
      "velocity": 0.71,
      "hand": "right"
    },
    {
      "midi": 53,
      "time": 96.581,
      "duration": 0.194,
      "velocity": 0.71,
      "hand": "left"
    },
    {
      "midi": 58,
      "time": 96.581,
      "duration": 0.194,
      "velocity": 0.71,
      "hand": "left"
    },
    {
      "midi": 65,
      "time": 96.581,
      "duration": 0.194,
      "velocity": 0.71,
      "hand": "right"
    },
    {
      "midi": 82,
      "time": 96.581,
      "duration": 0.194,
      "velocity": 0.71,
      "hand": "right"
    },
    {
      "midi": 86,
      "time": 96.581,
      "duration": 0.194,
      "velocity": 0.71,
      "hand": "right"
    },
    {
      "midi": 53,
      "time": 96.774,
      "duration": 0.387,
      "velocity": 0.71,
      "hand": "left"
    },
    {
      "midi": 65,
      "time": 96.774,
      "duration": 0.387,
      "velocity": 0.71,
      "hand": "right"
    },
    {
      "midi": 81,
      "time": 96.774,
      "duration": 0.387,
      "velocity": 0.71,
      "hand": "right"
    },
    {
      "midi": 84,
      "time": 96.774,
      "duration": 0.387,
      "velocity": 0.71,
      "hand": "right"
    },
    {
      "midi": 53,
      "time": 97.548,
      "duration": 0.387,
      "velocity": 0.71,
      "hand": "left"
    },
    {
      "midi": 65,
      "time": 97.548,
      "duration": 0.387,
      "velocity": 0.71,
      "hand": "right"
    },
    {
      "midi": 77,
      "time": 97.548,
      "duration": 0.387,
      "velocity": 0.71,
      "hand": "right"
    },
    {
      "midi": 57,
      "time": 97.935,
      "duration": 0.387,
      "velocity": 0.71,
      "hand": "left"
    },
    {
      "midi": 69,
      "time": 97.935,
      "duration": 0.387,
      "velocity": 0.71,
      "hand": "right"
    },
    {
      "midi": 81,
      "time": 97.935,
      "duration": 0.387,
      "velocity": 0.71,
      "hand": "right"
    },
    {
      "midi": 46,
      "time": 98.323,
      "duration": 0.774,
      "velocity": 0.71,
      "hand": "left"
    },
    {
      "midi": 46,
      "time": 98.323,
      "duration": 0.387,
      "velocity": 0.71,
      "hand": "left"
    },
    {
      "midi": 58,
      "time": 98.71,
      "duration": 0.387,
      "velocity": 0.71,
      "hand": "left"
    },
    {
      "midi": 70,
      "time": 98.71,
      "duration": 0.387,
      "velocity": 0.71,
      "hand": "right"
    },
    {
      "midi": 50,
      "time": 99.097,
      "duration": 0.774,
      "velocity": 0.71,
      "hand": "left"
    },
    {
      "midi": 50,
      "time": 99.097,
      "duration": 0.387,
      "velocity": 0.71,
      "hand": "left"
    },
    {
      "midi": 62,
      "time": 99.484,
      "duration": 0.387,
      "velocity": 0.71,
      "hand": "right"
    },
    {
      "midi": 74,
      "time": 99.484,
      "duration": 0.387,
      "velocity": 0.71,
      "hand": "right"
    },
    {
      "midi": 48,
      "time": 99.871,
      "duration": 0.774,
      "velocity": 0.71,
      "hand": "left"
    },
    {
      "midi": 48,
      "time": 99.871,
      "duration": 0.387,
      "velocity": 0.71,
      "hand": "left"
    },
    {
      "midi": 60,
      "time": 100.258,
      "duration": 0.387,
      "velocity": 0.71,
      "hand": "right"
    },
    {
      "midi": 72,
      "time": 100.258,
      "duration": 0.387,
      "velocity": 0.71,
      "hand": "right"
    },
    {
      "midi": 52,
      "time": 100.645,
      "duration": 0.774,
      "velocity": 0.71,
      "hand": "left"
    },
    {
      "midi": 52,
      "time": 100.645,
      "duration": 0.387,
      "velocity": 0.71,
      "hand": "left"
    },
    {
      "midi": 64,
      "time": 101.032,
      "duration": 0.387,
      "velocity": 0.71,
      "hand": "right"
    },
    {
      "midi": 76,
      "time": 101.032,
      "duration": 0.387,
      "velocity": 0.71,
      "hand": "right"
    },
    {
      "midi": 53,
      "time": 101.419,
      "duration": 0.194,
      "velocity": 0.71,
      "hand": "left"
    },
    {
      "midi": 53,
      "time": 101.419,
      "duration": 0.387,
      "velocity": 0.71,
      "hand": "left"
    },
    {
      "midi": 65,
      "time": 101.419,
      "duration": 0.194,
      "velocity": 0.71,
      "hand": "right"
    },
    {
      "midi": 77,
      "time": 101.613,
      "duration": 0.194,
      "velocity": 0.71,
      "hand": "right"
    },
    {
      "midi": 57,
      "time": 101.806,
      "duration": 0.194,
      "velocity": 0.71,
      "hand": "left"
    },
    {
      "midi": 69,
      "time": 101.806,
      "duration": 0.194,
      "velocity": 0.71,
      "hand": "right"
    },
    {
      "midi": 81,
      "time": 102,
      "duration": 0.194,
      "velocity": 0.71,
      "hand": "right"
    },
    {
      "midi": 60,
      "time": 102.194,
      "duration": 0.194,
      "velocity": 0.71,
      "hand": "right"
    },
    {
      "midi": 72,
      "time": 102.194,
      "duration": 0.194,
      "velocity": 0.71,
      "hand": "right"
    },
    {
      "midi": 84,
      "time": 102.387,
      "duration": 0.194,
      "velocity": 0.71,
      "hand": "right"
    },
    {
      "midi": 57,
      "time": 102.581,
      "duration": 0.194,
      "velocity": 0.71,
      "hand": "left"
    },
    {
      "midi": 69,
      "time": 102.581,
      "duration": 0.194,
      "velocity": 0.71,
      "hand": "right"
    },
    {
      "midi": 81,
      "time": 102.774,
      "duration": 0.194,
      "velocity": 0.71,
      "hand": "right"
    },
    {
      "midi": 53,
      "time": 102.968,
      "duration": 0.194,
      "velocity": 0.71,
      "hand": "left"
    },
    {
      "midi": 65,
      "time": 102.968,
      "duration": 0.194,
      "velocity": 0.71,
      "hand": "right"
    },
    {
      "midi": 77,
      "time": 103.161,
      "duration": 0.194,
      "velocity": 0.71,
      "hand": "right"
    },
    {
      "midi": 48,
      "time": 103.355,
      "duration": 0.194,
      "velocity": 0.71,
      "hand": "left"
    },
    {
      "midi": 60,
      "time": 103.355,
      "duration": 0.194,
      "velocity": 0.71,
      "hand": "right"
    },
    {
      "midi": 72,
      "time": 103.548,
      "duration": 0.194,
      "velocity": 0.71,
      "hand": "right"
    },
    {
      "midi": 45,
      "time": 103.742,
      "duration": 0.387,
      "velocity": 0.71,
      "hand": "left"
    },
    {
      "midi": 46,
      "time": 103.742,
      "duration": 0.194,
      "velocity": 0.71,
      "hand": "left"
    },
    {
      "midi": 57,
      "time": 103.742,
      "duration": 0.387,
      "velocity": 0.71,
      "hand": "left"
    },
    {
      "midi": 69,
      "time": 103.742,
      "duration": 0.387,
      "velocity": 0.71,
      "hand": "right"
    },
    {
      "midi": 48,
      "time": 104.129,
      "duration": 0.387,
      "velocity": 0.71,
      "hand": "left"
    },
    {
      "midi": 60,
      "time": 104.129,
      "duration": 0.387,
      "velocity": 0.71,
      "hand": "right"
    },
    {
      "midi": 72,
      "time": 104.129,
      "duration": 0.387,
      "velocity": 0.71,
      "hand": "right"
    },
    {
      "midi": 46,
      "time": 104.516,
      "duration": 0.774,
      "velocity": 0.71,
      "hand": "left"
    },
    {
      "midi": 46,
      "time": 104.516,
      "duration": 0.387,
      "velocity": 0.71,
      "hand": "left"
    },
    {
      "midi": 58,
      "time": 104.903,
      "duration": 0.387,
      "velocity": 0.71,
      "hand": "left"
    },
    {
      "midi": 70,
      "time": 104.903,
      "duration": 0.387,
      "velocity": 0.71,
      "hand": "right"
    },
    {
      "midi": 50,
      "time": 105.29,
      "duration": 0.774,
      "velocity": 0.71,
      "hand": "left"
    },
    {
      "midi": 50,
      "time": 105.29,
      "duration": 0.387,
      "velocity": 0.71,
      "hand": "left"
    },
    {
      "midi": 62,
      "time": 105.677,
      "duration": 0.387,
      "velocity": 0.71,
      "hand": "right"
    },
    {
      "midi": 74,
      "time": 105.677,
      "duration": 0.387,
      "velocity": 0.71,
      "hand": "right"
    },
    {
      "midi": 48,
      "time": 106.065,
      "duration": 1.161,
      "velocity": 0.71,
      "hand": "left"
    },
    {
      "midi": 48,
      "time": 106.065,
      "duration": 0.387,
      "velocity": 0.71,
      "hand": "left"
    },
    {
      "midi": 53,
      "time": 106.065,
      "duration": 0.774,
      "velocity": 0.71,
      "hand": "left"
    },
    {
      "midi": 57,
      "time": 106.065,
      "duration": 0.774,
      "velocity": 0.71,
      "hand": "left"
    },
    {
      "midi": 60,
      "time": 106.452,
      "duration": 0.387,
      "velocity": 0.71,
      "hand": "right"
    },
    {
      "midi": 72,
      "time": 106.452,
      "duration": 0.387,
      "velocity": 0.71,
      "hand": "right"
    },
    {
      "midi": 48,
      "time": 106.839,
      "duration": 0.387,
      "velocity": 0.71,
      "hand": "left"
    },
    {
      "midi": 52,
      "time": 106.839,
      "duration": 0.774,
      "velocity": 0.71,
      "hand": "left"
    },
    {
      "midi": 55,
      "time": 106.839,
      "duration": 0.774,
      "velocity": 0.71,
      "hand": "left"
    },
    {
      "midi": 50,
      "time": 107.226,
      "duration": 0.194,
      "velocity": 0.71,
      "hand": "left"
    },
    {
      "midi": 60,
      "time": 107.226,
      "duration": 0.387,
      "velocity": 0.71,
      "hand": "right"
    },
    {
      "midi": 72,
      "time": 107.226,
      "duration": 0.387,
      "velocity": 0.71,
      "hand": "right"
    },
    {
      "midi": 52,
      "time": 107.419,
      "duration": 0.194,
      "velocity": 0.71,
      "hand": "left"
    },
    {
      "midi": 41,
      "time": 107.613,
      "duration": 0.194,
      "velocity": 0.71,
      "hand": "left"
    },
    {
      "midi": 53,
      "time": 107.613,
      "duration": 0.387,
      "velocity": 0.71,
      "hand": "left"
    },
    {
      "midi": 60,
      "time": 107.613,
      "duration": 0.097,
      "velocity": 0.71,
      "hand": "right"
    },
    {
      "midi": 65,
      "time": 107.613,
      "duration": 0.097,
      "velocity": 0.71,
      "hand": "right"
    },
    {
      "midi": 57,
      "time": 107.71,
      "duration": 0.097,
      "velocity": 0.71,
      "hand": "left"
    },
    {
      "midi": 53,
      "time": 107.806,
      "duration": 0.194,
      "velocity": 0.71,
      "hand": "left"
    },
    {
      "midi": 60,
      "time": 107.806,
      "duration": 0.097,
      "velocity": 0.71,
      "hand": "right"
    },
    {
      "midi": 65,
      "time": 107.806,
      "duration": 0.097,
      "velocity": 0.71,
      "hand": "right"
    },
    {
      "midi": 57,
      "time": 107.903,
      "duration": 0.097,
      "velocity": 0.71,
      "hand": "left"
    },
    {
      "midi": 41,
      "time": 108,
      "duration": 0.194,
      "velocity": 0.71,
      "hand": "left"
    },
    {
      "midi": 60,
      "time": 108,
      "duration": 0.097,
      "velocity": 0.71,
      "hand": "right"
    },
    {
      "midi": 65,
      "time": 108,
      "duration": 0.097,
      "velocity": 0.71,
      "hand": "right"
    },
    {
      "midi": 57,
      "time": 108.097,
      "duration": 0.097,
      "velocity": 0.71,
      "hand": "left"
    },
    {
      "midi": 53,
      "time": 108.194,
      "duration": 0.194,
      "velocity": 0.71,
      "hand": "left"
    },
    {
      "midi": 60,
      "time": 108.194,
      "duration": 0.097,
      "velocity": 0.71,
      "hand": "right"
    },
    {
      "midi": 65,
      "time": 108.194,
      "duration": 0.097,
      "velocity": 0.71,
      "hand": "right"
    },
    {
      "midi": 57,
      "time": 108.29,
      "duration": 0.097,
      "velocity": 0.71,
      "hand": "left"
    },
    {
      "midi": 41,
      "time": 108.387,
      "duration": 0.194,
      "velocity": 0.71,
      "hand": "left"
    },
    {
      "midi": 60,
      "time": 108.387,
      "duration": 0.097,
      "velocity": 0.71,
      "hand": "right"
    },
    {
      "midi": 65,
      "time": 108.387,
      "duration": 0.097,
      "velocity": 0.71,
      "hand": "right"
    },
    {
      "midi": 57,
      "time": 108.484,
      "duration": 0.097,
      "velocity": 0.71,
      "hand": "left"
    },
    {
      "midi": 53,
      "time": 108.581,
      "duration": 0.194,
      "velocity": 0.71,
      "hand": "left"
    },
    {
      "midi": 60,
      "time": 108.581,
      "duration": 0.097,
      "velocity": 0.71,
      "hand": "right"
    },
    {
      "midi": 65,
      "time": 108.581,
      "duration": 0.097,
      "velocity": 0.71,
      "hand": "right"
    },
    {
      "midi": 57,
      "time": 108.677,
      "duration": 0.097,
      "velocity": 0.71,
      "hand": "left"
    },
    {
      "midi": 41,
      "time": 108.774,
      "duration": 0.194,
      "velocity": 0.71,
      "hand": "left"
    },
    {
      "midi": 64,
      "time": 108.774,
      "duration": 0.097,
      "velocity": 0.71,
      "hand": "right"
    },
    {
      "midi": 67,
      "time": 108.774,
      "duration": 0.097,
      "velocity": 0.71,
      "hand": "right"
    },
    {
      "midi": 58,
      "time": 108.871,
      "duration": 0.097,
      "velocity": 0.71,
      "hand": "left"
    },
    {
      "midi": 53,
      "time": 108.968,
      "duration": 0.194,
      "velocity": 0.71,
      "hand": "left"
    },
    {
      "midi": 64,
      "time": 108.968,
      "duration": 0.097,
      "velocity": 0.71,
      "hand": "right"
    },
    {
      "midi": 67,
      "time": 108.968,
      "duration": 0.097,
      "velocity": 0.71,
      "hand": "right"
    },
    {
      "midi": 58,
      "time": 109.065,
      "duration": 0.097,
      "velocity": 0.71,
      "hand": "left"
    },
    {
      "midi": 41,
      "time": 109.161,
      "duration": 0.194,
      "velocity": 0.71,
      "hand": "left"
    },
    {
      "midi": 63,
      "time": 109.161,
      "duration": 0.097,
      "velocity": 0.71,
      "hand": "right"
    },
    {
      "midi": 65,
      "time": 109.161,
      "duration": 0.097,
      "velocity": 0.71,
      "hand": "right"
    },
    {
      "midi": 69,
      "time": 109.161,
      "duration": 0.097,
      "velocity": 0.71,
      "hand": "right"
    },
    {
      "midi": 60,
      "time": 109.258,
      "duration": 0.097,
      "velocity": 0.71,
      "hand": "right"
    },
    {
      "midi": 53,
      "time": 109.355,
      "duration": 0.194,
      "velocity": 0.71,
      "hand": "left"
    },
    {
      "midi": 63,
      "time": 109.355,
      "duration": 0.097,
      "velocity": 0.71,
      "hand": "right"
    },
    {
      "midi": 65,
      "time": 109.355,
      "duration": 0.097,
      "velocity": 0.71,
      "hand": "right"
    },
    {
      "midi": 69,
      "time": 109.355,
      "duration": 0.097,
      "velocity": 0.71,
      "hand": "right"
    },
    {
      "midi": 60,
      "time": 109.452,
      "duration": 0.097,
      "velocity": 0.71,
      "hand": "right"
    },
    {
      "midi": 41,
      "time": 109.548,
      "duration": 0.194,
      "velocity": 0.71,
      "hand": "left"
    },
    {
      "midi": 65,
      "time": 109.548,
      "duration": 0.097,
      "velocity": 0.71,
      "hand": "right"
    },
    {
      "midi": 70,
      "time": 109.548,
      "duration": 0.097,
      "velocity": 0.71,
      "hand": "right"
    },
    {
      "midi": 62,
      "time": 109.645,
      "duration": 0.097,
      "velocity": 0.71,
      "hand": "right"
    },
    {
      "midi": 53,
      "time": 109.742,
      "duration": 0.194,
      "velocity": 0.71,
      "hand": "left"
    },
    {
      "midi": 65,
      "time": 109.742,
      "duration": 0.097,
      "velocity": 0.71,
      "hand": "right"
    },
    {
      "midi": 70,
      "time": 109.742,
      "duration": 0.097,
      "velocity": 0.71,
      "hand": "right"
    },
    {
      "midi": 62,
      "time": 109.839,
      "duration": 0.097,
      "velocity": 0.71,
      "hand": "right"
    },
    {
      "midi": 41,
      "time": 109.935,
      "duration": 0.194,
      "velocity": 0.71,
      "hand": "left"
    },
    {
      "midi": 69,
      "time": 109.935,
      "duration": 0.097,
      "velocity": 0.71,
      "hand": "right"
    },
    {
      "midi": 72,
      "time": 109.935,
      "duration": 0.097,
      "velocity": 0.71,
      "hand": "right"
    },
    {
      "midi": 65,
      "time": 110.032,
      "duration": 0.097,
      "velocity": 0.71,
      "hand": "right"
    },
    {
      "midi": 53,
      "time": 110.129,
      "duration": 0.194,
      "velocity": 0.71,
      "hand": "left"
    },
    {
      "midi": 69,
      "time": 110.129,
      "duration": 0.097,
      "velocity": 0.71,
      "hand": "right"
    },
    {
      "midi": 72,
      "time": 110.129,
      "duration": 0.097,
      "velocity": 0.71,
      "hand": "right"
    },
    {
      "midi": 65,
      "time": 110.226,
      "duration": 0.097,
      "velocity": 0.71,
      "hand": "right"
    },
    {
      "midi": 41,
      "time": 110.323,
      "duration": 0.194,
      "velocity": 0.71,
      "hand": "left"
    },
    {
      "midi": 70,
      "time": 110.323,
      "duration": 0.097,
      "velocity": 0.71,
      "hand": "right"
    },
    {
      "midi": 74,
      "time": 110.323,
      "duration": 0.097,
      "velocity": 0.71,
      "hand": "right"
    },
    {
      "midi": 65,
      "time": 110.419,
      "duration": 0.097,
      "velocity": 0.71,
      "hand": "right"
    },
    {
      "midi": 53,
      "time": 110.516,
      "duration": 0.194,
      "velocity": 0.71,
      "hand": "left"
    },
    {
      "midi": 70,
      "time": 110.516,
      "duration": 0.097,
      "velocity": 0.71,
      "hand": "right"
    },
    {
      "midi": 74,
      "time": 110.516,
      "duration": 0.097,
      "velocity": 0.71,
      "hand": "right"
    },
    {
      "midi": 65,
      "time": 110.613,
      "duration": 0.097,
      "velocity": 0.71,
      "hand": "right"
    },
    {
      "midi": 41,
      "time": 110.71,
      "duration": 0.194,
      "velocity": 0.71,
      "hand": "left"
    },
    {
      "midi": 72,
      "time": 110.71,
      "duration": 0.097,
      "velocity": 0.71,
      "hand": "right"
    },
    {
      "midi": 75,
      "time": 110.71,
      "duration": 0.097,
      "velocity": 0.71,
      "hand": "right"
    },
    {
      "midi": 65,
      "time": 110.806,
      "duration": 0.097,
      "velocity": 0.71,
      "hand": "right"
    },
    {
      "midi": 53,
      "time": 110.903,
      "duration": 0.194,
      "velocity": 0.71,
      "hand": "left"
    },
    {
      "midi": 72,
      "time": 110.903,
      "duration": 0.097,
      "velocity": 0.71,
      "hand": "right"
    },
    {
      "midi": 75,
      "time": 110.903,
      "duration": 0.097,
      "velocity": 0.71,
      "hand": "right"
    },
    {
      "midi": 65,
      "time": 111,
      "duration": 0.097,
      "velocity": 0.71,
      "hand": "right"
    },
    {
      "midi": 41,
      "time": 111.097,
      "duration": 0.194,
      "velocity": 0.71,
      "hand": "left"
    },
    {
      "midi": 74,
      "time": 111.097,
      "duration": 0.097,
      "velocity": 0.71,
      "hand": "right"
    },
    {
      "midi": 77,
      "time": 111.097,
      "duration": 0.097,
      "velocity": 0.71,
      "hand": "right"
    },
    {
      "midi": 65,
      "time": 111.194,
      "duration": 0.097,
      "velocity": 0.71,
      "hand": "right"
    },
    {
      "midi": 53,
      "time": 111.29,
      "duration": 0.194,
      "velocity": 0.71,
      "hand": "left"
    },
    {
      "midi": 74,
      "time": 111.29,
      "duration": 0.097,
      "velocity": 0.71,
      "hand": "right"
    },
    {
      "midi": 77,
      "time": 111.29,
      "duration": 0.097,
      "velocity": 0.71,
      "hand": "right"
    },
    {
      "midi": 65,
      "time": 111.387,
      "duration": 0.097,
      "velocity": 0.71,
      "hand": "right"
    },
    {
      "midi": 41,
      "time": 111.484,
      "duration": 0.194,
      "velocity": 0.71,
      "hand": "left"
    },
    {
      "midi": 75,
      "time": 111.484,
      "duration": 0.097,
      "velocity": 0.71,
      "hand": "right"
    },
    {
      "midi": 79,
      "time": 111.484,
      "duration": 0.097,
      "velocity": 0.71,
      "hand": "right"
    },
    {
      "midi": 65,
      "time": 111.581,
      "duration": 0.097,
      "velocity": 0.71,
      "hand": "right"
    },
    {
      "midi": 53,
      "time": 111.677,
      "duration": 0.194,
      "velocity": 0.71,
      "hand": "left"
    },
    {
      "midi": 75,
      "time": 111.677,
      "duration": 0.097,
      "velocity": 0.71,
      "hand": "right"
    },
    {
      "midi": 79,
      "time": 111.677,
      "duration": 0.097,
      "velocity": 0.71,
      "hand": "right"
    },
    {
      "midi": 65,
      "time": 111.774,
      "duration": 0.097,
      "velocity": 0.71,
      "hand": "right"
    },
    {
      "midi": 41,
      "time": 111.871,
      "duration": 0.194,
      "velocity": 0.71,
      "hand": "left"
    },
    {
      "midi": 75,
      "time": 111.871,
      "duration": 0.097,
      "velocity": 0.71,
      "hand": "right"
    },
    {
      "midi": 77,
      "time": 111.871,
      "duration": 0.097,
      "velocity": 0.71,
      "hand": "right"
    },
    {
      "midi": 81,
      "time": 111.871,
      "duration": 0.097,
      "velocity": 0.71,
      "hand": "right"
    },
    {
      "midi": 72,
      "time": 111.968,
      "duration": 0.097,
      "velocity": 0.71,
      "hand": "right"
    },
    {
      "midi": 53,
      "time": 112.065,
      "duration": 0.194,
      "velocity": 0.71,
      "hand": "left"
    },
    {
      "midi": 75,
      "time": 112.065,
      "duration": 0.097,
      "velocity": 0.71,
      "hand": "right"
    },
    {
      "midi": 77,
      "time": 112.065,
      "duration": 0.097,
      "velocity": 0.71,
      "hand": "right"
    },
    {
      "midi": 81,
      "time": 112.065,
      "duration": 0.097,
      "velocity": 0.71,
      "hand": "right"
    },
    {
      "midi": 72,
      "time": 112.161,
      "duration": 0.097,
      "velocity": 0.71,
      "hand": "right"
    },
    {
      "midi": 46,
      "time": 112.258,
      "duration": 0.097,
      "velocity": 0.71,
      "hand": "left"
    },
    {
      "midi": 50,
      "time": 112.258,
      "duration": 0.097,
      "velocity": 0.71,
      "hand": "left"
    },
    {
      "midi": 53,
      "time": 112.258,
      "duration": 0.097,
      "velocity": 0.71,
      "hand": "left"
    },
    {
      "midi": 82,
      "time": 112.258,
      "duration": 0.194,
      "velocity": 0.71,
      "hand": "right"
    },
    {
      "midi": 58,
      "time": 112.355,
      "duration": 0.097,
      "velocity": 0.71,
      "hand": "left"
    },
    {
      "midi": 46,
      "time": 112.452,
      "duration": 0.097,
      "velocity": 0.71,
      "hand": "left"
    },
    {
      "midi": 50,
      "time": 112.452,
      "duration": 0.097,
      "velocity": 0.71,
      "hand": "left"
    },
    {
      "midi": 53,
      "time": 112.452,
      "duration": 0.097,
      "velocity": 0.71,
      "hand": "left"
    },
    {
      "midi": 77,
      "time": 112.452,
      "duration": 0.194,
      "velocity": 0.71,
      "hand": "right"
    },
    {
      "midi": 58,
      "time": 112.548,
      "duration": 0.097,
      "velocity": 0.71,
      "hand": "left"
    },
    {
      "midi": 46,
      "time": 112.645,
      "duration": 0.097,
      "velocity": 0.71,
      "hand": "left"
    },
    {
      "midi": 50,
      "time": 112.645,
      "duration": 0.097,
      "velocity": 0.71,
      "hand": "left"
    },
    {
      "midi": 53,
      "time": 112.645,
      "duration": 0.097,
      "velocity": 0.71,
      "hand": "left"
    },
    {
      "midi": 74,
      "time": 112.645,
      "duration": 0.194,
      "velocity": 0.71,
      "hand": "right"
    },
    {
      "midi": 58,
      "time": 112.742,
      "duration": 0.097,
      "velocity": 0.71,
      "hand": "left"
    },
    {
      "midi": 46,
      "time": 112.839,
      "duration": 0.097,
      "velocity": 0.71,
      "hand": "left"
    },
    {
      "midi": 50,
      "time": 112.839,
      "duration": 0.097,
      "velocity": 0.71,
      "hand": "left"
    },
    {
      "midi": 53,
      "time": 112.839,
      "duration": 0.097,
      "velocity": 0.71,
      "hand": "left"
    },
    {
      "midi": 77,
      "time": 112.839,
      "duration": 0.194,
      "velocity": 0.71,
      "hand": "right"
    },
    {
      "midi": 58,
      "time": 112.935,
      "duration": 0.097,
      "velocity": 0.71,
      "hand": "left"
    },
    {
      "midi": 46,
      "time": 113.032,
      "duration": 0.387,
      "velocity": 0.71,
      "hand": "left"
    },
    {
      "midi": 50,
      "time": 113.032,
      "duration": 0.387,
      "velocity": 0.71,
      "hand": "left"
    },
    {
      "midi": 53,
      "time": 113.032,
      "duration": 0.387,
      "velocity": 0.71,
      "hand": "left"
    },
    {
      "midi": 58,
      "time": 113.032,
      "duration": 0.387,
      "velocity": 0.71,
      "hand": "left"
    },
    {
      "midi": 82,
      "time": 113.032,
      "duration": 0.387,
      "velocity": 0.71,
      "hand": "right"
    }
  ],
  "arrangements": {
    "easy": [
      {
        "midi": 65,
        "time": 0,
        "duration": 0.194,
        "velocity": 0.71,
        "hand": "right"
      },
      {
        "midi": 60,
        "time": 0.387,
        "duration": 0.194,
        "velocity": 0.71,
        "hand": "right"
      },
      {
        "midi": 65,
        "time": 0.774,
        "duration": 0.194,
        "velocity": 0.71,
        "hand": "right"
      },
      {
        "midi": 60,
        "time": 1.161,
        "duration": 0.194,
        "velocity": 0.71,
        "hand": "right"
      },
      {
        "midi": 65,
        "time": 1.548,
        "duration": 0.387,
        "velocity": 0.71,
        "hand": "right"
      },
      {
        "midi": 60,
        "time": 2.129,
        "duration": 0.129,
        "velocity": 0.71,
        "hand": "right"
      },
      {
        "midi": 64,
        "time": 2.226,
        "duration": 0.129,
        "velocity": 0.71,
        "hand": "right"
      },
      {
        "midi": 65,
        "time": 2.323,
        "duration": 0.387,
        "velocity": 0.71,
        "hand": "right"
      },
      {
        "midi": 67,
        "time": 3.097,
        "duration": 0.194,
        "velocity": 0.71,
        "hand": "right"
      },
      {
        "midi": 60,
        "time": 3.484,
        "duration": 0.194,
        "velocity": 0.71,
        "hand": "right"
      },
      {
        "midi": 67,
        "time": 3.871,
        "duration": 0.194,
        "velocity": 0.71,
        "hand": "right"
      },
      {
        "midi": 60,
        "time": 4.258,
        "duration": 0.194,
        "velocity": 0.71,
        "hand": "right"
      },
      {
        "midi": 67,
        "time": 4.645,
        "duration": 0.387,
        "velocity": 0.71,
        "hand": "right"
      },
      {
        "midi": 67,
        "time": 5.419,
        "duration": 0.387,
        "velocity": 0.71,
        "hand": "right"
      },
      {
        "midi": 69,
        "time": 6.194,
        "duration": 0.194,
        "velocity": 0.71,
        "hand": "right"
      },
      {
        "midi": 65,
        "time": 6.581,
        "duration": 0.194,
        "velocity": 0.71,
        "hand": "right"
      },
      {
        "midi": 69,
        "time": 6.968,
        "duration": 0.194,
        "velocity": 0.71,
        "hand": "right"
      },
      {
        "midi": 65,
        "time": 7.355,
        "duration": 0.194,
        "velocity": 0.71,
        "hand": "right"
      },
      {
        "midi": 69,
        "time": 7.742,
        "duration": 0.387,
        "velocity": 0.71,
        "hand": "right"
      },
      {
        "midi": 65,
        "time": 8.323,
        "duration": 0.129,
        "velocity": 0.71,
        "hand": "right"
      },
      {
        "midi": 67,
        "time": 8.419,
        "duration": 0.129,
        "velocity": 0.71,
        "hand": "right"
      },
      {
        "midi": 69,
        "time": 8.516,
        "duration": 0.387,
        "velocity": 0.71,
        "hand": "right"
      },
      {
        "midi": 70,
        "time": 9.29,
        "duration": 0.194,
        "velocity": 0.71,
        "hand": "right"
      },
      {
        "midi": 67,
        "time": 9.677,
        "duration": 0.194,
        "velocity": 0.71,
        "hand": "right"
      },
      {
        "midi": 70,
        "time": 10.065,
        "duration": 0.194,
        "velocity": 0.71,
        "hand": "right"
      },
      {
        "midi": 67,
        "time": 10.452,
        "duration": 0.194,
        "velocity": 0.71,
        "hand": "right"
      },
      {
        "midi": 70,
        "time": 10.839,
        "duration": 0.387,
        "velocity": 0.71,
        "hand": "right"
      },
      {
        "midi": 67,
        "time": 11.419,
        "duration": 0.129,
        "velocity": 0.71,
        "hand": "right"
      },
      {
        "midi": 69,
        "time": 11.516,
        "duration": 0.129,
        "velocity": 0.71,
        "hand": "right"
      },
      {
        "midi": 70,
        "time": 11.613,
        "duration": 0.387,
        "velocity": 0.71,
        "hand": "right"
      },
      {
        "midi": 79,
        "time": 12.387,
        "duration": 0.387,
        "velocity": 0.71,
        "hand": "right"
      },
      {
        "midi": 82,
        "time": 13.161,
        "duration": 0.194,
        "velocity": 0.71,
        "hand": "right"
      },
      {
        "midi": 81,
        "time": 13.355,
        "duration": 0.129,
        "velocity": 0.71,
        "hand": "right"
      },
      {
        "midi": 79,
        "time": 13.452,
        "duration": 0.129,
        "velocity": 0.71,
        "hand": "right"
      },
      {
        "midi": 77,
        "time": 13.548,
        "duration": 0.129,
        "velocity": 0.71,
        "hand": "right"
      },
      {
        "midi": 76,
        "time": 13.645,
        "duration": 0.129,
        "velocity": 0.71,
        "hand": "right"
      },
      {
        "midi": 74,
        "time": 13.742,
        "duration": 0.129,
        "velocity": 0.71,
        "hand": "right"
      },
      {
        "midi": 72,
        "time": 13.839,
        "duration": 0.129,
        "velocity": 0.71,
        "hand": "right"
      },
      {
        "midi": 70,
        "time": 13.935,
        "duration": 0.194,
        "velocity": 0.71,
        "hand": "right"
      },
      {
        "midi": 69,
        "time": 14.129,
        "duration": 0.129,
        "velocity": 0.71,
        "hand": "right"
      },
      {
        "midi": 67,
        "time": 14.226,
        "duration": 0.129,
        "velocity": 0.71,
        "hand": "right"
      },
      {
        "midi": 65,
        "time": 14.323,
        "duration": 0.129,
        "velocity": 0.71,
        "hand": "right"
      },
      {
        "midi": 64,
        "time": 14.419,
        "duration": 0.129,
        "velocity": 0.71,
        "hand": "right"
      },
      {
        "midi": 62,
        "time": 14.516,
        "duration": 0.129,
        "velocity": 0.71,
        "hand": "right"
      },
      {
        "midi": 60,
        "time": 14.613,
        "duration": 0.129,
        "velocity": 0.71,
        "hand": "right"
      },
      {
        "midi": 58,
        "time": 14.71,
        "duration": 0.774,
        "velocity": 0.71,
        "hand": "right"
      },
      {
        "midi": 65,
        "time": 15.484,
        "duration": 0.194,
        "velocity": 0.71,
        "hand": "right"
      },
      {
        "midi": 60,
        "time": 15.871,
        "duration": 0.194,
        "velocity": 0.71,
        "hand": "right"
      },
      {
        "midi": 65,
        "time": 16.258,
        "duration": 0.194,
        "velocity": 0.71,
        "hand": "right"
      },
      {
        "midi": 60,
        "time": 16.645,
        "duration": 0.194,
        "velocity": 0.71,
        "hand": "right"
      },
      {
        "midi": 65,
        "time": 17.032,
        "duration": 0.387,
        "velocity": 0.71,
        "hand": "right"
      },
      {
        "midi": 48,
        "time": 17.419,
        "duration": 0.387,
        "velocity": 0.71,
        "hand": "right"
      },
      {
        "midi": 60,
        "time": 17.613,
        "duration": 0.129,
        "velocity": 0.71,
        "hand": "right"
      },
      {
        "midi": 64,
        "time": 17.71,
        "duration": 0.129,
        "velocity": 0.71,
        "hand": "right"
      },
      {
        "midi": 65,
        "time": 17.806,
        "duration": 0.387,
        "velocity": 0.71,
        "hand": "right"
      },
      {
        "midi": 67,
        "time": 18.581,
        "duration": 0.194,
        "velocity": 0.71,
        "hand": "right"
      },
      {
        "midi": 60,
        "time": 18.968,
        "duration": 0.194,
        "velocity": 0.71,
        "hand": "right"
      },
      {
        "midi": 67,
        "time": 19.355,
        "duration": 0.194,
        "velocity": 0.71,
        "hand": "right"
      },
      {
        "midi": 60,
        "time": 19.742,
        "duration": 0.194,
        "velocity": 0.71,
        "hand": "right"
      },
      {
        "midi": 67,
        "time": 20.129,
        "duration": 0.387,
        "velocity": 0.71,
        "hand": "right"
      },
      {
        "midi": 48,
        "time": 20.516,
        "duration": 0.387,
        "velocity": 0.71,
        "hand": "right"
      },
      {
        "midi": 67,
        "time": 20.903,
        "duration": 0.387,
        "velocity": 0.71,
        "hand": "right"
      },
      {
        "midi": 69,
        "time": 21.677,
        "duration": 0.194,
        "velocity": 0.71,
        "hand": "right"
      },
      {
        "midi": 65,
        "time": 22.065,
        "duration": 0.194,
        "velocity": 0.71,
        "hand": "right"
      },
      {
        "midi": 69,
        "time": 22.452,
        "duration": 0.194,
        "velocity": 0.71,
        "hand": "right"
      },
      {
        "midi": 65,
        "time": 22.839,
        "duration": 0.194,
        "velocity": 0.71,
        "hand": "right"
      },
      {
        "midi": 69,
        "time": 23.226,
        "duration": 0.387,
        "velocity": 0.71,
        "hand": "right"
      },
      {
        "midi": 53,
        "time": 23.613,
        "duration": 0.387,
        "velocity": 0.71,
        "hand": "right"
      },
      {
        "midi": 65,
        "time": 23.806,
        "duration": 0.129,
        "velocity": 0.71,
        "hand": "right"
      },
      {
        "midi": 67,
        "time": 23.903,
        "duration": 0.129,
        "velocity": 0.71,
        "hand": "right"
      },
      {
        "midi": 69,
        "time": 24,
        "duration": 0.387,
        "velocity": 0.71,
        "hand": "right"
      },
      {
        "midi": 70,
        "time": 24.774,
        "duration": 0.194,
        "velocity": 0.71,
        "hand": "right"
      },
      {
        "midi": 67,
        "time": 25.161,
        "duration": 0.194,
        "velocity": 0.71,
        "hand": "right"
      },
      {
        "midi": 70,
        "time": 25.548,
        "duration": 0.194,
        "velocity": 0.71,
        "hand": "right"
      },
      {
        "midi": 67,
        "time": 25.935,
        "duration": 0.194,
        "velocity": 0.71,
        "hand": "right"
      },
      {
        "midi": 70,
        "time": 26.323,
        "duration": 0.387,
        "velocity": 0.71,
        "hand": "right"
      },
      {
        "midi": 55,
        "time": 26.71,
        "duration": 0.387,
        "velocity": 0.71,
        "hand": "right"
      },
      {
        "midi": 82,
        "time": 27.097,
        "duration": 0.194,
        "velocity": 0.71,
        "hand": "right"
      },
      {
        "midi": 81,
        "time": 27.29,
        "duration": 0.129,
        "velocity": 0.71,
        "hand": "right"
      },
      {
        "midi": 79,
        "time": 27.387,
        "duration": 0.129,
        "velocity": 0.71,
        "hand": "right"
      },
      {
        "midi": 77,
        "time": 27.484,
        "duration": 0.129,
        "velocity": 0.71,
        "hand": "right"
      },
      {
        "midi": 76,
        "time": 27.581,
        "duration": 0.129,
        "velocity": 0.71,
        "hand": "right"
      },
      {
        "midi": 74,
        "time": 27.677,
        "duration": 0.129,
        "velocity": 0.71,
        "hand": "right"
      },
      {
        "midi": 72,
        "time": 27.774,
        "duration": 0.129,
        "velocity": 0.71,
        "hand": "right"
      },
      {
        "midi": 70,
        "time": 27.871,
        "duration": 0.194,
        "velocity": 0.71,
        "hand": "right"
      },
      {
        "midi": 69,
        "time": 28.065,
        "duration": 0.129,
        "velocity": 0.71,
        "hand": "right"
      },
      {
        "midi": 67,
        "time": 28.161,
        "duration": 0.129,
        "velocity": 0.71,
        "hand": "right"
      },
      {
        "midi": 65,
        "time": 28.258,
        "duration": 0.129,
        "velocity": 0.71,
        "hand": "right"
      },
      {
        "midi": 64,
        "time": 28.355,
        "duration": 0.129,
        "velocity": 0.71,
        "hand": "right"
      },
      {
        "midi": 62,
        "time": 28.452,
        "duration": 0.129,
        "velocity": 0.71,
        "hand": "right"
      },
      {
        "midi": 60,
        "time": 28.548,
        "duration": 0.129,
        "velocity": 0.71,
        "hand": "right"
      },
      {
        "midi": 58,
        "time": 28.645,
        "duration": 0.387,
        "velocity": 0.71,
        "hand": "right"
      },
      {
        "midi": 69,
        "time": 30.194,
        "duration": 0.129,
        "velocity": 0.71,
        "hand": "right"
      },
      {
        "midi": 65,
        "time": 30.29,
        "duration": 0.129,
        "velocity": 0.71,
        "hand": "right"
      },
      {
        "midi": 60,
        "time": 30.484,
        "duration": 0.129,
        "velocity": 0.71,
        "hand": "right"
      },
      {
        "midi": 69,
        "time": 30.581,
        "duration": 0.129,
        "velocity": 0.71,
        "hand": "right"
      },
      {
        "midi": 65,
        "time": 30.677,
        "duration": 0.129,
        "velocity": 0.71,
        "hand": "right"
      },
      {
        "midi": 60,
        "time": 30.871,
        "duration": 0.129,
        "velocity": 0.71,
        "hand": "right"
      },
      {
        "midi": 69,
        "time": 30.968,
        "duration": 0.129,
        "velocity": 0.71,
        "hand": "right"
      },
      {
        "midi": 65,
        "time": 31.065,
        "duration": 0.129,
        "velocity": 0.71,
        "hand": "right"
      },
      {
        "midi": 60,
        "time": 31.258,
        "duration": 0.129,
        "velocity": 0.71,
        "hand": "right"
      },
      {
        "midi": 70,
        "time": 31.355,
        "duration": 0.129,
        "velocity": 0.71,
        "hand": "right"
      },
      {
        "midi": 67,
        "time": 31.452,
        "duration": 0.129,
        "velocity": 0.71,
        "hand": "right"
      },
      {
        "midi": 60,
        "time": 31.645,
        "duration": 0.129,
        "velocity": 0.71,
        "hand": "right"
      },
      {
        "midi": 72,
        "time": 31.742,
        "duration": 0.129,
        "velocity": 0.71,
        "hand": "right"
      },
      {
        "midi": 69,
        "time": 31.839,
        "duration": 0.129,
        "velocity": 0.71,
        "hand": "right"
      },
      {
        "midi": 60,
        "time": 32.032,
        "duration": 0.129,
        "velocity": 0.71,
        "hand": "right"
      },
      {
        "midi": 70,
        "time": 32.129,
        "duration": 0.129,
        "velocity": 0.71,
        "hand": "right"
      },
      {
        "midi": 67,
        "time": 32.226,
        "duration": 0.129,
        "velocity": 0.71,
        "hand": "right"
      },
      {
        "midi": 60,
        "time": 32.419,
        "duration": 0.129,
        "velocity": 0.71,
        "hand": "right"
      },
      {
        "midi": 69,
        "time": 32.516,
        "duration": 0.129,
        "velocity": 0.71,
        "hand": "right"
      },
      {
        "midi": 65,
        "time": 32.613,
        "duration": 0.129,
        "velocity": 0.71,
        "hand": "right"
      },
      {
        "midi": 60,
        "time": 32.806,
        "duration": 0.129,
        "velocity": 0.71,
        "hand": "right"
      },
      {
        "midi": 67,
        "time": 32.903,
        "duration": 0.129,
        "velocity": 0.71,
        "hand": "right"
      },
      {
        "midi": 64,
        "time": 33,
        "duration": 0.129,
        "velocity": 0.71,
        "hand": "right"
      },
      {
        "midi": 60,
        "time": 33.194,
        "duration": 0.129,
        "velocity": 0.71,
        "hand": "right"
      },
      {
        "midi": 53,
        "time": 33.29,
        "duration": 0.387,
        "velocity": 0.71,
        "hand": "right"
      },
      {
        "midi": 81,
        "time": 33.387,
        "duration": 0.29,
        "velocity": 0.71,
        "hand": "right"
      },
      {
        "midi": 81,
        "time": 33.677,
        "duration": 0.194,
        "velocity": 0.71,
        "hand": "right"
      },
      {
        "midi": 81,
        "time": 33.871,
        "duration": 0.194,
        "velocity": 0.71,
        "hand": "right"
      },
      {
        "midi": 81,
        "time": 34.065,
        "duration": 0.194,
        "velocity": 0.71,
        "hand": "right"
      },
      {
        "midi": 79,
        "time": 34.258,
        "duration": 0.129,
        "velocity": 0.71,
        "hand": "right"
      },
      {
        "midi": 81,
        "time": 34.355,
        "duration": 0.129,
        "velocity": 0.71,
        "hand": "right"
      },
      {
        "midi": 82,
        "time": 34.452,
        "duration": 0.194,
        "velocity": 0.71,
        "hand": "right"
      },
      {
        "midi": 79,
        "time": 34.645,
        "duration": 0.194,
        "velocity": 0.71,
        "hand": "right"
      },
      {
        "midi": 69,
        "time": 34.839,
        "duration": 0.129,
        "velocity": 0.71,
        "hand": "right"
      },
      {
        "midi": 65,
        "time": 34.935,
        "duration": 0.129,
        "velocity": 0.71,
        "hand": "right"
      },
      {
        "midi": 60,
        "time": 35.129,
        "duration": 0.129,
        "velocity": 0.71,
        "hand": "right"
      },
      {
        "midi": 69,
        "time": 35.226,
        "duration": 0.129,
        "velocity": 0.71,
        "hand": "right"
      },
      {
        "midi": 65,
        "time": 35.323,
        "duration": 0.129,
        "velocity": 0.71,
        "hand": "right"
      },
      {
        "midi": 60,
        "time": 35.516,
        "duration": 0.129,
        "velocity": 0.71,
        "hand": "right"
      },
      {
        "midi": 69,
        "time": 35.613,
        "duration": 0.129,
        "velocity": 0.71,
        "hand": "right"
      },
      {
        "midi": 65,
        "time": 35.71,
        "duration": 0.129,
        "velocity": 0.71,
        "hand": "right"
      },
      {
        "midi": 60,
        "time": 35.903,
        "duration": 0.129,
        "velocity": 0.71,
        "hand": "right"
      },
      {
        "midi": 70,
        "time": 36,
        "duration": 0.129,
        "velocity": 0.71,
        "hand": "right"
      },
      {
        "midi": 67,
        "time": 36.097,
        "duration": 0.129,
        "velocity": 0.71,
        "hand": "right"
      },
      {
        "midi": 60,
        "time": 36.29,
        "duration": 0.129,
        "velocity": 0.71,
        "hand": "right"
      },
      {
        "midi": 72,
        "time": 36.387,
        "duration": 0.129,
        "velocity": 0.71,
        "hand": "right"
      },
      {
        "midi": 69,
        "time": 36.484,
        "duration": 0.129,
        "velocity": 0.71,
        "hand": "right"
      },
      {
        "midi": 60,
        "time": 36.677,
        "duration": 0.129,
        "velocity": 0.71,
        "hand": "right"
      },
      {
        "midi": 70,
        "time": 36.774,
        "duration": 0.129,
        "velocity": 0.71,
        "hand": "right"
      },
      {
        "midi": 67,
        "time": 36.871,
        "duration": 0.129,
        "velocity": 0.71,
        "hand": "right"
      },
      {
        "midi": 60,
        "time": 37.065,
        "duration": 0.129,
        "velocity": 0.71,
        "hand": "right"
      },
      {
        "midi": 69,
        "time": 37.161,
        "duration": 0.129,
        "velocity": 0.71,
        "hand": "right"
      },
      {
        "midi": 65,
        "time": 37.258,
        "duration": 0.129,
        "velocity": 0.71,
        "hand": "right"
      },
      {
        "midi": 60,
        "time": 37.452,
        "duration": 0.129,
        "velocity": 0.71,
        "hand": "right"
      },
      {
        "midi": 67,
        "time": 37.548,
        "duration": 0.129,
        "velocity": 0.71,
        "hand": "right"
      },
      {
        "midi": 64,
        "time": 37.645,
        "duration": 0.129,
        "velocity": 0.71,
        "hand": "right"
      },
      {
        "midi": 60,
        "time": 37.839,
        "duration": 0.129,
        "velocity": 0.71,
        "hand": "right"
      },
      {
        "midi": 65,
        "time": 37.935,
        "duration": 0.387,
        "velocity": 0.71,
        "hand": "right"
      },
      {
        "midi": 65,
        "time": 38.71,
        "duration": 0.387,
        "velocity": 0.71,
        "hand": "right"
      },
      {
        "midi": 69,
        "time": 39.097,
        "duration": 0.387,
        "velocity": 0.71,
        "hand": "right"
      },
      {
        "midi": 46,
        "time": 39.484,
        "duration": 0.774,
        "velocity": 0.71,
        "hand": "right"
      },
      {
        "midi": 58,
        "time": 39.871,
        "duration": 0.387,
        "velocity": 0.71,
        "hand": "right"
      },
      {
        "midi": 50,
        "time": 40.258,
        "duration": 0.774,
        "velocity": 0.71,
        "hand": "right"
      },
      {
        "midi": 62,
        "time": 40.645,
        "duration": 0.387,
        "velocity": 0.71,
        "hand": "right"
      },
      {
        "midi": 48,
        "time": 41.032,
        "duration": 0.774,
        "velocity": 0.71,
        "hand": "right"
      },
      {
        "midi": 60,
        "time": 41.419,
        "duration": 0.387,
        "velocity": 0.71,
        "hand": "right"
      },
      {
        "midi": 52,
        "time": 41.806,
        "duration": 0.774,
        "velocity": 0.71,
        "hand": "right"
      },
      {
        "midi": 64,
        "time": 42.194,
        "duration": 0.387,
        "velocity": 0.71,
        "hand": "right"
      },
      {
        "midi": 65,
        "time": 42.581,
        "duration": 0.194,
        "velocity": 0.71,
        "hand": "right"
      },
      {
        "midi": 69,
        "time": 42.968,
        "duration": 0.194,
        "velocity": 0.71,
        "hand": "right"
      },
      {
        "midi": 72,
        "time": 43.355,
        "duration": 0.194,
        "velocity": 0.71,
        "hand": "right"
      },
      {
        "midi": 69,
        "time": 43.742,
        "duration": 0.194,
        "velocity": 0.71,
        "hand": "right"
      },
      {
        "midi": 65,
        "time": 44.129,
        "duration": 0.194,
        "velocity": 0.71,
        "hand": "right"
      },
      {
        "midi": 60,
        "time": 44.516,
        "duration": 0.194,
        "velocity": 0.71,
        "hand": "right"
      },
      {
        "midi": 57,
        "time": 44.903,
        "duration": 0.387,
        "velocity": 0.71,
        "hand": "right"
      },
      {
        "midi": 60,
        "time": 45.29,
        "duration": 0.387,
        "velocity": 0.71,
        "hand": "right"
      },
      {
        "midi": 46,
        "time": 45.677,
        "duration": 0.774,
        "velocity": 0.71,
        "hand": "right"
      },
      {
        "midi": 58,
        "time": 46.065,
        "duration": 0.387,
        "velocity": 0.71,
        "hand": "right"
      },
      {
        "midi": 50,
        "time": 46.452,
        "duration": 0.774,
        "velocity": 0.71,
        "hand": "right"
      },
      {
        "midi": 62,
        "time": 46.839,
        "duration": 0.387,
        "velocity": 0.71,
        "hand": "right"
      },
      {
        "midi": 57,
        "time": 47.226,
        "duration": 0.774,
        "velocity": 0.71,
        "hand": "right"
      },
      {
        "midi": 60,
        "time": 47.613,
        "duration": 0.387,
        "velocity": 0.71,
        "hand": "right"
      },
      {
        "midi": 55,
        "time": 48,
        "duration": 0.774,
        "velocity": 0.71,
        "hand": "right"
      },
      {
        "midi": 60,
        "time": 48.387,
        "duration": 0.387,
        "velocity": 0.71,
        "hand": "right"
      },
      {
        "midi": 52,
        "time": 48.581,
        "duration": 0.194,
        "velocity": 0.71,
        "hand": "right"
      },
      {
        "midi": 65,
        "time": 48.774,
        "duration": 0.387,
        "velocity": 0.71,
        "hand": "right"
      },
      {
        "midi": 70,
        "time": 49.548,
        "duration": 0.581,
        "velocity": 0.71,
        "hand": "right"
      },
      {
        "midi": 72,
        "time": 50.129,
        "duration": 0.129,
        "velocity": 0.71,
        "hand": "right"
      },
      {
        "midi": 70,
        "time": 50.226,
        "duration": 0.129,
        "velocity": 0.71,
        "hand": "right"
      },
      {
        "midi": 69,
        "time": 50.323,
        "duration": 0.194,
        "velocity": 0.71,
        "hand": "right"
      },
      {
        "midi": 65,
        "time": 50.71,
        "duration": 0.194,
        "velocity": 0.71,
        "hand": "right"
      },
      {
        "midi": 74,
        "time": 51.097,
        "duration": 0.581,
        "velocity": 0.71,
        "hand": "right"
      },
      {
        "midi": 76,
        "time": 51.677,
        "duration": 0.129,
        "velocity": 0.71,
        "hand": "right"
      },
      {
        "midi": 77,
        "time": 51.774,
        "duration": 0.129,
        "velocity": 0.71,
        "hand": "right"
      },
      {
        "midi": 72,
        "time": 51.871,
        "duration": 0.387,
        "velocity": 0.71,
        "hand": "right"
      },
      {
        "midi": 57,
        "time": 52.645,
        "duration": 0.387,
        "velocity": 0.71,
        "hand": "right"
      },
      {
        "midi": 60,
        "time": 53.032,
        "duration": 0.387,
        "velocity": 0.71,
        "hand": "right"
      },
      {
        "midi": 64,
        "time": 53.419,
        "duration": 1.548,
        "velocity": 0.71,
        "hand": "right"
      },
      {
        "midi": 58,
        "time": 53.613,
        "duration": 0.194,
        "velocity": 0.71,
        "hand": "right"
      },
      {
        "midi": 57,
        "time": 53.806,
        "duration": 0.194,
        "velocity": 0.71,
        "hand": "right"
      },
      {
        "midi": 55,
        "time": 54,
        "duration": 0.194,
        "velocity": 0.71,
        "hand": "right"
      },
      {
        "midi": 55,
        "time": 54.194,
        "duration": 0.387,
        "velocity": 0.71,
        "hand": "right"
      },
      {
        "midi": 55,
        "time": 54.581,
        "duration": 0.387,
        "velocity": 0.71,
        "hand": "right"
      },
      {
        "midi": 65,
        "time": 54.968,
        "duration": 0.387,
        "velocity": 0.71,
        "hand": "right"
      },
      {
        "midi": 53,
        "time": 55.355,
        "duration": 0.387,
        "velocity": 0.71,
        "hand": "right"
      },
      {
        "midi": 70,
        "time": 55.742,
        "duration": 0.581,
        "velocity": 0.71,
        "hand": "right"
      },
      {
        "midi": 72,
        "time": 56.323,
        "duration": 0.129,
        "velocity": 0.71,
        "hand": "right"
      },
      {
        "midi": 70,
        "time": 56.419,
        "duration": 0.129,
        "velocity": 0.71,
        "hand": "right"
      },
      {
        "midi": 69,
        "time": 56.516,
        "duration": 0.194,
        "velocity": 0.71,
        "hand": "right"
      },
      {
        "midi": 65,
        "time": 56.903,
        "duration": 0.194,
        "velocity": 0.71,
        "hand": "right"
      },
      {
        "midi": 74,
        "time": 57.29,
        "duration": 0.581,
        "velocity": 0.71,
        "hand": "right"
      },
      {
        "midi": 76,
        "time": 57.871,
        "duration": 0.129,
        "velocity": 0.71,
        "hand": "right"
      },
      {
        "midi": 77,
        "time": 57.968,
        "duration": 0.129,
        "velocity": 0.71,
        "hand": "right"
      },
      {
        "midi": 72,
        "time": 58.065,
        "duration": 0.387,
        "velocity": 0.71,
        "hand": "right"
      },
      {
        "midi": 57,
        "time": 58.839,
        "duration": 0.387,
        "velocity": 0.71,
        "hand": "right"
      },
      {
        "midi": 60,
        "time": 59.226,
        "duration": 0.387,
        "velocity": 0.71,
        "hand": "right"
      },
      {
        "midi": 64,
        "time": 59.613,
        "duration": 1.548,
        "velocity": 0.71,
        "hand": "right"
      },
      {
        "midi": 58,
        "time": 59.806,
        "duration": 0.194,
        "velocity": 0.71,
        "hand": "right"
      },
      {
        "midi": 57,
        "time": 60,
        "duration": 0.194,
        "velocity": 0.71,
        "hand": "right"
      },
      {
        "midi": 55,
        "time": 60.194,
        "duration": 0.194,
        "velocity": 0.71,
        "hand": "right"
      },
      {
        "midi": 55,
        "time": 60.387,
        "duration": 0.581,
        "velocity": 0.71,
        "hand": "right"
      },
      {
        "midi": 57,
        "time": 60.968,
        "duration": 0.194,
        "velocity": 0.71,
        "hand": "right"
      },
      {
        "midi": 53,
        "time": 61.161,
        "duration": 0.387,
        "velocity": 0.71,
        "hand": "right"
      },
      {
        "midi": 65,
        "time": 61.548,
        "duration": 0.387,
        "velocity": 0.71,
        "hand": "right"
      },
      {
        "midi": 53,
        "time": 61.935,
        "duration": 0.387,
        "velocity": 0.71,
        "hand": "right"
      },
      {
        "midi": 65,
        "time": 62.323,
        "duration": 0.387,
        "velocity": 0.71,
        "hand": "right"
      },
      {
        "midi": 52,
        "time": 62.71,
        "duration": 0.581,
        "velocity": 0.71,
        "hand": "right"
      },
      {
        "midi": 64,
        "time": 63.097,
        "duration": 0.387,
        "velocity": 0.71,
        "hand": "right"
      },
      {
        "midi": 52,
        "time": 63.29,
        "duration": 0.194,
        "velocity": 0.71,
        "hand": "right"
      },
      {
        "midi": 50,
        "time": 63.484,
        "duration": 0.581,
        "velocity": 0.71,
        "hand": "right"
      },
      {
        "midi": 62,
        "time": 63.871,
        "duration": 0.387,
        "velocity": 0.71,
        "hand": "right"
      },
      {
        "midi": 50,
        "time": 64.065,
        "duration": 0.194,
        "velocity": 0.71,
        "hand": "right"
      },
      {
        "midi": 48,
        "time": 64.258,
        "duration": 0.387,
        "velocity": 0.71,
        "hand": "right"
      },
      {
        "midi": 60,
        "time": 64.645,
        "duration": 0.387,
        "velocity": 0.71,
        "hand": "right"
      },
      {
        "midi": 48,
        "time": 64.839,
        "duration": 0.194,
        "velocity": 0.71,
        "hand": "right"
      },
      {
        "midi": 50,
        "time": 65.032,
        "duration": 0.581,
        "velocity": 0.71,
        "hand": "right"
      },
      {
        "midi": 62,
        "time": 65.419,
        "duration": 0.387,
        "velocity": 0.71,
        "hand": "right"
      },
      {
        "midi": 52,
        "time": 65.613,
        "duration": 0.194,
        "velocity": 0.71,
        "hand": "right"
      },
      {
        "midi": 48,
        "time": 65.806,
        "duration": 0.387,
        "velocity": 0.71,
        "hand": "right"
      },
      {
        "midi": 60,
        "time": 66.194,
        "duration": 0.387,
        "velocity": 0.71,
        "hand": "right"
      },
      {
        "midi": 48,
        "time": 66.387,
        "duration": 0.194,
        "velocity": 0.71,
        "hand": "right"
      },
      {
        "midi": 62,
        "time": 66.581,
        "duration": 0.387,
        "velocity": 0.71,
        "hand": "right"
      },
      {
        "midi": 52,
        "time": 67.161,
        "duration": 0.194,
        "velocity": 0.71,
        "hand": "right"
      },
      {
        "midi": 60,
        "time": 67.355,
        "duration": 0.387,
        "velocity": 0.71,
        "hand": "right"
      },
      {
        "midi": 48,
        "time": 67.742,
        "duration": 0.387,
        "velocity": 0.71,
        "hand": "right"
      },
      {
        "midi": 69,
        "time": 68.903,
        "duration": 0.129,
        "velocity": 0.71,
        "hand": "right"
      },
      {
        "midi": 65,
        "time": 69,
        "duration": 0.129,
        "velocity": 0.71,
        "hand": "right"
      },
      {
        "midi": 60,
        "time": 69.194,
        "duration": 0.129,
        "velocity": 0.71,
        "hand": "right"
      },
      {
        "midi": 69,
        "time": 69.29,
        "duration": 0.129,
        "velocity": 0.71,
        "hand": "right"
      },
      {
        "midi": 65,
        "time": 69.387,
        "duration": 0.129,
        "velocity": 0.71,
        "hand": "right"
      },
      {
        "midi": 60,
        "time": 69.581,
        "duration": 0.129,
        "velocity": 0.71,
        "hand": "right"
      },
      {
        "midi": 69,
        "time": 69.677,
        "duration": 0.129,
        "velocity": 0.71,
        "hand": "right"
      },
      {
        "midi": 65,
        "time": 69.774,
        "duration": 0.129,
        "velocity": 0.71,
        "hand": "right"
      },
      {
        "midi": 60,
        "time": 69.968,
        "duration": 0.129,
        "velocity": 0.71,
        "hand": "right"
      },
      {
        "midi": 70,
        "time": 70.065,
        "duration": 0.129,
        "velocity": 0.71,
        "hand": "right"
      },
      {
        "midi": 67,
        "time": 70.161,
        "duration": 0.129,
        "velocity": 0.71,
        "hand": "right"
      },
      {
        "midi": 60,
        "time": 70.355,
        "duration": 0.129,
        "velocity": 0.71,
        "hand": "right"
      },
      {
        "midi": 72,
        "time": 70.452,
        "duration": 0.129,
        "velocity": 0.71,
        "hand": "right"
      },
      {
        "midi": 69,
        "time": 70.548,
        "duration": 0.129,
        "velocity": 0.71,
        "hand": "right"
      },
      {
        "midi": 60,
        "time": 70.742,
        "duration": 0.129,
        "velocity": 0.71,
        "hand": "right"
      },
      {
        "midi": 70,
        "time": 70.839,
        "duration": 0.129,
        "velocity": 0.71,
        "hand": "right"
      },
      {
        "midi": 67,
        "time": 70.935,
        "duration": 0.129,
        "velocity": 0.71,
        "hand": "right"
      },
      {
        "midi": 60,
        "time": 71.129,
        "duration": 0.129,
        "velocity": 0.71,
        "hand": "right"
      },
      {
        "midi": 69,
        "time": 71.226,
        "duration": 0.129,
        "velocity": 0.71,
        "hand": "right"
      },
      {
        "midi": 65,
        "time": 71.323,
        "duration": 0.129,
        "velocity": 0.71,
        "hand": "right"
      },
      {
        "midi": 60,
        "time": 71.516,
        "duration": 0.129,
        "velocity": 0.71,
        "hand": "right"
      },
      {
        "midi": 67,
        "time": 71.613,
        "duration": 0.129,
        "velocity": 0.71,
        "hand": "right"
      },
      {
        "midi": 64,
        "time": 71.71,
        "duration": 0.129,
        "velocity": 0.71,
        "hand": "right"
      },
      {
        "midi": 60,
        "time": 71.903,
        "duration": 0.129,
        "velocity": 0.71,
        "hand": "right"
      },
      {
        "midi": 53,
        "time": 72,
        "duration": 0.387,
        "velocity": 0.71,
        "hand": "right"
      },
      {
        "midi": 81,
        "time": 72.097,
        "duration": 0.29,
        "velocity": 0.71,
        "hand": "right"
      },
      {
        "midi": 81,
        "time": 72.387,
        "duration": 0.194,
        "velocity": 0.71,
        "hand": "right"
      },
      {
        "midi": 81,
        "time": 72.581,
        "duration": 0.194,
        "velocity": 0.71,
        "hand": "right"
      },
      {
        "midi": 81,
        "time": 72.774,
        "duration": 0.194,
        "velocity": 0.71,
        "hand": "right"
      },
      {
        "midi": 79,
        "time": 72.968,
        "duration": 0.129,
        "velocity": 0.71,
        "hand": "right"
      },
      {
        "midi": 81,
        "time": 73.065,
        "duration": 0.129,
        "velocity": 0.71,
        "hand": "right"
      },
      {
        "midi": 82,
        "time": 73.161,
        "duration": 0.194,
        "velocity": 0.71,
        "hand": "right"
      },
      {
        "midi": 79,
        "time": 73.355,
        "duration": 0.194,
        "velocity": 0.71,
        "hand": "right"
      },
      {
        "midi": 69,
        "time": 73.548,
        "duration": 0.129,
        "velocity": 0.71,
        "hand": "right"
      },
      {
        "midi": 65,
        "time": 73.645,
        "duration": 0.129,
        "velocity": 0.71,
        "hand": "right"
      },
      {
        "midi": 60,
        "time": 73.839,
        "duration": 0.129,
        "velocity": 0.71,
        "hand": "right"
      },
      {
        "midi": 69,
        "time": 73.935,
        "duration": 0.129,
        "velocity": 0.71,
        "hand": "right"
      },
      {
        "midi": 65,
        "time": 74.032,
        "duration": 0.129,
        "velocity": 0.71,
        "hand": "right"
      },
      {
        "midi": 60,
        "time": 74.226,
        "duration": 0.129,
        "velocity": 0.71,
        "hand": "right"
      },
      {
        "midi": 69,
        "time": 74.323,
        "duration": 0.129,
        "velocity": 0.71,
        "hand": "right"
      },
      {
        "midi": 65,
        "time": 74.419,
        "duration": 0.129,
        "velocity": 0.71,
        "hand": "right"
      },
      {
        "midi": 60,
        "time": 74.613,
        "duration": 0.129,
        "velocity": 0.71,
        "hand": "right"
      },
      {
        "midi": 70,
        "time": 74.71,
        "duration": 0.129,
        "velocity": 0.71,
        "hand": "right"
      },
      {
        "midi": 67,
        "time": 74.806,
        "duration": 0.129,
        "velocity": 0.71,
        "hand": "right"
      },
      {
        "midi": 60,
        "time": 75,
        "duration": 0.129,
        "velocity": 0.71,
        "hand": "right"
      },
      {
        "midi": 72,
        "time": 75.097,
        "duration": 0.129,
        "velocity": 0.71,
        "hand": "right"
      },
      {
        "midi": 69,
        "time": 75.194,
        "duration": 0.129,
        "velocity": 0.71,
        "hand": "right"
      },
      {
        "midi": 60,
        "time": 75.387,
        "duration": 0.129,
        "velocity": 0.71,
        "hand": "right"
      },
      {
        "midi": 70,
        "time": 75.484,
        "duration": 0.129,
        "velocity": 0.71,
        "hand": "right"
      },
      {
        "midi": 67,
        "time": 75.581,
        "duration": 0.129,
        "velocity": 0.71,
        "hand": "right"
      },
      {
        "midi": 60,
        "time": 75.774,
        "duration": 0.129,
        "velocity": 0.71,
        "hand": "right"
      },
      {
        "midi": 69,
        "time": 75.871,
        "duration": 0.129,
        "velocity": 0.71,
        "hand": "right"
      },
      {
        "midi": 65,
        "time": 75.968,
        "duration": 0.129,
        "velocity": 0.71,
        "hand": "right"
      },
      {
        "midi": 60,
        "time": 76.161,
        "duration": 0.129,
        "velocity": 0.71,
        "hand": "right"
      },
      {
        "midi": 67,
        "time": 76.258,
        "duration": 0.129,
        "velocity": 0.71,
        "hand": "right"
      },
      {
        "midi": 64,
        "time": 76.355,
        "duration": 0.129,
        "velocity": 0.71,
        "hand": "right"
      },
      {
        "midi": 60,
        "time": 76.548,
        "duration": 0.129,
        "velocity": 0.71,
        "hand": "right"
      },
      {
        "midi": 65,
        "time": 76.645,
        "duration": 0.387,
        "velocity": 0.71,
        "hand": "right"
      },
      {
        "midi": 65,
        "time": 77.419,
        "duration": 0.387,
        "velocity": 0.71,
        "hand": "right"
      },
      {
        "midi": 69,
        "time": 77.806,
        "duration": 0.387,
        "velocity": 0.71,
        "hand": "right"
      },
      {
        "midi": 46,
        "time": 78.194,
        "duration": 0.774,
        "velocity": 0.71,
        "hand": "right"
      },
      {
        "midi": 58,
        "time": 78.581,
        "duration": 0.387,
        "velocity": 0.71,
        "hand": "right"
      },
      {
        "midi": 50,
        "time": 78.968,
        "duration": 0.774,
        "velocity": 0.71,
        "hand": "right"
      },
      {
        "midi": 62,
        "time": 79.355,
        "duration": 0.387,
        "velocity": 0.71,
        "hand": "right"
      },
      {
        "midi": 48,
        "time": 79.742,
        "duration": 0.774,
        "velocity": 0.71,
        "hand": "right"
      },
      {
        "midi": 60,
        "time": 80.129,
        "duration": 0.387,
        "velocity": 0.71,
        "hand": "right"
      },
      {
        "midi": 52,
        "time": 80.516,
        "duration": 0.774,
        "velocity": 0.71,
        "hand": "right"
      },
      {
        "midi": 64,
        "time": 80.903,
        "duration": 0.387,
        "velocity": 0.71,
        "hand": "right"
      },
      {
        "midi": 65,
        "time": 81.29,
        "duration": 0.194,
        "velocity": 0.71,
        "hand": "right"
      },
      {
        "midi": 81,
        "time": 81.677,
        "duration": 0.194,
        "velocity": 0.71,
        "hand": "right"
      },
      {
        "midi": 84,
        "time": 82.065,
        "duration": 0.194,
        "velocity": 0.71,
        "hand": "right"
      },
      {
        "midi": 81,
        "time": 82.452,
        "duration": 0.194,
        "velocity": 0.71,
        "hand": "right"
      },
      {
        "midi": 77,
        "time": 82.839,
        "duration": 0.194,
        "velocity": 0.71,
        "hand": "right"
      },
      {
        "midi": 72,
        "time": 83.226,
        "duration": 0.194,
        "velocity": 0.71,
        "hand": "right"
      },
      {
        "midi": 69,
        "time": 83.613,
        "duration": 0.387,
        "velocity": 0.71,
        "hand": "right"
      },
      {
        "midi": 72,
        "time": 84,
        "duration": 0.387,
        "velocity": 0.71,
        "hand": "right"
      },
      {
        "midi": 46,
        "time": 84.387,
        "duration": 0.774,
        "velocity": 0.71,
        "hand": "right"
      },
      {
        "midi": 70,
        "time": 84.774,
        "duration": 0.387,
        "velocity": 0.71,
        "hand": "right"
      },
      {
        "midi": 50,
        "time": 85.161,
        "duration": 0.774,
        "velocity": 0.71,
        "hand": "right"
      },
      {
        "midi": 74,
        "time": 85.548,
        "duration": 0.387,
        "velocity": 0.71,
        "hand": "right"
      },
      {
        "midi": 57,
        "time": 85.935,
        "duration": 0.774,
        "velocity": 0.71,
        "hand": "right"
      },
      {
        "midi": 72,
        "time": 86.323,
        "duration": 0.387,
        "velocity": 0.71,
        "hand": "right"
      },
      {
        "midi": 55,
        "time": 86.71,
        "duration": 0.774,
        "velocity": 0.71,
        "hand": "right"
      },
      {
        "midi": 72,
        "time": 87.097,
        "duration": 0.387,
        "velocity": 0.71,
        "hand": "right"
      },
      {
        "midi": 52,
        "time": 87.29,
        "duration": 0.194,
        "velocity": 0.71,
        "hand": "right"
      },
      {
        "midi": 57,
        "time": 87.484,
        "duration": 0.387,
        "velocity": 0.71,
        "hand": "right"
      },
      {
        "midi": 65,
        "time": 87.871,
        "duration": 0.194,
        "velocity": 0.71,
        "hand": "right"
      },
      {
        "midi": 65,
        "time": 88.065,
        "duration": 0.194,
        "velocity": 0.71,
        "hand": "right"
      },
      {
        "midi": 65,
        "time": 88.258,
        "duration": 0.387,
        "velocity": 0.71,
        "hand": "right"
      },
      {
        "midi": 82,
        "time": 88.645,
        "duration": 0.194,
        "velocity": 0.71,
        "hand": "right"
      },
      {
        "midi": 82,
        "time": 88.839,
        "duration": 0.194,
        "velocity": 0.71,
        "hand": "right"
      },
      {
        "midi": 81,
        "time": 89.032,
        "duration": 0.387,
        "velocity": 0.71,
        "hand": "right"
      },
      {
        "midi": 65,
        "time": 89.419,
        "duration": 0.194,
        "velocity": 0.71,
        "hand": "right"
      },
      {
        "midi": 65,
        "time": 89.613,
        "duration": 0.194,
        "velocity": 0.71,
        "hand": "right"
      },
      {
        "midi": 65,
        "time": 89.806,
        "duration": 0.387,
        "velocity": 0.71,
        "hand": "right"
      },
      {
        "midi": 53,
        "time": 90,
        "duration": 0.194,
        "velocity": 0.71,
        "hand": "right"
      },
      {
        "midi": 82,
        "time": 90.194,
        "duration": 0.194,
        "velocity": 0.71,
        "hand": "right"
      },
      {
        "midi": 82,
        "time": 90.387,
        "duration": 0.194,
        "velocity": 0.71,
        "hand": "right"
      },
      {
        "midi": 81,
        "time": 90.581,
        "duration": 0.387,
        "velocity": 0.71,
        "hand": "right"
      },
      {
        "midi": 65,
        "time": 90.968,
        "duration": 0.194,
        "velocity": 0.71,
        "hand": "right"
      },
      {
        "midi": 65,
        "time": 91.161,
        "duration": 0.194,
        "velocity": 0.71,
        "hand": "right"
      },
      {
        "midi": 65,
        "time": 91.355,
        "duration": 0.387,
        "velocity": 0.71,
        "hand": "right"
      },
      {
        "midi": 82,
        "time": 91.742,
        "duration": 0.194,
        "velocity": 0.71,
        "hand": "right"
      },
      {
        "midi": 82,
        "time": 91.935,
        "duration": 0.194,
        "velocity": 0.71,
        "hand": "right"
      },
      {
        "midi": 81,
        "time": 92.129,
        "duration": 0.387,
        "velocity": 0.71,
        "hand": "right"
      },
      {
        "midi": 65,
        "time": 92.516,
        "duration": 0.194,
        "velocity": 0.71,
        "hand": "right"
      },
      {
        "midi": 65,
        "time": 92.71,
        "duration": 0.194,
        "velocity": 0.71,
        "hand": "right"
      },
      {
        "midi": 65,
        "time": 92.903,
        "duration": 0.387,
        "velocity": 0.71,
        "hand": "right"
      },
      {
        "midi": 53,
        "time": 93.097,
        "duration": 0.194,
        "velocity": 0.71,
        "hand": "right"
      },
      {
        "midi": 82,
        "time": 93.29,
        "duration": 0.194,
        "velocity": 0.71,
        "hand": "right"
      },
      {
        "midi": 82,
        "time": 93.484,
        "duration": 0.194,
        "velocity": 0.71,
        "hand": "right"
      },
      {
        "midi": 81,
        "time": 93.677,
        "duration": 0.194,
        "velocity": 0.71,
        "hand": "right"
      },
      {
        "midi": 72,
        "time": 93.871,
        "duration": 0.194,
        "velocity": 0.71,
        "hand": "right"
      },
      {
        "midi": 74,
        "time": 94.065,
        "duration": 0.194,
        "velocity": 0.71,
        "hand": "right"
      },
      {
        "midi": 74,
        "time": 94.258,
        "duration": 0.194,
        "velocity": 0.71,
        "hand": "right"
      },
      {
        "midi": 72,
        "time": 94.452,
        "duration": 0.194,
        "velocity": 0.71,
        "hand": "right"
      },
      {
        "midi": 72,
        "time": 94.645,
        "duration": 0.194,
        "velocity": 0.71,
        "hand": "right"
      },
      {
        "midi": 74,
        "time": 94.839,
        "duration": 0.194,
        "velocity": 0.71,
        "hand": "right"
      },
      {
        "midi": 74,
        "time": 95.032,
        "duration": 0.194,
        "velocity": 0.71,
        "hand": "right"
      },
      {
        "midi": 72,
        "time": 95.226,
        "duration": 0.194,
        "velocity": 0.71,
        "hand": "right"
      },
      {
        "midi": 84,
        "time": 95.419,
        "duration": 0.194,
        "velocity": 0.71,
        "hand": "right"
      },
      {
        "midi": 86,
        "time": 95.613,
        "duration": 0.194,
        "velocity": 0.71,
        "hand": "right"
      },
      {
        "midi": 86,
        "time": 95.806,
        "duration": 0.194,
        "velocity": 0.71,
        "hand": "right"
      },
      {
        "midi": 84,
        "time": 96,
        "duration": 0.194,
        "velocity": 0.71,
        "hand": "right"
      },
      {
        "midi": 84,
        "time": 96.194,
        "duration": 0.194,
        "velocity": 0.71,
        "hand": "right"
      },
      {
        "midi": 86,
        "time": 96.387,
        "duration": 0.194,
        "velocity": 0.71,
        "hand": "right"
      },
      {
        "midi": 86,
        "time": 96.581,
        "duration": 0.194,
        "velocity": 0.71,
        "hand": "right"
      },
      {
        "midi": 84,
        "time": 96.774,
        "duration": 0.387,
        "velocity": 0.71,
        "hand": "right"
      },
      {
        "midi": 77,
        "time": 97.548,
        "duration": 0.387,
        "velocity": 0.71,
        "hand": "right"
      },
      {
        "midi": 81,
        "time": 97.935,
        "duration": 0.387,
        "velocity": 0.71,
        "hand": "right"
      },
      {
        "midi": 46,
        "time": 98.323,
        "duration": 0.774,
        "velocity": 0.71,
        "hand": "right"
      },
      {
        "midi": 70,
        "time": 98.71,
        "duration": 0.387,
        "velocity": 0.71,
        "hand": "right"
      },
      {
        "midi": 50,
        "time": 99.097,
        "duration": 0.774,
        "velocity": 0.71,
        "hand": "right"
      },
      {
        "midi": 74,
        "time": 99.484,
        "duration": 0.387,
        "velocity": 0.71,
        "hand": "right"
      },
      {
        "midi": 48,
        "time": 99.871,
        "duration": 0.774,
        "velocity": 0.71,
        "hand": "right"
      },
      {
        "midi": 72,
        "time": 100.258,
        "duration": 0.387,
        "velocity": 0.71,
        "hand": "right"
      },
      {
        "midi": 52,
        "time": 100.645,
        "duration": 0.774,
        "velocity": 0.71,
        "hand": "right"
      },
      {
        "midi": 76,
        "time": 101.032,
        "duration": 0.387,
        "velocity": 0.71,
        "hand": "right"
      },
      {
        "midi": 65,
        "time": 101.419,
        "duration": 0.194,
        "velocity": 0.71,
        "hand": "right"
      },
      {
        "midi": 77,
        "time": 101.613,
        "duration": 0.194,
        "velocity": 0.71,
        "hand": "right"
      },
      {
        "midi": 69,
        "time": 101.806,
        "duration": 0.194,
        "velocity": 0.71,
        "hand": "right"
      },
      {
        "midi": 81,
        "time": 102,
        "duration": 0.194,
        "velocity": 0.71,
        "hand": "right"
      },
      {
        "midi": 72,
        "time": 102.194,
        "duration": 0.194,
        "velocity": 0.71,
        "hand": "right"
      },
      {
        "midi": 84,
        "time": 102.387,
        "duration": 0.194,
        "velocity": 0.71,
        "hand": "right"
      },
      {
        "midi": 69,
        "time": 102.581,
        "duration": 0.194,
        "velocity": 0.71,
        "hand": "right"
      },
      {
        "midi": 81,
        "time": 102.774,
        "duration": 0.194,
        "velocity": 0.71,
        "hand": "right"
      },
      {
        "midi": 65,
        "time": 102.968,
        "duration": 0.194,
        "velocity": 0.71,
        "hand": "right"
      },
      {
        "midi": 77,
        "time": 103.161,
        "duration": 0.194,
        "velocity": 0.71,
        "hand": "right"
      },
      {
        "midi": 60,
        "time": 103.355,
        "duration": 0.194,
        "velocity": 0.71,
        "hand": "right"
      },
      {
        "midi": 72,
        "time": 103.548,
        "duration": 0.194,
        "velocity": 0.71,
        "hand": "right"
      },
      {
        "midi": 69,
        "time": 103.742,
        "duration": 0.387,
        "velocity": 0.71,
        "hand": "right"
      },
      {
        "midi": 72,
        "time": 104.129,
        "duration": 0.387,
        "velocity": 0.71,
        "hand": "right"
      },
      {
        "midi": 46,
        "time": 104.516,
        "duration": 0.774,
        "velocity": 0.71,
        "hand": "right"
      },
      {
        "midi": 70,
        "time": 104.903,
        "duration": 0.387,
        "velocity": 0.71,
        "hand": "right"
      },
      {
        "midi": 50,
        "time": 105.29,
        "duration": 0.774,
        "velocity": 0.71,
        "hand": "right"
      },
      {
        "midi": 74,
        "time": 105.677,
        "duration": 0.387,
        "velocity": 0.71,
        "hand": "right"
      },
      {
        "midi": 57,
        "time": 106.065,
        "duration": 0.774,
        "velocity": 0.71,
        "hand": "right"
      },
      {
        "midi": 72,
        "time": 106.452,
        "duration": 0.387,
        "velocity": 0.71,
        "hand": "right"
      },
      {
        "midi": 55,
        "time": 106.839,
        "duration": 0.774,
        "velocity": 0.71,
        "hand": "right"
      },
      {
        "midi": 72,
        "time": 107.226,
        "duration": 0.387,
        "velocity": 0.71,
        "hand": "right"
      },
      {
        "midi": 52,
        "time": 107.419,
        "duration": 0.194,
        "velocity": 0.71,
        "hand": "right"
      },
      {
        "midi": 65,
        "time": 107.613,
        "duration": 0.129,
        "velocity": 0.71,
        "hand": "right"
      },
      {
        "midi": 57,
        "time": 107.71,
        "duration": 0.129,
        "velocity": 0.71,
        "hand": "right"
      },
      {
        "midi": 65,
        "time": 107.806,
        "duration": 0.129,
        "velocity": 0.71,
        "hand": "right"
      },
      {
        "midi": 57,
        "time": 107.903,
        "duration": 0.129,
        "velocity": 0.71,
        "hand": "right"
      },
      {
        "midi": 65,
        "time": 108,
        "duration": 0.129,
        "velocity": 0.71,
        "hand": "right"
      },
      {
        "midi": 57,
        "time": 108.097,
        "duration": 0.129,
        "velocity": 0.71,
        "hand": "right"
      },
      {
        "midi": 65,
        "time": 108.194,
        "duration": 0.129,
        "velocity": 0.71,
        "hand": "right"
      },
      {
        "midi": 57,
        "time": 108.29,
        "duration": 0.129,
        "velocity": 0.71,
        "hand": "right"
      },
      {
        "midi": 65,
        "time": 108.387,
        "duration": 0.129,
        "velocity": 0.71,
        "hand": "right"
      },
      {
        "midi": 57,
        "time": 108.484,
        "duration": 0.129,
        "velocity": 0.71,
        "hand": "right"
      },
      {
        "midi": 65,
        "time": 108.581,
        "duration": 0.129,
        "velocity": 0.71,
        "hand": "right"
      },
      {
        "midi": 57,
        "time": 108.677,
        "duration": 0.129,
        "velocity": 0.71,
        "hand": "right"
      },
      {
        "midi": 67,
        "time": 108.774,
        "duration": 0.129,
        "velocity": 0.71,
        "hand": "right"
      },
      {
        "midi": 58,
        "time": 108.871,
        "duration": 0.129,
        "velocity": 0.71,
        "hand": "right"
      },
      {
        "midi": 67,
        "time": 108.968,
        "duration": 0.129,
        "velocity": 0.71,
        "hand": "right"
      },
      {
        "midi": 58,
        "time": 109.065,
        "duration": 0.129,
        "velocity": 0.71,
        "hand": "right"
      },
      {
        "midi": 69,
        "time": 109.161,
        "duration": 0.129,
        "velocity": 0.71,
        "hand": "right"
      },
      {
        "midi": 60,
        "time": 109.258,
        "duration": 0.129,
        "velocity": 0.71,
        "hand": "right"
      },
      {
        "midi": 69,
        "time": 109.355,
        "duration": 0.129,
        "velocity": 0.71,
        "hand": "right"
      },
      {
        "midi": 60,
        "time": 109.452,
        "duration": 0.129,
        "velocity": 0.71,
        "hand": "right"
      },
      {
        "midi": 70,
        "time": 109.548,
        "duration": 0.129,
        "velocity": 0.71,
        "hand": "right"
      },
      {
        "midi": 62,
        "time": 109.645,
        "duration": 0.129,
        "velocity": 0.71,
        "hand": "right"
      },
      {
        "midi": 70,
        "time": 109.742,
        "duration": 0.129,
        "velocity": 0.71,
        "hand": "right"
      },
      {
        "midi": 62,
        "time": 109.839,
        "duration": 0.129,
        "velocity": 0.71,
        "hand": "right"
      },
      {
        "midi": 72,
        "time": 109.935,
        "duration": 0.129,
        "velocity": 0.71,
        "hand": "right"
      },
      {
        "midi": 65,
        "time": 110.032,
        "duration": 0.129,
        "velocity": 0.71,
        "hand": "right"
      },
      {
        "midi": 72,
        "time": 110.129,
        "duration": 0.129,
        "velocity": 0.71,
        "hand": "right"
      },
      {
        "midi": 65,
        "time": 110.226,
        "duration": 0.129,
        "velocity": 0.71,
        "hand": "right"
      },
      {
        "midi": 74,
        "time": 110.323,
        "duration": 0.129,
        "velocity": 0.71,
        "hand": "right"
      },
      {
        "midi": 65,
        "time": 110.419,
        "duration": 0.129,
        "velocity": 0.71,
        "hand": "right"
      },
      {
        "midi": 74,
        "time": 110.516,
        "duration": 0.129,
        "velocity": 0.71,
        "hand": "right"
      },
      {
        "midi": 65,
        "time": 110.613,
        "duration": 0.129,
        "velocity": 0.71,
        "hand": "right"
      },
      {
        "midi": 75,
        "time": 110.71,
        "duration": 0.129,
        "velocity": 0.71,
        "hand": "right"
      },
      {
        "midi": 65,
        "time": 110.806,
        "duration": 0.129,
        "velocity": 0.71,
        "hand": "right"
      },
      {
        "midi": 75,
        "time": 110.903,
        "duration": 0.129,
        "velocity": 0.71,
        "hand": "right"
      },
      {
        "midi": 65,
        "time": 111,
        "duration": 0.129,
        "velocity": 0.71,
        "hand": "right"
      },
      {
        "midi": 77,
        "time": 111.097,
        "duration": 0.129,
        "velocity": 0.71,
        "hand": "right"
      },
      {
        "midi": 65,
        "time": 111.194,
        "duration": 0.129,
        "velocity": 0.71,
        "hand": "right"
      },
      {
        "midi": 77,
        "time": 111.29,
        "duration": 0.129,
        "velocity": 0.71,
        "hand": "right"
      },
      {
        "midi": 65,
        "time": 111.387,
        "duration": 0.129,
        "velocity": 0.71,
        "hand": "right"
      },
      {
        "midi": 79,
        "time": 111.484,
        "duration": 0.129,
        "velocity": 0.71,
        "hand": "right"
      },
      {
        "midi": 65,
        "time": 111.581,
        "duration": 0.129,
        "velocity": 0.71,
        "hand": "right"
      },
      {
        "midi": 79,
        "time": 111.677,
        "duration": 0.129,
        "velocity": 0.71,
        "hand": "right"
      },
      {
        "midi": 65,
        "time": 111.774,
        "duration": 0.129,
        "velocity": 0.71,
        "hand": "right"
      },
      {
        "midi": 81,
        "time": 111.871,
        "duration": 0.129,
        "velocity": 0.71,
        "hand": "right"
      },
      {
        "midi": 72,
        "time": 111.968,
        "duration": 0.129,
        "velocity": 0.71,
        "hand": "right"
      },
      {
        "midi": 81,
        "time": 112.065,
        "duration": 0.129,
        "velocity": 0.71,
        "hand": "right"
      },
      {
        "midi": 72,
        "time": 112.161,
        "duration": 0.129,
        "velocity": 0.71,
        "hand": "right"
      },
      {
        "midi": 82,
        "time": 112.258,
        "duration": 0.194,
        "velocity": 0.71,
        "hand": "right"
      },
      {
        "midi": 58,
        "time": 112.355,
        "duration": 0.129,
        "velocity": 0.71,
        "hand": "right"
      },
      {
        "midi": 77,
        "time": 112.452,
        "duration": 0.194,
        "velocity": 0.71,
        "hand": "right"
      },
      {
        "midi": 58,
        "time": 112.548,
        "duration": 0.129,
        "velocity": 0.71,
        "hand": "right"
      },
      {
        "midi": 74,
        "time": 112.645,
        "duration": 0.194,
        "velocity": 0.71,
        "hand": "right"
      },
      {
        "midi": 58,
        "time": 112.742,
        "duration": 0.129,
        "velocity": 0.71,
        "hand": "right"
      },
      {
        "midi": 77,
        "time": 112.839,
        "duration": 0.194,
        "velocity": 0.71,
        "hand": "right"
      },
      {
        "midi": 58,
        "time": 112.935,
        "duration": 0.129,
        "velocity": 0.71,
        "hand": "right"
      },
      {
        "midi": 82,
        "time": 113.032,
        "duration": 0.387,
        "velocity": 0.71,
        "hand": "right"
      }
    ],
    "medium": [
      {
        "midi": 53,
        "time": 0,
        "duration": 0.194,
        "velocity": 0.71,
        "hand": "left"
      },
      {
        "midi": 65,
        "time": 0,
        "duration": 0.194,
        "velocity": 0.71,
        "hand": "right"
      },
      {
        "midi": 48,
        "time": 0.387,
        "duration": 0.194,
        "velocity": 0.71,
        "hand": "left"
      },
      {
        "midi": 60,
        "time": 0.387,
        "duration": 0.194,
        "velocity": 0.71,
        "hand": "right"
      },
      {
        "midi": 53,
        "time": 0.774,
        "duration": 0.194,
        "velocity": 0.71,
        "hand": "left"
      },
      {
        "midi": 65,
        "time": 0.774,
        "duration": 0.194,
        "velocity": 0.71,
        "hand": "right"
      },
      {
        "midi": 48,
        "time": 1.161,
        "duration": 0.194,
        "velocity": 0.71,
        "hand": "left"
      },
      {
        "midi": 60,
        "time": 1.161,
        "duration": 0.194,
        "velocity": 0.71,
        "hand": "right"
      },
      {
        "midi": 53,
        "time": 1.548,
        "duration": 0.387,
        "velocity": 0.71,
        "hand": "left"
      },
      {
        "midi": 65,
        "time": 1.548,
        "duration": 0.387,
        "velocity": 0.71,
        "hand": "right"
      },
      {
        "midi": 48,
        "time": 2.129,
        "duration": 0.097,
        "velocity": 0.71,
        "hand": "left"
      },
      {
        "midi": 60,
        "time": 2.129,
        "duration": 0.097,
        "velocity": 0.71,
        "hand": "right"
      },
      {
        "midi": 50,
        "time": 2.226,
        "duration": 0.097,
        "velocity": 0.71,
        "hand": "left"
      },
      {
        "midi": 62,
        "time": 2.226,
        "duration": 0.097,
        "velocity": 0.71,
        "hand": "right"
      },
      {
        "midi": 64,
        "time": 2.226,
        "duration": 0.097,
        "velocity": 0.71,
        "hand": "right"
      },
      {
        "midi": 53,
        "time": 2.323,
        "duration": 0.387,
        "velocity": 0.71,
        "hand": "left"
      },
      {
        "midi": 65,
        "time": 2.323,
        "duration": 0.387,
        "velocity": 0.71,
        "hand": "right"
      },
      {
        "midi": 55,
        "time": 3.097,
        "duration": 0.194,
        "velocity": 0.71,
        "hand": "left"
      },
      {
        "midi": 67,
        "time": 3.097,
        "duration": 0.194,
        "velocity": 0.71,
        "hand": "right"
      },
      {
        "midi": 48,
        "time": 3.484,
        "duration": 0.194,
        "velocity": 0.71,
        "hand": "left"
      },
      {
        "midi": 60,
        "time": 3.484,
        "duration": 0.194,
        "velocity": 0.71,
        "hand": "right"
      },
      {
        "midi": 55,
        "time": 3.871,
        "duration": 0.194,
        "velocity": 0.71,
        "hand": "left"
      },
      {
        "midi": 67,
        "time": 3.871,
        "duration": 0.194,
        "velocity": 0.71,
        "hand": "right"
      },
      {
        "midi": 48,
        "time": 4.258,
        "duration": 0.194,
        "velocity": 0.71,
        "hand": "left"
      },
      {
        "midi": 60,
        "time": 4.258,
        "duration": 0.194,
        "velocity": 0.71,
        "hand": "right"
      },
      {
        "midi": 55,
        "time": 4.645,
        "duration": 0.387,
        "velocity": 0.71,
        "hand": "left"
      },
      {
        "midi": 67,
        "time": 4.645,
        "duration": 0.387,
        "velocity": 0.71,
        "hand": "right"
      },
      {
        "midi": 55,
        "time": 5.419,
        "duration": 0.387,
        "velocity": 0.71,
        "hand": "left"
      },
      {
        "midi": 67,
        "time": 5.419,
        "duration": 0.387,
        "velocity": 0.71,
        "hand": "right"
      },
      {
        "midi": 57,
        "time": 6.194,
        "duration": 0.194,
        "velocity": 0.71,
        "hand": "left"
      },
      {
        "midi": 69,
        "time": 6.194,
        "duration": 0.194,
        "velocity": 0.71,
        "hand": "right"
      },
      {
        "midi": 53,
        "time": 6.581,
        "duration": 0.194,
        "velocity": 0.71,
        "hand": "left"
      },
      {
        "midi": 65,
        "time": 6.581,
        "duration": 0.194,
        "velocity": 0.71,
        "hand": "right"
      },
      {
        "midi": 57,
        "time": 6.968,
        "duration": 0.194,
        "velocity": 0.71,
        "hand": "left"
      },
      {
        "midi": 69,
        "time": 6.968,
        "duration": 0.194,
        "velocity": 0.71,
        "hand": "right"
      },
      {
        "midi": 53,
        "time": 7.355,
        "duration": 0.194,
        "velocity": 0.71,
        "hand": "left"
      },
      {
        "midi": 65,
        "time": 7.355,
        "duration": 0.194,
        "velocity": 0.71,
        "hand": "right"
      },
      {
        "midi": 57,
        "time": 7.742,
        "duration": 0.387,
        "velocity": 0.71,
        "hand": "left"
      },
      {
        "midi": 69,
        "time": 7.742,
        "duration": 0.387,
        "velocity": 0.71,
        "hand": "right"
      },
      {
        "midi": 53,
        "time": 8.323,
        "duration": 0.097,
        "velocity": 0.71,
        "hand": "left"
      },
      {
        "midi": 65,
        "time": 8.323,
        "duration": 0.097,
        "velocity": 0.71,
        "hand": "right"
      },
      {
        "midi": 55,
        "time": 8.419,
        "duration": 0.097,
        "velocity": 0.71,
        "hand": "left"
      },
      {
        "midi": 67,
        "time": 8.419,
        "duration": 0.097,
        "velocity": 0.71,
        "hand": "right"
      },
      {
        "midi": 57,
        "time": 8.516,
        "duration": 0.387,
        "velocity": 0.71,
        "hand": "left"
      },
      {
        "midi": 69,
        "time": 8.516,
        "duration": 0.387,
        "velocity": 0.71,
        "hand": "right"
      },
      {
        "midi": 58,
        "time": 9.29,
        "duration": 0.194,
        "velocity": 0.71,
        "hand": "left"
      },
      {
        "midi": 70,
        "time": 9.29,
        "duration": 0.194,
        "velocity": 0.71,
        "hand": "right"
      },
      {
        "midi": 55,
        "time": 9.677,
        "duration": 0.194,
        "velocity": 0.71,
        "hand": "left"
      },
      {
        "midi": 67,
        "time": 9.677,
        "duration": 0.194,
        "velocity": 0.71,
        "hand": "right"
      },
      {
        "midi": 58,
        "time": 10.065,
        "duration": 0.194,
        "velocity": 0.71,
        "hand": "left"
      },
      {
        "midi": 70,
        "time": 10.065,
        "duration": 0.194,
        "velocity": 0.71,
        "hand": "right"
      },
      {
        "midi": 55,
        "time": 10.452,
        "duration": 0.194,
        "velocity": 0.71,
        "hand": "left"
      },
      {
        "midi": 67,
        "time": 10.452,
        "duration": 0.194,
        "velocity": 0.71,
        "hand": "right"
      },
      {
        "midi": 58,
        "time": 10.839,
        "duration": 0.387,
        "velocity": 0.71,
        "hand": "left"
      },
      {
        "midi": 70,
        "time": 10.839,
        "duration": 0.387,
        "velocity": 0.71,
        "hand": "right"
      },
      {
        "midi": 67,
        "time": 11.419,
        "duration": 0.097,
        "velocity": 0.71,
        "hand": "right"
      },
      {
        "midi": 69,
        "time": 11.516,
        "duration": 0.097,
        "velocity": 0.71,
        "hand": "right"
      },
      {
        "midi": 55,
        "time": 11.613,
        "duration": 0.387,
        "velocity": 0.71,
        "hand": "left"
      },
      {
        "midi": 58,
        "time": 11.613,
        "duration": 0.387,
        "velocity": 0.71,
        "hand": "left"
      },
      {
        "midi": 70,
        "time": 11.613,
        "duration": 0.387,
        "velocity": 0.71,
        "hand": "right"
      },
      {
        "midi": 52,
        "time": 12.387,
        "duration": 0.387,
        "velocity": 0.71,
        "hand": "left"
      },
      {
        "midi": 58,
        "time": 12.387,
        "duration": 0.387,
        "velocity": 0.71,
        "hand": "left"
      },
      {
        "midi": 79,
        "time": 12.387,
        "duration": 0.387,
        "velocity": 0.71,
        "hand": "right"
      },
      {
        "midi": 48,
        "time": 13.161,
        "duration": 0.387,
        "velocity": 0.71,
        "hand": "left"
      },
      {
        "midi": 55,
        "time": 13.161,
        "duration": 0.387,
        "velocity": 0.71,
        "hand": "left"
      },
      {
        "midi": 82,
        "time": 13.161,
        "duration": 0.194,
        "velocity": 0.71,
        "hand": "right"
      },
      {
        "midi": 81,
        "time": 13.355,
        "duration": 0.097,
        "velocity": 0.71,
        "hand": "right"
      },
      {
        "midi": 79,
        "time": 13.452,
        "duration": 0.097,
        "velocity": 0.71,
        "hand": "right"
      },
      {
        "midi": 77,
        "time": 13.548,
        "duration": 0.097,
        "velocity": 0.71,
        "hand": "right"
      },
      {
        "midi": 76,
        "time": 13.645,
        "duration": 0.097,
        "velocity": 0.71,
        "hand": "right"
      },
      {
        "midi": 74,
        "time": 13.742,
        "duration": 0.097,
        "velocity": 0.71,
        "hand": "right"
      },
      {
        "midi": 72,
        "time": 13.839,
        "duration": 0.097,
        "velocity": 0.71,
        "hand": "right"
      },
      {
        "midi": 48,
        "time": 13.935,
        "duration": 0.387,
        "velocity": 0.71,
        "hand": "left"
      },
      {
        "midi": 55,
        "time": 13.935,
        "duration": 0.387,
        "velocity": 0.71,
        "hand": "left"
      },
      {
        "midi": 70,
        "time": 13.935,
        "duration": 0.194,
        "velocity": 0.71,
        "hand": "right"
      },
      {
        "midi": 69,
        "time": 14.129,
        "duration": 0.097,
        "velocity": 0.71,
        "hand": "right"
      },
      {
        "midi": 67,
        "time": 14.226,
        "duration": 0.097,
        "velocity": 0.71,
        "hand": "right"
      },
      {
        "midi": 65,
        "time": 14.323,
        "duration": 0.097,
        "velocity": 0.71,
        "hand": "right"
      },
      {
        "midi": 64,
        "time": 14.419,
        "duration": 0.097,
        "velocity": 0.71,
        "hand": "right"
      },
      {
        "midi": 62,
        "time": 14.516,
        "duration": 0.097,
        "velocity": 0.71,
        "hand": "right"
      },
      {
        "midi": 60,
        "time": 14.613,
        "duration": 0.097,
        "velocity": 0.71,
        "hand": "right"
      },
      {
        "midi": 48,
        "time": 14.71,
        "duration": 0.774,
        "velocity": 0.71,
        "hand": "left"
      },
      {
        "midi": 55,
        "time": 14.71,
        "duration": 0.774,
        "velocity": 0.71,
        "hand": "left"
      },
      {
        "midi": 58,
        "time": 14.71,
        "duration": 0.774,
        "velocity": 0.71,
        "hand": "left"
      },
      {
        "midi": 53,
        "time": 15.484,
        "duration": 0.387,
        "velocity": 0.71,
        "hand": "left"
      },
      {
        "midi": 65,
        "time": 15.484,
        "duration": 0.194,
        "velocity": 0.71,
        "hand": "right"
      },
      {
        "midi": 48,
        "time": 15.871,
        "duration": 0.387,
        "velocity": 0.71,
        "hand": "left"
      },
      {
        "midi": 60,
        "time": 15.871,
        "duration": 0.194,
        "velocity": 0.71,
        "hand": "right"
      },
      {
        "midi": 53,
        "time": 16.258,
        "duration": 0.387,
        "velocity": 0.71,
        "hand": "left"
      },
      {
        "midi": 65,
        "time": 16.258,
        "duration": 0.194,
        "velocity": 0.71,
        "hand": "right"
      },
      {
        "midi": 48,
        "time": 16.645,
        "duration": 0.387,
        "velocity": 0.71,
        "hand": "left"
      },
      {
        "midi": 60,
        "time": 16.645,
        "duration": 0.194,
        "velocity": 0.71,
        "hand": "right"
      },
      {
        "midi": 53,
        "time": 17.032,
        "duration": 0.387,
        "velocity": 0.71,
        "hand": "left"
      },
      {
        "midi": 65,
        "time": 17.032,
        "duration": 0.387,
        "velocity": 0.71,
        "hand": "right"
      },
      {
        "midi": 48,
        "time": 17.419,
        "duration": 0.387,
        "velocity": 0.71,
        "hand": "left"
      },
      {
        "midi": 48,
        "time": 17.613,
        "duration": 0.097,
        "velocity": 0.71,
        "hand": "left"
      },
      {
        "midi": 60,
        "time": 17.613,
        "duration": 0.097,
        "velocity": 0.71,
        "hand": "right"
      },
      {
        "midi": 50,
        "time": 17.71,
        "duration": 0.097,
        "velocity": 0.71,
        "hand": "left"
      },
      {
        "midi": 62,
        "time": 17.71,
        "duration": 0.097,
        "velocity": 0.71,
        "hand": "right"
      },
      {
        "midi": 64,
        "time": 17.71,
        "duration": 0.097,
        "velocity": 0.71,
        "hand": "right"
      },
      {
        "midi": 53,
        "time": 17.806,
        "duration": 0.387,
        "velocity": 0.71,
        "hand": "left"
      },
      {
        "midi": 65,
        "time": 17.806,
        "duration": 0.387,
        "velocity": 0.71,
        "hand": "right"
      },
      {
        "midi": 55,
        "time": 18.581,
        "duration": 0.387,
        "velocity": 0.71,
        "hand": "left"
      },
      {
        "midi": 67,
        "time": 18.581,
        "duration": 0.194,
        "velocity": 0.71,
        "hand": "right"
      },
      {
        "midi": 48,
        "time": 18.968,
        "duration": 0.387,
        "velocity": 0.71,
        "hand": "left"
      },
      {
        "midi": 60,
        "time": 18.968,
        "duration": 0.194,
        "velocity": 0.71,
        "hand": "right"
      },
      {
        "midi": 55,
        "time": 19.355,
        "duration": 0.387,
        "velocity": 0.71,
        "hand": "left"
      },
      {
        "midi": 67,
        "time": 19.355,
        "duration": 0.194,
        "velocity": 0.71,
        "hand": "right"
      },
      {
        "midi": 48,
        "time": 19.742,
        "duration": 0.387,
        "velocity": 0.71,
        "hand": "left"
      },
      {
        "midi": 60,
        "time": 19.742,
        "duration": 0.194,
        "velocity": 0.71,
        "hand": "right"
      },
      {
        "midi": 55,
        "time": 20.129,
        "duration": 0.387,
        "velocity": 0.71,
        "hand": "left"
      },
      {
        "midi": 67,
        "time": 20.129,
        "duration": 0.387,
        "velocity": 0.71,
        "hand": "right"
      },
      {
        "midi": 48,
        "time": 20.516,
        "duration": 0.387,
        "velocity": 0.71,
        "hand": "left"
      },
      {
        "midi": 55,
        "time": 20.903,
        "duration": 0.387,
        "velocity": 0.71,
        "hand": "left"
      },
      {
        "midi": 67,
        "time": 20.903,
        "duration": 0.387,
        "velocity": 0.71,
        "hand": "right"
      },
      {
        "midi": 57,
        "time": 21.677,
        "duration": 0.387,
        "velocity": 0.71,
        "hand": "left"
      },
      {
        "midi": 69,
        "time": 21.677,
        "duration": 0.194,
        "velocity": 0.71,
        "hand": "right"
      },
      {
        "midi": 53,
        "time": 22.065,
        "duration": 0.387,
        "velocity": 0.71,
        "hand": "left"
      },
      {
        "midi": 65,
        "time": 22.065,
        "duration": 0.194,
        "velocity": 0.71,
        "hand": "right"
      },
      {
        "midi": 57,
        "time": 22.452,
        "duration": 0.387,
        "velocity": 0.71,
        "hand": "left"
      },
      {
        "midi": 69,
        "time": 22.452,
        "duration": 0.194,
        "velocity": 0.71,
        "hand": "right"
      },
      {
        "midi": 53,
        "time": 22.839,
        "duration": 0.387,
        "velocity": 0.71,
        "hand": "left"
      },
      {
        "midi": 65,
        "time": 22.839,
        "duration": 0.194,
        "velocity": 0.71,
        "hand": "right"
      },
      {
        "midi": 57,
        "time": 23.226,
        "duration": 0.387,
        "velocity": 0.71,
        "hand": "left"
      },
      {
        "midi": 69,
        "time": 23.226,
        "duration": 0.387,
        "velocity": 0.71,
        "hand": "right"
      },
      {
        "midi": 53,
        "time": 23.613,
        "duration": 0.387,
        "velocity": 0.71,
        "hand": "left"
      },
      {
        "midi": 53,
        "time": 23.806,
        "duration": 0.097,
        "velocity": 0.71,
        "hand": "left"
      },
      {
        "midi": 65,
        "time": 23.806,
        "duration": 0.097,
        "velocity": 0.71,
        "hand": "right"
      },
      {
        "midi": 55,
        "time": 23.903,
        "duration": 0.097,
        "velocity": 0.71,
        "hand": "left"
      },
      {
        "midi": 67,
        "time": 23.903,
        "duration": 0.097,
        "velocity": 0.71,
        "hand": "right"
      },
      {
        "midi": 57,
        "time": 24,
        "duration": 0.387,
        "velocity": 0.71,
        "hand": "left"
      },
      {
        "midi": 69,
        "time": 24,
        "duration": 0.387,
        "velocity": 0.71,
        "hand": "right"
      },
      {
        "midi": 58,
        "time": 24.774,
        "duration": 0.387,
        "velocity": 0.71,
        "hand": "left"
      },
      {
        "midi": 70,
        "time": 24.774,
        "duration": 0.194,
        "velocity": 0.71,
        "hand": "right"
      },
      {
        "midi": 55,
        "time": 25.161,
        "duration": 0.387,
        "velocity": 0.71,
        "hand": "left"
      },
      {
        "midi": 67,
        "time": 25.161,
        "duration": 0.194,
        "velocity": 0.71,
        "hand": "right"
      },
      {
        "midi": 58,
        "time": 25.548,
        "duration": 0.387,
        "velocity": 0.71,
        "hand": "left"
      },
      {
        "midi": 70,
        "time": 25.548,
        "duration": 0.194,
        "velocity": 0.71,
        "hand": "right"
      },
      {
        "midi": 55,
        "time": 25.935,
        "duration": 0.387,
        "velocity": 0.71,
        "hand": "left"
      },
      {
        "midi": 67,
        "time": 25.935,
        "duration": 0.194,
        "velocity": 0.71,
        "hand": "right"
      },
      {
        "midi": 58,
        "time": 26.323,
        "duration": 0.387,
        "velocity": 0.71,
        "hand": "left"
      },
      {
        "midi": 70,
        "time": 26.323,
        "duration": 0.387,
        "velocity": 0.71,
        "hand": "right"
      },
      {
        "midi": 55,
        "time": 26.71,
        "duration": 0.387,
        "velocity": 0.71,
        "hand": "left"
      },
      {
        "midi": 48,
        "time": 27.097,
        "duration": 0.387,
        "velocity": 0.71,
        "hand": "left"
      },
      {
        "midi": 55,
        "time": 27.097,
        "duration": 0.387,
        "velocity": 0.71,
        "hand": "left"
      },
      {
        "midi": 82,
        "time": 27.097,
        "duration": 0.194,
        "velocity": 0.71,
        "hand": "right"
      },
      {
        "midi": 81,
        "time": 27.29,
        "duration": 0.097,
        "velocity": 0.71,
        "hand": "right"
      },
      {
        "midi": 79,
        "time": 27.387,
        "duration": 0.097,
        "velocity": 0.71,
        "hand": "right"
      },
      {
        "midi": 77,
        "time": 27.484,
        "duration": 0.097,
        "velocity": 0.71,
        "hand": "right"
      },
      {
        "midi": 76,
        "time": 27.581,
        "duration": 0.097,
        "velocity": 0.71,
        "hand": "right"
      },
      {
        "midi": 74,
        "time": 27.677,
        "duration": 0.097,
        "velocity": 0.71,
        "hand": "right"
      },
      {
        "midi": 72,
        "time": 27.774,
        "duration": 0.097,
        "velocity": 0.71,
        "hand": "right"
      },
      {
        "midi": 48,
        "time": 27.871,
        "duration": 0.387,
        "velocity": 0.71,
        "hand": "left"
      },
      {
        "midi": 55,
        "time": 27.871,
        "duration": 0.387,
        "velocity": 0.71,
        "hand": "left"
      },
      {
        "midi": 70,
        "time": 27.871,
        "duration": 0.194,
        "velocity": 0.71,
        "hand": "right"
      },
      {
        "midi": 69,
        "time": 28.065,
        "duration": 0.097,
        "velocity": 0.71,
        "hand": "right"
      },
      {
        "midi": 67,
        "time": 28.161,
        "duration": 0.097,
        "velocity": 0.71,
        "hand": "right"
      },
      {
        "midi": 65,
        "time": 28.258,
        "duration": 0.097,
        "velocity": 0.71,
        "hand": "right"
      },
      {
        "midi": 64,
        "time": 28.355,
        "duration": 0.097,
        "velocity": 0.71,
        "hand": "right"
      },
      {
        "midi": 62,
        "time": 28.452,
        "duration": 0.097,
        "velocity": 0.71,
        "hand": "right"
      },
      {
        "midi": 60,
        "time": 28.548,
        "duration": 0.097,
        "velocity": 0.71,
        "hand": "right"
      },
      {
        "midi": 48,
        "time": 28.645,
        "duration": 0.387,
        "velocity": 0.71,
        "hand": "left"
      },
      {
        "midi": 55,
        "time": 28.645,
        "duration": 0.387,
        "velocity": 0.71,
        "hand": "left"
      },
      {
        "midi": 58,
        "time": 28.645,
        "duration": 0.387,
        "velocity": 0.71,
        "hand": "left"
      },
      {
        "midi": 41,
        "time": 30.194,
        "duration": 0.387,
        "velocity": 0.71,
        "hand": "left"
      },
      {
        "midi": 57,
        "time": 30.194,
        "duration": 1.161,
        "velocity": 0.71,
        "hand": "left"
      },
      {
        "midi": 69,
        "time": 30.194,
        "duration": 0.097,
        "velocity": 0.71,
        "hand": "right"
      },
      {
        "midi": 65,
        "time": 30.29,
        "duration": 0.097,
        "velocity": 0.71,
        "hand": "right"
      },
      {
        "midi": 60,
        "time": 30.484,
        "duration": 0.097,
        "velocity": 0.71,
        "hand": "right"
      },
      {
        "midi": 69,
        "time": 30.581,
        "duration": 0.097,
        "velocity": 0.71,
        "hand": "right"
      },
      {
        "midi": 65,
        "time": 30.677,
        "duration": 0.097,
        "velocity": 0.71,
        "hand": "right"
      },
      {
        "midi": 60,
        "time": 30.871,
        "duration": 0.097,
        "velocity": 0.71,
        "hand": "right"
      },
      {
        "midi": 69,
        "time": 30.968,
        "duration": 0.097,
        "velocity": 0.71,
        "hand": "right"
      },
      {
        "midi": 65,
        "time": 31.065,
        "duration": 0.097,
        "velocity": 0.71,
        "hand": "right"
      },
      {
        "midi": 60,
        "time": 31.258,
        "duration": 0.097,
        "velocity": 0.71,
        "hand": "right"
      },
      {
        "midi": 58,
        "time": 31.355,
        "duration": 0.387,
        "velocity": 0.71,
        "hand": "left"
      },
      {
        "midi": 70,
        "time": 31.355,
        "duration": 0.097,
        "velocity": 0.71,
        "hand": "right"
      },
      {
        "midi": 67,
        "time": 31.452,
        "duration": 0.097,
        "velocity": 0.71,
        "hand": "right"
      },
      {
        "midi": 60,
        "time": 31.645,
        "duration": 0.097,
        "velocity": 0.71,
        "hand": "right"
      },
      {
        "midi": 60,
        "time": 31.742,
        "duration": 0.387,
        "velocity": 0.71,
        "hand": "right"
      },
      {
        "midi": 72,
        "time": 31.742,
        "duration": 0.097,
        "velocity": 0.71,
        "hand": "right"
      },
      {
        "midi": 69,
        "time": 31.839,
        "duration": 0.097,
        "velocity": 0.71,
        "hand": "right"
      },
      {
        "midi": 60,
        "time": 32.032,
        "duration": 0.097,
        "velocity": 0.71,
        "hand": "right"
      },
      {
        "midi": 58,
        "time": 32.129,
        "duration": 0.387,
        "velocity": 0.71,
        "hand": "left"
      },
      {
        "midi": 70,
        "time": 32.129,
        "duration": 0.097,
        "velocity": 0.71,
        "hand": "right"
      },
      {
        "midi": 67,
        "time": 32.226,
        "duration": 0.097,
        "velocity": 0.71,
        "hand": "right"
      },
      {
        "midi": 60,
        "time": 32.419,
        "duration": 0.097,
        "velocity": 0.71,
        "hand": "right"
      },
      {
        "midi": 57,
        "time": 32.516,
        "duration": 0.387,
        "velocity": 0.71,
        "hand": "left"
      },
      {
        "midi": 69,
        "time": 32.516,
        "duration": 0.097,
        "velocity": 0.71,
        "hand": "right"
      },
      {
        "midi": 65,
        "time": 32.613,
        "duration": 0.097,
        "velocity": 0.71,
        "hand": "right"
      },
      {
        "midi": 60,
        "time": 32.806,
        "duration": 0.097,
        "velocity": 0.71,
        "hand": "right"
      },
      {
        "midi": 55,
        "time": 32.903,
        "duration": 0.387,
        "velocity": 0.71,
        "hand": "left"
      },
      {
        "midi": 67,
        "time": 32.903,
        "duration": 0.097,
        "velocity": 0.71,
        "hand": "right"
      },
      {
        "midi": 64,
        "time": 33,
        "duration": 0.097,
        "velocity": 0.71,
        "hand": "right"
      },
      {
        "midi": 60,
        "time": 33.194,
        "duration": 0.097,
        "velocity": 0.71,
        "hand": "right"
      },
      {
        "midi": 41,
        "time": 33.29,
        "duration": 0.387,
        "velocity": 0.71,
        "hand": "left"
      },
      {
        "midi": 53,
        "time": 33.29,
        "duration": 0.387,
        "velocity": 0.71,
        "hand": "left"
      },
      {
        "midi": 77,
        "time": 33.387,
        "duration": 0.29,
        "velocity": 0.71,
        "hand": "right"
      },
      {
        "midi": 81,
        "time": 33.387,
        "duration": 0.29,
        "velocity": 0.71,
        "hand": "right"
      },
      {
        "midi": 45,
        "time": 33.677,
        "duration": 0.387,
        "velocity": 0.71,
        "hand": "left"
      },
      {
        "midi": 57,
        "time": 33.677,
        "duration": 0.387,
        "velocity": 0.71,
        "hand": "left"
      },
      {
        "midi": 81,
        "time": 33.677,
        "duration": 0.194,
        "velocity": 0.71,
        "hand": "right"
      },
      {
        "midi": 77,
        "time": 33.871,
        "duration": 0.194,
        "velocity": 0.71,
        "hand": "right"
      },
      {
        "midi": 81,
        "time": 33.871,
        "duration": 0.194,
        "velocity": 0.71,
        "hand": "right"
      },
      {
        "midi": 48,
        "time": 34.065,
        "duration": 0.387,
        "velocity": 0.71,
        "hand": "left"
      },
      {
        "midi": 77,
        "time": 34.065,
        "duration": 0.194,
        "velocity": 0.71,
        "hand": "right"
      },
      {
        "midi": 81,
        "time": 34.065,
        "duration": 0.194,
        "velocity": 0.71,
        "hand": "right"
      },
      {
        "midi": 79,
        "time": 34.258,
        "duration": 0.097,
        "velocity": 0.71,
        "hand": "right"
      },
      {
        "midi": 81,
        "time": 34.355,
        "duration": 0.097,
        "velocity": 0.71,
        "hand": "right"
      },
      {
        "midi": 36,
        "time": 34.452,
        "duration": 0.387,
        "velocity": 0.71,
        "hand": "left"
      },
      {
        "midi": 79,
        "time": 34.452,
        "duration": 0.194,
        "velocity": 0.71,
        "hand": "right"
      },
      {
        "midi": 82,
        "time": 34.452,
        "duration": 0.194,
        "velocity": 0.71,
        "hand": "right"
      },
      {
        "midi": 76,
        "time": 34.645,
        "duration": 0.194,
        "velocity": 0.71,
        "hand": "right"
      },
      {
        "midi": 79,
        "time": 34.645,
        "duration": 0.194,
        "velocity": 0.71,
        "hand": "right"
      },
      {
        "midi": 41,
        "time": 34.839,
        "duration": 0.387,
        "velocity": 0.71,
        "hand": "left"
      },
      {
        "midi": 57,
        "time": 34.839,
        "duration": 1.161,
        "velocity": 0.71,
        "hand": "left"
      },
      {
        "midi": 69,
        "time": 34.839,
        "duration": 0.097,
        "velocity": 0.71,
        "hand": "right"
      },
      {
        "midi": 65,
        "time": 34.935,
        "duration": 0.097,
        "velocity": 0.71,
        "hand": "right"
      },
      {
        "midi": 60,
        "time": 35.129,
        "duration": 0.097,
        "velocity": 0.71,
        "hand": "right"
      },
      {
        "midi": 69,
        "time": 35.226,
        "duration": 0.097,
        "velocity": 0.71,
        "hand": "right"
      },
      {
        "midi": 65,
        "time": 35.323,
        "duration": 0.097,
        "velocity": 0.71,
        "hand": "right"
      },
      {
        "midi": 60,
        "time": 35.516,
        "duration": 0.097,
        "velocity": 0.71,
        "hand": "right"
      },
      {
        "midi": 69,
        "time": 35.613,
        "duration": 0.097,
        "velocity": 0.71,
        "hand": "right"
      },
      {
        "midi": 65,
        "time": 35.71,
        "duration": 0.097,
        "velocity": 0.71,
        "hand": "right"
      },
      {
        "midi": 60,
        "time": 35.903,
        "duration": 0.097,
        "velocity": 0.71,
        "hand": "right"
      },
      {
        "midi": 58,
        "time": 36,
        "duration": 0.387,
        "velocity": 0.71,
        "hand": "left"
      },
      {
        "midi": 70,
        "time": 36,
        "duration": 0.097,
        "velocity": 0.71,
        "hand": "right"
      },
      {
        "midi": 67,
        "time": 36.097,
        "duration": 0.097,
        "velocity": 0.71,
        "hand": "right"
      },
      {
        "midi": 60,
        "time": 36.29,
        "duration": 0.097,
        "velocity": 0.71,
        "hand": "right"
      },
      {
        "midi": 60,
        "time": 36.387,
        "duration": 0.387,
        "velocity": 0.71,
        "hand": "right"
      },
      {
        "midi": 72,
        "time": 36.387,
        "duration": 0.097,
        "velocity": 0.71,
        "hand": "right"
      },
      {
        "midi": 69,
        "time": 36.484,
        "duration": 0.097,
        "velocity": 0.71,
        "hand": "right"
      },
      {
        "midi": 60,
        "time": 36.677,
        "duration": 0.097,
        "velocity": 0.71,
        "hand": "right"
      },
      {
        "midi": 58,
        "time": 36.774,
        "duration": 0.387,
        "velocity": 0.71,
        "hand": "left"
      },
      {
        "midi": 70,
        "time": 36.774,
        "duration": 0.097,
        "velocity": 0.71,
        "hand": "right"
      },
      {
        "midi": 67,
        "time": 36.871,
        "duration": 0.097,
        "velocity": 0.71,
        "hand": "right"
      },
      {
        "midi": 60,
        "time": 37.065,
        "duration": 0.097,
        "velocity": 0.71,
        "hand": "right"
      },
      {
        "midi": 57,
        "time": 37.161,
        "duration": 0.387,
        "velocity": 0.71,
        "hand": "left"
      },
      {
        "midi": 69,
        "time": 37.161,
        "duration": 0.097,
        "velocity": 0.71,
        "hand": "right"
      },
      {
        "midi": 65,
        "time": 37.258,
        "duration": 0.097,
        "velocity": 0.71,
        "hand": "right"
      },
      {
        "midi": 60,
        "time": 37.452,
        "duration": 0.097,
        "velocity": 0.71,
        "hand": "right"
      },
      {
        "midi": 48,
        "time": 37.548,
        "duration": 0.387,
        "velocity": 0.71,
        "hand": "left"
      },
      {
        "midi": 58,
        "time": 37.548,
        "duration": 0.387,
        "velocity": 0.71,
        "hand": "left"
      },
      {
        "midi": 67,
        "time": 37.548,
        "duration": 0.097,
        "velocity": 0.71,
        "hand": "right"
      },
      {
        "midi": 64,
        "time": 37.645,
        "duration": 0.097,
        "velocity": 0.71,
        "hand": "right"
      },
      {
        "midi": 60,
        "time": 37.839,
        "duration": 0.097,
        "velocity": 0.71,
        "hand": "right"
      },
      {
        "midi": 53,
        "time": 37.935,
        "duration": 0.387,
        "velocity": 0.71,
        "hand": "left"
      },
      {
        "midi": 57,
        "time": 37.935,
        "duration": 0.387,
        "velocity": 0.71,
        "hand": "left"
      },
      {
        "midi": 65,
        "time": 37.935,
        "duration": 0.387,
        "velocity": 0.71,
        "hand": "right"
      },
      {
        "midi": 53,
        "time": 38.71,
        "duration": 0.387,
        "velocity": 0.71,
        "hand": "left"
      },
      {
        "midi": 65,
        "time": 38.71,
        "duration": 0.387,
        "velocity": 0.71,
        "hand": "right"
      },
      {
        "midi": 57,
        "time": 39.097,
        "duration": 0.387,
        "velocity": 0.71,
        "hand": "left"
      },
      {
        "midi": 69,
        "time": 39.097,
        "duration": 0.387,
        "velocity": 0.71,
        "hand": "right"
      },
      {
        "midi": 46,
        "time": 39.484,
        "duration": 0.387,
        "velocity": 0.71,
        "hand": "left"
      },
      {
        "midi": 58,
        "time": 39.871,
        "duration": 0.387,
        "velocity": 0.71,
        "hand": "left"
      },
      {
        "midi": 50,
        "time": 40.258,
        "duration": 0.387,
        "velocity": 0.71,
        "hand": "left"
      },
      {
        "midi": 62,
        "time": 40.645,
        "duration": 0.387,
        "velocity": 0.71,
        "hand": "right"
      },
      {
        "midi": 48,
        "time": 41.032,
        "duration": 0.387,
        "velocity": 0.71,
        "hand": "left"
      },
      {
        "midi": 60,
        "time": 41.419,
        "duration": 0.387,
        "velocity": 0.71,
        "hand": "right"
      },
      {
        "midi": 52,
        "time": 41.806,
        "duration": 0.387,
        "velocity": 0.71,
        "hand": "left"
      },
      {
        "midi": 64,
        "time": 42.194,
        "duration": 0.387,
        "velocity": 0.71,
        "hand": "right"
      },
      {
        "midi": 53,
        "time": 42.581,
        "duration": 0.194,
        "velocity": 0.71,
        "hand": "left"
      },
      {
        "midi": 65,
        "time": 42.581,
        "duration": 0.194,
        "velocity": 0.71,
        "hand": "right"
      },
      {
        "midi": 57,
        "time": 42.968,
        "duration": 0.194,
        "velocity": 0.71,
        "hand": "left"
      },
      {
        "midi": 69,
        "time": 42.968,
        "duration": 0.194,
        "velocity": 0.71,
        "hand": "right"
      },
      {
        "midi": 60,
        "time": 43.355,
        "duration": 0.194,
        "velocity": 0.71,
        "hand": "right"
      },
      {
        "midi": 72,
        "time": 43.355,
        "duration": 0.194,
        "velocity": 0.71,
        "hand": "right"
      },
      {
        "midi": 57,
        "time": 43.742,
        "duration": 0.194,
        "velocity": 0.71,
        "hand": "left"
      },
      {
        "midi": 69,
        "time": 43.742,
        "duration": 0.194,
        "velocity": 0.71,
        "hand": "right"
      },
      {
        "midi": 53,
        "time": 44.129,
        "duration": 0.194,
        "velocity": 0.71,
        "hand": "left"
      },
      {
        "midi": 65,
        "time": 44.129,
        "duration": 0.194,
        "velocity": 0.71,
        "hand": "right"
      },
      {
        "midi": 48,
        "time": 44.516,
        "duration": 0.194,
        "velocity": 0.71,
        "hand": "left"
      },
      {
        "midi": 60,
        "time": 44.516,
        "duration": 0.194,
        "velocity": 0.71,
        "hand": "right"
      },
      {
        "midi": 45,
        "time": 44.903,
        "duration": 0.387,
        "velocity": 0.71,
        "hand": "left"
      },
      {
        "midi": 46,
        "time": 44.903,
        "duration": 0.194,
        "velocity": 0.71,
        "hand": "left"
      },
      {
        "midi": 57,
        "time": 44.903,
        "duration": 0.387,
        "velocity": 0.71,
        "hand": "left"
      },
      {
        "midi": 48,
        "time": 45.29,
        "duration": 0.387,
        "velocity": 0.71,
        "hand": "left"
      },
      {
        "midi": 60,
        "time": 45.29,
        "duration": 0.387,
        "velocity": 0.71,
        "hand": "right"
      },
      {
        "midi": 46,
        "time": 45.677,
        "duration": 0.387,
        "velocity": 0.71,
        "hand": "left"
      },
      {
        "midi": 58,
        "time": 46.065,
        "duration": 0.387,
        "velocity": 0.71,
        "hand": "left"
      },
      {
        "midi": 50,
        "time": 46.452,
        "duration": 0.387,
        "velocity": 0.71,
        "hand": "left"
      },
      {
        "midi": 62,
        "time": 46.839,
        "duration": 0.387,
        "velocity": 0.71,
        "hand": "right"
      },
      {
        "midi": 48,
        "time": 47.226,
        "duration": 1.161,
        "velocity": 0.71,
        "hand": "left"
      },
      {
        "midi": 53,
        "time": 47.226,
        "duration": 0.774,
        "velocity": 0.71,
        "hand": "left"
      },
      {
        "midi": 57,
        "time": 47.226,
        "duration": 0.774,
        "velocity": 0.71,
        "hand": "left"
      },
      {
        "midi": 60,
        "time": 47.613,
        "duration": 0.387,
        "velocity": 0.71,
        "hand": "right"
      },
      {
        "midi": 48,
        "time": 48,
        "duration": 0.387,
        "velocity": 0.71,
        "hand": "left"
      },
      {
        "midi": 52,
        "time": 48,
        "duration": 0.774,
        "velocity": 0.71,
        "hand": "left"
      },
      {
        "midi": 55,
        "time": 48,
        "duration": 0.774,
        "velocity": 0.71,
        "hand": "left"
      },
      {
        "midi": 50,
        "time": 48.387,
        "duration": 0.194,
        "velocity": 0.71,
        "hand": "left"
      },
      {
        "midi": 60,
        "time": 48.387,
        "duration": 0.387,
        "velocity": 0.71,
        "hand": "right"
      },
      {
        "midi": 52,
        "time": 48.581,
        "duration": 0.194,
        "velocity": 0.71,
        "hand": "left"
      },
      {
        "midi": 53,
        "time": 48.774,
        "duration": 0.387,
        "velocity": 0.71,
        "hand": "left"
      },
      {
        "midi": 65,
        "time": 48.774,
        "duration": 0.387,
        "velocity": 0.71,
        "hand": "right"
      },
      {
        "midi": 53,
        "time": 49.548,
        "duration": 0.774,
        "velocity": 0.71,
        "hand": "left"
      },
      {
        "midi": 62,
        "time": 49.548,
        "duration": 0.774,
        "velocity": 0.71,
        "hand": "right"
      },
      {
        "midi": 70,
        "time": 49.548,
        "duration": 0.581,
        "velocity": 0.71,
        "hand": "right"
      },
      {
        "midi": 72,
        "time": 50.129,
        "duration": 0.097,
        "velocity": 0.71,
        "hand": "right"
      },
      {
        "midi": 70,
        "time": 50.226,
        "duration": 0.097,
        "velocity": 0.71,
        "hand": "right"
      },
      {
        "midi": 53,
        "time": 50.323,
        "duration": 0.774,
        "velocity": 0.71,
        "hand": "left"
      },
      {
        "midi": 60,
        "time": 50.323,
        "duration": 0.387,
        "velocity": 0.71,
        "hand": "right"
      },
      {
        "midi": 69,
        "time": 50.323,
        "duration": 0.194,
        "velocity": 0.71,
        "hand": "right"
      },
      {
        "midi": 65,
        "time": 50.71,
        "duration": 0.194,
        "velocity": 0.71,
        "hand": "right"
      },
      {
        "midi": 53,
        "time": 51.097,
        "duration": 0.774,
        "velocity": 0.71,
        "hand": "left"
      },
      {
        "midi": 58,
        "time": 51.097,
        "duration": 0.581,
        "velocity": 0.71,
        "hand": "left"
      },
      {
        "midi": 74,
        "time": 51.097,
        "duration": 0.581,
        "velocity": 0.71,
        "hand": "right"
      },
      {
        "midi": 60,
        "time": 51.677,
        "duration": 0.097,
        "velocity": 0.71,
        "hand": "right"
      },
      {
        "midi": 76,
        "time": 51.677,
        "duration": 0.097,
        "velocity": 0.71,
        "hand": "right"
      },
      {
        "midi": 62,
        "time": 51.774,
        "duration": 0.097,
        "velocity": 0.71,
        "hand": "right"
      },
      {
        "midi": 77,
        "time": 51.774,
        "duration": 0.097,
        "velocity": 0.71,
        "hand": "right"
      },
      {
        "midi": 53,
        "time": 51.871,
        "duration": 0.387,
        "velocity": 0.71,
        "hand": "left"
      },
      {
        "midi": 57,
        "time": 51.871,
        "duration": 0.387,
        "velocity": 0.71,
        "hand": "left"
      },
      {
        "midi": 72,
        "time": 51.871,
        "duration": 0.387,
        "velocity": 0.71,
        "hand": "right"
      },
      {
        "midi": 57,
        "time": 52.645,
        "duration": 0.387,
        "velocity": 0.71,
        "hand": "left"
      },
      {
        "midi": 60,
        "time": 53.032,
        "duration": 0.387,
        "velocity": 0.71,
        "hand": "right"
      },
      {
        "midi": 48,
        "time": 53.419,
        "duration": 1.548,
        "velocity": 0.71,
        "hand": "left"
      },
      {
        "midi": 60,
        "time": 53.419,
        "duration": 0.194,
        "velocity": 0.71,
        "hand": "right"
      },
      {
        "midi": 64,
        "time": 53.419,
        "duration": 1.548,
        "velocity": 0.71,
        "hand": "right"
      },
      {
        "midi": 58,
        "time": 53.613,
        "duration": 0.194,
        "velocity": 0.71,
        "hand": "left"
      },
      {
        "midi": 57,
        "time": 53.806,
        "duration": 0.194,
        "velocity": 0.71,
        "hand": "left"
      },
      {
        "midi": 55,
        "time": 54,
        "duration": 0.194,
        "velocity": 0.71,
        "hand": "left"
      },
      {
        "midi": 55,
        "time": 54.194,
        "duration": 0.387,
        "velocity": 0.71,
        "hand": "left"
      },
      {
        "midi": 55,
        "time": 54.581,
        "duration": 0.387,
        "velocity": 0.71,
        "hand": "left"
      },
      {
        "midi": 41,
        "time": 54.968,
        "duration": 0.387,
        "velocity": 0.71,
        "hand": "left"
      },
      {
        "midi": 57,
        "time": 54.968,
        "duration": 0.387,
        "velocity": 0.71,
        "hand": "left"
      },
      {
        "midi": 65,
        "time": 54.968,
        "duration": 0.387,
        "velocity": 0.71,
        "hand": "right"
      },
      {
        "midi": 53,
        "time": 55.355,
        "duration": 0.387,
        "velocity": 0.71,
        "hand": "left"
      },
      {
        "midi": 53,
        "time": 55.742,
        "duration": 0.774,
        "velocity": 0.71,
        "hand": "left"
      },
      {
        "midi": 62,
        "time": 55.742,
        "duration": 0.774,
        "velocity": 0.71,
        "hand": "right"
      },
      {
        "midi": 70,
        "time": 55.742,
        "duration": 0.581,
        "velocity": 0.71,
        "hand": "right"
      },
      {
        "midi": 72,
        "time": 56.323,
        "duration": 0.097,
        "velocity": 0.71,
        "hand": "right"
      },
      {
        "midi": 70,
        "time": 56.419,
        "duration": 0.097,
        "velocity": 0.71,
        "hand": "right"
      },
      {
        "midi": 53,
        "time": 56.516,
        "duration": 0.774,
        "velocity": 0.71,
        "hand": "left"
      },
      {
        "midi": 60,
        "time": 56.516,
        "duration": 0.387,
        "velocity": 0.71,
        "hand": "right"
      },
      {
        "midi": 69,
        "time": 56.516,
        "duration": 0.194,
        "velocity": 0.71,
        "hand": "right"
      },
      {
        "midi": 65,
        "time": 56.903,
        "duration": 0.194,
        "velocity": 0.71,
        "hand": "right"
      },
      {
        "midi": 53,
        "time": 57.29,
        "duration": 0.774,
        "velocity": 0.71,
        "hand": "left"
      },
      {
        "midi": 58,
        "time": 57.29,
        "duration": 0.581,
        "velocity": 0.71,
        "hand": "left"
      },
      {
        "midi": 74,
        "time": 57.29,
        "duration": 0.581,
        "velocity": 0.71,
        "hand": "right"
      },
      {
        "midi": 60,
        "time": 57.871,
        "duration": 0.097,
        "velocity": 0.71,
        "hand": "right"
      },
      {
        "midi": 76,
        "time": 57.871,
        "duration": 0.097,
        "velocity": 0.71,
        "hand": "right"
      },
      {
        "midi": 62,
        "time": 57.968,
        "duration": 0.097,
        "velocity": 0.71,
        "hand": "right"
      },
      {
        "midi": 77,
        "time": 57.968,
        "duration": 0.097,
        "velocity": 0.71,
        "hand": "right"
      },
      {
        "midi": 53,
        "time": 58.065,
        "duration": 0.387,
        "velocity": 0.71,
        "hand": "left"
      },
      {
        "midi": 57,
        "time": 58.065,
        "duration": 0.387,
        "velocity": 0.71,
        "hand": "left"
      },
      {
        "midi": 72,
        "time": 58.065,
        "duration": 0.387,
        "velocity": 0.71,
        "hand": "right"
      },
      {
        "midi": 57,
        "time": 58.839,
        "duration": 0.387,
        "velocity": 0.71,
        "hand": "left"
      },
      {
        "midi": 60,
        "time": 59.226,
        "duration": 0.387,
        "velocity": 0.71,
        "hand": "right"
      },
      {
        "midi": 48,
        "time": 59.613,
        "duration": 1.548,
        "velocity": 0.71,
        "hand": "left"
      },
      {
        "midi": 60,
        "time": 59.613,
        "duration": 0.194,
        "velocity": 0.71,
        "hand": "right"
      },
      {
        "midi": 64,
        "time": 59.613,
        "duration": 1.548,
        "velocity": 0.71,
        "hand": "right"
      },
      {
        "midi": 58,
        "time": 59.806,
        "duration": 0.194,
        "velocity": 0.71,
        "hand": "left"
      },
      {
        "midi": 57,
        "time": 60,
        "duration": 0.194,
        "velocity": 0.71,
        "hand": "left"
      },
      {
        "midi": 55,
        "time": 60.194,
        "duration": 0.194,
        "velocity": 0.71,
        "hand": "left"
      },
      {
        "midi": 55,
        "time": 60.387,
        "duration": 0.581,
        "velocity": 0.71,
        "hand": "left"
      },
      {
        "midi": 57,
        "time": 60.968,
        "duration": 0.194,
        "velocity": 0.71,
        "hand": "left"
      },
      {
        "midi": 41,
        "time": 61.161,
        "duration": 0.387,
        "velocity": 0.71,
        "hand": "left"
      },
      {
        "midi": 53,
        "time": 61.161,
        "duration": 0.387,
        "velocity": 0.71,
        "hand": "left"
      },
      {
        "midi": 53,
        "time": 61.548,
        "duration": 0.387,
        "velocity": 0.71,
        "hand": "left"
      },
      {
        "midi": 60,
        "time": 61.548,
        "duration": 0.387,
        "velocity": 0.71,
        "hand": "right"
      },
      {
        "midi": 65,
        "time": 61.548,
        "duration": 0.387,
        "velocity": 0.71,
        "hand": "right"
      },
      {
        "midi": 41,
        "time": 61.935,
        "duration": 0.387,
        "velocity": 0.71,
        "hand": "left"
      },
      {
        "midi": 53,
        "time": 61.935,
        "duration": 0.387,
        "velocity": 0.71,
        "hand": "left"
      },
      {
        "midi": 53,
        "time": 62.323,
        "duration": 0.387,
        "velocity": 0.71,
        "hand": "left"
      },
      {
        "midi": 62,
        "time": 62.323,
        "duration": 0.387,
        "velocity": 0.71,
        "hand": "right"
      },
      {
        "midi": 65,
        "time": 62.323,
        "duration": 0.387,
        "velocity": 0.71,
        "hand": "right"
      },
      {
        "midi": 43,
        "time": 62.71,
        "duration": 0.387,
        "velocity": 0.71,
        "hand": "left"
      },
      {
        "midi": 52,
        "time": 62.71,
        "duration": 0.581,
        "velocity": 0.71,
        "hand": "left"
      },
      {
        "midi": 55,
        "time": 63.097,
        "duration": 0.387,
        "velocity": 0.71,
        "hand": "left"
      },
      {
        "midi": 60,
        "time": 63.097,
        "duration": 0.387,
        "velocity": 0.71,
        "hand": "right"
      },
      {
        "midi": 64,
        "time": 63.097,
        "duration": 0.387,
        "velocity": 0.71,
        "hand": "right"
      },
      {
        "midi": 52,
        "time": 63.29,
        "duration": 0.194,
        "velocity": 0.71,
        "hand": "left"
      },
      {
        "midi": 43,
        "time": 63.484,
        "duration": 0.387,
        "velocity": 0.71,
        "hand": "left"
      },
      {
        "midi": 50,
        "time": 63.484,
        "duration": 0.581,
        "velocity": 0.71,
        "hand": "left"
      },
      {
        "midi": 53,
        "time": 63.871,
        "duration": 0.387,
        "velocity": 0.71,
        "hand": "left"
      },
      {
        "midi": 59,
        "time": 63.871,
        "duration": 0.387,
        "velocity": 0.71,
        "hand": "left"
      },
      {
        "midi": 62,
        "time": 63.871,
        "duration": 0.387,
        "velocity": 0.71,
        "hand": "right"
      },
      {
        "midi": 50,
        "time": 64.065,
        "duration": 0.194,
        "velocity": 0.71,
        "hand": "left"
      },
      {
        "midi": 36,
        "time": 64.258,
        "duration": 0.387,
        "velocity": 0.71,
        "hand": "left"
      },
      {
        "midi": 48,
        "time": 64.258,
        "duration": 0.387,
        "velocity": 0.71,
        "hand": "left"
      },
      {
        "midi": 48,
        "time": 64.645,
        "duration": 0.194,
        "velocity": 0.71,
        "hand": "left"
      },
      {
        "midi": 55,
        "time": 64.645,
        "duration": 0.387,
        "velocity": 0.71,
        "hand": "left"
      },
      {
        "midi": 60,
        "time": 64.645,
        "duration": 0.387,
        "velocity": 0.71,
        "hand": "right"
      },
      {
        "midi": 48,
        "time": 64.839,
        "duration": 0.194,
        "velocity": 0.71,
        "hand": "left"
      },
      {
        "midi": 43,
        "time": 65.032,
        "duration": 0.387,
        "velocity": 0.71,
        "hand": "left"
      },
      {
        "midi": 50,
        "time": 65.032,
        "duration": 0.581,
        "velocity": 0.71,
        "hand": "left"
      },
      {
        "midi": 53,
        "time": 65.419,
        "duration": 0.387,
        "velocity": 0.71,
        "hand": "left"
      },
      {
        "midi": 59,
        "time": 65.419,
        "duration": 0.387,
        "velocity": 0.71,
        "hand": "left"
      },
      {
        "midi": 62,
        "time": 65.419,
        "duration": 0.387,
        "velocity": 0.71,
        "hand": "right"
      },
      {
        "midi": 52,
        "time": 65.613,
        "duration": 0.194,
        "velocity": 0.71,
        "hand": "left"
      },
      {
        "midi": 36,
        "time": 65.806,
        "duration": 0.387,
        "velocity": 0.71,
        "hand": "left"
      },
      {
        "midi": 48,
        "time": 65.806,
        "duration": 0.387,
        "velocity": 0.71,
        "hand": "left"
      },
      {
        "midi": 48,
        "time": 66.194,
        "duration": 0.194,
        "velocity": 0.71,
        "hand": "left"
      },
      {
        "midi": 55,
        "time": 66.194,
        "duration": 0.387,
        "velocity": 0.71,
        "hand": "left"
      },
      {
        "midi": 60,
        "time": 66.194,
        "duration": 0.387,
        "velocity": 0.71,
        "hand": "right"
      },
      {
        "midi": 48,
        "time": 66.387,
        "duration": 0.194,
        "velocity": 0.71,
        "hand": "left"
      },
      {
        "midi": 31,
        "time": 66.581,
        "duration": 0.387,
        "velocity": 0.71,
        "hand": "left"
      },
      {
        "midi": 53,
        "time": 66.581,
        "duration": 0.387,
        "velocity": 0.71,
        "hand": "left"
      },
      {
        "midi": 62,
        "time": 66.581,
        "duration": 0.387,
        "velocity": 0.71,
        "hand": "right"
      },
      {
        "midi": 52,
        "time": 67.161,
        "duration": 0.194,
        "velocity": 0.71,
        "hand": "left"
      },
      {
        "midi": 36,
        "time": 67.355,
        "duration": 0.387,
        "velocity": 0.71,
        "hand": "left"
      },
      {
        "midi": 52,
        "time": 67.355,
        "duration": 0.387,
        "velocity": 0.71,
        "hand": "left"
      },
      {
        "midi": 60,
        "time": 67.355,
        "duration": 0.387,
        "velocity": 0.71,
        "hand": "right"
      },
      {
        "midi": 48,
        "time": 67.742,
        "duration": 0.387,
        "velocity": 0.71,
        "hand": "left"
      },
      {
        "midi": 41,
        "time": 68.903,
        "duration": 0.387,
        "velocity": 0.71,
        "hand": "left"
      },
      {
        "midi": 57,
        "time": 68.903,
        "duration": 1.161,
        "velocity": 0.71,
        "hand": "left"
      },
      {
        "midi": 69,
        "time": 68.903,
        "duration": 0.097,
        "velocity": 0.71,
        "hand": "right"
      },
      {
        "midi": 65,
        "time": 69,
        "duration": 0.097,
        "velocity": 0.71,
        "hand": "right"
      },
      {
        "midi": 60,
        "time": 69.194,
        "duration": 0.097,
        "velocity": 0.71,
        "hand": "right"
      },
      {
        "midi": 69,
        "time": 69.29,
        "duration": 0.097,
        "velocity": 0.71,
        "hand": "right"
      },
      {
        "midi": 65,
        "time": 69.387,
        "duration": 0.097,
        "velocity": 0.71,
        "hand": "right"
      },
      {
        "midi": 60,
        "time": 69.581,
        "duration": 0.097,
        "velocity": 0.71,
        "hand": "right"
      },
      {
        "midi": 69,
        "time": 69.677,
        "duration": 0.097,
        "velocity": 0.71,
        "hand": "right"
      },
      {
        "midi": 65,
        "time": 69.774,
        "duration": 0.097,
        "velocity": 0.71,
        "hand": "right"
      },
      {
        "midi": 60,
        "time": 69.968,
        "duration": 0.097,
        "velocity": 0.71,
        "hand": "right"
      },
      {
        "midi": 58,
        "time": 70.065,
        "duration": 0.387,
        "velocity": 0.71,
        "hand": "left"
      },
      {
        "midi": 70,
        "time": 70.065,
        "duration": 0.097,
        "velocity": 0.71,
        "hand": "right"
      },
      {
        "midi": 67,
        "time": 70.161,
        "duration": 0.097,
        "velocity": 0.71,
        "hand": "right"
      },
      {
        "midi": 60,
        "time": 70.355,
        "duration": 0.097,
        "velocity": 0.71,
        "hand": "right"
      },
      {
        "midi": 60,
        "time": 70.452,
        "duration": 0.387,
        "velocity": 0.71,
        "hand": "right"
      },
      {
        "midi": 72,
        "time": 70.452,
        "duration": 0.097,
        "velocity": 0.71,
        "hand": "right"
      },
      {
        "midi": 69,
        "time": 70.548,
        "duration": 0.097,
        "velocity": 0.71,
        "hand": "right"
      },
      {
        "midi": 60,
        "time": 70.742,
        "duration": 0.097,
        "velocity": 0.71,
        "hand": "right"
      },
      {
        "midi": 58,
        "time": 70.839,
        "duration": 0.387,
        "velocity": 0.71,
        "hand": "left"
      },
      {
        "midi": 70,
        "time": 70.839,
        "duration": 0.097,
        "velocity": 0.71,
        "hand": "right"
      },
      {
        "midi": 67,
        "time": 70.935,
        "duration": 0.097,
        "velocity": 0.71,
        "hand": "right"
      },
      {
        "midi": 60,
        "time": 71.129,
        "duration": 0.097,
        "velocity": 0.71,
        "hand": "right"
      },
      {
        "midi": 57,
        "time": 71.226,
        "duration": 0.387,
        "velocity": 0.71,
        "hand": "left"
      },
      {
        "midi": 69,
        "time": 71.226,
        "duration": 0.097,
        "velocity": 0.71,
        "hand": "right"
      },
      {
        "midi": 65,
        "time": 71.323,
        "duration": 0.097,
        "velocity": 0.71,
        "hand": "right"
      },
      {
        "midi": 60,
        "time": 71.516,
        "duration": 0.097,
        "velocity": 0.71,
        "hand": "right"
      },
      {
        "midi": 55,
        "time": 71.613,
        "duration": 0.387,
        "velocity": 0.71,
        "hand": "left"
      },
      {
        "midi": 67,
        "time": 71.613,
        "duration": 0.097,
        "velocity": 0.71,
        "hand": "right"
      },
      {
        "midi": 64,
        "time": 71.71,
        "duration": 0.097,
        "velocity": 0.71,
        "hand": "right"
      },
      {
        "midi": 60,
        "time": 71.903,
        "duration": 0.097,
        "velocity": 0.71,
        "hand": "right"
      },
      {
        "midi": 41,
        "time": 72,
        "duration": 0.387,
        "velocity": 0.71,
        "hand": "left"
      },
      {
        "midi": 53,
        "time": 72,
        "duration": 0.387,
        "velocity": 0.71,
        "hand": "left"
      },
      {
        "midi": 77,
        "time": 72.097,
        "duration": 0.29,
        "velocity": 0.71,
        "hand": "right"
      },
      {
        "midi": 81,
        "time": 72.097,
        "duration": 0.29,
        "velocity": 0.71,
        "hand": "right"
      },
      {
        "midi": 45,
        "time": 72.387,
        "duration": 0.387,
        "velocity": 0.71,
        "hand": "left"
      },
      {
        "midi": 57,
        "time": 72.387,
        "duration": 0.387,
        "velocity": 0.71,
        "hand": "left"
      },
      {
        "midi": 81,
        "time": 72.387,
        "duration": 0.194,
        "velocity": 0.71,
        "hand": "right"
      },
      {
        "midi": 77,
        "time": 72.581,
        "duration": 0.194,
        "velocity": 0.71,
        "hand": "right"
      },
      {
        "midi": 81,
        "time": 72.581,
        "duration": 0.194,
        "velocity": 0.71,
        "hand": "right"
      },
      {
        "midi": 48,
        "time": 72.774,
        "duration": 0.387,
        "velocity": 0.71,
        "hand": "left"
      },
      {
        "midi": 77,
        "time": 72.774,
        "duration": 0.194,
        "velocity": 0.71,
        "hand": "right"
      },
      {
        "midi": 81,
        "time": 72.774,
        "duration": 0.194,
        "velocity": 0.71,
        "hand": "right"
      },
      {
        "midi": 79,
        "time": 72.968,
        "duration": 0.097,
        "velocity": 0.71,
        "hand": "right"
      },
      {
        "midi": 81,
        "time": 73.065,
        "duration": 0.097,
        "velocity": 0.71,
        "hand": "right"
      },
      {
        "midi": 36,
        "time": 73.161,
        "duration": 0.387,
        "velocity": 0.71,
        "hand": "left"
      },
      {
        "midi": 79,
        "time": 73.161,
        "duration": 0.194,
        "velocity": 0.71,
        "hand": "right"
      },
      {
        "midi": 82,
        "time": 73.161,
        "duration": 0.194,
        "velocity": 0.71,
        "hand": "right"
      },
      {
        "midi": 76,
        "time": 73.355,
        "duration": 0.194,
        "velocity": 0.71,
        "hand": "right"
      },
      {
        "midi": 79,
        "time": 73.355,
        "duration": 0.194,
        "velocity": 0.71,
        "hand": "right"
      },
      {
        "midi": 41,
        "time": 73.548,
        "duration": 0.387,
        "velocity": 0.71,
        "hand": "left"
      },
      {
        "midi": 57,
        "time": 73.548,
        "duration": 1.161,
        "velocity": 0.71,
        "hand": "left"
      },
      {
        "midi": 69,
        "time": 73.548,
        "duration": 0.097,
        "velocity": 0.71,
        "hand": "right"
      },
      {
        "midi": 65,
        "time": 73.645,
        "duration": 0.097,
        "velocity": 0.71,
        "hand": "right"
      },
      {
        "midi": 60,
        "time": 73.839,
        "duration": 0.097,
        "velocity": 0.71,
        "hand": "right"
      },
      {
        "midi": 69,
        "time": 73.935,
        "duration": 0.097,
        "velocity": 0.71,
        "hand": "right"
      },
      {
        "midi": 65,
        "time": 74.032,
        "duration": 0.097,
        "velocity": 0.71,
        "hand": "right"
      },
      {
        "midi": 60,
        "time": 74.226,
        "duration": 0.097,
        "velocity": 0.71,
        "hand": "right"
      },
      {
        "midi": 69,
        "time": 74.323,
        "duration": 0.097,
        "velocity": 0.71,
        "hand": "right"
      },
      {
        "midi": 65,
        "time": 74.419,
        "duration": 0.097,
        "velocity": 0.71,
        "hand": "right"
      },
      {
        "midi": 60,
        "time": 74.613,
        "duration": 0.097,
        "velocity": 0.71,
        "hand": "right"
      },
      {
        "midi": 58,
        "time": 74.71,
        "duration": 0.387,
        "velocity": 0.71,
        "hand": "left"
      },
      {
        "midi": 70,
        "time": 74.71,
        "duration": 0.097,
        "velocity": 0.71,
        "hand": "right"
      },
      {
        "midi": 67,
        "time": 74.806,
        "duration": 0.097,
        "velocity": 0.71,
        "hand": "right"
      },
      {
        "midi": 60,
        "time": 75,
        "duration": 0.097,
        "velocity": 0.71,
        "hand": "right"
      },
      {
        "midi": 60,
        "time": 75.097,
        "duration": 0.387,
        "velocity": 0.71,
        "hand": "right"
      },
      {
        "midi": 72,
        "time": 75.097,
        "duration": 0.097,
        "velocity": 0.71,
        "hand": "right"
      },
      {
        "midi": 69,
        "time": 75.194,
        "duration": 0.097,
        "velocity": 0.71,
        "hand": "right"
      },
      {
        "midi": 60,
        "time": 75.387,
        "duration": 0.097,
        "velocity": 0.71,
        "hand": "right"
      },
      {
        "midi": 58,
        "time": 75.484,
        "duration": 0.387,
        "velocity": 0.71,
        "hand": "left"
      },
      {
        "midi": 70,
        "time": 75.484,
        "duration": 0.097,
        "velocity": 0.71,
        "hand": "right"
      },
      {
        "midi": 67,
        "time": 75.581,
        "duration": 0.097,
        "velocity": 0.71,
        "hand": "right"
      },
      {
        "midi": 60,
        "time": 75.774,
        "duration": 0.097,
        "velocity": 0.71,
        "hand": "right"
      },
      {
        "midi": 57,
        "time": 75.871,
        "duration": 0.387,
        "velocity": 0.71,
        "hand": "left"
      },
      {
        "midi": 69,
        "time": 75.871,
        "duration": 0.097,
        "velocity": 0.71,
        "hand": "right"
      },
      {
        "midi": 65,
        "time": 75.968,
        "duration": 0.097,
        "velocity": 0.71,
        "hand": "right"
      },
      {
        "midi": 60,
        "time": 76.161,
        "duration": 0.097,
        "velocity": 0.71,
        "hand": "right"
      },
      {
        "midi": 55,
        "time": 76.258,
        "duration": 0.387,
        "velocity": 0.71,
        "hand": "left"
      },
      {
        "midi": 67,
        "time": 76.258,
        "duration": 0.097,
        "velocity": 0.71,
        "hand": "right"
      },
      {
        "midi": 64,
        "time": 76.355,
        "duration": 0.097,
        "velocity": 0.71,
        "hand": "right"
      },
      {
        "midi": 60,
        "time": 76.548,
        "duration": 0.097,
        "velocity": 0.71,
        "hand": "right"
      },
      {
        "midi": 53,
        "time": 76.645,
        "duration": 0.387,
        "velocity": 0.71,
        "hand": "left"
      },
      {
        "midi": 65,
        "time": 76.645,
        "duration": 0.387,
        "velocity": 0.71,
        "hand": "right"
      },
      {
        "midi": 53,
        "time": 77.419,
        "duration": 0.387,
        "velocity": 0.71,
        "hand": "left"
      },
      {
        "midi": 65,
        "time": 77.419,
        "duration": 0.387,
        "velocity": 0.71,
        "hand": "right"
      },
      {
        "midi": 57,
        "time": 77.806,
        "duration": 0.387,
        "velocity": 0.71,
        "hand": "left"
      },
      {
        "midi": 69,
        "time": 77.806,
        "duration": 0.387,
        "velocity": 0.71,
        "hand": "right"
      },
      {
        "midi": 46,
        "time": 78.194,
        "duration": 0.387,
        "velocity": 0.71,
        "hand": "left"
      },
      {
        "midi": 58,
        "time": 78.581,
        "duration": 0.387,
        "velocity": 0.71,
        "hand": "left"
      },
      {
        "midi": 50,
        "time": 78.968,
        "duration": 0.387,
        "velocity": 0.71,
        "hand": "left"
      },
      {
        "midi": 62,
        "time": 79.355,
        "duration": 0.387,
        "velocity": 0.71,
        "hand": "right"
      },
      {
        "midi": 48,
        "time": 79.742,
        "duration": 0.387,
        "velocity": 0.71,
        "hand": "left"
      },
      {
        "midi": 60,
        "time": 80.129,
        "duration": 0.387,
        "velocity": 0.71,
        "hand": "right"
      },
      {
        "midi": 52,
        "time": 80.516,
        "duration": 0.387,
        "velocity": 0.71,
        "hand": "left"
      },
      {
        "midi": 64,
        "time": 80.903,
        "duration": 0.387,
        "velocity": 0.71,
        "hand": "right"
      },
      {
        "midi": 53,
        "time": 81.29,
        "duration": 0.194,
        "velocity": 0.71,
        "hand": "left"
      },
      {
        "midi": 65,
        "time": 81.29,
        "duration": 0.194,
        "velocity": 0.71,
        "hand": "right"
      },
      {
        "midi": 57,
        "time": 81.677,
        "duration": 0.194,
        "velocity": 0.71,
        "hand": "left"
      },
      {
        "midi": 69,
        "time": 81.677,
        "duration": 0.194,
        "velocity": 0.71,
        "hand": "right"
      },
      {
        "midi": 81,
        "time": 81.677,
        "duration": 0.194,
        "velocity": 0.71,
        "hand": "right"
      },
      {
        "midi": 60,
        "time": 82.065,
        "duration": 0.194,
        "velocity": 0.71,
        "hand": "right"
      },
      {
        "midi": 72,
        "time": 82.065,
        "duration": 0.194,
        "velocity": 0.71,
        "hand": "right"
      },
      {
        "midi": 84,
        "time": 82.065,
        "duration": 0.194,
        "velocity": 0.71,
        "hand": "right"
      },
      {
        "midi": 57,
        "time": 82.452,
        "duration": 0.194,
        "velocity": 0.71,
        "hand": "left"
      },
      {
        "midi": 69,
        "time": 82.452,
        "duration": 0.194,
        "velocity": 0.71,
        "hand": "right"
      },
      {
        "midi": 81,
        "time": 82.452,
        "duration": 0.194,
        "velocity": 0.71,
        "hand": "right"
      },
      {
        "midi": 53,
        "time": 82.839,
        "duration": 0.194,
        "velocity": 0.71,
        "hand": "left"
      },
      {
        "midi": 65,
        "time": 82.839,
        "duration": 0.194,
        "velocity": 0.71,
        "hand": "right"
      },
      {
        "midi": 77,
        "time": 82.839,
        "duration": 0.194,
        "velocity": 0.71,
        "hand": "right"
      },
      {
        "midi": 48,
        "time": 83.226,
        "duration": 0.194,
        "velocity": 0.71,
        "hand": "left"
      },
      {
        "midi": 60,
        "time": 83.226,
        "duration": 0.194,
        "velocity": 0.71,
        "hand": "right"
      },
      {
        "midi": 72,
        "time": 83.226,
        "duration": 0.194,
        "velocity": 0.71,
        "hand": "right"
      },
      {
        "midi": 45,
        "time": 83.613,
        "duration": 0.387,
        "velocity": 0.71,
        "hand": "left"
      },
      {
        "midi": 57,
        "time": 83.613,
        "duration": 0.387,
        "velocity": 0.71,
        "hand": "left"
      },
      {
        "midi": 69,
        "time": 83.613,
        "duration": 0.387,
        "velocity": 0.71,
        "hand": "right"
      },
      {
        "midi": 48,
        "time": 84,
        "duration": 0.387,
        "velocity": 0.71,
        "hand": "left"
      },
      {
        "midi": 60,
        "time": 84,
        "duration": 0.387,
        "velocity": 0.71,
        "hand": "right"
      },
      {
        "midi": 72,
        "time": 84,
        "duration": 0.387,
        "velocity": 0.71,
        "hand": "right"
      },
      {
        "midi": 46,
        "time": 84.387,
        "duration": 0.387,
        "velocity": 0.71,
        "hand": "left"
      },
      {
        "midi": 58,
        "time": 84.774,
        "duration": 0.387,
        "velocity": 0.71,
        "hand": "left"
      },
      {
        "midi": 70,
        "time": 84.774,
        "duration": 0.387,
        "velocity": 0.71,
        "hand": "right"
      },
      {
        "midi": 50,
        "time": 85.161,
        "duration": 0.387,
        "velocity": 0.71,
        "hand": "left"
      },
      {
        "midi": 62,
        "time": 85.548,
        "duration": 0.387,
        "velocity": 0.71,
        "hand": "right"
      },
      {
        "midi": 74,
        "time": 85.548,
        "duration": 0.387,
        "velocity": 0.71,
        "hand": "right"
      },
      {
        "midi": 48,
        "time": 85.935,
        "duration": 1.161,
        "velocity": 0.71,
        "hand": "left"
      },
      {
        "midi": 53,
        "time": 85.935,
        "duration": 0.774,
        "velocity": 0.71,
        "hand": "left"
      },
      {
        "midi": 57,
        "time": 85.935,
        "duration": 0.774,
        "velocity": 0.71,
        "hand": "left"
      },
      {
        "midi": 60,
        "time": 86.323,
        "duration": 0.387,
        "velocity": 0.71,
        "hand": "right"
      },
      {
        "midi": 72,
        "time": 86.323,
        "duration": 0.387,
        "velocity": 0.71,
        "hand": "right"
      },
      {
        "midi": 48,
        "time": 86.71,
        "duration": 0.387,
        "velocity": 0.71,
        "hand": "left"
      },
      {
        "midi": 52,
        "time": 86.71,
        "duration": 0.774,
        "velocity": 0.71,
        "hand": "left"
      },
      {
        "midi": 55,
        "time": 86.71,
        "duration": 0.774,
        "velocity": 0.71,
        "hand": "left"
      },
      {
        "midi": 50,
        "time": 87.097,
        "duration": 0.194,
        "velocity": 0.71,
        "hand": "left"
      },
      {
        "midi": 60,
        "time": 87.097,
        "duration": 0.387,
        "velocity": 0.71,
        "hand": "right"
      },
      {
        "midi": 72,
        "time": 87.097,
        "duration": 0.387,
        "velocity": 0.71,
        "hand": "right"
      },
      {
        "midi": 52,
        "time": 87.29,
        "duration": 0.194,
        "velocity": 0.71,
        "hand": "left"
      },
      {
        "midi": 53,
        "time": 87.484,
        "duration": 0.387,
        "velocity": 0.71,
        "hand": "left"
      },
      {
        "midi": 57,
        "time": 87.484,
        "duration": 0.387,
        "velocity": 0.71,
        "hand": "left"
      },
      {
        "midi": 53,
        "time": 87.871,
        "duration": 0.194,
        "velocity": 0.71,
        "hand": "left"
      },
      {
        "midi": 60,
        "time": 87.871,
        "duration": 0.194,
        "velocity": 0.71,
        "hand": "right"
      },
      {
        "midi": 65,
        "time": 87.871,
        "duration": 0.194,
        "velocity": 0.71,
        "hand": "right"
      },
      {
        "midi": 53,
        "time": 88.065,
        "duration": 0.194,
        "velocity": 0.71,
        "hand": "left"
      },
      {
        "midi": 60,
        "time": 88.065,
        "duration": 0.194,
        "velocity": 0.71,
        "hand": "right"
      },
      {
        "midi": 65,
        "time": 88.065,
        "duration": 0.194,
        "velocity": 0.71,
        "hand": "right"
      },
      {
        "midi": 58,
        "time": 88.258,
        "duration": 0.387,
        "velocity": 0.71,
        "hand": "left"
      },
      {
        "midi": 62,
        "time": 88.258,
        "duration": 0.387,
        "velocity": 0.71,
        "hand": "right"
      },
      {
        "midi": 65,
        "time": 88.258,
        "duration": 0.387,
        "velocity": 0.71,
        "hand": "right"
      },
      {
        "midi": 53,
        "time": 88.645,
        "duration": 0.194,
        "velocity": 0.71,
        "hand": "left"
      },
      {
        "midi": 65,
        "time": 88.645,
        "duration": 0.194,
        "velocity": 0.71,
        "hand": "right"
      },
      {
        "midi": 82,
        "time": 88.645,
        "duration": 0.194,
        "velocity": 0.71,
        "hand": "right"
      },
      {
        "midi": 53,
        "time": 88.839,
        "duration": 0.194,
        "velocity": 0.71,
        "hand": "left"
      },
      {
        "midi": 65,
        "time": 88.839,
        "duration": 0.194,
        "velocity": 0.71,
        "hand": "right"
      },
      {
        "midi": 82,
        "time": 88.839,
        "duration": 0.194,
        "velocity": 0.71,
        "hand": "right"
      },
      {
        "midi": 53,
        "time": 89.032,
        "duration": 0.387,
        "velocity": 0.71,
        "hand": "left"
      },
      {
        "midi": 72,
        "time": 89.032,
        "duration": 0.387,
        "velocity": 0.71,
        "hand": "right"
      },
      {
        "midi": 81,
        "time": 89.032,
        "duration": 0.387,
        "velocity": 0.71,
        "hand": "right"
      },
      {
        "midi": 53,
        "time": 89.419,
        "duration": 0.194,
        "velocity": 0.71,
        "hand": "left"
      },
      {
        "midi": 60,
        "time": 89.419,
        "duration": 0.194,
        "velocity": 0.71,
        "hand": "right"
      },
      {
        "midi": 65,
        "time": 89.419,
        "duration": 0.194,
        "velocity": 0.71,
        "hand": "right"
      },
      {
        "midi": 53,
        "time": 89.613,
        "duration": 0.194,
        "velocity": 0.71,
        "hand": "left"
      },
      {
        "midi": 60,
        "time": 89.613,
        "duration": 0.194,
        "velocity": 0.71,
        "hand": "right"
      },
      {
        "midi": 65,
        "time": 89.613,
        "duration": 0.194,
        "velocity": 0.71,
        "hand": "right"
      },
      {
        "midi": 58,
        "time": 89.806,
        "duration": 0.387,
        "velocity": 0.71,
        "hand": "left"
      },
      {
        "midi": 62,
        "time": 89.806,
        "duration": 0.387,
        "velocity": 0.71,
        "hand": "right"
      },
      {
        "midi": 65,
        "time": 89.806,
        "duration": 0.387,
        "velocity": 0.71,
        "hand": "right"
      },
      {
        "midi": 53,
        "time": 90,
        "duration": 0.194,
        "velocity": 0.71,
        "hand": "left"
      },
      {
        "midi": 53,
        "time": 90.194,
        "duration": 0.194,
        "velocity": 0.71,
        "hand": "left"
      },
      {
        "midi": 65,
        "time": 90.194,
        "duration": 0.194,
        "velocity": 0.71,
        "hand": "right"
      },
      {
        "midi": 82,
        "time": 90.194,
        "duration": 0.194,
        "velocity": 0.71,
        "hand": "right"
      },
      {
        "midi": 53,
        "time": 90.387,
        "duration": 0.194,
        "velocity": 0.71,
        "hand": "left"
      },
      {
        "midi": 65,
        "time": 90.387,
        "duration": 0.194,
        "velocity": 0.71,
        "hand": "right"
      },
      {
        "midi": 82,
        "time": 90.387,
        "duration": 0.194,
        "velocity": 0.71,
        "hand": "right"
      },
      {
        "midi": 53,
        "time": 90.581,
        "duration": 0.387,
        "velocity": 0.71,
        "hand": "left"
      },
      {
        "midi": 72,
        "time": 90.581,
        "duration": 0.387,
        "velocity": 0.71,
        "hand": "right"
      },
      {
        "midi": 81,
        "time": 90.581,
        "duration": 0.387,
        "velocity": 0.71,
        "hand": "right"
      },
      {
        "midi": 53,
        "time": 90.968,
        "duration": 0.387,
        "velocity": 0.71,
        "hand": "left"
      },
      {
        "midi": 57,
        "time": 90.968,
        "duration": 0.194,
        "velocity": 0.71,
        "hand": "left"
      },
      {
        "midi": 65,
        "time": 90.968,
        "duration": 0.194,
        "velocity": 0.71,
        "hand": "right"
      },
      {
        "midi": 53,
        "time": 91.161,
        "duration": 0.194,
        "velocity": 0.71,
        "hand": "left"
      },
      {
        "midi": 60,
        "time": 91.161,
        "duration": 0.194,
        "velocity": 0.71,
        "hand": "right"
      },
      {
        "midi": 65,
        "time": 91.161,
        "duration": 0.194,
        "velocity": 0.71,
        "hand": "right"
      },
      {
        "midi": 58,
        "time": 91.355,
        "duration": 0.387,
        "velocity": 0.71,
        "hand": "left"
      },
      {
        "midi": 62,
        "time": 91.355,
        "duration": 0.387,
        "velocity": 0.71,
        "hand": "right"
      },
      {
        "midi": 65,
        "time": 91.355,
        "duration": 0.387,
        "velocity": 0.71,
        "hand": "right"
      },
      {
        "midi": 53,
        "time": 91.742,
        "duration": 0.194,
        "velocity": 0.71,
        "hand": "left"
      },
      {
        "midi": 65,
        "time": 91.742,
        "duration": 0.194,
        "velocity": 0.71,
        "hand": "right"
      },
      {
        "midi": 82,
        "time": 91.742,
        "duration": 0.194,
        "velocity": 0.71,
        "hand": "right"
      },
      {
        "midi": 53,
        "time": 91.935,
        "duration": 0.194,
        "velocity": 0.71,
        "hand": "left"
      },
      {
        "midi": 65,
        "time": 91.935,
        "duration": 0.194,
        "velocity": 0.71,
        "hand": "right"
      },
      {
        "midi": 82,
        "time": 91.935,
        "duration": 0.194,
        "velocity": 0.71,
        "hand": "right"
      },
      {
        "midi": 53,
        "time": 92.129,
        "duration": 0.387,
        "velocity": 0.71,
        "hand": "left"
      },
      {
        "midi": 72,
        "time": 92.129,
        "duration": 0.387,
        "velocity": 0.71,
        "hand": "right"
      },
      {
        "midi": 81,
        "time": 92.129,
        "duration": 0.387,
        "velocity": 0.71,
        "hand": "right"
      },
      {
        "midi": 53,
        "time": 92.516,
        "duration": 0.194,
        "velocity": 0.71,
        "hand": "left"
      },
      {
        "midi": 60,
        "time": 92.516,
        "duration": 0.194,
        "velocity": 0.71,
        "hand": "right"
      },
      {
        "midi": 65,
        "time": 92.516,
        "duration": 0.194,
        "velocity": 0.71,
        "hand": "right"
      },
      {
        "midi": 53,
        "time": 92.71,
        "duration": 0.194,
        "velocity": 0.71,
        "hand": "left"
      },
      {
        "midi": 60,
        "time": 92.71,
        "duration": 0.194,
        "velocity": 0.71,
        "hand": "right"
      },
      {
        "midi": 65,
        "time": 92.71,
        "duration": 0.194,
        "velocity": 0.71,
        "hand": "right"
      },
      {
        "midi": 58,
        "time": 92.903,
        "duration": 0.387,
        "velocity": 0.71,
        "hand": "left"
      },
      {
        "midi": 62,
        "time": 92.903,
        "duration": 0.387,
        "velocity": 0.71,
        "hand": "right"
      },
      {
        "midi": 65,
        "time": 92.903,
        "duration": 0.387,
        "velocity": 0.71,
        "hand": "right"
      },
      {
        "midi": 53,
        "time": 93.097,
        "duration": 0.194,
        "velocity": 0.71,
        "hand": "left"
      },
      {
        "midi": 53,
        "time": 93.29,
        "duration": 0.194,
        "velocity": 0.71,
        "hand": "left"
      },
      {
        "midi": 65,
        "time": 93.29,
        "duration": 0.194,
        "velocity": 0.71,
        "hand": "right"
      },
      {
        "midi": 82,
        "time": 93.29,
        "duration": 0.194,
        "velocity": 0.71,
        "hand": "right"
      },
      {
        "midi": 53,
        "time": 93.484,
        "duration": 0.194,
        "velocity": 0.71,
        "hand": "left"
      },
      {
        "midi": 65,
        "time": 93.484,
        "duration": 0.194,
        "velocity": 0.71,
        "hand": "right"
      },
      {
        "midi": 82,
        "time": 93.484,
        "duration": 0.194,
        "velocity": 0.71,
        "hand": "right"
      },
      {
        "midi": 53,
        "time": 93.677,
        "duration": 0.194,
        "velocity": 0.71,
        "hand": "left"
      },
      {
        "midi": 72,
        "time": 93.677,
        "duration": 0.194,
        "velocity": 0.71,
        "hand": "right"
      },
      {
        "midi": 81,
        "time": 93.677,
        "duration": 0.194,
        "velocity": 0.71,
        "hand": "right"
      },
      {
        "midi": 53,
        "time": 93.871,
        "duration": 0.194,
        "velocity": 0.71,
        "hand": "left"
      },
      {
        "midi": 69,
        "time": 93.871,
        "duration": 0.194,
        "velocity": 0.71,
        "hand": "right"
      },
      {
        "midi": 72,
        "time": 93.871,
        "duration": 0.194,
        "velocity": 0.71,
        "hand": "right"
      },
      {
        "midi": 53,
        "time": 94.065,
        "duration": 0.194,
        "velocity": 0.71,
        "hand": "left"
      },
      {
        "midi": 70,
        "time": 94.065,
        "duration": 0.194,
        "velocity": 0.71,
        "hand": "right"
      },
      {
        "midi": 74,
        "time": 94.065,
        "duration": 0.194,
        "velocity": 0.71,
        "hand": "right"
      },
      {
        "midi": 53,
        "time": 94.258,
        "duration": 0.194,
        "velocity": 0.71,
        "hand": "left"
      },
      {
        "midi": 70,
        "time": 94.258,
        "duration": 0.194,
        "velocity": 0.71,
        "hand": "right"
      },
      {
        "midi": 74,
        "time": 94.258,
        "duration": 0.194,
        "velocity": 0.71,
        "hand": "right"
      },
      {
        "midi": 53,
        "time": 94.452,
        "duration": 0.194,
        "velocity": 0.71,
        "hand": "left"
      },
      {
        "midi": 69,
        "time": 94.452,
        "duration": 0.194,
        "velocity": 0.71,
        "hand": "right"
      },
      {
        "midi": 72,
        "time": 94.452,
        "duration": 0.194,
        "velocity": 0.71,
        "hand": "right"
      },
      {
        "midi": 53,
        "time": 94.645,
        "duration": 0.194,
        "velocity": 0.71,
        "hand": "left"
      },
      {
        "midi": 69,
        "time": 94.645,
        "duration": 0.194,
        "velocity": 0.71,
        "hand": "right"
      },
      {
        "midi": 72,
        "time": 94.645,
        "duration": 0.194,
        "velocity": 0.71,
        "hand": "right"
      },
      {
        "midi": 53,
        "time": 94.839,
        "duration": 0.194,
        "velocity": 0.71,
        "hand": "left"
      },
      {
        "midi": 70,
        "time": 94.839,
        "duration": 0.194,
        "velocity": 0.71,
        "hand": "right"
      },
      {
        "midi": 74,
        "time": 94.839,
        "duration": 0.194,
        "velocity": 0.71,
        "hand": "right"
      },
      {
        "midi": 53,
        "time": 95.032,
        "duration": 0.194,
        "velocity": 0.71,
        "hand": "left"
      },
      {
        "midi": 70,
        "time": 95.032,
        "duration": 0.194,
        "velocity": 0.71,
        "hand": "right"
      },
      {
        "midi": 74,
        "time": 95.032,
        "duration": 0.194,
        "velocity": 0.71,
        "hand": "right"
      },
      {
        "midi": 53,
        "time": 95.226,
        "duration": 0.194,
        "velocity": 0.71,
        "hand": "left"
      },
      {
        "midi": 69,
        "time": 95.226,
        "duration": 0.194,
        "velocity": 0.71,
        "hand": "right"
      },
      {
        "midi": 72,
        "time": 95.226,
        "duration": 0.194,
        "velocity": 0.71,
        "hand": "right"
      },
      {
        "midi": 53,
        "time": 95.419,
        "duration": 0.194,
        "velocity": 0.71,
        "hand": "left"
      },
      {
        "midi": 81,
        "time": 95.419,
        "duration": 0.194,
        "velocity": 0.71,
        "hand": "right"
      },
      {
        "midi": 84,
        "time": 95.419,
        "duration": 0.194,
        "velocity": 0.71,
        "hand": "right"
      },
      {
        "midi": 53,
        "time": 95.613,
        "duration": 0.194,
        "velocity": 0.71,
        "hand": "left"
      },
      {
        "midi": 65,
        "time": 95.613,
        "duration": 0.194,
        "velocity": 0.71,
        "hand": "right"
      },
      {
        "midi": 86,
        "time": 95.613,
        "duration": 0.194,
        "velocity": 0.71,
        "hand": "right"
      },
      {
        "midi": 53,
        "time": 95.806,
        "duration": 0.194,
        "velocity": 0.71,
        "hand": "left"
      },
      {
        "midi": 65,
        "time": 95.806,
        "duration": 0.194,
        "velocity": 0.71,
        "hand": "right"
      },
      {
        "midi": 86,
        "time": 95.806,
        "duration": 0.194,
        "velocity": 0.71,
        "hand": "right"
      },
      {
        "midi": 53,
        "time": 96,
        "duration": 0.194,
        "velocity": 0.71,
        "hand": "left"
      },
      {
        "midi": 81,
        "time": 96,
        "duration": 0.194,
        "velocity": 0.71,
        "hand": "right"
      },
      {
        "midi": 84,
        "time": 96,
        "duration": 0.194,
        "velocity": 0.71,
        "hand": "right"
      },
      {
        "midi": 53,
        "time": 96.194,
        "duration": 0.194,
        "velocity": 0.71,
        "hand": "left"
      },
      {
        "midi": 81,
        "time": 96.194,
        "duration": 0.194,
        "velocity": 0.71,
        "hand": "right"
      },
      {
        "midi": 84,
        "time": 96.194,
        "duration": 0.194,
        "velocity": 0.71,
        "hand": "right"
      },
      {
        "midi": 53,
        "time": 96.387,
        "duration": 0.194,
        "velocity": 0.71,
        "hand": "left"
      },
      {
        "midi": 65,
        "time": 96.387,
        "duration": 0.194,
        "velocity": 0.71,
        "hand": "right"
      },
      {
        "midi": 86,
        "time": 96.387,
        "duration": 0.194,
        "velocity": 0.71,
        "hand": "right"
      },
      {
        "midi": 53,
        "time": 96.581,
        "duration": 0.194,
        "velocity": 0.71,
        "hand": "left"
      },
      {
        "midi": 65,
        "time": 96.581,
        "duration": 0.194,
        "velocity": 0.71,
        "hand": "right"
      },
      {
        "midi": 86,
        "time": 96.581,
        "duration": 0.194,
        "velocity": 0.71,
        "hand": "right"
      },
      {
        "midi": 53,
        "time": 96.774,
        "duration": 0.387,
        "velocity": 0.71,
        "hand": "left"
      },
      {
        "midi": 81,
        "time": 96.774,
        "duration": 0.387,
        "velocity": 0.71,
        "hand": "right"
      },
      {
        "midi": 84,
        "time": 96.774,
        "duration": 0.387,
        "velocity": 0.71,
        "hand": "right"
      },
      {
        "midi": 53,
        "time": 97.548,
        "duration": 0.387,
        "velocity": 0.71,
        "hand": "left"
      },
      {
        "midi": 65,
        "time": 97.548,
        "duration": 0.387,
        "velocity": 0.71,
        "hand": "right"
      },
      {
        "midi": 77,
        "time": 97.548,
        "duration": 0.387,
        "velocity": 0.71,
        "hand": "right"
      },
      {
        "midi": 57,
        "time": 97.935,
        "duration": 0.387,
        "velocity": 0.71,
        "hand": "left"
      },
      {
        "midi": 69,
        "time": 97.935,
        "duration": 0.387,
        "velocity": 0.71,
        "hand": "right"
      },
      {
        "midi": 81,
        "time": 97.935,
        "duration": 0.387,
        "velocity": 0.71,
        "hand": "right"
      },
      {
        "midi": 46,
        "time": 98.323,
        "duration": 0.387,
        "velocity": 0.71,
        "hand": "left"
      },
      {
        "midi": 58,
        "time": 98.71,
        "duration": 0.387,
        "velocity": 0.71,
        "hand": "left"
      },
      {
        "midi": 70,
        "time": 98.71,
        "duration": 0.387,
        "velocity": 0.71,
        "hand": "right"
      },
      {
        "midi": 50,
        "time": 99.097,
        "duration": 0.387,
        "velocity": 0.71,
        "hand": "left"
      },
      {
        "midi": 62,
        "time": 99.484,
        "duration": 0.387,
        "velocity": 0.71,
        "hand": "right"
      },
      {
        "midi": 74,
        "time": 99.484,
        "duration": 0.387,
        "velocity": 0.71,
        "hand": "right"
      },
      {
        "midi": 48,
        "time": 99.871,
        "duration": 0.387,
        "velocity": 0.71,
        "hand": "left"
      },
      {
        "midi": 60,
        "time": 100.258,
        "duration": 0.387,
        "velocity": 0.71,
        "hand": "right"
      },
      {
        "midi": 72,
        "time": 100.258,
        "duration": 0.387,
        "velocity": 0.71,
        "hand": "right"
      },
      {
        "midi": 52,
        "time": 100.645,
        "duration": 0.387,
        "velocity": 0.71,
        "hand": "left"
      },
      {
        "midi": 64,
        "time": 101.032,
        "duration": 0.387,
        "velocity": 0.71,
        "hand": "right"
      },
      {
        "midi": 76,
        "time": 101.032,
        "duration": 0.387,
        "velocity": 0.71,
        "hand": "right"
      },
      {
        "midi": 53,
        "time": 101.419,
        "duration": 0.194,
        "velocity": 0.71,
        "hand": "left"
      },
      {
        "midi": 65,
        "time": 101.419,
        "duration": 0.194,
        "velocity": 0.71,
        "hand": "right"
      },
      {
        "midi": 77,
        "time": 101.613,
        "duration": 0.194,
        "velocity": 0.71,
        "hand": "right"
      },
      {
        "midi": 57,
        "time": 101.806,
        "duration": 0.194,
        "velocity": 0.71,
        "hand": "left"
      },
      {
        "midi": 69,
        "time": 101.806,
        "duration": 0.194,
        "velocity": 0.71,
        "hand": "right"
      },
      {
        "midi": 81,
        "time": 102,
        "duration": 0.194,
        "velocity": 0.71,
        "hand": "right"
      },
      {
        "midi": 60,
        "time": 102.194,
        "duration": 0.194,
        "velocity": 0.71,
        "hand": "right"
      },
      {
        "midi": 72,
        "time": 102.194,
        "duration": 0.194,
        "velocity": 0.71,
        "hand": "right"
      },
      {
        "midi": 84,
        "time": 102.387,
        "duration": 0.194,
        "velocity": 0.71,
        "hand": "right"
      },
      {
        "midi": 57,
        "time": 102.581,
        "duration": 0.194,
        "velocity": 0.71,
        "hand": "left"
      },
      {
        "midi": 69,
        "time": 102.581,
        "duration": 0.194,
        "velocity": 0.71,
        "hand": "right"
      },
      {
        "midi": 81,
        "time": 102.774,
        "duration": 0.194,
        "velocity": 0.71,
        "hand": "right"
      },
      {
        "midi": 53,
        "time": 102.968,
        "duration": 0.194,
        "velocity": 0.71,
        "hand": "left"
      },
      {
        "midi": 65,
        "time": 102.968,
        "duration": 0.194,
        "velocity": 0.71,
        "hand": "right"
      },
      {
        "midi": 77,
        "time": 103.161,
        "duration": 0.194,
        "velocity": 0.71,
        "hand": "right"
      },
      {
        "midi": 48,
        "time": 103.355,
        "duration": 0.194,
        "velocity": 0.71,
        "hand": "left"
      },
      {
        "midi": 60,
        "time": 103.355,
        "duration": 0.194,
        "velocity": 0.71,
        "hand": "right"
      },
      {
        "midi": 72,
        "time": 103.548,
        "duration": 0.194,
        "velocity": 0.71,
        "hand": "right"
      },
      {
        "midi": 45,
        "time": 103.742,
        "duration": 0.387,
        "velocity": 0.71,
        "hand": "left"
      },
      {
        "midi": 57,
        "time": 103.742,
        "duration": 0.387,
        "velocity": 0.71,
        "hand": "left"
      },
      {
        "midi": 69,
        "time": 103.742,
        "duration": 0.387,
        "velocity": 0.71,
        "hand": "right"
      },
      {
        "midi": 48,
        "time": 104.129,
        "duration": 0.387,
        "velocity": 0.71,
        "hand": "left"
      },
      {
        "midi": 60,
        "time": 104.129,
        "duration": 0.387,
        "velocity": 0.71,
        "hand": "right"
      },
      {
        "midi": 72,
        "time": 104.129,
        "duration": 0.387,
        "velocity": 0.71,
        "hand": "right"
      },
      {
        "midi": 46,
        "time": 104.516,
        "duration": 0.387,
        "velocity": 0.71,
        "hand": "left"
      },
      {
        "midi": 58,
        "time": 104.903,
        "duration": 0.387,
        "velocity": 0.71,
        "hand": "left"
      },
      {
        "midi": 70,
        "time": 104.903,
        "duration": 0.387,
        "velocity": 0.71,
        "hand": "right"
      },
      {
        "midi": 50,
        "time": 105.29,
        "duration": 0.387,
        "velocity": 0.71,
        "hand": "left"
      },
      {
        "midi": 62,
        "time": 105.677,
        "duration": 0.387,
        "velocity": 0.71,
        "hand": "right"
      },
      {
        "midi": 74,
        "time": 105.677,
        "duration": 0.387,
        "velocity": 0.71,
        "hand": "right"
      },
      {
        "midi": 48,
        "time": 106.065,
        "duration": 1.161,
        "velocity": 0.71,
        "hand": "left"
      },
      {
        "midi": 53,
        "time": 106.065,
        "duration": 0.774,
        "velocity": 0.71,
        "hand": "left"
      },
      {
        "midi": 57,
        "time": 106.065,
        "duration": 0.774,
        "velocity": 0.71,
        "hand": "left"
      },
      {
        "midi": 60,
        "time": 106.452,
        "duration": 0.387,
        "velocity": 0.71,
        "hand": "right"
      },
      {
        "midi": 72,
        "time": 106.452,
        "duration": 0.387,
        "velocity": 0.71,
        "hand": "right"
      },
      {
        "midi": 48,
        "time": 106.839,
        "duration": 0.387,
        "velocity": 0.71,
        "hand": "left"
      },
      {
        "midi": 52,
        "time": 106.839,
        "duration": 0.774,
        "velocity": 0.71,
        "hand": "left"
      },
      {
        "midi": 55,
        "time": 106.839,
        "duration": 0.774,
        "velocity": 0.71,
        "hand": "left"
      },
      {
        "midi": 50,
        "time": 107.226,
        "duration": 0.194,
        "velocity": 0.71,
        "hand": "left"
      },
      {
        "midi": 60,
        "time": 107.226,
        "duration": 0.387,
        "velocity": 0.71,
        "hand": "right"
      },
      {
        "midi": 72,
        "time": 107.226,
        "duration": 0.387,
        "velocity": 0.71,
        "hand": "right"
      },
      {
        "midi": 52,
        "time": 107.419,
        "duration": 0.194,
        "velocity": 0.71,
        "hand": "left"
      },
      {
        "midi": 41,
        "time": 107.613,
        "duration": 0.194,
        "velocity": 0.71,
        "hand": "left"
      },
      {
        "midi": 60,
        "time": 107.613,
        "duration": 0.097,
        "velocity": 0.71,
        "hand": "right"
      },
      {
        "midi": 65,
        "time": 107.613,
        "duration": 0.097,
        "velocity": 0.71,
        "hand": "right"
      },
      {
        "midi": 57,
        "time": 107.71,
        "duration": 0.097,
        "velocity": 0.71,
        "hand": "left"
      },
      {
        "midi": 53,
        "time": 107.806,
        "duration": 0.194,
        "velocity": 0.71,
        "hand": "left"
      },
      {
        "midi": 60,
        "time": 107.806,
        "duration": 0.097,
        "velocity": 0.71,
        "hand": "right"
      },
      {
        "midi": 65,
        "time": 107.806,
        "duration": 0.097,
        "velocity": 0.71,
        "hand": "right"
      },
      {
        "midi": 57,
        "time": 107.903,
        "duration": 0.097,
        "velocity": 0.71,
        "hand": "left"
      },
      {
        "midi": 41,
        "time": 108,
        "duration": 0.194,
        "velocity": 0.71,
        "hand": "left"
      },
      {
        "midi": 60,
        "time": 108,
        "duration": 0.097,
        "velocity": 0.71,
        "hand": "right"
      },
      {
        "midi": 65,
        "time": 108,
        "duration": 0.097,
        "velocity": 0.71,
        "hand": "right"
      },
      {
        "midi": 57,
        "time": 108.097,
        "duration": 0.097,
        "velocity": 0.71,
        "hand": "left"
      },
      {
        "midi": 53,
        "time": 108.194,
        "duration": 0.194,
        "velocity": 0.71,
        "hand": "left"
      },
      {
        "midi": 60,
        "time": 108.194,
        "duration": 0.097,
        "velocity": 0.71,
        "hand": "right"
      },
      {
        "midi": 65,
        "time": 108.194,
        "duration": 0.097,
        "velocity": 0.71,
        "hand": "right"
      },
      {
        "midi": 57,
        "time": 108.29,
        "duration": 0.097,
        "velocity": 0.71,
        "hand": "left"
      },
      {
        "midi": 41,
        "time": 108.387,
        "duration": 0.194,
        "velocity": 0.71,
        "hand": "left"
      },
      {
        "midi": 60,
        "time": 108.387,
        "duration": 0.097,
        "velocity": 0.71,
        "hand": "right"
      },
      {
        "midi": 65,
        "time": 108.387,
        "duration": 0.097,
        "velocity": 0.71,
        "hand": "right"
      },
      {
        "midi": 57,
        "time": 108.484,
        "duration": 0.097,
        "velocity": 0.71,
        "hand": "left"
      },
      {
        "midi": 53,
        "time": 108.581,
        "duration": 0.194,
        "velocity": 0.71,
        "hand": "left"
      },
      {
        "midi": 60,
        "time": 108.581,
        "duration": 0.097,
        "velocity": 0.71,
        "hand": "right"
      },
      {
        "midi": 65,
        "time": 108.581,
        "duration": 0.097,
        "velocity": 0.71,
        "hand": "right"
      },
      {
        "midi": 57,
        "time": 108.677,
        "duration": 0.097,
        "velocity": 0.71,
        "hand": "left"
      },
      {
        "midi": 41,
        "time": 108.774,
        "duration": 0.194,
        "velocity": 0.71,
        "hand": "left"
      },
      {
        "midi": 64,
        "time": 108.774,
        "duration": 0.097,
        "velocity": 0.71,
        "hand": "right"
      },
      {
        "midi": 67,
        "time": 108.774,
        "duration": 0.097,
        "velocity": 0.71,
        "hand": "right"
      },
      {
        "midi": 58,
        "time": 108.871,
        "duration": 0.097,
        "velocity": 0.71,
        "hand": "left"
      },
      {
        "midi": 53,
        "time": 108.968,
        "duration": 0.194,
        "velocity": 0.71,
        "hand": "left"
      },
      {
        "midi": 64,
        "time": 108.968,
        "duration": 0.097,
        "velocity": 0.71,
        "hand": "right"
      },
      {
        "midi": 67,
        "time": 108.968,
        "duration": 0.097,
        "velocity": 0.71,
        "hand": "right"
      },
      {
        "midi": 58,
        "time": 109.065,
        "duration": 0.097,
        "velocity": 0.71,
        "hand": "left"
      },
      {
        "midi": 41,
        "time": 109.161,
        "duration": 0.194,
        "velocity": 0.71,
        "hand": "left"
      },
      {
        "midi": 65,
        "time": 109.161,
        "duration": 0.097,
        "velocity": 0.71,
        "hand": "right"
      },
      {
        "midi": 69,
        "time": 109.161,
        "duration": 0.097,
        "velocity": 0.71,
        "hand": "right"
      },
      {
        "midi": 60,
        "time": 109.258,
        "duration": 0.097,
        "velocity": 0.71,
        "hand": "right"
      },
      {
        "midi": 53,
        "time": 109.355,
        "duration": 0.194,
        "velocity": 0.71,
        "hand": "left"
      },
      {
        "midi": 65,
        "time": 109.355,
        "duration": 0.097,
        "velocity": 0.71,
        "hand": "right"
      },
      {
        "midi": 69,
        "time": 109.355,
        "duration": 0.097,
        "velocity": 0.71,
        "hand": "right"
      },
      {
        "midi": 60,
        "time": 109.452,
        "duration": 0.097,
        "velocity": 0.71,
        "hand": "right"
      },
      {
        "midi": 41,
        "time": 109.548,
        "duration": 0.194,
        "velocity": 0.71,
        "hand": "left"
      },
      {
        "midi": 65,
        "time": 109.548,
        "duration": 0.097,
        "velocity": 0.71,
        "hand": "right"
      },
      {
        "midi": 70,
        "time": 109.548,
        "duration": 0.097,
        "velocity": 0.71,
        "hand": "right"
      },
      {
        "midi": 62,
        "time": 109.645,
        "duration": 0.097,
        "velocity": 0.71,
        "hand": "right"
      },
      {
        "midi": 53,
        "time": 109.742,
        "duration": 0.194,
        "velocity": 0.71,
        "hand": "left"
      },
      {
        "midi": 65,
        "time": 109.742,
        "duration": 0.097,
        "velocity": 0.71,
        "hand": "right"
      },
      {
        "midi": 70,
        "time": 109.742,
        "duration": 0.097,
        "velocity": 0.71,
        "hand": "right"
      },
      {
        "midi": 62,
        "time": 109.839,
        "duration": 0.097,
        "velocity": 0.71,
        "hand": "right"
      },
      {
        "midi": 41,
        "time": 109.935,
        "duration": 0.194,
        "velocity": 0.71,
        "hand": "left"
      },
      {
        "midi": 69,
        "time": 109.935,
        "duration": 0.097,
        "velocity": 0.71,
        "hand": "right"
      },
      {
        "midi": 72,
        "time": 109.935,
        "duration": 0.097,
        "velocity": 0.71,
        "hand": "right"
      },
      {
        "midi": 65,
        "time": 110.032,
        "duration": 0.097,
        "velocity": 0.71,
        "hand": "right"
      },
      {
        "midi": 53,
        "time": 110.129,
        "duration": 0.194,
        "velocity": 0.71,
        "hand": "left"
      },
      {
        "midi": 69,
        "time": 110.129,
        "duration": 0.097,
        "velocity": 0.71,
        "hand": "right"
      },
      {
        "midi": 72,
        "time": 110.129,
        "duration": 0.097,
        "velocity": 0.71,
        "hand": "right"
      },
      {
        "midi": 65,
        "time": 110.226,
        "duration": 0.097,
        "velocity": 0.71,
        "hand": "right"
      },
      {
        "midi": 41,
        "time": 110.323,
        "duration": 0.194,
        "velocity": 0.71,
        "hand": "left"
      },
      {
        "midi": 70,
        "time": 110.323,
        "duration": 0.097,
        "velocity": 0.71,
        "hand": "right"
      },
      {
        "midi": 74,
        "time": 110.323,
        "duration": 0.097,
        "velocity": 0.71,
        "hand": "right"
      },
      {
        "midi": 65,
        "time": 110.419,
        "duration": 0.097,
        "velocity": 0.71,
        "hand": "right"
      },
      {
        "midi": 53,
        "time": 110.516,
        "duration": 0.194,
        "velocity": 0.71,
        "hand": "left"
      },
      {
        "midi": 70,
        "time": 110.516,
        "duration": 0.097,
        "velocity": 0.71,
        "hand": "right"
      },
      {
        "midi": 74,
        "time": 110.516,
        "duration": 0.097,
        "velocity": 0.71,
        "hand": "right"
      },
      {
        "midi": 65,
        "time": 110.613,
        "duration": 0.097,
        "velocity": 0.71,
        "hand": "right"
      },
      {
        "midi": 41,
        "time": 110.71,
        "duration": 0.194,
        "velocity": 0.71,
        "hand": "left"
      },
      {
        "midi": 72,
        "time": 110.71,
        "duration": 0.097,
        "velocity": 0.71,
        "hand": "right"
      },
      {
        "midi": 75,
        "time": 110.71,
        "duration": 0.097,
        "velocity": 0.71,
        "hand": "right"
      },
      {
        "midi": 65,
        "time": 110.806,
        "duration": 0.097,
        "velocity": 0.71,
        "hand": "right"
      },
      {
        "midi": 53,
        "time": 110.903,
        "duration": 0.194,
        "velocity": 0.71,
        "hand": "left"
      },
      {
        "midi": 72,
        "time": 110.903,
        "duration": 0.097,
        "velocity": 0.71,
        "hand": "right"
      },
      {
        "midi": 75,
        "time": 110.903,
        "duration": 0.097,
        "velocity": 0.71,
        "hand": "right"
      },
      {
        "midi": 65,
        "time": 111,
        "duration": 0.097,
        "velocity": 0.71,
        "hand": "right"
      },
      {
        "midi": 41,
        "time": 111.097,
        "duration": 0.194,
        "velocity": 0.71,
        "hand": "left"
      },
      {
        "midi": 74,
        "time": 111.097,
        "duration": 0.097,
        "velocity": 0.71,
        "hand": "right"
      },
      {
        "midi": 77,
        "time": 111.097,
        "duration": 0.097,
        "velocity": 0.71,
        "hand": "right"
      },
      {
        "midi": 65,
        "time": 111.194,
        "duration": 0.097,
        "velocity": 0.71,
        "hand": "right"
      },
      {
        "midi": 53,
        "time": 111.29,
        "duration": 0.194,
        "velocity": 0.71,
        "hand": "left"
      },
      {
        "midi": 74,
        "time": 111.29,
        "duration": 0.097,
        "velocity": 0.71,
        "hand": "right"
      },
      {
        "midi": 77,
        "time": 111.29,
        "duration": 0.097,
        "velocity": 0.71,
        "hand": "right"
      },
      {
        "midi": 65,
        "time": 111.387,
        "duration": 0.097,
        "velocity": 0.71,
        "hand": "right"
      },
      {
        "midi": 41,
        "time": 111.484,
        "duration": 0.194,
        "velocity": 0.71,
        "hand": "left"
      },
      {
        "midi": 75,
        "time": 111.484,
        "duration": 0.097,
        "velocity": 0.71,
        "hand": "right"
      },
      {
        "midi": 79,
        "time": 111.484,
        "duration": 0.097,
        "velocity": 0.71,
        "hand": "right"
      },
      {
        "midi": 65,
        "time": 111.581,
        "duration": 0.097,
        "velocity": 0.71,
        "hand": "right"
      },
      {
        "midi": 53,
        "time": 111.677,
        "duration": 0.194,
        "velocity": 0.71,
        "hand": "left"
      },
      {
        "midi": 75,
        "time": 111.677,
        "duration": 0.097,
        "velocity": 0.71,
        "hand": "right"
      },
      {
        "midi": 79,
        "time": 111.677,
        "duration": 0.097,
        "velocity": 0.71,
        "hand": "right"
      },
      {
        "midi": 65,
        "time": 111.774,
        "duration": 0.097,
        "velocity": 0.71,
        "hand": "right"
      },
      {
        "midi": 41,
        "time": 111.871,
        "duration": 0.194,
        "velocity": 0.71,
        "hand": "left"
      },
      {
        "midi": 77,
        "time": 111.871,
        "duration": 0.097,
        "velocity": 0.71,
        "hand": "right"
      },
      {
        "midi": 81,
        "time": 111.871,
        "duration": 0.097,
        "velocity": 0.71,
        "hand": "right"
      },
      {
        "midi": 72,
        "time": 111.968,
        "duration": 0.097,
        "velocity": 0.71,
        "hand": "right"
      },
      {
        "midi": 53,
        "time": 112.065,
        "duration": 0.194,
        "velocity": 0.71,
        "hand": "left"
      },
      {
        "midi": 77,
        "time": 112.065,
        "duration": 0.097,
        "velocity": 0.71,
        "hand": "right"
      },
      {
        "midi": 81,
        "time": 112.065,
        "duration": 0.097,
        "velocity": 0.71,
        "hand": "right"
      },
      {
        "midi": 72,
        "time": 112.161,
        "duration": 0.097,
        "velocity": 0.71,
        "hand": "right"
      },
      {
        "midi": 46,
        "time": 112.258,
        "duration": 0.097,
        "velocity": 0.71,
        "hand": "left"
      },
      {
        "midi": 53,
        "time": 112.258,
        "duration": 0.097,
        "velocity": 0.71,
        "hand": "left"
      },
      {
        "midi": 82,
        "time": 112.258,
        "duration": 0.194,
        "velocity": 0.71,
        "hand": "right"
      },
      {
        "midi": 58,
        "time": 112.355,
        "duration": 0.097,
        "velocity": 0.71,
        "hand": "left"
      },
      {
        "midi": 46,
        "time": 112.452,
        "duration": 0.097,
        "velocity": 0.71,
        "hand": "left"
      },
      {
        "midi": 53,
        "time": 112.452,
        "duration": 0.097,
        "velocity": 0.71,
        "hand": "left"
      },
      {
        "midi": 77,
        "time": 112.452,
        "duration": 0.194,
        "velocity": 0.71,
        "hand": "right"
      },
      {
        "midi": 58,
        "time": 112.548,
        "duration": 0.097,
        "velocity": 0.71,
        "hand": "left"
      },
      {
        "midi": 46,
        "time": 112.645,
        "duration": 0.097,
        "velocity": 0.71,
        "hand": "left"
      },
      {
        "midi": 53,
        "time": 112.645,
        "duration": 0.097,
        "velocity": 0.71,
        "hand": "left"
      },
      {
        "midi": 74,
        "time": 112.645,
        "duration": 0.194,
        "velocity": 0.71,
        "hand": "right"
      },
      {
        "midi": 58,
        "time": 112.742,
        "duration": 0.097,
        "velocity": 0.71,
        "hand": "left"
      },
      {
        "midi": 46,
        "time": 112.839,
        "duration": 0.097,
        "velocity": 0.71,
        "hand": "left"
      },
      {
        "midi": 53,
        "time": 112.839,
        "duration": 0.097,
        "velocity": 0.71,
        "hand": "left"
      },
      {
        "midi": 77,
        "time": 112.839,
        "duration": 0.194,
        "velocity": 0.71,
        "hand": "right"
      },
      {
        "midi": 58,
        "time": 112.935,
        "duration": 0.097,
        "velocity": 0.71,
        "hand": "left"
      },
      {
        "midi": 46,
        "time": 113.032,
        "duration": 0.387,
        "velocity": 0.71,
        "hand": "left"
      },
      {
        "midi": 53,
        "time": 113.032,
        "duration": 0.387,
        "velocity": 0.71,
        "hand": "left"
      },
      {
        "midi": 82,
        "time": 113.032,
        "duration": 0.387,
        "velocity": 0.71,
        "hand": "right"
      }
    ],
    "hard": [
      {
        "midi": 53,
        "time": 0,
        "duration": 0.194,
        "velocity": 0.71,
        "hand": "left"
      },
      {
        "midi": 65,
        "time": 0,
        "duration": 0.194,
        "velocity": 0.71,
        "hand": "right"
      },
      {
        "midi": 48,
        "time": 0.387,
        "duration": 0.194,
        "velocity": 0.71,
        "hand": "left"
      },
      {
        "midi": 60,
        "time": 0.387,
        "duration": 0.194,
        "velocity": 0.71,
        "hand": "right"
      },
      {
        "midi": 53,
        "time": 0.774,
        "duration": 0.194,
        "velocity": 0.71,
        "hand": "left"
      },
      {
        "midi": 65,
        "time": 0.774,
        "duration": 0.194,
        "velocity": 0.71,
        "hand": "right"
      },
      {
        "midi": 48,
        "time": 1.161,
        "duration": 0.194,
        "velocity": 0.71,
        "hand": "left"
      },
      {
        "midi": 60,
        "time": 1.161,
        "duration": 0.194,
        "velocity": 0.71,
        "hand": "right"
      },
      {
        "midi": 53,
        "time": 1.548,
        "duration": 0.387,
        "velocity": 0.71,
        "hand": "left"
      },
      {
        "midi": 65,
        "time": 1.548,
        "duration": 0.387,
        "velocity": 0.71,
        "hand": "right"
      },
      {
        "midi": 48,
        "time": 2.129,
        "duration": 0.097,
        "velocity": 0.71,
        "hand": "left"
      },
      {
        "midi": 60,
        "time": 2.129,
        "duration": 0.097,
        "velocity": 0.71,
        "hand": "right"
      },
      {
        "midi": 50,
        "time": 2.226,
        "duration": 0.097,
        "velocity": 0.71,
        "hand": "left"
      },
      {
        "midi": 52,
        "time": 2.226,
        "duration": 0.097,
        "velocity": 0.71,
        "hand": "left"
      },
      {
        "midi": 62,
        "time": 2.226,
        "duration": 0.097,
        "velocity": 0.71,
        "hand": "right"
      },
      {
        "midi": 64,
        "time": 2.226,
        "duration": 0.097,
        "velocity": 0.71,
        "hand": "right"
      },
      {
        "midi": 53,
        "time": 2.323,
        "duration": 0.387,
        "velocity": 0.71,
        "hand": "left"
      },
      {
        "midi": 65,
        "time": 2.323,
        "duration": 0.387,
        "velocity": 0.71,
        "hand": "right"
      },
      {
        "midi": 55,
        "time": 3.097,
        "duration": 0.194,
        "velocity": 0.71,
        "hand": "left"
      },
      {
        "midi": 67,
        "time": 3.097,
        "duration": 0.194,
        "velocity": 0.71,
        "hand": "right"
      },
      {
        "midi": 48,
        "time": 3.484,
        "duration": 0.194,
        "velocity": 0.71,
        "hand": "left"
      },
      {
        "midi": 60,
        "time": 3.484,
        "duration": 0.194,
        "velocity": 0.71,
        "hand": "right"
      },
      {
        "midi": 55,
        "time": 3.871,
        "duration": 0.194,
        "velocity": 0.71,
        "hand": "left"
      },
      {
        "midi": 67,
        "time": 3.871,
        "duration": 0.194,
        "velocity": 0.71,
        "hand": "right"
      },
      {
        "midi": 48,
        "time": 4.258,
        "duration": 0.194,
        "velocity": 0.71,
        "hand": "left"
      },
      {
        "midi": 60,
        "time": 4.258,
        "duration": 0.194,
        "velocity": 0.71,
        "hand": "right"
      },
      {
        "midi": 55,
        "time": 4.645,
        "duration": 0.387,
        "velocity": 0.71,
        "hand": "left"
      },
      {
        "midi": 67,
        "time": 4.645,
        "duration": 0.387,
        "velocity": 0.71,
        "hand": "right"
      },
      {
        "midi": 48,
        "time": 5.226,
        "duration": 0.048,
        "velocity": 0.71,
        "hand": "left"
      },
      {
        "midi": 50,
        "time": 5.226,
        "duration": 0.048,
        "velocity": 0.71,
        "hand": "left"
      },
      {
        "midi": 60,
        "time": 5.226,
        "duration": 0.048,
        "velocity": 0.71,
        "hand": "right"
      },
      {
        "midi": 62,
        "time": 5.226,
        "duration": 0.048,
        "velocity": 0.71,
        "hand": "right"
      },
      {
        "midi": 52,
        "time": 5.323,
        "duration": 0.048,
        "velocity": 0.71,
        "hand": "left"
      },
      {
        "midi": 53,
        "time": 5.323,
        "duration": 0.048,
        "velocity": 0.71,
        "hand": "left"
      },
      {
        "midi": 64,
        "time": 5.323,
        "duration": 0.048,
        "velocity": 0.71,
        "hand": "right"
      },
      {
        "midi": 65,
        "time": 5.323,
        "duration": 0.048,
        "velocity": 0.71,
        "hand": "right"
      },
      {
        "midi": 55,
        "time": 5.419,
        "duration": 0.387,
        "velocity": 0.71,
        "hand": "left"
      },
      {
        "midi": 67,
        "time": 5.419,
        "duration": 0.387,
        "velocity": 0.71,
        "hand": "right"
      },
      {
        "midi": 57,
        "time": 6.194,
        "duration": 0.194,
        "velocity": 0.71,
        "hand": "left"
      },
      {
        "midi": 69,
        "time": 6.194,
        "duration": 0.194,
        "velocity": 0.71,
        "hand": "right"
      },
      {
        "midi": 53,
        "time": 6.581,
        "duration": 0.194,
        "velocity": 0.71,
        "hand": "left"
      },
      {
        "midi": 65,
        "time": 6.581,
        "duration": 0.194,
        "velocity": 0.71,
        "hand": "right"
      },
      {
        "midi": 57,
        "time": 6.968,
        "duration": 0.194,
        "velocity": 0.71,
        "hand": "left"
      },
      {
        "midi": 69,
        "time": 6.968,
        "duration": 0.194,
        "velocity": 0.71,
        "hand": "right"
      },
      {
        "midi": 53,
        "time": 7.355,
        "duration": 0.194,
        "velocity": 0.71,
        "hand": "left"
      },
      {
        "midi": 65,
        "time": 7.355,
        "duration": 0.194,
        "velocity": 0.71,
        "hand": "right"
      },
      {
        "midi": 57,
        "time": 7.742,
        "duration": 0.387,
        "velocity": 0.71,
        "hand": "left"
      },
      {
        "midi": 69,
        "time": 7.742,
        "duration": 0.387,
        "velocity": 0.71,
        "hand": "right"
      },
      {
        "midi": 53,
        "time": 8.323,
        "duration": 0.097,
        "velocity": 0.71,
        "hand": "left"
      },
      {
        "midi": 65,
        "time": 8.323,
        "duration": 0.097,
        "velocity": 0.71,
        "hand": "right"
      },
      {
        "midi": 55,
        "time": 8.419,
        "duration": 0.097,
        "velocity": 0.71,
        "hand": "left"
      },
      {
        "midi": 67,
        "time": 8.419,
        "duration": 0.097,
        "velocity": 0.71,
        "hand": "right"
      },
      {
        "midi": 57,
        "time": 8.516,
        "duration": 0.387,
        "velocity": 0.71,
        "hand": "left"
      },
      {
        "midi": 69,
        "time": 8.516,
        "duration": 0.387,
        "velocity": 0.71,
        "hand": "right"
      },
      {
        "midi": 58,
        "time": 9.29,
        "duration": 0.194,
        "velocity": 0.71,
        "hand": "left"
      },
      {
        "midi": 70,
        "time": 9.29,
        "duration": 0.194,
        "velocity": 0.71,
        "hand": "right"
      },
      {
        "midi": 55,
        "time": 9.677,
        "duration": 0.194,
        "velocity": 0.71,
        "hand": "left"
      },
      {
        "midi": 67,
        "time": 9.677,
        "duration": 0.194,
        "velocity": 0.71,
        "hand": "right"
      },
      {
        "midi": 58,
        "time": 10.065,
        "duration": 0.194,
        "velocity": 0.71,
        "hand": "left"
      },
      {
        "midi": 70,
        "time": 10.065,
        "duration": 0.194,
        "velocity": 0.71,
        "hand": "right"
      },
      {
        "midi": 55,
        "time": 10.452,
        "duration": 0.194,
        "velocity": 0.71,
        "hand": "left"
      },
      {
        "midi": 67,
        "time": 10.452,
        "duration": 0.194,
        "velocity": 0.71,
        "hand": "right"
      },
      {
        "midi": 58,
        "time": 10.839,
        "duration": 0.387,
        "velocity": 0.71,
        "hand": "left"
      },
      {
        "midi": 70,
        "time": 10.839,
        "duration": 0.387,
        "velocity": 0.71,
        "hand": "right"
      },
      {
        "midi": 67,
        "time": 11.419,
        "duration": 0.097,
        "velocity": 0.71,
        "hand": "right"
      },
      {
        "midi": 69,
        "time": 11.516,
        "duration": 0.097,
        "velocity": 0.71,
        "hand": "right"
      },
      {
        "midi": 55,
        "time": 11.613,
        "duration": 0.387,
        "velocity": 0.71,
        "hand": "left"
      },
      {
        "midi": 58,
        "time": 11.613,
        "duration": 0.387,
        "velocity": 0.71,
        "hand": "left"
      },
      {
        "midi": 70,
        "time": 11.613,
        "duration": 0.387,
        "velocity": 0.71,
        "hand": "right"
      },
      {
        "midi": 70,
        "time": 12.194,
        "duration": 0.048,
        "velocity": 0.71,
        "hand": "right"
      },
      {
        "midi": 72,
        "time": 12.194,
        "duration": 0.048,
        "velocity": 0.71,
        "hand": "right"
      },
      {
        "midi": 74,
        "time": 12.29,
        "duration": 0.048,
        "velocity": 0.71,
        "hand": "right"
      },
      {
        "midi": 76,
        "time": 12.29,
        "duration": 0.048,
        "velocity": 0.71,
        "hand": "right"
      },
      {
        "midi": 52,
        "time": 12.387,
        "duration": 0.387,
        "velocity": 0.71,
        "hand": "left"
      },
      {
        "midi": 55,
        "time": 12.387,
        "duration": 0.387,
        "velocity": 0.71,
        "hand": "left"
      },
      {
        "midi": 58,
        "time": 12.387,
        "duration": 0.387,
        "velocity": 0.71,
        "hand": "left"
      },
      {
        "midi": 77,
        "time": 12.387,
        "duration": 0.048,
        "velocity": 0.71,
        "hand": "right"
      },
      {
        "midi": 79,
        "time": 12.387,
        "duration": 0.387,
        "velocity": 0.71,
        "hand": "right"
      },
      {
        "midi": 76,
        "time": 12.968,
        "duration": 0.048,
        "velocity": 0.71,
        "hand": "right"
      },
      {
        "midi": 77,
        "time": 12.968,
        "duration": 0.048,
        "velocity": 0.71,
        "hand": "right"
      },
      {
        "midi": 79,
        "time": 13.065,
        "duration": 0.048,
        "velocity": 0.71,
        "hand": "right"
      },
      {
        "midi": 81,
        "time": 13.065,
        "duration": 0.048,
        "velocity": 0.71,
        "hand": "right"
      },
      {
        "midi": 48,
        "time": 13.161,
        "duration": 0.387,
        "velocity": 0.71,
        "hand": "left"
      },
      {
        "midi": 52,
        "time": 13.161,
        "duration": 0.387,
        "velocity": 0.71,
        "hand": "left"
      },
      {
        "midi": 55,
        "time": 13.161,
        "duration": 0.387,
        "velocity": 0.71,
        "hand": "left"
      },
      {
        "midi": 82,
        "time": 13.161,
        "duration": 0.194,
        "velocity": 0.71,
        "hand": "right"
      },
      {
        "midi": 81,
        "time": 13.355,
        "duration": 0.097,
        "velocity": 0.71,
        "hand": "right"
      },
      {
        "midi": 79,
        "time": 13.452,
        "duration": 0.097,
        "velocity": 0.71,
        "hand": "right"
      },
      {
        "midi": 77,
        "time": 13.548,
        "duration": 0.097,
        "velocity": 0.71,
        "hand": "right"
      },
      {
        "midi": 76,
        "time": 13.645,
        "duration": 0.097,
        "velocity": 0.71,
        "hand": "right"
      },
      {
        "midi": 74,
        "time": 13.742,
        "duration": 0.097,
        "velocity": 0.71,
        "hand": "right"
      },
      {
        "midi": 72,
        "time": 13.839,
        "duration": 0.097,
        "velocity": 0.71,
        "hand": "right"
      },
      {
        "midi": 48,
        "time": 13.935,
        "duration": 0.387,
        "velocity": 0.71,
        "hand": "left"
      },
      {
        "midi": 52,
        "time": 13.935,
        "duration": 0.387,
        "velocity": 0.71,
        "hand": "left"
      },
      {
        "midi": 55,
        "time": 13.935,
        "duration": 0.387,
        "velocity": 0.71,
        "hand": "left"
      },
      {
        "midi": 70,
        "time": 13.935,
        "duration": 0.194,
        "velocity": 0.71,
        "hand": "right"
      },
      {
        "midi": 69,
        "time": 14.129,
        "duration": 0.097,
        "velocity": 0.71,
        "hand": "right"
      },
      {
        "midi": 67,
        "time": 14.226,
        "duration": 0.097,
        "velocity": 0.71,
        "hand": "right"
      },
      {
        "midi": 65,
        "time": 14.323,
        "duration": 0.097,
        "velocity": 0.71,
        "hand": "right"
      },
      {
        "midi": 64,
        "time": 14.419,
        "duration": 0.097,
        "velocity": 0.71,
        "hand": "right"
      },
      {
        "midi": 62,
        "time": 14.516,
        "duration": 0.097,
        "velocity": 0.71,
        "hand": "right"
      },
      {
        "midi": 60,
        "time": 14.613,
        "duration": 0.097,
        "velocity": 0.71,
        "hand": "right"
      },
      {
        "midi": 48,
        "time": 14.71,
        "duration": 0.774,
        "velocity": 0.71,
        "hand": "left"
      },
      {
        "midi": 52,
        "time": 14.71,
        "duration": 0.774,
        "velocity": 0.71,
        "hand": "left"
      },
      {
        "midi": 55,
        "time": 14.71,
        "duration": 0.774,
        "velocity": 0.71,
        "hand": "left"
      },
      {
        "midi": 58,
        "time": 14.71,
        "duration": 0.774,
        "velocity": 0.71,
        "hand": "left"
      },
      {
        "midi": 53,
        "time": 15.484,
        "duration": 0.387,
        "velocity": 0.71,
        "hand": "left"
      },
      {
        "midi": 53,
        "time": 15.484,
        "duration": 0.194,
        "velocity": 0.71,
        "hand": "left"
      },
      {
        "midi": 65,
        "time": 15.484,
        "duration": 0.194,
        "velocity": 0.71,
        "hand": "right"
      },
      {
        "midi": 48,
        "time": 15.871,
        "duration": 0.387,
        "velocity": 0.71,
        "hand": "left"
      },
      {
        "midi": 48,
        "time": 15.871,
        "duration": 0.194,
        "velocity": 0.71,
        "hand": "left"
      },
      {
        "midi": 60,
        "time": 15.871,
        "duration": 0.194,
        "velocity": 0.71,
        "hand": "right"
      },
      {
        "midi": 53,
        "time": 16.258,
        "duration": 0.387,
        "velocity": 0.71,
        "hand": "left"
      },
      {
        "midi": 53,
        "time": 16.258,
        "duration": 0.194,
        "velocity": 0.71,
        "hand": "left"
      },
      {
        "midi": 65,
        "time": 16.258,
        "duration": 0.194,
        "velocity": 0.71,
        "hand": "right"
      },
      {
        "midi": 48,
        "time": 16.645,
        "duration": 0.387,
        "velocity": 0.71,
        "hand": "left"
      },
      {
        "midi": 48,
        "time": 16.645,
        "duration": 0.194,
        "velocity": 0.71,
        "hand": "left"
      },
      {
        "midi": 60,
        "time": 16.645,
        "duration": 0.194,
        "velocity": 0.71,
        "hand": "right"
      },
      {
        "midi": 53,
        "time": 17.032,
        "duration": 0.387,
        "velocity": 0.71,
        "hand": "left"
      },
      {
        "midi": 65,
        "time": 17.032,
        "duration": 0.387,
        "velocity": 0.71,
        "hand": "right"
      },
      {
        "midi": 48,
        "time": 17.419,
        "duration": 0.387,
        "velocity": 0.71,
        "hand": "left"
      },
      {
        "midi": 48,
        "time": 17.613,
        "duration": 0.097,
        "velocity": 0.71,
        "hand": "left"
      },
      {
        "midi": 60,
        "time": 17.613,
        "duration": 0.097,
        "velocity": 0.71,
        "hand": "right"
      },
      {
        "midi": 50,
        "time": 17.71,
        "duration": 0.097,
        "velocity": 0.71,
        "hand": "left"
      },
      {
        "midi": 52,
        "time": 17.71,
        "duration": 0.097,
        "velocity": 0.71,
        "hand": "left"
      },
      {
        "midi": 62,
        "time": 17.71,
        "duration": 0.097,
        "velocity": 0.71,
        "hand": "right"
      },
      {
        "midi": 64,
        "time": 17.71,
        "duration": 0.097,
        "velocity": 0.71,
        "hand": "right"
      },
      {
        "midi": 53,
        "time": 17.806,
        "duration": 0.387,
        "velocity": 0.71,
        "hand": "left"
      },
      {
        "midi": 65,
        "time": 17.806,
        "duration": 0.387,
        "velocity": 0.71,
        "hand": "right"
      },
      {
        "midi": 55,
        "time": 18.581,
        "duration": 0.387,
        "velocity": 0.71,
        "hand": "left"
      },
      {
        "midi": 55,
        "time": 18.581,
        "duration": 0.194,
        "velocity": 0.71,
        "hand": "left"
      },
      {
        "midi": 67,
        "time": 18.581,
        "duration": 0.194,
        "velocity": 0.71,
        "hand": "right"
      },
      {
        "midi": 48,
        "time": 18.968,
        "duration": 0.387,
        "velocity": 0.71,
        "hand": "left"
      },
      {
        "midi": 48,
        "time": 18.968,
        "duration": 0.194,
        "velocity": 0.71,
        "hand": "left"
      },
      {
        "midi": 60,
        "time": 18.968,
        "duration": 0.194,
        "velocity": 0.71,
        "hand": "right"
      },
      {
        "midi": 55,
        "time": 19.355,
        "duration": 0.387,
        "velocity": 0.71,
        "hand": "left"
      },
      {
        "midi": 55,
        "time": 19.355,
        "duration": 0.194,
        "velocity": 0.71,
        "hand": "left"
      },
      {
        "midi": 67,
        "time": 19.355,
        "duration": 0.194,
        "velocity": 0.71,
        "hand": "right"
      },
      {
        "midi": 48,
        "time": 19.742,
        "duration": 0.387,
        "velocity": 0.71,
        "hand": "left"
      },
      {
        "midi": 48,
        "time": 19.742,
        "duration": 0.194,
        "velocity": 0.71,
        "hand": "left"
      },
      {
        "midi": 60,
        "time": 19.742,
        "duration": 0.194,
        "velocity": 0.71,
        "hand": "right"
      },
      {
        "midi": 55,
        "time": 20.129,
        "duration": 0.387,
        "velocity": 0.71,
        "hand": "left"
      },
      {
        "midi": 67,
        "time": 20.129,
        "duration": 0.387,
        "velocity": 0.71,
        "hand": "right"
      },
      {
        "midi": 48,
        "time": 20.516,
        "duration": 0.387,
        "velocity": 0.71,
        "hand": "left"
      },
      {
        "midi": 48,
        "time": 20.71,
        "duration": 0.048,
        "velocity": 0.71,
        "hand": "left"
      },
      {
        "midi": 50,
        "time": 20.71,
        "duration": 0.048,
        "velocity": 0.71,
        "hand": "left"
      },
      {
        "midi": 60,
        "time": 20.71,
        "duration": 0.048,
        "velocity": 0.71,
        "hand": "right"
      },
      {
        "midi": 62,
        "time": 20.71,
        "duration": 0.048,
        "velocity": 0.71,
        "hand": "right"
      },
      {
        "midi": 52,
        "time": 20.806,
        "duration": 0.048,
        "velocity": 0.71,
        "hand": "left"
      },
      {
        "midi": 53,
        "time": 20.806,
        "duration": 0.048,
        "velocity": 0.71,
        "hand": "left"
      },
      {
        "midi": 64,
        "time": 20.806,
        "duration": 0.048,
        "velocity": 0.71,
        "hand": "right"
      },
      {
        "midi": 65,
        "time": 20.806,
        "duration": 0.048,
        "velocity": 0.71,
        "hand": "right"
      },
      {
        "midi": 55,
        "time": 20.903,
        "duration": 0.387,
        "velocity": 0.71,
        "hand": "left"
      },
      {
        "midi": 67,
        "time": 20.903,
        "duration": 0.387,
        "velocity": 0.71,
        "hand": "right"
      },
      {
        "midi": 57,
        "time": 21.677,
        "duration": 0.387,
        "velocity": 0.71,
        "hand": "left"
      },
      {
        "midi": 57,
        "time": 21.677,
        "duration": 0.194,
        "velocity": 0.71,
        "hand": "left"
      },
      {
        "midi": 69,
        "time": 21.677,
        "duration": 0.194,
        "velocity": 0.71,
        "hand": "right"
      },
      {
        "midi": 53,
        "time": 22.065,
        "duration": 0.387,
        "velocity": 0.71,
        "hand": "left"
      },
      {
        "midi": 53,
        "time": 22.065,
        "duration": 0.194,
        "velocity": 0.71,
        "hand": "left"
      },
      {
        "midi": 65,
        "time": 22.065,
        "duration": 0.194,
        "velocity": 0.71,
        "hand": "right"
      },
      {
        "midi": 57,
        "time": 22.452,
        "duration": 0.387,
        "velocity": 0.71,
        "hand": "left"
      },
      {
        "midi": 57,
        "time": 22.452,
        "duration": 0.194,
        "velocity": 0.71,
        "hand": "left"
      },
      {
        "midi": 69,
        "time": 22.452,
        "duration": 0.194,
        "velocity": 0.71,
        "hand": "right"
      },
      {
        "midi": 53,
        "time": 22.839,
        "duration": 0.387,
        "velocity": 0.71,
        "hand": "left"
      },
      {
        "midi": 53,
        "time": 22.839,
        "duration": 0.194,
        "velocity": 0.71,
        "hand": "left"
      },
      {
        "midi": 65,
        "time": 22.839,
        "duration": 0.194,
        "velocity": 0.71,
        "hand": "right"
      },
      {
        "midi": 57,
        "time": 23.226,
        "duration": 0.387,
        "velocity": 0.71,
        "hand": "left"
      },
      {
        "midi": 69,
        "time": 23.226,
        "duration": 0.387,
        "velocity": 0.71,
        "hand": "right"
      },
      {
        "midi": 53,
        "time": 23.613,
        "duration": 0.387,
        "velocity": 0.71,
        "hand": "left"
      },
      {
        "midi": 53,
        "time": 23.806,
        "duration": 0.097,
        "velocity": 0.71,
        "hand": "left"
      },
      {
        "midi": 65,
        "time": 23.806,
        "duration": 0.097,
        "velocity": 0.71,
        "hand": "right"
      },
      {
        "midi": 55,
        "time": 23.903,
        "duration": 0.097,
        "velocity": 0.71,
        "hand": "left"
      },
      {
        "midi": 67,
        "time": 23.903,
        "duration": 0.097,
        "velocity": 0.71,
        "hand": "right"
      },
      {
        "midi": 57,
        "time": 24,
        "duration": 0.387,
        "velocity": 0.71,
        "hand": "left"
      },
      {
        "midi": 69,
        "time": 24,
        "duration": 0.387,
        "velocity": 0.71,
        "hand": "right"
      },
      {
        "midi": 58,
        "time": 24.774,
        "duration": 0.387,
        "velocity": 0.71,
        "hand": "left"
      },
      {
        "midi": 58,
        "time": 24.774,
        "duration": 0.194,
        "velocity": 0.71,
        "hand": "left"
      },
      {
        "midi": 70,
        "time": 24.774,
        "duration": 0.194,
        "velocity": 0.71,
        "hand": "right"
      },
      {
        "midi": 55,
        "time": 25.161,
        "duration": 0.387,
        "velocity": 0.71,
        "hand": "left"
      },
      {
        "midi": 55,
        "time": 25.161,
        "duration": 0.194,
        "velocity": 0.71,
        "hand": "left"
      },
      {
        "midi": 67,
        "time": 25.161,
        "duration": 0.194,
        "velocity": 0.71,
        "hand": "right"
      },
      {
        "midi": 58,
        "time": 25.548,
        "duration": 0.387,
        "velocity": 0.71,
        "hand": "left"
      },
      {
        "midi": 58,
        "time": 25.548,
        "duration": 0.194,
        "velocity": 0.71,
        "hand": "left"
      },
      {
        "midi": 70,
        "time": 25.548,
        "duration": 0.194,
        "velocity": 0.71,
        "hand": "right"
      },
      {
        "midi": 55,
        "time": 25.935,
        "duration": 0.387,
        "velocity": 0.71,
        "hand": "left"
      },
      {
        "midi": 55,
        "time": 25.935,
        "duration": 0.194,
        "velocity": 0.71,
        "hand": "left"
      },
      {
        "midi": 67,
        "time": 25.935,
        "duration": 0.194,
        "velocity": 0.71,
        "hand": "right"
      },
      {
        "midi": 58,
        "time": 26.323,
        "duration": 0.387,
        "velocity": 0.71,
        "hand": "left"
      },
      {
        "midi": 70,
        "time": 26.323,
        "duration": 0.387,
        "velocity": 0.71,
        "hand": "right"
      },
      {
        "midi": 55,
        "time": 26.71,
        "duration": 0.387,
        "velocity": 0.71,
        "hand": "left"
      },
      {
        "midi": 76,
        "time": 26.903,
        "duration": 0.048,
        "velocity": 0.71,
        "hand": "right"
      },
      {
        "midi": 77,
        "time": 26.903,
        "duration": 0.048,
        "velocity": 0.71,
        "hand": "right"
      },
      {
        "midi": 79,
        "time": 27,
        "duration": 0.048,
        "velocity": 0.71,
        "hand": "right"
      },
      {
        "midi": 81,
        "time": 27,
        "duration": 0.048,
        "velocity": 0.71,
        "hand": "right"
      },
      {
        "midi": 48,
        "time": 27.097,
        "duration": 0.387,
        "velocity": 0.71,
        "hand": "left"
      },
      {
        "midi": 52,
        "time": 27.097,
        "duration": 0.387,
        "velocity": 0.71,
        "hand": "left"
      },
      {
        "midi": 55,
        "time": 27.097,
        "duration": 0.387,
        "velocity": 0.71,
        "hand": "left"
      },
      {
        "midi": 58,
        "time": 27.097,
        "duration": 1.935,
        "velocity": 0.71,
        "hand": "left"
      },
      {
        "midi": 82,
        "time": 27.097,
        "duration": 0.194,
        "velocity": 0.71,
        "hand": "right"
      },
      {
        "midi": 81,
        "time": 27.29,
        "duration": 0.097,
        "velocity": 0.71,
        "hand": "right"
      },
      {
        "midi": 79,
        "time": 27.387,
        "duration": 0.097,
        "velocity": 0.71,
        "hand": "right"
      },
      {
        "midi": 77,
        "time": 27.484,
        "duration": 0.097,
        "velocity": 0.71,
        "hand": "right"
      },
      {
        "midi": 76,
        "time": 27.581,
        "duration": 0.097,
        "velocity": 0.71,
        "hand": "right"
      },
      {
        "midi": 74,
        "time": 27.677,
        "duration": 0.097,
        "velocity": 0.71,
        "hand": "right"
      },
      {
        "midi": 72,
        "time": 27.774,
        "duration": 0.097,
        "velocity": 0.71,
        "hand": "right"
      },
      {
        "midi": 48,
        "time": 27.871,
        "duration": 0.387,
        "velocity": 0.71,
        "hand": "left"
      },
      {
        "midi": 52,
        "time": 27.871,
        "duration": 0.387,
        "velocity": 0.71,
        "hand": "left"
      },
      {
        "midi": 55,
        "time": 27.871,
        "duration": 0.387,
        "velocity": 0.71,
        "hand": "left"
      },
      {
        "midi": 70,
        "time": 27.871,
        "duration": 0.194,
        "velocity": 0.71,
        "hand": "right"
      },
      {
        "midi": 69,
        "time": 28.065,
        "duration": 0.097,
        "velocity": 0.71,
        "hand": "right"
      },
      {
        "midi": 67,
        "time": 28.161,
        "duration": 0.097,
        "velocity": 0.71,
        "hand": "right"
      },
      {
        "midi": 65,
        "time": 28.258,
        "duration": 0.097,
        "velocity": 0.71,
        "hand": "right"
      },
      {
        "midi": 64,
        "time": 28.355,
        "duration": 0.097,
        "velocity": 0.71,
        "hand": "right"
      },
      {
        "midi": 62,
        "time": 28.452,
        "duration": 0.097,
        "velocity": 0.71,
        "hand": "right"
      },
      {
        "midi": 60,
        "time": 28.548,
        "duration": 0.097,
        "velocity": 0.71,
        "hand": "right"
      },
      {
        "midi": 48,
        "time": 28.645,
        "duration": 0.387,
        "velocity": 0.71,
        "hand": "left"
      },
      {
        "midi": 52,
        "time": 28.645,
        "duration": 0.387,
        "velocity": 0.71,
        "hand": "left"
      },
      {
        "midi": 55,
        "time": 28.645,
        "duration": 0.387,
        "velocity": 0.71,
        "hand": "left"
      },
      {
        "midi": 58,
        "time": 28.645,
        "duration": 0.387,
        "velocity": 0.71,
        "hand": "left"
      },
      {
        "midi": 41,
        "time": 30.194,
        "duration": 0.387,
        "velocity": 0.71,
        "hand": "left"
      },
      {
        "midi": 53,
        "time": 30.194,
        "duration": 0.387,
        "velocity": 0.71,
        "hand": "left"
      },
      {
        "midi": 57,
        "time": 30.194,
        "duration": 1.161,
        "velocity": 0.71,
        "hand": "left"
      },
      {
        "midi": 69,
        "time": 30.194,
        "duration": 0.097,
        "velocity": 0.71,
        "hand": "right"
      },
      {
        "midi": 65,
        "time": 30.29,
        "duration": 0.097,
        "velocity": 0.71,
        "hand": "right"
      },
      {
        "midi": 60,
        "time": 30.484,
        "duration": 0.097,
        "velocity": 0.71,
        "hand": "right"
      },
      {
        "midi": 69,
        "time": 30.581,
        "duration": 0.097,
        "velocity": 0.71,
        "hand": "right"
      },
      {
        "midi": 65,
        "time": 30.677,
        "duration": 0.097,
        "velocity": 0.71,
        "hand": "right"
      },
      {
        "midi": 60,
        "time": 30.871,
        "duration": 0.097,
        "velocity": 0.71,
        "hand": "right"
      },
      {
        "midi": 69,
        "time": 30.968,
        "duration": 0.097,
        "velocity": 0.71,
        "hand": "right"
      },
      {
        "midi": 65,
        "time": 31.065,
        "duration": 0.097,
        "velocity": 0.71,
        "hand": "right"
      },
      {
        "midi": 60,
        "time": 31.258,
        "duration": 0.097,
        "velocity": 0.71,
        "hand": "right"
      },
      {
        "midi": 58,
        "time": 31.355,
        "duration": 0.387,
        "velocity": 0.71,
        "hand": "left"
      },
      {
        "midi": 70,
        "time": 31.355,
        "duration": 0.097,
        "velocity": 0.71,
        "hand": "right"
      },
      {
        "midi": 67,
        "time": 31.452,
        "duration": 0.097,
        "velocity": 0.71,
        "hand": "right"
      },
      {
        "midi": 60,
        "time": 31.645,
        "duration": 0.097,
        "velocity": 0.71,
        "hand": "right"
      },
      {
        "midi": 60,
        "time": 31.742,
        "duration": 0.387,
        "velocity": 0.71,
        "hand": "right"
      },
      {
        "midi": 72,
        "time": 31.742,
        "duration": 0.097,
        "velocity": 0.71,
        "hand": "right"
      },
      {
        "midi": 69,
        "time": 31.839,
        "duration": 0.097,
        "velocity": 0.71,
        "hand": "right"
      },
      {
        "midi": 60,
        "time": 32.032,
        "duration": 0.097,
        "velocity": 0.71,
        "hand": "right"
      },
      {
        "midi": 58,
        "time": 32.129,
        "duration": 0.387,
        "velocity": 0.71,
        "hand": "left"
      },
      {
        "midi": 70,
        "time": 32.129,
        "duration": 0.097,
        "velocity": 0.71,
        "hand": "right"
      },
      {
        "midi": 67,
        "time": 32.226,
        "duration": 0.097,
        "velocity": 0.71,
        "hand": "right"
      },
      {
        "midi": 60,
        "time": 32.419,
        "duration": 0.097,
        "velocity": 0.71,
        "hand": "right"
      },
      {
        "midi": 57,
        "time": 32.516,
        "duration": 0.387,
        "velocity": 0.71,
        "hand": "left"
      },
      {
        "midi": 69,
        "time": 32.516,
        "duration": 0.097,
        "velocity": 0.71,
        "hand": "right"
      },
      {
        "midi": 65,
        "time": 32.613,
        "duration": 0.097,
        "velocity": 0.71,
        "hand": "right"
      },
      {
        "midi": 60,
        "time": 32.806,
        "duration": 0.097,
        "velocity": 0.71,
        "hand": "right"
      },
      {
        "midi": 55,
        "time": 32.903,
        "duration": 0.387,
        "velocity": 0.71,
        "hand": "left"
      },
      {
        "midi": 67,
        "time": 32.903,
        "duration": 0.097,
        "velocity": 0.71,
        "hand": "right"
      },
      {
        "midi": 64,
        "time": 33,
        "duration": 0.097,
        "velocity": 0.71,
        "hand": "right"
      },
      {
        "midi": 60,
        "time": 33.194,
        "duration": 0.097,
        "velocity": 0.71,
        "hand": "right"
      },
      {
        "midi": 41,
        "time": 33.29,
        "duration": 0.387,
        "velocity": 0.71,
        "hand": "left"
      },
      {
        "midi": 53,
        "time": 33.29,
        "duration": 0.387,
        "velocity": 0.71,
        "hand": "left"
      },
      {
        "midi": 79,
        "time": 33.29,
        "duration": 0.048,
        "velocity": 0.71,
        "hand": "right"
      },
      {
        "midi": 81,
        "time": 33.29,
        "duration": 0.048,
        "velocity": 0.71,
        "hand": "right"
      },
      {
        "midi": 82,
        "time": 33.29,
        "duration": 0.048,
        "velocity": 0.71,
        "hand": "right"
      },
      {
        "midi": 84,
        "time": 33.29,
        "duration": 0.048,
        "velocity": 0.71,
        "hand": "right"
      },
      {
        "midi": 77,
        "time": 33.387,
        "duration": 0.29,
        "velocity": 0.71,
        "hand": "right"
      },
      {
        "midi": 81,
        "time": 33.387,
        "duration": 0.29,
        "velocity": 0.71,
        "hand": "right"
      },
      {
        "midi": 45,
        "time": 33.677,
        "duration": 0.387,
        "velocity": 0.71,
        "hand": "left"
      },
      {
        "midi": 53,
        "time": 33.677,
        "duration": 0.387,
        "velocity": 0.71,
        "hand": "left"
      },
      {
        "midi": 57,
        "time": 33.677,
        "duration": 0.387,
        "velocity": 0.71,
        "hand": "left"
      },
      {
        "midi": 77,
        "time": 33.677,
        "duration": 0.194,
        "velocity": 0.71,
        "hand": "right"
      },
      {
        "midi": 81,
        "time": 33.677,
        "duration": 0.194,
        "velocity": 0.71,
        "hand": "right"
      },
      {
        "midi": 77,
        "time": 33.871,
        "duration": 0.194,
        "velocity": 0.71,
        "hand": "right"
      },
      {
        "midi": 81,
        "time": 33.871,
        "duration": 0.194,
        "velocity": 0.71,
        "hand": "right"
      },
      {
        "midi": 48,
        "time": 34.065,
        "duration": 0.387,
        "velocity": 0.71,
        "hand": "left"
      },
      {
        "midi": 60,
        "time": 34.065,
        "duration": 0.387,
        "velocity": 0.71,
        "hand": "right"
      },
      {
        "midi": 77,
        "time": 34.065,
        "duration": 0.194,
        "velocity": 0.71,
        "hand": "right"
      },
      {
        "midi": 81,
        "time": 34.065,
        "duration": 0.194,
        "velocity": 0.71,
        "hand": "right"
      },
      {
        "midi": 79,
        "time": 34.258,
        "duration": 0.097,
        "velocity": 0.71,
        "hand": "right"
      },
      {
        "midi": 81,
        "time": 34.355,
        "duration": 0.097,
        "velocity": 0.71,
        "hand": "right"
      },
      {
        "midi": 36,
        "time": 34.452,
        "duration": 0.387,
        "velocity": 0.71,
        "hand": "left"
      },
      {
        "midi": 48,
        "time": 34.452,
        "duration": 0.387,
        "velocity": 0.71,
        "hand": "left"
      },
      {
        "midi": 79,
        "time": 34.452,
        "duration": 0.194,
        "velocity": 0.71,
        "hand": "right"
      },
      {
        "midi": 82,
        "time": 34.452,
        "duration": 0.194,
        "velocity": 0.71,
        "hand": "right"
      },
      {
        "midi": 76,
        "time": 34.645,
        "duration": 0.194,
        "velocity": 0.71,
        "hand": "right"
      },
      {
        "midi": 79,
        "time": 34.645,
        "duration": 0.194,
        "velocity": 0.71,
        "hand": "right"
      },
      {
        "midi": 41,
        "time": 34.839,
        "duration": 0.387,
        "velocity": 0.71,
        "hand": "left"
      },
      {
        "midi": 53,
        "time": 34.839,
        "duration": 0.387,
        "velocity": 0.71,
        "hand": "left"
      },
      {
        "midi": 57,
        "time": 34.839,
        "duration": 1.161,
        "velocity": 0.71,
        "hand": "left"
      },
      {
        "midi": 69,
        "time": 34.839,
        "duration": 0.097,
        "velocity": 0.71,
        "hand": "right"
      },
      {
        "midi": 65,
        "time": 34.935,
        "duration": 0.097,
        "velocity": 0.71,
        "hand": "right"
      },
      {
        "midi": 60,
        "time": 35.129,
        "duration": 0.097,
        "velocity": 0.71,
        "hand": "right"
      },
      {
        "midi": 69,
        "time": 35.226,
        "duration": 0.097,
        "velocity": 0.71,
        "hand": "right"
      },
      {
        "midi": 65,
        "time": 35.323,
        "duration": 0.097,
        "velocity": 0.71,
        "hand": "right"
      },
      {
        "midi": 60,
        "time": 35.516,
        "duration": 0.097,
        "velocity": 0.71,
        "hand": "right"
      },
      {
        "midi": 69,
        "time": 35.613,
        "duration": 0.097,
        "velocity": 0.71,
        "hand": "right"
      },
      {
        "midi": 65,
        "time": 35.71,
        "duration": 0.097,
        "velocity": 0.71,
        "hand": "right"
      },
      {
        "midi": 60,
        "time": 35.903,
        "duration": 0.097,
        "velocity": 0.71,
        "hand": "right"
      },
      {
        "midi": 58,
        "time": 36,
        "duration": 0.387,
        "velocity": 0.71,
        "hand": "left"
      },
      {
        "midi": 70,
        "time": 36,
        "duration": 0.097,
        "velocity": 0.71,
        "hand": "right"
      },
      {
        "midi": 67,
        "time": 36.097,
        "duration": 0.097,
        "velocity": 0.71,
        "hand": "right"
      },
      {
        "midi": 60,
        "time": 36.29,
        "duration": 0.097,
        "velocity": 0.71,
        "hand": "right"
      },
      {
        "midi": 60,
        "time": 36.387,
        "duration": 0.387,
        "velocity": 0.71,
        "hand": "right"
      },
      {
        "midi": 72,
        "time": 36.387,
        "duration": 0.097,
        "velocity": 0.71,
        "hand": "right"
      },
      {
        "midi": 69,
        "time": 36.484,
        "duration": 0.097,
        "velocity": 0.71,
        "hand": "right"
      },
      {
        "midi": 60,
        "time": 36.677,
        "duration": 0.097,
        "velocity": 0.71,
        "hand": "right"
      },
      {
        "midi": 58,
        "time": 36.774,
        "duration": 0.387,
        "velocity": 0.71,
        "hand": "left"
      },
      {
        "midi": 70,
        "time": 36.774,
        "duration": 0.097,
        "velocity": 0.71,
        "hand": "right"
      },
      {
        "midi": 67,
        "time": 36.871,
        "duration": 0.097,
        "velocity": 0.71,
        "hand": "right"
      },
      {
        "midi": 60,
        "time": 37.065,
        "duration": 0.097,
        "velocity": 0.71,
        "hand": "right"
      },
      {
        "midi": 57,
        "time": 37.161,
        "duration": 0.387,
        "velocity": 0.71,
        "hand": "left"
      },
      {
        "midi": 69,
        "time": 37.161,
        "duration": 0.097,
        "velocity": 0.71,
        "hand": "right"
      },
      {
        "midi": 65,
        "time": 37.258,
        "duration": 0.097,
        "velocity": 0.71,
        "hand": "right"
      },
      {
        "midi": 60,
        "time": 37.452,
        "duration": 0.097,
        "velocity": 0.71,
        "hand": "right"
      },
      {
        "midi": 48,
        "time": 37.548,
        "duration": 0.387,
        "velocity": 0.71,
        "hand": "left"
      },
      {
        "midi": 55,
        "time": 37.548,
        "duration": 0.387,
        "velocity": 0.71,
        "hand": "left"
      },
      {
        "midi": 58,
        "time": 37.548,
        "duration": 0.387,
        "velocity": 0.71,
        "hand": "left"
      },
      {
        "midi": 67,
        "time": 37.548,
        "duration": 0.097,
        "velocity": 0.71,
        "hand": "right"
      },
      {
        "midi": 64,
        "time": 37.645,
        "duration": 0.097,
        "velocity": 0.71,
        "hand": "right"
      },
      {
        "midi": 60,
        "time": 37.839,
        "duration": 0.097,
        "velocity": 0.71,
        "hand": "right"
      },
      {
        "midi": 53,
        "time": 37.935,
        "duration": 0.387,
        "velocity": 0.71,
        "hand": "left"
      },
      {
        "midi": 57,
        "time": 37.935,
        "duration": 0.387,
        "velocity": 0.71,
        "hand": "left"
      },
      {
        "midi": 65,
        "time": 37.935,
        "duration": 0.387,
        "velocity": 0.71,
        "hand": "right"
      },
      {
        "midi": 53,
        "time": 38.71,
        "duration": 0.387,
        "velocity": 0.71,
        "hand": "left"
      },
      {
        "midi": 65,
        "time": 38.71,
        "duration": 0.387,
        "velocity": 0.71,
        "hand": "right"
      },
      {
        "midi": 57,
        "time": 39.097,
        "duration": 0.387,
        "velocity": 0.71,
        "hand": "left"
      },
      {
        "midi": 69,
        "time": 39.097,
        "duration": 0.387,
        "velocity": 0.71,
        "hand": "right"
      },
      {
        "midi": 46,
        "time": 39.484,
        "duration": 0.774,
        "velocity": 0.71,
        "hand": "left"
      },
      {
        "midi": 46,
        "time": 39.484,
        "duration": 0.387,
        "velocity": 0.71,
        "hand": "left"
      },
      {
        "midi": 58,
        "time": 39.871,
        "duration": 0.387,
        "velocity": 0.71,
        "hand": "left"
      },
      {
        "midi": 50,
        "time": 40.258,
        "duration": 0.774,
        "velocity": 0.71,
        "hand": "left"
      },
      {
        "midi": 50,
        "time": 40.258,
        "duration": 0.387,
        "velocity": 0.71,
        "hand": "left"
      },
      {
        "midi": 62,
        "time": 40.645,
        "duration": 0.387,
        "velocity": 0.71,
        "hand": "right"
      },
      {
        "midi": 48,
        "time": 41.032,
        "duration": 0.774,
        "velocity": 0.71,
        "hand": "left"
      },
      {
        "midi": 48,
        "time": 41.032,
        "duration": 0.387,
        "velocity": 0.71,
        "hand": "left"
      },
      {
        "midi": 60,
        "time": 41.419,
        "duration": 0.387,
        "velocity": 0.71,
        "hand": "right"
      },
      {
        "midi": 52,
        "time": 41.806,
        "duration": 0.774,
        "velocity": 0.71,
        "hand": "left"
      },
      {
        "midi": 52,
        "time": 41.806,
        "duration": 0.387,
        "velocity": 0.71,
        "hand": "left"
      },
      {
        "midi": 64,
        "time": 42.194,
        "duration": 0.387,
        "velocity": 0.71,
        "hand": "right"
      },
      {
        "midi": 53,
        "time": 42.581,
        "duration": 0.194,
        "velocity": 0.71,
        "hand": "left"
      },
      {
        "midi": 53,
        "time": 42.581,
        "duration": 0.387,
        "velocity": 0.71,
        "hand": "left"
      },
      {
        "midi": 65,
        "time": 42.581,
        "duration": 0.194,
        "velocity": 0.71,
        "hand": "right"
      },
      {
        "midi": 57,
        "time": 42.968,
        "duration": 0.194,
        "velocity": 0.71,
        "hand": "left"
      },
      {
        "midi": 69,
        "time": 42.968,
        "duration": 0.194,
        "velocity": 0.71,
        "hand": "right"
      },
      {
        "midi": 60,
        "time": 43.355,
        "duration": 0.194,
        "velocity": 0.71,
        "hand": "right"
      },
      {
        "midi": 72,
        "time": 43.355,
        "duration": 0.194,
        "velocity": 0.71,
        "hand": "right"
      },
      {
        "midi": 57,
        "time": 43.742,
        "duration": 0.194,
        "velocity": 0.71,
        "hand": "left"
      },
      {
        "midi": 69,
        "time": 43.742,
        "duration": 0.194,
        "velocity": 0.71,
        "hand": "right"
      },
      {
        "midi": 53,
        "time": 44.129,
        "duration": 0.194,
        "velocity": 0.71,
        "hand": "left"
      },
      {
        "midi": 65,
        "time": 44.129,
        "duration": 0.194,
        "velocity": 0.71,
        "hand": "right"
      },
      {
        "midi": 48,
        "time": 44.516,
        "duration": 0.194,
        "velocity": 0.71,
        "hand": "left"
      },
      {
        "midi": 60,
        "time": 44.516,
        "duration": 0.194,
        "velocity": 0.71,
        "hand": "right"
      },
      {
        "midi": 45,
        "time": 44.903,
        "duration": 0.387,
        "velocity": 0.71,
        "hand": "left"
      },
      {
        "midi": 46,
        "time": 44.903,
        "duration": 0.194,
        "velocity": 0.71,
        "hand": "left"
      },
      {
        "midi": 57,
        "time": 44.903,
        "duration": 0.387,
        "velocity": 0.71,
        "hand": "left"
      },
      {
        "midi": 48,
        "time": 45.29,
        "duration": 0.387,
        "velocity": 0.71,
        "hand": "left"
      },
      {
        "midi": 60,
        "time": 45.29,
        "duration": 0.387,
        "velocity": 0.71,
        "hand": "right"
      },
      {
        "midi": 46,
        "time": 45.677,
        "duration": 0.774,
        "velocity": 0.71,
        "hand": "left"
      },
      {
        "midi": 46,
        "time": 45.677,
        "duration": 0.387,
        "velocity": 0.71,
        "hand": "left"
      },
      {
        "midi": 58,
        "time": 46.065,
        "duration": 0.387,
        "velocity": 0.71,
        "hand": "left"
      },
      {
        "midi": 50,
        "time": 46.452,
        "duration": 0.774,
        "velocity": 0.71,
        "hand": "left"
      },
      {
        "midi": 50,
        "time": 46.452,
        "duration": 0.387,
        "velocity": 0.71,
        "hand": "left"
      },
      {
        "midi": 62,
        "time": 46.839,
        "duration": 0.387,
        "velocity": 0.71,
        "hand": "right"
      },
      {
        "midi": 48,
        "time": 47.226,
        "duration": 1.161,
        "velocity": 0.71,
        "hand": "left"
      },
      {
        "midi": 48,
        "time": 47.226,
        "duration": 0.387,
        "velocity": 0.71,
        "hand": "left"
      },
      {
        "midi": 53,
        "time": 47.226,
        "duration": 0.774,
        "velocity": 0.71,
        "hand": "left"
      },
      {
        "midi": 57,
        "time": 47.226,
        "duration": 0.774,
        "velocity": 0.71,
        "hand": "left"
      },
      {
        "midi": 60,
        "time": 47.613,
        "duration": 0.387,
        "velocity": 0.71,
        "hand": "right"
      },
      {
        "midi": 48,
        "time": 48,
        "duration": 0.387,
        "velocity": 0.71,
        "hand": "left"
      },
      {
        "midi": 52,
        "time": 48,
        "duration": 0.774,
        "velocity": 0.71,
        "hand": "left"
      },
      {
        "midi": 55,
        "time": 48,
        "duration": 0.774,
        "velocity": 0.71,
        "hand": "left"
      },
      {
        "midi": 50,
        "time": 48.387,
        "duration": 0.194,
        "velocity": 0.71,
        "hand": "left"
      },
      {
        "midi": 60,
        "time": 48.387,
        "duration": 0.387,
        "velocity": 0.71,
        "hand": "right"
      },
      {
        "midi": 52,
        "time": 48.581,
        "duration": 0.194,
        "velocity": 0.71,
        "hand": "left"
      },
      {
        "midi": 53,
        "time": 48.774,
        "duration": 0.387,
        "velocity": 0.71,
        "hand": "left"
      },
      {
        "midi": 53,
        "time": 48.774,
        "duration": 0.774,
        "velocity": 0.71,
        "hand": "left"
      },
      {
        "midi": 65,
        "time": 48.774,
        "duration": 0.387,
        "velocity": 0.71,
        "hand": "right"
      },
      {
        "midi": 53,
        "time": 49.548,
        "duration": 0.774,
        "velocity": 0.71,
        "hand": "left"
      },
      {
        "midi": 62,
        "time": 49.548,
        "duration": 0.774,
        "velocity": 0.71,
        "hand": "right"
      },
      {
        "midi": 70,
        "time": 49.548,
        "duration": 0.581,
        "velocity": 0.71,
        "hand": "right"
      },
      {
        "midi": 72,
        "time": 50.129,
        "duration": 0.097,
        "velocity": 0.71,
        "hand": "right"
      },
      {
        "midi": 70,
        "time": 50.226,
        "duration": 0.097,
        "velocity": 0.71,
        "hand": "right"
      },
      {
        "midi": 53,
        "time": 50.323,
        "duration": 0.774,
        "velocity": 0.71,
        "hand": "left"
      },
      {
        "midi": 60,
        "time": 50.323,
        "duration": 0.387,
        "velocity": 0.71,
        "hand": "right"
      },
      {
        "midi": 69,
        "time": 50.323,
        "duration": 0.194,
        "velocity": 0.71,
        "hand": "right"
      },
      {
        "midi": 65,
        "time": 50.71,
        "duration": 0.194,
        "velocity": 0.71,
        "hand": "right"
      },
      {
        "midi": 53,
        "time": 51.097,
        "duration": 0.774,
        "velocity": 0.71,
        "hand": "left"
      },
      {
        "midi": 58,
        "time": 51.097,
        "duration": 0.581,
        "velocity": 0.71,
        "hand": "left"
      },
      {
        "midi": 74,
        "time": 51.097,
        "duration": 0.581,
        "velocity": 0.71,
        "hand": "right"
      },
      {
        "midi": 60,
        "time": 51.677,
        "duration": 0.097,
        "velocity": 0.71,
        "hand": "right"
      },
      {
        "midi": 76,
        "time": 51.677,
        "duration": 0.097,
        "velocity": 0.71,
        "hand": "right"
      },
      {
        "midi": 62,
        "time": 51.774,
        "duration": 0.097,
        "velocity": 0.71,
        "hand": "right"
      },
      {
        "midi": 77,
        "time": 51.774,
        "duration": 0.097,
        "velocity": 0.71,
        "hand": "right"
      },
      {
        "midi": 53,
        "time": 51.871,
        "duration": 0.387,
        "velocity": 0.71,
        "hand": "left"
      },
      {
        "midi": 57,
        "time": 51.871,
        "duration": 0.387,
        "velocity": 0.71,
        "hand": "left"
      },
      {
        "midi": 72,
        "time": 51.871,
        "duration": 0.387,
        "velocity": 0.71,
        "hand": "right"
      },
      {
        "midi": 57,
        "time": 52.645,
        "duration": 0.387,
        "velocity": 0.71,
        "hand": "left"
      },
      {
        "midi": 60,
        "time": 53.032,
        "duration": 0.387,
        "velocity": 0.71,
        "hand": "right"
      },
      {
        "midi": 48,
        "time": 53.419,
        "duration": 1.548,
        "velocity": 0.71,
        "hand": "left"
      },
      {
        "midi": 58,
        "time": 53.419,
        "duration": 1.548,
        "velocity": 0.71,
        "hand": "left"
      },
      {
        "midi": 60,
        "time": 53.419,
        "duration": 0.194,
        "velocity": 0.71,
        "hand": "right"
      },
      {
        "midi": 60,
        "time": 53.419,
        "duration": 1.935,
        "velocity": 0.71,
        "hand": "right"
      },
      {
        "midi": 64,
        "time": 53.419,
        "duration": 1.548,
        "velocity": 0.71,
        "hand": "right"
      },
      {
        "midi": 58,
        "time": 53.613,
        "duration": 0.194,
        "velocity": 0.71,
        "hand": "left"
      },
      {
        "midi": 57,
        "time": 53.806,
        "duration": 0.194,
        "velocity": 0.71,
        "hand": "left"
      },
      {
        "midi": 55,
        "time": 54,
        "duration": 0.194,
        "velocity": 0.71,
        "hand": "left"
      },
      {
        "midi": 55,
        "time": 54.194,
        "duration": 0.387,
        "velocity": 0.71,
        "hand": "left"
      },
      {
        "midi": 55,
        "time": 54.581,
        "duration": 0.387,
        "velocity": 0.71,
        "hand": "left"
      },
      {
        "midi": 41,
        "time": 54.968,
        "duration": 0.387,
        "velocity": 0.71,
        "hand": "left"
      },
      {
        "midi": 53,
        "time": 54.968,
        "duration": 0.387,
        "velocity": 0.71,
        "hand": "left"
      },
      {
        "midi": 57,
        "time": 54.968,
        "duration": 0.387,
        "velocity": 0.71,
        "hand": "left"
      },
      {
        "midi": 65,
        "time": 54.968,
        "duration": 0.387,
        "velocity": 0.71,
        "hand": "right"
      },
      {
        "midi": 53,
        "time": 55.355,
        "duration": 0.387,
        "velocity": 0.71,
        "hand": "left"
      },
      {
        "midi": 53,
        "time": 55.742,
        "duration": 0.774,
        "velocity": 0.71,
        "hand": "left"
      },
      {
        "midi": 62,
        "time": 55.742,
        "duration": 0.774,
        "velocity": 0.71,
        "hand": "right"
      },
      {
        "midi": 70,
        "time": 55.742,
        "duration": 0.581,
        "velocity": 0.71,
        "hand": "right"
      },
      {
        "midi": 72,
        "time": 56.323,
        "duration": 0.097,
        "velocity": 0.71,
        "hand": "right"
      },
      {
        "midi": 70,
        "time": 56.419,
        "duration": 0.097,
        "velocity": 0.71,
        "hand": "right"
      },
      {
        "midi": 53,
        "time": 56.516,
        "duration": 0.774,
        "velocity": 0.71,
        "hand": "left"
      },
      {
        "midi": 60,
        "time": 56.516,
        "duration": 0.387,
        "velocity": 0.71,
        "hand": "right"
      },
      {
        "midi": 69,
        "time": 56.516,
        "duration": 0.194,
        "velocity": 0.71,
        "hand": "right"
      },
      {
        "midi": 65,
        "time": 56.903,
        "duration": 0.194,
        "velocity": 0.71,
        "hand": "right"
      },
      {
        "midi": 53,
        "time": 57.29,
        "duration": 0.774,
        "velocity": 0.71,
        "hand": "left"
      },
      {
        "midi": 58,
        "time": 57.29,
        "duration": 0.581,
        "velocity": 0.71,
        "hand": "left"
      },
      {
        "midi": 74,
        "time": 57.29,
        "duration": 0.581,
        "velocity": 0.71,
        "hand": "right"
      },
      {
        "midi": 60,
        "time": 57.871,
        "duration": 0.097,
        "velocity": 0.71,
        "hand": "right"
      },
      {
        "midi": 76,
        "time": 57.871,
        "duration": 0.097,
        "velocity": 0.71,
        "hand": "right"
      },
      {
        "midi": 62,
        "time": 57.968,
        "duration": 0.097,
        "velocity": 0.71,
        "hand": "right"
      },
      {
        "midi": 77,
        "time": 57.968,
        "duration": 0.097,
        "velocity": 0.71,
        "hand": "right"
      },
      {
        "midi": 53,
        "time": 58.065,
        "duration": 0.387,
        "velocity": 0.71,
        "hand": "left"
      },
      {
        "midi": 57,
        "time": 58.065,
        "duration": 0.387,
        "velocity": 0.71,
        "hand": "left"
      },
      {
        "midi": 72,
        "time": 58.065,
        "duration": 0.387,
        "velocity": 0.71,
        "hand": "right"
      },
      {
        "midi": 57,
        "time": 58.839,
        "duration": 0.387,
        "velocity": 0.71,
        "hand": "left"
      },
      {
        "midi": 60,
        "time": 59.226,
        "duration": 0.387,
        "velocity": 0.71,
        "hand": "right"
      },
      {
        "midi": 48,
        "time": 59.613,
        "duration": 1.548,
        "velocity": 0.71,
        "hand": "left"
      },
      {
        "midi": 58,
        "time": 59.613,
        "duration": 1.548,
        "velocity": 0.71,
        "hand": "left"
      },
      {
        "midi": 60,
        "time": 59.613,
        "duration": 0.194,
        "velocity": 0.71,
        "hand": "right"
      },
      {
        "midi": 60,
        "time": 59.613,
        "duration": 1.548,
        "velocity": 0.71,
        "hand": "right"
      },
      {
        "midi": 64,
        "time": 59.613,
        "duration": 1.548,
        "velocity": 0.71,
        "hand": "right"
      },
      {
        "midi": 58,
        "time": 59.806,
        "duration": 0.194,
        "velocity": 0.71,
        "hand": "left"
      },
      {
        "midi": 57,
        "time": 60,
        "duration": 0.194,
        "velocity": 0.71,
        "hand": "left"
      },
      {
        "midi": 55,
        "time": 60.194,
        "duration": 0.194,
        "velocity": 0.71,
        "hand": "left"
      },
      {
        "midi": 55,
        "time": 60.387,
        "duration": 0.581,
        "velocity": 0.71,
        "hand": "left"
      },
      {
        "midi": 57,
        "time": 60.968,
        "duration": 0.194,
        "velocity": 0.71,
        "hand": "left"
      },
      {
        "midi": 41,
        "time": 61.161,
        "duration": 0.387,
        "velocity": 0.71,
        "hand": "left"
      },
      {
        "midi": 53,
        "time": 61.161,
        "duration": 0.387,
        "velocity": 0.71,
        "hand": "left"
      },
      {
        "midi": 53,
        "time": 61.548,
        "duration": 0.387,
        "velocity": 0.71,
        "hand": "left"
      },
      {
        "midi": 57,
        "time": 61.548,
        "duration": 0.387,
        "velocity": 0.71,
        "hand": "left"
      },
      {
        "midi": 60,
        "time": 61.548,
        "duration": 0.387,
        "velocity": 0.71,
        "hand": "right"
      },
      {
        "midi": 65,
        "time": 61.548,
        "duration": 0.387,
        "velocity": 0.71,
        "hand": "right"
      },
      {
        "midi": 41,
        "time": 61.935,
        "duration": 0.387,
        "velocity": 0.71,
        "hand": "left"
      },
      {
        "midi": 53,
        "time": 61.935,
        "duration": 0.387,
        "velocity": 0.71,
        "hand": "left"
      },
      {
        "midi": 53,
        "time": 62.323,
        "duration": 0.387,
        "velocity": 0.71,
        "hand": "left"
      },
      {
        "midi": 57,
        "time": 62.323,
        "duration": 0.387,
        "velocity": 0.71,
        "hand": "left"
      },
      {
        "midi": 62,
        "time": 62.323,
        "duration": 0.387,
        "velocity": 0.71,
        "hand": "right"
      },
      {
        "midi": 65,
        "time": 62.323,
        "duration": 0.387,
        "velocity": 0.71,
        "hand": "right"
      },
      {
        "midi": 43,
        "time": 62.71,
        "duration": 0.387,
        "velocity": 0.71,
        "hand": "left"
      },
      {
        "midi": 52,
        "time": 62.71,
        "duration": 0.581,
        "velocity": 0.71,
        "hand": "left"
      },
      {
        "midi": 55,
        "time": 63.097,
        "duration": 0.387,
        "velocity": 0.71,
        "hand": "left"
      },
      {
        "midi": 60,
        "time": 63.097,
        "duration": 0.387,
        "velocity": 0.71,
        "hand": "right"
      },
      {
        "midi": 64,
        "time": 63.097,
        "duration": 0.387,
        "velocity": 0.71,
        "hand": "right"
      },
      {
        "midi": 52,
        "time": 63.29,
        "duration": 0.194,
        "velocity": 0.71,
        "hand": "left"
      },
      {
        "midi": 43,
        "time": 63.484,
        "duration": 0.387,
        "velocity": 0.71,
        "hand": "left"
      },
      {
        "midi": 50,
        "time": 63.484,
        "duration": 0.581,
        "velocity": 0.71,
        "hand": "left"
      },
      {
        "midi": 53,
        "time": 63.871,
        "duration": 0.387,
        "velocity": 0.71,
        "hand": "left"
      },
      {
        "midi": 59,
        "time": 63.871,
        "duration": 0.387,
        "velocity": 0.71,
        "hand": "left"
      },
      {
        "midi": 62,
        "time": 63.871,
        "duration": 0.387,
        "velocity": 0.71,
        "hand": "right"
      },
      {
        "midi": 50,
        "time": 64.065,
        "duration": 0.194,
        "velocity": 0.71,
        "hand": "left"
      },
      {
        "midi": 36,
        "time": 64.258,
        "duration": 0.387,
        "velocity": 0.71,
        "hand": "left"
      },
      {
        "midi": 48,
        "time": 64.258,
        "duration": 0.387,
        "velocity": 0.71,
        "hand": "left"
      },
      {
        "midi": 48,
        "time": 64.645,
        "duration": 0.194,
        "velocity": 0.71,
        "hand": "left"
      },
      {
        "midi": 52,
        "time": 64.645,
        "duration": 0.387,
        "velocity": 0.71,
        "hand": "left"
      },
      {
        "midi": 55,
        "time": 64.645,
        "duration": 0.387,
        "velocity": 0.71,
        "hand": "left"
      },
      {
        "midi": 60,
        "time": 64.645,
        "duration": 0.387,
        "velocity": 0.71,
        "hand": "right"
      },
      {
        "midi": 48,
        "time": 64.839,
        "duration": 0.194,
        "velocity": 0.71,
        "hand": "left"
      },
      {
        "midi": 43,
        "time": 65.032,
        "duration": 0.387,
        "velocity": 0.71,
        "hand": "left"
      },
      {
        "midi": 50,
        "time": 65.032,
        "duration": 0.581,
        "velocity": 0.71,
        "hand": "left"
      },
      {
        "midi": 53,
        "time": 65.419,
        "duration": 0.387,
        "velocity": 0.71,
        "hand": "left"
      },
      {
        "midi": 55,
        "time": 65.419,
        "duration": 0.387,
        "velocity": 0.71,
        "hand": "left"
      },
      {
        "midi": 59,
        "time": 65.419,
        "duration": 0.387,
        "velocity": 0.71,
        "hand": "left"
      },
      {
        "midi": 62,
        "time": 65.419,
        "duration": 0.387,
        "velocity": 0.71,
        "hand": "right"
      },
      {
        "midi": 52,
        "time": 65.613,
        "duration": 0.194,
        "velocity": 0.71,
        "hand": "left"
      },
      {
        "midi": 36,
        "time": 65.806,
        "duration": 0.387,
        "velocity": 0.71,
        "hand": "left"
      },
      {
        "midi": 48,
        "time": 65.806,
        "duration": 0.387,
        "velocity": 0.71,
        "hand": "left"
      },
      {
        "midi": 48,
        "time": 66.194,
        "duration": 0.194,
        "velocity": 0.71,
        "hand": "left"
      },
      {
        "midi": 52,
        "time": 66.194,
        "duration": 0.387,
        "velocity": 0.71,
        "hand": "left"
      },
      {
        "midi": 55,
        "time": 66.194,
        "duration": 0.387,
        "velocity": 0.71,
        "hand": "left"
      },
      {
        "midi": 60,
        "time": 66.194,
        "duration": 0.387,
        "velocity": 0.71,
        "hand": "right"
      },
      {
        "midi": 48,
        "time": 66.387,
        "duration": 0.194,
        "velocity": 0.71,
        "hand": "left"
      },
      {
        "midi": 31,
        "time": 66.581,
        "duration": 0.387,
        "velocity": 0.71,
        "hand": "left"
      },
      {
        "midi": 43,
        "time": 66.581,
        "duration": 0.387,
        "velocity": 0.71,
        "hand": "left"
      },
      {
        "midi": 50,
        "time": 66.581,
        "duration": 0.581,
        "velocity": 0.71,
        "hand": "left"
      },
      {
        "midi": 53,
        "time": 66.581,
        "duration": 0.387,
        "velocity": 0.71,
        "hand": "left"
      },
      {
        "midi": 55,
        "time": 66.581,
        "duration": 0.387,
        "velocity": 0.71,
        "hand": "left"
      },
      {
        "midi": 59,
        "time": 66.581,
        "duration": 0.387,
        "velocity": 0.71,
        "hand": "left"
      },
      {
        "midi": 62,
        "time": 66.581,
        "duration": 0.387,
        "velocity": 0.71,
        "hand": "right"
      },
      {
        "midi": 52,
        "time": 67.161,
        "duration": 0.194,
        "velocity": 0.71,
        "hand": "left"
      },
      {
        "midi": 36,
        "time": 67.355,
        "duration": 0.387,
        "velocity": 0.71,
        "hand": "left"
      },
      {
        "midi": 48,
        "time": 67.355,
        "duration": 0.387,
        "velocity": 0.71,
        "hand": "left"
      },
      {
        "midi": 52,
        "time": 67.355,
        "duration": 0.387,
        "velocity": 0.71,
        "hand": "left"
      },
      {
        "midi": 55,
        "time": 67.355,
        "duration": 0.387,
        "velocity": 0.71,
        "hand": "left"
      },
      {
        "midi": 60,
        "time": 67.355,
        "duration": 0.387,
        "velocity": 0.71,
        "hand": "right"
      },
      {
        "midi": 48,
        "time": 67.742,
        "duration": 0.387,
        "velocity": 0.71,
        "hand": "left"
      },
      {
        "midi": 41,
        "time": 68.903,
        "duration": 0.387,
        "velocity": 0.71,
        "hand": "left"
      },
      {
        "midi": 53,
        "time": 68.903,
        "duration": 0.387,
        "velocity": 0.71,
        "hand": "left"
      },
      {
        "midi": 57,
        "time": 68.903,
        "duration": 1.161,
        "velocity": 0.71,
        "hand": "left"
      },
      {
        "midi": 69,
        "time": 68.903,
        "duration": 0.097,
        "velocity": 0.71,
        "hand": "right"
      },
      {
        "midi": 65,
        "time": 69,
        "duration": 0.097,
        "velocity": 0.71,
        "hand": "right"
      },
      {
        "midi": 60,
        "time": 69.194,
        "duration": 0.097,
        "velocity": 0.71,
        "hand": "right"
      },
      {
        "midi": 69,
        "time": 69.29,
        "duration": 0.097,
        "velocity": 0.71,
        "hand": "right"
      },
      {
        "midi": 65,
        "time": 69.387,
        "duration": 0.097,
        "velocity": 0.71,
        "hand": "right"
      },
      {
        "midi": 60,
        "time": 69.581,
        "duration": 0.097,
        "velocity": 0.71,
        "hand": "right"
      },
      {
        "midi": 69,
        "time": 69.677,
        "duration": 0.097,
        "velocity": 0.71,
        "hand": "right"
      },
      {
        "midi": 65,
        "time": 69.774,
        "duration": 0.097,
        "velocity": 0.71,
        "hand": "right"
      },
      {
        "midi": 60,
        "time": 69.968,
        "duration": 0.097,
        "velocity": 0.71,
        "hand": "right"
      },
      {
        "midi": 58,
        "time": 70.065,
        "duration": 0.387,
        "velocity": 0.71,
        "hand": "left"
      },
      {
        "midi": 70,
        "time": 70.065,
        "duration": 0.097,
        "velocity": 0.71,
        "hand": "right"
      },
      {
        "midi": 67,
        "time": 70.161,
        "duration": 0.097,
        "velocity": 0.71,
        "hand": "right"
      },
      {
        "midi": 60,
        "time": 70.355,
        "duration": 0.097,
        "velocity": 0.71,
        "hand": "right"
      },
      {
        "midi": 60,
        "time": 70.452,
        "duration": 0.387,
        "velocity": 0.71,
        "hand": "right"
      },
      {
        "midi": 72,
        "time": 70.452,
        "duration": 0.097,
        "velocity": 0.71,
        "hand": "right"
      },
      {
        "midi": 69,
        "time": 70.548,
        "duration": 0.097,
        "velocity": 0.71,
        "hand": "right"
      },
      {
        "midi": 60,
        "time": 70.742,
        "duration": 0.097,
        "velocity": 0.71,
        "hand": "right"
      },
      {
        "midi": 58,
        "time": 70.839,
        "duration": 0.387,
        "velocity": 0.71,
        "hand": "left"
      },
      {
        "midi": 70,
        "time": 70.839,
        "duration": 0.097,
        "velocity": 0.71,
        "hand": "right"
      },
      {
        "midi": 67,
        "time": 70.935,
        "duration": 0.097,
        "velocity": 0.71,
        "hand": "right"
      },
      {
        "midi": 60,
        "time": 71.129,
        "duration": 0.097,
        "velocity": 0.71,
        "hand": "right"
      },
      {
        "midi": 57,
        "time": 71.226,
        "duration": 0.387,
        "velocity": 0.71,
        "hand": "left"
      },
      {
        "midi": 69,
        "time": 71.226,
        "duration": 0.097,
        "velocity": 0.71,
        "hand": "right"
      },
      {
        "midi": 65,
        "time": 71.323,
        "duration": 0.097,
        "velocity": 0.71,
        "hand": "right"
      },
      {
        "midi": 60,
        "time": 71.516,
        "duration": 0.097,
        "velocity": 0.71,
        "hand": "right"
      },
      {
        "midi": 55,
        "time": 71.613,
        "duration": 0.387,
        "velocity": 0.71,
        "hand": "left"
      },
      {
        "midi": 67,
        "time": 71.613,
        "duration": 0.097,
        "velocity": 0.71,
        "hand": "right"
      },
      {
        "midi": 64,
        "time": 71.71,
        "duration": 0.097,
        "velocity": 0.71,
        "hand": "right"
      },
      {
        "midi": 60,
        "time": 71.903,
        "duration": 0.097,
        "velocity": 0.71,
        "hand": "right"
      },
      {
        "midi": 41,
        "time": 72,
        "duration": 0.387,
        "velocity": 0.71,
        "hand": "left"
      },
      {
        "midi": 53,
        "time": 72,
        "duration": 0.387,
        "velocity": 0.71,
        "hand": "left"
      },
      {
        "midi": 79,
        "time": 72,
        "duration": 0.048,
        "velocity": 0.71,
        "hand": "right"
      },
      {
        "midi": 81,
        "time": 72,
        "duration": 0.048,
        "velocity": 0.71,
        "hand": "right"
      },
      {
        "midi": 82,
        "time": 72,
        "duration": 0.048,
        "velocity": 0.71,
        "hand": "right"
      },
      {
        "midi": 84,
        "time": 72,
        "duration": 0.048,
        "velocity": 0.71,
        "hand": "right"
      },
      {
        "midi": 77,
        "time": 72.097,
        "duration": 0.29,
        "velocity": 0.71,
        "hand": "right"
      },
      {
        "midi": 81,
        "time": 72.097,
        "duration": 0.29,
        "velocity": 0.71,
        "hand": "right"
      },
      {
        "midi": 45,
        "time": 72.387,
        "duration": 0.387,
        "velocity": 0.71,
        "hand": "left"
      },
      {
        "midi": 53,
        "time": 72.387,
        "duration": 0.387,
        "velocity": 0.71,
        "hand": "left"
      },
      {
        "midi": 57,
        "time": 72.387,
        "duration": 0.387,
        "velocity": 0.71,
        "hand": "left"
      },
      {
        "midi": 77,
        "time": 72.387,
        "duration": 0.194,
        "velocity": 0.71,
        "hand": "right"
      },
      {
        "midi": 81,
        "time": 72.387,
        "duration": 0.194,
        "velocity": 0.71,
        "hand": "right"
      },
      {
        "midi": 77,
        "time": 72.581,
        "duration": 0.194,
        "velocity": 0.71,
        "hand": "right"
      },
      {
        "midi": 81,
        "time": 72.581,
        "duration": 0.194,
        "velocity": 0.71,
        "hand": "right"
      },
      {
        "midi": 48,
        "time": 72.774,
        "duration": 0.387,
        "velocity": 0.71,
        "hand": "left"
      },
      {
        "midi": 60,
        "time": 72.774,
        "duration": 0.387,
        "velocity": 0.71,
        "hand": "right"
      },
      {
        "midi": 77,
        "time": 72.774,
        "duration": 0.194,
        "velocity": 0.71,
        "hand": "right"
      },
      {
        "midi": 81,
        "time": 72.774,
        "duration": 0.194,
        "velocity": 0.71,
        "hand": "right"
      },
      {
        "midi": 79,
        "time": 72.968,
        "duration": 0.097,
        "velocity": 0.71,
        "hand": "right"
      },
      {
        "midi": 81,
        "time": 73.065,
        "duration": 0.097,
        "velocity": 0.71,
        "hand": "right"
      },
      {
        "midi": 36,
        "time": 73.161,
        "duration": 0.387,
        "velocity": 0.71,
        "hand": "left"
      },
      {
        "midi": 48,
        "time": 73.161,
        "duration": 0.387,
        "velocity": 0.71,
        "hand": "left"
      },
      {
        "midi": 79,
        "time": 73.161,
        "duration": 0.194,
        "velocity": 0.71,
        "hand": "right"
      },
      {
        "midi": 82,
        "time": 73.161,
        "duration": 0.194,
        "velocity": 0.71,
        "hand": "right"
      },
      {
        "midi": 76,
        "time": 73.355,
        "duration": 0.194,
        "velocity": 0.71,
        "hand": "right"
      },
      {
        "midi": 79,
        "time": 73.355,
        "duration": 0.194,
        "velocity": 0.71,
        "hand": "right"
      },
      {
        "midi": 41,
        "time": 73.548,
        "duration": 0.387,
        "velocity": 0.71,
        "hand": "left"
      },
      {
        "midi": 53,
        "time": 73.548,
        "duration": 0.387,
        "velocity": 0.71,
        "hand": "left"
      },
      {
        "midi": 57,
        "time": 73.548,
        "duration": 1.161,
        "velocity": 0.71,
        "hand": "left"
      },
      {
        "midi": 69,
        "time": 73.548,
        "duration": 0.097,
        "velocity": 0.71,
        "hand": "right"
      },
      {
        "midi": 65,
        "time": 73.645,
        "duration": 0.097,
        "velocity": 0.71,
        "hand": "right"
      },
      {
        "midi": 60,
        "time": 73.839,
        "duration": 0.097,
        "velocity": 0.71,
        "hand": "right"
      },
      {
        "midi": 69,
        "time": 73.935,
        "duration": 0.097,
        "velocity": 0.71,
        "hand": "right"
      },
      {
        "midi": 65,
        "time": 74.032,
        "duration": 0.097,
        "velocity": 0.71,
        "hand": "right"
      },
      {
        "midi": 60,
        "time": 74.226,
        "duration": 0.097,
        "velocity": 0.71,
        "hand": "right"
      },
      {
        "midi": 69,
        "time": 74.323,
        "duration": 0.097,
        "velocity": 0.71,
        "hand": "right"
      },
      {
        "midi": 65,
        "time": 74.419,
        "duration": 0.097,
        "velocity": 0.71,
        "hand": "right"
      },
      {
        "midi": 60,
        "time": 74.613,
        "duration": 0.097,
        "velocity": 0.71,
        "hand": "right"
      },
      {
        "midi": 58,
        "time": 74.71,
        "duration": 0.387,
        "velocity": 0.71,
        "hand": "left"
      },
      {
        "midi": 70,
        "time": 74.71,
        "duration": 0.097,
        "velocity": 0.71,
        "hand": "right"
      },
      {
        "midi": 67,
        "time": 74.806,
        "duration": 0.097,
        "velocity": 0.71,
        "hand": "right"
      },
      {
        "midi": 60,
        "time": 75,
        "duration": 0.097,
        "velocity": 0.71,
        "hand": "right"
      },
      {
        "midi": 60,
        "time": 75.097,
        "duration": 0.387,
        "velocity": 0.71,
        "hand": "right"
      },
      {
        "midi": 72,
        "time": 75.097,
        "duration": 0.097,
        "velocity": 0.71,
        "hand": "right"
      },
      {
        "midi": 69,
        "time": 75.194,
        "duration": 0.097,
        "velocity": 0.71,
        "hand": "right"
      },
      {
        "midi": 60,
        "time": 75.387,
        "duration": 0.097,
        "velocity": 0.71,
        "hand": "right"
      },
      {
        "midi": 58,
        "time": 75.484,
        "duration": 0.387,
        "velocity": 0.71,
        "hand": "left"
      },
      {
        "midi": 70,
        "time": 75.484,
        "duration": 0.097,
        "velocity": 0.71,
        "hand": "right"
      },
      {
        "midi": 67,
        "time": 75.581,
        "duration": 0.097,
        "velocity": 0.71,
        "hand": "right"
      },
      {
        "midi": 60,
        "time": 75.774,
        "duration": 0.097,
        "velocity": 0.71,
        "hand": "right"
      },
      {
        "midi": 57,
        "time": 75.871,
        "duration": 0.387,
        "velocity": 0.71,
        "hand": "left"
      },
      {
        "midi": 69,
        "time": 75.871,
        "duration": 0.097,
        "velocity": 0.71,
        "hand": "right"
      },
      {
        "midi": 65,
        "time": 75.968,
        "duration": 0.097,
        "velocity": 0.71,
        "hand": "right"
      },
      {
        "midi": 60,
        "time": 76.161,
        "duration": 0.097,
        "velocity": 0.71,
        "hand": "right"
      },
      {
        "midi": 55,
        "time": 76.258,
        "duration": 0.387,
        "velocity": 0.71,
        "hand": "left"
      },
      {
        "midi": 67,
        "time": 76.258,
        "duration": 0.097,
        "velocity": 0.71,
        "hand": "right"
      },
      {
        "midi": 64,
        "time": 76.355,
        "duration": 0.097,
        "velocity": 0.71,
        "hand": "right"
      },
      {
        "midi": 60,
        "time": 76.548,
        "duration": 0.097,
        "velocity": 0.71,
        "hand": "right"
      },
      {
        "midi": 53,
        "time": 76.645,
        "duration": 0.387,
        "velocity": 0.71,
        "hand": "left"
      },
      {
        "midi": 65,
        "time": 76.645,
        "duration": 0.387,
        "velocity": 0.71,
        "hand": "right"
      },
      {
        "midi": 53,
        "time": 77.419,
        "duration": 0.387,
        "velocity": 0.71,
        "hand": "left"
      },
      {
        "midi": 65,
        "time": 77.419,
        "duration": 0.387,
        "velocity": 0.71,
        "hand": "right"
      },
      {
        "midi": 57,
        "time": 77.806,
        "duration": 0.387,
        "velocity": 0.71,
        "hand": "left"
      },
      {
        "midi": 69,
        "time": 77.806,
        "duration": 0.387,
        "velocity": 0.71,
        "hand": "right"
      },
      {
        "midi": 46,
        "time": 78.194,
        "duration": 0.774,
        "velocity": 0.71,
        "hand": "left"
      },
      {
        "midi": 46,
        "time": 78.194,
        "duration": 0.387,
        "velocity": 0.71,
        "hand": "left"
      },
      {
        "midi": 58,
        "time": 78.581,
        "duration": 0.387,
        "velocity": 0.71,
        "hand": "left"
      },
      {
        "midi": 50,
        "time": 78.968,
        "duration": 0.774,
        "velocity": 0.71,
        "hand": "left"
      },
      {
        "midi": 50,
        "time": 78.968,
        "duration": 0.387,
        "velocity": 0.71,
        "hand": "left"
      },
      {
        "midi": 62,
        "time": 79.355,
        "duration": 0.387,
        "velocity": 0.71,
        "hand": "right"
      },
      {
        "midi": 48,
        "time": 79.742,
        "duration": 0.774,
        "velocity": 0.71,
        "hand": "left"
      },
      {
        "midi": 48,
        "time": 79.742,
        "duration": 0.387,
        "velocity": 0.71,
        "hand": "left"
      },
      {
        "midi": 60,
        "time": 80.129,
        "duration": 0.387,
        "velocity": 0.71,
        "hand": "right"
      },
      {
        "midi": 52,
        "time": 80.516,
        "duration": 0.774,
        "velocity": 0.71,
        "hand": "left"
      },
      {
        "midi": 52,
        "time": 80.516,
        "duration": 0.387,
        "velocity": 0.71,
        "hand": "left"
      },
      {
        "midi": 64,
        "time": 80.903,
        "duration": 0.387,
        "velocity": 0.71,
        "hand": "right"
      },
      {
        "midi": 53,
        "time": 81.29,
        "duration": 0.194,
        "velocity": 0.71,
        "hand": "left"
      },
      {
        "midi": 53,
        "time": 81.29,
        "duration": 0.387,
        "velocity": 0.71,
        "hand": "left"
      },
      {
        "midi": 65,
        "time": 81.29,
        "duration": 0.194,
        "velocity": 0.71,
        "hand": "right"
      },
      {
        "midi": 57,
        "time": 81.677,
        "duration": 0.194,
        "velocity": 0.71,
        "hand": "left"
      },
      {
        "midi": 69,
        "time": 81.677,
        "duration": 0.194,
        "velocity": 0.71,
        "hand": "right"
      },
      {
        "midi": 81,
        "time": 81.677,
        "duration": 0.194,
        "velocity": 0.71,
        "hand": "right"
      },
      {
        "midi": 60,
        "time": 82.065,
        "duration": 0.194,
        "velocity": 0.71,
        "hand": "right"
      },
      {
        "midi": 72,
        "time": 82.065,
        "duration": 0.194,
        "velocity": 0.71,
        "hand": "right"
      },
      {
        "midi": 84,
        "time": 82.065,
        "duration": 0.194,
        "velocity": 0.71,
        "hand": "right"
      },
      {
        "midi": 57,
        "time": 82.452,
        "duration": 0.194,
        "velocity": 0.71,
        "hand": "left"
      },
      {
        "midi": 69,
        "time": 82.452,
        "duration": 0.194,
        "velocity": 0.71,
        "hand": "right"
      },
      {
        "midi": 81,
        "time": 82.452,
        "duration": 0.194,
        "velocity": 0.71,
        "hand": "right"
      },
      {
        "midi": 53,
        "time": 82.839,
        "duration": 0.194,
        "velocity": 0.71,
        "hand": "left"
      },
      {
        "midi": 65,
        "time": 82.839,
        "duration": 0.194,
        "velocity": 0.71,
        "hand": "right"
      },
      {
        "midi": 77,
        "time": 82.839,
        "duration": 0.194,
        "velocity": 0.71,
        "hand": "right"
      },
      {
        "midi": 48,
        "time": 83.226,
        "duration": 0.194,
        "velocity": 0.71,
        "hand": "left"
      },
      {
        "midi": 60,
        "time": 83.226,
        "duration": 0.194,
        "velocity": 0.71,
        "hand": "right"
      },
      {
        "midi": 72,
        "time": 83.226,
        "duration": 0.194,
        "velocity": 0.71,
        "hand": "right"
      },
      {
        "midi": 45,
        "time": 83.613,
        "duration": 0.387,
        "velocity": 0.71,
        "hand": "left"
      },
      {
        "midi": 46,
        "time": 83.613,
        "duration": 0.194,
        "velocity": 0.71,
        "hand": "left"
      },
      {
        "midi": 57,
        "time": 83.613,
        "duration": 0.387,
        "velocity": 0.71,
        "hand": "left"
      },
      {
        "midi": 69,
        "time": 83.613,
        "duration": 0.387,
        "velocity": 0.71,
        "hand": "right"
      },
      {
        "midi": 48,
        "time": 84,
        "duration": 0.387,
        "velocity": 0.71,
        "hand": "left"
      },
      {
        "midi": 60,
        "time": 84,
        "duration": 0.387,
        "velocity": 0.71,
        "hand": "right"
      },
      {
        "midi": 72,
        "time": 84,
        "duration": 0.387,
        "velocity": 0.71,
        "hand": "right"
      },
      {
        "midi": 46,
        "time": 84.387,
        "duration": 0.774,
        "velocity": 0.71,
        "hand": "left"
      },
      {
        "midi": 46,
        "time": 84.387,
        "duration": 0.387,
        "velocity": 0.71,
        "hand": "left"
      },
      {
        "midi": 58,
        "time": 84.774,
        "duration": 0.387,
        "velocity": 0.71,
        "hand": "left"
      },
      {
        "midi": 70,
        "time": 84.774,
        "duration": 0.387,
        "velocity": 0.71,
        "hand": "right"
      },
      {
        "midi": 50,
        "time": 85.161,
        "duration": 0.774,
        "velocity": 0.71,
        "hand": "left"
      },
      {
        "midi": 50,
        "time": 85.161,
        "duration": 0.387,
        "velocity": 0.71,
        "hand": "left"
      },
      {
        "midi": 62,
        "time": 85.548,
        "duration": 0.387,
        "velocity": 0.71,
        "hand": "right"
      },
      {
        "midi": 74,
        "time": 85.548,
        "duration": 0.387,
        "velocity": 0.71,
        "hand": "right"
      },
      {
        "midi": 48,
        "time": 85.935,
        "duration": 1.161,
        "velocity": 0.71,
        "hand": "left"
      },
      {
        "midi": 48,
        "time": 85.935,
        "duration": 0.387,
        "velocity": 0.71,
        "hand": "left"
      },
      {
        "midi": 53,
        "time": 85.935,
        "duration": 0.774,
        "velocity": 0.71,
        "hand": "left"
      },
      {
        "midi": 57,
        "time": 85.935,
        "duration": 0.774,
        "velocity": 0.71,
        "hand": "left"
      },
      {
        "midi": 60,
        "time": 86.323,
        "duration": 0.387,
        "velocity": 0.71,
        "hand": "right"
      },
      {
        "midi": 72,
        "time": 86.323,
        "duration": 0.387,
        "velocity": 0.71,
        "hand": "right"
      },
      {
        "midi": 48,
        "time": 86.71,
        "duration": 0.387,
        "velocity": 0.71,
        "hand": "left"
      },
      {
        "midi": 52,
        "time": 86.71,
        "duration": 0.774,
        "velocity": 0.71,
        "hand": "left"
      },
      {
        "midi": 55,
        "time": 86.71,
        "duration": 0.774,
        "velocity": 0.71,
        "hand": "left"
      },
      {
        "midi": 50,
        "time": 87.097,
        "duration": 0.194,
        "velocity": 0.71,
        "hand": "left"
      },
      {
        "midi": 60,
        "time": 87.097,
        "duration": 0.387,
        "velocity": 0.71,
        "hand": "right"
      },
      {
        "midi": 72,
        "time": 87.097,
        "duration": 0.387,
        "velocity": 0.71,
        "hand": "right"
      },
      {
        "midi": 52,
        "time": 87.29,
        "duration": 0.194,
        "velocity": 0.71,
        "hand": "left"
      },
      {
        "midi": 53,
        "time": 87.484,
        "duration": 0.387,
        "velocity": 0.71,
        "hand": "left"
      },
      {
        "midi": 57,
        "time": 87.484,
        "duration": 0.387,
        "velocity": 0.71,
        "hand": "left"
      },
      {
        "midi": 53,
        "time": 87.871,
        "duration": 0.194,
        "velocity": 0.71,
        "hand": "left"
      },
      {
        "midi": 57,
        "time": 87.871,
        "duration": 0.194,
        "velocity": 0.71,
        "hand": "left"
      },
      {
        "midi": 60,
        "time": 87.871,
        "duration": 0.194,
        "velocity": 0.71,
        "hand": "right"
      },
      {
        "midi": 65,
        "time": 87.871,
        "duration": 0.194,
        "velocity": 0.71,
        "hand": "right"
      },
      {
        "midi": 53,
        "time": 88.065,
        "duration": 0.194,
        "velocity": 0.71,
        "hand": "left"
      },
      {
        "midi": 57,
        "time": 88.065,
        "duration": 0.194,
        "velocity": 0.71,
        "hand": "left"
      },
      {
        "midi": 60,
        "time": 88.065,
        "duration": 0.194,
        "velocity": 0.71,
        "hand": "right"
      },
      {
        "midi": 65,
        "time": 88.065,
        "duration": 0.194,
        "velocity": 0.71,
        "hand": "right"
      },
      {
        "midi": 58,
        "time": 88.258,
        "duration": 0.387,
        "velocity": 0.71,
        "hand": "left"
      },
      {
        "midi": 62,
        "time": 88.258,
        "duration": 0.387,
        "velocity": 0.71,
        "hand": "right"
      },
      {
        "midi": 65,
        "time": 88.258,
        "duration": 0.387,
        "velocity": 0.71,
        "hand": "right"
      },
      {
        "midi": 53,
        "time": 88.645,
        "duration": 0.194,
        "velocity": 0.71,
        "hand": "left"
      },
      {
        "midi": 58,
        "time": 88.645,
        "duration": 0.194,
        "velocity": 0.71,
        "hand": "left"
      },
      {
        "midi": 65,
        "time": 88.645,
        "duration": 0.194,
        "velocity": 0.71,
        "hand": "right"
      },
      {
        "midi": 74,
        "time": 88.645,
        "duration": 0.194,
        "velocity": 0.71,
        "hand": "right"
      },
      {
        "midi": 82,
        "time": 88.645,
        "duration": 0.194,
        "velocity": 0.71,
        "hand": "right"
      },
      {
        "midi": 53,
        "time": 88.839,
        "duration": 0.194,
        "velocity": 0.71,
        "hand": "left"
      },
      {
        "midi": 58,
        "time": 88.839,
        "duration": 0.194,
        "velocity": 0.71,
        "hand": "left"
      },
      {
        "midi": 65,
        "time": 88.839,
        "duration": 0.194,
        "velocity": 0.71,
        "hand": "right"
      },
      {
        "midi": 74,
        "time": 88.839,
        "duration": 0.194,
        "velocity": 0.71,
        "hand": "right"
      },
      {
        "midi": 82,
        "time": 88.839,
        "duration": 0.194,
        "velocity": 0.71,
        "hand": "right"
      },
      {
        "midi": 53,
        "time": 89.032,
        "duration": 0.387,
        "velocity": 0.71,
        "hand": "left"
      },
      {
        "midi": 65,
        "time": 89.032,
        "duration": 0.387,
        "velocity": 0.71,
        "hand": "right"
      },
      {
        "midi": 72,
        "time": 89.032,
        "duration": 0.387,
        "velocity": 0.71,
        "hand": "right"
      },
      {
        "midi": 81,
        "time": 89.032,
        "duration": 0.387,
        "velocity": 0.71,
        "hand": "right"
      },
      {
        "midi": 53,
        "time": 89.419,
        "duration": 0.194,
        "velocity": 0.71,
        "hand": "left"
      },
      {
        "midi": 57,
        "time": 89.419,
        "duration": 0.194,
        "velocity": 0.71,
        "hand": "left"
      },
      {
        "midi": 60,
        "time": 89.419,
        "duration": 0.194,
        "velocity": 0.71,
        "hand": "right"
      },
      {
        "midi": 65,
        "time": 89.419,
        "duration": 0.194,
        "velocity": 0.71,
        "hand": "right"
      },
      {
        "midi": 53,
        "time": 89.613,
        "duration": 0.194,
        "velocity": 0.71,
        "hand": "left"
      },
      {
        "midi": 57,
        "time": 89.613,
        "duration": 0.194,
        "velocity": 0.71,
        "hand": "left"
      },
      {
        "midi": 60,
        "time": 89.613,
        "duration": 0.194,
        "velocity": 0.71,
        "hand": "right"
      },
      {
        "midi": 65,
        "time": 89.613,
        "duration": 0.194,
        "velocity": 0.71,
        "hand": "right"
      },
      {
        "midi": 58,
        "time": 89.806,
        "duration": 0.387,
        "velocity": 0.71,
        "hand": "left"
      },
      {
        "midi": 62,
        "time": 89.806,
        "duration": 0.387,
        "velocity": 0.71,
        "hand": "right"
      },
      {
        "midi": 65,
        "time": 89.806,
        "duration": 0.387,
        "velocity": 0.71,
        "hand": "right"
      },
      {
        "midi": 53,
        "time": 90,
        "duration": 0.194,
        "velocity": 0.71,
        "hand": "left"
      },
      {
        "midi": 53,
        "time": 90.194,
        "duration": 0.194,
        "velocity": 0.71,
        "hand": "left"
      },
      {
        "midi": 58,
        "time": 90.194,
        "duration": 0.194,
        "velocity": 0.71,
        "hand": "left"
      },
      {
        "midi": 65,
        "time": 90.194,
        "duration": 0.194,
        "velocity": 0.71,
        "hand": "right"
      },
      {
        "midi": 74,
        "time": 90.194,
        "duration": 0.194,
        "velocity": 0.71,
        "hand": "right"
      },
      {
        "midi": 82,
        "time": 90.194,
        "duration": 0.194,
        "velocity": 0.71,
        "hand": "right"
      },
      {
        "midi": 53,
        "time": 90.387,
        "duration": 0.194,
        "velocity": 0.71,
        "hand": "left"
      },
      {
        "midi": 58,
        "time": 90.387,
        "duration": 0.194,
        "velocity": 0.71,
        "hand": "left"
      },
      {
        "midi": 65,
        "time": 90.387,
        "duration": 0.194,
        "velocity": 0.71,
        "hand": "right"
      },
      {
        "midi": 74,
        "time": 90.387,
        "duration": 0.194,
        "velocity": 0.71,
        "hand": "right"
      },
      {
        "midi": 82,
        "time": 90.387,
        "duration": 0.194,
        "velocity": 0.71,
        "hand": "right"
      },
      {
        "midi": 53,
        "time": 90.581,
        "duration": 0.387,
        "velocity": 0.71,
        "hand": "left"
      },
      {
        "midi": 65,
        "time": 90.581,
        "duration": 0.387,
        "velocity": 0.71,
        "hand": "right"
      },
      {
        "midi": 72,
        "time": 90.581,
        "duration": 0.387,
        "velocity": 0.71,
        "hand": "right"
      },
      {
        "midi": 81,
        "time": 90.581,
        "duration": 0.387,
        "velocity": 0.71,
        "hand": "right"
      },
      {
        "midi": 53,
        "time": 90.968,
        "duration": 0.387,
        "velocity": 0.71,
        "hand": "left"
      },
      {
        "midi": 53,
        "time": 90.968,
        "duration": 0.194,
        "velocity": 0.71,
        "hand": "left"
      },
      {
        "midi": 57,
        "time": 90.968,
        "duration": 0.194,
        "velocity": 0.71,
        "hand": "left"
      },
      {
        "midi": 60,
        "time": 90.968,
        "duration": 0.194,
        "velocity": 0.71,
        "hand": "right"
      },
      {
        "midi": 65,
        "time": 90.968,
        "duration": 0.194,
        "velocity": 0.71,
        "hand": "right"
      },
      {
        "midi": 53,
        "time": 91.161,
        "duration": 0.194,
        "velocity": 0.71,
        "hand": "left"
      },
      {
        "midi": 57,
        "time": 91.161,
        "duration": 0.194,
        "velocity": 0.71,
        "hand": "left"
      },
      {
        "midi": 60,
        "time": 91.161,
        "duration": 0.194,
        "velocity": 0.71,
        "hand": "right"
      },
      {
        "midi": 65,
        "time": 91.161,
        "duration": 0.194,
        "velocity": 0.71,
        "hand": "right"
      },
      {
        "midi": 58,
        "time": 91.355,
        "duration": 0.387,
        "velocity": 0.71,
        "hand": "left"
      },
      {
        "midi": 62,
        "time": 91.355,
        "duration": 0.387,
        "velocity": 0.71,
        "hand": "right"
      },
      {
        "midi": 65,
        "time": 91.355,
        "duration": 0.387,
        "velocity": 0.71,
        "hand": "right"
      },
      {
        "midi": 53,
        "time": 91.742,
        "duration": 0.194,
        "velocity": 0.71,
        "hand": "left"
      },
      {
        "midi": 58,
        "time": 91.742,
        "duration": 0.194,
        "velocity": 0.71,
        "hand": "left"
      },
      {
        "midi": 65,
        "time": 91.742,
        "duration": 0.194,
        "velocity": 0.71,
        "hand": "right"
      },
      {
        "midi": 74,
        "time": 91.742,
        "duration": 0.194,
        "velocity": 0.71,
        "hand": "right"
      },
      {
        "midi": 82,
        "time": 91.742,
        "duration": 0.194,
        "velocity": 0.71,
        "hand": "right"
      },
      {
        "midi": 53,
        "time": 91.935,
        "duration": 0.194,
        "velocity": 0.71,
        "hand": "left"
      },
      {
        "midi": 58,
        "time": 91.935,
        "duration": 0.194,
        "velocity": 0.71,
        "hand": "left"
      },
      {
        "midi": 65,
        "time": 91.935,
        "duration": 0.194,
        "velocity": 0.71,
        "hand": "right"
      },
      {
        "midi": 74,
        "time": 91.935,
        "duration": 0.194,
        "velocity": 0.71,
        "hand": "right"
      },
      {
        "midi": 82,
        "time": 91.935,
        "duration": 0.194,
        "velocity": 0.71,
        "hand": "right"
      },
      {
        "midi": 53,
        "time": 92.129,
        "duration": 0.387,
        "velocity": 0.71,
        "hand": "left"
      },
      {
        "midi": 65,
        "time": 92.129,
        "duration": 0.387,
        "velocity": 0.71,
        "hand": "right"
      },
      {
        "midi": 72,
        "time": 92.129,
        "duration": 0.387,
        "velocity": 0.71,
        "hand": "right"
      },
      {
        "midi": 81,
        "time": 92.129,
        "duration": 0.387,
        "velocity": 0.71,
        "hand": "right"
      },
      {
        "midi": 53,
        "time": 92.516,
        "duration": 0.194,
        "velocity": 0.71,
        "hand": "left"
      },
      {
        "midi": 57,
        "time": 92.516,
        "duration": 0.194,
        "velocity": 0.71,
        "hand": "left"
      },
      {
        "midi": 60,
        "time": 92.516,
        "duration": 0.194,
        "velocity": 0.71,
        "hand": "right"
      },
      {
        "midi": 65,
        "time": 92.516,
        "duration": 0.194,
        "velocity": 0.71,
        "hand": "right"
      },
      {
        "midi": 53,
        "time": 92.71,
        "duration": 0.194,
        "velocity": 0.71,
        "hand": "left"
      },
      {
        "midi": 57,
        "time": 92.71,
        "duration": 0.194,
        "velocity": 0.71,
        "hand": "left"
      },
      {
        "midi": 60,
        "time": 92.71,
        "duration": 0.194,
        "velocity": 0.71,
        "hand": "right"
      },
      {
        "midi": 65,
        "time": 92.71,
        "duration": 0.194,
        "velocity": 0.71,
        "hand": "right"
      },
      {
        "midi": 58,
        "time": 92.903,
        "duration": 0.387,
        "velocity": 0.71,
        "hand": "left"
      },
      {
        "midi": 62,
        "time": 92.903,
        "duration": 0.387,
        "velocity": 0.71,
        "hand": "right"
      },
      {
        "midi": 65,
        "time": 92.903,
        "duration": 0.387,
        "velocity": 0.71,
        "hand": "right"
      },
      {
        "midi": 53,
        "time": 93.097,
        "duration": 0.194,
        "velocity": 0.71,
        "hand": "left"
      },
      {
        "midi": 53,
        "time": 93.29,
        "duration": 0.194,
        "velocity": 0.71,
        "hand": "left"
      },
      {
        "midi": 58,
        "time": 93.29,
        "duration": 0.194,
        "velocity": 0.71,
        "hand": "left"
      },
      {
        "midi": 65,
        "time": 93.29,
        "duration": 0.194,
        "velocity": 0.71,
        "hand": "right"
      },
      {
        "midi": 74,
        "time": 93.29,
        "duration": 0.194,
        "velocity": 0.71,
        "hand": "right"
      },
      {
        "midi": 82,
        "time": 93.29,
        "duration": 0.194,
        "velocity": 0.71,
        "hand": "right"
      },
      {
        "midi": 53,
        "time": 93.484,
        "duration": 0.194,
        "velocity": 0.71,
        "hand": "left"
      },
      {
        "midi": 58,
        "time": 93.484,
        "duration": 0.194,
        "velocity": 0.71,
        "hand": "left"
      },
      {
        "midi": 65,
        "time": 93.484,
        "duration": 0.194,
        "velocity": 0.71,
        "hand": "right"
      },
      {
        "midi": 74,
        "time": 93.484,
        "duration": 0.194,
        "velocity": 0.71,
        "hand": "right"
      },
      {
        "midi": 82,
        "time": 93.484,
        "duration": 0.194,
        "velocity": 0.71,
        "hand": "right"
      },
      {
        "midi": 53,
        "time": 93.677,
        "duration": 0.194,
        "velocity": 0.71,
        "hand": "left"
      },
      {
        "midi": 65,
        "time": 93.677,
        "duration": 0.387,
        "velocity": 0.71,
        "hand": "right"
      },
      {
        "midi": 72,
        "time": 93.677,
        "duration": 0.194,
        "velocity": 0.71,
        "hand": "right"
      },
      {
        "midi": 81,
        "time": 93.677,
        "duration": 0.194,
        "velocity": 0.71,
        "hand": "right"
      },
      {
        "midi": 53,
        "time": 93.871,
        "duration": 0.194,
        "velocity": 0.71,
        "hand": "left"
      },
      {
        "midi": 69,
        "time": 93.871,
        "duration": 0.194,
        "velocity": 0.71,
        "hand": "right"
      },
      {
        "midi": 72,
        "time": 93.871,
        "duration": 0.194,
        "velocity": 0.71,
        "hand": "right"
      },
      {
        "midi": 53,
        "time": 94.065,
        "duration": 0.194,
        "velocity": 0.71,
        "hand": "left"
      },
      {
        "midi": 58,
        "time": 94.065,
        "duration": 0.194,
        "velocity": 0.71,
        "hand": "left"
      },
      {
        "midi": 70,
        "time": 94.065,
        "duration": 0.194,
        "velocity": 0.71,
        "hand": "right"
      },
      {
        "midi": 74,
        "time": 94.065,
        "duration": 0.194,
        "velocity": 0.71,
        "hand": "right"
      },
      {
        "midi": 53,
        "time": 94.258,
        "duration": 0.194,
        "velocity": 0.71,
        "hand": "left"
      },
      {
        "midi": 58,
        "time": 94.258,
        "duration": 0.194,
        "velocity": 0.71,
        "hand": "left"
      },
      {
        "midi": 70,
        "time": 94.258,
        "duration": 0.194,
        "velocity": 0.71,
        "hand": "right"
      },
      {
        "midi": 74,
        "time": 94.258,
        "duration": 0.194,
        "velocity": 0.71,
        "hand": "right"
      },
      {
        "midi": 53,
        "time": 94.452,
        "duration": 0.194,
        "velocity": 0.71,
        "hand": "left"
      },
      {
        "midi": 69,
        "time": 94.452,
        "duration": 0.194,
        "velocity": 0.71,
        "hand": "right"
      },
      {
        "midi": 72,
        "time": 94.452,
        "duration": 0.194,
        "velocity": 0.71,
        "hand": "right"
      },
      {
        "midi": 53,
        "time": 94.645,
        "duration": 0.194,
        "velocity": 0.71,
        "hand": "left"
      },
      {
        "midi": 69,
        "time": 94.645,
        "duration": 0.194,
        "velocity": 0.71,
        "hand": "right"
      },
      {
        "midi": 72,
        "time": 94.645,
        "duration": 0.194,
        "velocity": 0.71,
        "hand": "right"
      },
      {
        "midi": 53,
        "time": 94.839,
        "duration": 0.194,
        "velocity": 0.71,
        "hand": "left"
      },
      {
        "midi": 58,
        "time": 94.839,
        "duration": 0.194,
        "velocity": 0.71,
        "hand": "left"
      },
      {
        "midi": 70,
        "time": 94.839,
        "duration": 0.194,
        "velocity": 0.71,
        "hand": "right"
      },
      {
        "midi": 74,
        "time": 94.839,
        "duration": 0.194,
        "velocity": 0.71,
        "hand": "right"
      },
      {
        "midi": 53,
        "time": 95.032,
        "duration": 0.194,
        "velocity": 0.71,
        "hand": "left"
      },
      {
        "midi": 58,
        "time": 95.032,
        "duration": 0.194,
        "velocity": 0.71,
        "hand": "left"
      },
      {
        "midi": 70,
        "time": 95.032,
        "duration": 0.194,
        "velocity": 0.71,
        "hand": "right"
      },
      {
        "midi": 74,
        "time": 95.032,
        "duration": 0.194,
        "velocity": 0.71,
        "hand": "right"
      },
      {
        "midi": 53,
        "time": 95.226,
        "duration": 0.194,
        "velocity": 0.71,
        "hand": "left"
      },
      {
        "midi": 69,
        "time": 95.226,
        "duration": 0.194,
        "velocity": 0.71,
        "hand": "right"
      },
      {
        "midi": 72,
        "time": 95.226,
        "duration": 0.194,
        "velocity": 0.71,
        "hand": "right"
      },
      {
        "midi": 53,
        "time": 95.419,
        "duration": 0.194,
        "velocity": 0.71,
        "hand": "left"
      },
      {
        "midi": 65,
        "time": 95.419,
        "duration": 0.194,
        "velocity": 0.71,
        "hand": "right"
      },
      {
        "midi": 81,
        "time": 95.419,
        "duration": 0.194,
        "velocity": 0.71,
        "hand": "right"
      },
      {
        "midi": 84,
        "time": 95.419,
        "duration": 0.194,
        "velocity": 0.71,
        "hand": "right"
      },
      {
        "midi": 53,
        "time": 95.613,
        "duration": 0.194,
        "velocity": 0.71,
        "hand": "left"
      },
      {
        "midi": 58,
        "time": 95.613,
        "duration": 0.194,
        "velocity": 0.71,
        "hand": "left"
      },
      {
        "midi": 65,
        "time": 95.613,
        "duration": 0.194,
        "velocity": 0.71,
        "hand": "right"
      },
      {
        "midi": 82,
        "time": 95.613,
        "duration": 0.194,
        "velocity": 0.71,
        "hand": "right"
      },
      {
        "midi": 86,
        "time": 95.613,
        "duration": 0.194,
        "velocity": 0.71,
        "hand": "right"
      },
      {
        "midi": 53,
        "time": 95.806,
        "duration": 0.194,
        "velocity": 0.71,
        "hand": "left"
      },
      {
        "midi": 58,
        "time": 95.806,
        "duration": 0.194,
        "velocity": 0.71,
        "hand": "left"
      },
      {
        "midi": 65,
        "time": 95.806,
        "duration": 0.194,
        "velocity": 0.71,
        "hand": "right"
      },
      {
        "midi": 82,
        "time": 95.806,
        "duration": 0.194,
        "velocity": 0.71,
        "hand": "right"
      },
      {
        "midi": 86,
        "time": 95.806,
        "duration": 0.194,
        "velocity": 0.71,
        "hand": "right"
      },
      {
        "midi": 53,
        "time": 96,
        "duration": 0.194,
        "velocity": 0.71,
        "hand": "left"
      },
      {
        "midi": 65,
        "time": 96,
        "duration": 0.194,
        "velocity": 0.71,
        "hand": "right"
      },
      {
        "midi": 81,
        "time": 96,
        "duration": 0.194,
        "velocity": 0.71,
        "hand": "right"
      },
      {
        "midi": 84,
        "time": 96,
        "duration": 0.194,
        "velocity": 0.71,
        "hand": "right"
      },
      {
        "midi": 53,
        "time": 96.194,
        "duration": 0.194,
        "velocity": 0.71,
        "hand": "left"
      },
      {
        "midi": 65,
        "time": 96.194,
        "duration": 0.194,
        "velocity": 0.71,
        "hand": "right"
      },
      {
        "midi": 81,
        "time": 96.194,
        "duration": 0.194,
        "velocity": 0.71,
        "hand": "right"
      },
      {
        "midi": 84,
        "time": 96.194,
        "duration": 0.194,
        "velocity": 0.71,
        "hand": "right"
      },
      {
        "midi": 53,
        "time": 96.387,
        "duration": 0.194,
        "velocity": 0.71,
        "hand": "left"
      },
      {
        "midi": 58,
        "time": 96.387,
        "duration": 0.194,
        "velocity": 0.71,
        "hand": "left"
      },
      {
        "midi": 65,
        "time": 96.387,
        "duration": 0.194,
        "velocity": 0.71,
        "hand": "right"
      },
      {
        "midi": 82,
        "time": 96.387,
        "duration": 0.194,
        "velocity": 0.71,
        "hand": "right"
      },
      {
        "midi": 86,
        "time": 96.387,
        "duration": 0.194,
        "velocity": 0.71,
        "hand": "right"
      },
      {
        "midi": 53,
        "time": 96.581,
        "duration": 0.194,
        "velocity": 0.71,
        "hand": "left"
      },
      {
        "midi": 58,
        "time": 96.581,
        "duration": 0.194,
        "velocity": 0.71,
        "hand": "left"
      },
      {
        "midi": 65,
        "time": 96.581,
        "duration": 0.194,
        "velocity": 0.71,
        "hand": "right"
      },
      {
        "midi": 82,
        "time": 96.581,
        "duration": 0.194,
        "velocity": 0.71,
        "hand": "right"
      },
      {
        "midi": 86,
        "time": 96.581,
        "duration": 0.194,
        "velocity": 0.71,
        "hand": "right"
      },
      {
        "midi": 53,
        "time": 96.774,
        "duration": 0.387,
        "velocity": 0.71,
        "hand": "left"
      },
      {
        "midi": 65,
        "time": 96.774,
        "duration": 0.387,
        "velocity": 0.71,
        "hand": "right"
      },
      {
        "midi": 81,
        "time": 96.774,
        "duration": 0.387,
        "velocity": 0.71,
        "hand": "right"
      },
      {
        "midi": 84,
        "time": 96.774,
        "duration": 0.387,
        "velocity": 0.71,
        "hand": "right"
      },
      {
        "midi": 53,
        "time": 97.548,
        "duration": 0.387,
        "velocity": 0.71,
        "hand": "left"
      },
      {
        "midi": 65,
        "time": 97.548,
        "duration": 0.387,
        "velocity": 0.71,
        "hand": "right"
      },
      {
        "midi": 77,
        "time": 97.548,
        "duration": 0.387,
        "velocity": 0.71,
        "hand": "right"
      },
      {
        "midi": 57,
        "time": 97.935,
        "duration": 0.387,
        "velocity": 0.71,
        "hand": "left"
      },
      {
        "midi": 69,
        "time": 97.935,
        "duration": 0.387,
        "velocity": 0.71,
        "hand": "right"
      },
      {
        "midi": 81,
        "time": 97.935,
        "duration": 0.387,
        "velocity": 0.71,
        "hand": "right"
      },
      {
        "midi": 46,
        "time": 98.323,
        "duration": 0.774,
        "velocity": 0.71,
        "hand": "left"
      },
      {
        "midi": 46,
        "time": 98.323,
        "duration": 0.387,
        "velocity": 0.71,
        "hand": "left"
      },
      {
        "midi": 58,
        "time": 98.71,
        "duration": 0.387,
        "velocity": 0.71,
        "hand": "left"
      },
      {
        "midi": 70,
        "time": 98.71,
        "duration": 0.387,
        "velocity": 0.71,
        "hand": "right"
      },
      {
        "midi": 50,
        "time": 99.097,
        "duration": 0.774,
        "velocity": 0.71,
        "hand": "left"
      },
      {
        "midi": 50,
        "time": 99.097,
        "duration": 0.387,
        "velocity": 0.71,
        "hand": "left"
      },
      {
        "midi": 62,
        "time": 99.484,
        "duration": 0.387,
        "velocity": 0.71,
        "hand": "right"
      },
      {
        "midi": 74,
        "time": 99.484,
        "duration": 0.387,
        "velocity": 0.71,
        "hand": "right"
      },
      {
        "midi": 48,
        "time": 99.871,
        "duration": 0.774,
        "velocity": 0.71,
        "hand": "left"
      },
      {
        "midi": 48,
        "time": 99.871,
        "duration": 0.387,
        "velocity": 0.71,
        "hand": "left"
      },
      {
        "midi": 60,
        "time": 100.258,
        "duration": 0.387,
        "velocity": 0.71,
        "hand": "right"
      },
      {
        "midi": 72,
        "time": 100.258,
        "duration": 0.387,
        "velocity": 0.71,
        "hand": "right"
      },
      {
        "midi": 52,
        "time": 100.645,
        "duration": 0.774,
        "velocity": 0.71,
        "hand": "left"
      },
      {
        "midi": 52,
        "time": 100.645,
        "duration": 0.387,
        "velocity": 0.71,
        "hand": "left"
      },
      {
        "midi": 64,
        "time": 101.032,
        "duration": 0.387,
        "velocity": 0.71,
        "hand": "right"
      },
      {
        "midi": 76,
        "time": 101.032,
        "duration": 0.387,
        "velocity": 0.71,
        "hand": "right"
      },
      {
        "midi": 53,
        "time": 101.419,
        "duration": 0.194,
        "velocity": 0.71,
        "hand": "left"
      },
      {
        "midi": 53,
        "time": 101.419,
        "duration": 0.387,
        "velocity": 0.71,
        "hand": "left"
      },
      {
        "midi": 65,
        "time": 101.419,
        "duration": 0.194,
        "velocity": 0.71,
        "hand": "right"
      },
      {
        "midi": 77,
        "time": 101.613,
        "duration": 0.194,
        "velocity": 0.71,
        "hand": "right"
      },
      {
        "midi": 57,
        "time": 101.806,
        "duration": 0.194,
        "velocity": 0.71,
        "hand": "left"
      },
      {
        "midi": 69,
        "time": 101.806,
        "duration": 0.194,
        "velocity": 0.71,
        "hand": "right"
      },
      {
        "midi": 81,
        "time": 102,
        "duration": 0.194,
        "velocity": 0.71,
        "hand": "right"
      },
      {
        "midi": 60,
        "time": 102.194,
        "duration": 0.194,
        "velocity": 0.71,
        "hand": "right"
      },
      {
        "midi": 72,
        "time": 102.194,
        "duration": 0.194,
        "velocity": 0.71,
        "hand": "right"
      },
      {
        "midi": 84,
        "time": 102.387,
        "duration": 0.194,
        "velocity": 0.71,
        "hand": "right"
      },
      {
        "midi": 57,
        "time": 102.581,
        "duration": 0.194,
        "velocity": 0.71,
        "hand": "left"
      },
      {
        "midi": 69,
        "time": 102.581,
        "duration": 0.194,
        "velocity": 0.71,
        "hand": "right"
      },
      {
        "midi": 81,
        "time": 102.774,
        "duration": 0.194,
        "velocity": 0.71,
        "hand": "right"
      },
      {
        "midi": 53,
        "time": 102.968,
        "duration": 0.194,
        "velocity": 0.71,
        "hand": "left"
      },
      {
        "midi": 65,
        "time": 102.968,
        "duration": 0.194,
        "velocity": 0.71,
        "hand": "right"
      },
      {
        "midi": 77,
        "time": 103.161,
        "duration": 0.194,
        "velocity": 0.71,
        "hand": "right"
      },
      {
        "midi": 48,
        "time": 103.355,
        "duration": 0.194,
        "velocity": 0.71,
        "hand": "left"
      },
      {
        "midi": 60,
        "time": 103.355,
        "duration": 0.194,
        "velocity": 0.71,
        "hand": "right"
      },
      {
        "midi": 72,
        "time": 103.548,
        "duration": 0.194,
        "velocity": 0.71,
        "hand": "right"
      },
      {
        "midi": 45,
        "time": 103.742,
        "duration": 0.387,
        "velocity": 0.71,
        "hand": "left"
      },
      {
        "midi": 46,
        "time": 103.742,
        "duration": 0.194,
        "velocity": 0.71,
        "hand": "left"
      },
      {
        "midi": 57,
        "time": 103.742,
        "duration": 0.387,
        "velocity": 0.71,
        "hand": "left"
      },
      {
        "midi": 69,
        "time": 103.742,
        "duration": 0.387,
        "velocity": 0.71,
        "hand": "right"
      },
      {
        "midi": 48,
        "time": 104.129,
        "duration": 0.387,
        "velocity": 0.71,
        "hand": "left"
      },
      {
        "midi": 60,
        "time": 104.129,
        "duration": 0.387,
        "velocity": 0.71,
        "hand": "right"
      },
      {
        "midi": 72,
        "time": 104.129,
        "duration": 0.387,
        "velocity": 0.71,
        "hand": "right"
      },
      {
        "midi": 46,
        "time": 104.516,
        "duration": 0.774,
        "velocity": 0.71,
        "hand": "left"
      },
      {
        "midi": 46,
        "time": 104.516,
        "duration": 0.387,
        "velocity": 0.71,
        "hand": "left"
      },
      {
        "midi": 58,
        "time": 104.903,
        "duration": 0.387,
        "velocity": 0.71,
        "hand": "left"
      },
      {
        "midi": 70,
        "time": 104.903,
        "duration": 0.387,
        "velocity": 0.71,
        "hand": "right"
      },
      {
        "midi": 50,
        "time": 105.29,
        "duration": 0.774,
        "velocity": 0.71,
        "hand": "left"
      },
      {
        "midi": 50,
        "time": 105.29,
        "duration": 0.387,
        "velocity": 0.71,
        "hand": "left"
      },
      {
        "midi": 62,
        "time": 105.677,
        "duration": 0.387,
        "velocity": 0.71,
        "hand": "right"
      },
      {
        "midi": 74,
        "time": 105.677,
        "duration": 0.387,
        "velocity": 0.71,
        "hand": "right"
      },
      {
        "midi": 48,
        "time": 106.065,
        "duration": 1.161,
        "velocity": 0.71,
        "hand": "left"
      },
      {
        "midi": 48,
        "time": 106.065,
        "duration": 0.387,
        "velocity": 0.71,
        "hand": "left"
      },
      {
        "midi": 53,
        "time": 106.065,
        "duration": 0.774,
        "velocity": 0.71,
        "hand": "left"
      },
      {
        "midi": 57,
        "time": 106.065,
        "duration": 0.774,
        "velocity": 0.71,
        "hand": "left"
      },
      {
        "midi": 60,
        "time": 106.452,
        "duration": 0.387,
        "velocity": 0.71,
        "hand": "right"
      },
      {
        "midi": 72,
        "time": 106.452,
        "duration": 0.387,
        "velocity": 0.71,
        "hand": "right"
      },
      {
        "midi": 48,
        "time": 106.839,
        "duration": 0.387,
        "velocity": 0.71,
        "hand": "left"
      },
      {
        "midi": 52,
        "time": 106.839,
        "duration": 0.774,
        "velocity": 0.71,
        "hand": "left"
      },
      {
        "midi": 55,
        "time": 106.839,
        "duration": 0.774,
        "velocity": 0.71,
        "hand": "left"
      },
      {
        "midi": 50,
        "time": 107.226,
        "duration": 0.194,
        "velocity": 0.71,
        "hand": "left"
      },
      {
        "midi": 60,
        "time": 107.226,
        "duration": 0.387,
        "velocity": 0.71,
        "hand": "right"
      },
      {
        "midi": 72,
        "time": 107.226,
        "duration": 0.387,
        "velocity": 0.71,
        "hand": "right"
      },
      {
        "midi": 52,
        "time": 107.419,
        "duration": 0.194,
        "velocity": 0.71,
        "hand": "left"
      },
      {
        "midi": 41,
        "time": 107.613,
        "duration": 0.194,
        "velocity": 0.71,
        "hand": "left"
      },
      {
        "midi": 53,
        "time": 107.613,
        "duration": 0.387,
        "velocity": 0.71,
        "hand": "left"
      },
      {
        "midi": 60,
        "time": 107.613,
        "duration": 0.097,
        "velocity": 0.71,
        "hand": "right"
      },
      {
        "midi": 65,
        "time": 107.613,
        "duration": 0.097,
        "velocity": 0.71,
        "hand": "right"
      },
      {
        "midi": 57,
        "time": 107.71,
        "duration": 0.097,
        "velocity": 0.71,
        "hand": "left"
      },
      {
        "midi": 53,
        "time": 107.806,
        "duration": 0.194,
        "velocity": 0.71,
        "hand": "left"
      },
      {
        "midi": 60,
        "time": 107.806,
        "duration": 0.097,
        "velocity": 0.71,
        "hand": "right"
      },
      {
        "midi": 65,
        "time": 107.806,
        "duration": 0.097,
        "velocity": 0.71,
        "hand": "right"
      },
      {
        "midi": 57,
        "time": 107.903,
        "duration": 0.097,
        "velocity": 0.71,
        "hand": "left"
      },
      {
        "midi": 41,
        "time": 108,
        "duration": 0.194,
        "velocity": 0.71,
        "hand": "left"
      },
      {
        "midi": 60,
        "time": 108,
        "duration": 0.097,
        "velocity": 0.71,
        "hand": "right"
      },
      {
        "midi": 65,
        "time": 108,
        "duration": 0.097,
        "velocity": 0.71,
        "hand": "right"
      },
      {
        "midi": 57,
        "time": 108.097,
        "duration": 0.097,
        "velocity": 0.71,
        "hand": "left"
      },
      {
        "midi": 53,
        "time": 108.194,
        "duration": 0.194,
        "velocity": 0.71,
        "hand": "left"
      },
      {
        "midi": 60,
        "time": 108.194,
        "duration": 0.097,
        "velocity": 0.71,
        "hand": "right"
      },
      {
        "midi": 65,
        "time": 108.194,
        "duration": 0.097,
        "velocity": 0.71,
        "hand": "right"
      },
      {
        "midi": 57,
        "time": 108.29,
        "duration": 0.097,
        "velocity": 0.71,
        "hand": "left"
      },
      {
        "midi": 41,
        "time": 108.387,
        "duration": 0.194,
        "velocity": 0.71,
        "hand": "left"
      },
      {
        "midi": 60,
        "time": 108.387,
        "duration": 0.097,
        "velocity": 0.71,
        "hand": "right"
      },
      {
        "midi": 65,
        "time": 108.387,
        "duration": 0.097,
        "velocity": 0.71,
        "hand": "right"
      },
      {
        "midi": 57,
        "time": 108.484,
        "duration": 0.097,
        "velocity": 0.71,
        "hand": "left"
      },
      {
        "midi": 53,
        "time": 108.581,
        "duration": 0.194,
        "velocity": 0.71,
        "hand": "left"
      },
      {
        "midi": 60,
        "time": 108.581,
        "duration": 0.097,
        "velocity": 0.71,
        "hand": "right"
      },
      {
        "midi": 65,
        "time": 108.581,
        "duration": 0.097,
        "velocity": 0.71,
        "hand": "right"
      },
      {
        "midi": 57,
        "time": 108.677,
        "duration": 0.097,
        "velocity": 0.71,
        "hand": "left"
      },
      {
        "midi": 41,
        "time": 108.774,
        "duration": 0.194,
        "velocity": 0.71,
        "hand": "left"
      },
      {
        "midi": 64,
        "time": 108.774,
        "duration": 0.097,
        "velocity": 0.71,
        "hand": "right"
      },
      {
        "midi": 67,
        "time": 108.774,
        "duration": 0.097,
        "velocity": 0.71,
        "hand": "right"
      },
      {
        "midi": 58,
        "time": 108.871,
        "duration": 0.097,
        "velocity": 0.71,
        "hand": "left"
      },
      {
        "midi": 53,
        "time": 108.968,
        "duration": 0.194,
        "velocity": 0.71,
        "hand": "left"
      },
      {
        "midi": 64,
        "time": 108.968,
        "duration": 0.097,
        "velocity": 0.71,
        "hand": "right"
      },
      {
        "midi": 67,
        "time": 108.968,
        "duration": 0.097,
        "velocity": 0.71,
        "hand": "right"
      },
      {
        "midi": 58,
        "time": 109.065,
        "duration": 0.097,
        "velocity": 0.71,
        "hand": "left"
      },
      {
        "midi": 41,
        "time": 109.161,
        "duration": 0.194,
        "velocity": 0.71,
        "hand": "left"
      },
      {
        "midi": 63,
        "time": 109.161,
        "duration": 0.097,
        "velocity": 0.71,
        "hand": "right"
      },
      {
        "midi": 65,
        "time": 109.161,
        "duration": 0.097,
        "velocity": 0.71,
        "hand": "right"
      },
      {
        "midi": 69,
        "time": 109.161,
        "duration": 0.097,
        "velocity": 0.71,
        "hand": "right"
      },
      {
        "midi": 60,
        "time": 109.258,
        "duration": 0.097,
        "velocity": 0.71,
        "hand": "right"
      },
      {
        "midi": 53,
        "time": 109.355,
        "duration": 0.194,
        "velocity": 0.71,
        "hand": "left"
      },
      {
        "midi": 63,
        "time": 109.355,
        "duration": 0.097,
        "velocity": 0.71,
        "hand": "right"
      },
      {
        "midi": 65,
        "time": 109.355,
        "duration": 0.097,
        "velocity": 0.71,
        "hand": "right"
      },
      {
        "midi": 69,
        "time": 109.355,
        "duration": 0.097,
        "velocity": 0.71,
        "hand": "right"
      },
      {
        "midi": 60,
        "time": 109.452,
        "duration": 0.097,
        "velocity": 0.71,
        "hand": "right"
      },
      {
        "midi": 41,
        "time": 109.548,
        "duration": 0.194,
        "velocity": 0.71,
        "hand": "left"
      },
      {
        "midi": 65,
        "time": 109.548,
        "duration": 0.097,
        "velocity": 0.71,
        "hand": "right"
      },
      {
        "midi": 70,
        "time": 109.548,
        "duration": 0.097,
        "velocity": 0.71,
        "hand": "right"
      },
      {
        "midi": 62,
        "time": 109.645,
        "duration": 0.097,
        "velocity": 0.71,
        "hand": "right"
      },
      {
        "midi": 53,
        "time": 109.742,
        "duration": 0.194,
        "velocity": 0.71,
        "hand": "left"
      },
      {
        "midi": 65,
        "time": 109.742,
        "duration": 0.097,
        "velocity": 0.71,
        "hand": "right"
      },
      {
        "midi": 70,
        "time": 109.742,
        "duration": 0.097,
        "velocity": 0.71,
        "hand": "right"
      },
      {
        "midi": 62,
        "time": 109.839,
        "duration": 0.097,
        "velocity": 0.71,
        "hand": "right"
      },
      {
        "midi": 41,
        "time": 109.935,
        "duration": 0.194,
        "velocity": 0.71,
        "hand": "left"
      },
      {
        "midi": 69,
        "time": 109.935,
        "duration": 0.097,
        "velocity": 0.71,
        "hand": "right"
      },
      {
        "midi": 72,
        "time": 109.935,
        "duration": 0.097,
        "velocity": 0.71,
        "hand": "right"
      },
      {
        "midi": 65,
        "time": 110.032,
        "duration": 0.097,
        "velocity": 0.71,
        "hand": "right"
      },
      {
        "midi": 53,
        "time": 110.129,
        "duration": 0.194,
        "velocity": 0.71,
        "hand": "left"
      },
      {
        "midi": 69,
        "time": 110.129,
        "duration": 0.097,
        "velocity": 0.71,
        "hand": "right"
      },
      {
        "midi": 72,
        "time": 110.129,
        "duration": 0.097,
        "velocity": 0.71,
        "hand": "right"
      },
      {
        "midi": 65,
        "time": 110.226,
        "duration": 0.097,
        "velocity": 0.71,
        "hand": "right"
      },
      {
        "midi": 41,
        "time": 110.323,
        "duration": 0.194,
        "velocity": 0.71,
        "hand": "left"
      },
      {
        "midi": 70,
        "time": 110.323,
        "duration": 0.097,
        "velocity": 0.71,
        "hand": "right"
      },
      {
        "midi": 74,
        "time": 110.323,
        "duration": 0.097,
        "velocity": 0.71,
        "hand": "right"
      },
      {
        "midi": 65,
        "time": 110.419,
        "duration": 0.097,
        "velocity": 0.71,
        "hand": "right"
      },
      {
        "midi": 53,
        "time": 110.516,
        "duration": 0.194,
        "velocity": 0.71,
        "hand": "left"
      },
      {
        "midi": 70,
        "time": 110.516,
        "duration": 0.097,
        "velocity": 0.71,
        "hand": "right"
      },
      {
        "midi": 74,
        "time": 110.516,
        "duration": 0.097,
        "velocity": 0.71,
        "hand": "right"
      },
      {
        "midi": 65,
        "time": 110.613,
        "duration": 0.097,
        "velocity": 0.71,
        "hand": "right"
      },
      {
        "midi": 41,
        "time": 110.71,
        "duration": 0.194,
        "velocity": 0.71,
        "hand": "left"
      },
      {
        "midi": 72,
        "time": 110.71,
        "duration": 0.097,
        "velocity": 0.71,
        "hand": "right"
      },
      {
        "midi": 75,
        "time": 110.71,
        "duration": 0.097,
        "velocity": 0.71,
        "hand": "right"
      },
      {
        "midi": 65,
        "time": 110.806,
        "duration": 0.097,
        "velocity": 0.71,
        "hand": "right"
      },
      {
        "midi": 53,
        "time": 110.903,
        "duration": 0.194,
        "velocity": 0.71,
        "hand": "left"
      },
      {
        "midi": 72,
        "time": 110.903,
        "duration": 0.097,
        "velocity": 0.71,
        "hand": "right"
      },
      {
        "midi": 75,
        "time": 110.903,
        "duration": 0.097,
        "velocity": 0.71,
        "hand": "right"
      },
      {
        "midi": 65,
        "time": 111,
        "duration": 0.097,
        "velocity": 0.71,
        "hand": "right"
      },
      {
        "midi": 41,
        "time": 111.097,
        "duration": 0.194,
        "velocity": 0.71,
        "hand": "left"
      },
      {
        "midi": 74,
        "time": 111.097,
        "duration": 0.097,
        "velocity": 0.71,
        "hand": "right"
      },
      {
        "midi": 77,
        "time": 111.097,
        "duration": 0.097,
        "velocity": 0.71,
        "hand": "right"
      },
      {
        "midi": 65,
        "time": 111.194,
        "duration": 0.097,
        "velocity": 0.71,
        "hand": "right"
      },
      {
        "midi": 53,
        "time": 111.29,
        "duration": 0.194,
        "velocity": 0.71,
        "hand": "left"
      },
      {
        "midi": 74,
        "time": 111.29,
        "duration": 0.097,
        "velocity": 0.71,
        "hand": "right"
      },
      {
        "midi": 77,
        "time": 111.29,
        "duration": 0.097,
        "velocity": 0.71,
        "hand": "right"
      },
      {
        "midi": 65,
        "time": 111.387,
        "duration": 0.097,
        "velocity": 0.71,
        "hand": "right"
      },
      {
        "midi": 41,
        "time": 111.484,
        "duration": 0.194,
        "velocity": 0.71,
        "hand": "left"
      },
      {
        "midi": 75,
        "time": 111.484,
        "duration": 0.097,
        "velocity": 0.71,
        "hand": "right"
      },
      {
        "midi": 79,
        "time": 111.484,
        "duration": 0.097,
        "velocity": 0.71,
        "hand": "right"
      },
      {
        "midi": 65,
        "time": 111.581,
        "duration": 0.097,
        "velocity": 0.71,
        "hand": "right"
      },
      {
        "midi": 53,
        "time": 111.677,
        "duration": 0.194,
        "velocity": 0.71,
        "hand": "left"
      },
      {
        "midi": 75,
        "time": 111.677,
        "duration": 0.097,
        "velocity": 0.71,
        "hand": "right"
      },
      {
        "midi": 79,
        "time": 111.677,
        "duration": 0.097,
        "velocity": 0.71,
        "hand": "right"
      },
      {
        "midi": 65,
        "time": 111.774,
        "duration": 0.097,
        "velocity": 0.71,
        "hand": "right"
      },
      {
        "midi": 41,
        "time": 111.871,
        "duration": 0.194,
        "velocity": 0.71,
        "hand": "left"
      },
      {
        "midi": 75,
        "time": 111.871,
        "duration": 0.097,
        "velocity": 0.71,
        "hand": "right"
      },
      {
        "midi": 77,
        "time": 111.871,
        "duration": 0.097,
        "velocity": 0.71,
        "hand": "right"
      },
      {
        "midi": 81,
        "time": 111.871,
        "duration": 0.097,
        "velocity": 0.71,
        "hand": "right"
      },
      {
        "midi": 72,
        "time": 111.968,
        "duration": 0.097,
        "velocity": 0.71,
        "hand": "right"
      },
      {
        "midi": 53,
        "time": 112.065,
        "duration": 0.194,
        "velocity": 0.71,
        "hand": "left"
      },
      {
        "midi": 75,
        "time": 112.065,
        "duration": 0.097,
        "velocity": 0.71,
        "hand": "right"
      },
      {
        "midi": 77,
        "time": 112.065,
        "duration": 0.097,
        "velocity": 0.71,
        "hand": "right"
      },
      {
        "midi": 81,
        "time": 112.065,
        "duration": 0.097,
        "velocity": 0.71,
        "hand": "right"
      },
      {
        "midi": 72,
        "time": 112.161,
        "duration": 0.097,
        "velocity": 0.71,
        "hand": "right"
      },
      {
        "midi": 46,
        "time": 112.258,
        "duration": 0.097,
        "velocity": 0.71,
        "hand": "left"
      },
      {
        "midi": 50,
        "time": 112.258,
        "duration": 0.097,
        "velocity": 0.71,
        "hand": "left"
      },
      {
        "midi": 53,
        "time": 112.258,
        "duration": 0.097,
        "velocity": 0.71,
        "hand": "left"
      },
      {
        "midi": 82,
        "time": 112.258,
        "duration": 0.194,
        "velocity": 0.71,
        "hand": "right"
      },
      {
        "midi": 58,
        "time": 112.355,
        "duration": 0.097,
        "velocity": 0.71,
        "hand": "left"
      },
      {
        "midi": 46,
        "time": 112.452,
        "duration": 0.097,
        "velocity": 0.71,
        "hand": "left"
      },
      {
        "midi": 50,
        "time": 112.452,
        "duration": 0.097,
        "velocity": 0.71,
        "hand": "left"
      },
      {
        "midi": 53,
        "time": 112.452,
        "duration": 0.097,
        "velocity": 0.71,
        "hand": "left"
      },
      {
        "midi": 77,
        "time": 112.452,
        "duration": 0.194,
        "velocity": 0.71,
        "hand": "right"
      },
      {
        "midi": 58,
        "time": 112.548,
        "duration": 0.097,
        "velocity": 0.71,
        "hand": "left"
      },
      {
        "midi": 46,
        "time": 112.645,
        "duration": 0.097,
        "velocity": 0.71,
        "hand": "left"
      },
      {
        "midi": 50,
        "time": 112.645,
        "duration": 0.097,
        "velocity": 0.71,
        "hand": "left"
      },
      {
        "midi": 53,
        "time": 112.645,
        "duration": 0.097,
        "velocity": 0.71,
        "hand": "left"
      },
      {
        "midi": 74,
        "time": 112.645,
        "duration": 0.194,
        "velocity": 0.71,
        "hand": "right"
      },
      {
        "midi": 58,
        "time": 112.742,
        "duration": 0.097,
        "velocity": 0.71,
        "hand": "left"
      },
      {
        "midi": 46,
        "time": 112.839,
        "duration": 0.097,
        "velocity": 0.71,
        "hand": "left"
      },
      {
        "midi": 50,
        "time": 112.839,
        "duration": 0.097,
        "velocity": 0.71,
        "hand": "left"
      },
      {
        "midi": 53,
        "time": 112.839,
        "duration": 0.097,
        "velocity": 0.71,
        "hand": "left"
      },
      {
        "midi": 77,
        "time": 112.839,
        "duration": 0.194,
        "velocity": 0.71,
        "hand": "right"
      },
      {
        "midi": 58,
        "time": 112.935,
        "duration": 0.097,
        "velocity": 0.71,
        "hand": "left"
      },
      {
        "midi": 46,
        "time": 113.032,
        "duration": 0.387,
        "velocity": 0.71,
        "hand": "left"
      },
      {
        "midi": 50,
        "time": 113.032,
        "duration": 0.387,
        "velocity": 0.71,
        "hand": "left"
      },
      {
        "midi": 53,
        "time": 113.032,
        "duration": 0.387,
        "velocity": 0.71,
        "hand": "left"
      },
      {
        "midi": 58,
        "time": 113.032,
        "duration": 0.387,
        "velocity": 0.71,
        "hand": "left"
      },
      {
        "midi": 82,
        "time": 113.032,
        "duration": 0.387,
        "velocity": 0.71,
        "hand": "right"
      }
    ]
  },
  "notes1Hand": [
    {
      "midi": 65,
      "time": 0,
      "duration": 0.194,
      "velocity": 0.71,
      "hand": "right"
    },
    {
      "midi": 60,
      "time": 0.387,
      "duration": 0.194,
      "velocity": 0.71,
      "hand": "right"
    },
    {
      "midi": 65,
      "time": 0.774,
      "duration": 0.194,
      "velocity": 0.71,
      "hand": "right"
    },
    {
      "midi": 60,
      "time": 1.161,
      "duration": 0.194,
      "velocity": 0.71,
      "hand": "right"
    },
    {
      "midi": 65,
      "time": 1.548,
      "duration": 0.387,
      "velocity": 0.71,
      "hand": "right"
    },
    {
      "midi": 60,
      "time": 2.129,
      "duration": 0.129,
      "velocity": 0.71,
      "hand": "right"
    },
    {
      "midi": 64,
      "time": 2.226,
      "duration": 0.129,
      "velocity": 0.71,
      "hand": "right"
    },
    {
      "midi": 65,
      "time": 2.323,
      "duration": 0.387,
      "velocity": 0.71,
      "hand": "right"
    },
    {
      "midi": 67,
      "time": 3.097,
      "duration": 0.194,
      "velocity": 0.71,
      "hand": "right"
    },
    {
      "midi": 60,
      "time": 3.484,
      "duration": 0.194,
      "velocity": 0.71,
      "hand": "right"
    },
    {
      "midi": 67,
      "time": 3.871,
      "duration": 0.194,
      "velocity": 0.71,
      "hand": "right"
    },
    {
      "midi": 60,
      "time": 4.258,
      "duration": 0.194,
      "velocity": 0.71,
      "hand": "right"
    },
    {
      "midi": 67,
      "time": 4.645,
      "duration": 0.387,
      "velocity": 0.71,
      "hand": "right"
    },
    {
      "midi": 67,
      "time": 5.419,
      "duration": 0.387,
      "velocity": 0.71,
      "hand": "right"
    },
    {
      "midi": 69,
      "time": 6.194,
      "duration": 0.194,
      "velocity": 0.71,
      "hand": "right"
    },
    {
      "midi": 65,
      "time": 6.581,
      "duration": 0.194,
      "velocity": 0.71,
      "hand": "right"
    },
    {
      "midi": 69,
      "time": 6.968,
      "duration": 0.194,
      "velocity": 0.71,
      "hand": "right"
    },
    {
      "midi": 65,
      "time": 7.355,
      "duration": 0.194,
      "velocity": 0.71,
      "hand": "right"
    },
    {
      "midi": 69,
      "time": 7.742,
      "duration": 0.387,
      "velocity": 0.71,
      "hand": "right"
    },
    {
      "midi": 65,
      "time": 8.323,
      "duration": 0.129,
      "velocity": 0.71,
      "hand": "right"
    },
    {
      "midi": 67,
      "time": 8.419,
      "duration": 0.129,
      "velocity": 0.71,
      "hand": "right"
    },
    {
      "midi": 69,
      "time": 8.516,
      "duration": 0.387,
      "velocity": 0.71,
      "hand": "right"
    },
    {
      "midi": 70,
      "time": 9.29,
      "duration": 0.194,
      "velocity": 0.71,
      "hand": "right"
    },
    {
      "midi": 67,
      "time": 9.677,
      "duration": 0.194,
      "velocity": 0.71,
      "hand": "right"
    },
    {
      "midi": 70,
      "time": 10.065,
      "duration": 0.194,
      "velocity": 0.71,
      "hand": "right"
    },
    {
      "midi": 67,
      "time": 10.452,
      "duration": 0.194,
      "velocity": 0.71,
      "hand": "right"
    },
    {
      "midi": 70,
      "time": 10.839,
      "duration": 0.387,
      "velocity": 0.71,
      "hand": "right"
    },
    {
      "midi": 67,
      "time": 11.419,
      "duration": 0.129,
      "velocity": 0.71,
      "hand": "right"
    },
    {
      "midi": 69,
      "time": 11.516,
      "duration": 0.129,
      "velocity": 0.71,
      "hand": "right"
    },
    {
      "midi": 70,
      "time": 11.613,
      "duration": 0.387,
      "velocity": 0.71,
      "hand": "right"
    },
    {
      "midi": 79,
      "time": 12.387,
      "duration": 0.387,
      "velocity": 0.71,
      "hand": "right"
    },
    {
      "midi": 82,
      "time": 13.161,
      "duration": 0.194,
      "velocity": 0.71,
      "hand": "right"
    },
    {
      "midi": 81,
      "time": 13.355,
      "duration": 0.129,
      "velocity": 0.71,
      "hand": "right"
    },
    {
      "midi": 79,
      "time": 13.452,
      "duration": 0.129,
      "velocity": 0.71,
      "hand": "right"
    },
    {
      "midi": 77,
      "time": 13.548,
      "duration": 0.129,
      "velocity": 0.71,
      "hand": "right"
    },
    {
      "midi": 76,
      "time": 13.645,
      "duration": 0.129,
      "velocity": 0.71,
      "hand": "right"
    },
    {
      "midi": 74,
      "time": 13.742,
      "duration": 0.129,
      "velocity": 0.71,
      "hand": "right"
    },
    {
      "midi": 72,
      "time": 13.839,
      "duration": 0.129,
      "velocity": 0.71,
      "hand": "right"
    },
    {
      "midi": 70,
      "time": 13.935,
      "duration": 0.194,
      "velocity": 0.71,
      "hand": "right"
    },
    {
      "midi": 69,
      "time": 14.129,
      "duration": 0.129,
      "velocity": 0.71,
      "hand": "right"
    },
    {
      "midi": 67,
      "time": 14.226,
      "duration": 0.129,
      "velocity": 0.71,
      "hand": "right"
    },
    {
      "midi": 65,
      "time": 14.323,
      "duration": 0.129,
      "velocity": 0.71,
      "hand": "right"
    },
    {
      "midi": 64,
      "time": 14.419,
      "duration": 0.129,
      "velocity": 0.71,
      "hand": "right"
    },
    {
      "midi": 62,
      "time": 14.516,
      "duration": 0.129,
      "velocity": 0.71,
      "hand": "right"
    },
    {
      "midi": 60,
      "time": 14.613,
      "duration": 0.129,
      "velocity": 0.71,
      "hand": "right"
    },
    {
      "midi": 58,
      "time": 14.71,
      "duration": 0.774,
      "velocity": 0.71,
      "hand": "right"
    },
    {
      "midi": 65,
      "time": 15.484,
      "duration": 0.194,
      "velocity": 0.71,
      "hand": "right"
    },
    {
      "midi": 60,
      "time": 15.871,
      "duration": 0.194,
      "velocity": 0.71,
      "hand": "right"
    },
    {
      "midi": 65,
      "time": 16.258,
      "duration": 0.194,
      "velocity": 0.71,
      "hand": "right"
    },
    {
      "midi": 60,
      "time": 16.645,
      "duration": 0.194,
      "velocity": 0.71,
      "hand": "right"
    },
    {
      "midi": 65,
      "time": 17.032,
      "duration": 0.387,
      "velocity": 0.71,
      "hand": "right"
    },
    {
      "midi": 48,
      "time": 17.419,
      "duration": 0.387,
      "velocity": 0.71,
      "hand": "right"
    },
    {
      "midi": 60,
      "time": 17.613,
      "duration": 0.129,
      "velocity": 0.71,
      "hand": "right"
    },
    {
      "midi": 64,
      "time": 17.71,
      "duration": 0.129,
      "velocity": 0.71,
      "hand": "right"
    },
    {
      "midi": 65,
      "time": 17.806,
      "duration": 0.387,
      "velocity": 0.71,
      "hand": "right"
    },
    {
      "midi": 67,
      "time": 18.581,
      "duration": 0.194,
      "velocity": 0.71,
      "hand": "right"
    },
    {
      "midi": 60,
      "time": 18.968,
      "duration": 0.194,
      "velocity": 0.71,
      "hand": "right"
    },
    {
      "midi": 67,
      "time": 19.355,
      "duration": 0.194,
      "velocity": 0.71,
      "hand": "right"
    },
    {
      "midi": 60,
      "time": 19.742,
      "duration": 0.194,
      "velocity": 0.71,
      "hand": "right"
    },
    {
      "midi": 67,
      "time": 20.129,
      "duration": 0.387,
      "velocity": 0.71,
      "hand": "right"
    },
    {
      "midi": 48,
      "time": 20.516,
      "duration": 0.387,
      "velocity": 0.71,
      "hand": "right"
    },
    {
      "midi": 67,
      "time": 20.903,
      "duration": 0.387,
      "velocity": 0.71,
      "hand": "right"
    },
    {
      "midi": 69,
      "time": 21.677,
      "duration": 0.194,
      "velocity": 0.71,
      "hand": "right"
    },
    {
      "midi": 65,
      "time": 22.065,
      "duration": 0.194,
      "velocity": 0.71,
      "hand": "right"
    },
    {
      "midi": 69,
      "time": 22.452,
      "duration": 0.194,
      "velocity": 0.71,
      "hand": "right"
    },
    {
      "midi": 65,
      "time": 22.839,
      "duration": 0.194,
      "velocity": 0.71,
      "hand": "right"
    },
    {
      "midi": 69,
      "time": 23.226,
      "duration": 0.387,
      "velocity": 0.71,
      "hand": "right"
    },
    {
      "midi": 53,
      "time": 23.613,
      "duration": 0.387,
      "velocity": 0.71,
      "hand": "right"
    },
    {
      "midi": 65,
      "time": 23.806,
      "duration": 0.129,
      "velocity": 0.71,
      "hand": "right"
    },
    {
      "midi": 67,
      "time": 23.903,
      "duration": 0.129,
      "velocity": 0.71,
      "hand": "right"
    },
    {
      "midi": 69,
      "time": 24,
      "duration": 0.387,
      "velocity": 0.71,
      "hand": "right"
    },
    {
      "midi": 70,
      "time": 24.774,
      "duration": 0.194,
      "velocity": 0.71,
      "hand": "right"
    },
    {
      "midi": 67,
      "time": 25.161,
      "duration": 0.194,
      "velocity": 0.71,
      "hand": "right"
    },
    {
      "midi": 70,
      "time": 25.548,
      "duration": 0.194,
      "velocity": 0.71,
      "hand": "right"
    },
    {
      "midi": 67,
      "time": 25.935,
      "duration": 0.194,
      "velocity": 0.71,
      "hand": "right"
    },
    {
      "midi": 70,
      "time": 26.323,
      "duration": 0.387,
      "velocity": 0.71,
      "hand": "right"
    },
    {
      "midi": 55,
      "time": 26.71,
      "duration": 0.387,
      "velocity": 0.71,
      "hand": "right"
    },
    {
      "midi": 82,
      "time": 27.097,
      "duration": 0.194,
      "velocity": 0.71,
      "hand": "right"
    },
    {
      "midi": 81,
      "time": 27.29,
      "duration": 0.129,
      "velocity": 0.71,
      "hand": "right"
    },
    {
      "midi": 79,
      "time": 27.387,
      "duration": 0.129,
      "velocity": 0.71,
      "hand": "right"
    },
    {
      "midi": 77,
      "time": 27.484,
      "duration": 0.129,
      "velocity": 0.71,
      "hand": "right"
    },
    {
      "midi": 76,
      "time": 27.581,
      "duration": 0.129,
      "velocity": 0.71,
      "hand": "right"
    },
    {
      "midi": 74,
      "time": 27.677,
      "duration": 0.129,
      "velocity": 0.71,
      "hand": "right"
    },
    {
      "midi": 72,
      "time": 27.774,
      "duration": 0.129,
      "velocity": 0.71,
      "hand": "right"
    },
    {
      "midi": 70,
      "time": 27.871,
      "duration": 0.194,
      "velocity": 0.71,
      "hand": "right"
    },
    {
      "midi": 69,
      "time": 28.065,
      "duration": 0.129,
      "velocity": 0.71,
      "hand": "right"
    },
    {
      "midi": 67,
      "time": 28.161,
      "duration": 0.129,
      "velocity": 0.71,
      "hand": "right"
    },
    {
      "midi": 65,
      "time": 28.258,
      "duration": 0.129,
      "velocity": 0.71,
      "hand": "right"
    },
    {
      "midi": 64,
      "time": 28.355,
      "duration": 0.129,
      "velocity": 0.71,
      "hand": "right"
    },
    {
      "midi": 62,
      "time": 28.452,
      "duration": 0.129,
      "velocity": 0.71,
      "hand": "right"
    },
    {
      "midi": 60,
      "time": 28.548,
      "duration": 0.129,
      "velocity": 0.71,
      "hand": "right"
    },
    {
      "midi": 58,
      "time": 28.645,
      "duration": 0.387,
      "velocity": 0.71,
      "hand": "right"
    },
    {
      "midi": 69,
      "time": 30.194,
      "duration": 0.129,
      "velocity": 0.71,
      "hand": "right"
    },
    {
      "midi": 65,
      "time": 30.29,
      "duration": 0.129,
      "velocity": 0.71,
      "hand": "right"
    },
    {
      "midi": 60,
      "time": 30.484,
      "duration": 0.129,
      "velocity": 0.71,
      "hand": "right"
    },
    {
      "midi": 69,
      "time": 30.581,
      "duration": 0.129,
      "velocity": 0.71,
      "hand": "right"
    },
    {
      "midi": 65,
      "time": 30.677,
      "duration": 0.129,
      "velocity": 0.71,
      "hand": "right"
    },
    {
      "midi": 60,
      "time": 30.871,
      "duration": 0.129,
      "velocity": 0.71,
      "hand": "right"
    },
    {
      "midi": 69,
      "time": 30.968,
      "duration": 0.129,
      "velocity": 0.71,
      "hand": "right"
    },
    {
      "midi": 65,
      "time": 31.065,
      "duration": 0.129,
      "velocity": 0.71,
      "hand": "right"
    },
    {
      "midi": 60,
      "time": 31.258,
      "duration": 0.129,
      "velocity": 0.71,
      "hand": "right"
    },
    {
      "midi": 70,
      "time": 31.355,
      "duration": 0.129,
      "velocity": 0.71,
      "hand": "right"
    },
    {
      "midi": 67,
      "time": 31.452,
      "duration": 0.129,
      "velocity": 0.71,
      "hand": "right"
    },
    {
      "midi": 60,
      "time": 31.645,
      "duration": 0.129,
      "velocity": 0.71,
      "hand": "right"
    },
    {
      "midi": 72,
      "time": 31.742,
      "duration": 0.129,
      "velocity": 0.71,
      "hand": "right"
    },
    {
      "midi": 69,
      "time": 31.839,
      "duration": 0.129,
      "velocity": 0.71,
      "hand": "right"
    },
    {
      "midi": 60,
      "time": 32.032,
      "duration": 0.129,
      "velocity": 0.71,
      "hand": "right"
    },
    {
      "midi": 70,
      "time": 32.129,
      "duration": 0.129,
      "velocity": 0.71,
      "hand": "right"
    },
    {
      "midi": 67,
      "time": 32.226,
      "duration": 0.129,
      "velocity": 0.71,
      "hand": "right"
    },
    {
      "midi": 60,
      "time": 32.419,
      "duration": 0.129,
      "velocity": 0.71,
      "hand": "right"
    },
    {
      "midi": 69,
      "time": 32.516,
      "duration": 0.129,
      "velocity": 0.71,
      "hand": "right"
    },
    {
      "midi": 65,
      "time": 32.613,
      "duration": 0.129,
      "velocity": 0.71,
      "hand": "right"
    },
    {
      "midi": 60,
      "time": 32.806,
      "duration": 0.129,
      "velocity": 0.71,
      "hand": "right"
    },
    {
      "midi": 67,
      "time": 32.903,
      "duration": 0.129,
      "velocity": 0.71,
      "hand": "right"
    },
    {
      "midi": 64,
      "time": 33,
      "duration": 0.129,
      "velocity": 0.71,
      "hand": "right"
    },
    {
      "midi": 60,
      "time": 33.194,
      "duration": 0.129,
      "velocity": 0.71,
      "hand": "right"
    },
    {
      "midi": 53,
      "time": 33.29,
      "duration": 0.387,
      "velocity": 0.71,
      "hand": "right"
    },
    {
      "midi": 81,
      "time": 33.387,
      "duration": 0.29,
      "velocity": 0.71,
      "hand": "right"
    },
    {
      "midi": 81,
      "time": 33.677,
      "duration": 0.194,
      "velocity": 0.71,
      "hand": "right"
    },
    {
      "midi": 81,
      "time": 33.871,
      "duration": 0.194,
      "velocity": 0.71,
      "hand": "right"
    },
    {
      "midi": 81,
      "time": 34.065,
      "duration": 0.194,
      "velocity": 0.71,
      "hand": "right"
    },
    {
      "midi": 79,
      "time": 34.258,
      "duration": 0.129,
      "velocity": 0.71,
      "hand": "right"
    },
    {
      "midi": 81,
      "time": 34.355,
      "duration": 0.129,
      "velocity": 0.71,
      "hand": "right"
    },
    {
      "midi": 82,
      "time": 34.452,
      "duration": 0.194,
      "velocity": 0.71,
      "hand": "right"
    },
    {
      "midi": 79,
      "time": 34.645,
      "duration": 0.194,
      "velocity": 0.71,
      "hand": "right"
    },
    {
      "midi": 69,
      "time": 34.839,
      "duration": 0.129,
      "velocity": 0.71,
      "hand": "right"
    },
    {
      "midi": 65,
      "time": 34.935,
      "duration": 0.129,
      "velocity": 0.71,
      "hand": "right"
    },
    {
      "midi": 60,
      "time": 35.129,
      "duration": 0.129,
      "velocity": 0.71,
      "hand": "right"
    },
    {
      "midi": 69,
      "time": 35.226,
      "duration": 0.129,
      "velocity": 0.71,
      "hand": "right"
    },
    {
      "midi": 65,
      "time": 35.323,
      "duration": 0.129,
      "velocity": 0.71,
      "hand": "right"
    },
    {
      "midi": 60,
      "time": 35.516,
      "duration": 0.129,
      "velocity": 0.71,
      "hand": "right"
    },
    {
      "midi": 69,
      "time": 35.613,
      "duration": 0.129,
      "velocity": 0.71,
      "hand": "right"
    },
    {
      "midi": 65,
      "time": 35.71,
      "duration": 0.129,
      "velocity": 0.71,
      "hand": "right"
    },
    {
      "midi": 60,
      "time": 35.903,
      "duration": 0.129,
      "velocity": 0.71,
      "hand": "right"
    },
    {
      "midi": 70,
      "time": 36,
      "duration": 0.129,
      "velocity": 0.71,
      "hand": "right"
    },
    {
      "midi": 67,
      "time": 36.097,
      "duration": 0.129,
      "velocity": 0.71,
      "hand": "right"
    },
    {
      "midi": 60,
      "time": 36.29,
      "duration": 0.129,
      "velocity": 0.71,
      "hand": "right"
    },
    {
      "midi": 72,
      "time": 36.387,
      "duration": 0.129,
      "velocity": 0.71,
      "hand": "right"
    },
    {
      "midi": 69,
      "time": 36.484,
      "duration": 0.129,
      "velocity": 0.71,
      "hand": "right"
    },
    {
      "midi": 60,
      "time": 36.677,
      "duration": 0.129,
      "velocity": 0.71,
      "hand": "right"
    },
    {
      "midi": 70,
      "time": 36.774,
      "duration": 0.129,
      "velocity": 0.71,
      "hand": "right"
    },
    {
      "midi": 67,
      "time": 36.871,
      "duration": 0.129,
      "velocity": 0.71,
      "hand": "right"
    },
    {
      "midi": 60,
      "time": 37.065,
      "duration": 0.129,
      "velocity": 0.71,
      "hand": "right"
    },
    {
      "midi": 69,
      "time": 37.161,
      "duration": 0.129,
      "velocity": 0.71,
      "hand": "right"
    },
    {
      "midi": 65,
      "time": 37.258,
      "duration": 0.129,
      "velocity": 0.71,
      "hand": "right"
    },
    {
      "midi": 60,
      "time": 37.452,
      "duration": 0.129,
      "velocity": 0.71,
      "hand": "right"
    },
    {
      "midi": 67,
      "time": 37.548,
      "duration": 0.129,
      "velocity": 0.71,
      "hand": "right"
    },
    {
      "midi": 64,
      "time": 37.645,
      "duration": 0.129,
      "velocity": 0.71,
      "hand": "right"
    },
    {
      "midi": 60,
      "time": 37.839,
      "duration": 0.129,
      "velocity": 0.71,
      "hand": "right"
    },
    {
      "midi": 65,
      "time": 37.935,
      "duration": 0.387,
      "velocity": 0.71,
      "hand": "right"
    },
    {
      "midi": 65,
      "time": 38.71,
      "duration": 0.387,
      "velocity": 0.71,
      "hand": "right"
    },
    {
      "midi": 69,
      "time": 39.097,
      "duration": 0.387,
      "velocity": 0.71,
      "hand": "right"
    },
    {
      "midi": 46,
      "time": 39.484,
      "duration": 0.774,
      "velocity": 0.71,
      "hand": "right"
    },
    {
      "midi": 58,
      "time": 39.871,
      "duration": 0.387,
      "velocity": 0.71,
      "hand": "right"
    },
    {
      "midi": 50,
      "time": 40.258,
      "duration": 0.774,
      "velocity": 0.71,
      "hand": "right"
    },
    {
      "midi": 62,
      "time": 40.645,
      "duration": 0.387,
      "velocity": 0.71,
      "hand": "right"
    },
    {
      "midi": 48,
      "time": 41.032,
      "duration": 0.774,
      "velocity": 0.71,
      "hand": "right"
    },
    {
      "midi": 60,
      "time": 41.419,
      "duration": 0.387,
      "velocity": 0.71,
      "hand": "right"
    },
    {
      "midi": 52,
      "time": 41.806,
      "duration": 0.774,
      "velocity": 0.71,
      "hand": "right"
    },
    {
      "midi": 64,
      "time": 42.194,
      "duration": 0.387,
      "velocity": 0.71,
      "hand": "right"
    },
    {
      "midi": 65,
      "time": 42.581,
      "duration": 0.194,
      "velocity": 0.71,
      "hand": "right"
    },
    {
      "midi": 69,
      "time": 42.968,
      "duration": 0.194,
      "velocity": 0.71,
      "hand": "right"
    },
    {
      "midi": 72,
      "time": 43.355,
      "duration": 0.194,
      "velocity": 0.71,
      "hand": "right"
    },
    {
      "midi": 69,
      "time": 43.742,
      "duration": 0.194,
      "velocity": 0.71,
      "hand": "right"
    },
    {
      "midi": 65,
      "time": 44.129,
      "duration": 0.194,
      "velocity": 0.71,
      "hand": "right"
    },
    {
      "midi": 60,
      "time": 44.516,
      "duration": 0.194,
      "velocity": 0.71,
      "hand": "right"
    },
    {
      "midi": 57,
      "time": 44.903,
      "duration": 0.387,
      "velocity": 0.71,
      "hand": "right"
    },
    {
      "midi": 60,
      "time": 45.29,
      "duration": 0.387,
      "velocity": 0.71,
      "hand": "right"
    },
    {
      "midi": 46,
      "time": 45.677,
      "duration": 0.774,
      "velocity": 0.71,
      "hand": "right"
    },
    {
      "midi": 58,
      "time": 46.065,
      "duration": 0.387,
      "velocity": 0.71,
      "hand": "right"
    },
    {
      "midi": 50,
      "time": 46.452,
      "duration": 0.774,
      "velocity": 0.71,
      "hand": "right"
    },
    {
      "midi": 62,
      "time": 46.839,
      "duration": 0.387,
      "velocity": 0.71,
      "hand": "right"
    },
    {
      "midi": 57,
      "time": 47.226,
      "duration": 0.774,
      "velocity": 0.71,
      "hand": "right"
    },
    {
      "midi": 60,
      "time": 47.613,
      "duration": 0.387,
      "velocity": 0.71,
      "hand": "right"
    },
    {
      "midi": 55,
      "time": 48,
      "duration": 0.774,
      "velocity": 0.71,
      "hand": "right"
    },
    {
      "midi": 60,
      "time": 48.387,
      "duration": 0.387,
      "velocity": 0.71,
      "hand": "right"
    },
    {
      "midi": 52,
      "time": 48.581,
      "duration": 0.194,
      "velocity": 0.71,
      "hand": "right"
    },
    {
      "midi": 65,
      "time": 48.774,
      "duration": 0.387,
      "velocity": 0.71,
      "hand": "right"
    },
    {
      "midi": 70,
      "time": 49.548,
      "duration": 0.581,
      "velocity": 0.71,
      "hand": "right"
    },
    {
      "midi": 72,
      "time": 50.129,
      "duration": 0.129,
      "velocity": 0.71,
      "hand": "right"
    },
    {
      "midi": 70,
      "time": 50.226,
      "duration": 0.129,
      "velocity": 0.71,
      "hand": "right"
    },
    {
      "midi": 69,
      "time": 50.323,
      "duration": 0.194,
      "velocity": 0.71,
      "hand": "right"
    },
    {
      "midi": 65,
      "time": 50.71,
      "duration": 0.194,
      "velocity": 0.71,
      "hand": "right"
    },
    {
      "midi": 74,
      "time": 51.097,
      "duration": 0.581,
      "velocity": 0.71,
      "hand": "right"
    },
    {
      "midi": 76,
      "time": 51.677,
      "duration": 0.129,
      "velocity": 0.71,
      "hand": "right"
    },
    {
      "midi": 77,
      "time": 51.774,
      "duration": 0.129,
      "velocity": 0.71,
      "hand": "right"
    },
    {
      "midi": 72,
      "time": 51.871,
      "duration": 0.387,
      "velocity": 0.71,
      "hand": "right"
    },
    {
      "midi": 57,
      "time": 52.645,
      "duration": 0.387,
      "velocity": 0.71,
      "hand": "right"
    },
    {
      "midi": 60,
      "time": 53.032,
      "duration": 0.387,
      "velocity": 0.71,
      "hand": "right"
    },
    {
      "midi": 64,
      "time": 53.419,
      "duration": 1.548,
      "velocity": 0.71,
      "hand": "right"
    },
    {
      "midi": 58,
      "time": 53.613,
      "duration": 0.194,
      "velocity": 0.71,
      "hand": "right"
    },
    {
      "midi": 57,
      "time": 53.806,
      "duration": 0.194,
      "velocity": 0.71,
      "hand": "right"
    },
    {
      "midi": 55,
      "time": 54,
      "duration": 0.194,
      "velocity": 0.71,
      "hand": "right"
    },
    {
      "midi": 55,
      "time": 54.194,
      "duration": 0.387,
      "velocity": 0.71,
      "hand": "right"
    },
    {
      "midi": 55,
      "time": 54.581,
      "duration": 0.387,
      "velocity": 0.71,
      "hand": "right"
    },
    {
      "midi": 65,
      "time": 54.968,
      "duration": 0.387,
      "velocity": 0.71,
      "hand": "right"
    },
    {
      "midi": 53,
      "time": 55.355,
      "duration": 0.387,
      "velocity": 0.71,
      "hand": "right"
    },
    {
      "midi": 70,
      "time": 55.742,
      "duration": 0.581,
      "velocity": 0.71,
      "hand": "right"
    },
    {
      "midi": 72,
      "time": 56.323,
      "duration": 0.129,
      "velocity": 0.71,
      "hand": "right"
    },
    {
      "midi": 70,
      "time": 56.419,
      "duration": 0.129,
      "velocity": 0.71,
      "hand": "right"
    },
    {
      "midi": 69,
      "time": 56.516,
      "duration": 0.194,
      "velocity": 0.71,
      "hand": "right"
    },
    {
      "midi": 65,
      "time": 56.903,
      "duration": 0.194,
      "velocity": 0.71,
      "hand": "right"
    },
    {
      "midi": 74,
      "time": 57.29,
      "duration": 0.581,
      "velocity": 0.71,
      "hand": "right"
    },
    {
      "midi": 76,
      "time": 57.871,
      "duration": 0.129,
      "velocity": 0.71,
      "hand": "right"
    },
    {
      "midi": 77,
      "time": 57.968,
      "duration": 0.129,
      "velocity": 0.71,
      "hand": "right"
    },
    {
      "midi": 72,
      "time": 58.065,
      "duration": 0.387,
      "velocity": 0.71,
      "hand": "right"
    },
    {
      "midi": 57,
      "time": 58.839,
      "duration": 0.387,
      "velocity": 0.71,
      "hand": "right"
    },
    {
      "midi": 60,
      "time": 59.226,
      "duration": 0.387,
      "velocity": 0.71,
      "hand": "right"
    },
    {
      "midi": 64,
      "time": 59.613,
      "duration": 1.548,
      "velocity": 0.71,
      "hand": "right"
    },
    {
      "midi": 58,
      "time": 59.806,
      "duration": 0.194,
      "velocity": 0.71,
      "hand": "right"
    },
    {
      "midi": 57,
      "time": 60,
      "duration": 0.194,
      "velocity": 0.71,
      "hand": "right"
    },
    {
      "midi": 55,
      "time": 60.194,
      "duration": 0.194,
      "velocity": 0.71,
      "hand": "right"
    },
    {
      "midi": 55,
      "time": 60.387,
      "duration": 0.581,
      "velocity": 0.71,
      "hand": "right"
    },
    {
      "midi": 57,
      "time": 60.968,
      "duration": 0.194,
      "velocity": 0.71,
      "hand": "right"
    },
    {
      "midi": 53,
      "time": 61.161,
      "duration": 0.387,
      "velocity": 0.71,
      "hand": "right"
    },
    {
      "midi": 65,
      "time": 61.548,
      "duration": 0.387,
      "velocity": 0.71,
      "hand": "right"
    },
    {
      "midi": 53,
      "time": 61.935,
      "duration": 0.387,
      "velocity": 0.71,
      "hand": "right"
    },
    {
      "midi": 65,
      "time": 62.323,
      "duration": 0.387,
      "velocity": 0.71,
      "hand": "right"
    },
    {
      "midi": 52,
      "time": 62.71,
      "duration": 0.581,
      "velocity": 0.71,
      "hand": "right"
    },
    {
      "midi": 64,
      "time": 63.097,
      "duration": 0.387,
      "velocity": 0.71,
      "hand": "right"
    },
    {
      "midi": 52,
      "time": 63.29,
      "duration": 0.194,
      "velocity": 0.71,
      "hand": "right"
    },
    {
      "midi": 50,
      "time": 63.484,
      "duration": 0.581,
      "velocity": 0.71,
      "hand": "right"
    },
    {
      "midi": 62,
      "time": 63.871,
      "duration": 0.387,
      "velocity": 0.71,
      "hand": "right"
    },
    {
      "midi": 50,
      "time": 64.065,
      "duration": 0.194,
      "velocity": 0.71,
      "hand": "right"
    },
    {
      "midi": 48,
      "time": 64.258,
      "duration": 0.387,
      "velocity": 0.71,
      "hand": "right"
    },
    {
      "midi": 60,
      "time": 64.645,
      "duration": 0.387,
      "velocity": 0.71,
      "hand": "right"
    },
    {
      "midi": 48,
      "time": 64.839,
      "duration": 0.194,
      "velocity": 0.71,
      "hand": "right"
    },
    {
      "midi": 50,
      "time": 65.032,
      "duration": 0.581,
      "velocity": 0.71,
      "hand": "right"
    },
    {
      "midi": 62,
      "time": 65.419,
      "duration": 0.387,
      "velocity": 0.71,
      "hand": "right"
    },
    {
      "midi": 52,
      "time": 65.613,
      "duration": 0.194,
      "velocity": 0.71,
      "hand": "right"
    },
    {
      "midi": 48,
      "time": 65.806,
      "duration": 0.387,
      "velocity": 0.71,
      "hand": "right"
    },
    {
      "midi": 60,
      "time": 66.194,
      "duration": 0.387,
      "velocity": 0.71,
      "hand": "right"
    },
    {
      "midi": 48,
      "time": 66.387,
      "duration": 0.194,
      "velocity": 0.71,
      "hand": "right"
    },
    {
      "midi": 62,
      "time": 66.581,
      "duration": 0.387,
      "velocity": 0.71,
      "hand": "right"
    },
    {
      "midi": 52,
      "time": 67.161,
      "duration": 0.194,
      "velocity": 0.71,
      "hand": "right"
    },
    {
      "midi": 60,
      "time": 67.355,
      "duration": 0.387,
      "velocity": 0.71,
      "hand": "right"
    },
    {
      "midi": 48,
      "time": 67.742,
      "duration": 0.387,
      "velocity": 0.71,
      "hand": "right"
    },
    {
      "midi": 69,
      "time": 68.903,
      "duration": 0.129,
      "velocity": 0.71,
      "hand": "right"
    },
    {
      "midi": 65,
      "time": 69,
      "duration": 0.129,
      "velocity": 0.71,
      "hand": "right"
    },
    {
      "midi": 60,
      "time": 69.194,
      "duration": 0.129,
      "velocity": 0.71,
      "hand": "right"
    },
    {
      "midi": 69,
      "time": 69.29,
      "duration": 0.129,
      "velocity": 0.71,
      "hand": "right"
    },
    {
      "midi": 65,
      "time": 69.387,
      "duration": 0.129,
      "velocity": 0.71,
      "hand": "right"
    },
    {
      "midi": 60,
      "time": 69.581,
      "duration": 0.129,
      "velocity": 0.71,
      "hand": "right"
    },
    {
      "midi": 69,
      "time": 69.677,
      "duration": 0.129,
      "velocity": 0.71,
      "hand": "right"
    },
    {
      "midi": 65,
      "time": 69.774,
      "duration": 0.129,
      "velocity": 0.71,
      "hand": "right"
    },
    {
      "midi": 60,
      "time": 69.968,
      "duration": 0.129,
      "velocity": 0.71,
      "hand": "right"
    },
    {
      "midi": 70,
      "time": 70.065,
      "duration": 0.129,
      "velocity": 0.71,
      "hand": "right"
    },
    {
      "midi": 67,
      "time": 70.161,
      "duration": 0.129,
      "velocity": 0.71,
      "hand": "right"
    },
    {
      "midi": 60,
      "time": 70.355,
      "duration": 0.129,
      "velocity": 0.71,
      "hand": "right"
    },
    {
      "midi": 72,
      "time": 70.452,
      "duration": 0.129,
      "velocity": 0.71,
      "hand": "right"
    },
    {
      "midi": 69,
      "time": 70.548,
      "duration": 0.129,
      "velocity": 0.71,
      "hand": "right"
    },
    {
      "midi": 60,
      "time": 70.742,
      "duration": 0.129,
      "velocity": 0.71,
      "hand": "right"
    },
    {
      "midi": 70,
      "time": 70.839,
      "duration": 0.129,
      "velocity": 0.71,
      "hand": "right"
    },
    {
      "midi": 67,
      "time": 70.935,
      "duration": 0.129,
      "velocity": 0.71,
      "hand": "right"
    },
    {
      "midi": 60,
      "time": 71.129,
      "duration": 0.129,
      "velocity": 0.71,
      "hand": "right"
    },
    {
      "midi": 69,
      "time": 71.226,
      "duration": 0.129,
      "velocity": 0.71,
      "hand": "right"
    },
    {
      "midi": 65,
      "time": 71.323,
      "duration": 0.129,
      "velocity": 0.71,
      "hand": "right"
    },
    {
      "midi": 60,
      "time": 71.516,
      "duration": 0.129,
      "velocity": 0.71,
      "hand": "right"
    },
    {
      "midi": 67,
      "time": 71.613,
      "duration": 0.129,
      "velocity": 0.71,
      "hand": "right"
    },
    {
      "midi": 64,
      "time": 71.71,
      "duration": 0.129,
      "velocity": 0.71,
      "hand": "right"
    },
    {
      "midi": 60,
      "time": 71.903,
      "duration": 0.129,
      "velocity": 0.71,
      "hand": "right"
    },
    {
      "midi": 53,
      "time": 72,
      "duration": 0.387,
      "velocity": 0.71,
      "hand": "right"
    },
    {
      "midi": 81,
      "time": 72.097,
      "duration": 0.29,
      "velocity": 0.71,
      "hand": "right"
    },
    {
      "midi": 81,
      "time": 72.387,
      "duration": 0.194,
      "velocity": 0.71,
      "hand": "right"
    },
    {
      "midi": 81,
      "time": 72.581,
      "duration": 0.194,
      "velocity": 0.71,
      "hand": "right"
    },
    {
      "midi": 81,
      "time": 72.774,
      "duration": 0.194,
      "velocity": 0.71,
      "hand": "right"
    },
    {
      "midi": 79,
      "time": 72.968,
      "duration": 0.129,
      "velocity": 0.71,
      "hand": "right"
    },
    {
      "midi": 81,
      "time": 73.065,
      "duration": 0.129,
      "velocity": 0.71,
      "hand": "right"
    },
    {
      "midi": 82,
      "time": 73.161,
      "duration": 0.194,
      "velocity": 0.71,
      "hand": "right"
    },
    {
      "midi": 79,
      "time": 73.355,
      "duration": 0.194,
      "velocity": 0.71,
      "hand": "right"
    },
    {
      "midi": 69,
      "time": 73.548,
      "duration": 0.129,
      "velocity": 0.71,
      "hand": "right"
    },
    {
      "midi": 65,
      "time": 73.645,
      "duration": 0.129,
      "velocity": 0.71,
      "hand": "right"
    },
    {
      "midi": 60,
      "time": 73.839,
      "duration": 0.129,
      "velocity": 0.71,
      "hand": "right"
    },
    {
      "midi": 69,
      "time": 73.935,
      "duration": 0.129,
      "velocity": 0.71,
      "hand": "right"
    },
    {
      "midi": 65,
      "time": 74.032,
      "duration": 0.129,
      "velocity": 0.71,
      "hand": "right"
    },
    {
      "midi": 60,
      "time": 74.226,
      "duration": 0.129,
      "velocity": 0.71,
      "hand": "right"
    },
    {
      "midi": 69,
      "time": 74.323,
      "duration": 0.129,
      "velocity": 0.71,
      "hand": "right"
    },
    {
      "midi": 65,
      "time": 74.419,
      "duration": 0.129,
      "velocity": 0.71,
      "hand": "right"
    },
    {
      "midi": 60,
      "time": 74.613,
      "duration": 0.129,
      "velocity": 0.71,
      "hand": "right"
    },
    {
      "midi": 70,
      "time": 74.71,
      "duration": 0.129,
      "velocity": 0.71,
      "hand": "right"
    },
    {
      "midi": 67,
      "time": 74.806,
      "duration": 0.129,
      "velocity": 0.71,
      "hand": "right"
    },
    {
      "midi": 60,
      "time": 75,
      "duration": 0.129,
      "velocity": 0.71,
      "hand": "right"
    },
    {
      "midi": 72,
      "time": 75.097,
      "duration": 0.129,
      "velocity": 0.71,
      "hand": "right"
    },
    {
      "midi": 69,
      "time": 75.194,
      "duration": 0.129,
      "velocity": 0.71,
      "hand": "right"
    },
    {
      "midi": 60,
      "time": 75.387,
      "duration": 0.129,
      "velocity": 0.71,
      "hand": "right"
    },
    {
      "midi": 70,
      "time": 75.484,
      "duration": 0.129,
      "velocity": 0.71,
      "hand": "right"
    },
    {
      "midi": 67,
      "time": 75.581,
      "duration": 0.129,
      "velocity": 0.71,
      "hand": "right"
    },
    {
      "midi": 60,
      "time": 75.774,
      "duration": 0.129,
      "velocity": 0.71,
      "hand": "right"
    },
    {
      "midi": 69,
      "time": 75.871,
      "duration": 0.129,
      "velocity": 0.71,
      "hand": "right"
    },
    {
      "midi": 65,
      "time": 75.968,
      "duration": 0.129,
      "velocity": 0.71,
      "hand": "right"
    },
    {
      "midi": 60,
      "time": 76.161,
      "duration": 0.129,
      "velocity": 0.71,
      "hand": "right"
    },
    {
      "midi": 67,
      "time": 76.258,
      "duration": 0.129,
      "velocity": 0.71,
      "hand": "right"
    },
    {
      "midi": 64,
      "time": 76.355,
      "duration": 0.129,
      "velocity": 0.71,
      "hand": "right"
    },
    {
      "midi": 60,
      "time": 76.548,
      "duration": 0.129,
      "velocity": 0.71,
      "hand": "right"
    },
    {
      "midi": 65,
      "time": 76.645,
      "duration": 0.387,
      "velocity": 0.71,
      "hand": "right"
    },
    {
      "midi": 65,
      "time": 77.419,
      "duration": 0.387,
      "velocity": 0.71,
      "hand": "right"
    },
    {
      "midi": 69,
      "time": 77.806,
      "duration": 0.387,
      "velocity": 0.71,
      "hand": "right"
    },
    {
      "midi": 46,
      "time": 78.194,
      "duration": 0.774,
      "velocity": 0.71,
      "hand": "right"
    },
    {
      "midi": 58,
      "time": 78.581,
      "duration": 0.387,
      "velocity": 0.71,
      "hand": "right"
    },
    {
      "midi": 50,
      "time": 78.968,
      "duration": 0.774,
      "velocity": 0.71,
      "hand": "right"
    },
    {
      "midi": 62,
      "time": 79.355,
      "duration": 0.387,
      "velocity": 0.71,
      "hand": "right"
    },
    {
      "midi": 48,
      "time": 79.742,
      "duration": 0.774,
      "velocity": 0.71,
      "hand": "right"
    },
    {
      "midi": 60,
      "time": 80.129,
      "duration": 0.387,
      "velocity": 0.71,
      "hand": "right"
    },
    {
      "midi": 52,
      "time": 80.516,
      "duration": 0.774,
      "velocity": 0.71,
      "hand": "right"
    },
    {
      "midi": 64,
      "time": 80.903,
      "duration": 0.387,
      "velocity": 0.71,
      "hand": "right"
    },
    {
      "midi": 65,
      "time": 81.29,
      "duration": 0.194,
      "velocity": 0.71,
      "hand": "right"
    },
    {
      "midi": 81,
      "time": 81.677,
      "duration": 0.194,
      "velocity": 0.71,
      "hand": "right"
    },
    {
      "midi": 84,
      "time": 82.065,
      "duration": 0.194,
      "velocity": 0.71,
      "hand": "right"
    },
    {
      "midi": 81,
      "time": 82.452,
      "duration": 0.194,
      "velocity": 0.71,
      "hand": "right"
    },
    {
      "midi": 77,
      "time": 82.839,
      "duration": 0.194,
      "velocity": 0.71,
      "hand": "right"
    },
    {
      "midi": 72,
      "time": 83.226,
      "duration": 0.194,
      "velocity": 0.71,
      "hand": "right"
    },
    {
      "midi": 69,
      "time": 83.613,
      "duration": 0.387,
      "velocity": 0.71,
      "hand": "right"
    },
    {
      "midi": 72,
      "time": 84,
      "duration": 0.387,
      "velocity": 0.71,
      "hand": "right"
    },
    {
      "midi": 46,
      "time": 84.387,
      "duration": 0.774,
      "velocity": 0.71,
      "hand": "right"
    },
    {
      "midi": 70,
      "time": 84.774,
      "duration": 0.387,
      "velocity": 0.71,
      "hand": "right"
    },
    {
      "midi": 50,
      "time": 85.161,
      "duration": 0.774,
      "velocity": 0.71,
      "hand": "right"
    },
    {
      "midi": 74,
      "time": 85.548,
      "duration": 0.387,
      "velocity": 0.71,
      "hand": "right"
    },
    {
      "midi": 57,
      "time": 85.935,
      "duration": 0.774,
      "velocity": 0.71,
      "hand": "right"
    },
    {
      "midi": 72,
      "time": 86.323,
      "duration": 0.387,
      "velocity": 0.71,
      "hand": "right"
    },
    {
      "midi": 55,
      "time": 86.71,
      "duration": 0.774,
      "velocity": 0.71,
      "hand": "right"
    },
    {
      "midi": 72,
      "time": 87.097,
      "duration": 0.387,
      "velocity": 0.71,
      "hand": "right"
    },
    {
      "midi": 52,
      "time": 87.29,
      "duration": 0.194,
      "velocity": 0.71,
      "hand": "right"
    },
    {
      "midi": 57,
      "time": 87.484,
      "duration": 0.387,
      "velocity": 0.71,
      "hand": "right"
    },
    {
      "midi": 65,
      "time": 87.871,
      "duration": 0.194,
      "velocity": 0.71,
      "hand": "right"
    },
    {
      "midi": 65,
      "time": 88.065,
      "duration": 0.194,
      "velocity": 0.71,
      "hand": "right"
    },
    {
      "midi": 65,
      "time": 88.258,
      "duration": 0.387,
      "velocity": 0.71,
      "hand": "right"
    },
    {
      "midi": 82,
      "time": 88.645,
      "duration": 0.194,
      "velocity": 0.71,
      "hand": "right"
    },
    {
      "midi": 82,
      "time": 88.839,
      "duration": 0.194,
      "velocity": 0.71,
      "hand": "right"
    },
    {
      "midi": 81,
      "time": 89.032,
      "duration": 0.387,
      "velocity": 0.71,
      "hand": "right"
    },
    {
      "midi": 65,
      "time": 89.419,
      "duration": 0.194,
      "velocity": 0.71,
      "hand": "right"
    },
    {
      "midi": 65,
      "time": 89.613,
      "duration": 0.194,
      "velocity": 0.71,
      "hand": "right"
    },
    {
      "midi": 65,
      "time": 89.806,
      "duration": 0.387,
      "velocity": 0.71,
      "hand": "right"
    },
    {
      "midi": 53,
      "time": 90,
      "duration": 0.194,
      "velocity": 0.71,
      "hand": "right"
    },
    {
      "midi": 82,
      "time": 90.194,
      "duration": 0.194,
      "velocity": 0.71,
      "hand": "right"
    },
    {
      "midi": 82,
      "time": 90.387,
      "duration": 0.194,
      "velocity": 0.71,
      "hand": "right"
    },
    {
      "midi": 81,
      "time": 90.581,
      "duration": 0.387,
      "velocity": 0.71,
      "hand": "right"
    },
    {
      "midi": 65,
      "time": 90.968,
      "duration": 0.194,
      "velocity": 0.71,
      "hand": "right"
    },
    {
      "midi": 65,
      "time": 91.161,
      "duration": 0.194,
      "velocity": 0.71,
      "hand": "right"
    },
    {
      "midi": 65,
      "time": 91.355,
      "duration": 0.387,
      "velocity": 0.71,
      "hand": "right"
    },
    {
      "midi": 82,
      "time": 91.742,
      "duration": 0.194,
      "velocity": 0.71,
      "hand": "right"
    },
    {
      "midi": 82,
      "time": 91.935,
      "duration": 0.194,
      "velocity": 0.71,
      "hand": "right"
    },
    {
      "midi": 81,
      "time": 92.129,
      "duration": 0.387,
      "velocity": 0.71,
      "hand": "right"
    },
    {
      "midi": 65,
      "time": 92.516,
      "duration": 0.194,
      "velocity": 0.71,
      "hand": "right"
    },
    {
      "midi": 65,
      "time": 92.71,
      "duration": 0.194,
      "velocity": 0.71,
      "hand": "right"
    },
    {
      "midi": 65,
      "time": 92.903,
      "duration": 0.387,
      "velocity": 0.71,
      "hand": "right"
    },
    {
      "midi": 53,
      "time": 93.097,
      "duration": 0.194,
      "velocity": 0.71,
      "hand": "right"
    },
    {
      "midi": 82,
      "time": 93.29,
      "duration": 0.194,
      "velocity": 0.71,
      "hand": "right"
    },
    {
      "midi": 82,
      "time": 93.484,
      "duration": 0.194,
      "velocity": 0.71,
      "hand": "right"
    },
    {
      "midi": 81,
      "time": 93.677,
      "duration": 0.194,
      "velocity": 0.71,
      "hand": "right"
    },
    {
      "midi": 72,
      "time": 93.871,
      "duration": 0.194,
      "velocity": 0.71,
      "hand": "right"
    },
    {
      "midi": 74,
      "time": 94.065,
      "duration": 0.194,
      "velocity": 0.71,
      "hand": "right"
    },
    {
      "midi": 74,
      "time": 94.258,
      "duration": 0.194,
      "velocity": 0.71,
      "hand": "right"
    },
    {
      "midi": 72,
      "time": 94.452,
      "duration": 0.194,
      "velocity": 0.71,
      "hand": "right"
    },
    {
      "midi": 72,
      "time": 94.645,
      "duration": 0.194,
      "velocity": 0.71,
      "hand": "right"
    },
    {
      "midi": 74,
      "time": 94.839,
      "duration": 0.194,
      "velocity": 0.71,
      "hand": "right"
    },
    {
      "midi": 74,
      "time": 95.032,
      "duration": 0.194,
      "velocity": 0.71,
      "hand": "right"
    },
    {
      "midi": 72,
      "time": 95.226,
      "duration": 0.194,
      "velocity": 0.71,
      "hand": "right"
    },
    {
      "midi": 84,
      "time": 95.419,
      "duration": 0.194,
      "velocity": 0.71,
      "hand": "right"
    },
    {
      "midi": 86,
      "time": 95.613,
      "duration": 0.194,
      "velocity": 0.71,
      "hand": "right"
    },
    {
      "midi": 86,
      "time": 95.806,
      "duration": 0.194,
      "velocity": 0.71,
      "hand": "right"
    },
    {
      "midi": 84,
      "time": 96,
      "duration": 0.194,
      "velocity": 0.71,
      "hand": "right"
    },
    {
      "midi": 84,
      "time": 96.194,
      "duration": 0.194,
      "velocity": 0.71,
      "hand": "right"
    },
    {
      "midi": 86,
      "time": 96.387,
      "duration": 0.194,
      "velocity": 0.71,
      "hand": "right"
    },
    {
      "midi": 86,
      "time": 96.581,
      "duration": 0.194,
      "velocity": 0.71,
      "hand": "right"
    },
    {
      "midi": 84,
      "time": 96.774,
      "duration": 0.387,
      "velocity": 0.71,
      "hand": "right"
    },
    {
      "midi": 77,
      "time": 97.548,
      "duration": 0.387,
      "velocity": 0.71,
      "hand": "right"
    },
    {
      "midi": 81,
      "time": 97.935,
      "duration": 0.387,
      "velocity": 0.71,
      "hand": "right"
    },
    {
      "midi": 46,
      "time": 98.323,
      "duration": 0.774,
      "velocity": 0.71,
      "hand": "right"
    },
    {
      "midi": 70,
      "time": 98.71,
      "duration": 0.387,
      "velocity": 0.71,
      "hand": "right"
    },
    {
      "midi": 50,
      "time": 99.097,
      "duration": 0.774,
      "velocity": 0.71,
      "hand": "right"
    },
    {
      "midi": 74,
      "time": 99.484,
      "duration": 0.387,
      "velocity": 0.71,
      "hand": "right"
    },
    {
      "midi": 48,
      "time": 99.871,
      "duration": 0.774,
      "velocity": 0.71,
      "hand": "right"
    },
    {
      "midi": 72,
      "time": 100.258,
      "duration": 0.387,
      "velocity": 0.71,
      "hand": "right"
    },
    {
      "midi": 52,
      "time": 100.645,
      "duration": 0.774,
      "velocity": 0.71,
      "hand": "right"
    },
    {
      "midi": 76,
      "time": 101.032,
      "duration": 0.387,
      "velocity": 0.71,
      "hand": "right"
    },
    {
      "midi": 65,
      "time": 101.419,
      "duration": 0.194,
      "velocity": 0.71,
      "hand": "right"
    },
    {
      "midi": 77,
      "time": 101.613,
      "duration": 0.194,
      "velocity": 0.71,
      "hand": "right"
    },
    {
      "midi": 69,
      "time": 101.806,
      "duration": 0.194,
      "velocity": 0.71,
      "hand": "right"
    },
    {
      "midi": 81,
      "time": 102,
      "duration": 0.194,
      "velocity": 0.71,
      "hand": "right"
    },
    {
      "midi": 72,
      "time": 102.194,
      "duration": 0.194,
      "velocity": 0.71,
      "hand": "right"
    },
    {
      "midi": 84,
      "time": 102.387,
      "duration": 0.194,
      "velocity": 0.71,
      "hand": "right"
    },
    {
      "midi": 69,
      "time": 102.581,
      "duration": 0.194,
      "velocity": 0.71,
      "hand": "right"
    },
    {
      "midi": 81,
      "time": 102.774,
      "duration": 0.194,
      "velocity": 0.71,
      "hand": "right"
    },
    {
      "midi": 65,
      "time": 102.968,
      "duration": 0.194,
      "velocity": 0.71,
      "hand": "right"
    },
    {
      "midi": 77,
      "time": 103.161,
      "duration": 0.194,
      "velocity": 0.71,
      "hand": "right"
    },
    {
      "midi": 60,
      "time": 103.355,
      "duration": 0.194,
      "velocity": 0.71,
      "hand": "right"
    },
    {
      "midi": 72,
      "time": 103.548,
      "duration": 0.194,
      "velocity": 0.71,
      "hand": "right"
    },
    {
      "midi": 69,
      "time": 103.742,
      "duration": 0.387,
      "velocity": 0.71,
      "hand": "right"
    },
    {
      "midi": 72,
      "time": 104.129,
      "duration": 0.387,
      "velocity": 0.71,
      "hand": "right"
    },
    {
      "midi": 46,
      "time": 104.516,
      "duration": 0.774,
      "velocity": 0.71,
      "hand": "right"
    },
    {
      "midi": 70,
      "time": 104.903,
      "duration": 0.387,
      "velocity": 0.71,
      "hand": "right"
    },
    {
      "midi": 50,
      "time": 105.29,
      "duration": 0.774,
      "velocity": 0.71,
      "hand": "right"
    },
    {
      "midi": 74,
      "time": 105.677,
      "duration": 0.387,
      "velocity": 0.71,
      "hand": "right"
    },
    {
      "midi": 57,
      "time": 106.065,
      "duration": 0.774,
      "velocity": 0.71,
      "hand": "right"
    },
    {
      "midi": 72,
      "time": 106.452,
      "duration": 0.387,
      "velocity": 0.71,
      "hand": "right"
    },
    {
      "midi": 55,
      "time": 106.839,
      "duration": 0.774,
      "velocity": 0.71,
      "hand": "right"
    },
    {
      "midi": 72,
      "time": 107.226,
      "duration": 0.387,
      "velocity": 0.71,
      "hand": "right"
    },
    {
      "midi": 52,
      "time": 107.419,
      "duration": 0.194,
      "velocity": 0.71,
      "hand": "right"
    },
    {
      "midi": 65,
      "time": 107.613,
      "duration": 0.129,
      "velocity": 0.71,
      "hand": "right"
    },
    {
      "midi": 57,
      "time": 107.71,
      "duration": 0.129,
      "velocity": 0.71,
      "hand": "right"
    },
    {
      "midi": 65,
      "time": 107.806,
      "duration": 0.129,
      "velocity": 0.71,
      "hand": "right"
    },
    {
      "midi": 57,
      "time": 107.903,
      "duration": 0.129,
      "velocity": 0.71,
      "hand": "right"
    },
    {
      "midi": 65,
      "time": 108,
      "duration": 0.129,
      "velocity": 0.71,
      "hand": "right"
    },
    {
      "midi": 57,
      "time": 108.097,
      "duration": 0.129,
      "velocity": 0.71,
      "hand": "right"
    },
    {
      "midi": 65,
      "time": 108.194,
      "duration": 0.129,
      "velocity": 0.71,
      "hand": "right"
    },
    {
      "midi": 57,
      "time": 108.29,
      "duration": 0.129,
      "velocity": 0.71,
      "hand": "right"
    },
    {
      "midi": 65,
      "time": 108.387,
      "duration": 0.129,
      "velocity": 0.71,
      "hand": "right"
    },
    {
      "midi": 57,
      "time": 108.484,
      "duration": 0.129,
      "velocity": 0.71,
      "hand": "right"
    },
    {
      "midi": 65,
      "time": 108.581,
      "duration": 0.129,
      "velocity": 0.71,
      "hand": "right"
    },
    {
      "midi": 57,
      "time": 108.677,
      "duration": 0.129,
      "velocity": 0.71,
      "hand": "right"
    },
    {
      "midi": 67,
      "time": 108.774,
      "duration": 0.129,
      "velocity": 0.71,
      "hand": "right"
    },
    {
      "midi": 58,
      "time": 108.871,
      "duration": 0.129,
      "velocity": 0.71,
      "hand": "right"
    },
    {
      "midi": 67,
      "time": 108.968,
      "duration": 0.129,
      "velocity": 0.71,
      "hand": "right"
    },
    {
      "midi": 58,
      "time": 109.065,
      "duration": 0.129,
      "velocity": 0.71,
      "hand": "right"
    },
    {
      "midi": 69,
      "time": 109.161,
      "duration": 0.129,
      "velocity": 0.71,
      "hand": "right"
    },
    {
      "midi": 60,
      "time": 109.258,
      "duration": 0.129,
      "velocity": 0.71,
      "hand": "right"
    },
    {
      "midi": 69,
      "time": 109.355,
      "duration": 0.129,
      "velocity": 0.71,
      "hand": "right"
    },
    {
      "midi": 60,
      "time": 109.452,
      "duration": 0.129,
      "velocity": 0.71,
      "hand": "right"
    },
    {
      "midi": 70,
      "time": 109.548,
      "duration": 0.129,
      "velocity": 0.71,
      "hand": "right"
    },
    {
      "midi": 62,
      "time": 109.645,
      "duration": 0.129,
      "velocity": 0.71,
      "hand": "right"
    },
    {
      "midi": 70,
      "time": 109.742,
      "duration": 0.129,
      "velocity": 0.71,
      "hand": "right"
    },
    {
      "midi": 62,
      "time": 109.839,
      "duration": 0.129,
      "velocity": 0.71,
      "hand": "right"
    },
    {
      "midi": 72,
      "time": 109.935,
      "duration": 0.129,
      "velocity": 0.71,
      "hand": "right"
    },
    {
      "midi": 65,
      "time": 110.032,
      "duration": 0.129,
      "velocity": 0.71,
      "hand": "right"
    },
    {
      "midi": 72,
      "time": 110.129,
      "duration": 0.129,
      "velocity": 0.71,
      "hand": "right"
    },
    {
      "midi": 65,
      "time": 110.226,
      "duration": 0.129,
      "velocity": 0.71,
      "hand": "right"
    },
    {
      "midi": 74,
      "time": 110.323,
      "duration": 0.129,
      "velocity": 0.71,
      "hand": "right"
    },
    {
      "midi": 65,
      "time": 110.419,
      "duration": 0.129,
      "velocity": 0.71,
      "hand": "right"
    },
    {
      "midi": 74,
      "time": 110.516,
      "duration": 0.129,
      "velocity": 0.71,
      "hand": "right"
    },
    {
      "midi": 65,
      "time": 110.613,
      "duration": 0.129,
      "velocity": 0.71,
      "hand": "right"
    },
    {
      "midi": 75,
      "time": 110.71,
      "duration": 0.129,
      "velocity": 0.71,
      "hand": "right"
    },
    {
      "midi": 65,
      "time": 110.806,
      "duration": 0.129,
      "velocity": 0.71,
      "hand": "right"
    },
    {
      "midi": 75,
      "time": 110.903,
      "duration": 0.129,
      "velocity": 0.71,
      "hand": "right"
    },
    {
      "midi": 65,
      "time": 111,
      "duration": 0.129,
      "velocity": 0.71,
      "hand": "right"
    },
    {
      "midi": 77,
      "time": 111.097,
      "duration": 0.129,
      "velocity": 0.71,
      "hand": "right"
    },
    {
      "midi": 65,
      "time": 111.194,
      "duration": 0.129,
      "velocity": 0.71,
      "hand": "right"
    },
    {
      "midi": 77,
      "time": 111.29,
      "duration": 0.129,
      "velocity": 0.71,
      "hand": "right"
    },
    {
      "midi": 65,
      "time": 111.387,
      "duration": 0.129,
      "velocity": 0.71,
      "hand": "right"
    },
    {
      "midi": 79,
      "time": 111.484,
      "duration": 0.129,
      "velocity": 0.71,
      "hand": "right"
    },
    {
      "midi": 65,
      "time": 111.581,
      "duration": 0.129,
      "velocity": 0.71,
      "hand": "right"
    },
    {
      "midi": 79,
      "time": 111.677,
      "duration": 0.129,
      "velocity": 0.71,
      "hand": "right"
    },
    {
      "midi": 65,
      "time": 111.774,
      "duration": 0.129,
      "velocity": 0.71,
      "hand": "right"
    },
    {
      "midi": 81,
      "time": 111.871,
      "duration": 0.129,
      "velocity": 0.71,
      "hand": "right"
    },
    {
      "midi": 72,
      "time": 111.968,
      "duration": 0.129,
      "velocity": 0.71,
      "hand": "right"
    },
    {
      "midi": 81,
      "time": 112.065,
      "duration": 0.129,
      "velocity": 0.71,
      "hand": "right"
    },
    {
      "midi": 72,
      "time": 112.161,
      "duration": 0.129,
      "velocity": 0.71,
      "hand": "right"
    },
    {
      "midi": 82,
      "time": 112.258,
      "duration": 0.194,
      "velocity": 0.71,
      "hand": "right"
    },
    {
      "midi": 58,
      "time": 112.355,
      "duration": 0.129,
      "velocity": 0.71,
      "hand": "right"
    },
    {
      "midi": 77,
      "time": 112.452,
      "duration": 0.194,
      "velocity": 0.71,
      "hand": "right"
    },
    {
      "midi": 58,
      "time": 112.548,
      "duration": 0.129,
      "velocity": 0.71,
      "hand": "right"
    },
    {
      "midi": 74,
      "time": 112.645,
      "duration": 0.194,
      "velocity": 0.71,
      "hand": "right"
    },
    {
      "midi": 58,
      "time": 112.742,
      "duration": 0.129,
      "velocity": 0.71,
      "hand": "right"
    },
    {
      "midi": 77,
      "time": 112.839,
      "duration": 0.194,
      "velocity": 0.71,
      "hand": "right"
    },
    {
      "midi": 58,
      "time": 112.935,
      "duration": 0.129,
      "velocity": 0.71,
      "hand": "right"
    },
    {
      "midi": 82,
      "time": 113.032,
      "duration": 0.387,
      "velocity": 0.71,
      "hand": "right"
    }
  ],
  "notes2Hands": [
    {
      "midi": 53,
      "time": 0,
      "duration": 0.194,
      "velocity": 0.71,
      "hand": "left"
    },
    {
      "midi": 65,
      "time": 0,
      "duration": 0.194,
      "velocity": 0.71,
      "hand": "right"
    },
    {
      "midi": 48,
      "time": 0.387,
      "duration": 0.194,
      "velocity": 0.71,
      "hand": "left"
    },
    {
      "midi": 60,
      "time": 0.387,
      "duration": 0.194,
      "velocity": 0.71,
      "hand": "right"
    },
    {
      "midi": 53,
      "time": 0.774,
      "duration": 0.194,
      "velocity": 0.71,
      "hand": "left"
    },
    {
      "midi": 65,
      "time": 0.774,
      "duration": 0.194,
      "velocity": 0.71,
      "hand": "right"
    },
    {
      "midi": 48,
      "time": 1.161,
      "duration": 0.194,
      "velocity": 0.71,
      "hand": "left"
    },
    {
      "midi": 60,
      "time": 1.161,
      "duration": 0.194,
      "velocity": 0.71,
      "hand": "right"
    },
    {
      "midi": 53,
      "time": 1.548,
      "duration": 0.387,
      "velocity": 0.71,
      "hand": "left"
    },
    {
      "midi": 65,
      "time": 1.548,
      "duration": 0.387,
      "velocity": 0.71,
      "hand": "right"
    },
    {
      "midi": 48,
      "time": 2.129,
      "duration": 0.097,
      "velocity": 0.71,
      "hand": "left"
    },
    {
      "midi": 60,
      "time": 2.129,
      "duration": 0.097,
      "velocity": 0.71,
      "hand": "right"
    },
    {
      "midi": 50,
      "time": 2.226,
      "duration": 0.097,
      "velocity": 0.71,
      "hand": "left"
    },
    {
      "midi": 52,
      "time": 2.226,
      "duration": 0.097,
      "velocity": 0.71,
      "hand": "left"
    },
    {
      "midi": 62,
      "time": 2.226,
      "duration": 0.097,
      "velocity": 0.71,
      "hand": "right"
    },
    {
      "midi": 64,
      "time": 2.226,
      "duration": 0.097,
      "velocity": 0.71,
      "hand": "right"
    },
    {
      "midi": 53,
      "time": 2.323,
      "duration": 0.387,
      "velocity": 0.71,
      "hand": "left"
    },
    {
      "midi": 65,
      "time": 2.323,
      "duration": 0.387,
      "velocity": 0.71,
      "hand": "right"
    },
    {
      "midi": 55,
      "time": 3.097,
      "duration": 0.194,
      "velocity": 0.71,
      "hand": "left"
    },
    {
      "midi": 67,
      "time": 3.097,
      "duration": 0.194,
      "velocity": 0.71,
      "hand": "right"
    },
    {
      "midi": 48,
      "time": 3.484,
      "duration": 0.194,
      "velocity": 0.71,
      "hand": "left"
    },
    {
      "midi": 60,
      "time": 3.484,
      "duration": 0.194,
      "velocity": 0.71,
      "hand": "right"
    },
    {
      "midi": 55,
      "time": 3.871,
      "duration": 0.194,
      "velocity": 0.71,
      "hand": "left"
    },
    {
      "midi": 67,
      "time": 3.871,
      "duration": 0.194,
      "velocity": 0.71,
      "hand": "right"
    },
    {
      "midi": 48,
      "time": 4.258,
      "duration": 0.194,
      "velocity": 0.71,
      "hand": "left"
    },
    {
      "midi": 60,
      "time": 4.258,
      "duration": 0.194,
      "velocity": 0.71,
      "hand": "right"
    },
    {
      "midi": 55,
      "time": 4.645,
      "duration": 0.387,
      "velocity": 0.71,
      "hand": "left"
    },
    {
      "midi": 67,
      "time": 4.645,
      "duration": 0.387,
      "velocity": 0.71,
      "hand": "right"
    },
    {
      "midi": 48,
      "time": 5.226,
      "duration": 0.048,
      "velocity": 0.71,
      "hand": "left"
    },
    {
      "midi": 50,
      "time": 5.226,
      "duration": 0.048,
      "velocity": 0.71,
      "hand": "left"
    },
    {
      "midi": 60,
      "time": 5.226,
      "duration": 0.048,
      "velocity": 0.71,
      "hand": "right"
    },
    {
      "midi": 62,
      "time": 5.226,
      "duration": 0.048,
      "velocity": 0.71,
      "hand": "right"
    },
    {
      "midi": 52,
      "time": 5.323,
      "duration": 0.048,
      "velocity": 0.71,
      "hand": "left"
    },
    {
      "midi": 53,
      "time": 5.323,
      "duration": 0.048,
      "velocity": 0.71,
      "hand": "left"
    },
    {
      "midi": 64,
      "time": 5.323,
      "duration": 0.048,
      "velocity": 0.71,
      "hand": "right"
    },
    {
      "midi": 65,
      "time": 5.323,
      "duration": 0.048,
      "velocity": 0.71,
      "hand": "right"
    },
    {
      "midi": 55,
      "time": 5.419,
      "duration": 0.387,
      "velocity": 0.71,
      "hand": "left"
    },
    {
      "midi": 67,
      "time": 5.419,
      "duration": 0.387,
      "velocity": 0.71,
      "hand": "right"
    },
    {
      "midi": 57,
      "time": 6.194,
      "duration": 0.194,
      "velocity": 0.71,
      "hand": "left"
    },
    {
      "midi": 69,
      "time": 6.194,
      "duration": 0.194,
      "velocity": 0.71,
      "hand": "right"
    },
    {
      "midi": 53,
      "time": 6.581,
      "duration": 0.194,
      "velocity": 0.71,
      "hand": "left"
    },
    {
      "midi": 65,
      "time": 6.581,
      "duration": 0.194,
      "velocity": 0.71,
      "hand": "right"
    },
    {
      "midi": 57,
      "time": 6.968,
      "duration": 0.194,
      "velocity": 0.71,
      "hand": "left"
    },
    {
      "midi": 69,
      "time": 6.968,
      "duration": 0.194,
      "velocity": 0.71,
      "hand": "right"
    },
    {
      "midi": 53,
      "time": 7.355,
      "duration": 0.194,
      "velocity": 0.71,
      "hand": "left"
    },
    {
      "midi": 65,
      "time": 7.355,
      "duration": 0.194,
      "velocity": 0.71,
      "hand": "right"
    },
    {
      "midi": 57,
      "time": 7.742,
      "duration": 0.387,
      "velocity": 0.71,
      "hand": "left"
    },
    {
      "midi": 69,
      "time": 7.742,
      "duration": 0.387,
      "velocity": 0.71,
      "hand": "right"
    },
    {
      "midi": 53,
      "time": 8.323,
      "duration": 0.097,
      "velocity": 0.71,
      "hand": "left"
    },
    {
      "midi": 65,
      "time": 8.323,
      "duration": 0.097,
      "velocity": 0.71,
      "hand": "right"
    },
    {
      "midi": 55,
      "time": 8.419,
      "duration": 0.097,
      "velocity": 0.71,
      "hand": "left"
    },
    {
      "midi": 67,
      "time": 8.419,
      "duration": 0.097,
      "velocity": 0.71,
      "hand": "right"
    },
    {
      "midi": 57,
      "time": 8.516,
      "duration": 0.387,
      "velocity": 0.71,
      "hand": "left"
    },
    {
      "midi": 69,
      "time": 8.516,
      "duration": 0.387,
      "velocity": 0.71,
      "hand": "right"
    },
    {
      "midi": 58,
      "time": 9.29,
      "duration": 0.194,
      "velocity": 0.71,
      "hand": "left"
    },
    {
      "midi": 70,
      "time": 9.29,
      "duration": 0.194,
      "velocity": 0.71,
      "hand": "right"
    },
    {
      "midi": 55,
      "time": 9.677,
      "duration": 0.194,
      "velocity": 0.71,
      "hand": "left"
    },
    {
      "midi": 67,
      "time": 9.677,
      "duration": 0.194,
      "velocity": 0.71,
      "hand": "right"
    },
    {
      "midi": 58,
      "time": 10.065,
      "duration": 0.194,
      "velocity": 0.71,
      "hand": "left"
    },
    {
      "midi": 70,
      "time": 10.065,
      "duration": 0.194,
      "velocity": 0.71,
      "hand": "right"
    },
    {
      "midi": 55,
      "time": 10.452,
      "duration": 0.194,
      "velocity": 0.71,
      "hand": "left"
    },
    {
      "midi": 67,
      "time": 10.452,
      "duration": 0.194,
      "velocity": 0.71,
      "hand": "right"
    },
    {
      "midi": 58,
      "time": 10.839,
      "duration": 0.387,
      "velocity": 0.71,
      "hand": "left"
    },
    {
      "midi": 70,
      "time": 10.839,
      "duration": 0.387,
      "velocity": 0.71,
      "hand": "right"
    },
    {
      "midi": 67,
      "time": 11.419,
      "duration": 0.097,
      "velocity": 0.71,
      "hand": "right"
    },
    {
      "midi": 69,
      "time": 11.516,
      "duration": 0.097,
      "velocity": 0.71,
      "hand": "right"
    },
    {
      "midi": 55,
      "time": 11.613,
      "duration": 0.387,
      "velocity": 0.71,
      "hand": "left"
    },
    {
      "midi": 58,
      "time": 11.613,
      "duration": 0.387,
      "velocity": 0.71,
      "hand": "left"
    },
    {
      "midi": 70,
      "time": 11.613,
      "duration": 0.387,
      "velocity": 0.71,
      "hand": "right"
    },
    {
      "midi": 70,
      "time": 12.194,
      "duration": 0.048,
      "velocity": 0.71,
      "hand": "right"
    },
    {
      "midi": 72,
      "time": 12.194,
      "duration": 0.048,
      "velocity": 0.71,
      "hand": "right"
    },
    {
      "midi": 74,
      "time": 12.29,
      "duration": 0.048,
      "velocity": 0.71,
      "hand": "right"
    },
    {
      "midi": 76,
      "time": 12.29,
      "duration": 0.048,
      "velocity": 0.71,
      "hand": "right"
    },
    {
      "midi": 52,
      "time": 12.387,
      "duration": 0.387,
      "velocity": 0.71,
      "hand": "left"
    },
    {
      "midi": 55,
      "time": 12.387,
      "duration": 0.387,
      "velocity": 0.71,
      "hand": "left"
    },
    {
      "midi": 58,
      "time": 12.387,
      "duration": 0.387,
      "velocity": 0.71,
      "hand": "left"
    },
    {
      "midi": 77,
      "time": 12.387,
      "duration": 0.048,
      "velocity": 0.71,
      "hand": "right"
    },
    {
      "midi": 79,
      "time": 12.387,
      "duration": 0.387,
      "velocity": 0.71,
      "hand": "right"
    },
    {
      "midi": 76,
      "time": 12.968,
      "duration": 0.048,
      "velocity": 0.71,
      "hand": "right"
    },
    {
      "midi": 77,
      "time": 12.968,
      "duration": 0.048,
      "velocity": 0.71,
      "hand": "right"
    },
    {
      "midi": 79,
      "time": 13.065,
      "duration": 0.048,
      "velocity": 0.71,
      "hand": "right"
    },
    {
      "midi": 81,
      "time": 13.065,
      "duration": 0.048,
      "velocity": 0.71,
      "hand": "right"
    },
    {
      "midi": 48,
      "time": 13.161,
      "duration": 0.387,
      "velocity": 0.71,
      "hand": "left"
    },
    {
      "midi": 52,
      "time": 13.161,
      "duration": 0.387,
      "velocity": 0.71,
      "hand": "left"
    },
    {
      "midi": 55,
      "time": 13.161,
      "duration": 0.387,
      "velocity": 0.71,
      "hand": "left"
    },
    {
      "midi": 82,
      "time": 13.161,
      "duration": 0.194,
      "velocity": 0.71,
      "hand": "right"
    },
    {
      "midi": 81,
      "time": 13.355,
      "duration": 0.097,
      "velocity": 0.71,
      "hand": "right"
    },
    {
      "midi": 79,
      "time": 13.452,
      "duration": 0.097,
      "velocity": 0.71,
      "hand": "right"
    },
    {
      "midi": 77,
      "time": 13.548,
      "duration": 0.097,
      "velocity": 0.71,
      "hand": "right"
    },
    {
      "midi": 76,
      "time": 13.645,
      "duration": 0.097,
      "velocity": 0.71,
      "hand": "right"
    },
    {
      "midi": 74,
      "time": 13.742,
      "duration": 0.097,
      "velocity": 0.71,
      "hand": "right"
    },
    {
      "midi": 72,
      "time": 13.839,
      "duration": 0.097,
      "velocity": 0.71,
      "hand": "right"
    },
    {
      "midi": 48,
      "time": 13.935,
      "duration": 0.387,
      "velocity": 0.71,
      "hand": "left"
    },
    {
      "midi": 52,
      "time": 13.935,
      "duration": 0.387,
      "velocity": 0.71,
      "hand": "left"
    },
    {
      "midi": 55,
      "time": 13.935,
      "duration": 0.387,
      "velocity": 0.71,
      "hand": "left"
    },
    {
      "midi": 70,
      "time": 13.935,
      "duration": 0.194,
      "velocity": 0.71,
      "hand": "right"
    },
    {
      "midi": 69,
      "time": 14.129,
      "duration": 0.097,
      "velocity": 0.71,
      "hand": "right"
    },
    {
      "midi": 67,
      "time": 14.226,
      "duration": 0.097,
      "velocity": 0.71,
      "hand": "right"
    },
    {
      "midi": 65,
      "time": 14.323,
      "duration": 0.097,
      "velocity": 0.71,
      "hand": "right"
    },
    {
      "midi": 64,
      "time": 14.419,
      "duration": 0.097,
      "velocity": 0.71,
      "hand": "right"
    },
    {
      "midi": 62,
      "time": 14.516,
      "duration": 0.097,
      "velocity": 0.71,
      "hand": "right"
    },
    {
      "midi": 60,
      "time": 14.613,
      "duration": 0.097,
      "velocity": 0.71,
      "hand": "right"
    },
    {
      "midi": 48,
      "time": 14.71,
      "duration": 0.774,
      "velocity": 0.71,
      "hand": "left"
    },
    {
      "midi": 52,
      "time": 14.71,
      "duration": 0.774,
      "velocity": 0.71,
      "hand": "left"
    },
    {
      "midi": 55,
      "time": 14.71,
      "duration": 0.774,
      "velocity": 0.71,
      "hand": "left"
    },
    {
      "midi": 58,
      "time": 14.71,
      "duration": 0.774,
      "velocity": 0.71,
      "hand": "left"
    },
    {
      "midi": 53,
      "time": 15.484,
      "duration": 0.387,
      "velocity": 0.71,
      "hand": "left"
    },
    {
      "midi": 53,
      "time": 15.484,
      "duration": 0.194,
      "velocity": 0.71,
      "hand": "left"
    },
    {
      "midi": 65,
      "time": 15.484,
      "duration": 0.194,
      "velocity": 0.71,
      "hand": "right"
    },
    {
      "midi": 48,
      "time": 15.871,
      "duration": 0.387,
      "velocity": 0.71,
      "hand": "left"
    },
    {
      "midi": 48,
      "time": 15.871,
      "duration": 0.194,
      "velocity": 0.71,
      "hand": "left"
    },
    {
      "midi": 60,
      "time": 15.871,
      "duration": 0.194,
      "velocity": 0.71,
      "hand": "right"
    },
    {
      "midi": 53,
      "time": 16.258,
      "duration": 0.387,
      "velocity": 0.71,
      "hand": "left"
    },
    {
      "midi": 53,
      "time": 16.258,
      "duration": 0.194,
      "velocity": 0.71,
      "hand": "left"
    },
    {
      "midi": 65,
      "time": 16.258,
      "duration": 0.194,
      "velocity": 0.71,
      "hand": "right"
    },
    {
      "midi": 48,
      "time": 16.645,
      "duration": 0.387,
      "velocity": 0.71,
      "hand": "left"
    },
    {
      "midi": 48,
      "time": 16.645,
      "duration": 0.194,
      "velocity": 0.71,
      "hand": "left"
    },
    {
      "midi": 60,
      "time": 16.645,
      "duration": 0.194,
      "velocity": 0.71,
      "hand": "right"
    },
    {
      "midi": 53,
      "time": 17.032,
      "duration": 0.387,
      "velocity": 0.71,
      "hand": "left"
    },
    {
      "midi": 65,
      "time": 17.032,
      "duration": 0.387,
      "velocity": 0.71,
      "hand": "right"
    },
    {
      "midi": 48,
      "time": 17.419,
      "duration": 0.387,
      "velocity": 0.71,
      "hand": "left"
    },
    {
      "midi": 48,
      "time": 17.613,
      "duration": 0.097,
      "velocity": 0.71,
      "hand": "left"
    },
    {
      "midi": 60,
      "time": 17.613,
      "duration": 0.097,
      "velocity": 0.71,
      "hand": "right"
    },
    {
      "midi": 50,
      "time": 17.71,
      "duration": 0.097,
      "velocity": 0.71,
      "hand": "left"
    },
    {
      "midi": 52,
      "time": 17.71,
      "duration": 0.097,
      "velocity": 0.71,
      "hand": "left"
    },
    {
      "midi": 62,
      "time": 17.71,
      "duration": 0.097,
      "velocity": 0.71,
      "hand": "right"
    },
    {
      "midi": 64,
      "time": 17.71,
      "duration": 0.097,
      "velocity": 0.71,
      "hand": "right"
    },
    {
      "midi": 53,
      "time": 17.806,
      "duration": 0.387,
      "velocity": 0.71,
      "hand": "left"
    },
    {
      "midi": 65,
      "time": 17.806,
      "duration": 0.387,
      "velocity": 0.71,
      "hand": "right"
    },
    {
      "midi": 55,
      "time": 18.581,
      "duration": 0.387,
      "velocity": 0.71,
      "hand": "left"
    },
    {
      "midi": 55,
      "time": 18.581,
      "duration": 0.194,
      "velocity": 0.71,
      "hand": "left"
    },
    {
      "midi": 67,
      "time": 18.581,
      "duration": 0.194,
      "velocity": 0.71,
      "hand": "right"
    },
    {
      "midi": 48,
      "time": 18.968,
      "duration": 0.387,
      "velocity": 0.71,
      "hand": "left"
    },
    {
      "midi": 48,
      "time": 18.968,
      "duration": 0.194,
      "velocity": 0.71,
      "hand": "left"
    },
    {
      "midi": 60,
      "time": 18.968,
      "duration": 0.194,
      "velocity": 0.71,
      "hand": "right"
    },
    {
      "midi": 55,
      "time": 19.355,
      "duration": 0.387,
      "velocity": 0.71,
      "hand": "left"
    },
    {
      "midi": 55,
      "time": 19.355,
      "duration": 0.194,
      "velocity": 0.71,
      "hand": "left"
    },
    {
      "midi": 67,
      "time": 19.355,
      "duration": 0.194,
      "velocity": 0.71,
      "hand": "right"
    },
    {
      "midi": 48,
      "time": 19.742,
      "duration": 0.387,
      "velocity": 0.71,
      "hand": "left"
    },
    {
      "midi": 48,
      "time": 19.742,
      "duration": 0.194,
      "velocity": 0.71,
      "hand": "left"
    },
    {
      "midi": 60,
      "time": 19.742,
      "duration": 0.194,
      "velocity": 0.71,
      "hand": "right"
    },
    {
      "midi": 55,
      "time": 20.129,
      "duration": 0.387,
      "velocity": 0.71,
      "hand": "left"
    },
    {
      "midi": 67,
      "time": 20.129,
      "duration": 0.387,
      "velocity": 0.71,
      "hand": "right"
    },
    {
      "midi": 48,
      "time": 20.516,
      "duration": 0.387,
      "velocity": 0.71,
      "hand": "left"
    },
    {
      "midi": 48,
      "time": 20.71,
      "duration": 0.048,
      "velocity": 0.71,
      "hand": "left"
    },
    {
      "midi": 50,
      "time": 20.71,
      "duration": 0.048,
      "velocity": 0.71,
      "hand": "left"
    },
    {
      "midi": 60,
      "time": 20.71,
      "duration": 0.048,
      "velocity": 0.71,
      "hand": "right"
    },
    {
      "midi": 62,
      "time": 20.71,
      "duration": 0.048,
      "velocity": 0.71,
      "hand": "right"
    },
    {
      "midi": 52,
      "time": 20.806,
      "duration": 0.048,
      "velocity": 0.71,
      "hand": "left"
    },
    {
      "midi": 53,
      "time": 20.806,
      "duration": 0.048,
      "velocity": 0.71,
      "hand": "left"
    },
    {
      "midi": 64,
      "time": 20.806,
      "duration": 0.048,
      "velocity": 0.71,
      "hand": "right"
    },
    {
      "midi": 65,
      "time": 20.806,
      "duration": 0.048,
      "velocity": 0.71,
      "hand": "right"
    },
    {
      "midi": 55,
      "time": 20.903,
      "duration": 0.387,
      "velocity": 0.71,
      "hand": "left"
    },
    {
      "midi": 67,
      "time": 20.903,
      "duration": 0.387,
      "velocity": 0.71,
      "hand": "right"
    },
    {
      "midi": 57,
      "time": 21.677,
      "duration": 0.387,
      "velocity": 0.71,
      "hand": "left"
    },
    {
      "midi": 57,
      "time": 21.677,
      "duration": 0.194,
      "velocity": 0.71,
      "hand": "left"
    },
    {
      "midi": 69,
      "time": 21.677,
      "duration": 0.194,
      "velocity": 0.71,
      "hand": "right"
    },
    {
      "midi": 53,
      "time": 22.065,
      "duration": 0.387,
      "velocity": 0.71,
      "hand": "left"
    },
    {
      "midi": 53,
      "time": 22.065,
      "duration": 0.194,
      "velocity": 0.71,
      "hand": "left"
    },
    {
      "midi": 65,
      "time": 22.065,
      "duration": 0.194,
      "velocity": 0.71,
      "hand": "right"
    },
    {
      "midi": 57,
      "time": 22.452,
      "duration": 0.387,
      "velocity": 0.71,
      "hand": "left"
    },
    {
      "midi": 57,
      "time": 22.452,
      "duration": 0.194,
      "velocity": 0.71,
      "hand": "left"
    },
    {
      "midi": 69,
      "time": 22.452,
      "duration": 0.194,
      "velocity": 0.71,
      "hand": "right"
    },
    {
      "midi": 53,
      "time": 22.839,
      "duration": 0.387,
      "velocity": 0.71,
      "hand": "left"
    },
    {
      "midi": 53,
      "time": 22.839,
      "duration": 0.194,
      "velocity": 0.71,
      "hand": "left"
    },
    {
      "midi": 65,
      "time": 22.839,
      "duration": 0.194,
      "velocity": 0.71,
      "hand": "right"
    },
    {
      "midi": 57,
      "time": 23.226,
      "duration": 0.387,
      "velocity": 0.71,
      "hand": "left"
    },
    {
      "midi": 69,
      "time": 23.226,
      "duration": 0.387,
      "velocity": 0.71,
      "hand": "right"
    },
    {
      "midi": 53,
      "time": 23.613,
      "duration": 0.387,
      "velocity": 0.71,
      "hand": "left"
    },
    {
      "midi": 53,
      "time": 23.806,
      "duration": 0.097,
      "velocity": 0.71,
      "hand": "left"
    },
    {
      "midi": 65,
      "time": 23.806,
      "duration": 0.097,
      "velocity": 0.71,
      "hand": "right"
    },
    {
      "midi": 55,
      "time": 23.903,
      "duration": 0.097,
      "velocity": 0.71,
      "hand": "left"
    },
    {
      "midi": 67,
      "time": 23.903,
      "duration": 0.097,
      "velocity": 0.71,
      "hand": "right"
    },
    {
      "midi": 57,
      "time": 24,
      "duration": 0.387,
      "velocity": 0.71,
      "hand": "left"
    },
    {
      "midi": 69,
      "time": 24,
      "duration": 0.387,
      "velocity": 0.71,
      "hand": "right"
    },
    {
      "midi": 58,
      "time": 24.774,
      "duration": 0.387,
      "velocity": 0.71,
      "hand": "left"
    },
    {
      "midi": 58,
      "time": 24.774,
      "duration": 0.194,
      "velocity": 0.71,
      "hand": "left"
    },
    {
      "midi": 70,
      "time": 24.774,
      "duration": 0.194,
      "velocity": 0.71,
      "hand": "right"
    },
    {
      "midi": 55,
      "time": 25.161,
      "duration": 0.387,
      "velocity": 0.71,
      "hand": "left"
    },
    {
      "midi": 55,
      "time": 25.161,
      "duration": 0.194,
      "velocity": 0.71,
      "hand": "left"
    },
    {
      "midi": 67,
      "time": 25.161,
      "duration": 0.194,
      "velocity": 0.71,
      "hand": "right"
    },
    {
      "midi": 58,
      "time": 25.548,
      "duration": 0.387,
      "velocity": 0.71,
      "hand": "left"
    },
    {
      "midi": 58,
      "time": 25.548,
      "duration": 0.194,
      "velocity": 0.71,
      "hand": "left"
    },
    {
      "midi": 70,
      "time": 25.548,
      "duration": 0.194,
      "velocity": 0.71,
      "hand": "right"
    },
    {
      "midi": 55,
      "time": 25.935,
      "duration": 0.387,
      "velocity": 0.71,
      "hand": "left"
    },
    {
      "midi": 55,
      "time": 25.935,
      "duration": 0.194,
      "velocity": 0.71,
      "hand": "left"
    },
    {
      "midi": 67,
      "time": 25.935,
      "duration": 0.194,
      "velocity": 0.71,
      "hand": "right"
    },
    {
      "midi": 58,
      "time": 26.323,
      "duration": 0.387,
      "velocity": 0.71,
      "hand": "left"
    },
    {
      "midi": 70,
      "time": 26.323,
      "duration": 0.387,
      "velocity": 0.71,
      "hand": "right"
    },
    {
      "midi": 55,
      "time": 26.71,
      "duration": 0.387,
      "velocity": 0.71,
      "hand": "left"
    },
    {
      "midi": 76,
      "time": 26.903,
      "duration": 0.048,
      "velocity": 0.71,
      "hand": "right"
    },
    {
      "midi": 77,
      "time": 26.903,
      "duration": 0.048,
      "velocity": 0.71,
      "hand": "right"
    },
    {
      "midi": 79,
      "time": 27,
      "duration": 0.048,
      "velocity": 0.71,
      "hand": "right"
    },
    {
      "midi": 81,
      "time": 27,
      "duration": 0.048,
      "velocity": 0.71,
      "hand": "right"
    },
    {
      "midi": 48,
      "time": 27.097,
      "duration": 0.387,
      "velocity": 0.71,
      "hand": "left"
    },
    {
      "midi": 52,
      "time": 27.097,
      "duration": 0.387,
      "velocity": 0.71,
      "hand": "left"
    },
    {
      "midi": 55,
      "time": 27.097,
      "duration": 0.387,
      "velocity": 0.71,
      "hand": "left"
    },
    {
      "midi": 58,
      "time": 27.097,
      "duration": 1.935,
      "velocity": 0.71,
      "hand": "left"
    },
    {
      "midi": 82,
      "time": 27.097,
      "duration": 0.194,
      "velocity": 0.71,
      "hand": "right"
    },
    {
      "midi": 81,
      "time": 27.29,
      "duration": 0.097,
      "velocity": 0.71,
      "hand": "right"
    },
    {
      "midi": 79,
      "time": 27.387,
      "duration": 0.097,
      "velocity": 0.71,
      "hand": "right"
    },
    {
      "midi": 77,
      "time": 27.484,
      "duration": 0.097,
      "velocity": 0.71,
      "hand": "right"
    },
    {
      "midi": 76,
      "time": 27.581,
      "duration": 0.097,
      "velocity": 0.71,
      "hand": "right"
    },
    {
      "midi": 74,
      "time": 27.677,
      "duration": 0.097,
      "velocity": 0.71,
      "hand": "right"
    },
    {
      "midi": 72,
      "time": 27.774,
      "duration": 0.097,
      "velocity": 0.71,
      "hand": "right"
    },
    {
      "midi": 48,
      "time": 27.871,
      "duration": 0.387,
      "velocity": 0.71,
      "hand": "left"
    },
    {
      "midi": 52,
      "time": 27.871,
      "duration": 0.387,
      "velocity": 0.71,
      "hand": "left"
    },
    {
      "midi": 55,
      "time": 27.871,
      "duration": 0.387,
      "velocity": 0.71,
      "hand": "left"
    },
    {
      "midi": 70,
      "time": 27.871,
      "duration": 0.194,
      "velocity": 0.71,
      "hand": "right"
    },
    {
      "midi": 69,
      "time": 28.065,
      "duration": 0.097,
      "velocity": 0.71,
      "hand": "right"
    },
    {
      "midi": 67,
      "time": 28.161,
      "duration": 0.097,
      "velocity": 0.71,
      "hand": "right"
    },
    {
      "midi": 65,
      "time": 28.258,
      "duration": 0.097,
      "velocity": 0.71,
      "hand": "right"
    },
    {
      "midi": 64,
      "time": 28.355,
      "duration": 0.097,
      "velocity": 0.71,
      "hand": "right"
    },
    {
      "midi": 62,
      "time": 28.452,
      "duration": 0.097,
      "velocity": 0.71,
      "hand": "right"
    },
    {
      "midi": 60,
      "time": 28.548,
      "duration": 0.097,
      "velocity": 0.71,
      "hand": "right"
    },
    {
      "midi": 48,
      "time": 28.645,
      "duration": 0.387,
      "velocity": 0.71,
      "hand": "left"
    },
    {
      "midi": 52,
      "time": 28.645,
      "duration": 0.387,
      "velocity": 0.71,
      "hand": "left"
    },
    {
      "midi": 55,
      "time": 28.645,
      "duration": 0.387,
      "velocity": 0.71,
      "hand": "left"
    },
    {
      "midi": 58,
      "time": 28.645,
      "duration": 0.387,
      "velocity": 0.71,
      "hand": "left"
    },
    {
      "midi": 41,
      "time": 30.194,
      "duration": 0.387,
      "velocity": 0.71,
      "hand": "left"
    },
    {
      "midi": 53,
      "time": 30.194,
      "duration": 0.387,
      "velocity": 0.71,
      "hand": "left"
    },
    {
      "midi": 57,
      "time": 30.194,
      "duration": 1.161,
      "velocity": 0.71,
      "hand": "left"
    },
    {
      "midi": 69,
      "time": 30.194,
      "duration": 0.097,
      "velocity": 0.71,
      "hand": "right"
    },
    {
      "midi": 65,
      "time": 30.29,
      "duration": 0.097,
      "velocity": 0.71,
      "hand": "right"
    },
    {
      "midi": 60,
      "time": 30.484,
      "duration": 0.097,
      "velocity": 0.71,
      "hand": "right"
    },
    {
      "midi": 69,
      "time": 30.581,
      "duration": 0.097,
      "velocity": 0.71,
      "hand": "right"
    },
    {
      "midi": 65,
      "time": 30.677,
      "duration": 0.097,
      "velocity": 0.71,
      "hand": "right"
    },
    {
      "midi": 60,
      "time": 30.871,
      "duration": 0.097,
      "velocity": 0.71,
      "hand": "right"
    },
    {
      "midi": 69,
      "time": 30.968,
      "duration": 0.097,
      "velocity": 0.71,
      "hand": "right"
    },
    {
      "midi": 65,
      "time": 31.065,
      "duration": 0.097,
      "velocity": 0.71,
      "hand": "right"
    },
    {
      "midi": 60,
      "time": 31.258,
      "duration": 0.097,
      "velocity": 0.71,
      "hand": "right"
    },
    {
      "midi": 58,
      "time": 31.355,
      "duration": 0.387,
      "velocity": 0.71,
      "hand": "left"
    },
    {
      "midi": 70,
      "time": 31.355,
      "duration": 0.097,
      "velocity": 0.71,
      "hand": "right"
    },
    {
      "midi": 67,
      "time": 31.452,
      "duration": 0.097,
      "velocity": 0.71,
      "hand": "right"
    },
    {
      "midi": 60,
      "time": 31.645,
      "duration": 0.097,
      "velocity": 0.71,
      "hand": "right"
    },
    {
      "midi": 60,
      "time": 31.742,
      "duration": 0.387,
      "velocity": 0.71,
      "hand": "right"
    },
    {
      "midi": 72,
      "time": 31.742,
      "duration": 0.097,
      "velocity": 0.71,
      "hand": "right"
    },
    {
      "midi": 69,
      "time": 31.839,
      "duration": 0.097,
      "velocity": 0.71,
      "hand": "right"
    },
    {
      "midi": 60,
      "time": 32.032,
      "duration": 0.097,
      "velocity": 0.71,
      "hand": "right"
    },
    {
      "midi": 58,
      "time": 32.129,
      "duration": 0.387,
      "velocity": 0.71,
      "hand": "left"
    },
    {
      "midi": 70,
      "time": 32.129,
      "duration": 0.097,
      "velocity": 0.71,
      "hand": "right"
    },
    {
      "midi": 67,
      "time": 32.226,
      "duration": 0.097,
      "velocity": 0.71,
      "hand": "right"
    },
    {
      "midi": 60,
      "time": 32.419,
      "duration": 0.097,
      "velocity": 0.71,
      "hand": "right"
    },
    {
      "midi": 57,
      "time": 32.516,
      "duration": 0.387,
      "velocity": 0.71,
      "hand": "left"
    },
    {
      "midi": 69,
      "time": 32.516,
      "duration": 0.097,
      "velocity": 0.71,
      "hand": "right"
    },
    {
      "midi": 65,
      "time": 32.613,
      "duration": 0.097,
      "velocity": 0.71,
      "hand": "right"
    },
    {
      "midi": 60,
      "time": 32.806,
      "duration": 0.097,
      "velocity": 0.71,
      "hand": "right"
    },
    {
      "midi": 55,
      "time": 32.903,
      "duration": 0.387,
      "velocity": 0.71,
      "hand": "left"
    },
    {
      "midi": 67,
      "time": 32.903,
      "duration": 0.097,
      "velocity": 0.71,
      "hand": "right"
    },
    {
      "midi": 64,
      "time": 33,
      "duration": 0.097,
      "velocity": 0.71,
      "hand": "right"
    },
    {
      "midi": 60,
      "time": 33.194,
      "duration": 0.097,
      "velocity": 0.71,
      "hand": "right"
    },
    {
      "midi": 41,
      "time": 33.29,
      "duration": 0.387,
      "velocity": 0.71,
      "hand": "left"
    },
    {
      "midi": 53,
      "time": 33.29,
      "duration": 0.387,
      "velocity": 0.71,
      "hand": "left"
    },
    {
      "midi": 79,
      "time": 33.29,
      "duration": 0.048,
      "velocity": 0.71,
      "hand": "right"
    },
    {
      "midi": 81,
      "time": 33.29,
      "duration": 0.048,
      "velocity": 0.71,
      "hand": "right"
    },
    {
      "midi": 82,
      "time": 33.29,
      "duration": 0.048,
      "velocity": 0.71,
      "hand": "right"
    },
    {
      "midi": 84,
      "time": 33.29,
      "duration": 0.048,
      "velocity": 0.71,
      "hand": "right"
    },
    {
      "midi": 77,
      "time": 33.387,
      "duration": 0.29,
      "velocity": 0.71,
      "hand": "right"
    },
    {
      "midi": 81,
      "time": 33.387,
      "duration": 0.29,
      "velocity": 0.71,
      "hand": "right"
    },
    {
      "midi": 45,
      "time": 33.677,
      "duration": 0.387,
      "velocity": 0.71,
      "hand": "left"
    },
    {
      "midi": 53,
      "time": 33.677,
      "duration": 0.387,
      "velocity": 0.71,
      "hand": "left"
    },
    {
      "midi": 57,
      "time": 33.677,
      "duration": 0.387,
      "velocity": 0.71,
      "hand": "left"
    },
    {
      "midi": 77,
      "time": 33.677,
      "duration": 0.194,
      "velocity": 0.71,
      "hand": "right"
    },
    {
      "midi": 81,
      "time": 33.677,
      "duration": 0.194,
      "velocity": 0.71,
      "hand": "right"
    },
    {
      "midi": 77,
      "time": 33.871,
      "duration": 0.194,
      "velocity": 0.71,
      "hand": "right"
    },
    {
      "midi": 81,
      "time": 33.871,
      "duration": 0.194,
      "velocity": 0.71,
      "hand": "right"
    },
    {
      "midi": 48,
      "time": 34.065,
      "duration": 0.387,
      "velocity": 0.71,
      "hand": "left"
    },
    {
      "midi": 60,
      "time": 34.065,
      "duration": 0.387,
      "velocity": 0.71,
      "hand": "right"
    },
    {
      "midi": 77,
      "time": 34.065,
      "duration": 0.194,
      "velocity": 0.71,
      "hand": "right"
    },
    {
      "midi": 81,
      "time": 34.065,
      "duration": 0.194,
      "velocity": 0.71,
      "hand": "right"
    },
    {
      "midi": 79,
      "time": 34.258,
      "duration": 0.097,
      "velocity": 0.71,
      "hand": "right"
    },
    {
      "midi": 81,
      "time": 34.355,
      "duration": 0.097,
      "velocity": 0.71,
      "hand": "right"
    },
    {
      "midi": 36,
      "time": 34.452,
      "duration": 0.387,
      "velocity": 0.71,
      "hand": "left"
    },
    {
      "midi": 48,
      "time": 34.452,
      "duration": 0.387,
      "velocity": 0.71,
      "hand": "left"
    },
    {
      "midi": 79,
      "time": 34.452,
      "duration": 0.194,
      "velocity": 0.71,
      "hand": "right"
    },
    {
      "midi": 82,
      "time": 34.452,
      "duration": 0.194,
      "velocity": 0.71,
      "hand": "right"
    },
    {
      "midi": 76,
      "time": 34.645,
      "duration": 0.194,
      "velocity": 0.71,
      "hand": "right"
    },
    {
      "midi": 79,
      "time": 34.645,
      "duration": 0.194,
      "velocity": 0.71,
      "hand": "right"
    },
    {
      "midi": 41,
      "time": 34.839,
      "duration": 0.387,
      "velocity": 0.71,
      "hand": "left"
    },
    {
      "midi": 53,
      "time": 34.839,
      "duration": 0.387,
      "velocity": 0.71,
      "hand": "left"
    },
    {
      "midi": 57,
      "time": 34.839,
      "duration": 1.161,
      "velocity": 0.71,
      "hand": "left"
    },
    {
      "midi": 69,
      "time": 34.839,
      "duration": 0.097,
      "velocity": 0.71,
      "hand": "right"
    },
    {
      "midi": 65,
      "time": 34.935,
      "duration": 0.097,
      "velocity": 0.71,
      "hand": "right"
    },
    {
      "midi": 60,
      "time": 35.129,
      "duration": 0.097,
      "velocity": 0.71,
      "hand": "right"
    },
    {
      "midi": 69,
      "time": 35.226,
      "duration": 0.097,
      "velocity": 0.71,
      "hand": "right"
    },
    {
      "midi": 65,
      "time": 35.323,
      "duration": 0.097,
      "velocity": 0.71,
      "hand": "right"
    },
    {
      "midi": 60,
      "time": 35.516,
      "duration": 0.097,
      "velocity": 0.71,
      "hand": "right"
    },
    {
      "midi": 69,
      "time": 35.613,
      "duration": 0.097,
      "velocity": 0.71,
      "hand": "right"
    },
    {
      "midi": 65,
      "time": 35.71,
      "duration": 0.097,
      "velocity": 0.71,
      "hand": "right"
    },
    {
      "midi": 60,
      "time": 35.903,
      "duration": 0.097,
      "velocity": 0.71,
      "hand": "right"
    },
    {
      "midi": 58,
      "time": 36,
      "duration": 0.387,
      "velocity": 0.71,
      "hand": "left"
    },
    {
      "midi": 70,
      "time": 36,
      "duration": 0.097,
      "velocity": 0.71,
      "hand": "right"
    },
    {
      "midi": 67,
      "time": 36.097,
      "duration": 0.097,
      "velocity": 0.71,
      "hand": "right"
    },
    {
      "midi": 60,
      "time": 36.29,
      "duration": 0.097,
      "velocity": 0.71,
      "hand": "right"
    },
    {
      "midi": 60,
      "time": 36.387,
      "duration": 0.387,
      "velocity": 0.71,
      "hand": "right"
    },
    {
      "midi": 72,
      "time": 36.387,
      "duration": 0.097,
      "velocity": 0.71,
      "hand": "right"
    },
    {
      "midi": 69,
      "time": 36.484,
      "duration": 0.097,
      "velocity": 0.71,
      "hand": "right"
    },
    {
      "midi": 60,
      "time": 36.677,
      "duration": 0.097,
      "velocity": 0.71,
      "hand": "right"
    },
    {
      "midi": 58,
      "time": 36.774,
      "duration": 0.387,
      "velocity": 0.71,
      "hand": "left"
    },
    {
      "midi": 70,
      "time": 36.774,
      "duration": 0.097,
      "velocity": 0.71,
      "hand": "right"
    },
    {
      "midi": 67,
      "time": 36.871,
      "duration": 0.097,
      "velocity": 0.71,
      "hand": "right"
    },
    {
      "midi": 60,
      "time": 37.065,
      "duration": 0.097,
      "velocity": 0.71,
      "hand": "right"
    },
    {
      "midi": 57,
      "time": 37.161,
      "duration": 0.387,
      "velocity": 0.71,
      "hand": "left"
    },
    {
      "midi": 69,
      "time": 37.161,
      "duration": 0.097,
      "velocity": 0.71,
      "hand": "right"
    },
    {
      "midi": 65,
      "time": 37.258,
      "duration": 0.097,
      "velocity": 0.71,
      "hand": "right"
    },
    {
      "midi": 60,
      "time": 37.452,
      "duration": 0.097,
      "velocity": 0.71,
      "hand": "right"
    },
    {
      "midi": 48,
      "time": 37.548,
      "duration": 0.387,
      "velocity": 0.71,
      "hand": "left"
    },
    {
      "midi": 55,
      "time": 37.548,
      "duration": 0.387,
      "velocity": 0.71,
      "hand": "left"
    },
    {
      "midi": 58,
      "time": 37.548,
      "duration": 0.387,
      "velocity": 0.71,
      "hand": "left"
    },
    {
      "midi": 67,
      "time": 37.548,
      "duration": 0.097,
      "velocity": 0.71,
      "hand": "right"
    },
    {
      "midi": 64,
      "time": 37.645,
      "duration": 0.097,
      "velocity": 0.71,
      "hand": "right"
    },
    {
      "midi": 60,
      "time": 37.839,
      "duration": 0.097,
      "velocity": 0.71,
      "hand": "right"
    },
    {
      "midi": 53,
      "time": 37.935,
      "duration": 0.387,
      "velocity": 0.71,
      "hand": "left"
    },
    {
      "midi": 57,
      "time": 37.935,
      "duration": 0.387,
      "velocity": 0.71,
      "hand": "left"
    },
    {
      "midi": 65,
      "time": 37.935,
      "duration": 0.387,
      "velocity": 0.71,
      "hand": "right"
    },
    {
      "midi": 53,
      "time": 38.71,
      "duration": 0.387,
      "velocity": 0.71,
      "hand": "left"
    },
    {
      "midi": 65,
      "time": 38.71,
      "duration": 0.387,
      "velocity": 0.71,
      "hand": "right"
    },
    {
      "midi": 57,
      "time": 39.097,
      "duration": 0.387,
      "velocity": 0.71,
      "hand": "left"
    },
    {
      "midi": 69,
      "time": 39.097,
      "duration": 0.387,
      "velocity": 0.71,
      "hand": "right"
    },
    {
      "midi": 46,
      "time": 39.484,
      "duration": 0.774,
      "velocity": 0.71,
      "hand": "left"
    },
    {
      "midi": 46,
      "time": 39.484,
      "duration": 0.387,
      "velocity": 0.71,
      "hand": "left"
    },
    {
      "midi": 58,
      "time": 39.871,
      "duration": 0.387,
      "velocity": 0.71,
      "hand": "left"
    },
    {
      "midi": 50,
      "time": 40.258,
      "duration": 0.774,
      "velocity": 0.71,
      "hand": "left"
    },
    {
      "midi": 50,
      "time": 40.258,
      "duration": 0.387,
      "velocity": 0.71,
      "hand": "left"
    },
    {
      "midi": 62,
      "time": 40.645,
      "duration": 0.387,
      "velocity": 0.71,
      "hand": "right"
    },
    {
      "midi": 48,
      "time": 41.032,
      "duration": 0.774,
      "velocity": 0.71,
      "hand": "left"
    },
    {
      "midi": 48,
      "time": 41.032,
      "duration": 0.387,
      "velocity": 0.71,
      "hand": "left"
    },
    {
      "midi": 60,
      "time": 41.419,
      "duration": 0.387,
      "velocity": 0.71,
      "hand": "right"
    },
    {
      "midi": 52,
      "time": 41.806,
      "duration": 0.774,
      "velocity": 0.71,
      "hand": "left"
    },
    {
      "midi": 52,
      "time": 41.806,
      "duration": 0.387,
      "velocity": 0.71,
      "hand": "left"
    },
    {
      "midi": 64,
      "time": 42.194,
      "duration": 0.387,
      "velocity": 0.71,
      "hand": "right"
    },
    {
      "midi": 53,
      "time": 42.581,
      "duration": 0.194,
      "velocity": 0.71,
      "hand": "left"
    },
    {
      "midi": 53,
      "time": 42.581,
      "duration": 0.387,
      "velocity": 0.71,
      "hand": "left"
    },
    {
      "midi": 65,
      "time": 42.581,
      "duration": 0.194,
      "velocity": 0.71,
      "hand": "right"
    },
    {
      "midi": 57,
      "time": 42.968,
      "duration": 0.194,
      "velocity": 0.71,
      "hand": "left"
    },
    {
      "midi": 69,
      "time": 42.968,
      "duration": 0.194,
      "velocity": 0.71,
      "hand": "right"
    },
    {
      "midi": 60,
      "time": 43.355,
      "duration": 0.194,
      "velocity": 0.71,
      "hand": "right"
    },
    {
      "midi": 72,
      "time": 43.355,
      "duration": 0.194,
      "velocity": 0.71,
      "hand": "right"
    },
    {
      "midi": 57,
      "time": 43.742,
      "duration": 0.194,
      "velocity": 0.71,
      "hand": "left"
    },
    {
      "midi": 69,
      "time": 43.742,
      "duration": 0.194,
      "velocity": 0.71,
      "hand": "right"
    },
    {
      "midi": 53,
      "time": 44.129,
      "duration": 0.194,
      "velocity": 0.71,
      "hand": "left"
    },
    {
      "midi": 65,
      "time": 44.129,
      "duration": 0.194,
      "velocity": 0.71,
      "hand": "right"
    },
    {
      "midi": 48,
      "time": 44.516,
      "duration": 0.194,
      "velocity": 0.71,
      "hand": "left"
    },
    {
      "midi": 60,
      "time": 44.516,
      "duration": 0.194,
      "velocity": 0.71,
      "hand": "right"
    },
    {
      "midi": 45,
      "time": 44.903,
      "duration": 0.387,
      "velocity": 0.71,
      "hand": "left"
    },
    {
      "midi": 46,
      "time": 44.903,
      "duration": 0.194,
      "velocity": 0.71,
      "hand": "left"
    },
    {
      "midi": 57,
      "time": 44.903,
      "duration": 0.387,
      "velocity": 0.71,
      "hand": "left"
    },
    {
      "midi": 48,
      "time": 45.29,
      "duration": 0.387,
      "velocity": 0.71,
      "hand": "left"
    },
    {
      "midi": 60,
      "time": 45.29,
      "duration": 0.387,
      "velocity": 0.71,
      "hand": "right"
    },
    {
      "midi": 46,
      "time": 45.677,
      "duration": 0.774,
      "velocity": 0.71,
      "hand": "left"
    },
    {
      "midi": 46,
      "time": 45.677,
      "duration": 0.387,
      "velocity": 0.71,
      "hand": "left"
    },
    {
      "midi": 58,
      "time": 46.065,
      "duration": 0.387,
      "velocity": 0.71,
      "hand": "left"
    },
    {
      "midi": 50,
      "time": 46.452,
      "duration": 0.774,
      "velocity": 0.71,
      "hand": "left"
    },
    {
      "midi": 50,
      "time": 46.452,
      "duration": 0.387,
      "velocity": 0.71,
      "hand": "left"
    },
    {
      "midi": 62,
      "time": 46.839,
      "duration": 0.387,
      "velocity": 0.71,
      "hand": "right"
    },
    {
      "midi": 48,
      "time": 47.226,
      "duration": 1.161,
      "velocity": 0.71,
      "hand": "left"
    },
    {
      "midi": 48,
      "time": 47.226,
      "duration": 0.387,
      "velocity": 0.71,
      "hand": "left"
    },
    {
      "midi": 53,
      "time": 47.226,
      "duration": 0.774,
      "velocity": 0.71,
      "hand": "left"
    },
    {
      "midi": 57,
      "time": 47.226,
      "duration": 0.774,
      "velocity": 0.71,
      "hand": "left"
    },
    {
      "midi": 60,
      "time": 47.613,
      "duration": 0.387,
      "velocity": 0.71,
      "hand": "right"
    },
    {
      "midi": 48,
      "time": 48,
      "duration": 0.387,
      "velocity": 0.71,
      "hand": "left"
    },
    {
      "midi": 52,
      "time": 48,
      "duration": 0.774,
      "velocity": 0.71,
      "hand": "left"
    },
    {
      "midi": 55,
      "time": 48,
      "duration": 0.774,
      "velocity": 0.71,
      "hand": "left"
    },
    {
      "midi": 50,
      "time": 48.387,
      "duration": 0.194,
      "velocity": 0.71,
      "hand": "left"
    },
    {
      "midi": 60,
      "time": 48.387,
      "duration": 0.387,
      "velocity": 0.71,
      "hand": "right"
    },
    {
      "midi": 52,
      "time": 48.581,
      "duration": 0.194,
      "velocity": 0.71,
      "hand": "left"
    },
    {
      "midi": 53,
      "time": 48.774,
      "duration": 0.387,
      "velocity": 0.71,
      "hand": "left"
    },
    {
      "midi": 53,
      "time": 48.774,
      "duration": 0.774,
      "velocity": 0.71,
      "hand": "left"
    },
    {
      "midi": 65,
      "time": 48.774,
      "duration": 0.387,
      "velocity": 0.71,
      "hand": "right"
    },
    {
      "midi": 53,
      "time": 49.548,
      "duration": 0.774,
      "velocity": 0.71,
      "hand": "left"
    },
    {
      "midi": 62,
      "time": 49.548,
      "duration": 0.774,
      "velocity": 0.71,
      "hand": "right"
    },
    {
      "midi": 70,
      "time": 49.548,
      "duration": 0.581,
      "velocity": 0.71,
      "hand": "right"
    },
    {
      "midi": 72,
      "time": 50.129,
      "duration": 0.097,
      "velocity": 0.71,
      "hand": "right"
    },
    {
      "midi": 70,
      "time": 50.226,
      "duration": 0.097,
      "velocity": 0.71,
      "hand": "right"
    },
    {
      "midi": 53,
      "time": 50.323,
      "duration": 0.774,
      "velocity": 0.71,
      "hand": "left"
    },
    {
      "midi": 60,
      "time": 50.323,
      "duration": 0.387,
      "velocity": 0.71,
      "hand": "right"
    },
    {
      "midi": 69,
      "time": 50.323,
      "duration": 0.194,
      "velocity": 0.71,
      "hand": "right"
    },
    {
      "midi": 65,
      "time": 50.71,
      "duration": 0.194,
      "velocity": 0.71,
      "hand": "right"
    },
    {
      "midi": 53,
      "time": 51.097,
      "duration": 0.774,
      "velocity": 0.71,
      "hand": "left"
    },
    {
      "midi": 58,
      "time": 51.097,
      "duration": 0.581,
      "velocity": 0.71,
      "hand": "left"
    },
    {
      "midi": 74,
      "time": 51.097,
      "duration": 0.581,
      "velocity": 0.71,
      "hand": "right"
    },
    {
      "midi": 60,
      "time": 51.677,
      "duration": 0.097,
      "velocity": 0.71,
      "hand": "right"
    },
    {
      "midi": 76,
      "time": 51.677,
      "duration": 0.097,
      "velocity": 0.71,
      "hand": "right"
    },
    {
      "midi": 62,
      "time": 51.774,
      "duration": 0.097,
      "velocity": 0.71,
      "hand": "right"
    },
    {
      "midi": 77,
      "time": 51.774,
      "duration": 0.097,
      "velocity": 0.71,
      "hand": "right"
    },
    {
      "midi": 53,
      "time": 51.871,
      "duration": 0.387,
      "velocity": 0.71,
      "hand": "left"
    },
    {
      "midi": 57,
      "time": 51.871,
      "duration": 0.387,
      "velocity": 0.71,
      "hand": "left"
    },
    {
      "midi": 72,
      "time": 51.871,
      "duration": 0.387,
      "velocity": 0.71,
      "hand": "right"
    },
    {
      "midi": 57,
      "time": 52.645,
      "duration": 0.387,
      "velocity": 0.71,
      "hand": "left"
    },
    {
      "midi": 60,
      "time": 53.032,
      "duration": 0.387,
      "velocity": 0.71,
      "hand": "right"
    },
    {
      "midi": 48,
      "time": 53.419,
      "duration": 1.548,
      "velocity": 0.71,
      "hand": "left"
    },
    {
      "midi": 58,
      "time": 53.419,
      "duration": 1.548,
      "velocity": 0.71,
      "hand": "left"
    },
    {
      "midi": 60,
      "time": 53.419,
      "duration": 0.194,
      "velocity": 0.71,
      "hand": "right"
    },
    {
      "midi": 60,
      "time": 53.419,
      "duration": 1.935,
      "velocity": 0.71,
      "hand": "right"
    },
    {
      "midi": 64,
      "time": 53.419,
      "duration": 1.548,
      "velocity": 0.71,
      "hand": "right"
    },
    {
      "midi": 58,
      "time": 53.613,
      "duration": 0.194,
      "velocity": 0.71,
      "hand": "left"
    },
    {
      "midi": 57,
      "time": 53.806,
      "duration": 0.194,
      "velocity": 0.71,
      "hand": "left"
    },
    {
      "midi": 55,
      "time": 54,
      "duration": 0.194,
      "velocity": 0.71,
      "hand": "left"
    },
    {
      "midi": 55,
      "time": 54.194,
      "duration": 0.387,
      "velocity": 0.71,
      "hand": "left"
    },
    {
      "midi": 55,
      "time": 54.581,
      "duration": 0.387,
      "velocity": 0.71,
      "hand": "left"
    },
    {
      "midi": 41,
      "time": 54.968,
      "duration": 0.387,
      "velocity": 0.71,
      "hand": "left"
    },
    {
      "midi": 53,
      "time": 54.968,
      "duration": 0.387,
      "velocity": 0.71,
      "hand": "left"
    },
    {
      "midi": 57,
      "time": 54.968,
      "duration": 0.387,
      "velocity": 0.71,
      "hand": "left"
    },
    {
      "midi": 65,
      "time": 54.968,
      "duration": 0.387,
      "velocity": 0.71,
      "hand": "right"
    },
    {
      "midi": 53,
      "time": 55.355,
      "duration": 0.387,
      "velocity": 0.71,
      "hand": "left"
    },
    {
      "midi": 53,
      "time": 55.742,
      "duration": 0.774,
      "velocity": 0.71,
      "hand": "left"
    },
    {
      "midi": 62,
      "time": 55.742,
      "duration": 0.774,
      "velocity": 0.71,
      "hand": "right"
    },
    {
      "midi": 70,
      "time": 55.742,
      "duration": 0.581,
      "velocity": 0.71,
      "hand": "right"
    },
    {
      "midi": 72,
      "time": 56.323,
      "duration": 0.097,
      "velocity": 0.71,
      "hand": "right"
    },
    {
      "midi": 70,
      "time": 56.419,
      "duration": 0.097,
      "velocity": 0.71,
      "hand": "right"
    },
    {
      "midi": 53,
      "time": 56.516,
      "duration": 0.774,
      "velocity": 0.71,
      "hand": "left"
    },
    {
      "midi": 60,
      "time": 56.516,
      "duration": 0.387,
      "velocity": 0.71,
      "hand": "right"
    },
    {
      "midi": 69,
      "time": 56.516,
      "duration": 0.194,
      "velocity": 0.71,
      "hand": "right"
    },
    {
      "midi": 65,
      "time": 56.903,
      "duration": 0.194,
      "velocity": 0.71,
      "hand": "right"
    },
    {
      "midi": 53,
      "time": 57.29,
      "duration": 0.774,
      "velocity": 0.71,
      "hand": "left"
    },
    {
      "midi": 58,
      "time": 57.29,
      "duration": 0.581,
      "velocity": 0.71,
      "hand": "left"
    },
    {
      "midi": 74,
      "time": 57.29,
      "duration": 0.581,
      "velocity": 0.71,
      "hand": "right"
    },
    {
      "midi": 60,
      "time": 57.871,
      "duration": 0.097,
      "velocity": 0.71,
      "hand": "right"
    },
    {
      "midi": 76,
      "time": 57.871,
      "duration": 0.097,
      "velocity": 0.71,
      "hand": "right"
    },
    {
      "midi": 62,
      "time": 57.968,
      "duration": 0.097,
      "velocity": 0.71,
      "hand": "right"
    },
    {
      "midi": 77,
      "time": 57.968,
      "duration": 0.097,
      "velocity": 0.71,
      "hand": "right"
    },
    {
      "midi": 53,
      "time": 58.065,
      "duration": 0.387,
      "velocity": 0.71,
      "hand": "left"
    },
    {
      "midi": 57,
      "time": 58.065,
      "duration": 0.387,
      "velocity": 0.71,
      "hand": "left"
    },
    {
      "midi": 72,
      "time": 58.065,
      "duration": 0.387,
      "velocity": 0.71,
      "hand": "right"
    },
    {
      "midi": 57,
      "time": 58.839,
      "duration": 0.387,
      "velocity": 0.71,
      "hand": "left"
    },
    {
      "midi": 60,
      "time": 59.226,
      "duration": 0.387,
      "velocity": 0.71,
      "hand": "right"
    },
    {
      "midi": 48,
      "time": 59.613,
      "duration": 1.548,
      "velocity": 0.71,
      "hand": "left"
    },
    {
      "midi": 58,
      "time": 59.613,
      "duration": 1.548,
      "velocity": 0.71,
      "hand": "left"
    },
    {
      "midi": 60,
      "time": 59.613,
      "duration": 0.194,
      "velocity": 0.71,
      "hand": "right"
    },
    {
      "midi": 60,
      "time": 59.613,
      "duration": 1.548,
      "velocity": 0.71,
      "hand": "right"
    },
    {
      "midi": 64,
      "time": 59.613,
      "duration": 1.548,
      "velocity": 0.71,
      "hand": "right"
    },
    {
      "midi": 58,
      "time": 59.806,
      "duration": 0.194,
      "velocity": 0.71,
      "hand": "left"
    },
    {
      "midi": 57,
      "time": 60,
      "duration": 0.194,
      "velocity": 0.71,
      "hand": "left"
    },
    {
      "midi": 55,
      "time": 60.194,
      "duration": 0.194,
      "velocity": 0.71,
      "hand": "left"
    },
    {
      "midi": 55,
      "time": 60.387,
      "duration": 0.581,
      "velocity": 0.71,
      "hand": "left"
    },
    {
      "midi": 57,
      "time": 60.968,
      "duration": 0.194,
      "velocity": 0.71,
      "hand": "left"
    },
    {
      "midi": 41,
      "time": 61.161,
      "duration": 0.387,
      "velocity": 0.71,
      "hand": "left"
    },
    {
      "midi": 53,
      "time": 61.161,
      "duration": 0.387,
      "velocity": 0.71,
      "hand": "left"
    },
    {
      "midi": 53,
      "time": 61.548,
      "duration": 0.387,
      "velocity": 0.71,
      "hand": "left"
    },
    {
      "midi": 57,
      "time": 61.548,
      "duration": 0.387,
      "velocity": 0.71,
      "hand": "left"
    },
    {
      "midi": 60,
      "time": 61.548,
      "duration": 0.387,
      "velocity": 0.71,
      "hand": "right"
    },
    {
      "midi": 65,
      "time": 61.548,
      "duration": 0.387,
      "velocity": 0.71,
      "hand": "right"
    },
    {
      "midi": 41,
      "time": 61.935,
      "duration": 0.387,
      "velocity": 0.71,
      "hand": "left"
    },
    {
      "midi": 53,
      "time": 61.935,
      "duration": 0.387,
      "velocity": 0.71,
      "hand": "left"
    },
    {
      "midi": 53,
      "time": 62.323,
      "duration": 0.387,
      "velocity": 0.71,
      "hand": "left"
    },
    {
      "midi": 57,
      "time": 62.323,
      "duration": 0.387,
      "velocity": 0.71,
      "hand": "left"
    },
    {
      "midi": 62,
      "time": 62.323,
      "duration": 0.387,
      "velocity": 0.71,
      "hand": "right"
    },
    {
      "midi": 65,
      "time": 62.323,
      "duration": 0.387,
      "velocity": 0.71,
      "hand": "right"
    },
    {
      "midi": 43,
      "time": 62.71,
      "duration": 0.387,
      "velocity": 0.71,
      "hand": "left"
    },
    {
      "midi": 52,
      "time": 62.71,
      "duration": 0.581,
      "velocity": 0.71,
      "hand": "left"
    },
    {
      "midi": 55,
      "time": 63.097,
      "duration": 0.387,
      "velocity": 0.71,
      "hand": "left"
    },
    {
      "midi": 60,
      "time": 63.097,
      "duration": 0.387,
      "velocity": 0.71,
      "hand": "right"
    },
    {
      "midi": 64,
      "time": 63.097,
      "duration": 0.387,
      "velocity": 0.71,
      "hand": "right"
    },
    {
      "midi": 52,
      "time": 63.29,
      "duration": 0.194,
      "velocity": 0.71,
      "hand": "left"
    },
    {
      "midi": 43,
      "time": 63.484,
      "duration": 0.387,
      "velocity": 0.71,
      "hand": "left"
    },
    {
      "midi": 50,
      "time": 63.484,
      "duration": 0.581,
      "velocity": 0.71,
      "hand": "left"
    },
    {
      "midi": 53,
      "time": 63.871,
      "duration": 0.387,
      "velocity": 0.71,
      "hand": "left"
    },
    {
      "midi": 59,
      "time": 63.871,
      "duration": 0.387,
      "velocity": 0.71,
      "hand": "left"
    },
    {
      "midi": 62,
      "time": 63.871,
      "duration": 0.387,
      "velocity": 0.71,
      "hand": "right"
    },
    {
      "midi": 50,
      "time": 64.065,
      "duration": 0.194,
      "velocity": 0.71,
      "hand": "left"
    },
    {
      "midi": 36,
      "time": 64.258,
      "duration": 0.387,
      "velocity": 0.71,
      "hand": "left"
    },
    {
      "midi": 48,
      "time": 64.258,
      "duration": 0.387,
      "velocity": 0.71,
      "hand": "left"
    },
    {
      "midi": 48,
      "time": 64.645,
      "duration": 0.194,
      "velocity": 0.71,
      "hand": "left"
    },
    {
      "midi": 52,
      "time": 64.645,
      "duration": 0.387,
      "velocity": 0.71,
      "hand": "left"
    },
    {
      "midi": 55,
      "time": 64.645,
      "duration": 0.387,
      "velocity": 0.71,
      "hand": "left"
    },
    {
      "midi": 60,
      "time": 64.645,
      "duration": 0.387,
      "velocity": 0.71,
      "hand": "right"
    },
    {
      "midi": 48,
      "time": 64.839,
      "duration": 0.194,
      "velocity": 0.71,
      "hand": "left"
    },
    {
      "midi": 43,
      "time": 65.032,
      "duration": 0.387,
      "velocity": 0.71,
      "hand": "left"
    },
    {
      "midi": 50,
      "time": 65.032,
      "duration": 0.581,
      "velocity": 0.71,
      "hand": "left"
    },
    {
      "midi": 53,
      "time": 65.419,
      "duration": 0.387,
      "velocity": 0.71,
      "hand": "left"
    },
    {
      "midi": 55,
      "time": 65.419,
      "duration": 0.387,
      "velocity": 0.71,
      "hand": "left"
    },
    {
      "midi": 59,
      "time": 65.419,
      "duration": 0.387,
      "velocity": 0.71,
      "hand": "left"
    },
    {
      "midi": 62,
      "time": 65.419,
      "duration": 0.387,
      "velocity": 0.71,
      "hand": "right"
    },
    {
      "midi": 52,
      "time": 65.613,
      "duration": 0.194,
      "velocity": 0.71,
      "hand": "left"
    },
    {
      "midi": 36,
      "time": 65.806,
      "duration": 0.387,
      "velocity": 0.71,
      "hand": "left"
    },
    {
      "midi": 48,
      "time": 65.806,
      "duration": 0.387,
      "velocity": 0.71,
      "hand": "left"
    },
    {
      "midi": 48,
      "time": 66.194,
      "duration": 0.194,
      "velocity": 0.71,
      "hand": "left"
    },
    {
      "midi": 52,
      "time": 66.194,
      "duration": 0.387,
      "velocity": 0.71,
      "hand": "left"
    },
    {
      "midi": 55,
      "time": 66.194,
      "duration": 0.387,
      "velocity": 0.71,
      "hand": "left"
    },
    {
      "midi": 60,
      "time": 66.194,
      "duration": 0.387,
      "velocity": 0.71,
      "hand": "right"
    },
    {
      "midi": 48,
      "time": 66.387,
      "duration": 0.194,
      "velocity": 0.71,
      "hand": "left"
    },
    {
      "midi": 31,
      "time": 66.581,
      "duration": 0.387,
      "velocity": 0.71,
      "hand": "left"
    },
    {
      "midi": 43,
      "time": 66.581,
      "duration": 0.387,
      "velocity": 0.71,
      "hand": "left"
    },
    {
      "midi": 50,
      "time": 66.581,
      "duration": 0.581,
      "velocity": 0.71,
      "hand": "left"
    },
    {
      "midi": 53,
      "time": 66.581,
      "duration": 0.387,
      "velocity": 0.71,
      "hand": "left"
    },
    {
      "midi": 55,
      "time": 66.581,
      "duration": 0.387,
      "velocity": 0.71,
      "hand": "left"
    },
    {
      "midi": 59,
      "time": 66.581,
      "duration": 0.387,
      "velocity": 0.71,
      "hand": "left"
    },
    {
      "midi": 62,
      "time": 66.581,
      "duration": 0.387,
      "velocity": 0.71,
      "hand": "right"
    },
    {
      "midi": 52,
      "time": 67.161,
      "duration": 0.194,
      "velocity": 0.71,
      "hand": "left"
    },
    {
      "midi": 36,
      "time": 67.355,
      "duration": 0.387,
      "velocity": 0.71,
      "hand": "left"
    },
    {
      "midi": 48,
      "time": 67.355,
      "duration": 0.387,
      "velocity": 0.71,
      "hand": "left"
    },
    {
      "midi": 52,
      "time": 67.355,
      "duration": 0.387,
      "velocity": 0.71,
      "hand": "left"
    },
    {
      "midi": 55,
      "time": 67.355,
      "duration": 0.387,
      "velocity": 0.71,
      "hand": "left"
    },
    {
      "midi": 60,
      "time": 67.355,
      "duration": 0.387,
      "velocity": 0.71,
      "hand": "right"
    },
    {
      "midi": 48,
      "time": 67.742,
      "duration": 0.387,
      "velocity": 0.71,
      "hand": "left"
    },
    {
      "midi": 41,
      "time": 68.903,
      "duration": 0.387,
      "velocity": 0.71,
      "hand": "left"
    },
    {
      "midi": 53,
      "time": 68.903,
      "duration": 0.387,
      "velocity": 0.71,
      "hand": "left"
    },
    {
      "midi": 57,
      "time": 68.903,
      "duration": 1.161,
      "velocity": 0.71,
      "hand": "left"
    },
    {
      "midi": 69,
      "time": 68.903,
      "duration": 0.097,
      "velocity": 0.71,
      "hand": "right"
    },
    {
      "midi": 65,
      "time": 69,
      "duration": 0.097,
      "velocity": 0.71,
      "hand": "right"
    },
    {
      "midi": 60,
      "time": 69.194,
      "duration": 0.097,
      "velocity": 0.71,
      "hand": "right"
    },
    {
      "midi": 69,
      "time": 69.29,
      "duration": 0.097,
      "velocity": 0.71,
      "hand": "right"
    },
    {
      "midi": 65,
      "time": 69.387,
      "duration": 0.097,
      "velocity": 0.71,
      "hand": "right"
    },
    {
      "midi": 60,
      "time": 69.581,
      "duration": 0.097,
      "velocity": 0.71,
      "hand": "right"
    },
    {
      "midi": 69,
      "time": 69.677,
      "duration": 0.097,
      "velocity": 0.71,
      "hand": "right"
    },
    {
      "midi": 65,
      "time": 69.774,
      "duration": 0.097,
      "velocity": 0.71,
      "hand": "right"
    },
    {
      "midi": 60,
      "time": 69.968,
      "duration": 0.097,
      "velocity": 0.71,
      "hand": "right"
    },
    {
      "midi": 58,
      "time": 70.065,
      "duration": 0.387,
      "velocity": 0.71,
      "hand": "left"
    },
    {
      "midi": 70,
      "time": 70.065,
      "duration": 0.097,
      "velocity": 0.71,
      "hand": "right"
    },
    {
      "midi": 67,
      "time": 70.161,
      "duration": 0.097,
      "velocity": 0.71,
      "hand": "right"
    },
    {
      "midi": 60,
      "time": 70.355,
      "duration": 0.097,
      "velocity": 0.71,
      "hand": "right"
    },
    {
      "midi": 60,
      "time": 70.452,
      "duration": 0.387,
      "velocity": 0.71,
      "hand": "right"
    },
    {
      "midi": 72,
      "time": 70.452,
      "duration": 0.097,
      "velocity": 0.71,
      "hand": "right"
    },
    {
      "midi": 69,
      "time": 70.548,
      "duration": 0.097,
      "velocity": 0.71,
      "hand": "right"
    },
    {
      "midi": 60,
      "time": 70.742,
      "duration": 0.097,
      "velocity": 0.71,
      "hand": "right"
    },
    {
      "midi": 58,
      "time": 70.839,
      "duration": 0.387,
      "velocity": 0.71,
      "hand": "left"
    },
    {
      "midi": 70,
      "time": 70.839,
      "duration": 0.097,
      "velocity": 0.71,
      "hand": "right"
    },
    {
      "midi": 67,
      "time": 70.935,
      "duration": 0.097,
      "velocity": 0.71,
      "hand": "right"
    },
    {
      "midi": 60,
      "time": 71.129,
      "duration": 0.097,
      "velocity": 0.71,
      "hand": "right"
    },
    {
      "midi": 57,
      "time": 71.226,
      "duration": 0.387,
      "velocity": 0.71,
      "hand": "left"
    },
    {
      "midi": 69,
      "time": 71.226,
      "duration": 0.097,
      "velocity": 0.71,
      "hand": "right"
    },
    {
      "midi": 65,
      "time": 71.323,
      "duration": 0.097,
      "velocity": 0.71,
      "hand": "right"
    },
    {
      "midi": 60,
      "time": 71.516,
      "duration": 0.097,
      "velocity": 0.71,
      "hand": "right"
    },
    {
      "midi": 55,
      "time": 71.613,
      "duration": 0.387,
      "velocity": 0.71,
      "hand": "left"
    },
    {
      "midi": 67,
      "time": 71.613,
      "duration": 0.097,
      "velocity": 0.71,
      "hand": "right"
    },
    {
      "midi": 64,
      "time": 71.71,
      "duration": 0.097,
      "velocity": 0.71,
      "hand": "right"
    },
    {
      "midi": 60,
      "time": 71.903,
      "duration": 0.097,
      "velocity": 0.71,
      "hand": "right"
    },
    {
      "midi": 41,
      "time": 72,
      "duration": 0.387,
      "velocity": 0.71,
      "hand": "left"
    },
    {
      "midi": 53,
      "time": 72,
      "duration": 0.387,
      "velocity": 0.71,
      "hand": "left"
    },
    {
      "midi": 79,
      "time": 72,
      "duration": 0.048,
      "velocity": 0.71,
      "hand": "right"
    },
    {
      "midi": 81,
      "time": 72,
      "duration": 0.048,
      "velocity": 0.71,
      "hand": "right"
    },
    {
      "midi": 82,
      "time": 72,
      "duration": 0.048,
      "velocity": 0.71,
      "hand": "right"
    },
    {
      "midi": 84,
      "time": 72,
      "duration": 0.048,
      "velocity": 0.71,
      "hand": "right"
    },
    {
      "midi": 77,
      "time": 72.097,
      "duration": 0.29,
      "velocity": 0.71,
      "hand": "right"
    },
    {
      "midi": 81,
      "time": 72.097,
      "duration": 0.29,
      "velocity": 0.71,
      "hand": "right"
    },
    {
      "midi": 45,
      "time": 72.387,
      "duration": 0.387,
      "velocity": 0.71,
      "hand": "left"
    },
    {
      "midi": 53,
      "time": 72.387,
      "duration": 0.387,
      "velocity": 0.71,
      "hand": "left"
    },
    {
      "midi": 57,
      "time": 72.387,
      "duration": 0.387,
      "velocity": 0.71,
      "hand": "left"
    },
    {
      "midi": 77,
      "time": 72.387,
      "duration": 0.194,
      "velocity": 0.71,
      "hand": "right"
    },
    {
      "midi": 81,
      "time": 72.387,
      "duration": 0.194,
      "velocity": 0.71,
      "hand": "right"
    },
    {
      "midi": 77,
      "time": 72.581,
      "duration": 0.194,
      "velocity": 0.71,
      "hand": "right"
    },
    {
      "midi": 81,
      "time": 72.581,
      "duration": 0.194,
      "velocity": 0.71,
      "hand": "right"
    },
    {
      "midi": 48,
      "time": 72.774,
      "duration": 0.387,
      "velocity": 0.71,
      "hand": "left"
    },
    {
      "midi": 60,
      "time": 72.774,
      "duration": 0.387,
      "velocity": 0.71,
      "hand": "right"
    },
    {
      "midi": 77,
      "time": 72.774,
      "duration": 0.194,
      "velocity": 0.71,
      "hand": "right"
    },
    {
      "midi": 81,
      "time": 72.774,
      "duration": 0.194,
      "velocity": 0.71,
      "hand": "right"
    },
    {
      "midi": 79,
      "time": 72.968,
      "duration": 0.097,
      "velocity": 0.71,
      "hand": "right"
    },
    {
      "midi": 81,
      "time": 73.065,
      "duration": 0.097,
      "velocity": 0.71,
      "hand": "right"
    },
    {
      "midi": 36,
      "time": 73.161,
      "duration": 0.387,
      "velocity": 0.71,
      "hand": "left"
    },
    {
      "midi": 48,
      "time": 73.161,
      "duration": 0.387,
      "velocity": 0.71,
      "hand": "left"
    },
    {
      "midi": 79,
      "time": 73.161,
      "duration": 0.194,
      "velocity": 0.71,
      "hand": "right"
    },
    {
      "midi": 82,
      "time": 73.161,
      "duration": 0.194,
      "velocity": 0.71,
      "hand": "right"
    },
    {
      "midi": 76,
      "time": 73.355,
      "duration": 0.194,
      "velocity": 0.71,
      "hand": "right"
    },
    {
      "midi": 79,
      "time": 73.355,
      "duration": 0.194,
      "velocity": 0.71,
      "hand": "right"
    },
    {
      "midi": 41,
      "time": 73.548,
      "duration": 0.387,
      "velocity": 0.71,
      "hand": "left"
    },
    {
      "midi": 53,
      "time": 73.548,
      "duration": 0.387,
      "velocity": 0.71,
      "hand": "left"
    },
    {
      "midi": 57,
      "time": 73.548,
      "duration": 1.161,
      "velocity": 0.71,
      "hand": "left"
    },
    {
      "midi": 69,
      "time": 73.548,
      "duration": 0.097,
      "velocity": 0.71,
      "hand": "right"
    },
    {
      "midi": 65,
      "time": 73.645,
      "duration": 0.097,
      "velocity": 0.71,
      "hand": "right"
    },
    {
      "midi": 60,
      "time": 73.839,
      "duration": 0.097,
      "velocity": 0.71,
      "hand": "right"
    },
    {
      "midi": 69,
      "time": 73.935,
      "duration": 0.097,
      "velocity": 0.71,
      "hand": "right"
    },
    {
      "midi": 65,
      "time": 74.032,
      "duration": 0.097,
      "velocity": 0.71,
      "hand": "right"
    },
    {
      "midi": 60,
      "time": 74.226,
      "duration": 0.097,
      "velocity": 0.71,
      "hand": "right"
    },
    {
      "midi": 69,
      "time": 74.323,
      "duration": 0.097,
      "velocity": 0.71,
      "hand": "right"
    },
    {
      "midi": 65,
      "time": 74.419,
      "duration": 0.097,
      "velocity": 0.71,
      "hand": "right"
    },
    {
      "midi": 60,
      "time": 74.613,
      "duration": 0.097,
      "velocity": 0.71,
      "hand": "right"
    },
    {
      "midi": 58,
      "time": 74.71,
      "duration": 0.387,
      "velocity": 0.71,
      "hand": "left"
    },
    {
      "midi": 70,
      "time": 74.71,
      "duration": 0.097,
      "velocity": 0.71,
      "hand": "right"
    },
    {
      "midi": 67,
      "time": 74.806,
      "duration": 0.097,
      "velocity": 0.71,
      "hand": "right"
    },
    {
      "midi": 60,
      "time": 75,
      "duration": 0.097,
      "velocity": 0.71,
      "hand": "right"
    },
    {
      "midi": 60,
      "time": 75.097,
      "duration": 0.387,
      "velocity": 0.71,
      "hand": "right"
    },
    {
      "midi": 72,
      "time": 75.097,
      "duration": 0.097,
      "velocity": 0.71,
      "hand": "right"
    },
    {
      "midi": 69,
      "time": 75.194,
      "duration": 0.097,
      "velocity": 0.71,
      "hand": "right"
    },
    {
      "midi": 60,
      "time": 75.387,
      "duration": 0.097,
      "velocity": 0.71,
      "hand": "right"
    },
    {
      "midi": 58,
      "time": 75.484,
      "duration": 0.387,
      "velocity": 0.71,
      "hand": "left"
    },
    {
      "midi": 70,
      "time": 75.484,
      "duration": 0.097,
      "velocity": 0.71,
      "hand": "right"
    },
    {
      "midi": 67,
      "time": 75.581,
      "duration": 0.097,
      "velocity": 0.71,
      "hand": "right"
    },
    {
      "midi": 60,
      "time": 75.774,
      "duration": 0.097,
      "velocity": 0.71,
      "hand": "right"
    },
    {
      "midi": 57,
      "time": 75.871,
      "duration": 0.387,
      "velocity": 0.71,
      "hand": "left"
    },
    {
      "midi": 69,
      "time": 75.871,
      "duration": 0.097,
      "velocity": 0.71,
      "hand": "right"
    },
    {
      "midi": 65,
      "time": 75.968,
      "duration": 0.097,
      "velocity": 0.71,
      "hand": "right"
    },
    {
      "midi": 60,
      "time": 76.161,
      "duration": 0.097,
      "velocity": 0.71,
      "hand": "right"
    },
    {
      "midi": 55,
      "time": 76.258,
      "duration": 0.387,
      "velocity": 0.71,
      "hand": "left"
    },
    {
      "midi": 67,
      "time": 76.258,
      "duration": 0.097,
      "velocity": 0.71,
      "hand": "right"
    },
    {
      "midi": 64,
      "time": 76.355,
      "duration": 0.097,
      "velocity": 0.71,
      "hand": "right"
    },
    {
      "midi": 60,
      "time": 76.548,
      "duration": 0.097,
      "velocity": 0.71,
      "hand": "right"
    },
    {
      "midi": 53,
      "time": 76.645,
      "duration": 0.387,
      "velocity": 0.71,
      "hand": "left"
    },
    {
      "midi": 65,
      "time": 76.645,
      "duration": 0.387,
      "velocity": 0.71,
      "hand": "right"
    },
    {
      "midi": 53,
      "time": 77.419,
      "duration": 0.387,
      "velocity": 0.71,
      "hand": "left"
    },
    {
      "midi": 65,
      "time": 77.419,
      "duration": 0.387,
      "velocity": 0.71,
      "hand": "right"
    },
    {
      "midi": 57,
      "time": 77.806,
      "duration": 0.387,
      "velocity": 0.71,
      "hand": "left"
    },
    {
      "midi": 69,
      "time": 77.806,
      "duration": 0.387,
      "velocity": 0.71,
      "hand": "right"
    },
    {
      "midi": 46,
      "time": 78.194,
      "duration": 0.774,
      "velocity": 0.71,
      "hand": "left"
    },
    {
      "midi": 46,
      "time": 78.194,
      "duration": 0.387,
      "velocity": 0.71,
      "hand": "left"
    },
    {
      "midi": 58,
      "time": 78.581,
      "duration": 0.387,
      "velocity": 0.71,
      "hand": "left"
    },
    {
      "midi": 50,
      "time": 78.968,
      "duration": 0.774,
      "velocity": 0.71,
      "hand": "left"
    },
    {
      "midi": 50,
      "time": 78.968,
      "duration": 0.387,
      "velocity": 0.71,
      "hand": "left"
    },
    {
      "midi": 62,
      "time": 79.355,
      "duration": 0.387,
      "velocity": 0.71,
      "hand": "right"
    },
    {
      "midi": 48,
      "time": 79.742,
      "duration": 0.774,
      "velocity": 0.71,
      "hand": "left"
    },
    {
      "midi": 48,
      "time": 79.742,
      "duration": 0.387,
      "velocity": 0.71,
      "hand": "left"
    },
    {
      "midi": 60,
      "time": 80.129,
      "duration": 0.387,
      "velocity": 0.71,
      "hand": "right"
    },
    {
      "midi": 52,
      "time": 80.516,
      "duration": 0.774,
      "velocity": 0.71,
      "hand": "left"
    },
    {
      "midi": 52,
      "time": 80.516,
      "duration": 0.387,
      "velocity": 0.71,
      "hand": "left"
    },
    {
      "midi": 64,
      "time": 80.903,
      "duration": 0.387,
      "velocity": 0.71,
      "hand": "right"
    },
    {
      "midi": 53,
      "time": 81.29,
      "duration": 0.194,
      "velocity": 0.71,
      "hand": "left"
    },
    {
      "midi": 53,
      "time": 81.29,
      "duration": 0.387,
      "velocity": 0.71,
      "hand": "left"
    },
    {
      "midi": 65,
      "time": 81.29,
      "duration": 0.194,
      "velocity": 0.71,
      "hand": "right"
    },
    {
      "midi": 57,
      "time": 81.677,
      "duration": 0.194,
      "velocity": 0.71,
      "hand": "left"
    },
    {
      "midi": 69,
      "time": 81.677,
      "duration": 0.194,
      "velocity": 0.71,
      "hand": "right"
    },
    {
      "midi": 81,
      "time": 81.677,
      "duration": 0.194,
      "velocity": 0.71,
      "hand": "right"
    },
    {
      "midi": 60,
      "time": 82.065,
      "duration": 0.194,
      "velocity": 0.71,
      "hand": "right"
    },
    {
      "midi": 72,
      "time": 82.065,
      "duration": 0.194,
      "velocity": 0.71,
      "hand": "right"
    },
    {
      "midi": 84,
      "time": 82.065,
      "duration": 0.194,
      "velocity": 0.71,
      "hand": "right"
    },
    {
      "midi": 57,
      "time": 82.452,
      "duration": 0.194,
      "velocity": 0.71,
      "hand": "left"
    },
    {
      "midi": 69,
      "time": 82.452,
      "duration": 0.194,
      "velocity": 0.71,
      "hand": "right"
    },
    {
      "midi": 81,
      "time": 82.452,
      "duration": 0.194,
      "velocity": 0.71,
      "hand": "right"
    },
    {
      "midi": 53,
      "time": 82.839,
      "duration": 0.194,
      "velocity": 0.71,
      "hand": "left"
    },
    {
      "midi": 65,
      "time": 82.839,
      "duration": 0.194,
      "velocity": 0.71,
      "hand": "right"
    },
    {
      "midi": 77,
      "time": 82.839,
      "duration": 0.194,
      "velocity": 0.71,
      "hand": "right"
    },
    {
      "midi": 48,
      "time": 83.226,
      "duration": 0.194,
      "velocity": 0.71,
      "hand": "left"
    },
    {
      "midi": 60,
      "time": 83.226,
      "duration": 0.194,
      "velocity": 0.71,
      "hand": "right"
    },
    {
      "midi": 72,
      "time": 83.226,
      "duration": 0.194,
      "velocity": 0.71,
      "hand": "right"
    },
    {
      "midi": 45,
      "time": 83.613,
      "duration": 0.387,
      "velocity": 0.71,
      "hand": "left"
    },
    {
      "midi": 46,
      "time": 83.613,
      "duration": 0.194,
      "velocity": 0.71,
      "hand": "left"
    },
    {
      "midi": 57,
      "time": 83.613,
      "duration": 0.387,
      "velocity": 0.71,
      "hand": "left"
    },
    {
      "midi": 69,
      "time": 83.613,
      "duration": 0.387,
      "velocity": 0.71,
      "hand": "right"
    },
    {
      "midi": 48,
      "time": 84,
      "duration": 0.387,
      "velocity": 0.71,
      "hand": "left"
    },
    {
      "midi": 60,
      "time": 84,
      "duration": 0.387,
      "velocity": 0.71,
      "hand": "right"
    },
    {
      "midi": 72,
      "time": 84,
      "duration": 0.387,
      "velocity": 0.71,
      "hand": "right"
    },
    {
      "midi": 46,
      "time": 84.387,
      "duration": 0.774,
      "velocity": 0.71,
      "hand": "left"
    },
    {
      "midi": 46,
      "time": 84.387,
      "duration": 0.387,
      "velocity": 0.71,
      "hand": "left"
    },
    {
      "midi": 58,
      "time": 84.774,
      "duration": 0.387,
      "velocity": 0.71,
      "hand": "left"
    },
    {
      "midi": 70,
      "time": 84.774,
      "duration": 0.387,
      "velocity": 0.71,
      "hand": "right"
    },
    {
      "midi": 50,
      "time": 85.161,
      "duration": 0.774,
      "velocity": 0.71,
      "hand": "left"
    },
    {
      "midi": 50,
      "time": 85.161,
      "duration": 0.387,
      "velocity": 0.71,
      "hand": "left"
    },
    {
      "midi": 62,
      "time": 85.548,
      "duration": 0.387,
      "velocity": 0.71,
      "hand": "right"
    },
    {
      "midi": 74,
      "time": 85.548,
      "duration": 0.387,
      "velocity": 0.71,
      "hand": "right"
    },
    {
      "midi": 48,
      "time": 85.935,
      "duration": 1.161,
      "velocity": 0.71,
      "hand": "left"
    },
    {
      "midi": 48,
      "time": 85.935,
      "duration": 0.387,
      "velocity": 0.71,
      "hand": "left"
    },
    {
      "midi": 53,
      "time": 85.935,
      "duration": 0.774,
      "velocity": 0.71,
      "hand": "left"
    },
    {
      "midi": 57,
      "time": 85.935,
      "duration": 0.774,
      "velocity": 0.71,
      "hand": "left"
    },
    {
      "midi": 60,
      "time": 86.323,
      "duration": 0.387,
      "velocity": 0.71,
      "hand": "right"
    },
    {
      "midi": 72,
      "time": 86.323,
      "duration": 0.387,
      "velocity": 0.71,
      "hand": "right"
    },
    {
      "midi": 48,
      "time": 86.71,
      "duration": 0.387,
      "velocity": 0.71,
      "hand": "left"
    },
    {
      "midi": 52,
      "time": 86.71,
      "duration": 0.774,
      "velocity": 0.71,
      "hand": "left"
    },
    {
      "midi": 55,
      "time": 86.71,
      "duration": 0.774,
      "velocity": 0.71,
      "hand": "left"
    },
    {
      "midi": 50,
      "time": 87.097,
      "duration": 0.194,
      "velocity": 0.71,
      "hand": "left"
    },
    {
      "midi": 60,
      "time": 87.097,
      "duration": 0.387,
      "velocity": 0.71,
      "hand": "right"
    },
    {
      "midi": 72,
      "time": 87.097,
      "duration": 0.387,
      "velocity": 0.71,
      "hand": "right"
    },
    {
      "midi": 52,
      "time": 87.29,
      "duration": 0.194,
      "velocity": 0.71,
      "hand": "left"
    },
    {
      "midi": 53,
      "time": 87.484,
      "duration": 0.387,
      "velocity": 0.71,
      "hand": "left"
    },
    {
      "midi": 57,
      "time": 87.484,
      "duration": 0.387,
      "velocity": 0.71,
      "hand": "left"
    },
    {
      "midi": 53,
      "time": 87.871,
      "duration": 0.194,
      "velocity": 0.71,
      "hand": "left"
    },
    {
      "midi": 57,
      "time": 87.871,
      "duration": 0.194,
      "velocity": 0.71,
      "hand": "left"
    },
    {
      "midi": 60,
      "time": 87.871,
      "duration": 0.194,
      "velocity": 0.71,
      "hand": "right"
    },
    {
      "midi": 65,
      "time": 87.871,
      "duration": 0.194,
      "velocity": 0.71,
      "hand": "right"
    },
    {
      "midi": 53,
      "time": 88.065,
      "duration": 0.194,
      "velocity": 0.71,
      "hand": "left"
    },
    {
      "midi": 57,
      "time": 88.065,
      "duration": 0.194,
      "velocity": 0.71,
      "hand": "left"
    },
    {
      "midi": 60,
      "time": 88.065,
      "duration": 0.194,
      "velocity": 0.71,
      "hand": "right"
    },
    {
      "midi": 65,
      "time": 88.065,
      "duration": 0.194,
      "velocity": 0.71,
      "hand": "right"
    },
    {
      "midi": 58,
      "time": 88.258,
      "duration": 0.387,
      "velocity": 0.71,
      "hand": "left"
    },
    {
      "midi": 62,
      "time": 88.258,
      "duration": 0.387,
      "velocity": 0.71,
      "hand": "right"
    },
    {
      "midi": 65,
      "time": 88.258,
      "duration": 0.387,
      "velocity": 0.71,
      "hand": "right"
    },
    {
      "midi": 53,
      "time": 88.645,
      "duration": 0.194,
      "velocity": 0.71,
      "hand": "left"
    },
    {
      "midi": 58,
      "time": 88.645,
      "duration": 0.194,
      "velocity": 0.71,
      "hand": "left"
    },
    {
      "midi": 65,
      "time": 88.645,
      "duration": 0.194,
      "velocity": 0.71,
      "hand": "right"
    },
    {
      "midi": 74,
      "time": 88.645,
      "duration": 0.194,
      "velocity": 0.71,
      "hand": "right"
    },
    {
      "midi": 82,
      "time": 88.645,
      "duration": 0.194,
      "velocity": 0.71,
      "hand": "right"
    },
    {
      "midi": 53,
      "time": 88.839,
      "duration": 0.194,
      "velocity": 0.71,
      "hand": "left"
    },
    {
      "midi": 58,
      "time": 88.839,
      "duration": 0.194,
      "velocity": 0.71,
      "hand": "left"
    },
    {
      "midi": 65,
      "time": 88.839,
      "duration": 0.194,
      "velocity": 0.71,
      "hand": "right"
    },
    {
      "midi": 74,
      "time": 88.839,
      "duration": 0.194,
      "velocity": 0.71,
      "hand": "right"
    },
    {
      "midi": 82,
      "time": 88.839,
      "duration": 0.194,
      "velocity": 0.71,
      "hand": "right"
    },
    {
      "midi": 53,
      "time": 89.032,
      "duration": 0.387,
      "velocity": 0.71,
      "hand": "left"
    },
    {
      "midi": 65,
      "time": 89.032,
      "duration": 0.387,
      "velocity": 0.71,
      "hand": "right"
    },
    {
      "midi": 72,
      "time": 89.032,
      "duration": 0.387,
      "velocity": 0.71,
      "hand": "right"
    },
    {
      "midi": 81,
      "time": 89.032,
      "duration": 0.387,
      "velocity": 0.71,
      "hand": "right"
    },
    {
      "midi": 53,
      "time": 89.419,
      "duration": 0.194,
      "velocity": 0.71,
      "hand": "left"
    },
    {
      "midi": 57,
      "time": 89.419,
      "duration": 0.194,
      "velocity": 0.71,
      "hand": "left"
    },
    {
      "midi": 60,
      "time": 89.419,
      "duration": 0.194,
      "velocity": 0.71,
      "hand": "right"
    },
    {
      "midi": 65,
      "time": 89.419,
      "duration": 0.194,
      "velocity": 0.71,
      "hand": "right"
    },
    {
      "midi": 53,
      "time": 89.613,
      "duration": 0.194,
      "velocity": 0.71,
      "hand": "left"
    },
    {
      "midi": 57,
      "time": 89.613,
      "duration": 0.194,
      "velocity": 0.71,
      "hand": "left"
    },
    {
      "midi": 60,
      "time": 89.613,
      "duration": 0.194,
      "velocity": 0.71,
      "hand": "right"
    },
    {
      "midi": 65,
      "time": 89.613,
      "duration": 0.194,
      "velocity": 0.71,
      "hand": "right"
    },
    {
      "midi": 58,
      "time": 89.806,
      "duration": 0.387,
      "velocity": 0.71,
      "hand": "left"
    },
    {
      "midi": 62,
      "time": 89.806,
      "duration": 0.387,
      "velocity": 0.71,
      "hand": "right"
    },
    {
      "midi": 65,
      "time": 89.806,
      "duration": 0.387,
      "velocity": 0.71,
      "hand": "right"
    },
    {
      "midi": 53,
      "time": 90,
      "duration": 0.194,
      "velocity": 0.71,
      "hand": "left"
    },
    {
      "midi": 53,
      "time": 90.194,
      "duration": 0.194,
      "velocity": 0.71,
      "hand": "left"
    },
    {
      "midi": 58,
      "time": 90.194,
      "duration": 0.194,
      "velocity": 0.71,
      "hand": "left"
    },
    {
      "midi": 65,
      "time": 90.194,
      "duration": 0.194,
      "velocity": 0.71,
      "hand": "right"
    },
    {
      "midi": 74,
      "time": 90.194,
      "duration": 0.194,
      "velocity": 0.71,
      "hand": "right"
    },
    {
      "midi": 82,
      "time": 90.194,
      "duration": 0.194,
      "velocity": 0.71,
      "hand": "right"
    },
    {
      "midi": 53,
      "time": 90.387,
      "duration": 0.194,
      "velocity": 0.71,
      "hand": "left"
    },
    {
      "midi": 58,
      "time": 90.387,
      "duration": 0.194,
      "velocity": 0.71,
      "hand": "left"
    },
    {
      "midi": 65,
      "time": 90.387,
      "duration": 0.194,
      "velocity": 0.71,
      "hand": "right"
    },
    {
      "midi": 74,
      "time": 90.387,
      "duration": 0.194,
      "velocity": 0.71,
      "hand": "right"
    },
    {
      "midi": 82,
      "time": 90.387,
      "duration": 0.194,
      "velocity": 0.71,
      "hand": "right"
    },
    {
      "midi": 53,
      "time": 90.581,
      "duration": 0.387,
      "velocity": 0.71,
      "hand": "left"
    },
    {
      "midi": 65,
      "time": 90.581,
      "duration": 0.387,
      "velocity": 0.71,
      "hand": "right"
    },
    {
      "midi": 72,
      "time": 90.581,
      "duration": 0.387,
      "velocity": 0.71,
      "hand": "right"
    },
    {
      "midi": 81,
      "time": 90.581,
      "duration": 0.387,
      "velocity": 0.71,
      "hand": "right"
    },
    {
      "midi": 53,
      "time": 90.968,
      "duration": 0.387,
      "velocity": 0.71,
      "hand": "left"
    },
    {
      "midi": 53,
      "time": 90.968,
      "duration": 0.194,
      "velocity": 0.71,
      "hand": "left"
    },
    {
      "midi": 57,
      "time": 90.968,
      "duration": 0.194,
      "velocity": 0.71,
      "hand": "left"
    },
    {
      "midi": 60,
      "time": 90.968,
      "duration": 0.194,
      "velocity": 0.71,
      "hand": "right"
    },
    {
      "midi": 65,
      "time": 90.968,
      "duration": 0.194,
      "velocity": 0.71,
      "hand": "right"
    },
    {
      "midi": 53,
      "time": 91.161,
      "duration": 0.194,
      "velocity": 0.71,
      "hand": "left"
    },
    {
      "midi": 57,
      "time": 91.161,
      "duration": 0.194,
      "velocity": 0.71,
      "hand": "left"
    },
    {
      "midi": 60,
      "time": 91.161,
      "duration": 0.194,
      "velocity": 0.71,
      "hand": "right"
    },
    {
      "midi": 65,
      "time": 91.161,
      "duration": 0.194,
      "velocity": 0.71,
      "hand": "right"
    },
    {
      "midi": 58,
      "time": 91.355,
      "duration": 0.387,
      "velocity": 0.71,
      "hand": "left"
    },
    {
      "midi": 62,
      "time": 91.355,
      "duration": 0.387,
      "velocity": 0.71,
      "hand": "right"
    },
    {
      "midi": 65,
      "time": 91.355,
      "duration": 0.387,
      "velocity": 0.71,
      "hand": "right"
    },
    {
      "midi": 53,
      "time": 91.742,
      "duration": 0.194,
      "velocity": 0.71,
      "hand": "left"
    },
    {
      "midi": 58,
      "time": 91.742,
      "duration": 0.194,
      "velocity": 0.71,
      "hand": "left"
    },
    {
      "midi": 65,
      "time": 91.742,
      "duration": 0.194,
      "velocity": 0.71,
      "hand": "right"
    },
    {
      "midi": 74,
      "time": 91.742,
      "duration": 0.194,
      "velocity": 0.71,
      "hand": "right"
    },
    {
      "midi": 82,
      "time": 91.742,
      "duration": 0.194,
      "velocity": 0.71,
      "hand": "right"
    },
    {
      "midi": 53,
      "time": 91.935,
      "duration": 0.194,
      "velocity": 0.71,
      "hand": "left"
    },
    {
      "midi": 58,
      "time": 91.935,
      "duration": 0.194,
      "velocity": 0.71,
      "hand": "left"
    },
    {
      "midi": 65,
      "time": 91.935,
      "duration": 0.194,
      "velocity": 0.71,
      "hand": "right"
    },
    {
      "midi": 74,
      "time": 91.935,
      "duration": 0.194,
      "velocity": 0.71,
      "hand": "right"
    },
    {
      "midi": 82,
      "time": 91.935,
      "duration": 0.194,
      "velocity": 0.71,
      "hand": "right"
    },
    {
      "midi": 53,
      "time": 92.129,
      "duration": 0.387,
      "velocity": 0.71,
      "hand": "left"
    },
    {
      "midi": 65,
      "time": 92.129,
      "duration": 0.387,
      "velocity": 0.71,
      "hand": "right"
    },
    {
      "midi": 72,
      "time": 92.129,
      "duration": 0.387,
      "velocity": 0.71,
      "hand": "right"
    },
    {
      "midi": 81,
      "time": 92.129,
      "duration": 0.387,
      "velocity": 0.71,
      "hand": "right"
    },
    {
      "midi": 53,
      "time": 92.516,
      "duration": 0.194,
      "velocity": 0.71,
      "hand": "left"
    },
    {
      "midi": 57,
      "time": 92.516,
      "duration": 0.194,
      "velocity": 0.71,
      "hand": "left"
    },
    {
      "midi": 60,
      "time": 92.516,
      "duration": 0.194,
      "velocity": 0.71,
      "hand": "right"
    },
    {
      "midi": 65,
      "time": 92.516,
      "duration": 0.194,
      "velocity": 0.71,
      "hand": "right"
    },
    {
      "midi": 53,
      "time": 92.71,
      "duration": 0.194,
      "velocity": 0.71,
      "hand": "left"
    },
    {
      "midi": 57,
      "time": 92.71,
      "duration": 0.194,
      "velocity": 0.71,
      "hand": "left"
    },
    {
      "midi": 60,
      "time": 92.71,
      "duration": 0.194,
      "velocity": 0.71,
      "hand": "right"
    },
    {
      "midi": 65,
      "time": 92.71,
      "duration": 0.194,
      "velocity": 0.71,
      "hand": "right"
    },
    {
      "midi": 58,
      "time": 92.903,
      "duration": 0.387,
      "velocity": 0.71,
      "hand": "left"
    },
    {
      "midi": 62,
      "time": 92.903,
      "duration": 0.387,
      "velocity": 0.71,
      "hand": "right"
    },
    {
      "midi": 65,
      "time": 92.903,
      "duration": 0.387,
      "velocity": 0.71,
      "hand": "right"
    },
    {
      "midi": 53,
      "time": 93.097,
      "duration": 0.194,
      "velocity": 0.71,
      "hand": "left"
    },
    {
      "midi": 53,
      "time": 93.29,
      "duration": 0.194,
      "velocity": 0.71,
      "hand": "left"
    },
    {
      "midi": 58,
      "time": 93.29,
      "duration": 0.194,
      "velocity": 0.71,
      "hand": "left"
    },
    {
      "midi": 65,
      "time": 93.29,
      "duration": 0.194,
      "velocity": 0.71,
      "hand": "right"
    },
    {
      "midi": 74,
      "time": 93.29,
      "duration": 0.194,
      "velocity": 0.71,
      "hand": "right"
    },
    {
      "midi": 82,
      "time": 93.29,
      "duration": 0.194,
      "velocity": 0.71,
      "hand": "right"
    },
    {
      "midi": 53,
      "time": 93.484,
      "duration": 0.194,
      "velocity": 0.71,
      "hand": "left"
    },
    {
      "midi": 58,
      "time": 93.484,
      "duration": 0.194,
      "velocity": 0.71,
      "hand": "left"
    },
    {
      "midi": 65,
      "time": 93.484,
      "duration": 0.194,
      "velocity": 0.71,
      "hand": "right"
    },
    {
      "midi": 74,
      "time": 93.484,
      "duration": 0.194,
      "velocity": 0.71,
      "hand": "right"
    },
    {
      "midi": 82,
      "time": 93.484,
      "duration": 0.194,
      "velocity": 0.71,
      "hand": "right"
    },
    {
      "midi": 53,
      "time": 93.677,
      "duration": 0.194,
      "velocity": 0.71,
      "hand": "left"
    },
    {
      "midi": 65,
      "time": 93.677,
      "duration": 0.387,
      "velocity": 0.71,
      "hand": "right"
    },
    {
      "midi": 72,
      "time": 93.677,
      "duration": 0.194,
      "velocity": 0.71,
      "hand": "right"
    },
    {
      "midi": 81,
      "time": 93.677,
      "duration": 0.194,
      "velocity": 0.71,
      "hand": "right"
    },
    {
      "midi": 53,
      "time": 93.871,
      "duration": 0.194,
      "velocity": 0.71,
      "hand": "left"
    },
    {
      "midi": 69,
      "time": 93.871,
      "duration": 0.194,
      "velocity": 0.71,
      "hand": "right"
    },
    {
      "midi": 72,
      "time": 93.871,
      "duration": 0.194,
      "velocity": 0.71,
      "hand": "right"
    },
    {
      "midi": 53,
      "time": 94.065,
      "duration": 0.194,
      "velocity": 0.71,
      "hand": "left"
    },
    {
      "midi": 58,
      "time": 94.065,
      "duration": 0.194,
      "velocity": 0.71,
      "hand": "left"
    },
    {
      "midi": 70,
      "time": 94.065,
      "duration": 0.194,
      "velocity": 0.71,
      "hand": "right"
    },
    {
      "midi": 74,
      "time": 94.065,
      "duration": 0.194,
      "velocity": 0.71,
      "hand": "right"
    },
    {
      "midi": 53,
      "time": 94.258,
      "duration": 0.194,
      "velocity": 0.71,
      "hand": "left"
    },
    {
      "midi": 58,
      "time": 94.258,
      "duration": 0.194,
      "velocity": 0.71,
      "hand": "left"
    },
    {
      "midi": 70,
      "time": 94.258,
      "duration": 0.194,
      "velocity": 0.71,
      "hand": "right"
    },
    {
      "midi": 74,
      "time": 94.258,
      "duration": 0.194,
      "velocity": 0.71,
      "hand": "right"
    },
    {
      "midi": 53,
      "time": 94.452,
      "duration": 0.194,
      "velocity": 0.71,
      "hand": "left"
    },
    {
      "midi": 69,
      "time": 94.452,
      "duration": 0.194,
      "velocity": 0.71,
      "hand": "right"
    },
    {
      "midi": 72,
      "time": 94.452,
      "duration": 0.194,
      "velocity": 0.71,
      "hand": "right"
    },
    {
      "midi": 53,
      "time": 94.645,
      "duration": 0.194,
      "velocity": 0.71,
      "hand": "left"
    },
    {
      "midi": 69,
      "time": 94.645,
      "duration": 0.194,
      "velocity": 0.71,
      "hand": "right"
    },
    {
      "midi": 72,
      "time": 94.645,
      "duration": 0.194,
      "velocity": 0.71,
      "hand": "right"
    },
    {
      "midi": 53,
      "time": 94.839,
      "duration": 0.194,
      "velocity": 0.71,
      "hand": "left"
    },
    {
      "midi": 58,
      "time": 94.839,
      "duration": 0.194,
      "velocity": 0.71,
      "hand": "left"
    },
    {
      "midi": 70,
      "time": 94.839,
      "duration": 0.194,
      "velocity": 0.71,
      "hand": "right"
    },
    {
      "midi": 74,
      "time": 94.839,
      "duration": 0.194,
      "velocity": 0.71,
      "hand": "right"
    },
    {
      "midi": 53,
      "time": 95.032,
      "duration": 0.194,
      "velocity": 0.71,
      "hand": "left"
    },
    {
      "midi": 58,
      "time": 95.032,
      "duration": 0.194,
      "velocity": 0.71,
      "hand": "left"
    },
    {
      "midi": 70,
      "time": 95.032,
      "duration": 0.194,
      "velocity": 0.71,
      "hand": "right"
    },
    {
      "midi": 74,
      "time": 95.032,
      "duration": 0.194,
      "velocity": 0.71,
      "hand": "right"
    },
    {
      "midi": 53,
      "time": 95.226,
      "duration": 0.194,
      "velocity": 0.71,
      "hand": "left"
    },
    {
      "midi": 69,
      "time": 95.226,
      "duration": 0.194,
      "velocity": 0.71,
      "hand": "right"
    },
    {
      "midi": 72,
      "time": 95.226,
      "duration": 0.194,
      "velocity": 0.71,
      "hand": "right"
    },
    {
      "midi": 53,
      "time": 95.419,
      "duration": 0.194,
      "velocity": 0.71,
      "hand": "left"
    },
    {
      "midi": 65,
      "time": 95.419,
      "duration": 0.194,
      "velocity": 0.71,
      "hand": "right"
    },
    {
      "midi": 81,
      "time": 95.419,
      "duration": 0.194,
      "velocity": 0.71,
      "hand": "right"
    },
    {
      "midi": 84,
      "time": 95.419,
      "duration": 0.194,
      "velocity": 0.71,
      "hand": "right"
    },
    {
      "midi": 53,
      "time": 95.613,
      "duration": 0.194,
      "velocity": 0.71,
      "hand": "left"
    },
    {
      "midi": 58,
      "time": 95.613,
      "duration": 0.194,
      "velocity": 0.71,
      "hand": "left"
    },
    {
      "midi": 65,
      "time": 95.613,
      "duration": 0.194,
      "velocity": 0.71,
      "hand": "right"
    },
    {
      "midi": 82,
      "time": 95.613,
      "duration": 0.194,
      "velocity": 0.71,
      "hand": "right"
    },
    {
      "midi": 86,
      "time": 95.613,
      "duration": 0.194,
      "velocity": 0.71,
      "hand": "right"
    },
    {
      "midi": 53,
      "time": 95.806,
      "duration": 0.194,
      "velocity": 0.71,
      "hand": "left"
    },
    {
      "midi": 58,
      "time": 95.806,
      "duration": 0.194,
      "velocity": 0.71,
      "hand": "left"
    },
    {
      "midi": 65,
      "time": 95.806,
      "duration": 0.194,
      "velocity": 0.71,
      "hand": "right"
    },
    {
      "midi": 82,
      "time": 95.806,
      "duration": 0.194,
      "velocity": 0.71,
      "hand": "right"
    },
    {
      "midi": 86,
      "time": 95.806,
      "duration": 0.194,
      "velocity": 0.71,
      "hand": "right"
    },
    {
      "midi": 53,
      "time": 96,
      "duration": 0.194,
      "velocity": 0.71,
      "hand": "left"
    },
    {
      "midi": 65,
      "time": 96,
      "duration": 0.194,
      "velocity": 0.71,
      "hand": "right"
    },
    {
      "midi": 81,
      "time": 96,
      "duration": 0.194,
      "velocity": 0.71,
      "hand": "right"
    },
    {
      "midi": 84,
      "time": 96,
      "duration": 0.194,
      "velocity": 0.71,
      "hand": "right"
    },
    {
      "midi": 53,
      "time": 96.194,
      "duration": 0.194,
      "velocity": 0.71,
      "hand": "left"
    },
    {
      "midi": 65,
      "time": 96.194,
      "duration": 0.194,
      "velocity": 0.71,
      "hand": "right"
    },
    {
      "midi": 81,
      "time": 96.194,
      "duration": 0.194,
      "velocity": 0.71,
      "hand": "right"
    },
    {
      "midi": 84,
      "time": 96.194,
      "duration": 0.194,
      "velocity": 0.71,
      "hand": "right"
    },
    {
      "midi": 53,
      "time": 96.387,
      "duration": 0.194,
      "velocity": 0.71,
      "hand": "left"
    },
    {
      "midi": 58,
      "time": 96.387,
      "duration": 0.194,
      "velocity": 0.71,
      "hand": "left"
    },
    {
      "midi": 65,
      "time": 96.387,
      "duration": 0.194,
      "velocity": 0.71,
      "hand": "right"
    },
    {
      "midi": 82,
      "time": 96.387,
      "duration": 0.194,
      "velocity": 0.71,
      "hand": "right"
    },
    {
      "midi": 86,
      "time": 96.387,
      "duration": 0.194,
      "velocity": 0.71,
      "hand": "right"
    },
    {
      "midi": 53,
      "time": 96.581,
      "duration": 0.194,
      "velocity": 0.71,
      "hand": "left"
    },
    {
      "midi": 58,
      "time": 96.581,
      "duration": 0.194,
      "velocity": 0.71,
      "hand": "left"
    },
    {
      "midi": 65,
      "time": 96.581,
      "duration": 0.194,
      "velocity": 0.71,
      "hand": "right"
    },
    {
      "midi": 82,
      "time": 96.581,
      "duration": 0.194,
      "velocity": 0.71,
      "hand": "right"
    },
    {
      "midi": 86,
      "time": 96.581,
      "duration": 0.194,
      "velocity": 0.71,
      "hand": "right"
    },
    {
      "midi": 53,
      "time": 96.774,
      "duration": 0.387,
      "velocity": 0.71,
      "hand": "left"
    },
    {
      "midi": 65,
      "time": 96.774,
      "duration": 0.387,
      "velocity": 0.71,
      "hand": "right"
    },
    {
      "midi": 81,
      "time": 96.774,
      "duration": 0.387,
      "velocity": 0.71,
      "hand": "right"
    },
    {
      "midi": 84,
      "time": 96.774,
      "duration": 0.387,
      "velocity": 0.71,
      "hand": "right"
    },
    {
      "midi": 53,
      "time": 97.548,
      "duration": 0.387,
      "velocity": 0.71,
      "hand": "left"
    },
    {
      "midi": 65,
      "time": 97.548,
      "duration": 0.387,
      "velocity": 0.71,
      "hand": "right"
    },
    {
      "midi": 77,
      "time": 97.548,
      "duration": 0.387,
      "velocity": 0.71,
      "hand": "right"
    },
    {
      "midi": 57,
      "time": 97.935,
      "duration": 0.387,
      "velocity": 0.71,
      "hand": "left"
    },
    {
      "midi": 69,
      "time": 97.935,
      "duration": 0.387,
      "velocity": 0.71,
      "hand": "right"
    },
    {
      "midi": 81,
      "time": 97.935,
      "duration": 0.387,
      "velocity": 0.71,
      "hand": "right"
    },
    {
      "midi": 46,
      "time": 98.323,
      "duration": 0.774,
      "velocity": 0.71,
      "hand": "left"
    },
    {
      "midi": 46,
      "time": 98.323,
      "duration": 0.387,
      "velocity": 0.71,
      "hand": "left"
    },
    {
      "midi": 58,
      "time": 98.71,
      "duration": 0.387,
      "velocity": 0.71,
      "hand": "left"
    },
    {
      "midi": 70,
      "time": 98.71,
      "duration": 0.387,
      "velocity": 0.71,
      "hand": "right"
    },
    {
      "midi": 50,
      "time": 99.097,
      "duration": 0.774,
      "velocity": 0.71,
      "hand": "left"
    },
    {
      "midi": 50,
      "time": 99.097,
      "duration": 0.387,
      "velocity": 0.71,
      "hand": "left"
    },
    {
      "midi": 62,
      "time": 99.484,
      "duration": 0.387,
      "velocity": 0.71,
      "hand": "right"
    },
    {
      "midi": 74,
      "time": 99.484,
      "duration": 0.387,
      "velocity": 0.71,
      "hand": "right"
    },
    {
      "midi": 48,
      "time": 99.871,
      "duration": 0.774,
      "velocity": 0.71,
      "hand": "left"
    },
    {
      "midi": 48,
      "time": 99.871,
      "duration": 0.387,
      "velocity": 0.71,
      "hand": "left"
    },
    {
      "midi": 60,
      "time": 100.258,
      "duration": 0.387,
      "velocity": 0.71,
      "hand": "right"
    },
    {
      "midi": 72,
      "time": 100.258,
      "duration": 0.387,
      "velocity": 0.71,
      "hand": "right"
    },
    {
      "midi": 52,
      "time": 100.645,
      "duration": 0.774,
      "velocity": 0.71,
      "hand": "left"
    },
    {
      "midi": 52,
      "time": 100.645,
      "duration": 0.387,
      "velocity": 0.71,
      "hand": "left"
    },
    {
      "midi": 64,
      "time": 101.032,
      "duration": 0.387,
      "velocity": 0.71,
      "hand": "right"
    },
    {
      "midi": 76,
      "time": 101.032,
      "duration": 0.387,
      "velocity": 0.71,
      "hand": "right"
    },
    {
      "midi": 53,
      "time": 101.419,
      "duration": 0.194,
      "velocity": 0.71,
      "hand": "left"
    },
    {
      "midi": 53,
      "time": 101.419,
      "duration": 0.387,
      "velocity": 0.71,
      "hand": "left"
    },
    {
      "midi": 65,
      "time": 101.419,
      "duration": 0.194,
      "velocity": 0.71,
      "hand": "right"
    },
    {
      "midi": 77,
      "time": 101.613,
      "duration": 0.194,
      "velocity": 0.71,
      "hand": "right"
    },
    {
      "midi": 57,
      "time": 101.806,
      "duration": 0.194,
      "velocity": 0.71,
      "hand": "left"
    },
    {
      "midi": 69,
      "time": 101.806,
      "duration": 0.194,
      "velocity": 0.71,
      "hand": "right"
    },
    {
      "midi": 81,
      "time": 102,
      "duration": 0.194,
      "velocity": 0.71,
      "hand": "right"
    },
    {
      "midi": 60,
      "time": 102.194,
      "duration": 0.194,
      "velocity": 0.71,
      "hand": "right"
    },
    {
      "midi": 72,
      "time": 102.194,
      "duration": 0.194,
      "velocity": 0.71,
      "hand": "right"
    },
    {
      "midi": 84,
      "time": 102.387,
      "duration": 0.194,
      "velocity": 0.71,
      "hand": "right"
    },
    {
      "midi": 57,
      "time": 102.581,
      "duration": 0.194,
      "velocity": 0.71,
      "hand": "left"
    },
    {
      "midi": 69,
      "time": 102.581,
      "duration": 0.194,
      "velocity": 0.71,
      "hand": "right"
    },
    {
      "midi": 81,
      "time": 102.774,
      "duration": 0.194,
      "velocity": 0.71,
      "hand": "right"
    },
    {
      "midi": 53,
      "time": 102.968,
      "duration": 0.194,
      "velocity": 0.71,
      "hand": "left"
    },
    {
      "midi": 65,
      "time": 102.968,
      "duration": 0.194,
      "velocity": 0.71,
      "hand": "right"
    },
    {
      "midi": 77,
      "time": 103.161,
      "duration": 0.194,
      "velocity": 0.71,
      "hand": "right"
    },
    {
      "midi": 48,
      "time": 103.355,
      "duration": 0.194,
      "velocity": 0.71,
      "hand": "left"
    },
    {
      "midi": 60,
      "time": 103.355,
      "duration": 0.194,
      "velocity": 0.71,
      "hand": "right"
    },
    {
      "midi": 72,
      "time": 103.548,
      "duration": 0.194,
      "velocity": 0.71,
      "hand": "right"
    },
    {
      "midi": 45,
      "time": 103.742,
      "duration": 0.387,
      "velocity": 0.71,
      "hand": "left"
    },
    {
      "midi": 46,
      "time": 103.742,
      "duration": 0.194,
      "velocity": 0.71,
      "hand": "left"
    },
    {
      "midi": 57,
      "time": 103.742,
      "duration": 0.387,
      "velocity": 0.71,
      "hand": "left"
    },
    {
      "midi": 69,
      "time": 103.742,
      "duration": 0.387,
      "velocity": 0.71,
      "hand": "right"
    },
    {
      "midi": 48,
      "time": 104.129,
      "duration": 0.387,
      "velocity": 0.71,
      "hand": "left"
    },
    {
      "midi": 60,
      "time": 104.129,
      "duration": 0.387,
      "velocity": 0.71,
      "hand": "right"
    },
    {
      "midi": 72,
      "time": 104.129,
      "duration": 0.387,
      "velocity": 0.71,
      "hand": "right"
    },
    {
      "midi": 46,
      "time": 104.516,
      "duration": 0.774,
      "velocity": 0.71,
      "hand": "left"
    },
    {
      "midi": 46,
      "time": 104.516,
      "duration": 0.387,
      "velocity": 0.71,
      "hand": "left"
    },
    {
      "midi": 58,
      "time": 104.903,
      "duration": 0.387,
      "velocity": 0.71,
      "hand": "left"
    },
    {
      "midi": 70,
      "time": 104.903,
      "duration": 0.387,
      "velocity": 0.71,
      "hand": "right"
    },
    {
      "midi": 50,
      "time": 105.29,
      "duration": 0.774,
      "velocity": 0.71,
      "hand": "left"
    },
    {
      "midi": 50,
      "time": 105.29,
      "duration": 0.387,
      "velocity": 0.71,
      "hand": "left"
    },
    {
      "midi": 62,
      "time": 105.677,
      "duration": 0.387,
      "velocity": 0.71,
      "hand": "right"
    },
    {
      "midi": 74,
      "time": 105.677,
      "duration": 0.387,
      "velocity": 0.71,
      "hand": "right"
    },
    {
      "midi": 48,
      "time": 106.065,
      "duration": 1.161,
      "velocity": 0.71,
      "hand": "left"
    },
    {
      "midi": 48,
      "time": 106.065,
      "duration": 0.387,
      "velocity": 0.71,
      "hand": "left"
    },
    {
      "midi": 53,
      "time": 106.065,
      "duration": 0.774,
      "velocity": 0.71,
      "hand": "left"
    },
    {
      "midi": 57,
      "time": 106.065,
      "duration": 0.774,
      "velocity": 0.71,
      "hand": "left"
    },
    {
      "midi": 60,
      "time": 106.452,
      "duration": 0.387,
      "velocity": 0.71,
      "hand": "right"
    },
    {
      "midi": 72,
      "time": 106.452,
      "duration": 0.387,
      "velocity": 0.71,
      "hand": "right"
    },
    {
      "midi": 48,
      "time": 106.839,
      "duration": 0.387,
      "velocity": 0.71,
      "hand": "left"
    },
    {
      "midi": 52,
      "time": 106.839,
      "duration": 0.774,
      "velocity": 0.71,
      "hand": "left"
    },
    {
      "midi": 55,
      "time": 106.839,
      "duration": 0.774,
      "velocity": 0.71,
      "hand": "left"
    },
    {
      "midi": 50,
      "time": 107.226,
      "duration": 0.194,
      "velocity": 0.71,
      "hand": "left"
    },
    {
      "midi": 60,
      "time": 107.226,
      "duration": 0.387,
      "velocity": 0.71,
      "hand": "right"
    },
    {
      "midi": 72,
      "time": 107.226,
      "duration": 0.387,
      "velocity": 0.71,
      "hand": "right"
    },
    {
      "midi": 52,
      "time": 107.419,
      "duration": 0.194,
      "velocity": 0.71,
      "hand": "left"
    },
    {
      "midi": 41,
      "time": 107.613,
      "duration": 0.194,
      "velocity": 0.71,
      "hand": "left"
    },
    {
      "midi": 53,
      "time": 107.613,
      "duration": 0.387,
      "velocity": 0.71,
      "hand": "left"
    },
    {
      "midi": 60,
      "time": 107.613,
      "duration": 0.097,
      "velocity": 0.71,
      "hand": "right"
    },
    {
      "midi": 65,
      "time": 107.613,
      "duration": 0.097,
      "velocity": 0.71,
      "hand": "right"
    },
    {
      "midi": 57,
      "time": 107.71,
      "duration": 0.097,
      "velocity": 0.71,
      "hand": "left"
    },
    {
      "midi": 53,
      "time": 107.806,
      "duration": 0.194,
      "velocity": 0.71,
      "hand": "left"
    },
    {
      "midi": 60,
      "time": 107.806,
      "duration": 0.097,
      "velocity": 0.71,
      "hand": "right"
    },
    {
      "midi": 65,
      "time": 107.806,
      "duration": 0.097,
      "velocity": 0.71,
      "hand": "right"
    },
    {
      "midi": 57,
      "time": 107.903,
      "duration": 0.097,
      "velocity": 0.71,
      "hand": "left"
    },
    {
      "midi": 41,
      "time": 108,
      "duration": 0.194,
      "velocity": 0.71,
      "hand": "left"
    },
    {
      "midi": 60,
      "time": 108,
      "duration": 0.097,
      "velocity": 0.71,
      "hand": "right"
    },
    {
      "midi": 65,
      "time": 108,
      "duration": 0.097,
      "velocity": 0.71,
      "hand": "right"
    },
    {
      "midi": 57,
      "time": 108.097,
      "duration": 0.097,
      "velocity": 0.71,
      "hand": "left"
    },
    {
      "midi": 53,
      "time": 108.194,
      "duration": 0.194,
      "velocity": 0.71,
      "hand": "left"
    },
    {
      "midi": 60,
      "time": 108.194,
      "duration": 0.097,
      "velocity": 0.71,
      "hand": "right"
    },
    {
      "midi": 65,
      "time": 108.194,
      "duration": 0.097,
      "velocity": 0.71,
      "hand": "right"
    },
    {
      "midi": 57,
      "time": 108.29,
      "duration": 0.097,
      "velocity": 0.71,
      "hand": "left"
    },
    {
      "midi": 41,
      "time": 108.387,
      "duration": 0.194,
      "velocity": 0.71,
      "hand": "left"
    },
    {
      "midi": 60,
      "time": 108.387,
      "duration": 0.097,
      "velocity": 0.71,
      "hand": "right"
    },
    {
      "midi": 65,
      "time": 108.387,
      "duration": 0.097,
      "velocity": 0.71,
      "hand": "right"
    },
    {
      "midi": 57,
      "time": 108.484,
      "duration": 0.097,
      "velocity": 0.71,
      "hand": "left"
    },
    {
      "midi": 53,
      "time": 108.581,
      "duration": 0.194,
      "velocity": 0.71,
      "hand": "left"
    },
    {
      "midi": 60,
      "time": 108.581,
      "duration": 0.097,
      "velocity": 0.71,
      "hand": "right"
    },
    {
      "midi": 65,
      "time": 108.581,
      "duration": 0.097,
      "velocity": 0.71,
      "hand": "right"
    },
    {
      "midi": 57,
      "time": 108.677,
      "duration": 0.097,
      "velocity": 0.71,
      "hand": "left"
    },
    {
      "midi": 41,
      "time": 108.774,
      "duration": 0.194,
      "velocity": 0.71,
      "hand": "left"
    },
    {
      "midi": 64,
      "time": 108.774,
      "duration": 0.097,
      "velocity": 0.71,
      "hand": "right"
    },
    {
      "midi": 67,
      "time": 108.774,
      "duration": 0.097,
      "velocity": 0.71,
      "hand": "right"
    },
    {
      "midi": 58,
      "time": 108.871,
      "duration": 0.097,
      "velocity": 0.71,
      "hand": "left"
    },
    {
      "midi": 53,
      "time": 108.968,
      "duration": 0.194,
      "velocity": 0.71,
      "hand": "left"
    },
    {
      "midi": 64,
      "time": 108.968,
      "duration": 0.097,
      "velocity": 0.71,
      "hand": "right"
    },
    {
      "midi": 67,
      "time": 108.968,
      "duration": 0.097,
      "velocity": 0.71,
      "hand": "right"
    },
    {
      "midi": 58,
      "time": 109.065,
      "duration": 0.097,
      "velocity": 0.71,
      "hand": "left"
    },
    {
      "midi": 41,
      "time": 109.161,
      "duration": 0.194,
      "velocity": 0.71,
      "hand": "left"
    },
    {
      "midi": 63,
      "time": 109.161,
      "duration": 0.097,
      "velocity": 0.71,
      "hand": "right"
    },
    {
      "midi": 65,
      "time": 109.161,
      "duration": 0.097,
      "velocity": 0.71,
      "hand": "right"
    },
    {
      "midi": 69,
      "time": 109.161,
      "duration": 0.097,
      "velocity": 0.71,
      "hand": "right"
    },
    {
      "midi": 60,
      "time": 109.258,
      "duration": 0.097,
      "velocity": 0.71,
      "hand": "right"
    },
    {
      "midi": 53,
      "time": 109.355,
      "duration": 0.194,
      "velocity": 0.71,
      "hand": "left"
    },
    {
      "midi": 63,
      "time": 109.355,
      "duration": 0.097,
      "velocity": 0.71,
      "hand": "right"
    },
    {
      "midi": 65,
      "time": 109.355,
      "duration": 0.097,
      "velocity": 0.71,
      "hand": "right"
    },
    {
      "midi": 69,
      "time": 109.355,
      "duration": 0.097,
      "velocity": 0.71,
      "hand": "right"
    },
    {
      "midi": 60,
      "time": 109.452,
      "duration": 0.097,
      "velocity": 0.71,
      "hand": "right"
    },
    {
      "midi": 41,
      "time": 109.548,
      "duration": 0.194,
      "velocity": 0.71,
      "hand": "left"
    },
    {
      "midi": 65,
      "time": 109.548,
      "duration": 0.097,
      "velocity": 0.71,
      "hand": "right"
    },
    {
      "midi": 70,
      "time": 109.548,
      "duration": 0.097,
      "velocity": 0.71,
      "hand": "right"
    },
    {
      "midi": 62,
      "time": 109.645,
      "duration": 0.097,
      "velocity": 0.71,
      "hand": "right"
    },
    {
      "midi": 53,
      "time": 109.742,
      "duration": 0.194,
      "velocity": 0.71,
      "hand": "left"
    },
    {
      "midi": 65,
      "time": 109.742,
      "duration": 0.097,
      "velocity": 0.71,
      "hand": "right"
    },
    {
      "midi": 70,
      "time": 109.742,
      "duration": 0.097,
      "velocity": 0.71,
      "hand": "right"
    },
    {
      "midi": 62,
      "time": 109.839,
      "duration": 0.097,
      "velocity": 0.71,
      "hand": "right"
    },
    {
      "midi": 41,
      "time": 109.935,
      "duration": 0.194,
      "velocity": 0.71,
      "hand": "left"
    },
    {
      "midi": 69,
      "time": 109.935,
      "duration": 0.097,
      "velocity": 0.71,
      "hand": "right"
    },
    {
      "midi": 72,
      "time": 109.935,
      "duration": 0.097,
      "velocity": 0.71,
      "hand": "right"
    },
    {
      "midi": 65,
      "time": 110.032,
      "duration": 0.097,
      "velocity": 0.71,
      "hand": "right"
    },
    {
      "midi": 53,
      "time": 110.129,
      "duration": 0.194,
      "velocity": 0.71,
      "hand": "left"
    },
    {
      "midi": 69,
      "time": 110.129,
      "duration": 0.097,
      "velocity": 0.71,
      "hand": "right"
    },
    {
      "midi": 72,
      "time": 110.129,
      "duration": 0.097,
      "velocity": 0.71,
      "hand": "right"
    },
    {
      "midi": 65,
      "time": 110.226,
      "duration": 0.097,
      "velocity": 0.71,
      "hand": "right"
    },
    {
      "midi": 41,
      "time": 110.323,
      "duration": 0.194,
      "velocity": 0.71,
      "hand": "left"
    },
    {
      "midi": 70,
      "time": 110.323,
      "duration": 0.097,
      "velocity": 0.71,
      "hand": "right"
    },
    {
      "midi": 74,
      "time": 110.323,
      "duration": 0.097,
      "velocity": 0.71,
      "hand": "right"
    },
    {
      "midi": 65,
      "time": 110.419,
      "duration": 0.097,
      "velocity": 0.71,
      "hand": "right"
    },
    {
      "midi": 53,
      "time": 110.516,
      "duration": 0.194,
      "velocity": 0.71,
      "hand": "left"
    },
    {
      "midi": 70,
      "time": 110.516,
      "duration": 0.097,
      "velocity": 0.71,
      "hand": "right"
    },
    {
      "midi": 74,
      "time": 110.516,
      "duration": 0.097,
      "velocity": 0.71,
      "hand": "right"
    },
    {
      "midi": 65,
      "time": 110.613,
      "duration": 0.097,
      "velocity": 0.71,
      "hand": "right"
    },
    {
      "midi": 41,
      "time": 110.71,
      "duration": 0.194,
      "velocity": 0.71,
      "hand": "left"
    },
    {
      "midi": 72,
      "time": 110.71,
      "duration": 0.097,
      "velocity": 0.71,
      "hand": "right"
    },
    {
      "midi": 75,
      "time": 110.71,
      "duration": 0.097,
      "velocity": 0.71,
      "hand": "right"
    },
    {
      "midi": 65,
      "time": 110.806,
      "duration": 0.097,
      "velocity": 0.71,
      "hand": "right"
    },
    {
      "midi": 53,
      "time": 110.903,
      "duration": 0.194,
      "velocity": 0.71,
      "hand": "left"
    },
    {
      "midi": 72,
      "time": 110.903,
      "duration": 0.097,
      "velocity": 0.71,
      "hand": "right"
    },
    {
      "midi": 75,
      "time": 110.903,
      "duration": 0.097,
      "velocity": 0.71,
      "hand": "right"
    },
    {
      "midi": 65,
      "time": 111,
      "duration": 0.097,
      "velocity": 0.71,
      "hand": "right"
    },
    {
      "midi": 41,
      "time": 111.097,
      "duration": 0.194,
      "velocity": 0.71,
      "hand": "left"
    },
    {
      "midi": 74,
      "time": 111.097,
      "duration": 0.097,
      "velocity": 0.71,
      "hand": "right"
    },
    {
      "midi": 77,
      "time": 111.097,
      "duration": 0.097,
      "velocity": 0.71,
      "hand": "right"
    },
    {
      "midi": 65,
      "time": 111.194,
      "duration": 0.097,
      "velocity": 0.71,
      "hand": "right"
    },
    {
      "midi": 53,
      "time": 111.29,
      "duration": 0.194,
      "velocity": 0.71,
      "hand": "left"
    },
    {
      "midi": 74,
      "time": 111.29,
      "duration": 0.097,
      "velocity": 0.71,
      "hand": "right"
    },
    {
      "midi": 77,
      "time": 111.29,
      "duration": 0.097,
      "velocity": 0.71,
      "hand": "right"
    },
    {
      "midi": 65,
      "time": 111.387,
      "duration": 0.097,
      "velocity": 0.71,
      "hand": "right"
    },
    {
      "midi": 41,
      "time": 111.484,
      "duration": 0.194,
      "velocity": 0.71,
      "hand": "left"
    },
    {
      "midi": 75,
      "time": 111.484,
      "duration": 0.097,
      "velocity": 0.71,
      "hand": "right"
    },
    {
      "midi": 79,
      "time": 111.484,
      "duration": 0.097,
      "velocity": 0.71,
      "hand": "right"
    },
    {
      "midi": 65,
      "time": 111.581,
      "duration": 0.097,
      "velocity": 0.71,
      "hand": "right"
    },
    {
      "midi": 53,
      "time": 111.677,
      "duration": 0.194,
      "velocity": 0.71,
      "hand": "left"
    },
    {
      "midi": 75,
      "time": 111.677,
      "duration": 0.097,
      "velocity": 0.71,
      "hand": "right"
    },
    {
      "midi": 79,
      "time": 111.677,
      "duration": 0.097,
      "velocity": 0.71,
      "hand": "right"
    },
    {
      "midi": 65,
      "time": 111.774,
      "duration": 0.097,
      "velocity": 0.71,
      "hand": "right"
    },
    {
      "midi": 41,
      "time": 111.871,
      "duration": 0.194,
      "velocity": 0.71,
      "hand": "left"
    },
    {
      "midi": 75,
      "time": 111.871,
      "duration": 0.097,
      "velocity": 0.71,
      "hand": "right"
    },
    {
      "midi": 77,
      "time": 111.871,
      "duration": 0.097,
      "velocity": 0.71,
      "hand": "right"
    },
    {
      "midi": 81,
      "time": 111.871,
      "duration": 0.097,
      "velocity": 0.71,
      "hand": "right"
    },
    {
      "midi": 72,
      "time": 111.968,
      "duration": 0.097,
      "velocity": 0.71,
      "hand": "right"
    },
    {
      "midi": 53,
      "time": 112.065,
      "duration": 0.194,
      "velocity": 0.71,
      "hand": "left"
    },
    {
      "midi": 75,
      "time": 112.065,
      "duration": 0.097,
      "velocity": 0.71,
      "hand": "right"
    },
    {
      "midi": 77,
      "time": 112.065,
      "duration": 0.097,
      "velocity": 0.71,
      "hand": "right"
    },
    {
      "midi": 81,
      "time": 112.065,
      "duration": 0.097,
      "velocity": 0.71,
      "hand": "right"
    },
    {
      "midi": 72,
      "time": 112.161,
      "duration": 0.097,
      "velocity": 0.71,
      "hand": "right"
    },
    {
      "midi": 46,
      "time": 112.258,
      "duration": 0.097,
      "velocity": 0.71,
      "hand": "left"
    },
    {
      "midi": 50,
      "time": 112.258,
      "duration": 0.097,
      "velocity": 0.71,
      "hand": "left"
    },
    {
      "midi": 53,
      "time": 112.258,
      "duration": 0.097,
      "velocity": 0.71,
      "hand": "left"
    },
    {
      "midi": 82,
      "time": 112.258,
      "duration": 0.194,
      "velocity": 0.71,
      "hand": "right"
    },
    {
      "midi": 58,
      "time": 112.355,
      "duration": 0.097,
      "velocity": 0.71,
      "hand": "left"
    },
    {
      "midi": 46,
      "time": 112.452,
      "duration": 0.097,
      "velocity": 0.71,
      "hand": "left"
    },
    {
      "midi": 50,
      "time": 112.452,
      "duration": 0.097,
      "velocity": 0.71,
      "hand": "left"
    },
    {
      "midi": 53,
      "time": 112.452,
      "duration": 0.097,
      "velocity": 0.71,
      "hand": "left"
    },
    {
      "midi": 77,
      "time": 112.452,
      "duration": 0.194,
      "velocity": 0.71,
      "hand": "right"
    },
    {
      "midi": 58,
      "time": 112.548,
      "duration": 0.097,
      "velocity": 0.71,
      "hand": "left"
    },
    {
      "midi": 46,
      "time": 112.645,
      "duration": 0.097,
      "velocity": 0.71,
      "hand": "left"
    },
    {
      "midi": 50,
      "time": 112.645,
      "duration": 0.097,
      "velocity": 0.71,
      "hand": "left"
    },
    {
      "midi": 53,
      "time": 112.645,
      "duration": 0.097,
      "velocity": 0.71,
      "hand": "left"
    },
    {
      "midi": 74,
      "time": 112.645,
      "duration": 0.194,
      "velocity": 0.71,
      "hand": "right"
    },
    {
      "midi": 58,
      "time": 112.742,
      "duration": 0.097,
      "velocity": 0.71,
      "hand": "left"
    },
    {
      "midi": 46,
      "time": 112.839,
      "duration": 0.097,
      "velocity": 0.71,
      "hand": "left"
    },
    {
      "midi": 50,
      "time": 112.839,
      "duration": 0.097,
      "velocity": 0.71,
      "hand": "left"
    },
    {
      "midi": 53,
      "time": 112.839,
      "duration": 0.097,
      "velocity": 0.71,
      "hand": "left"
    },
    {
      "midi": 77,
      "time": 112.839,
      "duration": 0.194,
      "velocity": 0.71,
      "hand": "right"
    },
    {
      "midi": 58,
      "time": 112.935,
      "duration": 0.097,
      "velocity": 0.71,
      "hand": "left"
    },
    {
      "midi": 46,
      "time": 113.032,
      "duration": 0.387,
      "velocity": 0.71,
      "hand": "left"
    },
    {
      "midi": 50,
      "time": 113.032,
      "duration": 0.387,
      "velocity": 0.71,
      "hand": "left"
    },
    {
      "midi": 53,
      "time": 113.032,
      "duration": 0.387,
      "velocity": 0.71,
      "hand": "left"
    },
    {
      "midi": 58,
      "time": 113.032,
      "duration": 0.387,
      "velocity": 0.71,
      "hand": "left"
    },
    {
      "midi": 82,
      "time": 113.032,
      "duration": 0.387,
      "velocity": 0.71,
      "hand": "right"
    }
  ]
}
