{
  "id": "o-cravo-e-a-rosa",
  "title": "O Cravo e a Rosa",
  "artist": "Tradicional",
  "difficulty": "Difícil",
  "bpm": 80,
  "duration": 58,
  "category": "Infantis",
  "isPremium": false,
  "coverUrl": "/images/covers/placeholder.png",
  "notes": [
    {
      "midi": 38,
      "time": 0,
      "duration": 0.485,
      "velocity": 1,
      "hand": "left"
    },
    {
      "midi": 47,
      "time": 0,
      "duration": 0.063,
      "velocity": 0.89,
      "hand": "left"
    },
    {
      "midi": 62,
      "time": 0,
      "duration": 0.5,
      "velocity": 0.72,
      "hand": "right"
    },
    {
      "midi": 51,
      "time": 0.375,
      "duration": 0.063,
      "velocity": 0.63,
      "hand": "left"
    },
    {
      "midi": 53,
      "time": 0.375,
      "duration": 0.11,
      "velocity": 0.7,
      "hand": "left"
    },
    {
      "midi": 60,
      "time": 0.375,
      "duration": 0.11,
      "velocity": 0.75,
      "hand": "right"
    },
    {
      "midi": 64,
      "time": 0.375,
      "duration": 0.11,
      "velocity": 0.69,
      "hand": "right"
    },
    {
      "midi": 38,
      "time": 0.5,
      "duration": 0.063,
      "velocity": 0.99,
      "hand": "left"
    },
    {
      "midi": 51,
      "time": 0.5,
      "duration": 0.063,
      "velocity": 0.63,
      "hand": "left"
    },
    {
      "midi": 60,
      "time": 0.5,
      "duration": 0.125,
      "velocity": 0.61,
      "hand": "right"
    },
    {
      "midi": 64,
      "time": 0.5,
      "duration": 0.485,
      "velocity": 0.8,
      "hand": "right"
    },
    {
      "midi": 51,
      "time": 0.875,
      "duration": 0.063,
      "velocity": 0.63,
      "hand": "left"
    },
    {
      "midi": 38,
      "time": 1,
      "duration": 0.5,
      "velocity": 1,
      "hand": "left"
    },
    {
      "midi": 51,
      "time": 1,
      "duration": 0.063,
      "velocity": 0.63,
      "hand": "left"
    },
    {
      "midi": 60,
      "time": 1,
      "duration": 0.375,
      "velocity": 0.72,
      "hand": "right"
    },
    {
      "midi": 65,
      "time": 1,
      "duration": 0.5,
      "velocity": 0.57,
      "hand": "right"
    },
    {
      "midi": 51,
      "time": 1.375,
      "duration": 0.063,
      "velocity": 0.63,
      "hand": "left"
    },
    {
      "midi": 37,
      "time": 1.5,
      "duration": 0.985,
      "velocity": 1,
      "hand": "left"
    },
    {
      "midi": 47,
      "time": 1.5,
      "duration": 0.063,
      "velocity": 0.87,
      "hand": "left"
    },
    {
      "midi": 67,
      "time": 1.5,
      "duration": 0.235,
      "velocity": 0.53,
      "hand": "right"
    },
    {
      "midi": 38,
      "time": 1.75,
      "duration": 0.063,
      "velocity": 1,
      "hand": "left"
    },
    {
      "midi": 56,
      "time": 1.75,
      "duration": 0.11,
      "velocity": 0.72,
      "hand": "left"
    },
    {
      "midi": 63,
      "time": 1.75,
      "duration": 0.11,
      "velocity": 0.57,
      "hand": "right"
    },
    {
      "midi": 67,
      "time": 1.75,
      "duration": 0.5,
      "velocity": 0.68,
      "hand": "right"
    },
    {
      "midi": 38,
      "time": 1.875,
      "duration": 0.063,
      "velocity": 1,
      "hand": "left"
    },
    {
      "midi": 51,
      "time": 1.875,
      "duration": 0.063,
      "velocity": 0.63,
      "hand": "left"
    },
    {
      "midi": 63,
      "time": 1.875,
      "duration": 0.11,
      "velocity": 0.5,
      "hand": "right"
    },
    {
      "midi": 38,
      "time": 2,
      "duration": 0.063,
      "velocity": 0.86,
      "hand": "left"
    },
    {
      "midi": 53,
      "time": 2,
      "duration": 0.125,
      "velocity": 0.4,
      "hand": "left"
    },
    {
      "midi": 63,
      "time": 2,
      "duration": 0.125,
      "velocity": 0.42,
      "hand": "right"
    },
    {
      "midi": 71,
      "time": 2,
      "duration": 0.5,
      "velocity": 0.8,
      "hand": "right"
    },
    {
      "midi": 51,
      "time": 2.125,
      "duration": 0.063,
      "velocity": 0.63,
      "hand": "left"
    },
    {
      "midi": 51,
      "time": 2.375,
      "duration": 0.063,
      "velocity": 0.63,
      "hand": "left"
    },
    {
      "midi": 38,
      "time": 2.5,
      "duration": 0.063,
      "velocity": 1,
      "hand": "left"
    },
    {
      "midi": 63,
      "time": 2.5,
      "duration": 0.375,
      "velocity": 0.61,
      "hand": "right"
    },
    {
      "midi": 67,
      "time": 2.5,
      "duration": 0.375,
      "velocity": 0.74,
      "hand": "right"
    },
    {
      "midi": 74,
      "time": 2.5,
      "duration": 0.5,
      "velocity": 0.68,
      "hand": "right"
    },
    {
      "midi": 51,
      "time": 2.875,
      "duration": 0.063,
      "velocity": 0.63,
      "hand": "left"
    },
    {
      "midi": 36,
      "time": 3,
      "duration": 1,
      "velocity": 0.98,
      "hand": "left"
    },
    {
      "midi": 47,
      "time": 3,
      "duration": 0.063,
      "velocity": 0.93,
      "hand": "left"
    },
    {
      "midi": 60,
      "time": 3,
      "duration": 0.36,
      "velocity": 0.68,
      "hand": "right"
    },
    {
      "midi": 64,
      "time": 3,
      "duration": 0.36,
      "velocity": 0.56,
      "hand": "right"
    },
    {
      "midi": 67,
      "time": 3,
      "duration": 0.5,
      "velocity": 0.7,
      "hand": "right"
    },
    {
      "midi": 51,
      "time": 3.375,
      "duration": 0.063,
      "velocity": 0.63,
      "hand": "left"
    },
    {
      "midi": 55,
      "time": 3.375,
      "duration": 0.11,
      "velocity": 0.5,
      "hand": "left"
    },
    {
      "midi": 60,
      "time": 3.375,
      "duration": 0.11,
      "velocity": 0.56,
      "hand": "right"
    },
    {
      "midi": 64,
      "time": 3.375,
      "duration": 0.11,
      "velocity": 0.5,
      "hand": "right"
    },
    {
      "midi": 38,
      "time": 3.5,
      "duration": 0.063,
      "velocity": 0.95,
      "hand": "left"
    },
    {
      "midi": 51,
      "time": 3.5,
      "duration": 0.063,
      "velocity": 0.63,
      "hand": "left"
    },
    {
      "midi": 60,
      "time": 3.5,
      "duration": 0.063,
      "velocity": 0.57,
      "hand": "right"
    },
    {
      "midi": 64,
      "time": 3.5,
      "duration": 0.25,
      "velocity": 0.56,
      "hand": "right"
    },
    {
      "midi": 72,
      "time": 3.75,
      "duration": 0.25,
      "velocity": 0.56,
      "hand": "right"
    },
    {
      "midi": 51,
      "time": 3.875,
      "duration": 0.063,
      "velocity": 0.63,
      "hand": "left"
    },
    {
      "midi": 38,
      "time": 4,
      "duration": 0.063,
      "velocity": 1,
      "hand": "left"
    },
    {
      "midi": 43,
      "time": 4,
      "duration": 0.25,
      "velocity": 1,
      "hand": "left"
    },
    {
      "midi": 60,
      "time": 4,
      "duration": 0.375,
      "velocity": 0.69,
      "hand": "right"
    },
    {
      "midi": 64,
      "time": 4,
      "duration": 0.375,
      "velocity": 0.56,
      "hand": "right"
    },
    {
      "midi": 71,
      "time": 4,
      "duration": 0.25,
      "velocity": 0.5,
      "hand": "right"
    },
    {
      "midi": 36,
      "time": 4.25,
      "duration": 0.25,
      "velocity": 0.8,
      "hand": "left"
    },
    {
      "midi": 69,
      "time": 4.25,
      "duration": 0.25,
      "velocity": 0.42,
      "hand": "right"
    },
    {
      "midi": 51,
      "time": 4.375,
      "duration": 0.063,
      "velocity": 0.63,
      "hand": "left"
    },
    {
      "midi": 43,
      "time": 4.5,
      "duration": 0.875,
      "velocity": 1,
      "hand": "left"
    },
    {
      "midi": 47,
      "time": 4.5,
      "duration": 0.063,
      "velocity": 0.91,
      "hand": "left"
    },
    {
      "midi": 62,
      "time": 4.5,
      "duration": 0.36,
      "velocity": 0.4,
      "hand": "right"
    },
    {
      "midi": 67,
      "time": 4.5,
      "duration": 0.5,
      "velocity": 0.54,
      "hand": "right"
    },
    {
      "midi": 38,
      "time": 4.75,
      "duration": 0.063,
      "velocity": 1,
      "hand": "left"
    },
    {
      "midi": 59,
      "time": 4.75,
      "duration": 0.11,
      "velocity": 0.68,
      "hand": "left"
    },
    {
      "midi": 38,
      "time": 4.875,
      "duration": 0.063,
      "velocity": 0.97,
      "hand": "left"
    },
    {
      "midi": 51,
      "time": 4.875,
      "duration": 0.063,
      "velocity": 0.63,
      "hand": "left"
    },
    {
      "midi": 62,
      "time": 4.875,
      "duration": 0.11,
      "velocity": 0.56,
      "hand": "right"
    },
    {
      "midi": 38,
      "time": 5,
      "duration": 0.063,
      "velocity": 0.8,
      "hand": "left"
    },
    {
      "midi": 51,
      "time": 5,
      "duration": 0.063,
      "velocity": 0.63,
      "hand": "left"
    },
    {
      "midi": 62,
      "time": 5,
      "duration": 0.25,
      "velocity": 0.57,
      "hand": "right"
    },
    {
      "midi": 65,
      "time": 5,
      "duration": 0.485,
      "velocity": 0.54,
      "hand": "right"
    },
    {
      "midi": 55,
      "time": 5.25,
      "duration": 0.235,
      "velocity": 0.69,
      "hand": "left"
    },
    {
      "midi": 51,
      "time": 5.375,
      "duration": 0.063,
      "velocity": 0.63,
      "hand": "left"
    },
    {
      "midi": 38,
      "time": 5.5,
      "duration": 0.25,
      "velocity": 1,
      "hand": "left"
    },
    {
      "midi": 51,
      "time": 5.5,
      "duration": 0.063,
      "velocity": 0.63,
      "hand": "left"
    },
    {
      "midi": 62,
      "time": 5.5,
      "duration": 0.375,
      "velocity": 0.51,
      "hand": "right"
    },
    {
      "midi": 65,
      "time": 5.5,
      "duration": 0.375,
      "velocity": 0.72,
      "hand": "right"
    },
    {
      "midi": 67,
      "time": 5.5,
      "duration": 0.25,
      "velocity": 0.51,
      "hand": "right"
    },
    {
      "midi": 69,
      "time": 5.5,
      "duration": 0.375,
      "velocity": 0.57,
      "hand": "right"
    },
    {
      "midi": 47,
      "time": 5.75,
      "duration": 0.235,
      "velocity": 0.96,
      "hand": "left"
    },
    {
      "midi": 50,
      "time": 5.75,
      "duration": 0.25,
      "velocity": 0.56,
      "hand": "left"
    },
    {
      "midi": 51,
      "time": 5.875,
      "duration": 0.063,
      "velocity": 0.63,
      "hand": "left"
    },
    {
      "midi": 43,
      "time": 6,
      "duration": 1.235,
      "velocity": 0.98,
      "hand": "left"
    },
    {
      "midi": 47,
      "time": 6,
      "duration": 0.063,
      "velocity": 0.89,
      "hand": "left"
    },
    {
      "midi": 65,
      "time": 6,
      "duration": 0.36,
      "velocity": 0.72,
      "hand": "right"
    },
    {
      "midi": 69,
      "time": 6,
      "duration": 0.5,
      "velocity": 0.59,
      "hand": "right"
    },
    {
      "midi": 62,
      "time": 6.25,
      "duration": 0.11,
      "velocity": 0.72,
      "hand": "right"
    },
    {
      "midi": 51,
      "time": 6.375,
      "duration": 0.063,
      "velocity": 0.63,
      "hand": "left"
    },
    {
      "midi": 55,
      "time": 6.375,
      "duration": 0.11,
      "velocity": 0.53,
      "hand": "left"
    },
    {
      "midi": 62,
      "time": 6.375,
      "duration": 0.11,
      "velocity": 0.54,
      "hand": "right"
    },
    {
      "midi": 65,
      "time": 6.375,
      "duration": 0.11,
      "velocity": 0.53,
      "hand": "right"
    },
    {
      "midi": 38,
      "time": 6.5,
      "duration": 0.485,
      "velocity": 1,
      "hand": "left"
    },
    {
      "midi": 51,
      "time": 6.5,
      "duration": 0.063,
      "velocity": 0.63,
      "hand": "left"
    },
    {
      "midi": 62,
      "time": 6.5,
      "duration": 0.063,
      "velocity": 0.57,
      "hand": "right"
    },
    {
      "midi": 65,
      "time": 6.5,
      "duration": 0.25,
      "velocity": 0.56,
      "hand": "right"
    },
    {
      "midi": 55,
      "time": 6.75,
      "duration": 0.235,
      "velocity": 0.58,
      "hand": "left"
    },
    {
      "midi": 72,
      "time": 6.75,
      "duration": 0.25,
      "velocity": 0.55,
      "hand": "right"
    },
    {
      "midi": 51,
      "time": 6.875,
      "duration": 0.063,
      "velocity": 0.63,
      "hand": "left"
    },
    {
      "midi": 38,
      "time": 7,
      "duration": 0.063,
      "velocity": 1,
      "hand": "left"
    },
    {
      "midi": 47,
      "time": 7,
      "duration": 0.25,
      "velocity": 0.97,
      "hand": "left"
    },
    {
      "midi": 62,
      "time": 7,
      "duration": 0.375,
      "velocity": 0.55,
      "hand": "right"
    },
    {
      "midi": 65,
      "time": 7,
      "duration": 0.375,
      "velocity": 0.72,
      "hand": "right"
    },
    {
      "midi": 71,
      "time": 7,
      "duration": 0.25,
      "velocity": 0.52,
      "hand": "right"
    },
    {
      "midi": 43,
      "time": 7.25,
      "duration": 0.25,
      "velocity": 0.96,
      "hand": "left"
    },
    {
      "midi": 50,
      "time": 7.25,
      "duration": 0.25,
      "velocity": 0.46,
      "hand": "left"
    },
    {
      "midi": 69,
      "time": 7.25,
      "duration": 0.25,
      "velocity": 0.52,
      "hand": "right"
    },
    {
      "midi": 51,
      "time": 7.375,
      "duration": 0.063,
      "velocity": 0.63,
      "hand": "left"
    },
    {
      "midi": 59,
      "time": 7.375,
      "duration": 0.125,
      "velocity": 0.42,
      "hand": "left"
    },
    {
      "midi": 36,
      "time": 7.5,
      "duration": 1.25,
      "velocity": 0.95,
      "hand": "left"
    },
    {
      "midi": 47,
      "time": 7.5,
      "duration": 0.063,
      "velocity": 0.97,
      "hand": "left"
    },
    {
      "midi": 60,
      "time": 7.5,
      "duration": 0.235,
      "velocity": 0.52,
      "hand": "right"
    },
    {
      "midi": 62,
      "time": 7.5,
      "duration": 0.063,
      "velocity": 0.22,
      "hand": "right"
    },
    {
      "midi": 64,
      "time": 7.5,
      "duration": 0.36,
      "velocity": 0.58,
      "hand": "right"
    },
    {
      "midi": 67,
      "time": 7.5,
      "duration": 0.875,
      "velocity": 0.57,
      "hand": "right"
    },
    {
      "midi": 38,
      "time": 7.75,
      "duration": 0.063,
      "velocity": 1,
      "hand": "left"
    },
    {
      "midi": 60,
      "time": 7.75,
      "duration": 0.11,
      "velocity": 0.75,
      "hand": "right"
    },
    {
      "midi": 38,
      "time": 7.875,
      "duration": 0.063,
      "velocity": 0.91,
      "hand": "left"
    },
    {
      "midi": 51,
      "time": 7.875,
      "duration": 0.063,
      "velocity": 0.63,
      "hand": "left"
    },
    {
      "midi": 60,
      "time": 7.875,
      "duration": 0.063,
      "velocity": 0.61,
      "hand": "right"
    },
    {
      "midi": 64,
      "time": 7.875,
      "duration": 0.11,
      "velocity": 0.47,
      "hand": "right"
    },
    {
      "midi": 38,
      "time": 8,
      "duration": 0.063,
      "velocity": 0.85,
      "hand": "left"
    },
    {
      "midi": 40,
      "time": 8,
      "duration": 0.75,
      "velocity": 0.28,
      "hand": "left"
    },
    {
      "midi": 60,
      "time": 8,
      "duration": 0.063,
      "velocity": 0.65,
      "hand": "right"
    },
    {
      "midi": 64,
      "time": 8,
      "duration": 0.125,
      "velocity": 0.55,
      "hand": "right"
    },
    {
      "midi": 55,
      "time": 8.25,
      "duration": 0.235,
      "velocity": 0.5,
      "hand": "left"
    },
    {
      "midi": 51,
      "time": 8.375,
      "duration": 0.063,
      "velocity": 0.63,
      "hand": "left"
    },
    {
      "midi": 38,
      "time": 8.5,
      "duration": 0.063,
      "velocity": 1,
      "hand": "left"
    },
    {
      "midi": 43,
      "time": 8.5,
      "duration": 0.235,
      "velocity": 1,
      "hand": "left"
    },
    {
      "midi": 60,
      "time": 8.5,
      "duration": 0.25,
      "velocity": 0.57,
      "hand": "right"
    },
    {
      "midi": 64,
      "time": 8.5,
      "duration": 0.25,
      "velocity": 0.69,
      "hand": "right"
    },
    {
      "midi": 67,
      "time": 8.5,
      "duration": 0.375,
      "velocity": 0.57,
      "hand": "right"
    },
    {
      "midi": 43,
      "time": 8.75,
      "duration": 0.25,
      "velocity": 0.48,
      "hand": "left"
    },
    {
      "midi": 55,
      "time": 8.75,
      "duration": 0.125,
      "velocity": 0.61,
      "hand": "left"
    },
    {
      "midi": 51,
      "time": 8.875,
      "duration": 0.063,
      "velocity": 0.63,
      "hand": "left"
    },
    {
      "midi": 72,
      "time": 8.875,
      "duration": 0.75,
      "velocity": 0.72,
      "hand": "right"
    },
    {
      "midi": 36,
      "time": 9,
      "duration": 1,
      "velocity": 0.97,
      "hand": "left"
    },
    {
      "midi": 47,
      "time": 9,
      "duration": 0.063,
      "velocity": 0.89,
      "hand": "left"
    },
    {
      "midi": 60,
      "time": 9,
      "duration": 0.36,
      "velocity": 0.75,
      "hand": "right"
    },
    {
      "midi": 65,
      "time": 9,
      "duration": 1,
      "velocity": 0.72,
      "hand": "right"
    },
    {
      "midi": 51,
      "time": 9.375,
      "duration": 0.063,
      "velocity": 0.63,
      "hand": "left"
    },
    {
      "midi": 55,
      "time": 9.375,
      "duration": 0.11,
      "velocity": 0.53,
      "hand": "left"
    },
    {
      "midi": 60,
      "time": 9.375,
      "duration": 0.063,
      "velocity": 0.61,
      "hand": "right"
    },
    {
      "midi": 64,
      "time": 9.375,
      "duration": 0.063,
      "velocity": 0.51,
      "hand": "right"
    },
    {
      "midi": 38,
      "time": 9.5,
      "duration": 0.063,
      "velocity": 0.99,
      "hand": "left"
    },
    {
      "midi": 51,
      "time": 9.5,
      "duration": 0.063,
      "velocity": 0.63,
      "hand": "left"
    },
    {
      "midi": 60,
      "time": 9.5,
      "duration": 0.375,
      "velocity": 0.69,
      "hand": "right"
    },
    {
      "midi": 64,
      "time": 9.5,
      "duration": 0.375,
      "velocity": 0.72,
      "hand": "right"
    },
    {
      "midi": 72,
      "time": 9.75,
      "duration": 0.25,
      "velocity": 0.63,
      "hand": "right"
    },
    {
      "midi": 51,
      "time": 9.875,
      "duration": 0.063,
      "velocity": 0.63,
      "hand": "left"
    },
    {
      "midi": 38,
      "time": 10,
      "duration": 0.063,
      "velocity": 1,
      "hand": "left"
    },
    {
      "midi": 43,
      "time": 10,
      "duration": 0.25,
      "velocity": 1,
      "hand": "left"
    },
    {
      "midi": 60,
      "time": 10,
      "duration": 0.375,
      "velocity": 0.74,
      "hand": "right"
    },
    {
      "midi": 64,
      "time": 10,
      "duration": 0.375,
      "velocity": 0.7,
      "hand": "right"
    },
    {
      "midi": 74,
      "time": 10,
      "duration": 0.25,
      "velocity": 0.56,
      "hand": "right"
    },
    {
      "midi": 36,
      "time": 10.25,
      "duration": 0.25,
      "velocity": 0.84,
      "hand": "left"
    },
    {
      "midi": 72,
      "time": 10.25,
      "duration": 0.25,
      "velocity": 0.52,
      "hand": "right"
    },
    {
      "midi": 51,
      "time": 10.375,
      "duration": 0.063,
      "velocity": 0.63,
      "hand": "left"
    },
    {
      "midi": 41,
      "time": 10.5,
      "duration": 1.235,
      "velocity": 0.99,
      "hand": "left"
    },
    {
      "midi": 47,
      "time": 10.5,
      "duration": 0.063,
      "velocity": 0.87,
      "hand": "left"
    },
    {
      "midi": 60,
      "time": 10.5,
      "duration": 0.36,
      "velocity": 0.65,
      "hand": "right"
    },
    {
      "midi": 64,
      "time": 10.5,
      "duration": 0.875,
      "velocity": 0.54,
      "hand": "right"
    },
    {
      "midi": 71,
      "time": 10.5,
      "duration": 0.5,
      "velocity": 0.54,
      "hand": "right"
    },
    {
      "midi": 38,
      "time": 10.75,
      "duration": 0.063,
      "velocity": 1,
      "hand": "left"
    },
    {
      "midi": 38,
      "time": 10.875,
      "duration": 0.063,
      "velocity": 1,
      "hand": "left"
    },
    {
      "midi": 45,
      "time": 10.875,
      "duration": 0.75,
      "velocity": 0.5,
      "hand": "left"
    },
    {
      "midi": 60,
      "time": 10.875,
      "duration": 0.063,
      "velocity": 0.69,
      "hand": "right"
    },
    {
      "midi": 65,
      "time": 10.875,
      "duration": 0.11,
      "velocity": 0.56,
      "hand": "right"
    },
    {
      "midi": 69,
      "time": 10.875,
      "duration": 0.375,
      "velocity": 0.5,
      "hand": "right"
    },
    {
      "midi": 38,
      "time": 11,
      "duration": 0.063,
      "velocity": 0.86,
      "hand": "left"
    },
    {
      "midi": 54,
      "time": 11,
      "duration": 0.063,
      "velocity": 0.55,
      "hand": "left"
    },
    {
      "midi": 60,
      "time": 11,
      "duration": 0.063,
      "velocity": 0.72,
      "hand": "right"
    },
    {
      "midi": 65,
      "time": 11,
      "duration": 0.125,
      "velocity": 0.53,
      "hand": "right"
    },
    {
      "midi": 51,
      "time": 11.125,
      "duration": 0.063,
      "velocity": 0.63,
      "hand": "left"
    },
    {
      "midi": 51,
      "time": 11.375,
      "duration": 0.063,
      "velocity": 0.63,
      "hand": "left"
    },
    {
      "midi": 36,
      "time": 11.5,
      "duration": 0.25,
      "velocity": 0.8,
      "hand": "left"
    },
    {
      "midi": 38,
      "time": 11.5,
      "duration": 0.063,
      "velocity": 1,
      "hand": "left"
    },
    {
      "midi": 60,
      "time": 11.5,
      "duration": 0.25,
      "velocity": 0.54,
      "hand": "right"
    },
    {
      "midi": 65,
      "time": 11.5,
      "duration": 0.375,
      "velocity": 0.72,
      "hand": "right"
    },
    {
      "midi": 69,
      "time": 11.5,
      "duration": 0.5,
      "velocity": 0.57,
      "hand": "right"
    },
    {
      "midi": 41,
      "time": 11.75,
      "duration": 0.25,
      "velocity": 0.8,
      "hand": "left"
    },
    {
      "midi": 48,
      "time": 11.75,
      "duration": 0.25,
      "velocity": 0.51,
      "hand": "left"
    },
    {
      "midi": 43,
      "time": 11.875,
      "duration": 0.11,
      "velocity": 0.45,
      "hand": "left"
    },
    {
      "midi": 51,
      "time": 11.875,
      "duration": 0.063,
      "velocity": 0.63,
      "hand": "left"
    },
    {
      "midi": 67,
      "time": 11.875,
      "duration": 0.5,
      "velocity": 0.49,
      "hand": "right"
    },
    {
      "midi": 43,
      "time": 12,
      "duration": 1,
      "velocity": 1,
      "hand": "left"
    },
    {
      "midi": 47,
      "time": 12,
      "duration": 0.063,
      "velocity": 0.93,
      "hand": "left"
    },
    {
      "midi": 60,
      "time": 12,
      "duration": 0.063,
      "velocity": 0.24,
      "hand": "right"
    },
    {
      "midi": 62,
      "time": 12,
      "duration": 0.36,
      "velocity": 0.63,
      "hand": "right"
    },
    {
      "midi": 59,
      "time": 12.25,
      "duration": 0.11,
      "velocity": 0.73,
      "hand": "left"
    },
    {
      "midi": 47,
      "time": 12.375,
      "duration": 0.875,
      "velocity": 0.17,
      "hand": "left"
    },
    {
      "midi": 51,
      "time": 12.375,
      "duration": 0.063,
      "velocity": 0.63,
      "hand": "left"
    },
    {
      "midi": 62,
      "time": 12.375,
      "duration": 0.063,
      "velocity": 0.61,
      "hand": "right"
    },
    {
      "midi": 64,
      "time": 12.375,
      "duration": 0.063,
      "velocity": 0.57,
      "hand": "right"
    },
    {
      "midi": 69,
      "time": 12.375,
      "duration": 0.11,
      "velocity": 0.58,
      "hand": "right"
    },
    {
      "midi": 38,
      "time": 12.5,
      "duration": 0.063,
      "velocity": 0.95,
      "hand": "left"
    },
    {
      "midi": 51,
      "time": 12.5,
      "duration": 0.063,
      "velocity": 0.63,
      "hand": "left"
    },
    {
      "midi": 62,
      "time": 12.5,
      "duration": 0.125,
      "velocity": 0.54,
      "hand": "right"
    },
    {
      "midi": 64,
      "time": 12.5,
      "duration": 0.125,
      "velocity": 0.56,
      "hand": "right"
    },
    {
      "midi": 69,
      "time": 12.5,
      "duration": 0.125,
      "velocity": 0.46,
      "hand": "right"
    },
    {
      "midi": 71,
      "time": 12.5,
      "duration": 0.25,
      "velocity": 0.4,
      "hand": "right"
    },
    {
      "midi": 53,
      "time": 12.75,
      "duration": 0.25,
      "velocity": 0.63,
      "hand": "left"
    },
    {
      "midi": 69,
      "time": 12.75,
      "duration": 0.235,
      "velocity": 0.5,
      "hand": "right"
    },
    {
      "midi": 51,
      "time": 12.875,
      "duration": 0.063,
      "velocity": 0.63,
      "hand": "left"
    },
    {
      "midi": 38,
      "time": 13,
      "duration": 0.25,
      "velocity": 1,
      "hand": "left"
    },
    {
      "midi": 51,
      "time": 13,
      "duration": 0.063,
      "velocity": 0.63,
      "hand": "left"
    },
    {
      "midi": 62,
      "time": 13,
      "duration": 0.235,
      "velocity": 0.72,
      "hand": "right"
    },
    {
      "midi": 65,
      "time": 13,
      "duration": 0.25,
      "velocity": 0.54,
      "hand": "right"
    },
    {
      "midi": 69,
      "time": 13,
      "duration": 0.25,
      "velocity": 0.69,
      "hand": "right"
    },
    {
      "midi": 43,
      "time": 13.25,
      "duration": 0.125,
      "velocity": 0.8,
      "hand": "left"
    },
    {
      "midi": 50,
      "time": 13.25,
      "duration": 0.25,
      "velocity": 0.51,
      "hand": "left"
    },
    {
      "midi": 62,
      "time": 13.25,
      "duration": 0.235,
      "velocity": 0.54,
      "hand": "right"
    },
    {
      "midi": 51,
      "time": 13.375,
      "duration": 0.063,
      "velocity": 0.63,
      "hand": "left"
    },
    {
      "midi": 36,
      "time": 13.5,
      "duration": 0.75,
      "velocity": 0.57,
      "hand": "left"
    },
    {
      "midi": 47,
      "time": 13.5,
      "duration": 0.063,
      "velocity": 0.91,
      "hand": "left"
    },
    {
      "midi": 60,
      "time": 13.5,
      "duration": 0.36,
      "velocity": 0.57,
      "hand": "right"
    },
    {
      "midi": 62,
      "time": 13.5,
      "duration": 0.75,
      "velocity": 0.36,
      "hand": "right"
    },
    {
      "midi": 64,
      "time": 13.5,
      "duration": 0.36,
      "velocity": 0.34,
      "hand": "right"
    },
    {
      "midi": 38,
      "time": 13.75,
      "duration": 0.063,
      "velocity": 1,
      "hand": "left"
    },
    {
      "midi": 51,
      "time": 13.875,
      "duration": 0.063,
      "velocity": 0.63,
      "hand": "left"
    },
    {
      "midi": 55,
      "time": 13.875,
      "duration": 0.11,
      "velocity": 0.56,
      "hand": "left"
    },
    {
      "midi": 60,
      "time": 13.875,
      "duration": 0.063,
      "velocity": 0.68,
      "hand": "right"
    },
    {
      "midi": 64,
      "time": 13.875,
      "duration": 0.11,
      "velocity": 0.52,
      "hand": "right"
    },
    {
      "midi": 38,
      "time": 14,
      "duration": 0.063,
      "velocity": 1,
      "hand": "left"
    },
    {
      "midi": 51,
      "time": 14,
      "duration": 0.063,
      "velocity": 0.63,
      "hand": "left"
    },
    {
      "midi": 60,
      "time": 14,
      "duration": 0.125,
      "velocity": 0.57,
      "hand": "right"
    },
    {
      "midi": 64,
      "time": 14,
      "duration": 0.125,
      "velocity": 0.54,
      "hand": "right"
    },
    {
      "midi": 43,
      "time": 14.25,
      "duration": 0.063,
      "velocity": 1,
      "hand": "left"
    },
    {
      "midi": 51,
      "time": 14.375,
      "duration": 0.063,
      "velocity": 0.63,
      "hand": "left"
    },
    {
      "midi": 45,
      "time": 14.5,
      "duration": 0.063,
      "velocity": 1,
      "hand": "left"
    },
    {
      "midi": 51,
      "time": 14.5,
      "duration": 0.063,
      "velocity": 0.63,
      "hand": "left"
    },
    {
      "midi": 60,
      "time": 14.5,
      "duration": 0.125,
      "velocity": 0.73,
      "hand": "right"
    },
    {
      "midi": 64,
      "time": 14.5,
      "duration": 0.125,
      "velocity": 0.61,
      "hand": "right"
    },
    {
      "midi": 67,
      "time": 14.5,
      "duration": 0.375,
      "velocity": 0.74,
      "hand": "right"
    },
    {
      "midi": 47,
      "time": 14.75,
      "duration": 0.063,
      "velocity": 0.87,
      "hand": "left"
    },
    {
      "midi": 38,
      "time": 14.875,
      "duration": 0.063,
      "velocity": 0.87,
      "hand": "left"
    },
    {
      "midi": 51,
      "time": 14.875,
      "duration": 0.063,
      "velocity": 0.63,
      "hand": "left"
    },
    {
      "midi": 60,
      "time": 14.875,
      "duration": 0.11,
      "velocity": 0.35,
      "hand": "right"
    },
    {
      "midi": 64,
      "time": 14.875,
      "duration": 0.11,
      "velocity": 0.31,
      "hand": "right"
    },
    {
      "midi": 36,
      "time": 15,
      "duration": 1,
      "velocity": 0.98,
      "hand": "left"
    },
    {
      "midi": 47,
      "time": 15,
      "duration": 0.063,
      "velocity": 0.87,
      "hand": "left"
    },
    {
      "midi": 60,
      "time": 15,
      "duration": 0.36,
      "velocity": 0.68,
      "hand": "right"
    },
    {
      "midi": 64,
      "time": 15,
      "duration": 0.36,
      "velocity": 0.56,
      "hand": "right"
    },
    {
      "midi": 67,
      "time": 15,
      "duration": 0.5,
      "velocity": 0.7,
      "hand": "right"
    },
    {
      "midi": 76,
      "time": 15,
      "duration": 0.5,
      "velocity": 0.74,
      "hand": "right"
    },
    {
      "midi": 38,
      "time": 15.25,
      "duration": 0.063,
      "velocity": 1,
      "hand": "left"
    },
    {
      "midi": 38,
      "time": 15.375,
      "duration": 0.063,
      "velocity": 1,
      "hand": "left"
    },
    {
      "midi": 51,
      "time": 15.375,
      "duration": 0.063,
      "velocity": 0.63,
      "hand": "left"
    },
    {
      "midi": 60,
      "time": 15.375,
      "duration": 0.11,
      "velocity": 0.56,
      "hand": "right"
    },
    {
      "midi": 64,
      "time": 15.375,
      "duration": 0.11,
      "velocity": 0.5,
      "hand": "right"
    },
    {
      "midi": 38,
      "time": 15.5,
      "duration": 0.063,
      "velocity": 0.86,
      "hand": "left"
    },
    {
      "midi": 54,
      "time": 15.5,
      "duration": 0.063,
      "velocity": 0.55,
      "hand": "left"
    },
    {
      "midi": 60,
      "time": 15.5,
      "duration": 0.063,
      "velocity": 0.57,
      "hand": "right"
    },
    {
      "midi": 64,
      "time": 15.5,
      "duration": 0.25,
      "velocity": 0.56,
      "hand": "right"
    },
    {
      "midi": 79,
      "time": 15.5,
      "duration": 0.5,
      "velocity": 0.76,
      "hand": "right"
    },
    {
      "midi": 51,
      "time": 15.625,
      "duration": 0.063,
      "velocity": 0.63,
      "hand": "left"
    },
    {
      "midi": 72,
      "time": 15.75,
      "duration": 0.25,
      "velocity": 0.56,
      "hand": "right"
    },
    {
      "midi": 51,
      "time": 15.875,
      "duration": 0.063,
      "velocity": 0.63,
      "hand": "left"
    },
    {
      "midi": 38,
      "time": 16,
      "duration": 0.063,
      "velocity": 1,
      "hand": "left"
    },
    {
      "midi": 43,
      "time": 16,
      "duration": 0.25,
      "velocity": 1,
      "hand": "left"
    },
    {
      "midi": 60,
      "time": 16,
      "duration": 0.375,
      "velocity": 0.69,
      "hand": "right"
    },
    {
      "midi": 64,
      "time": 16,
      "duration": 0.375,
      "velocity": 0.56,
      "hand": "right"
    },
    {
      "midi": 71,
      "time": 16,
      "duration": 0.25,
      "velocity": 0.5,
      "hand": "right"
    },
    {
      "midi": 81,
      "time": 16,
      "duration": 0.375,
      "velocity": 0.72,
      "hand": "right"
    },
    {
      "midi": 36,
      "time": 16.25,
      "duration": 0.25,
      "velocity": 0.8,
      "hand": "left"
    },
    {
      "midi": 69,
      "time": 16.25,
      "duration": 0.25,
      "velocity": 0.42,
      "hand": "right"
    },
    {
      "midi": 51,
      "time": 16.375,
      "duration": 0.063,
      "velocity": 0.63,
      "hand": "left"
    },
    {
      "midi": 43,
      "time": 16.5,
      "duration": 0.875,
      "velocity": 1,
      "hand": "left"
    },
    {
      "midi": 47,
      "time": 16.5,
      "duration": 0.063,
      "velocity": 0.93,
      "hand": "left"
    },
    {
      "midi": 62,
      "time": 16.5,
      "duration": 0.36,
      "velocity": 0.29,
      "hand": "right"
    },
    {
      "midi": 67,
      "time": 16.5,
      "duration": 0.5,
      "velocity": 0.54,
      "hand": "right"
    },
    {
      "midi": 83,
      "time": 16.5,
      "duration": 1.5,
      "velocity": 0.61,
      "hand": "right"
    },
    {
      "midi": 59,
      "time": 16.75,
      "duration": 0.11,
      "velocity": 0.68,
      "hand": "left"
    },
    {
      "midi": 51,
      "time": 16.875,
      "duration": 0.063,
      "velocity": 0.63,
      "hand": "left"
    },
    {
      "midi": 55,
      "time": 16.875,
      "duration": 0.063,
      "velocity": 0.44,
      "hand": "left"
    },
    {
      "midi": 62,
      "time": 16.875,
      "duration": 0.11,
      "velocity": 0.56,
      "hand": "right"
    },
    {
      "midi": 38,
      "time": 17,
      "duration": 0.063,
      "velocity": 0.95,
      "hand": "left"
    },
    {
      "midi": 51,
      "time": 17,
      "duration": 0.063,
      "velocity": 0.63,
      "hand": "left"
    },
    {
      "midi": 62,
      "time": 17,
      "duration": 0.25,
      "velocity": 0.57,
      "hand": "right"
    },
    {
      "midi": 65,
      "time": 17,
      "duration": 0.485,
      "velocity": 0.54,
      "hand": "right"
    },
    {
      "midi": 55,
      "time": 17.25,
      "duration": 0.235,
      "velocity": 0.69,
      "hand": "left"
    },
    {
      "midi": 51,
      "time": 17.375,
      "duration": 0.063,
      "velocity": 0.63,
      "hand": "left"
    },
    {
      "midi": 38,
      "time": 17.5,
      "duration": 0.25,
      "velocity": 1,
      "hand": "left"
    },
    {
      "midi": 51,
      "time": 17.5,
      "duration": 0.063,
      "velocity": 0.63,
      "hand": "left"
    },
    {
      "midi": 62,
      "time": 17.5,
      "duration": 0.375,
      "velocity": 0.51,
      "hand": "right"
    },
    {
      "midi": 65,
      "time": 17.5,
      "duration": 0.375,
      "velocity": 0.72,
      "hand": "right"
    },
    {
      "midi": 67,
      "time": 17.5,
      "duration": 0.25,
      "velocity": 0.51,
      "hand": "right"
    },
    {
      "midi": 69,
      "time": 17.5,
      "duration": 0.375,
      "velocity": 0.57,
      "hand": "right"
    },
    {
      "midi": 47,
      "time": 17.75,
      "duration": 0.235,
      "velocity": 0.96,
      "hand": "left"
    },
    {
      "midi": 50,
      "time": 17.75,
      "duration": 0.25,
      "velocity": 0.56,
      "hand": "left"
    },
    {
      "midi": 51,
      "time": 17.875,
      "duration": 0.063,
      "velocity": 0.63,
      "hand": "left"
    },
    {
      "midi": 43,
      "time": 18,
      "duration": 1.235,
      "velocity": 0.98,
      "hand": "left"
    },
    {
      "midi": 47,
      "time": 18,
      "duration": 0.063,
      "velocity": 0.91,
      "hand": "left"
    },
    {
      "midi": 65,
      "time": 18,
      "duration": 0.36,
      "velocity": 0.72,
      "hand": "right"
    },
    {
      "midi": 69,
      "time": 18,
      "duration": 0.5,
      "velocity": 0.59,
      "hand": "right"
    },
    {
      "midi": 79,
      "time": 18,
      "duration": 0.5,
      "velocity": 0.76,
      "hand": "right"
    },
    {
      "midi": 38,
      "time": 18.25,
      "duration": 0.063,
      "velocity": 1,
      "hand": "left"
    },
    {
      "midi": 62,
      "time": 18.25,
      "duration": 0.11,
      "velocity": 0.72,
      "hand": "right"
    },
    {
      "midi": 38,
      "time": 18.375,
      "duration": 0.063,
      "velocity": 0.97,
      "hand": "left"
    },
    {
      "midi": 51,
      "time": 18.375,
      "duration": 0.063,
      "velocity": 0.63,
      "hand": "left"
    },
    {
      "midi": 62,
      "time": 18.375,
      "duration": 0.11,
      "velocity": 0.54,
      "hand": "right"
    },
    {
      "midi": 65,
      "time": 18.375,
      "duration": 0.11,
      "velocity": 0.53,
      "hand": "right"
    },
    {
      "midi": 38,
      "time": 18.5,
      "duration": 0.485,
      "velocity": 0.87,
      "hand": "left"
    },
    {
      "midi": 51,
      "time": 18.5,
      "duration": 0.063,
      "velocity": 0.63,
      "hand": "left"
    },
    {
      "midi": 62,
      "time": 18.5,
      "duration": 0.063,
      "velocity": 0.57,
      "hand": "right"
    },
    {
      "midi": 65,
      "time": 18.5,
      "duration": 0.25,
      "velocity": 0.56,
      "hand": "right"
    },
    {
      "midi": 83,
      "time": 18.5,
      "duration": 0.5,
      "velocity": 0.76,
      "hand": "right"
    },
    {
      "midi": 55,
      "time": 18.75,
      "duration": 0.235,
      "velocity": 0.58,
      "hand": "left"
    },
    {
      "midi": 72,
      "time": 18.75,
      "duration": 0.25,
      "velocity": 0.55,
      "hand": "right"
    },
    {
      "midi": 51,
      "time": 18.875,
      "duration": 0.063,
      "velocity": 0.63,
      "hand": "left"
    },
    {
      "midi": 38,
      "time": 19,
      "duration": 0.063,
      "velocity": 1,
      "hand": "left"
    },
    {
      "midi": 47,
      "time": 19,
      "duration": 0.25,
      "velocity": 0.97,
      "hand": "left"
    },
    {
      "midi": 62,
      "time": 19,
      "duration": 0.375,
      "velocity": 0.55,
      "hand": "right"
    },
    {
      "midi": 65,
      "time": 19,
      "duration": 0.375,
      "velocity": 0.72,
      "hand": "right"
    },
    {
      "midi": 71,
      "time": 19,
      "duration": 0.25,
      "velocity": 0.52,
      "hand": "right"
    },
    {
      "midi": 74,
      "time": 19,
      "duration": 0.5,
      "velocity": 0.72,
      "hand": "right"
    },
    {
      "midi": 43,
      "time": 19.25,
      "duration": 0.25,
      "velocity": 0.96,
      "hand": "left"
    },
    {
      "midi": 50,
      "time": 19.25,
      "duration": 0.25,
      "velocity": 0.46,
      "hand": "left"
    },
    {
      "midi": 69,
      "time": 19.25,
      "duration": 0.25,
      "velocity": 0.52,
      "hand": "right"
    },
    {
      "midi": 51,
      "time": 19.375,
      "duration": 0.063,
      "velocity": 0.63,
      "hand": "left"
    },
    {
      "midi": 59,
      "time": 19.375,
      "duration": 0.125,
      "velocity": 0.42,
      "hand": "left"
    },
    {
      "midi": 36,
      "time": 19.5,
      "duration": 1.25,
      "velocity": 0.95,
      "hand": "left"
    },
    {
      "midi": 47,
      "time": 19.5,
      "duration": 0.063,
      "velocity": 0.89,
      "hand": "left"
    },
    {
      "midi": 62,
      "time": 19.5,
      "duration": 0.063,
      "velocity": 0.22,
      "hand": "right"
    },
    {
      "midi": 64,
      "time": 19.5,
      "duration": 0.36,
      "velocity": 0.58,
      "hand": "right"
    },
    {
      "midi": 67,
      "time": 19.5,
      "duration": 0.875,
      "velocity": 0.57,
      "hand": "right"
    },
    {
      "midi": 76,
      "time": 19.5,
      "duration": 1.375,
      "velocity": 0.72,
      "hand": "right"
    },
    {
      "midi": 60,
      "time": 19.75,
      "duration": 0.11,
      "velocity": 0.75,
      "hand": "right"
    },
    {
      "midi": 51,
      "time": 19.875,
      "duration": 0.063,
      "velocity": 0.63,
      "hand": "left"
    },
    {
      "midi": 55,
      "time": 19.875,
      "duration": 0.11,
      "velocity": 0.55,
      "hand": "left"
    },
    {
      "midi": 60,
      "time": 19.875,
      "duration": 0.063,
      "velocity": 0.61,
      "hand": "right"
    },
    {
      "midi": 64,
      "time": 19.875,
      "duration": 0.11,
      "velocity": 0.47,
      "hand": "right"
    },
    {
      "midi": 38,
      "time": 20,
      "duration": 0.063,
      "velocity": 1,
      "hand": "left"
    },
    {
      "midi": 40,
      "time": 20,
      "duration": 0.75,
      "velocity": 0.28,
      "hand": "left"
    },
    {
      "midi": 60,
      "time": 20,
      "duration": 0.063,
      "velocity": 0.65,
      "hand": "right"
    },
    {
      "midi": 64,
      "time": 20,
      "duration": 0.125,
      "velocity": 0.55,
      "hand": "right"
    },
    {
      "midi": 55,
      "time": 20.25,
      "duration": 0.235,
      "velocity": 0.5,
      "hand": "left"
    },
    {
      "midi": 51,
      "time": 20.375,
      "duration": 0.063,
      "velocity": 0.63,
      "hand": "left"
    },
    {
      "midi": 38,
      "time": 20.5,
      "duration": 0.063,
      "velocity": 1,
      "hand": "left"
    },
    {
      "midi": 43,
      "time": 20.5,
      "duration": 0.235,
      "velocity": 1,
      "hand": "left"
    },
    {
      "midi": 60,
      "time": 20.5,
      "duration": 0.25,
      "velocity": 0.57,
      "hand": "right"
    },
    {
      "midi": 64,
      "time": 20.5,
      "duration": 0.25,
      "velocity": 0.69,
      "hand": "right"
    },
    {
      "midi": 67,
      "time": 20.5,
      "duration": 0.375,
      "velocity": 0.57,
      "hand": "right"
    },
    {
      "midi": 43,
      "time": 20.75,
      "duration": 0.25,
      "velocity": 0.48,
      "hand": "left"
    },
    {
      "midi": 55,
      "time": 20.75,
      "duration": 0.125,
      "velocity": 0.61,
      "hand": "left"
    },
    {
      "midi": 51,
      "time": 20.875,
      "duration": 0.063,
      "velocity": 0.63,
      "hand": "left"
    },
    {
      "midi": 72,
      "time": 20.875,
      "duration": 0.75,
      "velocity": 0.72,
      "hand": "right"
    },
    {
      "midi": 36,
      "time": 21,
      "duration": 1,
      "velocity": 0.97,
      "hand": "left"
    },
    {
      "midi": 47,
      "time": 21,
      "duration": 0.063,
      "velocity": 0.97,
      "hand": "left"
    },
    {
      "midi": 60,
      "time": 21,
      "duration": 0.36,
      "velocity": 0.75,
      "hand": "right"
    },
    {
      "midi": 65,
      "time": 21,
      "duration": 0.875,
      "velocity": 0.72,
      "hand": "right"
    },
    {
      "midi": 77,
      "time": 21,
      "duration": 0.5,
      "velocity": 0.73,
      "hand": "right"
    },
    {
      "midi": 38,
      "time": 21.25,
      "duration": 0.063,
      "velocity": 1,
      "hand": "left"
    },
    {
      "midi": 38,
      "time": 21.375,
      "duration": 0.063,
      "velocity": 0.91,
      "hand": "left"
    },
    {
      "midi": 51,
      "time": 21.375,
      "duration": 0.063,
      "velocity": 0.63,
      "hand": "left"
    },
    {
      "midi": 60,
      "time": 21.375,
      "duration": 0.063,
      "velocity": 0.61,
      "hand": "right"
    },
    {
      "midi": 64,
      "time": 21.375,
      "duration": 0.063,
      "velocity": 0.51,
      "hand": "right"
    },
    {
      "midi": 38,
      "time": 21.5,
      "duration": 0.063,
      "velocity": 0.85,
      "hand": "left"
    },
    {
      "midi": 51,
      "time": 21.5,
      "duration": 0.063,
      "velocity": 0.63,
      "hand": "left"
    },
    {
      "midi": 60,
      "time": 21.5,
      "duration": 0.375,
      "velocity": 0.69,
      "hand": "right"
    },
    {
      "midi": 64,
      "time": 21.5,
      "duration": 0.375,
      "velocity": 0.72,
      "hand": "right"
    },
    {
      "midi": 76,
      "time": 21.5,
      "duration": 0.5,
      "velocity": 0.63,
      "hand": "right"
    },
    {
      "midi": 72,
      "time": 21.75,
      "duration": 0.25,
      "velocity": 0.63,
      "hand": "right"
    },
    {
      "midi": 51,
      "time": 21.875,
      "duration": 0.063,
      "velocity": 0.63,
      "hand": "left"
    },
    {
      "midi": 38,
      "time": 22,
      "duration": 0.063,
      "velocity": 1,
      "hand": "left"
    },
    {
      "midi": 43,
      "time": 22,
      "duration": 0.25,
      "velocity": 1,
      "hand": "left"
    },
    {
      "midi": 60,
      "time": 22,
      "duration": 0.375,
      "velocity": 0.74,
      "hand": "right"
    },
    {
      "midi": 64,
      "time": 22,
      "duration": 0.485,
      "velocity": 0.7,
      "hand": "right"
    },
    {
      "midi": 74,
      "time": 22,
      "duration": 0.5,
      "velocity": 0.72,
      "hand": "right"
    },
    {
      "midi": 36,
      "time": 22.25,
      "duration": 0.25,
      "velocity": 0.84,
      "hand": "left"
    },
    {
      "midi": 72,
      "time": 22.25,
      "duration": 0.25,
      "velocity": 0.52,
      "hand": "right"
    },
    {
      "midi": 51,
      "time": 22.375,
      "duration": 0.063,
      "velocity": 0.63,
      "hand": "left"
    },
    {
      "midi": 41,
      "time": 22.5,
      "duration": 1.235,
      "velocity": 0.99,
      "hand": "left"
    },
    {
      "midi": 47,
      "time": 22.5,
      "duration": 0.063,
      "velocity": 0.89,
      "hand": "left"
    },
    {
      "midi": 60,
      "time": 22.5,
      "duration": 0.36,
      "velocity": 0.65,
      "hand": "right"
    },
    {
      "midi": 64,
      "time": 22.5,
      "duration": 0.875,
      "velocity": 0.54,
      "hand": "right"
    },
    {
      "midi": 71,
      "time": 22.5,
      "duration": 0.5,
      "velocity": 0.54,
      "hand": "right"
    },
    {
      "midi": 84,
      "time": 22.5,
      "duration": 1,
      "velocity": 0.7,
      "hand": "right"
    },
    {
      "midi": 45,
      "time": 22.875,
      "duration": 0.75,
      "velocity": 0.5,
      "hand": "left"
    },
    {
      "midi": 51,
      "time": 22.875,
      "duration": 0.063,
      "velocity": 0.63,
      "hand": "left"
    },
    {
      "midi": 60,
      "time": 22.875,
      "duration": 0.063,
      "velocity": 0.69,
      "hand": "right"
    },
    {
      "midi": 65,
      "time": 22.875,
      "duration": 0.11,
      "velocity": 0.56,
      "hand": "right"
    },
    {
      "midi": 69,
      "time": 22.875,
      "duration": 0.375,
      "velocity": 0.5,
      "hand": "right"
    },
    {
      "midi": 38,
      "time": 23,
      "duration": 0.063,
      "velocity": 0.99,
      "hand": "left"
    },
    {
      "midi": 51,
      "time": 23,
      "duration": 0.063,
      "velocity": 0.63,
      "hand": "left"
    },
    {
      "midi": 60,
      "time": 23,
      "duration": 0.063,
      "velocity": 0.72,
      "hand": "right"
    },
    {
      "midi": 65,
      "time": 23,
      "duration": 0.125,
      "velocity": 0.53,
      "hand": "right"
    },
    {
      "midi": 51,
      "time": 23.375,
      "duration": 0.063,
      "velocity": 0.63,
      "hand": "left"
    },
    {
      "midi": 36,
      "time": 23.5,
      "duration": 0.25,
      "velocity": 0.8,
      "hand": "left"
    },
    {
      "midi": 38,
      "time": 23.5,
      "duration": 0.063,
      "velocity": 1,
      "hand": "left"
    },
    {
      "midi": 65,
      "time": 23.5,
      "duration": 0.375,
      "velocity": 0.72,
      "hand": "right"
    },
    {
      "midi": 69,
      "time": 23.5,
      "duration": 0.5,
      "velocity": 0.57,
      "hand": "right"
    },
    {
      "midi": 81,
      "time": 23.5,
      "duration": 0.5,
      "velocity": 0.74,
      "hand": "right"
    },
    {
      "midi": 41,
      "time": 23.75,
      "duration": 0.25,
      "velocity": 0.8,
      "hand": "left"
    },
    {
      "midi": 48,
      "time": 23.75,
      "duration": 0.25,
      "velocity": 0.51,
      "hand": "left"
    },
    {
      "midi": 43,
      "time": 23.875,
      "duration": 0.11,
      "velocity": 0.45,
      "hand": "left"
    },
    {
      "midi": 51,
      "time": 23.875,
      "duration": 0.063,
      "velocity": 0.63,
      "hand": "left"
    },
    {
      "midi": 62,
      "time": 23.875,
      "duration": 0.11,
      "velocity": 0.23,
      "hand": "right"
    },
    {
      "midi": 67,
      "time": 23.875,
      "duration": 0.5,
      "velocity": 0.49,
      "hand": "right"
    },
    {
      "midi": 43,
      "time": 24,
      "duration": 1,
      "velocity": 1,
      "hand": "left"
    },
    {
      "midi": 47,
      "time": 24,
      "duration": 0.063,
      "velocity": 0.87,
      "hand": "left"
    },
    {
      "midi": 60,
      "time": 24,
      "duration": 0.063,
      "velocity": 0.24,
      "hand": "right"
    },
    {
      "midi": 62,
      "time": 24,
      "duration": 0.36,
      "velocity": 0.63,
      "hand": "right"
    },
    {
      "midi": 83,
      "time": 24,
      "duration": 0.5,
      "velocity": 0.74,
      "hand": "right"
    },
    {
      "midi": 38,
      "time": 24.25,
      "duration": 0.063,
      "velocity": 1,
      "hand": "left"
    },
    {
      "midi": 59,
      "time": 24.25,
      "duration": 0.11,
      "velocity": 0.73,
      "hand": "left"
    },
    {
      "midi": 38,
      "time": 24.375,
      "duration": 0.063,
      "velocity": 1,
      "hand": "left"
    },
    {
      "midi": 47,
      "time": 24.375,
      "duration": 0.875,
      "velocity": 0.17,
      "hand": "left"
    },
    {
      "midi": 62,
      "time": 24.375,
      "duration": 0.063,
      "velocity": 0.61,
      "hand": "right"
    },
    {
      "midi": 64,
      "time": 24.375,
      "duration": 0.063,
      "velocity": 0.57,
      "hand": "right"
    },
    {
      "midi": 69,
      "time": 24.375,
      "duration": 0.11,
      "velocity": 0.58,
      "hand": "right"
    },
    {
      "midi": 84,
      "time": 24.375,
      "duration": 0.5,
      "velocity": 0.61,
      "hand": "right"
    },
    {
      "midi": 38,
      "time": 24.5,
      "duration": 0.063,
      "velocity": 0.86,
      "hand": "left"
    },
    {
      "midi": 54,
      "time": 24.5,
      "duration": 0.063,
      "velocity": 0.55,
      "hand": "left"
    },
    {
      "midi": 62,
      "time": 24.5,
      "duration": 0.125,
      "velocity": 0.54,
      "hand": "right"
    },
    {
      "midi": 64,
      "time": 24.5,
      "duration": 0.125,
      "velocity": 0.56,
      "hand": "right"
    },
    {
      "midi": 69,
      "time": 24.5,
      "duration": 0.125,
      "velocity": 0.46,
      "hand": "right"
    },
    {
      "midi": 71,
      "time": 24.5,
      "duration": 0.25,
      "velocity": 0.4,
      "hand": "right"
    },
    {
      "midi": 51,
      "time": 24.625,
      "duration": 0.063,
      "velocity": 0.63,
      "hand": "left"
    },
    {
      "midi": 53,
      "time": 24.75,
      "duration": 0.25,
      "velocity": 0.63,
      "hand": "left"
    },
    {
      "midi": 69,
      "time": 24.75,
      "duration": 0.235,
      "velocity": 0.5,
      "hand": "right"
    },
    {
      "midi": 51,
      "time": 24.875,
      "duration": 0.063,
      "velocity": 0.63,
      "hand": "left"
    },
    {
      "midi": 38,
      "time": 25,
      "duration": 0.25,
      "velocity": 1,
      "hand": "left"
    },
    {
      "midi": 51,
      "time": 25,
      "duration": 0.063,
      "velocity": 0.63,
      "hand": "left"
    },
    {
      "midi": 65,
      "time": 25,
      "duration": 0.25,
      "velocity": 0.54,
      "hand": "right"
    },
    {
      "midi": 69,
      "time": 25,
      "duration": 0.25,
      "velocity": 0.69,
      "hand": "right"
    },
    {
      "midi": 74,
      "time": 25,
      "duration": 0.5,
      "velocity": 0.57,
      "hand": "right"
    },
    {
      "midi": 43,
      "time": 25.25,
      "duration": 0.125,
      "velocity": 0.8,
      "hand": "left"
    },
    {
      "midi": 50,
      "time": 25.25,
      "duration": 0.25,
      "velocity": 0.51,
      "hand": "left"
    },
    {
      "midi": 62,
      "time": 25.25,
      "duration": 0.235,
      "velocity": 0.54,
      "hand": "right"
    },
    {
      "midi": 51,
      "time": 25.375,
      "duration": 0.063,
      "velocity": 0.63,
      "hand": "left"
    },
    {
      "midi": 36,
      "time": 25.5,
      "duration": 0.75,
      "velocity": 0.57,
      "hand": "left"
    },
    {
      "midi": 47,
      "time": 25.5,
      "duration": 0.063,
      "velocity": 0.93,
      "hand": "left"
    },
    {
      "midi": 60,
      "time": 25.5,
      "duration": 0.36,
      "velocity": 0.57,
      "hand": "right"
    },
    {
      "midi": 62,
      "time": 25.5,
      "duration": 0.75,
      "velocity": 0.36,
      "hand": "right"
    },
    {
      "midi": 64,
      "time": 25.5,
      "duration": 0.36,
      "velocity": 0.35,
      "hand": "right"
    },
    {
      "midi": 84,
      "time": 25.5,
      "duration": 1.25,
      "velocity": 0.56,
      "hand": "right"
    },
    {
      "midi": 38,
      "time": 25.875,
      "duration": 0.063,
      "velocity": 0.95,
      "hand": "left"
    },
    {
      "midi": 51,
      "time": 25.875,
      "duration": 0.063,
      "velocity": 0.63,
      "hand": "left"
    },
    {
      "midi": 60,
      "time": 25.875,
      "duration": 0.063,
      "velocity": 0.68,
      "hand": "right"
    },
    {
      "midi": 64,
      "time": 25.875,
      "duration": 0.11,
      "velocity": 0.52,
      "hand": "right"
    },
    {
      "midi": 38,
      "time": 26,
      "duration": 0.063,
      "velocity": 0.95,
      "hand": "left"
    },
    {
      "midi": 51,
      "time": 26,
      "duration": 0.063,
      "velocity": 0.63,
      "hand": "left"
    },
    {
      "midi": 60,
      "time": 26,
      "duration": 0.125,
      "velocity": 0.57,
      "hand": "right"
    },
    {
      "midi": 64,
      "time": 26,
      "duration": 0.125,
      "velocity": 0.54,
      "hand": "right"
    },
    {
      "midi": 50,
      "time": 26.125,
      "duration": 0.063,
      "velocity": 0.55,
      "hand": "left"
    },
    {
      "midi": 51,
      "time": 26.375,
      "duration": 0.063,
      "velocity": 0.63,
      "hand": "left"
    },
    {
      "midi": 47,
      "time": 26.5,
      "duration": 0.063,
      "velocity": 0.64,
      "hand": "left"
    },
    {
      "midi": 51,
      "time": 26.5,
      "duration": 0.063,
      "velocity": 0.63,
      "hand": "left"
    },
    {
      "midi": 60,
      "time": 26.5,
      "duration": 0.125,
      "velocity": 0.73,
      "hand": "right"
    },
    {
      "midi": 64,
      "time": 26.5,
      "duration": 0.125,
      "velocity": 0.61,
      "hand": "right"
    },
    {
      "midi": 67,
      "time": 26.5,
      "duration": 0.485,
      "velocity": 0.79,
      "hand": "right"
    },
    {
      "midi": 43,
      "time": 26.75,
      "duration": 0.063,
      "velocity": 0.72,
      "hand": "left"
    },
    {
      "midi": 51,
      "time": 26.875,
      "duration": 0.063,
      "velocity": 0.63,
      "hand": "left"
    },
    {
      "midi": 55,
      "time": 26.875,
      "duration": 0.11,
      "velocity": 0.43,
      "hand": "left"
    },
    {
      "midi": 36,
      "time": 27,
      "duration": 1,
      "velocity": 0.98,
      "hand": "left"
    },
    {
      "midi": 47,
      "time": 27,
      "duration": 0.063,
      "velocity": 0.93,
      "hand": "left"
    },
    {
      "midi": 60,
      "time": 27,
      "duration": 0.36,
      "velocity": 0.68,
      "hand": "right"
    },
    {
      "midi": 64,
      "time": 27,
      "duration": 0.36,
      "velocity": 0.56,
      "hand": "right"
    },
    {
      "midi": 67,
      "time": 27,
      "duration": 0.5,
      "velocity": 0.7,
      "hand": "right"
    },
    {
      "midi": 51,
      "time": 27.375,
      "duration": 0.063,
      "velocity": 0.63,
      "hand": "left"
    },
    {
      "midi": 55,
      "time": 27.375,
      "duration": 0.11,
      "velocity": 0.5,
      "hand": "left"
    },
    {
      "midi": 60,
      "time": 27.375,
      "duration": 0.11,
      "velocity": 0.56,
      "hand": "right"
    },
    {
      "midi": 64,
      "time": 27.375,
      "duration": 0.11,
      "velocity": 0.5,
      "hand": "right"
    },
    {
      "midi": 38,
      "time": 27.5,
      "duration": 0.063,
      "velocity": 0.95,
      "hand": "left"
    },
    {
      "midi": 51,
      "time": 27.5,
      "duration": 0.063,
      "velocity": 0.63,
      "hand": "left"
    },
    {
      "midi": 60,
      "time": 27.5,
      "duration": 0.063,
      "velocity": 0.57,
      "hand": "right"
    },
    {
      "midi": 64,
      "time": 27.5,
      "duration": 0.25,
      "velocity": 0.56,
      "hand": "right"
    },
    {
      "midi": 72,
      "time": 27.75,
      "duration": 0.25,
      "velocity": 0.56,
      "hand": "right"
    },
    {
      "midi": 51,
      "time": 27.875,
      "duration": 0.063,
      "velocity": 0.63,
      "hand": "left"
    },
    {
      "midi": 38,
      "time": 28,
      "duration": 0.063,
      "velocity": 1,
      "hand": "left"
    },
    {
      "midi": 43,
      "time": 28,
      "duration": 0.25,
      "velocity": 1,
      "hand": "left"
    },
    {
      "midi": 60,
      "time": 28,
      "duration": 0.375,
      "velocity": 0.69,
      "hand": "right"
    },
    {
      "midi": 64,
      "time": 28,
      "duration": 0.375,
      "velocity": 0.56,
      "hand": "right"
    },
    {
      "midi": 71,
      "time": 28,
      "duration": 0.25,
      "velocity": 0.5,
      "hand": "right"
    },
    {
      "midi": 36,
      "time": 28.25,
      "duration": 0.25,
      "velocity": 0.8,
      "hand": "left"
    },
    {
      "midi": 69,
      "time": 28.25,
      "duration": 0.25,
      "velocity": 0.42,
      "hand": "right"
    },
    {
      "midi": 51,
      "time": 28.375,
      "duration": 0.063,
      "velocity": 0.63,
      "hand": "left"
    },
    {
      "midi": 62,
      "time": 28.375,
      "duration": 0.11,
      "velocity": 0.42,
      "hand": "right"
    },
    {
      "midi": 43,
      "time": 28.5,
      "duration": 0.875,
      "velocity": 1,
      "hand": "left"
    },
    {
      "midi": 47,
      "time": 28.5,
      "duration": 0.063,
      "velocity": 0.91,
      "hand": "left"
    },
    {
      "midi": 62,
      "time": 28.5,
      "duration": 0.36,
      "velocity": 0.53,
      "hand": "right"
    },
    {
      "midi": 67,
      "time": 28.5,
      "duration": 0.5,
      "velocity": 0.54,
      "hand": "right"
    },
    {
      "midi": 38,
      "time": 28.75,
      "duration": 0.063,
      "velocity": 1,
      "hand": "left"
    },
    {
      "midi": 59,
      "time": 28.75,
      "duration": 0.11,
      "velocity": 0.68,
      "hand": "left"
    },
    {
      "midi": 38,
      "time": 28.875,
      "duration": 0.063,
      "velocity": 0.97,
      "hand": "left"
    },
    {
      "midi": 51,
      "time": 28.875,
      "duration": 0.063,
      "velocity": 0.63,
      "hand": "left"
    },
    {
      "midi": 62,
      "time": 28.875,
      "duration": 0.11,
      "velocity": 0.56,
      "hand": "right"
    },
    {
      "midi": 38,
      "time": 29,
      "duration": 0.063,
      "velocity": 0.8,
      "hand": "left"
    },
    {
      "midi": 51,
      "time": 29,
      "duration": 0.063,
      "velocity": 0.63,
      "hand": "left"
    },
    {
      "midi": 62,
      "time": 29,
      "duration": 0.25,
      "velocity": 0.57,
      "hand": "right"
    },
    {
      "midi": 65,
      "time": 29,
      "duration": 0.485,
      "velocity": 0.54,
      "hand": "right"
    },
    {
      "midi": 55,
      "time": 29.25,
      "duration": 0.235,
      "velocity": 0.69,
      "hand": "left"
    },
    {
      "midi": 51,
      "time": 29.375,
      "duration": 0.063,
      "velocity": 0.63,
      "hand": "left"
    },
    {
      "midi": 38,
      "time": 29.5,
      "duration": 0.25,
      "velocity": 1,
      "hand": "left"
    },
    {
      "midi": 51,
      "time": 29.5,
      "duration": 0.063,
      "velocity": 0.63,
      "hand": "left"
    },
    {
      "midi": 62,
      "time": 29.5,
      "duration": 0.375,
      "velocity": 0.51,
      "hand": "right"
    },
    {
      "midi": 65,
      "time": 29.5,
      "duration": 0.375,
      "velocity": 0.72,
      "hand": "right"
    },
    {
      "midi": 67,
      "time": 29.5,
      "duration": 0.25,
      "velocity": 0.51,
      "hand": "right"
    },
    {
      "midi": 69,
      "time": 29.5,
      "duration": 0.375,
      "velocity": 0.57,
      "hand": "right"
    },
    {
      "midi": 47,
      "time": 29.75,
      "duration": 0.235,
      "velocity": 0.96,
      "hand": "left"
    },
    {
      "midi": 50,
      "time": 29.75,
      "duration": 0.25,
      "velocity": 0.56,
      "hand": "left"
    },
    {
      "midi": 51,
      "time": 29.875,
      "duration": 0.063,
      "velocity": 0.63,
      "hand": "left"
    },
    {
      "midi": 43,
      "time": 30,
      "duration": 1.235,
      "velocity": 0.98,
      "hand": "left"
    },
    {
      "midi": 47,
      "time": 30,
      "duration": 0.063,
      "velocity": 0.89,
      "hand": "left"
    },
    {
      "midi": 65,
      "time": 30,
      "duration": 0.36,
      "velocity": 0.72,
      "hand": "right"
    },
    {
      "midi": 69,
      "time": 30,
      "duration": 0.5,
      "velocity": 0.59,
      "hand": "right"
    },
    {
      "midi": 62,
      "time": 30.25,
      "duration": 0.11,
      "velocity": 0.72,
      "hand": "right"
    },
    {
      "midi": 51,
      "time": 30.375,
      "duration": 0.063,
      "velocity": 0.63,
      "hand": "left"
    },
    {
      "midi": 55,
      "time": 30.375,
      "duration": 0.11,
      "velocity": 0.53,
      "hand": "left"
    },
    {
      "midi": 62,
      "time": 30.375,
      "duration": 0.11,
      "velocity": 0.54,
      "hand": "right"
    },
    {
      "midi": 65,
      "time": 30.375,
      "duration": 0.11,
      "velocity": 0.53,
      "hand": "right"
    },
    {
      "midi": 38,
      "time": 30.5,
      "duration": 0.485,
      "velocity": 1,
      "hand": "left"
    },
    {
      "midi": 51,
      "time": 30.5,
      "duration": 0.063,
      "velocity": 0.63,
      "hand": "left"
    },
    {
      "midi": 62,
      "time": 30.5,
      "duration": 0.063,
      "velocity": 0.57,
      "hand": "right"
    },
    {
      "midi": 65,
      "time": 30.5,
      "duration": 0.25,
      "velocity": 0.56,
      "hand": "right"
    },
    {
      "midi": 55,
      "time": 30.75,
      "duration": 0.235,
      "velocity": 0.58,
      "hand": "left"
    },
    {
      "midi": 72,
      "time": 30.75,
      "duration": 0.25,
      "velocity": 0.55,
      "hand": "right"
    },
    {
      "midi": 51,
      "time": 30.875,
      "duration": 0.063,
      "velocity": 0.63,
      "hand": "left"
    },
    {
      "midi": 38,
      "time": 31,
      "duration": 0.063,
      "velocity": 1,
      "hand": "left"
    },
    {
      "midi": 47,
      "time": 31,
      "duration": 0.25,
      "velocity": 0.97,
      "hand": "left"
    },
    {
      "midi": 62,
      "time": 31,
      "duration": 0.375,
      "velocity": 0.55,
      "hand": "right"
    },
    {
      "midi": 65,
      "time": 31,
      "duration": 0.375,
      "velocity": 0.72,
      "hand": "right"
    },
    {
      "midi": 71,
      "time": 31,
      "duration": 0.25,
      "velocity": 0.52,
      "hand": "right"
    },
    {
      "midi": 43,
      "time": 31.25,
      "duration": 0.25,
      "velocity": 0.96,
      "hand": "left"
    },
    {
      "midi": 50,
      "time": 31.25,
      "duration": 0.25,
      "velocity": 0.46,
      "hand": "left"
    },
    {
      "midi": 69,
      "time": 31.25,
      "duration": 0.25,
      "velocity": 0.52,
      "hand": "right"
    },
    {
      "midi": 51,
      "time": 31.375,
      "duration": 0.063,
      "velocity": 0.63,
      "hand": "left"
    },
    {
      "midi": 59,
      "time": 31.375,
      "duration": 0.125,
      "velocity": 0.42,
      "hand": "left"
    },
    {
      "midi": 36,
      "time": 31.5,
      "duration": 1.25,
      "velocity": 0.95,
      "hand": "left"
    },
    {
      "midi": 47,
      "time": 31.5,
      "duration": 0.063,
      "velocity": 0.97,
      "hand": "left"
    },
    {
      "midi": 60,
      "time": 31.5,
      "duration": 0.235,
      "velocity": 0.52,
      "hand": "right"
    },
    {
      "midi": 62,
      "time": 31.5,
      "duration": 0.063,
      "velocity": 0.22,
      "hand": "right"
    },
    {
      "midi": 64,
      "time": 31.5,
      "duration": 0.36,
      "velocity": 0.58,
      "hand": "right"
    },
    {
      "midi": 67,
      "time": 31.5,
      "duration": 0.875,
      "velocity": 0.57,
      "hand": "right"
    },
    {
      "midi": 38,
      "time": 31.75,
      "duration": 0.063,
      "velocity": 1,
      "hand": "left"
    },
    {
      "midi": 60,
      "time": 31.75,
      "duration": 0.11,
      "velocity": 0.75,
      "hand": "right"
    },
    {
      "midi": 38,
      "time": 31.875,
      "duration": 0.063,
      "velocity": 0.91,
      "hand": "left"
    },
    {
      "midi": 51,
      "time": 31.875,
      "duration": 0.063,
      "velocity": 0.63,
      "hand": "left"
    },
    {
      "midi": 60,
      "time": 31.875,
      "duration": 0.063,
      "velocity": 0.61,
      "hand": "right"
    },
    {
      "midi": 64,
      "time": 31.875,
      "duration": 0.11,
      "velocity": 0.47,
      "hand": "right"
    },
    {
      "midi": 38,
      "time": 32,
      "duration": 0.063,
      "velocity": 0.85,
      "hand": "left"
    },
    {
      "midi": 40,
      "time": 32,
      "duration": 0.75,
      "velocity": 0.28,
      "hand": "left"
    },
    {
      "midi": 60,
      "time": 32,
      "duration": 0.063,
      "velocity": 0.65,
      "hand": "right"
    },
    {
      "midi": 64,
      "time": 32,
      "duration": 0.125,
      "velocity": 0.55,
      "hand": "right"
    },
    {
      "midi": 55,
      "time": 32.25,
      "duration": 0.235,
      "velocity": 0.5,
      "hand": "left"
    },
    {
      "midi": 51,
      "time": 32.375,
      "duration": 0.063,
      "velocity": 0.63,
      "hand": "left"
    },
    {
      "midi": 38,
      "time": 32.5,
      "duration": 0.063,
      "velocity": 1,
      "hand": "left"
    },
    {
      "midi": 43,
      "time": 32.5,
      "duration": 0.235,
      "velocity": 1,
      "hand": "left"
    },
    {
      "midi": 60,
      "time": 32.5,
      "duration": 0.25,
      "velocity": 0.57,
      "hand": "right"
    },
    {
      "midi": 64,
      "time": 32.5,
      "duration": 0.25,
      "velocity": 0.69,
      "hand": "right"
    },
    {
      "midi": 67,
      "time": 32.5,
      "duration": 0.375,
      "velocity": 0.57,
      "hand": "right"
    },
    {
      "midi": 43,
      "time": 32.75,
      "duration": 0.25,
      "velocity": 0.48,
      "hand": "left"
    },
    {
      "midi": 55,
      "time": 32.75,
      "duration": 0.125,
      "velocity": 0.61,
      "hand": "left"
    },
    {
      "midi": 51,
      "time": 32.875,
      "duration": 0.063,
      "velocity": 0.63,
      "hand": "left"
    },
    {
      "midi": 72,
      "time": 32.875,
      "duration": 0.75,
      "velocity": 0.72,
      "hand": "right"
    },
    {
      "midi": 36,
      "time": 33,
      "duration": 1,
      "velocity": 0.97,
      "hand": "left"
    },
    {
      "midi": 47,
      "time": 33,
      "duration": 0.063,
      "velocity": 0.89,
      "hand": "left"
    },
    {
      "midi": 60,
      "time": 33,
      "duration": 0.36,
      "velocity": 0.75,
      "hand": "right"
    },
    {
      "midi": 65,
      "time": 33,
      "duration": 0.875,
      "velocity": 0.72,
      "hand": "right"
    },
    {
      "midi": 51,
      "time": 33.375,
      "duration": 0.063,
      "velocity": 0.63,
      "hand": "left"
    },
    {
      "midi": 55,
      "time": 33.375,
      "duration": 0.11,
      "velocity": 0.53,
      "hand": "left"
    },
    {
      "midi": 60,
      "time": 33.375,
      "duration": 0.063,
      "velocity": 0.61,
      "hand": "right"
    },
    {
      "midi": 64,
      "time": 33.375,
      "duration": 0.063,
      "velocity": 0.51,
      "hand": "right"
    },
    {
      "midi": 38,
      "time": 33.5,
      "duration": 0.063,
      "velocity": 0.99,
      "hand": "left"
    },
    {
      "midi": 51,
      "time": 33.5,
      "duration": 0.063,
      "velocity": 0.63,
      "hand": "left"
    },
    {
      "midi": 60,
      "time": 33.5,
      "duration": 0.375,
      "velocity": 0.69,
      "hand": "right"
    },
    {
      "midi": 64,
      "time": 33.5,
      "duration": 0.375,
      "velocity": 0.72,
      "hand": "right"
    },
    {
      "midi": 72,
      "time": 33.75,
      "duration": 0.25,
      "velocity": 0.63,
      "hand": "right"
    },
    {
      "midi": 51,
      "time": 33.875,
      "duration": 0.063,
      "velocity": 0.63,
      "hand": "left"
    },
    {
      "midi": 38,
      "time": 34,
      "duration": 0.063,
      "velocity": 1,
      "hand": "left"
    },
    {
      "midi": 43,
      "time": 34,
      "duration": 0.25,
      "velocity": 1,
      "hand": "left"
    },
    {
      "midi": 60,
      "time": 34,
      "duration": 0.36,
      "velocity": 0.74,
      "hand": "right"
    },
    {
      "midi": 64,
      "time": 34,
      "duration": 0.375,
      "velocity": 0.7,
      "hand": "right"
    },
    {
      "midi": 74,
      "time": 34,
      "duration": 0.25,
      "velocity": 0.56,
      "hand": "right"
    },
    {
      "midi": 36,
      "time": 34.25,
      "duration": 0.25,
      "velocity": 0.84,
      "hand": "left"
    },
    {
      "midi": 72,
      "time": 34.25,
      "duration": 0.25,
      "velocity": 0.52,
      "hand": "right"
    },
    {
      "midi": 51,
      "time": 34.375,
      "duration": 0.063,
      "velocity": 0.63,
      "hand": "left"
    },
    {
      "midi": 60,
      "time": 34.375,
      "duration": 0.11,
      "velocity": 0.47,
      "hand": "right"
    },
    {
      "midi": 41,
      "time": 34.5,
      "duration": 1.235,
      "velocity": 0.99,
      "hand": "left"
    },
    {
      "midi": 47,
      "time": 34.5,
      "duration": 0.063,
      "velocity": 0.87,
      "hand": "left"
    },
    {
      "midi": 60,
      "time": 34.5,
      "duration": 0.36,
      "velocity": 0.65,
      "hand": "right"
    },
    {
      "midi": 64,
      "time": 34.5,
      "duration": 0.875,
      "velocity": 0.54,
      "hand": "right"
    },
    {
      "midi": 71,
      "time": 34.5,
      "duration": 0.5,
      "velocity": 0.54,
      "hand": "right"
    },
    {
      "midi": 38,
      "time": 34.75,
      "duration": 0.063,
      "velocity": 1,
      "hand": "left"
    },
    {
      "midi": 38,
      "time": 34.875,
      "duration": 0.063,
      "velocity": 1,
      "hand": "left"
    },
    {
      "midi": 45,
      "time": 34.875,
      "duration": 0.75,
      "velocity": 0.5,
      "hand": "left"
    },
    {
      "midi": 60,
      "time": 34.875,
      "duration": 0.063,
      "velocity": 0.69,
      "hand": "right"
    },
    {
      "midi": 65,
      "time": 34.875,
      "duration": 0.11,
      "velocity": 0.56,
      "hand": "right"
    },
    {
      "midi": 69,
      "time": 34.875,
      "duration": 0.375,
      "velocity": 0.5,
      "hand": "right"
    },
    {
      "midi": 38,
      "time": 35,
      "duration": 0.063,
      "velocity": 0.86,
      "hand": "left"
    },
    {
      "midi": 54,
      "time": 35,
      "duration": 0.063,
      "velocity": 0.55,
      "hand": "left"
    },
    {
      "midi": 60,
      "time": 35,
      "duration": 0.063,
      "velocity": 0.72,
      "hand": "right"
    },
    {
      "midi": 65,
      "time": 35,
      "duration": 0.125,
      "velocity": 0.53,
      "hand": "right"
    },
    {
      "midi": 51,
      "time": 35.125,
      "duration": 0.063,
      "velocity": 0.63,
      "hand": "left"
    },
    {
      "midi": 51,
      "time": 35.375,
      "duration": 0.063,
      "velocity": 0.63,
      "hand": "left"
    },
    {
      "midi": 36,
      "time": 35.5,
      "duration": 0.25,
      "velocity": 0.8,
      "hand": "left"
    },
    {
      "midi": 38,
      "time": 35.5,
      "duration": 0.063,
      "velocity": 1,
      "hand": "left"
    },
    {
      "midi": 60,
      "time": 35.5,
      "duration": 0.25,
      "velocity": 0.54,
      "hand": "right"
    },
    {
      "midi": 65,
      "time": 35.5,
      "duration": 0.375,
      "velocity": 0.72,
      "hand": "right"
    },
    {
      "midi": 69,
      "time": 35.5,
      "duration": 0.5,
      "velocity": 0.57,
      "hand": "right"
    },
    {
      "midi": 41,
      "time": 35.75,
      "duration": 0.25,
      "velocity": 0.8,
      "hand": "left"
    },
    {
      "midi": 48,
      "time": 35.75,
      "duration": 0.25,
      "velocity": 0.51,
      "hand": "left"
    },
    {
      "midi": 43,
      "time": 35.875,
      "duration": 0.11,
      "velocity": 0.45,
      "hand": "left"
    },
    {
      "midi": 51,
      "time": 35.875,
      "duration": 0.063,
      "velocity": 0.63,
      "hand": "left"
    },
    {
      "midi": 67,
      "time": 35.875,
      "duration": 0.5,
      "velocity": 0.49,
      "hand": "right"
    },
    {
      "midi": 43,
      "time": 36,
      "duration": 1,
      "velocity": 1,
      "hand": "left"
    },
    {
      "midi": 47,
      "time": 36,
      "duration": 0.063,
      "velocity": 0.93,
      "hand": "left"
    },
    {
      "midi": 60,
      "time": 36,
      "duration": 0.063,
      "velocity": 0.24,
      "hand": "right"
    },
    {
      "midi": 62,
      "time": 36,
      "duration": 0.36,
      "velocity": 0.63,
      "hand": "right"
    },
    {
      "midi": 59,
      "time": 36.25,
      "duration": 0.11,
      "velocity": 0.73,
      "hand": "left"
    },
    {
      "midi": 47,
      "time": 36.375,
      "duration": 0.875,
      "velocity": 0.17,
      "hand": "left"
    },
    {
      "midi": 51,
      "time": 36.375,
      "duration": 0.063,
      "velocity": 0.63,
      "hand": "left"
    },
    {
      "midi": 62,
      "time": 36.375,
      "duration": 0.063,
      "velocity": 0.61,
      "hand": "right"
    },
    {
      "midi": 64,
      "time": 36.375,
      "duration": 0.063,
      "velocity": 0.57,
      "hand": "right"
    },
    {
      "midi": 69,
      "time": 36.375,
      "duration": 0.11,
      "velocity": 0.58,
      "hand": "right"
    },
    {
      "midi": 38,
      "time": 36.5,
      "duration": 0.063,
      "velocity": 0.95,
      "hand": "left"
    },
    {
      "midi": 51,
      "time": 36.5,
      "duration": 0.063,
      "velocity": 0.63,
      "hand": "left"
    },
    {
      "midi": 62,
      "time": 36.5,
      "duration": 0.125,
      "velocity": 0.54,
      "hand": "right"
    },
    {
      "midi": 64,
      "time": 36.5,
      "duration": 0.125,
      "velocity": 0.56,
      "hand": "right"
    },
    {
      "midi": 69,
      "time": 36.5,
      "duration": 0.125,
      "velocity": 0.46,
      "hand": "right"
    },
    {
      "midi": 71,
      "time": 36.5,
      "duration": 0.25,
      "velocity": 0.4,
      "hand": "right"
    },
    {
      "midi": 53,
      "time": 36.75,
      "duration": 0.25,
      "velocity": 0.63,
      "hand": "left"
    },
    {
      "midi": 69,
      "time": 36.75,
      "duration": 0.235,
      "velocity": 0.5,
      "hand": "right"
    },
    {
      "midi": 51,
      "time": 36.875,
      "duration": 0.063,
      "velocity": 0.63,
      "hand": "left"
    },
    {
      "midi": 38,
      "time": 37,
      "duration": 0.25,
      "velocity": 1,
      "hand": "left"
    },
    {
      "midi": 51,
      "time": 37,
      "duration": 0.063,
      "velocity": 0.63,
      "hand": "left"
    },
    {
      "midi": 62,
      "time": 37,
      "duration": 0.235,
      "velocity": 0.72,
      "hand": "right"
    },
    {
      "midi": 65,
      "time": 37,
      "duration": 0.25,
      "velocity": 0.54,
      "hand": "right"
    },
    {
      "midi": 69,
      "time": 37,
      "duration": 0.25,
      "velocity": 0.69,
      "hand": "right"
    },
    {
      "midi": 43,
      "time": 37.25,
      "duration": 0.125,
      "velocity": 0.8,
      "hand": "left"
    },
    {
      "midi": 50,
      "time": 37.25,
      "duration": 0.25,
      "velocity": 0.51,
      "hand": "left"
    },
    {
      "midi": 62,
      "time": 37.25,
      "duration": 0.235,
      "velocity": 0.54,
      "hand": "right"
    },
    {
      "midi": 51,
      "time": 37.375,
      "duration": 0.063,
      "velocity": 0.63,
      "hand": "left"
    },
    {
      "midi": 64,
      "time": 37.375,
      "duration": 0.11,
      "velocity": 0.44,
      "hand": "right"
    },
    {
      "midi": 36,
      "time": 37.5,
      "duration": 0.75,
      "velocity": 0.57,
      "hand": "left"
    },
    {
      "midi": 47,
      "time": 37.5,
      "duration": 0.063,
      "velocity": 0.91,
      "hand": "left"
    },
    {
      "midi": 60,
      "time": 37.5,
      "duration": 0.36,
      "velocity": 0.57,
      "hand": "right"
    },
    {
      "midi": 62,
      "time": 37.5,
      "duration": 0.75,
      "velocity": 0.36,
      "hand": "right"
    },
    {
      "midi": 64,
      "time": 37.5,
      "duration": 0.36,
      "velocity": 0.4,
      "hand": "right"
    },
    {
      "midi": 38,
      "time": 37.75,
      "duration": 0.063,
      "velocity": 1,
      "hand": "left"
    },
    {
      "midi": 51,
      "time": 37.875,
      "duration": 0.063,
      "velocity": 0.63,
      "hand": "left"
    },
    {
      "midi": 55,
      "time": 37.875,
      "duration": 0.11,
      "velocity": 0.56,
      "hand": "left"
    },
    {
      "midi": 60,
      "time": 37.875,
      "duration": 0.063,
      "velocity": 0.68,
      "hand": "right"
    },
    {
      "midi": 64,
      "time": 37.875,
      "duration": 0.11,
      "velocity": 0.52,
      "hand": "right"
    },
    {
      "midi": 38,
      "time": 38,
      "duration": 0.063,
      "velocity": 1,
      "hand": "left"
    },
    {
      "midi": 51,
      "time": 38,
      "duration": 0.063,
      "velocity": 0.63,
      "hand": "left"
    },
    {
      "midi": 60,
      "time": 38,
      "duration": 0.125,
      "velocity": 0.57,
      "hand": "right"
    },
    {
      "midi": 64,
      "time": 38,
      "duration": 0.125,
      "velocity": 0.54,
      "hand": "right"
    },
    {
      "midi": 43,
      "time": 38.25,
      "duration": 0.063,
      "velocity": 1,
      "hand": "left"
    },
    {
      "midi": 51,
      "time": 38.375,
      "duration": 0.063,
      "velocity": 0.63,
      "hand": "left"
    },
    {
      "midi": 45,
      "time": 38.5,
      "duration": 0.063,
      "velocity": 1,
      "hand": "left"
    },
    {
      "midi": 51,
      "time": 38.5,
      "duration": 0.063,
      "velocity": 0.63,
      "hand": "left"
    },
    {
      "midi": 60,
      "time": 38.5,
      "duration": 0.125,
      "velocity": 0.73,
      "hand": "right"
    },
    {
      "midi": 64,
      "time": 38.5,
      "duration": 0.125,
      "velocity": 0.61,
      "hand": "right"
    },
    {
      "midi": 67,
      "time": 38.5,
      "duration": 0.375,
      "velocity": 0.74,
      "hand": "right"
    },
    {
      "midi": 47,
      "time": 38.75,
      "duration": 0.063,
      "velocity": 0.87,
      "hand": "left"
    },
    {
      "midi": 38,
      "time": 38.875,
      "duration": 0.063,
      "velocity": 0.87,
      "hand": "left"
    },
    {
      "midi": 51,
      "time": 38.875,
      "duration": 0.063,
      "velocity": 0.63,
      "hand": "left"
    },
    {
      "midi": 36,
      "time": 39,
      "duration": 1,
      "velocity": 0.98,
      "hand": "left"
    },
    {
      "midi": 47,
      "time": 39,
      "duration": 0.063,
      "velocity": 0.87,
      "hand": "left"
    },
    {
      "midi": 60,
      "time": 39,
      "duration": 0.36,
      "velocity": 0.68,
      "hand": "right"
    },
    {
      "midi": 64,
      "time": 39,
      "duration": 0.36,
      "velocity": 0.56,
      "hand": "right"
    },
    {
      "midi": 67,
      "time": 39,
      "duration": 0.5,
      "velocity": 0.7,
      "hand": "right"
    },
    {
      "midi": 76,
      "time": 39,
      "duration": 0.5,
      "velocity": 0.74,
      "hand": "right"
    },
    {
      "midi": 38,
      "time": 39.25,
      "duration": 0.063,
      "velocity": 1,
      "hand": "left"
    },
    {
      "midi": 38,
      "time": 39.375,
      "duration": 0.063,
      "velocity": 1,
      "hand": "left"
    },
    {
      "midi": 51,
      "time": 39.375,
      "duration": 0.063,
      "velocity": 0.63,
      "hand": "left"
    },
    {
      "midi": 60,
      "time": 39.375,
      "duration": 0.11,
      "velocity": 0.56,
      "hand": "right"
    },
    {
      "midi": 64,
      "time": 39.375,
      "duration": 0.11,
      "velocity": 0.5,
      "hand": "right"
    },
    {
      "midi": 38,
      "time": 39.5,
      "duration": 0.063,
      "velocity": 0.86,
      "hand": "left"
    },
    {
      "midi": 54,
      "time": 39.5,
      "duration": 0.063,
      "velocity": 0.55,
      "hand": "left"
    },
    {
      "midi": 60,
      "time": 39.5,
      "duration": 0.063,
      "velocity": 0.57,
      "hand": "right"
    },
    {
      "midi": 64,
      "time": 39.5,
      "duration": 0.25,
      "velocity": 0.56,
      "hand": "right"
    },
    {
      "midi": 79,
      "time": 39.5,
      "duration": 0.5,
      "velocity": 0.76,
      "hand": "right"
    },
    {
      "midi": 51,
      "time": 39.625,
      "duration": 0.063,
      "velocity": 0.63,
      "hand": "left"
    },
    {
      "midi": 72,
      "time": 39.75,
      "duration": 0.25,
      "velocity": 0.56,
      "hand": "right"
    },
    {
      "midi": 51,
      "time": 39.875,
      "duration": 0.063,
      "velocity": 0.63,
      "hand": "left"
    },
    {
      "midi": 38,
      "time": 40,
      "duration": 0.063,
      "velocity": 1,
      "hand": "left"
    },
    {
      "midi": 43,
      "time": 40,
      "duration": 0.25,
      "velocity": 1,
      "hand": "left"
    },
    {
      "midi": 60,
      "time": 40,
      "duration": 0.375,
      "velocity": 0.69,
      "hand": "right"
    },
    {
      "midi": 64,
      "time": 40,
      "duration": 0.375,
      "velocity": 0.56,
      "hand": "right"
    },
    {
      "midi": 71,
      "time": 40,
      "duration": 0.25,
      "velocity": 0.5,
      "hand": "right"
    },
    {
      "midi": 81,
      "time": 40,
      "duration": 0.375,
      "velocity": 0.72,
      "hand": "right"
    },
    {
      "midi": 36,
      "time": 40.25,
      "duration": 0.25,
      "velocity": 0.8,
      "hand": "left"
    },
    {
      "midi": 69,
      "time": 40.25,
      "duration": 0.25,
      "velocity": 0.42,
      "hand": "right"
    },
    {
      "midi": 51,
      "time": 40.375,
      "duration": 0.063,
      "velocity": 0.63,
      "hand": "left"
    },
    {
      "midi": 43,
      "time": 40.5,
      "duration": 0.875,
      "velocity": 1,
      "hand": "left"
    },
    {
      "midi": 47,
      "time": 40.5,
      "duration": 0.063,
      "velocity": 0.93,
      "hand": "left"
    },
    {
      "midi": 62,
      "time": 40.5,
      "duration": 0.36,
      "velocity": 0.39,
      "hand": "right"
    },
    {
      "midi": 67,
      "time": 40.5,
      "duration": 0.5,
      "velocity": 0.54,
      "hand": "right"
    },
    {
      "midi": 83,
      "time": 40.5,
      "duration": 1.5,
      "velocity": 0.61,
      "hand": "right"
    },
    {
      "midi": 59,
      "time": 40.75,
      "duration": 0.11,
      "velocity": 0.68,
      "hand": "left"
    },
    {
      "midi": 51,
      "time": 40.875,
      "duration": 0.063,
      "velocity": 0.63,
      "hand": "left"
    },
    {
      "midi": 55,
      "time": 40.875,
      "duration": 0.063,
      "velocity": 0.44,
      "hand": "left"
    },
    {
      "midi": 62,
      "time": 40.875,
      "duration": 0.11,
      "velocity": 0.56,
      "hand": "right"
    },
    {
      "midi": 38,
      "time": 41,
      "duration": 0.063,
      "velocity": 0.95,
      "hand": "left"
    },
    {
      "midi": 51,
      "time": 41,
      "duration": 0.063,
      "velocity": 0.63,
      "hand": "left"
    },
    {
      "midi": 62,
      "time": 41,
      "duration": 0.25,
      "velocity": 0.57,
      "hand": "right"
    },
    {
      "midi": 65,
      "time": 41,
      "duration": 0.485,
      "velocity": 0.54,
      "hand": "right"
    },
    {
      "midi": 55,
      "time": 41.25,
      "duration": 0.235,
      "velocity": 0.69,
      "hand": "left"
    },
    {
      "midi": 51,
      "time": 41.375,
      "duration": 0.063,
      "velocity": 0.63,
      "hand": "left"
    },
    {
      "midi": 38,
      "time": 41.5,
      "duration": 0.25,
      "velocity": 1,
      "hand": "left"
    },
    {
      "midi": 51,
      "time": 41.5,
      "duration": 0.063,
      "velocity": 0.63,
      "hand": "left"
    },
    {
      "midi": 62,
      "time": 41.5,
      "duration": 0.375,
      "velocity": 0.51,
      "hand": "right"
    },
    {
      "midi": 65,
      "time": 41.5,
      "duration": 0.375,
      "velocity": 0.72,
      "hand": "right"
    },
    {
      "midi": 67,
      "time": 41.5,
      "duration": 0.25,
      "velocity": 0.51,
      "hand": "right"
    },
    {
      "midi": 69,
      "time": 41.5,
      "duration": 0.375,
      "velocity": 0.57,
      "hand": "right"
    },
    {
      "midi": 47,
      "time": 41.75,
      "duration": 0.235,
      "velocity": 0.96,
      "hand": "left"
    },
    {
      "midi": 50,
      "time": 41.75,
      "duration": 0.25,
      "velocity": 0.56,
      "hand": "left"
    },
    {
      "midi": 51,
      "time": 41.875,
      "duration": 0.063,
      "velocity": 0.63,
      "hand": "left"
    },
    {
      "midi": 43,
      "time": 42,
      "duration": 1.235,
      "velocity": 0.98,
      "hand": "left"
    },
    {
      "midi": 47,
      "time": 42,
      "duration": 0.063,
      "velocity": 0.91,
      "hand": "left"
    },
    {
      "midi": 65,
      "time": 42,
      "duration": 0.36,
      "velocity": 0.72,
      "hand": "right"
    },
    {
      "midi": 69,
      "time": 42,
      "duration": 0.5,
      "velocity": 0.59,
      "hand": "right"
    },
    {
      "midi": 79,
      "time": 42,
      "duration": 0.5,
      "velocity": 0.76,
      "hand": "right"
    },
    {
      "midi": 38,
      "time": 42.25,
      "duration": 0.063,
      "velocity": 1,
      "hand": "left"
    },
    {
      "midi": 62,
      "time": 42.25,
      "duration": 0.11,
      "velocity": 0.72,
      "hand": "right"
    },
    {
      "midi": 38,
      "time": 42.375,
      "duration": 0.063,
      "velocity": 0.97,
      "hand": "left"
    },
    {
      "midi": 51,
      "time": 42.375,
      "duration": 0.063,
      "velocity": 0.63,
      "hand": "left"
    },
    {
      "midi": 62,
      "time": 42.375,
      "duration": 0.11,
      "velocity": 0.54,
      "hand": "right"
    },
    {
      "midi": 65,
      "time": 42.375,
      "duration": 0.11,
      "velocity": 0.53,
      "hand": "right"
    },
    {
      "midi": 38,
      "time": 42.5,
      "duration": 0.485,
      "velocity": 0.87,
      "hand": "left"
    },
    {
      "midi": 51,
      "time": 42.5,
      "duration": 0.063,
      "velocity": 0.63,
      "hand": "left"
    },
    {
      "midi": 62,
      "time": 42.5,
      "duration": 0.063,
      "velocity": 0.57,
      "hand": "right"
    },
    {
      "midi": 65,
      "time": 42.5,
      "duration": 0.25,
      "velocity": 0.56,
      "hand": "right"
    },
    {
      "midi": 83,
      "time": 42.5,
      "duration": 0.5,
      "velocity": 0.76,
      "hand": "right"
    },
    {
      "midi": 55,
      "time": 42.75,
      "duration": 0.235,
      "velocity": 0.58,
      "hand": "left"
    },
    {
      "midi": 72,
      "time": 42.75,
      "duration": 0.25,
      "velocity": 0.55,
      "hand": "right"
    },
    {
      "midi": 51,
      "time": 42.875,
      "duration": 0.063,
      "velocity": 0.63,
      "hand": "left"
    },
    {
      "midi": 38,
      "time": 43,
      "duration": 0.063,
      "velocity": 1,
      "hand": "left"
    },
    {
      "midi": 47,
      "time": 43,
      "duration": 0.25,
      "velocity": 0.97,
      "hand": "left"
    },
    {
      "midi": 62,
      "time": 43,
      "duration": 0.375,
      "velocity": 0.55,
      "hand": "right"
    },
    {
      "midi": 65,
      "time": 43,
      "duration": 0.375,
      "velocity": 0.72,
      "hand": "right"
    },
    {
      "midi": 71,
      "time": 43,
      "duration": 0.25,
      "velocity": 0.52,
      "hand": "right"
    },
    {
      "midi": 74,
      "time": 43,
      "duration": 0.5,
      "velocity": 0.72,
      "hand": "right"
    },
    {
      "midi": 43,
      "time": 43.25,
      "duration": 0.25,
      "velocity": 0.96,
      "hand": "left"
    },
    {
      "midi": 50,
      "time": 43.25,
      "duration": 0.25,
      "velocity": 0.46,
      "hand": "left"
    },
    {
      "midi": 69,
      "time": 43.25,
      "duration": 0.25,
      "velocity": 0.52,
      "hand": "right"
    },
    {
      "midi": 51,
      "time": 43.375,
      "duration": 0.063,
      "velocity": 0.63,
      "hand": "left"
    },
    {
      "midi": 59,
      "time": 43.375,
      "duration": 0.125,
      "velocity": 0.42,
      "hand": "left"
    },
    {
      "midi": 36,
      "time": 43.5,
      "duration": 1.25,
      "velocity": 0.95,
      "hand": "left"
    },
    {
      "midi": 47,
      "time": 43.5,
      "duration": 0.063,
      "velocity": 0.89,
      "hand": "left"
    },
    {
      "midi": 62,
      "time": 43.5,
      "duration": 0.063,
      "velocity": 0.22,
      "hand": "right"
    },
    {
      "midi": 64,
      "time": 43.5,
      "duration": 0.36,
      "velocity": 0.58,
      "hand": "right"
    },
    {
      "midi": 67,
      "time": 43.5,
      "duration": 0.875,
      "velocity": 0.57,
      "hand": "right"
    },
    {
      "midi": 76,
      "time": 43.5,
      "duration": 1.375,
      "velocity": 0.72,
      "hand": "right"
    },
    {
      "midi": 60,
      "time": 43.75,
      "duration": 0.11,
      "velocity": 0.75,
      "hand": "right"
    },
    {
      "midi": 51,
      "time": 43.875,
      "duration": 0.063,
      "velocity": 0.63,
      "hand": "left"
    },
    {
      "midi": 55,
      "time": 43.875,
      "duration": 0.11,
      "velocity": 0.55,
      "hand": "left"
    },
    {
      "midi": 60,
      "time": 43.875,
      "duration": 0.063,
      "velocity": 0.61,
      "hand": "right"
    },
    {
      "midi": 64,
      "time": 43.875,
      "duration": 0.11,
      "velocity": 0.47,
      "hand": "right"
    },
    {
      "midi": 38,
      "time": 44,
      "duration": 0.063,
      "velocity": 1,
      "hand": "left"
    },
    {
      "midi": 40,
      "time": 44,
      "duration": 0.75,
      "velocity": 0.28,
      "hand": "left"
    },
    {
      "midi": 60,
      "time": 44,
      "duration": 0.063,
      "velocity": 0.65,
      "hand": "right"
    },
    {
      "midi": 64,
      "time": 44,
      "duration": 0.125,
      "velocity": 0.55,
      "hand": "right"
    },
    {
      "midi": 55,
      "time": 44.25,
      "duration": 0.235,
      "velocity": 0.5,
      "hand": "left"
    },
    {
      "midi": 51,
      "time": 44.375,
      "duration": 0.063,
      "velocity": 0.63,
      "hand": "left"
    },
    {
      "midi": 38,
      "time": 44.5,
      "duration": 0.063,
      "velocity": 1,
      "hand": "left"
    },
    {
      "midi": 43,
      "time": 44.5,
      "duration": 0.235,
      "velocity": 1,
      "hand": "left"
    },
    {
      "midi": 60,
      "time": 44.5,
      "duration": 0.25,
      "velocity": 0.57,
      "hand": "right"
    },
    {
      "midi": 64,
      "time": 44.5,
      "duration": 0.25,
      "velocity": 0.69,
      "hand": "right"
    },
    {
      "midi": 67,
      "time": 44.5,
      "duration": 0.375,
      "velocity": 0.57,
      "hand": "right"
    },
    {
      "midi": 43,
      "time": 44.75,
      "duration": 0.25,
      "velocity": 0.48,
      "hand": "left"
    },
    {
      "midi": 55,
      "time": 44.75,
      "duration": 0.125,
      "velocity": 0.61,
      "hand": "left"
    },
    {
      "midi": 51,
      "time": 44.875,
      "duration": 0.063,
      "velocity": 0.63,
      "hand": "left"
    },
    {
      "midi": 72,
      "time": 44.875,
      "duration": 0.75,
      "velocity": 0.72,
      "hand": "right"
    },
    {
      "midi": 36,
      "time": 45,
      "duration": 1,
      "velocity": 0.97,
      "hand": "left"
    },
    {
      "midi": 47,
      "time": 45,
      "duration": 0.063,
      "velocity": 0.97,
      "hand": "left"
    },
    {
      "midi": 60,
      "time": 45,
      "duration": 0.36,
      "velocity": 0.75,
      "hand": "right"
    },
    {
      "midi": 65,
      "time": 45,
      "duration": 0.875,
      "velocity": 0.72,
      "hand": "right"
    },
    {
      "midi": 77,
      "time": 45,
      "duration": 0.5,
      "velocity": 0.73,
      "hand": "right"
    },
    {
      "midi": 38,
      "time": 45.25,
      "duration": 0.063,
      "velocity": 1,
      "hand": "left"
    },
    {
      "midi": 38,
      "time": 45.375,
      "duration": 0.063,
      "velocity": 0.91,
      "hand": "left"
    },
    {
      "midi": 51,
      "time": 45.375,
      "duration": 0.063,
      "velocity": 0.63,
      "hand": "left"
    },
    {
      "midi": 60,
      "time": 45.375,
      "duration": 0.063,
      "velocity": 0.61,
      "hand": "right"
    },
    {
      "midi": 64,
      "time": 45.375,
      "duration": 0.063,
      "velocity": 0.51,
      "hand": "right"
    },
    {
      "midi": 38,
      "time": 45.5,
      "duration": 0.063,
      "velocity": 0.85,
      "hand": "left"
    },
    {
      "midi": 51,
      "time": 45.5,
      "duration": 0.063,
      "velocity": 0.63,
      "hand": "left"
    },
    {
      "midi": 60,
      "time": 45.5,
      "duration": 0.375,
      "velocity": 0.69,
      "hand": "right"
    },
    {
      "midi": 64,
      "time": 45.5,
      "duration": 0.375,
      "velocity": 0.72,
      "hand": "right"
    },
    {
      "midi": 76,
      "time": 45.5,
      "duration": 0.5,
      "velocity": 0.63,
      "hand": "right"
    },
    {
      "midi": 72,
      "time": 45.75,
      "duration": 0.25,
      "velocity": 0.63,
      "hand": "right"
    },
    {
      "midi": 51,
      "time": 45.875,
      "duration": 0.063,
      "velocity": 0.63,
      "hand": "left"
    },
    {
      "midi": 38,
      "time": 46,
      "duration": 0.063,
      "velocity": 1,
      "hand": "left"
    },
    {
      "midi": 43,
      "time": 46,
      "duration": 0.25,
      "velocity": 1,
      "hand": "left"
    },
    {
      "midi": 60,
      "time": 46,
      "duration": 0.36,
      "velocity": 0.74,
      "hand": "right"
    },
    {
      "midi": 64,
      "time": 46,
      "duration": 0.375,
      "velocity": 0.7,
      "hand": "right"
    },
    {
      "midi": 74,
      "time": 46,
      "duration": 0.5,
      "velocity": 0.72,
      "hand": "right"
    },
    {
      "midi": 36,
      "time": 46.25,
      "duration": 0.25,
      "velocity": 0.84,
      "hand": "left"
    },
    {
      "midi": 72,
      "time": 46.25,
      "duration": 0.25,
      "velocity": 0.52,
      "hand": "right"
    },
    {
      "midi": 51,
      "time": 46.375,
      "duration": 0.063,
      "velocity": 0.63,
      "hand": "left"
    },
    {
      "midi": 60,
      "time": 46.375,
      "duration": 0.11,
      "velocity": 0.28,
      "hand": "right"
    },
    {
      "midi": 41,
      "time": 46.5,
      "duration": 1.235,
      "velocity": 0.99,
      "hand": "left"
    },
    {
      "midi": 47,
      "time": 46.5,
      "duration": 0.063,
      "velocity": 0.89,
      "hand": "left"
    },
    {
      "midi": 60,
      "time": 46.5,
      "duration": 0.36,
      "velocity": 0.65,
      "hand": "right"
    },
    {
      "midi": 64,
      "time": 46.5,
      "duration": 0.875,
      "velocity": 0.54,
      "hand": "right"
    },
    {
      "midi": 71,
      "time": 46.5,
      "duration": 0.5,
      "velocity": 0.54,
      "hand": "right"
    },
    {
      "midi": 84,
      "time": 46.5,
      "duration": 1,
      "velocity": 0.7,
      "hand": "right"
    },
    {
      "midi": 45,
      "time": 46.875,
      "duration": 0.75,
      "velocity": 0.5,
      "hand": "left"
    },
    {
      "midi": 51,
      "time": 46.875,
      "duration": 0.063,
      "velocity": 0.63,
      "hand": "left"
    },
    {
      "midi": 60,
      "time": 46.875,
      "duration": 0.063,
      "velocity": 0.69,
      "hand": "right"
    },
    {
      "midi": 65,
      "time": 46.875,
      "duration": 0.11,
      "velocity": 0.56,
      "hand": "right"
    },
    {
      "midi": 69,
      "time": 46.875,
      "duration": 0.375,
      "velocity": 0.5,
      "hand": "right"
    },
    {
      "midi": 38,
      "time": 47,
      "duration": 0.063,
      "velocity": 0.99,
      "hand": "left"
    },
    {
      "midi": 51,
      "time": 47,
      "duration": 0.063,
      "velocity": 0.63,
      "hand": "left"
    },
    {
      "midi": 60,
      "time": 47,
      "duration": 0.063,
      "velocity": 0.72,
      "hand": "right"
    },
    {
      "midi": 65,
      "time": 47,
      "duration": 0.125,
      "velocity": 0.53,
      "hand": "right"
    },
    {
      "midi": 51,
      "time": 47.375,
      "duration": 0.063,
      "velocity": 0.63,
      "hand": "left"
    },
    {
      "midi": 36,
      "time": 47.5,
      "duration": 0.25,
      "velocity": 0.8,
      "hand": "left"
    },
    {
      "midi": 38,
      "time": 47.5,
      "duration": 0.063,
      "velocity": 1,
      "hand": "left"
    },
    {
      "midi": 65,
      "time": 47.5,
      "duration": 0.375,
      "velocity": 0.72,
      "hand": "right"
    },
    {
      "midi": 69,
      "time": 47.5,
      "duration": 0.5,
      "velocity": 0.57,
      "hand": "right"
    },
    {
      "midi": 81,
      "time": 47.5,
      "duration": 0.5,
      "velocity": 0.74,
      "hand": "right"
    },
    {
      "midi": 41,
      "time": 47.75,
      "duration": 0.25,
      "velocity": 0.8,
      "hand": "left"
    },
    {
      "midi": 48,
      "time": 47.75,
      "duration": 0.25,
      "velocity": 0.51,
      "hand": "left"
    },
    {
      "midi": 43,
      "time": 47.875,
      "duration": 0.11,
      "velocity": 0.45,
      "hand": "left"
    },
    {
      "midi": 51,
      "time": 47.875,
      "duration": 0.063,
      "velocity": 0.63,
      "hand": "left"
    },
    {
      "midi": 62,
      "time": 47.875,
      "duration": 0.11,
      "velocity": 0.5,
      "hand": "right"
    },
    {
      "midi": 67,
      "time": 47.875,
      "duration": 0.5,
      "velocity": 0.49,
      "hand": "right"
    },
    {
      "midi": 43,
      "time": 48,
      "duration": 1,
      "velocity": 1,
      "hand": "left"
    },
    {
      "midi": 47,
      "time": 48,
      "duration": 0.063,
      "velocity": 0.87,
      "hand": "left"
    },
    {
      "midi": 60,
      "time": 48,
      "duration": 0.063,
      "velocity": 0.24,
      "hand": "right"
    },
    {
      "midi": 62,
      "time": 48,
      "duration": 0.36,
      "velocity": 0.63,
      "hand": "right"
    },
    {
      "midi": 83,
      "time": 48,
      "duration": 0.5,
      "velocity": 0.74,
      "hand": "right"
    },
    {
      "midi": 38,
      "time": 48.25,
      "duration": 0.063,
      "velocity": 1,
      "hand": "left"
    },
    {
      "midi": 59,
      "time": 48.25,
      "duration": 0.11,
      "velocity": 0.73,
      "hand": "left"
    },
    {
      "midi": 38,
      "time": 48.375,
      "duration": 0.063,
      "velocity": 1,
      "hand": "left"
    },
    {
      "midi": 47,
      "time": 48.375,
      "duration": 0.875,
      "velocity": 0.17,
      "hand": "left"
    },
    {
      "midi": 62,
      "time": 48.375,
      "duration": 0.063,
      "velocity": 0.61,
      "hand": "right"
    },
    {
      "midi": 64,
      "time": 48.375,
      "duration": 0.063,
      "velocity": 0.57,
      "hand": "right"
    },
    {
      "midi": 69,
      "time": 48.375,
      "duration": 0.11,
      "velocity": 0.58,
      "hand": "right"
    },
    {
      "midi": 84,
      "time": 48.375,
      "duration": 0.5,
      "velocity": 0.61,
      "hand": "right"
    },
    {
      "midi": 38,
      "time": 48.5,
      "duration": 0.063,
      "velocity": 0.86,
      "hand": "left"
    },
    {
      "midi": 54,
      "time": 48.5,
      "duration": 0.063,
      "velocity": 0.55,
      "hand": "left"
    },
    {
      "midi": 62,
      "time": 48.5,
      "duration": 0.125,
      "velocity": 0.54,
      "hand": "right"
    },
    {
      "midi": 64,
      "time": 48.5,
      "duration": 0.125,
      "velocity": 0.56,
      "hand": "right"
    },
    {
      "midi": 69,
      "time": 48.5,
      "duration": 0.125,
      "velocity": 0.46,
      "hand": "right"
    },
    {
      "midi": 71,
      "time": 48.5,
      "duration": 0.25,
      "velocity": 0.4,
      "hand": "right"
    },
    {
      "midi": 51,
      "time": 48.625,
      "duration": 0.063,
      "velocity": 0.63,
      "hand": "left"
    },
    {
      "midi": 53,
      "time": 48.75,
      "duration": 0.25,
      "velocity": 0.63,
      "hand": "left"
    },
    {
      "midi": 69,
      "time": 48.75,
      "duration": 0.235,
      "velocity": 0.5,
      "hand": "right"
    },
    {
      "midi": 51,
      "time": 48.875,
      "duration": 0.063,
      "velocity": 0.63,
      "hand": "left"
    },
    {
      "midi": 38,
      "time": 49,
      "duration": 0.25,
      "velocity": 1,
      "hand": "left"
    },
    {
      "midi": 51,
      "time": 49,
      "duration": 0.063,
      "velocity": 0.63,
      "hand": "left"
    },
    {
      "midi": 65,
      "time": 49,
      "duration": 0.25,
      "velocity": 0.54,
      "hand": "right"
    },
    {
      "midi": 69,
      "time": 49,
      "duration": 0.25,
      "velocity": 0.69,
      "hand": "right"
    },
    {
      "midi": 74,
      "time": 49,
      "duration": 0.5,
      "velocity": 0.57,
      "hand": "right"
    },
    {
      "midi": 43,
      "time": 49.25,
      "duration": 0.125,
      "velocity": 0.8,
      "hand": "left"
    },
    {
      "midi": 50,
      "time": 49.25,
      "duration": 0.25,
      "velocity": 0.51,
      "hand": "left"
    },
    {
      "midi": 62,
      "time": 49.25,
      "duration": 0.235,
      "velocity": 0.54,
      "hand": "right"
    },
    {
      "midi": 51,
      "time": 49.375,
      "duration": 0.063,
      "velocity": 0.63,
      "hand": "left"
    },
    {
      "midi": 60,
      "time": 49.375,
      "duration": 0.11,
      "velocity": 0.43,
      "hand": "right"
    },
    {
      "midi": 64,
      "time": 49.375,
      "duration": 0.11,
      "velocity": 0.38,
      "hand": "right"
    },
    {
      "midi": 36,
      "time": 49.5,
      "duration": 0.75,
      "velocity": 0.57,
      "hand": "left"
    },
    {
      "midi": 47,
      "time": 49.5,
      "duration": 0.063,
      "velocity": 0.93,
      "hand": "left"
    },
    {
      "midi": 60,
      "time": 49.5,
      "duration": 0.36,
      "velocity": 0.57,
      "hand": "right"
    },
    {
      "midi": 62,
      "time": 49.5,
      "duration": 0.75,
      "velocity": 0.36,
      "hand": "right"
    },
    {
      "midi": 64,
      "time": 49.5,
      "duration": 0.36,
      "velocity": 0.37,
      "hand": "right"
    },
    {
      "midi": 84,
      "time": 49.5,
      "duration": 1.25,
      "velocity": 0.56,
      "hand": "right"
    },
    {
      "midi": 51,
      "time": 49.875,
      "duration": 0.063,
      "velocity": 0.63,
      "hand": "left"
    },
    {
      "midi": 55,
      "time": 49.875,
      "duration": 0.11,
      "velocity": 0.56,
      "hand": "left"
    },
    {
      "midi": 60,
      "time": 49.875,
      "duration": 0.063,
      "velocity": 0.68,
      "hand": "right"
    },
    {
      "midi": 64,
      "time": 49.875,
      "duration": 0.11,
      "velocity": 0.52,
      "hand": "right"
    },
    {
      "midi": 38,
      "time": 50,
      "duration": 0.063,
      "velocity": 0.95,
      "hand": "left"
    },
    {
      "midi": 51,
      "time": 50,
      "duration": 0.063,
      "velocity": 0.63,
      "hand": "left"
    },
    {
      "midi": 60,
      "time": 50,
      "duration": 0.125,
      "velocity": 0.57,
      "hand": "right"
    },
    {
      "midi": 64,
      "time": 50,
      "duration": 0.125,
      "velocity": 0.54,
      "hand": "right"
    },
    {
      "midi": 51,
      "time": 50.375,
      "duration": 0.063,
      "velocity": 0.63,
      "hand": "left"
    },
    {
      "midi": 38,
      "time": 50.5,
      "duration": 0.063,
      "velocity": 1,
      "hand": "left"
    },
    {
      "midi": 51,
      "time": 50.5,
      "duration": 0.063,
      "velocity": 0.63,
      "hand": "left"
    },
    {
      "midi": 60,
      "time": 50.5,
      "duration": 0.125,
      "velocity": 0.73,
      "hand": "right"
    },
    {
      "midi": 64,
      "time": 50.5,
      "duration": 0.125,
      "velocity": 0.61,
      "hand": "right"
    },
    {
      "midi": 67,
      "time": 50.5,
      "duration": 0.5,
      "velocity": 0.79,
      "hand": "right"
    },
    {
      "midi": 51,
      "time": 50.875,
      "duration": 0.063,
      "velocity": 0.63,
      "hand": "left"
    },
    {
      "midi": 38,
      "time": 51,
      "duration": 0.485,
      "velocity": 1,
      "hand": "left"
    },
    {
      "midi": 47,
      "time": 51,
      "duration": 0.063,
      "velocity": 0.89,
      "hand": "left"
    },
    {
      "midi": 60,
      "time": 51,
      "duration": 0.235,
      "velocity": 0.42,
      "hand": "right"
    },
    {
      "midi": 62,
      "time": 51,
      "duration": 0.5,
      "velocity": 0.76,
      "hand": "right"
    },
    {
      "midi": 64,
      "time": 51,
      "duration": 0.235,
      "velocity": 0.4,
      "hand": "right"
    },
    {
      "midi": 53,
      "time": 51.25,
      "duration": 0.11,
      "velocity": 0.7,
      "hand": "left"
    },
    {
      "midi": 57,
      "time": 51.25,
      "duration": 0.11,
      "velocity": 0.74,
      "hand": "left"
    },
    {
      "midi": 60,
      "time": 51.25,
      "duration": 0.11,
      "velocity": 0.75,
      "hand": "right"
    },
    {
      "midi": 64,
      "time": 51.25,
      "duration": 0.11,
      "velocity": 0.69,
      "hand": "right"
    },
    {
      "midi": 51,
      "time": 51.375,
      "duration": 0.063,
      "velocity": 0.63,
      "hand": "left"
    },
    {
      "midi": 53,
      "time": 51.375,
      "duration": 0.11,
      "velocity": 0.57,
      "hand": "left"
    },
    {
      "midi": 60,
      "time": 51.375,
      "duration": 0.11,
      "velocity": 0.7,
      "hand": "right"
    },
    {
      "midi": 64,
      "time": 51.375,
      "duration": 0.11,
      "velocity": 0.55,
      "hand": "right"
    },
    {
      "midi": 38,
      "time": 51.5,
      "duration": 0.063,
      "velocity": 0.99,
      "hand": "left"
    },
    {
      "midi": 51,
      "time": 51.5,
      "duration": 0.063,
      "velocity": 0.63,
      "hand": "left"
    },
    {
      "midi": 60,
      "time": 51.5,
      "duration": 0.125,
      "velocity": 0.61,
      "hand": "right"
    },
    {
      "midi": 64,
      "time": 51.5,
      "duration": 0.485,
      "velocity": 0.73,
      "hand": "right"
    },
    {
      "midi": 51,
      "time": 51.875,
      "duration": 0.063,
      "velocity": 0.63,
      "hand": "left"
    },
    {
      "midi": 38,
      "time": 52,
      "duration": 0.5,
      "velocity": 1,
      "hand": "left"
    },
    {
      "midi": 51,
      "time": 52,
      "duration": 0.063,
      "velocity": 0.63,
      "hand": "left"
    },
    {
      "midi": 60,
      "time": 52,
      "duration": 0.375,
      "velocity": 0.72,
      "hand": "right"
    },
    {
      "midi": 65,
      "time": 52,
      "duration": 0.5,
      "velocity": 0.56,
      "hand": "right"
    },
    {
      "midi": 56,
      "time": 52.25,
      "duration": 0.235,
      "velocity": 0.17,
      "hand": "left"
    },
    {
      "midi": 51,
      "time": 52.375,
      "duration": 0.063,
      "velocity": 0.63,
      "hand": "left"
    },
    {
      "midi": 37,
      "time": 52.5,
      "duration": 0.985,
      "velocity": 1,
      "hand": "left"
    },
    {
      "midi": 47,
      "time": 52.5,
      "duration": 0.063,
      "velocity": 0.87,
      "hand": "left"
    },
    {
      "midi": 63,
      "time": 52.5,
      "duration": 0.235,
      "velocity": 0.44,
      "hand": "right"
    },
    {
      "midi": 67,
      "time": 52.5,
      "duration": 0.235,
      "velocity": 0.4,
      "hand": "right"
    },
    {
      "midi": 38,
      "time": 52.75,
      "duration": 0.063,
      "velocity": 1,
      "hand": "left"
    },
    {
      "midi": 56,
      "time": 52.75,
      "duration": 0.11,
      "velocity": 0.72,
      "hand": "left"
    },
    {
      "midi": 63,
      "time": 52.75,
      "duration": 0.11,
      "velocity": 0.57,
      "hand": "right"
    },
    {
      "midi": 67,
      "time": 52.75,
      "duration": 0.5,
      "velocity": 0.68,
      "hand": "right"
    },
    {
      "midi": 38,
      "time": 52.875,
      "duration": 0.063,
      "velocity": 1,
      "hand": "left"
    },
    {
      "midi": 51,
      "time": 52.875,
      "duration": 0.063,
      "velocity": 0.63,
      "hand": "left"
    },
    {
      "midi": 63,
      "time": 52.875,
      "duration": 0.11,
      "velocity": 0.5,
      "hand": "right"
    },
    {
      "midi": 38,
      "time": 53,
      "duration": 0.063,
      "velocity": 0.86,
      "hand": "left"
    },
    {
      "midi": 53,
      "time": 53,
      "duration": 0.125,
      "velocity": 0.4,
      "hand": "left"
    },
    {
      "midi": 63,
      "time": 53,
      "duration": 0.125,
      "velocity": 0.42,
      "hand": "right"
    },
    {
      "midi": 71,
      "time": 53,
      "duration": 0.5,
      "velocity": 0.72,
      "hand": "right"
    },
    {
      "midi": 51,
      "time": 53.125,
      "duration": 0.063,
      "velocity": 0.63,
      "hand": "left"
    },
    {
      "midi": 51,
      "time": 53.375,
      "duration": 0.063,
      "velocity": 0.63,
      "hand": "left"
    },
    {
      "midi": 38,
      "time": 53.5,
      "duration": 0.063,
      "velocity": 1,
      "hand": "left"
    },
    {
      "midi": 63,
      "time": 53.5,
      "duration": 0.375,
      "velocity": 0.61,
      "hand": "right"
    },
    {
      "midi": 67,
      "time": 53.5,
      "duration": 0.25,
      "velocity": 0.58,
      "hand": "right"
    },
    {
      "midi": 74,
      "time": 53.5,
      "duration": 0.5,
      "velocity": 0.64,
      "hand": "right"
    },
    {
      "midi": 51,
      "time": 53.875,
      "duration": 0.063,
      "velocity": 0.63,
      "hand": "left"
    },
    {
      "midi": 36,
      "time": 54,
      "duration": 3,
      "velocity": 0.72,
      "hand": "left"
    },
    {
      "midi": 38,
      "time": 54,
      "duration": 0.063,
      "velocity": 0.69,
      "hand": "left"
    },
    {
      "midi": 62,
      "time": 54,
      "duration": 3,
      "velocity": 0.7,
      "hand": "right"
    },
    {
      "midi": 64,
      "time": 54,
      "duration": 3,
      "velocity": 0.72,
      "hand": "right"
    },
    {
      "midi": 67,
      "time": 54,
      "duration": 3,
      "velocity": 0.7,
      "hand": "right"
    },
    {
      "midi": 76,
      "time": 54,
      "duration": 3,
      "velocity": 0.72,
      "hand": "right"
    },
    {
      "midi": 38,
      "time": 54.125,
      "duration": 0.063,
      "velocity": 0.56,
      "hand": "left"
    },
    {
      "midi": 38,
      "time": 54.25,
      "duration": 0.063,
      "velocity": 0.46,
      "hand": "left"
    },
    {
      "midi": 38,
      "time": 54.375,
      "duration": 0.063,
      "velocity": 0.3,
      "hand": "left"
    },
    {
      "midi": 38,
      "time": 54.5,
      "duration": 0.063,
      "velocity": 0.23,
      "hand": "left"
    },
    {
      "midi": 38,
      "time": 54.625,
      "duration": 0.063,
      "velocity": 0.17,
      "hand": "left"
    },
    {
      "midi": 38,
      "time": 54.75,
      "duration": 0.063,
      "velocity": 0.08,
      "hand": "left"
    },
    {
      "midi": 38,
      "time": 54.875,
      "duration": 0.063,
      "velocity": 0.08,
      "hand": "left"
    },
    {
      "midi": 38,
      "time": 55,
      "duration": 0.063,
      "velocity": 0.69,
      "hand": "left"
    },
    {
      "midi": 38,
      "time": 55.125,
      "duration": 0.063,
      "velocity": 0.56,
      "hand": "left"
    },
    {
      "midi": 38,
      "time": 55.25,
      "duration": 0.063,
      "velocity": 0.46,
      "hand": "left"
    },
    {
      "midi": 38,
      "time": 55.375,
      "duration": 0.063,
      "velocity": 0.3,
      "hand": "left"
    },
    {
      "midi": 38,
      "time": 55.5,
      "duration": 0.063,
      "velocity": 0.23,
      "hand": "left"
    },
    {
      "midi": 38,
      "time": 55.625,
      "duration": 0.063,
      "velocity": 0.17,
      "hand": "left"
    },
    {
      "midi": 38,
      "time": 55.75,
      "duration": 0.063,
      "velocity": 0.08,
      "hand": "left"
    },
    {
      "midi": 38,
      "time": 55.875,
      "duration": 0.063,
      "velocity": 0.08,
      "hand": "left"
    }
  ],
  "arrangements": {
    "easy": [
      {
        "midi": 62,
        "time": 0,
        "duration": 0.5,
        "velocity": 0.72,
        "hand": "right"
      },
      {
        "midi": 63,
        "time": 0.875,
        "duration": 0.45,
        "velocity": 0.63,
        "hand": "right"
      },
      {
        "midi": 67,
        "time": 1.75,
        "duration": 0.5,
        "velocity": 0.68,
        "hand": "right"
      },
      {
        "midi": 74,
        "time": 2.5,
        "duration": 0.5,
        "velocity": 0.68,
        "hand": "right"
      },
      {
        "midi": 64,
        "time": 3.375,
        "duration": 0.45,
        "velocity": 0.5,
        "hand": "right"
      },
      {
        "midi": 69,
        "time": 4.25,
        "duration": 0.45,
        "velocity": 0.42,
        "hand": "right"
      },
      {
        "midi": 65,
        "time": 5,
        "duration": 0.485,
        "velocity": 0.54,
        "hand": "right"
      },
      {
        "midi": 62,
        "time": 5.75,
        "duration": 0.45,
        "velocity": 0.56,
        "hand": "right"
      },
      {
        "midi": 65,
        "time": 6.5,
        "duration": 0.45,
        "velocity": 0.56,
        "hand": "right"
      },
      {
        "midi": 69,
        "time": 7.25,
        "duration": 0.45,
        "velocity": 0.52,
        "hand": "right"
      },
      {
        "midi": 64,
        "time": 8,
        "duration": 0.45,
        "velocity": 0.55,
        "hand": "right"
      },
      {
        "midi": 55,
        "time": 8.75,
        "duration": 0.45,
        "velocity": 0.61,
        "hand": "right"
      },
      {
        "midi": 64,
        "time": 9.5,
        "duration": 0.45,
        "velocity": 0.72,
        "hand": "right"
      },
      {
        "midi": 72,
        "time": 10.25,
        "duration": 0.45,
        "velocity": 0.52,
        "hand": "right"
      },
      {
        "midi": 65,
        "time": 11,
        "duration": 0.45,
        "velocity": 0.53,
        "hand": "right"
      },
      {
        "midi": 60,
        "time": 11.75,
        "duration": 0.45,
        "velocity": 0.51,
        "hand": "right"
      },
      {
        "midi": 71,
        "time": 12.5,
        "duration": 0.45,
        "velocity": 0.4,
        "hand": "right"
      },
      {
        "midi": 62,
        "time": 13.25,
        "duration": 0.45,
        "velocity": 0.54,
        "hand": "right"
      },
      {
        "midi": 64,
        "time": 14,
        "duration": 0.45,
        "velocity": 0.54,
        "hand": "right"
      },
      {
        "midi": 59,
        "time": 14.75,
        "duration": 0.45,
        "velocity": 0.87,
        "hand": "right"
      },
      {
        "midi": 79,
        "time": 15.5,
        "duration": 0.5,
        "velocity": 0.76,
        "hand": "right"
      },
      {
        "midi": 69,
        "time": 16.25,
        "duration": 0.45,
        "velocity": 0.42,
        "hand": "right"
      },
      {
        "midi": 65,
        "time": 17,
        "duration": 0.485,
        "velocity": 0.54,
        "hand": "right"
      },
      {
        "midi": 62,
        "time": 17.75,
        "duration": 0.45,
        "velocity": 0.56,
        "hand": "right"
      },
      {
        "midi": 83,
        "time": 18.5,
        "duration": 0.5,
        "velocity": 0.76,
        "hand": "right"
      },
      {
        "midi": 69,
        "time": 19.25,
        "duration": 0.45,
        "velocity": 0.52,
        "hand": "right"
      },
      {
        "midi": 64,
        "time": 20,
        "duration": 0.45,
        "velocity": 0.55,
        "hand": "right"
      },
      {
        "midi": 55,
        "time": 20.75,
        "duration": 0.45,
        "velocity": 0.61,
        "hand": "right"
      },
      {
        "midi": 76,
        "time": 21.5,
        "duration": 0.5,
        "velocity": 0.63,
        "hand": "right"
      },
      {
        "midi": 72,
        "time": 22.25,
        "duration": 0.45,
        "velocity": 0.52,
        "hand": "right"
      },
      {
        "midi": 65,
        "time": 23,
        "duration": 0.45,
        "velocity": 0.53,
        "hand": "right"
      },
      {
        "midi": 60,
        "time": 23.75,
        "duration": 0.45,
        "velocity": 0.51,
        "hand": "right"
      },
      {
        "midi": 71,
        "time": 24.5,
        "duration": 0.45,
        "velocity": 0.4,
        "hand": "right"
      },
      {
        "midi": 62,
        "time": 25.25,
        "duration": 0.45,
        "velocity": 0.54,
        "hand": "right"
      },
      {
        "midi": 64,
        "time": 26,
        "duration": 0.45,
        "velocity": 0.54,
        "hand": "right"
      },
      {
        "midi": 55,
        "time": 26.75,
        "duration": 0.45,
        "velocity": 0.72,
        "hand": "right"
      },
      {
        "midi": 64,
        "time": 27.5,
        "duration": 0.45,
        "velocity": 0.56,
        "hand": "right"
      },
      {
        "midi": 69,
        "time": 28.25,
        "duration": 0.45,
        "velocity": 0.42,
        "hand": "right"
      },
      {
        "midi": 65,
        "time": 29,
        "duration": 0.485,
        "velocity": 0.54,
        "hand": "right"
      },
      {
        "midi": 62,
        "time": 29.75,
        "duration": 0.45,
        "velocity": 0.56,
        "hand": "right"
      },
      {
        "midi": 65,
        "time": 30.5,
        "duration": 0.45,
        "velocity": 0.56,
        "hand": "right"
      },
      {
        "midi": 69,
        "time": 31.25,
        "duration": 0.45,
        "velocity": 0.52,
        "hand": "right"
      },
      {
        "midi": 64,
        "time": 32,
        "duration": 0.45,
        "velocity": 0.55,
        "hand": "right"
      },
      {
        "midi": 55,
        "time": 32.75,
        "duration": 0.45,
        "velocity": 0.61,
        "hand": "right"
      },
      {
        "midi": 64,
        "time": 33.5,
        "duration": 0.45,
        "velocity": 0.72,
        "hand": "right"
      },
      {
        "midi": 72,
        "time": 34.25,
        "duration": 0.45,
        "velocity": 0.52,
        "hand": "right"
      },
      {
        "midi": 65,
        "time": 35,
        "duration": 0.45,
        "velocity": 0.53,
        "hand": "right"
      },
      {
        "midi": 60,
        "time": 35.75,
        "duration": 0.45,
        "velocity": 0.51,
        "hand": "right"
      },
      {
        "midi": 71,
        "time": 36.5,
        "duration": 0.45,
        "velocity": 0.4,
        "hand": "right"
      },
      {
        "midi": 62,
        "time": 37.25,
        "duration": 0.45,
        "velocity": 0.54,
        "hand": "right"
      },
      {
        "midi": 64,
        "time": 38,
        "duration": 0.45,
        "velocity": 0.54,
        "hand": "right"
      },
      {
        "midi": 59,
        "time": 38.75,
        "duration": 0.45,
        "velocity": 0.87,
        "hand": "right"
      },
      {
        "midi": 79,
        "time": 39.5,
        "duration": 0.5,
        "velocity": 0.76,
        "hand": "right"
      },
      {
        "midi": 69,
        "time": 40.25,
        "duration": 0.45,
        "velocity": 0.42,
        "hand": "right"
      },
      {
        "midi": 65,
        "time": 41,
        "duration": 0.485,
        "velocity": 0.54,
        "hand": "right"
      },
      {
        "midi": 62,
        "time": 41.75,
        "duration": 0.45,
        "velocity": 0.56,
        "hand": "right"
      },
      {
        "midi": 83,
        "time": 42.5,
        "duration": 0.5,
        "velocity": 0.76,
        "hand": "right"
      },
      {
        "midi": 69,
        "time": 43.25,
        "duration": 0.45,
        "velocity": 0.52,
        "hand": "right"
      },
      {
        "midi": 64,
        "time": 44,
        "duration": 0.45,
        "velocity": 0.55,
        "hand": "right"
      },
      {
        "midi": 55,
        "time": 44.75,
        "duration": 0.45,
        "velocity": 0.61,
        "hand": "right"
      },
      {
        "midi": 76,
        "time": 45.5,
        "duration": 0.5,
        "velocity": 0.63,
        "hand": "right"
      },
      {
        "midi": 72,
        "time": 46.25,
        "duration": 0.45,
        "velocity": 0.52,
        "hand": "right"
      },
      {
        "midi": 65,
        "time": 47,
        "duration": 0.45,
        "velocity": 0.53,
        "hand": "right"
      },
      {
        "midi": 60,
        "time": 47.75,
        "duration": 0.45,
        "velocity": 0.51,
        "hand": "right"
      },
      {
        "midi": 71,
        "time": 48.5,
        "duration": 0.45,
        "velocity": 0.4,
        "hand": "right"
      },
      {
        "midi": 62,
        "time": 49.25,
        "duration": 0.45,
        "velocity": 0.54,
        "hand": "right"
      },
      {
        "midi": 64,
        "time": 50,
        "duration": 0.45,
        "velocity": 0.54,
        "hand": "right"
      },
      {
        "midi": 63,
        "time": 50.875,
        "duration": 0.45,
        "velocity": 0.63,
        "hand": "right"
      },
      {
        "midi": 63,
        "time": 51.875,
        "duration": 0.45,
        "velocity": 0.63,
        "hand": "right"
      },
      {
        "midi": 67,
        "time": 52.75,
        "duration": 0.5,
        "velocity": 0.68,
        "hand": "right"
      },
      {
        "midi": 74,
        "time": 53.5,
        "duration": 0.5,
        "velocity": 0.64,
        "hand": "right"
      },
      {
        "midi": 62,
        "time": 54.25,
        "duration": 0.45,
        "velocity": 0.46,
        "hand": "right"
      },
      {
        "midi": 62,
        "time": 55,
        "duration": 0.45,
        "velocity": 0.69,
        "hand": "right"
      },
      {
        "midi": 62,
        "time": 55.75,
        "duration": 0.45,
        "velocity": 0.08,
        "hand": "right"
      }
    ],
    "medium": [
      {
        "midi": 50,
        "time": 0,
        "duration": 0.485,
        "velocity": 1,
        "hand": "left"
      },
      {
        "midi": 62,
        "time": 0,
        "duration": 0.5,
        "velocity": 0.72,
        "hand": "right"
      },
      {
        "midi": 51,
        "time": 0.875,
        "duration": 0.262,
        "velocity": 0.63,
        "hand": "left"
      },
      {
        "midi": 67,
        "time": 1.75,
        "duration": 0.5,
        "velocity": 0.68,
        "hand": "right"
      },
      {
        "midi": 74,
        "time": 2.5,
        "duration": 0.5,
        "velocity": 0.68,
        "hand": "right"
      },
      {
        "midi": 51,
        "time": 3.375,
        "duration": 0.262,
        "velocity": 0.63,
        "hand": "left"
      },
      {
        "midi": 64,
        "time": 3.375,
        "duration": 0.262,
        "velocity": 0.5,
        "hand": "right"
      },
      {
        "midi": 69,
        "time": 4.25,
        "duration": 0.262,
        "velocity": 0.42,
        "hand": "right"
      },
      {
        "midi": 50,
        "time": 5,
        "duration": 0.262,
        "velocity": 0.8,
        "hand": "left"
      },
      {
        "midi": 65,
        "time": 5,
        "duration": 0.485,
        "velocity": 0.54,
        "hand": "right"
      },
      {
        "midi": 47,
        "time": 5.75,
        "duration": 0.262,
        "velocity": 0.96,
        "hand": "left"
      },
      {
        "midi": 50,
        "time": 5.75,
        "duration": 0.262,
        "velocity": 0.56,
        "hand": "left"
      },
      {
        "midi": 50,
        "time": 6.5,
        "duration": 0.485,
        "velocity": 1,
        "hand": "left"
      },
      {
        "midi": 65,
        "time": 6.5,
        "duration": 0.262,
        "velocity": 0.56,
        "hand": "right"
      },
      {
        "midi": 55,
        "time": 7.25,
        "duration": 0.262,
        "velocity": 0.96,
        "hand": "left"
      },
      {
        "midi": 69,
        "time": 7.25,
        "duration": 0.262,
        "velocity": 0.52,
        "hand": "right"
      },
      {
        "midi": 50,
        "time": 8,
        "duration": 0.262,
        "velocity": 0.85,
        "hand": "left"
      },
      {
        "midi": 64,
        "time": 8,
        "duration": 0.262,
        "velocity": 0.55,
        "hand": "right"
      },
      {
        "midi": 43,
        "time": 8.75,
        "duration": 0.262,
        "velocity": 0.48,
        "hand": "left"
      },
      {
        "midi": 55,
        "time": 8.75,
        "duration": 0.262,
        "velocity": 0.61,
        "hand": "left"
      },
      {
        "midi": 50,
        "time": 9.5,
        "duration": 0.262,
        "velocity": 0.99,
        "hand": "left"
      },
      {
        "midi": 64,
        "time": 9.5,
        "duration": 0.375,
        "velocity": 0.72,
        "hand": "right"
      },
      {
        "midi": 72,
        "time": 10.25,
        "duration": 0.262,
        "velocity": 0.52,
        "hand": "right"
      },
      {
        "midi": 50,
        "time": 11,
        "duration": 0.262,
        "velocity": 0.86,
        "hand": "left"
      },
      {
        "midi": 65,
        "time": 11,
        "duration": 0.262,
        "velocity": 0.53,
        "hand": "right"
      },
      {
        "midi": 41,
        "time": 11.75,
        "duration": 0.262,
        "velocity": 0.8,
        "hand": "left"
      },
      {
        "midi": 48,
        "time": 11.75,
        "duration": 0.262,
        "velocity": 0.51,
        "hand": "left"
      },
      {
        "midi": 71,
        "time": 12.5,
        "duration": 0.262,
        "velocity": 0.4,
        "hand": "right"
      },
      {
        "midi": 55,
        "time": 13.25,
        "duration": 0.262,
        "velocity": 0.8,
        "hand": "left"
      },
      {
        "midi": 62,
        "time": 13.25,
        "duration": 0.262,
        "velocity": 0.54,
        "hand": "right"
      },
      {
        "midi": 50,
        "time": 14,
        "duration": 0.262,
        "velocity": 1,
        "hand": "left"
      },
      {
        "midi": 64,
        "time": 14,
        "duration": 0.262,
        "velocity": 0.54,
        "hand": "right"
      },
      {
        "midi": 47,
        "time": 14.75,
        "duration": 0.262,
        "velocity": 0.87,
        "hand": "left"
      },
      {
        "midi": 79,
        "time": 15.5,
        "duration": 0.5,
        "velocity": 0.76,
        "hand": "right"
      },
      {
        "midi": 69,
        "time": 16.25,
        "duration": 0.262,
        "velocity": 0.42,
        "hand": "right"
      },
      {
        "midi": 50,
        "time": 17,
        "duration": 0.262,
        "velocity": 0.95,
        "hand": "left"
      },
      {
        "midi": 65,
        "time": 17,
        "duration": 0.485,
        "velocity": 0.54,
        "hand": "right"
      },
      {
        "midi": 47,
        "time": 17.75,
        "duration": 0.262,
        "velocity": 0.96,
        "hand": "left"
      },
      {
        "midi": 50,
        "time": 17.75,
        "duration": 0.262,
        "velocity": 0.56,
        "hand": "left"
      },
      {
        "midi": 83,
        "time": 18.5,
        "duration": 0.5,
        "velocity": 0.76,
        "hand": "right"
      },
      {
        "midi": 55,
        "time": 19.25,
        "duration": 0.262,
        "velocity": 0.96,
        "hand": "left"
      },
      {
        "midi": 69,
        "time": 19.25,
        "duration": 0.262,
        "velocity": 0.52,
        "hand": "right"
      },
      {
        "midi": 50,
        "time": 20,
        "duration": 0.262,
        "velocity": 1,
        "hand": "left"
      },
      {
        "midi": 64,
        "time": 20,
        "duration": 0.262,
        "velocity": 0.55,
        "hand": "right"
      },
      {
        "midi": 43,
        "time": 20.75,
        "duration": 0.262,
        "velocity": 0.48,
        "hand": "left"
      },
      {
        "midi": 55,
        "time": 20.75,
        "duration": 0.262,
        "velocity": 0.61,
        "hand": "left"
      },
      {
        "midi": 76,
        "time": 21.5,
        "duration": 0.5,
        "velocity": 0.63,
        "hand": "right"
      },
      {
        "midi": 72,
        "time": 22.25,
        "duration": 0.262,
        "velocity": 0.52,
        "hand": "right"
      },
      {
        "midi": 50,
        "time": 23,
        "duration": 0.262,
        "velocity": 0.99,
        "hand": "left"
      },
      {
        "midi": 65,
        "time": 23,
        "duration": 0.262,
        "velocity": 0.53,
        "hand": "right"
      },
      {
        "midi": 41,
        "time": 23.75,
        "duration": 0.262,
        "velocity": 0.8,
        "hand": "left"
      },
      {
        "midi": 48,
        "time": 23.75,
        "duration": 0.262,
        "velocity": 0.51,
        "hand": "left"
      },
      {
        "midi": 71,
        "time": 24.5,
        "duration": 0.262,
        "velocity": 0.4,
        "hand": "right"
      },
      {
        "midi": 55,
        "time": 25.25,
        "duration": 0.262,
        "velocity": 0.8,
        "hand": "left"
      },
      {
        "midi": 62,
        "time": 25.25,
        "duration": 0.262,
        "velocity": 0.54,
        "hand": "right"
      },
      {
        "midi": 50,
        "time": 26,
        "duration": 0.262,
        "velocity": 0.95,
        "hand": "left"
      },
      {
        "midi": 64,
        "time": 26,
        "duration": 0.262,
        "velocity": 0.54,
        "hand": "right"
      },
      {
        "midi": 43,
        "time": 26.75,
        "duration": 0.262,
        "velocity": 0.72,
        "hand": "left"
      },
      {
        "midi": 50,
        "time": 27.5,
        "duration": 0.262,
        "velocity": 0.95,
        "hand": "left"
      },
      {
        "midi": 64,
        "time": 27.5,
        "duration": 0.262,
        "velocity": 0.56,
        "hand": "right"
      },
      {
        "midi": 69,
        "time": 28.25,
        "duration": 0.262,
        "velocity": 0.42,
        "hand": "right"
      },
      {
        "midi": 50,
        "time": 29,
        "duration": 0.262,
        "velocity": 0.8,
        "hand": "left"
      },
      {
        "midi": 65,
        "time": 29,
        "duration": 0.485,
        "velocity": 0.54,
        "hand": "right"
      },
      {
        "midi": 47,
        "time": 29.75,
        "duration": 0.262,
        "velocity": 0.96,
        "hand": "left"
      },
      {
        "midi": 50,
        "time": 29.75,
        "duration": 0.262,
        "velocity": 0.56,
        "hand": "left"
      },
      {
        "midi": 50,
        "time": 30.5,
        "duration": 0.485,
        "velocity": 1,
        "hand": "left"
      },
      {
        "midi": 65,
        "time": 30.5,
        "duration": 0.262,
        "velocity": 0.56,
        "hand": "right"
      },
      {
        "midi": 55,
        "time": 31.25,
        "duration": 0.262,
        "velocity": 0.96,
        "hand": "left"
      },
      {
        "midi": 69,
        "time": 31.25,
        "duration": 0.262,
        "velocity": 0.52,
        "hand": "right"
      },
      {
        "midi": 50,
        "time": 32,
        "duration": 0.262,
        "velocity": 0.85,
        "hand": "left"
      },
      {
        "midi": 64,
        "time": 32,
        "duration": 0.262,
        "velocity": 0.55,
        "hand": "right"
      },
      {
        "midi": 43,
        "time": 32.75,
        "duration": 0.262,
        "velocity": 0.48,
        "hand": "left"
      },
      {
        "midi": 55,
        "time": 32.75,
        "duration": 0.262,
        "velocity": 0.61,
        "hand": "left"
      },
      {
        "midi": 50,
        "time": 33.5,
        "duration": 0.262,
        "velocity": 0.99,
        "hand": "left"
      },
      {
        "midi": 64,
        "time": 33.5,
        "duration": 0.375,
        "velocity": 0.72,
        "hand": "right"
      },
      {
        "midi": 72,
        "time": 34.25,
        "duration": 0.262,
        "velocity": 0.52,
        "hand": "right"
      },
      {
        "midi": 50,
        "time": 35,
        "duration": 0.262,
        "velocity": 0.86,
        "hand": "left"
      },
      {
        "midi": 65,
        "time": 35,
        "duration": 0.262,
        "velocity": 0.53,
        "hand": "right"
      },
      {
        "midi": 41,
        "time": 35.75,
        "duration": 0.262,
        "velocity": 0.8,
        "hand": "left"
      },
      {
        "midi": 48,
        "time": 35.75,
        "duration": 0.262,
        "velocity": 0.51,
        "hand": "left"
      },
      {
        "midi": 71,
        "time": 36.5,
        "duration": 0.262,
        "velocity": 0.4,
        "hand": "right"
      },
      {
        "midi": 55,
        "time": 37.25,
        "duration": 0.262,
        "velocity": 0.8,
        "hand": "left"
      },
      {
        "midi": 62,
        "time": 37.25,
        "duration": 0.262,
        "velocity": 0.54,
        "hand": "right"
      },
      {
        "midi": 50,
        "time": 38,
        "duration": 0.262,
        "velocity": 1,
        "hand": "left"
      },
      {
        "midi": 64,
        "time": 38,
        "duration": 0.262,
        "velocity": 0.54,
        "hand": "right"
      },
      {
        "midi": 47,
        "time": 38.75,
        "duration": 0.262,
        "velocity": 0.87,
        "hand": "left"
      },
      {
        "midi": 79,
        "time": 39.5,
        "duration": 0.5,
        "velocity": 0.76,
        "hand": "right"
      },
      {
        "midi": 69,
        "time": 40.25,
        "duration": 0.262,
        "velocity": 0.42,
        "hand": "right"
      },
      {
        "midi": 50,
        "time": 41,
        "duration": 0.262,
        "velocity": 0.95,
        "hand": "left"
      },
      {
        "midi": 65,
        "time": 41,
        "duration": 0.485,
        "velocity": 0.54,
        "hand": "right"
      },
      {
        "midi": 47,
        "time": 41.75,
        "duration": 0.262,
        "velocity": 0.96,
        "hand": "left"
      },
      {
        "midi": 50,
        "time": 41.75,
        "duration": 0.262,
        "velocity": 0.56,
        "hand": "left"
      },
      {
        "midi": 83,
        "time": 42.5,
        "duration": 0.5,
        "velocity": 0.76,
        "hand": "right"
      },
      {
        "midi": 55,
        "time": 43.25,
        "duration": 0.262,
        "velocity": 0.96,
        "hand": "left"
      },
      {
        "midi": 69,
        "time": 43.25,
        "duration": 0.262,
        "velocity": 0.52,
        "hand": "right"
      },
      {
        "midi": 50,
        "time": 44,
        "duration": 0.262,
        "velocity": 1,
        "hand": "left"
      },
      {
        "midi": 64,
        "time": 44,
        "duration": 0.262,
        "velocity": 0.55,
        "hand": "right"
      },
      {
        "midi": 43,
        "time": 44.75,
        "duration": 0.262,
        "velocity": 0.48,
        "hand": "left"
      },
      {
        "midi": 55,
        "time": 44.75,
        "duration": 0.262,
        "velocity": 0.61,
        "hand": "left"
      },
      {
        "midi": 76,
        "time": 45.5,
        "duration": 0.5,
        "velocity": 0.63,
        "hand": "right"
      },
      {
        "midi": 72,
        "time": 46.25,
        "duration": 0.262,
        "velocity": 0.52,
        "hand": "right"
      },
      {
        "midi": 50,
        "time": 47,
        "duration": 0.262,
        "velocity": 0.99,
        "hand": "left"
      },
      {
        "midi": 65,
        "time": 47,
        "duration": 0.262,
        "velocity": 0.53,
        "hand": "right"
      },
      {
        "midi": 41,
        "time": 47.75,
        "duration": 0.262,
        "velocity": 0.8,
        "hand": "left"
      },
      {
        "midi": 48,
        "time": 47.75,
        "duration": 0.262,
        "velocity": 0.51,
        "hand": "left"
      },
      {
        "midi": 71,
        "time": 48.5,
        "duration": 0.262,
        "velocity": 0.4,
        "hand": "right"
      },
      {
        "midi": 55,
        "time": 49.25,
        "duration": 0.262,
        "velocity": 0.8,
        "hand": "left"
      },
      {
        "midi": 62,
        "time": 49.25,
        "duration": 0.262,
        "velocity": 0.54,
        "hand": "right"
      },
      {
        "midi": 50,
        "time": 50,
        "duration": 0.262,
        "velocity": 0.95,
        "hand": "left"
      },
      {
        "midi": 64,
        "time": 50,
        "duration": 0.262,
        "velocity": 0.54,
        "hand": "right"
      },
      {
        "midi": 51,
        "time": 50.875,
        "duration": 0.262,
        "velocity": 0.63,
        "hand": "left"
      },
      {
        "midi": 51,
        "time": 51.875,
        "duration": 0.262,
        "velocity": 0.63,
        "hand": "left"
      },
      {
        "midi": 67,
        "time": 52.75,
        "duration": 0.5,
        "velocity": 0.68,
        "hand": "right"
      },
      {
        "midi": 74,
        "time": 53.5,
        "duration": 0.5,
        "velocity": 0.64,
        "hand": "right"
      },
      {
        "midi": 38,
        "time": 54.25,
        "duration": 0.262,
        "velocity": 0.46,
        "hand": "left"
      },
      {
        "midi": 38,
        "time": 55,
        "duration": 0.262,
        "velocity": 0.69,
        "hand": "left"
      },
      {
        "midi": 38,
        "time": 55.75,
        "duration": 0.262,
        "velocity": 0.08,
        "hand": "left"
      }
    ],
    "hard": [
      {
        "midi": 38,
        "time": 0,
        "duration": 0.485,
        "velocity": 1,
        "hand": "left"
      },
      {
        "midi": 47,
        "time": 0,
        "duration": 0.063,
        "velocity": 0.89,
        "hand": "left"
      },
      {
        "midi": 62,
        "time": 0,
        "duration": 0.5,
        "velocity": 0.72,
        "hand": "right"
      },
      {
        "midi": 51,
        "time": 0.375,
        "duration": 0.063,
        "velocity": 0.63,
        "hand": "left"
      },
      {
        "midi": 53,
        "time": 0.375,
        "duration": 0.11,
        "velocity": 0.7,
        "hand": "left"
      },
      {
        "midi": 60,
        "time": 0.375,
        "duration": 0.11,
        "velocity": 0.75,
        "hand": "right"
      },
      {
        "midi": 64,
        "time": 0.375,
        "duration": 0.11,
        "velocity": 0.69,
        "hand": "right"
      },
      {
        "midi": 38,
        "time": 0.5,
        "duration": 0.063,
        "velocity": 0.99,
        "hand": "left"
      },
      {
        "midi": 51,
        "time": 0.5,
        "duration": 0.063,
        "velocity": 0.63,
        "hand": "left"
      },
      {
        "midi": 60,
        "time": 0.5,
        "duration": 0.125,
        "velocity": 0.61,
        "hand": "right"
      },
      {
        "midi": 64,
        "time": 0.5,
        "duration": 0.485,
        "velocity": 0.8,
        "hand": "right"
      },
      {
        "midi": 51,
        "time": 0.875,
        "duration": 0.063,
        "velocity": 0.63,
        "hand": "left"
      },
      {
        "midi": 38,
        "time": 1,
        "duration": 0.5,
        "velocity": 1,
        "hand": "left"
      },
      {
        "midi": 51,
        "time": 1,
        "duration": 0.063,
        "velocity": 0.63,
        "hand": "left"
      },
      {
        "midi": 60,
        "time": 1,
        "duration": 0.375,
        "velocity": 0.72,
        "hand": "right"
      },
      {
        "midi": 65,
        "time": 1,
        "duration": 0.5,
        "velocity": 0.57,
        "hand": "right"
      },
      {
        "midi": 51,
        "time": 1.375,
        "duration": 0.063,
        "velocity": 0.63,
        "hand": "left"
      },
      {
        "midi": 37,
        "time": 1.5,
        "duration": 0.985,
        "velocity": 1,
        "hand": "left"
      },
      {
        "midi": 47,
        "time": 1.5,
        "duration": 0.063,
        "velocity": 0.87,
        "hand": "left"
      },
      {
        "midi": 67,
        "time": 1.5,
        "duration": 0.235,
        "velocity": 0.53,
        "hand": "right"
      },
      {
        "midi": 38,
        "time": 1.75,
        "duration": 0.063,
        "velocity": 1,
        "hand": "left"
      },
      {
        "midi": 56,
        "time": 1.75,
        "duration": 0.11,
        "velocity": 0.72,
        "hand": "left"
      },
      {
        "midi": 63,
        "time": 1.75,
        "duration": 0.11,
        "velocity": 0.57,
        "hand": "right"
      },
      {
        "midi": 67,
        "time": 1.75,
        "duration": 0.5,
        "velocity": 0.68,
        "hand": "right"
      },
      {
        "midi": 38,
        "time": 1.875,
        "duration": 0.063,
        "velocity": 1,
        "hand": "left"
      },
      {
        "midi": 51,
        "time": 1.875,
        "duration": 0.063,
        "velocity": 0.63,
        "hand": "left"
      },
      {
        "midi": 63,
        "time": 1.875,
        "duration": 0.11,
        "velocity": 0.5,
        "hand": "right"
      },
      {
        "midi": 38,
        "time": 2,
        "duration": 0.063,
        "velocity": 0.86,
        "hand": "left"
      },
      {
        "midi": 53,
        "time": 2,
        "duration": 0.125,
        "velocity": 0.4,
        "hand": "left"
      },
      {
        "midi": 63,
        "time": 2,
        "duration": 0.125,
        "velocity": 0.42,
        "hand": "right"
      },
      {
        "midi": 71,
        "time": 2,
        "duration": 0.5,
        "velocity": 0.8,
        "hand": "right"
      },
      {
        "midi": 51,
        "time": 2.125,
        "duration": 0.063,
        "velocity": 0.63,
        "hand": "left"
      },
      {
        "midi": 51,
        "time": 2.375,
        "duration": 0.063,
        "velocity": 0.63,
        "hand": "left"
      },
      {
        "midi": 38,
        "time": 2.5,
        "duration": 0.063,
        "velocity": 1,
        "hand": "left"
      },
      {
        "midi": 63,
        "time": 2.5,
        "duration": 0.375,
        "velocity": 0.61,
        "hand": "right"
      },
      {
        "midi": 67,
        "time": 2.5,
        "duration": 0.375,
        "velocity": 0.74,
        "hand": "right"
      },
      {
        "midi": 74,
        "time": 2.5,
        "duration": 0.5,
        "velocity": 0.68,
        "hand": "right"
      },
      {
        "midi": 51,
        "time": 2.875,
        "duration": 0.063,
        "velocity": 0.63,
        "hand": "left"
      },
      {
        "midi": 36,
        "time": 3,
        "duration": 1,
        "velocity": 0.98,
        "hand": "left"
      },
      {
        "midi": 47,
        "time": 3,
        "duration": 0.063,
        "velocity": 0.93,
        "hand": "left"
      },
      {
        "midi": 60,
        "time": 3,
        "duration": 0.36,
        "velocity": 0.68,
        "hand": "right"
      },
      {
        "midi": 64,
        "time": 3,
        "duration": 0.36,
        "velocity": 0.56,
        "hand": "right"
      },
      {
        "midi": 67,
        "time": 3,
        "duration": 0.5,
        "velocity": 0.7,
        "hand": "right"
      },
      {
        "midi": 51,
        "time": 3.375,
        "duration": 0.063,
        "velocity": 0.63,
        "hand": "left"
      },
      {
        "midi": 55,
        "time": 3.375,
        "duration": 0.11,
        "velocity": 0.5,
        "hand": "left"
      },
      {
        "midi": 60,
        "time": 3.375,
        "duration": 0.11,
        "velocity": 0.56,
        "hand": "right"
      },
      {
        "midi": 64,
        "time": 3.375,
        "duration": 0.11,
        "velocity": 0.5,
        "hand": "right"
      },
      {
        "midi": 38,
        "time": 3.5,
        "duration": 0.063,
        "velocity": 0.95,
        "hand": "left"
      },
      {
        "midi": 51,
        "time": 3.5,
        "duration": 0.063,
        "velocity": 0.63,
        "hand": "left"
      },
      {
        "midi": 60,
        "time": 3.5,
        "duration": 0.063,
        "velocity": 0.57,
        "hand": "right"
      },
      {
        "midi": 64,
        "time": 3.5,
        "duration": 0.25,
        "velocity": 0.56,
        "hand": "right"
      },
      {
        "midi": 72,
        "time": 3.75,
        "duration": 0.25,
        "velocity": 0.56,
        "hand": "right"
      },
      {
        "midi": 51,
        "time": 3.875,
        "duration": 0.063,
        "velocity": 0.63,
        "hand": "left"
      },
      {
        "midi": 38,
        "time": 4,
        "duration": 0.063,
        "velocity": 1,
        "hand": "left"
      },
      {
        "midi": 43,
        "time": 4,
        "duration": 0.25,
        "velocity": 1,
        "hand": "left"
      },
      {
        "midi": 60,
        "time": 4,
        "duration": 0.375,
        "velocity": 0.69,
        "hand": "right"
      },
      {
        "midi": 64,
        "time": 4,
        "duration": 0.375,
        "velocity": 0.56,
        "hand": "right"
      },
      {
        "midi": 71,
        "time": 4,
        "duration": 0.25,
        "velocity": 0.5,
        "hand": "right"
      },
      {
        "midi": 36,
        "time": 4.25,
        "duration": 0.25,
        "velocity": 0.8,
        "hand": "left"
      },
      {
        "midi": 69,
        "time": 4.25,
        "duration": 0.25,
        "velocity": 0.42,
        "hand": "right"
      },
      {
        "midi": 51,
        "time": 4.375,
        "duration": 0.063,
        "velocity": 0.63,
        "hand": "left"
      },
      {
        "midi": 43,
        "time": 4.5,
        "duration": 0.875,
        "velocity": 1,
        "hand": "left"
      },
      {
        "midi": 47,
        "time": 4.5,
        "duration": 0.063,
        "velocity": 0.91,
        "hand": "left"
      },
      {
        "midi": 62,
        "time": 4.5,
        "duration": 0.36,
        "velocity": 0.4,
        "hand": "right"
      },
      {
        "midi": 67,
        "time": 4.5,
        "duration": 0.5,
        "velocity": 0.54,
        "hand": "right"
      },
      {
        "midi": 38,
        "time": 4.75,
        "duration": 0.063,
        "velocity": 1,
        "hand": "left"
      },
      {
        "midi": 59,
        "time": 4.75,
        "duration": 0.11,
        "velocity": 0.68,
        "hand": "left"
      },
      {
        "midi": 38,
        "time": 4.875,
        "duration": 0.063,
        "velocity": 0.97,
        "hand": "left"
      },
      {
        "midi": 51,
        "time": 4.875,
        "duration": 0.063,
        "velocity": 0.63,
        "hand": "left"
      },
      {
        "midi": 62,
        "time": 4.875,
        "duration": 0.11,
        "velocity": 0.56,
        "hand": "right"
      },
      {
        "midi": 38,
        "time": 5,
        "duration": 0.063,
        "velocity": 0.8,
        "hand": "left"
      },
      {
        "midi": 51,
        "time": 5,
        "duration": 0.063,
        "velocity": 0.63,
        "hand": "left"
      },
      {
        "midi": 62,
        "time": 5,
        "duration": 0.25,
        "velocity": 0.57,
        "hand": "right"
      },
      {
        "midi": 65,
        "time": 5,
        "duration": 0.485,
        "velocity": 0.54,
        "hand": "right"
      },
      {
        "midi": 55,
        "time": 5.25,
        "duration": 0.235,
        "velocity": 0.69,
        "hand": "left"
      },
      {
        "midi": 51,
        "time": 5.375,
        "duration": 0.063,
        "velocity": 0.63,
        "hand": "left"
      },
      {
        "midi": 38,
        "time": 5.5,
        "duration": 0.25,
        "velocity": 1,
        "hand": "left"
      },
      {
        "midi": 51,
        "time": 5.5,
        "duration": 0.063,
        "velocity": 0.63,
        "hand": "left"
      },
      {
        "midi": 62,
        "time": 5.5,
        "duration": 0.375,
        "velocity": 0.51,
        "hand": "right"
      },
      {
        "midi": 65,
        "time": 5.5,
        "duration": 0.375,
        "velocity": 0.72,
        "hand": "right"
      },
      {
        "midi": 67,
        "time": 5.5,
        "duration": 0.25,
        "velocity": 0.51,
        "hand": "right"
      },
      {
        "midi": 69,
        "time": 5.5,
        "duration": 0.375,
        "velocity": 0.57,
        "hand": "right"
      },
      {
        "midi": 47,
        "time": 5.75,
        "duration": 0.235,
        "velocity": 0.96,
        "hand": "left"
      },
      {
        "midi": 50,
        "time": 5.75,
        "duration": 0.25,
        "velocity": 0.56,
        "hand": "left"
      },
      {
        "midi": 51,
        "time": 5.875,
        "duration": 0.063,
        "velocity": 0.63,
        "hand": "left"
      },
      {
        "midi": 43,
        "time": 6,
        "duration": 1.235,
        "velocity": 0.98,
        "hand": "left"
      },
      {
        "midi": 47,
        "time": 6,
        "duration": 0.063,
        "velocity": 0.89,
        "hand": "left"
      },
      {
        "midi": 65,
        "time": 6,
        "duration": 0.36,
        "velocity": 0.72,
        "hand": "right"
      },
      {
        "midi": 69,
        "time": 6,
        "duration": 0.5,
        "velocity": 0.59,
        "hand": "right"
      },
      {
        "midi": 62,
        "time": 6.25,
        "duration": 0.11,
        "velocity": 0.72,
        "hand": "right"
      },
      {
        "midi": 51,
        "time": 6.375,
        "duration": 0.063,
        "velocity": 0.63,
        "hand": "left"
      },
      {
        "midi": 55,
        "time": 6.375,
        "duration": 0.11,
        "velocity": 0.53,
        "hand": "left"
      },
      {
        "midi": 62,
        "time": 6.375,
        "duration": 0.11,
        "velocity": 0.54,
        "hand": "right"
      },
      {
        "midi": 65,
        "time": 6.375,
        "duration": 0.11,
        "velocity": 0.53,
        "hand": "right"
      },
      {
        "midi": 38,
        "time": 6.5,
        "duration": 0.485,
        "velocity": 1,
        "hand": "left"
      },
      {
        "midi": 51,
        "time": 6.5,
        "duration": 0.063,
        "velocity": 0.63,
        "hand": "left"
      },
      {
        "midi": 62,
        "time": 6.5,
        "duration": 0.063,
        "velocity": 0.57,
        "hand": "right"
      },
      {
        "midi": 65,
        "time": 6.5,
        "duration": 0.25,
        "velocity": 0.56,
        "hand": "right"
      },
      {
        "midi": 55,
        "time": 6.75,
        "duration": 0.235,
        "velocity": 0.58,
        "hand": "left"
      },
      {
        "midi": 72,
        "time": 6.75,
        "duration": 0.25,
        "velocity": 0.55,
        "hand": "right"
      },
      {
        "midi": 51,
        "time": 6.875,
        "duration": 0.063,
        "velocity": 0.63,
        "hand": "left"
      },
      {
        "midi": 38,
        "time": 7,
        "duration": 0.063,
        "velocity": 1,
        "hand": "left"
      },
      {
        "midi": 47,
        "time": 7,
        "duration": 0.25,
        "velocity": 0.97,
        "hand": "left"
      },
      {
        "midi": 62,
        "time": 7,
        "duration": 0.375,
        "velocity": 0.55,
        "hand": "right"
      },
      {
        "midi": 65,
        "time": 7,
        "duration": 0.375,
        "velocity": 0.72,
        "hand": "right"
      },
      {
        "midi": 71,
        "time": 7,
        "duration": 0.25,
        "velocity": 0.52,
        "hand": "right"
      },
      {
        "midi": 43,
        "time": 7.25,
        "duration": 0.25,
        "velocity": 0.96,
        "hand": "left"
      },
      {
        "midi": 50,
        "time": 7.25,
        "duration": 0.25,
        "velocity": 0.46,
        "hand": "left"
      },
      {
        "midi": 69,
        "time": 7.25,
        "duration": 0.25,
        "velocity": 0.52,
        "hand": "right"
      },
      {
        "midi": 51,
        "time": 7.375,
        "duration": 0.063,
        "velocity": 0.63,
        "hand": "left"
      },
      {
        "midi": 59,
        "time": 7.375,
        "duration": 0.125,
        "velocity": 0.42,
        "hand": "left"
      },
      {
        "midi": 36,
        "time": 7.5,
        "duration": 1.25,
        "velocity": 0.95,
        "hand": "left"
      },
      {
        "midi": 47,
        "time": 7.5,
        "duration": 0.063,
        "velocity": 0.97,
        "hand": "left"
      },
      {
        "midi": 60,
        "time": 7.5,
        "duration": 0.235,
        "velocity": 0.52,
        "hand": "right"
      },
      {
        "midi": 62,
        "time": 7.5,
        "duration": 0.063,
        "velocity": 0.22,
        "hand": "right"
      },
      {
        "midi": 64,
        "time": 7.5,
        "duration": 0.36,
        "velocity": 0.58,
        "hand": "right"
      },
      {
        "midi": 67,
        "time": 7.5,
        "duration": 0.875,
        "velocity": 0.57,
        "hand": "right"
      },
      {
        "midi": 38,
        "time": 7.75,
        "duration": 0.063,
        "velocity": 1,
        "hand": "left"
      },
      {
        "midi": 60,
        "time": 7.75,
        "duration": 0.11,
        "velocity": 0.75,
        "hand": "right"
      },
      {
        "midi": 38,
        "time": 7.875,
        "duration": 0.063,
        "velocity": 0.91,
        "hand": "left"
      },
      {
        "midi": 51,
        "time": 7.875,
        "duration": 0.063,
        "velocity": 0.63,
        "hand": "left"
      },
      {
        "midi": 60,
        "time": 7.875,
        "duration": 0.063,
        "velocity": 0.61,
        "hand": "right"
      },
      {
        "midi": 64,
        "time": 7.875,
        "duration": 0.11,
        "velocity": 0.47,
        "hand": "right"
      },
      {
        "midi": 38,
        "time": 8,
        "duration": 0.063,
        "velocity": 0.85,
        "hand": "left"
      },
      {
        "midi": 40,
        "time": 8,
        "duration": 0.75,
        "velocity": 0.28,
        "hand": "left"
      },
      {
        "midi": 60,
        "time": 8,
        "duration": 0.063,
        "velocity": 0.65,
        "hand": "right"
      },
      {
        "midi": 64,
        "time": 8,
        "duration": 0.125,
        "velocity": 0.55,
        "hand": "right"
      },
      {
        "midi": 55,
        "time": 8.25,
        "duration": 0.235,
        "velocity": 0.5,
        "hand": "left"
      },
      {
        "midi": 51,
        "time": 8.375,
        "duration": 0.063,
        "velocity": 0.63,
        "hand": "left"
      },
      {
        "midi": 38,
        "time": 8.5,
        "duration": 0.063,
        "velocity": 1,
        "hand": "left"
      },
      {
        "midi": 43,
        "time": 8.5,
        "duration": 0.235,
        "velocity": 1,
        "hand": "left"
      },
      {
        "midi": 60,
        "time": 8.5,
        "duration": 0.25,
        "velocity": 0.57,
        "hand": "right"
      },
      {
        "midi": 64,
        "time": 8.5,
        "duration": 0.25,
        "velocity": 0.69,
        "hand": "right"
      },
      {
        "midi": 67,
        "time": 8.5,
        "duration": 0.375,
        "velocity": 0.57,
        "hand": "right"
      },
      {
        "midi": 43,
        "time": 8.75,
        "duration": 0.25,
        "velocity": 0.48,
        "hand": "left"
      },
      {
        "midi": 55,
        "time": 8.75,
        "duration": 0.125,
        "velocity": 0.61,
        "hand": "left"
      },
      {
        "midi": 51,
        "time": 8.875,
        "duration": 0.063,
        "velocity": 0.63,
        "hand": "left"
      },
      {
        "midi": 72,
        "time": 8.875,
        "duration": 0.75,
        "velocity": 0.72,
        "hand": "right"
      },
      {
        "midi": 36,
        "time": 9,
        "duration": 1,
        "velocity": 0.97,
        "hand": "left"
      },
      {
        "midi": 47,
        "time": 9,
        "duration": 0.063,
        "velocity": 0.89,
        "hand": "left"
      },
      {
        "midi": 60,
        "time": 9,
        "duration": 0.36,
        "velocity": 0.75,
        "hand": "right"
      },
      {
        "midi": 65,
        "time": 9,
        "duration": 1,
        "velocity": 0.72,
        "hand": "right"
      },
      {
        "midi": 51,
        "time": 9.375,
        "duration": 0.063,
        "velocity": 0.63,
        "hand": "left"
      },
      {
        "midi": 55,
        "time": 9.375,
        "duration": 0.11,
        "velocity": 0.53,
        "hand": "left"
      },
      {
        "midi": 60,
        "time": 9.375,
        "duration": 0.063,
        "velocity": 0.61,
        "hand": "right"
      },
      {
        "midi": 64,
        "time": 9.375,
        "duration": 0.063,
        "velocity": 0.51,
        "hand": "right"
      },
      {
        "midi": 38,
        "time": 9.5,
        "duration": 0.063,
        "velocity": 0.99,
        "hand": "left"
      },
      {
        "midi": 51,
        "time": 9.5,
        "duration": 0.063,
        "velocity": 0.63,
        "hand": "left"
      },
      {
        "midi": 60,
        "time": 9.5,
        "duration": 0.375,
        "velocity": 0.69,
        "hand": "right"
      },
      {
        "midi": 64,
        "time": 9.5,
        "duration": 0.375,
        "velocity": 0.72,
        "hand": "right"
      },
      {
        "midi": 72,
        "time": 9.75,
        "duration": 0.25,
        "velocity": 0.63,
        "hand": "right"
      },
      {
        "midi": 51,
        "time": 9.875,
        "duration": 0.063,
        "velocity": 0.63,
        "hand": "left"
      },
      {
        "midi": 38,
        "time": 10,
        "duration": 0.063,
        "velocity": 1,
        "hand": "left"
      },
      {
        "midi": 43,
        "time": 10,
        "duration": 0.25,
        "velocity": 1,
        "hand": "left"
      },
      {
        "midi": 60,
        "time": 10,
        "duration": 0.375,
        "velocity": 0.74,
        "hand": "right"
      },
      {
        "midi": 64,
        "time": 10,
        "duration": 0.375,
        "velocity": 0.7,
        "hand": "right"
      },
      {
        "midi": 74,
        "time": 10,
        "duration": 0.25,
        "velocity": 0.56,
        "hand": "right"
      },
      {
        "midi": 36,
        "time": 10.25,
        "duration": 0.25,
        "velocity": 0.84,
        "hand": "left"
      },
      {
        "midi": 72,
        "time": 10.25,
        "duration": 0.25,
        "velocity": 0.52,
        "hand": "right"
      },
      {
        "midi": 51,
        "time": 10.375,
        "duration": 0.063,
        "velocity": 0.63,
        "hand": "left"
      },
      {
        "midi": 41,
        "time": 10.5,
        "duration": 1.235,
        "velocity": 0.99,
        "hand": "left"
      },
      {
        "midi": 47,
        "time": 10.5,
        "duration": 0.063,
        "velocity": 0.87,
        "hand": "left"
      },
      {
        "midi": 60,
        "time": 10.5,
        "duration": 0.36,
        "velocity": 0.65,
        "hand": "right"
      },
      {
        "midi": 64,
        "time": 10.5,
        "duration": 0.875,
        "velocity": 0.54,
        "hand": "right"
      },
      {
        "midi": 71,
        "time": 10.5,
        "duration": 0.5,
        "velocity": 0.54,
        "hand": "right"
      },
      {
        "midi": 38,
        "time": 10.75,
        "duration": 0.063,
        "velocity": 1,
        "hand": "left"
      },
      {
        "midi": 38,
        "time": 10.875,
        "duration": 0.063,
        "velocity": 1,
        "hand": "left"
      },
      {
        "midi": 45,
        "time": 10.875,
        "duration": 0.75,
        "velocity": 0.5,
        "hand": "left"
      },
      {
        "midi": 60,
        "time": 10.875,
        "duration": 0.063,
        "velocity": 0.69,
        "hand": "right"
      },
      {
        "midi": 65,
        "time": 10.875,
        "duration": 0.11,
        "velocity": 0.56,
        "hand": "right"
      },
      {
        "midi": 69,
        "time": 10.875,
        "duration": 0.375,
        "velocity": 0.5,
        "hand": "right"
      },
      {
        "midi": 38,
        "time": 11,
        "duration": 0.063,
        "velocity": 0.86,
        "hand": "left"
      },
      {
        "midi": 54,
        "time": 11,
        "duration": 0.063,
        "velocity": 0.55,
        "hand": "left"
      },
      {
        "midi": 60,
        "time": 11,
        "duration": 0.063,
        "velocity": 0.72,
        "hand": "right"
      },
      {
        "midi": 65,
        "time": 11,
        "duration": 0.125,
        "velocity": 0.53,
        "hand": "right"
      },
      {
        "midi": 51,
        "time": 11.125,
        "duration": 0.063,
        "velocity": 0.63,
        "hand": "left"
      },
      {
        "midi": 51,
        "time": 11.375,
        "duration": 0.063,
        "velocity": 0.63,
        "hand": "left"
      },
      {
        "midi": 36,
        "time": 11.5,
        "duration": 0.25,
        "velocity": 0.8,
        "hand": "left"
      },
      {
        "midi": 38,
        "time": 11.5,
        "duration": 0.063,
        "velocity": 1,
        "hand": "left"
      },
      {
        "midi": 60,
        "time": 11.5,
        "duration": 0.25,
        "velocity": 0.54,
        "hand": "right"
      },
      {
        "midi": 65,
        "time": 11.5,
        "duration": 0.375,
        "velocity": 0.72,
        "hand": "right"
      },
      {
        "midi": 69,
        "time": 11.5,
        "duration": 0.5,
        "velocity": 0.57,
        "hand": "right"
      },
      {
        "midi": 41,
        "time": 11.75,
        "duration": 0.25,
        "velocity": 0.8,
        "hand": "left"
      },
      {
        "midi": 48,
        "time": 11.75,
        "duration": 0.25,
        "velocity": 0.51,
        "hand": "left"
      },
      {
        "midi": 43,
        "time": 11.875,
        "duration": 0.11,
        "velocity": 0.45,
        "hand": "left"
      },
      {
        "midi": 51,
        "time": 11.875,
        "duration": 0.063,
        "velocity": 0.63,
        "hand": "left"
      },
      {
        "midi": 67,
        "time": 11.875,
        "duration": 0.5,
        "velocity": 0.49,
        "hand": "right"
      },
      {
        "midi": 43,
        "time": 12,
        "duration": 1,
        "velocity": 1,
        "hand": "left"
      },
      {
        "midi": 47,
        "time": 12,
        "duration": 0.063,
        "velocity": 0.93,
        "hand": "left"
      },
      {
        "midi": 60,
        "time": 12,
        "duration": 0.063,
        "velocity": 0.24,
        "hand": "right"
      },
      {
        "midi": 62,
        "time": 12,
        "duration": 0.36,
        "velocity": 0.63,
        "hand": "right"
      },
      {
        "midi": 59,
        "time": 12.25,
        "duration": 0.11,
        "velocity": 0.73,
        "hand": "left"
      },
      {
        "midi": 47,
        "time": 12.375,
        "duration": 0.875,
        "velocity": 0.17,
        "hand": "left"
      },
      {
        "midi": 51,
        "time": 12.375,
        "duration": 0.063,
        "velocity": 0.63,
        "hand": "left"
      },
      {
        "midi": 62,
        "time": 12.375,
        "duration": 0.063,
        "velocity": 0.61,
        "hand": "right"
      },
      {
        "midi": 64,
        "time": 12.375,
        "duration": 0.063,
        "velocity": 0.57,
        "hand": "right"
      },
      {
        "midi": 69,
        "time": 12.375,
        "duration": 0.11,
        "velocity": 0.58,
        "hand": "right"
      },
      {
        "midi": 38,
        "time": 12.5,
        "duration": 0.063,
        "velocity": 0.95,
        "hand": "left"
      },
      {
        "midi": 51,
        "time": 12.5,
        "duration": 0.063,
        "velocity": 0.63,
        "hand": "left"
      },
      {
        "midi": 62,
        "time": 12.5,
        "duration": 0.125,
        "velocity": 0.54,
        "hand": "right"
      },
      {
        "midi": 64,
        "time": 12.5,
        "duration": 0.125,
        "velocity": 0.56,
        "hand": "right"
      },
      {
        "midi": 69,
        "time": 12.5,
        "duration": 0.125,
        "velocity": 0.46,
        "hand": "right"
      },
      {
        "midi": 71,
        "time": 12.5,
        "duration": 0.25,
        "velocity": 0.4,
        "hand": "right"
      },
      {
        "midi": 53,
        "time": 12.75,
        "duration": 0.25,
        "velocity": 0.63,
        "hand": "left"
      },
      {
        "midi": 69,
        "time": 12.75,
        "duration": 0.235,
        "velocity": 0.5,
        "hand": "right"
      },
      {
        "midi": 51,
        "time": 12.875,
        "duration": 0.063,
        "velocity": 0.63,
        "hand": "left"
      },
      {
        "midi": 38,
        "time": 13,
        "duration": 0.25,
        "velocity": 1,
        "hand": "left"
      },
      {
        "midi": 51,
        "time": 13,
        "duration": 0.063,
        "velocity": 0.63,
        "hand": "left"
      },
      {
        "midi": 62,
        "time": 13,
        "duration": 0.235,
        "velocity": 0.72,
        "hand": "right"
      },
      {
        "midi": 65,
        "time": 13,
        "duration": 0.25,
        "velocity": 0.54,
        "hand": "right"
      },
      {
        "midi": 69,
        "time": 13,
        "duration": 0.25,
        "velocity": 0.69,
        "hand": "right"
      },
      {
        "midi": 43,
        "time": 13.25,
        "duration": 0.125,
        "velocity": 0.8,
        "hand": "left"
      },
      {
        "midi": 50,
        "time": 13.25,
        "duration": 0.25,
        "velocity": 0.51,
        "hand": "left"
      },
      {
        "midi": 62,
        "time": 13.25,
        "duration": 0.235,
        "velocity": 0.54,
        "hand": "right"
      },
      {
        "midi": 51,
        "time": 13.375,
        "duration": 0.063,
        "velocity": 0.63,
        "hand": "left"
      },
      {
        "midi": 36,
        "time": 13.5,
        "duration": 0.75,
        "velocity": 0.57,
        "hand": "left"
      },
      {
        "midi": 47,
        "time": 13.5,
        "duration": 0.063,
        "velocity": 0.91,
        "hand": "left"
      },
      {
        "midi": 60,
        "time": 13.5,
        "duration": 0.36,
        "velocity": 0.57,
        "hand": "right"
      },
      {
        "midi": 62,
        "time": 13.5,
        "duration": 0.75,
        "velocity": 0.36,
        "hand": "right"
      },
      {
        "midi": 64,
        "time": 13.5,
        "duration": 0.36,
        "velocity": 0.34,
        "hand": "right"
      },
      {
        "midi": 38,
        "time": 13.75,
        "duration": 0.063,
        "velocity": 1,
        "hand": "left"
      },
      {
        "midi": 51,
        "time": 13.875,
        "duration": 0.063,
        "velocity": 0.63,
        "hand": "left"
      },
      {
        "midi": 55,
        "time": 13.875,
        "duration": 0.11,
        "velocity": 0.56,
        "hand": "left"
      },
      {
        "midi": 60,
        "time": 13.875,
        "duration": 0.063,
        "velocity": 0.68,
        "hand": "right"
      },
      {
        "midi": 64,
        "time": 13.875,
        "duration": 0.11,
        "velocity": 0.52,
        "hand": "right"
      },
      {
        "midi": 38,
        "time": 14,
        "duration": 0.063,
        "velocity": 1,
        "hand": "left"
      },
      {
        "midi": 51,
        "time": 14,
        "duration": 0.063,
        "velocity": 0.63,
        "hand": "left"
      },
      {
        "midi": 60,
        "time": 14,
        "duration": 0.125,
        "velocity": 0.57,
        "hand": "right"
      },
      {
        "midi": 64,
        "time": 14,
        "duration": 0.125,
        "velocity": 0.54,
        "hand": "right"
      },
      {
        "midi": 43,
        "time": 14.25,
        "duration": 0.063,
        "velocity": 1,
        "hand": "left"
      },
      {
        "midi": 51,
        "time": 14.375,
        "duration": 0.063,
        "velocity": 0.63,
        "hand": "left"
      },
      {
        "midi": 45,
        "time": 14.5,
        "duration": 0.063,
        "velocity": 1,
        "hand": "left"
      },
      {
        "midi": 51,
        "time": 14.5,
        "duration": 0.063,
        "velocity": 0.63,
        "hand": "left"
      },
      {
        "midi": 60,
        "time": 14.5,
        "duration": 0.125,
        "velocity": 0.73,
        "hand": "right"
      },
      {
        "midi": 64,
        "time": 14.5,
        "duration": 0.125,
        "velocity": 0.61,
        "hand": "right"
      },
      {
        "midi": 67,
        "time": 14.5,
        "duration": 0.375,
        "velocity": 0.74,
        "hand": "right"
      },
      {
        "midi": 47,
        "time": 14.75,
        "duration": 0.063,
        "velocity": 0.87,
        "hand": "left"
      },
      {
        "midi": 38,
        "time": 14.875,
        "duration": 0.063,
        "velocity": 0.87,
        "hand": "left"
      },
      {
        "midi": 51,
        "time": 14.875,
        "duration": 0.063,
        "velocity": 0.63,
        "hand": "left"
      },
      {
        "midi": 60,
        "time": 14.875,
        "duration": 0.11,
        "velocity": 0.35,
        "hand": "right"
      },
      {
        "midi": 64,
        "time": 14.875,
        "duration": 0.11,
        "velocity": 0.31,
        "hand": "right"
      },
      {
        "midi": 36,
        "time": 15,
        "duration": 1,
        "velocity": 0.98,
        "hand": "left"
      },
      {
        "midi": 47,
        "time": 15,
        "duration": 0.063,
        "velocity": 0.87,
        "hand": "left"
      },
      {
        "midi": 60,
        "time": 15,
        "duration": 0.36,
        "velocity": 0.68,
        "hand": "right"
      },
      {
        "midi": 64,
        "time": 15,
        "duration": 0.36,
        "velocity": 0.56,
        "hand": "right"
      },
      {
        "midi": 67,
        "time": 15,
        "duration": 0.5,
        "velocity": 0.7,
        "hand": "right"
      },
      {
        "midi": 76,
        "time": 15,
        "duration": 0.5,
        "velocity": 0.74,
        "hand": "right"
      },
      {
        "midi": 38,
        "time": 15.25,
        "duration": 0.063,
        "velocity": 1,
        "hand": "left"
      },
      {
        "midi": 38,
        "time": 15.375,
        "duration": 0.063,
        "velocity": 1,
        "hand": "left"
      },
      {
        "midi": 51,
        "time": 15.375,
        "duration": 0.063,
        "velocity": 0.63,
        "hand": "left"
      },
      {
        "midi": 60,
        "time": 15.375,
        "duration": 0.11,
        "velocity": 0.56,
        "hand": "right"
      },
      {
        "midi": 64,
        "time": 15.375,
        "duration": 0.11,
        "velocity": 0.5,
        "hand": "right"
      },
      {
        "midi": 38,
        "time": 15.5,
        "duration": 0.063,
        "velocity": 0.86,
        "hand": "left"
      },
      {
        "midi": 54,
        "time": 15.5,
        "duration": 0.063,
        "velocity": 0.55,
        "hand": "left"
      },
      {
        "midi": 60,
        "time": 15.5,
        "duration": 0.063,
        "velocity": 0.57,
        "hand": "right"
      },
      {
        "midi": 64,
        "time": 15.5,
        "duration": 0.25,
        "velocity": 0.56,
        "hand": "right"
      },
      {
        "midi": 79,
        "time": 15.5,
        "duration": 0.5,
        "velocity": 0.76,
        "hand": "right"
      },
      {
        "midi": 51,
        "time": 15.625,
        "duration": 0.063,
        "velocity": 0.63,
        "hand": "left"
      },
      {
        "midi": 72,
        "time": 15.75,
        "duration": 0.25,
        "velocity": 0.56,
        "hand": "right"
      },
      {
        "midi": 51,
        "time": 15.875,
        "duration": 0.063,
        "velocity": 0.63,
        "hand": "left"
      },
      {
        "midi": 38,
        "time": 16,
        "duration": 0.063,
        "velocity": 1,
        "hand": "left"
      },
      {
        "midi": 43,
        "time": 16,
        "duration": 0.25,
        "velocity": 1,
        "hand": "left"
      },
      {
        "midi": 60,
        "time": 16,
        "duration": 0.375,
        "velocity": 0.69,
        "hand": "right"
      },
      {
        "midi": 64,
        "time": 16,
        "duration": 0.375,
        "velocity": 0.56,
        "hand": "right"
      },
      {
        "midi": 71,
        "time": 16,
        "duration": 0.25,
        "velocity": 0.5,
        "hand": "right"
      },
      {
        "midi": 81,
        "time": 16,
        "duration": 0.375,
        "velocity": 0.72,
        "hand": "right"
      },
      {
        "midi": 36,
        "time": 16.25,
        "duration": 0.25,
        "velocity": 0.8,
        "hand": "left"
      },
      {
        "midi": 69,
        "time": 16.25,
        "duration": 0.25,
        "velocity": 0.42,
        "hand": "right"
      },
      {
        "midi": 51,
        "time": 16.375,
        "duration": 0.063,
        "velocity": 0.63,
        "hand": "left"
      },
      {
        "midi": 43,
        "time": 16.5,
        "duration": 0.875,
        "velocity": 1,
        "hand": "left"
      },
      {
        "midi": 47,
        "time": 16.5,
        "duration": 0.063,
        "velocity": 0.93,
        "hand": "left"
      },
      {
        "midi": 62,
        "time": 16.5,
        "duration": 0.36,
        "velocity": 0.29,
        "hand": "right"
      },
      {
        "midi": 67,
        "time": 16.5,
        "duration": 0.5,
        "velocity": 0.54,
        "hand": "right"
      },
      {
        "midi": 83,
        "time": 16.5,
        "duration": 1.5,
        "velocity": 0.61,
        "hand": "right"
      },
      {
        "midi": 59,
        "time": 16.75,
        "duration": 0.11,
        "velocity": 0.68,
        "hand": "left"
      },
      {
        "midi": 51,
        "time": 16.875,
        "duration": 0.063,
        "velocity": 0.63,
        "hand": "left"
      },
      {
        "midi": 55,
        "time": 16.875,
        "duration": 0.063,
        "velocity": 0.44,
        "hand": "left"
      },
      {
        "midi": 62,
        "time": 16.875,
        "duration": 0.11,
        "velocity": 0.56,
        "hand": "right"
      },
      {
        "midi": 38,
        "time": 17,
        "duration": 0.063,
        "velocity": 0.95,
        "hand": "left"
      },
      {
        "midi": 51,
        "time": 17,
        "duration": 0.063,
        "velocity": 0.63,
        "hand": "left"
      },
      {
        "midi": 62,
        "time": 17,
        "duration": 0.25,
        "velocity": 0.57,
        "hand": "right"
      },
      {
        "midi": 65,
        "time": 17,
        "duration": 0.485,
        "velocity": 0.54,
        "hand": "right"
      },
      {
        "midi": 55,
        "time": 17.25,
        "duration": 0.235,
        "velocity": 0.69,
        "hand": "left"
      },
      {
        "midi": 51,
        "time": 17.375,
        "duration": 0.063,
        "velocity": 0.63,
        "hand": "left"
      },
      {
        "midi": 38,
        "time": 17.5,
        "duration": 0.25,
        "velocity": 1,
        "hand": "left"
      },
      {
        "midi": 51,
        "time": 17.5,
        "duration": 0.063,
        "velocity": 0.63,
        "hand": "left"
      },
      {
        "midi": 62,
        "time": 17.5,
        "duration": 0.375,
        "velocity": 0.51,
        "hand": "right"
      },
      {
        "midi": 65,
        "time": 17.5,
        "duration": 0.375,
        "velocity": 0.72,
        "hand": "right"
      },
      {
        "midi": 67,
        "time": 17.5,
        "duration": 0.25,
        "velocity": 0.51,
        "hand": "right"
      },
      {
        "midi": 69,
        "time": 17.5,
        "duration": 0.375,
        "velocity": 0.57,
        "hand": "right"
      },
      {
        "midi": 47,
        "time": 17.75,
        "duration": 0.235,
        "velocity": 0.96,
        "hand": "left"
      },
      {
        "midi": 50,
        "time": 17.75,
        "duration": 0.25,
        "velocity": 0.56,
        "hand": "left"
      },
      {
        "midi": 51,
        "time": 17.875,
        "duration": 0.063,
        "velocity": 0.63,
        "hand": "left"
      },
      {
        "midi": 43,
        "time": 18,
        "duration": 1.235,
        "velocity": 0.98,
        "hand": "left"
      },
      {
        "midi": 47,
        "time": 18,
        "duration": 0.063,
        "velocity": 0.91,
        "hand": "left"
      },
      {
        "midi": 65,
        "time": 18,
        "duration": 0.36,
        "velocity": 0.72,
        "hand": "right"
      },
      {
        "midi": 69,
        "time": 18,
        "duration": 0.5,
        "velocity": 0.59,
        "hand": "right"
      },
      {
        "midi": 79,
        "time": 18,
        "duration": 0.5,
        "velocity": 0.76,
        "hand": "right"
      },
      {
        "midi": 38,
        "time": 18.25,
        "duration": 0.063,
        "velocity": 1,
        "hand": "left"
      },
      {
        "midi": 62,
        "time": 18.25,
        "duration": 0.11,
        "velocity": 0.72,
        "hand": "right"
      },
      {
        "midi": 38,
        "time": 18.375,
        "duration": 0.063,
        "velocity": 0.97,
        "hand": "left"
      },
      {
        "midi": 51,
        "time": 18.375,
        "duration": 0.063,
        "velocity": 0.63,
        "hand": "left"
      },
      {
        "midi": 62,
        "time": 18.375,
        "duration": 0.11,
        "velocity": 0.54,
        "hand": "right"
      },
      {
        "midi": 65,
        "time": 18.375,
        "duration": 0.11,
        "velocity": 0.53,
        "hand": "right"
      },
      {
        "midi": 38,
        "time": 18.5,
        "duration": 0.485,
        "velocity": 0.87,
        "hand": "left"
      },
      {
        "midi": 51,
        "time": 18.5,
        "duration": 0.063,
        "velocity": 0.63,
        "hand": "left"
      },
      {
        "midi": 62,
        "time": 18.5,
        "duration": 0.063,
        "velocity": 0.57,
        "hand": "right"
      },
      {
        "midi": 65,
        "time": 18.5,
        "duration": 0.25,
        "velocity": 0.56,
        "hand": "right"
      },
      {
        "midi": 83,
        "time": 18.5,
        "duration": 0.5,
        "velocity": 0.76,
        "hand": "right"
      },
      {
        "midi": 55,
        "time": 18.75,
        "duration": 0.235,
        "velocity": 0.58,
        "hand": "left"
      },
      {
        "midi": 72,
        "time": 18.75,
        "duration": 0.25,
        "velocity": 0.55,
        "hand": "right"
      },
      {
        "midi": 51,
        "time": 18.875,
        "duration": 0.063,
        "velocity": 0.63,
        "hand": "left"
      },
      {
        "midi": 38,
        "time": 19,
        "duration": 0.063,
        "velocity": 1,
        "hand": "left"
      },
      {
        "midi": 47,
        "time": 19,
        "duration": 0.25,
        "velocity": 0.97,
        "hand": "left"
      },
      {
        "midi": 62,
        "time": 19,
        "duration": 0.375,
        "velocity": 0.55,
        "hand": "right"
      },
      {
        "midi": 65,
        "time": 19,
        "duration": 0.375,
        "velocity": 0.72,
        "hand": "right"
      },
      {
        "midi": 71,
        "time": 19,
        "duration": 0.25,
        "velocity": 0.52,
        "hand": "right"
      },
      {
        "midi": 74,
        "time": 19,
        "duration": 0.5,
        "velocity": 0.72,
        "hand": "right"
      },
      {
        "midi": 43,
        "time": 19.25,
        "duration": 0.25,
        "velocity": 0.96,
        "hand": "left"
      },
      {
        "midi": 50,
        "time": 19.25,
        "duration": 0.25,
        "velocity": 0.46,
        "hand": "left"
      },
      {
        "midi": 69,
        "time": 19.25,
        "duration": 0.25,
        "velocity": 0.52,
        "hand": "right"
      },
      {
        "midi": 51,
        "time": 19.375,
        "duration": 0.063,
        "velocity": 0.63,
        "hand": "left"
      },
      {
        "midi": 59,
        "time": 19.375,
        "duration": 0.125,
        "velocity": 0.42,
        "hand": "left"
      },
      {
        "midi": 36,
        "time": 19.5,
        "duration": 1.25,
        "velocity": 0.95,
        "hand": "left"
      },
      {
        "midi": 47,
        "time": 19.5,
        "duration": 0.063,
        "velocity": 0.89,
        "hand": "left"
      },
      {
        "midi": 62,
        "time": 19.5,
        "duration": 0.063,
        "velocity": 0.22,
        "hand": "right"
      },
      {
        "midi": 64,
        "time": 19.5,
        "duration": 0.36,
        "velocity": 0.58,
        "hand": "right"
      },
      {
        "midi": 67,
        "time": 19.5,
        "duration": 0.875,
        "velocity": 0.57,
        "hand": "right"
      },
      {
        "midi": 76,
        "time": 19.5,
        "duration": 1.375,
        "velocity": 0.72,
        "hand": "right"
      },
      {
        "midi": 60,
        "time": 19.75,
        "duration": 0.11,
        "velocity": 0.75,
        "hand": "right"
      },
      {
        "midi": 51,
        "time": 19.875,
        "duration": 0.063,
        "velocity": 0.63,
        "hand": "left"
      },
      {
        "midi": 55,
        "time": 19.875,
        "duration": 0.11,
        "velocity": 0.55,
        "hand": "left"
      },
      {
        "midi": 60,
        "time": 19.875,
        "duration": 0.063,
        "velocity": 0.61,
        "hand": "right"
      },
      {
        "midi": 64,
        "time": 19.875,
        "duration": 0.11,
        "velocity": 0.47,
        "hand": "right"
      },
      {
        "midi": 38,
        "time": 20,
        "duration": 0.063,
        "velocity": 1,
        "hand": "left"
      },
      {
        "midi": 40,
        "time": 20,
        "duration": 0.75,
        "velocity": 0.28,
        "hand": "left"
      },
      {
        "midi": 60,
        "time": 20,
        "duration": 0.063,
        "velocity": 0.65,
        "hand": "right"
      },
      {
        "midi": 64,
        "time": 20,
        "duration": 0.125,
        "velocity": 0.55,
        "hand": "right"
      },
      {
        "midi": 55,
        "time": 20.25,
        "duration": 0.235,
        "velocity": 0.5,
        "hand": "left"
      },
      {
        "midi": 51,
        "time": 20.375,
        "duration": 0.063,
        "velocity": 0.63,
        "hand": "left"
      },
      {
        "midi": 38,
        "time": 20.5,
        "duration": 0.063,
        "velocity": 1,
        "hand": "left"
      },
      {
        "midi": 43,
        "time": 20.5,
        "duration": 0.235,
        "velocity": 1,
        "hand": "left"
      },
      {
        "midi": 60,
        "time": 20.5,
        "duration": 0.25,
        "velocity": 0.57,
        "hand": "right"
      },
      {
        "midi": 64,
        "time": 20.5,
        "duration": 0.25,
        "velocity": 0.69,
        "hand": "right"
      },
      {
        "midi": 67,
        "time": 20.5,
        "duration": 0.375,
        "velocity": 0.57,
        "hand": "right"
      },
      {
        "midi": 43,
        "time": 20.75,
        "duration": 0.25,
        "velocity": 0.48,
        "hand": "left"
      },
      {
        "midi": 55,
        "time": 20.75,
        "duration": 0.125,
        "velocity": 0.61,
        "hand": "left"
      },
      {
        "midi": 51,
        "time": 20.875,
        "duration": 0.063,
        "velocity": 0.63,
        "hand": "left"
      },
      {
        "midi": 72,
        "time": 20.875,
        "duration": 0.75,
        "velocity": 0.72,
        "hand": "right"
      },
      {
        "midi": 36,
        "time": 21,
        "duration": 1,
        "velocity": 0.97,
        "hand": "left"
      },
      {
        "midi": 47,
        "time": 21,
        "duration": 0.063,
        "velocity": 0.97,
        "hand": "left"
      },
      {
        "midi": 60,
        "time": 21,
        "duration": 0.36,
        "velocity": 0.75,
        "hand": "right"
      },
      {
        "midi": 65,
        "time": 21,
        "duration": 0.875,
        "velocity": 0.72,
        "hand": "right"
      },
      {
        "midi": 77,
        "time": 21,
        "duration": 0.5,
        "velocity": 0.73,
        "hand": "right"
      },
      {
        "midi": 38,
        "time": 21.25,
        "duration": 0.063,
        "velocity": 1,
        "hand": "left"
      },
      {
        "midi": 38,
        "time": 21.375,
        "duration": 0.063,
        "velocity": 0.91,
        "hand": "left"
      },
      {
        "midi": 51,
        "time": 21.375,
        "duration": 0.063,
        "velocity": 0.63,
        "hand": "left"
      },
      {
        "midi": 60,
        "time": 21.375,
        "duration": 0.063,
        "velocity": 0.61,
        "hand": "right"
      },
      {
        "midi": 64,
        "time": 21.375,
        "duration": 0.063,
        "velocity": 0.51,
        "hand": "right"
      },
      {
        "midi": 38,
        "time": 21.5,
        "duration": 0.063,
        "velocity": 0.85,
        "hand": "left"
      },
      {
        "midi": 51,
        "time": 21.5,
        "duration": 0.063,
        "velocity": 0.63,
        "hand": "left"
      },
      {
        "midi": 60,
        "time": 21.5,
        "duration": 0.375,
        "velocity": 0.69,
        "hand": "right"
      },
      {
        "midi": 64,
        "time": 21.5,
        "duration": 0.375,
        "velocity": 0.72,
        "hand": "right"
      },
      {
        "midi": 76,
        "time": 21.5,
        "duration": 0.5,
        "velocity": 0.63,
        "hand": "right"
      },
      {
        "midi": 72,
        "time": 21.75,
        "duration": 0.25,
        "velocity": 0.63,
        "hand": "right"
      },
      {
        "midi": 51,
        "time": 21.875,
        "duration": 0.063,
        "velocity": 0.63,
        "hand": "left"
      },
      {
        "midi": 38,
        "time": 22,
        "duration": 0.063,
        "velocity": 1,
        "hand": "left"
      },
      {
        "midi": 43,
        "time": 22,
        "duration": 0.25,
        "velocity": 1,
        "hand": "left"
      },
      {
        "midi": 60,
        "time": 22,
        "duration": 0.375,
        "velocity": 0.74,
        "hand": "right"
      },
      {
        "midi": 64,
        "time": 22,
        "duration": 0.485,
        "velocity": 0.7,
        "hand": "right"
      },
      {
        "midi": 74,
        "time": 22,
        "duration": 0.5,
        "velocity": 0.72,
        "hand": "right"
      },
      {
        "midi": 36,
        "time": 22.25,
        "duration": 0.25,
        "velocity": 0.84,
        "hand": "left"
      },
      {
        "midi": 72,
        "time": 22.25,
        "duration": 0.25,
        "velocity": 0.52,
        "hand": "right"
      },
      {
        "midi": 51,
        "time": 22.375,
        "duration": 0.063,
        "velocity": 0.63,
        "hand": "left"
      },
      {
        "midi": 41,
        "time": 22.5,
        "duration": 1.235,
        "velocity": 0.99,
        "hand": "left"
      },
      {
        "midi": 47,
        "time": 22.5,
        "duration": 0.063,
        "velocity": 0.89,
        "hand": "left"
      },
      {
        "midi": 60,
        "time": 22.5,
        "duration": 0.36,
        "velocity": 0.65,
        "hand": "right"
      },
      {
        "midi": 64,
        "time": 22.5,
        "duration": 0.875,
        "velocity": 0.54,
        "hand": "right"
      },
      {
        "midi": 71,
        "time": 22.5,
        "duration": 0.5,
        "velocity": 0.54,
        "hand": "right"
      },
      {
        "midi": 84,
        "time": 22.5,
        "duration": 1,
        "velocity": 0.7,
        "hand": "right"
      },
      {
        "midi": 45,
        "time": 22.875,
        "duration": 0.75,
        "velocity": 0.5,
        "hand": "left"
      },
      {
        "midi": 51,
        "time": 22.875,
        "duration": 0.063,
        "velocity": 0.63,
        "hand": "left"
      },
      {
        "midi": 60,
        "time": 22.875,
        "duration": 0.063,
        "velocity": 0.69,
        "hand": "right"
      },
      {
        "midi": 65,
        "time": 22.875,
        "duration": 0.11,
        "velocity": 0.56,
        "hand": "right"
      },
      {
        "midi": 69,
        "time": 22.875,
        "duration": 0.375,
        "velocity": 0.5,
        "hand": "right"
      },
      {
        "midi": 38,
        "time": 23,
        "duration": 0.063,
        "velocity": 0.99,
        "hand": "left"
      },
      {
        "midi": 51,
        "time": 23,
        "duration": 0.063,
        "velocity": 0.63,
        "hand": "left"
      },
      {
        "midi": 60,
        "time": 23,
        "duration": 0.063,
        "velocity": 0.72,
        "hand": "right"
      },
      {
        "midi": 65,
        "time": 23,
        "duration": 0.125,
        "velocity": 0.53,
        "hand": "right"
      },
      {
        "midi": 51,
        "time": 23.375,
        "duration": 0.063,
        "velocity": 0.63,
        "hand": "left"
      },
      {
        "midi": 36,
        "time": 23.5,
        "duration": 0.25,
        "velocity": 0.8,
        "hand": "left"
      },
      {
        "midi": 38,
        "time": 23.5,
        "duration": 0.063,
        "velocity": 1,
        "hand": "left"
      },
      {
        "midi": 65,
        "time": 23.5,
        "duration": 0.375,
        "velocity": 0.72,
        "hand": "right"
      },
      {
        "midi": 69,
        "time": 23.5,
        "duration": 0.5,
        "velocity": 0.57,
        "hand": "right"
      },
      {
        "midi": 81,
        "time": 23.5,
        "duration": 0.5,
        "velocity": 0.74,
        "hand": "right"
      },
      {
        "midi": 41,
        "time": 23.75,
        "duration": 0.25,
        "velocity": 0.8,
        "hand": "left"
      },
      {
        "midi": 48,
        "time": 23.75,
        "duration": 0.25,
        "velocity": 0.51,
        "hand": "left"
      },
      {
        "midi": 43,
        "time": 23.875,
        "duration": 0.11,
        "velocity": 0.45,
        "hand": "left"
      },
      {
        "midi": 51,
        "time": 23.875,
        "duration": 0.063,
        "velocity": 0.63,
        "hand": "left"
      },
      {
        "midi": 62,
        "time": 23.875,
        "duration": 0.11,
        "velocity": 0.23,
        "hand": "right"
      },
      {
        "midi": 67,
        "time": 23.875,
        "duration": 0.5,
        "velocity": 0.49,
        "hand": "right"
      },
      {
        "midi": 43,
        "time": 24,
        "duration": 1,
        "velocity": 1,
        "hand": "left"
      },
      {
        "midi": 47,
        "time": 24,
        "duration": 0.063,
        "velocity": 0.87,
        "hand": "left"
      },
      {
        "midi": 60,
        "time": 24,
        "duration": 0.063,
        "velocity": 0.24,
        "hand": "right"
      },
      {
        "midi": 62,
        "time": 24,
        "duration": 0.36,
        "velocity": 0.63,
        "hand": "right"
      },
      {
        "midi": 83,
        "time": 24,
        "duration": 0.5,
        "velocity": 0.74,
        "hand": "right"
      },
      {
        "midi": 38,
        "time": 24.25,
        "duration": 0.063,
        "velocity": 1,
        "hand": "left"
      },
      {
        "midi": 59,
        "time": 24.25,
        "duration": 0.11,
        "velocity": 0.73,
        "hand": "left"
      },
      {
        "midi": 38,
        "time": 24.375,
        "duration": 0.063,
        "velocity": 1,
        "hand": "left"
      },
      {
        "midi": 47,
        "time": 24.375,
        "duration": 0.875,
        "velocity": 0.17,
        "hand": "left"
      },
      {
        "midi": 62,
        "time": 24.375,
        "duration": 0.063,
        "velocity": 0.61,
        "hand": "right"
      },
      {
        "midi": 64,
        "time": 24.375,
        "duration": 0.063,
        "velocity": 0.57,
        "hand": "right"
      },
      {
        "midi": 69,
        "time": 24.375,
        "duration": 0.11,
        "velocity": 0.58,
        "hand": "right"
      },
      {
        "midi": 84,
        "time": 24.375,
        "duration": 0.5,
        "velocity": 0.61,
        "hand": "right"
      },
      {
        "midi": 38,
        "time": 24.5,
        "duration": 0.063,
        "velocity": 0.86,
        "hand": "left"
      },
      {
        "midi": 54,
        "time": 24.5,
        "duration": 0.063,
        "velocity": 0.55,
        "hand": "left"
      },
      {
        "midi": 62,
        "time": 24.5,
        "duration": 0.125,
        "velocity": 0.54,
        "hand": "right"
      },
      {
        "midi": 64,
        "time": 24.5,
        "duration": 0.125,
        "velocity": 0.56,
        "hand": "right"
      },
      {
        "midi": 69,
        "time": 24.5,
        "duration": 0.125,
        "velocity": 0.46,
        "hand": "right"
      },
      {
        "midi": 71,
        "time": 24.5,
        "duration": 0.25,
        "velocity": 0.4,
        "hand": "right"
      },
      {
        "midi": 51,
        "time": 24.625,
        "duration": 0.063,
        "velocity": 0.63,
        "hand": "left"
      },
      {
        "midi": 53,
        "time": 24.75,
        "duration": 0.25,
        "velocity": 0.63,
        "hand": "left"
      },
      {
        "midi": 69,
        "time": 24.75,
        "duration": 0.235,
        "velocity": 0.5,
        "hand": "right"
      },
      {
        "midi": 51,
        "time": 24.875,
        "duration": 0.063,
        "velocity": 0.63,
        "hand": "left"
      },
      {
        "midi": 38,
        "time": 25,
        "duration": 0.25,
        "velocity": 1,
        "hand": "left"
      },
      {
        "midi": 51,
        "time": 25,
        "duration": 0.063,
        "velocity": 0.63,
        "hand": "left"
      },
      {
        "midi": 65,
        "time": 25,
        "duration": 0.25,
        "velocity": 0.54,
        "hand": "right"
      },
      {
        "midi": 69,
        "time": 25,
        "duration": 0.25,
        "velocity": 0.69,
        "hand": "right"
      },
      {
        "midi": 74,
        "time": 25,
        "duration": 0.5,
        "velocity": 0.57,
        "hand": "right"
      },
      {
        "midi": 43,
        "time": 25.25,
        "duration": 0.125,
        "velocity": 0.8,
        "hand": "left"
      },
      {
        "midi": 50,
        "time": 25.25,
        "duration": 0.25,
        "velocity": 0.51,
        "hand": "left"
      },
      {
        "midi": 62,
        "time": 25.25,
        "duration": 0.235,
        "velocity": 0.54,
        "hand": "right"
      },
      {
        "midi": 51,
        "time": 25.375,
        "duration": 0.063,
        "velocity": 0.63,
        "hand": "left"
      },
      {
        "midi": 36,
        "time": 25.5,
        "duration": 0.75,
        "velocity": 0.57,
        "hand": "left"
      },
      {
        "midi": 47,
        "time": 25.5,
        "duration": 0.063,
        "velocity": 0.93,
        "hand": "left"
      },
      {
        "midi": 60,
        "time": 25.5,
        "duration": 0.36,
        "velocity": 0.57,
        "hand": "right"
      },
      {
        "midi": 62,
        "time": 25.5,
        "duration": 0.75,
        "velocity": 0.36,
        "hand": "right"
      },
      {
        "midi": 64,
        "time": 25.5,
        "duration": 0.36,
        "velocity": 0.35,
        "hand": "right"
      },
      {
        "midi": 84,
        "time": 25.5,
        "duration": 1.25,
        "velocity": 0.56,
        "hand": "right"
      },
      {
        "midi": 38,
        "time": 25.875,
        "duration": 0.063,
        "velocity": 0.95,
        "hand": "left"
      },
      {
        "midi": 51,
        "time": 25.875,
        "duration": 0.063,
        "velocity": 0.63,
        "hand": "left"
      },
      {
        "midi": 60,
        "time": 25.875,
        "duration": 0.063,
        "velocity": 0.68,
        "hand": "right"
      },
      {
        "midi": 64,
        "time": 25.875,
        "duration": 0.11,
        "velocity": 0.52,
        "hand": "right"
      },
      {
        "midi": 38,
        "time": 26,
        "duration": 0.063,
        "velocity": 0.95,
        "hand": "left"
      },
      {
        "midi": 51,
        "time": 26,
        "duration": 0.063,
        "velocity": 0.63,
        "hand": "left"
      },
      {
        "midi": 60,
        "time": 26,
        "duration": 0.125,
        "velocity": 0.57,
        "hand": "right"
      },
      {
        "midi": 64,
        "time": 26,
        "duration": 0.125,
        "velocity": 0.54,
        "hand": "right"
      },
      {
        "midi": 50,
        "time": 26.125,
        "duration": 0.063,
        "velocity": 0.55,
        "hand": "left"
      },
      {
        "midi": 51,
        "time": 26.375,
        "duration": 0.063,
        "velocity": 0.63,
        "hand": "left"
      },
      {
        "midi": 47,
        "time": 26.5,
        "duration": 0.063,
        "velocity": 0.64,
        "hand": "left"
      },
      {
        "midi": 51,
        "time": 26.5,
        "duration": 0.063,
        "velocity": 0.63,
        "hand": "left"
      },
      {
        "midi": 60,
        "time": 26.5,
        "duration": 0.125,
        "velocity": 0.73,
        "hand": "right"
      },
      {
        "midi": 64,
        "time": 26.5,
        "duration": 0.125,
        "velocity": 0.61,
        "hand": "right"
      },
      {
        "midi": 67,
        "time": 26.5,
        "duration": 0.485,
        "velocity": 0.79,
        "hand": "right"
      },
      {
        "midi": 43,
        "time": 26.75,
        "duration": 0.063,
        "velocity": 0.72,
        "hand": "left"
      },
      {
        "midi": 51,
        "time": 26.875,
        "duration": 0.063,
        "velocity": 0.63,
        "hand": "left"
      },
      {
        "midi": 55,
        "time": 26.875,
        "duration": 0.11,
        "velocity": 0.43,
        "hand": "left"
      },
      {
        "midi": 36,
        "time": 27,
        "duration": 1,
        "velocity": 0.98,
        "hand": "left"
      },
      {
        "midi": 47,
        "time": 27,
        "duration": 0.063,
        "velocity": 0.93,
        "hand": "left"
      },
      {
        "midi": 60,
        "time": 27,
        "duration": 0.36,
        "velocity": 0.68,
        "hand": "right"
      },
      {
        "midi": 64,
        "time": 27,
        "duration": 0.36,
        "velocity": 0.56,
        "hand": "right"
      },
      {
        "midi": 67,
        "time": 27,
        "duration": 0.5,
        "velocity": 0.7,
        "hand": "right"
      },
      {
        "midi": 51,
        "time": 27.375,
        "duration": 0.063,
        "velocity": 0.63,
        "hand": "left"
      },
      {
        "midi": 55,
        "time": 27.375,
        "duration": 0.11,
        "velocity": 0.5,
        "hand": "left"
      },
      {
        "midi": 60,
        "time": 27.375,
        "duration": 0.11,
        "velocity": 0.56,
        "hand": "right"
      },
      {
        "midi": 64,
        "time": 27.375,
        "duration": 0.11,
        "velocity": 0.5,
        "hand": "right"
      },
      {
        "midi": 38,
        "time": 27.5,
        "duration": 0.063,
        "velocity": 0.95,
        "hand": "left"
      },
      {
        "midi": 51,
        "time": 27.5,
        "duration": 0.063,
        "velocity": 0.63,
        "hand": "left"
      },
      {
        "midi": 60,
        "time": 27.5,
        "duration": 0.063,
        "velocity": 0.57,
        "hand": "right"
      },
      {
        "midi": 64,
        "time": 27.5,
        "duration": 0.25,
        "velocity": 0.56,
        "hand": "right"
      },
      {
        "midi": 72,
        "time": 27.75,
        "duration": 0.25,
        "velocity": 0.56,
        "hand": "right"
      },
      {
        "midi": 51,
        "time": 27.875,
        "duration": 0.063,
        "velocity": 0.63,
        "hand": "left"
      },
      {
        "midi": 38,
        "time": 28,
        "duration": 0.063,
        "velocity": 1,
        "hand": "left"
      },
      {
        "midi": 43,
        "time": 28,
        "duration": 0.25,
        "velocity": 1,
        "hand": "left"
      },
      {
        "midi": 60,
        "time": 28,
        "duration": 0.375,
        "velocity": 0.69,
        "hand": "right"
      },
      {
        "midi": 64,
        "time": 28,
        "duration": 0.375,
        "velocity": 0.56,
        "hand": "right"
      },
      {
        "midi": 71,
        "time": 28,
        "duration": 0.25,
        "velocity": 0.5,
        "hand": "right"
      },
      {
        "midi": 36,
        "time": 28.25,
        "duration": 0.25,
        "velocity": 0.8,
        "hand": "left"
      },
      {
        "midi": 69,
        "time": 28.25,
        "duration": 0.25,
        "velocity": 0.42,
        "hand": "right"
      },
      {
        "midi": 51,
        "time": 28.375,
        "duration": 0.063,
        "velocity": 0.63,
        "hand": "left"
      },
      {
        "midi": 62,
        "time": 28.375,
        "duration": 0.11,
        "velocity": 0.42,
        "hand": "right"
      },
      {
        "midi": 43,
        "time": 28.5,
        "duration": 0.875,
        "velocity": 1,
        "hand": "left"
      },
      {
        "midi": 47,
        "time": 28.5,
        "duration": 0.063,
        "velocity": 0.91,
        "hand": "left"
      },
      {
        "midi": 62,
        "time": 28.5,
        "duration": 0.36,
        "velocity": 0.53,
        "hand": "right"
      },
      {
        "midi": 67,
        "time": 28.5,
        "duration": 0.5,
        "velocity": 0.54,
        "hand": "right"
      },
      {
        "midi": 38,
        "time": 28.75,
        "duration": 0.063,
        "velocity": 1,
        "hand": "left"
      },
      {
        "midi": 59,
        "time": 28.75,
        "duration": 0.11,
        "velocity": 0.68,
        "hand": "left"
      },
      {
        "midi": 38,
        "time": 28.875,
        "duration": 0.063,
        "velocity": 0.97,
        "hand": "left"
      },
      {
        "midi": 51,
        "time": 28.875,
        "duration": 0.063,
        "velocity": 0.63,
        "hand": "left"
      },
      {
        "midi": 62,
        "time": 28.875,
        "duration": 0.11,
        "velocity": 0.56,
        "hand": "right"
      },
      {
        "midi": 38,
        "time": 29,
        "duration": 0.063,
        "velocity": 0.8,
        "hand": "left"
      },
      {
        "midi": 51,
        "time": 29,
        "duration": 0.063,
        "velocity": 0.63,
        "hand": "left"
      },
      {
        "midi": 62,
        "time": 29,
        "duration": 0.25,
        "velocity": 0.57,
        "hand": "right"
      },
      {
        "midi": 65,
        "time": 29,
        "duration": 0.485,
        "velocity": 0.54,
        "hand": "right"
      },
      {
        "midi": 55,
        "time": 29.25,
        "duration": 0.235,
        "velocity": 0.69,
        "hand": "left"
      },
      {
        "midi": 51,
        "time": 29.375,
        "duration": 0.063,
        "velocity": 0.63,
        "hand": "left"
      },
      {
        "midi": 38,
        "time": 29.5,
        "duration": 0.25,
        "velocity": 1,
        "hand": "left"
      },
      {
        "midi": 51,
        "time": 29.5,
        "duration": 0.063,
        "velocity": 0.63,
        "hand": "left"
      },
      {
        "midi": 62,
        "time": 29.5,
        "duration": 0.375,
        "velocity": 0.51,
        "hand": "right"
      },
      {
        "midi": 65,
        "time": 29.5,
        "duration": 0.375,
        "velocity": 0.72,
        "hand": "right"
      },
      {
        "midi": 67,
        "time": 29.5,
        "duration": 0.25,
        "velocity": 0.51,
        "hand": "right"
      },
      {
        "midi": 69,
        "time": 29.5,
        "duration": 0.375,
        "velocity": 0.57,
        "hand": "right"
      },
      {
        "midi": 47,
        "time": 29.75,
        "duration": 0.235,
        "velocity": 0.96,
        "hand": "left"
      },
      {
        "midi": 50,
        "time": 29.75,
        "duration": 0.25,
        "velocity": 0.56,
        "hand": "left"
      },
      {
        "midi": 51,
        "time": 29.875,
        "duration": 0.063,
        "velocity": 0.63,
        "hand": "left"
      },
      {
        "midi": 43,
        "time": 30,
        "duration": 1.235,
        "velocity": 0.98,
        "hand": "left"
      },
      {
        "midi": 47,
        "time": 30,
        "duration": 0.063,
        "velocity": 0.89,
        "hand": "left"
      },
      {
        "midi": 65,
        "time": 30,
        "duration": 0.36,
        "velocity": 0.72,
        "hand": "right"
      },
      {
        "midi": 69,
        "time": 30,
        "duration": 0.5,
        "velocity": 0.59,
        "hand": "right"
      },
      {
        "midi": 62,
        "time": 30.25,
        "duration": 0.11,
        "velocity": 0.72,
        "hand": "right"
      },
      {
        "midi": 51,
        "time": 30.375,
        "duration": 0.063,
        "velocity": 0.63,
        "hand": "left"
      },
      {
        "midi": 55,
        "time": 30.375,
        "duration": 0.11,
        "velocity": 0.53,
        "hand": "left"
      },
      {
        "midi": 62,
        "time": 30.375,
        "duration": 0.11,
        "velocity": 0.54,
        "hand": "right"
      },
      {
        "midi": 65,
        "time": 30.375,
        "duration": 0.11,
        "velocity": 0.53,
        "hand": "right"
      },
      {
        "midi": 38,
        "time": 30.5,
        "duration": 0.485,
        "velocity": 1,
        "hand": "left"
      },
      {
        "midi": 51,
        "time": 30.5,
        "duration": 0.063,
        "velocity": 0.63,
        "hand": "left"
      },
      {
        "midi": 62,
        "time": 30.5,
        "duration": 0.063,
        "velocity": 0.57,
        "hand": "right"
      },
      {
        "midi": 65,
        "time": 30.5,
        "duration": 0.25,
        "velocity": 0.56,
        "hand": "right"
      },
      {
        "midi": 55,
        "time": 30.75,
        "duration": 0.235,
        "velocity": 0.58,
        "hand": "left"
      },
      {
        "midi": 72,
        "time": 30.75,
        "duration": 0.25,
        "velocity": 0.55,
        "hand": "right"
      },
      {
        "midi": 51,
        "time": 30.875,
        "duration": 0.063,
        "velocity": 0.63,
        "hand": "left"
      },
      {
        "midi": 38,
        "time": 31,
        "duration": 0.063,
        "velocity": 1,
        "hand": "left"
      },
      {
        "midi": 47,
        "time": 31,
        "duration": 0.25,
        "velocity": 0.97,
        "hand": "left"
      },
      {
        "midi": 62,
        "time": 31,
        "duration": 0.375,
        "velocity": 0.55,
        "hand": "right"
      },
      {
        "midi": 65,
        "time": 31,
        "duration": 0.375,
        "velocity": 0.72,
        "hand": "right"
      },
      {
        "midi": 71,
        "time": 31,
        "duration": 0.25,
        "velocity": 0.52,
        "hand": "right"
      },
      {
        "midi": 43,
        "time": 31.25,
        "duration": 0.25,
        "velocity": 0.96,
        "hand": "left"
      },
      {
        "midi": 50,
        "time": 31.25,
        "duration": 0.25,
        "velocity": 0.46,
        "hand": "left"
      },
      {
        "midi": 69,
        "time": 31.25,
        "duration": 0.25,
        "velocity": 0.52,
        "hand": "right"
      },
      {
        "midi": 51,
        "time": 31.375,
        "duration": 0.063,
        "velocity": 0.63,
        "hand": "left"
      },
      {
        "midi": 59,
        "time": 31.375,
        "duration": 0.125,
        "velocity": 0.42,
        "hand": "left"
      },
      {
        "midi": 36,
        "time": 31.5,
        "duration": 1.25,
        "velocity": 0.95,
        "hand": "left"
      },
      {
        "midi": 47,
        "time": 31.5,
        "duration": 0.063,
        "velocity": 0.97,
        "hand": "left"
      },
      {
        "midi": 60,
        "time": 31.5,
        "duration": 0.235,
        "velocity": 0.52,
        "hand": "right"
      },
      {
        "midi": 62,
        "time": 31.5,
        "duration": 0.063,
        "velocity": 0.22,
        "hand": "right"
      },
      {
        "midi": 64,
        "time": 31.5,
        "duration": 0.36,
        "velocity": 0.58,
        "hand": "right"
      },
      {
        "midi": 67,
        "time": 31.5,
        "duration": 0.875,
        "velocity": 0.57,
        "hand": "right"
      },
      {
        "midi": 38,
        "time": 31.75,
        "duration": 0.063,
        "velocity": 1,
        "hand": "left"
      },
      {
        "midi": 60,
        "time": 31.75,
        "duration": 0.11,
        "velocity": 0.75,
        "hand": "right"
      },
      {
        "midi": 38,
        "time": 31.875,
        "duration": 0.063,
        "velocity": 0.91,
        "hand": "left"
      },
      {
        "midi": 51,
        "time": 31.875,
        "duration": 0.063,
        "velocity": 0.63,
        "hand": "left"
      },
      {
        "midi": 60,
        "time": 31.875,
        "duration": 0.063,
        "velocity": 0.61,
        "hand": "right"
      },
      {
        "midi": 64,
        "time": 31.875,
        "duration": 0.11,
        "velocity": 0.47,
        "hand": "right"
      },
      {
        "midi": 38,
        "time": 32,
        "duration": 0.063,
        "velocity": 0.85,
        "hand": "left"
      },
      {
        "midi": 40,
        "time": 32,
        "duration": 0.75,
        "velocity": 0.28,
        "hand": "left"
      },
      {
        "midi": 60,
        "time": 32,
        "duration": 0.063,
        "velocity": 0.65,
        "hand": "right"
      },
      {
        "midi": 64,
        "time": 32,
        "duration": 0.125,
        "velocity": 0.55,
        "hand": "right"
      },
      {
        "midi": 55,
        "time": 32.25,
        "duration": 0.235,
        "velocity": 0.5,
        "hand": "left"
      },
      {
        "midi": 51,
        "time": 32.375,
        "duration": 0.063,
        "velocity": 0.63,
        "hand": "left"
      },
      {
        "midi": 38,
        "time": 32.5,
        "duration": 0.063,
        "velocity": 1,
        "hand": "left"
      },
      {
        "midi": 43,
        "time": 32.5,
        "duration": 0.235,
        "velocity": 1,
        "hand": "left"
      },
      {
        "midi": 60,
        "time": 32.5,
        "duration": 0.25,
        "velocity": 0.57,
        "hand": "right"
      },
      {
        "midi": 64,
        "time": 32.5,
        "duration": 0.25,
        "velocity": 0.69,
        "hand": "right"
      },
      {
        "midi": 67,
        "time": 32.5,
        "duration": 0.375,
        "velocity": 0.57,
        "hand": "right"
      },
      {
        "midi": 43,
        "time": 32.75,
        "duration": 0.25,
        "velocity": 0.48,
        "hand": "left"
      },
      {
        "midi": 55,
        "time": 32.75,
        "duration": 0.125,
        "velocity": 0.61,
        "hand": "left"
      },
      {
        "midi": 51,
        "time": 32.875,
        "duration": 0.063,
        "velocity": 0.63,
        "hand": "left"
      },
      {
        "midi": 72,
        "time": 32.875,
        "duration": 0.75,
        "velocity": 0.72,
        "hand": "right"
      },
      {
        "midi": 36,
        "time": 33,
        "duration": 1,
        "velocity": 0.97,
        "hand": "left"
      },
      {
        "midi": 47,
        "time": 33,
        "duration": 0.063,
        "velocity": 0.89,
        "hand": "left"
      },
      {
        "midi": 60,
        "time": 33,
        "duration": 0.36,
        "velocity": 0.75,
        "hand": "right"
      },
      {
        "midi": 65,
        "time": 33,
        "duration": 0.875,
        "velocity": 0.72,
        "hand": "right"
      },
      {
        "midi": 51,
        "time": 33.375,
        "duration": 0.063,
        "velocity": 0.63,
        "hand": "left"
      },
      {
        "midi": 55,
        "time": 33.375,
        "duration": 0.11,
        "velocity": 0.53,
        "hand": "left"
      },
      {
        "midi": 60,
        "time": 33.375,
        "duration": 0.063,
        "velocity": 0.61,
        "hand": "right"
      },
      {
        "midi": 64,
        "time": 33.375,
        "duration": 0.063,
        "velocity": 0.51,
        "hand": "right"
      },
      {
        "midi": 38,
        "time": 33.5,
        "duration": 0.063,
        "velocity": 0.99,
        "hand": "left"
      },
      {
        "midi": 51,
        "time": 33.5,
        "duration": 0.063,
        "velocity": 0.63,
        "hand": "left"
      },
      {
        "midi": 60,
        "time": 33.5,
        "duration": 0.375,
        "velocity": 0.69,
        "hand": "right"
      },
      {
        "midi": 64,
        "time": 33.5,
        "duration": 0.375,
        "velocity": 0.72,
        "hand": "right"
      },
      {
        "midi": 72,
        "time": 33.75,
        "duration": 0.25,
        "velocity": 0.63,
        "hand": "right"
      },
      {
        "midi": 51,
        "time": 33.875,
        "duration": 0.063,
        "velocity": 0.63,
        "hand": "left"
      },
      {
        "midi": 38,
        "time": 34,
        "duration": 0.063,
        "velocity": 1,
        "hand": "left"
      },
      {
        "midi": 43,
        "time": 34,
        "duration": 0.25,
        "velocity": 1,
        "hand": "left"
      },
      {
        "midi": 60,
        "time": 34,
        "duration": 0.36,
        "velocity": 0.74,
        "hand": "right"
      },
      {
        "midi": 64,
        "time": 34,
        "duration": 0.375,
        "velocity": 0.7,
        "hand": "right"
      },
      {
        "midi": 74,
        "time": 34,
        "duration": 0.25,
        "velocity": 0.56,
        "hand": "right"
      },
      {
        "midi": 36,
        "time": 34.25,
        "duration": 0.25,
        "velocity": 0.84,
        "hand": "left"
      },
      {
        "midi": 72,
        "time": 34.25,
        "duration": 0.25,
        "velocity": 0.52,
        "hand": "right"
      },
      {
        "midi": 51,
        "time": 34.375,
        "duration": 0.063,
        "velocity": 0.63,
        "hand": "left"
      },
      {
        "midi": 60,
        "time": 34.375,
        "duration": 0.11,
        "velocity": 0.47,
        "hand": "right"
      },
      {
        "midi": 41,
        "time": 34.5,
        "duration": 1.235,
        "velocity": 0.99,
        "hand": "left"
      },
      {
        "midi": 47,
        "time": 34.5,
        "duration": 0.063,
        "velocity": 0.87,
        "hand": "left"
      },
      {
        "midi": 60,
        "time": 34.5,
        "duration": 0.36,
        "velocity": 0.65,
        "hand": "right"
      },
      {
        "midi": 64,
        "time": 34.5,
        "duration": 0.875,
        "velocity": 0.54,
        "hand": "right"
      },
      {
        "midi": 71,
        "time": 34.5,
        "duration": 0.5,
        "velocity": 0.54,
        "hand": "right"
      },
      {
        "midi": 38,
        "time": 34.75,
        "duration": 0.063,
        "velocity": 1,
        "hand": "left"
      },
      {
        "midi": 38,
        "time": 34.875,
        "duration": 0.063,
        "velocity": 1,
        "hand": "left"
      },
      {
        "midi": 45,
        "time": 34.875,
        "duration": 0.75,
        "velocity": 0.5,
        "hand": "left"
      },
      {
        "midi": 60,
        "time": 34.875,
        "duration": 0.063,
        "velocity": 0.69,
        "hand": "right"
      },
      {
        "midi": 65,
        "time": 34.875,
        "duration": 0.11,
        "velocity": 0.56,
        "hand": "right"
      },
      {
        "midi": 69,
        "time": 34.875,
        "duration": 0.375,
        "velocity": 0.5,
        "hand": "right"
      },
      {
        "midi": 38,
        "time": 35,
        "duration": 0.063,
        "velocity": 0.86,
        "hand": "left"
      },
      {
        "midi": 54,
        "time": 35,
        "duration": 0.063,
        "velocity": 0.55,
        "hand": "left"
      },
      {
        "midi": 60,
        "time": 35,
        "duration": 0.063,
        "velocity": 0.72,
        "hand": "right"
      },
      {
        "midi": 65,
        "time": 35,
        "duration": 0.125,
        "velocity": 0.53,
        "hand": "right"
      },
      {
        "midi": 51,
        "time": 35.125,
        "duration": 0.063,
        "velocity": 0.63,
        "hand": "left"
      },
      {
        "midi": 51,
        "time": 35.375,
        "duration": 0.063,
        "velocity": 0.63,
        "hand": "left"
      },
      {
        "midi": 36,
        "time": 35.5,
        "duration": 0.25,
        "velocity": 0.8,
        "hand": "left"
      },
      {
        "midi": 38,
        "time": 35.5,
        "duration": 0.063,
        "velocity": 1,
        "hand": "left"
      },
      {
        "midi": 60,
        "time": 35.5,
        "duration": 0.25,
        "velocity": 0.54,
        "hand": "right"
      },
      {
        "midi": 65,
        "time": 35.5,
        "duration": 0.375,
        "velocity": 0.72,
        "hand": "right"
      },
      {
        "midi": 69,
        "time": 35.5,
        "duration": 0.5,
        "velocity": 0.57,
        "hand": "right"
      },
      {
        "midi": 41,
        "time": 35.75,
        "duration": 0.25,
        "velocity": 0.8,
        "hand": "left"
      },
      {
        "midi": 48,
        "time": 35.75,
        "duration": 0.25,
        "velocity": 0.51,
        "hand": "left"
      },
      {
        "midi": 43,
        "time": 35.875,
        "duration": 0.11,
        "velocity": 0.45,
        "hand": "left"
      },
      {
        "midi": 51,
        "time": 35.875,
        "duration": 0.063,
        "velocity": 0.63,
        "hand": "left"
      },
      {
        "midi": 67,
        "time": 35.875,
        "duration": 0.5,
        "velocity": 0.49,
        "hand": "right"
      },
      {
        "midi": 43,
        "time": 36,
        "duration": 1,
        "velocity": 1,
        "hand": "left"
      },
      {
        "midi": 47,
        "time": 36,
        "duration": 0.063,
        "velocity": 0.93,
        "hand": "left"
      },
      {
        "midi": 60,
        "time": 36,
        "duration": 0.063,
        "velocity": 0.24,
        "hand": "right"
      },
      {
        "midi": 62,
        "time": 36,
        "duration": 0.36,
        "velocity": 0.63,
        "hand": "right"
      },
      {
        "midi": 59,
        "time": 36.25,
        "duration": 0.11,
        "velocity": 0.73,
        "hand": "left"
      },
      {
        "midi": 47,
        "time": 36.375,
        "duration": 0.875,
        "velocity": 0.17,
        "hand": "left"
      },
      {
        "midi": 51,
        "time": 36.375,
        "duration": 0.063,
        "velocity": 0.63,
        "hand": "left"
      },
      {
        "midi": 62,
        "time": 36.375,
        "duration": 0.063,
        "velocity": 0.61,
        "hand": "right"
      },
      {
        "midi": 64,
        "time": 36.375,
        "duration": 0.063,
        "velocity": 0.57,
        "hand": "right"
      },
      {
        "midi": 69,
        "time": 36.375,
        "duration": 0.11,
        "velocity": 0.58,
        "hand": "right"
      },
      {
        "midi": 38,
        "time": 36.5,
        "duration": 0.063,
        "velocity": 0.95,
        "hand": "left"
      },
      {
        "midi": 51,
        "time": 36.5,
        "duration": 0.063,
        "velocity": 0.63,
        "hand": "left"
      },
      {
        "midi": 62,
        "time": 36.5,
        "duration": 0.125,
        "velocity": 0.54,
        "hand": "right"
      },
      {
        "midi": 64,
        "time": 36.5,
        "duration": 0.125,
        "velocity": 0.56,
        "hand": "right"
      },
      {
        "midi": 69,
        "time": 36.5,
        "duration": 0.125,
        "velocity": 0.46,
        "hand": "right"
      },
      {
        "midi": 71,
        "time": 36.5,
        "duration": 0.25,
        "velocity": 0.4,
        "hand": "right"
      },
      {
        "midi": 53,
        "time": 36.75,
        "duration": 0.25,
        "velocity": 0.63,
        "hand": "left"
      },
      {
        "midi": 69,
        "time": 36.75,
        "duration": 0.235,
        "velocity": 0.5,
        "hand": "right"
      },
      {
        "midi": 51,
        "time": 36.875,
        "duration": 0.063,
        "velocity": 0.63,
        "hand": "left"
      },
      {
        "midi": 38,
        "time": 37,
        "duration": 0.25,
        "velocity": 1,
        "hand": "left"
      },
      {
        "midi": 51,
        "time": 37,
        "duration": 0.063,
        "velocity": 0.63,
        "hand": "left"
      },
      {
        "midi": 62,
        "time": 37,
        "duration": 0.235,
        "velocity": 0.72,
        "hand": "right"
      },
      {
        "midi": 65,
        "time": 37,
        "duration": 0.25,
        "velocity": 0.54,
        "hand": "right"
      },
      {
        "midi": 69,
        "time": 37,
        "duration": 0.25,
        "velocity": 0.69,
        "hand": "right"
      },
      {
        "midi": 43,
        "time": 37.25,
        "duration": 0.125,
        "velocity": 0.8,
        "hand": "left"
      },
      {
        "midi": 50,
        "time": 37.25,
        "duration": 0.25,
        "velocity": 0.51,
        "hand": "left"
      },
      {
        "midi": 62,
        "time": 37.25,
        "duration": 0.235,
        "velocity": 0.54,
        "hand": "right"
      },
      {
        "midi": 51,
        "time": 37.375,
        "duration": 0.063,
        "velocity": 0.63,
        "hand": "left"
      },
      {
        "midi": 64,
        "time": 37.375,
        "duration": 0.11,
        "velocity": 0.44,
        "hand": "right"
      },
      {
        "midi": 36,
        "time": 37.5,
        "duration": 0.75,
        "velocity": 0.57,
        "hand": "left"
      },
      {
        "midi": 47,
        "time": 37.5,
        "duration": 0.063,
        "velocity": 0.91,
        "hand": "left"
      },
      {
        "midi": 60,
        "time": 37.5,
        "duration": 0.36,
        "velocity": 0.57,
        "hand": "right"
      },
      {
        "midi": 62,
        "time": 37.5,
        "duration": 0.75,
        "velocity": 0.36,
        "hand": "right"
      },
      {
        "midi": 64,
        "time": 37.5,
        "duration": 0.36,
        "velocity": 0.4,
        "hand": "right"
      },
      {
        "midi": 38,
        "time": 37.75,
        "duration": 0.063,
        "velocity": 1,
        "hand": "left"
      },
      {
        "midi": 51,
        "time": 37.875,
        "duration": 0.063,
        "velocity": 0.63,
        "hand": "left"
      },
      {
        "midi": 55,
        "time": 37.875,
        "duration": 0.11,
        "velocity": 0.56,
        "hand": "left"
      },
      {
        "midi": 60,
        "time": 37.875,
        "duration": 0.063,
        "velocity": 0.68,
        "hand": "right"
      },
      {
        "midi": 64,
        "time": 37.875,
        "duration": 0.11,
        "velocity": 0.52,
        "hand": "right"
      },
      {
        "midi": 38,
        "time": 38,
        "duration": 0.063,
        "velocity": 1,
        "hand": "left"
      },
      {
        "midi": 51,
        "time": 38,
        "duration": 0.063,
        "velocity": 0.63,
        "hand": "left"
      },
      {
        "midi": 60,
        "time": 38,
        "duration": 0.125,
        "velocity": 0.57,
        "hand": "right"
      },
      {
        "midi": 64,
        "time": 38,
        "duration": 0.125,
        "velocity": 0.54,
        "hand": "right"
      },
      {
        "midi": 43,
        "time": 38.25,
        "duration": 0.063,
        "velocity": 1,
        "hand": "left"
      },
      {
        "midi": 51,
        "time": 38.375,
        "duration": 0.063,
        "velocity": 0.63,
        "hand": "left"
      },
      {
        "midi": 45,
        "time": 38.5,
        "duration": 0.063,
        "velocity": 1,
        "hand": "left"
      },
      {
        "midi": 51,
        "time": 38.5,
        "duration": 0.063,
        "velocity": 0.63,
        "hand": "left"
      },
      {
        "midi": 60,
        "time": 38.5,
        "duration": 0.125,
        "velocity": 0.73,
        "hand": "right"
      },
      {
        "midi": 64,
        "time": 38.5,
        "duration": 0.125,
        "velocity": 0.61,
        "hand": "right"
      },
      {
        "midi": 67,
        "time": 38.5,
        "duration": 0.375,
        "velocity": 0.74,
        "hand": "right"
      },
      {
        "midi": 47,
        "time": 38.75,
        "duration": 0.063,
        "velocity": 0.87,
        "hand": "left"
      },
      {
        "midi": 38,
        "time": 38.875,
        "duration": 0.063,
        "velocity": 0.87,
        "hand": "left"
      },
      {
        "midi": 51,
        "time": 38.875,
        "duration": 0.063,
        "velocity": 0.63,
        "hand": "left"
      },
      {
        "midi": 36,
        "time": 39,
        "duration": 1,
        "velocity": 0.98,
        "hand": "left"
      },
      {
        "midi": 47,
        "time": 39,
        "duration": 0.063,
        "velocity": 0.87,
        "hand": "left"
      },
      {
        "midi": 60,
        "time": 39,
        "duration": 0.36,
        "velocity": 0.68,
        "hand": "right"
      },
      {
        "midi": 64,
        "time": 39,
        "duration": 0.36,
        "velocity": 0.56,
        "hand": "right"
      },
      {
        "midi": 67,
        "time": 39,
        "duration": 0.5,
        "velocity": 0.7,
        "hand": "right"
      },
      {
        "midi": 76,
        "time": 39,
        "duration": 0.5,
        "velocity": 0.74,
        "hand": "right"
      },
      {
        "midi": 38,
        "time": 39.25,
        "duration": 0.063,
        "velocity": 1,
        "hand": "left"
      },
      {
        "midi": 38,
        "time": 39.375,
        "duration": 0.063,
        "velocity": 1,
        "hand": "left"
      },
      {
        "midi": 51,
        "time": 39.375,
        "duration": 0.063,
        "velocity": 0.63,
        "hand": "left"
      },
      {
        "midi": 60,
        "time": 39.375,
        "duration": 0.11,
        "velocity": 0.56,
        "hand": "right"
      },
      {
        "midi": 64,
        "time": 39.375,
        "duration": 0.11,
        "velocity": 0.5,
        "hand": "right"
      },
      {
        "midi": 38,
        "time": 39.5,
        "duration": 0.063,
        "velocity": 0.86,
        "hand": "left"
      },
      {
        "midi": 54,
        "time": 39.5,
        "duration": 0.063,
        "velocity": 0.55,
        "hand": "left"
      },
      {
        "midi": 60,
        "time": 39.5,
        "duration": 0.063,
        "velocity": 0.57,
        "hand": "right"
      },
      {
        "midi": 64,
        "time": 39.5,
        "duration": 0.25,
        "velocity": 0.56,
        "hand": "right"
      },
      {
        "midi": 79,
        "time": 39.5,
        "duration": 0.5,
        "velocity": 0.76,
        "hand": "right"
      },
      {
        "midi": 51,
        "time": 39.625,
        "duration": 0.063,
        "velocity": 0.63,
        "hand": "left"
      },
      {
        "midi": 72,
        "time": 39.75,
        "duration": 0.25,
        "velocity": 0.56,
        "hand": "right"
      },
      {
        "midi": 51,
        "time": 39.875,
        "duration": 0.063,
        "velocity": 0.63,
        "hand": "left"
      },
      {
        "midi": 38,
        "time": 40,
        "duration": 0.063,
        "velocity": 1,
        "hand": "left"
      },
      {
        "midi": 43,
        "time": 40,
        "duration": 0.25,
        "velocity": 1,
        "hand": "left"
      },
      {
        "midi": 60,
        "time": 40,
        "duration": 0.375,
        "velocity": 0.69,
        "hand": "right"
      },
      {
        "midi": 64,
        "time": 40,
        "duration": 0.375,
        "velocity": 0.56,
        "hand": "right"
      },
      {
        "midi": 71,
        "time": 40,
        "duration": 0.25,
        "velocity": 0.5,
        "hand": "right"
      },
      {
        "midi": 81,
        "time": 40,
        "duration": 0.375,
        "velocity": 0.72,
        "hand": "right"
      },
      {
        "midi": 36,
        "time": 40.25,
        "duration": 0.25,
        "velocity": 0.8,
        "hand": "left"
      },
      {
        "midi": 69,
        "time": 40.25,
        "duration": 0.25,
        "velocity": 0.42,
        "hand": "right"
      },
      {
        "midi": 51,
        "time": 40.375,
        "duration": 0.063,
        "velocity": 0.63,
        "hand": "left"
      },
      {
        "midi": 43,
        "time": 40.5,
        "duration": 0.875,
        "velocity": 1,
        "hand": "left"
      },
      {
        "midi": 47,
        "time": 40.5,
        "duration": 0.063,
        "velocity": 0.93,
        "hand": "left"
      },
      {
        "midi": 62,
        "time": 40.5,
        "duration": 0.36,
        "velocity": 0.39,
        "hand": "right"
      },
      {
        "midi": 67,
        "time": 40.5,
        "duration": 0.5,
        "velocity": 0.54,
        "hand": "right"
      },
      {
        "midi": 83,
        "time": 40.5,
        "duration": 1.5,
        "velocity": 0.61,
        "hand": "right"
      },
      {
        "midi": 59,
        "time": 40.75,
        "duration": 0.11,
        "velocity": 0.68,
        "hand": "left"
      },
      {
        "midi": 51,
        "time": 40.875,
        "duration": 0.063,
        "velocity": 0.63,
        "hand": "left"
      },
      {
        "midi": 55,
        "time": 40.875,
        "duration": 0.063,
        "velocity": 0.44,
        "hand": "left"
      },
      {
        "midi": 62,
        "time": 40.875,
        "duration": 0.11,
        "velocity": 0.56,
        "hand": "right"
      },
      {
        "midi": 38,
        "time": 41,
        "duration": 0.063,
        "velocity": 0.95,
        "hand": "left"
      },
      {
        "midi": 51,
        "time": 41,
        "duration": 0.063,
        "velocity": 0.63,
        "hand": "left"
      },
      {
        "midi": 62,
        "time": 41,
        "duration": 0.25,
        "velocity": 0.57,
        "hand": "right"
      },
      {
        "midi": 65,
        "time": 41,
        "duration": 0.485,
        "velocity": 0.54,
        "hand": "right"
      },
      {
        "midi": 55,
        "time": 41.25,
        "duration": 0.235,
        "velocity": 0.69,
        "hand": "left"
      },
      {
        "midi": 51,
        "time": 41.375,
        "duration": 0.063,
        "velocity": 0.63,
        "hand": "left"
      },
      {
        "midi": 38,
        "time": 41.5,
        "duration": 0.25,
        "velocity": 1,
        "hand": "left"
      },
      {
        "midi": 51,
        "time": 41.5,
        "duration": 0.063,
        "velocity": 0.63,
        "hand": "left"
      },
      {
        "midi": 62,
        "time": 41.5,
        "duration": 0.375,
        "velocity": 0.51,
        "hand": "right"
      },
      {
        "midi": 65,
        "time": 41.5,
        "duration": 0.375,
        "velocity": 0.72,
        "hand": "right"
      },
      {
        "midi": 67,
        "time": 41.5,
        "duration": 0.25,
        "velocity": 0.51,
        "hand": "right"
      },
      {
        "midi": 69,
        "time": 41.5,
        "duration": 0.375,
        "velocity": 0.57,
        "hand": "right"
      },
      {
        "midi": 47,
        "time": 41.75,
        "duration": 0.235,
        "velocity": 0.96,
        "hand": "left"
      },
      {
        "midi": 50,
        "time": 41.75,
        "duration": 0.25,
        "velocity": 0.56,
        "hand": "left"
      },
      {
        "midi": 51,
        "time": 41.875,
        "duration": 0.063,
        "velocity": 0.63,
        "hand": "left"
      },
      {
        "midi": 43,
        "time": 42,
        "duration": 1.235,
        "velocity": 0.98,
        "hand": "left"
      },
      {
        "midi": 47,
        "time": 42,
        "duration": 0.063,
        "velocity": 0.91,
        "hand": "left"
      },
      {
        "midi": 65,
        "time": 42,
        "duration": 0.36,
        "velocity": 0.72,
        "hand": "right"
      },
      {
        "midi": 69,
        "time": 42,
        "duration": 0.5,
        "velocity": 0.59,
        "hand": "right"
      },
      {
        "midi": 79,
        "time": 42,
        "duration": 0.5,
        "velocity": 0.76,
        "hand": "right"
      },
      {
        "midi": 38,
        "time": 42.25,
        "duration": 0.063,
        "velocity": 1,
        "hand": "left"
      },
      {
        "midi": 62,
        "time": 42.25,
        "duration": 0.11,
        "velocity": 0.72,
        "hand": "right"
      },
      {
        "midi": 38,
        "time": 42.375,
        "duration": 0.063,
        "velocity": 0.97,
        "hand": "left"
      },
      {
        "midi": 51,
        "time": 42.375,
        "duration": 0.063,
        "velocity": 0.63,
        "hand": "left"
      },
      {
        "midi": 62,
        "time": 42.375,
        "duration": 0.11,
        "velocity": 0.54,
        "hand": "right"
      },
      {
        "midi": 65,
        "time": 42.375,
        "duration": 0.11,
        "velocity": 0.53,
        "hand": "right"
      },
      {
        "midi": 38,
        "time": 42.5,
        "duration": 0.485,
        "velocity": 0.87,
        "hand": "left"
      },
      {
        "midi": 51,
        "time": 42.5,
        "duration": 0.063,
        "velocity": 0.63,
        "hand": "left"
      },
      {
        "midi": 62,
        "time": 42.5,
        "duration": 0.063,
        "velocity": 0.57,
        "hand": "right"
      },
      {
        "midi": 65,
        "time": 42.5,
        "duration": 0.25,
        "velocity": 0.56,
        "hand": "right"
      },
      {
        "midi": 83,
        "time": 42.5,
        "duration": 0.5,
        "velocity": 0.76,
        "hand": "right"
      },
      {
        "midi": 55,
        "time": 42.75,
        "duration": 0.235,
        "velocity": 0.58,
        "hand": "left"
      },
      {
        "midi": 72,
        "time": 42.75,
        "duration": 0.25,
        "velocity": 0.55,
        "hand": "right"
      },
      {
        "midi": 51,
        "time": 42.875,
        "duration": 0.063,
        "velocity": 0.63,
        "hand": "left"
      },
      {
        "midi": 38,
        "time": 43,
        "duration": 0.063,
        "velocity": 1,
        "hand": "left"
      },
      {
        "midi": 47,
        "time": 43,
        "duration": 0.25,
        "velocity": 0.97,
        "hand": "left"
      },
      {
        "midi": 62,
        "time": 43,
        "duration": 0.375,
        "velocity": 0.55,
        "hand": "right"
      },
      {
        "midi": 65,
        "time": 43,
        "duration": 0.375,
        "velocity": 0.72,
        "hand": "right"
      },
      {
        "midi": 71,
        "time": 43,
        "duration": 0.25,
        "velocity": 0.52,
        "hand": "right"
      },
      {
        "midi": 74,
        "time": 43,
        "duration": 0.5,
        "velocity": 0.72,
        "hand": "right"
      },
      {
        "midi": 43,
        "time": 43.25,
        "duration": 0.25,
        "velocity": 0.96,
        "hand": "left"
      },
      {
        "midi": 50,
        "time": 43.25,
        "duration": 0.25,
        "velocity": 0.46,
        "hand": "left"
      },
      {
        "midi": 69,
        "time": 43.25,
        "duration": 0.25,
        "velocity": 0.52,
        "hand": "right"
      },
      {
        "midi": 51,
        "time": 43.375,
        "duration": 0.063,
        "velocity": 0.63,
        "hand": "left"
      },
      {
        "midi": 59,
        "time": 43.375,
        "duration": 0.125,
        "velocity": 0.42,
        "hand": "left"
      },
      {
        "midi": 36,
        "time": 43.5,
        "duration": 1.25,
        "velocity": 0.95,
        "hand": "left"
      },
      {
        "midi": 47,
        "time": 43.5,
        "duration": 0.063,
        "velocity": 0.89,
        "hand": "left"
      },
      {
        "midi": 62,
        "time": 43.5,
        "duration": 0.063,
        "velocity": 0.22,
        "hand": "right"
      },
      {
        "midi": 64,
        "time": 43.5,
        "duration": 0.36,
        "velocity": 0.58,
        "hand": "right"
      },
      {
        "midi": 67,
        "time": 43.5,
        "duration": 0.875,
        "velocity": 0.57,
        "hand": "right"
      },
      {
        "midi": 76,
        "time": 43.5,
        "duration": 1.375,
        "velocity": 0.72,
        "hand": "right"
      },
      {
        "midi": 60,
        "time": 43.75,
        "duration": 0.11,
        "velocity": 0.75,
        "hand": "right"
      },
      {
        "midi": 51,
        "time": 43.875,
        "duration": 0.063,
        "velocity": 0.63,
        "hand": "left"
      },
      {
        "midi": 55,
        "time": 43.875,
        "duration": 0.11,
        "velocity": 0.55,
        "hand": "left"
      },
      {
        "midi": 60,
        "time": 43.875,
        "duration": 0.063,
        "velocity": 0.61,
        "hand": "right"
      },
      {
        "midi": 64,
        "time": 43.875,
        "duration": 0.11,
        "velocity": 0.47,
        "hand": "right"
      },
      {
        "midi": 38,
        "time": 44,
        "duration": 0.063,
        "velocity": 1,
        "hand": "left"
      },
      {
        "midi": 40,
        "time": 44,
        "duration": 0.75,
        "velocity": 0.28,
        "hand": "left"
      },
      {
        "midi": 60,
        "time": 44,
        "duration": 0.063,
        "velocity": 0.65,
        "hand": "right"
      },
      {
        "midi": 64,
        "time": 44,
        "duration": 0.125,
        "velocity": 0.55,
        "hand": "right"
      },
      {
        "midi": 55,
        "time": 44.25,
        "duration": 0.235,
        "velocity": 0.5,
        "hand": "left"
      },
      {
        "midi": 51,
        "time": 44.375,
        "duration": 0.063,
        "velocity": 0.63,
        "hand": "left"
      },
      {
        "midi": 38,
        "time": 44.5,
        "duration": 0.063,
        "velocity": 1,
        "hand": "left"
      },
      {
        "midi": 43,
        "time": 44.5,
        "duration": 0.235,
        "velocity": 1,
        "hand": "left"
      },
      {
        "midi": 60,
        "time": 44.5,
        "duration": 0.25,
        "velocity": 0.57,
        "hand": "right"
      },
      {
        "midi": 64,
        "time": 44.5,
        "duration": 0.25,
        "velocity": 0.69,
        "hand": "right"
      },
      {
        "midi": 67,
        "time": 44.5,
        "duration": 0.375,
        "velocity": 0.57,
        "hand": "right"
      },
      {
        "midi": 43,
        "time": 44.75,
        "duration": 0.25,
        "velocity": 0.48,
        "hand": "left"
      },
      {
        "midi": 55,
        "time": 44.75,
        "duration": 0.125,
        "velocity": 0.61,
        "hand": "left"
      },
      {
        "midi": 51,
        "time": 44.875,
        "duration": 0.063,
        "velocity": 0.63,
        "hand": "left"
      },
      {
        "midi": 72,
        "time": 44.875,
        "duration": 0.75,
        "velocity": 0.72,
        "hand": "right"
      },
      {
        "midi": 36,
        "time": 45,
        "duration": 1,
        "velocity": 0.97,
        "hand": "left"
      },
      {
        "midi": 47,
        "time": 45,
        "duration": 0.063,
        "velocity": 0.97,
        "hand": "left"
      },
      {
        "midi": 60,
        "time": 45,
        "duration": 0.36,
        "velocity": 0.75,
        "hand": "right"
      },
      {
        "midi": 65,
        "time": 45,
        "duration": 0.875,
        "velocity": 0.72,
        "hand": "right"
      },
      {
        "midi": 77,
        "time": 45,
        "duration": 0.5,
        "velocity": 0.73,
        "hand": "right"
      },
      {
        "midi": 38,
        "time": 45.25,
        "duration": 0.063,
        "velocity": 1,
        "hand": "left"
      },
      {
        "midi": 38,
        "time": 45.375,
        "duration": 0.063,
        "velocity": 0.91,
        "hand": "left"
      },
      {
        "midi": 51,
        "time": 45.375,
        "duration": 0.063,
        "velocity": 0.63,
        "hand": "left"
      },
      {
        "midi": 60,
        "time": 45.375,
        "duration": 0.063,
        "velocity": 0.61,
        "hand": "right"
      },
      {
        "midi": 64,
        "time": 45.375,
        "duration": 0.063,
        "velocity": 0.51,
        "hand": "right"
      },
      {
        "midi": 38,
        "time": 45.5,
        "duration": 0.063,
        "velocity": 0.85,
        "hand": "left"
      },
      {
        "midi": 51,
        "time": 45.5,
        "duration": 0.063,
        "velocity": 0.63,
        "hand": "left"
      },
      {
        "midi": 60,
        "time": 45.5,
        "duration": 0.375,
        "velocity": 0.69,
        "hand": "right"
      },
      {
        "midi": 64,
        "time": 45.5,
        "duration": 0.375,
        "velocity": 0.72,
        "hand": "right"
      },
      {
        "midi": 76,
        "time": 45.5,
        "duration": 0.5,
        "velocity": 0.63,
        "hand": "right"
      },
      {
        "midi": 72,
        "time": 45.75,
        "duration": 0.25,
        "velocity": 0.63,
        "hand": "right"
      },
      {
        "midi": 51,
        "time": 45.875,
        "duration": 0.063,
        "velocity": 0.63,
        "hand": "left"
      },
      {
        "midi": 38,
        "time": 46,
        "duration": 0.063,
        "velocity": 1,
        "hand": "left"
      },
      {
        "midi": 43,
        "time": 46,
        "duration": 0.25,
        "velocity": 1,
        "hand": "left"
      },
      {
        "midi": 60,
        "time": 46,
        "duration": 0.36,
        "velocity": 0.74,
        "hand": "right"
      },
      {
        "midi": 64,
        "time": 46,
        "duration": 0.375,
        "velocity": 0.7,
        "hand": "right"
      },
      {
        "midi": 74,
        "time": 46,
        "duration": 0.5,
        "velocity": 0.72,
        "hand": "right"
      },
      {
        "midi": 36,
        "time": 46.25,
        "duration": 0.25,
        "velocity": 0.84,
        "hand": "left"
      },
      {
        "midi": 72,
        "time": 46.25,
        "duration": 0.25,
        "velocity": 0.52,
        "hand": "right"
      },
      {
        "midi": 51,
        "time": 46.375,
        "duration": 0.063,
        "velocity": 0.63,
        "hand": "left"
      },
      {
        "midi": 60,
        "time": 46.375,
        "duration": 0.11,
        "velocity": 0.28,
        "hand": "right"
      },
      {
        "midi": 41,
        "time": 46.5,
        "duration": 1.235,
        "velocity": 0.99,
        "hand": "left"
      },
      {
        "midi": 47,
        "time": 46.5,
        "duration": 0.063,
        "velocity": 0.89,
        "hand": "left"
      },
      {
        "midi": 60,
        "time": 46.5,
        "duration": 0.36,
        "velocity": 0.65,
        "hand": "right"
      },
      {
        "midi": 64,
        "time": 46.5,
        "duration": 0.875,
        "velocity": 0.54,
        "hand": "right"
      },
      {
        "midi": 71,
        "time": 46.5,
        "duration": 0.5,
        "velocity": 0.54,
        "hand": "right"
      },
      {
        "midi": 84,
        "time": 46.5,
        "duration": 1,
        "velocity": 0.7,
        "hand": "right"
      },
      {
        "midi": 45,
        "time": 46.875,
        "duration": 0.75,
        "velocity": 0.5,
        "hand": "left"
      },
      {
        "midi": 51,
        "time": 46.875,
        "duration": 0.063,
        "velocity": 0.63,
        "hand": "left"
      },
      {
        "midi": 60,
        "time": 46.875,
        "duration": 0.063,
        "velocity": 0.69,
        "hand": "right"
      },
      {
        "midi": 65,
        "time": 46.875,
        "duration": 0.11,
        "velocity": 0.56,
        "hand": "right"
      },
      {
        "midi": 69,
        "time": 46.875,
        "duration": 0.375,
        "velocity": 0.5,
        "hand": "right"
      },
      {
        "midi": 38,
        "time": 47,
        "duration": 0.063,
        "velocity": 0.99,
        "hand": "left"
      },
      {
        "midi": 51,
        "time": 47,
        "duration": 0.063,
        "velocity": 0.63,
        "hand": "left"
      },
      {
        "midi": 60,
        "time": 47,
        "duration": 0.063,
        "velocity": 0.72,
        "hand": "right"
      },
      {
        "midi": 65,
        "time": 47,
        "duration": 0.125,
        "velocity": 0.53,
        "hand": "right"
      },
      {
        "midi": 51,
        "time": 47.375,
        "duration": 0.063,
        "velocity": 0.63,
        "hand": "left"
      },
      {
        "midi": 36,
        "time": 47.5,
        "duration": 0.25,
        "velocity": 0.8,
        "hand": "left"
      },
      {
        "midi": 38,
        "time": 47.5,
        "duration": 0.063,
        "velocity": 1,
        "hand": "left"
      },
      {
        "midi": 65,
        "time": 47.5,
        "duration": 0.375,
        "velocity": 0.72,
        "hand": "right"
      },
      {
        "midi": 69,
        "time": 47.5,
        "duration": 0.5,
        "velocity": 0.57,
        "hand": "right"
      },
      {
        "midi": 81,
        "time": 47.5,
        "duration": 0.5,
        "velocity": 0.74,
        "hand": "right"
      },
      {
        "midi": 41,
        "time": 47.75,
        "duration": 0.25,
        "velocity": 0.8,
        "hand": "left"
      },
      {
        "midi": 48,
        "time": 47.75,
        "duration": 0.25,
        "velocity": 0.51,
        "hand": "left"
      },
      {
        "midi": 43,
        "time": 47.875,
        "duration": 0.11,
        "velocity": 0.45,
        "hand": "left"
      },
      {
        "midi": 51,
        "time": 47.875,
        "duration": 0.063,
        "velocity": 0.63,
        "hand": "left"
      },
      {
        "midi": 62,
        "time": 47.875,
        "duration": 0.11,
        "velocity": 0.5,
        "hand": "right"
      },
      {
        "midi": 67,
        "time": 47.875,
        "duration": 0.5,
        "velocity": 0.49,
        "hand": "right"
      },
      {
        "midi": 43,
        "time": 48,
        "duration": 1,
        "velocity": 1,
        "hand": "left"
      },
      {
        "midi": 47,
        "time": 48,
        "duration": 0.063,
        "velocity": 0.87,
        "hand": "left"
      },
      {
        "midi": 60,
        "time": 48,
        "duration": 0.063,
        "velocity": 0.24,
        "hand": "right"
      },
      {
        "midi": 62,
        "time": 48,
        "duration": 0.36,
        "velocity": 0.63,
        "hand": "right"
      },
      {
        "midi": 83,
        "time": 48,
        "duration": 0.5,
        "velocity": 0.74,
        "hand": "right"
      },
      {
        "midi": 38,
        "time": 48.25,
        "duration": 0.063,
        "velocity": 1,
        "hand": "left"
      },
      {
        "midi": 59,
        "time": 48.25,
        "duration": 0.11,
        "velocity": 0.73,
        "hand": "left"
      },
      {
        "midi": 38,
        "time": 48.375,
        "duration": 0.063,
        "velocity": 1,
        "hand": "left"
      },
      {
        "midi": 47,
        "time": 48.375,
        "duration": 0.875,
        "velocity": 0.17,
        "hand": "left"
      },
      {
        "midi": 62,
        "time": 48.375,
        "duration": 0.063,
        "velocity": 0.61,
        "hand": "right"
      },
      {
        "midi": 64,
        "time": 48.375,
        "duration": 0.063,
        "velocity": 0.57,
        "hand": "right"
      },
      {
        "midi": 69,
        "time": 48.375,
        "duration": 0.11,
        "velocity": 0.58,
        "hand": "right"
      },
      {
        "midi": 84,
        "time": 48.375,
        "duration": 0.5,
        "velocity": 0.61,
        "hand": "right"
      },
      {
        "midi": 38,
        "time": 48.5,
        "duration": 0.063,
        "velocity": 0.86,
        "hand": "left"
      },
      {
        "midi": 54,
        "time": 48.5,
        "duration": 0.063,
        "velocity": 0.55,
        "hand": "left"
      },
      {
        "midi": 62,
        "time": 48.5,
        "duration": 0.125,
        "velocity": 0.54,
        "hand": "right"
      },
      {
        "midi": 64,
        "time": 48.5,
        "duration": 0.125,
        "velocity": 0.56,
        "hand": "right"
      },
      {
        "midi": 69,
        "time": 48.5,
        "duration": 0.125,
        "velocity": 0.46,
        "hand": "right"
      },
      {
        "midi": 71,
        "time": 48.5,
        "duration": 0.25,
        "velocity": 0.4,
        "hand": "right"
      },
      {
        "midi": 51,
        "time": 48.625,
        "duration": 0.063,
        "velocity": 0.63,
        "hand": "left"
      },
      {
        "midi": 53,
        "time": 48.75,
        "duration": 0.25,
        "velocity": 0.63,
        "hand": "left"
      },
      {
        "midi": 69,
        "time": 48.75,
        "duration": 0.235,
        "velocity": 0.5,
        "hand": "right"
      },
      {
        "midi": 51,
        "time": 48.875,
        "duration": 0.063,
        "velocity": 0.63,
        "hand": "left"
      },
      {
        "midi": 38,
        "time": 49,
        "duration": 0.25,
        "velocity": 1,
        "hand": "left"
      },
      {
        "midi": 51,
        "time": 49,
        "duration": 0.063,
        "velocity": 0.63,
        "hand": "left"
      },
      {
        "midi": 65,
        "time": 49,
        "duration": 0.25,
        "velocity": 0.54,
        "hand": "right"
      },
      {
        "midi": 69,
        "time": 49,
        "duration": 0.25,
        "velocity": 0.69,
        "hand": "right"
      },
      {
        "midi": 74,
        "time": 49,
        "duration": 0.5,
        "velocity": 0.57,
        "hand": "right"
      },
      {
        "midi": 43,
        "time": 49.25,
        "duration": 0.125,
        "velocity": 0.8,
        "hand": "left"
      },
      {
        "midi": 50,
        "time": 49.25,
        "duration": 0.25,
        "velocity": 0.51,
        "hand": "left"
      },
      {
        "midi": 62,
        "time": 49.25,
        "duration": 0.235,
        "velocity": 0.54,
        "hand": "right"
      },
      {
        "midi": 51,
        "time": 49.375,
        "duration": 0.063,
        "velocity": 0.63,
        "hand": "left"
      },
      {
        "midi": 60,
        "time": 49.375,
        "duration": 0.11,
        "velocity": 0.43,
        "hand": "right"
      },
      {
        "midi": 64,
        "time": 49.375,
        "duration": 0.11,
        "velocity": 0.38,
        "hand": "right"
      },
      {
        "midi": 36,
        "time": 49.5,
        "duration": 0.75,
        "velocity": 0.57,
        "hand": "left"
      },
      {
        "midi": 47,
        "time": 49.5,
        "duration": 0.063,
        "velocity": 0.93,
        "hand": "left"
      },
      {
        "midi": 60,
        "time": 49.5,
        "duration": 0.36,
        "velocity": 0.57,
        "hand": "right"
      },
      {
        "midi": 62,
        "time": 49.5,
        "duration": 0.75,
        "velocity": 0.36,
        "hand": "right"
      },
      {
        "midi": 64,
        "time": 49.5,
        "duration": 0.36,
        "velocity": 0.37,
        "hand": "right"
      },
      {
        "midi": 84,
        "time": 49.5,
        "duration": 1.25,
        "velocity": 0.56,
        "hand": "right"
      },
      {
        "midi": 51,
        "time": 49.875,
        "duration": 0.063,
        "velocity": 0.63,
        "hand": "left"
      },
      {
        "midi": 55,
        "time": 49.875,
        "duration": 0.11,
        "velocity": 0.56,
        "hand": "left"
      },
      {
        "midi": 60,
        "time": 49.875,
        "duration": 0.063,
        "velocity": 0.68,
        "hand": "right"
      },
      {
        "midi": 64,
        "time": 49.875,
        "duration": 0.11,
        "velocity": 0.52,
        "hand": "right"
      },
      {
        "midi": 38,
        "time": 50,
        "duration": 0.063,
        "velocity": 0.95,
        "hand": "left"
      },
      {
        "midi": 51,
        "time": 50,
        "duration": 0.063,
        "velocity": 0.63,
        "hand": "left"
      },
      {
        "midi": 60,
        "time": 50,
        "duration": 0.125,
        "velocity": 0.57,
        "hand": "right"
      },
      {
        "midi": 64,
        "time": 50,
        "duration": 0.125,
        "velocity": 0.54,
        "hand": "right"
      },
      {
        "midi": 51,
        "time": 50.375,
        "duration": 0.063,
        "velocity": 0.63,
        "hand": "left"
      },
      {
        "midi": 38,
        "time": 50.5,
        "duration": 0.063,
        "velocity": 1,
        "hand": "left"
      },
      {
        "midi": 51,
        "time": 50.5,
        "duration": 0.063,
        "velocity": 0.63,
        "hand": "left"
      },
      {
        "midi": 60,
        "time": 50.5,
        "duration": 0.125,
        "velocity": 0.73,
        "hand": "right"
      },
      {
        "midi": 64,
        "time": 50.5,
        "duration": 0.125,
        "velocity": 0.61,
        "hand": "right"
      },
      {
        "midi": 67,
        "time": 50.5,
        "duration": 0.5,
        "velocity": 0.79,
        "hand": "right"
      },
      {
        "midi": 51,
        "time": 50.875,
        "duration": 0.063,
        "velocity": 0.63,
        "hand": "left"
      },
      {
        "midi": 38,
        "time": 51,
        "duration": 0.485,
        "velocity": 1,
        "hand": "left"
      },
      {
        "midi": 47,
        "time": 51,
        "duration": 0.063,
        "velocity": 0.89,
        "hand": "left"
      },
      {
        "midi": 60,
        "time": 51,
        "duration": 0.235,
        "velocity": 0.42,
        "hand": "right"
      },
      {
        "midi": 62,
        "time": 51,
        "duration": 0.5,
        "velocity": 0.76,
        "hand": "right"
      },
      {
        "midi": 64,
        "time": 51,
        "duration": 0.235,
        "velocity": 0.4,
        "hand": "right"
      },
      {
        "midi": 53,
        "time": 51.25,
        "duration": 0.11,
        "velocity": 0.7,
        "hand": "left"
      },
      {
        "midi": 57,
        "time": 51.25,
        "duration": 0.11,
        "velocity": 0.74,
        "hand": "left"
      },
      {
        "midi": 60,
        "time": 51.25,
        "duration": 0.11,
        "velocity": 0.75,
        "hand": "right"
      },
      {
        "midi": 64,
        "time": 51.25,
        "duration": 0.11,
        "velocity": 0.69,
        "hand": "right"
      },
      {
        "midi": 51,
        "time": 51.375,
        "duration": 0.063,
        "velocity": 0.63,
        "hand": "left"
      },
      {
        "midi": 53,
        "time": 51.375,
        "duration": 0.11,
        "velocity": 0.57,
        "hand": "left"
      },
      {
        "midi": 60,
        "time": 51.375,
        "duration": 0.11,
        "velocity": 0.7,
        "hand": "right"
      },
      {
        "midi": 64,
        "time": 51.375,
        "duration": 0.11,
        "velocity": 0.55,
        "hand": "right"
      },
      {
        "midi": 38,
        "time": 51.5,
        "duration": 0.063,
        "velocity": 0.99,
        "hand": "left"
      },
      {
        "midi": 51,
        "time": 51.5,
        "duration": 0.063,
        "velocity": 0.63,
        "hand": "left"
      },
      {
        "midi": 60,
        "time": 51.5,
        "duration": 0.125,
        "velocity": 0.61,
        "hand": "right"
      },
      {
        "midi": 64,
        "time": 51.5,
        "duration": 0.485,
        "velocity": 0.73,
        "hand": "right"
      },
      {
        "midi": 51,
        "time": 51.875,
        "duration": 0.063,
        "velocity": 0.63,
        "hand": "left"
      },
      {
        "midi": 38,
        "time": 52,
        "duration": 0.5,
        "velocity": 1,
        "hand": "left"
      },
      {
        "midi": 51,
        "time": 52,
        "duration": 0.063,
        "velocity": 0.63,
        "hand": "left"
      },
      {
        "midi": 60,
        "time": 52,
        "duration": 0.375,
        "velocity": 0.72,
        "hand": "right"
      },
      {
        "midi": 65,
        "time": 52,
        "duration": 0.5,
        "velocity": 0.56,
        "hand": "right"
      },
      {
        "midi": 56,
        "time": 52.25,
        "duration": 0.235,
        "velocity": 0.17,
        "hand": "left"
      },
      {
        "midi": 51,
        "time": 52.375,
        "duration": 0.063,
        "velocity": 0.63,
        "hand": "left"
      },
      {
        "midi": 37,
        "time": 52.5,
        "duration": 0.985,
        "velocity": 1,
        "hand": "left"
      },
      {
        "midi": 47,
        "time": 52.5,
        "duration": 0.063,
        "velocity": 0.87,
        "hand": "left"
      },
      {
        "midi": 63,
        "time": 52.5,
        "duration": 0.235,
        "velocity": 0.44,
        "hand": "right"
      },
      {
        "midi": 67,
        "time": 52.5,
        "duration": 0.235,
        "velocity": 0.4,
        "hand": "right"
      },
      {
        "midi": 38,
        "time": 52.75,
        "duration": 0.063,
        "velocity": 1,
        "hand": "left"
      },
      {
        "midi": 56,
        "time": 52.75,
        "duration": 0.11,
        "velocity": 0.72,
        "hand": "left"
      },
      {
        "midi": 63,
        "time": 52.75,
        "duration": 0.11,
        "velocity": 0.57,
        "hand": "right"
      },
      {
        "midi": 67,
        "time": 52.75,
        "duration": 0.5,
        "velocity": 0.68,
        "hand": "right"
      },
      {
        "midi": 38,
        "time": 52.875,
        "duration": 0.063,
        "velocity": 1,
        "hand": "left"
      },
      {
        "midi": 51,
        "time": 52.875,
        "duration": 0.063,
        "velocity": 0.63,
        "hand": "left"
      },
      {
        "midi": 63,
        "time": 52.875,
        "duration": 0.11,
        "velocity": 0.5,
        "hand": "right"
      },
      {
        "midi": 38,
        "time": 53,
        "duration": 0.063,
        "velocity": 0.86,
        "hand": "left"
      },
      {
        "midi": 53,
        "time": 53,
        "duration": 0.125,
        "velocity": 0.4,
        "hand": "left"
      },
      {
        "midi": 63,
        "time": 53,
        "duration": 0.125,
        "velocity": 0.42,
        "hand": "right"
      },
      {
        "midi": 71,
        "time": 53,
        "duration": 0.5,
        "velocity": 0.72,
        "hand": "right"
      },
      {
        "midi": 51,
        "time": 53.125,
        "duration": 0.063,
        "velocity": 0.63,
        "hand": "left"
      },
      {
        "midi": 51,
        "time": 53.375,
        "duration": 0.063,
        "velocity": 0.63,
        "hand": "left"
      },
      {
        "midi": 38,
        "time": 53.5,
        "duration": 0.063,
        "velocity": 1,
        "hand": "left"
      },
      {
        "midi": 63,
        "time": 53.5,
        "duration": 0.375,
        "velocity": 0.61,
        "hand": "right"
      },
      {
        "midi": 67,
        "time": 53.5,
        "duration": 0.25,
        "velocity": 0.58,
        "hand": "right"
      },
      {
        "midi": 74,
        "time": 53.5,
        "duration": 0.5,
        "velocity": 0.64,
        "hand": "right"
      },
      {
        "midi": 51,
        "time": 53.875,
        "duration": 0.063,
        "velocity": 0.63,
        "hand": "left"
      },
      {
        "midi": 36,
        "time": 54,
        "duration": 3,
        "velocity": 0.72,
        "hand": "left"
      },
      {
        "midi": 38,
        "time": 54,
        "duration": 0.063,
        "velocity": 0.69,
        "hand": "left"
      },
      {
        "midi": 62,
        "time": 54,
        "duration": 3,
        "velocity": 0.7,
        "hand": "right"
      },
      {
        "midi": 64,
        "time": 54,
        "duration": 3,
        "velocity": 0.72,
        "hand": "right"
      },
      {
        "midi": 67,
        "time": 54,
        "duration": 3,
        "velocity": 0.7,
        "hand": "right"
      },
      {
        "midi": 76,
        "time": 54,
        "duration": 3,
        "velocity": 0.72,
        "hand": "right"
      },
      {
        "midi": 38,
        "time": 54.125,
        "duration": 0.063,
        "velocity": 0.56,
        "hand": "left"
      },
      {
        "midi": 38,
        "time": 54.25,
        "duration": 0.063,
        "velocity": 0.46,
        "hand": "left"
      },
      {
        "midi": 38,
        "time": 54.375,
        "duration": 0.063,
        "velocity": 0.3,
        "hand": "left"
      },
      {
        "midi": 38,
        "time": 54.5,
        "duration": 0.063,
        "velocity": 0.23,
        "hand": "left"
      },
      {
        "midi": 38,
        "time": 54.625,
        "duration": 0.063,
        "velocity": 0.17,
        "hand": "left"
      },
      {
        "midi": 38,
        "time": 54.75,
        "duration": 0.063,
        "velocity": 0.08,
        "hand": "left"
      },
      {
        "midi": 38,
        "time": 54.875,
        "duration": 0.063,
        "velocity": 0.08,
        "hand": "left"
      },
      {
        "midi": 38,
        "time": 55,
        "duration": 0.063,
        "velocity": 0.69,
        "hand": "left"
      },
      {
        "midi": 38,
        "time": 55.125,
        "duration": 0.063,
        "velocity": 0.56,
        "hand": "left"
      },
      {
        "midi": 38,
        "time": 55.25,
        "duration": 0.063,
        "velocity": 0.46,
        "hand": "left"
      },
      {
        "midi": 38,
        "time": 55.375,
        "duration": 0.063,
        "velocity": 0.3,
        "hand": "left"
      },
      {
        "midi": 38,
        "time": 55.5,
        "duration": 0.063,
        "velocity": 0.23,
        "hand": "left"
      },
      {
        "midi": 38,
        "time": 55.625,
        "duration": 0.063,
        "velocity": 0.17,
        "hand": "left"
      },
      {
        "midi": 38,
        "time": 55.75,
        "duration": 0.063,
        "velocity": 0.08,
        "hand": "left"
      },
      {
        "midi": 38,
        "time": 55.875,
        "duration": 0.063,
        "velocity": 0.08,
        "hand": "left"
      }
    ]
  },
  "notes1Hand": [
    {
      "midi": 62,
      "time": 0,
      "duration": 0.5,
      "velocity": 0.72,
      "hand": "right"
    },
    {
      "midi": 63,
      "time": 0.875,
      "duration": 0.45,
      "velocity": 0.63,
      "hand": "right"
    },
    {
      "midi": 67,
      "time": 1.75,
      "duration": 0.5,
      "velocity": 0.68,
      "hand": "right"
    },
    {
      "midi": 74,
      "time": 2.5,
      "duration": 0.5,
      "velocity": 0.68,
      "hand": "right"
    },
    {
      "midi": 64,
      "time": 3.375,
      "duration": 0.45,
      "velocity": 0.5,
      "hand": "right"
    },
    {
      "midi": 69,
      "time": 4.25,
      "duration": 0.45,
      "velocity": 0.42,
      "hand": "right"
    },
    {
      "midi": 65,
      "time": 5,
      "duration": 0.485,
      "velocity": 0.54,
      "hand": "right"
    },
    {
      "midi": 62,
      "time": 5.75,
      "duration": 0.45,
      "velocity": 0.56,
      "hand": "right"
    },
    {
      "midi": 65,
      "time": 6.5,
      "duration": 0.45,
      "velocity": 0.56,
      "hand": "right"
    },
    {
      "midi": 69,
      "time": 7.25,
      "duration": 0.45,
      "velocity": 0.52,
      "hand": "right"
    },
    {
      "midi": 64,
      "time": 8,
      "duration": 0.45,
      "velocity": 0.55,
      "hand": "right"
    },
    {
      "midi": 55,
      "time": 8.75,
      "duration": 0.45,
      "velocity": 0.61,
      "hand": "right"
    },
    {
      "midi": 64,
      "time": 9.5,
      "duration": 0.45,
      "velocity": 0.72,
      "hand": "right"
    },
    {
      "midi": 72,
      "time": 10.25,
      "duration": 0.45,
      "velocity": 0.52,
      "hand": "right"
    },
    {
      "midi": 65,
      "time": 11,
      "duration": 0.45,
      "velocity": 0.53,
      "hand": "right"
    },
    {
      "midi": 60,
      "time": 11.75,
      "duration": 0.45,
      "velocity": 0.51,
      "hand": "right"
    },
    {
      "midi": 71,
      "time": 12.5,
      "duration": 0.45,
      "velocity": 0.4,
      "hand": "right"
    },
    {
      "midi": 62,
      "time": 13.25,
      "duration": 0.45,
      "velocity": 0.54,
      "hand": "right"
    },
    {
      "midi": 64,
      "time": 14,
      "duration": 0.45,
      "velocity": 0.54,
      "hand": "right"
    },
    {
      "midi": 59,
      "time": 14.75,
      "duration": 0.45,
      "velocity": 0.87,
      "hand": "right"
    },
    {
      "midi": 79,
      "time": 15.5,
      "duration": 0.5,
      "velocity": 0.76,
      "hand": "right"
    },
    {
      "midi": 69,
      "time": 16.25,
      "duration": 0.45,
      "velocity": 0.42,
      "hand": "right"
    },
    {
      "midi": 65,
      "time": 17,
      "duration": 0.485,
      "velocity": 0.54,
      "hand": "right"
    },
    {
      "midi": 62,
      "time": 17.75,
      "duration": 0.45,
      "velocity": 0.56,
      "hand": "right"
    },
    {
      "midi": 83,
      "time": 18.5,
      "duration": 0.5,
      "velocity": 0.76,
      "hand": "right"
    },
    {
      "midi": 69,
      "time": 19.25,
      "duration": 0.45,
      "velocity": 0.52,
      "hand": "right"
    },
    {
      "midi": 64,
      "time": 20,
      "duration": 0.45,
      "velocity": 0.55,
      "hand": "right"
    },
    {
      "midi": 55,
      "time": 20.75,
      "duration": 0.45,
      "velocity": 0.61,
      "hand": "right"
    },
    {
      "midi": 76,
      "time": 21.5,
      "duration": 0.5,
      "velocity": 0.63,
      "hand": "right"
    },
    {
      "midi": 72,
      "time": 22.25,
      "duration": 0.45,
      "velocity": 0.52,
      "hand": "right"
    },
    {
      "midi": 65,
      "time": 23,
      "duration": 0.45,
      "velocity": 0.53,
      "hand": "right"
    },
    {
      "midi": 60,
      "time": 23.75,
      "duration": 0.45,
      "velocity": 0.51,
      "hand": "right"
    },
    {
      "midi": 71,
      "time": 24.5,
      "duration": 0.45,
      "velocity": 0.4,
      "hand": "right"
    },
    {
      "midi": 62,
      "time": 25.25,
      "duration": 0.45,
      "velocity": 0.54,
      "hand": "right"
    },
    {
      "midi": 64,
      "time": 26,
      "duration": 0.45,
      "velocity": 0.54,
      "hand": "right"
    },
    {
      "midi": 55,
      "time": 26.75,
      "duration": 0.45,
      "velocity": 0.72,
      "hand": "right"
    },
    {
      "midi": 64,
      "time": 27.5,
      "duration": 0.45,
      "velocity": 0.56,
      "hand": "right"
    },
    {
      "midi": 69,
      "time": 28.25,
      "duration": 0.45,
      "velocity": 0.42,
      "hand": "right"
    },
    {
      "midi": 65,
      "time": 29,
      "duration": 0.485,
      "velocity": 0.54,
      "hand": "right"
    },
    {
      "midi": 62,
      "time": 29.75,
      "duration": 0.45,
      "velocity": 0.56,
      "hand": "right"
    },
    {
      "midi": 65,
      "time": 30.5,
      "duration": 0.45,
      "velocity": 0.56,
      "hand": "right"
    },
    {
      "midi": 69,
      "time": 31.25,
      "duration": 0.45,
      "velocity": 0.52,
      "hand": "right"
    },
    {
      "midi": 64,
      "time": 32,
      "duration": 0.45,
      "velocity": 0.55,
      "hand": "right"
    },
    {
      "midi": 55,
      "time": 32.75,
      "duration": 0.45,
      "velocity": 0.61,
      "hand": "right"
    },
    {
      "midi": 64,
      "time": 33.5,
      "duration": 0.45,
      "velocity": 0.72,
      "hand": "right"
    },
    {
      "midi": 72,
      "time": 34.25,
      "duration": 0.45,
      "velocity": 0.52,
      "hand": "right"
    },
    {
      "midi": 65,
      "time": 35,
      "duration": 0.45,
      "velocity": 0.53,
      "hand": "right"
    },
    {
      "midi": 60,
      "time": 35.75,
      "duration": 0.45,
      "velocity": 0.51,
      "hand": "right"
    },
    {
      "midi": 71,
      "time": 36.5,
      "duration": 0.45,
      "velocity": 0.4,
      "hand": "right"
    },
    {
      "midi": 62,
      "time": 37.25,
      "duration": 0.45,
      "velocity": 0.54,
      "hand": "right"
    },
    {
      "midi": 64,
      "time": 38,
      "duration": 0.45,
      "velocity": 0.54,
      "hand": "right"
    },
    {
      "midi": 59,
      "time": 38.75,
      "duration": 0.45,
      "velocity": 0.87,
      "hand": "right"
    },
    {
      "midi": 79,
      "time": 39.5,
      "duration": 0.5,
      "velocity": 0.76,
      "hand": "right"
    },
    {
      "midi": 69,
      "time": 40.25,
      "duration": 0.45,
      "velocity": 0.42,
      "hand": "right"
    },
    {
      "midi": 65,
      "time": 41,
      "duration": 0.485,
      "velocity": 0.54,
      "hand": "right"
    },
    {
      "midi": 62,
      "time": 41.75,
      "duration": 0.45,
      "velocity": 0.56,
      "hand": "right"
    },
    {
      "midi": 83,
      "time": 42.5,
      "duration": 0.5,
      "velocity": 0.76,
      "hand": "right"
    },
    {
      "midi": 69,
      "time": 43.25,
      "duration": 0.45,
      "velocity": 0.52,
      "hand": "right"
    },
    {
      "midi": 64,
      "time": 44,
      "duration": 0.45,
      "velocity": 0.55,
      "hand": "right"
    },
    {
      "midi": 55,
      "time": 44.75,
      "duration": 0.45,
      "velocity": 0.61,
      "hand": "right"
    },
    {
      "midi": 76,
      "time": 45.5,
      "duration": 0.5,
      "velocity": 0.63,
      "hand": "right"
    },
    {
      "midi": 72,
      "time": 46.25,
      "duration": 0.45,
      "velocity": 0.52,
      "hand": "right"
    },
    {
      "midi": 65,
      "time": 47,
      "duration": 0.45,
      "velocity": 0.53,
      "hand": "right"
    },
    {
      "midi": 60,
      "time": 47.75,
      "duration": 0.45,
      "velocity": 0.51,
      "hand": "right"
    },
    {
      "midi": 71,
      "time": 48.5,
      "duration": 0.45,
      "velocity": 0.4,
      "hand": "right"
    },
    {
      "midi": 62,
      "time": 49.25,
      "duration": 0.45,
      "velocity": 0.54,
      "hand": "right"
    },
    {
      "midi": 64,
      "time": 50,
      "duration": 0.45,
      "velocity": 0.54,
      "hand": "right"
    },
    {
      "midi": 63,
      "time": 50.875,
      "duration": 0.45,
      "velocity": 0.63,
      "hand": "right"
    },
    {
      "midi": 63,
      "time": 51.875,
      "duration": 0.45,
      "velocity": 0.63,
      "hand": "right"
    },
    {
      "midi": 67,
      "time": 52.75,
      "duration": 0.5,
      "velocity": 0.68,
      "hand": "right"
    },
    {
      "midi": 74,
      "time": 53.5,
      "duration": 0.5,
      "velocity": 0.64,
      "hand": "right"
    },
    {
      "midi": 62,
      "time": 54.25,
      "duration": 0.45,
      "velocity": 0.46,
      "hand": "right"
    },
    {
      "midi": 62,
      "time": 55,
      "duration": 0.45,
      "velocity": 0.69,
      "hand": "right"
    },
    {
      "midi": 62,
      "time": 55.75,
      "duration": 0.45,
      "velocity": 0.08,
      "hand": "right"
    }
  ],
  "notes2Hands": [
    {
      "midi": 38,
      "time": 0,
      "duration": 0.485,
      "velocity": 1,
      "hand": "left"
    },
    {
      "midi": 47,
      "time": 0,
      "duration": 0.063,
      "velocity": 0.89,
      "hand": "left"
    },
    {
      "midi": 62,
      "time": 0,
      "duration": 0.5,
      "velocity": 0.72,
      "hand": "right"
    },
    {
      "midi": 51,
      "time": 0.375,
      "duration": 0.063,
      "velocity": 0.63,
      "hand": "left"
    },
    {
      "midi": 53,
      "time": 0.375,
      "duration": 0.11,
      "velocity": 0.7,
      "hand": "left"
    },
    {
      "midi": 60,
      "time": 0.375,
      "duration": 0.11,
      "velocity": 0.75,
      "hand": "right"
    },
    {
      "midi": 64,
      "time": 0.375,
      "duration": 0.11,
      "velocity": 0.69,
      "hand": "right"
    },
    {
      "midi": 38,
      "time": 0.5,
      "duration": 0.063,
      "velocity": 0.99,
      "hand": "left"
    },
    {
      "midi": 51,
      "time": 0.5,
      "duration": 0.063,
      "velocity": 0.63,
      "hand": "left"
    },
    {
      "midi": 60,
      "time": 0.5,
      "duration": 0.125,
      "velocity": 0.61,
      "hand": "right"
    },
    {
      "midi": 64,
      "time": 0.5,
      "duration": 0.485,
      "velocity": 0.8,
      "hand": "right"
    },
    {
      "midi": 51,
      "time": 0.875,
      "duration": 0.063,
      "velocity": 0.63,
      "hand": "left"
    },
    {
      "midi": 38,
      "time": 1,
      "duration": 0.5,
      "velocity": 1,
      "hand": "left"
    },
    {
      "midi": 51,
      "time": 1,
      "duration": 0.063,
      "velocity": 0.63,
      "hand": "left"
    },
    {
      "midi": 60,
      "time": 1,
      "duration": 0.375,
      "velocity": 0.72,
      "hand": "right"
    },
    {
      "midi": 65,
      "time": 1,
      "duration": 0.5,
      "velocity": 0.57,
      "hand": "right"
    },
    {
      "midi": 51,
      "time": 1.375,
      "duration": 0.063,
      "velocity": 0.63,
      "hand": "left"
    },
    {
      "midi": 37,
      "time": 1.5,
      "duration": 0.985,
      "velocity": 1,
      "hand": "left"
    },
    {
      "midi": 47,
      "time": 1.5,
      "duration": 0.063,
      "velocity": 0.87,
      "hand": "left"
    },
    {
      "midi": 67,
      "time": 1.5,
      "duration": 0.235,
      "velocity": 0.53,
      "hand": "right"
    },
    {
      "midi": 38,
      "time": 1.75,
      "duration": 0.063,
      "velocity": 1,
      "hand": "left"
    },
    {
      "midi": 56,
      "time": 1.75,
      "duration": 0.11,
      "velocity": 0.72,
      "hand": "left"
    },
    {
      "midi": 63,
      "time": 1.75,
      "duration": 0.11,
      "velocity": 0.57,
      "hand": "right"
    },
    {
      "midi": 67,
      "time": 1.75,
      "duration": 0.5,
      "velocity": 0.68,
      "hand": "right"
    },
    {
      "midi": 38,
      "time": 1.875,
      "duration": 0.063,
      "velocity": 1,
      "hand": "left"
    },
    {
      "midi": 51,
      "time": 1.875,
      "duration": 0.063,
      "velocity": 0.63,
      "hand": "left"
    },
    {
      "midi": 63,
      "time": 1.875,
      "duration": 0.11,
      "velocity": 0.5,
      "hand": "right"
    },
    {
      "midi": 38,
      "time": 2,
      "duration": 0.063,
      "velocity": 0.86,
      "hand": "left"
    },
    {
      "midi": 53,
      "time": 2,
      "duration": 0.125,
      "velocity": 0.4,
      "hand": "left"
    },
    {
      "midi": 63,
      "time": 2,
      "duration": 0.125,
      "velocity": 0.42,
      "hand": "right"
    },
    {
      "midi": 71,
      "time": 2,
      "duration": 0.5,
      "velocity": 0.8,
      "hand": "right"
    },
    {
      "midi": 51,
      "time": 2.125,
      "duration": 0.063,
      "velocity": 0.63,
      "hand": "left"
    },
    {
      "midi": 51,
      "time": 2.375,
      "duration": 0.063,
      "velocity": 0.63,
      "hand": "left"
    },
    {
      "midi": 38,
      "time": 2.5,
      "duration": 0.063,
      "velocity": 1,
      "hand": "left"
    },
    {
      "midi": 63,
      "time": 2.5,
      "duration": 0.375,
      "velocity": 0.61,
      "hand": "right"
    },
    {
      "midi": 67,
      "time": 2.5,
      "duration": 0.375,
      "velocity": 0.74,
      "hand": "right"
    },
    {
      "midi": 74,
      "time": 2.5,
      "duration": 0.5,
      "velocity": 0.68,
      "hand": "right"
    },
    {
      "midi": 51,
      "time": 2.875,
      "duration": 0.063,
      "velocity": 0.63,
      "hand": "left"
    },
    {
      "midi": 36,
      "time": 3,
      "duration": 1,
      "velocity": 0.98,
      "hand": "left"
    },
    {
      "midi": 47,
      "time": 3,
      "duration": 0.063,
      "velocity": 0.93,
      "hand": "left"
    },
    {
      "midi": 60,
      "time": 3,
      "duration": 0.36,
      "velocity": 0.68,
      "hand": "right"
    },
    {
      "midi": 64,
      "time": 3,
      "duration": 0.36,
      "velocity": 0.56,
      "hand": "right"
    },
    {
      "midi": 67,
      "time": 3,
      "duration": 0.5,
      "velocity": 0.7,
      "hand": "right"
    },
    {
      "midi": 51,
      "time": 3.375,
      "duration": 0.063,
      "velocity": 0.63,
      "hand": "left"
    },
    {
      "midi": 55,
      "time": 3.375,
      "duration": 0.11,
      "velocity": 0.5,
      "hand": "left"
    },
    {
      "midi": 60,
      "time": 3.375,
      "duration": 0.11,
      "velocity": 0.56,
      "hand": "right"
    },
    {
      "midi": 64,
      "time": 3.375,
      "duration": 0.11,
      "velocity": 0.5,
      "hand": "right"
    },
    {
      "midi": 38,
      "time": 3.5,
      "duration": 0.063,
      "velocity": 0.95,
      "hand": "left"
    },
    {
      "midi": 51,
      "time": 3.5,
      "duration": 0.063,
      "velocity": 0.63,
      "hand": "left"
    },
    {
      "midi": 60,
      "time": 3.5,
      "duration": 0.063,
      "velocity": 0.57,
      "hand": "right"
    },
    {
      "midi": 64,
      "time": 3.5,
      "duration": 0.25,
      "velocity": 0.56,
      "hand": "right"
    },
    {
      "midi": 72,
      "time": 3.75,
      "duration": 0.25,
      "velocity": 0.56,
      "hand": "right"
    },
    {
      "midi": 51,
      "time": 3.875,
      "duration": 0.063,
      "velocity": 0.63,
      "hand": "left"
    },
    {
      "midi": 38,
      "time": 4,
      "duration": 0.063,
      "velocity": 1,
      "hand": "left"
    },
    {
      "midi": 43,
      "time": 4,
      "duration": 0.25,
      "velocity": 1,
      "hand": "left"
    },
    {
      "midi": 60,
      "time": 4,
      "duration": 0.375,
      "velocity": 0.69,
      "hand": "right"
    },
    {
      "midi": 64,
      "time": 4,
      "duration": 0.375,
      "velocity": 0.56,
      "hand": "right"
    },
    {
      "midi": 71,
      "time": 4,
      "duration": 0.25,
      "velocity": 0.5,
      "hand": "right"
    },
    {
      "midi": 36,
      "time": 4.25,
      "duration": 0.25,
      "velocity": 0.8,
      "hand": "left"
    },
    {
      "midi": 69,
      "time": 4.25,
      "duration": 0.25,
      "velocity": 0.42,
      "hand": "right"
    },
    {
      "midi": 51,
      "time": 4.375,
      "duration": 0.063,
      "velocity": 0.63,
      "hand": "left"
    },
    {
      "midi": 43,
      "time": 4.5,
      "duration": 0.875,
      "velocity": 1,
      "hand": "left"
    },
    {
      "midi": 47,
      "time": 4.5,
      "duration": 0.063,
      "velocity": 0.91,
      "hand": "left"
    },
    {
      "midi": 62,
      "time": 4.5,
      "duration": 0.36,
      "velocity": 0.4,
      "hand": "right"
    },
    {
      "midi": 67,
      "time": 4.5,
      "duration": 0.5,
      "velocity": 0.54,
      "hand": "right"
    },
    {
      "midi": 38,
      "time": 4.75,
      "duration": 0.063,
      "velocity": 1,
      "hand": "left"
    },
    {
      "midi": 59,
      "time": 4.75,
      "duration": 0.11,
      "velocity": 0.68,
      "hand": "left"
    },
    {
      "midi": 38,
      "time": 4.875,
      "duration": 0.063,
      "velocity": 0.97,
      "hand": "left"
    },
    {
      "midi": 51,
      "time": 4.875,
      "duration": 0.063,
      "velocity": 0.63,
      "hand": "left"
    },
    {
      "midi": 62,
      "time": 4.875,
      "duration": 0.11,
      "velocity": 0.56,
      "hand": "right"
    },
    {
      "midi": 38,
      "time": 5,
      "duration": 0.063,
      "velocity": 0.8,
      "hand": "left"
    },
    {
      "midi": 51,
      "time": 5,
      "duration": 0.063,
      "velocity": 0.63,
      "hand": "left"
    },
    {
      "midi": 62,
      "time": 5,
      "duration": 0.25,
      "velocity": 0.57,
      "hand": "right"
    },
    {
      "midi": 65,
      "time": 5,
      "duration": 0.485,
      "velocity": 0.54,
      "hand": "right"
    },
    {
      "midi": 55,
      "time": 5.25,
      "duration": 0.235,
      "velocity": 0.69,
      "hand": "left"
    },
    {
      "midi": 51,
      "time": 5.375,
      "duration": 0.063,
      "velocity": 0.63,
      "hand": "left"
    },
    {
      "midi": 38,
      "time": 5.5,
      "duration": 0.25,
      "velocity": 1,
      "hand": "left"
    },
    {
      "midi": 51,
      "time": 5.5,
      "duration": 0.063,
      "velocity": 0.63,
      "hand": "left"
    },
    {
      "midi": 62,
      "time": 5.5,
      "duration": 0.375,
      "velocity": 0.51,
      "hand": "right"
    },
    {
      "midi": 65,
      "time": 5.5,
      "duration": 0.375,
      "velocity": 0.72,
      "hand": "right"
    },
    {
      "midi": 67,
      "time": 5.5,
      "duration": 0.25,
      "velocity": 0.51,
      "hand": "right"
    },
    {
      "midi": 69,
      "time": 5.5,
      "duration": 0.375,
      "velocity": 0.57,
      "hand": "right"
    },
    {
      "midi": 47,
      "time": 5.75,
      "duration": 0.235,
      "velocity": 0.96,
      "hand": "left"
    },
    {
      "midi": 50,
      "time": 5.75,
      "duration": 0.25,
      "velocity": 0.56,
      "hand": "left"
    },
    {
      "midi": 51,
      "time": 5.875,
      "duration": 0.063,
      "velocity": 0.63,
      "hand": "left"
    },
    {
      "midi": 43,
      "time": 6,
      "duration": 1.235,
      "velocity": 0.98,
      "hand": "left"
    },
    {
      "midi": 47,
      "time": 6,
      "duration": 0.063,
      "velocity": 0.89,
      "hand": "left"
    },
    {
      "midi": 65,
      "time": 6,
      "duration": 0.36,
      "velocity": 0.72,
      "hand": "right"
    },
    {
      "midi": 69,
      "time": 6,
      "duration": 0.5,
      "velocity": 0.59,
      "hand": "right"
    },
    {
      "midi": 62,
      "time": 6.25,
      "duration": 0.11,
      "velocity": 0.72,
      "hand": "right"
    },
    {
      "midi": 51,
      "time": 6.375,
      "duration": 0.063,
      "velocity": 0.63,
      "hand": "left"
    },
    {
      "midi": 55,
      "time": 6.375,
      "duration": 0.11,
      "velocity": 0.53,
      "hand": "left"
    },
    {
      "midi": 62,
      "time": 6.375,
      "duration": 0.11,
      "velocity": 0.54,
      "hand": "right"
    },
    {
      "midi": 65,
      "time": 6.375,
      "duration": 0.11,
      "velocity": 0.53,
      "hand": "right"
    },
    {
      "midi": 38,
      "time": 6.5,
      "duration": 0.485,
      "velocity": 1,
      "hand": "left"
    },
    {
      "midi": 51,
      "time": 6.5,
      "duration": 0.063,
      "velocity": 0.63,
      "hand": "left"
    },
    {
      "midi": 62,
      "time": 6.5,
      "duration": 0.063,
      "velocity": 0.57,
      "hand": "right"
    },
    {
      "midi": 65,
      "time": 6.5,
      "duration": 0.25,
      "velocity": 0.56,
      "hand": "right"
    },
    {
      "midi": 55,
      "time": 6.75,
      "duration": 0.235,
      "velocity": 0.58,
      "hand": "left"
    },
    {
      "midi": 72,
      "time": 6.75,
      "duration": 0.25,
      "velocity": 0.55,
      "hand": "right"
    },
    {
      "midi": 51,
      "time": 6.875,
      "duration": 0.063,
      "velocity": 0.63,
      "hand": "left"
    },
    {
      "midi": 38,
      "time": 7,
      "duration": 0.063,
      "velocity": 1,
      "hand": "left"
    },
    {
      "midi": 47,
      "time": 7,
      "duration": 0.25,
      "velocity": 0.97,
      "hand": "left"
    },
    {
      "midi": 62,
      "time": 7,
      "duration": 0.375,
      "velocity": 0.55,
      "hand": "right"
    },
    {
      "midi": 65,
      "time": 7,
      "duration": 0.375,
      "velocity": 0.72,
      "hand": "right"
    },
    {
      "midi": 71,
      "time": 7,
      "duration": 0.25,
      "velocity": 0.52,
      "hand": "right"
    },
    {
      "midi": 43,
      "time": 7.25,
      "duration": 0.25,
      "velocity": 0.96,
      "hand": "left"
    },
    {
      "midi": 50,
      "time": 7.25,
      "duration": 0.25,
      "velocity": 0.46,
      "hand": "left"
    },
    {
      "midi": 69,
      "time": 7.25,
      "duration": 0.25,
      "velocity": 0.52,
      "hand": "right"
    },
    {
      "midi": 51,
      "time": 7.375,
      "duration": 0.063,
      "velocity": 0.63,
      "hand": "left"
    },
    {
      "midi": 59,
      "time": 7.375,
      "duration": 0.125,
      "velocity": 0.42,
      "hand": "left"
    },
    {
      "midi": 36,
      "time": 7.5,
      "duration": 1.25,
      "velocity": 0.95,
      "hand": "left"
    },
    {
      "midi": 47,
      "time": 7.5,
      "duration": 0.063,
      "velocity": 0.97,
      "hand": "left"
    },
    {
      "midi": 60,
      "time": 7.5,
      "duration": 0.235,
      "velocity": 0.52,
      "hand": "right"
    },
    {
      "midi": 62,
      "time": 7.5,
      "duration": 0.063,
      "velocity": 0.22,
      "hand": "right"
    },
    {
      "midi": 64,
      "time": 7.5,
      "duration": 0.36,
      "velocity": 0.58,
      "hand": "right"
    },
    {
      "midi": 67,
      "time": 7.5,
      "duration": 0.875,
      "velocity": 0.57,
      "hand": "right"
    },
    {
      "midi": 38,
      "time": 7.75,
      "duration": 0.063,
      "velocity": 1,
      "hand": "left"
    },
    {
      "midi": 60,
      "time": 7.75,
      "duration": 0.11,
      "velocity": 0.75,
      "hand": "right"
    },
    {
      "midi": 38,
      "time": 7.875,
      "duration": 0.063,
      "velocity": 0.91,
      "hand": "left"
    },
    {
      "midi": 51,
      "time": 7.875,
      "duration": 0.063,
      "velocity": 0.63,
      "hand": "left"
    },
    {
      "midi": 60,
      "time": 7.875,
      "duration": 0.063,
      "velocity": 0.61,
      "hand": "right"
    },
    {
      "midi": 64,
      "time": 7.875,
      "duration": 0.11,
      "velocity": 0.47,
      "hand": "right"
    },
    {
      "midi": 38,
      "time": 8,
      "duration": 0.063,
      "velocity": 0.85,
      "hand": "left"
    },
    {
      "midi": 40,
      "time": 8,
      "duration": 0.75,
      "velocity": 0.28,
      "hand": "left"
    },
    {
      "midi": 60,
      "time": 8,
      "duration": 0.063,
      "velocity": 0.65,
      "hand": "right"
    },
    {
      "midi": 64,
      "time": 8,
      "duration": 0.125,
      "velocity": 0.55,
      "hand": "right"
    },
    {
      "midi": 55,
      "time": 8.25,
      "duration": 0.235,
      "velocity": 0.5,
      "hand": "left"
    },
    {
      "midi": 51,
      "time": 8.375,
      "duration": 0.063,
      "velocity": 0.63,
      "hand": "left"
    },
    {
      "midi": 38,
      "time": 8.5,
      "duration": 0.063,
      "velocity": 1,
      "hand": "left"
    },
    {
      "midi": 43,
      "time": 8.5,
      "duration": 0.235,
      "velocity": 1,
      "hand": "left"
    },
    {
      "midi": 60,
      "time": 8.5,
      "duration": 0.25,
      "velocity": 0.57,
      "hand": "right"
    },
    {
      "midi": 64,
      "time": 8.5,
      "duration": 0.25,
      "velocity": 0.69,
      "hand": "right"
    },
    {
      "midi": 67,
      "time": 8.5,
      "duration": 0.375,
      "velocity": 0.57,
      "hand": "right"
    },
    {
      "midi": 43,
      "time": 8.75,
      "duration": 0.25,
      "velocity": 0.48,
      "hand": "left"
    },
    {
      "midi": 55,
      "time": 8.75,
      "duration": 0.125,
      "velocity": 0.61,
      "hand": "left"
    },
    {
      "midi": 51,
      "time": 8.875,
      "duration": 0.063,
      "velocity": 0.63,
      "hand": "left"
    },
    {
      "midi": 72,
      "time": 8.875,
      "duration": 0.75,
      "velocity": 0.72,
      "hand": "right"
    },
    {
      "midi": 36,
      "time": 9,
      "duration": 1,
      "velocity": 0.97,
      "hand": "left"
    },
    {
      "midi": 47,
      "time": 9,
      "duration": 0.063,
      "velocity": 0.89,
      "hand": "left"
    },
    {
      "midi": 60,
      "time": 9,
      "duration": 0.36,
      "velocity": 0.75,
      "hand": "right"
    },
    {
      "midi": 65,
      "time": 9,
      "duration": 1,
      "velocity": 0.72,
      "hand": "right"
    },
    {
      "midi": 51,
      "time": 9.375,
      "duration": 0.063,
      "velocity": 0.63,
      "hand": "left"
    },
    {
      "midi": 55,
      "time": 9.375,
      "duration": 0.11,
      "velocity": 0.53,
      "hand": "left"
    },
    {
      "midi": 60,
      "time": 9.375,
      "duration": 0.063,
      "velocity": 0.61,
      "hand": "right"
    },
    {
      "midi": 64,
      "time": 9.375,
      "duration": 0.063,
      "velocity": 0.51,
      "hand": "right"
    },
    {
      "midi": 38,
      "time": 9.5,
      "duration": 0.063,
      "velocity": 0.99,
      "hand": "left"
    },
    {
      "midi": 51,
      "time": 9.5,
      "duration": 0.063,
      "velocity": 0.63,
      "hand": "left"
    },
    {
      "midi": 60,
      "time": 9.5,
      "duration": 0.375,
      "velocity": 0.69,
      "hand": "right"
    },
    {
      "midi": 64,
      "time": 9.5,
      "duration": 0.375,
      "velocity": 0.72,
      "hand": "right"
    },
    {
      "midi": 72,
      "time": 9.75,
      "duration": 0.25,
      "velocity": 0.63,
      "hand": "right"
    },
    {
      "midi": 51,
      "time": 9.875,
      "duration": 0.063,
      "velocity": 0.63,
      "hand": "left"
    },
    {
      "midi": 38,
      "time": 10,
      "duration": 0.063,
      "velocity": 1,
      "hand": "left"
    },
    {
      "midi": 43,
      "time": 10,
      "duration": 0.25,
      "velocity": 1,
      "hand": "left"
    },
    {
      "midi": 60,
      "time": 10,
      "duration": 0.375,
      "velocity": 0.74,
      "hand": "right"
    },
    {
      "midi": 64,
      "time": 10,
      "duration": 0.375,
      "velocity": 0.7,
      "hand": "right"
    },
    {
      "midi": 74,
      "time": 10,
      "duration": 0.25,
      "velocity": 0.56,
      "hand": "right"
    },
    {
      "midi": 36,
      "time": 10.25,
      "duration": 0.25,
      "velocity": 0.84,
      "hand": "left"
    },
    {
      "midi": 72,
      "time": 10.25,
      "duration": 0.25,
      "velocity": 0.52,
      "hand": "right"
    },
    {
      "midi": 51,
      "time": 10.375,
      "duration": 0.063,
      "velocity": 0.63,
      "hand": "left"
    },
    {
      "midi": 41,
      "time": 10.5,
      "duration": 1.235,
      "velocity": 0.99,
      "hand": "left"
    },
    {
      "midi": 47,
      "time": 10.5,
      "duration": 0.063,
      "velocity": 0.87,
      "hand": "left"
    },
    {
      "midi": 60,
      "time": 10.5,
      "duration": 0.36,
      "velocity": 0.65,
      "hand": "right"
    },
    {
      "midi": 64,
      "time": 10.5,
      "duration": 0.875,
      "velocity": 0.54,
      "hand": "right"
    },
    {
      "midi": 71,
      "time": 10.5,
      "duration": 0.5,
      "velocity": 0.54,
      "hand": "right"
    },
    {
      "midi": 38,
      "time": 10.75,
      "duration": 0.063,
      "velocity": 1,
      "hand": "left"
    },
    {
      "midi": 38,
      "time": 10.875,
      "duration": 0.063,
      "velocity": 1,
      "hand": "left"
    },
    {
      "midi": 45,
      "time": 10.875,
      "duration": 0.75,
      "velocity": 0.5,
      "hand": "left"
    },
    {
      "midi": 60,
      "time": 10.875,
      "duration": 0.063,
      "velocity": 0.69,
      "hand": "right"
    },
    {
      "midi": 65,
      "time": 10.875,
      "duration": 0.11,
      "velocity": 0.56,
      "hand": "right"
    },
    {
      "midi": 69,
      "time": 10.875,
      "duration": 0.375,
      "velocity": 0.5,
      "hand": "right"
    },
    {
      "midi": 38,
      "time": 11,
      "duration": 0.063,
      "velocity": 0.86,
      "hand": "left"
    },
    {
      "midi": 54,
      "time": 11,
      "duration": 0.063,
      "velocity": 0.55,
      "hand": "left"
    },
    {
      "midi": 60,
      "time": 11,
      "duration": 0.063,
      "velocity": 0.72,
      "hand": "right"
    },
    {
      "midi": 65,
      "time": 11,
      "duration": 0.125,
      "velocity": 0.53,
      "hand": "right"
    },
    {
      "midi": 51,
      "time": 11.125,
      "duration": 0.063,
      "velocity": 0.63,
      "hand": "left"
    },
    {
      "midi": 51,
      "time": 11.375,
      "duration": 0.063,
      "velocity": 0.63,
      "hand": "left"
    },
    {
      "midi": 36,
      "time": 11.5,
      "duration": 0.25,
      "velocity": 0.8,
      "hand": "left"
    },
    {
      "midi": 38,
      "time": 11.5,
      "duration": 0.063,
      "velocity": 1,
      "hand": "left"
    },
    {
      "midi": 60,
      "time": 11.5,
      "duration": 0.25,
      "velocity": 0.54,
      "hand": "right"
    },
    {
      "midi": 65,
      "time": 11.5,
      "duration": 0.375,
      "velocity": 0.72,
      "hand": "right"
    },
    {
      "midi": 69,
      "time": 11.5,
      "duration": 0.5,
      "velocity": 0.57,
      "hand": "right"
    },
    {
      "midi": 41,
      "time": 11.75,
      "duration": 0.25,
      "velocity": 0.8,
      "hand": "left"
    },
    {
      "midi": 48,
      "time": 11.75,
      "duration": 0.25,
      "velocity": 0.51,
      "hand": "left"
    },
    {
      "midi": 43,
      "time": 11.875,
      "duration": 0.11,
      "velocity": 0.45,
      "hand": "left"
    },
    {
      "midi": 51,
      "time": 11.875,
      "duration": 0.063,
      "velocity": 0.63,
      "hand": "left"
    },
    {
      "midi": 67,
      "time": 11.875,
      "duration": 0.5,
      "velocity": 0.49,
      "hand": "right"
    },
    {
      "midi": 43,
      "time": 12,
      "duration": 1,
      "velocity": 1,
      "hand": "left"
    },
    {
      "midi": 47,
      "time": 12,
      "duration": 0.063,
      "velocity": 0.93,
      "hand": "left"
    },
    {
      "midi": 60,
      "time": 12,
      "duration": 0.063,
      "velocity": 0.24,
      "hand": "right"
    },
    {
      "midi": 62,
      "time": 12,
      "duration": 0.36,
      "velocity": 0.63,
      "hand": "right"
    },
    {
      "midi": 59,
      "time": 12.25,
      "duration": 0.11,
      "velocity": 0.73,
      "hand": "left"
    },
    {
      "midi": 47,
      "time": 12.375,
      "duration": 0.875,
      "velocity": 0.17,
      "hand": "left"
    },
    {
      "midi": 51,
      "time": 12.375,
      "duration": 0.063,
      "velocity": 0.63,
      "hand": "left"
    },
    {
      "midi": 62,
      "time": 12.375,
      "duration": 0.063,
      "velocity": 0.61,
      "hand": "right"
    },
    {
      "midi": 64,
      "time": 12.375,
      "duration": 0.063,
      "velocity": 0.57,
      "hand": "right"
    },
    {
      "midi": 69,
      "time": 12.375,
      "duration": 0.11,
      "velocity": 0.58,
      "hand": "right"
    },
    {
      "midi": 38,
      "time": 12.5,
      "duration": 0.063,
      "velocity": 0.95,
      "hand": "left"
    },
    {
      "midi": 51,
      "time": 12.5,
      "duration": 0.063,
      "velocity": 0.63,
      "hand": "left"
    },
    {
      "midi": 62,
      "time": 12.5,
      "duration": 0.125,
      "velocity": 0.54,
      "hand": "right"
    },
    {
      "midi": 64,
      "time": 12.5,
      "duration": 0.125,
      "velocity": 0.56,
      "hand": "right"
    },
    {
      "midi": 69,
      "time": 12.5,
      "duration": 0.125,
      "velocity": 0.46,
      "hand": "right"
    },
    {
      "midi": 71,
      "time": 12.5,
      "duration": 0.25,
      "velocity": 0.4,
      "hand": "right"
    },
    {
      "midi": 53,
      "time": 12.75,
      "duration": 0.25,
      "velocity": 0.63,
      "hand": "left"
    },
    {
      "midi": 69,
      "time": 12.75,
      "duration": 0.235,
      "velocity": 0.5,
      "hand": "right"
    },
    {
      "midi": 51,
      "time": 12.875,
      "duration": 0.063,
      "velocity": 0.63,
      "hand": "left"
    },
    {
      "midi": 38,
      "time": 13,
      "duration": 0.25,
      "velocity": 1,
      "hand": "left"
    },
    {
      "midi": 51,
      "time": 13,
      "duration": 0.063,
      "velocity": 0.63,
      "hand": "left"
    },
    {
      "midi": 62,
      "time": 13,
      "duration": 0.235,
      "velocity": 0.72,
      "hand": "right"
    },
    {
      "midi": 65,
      "time": 13,
      "duration": 0.25,
      "velocity": 0.54,
      "hand": "right"
    },
    {
      "midi": 69,
      "time": 13,
      "duration": 0.25,
      "velocity": 0.69,
      "hand": "right"
    },
    {
      "midi": 43,
      "time": 13.25,
      "duration": 0.125,
      "velocity": 0.8,
      "hand": "left"
    },
    {
      "midi": 50,
      "time": 13.25,
      "duration": 0.25,
      "velocity": 0.51,
      "hand": "left"
    },
    {
      "midi": 62,
      "time": 13.25,
      "duration": 0.235,
      "velocity": 0.54,
      "hand": "right"
    },
    {
      "midi": 51,
      "time": 13.375,
      "duration": 0.063,
      "velocity": 0.63,
      "hand": "left"
    },
    {
      "midi": 36,
      "time": 13.5,
      "duration": 0.75,
      "velocity": 0.57,
      "hand": "left"
    },
    {
      "midi": 47,
      "time": 13.5,
      "duration": 0.063,
      "velocity": 0.91,
      "hand": "left"
    },
    {
      "midi": 60,
      "time": 13.5,
      "duration": 0.36,
      "velocity": 0.57,
      "hand": "right"
    },
    {
      "midi": 62,
      "time": 13.5,
      "duration": 0.75,
      "velocity": 0.36,
      "hand": "right"
    },
    {
      "midi": 64,
      "time": 13.5,
      "duration": 0.36,
      "velocity": 0.34,
      "hand": "right"
    },
    {
      "midi": 38,
      "time": 13.75,
      "duration": 0.063,
      "velocity": 1,
      "hand": "left"
    },
    {
      "midi": 51,
      "time": 13.875,
      "duration": 0.063,
      "velocity": 0.63,
      "hand": "left"
    },
    {
      "midi": 55,
      "time": 13.875,
      "duration": 0.11,
      "velocity": 0.56,
      "hand": "left"
    },
    {
      "midi": 60,
      "time": 13.875,
      "duration": 0.063,
      "velocity": 0.68,
      "hand": "right"
    },
    {
      "midi": 64,
      "time": 13.875,
      "duration": 0.11,
      "velocity": 0.52,
      "hand": "right"
    },
    {
      "midi": 38,
      "time": 14,
      "duration": 0.063,
      "velocity": 1,
      "hand": "left"
    },
    {
      "midi": 51,
      "time": 14,
      "duration": 0.063,
      "velocity": 0.63,
      "hand": "left"
    },
    {
      "midi": 60,
      "time": 14,
      "duration": 0.125,
      "velocity": 0.57,
      "hand": "right"
    },
    {
      "midi": 64,
      "time": 14,
      "duration": 0.125,
      "velocity": 0.54,
      "hand": "right"
    },
    {
      "midi": 43,
      "time": 14.25,
      "duration": 0.063,
      "velocity": 1,
      "hand": "left"
    },
    {
      "midi": 51,
      "time": 14.375,
      "duration": 0.063,
      "velocity": 0.63,
      "hand": "left"
    },
    {
      "midi": 45,
      "time": 14.5,
      "duration": 0.063,
      "velocity": 1,
      "hand": "left"
    },
    {
      "midi": 51,
      "time": 14.5,
      "duration": 0.063,
      "velocity": 0.63,
      "hand": "left"
    },
    {
      "midi": 60,
      "time": 14.5,
      "duration": 0.125,
      "velocity": 0.73,
      "hand": "right"
    },
    {
      "midi": 64,
      "time": 14.5,
      "duration": 0.125,
      "velocity": 0.61,
      "hand": "right"
    },
    {
      "midi": 67,
      "time": 14.5,
      "duration": 0.375,
      "velocity": 0.74,
      "hand": "right"
    },
    {
      "midi": 47,
      "time": 14.75,
      "duration": 0.063,
      "velocity": 0.87,
      "hand": "left"
    },
    {
      "midi": 38,
      "time": 14.875,
      "duration": 0.063,
      "velocity": 0.87,
      "hand": "left"
    },
    {
      "midi": 51,
      "time": 14.875,
      "duration": 0.063,
      "velocity": 0.63,
      "hand": "left"
    },
    {
      "midi": 60,
      "time": 14.875,
      "duration": 0.11,
      "velocity": 0.35,
      "hand": "right"
    },
    {
      "midi": 64,
      "time": 14.875,
      "duration": 0.11,
      "velocity": 0.31,
      "hand": "right"
    },
    {
      "midi": 36,
      "time": 15,
      "duration": 1,
      "velocity": 0.98,
      "hand": "left"
    },
    {
      "midi": 47,
      "time": 15,
      "duration": 0.063,
      "velocity": 0.87,
      "hand": "left"
    },
    {
      "midi": 60,
      "time": 15,
      "duration": 0.36,
      "velocity": 0.68,
      "hand": "right"
    },
    {
      "midi": 64,
      "time": 15,
      "duration": 0.36,
      "velocity": 0.56,
      "hand": "right"
    },
    {
      "midi": 67,
      "time": 15,
      "duration": 0.5,
      "velocity": 0.7,
      "hand": "right"
    },
    {
      "midi": 76,
      "time": 15,
      "duration": 0.5,
      "velocity": 0.74,
      "hand": "right"
    },
    {
      "midi": 38,
      "time": 15.25,
      "duration": 0.063,
      "velocity": 1,
      "hand": "left"
    },
    {
      "midi": 38,
      "time": 15.375,
      "duration": 0.063,
      "velocity": 1,
      "hand": "left"
    },
    {
      "midi": 51,
      "time": 15.375,
      "duration": 0.063,
      "velocity": 0.63,
      "hand": "left"
    },
    {
      "midi": 60,
      "time": 15.375,
      "duration": 0.11,
      "velocity": 0.56,
      "hand": "right"
    },
    {
      "midi": 64,
      "time": 15.375,
      "duration": 0.11,
      "velocity": 0.5,
      "hand": "right"
    },
    {
      "midi": 38,
      "time": 15.5,
      "duration": 0.063,
      "velocity": 0.86,
      "hand": "left"
    },
    {
      "midi": 54,
      "time": 15.5,
      "duration": 0.063,
      "velocity": 0.55,
      "hand": "left"
    },
    {
      "midi": 60,
      "time": 15.5,
      "duration": 0.063,
      "velocity": 0.57,
      "hand": "right"
    },
    {
      "midi": 64,
      "time": 15.5,
      "duration": 0.25,
      "velocity": 0.56,
      "hand": "right"
    },
    {
      "midi": 79,
      "time": 15.5,
      "duration": 0.5,
      "velocity": 0.76,
      "hand": "right"
    },
    {
      "midi": 51,
      "time": 15.625,
      "duration": 0.063,
      "velocity": 0.63,
      "hand": "left"
    },
    {
      "midi": 72,
      "time": 15.75,
      "duration": 0.25,
      "velocity": 0.56,
      "hand": "right"
    },
    {
      "midi": 51,
      "time": 15.875,
      "duration": 0.063,
      "velocity": 0.63,
      "hand": "left"
    },
    {
      "midi": 38,
      "time": 16,
      "duration": 0.063,
      "velocity": 1,
      "hand": "left"
    },
    {
      "midi": 43,
      "time": 16,
      "duration": 0.25,
      "velocity": 1,
      "hand": "left"
    },
    {
      "midi": 60,
      "time": 16,
      "duration": 0.375,
      "velocity": 0.69,
      "hand": "right"
    },
    {
      "midi": 64,
      "time": 16,
      "duration": 0.375,
      "velocity": 0.56,
      "hand": "right"
    },
    {
      "midi": 71,
      "time": 16,
      "duration": 0.25,
      "velocity": 0.5,
      "hand": "right"
    },
    {
      "midi": 81,
      "time": 16,
      "duration": 0.375,
      "velocity": 0.72,
      "hand": "right"
    },
    {
      "midi": 36,
      "time": 16.25,
      "duration": 0.25,
      "velocity": 0.8,
      "hand": "left"
    },
    {
      "midi": 69,
      "time": 16.25,
      "duration": 0.25,
      "velocity": 0.42,
      "hand": "right"
    },
    {
      "midi": 51,
      "time": 16.375,
      "duration": 0.063,
      "velocity": 0.63,
      "hand": "left"
    },
    {
      "midi": 43,
      "time": 16.5,
      "duration": 0.875,
      "velocity": 1,
      "hand": "left"
    },
    {
      "midi": 47,
      "time": 16.5,
      "duration": 0.063,
      "velocity": 0.93,
      "hand": "left"
    },
    {
      "midi": 62,
      "time": 16.5,
      "duration": 0.36,
      "velocity": 0.29,
      "hand": "right"
    },
    {
      "midi": 67,
      "time": 16.5,
      "duration": 0.5,
      "velocity": 0.54,
      "hand": "right"
    },
    {
      "midi": 83,
      "time": 16.5,
      "duration": 1.5,
      "velocity": 0.61,
      "hand": "right"
    },
    {
      "midi": 59,
      "time": 16.75,
      "duration": 0.11,
      "velocity": 0.68,
      "hand": "left"
    },
    {
      "midi": 51,
      "time": 16.875,
      "duration": 0.063,
      "velocity": 0.63,
      "hand": "left"
    },
    {
      "midi": 55,
      "time": 16.875,
      "duration": 0.063,
      "velocity": 0.44,
      "hand": "left"
    },
    {
      "midi": 62,
      "time": 16.875,
      "duration": 0.11,
      "velocity": 0.56,
      "hand": "right"
    },
    {
      "midi": 38,
      "time": 17,
      "duration": 0.063,
      "velocity": 0.95,
      "hand": "left"
    },
    {
      "midi": 51,
      "time": 17,
      "duration": 0.063,
      "velocity": 0.63,
      "hand": "left"
    },
    {
      "midi": 62,
      "time": 17,
      "duration": 0.25,
      "velocity": 0.57,
      "hand": "right"
    },
    {
      "midi": 65,
      "time": 17,
      "duration": 0.485,
      "velocity": 0.54,
      "hand": "right"
    },
    {
      "midi": 55,
      "time": 17.25,
      "duration": 0.235,
      "velocity": 0.69,
      "hand": "left"
    },
    {
      "midi": 51,
      "time": 17.375,
      "duration": 0.063,
      "velocity": 0.63,
      "hand": "left"
    },
    {
      "midi": 38,
      "time": 17.5,
      "duration": 0.25,
      "velocity": 1,
      "hand": "left"
    },
    {
      "midi": 51,
      "time": 17.5,
      "duration": 0.063,
      "velocity": 0.63,
      "hand": "left"
    },
    {
      "midi": 62,
      "time": 17.5,
      "duration": 0.375,
      "velocity": 0.51,
      "hand": "right"
    },
    {
      "midi": 65,
      "time": 17.5,
      "duration": 0.375,
      "velocity": 0.72,
      "hand": "right"
    },
    {
      "midi": 67,
      "time": 17.5,
      "duration": 0.25,
      "velocity": 0.51,
      "hand": "right"
    },
    {
      "midi": 69,
      "time": 17.5,
      "duration": 0.375,
      "velocity": 0.57,
      "hand": "right"
    },
    {
      "midi": 47,
      "time": 17.75,
      "duration": 0.235,
      "velocity": 0.96,
      "hand": "left"
    },
    {
      "midi": 50,
      "time": 17.75,
      "duration": 0.25,
      "velocity": 0.56,
      "hand": "left"
    },
    {
      "midi": 51,
      "time": 17.875,
      "duration": 0.063,
      "velocity": 0.63,
      "hand": "left"
    },
    {
      "midi": 43,
      "time": 18,
      "duration": 1.235,
      "velocity": 0.98,
      "hand": "left"
    },
    {
      "midi": 47,
      "time": 18,
      "duration": 0.063,
      "velocity": 0.91,
      "hand": "left"
    },
    {
      "midi": 65,
      "time": 18,
      "duration": 0.36,
      "velocity": 0.72,
      "hand": "right"
    },
    {
      "midi": 69,
      "time": 18,
      "duration": 0.5,
      "velocity": 0.59,
      "hand": "right"
    },
    {
      "midi": 79,
      "time": 18,
      "duration": 0.5,
      "velocity": 0.76,
      "hand": "right"
    },
    {
      "midi": 38,
      "time": 18.25,
      "duration": 0.063,
      "velocity": 1,
      "hand": "left"
    },
    {
      "midi": 62,
      "time": 18.25,
      "duration": 0.11,
      "velocity": 0.72,
      "hand": "right"
    },
    {
      "midi": 38,
      "time": 18.375,
      "duration": 0.063,
      "velocity": 0.97,
      "hand": "left"
    },
    {
      "midi": 51,
      "time": 18.375,
      "duration": 0.063,
      "velocity": 0.63,
      "hand": "left"
    },
    {
      "midi": 62,
      "time": 18.375,
      "duration": 0.11,
      "velocity": 0.54,
      "hand": "right"
    },
    {
      "midi": 65,
      "time": 18.375,
      "duration": 0.11,
      "velocity": 0.53,
      "hand": "right"
    },
    {
      "midi": 38,
      "time": 18.5,
      "duration": 0.485,
      "velocity": 0.87,
      "hand": "left"
    },
    {
      "midi": 51,
      "time": 18.5,
      "duration": 0.063,
      "velocity": 0.63,
      "hand": "left"
    },
    {
      "midi": 62,
      "time": 18.5,
      "duration": 0.063,
      "velocity": 0.57,
      "hand": "right"
    },
    {
      "midi": 65,
      "time": 18.5,
      "duration": 0.25,
      "velocity": 0.56,
      "hand": "right"
    },
    {
      "midi": 83,
      "time": 18.5,
      "duration": 0.5,
      "velocity": 0.76,
      "hand": "right"
    },
    {
      "midi": 55,
      "time": 18.75,
      "duration": 0.235,
      "velocity": 0.58,
      "hand": "left"
    },
    {
      "midi": 72,
      "time": 18.75,
      "duration": 0.25,
      "velocity": 0.55,
      "hand": "right"
    },
    {
      "midi": 51,
      "time": 18.875,
      "duration": 0.063,
      "velocity": 0.63,
      "hand": "left"
    },
    {
      "midi": 38,
      "time": 19,
      "duration": 0.063,
      "velocity": 1,
      "hand": "left"
    },
    {
      "midi": 47,
      "time": 19,
      "duration": 0.25,
      "velocity": 0.97,
      "hand": "left"
    },
    {
      "midi": 62,
      "time": 19,
      "duration": 0.375,
      "velocity": 0.55,
      "hand": "right"
    },
    {
      "midi": 65,
      "time": 19,
      "duration": 0.375,
      "velocity": 0.72,
      "hand": "right"
    },
    {
      "midi": 71,
      "time": 19,
      "duration": 0.25,
      "velocity": 0.52,
      "hand": "right"
    },
    {
      "midi": 74,
      "time": 19,
      "duration": 0.5,
      "velocity": 0.72,
      "hand": "right"
    },
    {
      "midi": 43,
      "time": 19.25,
      "duration": 0.25,
      "velocity": 0.96,
      "hand": "left"
    },
    {
      "midi": 50,
      "time": 19.25,
      "duration": 0.25,
      "velocity": 0.46,
      "hand": "left"
    },
    {
      "midi": 69,
      "time": 19.25,
      "duration": 0.25,
      "velocity": 0.52,
      "hand": "right"
    },
    {
      "midi": 51,
      "time": 19.375,
      "duration": 0.063,
      "velocity": 0.63,
      "hand": "left"
    },
    {
      "midi": 59,
      "time": 19.375,
      "duration": 0.125,
      "velocity": 0.42,
      "hand": "left"
    },
    {
      "midi": 36,
      "time": 19.5,
      "duration": 1.25,
      "velocity": 0.95,
      "hand": "left"
    },
    {
      "midi": 47,
      "time": 19.5,
      "duration": 0.063,
      "velocity": 0.89,
      "hand": "left"
    },
    {
      "midi": 62,
      "time": 19.5,
      "duration": 0.063,
      "velocity": 0.22,
      "hand": "right"
    },
    {
      "midi": 64,
      "time": 19.5,
      "duration": 0.36,
      "velocity": 0.58,
      "hand": "right"
    },
    {
      "midi": 67,
      "time": 19.5,
      "duration": 0.875,
      "velocity": 0.57,
      "hand": "right"
    },
    {
      "midi": 76,
      "time": 19.5,
      "duration": 1.375,
      "velocity": 0.72,
      "hand": "right"
    },
    {
      "midi": 60,
      "time": 19.75,
      "duration": 0.11,
      "velocity": 0.75,
      "hand": "right"
    },
    {
      "midi": 51,
      "time": 19.875,
      "duration": 0.063,
      "velocity": 0.63,
      "hand": "left"
    },
    {
      "midi": 55,
      "time": 19.875,
      "duration": 0.11,
      "velocity": 0.55,
      "hand": "left"
    },
    {
      "midi": 60,
      "time": 19.875,
      "duration": 0.063,
      "velocity": 0.61,
      "hand": "right"
    },
    {
      "midi": 64,
      "time": 19.875,
      "duration": 0.11,
      "velocity": 0.47,
      "hand": "right"
    },
    {
      "midi": 38,
      "time": 20,
      "duration": 0.063,
      "velocity": 1,
      "hand": "left"
    },
    {
      "midi": 40,
      "time": 20,
      "duration": 0.75,
      "velocity": 0.28,
      "hand": "left"
    },
    {
      "midi": 60,
      "time": 20,
      "duration": 0.063,
      "velocity": 0.65,
      "hand": "right"
    },
    {
      "midi": 64,
      "time": 20,
      "duration": 0.125,
      "velocity": 0.55,
      "hand": "right"
    },
    {
      "midi": 55,
      "time": 20.25,
      "duration": 0.235,
      "velocity": 0.5,
      "hand": "left"
    },
    {
      "midi": 51,
      "time": 20.375,
      "duration": 0.063,
      "velocity": 0.63,
      "hand": "left"
    },
    {
      "midi": 38,
      "time": 20.5,
      "duration": 0.063,
      "velocity": 1,
      "hand": "left"
    },
    {
      "midi": 43,
      "time": 20.5,
      "duration": 0.235,
      "velocity": 1,
      "hand": "left"
    },
    {
      "midi": 60,
      "time": 20.5,
      "duration": 0.25,
      "velocity": 0.57,
      "hand": "right"
    },
    {
      "midi": 64,
      "time": 20.5,
      "duration": 0.25,
      "velocity": 0.69,
      "hand": "right"
    },
    {
      "midi": 67,
      "time": 20.5,
      "duration": 0.375,
      "velocity": 0.57,
      "hand": "right"
    },
    {
      "midi": 43,
      "time": 20.75,
      "duration": 0.25,
      "velocity": 0.48,
      "hand": "left"
    },
    {
      "midi": 55,
      "time": 20.75,
      "duration": 0.125,
      "velocity": 0.61,
      "hand": "left"
    },
    {
      "midi": 51,
      "time": 20.875,
      "duration": 0.063,
      "velocity": 0.63,
      "hand": "left"
    },
    {
      "midi": 72,
      "time": 20.875,
      "duration": 0.75,
      "velocity": 0.72,
      "hand": "right"
    },
    {
      "midi": 36,
      "time": 21,
      "duration": 1,
      "velocity": 0.97,
      "hand": "left"
    },
    {
      "midi": 47,
      "time": 21,
      "duration": 0.063,
      "velocity": 0.97,
      "hand": "left"
    },
    {
      "midi": 60,
      "time": 21,
      "duration": 0.36,
      "velocity": 0.75,
      "hand": "right"
    },
    {
      "midi": 65,
      "time": 21,
      "duration": 0.875,
      "velocity": 0.72,
      "hand": "right"
    },
    {
      "midi": 77,
      "time": 21,
      "duration": 0.5,
      "velocity": 0.73,
      "hand": "right"
    },
    {
      "midi": 38,
      "time": 21.25,
      "duration": 0.063,
      "velocity": 1,
      "hand": "left"
    },
    {
      "midi": 38,
      "time": 21.375,
      "duration": 0.063,
      "velocity": 0.91,
      "hand": "left"
    },
    {
      "midi": 51,
      "time": 21.375,
      "duration": 0.063,
      "velocity": 0.63,
      "hand": "left"
    },
    {
      "midi": 60,
      "time": 21.375,
      "duration": 0.063,
      "velocity": 0.61,
      "hand": "right"
    },
    {
      "midi": 64,
      "time": 21.375,
      "duration": 0.063,
      "velocity": 0.51,
      "hand": "right"
    },
    {
      "midi": 38,
      "time": 21.5,
      "duration": 0.063,
      "velocity": 0.85,
      "hand": "left"
    },
    {
      "midi": 51,
      "time": 21.5,
      "duration": 0.063,
      "velocity": 0.63,
      "hand": "left"
    },
    {
      "midi": 60,
      "time": 21.5,
      "duration": 0.375,
      "velocity": 0.69,
      "hand": "right"
    },
    {
      "midi": 64,
      "time": 21.5,
      "duration": 0.375,
      "velocity": 0.72,
      "hand": "right"
    },
    {
      "midi": 76,
      "time": 21.5,
      "duration": 0.5,
      "velocity": 0.63,
      "hand": "right"
    },
    {
      "midi": 72,
      "time": 21.75,
      "duration": 0.25,
      "velocity": 0.63,
      "hand": "right"
    },
    {
      "midi": 51,
      "time": 21.875,
      "duration": 0.063,
      "velocity": 0.63,
      "hand": "left"
    },
    {
      "midi": 38,
      "time": 22,
      "duration": 0.063,
      "velocity": 1,
      "hand": "left"
    },
    {
      "midi": 43,
      "time": 22,
      "duration": 0.25,
      "velocity": 1,
      "hand": "left"
    },
    {
      "midi": 60,
      "time": 22,
      "duration": 0.375,
      "velocity": 0.74,
      "hand": "right"
    },
    {
      "midi": 64,
      "time": 22,
      "duration": 0.485,
      "velocity": 0.7,
      "hand": "right"
    },
    {
      "midi": 74,
      "time": 22,
      "duration": 0.5,
      "velocity": 0.72,
      "hand": "right"
    },
    {
      "midi": 36,
      "time": 22.25,
      "duration": 0.25,
      "velocity": 0.84,
      "hand": "left"
    },
    {
      "midi": 72,
      "time": 22.25,
      "duration": 0.25,
      "velocity": 0.52,
      "hand": "right"
    },
    {
      "midi": 51,
      "time": 22.375,
      "duration": 0.063,
      "velocity": 0.63,
      "hand": "left"
    },
    {
      "midi": 41,
      "time": 22.5,
      "duration": 1.235,
      "velocity": 0.99,
      "hand": "left"
    },
    {
      "midi": 47,
      "time": 22.5,
      "duration": 0.063,
      "velocity": 0.89,
      "hand": "left"
    },
    {
      "midi": 60,
      "time": 22.5,
      "duration": 0.36,
      "velocity": 0.65,
      "hand": "right"
    },
    {
      "midi": 64,
      "time": 22.5,
      "duration": 0.875,
      "velocity": 0.54,
      "hand": "right"
    },
    {
      "midi": 71,
      "time": 22.5,
      "duration": 0.5,
      "velocity": 0.54,
      "hand": "right"
    },
    {
      "midi": 84,
      "time": 22.5,
      "duration": 1,
      "velocity": 0.7,
      "hand": "right"
    },
    {
      "midi": 45,
      "time": 22.875,
      "duration": 0.75,
      "velocity": 0.5,
      "hand": "left"
    },
    {
      "midi": 51,
      "time": 22.875,
      "duration": 0.063,
      "velocity": 0.63,
      "hand": "left"
    },
    {
      "midi": 60,
      "time": 22.875,
      "duration": 0.063,
      "velocity": 0.69,
      "hand": "right"
    },
    {
      "midi": 65,
      "time": 22.875,
      "duration": 0.11,
      "velocity": 0.56,
      "hand": "right"
    },
    {
      "midi": 69,
      "time": 22.875,
      "duration": 0.375,
      "velocity": 0.5,
      "hand": "right"
    },
    {
      "midi": 38,
      "time": 23,
      "duration": 0.063,
      "velocity": 0.99,
      "hand": "left"
    },
    {
      "midi": 51,
      "time": 23,
      "duration": 0.063,
      "velocity": 0.63,
      "hand": "left"
    },
    {
      "midi": 60,
      "time": 23,
      "duration": 0.063,
      "velocity": 0.72,
      "hand": "right"
    },
    {
      "midi": 65,
      "time": 23,
      "duration": 0.125,
      "velocity": 0.53,
      "hand": "right"
    },
    {
      "midi": 51,
      "time": 23.375,
      "duration": 0.063,
      "velocity": 0.63,
      "hand": "left"
    },
    {
      "midi": 36,
      "time": 23.5,
      "duration": 0.25,
      "velocity": 0.8,
      "hand": "left"
    },
    {
      "midi": 38,
      "time": 23.5,
      "duration": 0.063,
      "velocity": 1,
      "hand": "left"
    },
    {
      "midi": 65,
      "time": 23.5,
      "duration": 0.375,
      "velocity": 0.72,
      "hand": "right"
    },
    {
      "midi": 69,
      "time": 23.5,
      "duration": 0.5,
      "velocity": 0.57,
      "hand": "right"
    },
    {
      "midi": 81,
      "time": 23.5,
      "duration": 0.5,
      "velocity": 0.74,
      "hand": "right"
    },
    {
      "midi": 41,
      "time": 23.75,
      "duration": 0.25,
      "velocity": 0.8,
      "hand": "left"
    },
    {
      "midi": 48,
      "time": 23.75,
      "duration": 0.25,
      "velocity": 0.51,
      "hand": "left"
    },
    {
      "midi": 43,
      "time": 23.875,
      "duration": 0.11,
      "velocity": 0.45,
      "hand": "left"
    },
    {
      "midi": 51,
      "time": 23.875,
      "duration": 0.063,
      "velocity": 0.63,
      "hand": "left"
    },
    {
      "midi": 62,
      "time": 23.875,
      "duration": 0.11,
      "velocity": 0.23,
      "hand": "right"
    },
    {
      "midi": 67,
      "time": 23.875,
      "duration": 0.5,
      "velocity": 0.49,
      "hand": "right"
    },
    {
      "midi": 43,
      "time": 24,
      "duration": 1,
      "velocity": 1,
      "hand": "left"
    },
    {
      "midi": 47,
      "time": 24,
      "duration": 0.063,
      "velocity": 0.87,
      "hand": "left"
    },
    {
      "midi": 60,
      "time": 24,
      "duration": 0.063,
      "velocity": 0.24,
      "hand": "right"
    },
    {
      "midi": 62,
      "time": 24,
      "duration": 0.36,
      "velocity": 0.63,
      "hand": "right"
    },
    {
      "midi": 83,
      "time": 24,
      "duration": 0.5,
      "velocity": 0.74,
      "hand": "right"
    },
    {
      "midi": 38,
      "time": 24.25,
      "duration": 0.063,
      "velocity": 1,
      "hand": "left"
    },
    {
      "midi": 59,
      "time": 24.25,
      "duration": 0.11,
      "velocity": 0.73,
      "hand": "left"
    },
    {
      "midi": 38,
      "time": 24.375,
      "duration": 0.063,
      "velocity": 1,
      "hand": "left"
    },
    {
      "midi": 47,
      "time": 24.375,
      "duration": 0.875,
      "velocity": 0.17,
      "hand": "left"
    },
    {
      "midi": 62,
      "time": 24.375,
      "duration": 0.063,
      "velocity": 0.61,
      "hand": "right"
    },
    {
      "midi": 64,
      "time": 24.375,
      "duration": 0.063,
      "velocity": 0.57,
      "hand": "right"
    },
    {
      "midi": 69,
      "time": 24.375,
      "duration": 0.11,
      "velocity": 0.58,
      "hand": "right"
    },
    {
      "midi": 84,
      "time": 24.375,
      "duration": 0.5,
      "velocity": 0.61,
      "hand": "right"
    },
    {
      "midi": 38,
      "time": 24.5,
      "duration": 0.063,
      "velocity": 0.86,
      "hand": "left"
    },
    {
      "midi": 54,
      "time": 24.5,
      "duration": 0.063,
      "velocity": 0.55,
      "hand": "left"
    },
    {
      "midi": 62,
      "time": 24.5,
      "duration": 0.125,
      "velocity": 0.54,
      "hand": "right"
    },
    {
      "midi": 64,
      "time": 24.5,
      "duration": 0.125,
      "velocity": 0.56,
      "hand": "right"
    },
    {
      "midi": 69,
      "time": 24.5,
      "duration": 0.125,
      "velocity": 0.46,
      "hand": "right"
    },
    {
      "midi": 71,
      "time": 24.5,
      "duration": 0.25,
      "velocity": 0.4,
      "hand": "right"
    },
    {
      "midi": 51,
      "time": 24.625,
      "duration": 0.063,
      "velocity": 0.63,
      "hand": "left"
    },
    {
      "midi": 53,
      "time": 24.75,
      "duration": 0.25,
      "velocity": 0.63,
      "hand": "left"
    },
    {
      "midi": 69,
      "time": 24.75,
      "duration": 0.235,
      "velocity": 0.5,
      "hand": "right"
    },
    {
      "midi": 51,
      "time": 24.875,
      "duration": 0.063,
      "velocity": 0.63,
      "hand": "left"
    },
    {
      "midi": 38,
      "time": 25,
      "duration": 0.25,
      "velocity": 1,
      "hand": "left"
    },
    {
      "midi": 51,
      "time": 25,
      "duration": 0.063,
      "velocity": 0.63,
      "hand": "left"
    },
    {
      "midi": 65,
      "time": 25,
      "duration": 0.25,
      "velocity": 0.54,
      "hand": "right"
    },
    {
      "midi": 69,
      "time": 25,
      "duration": 0.25,
      "velocity": 0.69,
      "hand": "right"
    },
    {
      "midi": 74,
      "time": 25,
      "duration": 0.5,
      "velocity": 0.57,
      "hand": "right"
    },
    {
      "midi": 43,
      "time": 25.25,
      "duration": 0.125,
      "velocity": 0.8,
      "hand": "left"
    },
    {
      "midi": 50,
      "time": 25.25,
      "duration": 0.25,
      "velocity": 0.51,
      "hand": "left"
    },
    {
      "midi": 62,
      "time": 25.25,
      "duration": 0.235,
      "velocity": 0.54,
      "hand": "right"
    },
    {
      "midi": 51,
      "time": 25.375,
      "duration": 0.063,
      "velocity": 0.63,
      "hand": "left"
    },
    {
      "midi": 36,
      "time": 25.5,
      "duration": 0.75,
      "velocity": 0.57,
      "hand": "left"
    },
    {
      "midi": 47,
      "time": 25.5,
      "duration": 0.063,
      "velocity": 0.93,
      "hand": "left"
    },
    {
      "midi": 60,
      "time": 25.5,
      "duration": 0.36,
      "velocity": 0.57,
      "hand": "right"
    },
    {
      "midi": 62,
      "time": 25.5,
      "duration": 0.75,
      "velocity": 0.36,
      "hand": "right"
    },
    {
      "midi": 64,
      "time": 25.5,
      "duration": 0.36,
      "velocity": 0.35,
      "hand": "right"
    },
    {
      "midi": 84,
      "time": 25.5,
      "duration": 1.25,
      "velocity": 0.56,
      "hand": "right"
    },
    {
      "midi": 38,
      "time": 25.875,
      "duration": 0.063,
      "velocity": 0.95,
      "hand": "left"
    },
    {
      "midi": 51,
      "time": 25.875,
      "duration": 0.063,
      "velocity": 0.63,
      "hand": "left"
    },
    {
      "midi": 60,
      "time": 25.875,
      "duration": 0.063,
      "velocity": 0.68,
      "hand": "right"
    },
    {
      "midi": 64,
      "time": 25.875,
      "duration": 0.11,
      "velocity": 0.52,
      "hand": "right"
    },
    {
      "midi": 38,
      "time": 26,
      "duration": 0.063,
      "velocity": 0.95,
      "hand": "left"
    },
    {
      "midi": 51,
      "time": 26,
      "duration": 0.063,
      "velocity": 0.63,
      "hand": "left"
    },
    {
      "midi": 60,
      "time": 26,
      "duration": 0.125,
      "velocity": 0.57,
      "hand": "right"
    },
    {
      "midi": 64,
      "time": 26,
      "duration": 0.125,
      "velocity": 0.54,
      "hand": "right"
    },
    {
      "midi": 50,
      "time": 26.125,
      "duration": 0.063,
      "velocity": 0.55,
      "hand": "left"
    },
    {
      "midi": 51,
      "time": 26.375,
      "duration": 0.063,
      "velocity": 0.63,
      "hand": "left"
    },
    {
      "midi": 47,
      "time": 26.5,
      "duration": 0.063,
      "velocity": 0.64,
      "hand": "left"
    },
    {
      "midi": 51,
      "time": 26.5,
      "duration": 0.063,
      "velocity": 0.63,
      "hand": "left"
    },
    {
      "midi": 60,
      "time": 26.5,
      "duration": 0.125,
      "velocity": 0.73,
      "hand": "right"
    },
    {
      "midi": 64,
      "time": 26.5,
      "duration": 0.125,
      "velocity": 0.61,
      "hand": "right"
    },
    {
      "midi": 67,
      "time": 26.5,
      "duration": 0.485,
      "velocity": 0.79,
      "hand": "right"
    },
    {
      "midi": 43,
      "time": 26.75,
      "duration": 0.063,
      "velocity": 0.72,
      "hand": "left"
    },
    {
      "midi": 51,
      "time": 26.875,
      "duration": 0.063,
      "velocity": 0.63,
      "hand": "left"
    },
    {
      "midi": 55,
      "time": 26.875,
      "duration": 0.11,
      "velocity": 0.43,
      "hand": "left"
    },
    {
      "midi": 36,
      "time": 27,
      "duration": 1,
      "velocity": 0.98,
      "hand": "left"
    },
    {
      "midi": 47,
      "time": 27,
      "duration": 0.063,
      "velocity": 0.93,
      "hand": "left"
    },
    {
      "midi": 60,
      "time": 27,
      "duration": 0.36,
      "velocity": 0.68,
      "hand": "right"
    },
    {
      "midi": 64,
      "time": 27,
      "duration": 0.36,
      "velocity": 0.56,
      "hand": "right"
    },
    {
      "midi": 67,
      "time": 27,
      "duration": 0.5,
      "velocity": 0.7,
      "hand": "right"
    },
    {
      "midi": 51,
      "time": 27.375,
      "duration": 0.063,
      "velocity": 0.63,
      "hand": "left"
    },
    {
      "midi": 55,
      "time": 27.375,
      "duration": 0.11,
      "velocity": 0.5,
      "hand": "left"
    },
    {
      "midi": 60,
      "time": 27.375,
      "duration": 0.11,
      "velocity": 0.56,
      "hand": "right"
    },
    {
      "midi": 64,
      "time": 27.375,
      "duration": 0.11,
      "velocity": 0.5,
      "hand": "right"
    },
    {
      "midi": 38,
      "time": 27.5,
      "duration": 0.063,
      "velocity": 0.95,
      "hand": "left"
    },
    {
      "midi": 51,
      "time": 27.5,
      "duration": 0.063,
      "velocity": 0.63,
      "hand": "left"
    },
    {
      "midi": 60,
      "time": 27.5,
      "duration": 0.063,
      "velocity": 0.57,
      "hand": "right"
    },
    {
      "midi": 64,
      "time": 27.5,
      "duration": 0.25,
      "velocity": 0.56,
      "hand": "right"
    },
    {
      "midi": 72,
      "time": 27.75,
      "duration": 0.25,
      "velocity": 0.56,
      "hand": "right"
    },
    {
      "midi": 51,
      "time": 27.875,
      "duration": 0.063,
      "velocity": 0.63,
      "hand": "left"
    },
    {
      "midi": 38,
      "time": 28,
      "duration": 0.063,
      "velocity": 1,
      "hand": "left"
    },
    {
      "midi": 43,
      "time": 28,
      "duration": 0.25,
      "velocity": 1,
      "hand": "left"
    },
    {
      "midi": 60,
      "time": 28,
      "duration": 0.375,
      "velocity": 0.69,
      "hand": "right"
    },
    {
      "midi": 64,
      "time": 28,
      "duration": 0.375,
      "velocity": 0.56,
      "hand": "right"
    },
    {
      "midi": 71,
      "time": 28,
      "duration": 0.25,
      "velocity": 0.5,
      "hand": "right"
    },
    {
      "midi": 36,
      "time": 28.25,
      "duration": 0.25,
      "velocity": 0.8,
      "hand": "left"
    },
    {
      "midi": 69,
      "time": 28.25,
      "duration": 0.25,
      "velocity": 0.42,
      "hand": "right"
    },
    {
      "midi": 51,
      "time": 28.375,
      "duration": 0.063,
      "velocity": 0.63,
      "hand": "left"
    },
    {
      "midi": 62,
      "time": 28.375,
      "duration": 0.11,
      "velocity": 0.42,
      "hand": "right"
    },
    {
      "midi": 43,
      "time": 28.5,
      "duration": 0.875,
      "velocity": 1,
      "hand": "left"
    },
    {
      "midi": 47,
      "time": 28.5,
      "duration": 0.063,
      "velocity": 0.91,
      "hand": "left"
    },
    {
      "midi": 62,
      "time": 28.5,
      "duration": 0.36,
      "velocity": 0.53,
      "hand": "right"
    },
    {
      "midi": 67,
      "time": 28.5,
      "duration": 0.5,
      "velocity": 0.54,
      "hand": "right"
    },
    {
      "midi": 38,
      "time": 28.75,
      "duration": 0.063,
      "velocity": 1,
      "hand": "left"
    },
    {
      "midi": 59,
      "time": 28.75,
      "duration": 0.11,
      "velocity": 0.68,
      "hand": "left"
    },
    {
      "midi": 38,
      "time": 28.875,
      "duration": 0.063,
      "velocity": 0.97,
      "hand": "left"
    },
    {
      "midi": 51,
      "time": 28.875,
      "duration": 0.063,
      "velocity": 0.63,
      "hand": "left"
    },
    {
      "midi": 62,
      "time": 28.875,
      "duration": 0.11,
      "velocity": 0.56,
      "hand": "right"
    },
    {
      "midi": 38,
      "time": 29,
      "duration": 0.063,
      "velocity": 0.8,
      "hand": "left"
    },
    {
      "midi": 51,
      "time": 29,
      "duration": 0.063,
      "velocity": 0.63,
      "hand": "left"
    },
    {
      "midi": 62,
      "time": 29,
      "duration": 0.25,
      "velocity": 0.57,
      "hand": "right"
    },
    {
      "midi": 65,
      "time": 29,
      "duration": 0.485,
      "velocity": 0.54,
      "hand": "right"
    },
    {
      "midi": 55,
      "time": 29.25,
      "duration": 0.235,
      "velocity": 0.69,
      "hand": "left"
    },
    {
      "midi": 51,
      "time": 29.375,
      "duration": 0.063,
      "velocity": 0.63,
      "hand": "left"
    },
    {
      "midi": 38,
      "time": 29.5,
      "duration": 0.25,
      "velocity": 1,
      "hand": "left"
    },
    {
      "midi": 51,
      "time": 29.5,
      "duration": 0.063,
      "velocity": 0.63,
      "hand": "left"
    },
    {
      "midi": 62,
      "time": 29.5,
      "duration": 0.375,
      "velocity": 0.51,
      "hand": "right"
    },
    {
      "midi": 65,
      "time": 29.5,
      "duration": 0.375,
      "velocity": 0.72,
      "hand": "right"
    },
    {
      "midi": 67,
      "time": 29.5,
      "duration": 0.25,
      "velocity": 0.51,
      "hand": "right"
    },
    {
      "midi": 69,
      "time": 29.5,
      "duration": 0.375,
      "velocity": 0.57,
      "hand": "right"
    },
    {
      "midi": 47,
      "time": 29.75,
      "duration": 0.235,
      "velocity": 0.96,
      "hand": "left"
    },
    {
      "midi": 50,
      "time": 29.75,
      "duration": 0.25,
      "velocity": 0.56,
      "hand": "left"
    },
    {
      "midi": 51,
      "time": 29.875,
      "duration": 0.063,
      "velocity": 0.63,
      "hand": "left"
    },
    {
      "midi": 43,
      "time": 30,
      "duration": 1.235,
      "velocity": 0.98,
      "hand": "left"
    },
    {
      "midi": 47,
      "time": 30,
      "duration": 0.063,
      "velocity": 0.89,
      "hand": "left"
    },
    {
      "midi": 65,
      "time": 30,
      "duration": 0.36,
      "velocity": 0.72,
      "hand": "right"
    },
    {
      "midi": 69,
      "time": 30,
      "duration": 0.5,
      "velocity": 0.59,
      "hand": "right"
    },
    {
      "midi": 62,
      "time": 30.25,
      "duration": 0.11,
      "velocity": 0.72,
      "hand": "right"
    },
    {
      "midi": 51,
      "time": 30.375,
      "duration": 0.063,
      "velocity": 0.63,
      "hand": "left"
    },
    {
      "midi": 55,
      "time": 30.375,
      "duration": 0.11,
      "velocity": 0.53,
      "hand": "left"
    },
    {
      "midi": 62,
      "time": 30.375,
      "duration": 0.11,
      "velocity": 0.54,
      "hand": "right"
    },
    {
      "midi": 65,
      "time": 30.375,
      "duration": 0.11,
      "velocity": 0.53,
      "hand": "right"
    },
    {
      "midi": 38,
      "time": 30.5,
      "duration": 0.485,
      "velocity": 1,
      "hand": "left"
    },
    {
      "midi": 51,
      "time": 30.5,
      "duration": 0.063,
      "velocity": 0.63,
      "hand": "left"
    },
    {
      "midi": 62,
      "time": 30.5,
      "duration": 0.063,
      "velocity": 0.57,
      "hand": "right"
    },
    {
      "midi": 65,
      "time": 30.5,
      "duration": 0.25,
      "velocity": 0.56,
      "hand": "right"
    },
    {
      "midi": 55,
      "time": 30.75,
      "duration": 0.235,
      "velocity": 0.58,
      "hand": "left"
    },
    {
      "midi": 72,
      "time": 30.75,
      "duration": 0.25,
      "velocity": 0.55,
      "hand": "right"
    },
    {
      "midi": 51,
      "time": 30.875,
      "duration": 0.063,
      "velocity": 0.63,
      "hand": "left"
    },
    {
      "midi": 38,
      "time": 31,
      "duration": 0.063,
      "velocity": 1,
      "hand": "left"
    },
    {
      "midi": 47,
      "time": 31,
      "duration": 0.25,
      "velocity": 0.97,
      "hand": "left"
    },
    {
      "midi": 62,
      "time": 31,
      "duration": 0.375,
      "velocity": 0.55,
      "hand": "right"
    },
    {
      "midi": 65,
      "time": 31,
      "duration": 0.375,
      "velocity": 0.72,
      "hand": "right"
    },
    {
      "midi": 71,
      "time": 31,
      "duration": 0.25,
      "velocity": 0.52,
      "hand": "right"
    },
    {
      "midi": 43,
      "time": 31.25,
      "duration": 0.25,
      "velocity": 0.96,
      "hand": "left"
    },
    {
      "midi": 50,
      "time": 31.25,
      "duration": 0.25,
      "velocity": 0.46,
      "hand": "left"
    },
    {
      "midi": 69,
      "time": 31.25,
      "duration": 0.25,
      "velocity": 0.52,
      "hand": "right"
    },
    {
      "midi": 51,
      "time": 31.375,
      "duration": 0.063,
      "velocity": 0.63,
      "hand": "left"
    },
    {
      "midi": 59,
      "time": 31.375,
      "duration": 0.125,
      "velocity": 0.42,
      "hand": "left"
    },
    {
      "midi": 36,
      "time": 31.5,
      "duration": 1.25,
      "velocity": 0.95,
      "hand": "left"
    },
    {
      "midi": 47,
      "time": 31.5,
      "duration": 0.063,
      "velocity": 0.97,
      "hand": "left"
    },
    {
      "midi": 60,
      "time": 31.5,
      "duration": 0.235,
      "velocity": 0.52,
      "hand": "right"
    },
    {
      "midi": 62,
      "time": 31.5,
      "duration": 0.063,
      "velocity": 0.22,
      "hand": "right"
    },
    {
      "midi": 64,
      "time": 31.5,
      "duration": 0.36,
      "velocity": 0.58,
      "hand": "right"
    },
    {
      "midi": 67,
      "time": 31.5,
      "duration": 0.875,
      "velocity": 0.57,
      "hand": "right"
    },
    {
      "midi": 38,
      "time": 31.75,
      "duration": 0.063,
      "velocity": 1,
      "hand": "left"
    },
    {
      "midi": 60,
      "time": 31.75,
      "duration": 0.11,
      "velocity": 0.75,
      "hand": "right"
    },
    {
      "midi": 38,
      "time": 31.875,
      "duration": 0.063,
      "velocity": 0.91,
      "hand": "left"
    },
    {
      "midi": 51,
      "time": 31.875,
      "duration": 0.063,
      "velocity": 0.63,
      "hand": "left"
    },
    {
      "midi": 60,
      "time": 31.875,
      "duration": 0.063,
      "velocity": 0.61,
      "hand": "right"
    },
    {
      "midi": 64,
      "time": 31.875,
      "duration": 0.11,
      "velocity": 0.47,
      "hand": "right"
    },
    {
      "midi": 38,
      "time": 32,
      "duration": 0.063,
      "velocity": 0.85,
      "hand": "left"
    },
    {
      "midi": 40,
      "time": 32,
      "duration": 0.75,
      "velocity": 0.28,
      "hand": "left"
    },
    {
      "midi": 60,
      "time": 32,
      "duration": 0.063,
      "velocity": 0.65,
      "hand": "right"
    },
    {
      "midi": 64,
      "time": 32,
      "duration": 0.125,
      "velocity": 0.55,
      "hand": "right"
    },
    {
      "midi": 55,
      "time": 32.25,
      "duration": 0.235,
      "velocity": 0.5,
      "hand": "left"
    },
    {
      "midi": 51,
      "time": 32.375,
      "duration": 0.063,
      "velocity": 0.63,
      "hand": "left"
    },
    {
      "midi": 38,
      "time": 32.5,
      "duration": 0.063,
      "velocity": 1,
      "hand": "left"
    },
    {
      "midi": 43,
      "time": 32.5,
      "duration": 0.235,
      "velocity": 1,
      "hand": "left"
    },
    {
      "midi": 60,
      "time": 32.5,
      "duration": 0.25,
      "velocity": 0.57,
      "hand": "right"
    },
    {
      "midi": 64,
      "time": 32.5,
      "duration": 0.25,
      "velocity": 0.69,
      "hand": "right"
    },
    {
      "midi": 67,
      "time": 32.5,
      "duration": 0.375,
      "velocity": 0.57,
      "hand": "right"
    },
    {
      "midi": 43,
      "time": 32.75,
      "duration": 0.25,
      "velocity": 0.48,
      "hand": "left"
    },
    {
      "midi": 55,
      "time": 32.75,
      "duration": 0.125,
      "velocity": 0.61,
      "hand": "left"
    },
    {
      "midi": 51,
      "time": 32.875,
      "duration": 0.063,
      "velocity": 0.63,
      "hand": "left"
    },
    {
      "midi": 72,
      "time": 32.875,
      "duration": 0.75,
      "velocity": 0.72,
      "hand": "right"
    },
    {
      "midi": 36,
      "time": 33,
      "duration": 1,
      "velocity": 0.97,
      "hand": "left"
    },
    {
      "midi": 47,
      "time": 33,
      "duration": 0.063,
      "velocity": 0.89,
      "hand": "left"
    },
    {
      "midi": 60,
      "time": 33,
      "duration": 0.36,
      "velocity": 0.75,
      "hand": "right"
    },
    {
      "midi": 65,
      "time": 33,
      "duration": 0.875,
      "velocity": 0.72,
      "hand": "right"
    },
    {
      "midi": 51,
      "time": 33.375,
      "duration": 0.063,
      "velocity": 0.63,
      "hand": "left"
    },
    {
      "midi": 55,
      "time": 33.375,
      "duration": 0.11,
      "velocity": 0.53,
      "hand": "left"
    },
    {
      "midi": 60,
      "time": 33.375,
      "duration": 0.063,
      "velocity": 0.61,
      "hand": "right"
    },
    {
      "midi": 64,
      "time": 33.375,
      "duration": 0.063,
      "velocity": 0.51,
      "hand": "right"
    },
    {
      "midi": 38,
      "time": 33.5,
      "duration": 0.063,
      "velocity": 0.99,
      "hand": "left"
    },
    {
      "midi": 51,
      "time": 33.5,
      "duration": 0.063,
      "velocity": 0.63,
      "hand": "left"
    },
    {
      "midi": 60,
      "time": 33.5,
      "duration": 0.375,
      "velocity": 0.69,
      "hand": "right"
    },
    {
      "midi": 64,
      "time": 33.5,
      "duration": 0.375,
      "velocity": 0.72,
      "hand": "right"
    },
    {
      "midi": 72,
      "time": 33.75,
      "duration": 0.25,
      "velocity": 0.63,
      "hand": "right"
    },
    {
      "midi": 51,
      "time": 33.875,
      "duration": 0.063,
      "velocity": 0.63,
      "hand": "left"
    },
    {
      "midi": 38,
      "time": 34,
      "duration": 0.063,
      "velocity": 1,
      "hand": "left"
    },
    {
      "midi": 43,
      "time": 34,
      "duration": 0.25,
      "velocity": 1,
      "hand": "left"
    },
    {
      "midi": 60,
      "time": 34,
      "duration": 0.36,
      "velocity": 0.74,
      "hand": "right"
    },
    {
      "midi": 64,
      "time": 34,
      "duration": 0.375,
      "velocity": 0.7,
      "hand": "right"
    },
    {
      "midi": 74,
      "time": 34,
      "duration": 0.25,
      "velocity": 0.56,
      "hand": "right"
    },
    {
      "midi": 36,
      "time": 34.25,
      "duration": 0.25,
      "velocity": 0.84,
      "hand": "left"
    },
    {
      "midi": 72,
      "time": 34.25,
      "duration": 0.25,
      "velocity": 0.52,
      "hand": "right"
    },
    {
      "midi": 51,
      "time": 34.375,
      "duration": 0.063,
      "velocity": 0.63,
      "hand": "left"
    },
    {
      "midi": 60,
      "time": 34.375,
      "duration": 0.11,
      "velocity": 0.47,
      "hand": "right"
    },
    {
      "midi": 41,
      "time": 34.5,
      "duration": 1.235,
      "velocity": 0.99,
      "hand": "left"
    },
    {
      "midi": 47,
      "time": 34.5,
      "duration": 0.063,
      "velocity": 0.87,
      "hand": "left"
    },
    {
      "midi": 60,
      "time": 34.5,
      "duration": 0.36,
      "velocity": 0.65,
      "hand": "right"
    },
    {
      "midi": 64,
      "time": 34.5,
      "duration": 0.875,
      "velocity": 0.54,
      "hand": "right"
    },
    {
      "midi": 71,
      "time": 34.5,
      "duration": 0.5,
      "velocity": 0.54,
      "hand": "right"
    },
    {
      "midi": 38,
      "time": 34.75,
      "duration": 0.063,
      "velocity": 1,
      "hand": "left"
    },
    {
      "midi": 38,
      "time": 34.875,
      "duration": 0.063,
      "velocity": 1,
      "hand": "left"
    },
    {
      "midi": 45,
      "time": 34.875,
      "duration": 0.75,
      "velocity": 0.5,
      "hand": "left"
    },
    {
      "midi": 60,
      "time": 34.875,
      "duration": 0.063,
      "velocity": 0.69,
      "hand": "right"
    },
    {
      "midi": 65,
      "time": 34.875,
      "duration": 0.11,
      "velocity": 0.56,
      "hand": "right"
    },
    {
      "midi": 69,
      "time": 34.875,
      "duration": 0.375,
      "velocity": 0.5,
      "hand": "right"
    },
    {
      "midi": 38,
      "time": 35,
      "duration": 0.063,
      "velocity": 0.86,
      "hand": "left"
    },
    {
      "midi": 54,
      "time": 35,
      "duration": 0.063,
      "velocity": 0.55,
      "hand": "left"
    },
    {
      "midi": 60,
      "time": 35,
      "duration": 0.063,
      "velocity": 0.72,
      "hand": "right"
    },
    {
      "midi": 65,
      "time": 35,
      "duration": 0.125,
      "velocity": 0.53,
      "hand": "right"
    },
    {
      "midi": 51,
      "time": 35.125,
      "duration": 0.063,
      "velocity": 0.63,
      "hand": "left"
    },
    {
      "midi": 51,
      "time": 35.375,
      "duration": 0.063,
      "velocity": 0.63,
      "hand": "left"
    },
    {
      "midi": 36,
      "time": 35.5,
      "duration": 0.25,
      "velocity": 0.8,
      "hand": "left"
    },
    {
      "midi": 38,
      "time": 35.5,
      "duration": 0.063,
      "velocity": 1,
      "hand": "left"
    },
    {
      "midi": 60,
      "time": 35.5,
      "duration": 0.25,
      "velocity": 0.54,
      "hand": "right"
    },
    {
      "midi": 65,
      "time": 35.5,
      "duration": 0.375,
      "velocity": 0.72,
      "hand": "right"
    },
    {
      "midi": 69,
      "time": 35.5,
      "duration": 0.5,
      "velocity": 0.57,
      "hand": "right"
    },
    {
      "midi": 41,
      "time": 35.75,
      "duration": 0.25,
      "velocity": 0.8,
      "hand": "left"
    },
    {
      "midi": 48,
      "time": 35.75,
      "duration": 0.25,
      "velocity": 0.51,
      "hand": "left"
    },
    {
      "midi": 43,
      "time": 35.875,
      "duration": 0.11,
      "velocity": 0.45,
      "hand": "left"
    },
    {
      "midi": 51,
      "time": 35.875,
      "duration": 0.063,
      "velocity": 0.63,
      "hand": "left"
    },
    {
      "midi": 67,
      "time": 35.875,
      "duration": 0.5,
      "velocity": 0.49,
      "hand": "right"
    },
    {
      "midi": 43,
      "time": 36,
      "duration": 1,
      "velocity": 1,
      "hand": "left"
    },
    {
      "midi": 47,
      "time": 36,
      "duration": 0.063,
      "velocity": 0.93,
      "hand": "left"
    },
    {
      "midi": 60,
      "time": 36,
      "duration": 0.063,
      "velocity": 0.24,
      "hand": "right"
    },
    {
      "midi": 62,
      "time": 36,
      "duration": 0.36,
      "velocity": 0.63,
      "hand": "right"
    },
    {
      "midi": 59,
      "time": 36.25,
      "duration": 0.11,
      "velocity": 0.73,
      "hand": "left"
    },
    {
      "midi": 47,
      "time": 36.375,
      "duration": 0.875,
      "velocity": 0.17,
      "hand": "left"
    },
    {
      "midi": 51,
      "time": 36.375,
      "duration": 0.063,
      "velocity": 0.63,
      "hand": "left"
    },
    {
      "midi": 62,
      "time": 36.375,
      "duration": 0.063,
      "velocity": 0.61,
      "hand": "right"
    },
    {
      "midi": 64,
      "time": 36.375,
      "duration": 0.063,
      "velocity": 0.57,
      "hand": "right"
    },
    {
      "midi": 69,
      "time": 36.375,
      "duration": 0.11,
      "velocity": 0.58,
      "hand": "right"
    },
    {
      "midi": 38,
      "time": 36.5,
      "duration": 0.063,
      "velocity": 0.95,
      "hand": "left"
    },
    {
      "midi": 51,
      "time": 36.5,
      "duration": 0.063,
      "velocity": 0.63,
      "hand": "left"
    },
    {
      "midi": 62,
      "time": 36.5,
      "duration": 0.125,
      "velocity": 0.54,
      "hand": "right"
    },
    {
      "midi": 64,
      "time": 36.5,
      "duration": 0.125,
      "velocity": 0.56,
      "hand": "right"
    },
    {
      "midi": 69,
      "time": 36.5,
      "duration": 0.125,
      "velocity": 0.46,
      "hand": "right"
    },
    {
      "midi": 71,
      "time": 36.5,
      "duration": 0.25,
      "velocity": 0.4,
      "hand": "right"
    },
    {
      "midi": 53,
      "time": 36.75,
      "duration": 0.25,
      "velocity": 0.63,
      "hand": "left"
    },
    {
      "midi": 69,
      "time": 36.75,
      "duration": 0.235,
      "velocity": 0.5,
      "hand": "right"
    },
    {
      "midi": 51,
      "time": 36.875,
      "duration": 0.063,
      "velocity": 0.63,
      "hand": "left"
    },
    {
      "midi": 38,
      "time": 37,
      "duration": 0.25,
      "velocity": 1,
      "hand": "left"
    },
    {
      "midi": 51,
      "time": 37,
      "duration": 0.063,
      "velocity": 0.63,
      "hand": "left"
    },
    {
      "midi": 62,
      "time": 37,
      "duration": 0.235,
      "velocity": 0.72,
      "hand": "right"
    },
    {
      "midi": 65,
      "time": 37,
      "duration": 0.25,
      "velocity": 0.54,
      "hand": "right"
    },
    {
      "midi": 69,
      "time": 37,
      "duration": 0.25,
      "velocity": 0.69,
      "hand": "right"
    },
    {
      "midi": 43,
      "time": 37.25,
      "duration": 0.125,
      "velocity": 0.8,
      "hand": "left"
    },
    {
      "midi": 50,
      "time": 37.25,
      "duration": 0.25,
      "velocity": 0.51,
      "hand": "left"
    },
    {
      "midi": 62,
      "time": 37.25,
      "duration": 0.235,
      "velocity": 0.54,
      "hand": "right"
    },
    {
      "midi": 51,
      "time": 37.375,
      "duration": 0.063,
      "velocity": 0.63,
      "hand": "left"
    },
    {
      "midi": 64,
      "time": 37.375,
      "duration": 0.11,
      "velocity": 0.44,
      "hand": "right"
    },
    {
      "midi": 36,
      "time": 37.5,
      "duration": 0.75,
      "velocity": 0.57,
      "hand": "left"
    },
    {
      "midi": 47,
      "time": 37.5,
      "duration": 0.063,
      "velocity": 0.91,
      "hand": "left"
    },
    {
      "midi": 60,
      "time": 37.5,
      "duration": 0.36,
      "velocity": 0.57,
      "hand": "right"
    },
    {
      "midi": 62,
      "time": 37.5,
      "duration": 0.75,
      "velocity": 0.36,
      "hand": "right"
    },
    {
      "midi": 64,
      "time": 37.5,
      "duration": 0.36,
      "velocity": 0.4,
      "hand": "right"
    },
    {
      "midi": 38,
      "time": 37.75,
      "duration": 0.063,
      "velocity": 1,
      "hand": "left"
    },
    {
      "midi": 51,
      "time": 37.875,
      "duration": 0.063,
      "velocity": 0.63,
      "hand": "left"
    },
    {
      "midi": 55,
      "time": 37.875,
      "duration": 0.11,
      "velocity": 0.56,
      "hand": "left"
    },
    {
      "midi": 60,
      "time": 37.875,
      "duration": 0.063,
      "velocity": 0.68,
      "hand": "right"
    },
    {
      "midi": 64,
      "time": 37.875,
      "duration": 0.11,
      "velocity": 0.52,
      "hand": "right"
    },
    {
      "midi": 38,
      "time": 38,
      "duration": 0.063,
      "velocity": 1,
      "hand": "left"
    },
    {
      "midi": 51,
      "time": 38,
      "duration": 0.063,
      "velocity": 0.63,
      "hand": "left"
    },
    {
      "midi": 60,
      "time": 38,
      "duration": 0.125,
      "velocity": 0.57,
      "hand": "right"
    },
    {
      "midi": 64,
      "time": 38,
      "duration": 0.125,
      "velocity": 0.54,
      "hand": "right"
    },
    {
      "midi": 43,
      "time": 38.25,
      "duration": 0.063,
      "velocity": 1,
      "hand": "left"
    },
    {
      "midi": 51,
      "time": 38.375,
      "duration": 0.063,
      "velocity": 0.63,
      "hand": "left"
    },
    {
      "midi": 45,
      "time": 38.5,
      "duration": 0.063,
      "velocity": 1,
      "hand": "left"
    },
    {
      "midi": 51,
      "time": 38.5,
      "duration": 0.063,
      "velocity": 0.63,
      "hand": "left"
    },
    {
      "midi": 60,
      "time": 38.5,
      "duration": 0.125,
      "velocity": 0.73,
      "hand": "right"
    },
    {
      "midi": 64,
      "time": 38.5,
      "duration": 0.125,
      "velocity": 0.61,
      "hand": "right"
    },
    {
      "midi": 67,
      "time": 38.5,
      "duration": 0.375,
      "velocity": 0.74,
      "hand": "right"
    },
    {
      "midi": 47,
      "time": 38.75,
      "duration": 0.063,
      "velocity": 0.87,
      "hand": "left"
    },
    {
      "midi": 38,
      "time": 38.875,
      "duration": 0.063,
      "velocity": 0.87,
      "hand": "left"
    },
    {
      "midi": 51,
      "time": 38.875,
      "duration": 0.063,
      "velocity": 0.63,
      "hand": "left"
    },
    {
      "midi": 36,
      "time": 39,
      "duration": 1,
      "velocity": 0.98,
      "hand": "left"
    },
    {
      "midi": 47,
      "time": 39,
      "duration": 0.063,
      "velocity": 0.87,
      "hand": "left"
    },
    {
      "midi": 60,
      "time": 39,
      "duration": 0.36,
      "velocity": 0.68,
      "hand": "right"
    },
    {
      "midi": 64,
      "time": 39,
      "duration": 0.36,
      "velocity": 0.56,
      "hand": "right"
    },
    {
      "midi": 67,
      "time": 39,
      "duration": 0.5,
      "velocity": 0.7,
      "hand": "right"
    },
    {
      "midi": 76,
      "time": 39,
      "duration": 0.5,
      "velocity": 0.74,
      "hand": "right"
    },
    {
      "midi": 38,
      "time": 39.25,
      "duration": 0.063,
      "velocity": 1,
      "hand": "left"
    },
    {
      "midi": 38,
      "time": 39.375,
      "duration": 0.063,
      "velocity": 1,
      "hand": "left"
    },
    {
      "midi": 51,
      "time": 39.375,
      "duration": 0.063,
      "velocity": 0.63,
      "hand": "left"
    },
    {
      "midi": 60,
      "time": 39.375,
      "duration": 0.11,
      "velocity": 0.56,
      "hand": "right"
    },
    {
      "midi": 64,
      "time": 39.375,
      "duration": 0.11,
      "velocity": 0.5,
      "hand": "right"
    },
    {
      "midi": 38,
      "time": 39.5,
      "duration": 0.063,
      "velocity": 0.86,
      "hand": "left"
    },
    {
      "midi": 54,
      "time": 39.5,
      "duration": 0.063,
      "velocity": 0.55,
      "hand": "left"
    },
    {
      "midi": 60,
      "time": 39.5,
      "duration": 0.063,
      "velocity": 0.57,
      "hand": "right"
    },
    {
      "midi": 64,
      "time": 39.5,
      "duration": 0.25,
      "velocity": 0.56,
      "hand": "right"
    },
    {
      "midi": 79,
      "time": 39.5,
      "duration": 0.5,
      "velocity": 0.76,
      "hand": "right"
    },
    {
      "midi": 51,
      "time": 39.625,
      "duration": 0.063,
      "velocity": 0.63,
      "hand": "left"
    },
    {
      "midi": 72,
      "time": 39.75,
      "duration": 0.25,
      "velocity": 0.56,
      "hand": "right"
    },
    {
      "midi": 51,
      "time": 39.875,
      "duration": 0.063,
      "velocity": 0.63,
      "hand": "left"
    },
    {
      "midi": 38,
      "time": 40,
      "duration": 0.063,
      "velocity": 1,
      "hand": "left"
    },
    {
      "midi": 43,
      "time": 40,
      "duration": 0.25,
      "velocity": 1,
      "hand": "left"
    },
    {
      "midi": 60,
      "time": 40,
      "duration": 0.375,
      "velocity": 0.69,
      "hand": "right"
    },
    {
      "midi": 64,
      "time": 40,
      "duration": 0.375,
      "velocity": 0.56,
      "hand": "right"
    },
    {
      "midi": 71,
      "time": 40,
      "duration": 0.25,
      "velocity": 0.5,
      "hand": "right"
    },
    {
      "midi": 81,
      "time": 40,
      "duration": 0.375,
      "velocity": 0.72,
      "hand": "right"
    },
    {
      "midi": 36,
      "time": 40.25,
      "duration": 0.25,
      "velocity": 0.8,
      "hand": "left"
    },
    {
      "midi": 69,
      "time": 40.25,
      "duration": 0.25,
      "velocity": 0.42,
      "hand": "right"
    },
    {
      "midi": 51,
      "time": 40.375,
      "duration": 0.063,
      "velocity": 0.63,
      "hand": "left"
    },
    {
      "midi": 43,
      "time": 40.5,
      "duration": 0.875,
      "velocity": 1,
      "hand": "left"
    },
    {
      "midi": 47,
      "time": 40.5,
      "duration": 0.063,
      "velocity": 0.93,
      "hand": "left"
    },
    {
      "midi": 62,
      "time": 40.5,
      "duration": 0.36,
      "velocity": 0.39,
      "hand": "right"
    },
    {
      "midi": 67,
      "time": 40.5,
      "duration": 0.5,
      "velocity": 0.54,
      "hand": "right"
    },
    {
      "midi": 83,
      "time": 40.5,
      "duration": 1.5,
      "velocity": 0.61,
      "hand": "right"
    },
    {
      "midi": 59,
      "time": 40.75,
      "duration": 0.11,
      "velocity": 0.68,
      "hand": "left"
    },
    {
      "midi": 51,
      "time": 40.875,
      "duration": 0.063,
      "velocity": 0.63,
      "hand": "left"
    },
    {
      "midi": 55,
      "time": 40.875,
      "duration": 0.063,
      "velocity": 0.44,
      "hand": "left"
    },
    {
      "midi": 62,
      "time": 40.875,
      "duration": 0.11,
      "velocity": 0.56,
      "hand": "right"
    },
    {
      "midi": 38,
      "time": 41,
      "duration": 0.063,
      "velocity": 0.95,
      "hand": "left"
    },
    {
      "midi": 51,
      "time": 41,
      "duration": 0.063,
      "velocity": 0.63,
      "hand": "left"
    },
    {
      "midi": 62,
      "time": 41,
      "duration": 0.25,
      "velocity": 0.57,
      "hand": "right"
    },
    {
      "midi": 65,
      "time": 41,
      "duration": 0.485,
      "velocity": 0.54,
      "hand": "right"
    },
    {
      "midi": 55,
      "time": 41.25,
      "duration": 0.235,
      "velocity": 0.69,
      "hand": "left"
    },
    {
      "midi": 51,
      "time": 41.375,
      "duration": 0.063,
      "velocity": 0.63,
      "hand": "left"
    },
    {
      "midi": 38,
      "time": 41.5,
      "duration": 0.25,
      "velocity": 1,
      "hand": "left"
    },
    {
      "midi": 51,
      "time": 41.5,
      "duration": 0.063,
      "velocity": 0.63,
      "hand": "left"
    },
    {
      "midi": 62,
      "time": 41.5,
      "duration": 0.375,
      "velocity": 0.51,
      "hand": "right"
    },
    {
      "midi": 65,
      "time": 41.5,
      "duration": 0.375,
      "velocity": 0.72,
      "hand": "right"
    },
    {
      "midi": 67,
      "time": 41.5,
      "duration": 0.25,
      "velocity": 0.51,
      "hand": "right"
    },
    {
      "midi": 69,
      "time": 41.5,
      "duration": 0.375,
      "velocity": 0.57,
      "hand": "right"
    },
    {
      "midi": 47,
      "time": 41.75,
      "duration": 0.235,
      "velocity": 0.96,
      "hand": "left"
    },
    {
      "midi": 50,
      "time": 41.75,
      "duration": 0.25,
      "velocity": 0.56,
      "hand": "left"
    },
    {
      "midi": 51,
      "time": 41.875,
      "duration": 0.063,
      "velocity": 0.63,
      "hand": "left"
    },
    {
      "midi": 43,
      "time": 42,
      "duration": 1.235,
      "velocity": 0.98,
      "hand": "left"
    },
    {
      "midi": 47,
      "time": 42,
      "duration": 0.063,
      "velocity": 0.91,
      "hand": "left"
    },
    {
      "midi": 65,
      "time": 42,
      "duration": 0.36,
      "velocity": 0.72,
      "hand": "right"
    },
    {
      "midi": 69,
      "time": 42,
      "duration": 0.5,
      "velocity": 0.59,
      "hand": "right"
    },
    {
      "midi": 79,
      "time": 42,
      "duration": 0.5,
      "velocity": 0.76,
      "hand": "right"
    },
    {
      "midi": 38,
      "time": 42.25,
      "duration": 0.063,
      "velocity": 1,
      "hand": "left"
    },
    {
      "midi": 62,
      "time": 42.25,
      "duration": 0.11,
      "velocity": 0.72,
      "hand": "right"
    },
    {
      "midi": 38,
      "time": 42.375,
      "duration": 0.063,
      "velocity": 0.97,
      "hand": "left"
    },
    {
      "midi": 51,
      "time": 42.375,
      "duration": 0.063,
      "velocity": 0.63,
      "hand": "left"
    },
    {
      "midi": 62,
      "time": 42.375,
      "duration": 0.11,
      "velocity": 0.54,
      "hand": "right"
    },
    {
      "midi": 65,
      "time": 42.375,
      "duration": 0.11,
      "velocity": 0.53,
      "hand": "right"
    },
    {
      "midi": 38,
      "time": 42.5,
      "duration": 0.485,
      "velocity": 0.87,
      "hand": "left"
    },
    {
      "midi": 51,
      "time": 42.5,
      "duration": 0.063,
      "velocity": 0.63,
      "hand": "left"
    },
    {
      "midi": 62,
      "time": 42.5,
      "duration": 0.063,
      "velocity": 0.57,
      "hand": "right"
    },
    {
      "midi": 65,
      "time": 42.5,
      "duration": 0.25,
      "velocity": 0.56,
      "hand": "right"
    },
    {
      "midi": 83,
      "time": 42.5,
      "duration": 0.5,
      "velocity": 0.76,
      "hand": "right"
    },
    {
      "midi": 55,
      "time": 42.75,
      "duration": 0.235,
      "velocity": 0.58,
      "hand": "left"
    },
    {
      "midi": 72,
      "time": 42.75,
      "duration": 0.25,
      "velocity": 0.55,
      "hand": "right"
    },
    {
      "midi": 51,
      "time": 42.875,
      "duration": 0.063,
      "velocity": 0.63,
      "hand": "left"
    },
    {
      "midi": 38,
      "time": 43,
      "duration": 0.063,
      "velocity": 1,
      "hand": "left"
    },
    {
      "midi": 47,
      "time": 43,
      "duration": 0.25,
      "velocity": 0.97,
      "hand": "left"
    },
    {
      "midi": 62,
      "time": 43,
      "duration": 0.375,
      "velocity": 0.55,
      "hand": "right"
    },
    {
      "midi": 65,
      "time": 43,
      "duration": 0.375,
      "velocity": 0.72,
      "hand": "right"
    },
    {
      "midi": 71,
      "time": 43,
      "duration": 0.25,
      "velocity": 0.52,
      "hand": "right"
    },
    {
      "midi": 74,
      "time": 43,
      "duration": 0.5,
      "velocity": 0.72,
      "hand": "right"
    },
    {
      "midi": 43,
      "time": 43.25,
      "duration": 0.25,
      "velocity": 0.96,
      "hand": "left"
    },
    {
      "midi": 50,
      "time": 43.25,
      "duration": 0.25,
      "velocity": 0.46,
      "hand": "left"
    },
    {
      "midi": 69,
      "time": 43.25,
      "duration": 0.25,
      "velocity": 0.52,
      "hand": "right"
    },
    {
      "midi": 51,
      "time": 43.375,
      "duration": 0.063,
      "velocity": 0.63,
      "hand": "left"
    },
    {
      "midi": 59,
      "time": 43.375,
      "duration": 0.125,
      "velocity": 0.42,
      "hand": "left"
    },
    {
      "midi": 36,
      "time": 43.5,
      "duration": 1.25,
      "velocity": 0.95,
      "hand": "left"
    },
    {
      "midi": 47,
      "time": 43.5,
      "duration": 0.063,
      "velocity": 0.89,
      "hand": "left"
    },
    {
      "midi": 62,
      "time": 43.5,
      "duration": 0.063,
      "velocity": 0.22,
      "hand": "right"
    },
    {
      "midi": 64,
      "time": 43.5,
      "duration": 0.36,
      "velocity": 0.58,
      "hand": "right"
    },
    {
      "midi": 67,
      "time": 43.5,
      "duration": 0.875,
      "velocity": 0.57,
      "hand": "right"
    },
    {
      "midi": 76,
      "time": 43.5,
      "duration": 1.375,
      "velocity": 0.72,
      "hand": "right"
    },
    {
      "midi": 60,
      "time": 43.75,
      "duration": 0.11,
      "velocity": 0.75,
      "hand": "right"
    },
    {
      "midi": 51,
      "time": 43.875,
      "duration": 0.063,
      "velocity": 0.63,
      "hand": "left"
    },
    {
      "midi": 55,
      "time": 43.875,
      "duration": 0.11,
      "velocity": 0.55,
      "hand": "left"
    },
    {
      "midi": 60,
      "time": 43.875,
      "duration": 0.063,
      "velocity": 0.61,
      "hand": "right"
    },
    {
      "midi": 64,
      "time": 43.875,
      "duration": 0.11,
      "velocity": 0.47,
      "hand": "right"
    },
    {
      "midi": 38,
      "time": 44,
      "duration": 0.063,
      "velocity": 1,
      "hand": "left"
    },
    {
      "midi": 40,
      "time": 44,
      "duration": 0.75,
      "velocity": 0.28,
      "hand": "left"
    },
    {
      "midi": 60,
      "time": 44,
      "duration": 0.063,
      "velocity": 0.65,
      "hand": "right"
    },
    {
      "midi": 64,
      "time": 44,
      "duration": 0.125,
      "velocity": 0.55,
      "hand": "right"
    },
    {
      "midi": 55,
      "time": 44.25,
      "duration": 0.235,
      "velocity": 0.5,
      "hand": "left"
    },
    {
      "midi": 51,
      "time": 44.375,
      "duration": 0.063,
      "velocity": 0.63,
      "hand": "left"
    },
    {
      "midi": 38,
      "time": 44.5,
      "duration": 0.063,
      "velocity": 1,
      "hand": "left"
    },
    {
      "midi": 43,
      "time": 44.5,
      "duration": 0.235,
      "velocity": 1,
      "hand": "left"
    },
    {
      "midi": 60,
      "time": 44.5,
      "duration": 0.25,
      "velocity": 0.57,
      "hand": "right"
    },
    {
      "midi": 64,
      "time": 44.5,
      "duration": 0.25,
      "velocity": 0.69,
      "hand": "right"
    },
    {
      "midi": 67,
      "time": 44.5,
      "duration": 0.375,
      "velocity": 0.57,
      "hand": "right"
    },
    {
      "midi": 43,
      "time": 44.75,
      "duration": 0.25,
      "velocity": 0.48,
      "hand": "left"
    },
    {
      "midi": 55,
      "time": 44.75,
      "duration": 0.125,
      "velocity": 0.61,
      "hand": "left"
    },
    {
      "midi": 51,
      "time": 44.875,
      "duration": 0.063,
      "velocity": 0.63,
      "hand": "left"
    },
    {
      "midi": 72,
      "time": 44.875,
      "duration": 0.75,
      "velocity": 0.72,
      "hand": "right"
    },
    {
      "midi": 36,
      "time": 45,
      "duration": 1,
      "velocity": 0.97,
      "hand": "left"
    },
    {
      "midi": 47,
      "time": 45,
      "duration": 0.063,
      "velocity": 0.97,
      "hand": "left"
    },
    {
      "midi": 60,
      "time": 45,
      "duration": 0.36,
      "velocity": 0.75,
      "hand": "right"
    },
    {
      "midi": 65,
      "time": 45,
      "duration": 0.875,
      "velocity": 0.72,
      "hand": "right"
    },
    {
      "midi": 77,
      "time": 45,
      "duration": 0.5,
      "velocity": 0.73,
      "hand": "right"
    },
    {
      "midi": 38,
      "time": 45.25,
      "duration": 0.063,
      "velocity": 1,
      "hand": "left"
    },
    {
      "midi": 38,
      "time": 45.375,
      "duration": 0.063,
      "velocity": 0.91,
      "hand": "left"
    },
    {
      "midi": 51,
      "time": 45.375,
      "duration": 0.063,
      "velocity": 0.63,
      "hand": "left"
    },
    {
      "midi": 60,
      "time": 45.375,
      "duration": 0.063,
      "velocity": 0.61,
      "hand": "right"
    },
    {
      "midi": 64,
      "time": 45.375,
      "duration": 0.063,
      "velocity": 0.51,
      "hand": "right"
    },
    {
      "midi": 38,
      "time": 45.5,
      "duration": 0.063,
      "velocity": 0.85,
      "hand": "left"
    },
    {
      "midi": 51,
      "time": 45.5,
      "duration": 0.063,
      "velocity": 0.63,
      "hand": "left"
    },
    {
      "midi": 60,
      "time": 45.5,
      "duration": 0.375,
      "velocity": 0.69,
      "hand": "right"
    },
    {
      "midi": 64,
      "time": 45.5,
      "duration": 0.375,
      "velocity": 0.72,
      "hand": "right"
    },
    {
      "midi": 76,
      "time": 45.5,
      "duration": 0.5,
      "velocity": 0.63,
      "hand": "right"
    },
    {
      "midi": 72,
      "time": 45.75,
      "duration": 0.25,
      "velocity": 0.63,
      "hand": "right"
    },
    {
      "midi": 51,
      "time": 45.875,
      "duration": 0.063,
      "velocity": 0.63,
      "hand": "left"
    },
    {
      "midi": 38,
      "time": 46,
      "duration": 0.063,
      "velocity": 1,
      "hand": "left"
    },
    {
      "midi": 43,
      "time": 46,
      "duration": 0.25,
      "velocity": 1,
      "hand": "left"
    },
    {
      "midi": 60,
      "time": 46,
      "duration": 0.36,
      "velocity": 0.74,
      "hand": "right"
    },
    {
      "midi": 64,
      "time": 46,
      "duration": 0.375,
      "velocity": 0.7,
      "hand": "right"
    },
    {
      "midi": 74,
      "time": 46,
      "duration": 0.5,
      "velocity": 0.72,
      "hand": "right"
    },
    {
      "midi": 36,
      "time": 46.25,
      "duration": 0.25,
      "velocity": 0.84,
      "hand": "left"
    },
    {
      "midi": 72,
      "time": 46.25,
      "duration": 0.25,
      "velocity": 0.52,
      "hand": "right"
    },
    {
      "midi": 51,
      "time": 46.375,
      "duration": 0.063,
      "velocity": 0.63,
      "hand": "left"
    },
    {
      "midi": 60,
      "time": 46.375,
      "duration": 0.11,
      "velocity": 0.28,
      "hand": "right"
    },
    {
      "midi": 41,
      "time": 46.5,
      "duration": 1.235,
      "velocity": 0.99,
      "hand": "left"
    },
    {
      "midi": 47,
      "time": 46.5,
      "duration": 0.063,
      "velocity": 0.89,
      "hand": "left"
    },
    {
      "midi": 60,
      "time": 46.5,
      "duration": 0.36,
      "velocity": 0.65,
      "hand": "right"
    },
    {
      "midi": 64,
      "time": 46.5,
      "duration": 0.875,
      "velocity": 0.54,
      "hand": "right"
    },
    {
      "midi": 71,
      "time": 46.5,
      "duration": 0.5,
      "velocity": 0.54,
      "hand": "right"
    },
    {
      "midi": 84,
      "time": 46.5,
      "duration": 1,
      "velocity": 0.7,
      "hand": "right"
    },
    {
      "midi": 45,
      "time": 46.875,
      "duration": 0.75,
      "velocity": 0.5,
      "hand": "left"
    },
    {
      "midi": 51,
      "time": 46.875,
      "duration": 0.063,
      "velocity": 0.63,
      "hand": "left"
    },
    {
      "midi": 60,
      "time": 46.875,
      "duration": 0.063,
      "velocity": 0.69,
      "hand": "right"
    },
    {
      "midi": 65,
      "time": 46.875,
      "duration": 0.11,
      "velocity": 0.56,
      "hand": "right"
    },
    {
      "midi": 69,
      "time": 46.875,
      "duration": 0.375,
      "velocity": 0.5,
      "hand": "right"
    },
    {
      "midi": 38,
      "time": 47,
      "duration": 0.063,
      "velocity": 0.99,
      "hand": "left"
    },
    {
      "midi": 51,
      "time": 47,
      "duration": 0.063,
      "velocity": 0.63,
      "hand": "left"
    },
    {
      "midi": 60,
      "time": 47,
      "duration": 0.063,
      "velocity": 0.72,
      "hand": "right"
    },
    {
      "midi": 65,
      "time": 47,
      "duration": 0.125,
      "velocity": 0.53,
      "hand": "right"
    },
    {
      "midi": 51,
      "time": 47.375,
      "duration": 0.063,
      "velocity": 0.63,
      "hand": "left"
    },
    {
      "midi": 36,
      "time": 47.5,
      "duration": 0.25,
      "velocity": 0.8,
      "hand": "left"
    },
    {
      "midi": 38,
      "time": 47.5,
      "duration": 0.063,
      "velocity": 1,
      "hand": "left"
    },
    {
      "midi": 65,
      "time": 47.5,
      "duration": 0.375,
      "velocity": 0.72,
      "hand": "right"
    },
    {
      "midi": 69,
      "time": 47.5,
      "duration": 0.5,
      "velocity": 0.57,
      "hand": "right"
    },
    {
      "midi": 81,
      "time": 47.5,
      "duration": 0.5,
      "velocity": 0.74,
      "hand": "right"
    },
    {
      "midi": 41,
      "time": 47.75,
      "duration": 0.25,
      "velocity": 0.8,
      "hand": "left"
    },
    {
      "midi": 48,
      "time": 47.75,
      "duration": 0.25,
      "velocity": 0.51,
      "hand": "left"
    },
    {
      "midi": 43,
      "time": 47.875,
      "duration": 0.11,
      "velocity": 0.45,
      "hand": "left"
    },
    {
      "midi": 51,
      "time": 47.875,
      "duration": 0.063,
      "velocity": 0.63,
      "hand": "left"
    },
    {
      "midi": 62,
      "time": 47.875,
      "duration": 0.11,
      "velocity": 0.5,
      "hand": "right"
    },
    {
      "midi": 67,
      "time": 47.875,
      "duration": 0.5,
      "velocity": 0.49,
      "hand": "right"
    },
    {
      "midi": 43,
      "time": 48,
      "duration": 1,
      "velocity": 1,
      "hand": "left"
    },
    {
      "midi": 47,
      "time": 48,
      "duration": 0.063,
      "velocity": 0.87,
      "hand": "left"
    },
    {
      "midi": 60,
      "time": 48,
      "duration": 0.063,
      "velocity": 0.24,
      "hand": "right"
    },
    {
      "midi": 62,
      "time": 48,
      "duration": 0.36,
      "velocity": 0.63,
      "hand": "right"
    },
    {
      "midi": 83,
      "time": 48,
      "duration": 0.5,
      "velocity": 0.74,
      "hand": "right"
    },
    {
      "midi": 38,
      "time": 48.25,
      "duration": 0.063,
      "velocity": 1,
      "hand": "left"
    },
    {
      "midi": 59,
      "time": 48.25,
      "duration": 0.11,
      "velocity": 0.73,
      "hand": "left"
    },
    {
      "midi": 38,
      "time": 48.375,
      "duration": 0.063,
      "velocity": 1,
      "hand": "left"
    },
    {
      "midi": 47,
      "time": 48.375,
      "duration": 0.875,
      "velocity": 0.17,
      "hand": "left"
    },
    {
      "midi": 62,
      "time": 48.375,
      "duration": 0.063,
      "velocity": 0.61,
      "hand": "right"
    },
    {
      "midi": 64,
      "time": 48.375,
      "duration": 0.063,
      "velocity": 0.57,
      "hand": "right"
    },
    {
      "midi": 69,
      "time": 48.375,
      "duration": 0.11,
      "velocity": 0.58,
      "hand": "right"
    },
    {
      "midi": 84,
      "time": 48.375,
      "duration": 0.5,
      "velocity": 0.61,
      "hand": "right"
    },
    {
      "midi": 38,
      "time": 48.5,
      "duration": 0.063,
      "velocity": 0.86,
      "hand": "left"
    },
    {
      "midi": 54,
      "time": 48.5,
      "duration": 0.063,
      "velocity": 0.55,
      "hand": "left"
    },
    {
      "midi": 62,
      "time": 48.5,
      "duration": 0.125,
      "velocity": 0.54,
      "hand": "right"
    },
    {
      "midi": 64,
      "time": 48.5,
      "duration": 0.125,
      "velocity": 0.56,
      "hand": "right"
    },
    {
      "midi": 69,
      "time": 48.5,
      "duration": 0.125,
      "velocity": 0.46,
      "hand": "right"
    },
    {
      "midi": 71,
      "time": 48.5,
      "duration": 0.25,
      "velocity": 0.4,
      "hand": "right"
    },
    {
      "midi": 51,
      "time": 48.625,
      "duration": 0.063,
      "velocity": 0.63,
      "hand": "left"
    },
    {
      "midi": 53,
      "time": 48.75,
      "duration": 0.25,
      "velocity": 0.63,
      "hand": "left"
    },
    {
      "midi": 69,
      "time": 48.75,
      "duration": 0.235,
      "velocity": 0.5,
      "hand": "right"
    },
    {
      "midi": 51,
      "time": 48.875,
      "duration": 0.063,
      "velocity": 0.63,
      "hand": "left"
    },
    {
      "midi": 38,
      "time": 49,
      "duration": 0.25,
      "velocity": 1,
      "hand": "left"
    },
    {
      "midi": 51,
      "time": 49,
      "duration": 0.063,
      "velocity": 0.63,
      "hand": "left"
    },
    {
      "midi": 65,
      "time": 49,
      "duration": 0.25,
      "velocity": 0.54,
      "hand": "right"
    },
    {
      "midi": 69,
      "time": 49,
      "duration": 0.25,
      "velocity": 0.69,
      "hand": "right"
    },
    {
      "midi": 74,
      "time": 49,
      "duration": 0.5,
      "velocity": 0.57,
      "hand": "right"
    },
    {
      "midi": 43,
      "time": 49.25,
      "duration": 0.125,
      "velocity": 0.8,
      "hand": "left"
    },
    {
      "midi": 50,
      "time": 49.25,
      "duration": 0.25,
      "velocity": 0.51,
      "hand": "left"
    },
    {
      "midi": 62,
      "time": 49.25,
      "duration": 0.235,
      "velocity": 0.54,
      "hand": "right"
    },
    {
      "midi": 51,
      "time": 49.375,
      "duration": 0.063,
      "velocity": 0.63,
      "hand": "left"
    },
    {
      "midi": 60,
      "time": 49.375,
      "duration": 0.11,
      "velocity": 0.43,
      "hand": "right"
    },
    {
      "midi": 64,
      "time": 49.375,
      "duration": 0.11,
      "velocity": 0.38,
      "hand": "right"
    },
    {
      "midi": 36,
      "time": 49.5,
      "duration": 0.75,
      "velocity": 0.57,
      "hand": "left"
    },
    {
      "midi": 47,
      "time": 49.5,
      "duration": 0.063,
      "velocity": 0.93,
      "hand": "left"
    },
    {
      "midi": 60,
      "time": 49.5,
      "duration": 0.36,
      "velocity": 0.57,
      "hand": "right"
    },
    {
      "midi": 62,
      "time": 49.5,
      "duration": 0.75,
      "velocity": 0.36,
      "hand": "right"
    },
    {
      "midi": 64,
      "time": 49.5,
      "duration": 0.36,
      "velocity": 0.37,
      "hand": "right"
    },
    {
      "midi": 84,
      "time": 49.5,
      "duration": 1.25,
      "velocity": 0.56,
      "hand": "right"
    },
    {
      "midi": 51,
      "time": 49.875,
      "duration": 0.063,
      "velocity": 0.63,
      "hand": "left"
    },
    {
      "midi": 55,
      "time": 49.875,
      "duration": 0.11,
      "velocity": 0.56,
      "hand": "left"
    },
    {
      "midi": 60,
      "time": 49.875,
      "duration": 0.063,
      "velocity": 0.68,
      "hand": "right"
    },
    {
      "midi": 64,
      "time": 49.875,
      "duration": 0.11,
      "velocity": 0.52,
      "hand": "right"
    },
    {
      "midi": 38,
      "time": 50,
      "duration": 0.063,
      "velocity": 0.95,
      "hand": "left"
    },
    {
      "midi": 51,
      "time": 50,
      "duration": 0.063,
      "velocity": 0.63,
      "hand": "left"
    },
    {
      "midi": 60,
      "time": 50,
      "duration": 0.125,
      "velocity": 0.57,
      "hand": "right"
    },
    {
      "midi": 64,
      "time": 50,
      "duration": 0.125,
      "velocity": 0.54,
      "hand": "right"
    },
    {
      "midi": 51,
      "time": 50.375,
      "duration": 0.063,
      "velocity": 0.63,
      "hand": "left"
    },
    {
      "midi": 38,
      "time": 50.5,
      "duration": 0.063,
      "velocity": 1,
      "hand": "left"
    },
    {
      "midi": 51,
      "time": 50.5,
      "duration": 0.063,
      "velocity": 0.63,
      "hand": "left"
    },
    {
      "midi": 60,
      "time": 50.5,
      "duration": 0.125,
      "velocity": 0.73,
      "hand": "right"
    },
    {
      "midi": 64,
      "time": 50.5,
      "duration": 0.125,
      "velocity": 0.61,
      "hand": "right"
    },
    {
      "midi": 67,
      "time": 50.5,
      "duration": 0.5,
      "velocity": 0.79,
      "hand": "right"
    },
    {
      "midi": 51,
      "time": 50.875,
      "duration": 0.063,
      "velocity": 0.63,
      "hand": "left"
    },
    {
      "midi": 38,
      "time": 51,
      "duration": 0.485,
      "velocity": 1,
      "hand": "left"
    },
    {
      "midi": 47,
      "time": 51,
      "duration": 0.063,
      "velocity": 0.89,
      "hand": "left"
    },
    {
      "midi": 60,
      "time": 51,
      "duration": 0.235,
      "velocity": 0.42,
      "hand": "right"
    },
    {
      "midi": 62,
      "time": 51,
      "duration": 0.5,
      "velocity": 0.76,
      "hand": "right"
    },
    {
      "midi": 64,
      "time": 51,
      "duration": 0.235,
      "velocity": 0.4,
      "hand": "right"
    },
    {
      "midi": 53,
      "time": 51.25,
      "duration": 0.11,
      "velocity": 0.7,
      "hand": "left"
    },
    {
      "midi": 57,
      "time": 51.25,
      "duration": 0.11,
      "velocity": 0.74,
      "hand": "left"
    },
    {
      "midi": 60,
      "time": 51.25,
      "duration": 0.11,
      "velocity": 0.75,
      "hand": "right"
    },
    {
      "midi": 64,
      "time": 51.25,
      "duration": 0.11,
      "velocity": 0.69,
      "hand": "right"
    },
    {
      "midi": 51,
      "time": 51.375,
      "duration": 0.063,
      "velocity": 0.63,
      "hand": "left"
    },
    {
      "midi": 53,
      "time": 51.375,
      "duration": 0.11,
      "velocity": 0.57,
      "hand": "left"
    },
    {
      "midi": 60,
      "time": 51.375,
      "duration": 0.11,
      "velocity": 0.7,
      "hand": "right"
    },
    {
      "midi": 64,
      "time": 51.375,
      "duration": 0.11,
      "velocity": 0.55,
      "hand": "right"
    },
    {
      "midi": 38,
      "time": 51.5,
      "duration": 0.063,
      "velocity": 0.99,
      "hand": "left"
    },
    {
      "midi": 51,
      "time": 51.5,
      "duration": 0.063,
      "velocity": 0.63,
      "hand": "left"
    },
    {
      "midi": 60,
      "time": 51.5,
      "duration": 0.125,
      "velocity": 0.61,
      "hand": "right"
    },
    {
      "midi": 64,
      "time": 51.5,
      "duration": 0.485,
      "velocity": 0.73,
      "hand": "right"
    },
    {
      "midi": 51,
      "time": 51.875,
      "duration": 0.063,
      "velocity": 0.63,
      "hand": "left"
    },
    {
      "midi": 38,
      "time": 52,
      "duration": 0.5,
      "velocity": 1,
      "hand": "left"
    },
    {
      "midi": 51,
      "time": 52,
      "duration": 0.063,
      "velocity": 0.63,
      "hand": "left"
    },
    {
      "midi": 60,
      "time": 52,
      "duration": 0.375,
      "velocity": 0.72,
      "hand": "right"
    },
    {
      "midi": 65,
      "time": 52,
      "duration": 0.5,
      "velocity": 0.56,
      "hand": "right"
    },
    {
      "midi": 56,
      "time": 52.25,
      "duration": 0.235,
      "velocity": 0.17,
      "hand": "left"
    },
    {
      "midi": 51,
      "time": 52.375,
      "duration": 0.063,
      "velocity": 0.63,
      "hand": "left"
    },
    {
      "midi": 37,
      "time": 52.5,
      "duration": 0.985,
      "velocity": 1,
      "hand": "left"
    },
    {
      "midi": 47,
      "time": 52.5,
      "duration": 0.063,
      "velocity": 0.87,
      "hand": "left"
    },
    {
      "midi": 63,
      "time": 52.5,
      "duration": 0.235,
      "velocity": 0.44,
      "hand": "right"
    },
    {
      "midi": 67,
      "time": 52.5,
      "duration": 0.235,
      "velocity": 0.4,
      "hand": "right"
    },
    {
      "midi": 38,
      "time": 52.75,
      "duration": 0.063,
      "velocity": 1,
      "hand": "left"
    },
    {
      "midi": 56,
      "time": 52.75,
      "duration": 0.11,
      "velocity": 0.72,
      "hand": "left"
    },
    {
      "midi": 63,
      "time": 52.75,
      "duration": 0.11,
      "velocity": 0.57,
      "hand": "right"
    },
    {
      "midi": 67,
      "time": 52.75,
      "duration": 0.5,
      "velocity": 0.68,
      "hand": "right"
    },
    {
      "midi": 38,
      "time": 52.875,
      "duration": 0.063,
      "velocity": 1,
      "hand": "left"
    },
    {
      "midi": 51,
      "time": 52.875,
      "duration": 0.063,
      "velocity": 0.63,
      "hand": "left"
    },
    {
      "midi": 63,
      "time": 52.875,
      "duration": 0.11,
      "velocity": 0.5,
      "hand": "right"
    },
    {
      "midi": 38,
      "time": 53,
      "duration": 0.063,
      "velocity": 0.86,
      "hand": "left"
    },
    {
      "midi": 53,
      "time": 53,
      "duration": 0.125,
      "velocity": 0.4,
      "hand": "left"
    },
    {
      "midi": 63,
      "time": 53,
      "duration": 0.125,
      "velocity": 0.42,
      "hand": "right"
    },
    {
      "midi": 71,
      "time": 53,
      "duration": 0.5,
      "velocity": 0.72,
      "hand": "right"
    },
    {
      "midi": 51,
      "time": 53.125,
      "duration": 0.063,
      "velocity": 0.63,
      "hand": "left"
    },
    {
      "midi": 51,
      "time": 53.375,
      "duration": 0.063,
      "velocity": 0.63,
      "hand": "left"
    },
    {
      "midi": 38,
      "time": 53.5,
      "duration": 0.063,
      "velocity": 1,
      "hand": "left"
    },
    {
      "midi": 63,
      "time": 53.5,
      "duration": 0.375,
      "velocity": 0.61,
      "hand": "right"
    },
    {
      "midi": 67,
      "time": 53.5,
      "duration": 0.25,
      "velocity": 0.58,
      "hand": "right"
    },
    {
      "midi": 74,
      "time": 53.5,
      "duration": 0.5,
      "velocity": 0.64,
      "hand": "right"
    },
    {
      "midi": 51,
      "time": 53.875,
      "duration": 0.063,
      "velocity": 0.63,
      "hand": "left"
    },
    {
      "midi": 36,
      "time": 54,
      "duration": 3,
      "velocity": 0.72,
      "hand": "left"
    },
    {
      "midi": 38,
      "time": 54,
      "duration": 0.063,
      "velocity": 0.69,
      "hand": "left"
    },
    {
      "midi": 62,
      "time": 54,
      "duration": 3,
      "velocity": 0.7,
      "hand": "right"
    },
    {
      "midi": 64,
      "time": 54,
      "duration": 3,
      "velocity": 0.72,
      "hand": "right"
    },
    {
      "midi": 67,
      "time": 54,
      "duration": 3,
      "velocity": 0.7,
      "hand": "right"
    },
    {
      "midi": 76,
      "time": 54,
      "duration": 3,
      "velocity": 0.72,
      "hand": "right"
    },
    {
      "midi": 38,
      "time": 54.125,
      "duration": 0.063,
      "velocity": 0.56,
      "hand": "left"
    },
    {
      "midi": 38,
      "time": 54.25,
      "duration": 0.063,
      "velocity": 0.46,
      "hand": "left"
    },
    {
      "midi": 38,
      "time": 54.375,
      "duration": 0.063,
      "velocity": 0.3,
      "hand": "left"
    },
    {
      "midi": 38,
      "time": 54.5,
      "duration": 0.063,
      "velocity": 0.23,
      "hand": "left"
    },
    {
      "midi": 38,
      "time": 54.625,
      "duration": 0.063,
      "velocity": 0.17,
      "hand": "left"
    },
    {
      "midi": 38,
      "time": 54.75,
      "duration": 0.063,
      "velocity": 0.08,
      "hand": "left"
    },
    {
      "midi": 38,
      "time": 54.875,
      "duration": 0.063,
      "velocity": 0.08,
      "hand": "left"
    },
    {
      "midi": 38,
      "time": 55,
      "duration": 0.063,
      "velocity": 0.69,
      "hand": "left"
    },
    {
      "midi": 38,
      "time": 55.125,
      "duration": 0.063,
      "velocity": 0.56,
      "hand": "left"
    },
    {
      "midi": 38,
      "time": 55.25,
      "duration": 0.063,
      "velocity": 0.46,
      "hand": "left"
    },
    {
      "midi": 38,
      "time": 55.375,
      "duration": 0.063,
      "velocity": 0.3,
      "hand": "left"
    },
    {
      "midi": 38,
      "time": 55.5,
      "duration": 0.063,
      "velocity": 0.23,
      "hand": "left"
    },
    {
      "midi": 38,
      "time": 55.625,
      "duration": 0.063,
      "velocity": 0.17,
      "hand": "left"
    },
    {
      "midi": 38,
      "time": 55.75,
      "duration": 0.063,
      "velocity": 0.08,
      "hand": "left"
    },
    {
      "midi": 38,
      "time": 55.875,
      "duration": 0.063,
      "velocity": 0.08,
      "hand": "left"
    }
  ]
}
