{
  "id": "o-sapo-2",
  "title": "O Sapo 2",
  "artist": "MIDI Source",
  "difficulty": "Médio",
  "bpm": 120,
  "duration": 54,
  "category": "A revisar",
  "isPremium": true,
  "coverUrl": "/images/covers/placeholder.png",
  "notes": [
    {
      "midi": 69,
      "time": 1.75,
      "duration": 0.25,
      "velocity": 0.63,
      "hand": "right"
    },
    {
      "midi": 74,
      "time": 2,
      "duration": 0.125,
      "velocity": 0.63,
      "hand": "right"
    },
    {
      "midi": 74,
      "time": 2.125,
      "duration": 0.25,
      "velocity": 0.63,
      "hand": "right"
    },
    {
      "midi": 54,
      "time": 2.25,
      "duration": 0.125,
      "velocity": 0.63,
      "hand": "left"
    },
    {
      "midi": 57,
      "time": 2.25,
      "duration": 0.125,
      "velocity": 0.63,
      "hand": "left"
    },
    {
      "midi": 62,
      "time": 2.25,
      "duration": 0.125,
      "velocity": 0.63,
      "hand": "right"
    },
    {
      "midi": 54,
      "time": 2.375,
      "duration": 0.125,
      "velocity": 0.63,
      "hand": "left"
    },
    {
      "midi": 57,
      "time": 2.375,
      "duration": 0.125,
      "velocity": 0.63,
      "hand": "left"
    },
    {
      "midi": 62,
      "time": 2.375,
      "duration": 0.125,
      "velocity": 0.63,
      "hand": "right"
    },
    {
      "midi": 69,
      "time": 2.375,
      "duration": 0.125,
      "velocity": 0.63,
      "hand": "right"
    },
    {
      "midi": 71,
      "time": 2.5,
      "duration": 0.25,
      "velocity": 0.63,
      "hand": "right"
    },
    {
      "midi": 54,
      "time": 2.75,
      "duration": 0.125,
      "velocity": 0.63,
      "hand": "left"
    },
    {
      "midi": 57,
      "time": 2.75,
      "duration": 0.125,
      "velocity": 0.63,
      "hand": "left"
    },
    {
      "midi": 62,
      "time": 2.75,
      "duration": 0.125,
      "velocity": 0.63,
      "hand": "right"
    },
    {
      "midi": 69,
      "time": 2.75,
      "duration": 0.25,
      "velocity": 0.63,
      "hand": "right"
    },
    {
      "midi": 54,
      "time": 2.875,
      "duration": 0.125,
      "velocity": 0.63,
      "hand": "left"
    },
    {
      "midi": 57,
      "time": 2.875,
      "duration": 0.125,
      "velocity": 0.63,
      "hand": "left"
    },
    {
      "midi": 62,
      "time": 2.875,
      "duration": 0.125,
      "velocity": 0.63,
      "hand": "right"
    },
    {
      "midi": 66,
      "time": 3,
      "duration": 0.5,
      "velocity": 0.63,
      "hand": "right"
    },
    {
      "midi": 54,
      "time": 3.25,
      "duration": 0.125,
      "velocity": 0.63,
      "hand": "left"
    },
    {
      "midi": 57,
      "time": 3.25,
      "duration": 0.125,
      "velocity": 0.63,
      "hand": "left"
    },
    {
      "midi": 62,
      "time": 3.25,
      "duration": 0.125,
      "velocity": 0.63,
      "hand": "right"
    },
    {
      "midi": 54,
      "time": 3.375,
      "duration": 0.125,
      "velocity": 0.63,
      "hand": "left"
    },
    {
      "midi": 57,
      "time": 3.375,
      "duration": 0.125,
      "velocity": 0.63,
      "hand": "left"
    },
    {
      "midi": 62,
      "time": 3.375,
      "duration": 0.125,
      "velocity": 0.63,
      "hand": "right"
    },
    {
      "midi": 54,
      "time": 3.75,
      "duration": 0.125,
      "velocity": 0.63,
      "hand": "left"
    },
    {
      "midi": 57,
      "time": 3.75,
      "duration": 0.125,
      "velocity": 0.63,
      "hand": "left"
    },
    {
      "midi": 62,
      "time": 3.75,
      "duration": 0.125,
      "velocity": 0.63,
      "hand": "right"
    },
    {
      "midi": 69,
      "time": 3.75,
      "duration": 0.25,
      "velocity": 0.63,
      "hand": "right"
    },
    {
      "midi": 54,
      "time": 3.875,
      "duration": 0.125,
      "velocity": 0.63,
      "hand": "left"
    },
    {
      "midi": 57,
      "time": 3.875,
      "duration": 0.125,
      "velocity": 0.63,
      "hand": "left"
    },
    {
      "midi": 62,
      "time": 3.875,
      "duration": 0.125,
      "velocity": 0.63,
      "hand": "right"
    },
    {
      "midi": 74,
      "time": 4,
      "duration": 0.125,
      "velocity": 0.63,
      "hand": "right"
    },
    {
      "midi": 74,
      "time": 4.125,
      "duration": 0.25,
      "velocity": 0.63,
      "hand": "right"
    },
    {
      "midi": 54,
      "time": 4.25,
      "duration": 0.125,
      "velocity": 0.63,
      "hand": "left"
    },
    {
      "midi": 57,
      "time": 4.25,
      "duration": 0.125,
      "velocity": 0.63,
      "hand": "left"
    },
    {
      "midi": 62,
      "time": 4.25,
      "duration": 0.125,
      "velocity": 0.63,
      "hand": "right"
    },
    {
      "midi": 54,
      "time": 4.375,
      "duration": 0.125,
      "velocity": 0.63,
      "hand": "left"
    },
    {
      "midi": 57,
      "time": 4.375,
      "duration": 0.125,
      "velocity": 0.63,
      "hand": "left"
    },
    {
      "midi": 62,
      "time": 4.375,
      "duration": 0.125,
      "velocity": 0.63,
      "hand": "right"
    },
    {
      "midi": 69,
      "time": 4.375,
      "duration": 0.125,
      "velocity": 0.63,
      "hand": "right"
    },
    {
      "midi": 71,
      "time": 4.5,
      "duration": 0.25,
      "velocity": 0.63,
      "hand": "right"
    },
    {
      "midi": 54,
      "time": 4.75,
      "duration": 0.125,
      "velocity": 0.63,
      "hand": "left"
    },
    {
      "midi": 57,
      "time": 4.75,
      "duration": 0.125,
      "velocity": 0.63,
      "hand": "left"
    },
    {
      "midi": 62,
      "time": 4.75,
      "duration": 0.125,
      "velocity": 0.63,
      "hand": "right"
    },
    {
      "midi": 69,
      "time": 4.75,
      "duration": 0.25,
      "velocity": 0.63,
      "hand": "right"
    },
    {
      "midi": 54,
      "time": 4.875,
      "duration": 0.125,
      "velocity": 0.63,
      "hand": "left"
    },
    {
      "midi": 57,
      "time": 4.875,
      "duration": 0.125,
      "velocity": 0.63,
      "hand": "left"
    },
    {
      "midi": 62,
      "time": 4.875,
      "duration": 0.125,
      "velocity": 0.63,
      "hand": "right"
    },
    {
      "midi": 73,
      "time": 5,
      "duration": 0.5,
      "velocity": 0.63,
      "hand": "right"
    },
    {
      "midi": 52,
      "time": 5.25,
      "duration": 0.125,
      "velocity": 0.63,
      "hand": "left"
    },
    {
      "midi": 57,
      "time": 5.25,
      "duration": 0.125,
      "velocity": 0.63,
      "hand": "left"
    },
    {
      "midi": 61,
      "time": 5.25,
      "duration": 0.125,
      "velocity": 0.63,
      "hand": "right"
    },
    {
      "midi": 52,
      "time": 5.375,
      "duration": 0.125,
      "velocity": 0.63,
      "hand": "left"
    },
    {
      "midi": 57,
      "time": 5.375,
      "duration": 0.125,
      "velocity": 0.63,
      "hand": "left"
    },
    {
      "midi": 61,
      "time": 5.375,
      "duration": 0.125,
      "velocity": 0.63,
      "hand": "right"
    },
    {
      "midi": 52,
      "time": 5.75,
      "duration": 0.125,
      "velocity": 0.63,
      "hand": "left"
    },
    {
      "midi": 57,
      "time": 5.75,
      "duration": 0.125,
      "velocity": 0.63,
      "hand": "left"
    },
    {
      "midi": 61,
      "time": 5.75,
      "duration": 0.125,
      "velocity": 0.63,
      "hand": "right"
    },
    {
      "midi": 69,
      "time": 5.75,
      "duration": 0.125,
      "velocity": 0.63,
      "hand": "right"
    },
    {
      "midi": 52,
      "time": 5.875,
      "duration": 0.125,
      "velocity": 0.63,
      "hand": "left"
    },
    {
      "midi": 57,
      "time": 5.875,
      "duration": 0.125,
      "velocity": 0.63,
      "hand": "left"
    },
    {
      "midi": 61,
      "time": 5.875,
      "duration": 0.125,
      "velocity": 0.63,
      "hand": "right"
    },
    {
      "midi": 69,
      "time": 5.875,
      "duration": 0.125,
      "velocity": 0.63,
      "hand": "right"
    },
    {
      "midi": 73,
      "time": 6,
      "duration": 0.125,
      "velocity": 0.63,
      "hand": "right"
    },
    {
      "midi": 73,
      "time": 6.125,
      "duration": 0.25,
      "velocity": 0.63,
      "hand": "right"
    },
    {
      "midi": 52,
      "time": 6.25,
      "duration": 0.125,
      "velocity": 0.63,
      "hand": "left"
    },
    {
      "midi": 57,
      "time": 6.25,
      "duration": 0.125,
      "velocity": 0.63,
      "hand": "left"
    },
    {
      "midi": 61,
      "time": 6.25,
      "duration": 0.125,
      "velocity": 0.63,
      "hand": "right"
    },
    {
      "midi": 52,
      "time": 6.375,
      "duration": 0.125,
      "velocity": 0.63,
      "hand": "left"
    },
    {
      "midi": 57,
      "time": 6.375,
      "duration": 0.125,
      "velocity": 0.63,
      "hand": "left"
    },
    {
      "midi": 61,
      "time": 6.375,
      "duration": 0.125,
      "velocity": 0.63,
      "hand": "right"
    },
    {
      "midi": 69,
      "time": 6.375,
      "duration": 0.125,
      "velocity": 0.63,
      "hand": "right"
    },
    {
      "midi": 71,
      "time": 6.5,
      "duration": 0.25,
      "velocity": 0.63,
      "hand": "right"
    },
    {
      "midi": 52,
      "time": 6.75,
      "duration": 0.125,
      "velocity": 0.63,
      "hand": "left"
    },
    {
      "midi": 57,
      "time": 6.75,
      "duration": 0.125,
      "velocity": 0.63,
      "hand": "left"
    },
    {
      "midi": 61,
      "time": 6.75,
      "duration": 0.125,
      "velocity": 0.63,
      "hand": "right"
    },
    {
      "midi": 69,
      "time": 6.75,
      "duration": 0.25,
      "velocity": 0.63,
      "hand": "right"
    },
    {
      "midi": 52,
      "time": 6.875,
      "duration": 0.125,
      "velocity": 0.63,
      "hand": "left"
    },
    {
      "midi": 57,
      "time": 6.875,
      "duration": 0.125,
      "velocity": 0.63,
      "hand": "left"
    },
    {
      "midi": 61,
      "time": 6.875,
      "duration": 0.125,
      "velocity": 0.63,
      "hand": "right"
    },
    {
      "midi": 73,
      "time": 7,
      "duration": 0.125,
      "velocity": 0.63,
      "hand": "right"
    },
    {
      "midi": 73,
      "time": 7.125,
      "duration": 0.25,
      "velocity": 0.63,
      "hand": "right"
    },
    {
      "midi": 52,
      "time": 7.25,
      "duration": 0.125,
      "velocity": 0.63,
      "hand": "left"
    },
    {
      "midi": 57,
      "time": 7.25,
      "duration": 0.125,
      "velocity": 0.63,
      "hand": "left"
    },
    {
      "midi": 61,
      "time": 7.25,
      "duration": 0.125,
      "velocity": 0.63,
      "hand": "right"
    },
    {
      "midi": 52,
      "time": 7.375,
      "duration": 0.125,
      "velocity": 0.63,
      "hand": "left"
    },
    {
      "midi": 57,
      "time": 7.375,
      "duration": 0.125,
      "velocity": 0.63,
      "hand": "left"
    },
    {
      "midi": 61,
      "time": 7.375,
      "duration": 0.125,
      "velocity": 0.63,
      "hand": "right"
    },
    {
      "midi": 69,
      "time": 7.375,
      "duration": 0.125,
      "velocity": 0.63,
      "hand": "right"
    },
    {
      "midi": 71,
      "time": 7.5,
      "duration": 0.25,
      "velocity": 0.63,
      "hand": "right"
    },
    {
      "midi": 52,
      "time": 7.75,
      "duration": 0.125,
      "velocity": 0.63,
      "hand": "left"
    },
    {
      "midi": 57,
      "time": 7.75,
      "duration": 0.125,
      "velocity": 0.63,
      "hand": "left"
    },
    {
      "midi": 61,
      "time": 7.75,
      "duration": 0.125,
      "velocity": 0.63,
      "hand": "right"
    },
    {
      "midi": 69,
      "time": 7.75,
      "duration": 0.25,
      "velocity": 0.63,
      "hand": "right"
    },
    {
      "midi": 52,
      "time": 7.875,
      "duration": 0.125,
      "velocity": 0.63,
      "hand": "left"
    },
    {
      "midi": 57,
      "time": 7.875,
      "duration": 0.125,
      "velocity": 0.63,
      "hand": "left"
    },
    {
      "midi": 61,
      "time": 7.875,
      "duration": 0.125,
      "velocity": 0.63,
      "hand": "right"
    },
    {
      "midi": 73,
      "time": 8,
      "duration": 0.25,
      "velocity": 0.63,
      "hand": "right"
    },
    {
      "midi": 52,
      "time": 8.25,
      "duration": 0.125,
      "velocity": 0.63,
      "hand": "left"
    },
    {
      "midi": 57,
      "time": 8.25,
      "duration": 0.125,
      "velocity": 0.63,
      "hand": "left"
    },
    {
      "midi": 61,
      "time": 8.25,
      "duration": 0.125,
      "velocity": 0.63,
      "hand": "right"
    },
    {
      "midi": 69,
      "time": 8.25,
      "duration": 0.25,
      "velocity": 0.63,
      "hand": "right"
    },
    {
      "midi": 52,
      "time": 8.375,
      "duration": 0.125,
      "velocity": 0.63,
      "hand": "left"
    },
    {
      "midi": 57,
      "time": 8.375,
      "duration": 0.125,
      "velocity": 0.63,
      "hand": "left"
    },
    {
      "midi": 61,
      "time": 8.375,
      "duration": 0.125,
      "velocity": 0.63,
      "hand": "right"
    },
    {
      "midi": 71,
      "time": 8.5,
      "duration": 0.25,
      "velocity": 0.63,
      "hand": "right"
    },
    {
      "midi": 52,
      "time": 8.75,
      "duration": 0.125,
      "velocity": 0.63,
      "hand": "left"
    },
    {
      "midi": 57,
      "time": 8.75,
      "duration": 0.125,
      "velocity": 0.63,
      "hand": "left"
    },
    {
      "midi": 61,
      "time": 8.75,
      "duration": 0.125,
      "velocity": 0.63,
      "hand": "right"
    },
    {
      "midi": 73,
      "time": 8.75,
      "duration": 0.25,
      "velocity": 0.63,
      "hand": "right"
    },
    {
      "midi": 52,
      "time": 8.875,
      "duration": 0.125,
      "velocity": 0.63,
      "hand": "left"
    },
    {
      "midi": 57,
      "time": 8.875,
      "duration": 0.125,
      "velocity": 0.63,
      "hand": "left"
    },
    {
      "midi": 61,
      "time": 8.875,
      "duration": 0.125,
      "velocity": 0.63,
      "hand": "right"
    },
    {
      "midi": 54,
      "time": 9,
      "duration": 0.25,
      "velocity": 0.63,
      "hand": "left"
    },
    {
      "midi": 57,
      "time": 9,
      "duration": 0.25,
      "velocity": 0.63,
      "hand": "left"
    },
    {
      "midi": 62,
      "time": 9,
      "duration": 0.25,
      "velocity": 0.63,
      "hand": "right"
    },
    {
      "midi": 74,
      "time": 9,
      "duration": 0.25,
      "velocity": 0.63,
      "hand": "right"
    },
    {
      "midi": 69,
      "time": 9.75,
      "duration": 0.25,
      "velocity": 0.63,
      "hand": "right"
    },
    {
      "midi": 74,
      "time": 10,
      "duration": 0.125,
      "velocity": 0.63,
      "hand": "right"
    },
    {
      "midi": 74,
      "time": 10.125,
      "duration": 0.25,
      "velocity": 0.63,
      "hand": "right"
    },
    {
      "midi": 54,
      "time": 10.25,
      "duration": 0.125,
      "velocity": 0.63,
      "hand": "left"
    },
    {
      "midi": 57,
      "time": 10.25,
      "duration": 0.125,
      "velocity": 0.63,
      "hand": "left"
    },
    {
      "midi": 62,
      "time": 10.25,
      "duration": 0.125,
      "velocity": 0.63,
      "hand": "right"
    },
    {
      "midi": 54,
      "time": 10.375,
      "duration": 0.125,
      "velocity": 0.63,
      "hand": "left"
    },
    {
      "midi": 57,
      "time": 10.375,
      "duration": 0.125,
      "velocity": 0.63,
      "hand": "left"
    },
    {
      "midi": 62,
      "time": 10.375,
      "duration": 0.125,
      "velocity": 0.63,
      "hand": "right"
    },
    {
      "midi": 69,
      "time": 10.375,
      "duration": 0.125,
      "velocity": 0.63,
      "hand": "right"
    },
    {
      "midi": 71,
      "time": 10.5,
      "duration": 0.25,
      "velocity": 0.63,
      "hand": "right"
    },
    {
      "midi": 54,
      "time": 10.75,
      "duration": 0.125,
      "velocity": 0.63,
      "hand": "left"
    },
    {
      "midi": 57,
      "time": 10.75,
      "duration": 0.125,
      "velocity": 0.63,
      "hand": "left"
    },
    {
      "midi": 62,
      "time": 10.75,
      "duration": 0.125,
      "velocity": 0.63,
      "hand": "right"
    },
    {
      "midi": 69,
      "time": 10.75,
      "duration": 0.25,
      "velocity": 0.63,
      "hand": "right"
    },
    {
      "midi": 54,
      "time": 10.875,
      "duration": 0.125,
      "velocity": 0.63,
      "hand": "left"
    },
    {
      "midi": 57,
      "time": 10.875,
      "duration": 0.125,
      "velocity": 0.63,
      "hand": "left"
    },
    {
      "midi": 62,
      "time": 10.875,
      "duration": 0.125,
      "velocity": 0.63,
      "hand": "right"
    },
    {
      "midi": 66,
      "time": 11,
      "duration": 0.5,
      "velocity": 0.63,
      "hand": "right"
    },
    {
      "midi": 54,
      "time": 11.25,
      "duration": 0.125,
      "velocity": 0.63,
      "hand": "left"
    },
    {
      "midi": 57,
      "time": 11.25,
      "duration": 0.125,
      "velocity": 0.63,
      "hand": "left"
    },
    {
      "midi": 62,
      "time": 11.25,
      "duration": 0.125,
      "velocity": 0.63,
      "hand": "right"
    },
    {
      "midi": 54,
      "time": 11.375,
      "duration": 0.125,
      "velocity": 0.63,
      "hand": "left"
    },
    {
      "midi": 57,
      "time": 11.375,
      "duration": 0.125,
      "velocity": 0.63,
      "hand": "left"
    },
    {
      "midi": 62,
      "time": 11.375,
      "duration": 0.125,
      "velocity": 0.63,
      "hand": "right"
    },
    {
      "midi": 54,
      "time": 11.75,
      "duration": 0.125,
      "velocity": 0.63,
      "hand": "left"
    },
    {
      "midi": 57,
      "time": 11.75,
      "duration": 0.125,
      "velocity": 0.63,
      "hand": "left"
    },
    {
      "midi": 62,
      "time": 11.75,
      "duration": 0.125,
      "velocity": 0.63,
      "hand": "right"
    },
    {
      "midi": 69,
      "time": 11.75,
      "duration": 0.25,
      "velocity": 0.63,
      "hand": "right"
    },
    {
      "midi": 54,
      "time": 11.875,
      "duration": 0.125,
      "velocity": 0.63,
      "hand": "left"
    },
    {
      "midi": 57,
      "time": 11.875,
      "duration": 0.125,
      "velocity": 0.63,
      "hand": "left"
    },
    {
      "midi": 62,
      "time": 11.875,
      "duration": 0.125,
      "velocity": 0.63,
      "hand": "right"
    },
    {
      "midi": 74,
      "time": 12,
      "duration": 0.125,
      "velocity": 0.63,
      "hand": "right"
    },
    {
      "midi": 74,
      "time": 12.125,
      "duration": 0.25,
      "velocity": 0.63,
      "hand": "right"
    },
    {
      "midi": 54,
      "time": 12.25,
      "duration": 0.125,
      "velocity": 0.63,
      "hand": "left"
    },
    {
      "midi": 57,
      "time": 12.25,
      "duration": 0.125,
      "velocity": 0.63,
      "hand": "left"
    },
    {
      "midi": 62,
      "time": 12.25,
      "duration": 0.125,
      "velocity": 0.63,
      "hand": "right"
    },
    {
      "midi": 54,
      "time": 12.375,
      "duration": 0.125,
      "velocity": 0.63,
      "hand": "left"
    },
    {
      "midi": 57,
      "time": 12.375,
      "duration": 0.125,
      "velocity": 0.63,
      "hand": "left"
    },
    {
      "midi": 62,
      "time": 12.375,
      "duration": 0.125,
      "velocity": 0.63,
      "hand": "right"
    },
    {
      "midi": 69,
      "time": 12.375,
      "duration": 0.125,
      "velocity": 0.63,
      "hand": "right"
    },
    {
      "midi": 71,
      "time": 12.5,
      "duration": 0.25,
      "velocity": 0.63,
      "hand": "right"
    },
    {
      "midi": 54,
      "time": 12.75,
      "duration": 0.125,
      "velocity": 0.63,
      "hand": "left"
    },
    {
      "midi": 57,
      "time": 12.75,
      "duration": 0.125,
      "velocity": 0.63,
      "hand": "left"
    },
    {
      "midi": 62,
      "time": 12.75,
      "duration": 0.125,
      "velocity": 0.63,
      "hand": "right"
    },
    {
      "midi": 69,
      "time": 12.75,
      "duration": 0.25,
      "velocity": 0.63,
      "hand": "right"
    },
    {
      "midi": 54,
      "time": 12.875,
      "duration": 0.125,
      "velocity": 0.63,
      "hand": "left"
    },
    {
      "midi": 57,
      "time": 12.875,
      "duration": 0.125,
      "velocity": 0.63,
      "hand": "left"
    },
    {
      "midi": 62,
      "time": 12.875,
      "duration": 0.125,
      "velocity": 0.63,
      "hand": "right"
    },
    {
      "midi": 73,
      "time": 13,
      "duration": 0.5,
      "velocity": 0.63,
      "hand": "right"
    },
    {
      "midi": 52,
      "time": 13.25,
      "duration": 0.125,
      "velocity": 0.63,
      "hand": "left"
    },
    {
      "midi": 57,
      "time": 13.25,
      "duration": 0.125,
      "velocity": 0.63,
      "hand": "left"
    },
    {
      "midi": 61,
      "time": 13.25,
      "duration": 0.125,
      "velocity": 0.63,
      "hand": "right"
    },
    {
      "midi": 52,
      "time": 13.375,
      "duration": 0.125,
      "velocity": 0.63,
      "hand": "left"
    },
    {
      "midi": 57,
      "time": 13.375,
      "duration": 0.125,
      "velocity": 0.63,
      "hand": "left"
    },
    {
      "midi": 61,
      "time": 13.375,
      "duration": 0.125,
      "velocity": 0.63,
      "hand": "right"
    },
    {
      "midi": 52,
      "time": 13.75,
      "duration": 0.125,
      "velocity": 0.63,
      "hand": "left"
    },
    {
      "midi": 57,
      "time": 13.75,
      "duration": 0.125,
      "velocity": 0.63,
      "hand": "left"
    },
    {
      "midi": 61,
      "time": 13.75,
      "duration": 0.125,
      "velocity": 0.63,
      "hand": "right"
    },
    {
      "midi": 69,
      "time": 13.75,
      "duration": 0.125,
      "velocity": 0.63,
      "hand": "right"
    },
    {
      "midi": 52,
      "time": 13.875,
      "duration": 0.125,
      "velocity": 0.63,
      "hand": "left"
    },
    {
      "midi": 57,
      "time": 13.875,
      "duration": 0.125,
      "velocity": 0.63,
      "hand": "left"
    },
    {
      "midi": 61,
      "time": 13.875,
      "duration": 0.125,
      "velocity": 0.63,
      "hand": "right"
    },
    {
      "midi": 69,
      "time": 13.875,
      "duration": 0.125,
      "velocity": 0.63,
      "hand": "right"
    },
    {
      "midi": 73,
      "time": 14,
      "duration": 0.125,
      "velocity": 0.63,
      "hand": "right"
    },
    {
      "midi": 73,
      "time": 14.125,
      "duration": 0.25,
      "velocity": 0.63,
      "hand": "right"
    },
    {
      "midi": 52,
      "time": 14.25,
      "duration": 0.125,
      "velocity": 0.63,
      "hand": "left"
    },
    {
      "midi": 57,
      "time": 14.25,
      "duration": 0.125,
      "velocity": 0.63,
      "hand": "left"
    },
    {
      "midi": 61,
      "time": 14.25,
      "duration": 0.125,
      "velocity": 0.63,
      "hand": "right"
    },
    {
      "midi": 52,
      "time": 14.375,
      "duration": 0.125,
      "velocity": 0.63,
      "hand": "left"
    },
    {
      "midi": 57,
      "time": 14.375,
      "duration": 0.125,
      "velocity": 0.63,
      "hand": "left"
    },
    {
      "midi": 61,
      "time": 14.375,
      "duration": 0.125,
      "velocity": 0.63,
      "hand": "right"
    },
    {
      "midi": 69,
      "time": 14.375,
      "duration": 0.125,
      "velocity": 0.63,
      "hand": "right"
    },
    {
      "midi": 71,
      "time": 14.5,
      "duration": 0.25,
      "velocity": 0.63,
      "hand": "right"
    },
    {
      "midi": 52,
      "time": 14.75,
      "duration": 0.125,
      "velocity": 0.63,
      "hand": "left"
    },
    {
      "midi": 57,
      "time": 14.75,
      "duration": 0.125,
      "velocity": 0.63,
      "hand": "left"
    },
    {
      "midi": 61,
      "time": 14.75,
      "duration": 0.125,
      "velocity": 0.63,
      "hand": "right"
    },
    {
      "midi": 69,
      "time": 14.75,
      "duration": 0.25,
      "velocity": 0.63,
      "hand": "right"
    },
    {
      "midi": 52,
      "time": 14.875,
      "duration": 0.125,
      "velocity": 0.63,
      "hand": "left"
    },
    {
      "midi": 57,
      "time": 14.875,
      "duration": 0.125,
      "velocity": 0.63,
      "hand": "left"
    },
    {
      "midi": 61,
      "time": 14.875,
      "duration": 0.125,
      "velocity": 0.63,
      "hand": "right"
    },
    {
      "midi": 73,
      "time": 15,
      "duration": 0.125,
      "velocity": 0.63,
      "hand": "right"
    },
    {
      "midi": 73,
      "time": 15.125,
      "duration": 0.25,
      "velocity": 0.63,
      "hand": "right"
    },
    {
      "midi": 52,
      "time": 15.25,
      "duration": 0.125,
      "velocity": 0.63,
      "hand": "left"
    },
    {
      "midi": 57,
      "time": 15.25,
      "duration": 0.125,
      "velocity": 0.63,
      "hand": "left"
    },
    {
      "midi": 61,
      "time": 15.25,
      "duration": 0.125,
      "velocity": 0.63,
      "hand": "right"
    },
    {
      "midi": 52,
      "time": 15.375,
      "duration": 0.125,
      "velocity": 0.63,
      "hand": "left"
    },
    {
      "midi": 57,
      "time": 15.375,
      "duration": 0.125,
      "velocity": 0.63,
      "hand": "left"
    },
    {
      "midi": 61,
      "time": 15.375,
      "duration": 0.125,
      "velocity": 0.63,
      "hand": "right"
    },
    {
      "midi": 69,
      "time": 15.375,
      "duration": 0.125,
      "velocity": 0.63,
      "hand": "right"
    },
    {
      "midi": 71,
      "time": 15.5,
      "duration": 0.25,
      "velocity": 0.63,
      "hand": "right"
    },
    {
      "midi": 52,
      "time": 15.75,
      "duration": 0.125,
      "velocity": 0.63,
      "hand": "left"
    },
    {
      "midi": 57,
      "time": 15.75,
      "duration": 0.125,
      "velocity": 0.63,
      "hand": "left"
    },
    {
      "midi": 61,
      "time": 15.75,
      "duration": 0.125,
      "velocity": 0.63,
      "hand": "right"
    },
    {
      "midi": 69,
      "time": 15.75,
      "duration": 0.25,
      "velocity": 0.63,
      "hand": "right"
    },
    {
      "midi": 52,
      "time": 15.875,
      "duration": 0.125,
      "velocity": 0.63,
      "hand": "left"
    },
    {
      "midi": 57,
      "time": 15.875,
      "duration": 0.125,
      "velocity": 0.63,
      "hand": "left"
    },
    {
      "midi": 61,
      "time": 15.875,
      "duration": 0.125,
      "velocity": 0.63,
      "hand": "right"
    },
    {
      "midi": 73,
      "time": 16,
      "duration": 0.25,
      "velocity": 0.63,
      "hand": "right"
    },
    {
      "midi": 52,
      "time": 16.25,
      "duration": 0.125,
      "velocity": 0.63,
      "hand": "left"
    },
    {
      "midi": 57,
      "time": 16.25,
      "duration": 0.125,
      "velocity": 0.63,
      "hand": "left"
    },
    {
      "midi": 61,
      "time": 16.25,
      "duration": 0.125,
      "velocity": 0.63,
      "hand": "right"
    },
    {
      "midi": 69,
      "time": 16.25,
      "duration": 0.25,
      "velocity": 0.63,
      "hand": "right"
    },
    {
      "midi": 52,
      "time": 16.375,
      "duration": 0.125,
      "velocity": 0.63,
      "hand": "left"
    },
    {
      "midi": 57,
      "time": 16.375,
      "duration": 0.125,
      "velocity": 0.63,
      "hand": "left"
    },
    {
      "midi": 61,
      "time": 16.375,
      "duration": 0.125,
      "velocity": 0.63,
      "hand": "right"
    },
    {
      "midi": 71,
      "time": 16.5,
      "duration": 0.25,
      "velocity": 0.63,
      "hand": "right"
    },
    {
      "midi": 52,
      "time": 16.75,
      "duration": 0.125,
      "velocity": 0.63,
      "hand": "left"
    },
    {
      "midi": 57,
      "time": 16.75,
      "duration": 0.125,
      "velocity": 0.63,
      "hand": "left"
    },
    {
      "midi": 61,
      "time": 16.75,
      "duration": 0.125,
      "velocity": 0.63,
      "hand": "right"
    },
    {
      "midi": 73,
      "time": 16.75,
      "duration": 0.25,
      "velocity": 0.63,
      "hand": "right"
    },
    {
      "midi": 52,
      "time": 16.875,
      "duration": 0.125,
      "velocity": 0.63,
      "hand": "left"
    },
    {
      "midi": 57,
      "time": 16.875,
      "duration": 0.125,
      "velocity": 0.63,
      "hand": "left"
    },
    {
      "midi": 61,
      "time": 16.875,
      "duration": 0.125,
      "velocity": 0.63,
      "hand": "right"
    },
    {
      "midi": 54,
      "time": 17,
      "duration": 0.25,
      "velocity": 0.63,
      "hand": "left"
    },
    {
      "midi": 57,
      "time": 17,
      "duration": 0.25,
      "velocity": 0.63,
      "hand": "left"
    },
    {
      "midi": 62,
      "time": 17,
      "duration": 0.25,
      "velocity": 0.63,
      "hand": "right"
    },
    {
      "midi": 74,
      "time": 17,
      "duration": 0.25,
      "velocity": 0.63,
      "hand": "right"
    },
    {
      "midi": 57,
      "time": 17.25,
      "duration": 0.25,
      "velocity": 0.63,
      "hand": "left"
    },
    {
      "midi": 59,
      "time": 17.5,
      "duration": 0.25,
      "velocity": 0.63,
      "hand": "left"
    },
    {
      "midi": 57,
      "time": 17.75,
      "duration": 0.25,
      "velocity": 0.63,
      "hand": "left"
    },
    {
      "midi": 52,
      "time": 18,
      "duration": 0.375,
      "velocity": 0.63,
      "hand": "left"
    },
    {
      "midi": 57,
      "time": 18,
      "duration": 0.5,
      "velocity": 0.63,
      "hand": "left"
    },
    {
      "midi": 64,
      "time": 18,
      "duration": 0.5,
      "velocity": 0.63,
      "hand": "right"
    },
    {
      "midi": 69,
      "time": 18.25,
      "duration": 0.125,
      "velocity": 0.63,
      "hand": "right"
    },
    {
      "midi": 52,
      "time": 18.375,
      "duration": 0.375,
      "velocity": 0.63,
      "hand": "left"
    },
    {
      "midi": 69,
      "time": 18.375,
      "duration": 0.125,
      "velocity": 0.63,
      "hand": "right"
    },
    {
      "midi": 61,
      "time": 18.5,
      "duration": 0.5,
      "velocity": 0.63,
      "hand": "right"
    },
    {
      "midi": 69,
      "time": 18.5,
      "duration": 0.5,
      "velocity": 0.63,
      "hand": "right"
    },
    {
      "midi": 45,
      "time": 18.75,
      "duration": 0.25,
      "velocity": 0.63,
      "hand": "left"
    },
    {
      "midi": 69,
      "time": 18.75,
      "duration": 0.125,
      "velocity": 0.63,
      "hand": "right"
    },
    {
      "midi": 69,
      "time": 18.875,
      "duration": 0.125,
      "velocity": 0.63,
      "hand": "right"
    },
    {
      "midi": 52,
      "time": 19,
      "duration": 0.375,
      "velocity": 0.63,
      "hand": "left"
    },
    {
      "midi": 64,
      "time": 19,
      "duration": 0.5,
      "velocity": 0.63,
      "hand": "right"
    },
    {
      "midi": 57,
      "time": 19.125,
      "duration": 0.25,
      "velocity": 0.63,
      "hand": "left"
    },
    {
      "midi": 73,
      "time": 19.25,
      "duration": 0.125,
      "velocity": 0.63,
      "hand": "right"
    },
    {
      "midi": 52,
      "time": 19.375,
      "duration": 0.375,
      "velocity": 0.63,
      "hand": "left"
    },
    {
      "midi": 57,
      "time": 19.375,
      "duration": 0.125,
      "velocity": 0.63,
      "hand": "left"
    },
    {
      "midi": 73,
      "time": 19.375,
      "duration": 0.125,
      "velocity": 0.63,
      "hand": "right"
    },
    {
      "midi": 59,
      "time": 19.5,
      "duration": 0.25,
      "velocity": 0.63,
      "hand": "left"
    },
    {
      "midi": 69,
      "time": 19.5,
      "duration": 0.5,
      "velocity": 0.63,
      "hand": "right"
    },
    {
      "midi": 45,
      "time": 19.75,
      "duration": 0.25,
      "velocity": 0.63,
      "hand": "left"
    },
    {
      "midi": 57,
      "time": 19.75,
      "duration": 0.25,
      "velocity": 0.63,
      "hand": "left"
    },
    {
      "midi": 73,
      "time": 19.75,
      "duration": 0.125,
      "velocity": 0.63,
      "hand": "right"
    },
    {
      "midi": 73,
      "time": 19.875,
      "duration": 0.125,
      "velocity": 0.63,
      "hand": "right"
    },
    {
      "midi": 54,
      "time": 20,
      "duration": 0.375,
      "velocity": 0.63,
      "hand": "left"
    },
    {
      "midi": 57,
      "time": 20,
      "duration": 0.5,
      "velocity": 0.63,
      "hand": "left"
    },
    {
      "midi": 66,
      "time": 20,
      "duration": 0.5,
      "velocity": 0.63,
      "hand": "right"
    },
    {
      "midi": 74,
      "time": 20.25,
      "duration": 0.125,
      "velocity": 0.63,
      "hand": "right"
    },
    {
      "midi": 54,
      "time": 20.375,
      "duration": 0.375,
      "velocity": 0.63,
      "hand": "left"
    },
    {
      "midi": 74,
      "time": 20.375,
      "duration": 0.125,
      "velocity": 0.63,
      "hand": "right"
    },
    {
      "midi": 62,
      "time": 20.5,
      "duration": 0.5,
      "velocity": 0.63,
      "hand": "right"
    },
    {
      "midi": 69,
      "time": 20.5,
      "duration": 0.5,
      "velocity": 0.63,
      "hand": "right"
    },
    {
      "midi": 50,
      "time": 20.75,
      "duration": 0.25,
      "velocity": 0.63,
      "hand": "left"
    },
    {
      "midi": 74,
      "time": 20.75,
      "duration": 0.125,
      "velocity": 0.63,
      "hand": "right"
    },
    {
      "midi": 74,
      "time": 20.875,
      "duration": 0.125,
      "velocity": 0.63,
      "hand": "right"
    },
    {
      "midi": 54,
      "time": 21,
      "duration": 0.375,
      "velocity": 0.63,
      "hand": "left"
    },
    {
      "midi": 66,
      "time": 21,
      "duration": 0.5,
      "velocity": 0.63,
      "hand": "right"
    },
    {
      "midi": 57,
      "time": 21.125,
      "duration": 0.25,
      "velocity": 0.63,
      "hand": "left"
    },
    {
      "midi": 74,
      "time": 21.25,
      "duration": 0.125,
      "velocity": 0.63,
      "hand": "right"
    },
    {
      "midi": 54,
      "time": 21.375,
      "duration": 0.375,
      "velocity": 0.63,
      "hand": "left"
    },
    {
      "midi": 57,
      "time": 21.375,
      "duration": 0.125,
      "velocity": 0.63,
      "hand": "left"
    },
    {
      "midi": 74,
      "time": 21.375,
      "duration": 0.125,
      "velocity": 0.63,
      "hand": "right"
    },
    {
      "midi": 59,
      "time": 21.5,
      "duration": 0.25,
      "velocity": 0.63,
      "hand": "left"
    },
    {
      "midi": 69,
      "time": 21.5,
      "duration": 0.5,
      "velocity": 0.63,
      "hand": "right"
    },
    {
      "midi": 50,
      "time": 21.75,
      "duration": 0.25,
      "velocity": 0.63,
      "hand": "left"
    },
    {
      "midi": 57,
      "time": 21.75,
      "duration": 0.25,
      "velocity": 0.63,
      "hand": "left"
    },
    {
      "midi": 74,
      "time": 21.75,
      "duration": 0.125,
      "velocity": 0.63,
      "hand": "right"
    },
    {
      "midi": 74,
      "time": 21.875,
      "duration": 0.125,
      "velocity": 0.63,
      "hand": "right"
    },
    {
      "midi": 52,
      "time": 22,
      "duration": 0.375,
      "velocity": 0.63,
      "hand": "left"
    },
    {
      "midi": 57,
      "time": 22,
      "duration": 0.5,
      "velocity": 0.63,
      "hand": "left"
    },
    {
      "midi": 64,
      "time": 22,
      "duration": 0.5,
      "velocity": 0.63,
      "hand": "right"
    },
    {
      "midi": 69,
      "time": 22.25,
      "duration": 0.125,
      "velocity": 0.63,
      "hand": "right"
    },
    {
      "midi": 52,
      "time": 22.375,
      "duration": 0.375,
      "velocity": 0.63,
      "hand": "left"
    },
    {
      "midi": 69,
      "time": 22.375,
      "duration": 0.125,
      "velocity": 0.63,
      "hand": "right"
    },
    {
      "midi": 61,
      "time": 22.5,
      "duration": 0.5,
      "velocity": 0.63,
      "hand": "right"
    },
    {
      "midi": 69,
      "time": 22.5,
      "duration": 0.5,
      "velocity": 0.63,
      "hand": "right"
    },
    {
      "midi": 45,
      "time": 22.75,
      "duration": 0.25,
      "velocity": 0.63,
      "hand": "left"
    },
    {
      "midi": 69,
      "time": 22.75,
      "duration": 0.125,
      "velocity": 0.63,
      "hand": "right"
    },
    {
      "midi": 69,
      "time": 22.875,
      "duration": 0.125,
      "velocity": 0.63,
      "hand": "right"
    },
    {
      "midi": 52,
      "time": 23,
      "duration": 0.375,
      "velocity": 0.63,
      "hand": "left"
    },
    {
      "midi": 64,
      "time": 23,
      "duration": 0.5,
      "velocity": 0.63,
      "hand": "right"
    },
    {
      "midi": 57,
      "time": 23.25,
      "duration": 0.25,
      "velocity": 0.63,
      "hand": "left"
    },
    {
      "midi": 69,
      "time": 23.25,
      "duration": 0.125,
      "velocity": 0.63,
      "hand": "right"
    },
    {
      "midi": 52,
      "time": 23.375,
      "duration": 0.375,
      "velocity": 0.63,
      "hand": "left"
    },
    {
      "midi": 69,
      "time": 23.375,
      "duration": 0.125,
      "velocity": 0.63,
      "hand": "right"
    },
    {
      "midi": 59,
      "time": 23.5,
      "duration": 0.25,
      "velocity": 0.63,
      "hand": "left"
    },
    {
      "midi": 69,
      "time": 23.5,
      "duration": 0.5,
      "velocity": 0.63,
      "hand": "right"
    },
    {
      "midi": 45,
      "time": 23.75,
      "duration": 0.25,
      "velocity": 0.63,
      "hand": "left"
    },
    {
      "midi": 61,
      "time": 23.75,
      "duration": 0.25,
      "velocity": 0.63,
      "hand": "right"
    },
    {
      "midi": 69,
      "time": 23.75,
      "duration": 0.125,
      "velocity": 0.63,
      "hand": "right"
    },
    {
      "midi": 69,
      "time": 23.875,
      "duration": 0.125,
      "velocity": 0.63,
      "hand": "right"
    },
    {
      "midi": 50,
      "time": 24,
      "duration": 0.125,
      "velocity": 0.63,
      "hand": "left"
    },
    {
      "midi": 62,
      "time": 24,
      "duration": 1,
      "velocity": 0.63,
      "hand": "right"
    },
    {
      "midi": 66,
      "time": 24,
      "duration": 1,
      "velocity": 0.63,
      "hand": "right"
    },
    {
      "midi": 69,
      "time": 24,
      "duration": 1,
      "velocity": 0.63,
      "hand": "right"
    },
    {
      "midi": 50,
      "time": 24.125,
      "duration": 0.25,
      "velocity": 0.63,
      "hand": "left"
    },
    {
      "midi": 50,
      "time": 24.375,
      "duration": 0.125,
      "velocity": 0.63,
      "hand": "left"
    },
    {
      "midi": 47,
      "time": 24.5,
      "duration": 0.25,
      "velocity": 0.63,
      "hand": "left"
    },
    {
      "midi": 45,
      "time": 24.75,
      "duration": 0.25,
      "velocity": 0.63,
      "hand": "left"
    },
    {
      "midi": 45,
      "time": 25,
      "duration": 0.25,
      "velocity": 0.63,
      "hand": "left"
    },
    {
      "midi": 57,
      "time": 25.25,
      "duration": 0.25,
      "velocity": 0.63,
      "hand": "left"
    },
    {
      "midi": 66,
      "time": 25.25,
      "duration": 0.25,
      "velocity": 0.63,
      "hand": "right"
    },
    {
      "midi": 59,
      "time": 25.5,
      "duration": 0.25,
      "velocity": 0.63,
      "hand": "left"
    },
    {
      "midi": 68,
      "time": 25.5,
      "duration": 0.25,
      "velocity": 0.63,
      "hand": "right"
    },
    {
      "midi": 57,
      "time": 25.75,
      "duration": 0.25,
      "velocity": 0.63,
      "hand": "left"
    },
    {
      "midi": 66,
      "time": 25.75,
      "duration": 0.25,
      "velocity": 0.63,
      "hand": "right"
    },
    {
      "midi": 52,
      "time": 26,
      "duration": 0.375,
      "velocity": 0.63,
      "hand": "left"
    },
    {
      "midi": 57,
      "time": 26,
      "duration": 0.5,
      "velocity": 0.63,
      "hand": "left"
    },
    {
      "midi": 64,
      "time": 26,
      "duration": 0.5,
      "velocity": 0.63,
      "hand": "right"
    },
    {
      "midi": 69,
      "time": 26.25,
      "duration": 0.125,
      "velocity": 0.63,
      "hand": "right"
    },
    {
      "midi": 52,
      "time": 26.375,
      "duration": 0.375,
      "velocity": 0.63,
      "hand": "left"
    },
    {
      "midi": 69,
      "time": 26.375,
      "duration": 0.125,
      "velocity": 0.63,
      "hand": "right"
    },
    {
      "midi": 61,
      "time": 26.5,
      "duration": 0.5,
      "velocity": 0.63,
      "hand": "right"
    },
    {
      "midi": 69,
      "time": 26.5,
      "duration": 0.5,
      "velocity": 0.63,
      "hand": "right"
    },
    {
      "midi": 45,
      "time": 26.75,
      "duration": 0.25,
      "velocity": 0.63,
      "hand": "left"
    },
    {
      "midi": 69,
      "time": 26.75,
      "duration": 0.125,
      "velocity": 0.63,
      "hand": "right"
    },
    {
      "midi": 69,
      "time": 26.875,
      "duration": 0.125,
      "velocity": 0.63,
      "hand": "right"
    },
    {
      "midi": 52,
      "time": 27,
      "duration": 0.375,
      "velocity": 0.63,
      "hand": "left"
    },
    {
      "midi": 64,
      "time": 27,
      "duration": 0.5,
      "velocity": 0.63,
      "hand": "right"
    },
    {
      "midi": 57,
      "time": 27.25,
      "duration": 0.25,
      "velocity": 0.63,
      "hand": "left"
    },
    {
      "midi": 73,
      "time": 27.25,
      "duration": 0.125,
      "velocity": 0.63,
      "hand": "right"
    },
    {
      "midi": 52,
      "time": 27.375,
      "duration": 0.375,
      "velocity": 0.63,
      "hand": "left"
    },
    {
      "midi": 73,
      "time": 27.375,
      "duration": 0.125,
      "velocity": 0.63,
      "hand": "right"
    },
    {
      "midi": 59,
      "time": 27.5,
      "duration": 0.25,
      "velocity": 0.63,
      "hand": "left"
    },
    {
      "midi": 69,
      "time": 27.5,
      "duration": 0.5,
      "velocity": 0.63,
      "hand": "right"
    },
    {
      "midi": 45,
      "time": 27.75,
      "duration": 0.25,
      "velocity": 0.63,
      "hand": "left"
    },
    {
      "midi": 57,
      "time": 27.75,
      "duration": 0.25,
      "velocity": 0.63,
      "hand": "left"
    },
    {
      "midi": 73,
      "time": 27.75,
      "duration": 0.125,
      "velocity": 0.63,
      "hand": "right"
    },
    {
      "midi": 73,
      "time": 27.875,
      "duration": 0.125,
      "velocity": 0.63,
      "hand": "right"
    },
    {
      "midi": 54,
      "time": 28,
      "duration": 0.375,
      "velocity": 0.63,
      "hand": "left"
    },
    {
      "midi": 57,
      "time": 28,
      "duration": 0.5,
      "velocity": 0.63,
      "hand": "left"
    },
    {
      "midi": 66,
      "time": 28,
      "duration": 0.5,
      "velocity": 0.63,
      "hand": "right"
    },
    {
      "midi": 74,
      "time": 28.25,
      "duration": 0.125,
      "velocity": 0.63,
      "hand": "right"
    },
    {
      "midi": 54,
      "time": 28.375,
      "duration": 0.375,
      "velocity": 0.63,
      "hand": "left"
    },
    {
      "midi": 74,
      "time": 28.375,
      "duration": 0.125,
      "velocity": 0.63,
      "hand": "right"
    },
    {
      "midi": 62,
      "time": 28.5,
      "duration": 0.5,
      "velocity": 0.63,
      "hand": "right"
    },
    {
      "midi": 69,
      "time": 28.5,
      "duration": 0.5,
      "velocity": 0.63,
      "hand": "right"
    },
    {
      "midi": 50,
      "time": 28.75,
      "duration": 0.25,
      "velocity": 0.63,
      "hand": "left"
    },
    {
      "midi": 74,
      "time": 28.75,
      "duration": 0.125,
      "velocity": 0.63,
      "hand": "right"
    },
    {
      "midi": 74,
      "time": 28.875,
      "duration": 0.125,
      "velocity": 0.63,
      "hand": "right"
    },
    {
      "midi": 54,
      "time": 29,
      "duration": 0.375,
      "velocity": 0.63,
      "hand": "left"
    },
    {
      "midi": 66,
      "time": 29,
      "duration": 0.5,
      "velocity": 0.63,
      "hand": "right"
    },
    {
      "midi": 57,
      "time": 29.25,
      "duration": 0.25,
      "velocity": 0.63,
      "hand": "left"
    },
    {
      "midi": 74,
      "time": 29.25,
      "duration": 0.125,
      "velocity": 0.63,
      "hand": "right"
    },
    {
      "midi": 54,
      "time": 29.375,
      "duration": 0.375,
      "velocity": 0.63,
      "hand": "left"
    },
    {
      "midi": 74,
      "time": 29.375,
      "duration": 0.125,
      "velocity": 0.63,
      "hand": "right"
    },
    {
      "midi": 59,
      "time": 29.5,
      "duration": 0.25,
      "velocity": 0.63,
      "hand": "left"
    },
    {
      "midi": 69,
      "time": 29.5,
      "duration": 0.5,
      "velocity": 0.63,
      "hand": "right"
    },
    {
      "midi": 50,
      "time": 29.75,
      "duration": 0.25,
      "velocity": 0.63,
      "hand": "left"
    },
    {
      "midi": 57,
      "time": 29.75,
      "duration": 0.25,
      "velocity": 0.63,
      "hand": "left"
    },
    {
      "midi": 74,
      "time": 29.75,
      "duration": 0.125,
      "velocity": 0.63,
      "hand": "right"
    },
    {
      "midi": 74,
      "time": 29.875,
      "duration": 0.125,
      "velocity": 0.63,
      "hand": "right"
    },
    {
      "midi": 52,
      "time": 30,
      "duration": 0.375,
      "velocity": 0.63,
      "hand": "left"
    },
    {
      "midi": 57,
      "time": 30,
      "duration": 0.5,
      "velocity": 0.63,
      "hand": "left"
    },
    {
      "midi": 64,
      "time": 30,
      "duration": 0.5,
      "velocity": 0.63,
      "hand": "right"
    },
    {
      "midi": 69,
      "time": 30.25,
      "duration": 0.125,
      "velocity": 0.63,
      "hand": "right"
    },
    {
      "midi": 52,
      "time": 30.375,
      "duration": 0.375,
      "velocity": 0.63,
      "hand": "left"
    },
    {
      "midi": 69,
      "time": 30.375,
      "duration": 0.125,
      "velocity": 0.63,
      "hand": "right"
    },
    {
      "midi": 61,
      "time": 30.5,
      "duration": 0.5,
      "velocity": 0.63,
      "hand": "right"
    },
    {
      "midi": 69,
      "time": 30.5,
      "duration": 0.5,
      "velocity": 0.63,
      "hand": "right"
    },
    {
      "midi": 45,
      "time": 30.75,
      "duration": 0.25,
      "velocity": 0.63,
      "hand": "left"
    },
    {
      "midi": 69,
      "time": 30.75,
      "duration": 0.125,
      "velocity": 0.63,
      "hand": "right"
    },
    {
      "midi": 69,
      "time": 30.875,
      "duration": 0.125,
      "velocity": 0.63,
      "hand": "right"
    },
    {
      "midi": 52,
      "time": 31,
      "duration": 0.375,
      "velocity": 0.63,
      "hand": "left"
    },
    {
      "midi": 64,
      "time": 31,
      "duration": 0.5,
      "velocity": 0.63,
      "hand": "right"
    },
    {
      "midi": 69,
      "time": 31.25,
      "duration": 0.25,
      "velocity": 0.63,
      "hand": "right"
    },
    {
      "midi": 52,
      "time": 31.375,
      "duration": 0.375,
      "velocity": 0.63,
      "hand": "left"
    },
    {
      "midi": 69,
      "time": 31.5,
      "duration": 0.5,
      "velocity": 0.63,
      "hand": "right"
    },
    {
      "midi": 71,
      "time": 31.5,
      "duration": 0.25,
      "velocity": 0.63,
      "hand": "right"
    },
    {
      "midi": 45,
      "time": 31.75,
      "duration": 0.25,
      "velocity": 0.39,
      "hand": "left"
    },
    {
      "midi": 57,
      "time": 31.75,
      "duration": 0.25,
      "velocity": 0.63,
      "hand": "left"
    },
    {
      "midi": 73,
      "time": 31.75,
      "duration": 0.25,
      "velocity": 0.63,
      "hand": "right"
    },
    {
      "midi": 50,
      "time": 32,
      "duration": 0.125,
      "velocity": 0.39,
      "hand": "left"
    },
    {
      "midi": 62,
      "time": 32,
      "duration": 0.125,
      "velocity": 0.63,
      "hand": "right"
    },
    {
      "midi": 66,
      "time": 32,
      "duration": 1,
      "velocity": 0.63,
      "hand": "right"
    },
    {
      "midi": 74,
      "time": 32,
      "duration": 0.5,
      "velocity": 0.63,
      "hand": "right"
    },
    {
      "midi": 50,
      "time": 32.125,
      "duration": 0.25,
      "velocity": 0.39,
      "hand": "left"
    },
    {
      "midi": 62,
      "time": 32.125,
      "duration": 0.25,
      "velocity": 0.63,
      "hand": "right"
    },
    {
      "midi": 50,
      "time": 32.375,
      "duration": 0.125,
      "velocity": 0.39,
      "hand": "left"
    },
    {
      "midi": 57,
      "time": 32.375,
      "duration": 0.125,
      "velocity": 0.63,
      "hand": "left"
    },
    {
      "midi": 47,
      "time": 32.5,
      "duration": 0.25,
      "velocity": 0.39,
      "hand": "left"
    },
    {
      "midi": 59,
      "time": 32.5,
      "duration": 0.25,
      "velocity": 0.63,
      "hand": "left"
    },
    {
      "midi": 74,
      "time": 32.5,
      "duration": 0.75,
      "velocity": 0.63,
      "hand": "right"
    },
    {
      "midi": 45,
      "time": 32.75,
      "duration": 0.25,
      "velocity": 0.39,
      "hand": "left"
    },
    {
      "midi": 57,
      "time": 32.75,
      "duration": 0.25,
      "velocity": 0.63,
      "hand": "left"
    },
    {
      "midi": 45,
      "time": 33,
      "duration": 0.25,
      "velocity": 0.39,
      "hand": "left"
    },
    {
      "midi": 54,
      "time": 33,
      "duration": 0.5,
      "velocity": 0.63,
      "hand": "left"
    },
    {
      "midi": 45,
      "time": 33.25,
      "duration": 0.125,
      "velocity": 0.39,
      "hand": "left"
    },
    {
      "midi": 66,
      "time": 33.25,
      "duration": 0.25,
      "velocity": 0.39,
      "hand": "right"
    },
    {
      "midi": 69,
      "time": 33.25,
      "duration": 0.25,
      "velocity": 0.63,
      "hand": "right"
    },
    {
      "midi": 45,
      "time": 33.375,
      "duration": 0.125,
      "velocity": 0.39,
      "hand": "left"
    },
    {
      "midi": 68,
      "time": 33.5,
      "duration": 0.25,
      "velocity": 0.39,
      "hand": "right"
    },
    {
      "midi": 71,
      "time": 33.5,
      "duration": 0.25,
      "velocity": 0.63,
      "hand": "right"
    },
    {
      "midi": 45,
      "time": 33.75,
      "duration": 0.125,
      "velocity": 0.39,
      "hand": "left"
    },
    {
      "midi": 57,
      "time": 33.75,
      "duration": 0.25,
      "velocity": 0.63,
      "hand": "left"
    },
    {
      "midi": 66,
      "time": 33.75,
      "duration": 0.25,
      "velocity": 0.39,
      "hand": "right"
    },
    {
      "midi": 69,
      "time": 33.75,
      "duration": 0.25,
      "velocity": 0.63,
      "hand": "right"
    },
    {
      "midi": 45,
      "time": 33.875,
      "duration": 0.125,
      "velocity": 0.39,
      "hand": "left"
    },
    {
      "midi": 62,
      "time": 34,
      "duration": 0.125,
      "velocity": 0.63,
      "hand": "right"
    },
    {
      "midi": 66,
      "time": 34,
      "duration": 0.5,
      "velocity": 0.39,
      "hand": "right"
    },
    {
      "midi": 69,
      "time": 34,
      "duration": 0.5,
      "velocity": 0.63,
      "hand": "right"
    },
    {
      "midi": 62,
      "time": 34.125,
      "duration": 0.25,
      "velocity": 0.63,
      "hand": "right"
    },
    {
      "midi": 45,
      "time": 34.25,
      "duration": 0.125,
      "velocity": 0.39,
      "hand": "left"
    },
    {
      "midi": 45,
      "time": 34.375,
      "duration": 0.125,
      "velocity": 0.39,
      "hand": "left"
    },
    {
      "midi": 57,
      "time": 34.375,
      "duration": 0.125,
      "velocity": 0.63,
      "hand": "left"
    },
    {
      "midi": 59,
      "time": 34.5,
      "duration": 0.25,
      "velocity": 0.63,
      "hand": "left"
    },
    {
      "midi": 66,
      "time": 34.5,
      "duration": 0.5,
      "velocity": 0.39,
      "hand": "right"
    },
    {
      "midi": 69,
      "time": 34.5,
      "duration": 0.5,
      "velocity": 0.63,
      "hand": "right"
    },
    {
      "midi": 45,
      "time": 34.75,
      "duration": 0.125,
      "velocity": 0.39,
      "hand": "left"
    },
    {
      "midi": 57,
      "time": 34.75,
      "duration": 0.25,
      "velocity": 0.63,
      "hand": "left"
    },
    {
      "midi": 45,
      "time": 34.875,
      "duration": 0.125,
      "velocity": 0.39,
      "hand": "left"
    },
    {
      "midi": 61,
      "time": 35,
      "duration": 0.5,
      "velocity": 0.63,
      "hand": "right"
    },
    {
      "midi": 45,
      "time": 35.125,
      "duration": 0.25,
      "velocity": 0.39,
      "hand": "left"
    },
    {
      "midi": 69,
      "time": 35.125,
      "duration": 0.25,
      "velocity": 0.63,
      "hand": "right"
    },
    {
      "midi": 64,
      "time": 35.25,
      "duration": 0.125,
      "velocity": 0.39,
      "hand": "right"
    },
    {
      "midi": 45,
      "time": 35.375,
      "duration": 0.125,
      "velocity": 0.39,
      "hand": "left"
    },
    {
      "midi": 64,
      "time": 35.375,
      "duration": 0.125,
      "velocity": 0.39,
      "hand": "right"
    },
    {
      "midi": 69,
      "time": 35.375,
      "duration": 0.125,
      "velocity": 0.63,
      "hand": "right"
    },
    {
      "midi": 47,
      "time": 35.5,
      "duration": 0.25,
      "velocity": 0.39,
      "hand": "left"
    },
    {
      "midi": 71,
      "time": 35.5,
      "duration": 0.25,
      "velocity": 0.63,
      "hand": "right"
    },
    {
      "midi": 45,
      "time": 35.75,
      "duration": 0.25,
      "velocity": 0.39,
      "hand": "left"
    },
    {
      "midi": 57,
      "time": 35.75,
      "duration": 0.125,
      "velocity": 0.63,
      "hand": "left"
    },
    {
      "midi": 64,
      "time": 35.75,
      "duration": 0.125,
      "velocity": 0.39,
      "hand": "right"
    },
    {
      "midi": 69,
      "time": 35.75,
      "duration": 0.25,
      "velocity": 0.63,
      "hand": "right"
    },
    {
      "midi": 57,
      "time": 35.875,
      "duration": 0.125,
      "velocity": 0.63,
      "hand": "left"
    },
    {
      "midi": 64,
      "time": 35.875,
      "duration": 0.125,
      "velocity": 0.39,
      "hand": "right"
    },
    {
      "midi": 45,
      "time": 36,
      "duration": 0.25,
      "velocity": 0.39,
      "hand": "left"
    },
    {
      "midi": 61,
      "time": 36,
      "duration": 0.125,
      "velocity": 0.63,
      "hand": "right"
    },
    {
      "midi": 69,
      "time": 36,
      "duration": 0.5,
      "velocity": 0.63,
      "hand": "right"
    },
    {
      "midi": 61,
      "time": 36.125,
      "duration": 0.25,
      "velocity": 0.63,
      "hand": "right"
    },
    {
      "midi": 45,
      "time": 36.25,
      "duration": 0.125,
      "velocity": 0.39,
      "hand": "left"
    },
    {
      "midi": 64,
      "time": 36.25,
      "duration": 0.125,
      "velocity": 0.39,
      "hand": "right"
    },
    {
      "midi": 45,
      "time": 36.375,
      "duration": 0.125,
      "velocity": 0.39,
      "hand": "left"
    },
    {
      "midi": 57,
      "time": 36.375,
      "duration": 0.125,
      "velocity": 0.63,
      "hand": "left"
    },
    {
      "midi": 64,
      "time": 36.375,
      "duration": 0.125,
      "velocity": 0.39,
      "hand": "right"
    },
    {
      "midi": 59,
      "time": 36.5,
      "duration": 0.25,
      "velocity": 0.63,
      "hand": "left"
    },
    {
      "midi": 69,
      "time": 36.5,
      "duration": 0.5,
      "velocity": 0.63,
      "hand": "right"
    },
    {
      "midi": 45,
      "time": 36.75,
      "duration": 0.125,
      "velocity": 0.39,
      "hand": "left"
    },
    {
      "midi": 57,
      "time": 36.75,
      "duration": 0.25,
      "velocity": 0.63,
      "hand": "left"
    },
    {
      "midi": 64,
      "time": 36.75,
      "duration": 0.125,
      "velocity": 0.39,
      "hand": "right"
    },
    {
      "midi": 45,
      "time": 36.875,
      "duration": 0.125,
      "velocity": 0.39,
      "hand": "left"
    },
    {
      "midi": 64,
      "time": 36.875,
      "duration": 0.125,
      "velocity": 0.39,
      "hand": "right"
    },
    {
      "midi": 61,
      "time": 37,
      "duration": 0.125,
      "velocity": 0.63,
      "hand": "right"
    },
    {
      "midi": 61,
      "time": 37.125,
      "duration": 0.25,
      "velocity": 0.63,
      "hand": "right"
    },
    {
      "midi": 69,
      "time": 37.125,
      "duration": 0.25,
      "velocity": 0.63,
      "hand": "right"
    },
    {
      "midi": 64,
      "time": 37.25,
      "duration": 0.125,
      "velocity": 0.39,
      "hand": "right"
    },
    {
      "midi": 45,
      "time": 37.375,
      "duration": 0.125,
      "velocity": 0.39,
      "hand": "left"
    },
    {
      "midi": 57,
      "time": 37.375,
      "duration": 0.125,
      "velocity": 0.63,
      "hand": "left"
    },
    {
      "midi": 64,
      "time": 37.375,
      "duration": 0.125,
      "velocity": 0.39,
      "hand": "right"
    },
    {
      "midi": 69,
      "time": 37.375,
      "duration": 0.125,
      "velocity": 0.63,
      "hand": "right"
    },
    {
      "midi": 47,
      "time": 37.5,
      "duration": 0.25,
      "velocity": 0.39,
      "hand": "left"
    },
    {
      "midi": 59,
      "time": 37.5,
      "duration": 0.25,
      "velocity": 0.63,
      "hand": "left"
    },
    {
      "midi": 71,
      "time": 37.5,
      "duration": 0.25,
      "velocity": 0.63,
      "hand": "right"
    },
    {
      "midi": 45,
      "time": 37.75,
      "duration": 0.25,
      "velocity": 0.39,
      "hand": "left"
    },
    {
      "midi": 57,
      "time": 37.75,
      "duration": 0.25,
      "velocity": 0.63,
      "hand": "left"
    },
    {
      "midi": 64,
      "time": 37.75,
      "duration": 0.125,
      "velocity": 0.39,
      "hand": "right"
    },
    {
      "midi": 69,
      "time": 37.75,
      "duration": 0.25,
      "velocity": 0.63,
      "hand": "right"
    },
    {
      "midi": 64,
      "time": 37.875,
      "duration": 0.125,
      "velocity": 0.39,
      "hand": "right"
    },
    {
      "midi": 49,
      "time": 38,
      "duration": 0.25,
      "velocity": 0.39,
      "hand": "left"
    },
    {
      "midi": 61,
      "time": 38,
      "duration": 0.25,
      "velocity": 0.63,
      "hand": "right"
    },
    {
      "midi": 69,
      "time": 38,
      "duration": 0.5,
      "velocity": 0.63,
      "hand": "right"
    },
    {
      "midi": 45,
      "time": 38.25,
      "duration": 0.25,
      "velocity": 0.39,
      "hand": "left"
    },
    {
      "midi": 57,
      "time": 38.25,
      "duration": 0.25,
      "velocity": 0.63,
      "hand": "left"
    },
    {
      "midi": 64,
      "time": 38.25,
      "duration": 0.125,
      "velocity": 0.39,
      "hand": "right"
    },
    {
      "midi": 64,
      "time": 38.375,
      "duration": 0.125,
      "velocity": 0.39,
      "hand": "right"
    },
    {
      "midi": 47,
      "time": 38.5,
      "duration": 0.25,
      "velocity": 0.39,
      "hand": "left"
    },
    {
      "midi": 59,
      "time": 38.5,
      "duration": 0.25,
      "velocity": 0.63,
      "hand": "left"
    },
    {
      "midi": 69,
      "time": 38.5,
      "duration": 0.5,
      "velocity": 0.63,
      "hand": "right"
    },
    {
      "midi": 49,
      "time": 38.75,
      "duration": 0.25,
      "velocity": 0.39,
      "hand": "left"
    },
    {
      "midi": 61,
      "time": 38.75,
      "duration": 0.25,
      "velocity": 0.63,
      "hand": "right"
    },
    {
      "midi": 64,
      "time": 38.75,
      "duration": 0.125,
      "velocity": 0.39,
      "hand": "right"
    },
    {
      "midi": 64,
      "time": 38.875,
      "duration": 0.125,
      "velocity": 0.39,
      "hand": "right"
    },
    {
      "midi": 50,
      "time": 39,
      "duration": 0.25,
      "velocity": 0.39,
      "hand": "left"
    },
    {
      "midi": 62,
      "time": 39,
      "duration": 0.5,
      "velocity": 0.63,
      "hand": "right"
    },
    {
      "midi": 50,
      "time": 39.25,
      "duration": 0.125,
      "velocity": 0.39,
      "hand": "left"
    },
    {
      "midi": 66,
      "time": 39.25,
      "duration": 0.25,
      "velocity": 0.39,
      "hand": "right"
    },
    {
      "midi": 69,
      "time": 39.25,
      "duration": 0.25,
      "velocity": 0.63,
      "hand": "right"
    },
    {
      "midi": 50,
      "time": 39.375,
      "duration": 0.125,
      "velocity": 0.39,
      "hand": "left"
    },
    {
      "midi": 67,
      "time": 39.5,
      "duration": 0.25,
      "velocity": 0.39,
      "hand": "right"
    },
    {
      "midi": 71,
      "time": 39.5,
      "duration": 0.25,
      "velocity": 0.63,
      "hand": "right"
    },
    {
      "midi": 57,
      "time": 39.75,
      "duration": 0.25,
      "velocity": 0.63,
      "hand": "left"
    },
    {
      "midi": 66,
      "time": 39.75,
      "duration": 0.25,
      "velocity": 0.39,
      "hand": "right"
    },
    {
      "midi": 73,
      "time": 39.75,
      "duration": 0.25,
      "velocity": 0.63,
      "hand": "right"
    },
    {
      "midi": 50,
      "time": 40,
      "duration": 0.125,
      "velocity": 0.39,
      "hand": "left"
    },
    {
      "midi": 62,
      "time": 40,
      "duration": 0.25,
      "velocity": 0.39,
      "hand": "right"
    },
    {
      "midi": 62,
      "time": 40,
      "duration": 0.125,
      "velocity": 0.63,
      "hand": "right"
    },
    {
      "midi": 74,
      "time": 40,
      "duration": 1,
      "velocity": 0.63,
      "hand": "right"
    },
    {
      "midi": 50,
      "time": 40.125,
      "duration": 0.25,
      "velocity": 0.39,
      "hand": "left"
    },
    {
      "midi": 62,
      "time": 40.125,
      "duration": 0.25,
      "velocity": 0.63,
      "hand": "right"
    },
    {
      "midi": 62,
      "time": 40.25,
      "duration": 0.125,
      "velocity": 0.39,
      "hand": "right"
    },
    {
      "midi": 50,
      "time": 40.375,
      "duration": 0.125,
      "velocity": 0.39,
      "hand": "left"
    },
    {
      "midi": 57,
      "time": 40.375,
      "duration": 0.125,
      "velocity": 0.63,
      "hand": "left"
    },
    {
      "midi": 62,
      "time": 40.375,
      "duration": 0.125,
      "velocity": 0.39,
      "hand": "right"
    },
    {
      "midi": 47,
      "time": 40.5,
      "duration": 0.25,
      "velocity": 0.39,
      "hand": "left"
    },
    {
      "midi": 59,
      "time": 40.5,
      "duration": 0.25,
      "velocity": 0.63,
      "hand": "left"
    },
    {
      "midi": 45,
      "time": 40.75,
      "duration": 0.25,
      "velocity": 0.39,
      "hand": "left"
    },
    {
      "midi": 57,
      "time": 40.75,
      "duration": 0.25,
      "velocity": 0.63,
      "hand": "left"
    },
    {
      "midi": 62,
      "time": 40.75,
      "duration": 0.125,
      "velocity": 0.39,
      "hand": "right"
    },
    {
      "midi": 62,
      "time": 40.875,
      "duration": 0.125,
      "velocity": 0.39,
      "hand": "right"
    },
    {
      "midi": 45,
      "time": 41,
      "duration": 0.25,
      "velocity": 0.39,
      "hand": "left"
    },
    {
      "midi": 54,
      "time": 41,
      "duration": 0.5,
      "velocity": 0.63,
      "hand": "left"
    },
    {
      "midi": 45,
      "time": 41.25,
      "duration": 0.125,
      "velocity": 0.39,
      "hand": "left"
    },
    {
      "midi": 66,
      "time": 41.25,
      "duration": 0.25,
      "velocity": 0.39,
      "hand": "right"
    },
    {
      "midi": 69,
      "time": 41.25,
      "duration": 0.25,
      "velocity": 0.63,
      "hand": "right"
    },
    {
      "midi": 45,
      "time": 41.375,
      "duration": 0.125,
      "velocity": 0.39,
      "hand": "left"
    },
    {
      "midi": 68,
      "time": 41.5,
      "duration": 0.25,
      "velocity": 0.39,
      "hand": "right"
    },
    {
      "midi": 71,
      "time": 41.5,
      "duration": 0.25,
      "velocity": 0.63,
      "hand": "right"
    },
    {
      "midi": 45,
      "time": 41.75,
      "duration": 0.125,
      "velocity": 0.39,
      "hand": "left"
    },
    {
      "midi": 57,
      "time": 41.75,
      "duration": 0.25,
      "velocity": 0.63,
      "hand": "left"
    },
    {
      "midi": 66,
      "time": 41.75,
      "duration": 0.25,
      "velocity": 0.39,
      "hand": "right"
    },
    {
      "midi": 69,
      "time": 41.75,
      "duration": 0.25,
      "velocity": 0.63,
      "hand": "right"
    },
    {
      "midi": 45,
      "time": 41.875,
      "duration": 0.125,
      "velocity": 0.39,
      "hand": "left"
    },
    {
      "midi": 62,
      "time": 42,
      "duration": 0.125,
      "velocity": 0.63,
      "hand": "right"
    },
    {
      "midi": 66,
      "time": 42,
      "duration": 0.5,
      "velocity": 0.39,
      "hand": "right"
    },
    {
      "midi": 69,
      "time": 42,
      "duration": 0.5,
      "velocity": 0.63,
      "hand": "right"
    },
    {
      "midi": 62,
      "time": 42.125,
      "duration": 0.25,
      "velocity": 0.63,
      "hand": "right"
    },
    {
      "midi": 45,
      "time": 42.25,
      "duration": 0.125,
      "velocity": 0.39,
      "hand": "left"
    },
    {
      "midi": 45,
      "time": 42.375,
      "duration": 0.125,
      "velocity": 0.39,
      "hand": "left"
    },
    {
      "midi": 57,
      "time": 42.375,
      "duration": 0.125,
      "velocity": 0.63,
      "hand": "left"
    },
    {
      "midi": 59,
      "time": 42.5,
      "duration": 0.25,
      "velocity": 0.63,
      "hand": "left"
    },
    {
      "midi": 66,
      "time": 42.5,
      "duration": 0.5,
      "velocity": 0.39,
      "hand": "right"
    },
    {
      "midi": 69,
      "time": 42.5,
      "duration": 0.5,
      "velocity": 0.63,
      "hand": "right"
    },
    {
      "midi": 45,
      "time": 42.75,
      "duration": 0.125,
      "velocity": 0.39,
      "hand": "left"
    },
    {
      "midi": 57,
      "time": 42.75,
      "duration": 0.25,
      "velocity": 0.63,
      "hand": "left"
    },
    {
      "midi": 45,
      "time": 42.875,
      "duration": 0.125,
      "velocity": 0.39,
      "hand": "left"
    },
    {
      "midi": 55,
      "time": 43,
      "duration": 0.5,
      "velocity": 0.63,
      "hand": "left"
    },
    {
      "midi": 45,
      "time": 43.25,
      "duration": 0.25,
      "velocity": 0.39,
      "hand": "left"
    },
    {
      "midi": 64,
      "time": 43.25,
      "duration": 0.125,
      "velocity": 0.39,
      "hand": "right"
    },
    {
      "midi": 69,
      "time": 43.25,
      "duration": 0.25,
      "velocity": 0.63,
      "hand": "right"
    },
    {
      "midi": 64,
      "time": 43.375,
      "duration": 0.125,
      "velocity": 0.39,
      "hand": "right"
    },
    {
      "midi": 47,
      "time": 43.5,
      "duration": 0.25,
      "velocity": 0.39,
      "hand": "left"
    },
    {
      "midi": 71,
      "time": 43.5,
      "duration": 0.25,
      "velocity": 0.63,
      "hand": "right"
    },
    {
      "midi": 45,
      "time": 43.75,
      "duration": 0.25,
      "velocity": 0.39,
      "hand": "left"
    },
    {
      "midi": 57,
      "time": 43.75,
      "duration": 0.125,
      "velocity": 0.63,
      "hand": "left"
    },
    {
      "midi": 64,
      "time": 43.75,
      "duration": 0.125,
      "velocity": 0.39,
      "hand": "right"
    },
    {
      "midi": 69,
      "time": 43.75,
      "duration": 0.25,
      "velocity": 0.63,
      "hand": "right"
    },
    {
      "midi": 57,
      "time": 43.875,
      "duration": 0.125,
      "velocity": 0.63,
      "hand": "left"
    },
    {
      "midi": 64,
      "time": 43.875,
      "duration": 0.125,
      "velocity": 0.39,
      "hand": "right"
    },
    {
      "midi": 45,
      "time": 44,
      "duration": 0.5,
      "velocity": 0.39,
      "hand": "left"
    },
    {
      "midi": 61,
      "time": 44,
      "duration": 0.125,
      "velocity": 0.63,
      "hand": "right"
    },
    {
      "midi": 69,
      "time": 44,
      "duration": 0.5,
      "velocity": 0.63,
      "hand": "right"
    },
    {
      "midi": 61,
      "time": 44.125,
      "duration": 0.25,
      "velocity": 0.63,
      "hand": "right"
    },
    {
      "midi": 64,
      "time": 44.25,
      "duration": 0.125,
      "velocity": 0.39,
      "hand": "right"
    },
    {
      "midi": 57,
      "time": 44.375,
      "duration": 0.125,
      "velocity": 0.63,
      "hand": "left"
    },
    {
      "midi": 64,
      "time": 44.375,
      "duration": 0.125,
      "velocity": 0.39,
      "hand": "right"
    },
    {
      "midi": 45,
      "time": 44.5,
      "duration": 0.5,
      "velocity": 0.39,
      "hand": "left"
    },
    {
      "midi": 59,
      "time": 44.5,
      "duration": 0.25,
      "velocity": 0.63,
      "hand": "left"
    },
    {
      "midi": 69,
      "time": 44.5,
      "duration": 0.5,
      "velocity": 0.63,
      "hand": "right"
    },
    {
      "midi": 57,
      "time": 44.75,
      "duration": 0.25,
      "velocity": 0.63,
      "hand": "left"
    },
    {
      "midi": 64,
      "time": 44.75,
      "duration": 0.125,
      "velocity": 0.39,
      "hand": "right"
    },
    {
      "midi": 64,
      "time": 44.875,
      "duration": 0.125,
      "velocity": 0.39,
      "hand": "right"
    },
    {
      "midi": 61,
      "time": 45,
      "duration": 0.125,
      "velocity": 0.63,
      "hand": "right"
    },
    {
      "midi": 61,
      "time": 45.125,
      "duration": 0.25,
      "velocity": 0.63,
      "hand": "right"
    },
    {
      "midi": 64,
      "time": 45.25,
      "duration": 0.125,
      "velocity": 0.39,
      "hand": "right"
    },
    {
      "midi": 69,
      "time": 45.25,
      "duration": 0.25,
      "velocity": 0.63,
      "hand": "right"
    },
    {
      "midi": 45,
      "time": 45.375,
      "duration": 0.125,
      "velocity": 0.39,
      "hand": "left"
    },
    {
      "midi": 57,
      "time": 45.375,
      "duration": 0.125,
      "velocity": 0.63,
      "hand": "left"
    },
    {
      "midi": 64,
      "time": 45.375,
      "duration": 0.125,
      "velocity": 0.39,
      "hand": "right"
    },
    {
      "midi": 47,
      "time": 45.5,
      "duration": 0.25,
      "velocity": 0.39,
      "hand": "left"
    },
    {
      "midi": 59,
      "time": 45.5,
      "duration": 0.25,
      "velocity": 0.63,
      "hand": "left"
    },
    {
      "midi": 71,
      "time": 45.5,
      "duration": 0.25,
      "velocity": 0.63,
      "hand": "right"
    },
    {
      "midi": 45,
      "time": 45.75,
      "duration": 0.25,
      "velocity": 0.39,
      "hand": "left"
    },
    {
      "midi": 57,
      "time": 45.75,
      "duration": 0.25,
      "velocity": 0.63,
      "hand": "left"
    },
    {
      "midi": 64,
      "time": 45.75,
      "duration": 0.125,
      "velocity": 0.39,
      "hand": "right"
    },
    {
      "midi": 69,
      "time": 45.75,
      "duration": 0.25,
      "velocity": 0.63,
      "hand": "right"
    },
    {
      "midi": 64,
      "time": 45.875,
      "duration": 0.125,
      "velocity": 0.39,
      "hand": "right"
    },
    {
      "midi": 49,
      "time": 46,
      "duration": 0.25,
      "velocity": 0.39,
      "hand": "left"
    },
    {
      "midi": 61,
      "time": 46,
      "duration": 0.25,
      "velocity": 0.63,
      "hand": "right"
    },
    {
      "midi": 69,
      "time": 46,
      "duration": 0.125,
      "velocity": 0.63,
      "hand": "right"
    },
    {
      "midi": 69,
      "time": 46.125,
      "duration": 0.25,
      "velocity": 0.63,
      "hand": "right"
    },
    {
      "midi": 45,
      "time": 46.25,
      "duration": 0.25,
      "velocity": 0.39,
      "hand": "left"
    },
    {
      "midi": 57,
      "time": 46.25,
      "duration": 0.25,
      "velocity": 0.63,
      "hand": "left"
    },
    {
      "midi": 64,
      "time": 46.375,
      "duration": 0.125,
      "velocity": 0.39,
      "hand": "right"
    },
    {
      "midi": 69,
      "time": 46.375,
      "duration": 0.125,
      "velocity": 0.63,
      "hand": "right"
    },
    {
      "midi": 47,
      "time": 46.5,
      "duration": 0.25,
      "velocity": 0.39,
      "hand": "left"
    },
    {
      "midi": 59,
      "time": 46.5,
      "duration": 0.25,
      "velocity": 0.63,
      "hand": "left"
    },
    {
      "midi": 64,
      "time": 46.5,
      "duration": 0.25,
      "velocity": 0.39,
      "hand": "right"
    },
    {
      "midi": 71,
      "time": 46.5,
      "duration": 0.25,
      "velocity": 0.63,
      "hand": "right"
    },
    {
      "midi": 49,
      "time": 46.75,
      "duration": 0.25,
      "velocity": 0.39,
      "hand": "left"
    },
    {
      "midi": 61,
      "time": 46.75,
      "duration": 0.25,
      "velocity": 0.63,
      "hand": "right"
    },
    {
      "midi": 64,
      "time": 46.75,
      "duration": 0.25,
      "velocity": 0.39,
      "hand": "right"
    },
    {
      "midi": 73,
      "time": 46.75,
      "duration": 0.25,
      "velocity": 0.63,
      "hand": "right"
    },
    {
      "midi": 50,
      "time": 47,
      "duration": 0.25,
      "velocity": 0.39,
      "hand": "left"
    },
    {
      "midi": 62,
      "time": 47,
      "duration": 0.5,
      "velocity": 0.39,
      "hand": "right"
    },
    {
      "midi": 62,
      "time": 47,
      "duration": 0.25,
      "velocity": 0.63,
      "hand": "right"
    },
    {
      "midi": 74,
      "time": 47,
      "duration": 0.5,
      "velocity": 0.63,
      "hand": "right"
    },
    {
      "midi": 50,
      "time": 47.25,
      "duration": 0.125,
      "velocity": 0.39,
      "hand": "left"
    },
    {
      "midi": 62,
      "time": 47.25,
      "duration": 0.125,
      "velocity": 0.63,
      "hand": "right"
    },
    {
      "midi": 50,
      "time": 47.375,
      "duration": 0.125,
      "velocity": 0.39,
      "hand": "left"
    },
    {
      "midi": 62,
      "time": 47.375,
      "duration": 0.125,
      "velocity": 0.63,
      "hand": "right"
    },
    {
      "midi": 62,
      "time": 47.5,
      "duration": 0.5,
      "velocity": 0.39,
      "hand": "right"
    },
    {
      "midi": 74,
      "time": 47.5,
      "duration": 0.5,
      "velocity": 0.63,
      "hand": "right"
    },
    {
      "midi": 50,
      "time": 47.75,
      "duration": 0.125,
      "velocity": 0.39,
      "hand": "left"
    },
    {
      "midi": 62,
      "time": 47.75,
      "duration": 0.125,
      "velocity": 0.63,
      "hand": "right"
    },
    {
      "midi": 50,
      "time": 47.875,
      "duration": 0.125,
      "velocity": 0.39,
      "hand": "left"
    },
    {
      "midi": 62,
      "time": 47.875,
      "duration": 0.125,
      "velocity": 0.63,
      "hand": "right"
    },
    {
      "midi": 50,
      "time": 48.25,
      "duration": 0.125,
      "velocity": 0.63,
      "hand": "left"
    },
    {
      "midi": 62,
      "time": 48.25,
      "duration": 0.125,
      "velocity": 0.63,
      "hand": "right"
    },
    {
      "midi": 74,
      "time": 48.25,
      "duration": 0.125,
      "velocity": 0.63,
      "hand": "right"
    },
    {
      "midi": 50,
      "time": 48.375,
      "duration": 0.125,
      "velocity": 0.63,
      "hand": "left"
    },
    {
      "midi": 62,
      "time": 48.375,
      "duration": 0.125,
      "velocity": 0.63,
      "hand": "right"
    },
    {
      "midi": 74,
      "time": 48.375,
      "duration": 0.125,
      "velocity": 0.63,
      "hand": "right"
    },
    {
      "midi": 50,
      "time": 48.75,
      "duration": 0.125,
      "velocity": 0.63,
      "hand": "left"
    },
    {
      "midi": 62,
      "time": 48.75,
      "duration": 0.125,
      "velocity": 0.63,
      "hand": "right"
    },
    {
      "midi": 74,
      "time": 48.75,
      "duration": 0.125,
      "velocity": 0.63,
      "hand": "right"
    },
    {
      "midi": 50,
      "time": 48.875,
      "duration": 0.125,
      "velocity": 0.63,
      "hand": "left"
    },
    {
      "midi": 62,
      "time": 48.875,
      "duration": 0.125,
      "velocity": 0.63,
      "hand": "right"
    },
    {
      "midi": 74,
      "time": 48.875,
      "duration": 0.125,
      "velocity": 0.63,
      "hand": "right"
    },
    {
      "midi": 50,
      "time": 49.25,
      "duration": 0.125,
      "velocity": 0.63,
      "hand": "left"
    },
    {
      "midi": 62,
      "time": 49.25,
      "duration": 0.125,
      "velocity": 0.63,
      "hand": "right"
    },
    {
      "midi": 50,
      "time": 49.375,
      "duration": 0.125,
      "velocity": 0.63,
      "hand": "left"
    },
    {
      "midi": 62,
      "time": 49.375,
      "duration": 0.125,
      "velocity": 0.63,
      "hand": "right"
    },
    {
      "midi": 50,
      "time": 49.75,
      "duration": 0.125,
      "velocity": 0.63,
      "hand": "left"
    },
    {
      "midi": 62,
      "time": 49.75,
      "duration": 0.125,
      "velocity": 0.63,
      "hand": "right"
    },
    {
      "midi": 50,
      "time": 49.875,
      "duration": 0.125,
      "velocity": 0.63,
      "hand": "left"
    },
    {
      "midi": 62,
      "time": 49.875,
      "duration": 0.125,
      "velocity": 0.63,
      "hand": "right"
    },
    {
      "midi": 50,
      "time": 50.25,
      "duration": 0.125,
      "velocity": 0.63,
      "hand": "left"
    },
    {
      "midi": 62,
      "time": 50.25,
      "duration": 0.125,
      "velocity": 0.63,
      "hand": "right"
    },
    {
      "midi": 50,
      "time": 50.375,
      "duration": 0.125,
      "velocity": 0.63,
      "hand": "left"
    },
    {
      "midi": 62,
      "time": 50.375,
      "duration": 0.125,
      "velocity": 0.63,
      "hand": "right"
    },
    {
      "midi": 50,
      "time": 50.75,
      "duration": 0.125,
      "velocity": 0.63,
      "hand": "left"
    },
    {
      "midi": 62,
      "time": 50.75,
      "duration": 0.125,
      "velocity": 0.63,
      "hand": "right"
    },
    {
      "midi": 50,
      "time": 50.875,
      "duration": 0.125,
      "velocity": 0.63,
      "hand": "left"
    },
    {
      "midi": 62,
      "time": 50.875,
      "duration": 0.125,
      "velocity": 0.63,
      "hand": "right"
    },
    {
      "midi": 50,
      "time": 51.25,
      "duration": 0.125,
      "velocity": 0.63,
      "hand": "left"
    },
    {
      "midi": 50,
      "time": 51.375,
      "duration": 0.125,
      "velocity": 0.63,
      "hand": "left"
    },
    {
      "midi": 50,
      "time": 51.75,
      "duration": 0.125,
      "velocity": 0.63,
      "hand": "left"
    },
    {
      "midi": 50,
      "time": 51.875,
      "duration": 0.125,
      "velocity": 0.63,
      "hand": "left"
    },
    {
      "midi": 50,
      "time": 52.25,
      "duration": 0.125,
      "velocity": 0.63,
      "hand": "left"
    },
    {
      "midi": 50,
      "time": 52.375,
      "duration": 0.125,
      "velocity": 0.63,
      "hand": "left"
    },
    {
      "midi": 50,
      "time": 52.75,
      "duration": 0.125,
      "velocity": 0.63,
      "hand": "left"
    },
    {
      "midi": 50,
      "time": 52.875,
      "duration": 0.125,
      "velocity": 0.63,
      "hand": "left"
    },
    {
      "midi": 50,
      "time": 53.25,
      "duration": 0.125,
      "velocity": 0.63,
      "hand": "left"
    },
    {
      "midi": 50,
      "time": 53.375,
      "duration": 0.125,
      "velocity": 0.63,
      "hand": "left"
    },
    {
      "midi": 50,
      "time": 53.75,
      "duration": 0.125,
      "velocity": 0.63,
      "hand": "left"
    },
    {
      "midi": 50,
      "time": 53.875,
      "duration": 0.125,
      "velocity": 0.63,
      "hand": "left"
    }
  ],
  "arrangements": {
    "easy": [
      {
        "midi": 69,
        "time": 1.75,
        "duration": 0.25,
        "velocity": 0.63,
        "hand": "right"
      },
      {
        "midi": 74,
        "time": 2,
        "duration": 0.167,
        "velocity": 0.63,
        "hand": "right"
      },
      {
        "midi": 74,
        "time": 2.125,
        "duration": 0.25,
        "velocity": 0.63,
        "hand": "right"
      },
      {
        "midi": 62,
        "time": 2.25,
        "duration": 0.167,
        "velocity": 0.63,
        "hand": "right"
      },
      {
        "midi": 69,
        "time": 2.375,
        "duration": 0.167,
        "velocity": 0.63,
        "hand": "right"
      },
      {
        "midi": 71,
        "time": 2.5,
        "duration": 0.25,
        "velocity": 0.63,
        "hand": "right"
      },
      {
        "midi": 69,
        "time": 2.75,
        "duration": 0.25,
        "velocity": 0.63,
        "hand": "right"
      },
      {
        "midi": 62,
        "time": 2.875,
        "duration": 0.167,
        "velocity": 0.63,
        "hand": "right"
      },
      {
        "midi": 66,
        "time": 3,
        "duration": 0.5,
        "velocity": 0.63,
        "hand": "right"
      },
      {
        "midi": 62,
        "time": 3.25,
        "duration": 0.167,
        "velocity": 0.63,
        "hand": "right"
      },
      {
        "midi": 62,
        "time": 3.375,
        "duration": 0.167,
        "velocity": 0.63,
        "hand": "right"
      },
      {
        "midi": 69,
        "time": 3.75,
        "duration": 0.25,
        "velocity": 0.63,
        "hand": "right"
      },
      {
        "midi": 62,
        "time": 3.875,
        "duration": 0.167,
        "velocity": 0.63,
        "hand": "right"
      },
      {
        "midi": 74,
        "time": 4,
        "duration": 0.167,
        "velocity": 0.63,
        "hand": "right"
      },
      {
        "midi": 74,
        "time": 4.125,
        "duration": 0.25,
        "velocity": 0.63,
        "hand": "right"
      },
      {
        "midi": 62,
        "time": 4.25,
        "duration": 0.167,
        "velocity": 0.63,
        "hand": "right"
      },
      {
        "midi": 69,
        "time": 4.375,
        "duration": 0.167,
        "velocity": 0.63,
        "hand": "right"
      },
      {
        "midi": 71,
        "time": 4.5,
        "duration": 0.25,
        "velocity": 0.63,
        "hand": "right"
      },
      {
        "midi": 69,
        "time": 4.75,
        "duration": 0.25,
        "velocity": 0.63,
        "hand": "right"
      },
      {
        "midi": 62,
        "time": 4.875,
        "duration": 0.167,
        "velocity": 0.63,
        "hand": "right"
      },
      {
        "midi": 73,
        "time": 5,
        "duration": 0.5,
        "velocity": 0.63,
        "hand": "right"
      },
      {
        "midi": 61,
        "time": 5.25,
        "duration": 0.167,
        "velocity": 0.63,
        "hand": "right"
      },
      {
        "midi": 61,
        "time": 5.375,
        "duration": 0.167,
        "velocity": 0.63,
        "hand": "right"
      },
      {
        "midi": 69,
        "time": 5.75,
        "duration": 0.167,
        "velocity": 0.63,
        "hand": "right"
      },
      {
        "midi": 69,
        "time": 5.875,
        "duration": 0.167,
        "velocity": 0.63,
        "hand": "right"
      },
      {
        "midi": 73,
        "time": 6,
        "duration": 0.167,
        "velocity": 0.63,
        "hand": "right"
      },
      {
        "midi": 73,
        "time": 6.125,
        "duration": 0.25,
        "velocity": 0.63,
        "hand": "right"
      },
      {
        "midi": 61,
        "time": 6.25,
        "duration": 0.167,
        "velocity": 0.63,
        "hand": "right"
      },
      {
        "midi": 69,
        "time": 6.375,
        "duration": 0.167,
        "velocity": 0.63,
        "hand": "right"
      },
      {
        "midi": 71,
        "time": 6.5,
        "duration": 0.25,
        "velocity": 0.63,
        "hand": "right"
      },
      {
        "midi": 69,
        "time": 6.75,
        "duration": 0.25,
        "velocity": 0.63,
        "hand": "right"
      },
      {
        "midi": 61,
        "time": 6.875,
        "duration": 0.167,
        "velocity": 0.63,
        "hand": "right"
      },
      {
        "midi": 73,
        "time": 7,
        "duration": 0.167,
        "velocity": 0.63,
        "hand": "right"
      },
      {
        "midi": 73,
        "time": 7.125,
        "duration": 0.25,
        "velocity": 0.63,
        "hand": "right"
      },
      {
        "midi": 61,
        "time": 7.25,
        "duration": 0.167,
        "velocity": 0.63,
        "hand": "right"
      },
      {
        "midi": 69,
        "time": 7.375,
        "duration": 0.167,
        "velocity": 0.63,
        "hand": "right"
      },
      {
        "midi": 71,
        "time": 7.5,
        "duration": 0.25,
        "velocity": 0.63,
        "hand": "right"
      },
      {
        "midi": 69,
        "time": 7.75,
        "duration": 0.25,
        "velocity": 0.63,
        "hand": "right"
      },
      {
        "midi": 61,
        "time": 7.875,
        "duration": 0.167,
        "velocity": 0.63,
        "hand": "right"
      },
      {
        "midi": 73,
        "time": 8,
        "duration": 0.25,
        "velocity": 0.63,
        "hand": "right"
      },
      {
        "midi": 69,
        "time": 8.25,
        "duration": 0.25,
        "velocity": 0.63,
        "hand": "right"
      },
      {
        "midi": 61,
        "time": 8.375,
        "duration": 0.167,
        "velocity": 0.63,
        "hand": "right"
      },
      {
        "midi": 71,
        "time": 8.5,
        "duration": 0.25,
        "velocity": 0.63,
        "hand": "right"
      },
      {
        "midi": 73,
        "time": 8.75,
        "duration": 0.25,
        "velocity": 0.63,
        "hand": "right"
      },
      {
        "midi": 61,
        "time": 8.875,
        "duration": 0.167,
        "velocity": 0.63,
        "hand": "right"
      },
      {
        "midi": 74,
        "time": 9,
        "duration": 0.25,
        "velocity": 0.63,
        "hand": "right"
      },
      {
        "midi": 69,
        "time": 9.75,
        "duration": 0.25,
        "velocity": 0.63,
        "hand": "right"
      },
      {
        "midi": 74,
        "time": 10,
        "duration": 0.167,
        "velocity": 0.63,
        "hand": "right"
      },
      {
        "midi": 74,
        "time": 10.125,
        "duration": 0.25,
        "velocity": 0.63,
        "hand": "right"
      },
      {
        "midi": 62,
        "time": 10.25,
        "duration": 0.167,
        "velocity": 0.63,
        "hand": "right"
      },
      {
        "midi": 69,
        "time": 10.375,
        "duration": 0.167,
        "velocity": 0.63,
        "hand": "right"
      },
      {
        "midi": 71,
        "time": 10.5,
        "duration": 0.25,
        "velocity": 0.63,
        "hand": "right"
      },
      {
        "midi": 69,
        "time": 10.75,
        "duration": 0.25,
        "velocity": 0.63,
        "hand": "right"
      },
      {
        "midi": 62,
        "time": 10.875,
        "duration": 0.167,
        "velocity": 0.63,
        "hand": "right"
      },
      {
        "midi": 66,
        "time": 11,
        "duration": 0.5,
        "velocity": 0.63,
        "hand": "right"
      },
      {
        "midi": 62,
        "time": 11.25,
        "duration": 0.167,
        "velocity": 0.63,
        "hand": "right"
      },
      {
        "midi": 62,
        "time": 11.375,
        "duration": 0.167,
        "velocity": 0.63,
        "hand": "right"
      },
      {
        "midi": 69,
        "time": 11.75,
        "duration": 0.25,
        "velocity": 0.63,
        "hand": "right"
      },
      {
        "midi": 62,
        "time": 11.875,
        "duration": 0.167,
        "velocity": 0.63,
        "hand": "right"
      },
      {
        "midi": 74,
        "time": 12,
        "duration": 0.167,
        "velocity": 0.63,
        "hand": "right"
      },
      {
        "midi": 74,
        "time": 12.125,
        "duration": 0.25,
        "velocity": 0.63,
        "hand": "right"
      },
      {
        "midi": 62,
        "time": 12.25,
        "duration": 0.167,
        "velocity": 0.63,
        "hand": "right"
      },
      {
        "midi": 69,
        "time": 12.375,
        "duration": 0.167,
        "velocity": 0.63,
        "hand": "right"
      },
      {
        "midi": 71,
        "time": 12.5,
        "duration": 0.25,
        "velocity": 0.63,
        "hand": "right"
      },
      {
        "midi": 69,
        "time": 12.75,
        "duration": 0.25,
        "velocity": 0.63,
        "hand": "right"
      },
      {
        "midi": 62,
        "time": 12.875,
        "duration": 0.167,
        "velocity": 0.63,
        "hand": "right"
      },
      {
        "midi": 73,
        "time": 13,
        "duration": 0.5,
        "velocity": 0.63,
        "hand": "right"
      },
      {
        "midi": 61,
        "time": 13.25,
        "duration": 0.167,
        "velocity": 0.63,
        "hand": "right"
      },
      {
        "midi": 61,
        "time": 13.375,
        "duration": 0.167,
        "velocity": 0.63,
        "hand": "right"
      },
      {
        "midi": 69,
        "time": 13.75,
        "duration": 0.167,
        "velocity": 0.63,
        "hand": "right"
      },
      {
        "midi": 69,
        "time": 13.875,
        "duration": 0.167,
        "velocity": 0.63,
        "hand": "right"
      },
      {
        "midi": 73,
        "time": 14,
        "duration": 0.167,
        "velocity": 0.63,
        "hand": "right"
      },
      {
        "midi": 73,
        "time": 14.125,
        "duration": 0.25,
        "velocity": 0.63,
        "hand": "right"
      },
      {
        "midi": 61,
        "time": 14.25,
        "duration": 0.167,
        "velocity": 0.63,
        "hand": "right"
      },
      {
        "midi": 69,
        "time": 14.375,
        "duration": 0.167,
        "velocity": 0.63,
        "hand": "right"
      },
      {
        "midi": 71,
        "time": 14.5,
        "duration": 0.25,
        "velocity": 0.63,
        "hand": "right"
      },
      {
        "midi": 69,
        "time": 14.75,
        "duration": 0.25,
        "velocity": 0.63,
        "hand": "right"
      },
      {
        "midi": 61,
        "time": 14.875,
        "duration": 0.167,
        "velocity": 0.63,
        "hand": "right"
      },
      {
        "midi": 73,
        "time": 15,
        "duration": 0.167,
        "velocity": 0.63,
        "hand": "right"
      },
      {
        "midi": 73,
        "time": 15.125,
        "duration": 0.25,
        "velocity": 0.63,
        "hand": "right"
      },
      {
        "midi": 61,
        "time": 15.25,
        "duration": 0.167,
        "velocity": 0.63,
        "hand": "right"
      },
      {
        "midi": 69,
        "time": 15.375,
        "duration": 0.167,
        "velocity": 0.63,
        "hand": "right"
      },
      {
        "midi": 71,
        "time": 15.5,
        "duration": 0.25,
        "velocity": 0.63,
        "hand": "right"
      },
      {
        "midi": 69,
        "time": 15.75,
        "duration": 0.25,
        "velocity": 0.63,
        "hand": "right"
      },
      {
        "midi": 61,
        "time": 15.875,
        "duration": 0.167,
        "velocity": 0.63,
        "hand": "right"
      },
      {
        "midi": 73,
        "time": 16,
        "duration": 0.25,
        "velocity": 0.63,
        "hand": "right"
      },
      {
        "midi": 69,
        "time": 16.25,
        "duration": 0.25,
        "velocity": 0.63,
        "hand": "right"
      },
      {
        "midi": 61,
        "time": 16.375,
        "duration": 0.167,
        "velocity": 0.63,
        "hand": "right"
      },
      {
        "midi": 71,
        "time": 16.5,
        "duration": 0.25,
        "velocity": 0.63,
        "hand": "right"
      },
      {
        "midi": 73,
        "time": 16.75,
        "duration": 0.25,
        "velocity": 0.63,
        "hand": "right"
      },
      {
        "midi": 61,
        "time": 16.875,
        "duration": 0.167,
        "velocity": 0.63,
        "hand": "right"
      },
      {
        "midi": 74,
        "time": 17,
        "duration": 0.25,
        "velocity": 0.63,
        "hand": "right"
      },
      {
        "midi": 57,
        "time": 17.25,
        "duration": 0.25,
        "velocity": 0.63,
        "hand": "right"
      },
      {
        "midi": 59,
        "time": 17.5,
        "duration": 0.25,
        "velocity": 0.63,
        "hand": "right"
      },
      {
        "midi": 57,
        "time": 17.75,
        "duration": 0.25,
        "velocity": 0.63,
        "hand": "right"
      },
      {
        "midi": 64,
        "time": 18,
        "duration": 0.5,
        "velocity": 0.63,
        "hand": "right"
      },
      {
        "midi": 69,
        "time": 18.25,
        "duration": 0.167,
        "velocity": 0.63,
        "hand": "right"
      },
      {
        "midi": 69,
        "time": 18.375,
        "duration": 0.167,
        "velocity": 0.63,
        "hand": "right"
      },
      {
        "midi": 69,
        "time": 18.5,
        "duration": 0.5,
        "velocity": 0.63,
        "hand": "right"
      },
      {
        "midi": 69,
        "time": 18.75,
        "duration": 0.167,
        "velocity": 0.63,
        "hand": "right"
      },
      {
        "midi": 69,
        "time": 18.875,
        "duration": 0.167,
        "velocity": 0.63,
        "hand": "right"
      },
      {
        "midi": 64,
        "time": 19,
        "duration": 0.5,
        "velocity": 0.63,
        "hand": "right"
      },
      {
        "midi": 57,
        "time": 19.125,
        "duration": 0.25,
        "velocity": 0.63,
        "hand": "right"
      },
      {
        "midi": 73,
        "time": 19.25,
        "duration": 0.167,
        "velocity": 0.63,
        "hand": "right"
      },
      {
        "midi": 73,
        "time": 19.375,
        "duration": 0.167,
        "velocity": 0.63,
        "hand": "right"
      },
      {
        "midi": 69,
        "time": 19.5,
        "duration": 0.5,
        "velocity": 0.63,
        "hand": "right"
      },
      {
        "midi": 73,
        "time": 19.75,
        "duration": 0.167,
        "velocity": 0.63,
        "hand": "right"
      },
      {
        "midi": 73,
        "time": 19.875,
        "duration": 0.167,
        "velocity": 0.63,
        "hand": "right"
      },
      {
        "midi": 66,
        "time": 20,
        "duration": 0.5,
        "velocity": 0.63,
        "hand": "right"
      },
      {
        "midi": 74,
        "time": 20.25,
        "duration": 0.167,
        "velocity": 0.63,
        "hand": "right"
      },
      {
        "midi": 74,
        "time": 20.375,
        "duration": 0.167,
        "velocity": 0.63,
        "hand": "right"
      },
      {
        "midi": 69,
        "time": 20.5,
        "duration": 0.5,
        "velocity": 0.63,
        "hand": "right"
      },
      {
        "midi": 74,
        "time": 20.75,
        "duration": 0.167,
        "velocity": 0.63,
        "hand": "right"
      },
      {
        "midi": 74,
        "time": 20.875,
        "duration": 0.167,
        "velocity": 0.63,
        "hand": "right"
      },
      {
        "midi": 66,
        "time": 21,
        "duration": 0.5,
        "velocity": 0.63,
        "hand": "right"
      },
      {
        "midi": 57,
        "time": 21.125,
        "duration": 0.25,
        "velocity": 0.63,
        "hand": "right"
      },
      {
        "midi": 74,
        "time": 21.25,
        "duration": 0.167,
        "velocity": 0.63,
        "hand": "right"
      },
      {
        "midi": 74,
        "time": 21.375,
        "duration": 0.167,
        "velocity": 0.63,
        "hand": "right"
      },
      {
        "midi": 69,
        "time": 21.5,
        "duration": 0.5,
        "velocity": 0.63,
        "hand": "right"
      },
      {
        "midi": 74,
        "time": 21.75,
        "duration": 0.167,
        "velocity": 0.63,
        "hand": "right"
      },
      {
        "midi": 74,
        "time": 21.875,
        "duration": 0.167,
        "velocity": 0.63,
        "hand": "right"
      },
      {
        "midi": 64,
        "time": 22,
        "duration": 0.5,
        "velocity": 0.63,
        "hand": "right"
      },
      {
        "midi": 69,
        "time": 22.25,
        "duration": 0.167,
        "velocity": 0.63,
        "hand": "right"
      },
      {
        "midi": 69,
        "time": 22.375,
        "duration": 0.167,
        "velocity": 0.63,
        "hand": "right"
      },
      {
        "midi": 69,
        "time": 22.5,
        "duration": 0.5,
        "velocity": 0.63,
        "hand": "right"
      },
      {
        "midi": 69,
        "time": 22.75,
        "duration": 0.167,
        "velocity": 0.63,
        "hand": "right"
      },
      {
        "midi": 69,
        "time": 22.875,
        "duration": 0.167,
        "velocity": 0.63,
        "hand": "right"
      },
      {
        "midi": 64,
        "time": 23,
        "duration": 0.5,
        "velocity": 0.63,
        "hand": "right"
      },
      {
        "midi": 69,
        "time": 23.25,
        "duration": 0.167,
        "velocity": 0.63,
        "hand": "right"
      },
      {
        "midi": 69,
        "time": 23.375,
        "duration": 0.167,
        "velocity": 0.63,
        "hand": "right"
      },
      {
        "midi": 69,
        "time": 23.5,
        "duration": 0.5,
        "velocity": 0.63,
        "hand": "right"
      },
      {
        "midi": 69,
        "time": 23.75,
        "duration": 0.167,
        "velocity": 0.63,
        "hand": "right"
      },
      {
        "midi": 69,
        "time": 23.875,
        "duration": 0.167,
        "velocity": 0.63,
        "hand": "right"
      },
      {
        "midi": 69,
        "time": 24,
        "duration": 1,
        "velocity": 0.63,
        "hand": "right"
      },
      {
        "midi": 50,
        "time": 24.125,
        "duration": 0.25,
        "velocity": 0.63,
        "hand": "right"
      },
      {
        "midi": 50,
        "time": 24.375,
        "duration": 0.167,
        "velocity": 0.63,
        "hand": "right"
      },
      {
        "midi": 47,
        "time": 24.5,
        "duration": 0.25,
        "velocity": 0.63,
        "hand": "right"
      },
      {
        "midi": 45,
        "time": 24.75,
        "duration": 0.25,
        "velocity": 0.63,
        "hand": "right"
      },
      {
        "midi": 45,
        "time": 25,
        "duration": 0.25,
        "velocity": 0.63,
        "hand": "right"
      },
      {
        "midi": 66,
        "time": 25.25,
        "duration": 0.25,
        "velocity": 0.63,
        "hand": "right"
      },
      {
        "midi": 68,
        "time": 25.5,
        "duration": 0.25,
        "velocity": 0.63,
        "hand": "right"
      },
      {
        "midi": 66,
        "time": 25.75,
        "duration": 0.25,
        "velocity": 0.63,
        "hand": "right"
      },
      {
        "midi": 64,
        "time": 26,
        "duration": 0.5,
        "velocity": 0.63,
        "hand": "right"
      },
      {
        "midi": 69,
        "time": 26.25,
        "duration": 0.167,
        "velocity": 0.63,
        "hand": "right"
      },
      {
        "midi": 69,
        "time": 26.375,
        "duration": 0.167,
        "velocity": 0.63,
        "hand": "right"
      },
      {
        "midi": 69,
        "time": 26.5,
        "duration": 0.5,
        "velocity": 0.63,
        "hand": "right"
      },
      {
        "midi": 69,
        "time": 26.75,
        "duration": 0.167,
        "velocity": 0.63,
        "hand": "right"
      },
      {
        "midi": 69,
        "time": 26.875,
        "duration": 0.167,
        "velocity": 0.63,
        "hand": "right"
      },
      {
        "midi": 64,
        "time": 27,
        "duration": 0.5,
        "velocity": 0.63,
        "hand": "right"
      },
      {
        "midi": 73,
        "time": 27.25,
        "duration": 0.167,
        "velocity": 0.63,
        "hand": "right"
      },
      {
        "midi": 73,
        "time": 27.375,
        "duration": 0.167,
        "velocity": 0.63,
        "hand": "right"
      },
      {
        "midi": 69,
        "time": 27.5,
        "duration": 0.5,
        "velocity": 0.63,
        "hand": "right"
      },
      {
        "midi": 73,
        "time": 27.75,
        "duration": 0.167,
        "velocity": 0.63,
        "hand": "right"
      },
      {
        "midi": 73,
        "time": 27.875,
        "duration": 0.167,
        "velocity": 0.63,
        "hand": "right"
      },
      {
        "midi": 66,
        "time": 28,
        "duration": 0.5,
        "velocity": 0.63,
        "hand": "right"
      },
      {
        "midi": 74,
        "time": 28.25,
        "duration": 0.167,
        "velocity": 0.63,
        "hand": "right"
      },
      {
        "midi": 74,
        "time": 28.375,
        "duration": 0.167,
        "velocity": 0.63,
        "hand": "right"
      },
      {
        "midi": 69,
        "time": 28.5,
        "duration": 0.5,
        "velocity": 0.63,
        "hand": "right"
      },
      {
        "midi": 74,
        "time": 28.75,
        "duration": 0.167,
        "velocity": 0.63,
        "hand": "right"
      },
      {
        "midi": 74,
        "time": 28.875,
        "duration": 0.167,
        "velocity": 0.63,
        "hand": "right"
      },
      {
        "midi": 66,
        "time": 29,
        "duration": 0.5,
        "velocity": 0.63,
        "hand": "right"
      },
      {
        "midi": 74,
        "time": 29.25,
        "duration": 0.167,
        "velocity": 0.63,
        "hand": "right"
      },
      {
        "midi": 74,
        "time": 29.375,
        "duration": 0.167,
        "velocity": 0.63,
        "hand": "right"
      },
      {
        "midi": 69,
        "time": 29.5,
        "duration": 0.5,
        "velocity": 0.63,
        "hand": "right"
      },
      {
        "midi": 74,
        "time": 29.75,
        "duration": 0.167,
        "velocity": 0.63,
        "hand": "right"
      },
      {
        "midi": 74,
        "time": 29.875,
        "duration": 0.167,
        "velocity": 0.63,
        "hand": "right"
      },
      {
        "midi": 64,
        "time": 30,
        "duration": 0.5,
        "velocity": 0.63,
        "hand": "right"
      },
      {
        "midi": 69,
        "time": 30.25,
        "duration": 0.167,
        "velocity": 0.63,
        "hand": "right"
      },
      {
        "midi": 69,
        "time": 30.375,
        "duration": 0.167,
        "velocity": 0.63,
        "hand": "right"
      },
      {
        "midi": 69,
        "time": 30.5,
        "duration": 0.5,
        "velocity": 0.63,
        "hand": "right"
      },
      {
        "midi": 69,
        "time": 30.75,
        "duration": 0.167,
        "velocity": 0.63,
        "hand": "right"
      },
      {
        "midi": 69,
        "time": 30.875,
        "duration": 0.167,
        "velocity": 0.63,
        "hand": "right"
      },
      {
        "midi": 64,
        "time": 31,
        "duration": 0.5,
        "velocity": 0.63,
        "hand": "right"
      },
      {
        "midi": 69,
        "time": 31.25,
        "duration": 0.25,
        "velocity": 0.63,
        "hand": "right"
      },
      {
        "midi": 52,
        "time": 31.375,
        "duration": 0.375,
        "velocity": 0.63,
        "hand": "right"
      },
      {
        "midi": 71,
        "time": 31.5,
        "duration": 0.25,
        "velocity": 0.63,
        "hand": "right"
      },
      {
        "midi": 73,
        "time": 31.75,
        "duration": 0.25,
        "velocity": 0.63,
        "hand": "right"
      },
      {
        "midi": 74,
        "time": 32,
        "duration": 0.5,
        "velocity": 0.63,
        "hand": "right"
      },
      {
        "midi": 62,
        "time": 32.125,
        "duration": 0.25,
        "velocity": 0.63,
        "hand": "right"
      },
      {
        "midi": 57,
        "time": 32.375,
        "duration": 0.167,
        "velocity": 0.63,
        "hand": "right"
      },
      {
        "midi": 74,
        "time": 32.5,
        "duration": 0.75,
        "velocity": 0.63,
        "hand": "right"
      },
      {
        "midi": 57,
        "time": 32.75,
        "duration": 0.25,
        "velocity": 0.63,
        "hand": "right"
      },
      {
        "midi": 54,
        "time": 33,
        "duration": 0.5,
        "velocity": 0.63,
        "hand": "right"
      },
      {
        "midi": 69,
        "time": 33.25,
        "duration": 0.25,
        "velocity": 0.63,
        "hand": "right"
      },
      {
        "midi": 45,
        "time": 33.375,
        "duration": 0.167,
        "velocity": 0.39,
        "hand": "right"
      },
      {
        "midi": 71,
        "time": 33.5,
        "duration": 0.25,
        "velocity": 0.63,
        "hand": "right"
      },
      {
        "midi": 69,
        "time": 33.75,
        "duration": 0.25,
        "velocity": 0.63,
        "hand": "right"
      },
      {
        "midi": 45,
        "time": 33.875,
        "duration": 0.167,
        "velocity": 0.39,
        "hand": "right"
      },
      {
        "midi": 69,
        "time": 34,
        "duration": 0.5,
        "velocity": 0.63,
        "hand": "right"
      },
      {
        "midi": 62,
        "time": 34.125,
        "duration": 0.25,
        "velocity": 0.63,
        "hand": "right"
      },
      {
        "midi": 45,
        "time": 34.25,
        "duration": 0.167,
        "velocity": 0.39,
        "hand": "right"
      },
      {
        "midi": 57,
        "time": 34.375,
        "duration": 0.167,
        "velocity": 0.63,
        "hand": "right"
      },
      {
        "midi": 69,
        "time": 34.5,
        "duration": 0.5,
        "velocity": 0.63,
        "hand": "right"
      },
      {
        "midi": 57,
        "time": 34.75,
        "duration": 0.25,
        "velocity": 0.63,
        "hand": "right"
      },
      {
        "midi": 45,
        "time": 34.875,
        "duration": 0.167,
        "velocity": 0.39,
        "hand": "right"
      },
      {
        "midi": 61,
        "time": 35,
        "duration": 0.5,
        "velocity": 0.63,
        "hand": "right"
      },
      {
        "midi": 69,
        "time": 35.125,
        "duration": 0.25,
        "velocity": 0.63,
        "hand": "right"
      },
      {
        "midi": 64,
        "time": 35.25,
        "duration": 0.167,
        "velocity": 0.39,
        "hand": "right"
      },
      {
        "midi": 69,
        "time": 35.375,
        "duration": 0.167,
        "velocity": 0.63,
        "hand": "right"
      },
      {
        "midi": 71,
        "time": 35.5,
        "duration": 0.25,
        "velocity": 0.63,
        "hand": "right"
      },
      {
        "midi": 69,
        "time": 35.75,
        "duration": 0.25,
        "velocity": 0.63,
        "hand": "right"
      },
      {
        "midi": 64,
        "time": 35.875,
        "duration": 0.167,
        "velocity": 0.39,
        "hand": "right"
      },
      {
        "midi": 69,
        "time": 36,
        "duration": 0.5,
        "velocity": 0.63,
        "hand": "right"
      },
      {
        "midi": 61,
        "time": 36.125,
        "duration": 0.25,
        "velocity": 0.63,
        "hand": "right"
      },
      {
        "midi": 64,
        "time": 36.25,
        "duration": 0.167,
        "velocity": 0.39,
        "hand": "right"
      },
      {
        "midi": 64,
        "time": 36.375,
        "duration": 0.167,
        "velocity": 0.39,
        "hand": "right"
      },
      {
        "midi": 69,
        "time": 36.5,
        "duration": 0.5,
        "velocity": 0.63,
        "hand": "right"
      },
      {
        "midi": 64,
        "time": 36.75,
        "duration": 0.167,
        "velocity": 0.39,
        "hand": "right"
      },
      {
        "midi": 64,
        "time": 36.875,
        "duration": 0.167,
        "velocity": 0.39,
        "hand": "right"
      },
      {
        "midi": 61,
        "time": 37,
        "duration": 0.167,
        "velocity": 0.63,
        "hand": "right"
      },
      {
        "midi": 69,
        "time": 37.125,
        "duration": 0.25,
        "velocity": 0.63,
        "hand": "right"
      },
      {
        "midi": 64,
        "time": 37.25,
        "duration": 0.167,
        "velocity": 0.39,
        "hand": "right"
      },
      {
        "midi": 69,
        "time": 37.375,
        "duration": 0.167,
        "velocity": 0.63,
        "hand": "right"
      },
      {
        "midi": 71,
        "time": 37.5,
        "duration": 0.25,
        "velocity": 0.63,
        "hand": "right"
      },
      {
        "midi": 69,
        "time": 37.75,
        "duration": 0.25,
        "velocity": 0.63,
        "hand": "right"
      },
      {
        "midi": 64,
        "time": 37.875,
        "duration": 0.167,
        "velocity": 0.39,
        "hand": "right"
      },
      {
        "midi": 69,
        "time": 38,
        "duration": 0.5,
        "velocity": 0.63,
        "hand": "right"
      },
      {
        "midi": 64,
        "time": 38.25,
        "duration": 0.167,
        "velocity": 0.39,
        "hand": "right"
      },
      {
        "midi": 64,
        "time": 38.375,
        "duration": 0.167,
        "velocity": 0.39,
        "hand": "right"
      },
      {
        "midi": 69,
        "time": 38.5,
        "duration": 0.5,
        "velocity": 0.63,
        "hand": "right"
      },
      {
        "midi": 64,
        "time": 38.75,
        "duration": 0.167,
        "velocity": 0.39,
        "hand": "right"
      },
      {
        "midi": 64,
        "time": 38.875,
        "duration": 0.167,
        "velocity": 0.39,
        "hand": "right"
      },
      {
        "midi": 62,
        "time": 39,
        "duration": 0.5,
        "velocity": 0.63,
        "hand": "right"
      },
      {
        "midi": 69,
        "time": 39.25,
        "duration": 0.25,
        "velocity": 0.63,
        "hand": "right"
      },
      {
        "midi": 50,
        "time": 39.375,
        "duration": 0.167,
        "velocity": 0.39,
        "hand": "right"
      },
      {
        "midi": 71,
        "time": 39.5,
        "duration": 0.25,
        "velocity": 0.63,
        "hand": "right"
      },
      {
        "midi": 73,
        "time": 39.75,
        "duration": 0.25,
        "velocity": 0.63,
        "hand": "right"
      },
      {
        "midi": 74,
        "time": 40,
        "duration": 1,
        "velocity": 0.63,
        "hand": "right"
      },
      {
        "midi": 62,
        "time": 40.125,
        "duration": 0.25,
        "velocity": 0.63,
        "hand": "right"
      },
      {
        "midi": 62,
        "time": 40.25,
        "duration": 0.167,
        "velocity": 0.39,
        "hand": "right"
      },
      {
        "midi": 62,
        "time": 40.375,
        "duration": 0.167,
        "velocity": 0.39,
        "hand": "right"
      },
      {
        "midi": 59,
        "time": 40.5,
        "duration": 0.25,
        "velocity": 0.63,
        "hand": "right"
      },
      {
        "midi": 62,
        "time": 40.75,
        "duration": 0.167,
        "velocity": 0.39,
        "hand": "right"
      },
      {
        "midi": 62,
        "time": 40.875,
        "duration": 0.167,
        "velocity": 0.39,
        "hand": "right"
      },
      {
        "midi": 54,
        "time": 41,
        "duration": 0.5,
        "velocity": 0.63,
        "hand": "right"
      },
      {
        "midi": 69,
        "time": 41.25,
        "duration": 0.25,
        "velocity": 0.63,
        "hand": "right"
      },
      {
        "midi": 45,
        "time": 41.375,
        "duration": 0.167,
        "velocity": 0.39,
        "hand": "right"
      },
      {
        "midi": 71,
        "time": 41.5,
        "duration": 0.25,
        "velocity": 0.63,
        "hand": "right"
      },
      {
        "midi": 69,
        "time": 41.75,
        "duration": 0.25,
        "velocity": 0.63,
        "hand": "right"
      },
      {
        "midi": 45,
        "time": 41.875,
        "duration": 0.167,
        "velocity": 0.39,
        "hand": "right"
      },
      {
        "midi": 69,
        "time": 42,
        "duration": 0.5,
        "velocity": 0.63,
        "hand": "right"
      },
      {
        "midi": 62,
        "time": 42.125,
        "duration": 0.25,
        "velocity": 0.63,
        "hand": "right"
      },
      {
        "midi": 45,
        "time": 42.25,
        "duration": 0.167,
        "velocity": 0.39,
        "hand": "right"
      },
      {
        "midi": 57,
        "time": 42.375,
        "duration": 0.167,
        "velocity": 0.63,
        "hand": "right"
      },
      {
        "midi": 69,
        "time": 42.5,
        "duration": 0.5,
        "velocity": 0.63,
        "hand": "right"
      },
      {
        "midi": 57,
        "time": 42.75,
        "duration": 0.25,
        "velocity": 0.63,
        "hand": "right"
      },
      {
        "midi": 45,
        "time": 42.875,
        "duration": 0.167,
        "velocity": 0.39,
        "hand": "right"
      },
      {
        "midi": 55,
        "time": 43,
        "duration": 0.5,
        "velocity": 0.63,
        "hand": "right"
      },
      {
        "midi": 69,
        "time": 43.25,
        "duration": 0.25,
        "velocity": 0.63,
        "hand": "right"
      },
      {
        "midi": 64,
        "time": 43.375,
        "duration": 0.167,
        "velocity": 0.39,
        "hand": "right"
      },
      {
        "midi": 71,
        "time": 43.5,
        "duration": 0.25,
        "velocity": 0.63,
        "hand": "right"
      },
      {
        "midi": 69,
        "time": 43.75,
        "duration": 0.25,
        "velocity": 0.63,
        "hand": "right"
      },
      {
        "midi": 64,
        "time": 43.875,
        "duration": 0.167,
        "velocity": 0.39,
        "hand": "right"
      },
      {
        "midi": 69,
        "time": 44,
        "duration": 0.5,
        "velocity": 0.63,
        "hand": "right"
      },
      {
        "midi": 61,
        "time": 44.125,
        "duration": 0.25,
        "velocity": 0.63,
        "hand": "right"
      },
      {
        "midi": 64,
        "time": 44.25,
        "duration": 0.167,
        "velocity": 0.39,
        "hand": "right"
      },
      {
        "midi": 64,
        "time": 44.375,
        "duration": 0.167,
        "velocity": 0.39,
        "hand": "right"
      },
      {
        "midi": 69,
        "time": 44.5,
        "duration": 0.5,
        "velocity": 0.63,
        "hand": "right"
      },
      {
        "midi": 64,
        "time": 44.75,
        "duration": 0.167,
        "velocity": 0.39,
        "hand": "right"
      },
      {
        "midi": 64,
        "time": 44.875,
        "duration": 0.167,
        "velocity": 0.39,
        "hand": "right"
      },
      {
        "midi": 61,
        "time": 45,
        "duration": 0.167,
        "velocity": 0.63,
        "hand": "right"
      },
      {
        "midi": 61,
        "time": 45.125,
        "duration": 0.25,
        "velocity": 0.63,
        "hand": "right"
      },
      {
        "midi": 69,
        "time": 45.25,
        "duration": 0.25,
        "velocity": 0.63,
        "hand": "right"
      },
      {
        "midi": 64,
        "time": 45.375,
        "duration": 0.167,
        "velocity": 0.39,
        "hand": "right"
      },
      {
        "midi": 71,
        "time": 45.5,
        "duration": 0.25,
        "velocity": 0.63,
        "hand": "right"
      },
      {
        "midi": 69,
        "time": 45.75,
        "duration": 0.25,
        "velocity": 0.63,
        "hand": "right"
      },
      {
        "midi": 64,
        "time": 45.875,
        "duration": 0.167,
        "velocity": 0.39,
        "hand": "right"
      },
      {
        "midi": 69,
        "time": 46,
        "duration": 0.167,
        "velocity": 0.63,
        "hand": "right"
      },
      {
        "midi": 69,
        "time": 46.125,
        "duration": 0.25,
        "velocity": 0.63,
        "hand": "right"
      },
      {
        "midi": 57,
        "time": 46.25,
        "duration": 0.25,
        "velocity": 0.63,
        "hand": "right"
      },
      {
        "midi": 69,
        "time": 46.375,
        "duration": 0.167,
        "velocity": 0.63,
        "hand": "right"
      },
      {
        "midi": 71,
        "time": 46.5,
        "duration": 0.25,
        "velocity": 0.63,
        "hand": "right"
      },
      {
        "midi": 73,
        "time": 46.75,
        "duration": 0.25,
        "velocity": 0.63,
        "hand": "right"
      },
      {
        "midi": 74,
        "time": 47,
        "duration": 0.5,
        "velocity": 0.63,
        "hand": "right"
      },
      {
        "midi": 62,
        "time": 47.25,
        "duration": 0.167,
        "velocity": 0.63,
        "hand": "right"
      },
      {
        "midi": 62,
        "time": 47.375,
        "duration": 0.167,
        "velocity": 0.63,
        "hand": "right"
      },
      {
        "midi": 74,
        "time": 47.5,
        "duration": 0.5,
        "velocity": 0.63,
        "hand": "right"
      },
      {
        "midi": 62,
        "time": 47.75,
        "duration": 0.167,
        "velocity": 0.63,
        "hand": "right"
      },
      {
        "midi": 62,
        "time": 47.875,
        "duration": 0.167,
        "velocity": 0.63,
        "hand": "right"
      },
      {
        "midi": 74,
        "time": 48.25,
        "duration": 0.167,
        "velocity": 0.63,
        "hand": "right"
      },
      {
        "midi": 74,
        "time": 48.375,
        "duration": 0.167,
        "velocity": 0.63,
        "hand": "right"
      },
      {
        "midi": 74,
        "time": 48.75,
        "duration": 0.167,
        "velocity": 0.63,
        "hand": "right"
      },
      {
        "midi": 74,
        "time": 48.875,
        "duration": 0.167,
        "velocity": 0.63,
        "hand": "right"
      },
      {
        "midi": 62,
        "time": 49.25,
        "duration": 0.167,
        "velocity": 0.63,
        "hand": "right"
      },
      {
        "midi": 62,
        "time": 49.375,
        "duration": 0.167,
        "velocity": 0.63,
        "hand": "right"
      },
      {
        "midi": 62,
        "time": 49.75,
        "duration": 0.167,
        "velocity": 0.63,
        "hand": "right"
      },
      {
        "midi": 62,
        "time": 49.875,
        "duration": 0.167,
        "velocity": 0.63,
        "hand": "right"
      },
      {
        "midi": 62,
        "time": 50.25,
        "duration": 0.167,
        "velocity": 0.63,
        "hand": "right"
      },
      {
        "midi": 62,
        "time": 50.375,
        "duration": 0.167,
        "velocity": 0.63,
        "hand": "right"
      },
      {
        "midi": 62,
        "time": 50.75,
        "duration": 0.167,
        "velocity": 0.63,
        "hand": "right"
      },
      {
        "midi": 62,
        "time": 50.875,
        "duration": 0.167,
        "velocity": 0.63,
        "hand": "right"
      },
      {
        "midi": 50,
        "time": 51.25,
        "duration": 0.167,
        "velocity": 0.63,
        "hand": "right"
      },
      {
        "midi": 50,
        "time": 51.375,
        "duration": 0.167,
        "velocity": 0.63,
        "hand": "right"
      },
      {
        "midi": 50,
        "time": 51.75,
        "duration": 0.167,
        "velocity": 0.63,
        "hand": "right"
      },
      {
        "midi": 50,
        "time": 51.875,
        "duration": 0.167,
        "velocity": 0.63,
        "hand": "right"
      },
      {
        "midi": 50,
        "time": 52.25,
        "duration": 0.167,
        "velocity": 0.63,
        "hand": "right"
      },
      {
        "midi": 50,
        "time": 52.375,
        "duration": 0.167,
        "velocity": 0.63,
        "hand": "right"
      },
      {
        "midi": 50,
        "time": 52.75,
        "duration": 0.167,
        "velocity": 0.63,
        "hand": "right"
      },
      {
        "midi": 50,
        "time": 52.875,
        "duration": 0.167,
        "velocity": 0.63,
        "hand": "right"
      },
      {
        "midi": 50,
        "time": 53.25,
        "duration": 0.167,
        "velocity": 0.63,
        "hand": "right"
      },
      {
        "midi": 50,
        "time": 53.375,
        "duration": 0.167,
        "velocity": 0.63,
        "hand": "right"
      },
      {
        "midi": 50,
        "time": 53.75,
        "duration": 0.167,
        "velocity": 0.63,
        "hand": "right"
      },
      {
        "midi": 50,
        "time": 53.875,
        "duration": 0.167,
        "velocity": 0.63,
        "hand": "right"
      }
    ],
    "medium": [
      {
        "midi": 69,
        "time": 1.75,
        "duration": 0.25,
        "velocity": 0.63,
        "hand": "right"
      },
      {
        "midi": 74,
        "time": 2,
        "duration": 0.125,
        "velocity": 0.63,
        "hand": "right"
      },
      {
        "midi": 74,
        "time": 2.125,
        "duration": 0.25,
        "velocity": 0.63,
        "hand": "right"
      },
      {
        "midi": 54,
        "time": 2.25,
        "duration": 0.125,
        "velocity": 0.63,
        "hand": "left"
      },
      {
        "midi": 57,
        "time": 2.25,
        "duration": 0.125,
        "velocity": 0.63,
        "hand": "left"
      },
      {
        "midi": 62,
        "time": 2.25,
        "duration": 0.125,
        "velocity": 0.63,
        "hand": "right"
      },
      {
        "midi": 54,
        "time": 2.375,
        "duration": 0.125,
        "velocity": 0.63,
        "hand": "left"
      },
      {
        "midi": 62,
        "time": 2.375,
        "duration": 0.125,
        "velocity": 0.63,
        "hand": "right"
      },
      {
        "midi": 69,
        "time": 2.375,
        "duration": 0.125,
        "velocity": 0.63,
        "hand": "right"
      },
      {
        "midi": 71,
        "time": 2.5,
        "duration": 0.25,
        "velocity": 0.63,
        "hand": "right"
      },
      {
        "midi": 54,
        "time": 2.75,
        "duration": 0.125,
        "velocity": 0.63,
        "hand": "left"
      },
      {
        "midi": 62,
        "time": 2.75,
        "duration": 0.125,
        "velocity": 0.63,
        "hand": "right"
      },
      {
        "midi": 69,
        "time": 2.75,
        "duration": 0.25,
        "velocity": 0.63,
        "hand": "right"
      },
      {
        "midi": 54,
        "time": 2.875,
        "duration": 0.125,
        "velocity": 0.63,
        "hand": "left"
      },
      {
        "midi": 57,
        "time": 2.875,
        "duration": 0.125,
        "velocity": 0.63,
        "hand": "left"
      },
      {
        "midi": 62,
        "time": 2.875,
        "duration": 0.125,
        "velocity": 0.63,
        "hand": "right"
      },
      {
        "midi": 66,
        "time": 3,
        "duration": 0.5,
        "velocity": 0.63,
        "hand": "right"
      },
      {
        "midi": 54,
        "time": 3.25,
        "duration": 0.125,
        "velocity": 0.63,
        "hand": "left"
      },
      {
        "midi": 57,
        "time": 3.25,
        "duration": 0.125,
        "velocity": 0.63,
        "hand": "left"
      },
      {
        "midi": 62,
        "time": 3.25,
        "duration": 0.125,
        "velocity": 0.63,
        "hand": "right"
      },
      {
        "midi": 54,
        "time": 3.375,
        "duration": 0.125,
        "velocity": 0.63,
        "hand": "left"
      },
      {
        "midi": 57,
        "time": 3.375,
        "duration": 0.125,
        "velocity": 0.63,
        "hand": "left"
      },
      {
        "midi": 62,
        "time": 3.375,
        "duration": 0.125,
        "velocity": 0.63,
        "hand": "right"
      },
      {
        "midi": 54,
        "time": 3.75,
        "duration": 0.125,
        "velocity": 0.63,
        "hand": "left"
      },
      {
        "midi": 62,
        "time": 3.75,
        "duration": 0.125,
        "velocity": 0.63,
        "hand": "right"
      },
      {
        "midi": 69,
        "time": 3.75,
        "duration": 0.25,
        "velocity": 0.63,
        "hand": "right"
      },
      {
        "midi": 54,
        "time": 3.875,
        "duration": 0.125,
        "velocity": 0.63,
        "hand": "left"
      },
      {
        "midi": 57,
        "time": 3.875,
        "duration": 0.125,
        "velocity": 0.63,
        "hand": "left"
      },
      {
        "midi": 62,
        "time": 3.875,
        "duration": 0.125,
        "velocity": 0.63,
        "hand": "right"
      },
      {
        "midi": 74,
        "time": 4,
        "duration": 0.125,
        "velocity": 0.63,
        "hand": "right"
      },
      {
        "midi": 74,
        "time": 4.125,
        "duration": 0.25,
        "velocity": 0.63,
        "hand": "right"
      },
      {
        "midi": 54,
        "time": 4.25,
        "duration": 0.125,
        "velocity": 0.63,
        "hand": "left"
      },
      {
        "midi": 57,
        "time": 4.25,
        "duration": 0.125,
        "velocity": 0.63,
        "hand": "left"
      },
      {
        "midi": 62,
        "time": 4.25,
        "duration": 0.125,
        "velocity": 0.63,
        "hand": "right"
      },
      {
        "midi": 54,
        "time": 4.375,
        "duration": 0.125,
        "velocity": 0.63,
        "hand": "left"
      },
      {
        "midi": 62,
        "time": 4.375,
        "duration": 0.125,
        "velocity": 0.63,
        "hand": "right"
      },
      {
        "midi": 69,
        "time": 4.375,
        "duration": 0.125,
        "velocity": 0.63,
        "hand": "right"
      },
      {
        "midi": 71,
        "time": 4.5,
        "duration": 0.25,
        "velocity": 0.63,
        "hand": "right"
      },
      {
        "midi": 54,
        "time": 4.75,
        "duration": 0.125,
        "velocity": 0.63,
        "hand": "left"
      },
      {
        "midi": 62,
        "time": 4.75,
        "duration": 0.125,
        "velocity": 0.63,
        "hand": "right"
      },
      {
        "midi": 69,
        "time": 4.75,
        "duration": 0.25,
        "velocity": 0.63,
        "hand": "right"
      },
      {
        "midi": 54,
        "time": 4.875,
        "duration": 0.125,
        "velocity": 0.63,
        "hand": "left"
      },
      {
        "midi": 57,
        "time": 4.875,
        "duration": 0.125,
        "velocity": 0.63,
        "hand": "left"
      },
      {
        "midi": 62,
        "time": 4.875,
        "duration": 0.125,
        "velocity": 0.63,
        "hand": "right"
      },
      {
        "midi": 73,
        "time": 5,
        "duration": 0.5,
        "velocity": 0.63,
        "hand": "right"
      },
      {
        "midi": 52,
        "time": 5.25,
        "duration": 0.125,
        "velocity": 0.63,
        "hand": "left"
      },
      {
        "midi": 57,
        "time": 5.25,
        "duration": 0.125,
        "velocity": 0.63,
        "hand": "left"
      },
      {
        "midi": 61,
        "time": 5.25,
        "duration": 0.125,
        "velocity": 0.63,
        "hand": "right"
      },
      {
        "midi": 52,
        "time": 5.375,
        "duration": 0.125,
        "velocity": 0.63,
        "hand": "left"
      },
      {
        "midi": 57,
        "time": 5.375,
        "duration": 0.125,
        "velocity": 0.63,
        "hand": "left"
      },
      {
        "midi": 61,
        "time": 5.375,
        "duration": 0.125,
        "velocity": 0.63,
        "hand": "right"
      },
      {
        "midi": 52,
        "time": 5.75,
        "duration": 0.125,
        "velocity": 0.63,
        "hand": "left"
      },
      {
        "midi": 61,
        "time": 5.75,
        "duration": 0.125,
        "velocity": 0.63,
        "hand": "right"
      },
      {
        "midi": 69,
        "time": 5.75,
        "duration": 0.125,
        "velocity": 0.63,
        "hand": "right"
      },
      {
        "midi": 52,
        "time": 5.875,
        "duration": 0.125,
        "velocity": 0.63,
        "hand": "left"
      },
      {
        "midi": 61,
        "time": 5.875,
        "duration": 0.125,
        "velocity": 0.63,
        "hand": "right"
      },
      {
        "midi": 69,
        "time": 5.875,
        "duration": 0.125,
        "velocity": 0.63,
        "hand": "right"
      },
      {
        "midi": 73,
        "time": 6,
        "duration": 0.125,
        "velocity": 0.63,
        "hand": "right"
      },
      {
        "midi": 73,
        "time": 6.125,
        "duration": 0.25,
        "velocity": 0.63,
        "hand": "right"
      },
      {
        "midi": 52,
        "time": 6.25,
        "duration": 0.125,
        "velocity": 0.63,
        "hand": "left"
      },
      {
        "midi": 57,
        "time": 6.25,
        "duration": 0.125,
        "velocity": 0.63,
        "hand": "left"
      },
      {
        "midi": 61,
        "time": 6.25,
        "duration": 0.125,
        "velocity": 0.63,
        "hand": "right"
      },
      {
        "midi": 52,
        "time": 6.375,
        "duration": 0.125,
        "velocity": 0.63,
        "hand": "left"
      },
      {
        "midi": 61,
        "time": 6.375,
        "duration": 0.125,
        "velocity": 0.63,
        "hand": "right"
      },
      {
        "midi": 69,
        "time": 6.375,
        "duration": 0.125,
        "velocity": 0.63,
        "hand": "right"
      },
      {
        "midi": 71,
        "time": 6.5,
        "duration": 0.25,
        "velocity": 0.63,
        "hand": "right"
      },
      {
        "midi": 52,
        "time": 6.75,
        "duration": 0.125,
        "velocity": 0.63,
        "hand": "left"
      },
      {
        "midi": 61,
        "time": 6.75,
        "duration": 0.125,
        "velocity": 0.63,
        "hand": "right"
      },
      {
        "midi": 69,
        "time": 6.75,
        "duration": 0.25,
        "velocity": 0.63,
        "hand": "right"
      },
      {
        "midi": 52,
        "time": 6.875,
        "duration": 0.125,
        "velocity": 0.63,
        "hand": "left"
      },
      {
        "midi": 57,
        "time": 6.875,
        "duration": 0.125,
        "velocity": 0.63,
        "hand": "left"
      },
      {
        "midi": 61,
        "time": 6.875,
        "duration": 0.125,
        "velocity": 0.63,
        "hand": "right"
      },
      {
        "midi": 73,
        "time": 7,
        "duration": 0.125,
        "velocity": 0.63,
        "hand": "right"
      },
      {
        "midi": 73,
        "time": 7.125,
        "duration": 0.25,
        "velocity": 0.63,
        "hand": "right"
      },
      {
        "midi": 52,
        "time": 7.25,
        "duration": 0.125,
        "velocity": 0.63,
        "hand": "left"
      },
      {
        "midi": 57,
        "time": 7.25,
        "duration": 0.125,
        "velocity": 0.63,
        "hand": "left"
      },
      {
        "midi": 61,
        "time": 7.25,
        "duration": 0.125,
        "velocity": 0.63,
        "hand": "right"
      },
      {
        "midi": 52,
        "time": 7.375,
        "duration": 0.125,
        "velocity": 0.63,
        "hand": "left"
      },
      {
        "midi": 61,
        "time": 7.375,
        "duration": 0.125,
        "velocity": 0.63,
        "hand": "right"
      },
      {
        "midi": 69,
        "time": 7.375,
        "duration": 0.125,
        "velocity": 0.63,
        "hand": "right"
      },
      {
        "midi": 71,
        "time": 7.5,
        "duration": 0.25,
        "velocity": 0.63,
        "hand": "right"
      },
      {
        "midi": 52,
        "time": 7.75,
        "duration": 0.125,
        "velocity": 0.63,
        "hand": "left"
      },
      {
        "midi": 61,
        "time": 7.75,
        "duration": 0.125,
        "velocity": 0.63,
        "hand": "right"
      },
      {
        "midi": 69,
        "time": 7.75,
        "duration": 0.25,
        "velocity": 0.63,
        "hand": "right"
      },
      {
        "midi": 52,
        "time": 7.875,
        "duration": 0.125,
        "velocity": 0.63,
        "hand": "left"
      },
      {
        "midi": 57,
        "time": 7.875,
        "duration": 0.125,
        "velocity": 0.63,
        "hand": "left"
      },
      {
        "midi": 61,
        "time": 7.875,
        "duration": 0.125,
        "velocity": 0.63,
        "hand": "right"
      },
      {
        "midi": 73,
        "time": 8,
        "duration": 0.25,
        "velocity": 0.63,
        "hand": "right"
      },
      {
        "midi": 52,
        "time": 8.25,
        "duration": 0.125,
        "velocity": 0.63,
        "hand": "left"
      },
      {
        "midi": 61,
        "time": 8.25,
        "duration": 0.125,
        "velocity": 0.63,
        "hand": "right"
      },
      {
        "midi": 69,
        "time": 8.25,
        "duration": 0.25,
        "velocity": 0.63,
        "hand": "right"
      },
      {
        "midi": 52,
        "time": 8.375,
        "duration": 0.125,
        "velocity": 0.63,
        "hand": "left"
      },
      {
        "midi": 57,
        "time": 8.375,
        "duration": 0.125,
        "velocity": 0.63,
        "hand": "left"
      },
      {
        "midi": 61,
        "time": 8.375,
        "duration": 0.125,
        "velocity": 0.63,
        "hand": "right"
      },
      {
        "midi": 71,
        "time": 8.5,
        "duration": 0.25,
        "velocity": 0.63,
        "hand": "right"
      },
      {
        "midi": 52,
        "time": 8.75,
        "duration": 0.125,
        "velocity": 0.63,
        "hand": "left"
      },
      {
        "midi": 61,
        "time": 8.75,
        "duration": 0.125,
        "velocity": 0.63,
        "hand": "right"
      },
      {
        "midi": 73,
        "time": 8.75,
        "duration": 0.25,
        "velocity": 0.63,
        "hand": "right"
      },
      {
        "midi": 52,
        "time": 8.875,
        "duration": 0.125,
        "velocity": 0.63,
        "hand": "left"
      },
      {
        "midi": 57,
        "time": 8.875,
        "duration": 0.125,
        "velocity": 0.63,
        "hand": "left"
      },
      {
        "midi": 61,
        "time": 8.875,
        "duration": 0.125,
        "velocity": 0.63,
        "hand": "right"
      },
      {
        "midi": 54,
        "time": 9,
        "duration": 0.25,
        "velocity": 0.63,
        "hand": "left"
      },
      {
        "midi": 62,
        "time": 9,
        "duration": 0.25,
        "velocity": 0.63,
        "hand": "right"
      },
      {
        "midi": 74,
        "time": 9,
        "duration": 0.25,
        "velocity": 0.63,
        "hand": "right"
      },
      {
        "midi": 69,
        "time": 9.75,
        "duration": 0.25,
        "velocity": 0.63,
        "hand": "right"
      },
      {
        "midi": 74,
        "time": 10,
        "duration": 0.125,
        "velocity": 0.63,
        "hand": "right"
      },
      {
        "midi": 74,
        "time": 10.125,
        "duration": 0.25,
        "velocity": 0.63,
        "hand": "right"
      },
      {
        "midi": 54,
        "time": 10.25,
        "duration": 0.125,
        "velocity": 0.63,
        "hand": "left"
      },
      {
        "midi": 57,
        "time": 10.25,
        "duration": 0.125,
        "velocity": 0.63,
        "hand": "left"
      },
      {
        "midi": 62,
        "time": 10.25,
        "duration": 0.125,
        "velocity": 0.63,
        "hand": "right"
      },
      {
        "midi": 54,
        "time": 10.375,
        "duration": 0.125,
        "velocity": 0.63,
        "hand": "left"
      },
      {
        "midi": 62,
        "time": 10.375,
        "duration": 0.125,
        "velocity": 0.63,
        "hand": "right"
      },
      {
        "midi": 69,
        "time": 10.375,
        "duration": 0.125,
        "velocity": 0.63,
        "hand": "right"
      },
      {
        "midi": 71,
        "time": 10.5,
        "duration": 0.25,
        "velocity": 0.63,
        "hand": "right"
      },
      {
        "midi": 54,
        "time": 10.75,
        "duration": 0.125,
        "velocity": 0.63,
        "hand": "left"
      },
      {
        "midi": 62,
        "time": 10.75,
        "duration": 0.125,
        "velocity": 0.63,
        "hand": "right"
      },
      {
        "midi": 69,
        "time": 10.75,
        "duration": 0.25,
        "velocity": 0.63,
        "hand": "right"
      },
      {
        "midi": 54,
        "time": 10.875,
        "duration": 0.125,
        "velocity": 0.63,
        "hand": "left"
      },
      {
        "midi": 57,
        "time": 10.875,
        "duration": 0.125,
        "velocity": 0.63,
        "hand": "left"
      },
      {
        "midi": 62,
        "time": 10.875,
        "duration": 0.125,
        "velocity": 0.63,
        "hand": "right"
      },
      {
        "midi": 66,
        "time": 11,
        "duration": 0.5,
        "velocity": 0.63,
        "hand": "right"
      },
      {
        "midi": 54,
        "time": 11.25,
        "duration": 0.125,
        "velocity": 0.63,
        "hand": "left"
      },
      {
        "midi": 57,
        "time": 11.25,
        "duration": 0.125,
        "velocity": 0.63,
        "hand": "left"
      },
      {
        "midi": 62,
        "time": 11.25,
        "duration": 0.125,
        "velocity": 0.63,
        "hand": "right"
      },
      {
        "midi": 54,
        "time": 11.375,
        "duration": 0.125,
        "velocity": 0.63,
        "hand": "left"
      },
      {
        "midi": 57,
        "time": 11.375,
        "duration": 0.125,
        "velocity": 0.63,
        "hand": "left"
      },
      {
        "midi": 62,
        "time": 11.375,
        "duration": 0.125,
        "velocity": 0.63,
        "hand": "right"
      },
      {
        "midi": 54,
        "time": 11.75,
        "duration": 0.125,
        "velocity": 0.63,
        "hand": "left"
      },
      {
        "midi": 62,
        "time": 11.75,
        "duration": 0.125,
        "velocity": 0.63,
        "hand": "right"
      },
      {
        "midi": 69,
        "time": 11.75,
        "duration": 0.25,
        "velocity": 0.63,
        "hand": "right"
      },
      {
        "midi": 54,
        "time": 11.875,
        "duration": 0.125,
        "velocity": 0.63,
        "hand": "left"
      },
      {
        "midi": 57,
        "time": 11.875,
        "duration": 0.125,
        "velocity": 0.63,
        "hand": "left"
      },
      {
        "midi": 62,
        "time": 11.875,
        "duration": 0.125,
        "velocity": 0.63,
        "hand": "right"
      },
      {
        "midi": 74,
        "time": 12,
        "duration": 0.125,
        "velocity": 0.63,
        "hand": "right"
      },
      {
        "midi": 74,
        "time": 12.125,
        "duration": 0.25,
        "velocity": 0.63,
        "hand": "right"
      },
      {
        "midi": 54,
        "time": 12.25,
        "duration": 0.125,
        "velocity": 0.63,
        "hand": "left"
      },
      {
        "midi": 57,
        "time": 12.25,
        "duration": 0.125,
        "velocity": 0.63,
        "hand": "left"
      },
      {
        "midi": 62,
        "time": 12.25,
        "duration": 0.125,
        "velocity": 0.63,
        "hand": "right"
      },
      {
        "midi": 54,
        "time": 12.375,
        "duration": 0.125,
        "velocity": 0.63,
        "hand": "left"
      },
      {
        "midi": 62,
        "time": 12.375,
        "duration": 0.125,
        "velocity": 0.63,
        "hand": "right"
      },
      {
        "midi": 69,
        "time": 12.375,
        "duration": 0.125,
        "velocity": 0.63,
        "hand": "right"
      },
      {
        "midi": 71,
        "time": 12.5,
        "duration": 0.25,
        "velocity": 0.63,
        "hand": "right"
      },
      {
        "midi": 54,
        "time": 12.75,
        "duration": 0.125,
        "velocity": 0.63,
        "hand": "left"
      },
      {
        "midi": 62,
        "time": 12.75,
        "duration": 0.125,
        "velocity": 0.63,
        "hand": "right"
      },
      {
        "midi": 69,
        "time": 12.75,
        "duration": 0.25,
        "velocity": 0.63,
        "hand": "right"
      },
      {
        "midi": 54,
        "time": 12.875,
        "duration": 0.125,
        "velocity": 0.63,
        "hand": "left"
      },
      {
        "midi": 57,
        "time": 12.875,
        "duration": 0.125,
        "velocity": 0.63,
        "hand": "left"
      },
      {
        "midi": 62,
        "time": 12.875,
        "duration": 0.125,
        "velocity": 0.63,
        "hand": "right"
      },
      {
        "midi": 73,
        "time": 13,
        "duration": 0.5,
        "velocity": 0.63,
        "hand": "right"
      },
      {
        "midi": 52,
        "time": 13.25,
        "duration": 0.125,
        "velocity": 0.63,
        "hand": "left"
      },
      {
        "midi": 57,
        "time": 13.25,
        "duration": 0.125,
        "velocity": 0.63,
        "hand": "left"
      },
      {
        "midi": 61,
        "time": 13.25,
        "duration": 0.125,
        "velocity": 0.63,
        "hand": "right"
      },
      {
        "midi": 52,
        "time": 13.375,
        "duration": 0.125,
        "velocity": 0.63,
        "hand": "left"
      },
      {
        "midi": 57,
        "time": 13.375,
        "duration": 0.125,
        "velocity": 0.63,
        "hand": "left"
      },
      {
        "midi": 61,
        "time": 13.375,
        "duration": 0.125,
        "velocity": 0.63,
        "hand": "right"
      },
      {
        "midi": 52,
        "time": 13.75,
        "duration": 0.125,
        "velocity": 0.63,
        "hand": "left"
      },
      {
        "midi": 61,
        "time": 13.75,
        "duration": 0.125,
        "velocity": 0.63,
        "hand": "right"
      },
      {
        "midi": 69,
        "time": 13.75,
        "duration": 0.125,
        "velocity": 0.63,
        "hand": "right"
      },
      {
        "midi": 52,
        "time": 13.875,
        "duration": 0.125,
        "velocity": 0.63,
        "hand": "left"
      },
      {
        "midi": 61,
        "time": 13.875,
        "duration": 0.125,
        "velocity": 0.63,
        "hand": "right"
      },
      {
        "midi": 69,
        "time": 13.875,
        "duration": 0.125,
        "velocity": 0.63,
        "hand": "right"
      },
      {
        "midi": 73,
        "time": 14,
        "duration": 0.125,
        "velocity": 0.63,
        "hand": "right"
      },
      {
        "midi": 73,
        "time": 14.125,
        "duration": 0.25,
        "velocity": 0.63,
        "hand": "right"
      },
      {
        "midi": 52,
        "time": 14.25,
        "duration": 0.125,
        "velocity": 0.63,
        "hand": "left"
      },
      {
        "midi": 57,
        "time": 14.25,
        "duration": 0.125,
        "velocity": 0.63,
        "hand": "left"
      },
      {
        "midi": 61,
        "time": 14.25,
        "duration": 0.125,
        "velocity": 0.63,
        "hand": "right"
      },
      {
        "midi": 52,
        "time": 14.375,
        "duration": 0.125,
        "velocity": 0.63,
        "hand": "left"
      },
      {
        "midi": 61,
        "time": 14.375,
        "duration": 0.125,
        "velocity": 0.63,
        "hand": "right"
      },
      {
        "midi": 69,
        "time": 14.375,
        "duration": 0.125,
        "velocity": 0.63,
        "hand": "right"
      },
      {
        "midi": 71,
        "time": 14.5,
        "duration": 0.25,
        "velocity": 0.63,
        "hand": "right"
      },
      {
        "midi": 52,
        "time": 14.75,
        "duration": 0.125,
        "velocity": 0.63,
        "hand": "left"
      },
      {
        "midi": 61,
        "time": 14.75,
        "duration": 0.125,
        "velocity": 0.63,
        "hand": "right"
      },
      {
        "midi": 69,
        "time": 14.75,
        "duration": 0.25,
        "velocity": 0.63,
        "hand": "right"
      },
      {
        "midi": 52,
        "time": 14.875,
        "duration": 0.125,
        "velocity": 0.63,
        "hand": "left"
      },
      {
        "midi": 57,
        "time": 14.875,
        "duration": 0.125,
        "velocity": 0.63,
        "hand": "left"
      },
      {
        "midi": 61,
        "time": 14.875,
        "duration": 0.125,
        "velocity": 0.63,
        "hand": "right"
      },
      {
        "midi": 73,
        "time": 15,
        "duration": 0.125,
        "velocity": 0.63,
        "hand": "right"
      },
      {
        "midi": 73,
        "time": 15.125,
        "duration": 0.25,
        "velocity": 0.63,
        "hand": "right"
      },
      {
        "midi": 52,
        "time": 15.25,
        "duration": 0.125,
        "velocity": 0.63,
        "hand": "left"
      },
      {
        "midi": 57,
        "time": 15.25,
        "duration": 0.125,
        "velocity": 0.63,
        "hand": "left"
      },
      {
        "midi": 61,
        "time": 15.25,
        "duration": 0.125,
        "velocity": 0.63,
        "hand": "right"
      },
      {
        "midi": 52,
        "time": 15.375,
        "duration": 0.125,
        "velocity": 0.63,
        "hand": "left"
      },
      {
        "midi": 61,
        "time": 15.375,
        "duration": 0.125,
        "velocity": 0.63,
        "hand": "right"
      },
      {
        "midi": 69,
        "time": 15.375,
        "duration": 0.125,
        "velocity": 0.63,
        "hand": "right"
      },
      {
        "midi": 71,
        "time": 15.5,
        "duration": 0.25,
        "velocity": 0.63,
        "hand": "right"
      },
      {
        "midi": 52,
        "time": 15.75,
        "duration": 0.125,
        "velocity": 0.63,
        "hand": "left"
      },
      {
        "midi": 61,
        "time": 15.75,
        "duration": 0.125,
        "velocity": 0.63,
        "hand": "right"
      },
      {
        "midi": 69,
        "time": 15.75,
        "duration": 0.25,
        "velocity": 0.63,
        "hand": "right"
      },
      {
        "midi": 52,
        "time": 15.875,
        "duration": 0.125,
        "velocity": 0.63,
        "hand": "left"
      },
      {
        "midi": 57,
        "time": 15.875,
        "duration": 0.125,
        "velocity": 0.63,
        "hand": "left"
      },
      {
        "midi": 61,
        "time": 15.875,
        "duration": 0.125,
        "velocity": 0.63,
        "hand": "right"
      },
      {
        "midi": 73,
        "time": 16,
        "duration": 0.25,
        "velocity": 0.63,
        "hand": "right"
      },
      {
        "midi": 52,
        "time": 16.25,
        "duration": 0.125,
        "velocity": 0.63,
        "hand": "left"
      },
      {
        "midi": 61,
        "time": 16.25,
        "duration": 0.125,
        "velocity": 0.63,
        "hand": "right"
      },
      {
        "midi": 69,
        "time": 16.25,
        "duration": 0.25,
        "velocity": 0.63,
        "hand": "right"
      },
      {
        "midi": 52,
        "time": 16.375,
        "duration": 0.125,
        "velocity": 0.63,
        "hand": "left"
      },
      {
        "midi": 57,
        "time": 16.375,
        "duration": 0.125,
        "velocity": 0.63,
        "hand": "left"
      },
      {
        "midi": 61,
        "time": 16.375,
        "duration": 0.125,
        "velocity": 0.63,
        "hand": "right"
      },
      {
        "midi": 71,
        "time": 16.5,
        "duration": 0.25,
        "velocity": 0.63,
        "hand": "right"
      },
      {
        "midi": 52,
        "time": 16.75,
        "duration": 0.125,
        "velocity": 0.63,
        "hand": "left"
      },
      {
        "midi": 61,
        "time": 16.75,
        "duration": 0.125,
        "velocity": 0.63,
        "hand": "right"
      },
      {
        "midi": 73,
        "time": 16.75,
        "duration": 0.25,
        "velocity": 0.63,
        "hand": "right"
      },
      {
        "midi": 52,
        "time": 16.875,
        "duration": 0.125,
        "velocity": 0.63,
        "hand": "left"
      },
      {
        "midi": 57,
        "time": 16.875,
        "duration": 0.125,
        "velocity": 0.63,
        "hand": "left"
      },
      {
        "midi": 61,
        "time": 16.875,
        "duration": 0.125,
        "velocity": 0.63,
        "hand": "right"
      },
      {
        "midi": 54,
        "time": 17,
        "duration": 0.25,
        "velocity": 0.63,
        "hand": "left"
      },
      {
        "midi": 62,
        "time": 17,
        "duration": 0.25,
        "velocity": 0.63,
        "hand": "right"
      },
      {
        "midi": 74,
        "time": 17,
        "duration": 0.25,
        "velocity": 0.63,
        "hand": "right"
      },
      {
        "midi": 57,
        "time": 17.25,
        "duration": 0.25,
        "velocity": 0.63,
        "hand": "left"
      },
      {
        "midi": 59,
        "time": 17.5,
        "duration": 0.25,
        "velocity": 0.63,
        "hand": "left"
      },
      {
        "midi": 57,
        "time": 17.75,
        "duration": 0.25,
        "velocity": 0.63,
        "hand": "left"
      },
      {
        "midi": 52,
        "time": 18,
        "duration": 0.375,
        "velocity": 0.63,
        "hand": "left"
      },
      {
        "midi": 57,
        "time": 18,
        "duration": 0.5,
        "velocity": 0.63,
        "hand": "left"
      },
      {
        "midi": 64,
        "time": 18,
        "duration": 0.5,
        "velocity": 0.63,
        "hand": "right"
      },
      {
        "midi": 69,
        "time": 18.25,
        "duration": 0.125,
        "velocity": 0.63,
        "hand": "right"
      },
      {
        "midi": 52,
        "time": 18.375,
        "duration": 0.375,
        "velocity": 0.63,
        "hand": "left"
      },
      {
        "midi": 69,
        "time": 18.375,
        "duration": 0.125,
        "velocity": 0.63,
        "hand": "right"
      },
      {
        "midi": 61,
        "time": 18.5,
        "duration": 0.5,
        "velocity": 0.63,
        "hand": "right"
      },
      {
        "midi": 69,
        "time": 18.5,
        "duration": 0.5,
        "velocity": 0.63,
        "hand": "right"
      },
      {
        "midi": 45,
        "time": 18.75,
        "duration": 0.25,
        "velocity": 0.63,
        "hand": "left"
      },
      {
        "midi": 69,
        "time": 18.75,
        "duration": 0.125,
        "velocity": 0.63,
        "hand": "right"
      },
      {
        "midi": 69,
        "time": 18.875,
        "duration": 0.125,
        "velocity": 0.63,
        "hand": "right"
      },
      {
        "midi": 52,
        "time": 19,
        "duration": 0.375,
        "velocity": 0.63,
        "hand": "left"
      },
      {
        "midi": 64,
        "time": 19,
        "duration": 0.5,
        "velocity": 0.63,
        "hand": "right"
      },
      {
        "midi": 57,
        "time": 19.125,
        "duration": 0.25,
        "velocity": 0.63,
        "hand": "left"
      },
      {
        "midi": 73,
        "time": 19.25,
        "duration": 0.125,
        "velocity": 0.63,
        "hand": "right"
      },
      {
        "midi": 52,
        "time": 19.375,
        "duration": 0.375,
        "velocity": 0.63,
        "hand": "left"
      },
      {
        "midi": 57,
        "time": 19.375,
        "duration": 0.125,
        "velocity": 0.63,
        "hand": "left"
      },
      {
        "midi": 73,
        "time": 19.375,
        "duration": 0.125,
        "velocity": 0.63,
        "hand": "right"
      },
      {
        "midi": 59,
        "time": 19.5,
        "duration": 0.25,
        "velocity": 0.63,
        "hand": "left"
      },
      {
        "midi": 69,
        "time": 19.5,
        "duration": 0.5,
        "velocity": 0.63,
        "hand": "right"
      },
      {
        "midi": 45,
        "time": 19.75,
        "duration": 0.25,
        "velocity": 0.63,
        "hand": "left"
      },
      {
        "midi": 57,
        "time": 19.75,
        "duration": 0.25,
        "velocity": 0.63,
        "hand": "left"
      },
      {
        "midi": 73,
        "time": 19.75,
        "duration": 0.125,
        "velocity": 0.63,
        "hand": "right"
      },
      {
        "midi": 73,
        "time": 19.875,
        "duration": 0.125,
        "velocity": 0.63,
        "hand": "right"
      },
      {
        "midi": 54,
        "time": 20,
        "duration": 0.375,
        "velocity": 0.63,
        "hand": "left"
      },
      {
        "midi": 57,
        "time": 20,
        "duration": 0.5,
        "velocity": 0.63,
        "hand": "left"
      },
      {
        "midi": 66,
        "time": 20,
        "duration": 0.5,
        "velocity": 0.63,
        "hand": "right"
      },
      {
        "midi": 74,
        "time": 20.25,
        "duration": 0.125,
        "velocity": 0.63,
        "hand": "right"
      },
      {
        "midi": 54,
        "time": 20.375,
        "duration": 0.375,
        "velocity": 0.63,
        "hand": "left"
      },
      {
        "midi": 74,
        "time": 20.375,
        "duration": 0.125,
        "velocity": 0.63,
        "hand": "right"
      },
      {
        "midi": 62,
        "time": 20.5,
        "duration": 0.5,
        "velocity": 0.63,
        "hand": "right"
      },
      {
        "midi": 69,
        "time": 20.5,
        "duration": 0.5,
        "velocity": 0.63,
        "hand": "right"
      },
      {
        "midi": 50,
        "time": 20.75,
        "duration": 0.25,
        "velocity": 0.63,
        "hand": "left"
      },
      {
        "midi": 74,
        "time": 20.75,
        "duration": 0.125,
        "velocity": 0.63,
        "hand": "right"
      },
      {
        "midi": 74,
        "time": 20.875,
        "duration": 0.125,
        "velocity": 0.63,
        "hand": "right"
      },
      {
        "midi": 54,
        "time": 21,
        "duration": 0.375,
        "velocity": 0.63,
        "hand": "left"
      },
      {
        "midi": 66,
        "time": 21,
        "duration": 0.5,
        "velocity": 0.63,
        "hand": "right"
      },
      {
        "midi": 57,
        "time": 21.125,
        "duration": 0.25,
        "velocity": 0.63,
        "hand": "left"
      },
      {
        "midi": 74,
        "time": 21.25,
        "duration": 0.125,
        "velocity": 0.63,
        "hand": "right"
      },
      {
        "midi": 54,
        "time": 21.375,
        "duration": 0.375,
        "velocity": 0.63,
        "hand": "left"
      },
      {
        "midi": 57,
        "time": 21.375,
        "duration": 0.125,
        "velocity": 0.63,
        "hand": "left"
      },
      {
        "midi": 74,
        "time": 21.375,
        "duration": 0.125,
        "velocity": 0.63,
        "hand": "right"
      },
      {
        "midi": 59,
        "time": 21.5,
        "duration": 0.25,
        "velocity": 0.63,
        "hand": "left"
      },
      {
        "midi": 69,
        "time": 21.5,
        "duration": 0.5,
        "velocity": 0.63,
        "hand": "right"
      },
      {
        "midi": 50,
        "time": 21.75,
        "duration": 0.25,
        "velocity": 0.63,
        "hand": "left"
      },
      {
        "midi": 57,
        "time": 21.75,
        "duration": 0.25,
        "velocity": 0.63,
        "hand": "left"
      },
      {
        "midi": 74,
        "time": 21.75,
        "duration": 0.125,
        "velocity": 0.63,
        "hand": "right"
      },
      {
        "midi": 74,
        "time": 21.875,
        "duration": 0.125,
        "velocity": 0.63,
        "hand": "right"
      },
      {
        "midi": 52,
        "time": 22,
        "duration": 0.375,
        "velocity": 0.63,
        "hand": "left"
      },
      {
        "midi": 57,
        "time": 22,
        "duration": 0.5,
        "velocity": 0.63,
        "hand": "left"
      },
      {
        "midi": 64,
        "time": 22,
        "duration": 0.5,
        "velocity": 0.63,
        "hand": "right"
      },
      {
        "midi": 69,
        "time": 22.25,
        "duration": 0.125,
        "velocity": 0.63,
        "hand": "right"
      },
      {
        "midi": 52,
        "time": 22.375,
        "duration": 0.375,
        "velocity": 0.63,
        "hand": "left"
      },
      {
        "midi": 69,
        "time": 22.375,
        "duration": 0.125,
        "velocity": 0.63,
        "hand": "right"
      },
      {
        "midi": 61,
        "time": 22.5,
        "duration": 0.5,
        "velocity": 0.63,
        "hand": "right"
      },
      {
        "midi": 69,
        "time": 22.5,
        "duration": 0.5,
        "velocity": 0.63,
        "hand": "right"
      },
      {
        "midi": 45,
        "time": 22.75,
        "duration": 0.25,
        "velocity": 0.63,
        "hand": "left"
      },
      {
        "midi": 69,
        "time": 22.75,
        "duration": 0.125,
        "velocity": 0.63,
        "hand": "right"
      },
      {
        "midi": 69,
        "time": 22.875,
        "duration": 0.125,
        "velocity": 0.63,
        "hand": "right"
      },
      {
        "midi": 52,
        "time": 23,
        "duration": 0.375,
        "velocity": 0.63,
        "hand": "left"
      },
      {
        "midi": 64,
        "time": 23,
        "duration": 0.5,
        "velocity": 0.63,
        "hand": "right"
      },
      {
        "midi": 57,
        "time": 23.25,
        "duration": 0.25,
        "velocity": 0.63,
        "hand": "left"
      },
      {
        "midi": 69,
        "time": 23.25,
        "duration": 0.125,
        "velocity": 0.63,
        "hand": "right"
      },
      {
        "midi": 52,
        "time": 23.375,
        "duration": 0.375,
        "velocity": 0.63,
        "hand": "left"
      },
      {
        "midi": 69,
        "time": 23.375,
        "duration": 0.125,
        "velocity": 0.63,
        "hand": "right"
      },
      {
        "midi": 59,
        "time": 23.5,
        "duration": 0.25,
        "velocity": 0.63,
        "hand": "left"
      },
      {
        "midi": 69,
        "time": 23.5,
        "duration": 0.5,
        "velocity": 0.63,
        "hand": "right"
      },
      {
        "midi": 45,
        "time": 23.75,
        "duration": 0.25,
        "velocity": 0.63,
        "hand": "left"
      },
      {
        "midi": 61,
        "time": 23.75,
        "duration": 0.25,
        "velocity": 0.63,
        "hand": "right"
      },
      {
        "midi": 69,
        "time": 23.75,
        "duration": 0.125,
        "velocity": 0.63,
        "hand": "right"
      },
      {
        "midi": 69,
        "time": 23.875,
        "duration": 0.125,
        "velocity": 0.63,
        "hand": "right"
      },
      {
        "midi": 50,
        "time": 24,
        "duration": 0.125,
        "velocity": 0.63,
        "hand": "left"
      },
      {
        "midi": 66,
        "time": 24,
        "duration": 1,
        "velocity": 0.63,
        "hand": "right"
      },
      {
        "midi": 69,
        "time": 24,
        "duration": 1,
        "velocity": 0.63,
        "hand": "right"
      },
      {
        "midi": 50,
        "time": 24.125,
        "duration": 0.25,
        "velocity": 0.63,
        "hand": "left"
      },
      {
        "midi": 50,
        "time": 24.375,
        "duration": 0.125,
        "velocity": 0.63,
        "hand": "left"
      },
      {
        "midi": 47,
        "time": 24.5,
        "duration": 0.25,
        "velocity": 0.63,
        "hand": "left"
      },
      {
        "midi": 45,
        "time": 24.75,
        "duration": 0.25,
        "velocity": 0.63,
        "hand": "left"
      },
      {
        "midi": 45,
        "time": 25,
        "duration": 0.25,
        "velocity": 0.63,
        "hand": "left"
      },
      {
        "midi": 57,
        "time": 25.25,
        "duration": 0.25,
        "velocity": 0.63,
        "hand": "left"
      },
      {
        "midi": 66,
        "time": 25.25,
        "duration": 0.25,
        "velocity": 0.63,
        "hand": "right"
      },
      {
        "midi": 59,
        "time": 25.5,
        "duration": 0.25,
        "velocity": 0.63,
        "hand": "left"
      },
      {
        "midi": 68,
        "time": 25.5,
        "duration": 0.25,
        "velocity": 0.63,
        "hand": "right"
      },
      {
        "midi": 57,
        "time": 25.75,
        "duration": 0.25,
        "velocity": 0.63,
        "hand": "left"
      },
      {
        "midi": 66,
        "time": 25.75,
        "duration": 0.25,
        "velocity": 0.63,
        "hand": "right"
      },
      {
        "midi": 52,
        "time": 26,
        "duration": 0.375,
        "velocity": 0.63,
        "hand": "left"
      },
      {
        "midi": 57,
        "time": 26,
        "duration": 0.5,
        "velocity": 0.63,
        "hand": "left"
      },
      {
        "midi": 64,
        "time": 26,
        "duration": 0.5,
        "velocity": 0.63,
        "hand": "right"
      },
      {
        "midi": 69,
        "time": 26.25,
        "duration": 0.125,
        "velocity": 0.63,
        "hand": "right"
      },
      {
        "midi": 52,
        "time": 26.375,
        "duration": 0.375,
        "velocity": 0.63,
        "hand": "left"
      },
      {
        "midi": 69,
        "time": 26.375,
        "duration": 0.125,
        "velocity": 0.63,
        "hand": "right"
      },
      {
        "midi": 61,
        "time": 26.5,
        "duration": 0.5,
        "velocity": 0.63,
        "hand": "right"
      },
      {
        "midi": 69,
        "time": 26.5,
        "duration": 0.5,
        "velocity": 0.63,
        "hand": "right"
      },
      {
        "midi": 45,
        "time": 26.75,
        "duration": 0.25,
        "velocity": 0.63,
        "hand": "left"
      },
      {
        "midi": 69,
        "time": 26.75,
        "duration": 0.125,
        "velocity": 0.63,
        "hand": "right"
      },
      {
        "midi": 69,
        "time": 26.875,
        "duration": 0.125,
        "velocity": 0.63,
        "hand": "right"
      },
      {
        "midi": 52,
        "time": 27,
        "duration": 0.375,
        "velocity": 0.63,
        "hand": "left"
      },
      {
        "midi": 64,
        "time": 27,
        "duration": 0.5,
        "velocity": 0.63,
        "hand": "right"
      },
      {
        "midi": 57,
        "time": 27.25,
        "duration": 0.25,
        "velocity": 0.63,
        "hand": "left"
      },
      {
        "midi": 73,
        "time": 27.25,
        "duration": 0.125,
        "velocity": 0.63,
        "hand": "right"
      },
      {
        "midi": 52,
        "time": 27.375,
        "duration": 0.375,
        "velocity": 0.63,
        "hand": "left"
      },
      {
        "midi": 73,
        "time": 27.375,
        "duration": 0.125,
        "velocity": 0.63,
        "hand": "right"
      },
      {
        "midi": 59,
        "time": 27.5,
        "duration": 0.25,
        "velocity": 0.63,
        "hand": "left"
      },
      {
        "midi": 69,
        "time": 27.5,
        "duration": 0.5,
        "velocity": 0.63,
        "hand": "right"
      },
      {
        "midi": 45,
        "time": 27.75,
        "duration": 0.25,
        "velocity": 0.63,
        "hand": "left"
      },
      {
        "midi": 57,
        "time": 27.75,
        "duration": 0.25,
        "velocity": 0.63,
        "hand": "left"
      },
      {
        "midi": 73,
        "time": 27.75,
        "duration": 0.125,
        "velocity": 0.63,
        "hand": "right"
      },
      {
        "midi": 73,
        "time": 27.875,
        "duration": 0.125,
        "velocity": 0.63,
        "hand": "right"
      },
      {
        "midi": 54,
        "time": 28,
        "duration": 0.375,
        "velocity": 0.63,
        "hand": "left"
      },
      {
        "midi": 57,
        "time": 28,
        "duration": 0.5,
        "velocity": 0.63,
        "hand": "left"
      },
      {
        "midi": 66,
        "time": 28,
        "duration": 0.5,
        "velocity": 0.63,
        "hand": "right"
      },
      {
        "midi": 74,
        "time": 28.25,
        "duration": 0.125,
        "velocity": 0.63,
        "hand": "right"
      },
      {
        "midi": 54,
        "time": 28.375,
        "duration": 0.375,
        "velocity": 0.63,
        "hand": "left"
      },
      {
        "midi": 74,
        "time": 28.375,
        "duration": 0.125,
        "velocity": 0.63,
        "hand": "right"
      },
      {
        "midi": 62,
        "time": 28.5,
        "duration": 0.5,
        "velocity": 0.63,
        "hand": "right"
      },
      {
        "midi": 69,
        "time": 28.5,
        "duration": 0.5,
        "velocity": 0.63,
        "hand": "right"
      },
      {
        "midi": 50,
        "time": 28.75,
        "duration": 0.25,
        "velocity": 0.63,
        "hand": "left"
      },
      {
        "midi": 74,
        "time": 28.75,
        "duration": 0.125,
        "velocity": 0.63,
        "hand": "right"
      },
      {
        "midi": 74,
        "time": 28.875,
        "duration": 0.125,
        "velocity": 0.63,
        "hand": "right"
      },
      {
        "midi": 54,
        "time": 29,
        "duration": 0.375,
        "velocity": 0.63,
        "hand": "left"
      },
      {
        "midi": 66,
        "time": 29,
        "duration": 0.5,
        "velocity": 0.63,
        "hand": "right"
      },
      {
        "midi": 57,
        "time": 29.25,
        "duration": 0.25,
        "velocity": 0.63,
        "hand": "left"
      },
      {
        "midi": 74,
        "time": 29.25,
        "duration": 0.125,
        "velocity": 0.63,
        "hand": "right"
      },
      {
        "midi": 54,
        "time": 29.375,
        "duration": 0.375,
        "velocity": 0.63,
        "hand": "left"
      },
      {
        "midi": 74,
        "time": 29.375,
        "duration": 0.125,
        "velocity": 0.63,
        "hand": "right"
      },
      {
        "midi": 59,
        "time": 29.5,
        "duration": 0.25,
        "velocity": 0.63,
        "hand": "left"
      },
      {
        "midi": 69,
        "time": 29.5,
        "duration": 0.5,
        "velocity": 0.63,
        "hand": "right"
      },
      {
        "midi": 50,
        "time": 29.75,
        "duration": 0.25,
        "velocity": 0.63,
        "hand": "left"
      },
      {
        "midi": 57,
        "time": 29.75,
        "duration": 0.25,
        "velocity": 0.63,
        "hand": "left"
      },
      {
        "midi": 74,
        "time": 29.75,
        "duration": 0.125,
        "velocity": 0.63,
        "hand": "right"
      },
      {
        "midi": 74,
        "time": 29.875,
        "duration": 0.125,
        "velocity": 0.63,
        "hand": "right"
      },
      {
        "midi": 52,
        "time": 30,
        "duration": 0.375,
        "velocity": 0.63,
        "hand": "left"
      },
      {
        "midi": 57,
        "time": 30,
        "duration": 0.5,
        "velocity": 0.63,
        "hand": "left"
      },
      {
        "midi": 64,
        "time": 30,
        "duration": 0.5,
        "velocity": 0.63,
        "hand": "right"
      },
      {
        "midi": 69,
        "time": 30.25,
        "duration": 0.125,
        "velocity": 0.63,
        "hand": "right"
      },
      {
        "midi": 52,
        "time": 30.375,
        "duration": 0.375,
        "velocity": 0.63,
        "hand": "left"
      },
      {
        "midi": 69,
        "time": 30.375,
        "duration": 0.125,
        "velocity": 0.63,
        "hand": "right"
      },
      {
        "midi": 61,
        "time": 30.5,
        "duration": 0.5,
        "velocity": 0.63,
        "hand": "right"
      },
      {
        "midi": 69,
        "time": 30.5,
        "duration": 0.5,
        "velocity": 0.63,
        "hand": "right"
      },
      {
        "midi": 45,
        "time": 30.75,
        "duration": 0.25,
        "velocity": 0.63,
        "hand": "left"
      },
      {
        "midi": 69,
        "time": 30.75,
        "duration": 0.125,
        "velocity": 0.63,
        "hand": "right"
      },
      {
        "midi": 69,
        "time": 30.875,
        "duration": 0.125,
        "velocity": 0.63,
        "hand": "right"
      },
      {
        "midi": 52,
        "time": 31,
        "duration": 0.375,
        "velocity": 0.63,
        "hand": "left"
      },
      {
        "midi": 64,
        "time": 31,
        "duration": 0.5,
        "velocity": 0.63,
        "hand": "right"
      },
      {
        "midi": 69,
        "time": 31.25,
        "duration": 0.25,
        "velocity": 0.63,
        "hand": "right"
      },
      {
        "midi": 52,
        "time": 31.375,
        "duration": 0.375,
        "velocity": 0.63,
        "hand": "left"
      },
      {
        "midi": 69,
        "time": 31.5,
        "duration": 0.5,
        "velocity": 0.63,
        "hand": "right"
      },
      {
        "midi": 71,
        "time": 31.5,
        "duration": 0.25,
        "velocity": 0.63,
        "hand": "right"
      },
      {
        "midi": 45,
        "time": 31.75,
        "duration": 0.25,
        "velocity": 0.39,
        "hand": "left"
      },
      {
        "midi": 57,
        "time": 31.75,
        "duration": 0.25,
        "velocity": 0.63,
        "hand": "left"
      },
      {
        "midi": 73,
        "time": 31.75,
        "duration": 0.25,
        "velocity": 0.63,
        "hand": "right"
      },
      {
        "midi": 50,
        "time": 32,
        "duration": 0.125,
        "velocity": 0.39,
        "hand": "left"
      },
      {
        "midi": 66,
        "time": 32,
        "duration": 1,
        "velocity": 0.63,
        "hand": "right"
      },
      {
        "midi": 74,
        "time": 32,
        "duration": 0.5,
        "velocity": 0.63,
        "hand": "right"
      },
      {
        "midi": 50,
        "time": 32.125,
        "duration": 0.25,
        "velocity": 0.39,
        "hand": "left"
      },
      {
        "midi": 62,
        "time": 32.125,
        "duration": 0.25,
        "velocity": 0.63,
        "hand": "right"
      },
      {
        "midi": 50,
        "time": 32.375,
        "duration": 0.125,
        "velocity": 0.39,
        "hand": "left"
      },
      {
        "midi": 57,
        "time": 32.375,
        "duration": 0.125,
        "velocity": 0.63,
        "hand": "left"
      },
      {
        "midi": 47,
        "time": 32.5,
        "duration": 0.25,
        "velocity": 0.39,
        "hand": "left"
      },
      {
        "midi": 59,
        "time": 32.5,
        "duration": 0.25,
        "velocity": 0.63,
        "hand": "left"
      },
      {
        "midi": 74,
        "time": 32.5,
        "duration": 0.75,
        "velocity": 0.63,
        "hand": "right"
      },
      {
        "midi": 45,
        "time": 32.75,
        "duration": 0.25,
        "velocity": 0.39,
        "hand": "left"
      },
      {
        "midi": 57,
        "time": 32.75,
        "duration": 0.25,
        "velocity": 0.63,
        "hand": "left"
      },
      {
        "midi": 45,
        "time": 33,
        "duration": 0.25,
        "velocity": 0.39,
        "hand": "left"
      },
      {
        "midi": 54,
        "time": 33,
        "duration": 0.5,
        "velocity": 0.63,
        "hand": "left"
      },
      {
        "midi": 45,
        "time": 33.25,
        "duration": 0.125,
        "velocity": 0.39,
        "hand": "left"
      },
      {
        "midi": 66,
        "time": 33.25,
        "duration": 0.25,
        "velocity": 0.39,
        "hand": "right"
      },
      {
        "midi": 69,
        "time": 33.25,
        "duration": 0.25,
        "velocity": 0.63,
        "hand": "right"
      },
      {
        "midi": 45,
        "time": 33.375,
        "duration": 0.125,
        "velocity": 0.39,
        "hand": "left"
      },
      {
        "midi": 68,
        "time": 33.5,
        "duration": 0.25,
        "velocity": 0.39,
        "hand": "right"
      },
      {
        "midi": 71,
        "time": 33.5,
        "duration": 0.25,
        "velocity": 0.63,
        "hand": "right"
      },
      {
        "midi": 45,
        "time": 33.75,
        "duration": 0.125,
        "velocity": 0.39,
        "hand": "left"
      },
      {
        "midi": 66,
        "time": 33.75,
        "duration": 0.25,
        "velocity": 0.39,
        "hand": "right"
      },
      {
        "midi": 69,
        "time": 33.75,
        "duration": 0.25,
        "velocity": 0.63,
        "hand": "right"
      },
      {
        "midi": 45,
        "time": 33.875,
        "duration": 0.125,
        "velocity": 0.39,
        "hand": "left"
      },
      {
        "midi": 62,
        "time": 34,
        "duration": 0.125,
        "velocity": 0.63,
        "hand": "right"
      },
      {
        "midi": 66,
        "time": 34,
        "duration": 0.5,
        "velocity": 0.39,
        "hand": "right"
      },
      {
        "midi": 69,
        "time": 34,
        "duration": 0.5,
        "velocity": 0.63,
        "hand": "right"
      },
      {
        "midi": 62,
        "time": 34.125,
        "duration": 0.25,
        "velocity": 0.63,
        "hand": "right"
      },
      {
        "midi": 45,
        "time": 34.25,
        "duration": 0.125,
        "velocity": 0.39,
        "hand": "left"
      },
      {
        "midi": 45,
        "time": 34.375,
        "duration": 0.125,
        "velocity": 0.39,
        "hand": "left"
      },
      {
        "midi": 57,
        "time": 34.375,
        "duration": 0.125,
        "velocity": 0.63,
        "hand": "left"
      },
      {
        "midi": 59,
        "time": 34.5,
        "duration": 0.25,
        "velocity": 0.63,
        "hand": "left"
      },
      {
        "midi": 66,
        "time": 34.5,
        "duration": 0.5,
        "velocity": 0.39,
        "hand": "right"
      },
      {
        "midi": 69,
        "time": 34.5,
        "duration": 0.5,
        "velocity": 0.63,
        "hand": "right"
      },
      {
        "midi": 45,
        "time": 34.75,
        "duration": 0.125,
        "velocity": 0.39,
        "hand": "left"
      },
      {
        "midi": 57,
        "time": 34.75,
        "duration": 0.25,
        "velocity": 0.63,
        "hand": "left"
      },
      {
        "midi": 45,
        "time": 34.875,
        "duration": 0.125,
        "velocity": 0.39,
        "hand": "left"
      },
      {
        "midi": 61,
        "time": 35,
        "duration": 0.5,
        "velocity": 0.63,
        "hand": "right"
      },
      {
        "midi": 45,
        "time": 35.125,
        "duration": 0.25,
        "velocity": 0.39,
        "hand": "left"
      },
      {
        "midi": 69,
        "time": 35.125,
        "duration": 0.25,
        "velocity": 0.63,
        "hand": "right"
      },
      {
        "midi": 64,
        "time": 35.25,
        "duration": 0.125,
        "velocity": 0.39,
        "hand": "right"
      },
      {
        "midi": 45,
        "time": 35.375,
        "duration": 0.125,
        "velocity": 0.39,
        "hand": "left"
      },
      {
        "midi": 64,
        "time": 35.375,
        "duration": 0.125,
        "velocity": 0.39,
        "hand": "right"
      },
      {
        "midi": 69,
        "time": 35.375,
        "duration": 0.125,
        "velocity": 0.63,
        "hand": "right"
      },
      {
        "midi": 47,
        "time": 35.5,
        "duration": 0.25,
        "velocity": 0.39,
        "hand": "left"
      },
      {
        "midi": 71,
        "time": 35.5,
        "duration": 0.25,
        "velocity": 0.63,
        "hand": "right"
      },
      {
        "midi": 45,
        "time": 35.75,
        "duration": 0.25,
        "velocity": 0.39,
        "hand": "left"
      },
      {
        "midi": 64,
        "time": 35.75,
        "duration": 0.125,
        "velocity": 0.39,
        "hand": "right"
      },
      {
        "midi": 69,
        "time": 35.75,
        "duration": 0.25,
        "velocity": 0.63,
        "hand": "right"
      },
      {
        "midi": 57,
        "time": 35.875,
        "duration": 0.125,
        "velocity": 0.63,
        "hand": "left"
      },
      {
        "midi": 64,
        "time": 35.875,
        "duration": 0.125,
        "velocity": 0.39,
        "hand": "right"
      },
      {
        "midi": 45,
        "time": 36,
        "duration": 0.25,
        "velocity": 0.39,
        "hand": "left"
      },
      {
        "midi": 61,
        "time": 36,
        "duration": 0.125,
        "velocity": 0.63,
        "hand": "right"
      },
      {
        "midi": 69,
        "time": 36,
        "duration": 0.5,
        "velocity": 0.63,
        "hand": "right"
      },
      {
        "midi": 61,
        "time": 36.125,
        "duration": 0.25,
        "velocity": 0.63,
        "hand": "right"
      },
      {
        "midi": 45,
        "time": 36.25,
        "duration": 0.125,
        "velocity": 0.39,
        "hand": "left"
      },
      {
        "midi": 64,
        "time": 36.25,
        "duration": 0.125,
        "velocity": 0.39,
        "hand": "right"
      },
      {
        "midi": 45,
        "time": 36.375,
        "duration": 0.125,
        "velocity": 0.39,
        "hand": "left"
      },
      {
        "midi": 57,
        "time": 36.375,
        "duration": 0.125,
        "velocity": 0.63,
        "hand": "left"
      },
      {
        "midi": 64,
        "time": 36.375,
        "duration": 0.125,
        "velocity": 0.39,
        "hand": "right"
      },
      {
        "midi": 59,
        "time": 36.5,
        "duration": 0.25,
        "velocity": 0.63,
        "hand": "left"
      },
      {
        "midi": 69,
        "time": 36.5,
        "duration": 0.5,
        "velocity": 0.63,
        "hand": "right"
      },
      {
        "midi": 45,
        "time": 36.75,
        "duration": 0.125,
        "velocity": 0.39,
        "hand": "left"
      },
      {
        "midi": 57,
        "time": 36.75,
        "duration": 0.25,
        "velocity": 0.63,
        "hand": "left"
      },
      {
        "midi": 64,
        "time": 36.75,
        "duration": 0.125,
        "velocity": 0.39,
        "hand": "right"
      },
      {
        "midi": 45,
        "time": 36.875,
        "duration": 0.125,
        "velocity": 0.39,
        "hand": "left"
      },
      {
        "midi": 64,
        "time": 36.875,
        "duration": 0.125,
        "velocity": 0.39,
        "hand": "right"
      },
      {
        "midi": 61,
        "time": 37,
        "duration": 0.125,
        "velocity": 0.63,
        "hand": "right"
      },
      {
        "midi": 61,
        "time": 37.125,
        "duration": 0.25,
        "velocity": 0.63,
        "hand": "right"
      },
      {
        "midi": 69,
        "time": 37.125,
        "duration": 0.25,
        "velocity": 0.63,
        "hand": "right"
      },
      {
        "midi": 64,
        "time": 37.25,
        "duration": 0.125,
        "velocity": 0.39,
        "hand": "right"
      },
      {
        "midi": 45,
        "time": 37.375,
        "duration": 0.125,
        "velocity": 0.39,
        "hand": "left"
      },
      {
        "midi": 64,
        "time": 37.375,
        "duration": 0.125,
        "velocity": 0.39,
        "hand": "right"
      },
      {
        "midi": 69,
        "time": 37.375,
        "duration": 0.125,
        "velocity": 0.63,
        "hand": "right"
      },
      {
        "midi": 47,
        "time": 37.5,
        "duration": 0.25,
        "velocity": 0.39,
        "hand": "left"
      },
      {
        "midi": 59,
        "time": 37.5,
        "duration": 0.25,
        "velocity": 0.63,
        "hand": "left"
      },
      {
        "midi": 71,
        "time": 37.5,
        "duration": 0.25,
        "velocity": 0.63,
        "hand": "right"
      },
      {
        "midi": 45,
        "time": 37.75,
        "duration": 0.25,
        "velocity": 0.39,
        "hand": "left"
      },
      {
        "midi": 64,
        "time": 37.75,
        "duration": 0.125,
        "velocity": 0.39,
        "hand": "right"
      },
      {
        "midi": 69,
        "time": 37.75,
        "duration": 0.25,
        "velocity": 0.63,
        "hand": "right"
      },
      {
        "midi": 64,
        "time": 37.875,
        "duration": 0.125,
        "velocity": 0.39,
        "hand": "right"
      },
      {
        "midi": 49,
        "time": 38,
        "duration": 0.25,
        "velocity": 0.39,
        "hand": "left"
      },
      {
        "midi": 61,
        "time": 38,
        "duration": 0.25,
        "velocity": 0.63,
        "hand": "right"
      },
      {
        "midi": 69,
        "time": 38,
        "duration": 0.5,
        "velocity": 0.63,
        "hand": "right"
      },
      {
        "midi": 45,
        "time": 38.25,
        "duration": 0.25,
        "velocity": 0.39,
        "hand": "left"
      },
      {
        "midi": 57,
        "time": 38.25,
        "duration": 0.25,
        "velocity": 0.63,
        "hand": "left"
      },
      {
        "midi": 64,
        "time": 38.25,
        "duration": 0.125,
        "velocity": 0.39,
        "hand": "right"
      },
      {
        "midi": 64,
        "time": 38.375,
        "duration": 0.125,
        "velocity": 0.39,
        "hand": "right"
      },
      {
        "midi": 47,
        "time": 38.5,
        "duration": 0.25,
        "velocity": 0.39,
        "hand": "left"
      },
      {
        "midi": 59,
        "time": 38.5,
        "duration": 0.25,
        "velocity": 0.63,
        "hand": "left"
      },
      {
        "midi": 69,
        "time": 38.5,
        "duration": 0.5,
        "velocity": 0.63,
        "hand": "right"
      },
      {
        "midi": 49,
        "time": 38.75,
        "duration": 0.25,
        "velocity": 0.39,
        "hand": "left"
      },
      {
        "midi": 61,
        "time": 38.75,
        "duration": 0.25,
        "velocity": 0.63,
        "hand": "right"
      },
      {
        "midi": 64,
        "time": 38.75,
        "duration": 0.125,
        "velocity": 0.39,
        "hand": "right"
      },
      {
        "midi": 64,
        "time": 38.875,
        "duration": 0.125,
        "velocity": 0.39,
        "hand": "right"
      },
      {
        "midi": 50,
        "time": 39,
        "duration": 0.25,
        "velocity": 0.39,
        "hand": "left"
      },
      {
        "midi": 62,
        "time": 39,
        "duration": 0.5,
        "velocity": 0.63,
        "hand": "right"
      },
      {
        "midi": 50,
        "time": 39.25,
        "duration": 0.125,
        "velocity": 0.39,
        "hand": "left"
      },
      {
        "midi": 66,
        "time": 39.25,
        "duration": 0.25,
        "velocity": 0.39,
        "hand": "right"
      },
      {
        "midi": 69,
        "time": 39.25,
        "duration": 0.25,
        "velocity": 0.63,
        "hand": "right"
      },
      {
        "midi": 50,
        "time": 39.375,
        "duration": 0.125,
        "velocity": 0.39,
        "hand": "left"
      },
      {
        "midi": 67,
        "time": 39.5,
        "duration": 0.25,
        "velocity": 0.39,
        "hand": "right"
      },
      {
        "midi": 71,
        "time": 39.5,
        "duration": 0.25,
        "velocity": 0.63,
        "hand": "right"
      },
      {
        "midi": 57,
        "time": 39.75,
        "duration": 0.25,
        "velocity": 0.63,
        "hand": "left"
      },
      {
        "midi": 66,
        "time": 39.75,
        "duration": 0.25,
        "velocity": 0.39,
        "hand": "right"
      },
      {
        "midi": 73,
        "time": 39.75,
        "duration": 0.25,
        "velocity": 0.63,
        "hand": "right"
      },
      {
        "midi": 50,
        "time": 40,
        "duration": 0.125,
        "velocity": 0.39,
        "hand": "left"
      },
      {
        "midi": 62,
        "time": 40,
        "duration": 0.125,
        "velocity": 0.63,
        "hand": "right"
      },
      {
        "midi": 74,
        "time": 40,
        "duration": 1,
        "velocity": 0.63,
        "hand": "right"
      },
      {
        "midi": 50,
        "time": 40.125,
        "duration": 0.25,
        "velocity": 0.39,
        "hand": "left"
      },
      {
        "midi": 62,
        "time": 40.125,
        "duration": 0.25,
        "velocity": 0.63,
        "hand": "right"
      },
      {
        "midi": 62,
        "time": 40.25,
        "duration": 0.125,
        "velocity": 0.39,
        "hand": "right"
      },
      {
        "midi": 50,
        "time": 40.375,
        "duration": 0.125,
        "velocity": 0.39,
        "hand": "left"
      },
      {
        "midi": 57,
        "time": 40.375,
        "duration": 0.125,
        "velocity": 0.63,
        "hand": "left"
      },
      {
        "midi": 62,
        "time": 40.375,
        "duration": 0.125,
        "velocity": 0.39,
        "hand": "right"
      },
      {
        "midi": 47,
        "time": 40.5,
        "duration": 0.25,
        "velocity": 0.39,
        "hand": "left"
      },
      {
        "midi": 59,
        "time": 40.5,
        "duration": 0.25,
        "velocity": 0.63,
        "hand": "left"
      },
      {
        "midi": 45,
        "time": 40.75,
        "duration": 0.25,
        "velocity": 0.39,
        "hand": "left"
      },
      {
        "midi": 57,
        "time": 40.75,
        "duration": 0.25,
        "velocity": 0.63,
        "hand": "left"
      },
      {
        "midi": 62,
        "time": 40.75,
        "duration": 0.125,
        "velocity": 0.39,
        "hand": "right"
      },
      {
        "midi": 62,
        "time": 40.875,
        "duration": 0.125,
        "velocity": 0.39,
        "hand": "right"
      },
      {
        "midi": 45,
        "time": 41,
        "duration": 0.25,
        "velocity": 0.39,
        "hand": "left"
      },
      {
        "midi": 54,
        "time": 41,
        "duration": 0.5,
        "velocity": 0.63,
        "hand": "left"
      },
      {
        "midi": 45,
        "time": 41.25,
        "duration": 0.125,
        "velocity": 0.39,
        "hand": "left"
      },
      {
        "midi": 66,
        "time": 41.25,
        "duration": 0.25,
        "velocity": 0.39,
        "hand": "right"
      },
      {
        "midi": 69,
        "time": 41.25,
        "duration": 0.25,
        "velocity": 0.63,
        "hand": "right"
      },
      {
        "midi": 45,
        "time": 41.375,
        "duration": 0.125,
        "velocity": 0.39,
        "hand": "left"
      },
      {
        "midi": 68,
        "time": 41.5,
        "duration": 0.25,
        "velocity": 0.39,
        "hand": "right"
      },
      {
        "midi": 71,
        "time": 41.5,
        "duration": 0.25,
        "velocity": 0.63,
        "hand": "right"
      },
      {
        "midi": 45,
        "time": 41.75,
        "duration": 0.125,
        "velocity": 0.39,
        "hand": "left"
      },
      {
        "midi": 66,
        "time": 41.75,
        "duration": 0.25,
        "velocity": 0.39,
        "hand": "right"
      },
      {
        "midi": 69,
        "time": 41.75,
        "duration": 0.25,
        "velocity": 0.63,
        "hand": "right"
      },
      {
        "midi": 45,
        "time": 41.875,
        "duration": 0.125,
        "velocity": 0.39,
        "hand": "left"
      },
      {
        "midi": 62,
        "time": 42,
        "duration": 0.125,
        "velocity": 0.63,
        "hand": "right"
      },
      {
        "midi": 66,
        "time": 42,
        "duration": 0.5,
        "velocity": 0.39,
        "hand": "right"
      },
      {
        "midi": 69,
        "time": 42,
        "duration": 0.5,
        "velocity": 0.63,
        "hand": "right"
      },
      {
        "midi": 62,
        "time": 42.125,
        "duration": 0.25,
        "velocity": 0.63,
        "hand": "right"
      },
      {
        "midi": 45,
        "time": 42.25,
        "duration": 0.125,
        "velocity": 0.39,
        "hand": "left"
      },
      {
        "midi": 45,
        "time": 42.375,
        "duration": 0.125,
        "velocity": 0.39,
        "hand": "left"
      },
      {
        "midi": 57,
        "time": 42.375,
        "duration": 0.125,
        "velocity": 0.63,
        "hand": "left"
      },
      {
        "midi": 59,
        "time": 42.5,
        "duration": 0.25,
        "velocity": 0.63,
        "hand": "left"
      },
      {
        "midi": 66,
        "time": 42.5,
        "duration": 0.5,
        "velocity": 0.39,
        "hand": "right"
      },
      {
        "midi": 69,
        "time": 42.5,
        "duration": 0.5,
        "velocity": 0.63,
        "hand": "right"
      },
      {
        "midi": 45,
        "time": 42.75,
        "duration": 0.125,
        "velocity": 0.39,
        "hand": "left"
      },
      {
        "midi": 57,
        "time": 42.75,
        "duration": 0.25,
        "velocity": 0.63,
        "hand": "left"
      },
      {
        "midi": 45,
        "time": 42.875,
        "duration": 0.125,
        "velocity": 0.39,
        "hand": "left"
      },
      {
        "midi": 55,
        "time": 43,
        "duration": 0.5,
        "velocity": 0.63,
        "hand": "left"
      },
      {
        "midi": 45,
        "time": 43.25,
        "duration": 0.25,
        "velocity": 0.39,
        "hand": "left"
      },
      {
        "midi": 64,
        "time": 43.25,
        "duration": 0.125,
        "velocity": 0.39,
        "hand": "right"
      },
      {
        "midi": 69,
        "time": 43.25,
        "duration": 0.25,
        "velocity": 0.63,
        "hand": "right"
      },
      {
        "midi": 64,
        "time": 43.375,
        "duration": 0.125,
        "velocity": 0.39,
        "hand": "right"
      },
      {
        "midi": 47,
        "time": 43.5,
        "duration": 0.25,
        "velocity": 0.39,
        "hand": "left"
      },
      {
        "midi": 71,
        "time": 43.5,
        "duration": 0.25,
        "velocity": 0.63,
        "hand": "right"
      },
      {
        "midi": 45,
        "time": 43.75,
        "duration": 0.25,
        "velocity": 0.39,
        "hand": "left"
      },
      {
        "midi": 64,
        "time": 43.75,
        "duration": 0.125,
        "velocity": 0.39,
        "hand": "right"
      },
      {
        "midi": 69,
        "time": 43.75,
        "duration": 0.25,
        "velocity": 0.63,
        "hand": "right"
      },
      {
        "midi": 57,
        "time": 43.875,
        "duration": 0.125,
        "velocity": 0.63,
        "hand": "left"
      },
      {
        "midi": 64,
        "time": 43.875,
        "duration": 0.125,
        "velocity": 0.39,
        "hand": "right"
      },
      {
        "midi": 45,
        "time": 44,
        "duration": 0.5,
        "velocity": 0.39,
        "hand": "left"
      },
      {
        "midi": 61,
        "time": 44,
        "duration": 0.125,
        "velocity": 0.63,
        "hand": "right"
      },
      {
        "midi": 69,
        "time": 44,
        "duration": 0.5,
        "velocity": 0.63,
        "hand": "right"
      },
      {
        "midi": 61,
        "time": 44.125,
        "duration": 0.25,
        "velocity": 0.63,
        "hand": "right"
      },
      {
        "midi": 64,
        "time": 44.25,
        "duration": 0.125,
        "velocity": 0.39,
        "hand": "right"
      },
      {
        "midi": 57,
        "time": 44.375,
        "duration": 0.125,
        "velocity": 0.63,
        "hand": "left"
      },
      {
        "midi": 64,
        "time": 44.375,
        "duration": 0.125,
        "velocity": 0.39,
        "hand": "right"
      },
      {
        "midi": 45,
        "time": 44.5,
        "duration": 0.5,
        "velocity": 0.39,
        "hand": "left"
      },
      {
        "midi": 59,
        "time": 44.5,
        "duration": 0.25,
        "velocity": 0.63,
        "hand": "left"
      },
      {
        "midi": 69,
        "time": 44.5,
        "duration": 0.5,
        "velocity": 0.63,
        "hand": "right"
      },
      {
        "midi": 57,
        "time": 44.75,
        "duration": 0.25,
        "velocity": 0.63,
        "hand": "left"
      },
      {
        "midi": 64,
        "time": 44.75,
        "duration": 0.125,
        "velocity": 0.39,
        "hand": "right"
      },
      {
        "midi": 64,
        "time": 44.875,
        "duration": 0.125,
        "velocity": 0.39,
        "hand": "right"
      },
      {
        "midi": 61,
        "time": 45,
        "duration": 0.125,
        "velocity": 0.63,
        "hand": "right"
      },
      {
        "midi": 61,
        "time": 45.125,
        "duration": 0.25,
        "velocity": 0.63,
        "hand": "right"
      },
      {
        "midi": 64,
        "time": 45.25,
        "duration": 0.125,
        "velocity": 0.39,
        "hand": "right"
      },
      {
        "midi": 69,
        "time": 45.25,
        "duration": 0.25,
        "velocity": 0.63,
        "hand": "right"
      },
      {
        "midi": 45,
        "time": 45.375,
        "duration": 0.125,
        "velocity": 0.39,
        "hand": "left"
      },
      {
        "midi": 57,
        "time": 45.375,
        "duration": 0.125,
        "velocity": 0.63,
        "hand": "left"
      },
      {
        "midi": 64,
        "time": 45.375,
        "duration": 0.125,
        "velocity": 0.39,
        "hand": "right"
      },
      {
        "midi": 47,
        "time": 45.5,
        "duration": 0.25,
        "velocity": 0.39,
        "hand": "left"
      },
      {
        "midi": 59,
        "time": 45.5,
        "duration": 0.25,
        "velocity": 0.63,
        "hand": "left"
      },
      {
        "midi": 71,
        "time": 45.5,
        "duration": 0.25,
        "velocity": 0.63,
        "hand": "right"
      },
      {
        "midi": 45,
        "time": 45.75,
        "duration": 0.25,
        "velocity": 0.39,
        "hand": "left"
      },
      {
        "midi": 64,
        "time": 45.75,
        "duration": 0.125,
        "velocity": 0.39,
        "hand": "right"
      },
      {
        "midi": 69,
        "time": 45.75,
        "duration": 0.25,
        "velocity": 0.63,
        "hand": "right"
      },
      {
        "midi": 64,
        "time": 45.875,
        "duration": 0.125,
        "velocity": 0.39,
        "hand": "right"
      },
      {
        "midi": 49,
        "time": 46,
        "duration": 0.25,
        "velocity": 0.39,
        "hand": "left"
      },
      {
        "midi": 61,
        "time": 46,
        "duration": 0.25,
        "velocity": 0.63,
        "hand": "right"
      },
      {
        "midi": 69,
        "time": 46,
        "duration": 0.125,
        "velocity": 0.63,
        "hand": "right"
      },
      {
        "midi": 69,
        "time": 46.125,
        "duration": 0.25,
        "velocity": 0.63,
        "hand": "right"
      },
      {
        "midi": 45,
        "time": 46.25,
        "duration": 0.25,
        "velocity": 0.39,
        "hand": "left"
      },
      {
        "midi": 57,
        "time": 46.25,
        "duration": 0.25,
        "velocity": 0.63,
        "hand": "left"
      },
      {
        "midi": 64,
        "time": 46.375,
        "duration": 0.125,
        "velocity": 0.39,
        "hand": "right"
      },
      {
        "midi": 69,
        "time": 46.375,
        "duration": 0.125,
        "velocity": 0.63,
        "hand": "right"
      },
      {
        "midi": 47,
        "time": 46.5,
        "duration": 0.25,
        "velocity": 0.39,
        "hand": "left"
      },
      {
        "midi": 64,
        "time": 46.5,
        "duration": 0.25,
        "velocity": 0.39,
        "hand": "right"
      },
      {
        "midi": 71,
        "time": 46.5,
        "duration": 0.25,
        "velocity": 0.63,
        "hand": "right"
      },
      {
        "midi": 49,
        "time": 46.75,
        "duration": 0.25,
        "velocity": 0.39,
        "hand": "left"
      },
      {
        "midi": 64,
        "time": 46.75,
        "duration": 0.25,
        "velocity": 0.39,
        "hand": "right"
      },
      {
        "midi": 73,
        "time": 46.75,
        "duration": 0.25,
        "velocity": 0.63,
        "hand": "right"
      },
      {
        "midi": 50,
        "time": 47,
        "duration": 0.25,
        "velocity": 0.39,
        "hand": "left"
      },
      {
        "midi": 62,
        "time": 47,
        "duration": 0.25,
        "velocity": 0.63,
        "hand": "right"
      },
      {
        "midi": 74,
        "time": 47,
        "duration": 0.5,
        "velocity": 0.63,
        "hand": "right"
      },
      {
        "midi": 50,
        "time": 47.25,
        "duration": 0.125,
        "velocity": 0.39,
        "hand": "left"
      },
      {
        "midi": 62,
        "time": 47.25,
        "duration": 0.125,
        "velocity": 0.63,
        "hand": "right"
      },
      {
        "midi": 50,
        "time": 47.375,
        "duration": 0.125,
        "velocity": 0.39,
        "hand": "left"
      },
      {
        "midi": 62,
        "time": 47.375,
        "duration": 0.125,
        "velocity": 0.63,
        "hand": "right"
      },
      {
        "midi": 62,
        "time": 47.5,
        "duration": 0.5,
        "velocity": 0.39,
        "hand": "right"
      },
      {
        "midi": 74,
        "time": 47.5,
        "duration": 0.5,
        "velocity": 0.63,
        "hand": "right"
      },
      {
        "midi": 50,
        "time": 47.75,
        "duration": 0.125,
        "velocity": 0.39,
        "hand": "left"
      },
      {
        "midi": 62,
        "time": 47.75,
        "duration": 0.125,
        "velocity": 0.63,
        "hand": "right"
      },
      {
        "midi": 50,
        "time": 47.875,
        "duration": 0.125,
        "velocity": 0.39,
        "hand": "left"
      },
      {
        "midi": 62,
        "time": 47.875,
        "duration": 0.125,
        "velocity": 0.63,
        "hand": "right"
      },
      {
        "midi": 50,
        "time": 48.25,
        "duration": 0.125,
        "velocity": 0.63,
        "hand": "left"
      },
      {
        "midi": 62,
        "time": 48.25,
        "duration": 0.125,
        "velocity": 0.63,
        "hand": "right"
      },
      {
        "midi": 74,
        "time": 48.25,
        "duration": 0.125,
        "velocity": 0.63,
        "hand": "right"
      },
      {
        "midi": 50,
        "time": 48.375,
        "duration": 0.125,
        "velocity": 0.63,
        "hand": "left"
      },
      {
        "midi": 62,
        "time": 48.375,
        "duration": 0.125,
        "velocity": 0.63,
        "hand": "right"
      },
      {
        "midi": 74,
        "time": 48.375,
        "duration": 0.125,
        "velocity": 0.63,
        "hand": "right"
      },
      {
        "midi": 50,
        "time": 48.75,
        "duration": 0.125,
        "velocity": 0.63,
        "hand": "left"
      },
      {
        "midi": 62,
        "time": 48.75,
        "duration": 0.125,
        "velocity": 0.63,
        "hand": "right"
      },
      {
        "midi": 74,
        "time": 48.75,
        "duration": 0.125,
        "velocity": 0.63,
        "hand": "right"
      },
      {
        "midi": 50,
        "time": 48.875,
        "duration": 0.125,
        "velocity": 0.63,
        "hand": "left"
      },
      {
        "midi": 62,
        "time": 48.875,
        "duration": 0.125,
        "velocity": 0.63,
        "hand": "right"
      },
      {
        "midi": 74,
        "time": 48.875,
        "duration": 0.125,
        "velocity": 0.63,
        "hand": "right"
      },
      {
        "midi": 50,
        "time": 49.25,
        "duration": 0.125,
        "velocity": 0.63,
        "hand": "left"
      },
      {
        "midi": 62,
        "time": 49.25,
        "duration": 0.125,
        "velocity": 0.63,
        "hand": "right"
      },
      {
        "midi": 50,
        "time": 49.375,
        "duration": 0.125,
        "velocity": 0.63,
        "hand": "left"
      },
      {
        "midi": 62,
        "time": 49.375,
        "duration": 0.125,
        "velocity": 0.63,
        "hand": "right"
      },
      {
        "midi": 50,
        "time": 49.75,
        "duration": 0.125,
        "velocity": 0.63,
        "hand": "left"
      },
      {
        "midi": 62,
        "time": 49.75,
        "duration": 0.125,
        "velocity": 0.63,
        "hand": "right"
      },
      {
        "midi": 50,
        "time": 49.875,
        "duration": 0.125,
        "velocity": 0.63,
        "hand": "left"
      },
      {
        "midi": 62,
        "time": 49.875,
        "duration": 0.125,
        "velocity": 0.63,
        "hand": "right"
      },
      {
        "midi": 50,
        "time": 50.25,
        "duration": 0.125,
        "velocity": 0.63,
        "hand": "left"
      },
      {
        "midi": 62,
        "time": 50.25,
        "duration": 0.125,
        "velocity": 0.63,
        "hand": "right"
      },
      {
        "midi": 50,
        "time": 50.375,
        "duration": 0.125,
        "velocity": 0.63,
        "hand": "left"
      },
      {
        "midi": 62,
        "time": 50.375,
        "duration": 0.125,
        "velocity": 0.63,
        "hand": "right"
      },
      {
        "midi": 50,
        "time": 50.75,
        "duration": 0.125,
        "velocity": 0.63,
        "hand": "left"
      },
      {
        "midi": 62,
        "time": 50.75,
        "duration": 0.125,
        "velocity": 0.63,
        "hand": "right"
      },
      {
        "midi": 50,
        "time": 50.875,
        "duration": 0.125,
        "velocity": 0.63,
        "hand": "left"
      },
      {
        "midi": 62,
        "time": 50.875,
        "duration": 0.125,
        "velocity": 0.63,
        "hand": "right"
      },
      {
        "midi": 50,
        "time": 51.25,
        "duration": 0.125,
        "velocity": 0.63,
        "hand": "left"
      },
      {
        "midi": 50,
        "time": 51.375,
        "duration": 0.125,
        "velocity": 0.63,
        "hand": "left"
      },
      {
        "midi": 50,
        "time": 51.75,
        "duration": 0.125,
        "velocity": 0.63,
        "hand": "left"
      },
      {
        "midi": 50,
        "time": 51.875,
        "duration": 0.125,
        "velocity": 0.63,
        "hand": "left"
      },
      {
        "midi": 50,
        "time": 52.25,
        "duration": 0.125,
        "velocity": 0.63,
        "hand": "left"
      },
      {
        "midi": 50,
        "time": 52.375,
        "duration": 0.125,
        "velocity": 0.63,
        "hand": "left"
      },
      {
        "midi": 50,
        "time": 52.75,
        "duration": 0.125,
        "velocity": 0.63,
        "hand": "left"
      },
      {
        "midi": 50,
        "time": 52.875,
        "duration": 0.125,
        "velocity": 0.63,
        "hand": "left"
      },
      {
        "midi": 50,
        "time": 53.25,
        "duration": 0.125,
        "velocity": 0.63,
        "hand": "left"
      },
      {
        "midi": 50,
        "time": 53.375,
        "duration": 0.125,
        "velocity": 0.63,
        "hand": "left"
      },
      {
        "midi": 50,
        "time": 53.75,
        "duration": 0.125,
        "velocity": 0.63,
        "hand": "left"
      },
      {
        "midi": 50,
        "time": 53.875,
        "duration": 0.125,
        "velocity": 0.63,
        "hand": "left"
      }
    ],
    "hard": [
      {
        "midi": 69,
        "time": 1.75,
        "duration": 0.25,
        "velocity": 0.63,
        "hand": "right"
      },
      {
        "midi": 74,
        "time": 2,
        "duration": 0.125,
        "velocity": 0.63,
        "hand": "right"
      },
      {
        "midi": 74,
        "time": 2.125,
        "duration": 0.25,
        "velocity": 0.63,
        "hand": "right"
      },
      {
        "midi": 54,
        "time": 2.25,
        "duration": 0.125,
        "velocity": 0.63,
        "hand": "left"
      },
      {
        "midi": 57,
        "time": 2.25,
        "duration": 0.125,
        "velocity": 0.63,
        "hand": "left"
      },
      {
        "midi": 62,
        "time": 2.25,
        "duration": 0.125,
        "velocity": 0.63,
        "hand": "right"
      },
      {
        "midi": 54,
        "time": 2.375,
        "duration": 0.125,
        "velocity": 0.63,
        "hand": "left"
      },
      {
        "midi": 57,
        "time": 2.375,
        "duration": 0.125,
        "velocity": 0.63,
        "hand": "left"
      },
      {
        "midi": 62,
        "time": 2.375,
        "duration": 0.125,
        "velocity": 0.63,
        "hand": "right"
      },
      {
        "midi": 69,
        "time": 2.375,
        "duration": 0.125,
        "velocity": 0.63,
        "hand": "right"
      },
      {
        "midi": 71,
        "time": 2.5,
        "duration": 0.25,
        "velocity": 0.63,
        "hand": "right"
      },
      {
        "midi": 54,
        "time": 2.75,
        "duration": 0.125,
        "velocity": 0.63,
        "hand": "left"
      },
      {
        "midi": 57,
        "time": 2.75,
        "duration": 0.125,
        "velocity": 0.63,
        "hand": "left"
      },
      {
        "midi": 62,
        "time": 2.75,
        "duration": 0.125,
        "velocity": 0.63,
        "hand": "right"
      },
      {
        "midi": 69,
        "time": 2.75,
        "duration": 0.25,
        "velocity": 0.63,
        "hand": "right"
      },
      {
        "midi": 54,
        "time": 2.875,
        "duration": 0.125,
        "velocity": 0.63,
        "hand": "left"
      },
      {
        "midi": 57,
        "time": 2.875,
        "duration": 0.125,
        "velocity": 0.63,
        "hand": "left"
      },
      {
        "midi": 62,
        "time": 2.875,
        "duration": 0.125,
        "velocity": 0.63,
        "hand": "right"
      },
      {
        "midi": 66,
        "time": 3,
        "duration": 0.5,
        "velocity": 0.63,
        "hand": "right"
      },
      {
        "midi": 54,
        "time": 3.25,
        "duration": 0.125,
        "velocity": 0.63,
        "hand": "left"
      },
      {
        "midi": 57,
        "time": 3.25,
        "duration": 0.125,
        "velocity": 0.63,
        "hand": "left"
      },
      {
        "midi": 62,
        "time": 3.25,
        "duration": 0.125,
        "velocity": 0.63,
        "hand": "right"
      },
      {
        "midi": 54,
        "time": 3.375,
        "duration": 0.125,
        "velocity": 0.63,
        "hand": "left"
      },
      {
        "midi": 57,
        "time": 3.375,
        "duration": 0.125,
        "velocity": 0.63,
        "hand": "left"
      },
      {
        "midi": 62,
        "time": 3.375,
        "duration": 0.125,
        "velocity": 0.63,
        "hand": "right"
      },
      {
        "midi": 54,
        "time": 3.75,
        "duration": 0.125,
        "velocity": 0.63,
        "hand": "left"
      },
      {
        "midi": 57,
        "time": 3.75,
        "duration": 0.125,
        "velocity": 0.63,
        "hand": "left"
      },
      {
        "midi": 62,
        "time": 3.75,
        "duration": 0.125,
        "velocity": 0.63,
        "hand": "right"
      },
      {
        "midi": 69,
        "time": 3.75,
        "duration": 0.25,
        "velocity": 0.63,
        "hand": "right"
      },
      {
        "midi": 54,
        "time": 3.875,
        "duration": 0.125,
        "velocity": 0.63,
        "hand": "left"
      },
      {
        "midi": 57,
        "time": 3.875,
        "duration": 0.125,
        "velocity": 0.63,
        "hand": "left"
      },
      {
        "midi": 62,
        "time": 3.875,
        "duration": 0.125,
        "velocity": 0.63,
        "hand": "right"
      },
      {
        "midi": 74,
        "time": 4,
        "duration": 0.125,
        "velocity": 0.63,
        "hand": "right"
      },
      {
        "midi": 74,
        "time": 4.125,
        "duration": 0.25,
        "velocity": 0.63,
        "hand": "right"
      },
      {
        "midi": 54,
        "time": 4.25,
        "duration": 0.125,
        "velocity": 0.63,
        "hand": "left"
      },
      {
        "midi": 57,
        "time": 4.25,
        "duration": 0.125,
        "velocity": 0.63,
        "hand": "left"
      },
      {
        "midi": 62,
        "time": 4.25,
        "duration": 0.125,
        "velocity": 0.63,
        "hand": "right"
      },
      {
        "midi": 54,
        "time": 4.375,
        "duration": 0.125,
        "velocity": 0.63,
        "hand": "left"
      },
      {
        "midi": 57,
        "time": 4.375,
        "duration": 0.125,
        "velocity": 0.63,
        "hand": "left"
      },
      {
        "midi": 62,
        "time": 4.375,
        "duration": 0.125,
        "velocity": 0.63,
        "hand": "right"
      },
      {
        "midi": 69,
        "time": 4.375,
        "duration": 0.125,
        "velocity": 0.63,
        "hand": "right"
      },
      {
        "midi": 71,
        "time": 4.5,
        "duration": 0.25,
        "velocity": 0.63,
        "hand": "right"
      },
      {
        "midi": 54,
        "time": 4.75,
        "duration": 0.125,
        "velocity": 0.63,
        "hand": "left"
      },
      {
        "midi": 57,
        "time": 4.75,
        "duration": 0.125,
        "velocity": 0.63,
        "hand": "left"
      },
      {
        "midi": 62,
        "time": 4.75,
        "duration": 0.125,
        "velocity": 0.63,
        "hand": "right"
      },
      {
        "midi": 69,
        "time": 4.75,
        "duration": 0.25,
        "velocity": 0.63,
        "hand": "right"
      },
      {
        "midi": 54,
        "time": 4.875,
        "duration": 0.125,
        "velocity": 0.63,
        "hand": "left"
      },
      {
        "midi": 57,
        "time": 4.875,
        "duration": 0.125,
        "velocity": 0.63,
        "hand": "left"
      },
      {
        "midi": 62,
        "time": 4.875,
        "duration": 0.125,
        "velocity": 0.63,
        "hand": "right"
      },
      {
        "midi": 73,
        "time": 5,
        "duration": 0.5,
        "velocity": 0.63,
        "hand": "right"
      },
      {
        "midi": 52,
        "time": 5.25,
        "duration": 0.125,
        "velocity": 0.63,
        "hand": "left"
      },
      {
        "midi": 57,
        "time": 5.25,
        "duration": 0.125,
        "velocity": 0.63,
        "hand": "left"
      },
      {
        "midi": 61,
        "time": 5.25,
        "duration": 0.125,
        "velocity": 0.63,
        "hand": "right"
      },
      {
        "midi": 52,
        "time": 5.375,
        "duration": 0.125,
        "velocity": 0.63,
        "hand": "left"
      },
      {
        "midi": 57,
        "time": 5.375,
        "duration": 0.125,
        "velocity": 0.63,
        "hand": "left"
      },
      {
        "midi": 61,
        "time": 5.375,
        "duration": 0.125,
        "velocity": 0.63,
        "hand": "right"
      },
      {
        "midi": 52,
        "time": 5.75,
        "duration": 0.125,
        "velocity": 0.63,
        "hand": "left"
      },
      {
        "midi": 57,
        "time": 5.75,
        "duration": 0.125,
        "velocity": 0.63,
        "hand": "left"
      },
      {
        "midi": 61,
        "time": 5.75,
        "duration": 0.125,
        "velocity": 0.63,
        "hand": "right"
      },
      {
        "midi": 69,
        "time": 5.75,
        "duration": 0.125,
        "velocity": 0.63,
        "hand": "right"
      },
      {
        "midi": 52,
        "time": 5.875,
        "duration": 0.125,
        "velocity": 0.63,
        "hand": "left"
      },
      {
        "midi": 57,
        "time": 5.875,
        "duration": 0.125,
        "velocity": 0.63,
        "hand": "left"
      },
      {
        "midi": 61,
        "time": 5.875,
        "duration": 0.125,
        "velocity": 0.63,
        "hand": "right"
      },
      {
        "midi": 69,
        "time": 5.875,
        "duration": 0.125,
        "velocity": 0.63,
        "hand": "right"
      },
      {
        "midi": 73,
        "time": 6,
        "duration": 0.125,
        "velocity": 0.63,
        "hand": "right"
      },
      {
        "midi": 73,
        "time": 6.125,
        "duration": 0.25,
        "velocity": 0.63,
        "hand": "right"
      },
      {
        "midi": 52,
        "time": 6.25,
        "duration": 0.125,
        "velocity": 0.63,
        "hand": "left"
      },
      {
        "midi": 57,
        "time": 6.25,
        "duration": 0.125,
        "velocity": 0.63,
        "hand": "left"
      },
      {
        "midi": 61,
        "time": 6.25,
        "duration": 0.125,
        "velocity": 0.63,
        "hand": "right"
      },
      {
        "midi": 52,
        "time": 6.375,
        "duration": 0.125,
        "velocity": 0.63,
        "hand": "left"
      },
      {
        "midi": 57,
        "time": 6.375,
        "duration": 0.125,
        "velocity": 0.63,
        "hand": "left"
      },
      {
        "midi": 61,
        "time": 6.375,
        "duration": 0.125,
        "velocity": 0.63,
        "hand": "right"
      },
      {
        "midi": 69,
        "time": 6.375,
        "duration": 0.125,
        "velocity": 0.63,
        "hand": "right"
      },
      {
        "midi": 71,
        "time": 6.5,
        "duration": 0.25,
        "velocity": 0.63,
        "hand": "right"
      },
      {
        "midi": 52,
        "time": 6.75,
        "duration": 0.125,
        "velocity": 0.63,
        "hand": "left"
      },
      {
        "midi": 57,
        "time": 6.75,
        "duration": 0.125,
        "velocity": 0.63,
        "hand": "left"
      },
      {
        "midi": 61,
        "time": 6.75,
        "duration": 0.125,
        "velocity": 0.63,
        "hand": "right"
      },
      {
        "midi": 69,
        "time": 6.75,
        "duration": 0.25,
        "velocity": 0.63,
        "hand": "right"
      },
      {
        "midi": 52,
        "time": 6.875,
        "duration": 0.125,
        "velocity": 0.63,
        "hand": "left"
      },
      {
        "midi": 57,
        "time": 6.875,
        "duration": 0.125,
        "velocity": 0.63,
        "hand": "left"
      },
      {
        "midi": 61,
        "time": 6.875,
        "duration": 0.125,
        "velocity": 0.63,
        "hand": "right"
      },
      {
        "midi": 73,
        "time": 7,
        "duration": 0.125,
        "velocity": 0.63,
        "hand": "right"
      },
      {
        "midi": 73,
        "time": 7.125,
        "duration": 0.25,
        "velocity": 0.63,
        "hand": "right"
      },
      {
        "midi": 52,
        "time": 7.25,
        "duration": 0.125,
        "velocity": 0.63,
        "hand": "left"
      },
      {
        "midi": 57,
        "time": 7.25,
        "duration": 0.125,
        "velocity": 0.63,
        "hand": "left"
      },
      {
        "midi": 61,
        "time": 7.25,
        "duration": 0.125,
        "velocity": 0.63,
        "hand": "right"
      },
      {
        "midi": 52,
        "time": 7.375,
        "duration": 0.125,
        "velocity": 0.63,
        "hand": "left"
      },
      {
        "midi": 57,
        "time": 7.375,
        "duration": 0.125,
        "velocity": 0.63,
        "hand": "left"
      },
      {
        "midi": 61,
        "time": 7.375,
        "duration": 0.125,
        "velocity": 0.63,
        "hand": "right"
      },
      {
        "midi": 69,
        "time": 7.375,
        "duration": 0.125,
        "velocity": 0.63,
        "hand": "right"
      },
      {
        "midi": 71,
        "time": 7.5,
        "duration": 0.25,
        "velocity": 0.63,
        "hand": "right"
      },
      {
        "midi": 52,
        "time": 7.75,
        "duration": 0.125,
        "velocity": 0.63,
        "hand": "left"
      },
      {
        "midi": 57,
        "time": 7.75,
        "duration": 0.125,
        "velocity": 0.63,
        "hand": "left"
      },
      {
        "midi": 61,
        "time": 7.75,
        "duration": 0.125,
        "velocity": 0.63,
        "hand": "right"
      },
      {
        "midi": 69,
        "time": 7.75,
        "duration": 0.25,
        "velocity": 0.63,
        "hand": "right"
      },
      {
        "midi": 52,
        "time": 7.875,
        "duration": 0.125,
        "velocity": 0.63,
        "hand": "left"
      },
      {
        "midi": 57,
        "time": 7.875,
        "duration": 0.125,
        "velocity": 0.63,
        "hand": "left"
      },
      {
        "midi": 61,
        "time": 7.875,
        "duration": 0.125,
        "velocity": 0.63,
        "hand": "right"
      },
      {
        "midi": 73,
        "time": 8,
        "duration": 0.25,
        "velocity": 0.63,
        "hand": "right"
      },
      {
        "midi": 52,
        "time": 8.25,
        "duration": 0.125,
        "velocity": 0.63,
        "hand": "left"
      },
      {
        "midi": 57,
        "time": 8.25,
        "duration": 0.125,
        "velocity": 0.63,
        "hand": "left"
      },
      {
        "midi": 61,
        "time": 8.25,
        "duration": 0.125,
        "velocity": 0.63,
        "hand": "right"
      },
      {
        "midi": 69,
        "time": 8.25,
        "duration": 0.25,
        "velocity": 0.63,
        "hand": "right"
      },
      {
        "midi": 52,
        "time": 8.375,
        "duration": 0.125,
        "velocity": 0.63,
        "hand": "left"
      },
      {
        "midi": 57,
        "time": 8.375,
        "duration": 0.125,
        "velocity": 0.63,
        "hand": "left"
      },
      {
        "midi": 61,
        "time": 8.375,
        "duration": 0.125,
        "velocity": 0.63,
        "hand": "right"
      },
      {
        "midi": 71,
        "time": 8.5,
        "duration": 0.25,
        "velocity": 0.63,
        "hand": "right"
      },
      {
        "midi": 52,
        "time": 8.75,
        "duration": 0.125,
        "velocity": 0.63,
        "hand": "left"
      },
      {
        "midi": 57,
        "time": 8.75,
        "duration": 0.125,
        "velocity": 0.63,
        "hand": "left"
      },
      {
        "midi": 61,
        "time": 8.75,
        "duration": 0.125,
        "velocity": 0.63,
        "hand": "right"
      },
      {
        "midi": 73,
        "time": 8.75,
        "duration": 0.25,
        "velocity": 0.63,
        "hand": "right"
      },
      {
        "midi": 52,
        "time": 8.875,
        "duration": 0.125,
        "velocity": 0.63,
        "hand": "left"
      },
      {
        "midi": 57,
        "time": 8.875,
        "duration": 0.125,
        "velocity": 0.63,
        "hand": "left"
      },
      {
        "midi": 61,
        "time": 8.875,
        "duration": 0.125,
        "velocity": 0.63,
        "hand": "right"
      },
      {
        "midi": 54,
        "time": 9,
        "duration": 0.25,
        "velocity": 0.63,
        "hand": "left"
      },
      {
        "midi": 57,
        "time": 9,
        "duration": 0.25,
        "velocity": 0.63,
        "hand": "left"
      },
      {
        "midi": 62,
        "time": 9,
        "duration": 0.25,
        "velocity": 0.63,
        "hand": "right"
      },
      {
        "midi": 74,
        "time": 9,
        "duration": 0.25,
        "velocity": 0.63,
        "hand": "right"
      },
      {
        "midi": 69,
        "time": 9.75,
        "duration": 0.25,
        "velocity": 0.63,
        "hand": "right"
      },
      {
        "midi": 74,
        "time": 10,
        "duration": 0.125,
        "velocity": 0.63,
        "hand": "right"
      },
      {
        "midi": 74,
        "time": 10.125,
        "duration": 0.25,
        "velocity": 0.63,
        "hand": "right"
      },
      {
        "midi": 54,
        "time": 10.25,
        "duration": 0.125,
        "velocity": 0.63,
        "hand": "left"
      },
      {
        "midi": 57,
        "time": 10.25,
        "duration": 0.125,
        "velocity": 0.63,
        "hand": "left"
      },
      {
        "midi": 62,
        "time": 10.25,
        "duration": 0.125,
        "velocity": 0.63,
        "hand": "right"
      },
      {
        "midi": 54,
        "time": 10.375,
        "duration": 0.125,
        "velocity": 0.63,
        "hand": "left"
      },
      {
        "midi": 57,
        "time": 10.375,
        "duration": 0.125,
        "velocity": 0.63,
        "hand": "left"
      },
      {
        "midi": 62,
        "time": 10.375,
        "duration": 0.125,
        "velocity": 0.63,
        "hand": "right"
      },
      {
        "midi": 69,
        "time": 10.375,
        "duration": 0.125,
        "velocity": 0.63,
        "hand": "right"
      },
      {
        "midi": 71,
        "time": 10.5,
        "duration": 0.25,
        "velocity": 0.63,
        "hand": "right"
      },
      {
        "midi": 54,
        "time": 10.75,
        "duration": 0.125,
        "velocity": 0.63,
        "hand": "left"
      },
      {
        "midi": 57,
        "time": 10.75,
        "duration": 0.125,
        "velocity": 0.63,
        "hand": "left"
      },
      {
        "midi": 62,
        "time": 10.75,
        "duration": 0.125,
        "velocity": 0.63,
        "hand": "right"
      },
      {
        "midi": 69,
        "time": 10.75,
        "duration": 0.25,
        "velocity": 0.63,
        "hand": "right"
      },
      {
        "midi": 54,
        "time": 10.875,
        "duration": 0.125,
        "velocity": 0.63,
        "hand": "left"
      },
      {
        "midi": 57,
        "time": 10.875,
        "duration": 0.125,
        "velocity": 0.63,
        "hand": "left"
      },
      {
        "midi": 62,
        "time": 10.875,
        "duration": 0.125,
        "velocity": 0.63,
        "hand": "right"
      },
      {
        "midi": 66,
        "time": 11,
        "duration": 0.5,
        "velocity": 0.63,
        "hand": "right"
      },
      {
        "midi": 54,
        "time": 11.25,
        "duration": 0.125,
        "velocity": 0.63,
        "hand": "left"
      },
      {
        "midi": 57,
        "time": 11.25,
        "duration": 0.125,
        "velocity": 0.63,
        "hand": "left"
      },
      {
        "midi": 62,
        "time": 11.25,
        "duration": 0.125,
        "velocity": 0.63,
        "hand": "right"
      },
      {
        "midi": 54,
        "time": 11.375,
        "duration": 0.125,
        "velocity": 0.63,
        "hand": "left"
      },
      {
        "midi": 57,
        "time": 11.375,
        "duration": 0.125,
        "velocity": 0.63,
        "hand": "left"
      },
      {
        "midi": 62,
        "time": 11.375,
        "duration": 0.125,
        "velocity": 0.63,
        "hand": "right"
      },
      {
        "midi": 54,
        "time": 11.75,
        "duration": 0.125,
        "velocity": 0.63,
        "hand": "left"
      },
      {
        "midi": 57,
        "time": 11.75,
        "duration": 0.125,
        "velocity": 0.63,
        "hand": "left"
      },
      {
        "midi": 62,
        "time": 11.75,
        "duration": 0.125,
        "velocity": 0.63,
        "hand": "right"
      },
      {
        "midi": 69,
        "time": 11.75,
        "duration": 0.25,
        "velocity": 0.63,
        "hand": "right"
      },
      {
        "midi": 54,
        "time": 11.875,
        "duration": 0.125,
        "velocity": 0.63,
        "hand": "left"
      },
      {
        "midi": 57,
        "time": 11.875,
        "duration": 0.125,
        "velocity": 0.63,
        "hand": "left"
      },
      {
        "midi": 62,
        "time": 11.875,
        "duration": 0.125,
        "velocity": 0.63,
        "hand": "right"
      },
      {
        "midi": 74,
        "time": 12,
        "duration": 0.125,
        "velocity": 0.63,
        "hand": "right"
      },
      {
        "midi": 74,
        "time": 12.125,
        "duration": 0.25,
        "velocity": 0.63,
        "hand": "right"
      },
      {
        "midi": 54,
        "time": 12.25,
        "duration": 0.125,
        "velocity": 0.63,
        "hand": "left"
      },
      {
        "midi": 57,
        "time": 12.25,
        "duration": 0.125,
        "velocity": 0.63,
        "hand": "left"
      },
      {
        "midi": 62,
        "time": 12.25,
        "duration": 0.125,
        "velocity": 0.63,
        "hand": "right"
      },
      {
        "midi": 54,
        "time": 12.375,
        "duration": 0.125,
        "velocity": 0.63,
        "hand": "left"
      },
      {
        "midi": 57,
        "time": 12.375,
        "duration": 0.125,
        "velocity": 0.63,
        "hand": "left"
      },
      {
        "midi": 62,
        "time": 12.375,
        "duration": 0.125,
        "velocity": 0.63,
        "hand": "right"
      },
      {
        "midi": 69,
        "time": 12.375,
        "duration": 0.125,
        "velocity": 0.63,
        "hand": "right"
      },
      {
        "midi": 71,
        "time": 12.5,
        "duration": 0.25,
        "velocity": 0.63,
        "hand": "right"
      },
      {
        "midi": 54,
        "time": 12.75,
        "duration": 0.125,
        "velocity": 0.63,
        "hand": "left"
      },
      {
        "midi": 57,
        "time": 12.75,
        "duration": 0.125,
        "velocity": 0.63,
        "hand": "left"
      },
      {
        "midi": 62,
        "time": 12.75,
        "duration": 0.125,
        "velocity": 0.63,
        "hand": "right"
      },
      {
        "midi": 69,
        "time": 12.75,
        "duration": 0.25,
        "velocity": 0.63,
        "hand": "right"
      },
      {
        "midi": 54,
        "time": 12.875,
        "duration": 0.125,
        "velocity": 0.63,
        "hand": "left"
      },
      {
        "midi": 57,
        "time": 12.875,
        "duration": 0.125,
        "velocity": 0.63,
        "hand": "left"
      },
      {
        "midi": 62,
        "time": 12.875,
        "duration": 0.125,
        "velocity": 0.63,
        "hand": "right"
      },
      {
        "midi": 73,
        "time": 13,
        "duration": 0.5,
        "velocity": 0.63,
        "hand": "right"
      },
      {
        "midi": 52,
        "time": 13.25,
        "duration": 0.125,
        "velocity": 0.63,
        "hand": "left"
      },
      {
        "midi": 57,
        "time": 13.25,
        "duration": 0.125,
        "velocity": 0.63,
        "hand": "left"
      },
      {
        "midi": 61,
        "time": 13.25,
        "duration": 0.125,
        "velocity": 0.63,
        "hand": "right"
      },
      {
        "midi": 52,
        "time": 13.375,
        "duration": 0.125,
        "velocity": 0.63,
        "hand": "left"
      },
      {
        "midi": 57,
        "time": 13.375,
        "duration": 0.125,
        "velocity": 0.63,
        "hand": "left"
      },
      {
        "midi": 61,
        "time": 13.375,
        "duration": 0.125,
        "velocity": 0.63,
        "hand": "right"
      },
      {
        "midi": 52,
        "time": 13.75,
        "duration": 0.125,
        "velocity": 0.63,
        "hand": "left"
      },
      {
        "midi": 57,
        "time": 13.75,
        "duration": 0.125,
        "velocity": 0.63,
        "hand": "left"
      },
      {
        "midi": 61,
        "time": 13.75,
        "duration": 0.125,
        "velocity": 0.63,
        "hand": "right"
      },
      {
        "midi": 69,
        "time": 13.75,
        "duration": 0.125,
        "velocity": 0.63,
        "hand": "right"
      },
      {
        "midi": 52,
        "time": 13.875,
        "duration": 0.125,
        "velocity": 0.63,
        "hand": "left"
      },
      {
        "midi": 57,
        "time": 13.875,
        "duration": 0.125,
        "velocity": 0.63,
        "hand": "left"
      },
      {
        "midi": 61,
        "time": 13.875,
        "duration": 0.125,
        "velocity": 0.63,
        "hand": "right"
      },
      {
        "midi": 69,
        "time": 13.875,
        "duration": 0.125,
        "velocity": 0.63,
        "hand": "right"
      },
      {
        "midi": 73,
        "time": 14,
        "duration": 0.125,
        "velocity": 0.63,
        "hand": "right"
      },
      {
        "midi": 73,
        "time": 14.125,
        "duration": 0.25,
        "velocity": 0.63,
        "hand": "right"
      },
      {
        "midi": 52,
        "time": 14.25,
        "duration": 0.125,
        "velocity": 0.63,
        "hand": "left"
      },
      {
        "midi": 57,
        "time": 14.25,
        "duration": 0.125,
        "velocity": 0.63,
        "hand": "left"
      },
      {
        "midi": 61,
        "time": 14.25,
        "duration": 0.125,
        "velocity": 0.63,
        "hand": "right"
      },
      {
        "midi": 52,
        "time": 14.375,
        "duration": 0.125,
        "velocity": 0.63,
        "hand": "left"
      },
      {
        "midi": 57,
        "time": 14.375,
        "duration": 0.125,
        "velocity": 0.63,
        "hand": "left"
      },
      {
        "midi": 61,
        "time": 14.375,
        "duration": 0.125,
        "velocity": 0.63,
        "hand": "right"
      },
      {
        "midi": 69,
        "time": 14.375,
        "duration": 0.125,
        "velocity": 0.63,
        "hand": "right"
      },
      {
        "midi": 71,
        "time": 14.5,
        "duration": 0.25,
        "velocity": 0.63,
        "hand": "right"
      },
      {
        "midi": 52,
        "time": 14.75,
        "duration": 0.125,
        "velocity": 0.63,
        "hand": "left"
      },
      {
        "midi": 57,
        "time": 14.75,
        "duration": 0.125,
        "velocity": 0.63,
        "hand": "left"
      },
      {
        "midi": 61,
        "time": 14.75,
        "duration": 0.125,
        "velocity": 0.63,
        "hand": "right"
      },
      {
        "midi": 69,
        "time": 14.75,
        "duration": 0.25,
        "velocity": 0.63,
        "hand": "right"
      },
      {
        "midi": 52,
        "time": 14.875,
        "duration": 0.125,
        "velocity": 0.63,
        "hand": "left"
      },
      {
        "midi": 57,
        "time": 14.875,
        "duration": 0.125,
        "velocity": 0.63,
        "hand": "left"
      },
      {
        "midi": 61,
        "time": 14.875,
        "duration": 0.125,
        "velocity": 0.63,
        "hand": "right"
      },
      {
        "midi": 73,
        "time": 15,
        "duration": 0.125,
        "velocity": 0.63,
        "hand": "right"
      },
      {
        "midi": 73,
        "time": 15.125,
        "duration": 0.25,
        "velocity": 0.63,
        "hand": "right"
      },
      {
        "midi": 52,
        "time": 15.25,
        "duration": 0.125,
        "velocity": 0.63,
        "hand": "left"
      },
      {
        "midi": 57,
        "time": 15.25,
        "duration": 0.125,
        "velocity": 0.63,
        "hand": "left"
      },
      {
        "midi": 61,
        "time": 15.25,
        "duration": 0.125,
        "velocity": 0.63,
        "hand": "right"
      },
      {
        "midi": 52,
        "time": 15.375,
        "duration": 0.125,
        "velocity": 0.63,
        "hand": "left"
      },
      {
        "midi": 57,
        "time": 15.375,
        "duration": 0.125,
        "velocity": 0.63,
        "hand": "left"
      },
      {
        "midi": 61,
        "time": 15.375,
        "duration": 0.125,
        "velocity": 0.63,
        "hand": "right"
      },
      {
        "midi": 69,
        "time": 15.375,
        "duration": 0.125,
        "velocity": 0.63,
        "hand": "right"
      },
      {
        "midi": 71,
        "time": 15.5,
        "duration": 0.25,
        "velocity": 0.63,
        "hand": "right"
      },
      {
        "midi": 52,
        "time": 15.75,
        "duration": 0.125,
        "velocity": 0.63,
        "hand": "left"
      },
      {
        "midi": 57,
        "time": 15.75,
        "duration": 0.125,
        "velocity": 0.63,
        "hand": "left"
      },
      {
        "midi": 61,
        "time": 15.75,
        "duration": 0.125,
        "velocity": 0.63,
        "hand": "right"
      },
      {
        "midi": 69,
        "time": 15.75,
        "duration": 0.25,
        "velocity": 0.63,
        "hand": "right"
      },
      {
        "midi": 52,
        "time": 15.875,
        "duration": 0.125,
        "velocity": 0.63,
        "hand": "left"
      },
      {
        "midi": 57,
        "time": 15.875,
        "duration": 0.125,
        "velocity": 0.63,
        "hand": "left"
      },
      {
        "midi": 61,
        "time": 15.875,
        "duration": 0.125,
        "velocity": 0.63,
        "hand": "right"
      },
      {
        "midi": 73,
        "time": 16,
        "duration": 0.25,
        "velocity": 0.63,
        "hand": "right"
      },
      {
        "midi": 52,
        "time": 16.25,
        "duration": 0.125,
        "velocity": 0.63,
        "hand": "left"
      },
      {
        "midi": 57,
        "time": 16.25,
        "duration": 0.125,
        "velocity": 0.63,
        "hand": "left"
      },
      {
        "midi": 61,
        "time": 16.25,
        "duration": 0.125,
        "velocity": 0.63,
        "hand": "right"
      },
      {
        "midi": 69,
        "time": 16.25,
        "duration": 0.25,
        "velocity": 0.63,
        "hand": "right"
      },
      {
        "midi": 52,
        "time": 16.375,
        "duration": 0.125,
        "velocity": 0.63,
        "hand": "left"
      },
      {
        "midi": 57,
        "time": 16.375,
        "duration": 0.125,
        "velocity": 0.63,
        "hand": "left"
      },
      {
        "midi": 61,
        "time": 16.375,
        "duration": 0.125,
        "velocity": 0.63,
        "hand": "right"
      },
      {
        "midi": 71,
        "time": 16.5,
        "duration": 0.25,
        "velocity": 0.63,
        "hand": "right"
      },
      {
        "midi": 52,
        "time": 16.75,
        "duration": 0.125,
        "velocity": 0.63,
        "hand": "left"
      },
      {
        "midi": 57,
        "time": 16.75,
        "duration": 0.125,
        "velocity": 0.63,
        "hand": "left"
      },
      {
        "midi": 61,
        "time": 16.75,
        "duration": 0.125,
        "velocity": 0.63,
        "hand": "right"
      },
      {
        "midi": 73,
        "time": 16.75,
        "duration": 0.25,
        "velocity": 0.63,
        "hand": "right"
      },
      {
        "midi": 52,
        "time": 16.875,
        "duration": 0.125,
        "velocity": 0.63,
        "hand": "left"
      },
      {
        "midi": 57,
        "time": 16.875,
        "duration": 0.125,
        "velocity": 0.63,
        "hand": "left"
      },
      {
        "midi": 61,
        "time": 16.875,
        "duration": 0.125,
        "velocity": 0.63,
        "hand": "right"
      },
      {
        "midi": 54,
        "time": 17,
        "duration": 0.25,
        "velocity": 0.63,
        "hand": "left"
      },
      {
        "midi": 57,
        "time": 17,
        "duration": 0.25,
        "velocity": 0.63,
        "hand": "left"
      },
      {
        "midi": 62,
        "time": 17,
        "duration": 0.25,
        "velocity": 0.63,
        "hand": "right"
      },
      {
        "midi": 74,
        "time": 17,
        "duration": 0.25,
        "velocity": 0.63,
        "hand": "right"
      },
      {
        "midi": 57,
        "time": 17.25,
        "duration": 0.25,
        "velocity": 0.63,
        "hand": "left"
      },
      {
        "midi": 59,
        "time": 17.5,
        "duration": 0.25,
        "velocity": 0.63,
        "hand": "left"
      },
      {
        "midi": 57,
        "time": 17.75,
        "duration": 0.25,
        "velocity": 0.63,
        "hand": "left"
      },
      {
        "midi": 52,
        "time": 18,
        "duration": 0.375,
        "velocity": 0.63,
        "hand": "left"
      },
      {
        "midi": 57,
        "time": 18,
        "duration": 0.5,
        "velocity": 0.63,
        "hand": "left"
      },
      {
        "midi": 64,
        "time": 18,
        "duration": 0.5,
        "velocity": 0.63,
        "hand": "right"
      },
      {
        "midi": 69,
        "time": 18.25,
        "duration": 0.125,
        "velocity": 0.63,
        "hand": "right"
      },
      {
        "midi": 52,
        "time": 18.375,
        "duration": 0.375,
        "velocity": 0.63,
        "hand": "left"
      },
      {
        "midi": 69,
        "time": 18.375,
        "duration": 0.125,
        "velocity": 0.63,
        "hand": "right"
      },
      {
        "midi": 61,
        "time": 18.5,
        "duration": 0.5,
        "velocity": 0.63,
        "hand": "right"
      },
      {
        "midi": 69,
        "time": 18.5,
        "duration": 0.5,
        "velocity": 0.63,
        "hand": "right"
      },
      {
        "midi": 45,
        "time": 18.75,
        "duration": 0.25,
        "velocity": 0.63,
        "hand": "left"
      },
      {
        "midi": 69,
        "time": 18.75,
        "duration": 0.125,
        "velocity": 0.63,
        "hand": "right"
      },
      {
        "midi": 69,
        "time": 18.875,
        "duration": 0.125,
        "velocity": 0.63,
        "hand": "right"
      },
      {
        "midi": 52,
        "time": 19,
        "duration": 0.375,
        "velocity": 0.63,
        "hand": "left"
      },
      {
        "midi": 64,
        "time": 19,
        "duration": 0.5,
        "velocity": 0.63,
        "hand": "right"
      },
      {
        "midi": 57,
        "time": 19.125,
        "duration": 0.25,
        "velocity": 0.63,
        "hand": "left"
      },
      {
        "midi": 73,
        "time": 19.25,
        "duration": 0.125,
        "velocity": 0.63,
        "hand": "right"
      },
      {
        "midi": 52,
        "time": 19.375,
        "duration": 0.375,
        "velocity": 0.63,
        "hand": "left"
      },
      {
        "midi": 57,
        "time": 19.375,
        "duration": 0.125,
        "velocity": 0.63,
        "hand": "left"
      },
      {
        "midi": 73,
        "time": 19.375,
        "duration": 0.125,
        "velocity": 0.63,
        "hand": "right"
      },
      {
        "midi": 59,
        "time": 19.5,
        "duration": 0.25,
        "velocity": 0.63,
        "hand": "left"
      },
      {
        "midi": 69,
        "time": 19.5,
        "duration": 0.5,
        "velocity": 0.63,
        "hand": "right"
      },
      {
        "midi": 45,
        "time": 19.75,
        "duration": 0.25,
        "velocity": 0.63,
        "hand": "left"
      },
      {
        "midi": 57,
        "time": 19.75,
        "duration": 0.25,
        "velocity": 0.63,
        "hand": "left"
      },
      {
        "midi": 73,
        "time": 19.75,
        "duration": 0.125,
        "velocity": 0.63,
        "hand": "right"
      },
      {
        "midi": 73,
        "time": 19.875,
        "duration": 0.125,
        "velocity": 0.63,
        "hand": "right"
      },
      {
        "midi": 54,
        "time": 20,
        "duration": 0.375,
        "velocity": 0.63,
        "hand": "left"
      },
      {
        "midi": 57,
        "time": 20,
        "duration": 0.5,
        "velocity": 0.63,
        "hand": "left"
      },
      {
        "midi": 66,
        "time": 20,
        "duration": 0.5,
        "velocity": 0.63,
        "hand": "right"
      },
      {
        "midi": 74,
        "time": 20.25,
        "duration": 0.125,
        "velocity": 0.63,
        "hand": "right"
      },
      {
        "midi": 54,
        "time": 20.375,
        "duration": 0.375,
        "velocity": 0.63,
        "hand": "left"
      },
      {
        "midi": 74,
        "time": 20.375,
        "duration": 0.125,
        "velocity": 0.63,
        "hand": "right"
      },
      {
        "midi": 62,
        "time": 20.5,
        "duration": 0.5,
        "velocity": 0.63,
        "hand": "right"
      },
      {
        "midi": 69,
        "time": 20.5,
        "duration": 0.5,
        "velocity": 0.63,
        "hand": "right"
      },
      {
        "midi": 50,
        "time": 20.75,
        "duration": 0.25,
        "velocity": 0.63,
        "hand": "left"
      },
      {
        "midi": 74,
        "time": 20.75,
        "duration": 0.125,
        "velocity": 0.63,
        "hand": "right"
      },
      {
        "midi": 74,
        "time": 20.875,
        "duration": 0.125,
        "velocity": 0.63,
        "hand": "right"
      },
      {
        "midi": 54,
        "time": 21,
        "duration": 0.375,
        "velocity": 0.63,
        "hand": "left"
      },
      {
        "midi": 66,
        "time": 21,
        "duration": 0.5,
        "velocity": 0.63,
        "hand": "right"
      },
      {
        "midi": 57,
        "time": 21.125,
        "duration": 0.25,
        "velocity": 0.63,
        "hand": "left"
      },
      {
        "midi": 74,
        "time": 21.25,
        "duration": 0.125,
        "velocity": 0.63,
        "hand": "right"
      },
      {
        "midi": 54,
        "time": 21.375,
        "duration": 0.375,
        "velocity": 0.63,
        "hand": "left"
      },
      {
        "midi": 57,
        "time": 21.375,
        "duration": 0.125,
        "velocity": 0.63,
        "hand": "left"
      },
      {
        "midi": 74,
        "time": 21.375,
        "duration": 0.125,
        "velocity": 0.63,
        "hand": "right"
      },
      {
        "midi": 59,
        "time": 21.5,
        "duration": 0.25,
        "velocity": 0.63,
        "hand": "left"
      },
      {
        "midi": 69,
        "time": 21.5,
        "duration": 0.5,
        "velocity": 0.63,
        "hand": "right"
      },
      {
        "midi": 50,
        "time": 21.75,
        "duration": 0.25,
        "velocity": 0.63,
        "hand": "left"
      },
      {
        "midi": 57,
        "time": 21.75,
        "duration": 0.25,
        "velocity": 0.63,
        "hand": "left"
      },
      {
        "midi": 74,
        "time": 21.75,
        "duration": 0.125,
        "velocity": 0.63,
        "hand": "right"
      },
      {
        "midi": 74,
        "time": 21.875,
        "duration": 0.125,
        "velocity": 0.63,
        "hand": "right"
      },
      {
        "midi": 52,
        "time": 22,
        "duration": 0.375,
        "velocity": 0.63,
        "hand": "left"
      },
      {
        "midi": 57,
        "time": 22,
        "duration": 0.5,
        "velocity": 0.63,
        "hand": "left"
      },
      {
        "midi": 64,
        "time": 22,
        "duration": 0.5,
        "velocity": 0.63,
        "hand": "right"
      },
      {
        "midi": 69,
        "time": 22.25,
        "duration": 0.125,
        "velocity": 0.63,
        "hand": "right"
      },
      {
        "midi": 52,
        "time": 22.375,
        "duration": 0.375,
        "velocity": 0.63,
        "hand": "left"
      },
      {
        "midi": 69,
        "time": 22.375,
        "duration": 0.125,
        "velocity": 0.63,
        "hand": "right"
      },
      {
        "midi": 61,
        "time": 22.5,
        "duration": 0.5,
        "velocity": 0.63,
        "hand": "right"
      },
      {
        "midi": 69,
        "time": 22.5,
        "duration": 0.5,
        "velocity": 0.63,
        "hand": "right"
      },
      {
        "midi": 45,
        "time": 22.75,
        "duration": 0.25,
        "velocity": 0.63,
        "hand": "left"
      },
      {
        "midi": 69,
        "time": 22.75,
        "duration": 0.125,
        "velocity": 0.63,
        "hand": "right"
      },
      {
        "midi": 69,
        "time": 22.875,
        "duration": 0.125,
        "velocity": 0.63,
        "hand": "right"
      },
      {
        "midi": 52,
        "time": 23,
        "duration": 0.375,
        "velocity": 0.63,
        "hand": "left"
      },
      {
        "midi": 64,
        "time": 23,
        "duration": 0.5,
        "velocity": 0.63,
        "hand": "right"
      },
      {
        "midi": 57,
        "time": 23.25,
        "duration": 0.25,
        "velocity": 0.63,
        "hand": "left"
      },
      {
        "midi": 69,
        "time": 23.25,
        "duration": 0.125,
        "velocity": 0.63,
        "hand": "right"
      },
      {
        "midi": 52,
        "time": 23.375,
        "duration": 0.375,
        "velocity": 0.63,
        "hand": "left"
      },
      {
        "midi": 69,
        "time": 23.375,
        "duration": 0.125,
        "velocity": 0.63,
        "hand": "right"
      },
      {
        "midi": 59,
        "time": 23.5,
        "duration": 0.25,
        "velocity": 0.63,
        "hand": "left"
      },
      {
        "midi": 69,
        "time": 23.5,
        "duration": 0.5,
        "velocity": 0.63,
        "hand": "right"
      },
      {
        "midi": 45,
        "time": 23.75,
        "duration": 0.25,
        "velocity": 0.63,
        "hand": "left"
      },
      {
        "midi": 61,
        "time": 23.75,
        "duration": 0.25,
        "velocity": 0.63,
        "hand": "right"
      },
      {
        "midi": 69,
        "time": 23.75,
        "duration": 0.125,
        "velocity": 0.63,
        "hand": "right"
      },
      {
        "midi": 69,
        "time": 23.875,
        "duration": 0.125,
        "velocity": 0.63,
        "hand": "right"
      },
      {
        "midi": 50,
        "time": 24,
        "duration": 0.125,
        "velocity": 0.63,
        "hand": "left"
      },
      {
        "midi": 62,
        "time": 24,
        "duration": 1,
        "velocity": 0.63,
        "hand": "right"
      },
      {
        "midi": 66,
        "time": 24,
        "duration": 1,
        "velocity": 0.63,
        "hand": "right"
      },
      {
        "midi": 69,
        "time": 24,
        "duration": 1,
        "velocity": 0.63,
        "hand": "right"
      },
      {
        "midi": 50,
        "time": 24.125,
        "duration": 0.25,
        "velocity": 0.63,
        "hand": "left"
      },
      {
        "midi": 50,
        "time": 24.375,
        "duration": 0.125,
        "velocity": 0.63,
        "hand": "left"
      },
      {
        "midi": 47,
        "time": 24.5,
        "duration": 0.25,
        "velocity": 0.63,
        "hand": "left"
      },
      {
        "midi": 45,
        "time": 24.75,
        "duration": 0.25,
        "velocity": 0.63,
        "hand": "left"
      },
      {
        "midi": 45,
        "time": 25,
        "duration": 0.25,
        "velocity": 0.63,
        "hand": "left"
      },
      {
        "midi": 57,
        "time": 25.25,
        "duration": 0.25,
        "velocity": 0.63,
        "hand": "left"
      },
      {
        "midi": 66,
        "time": 25.25,
        "duration": 0.25,
        "velocity": 0.63,
        "hand": "right"
      },
      {
        "midi": 59,
        "time": 25.5,
        "duration": 0.25,
        "velocity": 0.63,
        "hand": "left"
      },
      {
        "midi": 68,
        "time": 25.5,
        "duration": 0.25,
        "velocity": 0.63,
        "hand": "right"
      },
      {
        "midi": 57,
        "time": 25.75,
        "duration": 0.25,
        "velocity": 0.63,
        "hand": "left"
      },
      {
        "midi": 66,
        "time": 25.75,
        "duration": 0.25,
        "velocity": 0.63,
        "hand": "right"
      },
      {
        "midi": 52,
        "time": 26,
        "duration": 0.375,
        "velocity": 0.63,
        "hand": "left"
      },
      {
        "midi": 57,
        "time": 26,
        "duration": 0.5,
        "velocity": 0.63,
        "hand": "left"
      },
      {
        "midi": 64,
        "time": 26,
        "duration": 0.5,
        "velocity": 0.63,
        "hand": "right"
      },
      {
        "midi": 69,
        "time": 26.25,
        "duration": 0.125,
        "velocity": 0.63,
        "hand": "right"
      },
      {
        "midi": 52,
        "time": 26.375,
        "duration": 0.375,
        "velocity": 0.63,
        "hand": "left"
      },
      {
        "midi": 69,
        "time": 26.375,
        "duration": 0.125,
        "velocity": 0.63,
        "hand": "right"
      },
      {
        "midi": 61,
        "time": 26.5,
        "duration": 0.5,
        "velocity": 0.63,
        "hand": "right"
      },
      {
        "midi": 69,
        "time": 26.5,
        "duration": 0.5,
        "velocity": 0.63,
        "hand": "right"
      },
      {
        "midi": 45,
        "time": 26.75,
        "duration": 0.25,
        "velocity": 0.63,
        "hand": "left"
      },
      {
        "midi": 69,
        "time": 26.75,
        "duration": 0.125,
        "velocity": 0.63,
        "hand": "right"
      },
      {
        "midi": 69,
        "time": 26.875,
        "duration": 0.125,
        "velocity": 0.63,
        "hand": "right"
      },
      {
        "midi": 52,
        "time": 27,
        "duration": 0.375,
        "velocity": 0.63,
        "hand": "left"
      },
      {
        "midi": 64,
        "time": 27,
        "duration": 0.5,
        "velocity": 0.63,
        "hand": "right"
      },
      {
        "midi": 57,
        "time": 27.25,
        "duration": 0.25,
        "velocity": 0.63,
        "hand": "left"
      },
      {
        "midi": 73,
        "time": 27.25,
        "duration": 0.125,
        "velocity": 0.63,
        "hand": "right"
      },
      {
        "midi": 52,
        "time": 27.375,
        "duration": 0.375,
        "velocity": 0.63,
        "hand": "left"
      },
      {
        "midi": 73,
        "time": 27.375,
        "duration": 0.125,
        "velocity": 0.63,
        "hand": "right"
      },
      {
        "midi": 59,
        "time": 27.5,
        "duration": 0.25,
        "velocity": 0.63,
        "hand": "left"
      },
      {
        "midi": 69,
        "time": 27.5,
        "duration": 0.5,
        "velocity": 0.63,
        "hand": "right"
      },
      {
        "midi": 45,
        "time": 27.75,
        "duration": 0.25,
        "velocity": 0.63,
        "hand": "left"
      },
      {
        "midi": 57,
        "time": 27.75,
        "duration": 0.25,
        "velocity": 0.63,
        "hand": "left"
      },
      {
        "midi": 73,
        "time": 27.75,
        "duration": 0.125,
        "velocity": 0.63,
        "hand": "right"
      },
      {
        "midi": 73,
        "time": 27.875,
        "duration": 0.125,
        "velocity": 0.63,
        "hand": "right"
      },
      {
        "midi": 54,
        "time": 28,
        "duration": 0.375,
        "velocity": 0.63,
        "hand": "left"
      },
      {
        "midi": 57,
        "time": 28,
        "duration": 0.5,
        "velocity": 0.63,
        "hand": "left"
      },
      {
        "midi": 66,
        "time": 28,
        "duration": 0.5,
        "velocity": 0.63,
        "hand": "right"
      },
      {
        "midi": 74,
        "time": 28.25,
        "duration": 0.125,
        "velocity": 0.63,
        "hand": "right"
      },
      {
        "midi": 54,
        "time": 28.375,
        "duration": 0.375,
        "velocity": 0.63,
        "hand": "left"
      },
      {
        "midi": 74,
        "time": 28.375,
        "duration": 0.125,
        "velocity": 0.63,
        "hand": "right"
      },
      {
        "midi": 62,
        "time": 28.5,
        "duration": 0.5,
        "velocity": 0.63,
        "hand": "right"
      },
      {
        "midi": 69,
        "time": 28.5,
        "duration": 0.5,
        "velocity": 0.63,
        "hand": "right"
      },
      {
        "midi": 50,
        "time": 28.75,
        "duration": 0.25,
        "velocity": 0.63,
        "hand": "left"
      },
      {
        "midi": 74,
        "time": 28.75,
        "duration": 0.125,
        "velocity": 0.63,
        "hand": "right"
      },
      {
        "midi": 74,
        "time": 28.875,
        "duration": 0.125,
        "velocity": 0.63,
        "hand": "right"
      },
      {
        "midi": 54,
        "time": 29,
        "duration": 0.375,
        "velocity": 0.63,
        "hand": "left"
      },
      {
        "midi": 66,
        "time": 29,
        "duration": 0.5,
        "velocity": 0.63,
        "hand": "right"
      },
      {
        "midi": 57,
        "time": 29.25,
        "duration": 0.25,
        "velocity": 0.63,
        "hand": "left"
      },
      {
        "midi": 74,
        "time": 29.25,
        "duration": 0.125,
        "velocity": 0.63,
        "hand": "right"
      },
      {
        "midi": 54,
        "time": 29.375,
        "duration": 0.375,
        "velocity": 0.63,
        "hand": "left"
      },
      {
        "midi": 74,
        "time": 29.375,
        "duration": 0.125,
        "velocity": 0.63,
        "hand": "right"
      },
      {
        "midi": 59,
        "time": 29.5,
        "duration": 0.25,
        "velocity": 0.63,
        "hand": "left"
      },
      {
        "midi": 69,
        "time": 29.5,
        "duration": 0.5,
        "velocity": 0.63,
        "hand": "right"
      },
      {
        "midi": 50,
        "time": 29.75,
        "duration": 0.25,
        "velocity": 0.63,
        "hand": "left"
      },
      {
        "midi": 57,
        "time": 29.75,
        "duration": 0.25,
        "velocity": 0.63,
        "hand": "left"
      },
      {
        "midi": 74,
        "time": 29.75,
        "duration": 0.125,
        "velocity": 0.63,
        "hand": "right"
      },
      {
        "midi": 74,
        "time": 29.875,
        "duration": 0.125,
        "velocity": 0.63,
        "hand": "right"
      },
      {
        "midi": 52,
        "time": 30,
        "duration": 0.375,
        "velocity": 0.63,
        "hand": "left"
      },
      {
        "midi": 57,
        "time": 30,
        "duration": 0.5,
        "velocity": 0.63,
        "hand": "left"
      },
      {
        "midi": 64,
        "time": 30,
        "duration": 0.5,
        "velocity": 0.63,
        "hand": "right"
      },
      {
        "midi": 69,
        "time": 30.25,
        "duration": 0.125,
        "velocity": 0.63,
        "hand": "right"
      },
      {
        "midi": 52,
        "time": 30.375,
        "duration": 0.375,
        "velocity": 0.63,
        "hand": "left"
      },
      {
        "midi": 69,
        "time": 30.375,
        "duration": 0.125,
        "velocity": 0.63,
        "hand": "right"
      },
      {
        "midi": 61,
        "time": 30.5,
        "duration": 0.5,
        "velocity": 0.63,
        "hand": "right"
      },
      {
        "midi": 69,
        "time": 30.5,
        "duration": 0.5,
        "velocity": 0.63,
        "hand": "right"
      },
      {
        "midi": 45,
        "time": 30.75,
        "duration": 0.25,
        "velocity": 0.63,
        "hand": "left"
      },
      {
        "midi": 69,
        "time": 30.75,
        "duration": 0.125,
        "velocity": 0.63,
        "hand": "right"
      },
      {
        "midi": 69,
        "time": 30.875,
        "duration": 0.125,
        "velocity": 0.63,
        "hand": "right"
      },
      {
        "midi": 52,
        "time": 31,
        "duration": 0.375,
        "velocity": 0.63,
        "hand": "left"
      },
      {
        "midi": 64,
        "time": 31,
        "duration": 0.5,
        "velocity": 0.63,
        "hand": "right"
      },
      {
        "midi": 69,
        "time": 31.25,
        "duration": 0.25,
        "velocity": 0.63,
        "hand": "right"
      },
      {
        "midi": 52,
        "time": 31.375,
        "duration": 0.375,
        "velocity": 0.63,
        "hand": "left"
      },
      {
        "midi": 69,
        "time": 31.5,
        "duration": 0.5,
        "velocity": 0.63,
        "hand": "right"
      },
      {
        "midi": 71,
        "time": 31.5,
        "duration": 0.25,
        "velocity": 0.63,
        "hand": "right"
      },
      {
        "midi": 45,
        "time": 31.75,
        "duration": 0.25,
        "velocity": 0.39,
        "hand": "left"
      },
      {
        "midi": 57,
        "time": 31.75,
        "duration": 0.25,
        "velocity": 0.63,
        "hand": "left"
      },
      {
        "midi": 73,
        "time": 31.75,
        "duration": 0.25,
        "velocity": 0.63,
        "hand": "right"
      },
      {
        "midi": 50,
        "time": 32,
        "duration": 0.125,
        "velocity": 0.39,
        "hand": "left"
      },
      {
        "midi": 62,
        "time": 32,
        "duration": 0.125,
        "velocity": 0.63,
        "hand": "right"
      },
      {
        "midi": 66,
        "time": 32,
        "duration": 1,
        "velocity": 0.63,
        "hand": "right"
      },
      {
        "midi": 74,
        "time": 32,
        "duration": 0.5,
        "velocity": 0.63,
        "hand": "right"
      },
      {
        "midi": 50,
        "time": 32.125,
        "duration": 0.25,
        "velocity": 0.39,
        "hand": "left"
      },
      {
        "midi": 62,
        "time": 32.125,
        "duration": 0.25,
        "velocity": 0.63,
        "hand": "right"
      },
      {
        "midi": 50,
        "time": 32.375,
        "duration": 0.125,
        "velocity": 0.39,
        "hand": "left"
      },
      {
        "midi": 57,
        "time": 32.375,
        "duration": 0.125,
        "velocity": 0.63,
        "hand": "left"
      },
      {
        "midi": 47,
        "time": 32.5,
        "duration": 0.25,
        "velocity": 0.39,
        "hand": "left"
      },
      {
        "midi": 59,
        "time": 32.5,
        "duration": 0.25,
        "velocity": 0.63,
        "hand": "left"
      },
      {
        "midi": 74,
        "time": 32.5,
        "duration": 0.75,
        "velocity": 0.63,
        "hand": "right"
      },
      {
        "midi": 45,
        "time": 32.75,
        "duration": 0.25,
        "velocity": 0.39,
        "hand": "left"
      },
      {
        "midi": 57,
        "time": 32.75,
        "duration": 0.25,
        "velocity": 0.63,
        "hand": "left"
      },
      {
        "midi": 45,
        "time": 33,
        "duration": 0.25,
        "velocity": 0.39,
        "hand": "left"
      },
      {
        "midi": 54,
        "time": 33,
        "duration": 0.5,
        "velocity": 0.63,
        "hand": "left"
      },
      {
        "midi": 45,
        "time": 33.25,
        "duration": 0.125,
        "velocity": 0.39,
        "hand": "left"
      },
      {
        "midi": 66,
        "time": 33.25,
        "duration": 0.25,
        "velocity": 0.39,
        "hand": "right"
      },
      {
        "midi": 69,
        "time": 33.25,
        "duration": 0.25,
        "velocity": 0.63,
        "hand": "right"
      },
      {
        "midi": 45,
        "time": 33.375,
        "duration": 0.125,
        "velocity": 0.39,
        "hand": "left"
      },
      {
        "midi": 68,
        "time": 33.5,
        "duration": 0.25,
        "velocity": 0.39,
        "hand": "right"
      },
      {
        "midi": 71,
        "time": 33.5,
        "duration": 0.25,
        "velocity": 0.63,
        "hand": "right"
      },
      {
        "midi": 45,
        "time": 33.75,
        "duration": 0.125,
        "velocity": 0.39,
        "hand": "left"
      },
      {
        "midi": 57,
        "time": 33.75,
        "duration": 0.25,
        "velocity": 0.63,
        "hand": "left"
      },
      {
        "midi": 66,
        "time": 33.75,
        "duration": 0.25,
        "velocity": 0.39,
        "hand": "right"
      },
      {
        "midi": 69,
        "time": 33.75,
        "duration": 0.25,
        "velocity": 0.63,
        "hand": "right"
      },
      {
        "midi": 45,
        "time": 33.875,
        "duration": 0.125,
        "velocity": 0.39,
        "hand": "left"
      },
      {
        "midi": 62,
        "time": 34,
        "duration": 0.125,
        "velocity": 0.63,
        "hand": "right"
      },
      {
        "midi": 66,
        "time": 34,
        "duration": 0.5,
        "velocity": 0.39,
        "hand": "right"
      },
      {
        "midi": 69,
        "time": 34,
        "duration": 0.5,
        "velocity": 0.63,
        "hand": "right"
      },
      {
        "midi": 62,
        "time": 34.125,
        "duration": 0.25,
        "velocity": 0.63,
        "hand": "right"
      },
      {
        "midi": 45,
        "time": 34.25,
        "duration": 0.125,
        "velocity": 0.39,
        "hand": "left"
      },
      {
        "midi": 45,
        "time": 34.375,
        "duration": 0.125,
        "velocity": 0.39,
        "hand": "left"
      },
      {
        "midi": 57,
        "time": 34.375,
        "duration": 0.125,
        "velocity": 0.63,
        "hand": "left"
      },
      {
        "midi": 59,
        "time": 34.5,
        "duration": 0.25,
        "velocity": 0.63,
        "hand": "left"
      },
      {
        "midi": 66,
        "time": 34.5,
        "duration": 0.5,
        "velocity": 0.39,
        "hand": "right"
      },
      {
        "midi": 69,
        "time": 34.5,
        "duration": 0.5,
        "velocity": 0.63,
        "hand": "right"
      },
      {
        "midi": 45,
        "time": 34.75,
        "duration": 0.125,
        "velocity": 0.39,
        "hand": "left"
      },
      {
        "midi": 57,
        "time": 34.75,
        "duration": 0.25,
        "velocity": 0.63,
        "hand": "left"
      },
      {
        "midi": 45,
        "time": 34.875,
        "duration": 0.125,
        "velocity": 0.39,
        "hand": "left"
      },
      {
        "midi": 61,
        "time": 35,
        "duration": 0.5,
        "velocity": 0.63,
        "hand": "right"
      },
      {
        "midi": 45,
        "time": 35.125,
        "duration": 0.25,
        "velocity": 0.39,
        "hand": "left"
      },
      {
        "midi": 69,
        "time": 35.125,
        "duration": 0.25,
        "velocity": 0.63,
        "hand": "right"
      },
      {
        "midi": 64,
        "time": 35.25,
        "duration": 0.125,
        "velocity": 0.39,
        "hand": "right"
      },
      {
        "midi": 45,
        "time": 35.375,
        "duration": 0.125,
        "velocity": 0.39,
        "hand": "left"
      },
      {
        "midi": 64,
        "time": 35.375,
        "duration": 0.125,
        "velocity": 0.39,
        "hand": "right"
      },
      {
        "midi": 69,
        "time": 35.375,
        "duration": 0.125,
        "velocity": 0.63,
        "hand": "right"
      },
      {
        "midi": 47,
        "time": 35.5,
        "duration": 0.25,
        "velocity": 0.39,
        "hand": "left"
      },
      {
        "midi": 71,
        "time": 35.5,
        "duration": 0.25,
        "velocity": 0.63,
        "hand": "right"
      },
      {
        "midi": 45,
        "time": 35.75,
        "duration": 0.25,
        "velocity": 0.39,
        "hand": "left"
      },
      {
        "midi": 57,
        "time": 35.75,
        "duration": 0.125,
        "velocity": 0.63,
        "hand": "left"
      },
      {
        "midi": 64,
        "time": 35.75,
        "duration": 0.125,
        "velocity": 0.39,
        "hand": "right"
      },
      {
        "midi": 69,
        "time": 35.75,
        "duration": 0.25,
        "velocity": 0.63,
        "hand": "right"
      },
      {
        "midi": 57,
        "time": 35.875,
        "duration": 0.125,
        "velocity": 0.63,
        "hand": "left"
      },
      {
        "midi": 64,
        "time": 35.875,
        "duration": 0.125,
        "velocity": 0.39,
        "hand": "right"
      },
      {
        "midi": 45,
        "time": 36,
        "duration": 0.25,
        "velocity": 0.39,
        "hand": "left"
      },
      {
        "midi": 61,
        "time": 36,
        "duration": 0.125,
        "velocity": 0.63,
        "hand": "right"
      },
      {
        "midi": 69,
        "time": 36,
        "duration": 0.5,
        "velocity": 0.63,
        "hand": "right"
      },
      {
        "midi": 61,
        "time": 36.125,
        "duration": 0.25,
        "velocity": 0.63,
        "hand": "right"
      },
      {
        "midi": 45,
        "time": 36.25,
        "duration": 0.125,
        "velocity": 0.39,
        "hand": "left"
      },
      {
        "midi": 64,
        "time": 36.25,
        "duration": 0.125,
        "velocity": 0.39,
        "hand": "right"
      },
      {
        "midi": 45,
        "time": 36.375,
        "duration": 0.125,
        "velocity": 0.39,
        "hand": "left"
      },
      {
        "midi": 57,
        "time": 36.375,
        "duration": 0.125,
        "velocity": 0.63,
        "hand": "left"
      },
      {
        "midi": 64,
        "time": 36.375,
        "duration": 0.125,
        "velocity": 0.39,
        "hand": "right"
      },
      {
        "midi": 59,
        "time": 36.5,
        "duration": 0.25,
        "velocity": 0.63,
        "hand": "left"
      },
      {
        "midi": 69,
        "time": 36.5,
        "duration": 0.5,
        "velocity": 0.63,
        "hand": "right"
      },
      {
        "midi": 45,
        "time": 36.75,
        "duration": 0.125,
        "velocity": 0.39,
        "hand": "left"
      },
      {
        "midi": 57,
        "time": 36.75,
        "duration": 0.25,
        "velocity": 0.63,
        "hand": "left"
      },
      {
        "midi": 64,
        "time": 36.75,
        "duration": 0.125,
        "velocity": 0.39,
        "hand": "right"
      },
      {
        "midi": 45,
        "time": 36.875,
        "duration": 0.125,
        "velocity": 0.39,
        "hand": "left"
      },
      {
        "midi": 64,
        "time": 36.875,
        "duration": 0.125,
        "velocity": 0.39,
        "hand": "right"
      },
      {
        "midi": 61,
        "time": 37,
        "duration": 0.125,
        "velocity": 0.63,
        "hand": "right"
      },
      {
        "midi": 61,
        "time": 37.125,
        "duration": 0.25,
        "velocity": 0.63,
        "hand": "right"
      },
      {
        "midi": 69,
        "time": 37.125,
        "duration": 0.25,
        "velocity": 0.63,
        "hand": "right"
      },
      {
        "midi": 64,
        "time": 37.25,
        "duration": 0.125,
        "velocity": 0.39,
        "hand": "right"
      },
      {
        "midi": 45,
        "time": 37.375,
        "duration": 0.125,
        "velocity": 0.39,
        "hand": "left"
      },
      {
        "midi": 57,
        "time": 37.375,
        "duration": 0.125,
        "velocity": 0.63,
        "hand": "left"
      },
      {
        "midi": 64,
        "time": 37.375,
        "duration": 0.125,
        "velocity": 0.39,
        "hand": "right"
      },
      {
        "midi": 69,
        "time": 37.375,
        "duration": 0.125,
        "velocity": 0.63,
        "hand": "right"
      },
      {
        "midi": 47,
        "time": 37.5,
        "duration": 0.25,
        "velocity": 0.39,
        "hand": "left"
      },
      {
        "midi": 59,
        "time": 37.5,
        "duration": 0.25,
        "velocity": 0.63,
        "hand": "left"
      },
      {
        "midi": 71,
        "time": 37.5,
        "duration": 0.25,
        "velocity": 0.63,
        "hand": "right"
      },
      {
        "midi": 45,
        "time": 37.75,
        "duration": 0.25,
        "velocity": 0.39,
        "hand": "left"
      },
      {
        "midi": 57,
        "time": 37.75,
        "duration": 0.25,
        "velocity": 0.63,
        "hand": "left"
      },
      {
        "midi": 64,
        "time": 37.75,
        "duration": 0.125,
        "velocity": 0.39,
        "hand": "right"
      },
      {
        "midi": 69,
        "time": 37.75,
        "duration": 0.25,
        "velocity": 0.63,
        "hand": "right"
      },
      {
        "midi": 64,
        "time": 37.875,
        "duration": 0.125,
        "velocity": 0.39,
        "hand": "right"
      },
      {
        "midi": 49,
        "time": 38,
        "duration": 0.25,
        "velocity": 0.39,
        "hand": "left"
      },
      {
        "midi": 61,
        "time": 38,
        "duration": 0.25,
        "velocity": 0.63,
        "hand": "right"
      },
      {
        "midi": 69,
        "time": 38,
        "duration": 0.5,
        "velocity": 0.63,
        "hand": "right"
      },
      {
        "midi": 45,
        "time": 38.25,
        "duration": 0.25,
        "velocity": 0.39,
        "hand": "left"
      },
      {
        "midi": 57,
        "time": 38.25,
        "duration": 0.25,
        "velocity": 0.63,
        "hand": "left"
      },
      {
        "midi": 64,
        "time": 38.25,
        "duration": 0.125,
        "velocity": 0.39,
        "hand": "right"
      },
      {
        "midi": 64,
        "time": 38.375,
        "duration": 0.125,
        "velocity": 0.39,
        "hand": "right"
      },
      {
        "midi": 47,
        "time": 38.5,
        "duration": 0.25,
        "velocity": 0.39,
        "hand": "left"
      },
      {
        "midi": 59,
        "time": 38.5,
        "duration": 0.25,
        "velocity": 0.63,
        "hand": "left"
      },
      {
        "midi": 69,
        "time": 38.5,
        "duration": 0.5,
        "velocity": 0.63,
        "hand": "right"
      },
      {
        "midi": 49,
        "time": 38.75,
        "duration": 0.25,
        "velocity": 0.39,
        "hand": "left"
      },
      {
        "midi": 61,
        "time": 38.75,
        "duration": 0.25,
        "velocity": 0.63,
        "hand": "right"
      },
      {
        "midi": 64,
        "time": 38.75,
        "duration": 0.125,
        "velocity": 0.39,
        "hand": "right"
      },
      {
        "midi": 64,
        "time": 38.875,
        "duration": 0.125,
        "velocity": 0.39,
        "hand": "right"
      },
      {
        "midi": 50,
        "time": 39,
        "duration": 0.25,
        "velocity": 0.39,
        "hand": "left"
      },
      {
        "midi": 62,
        "time": 39,
        "duration": 0.5,
        "velocity": 0.63,
        "hand": "right"
      },
      {
        "midi": 50,
        "time": 39.25,
        "duration": 0.125,
        "velocity": 0.39,
        "hand": "left"
      },
      {
        "midi": 66,
        "time": 39.25,
        "duration": 0.25,
        "velocity": 0.39,
        "hand": "right"
      },
      {
        "midi": 69,
        "time": 39.25,
        "duration": 0.25,
        "velocity": 0.63,
        "hand": "right"
      },
      {
        "midi": 50,
        "time": 39.375,
        "duration": 0.125,
        "velocity": 0.39,
        "hand": "left"
      },
      {
        "midi": 67,
        "time": 39.5,
        "duration": 0.25,
        "velocity": 0.39,
        "hand": "right"
      },
      {
        "midi": 71,
        "time": 39.5,
        "duration": 0.25,
        "velocity": 0.63,
        "hand": "right"
      },
      {
        "midi": 57,
        "time": 39.75,
        "duration": 0.25,
        "velocity": 0.63,
        "hand": "left"
      },
      {
        "midi": 66,
        "time": 39.75,
        "duration": 0.25,
        "velocity": 0.39,
        "hand": "right"
      },
      {
        "midi": 73,
        "time": 39.75,
        "duration": 0.25,
        "velocity": 0.63,
        "hand": "right"
      },
      {
        "midi": 50,
        "time": 40,
        "duration": 0.125,
        "velocity": 0.39,
        "hand": "left"
      },
      {
        "midi": 62,
        "time": 40,
        "duration": 0.25,
        "velocity": 0.39,
        "hand": "right"
      },
      {
        "midi": 62,
        "time": 40,
        "duration": 0.125,
        "velocity": 0.63,
        "hand": "right"
      },
      {
        "midi": 74,
        "time": 40,
        "duration": 1,
        "velocity": 0.63,
        "hand": "right"
      },
      {
        "midi": 50,
        "time": 40.125,
        "duration": 0.25,
        "velocity": 0.39,
        "hand": "left"
      },
      {
        "midi": 62,
        "time": 40.125,
        "duration": 0.25,
        "velocity": 0.63,
        "hand": "right"
      },
      {
        "midi": 62,
        "time": 40.25,
        "duration": 0.125,
        "velocity": 0.39,
        "hand": "right"
      },
      {
        "midi": 50,
        "time": 40.375,
        "duration": 0.125,
        "velocity": 0.39,
        "hand": "left"
      },
      {
        "midi": 57,
        "time": 40.375,
        "duration": 0.125,
        "velocity": 0.63,
        "hand": "left"
      },
      {
        "midi": 62,
        "time": 40.375,
        "duration": 0.125,
        "velocity": 0.39,
        "hand": "right"
      },
      {
        "midi": 47,
        "time": 40.5,
        "duration": 0.25,
        "velocity": 0.39,
        "hand": "left"
      },
      {
        "midi": 59,
        "time": 40.5,
        "duration": 0.25,
        "velocity": 0.63,
        "hand": "left"
      },
      {
        "midi": 45,
        "time": 40.75,
        "duration": 0.25,
        "velocity": 0.39,
        "hand": "left"
      },
      {
        "midi": 57,
        "time": 40.75,
        "duration": 0.25,
        "velocity": 0.63,
        "hand": "left"
      },
      {
        "midi": 62,
        "time": 40.75,
        "duration": 0.125,
        "velocity": 0.39,
        "hand": "right"
      },
      {
        "midi": 62,
        "time": 40.875,
        "duration": 0.125,
        "velocity": 0.39,
        "hand": "right"
      },
      {
        "midi": 45,
        "time": 41,
        "duration": 0.25,
        "velocity": 0.39,
        "hand": "left"
      },
      {
        "midi": 54,
        "time": 41,
        "duration": 0.5,
        "velocity": 0.63,
        "hand": "left"
      },
      {
        "midi": 45,
        "time": 41.25,
        "duration": 0.125,
        "velocity": 0.39,
        "hand": "left"
      },
      {
        "midi": 66,
        "time": 41.25,
        "duration": 0.25,
        "velocity": 0.39,
        "hand": "right"
      },
      {
        "midi": 69,
        "time": 41.25,
        "duration": 0.25,
        "velocity": 0.63,
        "hand": "right"
      },
      {
        "midi": 45,
        "time": 41.375,
        "duration": 0.125,
        "velocity": 0.39,
        "hand": "left"
      },
      {
        "midi": 68,
        "time": 41.5,
        "duration": 0.25,
        "velocity": 0.39,
        "hand": "right"
      },
      {
        "midi": 71,
        "time": 41.5,
        "duration": 0.25,
        "velocity": 0.63,
        "hand": "right"
      },
      {
        "midi": 45,
        "time": 41.75,
        "duration": 0.125,
        "velocity": 0.39,
        "hand": "left"
      },
      {
        "midi": 57,
        "time": 41.75,
        "duration": 0.25,
        "velocity": 0.63,
        "hand": "left"
      },
      {
        "midi": 66,
        "time": 41.75,
        "duration": 0.25,
        "velocity": 0.39,
        "hand": "right"
      },
      {
        "midi": 69,
        "time": 41.75,
        "duration": 0.25,
        "velocity": 0.63,
        "hand": "right"
      },
      {
        "midi": 45,
        "time": 41.875,
        "duration": 0.125,
        "velocity": 0.39,
        "hand": "left"
      },
      {
        "midi": 62,
        "time": 42,
        "duration": 0.125,
        "velocity": 0.63,
        "hand": "right"
      },
      {
        "midi": 66,
        "time": 42,
        "duration": 0.5,
        "velocity": 0.39,
        "hand": "right"
      },
      {
        "midi": 69,
        "time": 42,
        "duration": 0.5,
        "velocity": 0.63,
        "hand": "right"
      },
      {
        "midi": 62,
        "time": 42.125,
        "duration": 0.25,
        "velocity": 0.63,
        "hand": "right"
      },
      {
        "midi": 45,
        "time": 42.25,
        "duration": 0.125,
        "velocity": 0.39,
        "hand": "left"
      },
      {
        "midi": 45,
        "time": 42.375,
        "duration": 0.125,
        "velocity": 0.39,
        "hand": "left"
      },
      {
        "midi": 57,
        "time": 42.375,
        "duration": 0.125,
        "velocity": 0.63,
        "hand": "left"
      },
      {
        "midi": 59,
        "time": 42.5,
        "duration": 0.25,
        "velocity": 0.63,
        "hand": "left"
      },
      {
        "midi": 66,
        "time": 42.5,
        "duration": 0.5,
        "velocity": 0.39,
        "hand": "right"
      },
      {
        "midi": 69,
        "time": 42.5,
        "duration": 0.5,
        "velocity": 0.63,
        "hand": "right"
      },
      {
        "midi": 45,
        "time": 42.75,
        "duration": 0.125,
        "velocity": 0.39,
        "hand": "left"
      },
      {
        "midi": 57,
        "time": 42.75,
        "duration": 0.25,
        "velocity": 0.63,
        "hand": "left"
      },
      {
        "midi": 45,
        "time": 42.875,
        "duration": 0.125,
        "velocity": 0.39,
        "hand": "left"
      },
      {
        "midi": 55,
        "time": 43,
        "duration": 0.5,
        "velocity": 0.63,
        "hand": "left"
      },
      {
        "midi": 45,
        "time": 43.25,
        "duration": 0.25,
        "velocity": 0.39,
        "hand": "left"
      },
      {
        "midi": 64,
        "time": 43.25,
        "duration": 0.125,
        "velocity": 0.39,
        "hand": "right"
      },
      {
        "midi": 69,
        "time": 43.25,
        "duration": 0.25,
        "velocity": 0.63,
        "hand": "right"
      },
      {
        "midi": 64,
        "time": 43.375,
        "duration": 0.125,
        "velocity": 0.39,
        "hand": "right"
      },
      {
        "midi": 47,
        "time": 43.5,
        "duration": 0.25,
        "velocity": 0.39,
        "hand": "left"
      },
      {
        "midi": 71,
        "time": 43.5,
        "duration": 0.25,
        "velocity": 0.63,
        "hand": "right"
      },
      {
        "midi": 45,
        "time": 43.75,
        "duration": 0.25,
        "velocity": 0.39,
        "hand": "left"
      },
      {
        "midi": 57,
        "time": 43.75,
        "duration": 0.125,
        "velocity": 0.63,
        "hand": "left"
      },
      {
        "midi": 64,
        "time": 43.75,
        "duration": 0.125,
        "velocity": 0.39,
        "hand": "right"
      },
      {
        "midi": 69,
        "time": 43.75,
        "duration": 0.25,
        "velocity": 0.63,
        "hand": "right"
      },
      {
        "midi": 57,
        "time": 43.875,
        "duration": 0.125,
        "velocity": 0.63,
        "hand": "left"
      },
      {
        "midi": 64,
        "time": 43.875,
        "duration": 0.125,
        "velocity": 0.39,
        "hand": "right"
      },
      {
        "midi": 45,
        "time": 44,
        "duration": 0.5,
        "velocity": 0.39,
        "hand": "left"
      },
      {
        "midi": 61,
        "time": 44,
        "duration": 0.125,
        "velocity": 0.63,
        "hand": "right"
      },
      {
        "midi": 69,
        "time": 44,
        "duration": 0.5,
        "velocity": 0.63,
        "hand": "right"
      },
      {
        "midi": 61,
        "time": 44.125,
        "duration": 0.25,
        "velocity": 0.63,
        "hand": "right"
      },
      {
        "midi": 64,
        "time": 44.25,
        "duration": 0.125,
        "velocity": 0.39,
        "hand": "right"
      },
      {
        "midi": 57,
        "time": 44.375,
        "duration": 0.125,
        "velocity": 0.63,
        "hand": "left"
      },
      {
        "midi": 64,
        "time": 44.375,
        "duration": 0.125,
        "velocity": 0.39,
        "hand": "right"
      },
      {
        "midi": 45,
        "time": 44.5,
        "duration": 0.5,
        "velocity": 0.39,
        "hand": "left"
      },
      {
        "midi": 59,
        "time": 44.5,
        "duration": 0.25,
        "velocity": 0.63,
        "hand": "left"
      },
      {
        "midi": 69,
        "time": 44.5,
        "duration": 0.5,
        "velocity": 0.63,
        "hand": "right"
      },
      {
        "midi": 57,
        "time": 44.75,
        "duration": 0.25,
        "velocity": 0.63,
        "hand": "left"
      },
      {
        "midi": 64,
        "time": 44.75,
        "duration": 0.125,
        "velocity": 0.39,
        "hand": "right"
      },
      {
        "midi": 64,
        "time": 44.875,
        "duration": 0.125,
        "velocity": 0.39,
        "hand": "right"
      },
      {
        "midi": 61,
        "time": 45,
        "duration": 0.125,
        "velocity": 0.63,
        "hand": "right"
      },
      {
        "midi": 61,
        "time": 45.125,
        "duration": 0.25,
        "velocity": 0.63,
        "hand": "right"
      },
      {
        "midi": 64,
        "time": 45.25,
        "duration": 0.125,
        "velocity": 0.39,
        "hand": "right"
      },
      {
        "midi": 69,
        "time": 45.25,
        "duration": 0.25,
        "velocity": 0.63,
        "hand": "right"
      },
      {
        "midi": 45,
        "time": 45.375,
        "duration": 0.125,
        "velocity": 0.39,
        "hand": "left"
      },
      {
        "midi": 57,
        "time": 45.375,
        "duration": 0.125,
        "velocity": 0.63,
        "hand": "left"
      },
      {
        "midi": 64,
        "time": 45.375,
        "duration": 0.125,
        "velocity": 0.39,
        "hand": "right"
      },
      {
        "midi": 47,
        "time": 45.5,
        "duration": 0.25,
        "velocity": 0.39,
        "hand": "left"
      },
      {
        "midi": 59,
        "time": 45.5,
        "duration": 0.25,
        "velocity": 0.63,
        "hand": "left"
      },
      {
        "midi": 71,
        "time": 45.5,
        "duration": 0.25,
        "velocity": 0.63,
        "hand": "right"
      },
      {
        "midi": 45,
        "time": 45.75,
        "duration": 0.25,
        "velocity": 0.39,
        "hand": "left"
      },
      {
        "midi": 57,
        "time": 45.75,
        "duration": 0.25,
        "velocity": 0.63,
        "hand": "left"
      },
      {
        "midi": 64,
        "time": 45.75,
        "duration": 0.125,
        "velocity": 0.39,
        "hand": "right"
      },
      {
        "midi": 69,
        "time": 45.75,
        "duration": 0.25,
        "velocity": 0.63,
        "hand": "right"
      },
      {
        "midi": 64,
        "time": 45.875,
        "duration": 0.125,
        "velocity": 0.39,
        "hand": "right"
      },
      {
        "midi": 49,
        "time": 46,
        "duration": 0.25,
        "velocity": 0.39,
        "hand": "left"
      },
      {
        "midi": 61,
        "time": 46,
        "duration": 0.25,
        "velocity": 0.63,
        "hand": "right"
      },
      {
        "midi": 69,
        "time": 46,
        "duration": 0.125,
        "velocity": 0.63,
        "hand": "right"
      },
      {
        "midi": 69,
        "time": 46.125,
        "duration": 0.25,
        "velocity": 0.63,
        "hand": "right"
      },
      {
        "midi": 45,
        "time": 46.25,
        "duration": 0.25,
        "velocity": 0.39,
        "hand": "left"
      },
      {
        "midi": 57,
        "time": 46.25,
        "duration": 0.25,
        "velocity": 0.63,
        "hand": "left"
      },
      {
        "midi": 64,
        "time": 46.375,
        "duration": 0.125,
        "velocity": 0.39,
        "hand": "right"
      },
      {
        "midi": 69,
        "time": 46.375,
        "duration": 0.125,
        "velocity": 0.63,
        "hand": "right"
      },
      {
        "midi": 47,
        "time": 46.5,
        "duration": 0.25,
        "velocity": 0.39,
        "hand": "left"
      },
      {
        "midi": 59,
        "time": 46.5,
        "duration": 0.25,
        "velocity": 0.63,
        "hand": "left"
      },
      {
        "midi": 64,
        "time": 46.5,
        "duration": 0.25,
        "velocity": 0.39,
        "hand": "right"
      },
      {
        "midi": 71,
        "time": 46.5,
        "duration": 0.25,
        "velocity": 0.63,
        "hand": "right"
      },
      {
        "midi": 49,
        "time": 46.75,
        "duration": 0.25,
        "velocity": 0.39,
        "hand": "left"
      },
      {
        "midi": 61,
        "time": 46.75,
        "duration": 0.25,
        "velocity": 0.63,
        "hand": "right"
      },
      {
        "midi": 64,
        "time": 46.75,
        "duration": 0.25,
        "velocity": 0.39,
        "hand": "right"
      },
      {
        "midi": 73,
        "time": 46.75,
        "duration": 0.25,
        "velocity": 0.63,
        "hand": "right"
      },
      {
        "midi": 50,
        "time": 47,
        "duration": 0.25,
        "velocity": 0.39,
        "hand": "left"
      },
      {
        "midi": 62,
        "time": 47,
        "duration": 0.5,
        "velocity": 0.39,
        "hand": "right"
      },
      {
        "midi": 62,
        "time": 47,
        "duration": 0.25,
        "velocity": 0.63,
        "hand": "right"
      },
      {
        "midi": 74,
        "time": 47,
        "duration": 0.5,
        "velocity": 0.63,
        "hand": "right"
      },
      {
        "midi": 50,
        "time": 47.25,
        "duration": 0.125,
        "velocity": 0.39,
        "hand": "left"
      },
      {
        "midi": 62,
        "time": 47.25,
        "duration": 0.125,
        "velocity": 0.63,
        "hand": "right"
      },
      {
        "midi": 50,
        "time": 47.375,
        "duration": 0.125,
        "velocity": 0.39,
        "hand": "left"
      },
      {
        "midi": 62,
        "time": 47.375,
        "duration": 0.125,
        "velocity": 0.63,
        "hand": "right"
      },
      {
        "midi": 62,
        "time": 47.5,
        "duration": 0.5,
        "velocity": 0.39,
        "hand": "right"
      },
      {
        "midi": 74,
        "time": 47.5,
        "duration": 0.5,
        "velocity": 0.63,
        "hand": "right"
      },
      {
        "midi": 50,
        "time": 47.75,
        "duration": 0.125,
        "velocity": 0.39,
        "hand": "left"
      },
      {
        "midi": 62,
        "time": 47.75,
        "duration": 0.125,
        "velocity": 0.63,
        "hand": "right"
      },
      {
        "midi": 50,
        "time": 47.875,
        "duration": 0.125,
        "velocity": 0.39,
        "hand": "left"
      },
      {
        "midi": 62,
        "time": 47.875,
        "duration": 0.125,
        "velocity": 0.63,
        "hand": "right"
      },
      {
        "midi": 50,
        "time": 48.25,
        "duration": 0.125,
        "velocity": 0.63,
        "hand": "left"
      },
      {
        "midi": 62,
        "time": 48.25,
        "duration": 0.125,
        "velocity": 0.63,
        "hand": "right"
      },
      {
        "midi": 74,
        "time": 48.25,
        "duration": 0.125,
        "velocity": 0.63,
        "hand": "right"
      },
      {
        "midi": 50,
        "time": 48.375,
        "duration": 0.125,
        "velocity": 0.63,
        "hand": "left"
      },
      {
        "midi": 62,
        "time": 48.375,
        "duration": 0.125,
        "velocity": 0.63,
        "hand": "right"
      },
      {
        "midi": 74,
        "time": 48.375,
        "duration": 0.125,
        "velocity": 0.63,
        "hand": "right"
      },
      {
        "midi": 50,
        "time": 48.75,
        "duration": 0.125,
        "velocity": 0.63,
        "hand": "left"
      },
      {
        "midi": 62,
        "time": 48.75,
        "duration": 0.125,
        "velocity": 0.63,
        "hand": "right"
      },
      {
        "midi": 74,
        "time": 48.75,
        "duration": 0.125,
        "velocity": 0.63,
        "hand": "right"
      },
      {
        "midi": 50,
        "time": 48.875,
        "duration": 0.125,
        "velocity": 0.63,
        "hand": "left"
      },
      {
        "midi": 62,
        "time": 48.875,
        "duration": 0.125,
        "velocity": 0.63,
        "hand": "right"
      },
      {
        "midi": 74,
        "time": 48.875,
        "duration": 0.125,
        "velocity": 0.63,
        "hand": "right"
      },
      {
        "midi": 50,
        "time": 49.25,
        "duration": 0.125,
        "velocity": 0.63,
        "hand": "left"
      },
      {
        "midi": 62,
        "time": 49.25,
        "duration": 0.125,
        "velocity": 0.63,
        "hand": "right"
      },
      {
        "midi": 50,
        "time": 49.375,
        "duration": 0.125,
        "velocity": 0.63,
        "hand": "left"
      },
      {
        "midi": 62,
        "time": 49.375,
        "duration": 0.125,
        "velocity": 0.63,
        "hand": "right"
      },
      {
        "midi": 50,
        "time": 49.75,
        "duration": 0.125,
        "velocity": 0.63,
        "hand": "left"
      },
      {
        "midi": 62,
        "time": 49.75,
        "duration": 0.125,
        "velocity": 0.63,
        "hand": "right"
      },
      {
        "midi": 50,
        "time": 49.875,
        "duration": 0.125,
        "velocity": 0.63,
        "hand": "left"
      },
      {
        "midi": 62,
        "time": 49.875,
        "duration": 0.125,
        "velocity": 0.63,
        "hand": "right"
      },
      {
        "midi": 50,
        "time": 50.25,
        "duration": 0.125,
        "velocity": 0.63,
        "hand": "left"
      },
      {
        "midi": 62,
        "time": 50.25,
        "duration": 0.125,
        "velocity": 0.63,
        "hand": "right"
      },
      {
        "midi": 50,
        "time": 50.375,
        "duration": 0.125,
        "velocity": 0.63,
        "hand": "left"
      },
      {
        "midi": 62,
        "time": 50.375,
        "duration": 0.125,
        "velocity": 0.63,
        "hand": "right"
      },
      {
        "midi": 50,
        "time": 50.75,
        "duration": 0.125,
        "velocity": 0.63,
        "hand": "left"
      },
      {
        "midi": 62,
        "time": 50.75,
        "duration": 0.125,
        "velocity": 0.63,
        "hand": "right"
      },
      {
        "midi": 50,
        "time": 50.875,
        "duration": 0.125,
        "velocity": 0.63,
        "hand": "left"
      },
      {
        "midi": 62,
        "time": 50.875,
        "duration": 0.125,
        "velocity": 0.63,
        "hand": "right"
      },
      {
        "midi": 50,
        "time": 51.25,
        "duration": 0.125,
        "velocity": 0.63,
        "hand": "left"
      },
      {
        "midi": 50,
        "time": 51.375,
        "duration": 0.125,
        "velocity": 0.63,
        "hand": "left"
      },
      {
        "midi": 50,
        "time": 51.75,
        "duration": 0.125,
        "velocity": 0.63,
        "hand": "left"
      },
      {
        "midi": 50,
        "time": 51.875,
        "duration": 0.125,
        "velocity": 0.63,
        "hand": "left"
      },
      {
        "midi": 50,
        "time": 52.25,
        "duration": 0.125,
        "velocity": 0.63,
        "hand": "left"
      },
      {
        "midi": 50,
        "time": 52.375,
        "duration": 0.125,
        "velocity": 0.63,
        "hand": "left"
      },
      {
        "midi": 50,
        "time": 52.75,
        "duration": 0.125,
        "velocity": 0.63,
        "hand": "left"
      },
      {
        "midi": 50,
        "time": 52.875,
        "duration": 0.125,
        "velocity": 0.63,
        "hand": "left"
      },
      {
        "midi": 50,
        "time": 53.25,
        "duration": 0.125,
        "velocity": 0.63,
        "hand": "left"
      },
      {
        "midi": 50,
        "time": 53.375,
        "duration": 0.125,
        "velocity": 0.63,
        "hand": "left"
      },
      {
        "midi": 50,
        "time": 53.75,
        "duration": 0.125,
        "velocity": 0.63,
        "hand": "left"
      },
      {
        "midi": 50,
        "time": 53.875,
        "duration": 0.125,
        "velocity": 0.63,
        "hand": "left"
      }
    ]
  },
  "notes1Hand": [
    {
      "midi": 69,
      "time": 1.75,
      "duration": 0.25,
      "velocity": 0.63,
      "hand": "right"
    },
    {
      "midi": 74,
      "time": 2,
      "duration": 0.167,
      "velocity": 0.63,
      "hand": "right"
    },
    {
      "midi": 74,
      "time": 2.125,
      "duration": 0.25,
      "velocity": 0.63,
      "hand": "right"
    },
    {
      "midi": 62,
      "time": 2.25,
      "duration": 0.167,
      "velocity": 0.63,
      "hand": "right"
    },
    {
      "midi": 69,
      "time": 2.375,
      "duration": 0.167,
      "velocity": 0.63,
      "hand": "right"
    },
    {
      "midi": 71,
      "time": 2.5,
      "duration": 0.25,
      "velocity": 0.63,
      "hand": "right"
    },
    {
      "midi": 69,
      "time": 2.75,
      "duration": 0.25,
      "velocity": 0.63,
      "hand": "right"
    },
    {
      "midi": 62,
      "time": 2.875,
      "duration": 0.167,
      "velocity": 0.63,
      "hand": "right"
    },
    {
      "midi": 66,
      "time": 3,
      "duration": 0.5,
      "velocity": 0.63,
      "hand": "right"
    },
    {
      "midi": 62,
      "time": 3.25,
      "duration": 0.167,
      "velocity": 0.63,
      "hand": "right"
    },
    {
      "midi": 62,
      "time": 3.375,
      "duration": 0.167,
      "velocity": 0.63,
      "hand": "right"
    },
    {
      "midi": 69,
      "time": 3.75,
      "duration": 0.25,
      "velocity": 0.63,
      "hand": "right"
    },
    {
      "midi": 62,
      "time": 3.875,
      "duration": 0.167,
      "velocity": 0.63,
      "hand": "right"
    },
    {
      "midi": 74,
      "time": 4,
      "duration": 0.167,
      "velocity": 0.63,
      "hand": "right"
    },
    {
      "midi": 74,
      "time": 4.125,
      "duration": 0.25,
      "velocity": 0.63,
      "hand": "right"
    },
    {
      "midi": 62,
      "time": 4.25,
      "duration": 0.167,
      "velocity": 0.63,
      "hand": "right"
    },
    {
      "midi": 69,
      "time": 4.375,
      "duration": 0.167,
      "velocity": 0.63,
      "hand": "right"
    },
    {
      "midi": 71,
      "time": 4.5,
      "duration": 0.25,
      "velocity": 0.63,
      "hand": "right"
    },
    {
      "midi": 69,
      "time": 4.75,
      "duration": 0.25,
      "velocity": 0.63,
      "hand": "right"
    },
    {
      "midi": 62,
      "time": 4.875,
      "duration": 0.167,
      "velocity": 0.63,
      "hand": "right"
    },
    {
      "midi": 73,
      "time": 5,
      "duration": 0.5,
      "velocity": 0.63,
      "hand": "right"
    },
    {
      "midi": 61,
      "time": 5.25,
      "duration": 0.167,
      "velocity": 0.63,
      "hand": "right"
    },
    {
      "midi": 61,
      "time": 5.375,
      "duration": 0.167,
      "velocity": 0.63,
      "hand": "right"
    },
    {
      "midi": 69,
      "time": 5.75,
      "duration": 0.167,
      "velocity": 0.63,
      "hand": "right"
    },
    {
      "midi": 69,
      "time": 5.875,
      "duration": 0.167,
      "velocity": 0.63,
      "hand": "right"
    },
    {
      "midi": 73,
      "time": 6,
      "duration": 0.167,
      "velocity": 0.63,
      "hand": "right"
    },
    {
      "midi": 73,
      "time": 6.125,
      "duration": 0.25,
      "velocity": 0.63,
      "hand": "right"
    },
    {
      "midi": 61,
      "time": 6.25,
      "duration": 0.167,
      "velocity": 0.63,
      "hand": "right"
    },
    {
      "midi": 69,
      "time": 6.375,
      "duration": 0.167,
      "velocity": 0.63,
      "hand": "right"
    },
    {
      "midi": 71,
      "time": 6.5,
      "duration": 0.25,
      "velocity": 0.63,
      "hand": "right"
    },
    {
      "midi": 69,
      "time": 6.75,
      "duration": 0.25,
      "velocity": 0.63,
      "hand": "right"
    },
    {
      "midi": 61,
      "time": 6.875,
      "duration": 0.167,
      "velocity": 0.63,
      "hand": "right"
    },
    {
      "midi": 73,
      "time": 7,
      "duration": 0.167,
      "velocity": 0.63,
      "hand": "right"
    },
    {
      "midi": 73,
      "time": 7.125,
      "duration": 0.25,
      "velocity": 0.63,
      "hand": "right"
    },
    {
      "midi": 61,
      "time": 7.25,
      "duration": 0.167,
      "velocity": 0.63,
      "hand": "right"
    },
    {
      "midi": 69,
      "time": 7.375,
      "duration": 0.167,
      "velocity": 0.63,
      "hand": "right"
    },
    {
      "midi": 71,
      "time": 7.5,
      "duration": 0.25,
      "velocity": 0.63,
      "hand": "right"
    },
    {
      "midi": 69,
      "time": 7.75,
      "duration": 0.25,
      "velocity": 0.63,
      "hand": "right"
    },
    {
      "midi": 61,
      "time": 7.875,
      "duration": 0.167,
      "velocity": 0.63,
      "hand": "right"
    },
    {
      "midi": 73,
      "time": 8,
      "duration": 0.25,
      "velocity": 0.63,
      "hand": "right"
    },
    {
      "midi": 69,
      "time": 8.25,
      "duration": 0.25,
      "velocity": 0.63,
      "hand": "right"
    },
    {
      "midi": 61,
      "time": 8.375,
      "duration": 0.167,
      "velocity": 0.63,
      "hand": "right"
    },
    {
      "midi": 71,
      "time": 8.5,
      "duration": 0.25,
      "velocity": 0.63,
      "hand": "right"
    },
    {
      "midi": 73,
      "time": 8.75,
      "duration": 0.25,
      "velocity": 0.63,
      "hand": "right"
    },
    {
      "midi": 61,
      "time": 8.875,
      "duration": 0.167,
      "velocity": 0.63,
      "hand": "right"
    },
    {
      "midi": 74,
      "time": 9,
      "duration": 0.25,
      "velocity": 0.63,
      "hand": "right"
    },
    {
      "midi": 69,
      "time": 9.75,
      "duration": 0.25,
      "velocity": 0.63,
      "hand": "right"
    },
    {
      "midi": 74,
      "time": 10,
      "duration": 0.167,
      "velocity": 0.63,
      "hand": "right"
    },
    {
      "midi": 74,
      "time": 10.125,
      "duration": 0.25,
      "velocity": 0.63,
      "hand": "right"
    },
    {
      "midi": 62,
      "time": 10.25,
      "duration": 0.167,
      "velocity": 0.63,
      "hand": "right"
    },
    {
      "midi": 69,
      "time": 10.375,
      "duration": 0.167,
      "velocity": 0.63,
      "hand": "right"
    },
    {
      "midi": 71,
      "time": 10.5,
      "duration": 0.25,
      "velocity": 0.63,
      "hand": "right"
    },
    {
      "midi": 69,
      "time": 10.75,
      "duration": 0.25,
      "velocity": 0.63,
      "hand": "right"
    },
    {
      "midi": 62,
      "time": 10.875,
      "duration": 0.167,
      "velocity": 0.63,
      "hand": "right"
    },
    {
      "midi": 66,
      "time": 11,
      "duration": 0.5,
      "velocity": 0.63,
      "hand": "right"
    },
    {
      "midi": 62,
      "time": 11.25,
      "duration": 0.167,
      "velocity": 0.63,
      "hand": "right"
    },
    {
      "midi": 62,
      "time": 11.375,
      "duration": 0.167,
      "velocity": 0.63,
      "hand": "right"
    },
    {
      "midi": 69,
      "time": 11.75,
      "duration": 0.25,
      "velocity": 0.63,
      "hand": "right"
    },
    {
      "midi": 62,
      "time": 11.875,
      "duration": 0.167,
      "velocity": 0.63,
      "hand": "right"
    },
    {
      "midi": 74,
      "time": 12,
      "duration": 0.167,
      "velocity": 0.63,
      "hand": "right"
    },
    {
      "midi": 74,
      "time": 12.125,
      "duration": 0.25,
      "velocity": 0.63,
      "hand": "right"
    },
    {
      "midi": 62,
      "time": 12.25,
      "duration": 0.167,
      "velocity": 0.63,
      "hand": "right"
    },
    {
      "midi": 69,
      "time": 12.375,
      "duration": 0.167,
      "velocity": 0.63,
      "hand": "right"
    },
    {
      "midi": 71,
      "time": 12.5,
      "duration": 0.25,
      "velocity": 0.63,
      "hand": "right"
    },
    {
      "midi": 69,
      "time": 12.75,
      "duration": 0.25,
      "velocity": 0.63,
      "hand": "right"
    },
    {
      "midi": 62,
      "time": 12.875,
      "duration": 0.167,
      "velocity": 0.63,
      "hand": "right"
    },
    {
      "midi": 73,
      "time": 13,
      "duration": 0.5,
      "velocity": 0.63,
      "hand": "right"
    },
    {
      "midi": 61,
      "time": 13.25,
      "duration": 0.167,
      "velocity": 0.63,
      "hand": "right"
    },
    {
      "midi": 61,
      "time": 13.375,
      "duration": 0.167,
      "velocity": 0.63,
      "hand": "right"
    },
    {
      "midi": 69,
      "time": 13.75,
      "duration": 0.167,
      "velocity": 0.63,
      "hand": "right"
    },
    {
      "midi": 69,
      "time": 13.875,
      "duration": 0.167,
      "velocity": 0.63,
      "hand": "right"
    },
    {
      "midi": 73,
      "time": 14,
      "duration": 0.167,
      "velocity": 0.63,
      "hand": "right"
    },
    {
      "midi": 73,
      "time": 14.125,
      "duration": 0.25,
      "velocity": 0.63,
      "hand": "right"
    },
    {
      "midi": 61,
      "time": 14.25,
      "duration": 0.167,
      "velocity": 0.63,
      "hand": "right"
    },
    {
      "midi": 69,
      "time": 14.375,
      "duration": 0.167,
      "velocity": 0.63,
      "hand": "right"
    },
    {
      "midi": 71,
      "time": 14.5,
      "duration": 0.25,
      "velocity": 0.63,
      "hand": "right"
    },
    {
      "midi": 69,
      "time": 14.75,
      "duration": 0.25,
      "velocity": 0.63,
      "hand": "right"
    },
    {
      "midi": 61,
      "time": 14.875,
      "duration": 0.167,
      "velocity": 0.63,
      "hand": "right"
    },
    {
      "midi": 73,
      "time": 15,
      "duration": 0.167,
      "velocity": 0.63,
      "hand": "right"
    },
    {
      "midi": 73,
      "time": 15.125,
      "duration": 0.25,
      "velocity": 0.63,
      "hand": "right"
    },
    {
      "midi": 61,
      "time": 15.25,
      "duration": 0.167,
      "velocity": 0.63,
      "hand": "right"
    },
    {
      "midi": 69,
      "time": 15.375,
      "duration": 0.167,
      "velocity": 0.63,
      "hand": "right"
    },
    {
      "midi": 71,
      "time": 15.5,
      "duration": 0.25,
      "velocity": 0.63,
      "hand": "right"
    },
    {
      "midi": 69,
      "time": 15.75,
      "duration": 0.25,
      "velocity": 0.63,
      "hand": "right"
    },
    {
      "midi": 61,
      "time": 15.875,
      "duration": 0.167,
      "velocity": 0.63,
      "hand": "right"
    },
    {
      "midi": 73,
      "time": 16,
      "duration": 0.25,
      "velocity": 0.63,
      "hand": "right"
    },
    {
      "midi": 69,
      "time": 16.25,
      "duration": 0.25,
      "velocity": 0.63,
      "hand": "right"
    },
    {
      "midi": 61,
      "time": 16.375,
      "duration": 0.167,
      "velocity": 0.63,
      "hand": "right"
    },
    {
      "midi": 71,
      "time": 16.5,
      "duration": 0.25,
      "velocity": 0.63,
      "hand": "right"
    },
    {
      "midi": 73,
      "time": 16.75,
      "duration": 0.25,
      "velocity": 0.63,
      "hand": "right"
    },
    {
      "midi": 61,
      "time": 16.875,
      "duration": 0.167,
      "velocity": 0.63,
      "hand": "right"
    },
    {
      "midi": 74,
      "time": 17,
      "duration": 0.25,
      "velocity": 0.63,
      "hand": "right"
    },
    {
      "midi": 57,
      "time": 17.25,
      "duration": 0.25,
      "velocity": 0.63,
      "hand": "right"
    },
    {
      "midi": 59,
      "time": 17.5,
      "duration": 0.25,
      "velocity": 0.63,
      "hand": "right"
    },
    {
      "midi": 57,
      "time": 17.75,
      "duration": 0.25,
      "velocity": 0.63,
      "hand": "right"
    },
    {
      "midi": 64,
      "time": 18,
      "duration": 0.5,
      "velocity": 0.63,
      "hand": "right"
    },
    {
      "midi": 69,
      "time": 18.25,
      "duration": 0.167,
      "velocity": 0.63,
      "hand": "right"
    },
    {
      "midi": 69,
      "time": 18.375,
      "duration": 0.167,
      "velocity": 0.63,
      "hand": "right"
    },
    {
      "midi": 69,
      "time": 18.5,
      "duration": 0.5,
      "velocity": 0.63,
      "hand": "right"
    },
    {
      "midi": 69,
      "time": 18.75,
      "duration": 0.167,
      "velocity": 0.63,
      "hand": "right"
    },
    {
      "midi": 69,
      "time": 18.875,
      "duration": 0.167,
      "velocity": 0.63,
      "hand": "right"
    },
    {
      "midi": 64,
      "time": 19,
      "duration": 0.5,
      "velocity": 0.63,
      "hand": "right"
    },
    {
      "midi": 57,
      "time": 19.125,
      "duration": 0.25,
      "velocity": 0.63,
      "hand": "right"
    },
    {
      "midi": 73,
      "time": 19.25,
      "duration": 0.167,
      "velocity": 0.63,
      "hand": "right"
    },
    {
      "midi": 73,
      "time": 19.375,
      "duration": 0.167,
      "velocity": 0.63,
      "hand": "right"
    },
    {
      "midi": 69,
      "time": 19.5,
      "duration": 0.5,
      "velocity": 0.63,
      "hand": "right"
    },
    {
      "midi": 73,
      "time": 19.75,
      "duration": 0.167,
      "velocity": 0.63,
      "hand": "right"
    },
    {
      "midi": 73,
      "time": 19.875,
      "duration": 0.167,
      "velocity": 0.63,
      "hand": "right"
    },
    {
      "midi": 66,
      "time": 20,
      "duration": 0.5,
      "velocity": 0.63,
      "hand": "right"
    },
    {
      "midi": 74,
      "time": 20.25,
      "duration": 0.167,
      "velocity": 0.63,
      "hand": "right"
    },
    {
      "midi": 74,
      "time": 20.375,
      "duration": 0.167,
      "velocity": 0.63,
      "hand": "right"
    },
    {
      "midi": 69,
      "time": 20.5,
      "duration": 0.5,
      "velocity": 0.63,
      "hand": "right"
    },
    {
      "midi": 74,
      "time": 20.75,
      "duration": 0.167,
      "velocity": 0.63,
      "hand": "right"
    },
    {
      "midi": 74,
      "time": 20.875,
      "duration": 0.167,
      "velocity": 0.63,
      "hand": "right"
    },
    {
      "midi": 66,
      "time": 21,
      "duration": 0.5,
      "velocity": 0.63,
      "hand": "right"
    },
    {
      "midi": 57,
      "time": 21.125,
      "duration": 0.25,
      "velocity": 0.63,
      "hand": "right"
    },
    {
      "midi": 74,
      "time": 21.25,
      "duration": 0.167,
      "velocity": 0.63,
      "hand": "right"
    },
    {
      "midi": 74,
      "time": 21.375,
      "duration": 0.167,
      "velocity": 0.63,
      "hand": "right"
    },
    {
      "midi": 69,
      "time": 21.5,
      "duration": 0.5,
      "velocity": 0.63,
      "hand": "right"
    },
    {
      "midi": 74,
      "time": 21.75,
      "duration": 0.167,
      "velocity": 0.63,
      "hand": "right"
    },
    {
      "midi": 74,
      "time": 21.875,
      "duration": 0.167,
      "velocity": 0.63,
      "hand": "right"
    },
    {
      "midi": 64,
      "time": 22,
      "duration": 0.5,
      "velocity": 0.63,
      "hand": "right"
    },
    {
      "midi": 69,
      "time": 22.25,
      "duration": 0.167,
      "velocity": 0.63,
      "hand": "right"
    },
    {
      "midi": 69,
      "time": 22.375,
      "duration": 0.167,
      "velocity": 0.63,
      "hand": "right"
    },
    {
      "midi": 69,
      "time": 22.5,
      "duration": 0.5,
      "velocity": 0.63,
      "hand": "right"
    },
    {
      "midi": 69,
      "time": 22.75,
      "duration": 0.167,
      "velocity": 0.63,
      "hand": "right"
    },
    {
      "midi": 69,
      "time": 22.875,
      "duration": 0.167,
      "velocity": 0.63,
      "hand": "right"
    },
    {
      "midi": 64,
      "time": 23,
      "duration": 0.5,
      "velocity": 0.63,
      "hand": "right"
    },
    {
      "midi": 69,
      "time": 23.25,
      "duration": 0.167,
      "velocity": 0.63,
      "hand": "right"
    },
    {
      "midi": 69,
      "time": 23.375,
      "duration": 0.167,
      "velocity": 0.63,
      "hand": "right"
    },
    {
      "midi": 69,
      "time": 23.5,
      "duration": 0.5,
      "velocity": 0.63,
      "hand": "right"
    },
    {
      "midi": 69,
      "time": 23.75,
      "duration": 0.167,
      "velocity": 0.63,
      "hand": "right"
    },
    {
      "midi": 69,
      "time": 23.875,
      "duration": 0.167,
      "velocity": 0.63,
      "hand": "right"
    },
    {
      "midi": 69,
      "time": 24,
      "duration": 1,
      "velocity": 0.63,
      "hand": "right"
    },
    {
      "midi": 50,
      "time": 24.125,
      "duration": 0.25,
      "velocity": 0.63,
      "hand": "right"
    },
    {
      "midi": 50,
      "time": 24.375,
      "duration": 0.167,
      "velocity": 0.63,
      "hand": "right"
    },
    {
      "midi": 47,
      "time": 24.5,
      "duration": 0.25,
      "velocity": 0.63,
      "hand": "right"
    },
    {
      "midi": 45,
      "time": 24.75,
      "duration": 0.25,
      "velocity": 0.63,
      "hand": "right"
    },
    {
      "midi": 45,
      "time": 25,
      "duration": 0.25,
      "velocity": 0.63,
      "hand": "right"
    },
    {
      "midi": 66,
      "time": 25.25,
      "duration": 0.25,
      "velocity": 0.63,
      "hand": "right"
    },
    {
      "midi": 68,
      "time": 25.5,
      "duration": 0.25,
      "velocity": 0.63,
      "hand": "right"
    },
    {
      "midi": 66,
      "time": 25.75,
      "duration": 0.25,
      "velocity": 0.63,
      "hand": "right"
    },
    {
      "midi": 64,
      "time": 26,
      "duration": 0.5,
      "velocity": 0.63,
      "hand": "right"
    },
    {
      "midi": 69,
      "time": 26.25,
      "duration": 0.167,
      "velocity": 0.63,
      "hand": "right"
    },
    {
      "midi": 69,
      "time": 26.375,
      "duration": 0.167,
      "velocity": 0.63,
      "hand": "right"
    },
    {
      "midi": 69,
      "time": 26.5,
      "duration": 0.5,
      "velocity": 0.63,
      "hand": "right"
    },
    {
      "midi": 69,
      "time": 26.75,
      "duration": 0.167,
      "velocity": 0.63,
      "hand": "right"
    },
    {
      "midi": 69,
      "time": 26.875,
      "duration": 0.167,
      "velocity": 0.63,
      "hand": "right"
    },
    {
      "midi": 64,
      "time": 27,
      "duration": 0.5,
      "velocity": 0.63,
      "hand": "right"
    },
    {
      "midi": 73,
      "time": 27.25,
      "duration": 0.167,
      "velocity": 0.63,
      "hand": "right"
    },
    {
      "midi": 73,
      "time": 27.375,
      "duration": 0.167,
      "velocity": 0.63,
      "hand": "right"
    },
    {
      "midi": 69,
      "time": 27.5,
      "duration": 0.5,
      "velocity": 0.63,
      "hand": "right"
    },
    {
      "midi": 73,
      "time": 27.75,
      "duration": 0.167,
      "velocity": 0.63,
      "hand": "right"
    },
    {
      "midi": 73,
      "time": 27.875,
      "duration": 0.167,
      "velocity": 0.63,
      "hand": "right"
    },
    {
      "midi": 66,
      "time": 28,
      "duration": 0.5,
      "velocity": 0.63,
      "hand": "right"
    },
    {
      "midi": 74,
      "time": 28.25,
      "duration": 0.167,
      "velocity": 0.63,
      "hand": "right"
    },
    {
      "midi": 74,
      "time": 28.375,
      "duration": 0.167,
      "velocity": 0.63,
      "hand": "right"
    },
    {
      "midi": 69,
      "time": 28.5,
      "duration": 0.5,
      "velocity": 0.63,
      "hand": "right"
    },
    {
      "midi": 74,
      "time": 28.75,
      "duration": 0.167,
      "velocity": 0.63,
      "hand": "right"
    },
    {
      "midi": 74,
      "time": 28.875,
      "duration": 0.167,
      "velocity": 0.63,
      "hand": "right"
    },
    {
      "midi": 66,
      "time": 29,
      "duration": 0.5,
      "velocity": 0.63,
      "hand": "right"
    },
    {
      "midi": 74,
      "time": 29.25,
      "duration": 0.167,
      "velocity": 0.63,
      "hand": "right"
    },
    {
      "midi": 74,
      "time": 29.375,
      "duration": 0.167,
      "velocity": 0.63,
      "hand": "right"
    },
    {
      "midi": 69,
      "time": 29.5,
      "duration": 0.5,
      "velocity": 0.63,
      "hand": "right"
    },
    {
      "midi": 74,
      "time": 29.75,
      "duration": 0.167,
      "velocity": 0.63,
      "hand": "right"
    },
    {
      "midi": 74,
      "time": 29.875,
      "duration": 0.167,
      "velocity": 0.63,
      "hand": "right"
    },
    {
      "midi": 64,
      "time": 30,
      "duration": 0.5,
      "velocity": 0.63,
      "hand": "right"
    },
    {
      "midi": 69,
      "time": 30.25,
      "duration": 0.167,
      "velocity": 0.63,
      "hand": "right"
    },
    {
      "midi": 69,
      "time": 30.375,
      "duration": 0.167,
      "velocity": 0.63,
      "hand": "right"
    },
    {
      "midi": 69,
      "time": 30.5,
      "duration": 0.5,
      "velocity": 0.63,
      "hand": "right"
    },
    {
      "midi": 69,
      "time": 30.75,
      "duration": 0.167,
      "velocity": 0.63,
      "hand": "right"
    },
    {
      "midi": 69,
      "time": 30.875,
      "duration": 0.167,
      "velocity": 0.63,
      "hand": "right"
    },
    {
      "midi": 64,
      "time": 31,
      "duration": 0.5,
      "velocity": 0.63,
      "hand": "right"
    },
    {
      "midi": 69,
      "time": 31.25,
      "duration": 0.25,
      "velocity": 0.63,
      "hand": "right"
    },
    {
      "midi": 52,
      "time": 31.375,
      "duration": 0.375,
      "velocity": 0.63,
      "hand": "right"
    },
    {
      "midi": 71,
      "time": 31.5,
      "duration": 0.25,
      "velocity": 0.63,
      "hand": "right"
    },
    {
      "midi": 73,
      "time": 31.75,
      "duration": 0.25,
      "velocity": 0.63,
      "hand": "right"
    },
    {
      "midi": 74,
      "time": 32,
      "duration": 0.5,
      "velocity": 0.63,
      "hand": "right"
    },
    {
      "midi": 62,
      "time": 32.125,
      "duration": 0.25,
      "velocity": 0.63,
      "hand": "right"
    },
    {
      "midi": 57,
      "time": 32.375,
      "duration": 0.167,
      "velocity": 0.63,
      "hand": "right"
    },
    {
      "midi": 74,
      "time": 32.5,
      "duration": 0.75,
      "velocity": 0.63,
      "hand": "right"
    },
    {
      "midi": 57,
      "time": 32.75,
      "duration": 0.25,
      "velocity": 0.63,
      "hand": "right"
    },
    {
      "midi": 54,
      "time": 33,
      "duration": 0.5,
      "velocity": 0.63,
      "hand": "right"
    },
    {
      "midi": 69,
      "time": 33.25,
      "duration": 0.25,
      "velocity": 0.63,
      "hand": "right"
    },
    {
      "midi": 45,
      "time": 33.375,
      "duration": 0.167,
      "velocity": 0.39,
      "hand": "right"
    },
    {
      "midi": 71,
      "time": 33.5,
      "duration": 0.25,
      "velocity": 0.63,
      "hand": "right"
    },
    {
      "midi": 69,
      "time": 33.75,
      "duration": 0.25,
      "velocity": 0.63,
      "hand": "right"
    },
    {
      "midi": 45,
      "time": 33.875,
      "duration": 0.167,
      "velocity": 0.39,
      "hand": "right"
    },
    {
      "midi": 69,
      "time": 34,
      "duration": 0.5,
      "velocity": 0.63,
      "hand": "right"
    },
    {
      "midi": 62,
      "time": 34.125,
      "duration": 0.25,
      "velocity": 0.63,
      "hand": "right"
    },
    {
      "midi": 45,
      "time": 34.25,
      "duration": 0.167,
      "velocity": 0.39,
      "hand": "right"
    },
    {
      "midi": 57,
      "time": 34.375,
      "duration": 0.167,
      "velocity": 0.63,
      "hand": "right"
    },
    {
      "midi": 69,
      "time": 34.5,
      "duration": 0.5,
      "velocity": 0.63,
      "hand": "right"
    },
    {
      "midi": 57,
      "time": 34.75,
      "duration": 0.25,
      "velocity": 0.63,
      "hand": "right"
    },
    {
      "midi": 45,
      "time": 34.875,
      "duration": 0.167,
      "velocity": 0.39,
      "hand": "right"
    },
    {
      "midi": 61,
      "time": 35,
      "duration": 0.5,
      "velocity": 0.63,
      "hand": "right"
    },
    {
      "midi": 69,
      "time": 35.125,
      "duration": 0.25,
      "velocity": 0.63,
      "hand": "right"
    },
    {
      "midi": 64,
      "time": 35.25,
      "duration": 0.167,
      "velocity": 0.39,
      "hand": "right"
    },
    {
      "midi": 69,
      "time": 35.375,
      "duration": 0.167,
      "velocity": 0.63,
      "hand": "right"
    },
    {
      "midi": 71,
      "time": 35.5,
      "duration": 0.25,
      "velocity": 0.63,
      "hand": "right"
    },
    {
      "midi": 69,
      "time": 35.75,
      "duration": 0.25,
      "velocity": 0.63,
      "hand": "right"
    },
    {
      "midi": 64,
      "time": 35.875,
      "duration": 0.167,
      "velocity": 0.39,
      "hand": "right"
    },
    {
      "midi": 69,
      "time": 36,
      "duration": 0.5,
      "velocity": 0.63,
      "hand": "right"
    },
    {
      "midi": 61,
      "time": 36.125,
      "duration": 0.25,
      "velocity": 0.63,
      "hand": "right"
    },
    {
      "midi": 64,
      "time": 36.25,
      "duration": 0.167,
      "velocity": 0.39,
      "hand": "right"
    },
    {
      "midi": 64,
      "time": 36.375,
      "duration": 0.167,
      "velocity": 0.39,
      "hand": "right"
    },
    {
      "midi": 69,
      "time": 36.5,
      "duration": 0.5,
      "velocity": 0.63,
      "hand": "right"
    },
    {
      "midi": 64,
      "time": 36.75,
      "duration": 0.167,
      "velocity": 0.39,
      "hand": "right"
    },
    {
      "midi": 64,
      "time": 36.875,
      "duration": 0.167,
      "velocity": 0.39,
      "hand": "right"
    },
    {
      "midi": 61,
      "time": 37,
      "duration": 0.167,
      "velocity": 0.63,
      "hand": "right"
    },
    {
      "midi": 69,
      "time": 37.125,
      "duration": 0.25,
      "velocity": 0.63,
      "hand": "right"
    },
    {
      "midi": 64,
      "time": 37.25,
      "duration": 0.167,
      "velocity": 0.39,
      "hand": "right"
    },
    {
      "midi": 69,
      "time": 37.375,
      "duration": 0.167,
      "velocity": 0.63,
      "hand": "right"
    },
    {
      "midi": 71,
      "time": 37.5,
      "duration": 0.25,
      "velocity": 0.63,
      "hand": "right"
    },
    {
      "midi": 69,
      "time": 37.75,
      "duration": 0.25,
      "velocity": 0.63,
      "hand": "right"
    },
    {
      "midi": 64,
      "time": 37.875,
      "duration": 0.167,
      "velocity": 0.39,
      "hand": "right"
    },
    {
      "midi": 69,
      "time": 38,
      "duration": 0.5,
      "velocity": 0.63,
      "hand": "right"
    },
    {
      "midi": 64,
      "time": 38.25,
      "duration": 0.167,
      "velocity": 0.39,
      "hand": "right"
    },
    {
      "midi": 64,
      "time": 38.375,
      "duration": 0.167,
      "velocity": 0.39,
      "hand": "right"
    },
    {
      "midi": 69,
      "time": 38.5,
      "duration": 0.5,
      "velocity": 0.63,
      "hand": "right"
    },
    {
      "midi": 64,
      "time": 38.75,
      "duration": 0.167,
      "velocity": 0.39,
      "hand": "right"
    },
    {
      "midi": 64,
      "time": 38.875,
      "duration": 0.167,
      "velocity": 0.39,
      "hand": "right"
    },
    {
      "midi": 62,
      "time": 39,
      "duration": 0.5,
      "velocity": 0.63,
      "hand": "right"
    },
    {
      "midi": 69,
      "time": 39.25,
      "duration": 0.25,
      "velocity": 0.63,
      "hand": "right"
    },
    {
      "midi": 50,
      "time": 39.375,
      "duration": 0.167,
      "velocity": 0.39,
      "hand": "right"
    },
    {
      "midi": 71,
      "time": 39.5,
      "duration": 0.25,
      "velocity": 0.63,
      "hand": "right"
    },
    {
      "midi": 73,
      "time": 39.75,
      "duration": 0.25,
      "velocity": 0.63,
      "hand": "right"
    },
    {
      "midi": 74,
      "time": 40,
      "duration": 1,
      "velocity": 0.63,
      "hand": "right"
    },
    {
      "midi": 62,
      "time": 40.125,
      "duration": 0.25,
      "velocity": 0.63,
      "hand": "right"
    },
    {
      "midi": 62,
      "time": 40.25,
      "duration": 0.167,
      "velocity": 0.39,
      "hand": "right"
    },
    {
      "midi": 62,
      "time": 40.375,
      "duration": 0.167,
      "velocity": 0.39,
      "hand": "right"
    },
    {
      "midi": 59,
      "time": 40.5,
      "duration": 0.25,
      "velocity": 0.63,
      "hand": "right"
    },
    {
      "midi": 62,
      "time": 40.75,
      "duration": 0.167,
      "velocity": 0.39,
      "hand": "right"
    },
    {
      "midi": 62,
      "time": 40.875,
      "duration": 0.167,
      "velocity": 0.39,
      "hand": "right"
    },
    {
      "midi": 54,
      "time": 41,
      "duration": 0.5,
      "velocity": 0.63,
      "hand": "right"
    },
    {
      "midi": 69,
      "time": 41.25,
      "duration": 0.25,
      "velocity": 0.63,
      "hand": "right"
    },
    {
      "midi": 45,
      "time": 41.375,
      "duration": 0.167,
      "velocity": 0.39,
      "hand": "right"
    },
    {
      "midi": 71,
      "time": 41.5,
      "duration": 0.25,
      "velocity": 0.63,
      "hand": "right"
    },
    {
      "midi": 69,
      "time": 41.75,
      "duration": 0.25,
      "velocity": 0.63,
      "hand": "right"
    },
    {
      "midi": 45,
      "time": 41.875,
      "duration": 0.167,
      "velocity": 0.39,
      "hand": "right"
    },
    {
      "midi": 69,
      "time": 42,
      "duration": 0.5,
      "velocity": 0.63,
      "hand": "right"
    },
    {
      "midi": 62,
      "time": 42.125,
      "duration": 0.25,
      "velocity": 0.63,
      "hand": "right"
    },
    {
      "midi": 45,
      "time": 42.25,
      "duration": 0.167,
      "velocity": 0.39,
      "hand": "right"
    },
    {
      "midi": 57,
      "time": 42.375,
      "duration": 0.167,
      "velocity": 0.63,
      "hand": "right"
    },
    {
      "midi": 69,
      "time": 42.5,
      "duration": 0.5,
      "velocity": 0.63,
      "hand": "right"
    },
    {
      "midi": 57,
      "time": 42.75,
      "duration": 0.25,
      "velocity": 0.63,
      "hand": "right"
    },
    {
      "midi": 45,
      "time": 42.875,
      "duration": 0.167,
      "velocity": 0.39,
      "hand": "right"
    },
    {
      "midi": 55,
      "time": 43,
      "duration": 0.5,
      "velocity": 0.63,
      "hand": "right"
    },
    {
      "midi": 69,
      "time": 43.25,
      "duration": 0.25,
      "velocity": 0.63,
      "hand": "right"
    },
    {
      "midi": 64,
      "time": 43.375,
      "duration": 0.167,
      "velocity": 0.39,
      "hand": "right"
    },
    {
      "midi": 71,
      "time": 43.5,
      "duration": 0.25,
      "velocity": 0.63,
      "hand": "right"
    },
    {
      "midi": 69,
      "time": 43.75,
      "duration": 0.25,
      "velocity": 0.63,
      "hand": "right"
    },
    {
      "midi": 64,
      "time": 43.875,
      "duration": 0.167,
      "velocity": 0.39,
      "hand": "right"
    },
    {
      "midi": 69,
      "time": 44,
      "duration": 0.5,
      "velocity": 0.63,
      "hand": "right"
    },
    {
      "midi": 61,
      "time": 44.125,
      "duration": 0.25,
      "velocity": 0.63,
      "hand": "right"
    },
    {
      "midi": 64,
      "time": 44.25,
      "duration": 0.167,
      "velocity": 0.39,
      "hand": "right"
    },
    {
      "midi": 64,
      "time": 44.375,
      "duration": 0.167,
      "velocity": 0.39,
      "hand": "right"
    },
    {
      "midi": 69,
      "time": 44.5,
      "duration": 0.5,
      "velocity": 0.63,
      "hand": "right"
    },
    {
      "midi": 64,
      "time": 44.75,
      "duration": 0.167,
      "velocity": 0.39,
      "hand": "right"
    },
    {
      "midi": 64,
      "time": 44.875,
      "duration": 0.167,
      "velocity": 0.39,
      "hand": "right"
    },
    {
      "midi": 61,
      "time": 45,
      "duration": 0.167,
      "velocity": 0.63,
      "hand": "right"
    },
    {
      "midi": 61,
      "time": 45.125,
      "duration": 0.25,
      "velocity": 0.63,
      "hand": "right"
    },
    {
      "midi": 69,
      "time": 45.25,
      "duration": 0.25,
      "velocity": 0.63,
      "hand": "right"
    },
    {
      "midi": 64,
      "time": 45.375,
      "duration": 0.167,
      "velocity": 0.39,
      "hand": "right"
    },
    {
      "midi": 71,
      "time": 45.5,
      "duration": 0.25,
      "velocity": 0.63,
      "hand": "right"
    },
    {
      "midi": 69,
      "time": 45.75,
      "duration": 0.25,
      "velocity": 0.63,
      "hand": "right"
    },
    {
      "midi": 64,
      "time": 45.875,
      "duration": 0.167,
      "velocity": 0.39,
      "hand": "right"
    },
    {
      "midi": 69,
      "time": 46,
      "duration": 0.167,
      "velocity": 0.63,
      "hand": "right"
    },
    {
      "midi": 69,
      "time": 46.125,
      "duration": 0.25,
      "velocity": 0.63,
      "hand": "right"
    },
    {
      "midi": 57,
      "time": 46.25,
      "duration": 0.25,
      "velocity": 0.63,
      "hand": "right"
    },
    {
      "midi": 69,
      "time": 46.375,
      "duration": 0.167,
      "velocity": 0.63,
      "hand": "right"
    },
    {
      "midi": 71,
      "time": 46.5,
      "duration": 0.25,
      "velocity": 0.63,
      "hand": "right"
    },
    {
      "midi": 73,
      "time": 46.75,
      "duration": 0.25,
      "velocity": 0.63,
      "hand": "right"
    },
    {
      "midi": 74,
      "time": 47,
      "duration": 0.5,
      "velocity": 0.63,
      "hand": "right"
    },
    {
      "midi": 62,
      "time": 47.25,
      "duration": 0.167,
      "velocity": 0.63,
      "hand": "right"
    },
    {
      "midi": 62,
      "time": 47.375,
      "duration": 0.167,
      "velocity": 0.63,
      "hand": "right"
    },
    {
      "midi": 74,
      "time": 47.5,
      "duration": 0.5,
      "velocity": 0.63,
      "hand": "right"
    },
    {
      "midi": 62,
      "time": 47.75,
      "duration": 0.167,
      "velocity": 0.63,
      "hand": "right"
    },
    {
      "midi": 62,
      "time": 47.875,
      "duration": 0.167,
      "velocity": 0.63,
      "hand": "right"
    },
    {
      "midi": 74,
      "time": 48.25,
      "duration": 0.167,
      "velocity": 0.63,
      "hand": "right"
    },
    {
      "midi": 74,
      "time": 48.375,
      "duration": 0.167,
      "velocity": 0.63,
      "hand": "right"
    },
    {
      "midi": 74,
      "time": 48.75,
      "duration": 0.167,
      "velocity": 0.63,
      "hand": "right"
    },
    {
      "midi": 74,
      "time": 48.875,
      "duration": 0.167,
      "velocity": 0.63,
      "hand": "right"
    },
    {
      "midi": 62,
      "time": 49.25,
      "duration": 0.167,
      "velocity": 0.63,
      "hand": "right"
    },
    {
      "midi": 62,
      "time": 49.375,
      "duration": 0.167,
      "velocity": 0.63,
      "hand": "right"
    },
    {
      "midi": 62,
      "time": 49.75,
      "duration": 0.167,
      "velocity": 0.63,
      "hand": "right"
    },
    {
      "midi": 62,
      "time": 49.875,
      "duration": 0.167,
      "velocity": 0.63,
      "hand": "right"
    },
    {
      "midi": 62,
      "time": 50.25,
      "duration": 0.167,
      "velocity": 0.63,
      "hand": "right"
    },
    {
      "midi": 62,
      "time": 50.375,
      "duration": 0.167,
      "velocity": 0.63,
      "hand": "right"
    },
    {
      "midi": 62,
      "time": 50.75,
      "duration": 0.167,
      "velocity": 0.63,
      "hand": "right"
    },
    {
      "midi": 62,
      "time": 50.875,
      "duration": 0.167,
      "velocity": 0.63,
      "hand": "right"
    },
    {
      "midi": 50,
      "time": 51.25,
      "duration": 0.167,
      "velocity": 0.63,
      "hand": "right"
    },
    {
      "midi": 50,
      "time": 51.375,
      "duration": 0.167,
      "velocity": 0.63,
      "hand": "right"
    },
    {
      "midi": 50,
      "time": 51.75,
      "duration": 0.167,
      "velocity": 0.63,
      "hand": "right"
    },
    {
      "midi": 50,
      "time": 51.875,
      "duration": 0.167,
      "velocity": 0.63,
      "hand": "right"
    },
    {
      "midi": 50,
      "time": 52.25,
      "duration": 0.167,
      "velocity": 0.63,
      "hand": "right"
    },
    {
      "midi": 50,
      "time": 52.375,
      "duration": 0.167,
      "velocity": 0.63,
      "hand": "right"
    },
    {
      "midi": 50,
      "time": 52.75,
      "duration": 0.167,
      "velocity": 0.63,
      "hand": "right"
    },
    {
      "midi": 50,
      "time": 52.875,
      "duration": 0.167,
      "velocity": 0.63,
      "hand": "right"
    },
    {
      "midi": 50,
      "time": 53.25,
      "duration": 0.167,
      "velocity": 0.63,
      "hand": "right"
    },
    {
      "midi": 50,
      "time": 53.375,
      "duration": 0.167,
      "velocity": 0.63,
      "hand": "right"
    },
    {
      "midi": 50,
      "time": 53.75,
      "duration": 0.167,
      "velocity": 0.63,
      "hand": "right"
    },
    {
      "midi": 50,
      "time": 53.875,
      "duration": 0.167,
      "velocity": 0.63,
      "hand": "right"
    }
  ],
  "notes2Hands": [
    {
      "midi": 69,
      "time": 1.75,
      "duration": 0.25,
      "velocity": 0.63,
      "hand": "right"
    },
    {
      "midi": 74,
      "time": 2,
      "duration": 0.125,
      "velocity": 0.63,
      "hand": "right"
    },
    {
      "midi": 74,
      "time": 2.125,
      "duration": 0.25,
      "velocity": 0.63,
      "hand": "right"
    },
    {
      "midi": 54,
      "time": 2.25,
      "duration": 0.125,
      "velocity": 0.63,
      "hand": "left"
    },
    {
      "midi": 57,
      "time": 2.25,
      "duration": 0.125,
      "velocity": 0.63,
      "hand": "left"
    },
    {
      "midi": 62,
      "time": 2.25,
      "duration": 0.125,
      "velocity": 0.63,
      "hand": "right"
    },
    {
      "midi": 54,
      "time": 2.375,
      "duration": 0.125,
      "velocity": 0.63,
      "hand": "left"
    },
    {
      "midi": 57,
      "time": 2.375,
      "duration": 0.125,
      "velocity": 0.63,
      "hand": "left"
    },
    {
      "midi": 62,
      "time": 2.375,
      "duration": 0.125,
      "velocity": 0.63,
      "hand": "right"
    },
    {
      "midi": 69,
      "time": 2.375,
      "duration": 0.125,
      "velocity": 0.63,
      "hand": "right"
    },
    {
      "midi": 71,
      "time": 2.5,
      "duration": 0.25,
      "velocity": 0.63,
      "hand": "right"
    },
    {
      "midi": 54,
      "time": 2.75,
      "duration": 0.125,
      "velocity": 0.63,
      "hand": "left"
    },
    {
      "midi": 57,
      "time": 2.75,
      "duration": 0.125,
      "velocity": 0.63,
      "hand": "left"
    },
    {
      "midi": 62,
      "time": 2.75,
      "duration": 0.125,
      "velocity": 0.63,
      "hand": "right"
    },
    {
      "midi": 69,
      "time": 2.75,
      "duration": 0.25,
      "velocity": 0.63,
      "hand": "right"
    },
    {
      "midi": 54,
      "time": 2.875,
      "duration": 0.125,
      "velocity": 0.63,
      "hand": "left"
    },
    {
      "midi": 57,
      "time": 2.875,
      "duration": 0.125,
      "velocity": 0.63,
      "hand": "left"
    },
    {
      "midi": 62,
      "time": 2.875,
      "duration": 0.125,
      "velocity": 0.63,
      "hand": "right"
    },
    {
      "midi": 66,
      "time": 3,
      "duration": 0.5,
      "velocity": 0.63,
      "hand": "right"
    },
    {
      "midi": 54,
      "time": 3.25,
      "duration": 0.125,
      "velocity": 0.63,
      "hand": "left"
    },
    {
      "midi": 57,
      "time": 3.25,
      "duration": 0.125,
      "velocity": 0.63,
      "hand": "left"
    },
    {
      "midi": 62,
      "time": 3.25,
      "duration": 0.125,
      "velocity": 0.63,
      "hand": "right"
    },
    {
      "midi": 54,
      "time": 3.375,
      "duration": 0.125,
      "velocity": 0.63,
      "hand": "left"
    },
    {
      "midi": 57,
      "time": 3.375,
      "duration": 0.125,
      "velocity": 0.63,
      "hand": "left"
    },
    {
      "midi": 62,
      "time": 3.375,
      "duration": 0.125,
      "velocity": 0.63,
      "hand": "right"
    },
    {
      "midi": 54,
      "time": 3.75,
      "duration": 0.125,
      "velocity": 0.63,
      "hand": "left"
    },
    {
      "midi": 57,
      "time": 3.75,
      "duration": 0.125,
      "velocity": 0.63,
      "hand": "left"
    },
    {
      "midi": 62,
      "time": 3.75,
      "duration": 0.125,
      "velocity": 0.63,
      "hand": "right"
    },
    {
      "midi": 69,
      "time": 3.75,
      "duration": 0.25,
      "velocity": 0.63,
      "hand": "right"
    },
    {
      "midi": 54,
      "time": 3.875,
      "duration": 0.125,
      "velocity": 0.63,
      "hand": "left"
    },
    {
      "midi": 57,
      "time": 3.875,
      "duration": 0.125,
      "velocity": 0.63,
      "hand": "left"
    },
    {
      "midi": 62,
      "time": 3.875,
      "duration": 0.125,
      "velocity": 0.63,
      "hand": "right"
    },
    {
      "midi": 74,
      "time": 4,
      "duration": 0.125,
      "velocity": 0.63,
      "hand": "right"
    },
    {
      "midi": 74,
      "time": 4.125,
      "duration": 0.25,
      "velocity": 0.63,
      "hand": "right"
    },
    {
      "midi": 54,
      "time": 4.25,
      "duration": 0.125,
      "velocity": 0.63,
      "hand": "left"
    },
    {
      "midi": 57,
      "time": 4.25,
      "duration": 0.125,
      "velocity": 0.63,
      "hand": "left"
    },
    {
      "midi": 62,
      "time": 4.25,
      "duration": 0.125,
      "velocity": 0.63,
      "hand": "right"
    },
    {
      "midi": 54,
      "time": 4.375,
      "duration": 0.125,
      "velocity": 0.63,
      "hand": "left"
    },
    {
      "midi": 57,
      "time": 4.375,
      "duration": 0.125,
      "velocity": 0.63,
      "hand": "left"
    },
    {
      "midi": 62,
      "time": 4.375,
      "duration": 0.125,
      "velocity": 0.63,
      "hand": "right"
    },
    {
      "midi": 69,
      "time": 4.375,
      "duration": 0.125,
      "velocity": 0.63,
      "hand": "right"
    },
    {
      "midi": 71,
      "time": 4.5,
      "duration": 0.25,
      "velocity": 0.63,
      "hand": "right"
    },
    {
      "midi": 54,
      "time": 4.75,
      "duration": 0.125,
      "velocity": 0.63,
      "hand": "left"
    },
    {
      "midi": 57,
      "time": 4.75,
      "duration": 0.125,
      "velocity": 0.63,
      "hand": "left"
    },
    {
      "midi": 62,
      "time": 4.75,
      "duration": 0.125,
      "velocity": 0.63,
      "hand": "right"
    },
    {
      "midi": 69,
      "time": 4.75,
      "duration": 0.25,
      "velocity": 0.63,
      "hand": "right"
    },
    {
      "midi": 54,
      "time": 4.875,
      "duration": 0.125,
      "velocity": 0.63,
      "hand": "left"
    },
    {
      "midi": 57,
      "time": 4.875,
      "duration": 0.125,
      "velocity": 0.63,
      "hand": "left"
    },
    {
      "midi": 62,
      "time": 4.875,
      "duration": 0.125,
      "velocity": 0.63,
      "hand": "right"
    },
    {
      "midi": 73,
      "time": 5,
      "duration": 0.5,
      "velocity": 0.63,
      "hand": "right"
    },
    {
      "midi": 52,
      "time": 5.25,
      "duration": 0.125,
      "velocity": 0.63,
      "hand": "left"
    },
    {
      "midi": 57,
      "time": 5.25,
      "duration": 0.125,
      "velocity": 0.63,
      "hand": "left"
    },
    {
      "midi": 61,
      "time": 5.25,
      "duration": 0.125,
      "velocity": 0.63,
      "hand": "right"
    },
    {
      "midi": 52,
      "time": 5.375,
      "duration": 0.125,
      "velocity": 0.63,
      "hand": "left"
    },
    {
      "midi": 57,
      "time": 5.375,
      "duration": 0.125,
      "velocity": 0.63,
      "hand": "left"
    },
    {
      "midi": 61,
      "time": 5.375,
      "duration": 0.125,
      "velocity": 0.63,
      "hand": "right"
    },
    {
      "midi": 52,
      "time": 5.75,
      "duration": 0.125,
      "velocity": 0.63,
      "hand": "left"
    },
    {
      "midi": 57,
      "time": 5.75,
      "duration": 0.125,
      "velocity": 0.63,
      "hand": "left"
    },
    {
      "midi": 61,
      "time": 5.75,
      "duration": 0.125,
      "velocity": 0.63,
      "hand": "right"
    },
    {
      "midi": 69,
      "time": 5.75,
      "duration": 0.125,
      "velocity": 0.63,
      "hand": "right"
    },
    {
      "midi": 52,
      "time": 5.875,
      "duration": 0.125,
      "velocity": 0.63,
      "hand": "left"
    },
    {
      "midi": 57,
      "time": 5.875,
      "duration": 0.125,
      "velocity": 0.63,
      "hand": "left"
    },
    {
      "midi": 61,
      "time": 5.875,
      "duration": 0.125,
      "velocity": 0.63,
      "hand": "right"
    },
    {
      "midi": 69,
      "time": 5.875,
      "duration": 0.125,
      "velocity": 0.63,
      "hand": "right"
    },
    {
      "midi": 73,
      "time": 6,
      "duration": 0.125,
      "velocity": 0.63,
      "hand": "right"
    },
    {
      "midi": 73,
      "time": 6.125,
      "duration": 0.25,
      "velocity": 0.63,
      "hand": "right"
    },
    {
      "midi": 52,
      "time": 6.25,
      "duration": 0.125,
      "velocity": 0.63,
      "hand": "left"
    },
    {
      "midi": 57,
      "time": 6.25,
      "duration": 0.125,
      "velocity": 0.63,
      "hand": "left"
    },
    {
      "midi": 61,
      "time": 6.25,
      "duration": 0.125,
      "velocity": 0.63,
      "hand": "right"
    },
    {
      "midi": 52,
      "time": 6.375,
      "duration": 0.125,
      "velocity": 0.63,
      "hand": "left"
    },
    {
      "midi": 57,
      "time": 6.375,
      "duration": 0.125,
      "velocity": 0.63,
      "hand": "left"
    },
    {
      "midi": 61,
      "time": 6.375,
      "duration": 0.125,
      "velocity": 0.63,
      "hand": "right"
    },
    {
      "midi": 69,
      "time": 6.375,
      "duration": 0.125,
      "velocity": 0.63,
      "hand": "right"
    },
    {
      "midi": 71,
      "time": 6.5,
      "duration": 0.25,
      "velocity": 0.63,
      "hand": "right"
    },
    {
      "midi": 52,
      "time": 6.75,
      "duration": 0.125,
      "velocity": 0.63,
      "hand": "left"
    },
    {
      "midi": 57,
      "time": 6.75,
      "duration": 0.125,
      "velocity": 0.63,
      "hand": "left"
    },
    {
      "midi": 61,
      "time": 6.75,
      "duration": 0.125,
      "velocity": 0.63,
      "hand": "right"
    },
    {
      "midi": 69,
      "time": 6.75,
      "duration": 0.25,
      "velocity": 0.63,
      "hand": "right"
    },
    {
      "midi": 52,
      "time": 6.875,
      "duration": 0.125,
      "velocity": 0.63,
      "hand": "left"
    },
    {
      "midi": 57,
      "time": 6.875,
      "duration": 0.125,
      "velocity": 0.63,
      "hand": "left"
    },
    {
      "midi": 61,
      "time": 6.875,
      "duration": 0.125,
      "velocity": 0.63,
      "hand": "right"
    },
    {
      "midi": 73,
      "time": 7,
      "duration": 0.125,
      "velocity": 0.63,
      "hand": "right"
    },
    {
      "midi": 73,
      "time": 7.125,
      "duration": 0.25,
      "velocity": 0.63,
      "hand": "right"
    },
    {
      "midi": 52,
      "time": 7.25,
      "duration": 0.125,
      "velocity": 0.63,
      "hand": "left"
    },
    {
      "midi": 57,
      "time": 7.25,
      "duration": 0.125,
      "velocity": 0.63,
      "hand": "left"
    },
    {
      "midi": 61,
      "time": 7.25,
      "duration": 0.125,
      "velocity": 0.63,
      "hand": "right"
    },
    {
      "midi": 52,
      "time": 7.375,
      "duration": 0.125,
      "velocity": 0.63,
      "hand": "left"
    },
    {
      "midi": 57,
      "time": 7.375,
      "duration": 0.125,
      "velocity": 0.63,
      "hand": "left"
    },
    {
      "midi": 61,
      "time": 7.375,
      "duration": 0.125,
      "velocity": 0.63,
      "hand": "right"
    },
    {
      "midi": 69,
      "time": 7.375,
      "duration": 0.125,
      "velocity": 0.63,
      "hand": "right"
    },
    {
      "midi": 71,
      "time": 7.5,
      "duration": 0.25,
      "velocity": 0.63,
      "hand": "right"
    },
    {
      "midi": 52,
      "time": 7.75,
      "duration": 0.125,
      "velocity": 0.63,
      "hand": "left"
    },
    {
      "midi": 57,
      "time": 7.75,
      "duration": 0.125,
      "velocity": 0.63,
      "hand": "left"
    },
    {
      "midi": 61,
      "time": 7.75,
      "duration": 0.125,
      "velocity": 0.63,
      "hand": "right"
    },
    {
      "midi": 69,
      "time": 7.75,
      "duration": 0.25,
      "velocity": 0.63,
      "hand": "right"
    },
    {
      "midi": 52,
      "time": 7.875,
      "duration": 0.125,
      "velocity": 0.63,
      "hand": "left"
    },
    {
      "midi": 57,
      "time": 7.875,
      "duration": 0.125,
      "velocity": 0.63,
      "hand": "left"
    },
    {
      "midi": 61,
      "time": 7.875,
      "duration": 0.125,
      "velocity": 0.63,
      "hand": "right"
    },
    {
      "midi": 73,
      "time": 8,
      "duration": 0.25,
      "velocity": 0.63,
      "hand": "right"
    },
    {
      "midi": 52,
      "time": 8.25,
      "duration": 0.125,
      "velocity": 0.63,
      "hand": "left"
    },
    {
      "midi": 57,
      "time": 8.25,
      "duration": 0.125,
      "velocity": 0.63,
      "hand": "left"
    },
    {
      "midi": 61,
      "time": 8.25,
      "duration": 0.125,
      "velocity": 0.63,
      "hand": "right"
    },
    {
      "midi": 69,
      "time": 8.25,
      "duration": 0.25,
      "velocity": 0.63,
      "hand": "right"
    },
    {
      "midi": 52,
      "time": 8.375,
      "duration": 0.125,
      "velocity": 0.63,
      "hand": "left"
    },
    {
      "midi": 57,
      "time": 8.375,
      "duration": 0.125,
      "velocity": 0.63,
      "hand": "left"
    },
    {
      "midi": 61,
      "time": 8.375,
      "duration": 0.125,
      "velocity": 0.63,
      "hand": "right"
    },
    {
      "midi": 71,
      "time": 8.5,
      "duration": 0.25,
      "velocity": 0.63,
      "hand": "right"
    },
    {
      "midi": 52,
      "time": 8.75,
      "duration": 0.125,
      "velocity": 0.63,
      "hand": "left"
    },
    {
      "midi": 57,
      "time": 8.75,
      "duration": 0.125,
      "velocity": 0.63,
      "hand": "left"
    },
    {
      "midi": 61,
      "time": 8.75,
      "duration": 0.125,
      "velocity": 0.63,
      "hand": "right"
    },
    {
      "midi": 73,
      "time": 8.75,
      "duration": 0.25,
      "velocity": 0.63,
      "hand": "right"
    },
    {
      "midi": 52,
      "time": 8.875,
      "duration": 0.125,
      "velocity": 0.63,
      "hand": "left"
    },
    {
      "midi": 57,
      "time": 8.875,
      "duration": 0.125,
      "velocity": 0.63,
      "hand": "left"
    },
    {
      "midi": 61,
      "time": 8.875,
      "duration": 0.125,
      "velocity": 0.63,
      "hand": "right"
    },
    {
      "midi": 54,
      "time": 9,
      "duration": 0.25,
      "velocity": 0.63,
      "hand": "left"
    },
    {
      "midi": 57,
      "time": 9,
      "duration": 0.25,
      "velocity": 0.63,
      "hand": "left"
    },
    {
      "midi": 62,
      "time": 9,
      "duration": 0.25,
      "velocity": 0.63,
      "hand": "right"
    },
    {
      "midi": 74,
      "time": 9,
      "duration": 0.25,
      "velocity": 0.63,
      "hand": "right"
    },
    {
      "midi": 69,
      "time": 9.75,
      "duration": 0.25,
      "velocity": 0.63,
      "hand": "right"
    },
    {
      "midi": 74,
      "time": 10,
      "duration": 0.125,
      "velocity": 0.63,
      "hand": "right"
    },
    {
      "midi": 74,
      "time": 10.125,
      "duration": 0.25,
      "velocity": 0.63,
      "hand": "right"
    },
    {
      "midi": 54,
      "time": 10.25,
      "duration": 0.125,
      "velocity": 0.63,
      "hand": "left"
    },
    {
      "midi": 57,
      "time": 10.25,
      "duration": 0.125,
      "velocity": 0.63,
      "hand": "left"
    },
    {
      "midi": 62,
      "time": 10.25,
      "duration": 0.125,
      "velocity": 0.63,
      "hand": "right"
    },
    {
      "midi": 54,
      "time": 10.375,
      "duration": 0.125,
      "velocity": 0.63,
      "hand": "left"
    },
    {
      "midi": 57,
      "time": 10.375,
      "duration": 0.125,
      "velocity": 0.63,
      "hand": "left"
    },
    {
      "midi": 62,
      "time": 10.375,
      "duration": 0.125,
      "velocity": 0.63,
      "hand": "right"
    },
    {
      "midi": 69,
      "time": 10.375,
      "duration": 0.125,
      "velocity": 0.63,
      "hand": "right"
    },
    {
      "midi": 71,
      "time": 10.5,
      "duration": 0.25,
      "velocity": 0.63,
      "hand": "right"
    },
    {
      "midi": 54,
      "time": 10.75,
      "duration": 0.125,
      "velocity": 0.63,
      "hand": "left"
    },
    {
      "midi": 57,
      "time": 10.75,
      "duration": 0.125,
      "velocity": 0.63,
      "hand": "left"
    },
    {
      "midi": 62,
      "time": 10.75,
      "duration": 0.125,
      "velocity": 0.63,
      "hand": "right"
    },
    {
      "midi": 69,
      "time": 10.75,
      "duration": 0.25,
      "velocity": 0.63,
      "hand": "right"
    },
    {
      "midi": 54,
      "time": 10.875,
      "duration": 0.125,
      "velocity": 0.63,
      "hand": "left"
    },
    {
      "midi": 57,
      "time": 10.875,
      "duration": 0.125,
      "velocity": 0.63,
      "hand": "left"
    },
    {
      "midi": 62,
      "time": 10.875,
      "duration": 0.125,
      "velocity": 0.63,
      "hand": "right"
    },
    {
      "midi": 66,
      "time": 11,
      "duration": 0.5,
      "velocity": 0.63,
      "hand": "right"
    },
    {
      "midi": 54,
      "time": 11.25,
      "duration": 0.125,
      "velocity": 0.63,
      "hand": "left"
    },
    {
      "midi": 57,
      "time": 11.25,
      "duration": 0.125,
      "velocity": 0.63,
      "hand": "left"
    },
    {
      "midi": 62,
      "time": 11.25,
      "duration": 0.125,
      "velocity": 0.63,
      "hand": "right"
    },
    {
      "midi": 54,
      "time": 11.375,
      "duration": 0.125,
      "velocity": 0.63,
      "hand": "left"
    },
    {
      "midi": 57,
      "time": 11.375,
      "duration": 0.125,
      "velocity": 0.63,
      "hand": "left"
    },
    {
      "midi": 62,
      "time": 11.375,
      "duration": 0.125,
      "velocity": 0.63,
      "hand": "right"
    },
    {
      "midi": 54,
      "time": 11.75,
      "duration": 0.125,
      "velocity": 0.63,
      "hand": "left"
    },
    {
      "midi": 57,
      "time": 11.75,
      "duration": 0.125,
      "velocity": 0.63,
      "hand": "left"
    },
    {
      "midi": 62,
      "time": 11.75,
      "duration": 0.125,
      "velocity": 0.63,
      "hand": "right"
    },
    {
      "midi": 69,
      "time": 11.75,
      "duration": 0.25,
      "velocity": 0.63,
      "hand": "right"
    },
    {
      "midi": 54,
      "time": 11.875,
      "duration": 0.125,
      "velocity": 0.63,
      "hand": "left"
    },
    {
      "midi": 57,
      "time": 11.875,
      "duration": 0.125,
      "velocity": 0.63,
      "hand": "left"
    },
    {
      "midi": 62,
      "time": 11.875,
      "duration": 0.125,
      "velocity": 0.63,
      "hand": "right"
    },
    {
      "midi": 74,
      "time": 12,
      "duration": 0.125,
      "velocity": 0.63,
      "hand": "right"
    },
    {
      "midi": 74,
      "time": 12.125,
      "duration": 0.25,
      "velocity": 0.63,
      "hand": "right"
    },
    {
      "midi": 54,
      "time": 12.25,
      "duration": 0.125,
      "velocity": 0.63,
      "hand": "left"
    },
    {
      "midi": 57,
      "time": 12.25,
      "duration": 0.125,
      "velocity": 0.63,
      "hand": "left"
    },
    {
      "midi": 62,
      "time": 12.25,
      "duration": 0.125,
      "velocity": 0.63,
      "hand": "right"
    },
    {
      "midi": 54,
      "time": 12.375,
      "duration": 0.125,
      "velocity": 0.63,
      "hand": "left"
    },
    {
      "midi": 57,
      "time": 12.375,
      "duration": 0.125,
      "velocity": 0.63,
      "hand": "left"
    },
    {
      "midi": 62,
      "time": 12.375,
      "duration": 0.125,
      "velocity": 0.63,
      "hand": "right"
    },
    {
      "midi": 69,
      "time": 12.375,
      "duration": 0.125,
      "velocity": 0.63,
      "hand": "right"
    },
    {
      "midi": 71,
      "time": 12.5,
      "duration": 0.25,
      "velocity": 0.63,
      "hand": "right"
    },
    {
      "midi": 54,
      "time": 12.75,
      "duration": 0.125,
      "velocity": 0.63,
      "hand": "left"
    },
    {
      "midi": 57,
      "time": 12.75,
      "duration": 0.125,
      "velocity": 0.63,
      "hand": "left"
    },
    {
      "midi": 62,
      "time": 12.75,
      "duration": 0.125,
      "velocity": 0.63,
      "hand": "right"
    },
    {
      "midi": 69,
      "time": 12.75,
      "duration": 0.25,
      "velocity": 0.63,
      "hand": "right"
    },
    {
      "midi": 54,
      "time": 12.875,
      "duration": 0.125,
      "velocity": 0.63,
      "hand": "left"
    },
    {
      "midi": 57,
      "time": 12.875,
      "duration": 0.125,
      "velocity": 0.63,
      "hand": "left"
    },
    {
      "midi": 62,
      "time": 12.875,
      "duration": 0.125,
      "velocity": 0.63,
      "hand": "right"
    },
    {
      "midi": 73,
      "time": 13,
      "duration": 0.5,
      "velocity": 0.63,
      "hand": "right"
    },
    {
      "midi": 52,
      "time": 13.25,
      "duration": 0.125,
      "velocity": 0.63,
      "hand": "left"
    },
    {
      "midi": 57,
      "time": 13.25,
      "duration": 0.125,
      "velocity": 0.63,
      "hand": "left"
    },
    {
      "midi": 61,
      "time": 13.25,
      "duration": 0.125,
      "velocity": 0.63,
      "hand": "right"
    },
    {
      "midi": 52,
      "time": 13.375,
      "duration": 0.125,
      "velocity": 0.63,
      "hand": "left"
    },
    {
      "midi": 57,
      "time": 13.375,
      "duration": 0.125,
      "velocity": 0.63,
      "hand": "left"
    },
    {
      "midi": 61,
      "time": 13.375,
      "duration": 0.125,
      "velocity": 0.63,
      "hand": "right"
    },
    {
      "midi": 52,
      "time": 13.75,
      "duration": 0.125,
      "velocity": 0.63,
      "hand": "left"
    },
    {
      "midi": 57,
      "time": 13.75,
      "duration": 0.125,
      "velocity": 0.63,
      "hand": "left"
    },
    {
      "midi": 61,
      "time": 13.75,
      "duration": 0.125,
      "velocity": 0.63,
      "hand": "right"
    },
    {
      "midi": 69,
      "time": 13.75,
      "duration": 0.125,
      "velocity": 0.63,
      "hand": "right"
    },
    {
      "midi": 52,
      "time": 13.875,
      "duration": 0.125,
      "velocity": 0.63,
      "hand": "left"
    },
    {
      "midi": 57,
      "time": 13.875,
      "duration": 0.125,
      "velocity": 0.63,
      "hand": "left"
    },
    {
      "midi": 61,
      "time": 13.875,
      "duration": 0.125,
      "velocity": 0.63,
      "hand": "right"
    },
    {
      "midi": 69,
      "time": 13.875,
      "duration": 0.125,
      "velocity": 0.63,
      "hand": "right"
    },
    {
      "midi": 73,
      "time": 14,
      "duration": 0.125,
      "velocity": 0.63,
      "hand": "right"
    },
    {
      "midi": 73,
      "time": 14.125,
      "duration": 0.25,
      "velocity": 0.63,
      "hand": "right"
    },
    {
      "midi": 52,
      "time": 14.25,
      "duration": 0.125,
      "velocity": 0.63,
      "hand": "left"
    },
    {
      "midi": 57,
      "time": 14.25,
      "duration": 0.125,
      "velocity": 0.63,
      "hand": "left"
    },
    {
      "midi": 61,
      "time": 14.25,
      "duration": 0.125,
      "velocity": 0.63,
      "hand": "right"
    },
    {
      "midi": 52,
      "time": 14.375,
      "duration": 0.125,
      "velocity": 0.63,
      "hand": "left"
    },
    {
      "midi": 57,
      "time": 14.375,
      "duration": 0.125,
      "velocity": 0.63,
      "hand": "left"
    },
    {
      "midi": 61,
      "time": 14.375,
      "duration": 0.125,
      "velocity": 0.63,
      "hand": "right"
    },
    {
      "midi": 69,
      "time": 14.375,
      "duration": 0.125,
      "velocity": 0.63,
      "hand": "right"
    },
    {
      "midi": 71,
      "time": 14.5,
      "duration": 0.25,
      "velocity": 0.63,
      "hand": "right"
    },
    {
      "midi": 52,
      "time": 14.75,
      "duration": 0.125,
      "velocity": 0.63,
      "hand": "left"
    },
    {
      "midi": 57,
      "time": 14.75,
      "duration": 0.125,
      "velocity": 0.63,
      "hand": "left"
    },
    {
      "midi": 61,
      "time": 14.75,
      "duration": 0.125,
      "velocity": 0.63,
      "hand": "right"
    },
    {
      "midi": 69,
      "time": 14.75,
      "duration": 0.25,
      "velocity": 0.63,
      "hand": "right"
    },
    {
      "midi": 52,
      "time": 14.875,
      "duration": 0.125,
      "velocity": 0.63,
      "hand": "left"
    },
    {
      "midi": 57,
      "time": 14.875,
      "duration": 0.125,
      "velocity": 0.63,
      "hand": "left"
    },
    {
      "midi": 61,
      "time": 14.875,
      "duration": 0.125,
      "velocity": 0.63,
      "hand": "right"
    },
    {
      "midi": 73,
      "time": 15,
      "duration": 0.125,
      "velocity": 0.63,
      "hand": "right"
    },
    {
      "midi": 73,
      "time": 15.125,
      "duration": 0.25,
      "velocity": 0.63,
      "hand": "right"
    },
    {
      "midi": 52,
      "time": 15.25,
      "duration": 0.125,
      "velocity": 0.63,
      "hand": "left"
    },
    {
      "midi": 57,
      "time": 15.25,
      "duration": 0.125,
      "velocity": 0.63,
      "hand": "left"
    },
    {
      "midi": 61,
      "time": 15.25,
      "duration": 0.125,
      "velocity": 0.63,
      "hand": "right"
    },
    {
      "midi": 52,
      "time": 15.375,
      "duration": 0.125,
      "velocity": 0.63,
      "hand": "left"
    },
    {
      "midi": 57,
      "time": 15.375,
      "duration": 0.125,
      "velocity": 0.63,
      "hand": "left"
    },
    {
      "midi": 61,
      "time": 15.375,
      "duration": 0.125,
      "velocity": 0.63,
      "hand": "right"
    },
    {
      "midi": 69,
      "time": 15.375,
      "duration": 0.125,
      "velocity": 0.63,
      "hand": "right"
    },
    {
      "midi": 71,
      "time": 15.5,
      "duration": 0.25,
      "velocity": 0.63,
      "hand": "right"
    },
    {
      "midi": 52,
      "time": 15.75,
      "duration": 0.125,
      "velocity": 0.63,
      "hand": "left"
    },
    {
      "midi": 57,
      "time": 15.75,
      "duration": 0.125,
      "velocity": 0.63,
      "hand": "left"
    },
    {
      "midi": 61,
      "time": 15.75,
      "duration": 0.125,
      "velocity": 0.63,
      "hand": "right"
    },
    {
      "midi": 69,
      "time": 15.75,
      "duration": 0.25,
      "velocity": 0.63,
      "hand": "right"
    },
    {
      "midi": 52,
      "time": 15.875,
      "duration": 0.125,
      "velocity": 0.63,
      "hand": "left"
    },
    {
      "midi": 57,
      "time": 15.875,
      "duration": 0.125,
      "velocity": 0.63,
      "hand": "left"
    },
    {
      "midi": 61,
      "time": 15.875,
      "duration": 0.125,
      "velocity": 0.63,
      "hand": "right"
    },
    {
      "midi": 73,
      "time": 16,
      "duration": 0.25,
      "velocity": 0.63,
      "hand": "right"
    },
    {
      "midi": 52,
      "time": 16.25,
      "duration": 0.125,
      "velocity": 0.63,
      "hand": "left"
    },
    {
      "midi": 57,
      "time": 16.25,
      "duration": 0.125,
      "velocity": 0.63,
      "hand": "left"
    },
    {
      "midi": 61,
      "time": 16.25,
      "duration": 0.125,
      "velocity": 0.63,
      "hand": "right"
    },
    {
      "midi": 69,
      "time": 16.25,
      "duration": 0.25,
      "velocity": 0.63,
      "hand": "right"
    },
    {
      "midi": 52,
      "time": 16.375,
      "duration": 0.125,
      "velocity": 0.63,
      "hand": "left"
    },
    {
      "midi": 57,
      "time": 16.375,
      "duration": 0.125,
      "velocity": 0.63,
      "hand": "left"
    },
    {
      "midi": 61,
      "time": 16.375,
      "duration": 0.125,
      "velocity": 0.63,
      "hand": "right"
    },
    {
      "midi": 71,
      "time": 16.5,
      "duration": 0.25,
      "velocity": 0.63,
      "hand": "right"
    },
    {
      "midi": 52,
      "time": 16.75,
      "duration": 0.125,
      "velocity": 0.63,
      "hand": "left"
    },
    {
      "midi": 57,
      "time": 16.75,
      "duration": 0.125,
      "velocity": 0.63,
      "hand": "left"
    },
    {
      "midi": 61,
      "time": 16.75,
      "duration": 0.125,
      "velocity": 0.63,
      "hand": "right"
    },
    {
      "midi": 73,
      "time": 16.75,
      "duration": 0.25,
      "velocity": 0.63,
      "hand": "right"
    },
    {
      "midi": 52,
      "time": 16.875,
      "duration": 0.125,
      "velocity": 0.63,
      "hand": "left"
    },
    {
      "midi": 57,
      "time": 16.875,
      "duration": 0.125,
      "velocity": 0.63,
      "hand": "left"
    },
    {
      "midi": 61,
      "time": 16.875,
      "duration": 0.125,
      "velocity": 0.63,
      "hand": "right"
    },
    {
      "midi": 54,
      "time": 17,
      "duration": 0.25,
      "velocity": 0.63,
      "hand": "left"
    },
    {
      "midi": 57,
      "time": 17,
      "duration": 0.25,
      "velocity": 0.63,
      "hand": "left"
    },
    {
      "midi": 62,
      "time": 17,
      "duration": 0.25,
      "velocity": 0.63,
      "hand": "right"
    },
    {
      "midi": 74,
      "time": 17,
      "duration": 0.25,
      "velocity": 0.63,
      "hand": "right"
    },
    {
      "midi": 57,
      "time": 17.25,
      "duration": 0.25,
      "velocity": 0.63,
      "hand": "left"
    },
    {
      "midi": 59,
      "time": 17.5,
      "duration": 0.25,
      "velocity": 0.63,
      "hand": "left"
    },
    {
      "midi": 57,
      "time": 17.75,
      "duration": 0.25,
      "velocity": 0.63,
      "hand": "left"
    },
    {
      "midi": 52,
      "time": 18,
      "duration": 0.375,
      "velocity": 0.63,
      "hand": "left"
    },
    {
      "midi": 57,
      "time": 18,
      "duration": 0.5,
      "velocity": 0.63,
      "hand": "left"
    },
    {
      "midi": 64,
      "time": 18,
      "duration": 0.5,
      "velocity": 0.63,
      "hand": "right"
    },
    {
      "midi": 69,
      "time": 18.25,
      "duration": 0.125,
      "velocity": 0.63,
      "hand": "right"
    },
    {
      "midi": 52,
      "time": 18.375,
      "duration": 0.375,
      "velocity": 0.63,
      "hand": "left"
    },
    {
      "midi": 69,
      "time": 18.375,
      "duration": 0.125,
      "velocity": 0.63,
      "hand": "right"
    },
    {
      "midi": 61,
      "time": 18.5,
      "duration": 0.5,
      "velocity": 0.63,
      "hand": "right"
    },
    {
      "midi": 69,
      "time": 18.5,
      "duration": 0.5,
      "velocity": 0.63,
      "hand": "right"
    },
    {
      "midi": 45,
      "time": 18.75,
      "duration": 0.25,
      "velocity": 0.63,
      "hand": "left"
    },
    {
      "midi": 69,
      "time": 18.75,
      "duration": 0.125,
      "velocity": 0.63,
      "hand": "right"
    },
    {
      "midi": 69,
      "time": 18.875,
      "duration": 0.125,
      "velocity": 0.63,
      "hand": "right"
    },
    {
      "midi": 52,
      "time": 19,
      "duration": 0.375,
      "velocity": 0.63,
      "hand": "left"
    },
    {
      "midi": 64,
      "time": 19,
      "duration": 0.5,
      "velocity": 0.63,
      "hand": "right"
    },
    {
      "midi": 57,
      "time": 19.125,
      "duration": 0.25,
      "velocity": 0.63,
      "hand": "left"
    },
    {
      "midi": 73,
      "time": 19.25,
      "duration": 0.125,
      "velocity": 0.63,
      "hand": "right"
    },
    {
      "midi": 52,
      "time": 19.375,
      "duration": 0.375,
      "velocity": 0.63,
      "hand": "left"
    },
    {
      "midi": 57,
      "time": 19.375,
      "duration": 0.125,
      "velocity": 0.63,
      "hand": "left"
    },
    {
      "midi": 73,
      "time": 19.375,
      "duration": 0.125,
      "velocity": 0.63,
      "hand": "right"
    },
    {
      "midi": 59,
      "time": 19.5,
      "duration": 0.25,
      "velocity": 0.63,
      "hand": "left"
    },
    {
      "midi": 69,
      "time": 19.5,
      "duration": 0.5,
      "velocity": 0.63,
      "hand": "right"
    },
    {
      "midi": 45,
      "time": 19.75,
      "duration": 0.25,
      "velocity": 0.63,
      "hand": "left"
    },
    {
      "midi": 57,
      "time": 19.75,
      "duration": 0.25,
      "velocity": 0.63,
      "hand": "left"
    },
    {
      "midi": 73,
      "time": 19.75,
      "duration": 0.125,
      "velocity": 0.63,
      "hand": "right"
    },
    {
      "midi": 73,
      "time": 19.875,
      "duration": 0.125,
      "velocity": 0.63,
      "hand": "right"
    },
    {
      "midi": 54,
      "time": 20,
      "duration": 0.375,
      "velocity": 0.63,
      "hand": "left"
    },
    {
      "midi": 57,
      "time": 20,
      "duration": 0.5,
      "velocity": 0.63,
      "hand": "left"
    },
    {
      "midi": 66,
      "time": 20,
      "duration": 0.5,
      "velocity": 0.63,
      "hand": "right"
    },
    {
      "midi": 74,
      "time": 20.25,
      "duration": 0.125,
      "velocity": 0.63,
      "hand": "right"
    },
    {
      "midi": 54,
      "time": 20.375,
      "duration": 0.375,
      "velocity": 0.63,
      "hand": "left"
    },
    {
      "midi": 74,
      "time": 20.375,
      "duration": 0.125,
      "velocity": 0.63,
      "hand": "right"
    },
    {
      "midi": 62,
      "time": 20.5,
      "duration": 0.5,
      "velocity": 0.63,
      "hand": "right"
    },
    {
      "midi": 69,
      "time": 20.5,
      "duration": 0.5,
      "velocity": 0.63,
      "hand": "right"
    },
    {
      "midi": 50,
      "time": 20.75,
      "duration": 0.25,
      "velocity": 0.63,
      "hand": "left"
    },
    {
      "midi": 74,
      "time": 20.75,
      "duration": 0.125,
      "velocity": 0.63,
      "hand": "right"
    },
    {
      "midi": 74,
      "time": 20.875,
      "duration": 0.125,
      "velocity": 0.63,
      "hand": "right"
    },
    {
      "midi": 54,
      "time": 21,
      "duration": 0.375,
      "velocity": 0.63,
      "hand": "left"
    },
    {
      "midi": 66,
      "time": 21,
      "duration": 0.5,
      "velocity": 0.63,
      "hand": "right"
    },
    {
      "midi": 57,
      "time": 21.125,
      "duration": 0.25,
      "velocity": 0.63,
      "hand": "left"
    },
    {
      "midi": 74,
      "time": 21.25,
      "duration": 0.125,
      "velocity": 0.63,
      "hand": "right"
    },
    {
      "midi": 54,
      "time": 21.375,
      "duration": 0.375,
      "velocity": 0.63,
      "hand": "left"
    },
    {
      "midi": 57,
      "time": 21.375,
      "duration": 0.125,
      "velocity": 0.63,
      "hand": "left"
    },
    {
      "midi": 74,
      "time": 21.375,
      "duration": 0.125,
      "velocity": 0.63,
      "hand": "right"
    },
    {
      "midi": 59,
      "time": 21.5,
      "duration": 0.25,
      "velocity": 0.63,
      "hand": "left"
    },
    {
      "midi": 69,
      "time": 21.5,
      "duration": 0.5,
      "velocity": 0.63,
      "hand": "right"
    },
    {
      "midi": 50,
      "time": 21.75,
      "duration": 0.25,
      "velocity": 0.63,
      "hand": "left"
    },
    {
      "midi": 57,
      "time": 21.75,
      "duration": 0.25,
      "velocity": 0.63,
      "hand": "left"
    },
    {
      "midi": 74,
      "time": 21.75,
      "duration": 0.125,
      "velocity": 0.63,
      "hand": "right"
    },
    {
      "midi": 74,
      "time": 21.875,
      "duration": 0.125,
      "velocity": 0.63,
      "hand": "right"
    },
    {
      "midi": 52,
      "time": 22,
      "duration": 0.375,
      "velocity": 0.63,
      "hand": "left"
    },
    {
      "midi": 57,
      "time": 22,
      "duration": 0.5,
      "velocity": 0.63,
      "hand": "left"
    },
    {
      "midi": 64,
      "time": 22,
      "duration": 0.5,
      "velocity": 0.63,
      "hand": "right"
    },
    {
      "midi": 69,
      "time": 22.25,
      "duration": 0.125,
      "velocity": 0.63,
      "hand": "right"
    },
    {
      "midi": 52,
      "time": 22.375,
      "duration": 0.375,
      "velocity": 0.63,
      "hand": "left"
    },
    {
      "midi": 69,
      "time": 22.375,
      "duration": 0.125,
      "velocity": 0.63,
      "hand": "right"
    },
    {
      "midi": 61,
      "time": 22.5,
      "duration": 0.5,
      "velocity": 0.63,
      "hand": "right"
    },
    {
      "midi": 69,
      "time": 22.5,
      "duration": 0.5,
      "velocity": 0.63,
      "hand": "right"
    },
    {
      "midi": 45,
      "time": 22.75,
      "duration": 0.25,
      "velocity": 0.63,
      "hand": "left"
    },
    {
      "midi": 69,
      "time": 22.75,
      "duration": 0.125,
      "velocity": 0.63,
      "hand": "right"
    },
    {
      "midi": 69,
      "time": 22.875,
      "duration": 0.125,
      "velocity": 0.63,
      "hand": "right"
    },
    {
      "midi": 52,
      "time": 23,
      "duration": 0.375,
      "velocity": 0.63,
      "hand": "left"
    },
    {
      "midi": 64,
      "time": 23,
      "duration": 0.5,
      "velocity": 0.63,
      "hand": "right"
    },
    {
      "midi": 57,
      "time": 23.25,
      "duration": 0.25,
      "velocity": 0.63,
      "hand": "left"
    },
    {
      "midi": 69,
      "time": 23.25,
      "duration": 0.125,
      "velocity": 0.63,
      "hand": "right"
    },
    {
      "midi": 52,
      "time": 23.375,
      "duration": 0.375,
      "velocity": 0.63,
      "hand": "left"
    },
    {
      "midi": 69,
      "time": 23.375,
      "duration": 0.125,
      "velocity": 0.63,
      "hand": "right"
    },
    {
      "midi": 59,
      "time": 23.5,
      "duration": 0.25,
      "velocity": 0.63,
      "hand": "left"
    },
    {
      "midi": 69,
      "time": 23.5,
      "duration": 0.5,
      "velocity": 0.63,
      "hand": "right"
    },
    {
      "midi": 45,
      "time": 23.75,
      "duration": 0.25,
      "velocity": 0.63,
      "hand": "left"
    },
    {
      "midi": 61,
      "time": 23.75,
      "duration": 0.25,
      "velocity": 0.63,
      "hand": "right"
    },
    {
      "midi": 69,
      "time": 23.75,
      "duration": 0.125,
      "velocity": 0.63,
      "hand": "right"
    },
    {
      "midi": 69,
      "time": 23.875,
      "duration": 0.125,
      "velocity": 0.63,
      "hand": "right"
    },
    {
      "midi": 50,
      "time": 24,
      "duration": 0.125,
      "velocity": 0.63,
      "hand": "left"
    },
    {
      "midi": 62,
      "time": 24,
      "duration": 1,
      "velocity": 0.63,
      "hand": "right"
    },
    {
      "midi": 66,
      "time": 24,
      "duration": 1,
      "velocity": 0.63,
      "hand": "right"
    },
    {
      "midi": 69,
      "time": 24,
      "duration": 1,
      "velocity": 0.63,
      "hand": "right"
    },
    {
      "midi": 50,
      "time": 24.125,
      "duration": 0.25,
      "velocity": 0.63,
      "hand": "left"
    },
    {
      "midi": 50,
      "time": 24.375,
      "duration": 0.125,
      "velocity": 0.63,
      "hand": "left"
    },
    {
      "midi": 47,
      "time": 24.5,
      "duration": 0.25,
      "velocity": 0.63,
      "hand": "left"
    },
    {
      "midi": 45,
      "time": 24.75,
      "duration": 0.25,
      "velocity": 0.63,
      "hand": "left"
    },
    {
      "midi": 45,
      "time": 25,
      "duration": 0.25,
      "velocity": 0.63,
      "hand": "left"
    },
    {
      "midi": 57,
      "time": 25.25,
      "duration": 0.25,
      "velocity": 0.63,
      "hand": "left"
    },
    {
      "midi": 66,
      "time": 25.25,
      "duration": 0.25,
      "velocity": 0.63,
      "hand": "right"
    },
    {
      "midi": 59,
      "time": 25.5,
      "duration": 0.25,
      "velocity": 0.63,
      "hand": "left"
    },
    {
      "midi": 68,
      "time": 25.5,
      "duration": 0.25,
      "velocity": 0.63,
      "hand": "right"
    },
    {
      "midi": 57,
      "time": 25.75,
      "duration": 0.25,
      "velocity": 0.63,
      "hand": "left"
    },
    {
      "midi": 66,
      "time": 25.75,
      "duration": 0.25,
      "velocity": 0.63,
      "hand": "right"
    },
    {
      "midi": 52,
      "time": 26,
      "duration": 0.375,
      "velocity": 0.63,
      "hand": "left"
    },
    {
      "midi": 57,
      "time": 26,
      "duration": 0.5,
      "velocity": 0.63,
      "hand": "left"
    },
    {
      "midi": 64,
      "time": 26,
      "duration": 0.5,
      "velocity": 0.63,
      "hand": "right"
    },
    {
      "midi": 69,
      "time": 26.25,
      "duration": 0.125,
      "velocity": 0.63,
      "hand": "right"
    },
    {
      "midi": 52,
      "time": 26.375,
      "duration": 0.375,
      "velocity": 0.63,
      "hand": "left"
    },
    {
      "midi": 69,
      "time": 26.375,
      "duration": 0.125,
      "velocity": 0.63,
      "hand": "right"
    },
    {
      "midi": 61,
      "time": 26.5,
      "duration": 0.5,
      "velocity": 0.63,
      "hand": "right"
    },
    {
      "midi": 69,
      "time": 26.5,
      "duration": 0.5,
      "velocity": 0.63,
      "hand": "right"
    },
    {
      "midi": 45,
      "time": 26.75,
      "duration": 0.25,
      "velocity": 0.63,
      "hand": "left"
    },
    {
      "midi": 69,
      "time": 26.75,
      "duration": 0.125,
      "velocity": 0.63,
      "hand": "right"
    },
    {
      "midi": 69,
      "time": 26.875,
      "duration": 0.125,
      "velocity": 0.63,
      "hand": "right"
    },
    {
      "midi": 52,
      "time": 27,
      "duration": 0.375,
      "velocity": 0.63,
      "hand": "left"
    },
    {
      "midi": 64,
      "time": 27,
      "duration": 0.5,
      "velocity": 0.63,
      "hand": "right"
    },
    {
      "midi": 57,
      "time": 27.25,
      "duration": 0.25,
      "velocity": 0.63,
      "hand": "left"
    },
    {
      "midi": 73,
      "time": 27.25,
      "duration": 0.125,
      "velocity": 0.63,
      "hand": "right"
    },
    {
      "midi": 52,
      "time": 27.375,
      "duration": 0.375,
      "velocity": 0.63,
      "hand": "left"
    },
    {
      "midi": 73,
      "time": 27.375,
      "duration": 0.125,
      "velocity": 0.63,
      "hand": "right"
    },
    {
      "midi": 59,
      "time": 27.5,
      "duration": 0.25,
      "velocity": 0.63,
      "hand": "left"
    },
    {
      "midi": 69,
      "time": 27.5,
      "duration": 0.5,
      "velocity": 0.63,
      "hand": "right"
    },
    {
      "midi": 45,
      "time": 27.75,
      "duration": 0.25,
      "velocity": 0.63,
      "hand": "left"
    },
    {
      "midi": 57,
      "time": 27.75,
      "duration": 0.25,
      "velocity": 0.63,
      "hand": "left"
    },
    {
      "midi": 73,
      "time": 27.75,
      "duration": 0.125,
      "velocity": 0.63,
      "hand": "right"
    },
    {
      "midi": 73,
      "time": 27.875,
      "duration": 0.125,
      "velocity": 0.63,
      "hand": "right"
    },
    {
      "midi": 54,
      "time": 28,
      "duration": 0.375,
      "velocity": 0.63,
      "hand": "left"
    },
    {
      "midi": 57,
      "time": 28,
      "duration": 0.5,
      "velocity": 0.63,
      "hand": "left"
    },
    {
      "midi": 66,
      "time": 28,
      "duration": 0.5,
      "velocity": 0.63,
      "hand": "right"
    },
    {
      "midi": 74,
      "time": 28.25,
      "duration": 0.125,
      "velocity": 0.63,
      "hand": "right"
    },
    {
      "midi": 54,
      "time": 28.375,
      "duration": 0.375,
      "velocity": 0.63,
      "hand": "left"
    },
    {
      "midi": 74,
      "time": 28.375,
      "duration": 0.125,
      "velocity": 0.63,
      "hand": "right"
    },
    {
      "midi": 62,
      "time": 28.5,
      "duration": 0.5,
      "velocity": 0.63,
      "hand": "right"
    },
    {
      "midi": 69,
      "time": 28.5,
      "duration": 0.5,
      "velocity": 0.63,
      "hand": "right"
    },
    {
      "midi": 50,
      "time": 28.75,
      "duration": 0.25,
      "velocity": 0.63,
      "hand": "left"
    },
    {
      "midi": 74,
      "time": 28.75,
      "duration": 0.125,
      "velocity": 0.63,
      "hand": "right"
    },
    {
      "midi": 74,
      "time": 28.875,
      "duration": 0.125,
      "velocity": 0.63,
      "hand": "right"
    },
    {
      "midi": 54,
      "time": 29,
      "duration": 0.375,
      "velocity": 0.63,
      "hand": "left"
    },
    {
      "midi": 66,
      "time": 29,
      "duration": 0.5,
      "velocity": 0.63,
      "hand": "right"
    },
    {
      "midi": 57,
      "time": 29.25,
      "duration": 0.25,
      "velocity": 0.63,
      "hand": "left"
    },
    {
      "midi": 74,
      "time": 29.25,
      "duration": 0.125,
      "velocity": 0.63,
      "hand": "right"
    },
    {
      "midi": 54,
      "time": 29.375,
      "duration": 0.375,
      "velocity": 0.63,
      "hand": "left"
    },
    {
      "midi": 74,
      "time": 29.375,
      "duration": 0.125,
      "velocity": 0.63,
      "hand": "right"
    },
    {
      "midi": 59,
      "time": 29.5,
      "duration": 0.25,
      "velocity": 0.63,
      "hand": "left"
    },
    {
      "midi": 69,
      "time": 29.5,
      "duration": 0.5,
      "velocity": 0.63,
      "hand": "right"
    },
    {
      "midi": 50,
      "time": 29.75,
      "duration": 0.25,
      "velocity": 0.63,
      "hand": "left"
    },
    {
      "midi": 57,
      "time": 29.75,
      "duration": 0.25,
      "velocity": 0.63,
      "hand": "left"
    },
    {
      "midi": 74,
      "time": 29.75,
      "duration": 0.125,
      "velocity": 0.63,
      "hand": "right"
    },
    {
      "midi": 74,
      "time": 29.875,
      "duration": 0.125,
      "velocity": 0.63,
      "hand": "right"
    },
    {
      "midi": 52,
      "time": 30,
      "duration": 0.375,
      "velocity": 0.63,
      "hand": "left"
    },
    {
      "midi": 57,
      "time": 30,
      "duration": 0.5,
      "velocity": 0.63,
      "hand": "left"
    },
    {
      "midi": 64,
      "time": 30,
      "duration": 0.5,
      "velocity": 0.63,
      "hand": "right"
    },
    {
      "midi": 69,
      "time": 30.25,
      "duration": 0.125,
      "velocity": 0.63,
      "hand": "right"
    },
    {
      "midi": 52,
      "time": 30.375,
      "duration": 0.375,
      "velocity": 0.63,
      "hand": "left"
    },
    {
      "midi": 69,
      "time": 30.375,
      "duration": 0.125,
      "velocity": 0.63,
      "hand": "right"
    },
    {
      "midi": 61,
      "time": 30.5,
      "duration": 0.5,
      "velocity": 0.63,
      "hand": "right"
    },
    {
      "midi": 69,
      "time": 30.5,
      "duration": 0.5,
      "velocity": 0.63,
      "hand": "right"
    },
    {
      "midi": 45,
      "time": 30.75,
      "duration": 0.25,
      "velocity": 0.63,
      "hand": "left"
    },
    {
      "midi": 69,
      "time": 30.75,
      "duration": 0.125,
      "velocity": 0.63,
      "hand": "right"
    },
    {
      "midi": 69,
      "time": 30.875,
      "duration": 0.125,
      "velocity": 0.63,
      "hand": "right"
    },
    {
      "midi": 52,
      "time": 31,
      "duration": 0.375,
      "velocity": 0.63,
      "hand": "left"
    },
    {
      "midi": 64,
      "time": 31,
      "duration": 0.5,
      "velocity": 0.63,
      "hand": "right"
    },
    {
      "midi": 69,
      "time": 31.25,
      "duration": 0.25,
      "velocity": 0.63,
      "hand": "right"
    },
    {
      "midi": 52,
      "time": 31.375,
      "duration": 0.375,
      "velocity": 0.63,
      "hand": "left"
    },
    {
      "midi": 69,
      "time": 31.5,
      "duration": 0.5,
      "velocity": 0.63,
      "hand": "right"
    },
    {
      "midi": 71,
      "time": 31.5,
      "duration": 0.25,
      "velocity": 0.63,
      "hand": "right"
    },
    {
      "midi": 45,
      "time": 31.75,
      "duration": 0.25,
      "velocity": 0.39,
      "hand": "left"
    },
    {
      "midi": 57,
      "time": 31.75,
      "duration": 0.25,
      "velocity": 0.63,
      "hand": "left"
    },
    {
      "midi": 73,
      "time": 31.75,
      "duration": 0.25,
      "velocity": 0.63,
      "hand": "right"
    },
    {
      "midi": 50,
      "time": 32,
      "duration": 0.125,
      "velocity": 0.39,
      "hand": "left"
    },
    {
      "midi": 62,
      "time": 32,
      "duration": 0.125,
      "velocity": 0.63,
      "hand": "right"
    },
    {
      "midi": 66,
      "time": 32,
      "duration": 1,
      "velocity": 0.63,
      "hand": "right"
    },
    {
      "midi": 74,
      "time": 32,
      "duration": 0.5,
      "velocity": 0.63,
      "hand": "right"
    },
    {
      "midi": 50,
      "time": 32.125,
      "duration": 0.25,
      "velocity": 0.39,
      "hand": "left"
    },
    {
      "midi": 62,
      "time": 32.125,
      "duration": 0.25,
      "velocity": 0.63,
      "hand": "right"
    },
    {
      "midi": 50,
      "time": 32.375,
      "duration": 0.125,
      "velocity": 0.39,
      "hand": "left"
    },
    {
      "midi": 57,
      "time": 32.375,
      "duration": 0.125,
      "velocity": 0.63,
      "hand": "left"
    },
    {
      "midi": 47,
      "time": 32.5,
      "duration": 0.25,
      "velocity": 0.39,
      "hand": "left"
    },
    {
      "midi": 59,
      "time": 32.5,
      "duration": 0.25,
      "velocity": 0.63,
      "hand": "left"
    },
    {
      "midi": 74,
      "time": 32.5,
      "duration": 0.75,
      "velocity": 0.63,
      "hand": "right"
    },
    {
      "midi": 45,
      "time": 32.75,
      "duration": 0.25,
      "velocity": 0.39,
      "hand": "left"
    },
    {
      "midi": 57,
      "time": 32.75,
      "duration": 0.25,
      "velocity": 0.63,
      "hand": "left"
    },
    {
      "midi": 45,
      "time": 33,
      "duration": 0.25,
      "velocity": 0.39,
      "hand": "left"
    },
    {
      "midi": 54,
      "time": 33,
      "duration": 0.5,
      "velocity": 0.63,
      "hand": "left"
    },
    {
      "midi": 45,
      "time": 33.25,
      "duration": 0.125,
      "velocity": 0.39,
      "hand": "left"
    },
    {
      "midi": 66,
      "time": 33.25,
      "duration": 0.25,
      "velocity": 0.39,
      "hand": "right"
    },
    {
      "midi": 69,
      "time": 33.25,
      "duration": 0.25,
      "velocity": 0.63,
      "hand": "right"
    },
    {
      "midi": 45,
      "time": 33.375,
      "duration": 0.125,
      "velocity": 0.39,
      "hand": "left"
    },
    {
      "midi": 68,
      "time": 33.5,
      "duration": 0.25,
      "velocity": 0.39,
      "hand": "right"
    },
    {
      "midi": 71,
      "time": 33.5,
      "duration": 0.25,
      "velocity": 0.63,
      "hand": "right"
    },
    {
      "midi": 45,
      "time": 33.75,
      "duration": 0.125,
      "velocity": 0.39,
      "hand": "left"
    },
    {
      "midi": 57,
      "time": 33.75,
      "duration": 0.25,
      "velocity": 0.63,
      "hand": "left"
    },
    {
      "midi": 66,
      "time": 33.75,
      "duration": 0.25,
      "velocity": 0.39,
      "hand": "right"
    },
    {
      "midi": 69,
      "time": 33.75,
      "duration": 0.25,
      "velocity": 0.63,
      "hand": "right"
    },
    {
      "midi": 45,
      "time": 33.875,
      "duration": 0.125,
      "velocity": 0.39,
      "hand": "left"
    },
    {
      "midi": 62,
      "time": 34,
      "duration": 0.125,
      "velocity": 0.63,
      "hand": "right"
    },
    {
      "midi": 66,
      "time": 34,
      "duration": 0.5,
      "velocity": 0.39,
      "hand": "right"
    },
    {
      "midi": 69,
      "time": 34,
      "duration": 0.5,
      "velocity": 0.63,
      "hand": "right"
    },
    {
      "midi": 62,
      "time": 34.125,
      "duration": 0.25,
      "velocity": 0.63,
      "hand": "right"
    },
    {
      "midi": 45,
      "time": 34.25,
      "duration": 0.125,
      "velocity": 0.39,
      "hand": "left"
    },
    {
      "midi": 45,
      "time": 34.375,
      "duration": 0.125,
      "velocity": 0.39,
      "hand": "left"
    },
    {
      "midi": 57,
      "time": 34.375,
      "duration": 0.125,
      "velocity": 0.63,
      "hand": "left"
    },
    {
      "midi": 59,
      "time": 34.5,
      "duration": 0.25,
      "velocity": 0.63,
      "hand": "left"
    },
    {
      "midi": 66,
      "time": 34.5,
      "duration": 0.5,
      "velocity": 0.39,
      "hand": "right"
    },
    {
      "midi": 69,
      "time": 34.5,
      "duration": 0.5,
      "velocity": 0.63,
      "hand": "right"
    },
    {
      "midi": 45,
      "time": 34.75,
      "duration": 0.125,
      "velocity": 0.39,
      "hand": "left"
    },
    {
      "midi": 57,
      "time": 34.75,
      "duration": 0.25,
      "velocity": 0.63,
      "hand": "left"
    },
    {
      "midi": 45,
      "time": 34.875,
      "duration": 0.125,
      "velocity": 0.39,
      "hand": "left"
    },
    {
      "midi": 61,
      "time": 35,
      "duration": 0.5,
      "velocity": 0.63,
      "hand": "right"
    },
    {
      "midi": 45,
      "time": 35.125,
      "duration": 0.25,
      "velocity": 0.39,
      "hand": "left"
    },
    {
      "midi": 69,
      "time": 35.125,
      "duration": 0.25,
      "velocity": 0.63,
      "hand": "right"
    },
    {
      "midi": 64,
      "time": 35.25,
      "duration": 0.125,
      "velocity": 0.39,
      "hand": "right"
    },
    {
      "midi": 45,
      "time": 35.375,
      "duration": 0.125,
      "velocity": 0.39,
      "hand": "left"
    },
    {
      "midi": 64,
      "time": 35.375,
      "duration": 0.125,
      "velocity": 0.39,
      "hand": "right"
    },
    {
      "midi": 69,
      "time": 35.375,
      "duration": 0.125,
      "velocity": 0.63,
      "hand": "right"
    },
    {
      "midi": 47,
      "time": 35.5,
      "duration": 0.25,
      "velocity": 0.39,
      "hand": "left"
    },
    {
      "midi": 71,
      "time": 35.5,
      "duration": 0.25,
      "velocity": 0.63,
      "hand": "right"
    },
    {
      "midi": 45,
      "time": 35.75,
      "duration": 0.25,
      "velocity": 0.39,
      "hand": "left"
    },
    {
      "midi": 57,
      "time": 35.75,
      "duration": 0.125,
      "velocity": 0.63,
      "hand": "left"
    },
    {
      "midi": 64,
      "time": 35.75,
      "duration": 0.125,
      "velocity": 0.39,
      "hand": "right"
    },
    {
      "midi": 69,
      "time": 35.75,
      "duration": 0.25,
      "velocity": 0.63,
      "hand": "right"
    },
    {
      "midi": 57,
      "time": 35.875,
      "duration": 0.125,
      "velocity": 0.63,
      "hand": "left"
    },
    {
      "midi": 64,
      "time": 35.875,
      "duration": 0.125,
      "velocity": 0.39,
      "hand": "right"
    },
    {
      "midi": 45,
      "time": 36,
      "duration": 0.25,
      "velocity": 0.39,
      "hand": "left"
    },
    {
      "midi": 61,
      "time": 36,
      "duration": 0.125,
      "velocity": 0.63,
      "hand": "right"
    },
    {
      "midi": 69,
      "time": 36,
      "duration": 0.5,
      "velocity": 0.63,
      "hand": "right"
    },
    {
      "midi": 61,
      "time": 36.125,
      "duration": 0.25,
      "velocity": 0.63,
      "hand": "right"
    },
    {
      "midi": 45,
      "time": 36.25,
      "duration": 0.125,
      "velocity": 0.39,
      "hand": "left"
    },
    {
      "midi": 64,
      "time": 36.25,
      "duration": 0.125,
      "velocity": 0.39,
      "hand": "right"
    },
    {
      "midi": 45,
      "time": 36.375,
      "duration": 0.125,
      "velocity": 0.39,
      "hand": "left"
    },
    {
      "midi": 57,
      "time": 36.375,
      "duration": 0.125,
      "velocity": 0.63,
      "hand": "left"
    },
    {
      "midi": 64,
      "time": 36.375,
      "duration": 0.125,
      "velocity": 0.39,
      "hand": "right"
    },
    {
      "midi": 59,
      "time": 36.5,
      "duration": 0.25,
      "velocity": 0.63,
      "hand": "left"
    },
    {
      "midi": 69,
      "time": 36.5,
      "duration": 0.5,
      "velocity": 0.63,
      "hand": "right"
    },
    {
      "midi": 45,
      "time": 36.75,
      "duration": 0.125,
      "velocity": 0.39,
      "hand": "left"
    },
    {
      "midi": 57,
      "time": 36.75,
      "duration": 0.25,
      "velocity": 0.63,
      "hand": "left"
    },
    {
      "midi": 64,
      "time": 36.75,
      "duration": 0.125,
      "velocity": 0.39,
      "hand": "right"
    },
    {
      "midi": 45,
      "time": 36.875,
      "duration": 0.125,
      "velocity": 0.39,
      "hand": "left"
    },
    {
      "midi": 64,
      "time": 36.875,
      "duration": 0.125,
      "velocity": 0.39,
      "hand": "right"
    },
    {
      "midi": 61,
      "time": 37,
      "duration": 0.125,
      "velocity": 0.63,
      "hand": "right"
    },
    {
      "midi": 61,
      "time": 37.125,
      "duration": 0.25,
      "velocity": 0.63,
      "hand": "right"
    },
    {
      "midi": 69,
      "time": 37.125,
      "duration": 0.25,
      "velocity": 0.63,
      "hand": "right"
    },
    {
      "midi": 64,
      "time": 37.25,
      "duration": 0.125,
      "velocity": 0.39,
      "hand": "right"
    },
    {
      "midi": 45,
      "time": 37.375,
      "duration": 0.125,
      "velocity": 0.39,
      "hand": "left"
    },
    {
      "midi": 57,
      "time": 37.375,
      "duration": 0.125,
      "velocity": 0.63,
      "hand": "left"
    },
    {
      "midi": 64,
      "time": 37.375,
      "duration": 0.125,
      "velocity": 0.39,
      "hand": "right"
    },
    {
      "midi": 69,
      "time": 37.375,
      "duration": 0.125,
      "velocity": 0.63,
      "hand": "right"
    },
    {
      "midi": 47,
      "time": 37.5,
      "duration": 0.25,
      "velocity": 0.39,
      "hand": "left"
    },
    {
      "midi": 59,
      "time": 37.5,
      "duration": 0.25,
      "velocity": 0.63,
      "hand": "left"
    },
    {
      "midi": 71,
      "time": 37.5,
      "duration": 0.25,
      "velocity": 0.63,
      "hand": "right"
    },
    {
      "midi": 45,
      "time": 37.75,
      "duration": 0.25,
      "velocity": 0.39,
      "hand": "left"
    },
    {
      "midi": 57,
      "time": 37.75,
      "duration": 0.25,
      "velocity": 0.63,
      "hand": "left"
    },
    {
      "midi": 64,
      "time": 37.75,
      "duration": 0.125,
      "velocity": 0.39,
      "hand": "right"
    },
    {
      "midi": 69,
      "time": 37.75,
      "duration": 0.25,
      "velocity": 0.63,
      "hand": "right"
    },
    {
      "midi": 64,
      "time": 37.875,
      "duration": 0.125,
      "velocity": 0.39,
      "hand": "right"
    },
    {
      "midi": 49,
      "time": 38,
      "duration": 0.25,
      "velocity": 0.39,
      "hand": "left"
    },
    {
      "midi": 61,
      "time": 38,
      "duration": 0.25,
      "velocity": 0.63,
      "hand": "right"
    },
    {
      "midi": 69,
      "time": 38,
      "duration": 0.5,
      "velocity": 0.63,
      "hand": "right"
    },
    {
      "midi": 45,
      "time": 38.25,
      "duration": 0.25,
      "velocity": 0.39,
      "hand": "left"
    },
    {
      "midi": 57,
      "time": 38.25,
      "duration": 0.25,
      "velocity": 0.63,
      "hand": "left"
    },
    {
      "midi": 64,
      "time": 38.25,
      "duration": 0.125,
      "velocity": 0.39,
      "hand": "right"
    },
    {
      "midi": 64,
      "time": 38.375,
      "duration": 0.125,
      "velocity": 0.39,
      "hand": "right"
    },
    {
      "midi": 47,
      "time": 38.5,
      "duration": 0.25,
      "velocity": 0.39,
      "hand": "left"
    },
    {
      "midi": 59,
      "time": 38.5,
      "duration": 0.25,
      "velocity": 0.63,
      "hand": "left"
    },
    {
      "midi": 69,
      "time": 38.5,
      "duration": 0.5,
      "velocity": 0.63,
      "hand": "right"
    },
    {
      "midi": 49,
      "time": 38.75,
      "duration": 0.25,
      "velocity": 0.39,
      "hand": "left"
    },
    {
      "midi": 61,
      "time": 38.75,
      "duration": 0.25,
      "velocity": 0.63,
      "hand": "right"
    },
    {
      "midi": 64,
      "time": 38.75,
      "duration": 0.125,
      "velocity": 0.39,
      "hand": "right"
    },
    {
      "midi": 64,
      "time": 38.875,
      "duration": 0.125,
      "velocity": 0.39,
      "hand": "right"
    },
    {
      "midi": 50,
      "time": 39,
      "duration": 0.25,
      "velocity": 0.39,
      "hand": "left"
    },
    {
      "midi": 62,
      "time": 39,
      "duration": 0.5,
      "velocity": 0.63,
      "hand": "right"
    },
    {
      "midi": 50,
      "time": 39.25,
      "duration": 0.125,
      "velocity": 0.39,
      "hand": "left"
    },
    {
      "midi": 66,
      "time": 39.25,
      "duration": 0.25,
      "velocity": 0.39,
      "hand": "right"
    },
    {
      "midi": 69,
      "time": 39.25,
      "duration": 0.25,
      "velocity": 0.63,
      "hand": "right"
    },
    {
      "midi": 50,
      "time": 39.375,
      "duration": 0.125,
      "velocity": 0.39,
      "hand": "left"
    },
    {
      "midi": 67,
      "time": 39.5,
      "duration": 0.25,
      "velocity": 0.39,
      "hand": "right"
    },
    {
      "midi": 71,
      "time": 39.5,
      "duration": 0.25,
      "velocity": 0.63,
      "hand": "right"
    },
    {
      "midi": 57,
      "time": 39.75,
      "duration": 0.25,
      "velocity": 0.63,
      "hand": "left"
    },
    {
      "midi": 66,
      "time": 39.75,
      "duration": 0.25,
      "velocity": 0.39,
      "hand": "right"
    },
    {
      "midi": 73,
      "time": 39.75,
      "duration": 0.25,
      "velocity": 0.63,
      "hand": "right"
    },
    {
      "midi": 50,
      "time": 40,
      "duration": 0.125,
      "velocity": 0.39,
      "hand": "left"
    },
    {
      "midi": 62,
      "time": 40,
      "duration": 0.25,
      "velocity": 0.39,
      "hand": "right"
    },
    {
      "midi": 62,
      "time": 40,
      "duration": 0.125,
      "velocity": 0.63,
      "hand": "right"
    },
    {
      "midi": 74,
      "time": 40,
      "duration": 1,
      "velocity": 0.63,
      "hand": "right"
    },
    {
      "midi": 50,
      "time": 40.125,
      "duration": 0.25,
      "velocity": 0.39,
      "hand": "left"
    },
    {
      "midi": 62,
      "time": 40.125,
      "duration": 0.25,
      "velocity": 0.63,
      "hand": "right"
    },
    {
      "midi": 62,
      "time": 40.25,
      "duration": 0.125,
      "velocity": 0.39,
      "hand": "right"
    },
    {
      "midi": 50,
      "time": 40.375,
      "duration": 0.125,
      "velocity": 0.39,
      "hand": "left"
    },
    {
      "midi": 57,
      "time": 40.375,
      "duration": 0.125,
      "velocity": 0.63,
      "hand": "left"
    },
    {
      "midi": 62,
      "time": 40.375,
      "duration": 0.125,
      "velocity": 0.39,
      "hand": "right"
    },
    {
      "midi": 47,
      "time": 40.5,
      "duration": 0.25,
      "velocity": 0.39,
      "hand": "left"
    },
    {
      "midi": 59,
      "time": 40.5,
      "duration": 0.25,
      "velocity": 0.63,
      "hand": "left"
    },
    {
      "midi": 45,
      "time": 40.75,
      "duration": 0.25,
      "velocity": 0.39,
      "hand": "left"
    },
    {
      "midi": 57,
      "time": 40.75,
      "duration": 0.25,
      "velocity": 0.63,
      "hand": "left"
    },
    {
      "midi": 62,
      "time": 40.75,
      "duration": 0.125,
      "velocity": 0.39,
      "hand": "right"
    },
    {
      "midi": 62,
      "time": 40.875,
      "duration": 0.125,
      "velocity": 0.39,
      "hand": "right"
    },
    {
      "midi": 45,
      "time": 41,
      "duration": 0.25,
      "velocity": 0.39,
      "hand": "left"
    },
    {
      "midi": 54,
      "time": 41,
      "duration": 0.5,
      "velocity": 0.63,
      "hand": "left"
    },
    {
      "midi": 45,
      "time": 41.25,
      "duration": 0.125,
      "velocity": 0.39,
      "hand": "left"
    },
    {
      "midi": 66,
      "time": 41.25,
      "duration": 0.25,
      "velocity": 0.39,
      "hand": "right"
    },
    {
      "midi": 69,
      "time": 41.25,
      "duration": 0.25,
      "velocity": 0.63,
      "hand": "right"
    },
    {
      "midi": 45,
      "time": 41.375,
      "duration": 0.125,
      "velocity": 0.39,
      "hand": "left"
    },
    {
      "midi": 68,
      "time": 41.5,
      "duration": 0.25,
      "velocity": 0.39,
      "hand": "right"
    },
    {
      "midi": 71,
      "time": 41.5,
      "duration": 0.25,
      "velocity": 0.63,
      "hand": "right"
    },
    {
      "midi": 45,
      "time": 41.75,
      "duration": 0.125,
      "velocity": 0.39,
      "hand": "left"
    },
    {
      "midi": 57,
      "time": 41.75,
      "duration": 0.25,
      "velocity": 0.63,
      "hand": "left"
    },
    {
      "midi": 66,
      "time": 41.75,
      "duration": 0.25,
      "velocity": 0.39,
      "hand": "right"
    },
    {
      "midi": 69,
      "time": 41.75,
      "duration": 0.25,
      "velocity": 0.63,
      "hand": "right"
    },
    {
      "midi": 45,
      "time": 41.875,
      "duration": 0.125,
      "velocity": 0.39,
      "hand": "left"
    },
    {
      "midi": 62,
      "time": 42,
      "duration": 0.125,
      "velocity": 0.63,
      "hand": "right"
    },
    {
      "midi": 66,
      "time": 42,
      "duration": 0.5,
      "velocity": 0.39,
      "hand": "right"
    },
    {
      "midi": 69,
      "time": 42,
      "duration": 0.5,
      "velocity": 0.63,
      "hand": "right"
    },
    {
      "midi": 62,
      "time": 42.125,
      "duration": 0.25,
      "velocity": 0.63,
      "hand": "right"
    },
    {
      "midi": 45,
      "time": 42.25,
      "duration": 0.125,
      "velocity": 0.39,
      "hand": "left"
    },
    {
      "midi": 45,
      "time": 42.375,
      "duration": 0.125,
      "velocity": 0.39,
      "hand": "left"
    },
    {
      "midi": 57,
      "time": 42.375,
      "duration": 0.125,
      "velocity": 0.63,
      "hand": "left"
    },
    {
      "midi": 59,
      "time": 42.5,
      "duration": 0.25,
      "velocity": 0.63,
      "hand": "left"
    },
    {
      "midi": 66,
      "time": 42.5,
      "duration": 0.5,
      "velocity": 0.39,
      "hand": "right"
    },
    {
      "midi": 69,
      "time": 42.5,
      "duration": 0.5,
      "velocity": 0.63,
      "hand": "right"
    },
    {
      "midi": 45,
      "time": 42.75,
      "duration": 0.125,
      "velocity": 0.39,
      "hand": "left"
    },
    {
      "midi": 57,
      "time": 42.75,
      "duration": 0.25,
      "velocity": 0.63,
      "hand": "left"
    },
    {
      "midi": 45,
      "time": 42.875,
      "duration": 0.125,
      "velocity": 0.39,
      "hand": "left"
    },
    {
      "midi": 55,
      "time": 43,
      "duration": 0.5,
      "velocity": 0.63,
      "hand": "left"
    },
    {
      "midi": 45,
      "time": 43.25,
      "duration": 0.25,
      "velocity": 0.39,
      "hand": "left"
    },
    {
      "midi": 64,
      "time": 43.25,
      "duration": 0.125,
      "velocity": 0.39,
      "hand": "right"
    },
    {
      "midi": 69,
      "time": 43.25,
      "duration": 0.25,
      "velocity": 0.63,
      "hand": "right"
    },
    {
      "midi": 64,
      "time": 43.375,
      "duration": 0.125,
      "velocity": 0.39,
      "hand": "right"
    },
    {
      "midi": 47,
      "time": 43.5,
      "duration": 0.25,
      "velocity": 0.39,
      "hand": "left"
    },
    {
      "midi": 71,
      "time": 43.5,
      "duration": 0.25,
      "velocity": 0.63,
      "hand": "right"
    },
    {
      "midi": 45,
      "time": 43.75,
      "duration": 0.25,
      "velocity": 0.39,
      "hand": "left"
    },
    {
      "midi": 57,
      "time": 43.75,
      "duration": 0.125,
      "velocity": 0.63,
      "hand": "left"
    },
    {
      "midi": 64,
      "time": 43.75,
      "duration": 0.125,
      "velocity": 0.39,
      "hand": "right"
    },
    {
      "midi": 69,
      "time": 43.75,
      "duration": 0.25,
      "velocity": 0.63,
      "hand": "right"
    },
    {
      "midi": 57,
      "time": 43.875,
      "duration": 0.125,
      "velocity": 0.63,
      "hand": "left"
    },
    {
      "midi": 64,
      "time": 43.875,
      "duration": 0.125,
      "velocity": 0.39,
      "hand": "right"
    },
    {
      "midi": 45,
      "time": 44,
      "duration": 0.5,
      "velocity": 0.39,
      "hand": "left"
    },
    {
      "midi": 61,
      "time": 44,
      "duration": 0.125,
      "velocity": 0.63,
      "hand": "right"
    },
    {
      "midi": 69,
      "time": 44,
      "duration": 0.5,
      "velocity": 0.63,
      "hand": "right"
    },
    {
      "midi": 61,
      "time": 44.125,
      "duration": 0.25,
      "velocity": 0.63,
      "hand": "right"
    },
    {
      "midi": 64,
      "time": 44.25,
      "duration": 0.125,
      "velocity": 0.39,
      "hand": "right"
    },
    {
      "midi": 57,
      "time": 44.375,
      "duration": 0.125,
      "velocity": 0.63,
      "hand": "left"
    },
    {
      "midi": 64,
      "time": 44.375,
      "duration": 0.125,
      "velocity": 0.39,
      "hand": "right"
    },
    {
      "midi": 45,
      "time": 44.5,
      "duration": 0.5,
      "velocity": 0.39,
      "hand": "left"
    },
    {
      "midi": 59,
      "time": 44.5,
      "duration": 0.25,
      "velocity": 0.63,
      "hand": "left"
    },
    {
      "midi": 69,
      "time": 44.5,
      "duration": 0.5,
      "velocity": 0.63,
      "hand": "right"
    },
    {
      "midi": 57,
      "time": 44.75,
      "duration": 0.25,
      "velocity": 0.63,
      "hand": "left"
    },
    {
      "midi": 64,
      "time": 44.75,
      "duration": 0.125,
      "velocity": 0.39,
      "hand": "right"
    },
    {
      "midi": 64,
      "time": 44.875,
      "duration": 0.125,
      "velocity": 0.39,
      "hand": "right"
    },
    {
      "midi": 61,
      "time": 45,
      "duration": 0.125,
      "velocity": 0.63,
      "hand": "right"
    },
    {
      "midi": 61,
      "time": 45.125,
      "duration": 0.25,
      "velocity": 0.63,
      "hand": "right"
    },
    {
      "midi": 64,
      "time": 45.25,
      "duration": 0.125,
      "velocity": 0.39,
      "hand": "right"
    },
    {
      "midi": 69,
      "time": 45.25,
      "duration": 0.25,
      "velocity": 0.63,
      "hand": "right"
    },
    {
      "midi": 45,
      "time": 45.375,
      "duration": 0.125,
      "velocity": 0.39,
      "hand": "left"
    },
    {
      "midi": 57,
      "time": 45.375,
      "duration": 0.125,
      "velocity": 0.63,
      "hand": "left"
    },
    {
      "midi": 64,
      "time": 45.375,
      "duration": 0.125,
      "velocity": 0.39,
      "hand": "right"
    },
    {
      "midi": 47,
      "time": 45.5,
      "duration": 0.25,
      "velocity": 0.39,
      "hand": "left"
    },
    {
      "midi": 59,
      "time": 45.5,
      "duration": 0.25,
      "velocity": 0.63,
      "hand": "left"
    },
    {
      "midi": 71,
      "time": 45.5,
      "duration": 0.25,
      "velocity": 0.63,
      "hand": "right"
    },
    {
      "midi": 45,
      "time": 45.75,
      "duration": 0.25,
      "velocity": 0.39,
      "hand": "left"
    },
    {
      "midi": 57,
      "time": 45.75,
      "duration": 0.25,
      "velocity": 0.63,
      "hand": "left"
    },
    {
      "midi": 64,
      "time": 45.75,
      "duration": 0.125,
      "velocity": 0.39,
      "hand": "right"
    },
    {
      "midi": 69,
      "time": 45.75,
      "duration": 0.25,
      "velocity": 0.63,
      "hand": "right"
    },
    {
      "midi": 64,
      "time": 45.875,
      "duration": 0.125,
      "velocity": 0.39,
      "hand": "right"
    },
    {
      "midi": 49,
      "time": 46,
      "duration": 0.25,
      "velocity": 0.39,
      "hand": "left"
    },
    {
      "midi": 61,
      "time": 46,
      "duration": 0.25,
      "velocity": 0.63,
      "hand": "right"
    },
    {
      "midi": 69,
      "time": 46,
      "duration": 0.125,
      "velocity": 0.63,
      "hand": "right"
    },
    {
      "midi": 69,
      "time": 46.125,
      "duration": 0.25,
      "velocity": 0.63,
      "hand": "right"
    },
    {
      "midi": 45,
      "time": 46.25,
      "duration": 0.25,
      "velocity": 0.39,
      "hand": "left"
    },
    {
      "midi": 57,
      "time": 46.25,
      "duration": 0.25,
      "velocity": 0.63,
      "hand": "left"
    },
    {
      "midi": 64,
      "time": 46.375,
      "duration": 0.125,
      "velocity": 0.39,
      "hand": "right"
    },
    {
      "midi": 69,
      "time": 46.375,
      "duration": 0.125,
      "velocity": 0.63,
      "hand": "right"
    },
    {
      "midi": 47,
      "time": 46.5,
      "duration": 0.25,
      "velocity": 0.39,
      "hand": "left"
    },
    {
      "midi": 59,
      "time": 46.5,
      "duration": 0.25,
      "velocity": 0.63,
      "hand": "left"
    },
    {
      "midi": 64,
      "time": 46.5,
      "duration": 0.25,
      "velocity": 0.39,
      "hand": "right"
    },
    {
      "midi": 71,
      "time": 46.5,
      "duration": 0.25,
      "velocity": 0.63,
      "hand": "right"
    },
    {
      "midi": 49,
      "time": 46.75,
      "duration": 0.25,
      "velocity": 0.39,
      "hand": "left"
    },
    {
      "midi": 61,
      "time": 46.75,
      "duration": 0.25,
      "velocity": 0.63,
      "hand": "right"
    },
    {
      "midi": 64,
      "time": 46.75,
      "duration": 0.25,
      "velocity": 0.39,
      "hand": "right"
    },
    {
      "midi": 73,
      "time": 46.75,
      "duration": 0.25,
      "velocity": 0.63,
      "hand": "right"
    },
    {
      "midi": 50,
      "time": 47,
      "duration": 0.25,
      "velocity": 0.39,
      "hand": "left"
    },
    {
      "midi": 62,
      "time": 47,
      "duration": 0.5,
      "velocity": 0.39,
      "hand": "right"
    },
    {
      "midi": 62,
      "time": 47,
      "duration": 0.25,
      "velocity": 0.63,
      "hand": "right"
    },
    {
      "midi": 74,
      "time": 47,
      "duration": 0.5,
      "velocity": 0.63,
      "hand": "right"
    },
    {
      "midi": 50,
      "time": 47.25,
      "duration": 0.125,
      "velocity": 0.39,
      "hand": "left"
    },
    {
      "midi": 62,
      "time": 47.25,
      "duration": 0.125,
      "velocity": 0.63,
      "hand": "right"
    },
    {
      "midi": 50,
      "time": 47.375,
      "duration": 0.125,
      "velocity": 0.39,
      "hand": "left"
    },
    {
      "midi": 62,
      "time": 47.375,
      "duration": 0.125,
      "velocity": 0.63,
      "hand": "right"
    },
    {
      "midi": 62,
      "time": 47.5,
      "duration": 0.5,
      "velocity": 0.39,
      "hand": "right"
    },
    {
      "midi": 74,
      "time": 47.5,
      "duration": 0.5,
      "velocity": 0.63,
      "hand": "right"
    },
    {
      "midi": 50,
      "time": 47.75,
      "duration": 0.125,
      "velocity": 0.39,
      "hand": "left"
    },
    {
      "midi": 62,
      "time": 47.75,
      "duration": 0.125,
      "velocity": 0.63,
      "hand": "right"
    },
    {
      "midi": 50,
      "time": 47.875,
      "duration": 0.125,
      "velocity": 0.39,
      "hand": "left"
    },
    {
      "midi": 62,
      "time": 47.875,
      "duration": 0.125,
      "velocity": 0.63,
      "hand": "right"
    },
    {
      "midi": 50,
      "time": 48.25,
      "duration": 0.125,
      "velocity": 0.63,
      "hand": "left"
    },
    {
      "midi": 62,
      "time": 48.25,
      "duration": 0.125,
      "velocity": 0.63,
      "hand": "right"
    },
    {
      "midi": 74,
      "time": 48.25,
      "duration": 0.125,
      "velocity": 0.63,
      "hand": "right"
    },
    {
      "midi": 50,
      "time": 48.375,
      "duration": 0.125,
      "velocity": 0.63,
      "hand": "left"
    },
    {
      "midi": 62,
      "time": 48.375,
      "duration": 0.125,
      "velocity": 0.63,
      "hand": "right"
    },
    {
      "midi": 74,
      "time": 48.375,
      "duration": 0.125,
      "velocity": 0.63,
      "hand": "right"
    },
    {
      "midi": 50,
      "time": 48.75,
      "duration": 0.125,
      "velocity": 0.63,
      "hand": "left"
    },
    {
      "midi": 62,
      "time": 48.75,
      "duration": 0.125,
      "velocity": 0.63,
      "hand": "right"
    },
    {
      "midi": 74,
      "time": 48.75,
      "duration": 0.125,
      "velocity": 0.63,
      "hand": "right"
    },
    {
      "midi": 50,
      "time": 48.875,
      "duration": 0.125,
      "velocity": 0.63,
      "hand": "left"
    },
    {
      "midi": 62,
      "time": 48.875,
      "duration": 0.125,
      "velocity": 0.63,
      "hand": "right"
    },
    {
      "midi": 74,
      "time": 48.875,
      "duration": 0.125,
      "velocity": 0.63,
      "hand": "right"
    },
    {
      "midi": 50,
      "time": 49.25,
      "duration": 0.125,
      "velocity": 0.63,
      "hand": "left"
    },
    {
      "midi": 62,
      "time": 49.25,
      "duration": 0.125,
      "velocity": 0.63,
      "hand": "right"
    },
    {
      "midi": 50,
      "time": 49.375,
      "duration": 0.125,
      "velocity": 0.63,
      "hand": "left"
    },
    {
      "midi": 62,
      "time": 49.375,
      "duration": 0.125,
      "velocity": 0.63,
      "hand": "right"
    },
    {
      "midi": 50,
      "time": 49.75,
      "duration": 0.125,
      "velocity": 0.63,
      "hand": "left"
    },
    {
      "midi": 62,
      "time": 49.75,
      "duration": 0.125,
      "velocity": 0.63,
      "hand": "right"
    },
    {
      "midi": 50,
      "time": 49.875,
      "duration": 0.125,
      "velocity": 0.63,
      "hand": "left"
    },
    {
      "midi": 62,
      "time": 49.875,
      "duration": 0.125,
      "velocity": 0.63,
      "hand": "right"
    },
    {
      "midi": 50,
      "time": 50.25,
      "duration": 0.125,
      "velocity": 0.63,
      "hand": "left"
    },
    {
      "midi": 62,
      "time": 50.25,
      "duration": 0.125,
      "velocity": 0.63,
      "hand": "right"
    },
    {
      "midi": 50,
      "time": 50.375,
      "duration": 0.125,
      "velocity": 0.63,
      "hand": "left"
    },
    {
      "midi": 62,
      "time": 50.375,
      "duration": 0.125,
      "velocity": 0.63,
      "hand": "right"
    },
    {
      "midi": 50,
      "time": 50.75,
      "duration": 0.125,
      "velocity": 0.63,
      "hand": "left"
    },
    {
      "midi": 62,
      "time": 50.75,
      "duration": 0.125,
      "velocity": 0.63,
      "hand": "right"
    },
    {
      "midi": 50,
      "time": 50.875,
      "duration": 0.125,
      "velocity": 0.63,
      "hand": "left"
    },
    {
      "midi": 62,
      "time": 50.875,
      "duration": 0.125,
      "velocity": 0.63,
      "hand": "right"
    },
    {
      "midi": 50,
      "time": 51.25,
      "duration": 0.125,
      "velocity": 0.63,
      "hand": "left"
    },
    {
      "midi": 50,
      "time": 51.375,
      "duration": 0.125,
      "velocity": 0.63,
      "hand": "left"
    },
    {
      "midi": 50,
      "time": 51.75,
      "duration": 0.125,
      "velocity": 0.63,
      "hand": "left"
    },
    {
      "midi": 50,
      "time": 51.875,
      "duration": 0.125,
      "velocity": 0.63,
      "hand": "left"
    },
    {
      "midi": 50,
      "time": 52.25,
      "duration": 0.125,
      "velocity": 0.63,
      "hand": "left"
    },
    {
      "midi": 50,
      "time": 52.375,
      "duration": 0.125,
      "velocity": 0.63,
      "hand": "left"
    },
    {
      "midi": 50,
      "time": 52.75,
      "duration": 0.125,
      "velocity": 0.63,
      "hand": "left"
    },
    {
      "midi": 50,
      "time": 52.875,
      "duration": 0.125,
      "velocity": 0.63,
      "hand": "left"
    },
    {
      "midi": 50,
      "time": 53.25,
      "duration": 0.125,
      "velocity": 0.63,
      "hand": "left"
    },
    {
      "midi": 50,
      "time": 53.375,
      "duration": 0.125,
      "velocity": 0.63,
      "hand": "left"
    },
    {
      "midi": 50,
      "time": 53.75,
      "duration": 0.125,
      "velocity": 0.63,
      "hand": "left"
    },
    {
      "midi": 50,
      "time": 53.875,
      "duration": 0.125,
      "velocity": 0.63,
      "hand": "left"
    }
  ]
}
