{
  "id": "o-sapo-nao-lava-o-pe",
  "title": "O Sapo não Lava o Pé",
  "artist": "Folclore Brasileiro",
  "difficulty": "Difícil",
  "bpm": 120,
  "duration": 54,
  "category": "Infantis",
  "isPremium": false,
  "coverUrl": "/images/covers/placeholder.png",
  "notes": [
    {
      "midi": 69,
      "time": 0,
      "duration": 0.25,
      "velocity": 0.63,
      "hand": "right"
    },
    {
      "midi": 74,
      "time": 0.25,
      "duration": 0.11,
      "velocity": 0.63,
      "hand": "right"
    },
    {
      "midi": 74,
      "time": 0.375,
      "duration": 0.25,
      "velocity": 0.63,
      "hand": "right"
    },
    {
      "midi": 54,
      "time": 0.5,
      "duration": 0.11,
      "velocity": 0.63,
      "hand": "left"
    },
    {
      "midi": 57,
      "time": 0.5,
      "duration": 0.11,
      "velocity": 0.63,
      "hand": "left"
    },
    {
      "midi": 62,
      "time": 0.5,
      "duration": 0.11,
      "velocity": 0.63,
      "hand": "right"
    },
    {
      "midi": 54,
      "time": 0.625,
      "duration": 0.125,
      "velocity": 0.63,
      "hand": "left"
    },
    {
      "midi": 57,
      "time": 0.625,
      "duration": 0.125,
      "velocity": 0.63,
      "hand": "left"
    },
    {
      "midi": 62,
      "time": 0.625,
      "duration": 0.125,
      "velocity": 0.63,
      "hand": "right"
    },
    {
      "midi": 69,
      "time": 0.625,
      "duration": 0.125,
      "velocity": 0.63,
      "hand": "right"
    },
    {
      "midi": 71,
      "time": 0.75,
      "duration": 0.25,
      "velocity": 0.63,
      "hand": "right"
    },
    {
      "midi": 54,
      "time": 1,
      "duration": 0.11,
      "velocity": 0.63,
      "hand": "left"
    },
    {
      "midi": 57,
      "time": 1,
      "duration": 0.11,
      "velocity": 0.63,
      "hand": "left"
    },
    {
      "midi": 62,
      "time": 1,
      "duration": 0.11,
      "velocity": 0.63,
      "hand": "right"
    },
    {
      "midi": 69,
      "time": 1,
      "duration": 0.25,
      "velocity": 0.63,
      "hand": "right"
    },
    {
      "midi": 54,
      "time": 1.125,
      "duration": 0.125,
      "velocity": 0.63,
      "hand": "left"
    },
    {
      "midi": 57,
      "time": 1.125,
      "duration": 0.125,
      "velocity": 0.63,
      "hand": "left"
    },
    {
      "midi": 62,
      "time": 1.125,
      "duration": 0.125,
      "velocity": 0.63,
      "hand": "right"
    },
    {
      "midi": 66,
      "time": 1.25,
      "duration": 0.5,
      "velocity": 0.63,
      "hand": "right"
    },
    {
      "midi": 54,
      "time": 1.5,
      "duration": 0.11,
      "velocity": 0.63,
      "hand": "left"
    },
    {
      "midi": 57,
      "time": 1.5,
      "duration": 0.11,
      "velocity": 0.63,
      "hand": "left"
    },
    {
      "midi": 62,
      "time": 1.5,
      "duration": 0.11,
      "velocity": 0.63,
      "hand": "right"
    },
    {
      "midi": 54,
      "time": 1.625,
      "duration": 0.125,
      "velocity": 0.63,
      "hand": "left"
    },
    {
      "midi": 57,
      "time": 1.625,
      "duration": 0.125,
      "velocity": 0.63,
      "hand": "left"
    },
    {
      "midi": 62,
      "time": 1.625,
      "duration": 0.125,
      "velocity": 0.63,
      "hand": "right"
    },
    {
      "midi": 54,
      "time": 2,
      "duration": 0.11,
      "velocity": 0.63,
      "hand": "left"
    },
    {
      "midi": 57,
      "time": 2,
      "duration": 0.11,
      "velocity": 0.63,
      "hand": "left"
    },
    {
      "midi": 62,
      "time": 2,
      "duration": 0.11,
      "velocity": 0.63,
      "hand": "right"
    },
    {
      "midi": 69,
      "time": 2,
      "duration": 0.25,
      "velocity": 0.63,
      "hand": "right"
    },
    {
      "midi": 54,
      "time": 2.125,
      "duration": 0.125,
      "velocity": 0.63,
      "hand": "left"
    },
    {
      "midi": 57,
      "time": 2.125,
      "duration": 0.125,
      "velocity": 0.63,
      "hand": "left"
    },
    {
      "midi": 62,
      "time": 2.125,
      "duration": 0.125,
      "velocity": 0.63,
      "hand": "right"
    },
    {
      "midi": 74,
      "time": 2.25,
      "duration": 0.11,
      "velocity": 0.63,
      "hand": "right"
    },
    {
      "midi": 74,
      "time": 2.375,
      "duration": 0.25,
      "velocity": 0.63,
      "hand": "right"
    },
    {
      "midi": 54,
      "time": 2.5,
      "duration": 0.11,
      "velocity": 0.63,
      "hand": "left"
    },
    {
      "midi": 57,
      "time": 2.5,
      "duration": 0.11,
      "velocity": 0.63,
      "hand": "left"
    },
    {
      "midi": 62,
      "time": 2.5,
      "duration": 0.11,
      "velocity": 0.63,
      "hand": "right"
    },
    {
      "midi": 54,
      "time": 2.625,
      "duration": 0.125,
      "velocity": 0.63,
      "hand": "left"
    },
    {
      "midi": 57,
      "time": 2.625,
      "duration": 0.125,
      "velocity": 0.63,
      "hand": "left"
    },
    {
      "midi": 62,
      "time": 2.625,
      "duration": 0.125,
      "velocity": 0.63,
      "hand": "right"
    },
    {
      "midi": 69,
      "time": 2.625,
      "duration": 0.125,
      "velocity": 0.63,
      "hand": "right"
    },
    {
      "midi": 71,
      "time": 2.75,
      "duration": 0.25,
      "velocity": 0.63,
      "hand": "right"
    },
    {
      "midi": 54,
      "time": 3,
      "duration": 0.11,
      "velocity": 0.63,
      "hand": "left"
    },
    {
      "midi": 57,
      "time": 3,
      "duration": 0.11,
      "velocity": 0.63,
      "hand": "left"
    },
    {
      "midi": 62,
      "time": 3,
      "duration": 0.11,
      "velocity": 0.63,
      "hand": "right"
    },
    {
      "midi": 69,
      "time": 3,
      "duration": 0.25,
      "velocity": 0.63,
      "hand": "right"
    },
    {
      "midi": 54,
      "time": 3.125,
      "duration": 0.125,
      "velocity": 0.63,
      "hand": "left"
    },
    {
      "midi": 57,
      "time": 3.125,
      "duration": 0.125,
      "velocity": 0.63,
      "hand": "left"
    },
    {
      "midi": 62,
      "time": 3.125,
      "duration": 0.125,
      "velocity": 0.63,
      "hand": "right"
    },
    {
      "midi": 73,
      "time": 3.25,
      "duration": 0.5,
      "velocity": 0.63,
      "hand": "right"
    },
    {
      "midi": 52,
      "time": 3.5,
      "duration": 0.11,
      "velocity": 0.63,
      "hand": "left"
    },
    {
      "midi": 57,
      "time": 3.5,
      "duration": 0.11,
      "velocity": 0.63,
      "hand": "left"
    },
    {
      "midi": 61,
      "time": 3.5,
      "duration": 0.11,
      "velocity": 0.63,
      "hand": "right"
    },
    {
      "midi": 52,
      "time": 3.625,
      "duration": 0.125,
      "velocity": 0.63,
      "hand": "left"
    },
    {
      "midi": 57,
      "time": 3.625,
      "duration": 0.125,
      "velocity": 0.63,
      "hand": "left"
    },
    {
      "midi": 61,
      "time": 3.625,
      "duration": 0.125,
      "velocity": 0.63,
      "hand": "right"
    },
    {
      "midi": 52,
      "time": 4,
      "duration": 0.11,
      "velocity": 0.63,
      "hand": "left"
    },
    {
      "midi": 57,
      "time": 4,
      "duration": 0.11,
      "velocity": 0.63,
      "hand": "left"
    },
    {
      "midi": 61,
      "time": 4,
      "duration": 0.11,
      "velocity": 0.63,
      "hand": "right"
    },
    {
      "midi": 69,
      "time": 4,
      "duration": 0.11,
      "velocity": 0.63,
      "hand": "right"
    },
    {
      "midi": 52,
      "time": 4.125,
      "duration": 0.125,
      "velocity": 0.63,
      "hand": "left"
    },
    {
      "midi": 57,
      "time": 4.125,
      "duration": 0.125,
      "velocity": 0.63,
      "hand": "left"
    },
    {
      "midi": 61,
      "time": 4.125,
      "duration": 0.125,
      "velocity": 0.63,
      "hand": "right"
    },
    {
      "midi": 69,
      "time": 4.125,
      "duration": 0.125,
      "velocity": 0.63,
      "hand": "right"
    },
    {
      "midi": 73,
      "time": 4.25,
      "duration": 0.11,
      "velocity": 0.63,
      "hand": "right"
    },
    {
      "midi": 73,
      "time": 4.375,
      "duration": 0.25,
      "velocity": 0.63,
      "hand": "right"
    },
    {
      "midi": 52,
      "time": 4.5,
      "duration": 0.11,
      "velocity": 0.63,
      "hand": "left"
    },
    {
      "midi": 57,
      "time": 4.5,
      "duration": 0.11,
      "velocity": 0.63,
      "hand": "left"
    },
    {
      "midi": 61,
      "time": 4.5,
      "duration": 0.11,
      "velocity": 0.63,
      "hand": "right"
    },
    {
      "midi": 52,
      "time": 4.625,
      "duration": 0.125,
      "velocity": 0.63,
      "hand": "left"
    },
    {
      "midi": 57,
      "time": 4.625,
      "duration": 0.125,
      "velocity": 0.63,
      "hand": "left"
    },
    {
      "midi": 61,
      "time": 4.625,
      "duration": 0.125,
      "velocity": 0.63,
      "hand": "right"
    },
    {
      "midi": 69,
      "time": 4.625,
      "duration": 0.125,
      "velocity": 0.63,
      "hand": "right"
    },
    {
      "midi": 71,
      "time": 4.75,
      "duration": 0.25,
      "velocity": 0.63,
      "hand": "right"
    },
    {
      "midi": 52,
      "time": 5,
      "duration": 0.11,
      "velocity": 0.63,
      "hand": "left"
    },
    {
      "midi": 57,
      "time": 5,
      "duration": 0.11,
      "velocity": 0.63,
      "hand": "left"
    },
    {
      "midi": 61,
      "time": 5,
      "duration": 0.11,
      "velocity": 0.63,
      "hand": "right"
    },
    {
      "midi": 69,
      "time": 5,
      "duration": 0.25,
      "velocity": 0.63,
      "hand": "right"
    },
    {
      "midi": 52,
      "time": 5.125,
      "duration": 0.125,
      "velocity": 0.63,
      "hand": "left"
    },
    {
      "midi": 57,
      "time": 5.125,
      "duration": 0.125,
      "velocity": 0.63,
      "hand": "left"
    },
    {
      "midi": 61,
      "time": 5.125,
      "duration": 0.125,
      "velocity": 0.63,
      "hand": "right"
    },
    {
      "midi": 73,
      "time": 5.25,
      "duration": 0.11,
      "velocity": 0.63,
      "hand": "right"
    },
    {
      "midi": 73,
      "time": 5.375,
      "duration": 0.25,
      "velocity": 0.63,
      "hand": "right"
    },
    {
      "midi": 52,
      "time": 5.5,
      "duration": 0.11,
      "velocity": 0.63,
      "hand": "left"
    },
    {
      "midi": 57,
      "time": 5.5,
      "duration": 0.11,
      "velocity": 0.63,
      "hand": "left"
    },
    {
      "midi": 61,
      "time": 5.5,
      "duration": 0.11,
      "velocity": 0.63,
      "hand": "right"
    },
    {
      "midi": 52,
      "time": 5.625,
      "duration": 0.125,
      "velocity": 0.63,
      "hand": "left"
    },
    {
      "midi": 57,
      "time": 5.625,
      "duration": 0.125,
      "velocity": 0.63,
      "hand": "left"
    },
    {
      "midi": 61,
      "time": 5.625,
      "duration": 0.125,
      "velocity": 0.63,
      "hand": "right"
    },
    {
      "midi": 69,
      "time": 5.625,
      "duration": 0.125,
      "velocity": 0.63,
      "hand": "right"
    },
    {
      "midi": 71,
      "time": 5.75,
      "duration": 0.25,
      "velocity": 0.63,
      "hand": "right"
    },
    {
      "midi": 52,
      "time": 6,
      "duration": 0.11,
      "velocity": 0.63,
      "hand": "left"
    },
    {
      "midi": 57,
      "time": 6,
      "duration": 0.11,
      "velocity": 0.63,
      "hand": "left"
    },
    {
      "midi": 61,
      "time": 6,
      "duration": 0.11,
      "velocity": 0.63,
      "hand": "right"
    },
    {
      "midi": 69,
      "time": 6,
      "duration": 0.25,
      "velocity": 0.63,
      "hand": "right"
    },
    {
      "midi": 52,
      "time": 6.125,
      "duration": 0.125,
      "velocity": 0.63,
      "hand": "left"
    },
    {
      "midi": 57,
      "time": 6.125,
      "duration": 0.125,
      "velocity": 0.63,
      "hand": "left"
    },
    {
      "midi": 61,
      "time": 6.125,
      "duration": 0.125,
      "velocity": 0.63,
      "hand": "right"
    },
    {
      "midi": 73,
      "time": 6.25,
      "duration": 0.25,
      "velocity": 0.63,
      "hand": "right"
    },
    {
      "midi": 52,
      "time": 6.5,
      "duration": 0.11,
      "velocity": 0.63,
      "hand": "left"
    },
    {
      "midi": 57,
      "time": 6.5,
      "duration": 0.11,
      "velocity": 0.63,
      "hand": "left"
    },
    {
      "midi": 61,
      "time": 6.5,
      "duration": 0.11,
      "velocity": 0.63,
      "hand": "right"
    },
    {
      "midi": 69,
      "time": 6.5,
      "duration": 0.25,
      "velocity": 0.63,
      "hand": "right"
    },
    {
      "midi": 52,
      "time": 6.625,
      "duration": 0.125,
      "velocity": 0.63,
      "hand": "left"
    },
    {
      "midi": 57,
      "time": 6.625,
      "duration": 0.125,
      "velocity": 0.63,
      "hand": "left"
    },
    {
      "midi": 61,
      "time": 6.625,
      "duration": 0.125,
      "velocity": 0.63,
      "hand": "right"
    },
    {
      "midi": 71,
      "time": 6.75,
      "duration": 0.25,
      "velocity": 0.63,
      "hand": "right"
    },
    {
      "midi": 52,
      "time": 7,
      "duration": 0.11,
      "velocity": 0.63,
      "hand": "left"
    },
    {
      "midi": 57,
      "time": 7,
      "duration": 0.11,
      "velocity": 0.63,
      "hand": "left"
    },
    {
      "midi": 61,
      "time": 7,
      "duration": 0.11,
      "velocity": 0.63,
      "hand": "right"
    },
    {
      "midi": 73,
      "time": 7,
      "duration": 0.25,
      "velocity": 0.63,
      "hand": "right"
    },
    {
      "midi": 52,
      "time": 7.125,
      "duration": 0.125,
      "velocity": 0.63,
      "hand": "left"
    },
    {
      "midi": 57,
      "time": 7.125,
      "duration": 0.11,
      "velocity": 0.63,
      "hand": "left"
    },
    {
      "midi": 61,
      "time": 7.125,
      "duration": 0.125,
      "velocity": 0.63,
      "hand": "right"
    },
    {
      "midi": 54,
      "time": 7.25,
      "duration": 0.25,
      "velocity": 0.63,
      "hand": "left"
    },
    {
      "midi": 57,
      "time": 7.25,
      "duration": 0.25,
      "velocity": 0.63,
      "hand": "left"
    },
    {
      "midi": 62,
      "time": 7.25,
      "duration": 0.25,
      "velocity": 0.63,
      "hand": "right"
    },
    {
      "midi": 74,
      "time": 7.25,
      "duration": 0.25,
      "velocity": 0.63,
      "hand": "right"
    },
    {
      "midi": 69,
      "time": 8,
      "duration": 0.25,
      "velocity": 0.63,
      "hand": "right"
    },
    {
      "midi": 74,
      "time": 8.25,
      "duration": 0.11,
      "velocity": 0.63,
      "hand": "right"
    },
    {
      "midi": 74,
      "time": 8.375,
      "duration": 0.25,
      "velocity": 0.63,
      "hand": "right"
    },
    {
      "midi": 54,
      "time": 8.5,
      "duration": 0.11,
      "velocity": 0.63,
      "hand": "left"
    },
    {
      "midi": 57,
      "time": 8.5,
      "duration": 0.11,
      "velocity": 0.63,
      "hand": "left"
    },
    {
      "midi": 62,
      "time": 8.5,
      "duration": 0.11,
      "velocity": 0.63,
      "hand": "right"
    },
    {
      "midi": 54,
      "time": 8.625,
      "duration": 0.125,
      "velocity": 0.63,
      "hand": "left"
    },
    {
      "midi": 57,
      "time": 8.625,
      "duration": 0.125,
      "velocity": 0.63,
      "hand": "left"
    },
    {
      "midi": 62,
      "time": 8.625,
      "duration": 0.125,
      "velocity": 0.63,
      "hand": "right"
    },
    {
      "midi": 69,
      "time": 8.625,
      "duration": 0.125,
      "velocity": 0.63,
      "hand": "right"
    },
    {
      "midi": 71,
      "time": 8.75,
      "duration": 0.25,
      "velocity": 0.63,
      "hand": "right"
    },
    {
      "midi": 54,
      "time": 9,
      "duration": 0.11,
      "velocity": 0.63,
      "hand": "left"
    },
    {
      "midi": 57,
      "time": 9,
      "duration": 0.11,
      "velocity": 0.63,
      "hand": "left"
    },
    {
      "midi": 62,
      "time": 9,
      "duration": 0.11,
      "velocity": 0.63,
      "hand": "right"
    },
    {
      "midi": 69,
      "time": 9,
      "duration": 0.25,
      "velocity": 0.63,
      "hand": "right"
    },
    {
      "midi": 54,
      "time": 9.125,
      "duration": 0.125,
      "velocity": 0.63,
      "hand": "left"
    },
    {
      "midi": 57,
      "time": 9.125,
      "duration": 0.125,
      "velocity": 0.63,
      "hand": "left"
    },
    {
      "midi": 62,
      "time": 9.125,
      "duration": 0.125,
      "velocity": 0.63,
      "hand": "right"
    },
    {
      "midi": 66,
      "time": 9.25,
      "duration": 0.5,
      "velocity": 0.63,
      "hand": "right"
    },
    {
      "midi": 54,
      "time": 9.5,
      "duration": 0.11,
      "velocity": 0.63,
      "hand": "left"
    },
    {
      "midi": 57,
      "time": 9.5,
      "duration": 0.11,
      "velocity": 0.63,
      "hand": "left"
    },
    {
      "midi": 62,
      "time": 9.5,
      "duration": 0.11,
      "velocity": 0.63,
      "hand": "right"
    },
    {
      "midi": 54,
      "time": 9.625,
      "duration": 0.125,
      "velocity": 0.63,
      "hand": "left"
    },
    {
      "midi": 57,
      "time": 9.625,
      "duration": 0.125,
      "velocity": 0.63,
      "hand": "left"
    },
    {
      "midi": 62,
      "time": 9.625,
      "duration": 0.125,
      "velocity": 0.63,
      "hand": "right"
    },
    {
      "midi": 54,
      "time": 10,
      "duration": 0.11,
      "velocity": 0.63,
      "hand": "left"
    },
    {
      "midi": 57,
      "time": 10,
      "duration": 0.11,
      "velocity": 0.63,
      "hand": "left"
    },
    {
      "midi": 62,
      "time": 10,
      "duration": 0.11,
      "velocity": 0.63,
      "hand": "right"
    },
    {
      "midi": 69,
      "time": 10,
      "duration": 0.25,
      "velocity": 0.63,
      "hand": "right"
    },
    {
      "midi": 54,
      "time": 10.125,
      "duration": 0.125,
      "velocity": 0.63,
      "hand": "left"
    },
    {
      "midi": 57,
      "time": 10.125,
      "duration": 0.125,
      "velocity": 0.63,
      "hand": "left"
    },
    {
      "midi": 62,
      "time": 10.125,
      "duration": 0.125,
      "velocity": 0.63,
      "hand": "right"
    },
    {
      "midi": 74,
      "time": 10.25,
      "duration": 0.11,
      "velocity": 0.63,
      "hand": "right"
    },
    {
      "midi": 74,
      "time": 10.375,
      "duration": 0.25,
      "velocity": 0.63,
      "hand": "right"
    },
    {
      "midi": 54,
      "time": 10.5,
      "duration": 0.11,
      "velocity": 0.63,
      "hand": "left"
    },
    {
      "midi": 57,
      "time": 10.5,
      "duration": 0.11,
      "velocity": 0.63,
      "hand": "left"
    },
    {
      "midi": 62,
      "time": 10.5,
      "duration": 0.11,
      "velocity": 0.63,
      "hand": "right"
    },
    {
      "midi": 54,
      "time": 10.625,
      "duration": 0.125,
      "velocity": 0.63,
      "hand": "left"
    },
    {
      "midi": 57,
      "time": 10.625,
      "duration": 0.125,
      "velocity": 0.63,
      "hand": "left"
    },
    {
      "midi": 62,
      "time": 10.625,
      "duration": 0.125,
      "velocity": 0.63,
      "hand": "right"
    },
    {
      "midi": 69,
      "time": 10.625,
      "duration": 0.125,
      "velocity": 0.63,
      "hand": "right"
    },
    {
      "midi": 71,
      "time": 10.75,
      "duration": 0.25,
      "velocity": 0.63,
      "hand": "right"
    },
    {
      "midi": 54,
      "time": 11,
      "duration": 0.11,
      "velocity": 0.63,
      "hand": "left"
    },
    {
      "midi": 57,
      "time": 11,
      "duration": 0.11,
      "velocity": 0.63,
      "hand": "left"
    },
    {
      "midi": 62,
      "time": 11,
      "duration": 0.11,
      "velocity": 0.63,
      "hand": "right"
    },
    {
      "midi": 69,
      "time": 11,
      "duration": 0.25,
      "velocity": 0.63,
      "hand": "right"
    },
    {
      "midi": 54,
      "time": 11.125,
      "duration": 0.125,
      "velocity": 0.63,
      "hand": "left"
    },
    {
      "midi": 57,
      "time": 11.125,
      "duration": 0.125,
      "velocity": 0.63,
      "hand": "left"
    },
    {
      "midi": 62,
      "time": 11.125,
      "duration": 0.125,
      "velocity": 0.63,
      "hand": "right"
    },
    {
      "midi": 73,
      "time": 11.25,
      "duration": 0.5,
      "velocity": 0.63,
      "hand": "right"
    },
    {
      "midi": 52,
      "time": 11.5,
      "duration": 0.11,
      "velocity": 0.63,
      "hand": "left"
    },
    {
      "midi": 57,
      "time": 11.5,
      "duration": 0.11,
      "velocity": 0.63,
      "hand": "left"
    },
    {
      "midi": 61,
      "time": 11.5,
      "duration": 0.11,
      "velocity": 0.63,
      "hand": "right"
    },
    {
      "midi": 52,
      "time": 11.625,
      "duration": 0.125,
      "velocity": 0.63,
      "hand": "left"
    },
    {
      "midi": 57,
      "time": 11.625,
      "duration": 0.125,
      "velocity": 0.63,
      "hand": "left"
    },
    {
      "midi": 61,
      "time": 11.625,
      "duration": 0.125,
      "velocity": 0.63,
      "hand": "right"
    },
    {
      "midi": 52,
      "time": 12,
      "duration": 0.11,
      "velocity": 0.63,
      "hand": "left"
    },
    {
      "midi": 57,
      "time": 12,
      "duration": 0.11,
      "velocity": 0.63,
      "hand": "left"
    },
    {
      "midi": 61,
      "time": 12,
      "duration": 0.11,
      "velocity": 0.63,
      "hand": "right"
    },
    {
      "midi": 69,
      "time": 12,
      "duration": 0.11,
      "velocity": 0.63,
      "hand": "right"
    },
    {
      "midi": 52,
      "time": 12.125,
      "duration": 0.125,
      "velocity": 0.63,
      "hand": "left"
    },
    {
      "midi": 57,
      "time": 12.125,
      "duration": 0.125,
      "velocity": 0.63,
      "hand": "left"
    },
    {
      "midi": 61,
      "time": 12.125,
      "duration": 0.125,
      "velocity": 0.63,
      "hand": "right"
    },
    {
      "midi": 69,
      "time": 12.125,
      "duration": 0.125,
      "velocity": 0.63,
      "hand": "right"
    },
    {
      "midi": 73,
      "time": 12.25,
      "duration": 0.11,
      "velocity": 0.63,
      "hand": "right"
    },
    {
      "midi": 73,
      "time": 12.375,
      "duration": 0.25,
      "velocity": 0.63,
      "hand": "right"
    },
    {
      "midi": 52,
      "time": 12.5,
      "duration": 0.11,
      "velocity": 0.63,
      "hand": "left"
    },
    {
      "midi": 57,
      "time": 12.5,
      "duration": 0.11,
      "velocity": 0.63,
      "hand": "left"
    },
    {
      "midi": 61,
      "time": 12.5,
      "duration": 0.11,
      "velocity": 0.63,
      "hand": "right"
    },
    {
      "midi": 52,
      "time": 12.625,
      "duration": 0.125,
      "velocity": 0.63,
      "hand": "left"
    },
    {
      "midi": 57,
      "time": 12.625,
      "duration": 0.125,
      "velocity": 0.63,
      "hand": "left"
    },
    {
      "midi": 61,
      "time": 12.625,
      "duration": 0.125,
      "velocity": 0.63,
      "hand": "right"
    },
    {
      "midi": 69,
      "time": 12.625,
      "duration": 0.125,
      "velocity": 0.63,
      "hand": "right"
    },
    {
      "midi": 71,
      "time": 12.75,
      "duration": 0.25,
      "velocity": 0.63,
      "hand": "right"
    },
    {
      "midi": 52,
      "time": 13,
      "duration": 0.11,
      "velocity": 0.63,
      "hand": "left"
    },
    {
      "midi": 57,
      "time": 13,
      "duration": 0.11,
      "velocity": 0.63,
      "hand": "left"
    },
    {
      "midi": 61,
      "time": 13,
      "duration": 0.11,
      "velocity": 0.63,
      "hand": "right"
    },
    {
      "midi": 69,
      "time": 13,
      "duration": 0.25,
      "velocity": 0.63,
      "hand": "right"
    },
    {
      "midi": 52,
      "time": 13.125,
      "duration": 0.125,
      "velocity": 0.63,
      "hand": "left"
    },
    {
      "midi": 57,
      "time": 13.125,
      "duration": 0.125,
      "velocity": 0.63,
      "hand": "left"
    },
    {
      "midi": 61,
      "time": 13.125,
      "duration": 0.125,
      "velocity": 0.63,
      "hand": "right"
    },
    {
      "midi": 73,
      "time": 13.25,
      "duration": 0.11,
      "velocity": 0.63,
      "hand": "right"
    },
    {
      "midi": 73,
      "time": 13.375,
      "duration": 0.25,
      "velocity": 0.63,
      "hand": "right"
    },
    {
      "midi": 52,
      "time": 13.5,
      "duration": 0.11,
      "velocity": 0.63,
      "hand": "left"
    },
    {
      "midi": 57,
      "time": 13.5,
      "duration": 0.11,
      "velocity": 0.63,
      "hand": "left"
    },
    {
      "midi": 61,
      "time": 13.5,
      "duration": 0.11,
      "velocity": 0.63,
      "hand": "right"
    },
    {
      "midi": 52,
      "time": 13.625,
      "duration": 0.125,
      "velocity": 0.63,
      "hand": "left"
    },
    {
      "midi": 57,
      "time": 13.625,
      "duration": 0.125,
      "velocity": 0.63,
      "hand": "left"
    },
    {
      "midi": 61,
      "time": 13.625,
      "duration": 0.125,
      "velocity": 0.63,
      "hand": "right"
    },
    {
      "midi": 69,
      "time": 13.625,
      "duration": 0.125,
      "velocity": 0.63,
      "hand": "right"
    },
    {
      "midi": 71,
      "time": 13.75,
      "duration": 0.25,
      "velocity": 0.63,
      "hand": "right"
    },
    {
      "midi": 52,
      "time": 14,
      "duration": 0.11,
      "velocity": 0.63,
      "hand": "left"
    },
    {
      "midi": 57,
      "time": 14,
      "duration": 0.11,
      "velocity": 0.63,
      "hand": "left"
    },
    {
      "midi": 61,
      "time": 14,
      "duration": 0.11,
      "velocity": 0.63,
      "hand": "right"
    },
    {
      "midi": 69,
      "time": 14,
      "duration": 0.25,
      "velocity": 0.63,
      "hand": "right"
    },
    {
      "midi": 52,
      "time": 14.125,
      "duration": 0.125,
      "velocity": 0.63,
      "hand": "left"
    },
    {
      "midi": 57,
      "time": 14.125,
      "duration": 0.125,
      "velocity": 0.63,
      "hand": "left"
    },
    {
      "midi": 61,
      "time": 14.125,
      "duration": 0.125,
      "velocity": 0.63,
      "hand": "right"
    },
    {
      "midi": 73,
      "time": 14.25,
      "duration": 0.25,
      "velocity": 0.63,
      "hand": "right"
    },
    {
      "midi": 52,
      "time": 14.5,
      "duration": 0.11,
      "velocity": 0.63,
      "hand": "left"
    },
    {
      "midi": 57,
      "time": 14.5,
      "duration": 0.11,
      "velocity": 0.63,
      "hand": "left"
    },
    {
      "midi": 61,
      "time": 14.5,
      "duration": 0.11,
      "velocity": 0.63,
      "hand": "right"
    },
    {
      "midi": 69,
      "time": 14.5,
      "duration": 0.25,
      "velocity": 0.63,
      "hand": "right"
    },
    {
      "midi": 52,
      "time": 14.625,
      "duration": 0.125,
      "velocity": 0.63,
      "hand": "left"
    },
    {
      "midi": 57,
      "time": 14.625,
      "duration": 0.125,
      "velocity": 0.63,
      "hand": "left"
    },
    {
      "midi": 61,
      "time": 14.625,
      "duration": 0.125,
      "velocity": 0.63,
      "hand": "right"
    },
    {
      "midi": 71,
      "time": 14.75,
      "duration": 0.25,
      "velocity": 0.63,
      "hand": "right"
    },
    {
      "midi": 52,
      "time": 15,
      "duration": 0.11,
      "velocity": 0.63,
      "hand": "left"
    },
    {
      "midi": 57,
      "time": 15,
      "duration": 0.11,
      "velocity": 0.63,
      "hand": "left"
    },
    {
      "midi": 61,
      "time": 15,
      "duration": 0.11,
      "velocity": 0.63,
      "hand": "right"
    },
    {
      "midi": 73,
      "time": 15,
      "duration": 0.25,
      "velocity": 0.63,
      "hand": "right"
    },
    {
      "midi": 52,
      "time": 15.125,
      "duration": 0.125,
      "velocity": 0.63,
      "hand": "left"
    },
    {
      "midi": 57,
      "time": 15.125,
      "duration": 0.11,
      "velocity": 0.63,
      "hand": "left"
    },
    {
      "midi": 61,
      "time": 15.125,
      "duration": 0.125,
      "velocity": 0.63,
      "hand": "right"
    },
    {
      "midi": 54,
      "time": 15.25,
      "duration": 0.25,
      "velocity": 0.63,
      "hand": "left"
    },
    {
      "midi": 57,
      "time": 15.25,
      "duration": 0.235,
      "velocity": 0.63,
      "hand": "left"
    },
    {
      "midi": 62,
      "time": 15.25,
      "duration": 0.25,
      "velocity": 0.63,
      "hand": "right"
    },
    {
      "midi": 74,
      "time": 15.25,
      "duration": 0.25,
      "velocity": 0.63,
      "hand": "right"
    },
    {
      "midi": 57,
      "time": 15.5,
      "duration": 0.25,
      "velocity": 0.63,
      "hand": "left"
    },
    {
      "midi": 59,
      "time": 15.75,
      "duration": 0.25,
      "velocity": 0.63,
      "hand": "left"
    },
    {
      "midi": 57,
      "time": 16,
      "duration": 0.235,
      "velocity": 0.63,
      "hand": "left"
    },
    {
      "midi": 52,
      "time": 16.25,
      "duration": 0.36,
      "velocity": 0.63,
      "hand": "left"
    },
    {
      "midi": 57,
      "time": 16.25,
      "duration": 0.5,
      "velocity": 0.63,
      "hand": "left"
    },
    {
      "midi": 64,
      "time": 16.25,
      "duration": 0.5,
      "velocity": 0.63,
      "hand": "right"
    },
    {
      "midi": 69,
      "time": 16.5,
      "duration": 0.11,
      "velocity": 0.63,
      "hand": "right"
    },
    {
      "midi": 52,
      "time": 16.625,
      "duration": 0.375,
      "velocity": 0.63,
      "hand": "left"
    },
    {
      "midi": 69,
      "time": 16.625,
      "duration": 0.11,
      "velocity": 0.63,
      "hand": "right"
    },
    {
      "midi": 61,
      "time": 16.75,
      "duration": 0.5,
      "velocity": 0.63,
      "hand": "right"
    },
    {
      "midi": 69,
      "time": 16.75,
      "duration": 0.235,
      "velocity": 0.63,
      "hand": "right"
    },
    {
      "midi": 45,
      "time": 17,
      "duration": 0.25,
      "velocity": 0.63,
      "hand": "left"
    },
    {
      "midi": 69,
      "time": 17,
      "duration": 0.11,
      "velocity": 0.63,
      "hand": "right"
    },
    {
      "midi": 69,
      "time": 17.125,
      "duration": 0.125,
      "velocity": 0.63,
      "hand": "right"
    },
    {
      "midi": 52,
      "time": 17.25,
      "duration": 0.36,
      "velocity": 0.63,
      "hand": "left"
    },
    {
      "midi": 64,
      "time": 17.25,
      "duration": 0.5,
      "velocity": 0.63,
      "hand": "right"
    },
    {
      "midi": 57,
      "time": 17.375,
      "duration": 0.235,
      "velocity": 0.63,
      "hand": "left"
    },
    {
      "midi": 73,
      "time": 17.5,
      "duration": 0.11,
      "velocity": 0.63,
      "hand": "right"
    },
    {
      "midi": 52,
      "time": 17.625,
      "duration": 0.375,
      "velocity": 0.63,
      "hand": "left"
    },
    {
      "midi": 57,
      "time": 17.625,
      "duration": 0.125,
      "velocity": 0.63,
      "hand": "left"
    },
    {
      "midi": 73,
      "time": 17.625,
      "duration": 0.125,
      "velocity": 0.63,
      "hand": "right"
    },
    {
      "midi": 59,
      "time": 17.75,
      "duration": 0.25,
      "velocity": 0.63,
      "hand": "left"
    },
    {
      "midi": 69,
      "time": 17.75,
      "duration": 0.5,
      "velocity": 0.63,
      "hand": "right"
    },
    {
      "midi": 45,
      "time": 18,
      "duration": 0.25,
      "velocity": 0.63,
      "hand": "left"
    },
    {
      "midi": 57,
      "time": 18,
      "duration": 0.235,
      "velocity": 0.63,
      "hand": "left"
    },
    {
      "midi": 73,
      "time": 18,
      "duration": 0.11,
      "velocity": 0.63,
      "hand": "right"
    },
    {
      "midi": 73,
      "time": 18.125,
      "duration": 0.125,
      "velocity": 0.63,
      "hand": "right"
    },
    {
      "midi": 54,
      "time": 18.25,
      "duration": 0.36,
      "velocity": 0.63,
      "hand": "left"
    },
    {
      "midi": 57,
      "time": 18.25,
      "duration": 0.5,
      "velocity": 0.63,
      "hand": "left"
    },
    {
      "midi": 66,
      "time": 18.25,
      "duration": 0.5,
      "velocity": 0.63,
      "hand": "right"
    },
    {
      "midi": 74,
      "time": 18.5,
      "duration": 0.11,
      "velocity": 0.63,
      "hand": "right"
    },
    {
      "midi": 54,
      "time": 18.625,
      "duration": 0.375,
      "velocity": 0.63,
      "hand": "left"
    },
    {
      "midi": 74,
      "time": 18.625,
      "duration": 0.125,
      "velocity": 0.63,
      "hand": "right"
    },
    {
      "midi": 62,
      "time": 18.75,
      "duration": 0.5,
      "velocity": 0.63,
      "hand": "right"
    },
    {
      "midi": 69,
      "time": 18.75,
      "duration": 0.5,
      "velocity": 0.63,
      "hand": "right"
    },
    {
      "midi": 50,
      "time": 19,
      "duration": 0.25,
      "velocity": 0.63,
      "hand": "left"
    },
    {
      "midi": 74,
      "time": 19,
      "duration": 0.11,
      "velocity": 0.63,
      "hand": "right"
    },
    {
      "midi": 74,
      "time": 19.125,
      "duration": 0.125,
      "velocity": 0.63,
      "hand": "right"
    },
    {
      "midi": 54,
      "time": 19.25,
      "duration": 0.36,
      "velocity": 0.63,
      "hand": "left"
    },
    {
      "midi": 66,
      "time": 19.25,
      "duration": 0.5,
      "velocity": 0.63,
      "hand": "right"
    },
    {
      "midi": 57,
      "time": 19.375,
      "duration": 0.235,
      "velocity": 0.63,
      "hand": "left"
    },
    {
      "midi": 74,
      "time": 19.5,
      "duration": 0.11,
      "velocity": 0.63,
      "hand": "right"
    },
    {
      "midi": 54,
      "time": 19.625,
      "duration": 0.375,
      "velocity": 0.63,
      "hand": "left"
    },
    {
      "midi": 57,
      "time": 19.625,
      "duration": 0.125,
      "velocity": 0.63,
      "hand": "left"
    },
    {
      "midi": 74,
      "time": 19.625,
      "duration": 0.125,
      "velocity": 0.63,
      "hand": "right"
    },
    {
      "midi": 59,
      "time": 19.75,
      "duration": 0.25,
      "velocity": 0.63,
      "hand": "left"
    },
    {
      "midi": 69,
      "time": 19.75,
      "duration": 0.5,
      "velocity": 0.63,
      "hand": "right"
    },
    {
      "midi": 50,
      "time": 20,
      "duration": 0.25,
      "velocity": 0.63,
      "hand": "left"
    },
    {
      "midi": 57,
      "time": 20,
      "duration": 0.235,
      "velocity": 0.63,
      "hand": "left"
    },
    {
      "midi": 74,
      "time": 20,
      "duration": 0.11,
      "velocity": 0.63,
      "hand": "right"
    },
    {
      "midi": 74,
      "time": 20.125,
      "duration": 0.125,
      "velocity": 0.63,
      "hand": "right"
    },
    {
      "midi": 52,
      "time": 20.25,
      "duration": 0.36,
      "velocity": 0.63,
      "hand": "left"
    },
    {
      "midi": 57,
      "time": 20.25,
      "duration": 0.5,
      "velocity": 0.63,
      "hand": "left"
    },
    {
      "midi": 64,
      "time": 20.25,
      "duration": 0.5,
      "velocity": 0.63,
      "hand": "right"
    },
    {
      "midi": 69,
      "time": 20.5,
      "duration": 0.11,
      "velocity": 0.63,
      "hand": "right"
    },
    {
      "midi": 52,
      "time": 20.625,
      "duration": 0.375,
      "velocity": 0.63,
      "hand": "left"
    },
    {
      "midi": 69,
      "time": 20.625,
      "duration": 0.11,
      "velocity": 0.63,
      "hand": "right"
    },
    {
      "midi": 61,
      "time": 20.75,
      "duration": 0.5,
      "velocity": 0.63,
      "hand": "right"
    },
    {
      "midi": 69,
      "time": 20.75,
      "duration": 0.235,
      "velocity": 0.63,
      "hand": "right"
    },
    {
      "midi": 45,
      "time": 21,
      "duration": 0.25,
      "velocity": 0.63,
      "hand": "left"
    },
    {
      "midi": 69,
      "time": 21,
      "duration": 0.11,
      "velocity": 0.63,
      "hand": "right"
    },
    {
      "midi": 69,
      "time": 21.125,
      "duration": 0.125,
      "velocity": 0.63,
      "hand": "right"
    },
    {
      "midi": 52,
      "time": 21.25,
      "duration": 0.36,
      "velocity": 0.63,
      "hand": "left"
    },
    {
      "midi": 64,
      "time": 21.25,
      "duration": 0.5,
      "velocity": 0.63,
      "hand": "right"
    },
    {
      "midi": 57,
      "time": 21.5,
      "duration": 0.25,
      "velocity": 0.63,
      "hand": "left"
    },
    {
      "midi": 69,
      "time": 21.5,
      "duration": 0.11,
      "velocity": 0.63,
      "hand": "right"
    },
    {
      "midi": 52,
      "time": 21.625,
      "duration": 0.375,
      "velocity": 0.63,
      "hand": "left"
    },
    {
      "midi": 69,
      "time": 21.625,
      "duration": 0.11,
      "velocity": 0.63,
      "hand": "right"
    },
    {
      "midi": 59,
      "time": 21.75,
      "duration": 0.25,
      "velocity": 0.63,
      "hand": "left"
    },
    {
      "midi": 69,
      "time": 21.75,
      "duration": 0.235,
      "velocity": 0.63,
      "hand": "right"
    },
    {
      "midi": 45,
      "time": 22,
      "duration": 0.25,
      "velocity": 0.63,
      "hand": "left"
    },
    {
      "midi": 61,
      "time": 22,
      "duration": 0.25,
      "velocity": 0.63,
      "hand": "right"
    },
    {
      "midi": 69,
      "time": 22,
      "duration": 0.11,
      "velocity": 0.63,
      "hand": "right"
    },
    {
      "midi": 69,
      "time": 22.125,
      "duration": 0.11,
      "velocity": 0.63,
      "hand": "right"
    },
    {
      "midi": 50,
      "time": 22.25,
      "duration": 0.11,
      "velocity": 0.63,
      "hand": "left"
    },
    {
      "midi": 62,
      "time": 22.25,
      "duration": 1,
      "velocity": 0.63,
      "hand": "right"
    },
    {
      "midi": 66,
      "time": 22.25,
      "duration": 1,
      "velocity": 0.63,
      "hand": "right"
    },
    {
      "midi": 69,
      "time": 22.25,
      "duration": 1,
      "velocity": 0.63,
      "hand": "right"
    },
    {
      "midi": 50,
      "time": 22.375,
      "duration": 0.235,
      "velocity": 0.63,
      "hand": "left"
    },
    {
      "midi": 50,
      "time": 22.625,
      "duration": 0.125,
      "velocity": 0.63,
      "hand": "left"
    },
    {
      "midi": 47,
      "time": 22.75,
      "duration": 0.25,
      "velocity": 0.63,
      "hand": "left"
    },
    {
      "midi": 45,
      "time": 23,
      "duration": 0.235,
      "velocity": 0.63,
      "hand": "left"
    },
    {
      "midi": 45,
      "time": 23.25,
      "duration": 0.25,
      "velocity": 0.63,
      "hand": "left"
    },
    {
      "midi": 57,
      "time": 23.5,
      "duration": 0.25,
      "velocity": 0.63,
      "hand": "left"
    },
    {
      "midi": 66,
      "time": 23.5,
      "duration": 0.25,
      "velocity": 0.63,
      "hand": "right"
    },
    {
      "midi": 59,
      "time": 23.75,
      "duration": 0.25,
      "velocity": 0.63,
      "hand": "left"
    },
    {
      "midi": 68,
      "time": 23.75,
      "duration": 0.25,
      "velocity": 0.63,
      "hand": "right"
    },
    {
      "midi": 57,
      "time": 24,
      "duration": 0.235,
      "velocity": 0.63,
      "hand": "left"
    },
    {
      "midi": 66,
      "time": 24,
      "duration": 0.25,
      "velocity": 0.63,
      "hand": "right"
    },
    {
      "midi": 52,
      "time": 24.25,
      "duration": 0.36,
      "velocity": 0.63,
      "hand": "left"
    },
    {
      "midi": 57,
      "time": 24.25,
      "duration": 0.5,
      "velocity": 0.63,
      "hand": "left"
    },
    {
      "midi": 64,
      "time": 24.25,
      "duration": 0.5,
      "velocity": 0.63,
      "hand": "right"
    },
    {
      "midi": 69,
      "time": 24.5,
      "duration": 0.11,
      "velocity": 0.63,
      "hand": "right"
    },
    {
      "midi": 52,
      "time": 24.625,
      "duration": 0.375,
      "velocity": 0.63,
      "hand": "left"
    },
    {
      "midi": 69,
      "time": 24.625,
      "duration": 0.11,
      "velocity": 0.63,
      "hand": "right"
    },
    {
      "midi": 61,
      "time": 24.75,
      "duration": 0.5,
      "velocity": 0.63,
      "hand": "right"
    },
    {
      "midi": 69,
      "time": 24.75,
      "duration": 0.235,
      "velocity": 0.63,
      "hand": "right"
    },
    {
      "midi": 45,
      "time": 25,
      "duration": 0.25,
      "velocity": 0.63,
      "hand": "left"
    },
    {
      "midi": 69,
      "time": 25,
      "duration": 0.11,
      "velocity": 0.63,
      "hand": "right"
    },
    {
      "midi": 69,
      "time": 25.125,
      "duration": 0.125,
      "velocity": 0.63,
      "hand": "right"
    },
    {
      "midi": 52,
      "time": 25.25,
      "duration": 0.36,
      "velocity": 0.63,
      "hand": "left"
    },
    {
      "midi": 64,
      "time": 25.25,
      "duration": 0.5,
      "velocity": 0.63,
      "hand": "right"
    },
    {
      "midi": 57,
      "time": 25.5,
      "duration": 0.25,
      "velocity": 0.63,
      "hand": "left"
    },
    {
      "midi": 73,
      "time": 25.5,
      "duration": 0.11,
      "velocity": 0.63,
      "hand": "right"
    },
    {
      "midi": 52,
      "time": 25.625,
      "duration": 0.375,
      "velocity": 0.63,
      "hand": "left"
    },
    {
      "midi": 73,
      "time": 25.625,
      "duration": 0.125,
      "velocity": 0.63,
      "hand": "right"
    },
    {
      "midi": 59,
      "time": 25.75,
      "duration": 0.25,
      "velocity": 0.63,
      "hand": "left"
    },
    {
      "midi": 69,
      "time": 25.75,
      "duration": 0.5,
      "velocity": 0.63,
      "hand": "right"
    },
    {
      "midi": 45,
      "time": 26,
      "duration": 0.25,
      "velocity": 0.63,
      "hand": "left"
    },
    {
      "midi": 57,
      "time": 26,
      "duration": 0.235,
      "velocity": 0.63,
      "hand": "left"
    },
    {
      "midi": 73,
      "time": 26,
      "duration": 0.11,
      "velocity": 0.63,
      "hand": "right"
    },
    {
      "midi": 73,
      "time": 26.125,
      "duration": 0.125,
      "velocity": 0.63,
      "hand": "right"
    },
    {
      "midi": 54,
      "time": 26.25,
      "duration": 0.36,
      "velocity": 0.63,
      "hand": "left"
    },
    {
      "midi": 57,
      "time": 26.25,
      "duration": 0.5,
      "velocity": 0.63,
      "hand": "left"
    },
    {
      "midi": 66,
      "time": 26.25,
      "duration": 0.5,
      "velocity": 0.63,
      "hand": "right"
    },
    {
      "midi": 74,
      "time": 26.5,
      "duration": 0.11,
      "velocity": 0.63,
      "hand": "right"
    },
    {
      "midi": 54,
      "time": 26.625,
      "duration": 0.375,
      "velocity": 0.63,
      "hand": "left"
    },
    {
      "midi": 74,
      "time": 26.625,
      "duration": 0.125,
      "velocity": 0.63,
      "hand": "right"
    },
    {
      "midi": 62,
      "time": 26.75,
      "duration": 0.5,
      "velocity": 0.63,
      "hand": "right"
    },
    {
      "midi": 69,
      "time": 26.75,
      "duration": 0.5,
      "velocity": 0.63,
      "hand": "right"
    },
    {
      "midi": 50,
      "time": 27,
      "duration": 0.25,
      "velocity": 0.63,
      "hand": "left"
    },
    {
      "midi": 74,
      "time": 27,
      "duration": 0.11,
      "velocity": 0.63,
      "hand": "right"
    },
    {
      "midi": 74,
      "time": 27.125,
      "duration": 0.125,
      "velocity": 0.63,
      "hand": "right"
    },
    {
      "midi": 54,
      "time": 27.25,
      "duration": 0.36,
      "velocity": 0.63,
      "hand": "left"
    },
    {
      "midi": 66,
      "time": 27.25,
      "duration": 0.5,
      "velocity": 0.63,
      "hand": "right"
    },
    {
      "midi": 57,
      "time": 27.5,
      "duration": 0.25,
      "velocity": 0.63,
      "hand": "left"
    },
    {
      "midi": 74,
      "time": 27.5,
      "duration": 0.11,
      "velocity": 0.63,
      "hand": "right"
    },
    {
      "midi": 54,
      "time": 27.625,
      "duration": 0.375,
      "velocity": 0.63,
      "hand": "left"
    },
    {
      "midi": 74,
      "time": 27.625,
      "duration": 0.125,
      "velocity": 0.63,
      "hand": "right"
    },
    {
      "midi": 59,
      "time": 27.75,
      "duration": 0.25,
      "velocity": 0.63,
      "hand": "left"
    },
    {
      "midi": 69,
      "time": 27.75,
      "duration": 0.5,
      "velocity": 0.63,
      "hand": "right"
    },
    {
      "midi": 50,
      "time": 28,
      "duration": 0.25,
      "velocity": 0.63,
      "hand": "left"
    },
    {
      "midi": 57,
      "time": 28,
      "duration": 0.235,
      "velocity": 0.63,
      "hand": "left"
    },
    {
      "midi": 74,
      "time": 28,
      "duration": 0.11,
      "velocity": 0.63,
      "hand": "right"
    },
    {
      "midi": 74,
      "time": 28.125,
      "duration": 0.125,
      "velocity": 0.63,
      "hand": "right"
    },
    {
      "midi": 52,
      "time": 28.25,
      "duration": 0.36,
      "velocity": 0.63,
      "hand": "left"
    },
    {
      "midi": 57,
      "time": 28.25,
      "duration": 0.5,
      "velocity": 0.63,
      "hand": "left"
    },
    {
      "midi": 64,
      "time": 28.25,
      "duration": 0.5,
      "velocity": 0.63,
      "hand": "right"
    },
    {
      "midi": 69,
      "time": 28.5,
      "duration": 0.11,
      "velocity": 0.63,
      "hand": "right"
    },
    {
      "midi": 52,
      "time": 28.625,
      "duration": 0.375,
      "velocity": 0.63,
      "hand": "left"
    },
    {
      "midi": 69,
      "time": 28.625,
      "duration": 0.11,
      "velocity": 0.63,
      "hand": "right"
    },
    {
      "midi": 61,
      "time": 28.75,
      "duration": 0.5,
      "velocity": 0.63,
      "hand": "right"
    },
    {
      "midi": 69,
      "time": 28.75,
      "duration": 0.235,
      "velocity": 0.63,
      "hand": "right"
    },
    {
      "midi": 45,
      "time": 29,
      "duration": 0.25,
      "velocity": 0.63,
      "hand": "left"
    },
    {
      "midi": 69,
      "time": 29,
      "duration": 0.11,
      "velocity": 0.63,
      "hand": "right"
    },
    {
      "midi": 69,
      "time": 29.125,
      "duration": 0.125,
      "velocity": 0.63,
      "hand": "right"
    },
    {
      "midi": 52,
      "time": 29.25,
      "duration": 0.36,
      "velocity": 0.63,
      "hand": "left"
    },
    {
      "midi": 64,
      "time": 29.25,
      "duration": 0.5,
      "velocity": 0.63,
      "hand": "right"
    },
    {
      "midi": 69,
      "time": 29.5,
      "duration": 0.235,
      "velocity": 0.63,
      "hand": "right"
    },
    {
      "midi": 52,
      "time": 29.625,
      "duration": 0.375,
      "velocity": 0.63,
      "hand": "left"
    },
    {
      "midi": 69,
      "time": 29.75,
      "duration": 0.5,
      "velocity": 0.63,
      "hand": "right"
    },
    {
      "midi": 71,
      "time": 29.75,
      "duration": 0.25,
      "velocity": 0.63,
      "hand": "right"
    },
    {
      "midi": 45,
      "time": 30,
      "duration": 0.25,
      "velocity": 0.39,
      "hand": "left"
    },
    {
      "midi": 57,
      "time": 30,
      "duration": 0.25,
      "velocity": 0.63,
      "hand": "left"
    },
    {
      "midi": 73,
      "time": 30,
      "duration": 0.25,
      "velocity": 0.63,
      "hand": "right"
    },
    {
      "midi": 50,
      "time": 30.25,
      "duration": 0.11,
      "velocity": 0.39,
      "hand": "left"
    },
    {
      "midi": 62,
      "time": 30.25,
      "duration": 0.11,
      "velocity": 0.63,
      "hand": "right"
    },
    {
      "midi": 66,
      "time": 30.25,
      "duration": 1,
      "velocity": 0.63,
      "hand": "right"
    },
    {
      "midi": 74,
      "time": 30.25,
      "duration": 0.485,
      "velocity": 0.63,
      "hand": "right"
    },
    {
      "midi": 50,
      "time": 30.375,
      "duration": 0.235,
      "velocity": 0.39,
      "hand": "left"
    },
    {
      "midi": 62,
      "time": 30.375,
      "duration": 0.25,
      "velocity": 0.63,
      "hand": "right"
    },
    {
      "midi": 50,
      "time": 30.625,
      "duration": 0.125,
      "velocity": 0.39,
      "hand": "left"
    },
    {
      "midi": 57,
      "time": 30.625,
      "duration": 0.125,
      "velocity": 0.63,
      "hand": "left"
    },
    {
      "midi": 47,
      "time": 30.75,
      "duration": 0.25,
      "velocity": 0.39,
      "hand": "left"
    },
    {
      "midi": 59,
      "time": 30.75,
      "duration": 0.25,
      "velocity": 0.63,
      "hand": "left"
    },
    {
      "midi": 74,
      "time": 30.75,
      "duration": 0.75,
      "velocity": 0.63,
      "hand": "right"
    },
    {
      "midi": 45,
      "time": 31,
      "duration": 0.235,
      "velocity": 0.39,
      "hand": "left"
    },
    {
      "midi": 57,
      "time": 31,
      "duration": 0.25,
      "velocity": 0.63,
      "hand": "left"
    },
    {
      "midi": 45,
      "time": 31.25,
      "duration": 0.235,
      "velocity": 0.39,
      "hand": "left"
    },
    {
      "midi": 54,
      "time": 31.25,
      "duration": 0.5,
      "velocity": 0.63,
      "hand": "left"
    },
    {
      "midi": 45,
      "time": 31.5,
      "duration": 0.11,
      "velocity": 0.39,
      "hand": "left"
    },
    {
      "midi": 66,
      "time": 31.5,
      "duration": 0.25,
      "velocity": 0.39,
      "hand": "right"
    },
    {
      "midi": 69,
      "time": 31.5,
      "duration": 0.25,
      "velocity": 0.63,
      "hand": "right"
    },
    {
      "midi": 45,
      "time": 31.625,
      "duration": 0.125,
      "velocity": 0.39,
      "hand": "left"
    },
    {
      "midi": 68,
      "time": 31.75,
      "duration": 0.25,
      "velocity": 0.39,
      "hand": "right"
    },
    {
      "midi": 71,
      "time": 31.75,
      "duration": 0.25,
      "velocity": 0.63,
      "hand": "right"
    },
    {
      "midi": 45,
      "time": 32,
      "duration": 0.11,
      "velocity": 0.39,
      "hand": "left"
    },
    {
      "midi": 57,
      "time": 32,
      "duration": 0.25,
      "velocity": 0.63,
      "hand": "left"
    },
    {
      "midi": 66,
      "time": 32,
      "duration": 0.235,
      "velocity": 0.39,
      "hand": "right"
    },
    {
      "midi": 69,
      "time": 32,
      "duration": 0.235,
      "velocity": 0.63,
      "hand": "right"
    },
    {
      "midi": 45,
      "time": 32.125,
      "duration": 0.125,
      "velocity": 0.39,
      "hand": "left"
    },
    {
      "midi": 62,
      "time": 32.25,
      "duration": 0.11,
      "velocity": 0.63,
      "hand": "right"
    },
    {
      "midi": 66,
      "time": 32.25,
      "duration": 0.485,
      "velocity": 0.39,
      "hand": "right"
    },
    {
      "midi": 69,
      "time": 32.25,
      "duration": 0.485,
      "velocity": 0.63,
      "hand": "right"
    },
    {
      "midi": 62,
      "time": 32.375,
      "duration": 0.25,
      "velocity": 0.63,
      "hand": "right"
    },
    {
      "midi": 45,
      "time": 32.5,
      "duration": 0.11,
      "velocity": 0.39,
      "hand": "left"
    },
    {
      "midi": 45,
      "time": 32.625,
      "duration": 0.125,
      "velocity": 0.39,
      "hand": "left"
    },
    {
      "midi": 57,
      "time": 32.625,
      "duration": 0.125,
      "velocity": 0.63,
      "hand": "left"
    },
    {
      "midi": 59,
      "time": 32.75,
      "duration": 0.25,
      "velocity": 0.63,
      "hand": "left"
    },
    {
      "midi": 66,
      "time": 32.75,
      "duration": 0.5,
      "velocity": 0.39,
      "hand": "right"
    },
    {
      "midi": 69,
      "time": 32.75,
      "duration": 0.5,
      "velocity": 0.63,
      "hand": "right"
    },
    {
      "midi": 45,
      "time": 33,
      "duration": 0.11,
      "velocity": 0.39,
      "hand": "left"
    },
    {
      "midi": 57,
      "time": 33,
      "duration": 0.25,
      "velocity": 0.63,
      "hand": "left"
    },
    {
      "midi": 45,
      "time": 33.125,
      "duration": 0.125,
      "velocity": 0.39,
      "hand": "left"
    },
    {
      "midi": 61,
      "time": 33.25,
      "duration": 0.5,
      "velocity": 0.63,
      "hand": "right"
    },
    {
      "midi": 45,
      "time": 33.375,
      "duration": 0.235,
      "velocity": 0.39,
      "hand": "left"
    },
    {
      "midi": 69,
      "time": 33.375,
      "duration": 0.235,
      "velocity": 0.63,
      "hand": "right"
    },
    {
      "midi": 64,
      "time": 33.5,
      "duration": 0.11,
      "velocity": 0.39,
      "hand": "right"
    },
    {
      "midi": 45,
      "time": 33.625,
      "duration": 0.125,
      "velocity": 0.39,
      "hand": "left"
    },
    {
      "midi": 64,
      "time": 33.625,
      "duration": 0.125,
      "velocity": 0.39,
      "hand": "right"
    },
    {
      "midi": 69,
      "time": 33.625,
      "duration": 0.125,
      "velocity": 0.63,
      "hand": "right"
    },
    {
      "midi": 47,
      "time": 33.75,
      "duration": 0.25,
      "velocity": 0.39,
      "hand": "left"
    },
    {
      "midi": 71,
      "time": 33.75,
      "duration": 0.25,
      "velocity": 0.63,
      "hand": "right"
    },
    {
      "midi": 45,
      "time": 34,
      "duration": 0.235,
      "velocity": 0.39,
      "hand": "left"
    },
    {
      "midi": 57,
      "time": 34,
      "duration": 0.11,
      "velocity": 0.63,
      "hand": "left"
    },
    {
      "midi": 64,
      "time": 34,
      "duration": 0.11,
      "velocity": 0.39,
      "hand": "right"
    },
    {
      "midi": 69,
      "time": 34,
      "duration": 0.235,
      "velocity": 0.63,
      "hand": "right"
    },
    {
      "midi": 57,
      "time": 34.125,
      "duration": 0.125,
      "velocity": 0.63,
      "hand": "left"
    },
    {
      "midi": 64,
      "time": 34.125,
      "duration": 0.125,
      "velocity": 0.39,
      "hand": "right"
    },
    {
      "midi": 45,
      "time": 34.25,
      "duration": 0.235,
      "velocity": 0.39,
      "hand": "left"
    },
    {
      "midi": 61,
      "time": 34.25,
      "duration": 0.11,
      "velocity": 0.63,
      "hand": "right"
    },
    {
      "midi": 69,
      "time": 34.25,
      "duration": 0.485,
      "velocity": 0.63,
      "hand": "right"
    },
    {
      "midi": 61,
      "time": 34.375,
      "duration": 0.25,
      "velocity": 0.63,
      "hand": "right"
    },
    {
      "midi": 45,
      "time": 34.5,
      "duration": 0.11,
      "velocity": 0.39,
      "hand": "left"
    },
    {
      "midi": 64,
      "time": 34.5,
      "duration": 0.11,
      "velocity": 0.39,
      "hand": "right"
    },
    {
      "midi": 45,
      "time": 34.625,
      "duration": 0.125,
      "velocity": 0.39,
      "hand": "left"
    },
    {
      "midi": 57,
      "time": 34.625,
      "duration": 0.125,
      "velocity": 0.63,
      "hand": "left"
    },
    {
      "midi": 64,
      "time": 34.625,
      "duration": 0.125,
      "velocity": 0.39,
      "hand": "right"
    },
    {
      "midi": 59,
      "time": 34.75,
      "duration": 0.25,
      "velocity": 0.63,
      "hand": "left"
    },
    {
      "midi": 69,
      "time": 34.75,
      "duration": 0.5,
      "velocity": 0.63,
      "hand": "right"
    },
    {
      "midi": 45,
      "time": 35,
      "duration": 0.11,
      "velocity": 0.39,
      "hand": "left"
    },
    {
      "midi": 57,
      "time": 35,
      "duration": 0.25,
      "velocity": 0.63,
      "hand": "left"
    },
    {
      "midi": 64,
      "time": 35,
      "duration": 0.11,
      "velocity": 0.39,
      "hand": "right"
    },
    {
      "midi": 45,
      "time": 35.125,
      "duration": 0.125,
      "velocity": 0.39,
      "hand": "left"
    },
    {
      "midi": 64,
      "time": 35.125,
      "duration": 0.125,
      "velocity": 0.39,
      "hand": "right"
    },
    {
      "midi": 61,
      "time": 35.25,
      "duration": 0.11,
      "velocity": 0.63,
      "hand": "right"
    },
    {
      "midi": 61,
      "time": 35.375,
      "duration": 0.25,
      "velocity": 0.63,
      "hand": "right"
    },
    {
      "midi": 69,
      "time": 35.375,
      "duration": 0.235,
      "velocity": 0.63,
      "hand": "right"
    },
    {
      "midi": 64,
      "time": 35.5,
      "duration": 0.11,
      "velocity": 0.39,
      "hand": "right"
    },
    {
      "midi": 45,
      "time": 35.625,
      "duration": 0.125,
      "velocity": 0.39,
      "hand": "left"
    },
    {
      "midi": 57,
      "time": 35.625,
      "duration": 0.125,
      "velocity": 0.63,
      "hand": "left"
    },
    {
      "midi": 64,
      "time": 35.625,
      "duration": 0.125,
      "velocity": 0.39,
      "hand": "right"
    },
    {
      "midi": 69,
      "time": 35.625,
      "duration": 0.125,
      "velocity": 0.63,
      "hand": "right"
    },
    {
      "midi": 47,
      "time": 35.75,
      "duration": 0.25,
      "velocity": 0.39,
      "hand": "left"
    },
    {
      "midi": 59,
      "time": 35.75,
      "duration": 0.25,
      "velocity": 0.63,
      "hand": "left"
    },
    {
      "midi": 71,
      "time": 35.75,
      "duration": 0.25,
      "velocity": 0.63,
      "hand": "right"
    },
    {
      "midi": 45,
      "time": 36,
      "duration": 0.25,
      "velocity": 0.39,
      "hand": "left"
    },
    {
      "midi": 57,
      "time": 36,
      "duration": 0.25,
      "velocity": 0.63,
      "hand": "left"
    },
    {
      "midi": 64,
      "time": 36,
      "duration": 0.11,
      "velocity": 0.39,
      "hand": "right"
    },
    {
      "midi": 69,
      "time": 36,
      "duration": 0.235,
      "velocity": 0.63,
      "hand": "right"
    },
    {
      "midi": 64,
      "time": 36.125,
      "duration": 0.125,
      "velocity": 0.39,
      "hand": "right"
    },
    {
      "midi": 49,
      "time": 36.25,
      "duration": 0.25,
      "velocity": 0.39,
      "hand": "left"
    },
    {
      "midi": 61,
      "time": 36.25,
      "duration": 0.25,
      "velocity": 0.63,
      "hand": "right"
    },
    {
      "midi": 69,
      "time": 36.25,
      "duration": 0.485,
      "velocity": 0.63,
      "hand": "right"
    },
    {
      "midi": 45,
      "time": 36.5,
      "duration": 0.25,
      "velocity": 0.39,
      "hand": "left"
    },
    {
      "midi": 57,
      "time": 36.5,
      "duration": 0.25,
      "velocity": 0.63,
      "hand": "left"
    },
    {
      "midi": 64,
      "time": 36.5,
      "duration": 0.11,
      "velocity": 0.39,
      "hand": "right"
    },
    {
      "midi": 64,
      "time": 36.625,
      "duration": 0.125,
      "velocity": 0.39,
      "hand": "right"
    },
    {
      "midi": 47,
      "time": 36.75,
      "duration": 0.25,
      "velocity": 0.39,
      "hand": "left"
    },
    {
      "midi": 59,
      "time": 36.75,
      "duration": 0.25,
      "velocity": 0.63,
      "hand": "left"
    },
    {
      "midi": 69,
      "time": 36.75,
      "duration": 0.5,
      "velocity": 0.63,
      "hand": "right"
    },
    {
      "midi": 49,
      "time": 37,
      "duration": 0.25,
      "velocity": 0.39,
      "hand": "left"
    },
    {
      "midi": 61,
      "time": 37,
      "duration": 0.25,
      "velocity": 0.63,
      "hand": "right"
    },
    {
      "midi": 64,
      "time": 37,
      "duration": 0.11,
      "velocity": 0.39,
      "hand": "right"
    },
    {
      "midi": 64,
      "time": 37.125,
      "duration": 0.125,
      "velocity": 0.39,
      "hand": "right"
    },
    {
      "midi": 50,
      "time": 37.25,
      "duration": 0.235,
      "velocity": 0.39,
      "hand": "left"
    },
    {
      "midi": 62,
      "time": 37.25,
      "duration": 0.5,
      "velocity": 0.63,
      "hand": "right"
    },
    {
      "midi": 50,
      "time": 37.5,
      "duration": 0.11,
      "velocity": 0.39,
      "hand": "left"
    },
    {
      "midi": 66,
      "time": 37.5,
      "duration": 0.25,
      "velocity": 0.39,
      "hand": "right"
    },
    {
      "midi": 69,
      "time": 37.5,
      "duration": 0.25,
      "velocity": 0.63,
      "hand": "right"
    },
    {
      "midi": 50,
      "time": 37.625,
      "duration": 0.125,
      "velocity": 0.39,
      "hand": "left"
    },
    {
      "midi": 67,
      "time": 37.75,
      "duration": 0.25,
      "velocity": 0.39,
      "hand": "right"
    },
    {
      "midi": 71,
      "time": 37.75,
      "duration": 0.25,
      "velocity": 0.63,
      "hand": "right"
    },
    {
      "midi": 57,
      "time": 38,
      "duration": 0.25,
      "velocity": 0.63,
      "hand": "left"
    },
    {
      "midi": 66,
      "time": 38,
      "duration": 0.25,
      "velocity": 0.39,
      "hand": "right"
    },
    {
      "midi": 73,
      "time": 38,
      "duration": 0.25,
      "velocity": 0.63,
      "hand": "right"
    },
    {
      "midi": 50,
      "time": 38.25,
      "duration": 0.11,
      "velocity": 0.39,
      "hand": "left"
    },
    {
      "midi": 62,
      "time": 38.25,
      "duration": 0.11,
      "velocity": 0.63,
      "hand": "right"
    },
    {
      "midi": 74,
      "time": 38.25,
      "duration": 1,
      "velocity": 0.63,
      "hand": "right"
    },
    {
      "midi": 50,
      "time": 38.375,
      "duration": 0.235,
      "velocity": 0.39,
      "hand": "left"
    },
    {
      "midi": 62,
      "time": 38.375,
      "duration": 0.11,
      "velocity": 0.63,
      "hand": "right"
    },
    {
      "midi": 62,
      "time": 38.5,
      "duration": 0.11,
      "velocity": 0.39,
      "hand": "right"
    },
    {
      "midi": 50,
      "time": 38.625,
      "duration": 0.125,
      "velocity": 0.39,
      "hand": "left"
    },
    {
      "midi": 57,
      "time": 38.625,
      "duration": 0.125,
      "velocity": 0.63,
      "hand": "left"
    },
    {
      "midi": 62,
      "time": 38.625,
      "duration": 0.125,
      "velocity": 0.39,
      "hand": "right"
    },
    {
      "midi": 47,
      "time": 38.75,
      "duration": 0.25,
      "velocity": 0.39,
      "hand": "left"
    },
    {
      "midi": 59,
      "time": 38.75,
      "duration": 0.25,
      "velocity": 0.63,
      "hand": "left"
    },
    {
      "midi": 45,
      "time": 39,
      "duration": 0.235,
      "velocity": 0.39,
      "hand": "left"
    },
    {
      "midi": 57,
      "time": 39,
      "duration": 0.25,
      "velocity": 0.63,
      "hand": "left"
    },
    {
      "midi": 62,
      "time": 39,
      "duration": 0.11,
      "velocity": 0.39,
      "hand": "right"
    },
    {
      "midi": 62,
      "time": 39.125,
      "duration": 0.125,
      "velocity": 0.39,
      "hand": "right"
    },
    {
      "midi": 45,
      "time": 39.25,
      "duration": 0.235,
      "velocity": 0.39,
      "hand": "left"
    },
    {
      "midi": 54,
      "time": 39.25,
      "duration": 0.5,
      "velocity": 0.63,
      "hand": "left"
    },
    {
      "midi": 45,
      "time": 39.5,
      "duration": 0.11,
      "velocity": 0.39,
      "hand": "left"
    },
    {
      "midi": 66,
      "time": 39.5,
      "duration": 0.25,
      "velocity": 0.39,
      "hand": "right"
    },
    {
      "midi": 69,
      "time": 39.5,
      "duration": 0.25,
      "velocity": 0.63,
      "hand": "right"
    },
    {
      "midi": 45,
      "time": 39.625,
      "duration": 0.125,
      "velocity": 0.39,
      "hand": "left"
    },
    {
      "midi": 68,
      "time": 39.75,
      "duration": 0.25,
      "velocity": 0.39,
      "hand": "right"
    },
    {
      "midi": 71,
      "time": 39.75,
      "duration": 0.25,
      "velocity": 0.63,
      "hand": "right"
    },
    {
      "midi": 45,
      "time": 40,
      "duration": 0.11,
      "velocity": 0.39,
      "hand": "left"
    },
    {
      "midi": 57,
      "time": 40,
      "duration": 0.25,
      "velocity": 0.63,
      "hand": "left"
    },
    {
      "midi": 66,
      "time": 40,
      "duration": 0.235,
      "velocity": 0.39,
      "hand": "right"
    },
    {
      "midi": 69,
      "time": 40,
      "duration": 0.235,
      "velocity": 0.63,
      "hand": "right"
    },
    {
      "midi": 45,
      "time": 40.125,
      "duration": 0.125,
      "velocity": 0.39,
      "hand": "left"
    },
    {
      "midi": 62,
      "time": 40.25,
      "duration": 0.11,
      "velocity": 0.63,
      "hand": "right"
    },
    {
      "midi": 66,
      "time": 40.25,
      "duration": 0.485,
      "velocity": 0.39,
      "hand": "right"
    },
    {
      "midi": 69,
      "time": 40.25,
      "duration": 0.485,
      "velocity": 0.63,
      "hand": "right"
    },
    {
      "midi": 62,
      "time": 40.375,
      "duration": 0.25,
      "velocity": 0.63,
      "hand": "right"
    },
    {
      "midi": 45,
      "time": 40.5,
      "duration": 0.11,
      "velocity": 0.39,
      "hand": "left"
    },
    {
      "midi": 45,
      "time": 40.625,
      "duration": 0.125,
      "velocity": 0.39,
      "hand": "left"
    },
    {
      "midi": 57,
      "time": 40.625,
      "duration": 0.125,
      "velocity": 0.63,
      "hand": "left"
    },
    {
      "midi": 59,
      "time": 40.75,
      "duration": 0.25,
      "velocity": 0.63,
      "hand": "left"
    },
    {
      "midi": 66,
      "time": 40.75,
      "duration": 0.5,
      "velocity": 0.39,
      "hand": "right"
    },
    {
      "midi": 69,
      "time": 40.75,
      "duration": 0.5,
      "velocity": 0.63,
      "hand": "right"
    },
    {
      "midi": 45,
      "time": 41,
      "duration": 0.11,
      "velocity": 0.39,
      "hand": "left"
    },
    {
      "midi": 57,
      "time": 41,
      "duration": 0.25,
      "velocity": 0.63,
      "hand": "left"
    },
    {
      "midi": 45,
      "time": 41.125,
      "duration": 0.125,
      "velocity": 0.39,
      "hand": "left"
    },
    {
      "midi": 55,
      "time": 41.25,
      "duration": 0.5,
      "velocity": 0.63,
      "hand": "left"
    },
    {
      "midi": 45,
      "time": 41.5,
      "duration": 0.25,
      "velocity": 0.39,
      "hand": "left"
    },
    {
      "midi": 64,
      "time": 41.5,
      "duration": 0.11,
      "velocity": 0.39,
      "hand": "right"
    },
    {
      "midi": 69,
      "time": 41.5,
      "duration": 0.25,
      "velocity": 0.63,
      "hand": "right"
    },
    {
      "midi": 64,
      "time": 41.625,
      "duration": 0.125,
      "velocity": 0.39,
      "hand": "right"
    },
    {
      "midi": 47,
      "time": 41.75,
      "duration": 0.25,
      "velocity": 0.39,
      "hand": "left"
    },
    {
      "midi": 71,
      "time": 41.75,
      "duration": 0.25,
      "velocity": 0.63,
      "hand": "right"
    },
    {
      "midi": 45,
      "time": 42,
      "duration": 0.235,
      "velocity": 0.39,
      "hand": "left"
    },
    {
      "midi": 57,
      "time": 42,
      "duration": 0.11,
      "velocity": 0.63,
      "hand": "left"
    },
    {
      "midi": 64,
      "time": 42,
      "duration": 0.11,
      "velocity": 0.39,
      "hand": "right"
    },
    {
      "midi": 69,
      "time": 42,
      "duration": 0.235,
      "velocity": 0.63,
      "hand": "right"
    },
    {
      "midi": 57,
      "time": 42.125,
      "duration": 0.125,
      "velocity": 0.63,
      "hand": "left"
    },
    {
      "midi": 64,
      "time": 42.125,
      "duration": 0.125,
      "velocity": 0.39,
      "hand": "right"
    },
    {
      "midi": 45,
      "time": 42.25,
      "duration": 0.485,
      "velocity": 0.39,
      "hand": "left"
    },
    {
      "midi": 61,
      "time": 42.25,
      "duration": 0.11,
      "velocity": 0.63,
      "hand": "right"
    },
    {
      "midi": 69,
      "time": 42.25,
      "duration": 0.485,
      "velocity": 0.63,
      "hand": "right"
    },
    {
      "midi": 61,
      "time": 42.375,
      "duration": 0.25,
      "velocity": 0.63,
      "hand": "right"
    },
    {
      "midi": 64,
      "time": 42.5,
      "duration": 0.11,
      "velocity": 0.39,
      "hand": "right"
    },
    {
      "midi": 57,
      "time": 42.625,
      "duration": 0.125,
      "velocity": 0.63,
      "hand": "left"
    },
    {
      "midi": 64,
      "time": 42.625,
      "duration": 0.125,
      "velocity": 0.39,
      "hand": "right"
    },
    {
      "midi": 45,
      "time": 42.75,
      "duration": 0.5,
      "velocity": 0.39,
      "hand": "left"
    },
    {
      "midi": 59,
      "time": 42.75,
      "duration": 0.25,
      "velocity": 0.63,
      "hand": "left"
    },
    {
      "midi": 69,
      "time": 42.75,
      "duration": 0.5,
      "velocity": 0.63,
      "hand": "right"
    },
    {
      "midi": 57,
      "time": 43,
      "duration": 0.25,
      "velocity": 0.63,
      "hand": "left"
    },
    {
      "midi": 64,
      "time": 43,
      "duration": 0.11,
      "velocity": 0.39,
      "hand": "right"
    },
    {
      "midi": 64,
      "time": 43.125,
      "duration": 0.125,
      "velocity": 0.39,
      "hand": "right"
    },
    {
      "midi": 61,
      "time": 43.25,
      "duration": 0.11,
      "velocity": 0.63,
      "hand": "right"
    },
    {
      "midi": 61,
      "time": 43.375,
      "duration": 0.25,
      "velocity": 0.63,
      "hand": "right"
    },
    {
      "midi": 64,
      "time": 43.5,
      "duration": 0.11,
      "velocity": 0.39,
      "hand": "right"
    },
    {
      "midi": 69,
      "time": 43.5,
      "duration": 0.25,
      "velocity": 0.63,
      "hand": "right"
    },
    {
      "midi": 45,
      "time": 43.625,
      "duration": 0.125,
      "velocity": 0.39,
      "hand": "left"
    },
    {
      "midi": 57,
      "time": 43.625,
      "duration": 0.125,
      "velocity": 0.63,
      "hand": "left"
    },
    {
      "midi": 64,
      "time": 43.625,
      "duration": 0.125,
      "velocity": 0.39,
      "hand": "right"
    },
    {
      "midi": 47,
      "time": 43.75,
      "duration": 0.25,
      "velocity": 0.39,
      "hand": "left"
    },
    {
      "midi": 59,
      "time": 43.75,
      "duration": 0.25,
      "velocity": 0.63,
      "hand": "left"
    },
    {
      "midi": 71,
      "time": 43.75,
      "duration": 0.25,
      "velocity": 0.63,
      "hand": "right"
    },
    {
      "midi": 45,
      "time": 44,
      "duration": 0.25,
      "velocity": 0.39,
      "hand": "left"
    },
    {
      "midi": 57,
      "time": 44,
      "duration": 0.25,
      "velocity": 0.63,
      "hand": "left"
    },
    {
      "midi": 64,
      "time": 44,
      "duration": 0.11,
      "velocity": 0.39,
      "hand": "right"
    },
    {
      "midi": 69,
      "time": 44,
      "duration": 0.235,
      "velocity": 0.63,
      "hand": "right"
    },
    {
      "midi": 64,
      "time": 44.125,
      "duration": 0.125,
      "velocity": 0.39,
      "hand": "right"
    },
    {
      "midi": 49,
      "time": 44.25,
      "duration": 0.25,
      "velocity": 0.39,
      "hand": "left"
    },
    {
      "midi": 61,
      "time": 44.25,
      "duration": 0.25,
      "velocity": 0.63,
      "hand": "right"
    },
    {
      "midi": 69,
      "time": 44.25,
      "duration": 0.11,
      "velocity": 0.63,
      "hand": "right"
    },
    {
      "midi": 69,
      "time": 44.375,
      "duration": 0.235,
      "velocity": 0.63,
      "hand": "right"
    },
    {
      "midi": 45,
      "time": 44.5,
      "duration": 0.25,
      "velocity": 0.39,
      "hand": "left"
    },
    {
      "midi": 57,
      "time": 44.5,
      "duration": 0.25,
      "velocity": 0.63,
      "hand": "left"
    },
    {
      "midi": 64,
      "time": 44.625,
      "duration": 0.11,
      "velocity": 0.39,
      "hand": "right"
    },
    {
      "midi": 69,
      "time": 44.625,
      "duration": 0.125,
      "velocity": 0.63,
      "hand": "right"
    },
    {
      "midi": 47,
      "time": 44.75,
      "duration": 0.25,
      "velocity": 0.39,
      "hand": "left"
    },
    {
      "midi": 59,
      "time": 44.75,
      "duration": 0.25,
      "velocity": 0.63,
      "hand": "left"
    },
    {
      "midi": 64,
      "time": 44.75,
      "duration": 0.235,
      "velocity": 0.39,
      "hand": "right"
    },
    {
      "midi": 71,
      "time": 44.75,
      "duration": 0.25,
      "velocity": 0.63,
      "hand": "right"
    },
    {
      "midi": 49,
      "time": 45,
      "duration": 0.25,
      "velocity": 0.39,
      "hand": "left"
    },
    {
      "midi": 61,
      "time": 45,
      "duration": 0.25,
      "velocity": 0.63,
      "hand": "right"
    },
    {
      "midi": 64,
      "time": 45,
      "duration": 0.25,
      "velocity": 0.39,
      "hand": "right"
    },
    {
      "midi": 73,
      "time": 45,
      "duration": 0.25,
      "velocity": 0.63,
      "hand": "right"
    },
    {
      "midi": 50,
      "time": 45.25,
      "duration": 0.235,
      "velocity": 0.39,
      "hand": "left"
    },
    {
      "midi": 62,
      "time": 45.25,
      "duration": 0.235,
      "velocity": 0.63,
      "hand": "right"
    },
    {
      "midi": 74,
      "time": 45.25,
      "duration": 0.485,
      "velocity": 0.63,
      "hand": "right"
    },
    {
      "midi": 50,
      "time": 45.5,
      "duration": 0.11,
      "velocity": 0.39,
      "hand": "left"
    },
    {
      "midi": 62,
      "time": 45.5,
      "duration": 0.11,
      "velocity": 0.63,
      "hand": "right"
    },
    {
      "midi": 50,
      "time": 45.625,
      "duration": 0.125,
      "velocity": 0.39,
      "hand": "left"
    },
    {
      "midi": 62,
      "time": 45.625,
      "duration": 0.11,
      "velocity": 0.63,
      "hand": "right"
    },
    {
      "midi": 62,
      "time": 45.75,
      "duration": 0.235,
      "velocity": 0.39,
      "hand": "right"
    },
    {
      "midi": 74,
      "time": 45.75,
      "duration": 0.5,
      "velocity": 0.63,
      "hand": "right"
    },
    {
      "midi": 50,
      "time": 46,
      "duration": 0.11,
      "velocity": 0.39,
      "hand": "left"
    },
    {
      "midi": 62,
      "time": 46,
      "duration": 0.11,
      "velocity": 0.63,
      "hand": "right"
    },
    {
      "midi": 50,
      "time": 46.125,
      "duration": 0.125,
      "velocity": 0.39,
      "hand": "left"
    },
    {
      "midi": 62,
      "time": 46.125,
      "duration": 0.125,
      "velocity": 0.63,
      "hand": "right"
    },
    {
      "midi": 50,
      "time": 46.5,
      "duration": 0.11,
      "velocity": 0.63,
      "hand": "left"
    },
    {
      "midi": 62,
      "time": 46.5,
      "duration": 0.11,
      "velocity": 0.63,
      "hand": "right"
    },
    {
      "midi": 74,
      "time": 46.5,
      "duration": 0.11,
      "velocity": 0.63,
      "hand": "right"
    },
    {
      "midi": 50,
      "time": 46.625,
      "duration": 0.125,
      "velocity": 0.63,
      "hand": "left"
    },
    {
      "midi": 62,
      "time": 46.625,
      "duration": 0.125,
      "velocity": 0.63,
      "hand": "right"
    },
    {
      "midi": 74,
      "time": 46.625,
      "duration": 0.125,
      "velocity": 0.63,
      "hand": "right"
    },
    {
      "midi": 50,
      "time": 47,
      "duration": 0.11,
      "velocity": 0.63,
      "hand": "left"
    },
    {
      "midi": 62,
      "time": 47,
      "duration": 0.11,
      "velocity": 0.63,
      "hand": "right"
    },
    {
      "midi": 74,
      "time": 47,
      "duration": 0.11,
      "velocity": 0.63,
      "hand": "right"
    },
    {
      "midi": 50,
      "time": 47.125,
      "duration": 0.125,
      "velocity": 0.63,
      "hand": "left"
    },
    {
      "midi": 62,
      "time": 47.125,
      "duration": 0.125,
      "velocity": 0.63,
      "hand": "right"
    },
    {
      "midi": 74,
      "time": 47.125,
      "duration": 0.125,
      "velocity": 0.63,
      "hand": "right"
    },
    {
      "midi": 50,
      "time": 47.5,
      "duration": 0.11,
      "velocity": 0.63,
      "hand": "left"
    },
    {
      "midi": 62,
      "time": 47.5,
      "duration": 0.11,
      "velocity": 0.63,
      "hand": "right"
    },
    {
      "midi": 50,
      "time": 47.625,
      "duration": 0.125,
      "velocity": 0.63,
      "hand": "left"
    },
    {
      "midi": 62,
      "time": 47.625,
      "duration": 0.125,
      "velocity": 0.63,
      "hand": "right"
    },
    {
      "midi": 50,
      "time": 48,
      "duration": 0.11,
      "velocity": 0.63,
      "hand": "left"
    },
    {
      "midi": 62,
      "time": 48,
      "duration": 0.11,
      "velocity": 0.63,
      "hand": "right"
    },
    {
      "midi": 50,
      "time": 48.125,
      "duration": 0.125,
      "velocity": 0.63,
      "hand": "left"
    },
    {
      "midi": 62,
      "time": 48.125,
      "duration": 0.125,
      "velocity": 0.63,
      "hand": "right"
    },
    {
      "midi": 50,
      "time": 48.5,
      "duration": 0.11,
      "velocity": 0.63,
      "hand": "left"
    },
    {
      "midi": 62,
      "time": 48.5,
      "duration": 0.11,
      "velocity": 0.63,
      "hand": "right"
    },
    {
      "midi": 50,
      "time": 48.625,
      "duration": 0.125,
      "velocity": 0.63,
      "hand": "left"
    },
    {
      "midi": 62,
      "time": 48.625,
      "duration": 0.125,
      "velocity": 0.63,
      "hand": "right"
    },
    {
      "midi": 50,
      "time": 49,
      "duration": 0.11,
      "velocity": 0.63,
      "hand": "left"
    },
    {
      "midi": 62,
      "time": 49,
      "duration": 0.11,
      "velocity": 0.63,
      "hand": "right"
    },
    {
      "midi": 50,
      "time": 49.125,
      "duration": 0.125,
      "velocity": 0.63,
      "hand": "left"
    },
    {
      "midi": 62,
      "time": 49.125,
      "duration": 0.125,
      "velocity": 0.63,
      "hand": "right"
    },
    {
      "midi": 50,
      "time": 49.5,
      "duration": 0.11,
      "velocity": 0.63,
      "hand": "left"
    },
    {
      "midi": 50,
      "time": 49.625,
      "duration": 0.125,
      "velocity": 0.63,
      "hand": "left"
    },
    {
      "midi": 50,
      "time": 50,
      "duration": 0.11,
      "velocity": 0.63,
      "hand": "left"
    },
    {
      "midi": 50,
      "time": 50.125,
      "duration": 0.125,
      "velocity": 0.63,
      "hand": "left"
    },
    {
      "midi": 50,
      "time": 50.5,
      "duration": 0.11,
      "velocity": 0.63,
      "hand": "left"
    },
    {
      "midi": 50,
      "time": 50.625,
      "duration": 0.125,
      "velocity": 0.63,
      "hand": "left"
    },
    {
      "midi": 50,
      "time": 51,
      "duration": 0.11,
      "velocity": 0.63,
      "hand": "left"
    },
    {
      "midi": 50,
      "time": 51.125,
      "duration": 0.125,
      "velocity": 0.63,
      "hand": "left"
    },
    {
      "midi": 50,
      "time": 51.5,
      "duration": 0.11,
      "velocity": 0.63,
      "hand": "left"
    },
    {
      "midi": 50,
      "time": 51.625,
      "duration": 0.125,
      "velocity": 0.63,
      "hand": "left"
    },
    {
      "midi": 50,
      "time": 52,
      "duration": 0.11,
      "velocity": 0.63,
      "hand": "left"
    },
    {
      "midi": 50,
      "time": 52.125,
      "duration": 0.125,
      "velocity": 0.63,
      "hand": "left"
    }
  ],
  "arrangements": {
    "easy": [
      {
        "midi": 69,
        "time": 0,
        "duration": 0.3,
        "velocity": 0.63,
        "hand": "right"
      },
      {
        "midi": 69,
        "time": 0.625,
        "duration": 0.3,
        "velocity": 0.63,
        "hand": "right"
      },
      {
        "midi": 66,
        "time": 1.25,
        "duration": 0.5,
        "velocity": 0.63,
        "hand": "right"
      },
      {
        "midi": 69,
        "time": 2,
        "duration": 0.3,
        "velocity": 0.63,
        "hand": "right"
      },
      {
        "midi": 69,
        "time": 2.625,
        "duration": 0.3,
        "velocity": 0.63,
        "hand": "right"
      },
      {
        "midi": 73,
        "time": 3.25,
        "duration": 0.5,
        "velocity": 0.63,
        "hand": "right"
      },
      {
        "midi": 69,
        "time": 4,
        "duration": 0.3,
        "velocity": 0.63,
        "hand": "right"
      },
      {
        "midi": 69,
        "time": 4.625,
        "duration": 0.3,
        "velocity": 0.63,
        "hand": "right"
      },
      {
        "midi": 73,
        "time": 5.25,
        "duration": 0.3,
        "velocity": 0.63,
        "hand": "right"
      },
      {
        "midi": 69,
        "time": 6,
        "duration": 0.3,
        "velocity": 0.63,
        "hand": "right"
      },
      {
        "midi": 61,
        "time": 6.625,
        "duration": 0.3,
        "velocity": 0.63,
        "hand": "right"
      },
      {
        "midi": 74,
        "time": 7.25,
        "duration": 0.3,
        "velocity": 0.63,
        "hand": "right"
      },
      {
        "midi": 69,
        "time": 8,
        "duration": 0.3,
        "velocity": 0.63,
        "hand": "right"
      },
      {
        "midi": 69,
        "time": 8.625,
        "duration": 0.3,
        "velocity": 0.63,
        "hand": "right"
      },
      {
        "midi": 66,
        "time": 9.25,
        "duration": 0.5,
        "velocity": 0.63,
        "hand": "right"
      },
      {
        "midi": 69,
        "time": 10,
        "duration": 0.3,
        "velocity": 0.63,
        "hand": "right"
      },
      {
        "midi": 69,
        "time": 10.625,
        "duration": 0.3,
        "velocity": 0.63,
        "hand": "right"
      },
      {
        "midi": 73,
        "time": 11.25,
        "duration": 0.5,
        "velocity": 0.63,
        "hand": "right"
      },
      {
        "midi": 69,
        "time": 12,
        "duration": 0.3,
        "velocity": 0.63,
        "hand": "right"
      },
      {
        "midi": 69,
        "time": 12.625,
        "duration": 0.3,
        "velocity": 0.63,
        "hand": "right"
      },
      {
        "midi": 73,
        "time": 13.25,
        "duration": 0.3,
        "velocity": 0.63,
        "hand": "right"
      },
      {
        "midi": 69,
        "time": 14,
        "duration": 0.3,
        "velocity": 0.63,
        "hand": "right"
      },
      {
        "midi": 61,
        "time": 14.625,
        "duration": 0.3,
        "velocity": 0.63,
        "hand": "right"
      },
      {
        "midi": 74,
        "time": 15.25,
        "duration": 0.3,
        "velocity": 0.63,
        "hand": "right"
      },
      {
        "midi": 57,
        "time": 16,
        "duration": 0.3,
        "velocity": 0.63,
        "hand": "right"
      },
      {
        "midi": 69,
        "time": 16.625,
        "duration": 0.3,
        "velocity": 0.63,
        "hand": "right"
      },
      {
        "midi": 64,
        "time": 17.25,
        "duration": 0.5,
        "velocity": 0.63,
        "hand": "right"
      },
      {
        "midi": 73,
        "time": 18,
        "duration": 0.3,
        "velocity": 0.63,
        "hand": "right"
      },
      {
        "midi": 74,
        "time": 18.625,
        "duration": 0.3,
        "velocity": 0.63,
        "hand": "right"
      },
      {
        "midi": 66,
        "time": 19.25,
        "duration": 0.5,
        "velocity": 0.63,
        "hand": "right"
      },
      {
        "midi": 74,
        "time": 20,
        "duration": 0.3,
        "velocity": 0.63,
        "hand": "right"
      },
      {
        "midi": 69,
        "time": 20.625,
        "duration": 0.3,
        "velocity": 0.63,
        "hand": "right"
      },
      {
        "midi": 64,
        "time": 21.25,
        "duration": 0.5,
        "velocity": 0.63,
        "hand": "right"
      },
      {
        "midi": 69,
        "time": 22,
        "duration": 0.3,
        "velocity": 0.63,
        "hand": "right"
      },
      {
        "midi": 62,
        "time": 22.625,
        "duration": 0.3,
        "velocity": 0.63,
        "hand": "right"
      },
      {
        "midi": 57,
        "time": 23.25,
        "duration": 0.3,
        "velocity": 0.63,
        "hand": "right"
      },
      {
        "midi": 66,
        "time": 24,
        "duration": 0.3,
        "velocity": 0.63,
        "hand": "right"
      },
      {
        "midi": 69,
        "time": 24.625,
        "duration": 0.3,
        "velocity": 0.63,
        "hand": "right"
      },
      {
        "midi": 64,
        "time": 25.25,
        "duration": 0.5,
        "velocity": 0.63,
        "hand": "right"
      },
      {
        "midi": 73,
        "time": 26,
        "duration": 0.3,
        "velocity": 0.63,
        "hand": "right"
      },
      {
        "midi": 74,
        "time": 26.625,
        "duration": 0.3,
        "velocity": 0.63,
        "hand": "right"
      },
      {
        "midi": 66,
        "time": 27.25,
        "duration": 0.5,
        "velocity": 0.63,
        "hand": "right"
      },
      {
        "midi": 74,
        "time": 28,
        "duration": 0.3,
        "velocity": 0.63,
        "hand": "right"
      },
      {
        "midi": 69,
        "time": 28.625,
        "duration": 0.3,
        "velocity": 0.63,
        "hand": "right"
      },
      {
        "midi": 64,
        "time": 29.25,
        "duration": 0.5,
        "velocity": 0.63,
        "hand": "right"
      },
      {
        "midi": 73,
        "time": 30,
        "duration": 0.3,
        "velocity": 0.63,
        "hand": "right"
      },
      {
        "midi": 57,
        "time": 30.625,
        "duration": 0.3,
        "velocity": 0.63,
        "hand": "right"
      },
      {
        "midi": 66,
        "time": 31.25,
        "duration": 0.5,
        "velocity": 0.63,
        "hand": "right"
      },
      {
        "midi": 69,
        "time": 32,
        "duration": 0.3,
        "velocity": 0.63,
        "hand": "right"
      },
      {
        "midi": 57,
        "time": 32.625,
        "duration": 0.3,
        "velocity": 0.63,
        "hand": "right"
      },
      {
        "midi": 61,
        "time": 33.25,
        "duration": 0.5,
        "velocity": 0.63,
        "hand": "right"
      },
      {
        "midi": 69,
        "time": 34,
        "duration": 0.3,
        "velocity": 0.63,
        "hand": "right"
      },
      {
        "midi": 64,
        "time": 34.625,
        "duration": 0.3,
        "velocity": 0.39,
        "hand": "right"
      },
      {
        "midi": 61,
        "time": 35.25,
        "duration": 0.3,
        "velocity": 0.63,
        "hand": "right"
      },
      {
        "midi": 69,
        "time": 36,
        "duration": 0.3,
        "velocity": 0.63,
        "hand": "right"
      },
      {
        "midi": 64,
        "time": 36.625,
        "duration": 0.3,
        "velocity": 0.39,
        "hand": "right"
      },
      {
        "midi": 62,
        "time": 37.25,
        "duration": 0.5,
        "velocity": 0.63,
        "hand": "right"
      },
      {
        "midi": 73,
        "time": 38,
        "duration": 0.3,
        "velocity": 0.63,
        "hand": "right"
      },
      {
        "midi": 62,
        "time": 38.625,
        "duration": 0.3,
        "velocity": 0.39,
        "hand": "right"
      },
      {
        "midi": 66,
        "time": 39.25,
        "duration": 0.5,
        "velocity": 0.63,
        "hand": "right"
      },
      {
        "midi": 69,
        "time": 40,
        "duration": 0.3,
        "velocity": 0.63,
        "hand": "right"
      },
      {
        "midi": 57,
        "time": 40.625,
        "duration": 0.3,
        "velocity": 0.63,
        "hand": "right"
      },
      {
        "midi": 55,
        "time": 41.25,
        "duration": 0.5,
        "velocity": 0.63,
        "hand": "right"
      },
      {
        "midi": 69,
        "time": 42,
        "duration": 0.3,
        "velocity": 0.63,
        "hand": "right"
      },
      {
        "midi": 64,
        "time": 42.625,
        "duration": 0.3,
        "velocity": 0.39,
        "hand": "right"
      },
      {
        "midi": 61,
        "time": 43.25,
        "duration": 0.3,
        "velocity": 0.63,
        "hand": "right"
      },
      {
        "midi": 69,
        "time": 44,
        "duration": 0.3,
        "velocity": 0.63,
        "hand": "right"
      },
      {
        "midi": 69,
        "time": 44.625,
        "duration": 0.3,
        "velocity": 0.63,
        "hand": "right"
      },
      {
        "midi": 74,
        "time": 45.25,
        "duration": 0.485,
        "velocity": 0.63,
        "hand": "right"
      },
      {
        "midi": 62,
        "time": 46,
        "duration": 0.3,
        "velocity": 0.63,
        "hand": "right"
      },
      {
        "midi": 74,
        "time": 46.625,
        "duration": 0.3,
        "velocity": 0.63,
        "hand": "right"
      },
      {
        "midi": 62,
        "time": 47.5,
        "duration": 0.3,
        "velocity": 0.63,
        "hand": "right"
      },
      {
        "midi": 62,
        "time": 48.125,
        "duration": 0.3,
        "velocity": 0.63,
        "hand": "right"
      },
      {
        "midi": 62,
        "time": 49,
        "duration": 0.3,
        "velocity": 0.63,
        "hand": "right"
      },
      {
        "midi": 62,
        "time": 49.625,
        "duration": 0.3,
        "velocity": 0.63,
        "hand": "right"
      },
      {
        "midi": 62,
        "time": 50.5,
        "duration": 0.3,
        "velocity": 0.63,
        "hand": "right"
      },
      {
        "midi": 62,
        "time": 51.125,
        "duration": 0.3,
        "velocity": 0.63,
        "hand": "right"
      },
      {
        "midi": 62,
        "time": 52,
        "duration": 0.3,
        "velocity": 0.63,
        "hand": "right"
      }
    ],
    "medium": [
      {
        "midi": 69,
        "time": 0,
        "duration": 0.25,
        "velocity": 0.63,
        "hand": "right"
      },
      {
        "midi": 71,
        "time": 0.75,
        "duration": 0.25,
        "velocity": 0.63,
        "hand": "right"
      },
      {
        "midi": 54,
        "time": 1.5,
        "duration": 0.175,
        "velocity": 0.63,
        "hand": "left"
      },
      {
        "midi": 62,
        "time": 1.5,
        "duration": 0.175,
        "velocity": 0.63,
        "hand": "right"
      },
      {
        "midi": 74,
        "time": 2.25,
        "duration": 0.175,
        "velocity": 0.63,
        "hand": "right"
      },
      {
        "midi": 54,
        "time": 3,
        "duration": 0.175,
        "velocity": 0.63,
        "hand": "left"
      },
      {
        "midi": 69,
        "time": 3,
        "duration": 0.25,
        "velocity": 0.63,
        "hand": "right"
      },
      {
        "midi": 69,
        "time": 4,
        "duration": 0.175,
        "velocity": 0.63,
        "hand": "right"
      },
      {
        "midi": 71,
        "time": 4.75,
        "duration": 0.25,
        "velocity": 0.63,
        "hand": "right"
      },
      {
        "midi": 52,
        "time": 5.5,
        "duration": 0.175,
        "velocity": 0.63,
        "hand": "left"
      },
      {
        "midi": 61,
        "time": 5.5,
        "duration": 0.175,
        "velocity": 0.63,
        "hand": "right"
      },
      {
        "midi": 73,
        "time": 6.25,
        "duration": 0.25,
        "velocity": 0.63,
        "hand": "right"
      },
      {
        "midi": 73,
        "time": 7,
        "duration": 0.25,
        "velocity": 0.63,
        "hand": "right"
      },
      {
        "midi": 69,
        "time": 8,
        "duration": 0.25,
        "velocity": 0.63,
        "hand": "right"
      },
      {
        "midi": 71,
        "time": 8.75,
        "duration": 0.25,
        "velocity": 0.63,
        "hand": "right"
      },
      {
        "midi": 54,
        "time": 9.5,
        "duration": 0.175,
        "velocity": 0.63,
        "hand": "left"
      },
      {
        "midi": 62,
        "time": 9.5,
        "duration": 0.175,
        "velocity": 0.63,
        "hand": "right"
      },
      {
        "midi": 74,
        "time": 10.25,
        "duration": 0.175,
        "velocity": 0.63,
        "hand": "right"
      },
      {
        "midi": 54,
        "time": 11,
        "duration": 0.175,
        "velocity": 0.63,
        "hand": "left"
      },
      {
        "midi": 69,
        "time": 11,
        "duration": 0.25,
        "velocity": 0.63,
        "hand": "right"
      },
      {
        "midi": 69,
        "time": 12,
        "duration": 0.175,
        "velocity": 0.63,
        "hand": "right"
      },
      {
        "midi": 71,
        "time": 12.75,
        "duration": 0.25,
        "velocity": 0.63,
        "hand": "right"
      },
      {
        "midi": 52,
        "time": 13.5,
        "duration": 0.175,
        "velocity": 0.63,
        "hand": "left"
      },
      {
        "midi": 61,
        "time": 13.5,
        "duration": 0.175,
        "velocity": 0.63,
        "hand": "right"
      },
      {
        "midi": 73,
        "time": 14.25,
        "duration": 0.25,
        "velocity": 0.63,
        "hand": "right"
      },
      {
        "midi": 73,
        "time": 15,
        "duration": 0.25,
        "velocity": 0.63,
        "hand": "right"
      },
      {
        "midi": 59,
        "time": 15.75,
        "duration": 0.25,
        "velocity": 0.63,
        "hand": "left"
      },
      {
        "midi": 69,
        "time": 16.5,
        "duration": 0.175,
        "velocity": 0.63,
        "hand": "right"
      },
      {
        "midi": 52,
        "time": 17.25,
        "duration": 0.36,
        "velocity": 0.63,
        "hand": "left"
      },
      {
        "midi": 64,
        "time": 17.25,
        "duration": 0.5,
        "velocity": 0.63,
        "hand": "right"
      },
      {
        "midi": 57,
        "time": 18,
        "duration": 0.25,
        "velocity": 0.63,
        "hand": "left"
      },
      {
        "midi": 73,
        "time": 18,
        "duration": 0.175,
        "velocity": 0.63,
        "hand": "right"
      },
      {
        "midi": 62,
        "time": 18.75,
        "duration": 0.5,
        "velocity": 0.63,
        "hand": "right"
      },
      {
        "midi": 69,
        "time": 18.75,
        "duration": 0.5,
        "velocity": 0.63,
        "hand": "right"
      },
      {
        "midi": 74,
        "time": 19.5,
        "duration": 0.175,
        "velocity": 0.63,
        "hand": "right"
      },
      {
        "midi": 52,
        "time": 20.25,
        "duration": 0.36,
        "velocity": 0.63,
        "hand": "left"
      },
      {
        "midi": 64,
        "time": 20.25,
        "duration": 0.5,
        "velocity": 0.63,
        "hand": "right"
      },
      {
        "midi": 57,
        "time": 21,
        "duration": 0.25,
        "velocity": 0.63,
        "hand": "left"
      },
      {
        "midi": 69,
        "time": 21,
        "duration": 0.175,
        "velocity": 0.63,
        "hand": "right"
      },
      {
        "midi": 59,
        "time": 21.75,
        "duration": 0.25,
        "velocity": 0.63,
        "hand": "left"
      },
      {
        "midi": 69,
        "time": 21.75,
        "duration": 0.235,
        "velocity": 0.63,
        "hand": "right"
      },
      {
        "midi": 50,
        "time": 22.625,
        "duration": 0.175,
        "velocity": 0.63,
        "hand": "left"
      },
      {
        "midi": 57,
        "time": 23.5,
        "duration": 0.25,
        "velocity": 0.63,
        "hand": "left"
      },
      {
        "midi": 66,
        "time": 23.5,
        "duration": 0.25,
        "velocity": 0.63,
        "hand": "right"
      },
      {
        "midi": 52,
        "time": 24.25,
        "duration": 0.36,
        "velocity": 0.63,
        "hand": "left"
      },
      {
        "midi": 64,
        "time": 24.25,
        "duration": 0.5,
        "velocity": 0.63,
        "hand": "right"
      },
      {
        "midi": 57,
        "time": 25,
        "duration": 0.25,
        "velocity": 0.63,
        "hand": "left"
      },
      {
        "midi": 69,
        "time": 25,
        "duration": 0.175,
        "velocity": 0.63,
        "hand": "right"
      },
      {
        "midi": 59,
        "time": 25.75,
        "duration": 0.25,
        "velocity": 0.63,
        "hand": "left"
      },
      {
        "midi": 69,
        "time": 25.75,
        "duration": 0.5,
        "velocity": 0.63,
        "hand": "right"
      },
      {
        "midi": 74,
        "time": 26.5,
        "duration": 0.175,
        "velocity": 0.63,
        "hand": "right"
      },
      {
        "midi": 54,
        "time": 27.25,
        "duration": 0.36,
        "velocity": 0.63,
        "hand": "left"
      },
      {
        "midi": 66,
        "time": 27.25,
        "duration": 0.5,
        "velocity": 0.63,
        "hand": "right"
      },
      {
        "midi": 74,
        "time": 28,
        "duration": 0.175,
        "velocity": 0.63,
        "hand": "right"
      },
      {
        "midi": 61,
        "time": 28.75,
        "duration": 0.5,
        "velocity": 0.63,
        "hand": "right"
      },
      {
        "midi": 69,
        "time": 28.75,
        "duration": 0.235,
        "velocity": 0.63,
        "hand": "right"
      },
      {
        "midi": 69,
        "time": 29.5,
        "duration": 0.235,
        "velocity": 0.63,
        "hand": "right"
      },
      {
        "midi": 74,
        "time": 30.25,
        "duration": 0.485,
        "velocity": 0.63,
        "hand": "right"
      },
      {
        "midi": 45,
        "time": 31,
        "duration": 0.235,
        "velocity": 0.39,
        "hand": "left"
      },
      {
        "midi": 57,
        "time": 31,
        "duration": 0.25,
        "velocity": 0.63,
        "hand": "left"
      },
      {
        "midi": 68,
        "time": 31.75,
        "duration": 0.25,
        "velocity": 0.39,
        "hand": "right"
      },
      {
        "midi": 71,
        "time": 31.75,
        "duration": 0.25,
        "velocity": 0.63,
        "hand": "right"
      },
      {
        "midi": 45,
        "time": 32.5,
        "duration": 0.175,
        "velocity": 0.39,
        "hand": "left"
      },
      {
        "midi": 61,
        "time": 33.25,
        "duration": 0.5,
        "velocity": 0.63,
        "hand": "right"
      },
      {
        "midi": 57,
        "time": 34,
        "duration": 0.235,
        "velocity": 0.39,
        "hand": "left"
      },
      {
        "midi": 69,
        "time": 34,
        "duration": 0.235,
        "velocity": 0.63,
        "hand": "right"
      },
      {
        "midi": 59,
        "time": 34.75,
        "duration": 0.25,
        "velocity": 0.63,
        "hand": "left"
      },
      {
        "midi": 69,
        "time": 34.75,
        "duration": 0.5,
        "velocity": 0.63,
        "hand": "right"
      },
      {
        "midi": 64,
        "time": 35.5,
        "duration": 0.175,
        "velocity": 0.39,
        "hand": "right"
      },
      {
        "midi": 69,
        "time": 36.25,
        "duration": 0.485,
        "velocity": 0.63,
        "hand": "right"
      },
      {
        "midi": 49,
        "time": 37,
        "duration": 0.25,
        "velocity": 0.39,
        "hand": "left"
      },
      {
        "midi": 64,
        "time": 37,
        "duration": 0.175,
        "velocity": 0.39,
        "hand": "right"
      },
      {
        "midi": 67,
        "time": 37.75,
        "duration": 0.25,
        "velocity": 0.39,
        "hand": "right"
      },
      {
        "midi": 71,
        "time": 37.75,
        "duration": 0.25,
        "velocity": 0.63,
        "hand": "right"
      },
      {
        "midi": 62,
        "time": 38.5,
        "duration": 0.175,
        "velocity": 0.39,
        "hand": "right"
      },
      {
        "midi": 45,
        "time": 39.25,
        "duration": 0.235,
        "velocity": 0.39,
        "hand": "left"
      },
      {
        "midi": 54,
        "time": 39.25,
        "duration": 0.5,
        "velocity": 0.63,
        "hand": "left"
      },
      {
        "midi": 57,
        "time": 40,
        "duration": 0.175,
        "velocity": 0.39,
        "hand": "left"
      },
      {
        "midi": 69,
        "time": 40,
        "duration": 0.235,
        "velocity": 0.63,
        "hand": "right"
      },
      {
        "midi": 59,
        "time": 40.75,
        "duration": 0.25,
        "velocity": 0.63,
        "hand": "left"
      },
      {
        "midi": 69,
        "time": 40.75,
        "duration": 0.5,
        "velocity": 0.63,
        "hand": "right"
      },
      {
        "midi": 57,
        "time": 41.5,
        "duration": 0.25,
        "velocity": 0.39,
        "hand": "left"
      },
      {
        "midi": 69,
        "time": 41.5,
        "duration": 0.25,
        "velocity": 0.63,
        "hand": "right"
      },
      {
        "midi": 57,
        "time": 42.25,
        "duration": 0.485,
        "velocity": 0.39,
        "hand": "left"
      },
      {
        "midi": 69,
        "time": 42.25,
        "duration": 0.485,
        "velocity": 0.63,
        "hand": "right"
      },
      {
        "midi": 57,
        "time": 43,
        "duration": 0.25,
        "velocity": 0.63,
        "hand": "left"
      },
      {
        "midi": 64,
        "time": 43,
        "duration": 0.175,
        "velocity": 0.39,
        "hand": "right"
      },
      {
        "midi": 59,
        "time": 43.75,
        "duration": 0.25,
        "velocity": 0.39,
        "hand": "left"
      },
      {
        "midi": 71,
        "time": 43.75,
        "duration": 0.25,
        "velocity": 0.63,
        "hand": "right"
      },
      {
        "midi": 45,
        "time": 44.5,
        "duration": 0.25,
        "velocity": 0.39,
        "hand": "left"
      },
      {
        "midi": 57,
        "time": 44.5,
        "duration": 0.25,
        "velocity": 0.63,
        "hand": "left"
      },
      {
        "midi": 74,
        "time": 45.25,
        "duration": 0.485,
        "velocity": 0.63,
        "hand": "right"
      },
      {
        "midi": 50,
        "time": 46,
        "duration": 0.175,
        "velocity": 0.39,
        "hand": "left"
      },
      {
        "midi": 62,
        "time": 46,
        "duration": 0.175,
        "velocity": 0.63,
        "hand": "right"
      },
      {
        "midi": 74,
        "time": 47,
        "duration": 0.175,
        "velocity": 0.63,
        "hand": "right"
      },
      {
        "midi": 50,
        "time": 48,
        "duration": 0.175,
        "velocity": 0.63,
        "hand": "left"
      },
      {
        "midi": 62,
        "time": 48,
        "duration": 0.175,
        "velocity": 0.63,
        "hand": "right"
      },
      {
        "midi": 50,
        "time": 49,
        "duration": 0.175,
        "velocity": 0.63,
        "hand": "left"
      },
      {
        "midi": 62,
        "time": 49,
        "duration": 0.175,
        "velocity": 0.63,
        "hand": "right"
      },
      {
        "midi": 50,
        "time": 50,
        "duration": 0.175,
        "velocity": 0.63,
        "hand": "left"
      },
      {
        "midi": 50,
        "time": 51,
        "duration": 0.175,
        "velocity": 0.63,
        "hand": "left"
      },
      {
        "midi": 50,
        "time": 52,
        "duration": 0.175,
        "velocity": 0.63,
        "hand": "left"
      }
    ],
    "hard": [
      {
        "midi": 69,
        "time": 0,
        "duration": 0.25,
        "velocity": 0.63,
        "hand": "right"
      },
      {
        "midi": 74,
        "time": 0.25,
        "duration": 0.11,
        "velocity": 0.63,
        "hand": "right"
      },
      {
        "midi": 74,
        "time": 0.375,
        "duration": 0.25,
        "velocity": 0.63,
        "hand": "right"
      },
      {
        "midi": 54,
        "time": 0.5,
        "duration": 0.11,
        "velocity": 0.63,
        "hand": "left"
      },
      {
        "midi": 57,
        "time": 0.5,
        "duration": 0.11,
        "velocity": 0.63,
        "hand": "left"
      },
      {
        "midi": 62,
        "time": 0.5,
        "duration": 0.11,
        "velocity": 0.63,
        "hand": "right"
      },
      {
        "midi": 54,
        "time": 0.625,
        "duration": 0.125,
        "velocity": 0.63,
        "hand": "left"
      },
      {
        "midi": 57,
        "time": 0.625,
        "duration": 0.125,
        "velocity": 0.63,
        "hand": "left"
      },
      {
        "midi": 62,
        "time": 0.625,
        "duration": 0.125,
        "velocity": 0.63,
        "hand": "right"
      },
      {
        "midi": 69,
        "time": 0.625,
        "duration": 0.125,
        "velocity": 0.63,
        "hand": "right"
      },
      {
        "midi": 71,
        "time": 0.75,
        "duration": 0.25,
        "velocity": 0.63,
        "hand": "right"
      },
      {
        "midi": 54,
        "time": 1,
        "duration": 0.11,
        "velocity": 0.63,
        "hand": "left"
      },
      {
        "midi": 57,
        "time": 1,
        "duration": 0.11,
        "velocity": 0.63,
        "hand": "left"
      },
      {
        "midi": 62,
        "time": 1,
        "duration": 0.11,
        "velocity": 0.63,
        "hand": "right"
      },
      {
        "midi": 69,
        "time": 1,
        "duration": 0.25,
        "velocity": 0.63,
        "hand": "right"
      },
      {
        "midi": 54,
        "time": 1.125,
        "duration": 0.125,
        "velocity": 0.63,
        "hand": "left"
      },
      {
        "midi": 57,
        "time": 1.125,
        "duration": 0.125,
        "velocity": 0.63,
        "hand": "left"
      },
      {
        "midi": 62,
        "time": 1.125,
        "duration": 0.125,
        "velocity": 0.63,
        "hand": "right"
      },
      {
        "midi": 66,
        "time": 1.25,
        "duration": 0.5,
        "velocity": 0.63,
        "hand": "right"
      },
      {
        "midi": 54,
        "time": 1.5,
        "duration": 0.11,
        "velocity": 0.63,
        "hand": "left"
      },
      {
        "midi": 57,
        "time": 1.5,
        "duration": 0.11,
        "velocity": 0.63,
        "hand": "left"
      },
      {
        "midi": 62,
        "time": 1.5,
        "duration": 0.11,
        "velocity": 0.63,
        "hand": "right"
      },
      {
        "midi": 54,
        "time": 1.625,
        "duration": 0.125,
        "velocity": 0.63,
        "hand": "left"
      },
      {
        "midi": 57,
        "time": 1.625,
        "duration": 0.125,
        "velocity": 0.63,
        "hand": "left"
      },
      {
        "midi": 62,
        "time": 1.625,
        "duration": 0.125,
        "velocity": 0.63,
        "hand": "right"
      },
      {
        "midi": 54,
        "time": 2,
        "duration": 0.11,
        "velocity": 0.63,
        "hand": "left"
      },
      {
        "midi": 57,
        "time": 2,
        "duration": 0.11,
        "velocity": 0.63,
        "hand": "left"
      },
      {
        "midi": 62,
        "time": 2,
        "duration": 0.11,
        "velocity": 0.63,
        "hand": "right"
      },
      {
        "midi": 69,
        "time": 2,
        "duration": 0.25,
        "velocity": 0.63,
        "hand": "right"
      },
      {
        "midi": 54,
        "time": 2.125,
        "duration": 0.125,
        "velocity": 0.63,
        "hand": "left"
      },
      {
        "midi": 57,
        "time": 2.125,
        "duration": 0.125,
        "velocity": 0.63,
        "hand": "left"
      },
      {
        "midi": 62,
        "time": 2.125,
        "duration": 0.125,
        "velocity": 0.63,
        "hand": "right"
      },
      {
        "midi": 74,
        "time": 2.25,
        "duration": 0.11,
        "velocity": 0.63,
        "hand": "right"
      },
      {
        "midi": 74,
        "time": 2.375,
        "duration": 0.25,
        "velocity": 0.63,
        "hand": "right"
      },
      {
        "midi": 54,
        "time": 2.5,
        "duration": 0.11,
        "velocity": 0.63,
        "hand": "left"
      },
      {
        "midi": 57,
        "time": 2.5,
        "duration": 0.11,
        "velocity": 0.63,
        "hand": "left"
      },
      {
        "midi": 62,
        "time": 2.5,
        "duration": 0.11,
        "velocity": 0.63,
        "hand": "right"
      },
      {
        "midi": 54,
        "time": 2.625,
        "duration": 0.125,
        "velocity": 0.63,
        "hand": "left"
      },
      {
        "midi": 57,
        "time": 2.625,
        "duration": 0.125,
        "velocity": 0.63,
        "hand": "left"
      },
      {
        "midi": 62,
        "time": 2.625,
        "duration": 0.125,
        "velocity": 0.63,
        "hand": "right"
      },
      {
        "midi": 69,
        "time": 2.625,
        "duration": 0.125,
        "velocity": 0.63,
        "hand": "right"
      },
      {
        "midi": 71,
        "time": 2.75,
        "duration": 0.25,
        "velocity": 0.63,
        "hand": "right"
      },
      {
        "midi": 54,
        "time": 3,
        "duration": 0.11,
        "velocity": 0.63,
        "hand": "left"
      },
      {
        "midi": 57,
        "time": 3,
        "duration": 0.11,
        "velocity": 0.63,
        "hand": "left"
      },
      {
        "midi": 62,
        "time": 3,
        "duration": 0.11,
        "velocity": 0.63,
        "hand": "right"
      },
      {
        "midi": 69,
        "time": 3,
        "duration": 0.25,
        "velocity": 0.63,
        "hand": "right"
      },
      {
        "midi": 54,
        "time": 3.125,
        "duration": 0.125,
        "velocity": 0.63,
        "hand": "left"
      },
      {
        "midi": 57,
        "time": 3.125,
        "duration": 0.125,
        "velocity": 0.63,
        "hand": "left"
      },
      {
        "midi": 62,
        "time": 3.125,
        "duration": 0.125,
        "velocity": 0.63,
        "hand": "right"
      },
      {
        "midi": 73,
        "time": 3.25,
        "duration": 0.5,
        "velocity": 0.63,
        "hand": "right"
      },
      {
        "midi": 52,
        "time": 3.5,
        "duration": 0.11,
        "velocity": 0.63,
        "hand": "left"
      },
      {
        "midi": 57,
        "time": 3.5,
        "duration": 0.11,
        "velocity": 0.63,
        "hand": "left"
      },
      {
        "midi": 61,
        "time": 3.5,
        "duration": 0.11,
        "velocity": 0.63,
        "hand": "right"
      },
      {
        "midi": 52,
        "time": 3.625,
        "duration": 0.125,
        "velocity": 0.63,
        "hand": "left"
      },
      {
        "midi": 57,
        "time": 3.625,
        "duration": 0.125,
        "velocity": 0.63,
        "hand": "left"
      },
      {
        "midi": 61,
        "time": 3.625,
        "duration": 0.125,
        "velocity": 0.63,
        "hand": "right"
      },
      {
        "midi": 52,
        "time": 4,
        "duration": 0.11,
        "velocity": 0.63,
        "hand": "left"
      },
      {
        "midi": 57,
        "time": 4,
        "duration": 0.11,
        "velocity": 0.63,
        "hand": "left"
      },
      {
        "midi": 61,
        "time": 4,
        "duration": 0.11,
        "velocity": 0.63,
        "hand": "right"
      },
      {
        "midi": 69,
        "time": 4,
        "duration": 0.11,
        "velocity": 0.63,
        "hand": "right"
      },
      {
        "midi": 52,
        "time": 4.125,
        "duration": 0.125,
        "velocity": 0.63,
        "hand": "left"
      },
      {
        "midi": 57,
        "time": 4.125,
        "duration": 0.125,
        "velocity": 0.63,
        "hand": "left"
      },
      {
        "midi": 61,
        "time": 4.125,
        "duration": 0.125,
        "velocity": 0.63,
        "hand": "right"
      },
      {
        "midi": 69,
        "time": 4.125,
        "duration": 0.125,
        "velocity": 0.63,
        "hand": "right"
      },
      {
        "midi": 73,
        "time": 4.25,
        "duration": 0.11,
        "velocity": 0.63,
        "hand": "right"
      },
      {
        "midi": 73,
        "time": 4.375,
        "duration": 0.25,
        "velocity": 0.63,
        "hand": "right"
      },
      {
        "midi": 52,
        "time": 4.5,
        "duration": 0.11,
        "velocity": 0.63,
        "hand": "left"
      },
      {
        "midi": 57,
        "time": 4.5,
        "duration": 0.11,
        "velocity": 0.63,
        "hand": "left"
      },
      {
        "midi": 61,
        "time": 4.5,
        "duration": 0.11,
        "velocity": 0.63,
        "hand": "right"
      },
      {
        "midi": 52,
        "time": 4.625,
        "duration": 0.125,
        "velocity": 0.63,
        "hand": "left"
      },
      {
        "midi": 57,
        "time": 4.625,
        "duration": 0.125,
        "velocity": 0.63,
        "hand": "left"
      },
      {
        "midi": 61,
        "time": 4.625,
        "duration": 0.125,
        "velocity": 0.63,
        "hand": "right"
      },
      {
        "midi": 69,
        "time": 4.625,
        "duration": 0.125,
        "velocity": 0.63,
        "hand": "right"
      },
      {
        "midi": 71,
        "time": 4.75,
        "duration": 0.25,
        "velocity": 0.63,
        "hand": "right"
      },
      {
        "midi": 52,
        "time": 5,
        "duration": 0.11,
        "velocity": 0.63,
        "hand": "left"
      },
      {
        "midi": 57,
        "time": 5,
        "duration": 0.11,
        "velocity": 0.63,
        "hand": "left"
      },
      {
        "midi": 61,
        "time": 5,
        "duration": 0.11,
        "velocity": 0.63,
        "hand": "right"
      },
      {
        "midi": 69,
        "time": 5,
        "duration": 0.25,
        "velocity": 0.63,
        "hand": "right"
      },
      {
        "midi": 52,
        "time": 5.125,
        "duration": 0.125,
        "velocity": 0.63,
        "hand": "left"
      },
      {
        "midi": 57,
        "time": 5.125,
        "duration": 0.125,
        "velocity": 0.63,
        "hand": "left"
      },
      {
        "midi": 61,
        "time": 5.125,
        "duration": 0.125,
        "velocity": 0.63,
        "hand": "right"
      },
      {
        "midi": 73,
        "time": 5.25,
        "duration": 0.11,
        "velocity": 0.63,
        "hand": "right"
      },
      {
        "midi": 73,
        "time": 5.375,
        "duration": 0.25,
        "velocity": 0.63,
        "hand": "right"
      },
      {
        "midi": 52,
        "time": 5.5,
        "duration": 0.11,
        "velocity": 0.63,
        "hand": "left"
      },
      {
        "midi": 57,
        "time": 5.5,
        "duration": 0.11,
        "velocity": 0.63,
        "hand": "left"
      },
      {
        "midi": 61,
        "time": 5.5,
        "duration": 0.11,
        "velocity": 0.63,
        "hand": "right"
      },
      {
        "midi": 52,
        "time": 5.625,
        "duration": 0.125,
        "velocity": 0.63,
        "hand": "left"
      },
      {
        "midi": 57,
        "time": 5.625,
        "duration": 0.125,
        "velocity": 0.63,
        "hand": "left"
      },
      {
        "midi": 61,
        "time": 5.625,
        "duration": 0.125,
        "velocity": 0.63,
        "hand": "right"
      },
      {
        "midi": 69,
        "time": 5.625,
        "duration": 0.125,
        "velocity": 0.63,
        "hand": "right"
      },
      {
        "midi": 71,
        "time": 5.75,
        "duration": 0.25,
        "velocity": 0.63,
        "hand": "right"
      },
      {
        "midi": 52,
        "time": 6,
        "duration": 0.11,
        "velocity": 0.63,
        "hand": "left"
      },
      {
        "midi": 57,
        "time": 6,
        "duration": 0.11,
        "velocity": 0.63,
        "hand": "left"
      },
      {
        "midi": 61,
        "time": 6,
        "duration": 0.11,
        "velocity": 0.63,
        "hand": "right"
      },
      {
        "midi": 69,
        "time": 6,
        "duration": 0.25,
        "velocity": 0.63,
        "hand": "right"
      },
      {
        "midi": 52,
        "time": 6.125,
        "duration": 0.125,
        "velocity": 0.63,
        "hand": "left"
      },
      {
        "midi": 57,
        "time": 6.125,
        "duration": 0.125,
        "velocity": 0.63,
        "hand": "left"
      },
      {
        "midi": 61,
        "time": 6.125,
        "duration": 0.125,
        "velocity": 0.63,
        "hand": "right"
      },
      {
        "midi": 73,
        "time": 6.25,
        "duration": 0.25,
        "velocity": 0.63,
        "hand": "right"
      },
      {
        "midi": 52,
        "time": 6.5,
        "duration": 0.11,
        "velocity": 0.63,
        "hand": "left"
      },
      {
        "midi": 57,
        "time": 6.5,
        "duration": 0.11,
        "velocity": 0.63,
        "hand": "left"
      },
      {
        "midi": 61,
        "time": 6.5,
        "duration": 0.11,
        "velocity": 0.63,
        "hand": "right"
      },
      {
        "midi": 69,
        "time": 6.5,
        "duration": 0.25,
        "velocity": 0.63,
        "hand": "right"
      },
      {
        "midi": 52,
        "time": 6.625,
        "duration": 0.125,
        "velocity": 0.63,
        "hand": "left"
      },
      {
        "midi": 57,
        "time": 6.625,
        "duration": 0.125,
        "velocity": 0.63,
        "hand": "left"
      },
      {
        "midi": 61,
        "time": 6.625,
        "duration": 0.125,
        "velocity": 0.63,
        "hand": "right"
      },
      {
        "midi": 71,
        "time": 6.75,
        "duration": 0.25,
        "velocity": 0.63,
        "hand": "right"
      },
      {
        "midi": 52,
        "time": 7,
        "duration": 0.11,
        "velocity": 0.63,
        "hand": "left"
      },
      {
        "midi": 57,
        "time": 7,
        "duration": 0.11,
        "velocity": 0.63,
        "hand": "left"
      },
      {
        "midi": 61,
        "time": 7,
        "duration": 0.11,
        "velocity": 0.63,
        "hand": "right"
      },
      {
        "midi": 73,
        "time": 7,
        "duration": 0.25,
        "velocity": 0.63,
        "hand": "right"
      },
      {
        "midi": 52,
        "time": 7.125,
        "duration": 0.125,
        "velocity": 0.63,
        "hand": "left"
      },
      {
        "midi": 57,
        "time": 7.125,
        "duration": 0.11,
        "velocity": 0.63,
        "hand": "left"
      },
      {
        "midi": 61,
        "time": 7.125,
        "duration": 0.125,
        "velocity": 0.63,
        "hand": "right"
      },
      {
        "midi": 54,
        "time": 7.25,
        "duration": 0.25,
        "velocity": 0.63,
        "hand": "left"
      },
      {
        "midi": 57,
        "time": 7.25,
        "duration": 0.25,
        "velocity": 0.63,
        "hand": "left"
      },
      {
        "midi": 62,
        "time": 7.25,
        "duration": 0.25,
        "velocity": 0.63,
        "hand": "right"
      },
      {
        "midi": 74,
        "time": 7.25,
        "duration": 0.25,
        "velocity": 0.63,
        "hand": "right"
      },
      {
        "midi": 69,
        "time": 8,
        "duration": 0.25,
        "velocity": 0.63,
        "hand": "right"
      },
      {
        "midi": 74,
        "time": 8.25,
        "duration": 0.11,
        "velocity": 0.63,
        "hand": "right"
      },
      {
        "midi": 74,
        "time": 8.375,
        "duration": 0.25,
        "velocity": 0.63,
        "hand": "right"
      },
      {
        "midi": 54,
        "time": 8.5,
        "duration": 0.11,
        "velocity": 0.63,
        "hand": "left"
      },
      {
        "midi": 57,
        "time": 8.5,
        "duration": 0.11,
        "velocity": 0.63,
        "hand": "left"
      },
      {
        "midi": 62,
        "time": 8.5,
        "duration": 0.11,
        "velocity": 0.63,
        "hand": "right"
      },
      {
        "midi": 54,
        "time": 8.625,
        "duration": 0.125,
        "velocity": 0.63,
        "hand": "left"
      },
      {
        "midi": 57,
        "time": 8.625,
        "duration": 0.125,
        "velocity": 0.63,
        "hand": "left"
      },
      {
        "midi": 62,
        "time": 8.625,
        "duration": 0.125,
        "velocity": 0.63,
        "hand": "right"
      },
      {
        "midi": 69,
        "time": 8.625,
        "duration": 0.125,
        "velocity": 0.63,
        "hand": "right"
      },
      {
        "midi": 71,
        "time": 8.75,
        "duration": 0.25,
        "velocity": 0.63,
        "hand": "right"
      },
      {
        "midi": 54,
        "time": 9,
        "duration": 0.11,
        "velocity": 0.63,
        "hand": "left"
      },
      {
        "midi": 57,
        "time": 9,
        "duration": 0.11,
        "velocity": 0.63,
        "hand": "left"
      },
      {
        "midi": 62,
        "time": 9,
        "duration": 0.11,
        "velocity": 0.63,
        "hand": "right"
      },
      {
        "midi": 69,
        "time": 9,
        "duration": 0.25,
        "velocity": 0.63,
        "hand": "right"
      },
      {
        "midi": 54,
        "time": 9.125,
        "duration": 0.125,
        "velocity": 0.63,
        "hand": "left"
      },
      {
        "midi": 57,
        "time": 9.125,
        "duration": 0.125,
        "velocity": 0.63,
        "hand": "left"
      },
      {
        "midi": 62,
        "time": 9.125,
        "duration": 0.125,
        "velocity": 0.63,
        "hand": "right"
      },
      {
        "midi": 66,
        "time": 9.25,
        "duration": 0.5,
        "velocity": 0.63,
        "hand": "right"
      },
      {
        "midi": 54,
        "time": 9.5,
        "duration": 0.11,
        "velocity": 0.63,
        "hand": "left"
      },
      {
        "midi": 57,
        "time": 9.5,
        "duration": 0.11,
        "velocity": 0.63,
        "hand": "left"
      },
      {
        "midi": 62,
        "time": 9.5,
        "duration": 0.11,
        "velocity": 0.63,
        "hand": "right"
      },
      {
        "midi": 54,
        "time": 9.625,
        "duration": 0.125,
        "velocity": 0.63,
        "hand": "left"
      },
      {
        "midi": 57,
        "time": 9.625,
        "duration": 0.125,
        "velocity": 0.63,
        "hand": "left"
      },
      {
        "midi": 62,
        "time": 9.625,
        "duration": 0.125,
        "velocity": 0.63,
        "hand": "right"
      },
      {
        "midi": 54,
        "time": 10,
        "duration": 0.11,
        "velocity": 0.63,
        "hand": "left"
      },
      {
        "midi": 57,
        "time": 10,
        "duration": 0.11,
        "velocity": 0.63,
        "hand": "left"
      },
      {
        "midi": 62,
        "time": 10,
        "duration": 0.11,
        "velocity": 0.63,
        "hand": "right"
      },
      {
        "midi": 69,
        "time": 10,
        "duration": 0.25,
        "velocity": 0.63,
        "hand": "right"
      },
      {
        "midi": 54,
        "time": 10.125,
        "duration": 0.125,
        "velocity": 0.63,
        "hand": "left"
      },
      {
        "midi": 57,
        "time": 10.125,
        "duration": 0.125,
        "velocity": 0.63,
        "hand": "left"
      },
      {
        "midi": 62,
        "time": 10.125,
        "duration": 0.125,
        "velocity": 0.63,
        "hand": "right"
      },
      {
        "midi": 74,
        "time": 10.25,
        "duration": 0.11,
        "velocity": 0.63,
        "hand": "right"
      },
      {
        "midi": 74,
        "time": 10.375,
        "duration": 0.25,
        "velocity": 0.63,
        "hand": "right"
      },
      {
        "midi": 54,
        "time": 10.5,
        "duration": 0.11,
        "velocity": 0.63,
        "hand": "left"
      },
      {
        "midi": 57,
        "time": 10.5,
        "duration": 0.11,
        "velocity": 0.63,
        "hand": "left"
      },
      {
        "midi": 62,
        "time": 10.5,
        "duration": 0.11,
        "velocity": 0.63,
        "hand": "right"
      },
      {
        "midi": 54,
        "time": 10.625,
        "duration": 0.125,
        "velocity": 0.63,
        "hand": "left"
      },
      {
        "midi": 57,
        "time": 10.625,
        "duration": 0.125,
        "velocity": 0.63,
        "hand": "left"
      },
      {
        "midi": 62,
        "time": 10.625,
        "duration": 0.125,
        "velocity": 0.63,
        "hand": "right"
      },
      {
        "midi": 69,
        "time": 10.625,
        "duration": 0.125,
        "velocity": 0.63,
        "hand": "right"
      },
      {
        "midi": 71,
        "time": 10.75,
        "duration": 0.25,
        "velocity": 0.63,
        "hand": "right"
      },
      {
        "midi": 54,
        "time": 11,
        "duration": 0.11,
        "velocity": 0.63,
        "hand": "left"
      },
      {
        "midi": 57,
        "time": 11,
        "duration": 0.11,
        "velocity": 0.63,
        "hand": "left"
      },
      {
        "midi": 62,
        "time": 11,
        "duration": 0.11,
        "velocity": 0.63,
        "hand": "right"
      },
      {
        "midi": 69,
        "time": 11,
        "duration": 0.25,
        "velocity": 0.63,
        "hand": "right"
      },
      {
        "midi": 54,
        "time": 11.125,
        "duration": 0.125,
        "velocity": 0.63,
        "hand": "left"
      },
      {
        "midi": 57,
        "time": 11.125,
        "duration": 0.125,
        "velocity": 0.63,
        "hand": "left"
      },
      {
        "midi": 62,
        "time": 11.125,
        "duration": 0.125,
        "velocity": 0.63,
        "hand": "right"
      },
      {
        "midi": 73,
        "time": 11.25,
        "duration": 0.5,
        "velocity": 0.63,
        "hand": "right"
      },
      {
        "midi": 52,
        "time": 11.5,
        "duration": 0.11,
        "velocity": 0.63,
        "hand": "left"
      },
      {
        "midi": 57,
        "time": 11.5,
        "duration": 0.11,
        "velocity": 0.63,
        "hand": "left"
      },
      {
        "midi": 61,
        "time": 11.5,
        "duration": 0.11,
        "velocity": 0.63,
        "hand": "right"
      },
      {
        "midi": 52,
        "time": 11.625,
        "duration": 0.125,
        "velocity": 0.63,
        "hand": "left"
      },
      {
        "midi": 57,
        "time": 11.625,
        "duration": 0.125,
        "velocity": 0.63,
        "hand": "left"
      },
      {
        "midi": 61,
        "time": 11.625,
        "duration": 0.125,
        "velocity": 0.63,
        "hand": "right"
      },
      {
        "midi": 52,
        "time": 12,
        "duration": 0.11,
        "velocity": 0.63,
        "hand": "left"
      },
      {
        "midi": 57,
        "time": 12,
        "duration": 0.11,
        "velocity": 0.63,
        "hand": "left"
      },
      {
        "midi": 61,
        "time": 12,
        "duration": 0.11,
        "velocity": 0.63,
        "hand": "right"
      },
      {
        "midi": 69,
        "time": 12,
        "duration": 0.11,
        "velocity": 0.63,
        "hand": "right"
      },
      {
        "midi": 52,
        "time": 12.125,
        "duration": 0.125,
        "velocity": 0.63,
        "hand": "left"
      },
      {
        "midi": 57,
        "time": 12.125,
        "duration": 0.125,
        "velocity": 0.63,
        "hand": "left"
      },
      {
        "midi": 61,
        "time": 12.125,
        "duration": 0.125,
        "velocity": 0.63,
        "hand": "right"
      },
      {
        "midi": 69,
        "time": 12.125,
        "duration": 0.125,
        "velocity": 0.63,
        "hand": "right"
      },
      {
        "midi": 73,
        "time": 12.25,
        "duration": 0.11,
        "velocity": 0.63,
        "hand": "right"
      },
      {
        "midi": 73,
        "time": 12.375,
        "duration": 0.25,
        "velocity": 0.63,
        "hand": "right"
      },
      {
        "midi": 52,
        "time": 12.5,
        "duration": 0.11,
        "velocity": 0.63,
        "hand": "left"
      },
      {
        "midi": 57,
        "time": 12.5,
        "duration": 0.11,
        "velocity": 0.63,
        "hand": "left"
      },
      {
        "midi": 61,
        "time": 12.5,
        "duration": 0.11,
        "velocity": 0.63,
        "hand": "right"
      },
      {
        "midi": 52,
        "time": 12.625,
        "duration": 0.125,
        "velocity": 0.63,
        "hand": "left"
      },
      {
        "midi": 57,
        "time": 12.625,
        "duration": 0.125,
        "velocity": 0.63,
        "hand": "left"
      },
      {
        "midi": 61,
        "time": 12.625,
        "duration": 0.125,
        "velocity": 0.63,
        "hand": "right"
      },
      {
        "midi": 69,
        "time": 12.625,
        "duration": 0.125,
        "velocity": 0.63,
        "hand": "right"
      },
      {
        "midi": 71,
        "time": 12.75,
        "duration": 0.25,
        "velocity": 0.63,
        "hand": "right"
      },
      {
        "midi": 52,
        "time": 13,
        "duration": 0.11,
        "velocity": 0.63,
        "hand": "left"
      },
      {
        "midi": 57,
        "time": 13,
        "duration": 0.11,
        "velocity": 0.63,
        "hand": "left"
      },
      {
        "midi": 61,
        "time": 13,
        "duration": 0.11,
        "velocity": 0.63,
        "hand": "right"
      },
      {
        "midi": 69,
        "time": 13,
        "duration": 0.25,
        "velocity": 0.63,
        "hand": "right"
      },
      {
        "midi": 52,
        "time": 13.125,
        "duration": 0.125,
        "velocity": 0.63,
        "hand": "left"
      },
      {
        "midi": 57,
        "time": 13.125,
        "duration": 0.125,
        "velocity": 0.63,
        "hand": "left"
      },
      {
        "midi": 61,
        "time": 13.125,
        "duration": 0.125,
        "velocity": 0.63,
        "hand": "right"
      },
      {
        "midi": 73,
        "time": 13.25,
        "duration": 0.11,
        "velocity": 0.63,
        "hand": "right"
      },
      {
        "midi": 73,
        "time": 13.375,
        "duration": 0.25,
        "velocity": 0.63,
        "hand": "right"
      },
      {
        "midi": 52,
        "time": 13.5,
        "duration": 0.11,
        "velocity": 0.63,
        "hand": "left"
      },
      {
        "midi": 57,
        "time": 13.5,
        "duration": 0.11,
        "velocity": 0.63,
        "hand": "left"
      },
      {
        "midi": 61,
        "time": 13.5,
        "duration": 0.11,
        "velocity": 0.63,
        "hand": "right"
      },
      {
        "midi": 52,
        "time": 13.625,
        "duration": 0.125,
        "velocity": 0.63,
        "hand": "left"
      },
      {
        "midi": 57,
        "time": 13.625,
        "duration": 0.125,
        "velocity": 0.63,
        "hand": "left"
      },
      {
        "midi": 61,
        "time": 13.625,
        "duration": 0.125,
        "velocity": 0.63,
        "hand": "right"
      },
      {
        "midi": 69,
        "time": 13.625,
        "duration": 0.125,
        "velocity": 0.63,
        "hand": "right"
      },
      {
        "midi": 71,
        "time": 13.75,
        "duration": 0.25,
        "velocity": 0.63,
        "hand": "right"
      },
      {
        "midi": 52,
        "time": 14,
        "duration": 0.11,
        "velocity": 0.63,
        "hand": "left"
      },
      {
        "midi": 57,
        "time": 14,
        "duration": 0.11,
        "velocity": 0.63,
        "hand": "left"
      },
      {
        "midi": 61,
        "time": 14,
        "duration": 0.11,
        "velocity": 0.63,
        "hand": "right"
      },
      {
        "midi": 69,
        "time": 14,
        "duration": 0.25,
        "velocity": 0.63,
        "hand": "right"
      },
      {
        "midi": 52,
        "time": 14.125,
        "duration": 0.125,
        "velocity": 0.63,
        "hand": "left"
      },
      {
        "midi": 57,
        "time": 14.125,
        "duration": 0.125,
        "velocity": 0.63,
        "hand": "left"
      },
      {
        "midi": 61,
        "time": 14.125,
        "duration": 0.125,
        "velocity": 0.63,
        "hand": "right"
      },
      {
        "midi": 73,
        "time": 14.25,
        "duration": 0.25,
        "velocity": 0.63,
        "hand": "right"
      },
      {
        "midi": 52,
        "time": 14.5,
        "duration": 0.11,
        "velocity": 0.63,
        "hand": "left"
      },
      {
        "midi": 57,
        "time": 14.5,
        "duration": 0.11,
        "velocity": 0.63,
        "hand": "left"
      },
      {
        "midi": 61,
        "time": 14.5,
        "duration": 0.11,
        "velocity": 0.63,
        "hand": "right"
      },
      {
        "midi": 69,
        "time": 14.5,
        "duration": 0.25,
        "velocity": 0.63,
        "hand": "right"
      },
      {
        "midi": 52,
        "time": 14.625,
        "duration": 0.125,
        "velocity": 0.63,
        "hand": "left"
      },
      {
        "midi": 57,
        "time": 14.625,
        "duration": 0.125,
        "velocity": 0.63,
        "hand": "left"
      },
      {
        "midi": 61,
        "time": 14.625,
        "duration": 0.125,
        "velocity": 0.63,
        "hand": "right"
      },
      {
        "midi": 71,
        "time": 14.75,
        "duration": 0.25,
        "velocity": 0.63,
        "hand": "right"
      },
      {
        "midi": 52,
        "time": 15,
        "duration": 0.11,
        "velocity": 0.63,
        "hand": "left"
      },
      {
        "midi": 57,
        "time": 15,
        "duration": 0.11,
        "velocity": 0.63,
        "hand": "left"
      },
      {
        "midi": 61,
        "time": 15,
        "duration": 0.11,
        "velocity": 0.63,
        "hand": "right"
      },
      {
        "midi": 73,
        "time": 15,
        "duration": 0.25,
        "velocity": 0.63,
        "hand": "right"
      },
      {
        "midi": 52,
        "time": 15.125,
        "duration": 0.125,
        "velocity": 0.63,
        "hand": "left"
      },
      {
        "midi": 57,
        "time": 15.125,
        "duration": 0.11,
        "velocity": 0.63,
        "hand": "left"
      },
      {
        "midi": 61,
        "time": 15.125,
        "duration": 0.125,
        "velocity": 0.63,
        "hand": "right"
      },
      {
        "midi": 54,
        "time": 15.25,
        "duration": 0.25,
        "velocity": 0.63,
        "hand": "left"
      },
      {
        "midi": 57,
        "time": 15.25,
        "duration": 0.235,
        "velocity": 0.63,
        "hand": "left"
      },
      {
        "midi": 62,
        "time": 15.25,
        "duration": 0.25,
        "velocity": 0.63,
        "hand": "right"
      },
      {
        "midi": 74,
        "time": 15.25,
        "duration": 0.25,
        "velocity": 0.63,
        "hand": "right"
      },
      {
        "midi": 57,
        "time": 15.5,
        "duration": 0.25,
        "velocity": 0.63,
        "hand": "left"
      },
      {
        "midi": 59,
        "time": 15.75,
        "duration": 0.25,
        "velocity": 0.63,
        "hand": "left"
      },
      {
        "midi": 57,
        "time": 16,
        "duration": 0.235,
        "velocity": 0.63,
        "hand": "left"
      },
      {
        "midi": 52,
        "time": 16.25,
        "duration": 0.36,
        "velocity": 0.63,
        "hand": "left"
      },
      {
        "midi": 57,
        "time": 16.25,
        "duration": 0.5,
        "velocity": 0.63,
        "hand": "left"
      },
      {
        "midi": 64,
        "time": 16.25,
        "duration": 0.5,
        "velocity": 0.63,
        "hand": "right"
      },
      {
        "midi": 69,
        "time": 16.5,
        "duration": 0.11,
        "velocity": 0.63,
        "hand": "right"
      },
      {
        "midi": 52,
        "time": 16.625,
        "duration": 0.375,
        "velocity": 0.63,
        "hand": "left"
      },
      {
        "midi": 69,
        "time": 16.625,
        "duration": 0.11,
        "velocity": 0.63,
        "hand": "right"
      },
      {
        "midi": 61,
        "time": 16.75,
        "duration": 0.5,
        "velocity": 0.63,
        "hand": "right"
      },
      {
        "midi": 69,
        "time": 16.75,
        "duration": 0.235,
        "velocity": 0.63,
        "hand": "right"
      },
      {
        "midi": 45,
        "time": 17,
        "duration": 0.25,
        "velocity": 0.63,
        "hand": "left"
      },
      {
        "midi": 69,
        "time": 17,
        "duration": 0.11,
        "velocity": 0.63,
        "hand": "right"
      },
      {
        "midi": 69,
        "time": 17.125,
        "duration": 0.125,
        "velocity": 0.63,
        "hand": "right"
      },
      {
        "midi": 52,
        "time": 17.25,
        "duration": 0.36,
        "velocity": 0.63,
        "hand": "left"
      },
      {
        "midi": 64,
        "time": 17.25,
        "duration": 0.5,
        "velocity": 0.63,
        "hand": "right"
      },
      {
        "midi": 57,
        "time": 17.375,
        "duration": 0.235,
        "velocity": 0.63,
        "hand": "left"
      },
      {
        "midi": 73,
        "time": 17.5,
        "duration": 0.11,
        "velocity": 0.63,
        "hand": "right"
      },
      {
        "midi": 52,
        "time": 17.625,
        "duration": 0.375,
        "velocity": 0.63,
        "hand": "left"
      },
      {
        "midi": 57,
        "time": 17.625,
        "duration": 0.125,
        "velocity": 0.63,
        "hand": "left"
      },
      {
        "midi": 73,
        "time": 17.625,
        "duration": 0.125,
        "velocity": 0.63,
        "hand": "right"
      },
      {
        "midi": 59,
        "time": 17.75,
        "duration": 0.25,
        "velocity": 0.63,
        "hand": "left"
      },
      {
        "midi": 69,
        "time": 17.75,
        "duration": 0.5,
        "velocity": 0.63,
        "hand": "right"
      },
      {
        "midi": 45,
        "time": 18,
        "duration": 0.25,
        "velocity": 0.63,
        "hand": "left"
      },
      {
        "midi": 57,
        "time": 18,
        "duration": 0.235,
        "velocity": 0.63,
        "hand": "left"
      },
      {
        "midi": 73,
        "time": 18,
        "duration": 0.11,
        "velocity": 0.63,
        "hand": "right"
      },
      {
        "midi": 73,
        "time": 18.125,
        "duration": 0.125,
        "velocity": 0.63,
        "hand": "right"
      },
      {
        "midi": 54,
        "time": 18.25,
        "duration": 0.36,
        "velocity": 0.63,
        "hand": "left"
      },
      {
        "midi": 57,
        "time": 18.25,
        "duration": 0.5,
        "velocity": 0.63,
        "hand": "left"
      },
      {
        "midi": 66,
        "time": 18.25,
        "duration": 0.5,
        "velocity": 0.63,
        "hand": "right"
      },
      {
        "midi": 74,
        "time": 18.5,
        "duration": 0.11,
        "velocity": 0.63,
        "hand": "right"
      },
      {
        "midi": 54,
        "time": 18.625,
        "duration": 0.375,
        "velocity": 0.63,
        "hand": "left"
      },
      {
        "midi": 74,
        "time": 18.625,
        "duration": 0.125,
        "velocity": 0.63,
        "hand": "right"
      },
      {
        "midi": 62,
        "time": 18.75,
        "duration": 0.5,
        "velocity": 0.63,
        "hand": "right"
      },
      {
        "midi": 69,
        "time": 18.75,
        "duration": 0.5,
        "velocity": 0.63,
        "hand": "right"
      },
      {
        "midi": 50,
        "time": 19,
        "duration": 0.25,
        "velocity": 0.63,
        "hand": "left"
      },
      {
        "midi": 74,
        "time": 19,
        "duration": 0.11,
        "velocity": 0.63,
        "hand": "right"
      },
      {
        "midi": 74,
        "time": 19.125,
        "duration": 0.125,
        "velocity": 0.63,
        "hand": "right"
      },
      {
        "midi": 54,
        "time": 19.25,
        "duration": 0.36,
        "velocity": 0.63,
        "hand": "left"
      },
      {
        "midi": 66,
        "time": 19.25,
        "duration": 0.5,
        "velocity": 0.63,
        "hand": "right"
      },
      {
        "midi": 57,
        "time": 19.375,
        "duration": 0.235,
        "velocity": 0.63,
        "hand": "left"
      },
      {
        "midi": 74,
        "time": 19.5,
        "duration": 0.11,
        "velocity": 0.63,
        "hand": "right"
      },
      {
        "midi": 54,
        "time": 19.625,
        "duration": 0.375,
        "velocity": 0.63,
        "hand": "left"
      },
      {
        "midi": 57,
        "time": 19.625,
        "duration": 0.125,
        "velocity": 0.63,
        "hand": "left"
      },
      {
        "midi": 74,
        "time": 19.625,
        "duration": 0.125,
        "velocity": 0.63,
        "hand": "right"
      },
      {
        "midi": 59,
        "time": 19.75,
        "duration": 0.25,
        "velocity": 0.63,
        "hand": "left"
      },
      {
        "midi": 69,
        "time": 19.75,
        "duration": 0.5,
        "velocity": 0.63,
        "hand": "right"
      },
      {
        "midi": 50,
        "time": 20,
        "duration": 0.25,
        "velocity": 0.63,
        "hand": "left"
      },
      {
        "midi": 57,
        "time": 20,
        "duration": 0.235,
        "velocity": 0.63,
        "hand": "left"
      },
      {
        "midi": 74,
        "time": 20,
        "duration": 0.11,
        "velocity": 0.63,
        "hand": "right"
      },
      {
        "midi": 74,
        "time": 20.125,
        "duration": 0.125,
        "velocity": 0.63,
        "hand": "right"
      },
      {
        "midi": 52,
        "time": 20.25,
        "duration": 0.36,
        "velocity": 0.63,
        "hand": "left"
      },
      {
        "midi": 57,
        "time": 20.25,
        "duration": 0.5,
        "velocity": 0.63,
        "hand": "left"
      },
      {
        "midi": 64,
        "time": 20.25,
        "duration": 0.5,
        "velocity": 0.63,
        "hand": "right"
      },
      {
        "midi": 69,
        "time": 20.5,
        "duration": 0.11,
        "velocity": 0.63,
        "hand": "right"
      },
      {
        "midi": 52,
        "time": 20.625,
        "duration": 0.375,
        "velocity": 0.63,
        "hand": "left"
      },
      {
        "midi": 69,
        "time": 20.625,
        "duration": 0.11,
        "velocity": 0.63,
        "hand": "right"
      },
      {
        "midi": 61,
        "time": 20.75,
        "duration": 0.5,
        "velocity": 0.63,
        "hand": "right"
      },
      {
        "midi": 69,
        "time": 20.75,
        "duration": 0.235,
        "velocity": 0.63,
        "hand": "right"
      },
      {
        "midi": 45,
        "time": 21,
        "duration": 0.25,
        "velocity": 0.63,
        "hand": "left"
      },
      {
        "midi": 69,
        "time": 21,
        "duration": 0.11,
        "velocity": 0.63,
        "hand": "right"
      },
      {
        "midi": 69,
        "time": 21.125,
        "duration": 0.125,
        "velocity": 0.63,
        "hand": "right"
      },
      {
        "midi": 52,
        "time": 21.25,
        "duration": 0.36,
        "velocity": 0.63,
        "hand": "left"
      },
      {
        "midi": 64,
        "time": 21.25,
        "duration": 0.5,
        "velocity": 0.63,
        "hand": "right"
      },
      {
        "midi": 57,
        "time": 21.5,
        "duration": 0.25,
        "velocity": 0.63,
        "hand": "left"
      },
      {
        "midi": 69,
        "time": 21.5,
        "duration": 0.11,
        "velocity": 0.63,
        "hand": "right"
      },
      {
        "midi": 52,
        "time": 21.625,
        "duration": 0.375,
        "velocity": 0.63,
        "hand": "left"
      },
      {
        "midi": 69,
        "time": 21.625,
        "duration": 0.11,
        "velocity": 0.63,
        "hand": "right"
      },
      {
        "midi": 59,
        "time": 21.75,
        "duration": 0.25,
        "velocity": 0.63,
        "hand": "left"
      },
      {
        "midi": 69,
        "time": 21.75,
        "duration": 0.235,
        "velocity": 0.63,
        "hand": "right"
      },
      {
        "midi": 45,
        "time": 22,
        "duration": 0.25,
        "velocity": 0.63,
        "hand": "left"
      },
      {
        "midi": 61,
        "time": 22,
        "duration": 0.25,
        "velocity": 0.63,
        "hand": "right"
      },
      {
        "midi": 69,
        "time": 22,
        "duration": 0.11,
        "velocity": 0.63,
        "hand": "right"
      },
      {
        "midi": 69,
        "time": 22.125,
        "duration": 0.11,
        "velocity": 0.63,
        "hand": "right"
      },
      {
        "midi": 50,
        "time": 22.25,
        "duration": 0.11,
        "velocity": 0.63,
        "hand": "left"
      },
      {
        "midi": 62,
        "time": 22.25,
        "duration": 1,
        "velocity": 0.63,
        "hand": "right"
      },
      {
        "midi": 66,
        "time": 22.25,
        "duration": 1,
        "velocity": 0.63,
        "hand": "right"
      },
      {
        "midi": 69,
        "time": 22.25,
        "duration": 1,
        "velocity": 0.63,
        "hand": "right"
      },
      {
        "midi": 50,
        "time": 22.375,
        "duration": 0.235,
        "velocity": 0.63,
        "hand": "left"
      },
      {
        "midi": 50,
        "time": 22.625,
        "duration": 0.125,
        "velocity": 0.63,
        "hand": "left"
      },
      {
        "midi": 47,
        "time": 22.75,
        "duration": 0.25,
        "velocity": 0.63,
        "hand": "left"
      },
      {
        "midi": 45,
        "time": 23,
        "duration": 0.235,
        "velocity": 0.63,
        "hand": "left"
      },
      {
        "midi": 45,
        "time": 23.25,
        "duration": 0.25,
        "velocity": 0.63,
        "hand": "left"
      },
      {
        "midi": 57,
        "time": 23.5,
        "duration": 0.25,
        "velocity": 0.63,
        "hand": "left"
      },
      {
        "midi": 66,
        "time": 23.5,
        "duration": 0.25,
        "velocity": 0.63,
        "hand": "right"
      },
      {
        "midi": 59,
        "time": 23.75,
        "duration": 0.25,
        "velocity": 0.63,
        "hand": "left"
      },
      {
        "midi": 68,
        "time": 23.75,
        "duration": 0.25,
        "velocity": 0.63,
        "hand": "right"
      },
      {
        "midi": 57,
        "time": 24,
        "duration": 0.235,
        "velocity": 0.63,
        "hand": "left"
      },
      {
        "midi": 66,
        "time": 24,
        "duration": 0.25,
        "velocity": 0.63,
        "hand": "right"
      },
      {
        "midi": 52,
        "time": 24.25,
        "duration": 0.36,
        "velocity": 0.63,
        "hand": "left"
      },
      {
        "midi": 57,
        "time": 24.25,
        "duration": 0.5,
        "velocity": 0.63,
        "hand": "left"
      },
      {
        "midi": 64,
        "time": 24.25,
        "duration": 0.5,
        "velocity": 0.63,
        "hand": "right"
      },
      {
        "midi": 69,
        "time": 24.5,
        "duration": 0.11,
        "velocity": 0.63,
        "hand": "right"
      },
      {
        "midi": 52,
        "time": 24.625,
        "duration": 0.375,
        "velocity": 0.63,
        "hand": "left"
      },
      {
        "midi": 69,
        "time": 24.625,
        "duration": 0.11,
        "velocity": 0.63,
        "hand": "right"
      },
      {
        "midi": 61,
        "time": 24.75,
        "duration": 0.5,
        "velocity": 0.63,
        "hand": "right"
      },
      {
        "midi": 69,
        "time": 24.75,
        "duration": 0.235,
        "velocity": 0.63,
        "hand": "right"
      },
      {
        "midi": 45,
        "time": 25,
        "duration": 0.25,
        "velocity": 0.63,
        "hand": "left"
      },
      {
        "midi": 69,
        "time": 25,
        "duration": 0.11,
        "velocity": 0.63,
        "hand": "right"
      },
      {
        "midi": 69,
        "time": 25.125,
        "duration": 0.125,
        "velocity": 0.63,
        "hand": "right"
      },
      {
        "midi": 52,
        "time": 25.25,
        "duration": 0.36,
        "velocity": 0.63,
        "hand": "left"
      },
      {
        "midi": 64,
        "time": 25.25,
        "duration": 0.5,
        "velocity": 0.63,
        "hand": "right"
      },
      {
        "midi": 57,
        "time": 25.5,
        "duration": 0.25,
        "velocity": 0.63,
        "hand": "left"
      },
      {
        "midi": 73,
        "time": 25.5,
        "duration": 0.11,
        "velocity": 0.63,
        "hand": "right"
      },
      {
        "midi": 52,
        "time": 25.625,
        "duration": 0.375,
        "velocity": 0.63,
        "hand": "left"
      },
      {
        "midi": 73,
        "time": 25.625,
        "duration": 0.125,
        "velocity": 0.63,
        "hand": "right"
      },
      {
        "midi": 59,
        "time": 25.75,
        "duration": 0.25,
        "velocity": 0.63,
        "hand": "left"
      },
      {
        "midi": 69,
        "time": 25.75,
        "duration": 0.5,
        "velocity": 0.63,
        "hand": "right"
      },
      {
        "midi": 45,
        "time": 26,
        "duration": 0.25,
        "velocity": 0.63,
        "hand": "left"
      },
      {
        "midi": 57,
        "time": 26,
        "duration": 0.235,
        "velocity": 0.63,
        "hand": "left"
      },
      {
        "midi": 73,
        "time": 26,
        "duration": 0.11,
        "velocity": 0.63,
        "hand": "right"
      },
      {
        "midi": 73,
        "time": 26.125,
        "duration": 0.125,
        "velocity": 0.63,
        "hand": "right"
      },
      {
        "midi": 54,
        "time": 26.25,
        "duration": 0.36,
        "velocity": 0.63,
        "hand": "left"
      },
      {
        "midi": 57,
        "time": 26.25,
        "duration": 0.5,
        "velocity": 0.63,
        "hand": "left"
      },
      {
        "midi": 66,
        "time": 26.25,
        "duration": 0.5,
        "velocity": 0.63,
        "hand": "right"
      },
      {
        "midi": 74,
        "time": 26.5,
        "duration": 0.11,
        "velocity": 0.63,
        "hand": "right"
      },
      {
        "midi": 54,
        "time": 26.625,
        "duration": 0.375,
        "velocity": 0.63,
        "hand": "left"
      },
      {
        "midi": 74,
        "time": 26.625,
        "duration": 0.125,
        "velocity": 0.63,
        "hand": "right"
      },
      {
        "midi": 62,
        "time": 26.75,
        "duration": 0.5,
        "velocity": 0.63,
        "hand": "right"
      },
      {
        "midi": 69,
        "time": 26.75,
        "duration": 0.5,
        "velocity": 0.63,
        "hand": "right"
      },
      {
        "midi": 50,
        "time": 27,
        "duration": 0.25,
        "velocity": 0.63,
        "hand": "left"
      },
      {
        "midi": 74,
        "time": 27,
        "duration": 0.11,
        "velocity": 0.63,
        "hand": "right"
      },
      {
        "midi": 74,
        "time": 27.125,
        "duration": 0.125,
        "velocity": 0.63,
        "hand": "right"
      },
      {
        "midi": 54,
        "time": 27.25,
        "duration": 0.36,
        "velocity": 0.63,
        "hand": "left"
      },
      {
        "midi": 66,
        "time": 27.25,
        "duration": 0.5,
        "velocity": 0.63,
        "hand": "right"
      },
      {
        "midi": 57,
        "time": 27.5,
        "duration": 0.25,
        "velocity": 0.63,
        "hand": "left"
      },
      {
        "midi": 74,
        "time": 27.5,
        "duration": 0.11,
        "velocity": 0.63,
        "hand": "right"
      },
      {
        "midi": 54,
        "time": 27.625,
        "duration": 0.375,
        "velocity": 0.63,
        "hand": "left"
      },
      {
        "midi": 74,
        "time": 27.625,
        "duration": 0.125,
        "velocity": 0.63,
        "hand": "right"
      },
      {
        "midi": 59,
        "time": 27.75,
        "duration": 0.25,
        "velocity": 0.63,
        "hand": "left"
      },
      {
        "midi": 69,
        "time": 27.75,
        "duration": 0.5,
        "velocity": 0.63,
        "hand": "right"
      },
      {
        "midi": 50,
        "time": 28,
        "duration": 0.25,
        "velocity": 0.63,
        "hand": "left"
      },
      {
        "midi": 57,
        "time": 28,
        "duration": 0.235,
        "velocity": 0.63,
        "hand": "left"
      },
      {
        "midi": 74,
        "time": 28,
        "duration": 0.11,
        "velocity": 0.63,
        "hand": "right"
      },
      {
        "midi": 74,
        "time": 28.125,
        "duration": 0.125,
        "velocity": 0.63,
        "hand": "right"
      },
      {
        "midi": 52,
        "time": 28.25,
        "duration": 0.36,
        "velocity": 0.63,
        "hand": "left"
      },
      {
        "midi": 57,
        "time": 28.25,
        "duration": 0.5,
        "velocity": 0.63,
        "hand": "left"
      },
      {
        "midi": 64,
        "time": 28.25,
        "duration": 0.5,
        "velocity": 0.63,
        "hand": "right"
      },
      {
        "midi": 69,
        "time": 28.5,
        "duration": 0.11,
        "velocity": 0.63,
        "hand": "right"
      },
      {
        "midi": 52,
        "time": 28.625,
        "duration": 0.375,
        "velocity": 0.63,
        "hand": "left"
      },
      {
        "midi": 69,
        "time": 28.625,
        "duration": 0.11,
        "velocity": 0.63,
        "hand": "right"
      },
      {
        "midi": 61,
        "time": 28.75,
        "duration": 0.5,
        "velocity": 0.63,
        "hand": "right"
      },
      {
        "midi": 69,
        "time": 28.75,
        "duration": 0.235,
        "velocity": 0.63,
        "hand": "right"
      },
      {
        "midi": 45,
        "time": 29,
        "duration": 0.25,
        "velocity": 0.63,
        "hand": "left"
      },
      {
        "midi": 69,
        "time": 29,
        "duration": 0.11,
        "velocity": 0.63,
        "hand": "right"
      },
      {
        "midi": 69,
        "time": 29.125,
        "duration": 0.125,
        "velocity": 0.63,
        "hand": "right"
      },
      {
        "midi": 52,
        "time": 29.25,
        "duration": 0.36,
        "velocity": 0.63,
        "hand": "left"
      },
      {
        "midi": 64,
        "time": 29.25,
        "duration": 0.5,
        "velocity": 0.63,
        "hand": "right"
      },
      {
        "midi": 69,
        "time": 29.5,
        "duration": 0.235,
        "velocity": 0.63,
        "hand": "right"
      },
      {
        "midi": 52,
        "time": 29.625,
        "duration": 0.375,
        "velocity": 0.63,
        "hand": "left"
      },
      {
        "midi": 69,
        "time": 29.75,
        "duration": 0.5,
        "velocity": 0.63,
        "hand": "right"
      },
      {
        "midi": 71,
        "time": 29.75,
        "duration": 0.25,
        "velocity": 0.63,
        "hand": "right"
      },
      {
        "midi": 45,
        "time": 30,
        "duration": 0.25,
        "velocity": 0.39,
        "hand": "left"
      },
      {
        "midi": 57,
        "time": 30,
        "duration": 0.25,
        "velocity": 0.63,
        "hand": "left"
      },
      {
        "midi": 73,
        "time": 30,
        "duration": 0.25,
        "velocity": 0.63,
        "hand": "right"
      },
      {
        "midi": 50,
        "time": 30.25,
        "duration": 0.11,
        "velocity": 0.39,
        "hand": "left"
      },
      {
        "midi": 62,
        "time": 30.25,
        "duration": 0.11,
        "velocity": 0.63,
        "hand": "right"
      },
      {
        "midi": 66,
        "time": 30.25,
        "duration": 1,
        "velocity": 0.63,
        "hand": "right"
      },
      {
        "midi": 74,
        "time": 30.25,
        "duration": 0.485,
        "velocity": 0.63,
        "hand": "right"
      },
      {
        "midi": 50,
        "time": 30.375,
        "duration": 0.235,
        "velocity": 0.39,
        "hand": "left"
      },
      {
        "midi": 62,
        "time": 30.375,
        "duration": 0.25,
        "velocity": 0.63,
        "hand": "right"
      },
      {
        "midi": 50,
        "time": 30.625,
        "duration": 0.125,
        "velocity": 0.39,
        "hand": "left"
      },
      {
        "midi": 57,
        "time": 30.625,
        "duration": 0.125,
        "velocity": 0.63,
        "hand": "left"
      },
      {
        "midi": 47,
        "time": 30.75,
        "duration": 0.25,
        "velocity": 0.39,
        "hand": "left"
      },
      {
        "midi": 59,
        "time": 30.75,
        "duration": 0.25,
        "velocity": 0.63,
        "hand": "left"
      },
      {
        "midi": 74,
        "time": 30.75,
        "duration": 0.75,
        "velocity": 0.63,
        "hand": "right"
      },
      {
        "midi": 45,
        "time": 31,
        "duration": 0.235,
        "velocity": 0.39,
        "hand": "left"
      },
      {
        "midi": 57,
        "time": 31,
        "duration": 0.25,
        "velocity": 0.63,
        "hand": "left"
      },
      {
        "midi": 45,
        "time": 31.25,
        "duration": 0.235,
        "velocity": 0.39,
        "hand": "left"
      },
      {
        "midi": 54,
        "time": 31.25,
        "duration": 0.5,
        "velocity": 0.63,
        "hand": "left"
      },
      {
        "midi": 45,
        "time": 31.5,
        "duration": 0.11,
        "velocity": 0.39,
        "hand": "left"
      },
      {
        "midi": 66,
        "time": 31.5,
        "duration": 0.25,
        "velocity": 0.39,
        "hand": "right"
      },
      {
        "midi": 69,
        "time": 31.5,
        "duration": 0.25,
        "velocity": 0.63,
        "hand": "right"
      },
      {
        "midi": 45,
        "time": 31.625,
        "duration": 0.125,
        "velocity": 0.39,
        "hand": "left"
      },
      {
        "midi": 68,
        "time": 31.75,
        "duration": 0.25,
        "velocity": 0.39,
        "hand": "right"
      },
      {
        "midi": 71,
        "time": 31.75,
        "duration": 0.25,
        "velocity": 0.63,
        "hand": "right"
      },
      {
        "midi": 45,
        "time": 32,
        "duration": 0.11,
        "velocity": 0.39,
        "hand": "left"
      },
      {
        "midi": 57,
        "time": 32,
        "duration": 0.25,
        "velocity": 0.63,
        "hand": "left"
      },
      {
        "midi": 66,
        "time": 32,
        "duration": 0.235,
        "velocity": 0.39,
        "hand": "right"
      },
      {
        "midi": 69,
        "time": 32,
        "duration": 0.235,
        "velocity": 0.63,
        "hand": "right"
      },
      {
        "midi": 45,
        "time": 32.125,
        "duration": 0.125,
        "velocity": 0.39,
        "hand": "left"
      },
      {
        "midi": 62,
        "time": 32.25,
        "duration": 0.11,
        "velocity": 0.63,
        "hand": "right"
      },
      {
        "midi": 66,
        "time": 32.25,
        "duration": 0.485,
        "velocity": 0.39,
        "hand": "right"
      },
      {
        "midi": 69,
        "time": 32.25,
        "duration": 0.485,
        "velocity": 0.63,
        "hand": "right"
      },
      {
        "midi": 62,
        "time": 32.375,
        "duration": 0.25,
        "velocity": 0.63,
        "hand": "right"
      },
      {
        "midi": 45,
        "time": 32.5,
        "duration": 0.11,
        "velocity": 0.39,
        "hand": "left"
      },
      {
        "midi": 45,
        "time": 32.625,
        "duration": 0.125,
        "velocity": 0.39,
        "hand": "left"
      },
      {
        "midi": 57,
        "time": 32.625,
        "duration": 0.125,
        "velocity": 0.63,
        "hand": "left"
      },
      {
        "midi": 59,
        "time": 32.75,
        "duration": 0.25,
        "velocity": 0.63,
        "hand": "left"
      },
      {
        "midi": 66,
        "time": 32.75,
        "duration": 0.5,
        "velocity": 0.39,
        "hand": "right"
      },
      {
        "midi": 69,
        "time": 32.75,
        "duration": 0.5,
        "velocity": 0.63,
        "hand": "right"
      },
      {
        "midi": 45,
        "time": 33,
        "duration": 0.11,
        "velocity": 0.39,
        "hand": "left"
      },
      {
        "midi": 57,
        "time": 33,
        "duration": 0.25,
        "velocity": 0.63,
        "hand": "left"
      },
      {
        "midi": 45,
        "time": 33.125,
        "duration": 0.125,
        "velocity": 0.39,
        "hand": "left"
      },
      {
        "midi": 61,
        "time": 33.25,
        "duration": 0.5,
        "velocity": 0.63,
        "hand": "right"
      },
      {
        "midi": 45,
        "time": 33.375,
        "duration": 0.235,
        "velocity": 0.39,
        "hand": "left"
      },
      {
        "midi": 69,
        "time": 33.375,
        "duration": 0.235,
        "velocity": 0.63,
        "hand": "right"
      },
      {
        "midi": 64,
        "time": 33.5,
        "duration": 0.11,
        "velocity": 0.39,
        "hand": "right"
      },
      {
        "midi": 45,
        "time": 33.625,
        "duration": 0.125,
        "velocity": 0.39,
        "hand": "left"
      },
      {
        "midi": 64,
        "time": 33.625,
        "duration": 0.125,
        "velocity": 0.39,
        "hand": "right"
      },
      {
        "midi": 69,
        "time": 33.625,
        "duration": 0.125,
        "velocity": 0.63,
        "hand": "right"
      },
      {
        "midi": 47,
        "time": 33.75,
        "duration": 0.25,
        "velocity": 0.39,
        "hand": "left"
      },
      {
        "midi": 71,
        "time": 33.75,
        "duration": 0.25,
        "velocity": 0.63,
        "hand": "right"
      },
      {
        "midi": 45,
        "time": 34,
        "duration": 0.235,
        "velocity": 0.39,
        "hand": "left"
      },
      {
        "midi": 57,
        "time": 34,
        "duration": 0.11,
        "velocity": 0.63,
        "hand": "left"
      },
      {
        "midi": 64,
        "time": 34,
        "duration": 0.11,
        "velocity": 0.39,
        "hand": "right"
      },
      {
        "midi": 69,
        "time": 34,
        "duration": 0.235,
        "velocity": 0.63,
        "hand": "right"
      },
      {
        "midi": 57,
        "time": 34.125,
        "duration": 0.125,
        "velocity": 0.63,
        "hand": "left"
      },
      {
        "midi": 64,
        "time": 34.125,
        "duration": 0.125,
        "velocity": 0.39,
        "hand": "right"
      },
      {
        "midi": 45,
        "time": 34.25,
        "duration": 0.235,
        "velocity": 0.39,
        "hand": "left"
      },
      {
        "midi": 61,
        "time": 34.25,
        "duration": 0.11,
        "velocity": 0.63,
        "hand": "right"
      },
      {
        "midi": 69,
        "time": 34.25,
        "duration": 0.485,
        "velocity": 0.63,
        "hand": "right"
      },
      {
        "midi": 61,
        "time": 34.375,
        "duration": 0.25,
        "velocity": 0.63,
        "hand": "right"
      },
      {
        "midi": 45,
        "time": 34.5,
        "duration": 0.11,
        "velocity": 0.39,
        "hand": "left"
      },
      {
        "midi": 64,
        "time": 34.5,
        "duration": 0.11,
        "velocity": 0.39,
        "hand": "right"
      },
      {
        "midi": 45,
        "time": 34.625,
        "duration": 0.125,
        "velocity": 0.39,
        "hand": "left"
      },
      {
        "midi": 57,
        "time": 34.625,
        "duration": 0.125,
        "velocity": 0.63,
        "hand": "left"
      },
      {
        "midi": 64,
        "time": 34.625,
        "duration": 0.125,
        "velocity": 0.39,
        "hand": "right"
      },
      {
        "midi": 59,
        "time": 34.75,
        "duration": 0.25,
        "velocity": 0.63,
        "hand": "left"
      },
      {
        "midi": 69,
        "time": 34.75,
        "duration": 0.5,
        "velocity": 0.63,
        "hand": "right"
      },
      {
        "midi": 45,
        "time": 35,
        "duration": 0.11,
        "velocity": 0.39,
        "hand": "left"
      },
      {
        "midi": 57,
        "time": 35,
        "duration": 0.25,
        "velocity": 0.63,
        "hand": "left"
      },
      {
        "midi": 64,
        "time": 35,
        "duration": 0.11,
        "velocity": 0.39,
        "hand": "right"
      },
      {
        "midi": 45,
        "time": 35.125,
        "duration": 0.125,
        "velocity": 0.39,
        "hand": "left"
      },
      {
        "midi": 64,
        "time": 35.125,
        "duration": 0.125,
        "velocity": 0.39,
        "hand": "right"
      },
      {
        "midi": 61,
        "time": 35.25,
        "duration": 0.11,
        "velocity": 0.63,
        "hand": "right"
      },
      {
        "midi": 61,
        "time": 35.375,
        "duration": 0.25,
        "velocity": 0.63,
        "hand": "right"
      },
      {
        "midi": 69,
        "time": 35.375,
        "duration": 0.235,
        "velocity": 0.63,
        "hand": "right"
      },
      {
        "midi": 64,
        "time": 35.5,
        "duration": 0.11,
        "velocity": 0.39,
        "hand": "right"
      },
      {
        "midi": 45,
        "time": 35.625,
        "duration": 0.125,
        "velocity": 0.39,
        "hand": "left"
      },
      {
        "midi": 57,
        "time": 35.625,
        "duration": 0.125,
        "velocity": 0.63,
        "hand": "left"
      },
      {
        "midi": 64,
        "time": 35.625,
        "duration": 0.125,
        "velocity": 0.39,
        "hand": "right"
      },
      {
        "midi": 69,
        "time": 35.625,
        "duration": 0.125,
        "velocity": 0.63,
        "hand": "right"
      },
      {
        "midi": 47,
        "time": 35.75,
        "duration": 0.25,
        "velocity": 0.39,
        "hand": "left"
      },
      {
        "midi": 59,
        "time": 35.75,
        "duration": 0.25,
        "velocity": 0.63,
        "hand": "left"
      },
      {
        "midi": 71,
        "time": 35.75,
        "duration": 0.25,
        "velocity": 0.63,
        "hand": "right"
      },
      {
        "midi": 45,
        "time": 36,
        "duration": 0.25,
        "velocity": 0.39,
        "hand": "left"
      },
      {
        "midi": 57,
        "time": 36,
        "duration": 0.25,
        "velocity": 0.63,
        "hand": "left"
      },
      {
        "midi": 64,
        "time": 36,
        "duration": 0.11,
        "velocity": 0.39,
        "hand": "right"
      },
      {
        "midi": 69,
        "time": 36,
        "duration": 0.235,
        "velocity": 0.63,
        "hand": "right"
      },
      {
        "midi": 64,
        "time": 36.125,
        "duration": 0.125,
        "velocity": 0.39,
        "hand": "right"
      },
      {
        "midi": 49,
        "time": 36.25,
        "duration": 0.25,
        "velocity": 0.39,
        "hand": "left"
      },
      {
        "midi": 61,
        "time": 36.25,
        "duration": 0.25,
        "velocity": 0.63,
        "hand": "right"
      },
      {
        "midi": 69,
        "time": 36.25,
        "duration": 0.485,
        "velocity": 0.63,
        "hand": "right"
      },
      {
        "midi": 45,
        "time": 36.5,
        "duration": 0.25,
        "velocity": 0.39,
        "hand": "left"
      },
      {
        "midi": 57,
        "time": 36.5,
        "duration": 0.25,
        "velocity": 0.63,
        "hand": "left"
      },
      {
        "midi": 64,
        "time": 36.5,
        "duration": 0.11,
        "velocity": 0.39,
        "hand": "right"
      },
      {
        "midi": 64,
        "time": 36.625,
        "duration": 0.125,
        "velocity": 0.39,
        "hand": "right"
      },
      {
        "midi": 47,
        "time": 36.75,
        "duration": 0.25,
        "velocity": 0.39,
        "hand": "left"
      },
      {
        "midi": 59,
        "time": 36.75,
        "duration": 0.25,
        "velocity": 0.63,
        "hand": "left"
      },
      {
        "midi": 69,
        "time": 36.75,
        "duration": 0.5,
        "velocity": 0.63,
        "hand": "right"
      },
      {
        "midi": 49,
        "time": 37,
        "duration": 0.25,
        "velocity": 0.39,
        "hand": "left"
      },
      {
        "midi": 61,
        "time": 37,
        "duration": 0.25,
        "velocity": 0.63,
        "hand": "right"
      },
      {
        "midi": 64,
        "time": 37,
        "duration": 0.11,
        "velocity": 0.39,
        "hand": "right"
      },
      {
        "midi": 64,
        "time": 37.125,
        "duration": 0.125,
        "velocity": 0.39,
        "hand": "right"
      },
      {
        "midi": 50,
        "time": 37.25,
        "duration": 0.235,
        "velocity": 0.39,
        "hand": "left"
      },
      {
        "midi": 62,
        "time": 37.25,
        "duration": 0.5,
        "velocity": 0.63,
        "hand": "right"
      },
      {
        "midi": 50,
        "time": 37.5,
        "duration": 0.11,
        "velocity": 0.39,
        "hand": "left"
      },
      {
        "midi": 66,
        "time": 37.5,
        "duration": 0.25,
        "velocity": 0.39,
        "hand": "right"
      },
      {
        "midi": 69,
        "time": 37.5,
        "duration": 0.25,
        "velocity": 0.63,
        "hand": "right"
      },
      {
        "midi": 50,
        "time": 37.625,
        "duration": 0.125,
        "velocity": 0.39,
        "hand": "left"
      },
      {
        "midi": 67,
        "time": 37.75,
        "duration": 0.25,
        "velocity": 0.39,
        "hand": "right"
      },
      {
        "midi": 71,
        "time": 37.75,
        "duration": 0.25,
        "velocity": 0.63,
        "hand": "right"
      },
      {
        "midi": 57,
        "time": 38,
        "duration": 0.25,
        "velocity": 0.63,
        "hand": "left"
      },
      {
        "midi": 66,
        "time": 38,
        "duration": 0.25,
        "velocity": 0.39,
        "hand": "right"
      },
      {
        "midi": 73,
        "time": 38,
        "duration": 0.25,
        "velocity": 0.63,
        "hand": "right"
      },
      {
        "midi": 50,
        "time": 38.25,
        "duration": 0.11,
        "velocity": 0.39,
        "hand": "left"
      },
      {
        "midi": 62,
        "time": 38.25,
        "duration": 0.11,
        "velocity": 0.63,
        "hand": "right"
      },
      {
        "midi": 74,
        "time": 38.25,
        "duration": 1,
        "velocity": 0.63,
        "hand": "right"
      },
      {
        "midi": 50,
        "time": 38.375,
        "duration": 0.235,
        "velocity": 0.39,
        "hand": "left"
      },
      {
        "midi": 62,
        "time": 38.375,
        "duration": 0.11,
        "velocity": 0.63,
        "hand": "right"
      },
      {
        "midi": 62,
        "time": 38.5,
        "duration": 0.11,
        "velocity": 0.39,
        "hand": "right"
      },
      {
        "midi": 50,
        "time": 38.625,
        "duration": 0.125,
        "velocity": 0.39,
        "hand": "left"
      },
      {
        "midi": 57,
        "time": 38.625,
        "duration": 0.125,
        "velocity": 0.63,
        "hand": "left"
      },
      {
        "midi": 62,
        "time": 38.625,
        "duration": 0.125,
        "velocity": 0.39,
        "hand": "right"
      },
      {
        "midi": 47,
        "time": 38.75,
        "duration": 0.25,
        "velocity": 0.39,
        "hand": "left"
      },
      {
        "midi": 59,
        "time": 38.75,
        "duration": 0.25,
        "velocity": 0.63,
        "hand": "left"
      },
      {
        "midi": 45,
        "time": 39,
        "duration": 0.235,
        "velocity": 0.39,
        "hand": "left"
      },
      {
        "midi": 57,
        "time": 39,
        "duration": 0.25,
        "velocity": 0.63,
        "hand": "left"
      },
      {
        "midi": 62,
        "time": 39,
        "duration": 0.11,
        "velocity": 0.39,
        "hand": "right"
      },
      {
        "midi": 62,
        "time": 39.125,
        "duration": 0.125,
        "velocity": 0.39,
        "hand": "right"
      },
      {
        "midi": 45,
        "time": 39.25,
        "duration": 0.235,
        "velocity": 0.39,
        "hand": "left"
      },
      {
        "midi": 54,
        "time": 39.25,
        "duration": 0.5,
        "velocity": 0.63,
        "hand": "left"
      },
      {
        "midi": 45,
        "time": 39.5,
        "duration": 0.11,
        "velocity": 0.39,
        "hand": "left"
      },
      {
        "midi": 66,
        "time": 39.5,
        "duration": 0.25,
        "velocity": 0.39,
        "hand": "right"
      },
      {
        "midi": 69,
        "time": 39.5,
        "duration": 0.25,
        "velocity": 0.63,
        "hand": "right"
      },
      {
        "midi": 45,
        "time": 39.625,
        "duration": 0.125,
        "velocity": 0.39,
        "hand": "left"
      },
      {
        "midi": 68,
        "time": 39.75,
        "duration": 0.25,
        "velocity": 0.39,
        "hand": "right"
      },
      {
        "midi": 71,
        "time": 39.75,
        "duration": 0.25,
        "velocity": 0.63,
        "hand": "right"
      },
      {
        "midi": 45,
        "time": 40,
        "duration": 0.11,
        "velocity": 0.39,
        "hand": "left"
      },
      {
        "midi": 57,
        "time": 40,
        "duration": 0.25,
        "velocity": 0.63,
        "hand": "left"
      },
      {
        "midi": 66,
        "time": 40,
        "duration": 0.235,
        "velocity": 0.39,
        "hand": "right"
      },
      {
        "midi": 69,
        "time": 40,
        "duration": 0.235,
        "velocity": 0.63,
        "hand": "right"
      },
      {
        "midi": 45,
        "time": 40.125,
        "duration": 0.125,
        "velocity": 0.39,
        "hand": "left"
      },
      {
        "midi": 62,
        "time": 40.25,
        "duration": 0.11,
        "velocity": 0.63,
        "hand": "right"
      },
      {
        "midi": 66,
        "time": 40.25,
        "duration": 0.485,
        "velocity": 0.39,
        "hand": "right"
      },
      {
        "midi": 69,
        "time": 40.25,
        "duration": 0.485,
        "velocity": 0.63,
        "hand": "right"
      },
      {
        "midi": 62,
        "time": 40.375,
        "duration": 0.25,
        "velocity": 0.63,
        "hand": "right"
      },
      {
        "midi": 45,
        "time": 40.5,
        "duration": 0.11,
        "velocity": 0.39,
        "hand": "left"
      },
      {
        "midi": 45,
        "time": 40.625,
        "duration": 0.125,
        "velocity": 0.39,
        "hand": "left"
      },
      {
        "midi": 57,
        "time": 40.625,
        "duration": 0.125,
        "velocity": 0.63,
        "hand": "left"
      },
      {
        "midi": 59,
        "time": 40.75,
        "duration": 0.25,
        "velocity": 0.63,
        "hand": "left"
      },
      {
        "midi": 66,
        "time": 40.75,
        "duration": 0.5,
        "velocity": 0.39,
        "hand": "right"
      },
      {
        "midi": 69,
        "time": 40.75,
        "duration": 0.5,
        "velocity": 0.63,
        "hand": "right"
      },
      {
        "midi": 45,
        "time": 41,
        "duration": 0.11,
        "velocity": 0.39,
        "hand": "left"
      },
      {
        "midi": 57,
        "time": 41,
        "duration": 0.25,
        "velocity": 0.63,
        "hand": "left"
      },
      {
        "midi": 45,
        "time": 41.125,
        "duration": 0.125,
        "velocity": 0.39,
        "hand": "left"
      },
      {
        "midi": 55,
        "time": 41.25,
        "duration": 0.5,
        "velocity": 0.63,
        "hand": "left"
      },
      {
        "midi": 45,
        "time": 41.5,
        "duration": 0.25,
        "velocity": 0.39,
        "hand": "left"
      },
      {
        "midi": 64,
        "time": 41.5,
        "duration": 0.11,
        "velocity": 0.39,
        "hand": "right"
      },
      {
        "midi": 69,
        "time": 41.5,
        "duration": 0.25,
        "velocity": 0.63,
        "hand": "right"
      },
      {
        "midi": 64,
        "time": 41.625,
        "duration": 0.125,
        "velocity": 0.39,
        "hand": "right"
      },
      {
        "midi": 47,
        "time": 41.75,
        "duration": 0.25,
        "velocity": 0.39,
        "hand": "left"
      },
      {
        "midi": 71,
        "time": 41.75,
        "duration": 0.25,
        "velocity": 0.63,
        "hand": "right"
      },
      {
        "midi": 45,
        "time": 42,
        "duration": 0.235,
        "velocity": 0.39,
        "hand": "left"
      },
      {
        "midi": 57,
        "time": 42,
        "duration": 0.11,
        "velocity": 0.63,
        "hand": "left"
      },
      {
        "midi": 64,
        "time": 42,
        "duration": 0.11,
        "velocity": 0.39,
        "hand": "right"
      },
      {
        "midi": 69,
        "time": 42,
        "duration": 0.235,
        "velocity": 0.63,
        "hand": "right"
      },
      {
        "midi": 57,
        "time": 42.125,
        "duration": 0.125,
        "velocity": 0.63,
        "hand": "left"
      },
      {
        "midi": 64,
        "time": 42.125,
        "duration": 0.125,
        "velocity": 0.39,
        "hand": "right"
      },
      {
        "midi": 45,
        "time": 42.25,
        "duration": 0.485,
        "velocity": 0.39,
        "hand": "left"
      },
      {
        "midi": 61,
        "time": 42.25,
        "duration": 0.11,
        "velocity": 0.63,
        "hand": "right"
      },
      {
        "midi": 69,
        "time": 42.25,
        "duration": 0.485,
        "velocity": 0.63,
        "hand": "right"
      },
      {
        "midi": 61,
        "time": 42.375,
        "duration": 0.25,
        "velocity": 0.63,
        "hand": "right"
      },
      {
        "midi": 64,
        "time": 42.5,
        "duration": 0.11,
        "velocity": 0.39,
        "hand": "right"
      },
      {
        "midi": 57,
        "time": 42.625,
        "duration": 0.125,
        "velocity": 0.63,
        "hand": "left"
      },
      {
        "midi": 64,
        "time": 42.625,
        "duration": 0.125,
        "velocity": 0.39,
        "hand": "right"
      },
      {
        "midi": 45,
        "time": 42.75,
        "duration": 0.5,
        "velocity": 0.39,
        "hand": "left"
      },
      {
        "midi": 59,
        "time": 42.75,
        "duration": 0.25,
        "velocity": 0.63,
        "hand": "left"
      },
      {
        "midi": 69,
        "time": 42.75,
        "duration": 0.5,
        "velocity": 0.63,
        "hand": "right"
      },
      {
        "midi": 57,
        "time": 43,
        "duration": 0.25,
        "velocity": 0.63,
        "hand": "left"
      },
      {
        "midi": 64,
        "time": 43,
        "duration": 0.11,
        "velocity": 0.39,
        "hand": "right"
      },
      {
        "midi": 64,
        "time": 43.125,
        "duration": 0.125,
        "velocity": 0.39,
        "hand": "right"
      },
      {
        "midi": 61,
        "time": 43.25,
        "duration": 0.11,
        "velocity": 0.63,
        "hand": "right"
      },
      {
        "midi": 61,
        "time": 43.375,
        "duration": 0.25,
        "velocity": 0.63,
        "hand": "right"
      },
      {
        "midi": 64,
        "time": 43.5,
        "duration": 0.11,
        "velocity": 0.39,
        "hand": "right"
      },
      {
        "midi": 69,
        "time": 43.5,
        "duration": 0.25,
        "velocity": 0.63,
        "hand": "right"
      },
      {
        "midi": 45,
        "time": 43.625,
        "duration": 0.125,
        "velocity": 0.39,
        "hand": "left"
      },
      {
        "midi": 57,
        "time": 43.625,
        "duration": 0.125,
        "velocity": 0.63,
        "hand": "left"
      },
      {
        "midi": 64,
        "time": 43.625,
        "duration": 0.125,
        "velocity": 0.39,
        "hand": "right"
      },
      {
        "midi": 47,
        "time": 43.75,
        "duration": 0.25,
        "velocity": 0.39,
        "hand": "left"
      },
      {
        "midi": 59,
        "time": 43.75,
        "duration": 0.25,
        "velocity": 0.63,
        "hand": "left"
      },
      {
        "midi": 71,
        "time": 43.75,
        "duration": 0.25,
        "velocity": 0.63,
        "hand": "right"
      },
      {
        "midi": 45,
        "time": 44,
        "duration": 0.25,
        "velocity": 0.39,
        "hand": "left"
      },
      {
        "midi": 57,
        "time": 44,
        "duration": 0.25,
        "velocity": 0.63,
        "hand": "left"
      },
      {
        "midi": 64,
        "time": 44,
        "duration": 0.11,
        "velocity": 0.39,
        "hand": "right"
      },
      {
        "midi": 69,
        "time": 44,
        "duration": 0.235,
        "velocity": 0.63,
        "hand": "right"
      },
      {
        "midi": 64,
        "time": 44.125,
        "duration": 0.125,
        "velocity": 0.39,
        "hand": "right"
      },
      {
        "midi": 49,
        "time": 44.25,
        "duration": 0.25,
        "velocity": 0.39,
        "hand": "left"
      },
      {
        "midi": 61,
        "time": 44.25,
        "duration": 0.25,
        "velocity": 0.63,
        "hand": "right"
      },
      {
        "midi": 69,
        "time": 44.25,
        "duration": 0.11,
        "velocity": 0.63,
        "hand": "right"
      },
      {
        "midi": 69,
        "time": 44.375,
        "duration": 0.235,
        "velocity": 0.63,
        "hand": "right"
      },
      {
        "midi": 45,
        "time": 44.5,
        "duration": 0.25,
        "velocity": 0.39,
        "hand": "left"
      },
      {
        "midi": 57,
        "time": 44.5,
        "duration": 0.25,
        "velocity": 0.63,
        "hand": "left"
      },
      {
        "midi": 64,
        "time": 44.625,
        "duration": 0.11,
        "velocity": 0.39,
        "hand": "right"
      },
      {
        "midi": 69,
        "time": 44.625,
        "duration": 0.125,
        "velocity": 0.63,
        "hand": "right"
      },
      {
        "midi": 47,
        "time": 44.75,
        "duration": 0.25,
        "velocity": 0.39,
        "hand": "left"
      },
      {
        "midi": 59,
        "time": 44.75,
        "duration": 0.25,
        "velocity": 0.63,
        "hand": "left"
      },
      {
        "midi": 64,
        "time": 44.75,
        "duration": 0.235,
        "velocity": 0.39,
        "hand": "right"
      },
      {
        "midi": 71,
        "time": 44.75,
        "duration": 0.25,
        "velocity": 0.63,
        "hand": "right"
      },
      {
        "midi": 49,
        "time": 45,
        "duration": 0.25,
        "velocity": 0.39,
        "hand": "left"
      },
      {
        "midi": 61,
        "time": 45,
        "duration": 0.25,
        "velocity": 0.63,
        "hand": "right"
      },
      {
        "midi": 64,
        "time": 45,
        "duration": 0.25,
        "velocity": 0.39,
        "hand": "right"
      },
      {
        "midi": 73,
        "time": 45,
        "duration": 0.25,
        "velocity": 0.63,
        "hand": "right"
      },
      {
        "midi": 50,
        "time": 45.25,
        "duration": 0.235,
        "velocity": 0.39,
        "hand": "left"
      },
      {
        "midi": 62,
        "time": 45.25,
        "duration": 0.235,
        "velocity": 0.63,
        "hand": "right"
      },
      {
        "midi": 74,
        "time": 45.25,
        "duration": 0.485,
        "velocity": 0.63,
        "hand": "right"
      },
      {
        "midi": 50,
        "time": 45.5,
        "duration": 0.11,
        "velocity": 0.39,
        "hand": "left"
      },
      {
        "midi": 62,
        "time": 45.5,
        "duration": 0.11,
        "velocity": 0.63,
        "hand": "right"
      },
      {
        "midi": 50,
        "time": 45.625,
        "duration": 0.125,
        "velocity": 0.39,
        "hand": "left"
      },
      {
        "midi": 62,
        "time": 45.625,
        "duration": 0.11,
        "velocity": 0.63,
        "hand": "right"
      },
      {
        "midi": 62,
        "time": 45.75,
        "duration": 0.235,
        "velocity": 0.39,
        "hand": "right"
      },
      {
        "midi": 74,
        "time": 45.75,
        "duration": 0.5,
        "velocity": 0.63,
        "hand": "right"
      },
      {
        "midi": 50,
        "time": 46,
        "duration": 0.11,
        "velocity": 0.39,
        "hand": "left"
      },
      {
        "midi": 62,
        "time": 46,
        "duration": 0.11,
        "velocity": 0.63,
        "hand": "right"
      },
      {
        "midi": 50,
        "time": 46.125,
        "duration": 0.125,
        "velocity": 0.39,
        "hand": "left"
      },
      {
        "midi": 62,
        "time": 46.125,
        "duration": 0.125,
        "velocity": 0.63,
        "hand": "right"
      },
      {
        "midi": 50,
        "time": 46.5,
        "duration": 0.11,
        "velocity": 0.63,
        "hand": "left"
      },
      {
        "midi": 62,
        "time": 46.5,
        "duration": 0.11,
        "velocity": 0.63,
        "hand": "right"
      },
      {
        "midi": 74,
        "time": 46.5,
        "duration": 0.11,
        "velocity": 0.63,
        "hand": "right"
      },
      {
        "midi": 50,
        "time": 46.625,
        "duration": 0.125,
        "velocity": 0.63,
        "hand": "left"
      },
      {
        "midi": 62,
        "time": 46.625,
        "duration": 0.125,
        "velocity": 0.63,
        "hand": "right"
      },
      {
        "midi": 74,
        "time": 46.625,
        "duration": 0.125,
        "velocity": 0.63,
        "hand": "right"
      },
      {
        "midi": 50,
        "time": 47,
        "duration": 0.11,
        "velocity": 0.63,
        "hand": "left"
      },
      {
        "midi": 62,
        "time": 47,
        "duration": 0.11,
        "velocity": 0.63,
        "hand": "right"
      },
      {
        "midi": 74,
        "time": 47,
        "duration": 0.11,
        "velocity": 0.63,
        "hand": "right"
      },
      {
        "midi": 50,
        "time": 47.125,
        "duration": 0.125,
        "velocity": 0.63,
        "hand": "left"
      },
      {
        "midi": 62,
        "time": 47.125,
        "duration": 0.125,
        "velocity": 0.63,
        "hand": "right"
      },
      {
        "midi": 74,
        "time": 47.125,
        "duration": 0.125,
        "velocity": 0.63,
        "hand": "right"
      },
      {
        "midi": 50,
        "time": 47.5,
        "duration": 0.11,
        "velocity": 0.63,
        "hand": "left"
      },
      {
        "midi": 62,
        "time": 47.5,
        "duration": 0.11,
        "velocity": 0.63,
        "hand": "right"
      },
      {
        "midi": 50,
        "time": 47.625,
        "duration": 0.125,
        "velocity": 0.63,
        "hand": "left"
      },
      {
        "midi": 62,
        "time": 47.625,
        "duration": 0.125,
        "velocity": 0.63,
        "hand": "right"
      },
      {
        "midi": 50,
        "time": 48,
        "duration": 0.11,
        "velocity": 0.63,
        "hand": "left"
      },
      {
        "midi": 62,
        "time": 48,
        "duration": 0.11,
        "velocity": 0.63,
        "hand": "right"
      },
      {
        "midi": 50,
        "time": 48.125,
        "duration": 0.125,
        "velocity": 0.63,
        "hand": "left"
      },
      {
        "midi": 62,
        "time": 48.125,
        "duration": 0.125,
        "velocity": 0.63,
        "hand": "right"
      },
      {
        "midi": 50,
        "time": 48.5,
        "duration": 0.11,
        "velocity": 0.63,
        "hand": "left"
      },
      {
        "midi": 62,
        "time": 48.5,
        "duration": 0.11,
        "velocity": 0.63,
        "hand": "right"
      },
      {
        "midi": 50,
        "time": 48.625,
        "duration": 0.125,
        "velocity": 0.63,
        "hand": "left"
      },
      {
        "midi": 62,
        "time": 48.625,
        "duration": 0.125,
        "velocity": 0.63,
        "hand": "right"
      },
      {
        "midi": 50,
        "time": 49,
        "duration": 0.11,
        "velocity": 0.63,
        "hand": "left"
      },
      {
        "midi": 62,
        "time": 49,
        "duration": 0.11,
        "velocity": 0.63,
        "hand": "right"
      },
      {
        "midi": 50,
        "time": 49.125,
        "duration": 0.125,
        "velocity": 0.63,
        "hand": "left"
      },
      {
        "midi": 62,
        "time": 49.125,
        "duration": 0.125,
        "velocity": 0.63,
        "hand": "right"
      },
      {
        "midi": 50,
        "time": 49.5,
        "duration": 0.11,
        "velocity": 0.63,
        "hand": "left"
      },
      {
        "midi": 50,
        "time": 49.625,
        "duration": 0.125,
        "velocity": 0.63,
        "hand": "left"
      },
      {
        "midi": 50,
        "time": 50,
        "duration": 0.11,
        "velocity": 0.63,
        "hand": "left"
      },
      {
        "midi": 50,
        "time": 50.125,
        "duration": 0.125,
        "velocity": 0.63,
        "hand": "left"
      },
      {
        "midi": 50,
        "time": 50.5,
        "duration": 0.11,
        "velocity": 0.63,
        "hand": "left"
      },
      {
        "midi": 50,
        "time": 50.625,
        "duration": 0.125,
        "velocity": 0.63,
        "hand": "left"
      },
      {
        "midi": 50,
        "time": 51,
        "duration": 0.11,
        "velocity": 0.63,
        "hand": "left"
      },
      {
        "midi": 50,
        "time": 51.125,
        "duration": 0.125,
        "velocity": 0.63,
        "hand": "left"
      },
      {
        "midi": 50,
        "time": 51.5,
        "duration": 0.11,
        "velocity": 0.63,
        "hand": "left"
      },
      {
        "midi": 50,
        "time": 51.625,
        "duration": 0.125,
        "velocity": 0.63,
        "hand": "left"
      },
      {
        "midi": 50,
        "time": 52,
        "duration": 0.11,
        "velocity": 0.63,
        "hand": "left"
      },
      {
        "midi": 50,
        "time": 52.125,
        "duration": 0.125,
        "velocity": 0.63,
        "hand": "left"
      }
    ]
  },
  "notes1Hand": [
    {
      "midi": 69,
      "time": 0,
      "duration": 0.3,
      "velocity": 0.63,
      "hand": "right"
    },
    {
      "midi": 69,
      "time": 0.625,
      "duration": 0.3,
      "velocity": 0.63,
      "hand": "right"
    },
    {
      "midi": 66,
      "time": 1.25,
      "duration": 0.5,
      "velocity": 0.63,
      "hand": "right"
    },
    {
      "midi": 69,
      "time": 2,
      "duration": 0.3,
      "velocity": 0.63,
      "hand": "right"
    },
    {
      "midi": 69,
      "time": 2.625,
      "duration": 0.3,
      "velocity": 0.63,
      "hand": "right"
    },
    {
      "midi": 73,
      "time": 3.25,
      "duration": 0.5,
      "velocity": 0.63,
      "hand": "right"
    },
    {
      "midi": 69,
      "time": 4,
      "duration": 0.3,
      "velocity": 0.63,
      "hand": "right"
    },
    {
      "midi": 69,
      "time": 4.625,
      "duration": 0.3,
      "velocity": 0.63,
      "hand": "right"
    },
    {
      "midi": 73,
      "time": 5.25,
      "duration": 0.3,
      "velocity": 0.63,
      "hand": "right"
    },
    {
      "midi": 69,
      "time": 6,
      "duration": 0.3,
      "velocity": 0.63,
      "hand": "right"
    },
    {
      "midi": 61,
      "time": 6.625,
      "duration": 0.3,
      "velocity": 0.63,
      "hand": "right"
    },
    {
      "midi": 74,
      "time": 7.25,
      "duration": 0.3,
      "velocity": 0.63,
      "hand": "right"
    },
    {
      "midi": 69,
      "time": 8,
      "duration": 0.3,
      "velocity": 0.63,
      "hand": "right"
    },
    {
      "midi": 69,
      "time": 8.625,
      "duration": 0.3,
      "velocity": 0.63,
      "hand": "right"
    },
    {
      "midi": 66,
      "time": 9.25,
      "duration": 0.5,
      "velocity": 0.63,
      "hand": "right"
    },
    {
      "midi": 69,
      "time": 10,
      "duration": 0.3,
      "velocity": 0.63,
      "hand": "right"
    },
    {
      "midi": 69,
      "time": 10.625,
      "duration": 0.3,
      "velocity": 0.63,
      "hand": "right"
    },
    {
      "midi": 73,
      "time": 11.25,
      "duration": 0.5,
      "velocity": 0.63,
      "hand": "right"
    },
    {
      "midi": 69,
      "time": 12,
      "duration": 0.3,
      "velocity": 0.63,
      "hand": "right"
    },
    {
      "midi": 69,
      "time": 12.625,
      "duration": 0.3,
      "velocity": 0.63,
      "hand": "right"
    },
    {
      "midi": 73,
      "time": 13.25,
      "duration": 0.3,
      "velocity": 0.63,
      "hand": "right"
    },
    {
      "midi": 69,
      "time": 14,
      "duration": 0.3,
      "velocity": 0.63,
      "hand": "right"
    },
    {
      "midi": 61,
      "time": 14.625,
      "duration": 0.3,
      "velocity": 0.63,
      "hand": "right"
    },
    {
      "midi": 74,
      "time": 15.25,
      "duration": 0.3,
      "velocity": 0.63,
      "hand": "right"
    },
    {
      "midi": 57,
      "time": 16,
      "duration": 0.3,
      "velocity": 0.63,
      "hand": "right"
    },
    {
      "midi": 69,
      "time": 16.625,
      "duration": 0.3,
      "velocity": 0.63,
      "hand": "right"
    },
    {
      "midi": 64,
      "time": 17.25,
      "duration": 0.5,
      "velocity": 0.63,
      "hand": "right"
    },
    {
      "midi": 73,
      "time": 18,
      "duration": 0.3,
      "velocity": 0.63,
      "hand": "right"
    },
    {
      "midi": 74,
      "time": 18.625,
      "duration": 0.3,
      "velocity": 0.63,
      "hand": "right"
    },
    {
      "midi": 66,
      "time": 19.25,
      "duration": 0.5,
      "velocity": 0.63,
      "hand": "right"
    },
    {
      "midi": 74,
      "time": 20,
      "duration": 0.3,
      "velocity": 0.63,
      "hand": "right"
    },
    {
      "midi": 69,
      "time": 20.625,
      "duration": 0.3,
      "velocity": 0.63,
      "hand": "right"
    },
    {
      "midi": 64,
      "time": 21.25,
      "duration": 0.5,
      "velocity": 0.63,
      "hand": "right"
    },
    {
      "midi": 69,
      "time": 22,
      "duration": 0.3,
      "velocity": 0.63,
      "hand": "right"
    },
    {
      "midi": 62,
      "time": 22.625,
      "duration": 0.3,
      "velocity": 0.63,
      "hand": "right"
    },
    {
      "midi": 57,
      "time": 23.25,
      "duration": 0.3,
      "velocity": 0.63,
      "hand": "right"
    },
    {
      "midi": 66,
      "time": 24,
      "duration": 0.3,
      "velocity": 0.63,
      "hand": "right"
    },
    {
      "midi": 69,
      "time": 24.625,
      "duration": 0.3,
      "velocity": 0.63,
      "hand": "right"
    },
    {
      "midi": 64,
      "time": 25.25,
      "duration": 0.5,
      "velocity": 0.63,
      "hand": "right"
    },
    {
      "midi": 73,
      "time": 26,
      "duration": 0.3,
      "velocity": 0.63,
      "hand": "right"
    },
    {
      "midi": 74,
      "time": 26.625,
      "duration": 0.3,
      "velocity": 0.63,
      "hand": "right"
    },
    {
      "midi": 66,
      "time": 27.25,
      "duration": 0.5,
      "velocity": 0.63,
      "hand": "right"
    },
    {
      "midi": 74,
      "time": 28,
      "duration": 0.3,
      "velocity": 0.63,
      "hand": "right"
    },
    {
      "midi": 69,
      "time": 28.625,
      "duration": 0.3,
      "velocity": 0.63,
      "hand": "right"
    },
    {
      "midi": 64,
      "time": 29.25,
      "duration": 0.5,
      "velocity": 0.63,
      "hand": "right"
    },
    {
      "midi": 73,
      "time": 30,
      "duration": 0.3,
      "velocity": 0.63,
      "hand": "right"
    },
    {
      "midi": 57,
      "time": 30.625,
      "duration": 0.3,
      "velocity": 0.63,
      "hand": "right"
    },
    {
      "midi": 66,
      "time": 31.25,
      "duration": 0.5,
      "velocity": 0.63,
      "hand": "right"
    },
    {
      "midi": 69,
      "time": 32,
      "duration": 0.3,
      "velocity": 0.63,
      "hand": "right"
    },
    {
      "midi": 57,
      "time": 32.625,
      "duration": 0.3,
      "velocity": 0.63,
      "hand": "right"
    },
    {
      "midi": 61,
      "time": 33.25,
      "duration": 0.5,
      "velocity": 0.63,
      "hand": "right"
    },
    {
      "midi": 69,
      "time": 34,
      "duration": 0.3,
      "velocity": 0.63,
      "hand": "right"
    },
    {
      "midi": 64,
      "time": 34.625,
      "duration": 0.3,
      "velocity": 0.39,
      "hand": "right"
    },
    {
      "midi": 61,
      "time": 35.25,
      "duration": 0.3,
      "velocity": 0.63,
      "hand": "right"
    },
    {
      "midi": 69,
      "time": 36,
      "duration": 0.3,
      "velocity": 0.63,
      "hand": "right"
    },
    {
      "midi": 64,
      "time": 36.625,
      "duration": 0.3,
      "velocity": 0.39,
      "hand": "right"
    },
    {
      "midi": 62,
      "time": 37.25,
      "duration": 0.5,
      "velocity": 0.63,
      "hand": "right"
    },
    {
      "midi": 73,
      "time": 38,
      "duration": 0.3,
      "velocity": 0.63,
      "hand": "right"
    },
    {
      "midi": 62,
      "time": 38.625,
      "duration": 0.3,
      "velocity": 0.39,
      "hand": "right"
    },
    {
      "midi": 66,
      "time": 39.25,
      "duration": 0.5,
      "velocity": 0.63,
      "hand": "right"
    },
    {
      "midi": 69,
      "time": 40,
      "duration": 0.3,
      "velocity": 0.63,
      "hand": "right"
    },
    {
      "midi": 57,
      "time": 40.625,
      "duration": 0.3,
      "velocity": 0.63,
      "hand": "right"
    },
    {
      "midi": 55,
      "time": 41.25,
      "duration": 0.5,
      "velocity": 0.63,
      "hand": "right"
    },
    {
      "midi": 69,
      "time": 42,
      "duration": 0.3,
      "velocity": 0.63,
      "hand": "right"
    },
    {
      "midi": 64,
      "time": 42.625,
      "duration": 0.3,
      "velocity": 0.39,
      "hand": "right"
    },
    {
      "midi": 61,
      "time": 43.25,
      "duration": 0.3,
      "velocity": 0.63,
      "hand": "right"
    },
    {
      "midi": 69,
      "time": 44,
      "duration": 0.3,
      "velocity": 0.63,
      "hand": "right"
    },
    {
      "midi": 69,
      "time": 44.625,
      "duration": 0.3,
      "velocity": 0.63,
      "hand": "right"
    },
    {
      "midi": 74,
      "time": 45.25,
      "duration": 0.485,
      "velocity": 0.63,
      "hand": "right"
    },
    {
      "midi": 62,
      "time": 46,
      "duration": 0.3,
      "velocity": 0.63,
      "hand": "right"
    },
    {
      "midi": 74,
      "time": 46.625,
      "duration": 0.3,
      "velocity": 0.63,
      "hand": "right"
    },
    {
      "midi": 62,
      "time": 47.5,
      "duration": 0.3,
      "velocity": 0.63,
      "hand": "right"
    },
    {
      "midi": 62,
      "time": 48.125,
      "duration": 0.3,
      "velocity": 0.63,
      "hand": "right"
    },
    {
      "midi": 62,
      "time": 49,
      "duration": 0.3,
      "velocity": 0.63,
      "hand": "right"
    },
    {
      "midi": 62,
      "time": 49.625,
      "duration": 0.3,
      "velocity": 0.63,
      "hand": "right"
    },
    {
      "midi": 62,
      "time": 50.5,
      "duration": 0.3,
      "velocity": 0.63,
      "hand": "right"
    },
    {
      "midi": 62,
      "time": 51.125,
      "duration": 0.3,
      "velocity": 0.63,
      "hand": "right"
    },
    {
      "midi": 62,
      "time": 52,
      "duration": 0.3,
      "velocity": 0.63,
      "hand": "right"
    }
  ],
  "notes2Hands": [
    {
      "midi": 69,
      "time": 0,
      "duration": 0.25,
      "velocity": 0.63,
      "hand": "right"
    },
    {
      "midi": 74,
      "time": 0.25,
      "duration": 0.11,
      "velocity": 0.63,
      "hand": "right"
    },
    {
      "midi": 74,
      "time": 0.375,
      "duration": 0.25,
      "velocity": 0.63,
      "hand": "right"
    },
    {
      "midi": 54,
      "time": 0.5,
      "duration": 0.11,
      "velocity": 0.63,
      "hand": "left"
    },
    {
      "midi": 57,
      "time": 0.5,
      "duration": 0.11,
      "velocity": 0.63,
      "hand": "left"
    },
    {
      "midi": 62,
      "time": 0.5,
      "duration": 0.11,
      "velocity": 0.63,
      "hand": "right"
    },
    {
      "midi": 54,
      "time": 0.625,
      "duration": 0.125,
      "velocity": 0.63,
      "hand": "left"
    },
    {
      "midi": 57,
      "time": 0.625,
      "duration": 0.125,
      "velocity": 0.63,
      "hand": "left"
    },
    {
      "midi": 62,
      "time": 0.625,
      "duration": 0.125,
      "velocity": 0.63,
      "hand": "right"
    },
    {
      "midi": 69,
      "time": 0.625,
      "duration": 0.125,
      "velocity": 0.63,
      "hand": "right"
    },
    {
      "midi": 71,
      "time": 0.75,
      "duration": 0.25,
      "velocity": 0.63,
      "hand": "right"
    },
    {
      "midi": 54,
      "time": 1,
      "duration": 0.11,
      "velocity": 0.63,
      "hand": "left"
    },
    {
      "midi": 57,
      "time": 1,
      "duration": 0.11,
      "velocity": 0.63,
      "hand": "left"
    },
    {
      "midi": 62,
      "time": 1,
      "duration": 0.11,
      "velocity": 0.63,
      "hand": "right"
    },
    {
      "midi": 69,
      "time": 1,
      "duration": 0.25,
      "velocity": 0.63,
      "hand": "right"
    },
    {
      "midi": 54,
      "time": 1.125,
      "duration": 0.125,
      "velocity": 0.63,
      "hand": "left"
    },
    {
      "midi": 57,
      "time": 1.125,
      "duration": 0.125,
      "velocity": 0.63,
      "hand": "left"
    },
    {
      "midi": 62,
      "time": 1.125,
      "duration": 0.125,
      "velocity": 0.63,
      "hand": "right"
    },
    {
      "midi": 66,
      "time": 1.25,
      "duration": 0.5,
      "velocity": 0.63,
      "hand": "right"
    },
    {
      "midi": 54,
      "time": 1.5,
      "duration": 0.11,
      "velocity": 0.63,
      "hand": "left"
    },
    {
      "midi": 57,
      "time": 1.5,
      "duration": 0.11,
      "velocity": 0.63,
      "hand": "left"
    },
    {
      "midi": 62,
      "time": 1.5,
      "duration": 0.11,
      "velocity": 0.63,
      "hand": "right"
    },
    {
      "midi": 54,
      "time": 1.625,
      "duration": 0.125,
      "velocity": 0.63,
      "hand": "left"
    },
    {
      "midi": 57,
      "time": 1.625,
      "duration": 0.125,
      "velocity": 0.63,
      "hand": "left"
    },
    {
      "midi": 62,
      "time": 1.625,
      "duration": 0.125,
      "velocity": 0.63,
      "hand": "right"
    },
    {
      "midi": 54,
      "time": 2,
      "duration": 0.11,
      "velocity": 0.63,
      "hand": "left"
    },
    {
      "midi": 57,
      "time": 2,
      "duration": 0.11,
      "velocity": 0.63,
      "hand": "left"
    },
    {
      "midi": 62,
      "time": 2,
      "duration": 0.11,
      "velocity": 0.63,
      "hand": "right"
    },
    {
      "midi": 69,
      "time": 2,
      "duration": 0.25,
      "velocity": 0.63,
      "hand": "right"
    },
    {
      "midi": 54,
      "time": 2.125,
      "duration": 0.125,
      "velocity": 0.63,
      "hand": "left"
    },
    {
      "midi": 57,
      "time": 2.125,
      "duration": 0.125,
      "velocity": 0.63,
      "hand": "left"
    },
    {
      "midi": 62,
      "time": 2.125,
      "duration": 0.125,
      "velocity": 0.63,
      "hand": "right"
    },
    {
      "midi": 74,
      "time": 2.25,
      "duration": 0.11,
      "velocity": 0.63,
      "hand": "right"
    },
    {
      "midi": 74,
      "time": 2.375,
      "duration": 0.25,
      "velocity": 0.63,
      "hand": "right"
    },
    {
      "midi": 54,
      "time": 2.5,
      "duration": 0.11,
      "velocity": 0.63,
      "hand": "left"
    },
    {
      "midi": 57,
      "time": 2.5,
      "duration": 0.11,
      "velocity": 0.63,
      "hand": "left"
    },
    {
      "midi": 62,
      "time": 2.5,
      "duration": 0.11,
      "velocity": 0.63,
      "hand": "right"
    },
    {
      "midi": 54,
      "time": 2.625,
      "duration": 0.125,
      "velocity": 0.63,
      "hand": "left"
    },
    {
      "midi": 57,
      "time": 2.625,
      "duration": 0.125,
      "velocity": 0.63,
      "hand": "left"
    },
    {
      "midi": 62,
      "time": 2.625,
      "duration": 0.125,
      "velocity": 0.63,
      "hand": "right"
    },
    {
      "midi": 69,
      "time": 2.625,
      "duration": 0.125,
      "velocity": 0.63,
      "hand": "right"
    },
    {
      "midi": 71,
      "time": 2.75,
      "duration": 0.25,
      "velocity": 0.63,
      "hand": "right"
    },
    {
      "midi": 54,
      "time": 3,
      "duration": 0.11,
      "velocity": 0.63,
      "hand": "left"
    },
    {
      "midi": 57,
      "time": 3,
      "duration": 0.11,
      "velocity": 0.63,
      "hand": "left"
    },
    {
      "midi": 62,
      "time": 3,
      "duration": 0.11,
      "velocity": 0.63,
      "hand": "right"
    },
    {
      "midi": 69,
      "time": 3,
      "duration": 0.25,
      "velocity": 0.63,
      "hand": "right"
    },
    {
      "midi": 54,
      "time": 3.125,
      "duration": 0.125,
      "velocity": 0.63,
      "hand": "left"
    },
    {
      "midi": 57,
      "time": 3.125,
      "duration": 0.125,
      "velocity": 0.63,
      "hand": "left"
    },
    {
      "midi": 62,
      "time": 3.125,
      "duration": 0.125,
      "velocity": 0.63,
      "hand": "right"
    },
    {
      "midi": 73,
      "time": 3.25,
      "duration": 0.5,
      "velocity": 0.63,
      "hand": "right"
    },
    {
      "midi": 52,
      "time": 3.5,
      "duration": 0.11,
      "velocity": 0.63,
      "hand": "left"
    },
    {
      "midi": 57,
      "time": 3.5,
      "duration": 0.11,
      "velocity": 0.63,
      "hand": "left"
    },
    {
      "midi": 61,
      "time": 3.5,
      "duration": 0.11,
      "velocity": 0.63,
      "hand": "right"
    },
    {
      "midi": 52,
      "time": 3.625,
      "duration": 0.125,
      "velocity": 0.63,
      "hand": "left"
    },
    {
      "midi": 57,
      "time": 3.625,
      "duration": 0.125,
      "velocity": 0.63,
      "hand": "left"
    },
    {
      "midi": 61,
      "time": 3.625,
      "duration": 0.125,
      "velocity": 0.63,
      "hand": "right"
    },
    {
      "midi": 52,
      "time": 4,
      "duration": 0.11,
      "velocity": 0.63,
      "hand": "left"
    },
    {
      "midi": 57,
      "time": 4,
      "duration": 0.11,
      "velocity": 0.63,
      "hand": "left"
    },
    {
      "midi": 61,
      "time": 4,
      "duration": 0.11,
      "velocity": 0.63,
      "hand": "right"
    },
    {
      "midi": 69,
      "time": 4,
      "duration": 0.11,
      "velocity": 0.63,
      "hand": "right"
    },
    {
      "midi": 52,
      "time": 4.125,
      "duration": 0.125,
      "velocity": 0.63,
      "hand": "left"
    },
    {
      "midi": 57,
      "time": 4.125,
      "duration": 0.125,
      "velocity": 0.63,
      "hand": "left"
    },
    {
      "midi": 61,
      "time": 4.125,
      "duration": 0.125,
      "velocity": 0.63,
      "hand": "right"
    },
    {
      "midi": 69,
      "time": 4.125,
      "duration": 0.125,
      "velocity": 0.63,
      "hand": "right"
    },
    {
      "midi": 73,
      "time": 4.25,
      "duration": 0.11,
      "velocity": 0.63,
      "hand": "right"
    },
    {
      "midi": 73,
      "time": 4.375,
      "duration": 0.25,
      "velocity": 0.63,
      "hand": "right"
    },
    {
      "midi": 52,
      "time": 4.5,
      "duration": 0.11,
      "velocity": 0.63,
      "hand": "left"
    },
    {
      "midi": 57,
      "time": 4.5,
      "duration": 0.11,
      "velocity": 0.63,
      "hand": "left"
    },
    {
      "midi": 61,
      "time": 4.5,
      "duration": 0.11,
      "velocity": 0.63,
      "hand": "right"
    },
    {
      "midi": 52,
      "time": 4.625,
      "duration": 0.125,
      "velocity": 0.63,
      "hand": "left"
    },
    {
      "midi": 57,
      "time": 4.625,
      "duration": 0.125,
      "velocity": 0.63,
      "hand": "left"
    },
    {
      "midi": 61,
      "time": 4.625,
      "duration": 0.125,
      "velocity": 0.63,
      "hand": "right"
    },
    {
      "midi": 69,
      "time": 4.625,
      "duration": 0.125,
      "velocity": 0.63,
      "hand": "right"
    },
    {
      "midi": 71,
      "time": 4.75,
      "duration": 0.25,
      "velocity": 0.63,
      "hand": "right"
    },
    {
      "midi": 52,
      "time": 5,
      "duration": 0.11,
      "velocity": 0.63,
      "hand": "left"
    },
    {
      "midi": 57,
      "time": 5,
      "duration": 0.11,
      "velocity": 0.63,
      "hand": "left"
    },
    {
      "midi": 61,
      "time": 5,
      "duration": 0.11,
      "velocity": 0.63,
      "hand": "right"
    },
    {
      "midi": 69,
      "time": 5,
      "duration": 0.25,
      "velocity": 0.63,
      "hand": "right"
    },
    {
      "midi": 52,
      "time": 5.125,
      "duration": 0.125,
      "velocity": 0.63,
      "hand": "left"
    },
    {
      "midi": 57,
      "time": 5.125,
      "duration": 0.125,
      "velocity": 0.63,
      "hand": "left"
    },
    {
      "midi": 61,
      "time": 5.125,
      "duration": 0.125,
      "velocity": 0.63,
      "hand": "right"
    },
    {
      "midi": 73,
      "time": 5.25,
      "duration": 0.11,
      "velocity": 0.63,
      "hand": "right"
    },
    {
      "midi": 73,
      "time": 5.375,
      "duration": 0.25,
      "velocity": 0.63,
      "hand": "right"
    },
    {
      "midi": 52,
      "time": 5.5,
      "duration": 0.11,
      "velocity": 0.63,
      "hand": "left"
    },
    {
      "midi": 57,
      "time": 5.5,
      "duration": 0.11,
      "velocity": 0.63,
      "hand": "left"
    },
    {
      "midi": 61,
      "time": 5.5,
      "duration": 0.11,
      "velocity": 0.63,
      "hand": "right"
    },
    {
      "midi": 52,
      "time": 5.625,
      "duration": 0.125,
      "velocity": 0.63,
      "hand": "left"
    },
    {
      "midi": 57,
      "time": 5.625,
      "duration": 0.125,
      "velocity": 0.63,
      "hand": "left"
    },
    {
      "midi": 61,
      "time": 5.625,
      "duration": 0.125,
      "velocity": 0.63,
      "hand": "right"
    },
    {
      "midi": 69,
      "time": 5.625,
      "duration": 0.125,
      "velocity": 0.63,
      "hand": "right"
    },
    {
      "midi": 71,
      "time": 5.75,
      "duration": 0.25,
      "velocity": 0.63,
      "hand": "right"
    },
    {
      "midi": 52,
      "time": 6,
      "duration": 0.11,
      "velocity": 0.63,
      "hand": "left"
    },
    {
      "midi": 57,
      "time": 6,
      "duration": 0.11,
      "velocity": 0.63,
      "hand": "left"
    },
    {
      "midi": 61,
      "time": 6,
      "duration": 0.11,
      "velocity": 0.63,
      "hand": "right"
    },
    {
      "midi": 69,
      "time": 6,
      "duration": 0.25,
      "velocity": 0.63,
      "hand": "right"
    },
    {
      "midi": 52,
      "time": 6.125,
      "duration": 0.125,
      "velocity": 0.63,
      "hand": "left"
    },
    {
      "midi": 57,
      "time": 6.125,
      "duration": 0.125,
      "velocity": 0.63,
      "hand": "left"
    },
    {
      "midi": 61,
      "time": 6.125,
      "duration": 0.125,
      "velocity": 0.63,
      "hand": "right"
    },
    {
      "midi": 73,
      "time": 6.25,
      "duration": 0.25,
      "velocity": 0.63,
      "hand": "right"
    },
    {
      "midi": 52,
      "time": 6.5,
      "duration": 0.11,
      "velocity": 0.63,
      "hand": "left"
    },
    {
      "midi": 57,
      "time": 6.5,
      "duration": 0.11,
      "velocity": 0.63,
      "hand": "left"
    },
    {
      "midi": 61,
      "time": 6.5,
      "duration": 0.11,
      "velocity": 0.63,
      "hand": "right"
    },
    {
      "midi": 69,
      "time": 6.5,
      "duration": 0.25,
      "velocity": 0.63,
      "hand": "right"
    },
    {
      "midi": 52,
      "time": 6.625,
      "duration": 0.125,
      "velocity": 0.63,
      "hand": "left"
    },
    {
      "midi": 57,
      "time": 6.625,
      "duration": 0.125,
      "velocity": 0.63,
      "hand": "left"
    },
    {
      "midi": 61,
      "time": 6.625,
      "duration": 0.125,
      "velocity": 0.63,
      "hand": "right"
    },
    {
      "midi": 71,
      "time": 6.75,
      "duration": 0.25,
      "velocity": 0.63,
      "hand": "right"
    },
    {
      "midi": 52,
      "time": 7,
      "duration": 0.11,
      "velocity": 0.63,
      "hand": "left"
    },
    {
      "midi": 57,
      "time": 7,
      "duration": 0.11,
      "velocity": 0.63,
      "hand": "left"
    },
    {
      "midi": 61,
      "time": 7,
      "duration": 0.11,
      "velocity": 0.63,
      "hand": "right"
    },
    {
      "midi": 73,
      "time": 7,
      "duration": 0.25,
      "velocity": 0.63,
      "hand": "right"
    },
    {
      "midi": 52,
      "time": 7.125,
      "duration": 0.125,
      "velocity": 0.63,
      "hand": "left"
    },
    {
      "midi": 57,
      "time": 7.125,
      "duration": 0.11,
      "velocity": 0.63,
      "hand": "left"
    },
    {
      "midi": 61,
      "time": 7.125,
      "duration": 0.125,
      "velocity": 0.63,
      "hand": "right"
    },
    {
      "midi": 54,
      "time": 7.25,
      "duration": 0.25,
      "velocity": 0.63,
      "hand": "left"
    },
    {
      "midi": 57,
      "time": 7.25,
      "duration": 0.25,
      "velocity": 0.63,
      "hand": "left"
    },
    {
      "midi": 62,
      "time": 7.25,
      "duration": 0.25,
      "velocity": 0.63,
      "hand": "right"
    },
    {
      "midi": 74,
      "time": 7.25,
      "duration": 0.25,
      "velocity": 0.63,
      "hand": "right"
    },
    {
      "midi": 69,
      "time": 8,
      "duration": 0.25,
      "velocity": 0.63,
      "hand": "right"
    },
    {
      "midi": 74,
      "time": 8.25,
      "duration": 0.11,
      "velocity": 0.63,
      "hand": "right"
    },
    {
      "midi": 74,
      "time": 8.375,
      "duration": 0.25,
      "velocity": 0.63,
      "hand": "right"
    },
    {
      "midi": 54,
      "time": 8.5,
      "duration": 0.11,
      "velocity": 0.63,
      "hand": "left"
    },
    {
      "midi": 57,
      "time": 8.5,
      "duration": 0.11,
      "velocity": 0.63,
      "hand": "left"
    },
    {
      "midi": 62,
      "time": 8.5,
      "duration": 0.11,
      "velocity": 0.63,
      "hand": "right"
    },
    {
      "midi": 54,
      "time": 8.625,
      "duration": 0.125,
      "velocity": 0.63,
      "hand": "left"
    },
    {
      "midi": 57,
      "time": 8.625,
      "duration": 0.125,
      "velocity": 0.63,
      "hand": "left"
    },
    {
      "midi": 62,
      "time": 8.625,
      "duration": 0.125,
      "velocity": 0.63,
      "hand": "right"
    },
    {
      "midi": 69,
      "time": 8.625,
      "duration": 0.125,
      "velocity": 0.63,
      "hand": "right"
    },
    {
      "midi": 71,
      "time": 8.75,
      "duration": 0.25,
      "velocity": 0.63,
      "hand": "right"
    },
    {
      "midi": 54,
      "time": 9,
      "duration": 0.11,
      "velocity": 0.63,
      "hand": "left"
    },
    {
      "midi": 57,
      "time": 9,
      "duration": 0.11,
      "velocity": 0.63,
      "hand": "left"
    },
    {
      "midi": 62,
      "time": 9,
      "duration": 0.11,
      "velocity": 0.63,
      "hand": "right"
    },
    {
      "midi": 69,
      "time": 9,
      "duration": 0.25,
      "velocity": 0.63,
      "hand": "right"
    },
    {
      "midi": 54,
      "time": 9.125,
      "duration": 0.125,
      "velocity": 0.63,
      "hand": "left"
    },
    {
      "midi": 57,
      "time": 9.125,
      "duration": 0.125,
      "velocity": 0.63,
      "hand": "left"
    },
    {
      "midi": 62,
      "time": 9.125,
      "duration": 0.125,
      "velocity": 0.63,
      "hand": "right"
    },
    {
      "midi": 66,
      "time": 9.25,
      "duration": 0.5,
      "velocity": 0.63,
      "hand": "right"
    },
    {
      "midi": 54,
      "time": 9.5,
      "duration": 0.11,
      "velocity": 0.63,
      "hand": "left"
    },
    {
      "midi": 57,
      "time": 9.5,
      "duration": 0.11,
      "velocity": 0.63,
      "hand": "left"
    },
    {
      "midi": 62,
      "time": 9.5,
      "duration": 0.11,
      "velocity": 0.63,
      "hand": "right"
    },
    {
      "midi": 54,
      "time": 9.625,
      "duration": 0.125,
      "velocity": 0.63,
      "hand": "left"
    },
    {
      "midi": 57,
      "time": 9.625,
      "duration": 0.125,
      "velocity": 0.63,
      "hand": "left"
    },
    {
      "midi": 62,
      "time": 9.625,
      "duration": 0.125,
      "velocity": 0.63,
      "hand": "right"
    },
    {
      "midi": 54,
      "time": 10,
      "duration": 0.11,
      "velocity": 0.63,
      "hand": "left"
    },
    {
      "midi": 57,
      "time": 10,
      "duration": 0.11,
      "velocity": 0.63,
      "hand": "left"
    },
    {
      "midi": 62,
      "time": 10,
      "duration": 0.11,
      "velocity": 0.63,
      "hand": "right"
    },
    {
      "midi": 69,
      "time": 10,
      "duration": 0.25,
      "velocity": 0.63,
      "hand": "right"
    },
    {
      "midi": 54,
      "time": 10.125,
      "duration": 0.125,
      "velocity": 0.63,
      "hand": "left"
    },
    {
      "midi": 57,
      "time": 10.125,
      "duration": 0.125,
      "velocity": 0.63,
      "hand": "left"
    },
    {
      "midi": 62,
      "time": 10.125,
      "duration": 0.125,
      "velocity": 0.63,
      "hand": "right"
    },
    {
      "midi": 74,
      "time": 10.25,
      "duration": 0.11,
      "velocity": 0.63,
      "hand": "right"
    },
    {
      "midi": 74,
      "time": 10.375,
      "duration": 0.25,
      "velocity": 0.63,
      "hand": "right"
    },
    {
      "midi": 54,
      "time": 10.5,
      "duration": 0.11,
      "velocity": 0.63,
      "hand": "left"
    },
    {
      "midi": 57,
      "time": 10.5,
      "duration": 0.11,
      "velocity": 0.63,
      "hand": "left"
    },
    {
      "midi": 62,
      "time": 10.5,
      "duration": 0.11,
      "velocity": 0.63,
      "hand": "right"
    },
    {
      "midi": 54,
      "time": 10.625,
      "duration": 0.125,
      "velocity": 0.63,
      "hand": "left"
    },
    {
      "midi": 57,
      "time": 10.625,
      "duration": 0.125,
      "velocity": 0.63,
      "hand": "left"
    },
    {
      "midi": 62,
      "time": 10.625,
      "duration": 0.125,
      "velocity": 0.63,
      "hand": "right"
    },
    {
      "midi": 69,
      "time": 10.625,
      "duration": 0.125,
      "velocity": 0.63,
      "hand": "right"
    },
    {
      "midi": 71,
      "time": 10.75,
      "duration": 0.25,
      "velocity": 0.63,
      "hand": "right"
    },
    {
      "midi": 54,
      "time": 11,
      "duration": 0.11,
      "velocity": 0.63,
      "hand": "left"
    },
    {
      "midi": 57,
      "time": 11,
      "duration": 0.11,
      "velocity": 0.63,
      "hand": "left"
    },
    {
      "midi": 62,
      "time": 11,
      "duration": 0.11,
      "velocity": 0.63,
      "hand": "right"
    },
    {
      "midi": 69,
      "time": 11,
      "duration": 0.25,
      "velocity": 0.63,
      "hand": "right"
    },
    {
      "midi": 54,
      "time": 11.125,
      "duration": 0.125,
      "velocity": 0.63,
      "hand": "left"
    },
    {
      "midi": 57,
      "time": 11.125,
      "duration": 0.125,
      "velocity": 0.63,
      "hand": "left"
    },
    {
      "midi": 62,
      "time": 11.125,
      "duration": 0.125,
      "velocity": 0.63,
      "hand": "right"
    },
    {
      "midi": 73,
      "time": 11.25,
      "duration": 0.5,
      "velocity": 0.63,
      "hand": "right"
    },
    {
      "midi": 52,
      "time": 11.5,
      "duration": 0.11,
      "velocity": 0.63,
      "hand": "left"
    },
    {
      "midi": 57,
      "time": 11.5,
      "duration": 0.11,
      "velocity": 0.63,
      "hand": "left"
    },
    {
      "midi": 61,
      "time": 11.5,
      "duration": 0.11,
      "velocity": 0.63,
      "hand": "right"
    },
    {
      "midi": 52,
      "time": 11.625,
      "duration": 0.125,
      "velocity": 0.63,
      "hand": "left"
    },
    {
      "midi": 57,
      "time": 11.625,
      "duration": 0.125,
      "velocity": 0.63,
      "hand": "left"
    },
    {
      "midi": 61,
      "time": 11.625,
      "duration": 0.125,
      "velocity": 0.63,
      "hand": "right"
    },
    {
      "midi": 52,
      "time": 12,
      "duration": 0.11,
      "velocity": 0.63,
      "hand": "left"
    },
    {
      "midi": 57,
      "time": 12,
      "duration": 0.11,
      "velocity": 0.63,
      "hand": "left"
    },
    {
      "midi": 61,
      "time": 12,
      "duration": 0.11,
      "velocity": 0.63,
      "hand": "right"
    },
    {
      "midi": 69,
      "time": 12,
      "duration": 0.11,
      "velocity": 0.63,
      "hand": "right"
    },
    {
      "midi": 52,
      "time": 12.125,
      "duration": 0.125,
      "velocity": 0.63,
      "hand": "left"
    },
    {
      "midi": 57,
      "time": 12.125,
      "duration": 0.125,
      "velocity": 0.63,
      "hand": "left"
    },
    {
      "midi": 61,
      "time": 12.125,
      "duration": 0.125,
      "velocity": 0.63,
      "hand": "right"
    },
    {
      "midi": 69,
      "time": 12.125,
      "duration": 0.125,
      "velocity": 0.63,
      "hand": "right"
    },
    {
      "midi": 73,
      "time": 12.25,
      "duration": 0.11,
      "velocity": 0.63,
      "hand": "right"
    },
    {
      "midi": 73,
      "time": 12.375,
      "duration": 0.25,
      "velocity": 0.63,
      "hand": "right"
    },
    {
      "midi": 52,
      "time": 12.5,
      "duration": 0.11,
      "velocity": 0.63,
      "hand": "left"
    },
    {
      "midi": 57,
      "time": 12.5,
      "duration": 0.11,
      "velocity": 0.63,
      "hand": "left"
    },
    {
      "midi": 61,
      "time": 12.5,
      "duration": 0.11,
      "velocity": 0.63,
      "hand": "right"
    },
    {
      "midi": 52,
      "time": 12.625,
      "duration": 0.125,
      "velocity": 0.63,
      "hand": "left"
    },
    {
      "midi": 57,
      "time": 12.625,
      "duration": 0.125,
      "velocity": 0.63,
      "hand": "left"
    },
    {
      "midi": 61,
      "time": 12.625,
      "duration": 0.125,
      "velocity": 0.63,
      "hand": "right"
    },
    {
      "midi": 69,
      "time": 12.625,
      "duration": 0.125,
      "velocity": 0.63,
      "hand": "right"
    },
    {
      "midi": 71,
      "time": 12.75,
      "duration": 0.25,
      "velocity": 0.63,
      "hand": "right"
    },
    {
      "midi": 52,
      "time": 13,
      "duration": 0.11,
      "velocity": 0.63,
      "hand": "left"
    },
    {
      "midi": 57,
      "time": 13,
      "duration": 0.11,
      "velocity": 0.63,
      "hand": "left"
    },
    {
      "midi": 61,
      "time": 13,
      "duration": 0.11,
      "velocity": 0.63,
      "hand": "right"
    },
    {
      "midi": 69,
      "time": 13,
      "duration": 0.25,
      "velocity": 0.63,
      "hand": "right"
    },
    {
      "midi": 52,
      "time": 13.125,
      "duration": 0.125,
      "velocity": 0.63,
      "hand": "left"
    },
    {
      "midi": 57,
      "time": 13.125,
      "duration": 0.125,
      "velocity": 0.63,
      "hand": "left"
    },
    {
      "midi": 61,
      "time": 13.125,
      "duration": 0.125,
      "velocity": 0.63,
      "hand": "right"
    },
    {
      "midi": 73,
      "time": 13.25,
      "duration": 0.11,
      "velocity": 0.63,
      "hand": "right"
    },
    {
      "midi": 73,
      "time": 13.375,
      "duration": 0.25,
      "velocity": 0.63,
      "hand": "right"
    },
    {
      "midi": 52,
      "time": 13.5,
      "duration": 0.11,
      "velocity": 0.63,
      "hand": "left"
    },
    {
      "midi": 57,
      "time": 13.5,
      "duration": 0.11,
      "velocity": 0.63,
      "hand": "left"
    },
    {
      "midi": 61,
      "time": 13.5,
      "duration": 0.11,
      "velocity": 0.63,
      "hand": "right"
    },
    {
      "midi": 52,
      "time": 13.625,
      "duration": 0.125,
      "velocity": 0.63,
      "hand": "left"
    },
    {
      "midi": 57,
      "time": 13.625,
      "duration": 0.125,
      "velocity": 0.63,
      "hand": "left"
    },
    {
      "midi": 61,
      "time": 13.625,
      "duration": 0.125,
      "velocity": 0.63,
      "hand": "right"
    },
    {
      "midi": 69,
      "time": 13.625,
      "duration": 0.125,
      "velocity": 0.63,
      "hand": "right"
    },
    {
      "midi": 71,
      "time": 13.75,
      "duration": 0.25,
      "velocity": 0.63,
      "hand": "right"
    },
    {
      "midi": 52,
      "time": 14,
      "duration": 0.11,
      "velocity": 0.63,
      "hand": "left"
    },
    {
      "midi": 57,
      "time": 14,
      "duration": 0.11,
      "velocity": 0.63,
      "hand": "left"
    },
    {
      "midi": 61,
      "time": 14,
      "duration": 0.11,
      "velocity": 0.63,
      "hand": "right"
    },
    {
      "midi": 69,
      "time": 14,
      "duration": 0.25,
      "velocity": 0.63,
      "hand": "right"
    },
    {
      "midi": 52,
      "time": 14.125,
      "duration": 0.125,
      "velocity": 0.63,
      "hand": "left"
    },
    {
      "midi": 57,
      "time": 14.125,
      "duration": 0.125,
      "velocity": 0.63,
      "hand": "left"
    },
    {
      "midi": 61,
      "time": 14.125,
      "duration": 0.125,
      "velocity": 0.63,
      "hand": "right"
    },
    {
      "midi": 73,
      "time": 14.25,
      "duration": 0.25,
      "velocity": 0.63,
      "hand": "right"
    },
    {
      "midi": 52,
      "time": 14.5,
      "duration": 0.11,
      "velocity": 0.63,
      "hand": "left"
    },
    {
      "midi": 57,
      "time": 14.5,
      "duration": 0.11,
      "velocity": 0.63,
      "hand": "left"
    },
    {
      "midi": 61,
      "time": 14.5,
      "duration": 0.11,
      "velocity": 0.63,
      "hand": "right"
    },
    {
      "midi": 69,
      "time": 14.5,
      "duration": 0.25,
      "velocity": 0.63,
      "hand": "right"
    },
    {
      "midi": 52,
      "time": 14.625,
      "duration": 0.125,
      "velocity": 0.63,
      "hand": "left"
    },
    {
      "midi": 57,
      "time": 14.625,
      "duration": 0.125,
      "velocity": 0.63,
      "hand": "left"
    },
    {
      "midi": 61,
      "time": 14.625,
      "duration": 0.125,
      "velocity": 0.63,
      "hand": "right"
    },
    {
      "midi": 71,
      "time": 14.75,
      "duration": 0.25,
      "velocity": 0.63,
      "hand": "right"
    },
    {
      "midi": 52,
      "time": 15,
      "duration": 0.11,
      "velocity": 0.63,
      "hand": "left"
    },
    {
      "midi": 57,
      "time": 15,
      "duration": 0.11,
      "velocity": 0.63,
      "hand": "left"
    },
    {
      "midi": 61,
      "time": 15,
      "duration": 0.11,
      "velocity": 0.63,
      "hand": "right"
    },
    {
      "midi": 73,
      "time": 15,
      "duration": 0.25,
      "velocity": 0.63,
      "hand": "right"
    },
    {
      "midi": 52,
      "time": 15.125,
      "duration": 0.125,
      "velocity": 0.63,
      "hand": "left"
    },
    {
      "midi": 57,
      "time": 15.125,
      "duration": 0.11,
      "velocity": 0.63,
      "hand": "left"
    },
    {
      "midi": 61,
      "time": 15.125,
      "duration": 0.125,
      "velocity": 0.63,
      "hand": "right"
    },
    {
      "midi": 54,
      "time": 15.25,
      "duration": 0.25,
      "velocity": 0.63,
      "hand": "left"
    },
    {
      "midi": 57,
      "time": 15.25,
      "duration": 0.235,
      "velocity": 0.63,
      "hand": "left"
    },
    {
      "midi": 62,
      "time": 15.25,
      "duration": 0.25,
      "velocity": 0.63,
      "hand": "right"
    },
    {
      "midi": 74,
      "time": 15.25,
      "duration": 0.25,
      "velocity": 0.63,
      "hand": "right"
    },
    {
      "midi": 57,
      "time": 15.5,
      "duration": 0.25,
      "velocity": 0.63,
      "hand": "left"
    },
    {
      "midi": 59,
      "time": 15.75,
      "duration": 0.25,
      "velocity": 0.63,
      "hand": "left"
    },
    {
      "midi": 57,
      "time": 16,
      "duration": 0.235,
      "velocity": 0.63,
      "hand": "left"
    },
    {
      "midi": 52,
      "time": 16.25,
      "duration": 0.36,
      "velocity": 0.63,
      "hand": "left"
    },
    {
      "midi": 57,
      "time": 16.25,
      "duration": 0.5,
      "velocity": 0.63,
      "hand": "left"
    },
    {
      "midi": 64,
      "time": 16.25,
      "duration": 0.5,
      "velocity": 0.63,
      "hand": "right"
    },
    {
      "midi": 69,
      "time": 16.5,
      "duration": 0.11,
      "velocity": 0.63,
      "hand": "right"
    },
    {
      "midi": 52,
      "time": 16.625,
      "duration": 0.375,
      "velocity": 0.63,
      "hand": "left"
    },
    {
      "midi": 69,
      "time": 16.625,
      "duration": 0.11,
      "velocity": 0.63,
      "hand": "right"
    },
    {
      "midi": 61,
      "time": 16.75,
      "duration": 0.5,
      "velocity": 0.63,
      "hand": "right"
    },
    {
      "midi": 69,
      "time": 16.75,
      "duration": 0.235,
      "velocity": 0.63,
      "hand": "right"
    },
    {
      "midi": 45,
      "time": 17,
      "duration": 0.25,
      "velocity": 0.63,
      "hand": "left"
    },
    {
      "midi": 69,
      "time": 17,
      "duration": 0.11,
      "velocity": 0.63,
      "hand": "right"
    },
    {
      "midi": 69,
      "time": 17.125,
      "duration": 0.125,
      "velocity": 0.63,
      "hand": "right"
    },
    {
      "midi": 52,
      "time": 17.25,
      "duration": 0.36,
      "velocity": 0.63,
      "hand": "left"
    },
    {
      "midi": 64,
      "time": 17.25,
      "duration": 0.5,
      "velocity": 0.63,
      "hand": "right"
    },
    {
      "midi": 57,
      "time": 17.375,
      "duration": 0.235,
      "velocity": 0.63,
      "hand": "left"
    },
    {
      "midi": 73,
      "time": 17.5,
      "duration": 0.11,
      "velocity": 0.63,
      "hand": "right"
    },
    {
      "midi": 52,
      "time": 17.625,
      "duration": 0.375,
      "velocity": 0.63,
      "hand": "left"
    },
    {
      "midi": 57,
      "time": 17.625,
      "duration": 0.125,
      "velocity": 0.63,
      "hand": "left"
    },
    {
      "midi": 73,
      "time": 17.625,
      "duration": 0.125,
      "velocity": 0.63,
      "hand": "right"
    },
    {
      "midi": 59,
      "time": 17.75,
      "duration": 0.25,
      "velocity": 0.63,
      "hand": "left"
    },
    {
      "midi": 69,
      "time": 17.75,
      "duration": 0.5,
      "velocity": 0.63,
      "hand": "right"
    },
    {
      "midi": 45,
      "time": 18,
      "duration": 0.25,
      "velocity": 0.63,
      "hand": "left"
    },
    {
      "midi": 57,
      "time": 18,
      "duration": 0.235,
      "velocity": 0.63,
      "hand": "left"
    },
    {
      "midi": 73,
      "time": 18,
      "duration": 0.11,
      "velocity": 0.63,
      "hand": "right"
    },
    {
      "midi": 73,
      "time": 18.125,
      "duration": 0.125,
      "velocity": 0.63,
      "hand": "right"
    },
    {
      "midi": 54,
      "time": 18.25,
      "duration": 0.36,
      "velocity": 0.63,
      "hand": "left"
    },
    {
      "midi": 57,
      "time": 18.25,
      "duration": 0.5,
      "velocity": 0.63,
      "hand": "left"
    },
    {
      "midi": 66,
      "time": 18.25,
      "duration": 0.5,
      "velocity": 0.63,
      "hand": "right"
    },
    {
      "midi": 74,
      "time": 18.5,
      "duration": 0.11,
      "velocity": 0.63,
      "hand": "right"
    },
    {
      "midi": 54,
      "time": 18.625,
      "duration": 0.375,
      "velocity": 0.63,
      "hand": "left"
    },
    {
      "midi": 74,
      "time": 18.625,
      "duration": 0.125,
      "velocity": 0.63,
      "hand": "right"
    },
    {
      "midi": 62,
      "time": 18.75,
      "duration": 0.5,
      "velocity": 0.63,
      "hand": "right"
    },
    {
      "midi": 69,
      "time": 18.75,
      "duration": 0.5,
      "velocity": 0.63,
      "hand": "right"
    },
    {
      "midi": 50,
      "time": 19,
      "duration": 0.25,
      "velocity": 0.63,
      "hand": "left"
    },
    {
      "midi": 74,
      "time": 19,
      "duration": 0.11,
      "velocity": 0.63,
      "hand": "right"
    },
    {
      "midi": 74,
      "time": 19.125,
      "duration": 0.125,
      "velocity": 0.63,
      "hand": "right"
    },
    {
      "midi": 54,
      "time": 19.25,
      "duration": 0.36,
      "velocity": 0.63,
      "hand": "left"
    },
    {
      "midi": 66,
      "time": 19.25,
      "duration": 0.5,
      "velocity": 0.63,
      "hand": "right"
    },
    {
      "midi": 57,
      "time": 19.375,
      "duration": 0.235,
      "velocity": 0.63,
      "hand": "left"
    },
    {
      "midi": 74,
      "time": 19.5,
      "duration": 0.11,
      "velocity": 0.63,
      "hand": "right"
    },
    {
      "midi": 54,
      "time": 19.625,
      "duration": 0.375,
      "velocity": 0.63,
      "hand": "left"
    },
    {
      "midi": 57,
      "time": 19.625,
      "duration": 0.125,
      "velocity": 0.63,
      "hand": "left"
    },
    {
      "midi": 74,
      "time": 19.625,
      "duration": 0.125,
      "velocity": 0.63,
      "hand": "right"
    },
    {
      "midi": 59,
      "time": 19.75,
      "duration": 0.25,
      "velocity": 0.63,
      "hand": "left"
    },
    {
      "midi": 69,
      "time": 19.75,
      "duration": 0.5,
      "velocity": 0.63,
      "hand": "right"
    },
    {
      "midi": 50,
      "time": 20,
      "duration": 0.25,
      "velocity": 0.63,
      "hand": "left"
    },
    {
      "midi": 57,
      "time": 20,
      "duration": 0.235,
      "velocity": 0.63,
      "hand": "left"
    },
    {
      "midi": 74,
      "time": 20,
      "duration": 0.11,
      "velocity": 0.63,
      "hand": "right"
    },
    {
      "midi": 74,
      "time": 20.125,
      "duration": 0.125,
      "velocity": 0.63,
      "hand": "right"
    },
    {
      "midi": 52,
      "time": 20.25,
      "duration": 0.36,
      "velocity": 0.63,
      "hand": "left"
    },
    {
      "midi": 57,
      "time": 20.25,
      "duration": 0.5,
      "velocity": 0.63,
      "hand": "left"
    },
    {
      "midi": 64,
      "time": 20.25,
      "duration": 0.5,
      "velocity": 0.63,
      "hand": "right"
    },
    {
      "midi": 69,
      "time": 20.5,
      "duration": 0.11,
      "velocity": 0.63,
      "hand": "right"
    },
    {
      "midi": 52,
      "time": 20.625,
      "duration": 0.375,
      "velocity": 0.63,
      "hand": "left"
    },
    {
      "midi": 69,
      "time": 20.625,
      "duration": 0.11,
      "velocity": 0.63,
      "hand": "right"
    },
    {
      "midi": 61,
      "time": 20.75,
      "duration": 0.5,
      "velocity": 0.63,
      "hand": "right"
    },
    {
      "midi": 69,
      "time": 20.75,
      "duration": 0.235,
      "velocity": 0.63,
      "hand": "right"
    },
    {
      "midi": 45,
      "time": 21,
      "duration": 0.25,
      "velocity": 0.63,
      "hand": "left"
    },
    {
      "midi": 69,
      "time": 21,
      "duration": 0.11,
      "velocity": 0.63,
      "hand": "right"
    },
    {
      "midi": 69,
      "time": 21.125,
      "duration": 0.125,
      "velocity": 0.63,
      "hand": "right"
    },
    {
      "midi": 52,
      "time": 21.25,
      "duration": 0.36,
      "velocity": 0.63,
      "hand": "left"
    },
    {
      "midi": 64,
      "time": 21.25,
      "duration": 0.5,
      "velocity": 0.63,
      "hand": "right"
    },
    {
      "midi": 57,
      "time": 21.5,
      "duration": 0.25,
      "velocity": 0.63,
      "hand": "left"
    },
    {
      "midi": 69,
      "time": 21.5,
      "duration": 0.11,
      "velocity": 0.63,
      "hand": "right"
    },
    {
      "midi": 52,
      "time": 21.625,
      "duration": 0.375,
      "velocity": 0.63,
      "hand": "left"
    },
    {
      "midi": 69,
      "time": 21.625,
      "duration": 0.11,
      "velocity": 0.63,
      "hand": "right"
    },
    {
      "midi": 59,
      "time": 21.75,
      "duration": 0.25,
      "velocity": 0.63,
      "hand": "left"
    },
    {
      "midi": 69,
      "time": 21.75,
      "duration": 0.235,
      "velocity": 0.63,
      "hand": "right"
    },
    {
      "midi": 45,
      "time": 22,
      "duration": 0.25,
      "velocity": 0.63,
      "hand": "left"
    },
    {
      "midi": 61,
      "time": 22,
      "duration": 0.25,
      "velocity": 0.63,
      "hand": "right"
    },
    {
      "midi": 69,
      "time": 22,
      "duration": 0.11,
      "velocity": 0.63,
      "hand": "right"
    },
    {
      "midi": 69,
      "time": 22.125,
      "duration": 0.11,
      "velocity": 0.63,
      "hand": "right"
    },
    {
      "midi": 50,
      "time": 22.25,
      "duration": 0.11,
      "velocity": 0.63,
      "hand": "left"
    },
    {
      "midi": 62,
      "time": 22.25,
      "duration": 1,
      "velocity": 0.63,
      "hand": "right"
    },
    {
      "midi": 66,
      "time": 22.25,
      "duration": 1,
      "velocity": 0.63,
      "hand": "right"
    },
    {
      "midi": 69,
      "time": 22.25,
      "duration": 1,
      "velocity": 0.63,
      "hand": "right"
    },
    {
      "midi": 50,
      "time": 22.375,
      "duration": 0.235,
      "velocity": 0.63,
      "hand": "left"
    },
    {
      "midi": 50,
      "time": 22.625,
      "duration": 0.125,
      "velocity": 0.63,
      "hand": "left"
    },
    {
      "midi": 47,
      "time": 22.75,
      "duration": 0.25,
      "velocity": 0.63,
      "hand": "left"
    },
    {
      "midi": 45,
      "time": 23,
      "duration": 0.235,
      "velocity": 0.63,
      "hand": "left"
    },
    {
      "midi": 45,
      "time": 23.25,
      "duration": 0.25,
      "velocity": 0.63,
      "hand": "left"
    },
    {
      "midi": 57,
      "time": 23.5,
      "duration": 0.25,
      "velocity": 0.63,
      "hand": "left"
    },
    {
      "midi": 66,
      "time": 23.5,
      "duration": 0.25,
      "velocity": 0.63,
      "hand": "right"
    },
    {
      "midi": 59,
      "time": 23.75,
      "duration": 0.25,
      "velocity": 0.63,
      "hand": "left"
    },
    {
      "midi": 68,
      "time": 23.75,
      "duration": 0.25,
      "velocity": 0.63,
      "hand": "right"
    },
    {
      "midi": 57,
      "time": 24,
      "duration": 0.235,
      "velocity": 0.63,
      "hand": "left"
    },
    {
      "midi": 66,
      "time": 24,
      "duration": 0.25,
      "velocity": 0.63,
      "hand": "right"
    },
    {
      "midi": 52,
      "time": 24.25,
      "duration": 0.36,
      "velocity": 0.63,
      "hand": "left"
    },
    {
      "midi": 57,
      "time": 24.25,
      "duration": 0.5,
      "velocity": 0.63,
      "hand": "left"
    },
    {
      "midi": 64,
      "time": 24.25,
      "duration": 0.5,
      "velocity": 0.63,
      "hand": "right"
    },
    {
      "midi": 69,
      "time": 24.5,
      "duration": 0.11,
      "velocity": 0.63,
      "hand": "right"
    },
    {
      "midi": 52,
      "time": 24.625,
      "duration": 0.375,
      "velocity": 0.63,
      "hand": "left"
    },
    {
      "midi": 69,
      "time": 24.625,
      "duration": 0.11,
      "velocity": 0.63,
      "hand": "right"
    },
    {
      "midi": 61,
      "time": 24.75,
      "duration": 0.5,
      "velocity": 0.63,
      "hand": "right"
    },
    {
      "midi": 69,
      "time": 24.75,
      "duration": 0.235,
      "velocity": 0.63,
      "hand": "right"
    },
    {
      "midi": 45,
      "time": 25,
      "duration": 0.25,
      "velocity": 0.63,
      "hand": "left"
    },
    {
      "midi": 69,
      "time": 25,
      "duration": 0.11,
      "velocity": 0.63,
      "hand": "right"
    },
    {
      "midi": 69,
      "time": 25.125,
      "duration": 0.125,
      "velocity": 0.63,
      "hand": "right"
    },
    {
      "midi": 52,
      "time": 25.25,
      "duration": 0.36,
      "velocity": 0.63,
      "hand": "left"
    },
    {
      "midi": 64,
      "time": 25.25,
      "duration": 0.5,
      "velocity": 0.63,
      "hand": "right"
    },
    {
      "midi": 57,
      "time": 25.5,
      "duration": 0.25,
      "velocity": 0.63,
      "hand": "left"
    },
    {
      "midi": 73,
      "time": 25.5,
      "duration": 0.11,
      "velocity": 0.63,
      "hand": "right"
    },
    {
      "midi": 52,
      "time": 25.625,
      "duration": 0.375,
      "velocity": 0.63,
      "hand": "left"
    },
    {
      "midi": 73,
      "time": 25.625,
      "duration": 0.125,
      "velocity": 0.63,
      "hand": "right"
    },
    {
      "midi": 59,
      "time": 25.75,
      "duration": 0.25,
      "velocity": 0.63,
      "hand": "left"
    },
    {
      "midi": 69,
      "time": 25.75,
      "duration": 0.5,
      "velocity": 0.63,
      "hand": "right"
    },
    {
      "midi": 45,
      "time": 26,
      "duration": 0.25,
      "velocity": 0.63,
      "hand": "left"
    },
    {
      "midi": 57,
      "time": 26,
      "duration": 0.235,
      "velocity": 0.63,
      "hand": "left"
    },
    {
      "midi": 73,
      "time": 26,
      "duration": 0.11,
      "velocity": 0.63,
      "hand": "right"
    },
    {
      "midi": 73,
      "time": 26.125,
      "duration": 0.125,
      "velocity": 0.63,
      "hand": "right"
    },
    {
      "midi": 54,
      "time": 26.25,
      "duration": 0.36,
      "velocity": 0.63,
      "hand": "left"
    },
    {
      "midi": 57,
      "time": 26.25,
      "duration": 0.5,
      "velocity": 0.63,
      "hand": "left"
    },
    {
      "midi": 66,
      "time": 26.25,
      "duration": 0.5,
      "velocity": 0.63,
      "hand": "right"
    },
    {
      "midi": 74,
      "time": 26.5,
      "duration": 0.11,
      "velocity": 0.63,
      "hand": "right"
    },
    {
      "midi": 54,
      "time": 26.625,
      "duration": 0.375,
      "velocity": 0.63,
      "hand": "left"
    },
    {
      "midi": 74,
      "time": 26.625,
      "duration": 0.125,
      "velocity": 0.63,
      "hand": "right"
    },
    {
      "midi": 62,
      "time": 26.75,
      "duration": 0.5,
      "velocity": 0.63,
      "hand": "right"
    },
    {
      "midi": 69,
      "time": 26.75,
      "duration": 0.5,
      "velocity": 0.63,
      "hand": "right"
    },
    {
      "midi": 50,
      "time": 27,
      "duration": 0.25,
      "velocity": 0.63,
      "hand": "left"
    },
    {
      "midi": 74,
      "time": 27,
      "duration": 0.11,
      "velocity": 0.63,
      "hand": "right"
    },
    {
      "midi": 74,
      "time": 27.125,
      "duration": 0.125,
      "velocity": 0.63,
      "hand": "right"
    },
    {
      "midi": 54,
      "time": 27.25,
      "duration": 0.36,
      "velocity": 0.63,
      "hand": "left"
    },
    {
      "midi": 66,
      "time": 27.25,
      "duration": 0.5,
      "velocity": 0.63,
      "hand": "right"
    },
    {
      "midi": 57,
      "time": 27.5,
      "duration": 0.25,
      "velocity": 0.63,
      "hand": "left"
    },
    {
      "midi": 74,
      "time": 27.5,
      "duration": 0.11,
      "velocity": 0.63,
      "hand": "right"
    },
    {
      "midi": 54,
      "time": 27.625,
      "duration": 0.375,
      "velocity": 0.63,
      "hand": "left"
    },
    {
      "midi": 74,
      "time": 27.625,
      "duration": 0.125,
      "velocity": 0.63,
      "hand": "right"
    },
    {
      "midi": 59,
      "time": 27.75,
      "duration": 0.25,
      "velocity": 0.63,
      "hand": "left"
    },
    {
      "midi": 69,
      "time": 27.75,
      "duration": 0.5,
      "velocity": 0.63,
      "hand": "right"
    },
    {
      "midi": 50,
      "time": 28,
      "duration": 0.25,
      "velocity": 0.63,
      "hand": "left"
    },
    {
      "midi": 57,
      "time": 28,
      "duration": 0.235,
      "velocity": 0.63,
      "hand": "left"
    },
    {
      "midi": 74,
      "time": 28,
      "duration": 0.11,
      "velocity": 0.63,
      "hand": "right"
    },
    {
      "midi": 74,
      "time": 28.125,
      "duration": 0.125,
      "velocity": 0.63,
      "hand": "right"
    },
    {
      "midi": 52,
      "time": 28.25,
      "duration": 0.36,
      "velocity": 0.63,
      "hand": "left"
    },
    {
      "midi": 57,
      "time": 28.25,
      "duration": 0.5,
      "velocity": 0.63,
      "hand": "left"
    },
    {
      "midi": 64,
      "time": 28.25,
      "duration": 0.5,
      "velocity": 0.63,
      "hand": "right"
    },
    {
      "midi": 69,
      "time": 28.5,
      "duration": 0.11,
      "velocity": 0.63,
      "hand": "right"
    },
    {
      "midi": 52,
      "time": 28.625,
      "duration": 0.375,
      "velocity": 0.63,
      "hand": "left"
    },
    {
      "midi": 69,
      "time": 28.625,
      "duration": 0.11,
      "velocity": 0.63,
      "hand": "right"
    },
    {
      "midi": 61,
      "time": 28.75,
      "duration": 0.5,
      "velocity": 0.63,
      "hand": "right"
    },
    {
      "midi": 69,
      "time": 28.75,
      "duration": 0.235,
      "velocity": 0.63,
      "hand": "right"
    },
    {
      "midi": 45,
      "time": 29,
      "duration": 0.25,
      "velocity": 0.63,
      "hand": "left"
    },
    {
      "midi": 69,
      "time": 29,
      "duration": 0.11,
      "velocity": 0.63,
      "hand": "right"
    },
    {
      "midi": 69,
      "time": 29.125,
      "duration": 0.125,
      "velocity": 0.63,
      "hand": "right"
    },
    {
      "midi": 52,
      "time": 29.25,
      "duration": 0.36,
      "velocity": 0.63,
      "hand": "left"
    },
    {
      "midi": 64,
      "time": 29.25,
      "duration": 0.5,
      "velocity": 0.63,
      "hand": "right"
    },
    {
      "midi": 69,
      "time": 29.5,
      "duration": 0.235,
      "velocity": 0.63,
      "hand": "right"
    },
    {
      "midi": 52,
      "time": 29.625,
      "duration": 0.375,
      "velocity": 0.63,
      "hand": "left"
    },
    {
      "midi": 69,
      "time": 29.75,
      "duration": 0.5,
      "velocity": 0.63,
      "hand": "right"
    },
    {
      "midi": 71,
      "time": 29.75,
      "duration": 0.25,
      "velocity": 0.63,
      "hand": "right"
    },
    {
      "midi": 45,
      "time": 30,
      "duration": 0.25,
      "velocity": 0.39,
      "hand": "left"
    },
    {
      "midi": 57,
      "time": 30,
      "duration": 0.25,
      "velocity": 0.63,
      "hand": "left"
    },
    {
      "midi": 73,
      "time": 30,
      "duration": 0.25,
      "velocity": 0.63,
      "hand": "right"
    },
    {
      "midi": 50,
      "time": 30.25,
      "duration": 0.11,
      "velocity": 0.39,
      "hand": "left"
    },
    {
      "midi": 62,
      "time": 30.25,
      "duration": 0.11,
      "velocity": 0.63,
      "hand": "right"
    },
    {
      "midi": 66,
      "time": 30.25,
      "duration": 1,
      "velocity": 0.63,
      "hand": "right"
    },
    {
      "midi": 74,
      "time": 30.25,
      "duration": 0.485,
      "velocity": 0.63,
      "hand": "right"
    },
    {
      "midi": 50,
      "time": 30.375,
      "duration": 0.235,
      "velocity": 0.39,
      "hand": "left"
    },
    {
      "midi": 62,
      "time": 30.375,
      "duration": 0.25,
      "velocity": 0.63,
      "hand": "right"
    },
    {
      "midi": 50,
      "time": 30.625,
      "duration": 0.125,
      "velocity": 0.39,
      "hand": "left"
    },
    {
      "midi": 57,
      "time": 30.625,
      "duration": 0.125,
      "velocity": 0.63,
      "hand": "left"
    },
    {
      "midi": 47,
      "time": 30.75,
      "duration": 0.25,
      "velocity": 0.39,
      "hand": "left"
    },
    {
      "midi": 59,
      "time": 30.75,
      "duration": 0.25,
      "velocity": 0.63,
      "hand": "left"
    },
    {
      "midi": 74,
      "time": 30.75,
      "duration": 0.75,
      "velocity": 0.63,
      "hand": "right"
    },
    {
      "midi": 45,
      "time": 31,
      "duration": 0.235,
      "velocity": 0.39,
      "hand": "left"
    },
    {
      "midi": 57,
      "time": 31,
      "duration": 0.25,
      "velocity": 0.63,
      "hand": "left"
    },
    {
      "midi": 45,
      "time": 31.25,
      "duration": 0.235,
      "velocity": 0.39,
      "hand": "left"
    },
    {
      "midi": 54,
      "time": 31.25,
      "duration": 0.5,
      "velocity": 0.63,
      "hand": "left"
    },
    {
      "midi": 45,
      "time": 31.5,
      "duration": 0.11,
      "velocity": 0.39,
      "hand": "left"
    },
    {
      "midi": 66,
      "time": 31.5,
      "duration": 0.25,
      "velocity": 0.39,
      "hand": "right"
    },
    {
      "midi": 69,
      "time": 31.5,
      "duration": 0.25,
      "velocity": 0.63,
      "hand": "right"
    },
    {
      "midi": 45,
      "time": 31.625,
      "duration": 0.125,
      "velocity": 0.39,
      "hand": "left"
    },
    {
      "midi": 68,
      "time": 31.75,
      "duration": 0.25,
      "velocity": 0.39,
      "hand": "right"
    },
    {
      "midi": 71,
      "time": 31.75,
      "duration": 0.25,
      "velocity": 0.63,
      "hand": "right"
    },
    {
      "midi": 45,
      "time": 32,
      "duration": 0.11,
      "velocity": 0.39,
      "hand": "left"
    },
    {
      "midi": 57,
      "time": 32,
      "duration": 0.25,
      "velocity": 0.63,
      "hand": "left"
    },
    {
      "midi": 66,
      "time": 32,
      "duration": 0.235,
      "velocity": 0.39,
      "hand": "right"
    },
    {
      "midi": 69,
      "time": 32,
      "duration": 0.235,
      "velocity": 0.63,
      "hand": "right"
    },
    {
      "midi": 45,
      "time": 32.125,
      "duration": 0.125,
      "velocity": 0.39,
      "hand": "left"
    },
    {
      "midi": 62,
      "time": 32.25,
      "duration": 0.11,
      "velocity": 0.63,
      "hand": "right"
    },
    {
      "midi": 66,
      "time": 32.25,
      "duration": 0.485,
      "velocity": 0.39,
      "hand": "right"
    },
    {
      "midi": 69,
      "time": 32.25,
      "duration": 0.485,
      "velocity": 0.63,
      "hand": "right"
    },
    {
      "midi": 62,
      "time": 32.375,
      "duration": 0.25,
      "velocity": 0.63,
      "hand": "right"
    },
    {
      "midi": 45,
      "time": 32.5,
      "duration": 0.11,
      "velocity": 0.39,
      "hand": "left"
    },
    {
      "midi": 45,
      "time": 32.625,
      "duration": 0.125,
      "velocity": 0.39,
      "hand": "left"
    },
    {
      "midi": 57,
      "time": 32.625,
      "duration": 0.125,
      "velocity": 0.63,
      "hand": "left"
    },
    {
      "midi": 59,
      "time": 32.75,
      "duration": 0.25,
      "velocity": 0.63,
      "hand": "left"
    },
    {
      "midi": 66,
      "time": 32.75,
      "duration": 0.5,
      "velocity": 0.39,
      "hand": "right"
    },
    {
      "midi": 69,
      "time": 32.75,
      "duration": 0.5,
      "velocity": 0.63,
      "hand": "right"
    },
    {
      "midi": 45,
      "time": 33,
      "duration": 0.11,
      "velocity": 0.39,
      "hand": "left"
    },
    {
      "midi": 57,
      "time": 33,
      "duration": 0.25,
      "velocity": 0.63,
      "hand": "left"
    },
    {
      "midi": 45,
      "time": 33.125,
      "duration": 0.125,
      "velocity": 0.39,
      "hand": "left"
    },
    {
      "midi": 61,
      "time": 33.25,
      "duration": 0.5,
      "velocity": 0.63,
      "hand": "right"
    },
    {
      "midi": 45,
      "time": 33.375,
      "duration": 0.235,
      "velocity": 0.39,
      "hand": "left"
    },
    {
      "midi": 69,
      "time": 33.375,
      "duration": 0.235,
      "velocity": 0.63,
      "hand": "right"
    },
    {
      "midi": 64,
      "time": 33.5,
      "duration": 0.11,
      "velocity": 0.39,
      "hand": "right"
    },
    {
      "midi": 45,
      "time": 33.625,
      "duration": 0.125,
      "velocity": 0.39,
      "hand": "left"
    },
    {
      "midi": 64,
      "time": 33.625,
      "duration": 0.125,
      "velocity": 0.39,
      "hand": "right"
    },
    {
      "midi": 69,
      "time": 33.625,
      "duration": 0.125,
      "velocity": 0.63,
      "hand": "right"
    },
    {
      "midi": 47,
      "time": 33.75,
      "duration": 0.25,
      "velocity": 0.39,
      "hand": "left"
    },
    {
      "midi": 71,
      "time": 33.75,
      "duration": 0.25,
      "velocity": 0.63,
      "hand": "right"
    },
    {
      "midi": 45,
      "time": 34,
      "duration": 0.235,
      "velocity": 0.39,
      "hand": "left"
    },
    {
      "midi": 57,
      "time": 34,
      "duration": 0.11,
      "velocity": 0.63,
      "hand": "left"
    },
    {
      "midi": 64,
      "time": 34,
      "duration": 0.11,
      "velocity": 0.39,
      "hand": "right"
    },
    {
      "midi": 69,
      "time": 34,
      "duration": 0.235,
      "velocity": 0.63,
      "hand": "right"
    },
    {
      "midi": 57,
      "time": 34.125,
      "duration": 0.125,
      "velocity": 0.63,
      "hand": "left"
    },
    {
      "midi": 64,
      "time": 34.125,
      "duration": 0.125,
      "velocity": 0.39,
      "hand": "right"
    },
    {
      "midi": 45,
      "time": 34.25,
      "duration": 0.235,
      "velocity": 0.39,
      "hand": "left"
    },
    {
      "midi": 61,
      "time": 34.25,
      "duration": 0.11,
      "velocity": 0.63,
      "hand": "right"
    },
    {
      "midi": 69,
      "time": 34.25,
      "duration": 0.485,
      "velocity": 0.63,
      "hand": "right"
    },
    {
      "midi": 61,
      "time": 34.375,
      "duration": 0.25,
      "velocity": 0.63,
      "hand": "right"
    },
    {
      "midi": 45,
      "time": 34.5,
      "duration": 0.11,
      "velocity": 0.39,
      "hand": "left"
    },
    {
      "midi": 64,
      "time": 34.5,
      "duration": 0.11,
      "velocity": 0.39,
      "hand": "right"
    },
    {
      "midi": 45,
      "time": 34.625,
      "duration": 0.125,
      "velocity": 0.39,
      "hand": "left"
    },
    {
      "midi": 57,
      "time": 34.625,
      "duration": 0.125,
      "velocity": 0.63,
      "hand": "left"
    },
    {
      "midi": 64,
      "time": 34.625,
      "duration": 0.125,
      "velocity": 0.39,
      "hand": "right"
    },
    {
      "midi": 59,
      "time": 34.75,
      "duration": 0.25,
      "velocity": 0.63,
      "hand": "left"
    },
    {
      "midi": 69,
      "time": 34.75,
      "duration": 0.5,
      "velocity": 0.63,
      "hand": "right"
    },
    {
      "midi": 45,
      "time": 35,
      "duration": 0.11,
      "velocity": 0.39,
      "hand": "left"
    },
    {
      "midi": 57,
      "time": 35,
      "duration": 0.25,
      "velocity": 0.63,
      "hand": "left"
    },
    {
      "midi": 64,
      "time": 35,
      "duration": 0.11,
      "velocity": 0.39,
      "hand": "right"
    },
    {
      "midi": 45,
      "time": 35.125,
      "duration": 0.125,
      "velocity": 0.39,
      "hand": "left"
    },
    {
      "midi": 64,
      "time": 35.125,
      "duration": 0.125,
      "velocity": 0.39,
      "hand": "right"
    },
    {
      "midi": 61,
      "time": 35.25,
      "duration": 0.11,
      "velocity": 0.63,
      "hand": "right"
    },
    {
      "midi": 61,
      "time": 35.375,
      "duration": 0.25,
      "velocity": 0.63,
      "hand": "right"
    },
    {
      "midi": 69,
      "time": 35.375,
      "duration": 0.235,
      "velocity": 0.63,
      "hand": "right"
    },
    {
      "midi": 64,
      "time": 35.5,
      "duration": 0.11,
      "velocity": 0.39,
      "hand": "right"
    },
    {
      "midi": 45,
      "time": 35.625,
      "duration": 0.125,
      "velocity": 0.39,
      "hand": "left"
    },
    {
      "midi": 57,
      "time": 35.625,
      "duration": 0.125,
      "velocity": 0.63,
      "hand": "left"
    },
    {
      "midi": 64,
      "time": 35.625,
      "duration": 0.125,
      "velocity": 0.39,
      "hand": "right"
    },
    {
      "midi": 69,
      "time": 35.625,
      "duration": 0.125,
      "velocity": 0.63,
      "hand": "right"
    },
    {
      "midi": 47,
      "time": 35.75,
      "duration": 0.25,
      "velocity": 0.39,
      "hand": "left"
    },
    {
      "midi": 59,
      "time": 35.75,
      "duration": 0.25,
      "velocity": 0.63,
      "hand": "left"
    },
    {
      "midi": 71,
      "time": 35.75,
      "duration": 0.25,
      "velocity": 0.63,
      "hand": "right"
    },
    {
      "midi": 45,
      "time": 36,
      "duration": 0.25,
      "velocity": 0.39,
      "hand": "left"
    },
    {
      "midi": 57,
      "time": 36,
      "duration": 0.25,
      "velocity": 0.63,
      "hand": "left"
    },
    {
      "midi": 64,
      "time": 36,
      "duration": 0.11,
      "velocity": 0.39,
      "hand": "right"
    },
    {
      "midi": 69,
      "time": 36,
      "duration": 0.235,
      "velocity": 0.63,
      "hand": "right"
    },
    {
      "midi": 64,
      "time": 36.125,
      "duration": 0.125,
      "velocity": 0.39,
      "hand": "right"
    },
    {
      "midi": 49,
      "time": 36.25,
      "duration": 0.25,
      "velocity": 0.39,
      "hand": "left"
    },
    {
      "midi": 61,
      "time": 36.25,
      "duration": 0.25,
      "velocity": 0.63,
      "hand": "right"
    },
    {
      "midi": 69,
      "time": 36.25,
      "duration": 0.485,
      "velocity": 0.63,
      "hand": "right"
    },
    {
      "midi": 45,
      "time": 36.5,
      "duration": 0.25,
      "velocity": 0.39,
      "hand": "left"
    },
    {
      "midi": 57,
      "time": 36.5,
      "duration": 0.25,
      "velocity": 0.63,
      "hand": "left"
    },
    {
      "midi": 64,
      "time": 36.5,
      "duration": 0.11,
      "velocity": 0.39,
      "hand": "right"
    },
    {
      "midi": 64,
      "time": 36.625,
      "duration": 0.125,
      "velocity": 0.39,
      "hand": "right"
    },
    {
      "midi": 47,
      "time": 36.75,
      "duration": 0.25,
      "velocity": 0.39,
      "hand": "left"
    },
    {
      "midi": 59,
      "time": 36.75,
      "duration": 0.25,
      "velocity": 0.63,
      "hand": "left"
    },
    {
      "midi": 69,
      "time": 36.75,
      "duration": 0.5,
      "velocity": 0.63,
      "hand": "right"
    },
    {
      "midi": 49,
      "time": 37,
      "duration": 0.25,
      "velocity": 0.39,
      "hand": "left"
    },
    {
      "midi": 61,
      "time": 37,
      "duration": 0.25,
      "velocity": 0.63,
      "hand": "right"
    },
    {
      "midi": 64,
      "time": 37,
      "duration": 0.11,
      "velocity": 0.39,
      "hand": "right"
    },
    {
      "midi": 64,
      "time": 37.125,
      "duration": 0.125,
      "velocity": 0.39,
      "hand": "right"
    },
    {
      "midi": 50,
      "time": 37.25,
      "duration": 0.235,
      "velocity": 0.39,
      "hand": "left"
    },
    {
      "midi": 62,
      "time": 37.25,
      "duration": 0.5,
      "velocity": 0.63,
      "hand": "right"
    },
    {
      "midi": 50,
      "time": 37.5,
      "duration": 0.11,
      "velocity": 0.39,
      "hand": "left"
    },
    {
      "midi": 66,
      "time": 37.5,
      "duration": 0.25,
      "velocity": 0.39,
      "hand": "right"
    },
    {
      "midi": 69,
      "time": 37.5,
      "duration": 0.25,
      "velocity": 0.63,
      "hand": "right"
    },
    {
      "midi": 50,
      "time": 37.625,
      "duration": 0.125,
      "velocity": 0.39,
      "hand": "left"
    },
    {
      "midi": 67,
      "time": 37.75,
      "duration": 0.25,
      "velocity": 0.39,
      "hand": "right"
    },
    {
      "midi": 71,
      "time": 37.75,
      "duration": 0.25,
      "velocity": 0.63,
      "hand": "right"
    },
    {
      "midi": 57,
      "time": 38,
      "duration": 0.25,
      "velocity": 0.63,
      "hand": "left"
    },
    {
      "midi": 66,
      "time": 38,
      "duration": 0.25,
      "velocity": 0.39,
      "hand": "right"
    },
    {
      "midi": 73,
      "time": 38,
      "duration": 0.25,
      "velocity": 0.63,
      "hand": "right"
    },
    {
      "midi": 50,
      "time": 38.25,
      "duration": 0.11,
      "velocity": 0.39,
      "hand": "left"
    },
    {
      "midi": 62,
      "time": 38.25,
      "duration": 0.11,
      "velocity": 0.63,
      "hand": "right"
    },
    {
      "midi": 74,
      "time": 38.25,
      "duration": 1,
      "velocity": 0.63,
      "hand": "right"
    },
    {
      "midi": 50,
      "time": 38.375,
      "duration": 0.235,
      "velocity": 0.39,
      "hand": "left"
    },
    {
      "midi": 62,
      "time": 38.375,
      "duration": 0.11,
      "velocity": 0.63,
      "hand": "right"
    },
    {
      "midi": 62,
      "time": 38.5,
      "duration": 0.11,
      "velocity": 0.39,
      "hand": "right"
    },
    {
      "midi": 50,
      "time": 38.625,
      "duration": 0.125,
      "velocity": 0.39,
      "hand": "left"
    },
    {
      "midi": 57,
      "time": 38.625,
      "duration": 0.125,
      "velocity": 0.63,
      "hand": "left"
    },
    {
      "midi": 62,
      "time": 38.625,
      "duration": 0.125,
      "velocity": 0.39,
      "hand": "right"
    },
    {
      "midi": 47,
      "time": 38.75,
      "duration": 0.25,
      "velocity": 0.39,
      "hand": "left"
    },
    {
      "midi": 59,
      "time": 38.75,
      "duration": 0.25,
      "velocity": 0.63,
      "hand": "left"
    },
    {
      "midi": 45,
      "time": 39,
      "duration": 0.235,
      "velocity": 0.39,
      "hand": "left"
    },
    {
      "midi": 57,
      "time": 39,
      "duration": 0.25,
      "velocity": 0.63,
      "hand": "left"
    },
    {
      "midi": 62,
      "time": 39,
      "duration": 0.11,
      "velocity": 0.39,
      "hand": "right"
    },
    {
      "midi": 62,
      "time": 39.125,
      "duration": 0.125,
      "velocity": 0.39,
      "hand": "right"
    },
    {
      "midi": 45,
      "time": 39.25,
      "duration": 0.235,
      "velocity": 0.39,
      "hand": "left"
    },
    {
      "midi": 54,
      "time": 39.25,
      "duration": 0.5,
      "velocity": 0.63,
      "hand": "left"
    },
    {
      "midi": 45,
      "time": 39.5,
      "duration": 0.11,
      "velocity": 0.39,
      "hand": "left"
    },
    {
      "midi": 66,
      "time": 39.5,
      "duration": 0.25,
      "velocity": 0.39,
      "hand": "right"
    },
    {
      "midi": 69,
      "time": 39.5,
      "duration": 0.25,
      "velocity": 0.63,
      "hand": "right"
    },
    {
      "midi": 45,
      "time": 39.625,
      "duration": 0.125,
      "velocity": 0.39,
      "hand": "left"
    },
    {
      "midi": 68,
      "time": 39.75,
      "duration": 0.25,
      "velocity": 0.39,
      "hand": "right"
    },
    {
      "midi": 71,
      "time": 39.75,
      "duration": 0.25,
      "velocity": 0.63,
      "hand": "right"
    },
    {
      "midi": 45,
      "time": 40,
      "duration": 0.11,
      "velocity": 0.39,
      "hand": "left"
    },
    {
      "midi": 57,
      "time": 40,
      "duration": 0.25,
      "velocity": 0.63,
      "hand": "left"
    },
    {
      "midi": 66,
      "time": 40,
      "duration": 0.235,
      "velocity": 0.39,
      "hand": "right"
    },
    {
      "midi": 69,
      "time": 40,
      "duration": 0.235,
      "velocity": 0.63,
      "hand": "right"
    },
    {
      "midi": 45,
      "time": 40.125,
      "duration": 0.125,
      "velocity": 0.39,
      "hand": "left"
    },
    {
      "midi": 62,
      "time": 40.25,
      "duration": 0.11,
      "velocity": 0.63,
      "hand": "right"
    },
    {
      "midi": 66,
      "time": 40.25,
      "duration": 0.485,
      "velocity": 0.39,
      "hand": "right"
    },
    {
      "midi": 69,
      "time": 40.25,
      "duration": 0.485,
      "velocity": 0.63,
      "hand": "right"
    },
    {
      "midi": 62,
      "time": 40.375,
      "duration": 0.25,
      "velocity": 0.63,
      "hand": "right"
    },
    {
      "midi": 45,
      "time": 40.5,
      "duration": 0.11,
      "velocity": 0.39,
      "hand": "left"
    },
    {
      "midi": 45,
      "time": 40.625,
      "duration": 0.125,
      "velocity": 0.39,
      "hand": "left"
    },
    {
      "midi": 57,
      "time": 40.625,
      "duration": 0.125,
      "velocity": 0.63,
      "hand": "left"
    },
    {
      "midi": 59,
      "time": 40.75,
      "duration": 0.25,
      "velocity": 0.63,
      "hand": "left"
    },
    {
      "midi": 66,
      "time": 40.75,
      "duration": 0.5,
      "velocity": 0.39,
      "hand": "right"
    },
    {
      "midi": 69,
      "time": 40.75,
      "duration": 0.5,
      "velocity": 0.63,
      "hand": "right"
    },
    {
      "midi": 45,
      "time": 41,
      "duration": 0.11,
      "velocity": 0.39,
      "hand": "left"
    },
    {
      "midi": 57,
      "time": 41,
      "duration": 0.25,
      "velocity": 0.63,
      "hand": "left"
    },
    {
      "midi": 45,
      "time": 41.125,
      "duration": 0.125,
      "velocity": 0.39,
      "hand": "left"
    },
    {
      "midi": 55,
      "time": 41.25,
      "duration": 0.5,
      "velocity": 0.63,
      "hand": "left"
    },
    {
      "midi": 45,
      "time": 41.5,
      "duration": 0.25,
      "velocity": 0.39,
      "hand": "left"
    },
    {
      "midi": 64,
      "time": 41.5,
      "duration": 0.11,
      "velocity": 0.39,
      "hand": "right"
    },
    {
      "midi": 69,
      "time": 41.5,
      "duration": 0.25,
      "velocity": 0.63,
      "hand": "right"
    },
    {
      "midi": 64,
      "time": 41.625,
      "duration": 0.125,
      "velocity": 0.39,
      "hand": "right"
    },
    {
      "midi": 47,
      "time": 41.75,
      "duration": 0.25,
      "velocity": 0.39,
      "hand": "left"
    },
    {
      "midi": 71,
      "time": 41.75,
      "duration": 0.25,
      "velocity": 0.63,
      "hand": "right"
    },
    {
      "midi": 45,
      "time": 42,
      "duration": 0.235,
      "velocity": 0.39,
      "hand": "left"
    },
    {
      "midi": 57,
      "time": 42,
      "duration": 0.11,
      "velocity": 0.63,
      "hand": "left"
    },
    {
      "midi": 64,
      "time": 42,
      "duration": 0.11,
      "velocity": 0.39,
      "hand": "right"
    },
    {
      "midi": 69,
      "time": 42,
      "duration": 0.235,
      "velocity": 0.63,
      "hand": "right"
    },
    {
      "midi": 57,
      "time": 42.125,
      "duration": 0.125,
      "velocity": 0.63,
      "hand": "left"
    },
    {
      "midi": 64,
      "time": 42.125,
      "duration": 0.125,
      "velocity": 0.39,
      "hand": "right"
    },
    {
      "midi": 45,
      "time": 42.25,
      "duration": 0.485,
      "velocity": 0.39,
      "hand": "left"
    },
    {
      "midi": 61,
      "time": 42.25,
      "duration": 0.11,
      "velocity": 0.63,
      "hand": "right"
    },
    {
      "midi": 69,
      "time": 42.25,
      "duration": 0.485,
      "velocity": 0.63,
      "hand": "right"
    },
    {
      "midi": 61,
      "time": 42.375,
      "duration": 0.25,
      "velocity": 0.63,
      "hand": "right"
    },
    {
      "midi": 64,
      "time": 42.5,
      "duration": 0.11,
      "velocity": 0.39,
      "hand": "right"
    },
    {
      "midi": 57,
      "time": 42.625,
      "duration": 0.125,
      "velocity": 0.63,
      "hand": "left"
    },
    {
      "midi": 64,
      "time": 42.625,
      "duration": 0.125,
      "velocity": 0.39,
      "hand": "right"
    },
    {
      "midi": 45,
      "time": 42.75,
      "duration": 0.5,
      "velocity": 0.39,
      "hand": "left"
    },
    {
      "midi": 59,
      "time": 42.75,
      "duration": 0.25,
      "velocity": 0.63,
      "hand": "left"
    },
    {
      "midi": 69,
      "time": 42.75,
      "duration": 0.5,
      "velocity": 0.63,
      "hand": "right"
    },
    {
      "midi": 57,
      "time": 43,
      "duration": 0.25,
      "velocity": 0.63,
      "hand": "left"
    },
    {
      "midi": 64,
      "time": 43,
      "duration": 0.11,
      "velocity": 0.39,
      "hand": "right"
    },
    {
      "midi": 64,
      "time": 43.125,
      "duration": 0.125,
      "velocity": 0.39,
      "hand": "right"
    },
    {
      "midi": 61,
      "time": 43.25,
      "duration": 0.11,
      "velocity": 0.63,
      "hand": "right"
    },
    {
      "midi": 61,
      "time": 43.375,
      "duration": 0.25,
      "velocity": 0.63,
      "hand": "right"
    },
    {
      "midi": 64,
      "time": 43.5,
      "duration": 0.11,
      "velocity": 0.39,
      "hand": "right"
    },
    {
      "midi": 69,
      "time": 43.5,
      "duration": 0.25,
      "velocity": 0.63,
      "hand": "right"
    },
    {
      "midi": 45,
      "time": 43.625,
      "duration": 0.125,
      "velocity": 0.39,
      "hand": "left"
    },
    {
      "midi": 57,
      "time": 43.625,
      "duration": 0.125,
      "velocity": 0.63,
      "hand": "left"
    },
    {
      "midi": 64,
      "time": 43.625,
      "duration": 0.125,
      "velocity": 0.39,
      "hand": "right"
    },
    {
      "midi": 47,
      "time": 43.75,
      "duration": 0.25,
      "velocity": 0.39,
      "hand": "left"
    },
    {
      "midi": 59,
      "time": 43.75,
      "duration": 0.25,
      "velocity": 0.63,
      "hand": "left"
    },
    {
      "midi": 71,
      "time": 43.75,
      "duration": 0.25,
      "velocity": 0.63,
      "hand": "right"
    },
    {
      "midi": 45,
      "time": 44,
      "duration": 0.25,
      "velocity": 0.39,
      "hand": "left"
    },
    {
      "midi": 57,
      "time": 44,
      "duration": 0.25,
      "velocity": 0.63,
      "hand": "left"
    },
    {
      "midi": 64,
      "time": 44,
      "duration": 0.11,
      "velocity": 0.39,
      "hand": "right"
    },
    {
      "midi": 69,
      "time": 44,
      "duration": 0.235,
      "velocity": 0.63,
      "hand": "right"
    },
    {
      "midi": 64,
      "time": 44.125,
      "duration": 0.125,
      "velocity": 0.39,
      "hand": "right"
    },
    {
      "midi": 49,
      "time": 44.25,
      "duration": 0.25,
      "velocity": 0.39,
      "hand": "left"
    },
    {
      "midi": 61,
      "time": 44.25,
      "duration": 0.25,
      "velocity": 0.63,
      "hand": "right"
    },
    {
      "midi": 69,
      "time": 44.25,
      "duration": 0.11,
      "velocity": 0.63,
      "hand": "right"
    },
    {
      "midi": 69,
      "time": 44.375,
      "duration": 0.235,
      "velocity": 0.63,
      "hand": "right"
    },
    {
      "midi": 45,
      "time": 44.5,
      "duration": 0.25,
      "velocity": 0.39,
      "hand": "left"
    },
    {
      "midi": 57,
      "time": 44.5,
      "duration": 0.25,
      "velocity": 0.63,
      "hand": "left"
    },
    {
      "midi": 64,
      "time": 44.625,
      "duration": 0.11,
      "velocity": 0.39,
      "hand": "right"
    },
    {
      "midi": 69,
      "time": 44.625,
      "duration": 0.125,
      "velocity": 0.63,
      "hand": "right"
    },
    {
      "midi": 47,
      "time": 44.75,
      "duration": 0.25,
      "velocity": 0.39,
      "hand": "left"
    },
    {
      "midi": 59,
      "time": 44.75,
      "duration": 0.25,
      "velocity": 0.63,
      "hand": "left"
    },
    {
      "midi": 64,
      "time": 44.75,
      "duration": 0.235,
      "velocity": 0.39,
      "hand": "right"
    },
    {
      "midi": 71,
      "time": 44.75,
      "duration": 0.25,
      "velocity": 0.63,
      "hand": "right"
    },
    {
      "midi": 49,
      "time": 45,
      "duration": 0.25,
      "velocity": 0.39,
      "hand": "left"
    },
    {
      "midi": 61,
      "time": 45,
      "duration": 0.25,
      "velocity": 0.63,
      "hand": "right"
    },
    {
      "midi": 64,
      "time": 45,
      "duration": 0.25,
      "velocity": 0.39,
      "hand": "right"
    },
    {
      "midi": 73,
      "time": 45,
      "duration": 0.25,
      "velocity": 0.63,
      "hand": "right"
    },
    {
      "midi": 50,
      "time": 45.25,
      "duration": 0.235,
      "velocity": 0.39,
      "hand": "left"
    },
    {
      "midi": 62,
      "time": 45.25,
      "duration": 0.235,
      "velocity": 0.63,
      "hand": "right"
    },
    {
      "midi": 74,
      "time": 45.25,
      "duration": 0.485,
      "velocity": 0.63,
      "hand": "right"
    },
    {
      "midi": 50,
      "time": 45.5,
      "duration": 0.11,
      "velocity": 0.39,
      "hand": "left"
    },
    {
      "midi": 62,
      "time": 45.5,
      "duration": 0.11,
      "velocity": 0.63,
      "hand": "right"
    },
    {
      "midi": 50,
      "time": 45.625,
      "duration": 0.125,
      "velocity": 0.39,
      "hand": "left"
    },
    {
      "midi": 62,
      "time": 45.625,
      "duration": 0.11,
      "velocity": 0.63,
      "hand": "right"
    },
    {
      "midi": 62,
      "time": 45.75,
      "duration": 0.235,
      "velocity": 0.39,
      "hand": "right"
    },
    {
      "midi": 74,
      "time": 45.75,
      "duration": 0.5,
      "velocity": 0.63,
      "hand": "right"
    },
    {
      "midi": 50,
      "time": 46,
      "duration": 0.11,
      "velocity": 0.39,
      "hand": "left"
    },
    {
      "midi": 62,
      "time": 46,
      "duration": 0.11,
      "velocity": 0.63,
      "hand": "right"
    },
    {
      "midi": 50,
      "time": 46.125,
      "duration": 0.125,
      "velocity": 0.39,
      "hand": "left"
    },
    {
      "midi": 62,
      "time": 46.125,
      "duration": 0.125,
      "velocity": 0.63,
      "hand": "right"
    },
    {
      "midi": 50,
      "time": 46.5,
      "duration": 0.11,
      "velocity": 0.63,
      "hand": "left"
    },
    {
      "midi": 62,
      "time": 46.5,
      "duration": 0.11,
      "velocity": 0.63,
      "hand": "right"
    },
    {
      "midi": 74,
      "time": 46.5,
      "duration": 0.11,
      "velocity": 0.63,
      "hand": "right"
    },
    {
      "midi": 50,
      "time": 46.625,
      "duration": 0.125,
      "velocity": 0.63,
      "hand": "left"
    },
    {
      "midi": 62,
      "time": 46.625,
      "duration": 0.125,
      "velocity": 0.63,
      "hand": "right"
    },
    {
      "midi": 74,
      "time": 46.625,
      "duration": 0.125,
      "velocity": 0.63,
      "hand": "right"
    },
    {
      "midi": 50,
      "time": 47,
      "duration": 0.11,
      "velocity": 0.63,
      "hand": "left"
    },
    {
      "midi": 62,
      "time": 47,
      "duration": 0.11,
      "velocity": 0.63,
      "hand": "right"
    },
    {
      "midi": 74,
      "time": 47,
      "duration": 0.11,
      "velocity": 0.63,
      "hand": "right"
    },
    {
      "midi": 50,
      "time": 47.125,
      "duration": 0.125,
      "velocity": 0.63,
      "hand": "left"
    },
    {
      "midi": 62,
      "time": 47.125,
      "duration": 0.125,
      "velocity": 0.63,
      "hand": "right"
    },
    {
      "midi": 74,
      "time": 47.125,
      "duration": 0.125,
      "velocity": 0.63,
      "hand": "right"
    },
    {
      "midi": 50,
      "time": 47.5,
      "duration": 0.11,
      "velocity": 0.63,
      "hand": "left"
    },
    {
      "midi": 62,
      "time": 47.5,
      "duration": 0.11,
      "velocity": 0.63,
      "hand": "right"
    },
    {
      "midi": 50,
      "time": 47.625,
      "duration": 0.125,
      "velocity": 0.63,
      "hand": "left"
    },
    {
      "midi": 62,
      "time": 47.625,
      "duration": 0.125,
      "velocity": 0.63,
      "hand": "right"
    },
    {
      "midi": 50,
      "time": 48,
      "duration": 0.11,
      "velocity": 0.63,
      "hand": "left"
    },
    {
      "midi": 62,
      "time": 48,
      "duration": 0.11,
      "velocity": 0.63,
      "hand": "right"
    },
    {
      "midi": 50,
      "time": 48.125,
      "duration": 0.125,
      "velocity": 0.63,
      "hand": "left"
    },
    {
      "midi": 62,
      "time": 48.125,
      "duration": 0.125,
      "velocity": 0.63,
      "hand": "right"
    },
    {
      "midi": 50,
      "time": 48.5,
      "duration": 0.11,
      "velocity": 0.63,
      "hand": "left"
    },
    {
      "midi": 62,
      "time": 48.5,
      "duration": 0.11,
      "velocity": 0.63,
      "hand": "right"
    },
    {
      "midi": 50,
      "time": 48.625,
      "duration": 0.125,
      "velocity": 0.63,
      "hand": "left"
    },
    {
      "midi": 62,
      "time": 48.625,
      "duration": 0.125,
      "velocity": 0.63,
      "hand": "right"
    },
    {
      "midi": 50,
      "time": 49,
      "duration": 0.11,
      "velocity": 0.63,
      "hand": "left"
    },
    {
      "midi": 62,
      "time": 49,
      "duration": 0.11,
      "velocity": 0.63,
      "hand": "right"
    },
    {
      "midi": 50,
      "time": 49.125,
      "duration": 0.125,
      "velocity": 0.63,
      "hand": "left"
    },
    {
      "midi": 62,
      "time": 49.125,
      "duration": 0.125,
      "velocity": 0.63,
      "hand": "right"
    },
    {
      "midi": 50,
      "time": 49.5,
      "duration": 0.11,
      "velocity": 0.63,
      "hand": "left"
    },
    {
      "midi": 50,
      "time": 49.625,
      "duration": 0.125,
      "velocity": 0.63,
      "hand": "left"
    },
    {
      "midi": 50,
      "time": 50,
      "duration": 0.11,
      "velocity": 0.63,
      "hand": "left"
    },
    {
      "midi": 50,
      "time": 50.125,
      "duration": 0.125,
      "velocity": 0.63,
      "hand": "left"
    },
    {
      "midi": 50,
      "time": 50.5,
      "duration": 0.11,
      "velocity": 0.63,
      "hand": "left"
    },
    {
      "midi": 50,
      "time": 50.625,
      "duration": 0.125,
      "velocity": 0.63,
      "hand": "left"
    },
    {
      "midi": 50,
      "time": 51,
      "duration": 0.11,
      "velocity": 0.63,
      "hand": "left"
    },
    {
      "midi": 50,
      "time": 51.125,
      "duration": 0.125,
      "velocity": 0.63,
      "hand": "left"
    },
    {
      "midi": 50,
      "time": 51.5,
      "duration": 0.11,
      "velocity": 0.63,
      "hand": "left"
    },
    {
      "midi": 50,
      "time": 51.625,
      "duration": 0.125,
      "velocity": 0.63,
      "hand": "left"
    },
    {
      "midi": 50,
      "time": 52,
      "duration": 0.11,
      "velocity": 0.63,
      "hand": "left"
    },
    {
      "midi": 50,
      "time": 52.125,
      "duration": 0.125,
      "velocity": 0.63,
      "hand": "left"
    }
  ]
}
