{
  "id": "o-vem-o-vem-emanuel",
  "title": "O Vem, O Vem, Emanuel",
  "artist": "Tradicional",
  "difficulty": "Difícil",
  "bpm": 95,
  "duration": 49,
  "category": "Religiosos",
  "isPremium": false,
  "coverUrl": "/images/covers/placeholder.png",
  "notes": [
    {
      "midi": 52,
      "time": 0,
      "duration": 0.616,
      "velocity": 0.54,
      "hand": "left"
    },
    {
      "midi": 55,
      "time": 0,
      "duration": 0.632,
      "velocity": 0.54,
      "hand": "left"
    },
    {
      "midi": 64,
      "time": 0,
      "duration": 0.616,
      "velocity": 0.49,
      "hand": "right"
    },
    {
      "midi": 52,
      "time": 0.631,
      "duration": 0.632,
      "velocity": 0.59,
      "hand": "left"
    },
    {
      "midi": 59,
      "time": 0.631,
      "duration": 0.617,
      "velocity": 0.59,
      "hand": "left"
    },
    {
      "midi": 64,
      "time": 0.631,
      "duration": 0.632,
      "velocity": 0.67,
      "hand": "right"
    },
    {
      "midi": 67,
      "time": 0.631,
      "duration": 0.632,
      "velocity": 0.67,
      "hand": "right"
    },
    {
      "midi": 50,
      "time": 1.263,
      "duration": 0.632,
      "velocity": 0.58,
      "hand": "left"
    },
    {
      "midi": 54,
      "time": 1.263,
      "duration": 0.632,
      "velocity": 0.58,
      "hand": "left"
    },
    {
      "midi": 71,
      "time": 1.263,
      "duration": 0.616,
      "velocity": 0.67,
      "hand": "right"
    },
    {
      "midi": 48,
      "time": 1.894,
      "duration": 0.632,
      "velocity": 0.6,
      "hand": "left"
    },
    {
      "midi": 55,
      "time": 1.894,
      "duration": 0.632,
      "velocity": 0.6,
      "hand": "left"
    },
    {
      "midi": 62,
      "time": 1.894,
      "duration": 0.617,
      "velocity": 0.64,
      "hand": "right"
    },
    {
      "midi": 71,
      "time": 1.894,
      "duration": 0.617,
      "velocity": 0.64,
      "hand": "right"
    },
    {
      "midi": 43,
      "time": 2.526,
      "duration": 0.632,
      "velocity": 0.72,
      "hand": "left"
    },
    {
      "midi": 62,
      "time": 2.526,
      "duration": 0.632,
      "velocity": 0.72,
      "hand": "right"
    },
    {
      "midi": 67,
      "time": 2.526,
      "duration": 0.617,
      "velocity": 0.61,
      "hand": "right"
    },
    {
      "midi": 71,
      "time": 2.526,
      "duration": 0.632,
      "velocity": 0.61,
      "hand": "right"
    },
    {
      "midi": 48,
      "time": 3.158,
      "duration": 0.632,
      "velocity": 0.51,
      "hand": "left"
    },
    {
      "midi": 64,
      "time": 3.158,
      "duration": 1.263,
      "velocity": 0.66,
      "hand": "right"
    },
    {
      "midi": 67,
      "time": 3.158,
      "duration": 1.895,
      "velocity": 0.65,
      "hand": "right"
    },
    {
      "midi": 69,
      "time": 3.158,
      "duration": 0.632,
      "velocity": 0.54,
      "hand": "right"
    },
    {
      "midi": 45,
      "time": 3.789,
      "duration": 0.632,
      "velocity": 0.57,
      "hand": "left"
    },
    {
      "midi": 72,
      "time": 3.789,
      "duration": 0.632,
      "velocity": 0.65,
      "hand": "right"
    },
    {
      "midi": 47,
      "time": 4.421,
      "duration": 0.632,
      "velocity": 0.62,
      "hand": "left"
    },
    {
      "midi": 62,
      "time": 4.421,
      "duration": 0.632,
      "velocity": 0.6,
      "hand": "right"
    },
    {
      "midi": 71,
      "time": 4.421,
      "duration": 0.632,
      "velocity": 0.57,
      "hand": "right"
    },
    {
      "midi": 50,
      "time": 5.052,
      "duration": 0.632,
      "velocity": 0.51,
      "hand": "left"
    },
    {
      "midi": 60,
      "time": 5.052,
      "duration": 0.632,
      "velocity": 0.51,
      "hand": "right"
    },
    {
      "midi": 66,
      "time": 5.052,
      "duration": 0.632,
      "velocity": 0.56,
      "hand": "right"
    },
    {
      "midi": 69,
      "time": 5.052,
      "duration": 0.632,
      "velocity": 0.56,
      "hand": "right"
    },
    {
      "midi": 55,
      "time": 5.684,
      "duration": 1.895,
      "velocity": 0.55,
      "hand": "left"
    },
    {
      "midi": 59,
      "time": 5.684,
      "duration": 1.895,
      "velocity": 0.55,
      "hand": "left"
    },
    {
      "midi": 62,
      "time": 5.684,
      "duration": 1.88,
      "velocity": 0.53,
      "hand": "right"
    },
    {
      "midi": 67,
      "time": 5.684,
      "duration": 1.895,
      "velocity": 0.53,
      "hand": "right"
    },
    {
      "midi": 50,
      "time": 7.579,
      "duration": 0.632,
      "velocity": 0.57,
      "hand": "left"
    },
    {
      "midi": 54,
      "time": 7.579,
      "duration": 0.632,
      "velocity": 0.57,
      "hand": "left"
    },
    {
      "midi": 62,
      "time": 7.579,
      "duration": 0.616,
      "velocity": 0.62,
      "hand": "right"
    },
    {
      "midi": 69,
      "time": 7.579,
      "duration": 0.632,
      "velocity": 0.62,
      "hand": "right"
    },
    {
      "midi": 43,
      "time": 8.21,
      "duration": 0.632,
      "velocity": 0.61,
      "hand": "left"
    },
    {
      "midi": 55,
      "time": 8.21,
      "duration": 0.617,
      "velocity": 0.61,
      "hand": "left"
    },
    {
      "midi": 62,
      "time": 8.21,
      "duration": 0.617,
      "velocity": 0.65,
      "hand": "right"
    },
    {
      "midi": 71,
      "time": 8.21,
      "duration": 0.632,
      "velocity": 0.65,
      "hand": "right"
    },
    {
      "midi": 47,
      "time": 8.842,
      "duration": 0.632,
      "velocity": 0.61,
      "hand": "left"
    },
    {
      "midi": 55,
      "time": 8.842,
      "duration": 0.616,
      "velocity": 0.61,
      "hand": "left"
    },
    {
      "midi": 62,
      "time": 8.842,
      "duration": 0.632,
      "velocity": 0.53,
      "hand": "right"
    },
    {
      "midi": 67,
      "time": 8.842,
      "duration": 0.632,
      "velocity": 0.53,
      "hand": "right"
    },
    {
      "midi": 48,
      "time": 9.473,
      "duration": 0.632,
      "velocity": 0.61,
      "hand": "left"
    },
    {
      "midi": 55,
      "time": 9.473,
      "duration": 0.632,
      "velocity": 0.61,
      "hand": "left"
    },
    {
      "midi": 60,
      "time": 9.473,
      "duration": 0.632,
      "velocity": 0.53,
      "hand": "right"
    },
    {
      "midi": 64,
      "time": 9.473,
      "duration": 0.632,
      "velocity": 0.53,
      "hand": "right"
    },
    {
      "midi": 47,
      "time": 10.105,
      "duration": 0.632,
      "velocity": 0.62,
      "hand": "left"
    },
    {
      "midi": 59,
      "time": 10.105,
      "duration": 0.632,
      "velocity": 0.62,
      "hand": "left"
    },
    {
      "midi": 62,
      "time": 10.105,
      "duration": 0.632,
      "velocity": 0.64,
      "hand": "right"
    },
    {
      "midi": 67,
      "time": 10.105,
      "duration": 0.632,
      "velocity": 0.64,
      "hand": "right"
    },
    {
      "midi": 48,
      "time": 10.737,
      "duration": 0.632,
      "velocity": 0.55,
      "hand": "left"
    },
    {
      "midi": 57,
      "time": 10.737,
      "duration": 1.263,
      "velocity": 0.59,
      "hand": "left"
    },
    {
      "midi": 64,
      "time": 10.737,
      "duration": 0.632,
      "velocity": 0.65,
      "hand": "right"
    },
    {
      "midi": 69,
      "time": 10.737,
      "duration": 0.632,
      "velocity": 0.65,
      "hand": "right"
    },
    {
      "midi": 45,
      "time": 11.368,
      "duration": 0.632,
      "velocity": 0.55,
      "hand": "left"
    },
    {
      "midi": 60,
      "time": 11.368,
      "duration": 0.632,
      "velocity": 0.54,
      "hand": "right"
    },
    {
      "midi": 66,
      "time": 11.368,
      "duration": 0.632,
      "velocity": 0.54,
      "hand": "right"
    },
    {
      "midi": 47,
      "time": 12,
      "duration": 0.616,
      "velocity": 0.6,
      "hand": "left"
    },
    {
      "midi": 55,
      "time": 12,
      "duration": 0.632,
      "velocity": 0.57,
      "hand": "left"
    },
    {
      "midi": 64,
      "time": 12,
      "duration": 0.632,
      "velocity": 0.56,
      "hand": "right"
    },
    {
      "midi": 47,
      "time": 12.631,
      "duration": 0.632,
      "velocity": 0.56,
      "hand": "left"
    },
    {
      "midi": 54,
      "time": 12.631,
      "duration": 0.632,
      "velocity": 0.56,
      "hand": "left"
    },
    {
      "midi": 62,
      "time": 12.631,
      "duration": 0.632,
      "velocity": 0.57,
      "hand": "right"
    },
    {
      "midi": 52,
      "time": 13.263,
      "duration": 1.895,
      "velocity": 0.63,
      "hand": "left"
    },
    {
      "midi": 55,
      "time": 13.263,
      "duration": 1.895,
      "velocity": 0.63,
      "hand": "left"
    },
    {
      "midi": 64,
      "time": 13.263,
      "duration": 1.88,
      "velocity": 0.6,
      "hand": "right"
    },
    {
      "midi": 48,
      "time": 15.158,
      "duration": 0.316,
      "velocity": 0.54,
      "hand": "left"
    },
    {
      "midi": 57,
      "time": 15.158,
      "duration": 0.616,
      "velocity": 0.64,
      "hand": "left"
    },
    {
      "midi": 64,
      "time": 15.158,
      "duration": 0.316,
      "velocity": 0.54,
      "hand": "right"
    },
    {
      "midi": 69,
      "time": 15.158,
      "duration": 0.616,
      "velocity": 0.69,
      "hand": "right"
    },
    {
      "midi": 47,
      "time": 15.473,
      "duration": 0.316,
      "velocity": 0.56,
      "hand": "left"
    },
    {
      "midi": 62,
      "time": 15.473,
      "duration": 0.316,
      "velocity": 0.55,
      "hand": "right"
    },
    {
      "midi": 45,
      "time": 15.789,
      "duration": 0.632,
      "velocity": 0.61,
      "hand": "left"
    },
    {
      "midi": 57,
      "time": 15.789,
      "duration": 0.617,
      "velocity": 0.61,
      "hand": "left"
    },
    {
      "midi": 60,
      "time": 15.789,
      "duration": 0.617,
      "velocity": 0.6,
      "hand": "right"
    },
    {
      "midi": 69,
      "time": 15.789,
      "duration": 0.632,
      "velocity": 0.6,
      "hand": "right"
    },
    {
      "midi": 57,
      "time": 16.421,
      "duration": 0.632,
      "velocity": 0.54,
      "hand": "left"
    },
    {
      "midi": 60,
      "time": 16.421,
      "duration": 0.632,
      "velocity": 0.63,
      "hand": "right"
    },
    {
      "midi": 64,
      "time": 16.421,
      "duration": 0.616,
      "velocity": 0.54,
      "hand": "right"
    },
    {
      "midi": 55,
      "time": 17.052,
      "duration": 0.632,
      "velocity": 0.58,
      "hand": "left"
    },
    {
      "midi": 59,
      "time": 17.052,
      "duration": 0.632,
      "velocity": 0.58,
      "hand": "left"
    },
    {
      "midi": 64,
      "time": 17.052,
      "duration": 0.632,
      "velocity": 0.59,
      "hand": "right"
    },
    {
      "midi": 54,
      "time": 17.684,
      "duration": 0.632,
      "velocity": 0.57,
      "hand": "left"
    },
    {
      "midi": 57,
      "time": 17.684,
      "duration": 0.632,
      "velocity": 0.57,
      "hand": "left"
    },
    {
      "midi": 63,
      "time": 17.684,
      "duration": 0.632,
      "velocity": 0.65,
      "hand": "right"
    },
    {
      "midi": 66,
      "time": 17.684,
      "duration": 0.632,
      "velocity": 0.65,
      "hand": "right"
    },
    {
      "midi": 52,
      "time": 18.316,
      "duration": 0.632,
      "velocity": 0.63,
      "hand": "left"
    },
    {
      "midi": 55,
      "time": 18.316,
      "duration": 1.263,
      "velocity": 0.58,
      "hand": "left"
    },
    {
      "midi": 64,
      "time": 18.316,
      "duration": 0.632,
      "velocity": 0.57,
      "hand": "right"
    },
    {
      "midi": 67,
      "time": 18.316,
      "duration": 1.263,
      "velocity": 0.62,
      "hand": "right"
    },
    {
      "midi": 47,
      "time": 18.947,
      "duration": 0.632,
      "velocity": 0.59,
      "hand": "left"
    },
    {
      "midi": 62,
      "time": 18.947,
      "duration": 1.263,
      "velocity": 0.54,
      "hand": "right"
    },
    {
      "midi": 45,
      "time": 19.579,
      "duration": 0.616,
      "velocity": 0.58,
      "hand": "left"
    },
    {
      "midi": 57,
      "time": 19.579,
      "duration": 0.632,
      "velocity": 0.59,
      "hand": "left"
    },
    {
      "midi": 66,
      "time": 19.579,
      "duration": 0.632,
      "velocity": 0.57,
      "hand": "right"
    },
    {
      "midi": 45,
      "time": 20.21,
      "duration": 0.632,
      "velocity": 0.61,
      "hand": "left"
    },
    {
      "midi": 55,
      "time": 20.21,
      "duration": 0.632,
      "velocity": 0.61,
      "hand": "left"
    },
    {
      "midi": 61,
      "time": 20.21,
      "duration": 0.632,
      "velocity": 0.58,
      "hand": "right"
    },
    {
      "midi": 64,
      "time": 20.21,
      "duration": 0.632,
      "velocity": 0.58,
      "hand": "right"
    },
    {
      "midi": 50,
      "time": 20.842,
      "duration": 1.895,
      "velocity": 0.59,
      "hand": "left"
    },
    {
      "midi": 54,
      "time": 20.842,
      "duration": 1.895,
      "velocity": 0.59,
      "hand": "left"
    },
    {
      "midi": 62,
      "time": 20.842,
      "duration": 1.895,
      "velocity": 0.57,
      "hand": "right"
    },
    {
      "midi": 52,
      "time": 22.737,
      "duration": 0.632,
      "velocity": 0.62,
      "hand": "left"
    },
    {
      "midi": 55,
      "time": 22.737,
      "duration": 0.632,
      "velocity": 0.62,
      "hand": "left"
    },
    {
      "midi": 67,
      "time": 22.737,
      "duration": 0.632,
      "velocity": 0.66,
      "hand": "right"
    },
    {
      "midi": 50,
      "time": 23.368,
      "duration": 0.632,
      "velocity": 0.57,
      "hand": "left"
    },
    {
      "midi": 54,
      "time": 23.368,
      "duration": 0.617,
      "velocity": 0.57,
      "hand": "left"
    },
    {
      "midi": 62,
      "time": 23.368,
      "duration": 0.617,
      "velocity": 0.63,
      "hand": "right"
    },
    {
      "midi": 69,
      "time": 23.368,
      "duration": 0.632,
      "velocity": 0.63,
      "hand": "right"
    },
    {
      "midi": 47,
      "time": 24,
      "duration": 0.632,
      "velocity": 0.57,
      "hand": "left"
    },
    {
      "midi": 54,
      "time": 24,
      "duration": 0.632,
      "velocity": 0.57,
      "hand": "left"
    },
    {
      "midi": 62,
      "time": 24,
      "duration": 0.616,
      "velocity": 0.65,
      "hand": "right"
    },
    {
      "midi": 71,
      "time": 24,
      "duration": 0.616,
      "velocity": 0.65,
      "hand": "right"
    },
    {
      "midi": 43,
      "time": 24.631,
      "duration": 0.632,
      "velocity": 0.63,
      "hand": "left"
    },
    {
      "midi": 55,
      "time": 24.631,
      "duration": 0.632,
      "velocity": 0.63,
      "hand": "left"
    },
    {
      "midi": 62,
      "time": 24.631,
      "duration": 0.617,
      "velocity": 0.65,
      "hand": "right"
    },
    {
      "midi": 71,
      "time": 24.631,
      "duration": 0.617,
      "velocity": 0.65,
      "hand": "right"
    },
    {
      "midi": 47,
      "time": 25.263,
      "duration": 0.632,
      "velocity": 0.72,
      "hand": "left"
    },
    {
      "midi": 62,
      "time": 25.263,
      "duration": 0.632,
      "velocity": 0.72,
      "hand": "right"
    },
    {
      "midi": 67,
      "time": 25.263,
      "duration": 0.616,
      "velocity": 0.6,
      "hand": "right"
    },
    {
      "midi": 71,
      "time": 25.263,
      "duration": 0.632,
      "velocity": 0.6,
      "hand": "right"
    },
    {
      "midi": 48,
      "time": 25.894,
      "duration": 0.632,
      "velocity": 0.53,
      "hand": "left"
    },
    {
      "midi": 64,
      "time": 25.894,
      "duration": 1.263,
      "velocity": 0.65,
      "hand": "right"
    },
    {
      "midi": 67,
      "time": 25.894,
      "duration": 1.895,
      "velocity": 0.55,
      "hand": "right"
    },
    {
      "midi": 69,
      "time": 25.894,
      "duration": 0.632,
      "velocity": 0.58,
      "hand": "right"
    },
    {
      "midi": 45,
      "time": 26.526,
      "duration": 0.632,
      "velocity": 0.57,
      "hand": "left"
    },
    {
      "midi": 72,
      "time": 26.526,
      "duration": 0.632,
      "velocity": 0.63,
      "hand": "right"
    },
    {
      "midi": 47,
      "time": 27.158,
      "duration": 0.632,
      "velocity": 0.61,
      "hand": "left"
    },
    {
      "midi": 62,
      "time": 27.158,
      "duration": 0.632,
      "velocity": 0.53,
      "hand": "right"
    },
    {
      "midi": 71,
      "time": 27.158,
      "duration": 0.632,
      "velocity": 0.56,
      "hand": "right"
    },
    {
      "midi": 50,
      "time": 27.789,
      "duration": 0.632,
      "velocity": 0.54,
      "hand": "left"
    },
    {
      "midi": 60,
      "time": 27.789,
      "duration": 0.632,
      "velocity": 0.54,
      "hand": "right"
    },
    {
      "midi": 66,
      "time": 27.789,
      "duration": 0.632,
      "velocity": 0.56,
      "hand": "right"
    },
    {
      "midi": 69,
      "time": 27.789,
      "duration": 0.632,
      "velocity": 0.56,
      "hand": "right"
    },
    {
      "midi": 43,
      "time": 28.421,
      "duration": 1.895,
      "velocity": 0.57,
      "hand": "left"
    },
    {
      "midi": 59,
      "time": 28.421,
      "duration": 1.88,
      "velocity": 0.57,
      "hand": "left"
    },
    {
      "midi": 67,
      "time": 28.421,
      "duration": 1.88,
      "velocity": 0.57,
      "hand": "right"
    },
    {
      "midi": 55,
      "time": 30.316,
      "duration": 0.632,
      "velocity": 0.58,
      "hand": "left"
    },
    {
      "midi": 59,
      "time": 30.316,
      "duration": 0.632,
      "velocity": 0.58,
      "hand": "left"
    },
    {
      "midi": 67,
      "time": 30.316,
      "duration": 0.632,
      "velocity": 0.69,
      "hand": "right"
    },
    {
      "midi": 74,
      "time": 30.316,
      "duration": 0.616,
      "velocity": 0.69,
      "hand": "right"
    },
    {
      "midi": 50,
      "time": 30.947,
      "duration": 1.895,
      "velocity": 0.62,
      "hand": "left"
    },
    {
      "midi": 57,
      "time": 30.947,
      "duration": 1.895,
      "velocity": 0.62,
      "hand": "left"
    },
    {
      "midi": 66,
      "time": 30.947,
      "duration": 1.895,
      "velocity": 0.6,
      "hand": "right"
    },
    {
      "midi": 74,
      "time": 30.947,
      "duration": 1.895,
      "velocity": 0.6,
      "hand": "right"
    },
    {
      "midi": 52,
      "time": 32.842,
      "duration": 0.632,
      "velocity": 0.7,
      "hand": "left"
    },
    {
      "midi": 64,
      "time": 32.842,
      "duration": 0.632,
      "velocity": 0.7,
      "hand": "right"
    },
    {
      "midi": 67,
      "time": 32.842,
      "duration": 0.632,
      "velocity": 0.54,
      "hand": "right"
    },
    {
      "midi": 71,
      "time": 32.842,
      "duration": 0.616,
      "velocity": 0.54,
      "hand": "right"
    },
    {
      "midi": 47,
      "time": 33.473,
      "duration": 1.895,
      "velocity": 0.58,
      "hand": "left"
    },
    {
      "midi": 62,
      "time": 33.473,
      "duration": 1.88,
      "velocity": 0.58,
      "hand": "right"
    },
    {
      "midi": 66,
      "time": 33.473,
      "duration": 1.895,
      "velocity": 0.58,
      "hand": "right"
    },
    {
      "midi": 71,
      "time": 33.473,
      "duration": 1.88,
      "velocity": 0.58,
      "hand": "right"
    },
    {
      "midi": 43,
      "time": 35.368,
      "duration": 0.632,
      "velocity": 0.6,
      "hand": "left"
    },
    {
      "midi": 62,
      "time": 35.368,
      "duration": 0.632,
      "velocity": 0.6,
      "hand": "right"
    },
    {
      "midi": 67,
      "time": 35.368,
      "duration": 0.617,
      "velocity": 0.54,
      "hand": "right"
    },
    {
      "midi": 71,
      "time": 35.368,
      "duration": 0.632,
      "velocity": 0.54,
      "hand": "right"
    },
    {
      "midi": 48,
      "time": 36,
      "duration": 0.632,
      "velocity": 0.52,
      "hand": "left"
    },
    {
      "midi": 64,
      "time": 36,
      "duration": 1.263,
      "velocity": 0.64,
      "hand": "right"
    },
    {
      "midi": 67,
      "time": 36,
      "duration": 1.895,
      "velocity": 0.59,
      "hand": "right"
    },
    {
      "midi": 69,
      "time": 36,
      "duration": 0.632,
      "velocity": 0.57,
      "hand": "right"
    },
    {
      "midi": 45,
      "time": 36.631,
      "duration": 0.632,
      "velocity": 0.61,
      "hand": "left"
    },
    {
      "midi": 72,
      "time": 36.631,
      "duration": 0.632,
      "velocity": 0.61,
      "hand": "right"
    },
    {
      "midi": 47,
      "time": 37.263,
      "duration": 0.632,
      "velocity": 0.61,
      "hand": "left"
    },
    {
      "midi": 62,
      "time": 37.263,
      "duration": 0.632,
      "velocity": 0.57,
      "hand": "right"
    },
    {
      "midi": 71,
      "time": 37.263,
      "duration": 0.632,
      "velocity": 0.53,
      "hand": "right"
    },
    {
      "midi": 50,
      "time": 37.894,
      "duration": 0.632,
      "velocity": 0.58,
      "hand": "left"
    },
    {
      "midi": 60,
      "time": 37.894,
      "duration": 0.632,
      "velocity": 0.58,
      "hand": "right"
    },
    {
      "midi": 66,
      "time": 37.894,
      "duration": 0.632,
      "velocity": 0.56,
      "hand": "right"
    },
    {
      "midi": 69,
      "time": 37.894,
      "duration": 0.632,
      "velocity": 0.56,
      "hand": "right"
    },
    {
      "midi": 52,
      "time": 38.526,
      "duration": 1.895,
      "velocity": 0.57,
      "hand": "left"
    },
    {
      "midi": 59,
      "time": 38.526,
      "duration": 1.895,
      "velocity": 0.57,
      "hand": "left"
    },
    {
      "midi": 67,
      "time": 38.526,
      "duration": 1.895,
      "velocity": 0.55,
      "hand": "right"
    },
    {
      "midi": 50,
      "time": 40.421,
      "duration": 0.632,
      "velocity": 0.63,
      "hand": "left"
    },
    {
      "midi": 62,
      "time": 40.421,
      "duration": 0.616,
      "velocity": 0.63,
      "hand": "right"
    },
    {
      "midi": 66,
      "time": 40.421,
      "duration": 0.632,
      "velocity": 0.63,
      "hand": "right"
    },
    {
      "midi": 69,
      "time": 40.421,
      "duration": 0.632,
      "velocity": 0.63,
      "hand": "right"
    },
    {
      "midi": 43,
      "time": 41.052,
      "duration": 0.632,
      "velocity": 0.58,
      "hand": "left"
    },
    {
      "midi": 62,
      "time": 41.052,
      "duration": 0.617,
      "velocity": 0.58,
      "hand": "right"
    },
    {
      "midi": 67,
      "time": 41.052,
      "duration": 0.617,
      "velocity": 0.64,
      "hand": "right"
    },
    {
      "midi": 71,
      "time": 41.052,
      "duration": 0.632,
      "velocity": 0.64,
      "hand": "right"
    },
    {
      "midi": 47,
      "time": 41.684,
      "duration": 0.632,
      "velocity": 0.5,
      "hand": "left"
    },
    {
      "midi": 55,
      "time": 41.684,
      "duration": 0.617,
      "velocity": 0.5,
      "hand": "left"
    },
    {
      "midi": 62,
      "time": 41.684,
      "duration": 0.632,
      "velocity": 0.57,
      "hand": "right"
    },
    {
      "midi": 67,
      "time": 41.684,
      "duration": 0.632,
      "velocity": 0.57,
      "hand": "right"
    },
    {
      "midi": 48,
      "time": 42.316,
      "duration": 0.632,
      "velocity": 0.59,
      "hand": "left"
    },
    {
      "midi": 55,
      "time": 42.316,
      "duration": 0.632,
      "velocity": 0.59,
      "hand": "left"
    },
    {
      "midi": 60,
      "time": 42.316,
      "duration": 0.632,
      "velocity": 0.52,
      "hand": "right"
    },
    {
      "midi": 64,
      "time": 42.316,
      "duration": 0.632,
      "velocity": 0.52,
      "hand": "right"
    },
    {
      "midi": 47,
      "time": 42.947,
      "duration": 0.632,
      "velocity": 0.65,
      "hand": "left"
    },
    {
      "midi": 59,
      "time": 42.947,
      "duration": 0.632,
      "velocity": 0.65,
      "hand": "left"
    },
    {
      "midi": 62,
      "time": 42.947,
      "duration": 0.632,
      "velocity": 0.65,
      "hand": "right"
    },
    {
      "midi": 67,
      "time": 42.947,
      "duration": 0.632,
      "velocity": 0.65,
      "hand": "right"
    },
    {
      "midi": 48,
      "time": 43.579,
      "duration": 0.632,
      "velocity": 0.54,
      "hand": "left"
    },
    {
      "midi": 57,
      "time": 43.579,
      "duration": 1.263,
      "velocity": 0.6,
      "hand": "left"
    },
    {
      "midi": 64,
      "time": 43.579,
      "duration": 0.632,
      "velocity": 0.66,
      "hand": "right"
    },
    {
      "midi": 69,
      "time": 43.579,
      "duration": 0.632,
      "velocity": 0.66,
      "hand": "right"
    },
    {
      "midi": 45,
      "time": 44.21,
      "duration": 0.632,
      "velocity": 0.56,
      "hand": "left"
    },
    {
      "midi": 60,
      "time": 44.21,
      "duration": 0.632,
      "velocity": 0.54,
      "hand": "right"
    },
    {
      "midi": 66,
      "time": 44.21,
      "duration": 0.632,
      "velocity": 0.54,
      "hand": "right"
    },
    {
      "midi": 47,
      "time": 44.842,
      "duration": 0.616,
      "velocity": 0.6,
      "hand": "left"
    },
    {
      "midi": 55,
      "time": 44.842,
      "duration": 0.632,
      "velocity": 0.57,
      "hand": "left"
    },
    {
      "midi": 64,
      "time": 44.842,
      "duration": 0.632,
      "velocity": 0.57,
      "hand": "right"
    },
    {
      "midi": 47,
      "time": 45.473,
      "duration": 0.632,
      "velocity": 0.57,
      "hand": "left"
    },
    {
      "midi": 54,
      "time": 45.473,
      "duration": 0.632,
      "velocity": 0.57,
      "hand": "left"
    },
    {
      "midi": 62,
      "time": 45.473,
      "duration": 0.632,
      "velocity": 0.5,
      "hand": "right"
    },
    {
      "midi": 52,
      "time": 46.105,
      "duration": 1.895,
      "velocity": 0.62,
      "hand": "left"
    },
    {
      "midi": 55,
      "time": 46.105,
      "duration": 1.895,
      "velocity": 0.62,
      "hand": "left"
    },
    {
      "midi": 64,
      "time": 46.105,
      "duration": 1.895,
      "velocity": 0.61,
      "hand": "right"
    }
  ],
  "arrangements": {
    "easy": [
      {
        "midi": 64,
        "time": 0,
        "duration": 0.616,
        "velocity": 0.49,
        "hand": "right"
      },
      {
        "midi": 67,
        "time": 0.631,
        "duration": 0.632,
        "velocity": 0.67,
        "hand": "right"
      },
      {
        "midi": 71,
        "time": 1.263,
        "duration": 0.616,
        "velocity": 0.67,
        "hand": "right"
      },
      {
        "midi": 71,
        "time": 1.894,
        "duration": 0.617,
        "velocity": 0.64,
        "hand": "right"
      },
      {
        "midi": 71,
        "time": 2.526,
        "duration": 0.632,
        "velocity": 0.61,
        "hand": "right"
      },
      {
        "midi": 69,
        "time": 3.158,
        "duration": 0.632,
        "velocity": 0.54,
        "hand": "right"
      },
      {
        "midi": 72,
        "time": 3.789,
        "duration": 0.632,
        "velocity": 0.65,
        "hand": "right"
      },
      {
        "midi": 71,
        "time": 4.421,
        "duration": 0.632,
        "velocity": 0.57,
        "hand": "right"
      },
      {
        "midi": 69,
        "time": 5.052,
        "duration": 0.632,
        "velocity": 0.56,
        "hand": "right"
      },
      {
        "midi": 67,
        "time": 5.684,
        "duration": 1.895,
        "velocity": 0.53,
        "hand": "right"
      },
      {
        "midi": 69,
        "time": 7.579,
        "duration": 0.632,
        "velocity": 0.62,
        "hand": "right"
      },
      {
        "midi": 71,
        "time": 8.21,
        "duration": 0.632,
        "velocity": 0.65,
        "hand": "right"
      },
      {
        "midi": 67,
        "time": 8.842,
        "duration": 0.632,
        "velocity": 0.53,
        "hand": "right"
      },
      {
        "midi": 64,
        "time": 9.473,
        "duration": 0.632,
        "velocity": 0.53,
        "hand": "right"
      },
      {
        "midi": 67,
        "time": 10.105,
        "duration": 0.632,
        "velocity": 0.64,
        "hand": "right"
      },
      {
        "midi": 69,
        "time": 10.737,
        "duration": 0.632,
        "velocity": 0.65,
        "hand": "right"
      },
      {
        "midi": 66,
        "time": 11.368,
        "duration": 0.632,
        "velocity": 0.54,
        "hand": "right"
      },
      {
        "midi": 64,
        "time": 12,
        "duration": 0.632,
        "velocity": 0.56,
        "hand": "right"
      },
      {
        "midi": 62,
        "time": 12.631,
        "duration": 0.632,
        "velocity": 0.57,
        "hand": "right"
      },
      {
        "midi": 64,
        "time": 13.263,
        "duration": 1.88,
        "velocity": 0.6,
        "hand": "right"
      },
      {
        "midi": 69,
        "time": 15.158,
        "duration": 0.616,
        "velocity": 0.69,
        "hand": "right"
      },
      {
        "midi": 69,
        "time": 15.789,
        "duration": 0.632,
        "velocity": 0.6,
        "hand": "right"
      },
      {
        "midi": 64,
        "time": 16.421,
        "duration": 0.616,
        "velocity": 0.54,
        "hand": "right"
      },
      {
        "midi": 64,
        "time": 17.052,
        "duration": 0.632,
        "velocity": 0.59,
        "hand": "right"
      },
      {
        "midi": 66,
        "time": 17.684,
        "duration": 0.632,
        "velocity": 0.65,
        "hand": "right"
      },
      {
        "midi": 67,
        "time": 18.316,
        "duration": 1.263,
        "velocity": 0.62,
        "hand": "right"
      },
      {
        "midi": 62,
        "time": 18.947,
        "duration": 1.263,
        "velocity": 0.54,
        "hand": "right"
      },
      {
        "midi": 66,
        "time": 19.579,
        "duration": 0.632,
        "velocity": 0.57,
        "hand": "right"
      },
      {
        "midi": 64,
        "time": 20.21,
        "duration": 0.632,
        "velocity": 0.58,
        "hand": "right"
      },
      {
        "midi": 62,
        "time": 20.842,
        "duration": 1.895,
        "velocity": 0.57,
        "hand": "right"
      },
      {
        "midi": 67,
        "time": 22.737,
        "duration": 0.632,
        "velocity": 0.66,
        "hand": "right"
      },
      {
        "midi": 69,
        "time": 23.368,
        "duration": 0.632,
        "velocity": 0.63,
        "hand": "right"
      },
      {
        "midi": 71,
        "time": 24,
        "duration": 0.616,
        "velocity": 0.65,
        "hand": "right"
      },
      {
        "midi": 71,
        "time": 24.631,
        "duration": 0.617,
        "velocity": 0.65,
        "hand": "right"
      },
      {
        "midi": 71,
        "time": 25.263,
        "duration": 0.632,
        "velocity": 0.6,
        "hand": "right"
      },
      {
        "midi": 69,
        "time": 25.894,
        "duration": 0.632,
        "velocity": 0.58,
        "hand": "right"
      },
      {
        "midi": 72,
        "time": 26.526,
        "duration": 0.632,
        "velocity": 0.63,
        "hand": "right"
      },
      {
        "midi": 71,
        "time": 27.158,
        "duration": 0.632,
        "velocity": 0.56,
        "hand": "right"
      },
      {
        "midi": 69,
        "time": 27.789,
        "duration": 0.632,
        "velocity": 0.56,
        "hand": "right"
      },
      {
        "midi": 67,
        "time": 28.421,
        "duration": 1.88,
        "velocity": 0.57,
        "hand": "right"
      },
      {
        "midi": 74,
        "time": 30.316,
        "duration": 0.616,
        "velocity": 0.69,
        "hand": "right"
      },
      {
        "midi": 74,
        "time": 30.947,
        "duration": 1.895,
        "velocity": 0.6,
        "hand": "right"
      },
      {
        "midi": 71,
        "time": 32.842,
        "duration": 0.616,
        "velocity": 0.54,
        "hand": "right"
      },
      {
        "midi": 71,
        "time": 33.473,
        "duration": 1.88,
        "velocity": 0.58,
        "hand": "right"
      },
      {
        "midi": 71,
        "time": 35.368,
        "duration": 0.632,
        "velocity": 0.54,
        "hand": "right"
      },
      {
        "midi": 69,
        "time": 36,
        "duration": 0.632,
        "velocity": 0.57,
        "hand": "right"
      },
      {
        "midi": 72,
        "time": 36.631,
        "duration": 0.632,
        "velocity": 0.61,
        "hand": "right"
      },
      {
        "midi": 71,
        "time": 37.263,
        "duration": 0.632,
        "velocity": 0.53,
        "hand": "right"
      },
      {
        "midi": 69,
        "time": 37.894,
        "duration": 0.632,
        "velocity": 0.56,
        "hand": "right"
      },
      {
        "midi": 67,
        "time": 38.526,
        "duration": 1.895,
        "velocity": 0.55,
        "hand": "right"
      },
      {
        "midi": 69,
        "time": 40.421,
        "duration": 0.632,
        "velocity": 0.63,
        "hand": "right"
      },
      {
        "midi": 71,
        "time": 41.052,
        "duration": 0.632,
        "velocity": 0.64,
        "hand": "right"
      },
      {
        "midi": 67,
        "time": 41.684,
        "duration": 0.632,
        "velocity": 0.57,
        "hand": "right"
      },
      {
        "midi": 64,
        "time": 42.316,
        "duration": 0.632,
        "velocity": 0.52,
        "hand": "right"
      },
      {
        "midi": 67,
        "time": 42.947,
        "duration": 0.632,
        "velocity": 0.65,
        "hand": "right"
      },
      {
        "midi": 69,
        "time": 43.579,
        "duration": 0.632,
        "velocity": 0.66,
        "hand": "right"
      },
      {
        "midi": 66,
        "time": 44.21,
        "duration": 0.632,
        "velocity": 0.54,
        "hand": "right"
      },
      {
        "midi": 64,
        "time": 44.842,
        "duration": 0.632,
        "velocity": 0.57,
        "hand": "right"
      },
      {
        "midi": 62,
        "time": 45.473,
        "duration": 0.632,
        "velocity": 0.5,
        "hand": "right"
      },
      {
        "midi": 64,
        "time": 46.105,
        "duration": 1.895,
        "velocity": 0.61,
        "hand": "right"
      }
    ],
    "medium": [
      {
        "midi": 52,
        "time": 0,
        "duration": 0.616,
        "velocity": 0.54,
        "hand": "left"
      },
      {
        "midi": 64,
        "time": 0,
        "duration": 0.616,
        "velocity": 0.49,
        "hand": "right"
      },
      {
        "midi": 71,
        "time": 1.263,
        "duration": 0.616,
        "velocity": 0.67,
        "hand": "right"
      },
      {
        "midi": 55,
        "time": 2.526,
        "duration": 0.632,
        "velocity": 0.72,
        "hand": "left"
      },
      {
        "midi": 71,
        "time": 2.526,
        "duration": 0.632,
        "velocity": 0.61,
        "hand": "right"
      },
      {
        "midi": 57,
        "time": 3.789,
        "duration": 0.632,
        "velocity": 0.57,
        "hand": "left"
      },
      {
        "midi": 72,
        "time": 3.789,
        "duration": 0.632,
        "velocity": 0.65,
        "hand": "right"
      },
      {
        "midi": 69,
        "time": 5.052,
        "duration": 0.632,
        "velocity": 0.56,
        "hand": "right"
      },
      {
        "midi": 69,
        "time": 7.579,
        "duration": 0.632,
        "velocity": 0.62,
        "hand": "right"
      },
      {
        "midi": 59,
        "time": 8.842,
        "duration": 0.632,
        "velocity": 0.61,
        "hand": "left"
      },
      {
        "midi": 67,
        "time": 8.842,
        "duration": 0.632,
        "velocity": 0.53,
        "hand": "right"
      },
      {
        "midi": 59,
        "time": 10.105,
        "duration": 0.632,
        "velocity": 0.62,
        "hand": "left"
      },
      {
        "midi": 67,
        "time": 10.105,
        "duration": 0.632,
        "velocity": 0.64,
        "hand": "right"
      },
      {
        "midi": 57,
        "time": 11.368,
        "duration": 0.632,
        "velocity": 0.55,
        "hand": "left"
      },
      {
        "midi": 66,
        "time": 11.368,
        "duration": 0.632,
        "velocity": 0.54,
        "hand": "right"
      },
      {
        "midi": 47,
        "time": 12.631,
        "duration": 0.632,
        "velocity": 0.56,
        "hand": "left"
      },
      {
        "midi": 62,
        "time": 12.631,
        "duration": 0.632,
        "velocity": 0.57,
        "hand": "right"
      },
      {
        "midi": 69,
        "time": 15.158,
        "duration": 0.616,
        "velocity": 0.69,
        "hand": "right"
      },
      {
        "midi": 57,
        "time": 16.421,
        "duration": 0.632,
        "velocity": 0.54,
        "hand": "left"
      },
      {
        "midi": 64,
        "time": 16.421,
        "duration": 0.616,
        "velocity": 0.54,
        "hand": "right"
      },
      {
        "midi": 54,
        "time": 17.684,
        "duration": 0.632,
        "velocity": 0.57,
        "hand": "left"
      },
      {
        "midi": 66,
        "time": 17.684,
        "duration": 0.632,
        "velocity": 0.65,
        "hand": "right"
      },
      {
        "midi": 47,
        "time": 18.947,
        "duration": 0.632,
        "velocity": 0.59,
        "hand": "left"
      },
      {
        "midi": 62,
        "time": 18.947,
        "duration": 1.263,
        "velocity": 0.54,
        "hand": "right"
      },
      {
        "midi": 57,
        "time": 20.21,
        "duration": 0.632,
        "velocity": 0.61,
        "hand": "left"
      },
      {
        "midi": 64,
        "time": 20.21,
        "duration": 0.632,
        "velocity": 0.58,
        "hand": "right"
      },
      {
        "midi": 52,
        "time": 22.737,
        "duration": 0.632,
        "velocity": 0.62,
        "hand": "left"
      },
      {
        "midi": 67,
        "time": 22.737,
        "duration": 0.632,
        "velocity": 0.66,
        "hand": "right"
      },
      {
        "midi": 59,
        "time": 24,
        "duration": 0.632,
        "velocity": 0.57,
        "hand": "left"
      },
      {
        "midi": 71,
        "time": 24,
        "duration": 0.616,
        "velocity": 0.65,
        "hand": "right"
      },
      {
        "midi": 59,
        "time": 25.263,
        "duration": 0.632,
        "velocity": 0.72,
        "hand": "left"
      },
      {
        "midi": 71,
        "time": 25.263,
        "duration": 0.632,
        "velocity": 0.6,
        "hand": "right"
      },
      {
        "midi": 57,
        "time": 26.526,
        "duration": 0.632,
        "velocity": 0.57,
        "hand": "left"
      },
      {
        "midi": 72,
        "time": 26.526,
        "duration": 0.632,
        "velocity": 0.63,
        "hand": "right"
      },
      {
        "midi": 69,
        "time": 27.789,
        "duration": 0.632,
        "velocity": 0.56,
        "hand": "right"
      },
      {
        "midi": 74,
        "time": 30.316,
        "duration": 0.616,
        "velocity": 0.69,
        "hand": "right"
      },
      {
        "midi": 71,
        "time": 32.842,
        "duration": 0.616,
        "velocity": 0.54,
        "hand": "right"
      },
      {
        "midi": 55,
        "time": 35.368,
        "duration": 0.632,
        "velocity": 0.6,
        "hand": "left"
      },
      {
        "midi": 71,
        "time": 35.368,
        "duration": 0.632,
        "velocity": 0.54,
        "hand": "right"
      },
      {
        "midi": 57,
        "time": 36.631,
        "duration": 0.632,
        "velocity": 0.61,
        "hand": "left"
      },
      {
        "midi": 72,
        "time": 36.631,
        "duration": 0.632,
        "velocity": 0.61,
        "hand": "right"
      },
      {
        "midi": 69,
        "time": 37.894,
        "duration": 0.632,
        "velocity": 0.56,
        "hand": "right"
      },
      {
        "midi": 69,
        "time": 40.421,
        "duration": 0.632,
        "velocity": 0.63,
        "hand": "right"
      },
      {
        "midi": 59,
        "time": 41.684,
        "duration": 0.632,
        "velocity": 0.5,
        "hand": "left"
      },
      {
        "midi": 67,
        "time": 41.684,
        "duration": 0.632,
        "velocity": 0.57,
        "hand": "right"
      },
      {
        "midi": 59,
        "time": 42.947,
        "duration": 0.632,
        "velocity": 0.65,
        "hand": "left"
      },
      {
        "midi": 67,
        "time": 42.947,
        "duration": 0.632,
        "velocity": 0.65,
        "hand": "right"
      },
      {
        "midi": 57,
        "time": 44.21,
        "duration": 0.632,
        "velocity": 0.56,
        "hand": "left"
      },
      {
        "midi": 66,
        "time": 44.21,
        "duration": 0.632,
        "velocity": 0.54,
        "hand": "right"
      },
      {
        "midi": 47,
        "time": 45.473,
        "duration": 0.632,
        "velocity": 0.57,
        "hand": "left"
      },
      {
        "midi": 62,
        "time": 45.473,
        "duration": 0.632,
        "velocity": 0.5,
        "hand": "right"
      }
    ],
    "hard": [
      {
        "midi": 52,
        "time": 0,
        "duration": 0.616,
        "velocity": 0.54,
        "hand": "left"
      },
      {
        "midi": 55,
        "time": 0,
        "duration": 0.632,
        "velocity": 0.54,
        "hand": "left"
      },
      {
        "midi": 64,
        "time": 0,
        "duration": 0.616,
        "velocity": 0.49,
        "hand": "right"
      },
      {
        "midi": 52,
        "time": 0.631,
        "duration": 0.632,
        "velocity": 0.59,
        "hand": "left"
      },
      {
        "midi": 59,
        "time": 0.631,
        "duration": 0.617,
        "velocity": 0.59,
        "hand": "left"
      },
      {
        "midi": 64,
        "time": 0.631,
        "duration": 0.632,
        "velocity": 0.67,
        "hand": "right"
      },
      {
        "midi": 67,
        "time": 0.631,
        "duration": 0.632,
        "velocity": 0.67,
        "hand": "right"
      },
      {
        "midi": 50,
        "time": 1.263,
        "duration": 0.632,
        "velocity": 0.58,
        "hand": "left"
      },
      {
        "midi": 54,
        "time": 1.263,
        "duration": 0.632,
        "velocity": 0.58,
        "hand": "left"
      },
      {
        "midi": 71,
        "time": 1.263,
        "duration": 0.616,
        "velocity": 0.67,
        "hand": "right"
      },
      {
        "midi": 48,
        "time": 1.894,
        "duration": 0.632,
        "velocity": 0.6,
        "hand": "left"
      },
      {
        "midi": 55,
        "time": 1.894,
        "duration": 0.632,
        "velocity": 0.6,
        "hand": "left"
      },
      {
        "midi": 62,
        "time": 1.894,
        "duration": 0.617,
        "velocity": 0.64,
        "hand": "right"
      },
      {
        "midi": 71,
        "time": 1.894,
        "duration": 0.617,
        "velocity": 0.64,
        "hand": "right"
      },
      {
        "midi": 43,
        "time": 2.526,
        "duration": 0.632,
        "velocity": 0.72,
        "hand": "left"
      },
      {
        "midi": 62,
        "time": 2.526,
        "duration": 0.632,
        "velocity": 0.72,
        "hand": "right"
      },
      {
        "midi": 67,
        "time": 2.526,
        "duration": 0.617,
        "velocity": 0.61,
        "hand": "right"
      },
      {
        "midi": 71,
        "time": 2.526,
        "duration": 0.632,
        "velocity": 0.61,
        "hand": "right"
      },
      {
        "midi": 48,
        "time": 3.158,
        "duration": 0.632,
        "velocity": 0.51,
        "hand": "left"
      },
      {
        "midi": 64,
        "time": 3.158,
        "duration": 1.263,
        "velocity": 0.66,
        "hand": "right"
      },
      {
        "midi": 67,
        "time": 3.158,
        "duration": 1.895,
        "velocity": 0.65,
        "hand": "right"
      },
      {
        "midi": 69,
        "time": 3.158,
        "duration": 0.632,
        "velocity": 0.54,
        "hand": "right"
      },
      {
        "midi": 45,
        "time": 3.789,
        "duration": 0.632,
        "velocity": 0.57,
        "hand": "left"
      },
      {
        "midi": 72,
        "time": 3.789,
        "duration": 0.632,
        "velocity": 0.65,
        "hand": "right"
      },
      {
        "midi": 47,
        "time": 4.421,
        "duration": 0.632,
        "velocity": 0.62,
        "hand": "left"
      },
      {
        "midi": 62,
        "time": 4.421,
        "duration": 0.632,
        "velocity": 0.6,
        "hand": "right"
      },
      {
        "midi": 71,
        "time": 4.421,
        "duration": 0.632,
        "velocity": 0.57,
        "hand": "right"
      },
      {
        "midi": 50,
        "time": 5.052,
        "duration": 0.632,
        "velocity": 0.51,
        "hand": "left"
      },
      {
        "midi": 60,
        "time": 5.052,
        "duration": 0.632,
        "velocity": 0.51,
        "hand": "right"
      },
      {
        "midi": 66,
        "time": 5.052,
        "duration": 0.632,
        "velocity": 0.56,
        "hand": "right"
      },
      {
        "midi": 69,
        "time": 5.052,
        "duration": 0.632,
        "velocity": 0.56,
        "hand": "right"
      },
      {
        "midi": 55,
        "time": 5.684,
        "duration": 1.895,
        "velocity": 0.55,
        "hand": "left"
      },
      {
        "midi": 59,
        "time": 5.684,
        "duration": 1.895,
        "velocity": 0.55,
        "hand": "left"
      },
      {
        "midi": 62,
        "time": 5.684,
        "duration": 1.88,
        "velocity": 0.53,
        "hand": "right"
      },
      {
        "midi": 67,
        "time": 5.684,
        "duration": 1.895,
        "velocity": 0.53,
        "hand": "right"
      },
      {
        "midi": 50,
        "time": 7.579,
        "duration": 0.632,
        "velocity": 0.57,
        "hand": "left"
      },
      {
        "midi": 54,
        "time": 7.579,
        "duration": 0.632,
        "velocity": 0.57,
        "hand": "left"
      },
      {
        "midi": 62,
        "time": 7.579,
        "duration": 0.616,
        "velocity": 0.62,
        "hand": "right"
      },
      {
        "midi": 69,
        "time": 7.579,
        "duration": 0.632,
        "velocity": 0.62,
        "hand": "right"
      },
      {
        "midi": 43,
        "time": 8.21,
        "duration": 0.632,
        "velocity": 0.61,
        "hand": "left"
      },
      {
        "midi": 55,
        "time": 8.21,
        "duration": 0.617,
        "velocity": 0.61,
        "hand": "left"
      },
      {
        "midi": 62,
        "time": 8.21,
        "duration": 0.617,
        "velocity": 0.65,
        "hand": "right"
      },
      {
        "midi": 71,
        "time": 8.21,
        "duration": 0.632,
        "velocity": 0.65,
        "hand": "right"
      },
      {
        "midi": 47,
        "time": 8.842,
        "duration": 0.632,
        "velocity": 0.61,
        "hand": "left"
      },
      {
        "midi": 55,
        "time": 8.842,
        "duration": 0.616,
        "velocity": 0.61,
        "hand": "left"
      },
      {
        "midi": 62,
        "time": 8.842,
        "duration": 0.632,
        "velocity": 0.53,
        "hand": "right"
      },
      {
        "midi": 67,
        "time": 8.842,
        "duration": 0.632,
        "velocity": 0.53,
        "hand": "right"
      },
      {
        "midi": 48,
        "time": 9.473,
        "duration": 0.632,
        "velocity": 0.61,
        "hand": "left"
      },
      {
        "midi": 55,
        "time": 9.473,
        "duration": 0.632,
        "velocity": 0.61,
        "hand": "left"
      },
      {
        "midi": 60,
        "time": 9.473,
        "duration": 0.632,
        "velocity": 0.53,
        "hand": "right"
      },
      {
        "midi": 64,
        "time": 9.473,
        "duration": 0.632,
        "velocity": 0.53,
        "hand": "right"
      },
      {
        "midi": 47,
        "time": 10.105,
        "duration": 0.632,
        "velocity": 0.62,
        "hand": "left"
      },
      {
        "midi": 59,
        "time": 10.105,
        "duration": 0.632,
        "velocity": 0.62,
        "hand": "left"
      },
      {
        "midi": 62,
        "time": 10.105,
        "duration": 0.632,
        "velocity": 0.64,
        "hand": "right"
      },
      {
        "midi": 67,
        "time": 10.105,
        "duration": 0.632,
        "velocity": 0.64,
        "hand": "right"
      },
      {
        "midi": 48,
        "time": 10.737,
        "duration": 0.632,
        "velocity": 0.55,
        "hand": "left"
      },
      {
        "midi": 57,
        "time": 10.737,
        "duration": 1.263,
        "velocity": 0.59,
        "hand": "left"
      },
      {
        "midi": 64,
        "time": 10.737,
        "duration": 0.632,
        "velocity": 0.65,
        "hand": "right"
      },
      {
        "midi": 69,
        "time": 10.737,
        "duration": 0.632,
        "velocity": 0.65,
        "hand": "right"
      },
      {
        "midi": 45,
        "time": 11.368,
        "duration": 0.632,
        "velocity": 0.55,
        "hand": "left"
      },
      {
        "midi": 60,
        "time": 11.368,
        "duration": 0.632,
        "velocity": 0.54,
        "hand": "right"
      },
      {
        "midi": 66,
        "time": 11.368,
        "duration": 0.632,
        "velocity": 0.54,
        "hand": "right"
      },
      {
        "midi": 47,
        "time": 12,
        "duration": 0.616,
        "velocity": 0.6,
        "hand": "left"
      },
      {
        "midi": 55,
        "time": 12,
        "duration": 0.632,
        "velocity": 0.57,
        "hand": "left"
      },
      {
        "midi": 64,
        "time": 12,
        "duration": 0.632,
        "velocity": 0.56,
        "hand": "right"
      },
      {
        "midi": 47,
        "time": 12.631,
        "duration": 0.632,
        "velocity": 0.56,
        "hand": "left"
      },
      {
        "midi": 54,
        "time": 12.631,
        "duration": 0.632,
        "velocity": 0.56,
        "hand": "left"
      },
      {
        "midi": 62,
        "time": 12.631,
        "duration": 0.632,
        "velocity": 0.57,
        "hand": "right"
      },
      {
        "midi": 52,
        "time": 13.263,
        "duration": 1.895,
        "velocity": 0.63,
        "hand": "left"
      },
      {
        "midi": 55,
        "time": 13.263,
        "duration": 1.895,
        "velocity": 0.63,
        "hand": "left"
      },
      {
        "midi": 64,
        "time": 13.263,
        "duration": 1.88,
        "velocity": 0.6,
        "hand": "right"
      },
      {
        "midi": 48,
        "time": 15.158,
        "duration": 0.316,
        "velocity": 0.54,
        "hand": "left"
      },
      {
        "midi": 57,
        "time": 15.158,
        "duration": 0.616,
        "velocity": 0.64,
        "hand": "left"
      },
      {
        "midi": 64,
        "time": 15.158,
        "duration": 0.316,
        "velocity": 0.54,
        "hand": "right"
      },
      {
        "midi": 69,
        "time": 15.158,
        "duration": 0.616,
        "velocity": 0.69,
        "hand": "right"
      },
      {
        "midi": 47,
        "time": 15.473,
        "duration": 0.316,
        "velocity": 0.56,
        "hand": "left"
      },
      {
        "midi": 62,
        "time": 15.473,
        "duration": 0.316,
        "velocity": 0.55,
        "hand": "right"
      },
      {
        "midi": 45,
        "time": 15.789,
        "duration": 0.632,
        "velocity": 0.61,
        "hand": "left"
      },
      {
        "midi": 57,
        "time": 15.789,
        "duration": 0.617,
        "velocity": 0.61,
        "hand": "left"
      },
      {
        "midi": 60,
        "time": 15.789,
        "duration": 0.617,
        "velocity": 0.6,
        "hand": "right"
      },
      {
        "midi": 69,
        "time": 15.789,
        "duration": 0.632,
        "velocity": 0.6,
        "hand": "right"
      },
      {
        "midi": 57,
        "time": 16.421,
        "duration": 0.632,
        "velocity": 0.54,
        "hand": "left"
      },
      {
        "midi": 60,
        "time": 16.421,
        "duration": 0.632,
        "velocity": 0.63,
        "hand": "right"
      },
      {
        "midi": 64,
        "time": 16.421,
        "duration": 0.616,
        "velocity": 0.54,
        "hand": "right"
      },
      {
        "midi": 55,
        "time": 17.052,
        "duration": 0.632,
        "velocity": 0.58,
        "hand": "left"
      },
      {
        "midi": 59,
        "time": 17.052,
        "duration": 0.632,
        "velocity": 0.58,
        "hand": "left"
      },
      {
        "midi": 64,
        "time": 17.052,
        "duration": 0.632,
        "velocity": 0.59,
        "hand": "right"
      },
      {
        "midi": 54,
        "time": 17.684,
        "duration": 0.632,
        "velocity": 0.57,
        "hand": "left"
      },
      {
        "midi": 57,
        "time": 17.684,
        "duration": 0.632,
        "velocity": 0.57,
        "hand": "left"
      },
      {
        "midi": 63,
        "time": 17.684,
        "duration": 0.632,
        "velocity": 0.65,
        "hand": "right"
      },
      {
        "midi": 66,
        "time": 17.684,
        "duration": 0.632,
        "velocity": 0.65,
        "hand": "right"
      },
      {
        "midi": 52,
        "time": 18.316,
        "duration": 0.632,
        "velocity": 0.63,
        "hand": "left"
      },
      {
        "midi": 55,
        "time": 18.316,
        "duration": 1.263,
        "velocity": 0.58,
        "hand": "left"
      },
      {
        "midi": 64,
        "time": 18.316,
        "duration": 0.632,
        "velocity": 0.57,
        "hand": "right"
      },
      {
        "midi": 67,
        "time": 18.316,
        "duration": 1.263,
        "velocity": 0.62,
        "hand": "right"
      },
      {
        "midi": 47,
        "time": 18.947,
        "duration": 0.632,
        "velocity": 0.59,
        "hand": "left"
      },
      {
        "midi": 62,
        "time": 18.947,
        "duration": 1.263,
        "velocity": 0.54,
        "hand": "right"
      },
      {
        "midi": 45,
        "time": 19.579,
        "duration": 0.616,
        "velocity": 0.58,
        "hand": "left"
      },
      {
        "midi": 57,
        "time": 19.579,
        "duration": 0.632,
        "velocity": 0.59,
        "hand": "left"
      },
      {
        "midi": 66,
        "time": 19.579,
        "duration": 0.632,
        "velocity": 0.57,
        "hand": "right"
      },
      {
        "midi": 45,
        "time": 20.21,
        "duration": 0.632,
        "velocity": 0.61,
        "hand": "left"
      },
      {
        "midi": 55,
        "time": 20.21,
        "duration": 0.632,
        "velocity": 0.61,
        "hand": "left"
      },
      {
        "midi": 61,
        "time": 20.21,
        "duration": 0.632,
        "velocity": 0.58,
        "hand": "right"
      },
      {
        "midi": 64,
        "time": 20.21,
        "duration": 0.632,
        "velocity": 0.58,
        "hand": "right"
      },
      {
        "midi": 50,
        "time": 20.842,
        "duration": 1.895,
        "velocity": 0.59,
        "hand": "left"
      },
      {
        "midi": 54,
        "time": 20.842,
        "duration": 1.895,
        "velocity": 0.59,
        "hand": "left"
      },
      {
        "midi": 62,
        "time": 20.842,
        "duration": 1.895,
        "velocity": 0.57,
        "hand": "right"
      },
      {
        "midi": 52,
        "time": 22.737,
        "duration": 0.632,
        "velocity": 0.62,
        "hand": "left"
      },
      {
        "midi": 55,
        "time": 22.737,
        "duration": 0.632,
        "velocity": 0.62,
        "hand": "left"
      },
      {
        "midi": 67,
        "time": 22.737,
        "duration": 0.632,
        "velocity": 0.66,
        "hand": "right"
      },
      {
        "midi": 50,
        "time": 23.368,
        "duration": 0.632,
        "velocity": 0.57,
        "hand": "left"
      },
      {
        "midi": 54,
        "time": 23.368,
        "duration": 0.617,
        "velocity": 0.57,
        "hand": "left"
      },
      {
        "midi": 62,
        "time": 23.368,
        "duration": 0.617,
        "velocity": 0.63,
        "hand": "right"
      },
      {
        "midi": 69,
        "time": 23.368,
        "duration": 0.632,
        "velocity": 0.63,
        "hand": "right"
      },
      {
        "midi": 47,
        "time": 24,
        "duration": 0.632,
        "velocity": 0.57,
        "hand": "left"
      },
      {
        "midi": 54,
        "time": 24,
        "duration": 0.632,
        "velocity": 0.57,
        "hand": "left"
      },
      {
        "midi": 62,
        "time": 24,
        "duration": 0.616,
        "velocity": 0.65,
        "hand": "right"
      },
      {
        "midi": 71,
        "time": 24,
        "duration": 0.616,
        "velocity": 0.65,
        "hand": "right"
      },
      {
        "midi": 43,
        "time": 24.631,
        "duration": 0.632,
        "velocity": 0.63,
        "hand": "left"
      },
      {
        "midi": 55,
        "time": 24.631,
        "duration": 0.632,
        "velocity": 0.63,
        "hand": "left"
      },
      {
        "midi": 62,
        "time": 24.631,
        "duration": 0.617,
        "velocity": 0.65,
        "hand": "right"
      },
      {
        "midi": 71,
        "time": 24.631,
        "duration": 0.617,
        "velocity": 0.65,
        "hand": "right"
      },
      {
        "midi": 47,
        "time": 25.263,
        "duration": 0.632,
        "velocity": 0.72,
        "hand": "left"
      },
      {
        "midi": 62,
        "time": 25.263,
        "duration": 0.632,
        "velocity": 0.72,
        "hand": "right"
      },
      {
        "midi": 67,
        "time": 25.263,
        "duration": 0.616,
        "velocity": 0.6,
        "hand": "right"
      },
      {
        "midi": 71,
        "time": 25.263,
        "duration": 0.632,
        "velocity": 0.6,
        "hand": "right"
      },
      {
        "midi": 48,
        "time": 25.894,
        "duration": 0.632,
        "velocity": 0.53,
        "hand": "left"
      },
      {
        "midi": 64,
        "time": 25.894,
        "duration": 1.263,
        "velocity": 0.65,
        "hand": "right"
      },
      {
        "midi": 67,
        "time": 25.894,
        "duration": 1.895,
        "velocity": 0.55,
        "hand": "right"
      },
      {
        "midi": 69,
        "time": 25.894,
        "duration": 0.632,
        "velocity": 0.58,
        "hand": "right"
      },
      {
        "midi": 45,
        "time": 26.526,
        "duration": 0.632,
        "velocity": 0.57,
        "hand": "left"
      },
      {
        "midi": 72,
        "time": 26.526,
        "duration": 0.632,
        "velocity": 0.63,
        "hand": "right"
      },
      {
        "midi": 47,
        "time": 27.158,
        "duration": 0.632,
        "velocity": 0.61,
        "hand": "left"
      },
      {
        "midi": 62,
        "time": 27.158,
        "duration": 0.632,
        "velocity": 0.53,
        "hand": "right"
      },
      {
        "midi": 71,
        "time": 27.158,
        "duration": 0.632,
        "velocity": 0.56,
        "hand": "right"
      },
      {
        "midi": 50,
        "time": 27.789,
        "duration": 0.632,
        "velocity": 0.54,
        "hand": "left"
      },
      {
        "midi": 60,
        "time": 27.789,
        "duration": 0.632,
        "velocity": 0.54,
        "hand": "right"
      },
      {
        "midi": 66,
        "time": 27.789,
        "duration": 0.632,
        "velocity": 0.56,
        "hand": "right"
      },
      {
        "midi": 69,
        "time": 27.789,
        "duration": 0.632,
        "velocity": 0.56,
        "hand": "right"
      },
      {
        "midi": 43,
        "time": 28.421,
        "duration": 1.895,
        "velocity": 0.57,
        "hand": "left"
      },
      {
        "midi": 59,
        "time": 28.421,
        "duration": 1.88,
        "velocity": 0.57,
        "hand": "left"
      },
      {
        "midi": 67,
        "time": 28.421,
        "duration": 1.88,
        "velocity": 0.57,
        "hand": "right"
      },
      {
        "midi": 55,
        "time": 30.316,
        "duration": 0.632,
        "velocity": 0.58,
        "hand": "left"
      },
      {
        "midi": 59,
        "time": 30.316,
        "duration": 0.632,
        "velocity": 0.58,
        "hand": "left"
      },
      {
        "midi": 67,
        "time": 30.316,
        "duration": 0.632,
        "velocity": 0.69,
        "hand": "right"
      },
      {
        "midi": 74,
        "time": 30.316,
        "duration": 0.616,
        "velocity": 0.69,
        "hand": "right"
      },
      {
        "midi": 50,
        "time": 30.947,
        "duration": 1.895,
        "velocity": 0.62,
        "hand": "left"
      },
      {
        "midi": 57,
        "time": 30.947,
        "duration": 1.895,
        "velocity": 0.62,
        "hand": "left"
      },
      {
        "midi": 66,
        "time": 30.947,
        "duration": 1.895,
        "velocity": 0.6,
        "hand": "right"
      },
      {
        "midi": 74,
        "time": 30.947,
        "duration": 1.895,
        "velocity": 0.6,
        "hand": "right"
      },
      {
        "midi": 52,
        "time": 32.842,
        "duration": 0.632,
        "velocity": 0.7,
        "hand": "left"
      },
      {
        "midi": 64,
        "time": 32.842,
        "duration": 0.632,
        "velocity": 0.7,
        "hand": "right"
      },
      {
        "midi": 67,
        "time": 32.842,
        "duration": 0.632,
        "velocity": 0.54,
        "hand": "right"
      },
      {
        "midi": 71,
        "time": 32.842,
        "duration": 0.616,
        "velocity": 0.54,
        "hand": "right"
      },
      {
        "midi": 47,
        "time": 33.473,
        "duration": 1.895,
        "velocity": 0.58,
        "hand": "left"
      },
      {
        "midi": 62,
        "time": 33.473,
        "duration": 1.88,
        "velocity": 0.58,
        "hand": "right"
      },
      {
        "midi": 66,
        "time": 33.473,
        "duration": 1.895,
        "velocity": 0.58,
        "hand": "right"
      },
      {
        "midi": 71,
        "time": 33.473,
        "duration": 1.88,
        "velocity": 0.58,
        "hand": "right"
      },
      {
        "midi": 43,
        "time": 35.368,
        "duration": 0.632,
        "velocity": 0.6,
        "hand": "left"
      },
      {
        "midi": 62,
        "time": 35.368,
        "duration": 0.632,
        "velocity": 0.6,
        "hand": "right"
      },
      {
        "midi": 67,
        "time": 35.368,
        "duration": 0.617,
        "velocity": 0.54,
        "hand": "right"
      },
      {
        "midi": 71,
        "time": 35.368,
        "duration": 0.632,
        "velocity": 0.54,
        "hand": "right"
      },
      {
        "midi": 48,
        "time": 36,
        "duration": 0.632,
        "velocity": 0.52,
        "hand": "left"
      },
      {
        "midi": 64,
        "time": 36,
        "duration": 1.263,
        "velocity": 0.64,
        "hand": "right"
      },
      {
        "midi": 67,
        "time": 36,
        "duration": 1.895,
        "velocity": 0.59,
        "hand": "right"
      },
      {
        "midi": 69,
        "time": 36,
        "duration": 0.632,
        "velocity": 0.57,
        "hand": "right"
      },
      {
        "midi": 45,
        "time": 36.631,
        "duration": 0.632,
        "velocity": 0.61,
        "hand": "left"
      },
      {
        "midi": 72,
        "time": 36.631,
        "duration": 0.632,
        "velocity": 0.61,
        "hand": "right"
      },
      {
        "midi": 47,
        "time": 37.263,
        "duration": 0.632,
        "velocity": 0.61,
        "hand": "left"
      },
      {
        "midi": 62,
        "time": 37.263,
        "duration": 0.632,
        "velocity": 0.57,
        "hand": "right"
      },
      {
        "midi": 71,
        "time": 37.263,
        "duration": 0.632,
        "velocity": 0.53,
        "hand": "right"
      },
      {
        "midi": 50,
        "time": 37.894,
        "duration": 0.632,
        "velocity": 0.58,
        "hand": "left"
      },
      {
        "midi": 60,
        "time": 37.894,
        "duration": 0.632,
        "velocity": 0.58,
        "hand": "right"
      },
      {
        "midi": 66,
        "time": 37.894,
        "duration": 0.632,
        "velocity": 0.56,
        "hand": "right"
      },
      {
        "midi": 69,
        "time": 37.894,
        "duration": 0.632,
        "velocity": 0.56,
        "hand": "right"
      },
      {
        "midi": 52,
        "time": 38.526,
        "duration": 1.895,
        "velocity": 0.57,
        "hand": "left"
      },
      {
        "midi": 59,
        "time": 38.526,
        "duration": 1.895,
        "velocity": 0.57,
        "hand": "left"
      },
      {
        "midi": 67,
        "time": 38.526,
        "duration": 1.895,
        "velocity": 0.55,
        "hand": "right"
      },
      {
        "midi": 50,
        "time": 40.421,
        "duration": 0.632,
        "velocity": 0.63,
        "hand": "left"
      },
      {
        "midi": 62,
        "time": 40.421,
        "duration": 0.616,
        "velocity": 0.63,
        "hand": "right"
      },
      {
        "midi": 66,
        "time": 40.421,
        "duration": 0.632,
        "velocity": 0.63,
        "hand": "right"
      },
      {
        "midi": 69,
        "time": 40.421,
        "duration": 0.632,
        "velocity": 0.63,
        "hand": "right"
      },
      {
        "midi": 43,
        "time": 41.052,
        "duration": 0.632,
        "velocity": 0.58,
        "hand": "left"
      },
      {
        "midi": 62,
        "time": 41.052,
        "duration": 0.617,
        "velocity": 0.58,
        "hand": "right"
      },
      {
        "midi": 67,
        "time": 41.052,
        "duration": 0.617,
        "velocity": 0.64,
        "hand": "right"
      },
      {
        "midi": 71,
        "time": 41.052,
        "duration": 0.632,
        "velocity": 0.64,
        "hand": "right"
      },
      {
        "midi": 47,
        "time": 41.684,
        "duration": 0.632,
        "velocity": 0.5,
        "hand": "left"
      },
      {
        "midi": 55,
        "time": 41.684,
        "duration": 0.617,
        "velocity": 0.5,
        "hand": "left"
      },
      {
        "midi": 62,
        "time": 41.684,
        "duration": 0.632,
        "velocity": 0.57,
        "hand": "right"
      },
      {
        "midi": 67,
        "time": 41.684,
        "duration": 0.632,
        "velocity": 0.57,
        "hand": "right"
      },
      {
        "midi": 48,
        "time": 42.316,
        "duration": 0.632,
        "velocity": 0.59,
        "hand": "left"
      },
      {
        "midi": 55,
        "time": 42.316,
        "duration": 0.632,
        "velocity": 0.59,
        "hand": "left"
      },
      {
        "midi": 60,
        "time": 42.316,
        "duration": 0.632,
        "velocity": 0.52,
        "hand": "right"
      },
      {
        "midi": 64,
        "time": 42.316,
        "duration": 0.632,
        "velocity": 0.52,
        "hand": "right"
      },
      {
        "midi": 47,
        "time": 42.947,
        "duration": 0.632,
        "velocity": 0.65,
        "hand": "left"
      },
      {
        "midi": 59,
        "time": 42.947,
        "duration": 0.632,
        "velocity": 0.65,
        "hand": "left"
      },
      {
        "midi": 62,
        "time": 42.947,
        "duration": 0.632,
        "velocity": 0.65,
        "hand": "right"
      },
      {
        "midi": 67,
        "time": 42.947,
        "duration": 0.632,
        "velocity": 0.65,
        "hand": "right"
      },
      {
        "midi": 48,
        "time": 43.579,
        "duration": 0.632,
        "velocity": 0.54,
        "hand": "left"
      },
      {
        "midi": 57,
        "time": 43.579,
        "duration": 1.263,
        "velocity": 0.6,
        "hand": "left"
      },
      {
        "midi": 64,
        "time": 43.579,
        "duration": 0.632,
        "velocity": 0.66,
        "hand": "right"
      },
      {
        "midi": 69,
        "time": 43.579,
        "duration": 0.632,
        "velocity": 0.66,
        "hand": "right"
      },
      {
        "midi": 45,
        "time": 44.21,
        "duration": 0.632,
        "velocity": 0.56,
        "hand": "left"
      },
      {
        "midi": 60,
        "time": 44.21,
        "duration": 0.632,
        "velocity": 0.54,
        "hand": "right"
      },
      {
        "midi": 66,
        "time": 44.21,
        "duration": 0.632,
        "velocity": 0.54,
        "hand": "right"
      },
      {
        "midi": 47,
        "time": 44.842,
        "duration": 0.616,
        "velocity": 0.6,
        "hand": "left"
      },
      {
        "midi": 55,
        "time": 44.842,
        "duration": 0.632,
        "velocity": 0.57,
        "hand": "left"
      },
      {
        "midi": 64,
        "time": 44.842,
        "duration": 0.632,
        "velocity": 0.57,
        "hand": "right"
      },
      {
        "midi": 47,
        "time": 45.473,
        "duration": 0.632,
        "velocity": 0.57,
        "hand": "left"
      },
      {
        "midi": 54,
        "time": 45.473,
        "duration": 0.632,
        "velocity": 0.57,
        "hand": "left"
      },
      {
        "midi": 62,
        "time": 45.473,
        "duration": 0.632,
        "velocity": 0.5,
        "hand": "right"
      },
      {
        "midi": 52,
        "time": 46.105,
        "duration": 1.895,
        "velocity": 0.62,
        "hand": "left"
      },
      {
        "midi": 55,
        "time": 46.105,
        "duration": 1.895,
        "velocity": 0.62,
        "hand": "left"
      },
      {
        "midi": 64,
        "time": 46.105,
        "duration": 1.895,
        "velocity": 0.61,
        "hand": "right"
      }
    ]
  },
  "notes1Hand": [
    {
      "midi": 64,
      "time": 0,
      "duration": 0.616,
      "velocity": 0.49,
      "hand": "right"
    },
    {
      "midi": 67,
      "time": 0.631,
      "duration": 0.632,
      "velocity": 0.67,
      "hand": "right"
    },
    {
      "midi": 71,
      "time": 1.263,
      "duration": 0.616,
      "velocity": 0.67,
      "hand": "right"
    },
    {
      "midi": 71,
      "time": 1.894,
      "duration": 0.617,
      "velocity": 0.64,
      "hand": "right"
    },
    {
      "midi": 71,
      "time": 2.526,
      "duration": 0.632,
      "velocity": 0.61,
      "hand": "right"
    },
    {
      "midi": 69,
      "time": 3.158,
      "duration": 0.632,
      "velocity": 0.54,
      "hand": "right"
    },
    {
      "midi": 72,
      "time": 3.789,
      "duration": 0.632,
      "velocity": 0.65,
      "hand": "right"
    },
    {
      "midi": 71,
      "time": 4.421,
      "duration": 0.632,
      "velocity": 0.57,
      "hand": "right"
    },
    {
      "midi": 69,
      "time": 5.052,
      "duration": 0.632,
      "velocity": 0.56,
      "hand": "right"
    },
    {
      "midi": 67,
      "time": 5.684,
      "duration": 1.895,
      "velocity": 0.53,
      "hand": "right"
    },
    {
      "midi": 69,
      "time": 7.579,
      "duration": 0.632,
      "velocity": 0.62,
      "hand": "right"
    },
    {
      "midi": 71,
      "time": 8.21,
      "duration": 0.632,
      "velocity": 0.65,
      "hand": "right"
    },
    {
      "midi": 67,
      "time": 8.842,
      "duration": 0.632,
      "velocity": 0.53,
      "hand": "right"
    },
    {
      "midi": 64,
      "time": 9.473,
      "duration": 0.632,
      "velocity": 0.53,
      "hand": "right"
    },
    {
      "midi": 67,
      "time": 10.105,
      "duration": 0.632,
      "velocity": 0.64,
      "hand": "right"
    },
    {
      "midi": 69,
      "time": 10.737,
      "duration": 0.632,
      "velocity": 0.65,
      "hand": "right"
    },
    {
      "midi": 66,
      "time": 11.368,
      "duration": 0.632,
      "velocity": 0.54,
      "hand": "right"
    },
    {
      "midi": 64,
      "time": 12,
      "duration": 0.632,
      "velocity": 0.56,
      "hand": "right"
    },
    {
      "midi": 62,
      "time": 12.631,
      "duration": 0.632,
      "velocity": 0.57,
      "hand": "right"
    },
    {
      "midi": 64,
      "time": 13.263,
      "duration": 1.88,
      "velocity": 0.6,
      "hand": "right"
    },
    {
      "midi": 69,
      "time": 15.158,
      "duration": 0.616,
      "velocity": 0.69,
      "hand": "right"
    },
    {
      "midi": 69,
      "time": 15.789,
      "duration": 0.632,
      "velocity": 0.6,
      "hand": "right"
    },
    {
      "midi": 64,
      "time": 16.421,
      "duration": 0.616,
      "velocity": 0.54,
      "hand": "right"
    },
    {
      "midi": 64,
      "time": 17.052,
      "duration": 0.632,
      "velocity": 0.59,
      "hand": "right"
    },
    {
      "midi": 66,
      "time": 17.684,
      "duration": 0.632,
      "velocity": 0.65,
      "hand": "right"
    },
    {
      "midi": 67,
      "time": 18.316,
      "duration": 1.263,
      "velocity": 0.62,
      "hand": "right"
    },
    {
      "midi": 62,
      "time": 18.947,
      "duration": 1.263,
      "velocity": 0.54,
      "hand": "right"
    },
    {
      "midi": 66,
      "time": 19.579,
      "duration": 0.632,
      "velocity": 0.57,
      "hand": "right"
    },
    {
      "midi": 64,
      "time": 20.21,
      "duration": 0.632,
      "velocity": 0.58,
      "hand": "right"
    },
    {
      "midi": 62,
      "time": 20.842,
      "duration": 1.895,
      "velocity": 0.57,
      "hand": "right"
    },
    {
      "midi": 67,
      "time": 22.737,
      "duration": 0.632,
      "velocity": 0.66,
      "hand": "right"
    },
    {
      "midi": 69,
      "time": 23.368,
      "duration": 0.632,
      "velocity": 0.63,
      "hand": "right"
    },
    {
      "midi": 71,
      "time": 24,
      "duration": 0.616,
      "velocity": 0.65,
      "hand": "right"
    },
    {
      "midi": 71,
      "time": 24.631,
      "duration": 0.617,
      "velocity": 0.65,
      "hand": "right"
    },
    {
      "midi": 71,
      "time": 25.263,
      "duration": 0.632,
      "velocity": 0.6,
      "hand": "right"
    },
    {
      "midi": 69,
      "time": 25.894,
      "duration": 0.632,
      "velocity": 0.58,
      "hand": "right"
    },
    {
      "midi": 72,
      "time": 26.526,
      "duration": 0.632,
      "velocity": 0.63,
      "hand": "right"
    },
    {
      "midi": 71,
      "time": 27.158,
      "duration": 0.632,
      "velocity": 0.56,
      "hand": "right"
    },
    {
      "midi": 69,
      "time": 27.789,
      "duration": 0.632,
      "velocity": 0.56,
      "hand": "right"
    },
    {
      "midi": 67,
      "time": 28.421,
      "duration": 1.88,
      "velocity": 0.57,
      "hand": "right"
    },
    {
      "midi": 74,
      "time": 30.316,
      "duration": 0.616,
      "velocity": 0.69,
      "hand": "right"
    },
    {
      "midi": 74,
      "time": 30.947,
      "duration": 1.895,
      "velocity": 0.6,
      "hand": "right"
    },
    {
      "midi": 71,
      "time": 32.842,
      "duration": 0.616,
      "velocity": 0.54,
      "hand": "right"
    },
    {
      "midi": 71,
      "time": 33.473,
      "duration": 1.88,
      "velocity": 0.58,
      "hand": "right"
    },
    {
      "midi": 71,
      "time": 35.368,
      "duration": 0.632,
      "velocity": 0.54,
      "hand": "right"
    },
    {
      "midi": 69,
      "time": 36,
      "duration": 0.632,
      "velocity": 0.57,
      "hand": "right"
    },
    {
      "midi": 72,
      "time": 36.631,
      "duration": 0.632,
      "velocity": 0.61,
      "hand": "right"
    },
    {
      "midi": 71,
      "time": 37.263,
      "duration": 0.632,
      "velocity": 0.53,
      "hand": "right"
    },
    {
      "midi": 69,
      "time": 37.894,
      "duration": 0.632,
      "velocity": 0.56,
      "hand": "right"
    },
    {
      "midi": 67,
      "time": 38.526,
      "duration": 1.895,
      "velocity": 0.55,
      "hand": "right"
    },
    {
      "midi": 69,
      "time": 40.421,
      "duration": 0.632,
      "velocity": 0.63,
      "hand": "right"
    },
    {
      "midi": 71,
      "time": 41.052,
      "duration": 0.632,
      "velocity": 0.64,
      "hand": "right"
    },
    {
      "midi": 67,
      "time": 41.684,
      "duration": 0.632,
      "velocity": 0.57,
      "hand": "right"
    },
    {
      "midi": 64,
      "time": 42.316,
      "duration": 0.632,
      "velocity": 0.52,
      "hand": "right"
    },
    {
      "midi": 67,
      "time": 42.947,
      "duration": 0.632,
      "velocity": 0.65,
      "hand": "right"
    },
    {
      "midi": 69,
      "time": 43.579,
      "duration": 0.632,
      "velocity": 0.66,
      "hand": "right"
    },
    {
      "midi": 66,
      "time": 44.21,
      "duration": 0.632,
      "velocity": 0.54,
      "hand": "right"
    },
    {
      "midi": 64,
      "time": 44.842,
      "duration": 0.632,
      "velocity": 0.57,
      "hand": "right"
    },
    {
      "midi": 62,
      "time": 45.473,
      "duration": 0.632,
      "velocity": 0.5,
      "hand": "right"
    },
    {
      "midi": 64,
      "time": 46.105,
      "duration": 1.895,
      "velocity": 0.61,
      "hand": "right"
    }
  ],
  "notes2Hands": [
    {
      "midi": 52,
      "time": 0,
      "duration": 0.616,
      "velocity": 0.54,
      "hand": "left"
    },
    {
      "midi": 55,
      "time": 0,
      "duration": 0.632,
      "velocity": 0.54,
      "hand": "left"
    },
    {
      "midi": 64,
      "time": 0,
      "duration": 0.616,
      "velocity": 0.49,
      "hand": "right"
    },
    {
      "midi": 52,
      "time": 0.631,
      "duration": 0.632,
      "velocity": 0.59,
      "hand": "left"
    },
    {
      "midi": 59,
      "time": 0.631,
      "duration": 0.617,
      "velocity": 0.59,
      "hand": "left"
    },
    {
      "midi": 64,
      "time": 0.631,
      "duration": 0.632,
      "velocity": 0.67,
      "hand": "right"
    },
    {
      "midi": 67,
      "time": 0.631,
      "duration": 0.632,
      "velocity": 0.67,
      "hand": "right"
    },
    {
      "midi": 50,
      "time": 1.263,
      "duration": 0.632,
      "velocity": 0.58,
      "hand": "left"
    },
    {
      "midi": 54,
      "time": 1.263,
      "duration": 0.632,
      "velocity": 0.58,
      "hand": "left"
    },
    {
      "midi": 71,
      "time": 1.263,
      "duration": 0.616,
      "velocity": 0.67,
      "hand": "right"
    },
    {
      "midi": 48,
      "time": 1.894,
      "duration": 0.632,
      "velocity": 0.6,
      "hand": "left"
    },
    {
      "midi": 55,
      "time": 1.894,
      "duration": 0.632,
      "velocity": 0.6,
      "hand": "left"
    },
    {
      "midi": 62,
      "time": 1.894,
      "duration": 0.617,
      "velocity": 0.64,
      "hand": "right"
    },
    {
      "midi": 71,
      "time": 1.894,
      "duration": 0.617,
      "velocity": 0.64,
      "hand": "right"
    },
    {
      "midi": 43,
      "time": 2.526,
      "duration": 0.632,
      "velocity": 0.72,
      "hand": "left"
    },
    {
      "midi": 62,
      "time": 2.526,
      "duration": 0.632,
      "velocity": 0.72,
      "hand": "right"
    },
    {
      "midi": 67,
      "time": 2.526,
      "duration": 0.617,
      "velocity": 0.61,
      "hand": "right"
    },
    {
      "midi": 71,
      "time": 2.526,
      "duration": 0.632,
      "velocity": 0.61,
      "hand": "right"
    },
    {
      "midi": 48,
      "time": 3.158,
      "duration": 0.632,
      "velocity": 0.51,
      "hand": "left"
    },
    {
      "midi": 64,
      "time": 3.158,
      "duration": 1.263,
      "velocity": 0.66,
      "hand": "right"
    },
    {
      "midi": 67,
      "time": 3.158,
      "duration": 1.895,
      "velocity": 0.65,
      "hand": "right"
    },
    {
      "midi": 69,
      "time": 3.158,
      "duration": 0.632,
      "velocity": 0.54,
      "hand": "right"
    },
    {
      "midi": 45,
      "time": 3.789,
      "duration": 0.632,
      "velocity": 0.57,
      "hand": "left"
    },
    {
      "midi": 72,
      "time": 3.789,
      "duration": 0.632,
      "velocity": 0.65,
      "hand": "right"
    },
    {
      "midi": 47,
      "time": 4.421,
      "duration": 0.632,
      "velocity": 0.62,
      "hand": "left"
    },
    {
      "midi": 62,
      "time": 4.421,
      "duration": 0.632,
      "velocity": 0.6,
      "hand": "right"
    },
    {
      "midi": 71,
      "time": 4.421,
      "duration": 0.632,
      "velocity": 0.57,
      "hand": "right"
    },
    {
      "midi": 50,
      "time": 5.052,
      "duration": 0.632,
      "velocity": 0.51,
      "hand": "left"
    },
    {
      "midi": 60,
      "time": 5.052,
      "duration": 0.632,
      "velocity": 0.51,
      "hand": "right"
    },
    {
      "midi": 66,
      "time": 5.052,
      "duration": 0.632,
      "velocity": 0.56,
      "hand": "right"
    },
    {
      "midi": 69,
      "time": 5.052,
      "duration": 0.632,
      "velocity": 0.56,
      "hand": "right"
    },
    {
      "midi": 55,
      "time": 5.684,
      "duration": 1.895,
      "velocity": 0.55,
      "hand": "left"
    },
    {
      "midi": 59,
      "time": 5.684,
      "duration": 1.895,
      "velocity": 0.55,
      "hand": "left"
    },
    {
      "midi": 62,
      "time": 5.684,
      "duration": 1.88,
      "velocity": 0.53,
      "hand": "right"
    },
    {
      "midi": 67,
      "time": 5.684,
      "duration": 1.895,
      "velocity": 0.53,
      "hand": "right"
    },
    {
      "midi": 50,
      "time": 7.579,
      "duration": 0.632,
      "velocity": 0.57,
      "hand": "left"
    },
    {
      "midi": 54,
      "time": 7.579,
      "duration": 0.632,
      "velocity": 0.57,
      "hand": "left"
    },
    {
      "midi": 62,
      "time": 7.579,
      "duration": 0.616,
      "velocity": 0.62,
      "hand": "right"
    },
    {
      "midi": 69,
      "time": 7.579,
      "duration": 0.632,
      "velocity": 0.62,
      "hand": "right"
    },
    {
      "midi": 43,
      "time": 8.21,
      "duration": 0.632,
      "velocity": 0.61,
      "hand": "left"
    },
    {
      "midi": 55,
      "time": 8.21,
      "duration": 0.617,
      "velocity": 0.61,
      "hand": "left"
    },
    {
      "midi": 62,
      "time": 8.21,
      "duration": 0.617,
      "velocity": 0.65,
      "hand": "right"
    },
    {
      "midi": 71,
      "time": 8.21,
      "duration": 0.632,
      "velocity": 0.65,
      "hand": "right"
    },
    {
      "midi": 47,
      "time": 8.842,
      "duration": 0.632,
      "velocity": 0.61,
      "hand": "left"
    },
    {
      "midi": 55,
      "time": 8.842,
      "duration": 0.616,
      "velocity": 0.61,
      "hand": "left"
    },
    {
      "midi": 62,
      "time": 8.842,
      "duration": 0.632,
      "velocity": 0.53,
      "hand": "right"
    },
    {
      "midi": 67,
      "time": 8.842,
      "duration": 0.632,
      "velocity": 0.53,
      "hand": "right"
    },
    {
      "midi": 48,
      "time": 9.473,
      "duration": 0.632,
      "velocity": 0.61,
      "hand": "left"
    },
    {
      "midi": 55,
      "time": 9.473,
      "duration": 0.632,
      "velocity": 0.61,
      "hand": "left"
    },
    {
      "midi": 60,
      "time": 9.473,
      "duration": 0.632,
      "velocity": 0.53,
      "hand": "right"
    },
    {
      "midi": 64,
      "time": 9.473,
      "duration": 0.632,
      "velocity": 0.53,
      "hand": "right"
    },
    {
      "midi": 47,
      "time": 10.105,
      "duration": 0.632,
      "velocity": 0.62,
      "hand": "left"
    },
    {
      "midi": 59,
      "time": 10.105,
      "duration": 0.632,
      "velocity": 0.62,
      "hand": "left"
    },
    {
      "midi": 62,
      "time": 10.105,
      "duration": 0.632,
      "velocity": 0.64,
      "hand": "right"
    },
    {
      "midi": 67,
      "time": 10.105,
      "duration": 0.632,
      "velocity": 0.64,
      "hand": "right"
    },
    {
      "midi": 48,
      "time": 10.737,
      "duration": 0.632,
      "velocity": 0.55,
      "hand": "left"
    },
    {
      "midi": 57,
      "time": 10.737,
      "duration": 1.263,
      "velocity": 0.59,
      "hand": "left"
    },
    {
      "midi": 64,
      "time": 10.737,
      "duration": 0.632,
      "velocity": 0.65,
      "hand": "right"
    },
    {
      "midi": 69,
      "time": 10.737,
      "duration": 0.632,
      "velocity": 0.65,
      "hand": "right"
    },
    {
      "midi": 45,
      "time": 11.368,
      "duration": 0.632,
      "velocity": 0.55,
      "hand": "left"
    },
    {
      "midi": 60,
      "time": 11.368,
      "duration": 0.632,
      "velocity": 0.54,
      "hand": "right"
    },
    {
      "midi": 66,
      "time": 11.368,
      "duration": 0.632,
      "velocity": 0.54,
      "hand": "right"
    },
    {
      "midi": 47,
      "time": 12,
      "duration": 0.616,
      "velocity": 0.6,
      "hand": "left"
    },
    {
      "midi": 55,
      "time": 12,
      "duration": 0.632,
      "velocity": 0.57,
      "hand": "left"
    },
    {
      "midi": 64,
      "time": 12,
      "duration": 0.632,
      "velocity": 0.56,
      "hand": "right"
    },
    {
      "midi": 47,
      "time": 12.631,
      "duration": 0.632,
      "velocity": 0.56,
      "hand": "left"
    },
    {
      "midi": 54,
      "time": 12.631,
      "duration": 0.632,
      "velocity": 0.56,
      "hand": "left"
    },
    {
      "midi": 62,
      "time": 12.631,
      "duration": 0.632,
      "velocity": 0.57,
      "hand": "right"
    },
    {
      "midi": 52,
      "time": 13.263,
      "duration": 1.895,
      "velocity": 0.63,
      "hand": "left"
    },
    {
      "midi": 55,
      "time": 13.263,
      "duration": 1.895,
      "velocity": 0.63,
      "hand": "left"
    },
    {
      "midi": 64,
      "time": 13.263,
      "duration": 1.88,
      "velocity": 0.6,
      "hand": "right"
    },
    {
      "midi": 48,
      "time": 15.158,
      "duration": 0.316,
      "velocity": 0.54,
      "hand": "left"
    },
    {
      "midi": 57,
      "time": 15.158,
      "duration": 0.616,
      "velocity": 0.64,
      "hand": "left"
    },
    {
      "midi": 64,
      "time": 15.158,
      "duration": 0.316,
      "velocity": 0.54,
      "hand": "right"
    },
    {
      "midi": 69,
      "time": 15.158,
      "duration": 0.616,
      "velocity": 0.69,
      "hand": "right"
    },
    {
      "midi": 47,
      "time": 15.473,
      "duration": 0.316,
      "velocity": 0.56,
      "hand": "left"
    },
    {
      "midi": 62,
      "time": 15.473,
      "duration": 0.316,
      "velocity": 0.55,
      "hand": "right"
    },
    {
      "midi": 45,
      "time": 15.789,
      "duration": 0.632,
      "velocity": 0.61,
      "hand": "left"
    },
    {
      "midi": 57,
      "time": 15.789,
      "duration": 0.617,
      "velocity": 0.61,
      "hand": "left"
    },
    {
      "midi": 60,
      "time": 15.789,
      "duration": 0.617,
      "velocity": 0.6,
      "hand": "right"
    },
    {
      "midi": 69,
      "time": 15.789,
      "duration": 0.632,
      "velocity": 0.6,
      "hand": "right"
    },
    {
      "midi": 57,
      "time": 16.421,
      "duration": 0.632,
      "velocity": 0.54,
      "hand": "left"
    },
    {
      "midi": 60,
      "time": 16.421,
      "duration": 0.632,
      "velocity": 0.63,
      "hand": "right"
    },
    {
      "midi": 64,
      "time": 16.421,
      "duration": 0.616,
      "velocity": 0.54,
      "hand": "right"
    },
    {
      "midi": 55,
      "time": 17.052,
      "duration": 0.632,
      "velocity": 0.58,
      "hand": "left"
    },
    {
      "midi": 59,
      "time": 17.052,
      "duration": 0.632,
      "velocity": 0.58,
      "hand": "left"
    },
    {
      "midi": 64,
      "time": 17.052,
      "duration": 0.632,
      "velocity": 0.59,
      "hand": "right"
    },
    {
      "midi": 54,
      "time": 17.684,
      "duration": 0.632,
      "velocity": 0.57,
      "hand": "left"
    },
    {
      "midi": 57,
      "time": 17.684,
      "duration": 0.632,
      "velocity": 0.57,
      "hand": "left"
    },
    {
      "midi": 63,
      "time": 17.684,
      "duration": 0.632,
      "velocity": 0.65,
      "hand": "right"
    },
    {
      "midi": 66,
      "time": 17.684,
      "duration": 0.632,
      "velocity": 0.65,
      "hand": "right"
    },
    {
      "midi": 52,
      "time": 18.316,
      "duration": 0.632,
      "velocity": 0.63,
      "hand": "left"
    },
    {
      "midi": 55,
      "time": 18.316,
      "duration": 1.263,
      "velocity": 0.58,
      "hand": "left"
    },
    {
      "midi": 64,
      "time": 18.316,
      "duration": 0.632,
      "velocity": 0.57,
      "hand": "right"
    },
    {
      "midi": 67,
      "time": 18.316,
      "duration": 1.263,
      "velocity": 0.62,
      "hand": "right"
    },
    {
      "midi": 47,
      "time": 18.947,
      "duration": 0.632,
      "velocity": 0.59,
      "hand": "left"
    },
    {
      "midi": 62,
      "time": 18.947,
      "duration": 1.263,
      "velocity": 0.54,
      "hand": "right"
    },
    {
      "midi": 45,
      "time": 19.579,
      "duration": 0.616,
      "velocity": 0.58,
      "hand": "left"
    },
    {
      "midi": 57,
      "time": 19.579,
      "duration": 0.632,
      "velocity": 0.59,
      "hand": "left"
    },
    {
      "midi": 66,
      "time": 19.579,
      "duration": 0.632,
      "velocity": 0.57,
      "hand": "right"
    },
    {
      "midi": 45,
      "time": 20.21,
      "duration": 0.632,
      "velocity": 0.61,
      "hand": "left"
    },
    {
      "midi": 55,
      "time": 20.21,
      "duration": 0.632,
      "velocity": 0.61,
      "hand": "left"
    },
    {
      "midi": 61,
      "time": 20.21,
      "duration": 0.632,
      "velocity": 0.58,
      "hand": "right"
    },
    {
      "midi": 64,
      "time": 20.21,
      "duration": 0.632,
      "velocity": 0.58,
      "hand": "right"
    },
    {
      "midi": 50,
      "time": 20.842,
      "duration": 1.895,
      "velocity": 0.59,
      "hand": "left"
    },
    {
      "midi": 54,
      "time": 20.842,
      "duration": 1.895,
      "velocity": 0.59,
      "hand": "left"
    },
    {
      "midi": 62,
      "time": 20.842,
      "duration": 1.895,
      "velocity": 0.57,
      "hand": "right"
    },
    {
      "midi": 52,
      "time": 22.737,
      "duration": 0.632,
      "velocity": 0.62,
      "hand": "left"
    },
    {
      "midi": 55,
      "time": 22.737,
      "duration": 0.632,
      "velocity": 0.62,
      "hand": "left"
    },
    {
      "midi": 67,
      "time": 22.737,
      "duration": 0.632,
      "velocity": 0.66,
      "hand": "right"
    },
    {
      "midi": 50,
      "time": 23.368,
      "duration": 0.632,
      "velocity": 0.57,
      "hand": "left"
    },
    {
      "midi": 54,
      "time": 23.368,
      "duration": 0.617,
      "velocity": 0.57,
      "hand": "left"
    },
    {
      "midi": 62,
      "time": 23.368,
      "duration": 0.617,
      "velocity": 0.63,
      "hand": "right"
    },
    {
      "midi": 69,
      "time": 23.368,
      "duration": 0.632,
      "velocity": 0.63,
      "hand": "right"
    },
    {
      "midi": 47,
      "time": 24,
      "duration": 0.632,
      "velocity": 0.57,
      "hand": "left"
    },
    {
      "midi": 54,
      "time": 24,
      "duration": 0.632,
      "velocity": 0.57,
      "hand": "left"
    },
    {
      "midi": 62,
      "time": 24,
      "duration": 0.616,
      "velocity": 0.65,
      "hand": "right"
    },
    {
      "midi": 71,
      "time": 24,
      "duration": 0.616,
      "velocity": 0.65,
      "hand": "right"
    },
    {
      "midi": 43,
      "time": 24.631,
      "duration": 0.632,
      "velocity": 0.63,
      "hand": "left"
    },
    {
      "midi": 55,
      "time": 24.631,
      "duration": 0.632,
      "velocity": 0.63,
      "hand": "left"
    },
    {
      "midi": 62,
      "time": 24.631,
      "duration": 0.617,
      "velocity": 0.65,
      "hand": "right"
    },
    {
      "midi": 71,
      "time": 24.631,
      "duration": 0.617,
      "velocity": 0.65,
      "hand": "right"
    },
    {
      "midi": 47,
      "time": 25.263,
      "duration": 0.632,
      "velocity": 0.72,
      "hand": "left"
    },
    {
      "midi": 62,
      "time": 25.263,
      "duration": 0.632,
      "velocity": 0.72,
      "hand": "right"
    },
    {
      "midi": 67,
      "time": 25.263,
      "duration": 0.616,
      "velocity": 0.6,
      "hand": "right"
    },
    {
      "midi": 71,
      "time": 25.263,
      "duration": 0.632,
      "velocity": 0.6,
      "hand": "right"
    },
    {
      "midi": 48,
      "time": 25.894,
      "duration": 0.632,
      "velocity": 0.53,
      "hand": "left"
    },
    {
      "midi": 64,
      "time": 25.894,
      "duration": 1.263,
      "velocity": 0.65,
      "hand": "right"
    },
    {
      "midi": 67,
      "time": 25.894,
      "duration": 1.895,
      "velocity": 0.55,
      "hand": "right"
    },
    {
      "midi": 69,
      "time": 25.894,
      "duration": 0.632,
      "velocity": 0.58,
      "hand": "right"
    },
    {
      "midi": 45,
      "time": 26.526,
      "duration": 0.632,
      "velocity": 0.57,
      "hand": "left"
    },
    {
      "midi": 72,
      "time": 26.526,
      "duration": 0.632,
      "velocity": 0.63,
      "hand": "right"
    },
    {
      "midi": 47,
      "time": 27.158,
      "duration": 0.632,
      "velocity": 0.61,
      "hand": "left"
    },
    {
      "midi": 62,
      "time": 27.158,
      "duration": 0.632,
      "velocity": 0.53,
      "hand": "right"
    },
    {
      "midi": 71,
      "time": 27.158,
      "duration": 0.632,
      "velocity": 0.56,
      "hand": "right"
    },
    {
      "midi": 50,
      "time": 27.789,
      "duration": 0.632,
      "velocity": 0.54,
      "hand": "left"
    },
    {
      "midi": 60,
      "time": 27.789,
      "duration": 0.632,
      "velocity": 0.54,
      "hand": "right"
    },
    {
      "midi": 66,
      "time": 27.789,
      "duration": 0.632,
      "velocity": 0.56,
      "hand": "right"
    },
    {
      "midi": 69,
      "time": 27.789,
      "duration": 0.632,
      "velocity": 0.56,
      "hand": "right"
    },
    {
      "midi": 43,
      "time": 28.421,
      "duration": 1.895,
      "velocity": 0.57,
      "hand": "left"
    },
    {
      "midi": 59,
      "time": 28.421,
      "duration": 1.88,
      "velocity": 0.57,
      "hand": "left"
    },
    {
      "midi": 67,
      "time": 28.421,
      "duration": 1.88,
      "velocity": 0.57,
      "hand": "right"
    },
    {
      "midi": 55,
      "time": 30.316,
      "duration": 0.632,
      "velocity": 0.58,
      "hand": "left"
    },
    {
      "midi": 59,
      "time": 30.316,
      "duration": 0.632,
      "velocity": 0.58,
      "hand": "left"
    },
    {
      "midi": 67,
      "time": 30.316,
      "duration": 0.632,
      "velocity": 0.69,
      "hand": "right"
    },
    {
      "midi": 74,
      "time": 30.316,
      "duration": 0.616,
      "velocity": 0.69,
      "hand": "right"
    },
    {
      "midi": 50,
      "time": 30.947,
      "duration": 1.895,
      "velocity": 0.62,
      "hand": "left"
    },
    {
      "midi": 57,
      "time": 30.947,
      "duration": 1.895,
      "velocity": 0.62,
      "hand": "left"
    },
    {
      "midi": 66,
      "time": 30.947,
      "duration": 1.895,
      "velocity": 0.6,
      "hand": "right"
    },
    {
      "midi": 74,
      "time": 30.947,
      "duration": 1.895,
      "velocity": 0.6,
      "hand": "right"
    },
    {
      "midi": 52,
      "time": 32.842,
      "duration": 0.632,
      "velocity": 0.7,
      "hand": "left"
    },
    {
      "midi": 64,
      "time": 32.842,
      "duration": 0.632,
      "velocity": 0.7,
      "hand": "right"
    },
    {
      "midi": 67,
      "time": 32.842,
      "duration": 0.632,
      "velocity": 0.54,
      "hand": "right"
    },
    {
      "midi": 71,
      "time": 32.842,
      "duration": 0.616,
      "velocity": 0.54,
      "hand": "right"
    },
    {
      "midi": 47,
      "time": 33.473,
      "duration": 1.895,
      "velocity": 0.58,
      "hand": "left"
    },
    {
      "midi": 62,
      "time": 33.473,
      "duration": 1.88,
      "velocity": 0.58,
      "hand": "right"
    },
    {
      "midi": 66,
      "time": 33.473,
      "duration": 1.895,
      "velocity": 0.58,
      "hand": "right"
    },
    {
      "midi": 71,
      "time": 33.473,
      "duration": 1.88,
      "velocity": 0.58,
      "hand": "right"
    },
    {
      "midi": 43,
      "time": 35.368,
      "duration": 0.632,
      "velocity": 0.6,
      "hand": "left"
    },
    {
      "midi": 62,
      "time": 35.368,
      "duration": 0.632,
      "velocity": 0.6,
      "hand": "right"
    },
    {
      "midi": 67,
      "time": 35.368,
      "duration": 0.617,
      "velocity": 0.54,
      "hand": "right"
    },
    {
      "midi": 71,
      "time": 35.368,
      "duration": 0.632,
      "velocity": 0.54,
      "hand": "right"
    },
    {
      "midi": 48,
      "time": 36,
      "duration": 0.632,
      "velocity": 0.52,
      "hand": "left"
    },
    {
      "midi": 64,
      "time": 36,
      "duration": 1.263,
      "velocity": 0.64,
      "hand": "right"
    },
    {
      "midi": 67,
      "time": 36,
      "duration": 1.895,
      "velocity": 0.59,
      "hand": "right"
    },
    {
      "midi": 69,
      "time": 36,
      "duration": 0.632,
      "velocity": 0.57,
      "hand": "right"
    },
    {
      "midi": 45,
      "time": 36.631,
      "duration": 0.632,
      "velocity": 0.61,
      "hand": "left"
    },
    {
      "midi": 72,
      "time": 36.631,
      "duration": 0.632,
      "velocity": 0.61,
      "hand": "right"
    },
    {
      "midi": 47,
      "time": 37.263,
      "duration": 0.632,
      "velocity": 0.61,
      "hand": "left"
    },
    {
      "midi": 62,
      "time": 37.263,
      "duration": 0.632,
      "velocity": 0.57,
      "hand": "right"
    },
    {
      "midi": 71,
      "time": 37.263,
      "duration": 0.632,
      "velocity": 0.53,
      "hand": "right"
    },
    {
      "midi": 50,
      "time": 37.894,
      "duration": 0.632,
      "velocity": 0.58,
      "hand": "left"
    },
    {
      "midi": 60,
      "time": 37.894,
      "duration": 0.632,
      "velocity": 0.58,
      "hand": "right"
    },
    {
      "midi": 66,
      "time": 37.894,
      "duration": 0.632,
      "velocity": 0.56,
      "hand": "right"
    },
    {
      "midi": 69,
      "time": 37.894,
      "duration": 0.632,
      "velocity": 0.56,
      "hand": "right"
    },
    {
      "midi": 52,
      "time": 38.526,
      "duration": 1.895,
      "velocity": 0.57,
      "hand": "left"
    },
    {
      "midi": 59,
      "time": 38.526,
      "duration": 1.895,
      "velocity": 0.57,
      "hand": "left"
    },
    {
      "midi": 67,
      "time": 38.526,
      "duration": 1.895,
      "velocity": 0.55,
      "hand": "right"
    },
    {
      "midi": 50,
      "time": 40.421,
      "duration": 0.632,
      "velocity": 0.63,
      "hand": "left"
    },
    {
      "midi": 62,
      "time": 40.421,
      "duration": 0.616,
      "velocity": 0.63,
      "hand": "right"
    },
    {
      "midi": 66,
      "time": 40.421,
      "duration": 0.632,
      "velocity": 0.63,
      "hand": "right"
    },
    {
      "midi": 69,
      "time": 40.421,
      "duration": 0.632,
      "velocity": 0.63,
      "hand": "right"
    },
    {
      "midi": 43,
      "time": 41.052,
      "duration": 0.632,
      "velocity": 0.58,
      "hand": "left"
    },
    {
      "midi": 62,
      "time": 41.052,
      "duration": 0.617,
      "velocity": 0.58,
      "hand": "right"
    },
    {
      "midi": 67,
      "time": 41.052,
      "duration": 0.617,
      "velocity": 0.64,
      "hand": "right"
    },
    {
      "midi": 71,
      "time": 41.052,
      "duration": 0.632,
      "velocity": 0.64,
      "hand": "right"
    },
    {
      "midi": 47,
      "time": 41.684,
      "duration": 0.632,
      "velocity": 0.5,
      "hand": "left"
    },
    {
      "midi": 55,
      "time": 41.684,
      "duration": 0.617,
      "velocity": 0.5,
      "hand": "left"
    },
    {
      "midi": 62,
      "time": 41.684,
      "duration": 0.632,
      "velocity": 0.57,
      "hand": "right"
    },
    {
      "midi": 67,
      "time": 41.684,
      "duration": 0.632,
      "velocity": 0.57,
      "hand": "right"
    },
    {
      "midi": 48,
      "time": 42.316,
      "duration": 0.632,
      "velocity": 0.59,
      "hand": "left"
    },
    {
      "midi": 55,
      "time": 42.316,
      "duration": 0.632,
      "velocity": 0.59,
      "hand": "left"
    },
    {
      "midi": 60,
      "time": 42.316,
      "duration": 0.632,
      "velocity": 0.52,
      "hand": "right"
    },
    {
      "midi": 64,
      "time": 42.316,
      "duration": 0.632,
      "velocity": 0.52,
      "hand": "right"
    },
    {
      "midi": 47,
      "time": 42.947,
      "duration": 0.632,
      "velocity": 0.65,
      "hand": "left"
    },
    {
      "midi": 59,
      "time": 42.947,
      "duration": 0.632,
      "velocity": 0.65,
      "hand": "left"
    },
    {
      "midi": 62,
      "time": 42.947,
      "duration": 0.632,
      "velocity": 0.65,
      "hand": "right"
    },
    {
      "midi": 67,
      "time": 42.947,
      "duration": 0.632,
      "velocity": 0.65,
      "hand": "right"
    },
    {
      "midi": 48,
      "time": 43.579,
      "duration": 0.632,
      "velocity": 0.54,
      "hand": "left"
    },
    {
      "midi": 57,
      "time": 43.579,
      "duration": 1.263,
      "velocity": 0.6,
      "hand": "left"
    },
    {
      "midi": 64,
      "time": 43.579,
      "duration": 0.632,
      "velocity": 0.66,
      "hand": "right"
    },
    {
      "midi": 69,
      "time": 43.579,
      "duration": 0.632,
      "velocity": 0.66,
      "hand": "right"
    },
    {
      "midi": 45,
      "time": 44.21,
      "duration": 0.632,
      "velocity": 0.56,
      "hand": "left"
    },
    {
      "midi": 60,
      "time": 44.21,
      "duration": 0.632,
      "velocity": 0.54,
      "hand": "right"
    },
    {
      "midi": 66,
      "time": 44.21,
      "duration": 0.632,
      "velocity": 0.54,
      "hand": "right"
    },
    {
      "midi": 47,
      "time": 44.842,
      "duration": 0.616,
      "velocity": 0.6,
      "hand": "left"
    },
    {
      "midi": 55,
      "time": 44.842,
      "duration": 0.632,
      "velocity": 0.57,
      "hand": "left"
    },
    {
      "midi": 64,
      "time": 44.842,
      "duration": 0.632,
      "velocity": 0.57,
      "hand": "right"
    },
    {
      "midi": 47,
      "time": 45.473,
      "duration": 0.632,
      "velocity": 0.57,
      "hand": "left"
    },
    {
      "midi": 54,
      "time": 45.473,
      "duration": 0.632,
      "velocity": 0.57,
      "hand": "left"
    },
    {
      "midi": 62,
      "time": 45.473,
      "duration": 0.632,
      "velocity": 0.5,
      "hand": "right"
    },
    {
      "midi": 52,
      "time": 46.105,
      "duration": 1.895,
      "velocity": 0.62,
      "hand": "left"
    },
    {
      "midi": 55,
      "time": 46.105,
      "duration": 1.895,
      "velocity": 0.62,
      "hand": "left"
    },
    {
      "midi": 64,
      "time": 46.105,
      "duration": 1.895,
      "velocity": 0.61,
      "hand": "right"
    }
  ]
}
