{
  "id": "o_sapo_no_lava_o_pé1",
  "title": "O_sapo_no_lava_o_pé1",
  "artist": "MIDI Source",
  "difficulty": "Médio",
  "bpm": 55,
  "duration": 57,
  "category": "Para Iniciantes",
  "isPremium": true,
  "coverUrl": "/images/covers/placeholder.png",
  "notes": [
    {
      "midi": 69,
      "time": 0,
      "duration": 0.516,
      "velocity": 0.63,
      "hand": "right"
    },
    {
      "midi": 74,
      "time": 0.545,
      "duration": 0.257,
      "velocity": 0.63,
      "hand": "right"
    },
    {
      "midi": 74,
      "time": 0.818,
      "duration": 0.516,
      "velocity": 0.63,
      "hand": "right"
    },
    {
      "midi": 69,
      "time": 1.364,
      "duration": 0.257,
      "velocity": 0.63,
      "hand": "right"
    },
    {
      "midi": 71,
      "time": 1.636,
      "duration": 0.516,
      "velocity": 0.63,
      "hand": "right"
    },
    {
      "midi": 69,
      "time": 2.182,
      "duration": 0.516,
      "velocity": 0.63,
      "hand": "right"
    },
    {
      "midi": 66,
      "time": 2.727,
      "duration": 1.034,
      "velocity": 0.63,
      "hand": "right"
    },
    {
      "midi": 69,
      "time": 4.364,
      "duration": 0.516,
      "velocity": 0.63,
      "hand": "right"
    },
    {
      "midi": 74,
      "time": 4.909,
      "duration": 0.257,
      "velocity": 0.63,
      "hand": "right"
    },
    {
      "midi": 74,
      "time": 5.182,
      "duration": 0.516,
      "velocity": 0.63,
      "hand": "right"
    },
    {
      "midi": 69,
      "time": 5.727,
      "duration": 0.257,
      "velocity": 0.63,
      "hand": "right"
    },
    {
      "midi": 71,
      "time": 6,
      "duration": 0.516,
      "velocity": 0.63,
      "hand": "right"
    },
    {
      "midi": 69,
      "time": 6.545,
      "duration": 0.516,
      "velocity": 0.63,
      "hand": "right"
    },
    {
      "midi": 67,
      "time": 7.091,
      "duration": 1.034,
      "velocity": 0.63,
      "hand": "right"
    },
    {
      "midi": 67,
      "time": 8.727,
      "duration": 0.257,
      "velocity": 0.63,
      "hand": "right"
    },
    {
      "midi": 67,
      "time": 9,
      "duration": 0.257,
      "velocity": 0.63,
      "hand": "right"
    },
    {
      "midi": 73,
      "time": 9.273,
      "duration": 0.257,
      "velocity": 0.63,
      "hand": "right"
    },
    {
      "midi": 73,
      "time": 9.545,
      "duration": 0.516,
      "velocity": 0.63,
      "hand": "right"
    },
    {
      "midi": 69,
      "time": 10.091,
      "duration": 0.257,
      "velocity": 0.63,
      "hand": "right"
    },
    {
      "midi": 71,
      "time": 10.364,
      "duration": 0.516,
      "velocity": 0.63,
      "hand": "right"
    },
    {
      "midi": 69,
      "time": 10.909,
      "duration": 0.516,
      "velocity": 0.63,
      "hand": "right"
    },
    {
      "midi": 73,
      "time": 11.455,
      "duration": 0.257,
      "velocity": 0.63,
      "hand": "right"
    },
    {
      "midi": 73,
      "time": 11.727,
      "duration": 0.516,
      "velocity": 0.63,
      "hand": "right"
    },
    {
      "midi": 69,
      "time": 12.273,
      "duration": 0.257,
      "velocity": 0.63,
      "hand": "right"
    },
    {
      "midi": 71,
      "time": 12.545,
      "duration": 0.516,
      "velocity": 0.63,
      "hand": "right"
    },
    {
      "midi": 69,
      "time": 13.091,
      "duration": 0.516,
      "velocity": 0.63,
      "hand": "right"
    },
    {
      "midi": 73,
      "time": 13.636,
      "duration": 0.516,
      "velocity": 0.63,
      "hand": "right"
    },
    {
      "midi": 69,
      "time": 14.182,
      "duration": 0.516,
      "velocity": 0.63,
      "hand": "right"
    },
    {
      "midi": 71,
      "time": 14.727,
      "duration": 0.516,
      "velocity": 0.63,
      "hand": "right"
    },
    {
      "midi": 73,
      "time": 15.273,
      "duration": 0.516,
      "velocity": 0.63,
      "hand": "right"
    },
    {
      "midi": 74,
      "time": 15.818,
      "duration": 0.516,
      "velocity": 0.63,
      "hand": "right"
    },
    {
      "midi": 69,
      "time": 16.364,
      "duration": 0.516,
      "velocity": 0.63,
      "hand": "right"
    },
    {
      "midi": 76,
      "time": 16.909,
      "duration": 0.516,
      "velocity": 0.63,
      "hand": "right"
    },
    {
      "midi": 73,
      "time": 17.455,
      "duration": 0.516,
      "velocity": 0.63,
      "hand": "right"
    },
    {
      "midi": 74,
      "time": 18,
      "duration": 1.034,
      "velocity": 0.63,
      "hand": "right"
    },
    {
      "midi": 69,
      "time": 19.636,
      "duration": 0.516,
      "velocity": 0.63,
      "hand": "right"
    },
    {
      "midi": 74,
      "time": 20.182,
      "duration": 0.257,
      "velocity": 0.63,
      "hand": "right"
    },
    {
      "midi": 74,
      "time": 20.455,
      "duration": 0.516,
      "velocity": 0.63,
      "hand": "right"
    },
    {
      "midi": 69,
      "time": 21,
      "duration": 0.257,
      "velocity": 0.63,
      "hand": "right"
    },
    {
      "midi": 71,
      "time": 21.273,
      "duration": 0.516,
      "velocity": 0.63,
      "hand": "right"
    },
    {
      "midi": 69,
      "time": 21.818,
      "duration": 0.516,
      "velocity": 0.63,
      "hand": "right"
    },
    {
      "midi": 66,
      "time": 22.364,
      "duration": 1.034,
      "velocity": 0.63,
      "hand": "right"
    },
    {
      "midi": 69,
      "time": 24,
      "duration": 0.516,
      "velocity": 0.63,
      "hand": "right"
    },
    {
      "midi": 74,
      "time": 24.545,
      "duration": 0.257,
      "velocity": 0.63,
      "hand": "right"
    },
    {
      "midi": 74,
      "time": 24.818,
      "duration": 0.516,
      "velocity": 0.63,
      "hand": "right"
    },
    {
      "midi": 69,
      "time": 25.364,
      "duration": 0.257,
      "velocity": 0.63,
      "hand": "right"
    },
    {
      "midi": 71,
      "time": 25.636,
      "duration": 0.516,
      "velocity": 0.63,
      "hand": "right"
    },
    {
      "midi": 69,
      "time": 26.182,
      "duration": 0.516,
      "velocity": 0.63,
      "hand": "right"
    },
    {
      "midi": 67,
      "time": 26.727,
      "duration": 1.034,
      "velocity": 0.63,
      "hand": "right"
    },
    {
      "midi": 67,
      "time": 28.364,
      "duration": 0.257,
      "velocity": 0.63,
      "hand": "right"
    },
    {
      "midi": 67,
      "time": 28.636,
      "duration": 0.257,
      "velocity": 0.63,
      "hand": "right"
    },
    {
      "midi": 73,
      "time": 28.909,
      "duration": 0.257,
      "velocity": 0.63,
      "hand": "right"
    },
    {
      "midi": 73,
      "time": 29.182,
      "duration": 0.516,
      "velocity": 0.63,
      "hand": "right"
    },
    {
      "midi": 69,
      "time": 29.727,
      "duration": 0.257,
      "velocity": 0.63,
      "hand": "right"
    },
    {
      "midi": 71,
      "time": 30,
      "duration": 0.516,
      "velocity": 0.63,
      "hand": "right"
    },
    {
      "midi": 69,
      "time": 30.545,
      "duration": 0.516,
      "velocity": 0.63,
      "hand": "right"
    },
    {
      "midi": 73,
      "time": 31.091,
      "duration": 0.257,
      "velocity": 0.63,
      "hand": "right"
    },
    {
      "midi": 73,
      "time": 31.364,
      "duration": 0.516,
      "velocity": 0.63,
      "hand": "right"
    },
    {
      "midi": 69,
      "time": 31.909,
      "duration": 0.257,
      "velocity": 0.63,
      "hand": "right"
    },
    {
      "midi": 71,
      "time": 32.182,
      "duration": 0.516,
      "velocity": 0.63,
      "hand": "right"
    },
    {
      "midi": 69,
      "time": 32.727,
      "duration": 0.516,
      "velocity": 0.63,
      "hand": "right"
    },
    {
      "midi": 73,
      "time": 33.273,
      "duration": 0.516,
      "velocity": 0.63,
      "hand": "right"
    },
    {
      "midi": 69,
      "time": 33.818,
      "duration": 0.516,
      "velocity": 0.63,
      "hand": "right"
    },
    {
      "midi": 71,
      "time": 34.364,
      "duration": 0.516,
      "velocity": 0.63,
      "hand": "right"
    },
    {
      "midi": 73,
      "time": 34.909,
      "duration": 0.516,
      "velocity": 0.63,
      "hand": "right"
    },
    {
      "midi": 74,
      "time": 35.455,
      "duration": 0.516,
      "velocity": 0.63,
      "hand": "right"
    },
    {
      "midi": 69,
      "time": 36,
      "duration": 0.516,
      "velocity": 0.63,
      "hand": "right"
    },
    {
      "midi": 76,
      "time": 36.545,
      "duration": 0.516,
      "velocity": 0.63,
      "hand": "right"
    },
    {
      "midi": 73,
      "time": 37.091,
      "duration": 0.516,
      "velocity": 0.63,
      "hand": "right"
    },
    {
      "midi": 74,
      "time": 37.636,
      "duration": 2.07,
      "velocity": 0.63,
      "hand": "right"
    },
    {
      "midi": 74,
      "time": 39.818,
      "duration": 0.257,
      "velocity": 0.63,
      "hand": "right"
    },
    {
      "midi": 74,
      "time": 40.091,
      "duration": 0.516,
      "velocity": 0.63,
      "hand": "right"
    },
    {
      "midi": 69,
      "time": 40.636,
      "duration": 0.257,
      "velocity": 0.63,
      "hand": "right"
    },
    {
      "midi": 71,
      "time": 40.909,
      "duration": 0.516,
      "velocity": 0.63,
      "hand": "right"
    },
    {
      "midi": 69,
      "time": 41.455,
      "duration": 0.516,
      "velocity": 0.63,
      "hand": "right"
    },
    {
      "midi": 66,
      "time": 42,
      "duration": 1.034,
      "velocity": 0.63,
      "hand": "right"
    },
    {
      "midi": 69,
      "time": 43.636,
      "duration": 0.516,
      "velocity": 0.63,
      "hand": "right"
    },
    {
      "midi": 74,
      "time": 44.182,
      "duration": 0.257,
      "velocity": 0.63,
      "hand": "right"
    },
    {
      "midi": 74,
      "time": 44.455,
      "duration": 0.516,
      "velocity": 0.63,
      "hand": "right"
    },
    {
      "midi": 69,
      "time": 45,
      "duration": 0.257,
      "velocity": 0.63,
      "hand": "right"
    },
    {
      "midi": 71,
      "time": 45.273,
      "duration": 0.516,
      "velocity": 0.63,
      "hand": "right"
    },
    {
      "midi": 69,
      "time": 45.818,
      "duration": 0.516,
      "velocity": 0.63,
      "hand": "right"
    },
    {
      "midi": 67,
      "time": 46.364,
      "duration": 1.034,
      "velocity": 0.63,
      "hand": "right"
    },
    {
      "midi": 67,
      "time": 48,
      "duration": 0.257,
      "velocity": 0.63,
      "hand": "right"
    },
    {
      "midi": 67,
      "time": 48.273,
      "duration": 0.257,
      "velocity": 0.63,
      "hand": "right"
    },
    {
      "midi": 73,
      "time": 48.545,
      "duration": 0.257,
      "velocity": 0.63,
      "hand": "right"
    },
    {
      "midi": 73,
      "time": 48.818,
      "duration": 0.516,
      "velocity": 0.63,
      "hand": "right"
    },
    {
      "midi": 69,
      "time": 49.364,
      "duration": 0.257,
      "velocity": 0.63,
      "hand": "right"
    },
    {
      "midi": 71,
      "time": 49.636,
      "duration": 0.516,
      "velocity": 0.63,
      "hand": "right"
    },
    {
      "midi": 69,
      "time": 50.182,
      "duration": 0.516,
      "velocity": 0.63,
      "hand": "right"
    },
    {
      "midi": 73,
      "time": 50.727,
      "duration": 0.257,
      "velocity": 0.63,
      "hand": "right"
    },
    {
      "midi": 73,
      "time": 51,
      "duration": 0.516,
      "velocity": 0.63,
      "hand": "right"
    },
    {
      "midi": 69,
      "time": 51.545,
      "duration": 0.257,
      "velocity": 0.63,
      "hand": "right"
    },
    {
      "midi": 71,
      "time": 51.818,
      "duration": 0.516,
      "velocity": 0.63,
      "hand": "right"
    },
    {
      "midi": 69,
      "time": 52.364,
      "duration": 0.516,
      "velocity": 0.63,
      "hand": "right"
    },
    {
      "midi": 73,
      "time": 52.909,
      "duration": 0.516,
      "velocity": 0.63,
      "hand": "right"
    },
    {
      "midi": 69,
      "time": 53.455,
      "duration": 0.516,
      "velocity": 0.63,
      "hand": "right"
    },
    {
      "midi": 71,
      "time": 54,
      "duration": 0.516,
      "velocity": 0.63,
      "hand": "right"
    },
    {
      "midi": 73,
      "time": 54.545,
      "duration": 0.516,
      "velocity": 0.63,
      "hand": "right"
    },
    {
      "midi": 74,
      "time": 55.091,
      "duration": 0.516,
      "velocity": 0.63,
      "hand": "right"
    },
    {
      "midi": 69,
      "time": 55.636,
      "duration": 0.516,
      "velocity": 0.63,
      "hand": "right"
    },
    {
      "midi": 76,
      "time": 56.182,
      "duration": 0.516,
      "velocity": 0.63,
      "hand": "right"
    },
    {
      "midi": 73,
      "time": 56.727,
      "duration": 0.516,
      "velocity": 0.63,
      "hand": "right"
    }
  ]
}