{
  "id": "oh-que-belas-laranjas",
  "title": "Oh! Que Belas Laranjas",
  "artist": "Tradicional",
  "difficulty": "Fácil",
  "bpm": 80,
  "duration": 24,
  "category": "Infantis",
  "isPremium": false,
  "coverUrl": "/images/covers/placeholder.png",
  "notes": [
    {
      "midi": 44,
      "time": 0,
      "duration": 0.375,
      "velocity": 0.79,
      "hand": "left"
    },
    {
      "midi": 51,
      "time": 0,
      "duration": 0.375,
      "velocity": 0.79,
      "hand": "left"
    },
    {
      "midi": 56,
      "time": 0,
      "duration": 0.375,
      "velocity": 0.79,
      "hand": "left"
    },
    {
      "midi": 68,
      "time": 0,
      "duration": 0.375,
      "velocity": 1,
      "hand": "right"
    },
    {
      "midi": 80,
      "time": 0,
      "duration": 0.375,
      "velocity": 0.55,
      "hand": "right"
    },
    {
      "midi": 48,
      "time": 0.188,
      "duration": 0.188,
      "velocity": 0.94,
      "hand": "left"
    },
    {
      "midi": 48,
      "time": 0.375,
      "duration": 0.188,
      "velocity": 0.94,
      "hand": "left"
    },
    {
      "midi": 68,
      "time": 0.375,
      "duration": 0.375,
      "velocity": 1,
      "hand": "right"
    },
    {
      "midi": 80,
      "time": 0.375,
      "duration": 0.375,
      "velocity": 0.55,
      "hand": "right"
    },
    {
      "midi": 44,
      "time": 0.563,
      "duration": 0.375,
      "velocity": 0.79,
      "hand": "left"
    },
    {
      "midi": 51,
      "time": 0.563,
      "duration": 0.375,
      "velocity": 0.79,
      "hand": "left"
    },
    {
      "midi": 56,
      "time": 0.563,
      "duration": 0.375,
      "velocity": 0.79,
      "hand": "left"
    },
    {
      "midi": 48,
      "time": 0.75,
      "duration": 0.188,
      "velocity": 0.94,
      "hand": "left"
    },
    {
      "midi": 68,
      "time": 0.75,
      "duration": 0.188,
      "velocity": 1,
      "hand": "right"
    },
    {
      "midi": 80,
      "time": 0.75,
      "duration": 0.188,
      "velocity": 0.55,
      "hand": "right"
    },
    {
      "midi": 48,
      "time": 0.938,
      "duration": 0.188,
      "velocity": 0.94,
      "hand": "left"
    },
    {
      "midi": 68,
      "time": 0.938,
      "duration": 0.375,
      "velocity": 1,
      "hand": "right"
    },
    {
      "midi": 80,
      "time": 0.938,
      "duration": 0.375,
      "velocity": 0.55,
      "hand": "right"
    },
    {
      "midi": 44,
      "time": 1.125,
      "duration": 0.375,
      "velocity": 0.79,
      "hand": "left"
    },
    {
      "midi": 51,
      "time": 1.125,
      "duration": 0.375,
      "velocity": 0.79,
      "hand": "left"
    },
    {
      "midi": 56,
      "time": 1.125,
      "duration": 0.375,
      "velocity": 0.79,
      "hand": "left"
    },
    {
      "midi": 48,
      "time": 1.313,
      "duration": 0.188,
      "velocity": 0.94,
      "hand": "left"
    },
    {
      "midi": 72,
      "time": 1.313,
      "duration": 0.188,
      "velocity": 1,
      "hand": "right"
    },
    {
      "midi": 84,
      "time": 1.313,
      "duration": 0.188,
      "velocity": 0.55,
      "hand": "right"
    },
    {
      "midi": 39,
      "time": 1.5,
      "duration": 0.375,
      "velocity": 0.79,
      "hand": "left"
    },
    {
      "midi": 51,
      "time": 1.5,
      "duration": 0.375,
      "velocity": 0.79,
      "hand": "left"
    },
    {
      "midi": 55,
      "time": 1.5,
      "duration": 0.375,
      "velocity": 0.79,
      "hand": "left"
    },
    {
      "midi": 70,
      "time": 1.5,
      "duration": 0.188,
      "velocity": 1,
      "hand": "right"
    },
    {
      "midi": 82,
      "time": 1.5,
      "duration": 0.188,
      "velocity": 0.55,
      "hand": "right"
    },
    {
      "midi": 46,
      "time": 1.688,
      "duration": 0.188,
      "velocity": 0.94,
      "hand": "left"
    },
    {
      "midi": 70,
      "time": 1.688,
      "duration": 0.375,
      "velocity": 1,
      "hand": "right"
    },
    {
      "midi": 82,
      "time": 1.688,
      "duration": 0.375,
      "velocity": 0.55,
      "hand": "right"
    },
    {
      "midi": 46,
      "time": 1.875,
      "duration": 0.188,
      "velocity": 0.94,
      "hand": "left"
    },
    {
      "midi": 39,
      "time": 2.063,
      "duration": 0.375,
      "velocity": 0.79,
      "hand": "left"
    },
    {
      "midi": 51,
      "time": 2.063,
      "duration": 0.375,
      "velocity": 0.79,
      "hand": "left"
    },
    {
      "midi": 55,
      "time": 2.063,
      "duration": 0.375,
      "velocity": 0.79,
      "hand": "left"
    },
    {
      "midi": 67,
      "time": 2.063,
      "duration": 0.188,
      "velocity": 1,
      "hand": "right"
    },
    {
      "midi": 79,
      "time": 2.063,
      "duration": 0.188,
      "velocity": 0.55,
      "hand": "right"
    },
    {
      "midi": 46,
      "time": 2.25,
      "duration": 0.188,
      "velocity": 0.94,
      "hand": "left"
    },
    {
      "midi": 63,
      "time": 2.25,
      "duration": 0.375,
      "velocity": 1,
      "hand": "right"
    },
    {
      "midi": 75,
      "time": 2.25,
      "duration": 0.375,
      "velocity": 0.55,
      "hand": "right"
    },
    {
      "midi": 46,
      "time": 2.438,
      "duration": 0.188,
      "velocity": 0.94,
      "hand": "left"
    },
    {
      "midi": 39,
      "time": 2.625,
      "duration": 0.375,
      "velocity": 0.79,
      "hand": "left"
    },
    {
      "midi": 51,
      "time": 2.625,
      "duration": 0.375,
      "velocity": 0.79,
      "hand": "left"
    },
    {
      "midi": 55,
      "time": 2.625,
      "duration": 0.375,
      "velocity": 0.79,
      "hand": "left"
    },
    {
      "midi": 63,
      "time": 2.625,
      "duration": 0.375,
      "velocity": 1,
      "hand": "right"
    },
    {
      "midi": 75,
      "time": 2.625,
      "duration": 0.375,
      "velocity": 0.55,
      "hand": "right"
    },
    {
      "midi": 46,
      "time": 2.813,
      "duration": 0.188,
      "velocity": 0.94,
      "hand": "left"
    },
    {
      "midi": 39,
      "time": 3,
      "duration": 0.375,
      "velocity": 0.79,
      "hand": "left"
    },
    {
      "midi": 51,
      "time": 3,
      "duration": 0.375,
      "velocity": 0.79,
      "hand": "left"
    },
    {
      "midi": 55,
      "time": 3,
      "duration": 0.375,
      "velocity": 0.79,
      "hand": "left"
    },
    {
      "midi": 70,
      "time": 3,
      "duration": 0.375,
      "velocity": 1,
      "hand": "right"
    },
    {
      "midi": 82,
      "time": 3,
      "duration": 0.375,
      "velocity": 0.55,
      "hand": "right"
    },
    {
      "midi": 49,
      "time": 3.188,
      "duration": 0.188,
      "velocity": 0.94,
      "hand": "left"
    },
    {
      "midi": 49,
      "time": 3.375,
      "duration": 0.188,
      "velocity": 0.94,
      "hand": "left"
    },
    {
      "midi": 70,
      "time": 3.375,
      "duration": 0.375,
      "velocity": 1,
      "hand": "right"
    },
    {
      "midi": 82,
      "time": 3.375,
      "duration": 0.375,
      "velocity": 0.55,
      "hand": "right"
    },
    {
      "midi": 39,
      "time": 3.563,
      "duration": 0.375,
      "velocity": 0.79,
      "hand": "left"
    },
    {
      "midi": 51,
      "time": 3.563,
      "duration": 0.375,
      "velocity": 0.79,
      "hand": "left"
    },
    {
      "midi": 55,
      "time": 3.563,
      "duration": 0.375,
      "velocity": 0.79,
      "hand": "left"
    },
    {
      "midi": 49,
      "time": 3.75,
      "duration": 0.188,
      "velocity": 0.94,
      "hand": "left"
    },
    {
      "midi": 75,
      "time": 3.75,
      "duration": 0.375,
      "velocity": 1,
      "hand": "right"
    },
    {
      "midi": 87,
      "time": 3.75,
      "duration": 0.375,
      "velocity": 0.55,
      "hand": "right"
    },
    {
      "midi": 49,
      "time": 3.938,
      "duration": 0.188,
      "velocity": 0.94,
      "hand": "left"
    },
    {
      "midi": 39,
      "time": 4.125,
      "duration": 0.375,
      "velocity": 0.79,
      "hand": "left"
    },
    {
      "midi": 51,
      "time": 4.125,
      "duration": 0.375,
      "velocity": 0.79,
      "hand": "left"
    },
    {
      "midi": 55,
      "time": 4.125,
      "duration": 0.375,
      "velocity": 0.79,
      "hand": "left"
    },
    {
      "midi": 75,
      "time": 4.125,
      "duration": 0.375,
      "velocity": 1,
      "hand": "right"
    },
    {
      "midi": 87,
      "time": 4.125,
      "duration": 0.375,
      "velocity": 0.55,
      "hand": "right"
    },
    {
      "midi": 49,
      "time": 4.313,
      "duration": 0.188,
      "velocity": 0.94,
      "hand": "left"
    },
    {
      "midi": 44,
      "time": 4.5,
      "duration": 0.375,
      "velocity": 0.79,
      "hand": "left"
    },
    {
      "midi": 51,
      "time": 4.5,
      "duration": 0.375,
      "velocity": 0.79,
      "hand": "left"
    },
    {
      "midi": 56,
      "time": 4.5,
      "duration": 0.375,
      "velocity": 0.79,
      "hand": "left"
    },
    {
      "midi": 72,
      "time": 4.5,
      "duration": 0.563,
      "velocity": 1,
      "hand": "right"
    },
    {
      "midi": 84,
      "time": 4.5,
      "duration": 0.563,
      "velocity": 0.55,
      "hand": "right"
    },
    {
      "midi": 48,
      "time": 4.688,
      "duration": 0.188,
      "velocity": 0.94,
      "hand": "left"
    },
    {
      "midi": 48,
      "time": 4.875,
      "duration": 0.188,
      "velocity": 0.94,
      "hand": "left"
    },
    {
      "midi": 44,
      "time": 5.063,
      "duration": 0.375,
      "velocity": 0.79,
      "hand": "left"
    },
    {
      "midi": 51,
      "time": 5.063,
      "duration": 0.375,
      "velocity": 0.79,
      "hand": "left"
    },
    {
      "midi": 53,
      "time": 5.063,
      "duration": 0.188,
      "velocity": 0.94,
      "hand": "left"
    },
    {
      "midi": 56,
      "time": 5.063,
      "duration": 0.375,
      "velocity": 0.79,
      "hand": "left"
    },
    {
      "midi": 51,
      "time": 5.25,
      "duration": 0.188,
      "velocity": 0.94,
      "hand": "left"
    },
    {
      "midi": 68,
      "time": 5.25,
      "duration": 0.563,
      "velocity": 1,
      "hand": "right"
    },
    {
      "midi": 80,
      "time": 5.25,
      "duration": 0.563,
      "velocity": 0.55,
      "hand": "right"
    },
    {
      "midi": 49,
      "time": 5.438,
      "duration": 0.188,
      "velocity": 0.94,
      "hand": "left"
    },
    {
      "midi": 44,
      "time": 5.625,
      "duration": 0.375,
      "velocity": 0.79,
      "hand": "left"
    },
    {
      "midi": 48,
      "time": 5.625,
      "duration": 0.188,
      "velocity": 0.94,
      "hand": "left"
    },
    {
      "midi": 51,
      "time": 5.625,
      "duration": 0.375,
      "velocity": 0.79,
      "hand": "left"
    },
    {
      "midi": 56,
      "time": 5.625,
      "duration": 0.375,
      "velocity": 0.79,
      "hand": "left"
    },
    {
      "midi": 46,
      "time": 5.813,
      "duration": 0.188,
      "velocity": 0.94,
      "hand": "left"
    },
    {
      "midi": 44,
      "time": 6,
      "duration": 0.375,
      "velocity": 0.79,
      "hand": "left"
    },
    {
      "midi": 51,
      "time": 6,
      "duration": 0.375,
      "velocity": 0.79,
      "hand": "left"
    },
    {
      "midi": 56,
      "time": 6,
      "duration": 0.375,
      "velocity": 0.79,
      "hand": "left"
    },
    {
      "midi": 68,
      "time": 6,
      "duration": 0.375,
      "velocity": 1,
      "hand": "right"
    },
    {
      "midi": 80,
      "time": 6,
      "duration": 0.375,
      "velocity": 0.55,
      "hand": "right"
    },
    {
      "midi": 48,
      "time": 6.188,
      "duration": 0.188,
      "velocity": 0.94,
      "hand": "left"
    },
    {
      "midi": 48,
      "time": 6.375,
      "duration": 0.188,
      "velocity": 0.94,
      "hand": "left"
    },
    {
      "midi": 68,
      "time": 6.375,
      "duration": 0.375,
      "velocity": 1,
      "hand": "right"
    },
    {
      "midi": 80,
      "time": 6.375,
      "duration": 0.375,
      "velocity": 0.55,
      "hand": "right"
    },
    {
      "midi": 44,
      "time": 6.563,
      "duration": 0.375,
      "velocity": 0.79,
      "hand": "left"
    },
    {
      "midi": 51,
      "time": 6.563,
      "duration": 0.375,
      "velocity": 0.79,
      "hand": "left"
    },
    {
      "midi": 56,
      "time": 6.563,
      "duration": 0.375,
      "velocity": 0.79,
      "hand": "left"
    },
    {
      "midi": 48,
      "time": 6.75,
      "duration": 0.188,
      "velocity": 0.94,
      "hand": "left"
    },
    {
      "midi": 68,
      "time": 6.75,
      "duration": 0.188,
      "velocity": 1,
      "hand": "right"
    },
    {
      "midi": 80,
      "time": 6.75,
      "duration": 0.188,
      "velocity": 0.55,
      "hand": "right"
    },
    {
      "midi": 48,
      "time": 6.938,
      "duration": 0.188,
      "velocity": 0.94,
      "hand": "left"
    },
    {
      "midi": 68,
      "time": 6.938,
      "duration": 0.375,
      "velocity": 1,
      "hand": "right"
    },
    {
      "midi": 80,
      "time": 6.938,
      "duration": 0.375,
      "velocity": 0.55,
      "hand": "right"
    },
    {
      "midi": 44,
      "time": 7.125,
      "duration": 0.375,
      "velocity": 0.79,
      "hand": "left"
    },
    {
      "midi": 51,
      "time": 7.125,
      "duration": 0.375,
      "velocity": 0.79,
      "hand": "left"
    },
    {
      "midi": 56,
      "time": 7.125,
      "duration": 0.375,
      "velocity": 0.79,
      "hand": "left"
    },
    {
      "midi": 48,
      "time": 7.313,
      "duration": 0.188,
      "velocity": 0.94,
      "hand": "left"
    },
    {
      "midi": 72,
      "time": 7.313,
      "duration": 0.188,
      "velocity": 1,
      "hand": "right"
    },
    {
      "midi": 84,
      "time": 7.313,
      "duration": 0.188,
      "velocity": 0.55,
      "hand": "right"
    },
    {
      "midi": 39,
      "time": 7.5,
      "duration": 0.375,
      "velocity": 0.79,
      "hand": "left"
    },
    {
      "midi": 51,
      "time": 7.5,
      "duration": 0.375,
      "velocity": 0.79,
      "hand": "left"
    },
    {
      "midi": 55,
      "time": 7.5,
      "duration": 0.375,
      "velocity": 0.79,
      "hand": "left"
    },
    {
      "midi": 70,
      "time": 7.5,
      "duration": 0.188,
      "velocity": 1,
      "hand": "right"
    },
    {
      "midi": 82,
      "time": 7.5,
      "duration": 0.188,
      "velocity": 0.55,
      "hand": "right"
    },
    {
      "midi": 46,
      "time": 7.688,
      "duration": 0.188,
      "velocity": 0.94,
      "hand": "left"
    },
    {
      "midi": 70,
      "time": 7.688,
      "duration": 0.375,
      "velocity": 1,
      "hand": "right"
    },
    {
      "midi": 82,
      "time": 7.688,
      "duration": 0.375,
      "velocity": 0.55,
      "hand": "right"
    },
    {
      "midi": 46,
      "time": 7.875,
      "duration": 0.188,
      "velocity": 0.94,
      "hand": "left"
    },
    {
      "midi": 39,
      "time": 8.063,
      "duration": 0.375,
      "velocity": 0.79,
      "hand": "left"
    },
    {
      "midi": 51,
      "time": 8.063,
      "duration": 0.375,
      "velocity": 0.79,
      "hand": "left"
    },
    {
      "midi": 55,
      "time": 8.063,
      "duration": 0.375,
      "velocity": 0.79,
      "hand": "left"
    },
    {
      "midi": 67,
      "time": 8.063,
      "duration": 0.188,
      "velocity": 1,
      "hand": "right"
    },
    {
      "midi": 79,
      "time": 8.063,
      "duration": 0.188,
      "velocity": 0.55,
      "hand": "right"
    },
    {
      "midi": 46,
      "time": 8.25,
      "duration": 0.188,
      "velocity": 0.94,
      "hand": "left"
    },
    {
      "midi": 63,
      "time": 8.25,
      "duration": 0.375,
      "velocity": 1,
      "hand": "right"
    },
    {
      "midi": 75,
      "time": 8.25,
      "duration": 0.375,
      "velocity": 0.55,
      "hand": "right"
    },
    {
      "midi": 46,
      "time": 8.438,
      "duration": 0.188,
      "velocity": 0.94,
      "hand": "left"
    },
    {
      "midi": 39,
      "time": 8.625,
      "duration": 0.375,
      "velocity": 0.79,
      "hand": "left"
    },
    {
      "midi": 51,
      "time": 8.625,
      "duration": 0.375,
      "velocity": 0.79,
      "hand": "left"
    },
    {
      "midi": 55,
      "time": 8.625,
      "duration": 0.375,
      "velocity": 0.79,
      "hand": "left"
    },
    {
      "midi": 63,
      "time": 8.625,
      "duration": 0.375,
      "velocity": 1,
      "hand": "right"
    },
    {
      "midi": 75,
      "time": 8.625,
      "duration": 0.375,
      "velocity": 0.55,
      "hand": "right"
    },
    {
      "midi": 46,
      "time": 8.813,
      "duration": 0.188,
      "velocity": 0.94,
      "hand": "left"
    },
    {
      "midi": 39,
      "time": 9,
      "duration": 0.375,
      "velocity": 0.79,
      "hand": "left"
    },
    {
      "midi": 51,
      "time": 9,
      "duration": 0.375,
      "velocity": 0.79,
      "hand": "left"
    },
    {
      "midi": 55,
      "time": 9,
      "duration": 0.375,
      "velocity": 0.79,
      "hand": "left"
    },
    {
      "midi": 70,
      "time": 9,
      "duration": 0.375,
      "velocity": 1,
      "hand": "right"
    },
    {
      "midi": 82,
      "time": 9,
      "duration": 0.375,
      "velocity": 0.55,
      "hand": "right"
    },
    {
      "midi": 49,
      "time": 9.188,
      "duration": 0.188,
      "velocity": 0.94,
      "hand": "left"
    },
    {
      "midi": 49,
      "time": 9.375,
      "duration": 0.188,
      "velocity": 0.94,
      "hand": "left"
    },
    {
      "midi": 70,
      "time": 9.375,
      "duration": 0.375,
      "velocity": 1,
      "hand": "right"
    },
    {
      "midi": 82,
      "time": 9.375,
      "duration": 0.375,
      "velocity": 0.55,
      "hand": "right"
    },
    {
      "midi": 39,
      "time": 9.563,
      "duration": 0.375,
      "velocity": 0.79,
      "hand": "left"
    },
    {
      "midi": 51,
      "time": 9.563,
      "duration": 0.375,
      "velocity": 0.79,
      "hand": "left"
    },
    {
      "midi": 55,
      "time": 9.563,
      "duration": 0.375,
      "velocity": 0.79,
      "hand": "left"
    },
    {
      "midi": 49,
      "time": 9.75,
      "duration": 0.188,
      "velocity": 0.94,
      "hand": "left"
    },
    {
      "midi": 75,
      "time": 9.75,
      "duration": 0.375,
      "velocity": 1,
      "hand": "right"
    },
    {
      "midi": 87,
      "time": 9.75,
      "duration": 0.375,
      "velocity": 0.55,
      "hand": "right"
    },
    {
      "midi": 49,
      "time": 9.938,
      "duration": 0.188,
      "velocity": 0.94,
      "hand": "left"
    },
    {
      "midi": 39,
      "time": 10.125,
      "duration": 0.375,
      "velocity": 0.79,
      "hand": "left"
    },
    {
      "midi": 51,
      "time": 10.125,
      "duration": 0.375,
      "velocity": 0.79,
      "hand": "left"
    },
    {
      "midi": 55,
      "time": 10.125,
      "duration": 0.375,
      "velocity": 0.79,
      "hand": "left"
    },
    {
      "midi": 75,
      "time": 10.125,
      "duration": 0.375,
      "velocity": 1,
      "hand": "right"
    },
    {
      "midi": 87,
      "time": 10.125,
      "duration": 0.375,
      "velocity": 0.55,
      "hand": "right"
    },
    {
      "midi": 49,
      "time": 10.313,
      "duration": 0.188,
      "velocity": 0.94,
      "hand": "left"
    },
    {
      "midi": 44,
      "time": 10.5,
      "duration": 0.375,
      "velocity": 0.79,
      "hand": "left"
    },
    {
      "midi": 51,
      "time": 10.5,
      "duration": 0.375,
      "velocity": 0.79,
      "hand": "left"
    },
    {
      "midi": 56,
      "time": 10.5,
      "duration": 0.375,
      "velocity": 0.79,
      "hand": "left"
    },
    {
      "midi": 72,
      "time": 10.5,
      "duration": 0.563,
      "velocity": 1,
      "hand": "right"
    },
    {
      "midi": 84,
      "time": 10.5,
      "duration": 0.563,
      "velocity": 0.55,
      "hand": "right"
    },
    {
      "midi": 48,
      "time": 10.688,
      "duration": 0.188,
      "velocity": 0.94,
      "hand": "left"
    },
    {
      "midi": 48,
      "time": 10.875,
      "duration": 0.188,
      "velocity": 0.94,
      "hand": "left"
    },
    {
      "midi": 44,
      "time": 11.063,
      "duration": 0.375,
      "velocity": 0.79,
      "hand": "left"
    },
    {
      "midi": 51,
      "time": 11.063,
      "duration": 0.375,
      "velocity": 0.79,
      "hand": "left"
    },
    {
      "midi": 51,
      "time": 11.063,
      "duration": 0.188,
      "velocity": 0.94,
      "hand": "left"
    },
    {
      "midi": 56,
      "time": 11.063,
      "duration": 0.375,
      "velocity": 0.79,
      "hand": "left"
    },
    {
      "midi": 49,
      "time": 11.25,
      "duration": 0.188,
      "velocity": 0.94,
      "hand": "left"
    },
    {
      "midi": 68,
      "time": 11.25,
      "duration": 0.563,
      "velocity": 1,
      "hand": "right"
    },
    {
      "midi": 80,
      "time": 11.25,
      "duration": 0.563,
      "velocity": 0.55,
      "hand": "right"
    },
    {
      "midi": 48,
      "time": 11.438,
      "duration": 0.188,
      "velocity": 0.94,
      "hand": "left"
    },
    {
      "midi": 44,
      "time": 11.625,
      "duration": 0.375,
      "velocity": 0.79,
      "hand": "left"
    },
    {
      "midi": 46,
      "time": 11.625,
      "duration": 0.188,
      "velocity": 0.94,
      "hand": "left"
    },
    {
      "midi": 51,
      "time": 11.625,
      "duration": 0.375,
      "velocity": 0.79,
      "hand": "left"
    },
    {
      "midi": 56,
      "time": 11.625,
      "duration": 0.375,
      "velocity": 0.79,
      "hand": "left"
    },
    {
      "midi": 44,
      "time": 11.813,
      "duration": 0.188,
      "velocity": 0.94,
      "hand": "left"
    },
    {
      "midi": 43,
      "time": 12,
      "duration": 0.375,
      "velocity": 0.87,
      "hand": "left"
    },
    {
      "midi": 46,
      "time": 12,
      "duration": 0.375,
      "velocity": 0.87,
      "hand": "left"
    },
    {
      "midi": 75,
      "time": 12,
      "duration": 0.375,
      "velocity": 1,
      "hand": "right"
    },
    {
      "midi": 87,
      "time": 12,
      "duration": 0.375,
      "velocity": 0.55,
      "hand": "right"
    },
    {
      "midi": 51,
      "time": 12.188,
      "duration": 0.188,
      "velocity": 0.94,
      "hand": "left"
    },
    {
      "midi": 43,
      "time": 12.375,
      "duration": 0.375,
      "velocity": 0.87,
      "hand": "left"
    },
    {
      "midi": 46,
      "time": 12.375,
      "duration": 0.375,
      "velocity": 0.87,
      "hand": "left"
    },
    {
      "midi": 51,
      "time": 12.375,
      "duration": 0.188,
      "velocity": 0.94,
      "hand": "left"
    },
    {
      "midi": 75,
      "time": 12.375,
      "duration": 0.375,
      "velocity": 1,
      "hand": "right"
    },
    {
      "midi": 87,
      "time": 12.375,
      "duration": 0.375,
      "velocity": 0.55,
      "hand": "right"
    },
    {
      "midi": 53,
      "time": 12.563,
      "duration": 0.188,
      "velocity": 0.94,
      "hand": "left"
    },
    {
      "midi": 41,
      "time": 12.75,
      "duration": 0.375,
      "velocity": 0.87,
      "hand": "left"
    },
    {
      "midi": 49,
      "time": 12.75,
      "duration": 0.375,
      "velocity": 0.87,
      "hand": "left"
    },
    {
      "midi": 55,
      "time": 12.75,
      "duration": 0.188,
      "velocity": 0.94,
      "hand": "left"
    },
    {
      "midi": 70,
      "time": 12.75,
      "duration": 0.375,
      "velocity": 1,
      "hand": "right"
    },
    {
      "midi": 82,
      "time": 12.75,
      "duration": 0.375,
      "velocity": 0.55,
      "hand": "right"
    },
    {
      "midi": 39,
      "time": 13.5,
      "duration": 0.375,
      "velocity": 0.87,
      "hand": "left"
    },
    {
      "midi": 53,
      "time": 13.5,
      "duration": 0.375,
      "velocity": 0.87,
      "hand": "left"
    },
    {
      "midi": 73,
      "time": 13.5,
      "duration": 0.188,
      "velocity": 1,
      "hand": "right"
    },
    {
      "midi": 85,
      "time": 13.5,
      "duration": 0.188,
      "velocity": 0.55,
      "hand": "right"
    },
    {
      "midi": 46,
      "time": 13.688,
      "duration": 0.188,
      "velocity": 0.94,
      "hand": "left"
    },
    {
      "midi": 72,
      "time": 13.688,
      "duration": 0.375,
      "velocity": 1,
      "hand": "right"
    },
    {
      "midi": 84,
      "time": 13.688,
      "duration": 0.375,
      "velocity": 0.55,
      "hand": "right"
    },
    {
      "midi": 43,
      "time": 13.875,
      "duration": 0.375,
      "velocity": 0.87,
      "hand": "left"
    },
    {
      "midi": 51,
      "time": 13.875,
      "duration": 0.375,
      "velocity": 0.87,
      "hand": "left"
    },
    {
      "midi": 46,
      "time": 14.063,
      "duration": 0.188,
      "velocity": 0.94,
      "hand": "left"
    },
    {
      "midi": 70,
      "time": 14.063,
      "duration": 0.188,
      "velocity": 1,
      "hand": "right"
    },
    {
      "midi": 82,
      "time": 14.063,
      "duration": 0.188,
      "velocity": 0.55,
      "hand": "right"
    },
    {
      "midi": 44,
      "time": 14.25,
      "duration": 0.375,
      "velocity": 0.87,
      "hand": "left"
    },
    {
      "midi": 49,
      "time": 14.25,
      "duration": 0.188,
      "velocity": 0.87,
      "hand": "left"
    },
    {
      "midi": 68,
      "time": 14.25,
      "duration": 0.375,
      "velocity": 1,
      "hand": "right"
    },
    {
      "midi": 80,
      "time": 14.25,
      "duration": 0.375,
      "velocity": 0.55,
      "hand": "right"
    },
    {
      "midi": 48,
      "time": 14.438,
      "duration": 0.188,
      "velocity": 0.87,
      "hand": "left"
    },
    {
      "midi": 51,
      "time": 14.438,
      "duration": 0.188,
      "velocity": 0.94,
      "hand": "left"
    },
    {
      "midi": 44,
      "time": 14.625,
      "duration": 0.375,
      "velocity": 0.87,
      "hand": "left"
    },
    {
      "midi": 48,
      "time": 14.625,
      "duration": 0.375,
      "velocity": 0.87,
      "hand": "left"
    },
    {
      "midi": 51,
      "time": 14.625,
      "duration": 0.188,
      "velocity": 0.94,
      "hand": "left"
    },
    {
      "midi": 68,
      "time": 14.625,
      "duration": 0.375,
      "velocity": 1,
      "hand": "right"
    },
    {
      "midi": 80,
      "time": 14.625,
      "duration": 0.375,
      "velocity": 0.55,
      "hand": "right"
    },
    {
      "midi": 49,
      "time": 14.813,
      "duration": 0.188,
      "velocity": 0.63,
      "hand": "left"
    },
    {
      "midi": 46,
      "time": 15,
      "duration": 0.375,
      "velocity": 0.87,
      "hand": "left"
    },
    {
      "midi": 51,
      "time": 15,
      "duration": 0.375,
      "velocity": 0.87,
      "hand": "left"
    },
    {
      "midi": 56,
      "time": 15,
      "duration": 0.375,
      "velocity": 0.87,
      "hand": "left"
    },
    {
      "midi": 72,
      "time": 15,
      "duration": 0.188,
      "velocity": 1,
      "hand": "right"
    },
    {
      "midi": 84,
      "time": 15,
      "duration": 0.188,
      "velocity": 0.55,
      "hand": "right"
    },
    {
      "midi": 49,
      "time": 15.188,
      "duration": 0.188,
      "velocity": 0.94,
      "hand": "left"
    },
    {
      "midi": 68,
      "time": 15.188,
      "duration": 0.375,
      "velocity": 1,
      "hand": "right"
    },
    {
      "midi": 80,
      "time": 15.188,
      "duration": 0.375,
      "velocity": 0.55,
      "hand": "right"
    },
    {
      "midi": 49,
      "time": 15.375,
      "duration": 0.188,
      "velocity": 0.94,
      "hand": "left"
    },
    {
      "midi": 46,
      "time": 15.563,
      "duration": 0.375,
      "velocity": 0.87,
      "hand": "left"
    },
    {
      "midi": 51,
      "time": 15.563,
      "duration": 0.375,
      "velocity": 0.87,
      "hand": "left"
    },
    {
      "midi": 56,
      "time": 15.563,
      "duration": 0.375,
      "velocity": 0.87,
      "hand": "left"
    },
    {
      "midi": 65,
      "time": 15.563,
      "duration": 0.188,
      "velocity": 1,
      "hand": "right"
    },
    {
      "midi": 77,
      "time": 15.563,
      "duration": 0.188,
      "velocity": 0.55,
      "hand": "right"
    },
    {
      "midi": 49,
      "time": 15.75,
      "duration": 0.188,
      "velocity": 0.94,
      "hand": "left"
    },
    {
      "midi": 63,
      "time": 15.75,
      "duration": 0.375,
      "velocity": 1,
      "hand": "right"
    },
    {
      "midi": 75,
      "time": 15.75,
      "duration": 0.375,
      "velocity": 0.55,
      "hand": "right"
    },
    {
      "midi": 49,
      "time": 15.938,
      "duration": 0.188,
      "velocity": 0.94,
      "hand": "left"
    },
    {
      "midi": 37,
      "time": 16.125,
      "duration": 0.375,
      "velocity": 0.87,
      "hand": "left"
    },
    {
      "midi": 46,
      "time": 16.125,
      "duration": 0.375,
      "velocity": 0.87,
      "hand": "left"
    },
    {
      "midi": 53,
      "time": 16.125,
      "duration": 0.375,
      "velocity": 0.87,
      "hand": "left"
    },
    {
      "midi": 63,
      "time": 16.125,
      "duration": 0.375,
      "velocity": 1,
      "hand": "right"
    },
    {
      "midi": 75,
      "time": 16.125,
      "duration": 0.375,
      "velocity": 0.55,
      "hand": "right"
    },
    {
      "midi": 49,
      "time": 16.313,
      "duration": 0.188,
      "velocity": 0.94,
      "hand": "left"
    },
    {
      "midi": 39,
      "time": 16.5,
      "duration": 0.375,
      "velocity": 0.87,
      "hand": "left"
    },
    {
      "midi": 51,
      "time": 16.5,
      "duration": 0.375,
      "velocity": 0.87,
      "hand": "left"
    },
    {
      "midi": 55,
      "time": 16.5,
      "duration": 0.375,
      "velocity": 0.87,
      "hand": "left"
    },
    {
      "midi": 63,
      "time": 16.5,
      "duration": 0.188,
      "velocity": 1,
      "hand": "right"
    },
    {
      "midi": 75,
      "time": 16.5,
      "duration": 0.188,
      "velocity": 0.55,
      "hand": "right"
    },
    {
      "midi": 49,
      "time": 16.688,
      "duration": 0.188,
      "velocity": 0.94,
      "hand": "left"
    },
    {
      "midi": 65,
      "time": 16.688,
      "duration": 0.375,
      "velocity": 1,
      "hand": "right"
    },
    {
      "midi": 77,
      "time": 16.688,
      "duration": 0.375,
      "velocity": 0.55,
      "hand": "right"
    },
    {
      "midi": 49,
      "time": 16.875,
      "duration": 0.188,
      "velocity": 0.94,
      "hand": "left"
    },
    {
      "midi": 39,
      "time": 17.063,
      "duration": 0.375,
      "velocity": 0.87,
      "hand": "left"
    },
    {
      "midi": 51,
      "time": 17.063,
      "duration": 0.375,
      "velocity": 0.87,
      "hand": "left"
    },
    {
      "midi": 55,
      "time": 17.063,
      "duration": 0.375,
      "velocity": 0.87,
      "hand": "left"
    },
    {
      "midi": 67,
      "time": 17.063,
      "duration": 0.188,
      "velocity": 1,
      "hand": "right"
    },
    {
      "midi": 79,
      "time": 17.063,
      "duration": 0.188,
      "velocity": 0.55,
      "hand": "right"
    },
    {
      "midi": 49,
      "time": 17.25,
      "duration": 0.188,
      "velocity": 0.94,
      "hand": "left"
    },
    {
      "midi": 68,
      "time": 17.25,
      "duration": 0.375,
      "velocity": 1,
      "hand": "right"
    },
    {
      "midi": 80,
      "time": 17.25,
      "duration": 0.375,
      "velocity": 0.55,
      "hand": "right"
    },
    {
      "midi": 48,
      "time": 17.438,
      "duration": 0.188,
      "velocity": 0.94,
      "hand": "left"
    },
    {
      "midi": 44,
      "time": 17.625,
      "duration": 0.375,
      "velocity": 0.87,
      "hand": "left"
    },
    {
      "midi": 48,
      "time": 17.625,
      "duration": 0.188,
      "velocity": 0.94,
      "hand": "left"
    },
    {
      "midi": 51,
      "time": 17.625,
      "duration": 0.375,
      "velocity": 0.87,
      "hand": "left"
    },
    {
      "midi": 56,
      "time": 17.625,
      "duration": 0.375,
      "velocity": 0.87,
      "hand": "left"
    },
    {
      "midi": 68,
      "time": 17.625,
      "duration": 0.375,
      "velocity": 1,
      "hand": "right"
    },
    {
      "midi": 80,
      "time": 17.625,
      "duration": 0.375,
      "velocity": 0.55,
      "hand": "right"
    },
    {
      "midi": 43,
      "time": 18,
      "duration": 0.375,
      "velocity": 0.87,
      "hand": "left"
    },
    {
      "midi": 46,
      "time": 18,
      "duration": 0.375,
      "velocity": 0.87,
      "hand": "left"
    },
    {
      "midi": 75,
      "time": 18,
      "duration": 0.375,
      "velocity": 1,
      "hand": "right"
    },
    {
      "midi": 87,
      "time": 18,
      "duration": 0.375,
      "velocity": 0.55,
      "hand": "right"
    },
    {
      "midi": 51,
      "time": 18.188,
      "duration": 0.188,
      "velocity": 0.94,
      "hand": "left"
    },
    {
      "midi": 43,
      "time": 18.375,
      "duration": 0.375,
      "velocity": 0.87,
      "hand": "left"
    },
    {
      "midi": 46,
      "time": 18.375,
      "duration": 0.375,
      "velocity": 0.87,
      "hand": "left"
    },
    {
      "midi": 51,
      "time": 18.375,
      "duration": 0.188,
      "velocity": 0.94,
      "hand": "left"
    },
    {
      "midi": 75,
      "time": 18.375,
      "duration": 0.375,
      "velocity": 1,
      "hand": "right"
    },
    {
      "midi": 87,
      "time": 18.375,
      "duration": 0.375,
      "velocity": 0.55,
      "hand": "right"
    },
    {
      "midi": 53,
      "time": 18.563,
      "duration": 0.188,
      "velocity": 0.94,
      "hand": "left"
    },
    {
      "midi": 41,
      "time": 18.75,
      "duration": 0.375,
      "velocity": 0.87,
      "hand": "left"
    },
    {
      "midi": 49,
      "time": 18.75,
      "duration": 0.375,
      "velocity": 0.87,
      "hand": "left"
    },
    {
      "midi": 55,
      "time": 18.75,
      "duration": 0.188,
      "velocity": 0.94,
      "hand": "left"
    },
    {
      "midi": 70,
      "time": 18.75,
      "duration": 0.375,
      "velocity": 1,
      "hand": "right"
    },
    {
      "midi": 82,
      "time": 18.75,
      "duration": 0.375,
      "velocity": 0.55,
      "hand": "right"
    },
    {
      "midi": 39,
      "time": 19.5,
      "duration": 0.375,
      "velocity": 0.87,
      "hand": "left"
    },
    {
      "midi": 53,
      "time": 19.5,
      "duration": 0.375,
      "velocity": 0.87,
      "hand": "left"
    },
    {
      "midi": 73,
      "time": 19.5,
      "duration": 0.188,
      "velocity": 1,
      "hand": "right"
    },
    {
      "midi": 85,
      "time": 19.5,
      "duration": 0.188,
      "velocity": 0.55,
      "hand": "right"
    },
    {
      "midi": 46,
      "time": 19.688,
      "duration": 0.188,
      "velocity": 0.94,
      "hand": "left"
    },
    {
      "midi": 72,
      "time": 19.688,
      "duration": 0.375,
      "velocity": 1,
      "hand": "right"
    },
    {
      "midi": 84,
      "time": 19.688,
      "duration": 0.375,
      "velocity": 0.55,
      "hand": "right"
    },
    {
      "midi": 43,
      "time": 19.875,
      "duration": 0.375,
      "velocity": 0.87,
      "hand": "left"
    },
    {
      "midi": 51,
      "time": 19.875,
      "duration": 0.375,
      "velocity": 0.87,
      "hand": "left"
    },
    {
      "midi": 46,
      "time": 20.063,
      "duration": 0.188,
      "velocity": 0.94,
      "hand": "left"
    },
    {
      "midi": 70,
      "time": 20.063,
      "duration": 0.188,
      "velocity": 1,
      "hand": "right"
    },
    {
      "midi": 82,
      "time": 20.063,
      "duration": 0.188,
      "velocity": 0.55,
      "hand": "right"
    },
    {
      "midi": 44,
      "time": 20.25,
      "duration": 0.375,
      "velocity": 0.87,
      "hand": "left"
    },
    {
      "midi": 49,
      "time": 20.25,
      "duration": 0.188,
      "velocity": 0.87,
      "hand": "left"
    },
    {
      "midi": 68,
      "time": 20.25,
      "duration": 0.375,
      "velocity": 1,
      "hand": "right"
    },
    {
      "midi": 80,
      "time": 20.25,
      "duration": 0.375,
      "velocity": 0.55,
      "hand": "right"
    },
    {
      "midi": 48,
      "time": 20.438,
      "duration": 0.188,
      "velocity": 0.87,
      "hand": "left"
    },
    {
      "midi": 51,
      "time": 20.438,
      "duration": 0.188,
      "velocity": 0.94,
      "hand": "left"
    },
    {
      "midi": 44,
      "time": 20.625,
      "duration": 0.375,
      "velocity": 0.87,
      "hand": "left"
    },
    {
      "midi": 48,
      "time": 20.625,
      "duration": 0.375,
      "velocity": 0.87,
      "hand": "left"
    },
    {
      "midi": 51,
      "time": 20.625,
      "duration": 0.188,
      "velocity": 0.94,
      "hand": "left"
    },
    {
      "midi": 68,
      "time": 20.625,
      "duration": 0.375,
      "velocity": 1,
      "hand": "right"
    },
    {
      "midi": 80,
      "time": 20.625,
      "duration": 0.375,
      "velocity": 0.55,
      "hand": "right"
    },
    {
      "midi": 49,
      "time": 20.813,
      "duration": 0.188,
      "velocity": 0.63,
      "hand": "left"
    },
    {
      "midi": 46,
      "time": 21,
      "duration": 0.375,
      "velocity": 0.87,
      "hand": "left"
    },
    {
      "midi": 51,
      "time": 21,
      "duration": 0.375,
      "velocity": 0.87,
      "hand": "left"
    },
    {
      "midi": 56,
      "time": 21,
      "duration": 0.375,
      "velocity": 0.87,
      "hand": "left"
    },
    {
      "midi": 72,
      "time": 21,
      "duration": 0.188,
      "velocity": 1,
      "hand": "right"
    },
    {
      "midi": 84,
      "time": 21,
      "duration": 0.188,
      "velocity": 0.55,
      "hand": "right"
    },
    {
      "midi": 49,
      "time": 21.188,
      "duration": 0.188,
      "velocity": 0.94,
      "hand": "left"
    },
    {
      "midi": 68,
      "time": 21.188,
      "duration": 0.375,
      "velocity": 1,
      "hand": "right"
    },
    {
      "midi": 80,
      "time": 21.188,
      "duration": 0.375,
      "velocity": 0.55,
      "hand": "right"
    },
    {
      "midi": 49,
      "time": 21.375,
      "duration": 0.188,
      "velocity": 0.94,
      "hand": "left"
    },
    {
      "midi": 46,
      "time": 21.563,
      "duration": 0.375,
      "velocity": 0.87,
      "hand": "left"
    },
    {
      "midi": 51,
      "time": 21.563,
      "duration": 0.375,
      "velocity": 0.87,
      "hand": "left"
    },
    {
      "midi": 56,
      "time": 21.563,
      "duration": 0.375,
      "velocity": 0.87,
      "hand": "left"
    },
    {
      "midi": 65,
      "time": 21.563,
      "duration": 0.188,
      "velocity": 1,
      "hand": "right"
    },
    {
      "midi": 77,
      "time": 21.563,
      "duration": 0.188,
      "velocity": 0.55,
      "hand": "right"
    },
    {
      "midi": 49,
      "time": 21.75,
      "duration": 0.188,
      "velocity": 0.94,
      "hand": "left"
    },
    {
      "midi": 63,
      "time": 21.75,
      "duration": 0.375,
      "velocity": 1,
      "hand": "right"
    },
    {
      "midi": 75,
      "time": 21.75,
      "duration": 0.375,
      "velocity": 0.55,
      "hand": "right"
    },
    {
      "midi": 49,
      "time": 21.938,
      "duration": 0.188,
      "velocity": 0.94,
      "hand": "left"
    },
    {
      "midi": 37,
      "time": 22.125,
      "duration": 0.375,
      "velocity": 0.87,
      "hand": "left"
    },
    {
      "midi": 46,
      "time": 22.125,
      "duration": 0.375,
      "velocity": 0.87,
      "hand": "left"
    },
    {
      "midi": 53,
      "time": 22.125,
      "duration": 0.375,
      "velocity": 0.87,
      "hand": "left"
    },
    {
      "midi": 63,
      "time": 22.125,
      "duration": 0.375,
      "velocity": 1,
      "hand": "right"
    },
    {
      "midi": 75,
      "time": 22.125,
      "duration": 0.375,
      "velocity": 0.55,
      "hand": "right"
    },
    {
      "midi": 49,
      "time": 22.313,
      "duration": 0.188,
      "velocity": 0.94,
      "hand": "left"
    },
    {
      "midi": 39,
      "time": 22.5,
      "duration": 0.375,
      "velocity": 0.87,
      "hand": "left"
    },
    {
      "midi": 51,
      "time": 22.5,
      "duration": 0.375,
      "velocity": 0.87,
      "hand": "left"
    },
    {
      "midi": 55,
      "time": 22.5,
      "duration": 0.375,
      "velocity": 0.87,
      "hand": "left"
    },
    {
      "midi": 63,
      "time": 22.5,
      "duration": 0.188,
      "velocity": 1,
      "hand": "right"
    },
    {
      "midi": 75,
      "time": 22.5,
      "duration": 0.188,
      "velocity": 0.55,
      "hand": "right"
    },
    {
      "midi": 49,
      "time": 22.688,
      "duration": 0.188,
      "velocity": 0.94,
      "hand": "left"
    },
    {
      "midi": 65,
      "time": 22.688,
      "duration": 0.375,
      "velocity": 1,
      "hand": "right"
    },
    {
      "midi": 77,
      "time": 22.688,
      "duration": 0.375,
      "velocity": 0.55,
      "hand": "right"
    },
    {
      "midi": 49,
      "time": 22.875,
      "duration": 0.188,
      "velocity": 0.94,
      "hand": "left"
    },
    {
      "midi": 39,
      "time": 23.063,
      "duration": 0.375,
      "velocity": 0.87,
      "hand": "left"
    },
    {
      "midi": 51,
      "time": 23.063,
      "duration": 0.375,
      "velocity": 0.87,
      "hand": "left"
    },
    {
      "midi": 55,
      "time": 23.063,
      "duration": 0.375,
      "velocity": 0.87,
      "hand": "left"
    },
    {
      "midi": 67,
      "time": 23.063,
      "duration": 0.188,
      "velocity": 1,
      "hand": "right"
    },
    {
      "midi": 79,
      "time": 23.063,
      "duration": 0.188,
      "velocity": 0.55,
      "hand": "right"
    },
    {
      "midi": 49,
      "time": 23.25,
      "duration": 0.188,
      "velocity": 0.94,
      "hand": "left"
    },
    {
      "midi": 68,
      "time": 23.25,
      "duration": 0.375,
      "velocity": 1,
      "hand": "right"
    },
    {
      "midi": 80,
      "time": 23.25,
      "duration": 0.375,
      "velocity": 0.55,
      "hand": "right"
    },
    {
      "midi": 48,
      "time": 23.438,
      "duration": 0.188,
      "velocity": 0.94,
      "hand": "left"
    },
    {
      "midi": 44,
      "time": 23.625,
      "duration": 0.375,
      "velocity": 0.87,
      "hand": "left"
    },
    {
      "midi": 48,
      "time": 23.625,
      "duration": 0.188,
      "velocity": 0.94,
      "hand": "left"
    },
    {
      "midi": 51,
      "time": 23.625,
      "duration": 0.375,
      "velocity": 0.87,
      "hand": "left"
    },
    {
      "midi": 56,
      "time": 23.625,
      "duration": 0.375,
      "velocity": 0.87,
      "hand": "left"
    },
    {
      "midi": 68,
      "time": 23.625,
      "duration": 0.375,
      "velocity": 1,
      "hand": "right"
    },
    {
      "midi": 80,
      "time": 23.625,
      "duration": 0.375,
      "velocity": 0.55,
      "hand": "right"
    }
  ],
  "arrangements": {
    "easy": [
      {
        "midi": 80,
        "time": 0,
        "duration": 0.375,
        "velocity": 0.55,
        "hand": "right"
      },
      {
        "midi": 48,
        "time": 0.188,
        "duration": 0.25,
        "velocity": 0.94,
        "hand": "right"
      },
      {
        "midi": 80,
        "time": 0.375,
        "duration": 0.375,
        "velocity": 0.55,
        "hand": "right"
      },
      {
        "midi": 56,
        "time": 0.563,
        "duration": 0.375,
        "velocity": 0.79,
        "hand": "right"
      },
      {
        "midi": 80,
        "time": 0.75,
        "duration": 0.25,
        "velocity": 0.55,
        "hand": "right"
      },
      {
        "midi": 80,
        "time": 0.938,
        "duration": 0.375,
        "velocity": 0.55,
        "hand": "right"
      },
      {
        "midi": 56,
        "time": 1.125,
        "duration": 0.375,
        "velocity": 0.79,
        "hand": "right"
      },
      {
        "midi": 84,
        "time": 1.313,
        "duration": 0.25,
        "velocity": 0.55,
        "hand": "right"
      },
      {
        "midi": 82,
        "time": 1.5,
        "duration": 0.25,
        "velocity": 0.55,
        "hand": "right"
      },
      {
        "midi": 82,
        "time": 1.688,
        "duration": 0.375,
        "velocity": 0.55,
        "hand": "right"
      },
      {
        "midi": 46,
        "time": 1.875,
        "duration": 0.25,
        "velocity": 0.94,
        "hand": "right"
      },
      {
        "midi": 79,
        "time": 2.063,
        "duration": 0.25,
        "velocity": 0.55,
        "hand": "right"
      },
      {
        "midi": 75,
        "time": 2.25,
        "duration": 0.375,
        "velocity": 0.55,
        "hand": "right"
      },
      {
        "midi": 46,
        "time": 2.438,
        "duration": 0.25,
        "velocity": 0.94,
        "hand": "right"
      },
      {
        "midi": 75,
        "time": 2.625,
        "duration": 0.375,
        "velocity": 0.55,
        "hand": "right"
      },
      {
        "midi": 46,
        "time": 2.813,
        "duration": 0.25,
        "velocity": 0.94,
        "hand": "right"
      },
      {
        "midi": 82,
        "time": 3,
        "duration": 0.375,
        "velocity": 0.55,
        "hand": "right"
      },
      {
        "midi": 49,
        "time": 3.188,
        "duration": 0.25,
        "velocity": 0.94,
        "hand": "right"
      },
      {
        "midi": 82,
        "time": 3.375,
        "duration": 0.375,
        "velocity": 0.55,
        "hand": "right"
      },
      {
        "midi": 55,
        "time": 3.563,
        "duration": 0.375,
        "velocity": 0.79,
        "hand": "right"
      },
      {
        "midi": 87,
        "time": 3.75,
        "duration": 0.375,
        "velocity": 0.55,
        "hand": "right"
      },
      {
        "midi": 49,
        "time": 3.938,
        "duration": 0.25,
        "velocity": 0.94,
        "hand": "right"
      },
      {
        "midi": 87,
        "time": 4.125,
        "duration": 0.375,
        "velocity": 0.55,
        "hand": "right"
      },
      {
        "midi": 49,
        "time": 4.313,
        "duration": 0.25,
        "velocity": 0.94,
        "hand": "right"
      },
      {
        "midi": 84,
        "time": 4.5,
        "duration": 0.563,
        "velocity": 0.55,
        "hand": "right"
      },
      {
        "midi": 48,
        "time": 4.688,
        "duration": 0.25,
        "velocity": 0.94,
        "hand": "right"
      },
      {
        "midi": 56,
        "time": 5.063,
        "duration": 0.375,
        "velocity": 0.79,
        "hand": "right"
      },
      {
        "midi": 80,
        "time": 5.25,
        "duration": 0.563,
        "velocity": 0.55,
        "hand": "right"
      },
      {
        "midi": 49,
        "time": 5.438,
        "duration": 0.25,
        "velocity": 0.94,
        "hand": "right"
      },
      {
        "midi": 56,
        "time": 5.625,
        "duration": 0.375,
        "velocity": 0.79,
        "hand": "right"
      },
      {
        "midi": 46,
        "time": 5.813,
        "duration": 0.25,
        "velocity": 0.94,
        "hand": "right"
      },
      {
        "midi": 80,
        "time": 6,
        "duration": 0.375,
        "velocity": 0.55,
        "hand": "right"
      },
      {
        "midi": 48,
        "time": 6.188,
        "duration": 0.25,
        "velocity": 0.94,
        "hand": "right"
      },
      {
        "midi": 80,
        "time": 6.375,
        "duration": 0.375,
        "velocity": 0.55,
        "hand": "right"
      },
      {
        "midi": 56,
        "time": 6.563,
        "duration": 0.375,
        "velocity": 0.79,
        "hand": "right"
      },
      {
        "midi": 80,
        "time": 6.75,
        "duration": 0.25,
        "velocity": 0.55,
        "hand": "right"
      },
      {
        "midi": 80,
        "time": 6.938,
        "duration": 0.375,
        "velocity": 0.55,
        "hand": "right"
      },
      {
        "midi": 56,
        "time": 7.125,
        "duration": 0.375,
        "velocity": 0.79,
        "hand": "right"
      },
      {
        "midi": 84,
        "time": 7.313,
        "duration": 0.25,
        "velocity": 0.55,
        "hand": "right"
      },
      {
        "midi": 82,
        "time": 7.5,
        "duration": 0.25,
        "velocity": 0.55,
        "hand": "right"
      },
      {
        "midi": 82,
        "time": 7.688,
        "duration": 0.375,
        "velocity": 0.55,
        "hand": "right"
      },
      {
        "midi": 46,
        "time": 7.875,
        "duration": 0.25,
        "velocity": 0.94,
        "hand": "right"
      },
      {
        "midi": 79,
        "time": 8.063,
        "duration": 0.25,
        "velocity": 0.55,
        "hand": "right"
      },
      {
        "midi": 75,
        "time": 8.25,
        "duration": 0.375,
        "velocity": 0.55,
        "hand": "right"
      },
      {
        "midi": 46,
        "time": 8.438,
        "duration": 0.25,
        "velocity": 0.94,
        "hand": "right"
      },
      {
        "midi": 75,
        "time": 8.625,
        "duration": 0.375,
        "velocity": 0.55,
        "hand": "right"
      },
      {
        "midi": 46,
        "time": 8.813,
        "duration": 0.25,
        "velocity": 0.94,
        "hand": "right"
      },
      {
        "midi": 82,
        "time": 9,
        "duration": 0.375,
        "velocity": 0.55,
        "hand": "right"
      },
      {
        "midi": 49,
        "time": 9.188,
        "duration": 0.25,
        "velocity": 0.94,
        "hand": "right"
      },
      {
        "midi": 82,
        "time": 9.375,
        "duration": 0.375,
        "velocity": 0.55,
        "hand": "right"
      },
      {
        "midi": 55,
        "time": 9.563,
        "duration": 0.375,
        "velocity": 0.79,
        "hand": "right"
      },
      {
        "midi": 87,
        "time": 9.75,
        "duration": 0.375,
        "velocity": 0.55,
        "hand": "right"
      },
      {
        "midi": 49,
        "time": 9.938,
        "duration": 0.25,
        "velocity": 0.94,
        "hand": "right"
      },
      {
        "midi": 87,
        "time": 10.125,
        "duration": 0.375,
        "velocity": 0.55,
        "hand": "right"
      },
      {
        "midi": 49,
        "time": 10.313,
        "duration": 0.25,
        "velocity": 0.94,
        "hand": "right"
      },
      {
        "midi": 84,
        "time": 10.5,
        "duration": 0.563,
        "velocity": 0.55,
        "hand": "right"
      },
      {
        "midi": 48,
        "time": 10.688,
        "duration": 0.25,
        "velocity": 0.94,
        "hand": "right"
      },
      {
        "midi": 56,
        "time": 11.063,
        "duration": 0.375,
        "velocity": 0.79,
        "hand": "right"
      },
      {
        "midi": 80,
        "time": 11.25,
        "duration": 0.563,
        "velocity": 0.55,
        "hand": "right"
      },
      {
        "midi": 48,
        "time": 11.438,
        "duration": 0.25,
        "velocity": 0.94,
        "hand": "right"
      },
      {
        "midi": 56,
        "time": 11.625,
        "duration": 0.375,
        "velocity": 0.79,
        "hand": "right"
      },
      {
        "midi": 44,
        "time": 11.813,
        "duration": 0.25,
        "velocity": 0.94,
        "hand": "right"
      },
      {
        "midi": 87,
        "time": 12,
        "duration": 0.375,
        "velocity": 0.55,
        "hand": "right"
      },
      {
        "midi": 51,
        "time": 12.188,
        "duration": 0.25,
        "velocity": 0.94,
        "hand": "right"
      },
      {
        "midi": 87,
        "time": 12.375,
        "duration": 0.375,
        "velocity": 0.55,
        "hand": "right"
      },
      {
        "midi": 53,
        "time": 12.563,
        "duration": 0.25,
        "velocity": 0.94,
        "hand": "right"
      },
      {
        "midi": 82,
        "time": 12.75,
        "duration": 0.375,
        "velocity": 0.55,
        "hand": "right"
      },
      {
        "midi": 85,
        "time": 13.5,
        "duration": 0.25,
        "velocity": 0.55,
        "hand": "right"
      },
      {
        "midi": 84,
        "time": 13.688,
        "duration": 0.375,
        "velocity": 0.55,
        "hand": "right"
      },
      {
        "midi": 51,
        "time": 13.875,
        "duration": 0.375,
        "velocity": 0.87,
        "hand": "right"
      },
      {
        "midi": 82,
        "time": 14.063,
        "duration": 0.25,
        "velocity": 0.55,
        "hand": "right"
      },
      {
        "midi": 80,
        "time": 14.25,
        "duration": 0.375,
        "velocity": 0.55,
        "hand": "right"
      },
      {
        "midi": 51,
        "time": 14.438,
        "duration": 0.25,
        "velocity": 0.94,
        "hand": "right"
      },
      {
        "midi": 80,
        "time": 14.625,
        "duration": 0.375,
        "velocity": 0.55,
        "hand": "right"
      },
      {
        "midi": 49,
        "time": 14.813,
        "duration": 0.25,
        "velocity": 0.63,
        "hand": "right"
      },
      {
        "midi": 84,
        "time": 15,
        "duration": 0.25,
        "velocity": 0.55,
        "hand": "right"
      },
      {
        "midi": 80,
        "time": 15.188,
        "duration": 0.375,
        "velocity": 0.55,
        "hand": "right"
      },
      {
        "midi": 49,
        "time": 15.375,
        "duration": 0.25,
        "velocity": 0.94,
        "hand": "right"
      },
      {
        "midi": 77,
        "time": 15.563,
        "duration": 0.25,
        "velocity": 0.55,
        "hand": "right"
      },
      {
        "midi": 75,
        "time": 15.75,
        "duration": 0.375,
        "velocity": 0.55,
        "hand": "right"
      },
      {
        "midi": 49,
        "time": 15.938,
        "duration": 0.25,
        "velocity": 0.94,
        "hand": "right"
      },
      {
        "midi": 75,
        "time": 16.125,
        "duration": 0.375,
        "velocity": 0.55,
        "hand": "right"
      },
      {
        "midi": 49,
        "time": 16.313,
        "duration": 0.25,
        "velocity": 0.94,
        "hand": "right"
      },
      {
        "midi": 75,
        "time": 16.5,
        "duration": 0.25,
        "velocity": 0.55,
        "hand": "right"
      },
      {
        "midi": 77,
        "time": 16.688,
        "duration": 0.375,
        "velocity": 0.55,
        "hand": "right"
      },
      {
        "midi": 49,
        "time": 16.875,
        "duration": 0.25,
        "velocity": 0.94,
        "hand": "right"
      },
      {
        "midi": 79,
        "time": 17.063,
        "duration": 0.25,
        "velocity": 0.55,
        "hand": "right"
      },
      {
        "midi": 80,
        "time": 17.25,
        "duration": 0.375,
        "velocity": 0.55,
        "hand": "right"
      },
      {
        "midi": 48,
        "time": 17.438,
        "duration": 0.25,
        "velocity": 0.94,
        "hand": "right"
      },
      {
        "midi": 80,
        "time": 17.625,
        "duration": 0.375,
        "velocity": 0.55,
        "hand": "right"
      },
      {
        "midi": 87,
        "time": 18,
        "duration": 0.375,
        "velocity": 0.55,
        "hand": "right"
      },
      {
        "midi": 51,
        "time": 18.188,
        "duration": 0.25,
        "velocity": 0.94,
        "hand": "right"
      },
      {
        "midi": 87,
        "time": 18.375,
        "duration": 0.375,
        "velocity": 0.55,
        "hand": "right"
      },
      {
        "midi": 53,
        "time": 18.563,
        "duration": 0.25,
        "velocity": 0.94,
        "hand": "right"
      },
      {
        "midi": 82,
        "time": 18.75,
        "duration": 0.375,
        "velocity": 0.55,
        "hand": "right"
      },
      {
        "midi": 85,
        "time": 19.5,
        "duration": 0.25,
        "velocity": 0.55,
        "hand": "right"
      },
      {
        "midi": 84,
        "time": 19.688,
        "duration": 0.375,
        "velocity": 0.55,
        "hand": "right"
      },
      {
        "midi": 51,
        "time": 19.875,
        "duration": 0.375,
        "velocity": 0.87,
        "hand": "right"
      },
      {
        "midi": 82,
        "time": 20.063,
        "duration": 0.25,
        "velocity": 0.55,
        "hand": "right"
      },
      {
        "midi": 80,
        "time": 20.25,
        "duration": 0.375,
        "velocity": 0.55,
        "hand": "right"
      },
      {
        "midi": 51,
        "time": 20.438,
        "duration": 0.25,
        "velocity": 0.94,
        "hand": "right"
      },
      {
        "midi": 80,
        "time": 20.625,
        "duration": 0.375,
        "velocity": 0.55,
        "hand": "right"
      },
      {
        "midi": 49,
        "time": 20.813,
        "duration": 0.25,
        "velocity": 0.63,
        "hand": "right"
      },
      {
        "midi": 84,
        "time": 21,
        "duration": 0.25,
        "velocity": 0.55,
        "hand": "right"
      },
      {
        "midi": 80,
        "time": 21.188,
        "duration": 0.375,
        "velocity": 0.55,
        "hand": "right"
      },
      {
        "midi": 49,
        "time": 21.375,
        "duration": 0.25,
        "velocity": 0.94,
        "hand": "right"
      },
      {
        "midi": 77,
        "time": 21.563,
        "duration": 0.25,
        "velocity": 0.55,
        "hand": "right"
      },
      {
        "midi": 75,
        "time": 21.75,
        "duration": 0.375,
        "velocity": 0.55,
        "hand": "right"
      },
      {
        "midi": 49,
        "time": 21.938,
        "duration": 0.25,
        "velocity": 0.94,
        "hand": "right"
      },
      {
        "midi": 75,
        "time": 22.125,
        "duration": 0.375,
        "velocity": 0.55,
        "hand": "right"
      },
      {
        "midi": 49,
        "time": 22.313,
        "duration": 0.25,
        "velocity": 0.94,
        "hand": "right"
      },
      {
        "midi": 75,
        "time": 22.5,
        "duration": 0.25,
        "velocity": 0.55,
        "hand": "right"
      },
      {
        "midi": 77,
        "time": 22.688,
        "duration": 0.375,
        "velocity": 0.55,
        "hand": "right"
      },
      {
        "midi": 49,
        "time": 22.875,
        "duration": 0.25,
        "velocity": 0.94,
        "hand": "right"
      },
      {
        "midi": 79,
        "time": 23.063,
        "duration": 0.25,
        "velocity": 0.55,
        "hand": "right"
      },
      {
        "midi": 80,
        "time": 23.25,
        "duration": 0.375,
        "velocity": 0.55,
        "hand": "right"
      },
      {
        "midi": 48,
        "time": 23.438,
        "duration": 0.25,
        "velocity": 0.94,
        "hand": "right"
      },
      {
        "midi": 80,
        "time": 23.625,
        "duration": 0.375,
        "velocity": 0.55,
        "hand": "right"
      }
    ],
    "medium": [
      {
        "midi": 44,
        "time": 0,
        "duration": 0.375,
        "velocity": 0.79,
        "hand": "left"
      },
      {
        "midi": 56,
        "time": 0,
        "duration": 0.375,
        "velocity": 0.79,
        "hand": "left"
      },
      {
        "midi": 80,
        "time": 0,
        "duration": 0.375,
        "velocity": 0.55,
        "hand": "right"
      },
      {
        "midi": 48,
        "time": 0.188,
        "duration": 0.188,
        "velocity": 0.94,
        "hand": "left"
      },
      {
        "midi": 48,
        "time": 0.375,
        "duration": 0.188,
        "velocity": 0.94,
        "hand": "left"
      },
      {
        "midi": 68,
        "time": 0.375,
        "duration": 0.375,
        "velocity": 1,
        "hand": "right"
      },
      {
        "midi": 80,
        "time": 0.375,
        "duration": 0.375,
        "velocity": 0.55,
        "hand": "right"
      },
      {
        "midi": 44,
        "time": 0.563,
        "duration": 0.375,
        "velocity": 0.79,
        "hand": "left"
      },
      {
        "midi": 51,
        "time": 0.563,
        "duration": 0.375,
        "velocity": 0.79,
        "hand": "left"
      },
      {
        "midi": 56,
        "time": 0.563,
        "duration": 0.375,
        "velocity": 0.79,
        "hand": "left"
      },
      {
        "midi": 48,
        "time": 0.75,
        "duration": 0.188,
        "velocity": 0.94,
        "hand": "left"
      },
      {
        "midi": 68,
        "time": 0.75,
        "duration": 0.188,
        "velocity": 1,
        "hand": "right"
      },
      {
        "midi": 80,
        "time": 0.75,
        "duration": 0.188,
        "velocity": 0.55,
        "hand": "right"
      },
      {
        "midi": 48,
        "time": 0.938,
        "duration": 0.188,
        "velocity": 0.94,
        "hand": "left"
      },
      {
        "midi": 68,
        "time": 0.938,
        "duration": 0.375,
        "velocity": 1,
        "hand": "right"
      },
      {
        "midi": 80,
        "time": 0.938,
        "duration": 0.375,
        "velocity": 0.55,
        "hand": "right"
      },
      {
        "midi": 44,
        "time": 1.125,
        "duration": 0.375,
        "velocity": 0.79,
        "hand": "left"
      },
      {
        "midi": 51,
        "time": 1.125,
        "duration": 0.375,
        "velocity": 0.79,
        "hand": "left"
      },
      {
        "midi": 56,
        "time": 1.125,
        "duration": 0.375,
        "velocity": 0.79,
        "hand": "left"
      },
      {
        "midi": 48,
        "time": 1.313,
        "duration": 0.188,
        "velocity": 0.94,
        "hand": "left"
      },
      {
        "midi": 72,
        "time": 1.313,
        "duration": 0.188,
        "velocity": 1,
        "hand": "right"
      },
      {
        "midi": 84,
        "time": 1.313,
        "duration": 0.188,
        "velocity": 0.55,
        "hand": "right"
      },
      {
        "midi": 39,
        "time": 1.5,
        "duration": 0.375,
        "velocity": 0.79,
        "hand": "left"
      },
      {
        "midi": 55,
        "time": 1.5,
        "duration": 0.375,
        "velocity": 0.79,
        "hand": "left"
      },
      {
        "midi": 82,
        "time": 1.5,
        "duration": 0.188,
        "velocity": 0.55,
        "hand": "right"
      },
      {
        "midi": 46,
        "time": 1.688,
        "duration": 0.188,
        "velocity": 0.94,
        "hand": "left"
      },
      {
        "midi": 70,
        "time": 1.688,
        "duration": 0.375,
        "velocity": 1,
        "hand": "right"
      },
      {
        "midi": 82,
        "time": 1.688,
        "duration": 0.375,
        "velocity": 0.55,
        "hand": "right"
      },
      {
        "midi": 46,
        "time": 1.875,
        "duration": 0.188,
        "velocity": 0.94,
        "hand": "left"
      },
      {
        "midi": 39,
        "time": 2.063,
        "duration": 0.375,
        "velocity": 0.79,
        "hand": "left"
      },
      {
        "midi": 55,
        "time": 2.063,
        "duration": 0.375,
        "velocity": 0.79,
        "hand": "left"
      },
      {
        "midi": 79,
        "time": 2.063,
        "duration": 0.188,
        "velocity": 0.55,
        "hand": "right"
      },
      {
        "midi": 46,
        "time": 2.25,
        "duration": 0.188,
        "velocity": 0.94,
        "hand": "left"
      },
      {
        "midi": 63,
        "time": 2.25,
        "duration": 0.375,
        "velocity": 1,
        "hand": "right"
      },
      {
        "midi": 75,
        "time": 2.25,
        "duration": 0.375,
        "velocity": 0.55,
        "hand": "right"
      },
      {
        "midi": 46,
        "time": 2.438,
        "duration": 0.188,
        "velocity": 0.94,
        "hand": "left"
      },
      {
        "midi": 39,
        "time": 2.625,
        "duration": 0.375,
        "velocity": 0.79,
        "hand": "left"
      },
      {
        "midi": 55,
        "time": 2.625,
        "duration": 0.375,
        "velocity": 0.79,
        "hand": "left"
      },
      {
        "midi": 75,
        "time": 2.625,
        "duration": 0.375,
        "velocity": 0.55,
        "hand": "right"
      },
      {
        "midi": 46,
        "time": 2.813,
        "duration": 0.188,
        "velocity": 0.94,
        "hand": "left"
      },
      {
        "midi": 39,
        "time": 3,
        "duration": 0.375,
        "velocity": 0.79,
        "hand": "left"
      },
      {
        "midi": 55,
        "time": 3,
        "duration": 0.375,
        "velocity": 0.79,
        "hand": "left"
      },
      {
        "midi": 82,
        "time": 3,
        "duration": 0.375,
        "velocity": 0.55,
        "hand": "right"
      },
      {
        "midi": 49,
        "time": 3.188,
        "duration": 0.188,
        "velocity": 0.94,
        "hand": "left"
      },
      {
        "midi": 49,
        "time": 3.375,
        "duration": 0.188,
        "velocity": 0.94,
        "hand": "left"
      },
      {
        "midi": 70,
        "time": 3.375,
        "duration": 0.375,
        "velocity": 1,
        "hand": "right"
      },
      {
        "midi": 82,
        "time": 3.375,
        "duration": 0.375,
        "velocity": 0.55,
        "hand": "right"
      },
      {
        "midi": 39,
        "time": 3.563,
        "duration": 0.375,
        "velocity": 0.79,
        "hand": "left"
      },
      {
        "midi": 51,
        "time": 3.563,
        "duration": 0.375,
        "velocity": 0.79,
        "hand": "left"
      },
      {
        "midi": 55,
        "time": 3.563,
        "duration": 0.375,
        "velocity": 0.79,
        "hand": "left"
      },
      {
        "midi": 49,
        "time": 3.75,
        "duration": 0.188,
        "velocity": 0.94,
        "hand": "left"
      },
      {
        "midi": 75,
        "time": 3.75,
        "duration": 0.375,
        "velocity": 1,
        "hand": "right"
      },
      {
        "midi": 87,
        "time": 3.75,
        "duration": 0.375,
        "velocity": 0.55,
        "hand": "right"
      },
      {
        "midi": 49,
        "time": 3.938,
        "duration": 0.188,
        "velocity": 0.94,
        "hand": "left"
      },
      {
        "midi": 39,
        "time": 4.125,
        "duration": 0.375,
        "velocity": 0.79,
        "hand": "left"
      },
      {
        "midi": 55,
        "time": 4.125,
        "duration": 0.375,
        "velocity": 0.79,
        "hand": "left"
      },
      {
        "midi": 87,
        "time": 4.125,
        "duration": 0.375,
        "velocity": 0.55,
        "hand": "right"
      },
      {
        "midi": 49,
        "time": 4.313,
        "duration": 0.188,
        "velocity": 0.94,
        "hand": "left"
      },
      {
        "midi": 44,
        "time": 4.5,
        "duration": 0.375,
        "velocity": 0.79,
        "hand": "left"
      },
      {
        "midi": 56,
        "time": 4.5,
        "duration": 0.375,
        "velocity": 0.79,
        "hand": "left"
      },
      {
        "midi": 84,
        "time": 4.5,
        "duration": 0.563,
        "velocity": 0.55,
        "hand": "right"
      },
      {
        "midi": 48,
        "time": 4.688,
        "duration": 0.188,
        "velocity": 0.94,
        "hand": "left"
      },
      {
        "midi": 48,
        "time": 4.875,
        "duration": 0.188,
        "velocity": 0.94,
        "hand": "left"
      },
      {
        "midi": 44,
        "time": 5.063,
        "duration": 0.375,
        "velocity": 0.79,
        "hand": "left"
      },
      {
        "midi": 53,
        "time": 5.063,
        "duration": 0.188,
        "velocity": 0.94,
        "hand": "left"
      },
      {
        "midi": 56,
        "time": 5.063,
        "duration": 0.375,
        "velocity": 0.79,
        "hand": "left"
      },
      {
        "midi": 51,
        "time": 5.25,
        "duration": 0.188,
        "velocity": 0.94,
        "hand": "left"
      },
      {
        "midi": 68,
        "time": 5.25,
        "duration": 0.563,
        "velocity": 1,
        "hand": "right"
      },
      {
        "midi": 80,
        "time": 5.25,
        "duration": 0.563,
        "velocity": 0.55,
        "hand": "right"
      },
      {
        "midi": 49,
        "time": 5.438,
        "duration": 0.188,
        "velocity": 0.94,
        "hand": "left"
      },
      {
        "midi": 44,
        "time": 5.625,
        "duration": 0.375,
        "velocity": 0.79,
        "hand": "left"
      },
      {
        "midi": 51,
        "time": 5.625,
        "duration": 0.375,
        "velocity": 0.79,
        "hand": "left"
      },
      {
        "midi": 56,
        "time": 5.625,
        "duration": 0.375,
        "velocity": 0.79,
        "hand": "left"
      },
      {
        "midi": 46,
        "time": 5.813,
        "duration": 0.188,
        "velocity": 0.94,
        "hand": "left"
      },
      {
        "midi": 44,
        "time": 6,
        "duration": 0.375,
        "velocity": 0.79,
        "hand": "left"
      },
      {
        "midi": 56,
        "time": 6,
        "duration": 0.375,
        "velocity": 0.79,
        "hand": "left"
      },
      {
        "midi": 80,
        "time": 6,
        "duration": 0.375,
        "velocity": 0.55,
        "hand": "right"
      },
      {
        "midi": 48,
        "time": 6.188,
        "duration": 0.188,
        "velocity": 0.94,
        "hand": "left"
      },
      {
        "midi": 48,
        "time": 6.375,
        "duration": 0.188,
        "velocity": 0.94,
        "hand": "left"
      },
      {
        "midi": 68,
        "time": 6.375,
        "duration": 0.375,
        "velocity": 1,
        "hand": "right"
      },
      {
        "midi": 80,
        "time": 6.375,
        "duration": 0.375,
        "velocity": 0.55,
        "hand": "right"
      },
      {
        "midi": 44,
        "time": 6.563,
        "duration": 0.375,
        "velocity": 0.79,
        "hand": "left"
      },
      {
        "midi": 51,
        "time": 6.563,
        "duration": 0.375,
        "velocity": 0.79,
        "hand": "left"
      },
      {
        "midi": 56,
        "time": 6.563,
        "duration": 0.375,
        "velocity": 0.79,
        "hand": "left"
      },
      {
        "midi": 48,
        "time": 6.75,
        "duration": 0.188,
        "velocity": 0.94,
        "hand": "left"
      },
      {
        "midi": 68,
        "time": 6.75,
        "duration": 0.188,
        "velocity": 1,
        "hand": "right"
      },
      {
        "midi": 80,
        "time": 6.75,
        "duration": 0.188,
        "velocity": 0.55,
        "hand": "right"
      },
      {
        "midi": 48,
        "time": 6.938,
        "duration": 0.188,
        "velocity": 0.94,
        "hand": "left"
      },
      {
        "midi": 68,
        "time": 6.938,
        "duration": 0.375,
        "velocity": 1,
        "hand": "right"
      },
      {
        "midi": 80,
        "time": 6.938,
        "duration": 0.375,
        "velocity": 0.55,
        "hand": "right"
      },
      {
        "midi": 44,
        "time": 7.125,
        "duration": 0.375,
        "velocity": 0.79,
        "hand": "left"
      },
      {
        "midi": 51,
        "time": 7.125,
        "duration": 0.375,
        "velocity": 0.79,
        "hand": "left"
      },
      {
        "midi": 56,
        "time": 7.125,
        "duration": 0.375,
        "velocity": 0.79,
        "hand": "left"
      },
      {
        "midi": 48,
        "time": 7.313,
        "duration": 0.188,
        "velocity": 0.94,
        "hand": "left"
      },
      {
        "midi": 72,
        "time": 7.313,
        "duration": 0.188,
        "velocity": 1,
        "hand": "right"
      },
      {
        "midi": 84,
        "time": 7.313,
        "duration": 0.188,
        "velocity": 0.55,
        "hand": "right"
      },
      {
        "midi": 39,
        "time": 7.5,
        "duration": 0.375,
        "velocity": 0.79,
        "hand": "left"
      },
      {
        "midi": 55,
        "time": 7.5,
        "duration": 0.375,
        "velocity": 0.79,
        "hand": "left"
      },
      {
        "midi": 82,
        "time": 7.5,
        "duration": 0.188,
        "velocity": 0.55,
        "hand": "right"
      },
      {
        "midi": 46,
        "time": 7.688,
        "duration": 0.188,
        "velocity": 0.94,
        "hand": "left"
      },
      {
        "midi": 70,
        "time": 7.688,
        "duration": 0.375,
        "velocity": 1,
        "hand": "right"
      },
      {
        "midi": 82,
        "time": 7.688,
        "duration": 0.375,
        "velocity": 0.55,
        "hand": "right"
      },
      {
        "midi": 46,
        "time": 7.875,
        "duration": 0.188,
        "velocity": 0.94,
        "hand": "left"
      },
      {
        "midi": 39,
        "time": 8.063,
        "duration": 0.375,
        "velocity": 0.79,
        "hand": "left"
      },
      {
        "midi": 55,
        "time": 8.063,
        "duration": 0.375,
        "velocity": 0.79,
        "hand": "left"
      },
      {
        "midi": 79,
        "time": 8.063,
        "duration": 0.188,
        "velocity": 0.55,
        "hand": "right"
      },
      {
        "midi": 46,
        "time": 8.25,
        "duration": 0.188,
        "velocity": 0.94,
        "hand": "left"
      },
      {
        "midi": 63,
        "time": 8.25,
        "duration": 0.375,
        "velocity": 1,
        "hand": "right"
      },
      {
        "midi": 75,
        "time": 8.25,
        "duration": 0.375,
        "velocity": 0.55,
        "hand": "right"
      },
      {
        "midi": 46,
        "time": 8.438,
        "duration": 0.188,
        "velocity": 0.94,
        "hand": "left"
      },
      {
        "midi": 39,
        "time": 8.625,
        "duration": 0.375,
        "velocity": 0.79,
        "hand": "left"
      },
      {
        "midi": 55,
        "time": 8.625,
        "duration": 0.375,
        "velocity": 0.79,
        "hand": "left"
      },
      {
        "midi": 75,
        "time": 8.625,
        "duration": 0.375,
        "velocity": 0.55,
        "hand": "right"
      },
      {
        "midi": 46,
        "time": 8.813,
        "duration": 0.188,
        "velocity": 0.94,
        "hand": "left"
      },
      {
        "midi": 39,
        "time": 9,
        "duration": 0.375,
        "velocity": 0.79,
        "hand": "left"
      },
      {
        "midi": 55,
        "time": 9,
        "duration": 0.375,
        "velocity": 0.79,
        "hand": "left"
      },
      {
        "midi": 82,
        "time": 9,
        "duration": 0.375,
        "velocity": 0.55,
        "hand": "right"
      },
      {
        "midi": 49,
        "time": 9.188,
        "duration": 0.188,
        "velocity": 0.94,
        "hand": "left"
      },
      {
        "midi": 49,
        "time": 9.375,
        "duration": 0.188,
        "velocity": 0.94,
        "hand": "left"
      },
      {
        "midi": 70,
        "time": 9.375,
        "duration": 0.375,
        "velocity": 1,
        "hand": "right"
      },
      {
        "midi": 82,
        "time": 9.375,
        "duration": 0.375,
        "velocity": 0.55,
        "hand": "right"
      },
      {
        "midi": 39,
        "time": 9.563,
        "duration": 0.375,
        "velocity": 0.79,
        "hand": "left"
      },
      {
        "midi": 51,
        "time": 9.563,
        "duration": 0.375,
        "velocity": 0.79,
        "hand": "left"
      },
      {
        "midi": 55,
        "time": 9.563,
        "duration": 0.375,
        "velocity": 0.79,
        "hand": "left"
      },
      {
        "midi": 49,
        "time": 9.75,
        "duration": 0.188,
        "velocity": 0.94,
        "hand": "left"
      },
      {
        "midi": 75,
        "time": 9.75,
        "duration": 0.375,
        "velocity": 1,
        "hand": "right"
      },
      {
        "midi": 87,
        "time": 9.75,
        "duration": 0.375,
        "velocity": 0.55,
        "hand": "right"
      },
      {
        "midi": 49,
        "time": 9.938,
        "duration": 0.188,
        "velocity": 0.94,
        "hand": "left"
      },
      {
        "midi": 39,
        "time": 10.125,
        "duration": 0.375,
        "velocity": 0.79,
        "hand": "left"
      },
      {
        "midi": 55,
        "time": 10.125,
        "duration": 0.375,
        "velocity": 0.79,
        "hand": "left"
      },
      {
        "midi": 87,
        "time": 10.125,
        "duration": 0.375,
        "velocity": 0.55,
        "hand": "right"
      },
      {
        "midi": 49,
        "time": 10.313,
        "duration": 0.188,
        "velocity": 0.94,
        "hand": "left"
      },
      {
        "midi": 44,
        "time": 10.5,
        "duration": 0.375,
        "velocity": 0.79,
        "hand": "left"
      },
      {
        "midi": 56,
        "time": 10.5,
        "duration": 0.375,
        "velocity": 0.79,
        "hand": "left"
      },
      {
        "midi": 84,
        "time": 10.5,
        "duration": 0.563,
        "velocity": 0.55,
        "hand": "right"
      },
      {
        "midi": 48,
        "time": 10.688,
        "duration": 0.188,
        "velocity": 0.94,
        "hand": "left"
      },
      {
        "midi": 48,
        "time": 10.875,
        "duration": 0.188,
        "velocity": 0.94,
        "hand": "left"
      },
      {
        "midi": 44,
        "time": 11.063,
        "duration": 0.375,
        "velocity": 0.79,
        "hand": "left"
      },
      {
        "midi": 51,
        "time": 11.063,
        "duration": 0.188,
        "velocity": 0.94,
        "hand": "left"
      },
      {
        "midi": 56,
        "time": 11.063,
        "duration": 0.375,
        "velocity": 0.79,
        "hand": "left"
      },
      {
        "midi": 49,
        "time": 11.25,
        "duration": 0.188,
        "velocity": 0.94,
        "hand": "left"
      },
      {
        "midi": 68,
        "time": 11.25,
        "duration": 0.563,
        "velocity": 1,
        "hand": "right"
      },
      {
        "midi": 80,
        "time": 11.25,
        "duration": 0.563,
        "velocity": 0.55,
        "hand": "right"
      },
      {
        "midi": 48,
        "time": 11.438,
        "duration": 0.188,
        "velocity": 0.94,
        "hand": "left"
      },
      {
        "midi": 44,
        "time": 11.625,
        "duration": 0.375,
        "velocity": 0.79,
        "hand": "left"
      },
      {
        "midi": 51,
        "time": 11.625,
        "duration": 0.375,
        "velocity": 0.79,
        "hand": "left"
      },
      {
        "midi": 56,
        "time": 11.625,
        "duration": 0.375,
        "velocity": 0.79,
        "hand": "left"
      },
      {
        "midi": 44,
        "time": 11.813,
        "duration": 0.188,
        "velocity": 0.94,
        "hand": "left"
      },
      {
        "midi": 43,
        "time": 12,
        "duration": 0.375,
        "velocity": 0.87,
        "hand": "left"
      },
      {
        "midi": 75,
        "time": 12,
        "duration": 0.375,
        "velocity": 1,
        "hand": "right"
      },
      {
        "midi": 87,
        "time": 12,
        "duration": 0.375,
        "velocity": 0.55,
        "hand": "right"
      },
      {
        "midi": 51,
        "time": 12.188,
        "duration": 0.188,
        "velocity": 0.94,
        "hand": "left"
      },
      {
        "midi": 43,
        "time": 12.375,
        "duration": 0.375,
        "velocity": 0.87,
        "hand": "left"
      },
      {
        "midi": 51,
        "time": 12.375,
        "duration": 0.188,
        "velocity": 0.94,
        "hand": "left"
      },
      {
        "midi": 87,
        "time": 12.375,
        "duration": 0.375,
        "velocity": 0.55,
        "hand": "right"
      },
      {
        "midi": 53,
        "time": 12.563,
        "duration": 0.188,
        "velocity": 0.94,
        "hand": "left"
      },
      {
        "midi": 41,
        "time": 12.75,
        "duration": 0.375,
        "velocity": 0.87,
        "hand": "left"
      },
      {
        "midi": 55,
        "time": 12.75,
        "duration": 0.188,
        "velocity": 0.94,
        "hand": "left"
      },
      {
        "midi": 82,
        "time": 12.75,
        "duration": 0.375,
        "velocity": 0.55,
        "hand": "right"
      },
      {
        "midi": 39,
        "time": 13.5,
        "duration": 0.375,
        "velocity": 0.87,
        "hand": "left"
      },
      {
        "midi": 73,
        "time": 13.5,
        "duration": 0.188,
        "velocity": 1,
        "hand": "right"
      },
      {
        "midi": 85,
        "time": 13.5,
        "duration": 0.188,
        "velocity": 0.55,
        "hand": "right"
      },
      {
        "midi": 46,
        "time": 13.688,
        "duration": 0.188,
        "velocity": 0.94,
        "hand": "left"
      },
      {
        "midi": 72,
        "time": 13.688,
        "duration": 0.375,
        "velocity": 1,
        "hand": "right"
      },
      {
        "midi": 84,
        "time": 13.688,
        "duration": 0.375,
        "velocity": 0.55,
        "hand": "right"
      },
      {
        "midi": 43,
        "time": 13.875,
        "duration": 0.375,
        "velocity": 0.87,
        "hand": "left"
      },
      {
        "midi": 51,
        "time": 13.875,
        "duration": 0.375,
        "velocity": 0.87,
        "hand": "left"
      },
      {
        "midi": 46,
        "time": 14.063,
        "duration": 0.188,
        "velocity": 0.94,
        "hand": "left"
      },
      {
        "midi": 70,
        "time": 14.063,
        "duration": 0.188,
        "velocity": 1,
        "hand": "right"
      },
      {
        "midi": 82,
        "time": 14.063,
        "duration": 0.188,
        "velocity": 0.55,
        "hand": "right"
      },
      {
        "midi": 44,
        "time": 14.25,
        "duration": 0.375,
        "velocity": 0.87,
        "hand": "left"
      },
      {
        "midi": 68,
        "time": 14.25,
        "duration": 0.375,
        "velocity": 1,
        "hand": "right"
      },
      {
        "midi": 80,
        "time": 14.25,
        "duration": 0.375,
        "velocity": 0.55,
        "hand": "right"
      },
      {
        "midi": 48,
        "time": 14.438,
        "duration": 0.188,
        "velocity": 0.87,
        "hand": "left"
      },
      {
        "midi": 51,
        "time": 14.438,
        "duration": 0.188,
        "velocity": 0.94,
        "hand": "left"
      },
      {
        "midi": 44,
        "time": 14.625,
        "duration": 0.375,
        "velocity": 0.87,
        "hand": "left"
      },
      {
        "midi": 51,
        "time": 14.625,
        "duration": 0.188,
        "velocity": 0.94,
        "hand": "left"
      },
      {
        "midi": 80,
        "time": 14.625,
        "duration": 0.375,
        "velocity": 0.55,
        "hand": "right"
      },
      {
        "midi": 49,
        "time": 14.813,
        "duration": 0.188,
        "velocity": 0.63,
        "hand": "left"
      },
      {
        "midi": 46,
        "time": 15,
        "duration": 0.375,
        "velocity": 0.87,
        "hand": "left"
      },
      {
        "midi": 56,
        "time": 15,
        "duration": 0.375,
        "velocity": 0.87,
        "hand": "left"
      },
      {
        "midi": 84,
        "time": 15,
        "duration": 0.188,
        "velocity": 0.55,
        "hand": "right"
      },
      {
        "midi": 49,
        "time": 15.188,
        "duration": 0.188,
        "velocity": 0.94,
        "hand": "left"
      },
      {
        "midi": 68,
        "time": 15.188,
        "duration": 0.375,
        "velocity": 1,
        "hand": "right"
      },
      {
        "midi": 80,
        "time": 15.188,
        "duration": 0.375,
        "velocity": 0.55,
        "hand": "right"
      },
      {
        "midi": 49,
        "time": 15.375,
        "duration": 0.188,
        "velocity": 0.94,
        "hand": "left"
      },
      {
        "midi": 46,
        "time": 15.563,
        "duration": 0.375,
        "velocity": 0.87,
        "hand": "left"
      },
      {
        "midi": 56,
        "time": 15.563,
        "duration": 0.375,
        "velocity": 0.87,
        "hand": "left"
      },
      {
        "midi": 77,
        "time": 15.563,
        "duration": 0.188,
        "velocity": 0.55,
        "hand": "right"
      },
      {
        "midi": 49,
        "time": 15.75,
        "duration": 0.188,
        "velocity": 0.94,
        "hand": "left"
      },
      {
        "midi": 63,
        "time": 15.75,
        "duration": 0.375,
        "velocity": 1,
        "hand": "right"
      },
      {
        "midi": 75,
        "time": 15.75,
        "duration": 0.375,
        "velocity": 0.55,
        "hand": "right"
      },
      {
        "midi": 49,
        "time": 15.938,
        "duration": 0.188,
        "velocity": 0.94,
        "hand": "left"
      },
      {
        "midi": 37,
        "time": 16.125,
        "duration": 0.375,
        "velocity": 0.87,
        "hand": "left"
      },
      {
        "midi": 53,
        "time": 16.125,
        "duration": 0.375,
        "velocity": 0.87,
        "hand": "left"
      },
      {
        "midi": 75,
        "time": 16.125,
        "duration": 0.375,
        "velocity": 0.55,
        "hand": "right"
      },
      {
        "midi": 49,
        "time": 16.313,
        "duration": 0.188,
        "velocity": 0.94,
        "hand": "left"
      },
      {
        "midi": 39,
        "time": 16.5,
        "duration": 0.375,
        "velocity": 0.87,
        "hand": "left"
      },
      {
        "midi": 55,
        "time": 16.5,
        "duration": 0.375,
        "velocity": 0.87,
        "hand": "left"
      },
      {
        "midi": 75,
        "time": 16.5,
        "duration": 0.188,
        "velocity": 0.55,
        "hand": "right"
      },
      {
        "midi": 49,
        "time": 16.688,
        "duration": 0.188,
        "velocity": 0.94,
        "hand": "left"
      },
      {
        "midi": 65,
        "time": 16.688,
        "duration": 0.375,
        "velocity": 1,
        "hand": "right"
      },
      {
        "midi": 77,
        "time": 16.688,
        "duration": 0.375,
        "velocity": 0.55,
        "hand": "right"
      },
      {
        "midi": 49,
        "time": 16.875,
        "duration": 0.188,
        "velocity": 0.94,
        "hand": "left"
      },
      {
        "midi": 39,
        "time": 17.063,
        "duration": 0.375,
        "velocity": 0.87,
        "hand": "left"
      },
      {
        "midi": 55,
        "time": 17.063,
        "duration": 0.375,
        "velocity": 0.87,
        "hand": "left"
      },
      {
        "midi": 79,
        "time": 17.063,
        "duration": 0.188,
        "velocity": 0.55,
        "hand": "right"
      },
      {
        "midi": 49,
        "time": 17.25,
        "duration": 0.188,
        "velocity": 0.94,
        "hand": "left"
      },
      {
        "midi": 68,
        "time": 17.25,
        "duration": 0.375,
        "velocity": 1,
        "hand": "right"
      },
      {
        "midi": 80,
        "time": 17.25,
        "duration": 0.375,
        "velocity": 0.55,
        "hand": "right"
      },
      {
        "midi": 48,
        "time": 17.438,
        "duration": 0.188,
        "velocity": 0.94,
        "hand": "left"
      },
      {
        "midi": 44,
        "time": 17.625,
        "duration": 0.375,
        "velocity": 0.87,
        "hand": "left"
      },
      {
        "midi": 56,
        "time": 17.625,
        "duration": 0.375,
        "velocity": 0.87,
        "hand": "left"
      },
      {
        "midi": 80,
        "time": 17.625,
        "duration": 0.375,
        "velocity": 0.55,
        "hand": "right"
      },
      {
        "midi": 43,
        "time": 18,
        "duration": 0.375,
        "velocity": 0.87,
        "hand": "left"
      },
      {
        "midi": 75,
        "time": 18,
        "duration": 0.375,
        "velocity": 1,
        "hand": "right"
      },
      {
        "midi": 87,
        "time": 18,
        "duration": 0.375,
        "velocity": 0.55,
        "hand": "right"
      },
      {
        "midi": 51,
        "time": 18.188,
        "duration": 0.188,
        "velocity": 0.94,
        "hand": "left"
      },
      {
        "midi": 43,
        "time": 18.375,
        "duration": 0.375,
        "velocity": 0.87,
        "hand": "left"
      },
      {
        "midi": 51,
        "time": 18.375,
        "duration": 0.188,
        "velocity": 0.94,
        "hand": "left"
      },
      {
        "midi": 87,
        "time": 18.375,
        "duration": 0.375,
        "velocity": 0.55,
        "hand": "right"
      },
      {
        "midi": 53,
        "time": 18.563,
        "duration": 0.188,
        "velocity": 0.94,
        "hand": "left"
      },
      {
        "midi": 41,
        "time": 18.75,
        "duration": 0.375,
        "velocity": 0.87,
        "hand": "left"
      },
      {
        "midi": 55,
        "time": 18.75,
        "duration": 0.188,
        "velocity": 0.94,
        "hand": "left"
      },
      {
        "midi": 82,
        "time": 18.75,
        "duration": 0.375,
        "velocity": 0.55,
        "hand": "right"
      },
      {
        "midi": 39,
        "time": 19.5,
        "duration": 0.375,
        "velocity": 0.87,
        "hand": "left"
      },
      {
        "midi": 73,
        "time": 19.5,
        "duration": 0.188,
        "velocity": 1,
        "hand": "right"
      },
      {
        "midi": 85,
        "time": 19.5,
        "duration": 0.188,
        "velocity": 0.55,
        "hand": "right"
      },
      {
        "midi": 46,
        "time": 19.688,
        "duration": 0.188,
        "velocity": 0.94,
        "hand": "left"
      },
      {
        "midi": 72,
        "time": 19.688,
        "duration": 0.375,
        "velocity": 1,
        "hand": "right"
      },
      {
        "midi": 84,
        "time": 19.688,
        "duration": 0.375,
        "velocity": 0.55,
        "hand": "right"
      },
      {
        "midi": 43,
        "time": 19.875,
        "duration": 0.375,
        "velocity": 0.87,
        "hand": "left"
      },
      {
        "midi": 51,
        "time": 19.875,
        "duration": 0.375,
        "velocity": 0.87,
        "hand": "left"
      },
      {
        "midi": 46,
        "time": 20.063,
        "duration": 0.188,
        "velocity": 0.94,
        "hand": "left"
      },
      {
        "midi": 70,
        "time": 20.063,
        "duration": 0.188,
        "velocity": 1,
        "hand": "right"
      },
      {
        "midi": 82,
        "time": 20.063,
        "duration": 0.188,
        "velocity": 0.55,
        "hand": "right"
      },
      {
        "midi": 44,
        "time": 20.25,
        "duration": 0.375,
        "velocity": 0.87,
        "hand": "left"
      },
      {
        "midi": 68,
        "time": 20.25,
        "duration": 0.375,
        "velocity": 1,
        "hand": "right"
      },
      {
        "midi": 80,
        "time": 20.25,
        "duration": 0.375,
        "velocity": 0.55,
        "hand": "right"
      },
      {
        "midi": 48,
        "time": 20.438,
        "duration": 0.188,
        "velocity": 0.87,
        "hand": "left"
      },
      {
        "midi": 51,
        "time": 20.438,
        "duration": 0.188,
        "velocity": 0.94,
        "hand": "left"
      },
      {
        "midi": 44,
        "time": 20.625,
        "duration": 0.375,
        "velocity": 0.87,
        "hand": "left"
      },
      {
        "midi": 51,
        "time": 20.625,
        "duration": 0.188,
        "velocity": 0.94,
        "hand": "left"
      },
      {
        "midi": 80,
        "time": 20.625,
        "duration": 0.375,
        "velocity": 0.55,
        "hand": "right"
      },
      {
        "midi": 49,
        "time": 20.813,
        "duration": 0.188,
        "velocity": 0.63,
        "hand": "left"
      },
      {
        "midi": 46,
        "time": 21,
        "duration": 0.375,
        "velocity": 0.87,
        "hand": "left"
      },
      {
        "midi": 56,
        "time": 21,
        "duration": 0.375,
        "velocity": 0.87,
        "hand": "left"
      },
      {
        "midi": 84,
        "time": 21,
        "duration": 0.188,
        "velocity": 0.55,
        "hand": "right"
      },
      {
        "midi": 49,
        "time": 21.188,
        "duration": 0.188,
        "velocity": 0.94,
        "hand": "left"
      },
      {
        "midi": 68,
        "time": 21.188,
        "duration": 0.375,
        "velocity": 1,
        "hand": "right"
      },
      {
        "midi": 80,
        "time": 21.188,
        "duration": 0.375,
        "velocity": 0.55,
        "hand": "right"
      },
      {
        "midi": 49,
        "time": 21.375,
        "duration": 0.188,
        "velocity": 0.94,
        "hand": "left"
      },
      {
        "midi": 46,
        "time": 21.563,
        "duration": 0.375,
        "velocity": 0.87,
        "hand": "left"
      },
      {
        "midi": 56,
        "time": 21.563,
        "duration": 0.375,
        "velocity": 0.87,
        "hand": "left"
      },
      {
        "midi": 77,
        "time": 21.563,
        "duration": 0.188,
        "velocity": 0.55,
        "hand": "right"
      },
      {
        "midi": 49,
        "time": 21.75,
        "duration": 0.188,
        "velocity": 0.94,
        "hand": "left"
      },
      {
        "midi": 63,
        "time": 21.75,
        "duration": 0.375,
        "velocity": 1,
        "hand": "right"
      },
      {
        "midi": 75,
        "time": 21.75,
        "duration": 0.375,
        "velocity": 0.55,
        "hand": "right"
      },
      {
        "midi": 49,
        "time": 21.938,
        "duration": 0.188,
        "velocity": 0.94,
        "hand": "left"
      },
      {
        "midi": 37,
        "time": 22.125,
        "duration": 0.375,
        "velocity": 0.87,
        "hand": "left"
      },
      {
        "midi": 53,
        "time": 22.125,
        "duration": 0.375,
        "velocity": 0.87,
        "hand": "left"
      },
      {
        "midi": 75,
        "time": 22.125,
        "duration": 0.375,
        "velocity": 0.55,
        "hand": "right"
      },
      {
        "midi": 49,
        "time": 22.313,
        "duration": 0.188,
        "velocity": 0.94,
        "hand": "left"
      },
      {
        "midi": 39,
        "time": 22.5,
        "duration": 0.375,
        "velocity": 0.87,
        "hand": "left"
      },
      {
        "midi": 55,
        "time": 22.5,
        "duration": 0.375,
        "velocity": 0.87,
        "hand": "left"
      },
      {
        "midi": 75,
        "time": 22.5,
        "duration": 0.188,
        "velocity": 0.55,
        "hand": "right"
      },
      {
        "midi": 49,
        "time": 22.688,
        "duration": 0.188,
        "velocity": 0.94,
        "hand": "left"
      },
      {
        "midi": 65,
        "time": 22.688,
        "duration": 0.375,
        "velocity": 1,
        "hand": "right"
      },
      {
        "midi": 77,
        "time": 22.688,
        "duration": 0.375,
        "velocity": 0.55,
        "hand": "right"
      },
      {
        "midi": 49,
        "time": 22.875,
        "duration": 0.188,
        "velocity": 0.94,
        "hand": "left"
      },
      {
        "midi": 39,
        "time": 23.063,
        "duration": 0.375,
        "velocity": 0.87,
        "hand": "left"
      },
      {
        "midi": 55,
        "time": 23.063,
        "duration": 0.375,
        "velocity": 0.87,
        "hand": "left"
      },
      {
        "midi": 79,
        "time": 23.063,
        "duration": 0.188,
        "velocity": 0.55,
        "hand": "right"
      },
      {
        "midi": 49,
        "time": 23.25,
        "duration": 0.188,
        "velocity": 0.94,
        "hand": "left"
      },
      {
        "midi": 68,
        "time": 23.25,
        "duration": 0.375,
        "velocity": 1,
        "hand": "right"
      },
      {
        "midi": 80,
        "time": 23.25,
        "duration": 0.375,
        "velocity": 0.55,
        "hand": "right"
      },
      {
        "midi": 48,
        "time": 23.438,
        "duration": 0.188,
        "velocity": 0.94,
        "hand": "left"
      },
      {
        "midi": 44,
        "time": 23.625,
        "duration": 0.375,
        "velocity": 0.87,
        "hand": "left"
      },
      {
        "midi": 56,
        "time": 23.625,
        "duration": 0.375,
        "velocity": 0.87,
        "hand": "left"
      },
      {
        "midi": 80,
        "time": 23.625,
        "duration": 0.375,
        "velocity": 0.55,
        "hand": "right"
      }
    ],
    "hard": [
      {
        "midi": 44,
        "time": 0,
        "duration": 0.375,
        "velocity": 0.79,
        "hand": "left"
      },
      {
        "midi": 51,
        "time": 0,
        "duration": 0.375,
        "velocity": 0.79,
        "hand": "left"
      },
      {
        "midi": 56,
        "time": 0,
        "duration": 0.375,
        "velocity": 0.79,
        "hand": "left"
      },
      {
        "midi": 68,
        "time": 0,
        "duration": 0.375,
        "velocity": 1,
        "hand": "right"
      },
      {
        "midi": 80,
        "time": 0,
        "duration": 0.375,
        "velocity": 0.55,
        "hand": "right"
      },
      {
        "midi": 48,
        "time": 0.188,
        "duration": 0.188,
        "velocity": 0.94,
        "hand": "left"
      },
      {
        "midi": 48,
        "time": 0.375,
        "duration": 0.188,
        "velocity": 0.94,
        "hand": "left"
      },
      {
        "midi": 68,
        "time": 0.375,
        "duration": 0.375,
        "velocity": 1,
        "hand": "right"
      },
      {
        "midi": 80,
        "time": 0.375,
        "duration": 0.375,
        "velocity": 0.55,
        "hand": "right"
      },
      {
        "midi": 44,
        "time": 0.563,
        "duration": 0.375,
        "velocity": 0.79,
        "hand": "left"
      },
      {
        "midi": 51,
        "time": 0.563,
        "duration": 0.375,
        "velocity": 0.79,
        "hand": "left"
      },
      {
        "midi": 56,
        "time": 0.563,
        "duration": 0.375,
        "velocity": 0.79,
        "hand": "left"
      },
      {
        "midi": 48,
        "time": 0.75,
        "duration": 0.188,
        "velocity": 0.94,
        "hand": "left"
      },
      {
        "midi": 68,
        "time": 0.75,
        "duration": 0.188,
        "velocity": 1,
        "hand": "right"
      },
      {
        "midi": 80,
        "time": 0.75,
        "duration": 0.188,
        "velocity": 0.55,
        "hand": "right"
      },
      {
        "midi": 48,
        "time": 0.938,
        "duration": 0.188,
        "velocity": 0.94,
        "hand": "left"
      },
      {
        "midi": 68,
        "time": 0.938,
        "duration": 0.375,
        "velocity": 1,
        "hand": "right"
      },
      {
        "midi": 80,
        "time": 0.938,
        "duration": 0.375,
        "velocity": 0.55,
        "hand": "right"
      },
      {
        "midi": 44,
        "time": 1.125,
        "duration": 0.375,
        "velocity": 0.79,
        "hand": "left"
      },
      {
        "midi": 51,
        "time": 1.125,
        "duration": 0.375,
        "velocity": 0.79,
        "hand": "left"
      },
      {
        "midi": 56,
        "time": 1.125,
        "duration": 0.375,
        "velocity": 0.79,
        "hand": "left"
      },
      {
        "midi": 48,
        "time": 1.313,
        "duration": 0.188,
        "velocity": 0.94,
        "hand": "left"
      },
      {
        "midi": 72,
        "time": 1.313,
        "duration": 0.188,
        "velocity": 1,
        "hand": "right"
      },
      {
        "midi": 84,
        "time": 1.313,
        "duration": 0.188,
        "velocity": 0.55,
        "hand": "right"
      },
      {
        "midi": 39,
        "time": 1.5,
        "duration": 0.375,
        "velocity": 0.79,
        "hand": "left"
      },
      {
        "midi": 51,
        "time": 1.5,
        "duration": 0.375,
        "velocity": 0.79,
        "hand": "left"
      },
      {
        "midi": 55,
        "time": 1.5,
        "duration": 0.375,
        "velocity": 0.79,
        "hand": "left"
      },
      {
        "midi": 70,
        "time": 1.5,
        "duration": 0.188,
        "velocity": 1,
        "hand": "right"
      },
      {
        "midi": 82,
        "time": 1.5,
        "duration": 0.188,
        "velocity": 0.55,
        "hand": "right"
      },
      {
        "midi": 46,
        "time": 1.688,
        "duration": 0.188,
        "velocity": 0.94,
        "hand": "left"
      },
      {
        "midi": 70,
        "time": 1.688,
        "duration": 0.375,
        "velocity": 1,
        "hand": "right"
      },
      {
        "midi": 82,
        "time": 1.688,
        "duration": 0.375,
        "velocity": 0.55,
        "hand": "right"
      },
      {
        "midi": 46,
        "time": 1.875,
        "duration": 0.188,
        "velocity": 0.94,
        "hand": "left"
      },
      {
        "midi": 39,
        "time": 2.063,
        "duration": 0.375,
        "velocity": 0.79,
        "hand": "left"
      },
      {
        "midi": 51,
        "time": 2.063,
        "duration": 0.375,
        "velocity": 0.79,
        "hand": "left"
      },
      {
        "midi": 55,
        "time": 2.063,
        "duration": 0.375,
        "velocity": 0.79,
        "hand": "left"
      },
      {
        "midi": 67,
        "time": 2.063,
        "duration": 0.188,
        "velocity": 1,
        "hand": "right"
      },
      {
        "midi": 79,
        "time": 2.063,
        "duration": 0.188,
        "velocity": 0.55,
        "hand": "right"
      },
      {
        "midi": 46,
        "time": 2.25,
        "duration": 0.188,
        "velocity": 0.94,
        "hand": "left"
      },
      {
        "midi": 63,
        "time": 2.25,
        "duration": 0.375,
        "velocity": 1,
        "hand": "right"
      },
      {
        "midi": 75,
        "time": 2.25,
        "duration": 0.375,
        "velocity": 0.55,
        "hand": "right"
      },
      {
        "midi": 46,
        "time": 2.438,
        "duration": 0.188,
        "velocity": 0.94,
        "hand": "left"
      },
      {
        "midi": 39,
        "time": 2.625,
        "duration": 0.375,
        "velocity": 0.79,
        "hand": "left"
      },
      {
        "midi": 51,
        "time": 2.625,
        "duration": 0.375,
        "velocity": 0.79,
        "hand": "left"
      },
      {
        "midi": 55,
        "time": 2.625,
        "duration": 0.375,
        "velocity": 0.79,
        "hand": "left"
      },
      {
        "midi": 63,
        "time": 2.625,
        "duration": 0.375,
        "velocity": 1,
        "hand": "right"
      },
      {
        "midi": 75,
        "time": 2.625,
        "duration": 0.375,
        "velocity": 0.55,
        "hand": "right"
      },
      {
        "midi": 46,
        "time": 2.813,
        "duration": 0.188,
        "velocity": 0.94,
        "hand": "left"
      },
      {
        "midi": 39,
        "time": 3,
        "duration": 0.375,
        "velocity": 0.79,
        "hand": "left"
      },
      {
        "midi": 51,
        "time": 3,
        "duration": 0.375,
        "velocity": 0.79,
        "hand": "left"
      },
      {
        "midi": 55,
        "time": 3,
        "duration": 0.375,
        "velocity": 0.79,
        "hand": "left"
      },
      {
        "midi": 70,
        "time": 3,
        "duration": 0.375,
        "velocity": 1,
        "hand": "right"
      },
      {
        "midi": 82,
        "time": 3,
        "duration": 0.375,
        "velocity": 0.55,
        "hand": "right"
      },
      {
        "midi": 49,
        "time": 3.188,
        "duration": 0.188,
        "velocity": 0.94,
        "hand": "left"
      },
      {
        "midi": 49,
        "time": 3.375,
        "duration": 0.188,
        "velocity": 0.94,
        "hand": "left"
      },
      {
        "midi": 70,
        "time": 3.375,
        "duration": 0.375,
        "velocity": 1,
        "hand": "right"
      },
      {
        "midi": 82,
        "time": 3.375,
        "duration": 0.375,
        "velocity": 0.55,
        "hand": "right"
      },
      {
        "midi": 39,
        "time": 3.563,
        "duration": 0.375,
        "velocity": 0.79,
        "hand": "left"
      },
      {
        "midi": 51,
        "time": 3.563,
        "duration": 0.375,
        "velocity": 0.79,
        "hand": "left"
      },
      {
        "midi": 55,
        "time": 3.563,
        "duration": 0.375,
        "velocity": 0.79,
        "hand": "left"
      },
      {
        "midi": 49,
        "time": 3.75,
        "duration": 0.188,
        "velocity": 0.94,
        "hand": "left"
      },
      {
        "midi": 75,
        "time": 3.75,
        "duration": 0.375,
        "velocity": 1,
        "hand": "right"
      },
      {
        "midi": 87,
        "time": 3.75,
        "duration": 0.375,
        "velocity": 0.55,
        "hand": "right"
      },
      {
        "midi": 49,
        "time": 3.938,
        "duration": 0.188,
        "velocity": 0.94,
        "hand": "left"
      },
      {
        "midi": 39,
        "time": 4.125,
        "duration": 0.375,
        "velocity": 0.79,
        "hand": "left"
      },
      {
        "midi": 51,
        "time": 4.125,
        "duration": 0.375,
        "velocity": 0.79,
        "hand": "left"
      },
      {
        "midi": 55,
        "time": 4.125,
        "duration": 0.375,
        "velocity": 0.79,
        "hand": "left"
      },
      {
        "midi": 75,
        "time": 4.125,
        "duration": 0.375,
        "velocity": 1,
        "hand": "right"
      },
      {
        "midi": 87,
        "time": 4.125,
        "duration": 0.375,
        "velocity": 0.55,
        "hand": "right"
      },
      {
        "midi": 49,
        "time": 4.313,
        "duration": 0.188,
        "velocity": 0.94,
        "hand": "left"
      },
      {
        "midi": 44,
        "time": 4.5,
        "duration": 0.375,
        "velocity": 0.79,
        "hand": "left"
      },
      {
        "midi": 51,
        "time": 4.5,
        "duration": 0.375,
        "velocity": 0.79,
        "hand": "left"
      },
      {
        "midi": 56,
        "time": 4.5,
        "duration": 0.375,
        "velocity": 0.79,
        "hand": "left"
      },
      {
        "midi": 72,
        "time": 4.5,
        "duration": 0.563,
        "velocity": 1,
        "hand": "right"
      },
      {
        "midi": 84,
        "time": 4.5,
        "duration": 0.563,
        "velocity": 0.55,
        "hand": "right"
      },
      {
        "midi": 48,
        "time": 4.688,
        "duration": 0.188,
        "velocity": 0.94,
        "hand": "left"
      },
      {
        "midi": 48,
        "time": 4.875,
        "duration": 0.188,
        "velocity": 0.94,
        "hand": "left"
      },
      {
        "midi": 44,
        "time": 5.063,
        "duration": 0.375,
        "velocity": 0.79,
        "hand": "left"
      },
      {
        "midi": 51,
        "time": 5.063,
        "duration": 0.375,
        "velocity": 0.79,
        "hand": "left"
      },
      {
        "midi": 53,
        "time": 5.063,
        "duration": 0.188,
        "velocity": 0.94,
        "hand": "left"
      },
      {
        "midi": 56,
        "time": 5.063,
        "duration": 0.375,
        "velocity": 0.79,
        "hand": "left"
      },
      {
        "midi": 51,
        "time": 5.25,
        "duration": 0.188,
        "velocity": 0.94,
        "hand": "left"
      },
      {
        "midi": 68,
        "time": 5.25,
        "duration": 0.563,
        "velocity": 1,
        "hand": "right"
      },
      {
        "midi": 80,
        "time": 5.25,
        "duration": 0.563,
        "velocity": 0.55,
        "hand": "right"
      },
      {
        "midi": 49,
        "time": 5.438,
        "duration": 0.188,
        "velocity": 0.94,
        "hand": "left"
      },
      {
        "midi": 44,
        "time": 5.625,
        "duration": 0.375,
        "velocity": 0.79,
        "hand": "left"
      },
      {
        "midi": 48,
        "time": 5.625,
        "duration": 0.188,
        "velocity": 0.94,
        "hand": "left"
      },
      {
        "midi": 51,
        "time": 5.625,
        "duration": 0.375,
        "velocity": 0.79,
        "hand": "left"
      },
      {
        "midi": 56,
        "time": 5.625,
        "duration": 0.375,
        "velocity": 0.79,
        "hand": "left"
      },
      {
        "midi": 46,
        "time": 5.813,
        "duration": 0.188,
        "velocity": 0.94,
        "hand": "left"
      },
      {
        "midi": 44,
        "time": 6,
        "duration": 0.375,
        "velocity": 0.79,
        "hand": "left"
      },
      {
        "midi": 51,
        "time": 6,
        "duration": 0.375,
        "velocity": 0.79,
        "hand": "left"
      },
      {
        "midi": 56,
        "time": 6,
        "duration": 0.375,
        "velocity": 0.79,
        "hand": "left"
      },
      {
        "midi": 68,
        "time": 6,
        "duration": 0.375,
        "velocity": 1,
        "hand": "right"
      },
      {
        "midi": 80,
        "time": 6,
        "duration": 0.375,
        "velocity": 0.55,
        "hand": "right"
      },
      {
        "midi": 48,
        "time": 6.188,
        "duration": 0.188,
        "velocity": 0.94,
        "hand": "left"
      },
      {
        "midi": 48,
        "time": 6.375,
        "duration": 0.188,
        "velocity": 0.94,
        "hand": "left"
      },
      {
        "midi": 68,
        "time": 6.375,
        "duration": 0.375,
        "velocity": 1,
        "hand": "right"
      },
      {
        "midi": 80,
        "time": 6.375,
        "duration": 0.375,
        "velocity": 0.55,
        "hand": "right"
      },
      {
        "midi": 44,
        "time": 6.563,
        "duration": 0.375,
        "velocity": 0.79,
        "hand": "left"
      },
      {
        "midi": 51,
        "time": 6.563,
        "duration": 0.375,
        "velocity": 0.79,
        "hand": "left"
      },
      {
        "midi": 56,
        "time": 6.563,
        "duration": 0.375,
        "velocity": 0.79,
        "hand": "left"
      },
      {
        "midi": 48,
        "time": 6.75,
        "duration": 0.188,
        "velocity": 0.94,
        "hand": "left"
      },
      {
        "midi": 68,
        "time": 6.75,
        "duration": 0.188,
        "velocity": 1,
        "hand": "right"
      },
      {
        "midi": 80,
        "time": 6.75,
        "duration": 0.188,
        "velocity": 0.55,
        "hand": "right"
      },
      {
        "midi": 48,
        "time": 6.938,
        "duration": 0.188,
        "velocity": 0.94,
        "hand": "left"
      },
      {
        "midi": 68,
        "time": 6.938,
        "duration": 0.375,
        "velocity": 1,
        "hand": "right"
      },
      {
        "midi": 80,
        "time": 6.938,
        "duration": 0.375,
        "velocity": 0.55,
        "hand": "right"
      },
      {
        "midi": 44,
        "time": 7.125,
        "duration": 0.375,
        "velocity": 0.79,
        "hand": "left"
      },
      {
        "midi": 51,
        "time": 7.125,
        "duration": 0.375,
        "velocity": 0.79,
        "hand": "left"
      },
      {
        "midi": 56,
        "time": 7.125,
        "duration": 0.375,
        "velocity": 0.79,
        "hand": "left"
      },
      {
        "midi": 48,
        "time": 7.313,
        "duration": 0.188,
        "velocity": 0.94,
        "hand": "left"
      },
      {
        "midi": 72,
        "time": 7.313,
        "duration": 0.188,
        "velocity": 1,
        "hand": "right"
      },
      {
        "midi": 84,
        "time": 7.313,
        "duration": 0.188,
        "velocity": 0.55,
        "hand": "right"
      },
      {
        "midi": 39,
        "time": 7.5,
        "duration": 0.375,
        "velocity": 0.79,
        "hand": "left"
      },
      {
        "midi": 51,
        "time": 7.5,
        "duration": 0.375,
        "velocity": 0.79,
        "hand": "left"
      },
      {
        "midi": 55,
        "time": 7.5,
        "duration": 0.375,
        "velocity": 0.79,
        "hand": "left"
      },
      {
        "midi": 70,
        "time": 7.5,
        "duration": 0.188,
        "velocity": 1,
        "hand": "right"
      },
      {
        "midi": 82,
        "time": 7.5,
        "duration": 0.188,
        "velocity": 0.55,
        "hand": "right"
      },
      {
        "midi": 46,
        "time": 7.688,
        "duration": 0.188,
        "velocity": 0.94,
        "hand": "left"
      },
      {
        "midi": 70,
        "time": 7.688,
        "duration": 0.375,
        "velocity": 1,
        "hand": "right"
      },
      {
        "midi": 82,
        "time": 7.688,
        "duration": 0.375,
        "velocity": 0.55,
        "hand": "right"
      },
      {
        "midi": 46,
        "time": 7.875,
        "duration": 0.188,
        "velocity": 0.94,
        "hand": "left"
      },
      {
        "midi": 39,
        "time": 8.063,
        "duration": 0.375,
        "velocity": 0.79,
        "hand": "left"
      },
      {
        "midi": 51,
        "time": 8.063,
        "duration": 0.375,
        "velocity": 0.79,
        "hand": "left"
      },
      {
        "midi": 55,
        "time": 8.063,
        "duration": 0.375,
        "velocity": 0.79,
        "hand": "left"
      },
      {
        "midi": 67,
        "time": 8.063,
        "duration": 0.188,
        "velocity": 1,
        "hand": "right"
      },
      {
        "midi": 79,
        "time": 8.063,
        "duration": 0.188,
        "velocity": 0.55,
        "hand": "right"
      },
      {
        "midi": 46,
        "time": 8.25,
        "duration": 0.188,
        "velocity": 0.94,
        "hand": "left"
      },
      {
        "midi": 63,
        "time": 8.25,
        "duration": 0.375,
        "velocity": 1,
        "hand": "right"
      },
      {
        "midi": 75,
        "time": 8.25,
        "duration": 0.375,
        "velocity": 0.55,
        "hand": "right"
      },
      {
        "midi": 46,
        "time": 8.438,
        "duration": 0.188,
        "velocity": 0.94,
        "hand": "left"
      },
      {
        "midi": 39,
        "time": 8.625,
        "duration": 0.375,
        "velocity": 0.79,
        "hand": "left"
      },
      {
        "midi": 51,
        "time": 8.625,
        "duration": 0.375,
        "velocity": 0.79,
        "hand": "left"
      },
      {
        "midi": 55,
        "time": 8.625,
        "duration": 0.375,
        "velocity": 0.79,
        "hand": "left"
      },
      {
        "midi": 63,
        "time": 8.625,
        "duration": 0.375,
        "velocity": 1,
        "hand": "right"
      },
      {
        "midi": 75,
        "time": 8.625,
        "duration": 0.375,
        "velocity": 0.55,
        "hand": "right"
      },
      {
        "midi": 46,
        "time": 8.813,
        "duration": 0.188,
        "velocity": 0.94,
        "hand": "left"
      },
      {
        "midi": 39,
        "time": 9,
        "duration": 0.375,
        "velocity": 0.79,
        "hand": "left"
      },
      {
        "midi": 51,
        "time": 9,
        "duration": 0.375,
        "velocity": 0.79,
        "hand": "left"
      },
      {
        "midi": 55,
        "time": 9,
        "duration": 0.375,
        "velocity": 0.79,
        "hand": "left"
      },
      {
        "midi": 70,
        "time": 9,
        "duration": 0.375,
        "velocity": 1,
        "hand": "right"
      },
      {
        "midi": 82,
        "time": 9,
        "duration": 0.375,
        "velocity": 0.55,
        "hand": "right"
      },
      {
        "midi": 49,
        "time": 9.188,
        "duration": 0.188,
        "velocity": 0.94,
        "hand": "left"
      },
      {
        "midi": 49,
        "time": 9.375,
        "duration": 0.188,
        "velocity": 0.94,
        "hand": "left"
      },
      {
        "midi": 70,
        "time": 9.375,
        "duration": 0.375,
        "velocity": 1,
        "hand": "right"
      },
      {
        "midi": 82,
        "time": 9.375,
        "duration": 0.375,
        "velocity": 0.55,
        "hand": "right"
      },
      {
        "midi": 39,
        "time": 9.563,
        "duration": 0.375,
        "velocity": 0.79,
        "hand": "left"
      },
      {
        "midi": 51,
        "time": 9.563,
        "duration": 0.375,
        "velocity": 0.79,
        "hand": "left"
      },
      {
        "midi": 55,
        "time": 9.563,
        "duration": 0.375,
        "velocity": 0.79,
        "hand": "left"
      },
      {
        "midi": 49,
        "time": 9.75,
        "duration": 0.188,
        "velocity": 0.94,
        "hand": "left"
      },
      {
        "midi": 75,
        "time": 9.75,
        "duration": 0.375,
        "velocity": 1,
        "hand": "right"
      },
      {
        "midi": 87,
        "time": 9.75,
        "duration": 0.375,
        "velocity": 0.55,
        "hand": "right"
      },
      {
        "midi": 49,
        "time": 9.938,
        "duration": 0.188,
        "velocity": 0.94,
        "hand": "left"
      },
      {
        "midi": 39,
        "time": 10.125,
        "duration": 0.375,
        "velocity": 0.79,
        "hand": "left"
      },
      {
        "midi": 51,
        "time": 10.125,
        "duration": 0.375,
        "velocity": 0.79,
        "hand": "left"
      },
      {
        "midi": 55,
        "time": 10.125,
        "duration": 0.375,
        "velocity": 0.79,
        "hand": "left"
      },
      {
        "midi": 75,
        "time": 10.125,
        "duration": 0.375,
        "velocity": 1,
        "hand": "right"
      },
      {
        "midi": 87,
        "time": 10.125,
        "duration": 0.375,
        "velocity": 0.55,
        "hand": "right"
      },
      {
        "midi": 49,
        "time": 10.313,
        "duration": 0.188,
        "velocity": 0.94,
        "hand": "left"
      },
      {
        "midi": 44,
        "time": 10.5,
        "duration": 0.375,
        "velocity": 0.79,
        "hand": "left"
      },
      {
        "midi": 51,
        "time": 10.5,
        "duration": 0.375,
        "velocity": 0.79,
        "hand": "left"
      },
      {
        "midi": 56,
        "time": 10.5,
        "duration": 0.375,
        "velocity": 0.79,
        "hand": "left"
      },
      {
        "midi": 72,
        "time": 10.5,
        "duration": 0.563,
        "velocity": 1,
        "hand": "right"
      },
      {
        "midi": 84,
        "time": 10.5,
        "duration": 0.563,
        "velocity": 0.55,
        "hand": "right"
      },
      {
        "midi": 48,
        "time": 10.688,
        "duration": 0.188,
        "velocity": 0.94,
        "hand": "left"
      },
      {
        "midi": 48,
        "time": 10.875,
        "duration": 0.188,
        "velocity": 0.94,
        "hand": "left"
      },
      {
        "midi": 44,
        "time": 11.063,
        "duration": 0.375,
        "velocity": 0.79,
        "hand": "left"
      },
      {
        "midi": 51,
        "time": 11.063,
        "duration": 0.375,
        "velocity": 0.79,
        "hand": "left"
      },
      {
        "midi": 51,
        "time": 11.063,
        "duration": 0.188,
        "velocity": 0.94,
        "hand": "left"
      },
      {
        "midi": 56,
        "time": 11.063,
        "duration": 0.375,
        "velocity": 0.79,
        "hand": "left"
      },
      {
        "midi": 49,
        "time": 11.25,
        "duration": 0.188,
        "velocity": 0.94,
        "hand": "left"
      },
      {
        "midi": 68,
        "time": 11.25,
        "duration": 0.563,
        "velocity": 1,
        "hand": "right"
      },
      {
        "midi": 80,
        "time": 11.25,
        "duration": 0.563,
        "velocity": 0.55,
        "hand": "right"
      },
      {
        "midi": 48,
        "time": 11.438,
        "duration": 0.188,
        "velocity": 0.94,
        "hand": "left"
      },
      {
        "midi": 44,
        "time": 11.625,
        "duration": 0.375,
        "velocity": 0.79,
        "hand": "left"
      },
      {
        "midi": 46,
        "time": 11.625,
        "duration": 0.188,
        "velocity": 0.94,
        "hand": "left"
      },
      {
        "midi": 51,
        "time": 11.625,
        "duration": 0.375,
        "velocity": 0.79,
        "hand": "left"
      },
      {
        "midi": 56,
        "time": 11.625,
        "duration": 0.375,
        "velocity": 0.79,
        "hand": "left"
      },
      {
        "midi": 44,
        "time": 11.813,
        "duration": 0.188,
        "velocity": 0.94,
        "hand": "left"
      },
      {
        "midi": 43,
        "time": 12,
        "duration": 0.375,
        "velocity": 0.87,
        "hand": "left"
      },
      {
        "midi": 46,
        "time": 12,
        "duration": 0.375,
        "velocity": 0.87,
        "hand": "left"
      },
      {
        "midi": 75,
        "time": 12,
        "duration": 0.375,
        "velocity": 1,
        "hand": "right"
      },
      {
        "midi": 87,
        "time": 12,
        "duration": 0.375,
        "velocity": 0.55,
        "hand": "right"
      },
      {
        "midi": 51,
        "time": 12.188,
        "duration": 0.188,
        "velocity": 0.94,
        "hand": "left"
      },
      {
        "midi": 43,
        "time": 12.375,
        "duration": 0.375,
        "velocity": 0.87,
        "hand": "left"
      },
      {
        "midi": 46,
        "time": 12.375,
        "duration": 0.375,
        "velocity": 0.87,
        "hand": "left"
      },
      {
        "midi": 51,
        "time": 12.375,
        "duration": 0.188,
        "velocity": 0.94,
        "hand": "left"
      },
      {
        "midi": 75,
        "time": 12.375,
        "duration": 0.375,
        "velocity": 1,
        "hand": "right"
      },
      {
        "midi": 87,
        "time": 12.375,
        "duration": 0.375,
        "velocity": 0.55,
        "hand": "right"
      },
      {
        "midi": 53,
        "time": 12.563,
        "duration": 0.188,
        "velocity": 0.94,
        "hand": "left"
      },
      {
        "midi": 41,
        "time": 12.75,
        "duration": 0.375,
        "velocity": 0.87,
        "hand": "left"
      },
      {
        "midi": 49,
        "time": 12.75,
        "duration": 0.375,
        "velocity": 0.87,
        "hand": "left"
      },
      {
        "midi": 55,
        "time": 12.75,
        "duration": 0.188,
        "velocity": 0.94,
        "hand": "left"
      },
      {
        "midi": 70,
        "time": 12.75,
        "duration": 0.375,
        "velocity": 1,
        "hand": "right"
      },
      {
        "midi": 82,
        "time": 12.75,
        "duration": 0.375,
        "velocity": 0.55,
        "hand": "right"
      },
      {
        "midi": 39,
        "time": 13.5,
        "duration": 0.375,
        "velocity": 0.87,
        "hand": "left"
      },
      {
        "midi": 53,
        "time": 13.5,
        "duration": 0.375,
        "velocity": 0.87,
        "hand": "left"
      },
      {
        "midi": 73,
        "time": 13.5,
        "duration": 0.188,
        "velocity": 1,
        "hand": "right"
      },
      {
        "midi": 85,
        "time": 13.5,
        "duration": 0.188,
        "velocity": 0.55,
        "hand": "right"
      },
      {
        "midi": 46,
        "time": 13.688,
        "duration": 0.188,
        "velocity": 0.94,
        "hand": "left"
      },
      {
        "midi": 72,
        "time": 13.688,
        "duration": 0.375,
        "velocity": 1,
        "hand": "right"
      },
      {
        "midi": 84,
        "time": 13.688,
        "duration": 0.375,
        "velocity": 0.55,
        "hand": "right"
      },
      {
        "midi": 43,
        "time": 13.875,
        "duration": 0.375,
        "velocity": 0.87,
        "hand": "left"
      },
      {
        "midi": 51,
        "time": 13.875,
        "duration": 0.375,
        "velocity": 0.87,
        "hand": "left"
      },
      {
        "midi": 46,
        "time": 14.063,
        "duration": 0.188,
        "velocity": 0.94,
        "hand": "left"
      },
      {
        "midi": 70,
        "time": 14.063,
        "duration": 0.188,
        "velocity": 1,
        "hand": "right"
      },
      {
        "midi": 82,
        "time": 14.063,
        "duration": 0.188,
        "velocity": 0.55,
        "hand": "right"
      },
      {
        "midi": 44,
        "time": 14.25,
        "duration": 0.375,
        "velocity": 0.87,
        "hand": "left"
      },
      {
        "midi": 49,
        "time": 14.25,
        "duration": 0.188,
        "velocity": 0.87,
        "hand": "left"
      },
      {
        "midi": 68,
        "time": 14.25,
        "duration": 0.375,
        "velocity": 1,
        "hand": "right"
      },
      {
        "midi": 80,
        "time": 14.25,
        "duration": 0.375,
        "velocity": 0.55,
        "hand": "right"
      },
      {
        "midi": 48,
        "time": 14.438,
        "duration": 0.188,
        "velocity": 0.87,
        "hand": "left"
      },
      {
        "midi": 51,
        "time": 14.438,
        "duration": 0.188,
        "velocity": 0.94,
        "hand": "left"
      },
      {
        "midi": 44,
        "time": 14.625,
        "duration": 0.375,
        "velocity": 0.87,
        "hand": "left"
      },
      {
        "midi": 48,
        "time": 14.625,
        "duration": 0.375,
        "velocity": 0.87,
        "hand": "left"
      },
      {
        "midi": 51,
        "time": 14.625,
        "duration": 0.188,
        "velocity": 0.94,
        "hand": "left"
      },
      {
        "midi": 68,
        "time": 14.625,
        "duration": 0.375,
        "velocity": 1,
        "hand": "right"
      },
      {
        "midi": 80,
        "time": 14.625,
        "duration": 0.375,
        "velocity": 0.55,
        "hand": "right"
      },
      {
        "midi": 49,
        "time": 14.813,
        "duration": 0.188,
        "velocity": 0.63,
        "hand": "left"
      },
      {
        "midi": 46,
        "time": 15,
        "duration": 0.375,
        "velocity": 0.87,
        "hand": "left"
      },
      {
        "midi": 51,
        "time": 15,
        "duration": 0.375,
        "velocity": 0.87,
        "hand": "left"
      },
      {
        "midi": 56,
        "time": 15,
        "duration": 0.375,
        "velocity": 0.87,
        "hand": "left"
      },
      {
        "midi": 72,
        "time": 15,
        "duration": 0.188,
        "velocity": 1,
        "hand": "right"
      },
      {
        "midi": 84,
        "time": 15,
        "duration": 0.188,
        "velocity": 0.55,
        "hand": "right"
      },
      {
        "midi": 49,
        "time": 15.188,
        "duration": 0.188,
        "velocity": 0.94,
        "hand": "left"
      },
      {
        "midi": 68,
        "time": 15.188,
        "duration": 0.375,
        "velocity": 1,
        "hand": "right"
      },
      {
        "midi": 80,
        "time": 15.188,
        "duration": 0.375,
        "velocity": 0.55,
        "hand": "right"
      },
      {
        "midi": 49,
        "time": 15.375,
        "duration": 0.188,
        "velocity": 0.94,
        "hand": "left"
      },
      {
        "midi": 46,
        "time": 15.563,
        "duration": 0.375,
        "velocity": 0.87,
        "hand": "left"
      },
      {
        "midi": 51,
        "time": 15.563,
        "duration": 0.375,
        "velocity": 0.87,
        "hand": "left"
      },
      {
        "midi": 56,
        "time": 15.563,
        "duration": 0.375,
        "velocity": 0.87,
        "hand": "left"
      },
      {
        "midi": 65,
        "time": 15.563,
        "duration": 0.188,
        "velocity": 1,
        "hand": "right"
      },
      {
        "midi": 77,
        "time": 15.563,
        "duration": 0.188,
        "velocity": 0.55,
        "hand": "right"
      },
      {
        "midi": 49,
        "time": 15.75,
        "duration": 0.188,
        "velocity": 0.94,
        "hand": "left"
      },
      {
        "midi": 63,
        "time": 15.75,
        "duration": 0.375,
        "velocity": 1,
        "hand": "right"
      },
      {
        "midi": 75,
        "time": 15.75,
        "duration": 0.375,
        "velocity": 0.55,
        "hand": "right"
      },
      {
        "midi": 49,
        "time": 15.938,
        "duration": 0.188,
        "velocity": 0.94,
        "hand": "left"
      },
      {
        "midi": 37,
        "time": 16.125,
        "duration": 0.375,
        "velocity": 0.87,
        "hand": "left"
      },
      {
        "midi": 46,
        "time": 16.125,
        "duration": 0.375,
        "velocity": 0.87,
        "hand": "left"
      },
      {
        "midi": 53,
        "time": 16.125,
        "duration": 0.375,
        "velocity": 0.87,
        "hand": "left"
      },
      {
        "midi": 63,
        "time": 16.125,
        "duration": 0.375,
        "velocity": 1,
        "hand": "right"
      },
      {
        "midi": 75,
        "time": 16.125,
        "duration": 0.375,
        "velocity": 0.55,
        "hand": "right"
      },
      {
        "midi": 49,
        "time": 16.313,
        "duration": 0.188,
        "velocity": 0.94,
        "hand": "left"
      },
      {
        "midi": 39,
        "time": 16.5,
        "duration": 0.375,
        "velocity": 0.87,
        "hand": "left"
      },
      {
        "midi": 51,
        "time": 16.5,
        "duration": 0.375,
        "velocity": 0.87,
        "hand": "left"
      },
      {
        "midi": 55,
        "time": 16.5,
        "duration": 0.375,
        "velocity": 0.87,
        "hand": "left"
      },
      {
        "midi": 63,
        "time": 16.5,
        "duration": 0.188,
        "velocity": 1,
        "hand": "right"
      },
      {
        "midi": 75,
        "time": 16.5,
        "duration": 0.188,
        "velocity": 0.55,
        "hand": "right"
      },
      {
        "midi": 49,
        "time": 16.688,
        "duration": 0.188,
        "velocity": 0.94,
        "hand": "left"
      },
      {
        "midi": 65,
        "time": 16.688,
        "duration": 0.375,
        "velocity": 1,
        "hand": "right"
      },
      {
        "midi": 77,
        "time": 16.688,
        "duration": 0.375,
        "velocity": 0.55,
        "hand": "right"
      },
      {
        "midi": 49,
        "time": 16.875,
        "duration": 0.188,
        "velocity": 0.94,
        "hand": "left"
      },
      {
        "midi": 39,
        "time": 17.063,
        "duration": 0.375,
        "velocity": 0.87,
        "hand": "left"
      },
      {
        "midi": 51,
        "time": 17.063,
        "duration": 0.375,
        "velocity": 0.87,
        "hand": "left"
      },
      {
        "midi": 55,
        "time": 17.063,
        "duration": 0.375,
        "velocity": 0.87,
        "hand": "left"
      },
      {
        "midi": 67,
        "time": 17.063,
        "duration": 0.188,
        "velocity": 1,
        "hand": "right"
      },
      {
        "midi": 79,
        "time": 17.063,
        "duration": 0.188,
        "velocity": 0.55,
        "hand": "right"
      },
      {
        "midi": 49,
        "time": 17.25,
        "duration": 0.188,
        "velocity": 0.94,
        "hand": "left"
      },
      {
        "midi": 68,
        "time": 17.25,
        "duration": 0.375,
        "velocity": 1,
        "hand": "right"
      },
      {
        "midi": 80,
        "time": 17.25,
        "duration": 0.375,
        "velocity": 0.55,
        "hand": "right"
      },
      {
        "midi": 48,
        "time": 17.438,
        "duration": 0.188,
        "velocity": 0.94,
        "hand": "left"
      },
      {
        "midi": 44,
        "time": 17.625,
        "duration": 0.375,
        "velocity": 0.87,
        "hand": "left"
      },
      {
        "midi": 48,
        "time": 17.625,
        "duration": 0.188,
        "velocity": 0.94,
        "hand": "left"
      },
      {
        "midi": 51,
        "time": 17.625,
        "duration": 0.375,
        "velocity": 0.87,
        "hand": "left"
      },
      {
        "midi": 56,
        "time": 17.625,
        "duration": 0.375,
        "velocity": 0.87,
        "hand": "left"
      },
      {
        "midi": 68,
        "time": 17.625,
        "duration": 0.375,
        "velocity": 1,
        "hand": "right"
      },
      {
        "midi": 80,
        "time": 17.625,
        "duration": 0.375,
        "velocity": 0.55,
        "hand": "right"
      },
      {
        "midi": 43,
        "time": 18,
        "duration": 0.375,
        "velocity": 0.87,
        "hand": "left"
      },
      {
        "midi": 46,
        "time": 18,
        "duration": 0.375,
        "velocity": 0.87,
        "hand": "left"
      },
      {
        "midi": 75,
        "time": 18,
        "duration": 0.375,
        "velocity": 1,
        "hand": "right"
      },
      {
        "midi": 87,
        "time": 18,
        "duration": 0.375,
        "velocity": 0.55,
        "hand": "right"
      },
      {
        "midi": 51,
        "time": 18.188,
        "duration": 0.188,
        "velocity": 0.94,
        "hand": "left"
      },
      {
        "midi": 43,
        "time": 18.375,
        "duration": 0.375,
        "velocity": 0.87,
        "hand": "left"
      },
      {
        "midi": 46,
        "time": 18.375,
        "duration": 0.375,
        "velocity": 0.87,
        "hand": "left"
      },
      {
        "midi": 51,
        "time": 18.375,
        "duration": 0.188,
        "velocity": 0.94,
        "hand": "left"
      },
      {
        "midi": 75,
        "time": 18.375,
        "duration": 0.375,
        "velocity": 1,
        "hand": "right"
      },
      {
        "midi": 87,
        "time": 18.375,
        "duration": 0.375,
        "velocity": 0.55,
        "hand": "right"
      },
      {
        "midi": 53,
        "time": 18.563,
        "duration": 0.188,
        "velocity": 0.94,
        "hand": "left"
      },
      {
        "midi": 41,
        "time": 18.75,
        "duration": 0.375,
        "velocity": 0.87,
        "hand": "left"
      },
      {
        "midi": 49,
        "time": 18.75,
        "duration": 0.375,
        "velocity": 0.87,
        "hand": "left"
      },
      {
        "midi": 55,
        "time": 18.75,
        "duration": 0.188,
        "velocity": 0.94,
        "hand": "left"
      },
      {
        "midi": 70,
        "time": 18.75,
        "duration": 0.375,
        "velocity": 1,
        "hand": "right"
      },
      {
        "midi": 82,
        "time": 18.75,
        "duration": 0.375,
        "velocity": 0.55,
        "hand": "right"
      },
      {
        "midi": 39,
        "time": 19.5,
        "duration": 0.375,
        "velocity": 0.87,
        "hand": "left"
      },
      {
        "midi": 53,
        "time": 19.5,
        "duration": 0.375,
        "velocity": 0.87,
        "hand": "left"
      },
      {
        "midi": 73,
        "time": 19.5,
        "duration": 0.188,
        "velocity": 1,
        "hand": "right"
      },
      {
        "midi": 85,
        "time": 19.5,
        "duration": 0.188,
        "velocity": 0.55,
        "hand": "right"
      },
      {
        "midi": 46,
        "time": 19.688,
        "duration": 0.188,
        "velocity": 0.94,
        "hand": "left"
      },
      {
        "midi": 72,
        "time": 19.688,
        "duration": 0.375,
        "velocity": 1,
        "hand": "right"
      },
      {
        "midi": 84,
        "time": 19.688,
        "duration": 0.375,
        "velocity": 0.55,
        "hand": "right"
      },
      {
        "midi": 43,
        "time": 19.875,
        "duration": 0.375,
        "velocity": 0.87,
        "hand": "left"
      },
      {
        "midi": 51,
        "time": 19.875,
        "duration": 0.375,
        "velocity": 0.87,
        "hand": "left"
      },
      {
        "midi": 46,
        "time": 20.063,
        "duration": 0.188,
        "velocity": 0.94,
        "hand": "left"
      },
      {
        "midi": 70,
        "time": 20.063,
        "duration": 0.188,
        "velocity": 1,
        "hand": "right"
      },
      {
        "midi": 82,
        "time": 20.063,
        "duration": 0.188,
        "velocity": 0.55,
        "hand": "right"
      },
      {
        "midi": 44,
        "time": 20.25,
        "duration": 0.375,
        "velocity": 0.87,
        "hand": "left"
      },
      {
        "midi": 49,
        "time": 20.25,
        "duration": 0.188,
        "velocity": 0.87,
        "hand": "left"
      },
      {
        "midi": 68,
        "time": 20.25,
        "duration": 0.375,
        "velocity": 1,
        "hand": "right"
      },
      {
        "midi": 80,
        "time": 20.25,
        "duration": 0.375,
        "velocity": 0.55,
        "hand": "right"
      },
      {
        "midi": 48,
        "time": 20.438,
        "duration": 0.188,
        "velocity": 0.87,
        "hand": "left"
      },
      {
        "midi": 51,
        "time": 20.438,
        "duration": 0.188,
        "velocity": 0.94,
        "hand": "left"
      },
      {
        "midi": 44,
        "time": 20.625,
        "duration": 0.375,
        "velocity": 0.87,
        "hand": "left"
      },
      {
        "midi": 48,
        "time": 20.625,
        "duration": 0.375,
        "velocity": 0.87,
        "hand": "left"
      },
      {
        "midi": 51,
        "time": 20.625,
        "duration": 0.188,
        "velocity": 0.94,
        "hand": "left"
      },
      {
        "midi": 68,
        "time": 20.625,
        "duration": 0.375,
        "velocity": 1,
        "hand": "right"
      },
      {
        "midi": 80,
        "time": 20.625,
        "duration": 0.375,
        "velocity": 0.55,
        "hand": "right"
      },
      {
        "midi": 49,
        "time": 20.813,
        "duration": 0.188,
        "velocity": 0.63,
        "hand": "left"
      },
      {
        "midi": 46,
        "time": 21,
        "duration": 0.375,
        "velocity": 0.87,
        "hand": "left"
      },
      {
        "midi": 51,
        "time": 21,
        "duration": 0.375,
        "velocity": 0.87,
        "hand": "left"
      },
      {
        "midi": 56,
        "time": 21,
        "duration": 0.375,
        "velocity": 0.87,
        "hand": "left"
      },
      {
        "midi": 72,
        "time": 21,
        "duration": 0.188,
        "velocity": 1,
        "hand": "right"
      },
      {
        "midi": 84,
        "time": 21,
        "duration": 0.188,
        "velocity": 0.55,
        "hand": "right"
      },
      {
        "midi": 49,
        "time": 21.188,
        "duration": 0.188,
        "velocity": 0.94,
        "hand": "left"
      },
      {
        "midi": 68,
        "time": 21.188,
        "duration": 0.375,
        "velocity": 1,
        "hand": "right"
      },
      {
        "midi": 80,
        "time": 21.188,
        "duration": 0.375,
        "velocity": 0.55,
        "hand": "right"
      },
      {
        "midi": 49,
        "time": 21.375,
        "duration": 0.188,
        "velocity": 0.94,
        "hand": "left"
      },
      {
        "midi": 46,
        "time": 21.563,
        "duration": 0.375,
        "velocity": 0.87,
        "hand": "left"
      },
      {
        "midi": 51,
        "time": 21.563,
        "duration": 0.375,
        "velocity": 0.87,
        "hand": "left"
      },
      {
        "midi": 56,
        "time": 21.563,
        "duration": 0.375,
        "velocity": 0.87,
        "hand": "left"
      },
      {
        "midi": 65,
        "time": 21.563,
        "duration": 0.188,
        "velocity": 1,
        "hand": "right"
      },
      {
        "midi": 77,
        "time": 21.563,
        "duration": 0.188,
        "velocity": 0.55,
        "hand": "right"
      },
      {
        "midi": 49,
        "time": 21.75,
        "duration": 0.188,
        "velocity": 0.94,
        "hand": "left"
      },
      {
        "midi": 63,
        "time": 21.75,
        "duration": 0.375,
        "velocity": 1,
        "hand": "right"
      },
      {
        "midi": 75,
        "time": 21.75,
        "duration": 0.375,
        "velocity": 0.55,
        "hand": "right"
      },
      {
        "midi": 49,
        "time": 21.938,
        "duration": 0.188,
        "velocity": 0.94,
        "hand": "left"
      },
      {
        "midi": 37,
        "time": 22.125,
        "duration": 0.375,
        "velocity": 0.87,
        "hand": "left"
      },
      {
        "midi": 46,
        "time": 22.125,
        "duration": 0.375,
        "velocity": 0.87,
        "hand": "left"
      },
      {
        "midi": 53,
        "time": 22.125,
        "duration": 0.375,
        "velocity": 0.87,
        "hand": "left"
      },
      {
        "midi": 63,
        "time": 22.125,
        "duration": 0.375,
        "velocity": 1,
        "hand": "right"
      },
      {
        "midi": 75,
        "time": 22.125,
        "duration": 0.375,
        "velocity": 0.55,
        "hand": "right"
      },
      {
        "midi": 49,
        "time": 22.313,
        "duration": 0.188,
        "velocity": 0.94,
        "hand": "left"
      },
      {
        "midi": 39,
        "time": 22.5,
        "duration": 0.375,
        "velocity": 0.87,
        "hand": "left"
      },
      {
        "midi": 51,
        "time": 22.5,
        "duration": 0.375,
        "velocity": 0.87,
        "hand": "left"
      },
      {
        "midi": 55,
        "time": 22.5,
        "duration": 0.375,
        "velocity": 0.87,
        "hand": "left"
      },
      {
        "midi": 63,
        "time": 22.5,
        "duration": 0.188,
        "velocity": 1,
        "hand": "right"
      },
      {
        "midi": 75,
        "time": 22.5,
        "duration": 0.188,
        "velocity": 0.55,
        "hand": "right"
      },
      {
        "midi": 49,
        "time": 22.688,
        "duration": 0.188,
        "velocity": 0.94,
        "hand": "left"
      },
      {
        "midi": 65,
        "time": 22.688,
        "duration": 0.375,
        "velocity": 1,
        "hand": "right"
      },
      {
        "midi": 77,
        "time": 22.688,
        "duration": 0.375,
        "velocity": 0.55,
        "hand": "right"
      },
      {
        "midi": 49,
        "time": 22.875,
        "duration": 0.188,
        "velocity": 0.94,
        "hand": "left"
      },
      {
        "midi": 39,
        "time": 23.063,
        "duration": 0.375,
        "velocity": 0.87,
        "hand": "left"
      },
      {
        "midi": 51,
        "time": 23.063,
        "duration": 0.375,
        "velocity": 0.87,
        "hand": "left"
      },
      {
        "midi": 55,
        "time": 23.063,
        "duration": 0.375,
        "velocity": 0.87,
        "hand": "left"
      },
      {
        "midi": 67,
        "time": 23.063,
        "duration": 0.188,
        "velocity": 1,
        "hand": "right"
      },
      {
        "midi": 79,
        "time": 23.063,
        "duration": 0.188,
        "velocity": 0.55,
        "hand": "right"
      },
      {
        "midi": 49,
        "time": 23.25,
        "duration": 0.188,
        "velocity": 0.94,
        "hand": "left"
      },
      {
        "midi": 68,
        "time": 23.25,
        "duration": 0.375,
        "velocity": 1,
        "hand": "right"
      },
      {
        "midi": 80,
        "time": 23.25,
        "duration": 0.375,
        "velocity": 0.55,
        "hand": "right"
      },
      {
        "midi": 48,
        "time": 23.438,
        "duration": 0.188,
        "velocity": 0.94,
        "hand": "left"
      },
      {
        "midi": 44,
        "time": 23.625,
        "duration": 0.375,
        "velocity": 0.87,
        "hand": "left"
      },
      {
        "midi": 48,
        "time": 23.625,
        "duration": 0.188,
        "velocity": 0.94,
        "hand": "left"
      },
      {
        "midi": 51,
        "time": 23.625,
        "duration": 0.375,
        "velocity": 0.87,
        "hand": "left"
      },
      {
        "midi": 56,
        "time": 23.625,
        "duration": 0.375,
        "velocity": 0.87,
        "hand": "left"
      },
      {
        "midi": 68,
        "time": 23.625,
        "duration": 0.375,
        "velocity": 1,
        "hand": "right"
      },
      {
        "midi": 80,
        "time": 23.625,
        "duration": 0.375,
        "velocity": 0.55,
        "hand": "right"
      }
    ]
  },
  "notes1Hand": [
    {
      "midi": 80,
      "time": 0,
      "duration": 0.375,
      "velocity": 0.55,
      "hand": "right"
    },
    {
      "midi": 48,
      "time": 0.188,
      "duration": 0.25,
      "velocity": 0.94,
      "hand": "right"
    },
    {
      "midi": 80,
      "time": 0.375,
      "duration": 0.375,
      "velocity": 0.55,
      "hand": "right"
    },
    {
      "midi": 56,
      "time": 0.563,
      "duration": 0.375,
      "velocity": 0.79,
      "hand": "right"
    },
    {
      "midi": 80,
      "time": 0.75,
      "duration": 0.25,
      "velocity": 0.55,
      "hand": "right"
    },
    {
      "midi": 80,
      "time": 0.938,
      "duration": 0.375,
      "velocity": 0.55,
      "hand": "right"
    },
    {
      "midi": 56,
      "time": 1.125,
      "duration": 0.375,
      "velocity": 0.79,
      "hand": "right"
    },
    {
      "midi": 84,
      "time": 1.313,
      "duration": 0.25,
      "velocity": 0.55,
      "hand": "right"
    },
    {
      "midi": 82,
      "time": 1.5,
      "duration": 0.25,
      "velocity": 0.55,
      "hand": "right"
    },
    {
      "midi": 82,
      "time": 1.688,
      "duration": 0.375,
      "velocity": 0.55,
      "hand": "right"
    },
    {
      "midi": 46,
      "time": 1.875,
      "duration": 0.25,
      "velocity": 0.94,
      "hand": "right"
    },
    {
      "midi": 79,
      "time": 2.063,
      "duration": 0.25,
      "velocity": 0.55,
      "hand": "right"
    },
    {
      "midi": 75,
      "time": 2.25,
      "duration": 0.375,
      "velocity": 0.55,
      "hand": "right"
    },
    {
      "midi": 46,
      "time": 2.438,
      "duration": 0.25,
      "velocity": 0.94,
      "hand": "right"
    },
    {
      "midi": 75,
      "time": 2.625,
      "duration": 0.375,
      "velocity": 0.55,
      "hand": "right"
    },
    {
      "midi": 46,
      "time": 2.813,
      "duration": 0.25,
      "velocity": 0.94,
      "hand": "right"
    },
    {
      "midi": 82,
      "time": 3,
      "duration": 0.375,
      "velocity": 0.55,
      "hand": "right"
    },
    {
      "midi": 49,
      "time": 3.188,
      "duration": 0.25,
      "velocity": 0.94,
      "hand": "right"
    },
    {
      "midi": 82,
      "time": 3.375,
      "duration": 0.375,
      "velocity": 0.55,
      "hand": "right"
    },
    {
      "midi": 55,
      "time": 3.563,
      "duration": 0.375,
      "velocity": 0.79,
      "hand": "right"
    },
    {
      "midi": 87,
      "time": 3.75,
      "duration": 0.375,
      "velocity": 0.55,
      "hand": "right"
    },
    {
      "midi": 49,
      "time": 3.938,
      "duration": 0.25,
      "velocity": 0.94,
      "hand": "right"
    },
    {
      "midi": 87,
      "time": 4.125,
      "duration": 0.375,
      "velocity": 0.55,
      "hand": "right"
    },
    {
      "midi": 49,
      "time": 4.313,
      "duration": 0.25,
      "velocity": 0.94,
      "hand": "right"
    },
    {
      "midi": 84,
      "time": 4.5,
      "duration": 0.563,
      "velocity": 0.55,
      "hand": "right"
    },
    {
      "midi": 48,
      "time": 4.688,
      "duration": 0.25,
      "velocity": 0.94,
      "hand": "right"
    },
    {
      "midi": 56,
      "time": 5.063,
      "duration": 0.375,
      "velocity": 0.79,
      "hand": "right"
    },
    {
      "midi": 80,
      "time": 5.25,
      "duration": 0.563,
      "velocity": 0.55,
      "hand": "right"
    },
    {
      "midi": 49,
      "time": 5.438,
      "duration": 0.25,
      "velocity": 0.94,
      "hand": "right"
    },
    {
      "midi": 56,
      "time": 5.625,
      "duration": 0.375,
      "velocity": 0.79,
      "hand": "right"
    },
    {
      "midi": 46,
      "time": 5.813,
      "duration": 0.25,
      "velocity": 0.94,
      "hand": "right"
    },
    {
      "midi": 80,
      "time": 6,
      "duration": 0.375,
      "velocity": 0.55,
      "hand": "right"
    },
    {
      "midi": 48,
      "time": 6.188,
      "duration": 0.25,
      "velocity": 0.94,
      "hand": "right"
    },
    {
      "midi": 80,
      "time": 6.375,
      "duration": 0.375,
      "velocity": 0.55,
      "hand": "right"
    },
    {
      "midi": 56,
      "time": 6.563,
      "duration": 0.375,
      "velocity": 0.79,
      "hand": "right"
    },
    {
      "midi": 80,
      "time": 6.75,
      "duration": 0.25,
      "velocity": 0.55,
      "hand": "right"
    },
    {
      "midi": 80,
      "time": 6.938,
      "duration": 0.375,
      "velocity": 0.55,
      "hand": "right"
    },
    {
      "midi": 56,
      "time": 7.125,
      "duration": 0.375,
      "velocity": 0.79,
      "hand": "right"
    },
    {
      "midi": 84,
      "time": 7.313,
      "duration": 0.25,
      "velocity": 0.55,
      "hand": "right"
    },
    {
      "midi": 82,
      "time": 7.5,
      "duration": 0.25,
      "velocity": 0.55,
      "hand": "right"
    },
    {
      "midi": 82,
      "time": 7.688,
      "duration": 0.375,
      "velocity": 0.55,
      "hand": "right"
    },
    {
      "midi": 46,
      "time": 7.875,
      "duration": 0.25,
      "velocity": 0.94,
      "hand": "right"
    },
    {
      "midi": 79,
      "time": 8.063,
      "duration": 0.25,
      "velocity": 0.55,
      "hand": "right"
    },
    {
      "midi": 75,
      "time": 8.25,
      "duration": 0.375,
      "velocity": 0.55,
      "hand": "right"
    },
    {
      "midi": 46,
      "time": 8.438,
      "duration": 0.25,
      "velocity": 0.94,
      "hand": "right"
    },
    {
      "midi": 75,
      "time": 8.625,
      "duration": 0.375,
      "velocity": 0.55,
      "hand": "right"
    },
    {
      "midi": 46,
      "time": 8.813,
      "duration": 0.25,
      "velocity": 0.94,
      "hand": "right"
    },
    {
      "midi": 82,
      "time": 9,
      "duration": 0.375,
      "velocity": 0.55,
      "hand": "right"
    },
    {
      "midi": 49,
      "time": 9.188,
      "duration": 0.25,
      "velocity": 0.94,
      "hand": "right"
    },
    {
      "midi": 82,
      "time": 9.375,
      "duration": 0.375,
      "velocity": 0.55,
      "hand": "right"
    },
    {
      "midi": 55,
      "time": 9.563,
      "duration": 0.375,
      "velocity": 0.79,
      "hand": "right"
    },
    {
      "midi": 87,
      "time": 9.75,
      "duration": 0.375,
      "velocity": 0.55,
      "hand": "right"
    },
    {
      "midi": 49,
      "time": 9.938,
      "duration": 0.25,
      "velocity": 0.94,
      "hand": "right"
    },
    {
      "midi": 87,
      "time": 10.125,
      "duration": 0.375,
      "velocity": 0.55,
      "hand": "right"
    },
    {
      "midi": 49,
      "time": 10.313,
      "duration": 0.25,
      "velocity": 0.94,
      "hand": "right"
    },
    {
      "midi": 84,
      "time": 10.5,
      "duration": 0.563,
      "velocity": 0.55,
      "hand": "right"
    },
    {
      "midi": 48,
      "time": 10.688,
      "duration": 0.25,
      "velocity": 0.94,
      "hand": "right"
    },
    {
      "midi": 56,
      "time": 11.063,
      "duration": 0.375,
      "velocity": 0.79,
      "hand": "right"
    },
    {
      "midi": 80,
      "time": 11.25,
      "duration": 0.563,
      "velocity": 0.55,
      "hand": "right"
    },
    {
      "midi": 48,
      "time": 11.438,
      "duration": 0.25,
      "velocity": 0.94,
      "hand": "right"
    },
    {
      "midi": 56,
      "time": 11.625,
      "duration": 0.375,
      "velocity": 0.79,
      "hand": "right"
    },
    {
      "midi": 44,
      "time": 11.813,
      "duration": 0.25,
      "velocity": 0.94,
      "hand": "right"
    },
    {
      "midi": 87,
      "time": 12,
      "duration": 0.375,
      "velocity": 0.55,
      "hand": "right"
    },
    {
      "midi": 51,
      "time": 12.188,
      "duration": 0.25,
      "velocity": 0.94,
      "hand": "right"
    },
    {
      "midi": 87,
      "time": 12.375,
      "duration": 0.375,
      "velocity": 0.55,
      "hand": "right"
    },
    {
      "midi": 53,
      "time": 12.563,
      "duration": 0.25,
      "velocity": 0.94,
      "hand": "right"
    },
    {
      "midi": 82,
      "time": 12.75,
      "duration": 0.375,
      "velocity": 0.55,
      "hand": "right"
    },
    {
      "midi": 85,
      "time": 13.5,
      "duration": 0.25,
      "velocity": 0.55,
      "hand": "right"
    },
    {
      "midi": 84,
      "time": 13.688,
      "duration": 0.375,
      "velocity": 0.55,
      "hand": "right"
    },
    {
      "midi": 51,
      "time": 13.875,
      "duration": 0.375,
      "velocity": 0.87,
      "hand": "right"
    },
    {
      "midi": 82,
      "time": 14.063,
      "duration": 0.25,
      "velocity": 0.55,
      "hand": "right"
    },
    {
      "midi": 80,
      "time": 14.25,
      "duration": 0.375,
      "velocity": 0.55,
      "hand": "right"
    },
    {
      "midi": 51,
      "time": 14.438,
      "duration": 0.25,
      "velocity": 0.94,
      "hand": "right"
    },
    {
      "midi": 80,
      "time": 14.625,
      "duration": 0.375,
      "velocity": 0.55,
      "hand": "right"
    },
    {
      "midi": 49,
      "time": 14.813,
      "duration": 0.25,
      "velocity": 0.63,
      "hand": "right"
    },
    {
      "midi": 84,
      "time": 15,
      "duration": 0.25,
      "velocity": 0.55,
      "hand": "right"
    },
    {
      "midi": 80,
      "time": 15.188,
      "duration": 0.375,
      "velocity": 0.55,
      "hand": "right"
    },
    {
      "midi": 49,
      "time": 15.375,
      "duration": 0.25,
      "velocity": 0.94,
      "hand": "right"
    },
    {
      "midi": 77,
      "time": 15.563,
      "duration": 0.25,
      "velocity": 0.55,
      "hand": "right"
    },
    {
      "midi": 75,
      "time": 15.75,
      "duration": 0.375,
      "velocity": 0.55,
      "hand": "right"
    },
    {
      "midi": 49,
      "time": 15.938,
      "duration": 0.25,
      "velocity": 0.94,
      "hand": "right"
    },
    {
      "midi": 75,
      "time": 16.125,
      "duration": 0.375,
      "velocity": 0.55,
      "hand": "right"
    },
    {
      "midi": 49,
      "time": 16.313,
      "duration": 0.25,
      "velocity": 0.94,
      "hand": "right"
    },
    {
      "midi": 75,
      "time": 16.5,
      "duration": 0.25,
      "velocity": 0.55,
      "hand": "right"
    },
    {
      "midi": 77,
      "time": 16.688,
      "duration": 0.375,
      "velocity": 0.55,
      "hand": "right"
    },
    {
      "midi": 49,
      "time": 16.875,
      "duration": 0.25,
      "velocity": 0.94,
      "hand": "right"
    },
    {
      "midi": 79,
      "time": 17.063,
      "duration": 0.25,
      "velocity": 0.55,
      "hand": "right"
    },
    {
      "midi": 80,
      "time": 17.25,
      "duration": 0.375,
      "velocity": 0.55,
      "hand": "right"
    },
    {
      "midi": 48,
      "time": 17.438,
      "duration": 0.25,
      "velocity": 0.94,
      "hand": "right"
    },
    {
      "midi": 80,
      "time": 17.625,
      "duration": 0.375,
      "velocity": 0.55,
      "hand": "right"
    },
    {
      "midi": 87,
      "time": 18,
      "duration": 0.375,
      "velocity": 0.55,
      "hand": "right"
    },
    {
      "midi": 51,
      "time": 18.188,
      "duration": 0.25,
      "velocity": 0.94,
      "hand": "right"
    },
    {
      "midi": 87,
      "time": 18.375,
      "duration": 0.375,
      "velocity": 0.55,
      "hand": "right"
    },
    {
      "midi": 53,
      "time": 18.563,
      "duration": 0.25,
      "velocity": 0.94,
      "hand": "right"
    },
    {
      "midi": 82,
      "time": 18.75,
      "duration": 0.375,
      "velocity": 0.55,
      "hand": "right"
    },
    {
      "midi": 85,
      "time": 19.5,
      "duration": 0.25,
      "velocity": 0.55,
      "hand": "right"
    },
    {
      "midi": 84,
      "time": 19.688,
      "duration": 0.375,
      "velocity": 0.55,
      "hand": "right"
    },
    {
      "midi": 51,
      "time": 19.875,
      "duration": 0.375,
      "velocity": 0.87,
      "hand": "right"
    },
    {
      "midi": 82,
      "time": 20.063,
      "duration": 0.25,
      "velocity": 0.55,
      "hand": "right"
    },
    {
      "midi": 80,
      "time": 20.25,
      "duration": 0.375,
      "velocity": 0.55,
      "hand": "right"
    },
    {
      "midi": 51,
      "time": 20.438,
      "duration": 0.25,
      "velocity": 0.94,
      "hand": "right"
    },
    {
      "midi": 80,
      "time": 20.625,
      "duration": 0.375,
      "velocity": 0.55,
      "hand": "right"
    },
    {
      "midi": 49,
      "time": 20.813,
      "duration": 0.25,
      "velocity": 0.63,
      "hand": "right"
    },
    {
      "midi": 84,
      "time": 21,
      "duration": 0.25,
      "velocity": 0.55,
      "hand": "right"
    },
    {
      "midi": 80,
      "time": 21.188,
      "duration": 0.375,
      "velocity": 0.55,
      "hand": "right"
    },
    {
      "midi": 49,
      "time": 21.375,
      "duration": 0.25,
      "velocity": 0.94,
      "hand": "right"
    },
    {
      "midi": 77,
      "time": 21.563,
      "duration": 0.25,
      "velocity": 0.55,
      "hand": "right"
    },
    {
      "midi": 75,
      "time": 21.75,
      "duration": 0.375,
      "velocity": 0.55,
      "hand": "right"
    },
    {
      "midi": 49,
      "time": 21.938,
      "duration": 0.25,
      "velocity": 0.94,
      "hand": "right"
    },
    {
      "midi": 75,
      "time": 22.125,
      "duration": 0.375,
      "velocity": 0.55,
      "hand": "right"
    },
    {
      "midi": 49,
      "time": 22.313,
      "duration": 0.25,
      "velocity": 0.94,
      "hand": "right"
    },
    {
      "midi": 75,
      "time": 22.5,
      "duration": 0.25,
      "velocity": 0.55,
      "hand": "right"
    },
    {
      "midi": 77,
      "time": 22.688,
      "duration": 0.375,
      "velocity": 0.55,
      "hand": "right"
    },
    {
      "midi": 49,
      "time": 22.875,
      "duration": 0.25,
      "velocity": 0.94,
      "hand": "right"
    },
    {
      "midi": 79,
      "time": 23.063,
      "duration": 0.25,
      "velocity": 0.55,
      "hand": "right"
    },
    {
      "midi": 80,
      "time": 23.25,
      "duration": 0.375,
      "velocity": 0.55,
      "hand": "right"
    },
    {
      "midi": 48,
      "time": 23.438,
      "duration": 0.25,
      "velocity": 0.94,
      "hand": "right"
    },
    {
      "midi": 80,
      "time": 23.625,
      "duration": 0.375,
      "velocity": 0.55,
      "hand": "right"
    }
  ],
  "notes2Hands": [
    {
      "midi": 44,
      "time": 0,
      "duration": 0.375,
      "velocity": 0.79,
      "hand": "left"
    },
    {
      "midi": 51,
      "time": 0,
      "duration": 0.375,
      "velocity": 0.79,
      "hand": "left"
    },
    {
      "midi": 56,
      "time": 0,
      "duration": 0.375,
      "velocity": 0.79,
      "hand": "left"
    },
    {
      "midi": 68,
      "time": 0,
      "duration": 0.375,
      "velocity": 1,
      "hand": "right"
    },
    {
      "midi": 80,
      "time": 0,
      "duration": 0.375,
      "velocity": 0.55,
      "hand": "right"
    },
    {
      "midi": 48,
      "time": 0.188,
      "duration": 0.188,
      "velocity": 0.94,
      "hand": "left"
    },
    {
      "midi": 48,
      "time": 0.375,
      "duration": 0.188,
      "velocity": 0.94,
      "hand": "left"
    },
    {
      "midi": 68,
      "time": 0.375,
      "duration": 0.375,
      "velocity": 1,
      "hand": "right"
    },
    {
      "midi": 80,
      "time": 0.375,
      "duration": 0.375,
      "velocity": 0.55,
      "hand": "right"
    },
    {
      "midi": 44,
      "time": 0.563,
      "duration": 0.375,
      "velocity": 0.79,
      "hand": "left"
    },
    {
      "midi": 51,
      "time": 0.563,
      "duration": 0.375,
      "velocity": 0.79,
      "hand": "left"
    },
    {
      "midi": 56,
      "time": 0.563,
      "duration": 0.375,
      "velocity": 0.79,
      "hand": "left"
    },
    {
      "midi": 48,
      "time": 0.75,
      "duration": 0.188,
      "velocity": 0.94,
      "hand": "left"
    },
    {
      "midi": 68,
      "time": 0.75,
      "duration": 0.188,
      "velocity": 1,
      "hand": "right"
    },
    {
      "midi": 80,
      "time": 0.75,
      "duration": 0.188,
      "velocity": 0.55,
      "hand": "right"
    },
    {
      "midi": 48,
      "time": 0.938,
      "duration": 0.188,
      "velocity": 0.94,
      "hand": "left"
    },
    {
      "midi": 68,
      "time": 0.938,
      "duration": 0.375,
      "velocity": 1,
      "hand": "right"
    },
    {
      "midi": 80,
      "time": 0.938,
      "duration": 0.375,
      "velocity": 0.55,
      "hand": "right"
    },
    {
      "midi": 44,
      "time": 1.125,
      "duration": 0.375,
      "velocity": 0.79,
      "hand": "left"
    },
    {
      "midi": 51,
      "time": 1.125,
      "duration": 0.375,
      "velocity": 0.79,
      "hand": "left"
    },
    {
      "midi": 56,
      "time": 1.125,
      "duration": 0.375,
      "velocity": 0.79,
      "hand": "left"
    },
    {
      "midi": 48,
      "time": 1.313,
      "duration": 0.188,
      "velocity": 0.94,
      "hand": "left"
    },
    {
      "midi": 72,
      "time": 1.313,
      "duration": 0.188,
      "velocity": 1,
      "hand": "right"
    },
    {
      "midi": 84,
      "time": 1.313,
      "duration": 0.188,
      "velocity": 0.55,
      "hand": "right"
    },
    {
      "midi": 39,
      "time": 1.5,
      "duration": 0.375,
      "velocity": 0.79,
      "hand": "left"
    },
    {
      "midi": 51,
      "time": 1.5,
      "duration": 0.375,
      "velocity": 0.79,
      "hand": "left"
    },
    {
      "midi": 55,
      "time": 1.5,
      "duration": 0.375,
      "velocity": 0.79,
      "hand": "left"
    },
    {
      "midi": 70,
      "time": 1.5,
      "duration": 0.188,
      "velocity": 1,
      "hand": "right"
    },
    {
      "midi": 82,
      "time": 1.5,
      "duration": 0.188,
      "velocity": 0.55,
      "hand": "right"
    },
    {
      "midi": 46,
      "time": 1.688,
      "duration": 0.188,
      "velocity": 0.94,
      "hand": "left"
    },
    {
      "midi": 70,
      "time": 1.688,
      "duration": 0.375,
      "velocity": 1,
      "hand": "right"
    },
    {
      "midi": 82,
      "time": 1.688,
      "duration": 0.375,
      "velocity": 0.55,
      "hand": "right"
    },
    {
      "midi": 46,
      "time": 1.875,
      "duration": 0.188,
      "velocity": 0.94,
      "hand": "left"
    },
    {
      "midi": 39,
      "time": 2.063,
      "duration": 0.375,
      "velocity": 0.79,
      "hand": "left"
    },
    {
      "midi": 51,
      "time": 2.063,
      "duration": 0.375,
      "velocity": 0.79,
      "hand": "left"
    },
    {
      "midi": 55,
      "time": 2.063,
      "duration": 0.375,
      "velocity": 0.79,
      "hand": "left"
    },
    {
      "midi": 67,
      "time": 2.063,
      "duration": 0.188,
      "velocity": 1,
      "hand": "right"
    },
    {
      "midi": 79,
      "time": 2.063,
      "duration": 0.188,
      "velocity": 0.55,
      "hand": "right"
    },
    {
      "midi": 46,
      "time": 2.25,
      "duration": 0.188,
      "velocity": 0.94,
      "hand": "left"
    },
    {
      "midi": 63,
      "time": 2.25,
      "duration": 0.375,
      "velocity": 1,
      "hand": "right"
    },
    {
      "midi": 75,
      "time": 2.25,
      "duration": 0.375,
      "velocity": 0.55,
      "hand": "right"
    },
    {
      "midi": 46,
      "time": 2.438,
      "duration": 0.188,
      "velocity": 0.94,
      "hand": "left"
    },
    {
      "midi": 39,
      "time": 2.625,
      "duration": 0.375,
      "velocity": 0.79,
      "hand": "left"
    },
    {
      "midi": 51,
      "time": 2.625,
      "duration": 0.375,
      "velocity": 0.79,
      "hand": "left"
    },
    {
      "midi": 55,
      "time": 2.625,
      "duration": 0.375,
      "velocity": 0.79,
      "hand": "left"
    },
    {
      "midi": 63,
      "time": 2.625,
      "duration": 0.375,
      "velocity": 1,
      "hand": "right"
    },
    {
      "midi": 75,
      "time": 2.625,
      "duration": 0.375,
      "velocity": 0.55,
      "hand": "right"
    },
    {
      "midi": 46,
      "time": 2.813,
      "duration": 0.188,
      "velocity": 0.94,
      "hand": "left"
    },
    {
      "midi": 39,
      "time": 3,
      "duration": 0.375,
      "velocity": 0.79,
      "hand": "left"
    },
    {
      "midi": 51,
      "time": 3,
      "duration": 0.375,
      "velocity": 0.79,
      "hand": "left"
    },
    {
      "midi": 55,
      "time": 3,
      "duration": 0.375,
      "velocity": 0.79,
      "hand": "left"
    },
    {
      "midi": 70,
      "time": 3,
      "duration": 0.375,
      "velocity": 1,
      "hand": "right"
    },
    {
      "midi": 82,
      "time": 3,
      "duration": 0.375,
      "velocity": 0.55,
      "hand": "right"
    },
    {
      "midi": 49,
      "time": 3.188,
      "duration": 0.188,
      "velocity": 0.94,
      "hand": "left"
    },
    {
      "midi": 49,
      "time": 3.375,
      "duration": 0.188,
      "velocity": 0.94,
      "hand": "left"
    },
    {
      "midi": 70,
      "time": 3.375,
      "duration": 0.375,
      "velocity": 1,
      "hand": "right"
    },
    {
      "midi": 82,
      "time": 3.375,
      "duration": 0.375,
      "velocity": 0.55,
      "hand": "right"
    },
    {
      "midi": 39,
      "time": 3.563,
      "duration": 0.375,
      "velocity": 0.79,
      "hand": "left"
    },
    {
      "midi": 51,
      "time": 3.563,
      "duration": 0.375,
      "velocity": 0.79,
      "hand": "left"
    },
    {
      "midi": 55,
      "time": 3.563,
      "duration": 0.375,
      "velocity": 0.79,
      "hand": "left"
    },
    {
      "midi": 49,
      "time": 3.75,
      "duration": 0.188,
      "velocity": 0.94,
      "hand": "left"
    },
    {
      "midi": 75,
      "time": 3.75,
      "duration": 0.375,
      "velocity": 1,
      "hand": "right"
    },
    {
      "midi": 87,
      "time": 3.75,
      "duration": 0.375,
      "velocity": 0.55,
      "hand": "right"
    },
    {
      "midi": 49,
      "time": 3.938,
      "duration": 0.188,
      "velocity": 0.94,
      "hand": "left"
    },
    {
      "midi": 39,
      "time": 4.125,
      "duration": 0.375,
      "velocity": 0.79,
      "hand": "left"
    },
    {
      "midi": 51,
      "time": 4.125,
      "duration": 0.375,
      "velocity": 0.79,
      "hand": "left"
    },
    {
      "midi": 55,
      "time": 4.125,
      "duration": 0.375,
      "velocity": 0.79,
      "hand": "left"
    },
    {
      "midi": 75,
      "time": 4.125,
      "duration": 0.375,
      "velocity": 1,
      "hand": "right"
    },
    {
      "midi": 87,
      "time": 4.125,
      "duration": 0.375,
      "velocity": 0.55,
      "hand": "right"
    },
    {
      "midi": 49,
      "time": 4.313,
      "duration": 0.188,
      "velocity": 0.94,
      "hand": "left"
    },
    {
      "midi": 44,
      "time": 4.5,
      "duration": 0.375,
      "velocity": 0.79,
      "hand": "left"
    },
    {
      "midi": 51,
      "time": 4.5,
      "duration": 0.375,
      "velocity": 0.79,
      "hand": "left"
    },
    {
      "midi": 56,
      "time": 4.5,
      "duration": 0.375,
      "velocity": 0.79,
      "hand": "left"
    },
    {
      "midi": 72,
      "time": 4.5,
      "duration": 0.563,
      "velocity": 1,
      "hand": "right"
    },
    {
      "midi": 84,
      "time": 4.5,
      "duration": 0.563,
      "velocity": 0.55,
      "hand": "right"
    },
    {
      "midi": 48,
      "time": 4.688,
      "duration": 0.188,
      "velocity": 0.94,
      "hand": "left"
    },
    {
      "midi": 48,
      "time": 4.875,
      "duration": 0.188,
      "velocity": 0.94,
      "hand": "left"
    },
    {
      "midi": 44,
      "time": 5.063,
      "duration": 0.375,
      "velocity": 0.79,
      "hand": "left"
    },
    {
      "midi": 51,
      "time": 5.063,
      "duration": 0.375,
      "velocity": 0.79,
      "hand": "left"
    },
    {
      "midi": 53,
      "time": 5.063,
      "duration": 0.188,
      "velocity": 0.94,
      "hand": "left"
    },
    {
      "midi": 56,
      "time": 5.063,
      "duration": 0.375,
      "velocity": 0.79,
      "hand": "left"
    },
    {
      "midi": 51,
      "time": 5.25,
      "duration": 0.188,
      "velocity": 0.94,
      "hand": "left"
    },
    {
      "midi": 68,
      "time": 5.25,
      "duration": 0.563,
      "velocity": 1,
      "hand": "right"
    },
    {
      "midi": 80,
      "time": 5.25,
      "duration": 0.563,
      "velocity": 0.55,
      "hand": "right"
    },
    {
      "midi": 49,
      "time": 5.438,
      "duration": 0.188,
      "velocity": 0.94,
      "hand": "left"
    },
    {
      "midi": 44,
      "time": 5.625,
      "duration": 0.375,
      "velocity": 0.79,
      "hand": "left"
    },
    {
      "midi": 48,
      "time": 5.625,
      "duration": 0.188,
      "velocity": 0.94,
      "hand": "left"
    },
    {
      "midi": 51,
      "time": 5.625,
      "duration": 0.375,
      "velocity": 0.79,
      "hand": "left"
    },
    {
      "midi": 56,
      "time": 5.625,
      "duration": 0.375,
      "velocity": 0.79,
      "hand": "left"
    },
    {
      "midi": 46,
      "time": 5.813,
      "duration": 0.188,
      "velocity": 0.94,
      "hand": "left"
    },
    {
      "midi": 44,
      "time": 6,
      "duration": 0.375,
      "velocity": 0.79,
      "hand": "left"
    },
    {
      "midi": 51,
      "time": 6,
      "duration": 0.375,
      "velocity": 0.79,
      "hand": "left"
    },
    {
      "midi": 56,
      "time": 6,
      "duration": 0.375,
      "velocity": 0.79,
      "hand": "left"
    },
    {
      "midi": 68,
      "time": 6,
      "duration": 0.375,
      "velocity": 1,
      "hand": "right"
    },
    {
      "midi": 80,
      "time": 6,
      "duration": 0.375,
      "velocity": 0.55,
      "hand": "right"
    },
    {
      "midi": 48,
      "time": 6.188,
      "duration": 0.188,
      "velocity": 0.94,
      "hand": "left"
    },
    {
      "midi": 48,
      "time": 6.375,
      "duration": 0.188,
      "velocity": 0.94,
      "hand": "left"
    },
    {
      "midi": 68,
      "time": 6.375,
      "duration": 0.375,
      "velocity": 1,
      "hand": "right"
    },
    {
      "midi": 80,
      "time": 6.375,
      "duration": 0.375,
      "velocity": 0.55,
      "hand": "right"
    },
    {
      "midi": 44,
      "time": 6.563,
      "duration": 0.375,
      "velocity": 0.79,
      "hand": "left"
    },
    {
      "midi": 51,
      "time": 6.563,
      "duration": 0.375,
      "velocity": 0.79,
      "hand": "left"
    },
    {
      "midi": 56,
      "time": 6.563,
      "duration": 0.375,
      "velocity": 0.79,
      "hand": "left"
    },
    {
      "midi": 48,
      "time": 6.75,
      "duration": 0.188,
      "velocity": 0.94,
      "hand": "left"
    },
    {
      "midi": 68,
      "time": 6.75,
      "duration": 0.188,
      "velocity": 1,
      "hand": "right"
    },
    {
      "midi": 80,
      "time": 6.75,
      "duration": 0.188,
      "velocity": 0.55,
      "hand": "right"
    },
    {
      "midi": 48,
      "time": 6.938,
      "duration": 0.188,
      "velocity": 0.94,
      "hand": "left"
    },
    {
      "midi": 68,
      "time": 6.938,
      "duration": 0.375,
      "velocity": 1,
      "hand": "right"
    },
    {
      "midi": 80,
      "time": 6.938,
      "duration": 0.375,
      "velocity": 0.55,
      "hand": "right"
    },
    {
      "midi": 44,
      "time": 7.125,
      "duration": 0.375,
      "velocity": 0.79,
      "hand": "left"
    },
    {
      "midi": 51,
      "time": 7.125,
      "duration": 0.375,
      "velocity": 0.79,
      "hand": "left"
    },
    {
      "midi": 56,
      "time": 7.125,
      "duration": 0.375,
      "velocity": 0.79,
      "hand": "left"
    },
    {
      "midi": 48,
      "time": 7.313,
      "duration": 0.188,
      "velocity": 0.94,
      "hand": "left"
    },
    {
      "midi": 72,
      "time": 7.313,
      "duration": 0.188,
      "velocity": 1,
      "hand": "right"
    },
    {
      "midi": 84,
      "time": 7.313,
      "duration": 0.188,
      "velocity": 0.55,
      "hand": "right"
    },
    {
      "midi": 39,
      "time": 7.5,
      "duration": 0.375,
      "velocity": 0.79,
      "hand": "left"
    },
    {
      "midi": 51,
      "time": 7.5,
      "duration": 0.375,
      "velocity": 0.79,
      "hand": "left"
    },
    {
      "midi": 55,
      "time": 7.5,
      "duration": 0.375,
      "velocity": 0.79,
      "hand": "left"
    },
    {
      "midi": 70,
      "time": 7.5,
      "duration": 0.188,
      "velocity": 1,
      "hand": "right"
    },
    {
      "midi": 82,
      "time": 7.5,
      "duration": 0.188,
      "velocity": 0.55,
      "hand": "right"
    },
    {
      "midi": 46,
      "time": 7.688,
      "duration": 0.188,
      "velocity": 0.94,
      "hand": "left"
    },
    {
      "midi": 70,
      "time": 7.688,
      "duration": 0.375,
      "velocity": 1,
      "hand": "right"
    },
    {
      "midi": 82,
      "time": 7.688,
      "duration": 0.375,
      "velocity": 0.55,
      "hand": "right"
    },
    {
      "midi": 46,
      "time": 7.875,
      "duration": 0.188,
      "velocity": 0.94,
      "hand": "left"
    },
    {
      "midi": 39,
      "time": 8.063,
      "duration": 0.375,
      "velocity": 0.79,
      "hand": "left"
    },
    {
      "midi": 51,
      "time": 8.063,
      "duration": 0.375,
      "velocity": 0.79,
      "hand": "left"
    },
    {
      "midi": 55,
      "time": 8.063,
      "duration": 0.375,
      "velocity": 0.79,
      "hand": "left"
    },
    {
      "midi": 67,
      "time": 8.063,
      "duration": 0.188,
      "velocity": 1,
      "hand": "right"
    },
    {
      "midi": 79,
      "time": 8.063,
      "duration": 0.188,
      "velocity": 0.55,
      "hand": "right"
    },
    {
      "midi": 46,
      "time": 8.25,
      "duration": 0.188,
      "velocity": 0.94,
      "hand": "left"
    },
    {
      "midi": 63,
      "time": 8.25,
      "duration": 0.375,
      "velocity": 1,
      "hand": "right"
    },
    {
      "midi": 75,
      "time": 8.25,
      "duration": 0.375,
      "velocity": 0.55,
      "hand": "right"
    },
    {
      "midi": 46,
      "time": 8.438,
      "duration": 0.188,
      "velocity": 0.94,
      "hand": "left"
    },
    {
      "midi": 39,
      "time": 8.625,
      "duration": 0.375,
      "velocity": 0.79,
      "hand": "left"
    },
    {
      "midi": 51,
      "time": 8.625,
      "duration": 0.375,
      "velocity": 0.79,
      "hand": "left"
    },
    {
      "midi": 55,
      "time": 8.625,
      "duration": 0.375,
      "velocity": 0.79,
      "hand": "left"
    },
    {
      "midi": 63,
      "time": 8.625,
      "duration": 0.375,
      "velocity": 1,
      "hand": "right"
    },
    {
      "midi": 75,
      "time": 8.625,
      "duration": 0.375,
      "velocity": 0.55,
      "hand": "right"
    },
    {
      "midi": 46,
      "time": 8.813,
      "duration": 0.188,
      "velocity": 0.94,
      "hand": "left"
    },
    {
      "midi": 39,
      "time": 9,
      "duration": 0.375,
      "velocity": 0.79,
      "hand": "left"
    },
    {
      "midi": 51,
      "time": 9,
      "duration": 0.375,
      "velocity": 0.79,
      "hand": "left"
    },
    {
      "midi": 55,
      "time": 9,
      "duration": 0.375,
      "velocity": 0.79,
      "hand": "left"
    },
    {
      "midi": 70,
      "time": 9,
      "duration": 0.375,
      "velocity": 1,
      "hand": "right"
    },
    {
      "midi": 82,
      "time": 9,
      "duration": 0.375,
      "velocity": 0.55,
      "hand": "right"
    },
    {
      "midi": 49,
      "time": 9.188,
      "duration": 0.188,
      "velocity": 0.94,
      "hand": "left"
    },
    {
      "midi": 49,
      "time": 9.375,
      "duration": 0.188,
      "velocity": 0.94,
      "hand": "left"
    },
    {
      "midi": 70,
      "time": 9.375,
      "duration": 0.375,
      "velocity": 1,
      "hand": "right"
    },
    {
      "midi": 82,
      "time": 9.375,
      "duration": 0.375,
      "velocity": 0.55,
      "hand": "right"
    },
    {
      "midi": 39,
      "time": 9.563,
      "duration": 0.375,
      "velocity": 0.79,
      "hand": "left"
    },
    {
      "midi": 51,
      "time": 9.563,
      "duration": 0.375,
      "velocity": 0.79,
      "hand": "left"
    },
    {
      "midi": 55,
      "time": 9.563,
      "duration": 0.375,
      "velocity": 0.79,
      "hand": "left"
    },
    {
      "midi": 49,
      "time": 9.75,
      "duration": 0.188,
      "velocity": 0.94,
      "hand": "left"
    },
    {
      "midi": 75,
      "time": 9.75,
      "duration": 0.375,
      "velocity": 1,
      "hand": "right"
    },
    {
      "midi": 87,
      "time": 9.75,
      "duration": 0.375,
      "velocity": 0.55,
      "hand": "right"
    },
    {
      "midi": 49,
      "time": 9.938,
      "duration": 0.188,
      "velocity": 0.94,
      "hand": "left"
    },
    {
      "midi": 39,
      "time": 10.125,
      "duration": 0.375,
      "velocity": 0.79,
      "hand": "left"
    },
    {
      "midi": 51,
      "time": 10.125,
      "duration": 0.375,
      "velocity": 0.79,
      "hand": "left"
    },
    {
      "midi": 55,
      "time": 10.125,
      "duration": 0.375,
      "velocity": 0.79,
      "hand": "left"
    },
    {
      "midi": 75,
      "time": 10.125,
      "duration": 0.375,
      "velocity": 1,
      "hand": "right"
    },
    {
      "midi": 87,
      "time": 10.125,
      "duration": 0.375,
      "velocity": 0.55,
      "hand": "right"
    },
    {
      "midi": 49,
      "time": 10.313,
      "duration": 0.188,
      "velocity": 0.94,
      "hand": "left"
    },
    {
      "midi": 44,
      "time": 10.5,
      "duration": 0.375,
      "velocity": 0.79,
      "hand": "left"
    },
    {
      "midi": 51,
      "time": 10.5,
      "duration": 0.375,
      "velocity": 0.79,
      "hand": "left"
    },
    {
      "midi": 56,
      "time": 10.5,
      "duration": 0.375,
      "velocity": 0.79,
      "hand": "left"
    },
    {
      "midi": 72,
      "time": 10.5,
      "duration": 0.563,
      "velocity": 1,
      "hand": "right"
    },
    {
      "midi": 84,
      "time": 10.5,
      "duration": 0.563,
      "velocity": 0.55,
      "hand": "right"
    },
    {
      "midi": 48,
      "time": 10.688,
      "duration": 0.188,
      "velocity": 0.94,
      "hand": "left"
    },
    {
      "midi": 48,
      "time": 10.875,
      "duration": 0.188,
      "velocity": 0.94,
      "hand": "left"
    },
    {
      "midi": 44,
      "time": 11.063,
      "duration": 0.375,
      "velocity": 0.79,
      "hand": "left"
    },
    {
      "midi": 51,
      "time": 11.063,
      "duration": 0.375,
      "velocity": 0.79,
      "hand": "left"
    },
    {
      "midi": 51,
      "time": 11.063,
      "duration": 0.188,
      "velocity": 0.94,
      "hand": "left"
    },
    {
      "midi": 56,
      "time": 11.063,
      "duration": 0.375,
      "velocity": 0.79,
      "hand": "left"
    },
    {
      "midi": 49,
      "time": 11.25,
      "duration": 0.188,
      "velocity": 0.94,
      "hand": "left"
    },
    {
      "midi": 68,
      "time": 11.25,
      "duration": 0.563,
      "velocity": 1,
      "hand": "right"
    },
    {
      "midi": 80,
      "time": 11.25,
      "duration": 0.563,
      "velocity": 0.55,
      "hand": "right"
    },
    {
      "midi": 48,
      "time": 11.438,
      "duration": 0.188,
      "velocity": 0.94,
      "hand": "left"
    },
    {
      "midi": 44,
      "time": 11.625,
      "duration": 0.375,
      "velocity": 0.79,
      "hand": "left"
    },
    {
      "midi": 46,
      "time": 11.625,
      "duration": 0.188,
      "velocity": 0.94,
      "hand": "left"
    },
    {
      "midi": 51,
      "time": 11.625,
      "duration": 0.375,
      "velocity": 0.79,
      "hand": "left"
    },
    {
      "midi": 56,
      "time": 11.625,
      "duration": 0.375,
      "velocity": 0.79,
      "hand": "left"
    },
    {
      "midi": 44,
      "time": 11.813,
      "duration": 0.188,
      "velocity": 0.94,
      "hand": "left"
    },
    {
      "midi": 43,
      "time": 12,
      "duration": 0.375,
      "velocity": 0.87,
      "hand": "left"
    },
    {
      "midi": 46,
      "time": 12,
      "duration": 0.375,
      "velocity": 0.87,
      "hand": "left"
    },
    {
      "midi": 75,
      "time": 12,
      "duration": 0.375,
      "velocity": 1,
      "hand": "right"
    },
    {
      "midi": 87,
      "time": 12,
      "duration": 0.375,
      "velocity": 0.55,
      "hand": "right"
    },
    {
      "midi": 51,
      "time": 12.188,
      "duration": 0.188,
      "velocity": 0.94,
      "hand": "left"
    },
    {
      "midi": 43,
      "time": 12.375,
      "duration": 0.375,
      "velocity": 0.87,
      "hand": "left"
    },
    {
      "midi": 46,
      "time": 12.375,
      "duration": 0.375,
      "velocity": 0.87,
      "hand": "left"
    },
    {
      "midi": 51,
      "time": 12.375,
      "duration": 0.188,
      "velocity": 0.94,
      "hand": "left"
    },
    {
      "midi": 75,
      "time": 12.375,
      "duration": 0.375,
      "velocity": 1,
      "hand": "right"
    },
    {
      "midi": 87,
      "time": 12.375,
      "duration": 0.375,
      "velocity": 0.55,
      "hand": "right"
    },
    {
      "midi": 53,
      "time": 12.563,
      "duration": 0.188,
      "velocity": 0.94,
      "hand": "left"
    },
    {
      "midi": 41,
      "time": 12.75,
      "duration": 0.375,
      "velocity": 0.87,
      "hand": "left"
    },
    {
      "midi": 49,
      "time": 12.75,
      "duration": 0.375,
      "velocity": 0.87,
      "hand": "left"
    },
    {
      "midi": 55,
      "time": 12.75,
      "duration": 0.188,
      "velocity": 0.94,
      "hand": "left"
    },
    {
      "midi": 70,
      "time": 12.75,
      "duration": 0.375,
      "velocity": 1,
      "hand": "right"
    },
    {
      "midi": 82,
      "time": 12.75,
      "duration": 0.375,
      "velocity": 0.55,
      "hand": "right"
    },
    {
      "midi": 39,
      "time": 13.5,
      "duration": 0.375,
      "velocity": 0.87,
      "hand": "left"
    },
    {
      "midi": 53,
      "time": 13.5,
      "duration": 0.375,
      "velocity": 0.87,
      "hand": "left"
    },
    {
      "midi": 73,
      "time": 13.5,
      "duration": 0.188,
      "velocity": 1,
      "hand": "right"
    },
    {
      "midi": 85,
      "time": 13.5,
      "duration": 0.188,
      "velocity": 0.55,
      "hand": "right"
    },
    {
      "midi": 46,
      "time": 13.688,
      "duration": 0.188,
      "velocity": 0.94,
      "hand": "left"
    },
    {
      "midi": 72,
      "time": 13.688,
      "duration": 0.375,
      "velocity": 1,
      "hand": "right"
    },
    {
      "midi": 84,
      "time": 13.688,
      "duration": 0.375,
      "velocity": 0.55,
      "hand": "right"
    },
    {
      "midi": 43,
      "time": 13.875,
      "duration": 0.375,
      "velocity": 0.87,
      "hand": "left"
    },
    {
      "midi": 51,
      "time": 13.875,
      "duration": 0.375,
      "velocity": 0.87,
      "hand": "left"
    },
    {
      "midi": 46,
      "time": 14.063,
      "duration": 0.188,
      "velocity": 0.94,
      "hand": "left"
    },
    {
      "midi": 70,
      "time": 14.063,
      "duration": 0.188,
      "velocity": 1,
      "hand": "right"
    },
    {
      "midi": 82,
      "time": 14.063,
      "duration": 0.188,
      "velocity": 0.55,
      "hand": "right"
    },
    {
      "midi": 44,
      "time": 14.25,
      "duration": 0.375,
      "velocity": 0.87,
      "hand": "left"
    },
    {
      "midi": 49,
      "time": 14.25,
      "duration": 0.188,
      "velocity": 0.87,
      "hand": "left"
    },
    {
      "midi": 68,
      "time": 14.25,
      "duration": 0.375,
      "velocity": 1,
      "hand": "right"
    },
    {
      "midi": 80,
      "time": 14.25,
      "duration": 0.375,
      "velocity": 0.55,
      "hand": "right"
    },
    {
      "midi": 48,
      "time": 14.438,
      "duration": 0.188,
      "velocity": 0.87,
      "hand": "left"
    },
    {
      "midi": 51,
      "time": 14.438,
      "duration": 0.188,
      "velocity": 0.94,
      "hand": "left"
    },
    {
      "midi": 44,
      "time": 14.625,
      "duration": 0.375,
      "velocity": 0.87,
      "hand": "left"
    },
    {
      "midi": 48,
      "time": 14.625,
      "duration": 0.375,
      "velocity": 0.87,
      "hand": "left"
    },
    {
      "midi": 51,
      "time": 14.625,
      "duration": 0.188,
      "velocity": 0.94,
      "hand": "left"
    },
    {
      "midi": 68,
      "time": 14.625,
      "duration": 0.375,
      "velocity": 1,
      "hand": "right"
    },
    {
      "midi": 80,
      "time": 14.625,
      "duration": 0.375,
      "velocity": 0.55,
      "hand": "right"
    },
    {
      "midi": 49,
      "time": 14.813,
      "duration": 0.188,
      "velocity": 0.63,
      "hand": "left"
    },
    {
      "midi": 46,
      "time": 15,
      "duration": 0.375,
      "velocity": 0.87,
      "hand": "left"
    },
    {
      "midi": 51,
      "time": 15,
      "duration": 0.375,
      "velocity": 0.87,
      "hand": "left"
    },
    {
      "midi": 56,
      "time": 15,
      "duration": 0.375,
      "velocity": 0.87,
      "hand": "left"
    },
    {
      "midi": 72,
      "time": 15,
      "duration": 0.188,
      "velocity": 1,
      "hand": "right"
    },
    {
      "midi": 84,
      "time": 15,
      "duration": 0.188,
      "velocity": 0.55,
      "hand": "right"
    },
    {
      "midi": 49,
      "time": 15.188,
      "duration": 0.188,
      "velocity": 0.94,
      "hand": "left"
    },
    {
      "midi": 68,
      "time": 15.188,
      "duration": 0.375,
      "velocity": 1,
      "hand": "right"
    },
    {
      "midi": 80,
      "time": 15.188,
      "duration": 0.375,
      "velocity": 0.55,
      "hand": "right"
    },
    {
      "midi": 49,
      "time": 15.375,
      "duration": 0.188,
      "velocity": 0.94,
      "hand": "left"
    },
    {
      "midi": 46,
      "time": 15.563,
      "duration": 0.375,
      "velocity": 0.87,
      "hand": "left"
    },
    {
      "midi": 51,
      "time": 15.563,
      "duration": 0.375,
      "velocity": 0.87,
      "hand": "left"
    },
    {
      "midi": 56,
      "time": 15.563,
      "duration": 0.375,
      "velocity": 0.87,
      "hand": "left"
    },
    {
      "midi": 65,
      "time": 15.563,
      "duration": 0.188,
      "velocity": 1,
      "hand": "right"
    },
    {
      "midi": 77,
      "time": 15.563,
      "duration": 0.188,
      "velocity": 0.55,
      "hand": "right"
    },
    {
      "midi": 49,
      "time": 15.75,
      "duration": 0.188,
      "velocity": 0.94,
      "hand": "left"
    },
    {
      "midi": 63,
      "time": 15.75,
      "duration": 0.375,
      "velocity": 1,
      "hand": "right"
    },
    {
      "midi": 75,
      "time": 15.75,
      "duration": 0.375,
      "velocity": 0.55,
      "hand": "right"
    },
    {
      "midi": 49,
      "time": 15.938,
      "duration": 0.188,
      "velocity": 0.94,
      "hand": "left"
    },
    {
      "midi": 37,
      "time": 16.125,
      "duration": 0.375,
      "velocity": 0.87,
      "hand": "left"
    },
    {
      "midi": 46,
      "time": 16.125,
      "duration": 0.375,
      "velocity": 0.87,
      "hand": "left"
    },
    {
      "midi": 53,
      "time": 16.125,
      "duration": 0.375,
      "velocity": 0.87,
      "hand": "left"
    },
    {
      "midi": 63,
      "time": 16.125,
      "duration": 0.375,
      "velocity": 1,
      "hand": "right"
    },
    {
      "midi": 75,
      "time": 16.125,
      "duration": 0.375,
      "velocity": 0.55,
      "hand": "right"
    },
    {
      "midi": 49,
      "time": 16.313,
      "duration": 0.188,
      "velocity": 0.94,
      "hand": "left"
    },
    {
      "midi": 39,
      "time": 16.5,
      "duration": 0.375,
      "velocity": 0.87,
      "hand": "left"
    },
    {
      "midi": 51,
      "time": 16.5,
      "duration": 0.375,
      "velocity": 0.87,
      "hand": "left"
    },
    {
      "midi": 55,
      "time": 16.5,
      "duration": 0.375,
      "velocity": 0.87,
      "hand": "left"
    },
    {
      "midi": 63,
      "time": 16.5,
      "duration": 0.188,
      "velocity": 1,
      "hand": "right"
    },
    {
      "midi": 75,
      "time": 16.5,
      "duration": 0.188,
      "velocity": 0.55,
      "hand": "right"
    },
    {
      "midi": 49,
      "time": 16.688,
      "duration": 0.188,
      "velocity": 0.94,
      "hand": "left"
    },
    {
      "midi": 65,
      "time": 16.688,
      "duration": 0.375,
      "velocity": 1,
      "hand": "right"
    },
    {
      "midi": 77,
      "time": 16.688,
      "duration": 0.375,
      "velocity": 0.55,
      "hand": "right"
    },
    {
      "midi": 49,
      "time": 16.875,
      "duration": 0.188,
      "velocity": 0.94,
      "hand": "left"
    },
    {
      "midi": 39,
      "time": 17.063,
      "duration": 0.375,
      "velocity": 0.87,
      "hand": "left"
    },
    {
      "midi": 51,
      "time": 17.063,
      "duration": 0.375,
      "velocity": 0.87,
      "hand": "left"
    },
    {
      "midi": 55,
      "time": 17.063,
      "duration": 0.375,
      "velocity": 0.87,
      "hand": "left"
    },
    {
      "midi": 67,
      "time": 17.063,
      "duration": 0.188,
      "velocity": 1,
      "hand": "right"
    },
    {
      "midi": 79,
      "time": 17.063,
      "duration": 0.188,
      "velocity": 0.55,
      "hand": "right"
    },
    {
      "midi": 49,
      "time": 17.25,
      "duration": 0.188,
      "velocity": 0.94,
      "hand": "left"
    },
    {
      "midi": 68,
      "time": 17.25,
      "duration": 0.375,
      "velocity": 1,
      "hand": "right"
    },
    {
      "midi": 80,
      "time": 17.25,
      "duration": 0.375,
      "velocity": 0.55,
      "hand": "right"
    },
    {
      "midi": 48,
      "time": 17.438,
      "duration": 0.188,
      "velocity": 0.94,
      "hand": "left"
    },
    {
      "midi": 44,
      "time": 17.625,
      "duration": 0.375,
      "velocity": 0.87,
      "hand": "left"
    },
    {
      "midi": 48,
      "time": 17.625,
      "duration": 0.188,
      "velocity": 0.94,
      "hand": "left"
    },
    {
      "midi": 51,
      "time": 17.625,
      "duration": 0.375,
      "velocity": 0.87,
      "hand": "left"
    },
    {
      "midi": 56,
      "time": 17.625,
      "duration": 0.375,
      "velocity": 0.87,
      "hand": "left"
    },
    {
      "midi": 68,
      "time": 17.625,
      "duration": 0.375,
      "velocity": 1,
      "hand": "right"
    },
    {
      "midi": 80,
      "time": 17.625,
      "duration": 0.375,
      "velocity": 0.55,
      "hand": "right"
    },
    {
      "midi": 43,
      "time": 18,
      "duration": 0.375,
      "velocity": 0.87,
      "hand": "left"
    },
    {
      "midi": 46,
      "time": 18,
      "duration": 0.375,
      "velocity": 0.87,
      "hand": "left"
    },
    {
      "midi": 75,
      "time": 18,
      "duration": 0.375,
      "velocity": 1,
      "hand": "right"
    },
    {
      "midi": 87,
      "time": 18,
      "duration": 0.375,
      "velocity": 0.55,
      "hand": "right"
    },
    {
      "midi": 51,
      "time": 18.188,
      "duration": 0.188,
      "velocity": 0.94,
      "hand": "left"
    },
    {
      "midi": 43,
      "time": 18.375,
      "duration": 0.375,
      "velocity": 0.87,
      "hand": "left"
    },
    {
      "midi": 46,
      "time": 18.375,
      "duration": 0.375,
      "velocity": 0.87,
      "hand": "left"
    },
    {
      "midi": 51,
      "time": 18.375,
      "duration": 0.188,
      "velocity": 0.94,
      "hand": "left"
    },
    {
      "midi": 75,
      "time": 18.375,
      "duration": 0.375,
      "velocity": 1,
      "hand": "right"
    },
    {
      "midi": 87,
      "time": 18.375,
      "duration": 0.375,
      "velocity": 0.55,
      "hand": "right"
    },
    {
      "midi": 53,
      "time": 18.563,
      "duration": 0.188,
      "velocity": 0.94,
      "hand": "left"
    },
    {
      "midi": 41,
      "time": 18.75,
      "duration": 0.375,
      "velocity": 0.87,
      "hand": "left"
    },
    {
      "midi": 49,
      "time": 18.75,
      "duration": 0.375,
      "velocity": 0.87,
      "hand": "left"
    },
    {
      "midi": 55,
      "time": 18.75,
      "duration": 0.188,
      "velocity": 0.94,
      "hand": "left"
    },
    {
      "midi": 70,
      "time": 18.75,
      "duration": 0.375,
      "velocity": 1,
      "hand": "right"
    },
    {
      "midi": 82,
      "time": 18.75,
      "duration": 0.375,
      "velocity": 0.55,
      "hand": "right"
    },
    {
      "midi": 39,
      "time": 19.5,
      "duration": 0.375,
      "velocity": 0.87,
      "hand": "left"
    },
    {
      "midi": 53,
      "time": 19.5,
      "duration": 0.375,
      "velocity": 0.87,
      "hand": "left"
    },
    {
      "midi": 73,
      "time": 19.5,
      "duration": 0.188,
      "velocity": 1,
      "hand": "right"
    },
    {
      "midi": 85,
      "time": 19.5,
      "duration": 0.188,
      "velocity": 0.55,
      "hand": "right"
    },
    {
      "midi": 46,
      "time": 19.688,
      "duration": 0.188,
      "velocity": 0.94,
      "hand": "left"
    },
    {
      "midi": 72,
      "time": 19.688,
      "duration": 0.375,
      "velocity": 1,
      "hand": "right"
    },
    {
      "midi": 84,
      "time": 19.688,
      "duration": 0.375,
      "velocity": 0.55,
      "hand": "right"
    },
    {
      "midi": 43,
      "time": 19.875,
      "duration": 0.375,
      "velocity": 0.87,
      "hand": "left"
    },
    {
      "midi": 51,
      "time": 19.875,
      "duration": 0.375,
      "velocity": 0.87,
      "hand": "left"
    },
    {
      "midi": 46,
      "time": 20.063,
      "duration": 0.188,
      "velocity": 0.94,
      "hand": "left"
    },
    {
      "midi": 70,
      "time": 20.063,
      "duration": 0.188,
      "velocity": 1,
      "hand": "right"
    },
    {
      "midi": 82,
      "time": 20.063,
      "duration": 0.188,
      "velocity": 0.55,
      "hand": "right"
    },
    {
      "midi": 44,
      "time": 20.25,
      "duration": 0.375,
      "velocity": 0.87,
      "hand": "left"
    },
    {
      "midi": 49,
      "time": 20.25,
      "duration": 0.188,
      "velocity": 0.87,
      "hand": "left"
    },
    {
      "midi": 68,
      "time": 20.25,
      "duration": 0.375,
      "velocity": 1,
      "hand": "right"
    },
    {
      "midi": 80,
      "time": 20.25,
      "duration": 0.375,
      "velocity": 0.55,
      "hand": "right"
    },
    {
      "midi": 48,
      "time": 20.438,
      "duration": 0.188,
      "velocity": 0.87,
      "hand": "left"
    },
    {
      "midi": 51,
      "time": 20.438,
      "duration": 0.188,
      "velocity": 0.94,
      "hand": "left"
    },
    {
      "midi": 44,
      "time": 20.625,
      "duration": 0.375,
      "velocity": 0.87,
      "hand": "left"
    },
    {
      "midi": 48,
      "time": 20.625,
      "duration": 0.375,
      "velocity": 0.87,
      "hand": "left"
    },
    {
      "midi": 51,
      "time": 20.625,
      "duration": 0.188,
      "velocity": 0.94,
      "hand": "left"
    },
    {
      "midi": 68,
      "time": 20.625,
      "duration": 0.375,
      "velocity": 1,
      "hand": "right"
    },
    {
      "midi": 80,
      "time": 20.625,
      "duration": 0.375,
      "velocity": 0.55,
      "hand": "right"
    },
    {
      "midi": 49,
      "time": 20.813,
      "duration": 0.188,
      "velocity": 0.63,
      "hand": "left"
    },
    {
      "midi": 46,
      "time": 21,
      "duration": 0.375,
      "velocity": 0.87,
      "hand": "left"
    },
    {
      "midi": 51,
      "time": 21,
      "duration": 0.375,
      "velocity": 0.87,
      "hand": "left"
    },
    {
      "midi": 56,
      "time": 21,
      "duration": 0.375,
      "velocity": 0.87,
      "hand": "left"
    },
    {
      "midi": 72,
      "time": 21,
      "duration": 0.188,
      "velocity": 1,
      "hand": "right"
    },
    {
      "midi": 84,
      "time": 21,
      "duration": 0.188,
      "velocity": 0.55,
      "hand": "right"
    },
    {
      "midi": 49,
      "time": 21.188,
      "duration": 0.188,
      "velocity": 0.94,
      "hand": "left"
    },
    {
      "midi": 68,
      "time": 21.188,
      "duration": 0.375,
      "velocity": 1,
      "hand": "right"
    },
    {
      "midi": 80,
      "time": 21.188,
      "duration": 0.375,
      "velocity": 0.55,
      "hand": "right"
    },
    {
      "midi": 49,
      "time": 21.375,
      "duration": 0.188,
      "velocity": 0.94,
      "hand": "left"
    },
    {
      "midi": 46,
      "time": 21.563,
      "duration": 0.375,
      "velocity": 0.87,
      "hand": "left"
    },
    {
      "midi": 51,
      "time": 21.563,
      "duration": 0.375,
      "velocity": 0.87,
      "hand": "left"
    },
    {
      "midi": 56,
      "time": 21.563,
      "duration": 0.375,
      "velocity": 0.87,
      "hand": "left"
    },
    {
      "midi": 65,
      "time": 21.563,
      "duration": 0.188,
      "velocity": 1,
      "hand": "right"
    },
    {
      "midi": 77,
      "time": 21.563,
      "duration": 0.188,
      "velocity": 0.55,
      "hand": "right"
    },
    {
      "midi": 49,
      "time": 21.75,
      "duration": 0.188,
      "velocity": 0.94,
      "hand": "left"
    },
    {
      "midi": 63,
      "time": 21.75,
      "duration": 0.375,
      "velocity": 1,
      "hand": "right"
    },
    {
      "midi": 75,
      "time": 21.75,
      "duration": 0.375,
      "velocity": 0.55,
      "hand": "right"
    },
    {
      "midi": 49,
      "time": 21.938,
      "duration": 0.188,
      "velocity": 0.94,
      "hand": "left"
    },
    {
      "midi": 37,
      "time": 22.125,
      "duration": 0.375,
      "velocity": 0.87,
      "hand": "left"
    },
    {
      "midi": 46,
      "time": 22.125,
      "duration": 0.375,
      "velocity": 0.87,
      "hand": "left"
    },
    {
      "midi": 53,
      "time": 22.125,
      "duration": 0.375,
      "velocity": 0.87,
      "hand": "left"
    },
    {
      "midi": 63,
      "time": 22.125,
      "duration": 0.375,
      "velocity": 1,
      "hand": "right"
    },
    {
      "midi": 75,
      "time": 22.125,
      "duration": 0.375,
      "velocity": 0.55,
      "hand": "right"
    },
    {
      "midi": 49,
      "time": 22.313,
      "duration": 0.188,
      "velocity": 0.94,
      "hand": "left"
    },
    {
      "midi": 39,
      "time": 22.5,
      "duration": 0.375,
      "velocity": 0.87,
      "hand": "left"
    },
    {
      "midi": 51,
      "time": 22.5,
      "duration": 0.375,
      "velocity": 0.87,
      "hand": "left"
    },
    {
      "midi": 55,
      "time": 22.5,
      "duration": 0.375,
      "velocity": 0.87,
      "hand": "left"
    },
    {
      "midi": 63,
      "time": 22.5,
      "duration": 0.188,
      "velocity": 1,
      "hand": "right"
    },
    {
      "midi": 75,
      "time": 22.5,
      "duration": 0.188,
      "velocity": 0.55,
      "hand": "right"
    },
    {
      "midi": 49,
      "time": 22.688,
      "duration": 0.188,
      "velocity": 0.94,
      "hand": "left"
    },
    {
      "midi": 65,
      "time": 22.688,
      "duration": 0.375,
      "velocity": 1,
      "hand": "right"
    },
    {
      "midi": 77,
      "time": 22.688,
      "duration": 0.375,
      "velocity": 0.55,
      "hand": "right"
    },
    {
      "midi": 49,
      "time": 22.875,
      "duration": 0.188,
      "velocity": 0.94,
      "hand": "left"
    },
    {
      "midi": 39,
      "time": 23.063,
      "duration": 0.375,
      "velocity": 0.87,
      "hand": "left"
    },
    {
      "midi": 51,
      "time": 23.063,
      "duration": 0.375,
      "velocity": 0.87,
      "hand": "left"
    },
    {
      "midi": 55,
      "time": 23.063,
      "duration": 0.375,
      "velocity": 0.87,
      "hand": "left"
    },
    {
      "midi": 67,
      "time": 23.063,
      "duration": 0.188,
      "velocity": 1,
      "hand": "right"
    },
    {
      "midi": 79,
      "time": 23.063,
      "duration": 0.188,
      "velocity": 0.55,
      "hand": "right"
    },
    {
      "midi": 49,
      "time": 23.25,
      "duration": 0.188,
      "velocity": 0.94,
      "hand": "left"
    },
    {
      "midi": 68,
      "time": 23.25,
      "duration": 0.375,
      "velocity": 1,
      "hand": "right"
    },
    {
      "midi": 80,
      "time": 23.25,
      "duration": 0.375,
      "velocity": 0.55,
      "hand": "right"
    },
    {
      "midi": 48,
      "time": 23.438,
      "duration": 0.188,
      "velocity": 0.94,
      "hand": "left"
    },
    {
      "midi": 44,
      "time": 23.625,
      "duration": 0.375,
      "velocity": 0.87,
      "hand": "left"
    },
    {
      "midi": 48,
      "time": 23.625,
      "duration": 0.188,
      "velocity": 0.94,
      "hand": "left"
    },
    {
      "midi": 51,
      "time": 23.625,
      "duration": 0.375,
      "velocity": 0.87,
      "hand": "left"
    },
    {
      "midi": 56,
      "time": 23.625,
      "duration": 0.375,
      "velocity": 0.87,
      "hand": "left"
    },
    {
      "midi": 68,
      "time": 23.625,
      "duration": 0.375,
      "velocity": 1,
      "hand": "right"
    },
    {
      "midi": 80,
      "time": 23.625,
      "duration": 0.375,
      "velocity": 0.55,
      "hand": "right"
    }
  ]
}
