{
  "id": "old-french-songtchaikosvky",
  "title": "Canção Francesa Antiga",
  "artist": "Piotr Ilitch Tchaikovsky",
  "difficulty": "Fácil",
  "bpm": 70,
  "duration": 55,
  "category": "Clássicos",
  "isPremium": true,
  "coverUrl": "/images/covers/placeholder.png",
  "notes": [
    {
      "midi": 62,
      "time": 0,
      "duration": 0.429,
      "velocity": 0.71,
      "hand": "right"
    },
    {
      "midi": 55,
      "time": 0.429,
      "duration": 2.571,
      "velocity": 0.71,
      "hand": "left"
    },
    {
      "midi": 58,
      "time": 0.429,
      "duration": 0.429,
      "velocity": 0.71,
      "hand": "left"
    },
    {
      "midi": 67,
      "time": 0.429,
      "duration": 0.429,
      "velocity": 0.71,
      "hand": "right"
    },
    {
      "midi": 60,
      "time": 0.857,
      "duration": 0.429,
      "velocity": 0.71,
      "hand": "right"
    },
    {
      "midi": 69,
      "time": 0.857,
      "duration": 0.429,
      "velocity": 0.71,
      "hand": "right"
    },
    {
      "midi": 62,
      "time": 1.286,
      "duration": 0.429,
      "velocity": 0.71,
      "hand": "right"
    },
    {
      "midi": 70,
      "time": 1.286,
      "duration": 0.429,
      "velocity": 0.71,
      "hand": "right"
    },
    {
      "midi": 60,
      "time": 1.714,
      "duration": 0.429,
      "velocity": 0.71,
      "hand": "right"
    },
    {
      "midi": 72,
      "time": 1.714,
      "duration": 0.429,
      "velocity": 0.71,
      "hand": "right"
    },
    {
      "midi": 58,
      "time": 2.143,
      "duration": 1.714,
      "velocity": 0.71,
      "hand": "left"
    },
    {
      "midi": 74,
      "time": 2.143,
      "duration": 1.286,
      "velocity": 0.71,
      "hand": "right"
    },
    {
      "midi": 55,
      "time": 3,
      "duration": 3.429,
      "velocity": 0.71,
      "hand": "left"
    },
    {
      "midi": 74,
      "time": 3.429,
      "duration": 0.429,
      "velocity": 0.71,
      "hand": "right"
    },
    {
      "midi": 63,
      "time": 3.857,
      "duration": 0.857,
      "velocity": 0.71,
      "hand": "right"
    },
    {
      "midi": 72,
      "time": 3.857,
      "duration": 0.429,
      "velocity": 0.71,
      "hand": "right"
    },
    {
      "midi": 74,
      "time": 4.286,
      "duration": 0.429,
      "velocity": 0.71,
      "hand": "right"
    },
    {
      "midi": 60,
      "time": 4.714,
      "duration": 0.857,
      "velocity": 0.71,
      "hand": "right"
    },
    {
      "midi": 75,
      "time": 4.714,
      "duration": 0.429,
      "velocity": 0.71,
      "hand": "right"
    },
    {
      "midi": 72,
      "time": 5.143,
      "duration": 0.429,
      "velocity": 0.71,
      "hand": "right"
    },
    {
      "midi": 58,
      "time": 5.571,
      "duration": 0.857,
      "velocity": 0.71,
      "hand": "left"
    },
    {
      "midi": 74,
      "time": 5.571,
      "duration": 1.286,
      "velocity": 0.71,
      "hand": "right"
    },
    {
      "midi": 55,
      "time": 6.429,
      "duration": 3.429,
      "velocity": 0.71,
      "hand": "left"
    },
    {
      "midi": 74,
      "time": 6.857,
      "duration": 0.429,
      "velocity": 0.71,
      "hand": "right"
    },
    {
      "midi": 63,
      "time": 7.286,
      "duration": 0.857,
      "velocity": 0.71,
      "hand": "right"
    },
    {
      "midi": 72,
      "time": 7.286,
      "duration": 0.429,
      "velocity": 0.71,
      "hand": "right"
    },
    {
      "midi": 74,
      "time": 7.714,
      "duration": 0.429,
      "velocity": 0.71,
      "hand": "right"
    },
    {
      "midi": 60,
      "time": 8.143,
      "duration": 0.857,
      "velocity": 0.71,
      "hand": "right"
    },
    {
      "midi": 75,
      "time": 8.143,
      "duration": 0.429,
      "velocity": 0.71,
      "hand": "right"
    },
    {
      "midi": 72,
      "time": 8.571,
      "duration": 0.429,
      "velocity": 0.71,
      "hand": "right"
    },
    {
      "midi": 58,
      "time": 9,
      "duration": 0.857,
      "velocity": 0.71,
      "hand": "left"
    },
    {
      "midi": 74,
      "time": 9,
      "duration": 0.429,
      "velocity": 0.71,
      "hand": "right"
    },
    {
      "midi": 75,
      "time": 9.429,
      "duration": 0.214,
      "velocity": 0.71,
      "hand": "right"
    },
    {
      "midi": 74,
      "time": 9.643,
      "duration": 0.214,
      "velocity": 0.71,
      "hand": "right"
    },
    {
      "midi": 55,
      "time": 9.857,
      "duration": 0.857,
      "velocity": 0.71,
      "hand": "left"
    },
    {
      "midi": 72,
      "time": 9.857,
      "duration": 0.429,
      "velocity": 0.71,
      "hand": "right"
    },
    {
      "midi": 70,
      "time": 10.286,
      "duration": 0.429,
      "velocity": 0.71,
      "hand": "right"
    },
    {
      "midi": 54,
      "time": 10.714,
      "duration": 0.857,
      "velocity": 0.71,
      "hand": "left"
    },
    {
      "midi": 60,
      "time": 10.714,
      "duration": 1.714,
      "velocity": 0.71,
      "hand": "right"
    },
    {
      "midi": 69,
      "time": 10.714,
      "duration": 1.5,
      "velocity": 0.71,
      "hand": "right"
    },
    {
      "midi": 50,
      "time": 11.571,
      "duration": 0.857,
      "velocity": 0.71,
      "hand": "left"
    },
    {
      "midi": 67,
      "time": 12.214,
      "duration": 0.214,
      "velocity": 0.71,
      "hand": "right"
    },
    {
      "midi": 55,
      "time": 12.429,
      "duration": 0.857,
      "velocity": 0.71,
      "hand": "left"
    },
    {
      "midi": 58,
      "time": 12.429,
      "duration": 0.857,
      "velocity": 0.71,
      "hand": "left"
    },
    {
      "midi": 67,
      "time": 12.429,
      "duration": 1.286,
      "velocity": 0.71,
      "hand": "right"
    },
    {
      "midi": 43,
      "time": 13.286,
      "duration": 0.857,
      "velocity": 0.71,
      "hand": "left"
    },
    {
      "midi": 62,
      "time": 13.714,
      "duration": 0.429,
      "velocity": 0.71,
      "hand": "right"
    },
    {
      "midi": 55,
      "time": 14.143,
      "duration": 2.571,
      "velocity": 0.71,
      "hand": "left"
    },
    {
      "midi": 58,
      "time": 14.143,
      "duration": 0.429,
      "velocity": 0.71,
      "hand": "left"
    },
    {
      "midi": 67,
      "time": 14.143,
      "duration": 0.429,
      "velocity": 0.71,
      "hand": "right"
    },
    {
      "midi": 60,
      "time": 14.571,
      "duration": 0.429,
      "velocity": 0.71,
      "hand": "right"
    },
    {
      "midi": 69,
      "time": 14.571,
      "duration": 0.429,
      "velocity": 0.71,
      "hand": "right"
    },
    {
      "midi": 62,
      "time": 15,
      "duration": 0.429,
      "velocity": 0.71,
      "hand": "right"
    },
    {
      "midi": 70,
      "time": 15,
      "duration": 0.429,
      "velocity": 0.71,
      "hand": "right"
    },
    {
      "midi": 60,
      "time": 15.429,
      "duration": 0.429,
      "velocity": 0.71,
      "hand": "right"
    },
    {
      "midi": 72,
      "time": 15.429,
      "duration": 0.429,
      "velocity": 0.71,
      "hand": "right"
    },
    {
      "midi": 58,
      "time": 15.857,
      "duration": 1.714,
      "velocity": 0.71,
      "hand": "left"
    },
    {
      "midi": 74,
      "time": 15.857,
      "duration": 1.286,
      "velocity": 0.71,
      "hand": "right"
    },
    {
      "midi": 55,
      "time": 16.714,
      "duration": 3.429,
      "velocity": 0.71,
      "hand": "left"
    },
    {
      "midi": 74,
      "time": 17.143,
      "duration": 0.429,
      "velocity": 0.71,
      "hand": "right"
    },
    {
      "midi": 63,
      "time": 17.571,
      "duration": 0.857,
      "velocity": 0.71,
      "hand": "right"
    },
    {
      "midi": 72,
      "time": 17.571,
      "duration": 0.429,
      "velocity": 0.71,
      "hand": "right"
    },
    {
      "midi": 74,
      "time": 18,
      "duration": 0.429,
      "velocity": 0.71,
      "hand": "right"
    },
    {
      "midi": 60,
      "time": 18.429,
      "duration": 0.857,
      "velocity": 0.71,
      "hand": "right"
    },
    {
      "midi": 75,
      "time": 18.429,
      "duration": 0.429,
      "velocity": 0.71,
      "hand": "right"
    },
    {
      "midi": 72,
      "time": 18.857,
      "duration": 0.429,
      "velocity": 0.71,
      "hand": "right"
    },
    {
      "midi": 58,
      "time": 19.286,
      "duration": 0.857,
      "velocity": 0.71,
      "hand": "left"
    },
    {
      "midi": 74,
      "time": 19.286,
      "duration": 1.286,
      "velocity": 0.71,
      "hand": "right"
    },
    {
      "midi": 55,
      "time": 20.143,
      "duration": 3.429,
      "velocity": 0.71,
      "hand": "left"
    },
    {
      "midi": 74,
      "time": 20.571,
      "duration": 0.429,
      "velocity": 0.71,
      "hand": "right"
    },
    {
      "midi": 63,
      "time": 21,
      "duration": 0.857,
      "velocity": 0.71,
      "hand": "right"
    },
    {
      "midi": 72,
      "time": 21,
      "duration": 0.429,
      "velocity": 0.71,
      "hand": "right"
    },
    {
      "midi": 74,
      "time": 21.429,
      "duration": 0.429,
      "velocity": 0.71,
      "hand": "right"
    },
    {
      "midi": 60,
      "time": 21.857,
      "duration": 0.857,
      "velocity": 0.71,
      "hand": "right"
    },
    {
      "midi": 75,
      "time": 21.857,
      "duration": 0.429,
      "velocity": 0.71,
      "hand": "right"
    },
    {
      "midi": 72,
      "time": 22.286,
      "duration": 0.429,
      "velocity": 0.71,
      "hand": "right"
    },
    {
      "midi": 58,
      "time": 22.714,
      "duration": 0.857,
      "velocity": 0.71,
      "hand": "left"
    },
    {
      "midi": 74,
      "time": 22.714,
      "duration": 0.429,
      "velocity": 0.71,
      "hand": "right"
    },
    {
      "midi": 75,
      "time": 23.143,
      "duration": 0.214,
      "velocity": 0.71,
      "hand": "right"
    },
    {
      "midi": 74,
      "time": 23.357,
      "duration": 0.214,
      "velocity": 0.71,
      "hand": "right"
    },
    {
      "midi": 55,
      "time": 23.571,
      "duration": 0.857,
      "velocity": 0.71,
      "hand": "left"
    },
    {
      "midi": 72,
      "time": 23.571,
      "duration": 0.429,
      "velocity": 0.71,
      "hand": "right"
    },
    {
      "midi": 70,
      "time": 24,
      "duration": 0.429,
      "velocity": 0.71,
      "hand": "right"
    },
    {
      "midi": 54,
      "time": 24.429,
      "duration": 0.857,
      "velocity": 0.71,
      "hand": "left"
    },
    {
      "midi": 60,
      "time": 24.429,
      "duration": 1.714,
      "velocity": 0.71,
      "hand": "right"
    },
    {
      "midi": 69,
      "time": 24.429,
      "duration": 1.5,
      "velocity": 0.71,
      "hand": "right"
    },
    {
      "midi": 50,
      "time": 25.286,
      "duration": 0.857,
      "velocity": 0.71,
      "hand": "left"
    },
    {
      "midi": 67,
      "time": 25.929,
      "duration": 0.214,
      "velocity": 0.71,
      "hand": "right"
    },
    {
      "midi": 55,
      "time": 26.143,
      "duration": 1.714,
      "velocity": 0.71,
      "hand": "left"
    },
    {
      "midi": 58,
      "time": 26.143,
      "duration": 1.714,
      "velocity": 0.71,
      "hand": "left"
    },
    {
      "midi": 67,
      "time": 26.143,
      "duration": 1.714,
      "velocity": 0.71,
      "hand": "right"
    },
    {
      "midi": 48,
      "time": 27.857,
      "duration": 0.429,
      "velocity": 0.71,
      "hand": "left"
    },
    {
      "midi": 67,
      "time": 27.857,
      "duration": 0.857,
      "velocity": 0.71,
      "hand": "right"
    },
    {
      "midi": 55,
      "time": 28.286,
      "duration": 0.429,
      "velocity": 0.71,
      "hand": "left"
    },
    {
      "midi": 60,
      "time": 28.714,
      "duration": 0.429,
      "velocity": 0.71,
      "hand": "right"
    },
    {
      "midi": 67,
      "time": 28.714,
      "duration": 0.429,
      "velocity": 0.71,
      "hand": "right"
    },
    {
      "midi": 63,
      "time": 29.143,
      "duration": 0.429,
      "velocity": 0.71,
      "hand": "right"
    },
    {
      "midi": 69,
      "time": 29.143,
      "duration": 0.429,
      "velocity": 0.71,
      "hand": "right"
    },
    {
      "midi": 43,
      "time": 29.571,
      "duration": 0.429,
      "velocity": 0.71,
      "hand": "left"
    },
    {
      "midi": 70,
      "time": 29.571,
      "duration": 1.286,
      "velocity": 0.71,
      "hand": "right"
    },
    {
      "midi": 55,
      "time": 30,
      "duration": 0.429,
      "velocity": 0.71,
      "hand": "left"
    },
    {
      "midi": 60,
      "time": 30.429,
      "duration": 0.429,
      "velocity": 0.71,
      "hand": "right"
    },
    {
      "midi": 63,
      "time": 30.857,
      "duration": 0.429,
      "velocity": 0.71,
      "hand": "right"
    },
    {
      "midi": 70,
      "time": 30.857,
      "duration": 0.429,
      "velocity": 0.71,
      "hand": "right"
    },
    {
      "midi": 48,
      "time": 31.286,
      "duration": 0.429,
      "velocity": 0.71,
      "hand": "left"
    },
    {
      "midi": 72,
      "time": 31.286,
      "duration": 0.857,
      "velocity": 0.71,
      "hand": "right"
    },
    {
      "midi": 55,
      "time": 31.714,
      "duration": 0.429,
      "velocity": 0.71,
      "hand": "left"
    },
    {
      "midi": 60,
      "time": 32.143,
      "duration": 0.429,
      "velocity": 0.71,
      "hand": "right"
    },
    {
      "midi": 72,
      "time": 32.143,
      "duration": 0.857,
      "velocity": 0.71,
      "hand": "right"
    },
    {
      "midi": 63,
      "time": 32.571,
      "duration": 0.429,
      "velocity": 0.71,
      "hand": "right"
    },
    {
      "midi": 50,
      "time": 33,
      "duration": 0.429,
      "velocity": 0.71,
      "hand": "left"
    },
    {
      "midi": 69,
      "time": 33,
      "duration": 1.286,
      "velocity": 0.71,
      "hand": "right"
    },
    {
      "midi": 57,
      "time": 33.429,
      "duration": 0.429,
      "velocity": 0.71,
      "hand": "left"
    },
    {
      "midi": 60,
      "time": 33.857,
      "duration": 0.429,
      "velocity": 0.71,
      "hand": "right"
    },
    {
      "midi": 66,
      "time": 34.286,
      "duration": 0.429,
      "velocity": 0.71,
      "hand": "right"
    },
    {
      "midi": 69,
      "time": 34.286,
      "duration": 0.429,
      "velocity": 0.71,
      "hand": "right"
    },
    {
      "midi": 55,
      "time": 34.714,
      "duration": 0.429,
      "velocity": 0.71,
      "hand": "left"
    },
    {
      "midi": 58,
      "time": 34.714,
      "duration": 0.429,
      "velocity": 0.71,
      "hand": "left"
    },
    {
      "midi": 74,
      "time": 34.714,
      "duration": 1.286,
      "velocity": 0.71,
      "hand": "right"
    },
    {
      "midi": 62,
      "time": 35.143,
      "duration": 0.429,
      "velocity": 0.71,
      "hand": "right"
    },
    {
      "midi": 67,
      "time": 35.571,
      "duration": 0.429,
      "velocity": 0.71,
      "hand": "right"
    },
    {
      "midi": 74,
      "time": 36,
      "duration": 0.429,
      "velocity": 0.71,
      "hand": "right"
    },
    {
      "midi": 60,
      "time": 36.429,
      "duration": 1.714,
      "velocity": 0.71,
      "hand": "right"
    },
    {
      "midi": 63,
      "time": 36.429,
      "duration": 1.714,
      "velocity": 0.71,
      "hand": "right"
    },
    {
      "midi": 67,
      "time": 36.429,
      "duration": 1.714,
      "velocity": 0.71,
      "hand": "right"
    },
    {
      "midi": 75,
      "time": 36.429,
      "duration": 0.429,
      "velocity": 0.71,
      "hand": "right"
    },
    {
      "midi": 77,
      "time": 36.857,
      "duration": 0.214,
      "velocity": 0.71,
      "hand": "right"
    },
    {
      "midi": 75,
      "time": 37.071,
      "duration": 0.214,
      "velocity": 0.71,
      "hand": "right"
    },
    {
      "midi": 74,
      "time": 37.286,
      "duration": 0.429,
      "velocity": 0.71,
      "hand": "right"
    },
    {
      "midi": 72,
      "time": 37.714,
      "duration": 0.429,
      "velocity": 0.71,
      "hand": "right"
    },
    {
      "midi": 62,
      "time": 38.143,
      "duration": 0.857,
      "velocity": 0.71,
      "hand": "right"
    },
    {
      "midi": 67,
      "time": 38.143,
      "duration": 0.857,
      "velocity": 0.71,
      "hand": "right"
    },
    {
      "midi": 70,
      "time": 38.143,
      "duration": 0.857,
      "velocity": 0.71,
      "hand": "right"
    },
    {
      "midi": 69,
      "time": 39,
      "duration": 0.429,
      "velocity": 0.71,
      "hand": "right"
    },
    {
      "midi": 67,
      "time": 39.429,
      "duration": 0.429,
      "velocity": 0.71,
      "hand": "right"
    },
    {
      "midi": 62,
      "time": 39.857,
      "duration": 0.857,
      "velocity": 0.71,
      "hand": "right"
    },
    {
      "midi": 66,
      "time": 39.857,
      "duration": 1.286,
      "velocity": 0.71,
      "hand": "right"
    },
    {
      "midi": 69,
      "time": 39.857,
      "duration": 1.286,
      "velocity": 0.71,
      "hand": "right"
    },
    {
      "midi": 50,
      "time": 40.714,
      "duration": 0.857,
      "velocity": 0.71,
      "hand": "left"
    },
    {
      "midi": 62,
      "time": 41.143,
      "duration": 0.429,
      "velocity": 0.71,
      "hand": "right"
    },
    {
      "midi": 55,
      "time": 41.571,
      "duration": 2.571,
      "velocity": 0.71,
      "hand": "left"
    },
    {
      "midi": 58,
      "time": 41.571,
      "duration": 0.429,
      "velocity": 0.71,
      "hand": "left"
    },
    {
      "midi": 67,
      "time": 41.571,
      "duration": 0.429,
      "velocity": 0.71,
      "hand": "right"
    },
    {
      "midi": 60,
      "time": 42,
      "duration": 0.429,
      "velocity": 0.71,
      "hand": "right"
    },
    {
      "midi": 69,
      "time": 42,
      "duration": 0.429,
      "velocity": 0.71,
      "hand": "right"
    },
    {
      "midi": 62,
      "time": 42.429,
      "duration": 0.429,
      "velocity": 0.71,
      "hand": "right"
    },
    {
      "midi": 70,
      "time": 42.429,
      "duration": 0.429,
      "velocity": 0.71,
      "hand": "right"
    },
    {
      "midi": 60,
      "time": 42.857,
      "duration": 0.429,
      "velocity": 0.71,
      "hand": "right"
    },
    {
      "midi": 72,
      "time": 42.857,
      "duration": 0.429,
      "velocity": 0.71,
      "hand": "right"
    },
    {
      "midi": 58,
      "time": 43.286,
      "duration": 1.714,
      "velocity": 0.71,
      "hand": "left"
    },
    {
      "midi": 74,
      "time": 43.286,
      "duration": 1.286,
      "velocity": 0.71,
      "hand": "right"
    },
    {
      "midi": 55,
      "time": 44.143,
      "duration": 3.429,
      "velocity": 0.71,
      "hand": "left"
    },
    {
      "midi": 74,
      "time": 44.571,
      "duration": 0.429,
      "velocity": 0.71,
      "hand": "right"
    },
    {
      "midi": 63,
      "time": 45,
      "duration": 0.857,
      "velocity": 0.71,
      "hand": "right"
    },
    {
      "midi": 72,
      "time": 45,
      "duration": 0.429,
      "velocity": 0.71,
      "hand": "right"
    },
    {
      "midi": 74,
      "time": 45.429,
      "duration": 0.429,
      "velocity": 0.71,
      "hand": "right"
    },
    {
      "midi": 60,
      "time": 45.857,
      "duration": 0.857,
      "velocity": 0.71,
      "hand": "right"
    },
    {
      "midi": 75,
      "time": 45.857,
      "duration": 0.429,
      "velocity": 0.71,
      "hand": "right"
    },
    {
      "midi": 72,
      "time": 46.286,
      "duration": 0.429,
      "velocity": 0.71,
      "hand": "right"
    },
    {
      "midi": 58,
      "time": 46.714,
      "duration": 0.857,
      "velocity": 0.71,
      "hand": "left"
    },
    {
      "midi": 74,
      "time": 46.714,
      "duration": 1.286,
      "velocity": 0.71,
      "hand": "right"
    },
    {
      "midi": 55,
      "time": 47.571,
      "duration": 3.429,
      "velocity": 0.71,
      "hand": "left"
    },
    {
      "midi": 74,
      "time": 48,
      "duration": 0.429,
      "velocity": 0.71,
      "hand": "right"
    },
    {
      "midi": 63,
      "time": 48.429,
      "duration": 0.857,
      "velocity": 0.71,
      "hand": "right"
    },
    {
      "midi": 72,
      "time": 48.429,
      "duration": 0.429,
      "velocity": 0.71,
      "hand": "right"
    },
    {
      "midi": 74,
      "time": 48.857,
      "duration": 0.429,
      "velocity": 0.71,
      "hand": "right"
    },
    {
      "midi": 60,
      "time": 49.286,
      "duration": 0.857,
      "velocity": 0.71,
      "hand": "right"
    },
    {
      "midi": 75,
      "time": 49.286,
      "duration": 0.429,
      "velocity": 0.71,
      "hand": "right"
    },
    {
      "midi": 72,
      "time": 49.714,
      "duration": 0.429,
      "velocity": 0.71,
      "hand": "right"
    },
    {
      "midi": 58,
      "time": 50.143,
      "duration": 0.857,
      "velocity": 0.71,
      "hand": "left"
    },
    {
      "midi": 74,
      "time": 50.143,
      "duration": 0.429,
      "velocity": 0.71,
      "hand": "right"
    },
    {
      "midi": 75,
      "time": 50.571,
      "duration": 0.214,
      "velocity": 0.71,
      "hand": "right"
    },
    {
      "midi": 74,
      "time": 50.786,
      "duration": 0.214,
      "velocity": 0.71,
      "hand": "right"
    },
    {
      "midi": 55,
      "time": 51,
      "duration": 0.857,
      "velocity": 0.71,
      "hand": "left"
    },
    {
      "midi": 72,
      "time": 51,
      "duration": 0.429,
      "velocity": 0.71,
      "hand": "right"
    },
    {
      "midi": 70,
      "time": 51.429,
      "duration": 0.429,
      "velocity": 0.71,
      "hand": "right"
    },
    {
      "midi": 48,
      "time": 51.857,
      "duration": 0.857,
      "velocity": 0.71,
      "hand": "left"
    },
    {
      "midi": 55,
      "time": 51.857,
      "duration": 0.857,
      "velocity": 0.71,
      "hand": "left"
    },
    {
      "midi": 63,
      "time": 51.857,
      "duration": 0.857,
      "velocity": 0.71,
      "hand": "right"
    },
    {
      "midi": 69,
      "time": 51.857,
      "duration": 1.5,
      "velocity": 0.71,
      "hand": "right"
    },
    {
      "midi": 50,
      "time": 52.714,
      "duration": 0.857,
      "velocity": 0.71,
      "hand": "left"
    },
    {
      "midi": 54,
      "time": 52.714,
      "duration": 0.857,
      "velocity": 0.71,
      "hand": "left"
    },
    {
      "midi": 62,
      "time": 52.714,
      "duration": 0.857,
      "velocity": 0.71,
      "hand": "right"
    },
    {
      "midi": 67,
      "time": 53.357,
      "duration": 0.214,
      "velocity": 0.71,
      "hand": "right"
    },
    {
      "midi": 43,
      "time": 53.571,
      "duration": 1.714,
      "velocity": 0.71,
      "hand": "left"
    },
    {
      "midi": 50,
      "time": 53.571,
      "duration": 1.714,
      "velocity": 0.71,
      "hand": "left"
    },
    {
      "midi": 58,
      "time": 53.571,
      "duration": 1.714,
      "velocity": 0.71,
      "hand": "left"
    },
    {
      "midi": 67,
      "time": 53.571,
      "duration": 1.714,
      "velocity": 0.71,
      "hand": "right"
    }
  ],
  "arrangements": {
    "easy": [
      {
        "midi": 62,
        "time": 0,
        "duration": 0.429,
        "velocity": 0.71,
        "hand": "right"
      },
      {
        "midi": 67,
        "time": 0.429,
        "duration": 0.429,
        "velocity": 0.71,
        "hand": "right"
      },
      {
        "midi": 70,
        "time": 1.286,
        "duration": 0.429,
        "velocity": 0.71,
        "hand": "right"
      },
      {
        "midi": 74,
        "time": 2.143,
        "duration": 1.286,
        "velocity": 0.71,
        "hand": "right"
      },
      {
        "midi": 74,
        "time": 3.429,
        "duration": 0.429,
        "velocity": 0.71,
        "hand": "right"
      },
      {
        "midi": 74,
        "time": 4.286,
        "duration": 0.429,
        "velocity": 0.71,
        "hand": "right"
      },
      {
        "midi": 72,
        "time": 5.143,
        "duration": 0.429,
        "velocity": 0.71,
        "hand": "right"
      },
      {
        "midi": 74,
        "time": 6.857,
        "duration": 0.429,
        "velocity": 0.71,
        "hand": "right"
      },
      {
        "midi": 72,
        "time": 7.286,
        "duration": 0.429,
        "velocity": 0.71,
        "hand": "right"
      },
      {
        "midi": 75,
        "time": 8.143,
        "duration": 0.429,
        "velocity": 0.71,
        "hand": "right"
      },
      {
        "midi": 74,
        "time": 9,
        "duration": 0.429,
        "velocity": 0.71,
        "hand": "right"
      },
      {
        "midi": 75,
        "time": 9.429,
        "duration": 0.429,
        "velocity": 0.71,
        "hand": "right"
      },
      {
        "midi": 70,
        "time": 10.286,
        "duration": 0.429,
        "velocity": 0.71,
        "hand": "right"
      },
      {
        "midi": 67,
        "time": 12.214,
        "duration": 0.429,
        "velocity": 0.71,
        "hand": "right"
      },
      {
        "midi": 62,
        "time": 13.714,
        "duration": 0.429,
        "velocity": 0.71,
        "hand": "right"
      },
      {
        "midi": 67,
        "time": 14.143,
        "duration": 0.429,
        "velocity": 0.71,
        "hand": "right"
      },
      {
        "midi": 70,
        "time": 15,
        "duration": 0.429,
        "velocity": 0.71,
        "hand": "right"
      },
      {
        "midi": 72,
        "time": 15.429,
        "duration": 0.429,
        "velocity": 0.71,
        "hand": "right"
      },
      {
        "midi": 74,
        "time": 17.143,
        "duration": 0.429,
        "velocity": 0.71,
        "hand": "right"
      },
      {
        "midi": 74,
        "time": 18,
        "duration": 0.429,
        "velocity": 0.71,
        "hand": "right"
      },
      {
        "midi": 75,
        "time": 18.429,
        "duration": 0.429,
        "velocity": 0.71,
        "hand": "right"
      },
      {
        "midi": 74,
        "time": 19.286,
        "duration": 1.286,
        "velocity": 0.71,
        "hand": "right"
      },
      {
        "midi": 74,
        "time": 20.571,
        "duration": 0.429,
        "velocity": 0.71,
        "hand": "right"
      },
      {
        "midi": 72,
        "time": 21,
        "duration": 0.429,
        "velocity": 0.71,
        "hand": "right"
      },
      {
        "midi": 74,
        "time": 21.429,
        "duration": 0.429,
        "velocity": 0.71,
        "hand": "right"
      },
      {
        "midi": 72,
        "time": 22.286,
        "duration": 0.429,
        "velocity": 0.71,
        "hand": "right"
      },
      {
        "midi": 75,
        "time": 23.143,
        "duration": 0.429,
        "velocity": 0.71,
        "hand": "right"
      },
      {
        "midi": 70,
        "time": 24,
        "duration": 0.429,
        "velocity": 0.71,
        "hand": "right"
      },
      {
        "midi": 69,
        "time": 24.429,
        "duration": 1.5,
        "velocity": 0.71,
        "hand": "right"
      },
      {
        "midi": 67,
        "time": 25.929,
        "duration": 0.429,
        "velocity": 0.71,
        "hand": "right"
      },
      {
        "midi": 67,
        "time": 27.857,
        "duration": 0.857,
        "velocity": 0.71,
        "hand": "right"
      },
      {
        "midi": 67,
        "time": 28.714,
        "duration": 0.429,
        "velocity": 0.71,
        "hand": "right"
      },
      {
        "midi": 69,
        "time": 29.143,
        "duration": 0.429,
        "velocity": 0.71,
        "hand": "right"
      },
      {
        "midi": 60,
        "time": 30.429,
        "duration": 0.429,
        "velocity": 0.71,
        "hand": "right"
      },
      {
        "midi": 72,
        "time": 31.286,
        "duration": 0.857,
        "velocity": 0.71,
        "hand": "right"
      },
      {
        "midi": 72,
        "time": 32.143,
        "duration": 0.857,
        "velocity": 0.71,
        "hand": "right"
      },
      {
        "midi": 69,
        "time": 33,
        "duration": 1.286,
        "velocity": 0.71,
        "hand": "right"
      },
      {
        "midi": 60,
        "time": 33.857,
        "duration": 0.429,
        "velocity": 0.71,
        "hand": "right"
      },
      {
        "midi": 69,
        "time": 34.286,
        "duration": 0.429,
        "velocity": 0.71,
        "hand": "right"
      },
      {
        "midi": 62,
        "time": 35.143,
        "duration": 0.429,
        "velocity": 0.71,
        "hand": "right"
      },
      {
        "midi": 74,
        "time": 36,
        "duration": 0.429,
        "velocity": 0.71,
        "hand": "right"
      },
      {
        "midi": 75,
        "time": 36.429,
        "duration": 0.429,
        "velocity": 0.71,
        "hand": "right"
      },
      {
        "midi": 75,
        "time": 37.071,
        "duration": 0.429,
        "velocity": 0.71,
        "hand": "right"
      },
      {
        "midi": 72,
        "time": 37.714,
        "duration": 0.429,
        "velocity": 0.71,
        "hand": "right"
      },
      {
        "midi": 70,
        "time": 38.143,
        "duration": 0.857,
        "velocity": 0.71,
        "hand": "right"
      },
      {
        "midi": 69,
        "time": 39,
        "duration": 0.429,
        "velocity": 0.71,
        "hand": "right"
      },
      {
        "midi": 67,
        "time": 39.429,
        "duration": 0.429,
        "velocity": 0.71,
        "hand": "right"
      },
      {
        "midi": 62,
        "time": 41.143,
        "duration": 0.429,
        "velocity": 0.71,
        "hand": "right"
      },
      {
        "midi": 69,
        "time": 42,
        "duration": 0.429,
        "velocity": 0.71,
        "hand": "right"
      },
      {
        "midi": 70,
        "time": 42.429,
        "duration": 0.429,
        "velocity": 0.71,
        "hand": "right"
      },
      {
        "midi": 74,
        "time": 43.286,
        "duration": 1.286,
        "velocity": 0.71,
        "hand": "right"
      },
      {
        "midi": 74,
        "time": 44.571,
        "duration": 0.429,
        "velocity": 0.71,
        "hand": "right"
      },
      {
        "midi": 72,
        "time": 45,
        "duration": 0.429,
        "velocity": 0.71,
        "hand": "right"
      },
      {
        "midi": 74,
        "time": 45.429,
        "duration": 0.429,
        "velocity": 0.71,
        "hand": "right"
      },
      {
        "midi": 72,
        "time": 46.286,
        "duration": 0.429,
        "velocity": 0.71,
        "hand": "right"
      },
      {
        "midi": 74,
        "time": 48,
        "duration": 0.429,
        "velocity": 0.71,
        "hand": "right"
      },
      {
        "midi": 72,
        "time": 48.429,
        "duration": 0.429,
        "velocity": 0.71,
        "hand": "right"
      },
      {
        "midi": 75,
        "time": 49.286,
        "duration": 0.429,
        "velocity": 0.71,
        "hand": "right"
      },
      {
        "midi": 74,
        "time": 50.143,
        "duration": 0.429,
        "velocity": 0.71,
        "hand": "right"
      },
      {
        "midi": 74,
        "time": 50.786,
        "duration": 0.429,
        "velocity": 0.71,
        "hand": "right"
      },
      {
        "midi": 70,
        "time": 51.429,
        "duration": 0.429,
        "velocity": 0.71,
        "hand": "right"
      },
      {
        "midi": 62,
        "time": 52.714,
        "duration": 0.857,
        "velocity": 0.71,
        "hand": "right"
      },
      {
        "midi": 67,
        "time": 53.357,
        "duration": 0.429,
        "velocity": 0.71,
        "hand": "right"
      }
    ],
    "medium": [
      {
        "midi": 62,
        "time": 0,
        "duration": 0.429,
        "velocity": 0.71,
        "hand": "right"
      },
      {
        "midi": 55,
        "time": 0.429,
        "duration": 2.571,
        "velocity": 0.71,
        "hand": "left"
      },
      {
        "midi": 58,
        "time": 0.429,
        "duration": 0.429,
        "velocity": 0.71,
        "hand": "left"
      },
      {
        "midi": 67,
        "time": 0.429,
        "duration": 0.429,
        "velocity": 0.71,
        "hand": "right"
      },
      {
        "midi": 60,
        "time": 0.857,
        "duration": 0.429,
        "velocity": 0.71,
        "hand": "right"
      },
      {
        "midi": 69,
        "time": 0.857,
        "duration": 0.429,
        "velocity": 0.71,
        "hand": "right"
      },
      {
        "midi": 62,
        "time": 1.286,
        "duration": 0.429,
        "velocity": 0.71,
        "hand": "right"
      },
      {
        "midi": 70,
        "time": 1.286,
        "duration": 0.429,
        "velocity": 0.71,
        "hand": "right"
      },
      {
        "midi": 60,
        "time": 1.714,
        "duration": 0.429,
        "velocity": 0.71,
        "hand": "right"
      },
      {
        "midi": 72,
        "time": 1.714,
        "duration": 0.429,
        "velocity": 0.71,
        "hand": "right"
      },
      {
        "midi": 58,
        "time": 2.143,
        "duration": 1.714,
        "velocity": 0.71,
        "hand": "left"
      },
      {
        "midi": 74,
        "time": 2.143,
        "duration": 1.286,
        "velocity": 0.71,
        "hand": "right"
      },
      {
        "midi": 55,
        "time": 3,
        "duration": 3.429,
        "velocity": 0.71,
        "hand": "left"
      },
      {
        "midi": 74,
        "time": 3.429,
        "duration": 0.429,
        "velocity": 0.71,
        "hand": "right"
      },
      {
        "midi": 63,
        "time": 3.857,
        "duration": 0.857,
        "velocity": 0.71,
        "hand": "right"
      },
      {
        "midi": 72,
        "time": 3.857,
        "duration": 0.429,
        "velocity": 0.71,
        "hand": "right"
      },
      {
        "midi": 74,
        "time": 4.286,
        "duration": 0.429,
        "velocity": 0.71,
        "hand": "right"
      },
      {
        "midi": 60,
        "time": 4.714,
        "duration": 0.857,
        "velocity": 0.71,
        "hand": "right"
      },
      {
        "midi": 75,
        "time": 4.714,
        "duration": 0.429,
        "velocity": 0.71,
        "hand": "right"
      },
      {
        "midi": 72,
        "time": 5.143,
        "duration": 0.429,
        "velocity": 0.71,
        "hand": "right"
      },
      {
        "midi": 58,
        "time": 5.571,
        "duration": 0.857,
        "velocity": 0.71,
        "hand": "left"
      },
      {
        "midi": 74,
        "time": 5.571,
        "duration": 1.286,
        "velocity": 0.71,
        "hand": "right"
      },
      {
        "midi": 55,
        "time": 6.429,
        "duration": 3.429,
        "velocity": 0.71,
        "hand": "left"
      },
      {
        "midi": 74,
        "time": 6.857,
        "duration": 0.429,
        "velocity": 0.71,
        "hand": "right"
      },
      {
        "midi": 63,
        "time": 7.286,
        "duration": 0.857,
        "velocity": 0.71,
        "hand": "right"
      },
      {
        "midi": 72,
        "time": 7.286,
        "duration": 0.429,
        "velocity": 0.71,
        "hand": "right"
      },
      {
        "midi": 74,
        "time": 7.714,
        "duration": 0.429,
        "velocity": 0.71,
        "hand": "right"
      },
      {
        "midi": 60,
        "time": 8.143,
        "duration": 0.857,
        "velocity": 0.71,
        "hand": "right"
      },
      {
        "midi": 75,
        "time": 8.143,
        "duration": 0.429,
        "velocity": 0.71,
        "hand": "right"
      },
      {
        "midi": 72,
        "time": 8.571,
        "duration": 0.429,
        "velocity": 0.71,
        "hand": "right"
      },
      {
        "midi": 58,
        "time": 9,
        "duration": 0.857,
        "velocity": 0.71,
        "hand": "left"
      },
      {
        "midi": 74,
        "time": 9,
        "duration": 0.429,
        "velocity": 0.71,
        "hand": "right"
      },
      {
        "midi": 75,
        "time": 9.429,
        "duration": 0.214,
        "velocity": 0.71,
        "hand": "right"
      },
      {
        "midi": 74,
        "time": 9.643,
        "duration": 0.214,
        "velocity": 0.71,
        "hand": "right"
      },
      {
        "midi": 55,
        "time": 9.857,
        "duration": 0.857,
        "velocity": 0.71,
        "hand": "left"
      },
      {
        "midi": 72,
        "time": 9.857,
        "duration": 0.429,
        "velocity": 0.71,
        "hand": "right"
      },
      {
        "midi": 70,
        "time": 10.286,
        "duration": 0.429,
        "velocity": 0.71,
        "hand": "right"
      },
      {
        "midi": 54,
        "time": 10.714,
        "duration": 0.857,
        "velocity": 0.71,
        "hand": "left"
      },
      {
        "midi": 60,
        "time": 10.714,
        "duration": 1.714,
        "velocity": 0.71,
        "hand": "right"
      },
      {
        "midi": 69,
        "time": 10.714,
        "duration": 1.5,
        "velocity": 0.71,
        "hand": "right"
      },
      {
        "midi": 50,
        "time": 11.571,
        "duration": 0.857,
        "velocity": 0.71,
        "hand": "left"
      },
      {
        "midi": 67,
        "time": 12.214,
        "duration": 0.214,
        "velocity": 0.71,
        "hand": "right"
      },
      {
        "midi": 55,
        "time": 12.429,
        "duration": 0.857,
        "velocity": 0.71,
        "hand": "left"
      },
      {
        "midi": 58,
        "time": 12.429,
        "duration": 0.857,
        "velocity": 0.71,
        "hand": "left"
      },
      {
        "midi": 67,
        "time": 12.429,
        "duration": 1.286,
        "velocity": 0.71,
        "hand": "right"
      },
      {
        "midi": 43,
        "time": 13.286,
        "duration": 0.857,
        "velocity": 0.71,
        "hand": "left"
      },
      {
        "midi": 62,
        "time": 13.714,
        "duration": 0.429,
        "velocity": 0.71,
        "hand": "right"
      },
      {
        "midi": 55,
        "time": 14.143,
        "duration": 2.571,
        "velocity": 0.71,
        "hand": "left"
      },
      {
        "midi": 58,
        "time": 14.143,
        "duration": 0.429,
        "velocity": 0.71,
        "hand": "left"
      },
      {
        "midi": 67,
        "time": 14.143,
        "duration": 0.429,
        "velocity": 0.71,
        "hand": "right"
      },
      {
        "midi": 60,
        "time": 14.571,
        "duration": 0.429,
        "velocity": 0.71,
        "hand": "right"
      },
      {
        "midi": 69,
        "time": 14.571,
        "duration": 0.429,
        "velocity": 0.71,
        "hand": "right"
      },
      {
        "midi": 62,
        "time": 15,
        "duration": 0.429,
        "velocity": 0.71,
        "hand": "right"
      },
      {
        "midi": 70,
        "time": 15,
        "duration": 0.429,
        "velocity": 0.71,
        "hand": "right"
      },
      {
        "midi": 60,
        "time": 15.429,
        "duration": 0.429,
        "velocity": 0.71,
        "hand": "right"
      },
      {
        "midi": 72,
        "time": 15.429,
        "duration": 0.429,
        "velocity": 0.71,
        "hand": "right"
      },
      {
        "midi": 58,
        "time": 15.857,
        "duration": 1.714,
        "velocity": 0.71,
        "hand": "left"
      },
      {
        "midi": 74,
        "time": 15.857,
        "duration": 1.286,
        "velocity": 0.71,
        "hand": "right"
      },
      {
        "midi": 55,
        "time": 16.714,
        "duration": 3.429,
        "velocity": 0.71,
        "hand": "left"
      },
      {
        "midi": 74,
        "time": 17.143,
        "duration": 0.429,
        "velocity": 0.71,
        "hand": "right"
      },
      {
        "midi": 63,
        "time": 17.571,
        "duration": 0.857,
        "velocity": 0.71,
        "hand": "right"
      },
      {
        "midi": 72,
        "time": 17.571,
        "duration": 0.429,
        "velocity": 0.71,
        "hand": "right"
      },
      {
        "midi": 74,
        "time": 18,
        "duration": 0.429,
        "velocity": 0.71,
        "hand": "right"
      },
      {
        "midi": 60,
        "time": 18.429,
        "duration": 0.857,
        "velocity": 0.71,
        "hand": "right"
      },
      {
        "midi": 75,
        "time": 18.429,
        "duration": 0.429,
        "velocity": 0.71,
        "hand": "right"
      },
      {
        "midi": 72,
        "time": 18.857,
        "duration": 0.429,
        "velocity": 0.71,
        "hand": "right"
      },
      {
        "midi": 58,
        "time": 19.286,
        "duration": 0.857,
        "velocity": 0.71,
        "hand": "left"
      },
      {
        "midi": 74,
        "time": 19.286,
        "duration": 1.286,
        "velocity": 0.71,
        "hand": "right"
      },
      {
        "midi": 55,
        "time": 20.143,
        "duration": 3.429,
        "velocity": 0.71,
        "hand": "left"
      },
      {
        "midi": 74,
        "time": 20.571,
        "duration": 0.429,
        "velocity": 0.71,
        "hand": "right"
      },
      {
        "midi": 63,
        "time": 21,
        "duration": 0.857,
        "velocity": 0.71,
        "hand": "right"
      },
      {
        "midi": 72,
        "time": 21,
        "duration": 0.429,
        "velocity": 0.71,
        "hand": "right"
      },
      {
        "midi": 74,
        "time": 21.429,
        "duration": 0.429,
        "velocity": 0.71,
        "hand": "right"
      },
      {
        "midi": 60,
        "time": 21.857,
        "duration": 0.857,
        "velocity": 0.71,
        "hand": "right"
      },
      {
        "midi": 75,
        "time": 21.857,
        "duration": 0.429,
        "velocity": 0.71,
        "hand": "right"
      },
      {
        "midi": 72,
        "time": 22.286,
        "duration": 0.429,
        "velocity": 0.71,
        "hand": "right"
      },
      {
        "midi": 58,
        "time": 22.714,
        "duration": 0.857,
        "velocity": 0.71,
        "hand": "left"
      },
      {
        "midi": 74,
        "time": 22.714,
        "duration": 0.429,
        "velocity": 0.71,
        "hand": "right"
      },
      {
        "midi": 75,
        "time": 23.143,
        "duration": 0.214,
        "velocity": 0.71,
        "hand": "right"
      },
      {
        "midi": 74,
        "time": 23.357,
        "duration": 0.214,
        "velocity": 0.71,
        "hand": "right"
      },
      {
        "midi": 55,
        "time": 23.571,
        "duration": 0.857,
        "velocity": 0.71,
        "hand": "left"
      },
      {
        "midi": 72,
        "time": 23.571,
        "duration": 0.429,
        "velocity": 0.71,
        "hand": "right"
      },
      {
        "midi": 70,
        "time": 24,
        "duration": 0.429,
        "velocity": 0.71,
        "hand": "right"
      },
      {
        "midi": 54,
        "time": 24.429,
        "duration": 0.857,
        "velocity": 0.71,
        "hand": "left"
      },
      {
        "midi": 60,
        "time": 24.429,
        "duration": 1.714,
        "velocity": 0.71,
        "hand": "right"
      },
      {
        "midi": 69,
        "time": 24.429,
        "duration": 1.5,
        "velocity": 0.71,
        "hand": "right"
      },
      {
        "midi": 50,
        "time": 25.286,
        "duration": 0.857,
        "velocity": 0.71,
        "hand": "left"
      },
      {
        "midi": 67,
        "time": 25.929,
        "duration": 0.214,
        "velocity": 0.71,
        "hand": "right"
      },
      {
        "midi": 55,
        "time": 26.143,
        "duration": 1.714,
        "velocity": 0.71,
        "hand": "left"
      },
      {
        "midi": 58,
        "time": 26.143,
        "duration": 1.714,
        "velocity": 0.71,
        "hand": "left"
      },
      {
        "midi": 67,
        "time": 26.143,
        "duration": 1.714,
        "velocity": 0.71,
        "hand": "right"
      },
      {
        "midi": 48,
        "time": 27.857,
        "duration": 0.429,
        "velocity": 0.71,
        "hand": "left"
      },
      {
        "midi": 67,
        "time": 27.857,
        "duration": 0.857,
        "velocity": 0.71,
        "hand": "right"
      },
      {
        "midi": 55,
        "time": 28.286,
        "duration": 0.429,
        "velocity": 0.71,
        "hand": "left"
      },
      {
        "midi": 60,
        "time": 28.714,
        "duration": 0.429,
        "velocity": 0.71,
        "hand": "right"
      },
      {
        "midi": 67,
        "time": 28.714,
        "duration": 0.429,
        "velocity": 0.71,
        "hand": "right"
      },
      {
        "midi": 63,
        "time": 29.143,
        "duration": 0.429,
        "velocity": 0.71,
        "hand": "right"
      },
      {
        "midi": 69,
        "time": 29.143,
        "duration": 0.429,
        "velocity": 0.71,
        "hand": "right"
      },
      {
        "midi": 43,
        "time": 29.571,
        "duration": 0.429,
        "velocity": 0.71,
        "hand": "left"
      },
      {
        "midi": 70,
        "time": 29.571,
        "duration": 1.286,
        "velocity": 0.71,
        "hand": "right"
      },
      {
        "midi": 55,
        "time": 30,
        "duration": 0.429,
        "velocity": 0.71,
        "hand": "left"
      },
      {
        "midi": 60,
        "time": 30.429,
        "duration": 0.429,
        "velocity": 0.71,
        "hand": "right"
      },
      {
        "midi": 63,
        "time": 30.857,
        "duration": 0.429,
        "velocity": 0.71,
        "hand": "right"
      },
      {
        "midi": 70,
        "time": 30.857,
        "duration": 0.429,
        "velocity": 0.71,
        "hand": "right"
      },
      {
        "midi": 48,
        "time": 31.286,
        "duration": 0.429,
        "velocity": 0.71,
        "hand": "left"
      },
      {
        "midi": 72,
        "time": 31.286,
        "duration": 0.857,
        "velocity": 0.71,
        "hand": "right"
      },
      {
        "midi": 55,
        "time": 31.714,
        "duration": 0.429,
        "velocity": 0.71,
        "hand": "left"
      },
      {
        "midi": 60,
        "time": 32.143,
        "duration": 0.429,
        "velocity": 0.71,
        "hand": "right"
      },
      {
        "midi": 72,
        "time": 32.143,
        "duration": 0.857,
        "velocity": 0.71,
        "hand": "right"
      },
      {
        "midi": 63,
        "time": 32.571,
        "duration": 0.429,
        "velocity": 0.71,
        "hand": "right"
      },
      {
        "midi": 50,
        "time": 33,
        "duration": 0.429,
        "velocity": 0.71,
        "hand": "left"
      },
      {
        "midi": 69,
        "time": 33,
        "duration": 1.286,
        "velocity": 0.71,
        "hand": "right"
      },
      {
        "midi": 57,
        "time": 33.429,
        "duration": 0.429,
        "velocity": 0.71,
        "hand": "left"
      },
      {
        "midi": 60,
        "time": 33.857,
        "duration": 0.429,
        "velocity": 0.71,
        "hand": "right"
      },
      {
        "midi": 66,
        "time": 34.286,
        "duration": 0.429,
        "velocity": 0.71,
        "hand": "right"
      },
      {
        "midi": 69,
        "time": 34.286,
        "duration": 0.429,
        "velocity": 0.71,
        "hand": "right"
      },
      {
        "midi": 55,
        "time": 34.714,
        "duration": 0.429,
        "velocity": 0.71,
        "hand": "left"
      },
      {
        "midi": 58,
        "time": 34.714,
        "duration": 0.429,
        "velocity": 0.71,
        "hand": "left"
      },
      {
        "midi": 74,
        "time": 34.714,
        "duration": 1.286,
        "velocity": 0.71,
        "hand": "right"
      },
      {
        "midi": 62,
        "time": 35.143,
        "duration": 0.429,
        "velocity": 0.71,
        "hand": "right"
      },
      {
        "midi": 67,
        "time": 35.571,
        "duration": 0.429,
        "velocity": 0.71,
        "hand": "right"
      },
      {
        "midi": 74,
        "time": 36,
        "duration": 0.429,
        "velocity": 0.71,
        "hand": "right"
      },
      {
        "midi": 60,
        "time": 36.429,
        "duration": 1.714,
        "velocity": 0.71,
        "hand": "right"
      },
      {
        "midi": 67,
        "time": 36.429,
        "duration": 1.714,
        "velocity": 0.71,
        "hand": "right"
      },
      {
        "midi": 75,
        "time": 36.429,
        "duration": 0.429,
        "velocity": 0.71,
        "hand": "right"
      },
      {
        "midi": 77,
        "time": 36.857,
        "duration": 0.214,
        "velocity": 0.71,
        "hand": "right"
      },
      {
        "midi": 75,
        "time": 37.071,
        "duration": 0.214,
        "velocity": 0.71,
        "hand": "right"
      },
      {
        "midi": 74,
        "time": 37.286,
        "duration": 0.429,
        "velocity": 0.71,
        "hand": "right"
      },
      {
        "midi": 72,
        "time": 37.714,
        "duration": 0.429,
        "velocity": 0.71,
        "hand": "right"
      },
      {
        "midi": 62,
        "time": 38.143,
        "duration": 0.857,
        "velocity": 0.71,
        "hand": "right"
      },
      {
        "midi": 67,
        "time": 38.143,
        "duration": 0.857,
        "velocity": 0.71,
        "hand": "right"
      },
      {
        "midi": 70,
        "time": 38.143,
        "duration": 0.857,
        "velocity": 0.71,
        "hand": "right"
      },
      {
        "midi": 69,
        "time": 39,
        "duration": 0.429,
        "velocity": 0.71,
        "hand": "right"
      },
      {
        "midi": 67,
        "time": 39.429,
        "duration": 0.429,
        "velocity": 0.71,
        "hand": "right"
      },
      {
        "midi": 62,
        "time": 39.857,
        "duration": 0.857,
        "velocity": 0.71,
        "hand": "right"
      },
      {
        "midi": 66,
        "time": 39.857,
        "duration": 1.286,
        "velocity": 0.71,
        "hand": "right"
      },
      {
        "midi": 69,
        "time": 39.857,
        "duration": 1.286,
        "velocity": 0.71,
        "hand": "right"
      },
      {
        "midi": 50,
        "time": 40.714,
        "duration": 0.857,
        "velocity": 0.71,
        "hand": "left"
      },
      {
        "midi": 62,
        "time": 41.143,
        "duration": 0.429,
        "velocity": 0.71,
        "hand": "right"
      },
      {
        "midi": 55,
        "time": 41.571,
        "duration": 2.571,
        "velocity": 0.71,
        "hand": "left"
      },
      {
        "midi": 58,
        "time": 41.571,
        "duration": 0.429,
        "velocity": 0.71,
        "hand": "left"
      },
      {
        "midi": 67,
        "time": 41.571,
        "duration": 0.429,
        "velocity": 0.71,
        "hand": "right"
      },
      {
        "midi": 60,
        "time": 42,
        "duration": 0.429,
        "velocity": 0.71,
        "hand": "right"
      },
      {
        "midi": 69,
        "time": 42,
        "duration": 0.429,
        "velocity": 0.71,
        "hand": "right"
      },
      {
        "midi": 62,
        "time": 42.429,
        "duration": 0.429,
        "velocity": 0.71,
        "hand": "right"
      },
      {
        "midi": 70,
        "time": 42.429,
        "duration": 0.429,
        "velocity": 0.71,
        "hand": "right"
      },
      {
        "midi": 60,
        "time": 42.857,
        "duration": 0.429,
        "velocity": 0.71,
        "hand": "right"
      },
      {
        "midi": 72,
        "time": 42.857,
        "duration": 0.429,
        "velocity": 0.71,
        "hand": "right"
      },
      {
        "midi": 58,
        "time": 43.286,
        "duration": 1.714,
        "velocity": 0.71,
        "hand": "left"
      },
      {
        "midi": 74,
        "time": 43.286,
        "duration": 1.286,
        "velocity": 0.71,
        "hand": "right"
      },
      {
        "midi": 55,
        "time": 44.143,
        "duration": 3.429,
        "velocity": 0.71,
        "hand": "left"
      },
      {
        "midi": 74,
        "time": 44.571,
        "duration": 0.429,
        "velocity": 0.71,
        "hand": "right"
      },
      {
        "midi": 63,
        "time": 45,
        "duration": 0.857,
        "velocity": 0.71,
        "hand": "right"
      },
      {
        "midi": 72,
        "time": 45,
        "duration": 0.429,
        "velocity": 0.71,
        "hand": "right"
      },
      {
        "midi": 74,
        "time": 45.429,
        "duration": 0.429,
        "velocity": 0.71,
        "hand": "right"
      },
      {
        "midi": 60,
        "time": 45.857,
        "duration": 0.857,
        "velocity": 0.71,
        "hand": "right"
      },
      {
        "midi": 75,
        "time": 45.857,
        "duration": 0.429,
        "velocity": 0.71,
        "hand": "right"
      },
      {
        "midi": 72,
        "time": 46.286,
        "duration": 0.429,
        "velocity": 0.71,
        "hand": "right"
      },
      {
        "midi": 58,
        "time": 46.714,
        "duration": 0.857,
        "velocity": 0.71,
        "hand": "left"
      },
      {
        "midi": 74,
        "time": 46.714,
        "duration": 1.286,
        "velocity": 0.71,
        "hand": "right"
      },
      {
        "midi": 55,
        "time": 47.571,
        "duration": 3.429,
        "velocity": 0.71,
        "hand": "left"
      },
      {
        "midi": 74,
        "time": 48,
        "duration": 0.429,
        "velocity": 0.71,
        "hand": "right"
      },
      {
        "midi": 63,
        "time": 48.429,
        "duration": 0.857,
        "velocity": 0.71,
        "hand": "right"
      },
      {
        "midi": 72,
        "time": 48.429,
        "duration": 0.429,
        "velocity": 0.71,
        "hand": "right"
      },
      {
        "midi": 74,
        "time": 48.857,
        "duration": 0.429,
        "velocity": 0.71,
        "hand": "right"
      },
      {
        "midi": 60,
        "time": 49.286,
        "duration": 0.857,
        "velocity": 0.71,
        "hand": "right"
      },
      {
        "midi": 75,
        "time": 49.286,
        "duration": 0.429,
        "velocity": 0.71,
        "hand": "right"
      },
      {
        "midi": 72,
        "time": 49.714,
        "duration": 0.429,
        "velocity": 0.71,
        "hand": "right"
      },
      {
        "midi": 58,
        "time": 50.143,
        "duration": 0.857,
        "velocity": 0.71,
        "hand": "left"
      },
      {
        "midi": 74,
        "time": 50.143,
        "duration": 0.429,
        "velocity": 0.71,
        "hand": "right"
      },
      {
        "midi": 75,
        "time": 50.571,
        "duration": 0.214,
        "velocity": 0.71,
        "hand": "right"
      },
      {
        "midi": 74,
        "time": 50.786,
        "duration": 0.214,
        "velocity": 0.71,
        "hand": "right"
      },
      {
        "midi": 55,
        "time": 51,
        "duration": 0.857,
        "velocity": 0.71,
        "hand": "left"
      },
      {
        "midi": 72,
        "time": 51,
        "duration": 0.429,
        "velocity": 0.71,
        "hand": "right"
      },
      {
        "midi": 70,
        "time": 51.429,
        "duration": 0.429,
        "velocity": 0.71,
        "hand": "right"
      },
      {
        "midi": 48,
        "time": 51.857,
        "duration": 0.857,
        "velocity": 0.71,
        "hand": "left"
      },
      {
        "midi": 63,
        "time": 51.857,
        "duration": 0.857,
        "velocity": 0.71,
        "hand": "right"
      },
      {
        "midi": 69,
        "time": 51.857,
        "duration": 1.5,
        "velocity": 0.71,
        "hand": "right"
      },
      {
        "midi": 50,
        "time": 52.714,
        "duration": 0.857,
        "velocity": 0.71,
        "hand": "left"
      },
      {
        "midi": 54,
        "time": 52.714,
        "duration": 0.857,
        "velocity": 0.71,
        "hand": "left"
      },
      {
        "midi": 62,
        "time": 52.714,
        "duration": 0.857,
        "velocity": 0.71,
        "hand": "right"
      },
      {
        "midi": 67,
        "time": 53.357,
        "duration": 0.214,
        "velocity": 0.71,
        "hand": "right"
      },
      {
        "midi": 43,
        "time": 53.571,
        "duration": 1.714,
        "velocity": 0.71,
        "hand": "left"
      },
      {
        "midi": 58,
        "time": 53.571,
        "duration": 1.714,
        "velocity": 0.71,
        "hand": "left"
      },
      {
        "midi": 67,
        "time": 53.571,
        "duration": 1.714,
        "velocity": 0.71,
        "hand": "right"
      }
    ],
    "hard": [
      {
        "midi": 62,
        "time": 0,
        "duration": 0.429,
        "velocity": 0.71,
        "hand": "right"
      },
      {
        "midi": 55,
        "time": 0.429,
        "duration": 2.571,
        "velocity": 0.71,
        "hand": "left"
      },
      {
        "midi": 58,
        "time": 0.429,
        "duration": 0.429,
        "velocity": 0.71,
        "hand": "left"
      },
      {
        "midi": 67,
        "time": 0.429,
        "duration": 0.429,
        "velocity": 0.71,
        "hand": "right"
      },
      {
        "midi": 60,
        "time": 0.857,
        "duration": 0.429,
        "velocity": 0.71,
        "hand": "right"
      },
      {
        "midi": 69,
        "time": 0.857,
        "duration": 0.429,
        "velocity": 0.71,
        "hand": "right"
      },
      {
        "midi": 62,
        "time": 1.286,
        "duration": 0.429,
        "velocity": 0.71,
        "hand": "right"
      },
      {
        "midi": 70,
        "time": 1.286,
        "duration": 0.429,
        "velocity": 0.71,
        "hand": "right"
      },
      {
        "midi": 60,
        "time": 1.714,
        "duration": 0.429,
        "velocity": 0.71,
        "hand": "right"
      },
      {
        "midi": 72,
        "time": 1.714,
        "duration": 0.429,
        "velocity": 0.71,
        "hand": "right"
      },
      {
        "midi": 58,
        "time": 2.143,
        "duration": 1.714,
        "velocity": 0.71,
        "hand": "left"
      },
      {
        "midi": 74,
        "time": 2.143,
        "duration": 1.286,
        "velocity": 0.71,
        "hand": "right"
      },
      {
        "midi": 55,
        "time": 3,
        "duration": 3.429,
        "velocity": 0.71,
        "hand": "left"
      },
      {
        "midi": 74,
        "time": 3.429,
        "duration": 0.429,
        "velocity": 0.71,
        "hand": "right"
      },
      {
        "midi": 63,
        "time": 3.857,
        "duration": 0.857,
        "velocity": 0.71,
        "hand": "right"
      },
      {
        "midi": 72,
        "time": 3.857,
        "duration": 0.429,
        "velocity": 0.71,
        "hand": "right"
      },
      {
        "midi": 74,
        "time": 4.286,
        "duration": 0.429,
        "velocity": 0.71,
        "hand": "right"
      },
      {
        "midi": 60,
        "time": 4.714,
        "duration": 0.857,
        "velocity": 0.71,
        "hand": "right"
      },
      {
        "midi": 75,
        "time": 4.714,
        "duration": 0.429,
        "velocity": 0.71,
        "hand": "right"
      },
      {
        "midi": 72,
        "time": 5.143,
        "duration": 0.429,
        "velocity": 0.71,
        "hand": "right"
      },
      {
        "midi": 58,
        "time": 5.571,
        "duration": 0.857,
        "velocity": 0.71,
        "hand": "left"
      },
      {
        "midi": 74,
        "time": 5.571,
        "duration": 1.286,
        "velocity": 0.71,
        "hand": "right"
      },
      {
        "midi": 55,
        "time": 6.429,
        "duration": 3.429,
        "velocity": 0.71,
        "hand": "left"
      },
      {
        "midi": 74,
        "time": 6.857,
        "duration": 0.429,
        "velocity": 0.71,
        "hand": "right"
      },
      {
        "midi": 63,
        "time": 7.286,
        "duration": 0.857,
        "velocity": 0.71,
        "hand": "right"
      },
      {
        "midi": 72,
        "time": 7.286,
        "duration": 0.429,
        "velocity": 0.71,
        "hand": "right"
      },
      {
        "midi": 74,
        "time": 7.714,
        "duration": 0.429,
        "velocity": 0.71,
        "hand": "right"
      },
      {
        "midi": 60,
        "time": 8.143,
        "duration": 0.857,
        "velocity": 0.71,
        "hand": "right"
      },
      {
        "midi": 75,
        "time": 8.143,
        "duration": 0.429,
        "velocity": 0.71,
        "hand": "right"
      },
      {
        "midi": 72,
        "time": 8.571,
        "duration": 0.429,
        "velocity": 0.71,
        "hand": "right"
      },
      {
        "midi": 58,
        "time": 9,
        "duration": 0.857,
        "velocity": 0.71,
        "hand": "left"
      },
      {
        "midi": 74,
        "time": 9,
        "duration": 0.429,
        "velocity": 0.71,
        "hand": "right"
      },
      {
        "midi": 75,
        "time": 9.429,
        "duration": 0.214,
        "velocity": 0.71,
        "hand": "right"
      },
      {
        "midi": 74,
        "time": 9.643,
        "duration": 0.214,
        "velocity": 0.71,
        "hand": "right"
      },
      {
        "midi": 55,
        "time": 9.857,
        "duration": 0.857,
        "velocity": 0.71,
        "hand": "left"
      },
      {
        "midi": 72,
        "time": 9.857,
        "duration": 0.429,
        "velocity": 0.71,
        "hand": "right"
      },
      {
        "midi": 70,
        "time": 10.286,
        "duration": 0.429,
        "velocity": 0.71,
        "hand": "right"
      },
      {
        "midi": 54,
        "time": 10.714,
        "duration": 0.857,
        "velocity": 0.71,
        "hand": "left"
      },
      {
        "midi": 60,
        "time": 10.714,
        "duration": 1.714,
        "velocity": 0.71,
        "hand": "right"
      },
      {
        "midi": 69,
        "time": 10.714,
        "duration": 1.5,
        "velocity": 0.71,
        "hand": "right"
      },
      {
        "midi": 50,
        "time": 11.571,
        "duration": 0.857,
        "velocity": 0.71,
        "hand": "left"
      },
      {
        "midi": 67,
        "time": 12.214,
        "duration": 0.214,
        "velocity": 0.71,
        "hand": "right"
      },
      {
        "midi": 55,
        "time": 12.429,
        "duration": 0.857,
        "velocity": 0.71,
        "hand": "left"
      },
      {
        "midi": 58,
        "time": 12.429,
        "duration": 0.857,
        "velocity": 0.71,
        "hand": "left"
      },
      {
        "midi": 67,
        "time": 12.429,
        "duration": 1.286,
        "velocity": 0.71,
        "hand": "right"
      },
      {
        "midi": 43,
        "time": 13.286,
        "duration": 0.857,
        "velocity": 0.71,
        "hand": "left"
      },
      {
        "midi": 62,
        "time": 13.714,
        "duration": 0.429,
        "velocity": 0.71,
        "hand": "right"
      },
      {
        "midi": 55,
        "time": 14.143,
        "duration": 2.571,
        "velocity": 0.71,
        "hand": "left"
      },
      {
        "midi": 58,
        "time": 14.143,
        "duration": 0.429,
        "velocity": 0.71,
        "hand": "left"
      },
      {
        "midi": 67,
        "time": 14.143,
        "duration": 0.429,
        "velocity": 0.71,
        "hand": "right"
      },
      {
        "midi": 60,
        "time": 14.571,
        "duration": 0.429,
        "velocity": 0.71,
        "hand": "right"
      },
      {
        "midi": 69,
        "time": 14.571,
        "duration": 0.429,
        "velocity": 0.71,
        "hand": "right"
      },
      {
        "midi": 62,
        "time": 15,
        "duration": 0.429,
        "velocity": 0.71,
        "hand": "right"
      },
      {
        "midi": 70,
        "time": 15,
        "duration": 0.429,
        "velocity": 0.71,
        "hand": "right"
      },
      {
        "midi": 60,
        "time": 15.429,
        "duration": 0.429,
        "velocity": 0.71,
        "hand": "right"
      },
      {
        "midi": 72,
        "time": 15.429,
        "duration": 0.429,
        "velocity": 0.71,
        "hand": "right"
      },
      {
        "midi": 58,
        "time": 15.857,
        "duration": 1.714,
        "velocity": 0.71,
        "hand": "left"
      },
      {
        "midi": 74,
        "time": 15.857,
        "duration": 1.286,
        "velocity": 0.71,
        "hand": "right"
      },
      {
        "midi": 55,
        "time": 16.714,
        "duration": 3.429,
        "velocity": 0.71,
        "hand": "left"
      },
      {
        "midi": 74,
        "time": 17.143,
        "duration": 0.429,
        "velocity": 0.71,
        "hand": "right"
      },
      {
        "midi": 63,
        "time": 17.571,
        "duration": 0.857,
        "velocity": 0.71,
        "hand": "right"
      },
      {
        "midi": 72,
        "time": 17.571,
        "duration": 0.429,
        "velocity": 0.71,
        "hand": "right"
      },
      {
        "midi": 74,
        "time": 18,
        "duration": 0.429,
        "velocity": 0.71,
        "hand": "right"
      },
      {
        "midi": 60,
        "time": 18.429,
        "duration": 0.857,
        "velocity": 0.71,
        "hand": "right"
      },
      {
        "midi": 75,
        "time": 18.429,
        "duration": 0.429,
        "velocity": 0.71,
        "hand": "right"
      },
      {
        "midi": 72,
        "time": 18.857,
        "duration": 0.429,
        "velocity": 0.71,
        "hand": "right"
      },
      {
        "midi": 58,
        "time": 19.286,
        "duration": 0.857,
        "velocity": 0.71,
        "hand": "left"
      },
      {
        "midi": 74,
        "time": 19.286,
        "duration": 1.286,
        "velocity": 0.71,
        "hand": "right"
      },
      {
        "midi": 55,
        "time": 20.143,
        "duration": 3.429,
        "velocity": 0.71,
        "hand": "left"
      },
      {
        "midi": 74,
        "time": 20.571,
        "duration": 0.429,
        "velocity": 0.71,
        "hand": "right"
      },
      {
        "midi": 63,
        "time": 21,
        "duration": 0.857,
        "velocity": 0.71,
        "hand": "right"
      },
      {
        "midi": 72,
        "time": 21,
        "duration": 0.429,
        "velocity": 0.71,
        "hand": "right"
      },
      {
        "midi": 74,
        "time": 21.429,
        "duration": 0.429,
        "velocity": 0.71,
        "hand": "right"
      },
      {
        "midi": 60,
        "time": 21.857,
        "duration": 0.857,
        "velocity": 0.71,
        "hand": "right"
      },
      {
        "midi": 75,
        "time": 21.857,
        "duration": 0.429,
        "velocity": 0.71,
        "hand": "right"
      },
      {
        "midi": 72,
        "time": 22.286,
        "duration": 0.429,
        "velocity": 0.71,
        "hand": "right"
      },
      {
        "midi": 58,
        "time": 22.714,
        "duration": 0.857,
        "velocity": 0.71,
        "hand": "left"
      },
      {
        "midi": 74,
        "time": 22.714,
        "duration": 0.429,
        "velocity": 0.71,
        "hand": "right"
      },
      {
        "midi": 75,
        "time": 23.143,
        "duration": 0.214,
        "velocity": 0.71,
        "hand": "right"
      },
      {
        "midi": 74,
        "time": 23.357,
        "duration": 0.214,
        "velocity": 0.71,
        "hand": "right"
      },
      {
        "midi": 55,
        "time": 23.571,
        "duration": 0.857,
        "velocity": 0.71,
        "hand": "left"
      },
      {
        "midi": 72,
        "time": 23.571,
        "duration": 0.429,
        "velocity": 0.71,
        "hand": "right"
      },
      {
        "midi": 70,
        "time": 24,
        "duration": 0.429,
        "velocity": 0.71,
        "hand": "right"
      },
      {
        "midi": 54,
        "time": 24.429,
        "duration": 0.857,
        "velocity": 0.71,
        "hand": "left"
      },
      {
        "midi": 60,
        "time": 24.429,
        "duration": 1.714,
        "velocity": 0.71,
        "hand": "right"
      },
      {
        "midi": 69,
        "time": 24.429,
        "duration": 1.5,
        "velocity": 0.71,
        "hand": "right"
      },
      {
        "midi": 50,
        "time": 25.286,
        "duration": 0.857,
        "velocity": 0.71,
        "hand": "left"
      },
      {
        "midi": 67,
        "time": 25.929,
        "duration": 0.214,
        "velocity": 0.71,
        "hand": "right"
      },
      {
        "midi": 55,
        "time": 26.143,
        "duration": 1.714,
        "velocity": 0.71,
        "hand": "left"
      },
      {
        "midi": 58,
        "time": 26.143,
        "duration": 1.714,
        "velocity": 0.71,
        "hand": "left"
      },
      {
        "midi": 67,
        "time": 26.143,
        "duration": 1.714,
        "velocity": 0.71,
        "hand": "right"
      },
      {
        "midi": 48,
        "time": 27.857,
        "duration": 0.429,
        "velocity": 0.71,
        "hand": "left"
      },
      {
        "midi": 67,
        "time": 27.857,
        "duration": 0.857,
        "velocity": 0.71,
        "hand": "right"
      },
      {
        "midi": 55,
        "time": 28.286,
        "duration": 0.429,
        "velocity": 0.71,
        "hand": "left"
      },
      {
        "midi": 60,
        "time": 28.714,
        "duration": 0.429,
        "velocity": 0.71,
        "hand": "right"
      },
      {
        "midi": 67,
        "time": 28.714,
        "duration": 0.429,
        "velocity": 0.71,
        "hand": "right"
      },
      {
        "midi": 63,
        "time": 29.143,
        "duration": 0.429,
        "velocity": 0.71,
        "hand": "right"
      },
      {
        "midi": 69,
        "time": 29.143,
        "duration": 0.429,
        "velocity": 0.71,
        "hand": "right"
      },
      {
        "midi": 43,
        "time": 29.571,
        "duration": 0.429,
        "velocity": 0.71,
        "hand": "left"
      },
      {
        "midi": 70,
        "time": 29.571,
        "duration": 1.286,
        "velocity": 0.71,
        "hand": "right"
      },
      {
        "midi": 55,
        "time": 30,
        "duration": 0.429,
        "velocity": 0.71,
        "hand": "left"
      },
      {
        "midi": 60,
        "time": 30.429,
        "duration": 0.429,
        "velocity": 0.71,
        "hand": "right"
      },
      {
        "midi": 63,
        "time": 30.857,
        "duration": 0.429,
        "velocity": 0.71,
        "hand": "right"
      },
      {
        "midi": 70,
        "time": 30.857,
        "duration": 0.429,
        "velocity": 0.71,
        "hand": "right"
      },
      {
        "midi": 48,
        "time": 31.286,
        "duration": 0.429,
        "velocity": 0.71,
        "hand": "left"
      },
      {
        "midi": 72,
        "time": 31.286,
        "duration": 0.857,
        "velocity": 0.71,
        "hand": "right"
      },
      {
        "midi": 55,
        "time": 31.714,
        "duration": 0.429,
        "velocity": 0.71,
        "hand": "left"
      },
      {
        "midi": 60,
        "time": 32.143,
        "duration": 0.429,
        "velocity": 0.71,
        "hand": "right"
      },
      {
        "midi": 72,
        "time": 32.143,
        "duration": 0.857,
        "velocity": 0.71,
        "hand": "right"
      },
      {
        "midi": 63,
        "time": 32.571,
        "duration": 0.429,
        "velocity": 0.71,
        "hand": "right"
      },
      {
        "midi": 50,
        "time": 33,
        "duration": 0.429,
        "velocity": 0.71,
        "hand": "left"
      },
      {
        "midi": 69,
        "time": 33,
        "duration": 1.286,
        "velocity": 0.71,
        "hand": "right"
      },
      {
        "midi": 57,
        "time": 33.429,
        "duration": 0.429,
        "velocity": 0.71,
        "hand": "left"
      },
      {
        "midi": 60,
        "time": 33.857,
        "duration": 0.429,
        "velocity": 0.71,
        "hand": "right"
      },
      {
        "midi": 66,
        "time": 34.286,
        "duration": 0.429,
        "velocity": 0.71,
        "hand": "right"
      },
      {
        "midi": 69,
        "time": 34.286,
        "duration": 0.429,
        "velocity": 0.71,
        "hand": "right"
      },
      {
        "midi": 55,
        "time": 34.714,
        "duration": 0.429,
        "velocity": 0.71,
        "hand": "left"
      },
      {
        "midi": 58,
        "time": 34.714,
        "duration": 0.429,
        "velocity": 0.71,
        "hand": "left"
      },
      {
        "midi": 74,
        "time": 34.714,
        "duration": 1.286,
        "velocity": 0.71,
        "hand": "right"
      },
      {
        "midi": 62,
        "time": 35.143,
        "duration": 0.429,
        "velocity": 0.71,
        "hand": "right"
      },
      {
        "midi": 67,
        "time": 35.571,
        "duration": 0.429,
        "velocity": 0.71,
        "hand": "right"
      },
      {
        "midi": 74,
        "time": 36,
        "duration": 0.429,
        "velocity": 0.71,
        "hand": "right"
      },
      {
        "midi": 60,
        "time": 36.429,
        "duration": 1.714,
        "velocity": 0.71,
        "hand": "right"
      },
      {
        "midi": 63,
        "time": 36.429,
        "duration": 1.714,
        "velocity": 0.71,
        "hand": "right"
      },
      {
        "midi": 67,
        "time": 36.429,
        "duration": 1.714,
        "velocity": 0.71,
        "hand": "right"
      },
      {
        "midi": 75,
        "time": 36.429,
        "duration": 0.429,
        "velocity": 0.71,
        "hand": "right"
      },
      {
        "midi": 77,
        "time": 36.857,
        "duration": 0.214,
        "velocity": 0.71,
        "hand": "right"
      },
      {
        "midi": 75,
        "time": 37.071,
        "duration": 0.214,
        "velocity": 0.71,
        "hand": "right"
      },
      {
        "midi": 74,
        "time": 37.286,
        "duration": 0.429,
        "velocity": 0.71,
        "hand": "right"
      },
      {
        "midi": 72,
        "time": 37.714,
        "duration": 0.429,
        "velocity": 0.71,
        "hand": "right"
      },
      {
        "midi": 62,
        "time": 38.143,
        "duration": 0.857,
        "velocity": 0.71,
        "hand": "right"
      },
      {
        "midi": 67,
        "time": 38.143,
        "duration": 0.857,
        "velocity": 0.71,
        "hand": "right"
      },
      {
        "midi": 70,
        "time": 38.143,
        "duration": 0.857,
        "velocity": 0.71,
        "hand": "right"
      },
      {
        "midi": 69,
        "time": 39,
        "duration": 0.429,
        "velocity": 0.71,
        "hand": "right"
      },
      {
        "midi": 67,
        "time": 39.429,
        "duration": 0.429,
        "velocity": 0.71,
        "hand": "right"
      },
      {
        "midi": 62,
        "time": 39.857,
        "duration": 0.857,
        "velocity": 0.71,
        "hand": "right"
      },
      {
        "midi": 66,
        "time": 39.857,
        "duration": 1.286,
        "velocity": 0.71,
        "hand": "right"
      },
      {
        "midi": 69,
        "time": 39.857,
        "duration": 1.286,
        "velocity": 0.71,
        "hand": "right"
      },
      {
        "midi": 50,
        "time": 40.714,
        "duration": 0.857,
        "velocity": 0.71,
        "hand": "left"
      },
      {
        "midi": 62,
        "time": 41.143,
        "duration": 0.429,
        "velocity": 0.71,
        "hand": "right"
      },
      {
        "midi": 55,
        "time": 41.571,
        "duration": 2.571,
        "velocity": 0.71,
        "hand": "left"
      },
      {
        "midi": 58,
        "time": 41.571,
        "duration": 0.429,
        "velocity": 0.71,
        "hand": "left"
      },
      {
        "midi": 67,
        "time": 41.571,
        "duration": 0.429,
        "velocity": 0.71,
        "hand": "right"
      },
      {
        "midi": 60,
        "time": 42,
        "duration": 0.429,
        "velocity": 0.71,
        "hand": "right"
      },
      {
        "midi": 69,
        "time": 42,
        "duration": 0.429,
        "velocity": 0.71,
        "hand": "right"
      },
      {
        "midi": 62,
        "time": 42.429,
        "duration": 0.429,
        "velocity": 0.71,
        "hand": "right"
      },
      {
        "midi": 70,
        "time": 42.429,
        "duration": 0.429,
        "velocity": 0.71,
        "hand": "right"
      },
      {
        "midi": 60,
        "time": 42.857,
        "duration": 0.429,
        "velocity": 0.71,
        "hand": "right"
      },
      {
        "midi": 72,
        "time": 42.857,
        "duration": 0.429,
        "velocity": 0.71,
        "hand": "right"
      },
      {
        "midi": 58,
        "time": 43.286,
        "duration": 1.714,
        "velocity": 0.71,
        "hand": "left"
      },
      {
        "midi": 74,
        "time": 43.286,
        "duration": 1.286,
        "velocity": 0.71,
        "hand": "right"
      },
      {
        "midi": 55,
        "time": 44.143,
        "duration": 3.429,
        "velocity": 0.71,
        "hand": "left"
      },
      {
        "midi": 74,
        "time": 44.571,
        "duration": 0.429,
        "velocity": 0.71,
        "hand": "right"
      },
      {
        "midi": 63,
        "time": 45,
        "duration": 0.857,
        "velocity": 0.71,
        "hand": "right"
      },
      {
        "midi": 72,
        "time": 45,
        "duration": 0.429,
        "velocity": 0.71,
        "hand": "right"
      },
      {
        "midi": 74,
        "time": 45.429,
        "duration": 0.429,
        "velocity": 0.71,
        "hand": "right"
      },
      {
        "midi": 60,
        "time": 45.857,
        "duration": 0.857,
        "velocity": 0.71,
        "hand": "right"
      },
      {
        "midi": 75,
        "time": 45.857,
        "duration": 0.429,
        "velocity": 0.71,
        "hand": "right"
      },
      {
        "midi": 72,
        "time": 46.286,
        "duration": 0.429,
        "velocity": 0.71,
        "hand": "right"
      },
      {
        "midi": 58,
        "time": 46.714,
        "duration": 0.857,
        "velocity": 0.71,
        "hand": "left"
      },
      {
        "midi": 74,
        "time": 46.714,
        "duration": 1.286,
        "velocity": 0.71,
        "hand": "right"
      },
      {
        "midi": 55,
        "time": 47.571,
        "duration": 3.429,
        "velocity": 0.71,
        "hand": "left"
      },
      {
        "midi": 74,
        "time": 48,
        "duration": 0.429,
        "velocity": 0.71,
        "hand": "right"
      },
      {
        "midi": 63,
        "time": 48.429,
        "duration": 0.857,
        "velocity": 0.71,
        "hand": "right"
      },
      {
        "midi": 72,
        "time": 48.429,
        "duration": 0.429,
        "velocity": 0.71,
        "hand": "right"
      },
      {
        "midi": 74,
        "time": 48.857,
        "duration": 0.429,
        "velocity": 0.71,
        "hand": "right"
      },
      {
        "midi": 60,
        "time": 49.286,
        "duration": 0.857,
        "velocity": 0.71,
        "hand": "right"
      },
      {
        "midi": 75,
        "time": 49.286,
        "duration": 0.429,
        "velocity": 0.71,
        "hand": "right"
      },
      {
        "midi": 72,
        "time": 49.714,
        "duration": 0.429,
        "velocity": 0.71,
        "hand": "right"
      },
      {
        "midi": 58,
        "time": 50.143,
        "duration": 0.857,
        "velocity": 0.71,
        "hand": "left"
      },
      {
        "midi": 74,
        "time": 50.143,
        "duration": 0.429,
        "velocity": 0.71,
        "hand": "right"
      },
      {
        "midi": 75,
        "time": 50.571,
        "duration": 0.214,
        "velocity": 0.71,
        "hand": "right"
      },
      {
        "midi": 74,
        "time": 50.786,
        "duration": 0.214,
        "velocity": 0.71,
        "hand": "right"
      },
      {
        "midi": 55,
        "time": 51,
        "duration": 0.857,
        "velocity": 0.71,
        "hand": "left"
      },
      {
        "midi": 72,
        "time": 51,
        "duration": 0.429,
        "velocity": 0.71,
        "hand": "right"
      },
      {
        "midi": 70,
        "time": 51.429,
        "duration": 0.429,
        "velocity": 0.71,
        "hand": "right"
      },
      {
        "midi": 48,
        "time": 51.857,
        "duration": 0.857,
        "velocity": 0.71,
        "hand": "left"
      },
      {
        "midi": 55,
        "time": 51.857,
        "duration": 0.857,
        "velocity": 0.71,
        "hand": "left"
      },
      {
        "midi": 63,
        "time": 51.857,
        "duration": 0.857,
        "velocity": 0.71,
        "hand": "right"
      },
      {
        "midi": 69,
        "time": 51.857,
        "duration": 1.5,
        "velocity": 0.71,
        "hand": "right"
      },
      {
        "midi": 50,
        "time": 52.714,
        "duration": 0.857,
        "velocity": 0.71,
        "hand": "left"
      },
      {
        "midi": 54,
        "time": 52.714,
        "duration": 0.857,
        "velocity": 0.71,
        "hand": "left"
      },
      {
        "midi": 62,
        "time": 52.714,
        "duration": 0.857,
        "velocity": 0.71,
        "hand": "right"
      },
      {
        "midi": 67,
        "time": 53.357,
        "duration": 0.214,
        "velocity": 0.71,
        "hand": "right"
      },
      {
        "midi": 43,
        "time": 53.571,
        "duration": 1.714,
        "velocity": 0.71,
        "hand": "left"
      },
      {
        "midi": 50,
        "time": 53.571,
        "duration": 1.714,
        "velocity": 0.71,
        "hand": "left"
      },
      {
        "midi": 58,
        "time": 53.571,
        "duration": 1.714,
        "velocity": 0.71,
        "hand": "left"
      },
      {
        "midi": 67,
        "time": 53.571,
        "duration": 1.714,
        "velocity": 0.71,
        "hand": "right"
      }
    ]
  },
  "notes1Hand": [
    {
      "midi": 62,
      "time": 0,
      "duration": 0.429,
      "velocity": 0.71,
      "hand": "right"
    },
    {
      "midi": 67,
      "time": 0.429,
      "duration": 0.429,
      "velocity": 0.71,
      "hand": "right"
    },
    {
      "midi": 70,
      "time": 1.286,
      "duration": 0.429,
      "velocity": 0.71,
      "hand": "right"
    },
    {
      "midi": 74,
      "time": 2.143,
      "duration": 1.286,
      "velocity": 0.71,
      "hand": "right"
    },
    {
      "midi": 74,
      "time": 3.429,
      "duration": 0.429,
      "velocity": 0.71,
      "hand": "right"
    },
    {
      "midi": 74,
      "time": 4.286,
      "duration": 0.429,
      "velocity": 0.71,
      "hand": "right"
    },
    {
      "midi": 72,
      "time": 5.143,
      "duration": 0.429,
      "velocity": 0.71,
      "hand": "right"
    },
    {
      "midi": 74,
      "time": 6.857,
      "duration": 0.429,
      "velocity": 0.71,
      "hand": "right"
    },
    {
      "midi": 72,
      "time": 7.286,
      "duration": 0.429,
      "velocity": 0.71,
      "hand": "right"
    },
    {
      "midi": 75,
      "time": 8.143,
      "duration": 0.429,
      "velocity": 0.71,
      "hand": "right"
    },
    {
      "midi": 74,
      "time": 9,
      "duration": 0.429,
      "velocity": 0.71,
      "hand": "right"
    },
    {
      "midi": 75,
      "time": 9.429,
      "duration": 0.429,
      "velocity": 0.71,
      "hand": "right"
    },
    {
      "midi": 70,
      "time": 10.286,
      "duration": 0.429,
      "velocity": 0.71,
      "hand": "right"
    },
    {
      "midi": 67,
      "time": 12.214,
      "duration": 0.429,
      "velocity": 0.71,
      "hand": "right"
    },
    {
      "midi": 62,
      "time": 13.714,
      "duration": 0.429,
      "velocity": 0.71,
      "hand": "right"
    },
    {
      "midi": 67,
      "time": 14.143,
      "duration": 0.429,
      "velocity": 0.71,
      "hand": "right"
    },
    {
      "midi": 70,
      "time": 15,
      "duration": 0.429,
      "velocity": 0.71,
      "hand": "right"
    },
    {
      "midi": 72,
      "time": 15.429,
      "duration": 0.429,
      "velocity": 0.71,
      "hand": "right"
    },
    {
      "midi": 74,
      "time": 17.143,
      "duration": 0.429,
      "velocity": 0.71,
      "hand": "right"
    },
    {
      "midi": 74,
      "time": 18,
      "duration": 0.429,
      "velocity": 0.71,
      "hand": "right"
    },
    {
      "midi": 75,
      "time": 18.429,
      "duration": 0.429,
      "velocity": 0.71,
      "hand": "right"
    },
    {
      "midi": 74,
      "time": 19.286,
      "duration": 1.286,
      "velocity": 0.71,
      "hand": "right"
    },
    {
      "midi": 74,
      "time": 20.571,
      "duration": 0.429,
      "velocity": 0.71,
      "hand": "right"
    },
    {
      "midi": 72,
      "time": 21,
      "duration": 0.429,
      "velocity": 0.71,
      "hand": "right"
    },
    {
      "midi": 74,
      "time": 21.429,
      "duration": 0.429,
      "velocity": 0.71,
      "hand": "right"
    },
    {
      "midi": 72,
      "time": 22.286,
      "duration": 0.429,
      "velocity": 0.71,
      "hand": "right"
    },
    {
      "midi": 75,
      "time": 23.143,
      "duration": 0.429,
      "velocity": 0.71,
      "hand": "right"
    },
    {
      "midi": 70,
      "time": 24,
      "duration": 0.429,
      "velocity": 0.71,
      "hand": "right"
    },
    {
      "midi": 69,
      "time": 24.429,
      "duration": 1.5,
      "velocity": 0.71,
      "hand": "right"
    },
    {
      "midi": 67,
      "time": 25.929,
      "duration": 0.429,
      "velocity": 0.71,
      "hand": "right"
    },
    {
      "midi": 67,
      "time": 27.857,
      "duration": 0.857,
      "velocity": 0.71,
      "hand": "right"
    },
    {
      "midi": 67,
      "time": 28.714,
      "duration": 0.429,
      "velocity": 0.71,
      "hand": "right"
    },
    {
      "midi": 69,
      "time": 29.143,
      "duration": 0.429,
      "velocity": 0.71,
      "hand": "right"
    },
    {
      "midi": 60,
      "time": 30.429,
      "duration": 0.429,
      "velocity": 0.71,
      "hand": "right"
    },
    {
      "midi": 72,
      "time": 31.286,
      "duration": 0.857,
      "velocity": 0.71,
      "hand": "right"
    },
    {
      "midi": 72,
      "time": 32.143,
      "duration": 0.857,
      "velocity": 0.71,
      "hand": "right"
    },
    {
      "midi": 69,
      "time": 33,
      "duration": 1.286,
      "velocity": 0.71,
      "hand": "right"
    },
    {
      "midi": 60,
      "time": 33.857,
      "duration": 0.429,
      "velocity": 0.71,
      "hand": "right"
    },
    {
      "midi": 69,
      "time": 34.286,
      "duration": 0.429,
      "velocity": 0.71,
      "hand": "right"
    },
    {
      "midi": 62,
      "time": 35.143,
      "duration": 0.429,
      "velocity": 0.71,
      "hand": "right"
    },
    {
      "midi": 74,
      "time": 36,
      "duration": 0.429,
      "velocity": 0.71,
      "hand": "right"
    },
    {
      "midi": 75,
      "time": 36.429,
      "duration": 0.429,
      "velocity": 0.71,
      "hand": "right"
    },
    {
      "midi": 75,
      "time": 37.071,
      "duration": 0.429,
      "velocity": 0.71,
      "hand": "right"
    },
    {
      "midi": 72,
      "time": 37.714,
      "duration": 0.429,
      "velocity": 0.71,
      "hand": "right"
    },
    {
      "midi": 70,
      "time": 38.143,
      "duration": 0.857,
      "velocity": 0.71,
      "hand": "right"
    },
    {
      "midi": 69,
      "time": 39,
      "duration": 0.429,
      "velocity": 0.71,
      "hand": "right"
    },
    {
      "midi": 67,
      "time": 39.429,
      "duration": 0.429,
      "velocity": 0.71,
      "hand": "right"
    },
    {
      "midi": 62,
      "time": 41.143,
      "duration": 0.429,
      "velocity": 0.71,
      "hand": "right"
    },
    {
      "midi": 69,
      "time": 42,
      "duration": 0.429,
      "velocity": 0.71,
      "hand": "right"
    },
    {
      "midi": 70,
      "time": 42.429,
      "duration": 0.429,
      "velocity": 0.71,
      "hand": "right"
    },
    {
      "midi": 74,
      "time": 43.286,
      "duration": 1.286,
      "velocity": 0.71,
      "hand": "right"
    },
    {
      "midi": 74,
      "time": 44.571,
      "duration": 0.429,
      "velocity": 0.71,
      "hand": "right"
    },
    {
      "midi": 72,
      "time": 45,
      "duration": 0.429,
      "velocity": 0.71,
      "hand": "right"
    },
    {
      "midi": 74,
      "time": 45.429,
      "duration": 0.429,
      "velocity": 0.71,
      "hand": "right"
    },
    {
      "midi": 72,
      "time": 46.286,
      "duration": 0.429,
      "velocity": 0.71,
      "hand": "right"
    },
    {
      "midi": 74,
      "time": 48,
      "duration": 0.429,
      "velocity": 0.71,
      "hand": "right"
    },
    {
      "midi": 72,
      "time": 48.429,
      "duration": 0.429,
      "velocity": 0.71,
      "hand": "right"
    },
    {
      "midi": 75,
      "time": 49.286,
      "duration": 0.429,
      "velocity": 0.71,
      "hand": "right"
    },
    {
      "midi": 74,
      "time": 50.143,
      "duration": 0.429,
      "velocity": 0.71,
      "hand": "right"
    },
    {
      "midi": 74,
      "time": 50.786,
      "duration": 0.429,
      "velocity": 0.71,
      "hand": "right"
    },
    {
      "midi": 70,
      "time": 51.429,
      "duration": 0.429,
      "velocity": 0.71,
      "hand": "right"
    },
    {
      "midi": 62,
      "time": 52.714,
      "duration": 0.857,
      "velocity": 0.71,
      "hand": "right"
    },
    {
      "midi": 67,
      "time": 53.357,
      "duration": 0.429,
      "velocity": 0.71,
      "hand": "right"
    }
  ],
  "notes2Hands": [
    {
      "midi": 62,
      "time": 0,
      "duration": 0.429,
      "velocity": 0.71,
      "hand": "right"
    },
    {
      "midi": 55,
      "time": 0.429,
      "duration": 2.571,
      "velocity": 0.71,
      "hand": "left"
    },
    {
      "midi": 58,
      "time": 0.429,
      "duration": 0.429,
      "velocity": 0.71,
      "hand": "left"
    },
    {
      "midi": 67,
      "time": 0.429,
      "duration": 0.429,
      "velocity": 0.71,
      "hand": "right"
    },
    {
      "midi": 60,
      "time": 0.857,
      "duration": 0.429,
      "velocity": 0.71,
      "hand": "right"
    },
    {
      "midi": 69,
      "time": 0.857,
      "duration": 0.429,
      "velocity": 0.71,
      "hand": "right"
    },
    {
      "midi": 62,
      "time": 1.286,
      "duration": 0.429,
      "velocity": 0.71,
      "hand": "right"
    },
    {
      "midi": 70,
      "time": 1.286,
      "duration": 0.429,
      "velocity": 0.71,
      "hand": "right"
    },
    {
      "midi": 60,
      "time": 1.714,
      "duration": 0.429,
      "velocity": 0.71,
      "hand": "right"
    },
    {
      "midi": 72,
      "time": 1.714,
      "duration": 0.429,
      "velocity": 0.71,
      "hand": "right"
    },
    {
      "midi": 58,
      "time": 2.143,
      "duration": 1.714,
      "velocity": 0.71,
      "hand": "left"
    },
    {
      "midi": 74,
      "time": 2.143,
      "duration": 1.286,
      "velocity": 0.71,
      "hand": "right"
    },
    {
      "midi": 55,
      "time": 3,
      "duration": 3.429,
      "velocity": 0.71,
      "hand": "left"
    },
    {
      "midi": 74,
      "time": 3.429,
      "duration": 0.429,
      "velocity": 0.71,
      "hand": "right"
    },
    {
      "midi": 63,
      "time": 3.857,
      "duration": 0.857,
      "velocity": 0.71,
      "hand": "right"
    },
    {
      "midi": 72,
      "time": 3.857,
      "duration": 0.429,
      "velocity": 0.71,
      "hand": "right"
    },
    {
      "midi": 74,
      "time": 4.286,
      "duration": 0.429,
      "velocity": 0.71,
      "hand": "right"
    },
    {
      "midi": 60,
      "time": 4.714,
      "duration": 0.857,
      "velocity": 0.71,
      "hand": "right"
    },
    {
      "midi": 75,
      "time": 4.714,
      "duration": 0.429,
      "velocity": 0.71,
      "hand": "right"
    },
    {
      "midi": 72,
      "time": 5.143,
      "duration": 0.429,
      "velocity": 0.71,
      "hand": "right"
    },
    {
      "midi": 58,
      "time": 5.571,
      "duration": 0.857,
      "velocity": 0.71,
      "hand": "left"
    },
    {
      "midi": 74,
      "time": 5.571,
      "duration": 1.286,
      "velocity": 0.71,
      "hand": "right"
    },
    {
      "midi": 55,
      "time": 6.429,
      "duration": 3.429,
      "velocity": 0.71,
      "hand": "left"
    },
    {
      "midi": 74,
      "time": 6.857,
      "duration": 0.429,
      "velocity": 0.71,
      "hand": "right"
    },
    {
      "midi": 63,
      "time": 7.286,
      "duration": 0.857,
      "velocity": 0.71,
      "hand": "right"
    },
    {
      "midi": 72,
      "time": 7.286,
      "duration": 0.429,
      "velocity": 0.71,
      "hand": "right"
    },
    {
      "midi": 74,
      "time": 7.714,
      "duration": 0.429,
      "velocity": 0.71,
      "hand": "right"
    },
    {
      "midi": 60,
      "time": 8.143,
      "duration": 0.857,
      "velocity": 0.71,
      "hand": "right"
    },
    {
      "midi": 75,
      "time": 8.143,
      "duration": 0.429,
      "velocity": 0.71,
      "hand": "right"
    },
    {
      "midi": 72,
      "time": 8.571,
      "duration": 0.429,
      "velocity": 0.71,
      "hand": "right"
    },
    {
      "midi": 58,
      "time": 9,
      "duration": 0.857,
      "velocity": 0.71,
      "hand": "left"
    },
    {
      "midi": 74,
      "time": 9,
      "duration": 0.429,
      "velocity": 0.71,
      "hand": "right"
    },
    {
      "midi": 75,
      "time": 9.429,
      "duration": 0.214,
      "velocity": 0.71,
      "hand": "right"
    },
    {
      "midi": 74,
      "time": 9.643,
      "duration": 0.214,
      "velocity": 0.71,
      "hand": "right"
    },
    {
      "midi": 55,
      "time": 9.857,
      "duration": 0.857,
      "velocity": 0.71,
      "hand": "left"
    },
    {
      "midi": 72,
      "time": 9.857,
      "duration": 0.429,
      "velocity": 0.71,
      "hand": "right"
    },
    {
      "midi": 70,
      "time": 10.286,
      "duration": 0.429,
      "velocity": 0.71,
      "hand": "right"
    },
    {
      "midi": 54,
      "time": 10.714,
      "duration": 0.857,
      "velocity": 0.71,
      "hand": "left"
    },
    {
      "midi": 60,
      "time": 10.714,
      "duration": 1.714,
      "velocity": 0.71,
      "hand": "right"
    },
    {
      "midi": 69,
      "time": 10.714,
      "duration": 1.5,
      "velocity": 0.71,
      "hand": "right"
    },
    {
      "midi": 50,
      "time": 11.571,
      "duration": 0.857,
      "velocity": 0.71,
      "hand": "left"
    },
    {
      "midi": 67,
      "time": 12.214,
      "duration": 0.214,
      "velocity": 0.71,
      "hand": "right"
    },
    {
      "midi": 55,
      "time": 12.429,
      "duration": 0.857,
      "velocity": 0.71,
      "hand": "left"
    },
    {
      "midi": 58,
      "time": 12.429,
      "duration": 0.857,
      "velocity": 0.71,
      "hand": "left"
    },
    {
      "midi": 67,
      "time": 12.429,
      "duration": 1.286,
      "velocity": 0.71,
      "hand": "right"
    },
    {
      "midi": 43,
      "time": 13.286,
      "duration": 0.857,
      "velocity": 0.71,
      "hand": "left"
    },
    {
      "midi": 62,
      "time": 13.714,
      "duration": 0.429,
      "velocity": 0.71,
      "hand": "right"
    },
    {
      "midi": 55,
      "time": 14.143,
      "duration": 2.571,
      "velocity": 0.71,
      "hand": "left"
    },
    {
      "midi": 58,
      "time": 14.143,
      "duration": 0.429,
      "velocity": 0.71,
      "hand": "left"
    },
    {
      "midi": 67,
      "time": 14.143,
      "duration": 0.429,
      "velocity": 0.71,
      "hand": "right"
    },
    {
      "midi": 60,
      "time": 14.571,
      "duration": 0.429,
      "velocity": 0.71,
      "hand": "right"
    },
    {
      "midi": 69,
      "time": 14.571,
      "duration": 0.429,
      "velocity": 0.71,
      "hand": "right"
    },
    {
      "midi": 62,
      "time": 15,
      "duration": 0.429,
      "velocity": 0.71,
      "hand": "right"
    },
    {
      "midi": 70,
      "time": 15,
      "duration": 0.429,
      "velocity": 0.71,
      "hand": "right"
    },
    {
      "midi": 60,
      "time": 15.429,
      "duration": 0.429,
      "velocity": 0.71,
      "hand": "right"
    },
    {
      "midi": 72,
      "time": 15.429,
      "duration": 0.429,
      "velocity": 0.71,
      "hand": "right"
    },
    {
      "midi": 58,
      "time": 15.857,
      "duration": 1.714,
      "velocity": 0.71,
      "hand": "left"
    },
    {
      "midi": 74,
      "time": 15.857,
      "duration": 1.286,
      "velocity": 0.71,
      "hand": "right"
    },
    {
      "midi": 55,
      "time": 16.714,
      "duration": 3.429,
      "velocity": 0.71,
      "hand": "left"
    },
    {
      "midi": 74,
      "time": 17.143,
      "duration": 0.429,
      "velocity": 0.71,
      "hand": "right"
    },
    {
      "midi": 63,
      "time": 17.571,
      "duration": 0.857,
      "velocity": 0.71,
      "hand": "right"
    },
    {
      "midi": 72,
      "time": 17.571,
      "duration": 0.429,
      "velocity": 0.71,
      "hand": "right"
    },
    {
      "midi": 74,
      "time": 18,
      "duration": 0.429,
      "velocity": 0.71,
      "hand": "right"
    },
    {
      "midi": 60,
      "time": 18.429,
      "duration": 0.857,
      "velocity": 0.71,
      "hand": "right"
    },
    {
      "midi": 75,
      "time": 18.429,
      "duration": 0.429,
      "velocity": 0.71,
      "hand": "right"
    },
    {
      "midi": 72,
      "time": 18.857,
      "duration": 0.429,
      "velocity": 0.71,
      "hand": "right"
    },
    {
      "midi": 58,
      "time": 19.286,
      "duration": 0.857,
      "velocity": 0.71,
      "hand": "left"
    },
    {
      "midi": 74,
      "time": 19.286,
      "duration": 1.286,
      "velocity": 0.71,
      "hand": "right"
    },
    {
      "midi": 55,
      "time": 20.143,
      "duration": 3.429,
      "velocity": 0.71,
      "hand": "left"
    },
    {
      "midi": 74,
      "time": 20.571,
      "duration": 0.429,
      "velocity": 0.71,
      "hand": "right"
    },
    {
      "midi": 63,
      "time": 21,
      "duration": 0.857,
      "velocity": 0.71,
      "hand": "right"
    },
    {
      "midi": 72,
      "time": 21,
      "duration": 0.429,
      "velocity": 0.71,
      "hand": "right"
    },
    {
      "midi": 74,
      "time": 21.429,
      "duration": 0.429,
      "velocity": 0.71,
      "hand": "right"
    },
    {
      "midi": 60,
      "time": 21.857,
      "duration": 0.857,
      "velocity": 0.71,
      "hand": "right"
    },
    {
      "midi": 75,
      "time": 21.857,
      "duration": 0.429,
      "velocity": 0.71,
      "hand": "right"
    },
    {
      "midi": 72,
      "time": 22.286,
      "duration": 0.429,
      "velocity": 0.71,
      "hand": "right"
    },
    {
      "midi": 58,
      "time": 22.714,
      "duration": 0.857,
      "velocity": 0.71,
      "hand": "left"
    },
    {
      "midi": 74,
      "time": 22.714,
      "duration": 0.429,
      "velocity": 0.71,
      "hand": "right"
    },
    {
      "midi": 75,
      "time": 23.143,
      "duration": 0.214,
      "velocity": 0.71,
      "hand": "right"
    },
    {
      "midi": 74,
      "time": 23.357,
      "duration": 0.214,
      "velocity": 0.71,
      "hand": "right"
    },
    {
      "midi": 55,
      "time": 23.571,
      "duration": 0.857,
      "velocity": 0.71,
      "hand": "left"
    },
    {
      "midi": 72,
      "time": 23.571,
      "duration": 0.429,
      "velocity": 0.71,
      "hand": "right"
    },
    {
      "midi": 70,
      "time": 24,
      "duration": 0.429,
      "velocity": 0.71,
      "hand": "right"
    },
    {
      "midi": 54,
      "time": 24.429,
      "duration": 0.857,
      "velocity": 0.71,
      "hand": "left"
    },
    {
      "midi": 60,
      "time": 24.429,
      "duration": 1.714,
      "velocity": 0.71,
      "hand": "right"
    },
    {
      "midi": 69,
      "time": 24.429,
      "duration": 1.5,
      "velocity": 0.71,
      "hand": "right"
    },
    {
      "midi": 50,
      "time": 25.286,
      "duration": 0.857,
      "velocity": 0.71,
      "hand": "left"
    },
    {
      "midi": 67,
      "time": 25.929,
      "duration": 0.214,
      "velocity": 0.71,
      "hand": "right"
    },
    {
      "midi": 55,
      "time": 26.143,
      "duration": 1.714,
      "velocity": 0.71,
      "hand": "left"
    },
    {
      "midi": 58,
      "time": 26.143,
      "duration": 1.714,
      "velocity": 0.71,
      "hand": "left"
    },
    {
      "midi": 67,
      "time": 26.143,
      "duration": 1.714,
      "velocity": 0.71,
      "hand": "right"
    },
    {
      "midi": 48,
      "time": 27.857,
      "duration": 0.429,
      "velocity": 0.71,
      "hand": "left"
    },
    {
      "midi": 67,
      "time": 27.857,
      "duration": 0.857,
      "velocity": 0.71,
      "hand": "right"
    },
    {
      "midi": 55,
      "time": 28.286,
      "duration": 0.429,
      "velocity": 0.71,
      "hand": "left"
    },
    {
      "midi": 60,
      "time": 28.714,
      "duration": 0.429,
      "velocity": 0.71,
      "hand": "right"
    },
    {
      "midi": 67,
      "time": 28.714,
      "duration": 0.429,
      "velocity": 0.71,
      "hand": "right"
    },
    {
      "midi": 63,
      "time": 29.143,
      "duration": 0.429,
      "velocity": 0.71,
      "hand": "right"
    },
    {
      "midi": 69,
      "time": 29.143,
      "duration": 0.429,
      "velocity": 0.71,
      "hand": "right"
    },
    {
      "midi": 43,
      "time": 29.571,
      "duration": 0.429,
      "velocity": 0.71,
      "hand": "left"
    },
    {
      "midi": 70,
      "time": 29.571,
      "duration": 1.286,
      "velocity": 0.71,
      "hand": "right"
    },
    {
      "midi": 55,
      "time": 30,
      "duration": 0.429,
      "velocity": 0.71,
      "hand": "left"
    },
    {
      "midi": 60,
      "time": 30.429,
      "duration": 0.429,
      "velocity": 0.71,
      "hand": "right"
    },
    {
      "midi": 63,
      "time": 30.857,
      "duration": 0.429,
      "velocity": 0.71,
      "hand": "right"
    },
    {
      "midi": 70,
      "time": 30.857,
      "duration": 0.429,
      "velocity": 0.71,
      "hand": "right"
    },
    {
      "midi": 48,
      "time": 31.286,
      "duration": 0.429,
      "velocity": 0.71,
      "hand": "left"
    },
    {
      "midi": 72,
      "time": 31.286,
      "duration": 0.857,
      "velocity": 0.71,
      "hand": "right"
    },
    {
      "midi": 55,
      "time": 31.714,
      "duration": 0.429,
      "velocity": 0.71,
      "hand": "left"
    },
    {
      "midi": 60,
      "time": 32.143,
      "duration": 0.429,
      "velocity": 0.71,
      "hand": "right"
    },
    {
      "midi": 72,
      "time": 32.143,
      "duration": 0.857,
      "velocity": 0.71,
      "hand": "right"
    },
    {
      "midi": 63,
      "time": 32.571,
      "duration": 0.429,
      "velocity": 0.71,
      "hand": "right"
    },
    {
      "midi": 50,
      "time": 33,
      "duration": 0.429,
      "velocity": 0.71,
      "hand": "left"
    },
    {
      "midi": 69,
      "time": 33,
      "duration": 1.286,
      "velocity": 0.71,
      "hand": "right"
    },
    {
      "midi": 57,
      "time": 33.429,
      "duration": 0.429,
      "velocity": 0.71,
      "hand": "left"
    },
    {
      "midi": 60,
      "time": 33.857,
      "duration": 0.429,
      "velocity": 0.71,
      "hand": "right"
    },
    {
      "midi": 66,
      "time": 34.286,
      "duration": 0.429,
      "velocity": 0.71,
      "hand": "right"
    },
    {
      "midi": 69,
      "time": 34.286,
      "duration": 0.429,
      "velocity": 0.71,
      "hand": "right"
    },
    {
      "midi": 55,
      "time": 34.714,
      "duration": 0.429,
      "velocity": 0.71,
      "hand": "left"
    },
    {
      "midi": 58,
      "time": 34.714,
      "duration": 0.429,
      "velocity": 0.71,
      "hand": "left"
    },
    {
      "midi": 74,
      "time": 34.714,
      "duration": 1.286,
      "velocity": 0.71,
      "hand": "right"
    },
    {
      "midi": 62,
      "time": 35.143,
      "duration": 0.429,
      "velocity": 0.71,
      "hand": "right"
    },
    {
      "midi": 67,
      "time": 35.571,
      "duration": 0.429,
      "velocity": 0.71,
      "hand": "right"
    },
    {
      "midi": 74,
      "time": 36,
      "duration": 0.429,
      "velocity": 0.71,
      "hand": "right"
    },
    {
      "midi": 60,
      "time": 36.429,
      "duration": 1.714,
      "velocity": 0.71,
      "hand": "right"
    },
    {
      "midi": 63,
      "time": 36.429,
      "duration": 1.714,
      "velocity": 0.71,
      "hand": "right"
    },
    {
      "midi": 67,
      "time": 36.429,
      "duration": 1.714,
      "velocity": 0.71,
      "hand": "right"
    },
    {
      "midi": 75,
      "time": 36.429,
      "duration": 0.429,
      "velocity": 0.71,
      "hand": "right"
    },
    {
      "midi": 77,
      "time": 36.857,
      "duration": 0.214,
      "velocity": 0.71,
      "hand": "right"
    },
    {
      "midi": 75,
      "time": 37.071,
      "duration": 0.214,
      "velocity": 0.71,
      "hand": "right"
    },
    {
      "midi": 74,
      "time": 37.286,
      "duration": 0.429,
      "velocity": 0.71,
      "hand": "right"
    },
    {
      "midi": 72,
      "time": 37.714,
      "duration": 0.429,
      "velocity": 0.71,
      "hand": "right"
    },
    {
      "midi": 62,
      "time": 38.143,
      "duration": 0.857,
      "velocity": 0.71,
      "hand": "right"
    },
    {
      "midi": 67,
      "time": 38.143,
      "duration": 0.857,
      "velocity": 0.71,
      "hand": "right"
    },
    {
      "midi": 70,
      "time": 38.143,
      "duration": 0.857,
      "velocity": 0.71,
      "hand": "right"
    },
    {
      "midi": 69,
      "time": 39,
      "duration": 0.429,
      "velocity": 0.71,
      "hand": "right"
    },
    {
      "midi": 67,
      "time": 39.429,
      "duration": 0.429,
      "velocity": 0.71,
      "hand": "right"
    },
    {
      "midi": 62,
      "time": 39.857,
      "duration": 0.857,
      "velocity": 0.71,
      "hand": "right"
    },
    {
      "midi": 66,
      "time": 39.857,
      "duration": 1.286,
      "velocity": 0.71,
      "hand": "right"
    },
    {
      "midi": 69,
      "time": 39.857,
      "duration": 1.286,
      "velocity": 0.71,
      "hand": "right"
    },
    {
      "midi": 50,
      "time": 40.714,
      "duration": 0.857,
      "velocity": 0.71,
      "hand": "left"
    },
    {
      "midi": 62,
      "time": 41.143,
      "duration": 0.429,
      "velocity": 0.71,
      "hand": "right"
    },
    {
      "midi": 55,
      "time": 41.571,
      "duration": 2.571,
      "velocity": 0.71,
      "hand": "left"
    },
    {
      "midi": 58,
      "time": 41.571,
      "duration": 0.429,
      "velocity": 0.71,
      "hand": "left"
    },
    {
      "midi": 67,
      "time": 41.571,
      "duration": 0.429,
      "velocity": 0.71,
      "hand": "right"
    },
    {
      "midi": 60,
      "time": 42,
      "duration": 0.429,
      "velocity": 0.71,
      "hand": "right"
    },
    {
      "midi": 69,
      "time": 42,
      "duration": 0.429,
      "velocity": 0.71,
      "hand": "right"
    },
    {
      "midi": 62,
      "time": 42.429,
      "duration": 0.429,
      "velocity": 0.71,
      "hand": "right"
    },
    {
      "midi": 70,
      "time": 42.429,
      "duration": 0.429,
      "velocity": 0.71,
      "hand": "right"
    },
    {
      "midi": 60,
      "time": 42.857,
      "duration": 0.429,
      "velocity": 0.71,
      "hand": "right"
    },
    {
      "midi": 72,
      "time": 42.857,
      "duration": 0.429,
      "velocity": 0.71,
      "hand": "right"
    },
    {
      "midi": 58,
      "time": 43.286,
      "duration": 1.714,
      "velocity": 0.71,
      "hand": "left"
    },
    {
      "midi": 74,
      "time": 43.286,
      "duration": 1.286,
      "velocity": 0.71,
      "hand": "right"
    },
    {
      "midi": 55,
      "time": 44.143,
      "duration": 3.429,
      "velocity": 0.71,
      "hand": "left"
    },
    {
      "midi": 74,
      "time": 44.571,
      "duration": 0.429,
      "velocity": 0.71,
      "hand": "right"
    },
    {
      "midi": 63,
      "time": 45,
      "duration": 0.857,
      "velocity": 0.71,
      "hand": "right"
    },
    {
      "midi": 72,
      "time": 45,
      "duration": 0.429,
      "velocity": 0.71,
      "hand": "right"
    },
    {
      "midi": 74,
      "time": 45.429,
      "duration": 0.429,
      "velocity": 0.71,
      "hand": "right"
    },
    {
      "midi": 60,
      "time": 45.857,
      "duration": 0.857,
      "velocity": 0.71,
      "hand": "right"
    },
    {
      "midi": 75,
      "time": 45.857,
      "duration": 0.429,
      "velocity": 0.71,
      "hand": "right"
    },
    {
      "midi": 72,
      "time": 46.286,
      "duration": 0.429,
      "velocity": 0.71,
      "hand": "right"
    },
    {
      "midi": 58,
      "time": 46.714,
      "duration": 0.857,
      "velocity": 0.71,
      "hand": "left"
    },
    {
      "midi": 74,
      "time": 46.714,
      "duration": 1.286,
      "velocity": 0.71,
      "hand": "right"
    },
    {
      "midi": 55,
      "time": 47.571,
      "duration": 3.429,
      "velocity": 0.71,
      "hand": "left"
    },
    {
      "midi": 74,
      "time": 48,
      "duration": 0.429,
      "velocity": 0.71,
      "hand": "right"
    },
    {
      "midi": 63,
      "time": 48.429,
      "duration": 0.857,
      "velocity": 0.71,
      "hand": "right"
    },
    {
      "midi": 72,
      "time": 48.429,
      "duration": 0.429,
      "velocity": 0.71,
      "hand": "right"
    },
    {
      "midi": 74,
      "time": 48.857,
      "duration": 0.429,
      "velocity": 0.71,
      "hand": "right"
    },
    {
      "midi": 60,
      "time": 49.286,
      "duration": 0.857,
      "velocity": 0.71,
      "hand": "right"
    },
    {
      "midi": 75,
      "time": 49.286,
      "duration": 0.429,
      "velocity": 0.71,
      "hand": "right"
    },
    {
      "midi": 72,
      "time": 49.714,
      "duration": 0.429,
      "velocity": 0.71,
      "hand": "right"
    },
    {
      "midi": 58,
      "time": 50.143,
      "duration": 0.857,
      "velocity": 0.71,
      "hand": "left"
    },
    {
      "midi": 74,
      "time": 50.143,
      "duration": 0.429,
      "velocity": 0.71,
      "hand": "right"
    },
    {
      "midi": 75,
      "time": 50.571,
      "duration": 0.214,
      "velocity": 0.71,
      "hand": "right"
    },
    {
      "midi": 74,
      "time": 50.786,
      "duration": 0.214,
      "velocity": 0.71,
      "hand": "right"
    },
    {
      "midi": 55,
      "time": 51,
      "duration": 0.857,
      "velocity": 0.71,
      "hand": "left"
    },
    {
      "midi": 72,
      "time": 51,
      "duration": 0.429,
      "velocity": 0.71,
      "hand": "right"
    },
    {
      "midi": 70,
      "time": 51.429,
      "duration": 0.429,
      "velocity": 0.71,
      "hand": "right"
    },
    {
      "midi": 48,
      "time": 51.857,
      "duration": 0.857,
      "velocity": 0.71,
      "hand": "left"
    },
    {
      "midi": 55,
      "time": 51.857,
      "duration": 0.857,
      "velocity": 0.71,
      "hand": "left"
    },
    {
      "midi": 63,
      "time": 51.857,
      "duration": 0.857,
      "velocity": 0.71,
      "hand": "right"
    },
    {
      "midi": 69,
      "time": 51.857,
      "duration": 1.5,
      "velocity": 0.71,
      "hand": "right"
    },
    {
      "midi": 50,
      "time": 52.714,
      "duration": 0.857,
      "velocity": 0.71,
      "hand": "left"
    },
    {
      "midi": 54,
      "time": 52.714,
      "duration": 0.857,
      "velocity": 0.71,
      "hand": "left"
    },
    {
      "midi": 62,
      "time": 52.714,
      "duration": 0.857,
      "velocity": 0.71,
      "hand": "right"
    },
    {
      "midi": 67,
      "time": 53.357,
      "duration": 0.214,
      "velocity": 0.71,
      "hand": "right"
    },
    {
      "midi": 43,
      "time": 53.571,
      "duration": 1.714,
      "velocity": 0.71,
      "hand": "left"
    },
    {
      "midi": 50,
      "time": 53.571,
      "duration": 1.714,
      "velocity": 0.71,
      "hand": "left"
    },
    {
      "midi": 58,
      "time": 53.571,
      "duration": 1.714,
      "velocity": 0.71,
      "hand": "left"
    },
    {
      "midi": 67,
      "time": 53.571,
      "duration": 1.714,
      "velocity": 0.71,
      "hand": "right"
    }
  ]
}
