{
  "id": "onde-esta-a-margarida",
  "title": "Onde Está a Margarida?",
  "artist": "Tradicional",
  "difficulty": "Difícil",
  "bpm": 80,
  "duration": 91,
  "category": "Infantis",
  "isPremium": false,
  "coverUrl": "/images/covers/placeholder.png",
  "notes": [
    {
      "midi": 43,
      "time": 0,
      "duration": 2.167,
      "velocity": 0.93,
      "hand": "left"
    },
    {
      "midi": 67,
      "time": 0,
      "duration": 0.485,
      "velocity": 0.81,
      "hand": "right"
    },
    {
      "midi": 71,
      "time": 0,
      "duration": 0.318,
      "velocity": 0.51,
      "hand": "right"
    },
    {
      "midi": 74,
      "time": 0,
      "duration": 0.651,
      "velocity": 0.71,
      "hand": "right"
    },
    {
      "midi": 79,
      "time": 0,
      "duration": 2.333,
      "velocity": 0.39,
      "hand": "right"
    },
    {
      "midi": 59,
      "time": 0.166,
      "duration": 1.152,
      "velocity": 0.59,
      "hand": "left"
    },
    {
      "midi": 42,
      "time": 0.333,
      "duration": 0.083,
      "velocity": 0.19,
      "hand": "left"
    },
    {
      "midi": 62,
      "time": 0.333,
      "duration": 0.652,
      "velocity": 0.62,
      "hand": "right"
    },
    {
      "midi": 71,
      "time": 0.333,
      "duration": 0.333,
      "velocity": 0.68,
      "hand": "right"
    },
    {
      "midi": 67,
      "time": 0.5,
      "duration": 0.651,
      "velocity": 0.77,
      "hand": "right"
    },
    {
      "midi": 37,
      "time": 0.666,
      "duration": 0.083,
      "velocity": 0.91,
      "hand": "left"
    },
    {
      "midi": 42,
      "time": 0.666,
      "duration": 0.083,
      "velocity": 0.66,
      "hand": "left"
    },
    {
      "midi": 74,
      "time": 0.666,
      "duration": 0.333,
      "velocity": 0.69,
      "hand": "right"
    },
    {
      "midi": 71,
      "time": 0.833,
      "duration": 0.152,
      "velocity": 0.69,
      "hand": "right"
    },
    {
      "midi": 42,
      "time": 1,
      "duration": 0.083,
      "velocity": 0.31,
      "hand": "left"
    },
    {
      "midi": 62,
      "time": 1,
      "duration": 0.485,
      "velocity": 0.52,
      "hand": "right"
    },
    {
      "midi": 71,
      "time": 1,
      "duration": 0.333,
      "velocity": 0.65,
      "hand": "right"
    },
    {
      "midi": 67,
      "time": 1.166,
      "duration": 0.152,
      "velocity": 0.72,
      "hand": "right"
    },
    {
      "midi": 42,
      "time": 1.333,
      "duration": 0.083,
      "velocity": 0.39,
      "hand": "left"
    },
    {
      "midi": 59,
      "time": 1.333,
      "duration": 0.333,
      "velocity": 0.52,
      "hand": "left"
    },
    {
      "midi": 67,
      "time": 1.333,
      "duration": 0.818,
      "velocity": 0.74,
      "hand": "right"
    },
    {
      "midi": 62,
      "time": 1.5,
      "duration": 0.167,
      "velocity": 0.65,
      "hand": "right"
    },
    {
      "midi": 42,
      "time": 1.666,
      "duration": 0.083,
      "velocity": 0.21,
      "hand": "left"
    },
    {
      "midi": 55,
      "time": 1.666,
      "duration": 0.985,
      "velocity": 0.7,
      "hand": "left"
    },
    {
      "midi": 71,
      "time": 1.666,
      "duration": 0.333,
      "velocity": 0.72,
      "hand": "right"
    },
    {
      "midi": 59,
      "time": 1.833,
      "duration": 0.652,
      "velocity": 0.58,
      "hand": "left"
    },
    {
      "midi": 42,
      "time": 2,
      "duration": 0.083,
      "velocity": 0.51,
      "hand": "left"
    },
    {
      "midi": 54,
      "time": 2,
      "duration": 0.083,
      "velocity": 0.63,
      "hand": "left"
    },
    {
      "midi": 62,
      "time": 2,
      "duration": 0.651,
      "velocity": 0.68,
      "hand": "right"
    },
    {
      "midi": 74,
      "time": 2,
      "duration": 0.333,
      "velocity": 0.4,
      "hand": "right"
    },
    {
      "midi": 67,
      "time": 2.166,
      "duration": 0.485,
      "velocity": 0.79,
      "hand": "right"
    },
    {
      "midi": 43,
      "time": 2.333,
      "duration": 0.167,
      "velocity": 0.91,
      "hand": "left"
    },
    {
      "midi": 46,
      "time": 2.333,
      "duration": 0.083,
      "velocity": 0.28,
      "hand": "left"
    },
    {
      "midi": 71,
      "time": 2.333,
      "duration": 0.318,
      "velocity": 0.72,
      "hand": "right"
    },
    {
      "midi": 59,
      "time": 2.5,
      "duration": 0.151,
      "velocity": 0.63,
      "hand": "left"
    },
    {
      "midi": 43,
      "time": 2.666,
      "duration": 0.152,
      "velocity": 0.93,
      "hand": "left"
    },
    {
      "midi": 67,
      "time": 2.666,
      "duration": 0.152,
      "velocity": 0.86,
      "hand": "right"
    },
    {
      "midi": 71,
      "time": 2.666,
      "duration": 0.152,
      "velocity": 0.36,
      "hand": "right"
    },
    {
      "midi": 74,
      "time": 2.666,
      "duration": 0.152,
      "velocity": 0.49,
      "hand": "right"
    },
    {
      "midi": 79,
      "time": 2.666,
      "duration": 1.152,
      "velocity": 0.71,
      "hand": "right"
    },
    {
      "midi": 43,
      "time": 2.833,
      "duration": 1.833,
      "velocity": 0.93,
      "hand": "left"
    },
    {
      "midi": 55,
      "time": 2.833,
      "duration": 0.083,
      "velocity": 0.63,
      "hand": "left"
    },
    {
      "midi": 62,
      "time": 2.833,
      "duration": 0.152,
      "velocity": 0.51,
      "hand": "right"
    },
    {
      "midi": 67,
      "time": 2.833,
      "duration": 0.318,
      "velocity": 0.51,
      "hand": "right"
    },
    {
      "midi": 71,
      "time": 2.833,
      "duration": 0.152,
      "velocity": 0.51,
      "hand": "right"
    },
    {
      "midi": 74,
      "time": 2.833,
      "duration": 0.485,
      "velocity": 0.52,
      "hand": "right"
    },
    {
      "midi": 42,
      "time": 3,
      "duration": 0.083,
      "velocity": 0.19,
      "hand": "left"
    },
    {
      "midi": 62,
      "time": 3,
      "duration": 0.651,
      "velocity": 0.63,
      "hand": "right"
    },
    {
      "midi": 71,
      "time": 3,
      "duration": 0.333,
      "velocity": 0.76,
      "hand": "right"
    },
    {
      "midi": 67,
      "time": 3.166,
      "duration": 0.667,
      "velocity": 0.77,
      "hand": "right"
    },
    {
      "midi": 37,
      "time": 3.333,
      "duration": 0.083,
      "velocity": 0.91,
      "hand": "left"
    },
    {
      "midi": 42,
      "time": 3.333,
      "duration": 0.083,
      "velocity": 0.66,
      "hand": "left"
    },
    {
      "midi": 74,
      "time": 3.333,
      "duration": 0.333,
      "velocity": 0.51,
      "hand": "right"
    },
    {
      "midi": 71,
      "time": 3.5,
      "duration": 0.151,
      "velocity": 0.69,
      "hand": "right"
    },
    {
      "midi": 42,
      "time": 3.666,
      "duration": 0.083,
      "velocity": 0.31,
      "hand": "left"
    },
    {
      "midi": 62,
      "time": 3.666,
      "duration": 0.5,
      "velocity": 0.52,
      "hand": "right"
    },
    {
      "midi": 71,
      "time": 3.666,
      "duration": 0.333,
      "velocity": 0.79,
      "hand": "right"
    },
    {
      "midi": 79,
      "time": 3.833,
      "duration": 0.833,
      "velocity": 0.77,
      "hand": "right"
    },
    {
      "midi": 46,
      "time": 4,
      "duration": 0.083,
      "velocity": 0.39,
      "hand": "left"
    },
    {
      "midi": 67,
      "time": 4,
      "duration": 1,
      "velocity": 0.83,
      "hand": "right"
    },
    {
      "midi": 48,
      "time": 4.166,
      "duration": 0.083,
      "velocity": 0.31,
      "hand": "left"
    },
    {
      "midi": 71,
      "time": 4.333,
      "duration": 0.333,
      "velocity": 0.79,
      "hand": "right"
    },
    {
      "midi": 45,
      "time": 4.666,
      "duration": 0.083,
      "velocity": 0.31,
      "hand": "left"
    },
    {
      "midi": 54,
      "time": 4.666,
      "duration": 0.083,
      "velocity": 0.63,
      "hand": "left"
    },
    {
      "midi": 74,
      "time": 4.666,
      "duration": 0.167,
      "velocity": 0.63,
      "hand": "right"
    },
    {
      "midi": 71,
      "time": 4.833,
      "duration": 0.167,
      "velocity": 0.72,
      "hand": "right"
    },
    {
      "midi": 47,
      "time": 5,
      "duration": 0.083,
      "velocity": 0.58,
      "hand": "left"
    },
    {
      "midi": 60,
      "time": 5,
      "duration": 0.318,
      "velocity": 0.49,
      "hand": "right"
    },
    {
      "midi": 64,
      "time": 5,
      "duration": 0.318,
      "velocity": 0.51,
      "hand": "right"
    },
    {
      "midi": 41,
      "time": 5.166,
      "duration": 0.083,
      "velocity": 0.31,
      "hand": "left"
    },
    {
      "midi": 67,
      "time": 5.166,
      "duration": 0.152,
      "velocity": 0.65,
      "hand": "right"
    },
    {
      "midi": 36,
      "time": 5.333,
      "duration": 0.985,
      "velocity": 0.91,
      "hand": "left"
    },
    {
      "midi": 47,
      "time": 5.333,
      "duration": 0.083,
      "velocity": 0.86,
      "hand": "left"
    },
    {
      "midi": 64,
      "time": 5.333,
      "duration": 0.152,
      "velocity": 0.71,
      "hand": "right"
    },
    {
      "midi": 67,
      "time": 5.333,
      "duration": 1.318,
      "velocity": 0.89,
      "hand": "right"
    },
    {
      "midi": 72,
      "time": 5.333,
      "duration": 0.318,
      "velocity": 0.59,
      "hand": "right"
    },
    {
      "midi": 76,
      "time": 5.333,
      "duration": 0.152,
      "velocity": 0.63,
      "hand": "right"
    },
    {
      "midi": 64,
      "time": 5.5,
      "duration": 0.318,
      "velocity": 0.08,
      "hand": "right"
    },
    {
      "midi": 76,
      "time": 5.5,
      "duration": 0.485,
      "velocity": 0.72,
      "hand": "right"
    },
    {
      "midi": 79,
      "time": 5.5,
      "duration": 2.333,
      "velocity": 0.81,
      "hand": "right"
    },
    {
      "midi": 51,
      "time": 5.666,
      "duration": 0.083,
      "velocity": 0.46,
      "hand": "left"
    },
    {
      "midi": 72,
      "time": 5.666,
      "duration": 0.333,
      "velocity": 0.77,
      "hand": "right"
    },
    {
      "midi": 60,
      "time": 5.833,
      "duration": 0.318,
      "velocity": 0.73,
      "hand": "right"
    },
    {
      "midi": 64,
      "time": 5.833,
      "duration": 0.833,
      "velocity": 0.72,
      "hand": "right"
    },
    {
      "midi": 38,
      "time": 6,
      "duration": 0.083,
      "velocity": 0.91,
      "hand": "left"
    },
    {
      "midi": 51,
      "time": 6,
      "duration": 0.083,
      "velocity": 0.82,
      "hand": "left"
    },
    {
      "midi": 76,
      "time": 6,
      "duration": 0.333,
      "velocity": 0.83,
      "hand": "right"
    },
    {
      "midi": 55,
      "time": 6.166,
      "duration": 0.319,
      "velocity": 0.59,
      "hand": "left"
    },
    {
      "midi": 60,
      "time": 6.166,
      "duration": 0.333,
      "velocity": 0.81,
      "hand": "right"
    },
    {
      "midi": 36,
      "time": 6.333,
      "duration": 0.083,
      "velocity": 0.89,
      "hand": "left"
    },
    {
      "midi": 47,
      "time": 6.333,
      "duration": 0.083,
      "velocity": 0.59,
      "hand": "left"
    },
    {
      "midi": 72,
      "time": 6.333,
      "duration": 0.318,
      "velocity": 0.76,
      "hand": "right"
    },
    {
      "midi": 55,
      "time": 6.5,
      "duration": 0.151,
      "velocity": 0.58,
      "hand": "left"
    },
    {
      "midi": 36,
      "time": 6.666,
      "duration": 1.167,
      "velocity": 0.83,
      "hand": "left"
    },
    {
      "midi": 47,
      "time": 6.666,
      "duration": 0.083,
      "velocity": 0.8,
      "hand": "left"
    },
    {
      "midi": 63,
      "time": 6.666,
      "duration": 0.485,
      "velocity": 0.71,
      "hand": "right"
    },
    {
      "midi": 67,
      "time": 6.666,
      "duration": 0.319,
      "velocity": 0.89,
      "hand": "right"
    },
    {
      "midi": 72,
      "time": 6.666,
      "duration": 0.319,
      "velocity": 0.25,
      "hand": "right"
    },
    {
      "midi": 75,
      "time": 6.666,
      "duration": 1.333,
      "velocity": 0.63,
      "hand": "right"
    },
    {
      "midi": 51,
      "time": 7,
      "duration": 0.083,
      "velocity": 0.5,
      "hand": "left"
    },
    {
      "midi": 67,
      "time": 7,
      "duration": 0.833,
      "velocity": 0.08,
      "hand": "right"
    },
    {
      "midi": 72,
      "time": 7,
      "duration": 0.318,
      "velocity": 0.76,
      "hand": "right"
    },
    {
      "midi": 55,
      "time": 7.166,
      "duration": 0.319,
      "velocity": 0.65,
      "hand": "left"
    },
    {
      "midi": 60,
      "time": 7.166,
      "duration": 0.652,
      "velocity": 0.91,
      "hand": "right"
    },
    {
      "midi": 63,
      "time": 7.166,
      "duration": 0.319,
      "velocity": 0.73,
      "hand": "right"
    },
    {
      "midi": 38,
      "time": 7.333,
      "duration": 0.083,
      "velocity": 0.91,
      "hand": "left"
    },
    {
      "midi": 51,
      "time": 7.333,
      "duration": 0.083,
      "velocity": 0.74,
      "hand": "left"
    },
    {
      "midi": 72,
      "time": 7.333,
      "duration": 0.167,
      "velocity": 0.17,
      "hand": "right"
    },
    {
      "midi": 76,
      "time": 7.333,
      "duration": 0.333,
      "velocity": 0.72,
      "hand": "right"
    },
    {
      "midi": 51,
      "time": 7.5,
      "duration": 0.151,
      "velocity": 0.66,
      "hand": "left"
    },
    {
      "midi": 55,
      "time": 7.5,
      "duration": 0.318,
      "velocity": 0.68,
      "hand": "left"
    },
    {
      "midi": 63,
      "time": 7.5,
      "duration": 0.167,
      "velocity": 0.56,
      "hand": "right"
    },
    {
      "midi": 48,
      "time": 7.666,
      "duration": 0.333,
      "velocity": 0.63,
      "hand": "left"
    },
    {
      "midi": 51,
      "time": 7.666,
      "duration": 0.083,
      "velocity": 0.46,
      "hand": "left"
    },
    {
      "midi": 72,
      "time": 7.666,
      "duration": 0.333,
      "velocity": 0.72,
      "hand": "right"
    },
    {
      "midi": 51,
      "time": 7.833,
      "duration": 0.152,
      "velocity": 0.54,
      "hand": "left"
    },
    {
      "midi": 55,
      "time": 7.833,
      "duration": 0.152,
      "velocity": 0.61,
      "hand": "left"
    },
    {
      "midi": 60,
      "time": 7.833,
      "duration": 0.167,
      "velocity": 0.72,
      "hand": "right"
    },
    {
      "midi": 63,
      "time": 7.833,
      "duration": 0.167,
      "velocity": 0.61,
      "hand": "right"
    },
    {
      "midi": 43,
      "time": 8,
      "duration": 0.985,
      "velocity": 0.91,
      "hand": "left"
    },
    {
      "midi": 47,
      "time": 8,
      "duration": 0.083,
      "velocity": 0.8,
      "hand": "left"
    },
    {
      "midi": 67,
      "time": 8,
      "duration": 0.485,
      "velocity": 0.89,
      "hand": "right"
    },
    {
      "midi": 71,
      "time": 8,
      "duration": 0.318,
      "velocity": 0.73,
      "hand": "right"
    },
    {
      "midi": 74,
      "time": 8,
      "duration": 0.485,
      "velocity": 0.71,
      "hand": "right"
    },
    {
      "midi": 83,
      "time": 8,
      "duration": 1.167,
      "velocity": 0.63,
      "hand": "right"
    },
    {
      "midi": 60,
      "time": 8.166,
      "duration": 0.167,
      "velocity": 0.11,
      "hand": "right"
    },
    {
      "midi": 51,
      "time": 8.333,
      "duration": 0.083,
      "velocity": 0.4,
      "hand": "left"
    },
    {
      "midi": 59,
      "time": 8.333,
      "duration": 0.152,
      "velocity": 0.71,
      "hand": "left"
    },
    {
      "midi": 62,
      "time": 8.333,
      "duration": 0.152,
      "velocity": 0.63,
      "hand": "right"
    },
    {
      "midi": 71,
      "time": 8.333,
      "duration": 0.152,
      "velocity": 0.76,
      "hand": "right"
    },
    {
      "midi": 59,
      "time": 8.5,
      "duration": 0.485,
      "velocity": 0.54,
      "hand": "left"
    },
    {
      "midi": 62,
      "time": 8.5,
      "duration": 0.151,
      "velocity": 0.71,
      "hand": "right"
    },
    {
      "midi": 67,
      "time": 8.5,
      "duration": 0.151,
      "velocity": 0.9,
      "hand": "right"
    },
    {
      "midi": 71,
      "time": 8.5,
      "duration": 0.318,
      "velocity": 0.13,
      "hand": "right"
    },
    {
      "midi": 74,
      "time": 8.5,
      "duration": 0.333,
      "velocity": 0.08,
      "hand": "right"
    },
    {
      "midi": 38,
      "time": 8.666,
      "duration": 0.083,
      "velocity": 0.91,
      "hand": "left"
    },
    {
      "midi": 51,
      "time": 8.666,
      "duration": 0.083,
      "velocity": 0.8,
      "hand": "left"
    },
    {
      "midi": 62,
      "time": 8.666,
      "duration": 0.319,
      "velocity": 0.7,
      "hand": "right"
    },
    {
      "midi": 67,
      "time": 8.666,
      "duration": 0.167,
      "velocity": 0.4,
      "hand": "right"
    },
    {
      "midi": 71,
      "time": 8.833,
      "duration": 0.318,
      "velocity": 0.53,
      "hand": "right"
    },
    {
      "midi": 43,
      "time": 9,
      "duration": 0.083,
      "velocity": 0.87,
      "hand": "left"
    },
    {
      "midi": 47,
      "time": 9,
      "duration": 0.083,
      "velocity": 0.78,
      "hand": "left"
    },
    {
      "midi": 62,
      "time": 9,
      "duration": 0.167,
      "velocity": 0.64,
      "hand": "right"
    },
    {
      "midi": 67,
      "time": 9,
      "duration": 0.167,
      "velocity": 0.83,
      "hand": "right"
    },
    {
      "midi": 58,
      "time": 9.166,
      "duration": 0.167,
      "velocity": 0.63,
      "hand": "left"
    },
    {
      "midi": 71,
      "time": 9.166,
      "duration": 0.083,
      "velocity": 0.56,
      "hand": "right"
    },
    {
      "midi": 73,
      "time": 9.166,
      "duration": 0.167,
      "velocity": 0.71,
      "hand": "right"
    },
    {
      "midi": 82,
      "time": 9.166,
      "duration": 0.167,
      "velocity": 0.63,
      "hand": "right"
    },
    {
      "midi": 38,
      "time": 9.333,
      "duration": 0.652,
      "velocity": 0.85,
      "hand": "left"
    },
    {
      "midi": 47,
      "time": 9.333,
      "duration": 0.083,
      "velocity": 0.74,
      "hand": "left"
    },
    {
      "midi": 66,
      "time": 9.333,
      "duration": 0.318,
      "velocity": 0.71,
      "hand": "right"
    },
    {
      "midi": 69,
      "time": 9.333,
      "duration": 0.652,
      "velocity": 0.71,
      "hand": "right"
    },
    {
      "midi": 72,
      "time": 9.333,
      "duration": 1.167,
      "velocity": 0.62,
      "hand": "right"
    },
    {
      "midi": 74,
      "time": 9.333,
      "duration": 1.318,
      "velocity": 0.63,
      "hand": "right"
    },
    {
      "midi": 51,
      "time": 9.666,
      "duration": 0.083,
      "velocity": 0.54,
      "hand": "left"
    },
    {
      "midi": 66,
      "time": 9.666,
      "duration": 0.152,
      "velocity": 0.76,
      "hand": "right"
    },
    {
      "midi": 54,
      "time": 9.833,
      "duration": 0.152,
      "velocity": 0.64,
      "hand": "left"
    },
    {
      "midi": 60,
      "time": 9.833,
      "duration": 0.318,
      "velocity": 0.9,
      "hand": "right"
    },
    {
      "midi": 62,
      "time": 9.833,
      "duration": 0.152,
      "velocity": 0.89,
      "hand": "right"
    },
    {
      "midi": 66,
      "time": 9.833,
      "duration": 0.318,
      "velocity": 0.78,
      "hand": "right"
    },
    {
      "midi": 38,
      "time": 10,
      "duration": 0.083,
      "velocity": 0.91,
      "hand": "left"
    },
    {
      "midi": 50,
      "time": 10,
      "duration": 0.318,
      "velocity": 0.68,
      "hand": "left"
    },
    {
      "midi": 62,
      "time": 10,
      "duration": 0.151,
      "velocity": 0.28,
      "hand": "right"
    },
    {
      "midi": 69,
      "time": 10,
      "duration": 0.333,
      "velocity": 0.76,
      "hand": "right"
    },
    {
      "midi": 38,
      "time": 10.166,
      "duration": 0.333,
      "velocity": 0.9,
      "hand": "left"
    },
    {
      "midi": 47,
      "time": 10.166,
      "duration": 0.083,
      "velocity": 0.58,
      "hand": "left"
    },
    {
      "midi": 60,
      "time": 10.166,
      "duration": 0.319,
      "velocity": 0.7,
      "hand": "right"
    },
    {
      "midi": 62,
      "time": 10.166,
      "duration": 0.319,
      "velocity": 0.83,
      "hand": "right"
    },
    {
      "midi": 66,
      "time": 10.166,
      "duration": 0.152,
      "velocity": 0.69,
      "hand": "right"
    },
    {
      "midi": 51,
      "time": 10.333,
      "duration": 0.083,
      "velocity": 0.46,
      "hand": "left"
    },
    {
      "midi": 66,
      "time": 10.333,
      "duration": 0.333,
      "velocity": 0.69,
      "hand": "right"
    },
    {
      "midi": 50,
      "time": 10.5,
      "duration": 0.167,
      "velocity": 0.64,
      "hand": "left"
    },
    {
      "midi": 54,
      "time": 10.5,
      "duration": 0.167,
      "velocity": 0.67,
      "hand": "left"
    },
    {
      "midi": 60,
      "time": 10.5,
      "duration": 0.167,
      "velocity": 0.64,
      "hand": "right"
    },
    {
      "midi": 62,
      "time": 10.5,
      "duration": 0.151,
      "velocity": 0.55,
      "hand": "right"
    },
    {
      "midi": 43,
      "time": 10.666,
      "duration": 0.985,
      "velocity": 0.87,
      "hand": "left"
    },
    {
      "midi": 47,
      "time": 10.666,
      "duration": 0.083,
      "velocity": 0.77,
      "hand": "left"
    },
    {
      "midi": 71,
      "time": 10.666,
      "duration": 0.319,
      "velocity": 0.79,
      "hand": "right"
    },
    {
      "midi": 74,
      "time": 10.666,
      "duration": 0.652,
      "velocity": 0.71,
      "hand": "right"
    },
    {
      "midi": 79,
      "time": 10.666,
      "duration": 2.652,
      "velocity": 0.71,
      "hand": "right"
    },
    {
      "midi": 83,
      "time": 10.666,
      "duration": 0.083,
      "velocity": 0.63,
      "hand": "right"
    },
    {
      "midi": 51,
      "time": 11,
      "duration": 0.083,
      "velocity": 0.51,
      "hand": "left"
    },
    {
      "midi": 71,
      "time": 11,
      "duration": 0.151,
      "velocity": 0.65,
      "hand": "right"
    },
    {
      "midi": 67,
      "time": 11.166,
      "duration": 0.319,
      "velocity": 0.79,
      "hand": "right"
    },
    {
      "midi": 71,
      "time": 11.166,
      "duration": 0.485,
      "velocity": 0.83,
      "hand": "right"
    },
    {
      "midi": 38,
      "time": 11.333,
      "duration": 0.083,
      "velocity": 0.91,
      "hand": "left"
    },
    {
      "midi": 51,
      "time": 11.333,
      "duration": 0.083,
      "velocity": 0.74,
      "hand": "left"
    },
    {
      "midi": 62,
      "time": 11.333,
      "duration": 0.152,
      "velocity": 1,
      "hand": "right"
    },
    {
      "midi": 74,
      "time": 11.333,
      "duration": 1.318,
      "velocity": 0.57,
      "hand": "right"
    },
    {
      "midi": 62,
      "time": 11.5,
      "duration": 0.151,
      "velocity": 0.64,
      "hand": "right"
    },
    {
      "midi": 67,
      "time": 11.5,
      "duration": 0.318,
      "velocity": 0.67,
      "hand": "right"
    },
    {
      "midi": 43,
      "time": 11.666,
      "duration": 0.083,
      "velocity": 0.85,
      "hand": "left"
    },
    {
      "midi": 47,
      "time": 11.666,
      "duration": 0.083,
      "velocity": 0.67,
      "hand": "left"
    },
    {
      "midi": 62,
      "time": 11.666,
      "duration": 0.152,
      "velocity": 1,
      "hand": "right"
    },
    {
      "midi": 71,
      "time": 11.666,
      "duration": 0.319,
      "velocity": 0.72,
      "hand": "right"
    },
    {
      "midi": 62,
      "time": 11.833,
      "duration": 0.152,
      "velocity": 0.58,
      "hand": "right"
    },
    {
      "midi": 67,
      "time": 11.833,
      "duration": 0.152,
      "velocity": 0.59,
      "hand": "right"
    },
    {
      "midi": 43,
      "time": 12,
      "duration": 1.167,
      "velocity": 0.86,
      "hand": "left"
    },
    {
      "midi": 47,
      "time": 12,
      "duration": 0.083,
      "velocity": 0.83,
      "hand": "left"
    },
    {
      "midi": 62,
      "time": 12,
      "duration": 0.485,
      "velocity": 0.74,
      "hand": "right"
    },
    {
      "midi": 67,
      "time": 12,
      "duration": 0.318,
      "velocity": 1,
      "hand": "right"
    },
    {
      "midi": 71,
      "time": 12,
      "duration": 0.318,
      "velocity": 0.53,
      "hand": "right"
    },
    {
      "midi": 51,
      "time": 12.333,
      "duration": 0.083,
      "velocity": 0.43,
      "hand": "left"
    },
    {
      "midi": 67,
      "time": 12.333,
      "duration": 0.152,
      "velocity": 1,
      "hand": "right"
    },
    {
      "midi": 71,
      "time": 12.333,
      "duration": 0.152,
      "velocity": 0.81,
      "hand": "right"
    },
    {
      "midi": 59,
      "time": 12.5,
      "duration": 0.151,
      "velocity": 0.61,
      "hand": "left"
    },
    {
      "midi": 62,
      "time": 12.5,
      "duration": 0.318,
      "velocity": 0.84,
      "hand": "right"
    },
    {
      "midi": 67,
      "time": 12.5,
      "duration": 0.151,
      "velocity": 0.87,
      "hand": "right"
    },
    {
      "midi": 71,
      "time": 12.5,
      "duration": 0.318,
      "velocity": 0.79,
      "hand": "right"
    },
    {
      "midi": 38,
      "time": 12.666,
      "duration": 0.083,
      "velocity": 0.91,
      "hand": "left"
    },
    {
      "midi": 51,
      "time": 12.666,
      "duration": 0.083,
      "velocity": 0.72,
      "hand": "left"
    },
    {
      "midi": 67,
      "time": 12.666,
      "duration": 0.152,
      "velocity": 1,
      "hand": "right"
    },
    {
      "midi": 74,
      "time": 12.666,
      "duration": 0.652,
      "velocity": 0.57,
      "hand": "right"
    },
    {
      "midi": 59,
      "time": 12.833,
      "duration": 0.152,
      "velocity": 0.59,
      "hand": "left"
    },
    {
      "midi": 62,
      "time": 12.833,
      "duration": 0.152,
      "velocity": 0.63,
      "hand": "right"
    },
    {
      "midi": 67,
      "time": 12.833,
      "duration": 0.318,
      "velocity": 0.73,
      "hand": "right"
    },
    {
      "midi": 71,
      "time": 12.833,
      "duration": 0.152,
      "velocity": 0.58,
      "hand": "right"
    },
    {
      "midi": 51,
      "time": 13,
      "duration": 0.083,
      "velocity": 0.54,
      "hand": "left"
    },
    {
      "midi": 55,
      "time": 13,
      "duration": 0.318,
      "velocity": 0.69,
      "hand": "left"
    },
    {
      "midi": 62,
      "time": 13,
      "duration": 0.151,
      "velocity": 0.67,
      "hand": "right"
    },
    {
      "midi": 69,
      "time": 13,
      "duration": 0.333,
      "velocity": 1,
      "hand": "right"
    },
    {
      "midi": 71,
      "time": 13,
      "duration": 0.318,
      "velocity": 0.74,
      "hand": "right"
    },
    {
      "midi": 62,
      "time": 13.166,
      "duration": 0.152,
      "velocity": 0.64,
      "hand": "right"
    },
    {
      "midi": 67,
      "time": 13.166,
      "duration": 0.152,
      "velocity": 0.56,
      "hand": "right"
    },
    {
      "midi": 43,
      "time": 13.333,
      "duration": 0.985,
      "velocity": 0.9,
      "hand": "left"
    },
    {
      "midi": 47,
      "time": 13.333,
      "duration": 0.083,
      "velocity": 0.82,
      "hand": "left"
    },
    {
      "midi": 67,
      "time": 13.333,
      "duration": 0.485,
      "velocity": 1,
      "hand": "right"
    },
    {
      "midi": 71,
      "time": 13.333,
      "duration": 0.318,
      "velocity": 0.72,
      "hand": "right"
    },
    {
      "midi": 74,
      "time": 13.333,
      "duration": 0.652,
      "velocity": 0.72,
      "hand": "right"
    },
    {
      "midi": 79,
      "time": 13.333,
      "duration": 2.333,
      "velocity": 0.79,
      "hand": "right"
    },
    {
      "midi": 51,
      "time": 13.666,
      "duration": 0.083,
      "velocity": 0.44,
      "hand": "left"
    },
    {
      "midi": 71,
      "time": 13.666,
      "duration": 0.152,
      "velocity": 0.76,
      "hand": "right"
    },
    {
      "midi": 59,
      "time": 13.833,
      "duration": 0.318,
      "velocity": 0.61,
      "hand": "left"
    },
    {
      "midi": 62,
      "time": 13.833,
      "duration": 0.318,
      "velocity": 0.84,
      "hand": "right"
    },
    {
      "midi": 67,
      "time": 13.833,
      "duration": 0.652,
      "velocity": 0.87,
      "hand": "right"
    },
    {
      "midi": 71,
      "time": 13.833,
      "duration": 0.485,
      "velocity": 0.82,
      "hand": "right"
    },
    {
      "midi": 38,
      "time": 14,
      "duration": 0.083,
      "velocity": 0.91,
      "hand": "left"
    },
    {
      "midi": 51,
      "time": 14,
      "duration": 0.083,
      "velocity": 0.74,
      "hand": "left"
    },
    {
      "midi": 69,
      "time": 14,
      "duration": 0.333,
      "velocity": 1,
      "hand": "right"
    },
    {
      "midi": 74,
      "time": 14,
      "duration": 0.333,
      "velocity": 0.71,
      "hand": "right"
    },
    {
      "midi": 59,
      "time": 14.166,
      "duration": 0.152,
      "velocity": 0.61,
      "hand": "left"
    },
    {
      "midi": 62,
      "time": 14.166,
      "duration": 0.152,
      "velocity": 0.68,
      "hand": "right"
    },
    {
      "midi": 43,
      "time": 14.333,
      "duration": 0.083,
      "velocity": 0.86,
      "hand": "left"
    },
    {
      "midi": 47,
      "time": 14.333,
      "duration": 0.083,
      "velocity": 0.72,
      "hand": "left"
    },
    {
      "midi": 62,
      "time": 14.333,
      "duration": 0.152,
      "velocity": 0.65,
      "hand": "right"
    },
    {
      "midi": 71,
      "time": 14.333,
      "duration": 0.152,
      "velocity": 1,
      "hand": "right"
    },
    {
      "midi": 62,
      "time": 14.5,
      "duration": 0.151,
      "velocity": 0.65,
      "hand": "right"
    },
    {
      "midi": 67,
      "time": 14.5,
      "duration": 0.151,
      "velocity": 0.66,
      "hand": "right"
    },
    {
      "midi": 71,
      "time": 14.5,
      "duration": 0.151,
      "velocity": 0.48,
      "hand": "right"
    },
    {
      "midi": 43,
      "time": 14.666,
      "duration": 1,
      "velocity": 0.83,
      "hand": "left"
    },
    {
      "midi": 47,
      "time": 14.666,
      "duration": 0.083,
      "velocity": 0.73,
      "hand": "left"
    },
    {
      "midi": 62,
      "time": 14.666,
      "duration": 0.485,
      "velocity": 0.82,
      "hand": "right"
    },
    {
      "midi": 67,
      "time": 14.666,
      "duration": 0.485,
      "velocity": 0.87,
      "hand": "right"
    },
    {
      "midi": 71,
      "time": 14.666,
      "duration": 0.319,
      "velocity": 0.71,
      "hand": "right"
    },
    {
      "midi": 51,
      "time": 15,
      "duration": 0.083,
      "velocity": 0.52,
      "hand": "left"
    },
    {
      "midi": 69,
      "time": 15,
      "duration": 0.333,
      "velocity": 1,
      "hand": "right"
    },
    {
      "midi": 71,
      "time": 15,
      "duration": 0.151,
      "velocity": 0.81,
      "hand": "right"
    },
    {
      "midi": 62,
      "time": 15.166,
      "duration": 0.319,
      "velocity": 0.83,
      "hand": "right"
    },
    {
      "midi": 67,
      "time": 15.166,
      "duration": 0.152,
      "velocity": 0.87,
      "hand": "right"
    },
    {
      "midi": 71,
      "time": 15.166,
      "duration": 0.319,
      "velocity": 0.76,
      "hand": "right"
    },
    {
      "midi": 38,
      "time": 15.333,
      "duration": 0.083,
      "velocity": 0.91,
      "hand": "left"
    },
    {
      "midi": 51,
      "time": 15.333,
      "duration": 0.083,
      "velocity": 0.71,
      "hand": "left"
    },
    {
      "midi": 67,
      "time": 15.333,
      "duration": 0.152,
      "velocity": 1,
      "hand": "right"
    },
    {
      "midi": 74,
      "time": 15.333,
      "duration": 0.333,
      "velocity": 0.69,
      "hand": "right"
    },
    {
      "midi": 62,
      "time": 15.5,
      "duration": 0.485,
      "velocity": 0.71,
      "hand": "right"
    },
    {
      "midi": 67,
      "time": 15.5,
      "duration": 0.485,
      "velocity": 0.8,
      "hand": "right"
    },
    {
      "midi": 71,
      "time": 15.5,
      "duration": 0.151,
      "velocity": 0.59,
      "hand": "right"
    },
    {
      "midi": 51,
      "time": 15.666,
      "duration": 0.083,
      "velocity": 0.38,
      "hand": "left"
    },
    {
      "midi": 55,
      "time": 15.666,
      "duration": 0.319,
      "velocity": 0.68,
      "hand": "left"
    },
    {
      "midi": 66,
      "time": 15.666,
      "duration": 0.333,
      "velocity": 1,
      "hand": "right"
    },
    {
      "midi": 71,
      "time": 15.666,
      "duration": 0.319,
      "velocity": 0.76,
      "hand": "right"
    },
    {
      "midi": 43,
      "time": 15.833,
      "duration": 0.083,
      "velocity": 0.86,
      "hand": "left"
    },
    {
      "midi": 47,
      "time": 15.833,
      "duration": 0.083,
      "velocity": 0.39,
      "hand": "left"
    },
    {
      "midi": 43,
      "time": 16,
      "duration": 0.985,
      "velocity": 0.91,
      "hand": "left"
    },
    {
      "midi": 47,
      "time": 16,
      "duration": 0.985,
      "velocity": 0.86,
      "hand": "left"
    },
    {
      "midi": 71,
      "time": 16,
      "duration": 0.318,
      "velocity": 0.71,
      "hand": "right"
    },
    {
      "midi": 74,
      "time": 16,
      "duration": 0.651,
      "velocity": 0.71,
      "hand": "right"
    },
    {
      "midi": 79,
      "time": 16,
      "duration": 2.333,
      "velocity": 0.76,
      "hand": "right"
    },
    {
      "midi": 83,
      "time": 16,
      "duration": 4,
      "velocity": 0.63,
      "hand": "right"
    },
    {
      "midi": 51,
      "time": 16.333,
      "duration": 0.083,
      "velocity": 0.46,
      "hand": "left"
    },
    {
      "midi": 62,
      "time": 16.333,
      "duration": 0.167,
      "velocity": 1,
      "hand": "right"
    },
    {
      "midi": 71,
      "time": 16.333,
      "duration": 0.152,
      "velocity": 0.81,
      "hand": "right"
    },
    {
      "midi": 67,
      "time": 16.5,
      "duration": 0.318,
      "velocity": 0.73,
      "hand": "right"
    },
    {
      "midi": 71,
      "time": 16.5,
      "duration": 0.485,
      "velocity": 0.72,
      "hand": "right"
    },
    {
      "midi": 38,
      "time": 16.666,
      "duration": 0.083,
      "velocity": 0.91,
      "hand": "left"
    },
    {
      "midi": 51,
      "time": 16.666,
      "duration": 0.083,
      "velocity": 0.82,
      "hand": "left"
    },
    {
      "midi": 62,
      "time": 16.666,
      "duration": 0.152,
      "velocity": 1,
      "hand": "right"
    },
    {
      "midi": 74,
      "time": 16.666,
      "duration": 0.5,
      "velocity": 0.63,
      "hand": "right"
    },
    {
      "midi": 62,
      "time": 16.833,
      "duration": 0.152,
      "velocity": 0.59,
      "hand": "right"
    },
    {
      "midi": 67,
      "time": 16.833,
      "duration": 0.333,
      "velocity": 0.81,
      "hand": "right"
    },
    {
      "midi": 43,
      "time": 17,
      "duration": 0.083,
      "velocity": 0.89,
      "hand": "left"
    },
    {
      "midi": 47,
      "time": 17,
      "duration": 0.083,
      "velocity": 0.59,
      "hand": "left"
    },
    {
      "midi": 62,
      "time": 17,
      "duration": 0.151,
      "velocity": 1,
      "hand": "right"
    },
    {
      "midi": 71,
      "time": 17,
      "duration": 0.318,
      "velocity": 0.76,
      "hand": "right"
    },
    {
      "midi": 62,
      "time": 17.166,
      "duration": 0.152,
      "velocity": 0.58,
      "hand": "right"
    },
    {
      "midi": 43,
      "time": 17.333,
      "duration": 1.167,
      "velocity": 0.83,
      "hand": "left"
    },
    {
      "midi": 47,
      "time": 17.333,
      "duration": 0.083,
      "velocity": 0.8,
      "hand": "left"
    },
    {
      "midi": 62,
      "time": 17.333,
      "duration": 0.485,
      "velocity": 0.88,
      "hand": "right"
    },
    {
      "midi": 67,
      "time": 17.333,
      "duration": 0.318,
      "velocity": 1,
      "hand": "right"
    },
    {
      "midi": 71,
      "time": 17.333,
      "duration": 0.318,
      "velocity": 0.66,
      "hand": "right"
    },
    {
      "midi": 51,
      "time": 17.666,
      "duration": 0.083,
      "velocity": 0.5,
      "hand": "left"
    },
    {
      "midi": 67,
      "time": 17.666,
      "duration": 0.083,
      "velocity": 1,
      "hand": "right"
    },
    {
      "midi": 71,
      "time": 17.666,
      "duration": 0.152,
      "velocity": 0.81,
      "hand": "right"
    },
    {
      "midi": 62,
      "time": 17.833,
      "duration": 0.318,
      "velocity": 0.65,
      "hand": "right"
    },
    {
      "midi": 67,
      "time": 17.833,
      "duration": 0.152,
      "velocity": 0.91,
      "hand": "right"
    },
    {
      "midi": 71,
      "time": 17.833,
      "duration": 0.318,
      "velocity": 0.73,
      "hand": "right"
    },
    {
      "midi": 38,
      "time": 18,
      "duration": 0.083,
      "velocity": 0.91,
      "hand": "left"
    },
    {
      "midi": 51,
      "time": 18,
      "duration": 0.083,
      "velocity": 0.74,
      "hand": "left"
    },
    {
      "midi": 67,
      "time": 18,
      "duration": 0.333,
      "velocity": 1,
      "hand": "right"
    },
    {
      "midi": 74,
      "time": 18,
      "duration": 0.333,
      "velocity": 0.76,
      "hand": "right"
    },
    {
      "midi": 59,
      "time": 18.166,
      "duration": 0.167,
      "velocity": 0.66,
      "hand": "left"
    },
    {
      "midi": 62,
      "time": 18.166,
      "duration": 0.319,
      "velocity": 0.68,
      "hand": "right"
    },
    {
      "midi": 71,
      "time": 18.166,
      "duration": 0.152,
      "velocity": 0.56,
      "hand": "right"
    },
    {
      "midi": 51,
      "time": 18.333,
      "duration": 0.083,
      "velocity": 0.46,
      "hand": "left"
    },
    {
      "midi": 55,
      "time": 18.333,
      "duration": 0.318,
      "velocity": 0.63,
      "hand": "left"
    },
    {
      "midi": 69,
      "time": 18.333,
      "duration": 0.167,
      "velocity": 1,
      "hand": "right"
    },
    {
      "midi": 71,
      "time": 18.333,
      "duration": 0.152,
      "velocity": 0.76,
      "hand": "right"
    },
    {
      "midi": 59,
      "time": 18.5,
      "duration": 0.151,
      "velocity": 0.54,
      "hand": "left"
    },
    {
      "midi": 62,
      "time": 18.5,
      "duration": 0.151,
      "velocity": 0.61,
      "hand": "right"
    },
    {
      "midi": 67,
      "time": 18.5,
      "duration": 0.151,
      "velocity": 0.72,
      "hand": "right"
    },
    {
      "midi": 71,
      "time": 18.5,
      "duration": 0.151,
      "velocity": 0.61,
      "hand": "right"
    },
    {
      "midi": 43,
      "time": 18.666,
      "duration": 0.985,
      "velocity": 0.91,
      "hand": "left"
    },
    {
      "midi": 47,
      "time": 18.666,
      "duration": 0.083,
      "velocity": 0.8,
      "hand": "left"
    },
    {
      "midi": 67,
      "time": 18.666,
      "duration": 0.485,
      "velocity": 1,
      "hand": "right"
    },
    {
      "midi": 71,
      "time": 18.666,
      "duration": 0.319,
      "velocity": 0.73,
      "hand": "right"
    },
    {
      "midi": 74,
      "time": 18.666,
      "duration": 0.652,
      "velocity": 0.76,
      "hand": "right"
    },
    {
      "midi": 79,
      "time": 18.666,
      "duration": 2.167,
      "velocity": 0.76,
      "hand": "right"
    },
    {
      "midi": 51,
      "time": 19,
      "duration": 0.083,
      "velocity": 0.4,
      "hand": "left"
    },
    {
      "midi": 71,
      "time": 19,
      "duration": 0.151,
      "velocity": 0.74,
      "hand": "right"
    },
    {
      "midi": 59,
      "time": 19.166,
      "duration": 0.485,
      "velocity": 0.54,
      "hand": "left"
    },
    {
      "midi": 62,
      "time": 19.166,
      "duration": 0.152,
      "velocity": 0.71,
      "hand": "right"
    },
    {
      "midi": 67,
      "time": 19.166,
      "duration": 0.652,
      "velocity": 0.9,
      "hand": "right"
    },
    {
      "midi": 71,
      "time": 19.166,
      "duration": 0.319,
      "velocity": 0.66,
      "hand": "right"
    },
    {
      "midi": 38,
      "time": 19.333,
      "duration": 0.083,
      "velocity": 0.91,
      "hand": "left"
    },
    {
      "midi": 51,
      "time": 19.333,
      "duration": 0.083,
      "velocity": 0.8,
      "hand": "left"
    },
    {
      "midi": 62,
      "time": 19.333,
      "duration": 0.318,
      "velocity": 0.7,
      "hand": "right"
    },
    {
      "midi": 69,
      "time": 19.333,
      "duration": 0.333,
      "velocity": 1,
      "hand": "right"
    },
    {
      "midi": 74,
      "time": 19.333,
      "duration": 0.333,
      "velocity": 0.76,
      "hand": "right"
    },
    {
      "midi": 71,
      "time": 19.5,
      "duration": 0.151,
      "velocity": 0.76,
      "hand": "right"
    },
    {
      "midi": 43,
      "time": 19.666,
      "duration": 0.083,
      "velocity": 0.87,
      "hand": "left"
    },
    {
      "midi": 47,
      "time": 19.666,
      "duration": 0.083,
      "velocity": 0.78,
      "hand": "left"
    },
    {
      "midi": 62,
      "time": 19.666,
      "duration": 0.152,
      "velocity": 0.64,
      "hand": "right"
    },
    {
      "midi": 71,
      "time": 19.666,
      "duration": 0.152,
      "velocity": 1,
      "hand": "right"
    },
    {
      "midi": 59,
      "time": 19.833,
      "duration": 0.167,
      "velocity": 0.63,
      "hand": "left"
    },
    {
      "midi": 62,
      "time": 19.833,
      "duration": 0.152,
      "velocity": 0.73,
      "hand": "right"
    },
    {
      "midi": 67,
      "time": 19.833,
      "duration": 0.167,
      "velocity": 0.7,
      "hand": "right"
    },
    {
      "midi": 71,
      "time": 19.833,
      "duration": 0.167,
      "velocity": 0.56,
      "hand": "right"
    },
    {
      "midi": 38,
      "time": 20,
      "duration": 0.651,
      "velocity": 0.85,
      "hand": "left"
    },
    {
      "midi": 47,
      "time": 20,
      "duration": 0.083,
      "velocity": 0.74,
      "hand": "left"
    },
    {
      "midi": 62,
      "time": 20,
      "duration": 0.485,
      "velocity": 0.85,
      "hand": "right"
    },
    {
      "midi": 66,
      "time": 20,
      "duration": 0.318,
      "velocity": 0.71,
      "hand": "right"
    },
    {
      "midi": 69,
      "time": 20,
      "duration": 0.651,
      "velocity": 0.71,
      "hand": "right"
    },
    {
      "midi": 74,
      "time": 20,
      "duration": 1.333,
      "velocity": 0.63,
      "hand": "right"
    },
    {
      "midi": 51,
      "time": 20.333,
      "duration": 0.083,
      "velocity": 0.54,
      "hand": "left"
    },
    {
      "midi": 66,
      "time": 20.333,
      "duration": 0.152,
      "velocity": 0.76,
      "hand": "right"
    },
    {
      "midi": 54,
      "time": 20.5,
      "duration": 0.151,
      "velocity": 0.64,
      "hand": "left"
    },
    {
      "midi": 60,
      "time": 20.5,
      "duration": 0.318,
      "velocity": 0.9,
      "hand": "right"
    },
    {
      "midi": 62,
      "time": 20.5,
      "duration": 0.318,
      "velocity": 0.89,
      "hand": "right"
    },
    {
      "midi": 66,
      "time": 20.5,
      "duration": 0.318,
      "velocity": 0.78,
      "hand": "right"
    },
    {
      "midi": 38,
      "time": 20.666,
      "duration": 0.083,
      "velocity": 0.91,
      "hand": "left"
    },
    {
      "midi": 50,
      "time": 20.666,
      "duration": 0.319,
      "velocity": 0.68,
      "hand": "left"
    },
    {
      "midi": 69,
      "time": 20.666,
      "duration": 0.333,
      "velocity": 0.63,
      "hand": "right"
    },
    {
      "midi": 38,
      "time": 20.833,
      "duration": 0.333,
      "velocity": 0.9,
      "hand": "left"
    },
    {
      "midi": 47,
      "time": 20.833,
      "duration": 0.083,
      "velocity": 0.58,
      "hand": "left"
    },
    {
      "midi": 60,
      "time": 20.833,
      "duration": 0.318,
      "velocity": 0.7,
      "hand": "right"
    },
    {
      "midi": 62,
      "time": 20.833,
      "duration": 0.318,
      "velocity": 0.83,
      "hand": "right"
    },
    {
      "midi": 66,
      "time": 20.833,
      "duration": 0.152,
      "velocity": 0.69,
      "hand": "right"
    },
    {
      "midi": 51,
      "time": 21,
      "duration": 0.083,
      "velocity": 0.46,
      "hand": "left"
    },
    {
      "midi": 66,
      "time": 21,
      "duration": 0.318,
      "velocity": 0.68,
      "hand": "right"
    },
    {
      "midi": 50,
      "time": 21.166,
      "duration": 0.152,
      "velocity": 0.64,
      "hand": "left"
    },
    {
      "midi": 54,
      "time": 21.166,
      "duration": 0.152,
      "velocity": 0.67,
      "hand": "left"
    },
    {
      "midi": 60,
      "time": 21.166,
      "duration": 0.152,
      "velocity": 0.64,
      "hand": "right"
    },
    {
      "midi": 62,
      "time": 21.166,
      "duration": 0.152,
      "velocity": 0.55,
      "hand": "right"
    },
    {
      "midi": 38,
      "time": 21.333,
      "duration": 0.652,
      "velocity": 0.87,
      "hand": "left"
    },
    {
      "midi": 47,
      "time": 21.333,
      "duration": 0.083,
      "velocity": 0.77,
      "hand": "left"
    },
    {
      "midi": 66,
      "time": 21.333,
      "duration": 0.318,
      "velocity": 0.72,
      "hand": "right"
    },
    {
      "midi": 69,
      "time": 21.333,
      "duration": 0.318,
      "velocity": 0.71,
      "hand": "right"
    },
    {
      "midi": 72,
      "time": 21.333,
      "duration": 0.652,
      "velocity": 0.77,
      "hand": "right"
    },
    {
      "midi": 78,
      "time": 21.333,
      "duration": 1.333,
      "velocity": 0.63,
      "hand": "right"
    },
    {
      "midi": 51,
      "time": 21.666,
      "duration": 0.083,
      "velocity": 0.51,
      "hand": "left"
    },
    {
      "midi": 66,
      "time": 21.666,
      "duration": 0.152,
      "velocity": 0.68,
      "hand": "right"
    },
    {
      "midi": 69,
      "time": 21.666,
      "duration": 0.167,
      "velocity": 1,
      "hand": "right"
    },
    {
      "midi": 62,
      "time": 21.833,
      "duration": 0.318,
      "velocity": 0.79,
      "hand": "right"
    },
    {
      "midi": 66,
      "time": 21.833,
      "duration": 0.485,
      "velocity": 0.83,
      "hand": "right"
    },
    {
      "midi": 38,
      "time": 22,
      "duration": 0.083,
      "velocity": 0.91,
      "hand": "left"
    },
    {
      "midi": 51,
      "time": 22,
      "duration": 0.083,
      "velocity": 0.74,
      "hand": "left"
    },
    {
      "midi": 64,
      "time": 22,
      "duration": 0.167,
      "velocity": 1,
      "hand": "right"
    },
    {
      "midi": 72,
      "time": 22,
      "duration": 0.5,
      "velocity": 0.5,
      "hand": "right"
    },
    {
      "midi": 60,
      "time": 22.166,
      "duration": 0.152,
      "velocity": 0.64,
      "hand": "right"
    },
    {
      "midi": 62,
      "time": 22.166,
      "duration": 0.319,
      "velocity": 0.67,
      "hand": "right"
    },
    {
      "midi": 38,
      "time": 22.333,
      "duration": 0.083,
      "velocity": 0.85,
      "hand": "left"
    },
    {
      "midi": 47,
      "time": 22.333,
      "duration": 0.083,
      "velocity": 0.67,
      "hand": "left"
    },
    {
      "midi": 60,
      "time": 22.333,
      "duration": 0.152,
      "velocity": 0.54,
      "hand": "right"
    },
    {
      "midi": 66,
      "time": 22.333,
      "duration": 0.333,
      "velocity": 1,
      "hand": "right"
    },
    {
      "midi": 60,
      "time": 22.5,
      "duration": 0.167,
      "velocity": 0.58,
      "hand": "right"
    },
    {
      "midi": 62,
      "time": 22.5,
      "duration": 0.151,
      "velocity": 0.59,
      "hand": "right"
    },
    {
      "midi": 43,
      "time": 22.666,
      "duration": 1.319,
      "velocity": 0.86,
      "hand": "left"
    },
    {
      "midi": 47,
      "time": 22.666,
      "duration": 0.083,
      "velocity": 0.83,
      "hand": "left"
    },
    {
      "midi": 67,
      "time": 22.666,
      "duration": 0.485,
      "velocity": 1,
      "hand": "right"
    },
    {
      "midi": 71,
      "time": 22.666,
      "duration": 0.319,
      "velocity": 0.71,
      "hand": "right"
    },
    {
      "midi": 74,
      "time": 22.666,
      "duration": 0.652,
      "velocity": 0.76,
      "hand": "right"
    },
    {
      "midi": 79,
      "time": 22.666,
      "duration": 2.652,
      "velocity": 0.72,
      "hand": "right"
    },
    {
      "midi": 51,
      "time": 23,
      "duration": 0.083,
      "velocity": 0.43,
      "hand": "left"
    },
    {
      "midi": 71,
      "time": 23,
      "duration": 0.151,
      "velocity": 0.76,
      "hand": "right"
    },
    {
      "midi": 59,
      "time": 23.166,
      "duration": 0.152,
      "velocity": 0.61,
      "hand": "left"
    },
    {
      "midi": 62,
      "time": 23.166,
      "duration": 0.152,
      "velocity": 0.84,
      "hand": "right"
    },
    {
      "midi": 67,
      "time": 23.166,
      "duration": 0.319,
      "velocity": 0.87,
      "hand": "right"
    },
    {
      "midi": 71,
      "time": 23.166,
      "duration": 0.319,
      "velocity": 0.79,
      "hand": "right"
    },
    {
      "midi": 38,
      "time": 23.333,
      "duration": 0.083,
      "velocity": 0.91,
      "hand": "left"
    },
    {
      "midi": 51,
      "time": 23.333,
      "duration": 0.083,
      "velocity": 0.72,
      "hand": "left"
    },
    {
      "midi": 62,
      "time": 23.333,
      "duration": 0.152,
      "velocity": 1,
      "hand": "right"
    },
    {
      "midi": 74,
      "time": 23.333,
      "duration": 0.333,
      "velocity": 0.76,
      "hand": "right"
    },
    {
      "midi": 59,
      "time": 23.5,
      "duration": 0.151,
      "velocity": 0.59,
      "hand": "left"
    },
    {
      "midi": 62,
      "time": 23.5,
      "duration": 0.151,
      "velocity": 0.63,
      "hand": "right"
    },
    {
      "midi": 67,
      "time": 23.5,
      "duration": 0.318,
      "velocity": 0.73,
      "hand": "right"
    },
    {
      "midi": 71,
      "time": 23.5,
      "duration": 0.151,
      "velocity": 0.58,
      "hand": "right"
    },
    {
      "midi": 51,
      "time": 23.666,
      "duration": 0.083,
      "velocity": 0.54,
      "hand": "left"
    },
    {
      "midi": 55,
      "time": 23.666,
      "duration": 0.319,
      "velocity": 0.69,
      "hand": "left"
    },
    {
      "midi": 62,
      "time": 23.666,
      "duration": 0.152,
      "velocity": 1,
      "hand": "right"
    },
    {
      "midi": 71,
      "time": 23.666,
      "duration": 0.319,
      "velocity": 0.72,
      "hand": "right"
    },
    {
      "midi": 62,
      "time": 23.833,
      "duration": 0.152,
      "velocity": 0.64,
      "hand": "right"
    },
    {
      "midi": 67,
      "time": 23.833,
      "duration": 0.152,
      "velocity": 0.56,
      "hand": "right"
    },
    {
      "midi": 43,
      "time": 24,
      "duration": 0.667,
      "velocity": 0.9,
      "hand": "left"
    },
    {
      "midi": 47,
      "time": 24,
      "duration": 0.083,
      "velocity": 0.82,
      "hand": "left"
    },
    {
      "midi": 62,
      "time": 24,
      "duration": 0.485,
      "velocity": 0.87,
      "hand": "right"
    },
    {
      "midi": 67,
      "time": 24,
      "duration": 0.318,
      "velocity": 1,
      "hand": "right"
    },
    {
      "midi": 71,
      "time": 24,
      "duration": 0.318,
      "velocity": 0.72,
      "hand": "right"
    },
    {
      "midi": 51,
      "time": 24.333,
      "duration": 0.083,
      "velocity": 0.44,
      "hand": "left"
    },
    {
      "midi": 67,
      "time": 24.333,
      "duration": 0.152,
      "velocity": 1,
      "hand": "right"
    },
    {
      "midi": 71,
      "time": 24.333,
      "duration": 0.152,
      "velocity": 0.83,
      "hand": "right"
    },
    {
      "midi": 59,
      "time": 24.5,
      "duration": 0.318,
      "velocity": 0.61,
      "hand": "left"
    },
    {
      "midi": 62,
      "time": 24.5,
      "duration": 0.318,
      "velocity": 0.84,
      "hand": "right"
    },
    {
      "midi": 67,
      "time": 24.5,
      "duration": 0.151,
      "velocity": 0.87,
      "hand": "right"
    },
    {
      "midi": 71,
      "time": 24.5,
      "duration": 0.485,
      "velocity": 0.82,
      "hand": "right"
    },
    {
      "midi": 38,
      "time": 24.666,
      "duration": 0.083,
      "velocity": 0.91,
      "hand": "left"
    },
    {
      "midi": 51,
      "time": 24.666,
      "duration": 0.083,
      "velocity": 0.74,
      "hand": "left"
    },
    {
      "midi": 67,
      "time": 24.666,
      "duration": 0.167,
      "velocity": 1,
      "hand": "right"
    },
    {
      "midi": 74,
      "time": 24.666,
      "duration": 0.167,
      "velocity": 0.86,
      "hand": "right"
    },
    {
      "midi": 59,
      "time": 24.833,
      "duration": 0.152,
      "velocity": 0.61,
      "hand": "left"
    },
    {
      "midi": 62,
      "time": 24.833,
      "duration": 0.152,
      "velocity": 0.68,
      "hand": "right"
    },
    {
      "midi": 43,
      "time": 25,
      "duration": 0.083,
      "velocity": 0.86,
      "hand": "left"
    },
    {
      "midi": 47,
      "time": 25,
      "duration": 0.083,
      "velocity": 0.72,
      "hand": "left"
    },
    {
      "midi": 62,
      "time": 25,
      "duration": 0.151,
      "velocity": 0.65,
      "hand": "right"
    },
    {
      "midi": 69,
      "time": 25,
      "duration": 0.167,
      "velocity": 1,
      "hand": "right"
    },
    {
      "midi": 71,
      "time": 25,
      "duration": 0.151,
      "velocity": 0.81,
      "hand": "right"
    },
    {
      "midi": 62,
      "time": 25.166,
      "duration": 0.152,
      "velocity": 0.65,
      "hand": "right"
    },
    {
      "midi": 67,
      "time": 25.166,
      "duration": 0.152,
      "velocity": 0.66,
      "hand": "right"
    },
    {
      "midi": 71,
      "time": 25.166,
      "duration": 0.152,
      "velocity": 0.48,
      "hand": "right"
    },
    {
      "midi": 43,
      "time": 25.333,
      "duration": 1.152,
      "velocity": 0.83,
      "hand": "left"
    },
    {
      "midi": 47,
      "time": 25.333,
      "duration": 0.083,
      "velocity": 0.73,
      "hand": "left"
    },
    {
      "midi": 67,
      "time": 25.333,
      "duration": 0.485,
      "velocity": 1,
      "hand": "right"
    },
    {
      "midi": 71,
      "time": 25.333,
      "duration": 0.318,
      "velocity": 0.71,
      "hand": "right"
    },
    {
      "midi": 74,
      "time": 25.333,
      "duration": 0.652,
      "velocity": 0.51,
      "hand": "right"
    },
    {
      "midi": 79,
      "time": 25.333,
      "duration": 2.333,
      "velocity": 0.72,
      "hand": "right"
    },
    {
      "midi": 51,
      "time": 25.666,
      "duration": 0.083,
      "velocity": 0.52,
      "hand": "left"
    },
    {
      "midi": 71,
      "time": 25.666,
      "duration": 0.152,
      "velocity": 0.83,
      "hand": "right"
    },
    {
      "midi": 62,
      "time": 25.833,
      "duration": 0.318,
      "velocity": 0.83,
      "hand": "right"
    },
    {
      "midi": 67,
      "time": 25.833,
      "duration": 0.318,
      "velocity": 0.87,
      "hand": "right"
    },
    {
      "midi": 71,
      "time": 25.833,
      "duration": 0.318,
      "velocity": 0.76,
      "hand": "right"
    },
    {
      "midi": 38,
      "time": 26,
      "duration": 0.083,
      "velocity": 0.91,
      "hand": "left"
    },
    {
      "midi": 51,
      "time": 26,
      "duration": 0.083,
      "velocity": 0.71,
      "hand": "left"
    },
    {
      "midi": 69,
      "time": 26,
      "duration": 0.333,
      "velocity": 1,
      "hand": "right"
    },
    {
      "midi": 74,
      "time": 26,
      "duration": 0.333,
      "velocity": 0.74,
      "hand": "right"
    },
    {
      "midi": 62,
      "time": 26.166,
      "duration": 0.485,
      "velocity": 0.71,
      "hand": "right"
    },
    {
      "midi": 67,
      "time": 26.166,
      "duration": 0.485,
      "velocity": 0.8,
      "hand": "right"
    },
    {
      "midi": 71,
      "time": 26.166,
      "duration": 0.152,
      "velocity": 0.59,
      "hand": "right"
    },
    {
      "midi": 51,
      "time": 26.333,
      "duration": 0.083,
      "velocity": 0.38,
      "hand": "left"
    },
    {
      "midi": 55,
      "time": 26.333,
      "duration": 0.318,
      "velocity": 0.68,
      "hand": "left"
    },
    {
      "midi": 71,
      "time": 26.333,
      "duration": 0.318,
      "velocity": 1,
      "hand": "right"
    },
    {
      "midi": 43,
      "time": 26.5,
      "duration": 0.083,
      "velocity": 0.86,
      "hand": "left"
    },
    {
      "midi": 47,
      "time": 26.5,
      "duration": 0.083,
      "velocity": 0.39,
      "hand": "left"
    },
    {
      "midi": 43,
      "time": 26.666,
      "duration": 0.667,
      "velocity": 0.91,
      "hand": "left"
    },
    {
      "midi": 47,
      "time": 26.666,
      "duration": 0.083,
      "velocity": 0.86,
      "hand": "left"
    },
    {
      "midi": 67,
      "time": 26.666,
      "duration": 0.485,
      "velocity": 0.85,
      "hand": "right"
    },
    {
      "midi": 71,
      "time": 26.666,
      "duration": 0.319,
      "velocity": 0.71,
      "hand": "right"
    },
    {
      "midi": 74,
      "time": 26.666,
      "duration": 0.652,
      "velocity": 0.71,
      "hand": "right"
    },
    {
      "midi": 83,
      "time": 26.666,
      "duration": 5.333,
      "velocity": 0.63,
      "hand": "right"
    },
    {
      "midi": 51,
      "time": 27,
      "duration": 0.083,
      "velocity": 0.46,
      "hand": "left"
    },
    {
      "midi": 69,
      "time": 27,
      "duration": 0.333,
      "velocity": 1,
      "hand": "right"
    },
    {
      "midi": 71,
      "time": 27,
      "duration": 0.151,
      "velocity": 0.81,
      "hand": "right"
    },
    {
      "midi": 67,
      "time": 27.166,
      "duration": 0.152,
      "velocity": 0.73,
      "hand": "right"
    },
    {
      "midi": 71,
      "time": 27.166,
      "duration": 0.485,
      "velocity": 0.72,
      "hand": "right"
    },
    {
      "midi": 38,
      "time": 27.333,
      "duration": 0.083,
      "velocity": 0.91,
      "hand": "left"
    },
    {
      "midi": 51,
      "time": 27.333,
      "duration": 0.083,
      "velocity": 0.82,
      "hand": "left"
    },
    {
      "midi": 67,
      "time": 27.333,
      "duration": 0.152,
      "velocity": 1,
      "hand": "right"
    },
    {
      "midi": 74,
      "time": 27.333,
      "duration": 0.333,
      "velocity": 0.74,
      "hand": "right"
    },
    {
      "midi": 62,
      "time": 27.5,
      "duration": 0.318,
      "velocity": 0.59,
      "hand": "right"
    },
    {
      "midi": 67,
      "time": 27.5,
      "duration": 0.333,
      "velocity": 0.81,
      "hand": "right"
    },
    {
      "midi": 43,
      "time": 27.666,
      "duration": 0.083,
      "velocity": 0.89,
      "hand": "left"
    },
    {
      "midi": 47,
      "time": 27.666,
      "duration": 0.083,
      "velocity": 0.59,
      "hand": "left"
    },
    {
      "midi": 66,
      "time": 27.666,
      "duration": 0.333,
      "velocity": 1,
      "hand": "right"
    },
    {
      "midi": 71,
      "time": 27.666,
      "duration": 0.319,
      "velocity": 0.76,
      "hand": "right"
    },
    {
      "midi": 62,
      "time": 27.833,
      "duration": 0.152,
      "velocity": 0.58,
      "hand": "right"
    },
    {
      "midi": 43,
      "time": 28,
      "duration": 1.318,
      "velocity": 0.83,
      "hand": "left"
    },
    {
      "midi": 47,
      "time": 28,
      "duration": 0.083,
      "velocity": 0.8,
      "hand": "left"
    },
    {
      "midi": 67,
      "time": 28,
      "duration": 0.485,
      "velocity": 0.82,
      "hand": "right"
    },
    {
      "midi": 71,
      "time": 28,
      "duration": 0.318,
      "velocity": 0.68,
      "hand": "right"
    },
    {
      "midi": 74,
      "time": 28,
      "duration": 0.651,
      "velocity": 0.68,
      "hand": "right"
    },
    {
      "midi": 79,
      "time": 28,
      "duration": 2.333,
      "velocity": 0.72,
      "hand": "right"
    },
    {
      "midi": 51,
      "time": 28.333,
      "duration": 0.083,
      "velocity": 0.5,
      "hand": "left"
    },
    {
      "midi": 62,
      "time": 28.333,
      "duration": 0.152,
      "velocity": 1,
      "hand": "right"
    },
    {
      "midi": 71,
      "time": 28.333,
      "duration": 0.152,
      "velocity": 0.69,
      "hand": "right"
    },
    {
      "midi": 62,
      "time": 28.5,
      "duration": 0.151,
      "velocity": 0.65,
      "hand": "right"
    },
    {
      "midi": 67,
      "time": 28.5,
      "duration": 0.651,
      "velocity": 0.91,
      "hand": "right"
    },
    {
      "midi": 71,
      "time": 28.5,
      "duration": 0.318,
      "velocity": 0.73,
      "hand": "right"
    },
    {
      "midi": 38,
      "time": 28.666,
      "duration": 0.083,
      "velocity": 0.91,
      "hand": "left"
    },
    {
      "midi": 51,
      "time": 28.666,
      "duration": 0.083,
      "velocity": 0.74,
      "hand": "left"
    },
    {
      "midi": 62,
      "time": 28.666,
      "duration": 0.152,
      "velocity": 1,
      "hand": "right"
    },
    {
      "midi": 74,
      "time": 28.666,
      "duration": 0.167,
      "velocity": 0.86,
      "hand": "right"
    },
    {
      "midi": 59,
      "time": 28.833,
      "duration": 0.167,
      "velocity": 0.66,
      "hand": "left"
    },
    {
      "midi": 62,
      "time": 28.833,
      "duration": 0.152,
      "velocity": 0.68,
      "hand": "right"
    },
    {
      "midi": 71,
      "time": 28.833,
      "duration": 0.152,
      "velocity": 0.56,
      "hand": "right"
    },
    {
      "midi": 51,
      "time": 29,
      "duration": 0.083,
      "velocity": 0.46,
      "hand": "left"
    },
    {
      "midi": 55,
      "time": 29,
      "duration": 0.318,
      "velocity": 0.63,
      "hand": "left"
    },
    {
      "midi": 62,
      "time": 29,
      "duration": 0.151,
      "velocity": 1,
      "hand": "right"
    },
    {
      "midi": 71,
      "time": 29,
      "duration": 0.151,
      "velocity": 0.74,
      "hand": "right"
    },
    {
      "midi": 59,
      "time": 29.166,
      "duration": 0.152,
      "velocity": 0.54,
      "hand": "left"
    },
    {
      "midi": 62,
      "time": 29.166,
      "duration": 0.152,
      "velocity": 0.61,
      "hand": "right"
    },
    {
      "midi": 67,
      "time": 29.166,
      "duration": 0.152,
      "velocity": 0.72,
      "hand": "right"
    },
    {
      "midi": 71,
      "time": 29.166,
      "duration": 0.152,
      "velocity": 0.61,
      "hand": "right"
    },
    {
      "midi": 43,
      "time": 29.333,
      "duration": 0.667,
      "velocity": 0.91,
      "hand": "left"
    },
    {
      "midi": 47,
      "time": 29.333,
      "duration": 0.083,
      "velocity": 0.8,
      "hand": "left"
    },
    {
      "midi": 62,
      "time": 29.333,
      "duration": 0.485,
      "velocity": 0.87,
      "hand": "right"
    },
    {
      "midi": 67,
      "time": 29.333,
      "duration": 0.318,
      "velocity": 1,
      "hand": "right"
    },
    {
      "midi": 71,
      "time": 29.333,
      "duration": 0.318,
      "velocity": 0.73,
      "hand": "right"
    },
    {
      "midi": 51,
      "time": 29.666,
      "duration": 0.083,
      "velocity": 0.4,
      "hand": "left"
    },
    {
      "midi": 67,
      "time": 29.666,
      "duration": 0.152,
      "velocity": 1,
      "hand": "right"
    },
    {
      "midi": 71,
      "time": 29.666,
      "duration": 0.152,
      "velocity": 0.81,
      "hand": "right"
    },
    {
      "midi": 59,
      "time": 29.833,
      "duration": 0.485,
      "velocity": 0.54,
      "hand": "left"
    },
    {
      "midi": 62,
      "time": 29.833,
      "duration": 0.152,
      "velocity": 0.71,
      "hand": "right"
    },
    {
      "midi": 67,
      "time": 29.833,
      "duration": 0.152,
      "velocity": 0.9,
      "hand": "right"
    },
    {
      "midi": 71,
      "time": 29.833,
      "duration": 0.318,
      "velocity": 0.66,
      "hand": "right"
    },
    {
      "midi": 38,
      "time": 30,
      "duration": 0.083,
      "velocity": 0.91,
      "hand": "left"
    },
    {
      "midi": 51,
      "time": 30,
      "duration": 0.083,
      "velocity": 0.8,
      "hand": "left"
    },
    {
      "midi": 62,
      "time": 30,
      "duration": 0.318,
      "velocity": 0.7,
      "hand": "right"
    },
    {
      "midi": 67,
      "time": 30,
      "duration": 0.167,
      "velocity": 1,
      "hand": "right"
    },
    {
      "midi": 74,
      "time": 30,
      "duration": 0.167,
      "velocity": 0.79,
      "hand": "right"
    },
    {
      "midi": 71,
      "time": 30.166,
      "duration": 0.152,
      "velocity": 0.53,
      "hand": "right"
    },
    {
      "midi": 43,
      "time": 30.333,
      "duration": 0.083,
      "velocity": 0.87,
      "hand": "left"
    },
    {
      "midi": 47,
      "time": 30.333,
      "duration": 0.083,
      "velocity": 0.78,
      "hand": "left"
    },
    {
      "midi": 62,
      "time": 30.333,
      "duration": 0.152,
      "velocity": 0.64,
      "hand": "right"
    },
    {
      "midi": 69,
      "time": 30.333,
      "duration": 0.167,
      "velocity": 1,
      "hand": "right"
    },
    {
      "midi": 71,
      "time": 30.333,
      "duration": 0.152,
      "velocity": 0.76,
      "hand": "right"
    },
    {
      "midi": 59,
      "time": 30.5,
      "duration": 0.151,
      "velocity": 0.63,
      "hand": "left"
    },
    {
      "midi": 62,
      "time": 30.5,
      "duration": 0.151,
      "velocity": 0.73,
      "hand": "right"
    },
    {
      "midi": 67,
      "time": 30.5,
      "duration": 0.151,
      "velocity": 0.7,
      "hand": "right"
    },
    {
      "midi": 71,
      "time": 30.5,
      "duration": 0.151,
      "velocity": 0.56,
      "hand": "right"
    },
    {
      "midi": 43,
      "time": 30.666,
      "duration": 0.819,
      "velocity": 0.85,
      "hand": "left"
    },
    {
      "midi": 47,
      "time": 30.666,
      "duration": 0.083,
      "velocity": 0.74,
      "hand": "left"
    },
    {
      "midi": 67,
      "time": 30.666,
      "duration": 0.485,
      "velocity": 1,
      "hand": "right"
    },
    {
      "midi": 71,
      "time": 30.666,
      "duration": 0.319,
      "velocity": 0.65,
      "hand": "right"
    },
    {
      "midi": 74,
      "time": 30.666,
      "duration": 0.652,
      "velocity": 0.57,
      "hand": "right"
    },
    {
      "midi": 79,
      "time": 30.666,
      "duration": 1.833,
      "velocity": 0.76,
      "hand": "right"
    },
    {
      "midi": 51,
      "time": 31,
      "duration": 0.083,
      "velocity": 0.54,
      "hand": "left"
    },
    {
      "midi": 71,
      "time": 31,
      "duration": 0.151,
      "velocity": 0.72,
      "hand": "right"
    },
    {
      "midi": 59,
      "time": 31.166,
      "duration": 0.152,
      "velocity": 0.64,
      "hand": "left"
    },
    {
      "midi": 62,
      "time": 31.166,
      "duration": 0.319,
      "velocity": 0.9,
      "hand": "right"
    },
    {
      "midi": 67,
      "time": 31.166,
      "duration": 0.319,
      "velocity": 0.89,
      "hand": "right"
    },
    {
      "midi": 71,
      "time": 31.166,
      "duration": 0.319,
      "velocity": 0.78,
      "hand": "right"
    },
    {
      "midi": 38,
      "time": 31.333,
      "duration": 0.083,
      "velocity": 0.91,
      "hand": "left"
    },
    {
      "midi": 51,
      "time": 31.333,
      "duration": 0.083,
      "velocity": 0.78,
      "hand": "left"
    },
    {
      "midi": 69,
      "time": 31.333,
      "duration": 0.333,
      "velocity": 1,
      "hand": "right"
    },
    {
      "midi": 74,
      "time": 31.333,
      "duration": 0.333,
      "velocity": 0.72,
      "hand": "right"
    },
    {
      "midi": 43,
      "time": 31.5,
      "duration": 0.333,
      "velocity": 0.9,
      "hand": "left"
    },
    {
      "midi": 47,
      "time": 31.5,
      "duration": 0.083,
      "velocity": 0.58,
      "hand": "left"
    },
    {
      "midi": 62,
      "time": 31.5,
      "duration": 0.318,
      "velocity": 0.7,
      "hand": "right"
    },
    {
      "midi": 67,
      "time": 31.5,
      "duration": 0.318,
      "velocity": 0.83,
      "hand": "right"
    },
    {
      "midi": 71,
      "time": 31.5,
      "duration": 0.151,
      "velocity": 0.69,
      "hand": "right"
    },
    {
      "midi": 51,
      "time": 31.666,
      "duration": 0.083,
      "velocity": 0.46,
      "hand": "left"
    },
    {
      "midi": 55,
      "time": 31.666,
      "duration": 0.152,
      "velocity": 0.65,
      "hand": "left"
    },
    {
      "midi": 71,
      "time": 31.666,
      "duration": 2,
      "velocity": 1,
      "hand": "right"
    },
    {
      "midi": 55,
      "time": 31.833,
      "duration": 0.167,
      "velocity": 0.64,
      "hand": "left"
    },
    {
      "midi": 59,
      "time": 31.833,
      "duration": 0.167,
      "velocity": 0.67,
      "hand": "left"
    },
    {
      "midi": 62,
      "time": 31.833,
      "duration": 0.152,
      "velocity": 0.64,
      "hand": "right"
    },
    {
      "midi": 67,
      "time": 31.833,
      "duration": 0.167,
      "velocity": 0.55,
      "hand": "right"
    },
    {
      "midi": 38,
      "time": 32,
      "duration": 0.651,
      "velocity": 0.87,
      "hand": "left"
    },
    {
      "midi": 47,
      "time": 32,
      "duration": 0.083,
      "velocity": 0.77,
      "hand": "left"
    },
    {
      "midi": 69,
      "time": 32,
      "duration": 1.318,
      "velocity": 0.71,
      "hand": "right"
    },
    {
      "midi": 72,
      "time": 32,
      "duration": 0.651,
      "velocity": 0.71,
      "hand": "right"
    },
    {
      "midi": 74,
      "time": 32,
      "duration": 0.083,
      "velocity": 0.63,
      "hand": "right"
    },
    {
      "midi": 78,
      "time": 32,
      "duration": 2.667,
      "velocity": 0.63,
      "hand": "right"
    },
    {
      "midi": 51,
      "time": 32.333,
      "duration": 0.083,
      "velocity": 0.51,
      "hand": "left"
    },
    {
      "midi": 66,
      "time": 32.333,
      "duration": 0.152,
      "velocity": 0.72,
      "hand": "right"
    },
    {
      "midi": 62,
      "time": 32.5,
      "duration": 0.318,
      "velocity": 0.79,
      "hand": "right"
    },
    {
      "midi": 66,
      "time": 32.5,
      "duration": 0.485,
      "velocity": 0.83,
      "hand": "right"
    },
    {
      "midi": 38,
      "time": 32.666,
      "duration": 0.083,
      "velocity": 0.91,
      "hand": "left"
    },
    {
      "midi": 51,
      "time": 32.666,
      "duration": 0.083,
      "velocity": 0.74,
      "hand": "left"
    },
    {
      "midi": 72,
      "time": 32.666,
      "duration": 0.333,
      "velocity": 0.55,
      "hand": "right"
    },
    {
      "midi": 60,
      "time": 32.833,
      "duration": 0.152,
      "velocity": 0.64,
      "hand": "right"
    },
    {
      "midi": 62,
      "time": 32.833,
      "duration": 0.318,
      "velocity": 0.67,
      "hand": "right"
    },
    {
      "midi": 38,
      "time": 33,
      "duration": 0.083,
      "velocity": 0.85,
      "hand": "left"
    },
    {
      "midi": 47,
      "time": 33,
      "duration": 0.083,
      "velocity": 0.67,
      "hand": "left"
    },
    {
      "midi": 60,
      "time": 33,
      "duration": 0.151,
      "velocity": 0.54,
      "hand": "right"
    },
    {
      "midi": 66,
      "time": 33,
      "duration": 0.318,
      "velocity": 0.77,
      "hand": "right"
    },
    {
      "midi": 60,
      "time": 33.166,
      "duration": 0.152,
      "velocity": 0.58,
      "hand": "right"
    },
    {
      "midi": 62,
      "time": 33.166,
      "duration": 0.152,
      "velocity": 0.59,
      "hand": "right"
    },
    {
      "midi": 38,
      "time": 33.333,
      "duration": 0.652,
      "velocity": 0.86,
      "hand": "left"
    },
    {
      "midi": 47,
      "time": 33.333,
      "duration": 0.083,
      "velocity": 0.83,
      "hand": "left"
    },
    {
      "midi": 62,
      "time": 33.333,
      "duration": 0.485,
      "velocity": 0.71,
      "hand": "right"
    },
    {
      "midi": 66,
      "time": 33.333,
      "duration": 0.318,
      "velocity": 0.74,
      "hand": "right"
    },
    {
      "midi": 69,
      "time": 33.333,
      "duration": 0.318,
      "velocity": 0.65,
      "hand": "right"
    },
    {
      "midi": 72,
      "time": 33.333,
      "duration": 0.652,
      "velocity": 0.74,
      "hand": "right"
    },
    {
      "midi": 51,
      "time": 33.666,
      "duration": 0.083,
      "velocity": 0.43,
      "hand": "left"
    },
    {
      "midi": 66,
      "time": 33.666,
      "duration": 0.152,
      "velocity": 0.74,
      "hand": "right"
    },
    {
      "midi": 69,
      "time": 33.666,
      "duration": 0.167,
      "velocity": 1,
      "hand": "right"
    },
    {
      "midi": 54,
      "time": 33.833,
      "duration": 0.152,
      "velocity": 0.61,
      "hand": "left"
    },
    {
      "midi": 60,
      "time": 33.833,
      "duration": 0.318,
      "velocity": 0.84,
      "hand": "right"
    },
    {
      "midi": 62,
      "time": 33.833,
      "duration": 0.318,
      "velocity": 0.87,
      "hand": "right"
    },
    {
      "midi": 66,
      "time": 33.833,
      "duration": 0.318,
      "velocity": 0.79,
      "hand": "right"
    },
    {
      "midi": 38,
      "time": 34,
      "duration": 0.083,
      "velocity": 0.91,
      "hand": "left"
    },
    {
      "midi": 50,
      "time": 34,
      "duration": 0.318,
      "velocity": 0.55,
      "hand": "left"
    },
    {
      "midi": 64,
      "time": 34,
      "duration": 0.333,
      "velocity": 1,
      "hand": "right"
    },
    {
      "midi": 72,
      "time": 34,
      "duration": 0.5,
      "velocity": 0.77,
      "hand": "right"
    },
    {
      "midi": 54,
      "time": 34.166,
      "duration": 0.152,
      "velocity": 0.59,
      "hand": "left"
    },
    {
      "midi": 60,
      "time": 34.166,
      "duration": 0.152,
      "velocity": 0.63,
      "hand": "right"
    },
    {
      "midi": 62,
      "time": 34.166,
      "duration": 0.319,
      "velocity": 0.73,
      "hand": "right"
    },
    {
      "midi": 66,
      "time": 34.166,
      "duration": 0.152,
      "velocity": 0.58,
      "hand": "right"
    },
    {
      "midi": 51,
      "time": 34.333,
      "duration": 0.083,
      "velocity": 0.54,
      "hand": "left"
    },
    {
      "midi": 60,
      "time": 34.333,
      "duration": 0.152,
      "velocity": 0.67,
      "hand": "right"
    },
    {
      "midi": 66,
      "time": 34.333,
      "duration": 0.333,
      "velocity": 1,
      "hand": "right"
    },
    {
      "midi": 60,
      "time": 34.5,
      "duration": 0.167,
      "velocity": 0.64,
      "hand": "right"
    },
    {
      "midi": 62,
      "time": 34.5,
      "duration": 0.151,
      "velocity": 0.56,
      "hand": "right"
    },
    {
      "midi": 43,
      "time": 34.666,
      "duration": 0.985,
      "velocity": 0.9,
      "hand": "left"
    },
    {
      "midi": 47,
      "time": 34.666,
      "duration": 0.083,
      "velocity": 0.82,
      "hand": "left"
    },
    {
      "midi": 67,
      "time": 34.666,
      "duration": 0.485,
      "velocity": 1,
      "hand": "right"
    },
    {
      "midi": 71,
      "time": 34.666,
      "duration": 0.319,
      "velocity": 0.72,
      "hand": "right"
    },
    {
      "midi": 74,
      "time": 34.666,
      "duration": 0.652,
      "velocity": 0.71,
      "hand": "right"
    },
    {
      "midi": 79,
      "time": 34.666,
      "duration": 2.652,
      "velocity": 0.71,
      "hand": "right"
    },
    {
      "midi": 51,
      "time": 35,
      "duration": 0.083,
      "velocity": 0.44,
      "hand": "left"
    },
    {
      "midi": 71,
      "time": 35,
      "duration": 0.151,
      "velocity": 0.81,
      "hand": "right"
    },
    {
      "midi": 59,
      "time": 35.166,
      "duration": 0.319,
      "velocity": 0.61,
      "hand": "left"
    },
    {
      "midi": 62,
      "time": 35.166,
      "duration": 0.152,
      "velocity": 0.84,
      "hand": "right"
    },
    {
      "midi": 67,
      "time": 35.166,
      "duration": 0.652,
      "velocity": 0.87,
      "hand": "right"
    },
    {
      "midi": 71,
      "time": 35.166,
      "duration": 0.485,
      "velocity": 0.82,
      "hand": "right"
    },
    {
      "midi": 38,
      "time": 35.333,
      "duration": 0.083,
      "velocity": 0.91,
      "hand": "left"
    },
    {
      "midi": 51,
      "time": 35.333,
      "duration": 0.083,
      "velocity": 0.74,
      "hand": "left"
    },
    {
      "midi": 62,
      "time": 35.333,
      "duration": 0.152,
      "velocity": 1,
      "hand": "right"
    },
    {
      "midi": 74,
      "time": 35.333,
      "duration": 0.167,
      "velocity": 0.92,
      "hand": "right"
    },
    {
      "midi": 59,
      "time": 35.5,
      "duration": 0.151,
      "velocity": 0.61,
      "hand": "left"
    },
    {
      "midi": 62,
      "time": 35.5,
      "duration": 0.151,
      "velocity": 0.68,
      "hand": "right"
    },
    {
      "midi": 43,
      "time": 35.666,
      "duration": 0.083,
      "velocity": 0.86,
      "hand": "left"
    },
    {
      "midi": 47,
      "time": 35.666,
      "duration": 0.083,
      "velocity": 0.72,
      "hand": "left"
    },
    {
      "midi": 62,
      "time": 35.666,
      "duration": 0.152,
      "velocity": 1,
      "hand": "right"
    },
    {
      "midi": 71,
      "time": 35.666,
      "duration": 0.152,
      "velocity": 0.79,
      "hand": "right"
    },
    {
      "midi": 62,
      "time": 35.833,
      "duration": 0.152,
      "velocity": 0.65,
      "hand": "right"
    },
    {
      "midi": 67,
      "time": 35.833,
      "duration": 0.152,
      "velocity": 0.66,
      "hand": "right"
    },
    {
      "midi": 71,
      "time": 35.833,
      "duration": 0.152,
      "velocity": 0.48,
      "hand": "right"
    },
    {
      "midi": 43,
      "time": 36,
      "duration": 1,
      "velocity": 0.83,
      "hand": "left"
    },
    {
      "midi": 47,
      "time": 36,
      "duration": 0.083,
      "velocity": 0.73,
      "hand": "left"
    },
    {
      "midi": 62,
      "time": 36,
      "duration": 0.485,
      "velocity": 0.82,
      "hand": "right"
    },
    {
      "midi": 67,
      "time": 36,
      "duration": 0.318,
      "velocity": 1,
      "hand": "right"
    },
    {
      "midi": 71,
      "time": 36,
      "duration": 0.318,
      "velocity": 0.71,
      "hand": "right"
    },
    {
      "midi": 51,
      "time": 36.333,
      "duration": 0.083,
      "velocity": 0.52,
      "hand": "left"
    },
    {
      "midi": 67,
      "time": 36.333,
      "duration": 0.152,
      "velocity": 1,
      "hand": "right"
    },
    {
      "midi": 71,
      "time": 36.333,
      "duration": 0.152,
      "velocity": 0.86,
      "hand": "right"
    },
    {
      "midi": 62,
      "time": 36.5,
      "duration": 0.318,
      "velocity": 0.83,
      "hand": "right"
    },
    {
      "midi": 67,
      "time": 36.5,
      "duration": 0.151,
      "velocity": 0.87,
      "hand": "right"
    },
    {
      "midi": 71,
      "time": 36.5,
      "duration": 0.318,
      "velocity": 0.76,
      "hand": "right"
    },
    {
      "midi": 38,
      "time": 36.666,
      "duration": 0.083,
      "velocity": 0.91,
      "hand": "left"
    },
    {
      "midi": 51,
      "time": 36.666,
      "duration": 0.083,
      "velocity": 0.71,
      "hand": "left"
    },
    {
      "midi": 67,
      "time": 36.666,
      "duration": 0.152,
      "velocity": 1,
      "hand": "right"
    },
    {
      "midi": 74,
      "time": 36.666,
      "duration": 0.167,
      "velocity": 0.86,
      "hand": "right"
    },
    {
      "midi": 62,
      "time": 36.833,
      "duration": 0.485,
      "velocity": 0.71,
      "hand": "right"
    },
    {
      "midi": 67,
      "time": 36.833,
      "duration": 0.485,
      "velocity": 0.8,
      "hand": "right"
    },
    {
      "midi": 71,
      "time": 36.833,
      "duration": 0.152,
      "velocity": 0.59,
      "hand": "right"
    },
    {
      "midi": 51,
      "time": 37,
      "duration": 0.083,
      "velocity": 0.38,
      "hand": "left"
    },
    {
      "midi": 55,
      "time": 37,
      "duration": 0.318,
      "velocity": 0.68,
      "hand": "left"
    },
    {
      "midi": 69,
      "time": 37,
      "duration": 0.167,
      "velocity": 1,
      "hand": "right"
    },
    {
      "midi": 71,
      "time": 37,
      "duration": 0.318,
      "velocity": 0.83,
      "hand": "right"
    },
    {
      "midi": 43,
      "time": 37.166,
      "duration": 0.083,
      "velocity": 0.86,
      "hand": "left"
    },
    {
      "midi": 47,
      "time": 37.166,
      "duration": 0.083,
      "velocity": 0.39,
      "hand": "left"
    },
    {
      "midi": 43,
      "time": 37.333,
      "duration": 0.985,
      "velocity": 0.91,
      "hand": "left"
    },
    {
      "midi": 47,
      "time": 37.333,
      "duration": 0.985,
      "velocity": 0.86,
      "hand": "left"
    },
    {
      "midi": 71,
      "time": 37.333,
      "duration": 0.318,
      "velocity": 0.71,
      "hand": "right"
    },
    {
      "midi": 74,
      "time": 37.333,
      "duration": 0.652,
      "velocity": 0.72,
      "hand": "right"
    },
    {
      "midi": 79,
      "time": 37.333,
      "duration": 2.333,
      "velocity": 0.76,
      "hand": "right"
    },
    {
      "midi": 83,
      "time": 37.333,
      "duration": 5.333,
      "velocity": 0.63,
      "hand": "right"
    },
    {
      "midi": 51,
      "time": 37.666,
      "duration": 0.083,
      "velocity": 0.46,
      "hand": "left"
    },
    {
      "midi": 71,
      "time": 37.666,
      "duration": 0.152,
      "velocity": 0.83,
      "hand": "right"
    },
    {
      "midi": 67,
      "time": 37.833,
      "duration": 0.318,
      "velocity": 0.73,
      "hand": "right"
    },
    {
      "midi": 71,
      "time": 37.833,
      "duration": 0.485,
      "velocity": 0.72,
      "hand": "right"
    },
    {
      "midi": 38,
      "time": 38,
      "duration": 0.083,
      "velocity": 0.91,
      "hand": "left"
    },
    {
      "midi": 51,
      "time": 38,
      "duration": 0.083,
      "velocity": 0.82,
      "hand": "left"
    },
    {
      "midi": 69,
      "time": 38,
      "duration": 0.167,
      "velocity": 1,
      "hand": "right"
    },
    {
      "midi": 74,
      "time": 38,
      "duration": 0.167,
      "velocity": 0.86,
      "hand": "right"
    },
    {
      "midi": 62,
      "time": 38.166,
      "duration": 0.319,
      "velocity": 0.59,
      "hand": "right"
    },
    {
      "midi": 67,
      "time": 38.166,
      "duration": 0.333,
      "velocity": 0.81,
      "hand": "right"
    },
    {
      "midi": 43,
      "time": 38.333,
      "duration": 0.083,
      "velocity": 0.89,
      "hand": "left"
    },
    {
      "midi": 47,
      "time": 38.333,
      "duration": 0.083,
      "velocity": 0.59,
      "hand": "left"
    },
    {
      "midi": 71,
      "time": 38.333,
      "duration": 0.318,
      "velocity": 1,
      "hand": "right"
    },
    {
      "midi": 62,
      "time": 38.5,
      "duration": 0.151,
      "velocity": 0.58,
      "hand": "right"
    },
    {
      "midi": 43,
      "time": 38.666,
      "duration": 1.167,
      "velocity": 0.83,
      "hand": "left"
    },
    {
      "midi": 47,
      "time": 38.666,
      "duration": 0.083,
      "velocity": 0.8,
      "hand": "left"
    },
    {
      "midi": 62,
      "time": 38.666,
      "duration": 0.485,
      "velocity": 0.88,
      "hand": "right"
    },
    {
      "midi": 67,
      "time": 38.666,
      "duration": 0.485,
      "velocity": 0.86,
      "hand": "right"
    },
    {
      "midi": 71,
      "time": 38.666,
      "duration": 0.319,
      "velocity": 0.66,
      "hand": "right"
    },
    {
      "midi": 51,
      "time": 39,
      "duration": 0.083,
      "velocity": 0.5,
      "hand": "left"
    },
    {
      "midi": 69,
      "time": 39,
      "duration": 0.333,
      "velocity": 1,
      "hand": "right"
    },
    {
      "midi": 71,
      "time": 39,
      "duration": 0.151,
      "velocity": 0.83,
      "hand": "right"
    },
    {
      "midi": 62,
      "time": 39.166,
      "duration": 0.319,
      "velocity": 0.65,
      "hand": "right"
    },
    {
      "midi": 67,
      "time": 39.166,
      "duration": 0.152,
      "velocity": 0.91,
      "hand": "right"
    },
    {
      "midi": 71,
      "time": 39.166,
      "duration": 0.319,
      "velocity": 0.73,
      "hand": "right"
    },
    {
      "midi": 38,
      "time": 39.333,
      "duration": 0.083,
      "velocity": 0.91,
      "hand": "left"
    },
    {
      "midi": 51,
      "time": 39.333,
      "duration": 0.083,
      "velocity": 0.74,
      "hand": "left"
    },
    {
      "midi": 67,
      "time": 39.333,
      "duration": 0.333,
      "velocity": 1,
      "hand": "right"
    },
    {
      "midi": 74,
      "time": 39.333,
      "duration": 0.167,
      "velocity": 0.86,
      "hand": "right"
    },
    {
      "midi": 59,
      "time": 39.5,
      "duration": 0.167,
      "velocity": 0.66,
      "hand": "left"
    },
    {
      "midi": 62,
      "time": 39.5,
      "duration": 0.318,
      "velocity": 0.68,
      "hand": "right"
    },
    {
      "midi": 71,
      "time": 39.5,
      "duration": 0.151,
      "velocity": 0.56,
      "hand": "right"
    },
    {
      "midi": 51,
      "time": 39.666,
      "duration": 0.083,
      "velocity": 0.46,
      "hand": "left"
    },
    {
      "midi": 55,
      "time": 39.666,
      "duration": 0.319,
      "velocity": 0.63,
      "hand": "left"
    },
    {
      "midi": 66,
      "time": 39.666,
      "duration": 0.333,
      "velocity": 1,
      "hand": "right"
    },
    {
      "midi": 71,
      "time": 39.666,
      "duration": 0.152,
      "velocity": 0.79,
      "hand": "right"
    },
    {
      "midi": 59,
      "time": 39.833,
      "duration": 0.152,
      "velocity": 0.54,
      "hand": "left"
    },
    {
      "midi": 62,
      "time": 39.833,
      "duration": 0.152,
      "velocity": 0.61,
      "hand": "right"
    },
    {
      "midi": 67,
      "time": 39.833,
      "duration": 0.152,
      "velocity": 0.72,
      "hand": "right"
    },
    {
      "midi": 71,
      "time": 39.833,
      "duration": 0.152,
      "velocity": 0.61,
      "hand": "right"
    },
    {
      "midi": 43,
      "time": 40,
      "duration": 0.985,
      "velocity": 0.91,
      "hand": "left"
    },
    {
      "midi": 47,
      "time": 40,
      "duration": 0.083,
      "velocity": 0.8,
      "hand": "left"
    },
    {
      "midi": 67,
      "time": 40,
      "duration": 0.485,
      "velocity": 0.91,
      "hand": "right"
    },
    {
      "midi": 71,
      "time": 40,
      "duration": 0.318,
      "velocity": 0.73,
      "hand": "right"
    },
    {
      "midi": 74,
      "time": 40,
      "duration": 0.651,
      "velocity": 0.69,
      "hand": "right"
    },
    {
      "midi": 79,
      "time": 40,
      "duration": 2.167,
      "velocity": 0.71,
      "hand": "right"
    },
    {
      "midi": 51,
      "time": 40.333,
      "duration": 0.083,
      "velocity": 0.4,
      "hand": "left"
    },
    {
      "midi": 62,
      "time": 40.333,
      "duration": 0.152,
      "velocity": 1,
      "hand": "right"
    },
    {
      "midi": 71,
      "time": 40.333,
      "duration": 0.152,
      "velocity": 0.79,
      "hand": "right"
    },
    {
      "midi": 59,
      "time": 40.5,
      "duration": 0.485,
      "velocity": 0.54,
      "hand": "left"
    },
    {
      "midi": 62,
      "time": 40.5,
      "duration": 0.151,
      "velocity": 0.71,
      "hand": "right"
    },
    {
      "midi": 67,
      "time": 40.5,
      "duration": 0.651,
      "velocity": 0.9,
      "hand": "right"
    },
    {
      "midi": 71,
      "time": 40.5,
      "duration": 0.318,
      "velocity": 0.66,
      "hand": "right"
    },
    {
      "midi": 38,
      "time": 40.666,
      "duration": 0.083,
      "velocity": 0.91,
      "hand": "left"
    },
    {
      "midi": 51,
      "time": 40.666,
      "duration": 0.083,
      "velocity": 0.8,
      "hand": "left"
    },
    {
      "midi": 62,
      "time": 40.666,
      "duration": 0.319,
      "velocity": 1,
      "hand": "right"
    },
    {
      "midi": 74,
      "time": 40.666,
      "duration": 0.167,
      "velocity": 0.81,
      "hand": "right"
    },
    {
      "midi": 71,
      "time": 40.833,
      "duration": 0.152,
      "velocity": 0.53,
      "hand": "right"
    },
    {
      "midi": 43,
      "time": 41,
      "duration": 0.083,
      "velocity": 0.87,
      "hand": "left"
    },
    {
      "midi": 47,
      "time": 41,
      "duration": 0.083,
      "velocity": 0.78,
      "hand": "left"
    },
    {
      "midi": 62,
      "time": 41,
      "duration": 0.151,
      "velocity": 1,
      "hand": "right"
    },
    {
      "midi": 71,
      "time": 41,
      "duration": 0.151,
      "velocity": 0.76,
      "hand": "right"
    },
    {
      "midi": 59,
      "time": 41.166,
      "duration": 0.152,
      "velocity": 0.63,
      "hand": "left"
    },
    {
      "midi": 62,
      "time": 41.166,
      "duration": 0.152,
      "velocity": 0.73,
      "hand": "right"
    },
    {
      "midi": 67,
      "time": 41.166,
      "duration": 0.152,
      "velocity": 0.7,
      "hand": "right"
    },
    {
      "midi": 71,
      "time": 41.166,
      "duration": 0.152,
      "velocity": 0.56,
      "hand": "right"
    },
    {
      "midi": 43,
      "time": 41.333,
      "duration": 0.667,
      "velocity": 0.85,
      "hand": "left"
    },
    {
      "midi": 47,
      "time": 41.333,
      "duration": 0.083,
      "velocity": 0.74,
      "hand": "left"
    },
    {
      "midi": 62,
      "time": 41.333,
      "duration": 0.485,
      "velocity": 0.81,
      "hand": "right"
    },
    {
      "midi": 67,
      "time": 41.333,
      "duration": 0.318,
      "velocity": 1,
      "hand": "right"
    },
    {
      "midi": 71,
      "time": 41.333,
      "duration": 0.318,
      "velocity": 0.65,
      "hand": "right"
    },
    {
      "midi": 51,
      "time": 41.666,
      "duration": 0.083,
      "velocity": 0.54,
      "hand": "left"
    },
    {
      "midi": 67,
      "time": 41.666,
      "duration": 0.152,
      "velocity": 1,
      "hand": "right"
    },
    {
      "midi": 71,
      "time": 41.666,
      "duration": 0.152,
      "velocity": 0.83,
      "hand": "right"
    },
    {
      "midi": 59,
      "time": 41.833,
      "duration": 0.152,
      "velocity": 0.64,
      "hand": "left"
    },
    {
      "midi": 62,
      "time": 41.833,
      "duration": 0.318,
      "velocity": 0.9,
      "hand": "right"
    },
    {
      "midi": 67,
      "time": 41.833,
      "duration": 0.152,
      "velocity": 0.89,
      "hand": "right"
    },
    {
      "midi": 71,
      "time": 41.833,
      "duration": 0.318,
      "velocity": 0.78,
      "hand": "right"
    },
    {
      "midi": 38,
      "time": 42,
      "duration": 0.083,
      "velocity": 0.91,
      "hand": "left"
    },
    {
      "midi": 51,
      "time": 42,
      "duration": 0.083,
      "velocity": 0.78,
      "hand": "left"
    },
    {
      "midi": 67,
      "time": 42,
      "duration": 0.151,
      "velocity": 1,
      "hand": "right"
    },
    {
      "midi": 74,
      "time": 42,
      "duration": 0.167,
      "velocity": 0.86,
      "hand": "right"
    },
    {
      "midi": 43,
      "time": 42.166,
      "duration": 0.333,
      "velocity": 0.9,
      "hand": "left"
    },
    {
      "midi": 47,
      "time": 42.166,
      "duration": 0.083,
      "velocity": 0.58,
      "hand": "left"
    },
    {
      "midi": 62,
      "time": 42.166,
      "duration": 0.319,
      "velocity": 0.7,
      "hand": "right"
    },
    {
      "midi": 67,
      "time": 42.166,
      "duration": 0.319,
      "velocity": 0.83,
      "hand": "right"
    },
    {
      "midi": 71,
      "time": 42.166,
      "duration": 0.152,
      "velocity": 0.69,
      "hand": "right"
    },
    {
      "midi": 51,
      "time": 42.333,
      "duration": 0.083,
      "velocity": 0.46,
      "hand": "left"
    },
    {
      "midi": 55,
      "time": 42.333,
      "duration": 0.152,
      "velocity": 0.65,
      "hand": "left"
    },
    {
      "midi": 69,
      "time": 42.333,
      "duration": 0.167,
      "velocity": 1,
      "hand": "right"
    },
    {
      "midi": 71,
      "time": 42.333,
      "duration": 0.167,
      "velocity": 0.81,
      "hand": "right"
    },
    {
      "midi": 55,
      "time": 42.5,
      "duration": 0.151,
      "velocity": 0.64,
      "hand": "left"
    },
    {
      "midi": 59,
      "time": 42.5,
      "duration": 0.151,
      "velocity": 0.67,
      "hand": "left"
    },
    {
      "midi": 62,
      "time": 42.5,
      "duration": 0.151,
      "velocity": 0.64,
      "hand": "right"
    },
    {
      "midi": 67,
      "time": 42.5,
      "duration": 0.151,
      "velocity": 0.55,
      "hand": "right"
    },
    {
      "midi": 43,
      "time": 42.666,
      "duration": 0.985,
      "velocity": 0.87,
      "hand": "left"
    },
    {
      "midi": 47,
      "time": 42.666,
      "duration": 0.083,
      "velocity": 0.77,
      "hand": "left"
    },
    {
      "midi": 67,
      "time": 42.666,
      "duration": 0.485,
      "velocity": 1,
      "hand": "right"
    },
    {
      "midi": 71,
      "time": 42.666,
      "duration": 0.319,
      "velocity": 0.71,
      "hand": "right"
    },
    {
      "midi": 74,
      "time": 42.666,
      "duration": 0.485,
      "velocity": 0.76,
      "hand": "right"
    },
    {
      "midi": 79,
      "time": 42.666,
      "duration": 1.833,
      "velocity": 0.76,
      "hand": "right"
    },
    {
      "midi": 51,
      "time": 43,
      "duration": 0.083,
      "velocity": 0.51,
      "hand": "left"
    },
    {
      "midi": 71,
      "time": 43,
      "duration": 0.151,
      "velocity": 0.81,
      "hand": "right"
    },
    {
      "midi": 67,
      "time": 43.166,
      "duration": 0.319,
      "velocity": 0.79,
      "hand": "right"
    },
    {
      "midi": 69,
      "time": 43.166,
      "duration": 0.167,
      "velocity": 1,
      "hand": "right"
    },
    {
      "midi": 71,
      "time": 43.166,
      "duration": 0.319,
      "velocity": 0.83,
      "hand": "right"
    },
    {
      "midi": 74,
      "time": 43.166,
      "duration": 0.167,
      "velocity": 0.92,
      "hand": "right"
    },
    {
      "midi": 38,
      "time": 43.333,
      "duration": 0.083,
      "velocity": 0.91,
      "hand": "left"
    },
    {
      "midi": 51,
      "time": 43.333,
      "duration": 0.083,
      "velocity": 0.74,
      "hand": "left"
    },
    {
      "midi": 62,
      "time": 43.5,
      "duration": 0.151,
      "velocity": 0.64,
      "hand": "right"
    },
    {
      "midi": 67,
      "time": 43.5,
      "duration": 0.318,
      "velocity": 0.67,
      "hand": "right"
    },
    {
      "midi": 71,
      "time": 43.5,
      "duration": 0.151,
      "velocity": 0.81,
      "hand": "right"
    },
    {
      "midi": 43,
      "time": 43.666,
      "duration": 0.083,
      "velocity": 0.85,
      "hand": "left"
    },
    {
      "midi": 47,
      "time": 43.666,
      "duration": 0.083,
      "velocity": 0.67,
      "hand": "left"
    },
    {
      "midi": 62,
      "time": 43.666,
      "duration": 0.152,
      "velocity": 0.54,
      "hand": "right"
    },
    {
      "midi": 71,
      "time": 43.666,
      "duration": 1.667,
      "velocity": 1,
      "hand": "right"
    },
    {
      "midi": 50,
      "time": 43.833,
      "duration": 0.152,
      "velocity": 0.46,
      "hand": "left"
    },
    {
      "midi": 62,
      "time": 43.833,
      "duration": 0.152,
      "velocity": 0.74,
      "hand": "right"
    },
    {
      "midi": 67,
      "time": 43.833,
      "duration": 0.167,
      "velocity": 0.59,
      "hand": "right"
    },
    {
      "midi": 38,
      "time": 44,
      "duration": 0.651,
      "velocity": 0.86,
      "hand": "left"
    },
    {
      "midi": 47,
      "time": 44,
      "duration": 0.083,
      "velocity": 0.83,
      "hand": "left"
    },
    {
      "midi": 66,
      "time": 44,
      "duration": 0.318,
      "velocity": 0.71,
      "hand": "right"
    },
    {
      "midi": 69,
      "time": 44,
      "duration": 1.318,
      "velocity": 0.71,
      "hand": "right"
    },
    {
      "midi": 72,
      "time": 44,
      "duration": 0.485,
      "velocity": 0.71,
      "hand": "right"
    },
    {
      "midi": 78,
      "time": 44,
      "duration": 2.667,
      "velocity": 0.63,
      "hand": "right"
    },
    {
      "midi": 51,
      "time": 44.333,
      "duration": 0.083,
      "velocity": 0.43,
      "hand": "left"
    },
    {
      "midi": 66,
      "time": 44.333,
      "duration": 0.152,
      "velocity": 0.76,
      "hand": "right"
    },
    {
      "midi": 54,
      "time": 44.5,
      "duration": 0.151,
      "velocity": 0.61,
      "hand": "left"
    },
    {
      "midi": 60,
      "time": 44.5,
      "duration": 0.318,
      "velocity": 0.84,
      "hand": "right"
    },
    {
      "midi": 62,
      "time": 44.5,
      "duration": 0.318,
      "velocity": 0.87,
      "hand": "right"
    },
    {
      "midi": 66,
      "time": 44.5,
      "duration": 0.318,
      "velocity": 0.79,
      "hand": "right"
    },
    {
      "midi": 72,
      "time": 44.5,
      "duration": 0.333,
      "velocity": 0.83,
      "hand": "right"
    },
    {
      "midi": 38,
      "time": 44.666,
      "duration": 0.083,
      "velocity": 0.91,
      "hand": "left"
    },
    {
      "midi": 50,
      "time": 44.666,
      "duration": 0.319,
      "velocity": 0.55,
      "hand": "left"
    },
    {
      "midi": 54,
      "time": 44.833,
      "duration": 0.152,
      "velocity": 0.59,
      "hand": "left"
    },
    {
      "midi": 60,
      "time": 44.833,
      "duration": 0.152,
      "velocity": 0.63,
      "hand": "right"
    },
    {
      "midi": 62,
      "time": 44.833,
      "duration": 0.318,
      "velocity": 0.73,
      "hand": "right"
    },
    {
      "midi": 66,
      "time": 44.833,
      "duration": 0.152,
      "velocity": 0.58,
      "hand": "right"
    },
    {
      "midi": 51,
      "time": 45,
      "duration": 0.083,
      "velocity": 0.54,
      "hand": "left"
    },
    {
      "midi": 60,
      "time": 45,
      "duration": 0.151,
      "velocity": 0.67,
      "hand": "right"
    },
    {
      "midi": 66,
      "time": 45,
      "duration": 0.318,
      "velocity": 0.79,
      "hand": "right"
    },
    {
      "midi": 60,
      "time": 45.166,
      "duration": 0.152,
      "velocity": 0.64,
      "hand": "right"
    },
    {
      "midi": 62,
      "time": 45.166,
      "duration": 0.152,
      "velocity": 0.56,
      "hand": "right"
    },
    {
      "midi": 38,
      "time": 45.333,
      "duration": 0.652,
      "velocity": 0.9,
      "hand": "left"
    },
    {
      "midi": 47,
      "time": 45.333,
      "duration": 0.083,
      "velocity": 0.82,
      "hand": "left"
    },
    {
      "midi": 62,
      "time": 45.333,
      "duration": 0.485,
      "velocity": 0.86,
      "hand": "right"
    },
    {
      "midi": 66,
      "time": 45.333,
      "duration": 0.318,
      "velocity": 0.72,
      "hand": "right"
    },
    {
      "midi": 69,
      "time": 45.333,
      "duration": 0.318,
      "velocity": 0.63,
      "hand": "right"
    },
    {
      "midi": 72,
      "time": 45.333,
      "duration": 0.652,
      "velocity": 0.82,
      "hand": "right"
    },
    {
      "midi": 51,
      "time": 45.666,
      "duration": 0.083,
      "velocity": 0.44,
      "hand": "left"
    },
    {
      "midi": 66,
      "time": 45.666,
      "duration": 0.152,
      "velocity": 0.8,
      "hand": "right"
    },
    {
      "midi": 69,
      "time": 45.666,
      "duration": 0.167,
      "velocity": 1,
      "hand": "right"
    },
    {
      "midi": 54,
      "time": 45.833,
      "duration": 0.318,
      "velocity": 0.61,
      "hand": "left"
    },
    {
      "midi": 60,
      "time": 45.833,
      "duration": 0.318,
      "velocity": 0.84,
      "hand": "right"
    },
    {
      "midi": 62,
      "time": 45.833,
      "duration": 0.652,
      "velocity": 0.87,
      "hand": "right"
    },
    {
      "midi": 66,
      "time": 45.833,
      "duration": 0.485,
      "velocity": 0.82,
      "hand": "right"
    },
    {
      "midi": 38,
      "time": 46,
      "duration": 0.083,
      "velocity": 0.91,
      "hand": "left"
    },
    {
      "midi": 51,
      "time": 46,
      "duration": 0.083,
      "velocity": 0.74,
      "hand": "left"
    },
    {
      "midi": 64,
      "time": 46,
      "duration": 0.167,
      "velocity": 1,
      "hand": "right"
    },
    {
      "midi": 72,
      "time": 46,
      "duration": 0.5,
      "velocity": 0.8,
      "hand": "right"
    },
    {
      "midi": 54,
      "time": 46.166,
      "duration": 0.152,
      "velocity": 0.61,
      "hand": "left"
    },
    {
      "midi": 60,
      "time": 46.166,
      "duration": 0.152,
      "velocity": 0.68,
      "hand": "right"
    },
    {
      "midi": 38,
      "time": 46.333,
      "duration": 0.083,
      "velocity": 0.86,
      "hand": "left"
    },
    {
      "midi": 47,
      "time": 46.333,
      "duration": 0.083,
      "velocity": 0.72,
      "hand": "left"
    },
    {
      "midi": 60,
      "time": 46.333,
      "duration": 0.152,
      "velocity": 0.65,
      "hand": "right"
    },
    {
      "midi": 66,
      "time": 46.333,
      "duration": 0.152,
      "velocity": 1,
      "hand": "right"
    },
    {
      "midi": 60,
      "time": 46.5,
      "duration": 0.167,
      "velocity": 0.65,
      "hand": "right"
    },
    {
      "midi": 62,
      "time": 46.5,
      "duration": 0.151,
      "velocity": 0.66,
      "hand": "right"
    },
    {
      "midi": 66,
      "time": 46.5,
      "duration": 0.167,
      "velocity": 0.48,
      "hand": "right"
    },
    {
      "midi": 43,
      "time": 46.666,
      "duration": 1.152,
      "velocity": 0.83,
      "hand": "left"
    },
    {
      "midi": 47,
      "time": 46.666,
      "duration": 0.083,
      "velocity": 0.73,
      "hand": "left"
    },
    {
      "midi": 67,
      "time": 46.666,
      "duration": 0.485,
      "velocity": 1,
      "hand": "right"
    },
    {
      "midi": 71,
      "time": 46.666,
      "duration": 0.319,
      "velocity": 0.71,
      "hand": "right"
    },
    {
      "midi": 74,
      "time": 46.666,
      "duration": 0.652,
      "velocity": 0.71,
      "hand": "right"
    },
    {
      "midi": 79,
      "time": 46.666,
      "duration": 2.333,
      "velocity": 0.72,
      "hand": "right"
    },
    {
      "midi": 51,
      "time": 47,
      "duration": 0.083,
      "velocity": 0.52,
      "hand": "left"
    },
    {
      "midi": 71,
      "time": 47,
      "duration": 0.151,
      "velocity": 0.81,
      "hand": "right"
    },
    {
      "midi": 62,
      "time": 47.166,
      "duration": 0.152,
      "velocity": 0.83,
      "hand": "right"
    },
    {
      "midi": 67,
      "time": 47.166,
      "duration": 0.319,
      "velocity": 0.87,
      "hand": "right"
    },
    {
      "midi": 71,
      "time": 47.166,
      "duration": 0.319,
      "velocity": 0.76,
      "hand": "right"
    },
    {
      "midi": 38,
      "time": 47.333,
      "duration": 0.083,
      "velocity": 0.91,
      "hand": "left"
    },
    {
      "midi": 51,
      "time": 47.333,
      "duration": 0.083,
      "velocity": 0.71,
      "hand": "left"
    },
    {
      "midi": 62,
      "time": 47.333,
      "duration": 0.152,
      "velocity": 1,
      "hand": "right"
    },
    {
      "midi": 74,
      "time": 47.333,
      "duration": 0.167,
      "velocity": 0.92,
      "hand": "right"
    },
    {
      "midi": 62,
      "time": 47.5,
      "duration": 0.151,
      "velocity": 0.71,
      "hand": "right"
    },
    {
      "midi": 67,
      "time": 47.5,
      "duration": 0.485,
      "velocity": 0.8,
      "hand": "right"
    },
    {
      "midi": 71,
      "time": 47.5,
      "duration": 0.151,
      "velocity": 0.59,
      "hand": "right"
    },
    {
      "midi": 51,
      "time": 47.666,
      "duration": 0.083,
      "velocity": 0.38,
      "hand": "left"
    },
    {
      "midi": 55,
      "time": 47.666,
      "duration": 0.319,
      "velocity": 0.68,
      "hand": "left"
    },
    {
      "midi": 62,
      "time": 47.666,
      "duration": 0.167,
      "velocity": 1,
      "hand": "right"
    },
    {
      "midi": 71,
      "time": 47.666,
      "duration": 0.319,
      "velocity": 0.81,
      "hand": "right"
    },
    {
      "midi": 43,
      "time": 47.833,
      "duration": 0.083,
      "velocity": 0.86,
      "hand": "left"
    },
    {
      "midi": 47,
      "time": 47.833,
      "duration": 0.083,
      "velocity": 0.39,
      "hand": "left"
    },
    {
      "midi": 43,
      "time": 48,
      "duration": 0.667,
      "velocity": 0.91,
      "hand": "left"
    },
    {
      "midi": 47,
      "time": 48,
      "duration": 0.083,
      "velocity": 0.86,
      "hand": "left"
    },
    {
      "midi": 67,
      "time": 48,
      "duration": 0.318,
      "velocity": 1,
      "hand": "right"
    },
    {
      "midi": 71,
      "time": 48,
      "duration": 0.318,
      "velocity": 0.71,
      "hand": "right"
    },
    {
      "midi": 74,
      "time": 48,
      "duration": 0.651,
      "velocity": 0.71,
      "hand": "right"
    },
    {
      "midi": 83,
      "time": 48,
      "duration": 5.333,
      "velocity": 0.63,
      "hand": "right"
    },
    {
      "midi": 51,
      "time": 48.333,
      "duration": 0.083,
      "velocity": 0.46,
      "hand": "left"
    },
    {
      "midi": 67,
      "time": 48.333,
      "duration": 0.152,
      "velocity": 1,
      "hand": "right"
    },
    {
      "midi": 71,
      "time": 48.333,
      "duration": 0.152,
      "velocity": 0.83,
      "hand": "right"
    },
    {
      "midi": 67,
      "time": 48.5,
      "duration": 0.151,
      "velocity": 0.73,
      "hand": "right"
    },
    {
      "midi": 71,
      "time": 48.5,
      "duration": 0.485,
      "velocity": 0.72,
      "hand": "right"
    },
    {
      "midi": 38,
      "time": 48.666,
      "duration": 0.083,
      "velocity": 0.91,
      "hand": "left"
    },
    {
      "midi": 51,
      "time": 48.666,
      "duration": 0.083,
      "velocity": 0.82,
      "hand": "left"
    },
    {
      "midi": 67,
      "time": 48.666,
      "duration": 0.152,
      "velocity": 1,
      "hand": "right"
    },
    {
      "midi": 74,
      "time": 48.666,
      "duration": 0.083,
      "velocity": 0.89,
      "hand": "right"
    },
    {
      "midi": 62,
      "time": 48.833,
      "duration": 0.318,
      "velocity": 0.59,
      "hand": "right"
    },
    {
      "midi": 67,
      "time": 48.833,
      "duration": 0.333,
      "velocity": 0.81,
      "hand": "right"
    },
    {
      "midi": 43,
      "time": 49,
      "duration": 0.083,
      "velocity": 0.89,
      "hand": "left"
    },
    {
      "midi": 47,
      "time": 49,
      "duration": 0.083,
      "velocity": 0.59,
      "hand": "left"
    },
    {
      "midi": 69,
      "time": 49,
      "duration": 0.167,
      "velocity": 1,
      "hand": "right"
    },
    {
      "midi": 71,
      "time": 49,
      "duration": 0.318,
      "velocity": 0.83,
      "hand": "right"
    },
    {
      "midi": 62,
      "time": 49.166,
      "duration": 0.152,
      "velocity": 0.58,
      "hand": "right"
    },
    {
      "midi": 43,
      "time": 49.333,
      "duration": 1.318,
      "velocity": 0.83,
      "hand": "left"
    },
    {
      "midi": 47,
      "time": 49.333,
      "duration": 0.083,
      "velocity": 0.8,
      "hand": "left"
    },
    {
      "midi": 67,
      "time": 49.333,
      "duration": 0.485,
      "velocity": 1,
      "hand": "right"
    },
    {
      "midi": 71,
      "time": 49.333,
      "duration": 0.318,
      "velocity": 0.66,
      "hand": "right"
    },
    {
      "midi": 74,
      "time": 49.333,
      "duration": 0.652,
      "velocity": 0.71,
      "hand": "right"
    },
    {
      "midi": 79,
      "time": 49.333,
      "duration": 2.333,
      "velocity": 0.74,
      "hand": "right"
    },
    {
      "midi": 51,
      "time": 49.666,
      "duration": 0.083,
      "velocity": 0.5,
      "hand": "left"
    },
    {
      "midi": 71,
      "time": 49.666,
      "duration": 0.152,
      "velocity": 0.81,
      "hand": "right"
    },
    {
      "midi": 62,
      "time": 49.833,
      "duration": 0.318,
      "velocity": 0.65,
      "hand": "right"
    },
    {
      "midi": 67,
      "time": 49.833,
      "duration": 0.652,
      "velocity": 0.91,
      "hand": "right"
    },
    {
      "midi": 71,
      "time": 49.833,
      "duration": 0.318,
      "velocity": 0.73,
      "hand": "right"
    },
    {
      "midi": 38,
      "time": 50,
      "duration": 0.083,
      "velocity": 0.91,
      "hand": "left"
    },
    {
      "midi": 51,
      "time": 50,
      "duration": 0.083,
      "velocity": 0.74,
      "hand": "left"
    },
    {
      "midi": 69,
      "time": 50,
      "duration": 0.167,
      "velocity": 1,
      "hand": "right"
    },
    {
      "midi": 74,
      "time": 50,
      "duration": 0.083,
      "velocity": 0.86,
      "hand": "right"
    },
    {
      "midi": 59,
      "time": 50.166,
      "duration": 0.167,
      "velocity": 0.66,
      "hand": "left"
    },
    {
      "midi": 62,
      "time": 50.166,
      "duration": 0.319,
      "velocity": 0.68,
      "hand": "right"
    },
    {
      "midi": 71,
      "time": 50.166,
      "duration": 0.152,
      "velocity": 0.56,
      "hand": "right"
    },
    {
      "midi": 51,
      "time": 50.333,
      "duration": 0.083,
      "velocity": 0.46,
      "hand": "left"
    },
    {
      "midi": 55,
      "time": 50.333,
      "duration": 0.318,
      "velocity": 0.63,
      "hand": "left"
    },
    {
      "midi": 71,
      "time": 50.333,
      "duration": 0.152,
      "velocity": 1,
      "hand": "right"
    },
    {
      "midi": 59,
      "time": 50.5,
      "duration": 0.151,
      "velocity": 0.54,
      "hand": "left"
    },
    {
      "midi": 62,
      "time": 50.5,
      "duration": 0.151,
      "velocity": 0.61,
      "hand": "right"
    },
    {
      "midi": 67,
      "time": 50.5,
      "duration": 0.151,
      "velocity": 0.72,
      "hand": "right"
    },
    {
      "midi": 71,
      "time": 50.5,
      "duration": 0.151,
      "velocity": 0.61,
      "hand": "right"
    },
    {
      "midi": 43,
      "time": 50.666,
      "duration": 0.667,
      "velocity": 0.91,
      "hand": "left"
    },
    {
      "midi": 47,
      "time": 50.666,
      "duration": 0.083,
      "velocity": 0.8,
      "hand": "left"
    },
    {
      "midi": 62,
      "time": 50.666,
      "duration": 0.485,
      "velocity": 0.87,
      "hand": "right"
    },
    {
      "midi": 67,
      "time": 50.666,
      "duration": 0.485,
      "velocity": 0.91,
      "hand": "right"
    },
    {
      "midi": 71,
      "time": 50.666,
      "duration": 0.319,
      "velocity": 0.73,
      "hand": "right"
    },
    {
      "midi": 51,
      "time": 51,
      "duration": 0.083,
      "velocity": 0.4,
      "hand": "left"
    },
    {
      "midi": 69,
      "time": 51,
      "duration": 0.333,
      "velocity": 1,
      "hand": "right"
    },
    {
      "midi": 71,
      "time": 51,
      "duration": 0.151,
      "velocity": 0.83,
      "hand": "right"
    },
    {
      "midi": 59,
      "time": 51.166,
      "duration": 0.485,
      "velocity": 0.54,
      "hand": "left"
    },
    {
      "midi": 62,
      "time": 51.166,
      "duration": 0.152,
      "velocity": 0.71,
      "hand": "right"
    },
    {
      "midi": 67,
      "time": 51.166,
      "duration": 0.152,
      "velocity": 0.9,
      "hand": "right"
    },
    {
      "midi": 71,
      "time": 51.166,
      "duration": 0.319,
      "velocity": 0.66,
      "hand": "right"
    },
    {
      "midi": 38,
      "time": 51.333,
      "duration": 0.083,
      "velocity": 0.91,
      "hand": "left"
    },
    {
      "midi": 51,
      "time": 51.333,
      "duration": 0.083,
      "velocity": 0.8,
      "hand": "left"
    },
    {
      "midi": 62,
      "time": 51.333,
      "duration": 0.318,
      "velocity": 0.7,
      "hand": "right"
    },
    {
      "midi": 67,
      "time": 51.333,
      "duration": 0.333,
      "velocity": 1,
      "hand": "right"
    },
    {
      "midi": 74,
      "time": 51.333,
      "duration": 0.167,
      "velocity": 0.86,
      "hand": "right"
    },
    {
      "midi": 71,
      "time": 51.5,
      "duration": 0.151,
      "velocity": 0.53,
      "hand": "right"
    },
    {
      "midi": 43,
      "time": 51.666,
      "duration": 0.083,
      "velocity": 0.87,
      "hand": "left"
    },
    {
      "midi": 47,
      "time": 51.666,
      "duration": 0.083,
      "velocity": 0.78,
      "hand": "left"
    },
    {
      "midi": 62,
      "time": 51.666,
      "duration": 0.152,
      "velocity": 0.64,
      "hand": "right"
    },
    {
      "midi": 66,
      "time": 51.666,
      "duration": 0.333,
      "velocity": 1,
      "hand": "right"
    },
    {
      "midi": 71,
      "time": 51.666,
      "duration": 0.152,
      "velocity": 0.81,
      "hand": "right"
    },
    {
      "midi": 59,
      "time": 51.833,
      "duration": 0.152,
      "velocity": 0.63,
      "hand": "left"
    },
    {
      "midi": 62,
      "time": 51.833,
      "duration": 0.152,
      "velocity": 0.73,
      "hand": "right"
    },
    {
      "midi": 67,
      "time": 51.833,
      "duration": 0.152,
      "velocity": 0.7,
      "hand": "right"
    },
    {
      "midi": 71,
      "time": 51.833,
      "duration": 0.152,
      "velocity": 0.56,
      "hand": "right"
    },
    {
      "midi": 43,
      "time": 52,
      "duration": 0.818,
      "velocity": 0.85,
      "hand": "left"
    },
    {
      "midi": 47,
      "time": 52,
      "duration": 0.083,
      "velocity": 0.74,
      "hand": "left"
    },
    {
      "midi": 67,
      "time": 52,
      "duration": 0.485,
      "velocity": 0.85,
      "hand": "right"
    },
    {
      "midi": 71,
      "time": 52,
      "duration": 0.318,
      "velocity": 0.68,
      "hand": "right"
    },
    {
      "midi": 74,
      "time": 52,
      "duration": 0.651,
      "velocity": 0.72,
      "hand": "right"
    },
    {
      "midi": 79,
      "time": 52,
      "duration": 1.318,
      "velocity": 0.76,
      "hand": "right"
    },
    {
      "midi": 51,
      "time": 52.333,
      "duration": 0.083,
      "velocity": 0.54,
      "hand": "left"
    },
    {
      "midi": 62,
      "time": 52.333,
      "duration": 0.152,
      "velocity": 1,
      "hand": "right"
    },
    {
      "midi": 71,
      "time": 52.333,
      "duration": 0.152,
      "velocity": 0.81,
      "hand": "right"
    },
    {
      "midi": 59,
      "time": 52.5,
      "duration": 0.151,
      "velocity": 0.64,
      "hand": "left"
    },
    {
      "midi": 62,
      "time": 52.5,
      "duration": 0.151,
      "velocity": 0.9,
      "hand": "right"
    },
    {
      "midi": 67,
      "time": 52.5,
      "duration": 0.318,
      "velocity": 0.89,
      "hand": "right"
    },
    {
      "midi": 71,
      "time": 52.5,
      "duration": 0.318,
      "velocity": 0.78,
      "hand": "right"
    },
    {
      "midi": 38,
      "time": 52.666,
      "duration": 0.083,
      "velocity": 0.91,
      "hand": "left"
    },
    {
      "midi": 51,
      "time": 52.666,
      "duration": 0.083,
      "velocity": 0.78,
      "hand": "left"
    },
    {
      "midi": 62,
      "time": 52.666,
      "duration": 0.152,
      "velocity": 1,
      "hand": "right"
    },
    {
      "midi": 74,
      "time": 52.666,
      "duration": 0.083,
      "velocity": 0.92,
      "hand": "right"
    },
    {
      "midi": 43,
      "time": 52.833,
      "duration": 0.333,
      "velocity": 0.9,
      "hand": "left"
    },
    {
      "midi": 47,
      "time": 52.833,
      "duration": 0.083,
      "velocity": 0.58,
      "hand": "left"
    },
    {
      "midi": 62,
      "time": 52.833,
      "duration": 0.152,
      "velocity": 0.7,
      "hand": "right"
    },
    {
      "midi": 67,
      "time": 52.833,
      "duration": 0.318,
      "velocity": 0.83,
      "hand": "right"
    },
    {
      "midi": 71,
      "time": 52.833,
      "duration": 0.152,
      "velocity": 0.69,
      "hand": "right"
    },
    {
      "midi": 51,
      "time": 53,
      "duration": 0.083,
      "velocity": 0.46,
      "hand": "left"
    },
    {
      "midi": 55,
      "time": 53,
      "duration": 0.151,
      "velocity": 0.65,
      "hand": "left"
    },
    {
      "midi": 62,
      "time": 53,
      "duration": 0.151,
      "velocity": 1,
      "hand": "right"
    },
    {
      "midi": 71,
      "time": 53,
      "duration": 0.318,
      "velocity": 0.86,
      "hand": "right"
    },
    {
      "midi": 55,
      "time": 53.166,
      "duration": 0.152,
      "velocity": 0.64,
      "hand": "left"
    },
    {
      "midi": 59,
      "time": 53.166,
      "duration": 0.152,
      "velocity": 0.67,
      "hand": "left"
    },
    {
      "midi": 62,
      "time": 53.166,
      "duration": 0.152,
      "velocity": 0.64,
      "hand": "right"
    },
    {
      "midi": 67,
      "time": 53.166,
      "duration": 0.152,
      "velocity": 0.55,
      "hand": "right"
    },
    {
      "midi": 43,
      "time": 53.333,
      "duration": 0.667,
      "velocity": 0.87,
      "hand": "left"
    },
    {
      "midi": 47,
      "time": 53.333,
      "duration": 0.083,
      "velocity": 0.77,
      "hand": "left"
    },
    {
      "midi": 67,
      "time": 53.333,
      "duration": 0.318,
      "velocity": 1,
      "hand": "right"
    },
    {
      "midi": 71,
      "time": 53.333,
      "duration": 0.318,
      "velocity": 0.71,
      "hand": "right"
    },
    {
      "midi": 74,
      "time": 53.333,
      "duration": 0.652,
      "velocity": 0.71,
      "hand": "right"
    },
    {
      "midi": 79,
      "time": 53.333,
      "duration": 1.318,
      "velocity": 0.71,
      "hand": "right"
    },
    {
      "midi": 51,
      "time": 53.666,
      "duration": 0.083,
      "velocity": 0.51,
      "hand": "left"
    },
    {
      "midi": 67,
      "time": 53.666,
      "duration": 0.083,
      "velocity": 1,
      "hand": "right"
    },
    {
      "midi": 71,
      "time": 53.666,
      "duration": 0.152,
      "velocity": 0.81,
      "hand": "right"
    },
    {
      "midi": 67,
      "time": 53.833,
      "duration": 0.152,
      "velocity": 0.79,
      "hand": "right"
    },
    {
      "midi": 71,
      "time": 53.833,
      "duration": 0.485,
      "velocity": 0.83,
      "hand": "right"
    },
    {
      "midi": 38,
      "time": 54,
      "duration": 0.083,
      "velocity": 0.91,
      "hand": "left"
    },
    {
      "midi": 51,
      "time": 54,
      "duration": 0.083,
      "velocity": 0.74,
      "hand": "left"
    },
    {
      "midi": 67,
      "time": 54,
      "duration": 0.151,
      "velocity": 1,
      "hand": "right"
    },
    {
      "midi": 74,
      "time": 54,
      "duration": 0.083,
      "velocity": 0.79,
      "hand": "right"
    },
    {
      "midi": 62,
      "time": 54.166,
      "duration": 0.152,
      "velocity": 0.64,
      "hand": "right"
    },
    {
      "midi": 67,
      "time": 54.166,
      "duration": 0.319,
      "velocity": 0.67,
      "hand": "right"
    },
    {
      "midi": 43,
      "time": 54.333,
      "duration": 0.083,
      "velocity": 0.85,
      "hand": "left"
    },
    {
      "midi": 47,
      "time": 54.333,
      "duration": 0.083,
      "velocity": 0.67,
      "hand": "left"
    },
    {
      "midi": 62,
      "time": 54.333,
      "duration": 0.152,
      "velocity": 0.54,
      "hand": "right"
    },
    {
      "midi": 69,
      "time": 54.333,
      "duration": 0.167,
      "velocity": 1,
      "hand": "right"
    },
    {
      "midi": 71,
      "time": 54.333,
      "duration": 0.167,
      "velocity": 0.74,
      "hand": "right"
    },
    {
      "midi": 62,
      "time": 54.5,
      "duration": 0.151,
      "velocity": 0.58,
      "hand": "right"
    },
    {
      "midi": 67,
      "time": 54.5,
      "duration": 0.151,
      "velocity": 0.59,
      "hand": "right"
    },
    {
      "midi": 43,
      "time": 54.666,
      "duration": 2.167,
      "velocity": 0.86,
      "hand": "left"
    },
    {
      "midi": 47,
      "time": 54.666,
      "duration": 0.083,
      "velocity": 0.83,
      "hand": "left"
    },
    {
      "midi": 67,
      "time": 54.666,
      "duration": 0.485,
      "velocity": 1,
      "hand": "right"
    },
    {
      "midi": 71,
      "time": 54.666,
      "duration": 0.319,
      "velocity": 0.68,
      "hand": "right"
    },
    {
      "midi": 74,
      "time": 54.666,
      "duration": 0.485,
      "velocity": 0.74,
      "hand": "right"
    },
    {
      "midi": 79,
      "time": 54.666,
      "duration": 1.833,
      "velocity": 0.76,
      "hand": "right"
    },
    {
      "midi": 51,
      "time": 55,
      "duration": 0.083,
      "velocity": 0.43,
      "hand": "left"
    },
    {
      "midi": 71,
      "time": 55,
      "duration": 0.151,
      "velocity": 0.76,
      "hand": "right"
    },
    {
      "midi": 59,
      "time": 55.166,
      "duration": 0.152,
      "velocity": 0.61,
      "hand": "left"
    },
    {
      "midi": 67,
      "time": 55.166,
      "duration": 0.319,
      "velocity": 0.87,
      "hand": "right"
    },
    {
      "midi": 69,
      "time": 55.166,
      "duration": 0.167,
      "velocity": 1,
      "hand": "right"
    },
    {
      "midi": 71,
      "time": 55.166,
      "duration": 0.319,
      "velocity": 0.79,
      "hand": "right"
    },
    {
      "midi": 74,
      "time": 55.166,
      "duration": 0.167,
      "velocity": 0.76,
      "hand": "right"
    },
    {
      "midi": 38,
      "time": 55.333,
      "duration": 0.083,
      "velocity": 0.91,
      "hand": "left"
    },
    {
      "midi": 51,
      "time": 55.333,
      "duration": 0.083,
      "velocity": 0.72,
      "hand": "left"
    },
    {
      "midi": 59,
      "time": 55.5,
      "duration": 0.151,
      "velocity": 0.59,
      "hand": "left"
    },
    {
      "midi": 62,
      "time": 55.5,
      "duration": 0.151,
      "velocity": 0.63,
      "hand": "right"
    },
    {
      "midi": 67,
      "time": 55.5,
      "duration": 0.318,
      "velocity": 0.73,
      "hand": "right"
    },
    {
      "midi": 71,
      "time": 55.5,
      "duration": 0.151,
      "velocity": 0.76,
      "hand": "right"
    },
    {
      "midi": 51,
      "time": 55.666,
      "duration": 0.083,
      "velocity": 0.54,
      "hand": "left"
    },
    {
      "midi": 55,
      "time": 55.666,
      "duration": 0.167,
      "velocity": 0.69,
      "hand": "left"
    },
    {
      "midi": 62,
      "time": 55.666,
      "duration": 0.152,
      "velocity": 0.67,
      "hand": "right"
    },
    {
      "midi": 71,
      "time": 55.666,
      "duration": 2,
      "velocity": 1,
      "hand": "right"
    },
    {
      "midi": 67,
      "time": 55.833,
      "duration": 0.083,
      "velocity": 0.56,
      "hand": "right"
    },
    {
      "midi": 70,
      "time": 55.833,
      "duration": 0.083,
      "velocity": 0.71,
      "hand": "right"
    },
    {
      "midi": 73,
      "time": 55.833,
      "duration": 0.083,
      "velocity": 0.71,
      "hand": "right"
    },
    {
      "midi": 78,
      "time": 55.833,
      "duration": 0.083,
      "velocity": 0.71,
      "hand": "right"
    },
    {
      "midi": 38,
      "time": 56,
      "duration": 0.651,
      "velocity": 0.9,
      "hand": "left"
    },
    {
      "midi": 47,
      "time": 56,
      "duration": 0.083,
      "velocity": 0.82,
      "hand": "left"
    },
    {
      "midi": 66,
      "time": 56,
      "duration": 0.318,
      "velocity": 0.72,
      "hand": "right"
    },
    {
      "midi": 69,
      "time": 56,
      "duration": 1.318,
      "velocity": 0.71,
      "hand": "right"
    },
    {
      "midi": 72,
      "time": 56,
      "duration": 0.651,
      "velocity": 0.71,
      "hand": "right"
    },
    {
      "midi": 78,
      "time": 56,
      "duration": 2.667,
      "velocity": 0.63,
      "hand": "right"
    },
    {
      "midi": 51,
      "time": 56.333,
      "duration": 0.083,
      "velocity": 0.44,
      "hand": "left"
    },
    {
      "midi": 66,
      "time": 56.333,
      "duration": 0.152,
      "velocity": 0.69,
      "hand": "right"
    },
    {
      "midi": 54,
      "time": 56.5,
      "duration": 0.318,
      "velocity": 0.61,
      "hand": "left"
    },
    {
      "midi": 60,
      "time": 56.5,
      "duration": 0.318,
      "velocity": 0.84,
      "hand": "right"
    },
    {
      "midi": 62,
      "time": 56.5,
      "duration": 0.651,
      "velocity": 0.87,
      "hand": "right"
    },
    {
      "midi": 66,
      "time": 56.5,
      "duration": 0.485,
      "velocity": 0.82,
      "hand": "right"
    },
    {
      "midi": 38,
      "time": 56.666,
      "duration": 0.083,
      "velocity": 0.91,
      "hand": "left"
    },
    {
      "midi": 51,
      "time": 56.666,
      "duration": 0.083,
      "velocity": 0.74,
      "hand": "left"
    },
    {
      "midi": 72,
      "time": 56.666,
      "duration": 0.333,
      "velocity": 0.82,
      "hand": "right"
    },
    {
      "midi": 54,
      "time": 56.833,
      "duration": 0.152,
      "velocity": 0.61,
      "hand": "left"
    },
    {
      "midi": 60,
      "time": 56.833,
      "duration": 0.152,
      "velocity": 0.68,
      "hand": "right"
    },
    {
      "midi": 38,
      "time": 57,
      "duration": 0.083,
      "velocity": 0.86,
      "hand": "left"
    },
    {
      "midi": 47,
      "time": 57,
      "duration": 0.083,
      "velocity": 0.72,
      "hand": "left"
    },
    {
      "midi": 60,
      "time": 57,
      "duration": 0.151,
      "velocity": 0.65,
      "hand": "right"
    },
    {
      "midi": 66,
      "time": 57,
      "duration": 0.151,
      "velocity": 0.76,
      "hand": "right"
    },
    {
      "midi": 60,
      "time": 57.166,
      "duration": 0.152,
      "velocity": 0.65,
      "hand": "right"
    },
    {
      "midi": 62,
      "time": 57.166,
      "duration": 0.152,
      "velocity": 0.66,
      "hand": "right"
    },
    {
      "midi": 66,
      "time": 57.166,
      "duration": 0.152,
      "velocity": 0.48,
      "hand": "right"
    },
    {
      "midi": 38,
      "time": 57.333,
      "duration": 0.652,
      "velocity": 0.83,
      "hand": "left"
    },
    {
      "midi": 47,
      "time": 57.333,
      "duration": 0.083,
      "velocity": 0.73,
      "hand": "left"
    },
    {
      "midi": 62,
      "time": 57.333,
      "duration": 0.485,
      "velocity": 0.87,
      "hand": "right"
    },
    {
      "midi": 66,
      "time": 57.333,
      "duration": 0.318,
      "velocity": 0.71,
      "hand": "right"
    },
    {
      "midi": 69,
      "time": 57.333,
      "duration": 0.318,
      "velocity": 0.46,
      "hand": "right"
    },
    {
      "midi": 72,
      "time": 57.333,
      "duration": 0.652,
      "velocity": 0.74,
      "hand": "right"
    },
    {
      "midi": 51,
      "time": 57.666,
      "duration": 0.083,
      "velocity": 0.52,
      "hand": "left"
    },
    {
      "midi": 66,
      "time": 57.666,
      "duration": 0.152,
      "velocity": 0.74,
      "hand": "right"
    },
    {
      "midi": 69,
      "time": 57.666,
      "duration": 0.167,
      "velocity": 1,
      "hand": "right"
    },
    {
      "midi": 60,
      "time": 57.833,
      "duration": 0.318,
      "velocity": 0.83,
      "hand": "right"
    },
    {
      "midi": 62,
      "time": 57.833,
      "duration": 0.318,
      "velocity": 0.87,
      "hand": "right"
    },
    {
      "midi": 66,
      "time": 57.833,
      "duration": 0.318,
      "velocity": 0.76,
      "hand": "right"
    },
    {
      "midi": 38,
      "time": 58,
      "duration": 0.083,
      "velocity": 0.91,
      "hand": "left"
    },
    {
      "midi": 51,
      "time": 58,
      "duration": 0.083,
      "velocity": 0.71,
      "hand": "left"
    },
    {
      "midi": 64,
      "time": 58,
      "duration": 0.167,
      "velocity": 1,
      "hand": "right"
    },
    {
      "midi": 72,
      "time": 58,
      "duration": 0.5,
      "velocity": 0.76,
      "hand": "right"
    },
    {
      "midi": 60,
      "time": 58.166,
      "duration": 0.5,
      "velocity": 0.71,
      "hand": "right"
    },
    {
      "midi": 62,
      "time": 58.166,
      "duration": 0.485,
      "velocity": 0.8,
      "hand": "right"
    },
    {
      "midi": 66,
      "time": 58.166,
      "duration": 0.152,
      "velocity": 0.59,
      "hand": "right"
    },
    {
      "midi": 51,
      "time": 58.333,
      "duration": 0.083,
      "velocity": 0.38,
      "hand": "left"
    },
    {
      "midi": 66,
      "time": 58.333,
      "duration": 0.333,
      "velocity": 1,
      "hand": "right"
    },
    {
      "midi": 38,
      "time": 58.5,
      "duration": 0.083,
      "velocity": 0.86,
      "hand": "left"
    },
    {
      "midi": 47,
      "time": 58.5,
      "duration": 0.083,
      "velocity": 0.39,
      "hand": "left"
    },
    {
      "midi": 43,
      "time": 58.666,
      "duration": 0.985,
      "velocity": 0.91,
      "hand": "left"
    },
    {
      "midi": 47,
      "time": 58.666,
      "duration": 0.083,
      "velocity": 0.86,
      "hand": "left"
    },
    {
      "midi": 71,
      "time": 58.666,
      "duration": 0.319,
      "velocity": 0.71,
      "hand": "right"
    },
    {
      "midi": 74,
      "time": 58.666,
      "duration": 0.652,
      "velocity": 0.71,
      "hand": "right"
    },
    {
      "midi": 79,
      "time": 58.666,
      "duration": 2.333,
      "velocity": 0.68,
      "hand": "right"
    },
    {
      "midi": 83,
      "time": 58.666,
      "duration": 5.333,
      "velocity": 0.63,
      "hand": "right"
    },
    {
      "midi": 51,
      "time": 59,
      "duration": 0.083,
      "velocity": 0.46,
      "hand": "left"
    },
    {
      "midi": 71,
      "time": 59,
      "duration": 0.151,
      "velocity": 0.79,
      "hand": "right"
    },
    {
      "midi": 67,
      "time": 59.166,
      "duration": 0.319,
      "velocity": 0.73,
      "hand": "right"
    },
    {
      "midi": 71,
      "time": 59.166,
      "duration": 0.485,
      "velocity": 0.72,
      "hand": "right"
    },
    {
      "midi": 38,
      "time": 59.333,
      "duration": 0.083,
      "velocity": 0.91,
      "hand": "left"
    },
    {
      "midi": 51,
      "time": 59.333,
      "duration": 0.083,
      "velocity": 0.82,
      "hand": "left"
    },
    {
      "midi": 62,
      "time": 59.333,
      "duration": 0.152,
      "velocity": 1,
      "hand": "right"
    },
    {
      "midi": 74,
      "time": 59.333,
      "duration": 0.167,
      "velocity": 0.89,
      "hand": "right"
    },
    {
      "midi": 62,
      "time": 59.5,
      "duration": 0.151,
      "velocity": 0.59,
      "hand": "right"
    },
    {
      "midi": 67,
      "time": 59.5,
      "duration": 0.333,
      "velocity": 0.81,
      "hand": "right"
    },
    {
      "midi": 43,
      "time": 59.666,
      "duration": 0.083,
      "velocity": 0.89,
      "hand": "left"
    },
    {
      "midi": 47,
      "time": 59.666,
      "duration": 0.083,
      "velocity": 0.59,
      "hand": "left"
    },
    {
      "midi": 62,
      "time": 59.666,
      "duration": 0.152,
      "velocity": 1,
      "hand": "right"
    },
    {
      "midi": 71,
      "time": 59.666,
      "duration": 0.319,
      "velocity": 0.79,
      "hand": "right"
    },
    {
      "midi": 62,
      "time": 59.833,
      "duration": 0.152,
      "velocity": 0.58,
      "hand": "right"
    },
    {
      "midi": 43,
      "time": 60,
      "duration": 1.167,
      "velocity": 0.83,
      "hand": "left"
    },
    {
      "midi": 47,
      "time": 60,
      "duration": 0.083,
      "velocity": 0.8,
      "hand": "left"
    },
    {
      "midi": 62,
      "time": 60,
      "duration": 0.485,
      "velocity": 0.88,
      "hand": "right"
    },
    {
      "midi": 67,
      "time": 60,
      "duration": 0.318,
      "velocity": 1,
      "hand": "right"
    },
    {
      "midi": 71,
      "time": 60,
      "duration": 0.318,
      "velocity": 0.66,
      "hand": "right"
    },
    {
      "midi": 51,
      "time": 60.333,
      "duration": 0.083,
      "velocity": 0.5,
      "hand": "left"
    },
    {
      "midi": 67,
      "time": 60.333,
      "duration": 0.152,
      "velocity": 1,
      "hand": "right"
    },
    {
      "midi": 71,
      "time": 60.333,
      "duration": 0.083,
      "velocity": 0.86,
      "hand": "right"
    },
    {
      "midi": 62,
      "time": 60.5,
      "duration": 0.318,
      "velocity": 0.65,
      "hand": "right"
    },
    {
      "midi": 67,
      "time": 60.5,
      "duration": 0.151,
      "velocity": 0.91,
      "hand": "right"
    },
    {
      "midi": 71,
      "time": 60.5,
      "duration": 0.318,
      "velocity": 0.73,
      "hand": "right"
    },
    {
      "midi": 38,
      "time": 60.666,
      "duration": 0.083,
      "velocity": 0.91,
      "hand": "left"
    },
    {
      "midi": 51,
      "time": 60.666,
      "duration": 0.083,
      "velocity": 0.74,
      "hand": "left"
    },
    {
      "midi": 67,
      "time": 60.666,
      "duration": 0.167,
      "velocity": 1,
      "hand": "right"
    },
    {
      "midi": 74,
      "time": 60.666,
      "duration": 0.083,
      "velocity": 0.81,
      "hand": "right"
    },
    {
      "midi": 59,
      "time": 60.833,
      "duration": 0.167,
      "velocity": 0.66,
      "hand": "left"
    },
    {
      "midi": 62,
      "time": 60.833,
      "duration": 0.318,
      "velocity": 0.68,
      "hand": "right"
    },
    {
      "midi": 71,
      "time": 60.833,
      "duration": 0.152,
      "velocity": 0.56,
      "hand": "right"
    },
    {
      "midi": 51,
      "time": 61,
      "duration": 0.083,
      "velocity": 0.46,
      "hand": "left"
    },
    {
      "midi": 55,
      "time": 61,
      "duration": 0.318,
      "velocity": 0.63,
      "hand": "left"
    },
    {
      "midi": 69,
      "time": 61,
      "duration": 0.167,
      "velocity": 1,
      "hand": "right"
    },
    {
      "midi": 71,
      "time": 61,
      "duration": 0.151,
      "velocity": 0.83,
      "hand": "right"
    },
    {
      "midi": 59,
      "time": 61.166,
      "duration": 0.152,
      "velocity": 0.54,
      "hand": "left"
    },
    {
      "midi": 62,
      "time": 61.166,
      "duration": 0.152,
      "velocity": 0.61,
      "hand": "right"
    },
    {
      "midi": 67,
      "time": 61.166,
      "duration": 0.152,
      "velocity": 0.72,
      "hand": "right"
    },
    {
      "midi": 71,
      "time": 61.166,
      "duration": 0.152,
      "velocity": 0.61,
      "hand": "right"
    },
    {
      "midi": 43,
      "time": 61.333,
      "duration": 0.985,
      "velocity": 0.91,
      "hand": "left"
    },
    {
      "midi": 47,
      "time": 61.333,
      "duration": 0.083,
      "velocity": 0.8,
      "hand": "left"
    },
    {
      "midi": 67,
      "time": 61.333,
      "duration": 0.485,
      "velocity": 1,
      "hand": "right"
    },
    {
      "midi": 71,
      "time": 61.333,
      "duration": 0.318,
      "velocity": 0.73,
      "hand": "right"
    },
    {
      "midi": 74,
      "time": 61.333,
      "duration": 0.652,
      "velocity": 0.72,
      "hand": "right"
    },
    {
      "midi": 79,
      "time": 61.333,
      "duration": 2.333,
      "velocity": 0.76,
      "hand": "right"
    },
    {
      "midi": 51,
      "time": 61.666,
      "duration": 0.083,
      "velocity": 0.4,
      "hand": "left"
    },
    {
      "midi": 71,
      "time": 61.666,
      "duration": 0.152,
      "velocity": 0.79,
      "hand": "right"
    },
    {
      "midi": 59,
      "time": 61.833,
      "duration": 0.485,
      "velocity": 0.54,
      "hand": "left"
    },
    {
      "midi": 62,
      "time": 61.833,
      "duration": 0.152,
      "velocity": 0.71,
      "hand": "right"
    },
    {
      "midi": 67,
      "time": 61.833,
      "duration": 0.652,
      "velocity": 0.9,
      "hand": "right"
    },
    {
      "midi": 71,
      "time": 61.833,
      "duration": 0.318,
      "velocity": 0.66,
      "hand": "right"
    },
    {
      "midi": 38,
      "time": 62,
      "duration": 0.083,
      "velocity": 0.91,
      "hand": "left"
    },
    {
      "midi": 51,
      "time": 62,
      "duration": 0.083,
      "velocity": 0.8,
      "hand": "left"
    },
    {
      "midi": 62,
      "time": 62,
      "duration": 0.318,
      "velocity": 0.7,
      "hand": "right"
    },
    {
      "midi": 69,
      "time": 62,
      "duration": 0.167,
      "velocity": 1,
      "hand": "right"
    },
    {
      "midi": 74,
      "time": 62,
      "duration": 0.167,
      "velocity": 0.83,
      "hand": "right"
    },
    {
      "midi": 71,
      "time": 62.166,
      "duration": 0.152,
      "velocity": 0.53,
      "hand": "right"
    },
    {
      "midi": 43,
      "time": 62.333,
      "duration": 0.083,
      "velocity": 0.87,
      "hand": "left"
    },
    {
      "midi": 47,
      "time": 62.333,
      "duration": 0.083,
      "velocity": 0.78,
      "hand": "left"
    },
    {
      "midi": 62,
      "time": 62.333,
      "duration": 0.152,
      "velocity": 0.64,
      "hand": "right"
    },
    {
      "midi": 71,
      "time": 62.333,
      "duration": 0.152,
      "velocity": 1,
      "hand": "right"
    },
    {
      "midi": 59,
      "time": 62.5,
      "duration": 0.151,
      "velocity": 0.63,
      "hand": "left"
    },
    {
      "midi": 62,
      "time": 62.5,
      "duration": 0.151,
      "velocity": 0.73,
      "hand": "right"
    },
    {
      "midi": 67,
      "time": 62.5,
      "duration": 0.151,
      "velocity": 0.7,
      "hand": "right"
    },
    {
      "midi": 71,
      "time": 62.5,
      "duration": 0.151,
      "velocity": 0.56,
      "hand": "right"
    },
    {
      "midi": 43,
      "time": 62.666,
      "duration": 0.667,
      "velocity": 0.85,
      "hand": "left"
    },
    {
      "midi": 47,
      "time": 62.666,
      "duration": 0.083,
      "velocity": 0.74,
      "hand": "left"
    },
    {
      "midi": 62,
      "time": 62.666,
      "duration": 0.485,
      "velocity": 0.81,
      "hand": "right"
    },
    {
      "midi": 67,
      "time": 62.666,
      "duration": 0.485,
      "velocity": 0.85,
      "hand": "right"
    },
    {
      "midi": 71,
      "time": 62.666,
      "duration": 0.319,
      "velocity": 0.65,
      "hand": "right"
    },
    {
      "midi": 51,
      "time": 63,
      "duration": 0.083,
      "velocity": 0.54,
      "hand": "left"
    },
    {
      "midi": 69,
      "time": 63,
      "duration": 0.333,
      "velocity": 1,
      "hand": "right"
    },
    {
      "midi": 71,
      "time": 63,
      "duration": 0.151,
      "velocity": 0.86,
      "hand": "right"
    },
    {
      "midi": 59,
      "time": 63.166,
      "duration": 0.152,
      "velocity": 0.64,
      "hand": "left"
    },
    {
      "midi": 62,
      "time": 63.166,
      "duration": 0.319,
      "velocity": 0.9,
      "hand": "right"
    },
    {
      "midi": 67,
      "time": 63.166,
      "duration": 0.152,
      "velocity": 0.89,
      "hand": "right"
    },
    {
      "midi": 71,
      "time": 63.166,
      "duration": 0.319,
      "velocity": 0.78,
      "hand": "right"
    },
    {
      "midi": 38,
      "time": 63.333,
      "duration": 0.083,
      "velocity": 0.91,
      "hand": "left"
    },
    {
      "midi": 51,
      "time": 63.333,
      "duration": 0.083,
      "velocity": 0.78,
      "hand": "left"
    },
    {
      "midi": 67,
      "time": 63.333,
      "duration": 0.152,
      "velocity": 1,
      "hand": "right"
    },
    {
      "midi": 74,
      "time": 63.333,
      "duration": 0.083,
      "velocity": 0.83,
      "hand": "right"
    },
    {
      "midi": 43,
      "time": 63.5,
      "duration": 0.333,
      "velocity": 0.9,
      "hand": "left"
    },
    {
      "midi": 47,
      "time": 63.5,
      "duration": 0.083,
      "velocity": 0.58,
      "hand": "left"
    },
    {
      "midi": 62,
      "time": 63.5,
      "duration": 0.318,
      "velocity": 0.7,
      "hand": "right"
    },
    {
      "midi": 67,
      "time": 63.5,
      "duration": 0.318,
      "velocity": 0.83,
      "hand": "right"
    },
    {
      "midi": 71,
      "time": 63.5,
      "duration": 0.151,
      "velocity": 0.69,
      "hand": "right"
    },
    {
      "midi": 51,
      "time": 63.666,
      "duration": 0.083,
      "velocity": 0.46,
      "hand": "left"
    },
    {
      "midi": 55,
      "time": 63.666,
      "duration": 0.152,
      "velocity": 0.65,
      "hand": "left"
    },
    {
      "midi": 66,
      "time": 63.666,
      "duration": 0.333,
      "velocity": 1,
      "hand": "right"
    },
    {
      "midi": 71,
      "time": 63.666,
      "duration": 0.167,
      "velocity": 0.79,
      "hand": "right"
    },
    {
      "midi": 55,
      "time": 63.833,
      "duration": 0.152,
      "velocity": 0.64,
      "hand": "left"
    },
    {
      "midi": 59,
      "time": 63.833,
      "duration": 0.152,
      "velocity": 0.67,
      "hand": "left"
    },
    {
      "midi": 62,
      "time": 63.833,
      "duration": 0.152,
      "velocity": 0.64,
      "hand": "right"
    },
    {
      "midi": 67,
      "time": 63.833,
      "duration": 0.152,
      "velocity": 0.55,
      "hand": "right"
    },
    {
      "midi": 43,
      "time": 64,
      "duration": 0.985,
      "velocity": 0.87,
      "hand": "left"
    },
    {
      "midi": 47,
      "time": 64,
      "duration": 0.083,
      "velocity": 0.77,
      "hand": "left"
    },
    {
      "midi": 67,
      "time": 64,
      "duration": 0.485,
      "velocity": 0.83,
      "hand": "right"
    },
    {
      "midi": 71,
      "time": 64,
      "duration": 0.318,
      "velocity": 0.71,
      "hand": "right"
    },
    {
      "midi": 74,
      "time": 64,
      "duration": 0.651,
      "velocity": 0.71,
      "hand": "right"
    },
    {
      "midi": 79,
      "time": 64,
      "duration": 2.651,
      "velocity": 0.74,
      "hand": "right"
    },
    {
      "midi": 51,
      "time": 64.333,
      "duration": 0.083,
      "velocity": 0.51,
      "hand": "left"
    },
    {
      "midi": 62,
      "time": 64.333,
      "duration": 0.167,
      "velocity": 1,
      "hand": "right"
    },
    {
      "midi": 71,
      "time": 64.333,
      "duration": 0.152,
      "velocity": 0.81,
      "hand": "right"
    },
    {
      "midi": 67,
      "time": 64.5,
      "duration": 0.318,
      "velocity": 0.79,
      "hand": "right"
    },
    {
      "midi": 71,
      "time": 64.5,
      "duration": 0.485,
      "velocity": 0.83,
      "hand": "right"
    },
    {
      "midi": 38,
      "time": 64.666,
      "duration": 0.083,
      "velocity": 0.91,
      "hand": "left"
    },
    {
      "midi": 51,
      "time": 64.666,
      "duration": 0.083,
      "velocity": 0.74,
      "hand": "left"
    },
    {
      "midi": 62,
      "time": 64.666,
      "duration": 0.152,
      "velocity": 1,
      "hand": "right"
    },
    {
      "midi": 74,
      "time": 64.666,
      "duration": 0.083,
      "velocity": 0.83,
      "hand": "right"
    },
    {
      "midi": 62,
      "time": 64.833,
      "duration": 0.152,
      "velocity": 0.64,
      "hand": "right"
    },
    {
      "midi": 67,
      "time": 64.833,
      "duration": 0.318,
      "velocity": 0.67,
      "hand": "right"
    },
    {
      "midi": 43,
      "time": 65,
      "duration": 0.083,
      "velocity": 0.85,
      "hand": "left"
    },
    {
      "midi": 47,
      "time": 65,
      "duration": 0.083,
      "velocity": 0.67,
      "hand": "left"
    },
    {
      "midi": 62,
      "time": 65,
      "duration": 0.151,
      "velocity": 1,
      "hand": "right"
    },
    {
      "midi": 71,
      "time": 65,
      "duration": 0.167,
      "velocity": 0.81,
      "hand": "right"
    },
    {
      "midi": 62,
      "time": 65.166,
      "duration": 0.152,
      "velocity": 0.58,
      "hand": "right"
    },
    {
      "midi": 67,
      "time": 65.166,
      "duration": 0.152,
      "velocity": 0.59,
      "hand": "right"
    },
    {
      "midi": 43,
      "time": 65.333,
      "duration": 1.167,
      "velocity": 0.86,
      "hand": "left"
    },
    {
      "midi": 47,
      "time": 65.333,
      "duration": 0.083,
      "velocity": 0.83,
      "hand": "left"
    },
    {
      "midi": 62,
      "time": 65.333,
      "duration": 0.485,
      "velocity": 0.74,
      "hand": "right"
    },
    {
      "midi": 67,
      "time": 65.333,
      "duration": 0.318,
      "velocity": 1,
      "hand": "right"
    },
    {
      "midi": 71,
      "time": 65.333,
      "duration": 0.318,
      "velocity": 0.53,
      "hand": "right"
    },
    {
      "midi": 51,
      "time": 65.666,
      "duration": 0.083,
      "velocity": 0.43,
      "hand": "left"
    },
    {
      "midi": 67,
      "time": 65.666,
      "duration": 0.083,
      "velocity": 1,
      "hand": "right"
    },
    {
      "midi": 71,
      "time": 65.666,
      "duration": 0.152,
      "velocity": 0.83,
      "hand": "right"
    },
    {
      "midi": 59,
      "time": 65.833,
      "duration": 0.152,
      "velocity": 0.61,
      "hand": "left"
    },
    {
      "midi": 62,
      "time": 65.833,
      "duration": 0.318,
      "velocity": 0.84,
      "hand": "right"
    },
    {
      "midi": 67,
      "time": 65.833,
      "duration": 0.318,
      "velocity": 1,
      "hand": "right"
    },
    {
      "midi": 71,
      "time": 65.833,
      "duration": 0.318,
      "velocity": 0.79,
      "hand": "right"
    },
    {
      "midi": 38,
      "time": 66,
      "duration": 0.083,
      "velocity": 0.91,
      "hand": "left"
    },
    {
      "midi": 51,
      "time": 66,
      "duration": 0.083,
      "velocity": 0.72,
      "hand": "left"
    },
    {
      "midi": 74,
      "time": 66,
      "duration": 0.083,
      "velocity": 0.86,
      "hand": "right"
    },
    {
      "midi": 59,
      "time": 66.166,
      "duration": 0.152,
      "velocity": 0.59,
      "hand": "left"
    },
    {
      "midi": 62,
      "time": 66.166,
      "duration": 0.152,
      "velocity": 0.63,
      "hand": "right"
    },
    {
      "midi": 67,
      "time": 66.166,
      "duration": 0.319,
      "velocity": 0.73,
      "hand": "right"
    },
    {
      "midi": 69,
      "time": 66.166,
      "duration": 0.083,
      "velocity": 1,
      "hand": "right"
    },
    {
      "midi": 71,
      "time": 66.166,
      "duration": 0.152,
      "velocity": 0.58,
      "hand": "right"
    },
    {
      "midi": 51,
      "time": 66.333,
      "duration": 0.083,
      "velocity": 0.54,
      "hand": "left"
    },
    {
      "midi": 55,
      "time": 66.333,
      "duration": 0.318,
      "velocity": 0.69,
      "hand": "left"
    },
    {
      "midi": 62,
      "time": 66.333,
      "duration": 0.152,
      "velocity": 0.67,
      "hand": "right"
    },
    {
      "midi": 71,
      "time": 66.333,
      "duration": 0.167,
      "velocity": 0.83,
      "hand": "right"
    },
    {
      "midi": 62,
      "time": 66.5,
      "duration": 0.151,
      "velocity": 0.64,
      "hand": "right"
    },
    {
      "midi": 67,
      "time": 66.5,
      "duration": 0.151,
      "velocity": 1,
      "hand": "right"
    },
    {
      "midi": 43,
      "time": 66.666,
      "duration": 0.985,
      "velocity": 0.9,
      "hand": "left"
    },
    {
      "midi": 47,
      "time": 66.666,
      "duration": 0.083,
      "velocity": 0.82,
      "hand": "left"
    },
    {
      "midi": 67,
      "time": 66.666,
      "duration": 0.485,
      "velocity": 0.86,
      "hand": "right"
    },
    {
      "midi": 71,
      "time": 66.666,
      "duration": 0.319,
      "velocity": 0.72,
      "hand": "right"
    },
    {
      "midi": 74,
      "time": 66.666,
      "duration": 0.652,
      "velocity": 0.76,
      "hand": "right"
    },
    {
      "midi": 79,
      "time": 66.666,
      "duration": 1.5,
      "velocity": 0.79,
      "hand": "right"
    },
    {
      "midi": 51,
      "time": 67,
      "duration": 0.083,
      "velocity": 0.44,
      "hand": "left"
    },
    {
      "midi": 71,
      "time": 67,
      "duration": 0.151,
      "velocity": 0.81,
      "hand": "right"
    },
    {
      "midi": 59,
      "time": 67.166,
      "duration": 0.319,
      "velocity": 0.61,
      "hand": "left"
    },
    {
      "midi": 62,
      "time": 67.166,
      "duration": 0.319,
      "velocity": 0.84,
      "hand": "right"
    },
    {
      "midi": 67,
      "time": 67.166,
      "duration": 0.652,
      "velocity": 0.87,
      "hand": "right"
    },
    {
      "midi": 71,
      "time": 67.166,
      "duration": 0.485,
      "velocity": 0.82,
      "hand": "right"
    },
    {
      "midi": 38,
      "time": 67.333,
      "duration": 0.083,
      "velocity": 0.91,
      "hand": "left"
    },
    {
      "midi": 51,
      "time": 67.333,
      "duration": 0.083,
      "velocity": 0.74,
      "hand": "left"
    },
    {
      "midi": 69,
      "time": 67.333,
      "duration": 0.167,
      "velocity": 1,
      "hand": "right"
    },
    {
      "midi": 74,
      "time": 67.333,
      "duration": 0.167,
      "velocity": 0.86,
      "hand": "right"
    },
    {
      "midi": 59,
      "time": 67.5,
      "duration": 0.151,
      "velocity": 0.61,
      "hand": "left"
    },
    {
      "midi": 62,
      "time": 67.5,
      "duration": 0.151,
      "velocity": 0.68,
      "hand": "right"
    },
    {
      "midi": 43,
      "time": 67.666,
      "duration": 0.083,
      "velocity": 0.86,
      "hand": "left"
    },
    {
      "midi": 47,
      "time": 67.666,
      "duration": 0.083,
      "velocity": 0.72,
      "hand": "left"
    },
    {
      "midi": 62,
      "time": 67.666,
      "duration": 0.152,
      "velocity": 0.65,
      "hand": "right"
    },
    {
      "midi": 71,
      "time": 67.666,
      "duration": 0.152,
      "velocity": 1,
      "hand": "right"
    },
    {
      "midi": 62,
      "time": 67.833,
      "duration": 0.152,
      "velocity": 0.65,
      "hand": "right"
    },
    {
      "midi": 67,
      "time": 67.833,
      "duration": 0.167,
      "velocity": 0.66,
      "hand": "right"
    },
    {
      "midi": 71,
      "time": 67.833,
      "duration": 0.167,
      "velocity": 0.48,
      "hand": "right"
    },
    {
      "midi": 38,
      "time": 68,
      "duration": 0.651,
      "velocity": 0.83,
      "hand": "left"
    },
    {
      "midi": 47,
      "time": 68,
      "duration": 0.083,
      "velocity": 0.73,
      "hand": "left"
    },
    {
      "midi": 66,
      "time": 68,
      "duration": 0.318,
      "velocity": 0.71,
      "hand": "right"
    },
    {
      "midi": 69,
      "time": 68,
      "duration": 1.318,
      "velocity": 0.71,
      "hand": "right"
    },
    {
      "midi": 72,
      "time": 68,
      "duration": 0.651,
      "velocity": 0.71,
      "hand": "right"
    },
    {
      "midi": 78,
      "time": 68,
      "duration": 1.333,
      "velocity": 0.63,
      "hand": "right"
    },
    {
      "midi": 51,
      "time": 68.333,
      "duration": 0.083,
      "velocity": 0.52,
      "hand": "left"
    },
    {
      "midi": 66,
      "time": 68.333,
      "duration": 0.152,
      "velocity": 0.72,
      "hand": "right"
    },
    {
      "midi": 60,
      "time": 68.5,
      "duration": 0.318,
      "velocity": 0.83,
      "hand": "right"
    },
    {
      "midi": 62,
      "time": 68.5,
      "duration": 0.318,
      "velocity": 0.87,
      "hand": "right"
    },
    {
      "midi": 66,
      "time": 68.5,
      "duration": 0.318,
      "velocity": 0.76,
      "hand": "right"
    },
    {
      "midi": 38,
      "time": 68.666,
      "duration": 0.083,
      "velocity": 0.91,
      "hand": "left"
    },
    {
      "midi": 51,
      "time": 68.666,
      "duration": 0.083,
      "velocity": 0.71,
      "hand": "left"
    },
    {
      "midi": 72,
      "time": 68.666,
      "duration": 0.333,
      "velocity": 0.85,
      "hand": "right"
    },
    {
      "midi": 60,
      "time": 68.833,
      "duration": 0.485,
      "velocity": 0.71,
      "hand": "right"
    },
    {
      "midi": 62,
      "time": 68.833,
      "duration": 0.485,
      "velocity": 0.8,
      "hand": "right"
    },
    {
      "midi": 66,
      "time": 68.833,
      "duration": 0.152,
      "velocity": 0.59,
      "hand": "right"
    },
    {
      "midi": 51,
      "time": 69,
      "duration": 0.083,
      "velocity": 0.38,
      "hand": "left"
    },
    {
      "midi": 66,
      "time": 69,
      "duration": 0.318,
      "velocity": 0.76,
      "hand": "right"
    },
    {
      "midi": 38,
      "time": 69.166,
      "duration": 0.083,
      "velocity": 0.86,
      "hand": "left"
    },
    {
      "midi": 47,
      "time": 69.166,
      "duration": 0.083,
      "velocity": 0.39,
      "hand": "left"
    },
    {
      "midi": 38,
      "time": 69.333,
      "duration": 0.652,
      "velocity": 0.91,
      "hand": "left"
    },
    {
      "midi": 47,
      "time": 69.333,
      "duration": 0.083,
      "velocity": 0.86,
      "hand": "left"
    },
    {
      "midi": 66,
      "time": 69.333,
      "duration": 0.318,
      "velocity": 0.71,
      "hand": "right"
    },
    {
      "midi": 69,
      "time": 69.333,
      "duration": 0.318,
      "velocity": 0.71,
      "hand": "right"
    },
    {
      "midi": 72,
      "time": 69.333,
      "duration": 0.652,
      "velocity": 0.82,
      "hand": "right"
    },
    {
      "midi": 74,
      "time": 69.333,
      "duration": 1.318,
      "velocity": 0.63,
      "hand": "right"
    },
    {
      "midi": 51,
      "time": 69.666,
      "duration": 0.083,
      "velocity": 0.46,
      "hand": "left"
    },
    {
      "midi": 66,
      "time": 69.666,
      "duration": 0.152,
      "velocity": 0.74,
      "hand": "right"
    },
    {
      "midi": 69,
      "time": 69.666,
      "duration": 0.167,
      "velocity": 1,
      "hand": "right"
    },
    {
      "midi": 62,
      "time": 69.833,
      "duration": 0.318,
      "velocity": 0.73,
      "hand": "right"
    },
    {
      "midi": 66,
      "time": 69.833,
      "duration": 0.485,
      "velocity": 0.72,
      "hand": "right"
    },
    {
      "midi": 38,
      "time": 70,
      "duration": 0.083,
      "velocity": 0.91,
      "hand": "left"
    },
    {
      "midi": 51,
      "time": 70,
      "duration": 0.083,
      "velocity": 0.82,
      "hand": "left"
    },
    {
      "midi": 64,
      "time": 70,
      "duration": 0.167,
      "velocity": 1,
      "hand": "right"
    },
    {
      "midi": 72,
      "time": 70,
      "duration": 0.667,
      "velocity": 0.85,
      "hand": "right"
    },
    {
      "midi": 60,
      "time": 70.166,
      "duration": 0.319,
      "velocity": 0.59,
      "hand": "right"
    },
    {
      "midi": 62,
      "time": 70.166,
      "duration": 0.333,
      "velocity": 0.81,
      "hand": "right"
    },
    {
      "midi": 38,
      "time": 70.333,
      "duration": 0.083,
      "velocity": 0.89,
      "hand": "left"
    },
    {
      "midi": 47,
      "time": 70.333,
      "duration": 0.083,
      "velocity": 0.59,
      "hand": "left"
    },
    {
      "midi": 66,
      "time": 70.333,
      "duration": 0.318,
      "velocity": 1,
      "hand": "right"
    },
    {
      "midi": 60,
      "time": 70.5,
      "duration": 0.151,
      "velocity": 0.58,
      "hand": "right"
    },
    {
      "midi": 38,
      "time": 70.666,
      "duration": 0.083,
      "velocity": 0.83,
      "hand": "left"
    },
    {
      "midi": 43,
      "time": 70.666,
      "duration": 1.319,
      "velocity": 0.83,
      "hand": "left"
    },
    {
      "midi": 71,
      "time": 70.666,
      "duration": 0.319,
      "velocity": 0.71,
      "hand": "right"
    },
    {
      "midi": 74,
      "time": 70.666,
      "duration": 0.652,
      "velocity": 0.71,
      "hand": "right"
    },
    {
      "midi": 79,
      "time": 70.666,
      "duration": 2.167,
      "velocity": 0.72,
      "hand": "right"
    },
    {
      "midi": 83,
      "time": 70.666,
      "duration": 3.833,
      "velocity": 0.63,
      "hand": "right"
    },
    {
      "midi": 51,
      "time": 71,
      "duration": 0.083,
      "velocity": 0.5,
      "hand": "left"
    },
    {
      "midi": 71,
      "time": 71,
      "duration": 0.151,
      "velocity": 0.74,
      "hand": "right"
    },
    {
      "midi": 62,
      "time": 71.166,
      "duration": 0.152,
      "velocity": 0.65,
      "hand": "right"
    },
    {
      "midi": 67,
      "time": 71.166,
      "duration": 0.652,
      "velocity": 0.91,
      "hand": "right"
    },
    {
      "midi": 71,
      "time": 71.166,
      "duration": 0.319,
      "velocity": 0.73,
      "hand": "right"
    },
    {
      "midi": 38,
      "time": 71.333,
      "duration": 0.083,
      "velocity": 0.91,
      "hand": "left"
    },
    {
      "midi": 51,
      "time": 71.333,
      "duration": 0.083,
      "velocity": 0.74,
      "hand": "left"
    },
    {
      "midi": 62,
      "time": 71.333,
      "duration": 0.152,
      "velocity": 1,
      "hand": "right"
    },
    {
      "midi": 74,
      "time": 71.333,
      "duration": 0.167,
      "velocity": 0.76,
      "hand": "right"
    },
    {
      "midi": 59,
      "time": 71.5,
      "duration": 0.167,
      "velocity": 0.66,
      "hand": "left"
    },
    {
      "midi": 62,
      "time": 71.5,
      "duration": 0.151,
      "velocity": 0.68,
      "hand": "right"
    },
    {
      "midi": 71,
      "time": 71.5,
      "duration": 0.151,
      "velocity": 0.56,
      "hand": "right"
    },
    {
      "midi": 51,
      "time": 71.666,
      "duration": 0.083,
      "velocity": 0.46,
      "hand": "left"
    },
    {
      "midi": 55,
      "time": 71.666,
      "duration": 0.319,
      "velocity": 0.63,
      "hand": "left"
    },
    {
      "midi": 62,
      "time": 71.666,
      "duration": 0.152,
      "velocity": 1,
      "hand": "right"
    },
    {
      "midi": 71,
      "time": 71.666,
      "duration": 0.152,
      "velocity": 0.79,
      "hand": "right"
    },
    {
      "midi": 59,
      "time": 71.833,
      "duration": 0.152,
      "velocity": 0.54,
      "hand": "left"
    },
    {
      "midi": 62,
      "time": 71.833,
      "duration": 0.152,
      "velocity": 0.61,
      "hand": "right"
    },
    {
      "midi": 67,
      "time": 71.833,
      "duration": 0.152,
      "velocity": 0.72,
      "hand": "right"
    },
    {
      "midi": 71,
      "time": 71.833,
      "duration": 0.152,
      "velocity": 0.61,
      "hand": "right"
    },
    {
      "midi": 43,
      "time": 72,
      "duration": 0.667,
      "velocity": 0.91,
      "hand": "left"
    },
    {
      "midi": 47,
      "time": 72,
      "duration": 0.083,
      "velocity": 0.8,
      "hand": "left"
    },
    {
      "midi": 62,
      "time": 72,
      "duration": 0.485,
      "velocity": 0.87,
      "hand": "right"
    },
    {
      "midi": 67,
      "time": 72,
      "duration": 0.318,
      "velocity": 1,
      "hand": "right"
    },
    {
      "midi": 71,
      "time": 72,
      "duration": 0.318,
      "velocity": 0.73,
      "hand": "right"
    },
    {
      "midi": 51,
      "time": 72.333,
      "duration": 0.083,
      "velocity": 0.4,
      "hand": "left"
    },
    {
      "midi": 67,
      "time": 72.333,
      "duration": 0.152,
      "velocity": 1,
      "hand": "right"
    },
    {
      "midi": 71,
      "time": 72.333,
      "duration": 0.152,
      "velocity": 0.89,
      "hand": "right"
    },
    {
      "midi": 59,
      "time": 72.5,
      "duration": 0.485,
      "velocity": 0.54,
      "hand": "left"
    },
    {
      "midi": 62,
      "time": 72.5,
      "duration": 0.151,
      "velocity": 0.71,
      "hand": "right"
    },
    {
      "midi": 67,
      "time": 72.5,
      "duration": 0.151,
      "velocity": 0.9,
      "hand": "right"
    },
    {
      "midi": 71,
      "time": 72.5,
      "duration": 0.318,
      "velocity": 0.66,
      "hand": "right"
    },
    {
      "midi": 38,
      "time": 72.666,
      "duration": 0.083,
      "velocity": 0.91,
      "hand": "left"
    },
    {
      "midi": 51,
      "time": 72.666,
      "duration": 0.083,
      "velocity": 0.8,
      "hand": "left"
    },
    {
      "midi": 62,
      "time": 72.666,
      "duration": 0.319,
      "velocity": 0.7,
      "hand": "right"
    },
    {
      "midi": 67,
      "time": 72.666,
      "duration": 0.167,
      "velocity": 1,
      "hand": "right"
    },
    {
      "midi": 74,
      "time": 72.666,
      "duration": 0.167,
      "velocity": 0.86,
      "hand": "right"
    },
    {
      "midi": 71,
      "time": 72.833,
      "duration": 0.152,
      "velocity": 0.53,
      "hand": "right"
    },
    {
      "midi": 43,
      "time": 73,
      "duration": 0.083,
      "velocity": 0.87,
      "hand": "left"
    },
    {
      "midi": 47,
      "time": 73,
      "duration": 0.083,
      "velocity": 0.78,
      "hand": "left"
    },
    {
      "midi": 62,
      "time": 73,
      "duration": 0.151,
      "velocity": 0.64,
      "hand": "right"
    },
    {
      "midi": 69,
      "time": 73,
      "duration": 0.167,
      "velocity": 1,
      "hand": "right"
    },
    {
      "midi": 71,
      "time": 73,
      "duration": 0.151,
      "velocity": 0.83,
      "hand": "right"
    },
    {
      "midi": 59,
      "time": 73.166,
      "duration": 0.152,
      "velocity": 0.63,
      "hand": "left"
    },
    {
      "midi": 62,
      "time": 73.166,
      "duration": 0.152,
      "velocity": 0.73,
      "hand": "right"
    },
    {
      "midi": 67,
      "time": 73.166,
      "duration": 0.152,
      "velocity": 0.7,
      "hand": "right"
    },
    {
      "midi": 71,
      "time": 73.166,
      "duration": 0.152,
      "velocity": 0.56,
      "hand": "right"
    },
    {
      "midi": 43,
      "time": 73.333,
      "duration": 0.818,
      "velocity": 0.85,
      "hand": "left"
    },
    {
      "midi": 47,
      "time": 73.333,
      "duration": 0.083,
      "velocity": 0.74,
      "hand": "left"
    },
    {
      "midi": 67,
      "time": 73.333,
      "duration": 0.485,
      "velocity": 1,
      "hand": "right"
    },
    {
      "midi": 71,
      "time": 73.333,
      "duration": 0.318,
      "velocity": 0.71,
      "hand": "right"
    },
    {
      "midi": 74,
      "time": 73.333,
      "duration": 0.652,
      "velocity": 0.61,
      "hand": "right"
    },
    {
      "midi": 79,
      "time": 73.333,
      "duration": 1.318,
      "velocity": 0.74,
      "hand": "right"
    },
    {
      "midi": 51,
      "time": 73.666,
      "duration": 0.083,
      "velocity": 0.54,
      "hand": "left"
    },
    {
      "midi": 71,
      "time": 73.666,
      "duration": 0.152,
      "velocity": 0.81,
      "hand": "right"
    },
    {
      "midi": 59,
      "time": 73.833,
      "duration": 0.152,
      "velocity": 0.64,
      "hand": "left"
    },
    {
      "midi": 62,
      "time": 73.833,
      "duration": 0.318,
      "velocity": 0.9,
      "hand": "right"
    },
    {
      "midi": 67,
      "time": 73.833,
      "duration": 0.318,
      "velocity": 0.89,
      "hand": "right"
    },
    {
      "midi": 71,
      "time": 73.833,
      "duration": 0.318,
      "velocity": 0.78,
      "hand": "right"
    },
    {
      "midi": 38,
      "time": 74,
      "duration": 0.083,
      "velocity": 0.91,
      "hand": "left"
    },
    {
      "midi": 51,
      "time": 74,
      "duration": 0.083,
      "velocity": 0.78,
      "hand": "left"
    },
    {
      "midi": 69,
      "time": 74,
      "duration": 0.167,
      "velocity": 1,
      "hand": "right"
    },
    {
      "midi": 74,
      "time": 74,
      "duration": 0.167,
      "velocity": 0.89,
      "hand": "right"
    },
    {
      "midi": 43,
      "time": 74.166,
      "duration": 0.333,
      "velocity": 0.9,
      "hand": "left"
    },
    {
      "midi": 47,
      "time": 74.166,
      "duration": 0.083,
      "velocity": 0.58,
      "hand": "left"
    },
    {
      "midi": 62,
      "time": 74.166,
      "duration": 0.319,
      "velocity": 0.7,
      "hand": "right"
    },
    {
      "midi": 67,
      "time": 74.166,
      "duration": 0.319,
      "velocity": 0.83,
      "hand": "right"
    },
    {
      "midi": 71,
      "time": 74.166,
      "duration": 0.152,
      "velocity": 0.69,
      "hand": "right"
    },
    {
      "midi": 51,
      "time": 74.333,
      "duration": 0.083,
      "velocity": 0.46,
      "hand": "left"
    },
    {
      "midi": 55,
      "time": 74.333,
      "duration": 0.152,
      "velocity": 0.65,
      "hand": "left"
    },
    {
      "midi": 71,
      "time": 74.333,
      "duration": 0.318,
      "velocity": 1,
      "hand": "right"
    },
    {
      "midi": 55,
      "time": 74.5,
      "duration": 0.151,
      "velocity": 0.64,
      "hand": "left"
    },
    {
      "midi": 59,
      "time": 74.5,
      "duration": 0.151,
      "velocity": 0.67,
      "hand": "left"
    },
    {
      "midi": 62,
      "time": 74.5,
      "duration": 0.151,
      "velocity": 0.64,
      "hand": "right"
    },
    {
      "midi": 67,
      "time": 74.5,
      "duration": 0.151,
      "velocity": 0.55,
      "hand": "right"
    },
    {
      "midi": 43,
      "time": 74.666,
      "duration": 0.667,
      "velocity": 0.87,
      "hand": "left"
    },
    {
      "midi": 47,
      "time": 74.666,
      "duration": 0.083,
      "velocity": 0.77,
      "hand": "left"
    },
    {
      "midi": 67,
      "time": 74.666,
      "duration": 0.485,
      "velocity": 0.83,
      "hand": "right"
    },
    {
      "midi": 71,
      "time": 74.666,
      "duration": 0.319,
      "velocity": 0.71,
      "hand": "right"
    },
    {
      "midi": 74,
      "time": 74.666,
      "duration": 0.652,
      "velocity": 0.71,
      "hand": "right"
    },
    {
      "midi": 79,
      "time": 74.666,
      "duration": 1.319,
      "velocity": 0.71,
      "hand": "right"
    },
    {
      "midi": 51,
      "time": 75,
      "duration": 0.083,
      "velocity": 0.51,
      "hand": "left"
    },
    {
      "midi": 69,
      "time": 75,
      "duration": 0.333,
      "velocity": 1,
      "hand": "right"
    },
    {
      "midi": 71,
      "time": 75,
      "duration": 0.151,
      "velocity": 0.76,
      "hand": "right"
    },
    {
      "midi": 67,
      "time": 75.166,
      "duration": 0.152,
      "velocity": 0.79,
      "hand": "right"
    },
    {
      "midi": 71,
      "time": 75.166,
      "duration": 0.485,
      "velocity": 0.83,
      "hand": "right"
    },
    {
      "midi": 38,
      "time": 75.333,
      "duration": 0.083,
      "velocity": 0.91,
      "hand": "left"
    },
    {
      "midi": 51,
      "time": 75.333,
      "duration": 0.083,
      "velocity": 0.74,
      "hand": "left"
    },
    {
      "midi": 67,
      "time": 75.333,
      "duration": 0.152,
      "velocity": 1,
      "hand": "right"
    },
    {
      "midi": 74,
      "time": 75.333,
      "duration": 0.167,
      "velocity": 0.81,
      "hand": "right"
    },
    {
      "midi": 62,
      "time": 75.5,
      "duration": 0.151,
      "velocity": 0.64,
      "hand": "right"
    },
    {
      "midi": 67,
      "time": 75.5,
      "duration": 0.318,
      "velocity": 0.67,
      "hand": "right"
    },
    {
      "midi": 43,
      "time": 75.666,
      "duration": 0.083,
      "velocity": 0.85,
      "hand": "left"
    },
    {
      "midi": 47,
      "time": 75.666,
      "duration": 0.083,
      "velocity": 0.67,
      "hand": "left"
    },
    {
      "midi": 62,
      "time": 75.666,
      "duration": 0.152,
      "velocity": 0.54,
      "hand": "right"
    },
    {
      "midi": 66,
      "time": 75.666,
      "duration": 0.333,
      "velocity": 1,
      "hand": "right"
    },
    {
      "midi": 71,
      "time": 75.666,
      "duration": 0.319,
      "velocity": 0.79,
      "hand": "right"
    },
    {
      "midi": 62,
      "time": 75.833,
      "duration": 0.152,
      "velocity": 0.58,
      "hand": "right"
    },
    {
      "midi": 67,
      "time": 75.833,
      "duration": 0.152,
      "velocity": 0.59,
      "hand": "right"
    },
    {
      "midi": 43,
      "time": 76,
      "duration": 1.318,
      "velocity": 0.86,
      "hand": "left"
    },
    {
      "midi": 47,
      "time": 76,
      "duration": 0.083,
      "velocity": 0.83,
      "hand": "left"
    },
    {
      "midi": 67,
      "time": 76,
      "duration": 0.485,
      "velocity": 0.71,
      "hand": "right"
    },
    {
      "midi": 71,
      "time": 76,
      "duration": 0.318,
      "velocity": 0.65,
      "hand": "right"
    },
    {
      "midi": 74,
      "time": 76,
      "duration": 0.651,
      "velocity": 0.54,
      "hand": "right"
    },
    {
      "midi": 79,
      "time": 76,
      "duration": 2.333,
      "velocity": 0.74,
      "hand": "right"
    },
    {
      "midi": 51,
      "time": 76.333,
      "duration": 0.083,
      "velocity": 0.43,
      "hand": "left"
    },
    {
      "midi": 62,
      "time": 76.333,
      "duration": 0.152,
      "velocity": 1,
      "hand": "right"
    },
    {
      "midi": 71,
      "time": 76.333,
      "duration": 0.152,
      "velocity": 0.79,
      "hand": "right"
    },
    {
      "midi": 59,
      "time": 76.5,
      "duration": 0.151,
      "velocity": 0.61,
      "hand": "left"
    },
    {
      "midi": 62,
      "time": 76.5,
      "duration": 0.151,
      "velocity": 0.84,
      "hand": "right"
    },
    {
      "midi": 67,
      "time": 76.5,
      "duration": 0.318,
      "velocity": 0.87,
      "hand": "right"
    },
    {
      "midi": 71,
      "time": 76.5,
      "duration": 0.318,
      "velocity": 0.79,
      "hand": "right"
    },
    {
      "midi": 38,
      "time": 76.666,
      "duration": 0.083,
      "velocity": 0.91,
      "hand": "left"
    },
    {
      "midi": 51,
      "time": 76.666,
      "duration": 0.083,
      "velocity": 0.72,
      "hand": "left"
    },
    {
      "midi": 62,
      "time": 76.666,
      "duration": 0.152,
      "velocity": 1,
      "hand": "right"
    },
    {
      "midi": 74,
      "time": 76.666,
      "duration": 0.167,
      "velocity": 0.86,
      "hand": "right"
    },
    {
      "midi": 59,
      "time": 76.833,
      "duration": 0.152,
      "velocity": 0.59,
      "hand": "left"
    },
    {
      "midi": 62,
      "time": 76.833,
      "duration": 0.152,
      "velocity": 0.63,
      "hand": "right"
    },
    {
      "midi": 67,
      "time": 76.833,
      "duration": 0.318,
      "velocity": 0.73,
      "hand": "right"
    },
    {
      "midi": 71,
      "time": 76.833,
      "duration": 0.152,
      "velocity": 0.58,
      "hand": "right"
    },
    {
      "midi": 51,
      "time": 77,
      "duration": 0.083,
      "velocity": 0.54,
      "hand": "left"
    },
    {
      "midi": 55,
      "time": 77,
      "duration": 0.318,
      "velocity": 0.69,
      "hand": "left"
    },
    {
      "midi": 62,
      "time": 77,
      "duration": 0.151,
      "velocity": 1,
      "hand": "right"
    },
    {
      "midi": 71,
      "time": 77,
      "duration": 0.167,
      "velocity": 0.83,
      "hand": "right"
    },
    {
      "midi": 62,
      "time": 77.166,
      "duration": 0.152,
      "velocity": 0.64,
      "hand": "right"
    },
    {
      "midi": 67,
      "time": 77.166,
      "duration": 0.152,
      "velocity": 0.56,
      "hand": "right"
    },
    {
      "midi": 43,
      "time": 77.333,
      "duration": 0.667,
      "velocity": 0.9,
      "hand": "left"
    },
    {
      "midi": 47,
      "time": 77.333,
      "duration": 0.083,
      "velocity": 0.82,
      "hand": "left"
    },
    {
      "midi": 62,
      "time": 77.333,
      "duration": 0.485,
      "velocity": 0.87,
      "hand": "right"
    },
    {
      "midi": 67,
      "time": 77.333,
      "duration": 0.318,
      "velocity": 1,
      "hand": "right"
    },
    {
      "midi": 71,
      "time": 77.333,
      "duration": 0.318,
      "velocity": 0.72,
      "hand": "right"
    },
    {
      "midi": 51,
      "time": 77.666,
      "duration": 0.083,
      "velocity": 0.44,
      "hand": "left"
    },
    {
      "midi": 67,
      "time": 77.666,
      "duration": 0.152,
      "velocity": 1,
      "hand": "right"
    },
    {
      "midi": 71,
      "time": 77.666,
      "duration": 0.152,
      "velocity": 0.81,
      "hand": "right"
    },
    {
      "midi": 59,
      "time": 77.833,
      "duration": 0.318,
      "velocity": 0.61,
      "hand": "left"
    },
    {
      "midi": 62,
      "time": 77.833,
      "duration": 0.318,
      "velocity": 0.84,
      "hand": "right"
    },
    {
      "midi": 67,
      "time": 77.833,
      "duration": 0.152,
      "velocity": 0.87,
      "hand": "right"
    },
    {
      "midi": 71,
      "time": 77.833,
      "duration": 0.485,
      "velocity": 0.82,
      "hand": "right"
    },
    {
      "midi": 38,
      "time": 78,
      "duration": 0.083,
      "velocity": 0.91,
      "hand": "left"
    },
    {
      "midi": 51,
      "time": 78,
      "duration": 0.083,
      "velocity": 0.74,
      "hand": "left"
    },
    {
      "midi": 67,
      "time": 78,
      "duration": 0.167,
      "velocity": 1,
      "hand": "right"
    },
    {
      "midi": 74,
      "time": 78,
      "duration": 0.083,
      "velocity": 0.76,
      "hand": "right"
    },
    {
      "midi": 59,
      "time": 78.166,
      "duration": 0.152,
      "velocity": 0.61,
      "hand": "left"
    },
    {
      "midi": 62,
      "time": 78.166,
      "duration": 0.152,
      "velocity": 0.68,
      "hand": "right"
    },
    {
      "midi": 43,
      "time": 78.333,
      "duration": 0.083,
      "velocity": 0.86,
      "hand": "left"
    },
    {
      "midi": 47,
      "time": 78.333,
      "duration": 0.083,
      "velocity": 0.72,
      "hand": "left"
    },
    {
      "midi": 62,
      "time": 78.333,
      "duration": 0.152,
      "velocity": 0.65,
      "hand": "right"
    },
    {
      "midi": 69,
      "time": 78.333,
      "duration": 0.167,
      "velocity": 1,
      "hand": "right"
    },
    {
      "midi": 71,
      "time": 78.333,
      "duration": 0.152,
      "velocity": 0.76,
      "hand": "right"
    },
    {
      "midi": 62,
      "time": 78.5,
      "duration": 0.151,
      "velocity": 0.65,
      "hand": "right"
    },
    {
      "midi": 67,
      "time": 78.5,
      "duration": 0.151,
      "velocity": 0.66,
      "hand": "right"
    },
    {
      "midi": 71,
      "time": 78.5,
      "duration": 0.151,
      "velocity": 0.48,
      "hand": "right"
    },
    {
      "midi": 43,
      "time": 78.666,
      "duration": 2,
      "velocity": 0.83,
      "hand": "left"
    },
    {
      "midi": 47,
      "time": 78.666,
      "duration": 0.083,
      "velocity": 0.73,
      "hand": "left"
    },
    {
      "midi": 67,
      "time": 78.666,
      "duration": 0.485,
      "velocity": 1,
      "hand": "right"
    },
    {
      "midi": 71,
      "time": 78.666,
      "duration": 0.319,
      "velocity": 0.71,
      "hand": "right"
    },
    {
      "midi": 74,
      "time": 78.666,
      "duration": 0.652,
      "velocity": 0.69,
      "hand": "right"
    },
    {
      "midi": 79,
      "time": 78.666,
      "duration": 1.833,
      "velocity": 0.74,
      "hand": "right"
    },
    {
      "midi": 51,
      "time": 79,
      "duration": 0.083,
      "velocity": 0.52,
      "hand": "left"
    },
    {
      "midi": 71,
      "time": 79,
      "duration": 0.151,
      "velocity": 0.83,
      "hand": "right"
    },
    {
      "midi": 62,
      "time": 79.166,
      "duration": 0.319,
      "velocity": 0.83,
      "hand": "right"
    },
    {
      "midi": 67,
      "time": 79.166,
      "duration": 0.319,
      "velocity": 0.87,
      "hand": "right"
    },
    {
      "midi": 71,
      "time": 79.166,
      "duration": 0.319,
      "velocity": 0.76,
      "hand": "right"
    },
    {
      "midi": 38,
      "time": 79.333,
      "duration": 0.083,
      "velocity": 0.91,
      "hand": "left"
    },
    {
      "midi": 51,
      "time": 79.333,
      "duration": 0.083,
      "velocity": 0.71,
      "hand": "left"
    },
    {
      "midi": 69,
      "time": 79.333,
      "duration": 0.167,
      "velocity": 1,
      "hand": "right"
    },
    {
      "midi": 74,
      "time": 79.333,
      "duration": 0.167,
      "velocity": 0.92,
      "hand": "right"
    },
    {
      "midi": 62,
      "time": 79.5,
      "duration": 0.318,
      "velocity": 0.71,
      "hand": "right"
    },
    {
      "midi": 67,
      "time": 79.5,
      "duration": 0.333,
      "velocity": 0.8,
      "hand": "right"
    },
    {
      "midi": 71,
      "time": 79.5,
      "duration": 0.151,
      "velocity": 0.59,
      "hand": "right"
    },
    {
      "midi": 51,
      "time": 79.666,
      "duration": 0.083,
      "velocity": 0.38,
      "hand": "left"
    },
    {
      "midi": 55,
      "time": 79.666,
      "duration": 0.167,
      "velocity": 0.68,
      "hand": "left"
    },
    {
      "midi": 71,
      "time": 79.666,
      "duration": 2,
      "velocity": 1,
      "hand": "right"
    },
    {
      "midi": 38,
      "time": 79.833,
      "duration": 0.083,
      "velocity": 0.86,
      "hand": "left"
    },
    {
      "midi": 42,
      "time": 79.833,
      "duration": 0.083,
      "velocity": 0.86,
      "hand": "left"
    },
    {
      "midi": 70,
      "time": 79.833,
      "duration": 0.167,
      "velocity": 0.71,
      "hand": "right"
    },
    {
      "midi": 73,
      "time": 79.833,
      "duration": 0.167,
      "velocity": 0.71,
      "hand": "right"
    },
    {
      "midi": 78,
      "time": 79.833,
      "duration": 0.167,
      "velocity": 0.71,
      "hand": "right"
    },
    {
      "midi": 38,
      "time": 80,
      "duration": 0.651,
      "velocity": 0.91,
      "hand": "left"
    },
    {
      "midi": 47,
      "time": 80,
      "duration": 0.083,
      "velocity": 0.86,
      "hand": "left"
    },
    {
      "midi": 62,
      "time": 80,
      "duration": 0.485,
      "velocity": 0.85,
      "hand": "right"
    },
    {
      "midi": 66,
      "time": 80,
      "duration": 0.318,
      "velocity": 0.71,
      "hand": "right"
    },
    {
      "midi": 69,
      "time": 80,
      "duration": 1.318,
      "velocity": 0.71,
      "hand": "right"
    },
    {
      "midi": 74,
      "time": 80,
      "duration": 2.651,
      "velocity": 0.63,
      "hand": "right"
    },
    {
      "midi": 51,
      "time": 80.333,
      "duration": 0.083,
      "velocity": 0.46,
      "hand": "left"
    },
    {
      "midi": 66,
      "time": 80.333,
      "duration": 0.152,
      "velocity": 0.72,
      "hand": "right"
    },
    {
      "midi": 62,
      "time": 80.5,
      "duration": 0.318,
      "velocity": 0.73,
      "hand": "right"
    },
    {
      "midi": 66,
      "time": 80.5,
      "duration": 0.485,
      "velocity": 0.72,
      "hand": "right"
    },
    {
      "midi": 38,
      "time": 80.666,
      "duration": 0.083,
      "velocity": 0.91,
      "hand": "left"
    },
    {
      "midi": 51,
      "time": 80.666,
      "duration": 0.083,
      "velocity": 0.82,
      "hand": "left"
    },
    {
      "midi": 72,
      "time": 80.666,
      "duration": 0.333,
      "velocity": 0.83,
      "hand": "right"
    },
    {
      "midi": 60,
      "time": 80.833,
      "duration": 0.318,
      "velocity": 0.59,
      "hand": "right"
    },
    {
      "midi": 62,
      "time": 80.833,
      "duration": 0.333,
      "velocity": 0.81,
      "hand": "right"
    },
    {
      "midi": 38,
      "time": 81,
      "duration": 0.083,
      "velocity": 0.89,
      "hand": "left"
    },
    {
      "midi": 47,
      "time": 81,
      "duration": 0.083,
      "velocity": 0.59,
      "hand": "left"
    },
    {
      "midi": 66,
      "time": 81,
      "duration": 0.318,
      "velocity": 0.66,
      "hand": "right"
    },
    {
      "midi": 60,
      "time": 81.166,
      "duration": 0.152,
      "velocity": 0.58,
      "hand": "right"
    },
    {
      "midi": 38,
      "time": 81.333,
      "duration": 0.652,
      "velocity": 0.83,
      "hand": "left"
    },
    {
      "midi": 47,
      "time": 81.333,
      "duration": 0.083,
      "velocity": 0.8,
      "hand": "left"
    },
    {
      "midi": 62,
      "time": 81.333,
      "duration": 0.485,
      "velocity": 0.82,
      "hand": "right"
    },
    {
      "midi": 66,
      "time": 81.333,
      "duration": 0.318,
      "velocity": 0.66,
      "hand": "right"
    },
    {
      "midi": 69,
      "time": 81.333,
      "duration": 0.318,
      "velocity": 0.44,
      "hand": "right"
    },
    {
      "midi": 72,
      "time": 81.333,
      "duration": 0.652,
      "velocity": 0.79,
      "hand": "right"
    },
    {
      "midi": 51,
      "time": 81.666,
      "duration": 0.083,
      "velocity": 0.5,
      "hand": "left"
    },
    {
      "midi": 66,
      "time": 81.666,
      "duration": 0.152,
      "velocity": 0.74,
      "hand": "right"
    },
    {
      "midi": 69,
      "time": 81.666,
      "duration": 0.167,
      "velocity": 1,
      "hand": "right"
    },
    {
      "midi": 60,
      "time": 81.833,
      "duration": 0.318,
      "velocity": 0.65,
      "hand": "right"
    },
    {
      "midi": 62,
      "time": 81.833,
      "duration": 0.652,
      "velocity": 0.91,
      "hand": "right"
    },
    {
      "midi": 66,
      "time": 81.833,
      "duration": 0.318,
      "velocity": 0.73,
      "hand": "right"
    },
    {
      "midi": 38,
      "time": 82,
      "duration": 0.083,
      "velocity": 0.91,
      "hand": "left"
    },
    {
      "midi": 51,
      "time": 82,
      "duration": 0.083,
      "velocity": 0.74,
      "hand": "left"
    },
    {
      "midi": 64,
      "time": 82,
      "duration": 0.167,
      "velocity": 1,
      "hand": "right"
    },
    {
      "midi": 72,
      "time": 82,
      "duration": 0.5,
      "velocity": 0.77,
      "hand": "right"
    },
    {
      "midi": 54,
      "time": 82.166,
      "duration": 0.167,
      "velocity": 0.66,
      "hand": "left"
    },
    {
      "midi": 60,
      "time": 82.166,
      "duration": 0.319,
      "velocity": 0.68,
      "hand": "right"
    },
    {
      "midi": 66,
      "time": 82.166,
      "duration": 0.152,
      "velocity": 0.56,
      "hand": "right"
    },
    {
      "midi": 51,
      "time": 82.333,
      "duration": 0.083,
      "velocity": 0.46,
      "hand": "left"
    },
    {
      "midi": 66,
      "time": 82.333,
      "duration": 0.152,
      "velocity": 1,
      "hand": "right"
    },
    {
      "midi": 54,
      "time": 82.5,
      "duration": 0.151,
      "velocity": 0.54,
      "hand": "left"
    },
    {
      "midi": 60,
      "time": 82.5,
      "duration": 0.167,
      "velocity": 0.61,
      "hand": "right"
    },
    {
      "midi": 62,
      "time": 82.5,
      "duration": 0.151,
      "velocity": 0.72,
      "hand": "right"
    },
    {
      "midi": 66,
      "time": 82.5,
      "duration": 0.151,
      "velocity": 0.61,
      "hand": "right"
    },
    {
      "midi": 43,
      "time": 82.666,
      "duration": 0.985,
      "velocity": 0.91,
      "hand": "left"
    },
    {
      "midi": 47,
      "time": 82.666,
      "duration": 0.083,
      "velocity": 0.8,
      "hand": "left"
    },
    {
      "midi": 71,
      "time": 82.666,
      "duration": 0.319,
      "velocity": 0.73,
      "hand": "right"
    },
    {
      "midi": 74,
      "time": 82.666,
      "duration": 0.652,
      "velocity": 0.71,
      "hand": "right"
    },
    {
      "midi": 79,
      "time": 82.666,
      "duration": 2,
      "velocity": 0.74,
      "hand": "right"
    },
    {
      "midi": 83,
      "time": 82.666,
      "duration": 2.667,
      "velocity": 0.63,
      "hand": "right"
    },
    {
      "midi": 51,
      "time": 83,
      "duration": 0.083,
      "velocity": 0.4,
      "hand": "left"
    },
    {
      "midi": 71,
      "time": 83,
      "duration": 0.151,
      "velocity": 0.71,
      "hand": "right"
    },
    {
      "midi": 59,
      "time": 83.166,
      "duration": 0.485,
      "velocity": 0.54,
      "hand": "left"
    },
    {
      "midi": 62,
      "time": 83.166,
      "duration": 0.152,
      "velocity": 0.71,
      "hand": "right"
    },
    {
      "midi": 67,
      "time": 83.166,
      "duration": 0.652,
      "velocity": 0.9,
      "hand": "right"
    },
    {
      "midi": 71,
      "time": 83.166,
      "duration": 0.319,
      "velocity": 0.66,
      "hand": "right"
    },
    {
      "midi": 38,
      "time": 83.333,
      "duration": 0.083,
      "velocity": 0.91,
      "hand": "left"
    },
    {
      "midi": 51,
      "time": 83.333,
      "duration": 0.083,
      "velocity": 0.8,
      "hand": "left"
    },
    {
      "midi": 62,
      "time": 83.333,
      "duration": 0.318,
      "velocity": 0.7,
      "hand": "right"
    },
    {
      "midi": 74,
      "time": 83.333,
      "duration": 0.083,
      "velocity": 0.79,
      "hand": "right"
    },
    {
      "midi": 71,
      "time": 83.5,
      "duration": 0.151,
      "velocity": 0.53,
      "hand": "right"
    },
    {
      "midi": 43,
      "time": 83.666,
      "duration": 0.083,
      "velocity": 0.87,
      "hand": "left"
    },
    {
      "midi": 47,
      "time": 83.666,
      "duration": 0.083,
      "velocity": 0.78,
      "hand": "left"
    },
    {
      "midi": 62,
      "time": 83.666,
      "duration": 0.152,
      "velocity": 0.64,
      "hand": "right"
    },
    {
      "midi": 71,
      "time": 83.666,
      "duration": 0.152,
      "velocity": 0.69,
      "hand": "right"
    },
    {
      "midi": 59,
      "time": 83.833,
      "duration": 0.152,
      "velocity": 0.63,
      "hand": "left"
    },
    {
      "midi": 62,
      "time": 83.833,
      "duration": 0.152,
      "velocity": 0.73,
      "hand": "right"
    },
    {
      "midi": 67,
      "time": 83.833,
      "duration": 0.152,
      "velocity": 0.7,
      "hand": "right"
    },
    {
      "midi": 71,
      "time": 83.833,
      "duration": 0.152,
      "velocity": 0.56,
      "hand": "right"
    },
    {
      "midi": 43,
      "time": 84,
      "duration": 0.667,
      "velocity": 0.85,
      "hand": "left"
    },
    {
      "midi": 47,
      "time": 84,
      "duration": 0.083,
      "velocity": 0.74,
      "hand": "left"
    },
    {
      "midi": 62,
      "time": 84,
      "duration": 0.485,
      "velocity": 0.81,
      "hand": "right"
    },
    {
      "midi": 67,
      "time": 84,
      "duration": 0.485,
      "velocity": 0.85,
      "hand": "right"
    },
    {
      "midi": 71,
      "time": 84,
      "duration": 0.318,
      "velocity": 0.65,
      "hand": "right"
    },
    {
      "midi": 51,
      "time": 84.333,
      "duration": 0.083,
      "velocity": 0.54,
      "hand": "left"
    },
    {
      "midi": 71,
      "time": 84.333,
      "duration": 0.152,
      "velocity": 0.81,
      "hand": "right"
    },
    {
      "midi": 59,
      "time": 84.5,
      "duration": 0.151,
      "velocity": 0.64,
      "hand": "left"
    },
    {
      "midi": 62,
      "time": 84.5,
      "duration": 0.318,
      "velocity": 0.9,
      "hand": "right"
    },
    {
      "midi": 67,
      "time": 84.5,
      "duration": 0.318,
      "velocity": 0.89,
      "hand": "right"
    },
    {
      "midi": 71,
      "time": 84.5,
      "duration": 0.318,
      "velocity": 0.78,
      "hand": "right"
    },
    {
      "midi": 38,
      "time": 84.666,
      "duration": 0.083,
      "velocity": 0.91,
      "hand": "left"
    },
    {
      "midi": 51,
      "time": 84.666,
      "duration": 0.083,
      "velocity": 0.78,
      "hand": "left"
    },
    {
      "midi": 74,
      "time": 84.666,
      "duration": 0.167,
      "velocity": 0.63,
      "hand": "right"
    },
    {
      "midi": 43,
      "time": 84.833,
      "duration": 0.333,
      "velocity": 0.9,
      "hand": "left"
    },
    {
      "midi": 47,
      "time": 84.833,
      "duration": 0.083,
      "velocity": 0.58,
      "hand": "left"
    },
    {
      "midi": 62,
      "time": 84.833,
      "duration": 0.318,
      "velocity": 0.7,
      "hand": "right"
    },
    {
      "midi": 67,
      "time": 84.833,
      "duration": 0.318,
      "velocity": 0.83,
      "hand": "right"
    },
    {
      "midi": 71,
      "time": 84.833,
      "duration": 0.152,
      "velocity": 0.69,
      "hand": "right"
    },
    {
      "midi": 51,
      "time": 85,
      "duration": 0.083,
      "velocity": 0.46,
      "hand": "left"
    },
    {
      "midi": 55,
      "time": 85,
      "duration": 0.151,
      "velocity": 0.65,
      "hand": "left"
    },
    {
      "midi": 71,
      "time": 85,
      "duration": 0.167,
      "velocity": 0.79,
      "hand": "right"
    },
    {
      "midi": 55,
      "time": 85.166,
      "duration": 0.152,
      "velocity": 0.64,
      "hand": "left"
    },
    {
      "midi": 59,
      "time": 85.166,
      "duration": 0.167,
      "velocity": 0.67,
      "hand": "left"
    },
    {
      "midi": 62,
      "time": 85.166,
      "duration": 0.167,
      "velocity": 0.64,
      "hand": "right"
    },
    {
      "midi": 67,
      "time": 85.166,
      "duration": 0.152,
      "velocity": 0.55,
      "hand": "right"
    },
    {
      "midi": 36,
      "time": 85.333,
      "duration": 0.152,
      "velocity": 0.87,
      "hand": "left"
    },
    {
      "midi": 47,
      "time": 85.333,
      "duration": 0.083,
      "velocity": 0.77,
      "hand": "left"
    },
    {
      "midi": 67,
      "time": 85.333,
      "duration": 1.318,
      "velocity": 0.81,
      "hand": "right"
    },
    {
      "midi": 72,
      "time": 85.333,
      "duration": 0.318,
      "velocity": 0.71,
      "hand": "right"
    },
    {
      "midi": 76,
      "time": 85.333,
      "duration": 0.652,
      "velocity": 0.72,
      "hand": "right"
    },
    {
      "midi": 79,
      "time": 85.333,
      "duration": 1.318,
      "velocity": 0.79,
      "hand": "right"
    },
    {
      "midi": 36,
      "time": 85.5,
      "duration": 0.818,
      "velocity": 0.46,
      "hand": "left"
    },
    {
      "midi": 48,
      "time": 85.5,
      "duration": 0.818,
      "velocity": 0.39,
      "hand": "left"
    },
    {
      "midi": 51,
      "time": 85.666,
      "duration": 0.083,
      "velocity": 0.51,
      "hand": "left"
    },
    {
      "midi": 72,
      "time": 85.666,
      "duration": 0.333,
      "velocity": 0.79,
      "hand": "right"
    },
    {
      "midi": 60,
      "time": 85.833,
      "duration": 0.318,
      "velocity": 0.79,
      "hand": "right"
    },
    {
      "midi": 64,
      "time": 85.833,
      "duration": 0.833,
      "velocity": 0.83,
      "hand": "right"
    },
    {
      "midi": 38,
      "time": 86,
      "duration": 0.083,
      "velocity": 0.91,
      "hand": "left"
    },
    {
      "midi": 51,
      "time": 86,
      "duration": 0.083,
      "velocity": 0.74,
      "hand": "left"
    },
    {
      "midi": 76,
      "time": 86,
      "duration": 0.333,
      "velocity": 0.89,
      "hand": "right"
    },
    {
      "midi": 55,
      "time": 86.166,
      "duration": 0.152,
      "velocity": 0.64,
      "hand": "left"
    },
    {
      "midi": 60,
      "time": 86.166,
      "duration": 0.319,
      "velocity": 0.67,
      "hand": "right"
    },
    {
      "midi": 36,
      "time": 86.333,
      "duration": 0.083,
      "velocity": 0.85,
      "hand": "left"
    },
    {
      "midi": 47,
      "time": 86.333,
      "duration": 0.083,
      "velocity": 0.67,
      "hand": "left"
    },
    {
      "midi": 72,
      "time": 86.333,
      "duration": 0.318,
      "velocity": 0.66,
      "hand": "right"
    },
    {
      "midi": 55,
      "time": 86.5,
      "duration": 0.151,
      "velocity": 0.58,
      "hand": "left"
    },
    {
      "midi": 60,
      "time": 86.5,
      "duration": 0.151,
      "velocity": 0.59,
      "hand": "right"
    },
    {
      "midi": 36,
      "time": 86.666,
      "duration": 1.167,
      "velocity": 0.86,
      "hand": "left"
    },
    {
      "midi": 47,
      "time": 86.666,
      "duration": 0.083,
      "velocity": 0.83,
      "hand": "left"
    },
    {
      "midi": 76,
      "time": 86.666,
      "duration": 0.333,
      "velocity": 0.49,
      "hand": "right"
    },
    {
      "midi": 79,
      "time": 86.666,
      "duration": 1.319,
      "velocity": 0.63,
      "hand": "right"
    },
    {
      "midi": 81,
      "time": 86.666,
      "duration": 0.833,
      "velocity": 0.74,
      "hand": "right"
    },
    {
      "midi": 51,
      "time": 87,
      "duration": 0.083,
      "velocity": 0.43,
      "hand": "left"
    },
    {
      "midi": 72,
      "time": 87,
      "duration": 0.333,
      "velocity": 0.66,
      "hand": "right"
    },
    {
      "midi": 51,
      "time": 87.166,
      "duration": 0.152,
      "velocity": 0.61,
      "hand": "left"
    },
    {
      "midi": 55,
      "time": 87.166,
      "duration": 0.319,
      "velocity": 0.84,
      "hand": "left"
    },
    {
      "midi": 60,
      "time": 87.166,
      "duration": 0.319,
      "velocity": 0.87,
      "hand": "right"
    },
    {
      "midi": 63,
      "time": 87.166,
      "duration": 0.319,
      "velocity": 0.79,
      "hand": "right"
    },
    {
      "midi": 38,
      "time": 87.333,
      "duration": 0.083,
      "velocity": 0.91,
      "hand": "left"
    },
    {
      "midi": 48,
      "time": 87.333,
      "duration": 0.318,
      "velocity": 0.55,
      "hand": "left"
    },
    {
      "midi": 76,
      "time": 87.333,
      "duration": 0.318,
      "velocity": 0.76,
      "hand": "right"
    },
    {
      "midi": 51,
      "time": 87.5,
      "duration": 0.151,
      "velocity": 0.59,
      "hand": "left"
    },
    {
      "midi": 55,
      "time": 87.5,
      "duration": 0.151,
      "velocity": 0.63,
      "hand": "left"
    },
    {
      "midi": 60,
      "time": 87.5,
      "duration": 0.318,
      "velocity": 0.73,
      "hand": "right"
    },
    {
      "midi": 63,
      "time": 87.5,
      "duration": 0.5,
      "velocity": 0.58,
      "hand": "right"
    },
    {
      "midi": 48,
      "time": 87.666,
      "duration": 0.333,
      "velocity": 0.69,
      "hand": "left"
    },
    {
      "midi": 51,
      "time": 87.666,
      "duration": 0.319,
      "velocity": 0.76,
      "hand": "left"
    },
    {
      "midi": 72,
      "time": 87.666,
      "duration": 0.333,
      "velocity": 0.69,
      "hand": "right"
    },
    {
      "midi": 76,
      "time": 87.666,
      "duration": 0.167,
      "velocity": 0.09,
      "hand": "right"
    },
    {
      "midi": 55,
      "time": 87.833,
      "duration": 0.152,
      "velocity": 0.64,
      "hand": "left"
    },
    {
      "midi": 60,
      "time": 87.833,
      "duration": 0.167,
      "velocity": 0.56,
      "hand": "right"
    },
    {
      "midi": 43,
      "time": 88,
      "duration": 0.985,
      "velocity": 0.9,
      "hand": "left"
    },
    {
      "midi": 47,
      "time": 88,
      "duration": 0.083,
      "velocity": 0.82,
      "hand": "left"
    },
    {
      "midi": 67,
      "time": 88,
      "duration": 0.485,
      "velocity": 0.86,
      "hand": "right"
    },
    {
      "midi": 71,
      "time": 88,
      "duration": 0.318,
      "velocity": 0.72,
      "hand": "right"
    },
    {
      "midi": 74,
      "time": 88,
      "duration": 0.651,
      "velocity": 0.71,
      "hand": "right"
    },
    {
      "midi": 79,
      "time": 88,
      "duration": 1.833,
      "velocity": 0.71,
      "hand": "right"
    },
    {
      "midi": 51,
      "time": 88.333,
      "duration": 0.083,
      "velocity": 0.44,
      "hand": "left"
    },
    {
      "midi": 71,
      "time": 88.333,
      "duration": 0.152,
      "velocity": 0.81,
      "hand": "right"
    },
    {
      "midi": 59,
      "time": 88.5,
      "duration": 0.318,
      "velocity": 0.61,
      "hand": "left"
    },
    {
      "midi": 62,
      "time": 88.5,
      "duration": 0.318,
      "velocity": 0.84,
      "hand": "right"
    },
    {
      "midi": 67,
      "time": 88.5,
      "duration": 0.651,
      "velocity": 0.87,
      "hand": "right"
    },
    {
      "midi": 71,
      "time": 88.5,
      "duration": 0.485,
      "velocity": 0.82,
      "hand": "right"
    },
    {
      "midi": 38,
      "time": 88.666,
      "duration": 0.083,
      "velocity": 0.91,
      "hand": "left"
    },
    {
      "midi": 51,
      "time": 88.666,
      "duration": 0.083,
      "velocity": 0.74,
      "hand": "left"
    },
    {
      "midi": 74,
      "time": 88.666,
      "duration": 0.5,
      "velocity": 0.61,
      "hand": "right"
    },
    {
      "midi": 59,
      "time": 88.833,
      "duration": 0.152,
      "velocity": 0.61,
      "hand": "left"
    },
    {
      "midi": 62,
      "time": 88.833,
      "duration": 0.152,
      "velocity": 0.68,
      "hand": "right"
    },
    {
      "midi": 43,
      "time": 89,
      "duration": 0.083,
      "velocity": 0.86,
      "hand": "left"
    },
    {
      "midi": 47,
      "time": 89,
      "duration": 0.083,
      "velocity": 0.72,
      "hand": "left"
    },
    {
      "midi": 62,
      "time": 89,
      "duration": 0.151,
      "velocity": 0.65,
      "hand": "right"
    },
    {
      "midi": 71,
      "time": 89,
      "duration": 0.151,
      "velocity": 0.59,
      "hand": "right"
    },
    {
      "midi": 62,
      "time": 89.166,
      "duration": 0.152,
      "velocity": 0.65,
      "hand": "right"
    },
    {
      "midi": 67,
      "time": 89.166,
      "duration": 0.152,
      "velocity": 0.66,
      "hand": "right"
    },
    {
      "midi": 71,
      "time": 89.166,
      "duration": 0.152,
      "velocity": 0.48,
      "hand": "right"
    },
    {
      "midi": 43,
      "time": 89.333,
      "duration": 0.083,
      "velocity": 0.83,
      "hand": "left"
    },
    {
      "midi": 47,
      "time": 89.333,
      "duration": 0.083,
      "velocity": 0.73,
      "hand": "left"
    },
    {
      "midi": 62,
      "time": 89.333,
      "duration": 0.083,
      "velocity": 0.82,
      "hand": "right"
    },
    {
      "midi": 67,
      "time": 89.333,
      "duration": 0.083,
      "velocity": 0.87,
      "hand": "right"
    },
    {
      "midi": 71,
      "time": 89.333,
      "duration": 0.083,
      "velocity": 0.71,
      "hand": "right"
    }
  ],
  "arrangements": {
    "easy": [
      {
        "midi": 79,
        "time": 0,
        "duration": 2.333,
        "velocity": 0.39,
        "hand": "right"
      },
      {
        "midi": 71,
        "time": 0.833,
        "duration": 0.45,
        "velocity": 0.69,
        "hand": "right"
      },
      {
        "midi": 71,
        "time": 1.666,
        "duration": 0.45,
        "velocity": 0.72,
        "hand": "right"
      },
      {
        "midi": 59,
        "time": 2.5,
        "duration": 0.45,
        "velocity": 0.63,
        "hand": "right"
      },
      {
        "midi": 74,
        "time": 3.333,
        "duration": 0.45,
        "velocity": 0.51,
        "hand": "right"
      },
      {
        "midi": 60,
        "time": 4.166,
        "duration": 0.45,
        "velocity": 0.31,
        "hand": "right"
      },
      {
        "midi": 64,
        "time": 5,
        "duration": 0.45,
        "velocity": 0.51,
        "hand": "right"
      },
      {
        "midi": 64,
        "time": 5.833,
        "duration": 0.833,
        "velocity": 0.72,
        "hand": "right"
      },
      {
        "midi": 75,
        "time": 6.666,
        "duration": 1.333,
        "velocity": 0.63,
        "hand": "right"
      },
      {
        "midi": 63,
        "time": 7.5,
        "duration": 0.45,
        "velocity": 0.56,
        "hand": "right"
      },
      {
        "midi": 71,
        "time": 8.333,
        "duration": 0.45,
        "velocity": 0.76,
        "hand": "right"
      },
      {
        "midi": 82,
        "time": 9.166,
        "duration": 0.45,
        "velocity": 0.63,
        "hand": "right"
      },
      {
        "midi": 69,
        "time": 10,
        "duration": 0.45,
        "velocity": 0.76,
        "hand": "right"
      },
      {
        "midi": 71,
        "time": 11,
        "duration": 0.45,
        "velocity": 0.65,
        "hand": "right"
      },
      {
        "midi": 67,
        "time": 11.833,
        "duration": 0.45,
        "velocity": 0.59,
        "hand": "right"
      },
      {
        "midi": 74,
        "time": 12.666,
        "duration": 0.652,
        "velocity": 0.57,
        "hand": "right"
      },
      {
        "midi": 71,
        "time": 13.666,
        "duration": 0.45,
        "velocity": 0.76,
        "hand": "right"
      },
      {
        "midi": 71,
        "time": 14.5,
        "duration": 0.45,
        "velocity": 0.48,
        "hand": "right"
      },
      {
        "midi": 74,
        "time": 15.333,
        "duration": 0.45,
        "velocity": 0.69,
        "hand": "right"
      },
      {
        "midi": 71,
        "time": 16.333,
        "duration": 0.45,
        "velocity": 0.81,
        "hand": "right"
      },
      {
        "midi": 62,
        "time": 17.166,
        "duration": 0.45,
        "velocity": 0.58,
        "hand": "right"
      },
      {
        "midi": 74,
        "time": 18,
        "duration": 0.45,
        "velocity": 0.76,
        "hand": "right"
      },
      {
        "midi": 71,
        "time": 19,
        "duration": 0.45,
        "velocity": 0.74,
        "hand": "right"
      },
      {
        "midi": 71,
        "time": 19.833,
        "duration": 0.45,
        "velocity": 0.56,
        "hand": "right"
      },
      {
        "midi": 69,
        "time": 20.666,
        "duration": 0.45,
        "velocity": 0.63,
        "hand": "right"
      },
      {
        "midi": 69,
        "time": 21.666,
        "duration": 0.45,
        "velocity": 1,
        "hand": "right"
      },
      {
        "midi": 62,
        "time": 22.5,
        "duration": 0.45,
        "velocity": 0.59,
        "hand": "right"
      },
      {
        "midi": 74,
        "time": 23.333,
        "duration": 0.45,
        "velocity": 0.76,
        "hand": "right"
      },
      {
        "midi": 71,
        "time": 24.333,
        "duration": 0.45,
        "velocity": 0.83,
        "hand": "right"
      },
      {
        "midi": 71,
        "time": 25.166,
        "duration": 0.45,
        "velocity": 0.48,
        "hand": "right"
      },
      {
        "midi": 74,
        "time": 26,
        "duration": 0.45,
        "velocity": 0.74,
        "hand": "right"
      },
      {
        "midi": 71,
        "time": 27,
        "duration": 0.45,
        "velocity": 0.81,
        "hand": "right"
      },
      {
        "midi": 62,
        "time": 27.833,
        "duration": 0.45,
        "velocity": 0.58,
        "hand": "right"
      },
      {
        "midi": 74,
        "time": 28.666,
        "duration": 0.45,
        "velocity": 0.86,
        "hand": "right"
      },
      {
        "midi": 71,
        "time": 29.666,
        "duration": 0.45,
        "velocity": 0.81,
        "hand": "right"
      },
      {
        "midi": 71,
        "time": 30.5,
        "duration": 0.45,
        "velocity": 0.56,
        "hand": "right"
      },
      {
        "midi": 74,
        "time": 31.333,
        "duration": 0.45,
        "velocity": 0.72,
        "hand": "right"
      },
      {
        "midi": 66,
        "time": 32.333,
        "duration": 0.45,
        "velocity": 0.72,
        "hand": "right"
      },
      {
        "midi": 62,
        "time": 33.166,
        "duration": 0.45,
        "velocity": 0.59,
        "hand": "right"
      },
      {
        "midi": 72,
        "time": 34,
        "duration": 0.5,
        "velocity": 0.77,
        "hand": "right"
      },
      {
        "midi": 71,
        "time": 35,
        "duration": 0.45,
        "velocity": 0.81,
        "hand": "right"
      },
      {
        "midi": 71,
        "time": 35.833,
        "duration": 0.45,
        "velocity": 0.48,
        "hand": "right"
      },
      {
        "midi": 74,
        "time": 36.666,
        "duration": 0.45,
        "velocity": 0.86,
        "hand": "right"
      },
      {
        "midi": 71,
        "time": 37.666,
        "duration": 0.45,
        "velocity": 0.83,
        "hand": "right"
      },
      {
        "midi": 62,
        "time": 38.5,
        "duration": 0.45,
        "velocity": 0.58,
        "hand": "right"
      },
      {
        "midi": 74,
        "time": 39.333,
        "duration": 0.45,
        "velocity": 0.86,
        "hand": "right"
      },
      {
        "midi": 71,
        "time": 40.333,
        "duration": 0.45,
        "velocity": 0.79,
        "hand": "right"
      },
      {
        "midi": 71,
        "time": 41.166,
        "duration": 0.45,
        "velocity": 0.56,
        "hand": "right"
      },
      {
        "midi": 74,
        "time": 42,
        "duration": 0.45,
        "velocity": 0.86,
        "hand": "right"
      },
      {
        "midi": 71,
        "time": 43,
        "duration": 0.45,
        "velocity": 0.81,
        "hand": "right"
      },
      {
        "midi": 67,
        "time": 43.833,
        "duration": 0.45,
        "velocity": 0.59,
        "hand": "right"
      },
      {
        "midi": 62,
        "time": 44.666,
        "duration": 0.45,
        "velocity": 0.55,
        "hand": "right"
      },
      {
        "midi": 69,
        "time": 45.666,
        "duration": 0.45,
        "velocity": 1,
        "hand": "right"
      },
      {
        "midi": 66,
        "time": 46.5,
        "duration": 0.45,
        "velocity": 0.48,
        "hand": "right"
      },
      {
        "midi": 74,
        "time": 47.333,
        "duration": 0.45,
        "velocity": 0.92,
        "hand": "right"
      },
      {
        "midi": 71,
        "time": 48.333,
        "duration": 0.45,
        "velocity": 0.83,
        "hand": "right"
      },
      {
        "midi": 62,
        "time": 49.166,
        "duration": 0.45,
        "velocity": 0.58,
        "hand": "right"
      },
      {
        "midi": 74,
        "time": 50,
        "duration": 0.45,
        "velocity": 0.86,
        "hand": "right"
      },
      {
        "midi": 71,
        "time": 51,
        "duration": 0.45,
        "velocity": 0.83,
        "hand": "right"
      },
      {
        "midi": 71,
        "time": 51.833,
        "duration": 0.45,
        "velocity": 0.56,
        "hand": "right"
      },
      {
        "midi": 74,
        "time": 52.666,
        "duration": 0.45,
        "velocity": 0.92,
        "hand": "right"
      },
      {
        "midi": 71,
        "time": 53.666,
        "duration": 0.45,
        "velocity": 0.81,
        "hand": "right"
      },
      {
        "midi": 67,
        "time": 54.5,
        "duration": 0.45,
        "velocity": 0.59,
        "hand": "right"
      },
      {
        "midi": 63,
        "time": 55.333,
        "duration": 0.45,
        "velocity": 0.72,
        "hand": "right"
      },
      {
        "midi": 66,
        "time": 56.333,
        "duration": 0.45,
        "velocity": 0.69,
        "hand": "right"
      },
      {
        "midi": 66,
        "time": 57.166,
        "duration": 0.45,
        "velocity": 0.48,
        "hand": "right"
      },
      {
        "midi": 72,
        "time": 58,
        "duration": 0.5,
        "velocity": 0.76,
        "hand": "right"
      },
      {
        "midi": 71,
        "time": 59,
        "duration": 0.45,
        "velocity": 0.79,
        "hand": "right"
      },
      {
        "midi": 62,
        "time": 59.833,
        "duration": 0.45,
        "velocity": 0.58,
        "hand": "right"
      },
      {
        "midi": 74,
        "time": 60.666,
        "duration": 0.45,
        "velocity": 0.81,
        "hand": "right"
      },
      {
        "midi": 71,
        "time": 61.666,
        "duration": 0.45,
        "velocity": 0.79,
        "hand": "right"
      },
      {
        "midi": 71,
        "time": 62.5,
        "duration": 0.45,
        "velocity": 0.56,
        "hand": "right"
      },
      {
        "midi": 74,
        "time": 63.333,
        "duration": 0.45,
        "velocity": 0.83,
        "hand": "right"
      },
      {
        "midi": 71,
        "time": 64.333,
        "duration": 0.45,
        "velocity": 0.81,
        "hand": "right"
      },
      {
        "midi": 67,
        "time": 65.166,
        "duration": 0.45,
        "velocity": 0.59,
        "hand": "right"
      },
      {
        "midi": 74,
        "time": 66,
        "duration": 0.45,
        "velocity": 0.86,
        "hand": "right"
      },
      {
        "midi": 71,
        "time": 67,
        "duration": 0.45,
        "velocity": 0.81,
        "hand": "right"
      },
      {
        "midi": 71,
        "time": 67.833,
        "duration": 0.45,
        "velocity": 0.48,
        "hand": "right"
      },
      {
        "midi": 72,
        "time": 68.666,
        "duration": 0.45,
        "velocity": 0.85,
        "hand": "right"
      },
      {
        "midi": 69,
        "time": 69.666,
        "duration": 0.45,
        "velocity": 1,
        "hand": "right"
      },
      {
        "midi": 60,
        "time": 70.5,
        "duration": 0.45,
        "velocity": 0.58,
        "hand": "right"
      },
      {
        "midi": 74,
        "time": 71.333,
        "duration": 0.45,
        "velocity": 0.76,
        "hand": "right"
      },
      {
        "midi": 71,
        "time": 72.333,
        "duration": 0.45,
        "velocity": 0.89,
        "hand": "right"
      },
      {
        "midi": 71,
        "time": 73.166,
        "duration": 0.45,
        "velocity": 0.56,
        "hand": "right"
      },
      {
        "midi": 74,
        "time": 74,
        "duration": 0.45,
        "velocity": 0.89,
        "hand": "right"
      },
      {
        "midi": 71,
        "time": 75,
        "duration": 0.45,
        "velocity": 0.76,
        "hand": "right"
      },
      {
        "midi": 67,
        "time": 75.833,
        "duration": 0.45,
        "velocity": 0.59,
        "hand": "right"
      },
      {
        "midi": 74,
        "time": 76.666,
        "duration": 0.45,
        "velocity": 0.86,
        "hand": "right"
      },
      {
        "midi": 71,
        "time": 77.666,
        "duration": 0.45,
        "velocity": 0.81,
        "hand": "right"
      },
      {
        "midi": 71,
        "time": 78.5,
        "duration": 0.45,
        "velocity": 0.48,
        "hand": "right"
      },
      {
        "midi": 74,
        "time": 79.333,
        "duration": 0.45,
        "velocity": 0.92,
        "hand": "right"
      },
      {
        "midi": 66,
        "time": 80.333,
        "duration": 0.45,
        "velocity": 0.72,
        "hand": "right"
      },
      {
        "midi": 60,
        "time": 81.166,
        "duration": 0.45,
        "velocity": 0.58,
        "hand": "right"
      },
      {
        "midi": 72,
        "time": 82,
        "duration": 0.5,
        "velocity": 0.77,
        "hand": "right"
      },
      {
        "midi": 71,
        "time": 83,
        "duration": 0.45,
        "velocity": 0.71,
        "hand": "right"
      },
      {
        "midi": 71,
        "time": 83.833,
        "duration": 0.45,
        "velocity": 0.56,
        "hand": "right"
      },
      {
        "midi": 74,
        "time": 84.666,
        "duration": 0.45,
        "velocity": 0.63,
        "hand": "right"
      },
      {
        "midi": 60,
        "time": 85.5,
        "duration": 0.818,
        "velocity": 0.39,
        "hand": "right"
      },
      {
        "midi": 72,
        "time": 86.333,
        "duration": 0.45,
        "velocity": 0.66,
        "hand": "right"
      },
      {
        "midi": 63,
        "time": 87.166,
        "duration": 0.45,
        "velocity": 0.79,
        "hand": "right"
      },
      {
        "midi": 79,
        "time": 88,
        "duration": 1.833,
        "velocity": 0.71,
        "hand": "right"
      },
      {
        "midi": 62,
        "time": 88.833,
        "duration": 0.45,
        "velocity": 0.68,
        "hand": "right"
      }
    ],
    "medium": [
      {
        "midi": 79,
        "time": 0,
        "duration": 2.333,
        "velocity": 0.39,
        "hand": "right"
      },
      {
        "midi": 71,
        "time": 0.833,
        "duration": 0.262,
        "velocity": 0.69,
        "hand": "right"
      },
      {
        "midi": 71,
        "time": 1.666,
        "duration": 0.333,
        "velocity": 0.72,
        "hand": "right"
      },
      {
        "midi": 59,
        "time": 2.5,
        "duration": 0.262,
        "velocity": 0.63,
        "hand": "left"
      },
      {
        "midi": 74,
        "time": 3.333,
        "duration": 0.333,
        "velocity": 0.51,
        "hand": "right"
      },
      {
        "midi": 48,
        "time": 4.166,
        "duration": 0.262,
        "velocity": 0.31,
        "hand": "left"
      },
      {
        "midi": 59,
        "time": 5,
        "duration": 0.262,
        "velocity": 0.58,
        "hand": "left"
      },
      {
        "midi": 64,
        "time": 5,
        "duration": 0.318,
        "velocity": 0.51,
        "hand": "right"
      },
      {
        "midi": 60,
        "time": 5.833,
        "duration": 0.318,
        "velocity": 0.73,
        "hand": "right"
      },
      {
        "midi": 64,
        "time": 5.833,
        "duration": 0.833,
        "velocity": 0.72,
        "hand": "right"
      },
      {
        "midi": 75,
        "time": 6.666,
        "duration": 1.333,
        "velocity": 0.63,
        "hand": "right"
      },
      {
        "midi": 51,
        "time": 7.5,
        "duration": 0.262,
        "velocity": 0.66,
        "hand": "left"
      },
      {
        "midi": 63,
        "time": 7.5,
        "duration": 0.262,
        "velocity": 0.56,
        "hand": "right"
      },
      {
        "midi": 71,
        "time": 8.333,
        "duration": 0.262,
        "velocity": 0.76,
        "hand": "right"
      },
      {
        "midi": 82,
        "time": 9.166,
        "duration": 0.262,
        "velocity": 0.63,
        "hand": "right"
      },
      {
        "midi": 69,
        "time": 10,
        "duration": 0.333,
        "velocity": 0.76,
        "hand": "right"
      },
      {
        "midi": 71,
        "time": 11,
        "duration": 0.262,
        "velocity": 0.65,
        "hand": "right"
      },
      {
        "midi": 62,
        "time": 11.833,
        "duration": 0.262,
        "velocity": 0.58,
        "hand": "right"
      },
      {
        "midi": 67,
        "time": 11.833,
        "duration": 0.262,
        "velocity": 0.59,
        "hand": "right"
      },
      {
        "midi": 74,
        "time": 12.666,
        "duration": 0.652,
        "velocity": 0.57,
        "hand": "right"
      },
      {
        "midi": 71,
        "time": 13.666,
        "duration": 0.262,
        "velocity": 0.76,
        "hand": "right"
      },
      {
        "midi": 62,
        "time": 14.5,
        "duration": 0.262,
        "velocity": 0.65,
        "hand": "right"
      },
      {
        "midi": 71,
        "time": 14.5,
        "duration": 0.262,
        "velocity": 0.48,
        "hand": "right"
      },
      {
        "midi": 74,
        "time": 15.333,
        "duration": 0.333,
        "velocity": 0.69,
        "hand": "right"
      },
      {
        "midi": 71,
        "time": 16.333,
        "duration": 0.262,
        "velocity": 0.81,
        "hand": "right"
      },
      {
        "midi": 62,
        "time": 17.166,
        "duration": 0.262,
        "velocity": 0.58,
        "hand": "right"
      },
      {
        "midi": 74,
        "time": 18,
        "duration": 0.333,
        "velocity": 0.76,
        "hand": "right"
      },
      {
        "midi": 71,
        "time": 19,
        "duration": 0.262,
        "velocity": 0.74,
        "hand": "right"
      },
      {
        "midi": 59,
        "time": 19.833,
        "duration": 0.262,
        "velocity": 0.63,
        "hand": "left"
      },
      {
        "midi": 71,
        "time": 19.833,
        "duration": 0.262,
        "velocity": 0.56,
        "hand": "right"
      },
      {
        "midi": 69,
        "time": 20.666,
        "duration": 0.333,
        "velocity": 0.63,
        "hand": "right"
      },
      {
        "midi": 69,
        "time": 21.666,
        "duration": 0.262,
        "velocity": 1,
        "hand": "right"
      },
      {
        "midi": 60,
        "time": 22.5,
        "duration": 0.262,
        "velocity": 0.58,
        "hand": "right"
      },
      {
        "midi": 62,
        "time": 22.5,
        "duration": 0.262,
        "velocity": 0.59,
        "hand": "right"
      },
      {
        "midi": 74,
        "time": 23.333,
        "duration": 0.333,
        "velocity": 0.76,
        "hand": "right"
      },
      {
        "midi": 71,
        "time": 24.333,
        "duration": 0.262,
        "velocity": 0.83,
        "hand": "right"
      },
      {
        "midi": 62,
        "time": 25.166,
        "duration": 0.262,
        "velocity": 0.65,
        "hand": "right"
      },
      {
        "midi": 71,
        "time": 25.166,
        "duration": 0.262,
        "velocity": 0.48,
        "hand": "right"
      },
      {
        "midi": 74,
        "time": 26,
        "duration": 0.333,
        "velocity": 0.74,
        "hand": "right"
      },
      {
        "midi": 71,
        "time": 27,
        "duration": 0.262,
        "velocity": 0.81,
        "hand": "right"
      },
      {
        "midi": 62,
        "time": 27.833,
        "duration": 0.262,
        "velocity": 0.58,
        "hand": "right"
      },
      {
        "midi": 74,
        "time": 28.666,
        "duration": 0.262,
        "velocity": 0.86,
        "hand": "right"
      },
      {
        "midi": 71,
        "time": 29.666,
        "duration": 0.262,
        "velocity": 0.81,
        "hand": "right"
      },
      {
        "midi": 59,
        "time": 30.5,
        "duration": 0.262,
        "velocity": 0.63,
        "hand": "left"
      },
      {
        "midi": 71,
        "time": 30.5,
        "duration": 0.262,
        "velocity": 0.56,
        "hand": "right"
      },
      {
        "midi": 74,
        "time": 31.333,
        "duration": 0.333,
        "velocity": 0.72,
        "hand": "right"
      },
      {
        "midi": 51,
        "time": 32.333,
        "duration": 0.262,
        "velocity": 0.51,
        "hand": "left"
      },
      {
        "midi": 66,
        "time": 32.333,
        "duration": 0.262,
        "velocity": 0.72,
        "hand": "right"
      },
      {
        "midi": 60,
        "time": 33.166,
        "duration": 0.262,
        "velocity": 0.58,
        "hand": "right"
      },
      {
        "midi": 62,
        "time": 33.166,
        "duration": 0.262,
        "velocity": 0.59,
        "hand": "right"
      },
      {
        "midi": 72,
        "time": 34,
        "duration": 0.5,
        "velocity": 0.77,
        "hand": "right"
      },
      {
        "midi": 71,
        "time": 35,
        "duration": 0.262,
        "velocity": 0.81,
        "hand": "right"
      },
      {
        "midi": 62,
        "time": 35.833,
        "duration": 0.262,
        "velocity": 0.65,
        "hand": "right"
      },
      {
        "midi": 71,
        "time": 35.833,
        "duration": 0.262,
        "velocity": 0.48,
        "hand": "right"
      },
      {
        "midi": 74,
        "time": 36.666,
        "duration": 0.262,
        "velocity": 0.86,
        "hand": "right"
      },
      {
        "midi": 71,
        "time": 37.666,
        "duration": 0.262,
        "velocity": 0.83,
        "hand": "right"
      },
      {
        "midi": 62,
        "time": 38.5,
        "duration": 0.262,
        "velocity": 0.58,
        "hand": "right"
      },
      {
        "midi": 74,
        "time": 39.333,
        "duration": 0.262,
        "velocity": 0.86,
        "hand": "right"
      },
      {
        "midi": 71,
        "time": 40.333,
        "duration": 0.262,
        "velocity": 0.79,
        "hand": "right"
      },
      {
        "midi": 59,
        "time": 41.166,
        "duration": 0.262,
        "velocity": 0.63,
        "hand": "left"
      },
      {
        "midi": 71,
        "time": 41.166,
        "duration": 0.262,
        "velocity": 0.56,
        "hand": "right"
      },
      {
        "midi": 74,
        "time": 42,
        "duration": 0.262,
        "velocity": 0.86,
        "hand": "right"
      },
      {
        "midi": 71,
        "time": 43,
        "duration": 0.262,
        "velocity": 0.81,
        "hand": "right"
      },
      {
        "midi": 67,
        "time": 43.833,
        "duration": 0.262,
        "velocity": 0.59,
        "hand": "right"
      },
      {
        "midi": 38,
        "time": 44.666,
        "duration": 0.262,
        "velocity": 0.91,
        "hand": "left"
      },
      {
        "midi": 50,
        "time": 44.666,
        "duration": 0.319,
        "velocity": 0.55,
        "hand": "left"
      },
      {
        "midi": 69,
        "time": 45.666,
        "duration": 0.262,
        "velocity": 1,
        "hand": "right"
      },
      {
        "midi": 60,
        "time": 46.5,
        "duration": 0.262,
        "velocity": 0.65,
        "hand": "right"
      },
      {
        "midi": 66,
        "time": 46.5,
        "duration": 0.262,
        "velocity": 0.48,
        "hand": "right"
      },
      {
        "midi": 74,
        "time": 47.333,
        "duration": 0.262,
        "velocity": 0.92,
        "hand": "right"
      },
      {
        "midi": 71,
        "time": 48.333,
        "duration": 0.262,
        "velocity": 0.83,
        "hand": "right"
      },
      {
        "midi": 62,
        "time": 49.166,
        "duration": 0.262,
        "velocity": 0.58,
        "hand": "right"
      },
      {
        "midi": 74,
        "time": 50,
        "duration": 0.262,
        "velocity": 0.86,
        "hand": "right"
      },
      {
        "midi": 71,
        "time": 51,
        "duration": 0.262,
        "velocity": 0.83,
        "hand": "right"
      },
      {
        "midi": 59,
        "time": 51.833,
        "duration": 0.262,
        "velocity": 0.63,
        "hand": "left"
      },
      {
        "midi": 71,
        "time": 51.833,
        "duration": 0.262,
        "velocity": 0.56,
        "hand": "right"
      },
      {
        "midi": 74,
        "time": 52.666,
        "duration": 0.262,
        "velocity": 0.92,
        "hand": "right"
      },
      {
        "midi": 71,
        "time": 53.666,
        "duration": 0.262,
        "velocity": 0.81,
        "hand": "right"
      },
      {
        "midi": 62,
        "time": 54.5,
        "duration": 0.262,
        "velocity": 0.58,
        "hand": "right"
      },
      {
        "midi": 67,
        "time": 54.5,
        "duration": 0.262,
        "velocity": 0.59,
        "hand": "right"
      },
      {
        "midi": 38,
        "time": 55.333,
        "duration": 0.262,
        "velocity": 0.91,
        "hand": "left"
      },
      {
        "midi": 51,
        "time": 55.333,
        "duration": 0.262,
        "velocity": 0.72,
        "hand": "left"
      },
      {
        "midi": 51,
        "time": 56.333,
        "duration": 0.262,
        "velocity": 0.44,
        "hand": "left"
      },
      {
        "midi": 66,
        "time": 56.333,
        "duration": 0.262,
        "velocity": 0.69,
        "hand": "right"
      },
      {
        "midi": 60,
        "time": 57.166,
        "duration": 0.262,
        "velocity": 0.65,
        "hand": "right"
      },
      {
        "midi": 66,
        "time": 57.166,
        "duration": 0.262,
        "velocity": 0.48,
        "hand": "right"
      },
      {
        "midi": 72,
        "time": 58,
        "duration": 0.5,
        "velocity": 0.76,
        "hand": "right"
      },
      {
        "midi": 71,
        "time": 59,
        "duration": 0.262,
        "velocity": 0.79,
        "hand": "right"
      },
      {
        "midi": 62,
        "time": 59.833,
        "duration": 0.262,
        "velocity": 0.58,
        "hand": "right"
      },
      {
        "midi": 74,
        "time": 60.666,
        "duration": 0.262,
        "velocity": 0.81,
        "hand": "right"
      },
      {
        "midi": 71,
        "time": 61.666,
        "duration": 0.262,
        "velocity": 0.79,
        "hand": "right"
      },
      {
        "midi": 59,
        "time": 62.5,
        "duration": 0.262,
        "velocity": 0.63,
        "hand": "left"
      },
      {
        "midi": 71,
        "time": 62.5,
        "duration": 0.262,
        "velocity": 0.56,
        "hand": "right"
      },
      {
        "midi": 74,
        "time": 63.333,
        "duration": 0.262,
        "velocity": 0.83,
        "hand": "right"
      },
      {
        "midi": 71,
        "time": 64.333,
        "duration": 0.262,
        "velocity": 0.81,
        "hand": "right"
      },
      {
        "midi": 62,
        "time": 65.166,
        "duration": 0.262,
        "velocity": 0.58,
        "hand": "right"
      },
      {
        "midi": 67,
        "time": 65.166,
        "duration": 0.262,
        "velocity": 0.59,
        "hand": "right"
      },
      {
        "midi": 74,
        "time": 66,
        "duration": 0.262,
        "velocity": 0.86,
        "hand": "right"
      },
      {
        "midi": 71,
        "time": 67,
        "duration": 0.262,
        "velocity": 0.81,
        "hand": "right"
      },
      {
        "midi": 62,
        "time": 67.833,
        "duration": 0.262,
        "velocity": 0.65,
        "hand": "right"
      },
      {
        "midi": 71,
        "time": 67.833,
        "duration": 0.262,
        "velocity": 0.48,
        "hand": "right"
      },
      {
        "midi": 72,
        "time": 68.666,
        "duration": 0.333,
        "velocity": 0.85,
        "hand": "right"
      },
      {
        "midi": 69,
        "time": 69.666,
        "duration": 0.262,
        "velocity": 1,
        "hand": "right"
      },
      {
        "midi": 60,
        "time": 70.5,
        "duration": 0.262,
        "velocity": 0.58,
        "hand": "right"
      },
      {
        "midi": 74,
        "time": 71.333,
        "duration": 0.262,
        "velocity": 0.76,
        "hand": "right"
      },
      {
        "midi": 71,
        "time": 72.333,
        "duration": 0.262,
        "velocity": 0.89,
        "hand": "right"
      },
      {
        "midi": 59,
        "time": 73.166,
        "duration": 0.262,
        "velocity": 0.63,
        "hand": "left"
      },
      {
        "midi": 71,
        "time": 73.166,
        "duration": 0.262,
        "velocity": 0.56,
        "hand": "right"
      },
      {
        "midi": 74,
        "time": 74,
        "duration": 0.262,
        "velocity": 0.89,
        "hand": "right"
      },
      {
        "midi": 71,
        "time": 75,
        "duration": 0.262,
        "velocity": 0.76,
        "hand": "right"
      },
      {
        "midi": 62,
        "time": 75.833,
        "duration": 0.262,
        "velocity": 0.58,
        "hand": "right"
      },
      {
        "midi": 67,
        "time": 75.833,
        "duration": 0.262,
        "velocity": 0.59,
        "hand": "right"
      },
      {
        "midi": 74,
        "time": 76.666,
        "duration": 0.262,
        "velocity": 0.86,
        "hand": "right"
      },
      {
        "midi": 71,
        "time": 77.666,
        "duration": 0.262,
        "velocity": 0.81,
        "hand": "right"
      },
      {
        "midi": 62,
        "time": 78.5,
        "duration": 0.262,
        "velocity": 0.65,
        "hand": "right"
      },
      {
        "midi": 71,
        "time": 78.5,
        "duration": 0.262,
        "velocity": 0.48,
        "hand": "right"
      },
      {
        "midi": 74,
        "time": 79.333,
        "duration": 0.262,
        "velocity": 0.92,
        "hand": "right"
      },
      {
        "midi": 51,
        "time": 80.333,
        "duration": 0.262,
        "velocity": 0.46,
        "hand": "left"
      },
      {
        "midi": 66,
        "time": 80.333,
        "duration": 0.262,
        "velocity": 0.72,
        "hand": "right"
      },
      {
        "midi": 60,
        "time": 81.166,
        "duration": 0.262,
        "velocity": 0.58,
        "hand": "right"
      },
      {
        "midi": 72,
        "time": 82,
        "duration": 0.5,
        "velocity": 0.77,
        "hand": "right"
      },
      {
        "midi": 71,
        "time": 83,
        "duration": 0.262,
        "velocity": 0.71,
        "hand": "right"
      },
      {
        "midi": 59,
        "time": 83.833,
        "duration": 0.262,
        "velocity": 0.63,
        "hand": "left"
      },
      {
        "midi": 71,
        "time": 83.833,
        "duration": 0.262,
        "velocity": 0.56,
        "hand": "right"
      },
      {
        "midi": 74,
        "time": 84.666,
        "duration": 0.262,
        "velocity": 0.63,
        "hand": "right"
      },
      {
        "midi": 36,
        "time": 85.5,
        "duration": 0.818,
        "velocity": 0.46,
        "hand": "left"
      },
      {
        "midi": 48,
        "time": 85.5,
        "duration": 0.818,
        "velocity": 0.39,
        "hand": "left"
      },
      {
        "midi": 72,
        "time": 86.333,
        "duration": 0.318,
        "velocity": 0.66,
        "hand": "right"
      },
      {
        "midi": 51,
        "time": 87.166,
        "duration": 0.262,
        "velocity": 0.61,
        "hand": "left"
      },
      {
        "midi": 63,
        "time": 87.166,
        "duration": 0.319,
        "velocity": 0.79,
        "hand": "right"
      },
      {
        "midi": 79,
        "time": 88,
        "duration": 1.833,
        "velocity": 0.71,
        "hand": "right"
      },
      {
        "midi": 59,
        "time": 88.833,
        "duration": 0.262,
        "velocity": 0.61,
        "hand": "left"
      },
      {
        "midi": 62,
        "time": 88.833,
        "duration": 0.262,
        "velocity": 0.68,
        "hand": "right"
      }
    ],
    "hard": [
      {
        "midi": 43,
        "time": 0,
        "duration": 2.167,
        "velocity": 0.93,
        "hand": "left"
      },
      {
        "midi": 67,
        "time": 0,
        "duration": 0.485,
        "velocity": 0.81,
        "hand": "right"
      },
      {
        "midi": 71,
        "time": 0,
        "duration": 0.318,
        "velocity": 0.51,
        "hand": "right"
      },
      {
        "midi": 74,
        "time": 0,
        "duration": 0.651,
        "velocity": 0.71,
        "hand": "right"
      },
      {
        "midi": 79,
        "time": 0,
        "duration": 2.333,
        "velocity": 0.39,
        "hand": "right"
      },
      {
        "midi": 59,
        "time": 0.166,
        "duration": 1.152,
        "velocity": 0.59,
        "hand": "left"
      },
      {
        "midi": 42,
        "time": 0.333,
        "duration": 0.083,
        "velocity": 0.19,
        "hand": "left"
      },
      {
        "midi": 62,
        "time": 0.333,
        "duration": 0.652,
        "velocity": 0.62,
        "hand": "right"
      },
      {
        "midi": 71,
        "time": 0.333,
        "duration": 0.333,
        "velocity": 0.68,
        "hand": "right"
      },
      {
        "midi": 67,
        "time": 0.5,
        "duration": 0.651,
        "velocity": 0.77,
        "hand": "right"
      },
      {
        "midi": 37,
        "time": 0.666,
        "duration": 0.083,
        "velocity": 0.91,
        "hand": "left"
      },
      {
        "midi": 42,
        "time": 0.666,
        "duration": 0.083,
        "velocity": 0.66,
        "hand": "left"
      },
      {
        "midi": 74,
        "time": 0.666,
        "duration": 0.333,
        "velocity": 0.69,
        "hand": "right"
      },
      {
        "midi": 71,
        "time": 0.833,
        "duration": 0.152,
        "velocity": 0.69,
        "hand": "right"
      },
      {
        "midi": 42,
        "time": 1,
        "duration": 0.083,
        "velocity": 0.31,
        "hand": "left"
      },
      {
        "midi": 62,
        "time": 1,
        "duration": 0.485,
        "velocity": 0.52,
        "hand": "right"
      },
      {
        "midi": 71,
        "time": 1,
        "duration": 0.333,
        "velocity": 0.65,
        "hand": "right"
      },
      {
        "midi": 67,
        "time": 1.166,
        "duration": 0.152,
        "velocity": 0.72,
        "hand": "right"
      },
      {
        "midi": 42,
        "time": 1.333,
        "duration": 0.083,
        "velocity": 0.39,
        "hand": "left"
      },
      {
        "midi": 59,
        "time": 1.333,
        "duration": 0.333,
        "velocity": 0.52,
        "hand": "left"
      },
      {
        "midi": 67,
        "time": 1.333,
        "duration": 0.818,
        "velocity": 0.74,
        "hand": "right"
      },
      {
        "midi": 62,
        "time": 1.5,
        "duration": 0.167,
        "velocity": 0.65,
        "hand": "right"
      },
      {
        "midi": 42,
        "time": 1.666,
        "duration": 0.083,
        "velocity": 0.21,
        "hand": "left"
      },
      {
        "midi": 55,
        "time": 1.666,
        "duration": 0.985,
        "velocity": 0.7,
        "hand": "left"
      },
      {
        "midi": 71,
        "time": 1.666,
        "duration": 0.333,
        "velocity": 0.72,
        "hand": "right"
      },
      {
        "midi": 59,
        "time": 1.833,
        "duration": 0.652,
        "velocity": 0.58,
        "hand": "left"
      },
      {
        "midi": 42,
        "time": 2,
        "duration": 0.083,
        "velocity": 0.51,
        "hand": "left"
      },
      {
        "midi": 54,
        "time": 2,
        "duration": 0.083,
        "velocity": 0.63,
        "hand": "left"
      },
      {
        "midi": 62,
        "time": 2,
        "duration": 0.651,
        "velocity": 0.68,
        "hand": "right"
      },
      {
        "midi": 74,
        "time": 2,
        "duration": 0.333,
        "velocity": 0.4,
        "hand": "right"
      },
      {
        "midi": 67,
        "time": 2.166,
        "duration": 0.485,
        "velocity": 0.79,
        "hand": "right"
      },
      {
        "midi": 43,
        "time": 2.333,
        "duration": 0.167,
        "velocity": 0.91,
        "hand": "left"
      },
      {
        "midi": 46,
        "time": 2.333,
        "duration": 0.083,
        "velocity": 0.28,
        "hand": "left"
      },
      {
        "midi": 71,
        "time": 2.333,
        "duration": 0.318,
        "velocity": 0.72,
        "hand": "right"
      },
      {
        "midi": 59,
        "time": 2.5,
        "duration": 0.151,
        "velocity": 0.63,
        "hand": "left"
      },
      {
        "midi": 43,
        "time": 2.666,
        "duration": 0.152,
        "velocity": 0.93,
        "hand": "left"
      },
      {
        "midi": 67,
        "time": 2.666,
        "duration": 0.152,
        "velocity": 0.86,
        "hand": "right"
      },
      {
        "midi": 71,
        "time": 2.666,
        "duration": 0.152,
        "velocity": 0.36,
        "hand": "right"
      },
      {
        "midi": 74,
        "time": 2.666,
        "duration": 0.152,
        "velocity": 0.49,
        "hand": "right"
      },
      {
        "midi": 79,
        "time": 2.666,
        "duration": 1.152,
        "velocity": 0.71,
        "hand": "right"
      },
      {
        "midi": 43,
        "time": 2.833,
        "duration": 1.833,
        "velocity": 0.93,
        "hand": "left"
      },
      {
        "midi": 55,
        "time": 2.833,
        "duration": 0.083,
        "velocity": 0.63,
        "hand": "left"
      },
      {
        "midi": 62,
        "time": 2.833,
        "duration": 0.152,
        "velocity": 0.51,
        "hand": "right"
      },
      {
        "midi": 67,
        "time": 2.833,
        "duration": 0.318,
        "velocity": 0.51,
        "hand": "right"
      },
      {
        "midi": 71,
        "time": 2.833,
        "duration": 0.152,
        "velocity": 0.51,
        "hand": "right"
      },
      {
        "midi": 74,
        "time": 2.833,
        "duration": 0.485,
        "velocity": 0.52,
        "hand": "right"
      },
      {
        "midi": 42,
        "time": 3,
        "duration": 0.083,
        "velocity": 0.19,
        "hand": "left"
      },
      {
        "midi": 62,
        "time": 3,
        "duration": 0.651,
        "velocity": 0.63,
        "hand": "right"
      },
      {
        "midi": 71,
        "time": 3,
        "duration": 0.333,
        "velocity": 0.76,
        "hand": "right"
      },
      {
        "midi": 67,
        "time": 3.166,
        "duration": 0.667,
        "velocity": 0.77,
        "hand": "right"
      },
      {
        "midi": 37,
        "time": 3.333,
        "duration": 0.083,
        "velocity": 0.91,
        "hand": "left"
      },
      {
        "midi": 42,
        "time": 3.333,
        "duration": 0.083,
        "velocity": 0.66,
        "hand": "left"
      },
      {
        "midi": 74,
        "time": 3.333,
        "duration": 0.333,
        "velocity": 0.51,
        "hand": "right"
      },
      {
        "midi": 71,
        "time": 3.5,
        "duration": 0.151,
        "velocity": 0.69,
        "hand": "right"
      },
      {
        "midi": 42,
        "time": 3.666,
        "duration": 0.083,
        "velocity": 0.31,
        "hand": "left"
      },
      {
        "midi": 62,
        "time": 3.666,
        "duration": 0.5,
        "velocity": 0.52,
        "hand": "right"
      },
      {
        "midi": 71,
        "time": 3.666,
        "duration": 0.333,
        "velocity": 0.79,
        "hand": "right"
      },
      {
        "midi": 79,
        "time": 3.833,
        "duration": 0.833,
        "velocity": 0.77,
        "hand": "right"
      },
      {
        "midi": 46,
        "time": 4,
        "duration": 0.083,
        "velocity": 0.39,
        "hand": "left"
      },
      {
        "midi": 67,
        "time": 4,
        "duration": 1,
        "velocity": 0.83,
        "hand": "right"
      },
      {
        "midi": 48,
        "time": 4.166,
        "duration": 0.083,
        "velocity": 0.31,
        "hand": "left"
      },
      {
        "midi": 71,
        "time": 4.333,
        "duration": 0.333,
        "velocity": 0.79,
        "hand": "right"
      },
      {
        "midi": 45,
        "time": 4.666,
        "duration": 0.083,
        "velocity": 0.31,
        "hand": "left"
      },
      {
        "midi": 54,
        "time": 4.666,
        "duration": 0.083,
        "velocity": 0.63,
        "hand": "left"
      },
      {
        "midi": 74,
        "time": 4.666,
        "duration": 0.167,
        "velocity": 0.63,
        "hand": "right"
      },
      {
        "midi": 71,
        "time": 4.833,
        "duration": 0.167,
        "velocity": 0.72,
        "hand": "right"
      },
      {
        "midi": 47,
        "time": 5,
        "duration": 0.083,
        "velocity": 0.58,
        "hand": "left"
      },
      {
        "midi": 60,
        "time": 5,
        "duration": 0.318,
        "velocity": 0.49,
        "hand": "right"
      },
      {
        "midi": 64,
        "time": 5,
        "duration": 0.318,
        "velocity": 0.51,
        "hand": "right"
      },
      {
        "midi": 41,
        "time": 5.166,
        "duration": 0.083,
        "velocity": 0.31,
        "hand": "left"
      },
      {
        "midi": 67,
        "time": 5.166,
        "duration": 0.152,
        "velocity": 0.65,
        "hand": "right"
      },
      {
        "midi": 36,
        "time": 5.333,
        "duration": 0.985,
        "velocity": 0.91,
        "hand": "left"
      },
      {
        "midi": 47,
        "time": 5.333,
        "duration": 0.083,
        "velocity": 0.86,
        "hand": "left"
      },
      {
        "midi": 64,
        "time": 5.333,
        "duration": 0.152,
        "velocity": 0.71,
        "hand": "right"
      },
      {
        "midi": 67,
        "time": 5.333,
        "duration": 1.318,
        "velocity": 0.89,
        "hand": "right"
      },
      {
        "midi": 72,
        "time": 5.333,
        "duration": 0.318,
        "velocity": 0.59,
        "hand": "right"
      },
      {
        "midi": 76,
        "time": 5.333,
        "duration": 0.152,
        "velocity": 0.63,
        "hand": "right"
      },
      {
        "midi": 64,
        "time": 5.5,
        "duration": 0.318,
        "velocity": 0.08,
        "hand": "right"
      },
      {
        "midi": 76,
        "time": 5.5,
        "duration": 0.485,
        "velocity": 0.72,
        "hand": "right"
      },
      {
        "midi": 79,
        "time": 5.5,
        "duration": 2.333,
        "velocity": 0.81,
        "hand": "right"
      },
      {
        "midi": 51,
        "time": 5.666,
        "duration": 0.083,
        "velocity": 0.46,
        "hand": "left"
      },
      {
        "midi": 72,
        "time": 5.666,
        "duration": 0.333,
        "velocity": 0.77,
        "hand": "right"
      },
      {
        "midi": 60,
        "time": 5.833,
        "duration": 0.318,
        "velocity": 0.73,
        "hand": "right"
      },
      {
        "midi": 64,
        "time": 5.833,
        "duration": 0.833,
        "velocity": 0.72,
        "hand": "right"
      },
      {
        "midi": 38,
        "time": 6,
        "duration": 0.083,
        "velocity": 0.91,
        "hand": "left"
      },
      {
        "midi": 51,
        "time": 6,
        "duration": 0.083,
        "velocity": 0.82,
        "hand": "left"
      },
      {
        "midi": 76,
        "time": 6,
        "duration": 0.333,
        "velocity": 0.83,
        "hand": "right"
      },
      {
        "midi": 55,
        "time": 6.166,
        "duration": 0.319,
        "velocity": 0.59,
        "hand": "left"
      },
      {
        "midi": 60,
        "time": 6.166,
        "duration": 0.333,
        "velocity": 0.81,
        "hand": "right"
      },
      {
        "midi": 36,
        "time": 6.333,
        "duration": 0.083,
        "velocity": 0.89,
        "hand": "left"
      },
      {
        "midi": 47,
        "time": 6.333,
        "duration": 0.083,
        "velocity": 0.59,
        "hand": "left"
      },
      {
        "midi": 72,
        "time": 6.333,
        "duration": 0.318,
        "velocity": 0.76,
        "hand": "right"
      },
      {
        "midi": 55,
        "time": 6.5,
        "duration": 0.151,
        "velocity": 0.58,
        "hand": "left"
      },
      {
        "midi": 36,
        "time": 6.666,
        "duration": 1.167,
        "velocity": 0.83,
        "hand": "left"
      },
      {
        "midi": 47,
        "time": 6.666,
        "duration": 0.083,
        "velocity": 0.8,
        "hand": "left"
      },
      {
        "midi": 63,
        "time": 6.666,
        "duration": 0.485,
        "velocity": 0.71,
        "hand": "right"
      },
      {
        "midi": 67,
        "time": 6.666,
        "duration": 0.319,
        "velocity": 0.89,
        "hand": "right"
      },
      {
        "midi": 72,
        "time": 6.666,
        "duration": 0.319,
        "velocity": 0.25,
        "hand": "right"
      },
      {
        "midi": 75,
        "time": 6.666,
        "duration": 1.333,
        "velocity": 0.63,
        "hand": "right"
      },
      {
        "midi": 51,
        "time": 7,
        "duration": 0.083,
        "velocity": 0.5,
        "hand": "left"
      },
      {
        "midi": 67,
        "time": 7,
        "duration": 0.833,
        "velocity": 0.08,
        "hand": "right"
      },
      {
        "midi": 72,
        "time": 7,
        "duration": 0.318,
        "velocity": 0.76,
        "hand": "right"
      },
      {
        "midi": 55,
        "time": 7.166,
        "duration": 0.319,
        "velocity": 0.65,
        "hand": "left"
      },
      {
        "midi": 60,
        "time": 7.166,
        "duration": 0.652,
        "velocity": 0.91,
        "hand": "right"
      },
      {
        "midi": 63,
        "time": 7.166,
        "duration": 0.319,
        "velocity": 0.73,
        "hand": "right"
      },
      {
        "midi": 38,
        "time": 7.333,
        "duration": 0.083,
        "velocity": 0.91,
        "hand": "left"
      },
      {
        "midi": 51,
        "time": 7.333,
        "duration": 0.083,
        "velocity": 0.74,
        "hand": "left"
      },
      {
        "midi": 72,
        "time": 7.333,
        "duration": 0.167,
        "velocity": 0.17,
        "hand": "right"
      },
      {
        "midi": 76,
        "time": 7.333,
        "duration": 0.333,
        "velocity": 0.72,
        "hand": "right"
      },
      {
        "midi": 51,
        "time": 7.5,
        "duration": 0.151,
        "velocity": 0.66,
        "hand": "left"
      },
      {
        "midi": 55,
        "time": 7.5,
        "duration": 0.318,
        "velocity": 0.68,
        "hand": "left"
      },
      {
        "midi": 63,
        "time": 7.5,
        "duration": 0.167,
        "velocity": 0.56,
        "hand": "right"
      },
      {
        "midi": 48,
        "time": 7.666,
        "duration": 0.333,
        "velocity": 0.63,
        "hand": "left"
      },
      {
        "midi": 51,
        "time": 7.666,
        "duration": 0.083,
        "velocity": 0.46,
        "hand": "left"
      },
      {
        "midi": 72,
        "time": 7.666,
        "duration": 0.333,
        "velocity": 0.72,
        "hand": "right"
      },
      {
        "midi": 51,
        "time": 7.833,
        "duration": 0.152,
        "velocity": 0.54,
        "hand": "left"
      },
      {
        "midi": 55,
        "time": 7.833,
        "duration": 0.152,
        "velocity": 0.61,
        "hand": "left"
      },
      {
        "midi": 60,
        "time": 7.833,
        "duration": 0.167,
        "velocity": 0.72,
        "hand": "right"
      },
      {
        "midi": 63,
        "time": 7.833,
        "duration": 0.167,
        "velocity": 0.61,
        "hand": "right"
      },
      {
        "midi": 43,
        "time": 8,
        "duration": 0.985,
        "velocity": 0.91,
        "hand": "left"
      },
      {
        "midi": 47,
        "time": 8,
        "duration": 0.083,
        "velocity": 0.8,
        "hand": "left"
      },
      {
        "midi": 67,
        "time": 8,
        "duration": 0.485,
        "velocity": 0.89,
        "hand": "right"
      },
      {
        "midi": 71,
        "time": 8,
        "duration": 0.318,
        "velocity": 0.73,
        "hand": "right"
      },
      {
        "midi": 74,
        "time": 8,
        "duration": 0.485,
        "velocity": 0.71,
        "hand": "right"
      },
      {
        "midi": 83,
        "time": 8,
        "duration": 1.167,
        "velocity": 0.63,
        "hand": "right"
      },
      {
        "midi": 60,
        "time": 8.166,
        "duration": 0.167,
        "velocity": 0.11,
        "hand": "right"
      },
      {
        "midi": 51,
        "time": 8.333,
        "duration": 0.083,
        "velocity": 0.4,
        "hand": "left"
      },
      {
        "midi": 59,
        "time": 8.333,
        "duration": 0.152,
        "velocity": 0.71,
        "hand": "left"
      },
      {
        "midi": 62,
        "time": 8.333,
        "duration": 0.152,
        "velocity": 0.63,
        "hand": "right"
      },
      {
        "midi": 71,
        "time": 8.333,
        "duration": 0.152,
        "velocity": 0.76,
        "hand": "right"
      },
      {
        "midi": 59,
        "time": 8.5,
        "duration": 0.485,
        "velocity": 0.54,
        "hand": "left"
      },
      {
        "midi": 62,
        "time": 8.5,
        "duration": 0.151,
        "velocity": 0.71,
        "hand": "right"
      },
      {
        "midi": 67,
        "time": 8.5,
        "duration": 0.151,
        "velocity": 0.9,
        "hand": "right"
      },
      {
        "midi": 71,
        "time": 8.5,
        "duration": 0.318,
        "velocity": 0.13,
        "hand": "right"
      },
      {
        "midi": 74,
        "time": 8.5,
        "duration": 0.333,
        "velocity": 0.08,
        "hand": "right"
      },
      {
        "midi": 38,
        "time": 8.666,
        "duration": 0.083,
        "velocity": 0.91,
        "hand": "left"
      },
      {
        "midi": 51,
        "time": 8.666,
        "duration": 0.083,
        "velocity": 0.8,
        "hand": "left"
      },
      {
        "midi": 62,
        "time": 8.666,
        "duration": 0.319,
        "velocity": 0.7,
        "hand": "right"
      },
      {
        "midi": 67,
        "time": 8.666,
        "duration": 0.167,
        "velocity": 0.4,
        "hand": "right"
      },
      {
        "midi": 71,
        "time": 8.833,
        "duration": 0.318,
        "velocity": 0.53,
        "hand": "right"
      },
      {
        "midi": 43,
        "time": 9,
        "duration": 0.083,
        "velocity": 0.87,
        "hand": "left"
      },
      {
        "midi": 47,
        "time": 9,
        "duration": 0.083,
        "velocity": 0.78,
        "hand": "left"
      },
      {
        "midi": 62,
        "time": 9,
        "duration": 0.167,
        "velocity": 0.64,
        "hand": "right"
      },
      {
        "midi": 67,
        "time": 9,
        "duration": 0.167,
        "velocity": 0.83,
        "hand": "right"
      },
      {
        "midi": 58,
        "time": 9.166,
        "duration": 0.167,
        "velocity": 0.63,
        "hand": "left"
      },
      {
        "midi": 71,
        "time": 9.166,
        "duration": 0.083,
        "velocity": 0.56,
        "hand": "right"
      },
      {
        "midi": 73,
        "time": 9.166,
        "duration": 0.167,
        "velocity": 0.71,
        "hand": "right"
      },
      {
        "midi": 82,
        "time": 9.166,
        "duration": 0.167,
        "velocity": 0.63,
        "hand": "right"
      },
      {
        "midi": 38,
        "time": 9.333,
        "duration": 0.652,
        "velocity": 0.85,
        "hand": "left"
      },
      {
        "midi": 47,
        "time": 9.333,
        "duration": 0.083,
        "velocity": 0.74,
        "hand": "left"
      },
      {
        "midi": 66,
        "time": 9.333,
        "duration": 0.318,
        "velocity": 0.71,
        "hand": "right"
      },
      {
        "midi": 69,
        "time": 9.333,
        "duration": 0.652,
        "velocity": 0.71,
        "hand": "right"
      },
      {
        "midi": 72,
        "time": 9.333,
        "duration": 1.167,
        "velocity": 0.62,
        "hand": "right"
      },
      {
        "midi": 74,
        "time": 9.333,
        "duration": 1.318,
        "velocity": 0.63,
        "hand": "right"
      },
      {
        "midi": 51,
        "time": 9.666,
        "duration": 0.083,
        "velocity": 0.54,
        "hand": "left"
      },
      {
        "midi": 66,
        "time": 9.666,
        "duration": 0.152,
        "velocity": 0.76,
        "hand": "right"
      },
      {
        "midi": 54,
        "time": 9.833,
        "duration": 0.152,
        "velocity": 0.64,
        "hand": "left"
      },
      {
        "midi": 60,
        "time": 9.833,
        "duration": 0.318,
        "velocity": 0.9,
        "hand": "right"
      },
      {
        "midi": 62,
        "time": 9.833,
        "duration": 0.152,
        "velocity": 0.89,
        "hand": "right"
      },
      {
        "midi": 66,
        "time": 9.833,
        "duration": 0.318,
        "velocity": 0.78,
        "hand": "right"
      },
      {
        "midi": 38,
        "time": 10,
        "duration": 0.083,
        "velocity": 0.91,
        "hand": "left"
      },
      {
        "midi": 50,
        "time": 10,
        "duration": 0.318,
        "velocity": 0.68,
        "hand": "left"
      },
      {
        "midi": 62,
        "time": 10,
        "duration": 0.151,
        "velocity": 0.28,
        "hand": "right"
      },
      {
        "midi": 69,
        "time": 10,
        "duration": 0.333,
        "velocity": 0.76,
        "hand": "right"
      },
      {
        "midi": 38,
        "time": 10.166,
        "duration": 0.333,
        "velocity": 0.9,
        "hand": "left"
      },
      {
        "midi": 47,
        "time": 10.166,
        "duration": 0.083,
        "velocity": 0.58,
        "hand": "left"
      },
      {
        "midi": 60,
        "time": 10.166,
        "duration": 0.319,
        "velocity": 0.7,
        "hand": "right"
      },
      {
        "midi": 62,
        "time": 10.166,
        "duration": 0.319,
        "velocity": 0.83,
        "hand": "right"
      },
      {
        "midi": 66,
        "time": 10.166,
        "duration": 0.152,
        "velocity": 0.69,
        "hand": "right"
      },
      {
        "midi": 51,
        "time": 10.333,
        "duration": 0.083,
        "velocity": 0.46,
        "hand": "left"
      },
      {
        "midi": 66,
        "time": 10.333,
        "duration": 0.333,
        "velocity": 0.69,
        "hand": "right"
      },
      {
        "midi": 50,
        "time": 10.5,
        "duration": 0.167,
        "velocity": 0.64,
        "hand": "left"
      },
      {
        "midi": 54,
        "time": 10.5,
        "duration": 0.167,
        "velocity": 0.67,
        "hand": "left"
      },
      {
        "midi": 60,
        "time": 10.5,
        "duration": 0.167,
        "velocity": 0.64,
        "hand": "right"
      },
      {
        "midi": 62,
        "time": 10.5,
        "duration": 0.151,
        "velocity": 0.55,
        "hand": "right"
      },
      {
        "midi": 43,
        "time": 10.666,
        "duration": 0.985,
        "velocity": 0.87,
        "hand": "left"
      },
      {
        "midi": 47,
        "time": 10.666,
        "duration": 0.083,
        "velocity": 0.77,
        "hand": "left"
      },
      {
        "midi": 71,
        "time": 10.666,
        "duration": 0.319,
        "velocity": 0.79,
        "hand": "right"
      },
      {
        "midi": 74,
        "time": 10.666,
        "duration": 0.652,
        "velocity": 0.71,
        "hand": "right"
      },
      {
        "midi": 79,
        "time": 10.666,
        "duration": 2.652,
        "velocity": 0.71,
        "hand": "right"
      },
      {
        "midi": 83,
        "time": 10.666,
        "duration": 0.083,
        "velocity": 0.63,
        "hand": "right"
      },
      {
        "midi": 51,
        "time": 11,
        "duration": 0.083,
        "velocity": 0.51,
        "hand": "left"
      },
      {
        "midi": 71,
        "time": 11,
        "duration": 0.151,
        "velocity": 0.65,
        "hand": "right"
      },
      {
        "midi": 67,
        "time": 11.166,
        "duration": 0.319,
        "velocity": 0.79,
        "hand": "right"
      },
      {
        "midi": 71,
        "time": 11.166,
        "duration": 0.485,
        "velocity": 0.83,
        "hand": "right"
      },
      {
        "midi": 38,
        "time": 11.333,
        "duration": 0.083,
        "velocity": 0.91,
        "hand": "left"
      },
      {
        "midi": 51,
        "time": 11.333,
        "duration": 0.083,
        "velocity": 0.74,
        "hand": "left"
      },
      {
        "midi": 62,
        "time": 11.333,
        "duration": 0.152,
        "velocity": 1,
        "hand": "right"
      },
      {
        "midi": 74,
        "time": 11.333,
        "duration": 1.318,
        "velocity": 0.57,
        "hand": "right"
      },
      {
        "midi": 62,
        "time": 11.5,
        "duration": 0.151,
        "velocity": 0.64,
        "hand": "right"
      },
      {
        "midi": 67,
        "time": 11.5,
        "duration": 0.318,
        "velocity": 0.67,
        "hand": "right"
      },
      {
        "midi": 43,
        "time": 11.666,
        "duration": 0.083,
        "velocity": 0.85,
        "hand": "left"
      },
      {
        "midi": 47,
        "time": 11.666,
        "duration": 0.083,
        "velocity": 0.67,
        "hand": "left"
      },
      {
        "midi": 62,
        "time": 11.666,
        "duration": 0.152,
        "velocity": 1,
        "hand": "right"
      },
      {
        "midi": 71,
        "time": 11.666,
        "duration": 0.319,
        "velocity": 0.72,
        "hand": "right"
      },
      {
        "midi": 62,
        "time": 11.833,
        "duration": 0.152,
        "velocity": 0.58,
        "hand": "right"
      },
      {
        "midi": 67,
        "time": 11.833,
        "duration": 0.152,
        "velocity": 0.59,
        "hand": "right"
      },
      {
        "midi": 43,
        "time": 12,
        "duration": 1.167,
        "velocity": 0.86,
        "hand": "left"
      },
      {
        "midi": 47,
        "time": 12,
        "duration": 0.083,
        "velocity": 0.83,
        "hand": "left"
      },
      {
        "midi": 62,
        "time": 12,
        "duration": 0.485,
        "velocity": 0.74,
        "hand": "right"
      },
      {
        "midi": 67,
        "time": 12,
        "duration": 0.318,
        "velocity": 1,
        "hand": "right"
      },
      {
        "midi": 71,
        "time": 12,
        "duration": 0.318,
        "velocity": 0.53,
        "hand": "right"
      },
      {
        "midi": 51,
        "time": 12.333,
        "duration": 0.083,
        "velocity": 0.43,
        "hand": "left"
      },
      {
        "midi": 67,
        "time": 12.333,
        "duration": 0.152,
        "velocity": 1,
        "hand": "right"
      },
      {
        "midi": 71,
        "time": 12.333,
        "duration": 0.152,
        "velocity": 0.81,
        "hand": "right"
      },
      {
        "midi": 59,
        "time": 12.5,
        "duration": 0.151,
        "velocity": 0.61,
        "hand": "left"
      },
      {
        "midi": 62,
        "time": 12.5,
        "duration": 0.318,
        "velocity": 0.84,
        "hand": "right"
      },
      {
        "midi": 67,
        "time": 12.5,
        "duration": 0.151,
        "velocity": 0.87,
        "hand": "right"
      },
      {
        "midi": 71,
        "time": 12.5,
        "duration": 0.318,
        "velocity": 0.79,
        "hand": "right"
      },
      {
        "midi": 38,
        "time": 12.666,
        "duration": 0.083,
        "velocity": 0.91,
        "hand": "left"
      },
      {
        "midi": 51,
        "time": 12.666,
        "duration": 0.083,
        "velocity": 0.72,
        "hand": "left"
      },
      {
        "midi": 67,
        "time": 12.666,
        "duration": 0.152,
        "velocity": 1,
        "hand": "right"
      },
      {
        "midi": 74,
        "time": 12.666,
        "duration": 0.652,
        "velocity": 0.57,
        "hand": "right"
      },
      {
        "midi": 59,
        "time": 12.833,
        "duration": 0.152,
        "velocity": 0.59,
        "hand": "left"
      },
      {
        "midi": 62,
        "time": 12.833,
        "duration": 0.152,
        "velocity": 0.63,
        "hand": "right"
      },
      {
        "midi": 67,
        "time": 12.833,
        "duration": 0.318,
        "velocity": 0.73,
        "hand": "right"
      },
      {
        "midi": 71,
        "time": 12.833,
        "duration": 0.152,
        "velocity": 0.58,
        "hand": "right"
      },
      {
        "midi": 51,
        "time": 13,
        "duration": 0.083,
        "velocity": 0.54,
        "hand": "left"
      },
      {
        "midi": 55,
        "time": 13,
        "duration": 0.318,
        "velocity": 0.69,
        "hand": "left"
      },
      {
        "midi": 62,
        "time": 13,
        "duration": 0.151,
        "velocity": 0.67,
        "hand": "right"
      },
      {
        "midi": 69,
        "time": 13,
        "duration": 0.333,
        "velocity": 1,
        "hand": "right"
      },
      {
        "midi": 71,
        "time": 13,
        "duration": 0.318,
        "velocity": 0.74,
        "hand": "right"
      },
      {
        "midi": 62,
        "time": 13.166,
        "duration": 0.152,
        "velocity": 0.64,
        "hand": "right"
      },
      {
        "midi": 67,
        "time": 13.166,
        "duration": 0.152,
        "velocity": 0.56,
        "hand": "right"
      },
      {
        "midi": 43,
        "time": 13.333,
        "duration": 0.985,
        "velocity": 0.9,
        "hand": "left"
      },
      {
        "midi": 47,
        "time": 13.333,
        "duration": 0.083,
        "velocity": 0.82,
        "hand": "left"
      },
      {
        "midi": 67,
        "time": 13.333,
        "duration": 0.485,
        "velocity": 1,
        "hand": "right"
      },
      {
        "midi": 71,
        "time": 13.333,
        "duration": 0.318,
        "velocity": 0.72,
        "hand": "right"
      },
      {
        "midi": 74,
        "time": 13.333,
        "duration": 0.652,
        "velocity": 0.72,
        "hand": "right"
      },
      {
        "midi": 79,
        "time": 13.333,
        "duration": 2.333,
        "velocity": 0.79,
        "hand": "right"
      },
      {
        "midi": 51,
        "time": 13.666,
        "duration": 0.083,
        "velocity": 0.44,
        "hand": "left"
      },
      {
        "midi": 71,
        "time": 13.666,
        "duration": 0.152,
        "velocity": 0.76,
        "hand": "right"
      },
      {
        "midi": 59,
        "time": 13.833,
        "duration": 0.318,
        "velocity": 0.61,
        "hand": "left"
      },
      {
        "midi": 62,
        "time": 13.833,
        "duration": 0.318,
        "velocity": 0.84,
        "hand": "right"
      },
      {
        "midi": 67,
        "time": 13.833,
        "duration": 0.652,
        "velocity": 0.87,
        "hand": "right"
      },
      {
        "midi": 71,
        "time": 13.833,
        "duration": 0.485,
        "velocity": 0.82,
        "hand": "right"
      },
      {
        "midi": 38,
        "time": 14,
        "duration": 0.083,
        "velocity": 0.91,
        "hand": "left"
      },
      {
        "midi": 51,
        "time": 14,
        "duration": 0.083,
        "velocity": 0.74,
        "hand": "left"
      },
      {
        "midi": 69,
        "time": 14,
        "duration": 0.333,
        "velocity": 1,
        "hand": "right"
      },
      {
        "midi": 74,
        "time": 14,
        "duration": 0.333,
        "velocity": 0.71,
        "hand": "right"
      },
      {
        "midi": 59,
        "time": 14.166,
        "duration": 0.152,
        "velocity": 0.61,
        "hand": "left"
      },
      {
        "midi": 62,
        "time": 14.166,
        "duration": 0.152,
        "velocity": 0.68,
        "hand": "right"
      },
      {
        "midi": 43,
        "time": 14.333,
        "duration": 0.083,
        "velocity": 0.86,
        "hand": "left"
      },
      {
        "midi": 47,
        "time": 14.333,
        "duration": 0.083,
        "velocity": 0.72,
        "hand": "left"
      },
      {
        "midi": 62,
        "time": 14.333,
        "duration": 0.152,
        "velocity": 0.65,
        "hand": "right"
      },
      {
        "midi": 71,
        "time": 14.333,
        "duration": 0.152,
        "velocity": 1,
        "hand": "right"
      },
      {
        "midi": 62,
        "time": 14.5,
        "duration": 0.151,
        "velocity": 0.65,
        "hand": "right"
      },
      {
        "midi": 67,
        "time": 14.5,
        "duration": 0.151,
        "velocity": 0.66,
        "hand": "right"
      },
      {
        "midi": 71,
        "time": 14.5,
        "duration": 0.151,
        "velocity": 0.48,
        "hand": "right"
      },
      {
        "midi": 43,
        "time": 14.666,
        "duration": 1,
        "velocity": 0.83,
        "hand": "left"
      },
      {
        "midi": 47,
        "time": 14.666,
        "duration": 0.083,
        "velocity": 0.73,
        "hand": "left"
      },
      {
        "midi": 62,
        "time": 14.666,
        "duration": 0.485,
        "velocity": 0.82,
        "hand": "right"
      },
      {
        "midi": 67,
        "time": 14.666,
        "duration": 0.485,
        "velocity": 0.87,
        "hand": "right"
      },
      {
        "midi": 71,
        "time": 14.666,
        "duration": 0.319,
        "velocity": 0.71,
        "hand": "right"
      },
      {
        "midi": 51,
        "time": 15,
        "duration": 0.083,
        "velocity": 0.52,
        "hand": "left"
      },
      {
        "midi": 69,
        "time": 15,
        "duration": 0.333,
        "velocity": 1,
        "hand": "right"
      },
      {
        "midi": 71,
        "time": 15,
        "duration": 0.151,
        "velocity": 0.81,
        "hand": "right"
      },
      {
        "midi": 62,
        "time": 15.166,
        "duration": 0.319,
        "velocity": 0.83,
        "hand": "right"
      },
      {
        "midi": 67,
        "time": 15.166,
        "duration": 0.152,
        "velocity": 0.87,
        "hand": "right"
      },
      {
        "midi": 71,
        "time": 15.166,
        "duration": 0.319,
        "velocity": 0.76,
        "hand": "right"
      },
      {
        "midi": 38,
        "time": 15.333,
        "duration": 0.083,
        "velocity": 0.91,
        "hand": "left"
      },
      {
        "midi": 51,
        "time": 15.333,
        "duration": 0.083,
        "velocity": 0.71,
        "hand": "left"
      },
      {
        "midi": 67,
        "time": 15.333,
        "duration": 0.152,
        "velocity": 1,
        "hand": "right"
      },
      {
        "midi": 74,
        "time": 15.333,
        "duration": 0.333,
        "velocity": 0.69,
        "hand": "right"
      },
      {
        "midi": 62,
        "time": 15.5,
        "duration": 0.485,
        "velocity": 0.71,
        "hand": "right"
      },
      {
        "midi": 67,
        "time": 15.5,
        "duration": 0.485,
        "velocity": 0.8,
        "hand": "right"
      },
      {
        "midi": 71,
        "time": 15.5,
        "duration": 0.151,
        "velocity": 0.59,
        "hand": "right"
      },
      {
        "midi": 51,
        "time": 15.666,
        "duration": 0.083,
        "velocity": 0.38,
        "hand": "left"
      },
      {
        "midi": 55,
        "time": 15.666,
        "duration": 0.319,
        "velocity": 0.68,
        "hand": "left"
      },
      {
        "midi": 66,
        "time": 15.666,
        "duration": 0.333,
        "velocity": 1,
        "hand": "right"
      },
      {
        "midi": 71,
        "time": 15.666,
        "duration": 0.319,
        "velocity": 0.76,
        "hand": "right"
      },
      {
        "midi": 43,
        "time": 15.833,
        "duration": 0.083,
        "velocity": 0.86,
        "hand": "left"
      },
      {
        "midi": 47,
        "time": 15.833,
        "duration": 0.083,
        "velocity": 0.39,
        "hand": "left"
      },
      {
        "midi": 43,
        "time": 16,
        "duration": 0.985,
        "velocity": 0.91,
        "hand": "left"
      },
      {
        "midi": 47,
        "time": 16,
        "duration": 0.985,
        "velocity": 0.86,
        "hand": "left"
      },
      {
        "midi": 71,
        "time": 16,
        "duration": 0.318,
        "velocity": 0.71,
        "hand": "right"
      },
      {
        "midi": 74,
        "time": 16,
        "duration": 0.651,
        "velocity": 0.71,
        "hand": "right"
      },
      {
        "midi": 79,
        "time": 16,
        "duration": 2.333,
        "velocity": 0.76,
        "hand": "right"
      },
      {
        "midi": 83,
        "time": 16,
        "duration": 4,
        "velocity": 0.63,
        "hand": "right"
      },
      {
        "midi": 51,
        "time": 16.333,
        "duration": 0.083,
        "velocity": 0.46,
        "hand": "left"
      },
      {
        "midi": 62,
        "time": 16.333,
        "duration": 0.167,
        "velocity": 1,
        "hand": "right"
      },
      {
        "midi": 71,
        "time": 16.333,
        "duration": 0.152,
        "velocity": 0.81,
        "hand": "right"
      },
      {
        "midi": 67,
        "time": 16.5,
        "duration": 0.318,
        "velocity": 0.73,
        "hand": "right"
      },
      {
        "midi": 71,
        "time": 16.5,
        "duration": 0.485,
        "velocity": 0.72,
        "hand": "right"
      },
      {
        "midi": 38,
        "time": 16.666,
        "duration": 0.083,
        "velocity": 0.91,
        "hand": "left"
      },
      {
        "midi": 51,
        "time": 16.666,
        "duration": 0.083,
        "velocity": 0.82,
        "hand": "left"
      },
      {
        "midi": 62,
        "time": 16.666,
        "duration": 0.152,
        "velocity": 1,
        "hand": "right"
      },
      {
        "midi": 74,
        "time": 16.666,
        "duration": 0.5,
        "velocity": 0.63,
        "hand": "right"
      },
      {
        "midi": 62,
        "time": 16.833,
        "duration": 0.152,
        "velocity": 0.59,
        "hand": "right"
      },
      {
        "midi": 67,
        "time": 16.833,
        "duration": 0.333,
        "velocity": 0.81,
        "hand": "right"
      },
      {
        "midi": 43,
        "time": 17,
        "duration": 0.083,
        "velocity": 0.89,
        "hand": "left"
      },
      {
        "midi": 47,
        "time": 17,
        "duration": 0.083,
        "velocity": 0.59,
        "hand": "left"
      },
      {
        "midi": 62,
        "time": 17,
        "duration": 0.151,
        "velocity": 1,
        "hand": "right"
      },
      {
        "midi": 71,
        "time": 17,
        "duration": 0.318,
        "velocity": 0.76,
        "hand": "right"
      },
      {
        "midi": 62,
        "time": 17.166,
        "duration": 0.152,
        "velocity": 0.58,
        "hand": "right"
      },
      {
        "midi": 43,
        "time": 17.333,
        "duration": 1.167,
        "velocity": 0.83,
        "hand": "left"
      },
      {
        "midi": 47,
        "time": 17.333,
        "duration": 0.083,
        "velocity": 0.8,
        "hand": "left"
      },
      {
        "midi": 62,
        "time": 17.333,
        "duration": 0.485,
        "velocity": 0.88,
        "hand": "right"
      },
      {
        "midi": 67,
        "time": 17.333,
        "duration": 0.318,
        "velocity": 1,
        "hand": "right"
      },
      {
        "midi": 71,
        "time": 17.333,
        "duration": 0.318,
        "velocity": 0.66,
        "hand": "right"
      },
      {
        "midi": 51,
        "time": 17.666,
        "duration": 0.083,
        "velocity": 0.5,
        "hand": "left"
      },
      {
        "midi": 67,
        "time": 17.666,
        "duration": 0.083,
        "velocity": 1,
        "hand": "right"
      },
      {
        "midi": 71,
        "time": 17.666,
        "duration": 0.152,
        "velocity": 0.81,
        "hand": "right"
      },
      {
        "midi": 62,
        "time": 17.833,
        "duration": 0.318,
        "velocity": 0.65,
        "hand": "right"
      },
      {
        "midi": 67,
        "time": 17.833,
        "duration": 0.152,
        "velocity": 0.91,
        "hand": "right"
      },
      {
        "midi": 71,
        "time": 17.833,
        "duration": 0.318,
        "velocity": 0.73,
        "hand": "right"
      },
      {
        "midi": 38,
        "time": 18,
        "duration": 0.083,
        "velocity": 0.91,
        "hand": "left"
      },
      {
        "midi": 51,
        "time": 18,
        "duration": 0.083,
        "velocity": 0.74,
        "hand": "left"
      },
      {
        "midi": 67,
        "time": 18,
        "duration": 0.333,
        "velocity": 1,
        "hand": "right"
      },
      {
        "midi": 74,
        "time": 18,
        "duration": 0.333,
        "velocity": 0.76,
        "hand": "right"
      },
      {
        "midi": 59,
        "time": 18.166,
        "duration": 0.167,
        "velocity": 0.66,
        "hand": "left"
      },
      {
        "midi": 62,
        "time": 18.166,
        "duration": 0.319,
        "velocity": 0.68,
        "hand": "right"
      },
      {
        "midi": 71,
        "time": 18.166,
        "duration": 0.152,
        "velocity": 0.56,
        "hand": "right"
      },
      {
        "midi": 51,
        "time": 18.333,
        "duration": 0.083,
        "velocity": 0.46,
        "hand": "left"
      },
      {
        "midi": 55,
        "time": 18.333,
        "duration": 0.318,
        "velocity": 0.63,
        "hand": "left"
      },
      {
        "midi": 69,
        "time": 18.333,
        "duration": 0.167,
        "velocity": 1,
        "hand": "right"
      },
      {
        "midi": 71,
        "time": 18.333,
        "duration": 0.152,
        "velocity": 0.76,
        "hand": "right"
      },
      {
        "midi": 59,
        "time": 18.5,
        "duration": 0.151,
        "velocity": 0.54,
        "hand": "left"
      },
      {
        "midi": 62,
        "time": 18.5,
        "duration": 0.151,
        "velocity": 0.61,
        "hand": "right"
      },
      {
        "midi": 67,
        "time": 18.5,
        "duration": 0.151,
        "velocity": 0.72,
        "hand": "right"
      },
      {
        "midi": 71,
        "time": 18.5,
        "duration": 0.151,
        "velocity": 0.61,
        "hand": "right"
      },
      {
        "midi": 43,
        "time": 18.666,
        "duration": 0.985,
        "velocity": 0.91,
        "hand": "left"
      },
      {
        "midi": 47,
        "time": 18.666,
        "duration": 0.083,
        "velocity": 0.8,
        "hand": "left"
      },
      {
        "midi": 67,
        "time": 18.666,
        "duration": 0.485,
        "velocity": 1,
        "hand": "right"
      },
      {
        "midi": 71,
        "time": 18.666,
        "duration": 0.319,
        "velocity": 0.73,
        "hand": "right"
      },
      {
        "midi": 74,
        "time": 18.666,
        "duration": 0.652,
        "velocity": 0.76,
        "hand": "right"
      },
      {
        "midi": 79,
        "time": 18.666,
        "duration": 2.167,
        "velocity": 0.76,
        "hand": "right"
      },
      {
        "midi": 51,
        "time": 19,
        "duration": 0.083,
        "velocity": 0.4,
        "hand": "left"
      },
      {
        "midi": 71,
        "time": 19,
        "duration": 0.151,
        "velocity": 0.74,
        "hand": "right"
      },
      {
        "midi": 59,
        "time": 19.166,
        "duration": 0.485,
        "velocity": 0.54,
        "hand": "left"
      },
      {
        "midi": 62,
        "time": 19.166,
        "duration": 0.152,
        "velocity": 0.71,
        "hand": "right"
      },
      {
        "midi": 67,
        "time": 19.166,
        "duration": 0.652,
        "velocity": 0.9,
        "hand": "right"
      },
      {
        "midi": 71,
        "time": 19.166,
        "duration": 0.319,
        "velocity": 0.66,
        "hand": "right"
      },
      {
        "midi": 38,
        "time": 19.333,
        "duration": 0.083,
        "velocity": 0.91,
        "hand": "left"
      },
      {
        "midi": 51,
        "time": 19.333,
        "duration": 0.083,
        "velocity": 0.8,
        "hand": "left"
      },
      {
        "midi": 62,
        "time": 19.333,
        "duration": 0.318,
        "velocity": 0.7,
        "hand": "right"
      },
      {
        "midi": 69,
        "time": 19.333,
        "duration": 0.333,
        "velocity": 1,
        "hand": "right"
      },
      {
        "midi": 74,
        "time": 19.333,
        "duration": 0.333,
        "velocity": 0.76,
        "hand": "right"
      },
      {
        "midi": 71,
        "time": 19.5,
        "duration": 0.151,
        "velocity": 0.76,
        "hand": "right"
      },
      {
        "midi": 43,
        "time": 19.666,
        "duration": 0.083,
        "velocity": 0.87,
        "hand": "left"
      },
      {
        "midi": 47,
        "time": 19.666,
        "duration": 0.083,
        "velocity": 0.78,
        "hand": "left"
      },
      {
        "midi": 62,
        "time": 19.666,
        "duration": 0.152,
        "velocity": 0.64,
        "hand": "right"
      },
      {
        "midi": 71,
        "time": 19.666,
        "duration": 0.152,
        "velocity": 1,
        "hand": "right"
      },
      {
        "midi": 59,
        "time": 19.833,
        "duration": 0.167,
        "velocity": 0.63,
        "hand": "left"
      },
      {
        "midi": 62,
        "time": 19.833,
        "duration": 0.152,
        "velocity": 0.73,
        "hand": "right"
      },
      {
        "midi": 67,
        "time": 19.833,
        "duration": 0.167,
        "velocity": 0.7,
        "hand": "right"
      },
      {
        "midi": 71,
        "time": 19.833,
        "duration": 0.167,
        "velocity": 0.56,
        "hand": "right"
      },
      {
        "midi": 38,
        "time": 20,
        "duration": 0.651,
        "velocity": 0.85,
        "hand": "left"
      },
      {
        "midi": 47,
        "time": 20,
        "duration": 0.083,
        "velocity": 0.74,
        "hand": "left"
      },
      {
        "midi": 62,
        "time": 20,
        "duration": 0.485,
        "velocity": 0.85,
        "hand": "right"
      },
      {
        "midi": 66,
        "time": 20,
        "duration": 0.318,
        "velocity": 0.71,
        "hand": "right"
      },
      {
        "midi": 69,
        "time": 20,
        "duration": 0.651,
        "velocity": 0.71,
        "hand": "right"
      },
      {
        "midi": 74,
        "time": 20,
        "duration": 1.333,
        "velocity": 0.63,
        "hand": "right"
      },
      {
        "midi": 51,
        "time": 20.333,
        "duration": 0.083,
        "velocity": 0.54,
        "hand": "left"
      },
      {
        "midi": 66,
        "time": 20.333,
        "duration": 0.152,
        "velocity": 0.76,
        "hand": "right"
      },
      {
        "midi": 54,
        "time": 20.5,
        "duration": 0.151,
        "velocity": 0.64,
        "hand": "left"
      },
      {
        "midi": 60,
        "time": 20.5,
        "duration": 0.318,
        "velocity": 0.9,
        "hand": "right"
      },
      {
        "midi": 62,
        "time": 20.5,
        "duration": 0.318,
        "velocity": 0.89,
        "hand": "right"
      },
      {
        "midi": 66,
        "time": 20.5,
        "duration": 0.318,
        "velocity": 0.78,
        "hand": "right"
      },
      {
        "midi": 38,
        "time": 20.666,
        "duration": 0.083,
        "velocity": 0.91,
        "hand": "left"
      },
      {
        "midi": 50,
        "time": 20.666,
        "duration": 0.319,
        "velocity": 0.68,
        "hand": "left"
      },
      {
        "midi": 69,
        "time": 20.666,
        "duration": 0.333,
        "velocity": 0.63,
        "hand": "right"
      },
      {
        "midi": 38,
        "time": 20.833,
        "duration": 0.333,
        "velocity": 0.9,
        "hand": "left"
      },
      {
        "midi": 47,
        "time": 20.833,
        "duration": 0.083,
        "velocity": 0.58,
        "hand": "left"
      },
      {
        "midi": 60,
        "time": 20.833,
        "duration": 0.318,
        "velocity": 0.7,
        "hand": "right"
      },
      {
        "midi": 62,
        "time": 20.833,
        "duration": 0.318,
        "velocity": 0.83,
        "hand": "right"
      },
      {
        "midi": 66,
        "time": 20.833,
        "duration": 0.152,
        "velocity": 0.69,
        "hand": "right"
      },
      {
        "midi": 51,
        "time": 21,
        "duration": 0.083,
        "velocity": 0.46,
        "hand": "left"
      },
      {
        "midi": 66,
        "time": 21,
        "duration": 0.318,
        "velocity": 0.68,
        "hand": "right"
      },
      {
        "midi": 50,
        "time": 21.166,
        "duration": 0.152,
        "velocity": 0.64,
        "hand": "left"
      },
      {
        "midi": 54,
        "time": 21.166,
        "duration": 0.152,
        "velocity": 0.67,
        "hand": "left"
      },
      {
        "midi": 60,
        "time": 21.166,
        "duration": 0.152,
        "velocity": 0.64,
        "hand": "right"
      },
      {
        "midi": 62,
        "time": 21.166,
        "duration": 0.152,
        "velocity": 0.55,
        "hand": "right"
      },
      {
        "midi": 38,
        "time": 21.333,
        "duration": 0.652,
        "velocity": 0.87,
        "hand": "left"
      },
      {
        "midi": 47,
        "time": 21.333,
        "duration": 0.083,
        "velocity": 0.77,
        "hand": "left"
      },
      {
        "midi": 66,
        "time": 21.333,
        "duration": 0.318,
        "velocity": 0.72,
        "hand": "right"
      },
      {
        "midi": 69,
        "time": 21.333,
        "duration": 0.318,
        "velocity": 0.71,
        "hand": "right"
      },
      {
        "midi": 72,
        "time": 21.333,
        "duration": 0.652,
        "velocity": 0.77,
        "hand": "right"
      },
      {
        "midi": 78,
        "time": 21.333,
        "duration": 1.333,
        "velocity": 0.63,
        "hand": "right"
      },
      {
        "midi": 51,
        "time": 21.666,
        "duration": 0.083,
        "velocity": 0.51,
        "hand": "left"
      },
      {
        "midi": 66,
        "time": 21.666,
        "duration": 0.152,
        "velocity": 0.68,
        "hand": "right"
      },
      {
        "midi": 69,
        "time": 21.666,
        "duration": 0.167,
        "velocity": 1,
        "hand": "right"
      },
      {
        "midi": 62,
        "time": 21.833,
        "duration": 0.318,
        "velocity": 0.79,
        "hand": "right"
      },
      {
        "midi": 66,
        "time": 21.833,
        "duration": 0.485,
        "velocity": 0.83,
        "hand": "right"
      },
      {
        "midi": 38,
        "time": 22,
        "duration": 0.083,
        "velocity": 0.91,
        "hand": "left"
      },
      {
        "midi": 51,
        "time": 22,
        "duration": 0.083,
        "velocity": 0.74,
        "hand": "left"
      },
      {
        "midi": 64,
        "time": 22,
        "duration": 0.167,
        "velocity": 1,
        "hand": "right"
      },
      {
        "midi": 72,
        "time": 22,
        "duration": 0.5,
        "velocity": 0.5,
        "hand": "right"
      },
      {
        "midi": 60,
        "time": 22.166,
        "duration": 0.152,
        "velocity": 0.64,
        "hand": "right"
      },
      {
        "midi": 62,
        "time": 22.166,
        "duration": 0.319,
        "velocity": 0.67,
        "hand": "right"
      },
      {
        "midi": 38,
        "time": 22.333,
        "duration": 0.083,
        "velocity": 0.85,
        "hand": "left"
      },
      {
        "midi": 47,
        "time": 22.333,
        "duration": 0.083,
        "velocity": 0.67,
        "hand": "left"
      },
      {
        "midi": 60,
        "time": 22.333,
        "duration": 0.152,
        "velocity": 0.54,
        "hand": "right"
      },
      {
        "midi": 66,
        "time": 22.333,
        "duration": 0.333,
        "velocity": 1,
        "hand": "right"
      },
      {
        "midi": 60,
        "time": 22.5,
        "duration": 0.167,
        "velocity": 0.58,
        "hand": "right"
      },
      {
        "midi": 62,
        "time": 22.5,
        "duration": 0.151,
        "velocity": 0.59,
        "hand": "right"
      },
      {
        "midi": 43,
        "time": 22.666,
        "duration": 1.319,
        "velocity": 0.86,
        "hand": "left"
      },
      {
        "midi": 47,
        "time": 22.666,
        "duration": 0.083,
        "velocity": 0.83,
        "hand": "left"
      },
      {
        "midi": 67,
        "time": 22.666,
        "duration": 0.485,
        "velocity": 1,
        "hand": "right"
      },
      {
        "midi": 71,
        "time": 22.666,
        "duration": 0.319,
        "velocity": 0.71,
        "hand": "right"
      },
      {
        "midi": 74,
        "time": 22.666,
        "duration": 0.652,
        "velocity": 0.76,
        "hand": "right"
      },
      {
        "midi": 79,
        "time": 22.666,
        "duration": 2.652,
        "velocity": 0.72,
        "hand": "right"
      },
      {
        "midi": 51,
        "time": 23,
        "duration": 0.083,
        "velocity": 0.43,
        "hand": "left"
      },
      {
        "midi": 71,
        "time": 23,
        "duration": 0.151,
        "velocity": 0.76,
        "hand": "right"
      },
      {
        "midi": 59,
        "time": 23.166,
        "duration": 0.152,
        "velocity": 0.61,
        "hand": "left"
      },
      {
        "midi": 62,
        "time": 23.166,
        "duration": 0.152,
        "velocity": 0.84,
        "hand": "right"
      },
      {
        "midi": 67,
        "time": 23.166,
        "duration": 0.319,
        "velocity": 0.87,
        "hand": "right"
      },
      {
        "midi": 71,
        "time": 23.166,
        "duration": 0.319,
        "velocity": 0.79,
        "hand": "right"
      },
      {
        "midi": 38,
        "time": 23.333,
        "duration": 0.083,
        "velocity": 0.91,
        "hand": "left"
      },
      {
        "midi": 51,
        "time": 23.333,
        "duration": 0.083,
        "velocity": 0.72,
        "hand": "left"
      },
      {
        "midi": 62,
        "time": 23.333,
        "duration": 0.152,
        "velocity": 1,
        "hand": "right"
      },
      {
        "midi": 74,
        "time": 23.333,
        "duration": 0.333,
        "velocity": 0.76,
        "hand": "right"
      },
      {
        "midi": 59,
        "time": 23.5,
        "duration": 0.151,
        "velocity": 0.59,
        "hand": "left"
      },
      {
        "midi": 62,
        "time": 23.5,
        "duration": 0.151,
        "velocity": 0.63,
        "hand": "right"
      },
      {
        "midi": 67,
        "time": 23.5,
        "duration": 0.318,
        "velocity": 0.73,
        "hand": "right"
      },
      {
        "midi": 71,
        "time": 23.5,
        "duration": 0.151,
        "velocity": 0.58,
        "hand": "right"
      },
      {
        "midi": 51,
        "time": 23.666,
        "duration": 0.083,
        "velocity": 0.54,
        "hand": "left"
      },
      {
        "midi": 55,
        "time": 23.666,
        "duration": 0.319,
        "velocity": 0.69,
        "hand": "left"
      },
      {
        "midi": 62,
        "time": 23.666,
        "duration": 0.152,
        "velocity": 1,
        "hand": "right"
      },
      {
        "midi": 71,
        "time": 23.666,
        "duration": 0.319,
        "velocity": 0.72,
        "hand": "right"
      },
      {
        "midi": 62,
        "time": 23.833,
        "duration": 0.152,
        "velocity": 0.64,
        "hand": "right"
      },
      {
        "midi": 67,
        "time": 23.833,
        "duration": 0.152,
        "velocity": 0.56,
        "hand": "right"
      },
      {
        "midi": 43,
        "time": 24,
        "duration": 0.667,
        "velocity": 0.9,
        "hand": "left"
      },
      {
        "midi": 47,
        "time": 24,
        "duration": 0.083,
        "velocity": 0.82,
        "hand": "left"
      },
      {
        "midi": 62,
        "time": 24,
        "duration": 0.485,
        "velocity": 0.87,
        "hand": "right"
      },
      {
        "midi": 67,
        "time": 24,
        "duration": 0.318,
        "velocity": 1,
        "hand": "right"
      },
      {
        "midi": 71,
        "time": 24,
        "duration": 0.318,
        "velocity": 0.72,
        "hand": "right"
      },
      {
        "midi": 51,
        "time": 24.333,
        "duration": 0.083,
        "velocity": 0.44,
        "hand": "left"
      },
      {
        "midi": 67,
        "time": 24.333,
        "duration": 0.152,
        "velocity": 1,
        "hand": "right"
      },
      {
        "midi": 71,
        "time": 24.333,
        "duration": 0.152,
        "velocity": 0.83,
        "hand": "right"
      },
      {
        "midi": 59,
        "time": 24.5,
        "duration": 0.318,
        "velocity": 0.61,
        "hand": "left"
      },
      {
        "midi": 62,
        "time": 24.5,
        "duration": 0.318,
        "velocity": 0.84,
        "hand": "right"
      },
      {
        "midi": 67,
        "time": 24.5,
        "duration": 0.151,
        "velocity": 0.87,
        "hand": "right"
      },
      {
        "midi": 71,
        "time": 24.5,
        "duration": 0.485,
        "velocity": 0.82,
        "hand": "right"
      },
      {
        "midi": 38,
        "time": 24.666,
        "duration": 0.083,
        "velocity": 0.91,
        "hand": "left"
      },
      {
        "midi": 51,
        "time": 24.666,
        "duration": 0.083,
        "velocity": 0.74,
        "hand": "left"
      },
      {
        "midi": 67,
        "time": 24.666,
        "duration": 0.167,
        "velocity": 1,
        "hand": "right"
      },
      {
        "midi": 74,
        "time": 24.666,
        "duration": 0.167,
        "velocity": 0.86,
        "hand": "right"
      },
      {
        "midi": 59,
        "time": 24.833,
        "duration": 0.152,
        "velocity": 0.61,
        "hand": "left"
      },
      {
        "midi": 62,
        "time": 24.833,
        "duration": 0.152,
        "velocity": 0.68,
        "hand": "right"
      },
      {
        "midi": 43,
        "time": 25,
        "duration": 0.083,
        "velocity": 0.86,
        "hand": "left"
      },
      {
        "midi": 47,
        "time": 25,
        "duration": 0.083,
        "velocity": 0.72,
        "hand": "left"
      },
      {
        "midi": 62,
        "time": 25,
        "duration": 0.151,
        "velocity": 0.65,
        "hand": "right"
      },
      {
        "midi": 69,
        "time": 25,
        "duration": 0.167,
        "velocity": 1,
        "hand": "right"
      },
      {
        "midi": 71,
        "time": 25,
        "duration": 0.151,
        "velocity": 0.81,
        "hand": "right"
      },
      {
        "midi": 62,
        "time": 25.166,
        "duration": 0.152,
        "velocity": 0.65,
        "hand": "right"
      },
      {
        "midi": 67,
        "time": 25.166,
        "duration": 0.152,
        "velocity": 0.66,
        "hand": "right"
      },
      {
        "midi": 71,
        "time": 25.166,
        "duration": 0.152,
        "velocity": 0.48,
        "hand": "right"
      },
      {
        "midi": 43,
        "time": 25.333,
        "duration": 1.152,
        "velocity": 0.83,
        "hand": "left"
      },
      {
        "midi": 47,
        "time": 25.333,
        "duration": 0.083,
        "velocity": 0.73,
        "hand": "left"
      },
      {
        "midi": 67,
        "time": 25.333,
        "duration": 0.485,
        "velocity": 1,
        "hand": "right"
      },
      {
        "midi": 71,
        "time": 25.333,
        "duration": 0.318,
        "velocity": 0.71,
        "hand": "right"
      },
      {
        "midi": 74,
        "time": 25.333,
        "duration": 0.652,
        "velocity": 0.51,
        "hand": "right"
      },
      {
        "midi": 79,
        "time": 25.333,
        "duration": 2.333,
        "velocity": 0.72,
        "hand": "right"
      },
      {
        "midi": 51,
        "time": 25.666,
        "duration": 0.083,
        "velocity": 0.52,
        "hand": "left"
      },
      {
        "midi": 71,
        "time": 25.666,
        "duration": 0.152,
        "velocity": 0.83,
        "hand": "right"
      },
      {
        "midi": 62,
        "time": 25.833,
        "duration": 0.318,
        "velocity": 0.83,
        "hand": "right"
      },
      {
        "midi": 67,
        "time": 25.833,
        "duration": 0.318,
        "velocity": 0.87,
        "hand": "right"
      },
      {
        "midi": 71,
        "time": 25.833,
        "duration": 0.318,
        "velocity": 0.76,
        "hand": "right"
      },
      {
        "midi": 38,
        "time": 26,
        "duration": 0.083,
        "velocity": 0.91,
        "hand": "left"
      },
      {
        "midi": 51,
        "time": 26,
        "duration": 0.083,
        "velocity": 0.71,
        "hand": "left"
      },
      {
        "midi": 69,
        "time": 26,
        "duration": 0.333,
        "velocity": 1,
        "hand": "right"
      },
      {
        "midi": 74,
        "time": 26,
        "duration": 0.333,
        "velocity": 0.74,
        "hand": "right"
      },
      {
        "midi": 62,
        "time": 26.166,
        "duration": 0.485,
        "velocity": 0.71,
        "hand": "right"
      },
      {
        "midi": 67,
        "time": 26.166,
        "duration": 0.485,
        "velocity": 0.8,
        "hand": "right"
      },
      {
        "midi": 71,
        "time": 26.166,
        "duration": 0.152,
        "velocity": 0.59,
        "hand": "right"
      },
      {
        "midi": 51,
        "time": 26.333,
        "duration": 0.083,
        "velocity": 0.38,
        "hand": "left"
      },
      {
        "midi": 55,
        "time": 26.333,
        "duration": 0.318,
        "velocity": 0.68,
        "hand": "left"
      },
      {
        "midi": 71,
        "time": 26.333,
        "duration": 0.318,
        "velocity": 1,
        "hand": "right"
      },
      {
        "midi": 43,
        "time": 26.5,
        "duration": 0.083,
        "velocity": 0.86,
        "hand": "left"
      },
      {
        "midi": 47,
        "time": 26.5,
        "duration": 0.083,
        "velocity": 0.39,
        "hand": "left"
      },
      {
        "midi": 43,
        "time": 26.666,
        "duration": 0.667,
        "velocity": 0.91,
        "hand": "left"
      },
      {
        "midi": 47,
        "time": 26.666,
        "duration": 0.083,
        "velocity": 0.86,
        "hand": "left"
      },
      {
        "midi": 67,
        "time": 26.666,
        "duration": 0.485,
        "velocity": 0.85,
        "hand": "right"
      },
      {
        "midi": 71,
        "time": 26.666,
        "duration": 0.319,
        "velocity": 0.71,
        "hand": "right"
      },
      {
        "midi": 74,
        "time": 26.666,
        "duration": 0.652,
        "velocity": 0.71,
        "hand": "right"
      },
      {
        "midi": 83,
        "time": 26.666,
        "duration": 5.333,
        "velocity": 0.63,
        "hand": "right"
      },
      {
        "midi": 51,
        "time": 27,
        "duration": 0.083,
        "velocity": 0.46,
        "hand": "left"
      },
      {
        "midi": 69,
        "time": 27,
        "duration": 0.333,
        "velocity": 1,
        "hand": "right"
      },
      {
        "midi": 71,
        "time": 27,
        "duration": 0.151,
        "velocity": 0.81,
        "hand": "right"
      },
      {
        "midi": 67,
        "time": 27.166,
        "duration": 0.152,
        "velocity": 0.73,
        "hand": "right"
      },
      {
        "midi": 71,
        "time": 27.166,
        "duration": 0.485,
        "velocity": 0.72,
        "hand": "right"
      },
      {
        "midi": 38,
        "time": 27.333,
        "duration": 0.083,
        "velocity": 0.91,
        "hand": "left"
      },
      {
        "midi": 51,
        "time": 27.333,
        "duration": 0.083,
        "velocity": 0.82,
        "hand": "left"
      },
      {
        "midi": 67,
        "time": 27.333,
        "duration": 0.152,
        "velocity": 1,
        "hand": "right"
      },
      {
        "midi": 74,
        "time": 27.333,
        "duration": 0.333,
        "velocity": 0.74,
        "hand": "right"
      },
      {
        "midi": 62,
        "time": 27.5,
        "duration": 0.318,
        "velocity": 0.59,
        "hand": "right"
      },
      {
        "midi": 67,
        "time": 27.5,
        "duration": 0.333,
        "velocity": 0.81,
        "hand": "right"
      },
      {
        "midi": 43,
        "time": 27.666,
        "duration": 0.083,
        "velocity": 0.89,
        "hand": "left"
      },
      {
        "midi": 47,
        "time": 27.666,
        "duration": 0.083,
        "velocity": 0.59,
        "hand": "left"
      },
      {
        "midi": 66,
        "time": 27.666,
        "duration": 0.333,
        "velocity": 1,
        "hand": "right"
      },
      {
        "midi": 71,
        "time": 27.666,
        "duration": 0.319,
        "velocity": 0.76,
        "hand": "right"
      },
      {
        "midi": 62,
        "time": 27.833,
        "duration": 0.152,
        "velocity": 0.58,
        "hand": "right"
      },
      {
        "midi": 43,
        "time": 28,
        "duration": 1.318,
        "velocity": 0.83,
        "hand": "left"
      },
      {
        "midi": 47,
        "time": 28,
        "duration": 0.083,
        "velocity": 0.8,
        "hand": "left"
      },
      {
        "midi": 67,
        "time": 28,
        "duration": 0.485,
        "velocity": 0.82,
        "hand": "right"
      },
      {
        "midi": 71,
        "time": 28,
        "duration": 0.318,
        "velocity": 0.68,
        "hand": "right"
      },
      {
        "midi": 74,
        "time": 28,
        "duration": 0.651,
        "velocity": 0.68,
        "hand": "right"
      },
      {
        "midi": 79,
        "time": 28,
        "duration": 2.333,
        "velocity": 0.72,
        "hand": "right"
      },
      {
        "midi": 51,
        "time": 28.333,
        "duration": 0.083,
        "velocity": 0.5,
        "hand": "left"
      },
      {
        "midi": 62,
        "time": 28.333,
        "duration": 0.152,
        "velocity": 1,
        "hand": "right"
      },
      {
        "midi": 71,
        "time": 28.333,
        "duration": 0.152,
        "velocity": 0.69,
        "hand": "right"
      },
      {
        "midi": 62,
        "time": 28.5,
        "duration": 0.151,
        "velocity": 0.65,
        "hand": "right"
      },
      {
        "midi": 67,
        "time": 28.5,
        "duration": 0.651,
        "velocity": 0.91,
        "hand": "right"
      },
      {
        "midi": 71,
        "time": 28.5,
        "duration": 0.318,
        "velocity": 0.73,
        "hand": "right"
      },
      {
        "midi": 38,
        "time": 28.666,
        "duration": 0.083,
        "velocity": 0.91,
        "hand": "left"
      },
      {
        "midi": 51,
        "time": 28.666,
        "duration": 0.083,
        "velocity": 0.74,
        "hand": "left"
      },
      {
        "midi": 62,
        "time": 28.666,
        "duration": 0.152,
        "velocity": 1,
        "hand": "right"
      },
      {
        "midi": 74,
        "time": 28.666,
        "duration": 0.167,
        "velocity": 0.86,
        "hand": "right"
      },
      {
        "midi": 59,
        "time": 28.833,
        "duration": 0.167,
        "velocity": 0.66,
        "hand": "left"
      },
      {
        "midi": 62,
        "time": 28.833,
        "duration": 0.152,
        "velocity": 0.68,
        "hand": "right"
      },
      {
        "midi": 71,
        "time": 28.833,
        "duration": 0.152,
        "velocity": 0.56,
        "hand": "right"
      },
      {
        "midi": 51,
        "time": 29,
        "duration": 0.083,
        "velocity": 0.46,
        "hand": "left"
      },
      {
        "midi": 55,
        "time": 29,
        "duration": 0.318,
        "velocity": 0.63,
        "hand": "left"
      },
      {
        "midi": 62,
        "time": 29,
        "duration": 0.151,
        "velocity": 1,
        "hand": "right"
      },
      {
        "midi": 71,
        "time": 29,
        "duration": 0.151,
        "velocity": 0.74,
        "hand": "right"
      },
      {
        "midi": 59,
        "time": 29.166,
        "duration": 0.152,
        "velocity": 0.54,
        "hand": "left"
      },
      {
        "midi": 62,
        "time": 29.166,
        "duration": 0.152,
        "velocity": 0.61,
        "hand": "right"
      },
      {
        "midi": 67,
        "time": 29.166,
        "duration": 0.152,
        "velocity": 0.72,
        "hand": "right"
      },
      {
        "midi": 71,
        "time": 29.166,
        "duration": 0.152,
        "velocity": 0.61,
        "hand": "right"
      },
      {
        "midi": 43,
        "time": 29.333,
        "duration": 0.667,
        "velocity": 0.91,
        "hand": "left"
      },
      {
        "midi": 47,
        "time": 29.333,
        "duration": 0.083,
        "velocity": 0.8,
        "hand": "left"
      },
      {
        "midi": 62,
        "time": 29.333,
        "duration": 0.485,
        "velocity": 0.87,
        "hand": "right"
      },
      {
        "midi": 67,
        "time": 29.333,
        "duration": 0.318,
        "velocity": 1,
        "hand": "right"
      },
      {
        "midi": 71,
        "time": 29.333,
        "duration": 0.318,
        "velocity": 0.73,
        "hand": "right"
      },
      {
        "midi": 51,
        "time": 29.666,
        "duration": 0.083,
        "velocity": 0.4,
        "hand": "left"
      },
      {
        "midi": 67,
        "time": 29.666,
        "duration": 0.152,
        "velocity": 1,
        "hand": "right"
      },
      {
        "midi": 71,
        "time": 29.666,
        "duration": 0.152,
        "velocity": 0.81,
        "hand": "right"
      },
      {
        "midi": 59,
        "time": 29.833,
        "duration": 0.485,
        "velocity": 0.54,
        "hand": "left"
      },
      {
        "midi": 62,
        "time": 29.833,
        "duration": 0.152,
        "velocity": 0.71,
        "hand": "right"
      },
      {
        "midi": 67,
        "time": 29.833,
        "duration": 0.152,
        "velocity": 0.9,
        "hand": "right"
      },
      {
        "midi": 71,
        "time": 29.833,
        "duration": 0.318,
        "velocity": 0.66,
        "hand": "right"
      },
      {
        "midi": 38,
        "time": 30,
        "duration": 0.083,
        "velocity": 0.91,
        "hand": "left"
      },
      {
        "midi": 51,
        "time": 30,
        "duration": 0.083,
        "velocity": 0.8,
        "hand": "left"
      },
      {
        "midi": 62,
        "time": 30,
        "duration": 0.318,
        "velocity": 0.7,
        "hand": "right"
      },
      {
        "midi": 67,
        "time": 30,
        "duration": 0.167,
        "velocity": 1,
        "hand": "right"
      },
      {
        "midi": 74,
        "time": 30,
        "duration": 0.167,
        "velocity": 0.79,
        "hand": "right"
      },
      {
        "midi": 71,
        "time": 30.166,
        "duration": 0.152,
        "velocity": 0.53,
        "hand": "right"
      },
      {
        "midi": 43,
        "time": 30.333,
        "duration": 0.083,
        "velocity": 0.87,
        "hand": "left"
      },
      {
        "midi": 47,
        "time": 30.333,
        "duration": 0.083,
        "velocity": 0.78,
        "hand": "left"
      },
      {
        "midi": 62,
        "time": 30.333,
        "duration": 0.152,
        "velocity": 0.64,
        "hand": "right"
      },
      {
        "midi": 69,
        "time": 30.333,
        "duration": 0.167,
        "velocity": 1,
        "hand": "right"
      },
      {
        "midi": 71,
        "time": 30.333,
        "duration": 0.152,
        "velocity": 0.76,
        "hand": "right"
      },
      {
        "midi": 59,
        "time": 30.5,
        "duration": 0.151,
        "velocity": 0.63,
        "hand": "left"
      },
      {
        "midi": 62,
        "time": 30.5,
        "duration": 0.151,
        "velocity": 0.73,
        "hand": "right"
      },
      {
        "midi": 67,
        "time": 30.5,
        "duration": 0.151,
        "velocity": 0.7,
        "hand": "right"
      },
      {
        "midi": 71,
        "time": 30.5,
        "duration": 0.151,
        "velocity": 0.56,
        "hand": "right"
      },
      {
        "midi": 43,
        "time": 30.666,
        "duration": 0.819,
        "velocity": 0.85,
        "hand": "left"
      },
      {
        "midi": 47,
        "time": 30.666,
        "duration": 0.083,
        "velocity": 0.74,
        "hand": "left"
      },
      {
        "midi": 67,
        "time": 30.666,
        "duration": 0.485,
        "velocity": 1,
        "hand": "right"
      },
      {
        "midi": 71,
        "time": 30.666,
        "duration": 0.319,
        "velocity": 0.65,
        "hand": "right"
      },
      {
        "midi": 74,
        "time": 30.666,
        "duration": 0.652,
        "velocity": 0.57,
        "hand": "right"
      },
      {
        "midi": 79,
        "time": 30.666,
        "duration": 1.833,
        "velocity": 0.76,
        "hand": "right"
      },
      {
        "midi": 51,
        "time": 31,
        "duration": 0.083,
        "velocity": 0.54,
        "hand": "left"
      },
      {
        "midi": 71,
        "time": 31,
        "duration": 0.151,
        "velocity": 0.72,
        "hand": "right"
      },
      {
        "midi": 59,
        "time": 31.166,
        "duration": 0.152,
        "velocity": 0.64,
        "hand": "left"
      },
      {
        "midi": 62,
        "time": 31.166,
        "duration": 0.319,
        "velocity": 0.9,
        "hand": "right"
      },
      {
        "midi": 67,
        "time": 31.166,
        "duration": 0.319,
        "velocity": 0.89,
        "hand": "right"
      },
      {
        "midi": 71,
        "time": 31.166,
        "duration": 0.319,
        "velocity": 0.78,
        "hand": "right"
      },
      {
        "midi": 38,
        "time": 31.333,
        "duration": 0.083,
        "velocity": 0.91,
        "hand": "left"
      },
      {
        "midi": 51,
        "time": 31.333,
        "duration": 0.083,
        "velocity": 0.78,
        "hand": "left"
      },
      {
        "midi": 69,
        "time": 31.333,
        "duration": 0.333,
        "velocity": 1,
        "hand": "right"
      },
      {
        "midi": 74,
        "time": 31.333,
        "duration": 0.333,
        "velocity": 0.72,
        "hand": "right"
      },
      {
        "midi": 43,
        "time": 31.5,
        "duration": 0.333,
        "velocity": 0.9,
        "hand": "left"
      },
      {
        "midi": 47,
        "time": 31.5,
        "duration": 0.083,
        "velocity": 0.58,
        "hand": "left"
      },
      {
        "midi": 62,
        "time": 31.5,
        "duration": 0.318,
        "velocity": 0.7,
        "hand": "right"
      },
      {
        "midi": 67,
        "time": 31.5,
        "duration": 0.318,
        "velocity": 0.83,
        "hand": "right"
      },
      {
        "midi": 71,
        "time": 31.5,
        "duration": 0.151,
        "velocity": 0.69,
        "hand": "right"
      },
      {
        "midi": 51,
        "time": 31.666,
        "duration": 0.083,
        "velocity": 0.46,
        "hand": "left"
      },
      {
        "midi": 55,
        "time": 31.666,
        "duration": 0.152,
        "velocity": 0.65,
        "hand": "left"
      },
      {
        "midi": 71,
        "time": 31.666,
        "duration": 2,
        "velocity": 1,
        "hand": "right"
      },
      {
        "midi": 55,
        "time": 31.833,
        "duration": 0.167,
        "velocity": 0.64,
        "hand": "left"
      },
      {
        "midi": 59,
        "time": 31.833,
        "duration": 0.167,
        "velocity": 0.67,
        "hand": "left"
      },
      {
        "midi": 62,
        "time": 31.833,
        "duration": 0.152,
        "velocity": 0.64,
        "hand": "right"
      },
      {
        "midi": 67,
        "time": 31.833,
        "duration": 0.167,
        "velocity": 0.55,
        "hand": "right"
      },
      {
        "midi": 38,
        "time": 32,
        "duration": 0.651,
        "velocity": 0.87,
        "hand": "left"
      },
      {
        "midi": 47,
        "time": 32,
        "duration": 0.083,
        "velocity": 0.77,
        "hand": "left"
      },
      {
        "midi": 69,
        "time": 32,
        "duration": 1.318,
        "velocity": 0.71,
        "hand": "right"
      },
      {
        "midi": 72,
        "time": 32,
        "duration": 0.651,
        "velocity": 0.71,
        "hand": "right"
      },
      {
        "midi": 74,
        "time": 32,
        "duration": 0.083,
        "velocity": 0.63,
        "hand": "right"
      },
      {
        "midi": 78,
        "time": 32,
        "duration": 2.667,
        "velocity": 0.63,
        "hand": "right"
      },
      {
        "midi": 51,
        "time": 32.333,
        "duration": 0.083,
        "velocity": 0.51,
        "hand": "left"
      },
      {
        "midi": 66,
        "time": 32.333,
        "duration": 0.152,
        "velocity": 0.72,
        "hand": "right"
      },
      {
        "midi": 62,
        "time": 32.5,
        "duration": 0.318,
        "velocity": 0.79,
        "hand": "right"
      },
      {
        "midi": 66,
        "time": 32.5,
        "duration": 0.485,
        "velocity": 0.83,
        "hand": "right"
      },
      {
        "midi": 38,
        "time": 32.666,
        "duration": 0.083,
        "velocity": 0.91,
        "hand": "left"
      },
      {
        "midi": 51,
        "time": 32.666,
        "duration": 0.083,
        "velocity": 0.74,
        "hand": "left"
      },
      {
        "midi": 72,
        "time": 32.666,
        "duration": 0.333,
        "velocity": 0.55,
        "hand": "right"
      },
      {
        "midi": 60,
        "time": 32.833,
        "duration": 0.152,
        "velocity": 0.64,
        "hand": "right"
      },
      {
        "midi": 62,
        "time": 32.833,
        "duration": 0.318,
        "velocity": 0.67,
        "hand": "right"
      },
      {
        "midi": 38,
        "time": 33,
        "duration": 0.083,
        "velocity": 0.85,
        "hand": "left"
      },
      {
        "midi": 47,
        "time": 33,
        "duration": 0.083,
        "velocity": 0.67,
        "hand": "left"
      },
      {
        "midi": 60,
        "time": 33,
        "duration": 0.151,
        "velocity": 0.54,
        "hand": "right"
      },
      {
        "midi": 66,
        "time": 33,
        "duration": 0.318,
        "velocity": 0.77,
        "hand": "right"
      },
      {
        "midi": 60,
        "time": 33.166,
        "duration": 0.152,
        "velocity": 0.58,
        "hand": "right"
      },
      {
        "midi": 62,
        "time": 33.166,
        "duration": 0.152,
        "velocity": 0.59,
        "hand": "right"
      },
      {
        "midi": 38,
        "time": 33.333,
        "duration": 0.652,
        "velocity": 0.86,
        "hand": "left"
      },
      {
        "midi": 47,
        "time": 33.333,
        "duration": 0.083,
        "velocity": 0.83,
        "hand": "left"
      },
      {
        "midi": 62,
        "time": 33.333,
        "duration": 0.485,
        "velocity": 0.71,
        "hand": "right"
      },
      {
        "midi": 66,
        "time": 33.333,
        "duration": 0.318,
        "velocity": 0.74,
        "hand": "right"
      },
      {
        "midi": 69,
        "time": 33.333,
        "duration": 0.318,
        "velocity": 0.65,
        "hand": "right"
      },
      {
        "midi": 72,
        "time": 33.333,
        "duration": 0.652,
        "velocity": 0.74,
        "hand": "right"
      },
      {
        "midi": 51,
        "time": 33.666,
        "duration": 0.083,
        "velocity": 0.43,
        "hand": "left"
      },
      {
        "midi": 66,
        "time": 33.666,
        "duration": 0.152,
        "velocity": 0.74,
        "hand": "right"
      },
      {
        "midi": 69,
        "time": 33.666,
        "duration": 0.167,
        "velocity": 1,
        "hand": "right"
      },
      {
        "midi": 54,
        "time": 33.833,
        "duration": 0.152,
        "velocity": 0.61,
        "hand": "left"
      },
      {
        "midi": 60,
        "time": 33.833,
        "duration": 0.318,
        "velocity": 0.84,
        "hand": "right"
      },
      {
        "midi": 62,
        "time": 33.833,
        "duration": 0.318,
        "velocity": 0.87,
        "hand": "right"
      },
      {
        "midi": 66,
        "time": 33.833,
        "duration": 0.318,
        "velocity": 0.79,
        "hand": "right"
      },
      {
        "midi": 38,
        "time": 34,
        "duration": 0.083,
        "velocity": 0.91,
        "hand": "left"
      },
      {
        "midi": 50,
        "time": 34,
        "duration": 0.318,
        "velocity": 0.55,
        "hand": "left"
      },
      {
        "midi": 64,
        "time": 34,
        "duration": 0.333,
        "velocity": 1,
        "hand": "right"
      },
      {
        "midi": 72,
        "time": 34,
        "duration": 0.5,
        "velocity": 0.77,
        "hand": "right"
      },
      {
        "midi": 54,
        "time": 34.166,
        "duration": 0.152,
        "velocity": 0.59,
        "hand": "left"
      },
      {
        "midi": 60,
        "time": 34.166,
        "duration": 0.152,
        "velocity": 0.63,
        "hand": "right"
      },
      {
        "midi": 62,
        "time": 34.166,
        "duration": 0.319,
        "velocity": 0.73,
        "hand": "right"
      },
      {
        "midi": 66,
        "time": 34.166,
        "duration": 0.152,
        "velocity": 0.58,
        "hand": "right"
      },
      {
        "midi": 51,
        "time": 34.333,
        "duration": 0.083,
        "velocity": 0.54,
        "hand": "left"
      },
      {
        "midi": 60,
        "time": 34.333,
        "duration": 0.152,
        "velocity": 0.67,
        "hand": "right"
      },
      {
        "midi": 66,
        "time": 34.333,
        "duration": 0.333,
        "velocity": 1,
        "hand": "right"
      },
      {
        "midi": 60,
        "time": 34.5,
        "duration": 0.167,
        "velocity": 0.64,
        "hand": "right"
      },
      {
        "midi": 62,
        "time": 34.5,
        "duration": 0.151,
        "velocity": 0.56,
        "hand": "right"
      },
      {
        "midi": 43,
        "time": 34.666,
        "duration": 0.985,
        "velocity": 0.9,
        "hand": "left"
      },
      {
        "midi": 47,
        "time": 34.666,
        "duration": 0.083,
        "velocity": 0.82,
        "hand": "left"
      },
      {
        "midi": 67,
        "time": 34.666,
        "duration": 0.485,
        "velocity": 1,
        "hand": "right"
      },
      {
        "midi": 71,
        "time": 34.666,
        "duration": 0.319,
        "velocity": 0.72,
        "hand": "right"
      },
      {
        "midi": 74,
        "time": 34.666,
        "duration": 0.652,
        "velocity": 0.71,
        "hand": "right"
      },
      {
        "midi": 79,
        "time": 34.666,
        "duration": 2.652,
        "velocity": 0.71,
        "hand": "right"
      },
      {
        "midi": 51,
        "time": 35,
        "duration": 0.083,
        "velocity": 0.44,
        "hand": "left"
      },
      {
        "midi": 71,
        "time": 35,
        "duration": 0.151,
        "velocity": 0.81,
        "hand": "right"
      },
      {
        "midi": 59,
        "time": 35.166,
        "duration": 0.319,
        "velocity": 0.61,
        "hand": "left"
      },
      {
        "midi": 62,
        "time": 35.166,
        "duration": 0.152,
        "velocity": 0.84,
        "hand": "right"
      },
      {
        "midi": 67,
        "time": 35.166,
        "duration": 0.652,
        "velocity": 0.87,
        "hand": "right"
      },
      {
        "midi": 71,
        "time": 35.166,
        "duration": 0.485,
        "velocity": 0.82,
        "hand": "right"
      },
      {
        "midi": 38,
        "time": 35.333,
        "duration": 0.083,
        "velocity": 0.91,
        "hand": "left"
      },
      {
        "midi": 51,
        "time": 35.333,
        "duration": 0.083,
        "velocity": 0.74,
        "hand": "left"
      },
      {
        "midi": 62,
        "time": 35.333,
        "duration": 0.152,
        "velocity": 1,
        "hand": "right"
      },
      {
        "midi": 74,
        "time": 35.333,
        "duration": 0.167,
        "velocity": 0.92,
        "hand": "right"
      },
      {
        "midi": 59,
        "time": 35.5,
        "duration": 0.151,
        "velocity": 0.61,
        "hand": "left"
      },
      {
        "midi": 62,
        "time": 35.5,
        "duration": 0.151,
        "velocity": 0.68,
        "hand": "right"
      },
      {
        "midi": 43,
        "time": 35.666,
        "duration": 0.083,
        "velocity": 0.86,
        "hand": "left"
      },
      {
        "midi": 47,
        "time": 35.666,
        "duration": 0.083,
        "velocity": 0.72,
        "hand": "left"
      },
      {
        "midi": 62,
        "time": 35.666,
        "duration": 0.152,
        "velocity": 1,
        "hand": "right"
      },
      {
        "midi": 71,
        "time": 35.666,
        "duration": 0.152,
        "velocity": 0.79,
        "hand": "right"
      },
      {
        "midi": 62,
        "time": 35.833,
        "duration": 0.152,
        "velocity": 0.65,
        "hand": "right"
      },
      {
        "midi": 67,
        "time": 35.833,
        "duration": 0.152,
        "velocity": 0.66,
        "hand": "right"
      },
      {
        "midi": 71,
        "time": 35.833,
        "duration": 0.152,
        "velocity": 0.48,
        "hand": "right"
      },
      {
        "midi": 43,
        "time": 36,
        "duration": 1,
        "velocity": 0.83,
        "hand": "left"
      },
      {
        "midi": 47,
        "time": 36,
        "duration": 0.083,
        "velocity": 0.73,
        "hand": "left"
      },
      {
        "midi": 62,
        "time": 36,
        "duration": 0.485,
        "velocity": 0.82,
        "hand": "right"
      },
      {
        "midi": 67,
        "time": 36,
        "duration": 0.318,
        "velocity": 1,
        "hand": "right"
      },
      {
        "midi": 71,
        "time": 36,
        "duration": 0.318,
        "velocity": 0.71,
        "hand": "right"
      },
      {
        "midi": 51,
        "time": 36.333,
        "duration": 0.083,
        "velocity": 0.52,
        "hand": "left"
      },
      {
        "midi": 67,
        "time": 36.333,
        "duration": 0.152,
        "velocity": 1,
        "hand": "right"
      },
      {
        "midi": 71,
        "time": 36.333,
        "duration": 0.152,
        "velocity": 0.86,
        "hand": "right"
      },
      {
        "midi": 62,
        "time": 36.5,
        "duration": 0.318,
        "velocity": 0.83,
        "hand": "right"
      },
      {
        "midi": 67,
        "time": 36.5,
        "duration": 0.151,
        "velocity": 0.87,
        "hand": "right"
      },
      {
        "midi": 71,
        "time": 36.5,
        "duration": 0.318,
        "velocity": 0.76,
        "hand": "right"
      },
      {
        "midi": 38,
        "time": 36.666,
        "duration": 0.083,
        "velocity": 0.91,
        "hand": "left"
      },
      {
        "midi": 51,
        "time": 36.666,
        "duration": 0.083,
        "velocity": 0.71,
        "hand": "left"
      },
      {
        "midi": 67,
        "time": 36.666,
        "duration": 0.152,
        "velocity": 1,
        "hand": "right"
      },
      {
        "midi": 74,
        "time": 36.666,
        "duration": 0.167,
        "velocity": 0.86,
        "hand": "right"
      },
      {
        "midi": 62,
        "time": 36.833,
        "duration": 0.485,
        "velocity": 0.71,
        "hand": "right"
      },
      {
        "midi": 67,
        "time": 36.833,
        "duration": 0.485,
        "velocity": 0.8,
        "hand": "right"
      },
      {
        "midi": 71,
        "time": 36.833,
        "duration": 0.152,
        "velocity": 0.59,
        "hand": "right"
      },
      {
        "midi": 51,
        "time": 37,
        "duration": 0.083,
        "velocity": 0.38,
        "hand": "left"
      },
      {
        "midi": 55,
        "time": 37,
        "duration": 0.318,
        "velocity": 0.68,
        "hand": "left"
      },
      {
        "midi": 69,
        "time": 37,
        "duration": 0.167,
        "velocity": 1,
        "hand": "right"
      },
      {
        "midi": 71,
        "time": 37,
        "duration": 0.318,
        "velocity": 0.83,
        "hand": "right"
      },
      {
        "midi": 43,
        "time": 37.166,
        "duration": 0.083,
        "velocity": 0.86,
        "hand": "left"
      },
      {
        "midi": 47,
        "time": 37.166,
        "duration": 0.083,
        "velocity": 0.39,
        "hand": "left"
      },
      {
        "midi": 43,
        "time": 37.333,
        "duration": 0.985,
        "velocity": 0.91,
        "hand": "left"
      },
      {
        "midi": 47,
        "time": 37.333,
        "duration": 0.985,
        "velocity": 0.86,
        "hand": "left"
      },
      {
        "midi": 71,
        "time": 37.333,
        "duration": 0.318,
        "velocity": 0.71,
        "hand": "right"
      },
      {
        "midi": 74,
        "time": 37.333,
        "duration": 0.652,
        "velocity": 0.72,
        "hand": "right"
      },
      {
        "midi": 79,
        "time": 37.333,
        "duration": 2.333,
        "velocity": 0.76,
        "hand": "right"
      },
      {
        "midi": 83,
        "time": 37.333,
        "duration": 5.333,
        "velocity": 0.63,
        "hand": "right"
      },
      {
        "midi": 51,
        "time": 37.666,
        "duration": 0.083,
        "velocity": 0.46,
        "hand": "left"
      },
      {
        "midi": 71,
        "time": 37.666,
        "duration": 0.152,
        "velocity": 0.83,
        "hand": "right"
      },
      {
        "midi": 67,
        "time": 37.833,
        "duration": 0.318,
        "velocity": 0.73,
        "hand": "right"
      },
      {
        "midi": 71,
        "time": 37.833,
        "duration": 0.485,
        "velocity": 0.72,
        "hand": "right"
      },
      {
        "midi": 38,
        "time": 38,
        "duration": 0.083,
        "velocity": 0.91,
        "hand": "left"
      },
      {
        "midi": 51,
        "time": 38,
        "duration": 0.083,
        "velocity": 0.82,
        "hand": "left"
      },
      {
        "midi": 69,
        "time": 38,
        "duration": 0.167,
        "velocity": 1,
        "hand": "right"
      },
      {
        "midi": 74,
        "time": 38,
        "duration": 0.167,
        "velocity": 0.86,
        "hand": "right"
      },
      {
        "midi": 62,
        "time": 38.166,
        "duration": 0.319,
        "velocity": 0.59,
        "hand": "right"
      },
      {
        "midi": 67,
        "time": 38.166,
        "duration": 0.333,
        "velocity": 0.81,
        "hand": "right"
      },
      {
        "midi": 43,
        "time": 38.333,
        "duration": 0.083,
        "velocity": 0.89,
        "hand": "left"
      },
      {
        "midi": 47,
        "time": 38.333,
        "duration": 0.083,
        "velocity": 0.59,
        "hand": "left"
      },
      {
        "midi": 71,
        "time": 38.333,
        "duration": 0.318,
        "velocity": 1,
        "hand": "right"
      },
      {
        "midi": 62,
        "time": 38.5,
        "duration": 0.151,
        "velocity": 0.58,
        "hand": "right"
      },
      {
        "midi": 43,
        "time": 38.666,
        "duration": 1.167,
        "velocity": 0.83,
        "hand": "left"
      },
      {
        "midi": 47,
        "time": 38.666,
        "duration": 0.083,
        "velocity": 0.8,
        "hand": "left"
      },
      {
        "midi": 62,
        "time": 38.666,
        "duration": 0.485,
        "velocity": 0.88,
        "hand": "right"
      },
      {
        "midi": 67,
        "time": 38.666,
        "duration": 0.485,
        "velocity": 0.86,
        "hand": "right"
      },
      {
        "midi": 71,
        "time": 38.666,
        "duration": 0.319,
        "velocity": 0.66,
        "hand": "right"
      },
      {
        "midi": 51,
        "time": 39,
        "duration": 0.083,
        "velocity": 0.5,
        "hand": "left"
      },
      {
        "midi": 69,
        "time": 39,
        "duration": 0.333,
        "velocity": 1,
        "hand": "right"
      },
      {
        "midi": 71,
        "time": 39,
        "duration": 0.151,
        "velocity": 0.83,
        "hand": "right"
      },
      {
        "midi": 62,
        "time": 39.166,
        "duration": 0.319,
        "velocity": 0.65,
        "hand": "right"
      },
      {
        "midi": 67,
        "time": 39.166,
        "duration": 0.152,
        "velocity": 0.91,
        "hand": "right"
      },
      {
        "midi": 71,
        "time": 39.166,
        "duration": 0.319,
        "velocity": 0.73,
        "hand": "right"
      },
      {
        "midi": 38,
        "time": 39.333,
        "duration": 0.083,
        "velocity": 0.91,
        "hand": "left"
      },
      {
        "midi": 51,
        "time": 39.333,
        "duration": 0.083,
        "velocity": 0.74,
        "hand": "left"
      },
      {
        "midi": 67,
        "time": 39.333,
        "duration": 0.333,
        "velocity": 1,
        "hand": "right"
      },
      {
        "midi": 74,
        "time": 39.333,
        "duration": 0.167,
        "velocity": 0.86,
        "hand": "right"
      },
      {
        "midi": 59,
        "time": 39.5,
        "duration": 0.167,
        "velocity": 0.66,
        "hand": "left"
      },
      {
        "midi": 62,
        "time": 39.5,
        "duration": 0.318,
        "velocity": 0.68,
        "hand": "right"
      },
      {
        "midi": 71,
        "time": 39.5,
        "duration": 0.151,
        "velocity": 0.56,
        "hand": "right"
      },
      {
        "midi": 51,
        "time": 39.666,
        "duration": 0.083,
        "velocity": 0.46,
        "hand": "left"
      },
      {
        "midi": 55,
        "time": 39.666,
        "duration": 0.319,
        "velocity": 0.63,
        "hand": "left"
      },
      {
        "midi": 66,
        "time": 39.666,
        "duration": 0.333,
        "velocity": 1,
        "hand": "right"
      },
      {
        "midi": 71,
        "time": 39.666,
        "duration": 0.152,
        "velocity": 0.79,
        "hand": "right"
      },
      {
        "midi": 59,
        "time": 39.833,
        "duration": 0.152,
        "velocity": 0.54,
        "hand": "left"
      },
      {
        "midi": 62,
        "time": 39.833,
        "duration": 0.152,
        "velocity": 0.61,
        "hand": "right"
      },
      {
        "midi": 67,
        "time": 39.833,
        "duration": 0.152,
        "velocity": 0.72,
        "hand": "right"
      },
      {
        "midi": 71,
        "time": 39.833,
        "duration": 0.152,
        "velocity": 0.61,
        "hand": "right"
      },
      {
        "midi": 43,
        "time": 40,
        "duration": 0.985,
        "velocity": 0.91,
        "hand": "left"
      },
      {
        "midi": 47,
        "time": 40,
        "duration": 0.083,
        "velocity": 0.8,
        "hand": "left"
      },
      {
        "midi": 67,
        "time": 40,
        "duration": 0.485,
        "velocity": 0.91,
        "hand": "right"
      },
      {
        "midi": 71,
        "time": 40,
        "duration": 0.318,
        "velocity": 0.73,
        "hand": "right"
      },
      {
        "midi": 74,
        "time": 40,
        "duration": 0.651,
        "velocity": 0.69,
        "hand": "right"
      },
      {
        "midi": 79,
        "time": 40,
        "duration": 2.167,
        "velocity": 0.71,
        "hand": "right"
      },
      {
        "midi": 51,
        "time": 40.333,
        "duration": 0.083,
        "velocity": 0.4,
        "hand": "left"
      },
      {
        "midi": 62,
        "time": 40.333,
        "duration": 0.152,
        "velocity": 1,
        "hand": "right"
      },
      {
        "midi": 71,
        "time": 40.333,
        "duration": 0.152,
        "velocity": 0.79,
        "hand": "right"
      },
      {
        "midi": 59,
        "time": 40.5,
        "duration": 0.485,
        "velocity": 0.54,
        "hand": "left"
      },
      {
        "midi": 62,
        "time": 40.5,
        "duration": 0.151,
        "velocity": 0.71,
        "hand": "right"
      },
      {
        "midi": 67,
        "time": 40.5,
        "duration": 0.651,
        "velocity": 0.9,
        "hand": "right"
      },
      {
        "midi": 71,
        "time": 40.5,
        "duration": 0.318,
        "velocity": 0.66,
        "hand": "right"
      },
      {
        "midi": 38,
        "time": 40.666,
        "duration": 0.083,
        "velocity": 0.91,
        "hand": "left"
      },
      {
        "midi": 51,
        "time": 40.666,
        "duration": 0.083,
        "velocity": 0.8,
        "hand": "left"
      },
      {
        "midi": 62,
        "time": 40.666,
        "duration": 0.319,
        "velocity": 1,
        "hand": "right"
      },
      {
        "midi": 74,
        "time": 40.666,
        "duration": 0.167,
        "velocity": 0.81,
        "hand": "right"
      },
      {
        "midi": 71,
        "time": 40.833,
        "duration": 0.152,
        "velocity": 0.53,
        "hand": "right"
      },
      {
        "midi": 43,
        "time": 41,
        "duration": 0.083,
        "velocity": 0.87,
        "hand": "left"
      },
      {
        "midi": 47,
        "time": 41,
        "duration": 0.083,
        "velocity": 0.78,
        "hand": "left"
      },
      {
        "midi": 62,
        "time": 41,
        "duration": 0.151,
        "velocity": 1,
        "hand": "right"
      },
      {
        "midi": 71,
        "time": 41,
        "duration": 0.151,
        "velocity": 0.76,
        "hand": "right"
      },
      {
        "midi": 59,
        "time": 41.166,
        "duration": 0.152,
        "velocity": 0.63,
        "hand": "left"
      },
      {
        "midi": 62,
        "time": 41.166,
        "duration": 0.152,
        "velocity": 0.73,
        "hand": "right"
      },
      {
        "midi": 67,
        "time": 41.166,
        "duration": 0.152,
        "velocity": 0.7,
        "hand": "right"
      },
      {
        "midi": 71,
        "time": 41.166,
        "duration": 0.152,
        "velocity": 0.56,
        "hand": "right"
      },
      {
        "midi": 43,
        "time": 41.333,
        "duration": 0.667,
        "velocity": 0.85,
        "hand": "left"
      },
      {
        "midi": 47,
        "time": 41.333,
        "duration": 0.083,
        "velocity": 0.74,
        "hand": "left"
      },
      {
        "midi": 62,
        "time": 41.333,
        "duration": 0.485,
        "velocity": 0.81,
        "hand": "right"
      },
      {
        "midi": 67,
        "time": 41.333,
        "duration": 0.318,
        "velocity": 1,
        "hand": "right"
      },
      {
        "midi": 71,
        "time": 41.333,
        "duration": 0.318,
        "velocity": 0.65,
        "hand": "right"
      },
      {
        "midi": 51,
        "time": 41.666,
        "duration": 0.083,
        "velocity": 0.54,
        "hand": "left"
      },
      {
        "midi": 67,
        "time": 41.666,
        "duration": 0.152,
        "velocity": 1,
        "hand": "right"
      },
      {
        "midi": 71,
        "time": 41.666,
        "duration": 0.152,
        "velocity": 0.83,
        "hand": "right"
      },
      {
        "midi": 59,
        "time": 41.833,
        "duration": 0.152,
        "velocity": 0.64,
        "hand": "left"
      },
      {
        "midi": 62,
        "time": 41.833,
        "duration": 0.318,
        "velocity": 0.9,
        "hand": "right"
      },
      {
        "midi": 67,
        "time": 41.833,
        "duration": 0.152,
        "velocity": 0.89,
        "hand": "right"
      },
      {
        "midi": 71,
        "time": 41.833,
        "duration": 0.318,
        "velocity": 0.78,
        "hand": "right"
      },
      {
        "midi": 38,
        "time": 42,
        "duration": 0.083,
        "velocity": 0.91,
        "hand": "left"
      },
      {
        "midi": 51,
        "time": 42,
        "duration": 0.083,
        "velocity": 0.78,
        "hand": "left"
      },
      {
        "midi": 67,
        "time": 42,
        "duration": 0.151,
        "velocity": 1,
        "hand": "right"
      },
      {
        "midi": 74,
        "time": 42,
        "duration": 0.167,
        "velocity": 0.86,
        "hand": "right"
      },
      {
        "midi": 43,
        "time": 42.166,
        "duration": 0.333,
        "velocity": 0.9,
        "hand": "left"
      },
      {
        "midi": 47,
        "time": 42.166,
        "duration": 0.083,
        "velocity": 0.58,
        "hand": "left"
      },
      {
        "midi": 62,
        "time": 42.166,
        "duration": 0.319,
        "velocity": 0.7,
        "hand": "right"
      },
      {
        "midi": 67,
        "time": 42.166,
        "duration": 0.319,
        "velocity": 0.83,
        "hand": "right"
      },
      {
        "midi": 71,
        "time": 42.166,
        "duration": 0.152,
        "velocity": 0.69,
        "hand": "right"
      },
      {
        "midi": 51,
        "time": 42.333,
        "duration": 0.083,
        "velocity": 0.46,
        "hand": "left"
      },
      {
        "midi": 55,
        "time": 42.333,
        "duration": 0.152,
        "velocity": 0.65,
        "hand": "left"
      },
      {
        "midi": 69,
        "time": 42.333,
        "duration": 0.167,
        "velocity": 1,
        "hand": "right"
      },
      {
        "midi": 71,
        "time": 42.333,
        "duration": 0.167,
        "velocity": 0.81,
        "hand": "right"
      },
      {
        "midi": 55,
        "time": 42.5,
        "duration": 0.151,
        "velocity": 0.64,
        "hand": "left"
      },
      {
        "midi": 59,
        "time": 42.5,
        "duration": 0.151,
        "velocity": 0.67,
        "hand": "left"
      },
      {
        "midi": 62,
        "time": 42.5,
        "duration": 0.151,
        "velocity": 0.64,
        "hand": "right"
      },
      {
        "midi": 67,
        "time": 42.5,
        "duration": 0.151,
        "velocity": 0.55,
        "hand": "right"
      },
      {
        "midi": 43,
        "time": 42.666,
        "duration": 0.985,
        "velocity": 0.87,
        "hand": "left"
      },
      {
        "midi": 47,
        "time": 42.666,
        "duration": 0.083,
        "velocity": 0.77,
        "hand": "left"
      },
      {
        "midi": 67,
        "time": 42.666,
        "duration": 0.485,
        "velocity": 1,
        "hand": "right"
      },
      {
        "midi": 71,
        "time": 42.666,
        "duration": 0.319,
        "velocity": 0.71,
        "hand": "right"
      },
      {
        "midi": 74,
        "time": 42.666,
        "duration": 0.485,
        "velocity": 0.76,
        "hand": "right"
      },
      {
        "midi": 79,
        "time": 42.666,
        "duration": 1.833,
        "velocity": 0.76,
        "hand": "right"
      },
      {
        "midi": 51,
        "time": 43,
        "duration": 0.083,
        "velocity": 0.51,
        "hand": "left"
      },
      {
        "midi": 71,
        "time": 43,
        "duration": 0.151,
        "velocity": 0.81,
        "hand": "right"
      },
      {
        "midi": 67,
        "time": 43.166,
        "duration": 0.319,
        "velocity": 0.79,
        "hand": "right"
      },
      {
        "midi": 69,
        "time": 43.166,
        "duration": 0.167,
        "velocity": 1,
        "hand": "right"
      },
      {
        "midi": 71,
        "time": 43.166,
        "duration": 0.319,
        "velocity": 0.83,
        "hand": "right"
      },
      {
        "midi": 74,
        "time": 43.166,
        "duration": 0.167,
        "velocity": 0.92,
        "hand": "right"
      },
      {
        "midi": 38,
        "time": 43.333,
        "duration": 0.083,
        "velocity": 0.91,
        "hand": "left"
      },
      {
        "midi": 51,
        "time": 43.333,
        "duration": 0.083,
        "velocity": 0.74,
        "hand": "left"
      },
      {
        "midi": 62,
        "time": 43.5,
        "duration": 0.151,
        "velocity": 0.64,
        "hand": "right"
      },
      {
        "midi": 67,
        "time": 43.5,
        "duration": 0.318,
        "velocity": 0.67,
        "hand": "right"
      },
      {
        "midi": 71,
        "time": 43.5,
        "duration": 0.151,
        "velocity": 0.81,
        "hand": "right"
      },
      {
        "midi": 43,
        "time": 43.666,
        "duration": 0.083,
        "velocity": 0.85,
        "hand": "left"
      },
      {
        "midi": 47,
        "time": 43.666,
        "duration": 0.083,
        "velocity": 0.67,
        "hand": "left"
      },
      {
        "midi": 62,
        "time": 43.666,
        "duration": 0.152,
        "velocity": 0.54,
        "hand": "right"
      },
      {
        "midi": 71,
        "time": 43.666,
        "duration": 1.667,
        "velocity": 1,
        "hand": "right"
      },
      {
        "midi": 50,
        "time": 43.833,
        "duration": 0.152,
        "velocity": 0.46,
        "hand": "left"
      },
      {
        "midi": 62,
        "time": 43.833,
        "duration": 0.152,
        "velocity": 0.74,
        "hand": "right"
      },
      {
        "midi": 67,
        "time": 43.833,
        "duration": 0.167,
        "velocity": 0.59,
        "hand": "right"
      },
      {
        "midi": 38,
        "time": 44,
        "duration": 0.651,
        "velocity": 0.86,
        "hand": "left"
      },
      {
        "midi": 47,
        "time": 44,
        "duration": 0.083,
        "velocity": 0.83,
        "hand": "left"
      },
      {
        "midi": 66,
        "time": 44,
        "duration": 0.318,
        "velocity": 0.71,
        "hand": "right"
      },
      {
        "midi": 69,
        "time": 44,
        "duration": 1.318,
        "velocity": 0.71,
        "hand": "right"
      },
      {
        "midi": 72,
        "time": 44,
        "duration": 0.485,
        "velocity": 0.71,
        "hand": "right"
      },
      {
        "midi": 78,
        "time": 44,
        "duration": 2.667,
        "velocity": 0.63,
        "hand": "right"
      },
      {
        "midi": 51,
        "time": 44.333,
        "duration": 0.083,
        "velocity": 0.43,
        "hand": "left"
      },
      {
        "midi": 66,
        "time": 44.333,
        "duration": 0.152,
        "velocity": 0.76,
        "hand": "right"
      },
      {
        "midi": 54,
        "time": 44.5,
        "duration": 0.151,
        "velocity": 0.61,
        "hand": "left"
      },
      {
        "midi": 60,
        "time": 44.5,
        "duration": 0.318,
        "velocity": 0.84,
        "hand": "right"
      },
      {
        "midi": 62,
        "time": 44.5,
        "duration": 0.318,
        "velocity": 0.87,
        "hand": "right"
      },
      {
        "midi": 66,
        "time": 44.5,
        "duration": 0.318,
        "velocity": 0.79,
        "hand": "right"
      },
      {
        "midi": 72,
        "time": 44.5,
        "duration": 0.333,
        "velocity": 0.83,
        "hand": "right"
      },
      {
        "midi": 38,
        "time": 44.666,
        "duration": 0.083,
        "velocity": 0.91,
        "hand": "left"
      },
      {
        "midi": 50,
        "time": 44.666,
        "duration": 0.319,
        "velocity": 0.55,
        "hand": "left"
      },
      {
        "midi": 54,
        "time": 44.833,
        "duration": 0.152,
        "velocity": 0.59,
        "hand": "left"
      },
      {
        "midi": 60,
        "time": 44.833,
        "duration": 0.152,
        "velocity": 0.63,
        "hand": "right"
      },
      {
        "midi": 62,
        "time": 44.833,
        "duration": 0.318,
        "velocity": 0.73,
        "hand": "right"
      },
      {
        "midi": 66,
        "time": 44.833,
        "duration": 0.152,
        "velocity": 0.58,
        "hand": "right"
      },
      {
        "midi": 51,
        "time": 45,
        "duration": 0.083,
        "velocity": 0.54,
        "hand": "left"
      },
      {
        "midi": 60,
        "time": 45,
        "duration": 0.151,
        "velocity": 0.67,
        "hand": "right"
      },
      {
        "midi": 66,
        "time": 45,
        "duration": 0.318,
        "velocity": 0.79,
        "hand": "right"
      },
      {
        "midi": 60,
        "time": 45.166,
        "duration": 0.152,
        "velocity": 0.64,
        "hand": "right"
      },
      {
        "midi": 62,
        "time": 45.166,
        "duration": 0.152,
        "velocity": 0.56,
        "hand": "right"
      },
      {
        "midi": 38,
        "time": 45.333,
        "duration": 0.652,
        "velocity": 0.9,
        "hand": "left"
      },
      {
        "midi": 47,
        "time": 45.333,
        "duration": 0.083,
        "velocity": 0.82,
        "hand": "left"
      },
      {
        "midi": 62,
        "time": 45.333,
        "duration": 0.485,
        "velocity": 0.86,
        "hand": "right"
      },
      {
        "midi": 66,
        "time": 45.333,
        "duration": 0.318,
        "velocity": 0.72,
        "hand": "right"
      },
      {
        "midi": 69,
        "time": 45.333,
        "duration": 0.318,
        "velocity": 0.63,
        "hand": "right"
      },
      {
        "midi": 72,
        "time": 45.333,
        "duration": 0.652,
        "velocity": 0.82,
        "hand": "right"
      },
      {
        "midi": 51,
        "time": 45.666,
        "duration": 0.083,
        "velocity": 0.44,
        "hand": "left"
      },
      {
        "midi": 66,
        "time": 45.666,
        "duration": 0.152,
        "velocity": 0.8,
        "hand": "right"
      },
      {
        "midi": 69,
        "time": 45.666,
        "duration": 0.167,
        "velocity": 1,
        "hand": "right"
      },
      {
        "midi": 54,
        "time": 45.833,
        "duration": 0.318,
        "velocity": 0.61,
        "hand": "left"
      },
      {
        "midi": 60,
        "time": 45.833,
        "duration": 0.318,
        "velocity": 0.84,
        "hand": "right"
      },
      {
        "midi": 62,
        "time": 45.833,
        "duration": 0.652,
        "velocity": 0.87,
        "hand": "right"
      },
      {
        "midi": 66,
        "time": 45.833,
        "duration": 0.485,
        "velocity": 0.82,
        "hand": "right"
      },
      {
        "midi": 38,
        "time": 46,
        "duration": 0.083,
        "velocity": 0.91,
        "hand": "left"
      },
      {
        "midi": 51,
        "time": 46,
        "duration": 0.083,
        "velocity": 0.74,
        "hand": "left"
      },
      {
        "midi": 64,
        "time": 46,
        "duration": 0.167,
        "velocity": 1,
        "hand": "right"
      },
      {
        "midi": 72,
        "time": 46,
        "duration": 0.5,
        "velocity": 0.8,
        "hand": "right"
      },
      {
        "midi": 54,
        "time": 46.166,
        "duration": 0.152,
        "velocity": 0.61,
        "hand": "left"
      },
      {
        "midi": 60,
        "time": 46.166,
        "duration": 0.152,
        "velocity": 0.68,
        "hand": "right"
      },
      {
        "midi": 38,
        "time": 46.333,
        "duration": 0.083,
        "velocity": 0.86,
        "hand": "left"
      },
      {
        "midi": 47,
        "time": 46.333,
        "duration": 0.083,
        "velocity": 0.72,
        "hand": "left"
      },
      {
        "midi": 60,
        "time": 46.333,
        "duration": 0.152,
        "velocity": 0.65,
        "hand": "right"
      },
      {
        "midi": 66,
        "time": 46.333,
        "duration": 0.152,
        "velocity": 1,
        "hand": "right"
      },
      {
        "midi": 60,
        "time": 46.5,
        "duration": 0.167,
        "velocity": 0.65,
        "hand": "right"
      },
      {
        "midi": 62,
        "time": 46.5,
        "duration": 0.151,
        "velocity": 0.66,
        "hand": "right"
      },
      {
        "midi": 66,
        "time": 46.5,
        "duration": 0.167,
        "velocity": 0.48,
        "hand": "right"
      },
      {
        "midi": 43,
        "time": 46.666,
        "duration": 1.152,
        "velocity": 0.83,
        "hand": "left"
      },
      {
        "midi": 47,
        "time": 46.666,
        "duration": 0.083,
        "velocity": 0.73,
        "hand": "left"
      },
      {
        "midi": 67,
        "time": 46.666,
        "duration": 0.485,
        "velocity": 1,
        "hand": "right"
      },
      {
        "midi": 71,
        "time": 46.666,
        "duration": 0.319,
        "velocity": 0.71,
        "hand": "right"
      },
      {
        "midi": 74,
        "time": 46.666,
        "duration": 0.652,
        "velocity": 0.71,
        "hand": "right"
      },
      {
        "midi": 79,
        "time": 46.666,
        "duration": 2.333,
        "velocity": 0.72,
        "hand": "right"
      },
      {
        "midi": 51,
        "time": 47,
        "duration": 0.083,
        "velocity": 0.52,
        "hand": "left"
      },
      {
        "midi": 71,
        "time": 47,
        "duration": 0.151,
        "velocity": 0.81,
        "hand": "right"
      },
      {
        "midi": 62,
        "time": 47.166,
        "duration": 0.152,
        "velocity": 0.83,
        "hand": "right"
      },
      {
        "midi": 67,
        "time": 47.166,
        "duration": 0.319,
        "velocity": 0.87,
        "hand": "right"
      },
      {
        "midi": 71,
        "time": 47.166,
        "duration": 0.319,
        "velocity": 0.76,
        "hand": "right"
      },
      {
        "midi": 38,
        "time": 47.333,
        "duration": 0.083,
        "velocity": 0.91,
        "hand": "left"
      },
      {
        "midi": 51,
        "time": 47.333,
        "duration": 0.083,
        "velocity": 0.71,
        "hand": "left"
      },
      {
        "midi": 62,
        "time": 47.333,
        "duration": 0.152,
        "velocity": 1,
        "hand": "right"
      },
      {
        "midi": 74,
        "time": 47.333,
        "duration": 0.167,
        "velocity": 0.92,
        "hand": "right"
      },
      {
        "midi": 62,
        "time": 47.5,
        "duration": 0.151,
        "velocity": 0.71,
        "hand": "right"
      },
      {
        "midi": 67,
        "time": 47.5,
        "duration": 0.485,
        "velocity": 0.8,
        "hand": "right"
      },
      {
        "midi": 71,
        "time": 47.5,
        "duration": 0.151,
        "velocity": 0.59,
        "hand": "right"
      },
      {
        "midi": 51,
        "time": 47.666,
        "duration": 0.083,
        "velocity": 0.38,
        "hand": "left"
      },
      {
        "midi": 55,
        "time": 47.666,
        "duration": 0.319,
        "velocity": 0.68,
        "hand": "left"
      },
      {
        "midi": 62,
        "time": 47.666,
        "duration": 0.167,
        "velocity": 1,
        "hand": "right"
      },
      {
        "midi": 71,
        "time": 47.666,
        "duration": 0.319,
        "velocity": 0.81,
        "hand": "right"
      },
      {
        "midi": 43,
        "time": 47.833,
        "duration": 0.083,
        "velocity": 0.86,
        "hand": "left"
      },
      {
        "midi": 47,
        "time": 47.833,
        "duration": 0.083,
        "velocity": 0.39,
        "hand": "left"
      },
      {
        "midi": 43,
        "time": 48,
        "duration": 0.667,
        "velocity": 0.91,
        "hand": "left"
      },
      {
        "midi": 47,
        "time": 48,
        "duration": 0.083,
        "velocity": 0.86,
        "hand": "left"
      },
      {
        "midi": 67,
        "time": 48,
        "duration": 0.318,
        "velocity": 1,
        "hand": "right"
      },
      {
        "midi": 71,
        "time": 48,
        "duration": 0.318,
        "velocity": 0.71,
        "hand": "right"
      },
      {
        "midi": 74,
        "time": 48,
        "duration": 0.651,
        "velocity": 0.71,
        "hand": "right"
      },
      {
        "midi": 83,
        "time": 48,
        "duration": 5.333,
        "velocity": 0.63,
        "hand": "right"
      },
      {
        "midi": 51,
        "time": 48.333,
        "duration": 0.083,
        "velocity": 0.46,
        "hand": "left"
      },
      {
        "midi": 67,
        "time": 48.333,
        "duration": 0.152,
        "velocity": 1,
        "hand": "right"
      },
      {
        "midi": 71,
        "time": 48.333,
        "duration": 0.152,
        "velocity": 0.83,
        "hand": "right"
      },
      {
        "midi": 67,
        "time": 48.5,
        "duration": 0.151,
        "velocity": 0.73,
        "hand": "right"
      },
      {
        "midi": 71,
        "time": 48.5,
        "duration": 0.485,
        "velocity": 0.72,
        "hand": "right"
      },
      {
        "midi": 38,
        "time": 48.666,
        "duration": 0.083,
        "velocity": 0.91,
        "hand": "left"
      },
      {
        "midi": 51,
        "time": 48.666,
        "duration": 0.083,
        "velocity": 0.82,
        "hand": "left"
      },
      {
        "midi": 67,
        "time": 48.666,
        "duration": 0.152,
        "velocity": 1,
        "hand": "right"
      },
      {
        "midi": 74,
        "time": 48.666,
        "duration": 0.083,
        "velocity": 0.89,
        "hand": "right"
      },
      {
        "midi": 62,
        "time": 48.833,
        "duration": 0.318,
        "velocity": 0.59,
        "hand": "right"
      },
      {
        "midi": 67,
        "time": 48.833,
        "duration": 0.333,
        "velocity": 0.81,
        "hand": "right"
      },
      {
        "midi": 43,
        "time": 49,
        "duration": 0.083,
        "velocity": 0.89,
        "hand": "left"
      },
      {
        "midi": 47,
        "time": 49,
        "duration": 0.083,
        "velocity": 0.59,
        "hand": "left"
      },
      {
        "midi": 69,
        "time": 49,
        "duration": 0.167,
        "velocity": 1,
        "hand": "right"
      },
      {
        "midi": 71,
        "time": 49,
        "duration": 0.318,
        "velocity": 0.83,
        "hand": "right"
      },
      {
        "midi": 62,
        "time": 49.166,
        "duration": 0.152,
        "velocity": 0.58,
        "hand": "right"
      },
      {
        "midi": 43,
        "time": 49.333,
        "duration": 1.318,
        "velocity": 0.83,
        "hand": "left"
      },
      {
        "midi": 47,
        "time": 49.333,
        "duration": 0.083,
        "velocity": 0.8,
        "hand": "left"
      },
      {
        "midi": 67,
        "time": 49.333,
        "duration": 0.485,
        "velocity": 1,
        "hand": "right"
      },
      {
        "midi": 71,
        "time": 49.333,
        "duration": 0.318,
        "velocity": 0.66,
        "hand": "right"
      },
      {
        "midi": 74,
        "time": 49.333,
        "duration": 0.652,
        "velocity": 0.71,
        "hand": "right"
      },
      {
        "midi": 79,
        "time": 49.333,
        "duration": 2.333,
        "velocity": 0.74,
        "hand": "right"
      },
      {
        "midi": 51,
        "time": 49.666,
        "duration": 0.083,
        "velocity": 0.5,
        "hand": "left"
      },
      {
        "midi": 71,
        "time": 49.666,
        "duration": 0.152,
        "velocity": 0.81,
        "hand": "right"
      },
      {
        "midi": 62,
        "time": 49.833,
        "duration": 0.318,
        "velocity": 0.65,
        "hand": "right"
      },
      {
        "midi": 67,
        "time": 49.833,
        "duration": 0.652,
        "velocity": 0.91,
        "hand": "right"
      },
      {
        "midi": 71,
        "time": 49.833,
        "duration": 0.318,
        "velocity": 0.73,
        "hand": "right"
      },
      {
        "midi": 38,
        "time": 50,
        "duration": 0.083,
        "velocity": 0.91,
        "hand": "left"
      },
      {
        "midi": 51,
        "time": 50,
        "duration": 0.083,
        "velocity": 0.74,
        "hand": "left"
      },
      {
        "midi": 69,
        "time": 50,
        "duration": 0.167,
        "velocity": 1,
        "hand": "right"
      },
      {
        "midi": 74,
        "time": 50,
        "duration": 0.083,
        "velocity": 0.86,
        "hand": "right"
      },
      {
        "midi": 59,
        "time": 50.166,
        "duration": 0.167,
        "velocity": 0.66,
        "hand": "left"
      },
      {
        "midi": 62,
        "time": 50.166,
        "duration": 0.319,
        "velocity": 0.68,
        "hand": "right"
      },
      {
        "midi": 71,
        "time": 50.166,
        "duration": 0.152,
        "velocity": 0.56,
        "hand": "right"
      },
      {
        "midi": 51,
        "time": 50.333,
        "duration": 0.083,
        "velocity": 0.46,
        "hand": "left"
      },
      {
        "midi": 55,
        "time": 50.333,
        "duration": 0.318,
        "velocity": 0.63,
        "hand": "left"
      },
      {
        "midi": 71,
        "time": 50.333,
        "duration": 0.152,
        "velocity": 1,
        "hand": "right"
      },
      {
        "midi": 59,
        "time": 50.5,
        "duration": 0.151,
        "velocity": 0.54,
        "hand": "left"
      },
      {
        "midi": 62,
        "time": 50.5,
        "duration": 0.151,
        "velocity": 0.61,
        "hand": "right"
      },
      {
        "midi": 67,
        "time": 50.5,
        "duration": 0.151,
        "velocity": 0.72,
        "hand": "right"
      },
      {
        "midi": 71,
        "time": 50.5,
        "duration": 0.151,
        "velocity": 0.61,
        "hand": "right"
      },
      {
        "midi": 43,
        "time": 50.666,
        "duration": 0.667,
        "velocity": 0.91,
        "hand": "left"
      },
      {
        "midi": 47,
        "time": 50.666,
        "duration": 0.083,
        "velocity": 0.8,
        "hand": "left"
      },
      {
        "midi": 62,
        "time": 50.666,
        "duration": 0.485,
        "velocity": 0.87,
        "hand": "right"
      },
      {
        "midi": 67,
        "time": 50.666,
        "duration": 0.485,
        "velocity": 0.91,
        "hand": "right"
      },
      {
        "midi": 71,
        "time": 50.666,
        "duration": 0.319,
        "velocity": 0.73,
        "hand": "right"
      },
      {
        "midi": 51,
        "time": 51,
        "duration": 0.083,
        "velocity": 0.4,
        "hand": "left"
      },
      {
        "midi": 69,
        "time": 51,
        "duration": 0.333,
        "velocity": 1,
        "hand": "right"
      },
      {
        "midi": 71,
        "time": 51,
        "duration": 0.151,
        "velocity": 0.83,
        "hand": "right"
      },
      {
        "midi": 59,
        "time": 51.166,
        "duration": 0.485,
        "velocity": 0.54,
        "hand": "left"
      },
      {
        "midi": 62,
        "time": 51.166,
        "duration": 0.152,
        "velocity": 0.71,
        "hand": "right"
      },
      {
        "midi": 67,
        "time": 51.166,
        "duration": 0.152,
        "velocity": 0.9,
        "hand": "right"
      },
      {
        "midi": 71,
        "time": 51.166,
        "duration": 0.319,
        "velocity": 0.66,
        "hand": "right"
      },
      {
        "midi": 38,
        "time": 51.333,
        "duration": 0.083,
        "velocity": 0.91,
        "hand": "left"
      },
      {
        "midi": 51,
        "time": 51.333,
        "duration": 0.083,
        "velocity": 0.8,
        "hand": "left"
      },
      {
        "midi": 62,
        "time": 51.333,
        "duration": 0.318,
        "velocity": 0.7,
        "hand": "right"
      },
      {
        "midi": 67,
        "time": 51.333,
        "duration": 0.333,
        "velocity": 1,
        "hand": "right"
      },
      {
        "midi": 74,
        "time": 51.333,
        "duration": 0.167,
        "velocity": 0.86,
        "hand": "right"
      },
      {
        "midi": 71,
        "time": 51.5,
        "duration": 0.151,
        "velocity": 0.53,
        "hand": "right"
      },
      {
        "midi": 43,
        "time": 51.666,
        "duration": 0.083,
        "velocity": 0.87,
        "hand": "left"
      },
      {
        "midi": 47,
        "time": 51.666,
        "duration": 0.083,
        "velocity": 0.78,
        "hand": "left"
      },
      {
        "midi": 62,
        "time": 51.666,
        "duration": 0.152,
        "velocity": 0.64,
        "hand": "right"
      },
      {
        "midi": 66,
        "time": 51.666,
        "duration": 0.333,
        "velocity": 1,
        "hand": "right"
      },
      {
        "midi": 71,
        "time": 51.666,
        "duration": 0.152,
        "velocity": 0.81,
        "hand": "right"
      },
      {
        "midi": 59,
        "time": 51.833,
        "duration": 0.152,
        "velocity": 0.63,
        "hand": "left"
      },
      {
        "midi": 62,
        "time": 51.833,
        "duration": 0.152,
        "velocity": 0.73,
        "hand": "right"
      },
      {
        "midi": 67,
        "time": 51.833,
        "duration": 0.152,
        "velocity": 0.7,
        "hand": "right"
      },
      {
        "midi": 71,
        "time": 51.833,
        "duration": 0.152,
        "velocity": 0.56,
        "hand": "right"
      },
      {
        "midi": 43,
        "time": 52,
        "duration": 0.818,
        "velocity": 0.85,
        "hand": "left"
      },
      {
        "midi": 47,
        "time": 52,
        "duration": 0.083,
        "velocity": 0.74,
        "hand": "left"
      },
      {
        "midi": 67,
        "time": 52,
        "duration": 0.485,
        "velocity": 0.85,
        "hand": "right"
      },
      {
        "midi": 71,
        "time": 52,
        "duration": 0.318,
        "velocity": 0.68,
        "hand": "right"
      },
      {
        "midi": 74,
        "time": 52,
        "duration": 0.651,
        "velocity": 0.72,
        "hand": "right"
      },
      {
        "midi": 79,
        "time": 52,
        "duration": 1.318,
        "velocity": 0.76,
        "hand": "right"
      },
      {
        "midi": 51,
        "time": 52.333,
        "duration": 0.083,
        "velocity": 0.54,
        "hand": "left"
      },
      {
        "midi": 62,
        "time": 52.333,
        "duration": 0.152,
        "velocity": 1,
        "hand": "right"
      },
      {
        "midi": 71,
        "time": 52.333,
        "duration": 0.152,
        "velocity": 0.81,
        "hand": "right"
      },
      {
        "midi": 59,
        "time": 52.5,
        "duration": 0.151,
        "velocity": 0.64,
        "hand": "left"
      },
      {
        "midi": 62,
        "time": 52.5,
        "duration": 0.151,
        "velocity": 0.9,
        "hand": "right"
      },
      {
        "midi": 67,
        "time": 52.5,
        "duration": 0.318,
        "velocity": 0.89,
        "hand": "right"
      },
      {
        "midi": 71,
        "time": 52.5,
        "duration": 0.318,
        "velocity": 0.78,
        "hand": "right"
      },
      {
        "midi": 38,
        "time": 52.666,
        "duration": 0.083,
        "velocity": 0.91,
        "hand": "left"
      },
      {
        "midi": 51,
        "time": 52.666,
        "duration": 0.083,
        "velocity": 0.78,
        "hand": "left"
      },
      {
        "midi": 62,
        "time": 52.666,
        "duration": 0.152,
        "velocity": 1,
        "hand": "right"
      },
      {
        "midi": 74,
        "time": 52.666,
        "duration": 0.083,
        "velocity": 0.92,
        "hand": "right"
      },
      {
        "midi": 43,
        "time": 52.833,
        "duration": 0.333,
        "velocity": 0.9,
        "hand": "left"
      },
      {
        "midi": 47,
        "time": 52.833,
        "duration": 0.083,
        "velocity": 0.58,
        "hand": "left"
      },
      {
        "midi": 62,
        "time": 52.833,
        "duration": 0.152,
        "velocity": 0.7,
        "hand": "right"
      },
      {
        "midi": 67,
        "time": 52.833,
        "duration": 0.318,
        "velocity": 0.83,
        "hand": "right"
      },
      {
        "midi": 71,
        "time": 52.833,
        "duration": 0.152,
        "velocity": 0.69,
        "hand": "right"
      },
      {
        "midi": 51,
        "time": 53,
        "duration": 0.083,
        "velocity": 0.46,
        "hand": "left"
      },
      {
        "midi": 55,
        "time": 53,
        "duration": 0.151,
        "velocity": 0.65,
        "hand": "left"
      },
      {
        "midi": 62,
        "time": 53,
        "duration": 0.151,
        "velocity": 1,
        "hand": "right"
      },
      {
        "midi": 71,
        "time": 53,
        "duration": 0.318,
        "velocity": 0.86,
        "hand": "right"
      },
      {
        "midi": 55,
        "time": 53.166,
        "duration": 0.152,
        "velocity": 0.64,
        "hand": "left"
      },
      {
        "midi": 59,
        "time": 53.166,
        "duration": 0.152,
        "velocity": 0.67,
        "hand": "left"
      },
      {
        "midi": 62,
        "time": 53.166,
        "duration": 0.152,
        "velocity": 0.64,
        "hand": "right"
      },
      {
        "midi": 67,
        "time": 53.166,
        "duration": 0.152,
        "velocity": 0.55,
        "hand": "right"
      },
      {
        "midi": 43,
        "time": 53.333,
        "duration": 0.667,
        "velocity": 0.87,
        "hand": "left"
      },
      {
        "midi": 47,
        "time": 53.333,
        "duration": 0.083,
        "velocity": 0.77,
        "hand": "left"
      },
      {
        "midi": 67,
        "time": 53.333,
        "duration": 0.318,
        "velocity": 1,
        "hand": "right"
      },
      {
        "midi": 71,
        "time": 53.333,
        "duration": 0.318,
        "velocity": 0.71,
        "hand": "right"
      },
      {
        "midi": 74,
        "time": 53.333,
        "duration": 0.652,
        "velocity": 0.71,
        "hand": "right"
      },
      {
        "midi": 79,
        "time": 53.333,
        "duration": 1.318,
        "velocity": 0.71,
        "hand": "right"
      },
      {
        "midi": 51,
        "time": 53.666,
        "duration": 0.083,
        "velocity": 0.51,
        "hand": "left"
      },
      {
        "midi": 67,
        "time": 53.666,
        "duration": 0.083,
        "velocity": 1,
        "hand": "right"
      },
      {
        "midi": 71,
        "time": 53.666,
        "duration": 0.152,
        "velocity": 0.81,
        "hand": "right"
      },
      {
        "midi": 67,
        "time": 53.833,
        "duration": 0.152,
        "velocity": 0.79,
        "hand": "right"
      },
      {
        "midi": 71,
        "time": 53.833,
        "duration": 0.485,
        "velocity": 0.83,
        "hand": "right"
      },
      {
        "midi": 38,
        "time": 54,
        "duration": 0.083,
        "velocity": 0.91,
        "hand": "left"
      },
      {
        "midi": 51,
        "time": 54,
        "duration": 0.083,
        "velocity": 0.74,
        "hand": "left"
      },
      {
        "midi": 67,
        "time": 54,
        "duration": 0.151,
        "velocity": 1,
        "hand": "right"
      },
      {
        "midi": 74,
        "time": 54,
        "duration": 0.083,
        "velocity": 0.79,
        "hand": "right"
      },
      {
        "midi": 62,
        "time": 54.166,
        "duration": 0.152,
        "velocity": 0.64,
        "hand": "right"
      },
      {
        "midi": 67,
        "time": 54.166,
        "duration": 0.319,
        "velocity": 0.67,
        "hand": "right"
      },
      {
        "midi": 43,
        "time": 54.333,
        "duration": 0.083,
        "velocity": 0.85,
        "hand": "left"
      },
      {
        "midi": 47,
        "time": 54.333,
        "duration": 0.083,
        "velocity": 0.67,
        "hand": "left"
      },
      {
        "midi": 62,
        "time": 54.333,
        "duration": 0.152,
        "velocity": 0.54,
        "hand": "right"
      },
      {
        "midi": 69,
        "time": 54.333,
        "duration": 0.167,
        "velocity": 1,
        "hand": "right"
      },
      {
        "midi": 71,
        "time": 54.333,
        "duration": 0.167,
        "velocity": 0.74,
        "hand": "right"
      },
      {
        "midi": 62,
        "time": 54.5,
        "duration": 0.151,
        "velocity": 0.58,
        "hand": "right"
      },
      {
        "midi": 67,
        "time": 54.5,
        "duration": 0.151,
        "velocity": 0.59,
        "hand": "right"
      },
      {
        "midi": 43,
        "time": 54.666,
        "duration": 2.167,
        "velocity": 0.86,
        "hand": "left"
      },
      {
        "midi": 47,
        "time": 54.666,
        "duration": 0.083,
        "velocity": 0.83,
        "hand": "left"
      },
      {
        "midi": 67,
        "time": 54.666,
        "duration": 0.485,
        "velocity": 1,
        "hand": "right"
      },
      {
        "midi": 71,
        "time": 54.666,
        "duration": 0.319,
        "velocity": 0.68,
        "hand": "right"
      },
      {
        "midi": 74,
        "time": 54.666,
        "duration": 0.485,
        "velocity": 0.74,
        "hand": "right"
      },
      {
        "midi": 79,
        "time": 54.666,
        "duration": 1.833,
        "velocity": 0.76,
        "hand": "right"
      },
      {
        "midi": 51,
        "time": 55,
        "duration": 0.083,
        "velocity": 0.43,
        "hand": "left"
      },
      {
        "midi": 71,
        "time": 55,
        "duration": 0.151,
        "velocity": 0.76,
        "hand": "right"
      },
      {
        "midi": 59,
        "time": 55.166,
        "duration": 0.152,
        "velocity": 0.61,
        "hand": "left"
      },
      {
        "midi": 67,
        "time": 55.166,
        "duration": 0.319,
        "velocity": 0.87,
        "hand": "right"
      },
      {
        "midi": 69,
        "time": 55.166,
        "duration": 0.167,
        "velocity": 1,
        "hand": "right"
      },
      {
        "midi": 71,
        "time": 55.166,
        "duration": 0.319,
        "velocity": 0.79,
        "hand": "right"
      },
      {
        "midi": 74,
        "time": 55.166,
        "duration": 0.167,
        "velocity": 0.76,
        "hand": "right"
      },
      {
        "midi": 38,
        "time": 55.333,
        "duration": 0.083,
        "velocity": 0.91,
        "hand": "left"
      },
      {
        "midi": 51,
        "time": 55.333,
        "duration": 0.083,
        "velocity": 0.72,
        "hand": "left"
      },
      {
        "midi": 59,
        "time": 55.5,
        "duration": 0.151,
        "velocity": 0.59,
        "hand": "left"
      },
      {
        "midi": 62,
        "time": 55.5,
        "duration": 0.151,
        "velocity": 0.63,
        "hand": "right"
      },
      {
        "midi": 67,
        "time": 55.5,
        "duration": 0.318,
        "velocity": 0.73,
        "hand": "right"
      },
      {
        "midi": 71,
        "time": 55.5,
        "duration": 0.151,
        "velocity": 0.76,
        "hand": "right"
      },
      {
        "midi": 51,
        "time": 55.666,
        "duration": 0.083,
        "velocity": 0.54,
        "hand": "left"
      },
      {
        "midi": 55,
        "time": 55.666,
        "duration": 0.167,
        "velocity": 0.69,
        "hand": "left"
      },
      {
        "midi": 62,
        "time": 55.666,
        "duration": 0.152,
        "velocity": 0.67,
        "hand": "right"
      },
      {
        "midi": 71,
        "time": 55.666,
        "duration": 2,
        "velocity": 1,
        "hand": "right"
      },
      {
        "midi": 67,
        "time": 55.833,
        "duration": 0.083,
        "velocity": 0.56,
        "hand": "right"
      },
      {
        "midi": 70,
        "time": 55.833,
        "duration": 0.083,
        "velocity": 0.71,
        "hand": "right"
      },
      {
        "midi": 73,
        "time": 55.833,
        "duration": 0.083,
        "velocity": 0.71,
        "hand": "right"
      },
      {
        "midi": 78,
        "time": 55.833,
        "duration": 0.083,
        "velocity": 0.71,
        "hand": "right"
      },
      {
        "midi": 38,
        "time": 56,
        "duration": 0.651,
        "velocity": 0.9,
        "hand": "left"
      },
      {
        "midi": 47,
        "time": 56,
        "duration": 0.083,
        "velocity": 0.82,
        "hand": "left"
      },
      {
        "midi": 66,
        "time": 56,
        "duration": 0.318,
        "velocity": 0.72,
        "hand": "right"
      },
      {
        "midi": 69,
        "time": 56,
        "duration": 1.318,
        "velocity": 0.71,
        "hand": "right"
      },
      {
        "midi": 72,
        "time": 56,
        "duration": 0.651,
        "velocity": 0.71,
        "hand": "right"
      },
      {
        "midi": 78,
        "time": 56,
        "duration": 2.667,
        "velocity": 0.63,
        "hand": "right"
      },
      {
        "midi": 51,
        "time": 56.333,
        "duration": 0.083,
        "velocity": 0.44,
        "hand": "left"
      },
      {
        "midi": 66,
        "time": 56.333,
        "duration": 0.152,
        "velocity": 0.69,
        "hand": "right"
      },
      {
        "midi": 54,
        "time": 56.5,
        "duration": 0.318,
        "velocity": 0.61,
        "hand": "left"
      },
      {
        "midi": 60,
        "time": 56.5,
        "duration": 0.318,
        "velocity": 0.84,
        "hand": "right"
      },
      {
        "midi": 62,
        "time": 56.5,
        "duration": 0.651,
        "velocity": 0.87,
        "hand": "right"
      },
      {
        "midi": 66,
        "time": 56.5,
        "duration": 0.485,
        "velocity": 0.82,
        "hand": "right"
      },
      {
        "midi": 38,
        "time": 56.666,
        "duration": 0.083,
        "velocity": 0.91,
        "hand": "left"
      },
      {
        "midi": 51,
        "time": 56.666,
        "duration": 0.083,
        "velocity": 0.74,
        "hand": "left"
      },
      {
        "midi": 72,
        "time": 56.666,
        "duration": 0.333,
        "velocity": 0.82,
        "hand": "right"
      },
      {
        "midi": 54,
        "time": 56.833,
        "duration": 0.152,
        "velocity": 0.61,
        "hand": "left"
      },
      {
        "midi": 60,
        "time": 56.833,
        "duration": 0.152,
        "velocity": 0.68,
        "hand": "right"
      },
      {
        "midi": 38,
        "time": 57,
        "duration": 0.083,
        "velocity": 0.86,
        "hand": "left"
      },
      {
        "midi": 47,
        "time": 57,
        "duration": 0.083,
        "velocity": 0.72,
        "hand": "left"
      },
      {
        "midi": 60,
        "time": 57,
        "duration": 0.151,
        "velocity": 0.65,
        "hand": "right"
      },
      {
        "midi": 66,
        "time": 57,
        "duration": 0.151,
        "velocity": 0.76,
        "hand": "right"
      },
      {
        "midi": 60,
        "time": 57.166,
        "duration": 0.152,
        "velocity": 0.65,
        "hand": "right"
      },
      {
        "midi": 62,
        "time": 57.166,
        "duration": 0.152,
        "velocity": 0.66,
        "hand": "right"
      },
      {
        "midi": 66,
        "time": 57.166,
        "duration": 0.152,
        "velocity": 0.48,
        "hand": "right"
      },
      {
        "midi": 38,
        "time": 57.333,
        "duration": 0.652,
        "velocity": 0.83,
        "hand": "left"
      },
      {
        "midi": 47,
        "time": 57.333,
        "duration": 0.083,
        "velocity": 0.73,
        "hand": "left"
      },
      {
        "midi": 62,
        "time": 57.333,
        "duration": 0.485,
        "velocity": 0.87,
        "hand": "right"
      },
      {
        "midi": 66,
        "time": 57.333,
        "duration": 0.318,
        "velocity": 0.71,
        "hand": "right"
      },
      {
        "midi": 69,
        "time": 57.333,
        "duration": 0.318,
        "velocity": 0.46,
        "hand": "right"
      },
      {
        "midi": 72,
        "time": 57.333,
        "duration": 0.652,
        "velocity": 0.74,
        "hand": "right"
      },
      {
        "midi": 51,
        "time": 57.666,
        "duration": 0.083,
        "velocity": 0.52,
        "hand": "left"
      },
      {
        "midi": 66,
        "time": 57.666,
        "duration": 0.152,
        "velocity": 0.74,
        "hand": "right"
      },
      {
        "midi": 69,
        "time": 57.666,
        "duration": 0.167,
        "velocity": 1,
        "hand": "right"
      },
      {
        "midi": 60,
        "time": 57.833,
        "duration": 0.318,
        "velocity": 0.83,
        "hand": "right"
      },
      {
        "midi": 62,
        "time": 57.833,
        "duration": 0.318,
        "velocity": 0.87,
        "hand": "right"
      },
      {
        "midi": 66,
        "time": 57.833,
        "duration": 0.318,
        "velocity": 0.76,
        "hand": "right"
      },
      {
        "midi": 38,
        "time": 58,
        "duration": 0.083,
        "velocity": 0.91,
        "hand": "left"
      },
      {
        "midi": 51,
        "time": 58,
        "duration": 0.083,
        "velocity": 0.71,
        "hand": "left"
      },
      {
        "midi": 64,
        "time": 58,
        "duration": 0.167,
        "velocity": 1,
        "hand": "right"
      },
      {
        "midi": 72,
        "time": 58,
        "duration": 0.5,
        "velocity": 0.76,
        "hand": "right"
      },
      {
        "midi": 60,
        "time": 58.166,
        "duration": 0.5,
        "velocity": 0.71,
        "hand": "right"
      },
      {
        "midi": 62,
        "time": 58.166,
        "duration": 0.485,
        "velocity": 0.8,
        "hand": "right"
      },
      {
        "midi": 66,
        "time": 58.166,
        "duration": 0.152,
        "velocity": 0.59,
        "hand": "right"
      },
      {
        "midi": 51,
        "time": 58.333,
        "duration": 0.083,
        "velocity": 0.38,
        "hand": "left"
      },
      {
        "midi": 66,
        "time": 58.333,
        "duration": 0.333,
        "velocity": 1,
        "hand": "right"
      },
      {
        "midi": 38,
        "time": 58.5,
        "duration": 0.083,
        "velocity": 0.86,
        "hand": "left"
      },
      {
        "midi": 47,
        "time": 58.5,
        "duration": 0.083,
        "velocity": 0.39,
        "hand": "left"
      },
      {
        "midi": 43,
        "time": 58.666,
        "duration": 0.985,
        "velocity": 0.91,
        "hand": "left"
      },
      {
        "midi": 47,
        "time": 58.666,
        "duration": 0.083,
        "velocity": 0.86,
        "hand": "left"
      },
      {
        "midi": 71,
        "time": 58.666,
        "duration": 0.319,
        "velocity": 0.71,
        "hand": "right"
      },
      {
        "midi": 74,
        "time": 58.666,
        "duration": 0.652,
        "velocity": 0.71,
        "hand": "right"
      },
      {
        "midi": 79,
        "time": 58.666,
        "duration": 2.333,
        "velocity": 0.68,
        "hand": "right"
      },
      {
        "midi": 83,
        "time": 58.666,
        "duration": 5.333,
        "velocity": 0.63,
        "hand": "right"
      },
      {
        "midi": 51,
        "time": 59,
        "duration": 0.083,
        "velocity": 0.46,
        "hand": "left"
      },
      {
        "midi": 71,
        "time": 59,
        "duration": 0.151,
        "velocity": 0.79,
        "hand": "right"
      },
      {
        "midi": 67,
        "time": 59.166,
        "duration": 0.319,
        "velocity": 0.73,
        "hand": "right"
      },
      {
        "midi": 71,
        "time": 59.166,
        "duration": 0.485,
        "velocity": 0.72,
        "hand": "right"
      },
      {
        "midi": 38,
        "time": 59.333,
        "duration": 0.083,
        "velocity": 0.91,
        "hand": "left"
      },
      {
        "midi": 51,
        "time": 59.333,
        "duration": 0.083,
        "velocity": 0.82,
        "hand": "left"
      },
      {
        "midi": 62,
        "time": 59.333,
        "duration": 0.152,
        "velocity": 1,
        "hand": "right"
      },
      {
        "midi": 74,
        "time": 59.333,
        "duration": 0.167,
        "velocity": 0.89,
        "hand": "right"
      },
      {
        "midi": 62,
        "time": 59.5,
        "duration": 0.151,
        "velocity": 0.59,
        "hand": "right"
      },
      {
        "midi": 67,
        "time": 59.5,
        "duration": 0.333,
        "velocity": 0.81,
        "hand": "right"
      },
      {
        "midi": 43,
        "time": 59.666,
        "duration": 0.083,
        "velocity": 0.89,
        "hand": "left"
      },
      {
        "midi": 47,
        "time": 59.666,
        "duration": 0.083,
        "velocity": 0.59,
        "hand": "left"
      },
      {
        "midi": 62,
        "time": 59.666,
        "duration": 0.152,
        "velocity": 1,
        "hand": "right"
      },
      {
        "midi": 71,
        "time": 59.666,
        "duration": 0.319,
        "velocity": 0.79,
        "hand": "right"
      },
      {
        "midi": 62,
        "time": 59.833,
        "duration": 0.152,
        "velocity": 0.58,
        "hand": "right"
      },
      {
        "midi": 43,
        "time": 60,
        "duration": 1.167,
        "velocity": 0.83,
        "hand": "left"
      },
      {
        "midi": 47,
        "time": 60,
        "duration": 0.083,
        "velocity": 0.8,
        "hand": "left"
      },
      {
        "midi": 62,
        "time": 60,
        "duration": 0.485,
        "velocity": 0.88,
        "hand": "right"
      },
      {
        "midi": 67,
        "time": 60,
        "duration": 0.318,
        "velocity": 1,
        "hand": "right"
      },
      {
        "midi": 71,
        "time": 60,
        "duration": 0.318,
        "velocity": 0.66,
        "hand": "right"
      },
      {
        "midi": 51,
        "time": 60.333,
        "duration": 0.083,
        "velocity": 0.5,
        "hand": "left"
      },
      {
        "midi": 67,
        "time": 60.333,
        "duration": 0.152,
        "velocity": 1,
        "hand": "right"
      },
      {
        "midi": 71,
        "time": 60.333,
        "duration": 0.083,
        "velocity": 0.86,
        "hand": "right"
      },
      {
        "midi": 62,
        "time": 60.5,
        "duration": 0.318,
        "velocity": 0.65,
        "hand": "right"
      },
      {
        "midi": 67,
        "time": 60.5,
        "duration": 0.151,
        "velocity": 0.91,
        "hand": "right"
      },
      {
        "midi": 71,
        "time": 60.5,
        "duration": 0.318,
        "velocity": 0.73,
        "hand": "right"
      },
      {
        "midi": 38,
        "time": 60.666,
        "duration": 0.083,
        "velocity": 0.91,
        "hand": "left"
      },
      {
        "midi": 51,
        "time": 60.666,
        "duration": 0.083,
        "velocity": 0.74,
        "hand": "left"
      },
      {
        "midi": 67,
        "time": 60.666,
        "duration": 0.167,
        "velocity": 1,
        "hand": "right"
      },
      {
        "midi": 74,
        "time": 60.666,
        "duration": 0.083,
        "velocity": 0.81,
        "hand": "right"
      },
      {
        "midi": 59,
        "time": 60.833,
        "duration": 0.167,
        "velocity": 0.66,
        "hand": "left"
      },
      {
        "midi": 62,
        "time": 60.833,
        "duration": 0.318,
        "velocity": 0.68,
        "hand": "right"
      },
      {
        "midi": 71,
        "time": 60.833,
        "duration": 0.152,
        "velocity": 0.56,
        "hand": "right"
      },
      {
        "midi": 51,
        "time": 61,
        "duration": 0.083,
        "velocity": 0.46,
        "hand": "left"
      },
      {
        "midi": 55,
        "time": 61,
        "duration": 0.318,
        "velocity": 0.63,
        "hand": "left"
      },
      {
        "midi": 69,
        "time": 61,
        "duration": 0.167,
        "velocity": 1,
        "hand": "right"
      },
      {
        "midi": 71,
        "time": 61,
        "duration": 0.151,
        "velocity": 0.83,
        "hand": "right"
      },
      {
        "midi": 59,
        "time": 61.166,
        "duration": 0.152,
        "velocity": 0.54,
        "hand": "left"
      },
      {
        "midi": 62,
        "time": 61.166,
        "duration": 0.152,
        "velocity": 0.61,
        "hand": "right"
      },
      {
        "midi": 67,
        "time": 61.166,
        "duration": 0.152,
        "velocity": 0.72,
        "hand": "right"
      },
      {
        "midi": 71,
        "time": 61.166,
        "duration": 0.152,
        "velocity": 0.61,
        "hand": "right"
      },
      {
        "midi": 43,
        "time": 61.333,
        "duration": 0.985,
        "velocity": 0.91,
        "hand": "left"
      },
      {
        "midi": 47,
        "time": 61.333,
        "duration": 0.083,
        "velocity": 0.8,
        "hand": "left"
      },
      {
        "midi": 67,
        "time": 61.333,
        "duration": 0.485,
        "velocity": 1,
        "hand": "right"
      },
      {
        "midi": 71,
        "time": 61.333,
        "duration": 0.318,
        "velocity": 0.73,
        "hand": "right"
      },
      {
        "midi": 74,
        "time": 61.333,
        "duration": 0.652,
        "velocity": 0.72,
        "hand": "right"
      },
      {
        "midi": 79,
        "time": 61.333,
        "duration": 2.333,
        "velocity": 0.76,
        "hand": "right"
      },
      {
        "midi": 51,
        "time": 61.666,
        "duration": 0.083,
        "velocity": 0.4,
        "hand": "left"
      },
      {
        "midi": 71,
        "time": 61.666,
        "duration": 0.152,
        "velocity": 0.79,
        "hand": "right"
      },
      {
        "midi": 59,
        "time": 61.833,
        "duration": 0.485,
        "velocity": 0.54,
        "hand": "left"
      },
      {
        "midi": 62,
        "time": 61.833,
        "duration": 0.152,
        "velocity": 0.71,
        "hand": "right"
      },
      {
        "midi": 67,
        "time": 61.833,
        "duration": 0.652,
        "velocity": 0.9,
        "hand": "right"
      },
      {
        "midi": 71,
        "time": 61.833,
        "duration": 0.318,
        "velocity": 0.66,
        "hand": "right"
      },
      {
        "midi": 38,
        "time": 62,
        "duration": 0.083,
        "velocity": 0.91,
        "hand": "left"
      },
      {
        "midi": 51,
        "time": 62,
        "duration": 0.083,
        "velocity": 0.8,
        "hand": "left"
      },
      {
        "midi": 62,
        "time": 62,
        "duration": 0.318,
        "velocity": 0.7,
        "hand": "right"
      },
      {
        "midi": 69,
        "time": 62,
        "duration": 0.167,
        "velocity": 1,
        "hand": "right"
      },
      {
        "midi": 74,
        "time": 62,
        "duration": 0.167,
        "velocity": 0.83,
        "hand": "right"
      },
      {
        "midi": 71,
        "time": 62.166,
        "duration": 0.152,
        "velocity": 0.53,
        "hand": "right"
      },
      {
        "midi": 43,
        "time": 62.333,
        "duration": 0.083,
        "velocity": 0.87,
        "hand": "left"
      },
      {
        "midi": 47,
        "time": 62.333,
        "duration": 0.083,
        "velocity": 0.78,
        "hand": "left"
      },
      {
        "midi": 62,
        "time": 62.333,
        "duration": 0.152,
        "velocity": 0.64,
        "hand": "right"
      },
      {
        "midi": 71,
        "time": 62.333,
        "duration": 0.152,
        "velocity": 1,
        "hand": "right"
      },
      {
        "midi": 59,
        "time": 62.5,
        "duration": 0.151,
        "velocity": 0.63,
        "hand": "left"
      },
      {
        "midi": 62,
        "time": 62.5,
        "duration": 0.151,
        "velocity": 0.73,
        "hand": "right"
      },
      {
        "midi": 67,
        "time": 62.5,
        "duration": 0.151,
        "velocity": 0.7,
        "hand": "right"
      },
      {
        "midi": 71,
        "time": 62.5,
        "duration": 0.151,
        "velocity": 0.56,
        "hand": "right"
      },
      {
        "midi": 43,
        "time": 62.666,
        "duration": 0.667,
        "velocity": 0.85,
        "hand": "left"
      },
      {
        "midi": 47,
        "time": 62.666,
        "duration": 0.083,
        "velocity": 0.74,
        "hand": "left"
      },
      {
        "midi": 62,
        "time": 62.666,
        "duration": 0.485,
        "velocity": 0.81,
        "hand": "right"
      },
      {
        "midi": 67,
        "time": 62.666,
        "duration": 0.485,
        "velocity": 0.85,
        "hand": "right"
      },
      {
        "midi": 71,
        "time": 62.666,
        "duration": 0.319,
        "velocity": 0.65,
        "hand": "right"
      },
      {
        "midi": 51,
        "time": 63,
        "duration": 0.083,
        "velocity": 0.54,
        "hand": "left"
      },
      {
        "midi": 69,
        "time": 63,
        "duration": 0.333,
        "velocity": 1,
        "hand": "right"
      },
      {
        "midi": 71,
        "time": 63,
        "duration": 0.151,
        "velocity": 0.86,
        "hand": "right"
      },
      {
        "midi": 59,
        "time": 63.166,
        "duration": 0.152,
        "velocity": 0.64,
        "hand": "left"
      },
      {
        "midi": 62,
        "time": 63.166,
        "duration": 0.319,
        "velocity": 0.9,
        "hand": "right"
      },
      {
        "midi": 67,
        "time": 63.166,
        "duration": 0.152,
        "velocity": 0.89,
        "hand": "right"
      },
      {
        "midi": 71,
        "time": 63.166,
        "duration": 0.319,
        "velocity": 0.78,
        "hand": "right"
      },
      {
        "midi": 38,
        "time": 63.333,
        "duration": 0.083,
        "velocity": 0.91,
        "hand": "left"
      },
      {
        "midi": 51,
        "time": 63.333,
        "duration": 0.083,
        "velocity": 0.78,
        "hand": "left"
      },
      {
        "midi": 67,
        "time": 63.333,
        "duration": 0.152,
        "velocity": 1,
        "hand": "right"
      },
      {
        "midi": 74,
        "time": 63.333,
        "duration": 0.083,
        "velocity": 0.83,
        "hand": "right"
      },
      {
        "midi": 43,
        "time": 63.5,
        "duration": 0.333,
        "velocity": 0.9,
        "hand": "left"
      },
      {
        "midi": 47,
        "time": 63.5,
        "duration": 0.083,
        "velocity": 0.58,
        "hand": "left"
      },
      {
        "midi": 62,
        "time": 63.5,
        "duration": 0.318,
        "velocity": 0.7,
        "hand": "right"
      },
      {
        "midi": 67,
        "time": 63.5,
        "duration": 0.318,
        "velocity": 0.83,
        "hand": "right"
      },
      {
        "midi": 71,
        "time": 63.5,
        "duration": 0.151,
        "velocity": 0.69,
        "hand": "right"
      },
      {
        "midi": 51,
        "time": 63.666,
        "duration": 0.083,
        "velocity": 0.46,
        "hand": "left"
      },
      {
        "midi": 55,
        "time": 63.666,
        "duration": 0.152,
        "velocity": 0.65,
        "hand": "left"
      },
      {
        "midi": 66,
        "time": 63.666,
        "duration": 0.333,
        "velocity": 1,
        "hand": "right"
      },
      {
        "midi": 71,
        "time": 63.666,
        "duration": 0.167,
        "velocity": 0.79,
        "hand": "right"
      },
      {
        "midi": 55,
        "time": 63.833,
        "duration": 0.152,
        "velocity": 0.64,
        "hand": "left"
      },
      {
        "midi": 59,
        "time": 63.833,
        "duration": 0.152,
        "velocity": 0.67,
        "hand": "left"
      },
      {
        "midi": 62,
        "time": 63.833,
        "duration": 0.152,
        "velocity": 0.64,
        "hand": "right"
      },
      {
        "midi": 67,
        "time": 63.833,
        "duration": 0.152,
        "velocity": 0.55,
        "hand": "right"
      },
      {
        "midi": 43,
        "time": 64,
        "duration": 0.985,
        "velocity": 0.87,
        "hand": "left"
      },
      {
        "midi": 47,
        "time": 64,
        "duration": 0.083,
        "velocity": 0.77,
        "hand": "left"
      },
      {
        "midi": 67,
        "time": 64,
        "duration": 0.485,
        "velocity": 0.83,
        "hand": "right"
      },
      {
        "midi": 71,
        "time": 64,
        "duration": 0.318,
        "velocity": 0.71,
        "hand": "right"
      },
      {
        "midi": 74,
        "time": 64,
        "duration": 0.651,
        "velocity": 0.71,
        "hand": "right"
      },
      {
        "midi": 79,
        "time": 64,
        "duration": 2.651,
        "velocity": 0.74,
        "hand": "right"
      },
      {
        "midi": 51,
        "time": 64.333,
        "duration": 0.083,
        "velocity": 0.51,
        "hand": "left"
      },
      {
        "midi": 62,
        "time": 64.333,
        "duration": 0.167,
        "velocity": 1,
        "hand": "right"
      },
      {
        "midi": 71,
        "time": 64.333,
        "duration": 0.152,
        "velocity": 0.81,
        "hand": "right"
      },
      {
        "midi": 67,
        "time": 64.5,
        "duration": 0.318,
        "velocity": 0.79,
        "hand": "right"
      },
      {
        "midi": 71,
        "time": 64.5,
        "duration": 0.485,
        "velocity": 0.83,
        "hand": "right"
      },
      {
        "midi": 38,
        "time": 64.666,
        "duration": 0.083,
        "velocity": 0.91,
        "hand": "left"
      },
      {
        "midi": 51,
        "time": 64.666,
        "duration": 0.083,
        "velocity": 0.74,
        "hand": "left"
      },
      {
        "midi": 62,
        "time": 64.666,
        "duration": 0.152,
        "velocity": 1,
        "hand": "right"
      },
      {
        "midi": 74,
        "time": 64.666,
        "duration": 0.083,
        "velocity": 0.83,
        "hand": "right"
      },
      {
        "midi": 62,
        "time": 64.833,
        "duration": 0.152,
        "velocity": 0.64,
        "hand": "right"
      },
      {
        "midi": 67,
        "time": 64.833,
        "duration": 0.318,
        "velocity": 0.67,
        "hand": "right"
      },
      {
        "midi": 43,
        "time": 65,
        "duration": 0.083,
        "velocity": 0.85,
        "hand": "left"
      },
      {
        "midi": 47,
        "time": 65,
        "duration": 0.083,
        "velocity": 0.67,
        "hand": "left"
      },
      {
        "midi": 62,
        "time": 65,
        "duration": 0.151,
        "velocity": 1,
        "hand": "right"
      },
      {
        "midi": 71,
        "time": 65,
        "duration": 0.167,
        "velocity": 0.81,
        "hand": "right"
      },
      {
        "midi": 62,
        "time": 65.166,
        "duration": 0.152,
        "velocity": 0.58,
        "hand": "right"
      },
      {
        "midi": 67,
        "time": 65.166,
        "duration": 0.152,
        "velocity": 0.59,
        "hand": "right"
      },
      {
        "midi": 43,
        "time": 65.333,
        "duration": 1.167,
        "velocity": 0.86,
        "hand": "left"
      },
      {
        "midi": 47,
        "time": 65.333,
        "duration": 0.083,
        "velocity": 0.83,
        "hand": "left"
      },
      {
        "midi": 62,
        "time": 65.333,
        "duration": 0.485,
        "velocity": 0.74,
        "hand": "right"
      },
      {
        "midi": 67,
        "time": 65.333,
        "duration": 0.318,
        "velocity": 1,
        "hand": "right"
      },
      {
        "midi": 71,
        "time": 65.333,
        "duration": 0.318,
        "velocity": 0.53,
        "hand": "right"
      },
      {
        "midi": 51,
        "time": 65.666,
        "duration": 0.083,
        "velocity": 0.43,
        "hand": "left"
      },
      {
        "midi": 67,
        "time": 65.666,
        "duration": 0.083,
        "velocity": 1,
        "hand": "right"
      },
      {
        "midi": 71,
        "time": 65.666,
        "duration": 0.152,
        "velocity": 0.83,
        "hand": "right"
      },
      {
        "midi": 59,
        "time": 65.833,
        "duration": 0.152,
        "velocity": 0.61,
        "hand": "left"
      },
      {
        "midi": 62,
        "time": 65.833,
        "duration": 0.318,
        "velocity": 0.84,
        "hand": "right"
      },
      {
        "midi": 67,
        "time": 65.833,
        "duration": 0.318,
        "velocity": 1,
        "hand": "right"
      },
      {
        "midi": 71,
        "time": 65.833,
        "duration": 0.318,
        "velocity": 0.79,
        "hand": "right"
      },
      {
        "midi": 38,
        "time": 66,
        "duration": 0.083,
        "velocity": 0.91,
        "hand": "left"
      },
      {
        "midi": 51,
        "time": 66,
        "duration": 0.083,
        "velocity": 0.72,
        "hand": "left"
      },
      {
        "midi": 74,
        "time": 66,
        "duration": 0.083,
        "velocity": 0.86,
        "hand": "right"
      },
      {
        "midi": 59,
        "time": 66.166,
        "duration": 0.152,
        "velocity": 0.59,
        "hand": "left"
      },
      {
        "midi": 62,
        "time": 66.166,
        "duration": 0.152,
        "velocity": 0.63,
        "hand": "right"
      },
      {
        "midi": 67,
        "time": 66.166,
        "duration": 0.319,
        "velocity": 0.73,
        "hand": "right"
      },
      {
        "midi": 69,
        "time": 66.166,
        "duration": 0.083,
        "velocity": 1,
        "hand": "right"
      },
      {
        "midi": 71,
        "time": 66.166,
        "duration": 0.152,
        "velocity": 0.58,
        "hand": "right"
      },
      {
        "midi": 51,
        "time": 66.333,
        "duration": 0.083,
        "velocity": 0.54,
        "hand": "left"
      },
      {
        "midi": 55,
        "time": 66.333,
        "duration": 0.318,
        "velocity": 0.69,
        "hand": "left"
      },
      {
        "midi": 62,
        "time": 66.333,
        "duration": 0.152,
        "velocity": 0.67,
        "hand": "right"
      },
      {
        "midi": 71,
        "time": 66.333,
        "duration": 0.167,
        "velocity": 0.83,
        "hand": "right"
      },
      {
        "midi": 62,
        "time": 66.5,
        "duration": 0.151,
        "velocity": 0.64,
        "hand": "right"
      },
      {
        "midi": 67,
        "time": 66.5,
        "duration": 0.151,
        "velocity": 1,
        "hand": "right"
      },
      {
        "midi": 43,
        "time": 66.666,
        "duration": 0.985,
        "velocity": 0.9,
        "hand": "left"
      },
      {
        "midi": 47,
        "time": 66.666,
        "duration": 0.083,
        "velocity": 0.82,
        "hand": "left"
      },
      {
        "midi": 67,
        "time": 66.666,
        "duration": 0.485,
        "velocity": 0.86,
        "hand": "right"
      },
      {
        "midi": 71,
        "time": 66.666,
        "duration": 0.319,
        "velocity": 0.72,
        "hand": "right"
      },
      {
        "midi": 74,
        "time": 66.666,
        "duration": 0.652,
        "velocity": 0.76,
        "hand": "right"
      },
      {
        "midi": 79,
        "time": 66.666,
        "duration": 1.5,
        "velocity": 0.79,
        "hand": "right"
      },
      {
        "midi": 51,
        "time": 67,
        "duration": 0.083,
        "velocity": 0.44,
        "hand": "left"
      },
      {
        "midi": 71,
        "time": 67,
        "duration": 0.151,
        "velocity": 0.81,
        "hand": "right"
      },
      {
        "midi": 59,
        "time": 67.166,
        "duration": 0.319,
        "velocity": 0.61,
        "hand": "left"
      },
      {
        "midi": 62,
        "time": 67.166,
        "duration": 0.319,
        "velocity": 0.84,
        "hand": "right"
      },
      {
        "midi": 67,
        "time": 67.166,
        "duration": 0.652,
        "velocity": 0.87,
        "hand": "right"
      },
      {
        "midi": 71,
        "time": 67.166,
        "duration": 0.485,
        "velocity": 0.82,
        "hand": "right"
      },
      {
        "midi": 38,
        "time": 67.333,
        "duration": 0.083,
        "velocity": 0.91,
        "hand": "left"
      },
      {
        "midi": 51,
        "time": 67.333,
        "duration": 0.083,
        "velocity": 0.74,
        "hand": "left"
      },
      {
        "midi": 69,
        "time": 67.333,
        "duration": 0.167,
        "velocity": 1,
        "hand": "right"
      },
      {
        "midi": 74,
        "time": 67.333,
        "duration": 0.167,
        "velocity": 0.86,
        "hand": "right"
      },
      {
        "midi": 59,
        "time": 67.5,
        "duration": 0.151,
        "velocity": 0.61,
        "hand": "left"
      },
      {
        "midi": 62,
        "time": 67.5,
        "duration": 0.151,
        "velocity": 0.68,
        "hand": "right"
      },
      {
        "midi": 43,
        "time": 67.666,
        "duration": 0.083,
        "velocity": 0.86,
        "hand": "left"
      },
      {
        "midi": 47,
        "time": 67.666,
        "duration": 0.083,
        "velocity": 0.72,
        "hand": "left"
      },
      {
        "midi": 62,
        "time": 67.666,
        "duration": 0.152,
        "velocity": 0.65,
        "hand": "right"
      },
      {
        "midi": 71,
        "time": 67.666,
        "duration": 0.152,
        "velocity": 1,
        "hand": "right"
      },
      {
        "midi": 62,
        "time": 67.833,
        "duration": 0.152,
        "velocity": 0.65,
        "hand": "right"
      },
      {
        "midi": 67,
        "time": 67.833,
        "duration": 0.167,
        "velocity": 0.66,
        "hand": "right"
      },
      {
        "midi": 71,
        "time": 67.833,
        "duration": 0.167,
        "velocity": 0.48,
        "hand": "right"
      },
      {
        "midi": 38,
        "time": 68,
        "duration": 0.651,
        "velocity": 0.83,
        "hand": "left"
      },
      {
        "midi": 47,
        "time": 68,
        "duration": 0.083,
        "velocity": 0.73,
        "hand": "left"
      },
      {
        "midi": 66,
        "time": 68,
        "duration": 0.318,
        "velocity": 0.71,
        "hand": "right"
      },
      {
        "midi": 69,
        "time": 68,
        "duration": 1.318,
        "velocity": 0.71,
        "hand": "right"
      },
      {
        "midi": 72,
        "time": 68,
        "duration": 0.651,
        "velocity": 0.71,
        "hand": "right"
      },
      {
        "midi": 78,
        "time": 68,
        "duration": 1.333,
        "velocity": 0.63,
        "hand": "right"
      },
      {
        "midi": 51,
        "time": 68.333,
        "duration": 0.083,
        "velocity": 0.52,
        "hand": "left"
      },
      {
        "midi": 66,
        "time": 68.333,
        "duration": 0.152,
        "velocity": 0.72,
        "hand": "right"
      },
      {
        "midi": 60,
        "time": 68.5,
        "duration": 0.318,
        "velocity": 0.83,
        "hand": "right"
      },
      {
        "midi": 62,
        "time": 68.5,
        "duration": 0.318,
        "velocity": 0.87,
        "hand": "right"
      },
      {
        "midi": 66,
        "time": 68.5,
        "duration": 0.318,
        "velocity": 0.76,
        "hand": "right"
      },
      {
        "midi": 38,
        "time": 68.666,
        "duration": 0.083,
        "velocity": 0.91,
        "hand": "left"
      },
      {
        "midi": 51,
        "time": 68.666,
        "duration": 0.083,
        "velocity": 0.71,
        "hand": "left"
      },
      {
        "midi": 72,
        "time": 68.666,
        "duration": 0.333,
        "velocity": 0.85,
        "hand": "right"
      },
      {
        "midi": 60,
        "time": 68.833,
        "duration": 0.485,
        "velocity": 0.71,
        "hand": "right"
      },
      {
        "midi": 62,
        "time": 68.833,
        "duration": 0.485,
        "velocity": 0.8,
        "hand": "right"
      },
      {
        "midi": 66,
        "time": 68.833,
        "duration": 0.152,
        "velocity": 0.59,
        "hand": "right"
      },
      {
        "midi": 51,
        "time": 69,
        "duration": 0.083,
        "velocity": 0.38,
        "hand": "left"
      },
      {
        "midi": 66,
        "time": 69,
        "duration": 0.318,
        "velocity": 0.76,
        "hand": "right"
      },
      {
        "midi": 38,
        "time": 69.166,
        "duration": 0.083,
        "velocity": 0.86,
        "hand": "left"
      },
      {
        "midi": 47,
        "time": 69.166,
        "duration": 0.083,
        "velocity": 0.39,
        "hand": "left"
      },
      {
        "midi": 38,
        "time": 69.333,
        "duration": 0.652,
        "velocity": 0.91,
        "hand": "left"
      },
      {
        "midi": 47,
        "time": 69.333,
        "duration": 0.083,
        "velocity": 0.86,
        "hand": "left"
      },
      {
        "midi": 66,
        "time": 69.333,
        "duration": 0.318,
        "velocity": 0.71,
        "hand": "right"
      },
      {
        "midi": 69,
        "time": 69.333,
        "duration": 0.318,
        "velocity": 0.71,
        "hand": "right"
      },
      {
        "midi": 72,
        "time": 69.333,
        "duration": 0.652,
        "velocity": 0.82,
        "hand": "right"
      },
      {
        "midi": 74,
        "time": 69.333,
        "duration": 1.318,
        "velocity": 0.63,
        "hand": "right"
      },
      {
        "midi": 51,
        "time": 69.666,
        "duration": 0.083,
        "velocity": 0.46,
        "hand": "left"
      },
      {
        "midi": 66,
        "time": 69.666,
        "duration": 0.152,
        "velocity": 0.74,
        "hand": "right"
      },
      {
        "midi": 69,
        "time": 69.666,
        "duration": 0.167,
        "velocity": 1,
        "hand": "right"
      },
      {
        "midi": 62,
        "time": 69.833,
        "duration": 0.318,
        "velocity": 0.73,
        "hand": "right"
      },
      {
        "midi": 66,
        "time": 69.833,
        "duration": 0.485,
        "velocity": 0.72,
        "hand": "right"
      },
      {
        "midi": 38,
        "time": 70,
        "duration": 0.083,
        "velocity": 0.91,
        "hand": "left"
      },
      {
        "midi": 51,
        "time": 70,
        "duration": 0.083,
        "velocity": 0.82,
        "hand": "left"
      },
      {
        "midi": 64,
        "time": 70,
        "duration": 0.167,
        "velocity": 1,
        "hand": "right"
      },
      {
        "midi": 72,
        "time": 70,
        "duration": 0.667,
        "velocity": 0.85,
        "hand": "right"
      },
      {
        "midi": 60,
        "time": 70.166,
        "duration": 0.319,
        "velocity": 0.59,
        "hand": "right"
      },
      {
        "midi": 62,
        "time": 70.166,
        "duration": 0.333,
        "velocity": 0.81,
        "hand": "right"
      },
      {
        "midi": 38,
        "time": 70.333,
        "duration": 0.083,
        "velocity": 0.89,
        "hand": "left"
      },
      {
        "midi": 47,
        "time": 70.333,
        "duration": 0.083,
        "velocity": 0.59,
        "hand": "left"
      },
      {
        "midi": 66,
        "time": 70.333,
        "duration": 0.318,
        "velocity": 1,
        "hand": "right"
      },
      {
        "midi": 60,
        "time": 70.5,
        "duration": 0.151,
        "velocity": 0.58,
        "hand": "right"
      },
      {
        "midi": 38,
        "time": 70.666,
        "duration": 0.083,
        "velocity": 0.83,
        "hand": "left"
      },
      {
        "midi": 43,
        "time": 70.666,
        "duration": 1.319,
        "velocity": 0.83,
        "hand": "left"
      },
      {
        "midi": 71,
        "time": 70.666,
        "duration": 0.319,
        "velocity": 0.71,
        "hand": "right"
      },
      {
        "midi": 74,
        "time": 70.666,
        "duration": 0.652,
        "velocity": 0.71,
        "hand": "right"
      },
      {
        "midi": 79,
        "time": 70.666,
        "duration": 2.167,
        "velocity": 0.72,
        "hand": "right"
      },
      {
        "midi": 83,
        "time": 70.666,
        "duration": 3.833,
        "velocity": 0.63,
        "hand": "right"
      },
      {
        "midi": 51,
        "time": 71,
        "duration": 0.083,
        "velocity": 0.5,
        "hand": "left"
      },
      {
        "midi": 71,
        "time": 71,
        "duration": 0.151,
        "velocity": 0.74,
        "hand": "right"
      },
      {
        "midi": 62,
        "time": 71.166,
        "duration": 0.152,
        "velocity": 0.65,
        "hand": "right"
      },
      {
        "midi": 67,
        "time": 71.166,
        "duration": 0.652,
        "velocity": 0.91,
        "hand": "right"
      },
      {
        "midi": 71,
        "time": 71.166,
        "duration": 0.319,
        "velocity": 0.73,
        "hand": "right"
      },
      {
        "midi": 38,
        "time": 71.333,
        "duration": 0.083,
        "velocity": 0.91,
        "hand": "left"
      },
      {
        "midi": 51,
        "time": 71.333,
        "duration": 0.083,
        "velocity": 0.74,
        "hand": "left"
      },
      {
        "midi": 62,
        "time": 71.333,
        "duration": 0.152,
        "velocity": 1,
        "hand": "right"
      },
      {
        "midi": 74,
        "time": 71.333,
        "duration": 0.167,
        "velocity": 0.76,
        "hand": "right"
      },
      {
        "midi": 59,
        "time": 71.5,
        "duration": 0.167,
        "velocity": 0.66,
        "hand": "left"
      },
      {
        "midi": 62,
        "time": 71.5,
        "duration": 0.151,
        "velocity": 0.68,
        "hand": "right"
      },
      {
        "midi": 71,
        "time": 71.5,
        "duration": 0.151,
        "velocity": 0.56,
        "hand": "right"
      },
      {
        "midi": 51,
        "time": 71.666,
        "duration": 0.083,
        "velocity": 0.46,
        "hand": "left"
      },
      {
        "midi": 55,
        "time": 71.666,
        "duration": 0.319,
        "velocity": 0.63,
        "hand": "left"
      },
      {
        "midi": 62,
        "time": 71.666,
        "duration": 0.152,
        "velocity": 1,
        "hand": "right"
      },
      {
        "midi": 71,
        "time": 71.666,
        "duration": 0.152,
        "velocity": 0.79,
        "hand": "right"
      },
      {
        "midi": 59,
        "time": 71.833,
        "duration": 0.152,
        "velocity": 0.54,
        "hand": "left"
      },
      {
        "midi": 62,
        "time": 71.833,
        "duration": 0.152,
        "velocity": 0.61,
        "hand": "right"
      },
      {
        "midi": 67,
        "time": 71.833,
        "duration": 0.152,
        "velocity": 0.72,
        "hand": "right"
      },
      {
        "midi": 71,
        "time": 71.833,
        "duration": 0.152,
        "velocity": 0.61,
        "hand": "right"
      },
      {
        "midi": 43,
        "time": 72,
        "duration": 0.667,
        "velocity": 0.91,
        "hand": "left"
      },
      {
        "midi": 47,
        "time": 72,
        "duration": 0.083,
        "velocity": 0.8,
        "hand": "left"
      },
      {
        "midi": 62,
        "time": 72,
        "duration": 0.485,
        "velocity": 0.87,
        "hand": "right"
      },
      {
        "midi": 67,
        "time": 72,
        "duration": 0.318,
        "velocity": 1,
        "hand": "right"
      },
      {
        "midi": 71,
        "time": 72,
        "duration": 0.318,
        "velocity": 0.73,
        "hand": "right"
      },
      {
        "midi": 51,
        "time": 72.333,
        "duration": 0.083,
        "velocity": 0.4,
        "hand": "left"
      },
      {
        "midi": 67,
        "time": 72.333,
        "duration": 0.152,
        "velocity": 1,
        "hand": "right"
      },
      {
        "midi": 71,
        "time": 72.333,
        "duration": 0.152,
        "velocity": 0.89,
        "hand": "right"
      },
      {
        "midi": 59,
        "time": 72.5,
        "duration": 0.485,
        "velocity": 0.54,
        "hand": "left"
      },
      {
        "midi": 62,
        "time": 72.5,
        "duration": 0.151,
        "velocity": 0.71,
        "hand": "right"
      },
      {
        "midi": 67,
        "time": 72.5,
        "duration": 0.151,
        "velocity": 0.9,
        "hand": "right"
      },
      {
        "midi": 71,
        "time": 72.5,
        "duration": 0.318,
        "velocity": 0.66,
        "hand": "right"
      },
      {
        "midi": 38,
        "time": 72.666,
        "duration": 0.083,
        "velocity": 0.91,
        "hand": "left"
      },
      {
        "midi": 51,
        "time": 72.666,
        "duration": 0.083,
        "velocity": 0.8,
        "hand": "left"
      },
      {
        "midi": 62,
        "time": 72.666,
        "duration": 0.319,
        "velocity": 0.7,
        "hand": "right"
      },
      {
        "midi": 67,
        "time": 72.666,
        "duration": 0.167,
        "velocity": 1,
        "hand": "right"
      },
      {
        "midi": 74,
        "time": 72.666,
        "duration": 0.167,
        "velocity": 0.86,
        "hand": "right"
      },
      {
        "midi": 71,
        "time": 72.833,
        "duration": 0.152,
        "velocity": 0.53,
        "hand": "right"
      },
      {
        "midi": 43,
        "time": 73,
        "duration": 0.083,
        "velocity": 0.87,
        "hand": "left"
      },
      {
        "midi": 47,
        "time": 73,
        "duration": 0.083,
        "velocity": 0.78,
        "hand": "left"
      },
      {
        "midi": 62,
        "time": 73,
        "duration": 0.151,
        "velocity": 0.64,
        "hand": "right"
      },
      {
        "midi": 69,
        "time": 73,
        "duration": 0.167,
        "velocity": 1,
        "hand": "right"
      },
      {
        "midi": 71,
        "time": 73,
        "duration": 0.151,
        "velocity": 0.83,
        "hand": "right"
      },
      {
        "midi": 59,
        "time": 73.166,
        "duration": 0.152,
        "velocity": 0.63,
        "hand": "left"
      },
      {
        "midi": 62,
        "time": 73.166,
        "duration": 0.152,
        "velocity": 0.73,
        "hand": "right"
      },
      {
        "midi": 67,
        "time": 73.166,
        "duration": 0.152,
        "velocity": 0.7,
        "hand": "right"
      },
      {
        "midi": 71,
        "time": 73.166,
        "duration": 0.152,
        "velocity": 0.56,
        "hand": "right"
      },
      {
        "midi": 43,
        "time": 73.333,
        "duration": 0.818,
        "velocity": 0.85,
        "hand": "left"
      },
      {
        "midi": 47,
        "time": 73.333,
        "duration": 0.083,
        "velocity": 0.74,
        "hand": "left"
      },
      {
        "midi": 67,
        "time": 73.333,
        "duration": 0.485,
        "velocity": 1,
        "hand": "right"
      },
      {
        "midi": 71,
        "time": 73.333,
        "duration": 0.318,
        "velocity": 0.71,
        "hand": "right"
      },
      {
        "midi": 74,
        "time": 73.333,
        "duration": 0.652,
        "velocity": 0.61,
        "hand": "right"
      },
      {
        "midi": 79,
        "time": 73.333,
        "duration": 1.318,
        "velocity": 0.74,
        "hand": "right"
      },
      {
        "midi": 51,
        "time": 73.666,
        "duration": 0.083,
        "velocity": 0.54,
        "hand": "left"
      },
      {
        "midi": 71,
        "time": 73.666,
        "duration": 0.152,
        "velocity": 0.81,
        "hand": "right"
      },
      {
        "midi": 59,
        "time": 73.833,
        "duration": 0.152,
        "velocity": 0.64,
        "hand": "left"
      },
      {
        "midi": 62,
        "time": 73.833,
        "duration": 0.318,
        "velocity": 0.9,
        "hand": "right"
      },
      {
        "midi": 67,
        "time": 73.833,
        "duration": 0.318,
        "velocity": 0.89,
        "hand": "right"
      },
      {
        "midi": 71,
        "time": 73.833,
        "duration": 0.318,
        "velocity": 0.78,
        "hand": "right"
      },
      {
        "midi": 38,
        "time": 74,
        "duration": 0.083,
        "velocity": 0.91,
        "hand": "left"
      },
      {
        "midi": 51,
        "time": 74,
        "duration": 0.083,
        "velocity": 0.78,
        "hand": "left"
      },
      {
        "midi": 69,
        "time": 74,
        "duration": 0.167,
        "velocity": 1,
        "hand": "right"
      },
      {
        "midi": 74,
        "time": 74,
        "duration": 0.167,
        "velocity": 0.89,
        "hand": "right"
      },
      {
        "midi": 43,
        "time": 74.166,
        "duration": 0.333,
        "velocity": 0.9,
        "hand": "left"
      },
      {
        "midi": 47,
        "time": 74.166,
        "duration": 0.083,
        "velocity": 0.58,
        "hand": "left"
      },
      {
        "midi": 62,
        "time": 74.166,
        "duration": 0.319,
        "velocity": 0.7,
        "hand": "right"
      },
      {
        "midi": 67,
        "time": 74.166,
        "duration": 0.319,
        "velocity": 0.83,
        "hand": "right"
      },
      {
        "midi": 71,
        "time": 74.166,
        "duration": 0.152,
        "velocity": 0.69,
        "hand": "right"
      },
      {
        "midi": 51,
        "time": 74.333,
        "duration": 0.083,
        "velocity": 0.46,
        "hand": "left"
      },
      {
        "midi": 55,
        "time": 74.333,
        "duration": 0.152,
        "velocity": 0.65,
        "hand": "left"
      },
      {
        "midi": 71,
        "time": 74.333,
        "duration": 0.318,
        "velocity": 1,
        "hand": "right"
      },
      {
        "midi": 55,
        "time": 74.5,
        "duration": 0.151,
        "velocity": 0.64,
        "hand": "left"
      },
      {
        "midi": 59,
        "time": 74.5,
        "duration": 0.151,
        "velocity": 0.67,
        "hand": "left"
      },
      {
        "midi": 62,
        "time": 74.5,
        "duration": 0.151,
        "velocity": 0.64,
        "hand": "right"
      },
      {
        "midi": 67,
        "time": 74.5,
        "duration": 0.151,
        "velocity": 0.55,
        "hand": "right"
      },
      {
        "midi": 43,
        "time": 74.666,
        "duration": 0.667,
        "velocity": 0.87,
        "hand": "left"
      },
      {
        "midi": 47,
        "time": 74.666,
        "duration": 0.083,
        "velocity": 0.77,
        "hand": "left"
      },
      {
        "midi": 67,
        "time": 74.666,
        "duration": 0.485,
        "velocity": 0.83,
        "hand": "right"
      },
      {
        "midi": 71,
        "time": 74.666,
        "duration": 0.319,
        "velocity": 0.71,
        "hand": "right"
      },
      {
        "midi": 74,
        "time": 74.666,
        "duration": 0.652,
        "velocity": 0.71,
        "hand": "right"
      },
      {
        "midi": 79,
        "time": 74.666,
        "duration": 1.319,
        "velocity": 0.71,
        "hand": "right"
      },
      {
        "midi": 51,
        "time": 75,
        "duration": 0.083,
        "velocity": 0.51,
        "hand": "left"
      },
      {
        "midi": 69,
        "time": 75,
        "duration": 0.333,
        "velocity": 1,
        "hand": "right"
      },
      {
        "midi": 71,
        "time": 75,
        "duration": 0.151,
        "velocity": 0.76,
        "hand": "right"
      },
      {
        "midi": 67,
        "time": 75.166,
        "duration": 0.152,
        "velocity": 0.79,
        "hand": "right"
      },
      {
        "midi": 71,
        "time": 75.166,
        "duration": 0.485,
        "velocity": 0.83,
        "hand": "right"
      },
      {
        "midi": 38,
        "time": 75.333,
        "duration": 0.083,
        "velocity": 0.91,
        "hand": "left"
      },
      {
        "midi": 51,
        "time": 75.333,
        "duration": 0.083,
        "velocity": 0.74,
        "hand": "left"
      },
      {
        "midi": 67,
        "time": 75.333,
        "duration": 0.152,
        "velocity": 1,
        "hand": "right"
      },
      {
        "midi": 74,
        "time": 75.333,
        "duration": 0.167,
        "velocity": 0.81,
        "hand": "right"
      },
      {
        "midi": 62,
        "time": 75.5,
        "duration": 0.151,
        "velocity": 0.64,
        "hand": "right"
      },
      {
        "midi": 67,
        "time": 75.5,
        "duration": 0.318,
        "velocity": 0.67,
        "hand": "right"
      },
      {
        "midi": 43,
        "time": 75.666,
        "duration": 0.083,
        "velocity": 0.85,
        "hand": "left"
      },
      {
        "midi": 47,
        "time": 75.666,
        "duration": 0.083,
        "velocity": 0.67,
        "hand": "left"
      },
      {
        "midi": 62,
        "time": 75.666,
        "duration": 0.152,
        "velocity": 0.54,
        "hand": "right"
      },
      {
        "midi": 66,
        "time": 75.666,
        "duration": 0.333,
        "velocity": 1,
        "hand": "right"
      },
      {
        "midi": 71,
        "time": 75.666,
        "duration": 0.319,
        "velocity": 0.79,
        "hand": "right"
      },
      {
        "midi": 62,
        "time": 75.833,
        "duration": 0.152,
        "velocity": 0.58,
        "hand": "right"
      },
      {
        "midi": 67,
        "time": 75.833,
        "duration": 0.152,
        "velocity": 0.59,
        "hand": "right"
      },
      {
        "midi": 43,
        "time": 76,
        "duration": 1.318,
        "velocity": 0.86,
        "hand": "left"
      },
      {
        "midi": 47,
        "time": 76,
        "duration": 0.083,
        "velocity": 0.83,
        "hand": "left"
      },
      {
        "midi": 67,
        "time": 76,
        "duration": 0.485,
        "velocity": 0.71,
        "hand": "right"
      },
      {
        "midi": 71,
        "time": 76,
        "duration": 0.318,
        "velocity": 0.65,
        "hand": "right"
      },
      {
        "midi": 74,
        "time": 76,
        "duration": 0.651,
        "velocity": 0.54,
        "hand": "right"
      },
      {
        "midi": 79,
        "time": 76,
        "duration": 2.333,
        "velocity": 0.74,
        "hand": "right"
      },
      {
        "midi": 51,
        "time": 76.333,
        "duration": 0.083,
        "velocity": 0.43,
        "hand": "left"
      },
      {
        "midi": 62,
        "time": 76.333,
        "duration": 0.152,
        "velocity": 1,
        "hand": "right"
      },
      {
        "midi": 71,
        "time": 76.333,
        "duration": 0.152,
        "velocity": 0.79,
        "hand": "right"
      },
      {
        "midi": 59,
        "time": 76.5,
        "duration": 0.151,
        "velocity": 0.61,
        "hand": "left"
      },
      {
        "midi": 62,
        "time": 76.5,
        "duration": 0.151,
        "velocity": 0.84,
        "hand": "right"
      },
      {
        "midi": 67,
        "time": 76.5,
        "duration": 0.318,
        "velocity": 0.87,
        "hand": "right"
      },
      {
        "midi": 71,
        "time": 76.5,
        "duration": 0.318,
        "velocity": 0.79,
        "hand": "right"
      },
      {
        "midi": 38,
        "time": 76.666,
        "duration": 0.083,
        "velocity": 0.91,
        "hand": "left"
      },
      {
        "midi": 51,
        "time": 76.666,
        "duration": 0.083,
        "velocity": 0.72,
        "hand": "left"
      },
      {
        "midi": 62,
        "time": 76.666,
        "duration": 0.152,
        "velocity": 1,
        "hand": "right"
      },
      {
        "midi": 74,
        "time": 76.666,
        "duration": 0.167,
        "velocity": 0.86,
        "hand": "right"
      },
      {
        "midi": 59,
        "time": 76.833,
        "duration": 0.152,
        "velocity": 0.59,
        "hand": "left"
      },
      {
        "midi": 62,
        "time": 76.833,
        "duration": 0.152,
        "velocity": 0.63,
        "hand": "right"
      },
      {
        "midi": 67,
        "time": 76.833,
        "duration": 0.318,
        "velocity": 0.73,
        "hand": "right"
      },
      {
        "midi": 71,
        "time": 76.833,
        "duration": 0.152,
        "velocity": 0.58,
        "hand": "right"
      },
      {
        "midi": 51,
        "time": 77,
        "duration": 0.083,
        "velocity": 0.54,
        "hand": "left"
      },
      {
        "midi": 55,
        "time": 77,
        "duration": 0.318,
        "velocity": 0.69,
        "hand": "left"
      },
      {
        "midi": 62,
        "time": 77,
        "duration": 0.151,
        "velocity": 1,
        "hand": "right"
      },
      {
        "midi": 71,
        "time": 77,
        "duration": 0.167,
        "velocity": 0.83,
        "hand": "right"
      },
      {
        "midi": 62,
        "time": 77.166,
        "duration": 0.152,
        "velocity": 0.64,
        "hand": "right"
      },
      {
        "midi": 67,
        "time": 77.166,
        "duration": 0.152,
        "velocity": 0.56,
        "hand": "right"
      },
      {
        "midi": 43,
        "time": 77.333,
        "duration": 0.667,
        "velocity": 0.9,
        "hand": "left"
      },
      {
        "midi": 47,
        "time": 77.333,
        "duration": 0.083,
        "velocity": 0.82,
        "hand": "left"
      },
      {
        "midi": 62,
        "time": 77.333,
        "duration": 0.485,
        "velocity": 0.87,
        "hand": "right"
      },
      {
        "midi": 67,
        "time": 77.333,
        "duration": 0.318,
        "velocity": 1,
        "hand": "right"
      },
      {
        "midi": 71,
        "time": 77.333,
        "duration": 0.318,
        "velocity": 0.72,
        "hand": "right"
      },
      {
        "midi": 51,
        "time": 77.666,
        "duration": 0.083,
        "velocity": 0.44,
        "hand": "left"
      },
      {
        "midi": 67,
        "time": 77.666,
        "duration": 0.152,
        "velocity": 1,
        "hand": "right"
      },
      {
        "midi": 71,
        "time": 77.666,
        "duration": 0.152,
        "velocity": 0.81,
        "hand": "right"
      },
      {
        "midi": 59,
        "time": 77.833,
        "duration": 0.318,
        "velocity": 0.61,
        "hand": "left"
      },
      {
        "midi": 62,
        "time": 77.833,
        "duration": 0.318,
        "velocity": 0.84,
        "hand": "right"
      },
      {
        "midi": 67,
        "time": 77.833,
        "duration": 0.152,
        "velocity": 0.87,
        "hand": "right"
      },
      {
        "midi": 71,
        "time": 77.833,
        "duration": 0.485,
        "velocity": 0.82,
        "hand": "right"
      },
      {
        "midi": 38,
        "time": 78,
        "duration": 0.083,
        "velocity": 0.91,
        "hand": "left"
      },
      {
        "midi": 51,
        "time": 78,
        "duration": 0.083,
        "velocity": 0.74,
        "hand": "left"
      },
      {
        "midi": 67,
        "time": 78,
        "duration": 0.167,
        "velocity": 1,
        "hand": "right"
      },
      {
        "midi": 74,
        "time": 78,
        "duration": 0.083,
        "velocity": 0.76,
        "hand": "right"
      },
      {
        "midi": 59,
        "time": 78.166,
        "duration": 0.152,
        "velocity": 0.61,
        "hand": "left"
      },
      {
        "midi": 62,
        "time": 78.166,
        "duration": 0.152,
        "velocity": 0.68,
        "hand": "right"
      },
      {
        "midi": 43,
        "time": 78.333,
        "duration": 0.083,
        "velocity": 0.86,
        "hand": "left"
      },
      {
        "midi": 47,
        "time": 78.333,
        "duration": 0.083,
        "velocity": 0.72,
        "hand": "left"
      },
      {
        "midi": 62,
        "time": 78.333,
        "duration": 0.152,
        "velocity": 0.65,
        "hand": "right"
      },
      {
        "midi": 69,
        "time": 78.333,
        "duration": 0.167,
        "velocity": 1,
        "hand": "right"
      },
      {
        "midi": 71,
        "time": 78.333,
        "duration": 0.152,
        "velocity": 0.76,
        "hand": "right"
      },
      {
        "midi": 62,
        "time": 78.5,
        "duration": 0.151,
        "velocity": 0.65,
        "hand": "right"
      },
      {
        "midi": 67,
        "time": 78.5,
        "duration": 0.151,
        "velocity": 0.66,
        "hand": "right"
      },
      {
        "midi": 71,
        "time": 78.5,
        "duration": 0.151,
        "velocity": 0.48,
        "hand": "right"
      },
      {
        "midi": 43,
        "time": 78.666,
        "duration": 2,
        "velocity": 0.83,
        "hand": "left"
      },
      {
        "midi": 47,
        "time": 78.666,
        "duration": 0.083,
        "velocity": 0.73,
        "hand": "left"
      },
      {
        "midi": 67,
        "time": 78.666,
        "duration": 0.485,
        "velocity": 1,
        "hand": "right"
      },
      {
        "midi": 71,
        "time": 78.666,
        "duration": 0.319,
        "velocity": 0.71,
        "hand": "right"
      },
      {
        "midi": 74,
        "time": 78.666,
        "duration": 0.652,
        "velocity": 0.69,
        "hand": "right"
      },
      {
        "midi": 79,
        "time": 78.666,
        "duration": 1.833,
        "velocity": 0.74,
        "hand": "right"
      },
      {
        "midi": 51,
        "time": 79,
        "duration": 0.083,
        "velocity": 0.52,
        "hand": "left"
      },
      {
        "midi": 71,
        "time": 79,
        "duration": 0.151,
        "velocity": 0.83,
        "hand": "right"
      },
      {
        "midi": 62,
        "time": 79.166,
        "duration": 0.319,
        "velocity": 0.83,
        "hand": "right"
      },
      {
        "midi": 67,
        "time": 79.166,
        "duration": 0.319,
        "velocity": 0.87,
        "hand": "right"
      },
      {
        "midi": 71,
        "time": 79.166,
        "duration": 0.319,
        "velocity": 0.76,
        "hand": "right"
      },
      {
        "midi": 38,
        "time": 79.333,
        "duration": 0.083,
        "velocity": 0.91,
        "hand": "left"
      },
      {
        "midi": 51,
        "time": 79.333,
        "duration": 0.083,
        "velocity": 0.71,
        "hand": "left"
      },
      {
        "midi": 69,
        "time": 79.333,
        "duration": 0.167,
        "velocity": 1,
        "hand": "right"
      },
      {
        "midi": 74,
        "time": 79.333,
        "duration": 0.167,
        "velocity": 0.92,
        "hand": "right"
      },
      {
        "midi": 62,
        "time": 79.5,
        "duration": 0.318,
        "velocity": 0.71,
        "hand": "right"
      },
      {
        "midi": 67,
        "time": 79.5,
        "duration": 0.333,
        "velocity": 0.8,
        "hand": "right"
      },
      {
        "midi": 71,
        "time": 79.5,
        "duration": 0.151,
        "velocity": 0.59,
        "hand": "right"
      },
      {
        "midi": 51,
        "time": 79.666,
        "duration": 0.083,
        "velocity": 0.38,
        "hand": "left"
      },
      {
        "midi": 55,
        "time": 79.666,
        "duration": 0.167,
        "velocity": 0.68,
        "hand": "left"
      },
      {
        "midi": 71,
        "time": 79.666,
        "duration": 2,
        "velocity": 1,
        "hand": "right"
      },
      {
        "midi": 38,
        "time": 79.833,
        "duration": 0.083,
        "velocity": 0.86,
        "hand": "left"
      },
      {
        "midi": 42,
        "time": 79.833,
        "duration": 0.083,
        "velocity": 0.86,
        "hand": "left"
      },
      {
        "midi": 70,
        "time": 79.833,
        "duration": 0.167,
        "velocity": 0.71,
        "hand": "right"
      },
      {
        "midi": 73,
        "time": 79.833,
        "duration": 0.167,
        "velocity": 0.71,
        "hand": "right"
      },
      {
        "midi": 78,
        "time": 79.833,
        "duration": 0.167,
        "velocity": 0.71,
        "hand": "right"
      },
      {
        "midi": 38,
        "time": 80,
        "duration": 0.651,
        "velocity": 0.91,
        "hand": "left"
      },
      {
        "midi": 47,
        "time": 80,
        "duration": 0.083,
        "velocity": 0.86,
        "hand": "left"
      },
      {
        "midi": 62,
        "time": 80,
        "duration": 0.485,
        "velocity": 0.85,
        "hand": "right"
      },
      {
        "midi": 66,
        "time": 80,
        "duration": 0.318,
        "velocity": 0.71,
        "hand": "right"
      },
      {
        "midi": 69,
        "time": 80,
        "duration": 1.318,
        "velocity": 0.71,
        "hand": "right"
      },
      {
        "midi": 74,
        "time": 80,
        "duration": 2.651,
        "velocity": 0.63,
        "hand": "right"
      },
      {
        "midi": 51,
        "time": 80.333,
        "duration": 0.083,
        "velocity": 0.46,
        "hand": "left"
      },
      {
        "midi": 66,
        "time": 80.333,
        "duration": 0.152,
        "velocity": 0.72,
        "hand": "right"
      },
      {
        "midi": 62,
        "time": 80.5,
        "duration": 0.318,
        "velocity": 0.73,
        "hand": "right"
      },
      {
        "midi": 66,
        "time": 80.5,
        "duration": 0.485,
        "velocity": 0.72,
        "hand": "right"
      },
      {
        "midi": 38,
        "time": 80.666,
        "duration": 0.083,
        "velocity": 0.91,
        "hand": "left"
      },
      {
        "midi": 51,
        "time": 80.666,
        "duration": 0.083,
        "velocity": 0.82,
        "hand": "left"
      },
      {
        "midi": 72,
        "time": 80.666,
        "duration": 0.333,
        "velocity": 0.83,
        "hand": "right"
      },
      {
        "midi": 60,
        "time": 80.833,
        "duration": 0.318,
        "velocity": 0.59,
        "hand": "right"
      },
      {
        "midi": 62,
        "time": 80.833,
        "duration": 0.333,
        "velocity": 0.81,
        "hand": "right"
      },
      {
        "midi": 38,
        "time": 81,
        "duration": 0.083,
        "velocity": 0.89,
        "hand": "left"
      },
      {
        "midi": 47,
        "time": 81,
        "duration": 0.083,
        "velocity": 0.59,
        "hand": "left"
      },
      {
        "midi": 66,
        "time": 81,
        "duration": 0.318,
        "velocity": 0.66,
        "hand": "right"
      },
      {
        "midi": 60,
        "time": 81.166,
        "duration": 0.152,
        "velocity": 0.58,
        "hand": "right"
      },
      {
        "midi": 38,
        "time": 81.333,
        "duration": 0.652,
        "velocity": 0.83,
        "hand": "left"
      },
      {
        "midi": 47,
        "time": 81.333,
        "duration": 0.083,
        "velocity": 0.8,
        "hand": "left"
      },
      {
        "midi": 62,
        "time": 81.333,
        "duration": 0.485,
        "velocity": 0.82,
        "hand": "right"
      },
      {
        "midi": 66,
        "time": 81.333,
        "duration": 0.318,
        "velocity": 0.66,
        "hand": "right"
      },
      {
        "midi": 69,
        "time": 81.333,
        "duration": 0.318,
        "velocity": 0.44,
        "hand": "right"
      },
      {
        "midi": 72,
        "time": 81.333,
        "duration": 0.652,
        "velocity": 0.79,
        "hand": "right"
      },
      {
        "midi": 51,
        "time": 81.666,
        "duration": 0.083,
        "velocity": 0.5,
        "hand": "left"
      },
      {
        "midi": 66,
        "time": 81.666,
        "duration": 0.152,
        "velocity": 0.74,
        "hand": "right"
      },
      {
        "midi": 69,
        "time": 81.666,
        "duration": 0.167,
        "velocity": 1,
        "hand": "right"
      },
      {
        "midi": 60,
        "time": 81.833,
        "duration": 0.318,
        "velocity": 0.65,
        "hand": "right"
      },
      {
        "midi": 62,
        "time": 81.833,
        "duration": 0.652,
        "velocity": 0.91,
        "hand": "right"
      },
      {
        "midi": 66,
        "time": 81.833,
        "duration": 0.318,
        "velocity": 0.73,
        "hand": "right"
      },
      {
        "midi": 38,
        "time": 82,
        "duration": 0.083,
        "velocity": 0.91,
        "hand": "left"
      },
      {
        "midi": 51,
        "time": 82,
        "duration": 0.083,
        "velocity": 0.74,
        "hand": "left"
      },
      {
        "midi": 64,
        "time": 82,
        "duration": 0.167,
        "velocity": 1,
        "hand": "right"
      },
      {
        "midi": 72,
        "time": 82,
        "duration": 0.5,
        "velocity": 0.77,
        "hand": "right"
      },
      {
        "midi": 54,
        "time": 82.166,
        "duration": 0.167,
        "velocity": 0.66,
        "hand": "left"
      },
      {
        "midi": 60,
        "time": 82.166,
        "duration": 0.319,
        "velocity": 0.68,
        "hand": "right"
      },
      {
        "midi": 66,
        "time": 82.166,
        "duration": 0.152,
        "velocity": 0.56,
        "hand": "right"
      },
      {
        "midi": 51,
        "time": 82.333,
        "duration": 0.083,
        "velocity": 0.46,
        "hand": "left"
      },
      {
        "midi": 66,
        "time": 82.333,
        "duration": 0.152,
        "velocity": 1,
        "hand": "right"
      },
      {
        "midi": 54,
        "time": 82.5,
        "duration": 0.151,
        "velocity": 0.54,
        "hand": "left"
      },
      {
        "midi": 60,
        "time": 82.5,
        "duration": 0.167,
        "velocity": 0.61,
        "hand": "right"
      },
      {
        "midi": 62,
        "time": 82.5,
        "duration": 0.151,
        "velocity": 0.72,
        "hand": "right"
      },
      {
        "midi": 66,
        "time": 82.5,
        "duration": 0.151,
        "velocity": 0.61,
        "hand": "right"
      },
      {
        "midi": 43,
        "time": 82.666,
        "duration": 0.985,
        "velocity": 0.91,
        "hand": "left"
      },
      {
        "midi": 47,
        "time": 82.666,
        "duration": 0.083,
        "velocity": 0.8,
        "hand": "left"
      },
      {
        "midi": 71,
        "time": 82.666,
        "duration": 0.319,
        "velocity": 0.73,
        "hand": "right"
      },
      {
        "midi": 74,
        "time": 82.666,
        "duration": 0.652,
        "velocity": 0.71,
        "hand": "right"
      },
      {
        "midi": 79,
        "time": 82.666,
        "duration": 2,
        "velocity": 0.74,
        "hand": "right"
      },
      {
        "midi": 83,
        "time": 82.666,
        "duration": 2.667,
        "velocity": 0.63,
        "hand": "right"
      },
      {
        "midi": 51,
        "time": 83,
        "duration": 0.083,
        "velocity": 0.4,
        "hand": "left"
      },
      {
        "midi": 71,
        "time": 83,
        "duration": 0.151,
        "velocity": 0.71,
        "hand": "right"
      },
      {
        "midi": 59,
        "time": 83.166,
        "duration": 0.485,
        "velocity": 0.54,
        "hand": "left"
      },
      {
        "midi": 62,
        "time": 83.166,
        "duration": 0.152,
        "velocity": 0.71,
        "hand": "right"
      },
      {
        "midi": 67,
        "time": 83.166,
        "duration": 0.652,
        "velocity": 0.9,
        "hand": "right"
      },
      {
        "midi": 71,
        "time": 83.166,
        "duration": 0.319,
        "velocity": 0.66,
        "hand": "right"
      },
      {
        "midi": 38,
        "time": 83.333,
        "duration": 0.083,
        "velocity": 0.91,
        "hand": "left"
      },
      {
        "midi": 51,
        "time": 83.333,
        "duration": 0.083,
        "velocity": 0.8,
        "hand": "left"
      },
      {
        "midi": 62,
        "time": 83.333,
        "duration": 0.318,
        "velocity": 0.7,
        "hand": "right"
      },
      {
        "midi": 74,
        "time": 83.333,
        "duration": 0.083,
        "velocity": 0.79,
        "hand": "right"
      },
      {
        "midi": 71,
        "time": 83.5,
        "duration": 0.151,
        "velocity": 0.53,
        "hand": "right"
      },
      {
        "midi": 43,
        "time": 83.666,
        "duration": 0.083,
        "velocity": 0.87,
        "hand": "left"
      },
      {
        "midi": 47,
        "time": 83.666,
        "duration": 0.083,
        "velocity": 0.78,
        "hand": "left"
      },
      {
        "midi": 62,
        "time": 83.666,
        "duration": 0.152,
        "velocity": 0.64,
        "hand": "right"
      },
      {
        "midi": 71,
        "time": 83.666,
        "duration": 0.152,
        "velocity": 0.69,
        "hand": "right"
      },
      {
        "midi": 59,
        "time": 83.833,
        "duration": 0.152,
        "velocity": 0.63,
        "hand": "left"
      },
      {
        "midi": 62,
        "time": 83.833,
        "duration": 0.152,
        "velocity": 0.73,
        "hand": "right"
      },
      {
        "midi": 67,
        "time": 83.833,
        "duration": 0.152,
        "velocity": 0.7,
        "hand": "right"
      },
      {
        "midi": 71,
        "time": 83.833,
        "duration": 0.152,
        "velocity": 0.56,
        "hand": "right"
      },
      {
        "midi": 43,
        "time": 84,
        "duration": 0.667,
        "velocity": 0.85,
        "hand": "left"
      },
      {
        "midi": 47,
        "time": 84,
        "duration": 0.083,
        "velocity": 0.74,
        "hand": "left"
      },
      {
        "midi": 62,
        "time": 84,
        "duration": 0.485,
        "velocity": 0.81,
        "hand": "right"
      },
      {
        "midi": 67,
        "time": 84,
        "duration": 0.485,
        "velocity": 0.85,
        "hand": "right"
      },
      {
        "midi": 71,
        "time": 84,
        "duration": 0.318,
        "velocity": 0.65,
        "hand": "right"
      },
      {
        "midi": 51,
        "time": 84.333,
        "duration": 0.083,
        "velocity": 0.54,
        "hand": "left"
      },
      {
        "midi": 71,
        "time": 84.333,
        "duration": 0.152,
        "velocity": 0.81,
        "hand": "right"
      },
      {
        "midi": 59,
        "time": 84.5,
        "duration": 0.151,
        "velocity": 0.64,
        "hand": "left"
      },
      {
        "midi": 62,
        "time": 84.5,
        "duration": 0.318,
        "velocity": 0.9,
        "hand": "right"
      },
      {
        "midi": 67,
        "time": 84.5,
        "duration": 0.318,
        "velocity": 0.89,
        "hand": "right"
      },
      {
        "midi": 71,
        "time": 84.5,
        "duration": 0.318,
        "velocity": 0.78,
        "hand": "right"
      },
      {
        "midi": 38,
        "time": 84.666,
        "duration": 0.083,
        "velocity": 0.91,
        "hand": "left"
      },
      {
        "midi": 51,
        "time": 84.666,
        "duration": 0.083,
        "velocity": 0.78,
        "hand": "left"
      },
      {
        "midi": 74,
        "time": 84.666,
        "duration": 0.167,
        "velocity": 0.63,
        "hand": "right"
      },
      {
        "midi": 43,
        "time": 84.833,
        "duration": 0.333,
        "velocity": 0.9,
        "hand": "left"
      },
      {
        "midi": 47,
        "time": 84.833,
        "duration": 0.083,
        "velocity": 0.58,
        "hand": "left"
      },
      {
        "midi": 62,
        "time": 84.833,
        "duration": 0.318,
        "velocity": 0.7,
        "hand": "right"
      },
      {
        "midi": 67,
        "time": 84.833,
        "duration": 0.318,
        "velocity": 0.83,
        "hand": "right"
      },
      {
        "midi": 71,
        "time": 84.833,
        "duration": 0.152,
        "velocity": 0.69,
        "hand": "right"
      },
      {
        "midi": 51,
        "time": 85,
        "duration": 0.083,
        "velocity": 0.46,
        "hand": "left"
      },
      {
        "midi": 55,
        "time": 85,
        "duration": 0.151,
        "velocity": 0.65,
        "hand": "left"
      },
      {
        "midi": 71,
        "time": 85,
        "duration": 0.167,
        "velocity": 0.79,
        "hand": "right"
      },
      {
        "midi": 55,
        "time": 85.166,
        "duration": 0.152,
        "velocity": 0.64,
        "hand": "left"
      },
      {
        "midi": 59,
        "time": 85.166,
        "duration": 0.167,
        "velocity": 0.67,
        "hand": "left"
      },
      {
        "midi": 62,
        "time": 85.166,
        "duration": 0.167,
        "velocity": 0.64,
        "hand": "right"
      },
      {
        "midi": 67,
        "time": 85.166,
        "duration": 0.152,
        "velocity": 0.55,
        "hand": "right"
      },
      {
        "midi": 36,
        "time": 85.333,
        "duration": 0.152,
        "velocity": 0.87,
        "hand": "left"
      },
      {
        "midi": 47,
        "time": 85.333,
        "duration": 0.083,
        "velocity": 0.77,
        "hand": "left"
      },
      {
        "midi": 67,
        "time": 85.333,
        "duration": 1.318,
        "velocity": 0.81,
        "hand": "right"
      },
      {
        "midi": 72,
        "time": 85.333,
        "duration": 0.318,
        "velocity": 0.71,
        "hand": "right"
      },
      {
        "midi": 76,
        "time": 85.333,
        "duration": 0.652,
        "velocity": 0.72,
        "hand": "right"
      },
      {
        "midi": 79,
        "time": 85.333,
        "duration": 1.318,
        "velocity": 0.79,
        "hand": "right"
      },
      {
        "midi": 36,
        "time": 85.5,
        "duration": 0.818,
        "velocity": 0.46,
        "hand": "left"
      },
      {
        "midi": 48,
        "time": 85.5,
        "duration": 0.818,
        "velocity": 0.39,
        "hand": "left"
      },
      {
        "midi": 51,
        "time": 85.666,
        "duration": 0.083,
        "velocity": 0.51,
        "hand": "left"
      },
      {
        "midi": 72,
        "time": 85.666,
        "duration": 0.333,
        "velocity": 0.79,
        "hand": "right"
      },
      {
        "midi": 60,
        "time": 85.833,
        "duration": 0.318,
        "velocity": 0.79,
        "hand": "right"
      },
      {
        "midi": 64,
        "time": 85.833,
        "duration": 0.833,
        "velocity": 0.83,
        "hand": "right"
      },
      {
        "midi": 38,
        "time": 86,
        "duration": 0.083,
        "velocity": 0.91,
        "hand": "left"
      },
      {
        "midi": 51,
        "time": 86,
        "duration": 0.083,
        "velocity": 0.74,
        "hand": "left"
      },
      {
        "midi": 76,
        "time": 86,
        "duration": 0.333,
        "velocity": 0.89,
        "hand": "right"
      },
      {
        "midi": 55,
        "time": 86.166,
        "duration": 0.152,
        "velocity": 0.64,
        "hand": "left"
      },
      {
        "midi": 60,
        "time": 86.166,
        "duration": 0.319,
        "velocity": 0.67,
        "hand": "right"
      },
      {
        "midi": 36,
        "time": 86.333,
        "duration": 0.083,
        "velocity": 0.85,
        "hand": "left"
      },
      {
        "midi": 47,
        "time": 86.333,
        "duration": 0.083,
        "velocity": 0.67,
        "hand": "left"
      },
      {
        "midi": 72,
        "time": 86.333,
        "duration": 0.318,
        "velocity": 0.66,
        "hand": "right"
      },
      {
        "midi": 55,
        "time": 86.5,
        "duration": 0.151,
        "velocity": 0.58,
        "hand": "left"
      },
      {
        "midi": 60,
        "time": 86.5,
        "duration": 0.151,
        "velocity": 0.59,
        "hand": "right"
      },
      {
        "midi": 36,
        "time": 86.666,
        "duration": 1.167,
        "velocity": 0.86,
        "hand": "left"
      },
      {
        "midi": 47,
        "time": 86.666,
        "duration": 0.083,
        "velocity": 0.83,
        "hand": "left"
      },
      {
        "midi": 76,
        "time": 86.666,
        "duration": 0.333,
        "velocity": 0.49,
        "hand": "right"
      },
      {
        "midi": 79,
        "time": 86.666,
        "duration": 1.319,
        "velocity": 0.63,
        "hand": "right"
      },
      {
        "midi": 81,
        "time": 86.666,
        "duration": 0.833,
        "velocity": 0.74,
        "hand": "right"
      },
      {
        "midi": 51,
        "time": 87,
        "duration": 0.083,
        "velocity": 0.43,
        "hand": "left"
      },
      {
        "midi": 72,
        "time": 87,
        "duration": 0.333,
        "velocity": 0.66,
        "hand": "right"
      },
      {
        "midi": 51,
        "time": 87.166,
        "duration": 0.152,
        "velocity": 0.61,
        "hand": "left"
      },
      {
        "midi": 55,
        "time": 87.166,
        "duration": 0.319,
        "velocity": 0.84,
        "hand": "left"
      },
      {
        "midi": 60,
        "time": 87.166,
        "duration": 0.319,
        "velocity": 0.87,
        "hand": "right"
      },
      {
        "midi": 63,
        "time": 87.166,
        "duration": 0.319,
        "velocity": 0.79,
        "hand": "right"
      },
      {
        "midi": 38,
        "time": 87.333,
        "duration": 0.083,
        "velocity": 0.91,
        "hand": "left"
      },
      {
        "midi": 48,
        "time": 87.333,
        "duration": 0.318,
        "velocity": 0.55,
        "hand": "left"
      },
      {
        "midi": 76,
        "time": 87.333,
        "duration": 0.318,
        "velocity": 0.76,
        "hand": "right"
      },
      {
        "midi": 51,
        "time": 87.5,
        "duration": 0.151,
        "velocity": 0.59,
        "hand": "left"
      },
      {
        "midi": 55,
        "time": 87.5,
        "duration": 0.151,
        "velocity": 0.63,
        "hand": "left"
      },
      {
        "midi": 60,
        "time": 87.5,
        "duration": 0.318,
        "velocity": 0.73,
        "hand": "right"
      },
      {
        "midi": 63,
        "time": 87.5,
        "duration": 0.5,
        "velocity": 0.58,
        "hand": "right"
      },
      {
        "midi": 48,
        "time": 87.666,
        "duration": 0.333,
        "velocity": 0.69,
        "hand": "left"
      },
      {
        "midi": 51,
        "time": 87.666,
        "duration": 0.319,
        "velocity": 0.76,
        "hand": "left"
      },
      {
        "midi": 72,
        "time": 87.666,
        "duration": 0.333,
        "velocity": 0.69,
        "hand": "right"
      },
      {
        "midi": 76,
        "time": 87.666,
        "duration": 0.167,
        "velocity": 0.09,
        "hand": "right"
      },
      {
        "midi": 55,
        "time": 87.833,
        "duration": 0.152,
        "velocity": 0.64,
        "hand": "left"
      },
      {
        "midi": 60,
        "time": 87.833,
        "duration": 0.167,
        "velocity": 0.56,
        "hand": "right"
      },
      {
        "midi": 43,
        "time": 88,
        "duration": 0.985,
        "velocity": 0.9,
        "hand": "left"
      },
      {
        "midi": 47,
        "time": 88,
        "duration": 0.083,
        "velocity": 0.82,
        "hand": "left"
      },
      {
        "midi": 67,
        "time": 88,
        "duration": 0.485,
        "velocity": 0.86,
        "hand": "right"
      },
      {
        "midi": 71,
        "time": 88,
        "duration": 0.318,
        "velocity": 0.72,
        "hand": "right"
      },
      {
        "midi": 74,
        "time": 88,
        "duration": 0.651,
        "velocity": 0.71,
        "hand": "right"
      },
      {
        "midi": 79,
        "time": 88,
        "duration": 1.833,
        "velocity": 0.71,
        "hand": "right"
      },
      {
        "midi": 51,
        "time": 88.333,
        "duration": 0.083,
        "velocity": 0.44,
        "hand": "left"
      },
      {
        "midi": 71,
        "time": 88.333,
        "duration": 0.152,
        "velocity": 0.81,
        "hand": "right"
      },
      {
        "midi": 59,
        "time": 88.5,
        "duration": 0.318,
        "velocity": 0.61,
        "hand": "left"
      },
      {
        "midi": 62,
        "time": 88.5,
        "duration": 0.318,
        "velocity": 0.84,
        "hand": "right"
      },
      {
        "midi": 67,
        "time": 88.5,
        "duration": 0.651,
        "velocity": 0.87,
        "hand": "right"
      },
      {
        "midi": 71,
        "time": 88.5,
        "duration": 0.485,
        "velocity": 0.82,
        "hand": "right"
      },
      {
        "midi": 38,
        "time": 88.666,
        "duration": 0.083,
        "velocity": 0.91,
        "hand": "left"
      },
      {
        "midi": 51,
        "time": 88.666,
        "duration": 0.083,
        "velocity": 0.74,
        "hand": "left"
      },
      {
        "midi": 74,
        "time": 88.666,
        "duration": 0.5,
        "velocity": 0.61,
        "hand": "right"
      },
      {
        "midi": 59,
        "time": 88.833,
        "duration": 0.152,
        "velocity": 0.61,
        "hand": "left"
      },
      {
        "midi": 62,
        "time": 88.833,
        "duration": 0.152,
        "velocity": 0.68,
        "hand": "right"
      },
      {
        "midi": 43,
        "time": 89,
        "duration": 0.083,
        "velocity": 0.86,
        "hand": "left"
      },
      {
        "midi": 47,
        "time": 89,
        "duration": 0.083,
        "velocity": 0.72,
        "hand": "left"
      },
      {
        "midi": 62,
        "time": 89,
        "duration": 0.151,
        "velocity": 0.65,
        "hand": "right"
      },
      {
        "midi": 71,
        "time": 89,
        "duration": 0.151,
        "velocity": 0.59,
        "hand": "right"
      },
      {
        "midi": 62,
        "time": 89.166,
        "duration": 0.152,
        "velocity": 0.65,
        "hand": "right"
      },
      {
        "midi": 67,
        "time": 89.166,
        "duration": 0.152,
        "velocity": 0.66,
        "hand": "right"
      },
      {
        "midi": 71,
        "time": 89.166,
        "duration": 0.152,
        "velocity": 0.48,
        "hand": "right"
      },
      {
        "midi": 43,
        "time": 89.333,
        "duration": 0.083,
        "velocity": 0.83,
        "hand": "left"
      },
      {
        "midi": 47,
        "time": 89.333,
        "duration": 0.083,
        "velocity": 0.73,
        "hand": "left"
      },
      {
        "midi": 62,
        "time": 89.333,
        "duration": 0.083,
        "velocity": 0.82,
        "hand": "right"
      },
      {
        "midi": 67,
        "time": 89.333,
        "duration": 0.083,
        "velocity": 0.87,
        "hand": "right"
      },
      {
        "midi": 71,
        "time": 89.333,
        "duration": 0.083,
        "velocity": 0.71,
        "hand": "right"
      }
    ]
  },
  "notes1Hand": [
    {
      "midi": 79,
      "time": 0,
      "duration": 2.333,
      "velocity": 0.39,
      "hand": "right"
    },
    {
      "midi": 71,
      "time": 0.833,
      "duration": 0.45,
      "velocity": 0.69,
      "hand": "right"
    },
    {
      "midi": 71,
      "time": 1.666,
      "duration": 0.45,
      "velocity": 0.72,
      "hand": "right"
    },
    {
      "midi": 59,
      "time": 2.5,
      "duration": 0.45,
      "velocity": 0.63,
      "hand": "right"
    },
    {
      "midi": 74,
      "time": 3.333,
      "duration": 0.45,
      "velocity": 0.51,
      "hand": "right"
    },
    {
      "midi": 60,
      "time": 4.166,
      "duration": 0.45,
      "velocity": 0.31,
      "hand": "right"
    },
    {
      "midi": 64,
      "time": 5,
      "duration": 0.45,
      "velocity": 0.51,
      "hand": "right"
    },
    {
      "midi": 64,
      "time": 5.833,
      "duration": 0.833,
      "velocity": 0.72,
      "hand": "right"
    },
    {
      "midi": 75,
      "time": 6.666,
      "duration": 1.333,
      "velocity": 0.63,
      "hand": "right"
    },
    {
      "midi": 63,
      "time": 7.5,
      "duration": 0.45,
      "velocity": 0.56,
      "hand": "right"
    },
    {
      "midi": 71,
      "time": 8.333,
      "duration": 0.45,
      "velocity": 0.76,
      "hand": "right"
    },
    {
      "midi": 82,
      "time": 9.166,
      "duration": 0.45,
      "velocity": 0.63,
      "hand": "right"
    },
    {
      "midi": 69,
      "time": 10,
      "duration": 0.45,
      "velocity": 0.76,
      "hand": "right"
    },
    {
      "midi": 71,
      "time": 11,
      "duration": 0.45,
      "velocity": 0.65,
      "hand": "right"
    },
    {
      "midi": 67,
      "time": 11.833,
      "duration": 0.45,
      "velocity": 0.59,
      "hand": "right"
    },
    {
      "midi": 74,
      "time": 12.666,
      "duration": 0.652,
      "velocity": 0.57,
      "hand": "right"
    },
    {
      "midi": 71,
      "time": 13.666,
      "duration": 0.45,
      "velocity": 0.76,
      "hand": "right"
    },
    {
      "midi": 71,
      "time": 14.5,
      "duration": 0.45,
      "velocity": 0.48,
      "hand": "right"
    },
    {
      "midi": 74,
      "time": 15.333,
      "duration": 0.45,
      "velocity": 0.69,
      "hand": "right"
    },
    {
      "midi": 71,
      "time": 16.333,
      "duration": 0.45,
      "velocity": 0.81,
      "hand": "right"
    },
    {
      "midi": 62,
      "time": 17.166,
      "duration": 0.45,
      "velocity": 0.58,
      "hand": "right"
    },
    {
      "midi": 74,
      "time": 18,
      "duration": 0.45,
      "velocity": 0.76,
      "hand": "right"
    },
    {
      "midi": 71,
      "time": 19,
      "duration": 0.45,
      "velocity": 0.74,
      "hand": "right"
    },
    {
      "midi": 71,
      "time": 19.833,
      "duration": 0.45,
      "velocity": 0.56,
      "hand": "right"
    },
    {
      "midi": 69,
      "time": 20.666,
      "duration": 0.45,
      "velocity": 0.63,
      "hand": "right"
    },
    {
      "midi": 69,
      "time": 21.666,
      "duration": 0.45,
      "velocity": 1,
      "hand": "right"
    },
    {
      "midi": 62,
      "time": 22.5,
      "duration": 0.45,
      "velocity": 0.59,
      "hand": "right"
    },
    {
      "midi": 74,
      "time": 23.333,
      "duration": 0.45,
      "velocity": 0.76,
      "hand": "right"
    },
    {
      "midi": 71,
      "time": 24.333,
      "duration": 0.45,
      "velocity": 0.83,
      "hand": "right"
    },
    {
      "midi": 71,
      "time": 25.166,
      "duration": 0.45,
      "velocity": 0.48,
      "hand": "right"
    },
    {
      "midi": 74,
      "time": 26,
      "duration": 0.45,
      "velocity": 0.74,
      "hand": "right"
    },
    {
      "midi": 71,
      "time": 27,
      "duration": 0.45,
      "velocity": 0.81,
      "hand": "right"
    },
    {
      "midi": 62,
      "time": 27.833,
      "duration": 0.45,
      "velocity": 0.58,
      "hand": "right"
    },
    {
      "midi": 74,
      "time": 28.666,
      "duration": 0.45,
      "velocity": 0.86,
      "hand": "right"
    },
    {
      "midi": 71,
      "time": 29.666,
      "duration": 0.45,
      "velocity": 0.81,
      "hand": "right"
    },
    {
      "midi": 71,
      "time": 30.5,
      "duration": 0.45,
      "velocity": 0.56,
      "hand": "right"
    },
    {
      "midi": 74,
      "time": 31.333,
      "duration": 0.45,
      "velocity": 0.72,
      "hand": "right"
    },
    {
      "midi": 66,
      "time": 32.333,
      "duration": 0.45,
      "velocity": 0.72,
      "hand": "right"
    },
    {
      "midi": 62,
      "time": 33.166,
      "duration": 0.45,
      "velocity": 0.59,
      "hand": "right"
    },
    {
      "midi": 72,
      "time": 34,
      "duration": 0.5,
      "velocity": 0.77,
      "hand": "right"
    },
    {
      "midi": 71,
      "time": 35,
      "duration": 0.45,
      "velocity": 0.81,
      "hand": "right"
    },
    {
      "midi": 71,
      "time": 35.833,
      "duration": 0.45,
      "velocity": 0.48,
      "hand": "right"
    },
    {
      "midi": 74,
      "time": 36.666,
      "duration": 0.45,
      "velocity": 0.86,
      "hand": "right"
    },
    {
      "midi": 71,
      "time": 37.666,
      "duration": 0.45,
      "velocity": 0.83,
      "hand": "right"
    },
    {
      "midi": 62,
      "time": 38.5,
      "duration": 0.45,
      "velocity": 0.58,
      "hand": "right"
    },
    {
      "midi": 74,
      "time": 39.333,
      "duration": 0.45,
      "velocity": 0.86,
      "hand": "right"
    },
    {
      "midi": 71,
      "time": 40.333,
      "duration": 0.45,
      "velocity": 0.79,
      "hand": "right"
    },
    {
      "midi": 71,
      "time": 41.166,
      "duration": 0.45,
      "velocity": 0.56,
      "hand": "right"
    },
    {
      "midi": 74,
      "time": 42,
      "duration": 0.45,
      "velocity": 0.86,
      "hand": "right"
    },
    {
      "midi": 71,
      "time": 43,
      "duration": 0.45,
      "velocity": 0.81,
      "hand": "right"
    },
    {
      "midi": 67,
      "time": 43.833,
      "duration": 0.45,
      "velocity": 0.59,
      "hand": "right"
    },
    {
      "midi": 62,
      "time": 44.666,
      "duration": 0.45,
      "velocity": 0.55,
      "hand": "right"
    },
    {
      "midi": 69,
      "time": 45.666,
      "duration": 0.45,
      "velocity": 1,
      "hand": "right"
    },
    {
      "midi": 66,
      "time": 46.5,
      "duration": 0.45,
      "velocity": 0.48,
      "hand": "right"
    },
    {
      "midi": 74,
      "time": 47.333,
      "duration": 0.45,
      "velocity": 0.92,
      "hand": "right"
    },
    {
      "midi": 71,
      "time": 48.333,
      "duration": 0.45,
      "velocity": 0.83,
      "hand": "right"
    },
    {
      "midi": 62,
      "time": 49.166,
      "duration": 0.45,
      "velocity": 0.58,
      "hand": "right"
    },
    {
      "midi": 74,
      "time": 50,
      "duration": 0.45,
      "velocity": 0.86,
      "hand": "right"
    },
    {
      "midi": 71,
      "time": 51,
      "duration": 0.45,
      "velocity": 0.83,
      "hand": "right"
    },
    {
      "midi": 71,
      "time": 51.833,
      "duration": 0.45,
      "velocity": 0.56,
      "hand": "right"
    },
    {
      "midi": 74,
      "time": 52.666,
      "duration": 0.45,
      "velocity": 0.92,
      "hand": "right"
    },
    {
      "midi": 71,
      "time": 53.666,
      "duration": 0.45,
      "velocity": 0.81,
      "hand": "right"
    },
    {
      "midi": 67,
      "time": 54.5,
      "duration": 0.45,
      "velocity": 0.59,
      "hand": "right"
    },
    {
      "midi": 63,
      "time": 55.333,
      "duration": 0.45,
      "velocity": 0.72,
      "hand": "right"
    },
    {
      "midi": 66,
      "time": 56.333,
      "duration": 0.45,
      "velocity": 0.69,
      "hand": "right"
    },
    {
      "midi": 66,
      "time": 57.166,
      "duration": 0.45,
      "velocity": 0.48,
      "hand": "right"
    },
    {
      "midi": 72,
      "time": 58,
      "duration": 0.5,
      "velocity": 0.76,
      "hand": "right"
    },
    {
      "midi": 71,
      "time": 59,
      "duration": 0.45,
      "velocity": 0.79,
      "hand": "right"
    },
    {
      "midi": 62,
      "time": 59.833,
      "duration": 0.45,
      "velocity": 0.58,
      "hand": "right"
    },
    {
      "midi": 74,
      "time": 60.666,
      "duration": 0.45,
      "velocity": 0.81,
      "hand": "right"
    },
    {
      "midi": 71,
      "time": 61.666,
      "duration": 0.45,
      "velocity": 0.79,
      "hand": "right"
    },
    {
      "midi": 71,
      "time": 62.5,
      "duration": 0.45,
      "velocity": 0.56,
      "hand": "right"
    },
    {
      "midi": 74,
      "time": 63.333,
      "duration": 0.45,
      "velocity": 0.83,
      "hand": "right"
    },
    {
      "midi": 71,
      "time": 64.333,
      "duration": 0.45,
      "velocity": 0.81,
      "hand": "right"
    },
    {
      "midi": 67,
      "time": 65.166,
      "duration": 0.45,
      "velocity": 0.59,
      "hand": "right"
    },
    {
      "midi": 74,
      "time": 66,
      "duration": 0.45,
      "velocity": 0.86,
      "hand": "right"
    },
    {
      "midi": 71,
      "time": 67,
      "duration": 0.45,
      "velocity": 0.81,
      "hand": "right"
    },
    {
      "midi": 71,
      "time": 67.833,
      "duration": 0.45,
      "velocity": 0.48,
      "hand": "right"
    },
    {
      "midi": 72,
      "time": 68.666,
      "duration": 0.45,
      "velocity": 0.85,
      "hand": "right"
    },
    {
      "midi": 69,
      "time": 69.666,
      "duration": 0.45,
      "velocity": 1,
      "hand": "right"
    },
    {
      "midi": 60,
      "time": 70.5,
      "duration": 0.45,
      "velocity": 0.58,
      "hand": "right"
    },
    {
      "midi": 74,
      "time": 71.333,
      "duration": 0.45,
      "velocity": 0.76,
      "hand": "right"
    },
    {
      "midi": 71,
      "time": 72.333,
      "duration": 0.45,
      "velocity": 0.89,
      "hand": "right"
    },
    {
      "midi": 71,
      "time": 73.166,
      "duration": 0.45,
      "velocity": 0.56,
      "hand": "right"
    },
    {
      "midi": 74,
      "time": 74,
      "duration": 0.45,
      "velocity": 0.89,
      "hand": "right"
    },
    {
      "midi": 71,
      "time": 75,
      "duration": 0.45,
      "velocity": 0.76,
      "hand": "right"
    },
    {
      "midi": 67,
      "time": 75.833,
      "duration": 0.45,
      "velocity": 0.59,
      "hand": "right"
    },
    {
      "midi": 74,
      "time": 76.666,
      "duration": 0.45,
      "velocity": 0.86,
      "hand": "right"
    },
    {
      "midi": 71,
      "time": 77.666,
      "duration": 0.45,
      "velocity": 0.81,
      "hand": "right"
    },
    {
      "midi": 71,
      "time": 78.5,
      "duration": 0.45,
      "velocity": 0.48,
      "hand": "right"
    },
    {
      "midi": 74,
      "time": 79.333,
      "duration": 0.45,
      "velocity": 0.92,
      "hand": "right"
    },
    {
      "midi": 66,
      "time": 80.333,
      "duration": 0.45,
      "velocity": 0.72,
      "hand": "right"
    },
    {
      "midi": 60,
      "time": 81.166,
      "duration": 0.45,
      "velocity": 0.58,
      "hand": "right"
    },
    {
      "midi": 72,
      "time": 82,
      "duration": 0.5,
      "velocity": 0.77,
      "hand": "right"
    },
    {
      "midi": 71,
      "time": 83,
      "duration": 0.45,
      "velocity": 0.71,
      "hand": "right"
    },
    {
      "midi": 71,
      "time": 83.833,
      "duration": 0.45,
      "velocity": 0.56,
      "hand": "right"
    },
    {
      "midi": 74,
      "time": 84.666,
      "duration": 0.45,
      "velocity": 0.63,
      "hand": "right"
    },
    {
      "midi": 60,
      "time": 85.5,
      "duration": 0.818,
      "velocity": 0.39,
      "hand": "right"
    },
    {
      "midi": 72,
      "time": 86.333,
      "duration": 0.45,
      "velocity": 0.66,
      "hand": "right"
    },
    {
      "midi": 63,
      "time": 87.166,
      "duration": 0.45,
      "velocity": 0.79,
      "hand": "right"
    },
    {
      "midi": 79,
      "time": 88,
      "duration": 1.833,
      "velocity": 0.71,
      "hand": "right"
    },
    {
      "midi": 62,
      "time": 88.833,
      "duration": 0.45,
      "velocity": 0.68,
      "hand": "right"
    }
  ],
  "notes2Hands": [
    {
      "midi": 43,
      "time": 0,
      "duration": 2.167,
      "velocity": 0.93,
      "hand": "left"
    },
    {
      "midi": 67,
      "time": 0,
      "duration": 0.485,
      "velocity": 0.81,
      "hand": "right"
    },
    {
      "midi": 71,
      "time": 0,
      "duration": 0.318,
      "velocity": 0.51,
      "hand": "right"
    },
    {
      "midi": 74,
      "time": 0,
      "duration": 0.651,
      "velocity": 0.71,
      "hand": "right"
    },
    {
      "midi": 79,
      "time": 0,
      "duration": 2.333,
      "velocity": 0.39,
      "hand": "right"
    },
    {
      "midi": 59,
      "time": 0.166,
      "duration": 1.152,
      "velocity": 0.59,
      "hand": "left"
    },
    {
      "midi": 42,
      "time": 0.333,
      "duration": 0.083,
      "velocity": 0.19,
      "hand": "left"
    },
    {
      "midi": 62,
      "time": 0.333,
      "duration": 0.652,
      "velocity": 0.62,
      "hand": "right"
    },
    {
      "midi": 71,
      "time": 0.333,
      "duration": 0.333,
      "velocity": 0.68,
      "hand": "right"
    },
    {
      "midi": 67,
      "time": 0.5,
      "duration": 0.651,
      "velocity": 0.77,
      "hand": "right"
    },
    {
      "midi": 37,
      "time": 0.666,
      "duration": 0.083,
      "velocity": 0.91,
      "hand": "left"
    },
    {
      "midi": 42,
      "time": 0.666,
      "duration": 0.083,
      "velocity": 0.66,
      "hand": "left"
    },
    {
      "midi": 74,
      "time": 0.666,
      "duration": 0.333,
      "velocity": 0.69,
      "hand": "right"
    },
    {
      "midi": 71,
      "time": 0.833,
      "duration": 0.152,
      "velocity": 0.69,
      "hand": "right"
    },
    {
      "midi": 42,
      "time": 1,
      "duration": 0.083,
      "velocity": 0.31,
      "hand": "left"
    },
    {
      "midi": 62,
      "time": 1,
      "duration": 0.485,
      "velocity": 0.52,
      "hand": "right"
    },
    {
      "midi": 71,
      "time": 1,
      "duration": 0.333,
      "velocity": 0.65,
      "hand": "right"
    },
    {
      "midi": 67,
      "time": 1.166,
      "duration": 0.152,
      "velocity": 0.72,
      "hand": "right"
    },
    {
      "midi": 42,
      "time": 1.333,
      "duration": 0.083,
      "velocity": 0.39,
      "hand": "left"
    },
    {
      "midi": 59,
      "time": 1.333,
      "duration": 0.333,
      "velocity": 0.52,
      "hand": "left"
    },
    {
      "midi": 67,
      "time": 1.333,
      "duration": 0.818,
      "velocity": 0.74,
      "hand": "right"
    },
    {
      "midi": 62,
      "time": 1.5,
      "duration": 0.167,
      "velocity": 0.65,
      "hand": "right"
    },
    {
      "midi": 42,
      "time": 1.666,
      "duration": 0.083,
      "velocity": 0.21,
      "hand": "left"
    },
    {
      "midi": 55,
      "time": 1.666,
      "duration": 0.985,
      "velocity": 0.7,
      "hand": "left"
    },
    {
      "midi": 71,
      "time": 1.666,
      "duration": 0.333,
      "velocity": 0.72,
      "hand": "right"
    },
    {
      "midi": 59,
      "time": 1.833,
      "duration": 0.652,
      "velocity": 0.58,
      "hand": "left"
    },
    {
      "midi": 42,
      "time": 2,
      "duration": 0.083,
      "velocity": 0.51,
      "hand": "left"
    },
    {
      "midi": 54,
      "time": 2,
      "duration": 0.083,
      "velocity": 0.63,
      "hand": "left"
    },
    {
      "midi": 62,
      "time": 2,
      "duration": 0.651,
      "velocity": 0.68,
      "hand": "right"
    },
    {
      "midi": 74,
      "time": 2,
      "duration": 0.333,
      "velocity": 0.4,
      "hand": "right"
    },
    {
      "midi": 67,
      "time": 2.166,
      "duration": 0.485,
      "velocity": 0.79,
      "hand": "right"
    },
    {
      "midi": 43,
      "time": 2.333,
      "duration": 0.167,
      "velocity": 0.91,
      "hand": "left"
    },
    {
      "midi": 46,
      "time": 2.333,
      "duration": 0.083,
      "velocity": 0.28,
      "hand": "left"
    },
    {
      "midi": 71,
      "time": 2.333,
      "duration": 0.318,
      "velocity": 0.72,
      "hand": "right"
    },
    {
      "midi": 59,
      "time": 2.5,
      "duration": 0.151,
      "velocity": 0.63,
      "hand": "left"
    },
    {
      "midi": 43,
      "time": 2.666,
      "duration": 0.152,
      "velocity": 0.93,
      "hand": "left"
    },
    {
      "midi": 67,
      "time": 2.666,
      "duration": 0.152,
      "velocity": 0.86,
      "hand": "right"
    },
    {
      "midi": 71,
      "time": 2.666,
      "duration": 0.152,
      "velocity": 0.36,
      "hand": "right"
    },
    {
      "midi": 74,
      "time": 2.666,
      "duration": 0.152,
      "velocity": 0.49,
      "hand": "right"
    },
    {
      "midi": 79,
      "time": 2.666,
      "duration": 1.152,
      "velocity": 0.71,
      "hand": "right"
    },
    {
      "midi": 43,
      "time": 2.833,
      "duration": 1.833,
      "velocity": 0.93,
      "hand": "left"
    },
    {
      "midi": 55,
      "time": 2.833,
      "duration": 0.083,
      "velocity": 0.63,
      "hand": "left"
    },
    {
      "midi": 62,
      "time": 2.833,
      "duration": 0.152,
      "velocity": 0.51,
      "hand": "right"
    },
    {
      "midi": 67,
      "time": 2.833,
      "duration": 0.318,
      "velocity": 0.51,
      "hand": "right"
    },
    {
      "midi": 71,
      "time": 2.833,
      "duration": 0.152,
      "velocity": 0.51,
      "hand": "right"
    },
    {
      "midi": 74,
      "time": 2.833,
      "duration": 0.485,
      "velocity": 0.52,
      "hand": "right"
    },
    {
      "midi": 42,
      "time": 3,
      "duration": 0.083,
      "velocity": 0.19,
      "hand": "left"
    },
    {
      "midi": 62,
      "time": 3,
      "duration": 0.651,
      "velocity": 0.63,
      "hand": "right"
    },
    {
      "midi": 71,
      "time": 3,
      "duration": 0.333,
      "velocity": 0.76,
      "hand": "right"
    },
    {
      "midi": 67,
      "time": 3.166,
      "duration": 0.667,
      "velocity": 0.77,
      "hand": "right"
    },
    {
      "midi": 37,
      "time": 3.333,
      "duration": 0.083,
      "velocity": 0.91,
      "hand": "left"
    },
    {
      "midi": 42,
      "time": 3.333,
      "duration": 0.083,
      "velocity": 0.66,
      "hand": "left"
    },
    {
      "midi": 74,
      "time": 3.333,
      "duration": 0.333,
      "velocity": 0.51,
      "hand": "right"
    },
    {
      "midi": 71,
      "time": 3.5,
      "duration": 0.151,
      "velocity": 0.69,
      "hand": "right"
    },
    {
      "midi": 42,
      "time": 3.666,
      "duration": 0.083,
      "velocity": 0.31,
      "hand": "left"
    },
    {
      "midi": 62,
      "time": 3.666,
      "duration": 0.5,
      "velocity": 0.52,
      "hand": "right"
    },
    {
      "midi": 71,
      "time": 3.666,
      "duration": 0.333,
      "velocity": 0.79,
      "hand": "right"
    },
    {
      "midi": 79,
      "time": 3.833,
      "duration": 0.833,
      "velocity": 0.77,
      "hand": "right"
    },
    {
      "midi": 46,
      "time": 4,
      "duration": 0.083,
      "velocity": 0.39,
      "hand": "left"
    },
    {
      "midi": 67,
      "time": 4,
      "duration": 1,
      "velocity": 0.83,
      "hand": "right"
    },
    {
      "midi": 48,
      "time": 4.166,
      "duration": 0.083,
      "velocity": 0.31,
      "hand": "left"
    },
    {
      "midi": 71,
      "time": 4.333,
      "duration": 0.333,
      "velocity": 0.79,
      "hand": "right"
    },
    {
      "midi": 45,
      "time": 4.666,
      "duration": 0.083,
      "velocity": 0.31,
      "hand": "left"
    },
    {
      "midi": 54,
      "time": 4.666,
      "duration": 0.083,
      "velocity": 0.63,
      "hand": "left"
    },
    {
      "midi": 74,
      "time": 4.666,
      "duration": 0.167,
      "velocity": 0.63,
      "hand": "right"
    },
    {
      "midi": 71,
      "time": 4.833,
      "duration": 0.167,
      "velocity": 0.72,
      "hand": "right"
    },
    {
      "midi": 47,
      "time": 5,
      "duration": 0.083,
      "velocity": 0.58,
      "hand": "left"
    },
    {
      "midi": 60,
      "time": 5,
      "duration": 0.318,
      "velocity": 0.49,
      "hand": "right"
    },
    {
      "midi": 64,
      "time": 5,
      "duration": 0.318,
      "velocity": 0.51,
      "hand": "right"
    },
    {
      "midi": 41,
      "time": 5.166,
      "duration": 0.083,
      "velocity": 0.31,
      "hand": "left"
    },
    {
      "midi": 67,
      "time": 5.166,
      "duration": 0.152,
      "velocity": 0.65,
      "hand": "right"
    },
    {
      "midi": 36,
      "time": 5.333,
      "duration": 0.985,
      "velocity": 0.91,
      "hand": "left"
    },
    {
      "midi": 47,
      "time": 5.333,
      "duration": 0.083,
      "velocity": 0.86,
      "hand": "left"
    },
    {
      "midi": 64,
      "time": 5.333,
      "duration": 0.152,
      "velocity": 0.71,
      "hand": "right"
    },
    {
      "midi": 67,
      "time": 5.333,
      "duration": 1.318,
      "velocity": 0.89,
      "hand": "right"
    },
    {
      "midi": 72,
      "time": 5.333,
      "duration": 0.318,
      "velocity": 0.59,
      "hand": "right"
    },
    {
      "midi": 76,
      "time": 5.333,
      "duration": 0.152,
      "velocity": 0.63,
      "hand": "right"
    },
    {
      "midi": 64,
      "time": 5.5,
      "duration": 0.318,
      "velocity": 0.08,
      "hand": "right"
    },
    {
      "midi": 76,
      "time": 5.5,
      "duration": 0.485,
      "velocity": 0.72,
      "hand": "right"
    },
    {
      "midi": 79,
      "time": 5.5,
      "duration": 2.333,
      "velocity": 0.81,
      "hand": "right"
    },
    {
      "midi": 51,
      "time": 5.666,
      "duration": 0.083,
      "velocity": 0.46,
      "hand": "left"
    },
    {
      "midi": 72,
      "time": 5.666,
      "duration": 0.333,
      "velocity": 0.77,
      "hand": "right"
    },
    {
      "midi": 60,
      "time": 5.833,
      "duration": 0.318,
      "velocity": 0.73,
      "hand": "right"
    },
    {
      "midi": 64,
      "time": 5.833,
      "duration": 0.833,
      "velocity": 0.72,
      "hand": "right"
    },
    {
      "midi": 38,
      "time": 6,
      "duration": 0.083,
      "velocity": 0.91,
      "hand": "left"
    },
    {
      "midi": 51,
      "time": 6,
      "duration": 0.083,
      "velocity": 0.82,
      "hand": "left"
    },
    {
      "midi": 76,
      "time": 6,
      "duration": 0.333,
      "velocity": 0.83,
      "hand": "right"
    },
    {
      "midi": 55,
      "time": 6.166,
      "duration": 0.319,
      "velocity": 0.59,
      "hand": "left"
    },
    {
      "midi": 60,
      "time": 6.166,
      "duration": 0.333,
      "velocity": 0.81,
      "hand": "right"
    },
    {
      "midi": 36,
      "time": 6.333,
      "duration": 0.083,
      "velocity": 0.89,
      "hand": "left"
    },
    {
      "midi": 47,
      "time": 6.333,
      "duration": 0.083,
      "velocity": 0.59,
      "hand": "left"
    },
    {
      "midi": 72,
      "time": 6.333,
      "duration": 0.318,
      "velocity": 0.76,
      "hand": "right"
    },
    {
      "midi": 55,
      "time": 6.5,
      "duration": 0.151,
      "velocity": 0.58,
      "hand": "left"
    },
    {
      "midi": 36,
      "time": 6.666,
      "duration": 1.167,
      "velocity": 0.83,
      "hand": "left"
    },
    {
      "midi": 47,
      "time": 6.666,
      "duration": 0.083,
      "velocity": 0.8,
      "hand": "left"
    },
    {
      "midi": 63,
      "time": 6.666,
      "duration": 0.485,
      "velocity": 0.71,
      "hand": "right"
    },
    {
      "midi": 67,
      "time": 6.666,
      "duration": 0.319,
      "velocity": 0.89,
      "hand": "right"
    },
    {
      "midi": 72,
      "time": 6.666,
      "duration": 0.319,
      "velocity": 0.25,
      "hand": "right"
    },
    {
      "midi": 75,
      "time": 6.666,
      "duration": 1.333,
      "velocity": 0.63,
      "hand": "right"
    },
    {
      "midi": 51,
      "time": 7,
      "duration": 0.083,
      "velocity": 0.5,
      "hand": "left"
    },
    {
      "midi": 67,
      "time": 7,
      "duration": 0.833,
      "velocity": 0.08,
      "hand": "right"
    },
    {
      "midi": 72,
      "time": 7,
      "duration": 0.318,
      "velocity": 0.76,
      "hand": "right"
    },
    {
      "midi": 55,
      "time": 7.166,
      "duration": 0.319,
      "velocity": 0.65,
      "hand": "left"
    },
    {
      "midi": 60,
      "time": 7.166,
      "duration": 0.652,
      "velocity": 0.91,
      "hand": "right"
    },
    {
      "midi": 63,
      "time": 7.166,
      "duration": 0.319,
      "velocity": 0.73,
      "hand": "right"
    },
    {
      "midi": 38,
      "time": 7.333,
      "duration": 0.083,
      "velocity": 0.91,
      "hand": "left"
    },
    {
      "midi": 51,
      "time": 7.333,
      "duration": 0.083,
      "velocity": 0.74,
      "hand": "left"
    },
    {
      "midi": 72,
      "time": 7.333,
      "duration": 0.167,
      "velocity": 0.17,
      "hand": "right"
    },
    {
      "midi": 76,
      "time": 7.333,
      "duration": 0.333,
      "velocity": 0.72,
      "hand": "right"
    },
    {
      "midi": 51,
      "time": 7.5,
      "duration": 0.151,
      "velocity": 0.66,
      "hand": "left"
    },
    {
      "midi": 55,
      "time": 7.5,
      "duration": 0.318,
      "velocity": 0.68,
      "hand": "left"
    },
    {
      "midi": 63,
      "time": 7.5,
      "duration": 0.167,
      "velocity": 0.56,
      "hand": "right"
    },
    {
      "midi": 48,
      "time": 7.666,
      "duration": 0.333,
      "velocity": 0.63,
      "hand": "left"
    },
    {
      "midi": 51,
      "time": 7.666,
      "duration": 0.083,
      "velocity": 0.46,
      "hand": "left"
    },
    {
      "midi": 72,
      "time": 7.666,
      "duration": 0.333,
      "velocity": 0.72,
      "hand": "right"
    },
    {
      "midi": 51,
      "time": 7.833,
      "duration": 0.152,
      "velocity": 0.54,
      "hand": "left"
    },
    {
      "midi": 55,
      "time": 7.833,
      "duration": 0.152,
      "velocity": 0.61,
      "hand": "left"
    },
    {
      "midi": 60,
      "time": 7.833,
      "duration": 0.167,
      "velocity": 0.72,
      "hand": "right"
    },
    {
      "midi": 63,
      "time": 7.833,
      "duration": 0.167,
      "velocity": 0.61,
      "hand": "right"
    },
    {
      "midi": 43,
      "time": 8,
      "duration": 0.985,
      "velocity": 0.91,
      "hand": "left"
    },
    {
      "midi": 47,
      "time": 8,
      "duration": 0.083,
      "velocity": 0.8,
      "hand": "left"
    },
    {
      "midi": 67,
      "time": 8,
      "duration": 0.485,
      "velocity": 0.89,
      "hand": "right"
    },
    {
      "midi": 71,
      "time": 8,
      "duration": 0.318,
      "velocity": 0.73,
      "hand": "right"
    },
    {
      "midi": 74,
      "time": 8,
      "duration": 0.485,
      "velocity": 0.71,
      "hand": "right"
    },
    {
      "midi": 83,
      "time": 8,
      "duration": 1.167,
      "velocity": 0.63,
      "hand": "right"
    },
    {
      "midi": 60,
      "time": 8.166,
      "duration": 0.167,
      "velocity": 0.11,
      "hand": "right"
    },
    {
      "midi": 51,
      "time": 8.333,
      "duration": 0.083,
      "velocity": 0.4,
      "hand": "left"
    },
    {
      "midi": 59,
      "time": 8.333,
      "duration": 0.152,
      "velocity": 0.71,
      "hand": "left"
    },
    {
      "midi": 62,
      "time": 8.333,
      "duration": 0.152,
      "velocity": 0.63,
      "hand": "right"
    },
    {
      "midi": 71,
      "time": 8.333,
      "duration": 0.152,
      "velocity": 0.76,
      "hand": "right"
    },
    {
      "midi": 59,
      "time": 8.5,
      "duration": 0.485,
      "velocity": 0.54,
      "hand": "left"
    },
    {
      "midi": 62,
      "time": 8.5,
      "duration": 0.151,
      "velocity": 0.71,
      "hand": "right"
    },
    {
      "midi": 67,
      "time": 8.5,
      "duration": 0.151,
      "velocity": 0.9,
      "hand": "right"
    },
    {
      "midi": 71,
      "time": 8.5,
      "duration": 0.318,
      "velocity": 0.13,
      "hand": "right"
    },
    {
      "midi": 74,
      "time": 8.5,
      "duration": 0.333,
      "velocity": 0.08,
      "hand": "right"
    },
    {
      "midi": 38,
      "time": 8.666,
      "duration": 0.083,
      "velocity": 0.91,
      "hand": "left"
    },
    {
      "midi": 51,
      "time": 8.666,
      "duration": 0.083,
      "velocity": 0.8,
      "hand": "left"
    },
    {
      "midi": 62,
      "time": 8.666,
      "duration": 0.319,
      "velocity": 0.7,
      "hand": "right"
    },
    {
      "midi": 67,
      "time": 8.666,
      "duration": 0.167,
      "velocity": 0.4,
      "hand": "right"
    },
    {
      "midi": 71,
      "time": 8.833,
      "duration": 0.318,
      "velocity": 0.53,
      "hand": "right"
    },
    {
      "midi": 43,
      "time": 9,
      "duration": 0.083,
      "velocity": 0.87,
      "hand": "left"
    },
    {
      "midi": 47,
      "time": 9,
      "duration": 0.083,
      "velocity": 0.78,
      "hand": "left"
    },
    {
      "midi": 62,
      "time": 9,
      "duration": 0.167,
      "velocity": 0.64,
      "hand": "right"
    },
    {
      "midi": 67,
      "time": 9,
      "duration": 0.167,
      "velocity": 0.83,
      "hand": "right"
    },
    {
      "midi": 58,
      "time": 9.166,
      "duration": 0.167,
      "velocity": 0.63,
      "hand": "left"
    },
    {
      "midi": 71,
      "time": 9.166,
      "duration": 0.083,
      "velocity": 0.56,
      "hand": "right"
    },
    {
      "midi": 73,
      "time": 9.166,
      "duration": 0.167,
      "velocity": 0.71,
      "hand": "right"
    },
    {
      "midi": 82,
      "time": 9.166,
      "duration": 0.167,
      "velocity": 0.63,
      "hand": "right"
    },
    {
      "midi": 38,
      "time": 9.333,
      "duration": 0.652,
      "velocity": 0.85,
      "hand": "left"
    },
    {
      "midi": 47,
      "time": 9.333,
      "duration": 0.083,
      "velocity": 0.74,
      "hand": "left"
    },
    {
      "midi": 66,
      "time": 9.333,
      "duration": 0.318,
      "velocity": 0.71,
      "hand": "right"
    },
    {
      "midi": 69,
      "time": 9.333,
      "duration": 0.652,
      "velocity": 0.71,
      "hand": "right"
    },
    {
      "midi": 72,
      "time": 9.333,
      "duration": 1.167,
      "velocity": 0.62,
      "hand": "right"
    },
    {
      "midi": 74,
      "time": 9.333,
      "duration": 1.318,
      "velocity": 0.63,
      "hand": "right"
    },
    {
      "midi": 51,
      "time": 9.666,
      "duration": 0.083,
      "velocity": 0.54,
      "hand": "left"
    },
    {
      "midi": 66,
      "time": 9.666,
      "duration": 0.152,
      "velocity": 0.76,
      "hand": "right"
    },
    {
      "midi": 54,
      "time": 9.833,
      "duration": 0.152,
      "velocity": 0.64,
      "hand": "left"
    },
    {
      "midi": 60,
      "time": 9.833,
      "duration": 0.318,
      "velocity": 0.9,
      "hand": "right"
    },
    {
      "midi": 62,
      "time": 9.833,
      "duration": 0.152,
      "velocity": 0.89,
      "hand": "right"
    },
    {
      "midi": 66,
      "time": 9.833,
      "duration": 0.318,
      "velocity": 0.78,
      "hand": "right"
    },
    {
      "midi": 38,
      "time": 10,
      "duration": 0.083,
      "velocity": 0.91,
      "hand": "left"
    },
    {
      "midi": 50,
      "time": 10,
      "duration": 0.318,
      "velocity": 0.68,
      "hand": "left"
    },
    {
      "midi": 62,
      "time": 10,
      "duration": 0.151,
      "velocity": 0.28,
      "hand": "right"
    },
    {
      "midi": 69,
      "time": 10,
      "duration": 0.333,
      "velocity": 0.76,
      "hand": "right"
    },
    {
      "midi": 38,
      "time": 10.166,
      "duration": 0.333,
      "velocity": 0.9,
      "hand": "left"
    },
    {
      "midi": 47,
      "time": 10.166,
      "duration": 0.083,
      "velocity": 0.58,
      "hand": "left"
    },
    {
      "midi": 60,
      "time": 10.166,
      "duration": 0.319,
      "velocity": 0.7,
      "hand": "right"
    },
    {
      "midi": 62,
      "time": 10.166,
      "duration": 0.319,
      "velocity": 0.83,
      "hand": "right"
    },
    {
      "midi": 66,
      "time": 10.166,
      "duration": 0.152,
      "velocity": 0.69,
      "hand": "right"
    },
    {
      "midi": 51,
      "time": 10.333,
      "duration": 0.083,
      "velocity": 0.46,
      "hand": "left"
    },
    {
      "midi": 66,
      "time": 10.333,
      "duration": 0.333,
      "velocity": 0.69,
      "hand": "right"
    },
    {
      "midi": 50,
      "time": 10.5,
      "duration": 0.167,
      "velocity": 0.64,
      "hand": "left"
    },
    {
      "midi": 54,
      "time": 10.5,
      "duration": 0.167,
      "velocity": 0.67,
      "hand": "left"
    },
    {
      "midi": 60,
      "time": 10.5,
      "duration": 0.167,
      "velocity": 0.64,
      "hand": "right"
    },
    {
      "midi": 62,
      "time": 10.5,
      "duration": 0.151,
      "velocity": 0.55,
      "hand": "right"
    },
    {
      "midi": 43,
      "time": 10.666,
      "duration": 0.985,
      "velocity": 0.87,
      "hand": "left"
    },
    {
      "midi": 47,
      "time": 10.666,
      "duration": 0.083,
      "velocity": 0.77,
      "hand": "left"
    },
    {
      "midi": 71,
      "time": 10.666,
      "duration": 0.319,
      "velocity": 0.79,
      "hand": "right"
    },
    {
      "midi": 74,
      "time": 10.666,
      "duration": 0.652,
      "velocity": 0.71,
      "hand": "right"
    },
    {
      "midi": 79,
      "time": 10.666,
      "duration": 2.652,
      "velocity": 0.71,
      "hand": "right"
    },
    {
      "midi": 83,
      "time": 10.666,
      "duration": 0.083,
      "velocity": 0.63,
      "hand": "right"
    },
    {
      "midi": 51,
      "time": 11,
      "duration": 0.083,
      "velocity": 0.51,
      "hand": "left"
    },
    {
      "midi": 71,
      "time": 11,
      "duration": 0.151,
      "velocity": 0.65,
      "hand": "right"
    },
    {
      "midi": 67,
      "time": 11.166,
      "duration": 0.319,
      "velocity": 0.79,
      "hand": "right"
    },
    {
      "midi": 71,
      "time": 11.166,
      "duration": 0.485,
      "velocity": 0.83,
      "hand": "right"
    },
    {
      "midi": 38,
      "time": 11.333,
      "duration": 0.083,
      "velocity": 0.91,
      "hand": "left"
    },
    {
      "midi": 51,
      "time": 11.333,
      "duration": 0.083,
      "velocity": 0.74,
      "hand": "left"
    },
    {
      "midi": 62,
      "time": 11.333,
      "duration": 0.152,
      "velocity": 1,
      "hand": "right"
    },
    {
      "midi": 74,
      "time": 11.333,
      "duration": 1.318,
      "velocity": 0.57,
      "hand": "right"
    },
    {
      "midi": 62,
      "time": 11.5,
      "duration": 0.151,
      "velocity": 0.64,
      "hand": "right"
    },
    {
      "midi": 67,
      "time": 11.5,
      "duration": 0.318,
      "velocity": 0.67,
      "hand": "right"
    },
    {
      "midi": 43,
      "time": 11.666,
      "duration": 0.083,
      "velocity": 0.85,
      "hand": "left"
    },
    {
      "midi": 47,
      "time": 11.666,
      "duration": 0.083,
      "velocity": 0.67,
      "hand": "left"
    },
    {
      "midi": 62,
      "time": 11.666,
      "duration": 0.152,
      "velocity": 1,
      "hand": "right"
    },
    {
      "midi": 71,
      "time": 11.666,
      "duration": 0.319,
      "velocity": 0.72,
      "hand": "right"
    },
    {
      "midi": 62,
      "time": 11.833,
      "duration": 0.152,
      "velocity": 0.58,
      "hand": "right"
    },
    {
      "midi": 67,
      "time": 11.833,
      "duration": 0.152,
      "velocity": 0.59,
      "hand": "right"
    },
    {
      "midi": 43,
      "time": 12,
      "duration": 1.167,
      "velocity": 0.86,
      "hand": "left"
    },
    {
      "midi": 47,
      "time": 12,
      "duration": 0.083,
      "velocity": 0.83,
      "hand": "left"
    },
    {
      "midi": 62,
      "time": 12,
      "duration": 0.485,
      "velocity": 0.74,
      "hand": "right"
    },
    {
      "midi": 67,
      "time": 12,
      "duration": 0.318,
      "velocity": 1,
      "hand": "right"
    },
    {
      "midi": 71,
      "time": 12,
      "duration": 0.318,
      "velocity": 0.53,
      "hand": "right"
    },
    {
      "midi": 51,
      "time": 12.333,
      "duration": 0.083,
      "velocity": 0.43,
      "hand": "left"
    },
    {
      "midi": 67,
      "time": 12.333,
      "duration": 0.152,
      "velocity": 1,
      "hand": "right"
    },
    {
      "midi": 71,
      "time": 12.333,
      "duration": 0.152,
      "velocity": 0.81,
      "hand": "right"
    },
    {
      "midi": 59,
      "time": 12.5,
      "duration": 0.151,
      "velocity": 0.61,
      "hand": "left"
    },
    {
      "midi": 62,
      "time": 12.5,
      "duration": 0.318,
      "velocity": 0.84,
      "hand": "right"
    },
    {
      "midi": 67,
      "time": 12.5,
      "duration": 0.151,
      "velocity": 0.87,
      "hand": "right"
    },
    {
      "midi": 71,
      "time": 12.5,
      "duration": 0.318,
      "velocity": 0.79,
      "hand": "right"
    },
    {
      "midi": 38,
      "time": 12.666,
      "duration": 0.083,
      "velocity": 0.91,
      "hand": "left"
    },
    {
      "midi": 51,
      "time": 12.666,
      "duration": 0.083,
      "velocity": 0.72,
      "hand": "left"
    },
    {
      "midi": 67,
      "time": 12.666,
      "duration": 0.152,
      "velocity": 1,
      "hand": "right"
    },
    {
      "midi": 74,
      "time": 12.666,
      "duration": 0.652,
      "velocity": 0.57,
      "hand": "right"
    },
    {
      "midi": 59,
      "time": 12.833,
      "duration": 0.152,
      "velocity": 0.59,
      "hand": "left"
    },
    {
      "midi": 62,
      "time": 12.833,
      "duration": 0.152,
      "velocity": 0.63,
      "hand": "right"
    },
    {
      "midi": 67,
      "time": 12.833,
      "duration": 0.318,
      "velocity": 0.73,
      "hand": "right"
    },
    {
      "midi": 71,
      "time": 12.833,
      "duration": 0.152,
      "velocity": 0.58,
      "hand": "right"
    },
    {
      "midi": 51,
      "time": 13,
      "duration": 0.083,
      "velocity": 0.54,
      "hand": "left"
    },
    {
      "midi": 55,
      "time": 13,
      "duration": 0.318,
      "velocity": 0.69,
      "hand": "left"
    },
    {
      "midi": 62,
      "time": 13,
      "duration": 0.151,
      "velocity": 0.67,
      "hand": "right"
    },
    {
      "midi": 69,
      "time": 13,
      "duration": 0.333,
      "velocity": 1,
      "hand": "right"
    },
    {
      "midi": 71,
      "time": 13,
      "duration": 0.318,
      "velocity": 0.74,
      "hand": "right"
    },
    {
      "midi": 62,
      "time": 13.166,
      "duration": 0.152,
      "velocity": 0.64,
      "hand": "right"
    },
    {
      "midi": 67,
      "time": 13.166,
      "duration": 0.152,
      "velocity": 0.56,
      "hand": "right"
    },
    {
      "midi": 43,
      "time": 13.333,
      "duration": 0.985,
      "velocity": 0.9,
      "hand": "left"
    },
    {
      "midi": 47,
      "time": 13.333,
      "duration": 0.083,
      "velocity": 0.82,
      "hand": "left"
    },
    {
      "midi": 67,
      "time": 13.333,
      "duration": 0.485,
      "velocity": 1,
      "hand": "right"
    },
    {
      "midi": 71,
      "time": 13.333,
      "duration": 0.318,
      "velocity": 0.72,
      "hand": "right"
    },
    {
      "midi": 74,
      "time": 13.333,
      "duration": 0.652,
      "velocity": 0.72,
      "hand": "right"
    },
    {
      "midi": 79,
      "time": 13.333,
      "duration": 2.333,
      "velocity": 0.79,
      "hand": "right"
    },
    {
      "midi": 51,
      "time": 13.666,
      "duration": 0.083,
      "velocity": 0.44,
      "hand": "left"
    },
    {
      "midi": 71,
      "time": 13.666,
      "duration": 0.152,
      "velocity": 0.76,
      "hand": "right"
    },
    {
      "midi": 59,
      "time": 13.833,
      "duration": 0.318,
      "velocity": 0.61,
      "hand": "left"
    },
    {
      "midi": 62,
      "time": 13.833,
      "duration": 0.318,
      "velocity": 0.84,
      "hand": "right"
    },
    {
      "midi": 67,
      "time": 13.833,
      "duration": 0.652,
      "velocity": 0.87,
      "hand": "right"
    },
    {
      "midi": 71,
      "time": 13.833,
      "duration": 0.485,
      "velocity": 0.82,
      "hand": "right"
    },
    {
      "midi": 38,
      "time": 14,
      "duration": 0.083,
      "velocity": 0.91,
      "hand": "left"
    },
    {
      "midi": 51,
      "time": 14,
      "duration": 0.083,
      "velocity": 0.74,
      "hand": "left"
    },
    {
      "midi": 69,
      "time": 14,
      "duration": 0.333,
      "velocity": 1,
      "hand": "right"
    },
    {
      "midi": 74,
      "time": 14,
      "duration": 0.333,
      "velocity": 0.71,
      "hand": "right"
    },
    {
      "midi": 59,
      "time": 14.166,
      "duration": 0.152,
      "velocity": 0.61,
      "hand": "left"
    },
    {
      "midi": 62,
      "time": 14.166,
      "duration": 0.152,
      "velocity": 0.68,
      "hand": "right"
    },
    {
      "midi": 43,
      "time": 14.333,
      "duration": 0.083,
      "velocity": 0.86,
      "hand": "left"
    },
    {
      "midi": 47,
      "time": 14.333,
      "duration": 0.083,
      "velocity": 0.72,
      "hand": "left"
    },
    {
      "midi": 62,
      "time": 14.333,
      "duration": 0.152,
      "velocity": 0.65,
      "hand": "right"
    },
    {
      "midi": 71,
      "time": 14.333,
      "duration": 0.152,
      "velocity": 1,
      "hand": "right"
    },
    {
      "midi": 62,
      "time": 14.5,
      "duration": 0.151,
      "velocity": 0.65,
      "hand": "right"
    },
    {
      "midi": 67,
      "time": 14.5,
      "duration": 0.151,
      "velocity": 0.66,
      "hand": "right"
    },
    {
      "midi": 71,
      "time": 14.5,
      "duration": 0.151,
      "velocity": 0.48,
      "hand": "right"
    },
    {
      "midi": 43,
      "time": 14.666,
      "duration": 1,
      "velocity": 0.83,
      "hand": "left"
    },
    {
      "midi": 47,
      "time": 14.666,
      "duration": 0.083,
      "velocity": 0.73,
      "hand": "left"
    },
    {
      "midi": 62,
      "time": 14.666,
      "duration": 0.485,
      "velocity": 0.82,
      "hand": "right"
    },
    {
      "midi": 67,
      "time": 14.666,
      "duration": 0.485,
      "velocity": 0.87,
      "hand": "right"
    },
    {
      "midi": 71,
      "time": 14.666,
      "duration": 0.319,
      "velocity": 0.71,
      "hand": "right"
    },
    {
      "midi": 51,
      "time": 15,
      "duration": 0.083,
      "velocity": 0.52,
      "hand": "left"
    },
    {
      "midi": 69,
      "time": 15,
      "duration": 0.333,
      "velocity": 1,
      "hand": "right"
    },
    {
      "midi": 71,
      "time": 15,
      "duration": 0.151,
      "velocity": 0.81,
      "hand": "right"
    },
    {
      "midi": 62,
      "time": 15.166,
      "duration": 0.319,
      "velocity": 0.83,
      "hand": "right"
    },
    {
      "midi": 67,
      "time": 15.166,
      "duration": 0.152,
      "velocity": 0.87,
      "hand": "right"
    },
    {
      "midi": 71,
      "time": 15.166,
      "duration": 0.319,
      "velocity": 0.76,
      "hand": "right"
    },
    {
      "midi": 38,
      "time": 15.333,
      "duration": 0.083,
      "velocity": 0.91,
      "hand": "left"
    },
    {
      "midi": 51,
      "time": 15.333,
      "duration": 0.083,
      "velocity": 0.71,
      "hand": "left"
    },
    {
      "midi": 67,
      "time": 15.333,
      "duration": 0.152,
      "velocity": 1,
      "hand": "right"
    },
    {
      "midi": 74,
      "time": 15.333,
      "duration": 0.333,
      "velocity": 0.69,
      "hand": "right"
    },
    {
      "midi": 62,
      "time": 15.5,
      "duration": 0.485,
      "velocity": 0.71,
      "hand": "right"
    },
    {
      "midi": 67,
      "time": 15.5,
      "duration": 0.485,
      "velocity": 0.8,
      "hand": "right"
    },
    {
      "midi": 71,
      "time": 15.5,
      "duration": 0.151,
      "velocity": 0.59,
      "hand": "right"
    },
    {
      "midi": 51,
      "time": 15.666,
      "duration": 0.083,
      "velocity": 0.38,
      "hand": "left"
    },
    {
      "midi": 55,
      "time": 15.666,
      "duration": 0.319,
      "velocity": 0.68,
      "hand": "left"
    },
    {
      "midi": 66,
      "time": 15.666,
      "duration": 0.333,
      "velocity": 1,
      "hand": "right"
    },
    {
      "midi": 71,
      "time": 15.666,
      "duration": 0.319,
      "velocity": 0.76,
      "hand": "right"
    },
    {
      "midi": 43,
      "time": 15.833,
      "duration": 0.083,
      "velocity": 0.86,
      "hand": "left"
    },
    {
      "midi": 47,
      "time": 15.833,
      "duration": 0.083,
      "velocity": 0.39,
      "hand": "left"
    },
    {
      "midi": 43,
      "time": 16,
      "duration": 0.985,
      "velocity": 0.91,
      "hand": "left"
    },
    {
      "midi": 47,
      "time": 16,
      "duration": 0.985,
      "velocity": 0.86,
      "hand": "left"
    },
    {
      "midi": 71,
      "time": 16,
      "duration": 0.318,
      "velocity": 0.71,
      "hand": "right"
    },
    {
      "midi": 74,
      "time": 16,
      "duration": 0.651,
      "velocity": 0.71,
      "hand": "right"
    },
    {
      "midi": 79,
      "time": 16,
      "duration": 2.333,
      "velocity": 0.76,
      "hand": "right"
    },
    {
      "midi": 83,
      "time": 16,
      "duration": 4,
      "velocity": 0.63,
      "hand": "right"
    },
    {
      "midi": 51,
      "time": 16.333,
      "duration": 0.083,
      "velocity": 0.46,
      "hand": "left"
    },
    {
      "midi": 62,
      "time": 16.333,
      "duration": 0.167,
      "velocity": 1,
      "hand": "right"
    },
    {
      "midi": 71,
      "time": 16.333,
      "duration": 0.152,
      "velocity": 0.81,
      "hand": "right"
    },
    {
      "midi": 67,
      "time": 16.5,
      "duration": 0.318,
      "velocity": 0.73,
      "hand": "right"
    },
    {
      "midi": 71,
      "time": 16.5,
      "duration": 0.485,
      "velocity": 0.72,
      "hand": "right"
    },
    {
      "midi": 38,
      "time": 16.666,
      "duration": 0.083,
      "velocity": 0.91,
      "hand": "left"
    },
    {
      "midi": 51,
      "time": 16.666,
      "duration": 0.083,
      "velocity": 0.82,
      "hand": "left"
    },
    {
      "midi": 62,
      "time": 16.666,
      "duration": 0.152,
      "velocity": 1,
      "hand": "right"
    },
    {
      "midi": 74,
      "time": 16.666,
      "duration": 0.5,
      "velocity": 0.63,
      "hand": "right"
    },
    {
      "midi": 62,
      "time": 16.833,
      "duration": 0.152,
      "velocity": 0.59,
      "hand": "right"
    },
    {
      "midi": 67,
      "time": 16.833,
      "duration": 0.333,
      "velocity": 0.81,
      "hand": "right"
    },
    {
      "midi": 43,
      "time": 17,
      "duration": 0.083,
      "velocity": 0.89,
      "hand": "left"
    },
    {
      "midi": 47,
      "time": 17,
      "duration": 0.083,
      "velocity": 0.59,
      "hand": "left"
    },
    {
      "midi": 62,
      "time": 17,
      "duration": 0.151,
      "velocity": 1,
      "hand": "right"
    },
    {
      "midi": 71,
      "time": 17,
      "duration": 0.318,
      "velocity": 0.76,
      "hand": "right"
    },
    {
      "midi": 62,
      "time": 17.166,
      "duration": 0.152,
      "velocity": 0.58,
      "hand": "right"
    },
    {
      "midi": 43,
      "time": 17.333,
      "duration": 1.167,
      "velocity": 0.83,
      "hand": "left"
    },
    {
      "midi": 47,
      "time": 17.333,
      "duration": 0.083,
      "velocity": 0.8,
      "hand": "left"
    },
    {
      "midi": 62,
      "time": 17.333,
      "duration": 0.485,
      "velocity": 0.88,
      "hand": "right"
    },
    {
      "midi": 67,
      "time": 17.333,
      "duration": 0.318,
      "velocity": 1,
      "hand": "right"
    },
    {
      "midi": 71,
      "time": 17.333,
      "duration": 0.318,
      "velocity": 0.66,
      "hand": "right"
    },
    {
      "midi": 51,
      "time": 17.666,
      "duration": 0.083,
      "velocity": 0.5,
      "hand": "left"
    },
    {
      "midi": 67,
      "time": 17.666,
      "duration": 0.083,
      "velocity": 1,
      "hand": "right"
    },
    {
      "midi": 71,
      "time": 17.666,
      "duration": 0.152,
      "velocity": 0.81,
      "hand": "right"
    },
    {
      "midi": 62,
      "time": 17.833,
      "duration": 0.318,
      "velocity": 0.65,
      "hand": "right"
    },
    {
      "midi": 67,
      "time": 17.833,
      "duration": 0.152,
      "velocity": 0.91,
      "hand": "right"
    },
    {
      "midi": 71,
      "time": 17.833,
      "duration": 0.318,
      "velocity": 0.73,
      "hand": "right"
    },
    {
      "midi": 38,
      "time": 18,
      "duration": 0.083,
      "velocity": 0.91,
      "hand": "left"
    },
    {
      "midi": 51,
      "time": 18,
      "duration": 0.083,
      "velocity": 0.74,
      "hand": "left"
    },
    {
      "midi": 67,
      "time": 18,
      "duration": 0.333,
      "velocity": 1,
      "hand": "right"
    },
    {
      "midi": 74,
      "time": 18,
      "duration": 0.333,
      "velocity": 0.76,
      "hand": "right"
    },
    {
      "midi": 59,
      "time": 18.166,
      "duration": 0.167,
      "velocity": 0.66,
      "hand": "left"
    },
    {
      "midi": 62,
      "time": 18.166,
      "duration": 0.319,
      "velocity": 0.68,
      "hand": "right"
    },
    {
      "midi": 71,
      "time": 18.166,
      "duration": 0.152,
      "velocity": 0.56,
      "hand": "right"
    },
    {
      "midi": 51,
      "time": 18.333,
      "duration": 0.083,
      "velocity": 0.46,
      "hand": "left"
    },
    {
      "midi": 55,
      "time": 18.333,
      "duration": 0.318,
      "velocity": 0.63,
      "hand": "left"
    },
    {
      "midi": 69,
      "time": 18.333,
      "duration": 0.167,
      "velocity": 1,
      "hand": "right"
    },
    {
      "midi": 71,
      "time": 18.333,
      "duration": 0.152,
      "velocity": 0.76,
      "hand": "right"
    },
    {
      "midi": 59,
      "time": 18.5,
      "duration": 0.151,
      "velocity": 0.54,
      "hand": "left"
    },
    {
      "midi": 62,
      "time": 18.5,
      "duration": 0.151,
      "velocity": 0.61,
      "hand": "right"
    },
    {
      "midi": 67,
      "time": 18.5,
      "duration": 0.151,
      "velocity": 0.72,
      "hand": "right"
    },
    {
      "midi": 71,
      "time": 18.5,
      "duration": 0.151,
      "velocity": 0.61,
      "hand": "right"
    },
    {
      "midi": 43,
      "time": 18.666,
      "duration": 0.985,
      "velocity": 0.91,
      "hand": "left"
    },
    {
      "midi": 47,
      "time": 18.666,
      "duration": 0.083,
      "velocity": 0.8,
      "hand": "left"
    },
    {
      "midi": 67,
      "time": 18.666,
      "duration": 0.485,
      "velocity": 1,
      "hand": "right"
    },
    {
      "midi": 71,
      "time": 18.666,
      "duration": 0.319,
      "velocity": 0.73,
      "hand": "right"
    },
    {
      "midi": 74,
      "time": 18.666,
      "duration": 0.652,
      "velocity": 0.76,
      "hand": "right"
    },
    {
      "midi": 79,
      "time": 18.666,
      "duration": 2.167,
      "velocity": 0.76,
      "hand": "right"
    },
    {
      "midi": 51,
      "time": 19,
      "duration": 0.083,
      "velocity": 0.4,
      "hand": "left"
    },
    {
      "midi": 71,
      "time": 19,
      "duration": 0.151,
      "velocity": 0.74,
      "hand": "right"
    },
    {
      "midi": 59,
      "time": 19.166,
      "duration": 0.485,
      "velocity": 0.54,
      "hand": "left"
    },
    {
      "midi": 62,
      "time": 19.166,
      "duration": 0.152,
      "velocity": 0.71,
      "hand": "right"
    },
    {
      "midi": 67,
      "time": 19.166,
      "duration": 0.652,
      "velocity": 0.9,
      "hand": "right"
    },
    {
      "midi": 71,
      "time": 19.166,
      "duration": 0.319,
      "velocity": 0.66,
      "hand": "right"
    },
    {
      "midi": 38,
      "time": 19.333,
      "duration": 0.083,
      "velocity": 0.91,
      "hand": "left"
    },
    {
      "midi": 51,
      "time": 19.333,
      "duration": 0.083,
      "velocity": 0.8,
      "hand": "left"
    },
    {
      "midi": 62,
      "time": 19.333,
      "duration": 0.318,
      "velocity": 0.7,
      "hand": "right"
    },
    {
      "midi": 69,
      "time": 19.333,
      "duration": 0.333,
      "velocity": 1,
      "hand": "right"
    },
    {
      "midi": 74,
      "time": 19.333,
      "duration": 0.333,
      "velocity": 0.76,
      "hand": "right"
    },
    {
      "midi": 71,
      "time": 19.5,
      "duration": 0.151,
      "velocity": 0.76,
      "hand": "right"
    },
    {
      "midi": 43,
      "time": 19.666,
      "duration": 0.083,
      "velocity": 0.87,
      "hand": "left"
    },
    {
      "midi": 47,
      "time": 19.666,
      "duration": 0.083,
      "velocity": 0.78,
      "hand": "left"
    },
    {
      "midi": 62,
      "time": 19.666,
      "duration": 0.152,
      "velocity": 0.64,
      "hand": "right"
    },
    {
      "midi": 71,
      "time": 19.666,
      "duration": 0.152,
      "velocity": 1,
      "hand": "right"
    },
    {
      "midi": 59,
      "time": 19.833,
      "duration": 0.167,
      "velocity": 0.63,
      "hand": "left"
    },
    {
      "midi": 62,
      "time": 19.833,
      "duration": 0.152,
      "velocity": 0.73,
      "hand": "right"
    },
    {
      "midi": 67,
      "time": 19.833,
      "duration": 0.167,
      "velocity": 0.7,
      "hand": "right"
    },
    {
      "midi": 71,
      "time": 19.833,
      "duration": 0.167,
      "velocity": 0.56,
      "hand": "right"
    },
    {
      "midi": 38,
      "time": 20,
      "duration": 0.651,
      "velocity": 0.85,
      "hand": "left"
    },
    {
      "midi": 47,
      "time": 20,
      "duration": 0.083,
      "velocity": 0.74,
      "hand": "left"
    },
    {
      "midi": 62,
      "time": 20,
      "duration": 0.485,
      "velocity": 0.85,
      "hand": "right"
    },
    {
      "midi": 66,
      "time": 20,
      "duration": 0.318,
      "velocity": 0.71,
      "hand": "right"
    },
    {
      "midi": 69,
      "time": 20,
      "duration": 0.651,
      "velocity": 0.71,
      "hand": "right"
    },
    {
      "midi": 74,
      "time": 20,
      "duration": 1.333,
      "velocity": 0.63,
      "hand": "right"
    },
    {
      "midi": 51,
      "time": 20.333,
      "duration": 0.083,
      "velocity": 0.54,
      "hand": "left"
    },
    {
      "midi": 66,
      "time": 20.333,
      "duration": 0.152,
      "velocity": 0.76,
      "hand": "right"
    },
    {
      "midi": 54,
      "time": 20.5,
      "duration": 0.151,
      "velocity": 0.64,
      "hand": "left"
    },
    {
      "midi": 60,
      "time": 20.5,
      "duration": 0.318,
      "velocity": 0.9,
      "hand": "right"
    },
    {
      "midi": 62,
      "time": 20.5,
      "duration": 0.318,
      "velocity": 0.89,
      "hand": "right"
    },
    {
      "midi": 66,
      "time": 20.5,
      "duration": 0.318,
      "velocity": 0.78,
      "hand": "right"
    },
    {
      "midi": 38,
      "time": 20.666,
      "duration": 0.083,
      "velocity": 0.91,
      "hand": "left"
    },
    {
      "midi": 50,
      "time": 20.666,
      "duration": 0.319,
      "velocity": 0.68,
      "hand": "left"
    },
    {
      "midi": 69,
      "time": 20.666,
      "duration": 0.333,
      "velocity": 0.63,
      "hand": "right"
    },
    {
      "midi": 38,
      "time": 20.833,
      "duration": 0.333,
      "velocity": 0.9,
      "hand": "left"
    },
    {
      "midi": 47,
      "time": 20.833,
      "duration": 0.083,
      "velocity": 0.58,
      "hand": "left"
    },
    {
      "midi": 60,
      "time": 20.833,
      "duration": 0.318,
      "velocity": 0.7,
      "hand": "right"
    },
    {
      "midi": 62,
      "time": 20.833,
      "duration": 0.318,
      "velocity": 0.83,
      "hand": "right"
    },
    {
      "midi": 66,
      "time": 20.833,
      "duration": 0.152,
      "velocity": 0.69,
      "hand": "right"
    },
    {
      "midi": 51,
      "time": 21,
      "duration": 0.083,
      "velocity": 0.46,
      "hand": "left"
    },
    {
      "midi": 66,
      "time": 21,
      "duration": 0.318,
      "velocity": 0.68,
      "hand": "right"
    },
    {
      "midi": 50,
      "time": 21.166,
      "duration": 0.152,
      "velocity": 0.64,
      "hand": "left"
    },
    {
      "midi": 54,
      "time": 21.166,
      "duration": 0.152,
      "velocity": 0.67,
      "hand": "left"
    },
    {
      "midi": 60,
      "time": 21.166,
      "duration": 0.152,
      "velocity": 0.64,
      "hand": "right"
    },
    {
      "midi": 62,
      "time": 21.166,
      "duration": 0.152,
      "velocity": 0.55,
      "hand": "right"
    },
    {
      "midi": 38,
      "time": 21.333,
      "duration": 0.652,
      "velocity": 0.87,
      "hand": "left"
    },
    {
      "midi": 47,
      "time": 21.333,
      "duration": 0.083,
      "velocity": 0.77,
      "hand": "left"
    },
    {
      "midi": 66,
      "time": 21.333,
      "duration": 0.318,
      "velocity": 0.72,
      "hand": "right"
    },
    {
      "midi": 69,
      "time": 21.333,
      "duration": 0.318,
      "velocity": 0.71,
      "hand": "right"
    },
    {
      "midi": 72,
      "time": 21.333,
      "duration": 0.652,
      "velocity": 0.77,
      "hand": "right"
    },
    {
      "midi": 78,
      "time": 21.333,
      "duration": 1.333,
      "velocity": 0.63,
      "hand": "right"
    },
    {
      "midi": 51,
      "time": 21.666,
      "duration": 0.083,
      "velocity": 0.51,
      "hand": "left"
    },
    {
      "midi": 66,
      "time": 21.666,
      "duration": 0.152,
      "velocity": 0.68,
      "hand": "right"
    },
    {
      "midi": 69,
      "time": 21.666,
      "duration": 0.167,
      "velocity": 1,
      "hand": "right"
    },
    {
      "midi": 62,
      "time": 21.833,
      "duration": 0.318,
      "velocity": 0.79,
      "hand": "right"
    },
    {
      "midi": 66,
      "time": 21.833,
      "duration": 0.485,
      "velocity": 0.83,
      "hand": "right"
    },
    {
      "midi": 38,
      "time": 22,
      "duration": 0.083,
      "velocity": 0.91,
      "hand": "left"
    },
    {
      "midi": 51,
      "time": 22,
      "duration": 0.083,
      "velocity": 0.74,
      "hand": "left"
    },
    {
      "midi": 64,
      "time": 22,
      "duration": 0.167,
      "velocity": 1,
      "hand": "right"
    },
    {
      "midi": 72,
      "time": 22,
      "duration": 0.5,
      "velocity": 0.5,
      "hand": "right"
    },
    {
      "midi": 60,
      "time": 22.166,
      "duration": 0.152,
      "velocity": 0.64,
      "hand": "right"
    },
    {
      "midi": 62,
      "time": 22.166,
      "duration": 0.319,
      "velocity": 0.67,
      "hand": "right"
    },
    {
      "midi": 38,
      "time": 22.333,
      "duration": 0.083,
      "velocity": 0.85,
      "hand": "left"
    },
    {
      "midi": 47,
      "time": 22.333,
      "duration": 0.083,
      "velocity": 0.67,
      "hand": "left"
    },
    {
      "midi": 60,
      "time": 22.333,
      "duration": 0.152,
      "velocity": 0.54,
      "hand": "right"
    },
    {
      "midi": 66,
      "time": 22.333,
      "duration": 0.333,
      "velocity": 1,
      "hand": "right"
    },
    {
      "midi": 60,
      "time": 22.5,
      "duration": 0.167,
      "velocity": 0.58,
      "hand": "right"
    },
    {
      "midi": 62,
      "time": 22.5,
      "duration": 0.151,
      "velocity": 0.59,
      "hand": "right"
    },
    {
      "midi": 43,
      "time": 22.666,
      "duration": 1.319,
      "velocity": 0.86,
      "hand": "left"
    },
    {
      "midi": 47,
      "time": 22.666,
      "duration": 0.083,
      "velocity": 0.83,
      "hand": "left"
    },
    {
      "midi": 67,
      "time": 22.666,
      "duration": 0.485,
      "velocity": 1,
      "hand": "right"
    },
    {
      "midi": 71,
      "time": 22.666,
      "duration": 0.319,
      "velocity": 0.71,
      "hand": "right"
    },
    {
      "midi": 74,
      "time": 22.666,
      "duration": 0.652,
      "velocity": 0.76,
      "hand": "right"
    },
    {
      "midi": 79,
      "time": 22.666,
      "duration": 2.652,
      "velocity": 0.72,
      "hand": "right"
    },
    {
      "midi": 51,
      "time": 23,
      "duration": 0.083,
      "velocity": 0.43,
      "hand": "left"
    },
    {
      "midi": 71,
      "time": 23,
      "duration": 0.151,
      "velocity": 0.76,
      "hand": "right"
    },
    {
      "midi": 59,
      "time": 23.166,
      "duration": 0.152,
      "velocity": 0.61,
      "hand": "left"
    },
    {
      "midi": 62,
      "time": 23.166,
      "duration": 0.152,
      "velocity": 0.84,
      "hand": "right"
    },
    {
      "midi": 67,
      "time": 23.166,
      "duration": 0.319,
      "velocity": 0.87,
      "hand": "right"
    },
    {
      "midi": 71,
      "time": 23.166,
      "duration": 0.319,
      "velocity": 0.79,
      "hand": "right"
    },
    {
      "midi": 38,
      "time": 23.333,
      "duration": 0.083,
      "velocity": 0.91,
      "hand": "left"
    },
    {
      "midi": 51,
      "time": 23.333,
      "duration": 0.083,
      "velocity": 0.72,
      "hand": "left"
    },
    {
      "midi": 62,
      "time": 23.333,
      "duration": 0.152,
      "velocity": 1,
      "hand": "right"
    },
    {
      "midi": 74,
      "time": 23.333,
      "duration": 0.333,
      "velocity": 0.76,
      "hand": "right"
    },
    {
      "midi": 59,
      "time": 23.5,
      "duration": 0.151,
      "velocity": 0.59,
      "hand": "left"
    },
    {
      "midi": 62,
      "time": 23.5,
      "duration": 0.151,
      "velocity": 0.63,
      "hand": "right"
    },
    {
      "midi": 67,
      "time": 23.5,
      "duration": 0.318,
      "velocity": 0.73,
      "hand": "right"
    },
    {
      "midi": 71,
      "time": 23.5,
      "duration": 0.151,
      "velocity": 0.58,
      "hand": "right"
    },
    {
      "midi": 51,
      "time": 23.666,
      "duration": 0.083,
      "velocity": 0.54,
      "hand": "left"
    },
    {
      "midi": 55,
      "time": 23.666,
      "duration": 0.319,
      "velocity": 0.69,
      "hand": "left"
    },
    {
      "midi": 62,
      "time": 23.666,
      "duration": 0.152,
      "velocity": 1,
      "hand": "right"
    },
    {
      "midi": 71,
      "time": 23.666,
      "duration": 0.319,
      "velocity": 0.72,
      "hand": "right"
    },
    {
      "midi": 62,
      "time": 23.833,
      "duration": 0.152,
      "velocity": 0.64,
      "hand": "right"
    },
    {
      "midi": 67,
      "time": 23.833,
      "duration": 0.152,
      "velocity": 0.56,
      "hand": "right"
    },
    {
      "midi": 43,
      "time": 24,
      "duration": 0.667,
      "velocity": 0.9,
      "hand": "left"
    },
    {
      "midi": 47,
      "time": 24,
      "duration": 0.083,
      "velocity": 0.82,
      "hand": "left"
    },
    {
      "midi": 62,
      "time": 24,
      "duration": 0.485,
      "velocity": 0.87,
      "hand": "right"
    },
    {
      "midi": 67,
      "time": 24,
      "duration": 0.318,
      "velocity": 1,
      "hand": "right"
    },
    {
      "midi": 71,
      "time": 24,
      "duration": 0.318,
      "velocity": 0.72,
      "hand": "right"
    },
    {
      "midi": 51,
      "time": 24.333,
      "duration": 0.083,
      "velocity": 0.44,
      "hand": "left"
    },
    {
      "midi": 67,
      "time": 24.333,
      "duration": 0.152,
      "velocity": 1,
      "hand": "right"
    },
    {
      "midi": 71,
      "time": 24.333,
      "duration": 0.152,
      "velocity": 0.83,
      "hand": "right"
    },
    {
      "midi": 59,
      "time": 24.5,
      "duration": 0.318,
      "velocity": 0.61,
      "hand": "left"
    },
    {
      "midi": 62,
      "time": 24.5,
      "duration": 0.318,
      "velocity": 0.84,
      "hand": "right"
    },
    {
      "midi": 67,
      "time": 24.5,
      "duration": 0.151,
      "velocity": 0.87,
      "hand": "right"
    },
    {
      "midi": 71,
      "time": 24.5,
      "duration": 0.485,
      "velocity": 0.82,
      "hand": "right"
    },
    {
      "midi": 38,
      "time": 24.666,
      "duration": 0.083,
      "velocity": 0.91,
      "hand": "left"
    },
    {
      "midi": 51,
      "time": 24.666,
      "duration": 0.083,
      "velocity": 0.74,
      "hand": "left"
    },
    {
      "midi": 67,
      "time": 24.666,
      "duration": 0.167,
      "velocity": 1,
      "hand": "right"
    },
    {
      "midi": 74,
      "time": 24.666,
      "duration": 0.167,
      "velocity": 0.86,
      "hand": "right"
    },
    {
      "midi": 59,
      "time": 24.833,
      "duration": 0.152,
      "velocity": 0.61,
      "hand": "left"
    },
    {
      "midi": 62,
      "time": 24.833,
      "duration": 0.152,
      "velocity": 0.68,
      "hand": "right"
    },
    {
      "midi": 43,
      "time": 25,
      "duration": 0.083,
      "velocity": 0.86,
      "hand": "left"
    },
    {
      "midi": 47,
      "time": 25,
      "duration": 0.083,
      "velocity": 0.72,
      "hand": "left"
    },
    {
      "midi": 62,
      "time": 25,
      "duration": 0.151,
      "velocity": 0.65,
      "hand": "right"
    },
    {
      "midi": 69,
      "time": 25,
      "duration": 0.167,
      "velocity": 1,
      "hand": "right"
    },
    {
      "midi": 71,
      "time": 25,
      "duration": 0.151,
      "velocity": 0.81,
      "hand": "right"
    },
    {
      "midi": 62,
      "time": 25.166,
      "duration": 0.152,
      "velocity": 0.65,
      "hand": "right"
    },
    {
      "midi": 67,
      "time": 25.166,
      "duration": 0.152,
      "velocity": 0.66,
      "hand": "right"
    },
    {
      "midi": 71,
      "time": 25.166,
      "duration": 0.152,
      "velocity": 0.48,
      "hand": "right"
    },
    {
      "midi": 43,
      "time": 25.333,
      "duration": 1.152,
      "velocity": 0.83,
      "hand": "left"
    },
    {
      "midi": 47,
      "time": 25.333,
      "duration": 0.083,
      "velocity": 0.73,
      "hand": "left"
    },
    {
      "midi": 67,
      "time": 25.333,
      "duration": 0.485,
      "velocity": 1,
      "hand": "right"
    },
    {
      "midi": 71,
      "time": 25.333,
      "duration": 0.318,
      "velocity": 0.71,
      "hand": "right"
    },
    {
      "midi": 74,
      "time": 25.333,
      "duration": 0.652,
      "velocity": 0.51,
      "hand": "right"
    },
    {
      "midi": 79,
      "time": 25.333,
      "duration": 2.333,
      "velocity": 0.72,
      "hand": "right"
    },
    {
      "midi": 51,
      "time": 25.666,
      "duration": 0.083,
      "velocity": 0.52,
      "hand": "left"
    },
    {
      "midi": 71,
      "time": 25.666,
      "duration": 0.152,
      "velocity": 0.83,
      "hand": "right"
    },
    {
      "midi": 62,
      "time": 25.833,
      "duration": 0.318,
      "velocity": 0.83,
      "hand": "right"
    },
    {
      "midi": 67,
      "time": 25.833,
      "duration": 0.318,
      "velocity": 0.87,
      "hand": "right"
    },
    {
      "midi": 71,
      "time": 25.833,
      "duration": 0.318,
      "velocity": 0.76,
      "hand": "right"
    },
    {
      "midi": 38,
      "time": 26,
      "duration": 0.083,
      "velocity": 0.91,
      "hand": "left"
    },
    {
      "midi": 51,
      "time": 26,
      "duration": 0.083,
      "velocity": 0.71,
      "hand": "left"
    },
    {
      "midi": 69,
      "time": 26,
      "duration": 0.333,
      "velocity": 1,
      "hand": "right"
    },
    {
      "midi": 74,
      "time": 26,
      "duration": 0.333,
      "velocity": 0.74,
      "hand": "right"
    },
    {
      "midi": 62,
      "time": 26.166,
      "duration": 0.485,
      "velocity": 0.71,
      "hand": "right"
    },
    {
      "midi": 67,
      "time": 26.166,
      "duration": 0.485,
      "velocity": 0.8,
      "hand": "right"
    },
    {
      "midi": 71,
      "time": 26.166,
      "duration": 0.152,
      "velocity": 0.59,
      "hand": "right"
    },
    {
      "midi": 51,
      "time": 26.333,
      "duration": 0.083,
      "velocity": 0.38,
      "hand": "left"
    },
    {
      "midi": 55,
      "time": 26.333,
      "duration": 0.318,
      "velocity": 0.68,
      "hand": "left"
    },
    {
      "midi": 71,
      "time": 26.333,
      "duration": 0.318,
      "velocity": 1,
      "hand": "right"
    },
    {
      "midi": 43,
      "time": 26.5,
      "duration": 0.083,
      "velocity": 0.86,
      "hand": "left"
    },
    {
      "midi": 47,
      "time": 26.5,
      "duration": 0.083,
      "velocity": 0.39,
      "hand": "left"
    },
    {
      "midi": 43,
      "time": 26.666,
      "duration": 0.667,
      "velocity": 0.91,
      "hand": "left"
    },
    {
      "midi": 47,
      "time": 26.666,
      "duration": 0.083,
      "velocity": 0.86,
      "hand": "left"
    },
    {
      "midi": 67,
      "time": 26.666,
      "duration": 0.485,
      "velocity": 0.85,
      "hand": "right"
    },
    {
      "midi": 71,
      "time": 26.666,
      "duration": 0.319,
      "velocity": 0.71,
      "hand": "right"
    },
    {
      "midi": 74,
      "time": 26.666,
      "duration": 0.652,
      "velocity": 0.71,
      "hand": "right"
    },
    {
      "midi": 83,
      "time": 26.666,
      "duration": 5.333,
      "velocity": 0.63,
      "hand": "right"
    },
    {
      "midi": 51,
      "time": 27,
      "duration": 0.083,
      "velocity": 0.46,
      "hand": "left"
    },
    {
      "midi": 69,
      "time": 27,
      "duration": 0.333,
      "velocity": 1,
      "hand": "right"
    },
    {
      "midi": 71,
      "time": 27,
      "duration": 0.151,
      "velocity": 0.81,
      "hand": "right"
    },
    {
      "midi": 67,
      "time": 27.166,
      "duration": 0.152,
      "velocity": 0.73,
      "hand": "right"
    },
    {
      "midi": 71,
      "time": 27.166,
      "duration": 0.485,
      "velocity": 0.72,
      "hand": "right"
    },
    {
      "midi": 38,
      "time": 27.333,
      "duration": 0.083,
      "velocity": 0.91,
      "hand": "left"
    },
    {
      "midi": 51,
      "time": 27.333,
      "duration": 0.083,
      "velocity": 0.82,
      "hand": "left"
    },
    {
      "midi": 67,
      "time": 27.333,
      "duration": 0.152,
      "velocity": 1,
      "hand": "right"
    },
    {
      "midi": 74,
      "time": 27.333,
      "duration": 0.333,
      "velocity": 0.74,
      "hand": "right"
    },
    {
      "midi": 62,
      "time": 27.5,
      "duration": 0.318,
      "velocity": 0.59,
      "hand": "right"
    },
    {
      "midi": 67,
      "time": 27.5,
      "duration": 0.333,
      "velocity": 0.81,
      "hand": "right"
    },
    {
      "midi": 43,
      "time": 27.666,
      "duration": 0.083,
      "velocity": 0.89,
      "hand": "left"
    },
    {
      "midi": 47,
      "time": 27.666,
      "duration": 0.083,
      "velocity": 0.59,
      "hand": "left"
    },
    {
      "midi": 66,
      "time": 27.666,
      "duration": 0.333,
      "velocity": 1,
      "hand": "right"
    },
    {
      "midi": 71,
      "time": 27.666,
      "duration": 0.319,
      "velocity": 0.76,
      "hand": "right"
    },
    {
      "midi": 62,
      "time": 27.833,
      "duration": 0.152,
      "velocity": 0.58,
      "hand": "right"
    },
    {
      "midi": 43,
      "time": 28,
      "duration": 1.318,
      "velocity": 0.83,
      "hand": "left"
    },
    {
      "midi": 47,
      "time": 28,
      "duration": 0.083,
      "velocity": 0.8,
      "hand": "left"
    },
    {
      "midi": 67,
      "time": 28,
      "duration": 0.485,
      "velocity": 0.82,
      "hand": "right"
    },
    {
      "midi": 71,
      "time": 28,
      "duration": 0.318,
      "velocity": 0.68,
      "hand": "right"
    },
    {
      "midi": 74,
      "time": 28,
      "duration": 0.651,
      "velocity": 0.68,
      "hand": "right"
    },
    {
      "midi": 79,
      "time": 28,
      "duration": 2.333,
      "velocity": 0.72,
      "hand": "right"
    },
    {
      "midi": 51,
      "time": 28.333,
      "duration": 0.083,
      "velocity": 0.5,
      "hand": "left"
    },
    {
      "midi": 62,
      "time": 28.333,
      "duration": 0.152,
      "velocity": 1,
      "hand": "right"
    },
    {
      "midi": 71,
      "time": 28.333,
      "duration": 0.152,
      "velocity": 0.69,
      "hand": "right"
    },
    {
      "midi": 62,
      "time": 28.5,
      "duration": 0.151,
      "velocity": 0.65,
      "hand": "right"
    },
    {
      "midi": 67,
      "time": 28.5,
      "duration": 0.651,
      "velocity": 0.91,
      "hand": "right"
    },
    {
      "midi": 71,
      "time": 28.5,
      "duration": 0.318,
      "velocity": 0.73,
      "hand": "right"
    },
    {
      "midi": 38,
      "time": 28.666,
      "duration": 0.083,
      "velocity": 0.91,
      "hand": "left"
    },
    {
      "midi": 51,
      "time": 28.666,
      "duration": 0.083,
      "velocity": 0.74,
      "hand": "left"
    },
    {
      "midi": 62,
      "time": 28.666,
      "duration": 0.152,
      "velocity": 1,
      "hand": "right"
    },
    {
      "midi": 74,
      "time": 28.666,
      "duration": 0.167,
      "velocity": 0.86,
      "hand": "right"
    },
    {
      "midi": 59,
      "time": 28.833,
      "duration": 0.167,
      "velocity": 0.66,
      "hand": "left"
    },
    {
      "midi": 62,
      "time": 28.833,
      "duration": 0.152,
      "velocity": 0.68,
      "hand": "right"
    },
    {
      "midi": 71,
      "time": 28.833,
      "duration": 0.152,
      "velocity": 0.56,
      "hand": "right"
    },
    {
      "midi": 51,
      "time": 29,
      "duration": 0.083,
      "velocity": 0.46,
      "hand": "left"
    },
    {
      "midi": 55,
      "time": 29,
      "duration": 0.318,
      "velocity": 0.63,
      "hand": "left"
    },
    {
      "midi": 62,
      "time": 29,
      "duration": 0.151,
      "velocity": 1,
      "hand": "right"
    },
    {
      "midi": 71,
      "time": 29,
      "duration": 0.151,
      "velocity": 0.74,
      "hand": "right"
    },
    {
      "midi": 59,
      "time": 29.166,
      "duration": 0.152,
      "velocity": 0.54,
      "hand": "left"
    },
    {
      "midi": 62,
      "time": 29.166,
      "duration": 0.152,
      "velocity": 0.61,
      "hand": "right"
    },
    {
      "midi": 67,
      "time": 29.166,
      "duration": 0.152,
      "velocity": 0.72,
      "hand": "right"
    },
    {
      "midi": 71,
      "time": 29.166,
      "duration": 0.152,
      "velocity": 0.61,
      "hand": "right"
    },
    {
      "midi": 43,
      "time": 29.333,
      "duration": 0.667,
      "velocity": 0.91,
      "hand": "left"
    },
    {
      "midi": 47,
      "time": 29.333,
      "duration": 0.083,
      "velocity": 0.8,
      "hand": "left"
    },
    {
      "midi": 62,
      "time": 29.333,
      "duration": 0.485,
      "velocity": 0.87,
      "hand": "right"
    },
    {
      "midi": 67,
      "time": 29.333,
      "duration": 0.318,
      "velocity": 1,
      "hand": "right"
    },
    {
      "midi": 71,
      "time": 29.333,
      "duration": 0.318,
      "velocity": 0.73,
      "hand": "right"
    },
    {
      "midi": 51,
      "time": 29.666,
      "duration": 0.083,
      "velocity": 0.4,
      "hand": "left"
    },
    {
      "midi": 67,
      "time": 29.666,
      "duration": 0.152,
      "velocity": 1,
      "hand": "right"
    },
    {
      "midi": 71,
      "time": 29.666,
      "duration": 0.152,
      "velocity": 0.81,
      "hand": "right"
    },
    {
      "midi": 59,
      "time": 29.833,
      "duration": 0.485,
      "velocity": 0.54,
      "hand": "left"
    },
    {
      "midi": 62,
      "time": 29.833,
      "duration": 0.152,
      "velocity": 0.71,
      "hand": "right"
    },
    {
      "midi": 67,
      "time": 29.833,
      "duration": 0.152,
      "velocity": 0.9,
      "hand": "right"
    },
    {
      "midi": 71,
      "time": 29.833,
      "duration": 0.318,
      "velocity": 0.66,
      "hand": "right"
    },
    {
      "midi": 38,
      "time": 30,
      "duration": 0.083,
      "velocity": 0.91,
      "hand": "left"
    },
    {
      "midi": 51,
      "time": 30,
      "duration": 0.083,
      "velocity": 0.8,
      "hand": "left"
    },
    {
      "midi": 62,
      "time": 30,
      "duration": 0.318,
      "velocity": 0.7,
      "hand": "right"
    },
    {
      "midi": 67,
      "time": 30,
      "duration": 0.167,
      "velocity": 1,
      "hand": "right"
    },
    {
      "midi": 74,
      "time": 30,
      "duration": 0.167,
      "velocity": 0.79,
      "hand": "right"
    },
    {
      "midi": 71,
      "time": 30.166,
      "duration": 0.152,
      "velocity": 0.53,
      "hand": "right"
    },
    {
      "midi": 43,
      "time": 30.333,
      "duration": 0.083,
      "velocity": 0.87,
      "hand": "left"
    },
    {
      "midi": 47,
      "time": 30.333,
      "duration": 0.083,
      "velocity": 0.78,
      "hand": "left"
    },
    {
      "midi": 62,
      "time": 30.333,
      "duration": 0.152,
      "velocity": 0.64,
      "hand": "right"
    },
    {
      "midi": 69,
      "time": 30.333,
      "duration": 0.167,
      "velocity": 1,
      "hand": "right"
    },
    {
      "midi": 71,
      "time": 30.333,
      "duration": 0.152,
      "velocity": 0.76,
      "hand": "right"
    },
    {
      "midi": 59,
      "time": 30.5,
      "duration": 0.151,
      "velocity": 0.63,
      "hand": "left"
    },
    {
      "midi": 62,
      "time": 30.5,
      "duration": 0.151,
      "velocity": 0.73,
      "hand": "right"
    },
    {
      "midi": 67,
      "time": 30.5,
      "duration": 0.151,
      "velocity": 0.7,
      "hand": "right"
    },
    {
      "midi": 71,
      "time": 30.5,
      "duration": 0.151,
      "velocity": 0.56,
      "hand": "right"
    },
    {
      "midi": 43,
      "time": 30.666,
      "duration": 0.819,
      "velocity": 0.85,
      "hand": "left"
    },
    {
      "midi": 47,
      "time": 30.666,
      "duration": 0.083,
      "velocity": 0.74,
      "hand": "left"
    },
    {
      "midi": 67,
      "time": 30.666,
      "duration": 0.485,
      "velocity": 1,
      "hand": "right"
    },
    {
      "midi": 71,
      "time": 30.666,
      "duration": 0.319,
      "velocity": 0.65,
      "hand": "right"
    },
    {
      "midi": 74,
      "time": 30.666,
      "duration": 0.652,
      "velocity": 0.57,
      "hand": "right"
    },
    {
      "midi": 79,
      "time": 30.666,
      "duration": 1.833,
      "velocity": 0.76,
      "hand": "right"
    },
    {
      "midi": 51,
      "time": 31,
      "duration": 0.083,
      "velocity": 0.54,
      "hand": "left"
    },
    {
      "midi": 71,
      "time": 31,
      "duration": 0.151,
      "velocity": 0.72,
      "hand": "right"
    },
    {
      "midi": 59,
      "time": 31.166,
      "duration": 0.152,
      "velocity": 0.64,
      "hand": "left"
    },
    {
      "midi": 62,
      "time": 31.166,
      "duration": 0.319,
      "velocity": 0.9,
      "hand": "right"
    },
    {
      "midi": 67,
      "time": 31.166,
      "duration": 0.319,
      "velocity": 0.89,
      "hand": "right"
    },
    {
      "midi": 71,
      "time": 31.166,
      "duration": 0.319,
      "velocity": 0.78,
      "hand": "right"
    },
    {
      "midi": 38,
      "time": 31.333,
      "duration": 0.083,
      "velocity": 0.91,
      "hand": "left"
    },
    {
      "midi": 51,
      "time": 31.333,
      "duration": 0.083,
      "velocity": 0.78,
      "hand": "left"
    },
    {
      "midi": 69,
      "time": 31.333,
      "duration": 0.333,
      "velocity": 1,
      "hand": "right"
    },
    {
      "midi": 74,
      "time": 31.333,
      "duration": 0.333,
      "velocity": 0.72,
      "hand": "right"
    },
    {
      "midi": 43,
      "time": 31.5,
      "duration": 0.333,
      "velocity": 0.9,
      "hand": "left"
    },
    {
      "midi": 47,
      "time": 31.5,
      "duration": 0.083,
      "velocity": 0.58,
      "hand": "left"
    },
    {
      "midi": 62,
      "time": 31.5,
      "duration": 0.318,
      "velocity": 0.7,
      "hand": "right"
    },
    {
      "midi": 67,
      "time": 31.5,
      "duration": 0.318,
      "velocity": 0.83,
      "hand": "right"
    },
    {
      "midi": 71,
      "time": 31.5,
      "duration": 0.151,
      "velocity": 0.69,
      "hand": "right"
    },
    {
      "midi": 51,
      "time": 31.666,
      "duration": 0.083,
      "velocity": 0.46,
      "hand": "left"
    },
    {
      "midi": 55,
      "time": 31.666,
      "duration": 0.152,
      "velocity": 0.65,
      "hand": "left"
    },
    {
      "midi": 71,
      "time": 31.666,
      "duration": 2,
      "velocity": 1,
      "hand": "right"
    },
    {
      "midi": 55,
      "time": 31.833,
      "duration": 0.167,
      "velocity": 0.64,
      "hand": "left"
    },
    {
      "midi": 59,
      "time": 31.833,
      "duration": 0.167,
      "velocity": 0.67,
      "hand": "left"
    },
    {
      "midi": 62,
      "time": 31.833,
      "duration": 0.152,
      "velocity": 0.64,
      "hand": "right"
    },
    {
      "midi": 67,
      "time": 31.833,
      "duration": 0.167,
      "velocity": 0.55,
      "hand": "right"
    },
    {
      "midi": 38,
      "time": 32,
      "duration": 0.651,
      "velocity": 0.87,
      "hand": "left"
    },
    {
      "midi": 47,
      "time": 32,
      "duration": 0.083,
      "velocity": 0.77,
      "hand": "left"
    },
    {
      "midi": 69,
      "time": 32,
      "duration": 1.318,
      "velocity": 0.71,
      "hand": "right"
    },
    {
      "midi": 72,
      "time": 32,
      "duration": 0.651,
      "velocity": 0.71,
      "hand": "right"
    },
    {
      "midi": 74,
      "time": 32,
      "duration": 0.083,
      "velocity": 0.63,
      "hand": "right"
    },
    {
      "midi": 78,
      "time": 32,
      "duration": 2.667,
      "velocity": 0.63,
      "hand": "right"
    },
    {
      "midi": 51,
      "time": 32.333,
      "duration": 0.083,
      "velocity": 0.51,
      "hand": "left"
    },
    {
      "midi": 66,
      "time": 32.333,
      "duration": 0.152,
      "velocity": 0.72,
      "hand": "right"
    },
    {
      "midi": 62,
      "time": 32.5,
      "duration": 0.318,
      "velocity": 0.79,
      "hand": "right"
    },
    {
      "midi": 66,
      "time": 32.5,
      "duration": 0.485,
      "velocity": 0.83,
      "hand": "right"
    },
    {
      "midi": 38,
      "time": 32.666,
      "duration": 0.083,
      "velocity": 0.91,
      "hand": "left"
    },
    {
      "midi": 51,
      "time": 32.666,
      "duration": 0.083,
      "velocity": 0.74,
      "hand": "left"
    },
    {
      "midi": 72,
      "time": 32.666,
      "duration": 0.333,
      "velocity": 0.55,
      "hand": "right"
    },
    {
      "midi": 60,
      "time": 32.833,
      "duration": 0.152,
      "velocity": 0.64,
      "hand": "right"
    },
    {
      "midi": 62,
      "time": 32.833,
      "duration": 0.318,
      "velocity": 0.67,
      "hand": "right"
    },
    {
      "midi": 38,
      "time": 33,
      "duration": 0.083,
      "velocity": 0.85,
      "hand": "left"
    },
    {
      "midi": 47,
      "time": 33,
      "duration": 0.083,
      "velocity": 0.67,
      "hand": "left"
    },
    {
      "midi": 60,
      "time": 33,
      "duration": 0.151,
      "velocity": 0.54,
      "hand": "right"
    },
    {
      "midi": 66,
      "time": 33,
      "duration": 0.318,
      "velocity": 0.77,
      "hand": "right"
    },
    {
      "midi": 60,
      "time": 33.166,
      "duration": 0.152,
      "velocity": 0.58,
      "hand": "right"
    },
    {
      "midi": 62,
      "time": 33.166,
      "duration": 0.152,
      "velocity": 0.59,
      "hand": "right"
    },
    {
      "midi": 38,
      "time": 33.333,
      "duration": 0.652,
      "velocity": 0.86,
      "hand": "left"
    },
    {
      "midi": 47,
      "time": 33.333,
      "duration": 0.083,
      "velocity": 0.83,
      "hand": "left"
    },
    {
      "midi": 62,
      "time": 33.333,
      "duration": 0.485,
      "velocity": 0.71,
      "hand": "right"
    },
    {
      "midi": 66,
      "time": 33.333,
      "duration": 0.318,
      "velocity": 0.74,
      "hand": "right"
    },
    {
      "midi": 69,
      "time": 33.333,
      "duration": 0.318,
      "velocity": 0.65,
      "hand": "right"
    },
    {
      "midi": 72,
      "time": 33.333,
      "duration": 0.652,
      "velocity": 0.74,
      "hand": "right"
    },
    {
      "midi": 51,
      "time": 33.666,
      "duration": 0.083,
      "velocity": 0.43,
      "hand": "left"
    },
    {
      "midi": 66,
      "time": 33.666,
      "duration": 0.152,
      "velocity": 0.74,
      "hand": "right"
    },
    {
      "midi": 69,
      "time": 33.666,
      "duration": 0.167,
      "velocity": 1,
      "hand": "right"
    },
    {
      "midi": 54,
      "time": 33.833,
      "duration": 0.152,
      "velocity": 0.61,
      "hand": "left"
    },
    {
      "midi": 60,
      "time": 33.833,
      "duration": 0.318,
      "velocity": 0.84,
      "hand": "right"
    },
    {
      "midi": 62,
      "time": 33.833,
      "duration": 0.318,
      "velocity": 0.87,
      "hand": "right"
    },
    {
      "midi": 66,
      "time": 33.833,
      "duration": 0.318,
      "velocity": 0.79,
      "hand": "right"
    },
    {
      "midi": 38,
      "time": 34,
      "duration": 0.083,
      "velocity": 0.91,
      "hand": "left"
    },
    {
      "midi": 50,
      "time": 34,
      "duration": 0.318,
      "velocity": 0.55,
      "hand": "left"
    },
    {
      "midi": 64,
      "time": 34,
      "duration": 0.333,
      "velocity": 1,
      "hand": "right"
    },
    {
      "midi": 72,
      "time": 34,
      "duration": 0.5,
      "velocity": 0.77,
      "hand": "right"
    },
    {
      "midi": 54,
      "time": 34.166,
      "duration": 0.152,
      "velocity": 0.59,
      "hand": "left"
    },
    {
      "midi": 60,
      "time": 34.166,
      "duration": 0.152,
      "velocity": 0.63,
      "hand": "right"
    },
    {
      "midi": 62,
      "time": 34.166,
      "duration": 0.319,
      "velocity": 0.73,
      "hand": "right"
    },
    {
      "midi": 66,
      "time": 34.166,
      "duration": 0.152,
      "velocity": 0.58,
      "hand": "right"
    },
    {
      "midi": 51,
      "time": 34.333,
      "duration": 0.083,
      "velocity": 0.54,
      "hand": "left"
    },
    {
      "midi": 60,
      "time": 34.333,
      "duration": 0.152,
      "velocity": 0.67,
      "hand": "right"
    },
    {
      "midi": 66,
      "time": 34.333,
      "duration": 0.333,
      "velocity": 1,
      "hand": "right"
    },
    {
      "midi": 60,
      "time": 34.5,
      "duration": 0.167,
      "velocity": 0.64,
      "hand": "right"
    },
    {
      "midi": 62,
      "time": 34.5,
      "duration": 0.151,
      "velocity": 0.56,
      "hand": "right"
    },
    {
      "midi": 43,
      "time": 34.666,
      "duration": 0.985,
      "velocity": 0.9,
      "hand": "left"
    },
    {
      "midi": 47,
      "time": 34.666,
      "duration": 0.083,
      "velocity": 0.82,
      "hand": "left"
    },
    {
      "midi": 67,
      "time": 34.666,
      "duration": 0.485,
      "velocity": 1,
      "hand": "right"
    },
    {
      "midi": 71,
      "time": 34.666,
      "duration": 0.319,
      "velocity": 0.72,
      "hand": "right"
    },
    {
      "midi": 74,
      "time": 34.666,
      "duration": 0.652,
      "velocity": 0.71,
      "hand": "right"
    },
    {
      "midi": 79,
      "time": 34.666,
      "duration": 2.652,
      "velocity": 0.71,
      "hand": "right"
    },
    {
      "midi": 51,
      "time": 35,
      "duration": 0.083,
      "velocity": 0.44,
      "hand": "left"
    },
    {
      "midi": 71,
      "time": 35,
      "duration": 0.151,
      "velocity": 0.81,
      "hand": "right"
    },
    {
      "midi": 59,
      "time": 35.166,
      "duration": 0.319,
      "velocity": 0.61,
      "hand": "left"
    },
    {
      "midi": 62,
      "time": 35.166,
      "duration": 0.152,
      "velocity": 0.84,
      "hand": "right"
    },
    {
      "midi": 67,
      "time": 35.166,
      "duration": 0.652,
      "velocity": 0.87,
      "hand": "right"
    },
    {
      "midi": 71,
      "time": 35.166,
      "duration": 0.485,
      "velocity": 0.82,
      "hand": "right"
    },
    {
      "midi": 38,
      "time": 35.333,
      "duration": 0.083,
      "velocity": 0.91,
      "hand": "left"
    },
    {
      "midi": 51,
      "time": 35.333,
      "duration": 0.083,
      "velocity": 0.74,
      "hand": "left"
    },
    {
      "midi": 62,
      "time": 35.333,
      "duration": 0.152,
      "velocity": 1,
      "hand": "right"
    },
    {
      "midi": 74,
      "time": 35.333,
      "duration": 0.167,
      "velocity": 0.92,
      "hand": "right"
    },
    {
      "midi": 59,
      "time": 35.5,
      "duration": 0.151,
      "velocity": 0.61,
      "hand": "left"
    },
    {
      "midi": 62,
      "time": 35.5,
      "duration": 0.151,
      "velocity": 0.68,
      "hand": "right"
    },
    {
      "midi": 43,
      "time": 35.666,
      "duration": 0.083,
      "velocity": 0.86,
      "hand": "left"
    },
    {
      "midi": 47,
      "time": 35.666,
      "duration": 0.083,
      "velocity": 0.72,
      "hand": "left"
    },
    {
      "midi": 62,
      "time": 35.666,
      "duration": 0.152,
      "velocity": 1,
      "hand": "right"
    },
    {
      "midi": 71,
      "time": 35.666,
      "duration": 0.152,
      "velocity": 0.79,
      "hand": "right"
    },
    {
      "midi": 62,
      "time": 35.833,
      "duration": 0.152,
      "velocity": 0.65,
      "hand": "right"
    },
    {
      "midi": 67,
      "time": 35.833,
      "duration": 0.152,
      "velocity": 0.66,
      "hand": "right"
    },
    {
      "midi": 71,
      "time": 35.833,
      "duration": 0.152,
      "velocity": 0.48,
      "hand": "right"
    },
    {
      "midi": 43,
      "time": 36,
      "duration": 1,
      "velocity": 0.83,
      "hand": "left"
    },
    {
      "midi": 47,
      "time": 36,
      "duration": 0.083,
      "velocity": 0.73,
      "hand": "left"
    },
    {
      "midi": 62,
      "time": 36,
      "duration": 0.485,
      "velocity": 0.82,
      "hand": "right"
    },
    {
      "midi": 67,
      "time": 36,
      "duration": 0.318,
      "velocity": 1,
      "hand": "right"
    },
    {
      "midi": 71,
      "time": 36,
      "duration": 0.318,
      "velocity": 0.71,
      "hand": "right"
    },
    {
      "midi": 51,
      "time": 36.333,
      "duration": 0.083,
      "velocity": 0.52,
      "hand": "left"
    },
    {
      "midi": 67,
      "time": 36.333,
      "duration": 0.152,
      "velocity": 1,
      "hand": "right"
    },
    {
      "midi": 71,
      "time": 36.333,
      "duration": 0.152,
      "velocity": 0.86,
      "hand": "right"
    },
    {
      "midi": 62,
      "time": 36.5,
      "duration": 0.318,
      "velocity": 0.83,
      "hand": "right"
    },
    {
      "midi": 67,
      "time": 36.5,
      "duration": 0.151,
      "velocity": 0.87,
      "hand": "right"
    },
    {
      "midi": 71,
      "time": 36.5,
      "duration": 0.318,
      "velocity": 0.76,
      "hand": "right"
    },
    {
      "midi": 38,
      "time": 36.666,
      "duration": 0.083,
      "velocity": 0.91,
      "hand": "left"
    },
    {
      "midi": 51,
      "time": 36.666,
      "duration": 0.083,
      "velocity": 0.71,
      "hand": "left"
    },
    {
      "midi": 67,
      "time": 36.666,
      "duration": 0.152,
      "velocity": 1,
      "hand": "right"
    },
    {
      "midi": 74,
      "time": 36.666,
      "duration": 0.167,
      "velocity": 0.86,
      "hand": "right"
    },
    {
      "midi": 62,
      "time": 36.833,
      "duration": 0.485,
      "velocity": 0.71,
      "hand": "right"
    },
    {
      "midi": 67,
      "time": 36.833,
      "duration": 0.485,
      "velocity": 0.8,
      "hand": "right"
    },
    {
      "midi": 71,
      "time": 36.833,
      "duration": 0.152,
      "velocity": 0.59,
      "hand": "right"
    },
    {
      "midi": 51,
      "time": 37,
      "duration": 0.083,
      "velocity": 0.38,
      "hand": "left"
    },
    {
      "midi": 55,
      "time": 37,
      "duration": 0.318,
      "velocity": 0.68,
      "hand": "left"
    },
    {
      "midi": 69,
      "time": 37,
      "duration": 0.167,
      "velocity": 1,
      "hand": "right"
    },
    {
      "midi": 71,
      "time": 37,
      "duration": 0.318,
      "velocity": 0.83,
      "hand": "right"
    },
    {
      "midi": 43,
      "time": 37.166,
      "duration": 0.083,
      "velocity": 0.86,
      "hand": "left"
    },
    {
      "midi": 47,
      "time": 37.166,
      "duration": 0.083,
      "velocity": 0.39,
      "hand": "left"
    },
    {
      "midi": 43,
      "time": 37.333,
      "duration": 0.985,
      "velocity": 0.91,
      "hand": "left"
    },
    {
      "midi": 47,
      "time": 37.333,
      "duration": 0.985,
      "velocity": 0.86,
      "hand": "left"
    },
    {
      "midi": 71,
      "time": 37.333,
      "duration": 0.318,
      "velocity": 0.71,
      "hand": "right"
    },
    {
      "midi": 74,
      "time": 37.333,
      "duration": 0.652,
      "velocity": 0.72,
      "hand": "right"
    },
    {
      "midi": 79,
      "time": 37.333,
      "duration": 2.333,
      "velocity": 0.76,
      "hand": "right"
    },
    {
      "midi": 83,
      "time": 37.333,
      "duration": 5.333,
      "velocity": 0.63,
      "hand": "right"
    },
    {
      "midi": 51,
      "time": 37.666,
      "duration": 0.083,
      "velocity": 0.46,
      "hand": "left"
    },
    {
      "midi": 71,
      "time": 37.666,
      "duration": 0.152,
      "velocity": 0.83,
      "hand": "right"
    },
    {
      "midi": 67,
      "time": 37.833,
      "duration": 0.318,
      "velocity": 0.73,
      "hand": "right"
    },
    {
      "midi": 71,
      "time": 37.833,
      "duration": 0.485,
      "velocity": 0.72,
      "hand": "right"
    },
    {
      "midi": 38,
      "time": 38,
      "duration": 0.083,
      "velocity": 0.91,
      "hand": "left"
    },
    {
      "midi": 51,
      "time": 38,
      "duration": 0.083,
      "velocity": 0.82,
      "hand": "left"
    },
    {
      "midi": 69,
      "time": 38,
      "duration": 0.167,
      "velocity": 1,
      "hand": "right"
    },
    {
      "midi": 74,
      "time": 38,
      "duration": 0.167,
      "velocity": 0.86,
      "hand": "right"
    },
    {
      "midi": 62,
      "time": 38.166,
      "duration": 0.319,
      "velocity": 0.59,
      "hand": "right"
    },
    {
      "midi": 67,
      "time": 38.166,
      "duration": 0.333,
      "velocity": 0.81,
      "hand": "right"
    },
    {
      "midi": 43,
      "time": 38.333,
      "duration": 0.083,
      "velocity": 0.89,
      "hand": "left"
    },
    {
      "midi": 47,
      "time": 38.333,
      "duration": 0.083,
      "velocity": 0.59,
      "hand": "left"
    },
    {
      "midi": 71,
      "time": 38.333,
      "duration": 0.318,
      "velocity": 1,
      "hand": "right"
    },
    {
      "midi": 62,
      "time": 38.5,
      "duration": 0.151,
      "velocity": 0.58,
      "hand": "right"
    },
    {
      "midi": 43,
      "time": 38.666,
      "duration": 1.167,
      "velocity": 0.83,
      "hand": "left"
    },
    {
      "midi": 47,
      "time": 38.666,
      "duration": 0.083,
      "velocity": 0.8,
      "hand": "left"
    },
    {
      "midi": 62,
      "time": 38.666,
      "duration": 0.485,
      "velocity": 0.88,
      "hand": "right"
    },
    {
      "midi": 67,
      "time": 38.666,
      "duration": 0.485,
      "velocity": 0.86,
      "hand": "right"
    },
    {
      "midi": 71,
      "time": 38.666,
      "duration": 0.319,
      "velocity": 0.66,
      "hand": "right"
    },
    {
      "midi": 51,
      "time": 39,
      "duration": 0.083,
      "velocity": 0.5,
      "hand": "left"
    },
    {
      "midi": 69,
      "time": 39,
      "duration": 0.333,
      "velocity": 1,
      "hand": "right"
    },
    {
      "midi": 71,
      "time": 39,
      "duration": 0.151,
      "velocity": 0.83,
      "hand": "right"
    },
    {
      "midi": 62,
      "time": 39.166,
      "duration": 0.319,
      "velocity": 0.65,
      "hand": "right"
    },
    {
      "midi": 67,
      "time": 39.166,
      "duration": 0.152,
      "velocity": 0.91,
      "hand": "right"
    },
    {
      "midi": 71,
      "time": 39.166,
      "duration": 0.319,
      "velocity": 0.73,
      "hand": "right"
    },
    {
      "midi": 38,
      "time": 39.333,
      "duration": 0.083,
      "velocity": 0.91,
      "hand": "left"
    },
    {
      "midi": 51,
      "time": 39.333,
      "duration": 0.083,
      "velocity": 0.74,
      "hand": "left"
    },
    {
      "midi": 67,
      "time": 39.333,
      "duration": 0.333,
      "velocity": 1,
      "hand": "right"
    },
    {
      "midi": 74,
      "time": 39.333,
      "duration": 0.167,
      "velocity": 0.86,
      "hand": "right"
    },
    {
      "midi": 59,
      "time": 39.5,
      "duration": 0.167,
      "velocity": 0.66,
      "hand": "left"
    },
    {
      "midi": 62,
      "time": 39.5,
      "duration": 0.318,
      "velocity": 0.68,
      "hand": "right"
    },
    {
      "midi": 71,
      "time": 39.5,
      "duration": 0.151,
      "velocity": 0.56,
      "hand": "right"
    },
    {
      "midi": 51,
      "time": 39.666,
      "duration": 0.083,
      "velocity": 0.46,
      "hand": "left"
    },
    {
      "midi": 55,
      "time": 39.666,
      "duration": 0.319,
      "velocity": 0.63,
      "hand": "left"
    },
    {
      "midi": 66,
      "time": 39.666,
      "duration": 0.333,
      "velocity": 1,
      "hand": "right"
    },
    {
      "midi": 71,
      "time": 39.666,
      "duration": 0.152,
      "velocity": 0.79,
      "hand": "right"
    },
    {
      "midi": 59,
      "time": 39.833,
      "duration": 0.152,
      "velocity": 0.54,
      "hand": "left"
    },
    {
      "midi": 62,
      "time": 39.833,
      "duration": 0.152,
      "velocity": 0.61,
      "hand": "right"
    },
    {
      "midi": 67,
      "time": 39.833,
      "duration": 0.152,
      "velocity": 0.72,
      "hand": "right"
    },
    {
      "midi": 71,
      "time": 39.833,
      "duration": 0.152,
      "velocity": 0.61,
      "hand": "right"
    },
    {
      "midi": 43,
      "time": 40,
      "duration": 0.985,
      "velocity": 0.91,
      "hand": "left"
    },
    {
      "midi": 47,
      "time": 40,
      "duration": 0.083,
      "velocity": 0.8,
      "hand": "left"
    },
    {
      "midi": 67,
      "time": 40,
      "duration": 0.485,
      "velocity": 0.91,
      "hand": "right"
    },
    {
      "midi": 71,
      "time": 40,
      "duration": 0.318,
      "velocity": 0.73,
      "hand": "right"
    },
    {
      "midi": 74,
      "time": 40,
      "duration": 0.651,
      "velocity": 0.69,
      "hand": "right"
    },
    {
      "midi": 79,
      "time": 40,
      "duration": 2.167,
      "velocity": 0.71,
      "hand": "right"
    },
    {
      "midi": 51,
      "time": 40.333,
      "duration": 0.083,
      "velocity": 0.4,
      "hand": "left"
    },
    {
      "midi": 62,
      "time": 40.333,
      "duration": 0.152,
      "velocity": 1,
      "hand": "right"
    },
    {
      "midi": 71,
      "time": 40.333,
      "duration": 0.152,
      "velocity": 0.79,
      "hand": "right"
    },
    {
      "midi": 59,
      "time": 40.5,
      "duration": 0.485,
      "velocity": 0.54,
      "hand": "left"
    },
    {
      "midi": 62,
      "time": 40.5,
      "duration": 0.151,
      "velocity": 0.71,
      "hand": "right"
    },
    {
      "midi": 67,
      "time": 40.5,
      "duration": 0.651,
      "velocity": 0.9,
      "hand": "right"
    },
    {
      "midi": 71,
      "time": 40.5,
      "duration": 0.318,
      "velocity": 0.66,
      "hand": "right"
    },
    {
      "midi": 38,
      "time": 40.666,
      "duration": 0.083,
      "velocity": 0.91,
      "hand": "left"
    },
    {
      "midi": 51,
      "time": 40.666,
      "duration": 0.083,
      "velocity": 0.8,
      "hand": "left"
    },
    {
      "midi": 62,
      "time": 40.666,
      "duration": 0.319,
      "velocity": 1,
      "hand": "right"
    },
    {
      "midi": 74,
      "time": 40.666,
      "duration": 0.167,
      "velocity": 0.81,
      "hand": "right"
    },
    {
      "midi": 71,
      "time": 40.833,
      "duration": 0.152,
      "velocity": 0.53,
      "hand": "right"
    },
    {
      "midi": 43,
      "time": 41,
      "duration": 0.083,
      "velocity": 0.87,
      "hand": "left"
    },
    {
      "midi": 47,
      "time": 41,
      "duration": 0.083,
      "velocity": 0.78,
      "hand": "left"
    },
    {
      "midi": 62,
      "time": 41,
      "duration": 0.151,
      "velocity": 1,
      "hand": "right"
    },
    {
      "midi": 71,
      "time": 41,
      "duration": 0.151,
      "velocity": 0.76,
      "hand": "right"
    },
    {
      "midi": 59,
      "time": 41.166,
      "duration": 0.152,
      "velocity": 0.63,
      "hand": "left"
    },
    {
      "midi": 62,
      "time": 41.166,
      "duration": 0.152,
      "velocity": 0.73,
      "hand": "right"
    },
    {
      "midi": 67,
      "time": 41.166,
      "duration": 0.152,
      "velocity": 0.7,
      "hand": "right"
    },
    {
      "midi": 71,
      "time": 41.166,
      "duration": 0.152,
      "velocity": 0.56,
      "hand": "right"
    },
    {
      "midi": 43,
      "time": 41.333,
      "duration": 0.667,
      "velocity": 0.85,
      "hand": "left"
    },
    {
      "midi": 47,
      "time": 41.333,
      "duration": 0.083,
      "velocity": 0.74,
      "hand": "left"
    },
    {
      "midi": 62,
      "time": 41.333,
      "duration": 0.485,
      "velocity": 0.81,
      "hand": "right"
    },
    {
      "midi": 67,
      "time": 41.333,
      "duration": 0.318,
      "velocity": 1,
      "hand": "right"
    },
    {
      "midi": 71,
      "time": 41.333,
      "duration": 0.318,
      "velocity": 0.65,
      "hand": "right"
    },
    {
      "midi": 51,
      "time": 41.666,
      "duration": 0.083,
      "velocity": 0.54,
      "hand": "left"
    },
    {
      "midi": 67,
      "time": 41.666,
      "duration": 0.152,
      "velocity": 1,
      "hand": "right"
    },
    {
      "midi": 71,
      "time": 41.666,
      "duration": 0.152,
      "velocity": 0.83,
      "hand": "right"
    },
    {
      "midi": 59,
      "time": 41.833,
      "duration": 0.152,
      "velocity": 0.64,
      "hand": "left"
    },
    {
      "midi": 62,
      "time": 41.833,
      "duration": 0.318,
      "velocity": 0.9,
      "hand": "right"
    },
    {
      "midi": 67,
      "time": 41.833,
      "duration": 0.152,
      "velocity": 0.89,
      "hand": "right"
    },
    {
      "midi": 71,
      "time": 41.833,
      "duration": 0.318,
      "velocity": 0.78,
      "hand": "right"
    },
    {
      "midi": 38,
      "time": 42,
      "duration": 0.083,
      "velocity": 0.91,
      "hand": "left"
    },
    {
      "midi": 51,
      "time": 42,
      "duration": 0.083,
      "velocity": 0.78,
      "hand": "left"
    },
    {
      "midi": 67,
      "time": 42,
      "duration": 0.151,
      "velocity": 1,
      "hand": "right"
    },
    {
      "midi": 74,
      "time": 42,
      "duration": 0.167,
      "velocity": 0.86,
      "hand": "right"
    },
    {
      "midi": 43,
      "time": 42.166,
      "duration": 0.333,
      "velocity": 0.9,
      "hand": "left"
    },
    {
      "midi": 47,
      "time": 42.166,
      "duration": 0.083,
      "velocity": 0.58,
      "hand": "left"
    },
    {
      "midi": 62,
      "time": 42.166,
      "duration": 0.319,
      "velocity": 0.7,
      "hand": "right"
    },
    {
      "midi": 67,
      "time": 42.166,
      "duration": 0.319,
      "velocity": 0.83,
      "hand": "right"
    },
    {
      "midi": 71,
      "time": 42.166,
      "duration": 0.152,
      "velocity": 0.69,
      "hand": "right"
    },
    {
      "midi": 51,
      "time": 42.333,
      "duration": 0.083,
      "velocity": 0.46,
      "hand": "left"
    },
    {
      "midi": 55,
      "time": 42.333,
      "duration": 0.152,
      "velocity": 0.65,
      "hand": "left"
    },
    {
      "midi": 69,
      "time": 42.333,
      "duration": 0.167,
      "velocity": 1,
      "hand": "right"
    },
    {
      "midi": 71,
      "time": 42.333,
      "duration": 0.167,
      "velocity": 0.81,
      "hand": "right"
    },
    {
      "midi": 55,
      "time": 42.5,
      "duration": 0.151,
      "velocity": 0.64,
      "hand": "left"
    },
    {
      "midi": 59,
      "time": 42.5,
      "duration": 0.151,
      "velocity": 0.67,
      "hand": "left"
    },
    {
      "midi": 62,
      "time": 42.5,
      "duration": 0.151,
      "velocity": 0.64,
      "hand": "right"
    },
    {
      "midi": 67,
      "time": 42.5,
      "duration": 0.151,
      "velocity": 0.55,
      "hand": "right"
    },
    {
      "midi": 43,
      "time": 42.666,
      "duration": 0.985,
      "velocity": 0.87,
      "hand": "left"
    },
    {
      "midi": 47,
      "time": 42.666,
      "duration": 0.083,
      "velocity": 0.77,
      "hand": "left"
    },
    {
      "midi": 67,
      "time": 42.666,
      "duration": 0.485,
      "velocity": 1,
      "hand": "right"
    },
    {
      "midi": 71,
      "time": 42.666,
      "duration": 0.319,
      "velocity": 0.71,
      "hand": "right"
    },
    {
      "midi": 74,
      "time": 42.666,
      "duration": 0.485,
      "velocity": 0.76,
      "hand": "right"
    },
    {
      "midi": 79,
      "time": 42.666,
      "duration": 1.833,
      "velocity": 0.76,
      "hand": "right"
    },
    {
      "midi": 51,
      "time": 43,
      "duration": 0.083,
      "velocity": 0.51,
      "hand": "left"
    },
    {
      "midi": 71,
      "time": 43,
      "duration": 0.151,
      "velocity": 0.81,
      "hand": "right"
    },
    {
      "midi": 67,
      "time": 43.166,
      "duration": 0.319,
      "velocity": 0.79,
      "hand": "right"
    },
    {
      "midi": 69,
      "time": 43.166,
      "duration": 0.167,
      "velocity": 1,
      "hand": "right"
    },
    {
      "midi": 71,
      "time": 43.166,
      "duration": 0.319,
      "velocity": 0.83,
      "hand": "right"
    },
    {
      "midi": 74,
      "time": 43.166,
      "duration": 0.167,
      "velocity": 0.92,
      "hand": "right"
    },
    {
      "midi": 38,
      "time": 43.333,
      "duration": 0.083,
      "velocity": 0.91,
      "hand": "left"
    },
    {
      "midi": 51,
      "time": 43.333,
      "duration": 0.083,
      "velocity": 0.74,
      "hand": "left"
    },
    {
      "midi": 62,
      "time": 43.5,
      "duration": 0.151,
      "velocity": 0.64,
      "hand": "right"
    },
    {
      "midi": 67,
      "time": 43.5,
      "duration": 0.318,
      "velocity": 0.67,
      "hand": "right"
    },
    {
      "midi": 71,
      "time": 43.5,
      "duration": 0.151,
      "velocity": 0.81,
      "hand": "right"
    },
    {
      "midi": 43,
      "time": 43.666,
      "duration": 0.083,
      "velocity": 0.85,
      "hand": "left"
    },
    {
      "midi": 47,
      "time": 43.666,
      "duration": 0.083,
      "velocity": 0.67,
      "hand": "left"
    },
    {
      "midi": 62,
      "time": 43.666,
      "duration": 0.152,
      "velocity": 0.54,
      "hand": "right"
    },
    {
      "midi": 71,
      "time": 43.666,
      "duration": 1.667,
      "velocity": 1,
      "hand": "right"
    },
    {
      "midi": 50,
      "time": 43.833,
      "duration": 0.152,
      "velocity": 0.46,
      "hand": "left"
    },
    {
      "midi": 62,
      "time": 43.833,
      "duration": 0.152,
      "velocity": 0.74,
      "hand": "right"
    },
    {
      "midi": 67,
      "time": 43.833,
      "duration": 0.167,
      "velocity": 0.59,
      "hand": "right"
    },
    {
      "midi": 38,
      "time": 44,
      "duration": 0.651,
      "velocity": 0.86,
      "hand": "left"
    },
    {
      "midi": 47,
      "time": 44,
      "duration": 0.083,
      "velocity": 0.83,
      "hand": "left"
    },
    {
      "midi": 66,
      "time": 44,
      "duration": 0.318,
      "velocity": 0.71,
      "hand": "right"
    },
    {
      "midi": 69,
      "time": 44,
      "duration": 1.318,
      "velocity": 0.71,
      "hand": "right"
    },
    {
      "midi": 72,
      "time": 44,
      "duration": 0.485,
      "velocity": 0.71,
      "hand": "right"
    },
    {
      "midi": 78,
      "time": 44,
      "duration": 2.667,
      "velocity": 0.63,
      "hand": "right"
    },
    {
      "midi": 51,
      "time": 44.333,
      "duration": 0.083,
      "velocity": 0.43,
      "hand": "left"
    },
    {
      "midi": 66,
      "time": 44.333,
      "duration": 0.152,
      "velocity": 0.76,
      "hand": "right"
    },
    {
      "midi": 54,
      "time": 44.5,
      "duration": 0.151,
      "velocity": 0.61,
      "hand": "left"
    },
    {
      "midi": 60,
      "time": 44.5,
      "duration": 0.318,
      "velocity": 0.84,
      "hand": "right"
    },
    {
      "midi": 62,
      "time": 44.5,
      "duration": 0.318,
      "velocity": 0.87,
      "hand": "right"
    },
    {
      "midi": 66,
      "time": 44.5,
      "duration": 0.318,
      "velocity": 0.79,
      "hand": "right"
    },
    {
      "midi": 72,
      "time": 44.5,
      "duration": 0.333,
      "velocity": 0.83,
      "hand": "right"
    },
    {
      "midi": 38,
      "time": 44.666,
      "duration": 0.083,
      "velocity": 0.91,
      "hand": "left"
    },
    {
      "midi": 50,
      "time": 44.666,
      "duration": 0.319,
      "velocity": 0.55,
      "hand": "left"
    },
    {
      "midi": 54,
      "time": 44.833,
      "duration": 0.152,
      "velocity": 0.59,
      "hand": "left"
    },
    {
      "midi": 60,
      "time": 44.833,
      "duration": 0.152,
      "velocity": 0.63,
      "hand": "right"
    },
    {
      "midi": 62,
      "time": 44.833,
      "duration": 0.318,
      "velocity": 0.73,
      "hand": "right"
    },
    {
      "midi": 66,
      "time": 44.833,
      "duration": 0.152,
      "velocity": 0.58,
      "hand": "right"
    },
    {
      "midi": 51,
      "time": 45,
      "duration": 0.083,
      "velocity": 0.54,
      "hand": "left"
    },
    {
      "midi": 60,
      "time": 45,
      "duration": 0.151,
      "velocity": 0.67,
      "hand": "right"
    },
    {
      "midi": 66,
      "time": 45,
      "duration": 0.318,
      "velocity": 0.79,
      "hand": "right"
    },
    {
      "midi": 60,
      "time": 45.166,
      "duration": 0.152,
      "velocity": 0.64,
      "hand": "right"
    },
    {
      "midi": 62,
      "time": 45.166,
      "duration": 0.152,
      "velocity": 0.56,
      "hand": "right"
    },
    {
      "midi": 38,
      "time": 45.333,
      "duration": 0.652,
      "velocity": 0.9,
      "hand": "left"
    },
    {
      "midi": 47,
      "time": 45.333,
      "duration": 0.083,
      "velocity": 0.82,
      "hand": "left"
    },
    {
      "midi": 62,
      "time": 45.333,
      "duration": 0.485,
      "velocity": 0.86,
      "hand": "right"
    },
    {
      "midi": 66,
      "time": 45.333,
      "duration": 0.318,
      "velocity": 0.72,
      "hand": "right"
    },
    {
      "midi": 69,
      "time": 45.333,
      "duration": 0.318,
      "velocity": 0.63,
      "hand": "right"
    },
    {
      "midi": 72,
      "time": 45.333,
      "duration": 0.652,
      "velocity": 0.82,
      "hand": "right"
    },
    {
      "midi": 51,
      "time": 45.666,
      "duration": 0.083,
      "velocity": 0.44,
      "hand": "left"
    },
    {
      "midi": 66,
      "time": 45.666,
      "duration": 0.152,
      "velocity": 0.8,
      "hand": "right"
    },
    {
      "midi": 69,
      "time": 45.666,
      "duration": 0.167,
      "velocity": 1,
      "hand": "right"
    },
    {
      "midi": 54,
      "time": 45.833,
      "duration": 0.318,
      "velocity": 0.61,
      "hand": "left"
    },
    {
      "midi": 60,
      "time": 45.833,
      "duration": 0.318,
      "velocity": 0.84,
      "hand": "right"
    },
    {
      "midi": 62,
      "time": 45.833,
      "duration": 0.652,
      "velocity": 0.87,
      "hand": "right"
    },
    {
      "midi": 66,
      "time": 45.833,
      "duration": 0.485,
      "velocity": 0.82,
      "hand": "right"
    },
    {
      "midi": 38,
      "time": 46,
      "duration": 0.083,
      "velocity": 0.91,
      "hand": "left"
    },
    {
      "midi": 51,
      "time": 46,
      "duration": 0.083,
      "velocity": 0.74,
      "hand": "left"
    },
    {
      "midi": 64,
      "time": 46,
      "duration": 0.167,
      "velocity": 1,
      "hand": "right"
    },
    {
      "midi": 72,
      "time": 46,
      "duration": 0.5,
      "velocity": 0.8,
      "hand": "right"
    },
    {
      "midi": 54,
      "time": 46.166,
      "duration": 0.152,
      "velocity": 0.61,
      "hand": "left"
    },
    {
      "midi": 60,
      "time": 46.166,
      "duration": 0.152,
      "velocity": 0.68,
      "hand": "right"
    },
    {
      "midi": 38,
      "time": 46.333,
      "duration": 0.083,
      "velocity": 0.86,
      "hand": "left"
    },
    {
      "midi": 47,
      "time": 46.333,
      "duration": 0.083,
      "velocity": 0.72,
      "hand": "left"
    },
    {
      "midi": 60,
      "time": 46.333,
      "duration": 0.152,
      "velocity": 0.65,
      "hand": "right"
    },
    {
      "midi": 66,
      "time": 46.333,
      "duration": 0.152,
      "velocity": 1,
      "hand": "right"
    },
    {
      "midi": 60,
      "time": 46.5,
      "duration": 0.167,
      "velocity": 0.65,
      "hand": "right"
    },
    {
      "midi": 62,
      "time": 46.5,
      "duration": 0.151,
      "velocity": 0.66,
      "hand": "right"
    },
    {
      "midi": 66,
      "time": 46.5,
      "duration": 0.167,
      "velocity": 0.48,
      "hand": "right"
    },
    {
      "midi": 43,
      "time": 46.666,
      "duration": 1.152,
      "velocity": 0.83,
      "hand": "left"
    },
    {
      "midi": 47,
      "time": 46.666,
      "duration": 0.083,
      "velocity": 0.73,
      "hand": "left"
    },
    {
      "midi": 67,
      "time": 46.666,
      "duration": 0.485,
      "velocity": 1,
      "hand": "right"
    },
    {
      "midi": 71,
      "time": 46.666,
      "duration": 0.319,
      "velocity": 0.71,
      "hand": "right"
    },
    {
      "midi": 74,
      "time": 46.666,
      "duration": 0.652,
      "velocity": 0.71,
      "hand": "right"
    },
    {
      "midi": 79,
      "time": 46.666,
      "duration": 2.333,
      "velocity": 0.72,
      "hand": "right"
    },
    {
      "midi": 51,
      "time": 47,
      "duration": 0.083,
      "velocity": 0.52,
      "hand": "left"
    },
    {
      "midi": 71,
      "time": 47,
      "duration": 0.151,
      "velocity": 0.81,
      "hand": "right"
    },
    {
      "midi": 62,
      "time": 47.166,
      "duration": 0.152,
      "velocity": 0.83,
      "hand": "right"
    },
    {
      "midi": 67,
      "time": 47.166,
      "duration": 0.319,
      "velocity": 0.87,
      "hand": "right"
    },
    {
      "midi": 71,
      "time": 47.166,
      "duration": 0.319,
      "velocity": 0.76,
      "hand": "right"
    },
    {
      "midi": 38,
      "time": 47.333,
      "duration": 0.083,
      "velocity": 0.91,
      "hand": "left"
    },
    {
      "midi": 51,
      "time": 47.333,
      "duration": 0.083,
      "velocity": 0.71,
      "hand": "left"
    },
    {
      "midi": 62,
      "time": 47.333,
      "duration": 0.152,
      "velocity": 1,
      "hand": "right"
    },
    {
      "midi": 74,
      "time": 47.333,
      "duration": 0.167,
      "velocity": 0.92,
      "hand": "right"
    },
    {
      "midi": 62,
      "time": 47.5,
      "duration": 0.151,
      "velocity": 0.71,
      "hand": "right"
    },
    {
      "midi": 67,
      "time": 47.5,
      "duration": 0.485,
      "velocity": 0.8,
      "hand": "right"
    },
    {
      "midi": 71,
      "time": 47.5,
      "duration": 0.151,
      "velocity": 0.59,
      "hand": "right"
    },
    {
      "midi": 51,
      "time": 47.666,
      "duration": 0.083,
      "velocity": 0.38,
      "hand": "left"
    },
    {
      "midi": 55,
      "time": 47.666,
      "duration": 0.319,
      "velocity": 0.68,
      "hand": "left"
    },
    {
      "midi": 62,
      "time": 47.666,
      "duration": 0.167,
      "velocity": 1,
      "hand": "right"
    },
    {
      "midi": 71,
      "time": 47.666,
      "duration": 0.319,
      "velocity": 0.81,
      "hand": "right"
    },
    {
      "midi": 43,
      "time": 47.833,
      "duration": 0.083,
      "velocity": 0.86,
      "hand": "left"
    },
    {
      "midi": 47,
      "time": 47.833,
      "duration": 0.083,
      "velocity": 0.39,
      "hand": "left"
    },
    {
      "midi": 43,
      "time": 48,
      "duration": 0.667,
      "velocity": 0.91,
      "hand": "left"
    },
    {
      "midi": 47,
      "time": 48,
      "duration": 0.083,
      "velocity": 0.86,
      "hand": "left"
    },
    {
      "midi": 67,
      "time": 48,
      "duration": 0.318,
      "velocity": 1,
      "hand": "right"
    },
    {
      "midi": 71,
      "time": 48,
      "duration": 0.318,
      "velocity": 0.71,
      "hand": "right"
    },
    {
      "midi": 74,
      "time": 48,
      "duration": 0.651,
      "velocity": 0.71,
      "hand": "right"
    },
    {
      "midi": 83,
      "time": 48,
      "duration": 5.333,
      "velocity": 0.63,
      "hand": "right"
    },
    {
      "midi": 51,
      "time": 48.333,
      "duration": 0.083,
      "velocity": 0.46,
      "hand": "left"
    },
    {
      "midi": 67,
      "time": 48.333,
      "duration": 0.152,
      "velocity": 1,
      "hand": "right"
    },
    {
      "midi": 71,
      "time": 48.333,
      "duration": 0.152,
      "velocity": 0.83,
      "hand": "right"
    },
    {
      "midi": 67,
      "time": 48.5,
      "duration": 0.151,
      "velocity": 0.73,
      "hand": "right"
    },
    {
      "midi": 71,
      "time": 48.5,
      "duration": 0.485,
      "velocity": 0.72,
      "hand": "right"
    },
    {
      "midi": 38,
      "time": 48.666,
      "duration": 0.083,
      "velocity": 0.91,
      "hand": "left"
    },
    {
      "midi": 51,
      "time": 48.666,
      "duration": 0.083,
      "velocity": 0.82,
      "hand": "left"
    },
    {
      "midi": 67,
      "time": 48.666,
      "duration": 0.152,
      "velocity": 1,
      "hand": "right"
    },
    {
      "midi": 74,
      "time": 48.666,
      "duration": 0.083,
      "velocity": 0.89,
      "hand": "right"
    },
    {
      "midi": 62,
      "time": 48.833,
      "duration": 0.318,
      "velocity": 0.59,
      "hand": "right"
    },
    {
      "midi": 67,
      "time": 48.833,
      "duration": 0.333,
      "velocity": 0.81,
      "hand": "right"
    },
    {
      "midi": 43,
      "time": 49,
      "duration": 0.083,
      "velocity": 0.89,
      "hand": "left"
    },
    {
      "midi": 47,
      "time": 49,
      "duration": 0.083,
      "velocity": 0.59,
      "hand": "left"
    },
    {
      "midi": 69,
      "time": 49,
      "duration": 0.167,
      "velocity": 1,
      "hand": "right"
    },
    {
      "midi": 71,
      "time": 49,
      "duration": 0.318,
      "velocity": 0.83,
      "hand": "right"
    },
    {
      "midi": 62,
      "time": 49.166,
      "duration": 0.152,
      "velocity": 0.58,
      "hand": "right"
    },
    {
      "midi": 43,
      "time": 49.333,
      "duration": 1.318,
      "velocity": 0.83,
      "hand": "left"
    },
    {
      "midi": 47,
      "time": 49.333,
      "duration": 0.083,
      "velocity": 0.8,
      "hand": "left"
    },
    {
      "midi": 67,
      "time": 49.333,
      "duration": 0.485,
      "velocity": 1,
      "hand": "right"
    },
    {
      "midi": 71,
      "time": 49.333,
      "duration": 0.318,
      "velocity": 0.66,
      "hand": "right"
    },
    {
      "midi": 74,
      "time": 49.333,
      "duration": 0.652,
      "velocity": 0.71,
      "hand": "right"
    },
    {
      "midi": 79,
      "time": 49.333,
      "duration": 2.333,
      "velocity": 0.74,
      "hand": "right"
    },
    {
      "midi": 51,
      "time": 49.666,
      "duration": 0.083,
      "velocity": 0.5,
      "hand": "left"
    },
    {
      "midi": 71,
      "time": 49.666,
      "duration": 0.152,
      "velocity": 0.81,
      "hand": "right"
    },
    {
      "midi": 62,
      "time": 49.833,
      "duration": 0.318,
      "velocity": 0.65,
      "hand": "right"
    },
    {
      "midi": 67,
      "time": 49.833,
      "duration": 0.652,
      "velocity": 0.91,
      "hand": "right"
    },
    {
      "midi": 71,
      "time": 49.833,
      "duration": 0.318,
      "velocity": 0.73,
      "hand": "right"
    },
    {
      "midi": 38,
      "time": 50,
      "duration": 0.083,
      "velocity": 0.91,
      "hand": "left"
    },
    {
      "midi": 51,
      "time": 50,
      "duration": 0.083,
      "velocity": 0.74,
      "hand": "left"
    },
    {
      "midi": 69,
      "time": 50,
      "duration": 0.167,
      "velocity": 1,
      "hand": "right"
    },
    {
      "midi": 74,
      "time": 50,
      "duration": 0.083,
      "velocity": 0.86,
      "hand": "right"
    },
    {
      "midi": 59,
      "time": 50.166,
      "duration": 0.167,
      "velocity": 0.66,
      "hand": "left"
    },
    {
      "midi": 62,
      "time": 50.166,
      "duration": 0.319,
      "velocity": 0.68,
      "hand": "right"
    },
    {
      "midi": 71,
      "time": 50.166,
      "duration": 0.152,
      "velocity": 0.56,
      "hand": "right"
    },
    {
      "midi": 51,
      "time": 50.333,
      "duration": 0.083,
      "velocity": 0.46,
      "hand": "left"
    },
    {
      "midi": 55,
      "time": 50.333,
      "duration": 0.318,
      "velocity": 0.63,
      "hand": "left"
    },
    {
      "midi": 71,
      "time": 50.333,
      "duration": 0.152,
      "velocity": 1,
      "hand": "right"
    },
    {
      "midi": 59,
      "time": 50.5,
      "duration": 0.151,
      "velocity": 0.54,
      "hand": "left"
    },
    {
      "midi": 62,
      "time": 50.5,
      "duration": 0.151,
      "velocity": 0.61,
      "hand": "right"
    },
    {
      "midi": 67,
      "time": 50.5,
      "duration": 0.151,
      "velocity": 0.72,
      "hand": "right"
    },
    {
      "midi": 71,
      "time": 50.5,
      "duration": 0.151,
      "velocity": 0.61,
      "hand": "right"
    },
    {
      "midi": 43,
      "time": 50.666,
      "duration": 0.667,
      "velocity": 0.91,
      "hand": "left"
    },
    {
      "midi": 47,
      "time": 50.666,
      "duration": 0.083,
      "velocity": 0.8,
      "hand": "left"
    },
    {
      "midi": 62,
      "time": 50.666,
      "duration": 0.485,
      "velocity": 0.87,
      "hand": "right"
    },
    {
      "midi": 67,
      "time": 50.666,
      "duration": 0.485,
      "velocity": 0.91,
      "hand": "right"
    },
    {
      "midi": 71,
      "time": 50.666,
      "duration": 0.319,
      "velocity": 0.73,
      "hand": "right"
    },
    {
      "midi": 51,
      "time": 51,
      "duration": 0.083,
      "velocity": 0.4,
      "hand": "left"
    },
    {
      "midi": 69,
      "time": 51,
      "duration": 0.333,
      "velocity": 1,
      "hand": "right"
    },
    {
      "midi": 71,
      "time": 51,
      "duration": 0.151,
      "velocity": 0.83,
      "hand": "right"
    },
    {
      "midi": 59,
      "time": 51.166,
      "duration": 0.485,
      "velocity": 0.54,
      "hand": "left"
    },
    {
      "midi": 62,
      "time": 51.166,
      "duration": 0.152,
      "velocity": 0.71,
      "hand": "right"
    },
    {
      "midi": 67,
      "time": 51.166,
      "duration": 0.152,
      "velocity": 0.9,
      "hand": "right"
    },
    {
      "midi": 71,
      "time": 51.166,
      "duration": 0.319,
      "velocity": 0.66,
      "hand": "right"
    },
    {
      "midi": 38,
      "time": 51.333,
      "duration": 0.083,
      "velocity": 0.91,
      "hand": "left"
    },
    {
      "midi": 51,
      "time": 51.333,
      "duration": 0.083,
      "velocity": 0.8,
      "hand": "left"
    },
    {
      "midi": 62,
      "time": 51.333,
      "duration": 0.318,
      "velocity": 0.7,
      "hand": "right"
    },
    {
      "midi": 67,
      "time": 51.333,
      "duration": 0.333,
      "velocity": 1,
      "hand": "right"
    },
    {
      "midi": 74,
      "time": 51.333,
      "duration": 0.167,
      "velocity": 0.86,
      "hand": "right"
    },
    {
      "midi": 71,
      "time": 51.5,
      "duration": 0.151,
      "velocity": 0.53,
      "hand": "right"
    },
    {
      "midi": 43,
      "time": 51.666,
      "duration": 0.083,
      "velocity": 0.87,
      "hand": "left"
    },
    {
      "midi": 47,
      "time": 51.666,
      "duration": 0.083,
      "velocity": 0.78,
      "hand": "left"
    },
    {
      "midi": 62,
      "time": 51.666,
      "duration": 0.152,
      "velocity": 0.64,
      "hand": "right"
    },
    {
      "midi": 66,
      "time": 51.666,
      "duration": 0.333,
      "velocity": 1,
      "hand": "right"
    },
    {
      "midi": 71,
      "time": 51.666,
      "duration": 0.152,
      "velocity": 0.81,
      "hand": "right"
    },
    {
      "midi": 59,
      "time": 51.833,
      "duration": 0.152,
      "velocity": 0.63,
      "hand": "left"
    },
    {
      "midi": 62,
      "time": 51.833,
      "duration": 0.152,
      "velocity": 0.73,
      "hand": "right"
    },
    {
      "midi": 67,
      "time": 51.833,
      "duration": 0.152,
      "velocity": 0.7,
      "hand": "right"
    },
    {
      "midi": 71,
      "time": 51.833,
      "duration": 0.152,
      "velocity": 0.56,
      "hand": "right"
    },
    {
      "midi": 43,
      "time": 52,
      "duration": 0.818,
      "velocity": 0.85,
      "hand": "left"
    },
    {
      "midi": 47,
      "time": 52,
      "duration": 0.083,
      "velocity": 0.74,
      "hand": "left"
    },
    {
      "midi": 67,
      "time": 52,
      "duration": 0.485,
      "velocity": 0.85,
      "hand": "right"
    },
    {
      "midi": 71,
      "time": 52,
      "duration": 0.318,
      "velocity": 0.68,
      "hand": "right"
    },
    {
      "midi": 74,
      "time": 52,
      "duration": 0.651,
      "velocity": 0.72,
      "hand": "right"
    },
    {
      "midi": 79,
      "time": 52,
      "duration": 1.318,
      "velocity": 0.76,
      "hand": "right"
    },
    {
      "midi": 51,
      "time": 52.333,
      "duration": 0.083,
      "velocity": 0.54,
      "hand": "left"
    },
    {
      "midi": 62,
      "time": 52.333,
      "duration": 0.152,
      "velocity": 1,
      "hand": "right"
    },
    {
      "midi": 71,
      "time": 52.333,
      "duration": 0.152,
      "velocity": 0.81,
      "hand": "right"
    },
    {
      "midi": 59,
      "time": 52.5,
      "duration": 0.151,
      "velocity": 0.64,
      "hand": "left"
    },
    {
      "midi": 62,
      "time": 52.5,
      "duration": 0.151,
      "velocity": 0.9,
      "hand": "right"
    },
    {
      "midi": 67,
      "time": 52.5,
      "duration": 0.318,
      "velocity": 0.89,
      "hand": "right"
    },
    {
      "midi": 71,
      "time": 52.5,
      "duration": 0.318,
      "velocity": 0.78,
      "hand": "right"
    },
    {
      "midi": 38,
      "time": 52.666,
      "duration": 0.083,
      "velocity": 0.91,
      "hand": "left"
    },
    {
      "midi": 51,
      "time": 52.666,
      "duration": 0.083,
      "velocity": 0.78,
      "hand": "left"
    },
    {
      "midi": 62,
      "time": 52.666,
      "duration": 0.152,
      "velocity": 1,
      "hand": "right"
    },
    {
      "midi": 74,
      "time": 52.666,
      "duration": 0.083,
      "velocity": 0.92,
      "hand": "right"
    },
    {
      "midi": 43,
      "time": 52.833,
      "duration": 0.333,
      "velocity": 0.9,
      "hand": "left"
    },
    {
      "midi": 47,
      "time": 52.833,
      "duration": 0.083,
      "velocity": 0.58,
      "hand": "left"
    },
    {
      "midi": 62,
      "time": 52.833,
      "duration": 0.152,
      "velocity": 0.7,
      "hand": "right"
    },
    {
      "midi": 67,
      "time": 52.833,
      "duration": 0.318,
      "velocity": 0.83,
      "hand": "right"
    },
    {
      "midi": 71,
      "time": 52.833,
      "duration": 0.152,
      "velocity": 0.69,
      "hand": "right"
    },
    {
      "midi": 51,
      "time": 53,
      "duration": 0.083,
      "velocity": 0.46,
      "hand": "left"
    },
    {
      "midi": 55,
      "time": 53,
      "duration": 0.151,
      "velocity": 0.65,
      "hand": "left"
    },
    {
      "midi": 62,
      "time": 53,
      "duration": 0.151,
      "velocity": 1,
      "hand": "right"
    },
    {
      "midi": 71,
      "time": 53,
      "duration": 0.318,
      "velocity": 0.86,
      "hand": "right"
    },
    {
      "midi": 55,
      "time": 53.166,
      "duration": 0.152,
      "velocity": 0.64,
      "hand": "left"
    },
    {
      "midi": 59,
      "time": 53.166,
      "duration": 0.152,
      "velocity": 0.67,
      "hand": "left"
    },
    {
      "midi": 62,
      "time": 53.166,
      "duration": 0.152,
      "velocity": 0.64,
      "hand": "right"
    },
    {
      "midi": 67,
      "time": 53.166,
      "duration": 0.152,
      "velocity": 0.55,
      "hand": "right"
    },
    {
      "midi": 43,
      "time": 53.333,
      "duration": 0.667,
      "velocity": 0.87,
      "hand": "left"
    },
    {
      "midi": 47,
      "time": 53.333,
      "duration": 0.083,
      "velocity": 0.77,
      "hand": "left"
    },
    {
      "midi": 67,
      "time": 53.333,
      "duration": 0.318,
      "velocity": 1,
      "hand": "right"
    },
    {
      "midi": 71,
      "time": 53.333,
      "duration": 0.318,
      "velocity": 0.71,
      "hand": "right"
    },
    {
      "midi": 74,
      "time": 53.333,
      "duration": 0.652,
      "velocity": 0.71,
      "hand": "right"
    },
    {
      "midi": 79,
      "time": 53.333,
      "duration": 1.318,
      "velocity": 0.71,
      "hand": "right"
    },
    {
      "midi": 51,
      "time": 53.666,
      "duration": 0.083,
      "velocity": 0.51,
      "hand": "left"
    },
    {
      "midi": 67,
      "time": 53.666,
      "duration": 0.083,
      "velocity": 1,
      "hand": "right"
    },
    {
      "midi": 71,
      "time": 53.666,
      "duration": 0.152,
      "velocity": 0.81,
      "hand": "right"
    },
    {
      "midi": 67,
      "time": 53.833,
      "duration": 0.152,
      "velocity": 0.79,
      "hand": "right"
    },
    {
      "midi": 71,
      "time": 53.833,
      "duration": 0.485,
      "velocity": 0.83,
      "hand": "right"
    },
    {
      "midi": 38,
      "time": 54,
      "duration": 0.083,
      "velocity": 0.91,
      "hand": "left"
    },
    {
      "midi": 51,
      "time": 54,
      "duration": 0.083,
      "velocity": 0.74,
      "hand": "left"
    },
    {
      "midi": 67,
      "time": 54,
      "duration": 0.151,
      "velocity": 1,
      "hand": "right"
    },
    {
      "midi": 74,
      "time": 54,
      "duration": 0.083,
      "velocity": 0.79,
      "hand": "right"
    },
    {
      "midi": 62,
      "time": 54.166,
      "duration": 0.152,
      "velocity": 0.64,
      "hand": "right"
    },
    {
      "midi": 67,
      "time": 54.166,
      "duration": 0.319,
      "velocity": 0.67,
      "hand": "right"
    },
    {
      "midi": 43,
      "time": 54.333,
      "duration": 0.083,
      "velocity": 0.85,
      "hand": "left"
    },
    {
      "midi": 47,
      "time": 54.333,
      "duration": 0.083,
      "velocity": 0.67,
      "hand": "left"
    },
    {
      "midi": 62,
      "time": 54.333,
      "duration": 0.152,
      "velocity": 0.54,
      "hand": "right"
    },
    {
      "midi": 69,
      "time": 54.333,
      "duration": 0.167,
      "velocity": 1,
      "hand": "right"
    },
    {
      "midi": 71,
      "time": 54.333,
      "duration": 0.167,
      "velocity": 0.74,
      "hand": "right"
    },
    {
      "midi": 62,
      "time": 54.5,
      "duration": 0.151,
      "velocity": 0.58,
      "hand": "right"
    },
    {
      "midi": 67,
      "time": 54.5,
      "duration": 0.151,
      "velocity": 0.59,
      "hand": "right"
    },
    {
      "midi": 43,
      "time": 54.666,
      "duration": 2.167,
      "velocity": 0.86,
      "hand": "left"
    },
    {
      "midi": 47,
      "time": 54.666,
      "duration": 0.083,
      "velocity": 0.83,
      "hand": "left"
    },
    {
      "midi": 67,
      "time": 54.666,
      "duration": 0.485,
      "velocity": 1,
      "hand": "right"
    },
    {
      "midi": 71,
      "time": 54.666,
      "duration": 0.319,
      "velocity": 0.68,
      "hand": "right"
    },
    {
      "midi": 74,
      "time": 54.666,
      "duration": 0.485,
      "velocity": 0.74,
      "hand": "right"
    },
    {
      "midi": 79,
      "time": 54.666,
      "duration": 1.833,
      "velocity": 0.76,
      "hand": "right"
    },
    {
      "midi": 51,
      "time": 55,
      "duration": 0.083,
      "velocity": 0.43,
      "hand": "left"
    },
    {
      "midi": 71,
      "time": 55,
      "duration": 0.151,
      "velocity": 0.76,
      "hand": "right"
    },
    {
      "midi": 59,
      "time": 55.166,
      "duration": 0.152,
      "velocity": 0.61,
      "hand": "left"
    },
    {
      "midi": 67,
      "time": 55.166,
      "duration": 0.319,
      "velocity": 0.87,
      "hand": "right"
    },
    {
      "midi": 69,
      "time": 55.166,
      "duration": 0.167,
      "velocity": 1,
      "hand": "right"
    },
    {
      "midi": 71,
      "time": 55.166,
      "duration": 0.319,
      "velocity": 0.79,
      "hand": "right"
    },
    {
      "midi": 74,
      "time": 55.166,
      "duration": 0.167,
      "velocity": 0.76,
      "hand": "right"
    },
    {
      "midi": 38,
      "time": 55.333,
      "duration": 0.083,
      "velocity": 0.91,
      "hand": "left"
    },
    {
      "midi": 51,
      "time": 55.333,
      "duration": 0.083,
      "velocity": 0.72,
      "hand": "left"
    },
    {
      "midi": 59,
      "time": 55.5,
      "duration": 0.151,
      "velocity": 0.59,
      "hand": "left"
    },
    {
      "midi": 62,
      "time": 55.5,
      "duration": 0.151,
      "velocity": 0.63,
      "hand": "right"
    },
    {
      "midi": 67,
      "time": 55.5,
      "duration": 0.318,
      "velocity": 0.73,
      "hand": "right"
    },
    {
      "midi": 71,
      "time": 55.5,
      "duration": 0.151,
      "velocity": 0.76,
      "hand": "right"
    },
    {
      "midi": 51,
      "time": 55.666,
      "duration": 0.083,
      "velocity": 0.54,
      "hand": "left"
    },
    {
      "midi": 55,
      "time": 55.666,
      "duration": 0.167,
      "velocity": 0.69,
      "hand": "left"
    },
    {
      "midi": 62,
      "time": 55.666,
      "duration": 0.152,
      "velocity": 0.67,
      "hand": "right"
    },
    {
      "midi": 71,
      "time": 55.666,
      "duration": 2,
      "velocity": 1,
      "hand": "right"
    },
    {
      "midi": 67,
      "time": 55.833,
      "duration": 0.083,
      "velocity": 0.56,
      "hand": "right"
    },
    {
      "midi": 70,
      "time": 55.833,
      "duration": 0.083,
      "velocity": 0.71,
      "hand": "right"
    },
    {
      "midi": 73,
      "time": 55.833,
      "duration": 0.083,
      "velocity": 0.71,
      "hand": "right"
    },
    {
      "midi": 78,
      "time": 55.833,
      "duration": 0.083,
      "velocity": 0.71,
      "hand": "right"
    },
    {
      "midi": 38,
      "time": 56,
      "duration": 0.651,
      "velocity": 0.9,
      "hand": "left"
    },
    {
      "midi": 47,
      "time": 56,
      "duration": 0.083,
      "velocity": 0.82,
      "hand": "left"
    },
    {
      "midi": 66,
      "time": 56,
      "duration": 0.318,
      "velocity": 0.72,
      "hand": "right"
    },
    {
      "midi": 69,
      "time": 56,
      "duration": 1.318,
      "velocity": 0.71,
      "hand": "right"
    },
    {
      "midi": 72,
      "time": 56,
      "duration": 0.651,
      "velocity": 0.71,
      "hand": "right"
    },
    {
      "midi": 78,
      "time": 56,
      "duration": 2.667,
      "velocity": 0.63,
      "hand": "right"
    },
    {
      "midi": 51,
      "time": 56.333,
      "duration": 0.083,
      "velocity": 0.44,
      "hand": "left"
    },
    {
      "midi": 66,
      "time": 56.333,
      "duration": 0.152,
      "velocity": 0.69,
      "hand": "right"
    },
    {
      "midi": 54,
      "time": 56.5,
      "duration": 0.318,
      "velocity": 0.61,
      "hand": "left"
    },
    {
      "midi": 60,
      "time": 56.5,
      "duration": 0.318,
      "velocity": 0.84,
      "hand": "right"
    },
    {
      "midi": 62,
      "time": 56.5,
      "duration": 0.651,
      "velocity": 0.87,
      "hand": "right"
    },
    {
      "midi": 66,
      "time": 56.5,
      "duration": 0.485,
      "velocity": 0.82,
      "hand": "right"
    },
    {
      "midi": 38,
      "time": 56.666,
      "duration": 0.083,
      "velocity": 0.91,
      "hand": "left"
    },
    {
      "midi": 51,
      "time": 56.666,
      "duration": 0.083,
      "velocity": 0.74,
      "hand": "left"
    },
    {
      "midi": 72,
      "time": 56.666,
      "duration": 0.333,
      "velocity": 0.82,
      "hand": "right"
    },
    {
      "midi": 54,
      "time": 56.833,
      "duration": 0.152,
      "velocity": 0.61,
      "hand": "left"
    },
    {
      "midi": 60,
      "time": 56.833,
      "duration": 0.152,
      "velocity": 0.68,
      "hand": "right"
    },
    {
      "midi": 38,
      "time": 57,
      "duration": 0.083,
      "velocity": 0.86,
      "hand": "left"
    },
    {
      "midi": 47,
      "time": 57,
      "duration": 0.083,
      "velocity": 0.72,
      "hand": "left"
    },
    {
      "midi": 60,
      "time": 57,
      "duration": 0.151,
      "velocity": 0.65,
      "hand": "right"
    },
    {
      "midi": 66,
      "time": 57,
      "duration": 0.151,
      "velocity": 0.76,
      "hand": "right"
    },
    {
      "midi": 60,
      "time": 57.166,
      "duration": 0.152,
      "velocity": 0.65,
      "hand": "right"
    },
    {
      "midi": 62,
      "time": 57.166,
      "duration": 0.152,
      "velocity": 0.66,
      "hand": "right"
    },
    {
      "midi": 66,
      "time": 57.166,
      "duration": 0.152,
      "velocity": 0.48,
      "hand": "right"
    },
    {
      "midi": 38,
      "time": 57.333,
      "duration": 0.652,
      "velocity": 0.83,
      "hand": "left"
    },
    {
      "midi": 47,
      "time": 57.333,
      "duration": 0.083,
      "velocity": 0.73,
      "hand": "left"
    },
    {
      "midi": 62,
      "time": 57.333,
      "duration": 0.485,
      "velocity": 0.87,
      "hand": "right"
    },
    {
      "midi": 66,
      "time": 57.333,
      "duration": 0.318,
      "velocity": 0.71,
      "hand": "right"
    },
    {
      "midi": 69,
      "time": 57.333,
      "duration": 0.318,
      "velocity": 0.46,
      "hand": "right"
    },
    {
      "midi": 72,
      "time": 57.333,
      "duration": 0.652,
      "velocity": 0.74,
      "hand": "right"
    },
    {
      "midi": 51,
      "time": 57.666,
      "duration": 0.083,
      "velocity": 0.52,
      "hand": "left"
    },
    {
      "midi": 66,
      "time": 57.666,
      "duration": 0.152,
      "velocity": 0.74,
      "hand": "right"
    },
    {
      "midi": 69,
      "time": 57.666,
      "duration": 0.167,
      "velocity": 1,
      "hand": "right"
    },
    {
      "midi": 60,
      "time": 57.833,
      "duration": 0.318,
      "velocity": 0.83,
      "hand": "right"
    },
    {
      "midi": 62,
      "time": 57.833,
      "duration": 0.318,
      "velocity": 0.87,
      "hand": "right"
    },
    {
      "midi": 66,
      "time": 57.833,
      "duration": 0.318,
      "velocity": 0.76,
      "hand": "right"
    },
    {
      "midi": 38,
      "time": 58,
      "duration": 0.083,
      "velocity": 0.91,
      "hand": "left"
    },
    {
      "midi": 51,
      "time": 58,
      "duration": 0.083,
      "velocity": 0.71,
      "hand": "left"
    },
    {
      "midi": 64,
      "time": 58,
      "duration": 0.167,
      "velocity": 1,
      "hand": "right"
    },
    {
      "midi": 72,
      "time": 58,
      "duration": 0.5,
      "velocity": 0.76,
      "hand": "right"
    },
    {
      "midi": 60,
      "time": 58.166,
      "duration": 0.5,
      "velocity": 0.71,
      "hand": "right"
    },
    {
      "midi": 62,
      "time": 58.166,
      "duration": 0.485,
      "velocity": 0.8,
      "hand": "right"
    },
    {
      "midi": 66,
      "time": 58.166,
      "duration": 0.152,
      "velocity": 0.59,
      "hand": "right"
    },
    {
      "midi": 51,
      "time": 58.333,
      "duration": 0.083,
      "velocity": 0.38,
      "hand": "left"
    },
    {
      "midi": 66,
      "time": 58.333,
      "duration": 0.333,
      "velocity": 1,
      "hand": "right"
    },
    {
      "midi": 38,
      "time": 58.5,
      "duration": 0.083,
      "velocity": 0.86,
      "hand": "left"
    },
    {
      "midi": 47,
      "time": 58.5,
      "duration": 0.083,
      "velocity": 0.39,
      "hand": "left"
    },
    {
      "midi": 43,
      "time": 58.666,
      "duration": 0.985,
      "velocity": 0.91,
      "hand": "left"
    },
    {
      "midi": 47,
      "time": 58.666,
      "duration": 0.083,
      "velocity": 0.86,
      "hand": "left"
    },
    {
      "midi": 71,
      "time": 58.666,
      "duration": 0.319,
      "velocity": 0.71,
      "hand": "right"
    },
    {
      "midi": 74,
      "time": 58.666,
      "duration": 0.652,
      "velocity": 0.71,
      "hand": "right"
    },
    {
      "midi": 79,
      "time": 58.666,
      "duration": 2.333,
      "velocity": 0.68,
      "hand": "right"
    },
    {
      "midi": 83,
      "time": 58.666,
      "duration": 5.333,
      "velocity": 0.63,
      "hand": "right"
    },
    {
      "midi": 51,
      "time": 59,
      "duration": 0.083,
      "velocity": 0.46,
      "hand": "left"
    },
    {
      "midi": 71,
      "time": 59,
      "duration": 0.151,
      "velocity": 0.79,
      "hand": "right"
    },
    {
      "midi": 67,
      "time": 59.166,
      "duration": 0.319,
      "velocity": 0.73,
      "hand": "right"
    },
    {
      "midi": 71,
      "time": 59.166,
      "duration": 0.485,
      "velocity": 0.72,
      "hand": "right"
    },
    {
      "midi": 38,
      "time": 59.333,
      "duration": 0.083,
      "velocity": 0.91,
      "hand": "left"
    },
    {
      "midi": 51,
      "time": 59.333,
      "duration": 0.083,
      "velocity": 0.82,
      "hand": "left"
    },
    {
      "midi": 62,
      "time": 59.333,
      "duration": 0.152,
      "velocity": 1,
      "hand": "right"
    },
    {
      "midi": 74,
      "time": 59.333,
      "duration": 0.167,
      "velocity": 0.89,
      "hand": "right"
    },
    {
      "midi": 62,
      "time": 59.5,
      "duration": 0.151,
      "velocity": 0.59,
      "hand": "right"
    },
    {
      "midi": 67,
      "time": 59.5,
      "duration": 0.333,
      "velocity": 0.81,
      "hand": "right"
    },
    {
      "midi": 43,
      "time": 59.666,
      "duration": 0.083,
      "velocity": 0.89,
      "hand": "left"
    },
    {
      "midi": 47,
      "time": 59.666,
      "duration": 0.083,
      "velocity": 0.59,
      "hand": "left"
    },
    {
      "midi": 62,
      "time": 59.666,
      "duration": 0.152,
      "velocity": 1,
      "hand": "right"
    },
    {
      "midi": 71,
      "time": 59.666,
      "duration": 0.319,
      "velocity": 0.79,
      "hand": "right"
    },
    {
      "midi": 62,
      "time": 59.833,
      "duration": 0.152,
      "velocity": 0.58,
      "hand": "right"
    },
    {
      "midi": 43,
      "time": 60,
      "duration": 1.167,
      "velocity": 0.83,
      "hand": "left"
    },
    {
      "midi": 47,
      "time": 60,
      "duration": 0.083,
      "velocity": 0.8,
      "hand": "left"
    },
    {
      "midi": 62,
      "time": 60,
      "duration": 0.485,
      "velocity": 0.88,
      "hand": "right"
    },
    {
      "midi": 67,
      "time": 60,
      "duration": 0.318,
      "velocity": 1,
      "hand": "right"
    },
    {
      "midi": 71,
      "time": 60,
      "duration": 0.318,
      "velocity": 0.66,
      "hand": "right"
    },
    {
      "midi": 51,
      "time": 60.333,
      "duration": 0.083,
      "velocity": 0.5,
      "hand": "left"
    },
    {
      "midi": 67,
      "time": 60.333,
      "duration": 0.152,
      "velocity": 1,
      "hand": "right"
    },
    {
      "midi": 71,
      "time": 60.333,
      "duration": 0.083,
      "velocity": 0.86,
      "hand": "right"
    },
    {
      "midi": 62,
      "time": 60.5,
      "duration": 0.318,
      "velocity": 0.65,
      "hand": "right"
    },
    {
      "midi": 67,
      "time": 60.5,
      "duration": 0.151,
      "velocity": 0.91,
      "hand": "right"
    },
    {
      "midi": 71,
      "time": 60.5,
      "duration": 0.318,
      "velocity": 0.73,
      "hand": "right"
    },
    {
      "midi": 38,
      "time": 60.666,
      "duration": 0.083,
      "velocity": 0.91,
      "hand": "left"
    },
    {
      "midi": 51,
      "time": 60.666,
      "duration": 0.083,
      "velocity": 0.74,
      "hand": "left"
    },
    {
      "midi": 67,
      "time": 60.666,
      "duration": 0.167,
      "velocity": 1,
      "hand": "right"
    },
    {
      "midi": 74,
      "time": 60.666,
      "duration": 0.083,
      "velocity": 0.81,
      "hand": "right"
    },
    {
      "midi": 59,
      "time": 60.833,
      "duration": 0.167,
      "velocity": 0.66,
      "hand": "left"
    },
    {
      "midi": 62,
      "time": 60.833,
      "duration": 0.318,
      "velocity": 0.68,
      "hand": "right"
    },
    {
      "midi": 71,
      "time": 60.833,
      "duration": 0.152,
      "velocity": 0.56,
      "hand": "right"
    },
    {
      "midi": 51,
      "time": 61,
      "duration": 0.083,
      "velocity": 0.46,
      "hand": "left"
    },
    {
      "midi": 55,
      "time": 61,
      "duration": 0.318,
      "velocity": 0.63,
      "hand": "left"
    },
    {
      "midi": 69,
      "time": 61,
      "duration": 0.167,
      "velocity": 1,
      "hand": "right"
    },
    {
      "midi": 71,
      "time": 61,
      "duration": 0.151,
      "velocity": 0.83,
      "hand": "right"
    },
    {
      "midi": 59,
      "time": 61.166,
      "duration": 0.152,
      "velocity": 0.54,
      "hand": "left"
    },
    {
      "midi": 62,
      "time": 61.166,
      "duration": 0.152,
      "velocity": 0.61,
      "hand": "right"
    },
    {
      "midi": 67,
      "time": 61.166,
      "duration": 0.152,
      "velocity": 0.72,
      "hand": "right"
    },
    {
      "midi": 71,
      "time": 61.166,
      "duration": 0.152,
      "velocity": 0.61,
      "hand": "right"
    },
    {
      "midi": 43,
      "time": 61.333,
      "duration": 0.985,
      "velocity": 0.91,
      "hand": "left"
    },
    {
      "midi": 47,
      "time": 61.333,
      "duration": 0.083,
      "velocity": 0.8,
      "hand": "left"
    },
    {
      "midi": 67,
      "time": 61.333,
      "duration": 0.485,
      "velocity": 1,
      "hand": "right"
    },
    {
      "midi": 71,
      "time": 61.333,
      "duration": 0.318,
      "velocity": 0.73,
      "hand": "right"
    },
    {
      "midi": 74,
      "time": 61.333,
      "duration": 0.652,
      "velocity": 0.72,
      "hand": "right"
    },
    {
      "midi": 79,
      "time": 61.333,
      "duration": 2.333,
      "velocity": 0.76,
      "hand": "right"
    },
    {
      "midi": 51,
      "time": 61.666,
      "duration": 0.083,
      "velocity": 0.4,
      "hand": "left"
    },
    {
      "midi": 71,
      "time": 61.666,
      "duration": 0.152,
      "velocity": 0.79,
      "hand": "right"
    },
    {
      "midi": 59,
      "time": 61.833,
      "duration": 0.485,
      "velocity": 0.54,
      "hand": "left"
    },
    {
      "midi": 62,
      "time": 61.833,
      "duration": 0.152,
      "velocity": 0.71,
      "hand": "right"
    },
    {
      "midi": 67,
      "time": 61.833,
      "duration": 0.652,
      "velocity": 0.9,
      "hand": "right"
    },
    {
      "midi": 71,
      "time": 61.833,
      "duration": 0.318,
      "velocity": 0.66,
      "hand": "right"
    },
    {
      "midi": 38,
      "time": 62,
      "duration": 0.083,
      "velocity": 0.91,
      "hand": "left"
    },
    {
      "midi": 51,
      "time": 62,
      "duration": 0.083,
      "velocity": 0.8,
      "hand": "left"
    },
    {
      "midi": 62,
      "time": 62,
      "duration": 0.318,
      "velocity": 0.7,
      "hand": "right"
    },
    {
      "midi": 69,
      "time": 62,
      "duration": 0.167,
      "velocity": 1,
      "hand": "right"
    },
    {
      "midi": 74,
      "time": 62,
      "duration": 0.167,
      "velocity": 0.83,
      "hand": "right"
    },
    {
      "midi": 71,
      "time": 62.166,
      "duration": 0.152,
      "velocity": 0.53,
      "hand": "right"
    },
    {
      "midi": 43,
      "time": 62.333,
      "duration": 0.083,
      "velocity": 0.87,
      "hand": "left"
    },
    {
      "midi": 47,
      "time": 62.333,
      "duration": 0.083,
      "velocity": 0.78,
      "hand": "left"
    },
    {
      "midi": 62,
      "time": 62.333,
      "duration": 0.152,
      "velocity": 0.64,
      "hand": "right"
    },
    {
      "midi": 71,
      "time": 62.333,
      "duration": 0.152,
      "velocity": 1,
      "hand": "right"
    },
    {
      "midi": 59,
      "time": 62.5,
      "duration": 0.151,
      "velocity": 0.63,
      "hand": "left"
    },
    {
      "midi": 62,
      "time": 62.5,
      "duration": 0.151,
      "velocity": 0.73,
      "hand": "right"
    },
    {
      "midi": 67,
      "time": 62.5,
      "duration": 0.151,
      "velocity": 0.7,
      "hand": "right"
    },
    {
      "midi": 71,
      "time": 62.5,
      "duration": 0.151,
      "velocity": 0.56,
      "hand": "right"
    },
    {
      "midi": 43,
      "time": 62.666,
      "duration": 0.667,
      "velocity": 0.85,
      "hand": "left"
    },
    {
      "midi": 47,
      "time": 62.666,
      "duration": 0.083,
      "velocity": 0.74,
      "hand": "left"
    },
    {
      "midi": 62,
      "time": 62.666,
      "duration": 0.485,
      "velocity": 0.81,
      "hand": "right"
    },
    {
      "midi": 67,
      "time": 62.666,
      "duration": 0.485,
      "velocity": 0.85,
      "hand": "right"
    },
    {
      "midi": 71,
      "time": 62.666,
      "duration": 0.319,
      "velocity": 0.65,
      "hand": "right"
    },
    {
      "midi": 51,
      "time": 63,
      "duration": 0.083,
      "velocity": 0.54,
      "hand": "left"
    },
    {
      "midi": 69,
      "time": 63,
      "duration": 0.333,
      "velocity": 1,
      "hand": "right"
    },
    {
      "midi": 71,
      "time": 63,
      "duration": 0.151,
      "velocity": 0.86,
      "hand": "right"
    },
    {
      "midi": 59,
      "time": 63.166,
      "duration": 0.152,
      "velocity": 0.64,
      "hand": "left"
    },
    {
      "midi": 62,
      "time": 63.166,
      "duration": 0.319,
      "velocity": 0.9,
      "hand": "right"
    },
    {
      "midi": 67,
      "time": 63.166,
      "duration": 0.152,
      "velocity": 0.89,
      "hand": "right"
    },
    {
      "midi": 71,
      "time": 63.166,
      "duration": 0.319,
      "velocity": 0.78,
      "hand": "right"
    },
    {
      "midi": 38,
      "time": 63.333,
      "duration": 0.083,
      "velocity": 0.91,
      "hand": "left"
    },
    {
      "midi": 51,
      "time": 63.333,
      "duration": 0.083,
      "velocity": 0.78,
      "hand": "left"
    },
    {
      "midi": 67,
      "time": 63.333,
      "duration": 0.152,
      "velocity": 1,
      "hand": "right"
    },
    {
      "midi": 74,
      "time": 63.333,
      "duration": 0.083,
      "velocity": 0.83,
      "hand": "right"
    },
    {
      "midi": 43,
      "time": 63.5,
      "duration": 0.333,
      "velocity": 0.9,
      "hand": "left"
    },
    {
      "midi": 47,
      "time": 63.5,
      "duration": 0.083,
      "velocity": 0.58,
      "hand": "left"
    },
    {
      "midi": 62,
      "time": 63.5,
      "duration": 0.318,
      "velocity": 0.7,
      "hand": "right"
    },
    {
      "midi": 67,
      "time": 63.5,
      "duration": 0.318,
      "velocity": 0.83,
      "hand": "right"
    },
    {
      "midi": 71,
      "time": 63.5,
      "duration": 0.151,
      "velocity": 0.69,
      "hand": "right"
    },
    {
      "midi": 51,
      "time": 63.666,
      "duration": 0.083,
      "velocity": 0.46,
      "hand": "left"
    },
    {
      "midi": 55,
      "time": 63.666,
      "duration": 0.152,
      "velocity": 0.65,
      "hand": "left"
    },
    {
      "midi": 66,
      "time": 63.666,
      "duration": 0.333,
      "velocity": 1,
      "hand": "right"
    },
    {
      "midi": 71,
      "time": 63.666,
      "duration": 0.167,
      "velocity": 0.79,
      "hand": "right"
    },
    {
      "midi": 55,
      "time": 63.833,
      "duration": 0.152,
      "velocity": 0.64,
      "hand": "left"
    },
    {
      "midi": 59,
      "time": 63.833,
      "duration": 0.152,
      "velocity": 0.67,
      "hand": "left"
    },
    {
      "midi": 62,
      "time": 63.833,
      "duration": 0.152,
      "velocity": 0.64,
      "hand": "right"
    },
    {
      "midi": 67,
      "time": 63.833,
      "duration": 0.152,
      "velocity": 0.55,
      "hand": "right"
    },
    {
      "midi": 43,
      "time": 64,
      "duration": 0.985,
      "velocity": 0.87,
      "hand": "left"
    },
    {
      "midi": 47,
      "time": 64,
      "duration": 0.083,
      "velocity": 0.77,
      "hand": "left"
    },
    {
      "midi": 67,
      "time": 64,
      "duration": 0.485,
      "velocity": 0.83,
      "hand": "right"
    },
    {
      "midi": 71,
      "time": 64,
      "duration": 0.318,
      "velocity": 0.71,
      "hand": "right"
    },
    {
      "midi": 74,
      "time": 64,
      "duration": 0.651,
      "velocity": 0.71,
      "hand": "right"
    },
    {
      "midi": 79,
      "time": 64,
      "duration": 2.651,
      "velocity": 0.74,
      "hand": "right"
    },
    {
      "midi": 51,
      "time": 64.333,
      "duration": 0.083,
      "velocity": 0.51,
      "hand": "left"
    },
    {
      "midi": 62,
      "time": 64.333,
      "duration": 0.167,
      "velocity": 1,
      "hand": "right"
    },
    {
      "midi": 71,
      "time": 64.333,
      "duration": 0.152,
      "velocity": 0.81,
      "hand": "right"
    },
    {
      "midi": 67,
      "time": 64.5,
      "duration": 0.318,
      "velocity": 0.79,
      "hand": "right"
    },
    {
      "midi": 71,
      "time": 64.5,
      "duration": 0.485,
      "velocity": 0.83,
      "hand": "right"
    },
    {
      "midi": 38,
      "time": 64.666,
      "duration": 0.083,
      "velocity": 0.91,
      "hand": "left"
    },
    {
      "midi": 51,
      "time": 64.666,
      "duration": 0.083,
      "velocity": 0.74,
      "hand": "left"
    },
    {
      "midi": 62,
      "time": 64.666,
      "duration": 0.152,
      "velocity": 1,
      "hand": "right"
    },
    {
      "midi": 74,
      "time": 64.666,
      "duration": 0.083,
      "velocity": 0.83,
      "hand": "right"
    },
    {
      "midi": 62,
      "time": 64.833,
      "duration": 0.152,
      "velocity": 0.64,
      "hand": "right"
    },
    {
      "midi": 67,
      "time": 64.833,
      "duration": 0.318,
      "velocity": 0.67,
      "hand": "right"
    },
    {
      "midi": 43,
      "time": 65,
      "duration": 0.083,
      "velocity": 0.85,
      "hand": "left"
    },
    {
      "midi": 47,
      "time": 65,
      "duration": 0.083,
      "velocity": 0.67,
      "hand": "left"
    },
    {
      "midi": 62,
      "time": 65,
      "duration": 0.151,
      "velocity": 1,
      "hand": "right"
    },
    {
      "midi": 71,
      "time": 65,
      "duration": 0.167,
      "velocity": 0.81,
      "hand": "right"
    },
    {
      "midi": 62,
      "time": 65.166,
      "duration": 0.152,
      "velocity": 0.58,
      "hand": "right"
    },
    {
      "midi": 67,
      "time": 65.166,
      "duration": 0.152,
      "velocity": 0.59,
      "hand": "right"
    },
    {
      "midi": 43,
      "time": 65.333,
      "duration": 1.167,
      "velocity": 0.86,
      "hand": "left"
    },
    {
      "midi": 47,
      "time": 65.333,
      "duration": 0.083,
      "velocity": 0.83,
      "hand": "left"
    },
    {
      "midi": 62,
      "time": 65.333,
      "duration": 0.485,
      "velocity": 0.74,
      "hand": "right"
    },
    {
      "midi": 67,
      "time": 65.333,
      "duration": 0.318,
      "velocity": 1,
      "hand": "right"
    },
    {
      "midi": 71,
      "time": 65.333,
      "duration": 0.318,
      "velocity": 0.53,
      "hand": "right"
    },
    {
      "midi": 51,
      "time": 65.666,
      "duration": 0.083,
      "velocity": 0.43,
      "hand": "left"
    },
    {
      "midi": 67,
      "time": 65.666,
      "duration": 0.083,
      "velocity": 1,
      "hand": "right"
    },
    {
      "midi": 71,
      "time": 65.666,
      "duration": 0.152,
      "velocity": 0.83,
      "hand": "right"
    },
    {
      "midi": 59,
      "time": 65.833,
      "duration": 0.152,
      "velocity": 0.61,
      "hand": "left"
    },
    {
      "midi": 62,
      "time": 65.833,
      "duration": 0.318,
      "velocity": 0.84,
      "hand": "right"
    },
    {
      "midi": 67,
      "time": 65.833,
      "duration": 0.318,
      "velocity": 1,
      "hand": "right"
    },
    {
      "midi": 71,
      "time": 65.833,
      "duration": 0.318,
      "velocity": 0.79,
      "hand": "right"
    },
    {
      "midi": 38,
      "time": 66,
      "duration": 0.083,
      "velocity": 0.91,
      "hand": "left"
    },
    {
      "midi": 51,
      "time": 66,
      "duration": 0.083,
      "velocity": 0.72,
      "hand": "left"
    },
    {
      "midi": 74,
      "time": 66,
      "duration": 0.083,
      "velocity": 0.86,
      "hand": "right"
    },
    {
      "midi": 59,
      "time": 66.166,
      "duration": 0.152,
      "velocity": 0.59,
      "hand": "left"
    },
    {
      "midi": 62,
      "time": 66.166,
      "duration": 0.152,
      "velocity": 0.63,
      "hand": "right"
    },
    {
      "midi": 67,
      "time": 66.166,
      "duration": 0.319,
      "velocity": 0.73,
      "hand": "right"
    },
    {
      "midi": 69,
      "time": 66.166,
      "duration": 0.083,
      "velocity": 1,
      "hand": "right"
    },
    {
      "midi": 71,
      "time": 66.166,
      "duration": 0.152,
      "velocity": 0.58,
      "hand": "right"
    },
    {
      "midi": 51,
      "time": 66.333,
      "duration": 0.083,
      "velocity": 0.54,
      "hand": "left"
    },
    {
      "midi": 55,
      "time": 66.333,
      "duration": 0.318,
      "velocity": 0.69,
      "hand": "left"
    },
    {
      "midi": 62,
      "time": 66.333,
      "duration": 0.152,
      "velocity": 0.67,
      "hand": "right"
    },
    {
      "midi": 71,
      "time": 66.333,
      "duration": 0.167,
      "velocity": 0.83,
      "hand": "right"
    },
    {
      "midi": 62,
      "time": 66.5,
      "duration": 0.151,
      "velocity": 0.64,
      "hand": "right"
    },
    {
      "midi": 67,
      "time": 66.5,
      "duration": 0.151,
      "velocity": 1,
      "hand": "right"
    },
    {
      "midi": 43,
      "time": 66.666,
      "duration": 0.985,
      "velocity": 0.9,
      "hand": "left"
    },
    {
      "midi": 47,
      "time": 66.666,
      "duration": 0.083,
      "velocity": 0.82,
      "hand": "left"
    },
    {
      "midi": 67,
      "time": 66.666,
      "duration": 0.485,
      "velocity": 0.86,
      "hand": "right"
    },
    {
      "midi": 71,
      "time": 66.666,
      "duration": 0.319,
      "velocity": 0.72,
      "hand": "right"
    },
    {
      "midi": 74,
      "time": 66.666,
      "duration": 0.652,
      "velocity": 0.76,
      "hand": "right"
    },
    {
      "midi": 79,
      "time": 66.666,
      "duration": 1.5,
      "velocity": 0.79,
      "hand": "right"
    },
    {
      "midi": 51,
      "time": 67,
      "duration": 0.083,
      "velocity": 0.44,
      "hand": "left"
    },
    {
      "midi": 71,
      "time": 67,
      "duration": 0.151,
      "velocity": 0.81,
      "hand": "right"
    },
    {
      "midi": 59,
      "time": 67.166,
      "duration": 0.319,
      "velocity": 0.61,
      "hand": "left"
    },
    {
      "midi": 62,
      "time": 67.166,
      "duration": 0.319,
      "velocity": 0.84,
      "hand": "right"
    },
    {
      "midi": 67,
      "time": 67.166,
      "duration": 0.652,
      "velocity": 0.87,
      "hand": "right"
    },
    {
      "midi": 71,
      "time": 67.166,
      "duration": 0.485,
      "velocity": 0.82,
      "hand": "right"
    },
    {
      "midi": 38,
      "time": 67.333,
      "duration": 0.083,
      "velocity": 0.91,
      "hand": "left"
    },
    {
      "midi": 51,
      "time": 67.333,
      "duration": 0.083,
      "velocity": 0.74,
      "hand": "left"
    },
    {
      "midi": 69,
      "time": 67.333,
      "duration": 0.167,
      "velocity": 1,
      "hand": "right"
    },
    {
      "midi": 74,
      "time": 67.333,
      "duration": 0.167,
      "velocity": 0.86,
      "hand": "right"
    },
    {
      "midi": 59,
      "time": 67.5,
      "duration": 0.151,
      "velocity": 0.61,
      "hand": "left"
    },
    {
      "midi": 62,
      "time": 67.5,
      "duration": 0.151,
      "velocity": 0.68,
      "hand": "right"
    },
    {
      "midi": 43,
      "time": 67.666,
      "duration": 0.083,
      "velocity": 0.86,
      "hand": "left"
    },
    {
      "midi": 47,
      "time": 67.666,
      "duration": 0.083,
      "velocity": 0.72,
      "hand": "left"
    },
    {
      "midi": 62,
      "time": 67.666,
      "duration": 0.152,
      "velocity": 0.65,
      "hand": "right"
    },
    {
      "midi": 71,
      "time": 67.666,
      "duration": 0.152,
      "velocity": 1,
      "hand": "right"
    },
    {
      "midi": 62,
      "time": 67.833,
      "duration": 0.152,
      "velocity": 0.65,
      "hand": "right"
    },
    {
      "midi": 67,
      "time": 67.833,
      "duration": 0.167,
      "velocity": 0.66,
      "hand": "right"
    },
    {
      "midi": 71,
      "time": 67.833,
      "duration": 0.167,
      "velocity": 0.48,
      "hand": "right"
    },
    {
      "midi": 38,
      "time": 68,
      "duration": 0.651,
      "velocity": 0.83,
      "hand": "left"
    },
    {
      "midi": 47,
      "time": 68,
      "duration": 0.083,
      "velocity": 0.73,
      "hand": "left"
    },
    {
      "midi": 66,
      "time": 68,
      "duration": 0.318,
      "velocity": 0.71,
      "hand": "right"
    },
    {
      "midi": 69,
      "time": 68,
      "duration": 1.318,
      "velocity": 0.71,
      "hand": "right"
    },
    {
      "midi": 72,
      "time": 68,
      "duration": 0.651,
      "velocity": 0.71,
      "hand": "right"
    },
    {
      "midi": 78,
      "time": 68,
      "duration": 1.333,
      "velocity": 0.63,
      "hand": "right"
    },
    {
      "midi": 51,
      "time": 68.333,
      "duration": 0.083,
      "velocity": 0.52,
      "hand": "left"
    },
    {
      "midi": 66,
      "time": 68.333,
      "duration": 0.152,
      "velocity": 0.72,
      "hand": "right"
    },
    {
      "midi": 60,
      "time": 68.5,
      "duration": 0.318,
      "velocity": 0.83,
      "hand": "right"
    },
    {
      "midi": 62,
      "time": 68.5,
      "duration": 0.318,
      "velocity": 0.87,
      "hand": "right"
    },
    {
      "midi": 66,
      "time": 68.5,
      "duration": 0.318,
      "velocity": 0.76,
      "hand": "right"
    },
    {
      "midi": 38,
      "time": 68.666,
      "duration": 0.083,
      "velocity": 0.91,
      "hand": "left"
    },
    {
      "midi": 51,
      "time": 68.666,
      "duration": 0.083,
      "velocity": 0.71,
      "hand": "left"
    },
    {
      "midi": 72,
      "time": 68.666,
      "duration": 0.333,
      "velocity": 0.85,
      "hand": "right"
    },
    {
      "midi": 60,
      "time": 68.833,
      "duration": 0.485,
      "velocity": 0.71,
      "hand": "right"
    },
    {
      "midi": 62,
      "time": 68.833,
      "duration": 0.485,
      "velocity": 0.8,
      "hand": "right"
    },
    {
      "midi": 66,
      "time": 68.833,
      "duration": 0.152,
      "velocity": 0.59,
      "hand": "right"
    },
    {
      "midi": 51,
      "time": 69,
      "duration": 0.083,
      "velocity": 0.38,
      "hand": "left"
    },
    {
      "midi": 66,
      "time": 69,
      "duration": 0.318,
      "velocity": 0.76,
      "hand": "right"
    },
    {
      "midi": 38,
      "time": 69.166,
      "duration": 0.083,
      "velocity": 0.86,
      "hand": "left"
    },
    {
      "midi": 47,
      "time": 69.166,
      "duration": 0.083,
      "velocity": 0.39,
      "hand": "left"
    },
    {
      "midi": 38,
      "time": 69.333,
      "duration": 0.652,
      "velocity": 0.91,
      "hand": "left"
    },
    {
      "midi": 47,
      "time": 69.333,
      "duration": 0.083,
      "velocity": 0.86,
      "hand": "left"
    },
    {
      "midi": 66,
      "time": 69.333,
      "duration": 0.318,
      "velocity": 0.71,
      "hand": "right"
    },
    {
      "midi": 69,
      "time": 69.333,
      "duration": 0.318,
      "velocity": 0.71,
      "hand": "right"
    },
    {
      "midi": 72,
      "time": 69.333,
      "duration": 0.652,
      "velocity": 0.82,
      "hand": "right"
    },
    {
      "midi": 74,
      "time": 69.333,
      "duration": 1.318,
      "velocity": 0.63,
      "hand": "right"
    },
    {
      "midi": 51,
      "time": 69.666,
      "duration": 0.083,
      "velocity": 0.46,
      "hand": "left"
    },
    {
      "midi": 66,
      "time": 69.666,
      "duration": 0.152,
      "velocity": 0.74,
      "hand": "right"
    },
    {
      "midi": 69,
      "time": 69.666,
      "duration": 0.167,
      "velocity": 1,
      "hand": "right"
    },
    {
      "midi": 62,
      "time": 69.833,
      "duration": 0.318,
      "velocity": 0.73,
      "hand": "right"
    },
    {
      "midi": 66,
      "time": 69.833,
      "duration": 0.485,
      "velocity": 0.72,
      "hand": "right"
    },
    {
      "midi": 38,
      "time": 70,
      "duration": 0.083,
      "velocity": 0.91,
      "hand": "left"
    },
    {
      "midi": 51,
      "time": 70,
      "duration": 0.083,
      "velocity": 0.82,
      "hand": "left"
    },
    {
      "midi": 64,
      "time": 70,
      "duration": 0.167,
      "velocity": 1,
      "hand": "right"
    },
    {
      "midi": 72,
      "time": 70,
      "duration": 0.667,
      "velocity": 0.85,
      "hand": "right"
    },
    {
      "midi": 60,
      "time": 70.166,
      "duration": 0.319,
      "velocity": 0.59,
      "hand": "right"
    },
    {
      "midi": 62,
      "time": 70.166,
      "duration": 0.333,
      "velocity": 0.81,
      "hand": "right"
    },
    {
      "midi": 38,
      "time": 70.333,
      "duration": 0.083,
      "velocity": 0.89,
      "hand": "left"
    },
    {
      "midi": 47,
      "time": 70.333,
      "duration": 0.083,
      "velocity": 0.59,
      "hand": "left"
    },
    {
      "midi": 66,
      "time": 70.333,
      "duration": 0.318,
      "velocity": 1,
      "hand": "right"
    },
    {
      "midi": 60,
      "time": 70.5,
      "duration": 0.151,
      "velocity": 0.58,
      "hand": "right"
    },
    {
      "midi": 38,
      "time": 70.666,
      "duration": 0.083,
      "velocity": 0.83,
      "hand": "left"
    },
    {
      "midi": 43,
      "time": 70.666,
      "duration": 1.319,
      "velocity": 0.83,
      "hand": "left"
    },
    {
      "midi": 71,
      "time": 70.666,
      "duration": 0.319,
      "velocity": 0.71,
      "hand": "right"
    },
    {
      "midi": 74,
      "time": 70.666,
      "duration": 0.652,
      "velocity": 0.71,
      "hand": "right"
    },
    {
      "midi": 79,
      "time": 70.666,
      "duration": 2.167,
      "velocity": 0.72,
      "hand": "right"
    },
    {
      "midi": 83,
      "time": 70.666,
      "duration": 3.833,
      "velocity": 0.63,
      "hand": "right"
    },
    {
      "midi": 51,
      "time": 71,
      "duration": 0.083,
      "velocity": 0.5,
      "hand": "left"
    },
    {
      "midi": 71,
      "time": 71,
      "duration": 0.151,
      "velocity": 0.74,
      "hand": "right"
    },
    {
      "midi": 62,
      "time": 71.166,
      "duration": 0.152,
      "velocity": 0.65,
      "hand": "right"
    },
    {
      "midi": 67,
      "time": 71.166,
      "duration": 0.652,
      "velocity": 0.91,
      "hand": "right"
    },
    {
      "midi": 71,
      "time": 71.166,
      "duration": 0.319,
      "velocity": 0.73,
      "hand": "right"
    },
    {
      "midi": 38,
      "time": 71.333,
      "duration": 0.083,
      "velocity": 0.91,
      "hand": "left"
    },
    {
      "midi": 51,
      "time": 71.333,
      "duration": 0.083,
      "velocity": 0.74,
      "hand": "left"
    },
    {
      "midi": 62,
      "time": 71.333,
      "duration": 0.152,
      "velocity": 1,
      "hand": "right"
    },
    {
      "midi": 74,
      "time": 71.333,
      "duration": 0.167,
      "velocity": 0.76,
      "hand": "right"
    },
    {
      "midi": 59,
      "time": 71.5,
      "duration": 0.167,
      "velocity": 0.66,
      "hand": "left"
    },
    {
      "midi": 62,
      "time": 71.5,
      "duration": 0.151,
      "velocity": 0.68,
      "hand": "right"
    },
    {
      "midi": 71,
      "time": 71.5,
      "duration": 0.151,
      "velocity": 0.56,
      "hand": "right"
    },
    {
      "midi": 51,
      "time": 71.666,
      "duration": 0.083,
      "velocity": 0.46,
      "hand": "left"
    },
    {
      "midi": 55,
      "time": 71.666,
      "duration": 0.319,
      "velocity": 0.63,
      "hand": "left"
    },
    {
      "midi": 62,
      "time": 71.666,
      "duration": 0.152,
      "velocity": 1,
      "hand": "right"
    },
    {
      "midi": 71,
      "time": 71.666,
      "duration": 0.152,
      "velocity": 0.79,
      "hand": "right"
    },
    {
      "midi": 59,
      "time": 71.833,
      "duration": 0.152,
      "velocity": 0.54,
      "hand": "left"
    },
    {
      "midi": 62,
      "time": 71.833,
      "duration": 0.152,
      "velocity": 0.61,
      "hand": "right"
    },
    {
      "midi": 67,
      "time": 71.833,
      "duration": 0.152,
      "velocity": 0.72,
      "hand": "right"
    },
    {
      "midi": 71,
      "time": 71.833,
      "duration": 0.152,
      "velocity": 0.61,
      "hand": "right"
    },
    {
      "midi": 43,
      "time": 72,
      "duration": 0.667,
      "velocity": 0.91,
      "hand": "left"
    },
    {
      "midi": 47,
      "time": 72,
      "duration": 0.083,
      "velocity": 0.8,
      "hand": "left"
    },
    {
      "midi": 62,
      "time": 72,
      "duration": 0.485,
      "velocity": 0.87,
      "hand": "right"
    },
    {
      "midi": 67,
      "time": 72,
      "duration": 0.318,
      "velocity": 1,
      "hand": "right"
    },
    {
      "midi": 71,
      "time": 72,
      "duration": 0.318,
      "velocity": 0.73,
      "hand": "right"
    },
    {
      "midi": 51,
      "time": 72.333,
      "duration": 0.083,
      "velocity": 0.4,
      "hand": "left"
    },
    {
      "midi": 67,
      "time": 72.333,
      "duration": 0.152,
      "velocity": 1,
      "hand": "right"
    },
    {
      "midi": 71,
      "time": 72.333,
      "duration": 0.152,
      "velocity": 0.89,
      "hand": "right"
    },
    {
      "midi": 59,
      "time": 72.5,
      "duration": 0.485,
      "velocity": 0.54,
      "hand": "left"
    },
    {
      "midi": 62,
      "time": 72.5,
      "duration": 0.151,
      "velocity": 0.71,
      "hand": "right"
    },
    {
      "midi": 67,
      "time": 72.5,
      "duration": 0.151,
      "velocity": 0.9,
      "hand": "right"
    },
    {
      "midi": 71,
      "time": 72.5,
      "duration": 0.318,
      "velocity": 0.66,
      "hand": "right"
    },
    {
      "midi": 38,
      "time": 72.666,
      "duration": 0.083,
      "velocity": 0.91,
      "hand": "left"
    },
    {
      "midi": 51,
      "time": 72.666,
      "duration": 0.083,
      "velocity": 0.8,
      "hand": "left"
    },
    {
      "midi": 62,
      "time": 72.666,
      "duration": 0.319,
      "velocity": 0.7,
      "hand": "right"
    },
    {
      "midi": 67,
      "time": 72.666,
      "duration": 0.167,
      "velocity": 1,
      "hand": "right"
    },
    {
      "midi": 74,
      "time": 72.666,
      "duration": 0.167,
      "velocity": 0.86,
      "hand": "right"
    },
    {
      "midi": 71,
      "time": 72.833,
      "duration": 0.152,
      "velocity": 0.53,
      "hand": "right"
    },
    {
      "midi": 43,
      "time": 73,
      "duration": 0.083,
      "velocity": 0.87,
      "hand": "left"
    },
    {
      "midi": 47,
      "time": 73,
      "duration": 0.083,
      "velocity": 0.78,
      "hand": "left"
    },
    {
      "midi": 62,
      "time": 73,
      "duration": 0.151,
      "velocity": 0.64,
      "hand": "right"
    },
    {
      "midi": 69,
      "time": 73,
      "duration": 0.167,
      "velocity": 1,
      "hand": "right"
    },
    {
      "midi": 71,
      "time": 73,
      "duration": 0.151,
      "velocity": 0.83,
      "hand": "right"
    },
    {
      "midi": 59,
      "time": 73.166,
      "duration": 0.152,
      "velocity": 0.63,
      "hand": "left"
    },
    {
      "midi": 62,
      "time": 73.166,
      "duration": 0.152,
      "velocity": 0.73,
      "hand": "right"
    },
    {
      "midi": 67,
      "time": 73.166,
      "duration": 0.152,
      "velocity": 0.7,
      "hand": "right"
    },
    {
      "midi": 71,
      "time": 73.166,
      "duration": 0.152,
      "velocity": 0.56,
      "hand": "right"
    },
    {
      "midi": 43,
      "time": 73.333,
      "duration": 0.818,
      "velocity": 0.85,
      "hand": "left"
    },
    {
      "midi": 47,
      "time": 73.333,
      "duration": 0.083,
      "velocity": 0.74,
      "hand": "left"
    },
    {
      "midi": 67,
      "time": 73.333,
      "duration": 0.485,
      "velocity": 1,
      "hand": "right"
    },
    {
      "midi": 71,
      "time": 73.333,
      "duration": 0.318,
      "velocity": 0.71,
      "hand": "right"
    },
    {
      "midi": 74,
      "time": 73.333,
      "duration": 0.652,
      "velocity": 0.61,
      "hand": "right"
    },
    {
      "midi": 79,
      "time": 73.333,
      "duration": 1.318,
      "velocity": 0.74,
      "hand": "right"
    },
    {
      "midi": 51,
      "time": 73.666,
      "duration": 0.083,
      "velocity": 0.54,
      "hand": "left"
    },
    {
      "midi": 71,
      "time": 73.666,
      "duration": 0.152,
      "velocity": 0.81,
      "hand": "right"
    },
    {
      "midi": 59,
      "time": 73.833,
      "duration": 0.152,
      "velocity": 0.64,
      "hand": "left"
    },
    {
      "midi": 62,
      "time": 73.833,
      "duration": 0.318,
      "velocity": 0.9,
      "hand": "right"
    },
    {
      "midi": 67,
      "time": 73.833,
      "duration": 0.318,
      "velocity": 0.89,
      "hand": "right"
    },
    {
      "midi": 71,
      "time": 73.833,
      "duration": 0.318,
      "velocity": 0.78,
      "hand": "right"
    },
    {
      "midi": 38,
      "time": 74,
      "duration": 0.083,
      "velocity": 0.91,
      "hand": "left"
    },
    {
      "midi": 51,
      "time": 74,
      "duration": 0.083,
      "velocity": 0.78,
      "hand": "left"
    },
    {
      "midi": 69,
      "time": 74,
      "duration": 0.167,
      "velocity": 1,
      "hand": "right"
    },
    {
      "midi": 74,
      "time": 74,
      "duration": 0.167,
      "velocity": 0.89,
      "hand": "right"
    },
    {
      "midi": 43,
      "time": 74.166,
      "duration": 0.333,
      "velocity": 0.9,
      "hand": "left"
    },
    {
      "midi": 47,
      "time": 74.166,
      "duration": 0.083,
      "velocity": 0.58,
      "hand": "left"
    },
    {
      "midi": 62,
      "time": 74.166,
      "duration": 0.319,
      "velocity": 0.7,
      "hand": "right"
    },
    {
      "midi": 67,
      "time": 74.166,
      "duration": 0.319,
      "velocity": 0.83,
      "hand": "right"
    },
    {
      "midi": 71,
      "time": 74.166,
      "duration": 0.152,
      "velocity": 0.69,
      "hand": "right"
    },
    {
      "midi": 51,
      "time": 74.333,
      "duration": 0.083,
      "velocity": 0.46,
      "hand": "left"
    },
    {
      "midi": 55,
      "time": 74.333,
      "duration": 0.152,
      "velocity": 0.65,
      "hand": "left"
    },
    {
      "midi": 71,
      "time": 74.333,
      "duration": 0.318,
      "velocity": 1,
      "hand": "right"
    },
    {
      "midi": 55,
      "time": 74.5,
      "duration": 0.151,
      "velocity": 0.64,
      "hand": "left"
    },
    {
      "midi": 59,
      "time": 74.5,
      "duration": 0.151,
      "velocity": 0.67,
      "hand": "left"
    },
    {
      "midi": 62,
      "time": 74.5,
      "duration": 0.151,
      "velocity": 0.64,
      "hand": "right"
    },
    {
      "midi": 67,
      "time": 74.5,
      "duration": 0.151,
      "velocity": 0.55,
      "hand": "right"
    },
    {
      "midi": 43,
      "time": 74.666,
      "duration": 0.667,
      "velocity": 0.87,
      "hand": "left"
    },
    {
      "midi": 47,
      "time": 74.666,
      "duration": 0.083,
      "velocity": 0.77,
      "hand": "left"
    },
    {
      "midi": 67,
      "time": 74.666,
      "duration": 0.485,
      "velocity": 0.83,
      "hand": "right"
    },
    {
      "midi": 71,
      "time": 74.666,
      "duration": 0.319,
      "velocity": 0.71,
      "hand": "right"
    },
    {
      "midi": 74,
      "time": 74.666,
      "duration": 0.652,
      "velocity": 0.71,
      "hand": "right"
    },
    {
      "midi": 79,
      "time": 74.666,
      "duration": 1.319,
      "velocity": 0.71,
      "hand": "right"
    },
    {
      "midi": 51,
      "time": 75,
      "duration": 0.083,
      "velocity": 0.51,
      "hand": "left"
    },
    {
      "midi": 69,
      "time": 75,
      "duration": 0.333,
      "velocity": 1,
      "hand": "right"
    },
    {
      "midi": 71,
      "time": 75,
      "duration": 0.151,
      "velocity": 0.76,
      "hand": "right"
    },
    {
      "midi": 67,
      "time": 75.166,
      "duration": 0.152,
      "velocity": 0.79,
      "hand": "right"
    },
    {
      "midi": 71,
      "time": 75.166,
      "duration": 0.485,
      "velocity": 0.83,
      "hand": "right"
    },
    {
      "midi": 38,
      "time": 75.333,
      "duration": 0.083,
      "velocity": 0.91,
      "hand": "left"
    },
    {
      "midi": 51,
      "time": 75.333,
      "duration": 0.083,
      "velocity": 0.74,
      "hand": "left"
    },
    {
      "midi": 67,
      "time": 75.333,
      "duration": 0.152,
      "velocity": 1,
      "hand": "right"
    },
    {
      "midi": 74,
      "time": 75.333,
      "duration": 0.167,
      "velocity": 0.81,
      "hand": "right"
    },
    {
      "midi": 62,
      "time": 75.5,
      "duration": 0.151,
      "velocity": 0.64,
      "hand": "right"
    },
    {
      "midi": 67,
      "time": 75.5,
      "duration": 0.318,
      "velocity": 0.67,
      "hand": "right"
    },
    {
      "midi": 43,
      "time": 75.666,
      "duration": 0.083,
      "velocity": 0.85,
      "hand": "left"
    },
    {
      "midi": 47,
      "time": 75.666,
      "duration": 0.083,
      "velocity": 0.67,
      "hand": "left"
    },
    {
      "midi": 62,
      "time": 75.666,
      "duration": 0.152,
      "velocity": 0.54,
      "hand": "right"
    },
    {
      "midi": 66,
      "time": 75.666,
      "duration": 0.333,
      "velocity": 1,
      "hand": "right"
    },
    {
      "midi": 71,
      "time": 75.666,
      "duration": 0.319,
      "velocity": 0.79,
      "hand": "right"
    },
    {
      "midi": 62,
      "time": 75.833,
      "duration": 0.152,
      "velocity": 0.58,
      "hand": "right"
    },
    {
      "midi": 67,
      "time": 75.833,
      "duration": 0.152,
      "velocity": 0.59,
      "hand": "right"
    },
    {
      "midi": 43,
      "time": 76,
      "duration": 1.318,
      "velocity": 0.86,
      "hand": "left"
    },
    {
      "midi": 47,
      "time": 76,
      "duration": 0.083,
      "velocity": 0.83,
      "hand": "left"
    },
    {
      "midi": 67,
      "time": 76,
      "duration": 0.485,
      "velocity": 0.71,
      "hand": "right"
    },
    {
      "midi": 71,
      "time": 76,
      "duration": 0.318,
      "velocity": 0.65,
      "hand": "right"
    },
    {
      "midi": 74,
      "time": 76,
      "duration": 0.651,
      "velocity": 0.54,
      "hand": "right"
    },
    {
      "midi": 79,
      "time": 76,
      "duration": 2.333,
      "velocity": 0.74,
      "hand": "right"
    },
    {
      "midi": 51,
      "time": 76.333,
      "duration": 0.083,
      "velocity": 0.43,
      "hand": "left"
    },
    {
      "midi": 62,
      "time": 76.333,
      "duration": 0.152,
      "velocity": 1,
      "hand": "right"
    },
    {
      "midi": 71,
      "time": 76.333,
      "duration": 0.152,
      "velocity": 0.79,
      "hand": "right"
    },
    {
      "midi": 59,
      "time": 76.5,
      "duration": 0.151,
      "velocity": 0.61,
      "hand": "left"
    },
    {
      "midi": 62,
      "time": 76.5,
      "duration": 0.151,
      "velocity": 0.84,
      "hand": "right"
    },
    {
      "midi": 67,
      "time": 76.5,
      "duration": 0.318,
      "velocity": 0.87,
      "hand": "right"
    },
    {
      "midi": 71,
      "time": 76.5,
      "duration": 0.318,
      "velocity": 0.79,
      "hand": "right"
    },
    {
      "midi": 38,
      "time": 76.666,
      "duration": 0.083,
      "velocity": 0.91,
      "hand": "left"
    },
    {
      "midi": 51,
      "time": 76.666,
      "duration": 0.083,
      "velocity": 0.72,
      "hand": "left"
    },
    {
      "midi": 62,
      "time": 76.666,
      "duration": 0.152,
      "velocity": 1,
      "hand": "right"
    },
    {
      "midi": 74,
      "time": 76.666,
      "duration": 0.167,
      "velocity": 0.86,
      "hand": "right"
    },
    {
      "midi": 59,
      "time": 76.833,
      "duration": 0.152,
      "velocity": 0.59,
      "hand": "left"
    },
    {
      "midi": 62,
      "time": 76.833,
      "duration": 0.152,
      "velocity": 0.63,
      "hand": "right"
    },
    {
      "midi": 67,
      "time": 76.833,
      "duration": 0.318,
      "velocity": 0.73,
      "hand": "right"
    },
    {
      "midi": 71,
      "time": 76.833,
      "duration": 0.152,
      "velocity": 0.58,
      "hand": "right"
    },
    {
      "midi": 51,
      "time": 77,
      "duration": 0.083,
      "velocity": 0.54,
      "hand": "left"
    },
    {
      "midi": 55,
      "time": 77,
      "duration": 0.318,
      "velocity": 0.69,
      "hand": "left"
    },
    {
      "midi": 62,
      "time": 77,
      "duration": 0.151,
      "velocity": 1,
      "hand": "right"
    },
    {
      "midi": 71,
      "time": 77,
      "duration": 0.167,
      "velocity": 0.83,
      "hand": "right"
    },
    {
      "midi": 62,
      "time": 77.166,
      "duration": 0.152,
      "velocity": 0.64,
      "hand": "right"
    },
    {
      "midi": 67,
      "time": 77.166,
      "duration": 0.152,
      "velocity": 0.56,
      "hand": "right"
    },
    {
      "midi": 43,
      "time": 77.333,
      "duration": 0.667,
      "velocity": 0.9,
      "hand": "left"
    },
    {
      "midi": 47,
      "time": 77.333,
      "duration": 0.083,
      "velocity": 0.82,
      "hand": "left"
    },
    {
      "midi": 62,
      "time": 77.333,
      "duration": 0.485,
      "velocity": 0.87,
      "hand": "right"
    },
    {
      "midi": 67,
      "time": 77.333,
      "duration": 0.318,
      "velocity": 1,
      "hand": "right"
    },
    {
      "midi": 71,
      "time": 77.333,
      "duration": 0.318,
      "velocity": 0.72,
      "hand": "right"
    },
    {
      "midi": 51,
      "time": 77.666,
      "duration": 0.083,
      "velocity": 0.44,
      "hand": "left"
    },
    {
      "midi": 67,
      "time": 77.666,
      "duration": 0.152,
      "velocity": 1,
      "hand": "right"
    },
    {
      "midi": 71,
      "time": 77.666,
      "duration": 0.152,
      "velocity": 0.81,
      "hand": "right"
    },
    {
      "midi": 59,
      "time": 77.833,
      "duration": 0.318,
      "velocity": 0.61,
      "hand": "left"
    },
    {
      "midi": 62,
      "time": 77.833,
      "duration": 0.318,
      "velocity": 0.84,
      "hand": "right"
    },
    {
      "midi": 67,
      "time": 77.833,
      "duration": 0.152,
      "velocity": 0.87,
      "hand": "right"
    },
    {
      "midi": 71,
      "time": 77.833,
      "duration": 0.485,
      "velocity": 0.82,
      "hand": "right"
    },
    {
      "midi": 38,
      "time": 78,
      "duration": 0.083,
      "velocity": 0.91,
      "hand": "left"
    },
    {
      "midi": 51,
      "time": 78,
      "duration": 0.083,
      "velocity": 0.74,
      "hand": "left"
    },
    {
      "midi": 67,
      "time": 78,
      "duration": 0.167,
      "velocity": 1,
      "hand": "right"
    },
    {
      "midi": 74,
      "time": 78,
      "duration": 0.083,
      "velocity": 0.76,
      "hand": "right"
    },
    {
      "midi": 59,
      "time": 78.166,
      "duration": 0.152,
      "velocity": 0.61,
      "hand": "left"
    },
    {
      "midi": 62,
      "time": 78.166,
      "duration": 0.152,
      "velocity": 0.68,
      "hand": "right"
    },
    {
      "midi": 43,
      "time": 78.333,
      "duration": 0.083,
      "velocity": 0.86,
      "hand": "left"
    },
    {
      "midi": 47,
      "time": 78.333,
      "duration": 0.083,
      "velocity": 0.72,
      "hand": "left"
    },
    {
      "midi": 62,
      "time": 78.333,
      "duration": 0.152,
      "velocity": 0.65,
      "hand": "right"
    },
    {
      "midi": 69,
      "time": 78.333,
      "duration": 0.167,
      "velocity": 1,
      "hand": "right"
    },
    {
      "midi": 71,
      "time": 78.333,
      "duration": 0.152,
      "velocity": 0.76,
      "hand": "right"
    },
    {
      "midi": 62,
      "time": 78.5,
      "duration": 0.151,
      "velocity": 0.65,
      "hand": "right"
    },
    {
      "midi": 67,
      "time": 78.5,
      "duration": 0.151,
      "velocity": 0.66,
      "hand": "right"
    },
    {
      "midi": 71,
      "time": 78.5,
      "duration": 0.151,
      "velocity": 0.48,
      "hand": "right"
    },
    {
      "midi": 43,
      "time": 78.666,
      "duration": 2,
      "velocity": 0.83,
      "hand": "left"
    },
    {
      "midi": 47,
      "time": 78.666,
      "duration": 0.083,
      "velocity": 0.73,
      "hand": "left"
    },
    {
      "midi": 67,
      "time": 78.666,
      "duration": 0.485,
      "velocity": 1,
      "hand": "right"
    },
    {
      "midi": 71,
      "time": 78.666,
      "duration": 0.319,
      "velocity": 0.71,
      "hand": "right"
    },
    {
      "midi": 74,
      "time": 78.666,
      "duration": 0.652,
      "velocity": 0.69,
      "hand": "right"
    },
    {
      "midi": 79,
      "time": 78.666,
      "duration": 1.833,
      "velocity": 0.74,
      "hand": "right"
    },
    {
      "midi": 51,
      "time": 79,
      "duration": 0.083,
      "velocity": 0.52,
      "hand": "left"
    },
    {
      "midi": 71,
      "time": 79,
      "duration": 0.151,
      "velocity": 0.83,
      "hand": "right"
    },
    {
      "midi": 62,
      "time": 79.166,
      "duration": 0.319,
      "velocity": 0.83,
      "hand": "right"
    },
    {
      "midi": 67,
      "time": 79.166,
      "duration": 0.319,
      "velocity": 0.87,
      "hand": "right"
    },
    {
      "midi": 71,
      "time": 79.166,
      "duration": 0.319,
      "velocity": 0.76,
      "hand": "right"
    },
    {
      "midi": 38,
      "time": 79.333,
      "duration": 0.083,
      "velocity": 0.91,
      "hand": "left"
    },
    {
      "midi": 51,
      "time": 79.333,
      "duration": 0.083,
      "velocity": 0.71,
      "hand": "left"
    },
    {
      "midi": 69,
      "time": 79.333,
      "duration": 0.167,
      "velocity": 1,
      "hand": "right"
    },
    {
      "midi": 74,
      "time": 79.333,
      "duration": 0.167,
      "velocity": 0.92,
      "hand": "right"
    },
    {
      "midi": 62,
      "time": 79.5,
      "duration": 0.318,
      "velocity": 0.71,
      "hand": "right"
    },
    {
      "midi": 67,
      "time": 79.5,
      "duration": 0.333,
      "velocity": 0.8,
      "hand": "right"
    },
    {
      "midi": 71,
      "time": 79.5,
      "duration": 0.151,
      "velocity": 0.59,
      "hand": "right"
    },
    {
      "midi": 51,
      "time": 79.666,
      "duration": 0.083,
      "velocity": 0.38,
      "hand": "left"
    },
    {
      "midi": 55,
      "time": 79.666,
      "duration": 0.167,
      "velocity": 0.68,
      "hand": "left"
    },
    {
      "midi": 71,
      "time": 79.666,
      "duration": 2,
      "velocity": 1,
      "hand": "right"
    },
    {
      "midi": 38,
      "time": 79.833,
      "duration": 0.083,
      "velocity": 0.86,
      "hand": "left"
    },
    {
      "midi": 42,
      "time": 79.833,
      "duration": 0.083,
      "velocity": 0.86,
      "hand": "left"
    },
    {
      "midi": 70,
      "time": 79.833,
      "duration": 0.167,
      "velocity": 0.71,
      "hand": "right"
    },
    {
      "midi": 73,
      "time": 79.833,
      "duration": 0.167,
      "velocity": 0.71,
      "hand": "right"
    },
    {
      "midi": 78,
      "time": 79.833,
      "duration": 0.167,
      "velocity": 0.71,
      "hand": "right"
    },
    {
      "midi": 38,
      "time": 80,
      "duration": 0.651,
      "velocity": 0.91,
      "hand": "left"
    },
    {
      "midi": 47,
      "time": 80,
      "duration": 0.083,
      "velocity": 0.86,
      "hand": "left"
    },
    {
      "midi": 62,
      "time": 80,
      "duration": 0.485,
      "velocity": 0.85,
      "hand": "right"
    },
    {
      "midi": 66,
      "time": 80,
      "duration": 0.318,
      "velocity": 0.71,
      "hand": "right"
    },
    {
      "midi": 69,
      "time": 80,
      "duration": 1.318,
      "velocity": 0.71,
      "hand": "right"
    },
    {
      "midi": 74,
      "time": 80,
      "duration": 2.651,
      "velocity": 0.63,
      "hand": "right"
    },
    {
      "midi": 51,
      "time": 80.333,
      "duration": 0.083,
      "velocity": 0.46,
      "hand": "left"
    },
    {
      "midi": 66,
      "time": 80.333,
      "duration": 0.152,
      "velocity": 0.72,
      "hand": "right"
    },
    {
      "midi": 62,
      "time": 80.5,
      "duration": 0.318,
      "velocity": 0.73,
      "hand": "right"
    },
    {
      "midi": 66,
      "time": 80.5,
      "duration": 0.485,
      "velocity": 0.72,
      "hand": "right"
    },
    {
      "midi": 38,
      "time": 80.666,
      "duration": 0.083,
      "velocity": 0.91,
      "hand": "left"
    },
    {
      "midi": 51,
      "time": 80.666,
      "duration": 0.083,
      "velocity": 0.82,
      "hand": "left"
    },
    {
      "midi": 72,
      "time": 80.666,
      "duration": 0.333,
      "velocity": 0.83,
      "hand": "right"
    },
    {
      "midi": 60,
      "time": 80.833,
      "duration": 0.318,
      "velocity": 0.59,
      "hand": "right"
    },
    {
      "midi": 62,
      "time": 80.833,
      "duration": 0.333,
      "velocity": 0.81,
      "hand": "right"
    },
    {
      "midi": 38,
      "time": 81,
      "duration": 0.083,
      "velocity": 0.89,
      "hand": "left"
    },
    {
      "midi": 47,
      "time": 81,
      "duration": 0.083,
      "velocity": 0.59,
      "hand": "left"
    },
    {
      "midi": 66,
      "time": 81,
      "duration": 0.318,
      "velocity": 0.66,
      "hand": "right"
    },
    {
      "midi": 60,
      "time": 81.166,
      "duration": 0.152,
      "velocity": 0.58,
      "hand": "right"
    },
    {
      "midi": 38,
      "time": 81.333,
      "duration": 0.652,
      "velocity": 0.83,
      "hand": "left"
    },
    {
      "midi": 47,
      "time": 81.333,
      "duration": 0.083,
      "velocity": 0.8,
      "hand": "left"
    },
    {
      "midi": 62,
      "time": 81.333,
      "duration": 0.485,
      "velocity": 0.82,
      "hand": "right"
    },
    {
      "midi": 66,
      "time": 81.333,
      "duration": 0.318,
      "velocity": 0.66,
      "hand": "right"
    },
    {
      "midi": 69,
      "time": 81.333,
      "duration": 0.318,
      "velocity": 0.44,
      "hand": "right"
    },
    {
      "midi": 72,
      "time": 81.333,
      "duration": 0.652,
      "velocity": 0.79,
      "hand": "right"
    },
    {
      "midi": 51,
      "time": 81.666,
      "duration": 0.083,
      "velocity": 0.5,
      "hand": "left"
    },
    {
      "midi": 66,
      "time": 81.666,
      "duration": 0.152,
      "velocity": 0.74,
      "hand": "right"
    },
    {
      "midi": 69,
      "time": 81.666,
      "duration": 0.167,
      "velocity": 1,
      "hand": "right"
    },
    {
      "midi": 60,
      "time": 81.833,
      "duration": 0.318,
      "velocity": 0.65,
      "hand": "right"
    },
    {
      "midi": 62,
      "time": 81.833,
      "duration": 0.652,
      "velocity": 0.91,
      "hand": "right"
    },
    {
      "midi": 66,
      "time": 81.833,
      "duration": 0.318,
      "velocity": 0.73,
      "hand": "right"
    },
    {
      "midi": 38,
      "time": 82,
      "duration": 0.083,
      "velocity": 0.91,
      "hand": "left"
    },
    {
      "midi": 51,
      "time": 82,
      "duration": 0.083,
      "velocity": 0.74,
      "hand": "left"
    },
    {
      "midi": 64,
      "time": 82,
      "duration": 0.167,
      "velocity": 1,
      "hand": "right"
    },
    {
      "midi": 72,
      "time": 82,
      "duration": 0.5,
      "velocity": 0.77,
      "hand": "right"
    },
    {
      "midi": 54,
      "time": 82.166,
      "duration": 0.167,
      "velocity": 0.66,
      "hand": "left"
    },
    {
      "midi": 60,
      "time": 82.166,
      "duration": 0.319,
      "velocity": 0.68,
      "hand": "right"
    },
    {
      "midi": 66,
      "time": 82.166,
      "duration": 0.152,
      "velocity": 0.56,
      "hand": "right"
    },
    {
      "midi": 51,
      "time": 82.333,
      "duration": 0.083,
      "velocity": 0.46,
      "hand": "left"
    },
    {
      "midi": 66,
      "time": 82.333,
      "duration": 0.152,
      "velocity": 1,
      "hand": "right"
    },
    {
      "midi": 54,
      "time": 82.5,
      "duration": 0.151,
      "velocity": 0.54,
      "hand": "left"
    },
    {
      "midi": 60,
      "time": 82.5,
      "duration": 0.167,
      "velocity": 0.61,
      "hand": "right"
    },
    {
      "midi": 62,
      "time": 82.5,
      "duration": 0.151,
      "velocity": 0.72,
      "hand": "right"
    },
    {
      "midi": 66,
      "time": 82.5,
      "duration": 0.151,
      "velocity": 0.61,
      "hand": "right"
    },
    {
      "midi": 43,
      "time": 82.666,
      "duration": 0.985,
      "velocity": 0.91,
      "hand": "left"
    },
    {
      "midi": 47,
      "time": 82.666,
      "duration": 0.083,
      "velocity": 0.8,
      "hand": "left"
    },
    {
      "midi": 71,
      "time": 82.666,
      "duration": 0.319,
      "velocity": 0.73,
      "hand": "right"
    },
    {
      "midi": 74,
      "time": 82.666,
      "duration": 0.652,
      "velocity": 0.71,
      "hand": "right"
    },
    {
      "midi": 79,
      "time": 82.666,
      "duration": 2,
      "velocity": 0.74,
      "hand": "right"
    },
    {
      "midi": 83,
      "time": 82.666,
      "duration": 2.667,
      "velocity": 0.63,
      "hand": "right"
    },
    {
      "midi": 51,
      "time": 83,
      "duration": 0.083,
      "velocity": 0.4,
      "hand": "left"
    },
    {
      "midi": 71,
      "time": 83,
      "duration": 0.151,
      "velocity": 0.71,
      "hand": "right"
    },
    {
      "midi": 59,
      "time": 83.166,
      "duration": 0.485,
      "velocity": 0.54,
      "hand": "left"
    },
    {
      "midi": 62,
      "time": 83.166,
      "duration": 0.152,
      "velocity": 0.71,
      "hand": "right"
    },
    {
      "midi": 67,
      "time": 83.166,
      "duration": 0.652,
      "velocity": 0.9,
      "hand": "right"
    },
    {
      "midi": 71,
      "time": 83.166,
      "duration": 0.319,
      "velocity": 0.66,
      "hand": "right"
    },
    {
      "midi": 38,
      "time": 83.333,
      "duration": 0.083,
      "velocity": 0.91,
      "hand": "left"
    },
    {
      "midi": 51,
      "time": 83.333,
      "duration": 0.083,
      "velocity": 0.8,
      "hand": "left"
    },
    {
      "midi": 62,
      "time": 83.333,
      "duration": 0.318,
      "velocity": 0.7,
      "hand": "right"
    },
    {
      "midi": 74,
      "time": 83.333,
      "duration": 0.083,
      "velocity": 0.79,
      "hand": "right"
    },
    {
      "midi": 71,
      "time": 83.5,
      "duration": 0.151,
      "velocity": 0.53,
      "hand": "right"
    },
    {
      "midi": 43,
      "time": 83.666,
      "duration": 0.083,
      "velocity": 0.87,
      "hand": "left"
    },
    {
      "midi": 47,
      "time": 83.666,
      "duration": 0.083,
      "velocity": 0.78,
      "hand": "left"
    },
    {
      "midi": 62,
      "time": 83.666,
      "duration": 0.152,
      "velocity": 0.64,
      "hand": "right"
    },
    {
      "midi": 71,
      "time": 83.666,
      "duration": 0.152,
      "velocity": 0.69,
      "hand": "right"
    },
    {
      "midi": 59,
      "time": 83.833,
      "duration": 0.152,
      "velocity": 0.63,
      "hand": "left"
    },
    {
      "midi": 62,
      "time": 83.833,
      "duration": 0.152,
      "velocity": 0.73,
      "hand": "right"
    },
    {
      "midi": 67,
      "time": 83.833,
      "duration": 0.152,
      "velocity": 0.7,
      "hand": "right"
    },
    {
      "midi": 71,
      "time": 83.833,
      "duration": 0.152,
      "velocity": 0.56,
      "hand": "right"
    },
    {
      "midi": 43,
      "time": 84,
      "duration": 0.667,
      "velocity": 0.85,
      "hand": "left"
    },
    {
      "midi": 47,
      "time": 84,
      "duration": 0.083,
      "velocity": 0.74,
      "hand": "left"
    },
    {
      "midi": 62,
      "time": 84,
      "duration": 0.485,
      "velocity": 0.81,
      "hand": "right"
    },
    {
      "midi": 67,
      "time": 84,
      "duration": 0.485,
      "velocity": 0.85,
      "hand": "right"
    },
    {
      "midi": 71,
      "time": 84,
      "duration": 0.318,
      "velocity": 0.65,
      "hand": "right"
    },
    {
      "midi": 51,
      "time": 84.333,
      "duration": 0.083,
      "velocity": 0.54,
      "hand": "left"
    },
    {
      "midi": 71,
      "time": 84.333,
      "duration": 0.152,
      "velocity": 0.81,
      "hand": "right"
    },
    {
      "midi": 59,
      "time": 84.5,
      "duration": 0.151,
      "velocity": 0.64,
      "hand": "left"
    },
    {
      "midi": 62,
      "time": 84.5,
      "duration": 0.318,
      "velocity": 0.9,
      "hand": "right"
    },
    {
      "midi": 67,
      "time": 84.5,
      "duration": 0.318,
      "velocity": 0.89,
      "hand": "right"
    },
    {
      "midi": 71,
      "time": 84.5,
      "duration": 0.318,
      "velocity": 0.78,
      "hand": "right"
    },
    {
      "midi": 38,
      "time": 84.666,
      "duration": 0.083,
      "velocity": 0.91,
      "hand": "left"
    },
    {
      "midi": 51,
      "time": 84.666,
      "duration": 0.083,
      "velocity": 0.78,
      "hand": "left"
    },
    {
      "midi": 74,
      "time": 84.666,
      "duration": 0.167,
      "velocity": 0.63,
      "hand": "right"
    },
    {
      "midi": 43,
      "time": 84.833,
      "duration": 0.333,
      "velocity": 0.9,
      "hand": "left"
    },
    {
      "midi": 47,
      "time": 84.833,
      "duration": 0.083,
      "velocity": 0.58,
      "hand": "left"
    },
    {
      "midi": 62,
      "time": 84.833,
      "duration": 0.318,
      "velocity": 0.7,
      "hand": "right"
    },
    {
      "midi": 67,
      "time": 84.833,
      "duration": 0.318,
      "velocity": 0.83,
      "hand": "right"
    },
    {
      "midi": 71,
      "time": 84.833,
      "duration": 0.152,
      "velocity": 0.69,
      "hand": "right"
    },
    {
      "midi": 51,
      "time": 85,
      "duration": 0.083,
      "velocity": 0.46,
      "hand": "left"
    },
    {
      "midi": 55,
      "time": 85,
      "duration": 0.151,
      "velocity": 0.65,
      "hand": "left"
    },
    {
      "midi": 71,
      "time": 85,
      "duration": 0.167,
      "velocity": 0.79,
      "hand": "right"
    },
    {
      "midi": 55,
      "time": 85.166,
      "duration": 0.152,
      "velocity": 0.64,
      "hand": "left"
    },
    {
      "midi": 59,
      "time": 85.166,
      "duration": 0.167,
      "velocity": 0.67,
      "hand": "left"
    },
    {
      "midi": 62,
      "time": 85.166,
      "duration": 0.167,
      "velocity": 0.64,
      "hand": "right"
    },
    {
      "midi": 67,
      "time": 85.166,
      "duration": 0.152,
      "velocity": 0.55,
      "hand": "right"
    },
    {
      "midi": 36,
      "time": 85.333,
      "duration": 0.152,
      "velocity": 0.87,
      "hand": "left"
    },
    {
      "midi": 47,
      "time": 85.333,
      "duration": 0.083,
      "velocity": 0.77,
      "hand": "left"
    },
    {
      "midi": 67,
      "time": 85.333,
      "duration": 1.318,
      "velocity": 0.81,
      "hand": "right"
    },
    {
      "midi": 72,
      "time": 85.333,
      "duration": 0.318,
      "velocity": 0.71,
      "hand": "right"
    },
    {
      "midi": 76,
      "time": 85.333,
      "duration": 0.652,
      "velocity": 0.72,
      "hand": "right"
    },
    {
      "midi": 79,
      "time": 85.333,
      "duration": 1.318,
      "velocity": 0.79,
      "hand": "right"
    },
    {
      "midi": 36,
      "time": 85.5,
      "duration": 0.818,
      "velocity": 0.46,
      "hand": "left"
    },
    {
      "midi": 48,
      "time": 85.5,
      "duration": 0.818,
      "velocity": 0.39,
      "hand": "left"
    },
    {
      "midi": 51,
      "time": 85.666,
      "duration": 0.083,
      "velocity": 0.51,
      "hand": "left"
    },
    {
      "midi": 72,
      "time": 85.666,
      "duration": 0.333,
      "velocity": 0.79,
      "hand": "right"
    },
    {
      "midi": 60,
      "time": 85.833,
      "duration": 0.318,
      "velocity": 0.79,
      "hand": "right"
    },
    {
      "midi": 64,
      "time": 85.833,
      "duration": 0.833,
      "velocity": 0.83,
      "hand": "right"
    },
    {
      "midi": 38,
      "time": 86,
      "duration": 0.083,
      "velocity": 0.91,
      "hand": "left"
    },
    {
      "midi": 51,
      "time": 86,
      "duration": 0.083,
      "velocity": 0.74,
      "hand": "left"
    },
    {
      "midi": 76,
      "time": 86,
      "duration": 0.333,
      "velocity": 0.89,
      "hand": "right"
    },
    {
      "midi": 55,
      "time": 86.166,
      "duration": 0.152,
      "velocity": 0.64,
      "hand": "left"
    },
    {
      "midi": 60,
      "time": 86.166,
      "duration": 0.319,
      "velocity": 0.67,
      "hand": "right"
    },
    {
      "midi": 36,
      "time": 86.333,
      "duration": 0.083,
      "velocity": 0.85,
      "hand": "left"
    },
    {
      "midi": 47,
      "time": 86.333,
      "duration": 0.083,
      "velocity": 0.67,
      "hand": "left"
    },
    {
      "midi": 72,
      "time": 86.333,
      "duration": 0.318,
      "velocity": 0.66,
      "hand": "right"
    },
    {
      "midi": 55,
      "time": 86.5,
      "duration": 0.151,
      "velocity": 0.58,
      "hand": "left"
    },
    {
      "midi": 60,
      "time": 86.5,
      "duration": 0.151,
      "velocity": 0.59,
      "hand": "right"
    },
    {
      "midi": 36,
      "time": 86.666,
      "duration": 1.167,
      "velocity": 0.86,
      "hand": "left"
    },
    {
      "midi": 47,
      "time": 86.666,
      "duration": 0.083,
      "velocity": 0.83,
      "hand": "left"
    },
    {
      "midi": 76,
      "time": 86.666,
      "duration": 0.333,
      "velocity": 0.49,
      "hand": "right"
    },
    {
      "midi": 79,
      "time": 86.666,
      "duration": 1.319,
      "velocity": 0.63,
      "hand": "right"
    },
    {
      "midi": 81,
      "time": 86.666,
      "duration": 0.833,
      "velocity": 0.74,
      "hand": "right"
    },
    {
      "midi": 51,
      "time": 87,
      "duration": 0.083,
      "velocity": 0.43,
      "hand": "left"
    },
    {
      "midi": 72,
      "time": 87,
      "duration": 0.333,
      "velocity": 0.66,
      "hand": "right"
    },
    {
      "midi": 51,
      "time": 87.166,
      "duration": 0.152,
      "velocity": 0.61,
      "hand": "left"
    },
    {
      "midi": 55,
      "time": 87.166,
      "duration": 0.319,
      "velocity": 0.84,
      "hand": "left"
    },
    {
      "midi": 60,
      "time": 87.166,
      "duration": 0.319,
      "velocity": 0.87,
      "hand": "right"
    },
    {
      "midi": 63,
      "time": 87.166,
      "duration": 0.319,
      "velocity": 0.79,
      "hand": "right"
    },
    {
      "midi": 38,
      "time": 87.333,
      "duration": 0.083,
      "velocity": 0.91,
      "hand": "left"
    },
    {
      "midi": 48,
      "time": 87.333,
      "duration": 0.318,
      "velocity": 0.55,
      "hand": "left"
    },
    {
      "midi": 76,
      "time": 87.333,
      "duration": 0.318,
      "velocity": 0.76,
      "hand": "right"
    },
    {
      "midi": 51,
      "time": 87.5,
      "duration": 0.151,
      "velocity": 0.59,
      "hand": "left"
    },
    {
      "midi": 55,
      "time": 87.5,
      "duration": 0.151,
      "velocity": 0.63,
      "hand": "left"
    },
    {
      "midi": 60,
      "time": 87.5,
      "duration": 0.318,
      "velocity": 0.73,
      "hand": "right"
    },
    {
      "midi": 63,
      "time": 87.5,
      "duration": 0.5,
      "velocity": 0.58,
      "hand": "right"
    },
    {
      "midi": 48,
      "time": 87.666,
      "duration": 0.333,
      "velocity": 0.69,
      "hand": "left"
    },
    {
      "midi": 51,
      "time": 87.666,
      "duration": 0.319,
      "velocity": 0.76,
      "hand": "left"
    },
    {
      "midi": 72,
      "time": 87.666,
      "duration": 0.333,
      "velocity": 0.69,
      "hand": "right"
    },
    {
      "midi": 76,
      "time": 87.666,
      "duration": 0.167,
      "velocity": 0.09,
      "hand": "right"
    },
    {
      "midi": 55,
      "time": 87.833,
      "duration": 0.152,
      "velocity": 0.64,
      "hand": "left"
    },
    {
      "midi": 60,
      "time": 87.833,
      "duration": 0.167,
      "velocity": 0.56,
      "hand": "right"
    },
    {
      "midi": 43,
      "time": 88,
      "duration": 0.985,
      "velocity": 0.9,
      "hand": "left"
    },
    {
      "midi": 47,
      "time": 88,
      "duration": 0.083,
      "velocity": 0.82,
      "hand": "left"
    },
    {
      "midi": 67,
      "time": 88,
      "duration": 0.485,
      "velocity": 0.86,
      "hand": "right"
    },
    {
      "midi": 71,
      "time": 88,
      "duration": 0.318,
      "velocity": 0.72,
      "hand": "right"
    },
    {
      "midi": 74,
      "time": 88,
      "duration": 0.651,
      "velocity": 0.71,
      "hand": "right"
    },
    {
      "midi": 79,
      "time": 88,
      "duration": 1.833,
      "velocity": 0.71,
      "hand": "right"
    },
    {
      "midi": 51,
      "time": 88.333,
      "duration": 0.083,
      "velocity": 0.44,
      "hand": "left"
    },
    {
      "midi": 71,
      "time": 88.333,
      "duration": 0.152,
      "velocity": 0.81,
      "hand": "right"
    },
    {
      "midi": 59,
      "time": 88.5,
      "duration": 0.318,
      "velocity": 0.61,
      "hand": "left"
    },
    {
      "midi": 62,
      "time": 88.5,
      "duration": 0.318,
      "velocity": 0.84,
      "hand": "right"
    },
    {
      "midi": 67,
      "time": 88.5,
      "duration": 0.651,
      "velocity": 0.87,
      "hand": "right"
    },
    {
      "midi": 71,
      "time": 88.5,
      "duration": 0.485,
      "velocity": 0.82,
      "hand": "right"
    },
    {
      "midi": 38,
      "time": 88.666,
      "duration": 0.083,
      "velocity": 0.91,
      "hand": "left"
    },
    {
      "midi": 51,
      "time": 88.666,
      "duration": 0.083,
      "velocity": 0.74,
      "hand": "left"
    },
    {
      "midi": 74,
      "time": 88.666,
      "duration": 0.5,
      "velocity": 0.61,
      "hand": "right"
    },
    {
      "midi": 59,
      "time": 88.833,
      "duration": 0.152,
      "velocity": 0.61,
      "hand": "left"
    },
    {
      "midi": 62,
      "time": 88.833,
      "duration": 0.152,
      "velocity": 0.68,
      "hand": "right"
    },
    {
      "midi": 43,
      "time": 89,
      "duration": 0.083,
      "velocity": 0.86,
      "hand": "left"
    },
    {
      "midi": 47,
      "time": 89,
      "duration": 0.083,
      "velocity": 0.72,
      "hand": "left"
    },
    {
      "midi": 62,
      "time": 89,
      "duration": 0.151,
      "velocity": 0.65,
      "hand": "right"
    },
    {
      "midi": 71,
      "time": 89,
      "duration": 0.151,
      "velocity": 0.59,
      "hand": "right"
    },
    {
      "midi": 62,
      "time": 89.166,
      "duration": 0.152,
      "velocity": 0.65,
      "hand": "right"
    },
    {
      "midi": 67,
      "time": 89.166,
      "duration": 0.152,
      "velocity": 0.66,
      "hand": "right"
    },
    {
      "midi": 71,
      "time": 89.166,
      "duration": 0.152,
      "velocity": 0.48,
      "hand": "right"
    },
    {
      "midi": 43,
      "time": 89.333,
      "duration": 0.083,
      "velocity": 0.83,
      "hand": "left"
    },
    {
      "midi": 47,
      "time": 89.333,
      "duration": 0.083,
      "velocity": 0.73,
      "hand": "left"
    },
    {
      "midi": 62,
      "time": 89.333,
      "duration": 0.083,
      "velocity": 0.82,
      "hand": "right"
    },
    {
      "midi": 67,
      "time": 89.333,
      "duration": 0.083,
      "velocity": 0.87,
      "hand": "right"
    },
    {
      "midi": 71,
      "time": 89.333,
      "duration": 0.083,
      "velocity": 0.71,
      "hand": "right"
    }
  ]
}
