{
  "id": "pai-francisco",
  "title": "Pai Francisco",
  "artist": "Tradicional",
  "difficulty": "Fácil",
  "bpm": 100,
  "duration": 96,
  "category": "Infantis",
  "isPremium": false,
  "coverUrl": "/images/covers/placeholder.png",
  "notes": [
    {
      "midi": 38,
      "time": 0,
      "duration": 0.75,
      "velocity": 0.63,
      "hand": "left"
    },
    {
      "midi": 43,
      "time": 0,
      "duration": 0.9,
      "velocity": 1,
      "hand": "left"
    },
    {
      "midi": 44,
      "time": 0,
      "duration": 0.075,
      "velocity": 0.63,
      "hand": "left"
    },
    {
      "midi": 51,
      "time": 0,
      "duration": 0.075,
      "velocity": 0.63,
      "hand": "left"
    },
    {
      "midi": 62,
      "time": 0,
      "duration": 0.075,
      "velocity": 0.92,
      "hand": "right"
    },
    {
      "midi": 67,
      "time": 0,
      "duration": 0.075,
      "velocity": 0.99,
      "hand": "right"
    },
    {
      "midi": 71,
      "time": 0,
      "duration": 0.075,
      "velocity": 0.97,
      "hand": "right"
    },
    {
      "midi": 71,
      "time": 0,
      "duration": 0.9,
      "velocity": 0.91,
      "hand": "right"
    },
    {
      "midi": 44,
      "time": 0.3,
      "duration": 0.075,
      "velocity": 0.63,
      "hand": "left"
    },
    {
      "midi": 62,
      "time": 0.3,
      "duration": 0.15,
      "velocity": 0.89,
      "hand": "right"
    },
    {
      "midi": 67,
      "time": 0.3,
      "duration": 0.075,
      "velocity": 1,
      "hand": "right"
    },
    {
      "midi": 71,
      "time": 0.3,
      "duration": 0.075,
      "velocity": 0.92,
      "hand": "right"
    },
    {
      "midi": 44,
      "time": 0.45,
      "duration": 0.15,
      "velocity": 0.63,
      "hand": "left"
    },
    {
      "midi": 62,
      "time": 0.45,
      "duration": 0.075,
      "velocity": 0.67,
      "hand": "right"
    },
    {
      "midi": 67,
      "time": 0.45,
      "duration": 0.075,
      "velocity": 0.92,
      "hand": "right"
    },
    {
      "midi": 71,
      "time": 0.45,
      "duration": 0.075,
      "velocity": 0.73,
      "hand": "right"
    },
    {
      "midi": 44,
      "time": 0.6,
      "duration": 0.075,
      "velocity": 0.63,
      "hand": "left"
    },
    {
      "midi": 62,
      "time": 0.6,
      "duration": 0.075,
      "velocity": 0.92,
      "hand": "right"
    },
    {
      "midi": 67,
      "time": 0.6,
      "duration": 0.075,
      "velocity": 1,
      "hand": "right"
    },
    {
      "midi": 71,
      "time": 0.6,
      "duration": 0.15,
      "velocity": 1,
      "hand": "right"
    },
    {
      "midi": 38,
      "time": 0.9,
      "duration": 0.3,
      "velocity": 1,
      "hand": "left"
    },
    {
      "midi": 42,
      "time": 0.9,
      "duration": 0.3,
      "velocity": 0.63,
      "hand": "left"
    },
    {
      "midi": 46,
      "time": 0.9,
      "duration": 0.075,
      "velocity": 0.63,
      "hand": "left"
    },
    {
      "midi": 64,
      "time": 0.9,
      "duration": 0.075,
      "velocity": 0.89,
      "hand": "right"
    },
    {
      "midi": 67,
      "time": 0.9,
      "duration": 0.15,
      "velocity": 1,
      "hand": "right"
    },
    {
      "midi": 72,
      "time": 0.9,
      "duration": 0.15,
      "velocity": 1,
      "hand": "right"
    },
    {
      "midi": 72,
      "time": 0.9,
      "duration": 0.3,
      "velocity": 0.87,
      "hand": "right"
    },
    {
      "midi": 38,
      "time": 1.2,
      "duration": 0.9,
      "velocity": 0.63,
      "hand": "left"
    },
    {
      "midi": 43,
      "time": 1.2,
      "duration": 0.9,
      "velocity": 1,
      "hand": "left"
    },
    {
      "midi": 44,
      "time": 1.2,
      "duration": 0.075,
      "velocity": 0.63,
      "hand": "left"
    },
    {
      "midi": 62,
      "time": 1.2,
      "duration": 0.15,
      "velocity": 1,
      "hand": "right"
    },
    {
      "midi": 67,
      "time": 1.2,
      "duration": 0.075,
      "velocity": 1,
      "hand": "right"
    },
    {
      "midi": 71,
      "time": 1.2,
      "duration": 0.075,
      "velocity": 1,
      "hand": "right"
    },
    {
      "midi": 71,
      "time": 1.2,
      "duration": 0.9,
      "velocity": 0.93,
      "hand": "right"
    },
    {
      "midi": 44,
      "time": 1.5,
      "duration": 0.075,
      "velocity": 0.63,
      "hand": "left"
    },
    {
      "midi": 62,
      "time": 1.5,
      "duration": 0.15,
      "velocity": 0.97,
      "hand": "right"
    },
    {
      "midi": 67,
      "time": 1.5,
      "duration": 0.075,
      "velocity": 1,
      "hand": "right"
    },
    {
      "midi": 71,
      "time": 1.5,
      "duration": 0.075,
      "velocity": 0.97,
      "hand": "right"
    },
    {
      "midi": 44,
      "time": 1.65,
      "duration": 0.075,
      "velocity": 0.63,
      "hand": "left"
    },
    {
      "midi": 62,
      "time": 1.65,
      "duration": 0.075,
      "velocity": 0.68,
      "hand": "right"
    },
    {
      "midi": 67,
      "time": 1.65,
      "duration": 0.075,
      "velocity": 0.87,
      "hand": "right"
    },
    {
      "midi": 71,
      "time": 1.65,
      "duration": 0.075,
      "velocity": 0.83,
      "hand": "right"
    },
    {
      "midi": 44,
      "time": 1.8,
      "duration": 0.15,
      "velocity": 0.63,
      "hand": "left"
    },
    {
      "midi": 62,
      "time": 1.8,
      "duration": 0.15,
      "velocity": 0.79,
      "hand": "right"
    },
    {
      "midi": 67,
      "time": 1.8,
      "duration": 0.15,
      "velocity": 0.97,
      "hand": "right"
    },
    {
      "midi": 71,
      "time": 1.8,
      "duration": 0.15,
      "velocity": 0.89,
      "hand": "right"
    },
    {
      "midi": 38,
      "time": 2.1,
      "duration": 0.15,
      "velocity": 1,
      "hand": "left"
    },
    {
      "midi": 42,
      "time": 2.1,
      "duration": 0.15,
      "velocity": 0.63,
      "hand": "left"
    },
    {
      "midi": 46,
      "time": 2.1,
      "duration": 0.075,
      "velocity": 0.63,
      "hand": "left"
    },
    {
      "midi": 64,
      "time": 2.1,
      "duration": 0.075,
      "velocity": 1,
      "hand": "right"
    },
    {
      "midi": 67,
      "time": 2.1,
      "duration": 0.075,
      "velocity": 0.97,
      "hand": "right"
    },
    {
      "midi": 68,
      "time": 2.1,
      "duration": 0.075,
      "velocity": 0.94,
      "hand": "right"
    },
    {
      "midi": 72,
      "time": 2.1,
      "duration": 0.15,
      "velocity": 1,
      "hand": "right"
    },
    {
      "midi": 38,
      "time": 2.4,
      "duration": 0.3,
      "velocity": 0.63,
      "hand": "left"
    },
    {
      "midi": 43,
      "time": 2.4,
      "duration": 0.15,
      "velocity": 1,
      "hand": "left"
    },
    {
      "midi": 44,
      "time": 2.4,
      "duration": 0.075,
      "velocity": 0.63,
      "hand": "left"
    },
    {
      "midi": 62,
      "time": 2.4,
      "duration": 0.15,
      "velocity": 1,
      "hand": "right"
    },
    {
      "midi": 67,
      "time": 2.4,
      "duration": 0.15,
      "velocity": 0.97,
      "hand": "right"
    },
    {
      "midi": 71,
      "time": 2.4,
      "duration": 0.15,
      "velocity": 1,
      "hand": "right"
    },
    {
      "midi": 71,
      "time": 2.4,
      "duration": 0.075,
      "velocity": 1,
      "hand": "right"
    },
    {
      "midi": 38,
      "time": 2.7,
      "duration": 0.15,
      "velocity": 1,
      "hand": "left"
    },
    {
      "midi": 42,
      "time": 2.7,
      "duration": 0.15,
      "velocity": 0.63,
      "hand": "left"
    },
    {
      "midi": 44,
      "time": 2.7,
      "duration": 0.15,
      "velocity": 0.63,
      "hand": "left"
    },
    {
      "midi": 62,
      "time": 2.7,
      "duration": 0.075,
      "velocity": 1,
      "hand": "right"
    },
    {
      "midi": 67,
      "time": 2.7,
      "duration": 0.075,
      "velocity": 1,
      "hand": "right"
    },
    {
      "midi": 71,
      "time": 2.7,
      "duration": 0.075,
      "velocity": 1,
      "hand": "right"
    },
    {
      "midi": 71,
      "time": 2.7,
      "duration": 0.15,
      "velocity": 1,
      "hand": "right"
    },
    {
      "midi": 46,
      "time": 2.85,
      "duration": 0.15,
      "velocity": 0.63,
      "hand": "left"
    },
    {
      "midi": 64,
      "time": 2.85,
      "duration": 0.075,
      "velocity": 0.79,
      "hand": "right"
    },
    {
      "midi": 67,
      "time": 2.85,
      "duration": 0.075,
      "velocity": 0.87,
      "hand": "right"
    },
    {
      "midi": 68,
      "time": 2.85,
      "duration": 0.075,
      "velocity": 0.79,
      "hand": "right"
    },
    {
      "midi": 72,
      "time": 2.85,
      "duration": 0.075,
      "velocity": 1,
      "hand": "right"
    },
    {
      "midi": 72,
      "time": 2.85,
      "duration": 0.15,
      "velocity": 0.95,
      "hand": "right"
    },
    {
      "midi": 38,
      "time": 3,
      "duration": 0.15,
      "velocity": 0.63,
      "hand": "left"
    },
    {
      "midi": 43,
      "time": 3,
      "duration": 0.15,
      "velocity": 1,
      "hand": "left"
    },
    {
      "midi": 44,
      "time": 3,
      "duration": 0.075,
      "velocity": 0.63,
      "hand": "left"
    },
    {
      "midi": 62,
      "time": 3,
      "duration": 0.075,
      "velocity": 1,
      "hand": "right"
    },
    {
      "midi": 67,
      "time": 3,
      "duration": 0.075,
      "velocity": 0.99,
      "hand": "right"
    },
    {
      "midi": 71,
      "time": 3,
      "duration": 0.075,
      "velocity": 0.99,
      "hand": "right"
    },
    {
      "midi": 38,
      "time": 3.3,
      "duration": 0.15,
      "velocity": 1,
      "hand": "left"
    },
    {
      "midi": 42,
      "time": 3.3,
      "duration": 0.15,
      "velocity": 0.63,
      "hand": "left"
    },
    {
      "midi": 44,
      "time": 3.3,
      "duration": 0.15,
      "velocity": 0.63,
      "hand": "left"
    },
    {
      "midi": 64,
      "time": 3.3,
      "duration": 0.075,
      "velocity": 0.97,
      "hand": "right"
    },
    {
      "midi": 67,
      "time": 3.3,
      "duration": 0.075,
      "velocity": 0.97,
      "hand": "right"
    },
    {
      "midi": 68,
      "time": 3.3,
      "duration": 0.075,
      "velocity": 0.87,
      "hand": "right"
    },
    {
      "midi": 72,
      "time": 3.3,
      "duration": 0.075,
      "velocity": 1,
      "hand": "right"
    },
    {
      "midi": 72,
      "time": 3.3,
      "duration": 0.15,
      "velocity": 1,
      "hand": "right"
    },
    {
      "midi": 46,
      "time": 3.45,
      "duration": 0.15,
      "velocity": 0.63,
      "hand": "left"
    },
    {
      "midi": 38,
      "time": 3.6,
      "duration": 1.05,
      "velocity": 0.63,
      "hand": "left"
    },
    {
      "midi": 43,
      "time": 3.6,
      "duration": 0.75,
      "velocity": 1,
      "hand": "left"
    },
    {
      "midi": 44,
      "time": 3.6,
      "duration": 0.075,
      "velocity": 0.63,
      "hand": "left"
    },
    {
      "midi": 62,
      "time": 3.6,
      "duration": 0.45,
      "velocity": 1,
      "hand": "right"
    },
    {
      "midi": 67,
      "time": 3.6,
      "duration": 0.15,
      "velocity": 1,
      "hand": "right"
    },
    {
      "midi": 71,
      "time": 3.6,
      "duration": 0.45,
      "velocity": 1,
      "hand": "right"
    },
    {
      "midi": 71,
      "time": 3.6,
      "duration": 1.2,
      "velocity": 1,
      "hand": "right"
    },
    {
      "midi": 44,
      "time": 3.9,
      "duration": 0.075,
      "velocity": 0.63,
      "hand": "left"
    },
    {
      "midi": 62,
      "time": 3.9,
      "duration": 0.3,
      "velocity": 0.89,
      "hand": "right"
    },
    {
      "midi": 67,
      "time": 3.9,
      "duration": 0.15,
      "velocity": 0.77,
      "hand": "right"
    },
    {
      "midi": 86,
      "time": 3.9,
      "duration": 0.15,
      "velocity": 0.92,
      "hand": "right"
    },
    {
      "midi": 91,
      "time": 4.05,
      "duration": 0.15,
      "velocity": 0.8,
      "hand": "right"
    },
    {
      "midi": 44,
      "time": 4.2,
      "duration": 0.15,
      "velocity": 0.63,
      "hand": "left"
    },
    {
      "midi": 59,
      "time": 4.2,
      "duration": 0.3,
      "velocity": 0.92,
      "hand": "left"
    },
    {
      "midi": 69,
      "time": 4.2,
      "duration": 0.075,
      "velocity": 0.76,
      "hand": "right"
    },
    {
      "midi": 72,
      "time": 4.2,
      "duration": 0.15,
      "velocity": 1,
      "hand": "right"
    },
    {
      "midi": 86,
      "time": 4.2,
      "duration": 0.075,
      "velocity": 0.92,
      "hand": "right"
    },
    {
      "midi": 44,
      "time": 4.5,
      "duration": 0.15,
      "velocity": 0.63,
      "hand": "left"
    },
    {
      "midi": 55,
      "time": 4.5,
      "duration": 0.3,
      "velocity": 1,
      "hand": "left"
    },
    {
      "midi": 67,
      "time": 4.5,
      "duration": 0.075,
      "velocity": 0.81,
      "hand": "right"
    },
    {
      "midi": 69,
      "time": 4.5,
      "duration": 0.075,
      "velocity": 0.73,
      "hand": "right"
    },
    {
      "midi": 70,
      "time": 4.5,
      "duration": 0.075,
      "velocity": 1,
      "hand": "right"
    },
    {
      "midi": 73,
      "time": 4.5,
      "duration": 0.075,
      "velocity": 1,
      "hand": "right"
    },
    {
      "midi": 83,
      "time": 4.5,
      "duration": 0.075,
      "velocity": 0.92,
      "hand": "right"
    },
    {
      "midi": 38,
      "time": 4.8,
      "duration": 0.9,
      "velocity": 0.63,
      "hand": "left"
    },
    {
      "midi": 43,
      "time": 4.8,
      "duration": 0.75,
      "velocity": 1,
      "hand": "left"
    },
    {
      "midi": 44,
      "time": 4.8,
      "duration": 0.15,
      "velocity": 0.63,
      "hand": "left"
    },
    {
      "midi": 50,
      "time": 4.8,
      "duration": 1.95,
      "velocity": 1,
      "hand": "left"
    },
    {
      "midi": 51,
      "time": 4.8,
      "duration": 0.075,
      "velocity": 0.63,
      "hand": "left"
    },
    {
      "midi": 67,
      "time": 4.8,
      "duration": 0.15,
      "velocity": 1,
      "hand": "right"
    },
    {
      "midi": 71,
      "time": 4.8,
      "duration": 0.15,
      "velocity": 1,
      "hand": "right"
    },
    {
      "midi": 74,
      "time": 4.8,
      "duration": 0.15,
      "velocity": 1,
      "hand": "right"
    },
    {
      "midi": 79,
      "time": 4.8,
      "duration": 2.4,
      "velocity": 0.92,
      "hand": "right"
    },
    {
      "midi": 44,
      "time": 5.1,
      "duration": 0.075,
      "velocity": 0.63,
      "hand": "left"
    },
    {
      "midi": 67,
      "time": 5.1,
      "duration": 0.075,
      "velocity": 1,
      "hand": "right"
    },
    {
      "midi": 67,
      "time": 5.1,
      "duration": 0.6,
      "velocity": 1,
      "hand": "right"
    },
    {
      "midi": 71,
      "time": 5.1,
      "duration": 0.075,
      "velocity": 1,
      "hand": "right"
    },
    {
      "midi": 74,
      "time": 5.1,
      "duration": 0.075,
      "velocity": 1,
      "hand": "right"
    },
    {
      "midi": 44,
      "time": 5.25,
      "duration": 0.075,
      "velocity": 0.63,
      "hand": "left"
    },
    {
      "midi": 67,
      "time": 5.25,
      "duration": 0.075,
      "velocity": 0.94,
      "hand": "right"
    },
    {
      "midi": 71,
      "time": 5.25,
      "duration": 0.075,
      "velocity": 1,
      "hand": "right"
    },
    {
      "midi": 74,
      "time": 5.25,
      "duration": 0.075,
      "velocity": 0.99,
      "hand": "right"
    },
    {
      "midi": 44,
      "time": 5.4,
      "duration": 0.075,
      "velocity": 0.63,
      "hand": "left"
    },
    {
      "midi": 67,
      "time": 5.4,
      "duration": 0.15,
      "velocity": 0.92,
      "hand": "right"
    },
    {
      "midi": 71,
      "time": 5.4,
      "duration": 0.15,
      "velocity": 0.94,
      "hand": "right"
    },
    {
      "midi": 74,
      "time": 5.4,
      "duration": 0.15,
      "velocity": 0.94,
      "hand": "right"
    },
    {
      "midi": 42,
      "time": 5.7,
      "duration": 0.15,
      "velocity": 0.63,
      "hand": "left"
    },
    {
      "midi": 46,
      "time": 5.7,
      "duration": 0.15,
      "velocity": 0.63,
      "hand": "left"
    },
    {
      "midi": 50,
      "time": 5.7,
      "duration": 0.15,
      "velocity": 1,
      "hand": "left"
    },
    {
      "midi": 66,
      "time": 5.7,
      "duration": 0.075,
      "velocity": 1,
      "hand": "right"
    },
    {
      "midi": 67,
      "time": 5.7,
      "duration": 0.075,
      "velocity": 1,
      "hand": "right"
    },
    {
      "midi": 70,
      "time": 5.7,
      "duration": 0.075,
      "velocity": 1,
      "hand": "right"
    },
    {
      "midi": 73,
      "time": 5.7,
      "duration": 0.075,
      "velocity": 1,
      "hand": "right"
    },
    {
      "midi": 38,
      "time": 6,
      "duration": 0.9,
      "velocity": 0.63,
      "hand": "left"
    },
    {
      "midi": 43,
      "time": 6,
      "duration": 0.75,
      "velocity": 1,
      "hand": "left"
    },
    {
      "midi": 44,
      "time": 6,
      "duration": 0.075,
      "velocity": 0.63,
      "hand": "left"
    },
    {
      "midi": 67,
      "time": 6,
      "duration": 0.15,
      "velocity": 1,
      "hand": "right"
    },
    {
      "midi": 71,
      "time": 6,
      "duration": 0.075,
      "velocity": 1,
      "hand": "right"
    },
    {
      "midi": 74,
      "time": 6,
      "duration": 0.075,
      "velocity": 1,
      "hand": "right"
    },
    {
      "midi": 44,
      "time": 6.3,
      "duration": 0.075,
      "velocity": 0.63,
      "hand": "left"
    },
    {
      "midi": 67,
      "time": 6.3,
      "duration": 0.075,
      "velocity": 0.99,
      "hand": "right"
    },
    {
      "midi": 67,
      "time": 6.3,
      "duration": 0.45,
      "velocity": 1,
      "hand": "right"
    },
    {
      "midi": 71,
      "time": 6.3,
      "duration": 0.075,
      "velocity": 1,
      "hand": "right"
    },
    {
      "midi": 74,
      "time": 6.3,
      "duration": 0.075,
      "velocity": 1,
      "hand": "right"
    },
    {
      "midi": 44,
      "time": 6.45,
      "duration": 0.075,
      "velocity": 0.63,
      "hand": "left"
    },
    {
      "midi": 67,
      "time": 6.45,
      "duration": 0.075,
      "velocity": 0.81,
      "hand": "right"
    },
    {
      "midi": 71,
      "time": 6.45,
      "duration": 0.075,
      "velocity": 0.85,
      "hand": "right"
    },
    {
      "midi": 74,
      "time": 6.45,
      "duration": 0.075,
      "velocity": 0.76,
      "hand": "right"
    },
    {
      "midi": 44,
      "time": 6.6,
      "duration": 0.075,
      "velocity": 0.63,
      "hand": "left"
    },
    {
      "midi": 67,
      "time": 6.6,
      "duration": 0.075,
      "velocity": 1,
      "hand": "right"
    },
    {
      "midi": 71,
      "time": 6.6,
      "duration": 0.075,
      "velocity": 1,
      "hand": "right"
    },
    {
      "midi": 74,
      "time": 6.6,
      "duration": 0.15,
      "velocity": 1,
      "hand": "right"
    },
    {
      "midi": 42,
      "time": 6.9,
      "duration": 0.15,
      "velocity": 0.63,
      "hand": "left"
    },
    {
      "midi": 46,
      "time": 6.9,
      "duration": 0.075,
      "velocity": 0.63,
      "hand": "left"
    },
    {
      "midi": 50,
      "time": 6.9,
      "duration": 0.3,
      "velocity": 1,
      "hand": "left"
    },
    {
      "midi": 66,
      "time": 6.9,
      "duration": 0.15,
      "velocity": 1,
      "hand": "right"
    },
    {
      "midi": 67,
      "time": 6.9,
      "duration": 0.075,
      "velocity": 1,
      "hand": "right"
    },
    {
      "midi": 70,
      "time": 6.9,
      "duration": 0.075,
      "velocity": 1,
      "hand": "right"
    },
    {
      "midi": 73,
      "time": 6.9,
      "duration": 0.15,
      "velocity": 1,
      "hand": "right"
    },
    {
      "midi": 38,
      "time": 7.2,
      "duration": 0.15,
      "velocity": 0.63,
      "hand": "left"
    },
    {
      "midi": 43,
      "time": 7.2,
      "duration": 0.15,
      "velocity": 1,
      "hand": "left"
    },
    {
      "midi": 44,
      "time": 7.2,
      "duration": 0.15,
      "velocity": 0.63,
      "hand": "left"
    },
    {
      "midi": 67,
      "time": 7.2,
      "duration": 0.15,
      "velocity": 0.99,
      "hand": "right"
    },
    {
      "midi": 71,
      "time": 7.2,
      "duration": 0.075,
      "velocity": 1,
      "hand": "right"
    },
    {
      "midi": 74,
      "time": 7.2,
      "duration": 0.075,
      "velocity": 1,
      "hand": "right"
    },
    {
      "midi": 42,
      "time": 7.5,
      "duration": 0.15,
      "velocity": 0.63,
      "hand": "left"
    },
    {
      "midi": 44,
      "time": 7.5,
      "duration": 0.15,
      "velocity": 0.63,
      "hand": "left"
    },
    {
      "midi": 50,
      "time": 7.5,
      "duration": 0.15,
      "velocity": 1,
      "hand": "left"
    },
    {
      "midi": 67,
      "time": 7.5,
      "duration": 0.15,
      "velocity": 1,
      "hand": "right"
    },
    {
      "midi": 71,
      "time": 7.5,
      "duration": 0.075,
      "velocity": 1,
      "hand": "right"
    },
    {
      "midi": 74,
      "time": 7.5,
      "duration": 0.15,
      "velocity": 0.97,
      "hand": "right"
    },
    {
      "midi": 46,
      "time": 7.65,
      "duration": 0.15,
      "velocity": 0.63,
      "hand": "left"
    },
    {
      "midi": 66,
      "time": 7.65,
      "duration": 0.15,
      "velocity": 1,
      "hand": "right"
    },
    {
      "midi": 67,
      "time": 7.65,
      "duration": 0.075,
      "velocity": 0.55,
      "hand": "right"
    },
    {
      "midi": 70,
      "time": 7.65,
      "duration": 0.15,
      "velocity": 1,
      "hand": "right"
    },
    {
      "midi": 73,
      "time": 7.65,
      "duration": 0.15,
      "velocity": 0.89,
      "hand": "right"
    },
    {
      "midi": 38,
      "time": 7.8,
      "duration": 0.15,
      "velocity": 0.63,
      "hand": "left"
    },
    {
      "midi": 43,
      "time": 7.8,
      "duration": 0.15,
      "velocity": 1,
      "hand": "left"
    },
    {
      "midi": 44,
      "time": 7.8,
      "duration": 0.15,
      "velocity": 0.63,
      "hand": "left"
    },
    {
      "midi": 67,
      "time": 7.8,
      "duration": 0.15,
      "velocity": 0.73,
      "hand": "right"
    },
    {
      "midi": 67,
      "time": 7.8,
      "duration": 0.075,
      "velocity": 1,
      "hand": "right"
    },
    {
      "midi": 70,
      "time": 7.8,
      "duration": 0.075,
      "velocity": 0.52,
      "hand": "right"
    },
    {
      "midi": 71,
      "time": 7.8,
      "duration": 0.075,
      "velocity": 0.81,
      "hand": "right"
    },
    {
      "midi": 74,
      "time": 7.8,
      "duration": 0.075,
      "velocity": 0.89,
      "hand": "right"
    },
    {
      "midi": 42,
      "time": 8.1,
      "duration": 0.15,
      "velocity": 0.63,
      "hand": "left"
    },
    {
      "midi": 46,
      "time": 8.1,
      "duration": 0.15,
      "velocity": 0.63,
      "hand": "left"
    },
    {
      "midi": 50,
      "time": 8.1,
      "duration": 0.15,
      "velocity": 1,
      "hand": "left"
    },
    {
      "midi": 67,
      "time": 8.1,
      "duration": 0.15,
      "velocity": 0.87,
      "hand": "right"
    },
    {
      "midi": 72,
      "time": 8.1,
      "duration": 0.075,
      "velocity": 1,
      "hand": "right"
    },
    {
      "midi": 76,
      "time": 8.1,
      "duration": 0.075,
      "velocity": 0.99,
      "hand": "right"
    },
    {
      "midi": 66,
      "time": 8.25,
      "duration": 0.15,
      "velocity": 1,
      "hand": "right"
    },
    {
      "midi": 38,
      "time": 8.4,
      "duration": 0.15,
      "velocity": 0.63,
      "hand": "left"
    },
    {
      "midi": 43,
      "time": 8.4,
      "duration": 1.2,
      "velocity": 1,
      "hand": "left"
    },
    {
      "midi": 44,
      "time": 8.4,
      "duration": 0.075,
      "velocity": 0.63,
      "hand": "left"
    },
    {
      "midi": 67,
      "time": 8.4,
      "duration": 0.75,
      "velocity": 1,
      "hand": "right"
    },
    {
      "midi": 67,
      "time": 8.4,
      "duration": 0.6,
      "velocity": 1,
      "hand": "right"
    },
    {
      "midi": 71,
      "time": 8.4,
      "duration": 0.15,
      "velocity": 1,
      "hand": "right"
    },
    {
      "midi": 74,
      "time": 8.4,
      "duration": 0.6,
      "velocity": 1,
      "hand": "right"
    },
    {
      "midi": 44,
      "time": 8.7,
      "duration": 0.15,
      "velocity": 0.63,
      "hand": "left"
    },
    {
      "midi": 59,
      "time": 8.7,
      "duration": 0.15,
      "velocity": 0.63,
      "hand": "left"
    },
    {
      "midi": 62,
      "time": 8.7,
      "duration": 0.3,
      "velocity": 0.99,
      "hand": "right"
    },
    {
      "midi": 71,
      "time": 8.7,
      "duration": 0.15,
      "velocity": 0.7,
      "hand": "right"
    },
    {
      "midi": 95,
      "time": 8.7,
      "duration": 0.15,
      "velocity": 0.76,
      "hand": "right"
    },
    {
      "midi": 60,
      "time": 8.85,
      "duration": 0.15,
      "velocity": 0.63,
      "hand": "right"
    },
    {
      "midi": 91,
      "time": 8.85,
      "duration": 0.15,
      "velocity": 0.91,
      "hand": "right"
    },
    {
      "midi": 44,
      "time": 9,
      "duration": 0.15,
      "velocity": 0.63,
      "hand": "left"
    },
    {
      "midi": 59,
      "time": 9,
      "duration": 0.3,
      "velocity": 0.89,
      "hand": "left"
    },
    {
      "midi": 61,
      "time": 9,
      "duration": 0.15,
      "velocity": 0.63,
      "hand": "right"
    },
    {
      "midi": 62,
      "time": 9,
      "duration": 0.3,
      "velocity": 0.79,
      "hand": "right"
    },
    {
      "midi": 72,
      "time": 9,
      "duration": 0.15,
      "velocity": 1,
      "hand": "right"
    },
    {
      "midi": 86,
      "time": 9,
      "duration": 0.15,
      "velocity": 0.92,
      "hand": "right"
    },
    {
      "midi": 44,
      "time": 9.3,
      "duration": 0.075,
      "velocity": 0.63,
      "hand": "left"
    },
    {
      "midi": 55,
      "time": 9.3,
      "duration": 0.3,
      "velocity": 1,
      "hand": "left"
    },
    {
      "midi": 61,
      "time": 9.3,
      "duration": 0.3,
      "velocity": 0.79,
      "hand": "right"
    },
    {
      "midi": 62,
      "time": 9.3,
      "duration": 0.075,
      "velocity": 0.63,
      "hand": "right"
    },
    {
      "midi": 67,
      "time": 9.3,
      "duration": 0.075,
      "velocity": 0.97,
      "hand": "right"
    },
    {
      "midi": 74,
      "time": 9.3,
      "duration": 0.15,
      "velocity": 0.97,
      "hand": "right"
    },
    {
      "midi": 91,
      "time": 9.3,
      "duration": 0.3,
      "velocity": 0.92,
      "hand": "right"
    },
    {
      "midi": 38,
      "time": 9.6,
      "duration": 0.15,
      "velocity": 0.63,
      "hand": "left"
    },
    {
      "midi": 44,
      "time": 9.6,
      "duration": 0.15,
      "velocity": 0.63,
      "hand": "left"
    },
    {
      "midi": 50,
      "time": 9.6,
      "duration": 0.6,
      "velocity": 1,
      "hand": "left"
    },
    {
      "midi": 50,
      "time": 9.6,
      "duration": 1.8,
      "velocity": 1,
      "hand": "left"
    },
    {
      "midi": 51,
      "time": 9.6,
      "duration": 0.15,
      "velocity": 0.63,
      "hand": "left"
    },
    {
      "midi": 60,
      "time": 9.6,
      "duration": 1.5,
      "velocity": 0.79,
      "hand": "right"
    },
    {
      "midi": 66,
      "time": 9.6,
      "duration": 0.075,
      "velocity": 1,
      "hand": "right"
    },
    {
      "midi": 69,
      "time": 9.6,
      "duration": 1.35,
      "velocity": 0.63,
      "hand": "right"
    },
    {
      "midi": 72,
      "time": 9.6,
      "duration": 0.075,
      "velocity": 1,
      "hand": "right"
    },
    {
      "midi": 74,
      "time": 9.6,
      "duration": 0.075,
      "velocity": 1,
      "hand": "right"
    },
    {
      "midi": 90,
      "time": 9.6,
      "duration": 1.35,
      "velocity": 0.92,
      "hand": "right"
    },
    {
      "midi": 42,
      "time": 9.9,
      "duration": 0.075,
      "velocity": 0.63,
      "hand": "left"
    },
    {
      "midi": 46,
      "time": 9.9,
      "duration": 0.075,
      "velocity": 0.63,
      "hand": "left"
    },
    {
      "midi": 66,
      "time": 9.9,
      "duration": 0.075,
      "velocity": 0.94,
      "hand": "right"
    },
    {
      "midi": 72,
      "time": 9.9,
      "duration": 0.075,
      "velocity": 1,
      "hand": "right"
    },
    {
      "midi": 74,
      "time": 9.9,
      "duration": 0.075,
      "velocity": 0.94,
      "hand": "right"
    },
    {
      "midi": 66,
      "time": 10.05,
      "duration": 0.075,
      "velocity": 0.68,
      "hand": "right"
    },
    {
      "midi": 72,
      "time": 10.05,
      "duration": 0.075,
      "velocity": 1,
      "hand": "right"
    },
    {
      "midi": 74,
      "time": 10.05,
      "duration": 0.075,
      "velocity": 0.87,
      "hand": "right"
    },
    {
      "midi": 38,
      "time": 10.2,
      "duration": 0.6,
      "velocity": 1,
      "hand": "left"
    },
    {
      "midi": 38,
      "time": 10.2,
      "duration": 0.3,
      "velocity": 0.63,
      "hand": "left"
    },
    {
      "midi": 44,
      "time": 10.2,
      "duration": 0.15,
      "velocity": 0.63,
      "hand": "left"
    },
    {
      "midi": 66,
      "time": 10.2,
      "duration": 0.075,
      "velocity": 0.85,
      "hand": "right"
    },
    {
      "midi": 72,
      "time": 10.2,
      "duration": 0.075,
      "velocity": 1,
      "hand": "right"
    },
    {
      "midi": 74,
      "time": 10.2,
      "duration": 0.075,
      "velocity": 1,
      "hand": "right"
    },
    {
      "midi": 42,
      "time": 10.5,
      "duration": 0.15,
      "velocity": 0.63,
      "hand": "left"
    },
    {
      "midi": 46,
      "time": 10.5,
      "duration": 0.075,
      "velocity": 0.63,
      "hand": "left"
    },
    {
      "midi": 66,
      "time": 10.5,
      "duration": 0.075,
      "velocity": 1,
      "hand": "right"
    },
    {
      "midi": 72,
      "time": 10.5,
      "duration": 0.075,
      "velocity": 1,
      "hand": "right"
    },
    {
      "midi": 76,
      "time": 10.5,
      "duration": 0.075,
      "velocity": 1,
      "hand": "right"
    },
    {
      "midi": 38,
      "time": 10.8,
      "duration": 0.3,
      "velocity": 0.63,
      "hand": "left"
    },
    {
      "midi": 44,
      "time": 10.8,
      "duration": 0.15,
      "velocity": 0.63,
      "hand": "left"
    },
    {
      "midi": 50,
      "time": 10.8,
      "duration": 0.75,
      "velocity": 1,
      "hand": "left"
    },
    {
      "midi": 51,
      "time": 10.8,
      "duration": 0.9,
      "velocity": 0.63,
      "hand": "left"
    },
    {
      "midi": 66,
      "time": 10.8,
      "duration": 0.3,
      "velocity": 1,
      "hand": "right"
    },
    {
      "midi": 72,
      "time": 10.8,
      "duration": 0.3,
      "velocity": 1,
      "hand": "right"
    },
    {
      "midi": 74,
      "time": 10.8,
      "duration": 0.3,
      "velocity": 1,
      "hand": "right"
    },
    {
      "midi": 42,
      "time": 11.1,
      "duration": 0.15,
      "velocity": 0.63,
      "hand": "left"
    },
    {
      "midi": 46,
      "time": 11.1,
      "duration": 0.075,
      "velocity": 0.63,
      "hand": "left"
    },
    {
      "midi": 64,
      "time": 11.1,
      "duration": 0.3,
      "velocity": 0.79,
      "hand": "right"
    },
    {
      "midi": 72,
      "time": 11.1,
      "duration": 0.15,
      "velocity": 0.63,
      "hand": "right"
    },
    {
      "midi": 96,
      "time": 11.1,
      "duration": 0.15,
      "velocity": 0.92,
      "hand": "right"
    },
    {
      "midi": 71,
      "time": 11.25,
      "duration": 0.075,
      "velocity": 0.63,
      "hand": "right"
    },
    {
      "midi": 95,
      "time": 11.25,
      "duration": 0.075,
      "velocity": 0.62,
      "hand": "right"
    },
    {
      "midi": 38,
      "time": 11.4,
      "duration": 0.3,
      "velocity": 0.63,
      "hand": "left"
    },
    {
      "midi": 42,
      "time": 11.4,
      "duration": 0.6,
      "velocity": 1,
      "hand": "left"
    },
    {
      "midi": 44,
      "time": 11.4,
      "duration": 0.15,
      "velocity": 0.63,
      "hand": "left"
    },
    {
      "midi": 52,
      "time": 11.4,
      "duration": 0.3,
      "velocity": 0.99,
      "hand": "left"
    },
    {
      "midi": 62,
      "time": 11.4,
      "duration": 0.3,
      "velocity": 0.79,
      "hand": "right"
    },
    {
      "midi": 66,
      "time": 11.4,
      "duration": 0.45,
      "velocity": 1,
      "hand": "right"
    },
    {
      "midi": 71,
      "time": 11.4,
      "duration": 0.15,
      "velocity": 0.63,
      "hand": "right"
    },
    {
      "midi": 72,
      "time": 11.4,
      "duration": 0.45,
      "velocity": 1,
      "hand": "right"
    },
    {
      "midi": 72,
      "time": 11.4,
      "duration": 0.15,
      "velocity": 0.63,
      "hand": "right"
    },
    {
      "midi": 74,
      "time": 11.4,
      "duration": 0.3,
      "velocity": 1,
      "hand": "right"
    },
    {
      "midi": 95,
      "time": 11.4,
      "duration": 0.3,
      "velocity": 0.81,
      "hand": "right"
    },
    {
      "midi": 96,
      "time": 11.4,
      "duration": 0.15,
      "velocity": 0.71,
      "hand": "right"
    },
    {
      "midi": 97,
      "time": 11.4,
      "duration": 0.15,
      "velocity": 0.65,
      "hand": "right"
    },
    {
      "midi": 42,
      "time": 11.7,
      "duration": 0.15,
      "velocity": 0.63,
      "hand": "left"
    },
    {
      "midi": 46,
      "time": 11.7,
      "duration": 0.15,
      "velocity": 0.63,
      "hand": "left"
    },
    {
      "midi": 54,
      "time": 11.7,
      "duration": 0.3,
      "velocity": 0.98,
      "hand": "left"
    },
    {
      "midi": 60,
      "time": 11.7,
      "duration": 0.3,
      "velocity": 0.79,
      "hand": "right"
    },
    {
      "midi": 66,
      "time": 11.7,
      "duration": 0.3,
      "velocity": 0.63,
      "hand": "right"
    },
    {
      "midi": 90,
      "time": 11.7,
      "duration": 0.3,
      "velocity": 0.92,
      "hand": "right"
    },
    {
      "midi": 44,
      "time": 11.85,
      "duration": 0.075,
      "velocity": 0.63,
      "hand": "left"
    },
    {
      "midi": 46,
      "time": 11.85,
      "duration": 0.075,
      "velocity": 0.63,
      "hand": "left"
    },
    {
      "midi": 38,
      "time": 12,
      "duration": 0.15,
      "velocity": 0.63,
      "hand": "left"
    },
    {
      "midi": 43,
      "time": 12,
      "duration": 0.15,
      "velocity": 1,
      "hand": "left"
    },
    {
      "midi": 44,
      "time": 12,
      "duration": 0.15,
      "velocity": 0.63,
      "hand": "left"
    },
    {
      "midi": 51,
      "time": 12,
      "duration": 0.075,
      "velocity": 0.63,
      "hand": "left"
    },
    {
      "midi": 55,
      "time": 12,
      "duration": 0.75,
      "velocity": 0.97,
      "hand": "left"
    },
    {
      "midi": 59,
      "time": 12,
      "duration": 1.35,
      "velocity": 0.79,
      "hand": "left"
    },
    {
      "midi": 67,
      "time": 12,
      "duration": 0.075,
      "velocity": 0.99,
      "hand": "right"
    },
    {
      "midi": 69,
      "time": 12,
      "duration": 0.075,
      "velocity": 0.63,
      "hand": "right"
    },
    {
      "midi": 71,
      "time": 12,
      "duration": 0.075,
      "velocity": 1,
      "hand": "right"
    },
    {
      "midi": 74,
      "time": 12,
      "duration": 0.075,
      "velocity": 1,
      "hand": "right"
    },
    {
      "midi": 93,
      "time": 12,
      "duration": 0.15,
      "velocity": 0.84,
      "hand": "right"
    },
    {
      "midi": 67,
      "time": 12.15,
      "duration": 0.075,
      "velocity": 0.63,
      "hand": "right"
    },
    {
      "midi": 69,
      "time": 12.15,
      "duration": 0.15,
      "velocity": 0.63,
      "hand": "right"
    },
    {
      "midi": 91,
      "time": 12.15,
      "duration": 0.075,
      "velocity": 0.77,
      "hand": "right"
    },
    {
      "midi": 93,
      "time": 12.15,
      "duration": 0.15,
      "velocity": 0.8,
      "hand": "right"
    },
    {
      "midi": 42,
      "time": 12.3,
      "duration": 0.15,
      "velocity": 0.63,
      "hand": "left"
    },
    {
      "midi": 46,
      "time": 12.3,
      "duration": 0.075,
      "velocity": 0.63,
      "hand": "left"
    },
    {
      "midi": 67,
      "time": 12.3,
      "duration": 0.075,
      "velocity": 1,
      "hand": "right"
    },
    {
      "midi": 67,
      "time": 12.3,
      "duration": 0.3,
      "velocity": 0.63,
      "hand": "right"
    },
    {
      "midi": 71,
      "time": 12.3,
      "duration": 0.075,
      "velocity": 1,
      "hand": "right"
    },
    {
      "midi": 74,
      "time": 12.3,
      "duration": 0.075,
      "velocity": 1,
      "hand": "right"
    },
    {
      "midi": 91,
      "time": 12.3,
      "duration": 0.3,
      "velocity": 0.89,
      "hand": "right"
    },
    {
      "midi": 67,
      "time": 12.45,
      "duration": 0.075,
      "velocity": 0.83,
      "hand": "right"
    },
    {
      "midi": 71,
      "time": 12.45,
      "duration": 0.075,
      "velocity": 0.94,
      "hand": "right"
    },
    {
      "midi": 74,
      "time": 12.45,
      "duration": 0.075,
      "velocity": 0.94,
      "hand": "right"
    },
    {
      "midi": 38,
      "time": 12.6,
      "duration": 0.6,
      "velocity": 1,
      "hand": "left"
    },
    {
      "midi": 38,
      "time": 12.6,
      "duration": 0.3,
      "velocity": 0.63,
      "hand": "left"
    },
    {
      "midi": 44,
      "time": 12.6,
      "duration": 0.15,
      "velocity": 0.63,
      "hand": "left"
    },
    {
      "midi": 59,
      "time": 12.6,
      "duration": 1.05,
      "velocity": 0.63,
      "hand": "left"
    },
    {
      "midi": 59,
      "time": 12.6,
      "duration": 0.6,
      "velocity": 0.94,
      "hand": "left"
    },
    {
      "midi": 67,
      "time": 12.6,
      "duration": 0.075,
      "velocity": 1,
      "hand": "right"
    },
    {
      "midi": 71,
      "time": 12.6,
      "duration": 0.075,
      "velocity": 1,
      "hand": "right"
    },
    {
      "midi": 74,
      "time": 12.6,
      "duration": 0.15,
      "velocity": 1,
      "hand": "right"
    },
    {
      "midi": 83,
      "time": 12.6,
      "duration": 0.9,
      "velocity": 0.92,
      "hand": "right"
    },
    {
      "midi": 85,
      "time": 12.6,
      "duration": 0.075,
      "velocity": 0.81,
      "hand": "right"
    },
    {
      "midi": 42,
      "time": 12.9,
      "duration": 0.15,
      "velocity": 0.63,
      "hand": "left"
    },
    {
      "midi": 46,
      "time": 12.9,
      "duration": 0.075,
      "velocity": 0.63,
      "hand": "left"
    },
    {
      "midi": 67,
      "time": 12.9,
      "duration": 0.075,
      "velocity": 1,
      "hand": "right"
    },
    {
      "midi": 70,
      "time": 12.9,
      "duration": 0.075,
      "velocity": 1,
      "hand": "right"
    },
    {
      "midi": 73,
      "time": 12.9,
      "duration": 0.075,
      "velocity": 1,
      "hand": "right"
    },
    {
      "midi": 38,
      "time": 13.2,
      "duration": 0.15,
      "velocity": 0.63,
      "hand": "left"
    },
    {
      "midi": 43,
      "time": 13.2,
      "duration": 0.075,
      "velocity": 0.99,
      "hand": "left"
    },
    {
      "midi": 44,
      "time": 13.2,
      "duration": 0.15,
      "velocity": 0.63,
      "hand": "left"
    },
    {
      "midi": 50,
      "time": 13.2,
      "duration": 1.2,
      "velocity": 0.87,
      "hand": "left"
    },
    {
      "midi": 51,
      "time": 13.2,
      "duration": 0.9,
      "velocity": 0.63,
      "hand": "left"
    },
    {
      "midi": 67,
      "time": 13.2,
      "duration": 0.45,
      "velocity": 0.99,
      "hand": "right"
    },
    {
      "midi": 71,
      "time": 13.2,
      "duration": 0.45,
      "velocity": 1,
      "hand": "right"
    },
    {
      "midi": 74,
      "time": 13.2,
      "duration": 0.45,
      "velocity": 1,
      "hand": "right"
    },
    {
      "midi": 60,
      "time": 13.35,
      "duration": 0.15,
      "velocity": 0.79,
      "hand": "right"
    },
    {
      "midi": 42,
      "time": 13.5,
      "duration": 0.15,
      "velocity": 0.63,
      "hand": "left"
    },
    {
      "midi": 43,
      "time": 13.5,
      "duration": 0.3,
      "velocity": 1,
      "hand": "left"
    },
    {
      "midi": 46,
      "time": 13.5,
      "duration": 0.075,
      "velocity": 0.63,
      "hand": "left"
    },
    {
      "midi": 60,
      "time": 13.5,
      "duration": 0.3,
      "velocity": 0.63,
      "hand": "right"
    },
    {
      "midi": 61,
      "time": 13.5,
      "duration": 0.15,
      "velocity": 0.79,
      "hand": "right"
    },
    {
      "midi": 84,
      "time": 13.5,
      "duration": 0.15,
      "velocity": 0.92,
      "hand": "right"
    },
    {
      "midi": 62,
      "time": 13.65,
      "duration": 0.15,
      "velocity": 0.79,
      "hand": "right"
    },
    {
      "midi": 85,
      "time": 13.65,
      "duration": 0.15,
      "velocity": 0.81,
      "hand": "right"
    },
    {
      "midi": 38,
      "time": 13.8,
      "duration": 0.3,
      "velocity": 0.63,
      "hand": "left"
    },
    {
      "midi": 44,
      "time": 13.8,
      "duration": 0.15,
      "velocity": 0.63,
      "hand": "left"
    },
    {
      "midi": 45,
      "time": 13.8,
      "duration": 0.15,
      "velocity": 1,
      "hand": "left"
    },
    {
      "midi": 61,
      "time": 13.8,
      "duration": 0.3,
      "velocity": 0.63,
      "hand": "right"
    },
    {
      "midi": 62,
      "time": 13.8,
      "duration": 0.45,
      "velocity": 1,
      "hand": "right"
    },
    {
      "midi": 67,
      "time": 13.8,
      "duration": 0.45,
      "velocity": 1,
      "hand": "right"
    },
    {
      "midi": 69,
      "time": 13.8,
      "duration": 0.3,
      "velocity": 0.79,
      "hand": "right"
    },
    {
      "midi": 71,
      "time": 13.8,
      "duration": 0.45,
      "velocity": 1,
      "hand": "right"
    },
    {
      "midi": 88,
      "time": 13.8,
      "duration": 0.15,
      "velocity": 0.91,
      "hand": "right"
    },
    {
      "midi": 86,
      "time": 13.95,
      "duration": 0.075,
      "velocity": 0.92,
      "hand": "right"
    },
    {
      "midi": 42,
      "time": 14.1,
      "duration": 0.15,
      "velocity": 0.63,
      "hand": "left"
    },
    {
      "midi": 46,
      "time": 14.1,
      "duration": 0.15,
      "velocity": 0.63,
      "hand": "left"
    },
    {
      "midi": 47,
      "time": 14.1,
      "duration": 0.15,
      "velocity": 1,
      "hand": "left"
    },
    {
      "midi": 64,
      "time": 14.1,
      "duration": 0.3,
      "velocity": 0.63,
      "hand": "right"
    },
    {
      "midi": 67,
      "time": 14.1,
      "duration": 0.3,
      "velocity": 0.79,
      "hand": "right"
    },
    {
      "midi": 86,
      "time": 14.1,
      "duration": 0.45,
      "velocity": 0.71,
      "hand": "right"
    },
    {
      "midi": 88,
      "time": 14.1,
      "duration": 0.15,
      "velocity": 0.5,
      "hand": "right"
    },
    {
      "midi": 44,
      "time": 14.25,
      "duration": 0.075,
      "velocity": 0.63,
      "hand": "left"
    },
    {
      "midi": 46,
      "time": 14.25,
      "duration": 0.075,
      "velocity": 0.63,
      "hand": "left"
    },
    {
      "midi": 38,
      "time": 14.4,
      "duration": 0.15,
      "velocity": 0.63,
      "hand": "left"
    },
    {
      "midi": 44,
      "time": 14.4,
      "duration": 0.15,
      "velocity": 0.63,
      "hand": "left"
    },
    {
      "midi": 50,
      "time": 14.4,
      "duration": 0.75,
      "velocity": 1,
      "hand": "left"
    },
    {
      "midi": 51,
      "time": 14.4,
      "duration": 1.05,
      "velocity": 0.63,
      "hand": "left"
    },
    {
      "midi": 54,
      "time": 14.4,
      "duration": 0.6,
      "velocity": 0.96,
      "hand": "left"
    },
    {
      "midi": 62,
      "time": 14.4,
      "duration": 0.3,
      "velocity": 0.63,
      "hand": "right"
    },
    {
      "midi": 66,
      "time": 14.4,
      "duration": 0.075,
      "velocity": 0.89,
      "hand": "right"
    },
    {
      "midi": 66,
      "time": 14.4,
      "duration": 1.2,
      "velocity": 0.79,
      "hand": "right"
    },
    {
      "midi": 70,
      "time": 14.4,
      "duration": 0.075,
      "velocity": 0.82,
      "hand": "right"
    },
    {
      "midi": 72,
      "time": 14.4,
      "duration": 0.075,
      "velocity": 1,
      "hand": "right"
    },
    {
      "midi": 73,
      "time": 14.4,
      "duration": 0.075,
      "velocity": 0.92,
      "hand": "right"
    },
    {
      "midi": 74,
      "time": 14.4,
      "duration": 0.075,
      "velocity": 1,
      "hand": "right"
    },
    {
      "midi": 84,
      "time": 14.4,
      "duration": 0.3,
      "velocity": 0.92,
      "hand": "right"
    },
    {
      "midi": 42,
      "time": 14.7,
      "duration": 0.15,
      "velocity": 0.63,
      "hand": "left"
    },
    {
      "midi": 46,
      "time": 14.7,
      "duration": 0.075,
      "velocity": 0.63,
      "hand": "left"
    },
    {
      "midi": 60,
      "time": 14.7,
      "duration": 0.3,
      "velocity": 0.63,
      "hand": "right"
    },
    {
      "midi": 66,
      "time": 14.7,
      "duration": 0.075,
      "velocity": 0.92,
      "hand": "right"
    },
    {
      "midi": 72,
      "time": 14.7,
      "duration": 0.075,
      "velocity": 1,
      "hand": "right"
    },
    {
      "midi": 74,
      "time": 14.7,
      "duration": 0.075,
      "velocity": 0.94,
      "hand": "right"
    },
    {
      "midi": 81,
      "time": 14.7,
      "duration": 0.15,
      "velocity": 0.92,
      "hand": "right"
    },
    {
      "midi": 66,
      "time": 14.85,
      "duration": 0.075,
      "velocity": 0.63,
      "hand": "right"
    },
    {
      "midi": 72,
      "time": 14.85,
      "duration": 0.075,
      "velocity": 0.96,
      "hand": "right"
    },
    {
      "midi": 74,
      "time": 14.85,
      "duration": 0.15,
      "velocity": 0.83,
      "hand": "right"
    },
    {
      "midi": 38,
      "time": 15,
      "duration": 0.6,
      "velocity": 1,
      "hand": "left"
    },
    {
      "midi": 38,
      "time": 15,
      "duration": 0.15,
      "velocity": 0.63,
      "hand": "left"
    },
    {
      "midi": 44,
      "time": 15,
      "duration": 0.15,
      "velocity": 0.63,
      "hand": "left"
    },
    {
      "midi": 52,
      "time": 15,
      "duration": 0.3,
      "velocity": 0.63,
      "hand": "left"
    },
    {
      "midi": 57,
      "time": 15,
      "duration": 0.6,
      "velocity": 0.81,
      "hand": "left"
    },
    {
      "midi": 66,
      "time": 15,
      "duration": 0.15,
      "velocity": 0.92,
      "hand": "right"
    },
    {
      "midi": 72,
      "time": 15,
      "duration": 0.15,
      "velocity": 1,
      "hand": "right"
    },
    {
      "midi": 74,
      "time": 15,
      "duration": 0.15,
      "velocity": 0.99,
      "hand": "right"
    },
    {
      "midi": 76,
      "time": 15,
      "duration": 0.3,
      "velocity": 0.92,
      "hand": "right"
    },
    {
      "midi": 42,
      "time": 15.3,
      "duration": 0.15,
      "velocity": 0.63,
      "hand": "left"
    },
    {
      "midi": 46,
      "time": 15.3,
      "duration": 0.075,
      "velocity": 0.63,
      "hand": "left"
    },
    {
      "midi": 53,
      "time": 15.3,
      "duration": 0.3,
      "velocity": 0.63,
      "hand": "left"
    },
    {
      "midi": 62,
      "time": 15.3,
      "duration": 0.075,
      "velocity": 1,
      "hand": "right"
    },
    {
      "midi": 66,
      "time": 15.3,
      "duration": 0.075,
      "velocity": 1,
      "hand": "right"
    },
    {
      "midi": 72,
      "time": 15.3,
      "duration": 0.075,
      "velocity": 1,
      "hand": "right"
    },
    {
      "midi": 78,
      "time": 15.3,
      "duration": 0.3,
      "velocity": 0.92,
      "hand": "right"
    },
    {
      "midi": 38,
      "time": 15.6,
      "duration": 0.3,
      "velocity": 0.63,
      "hand": "left"
    },
    {
      "midi": 44,
      "time": 15.6,
      "duration": 0.15,
      "velocity": 0.63,
      "hand": "left"
    },
    {
      "midi": 50,
      "time": 15.6,
      "duration": 1.2,
      "velocity": 0.89,
      "hand": "left"
    },
    {
      "midi": 51,
      "time": 15.6,
      "duration": 0.15,
      "velocity": 0.63,
      "hand": "left"
    },
    {
      "midi": 54,
      "time": 15.6,
      "duration": 0.3,
      "velocity": 0.63,
      "hand": "left"
    },
    {
      "midi": 64,
      "time": 15.6,
      "duration": 0.3,
      "velocity": 0.89,
      "hand": "right"
    },
    {
      "midi": 67,
      "time": 15.6,
      "duration": 0.3,
      "velocity": 0.94,
      "hand": "right"
    },
    {
      "midi": 68,
      "time": 15.6,
      "duration": 0.075,
      "velocity": 0.38,
      "hand": "right"
    },
    {
      "midi": 72,
      "time": 15.6,
      "duration": 0.45,
      "velocity": 1,
      "hand": "right"
    },
    {
      "midi": 83,
      "time": 15.6,
      "duration": 0.45,
      "velocity": 0.91,
      "hand": "right"
    },
    {
      "midi": 38,
      "time": 15.9,
      "duration": 0.15,
      "velocity": 1,
      "hand": "left"
    },
    {
      "midi": 42,
      "time": 15.9,
      "duration": 0.15,
      "velocity": 0.63,
      "hand": "left"
    },
    {
      "midi": 46,
      "time": 15.9,
      "duration": 0.075,
      "velocity": 0.63,
      "hand": "left"
    },
    {
      "midi": 50,
      "time": 15.9,
      "duration": 0.15,
      "velocity": 1,
      "hand": "left"
    },
    {
      "midi": 57,
      "time": 15.9,
      "duration": 0.3,
      "velocity": 0.79,
      "hand": "left"
    },
    {
      "midi": 59,
      "time": 15.9,
      "duration": 0.45,
      "velocity": 0.63,
      "hand": "left"
    },
    {
      "midi": 38,
      "time": 16.2,
      "duration": 0.3,
      "velocity": 0.63,
      "hand": "left"
    },
    {
      "midi": 40,
      "time": 16.2,
      "duration": 0.15,
      "velocity": 1,
      "hand": "left"
    },
    {
      "midi": 44,
      "time": 16.2,
      "duration": 0.15,
      "velocity": 0.63,
      "hand": "left"
    },
    {
      "midi": 48,
      "time": 16.2,
      "duration": 0.15,
      "velocity": 0.91,
      "hand": "left"
    },
    {
      "midi": 51,
      "time": 16.2,
      "duration": 0.3,
      "velocity": 0.63,
      "hand": "left"
    },
    {
      "midi": 62,
      "time": 16.2,
      "duration": 0.3,
      "velocity": 0.79,
      "hand": "right"
    },
    {
      "midi": 66,
      "time": 16.2,
      "duration": 0.3,
      "velocity": 1,
      "hand": "right"
    },
    {
      "midi": 69,
      "time": 16.2,
      "duration": 0.3,
      "velocity": 1,
      "hand": "right"
    },
    {
      "midi": 72,
      "time": 16.2,
      "duration": 0.3,
      "velocity": 1,
      "hand": "right"
    },
    {
      "midi": 81,
      "time": 16.2,
      "duration": 0.075,
      "velocity": 0.8,
      "hand": "right"
    },
    {
      "midi": 81,
      "time": 16.2,
      "duration": 0.6,
      "velocity": 0.84,
      "hand": "right"
    },
    {
      "midi": 84,
      "time": 16.2,
      "duration": 0.15,
      "velocity": 0.81,
      "hand": "right"
    },
    {
      "midi": 42,
      "time": 16.5,
      "duration": 0.15,
      "velocity": 1,
      "hand": "left"
    },
    {
      "midi": 46,
      "time": 16.5,
      "duration": 0.15,
      "velocity": 0.63,
      "hand": "left"
    },
    {
      "midi": 50,
      "time": 16.5,
      "duration": 0.075,
      "velocity": 1,
      "hand": "left"
    },
    {
      "midi": 57,
      "time": 16.5,
      "duration": 0.075,
      "velocity": 0.63,
      "hand": "left"
    },
    {
      "midi": 57,
      "time": 16.5,
      "duration": 0.3,
      "velocity": 0.63,
      "hand": "left"
    },
    {
      "midi": 59,
      "time": 16.5,
      "duration": 0.075,
      "velocity": 0.63,
      "hand": "left"
    },
    {
      "midi": 60,
      "time": 16.5,
      "duration": 0.3,
      "velocity": 0.79,
      "hand": "right"
    },
    {
      "midi": 44,
      "time": 16.65,
      "duration": 0.075,
      "velocity": 0.63,
      "hand": "left"
    },
    {
      "midi": 38,
      "time": 16.8,
      "duration": 0.3,
      "velocity": 0.63,
      "hand": "left"
    },
    {
      "midi": 43,
      "time": 16.8,
      "duration": 0.45,
      "velocity": 1,
      "hand": "left"
    },
    {
      "midi": 44,
      "time": 16.8,
      "duration": 0.075,
      "velocity": 0.63,
      "hand": "left"
    },
    {
      "midi": 46,
      "time": 16.8,
      "duration": 0.075,
      "velocity": 0.63,
      "hand": "left"
    },
    {
      "midi": 51,
      "time": 16.8,
      "duration": 1.05,
      "velocity": 0.63,
      "hand": "left"
    },
    {
      "midi": 55,
      "time": 16.8,
      "duration": 1.05,
      "velocity": 0.63,
      "hand": "left"
    },
    {
      "midi": 55,
      "time": 16.8,
      "duration": 0.6,
      "velocity": 0.99,
      "hand": "left"
    },
    {
      "midi": 59,
      "time": 16.8,
      "duration": 1.35,
      "velocity": 0.79,
      "hand": "left"
    },
    {
      "midi": 62,
      "time": 16.8,
      "duration": 0.15,
      "velocity": 0.99,
      "hand": "right"
    },
    {
      "midi": 67,
      "time": 16.8,
      "duration": 0.075,
      "velocity": 1,
      "hand": "right"
    },
    {
      "midi": 71,
      "time": 16.8,
      "duration": 0.075,
      "velocity": 0.89,
      "hand": "right"
    },
    {
      "midi": 79,
      "time": 16.8,
      "duration": 1.2,
      "velocity": 0.92,
      "hand": "right"
    },
    {
      "midi": 42,
      "time": 17.1,
      "duration": 0.15,
      "velocity": 0.63,
      "hand": "left"
    },
    {
      "midi": 46,
      "time": 17.1,
      "duration": 0.075,
      "velocity": 0.63,
      "hand": "left"
    },
    {
      "midi": 62,
      "time": 17.1,
      "duration": 0.075,
      "velocity": 1,
      "hand": "right"
    },
    {
      "midi": 67,
      "time": 17.1,
      "duration": 0.075,
      "velocity": 1,
      "hand": "right"
    },
    {
      "midi": 71,
      "time": 17.1,
      "duration": 0.075,
      "velocity": 0.94,
      "hand": "right"
    },
    {
      "midi": 62,
      "time": 17.25,
      "duration": 0.075,
      "velocity": 0.68,
      "hand": "right"
    },
    {
      "midi": 67,
      "time": 17.25,
      "duration": 0.075,
      "velocity": 0.94,
      "hand": "right"
    },
    {
      "midi": 71,
      "time": 17.25,
      "duration": 0.075,
      "velocity": 0.81,
      "hand": "right"
    },
    {
      "midi": 38,
      "time": 17.4,
      "duration": 0.45,
      "velocity": 1,
      "hand": "left"
    },
    {
      "midi": 38,
      "time": 17.4,
      "duration": 0.3,
      "velocity": 0.63,
      "hand": "left"
    },
    {
      "midi": 44,
      "time": 17.4,
      "duration": 0.15,
      "velocity": 0.63,
      "hand": "left"
    },
    {
      "midi": 50,
      "time": 17.4,
      "duration": 0.3,
      "velocity": 0.85,
      "hand": "left"
    },
    {
      "midi": 62,
      "time": 17.4,
      "duration": 0.15,
      "velocity": 0.7,
      "hand": "right"
    },
    {
      "midi": 67,
      "time": 17.4,
      "duration": 0.075,
      "velocity": 0.87,
      "hand": "right"
    },
    {
      "midi": 71,
      "time": 17.4,
      "duration": 0.15,
      "velocity": 0.85,
      "hand": "right"
    },
    {
      "midi": 42,
      "time": 17.7,
      "duration": 0.15,
      "velocity": 0.63,
      "hand": "left"
    },
    {
      "midi": 46,
      "time": 17.7,
      "duration": 0.075,
      "velocity": 0.63,
      "hand": "left"
    },
    {
      "midi": 47,
      "time": 17.7,
      "duration": 0.3,
      "velocity": 1,
      "hand": "left"
    },
    {
      "midi": 64,
      "time": 17.7,
      "duration": 0.075,
      "velocity": 0.89,
      "hand": "right"
    },
    {
      "midi": 67,
      "time": 17.7,
      "duration": 0.15,
      "velocity": 0.99,
      "hand": "right"
    },
    {
      "midi": 68,
      "time": 17.7,
      "duration": 0.075,
      "velocity": 0.72,
      "hand": "right"
    },
    {
      "midi": 72,
      "time": 17.7,
      "duration": 0.075,
      "velocity": 1,
      "hand": "right"
    },
    {
      "midi": 38,
      "time": 18,
      "duration": 0.15,
      "velocity": 0.63,
      "hand": "left"
    },
    {
      "midi": 40,
      "time": 18,
      "duration": 0.3,
      "velocity": 0.97,
      "hand": "left"
    },
    {
      "midi": 43,
      "time": 18,
      "duration": 0.45,
      "velocity": 1,
      "hand": "left"
    },
    {
      "midi": 44,
      "time": 18,
      "duration": 0.15,
      "velocity": 0.63,
      "hand": "left"
    },
    {
      "midi": 62,
      "time": 18,
      "duration": 0.3,
      "velocity": 0.94,
      "hand": "right"
    },
    {
      "midi": 62,
      "time": 18,
      "duration": 1.05,
      "velocity": 0.63,
      "hand": "right"
    },
    {
      "midi": 67,
      "time": 18,
      "duration": 0.3,
      "velocity": 1,
      "hand": "right"
    },
    {
      "midi": 71,
      "time": 18,
      "duration": 0.3,
      "velocity": 1,
      "hand": "right"
    },
    {
      "midi": 86,
      "time": 18,
      "duration": 1.05,
      "velocity": 0.63,
      "hand": "right"
    },
    {
      "midi": 46,
      "time": 18.3,
      "duration": 0.075,
      "velocity": 0.63,
      "hand": "left"
    },
    {
      "midi": 38,
      "time": 18.6,
      "duration": 0.3,
      "velocity": 0.63,
      "hand": "left"
    },
    {
      "midi": 42,
      "time": 18.6,
      "duration": 0.3,
      "velocity": 1,
      "hand": "left"
    },
    {
      "midi": 44,
      "time": 18.6,
      "duration": 0.075,
      "velocity": 0.63,
      "hand": "left"
    },
    {
      "midi": 51,
      "time": 18.6,
      "duration": 0.075,
      "velocity": 0.63,
      "hand": "left"
    },
    {
      "midi": 62,
      "time": 18.6,
      "duration": 0.15,
      "velocity": 1,
      "hand": "right"
    },
    {
      "midi": 62,
      "time": 18.6,
      "duration": 0.6,
      "velocity": 1,
      "hand": "right"
    },
    {
      "midi": 66,
      "time": 18.6,
      "duration": 0.15,
      "velocity": 1,
      "hand": "right"
    },
    {
      "midi": 69,
      "time": 18.6,
      "duration": 0.15,
      "velocity": 0.97,
      "hand": "right"
    },
    {
      "midi": 44,
      "time": 18.75,
      "duration": 0.075,
      "velocity": 0.63,
      "hand": "left"
    },
    {
      "midi": 46,
      "time": 18.75,
      "duration": 0.075,
      "velocity": 0.63,
      "hand": "left"
    },
    {
      "midi": 44,
      "time": 18.9,
      "duration": 0.075,
      "velocity": 0.63,
      "hand": "left"
    },
    {
      "midi": 46,
      "time": 18.9,
      "duration": 0.075,
      "velocity": 0.63,
      "hand": "left"
    },
    {
      "midi": 44,
      "time": 19.05,
      "duration": 0.075,
      "velocity": 0.63,
      "hand": "left"
    },
    {
      "midi": 46,
      "time": 19.05,
      "duration": 0.075,
      "velocity": 0.63,
      "hand": "left"
    },
    {
      "midi": 38,
      "time": 19.2,
      "duration": 0.15,
      "velocity": 0.63,
      "hand": "left"
    },
    {
      "midi": 43,
      "time": 19.2,
      "duration": 0.15,
      "velocity": 1,
      "hand": "left"
    },
    {
      "midi": 44,
      "time": 19.2,
      "duration": 0.075,
      "velocity": 0.63,
      "hand": "left"
    },
    {
      "midi": 55,
      "time": 19.2,
      "duration": 1.2,
      "velocity": 1,
      "hand": "left"
    },
    {
      "midi": 59,
      "time": 19.2,
      "duration": 0.075,
      "velocity": 0.79,
      "hand": "left"
    },
    {
      "midi": 59,
      "time": 19.2,
      "duration": 1.5,
      "velocity": 0.63,
      "hand": "left"
    },
    {
      "midi": 62,
      "time": 19.2,
      "duration": 0.075,
      "velocity": 0.87,
      "hand": "right"
    },
    {
      "midi": 67,
      "time": 19.2,
      "duration": 0.075,
      "velocity": 0.97,
      "hand": "right"
    },
    {
      "midi": 67,
      "time": 19.2,
      "duration": 1.05,
      "velocity": 0.79,
      "hand": "right"
    },
    {
      "midi": 79,
      "time": 19.2,
      "duration": 1.05,
      "velocity": 0.79,
      "hand": "right"
    },
    {
      "midi": 42,
      "time": 19.5,
      "duration": 0.15,
      "velocity": 0.63,
      "hand": "left"
    },
    {
      "midi": 46,
      "time": 19.5,
      "duration": 0.075,
      "velocity": 0.63,
      "hand": "left"
    },
    {
      "midi": 50,
      "time": 19.5,
      "duration": 0.075,
      "velocity": 0.81,
      "hand": "left"
    },
    {
      "midi": 59,
      "time": 19.5,
      "duration": 0.075,
      "velocity": 0.77,
      "hand": "left"
    },
    {
      "midi": 62,
      "time": 19.5,
      "duration": 0.075,
      "velocity": 0.94,
      "hand": "right"
    },
    {
      "midi": 67,
      "time": 19.5,
      "duration": 0.075,
      "velocity": 0.89,
      "hand": "right"
    },
    {
      "midi": 59,
      "time": 19.65,
      "duration": 0.15,
      "velocity": 0.38,
      "hand": "left"
    },
    {
      "midi": 62,
      "time": 19.65,
      "duration": 0.15,
      "velocity": 0.65,
      "hand": "right"
    },
    {
      "midi": 62,
      "time": 19.65,
      "duration": 0.075,
      "velocity": 0.47,
      "hand": "right"
    },
    {
      "midi": 67,
      "time": 19.65,
      "duration": 0.15,
      "velocity": 0.72,
      "hand": "right"
    },
    {
      "midi": 38,
      "time": 19.8,
      "duration": 0.3,
      "velocity": 0.91,
      "hand": "left"
    },
    {
      "midi": 44,
      "time": 19.8,
      "duration": 0.075,
      "velocity": 0.63,
      "hand": "left"
    },
    {
      "midi": 50,
      "time": 19.8,
      "duration": 0.6,
      "velocity": 0.7,
      "hand": "left"
    },
    {
      "midi": 42,
      "time": 20.1,
      "duration": 0.15,
      "velocity": 0.63,
      "hand": "left"
    },
    {
      "midi": 46,
      "time": 20.1,
      "duration": 0.075,
      "velocity": 0.63,
      "hand": "left"
    },
    {
      "midi": 50,
      "time": 20.1,
      "duration": 0.15,
      "velocity": 0.8,
      "hand": "left"
    },
    {
      "midi": 59,
      "time": 20.1,
      "duration": 0.075,
      "velocity": 0.85,
      "hand": "left"
    },
    {
      "midi": 62,
      "time": 20.1,
      "duration": 0.075,
      "velocity": 0.94,
      "hand": "right"
    },
    {
      "midi": 67,
      "time": 20.1,
      "duration": 0.075,
      "velocity": 1,
      "hand": "right"
    },
    {
      "midi": 71,
      "time": 20.1,
      "duration": 0.3,
      "velocity": 0.79,
      "hand": "right"
    },
    {
      "midi": 83,
      "time": 20.1,
      "duration": 0.3,
      "velocity": 0.81,
      "hand": "right"
    },
    {
      "midi": 38,
      "time": 20.4,
      "duration": 0.15,
      "velocity": 0.63,
      "hand": "left"
    },
    {
      "midi": 43,
      "time": 20.4,
      "duration": 0.15,
      "velocity": 0.86,
      "hand": "left"
    },
    {
      "midi": 44,
      "time": 20.4,
      "duration": 0.075,
      "velocity": 0.63,
      "hand": "left"
    },
    {
      "midi": 59,
      "time": 20.4,
      "duration": 0.075,
      "velocity": 0.67,
      "hand": "left"
    },
    {
      "midi": 62,
      "time": 20.4,
      "duration": 0.075,
      "velocity": 0.68,
      "hand": "right"
    },
    {
      "midi": 67,
      "time": 20.4,
      "duration": 0.075,
      "velocity": 0.92,
      "hand": "right"
    },
    {
      "midi": 74,
      "time": 20.4,
      "duration": 0.15,
      "velocity": 0.81,
      "hand": "right"
    },
    {
      "midi": 86,
      "time": 20.4,
      "duration": 0.075,
      "velocity": 0.81,
      "hand": "right"
    },
    {
      "midi": 42,
      "time": 20.7,
      "duration": 0.15,
      "velocity": 0.63,
      "hand": "left"
    },
    {
      "midi": 46,
      "time": 20.7,
      "duration": 0.075,
      "velocity": 0.63,
      "hand": "left"
    },
    {
      "midi": 50,
      "time": 20.7,
      "duration": 0.15,
      "velocity": 0.79,
      "hand": "left"
    },
    {
      "midi": 59,
      "time": 20.7,
      "duration": 0.075,
      "velocity": 0.76,
      "hand": "left"
    },
    {
      "midi": 60,
      "time": 20.7,
      "duration": 0.3,
      "velocity": 0.63,
      "hand": "right"
    },
    {
      "midi": 62,
      "time": 20.7,
      "duration": 0.075,
      "velocity": 0.89,
      "hand": "right"
    },
    {
      "midi": 67,
      "time": 20.7,
      "duration": 0.075,
      "velocity": 0.89,
      "hand": "right"
    },
    {
      "midi": 74,
      "time": 20.7,
      "duration": 0.3,
      "velocity": 0.85,
      "hand": "right"
    },
    {
      "midi": 86,
      "time": 20.7,
      "duration": 0.15,
      "velocity": 0.85,
      "hand": "right"
    },
    {
      "midi": 38,
      "time": 21,
      "duration": 0.3,
      "velocity": 1,
      "hand": "left"
    },
    {
      "midi": 44,
      "time": 21,
      "duration": 0.15,
      "velocity": 0.63,
      "hand": "left"
    },
    {
      "midi": 50,
      "time": 21,
      "duration": 0.6,
      "velocity": 0.85,
      "hand": "left"
    },
    {
      "midi": 59,
      "time": 21,
      "duration": 0.15,
      "velocity": 0.99,
      "hand": "left"
    },
    {
      "midi": 61,
      "time": 21,
      "duration": 0.3,
      "velocity": 0.63,
      "hand": "right"
    },
    {
      "midi": 62,
      "time": 21,
      "duration": 0.075,
      "velocity": 1,
      "hand": "right"
    },
    {
      "midi": 67,
      "time": 21,
      "duration": 0.075,
      "velocity": 1,
      "hand": "right"
    },
    {
      "midi": 74,
      "time": 21,
      "duration": 0.3,
      "velocity": 0.89,
      "hand": "right"
    },
    {
      "midi": 86,
      "time": 21,
      "duration": 0.3,
      "velocity": 0.89,
      "hand": "right"
    },
    {
      "midi": 42,
      "time": 21.3,
      "duration": 0.15,
      "velocity": 0.63,
      "hand": "left"
    },
    {
      "midi": 46,
      "time": 21.3,
      "duration": 0.075,
      "velocity": 0.63,
      "hand": "left"
    },
    {
      "midi": 50,
      "time": 21.3,
      "duration": 0.15,
      "velocity": 0.8,
      "hand": "left"
    },
    {
      "midi": 59,
      "time": 21.3,
      "duration": 0.075,
      "velocity": 0.73,
      "hand": "left"
    },
    {
      "midi": 62,
      "time": 21.3,
      "duration": 0.075,
      "velocity": 0.81,
      "hand": "right"
    },
    {
      "midi": 62,
      "time": 21.3,
      "duration": 0.3,
      "velocity": 0.63,
      "hand": "right"
    },
    {
      "midi": 67,
      "time": 21.3,
      "duration": 0.075,
      "velocity": 0.94,
      "hand": "right"
    },
    {
      "midi": 76,
      "time": 21.3,
      "duration": 0.3,
      "velocity": 0.68,
      "hand": "right"
    },
    {
      "midi": 88,
      "time": 21.3,
      "duration": 0.3,
      "velocity": 0.68,
      "hand": "right"
    },
    {
      "midi": 74,
      "time": 21.45,
      "duration": 0.15,
      "velocity": 0.94,
      "hand": "right"
    },
    {
      "midi": 86,
      "time": 21.45,
      "duration": 0.15,
      "velocity": 0.94,
      "hand": "right"
    },
    {
      "midi": 38,
      "time": 21.6,
      "duration": 0.3,
      "velocity": 0.63,
      "hand": "left"
    },
    {
      "midi": 43,
      "time": 21.6,
      "duration": 0.3,
      "velocity": 1,
      "hand": "left"
    },
    {
      "midi": 44,
      "time": 21.6,
      "duration": 0.075,
      "velocity": 0.63,
      "hand": "left"
    },
    {
      "midi": 59,
      "time": 21.6,
      "duration": 0.075,
      "velocity": 1,
      "hand": "left"
    },
    {
      "midi": 62,
      "time": 21.6,
      "duration": 0.075,
      "velocity": 1,
      "hand": "right"
    },
    {
      "midi": 67,
      "time": 21.6,
      "duration": 0.075,
      "velocity": 1,
      "hand": "right"
    },
    {
      "midi": 71,
      "time": 21.6,
      "duration": 0.3,
      "velocity": 0.63,
      "hand": "right"
    },
    {
      "midi": 74,
      "time": 21.6,
      "duration": 0.9,
      "velocity": 0.97,
      "hand": "right"
    },
    {
      "midi": 76,
      "time": 21.6,
      "duration": 0.15,
      "velocity": 0.68,
      "hand": "right"
    },
    {
      "midi": 86,
      "time": 21.6,
      "duration": 0.9,
      "velocity": 0.97,
      "hand": "right"
    },
    {
      "midi": 88,
      "time": 21.6,
      "duration": 0.15,
      "velocity": 0.68,
      "hand": "right"
    },
    {
      "midi": 42,
      "time": 21.9,
      "duration": 0.15,
      "velocity": 0.63,
      "hand": "left"
    },
    {
      "midi": 46,
      "time": 21.9,
      "duration": 0.075,
      "velocity": 0.63,
      "hand": "left"
    },
    {
      "midi": 50,
      "time": 21.9,
      "duration": 0.15,
      "velocity": 0.83,
      "hand": "left"
    },
    {
      "midi": 59,
      "time": 21.9,
      "duration": 0.075,
      "velocity": 0.89,
      "hand": "left"
    },
    {
      "midi": 62,
      "time": 21.9,
      "duration": 0.075,
      "velocity": 1,
      "hand": "right"
    },
    {
      "midi": 67,
      "time": 21.9,
      "duration": 0.075,
      "velocity": 0.94,
      "hand": "right"
    },
    {
      "midi": 67,
      "time": 21.9,
      "duration": 0.3,
      "velocity": 0.63,
      "hand": "right"
    },
    {
      "midi": 79,
      "time": 21.9,
      "duration": 0.15,
      "velocity": 0.69,
      "hand": "right"
    },
    {
      "midi": 59,
      "time": 22.05,
      "duration": 0.075,
      "velocity": 0.72,
      "hand": "left"
    },
    {
      "midi": 62,
      "time": 22.05,
      "duration": 0.075,
      "velocity": 0.89,
      "hand": "right"
    },
    {
      "midi": 67,
      "time": 22.05,
      "duration": 0.075,
      "velocity": 0.92,
      "hand": "right"
    },
    {
      "midi": 74,
      "time": 22.05,
      "duration": 0.15,
      "velocity": 0.77,
      "hand": "right"
    },
    {
      "midi": 38,
      "time": 22.2,
      "duration": 0.3,
      "velocity": 1,
      "hand": "left"
    },
    {
      "midi": 44,
      "time": 22.2,
      "duration": 0.075,
      "velocity": 0.63,
      "hand": "left"
    },
    {
      "midi": 50,
      "time": 22.2,
      "duration": 0.6,
      "velocity": 0.87,
      "hand": "left"
    },
    {
      "midi": 59,
      "time": 22.2,
      "duration": 0.075,
      "velocity": 0.77,
      "hand": "left"
    },
    {
      "midi": 62,
      "time": 22.2,
      "duration": 0.075,
      "velocity": 0.81,
      "hand": "right"
    },
    {
      "midi": 62,
      "time": 22.2,
      "duration": 1.65,
      "velocity": 0.63,
      "hand": "right"
    },
    {
      "midi": 71,
      "time": 22.2,
      "duration": 0.075,
      "velocity": 0.62,
      "hand": "right"
    },
    {
      "midi": 42,
      "time": 22.5,
      "duration": 0.15,
      "velocity": 0.63,
      "hand": "left"
    },
    {
      "midi": 46,
      "time": 22.5,
      "duration": 0.075,
      "velocity": 0.63,
      "hand": "left"
    },
    {
      "midi": 50,
      "time": 22.5,
      "duration": 0.15,
      "velocity": 0.83,
      "hand": "left"
    },
    {
      "midi": 59,
      "time": 22.5,
      "duration": 0.075,
      "velocity": 1,
      "hand": "left"
    },
    {
      "midi": 62,
      "time": 22.5,
      "duration": 0.075,
      "velocity": 1,
      "hand": "right"
    },
    {
      "midi": 67,
      "time": 22.5,
      "duration": 0.075,
      "velocity": 1,
      "hand": "right"
    },
    {
      "midi": 71,
      "time": 22.5,
      "duration": 0.3,
      "velocity": 0.94,
      "hand": "right"
    },
    {
      "midi": 71,
      "time": 22.5,
      "duration": 0.15,
      "velocity": 0.65,
      "hand": "right"
    },
    {
      "midi": 74,
      "time": 22.5,
      "duration": 0.15,
      "velocity": 0.77,
      "hand": "right"
    },
    {
      "midi": 83,
      "time": 22.5,
      "duration": 0.3,
      "velocity": 0.94,
      "hand": "right"
    },
    {
      "midi": 67,
      "time": 22.65,
      "duration": 0.6,
      "velocity": 0.87,
      "hand": "right"
    },
    {
      "midi": 38,
      "time": 22.8,
      "duration": 0.15,
      "velocity": 0.63,
      "hand": "left"
    },
    {
      "midi": 43,
      "time": 22.8,
      "duration": 0.15,
      "velocity": 0.91,
      "hand": "left"
    },
    {
      "midi": 44,
      "time": 22.8,
      "duration": 0.075,
      "velocity": 0.63,
      "hand": "left"
    },
    {
      "midi": 59,
      "time": 22.8,
      "duration": 0.075,
      "velocity": 0.89,
      "hand": "left"
    },
    {
      "midi": 62,
      "time": 22.8,
      "duration": 0.075,
      "velocity": 0.99,
      "hand": "right"
    },
    {
      "midi": 67,
      "time": 22.8,
      "duration": 0.075,
      "velocity": 0.97,
      "hand": "right"
    },
    {
      "midi": 67,
      "time": 22.8,
      "duration": 1.05,
      "velocity": 1,
      "hand": "right"
    },
    {
      "midi": 79,
      "time": 22.8,
      "duration": 1.05,
      "velocity": 1,
      "hand": "right"
    },
    {
      "midi": 55,
      "time": 22.95,
      "duration": 0.3,
      "velocity": 0.92,
      "hand": "left"
    },
    {
      "midi": 42,
      "time": 23.1,
      "duration": 0.15,
      "velocity": 0.63,
      "hand": "left"
    },
    {
      "midi": 46,
      "time": 23.1,
      "duration": 0.075,
      "velocity": 0.63,
      "hand": "left"
    },
    {
      "midi": 50,
      "time": 23.1,
      "duration": 0.15,
      "velocity": 0.8,
      "hand": "left"
    },
    {
      "midi": 59,
      "time": 23.1,
      "duration": 0.075,
      "velocity": 0.87,
      "hand": "left"
    },
    {
      "midi": 62,
      "time": 23.1,
      "duration": 0.075,
      "velocity": 1,
      "hand": "right"
    },
    {
      "midi": 67,
      "time": 23.1,
      "duration": 0.075,
      "velocity": 0.97,
      "hand": "right"
    },
    {
      "midi": 38,
      "time": 23.4,
      "duration": 0.3,
      "velocity": 1,
      "hand": "left"
    },
    {
      "midi": 44,
      "time": 23.4,
      "duration": 0.15,
      "velocity": 0.63,
      "hand": "left"
    },
    {
      "midi": 54,
      "time": 23.4,
      "duration": 0.15,
      "velocity": 1,
      "hand": "left"
    },
    {
      "midi": 59,
      "time": 23.4,
      "duration": 0.15,
      "velocity": 1,
      "hand": "left"
    },
    {
      "midi": 62,
      "time": 23.4,
      "duration": 0.15,
      "velocity": 1,
      "hand": "right"
    },
    {
      "midi": 67,
      "time": 23.4,
      "duration": 0.15,
      "velocity": 1,
      "hand": "right"
    },
    {
      "midi": 42,
      "time": 23.7,
      "duration": 0.15,
      "velocity": 0.63,
      "hand": "left"
    },
    {
      "midi": 46,
      "time": 23.7,
      "duration": 0.075,
      "velocity": 0.63,
      "hand": "left"
    },
    {
      "midi": 50,
      "time": 23.7,
      "duration": 0.15,
      "velocity": 0.72,
      "hand": "left"
    },
    {
      "midi": 55,
      "time": 23.7,
      "duration": 0.3,
      "velocity": 0.7,
      "hand": "left"
    },
    {
      "midi": 59,
      "time": 23.7,
      "duration": 0.15,
      "velocity": 0.85,
      "hand": "left"
    },
    {
      "midi": 62,
      "time": 23.7,
      "duration": 0.15,
      "velocity": 0.92,
      "hand": "right"
    },
    {
      "midi": 67,
      "time": 23.7,
      "duration": 0.15,
      "velocity": 0.99,
      "hand": "right"
    },
    {
      "midi": 38,
      "time": 24,
      "duration": 0.3,
      "velocity": 0.63,
      "hand": "left"
    },
    {
      "midi": 43,
      "time": 24,
      "duration": 0.3,
      "velocity": 1,
      "hand": "left"
    },
    {
      "midi": 44,
      "time": 24,
      "duration": 0.075,
      "velocity": 0.63,
      "hand": "left"
    },
    {
      "midi": 50,
      "time": 24,
      "duration": 0.6,
      "velocity": 0.97,
      "hand": "left"
    },
    {
      "midi": 59,
      "time": 24,
      "duration": 0.075,
      "velocity": 1,
      "hand": "left"
    },
    {
      "midi": 62,
      "time": 24,
      "duration": 0.075,
      "velocity": 1,
      "hand": "right"
    },
    {
      "midi": 67,
      "time": 24,
      "duration": 0.075,
      "velocity": 1,
      "hand": "right"
    },
    {
      "midi": 67,
      "time": 24,
      "duration": 0.3,
      "velocity": 0.63,
      "hand": "right"
    },
    {
      "midi": 67,
      "time": 24,
      "duration": 0.9,
      "velocity": 0.97,
      "hand": "right"
    },
    {
      "midi": 79,
      "time": 24,
      "duration": 0.9,
      "velocity": 0.97,
      "hand": "right"
    },
    {
      "midi": 42,
      "time": 24.3,
      "duration": 0.15,
      "velocity": 0.63,
      "hand": "left"
    },
    {
      "midi": 46,
      "time": 24.3,
      "duration": 0.075,
      "velocity": 0.63,
      "hand": "left"
    },
    {
      "midi": 50,
      "time": 24.3,
      "duration": 0.15,
      "velocity": 0.87,
      "hand": "left"
    },
    {
      "midi": 59,
      "time": 24.3,
      "duration": 0.075,
      "velocity": 0.99,
      "hand": "left"
    },
    {
      "midi": 59,
      "time": 24.3,
      "duration": 0.45,
      "velocity": 0.63,
      "hand": "left"
    },
    {
      "midi": 62,
      "time": 24.3,
      "duration": 0.075,
      "velocity": 1,
      "hand": "right"
    },
    {
      "midi": 67,
      "time": 24.3,
      "duration": 0.075,
      "velocity": 0.97,
      "hand": "right"
    },
    {
      "midi": 59,
      "time": 24.45,
      "duration": 0.075,
      "velocity": 0.57,
      "hand": "left"
    },
    {
      "midi": 62,
      "time": 24.45,
      "duration": 0.075,
      "velocity": 0.85,
      "hand": "right"
    },
    {
      "midi": 67,
      "time": 24.45,
      "duration": 0.075,
      "velocity": 0.85,
      "hand": "right"
    },
    {
      "midi": 38,
      "time": 24.6,
      "duration": 0.3,
      "velocity": 1,
      "hand": "left"
    },
    {
      "midi": 44,
      "time": 24.6,
      "duration": 0.3,
      "velocity": 0.63,
      "hand": "left"
    },
    {
      "midi": 50,
      "time": 24.6,
      "duration": 0.6,
      "velocity": 0.94,
      "hand": "left"
    },
    {
      "midi": 59,
      "time": 24.6,
      "duration": 0.075,
      "velocity": 0.81,
      "hand": "left"
    },
    {
      "midi": 60,
      "time": 24.6,
      "duration": 0.3,
      "velocity": 0.63,
      "hand": "right"
    },
    {
      "midi": 62,
      "time": 24.6,
      "duration": 0.075,
      "velocity": 0.99,
      "hand": "right"
    },
    {
      "midi": 67,
      "time": 24.6,
      "duration": 0.15,
      "velocity": 0.97,
      "hand": "right"
    },
    {
      "midi": 42,
      "time": 24.9,
      "duration": 0.15,
      "velocity": 0.63,
      "hand": "left"
    },
    {
      "midi": 46,
      "time": 24.9,
      "duration": 0.15,
      "velocity": 0.63,
      "hand": "left"
    },
    {
      "midi": 50,
      "time": 24.9,
      "duration": 0.15,
      "velocity": 0.77,
      "hand": "left"
    },
    {
      "midi": 59,
      "time": 24.9,
      "duration": 0.075,
      "velocity": 0.99,
      "hand": "left"
    },
    {
      "midi": 61,
      "time": 24.9,
      "duration": 0.3,
      "velocity": 0.63,
      "hand": "right"
    },
    {
      "midi": 62,
      "time": 24.9,
      "duration": 0.075,
      "velocity": 1,
      "hand": "right"
    },
    {
      "midi": 67,
      "time": 24.9,
      "duration": 0.075,
      "velocity": 1,
      "hand": "right"
    },
    {
      "midi": 71,
      "time": 24.9,
      "duration": 0.3,
      "velocity": 0.81,
      "hand": "right"
    },
    {
      "midi": 83,
      "time": 24.9,
      "duration": 0.3,
      "velocity": 0.81,
      "hand": "right"
    },
    {
      "midi": 38,
      "time": 25.2,
      "duration": 0.15,
      "velocity": 0.63,
      "hand": "left"
    },
    {
      "midi": 43,
      "time": 25.2,
      "duration": 0.15,
      "velocity": 0.87,
      "hand": "left"
    },
    {
      "midi": 44,
      "time": 25.2,
      "duration": 0.075,
      "velocity": 0.63,
      "hand": "left"
    },
    {
      "midi": 59,
      "time": 25.2,
      "duration": 0.075,
      "velocity": 0.92,
      "hand": "left"
    },
    {
      "midi": 62,
      "time": 25.2,
      "duration": 0.075,
      "velocity": 1,
      "hand": "right"
    },
    {
      "midi": 67,
      "time": 25.2,
      "duration": 0.15,
      "velocity": 0.94,
      "hand": "right"
    },
    {
      "midi": 74,
      "time": 25.2,
      "duration": 0.075,
      "velocity": 0.89,
      "hand": "right"
    },
    {
      "midi": 86,
      "time": 25.2,
      "duration": 0.075,
      "velocity": 0.89,
      "hand": "right"
    },
    {
      "midi": 42,
      "time": 25.5,
      "duration": 0.15,
      "velocity": 0.63,
      "hand": "left"
    },
    {
      "midi": 46,
      "time": 25.5,
      "duration": 0.075,
      "velocity": 0.63,
      "hand": "left"
    },
    {
      "midi": 50,
      "time": 25.5,
      "duration": 0.15,
      "velocity": 0.89,
      "hand": "left"
    },
    {
      "midi": 59,
      "time": 25.5,
      "duration": 0.075,
      "velocity": 0.94,
      "hand": "left"
    },
    {
      "midi": 62,
      "time": 25.5,
      "duration": 0.075,
      "velocity": 1,
      "hand": "right"
    },
    {
      "midi": 67,
      "time": 25.5,
      "duration": 0.075,
      "velocity": 1,
      "hand": "right"
    },
    {
      "midi": 74,
      "time": 25.5,
      "duration": 0.45,
      "velocity": 0.91,
      "hand": "right"
    },
    {
      "midi": 86,
      "time": 25.5,
      "duration": 0.45,
      "velocity": 0.91,
      "hand": "right"
    },
    {
      "midi": 38,
      "time": 25.8,
      "duration": 0.3,
      "velocity": 1,
      "hand": "left"
    },
    {
      "midi": 44,
      "time": 25.8,
      "duration": 0.15,
      "velocity": 0.63,
      "hand": "left"
    },
    {
      "midi": 50,
      "time": 25.8,
      "duration": 0.6,
      "velocity": 0.94,
      "hand": "left"
    },
    {
      "midi": 55,
      "time": 25.8,
      "duration": 0.45,
      "velocity": 0.63,
      "hand": "left"
    },
    {
      "midi": 58,
      "time": 25.8,
      "duration": 0.075,
      "velocity": 0.63,
      "hand": "left"
    },
    {
      "midi": 59,
      "time": 25.8,
      "duration": 0.075,
      "velocity": 1,
      "hand": "left"
    },
    {
      "midi": 62,
      "time": 25.8,
      "duration": 0.075,
      "velocity": 1,
      "hand": "right"
    },
    {
      "midi": 67,
      "time": 25.8,
      "duration": 0.075,
      "velocity": 1,
      "hand": "right"
    },
    {
      "midi": 72,
      "time": 25.8,
      "duration": 0.3,
      "velocity": 0.91,
      "hand": "right"
    },
    {
      "midi": 84,
      "time": 25.8,
      "duration": 0.3,
      "velocity": 0.91,
      "hand": "right"
    },
    {
      "midi": 71,
      "time": 25.95,
      "duration": 0.3,
      "velocity": 0.79,
      "hand": "right"
    },
    {
      "midi": 83,
      "time": 25.95,
      "duration": 0.3,
      "velocity": 0.79,
      "hand": "right"
    },
    {
      "midi": 42,
      "time": 26.1,
      "duration": 0.15,
      "velocity": 0.63,
      "hand": "left"
    },
    {
      "midi": 46,
      "time": 26.1,
      "duration": 0.15,
      "velocity": 0.63,
      "hand": "left"
    },
    {
      "midi": 50,
      "time": 26.1,
      "duration": 0.15,
      "velocity": 1,
      "hand": "left"
    },
    {
      "midi": 59,
      "time": 26.1,
      "duration": 0.15,
      "velocity": 0.97,
      "hand": "left"
    },
    {
      "midi": 62,
      "time": 26.1,
      "duration": 0.075,
      "velocity": 1,
      "hand": "right"
    },
    {
      "midi": 67,
      "time": 26.1,
      "duration": 0.15,
      "velocity": 1,
      "hand": "right"
    },
    {
      "midi": 44,
      "time": 26.25,
      "duration": 0.075,
      "velocity": 0.63,
      "hand": "left"
    },
    {
      "midi": 46,
      "time": 26.25,
      "duration": 0.075,
      "velocity": 0.63,
      "hand": "left"
    },
    {
      "midi": 56,
      "time": 26.25,
      "duration": 0.15,
      "velocity": 0.63,
      "hand": "left"
    },
    {
      "midi": 38,
      "time": 26.4,
      "duration": 0.15,
      "velocity": 0.63,
      "hand": "left"
    },
    {
      "midi": 42,
      "time": 26.4,
      "duration": 0.15,
      "velocity": 1,
      "hand": "left"
    },
    {
      "midi": 44,
      "time": 26.4,
      "duration": 0.075,
      "velocity": 0.63,
      "hand": "left"
    },
    {
      "midi": 57,
      "time": 26.4,
      "duration": 0.075,
      "velocity": 1,
      "hand": "left"
    },
    {
      "midi": 62,
      "time": 26.4,
      "duration": 0.075,
      "velocity": 1,
      "hand": "right"
    },
    {
      "midi": 66,
      "time": 26.4,
      "duration": 0.075,
      "velocity": 1,
      "hand": "right"
    },
    {
      "midi": 69,
      "time": 26.4,
      "duration": 0.075,
      "velocity": 0.81,
      "hand": "right"
    },
    {
      "midi": 81,
      "time": 26.4,
      "duration": 0.075,
      "velocity": 0.81,
      "hand": "right"
    },
    {
      "midi": 42,
      "time": 26.7,
      "duration": 0.15,
      "velocity": 0.63,
      "hand": "left"
    },
    {
      "midi": 46,
      "time": 26.7,
      "duration": 0.075,
      "velocity": 0.63,
      "hand": "left"
    },
    {
      "midi": 50,
      "time": 26.7,
      "duration": 0.075,
      "velocity": 0.99,
      "hand": "left"
    },
    {
      "midi": 54,
      "time": 26.7,
      "duration": 0.075,
      "velocity": 1,
      "hand": "left"
    },
    {
      "midi": 57,
      "time": 26.7,
      "duration": 0.075,
      "velocity": 1,
      "hand": "left"
    },
    {
      "midi": 62,
      "time": 26.7,
      "duration": 0.075,
      "velocity": 1,
      "hand": "right"
    },
    {
      "midi": 62,
      "time": 26.7,
      "duration": 0.15,
      "velocity": 0.63,
      "hand": "right"
    },
    {
      "midi": 66,
      "time": 26.7,
      "duration": 0.075,
      "velocity": 1,
      "hand": "right"
    },
    {
      "midi": 66,
      "time": 26.7,
      "duration": 0.15,
      "velocity": 0.94,
      "hand": "right"
    },
    {
      "midi": 74,
      "time": 26.7,
      "duration": 0.15,
      "velocity": 0.89,
      "hand": "right"
    },
    {
      "midi": 78,
      "time": 26.7,
      "duration": 0.075,
      "velocity": 0.92,
      "hand": "right"
    },
    {
      "midi": 86,
      "time": 26.7,
      "duration": 0.15,
      "velocity": 0.89,
      "hand": "right"
    },
    {
      "midi": 54,
      "time": 26.85,
      "duration": 0.075,
      "velocity": 1,
      "hand": "left"
    },
    {
      "midi": 54,
      "time": 26.85,
      "duration": 0.15,
      "velocity": 1,
      "hand": "left"
    },
    {
      "midi": 57,
      "time": 26.85,
      "duration": 0.075,
      "velocity": 0.81,
      "hand": "left"
    },
    {
      "midi": 61,
      "time": 26.85,
      "duration": 0.15,
      "velocity": 0.63,
      "hand": "right"
    },
    {
      "midi": 62,
      "time": 26.85,
      "duration": 0.075,
      "velocity": 1,
      "hand": "right"
    },
    {
      "midi": 64,
      "time": 26.85,
      "duration": 0.15,
      "velocity": 0.94,
      "hand": "right"
    },
    {
      "midi": 66,
      "time": 26.85,
      "duration": 0.075,
      "velocity": 1,
      "hand": "right"
    },
    {
      "midi": 74,
      "time": 26.85,
      "duration": 0.075,
      "velocity": 0.85,
      "hand": "right"
    },
    {
      "midi": 78,
      "time": 26.85,
      "duration": 0.075,
      "velocity": 0.81,
      "hand": "right"
    },
    {
      "midi": 86,
      "time": 26.85,
      "duration": 0.075,
      "velocity": 0.85,
      "hand": "right"
    },
    {
      "midi": 38,
      "time": 27,
      "duration": 0.3,
      "velocity": 1,
      "hand": "left"
    },
    {
      "midi": 38,
      "time": 27,
      "duration": 0.15,
      "velocity": 0.63,
      "hand": "left"
    },
    {
      "midi": 44,
      "time": 27,
      "duration": 0.075,
      "velocity": 0.63,
      "hand": "left"
    },
    {
      "midi": 60,
      "time": 27,
      "duration": 0.075,
      "velocity": 0.63,
      "hand": "right"
    },
    {
      "midi": 62,
      "time": 27,
      "duration": 0.075,
      "velocity": 0.94,
      "hand": "right"
    },
    {
      "midi": 42,
      "time": 27.3,
      "duration": 0.15,
      "velocity": 0.63,
      "hand": "left"
    },
    {
      "midi": 46,
      "time": 27.3,
      "duration": 0.075,
      "velocity": 0.63,
      "hand": "left"
    },
    {
      "midi": 50,
      "time": 27.3,
      "duration": 0.15,
      "velocity": 0.93,
      "hand": "left"
    },
    {
      "midi": 54,
      "time": 27.3,
      "duration": 0.15,
      "velocity": 1,
      "hand": "left"
    },
    {
      "midi": 57,
      "time": 27.3,
      "duration": 0.075,
      "velocity": 1,
      "hand": "left"
    },
    {
      "midi": 62,
      "time": 27.3,
      "duration": 0.075,
      "velocity": 1,
      "hand": "right"
    },
    {
      "midi": 62,
      "time": 27.3,
      "duration": 0.15,
      "velocity": 0.94,
      "hand": "right"
    },
    {
      "midi": 66,
      "time": 27.3,
      "duration": 0.075,
      "velocity": 1,
      "hand": "right"
    },
    {
      "midi": 66,
      "time": 27.3,
      "duration": 0.15,
      "velocity": 0.63,
      "hand": "right"
    },
    {
      "midi": 74,
      "time": 27.3,
      "duration": 0.075,
      "velocity": 1,
      "hand": "right"
    },
    {
      "midi": 78,
      "time": 27.3,
      "duration": 0.075,
      "velocity": 0.92,
      "hand": "right"
    },
    {
      "midi": 86,
      "time": 27.3,
      "duration": 0.075,
      "velocity": 1,
      "hand": "right"
    },
    {
      "midi": 61,
      "time": 27.45,
      "duration": 0.15,
      "velocity": 0.94,
      "hand": "right"
    },
    {
      "midi": 64,
      "time": 27.45,
      "duration": 0.15,
      "velocity": 0.63,
      "hand": "right"
    },
    {
      "midi": 78,
      "time": 27.45,
      "duration": 0.3,
      "velocity": 0.92,
      "hand": "right"
    },
    {
      "midi": 38,
      "time": 27.6,
      "duration": 0.15,
      "velocity": 0.63,
      "hand": "left"
    },
    {
      "midi": 42,
      "time": 27.6,
      "duration": 0.3,
      "velocity": 0.87,
      "hand": "left"
    },
    {
      "midi": 44,
      "time": 27.6,
      "duration": 0.15,
      "velocity": 0.63,
      "hand": "left"
    },
    {
      "midi": 54,
      "time": 27.6,
      "duration": 0.9,
      "velocity": 1,
      "hand": "left"
    },
    {
      "midi": 57,
      "time": 27.6,
      "duration": 0.075,
      "velocity": 0.99,
      "hand": "left"
    },
    {
      "midi": 60,
      "time": 27.6,
      "duration": 0.6,
      "velocity": 0.94,
      "hand": "right"
    },
    {
      "midi": 62,
      "time": 27.6,
      "duration": 0.075,
      "velocity": 1,
      "hand": "right"
    },
    {
      "midi": 66,
      "time": 27.6,
      "duration": 0.075,
      "velocity": 1,
      "hand": "right"
    },
    {
      "midi": 74,
      "time": 27.6,
      "duration": 0.3,
      "velocity": 0.97,
      "hand": "right"
    },
    {
      "midi": 86,
      "time": 27.6,
      "duration": 0.3,
      "velocity": 0.97,
      "hand": "right"
    },
    {
      "midi": 57,
      "time": 27.75,
      "duration": 0.075,
      "velocity": 0.99,
      "hand": "left"
    },
    {
      "midi": 62,
      "time": 27.75,
      "duration": 0.075,
      "velocity": 1,
      "hand": "right"
    },
    {
      "midi": 66,
      "time": 27.75,
      "duration": 0.075,
      "velocity": 1,
      "hand": "right"
    },
    {
      "midi": 42,
      "time": 27.9,
      "duration": 0.15,
      "velocity": 0.63,
      "hand": "left"
    },
    {
      "midi": 46,
      "time": 27.9,
      "duration": 0.075,
      "velocity": 0.63,
      "hand": "left"
    },
    {
      "midi": 50,
      "time": 27.9,
      "duration": 0.15,
      "velocity": 0.97,
      "hand": "left"
    },
    {
      "midi": 69,
      "time": 27.9,
      "duration": 0.15,
      "velocity": 0.63,
      "hand": "right"
    },
    {
      "midi": 78,
      "time": 27.9,
      "duration": 0.6,
      "velocity": 0.89,
      "hand": "right"
    },
    {
      "midi": 90,
      "time": 27.9,
      "duration": 0.6,
      "velocity": 0.89,
      "hand": "right"
    },
    {
      "midi": 67,
      "time": 28.05,
      "duration": 0.15,
      "velocity": 0.63,
      "hand": "right"
    },
    {
      "midi": 38,
      "time": 28.2,
      "duration": 0.3,
      "velocity": 0.63,
      "hand": "left"
    },
    {
      "midi": 44,
      "time": 28.2,
      "duration": 0.15,
      "velocity": 0.63,
      "hand": "left"
    },
    {
      "midi": 45,
      "time": 28.2,
      "duration": 0.3,
      "velocity": 1,
      "hand": "left"
    },
    {
      "midi": 57,
      "time": 28.2,
      "duration": 0.075,
      "velocity": 1,
      "hand": "left"
    },
    {
      "midi": 62,
      "time": 28.2,
      "duration": 0.075,
      "velocity": 1,
      "hand": "right"
    },
    {
      "midi": 66,
      "time": 28.2,
      "duration": 0.075,
      "velocity": 1,
      "hand": "right"
    },
    {
      "midi": 42,
      "time": 28.5,
      "duration": 0.15,
      "velocity": 0.63,
      "hand": "left"
    },
    {
      "midi": 46,
      "time": 28.5,
      "duration": 0.075,
      "velocity": 0.63,
      "hand": "left"
    },
    {
      "midi": 50,
      "time": 28.5,
      "duration": 0.15,
      "velocity": 0.79,
      "hand": "left"
    },
    {
      "midi": 57,
      "time": 28.5,
      "duration": 0.075,
      "velocity": 1,
      "hand": "left"
    },
    {
      "midi": 57,
      "time": 28.5,
      "duration": 0.3,
      "velocity": 1,
      "hand": "left"
    },
    {
      "midi": 62,
      "time": 28.5,
      "duration": 0.075,
      "velocity": 1,
      "hand": "right"
    },
    {
      "midi": 66,
      "time": 28.5,
      "duration": 0.15,
      "velocity": 1,
      "hand": "right"
    },
    {
      "midi": 76,
      "time": 28.5,
      "duration": 0.3,
      "velocity": 0.85,
      "hand": "right"
    },
    {
      "midi": 88,
      "time": 28.5,
      "duration": 0.3,
      "velocity": 0.85,
      "hand": "right"
    },
    {
      "midi": 64,
      "time": 28.65,
      "duration": 0.15,
      "velocity": 0.63,
      "hand": "right"
    },
    {
      "midi": 38,
      "time": 28.8,
      "duration": 0.3,
      "velocity": 1,
      "hand": "left"
    },
    {
      "midi": 38,
      "time": 28.8,
      "duration": 0.075,
      "velocity": 0.63,
      "hand": "left"
    },
    {
      "midi": 44,
      "time": 28.8,
      "duration": 0.075,
      "velocity": 0.63,
      "hand": "left"
    },
    {
      "midi": 50,
      "time": 28.8,
      "duration": 0.6,
      "velocity": 0.94,
      "hand": "left"
    },
    {
      "midi": 62,
      "time": 28.8,
      "duration": 0.15,
      "velocity": 1,
      "hand": "right"
    },
    {
      "midi": 62,
      "time": 28.8,
      "duration": 0.3,
      "velocity": 0.63,
      "hand": "right"
    },
    {
      "midi": 66,
      "time": 28.8,
      "duration": 0.15,
      "velocity": 0.97,
      "hand": "right"
    },
    {
      "midi": 72,
      "time": 28.8,
      "duration": 0.075,
      "velocity": 0.98,
      "hand": "right"
    },
    {
      "midi": 74,
      "time": 28.8,
      "duration": 0.9,
      "velocity": 0.83,
      "hand": "right"
    },
    {
      "midi": 86,
      "time": 28.8,
      "duration": 0.9,
      "velocity": 0.83,
      "hand": "right"
    },
    {
      "midi": 42,
      "time": 29.1,
      "duration": 0.15,
      "velocity": 0.63,
      "hand": "left"
    },
    {
      "midi": 44,
      "time": 29.1,
      "duration": 0.075,
      "velocity": 0.63,
      "hand": "left"
    },
    {
      "midi": 46,
      "time": 29.1,
      "duration": 0.075,
      "velocity": 0.63,
      "hand": "left"
    },
    {
      "midi": 50,
      "time": 29.1,
      "duration": 0.15,
      "velocity": 0.89,
      "hand": "left"
    },
    {
      "midi": 62,
      "time": 29.1,
      "duration": 0.075,
      "velocity": 0.92,
      "hand": "right"
    },
    {
      "midi": 66,
      "time": 29.1,
      "duration": 0.075,
      "velocity": 0.94,
      "hand": "right"
    },
    {
      "midi": 66,
      "time": 29.1,
      "duration": 0.3,
      "velocity": 0.63,
      "hand": "right"
    },
    {
      "midi": 72,
      "time": 29.1,
      "duration": 0.075,
      "velocity": 0.94,
      "hand": "right"
    },
    {
      "midi": 44,
      "time": 29.25,
      "duration": 0.15,
      "velocity": 0.63,
      "hand": "left"
    },
    {
      "midi": 46,
      "time": 29.25,
      "duration": 0.15,
      "velocity": 0.63,
      "hand": "left"
    },
    {
      "midi": 62,
      "time": 29.25,
      "duration": 0.075,
      "velocity": 0.65,
      "hand": "right"
    },
    {
      "midi": 66,
      "time": 29.25,
      "duration": 0.15,
      "velocity": 0.92,
      "hand": "right"
    },
    {
      "midi": 72,
      "time": 29.25,
      "duration": 0.075,
      "velocity": 0.84,
      "hand": "right"
    },
    {
      "midi": 38,
      "time": 29.4,
      "duration": 0.15,
      "velocity": 0.63,
      "hand": "left"
    },
    {
      "midi": 40,
      "time": 29.4,
      "duration": 0.3,
      "velocity": 1,
      "hand": "left"
    },
    {
      "midi": 46,
      "time": 29.4,
      "duration": 0.075,
      "velocity": 0.63,
      "hand": "left"
    },
    {
      "midi": 52,
      "time": 29.4,
      "duration": 0.3,
      "velocity": 0.94,
      "hand": "left"
    },
    {
      "midi": 62,
      "time": 29.4,
      "duration": 0.075,
      "velocity": 0.77,
      "hand": "right"
    },
    {
      "midi": 64,
      "time": 29.4,
      "duration": 0.3,
      "velocity": 0.63,
      "hand": "right"
    },
    {
      "midi": 66,
      "time": 29.4,
      "duration": 0.075,
      "velocity": 0.92,
      "hand": "right"
    },
    {
      "midi": 72,
      "time": 29.4,
      "duration": 0.075,
      "velocity": 0.91,
      "hand": "right"
    },
    {
      "midi": 42,
      "time": 29.7,
      "duration": 0.15,
      "velocity": 0.63,
      "hand": "left"
    },
    {
      "midi": 46,
      "time": 29.7,
      "duration": 0.075,
      "velocity": 0.63,
      "hand": "left"
    },
    {
      "midi": 50,
      "time": 29.7,
      "duration": 0.15,
      "velocity": 0.81,
      "hand": "left"
    },
    {
      "midi": 53,
      "time": 29.7,
      "duration": 0.3,
      "velocity": 1,
      "hand": "left"
    },
    {
      "midi": 62,
      "time": 29.7,
      "duration": 0.075,
      "velocity": 1,
      "hand": "right"
    },
    {
      "midi": 62,
      "time": 29.7,
      "duration": 0.3,
      "velocity": 0.63,
      "hand": "right"
    },
    {
      "midi": 65,
      "time": 29.7,
      "duration": 0.075,
      "velocity": 0.74,
      "hand": "right"
    },
    {
      "midi": 66,
      "time": 29.7,
      "duration": 0.075,
      "velocity": 1,
      "hand": "right"
    },
    {
      "midi": 72,
      "time": 29.7,
      "duration": 0.075,
      "velocity": 1,
      "hand": "right"
    },
    {
      "midi": 72,
      "time": 29.7,
      "duration": 0.3,
      "velocity": 0.94,
      "hand": "right"
    },
    {
      "midi": 84,
      "time": 29.7,
      "duration": 0.3,
      "velocity": 0.94,
      "hand": "right"
    },
    {
      "midi": 54,
      "time": 29.85,
      "duration": 1.05,
      "velocity": 0.98,
      "hand": "left"
    },
    {
      "midi": 38,
      "time": 30,
      "duration": 0.15,
      "velocity": 0.63,
      "hand": "left"
    },
    {
      "midi": 41,
      "time": 30,
      "duration": 0.3,
      "velocity": 1,
      "hand": "left"
    },
    {
      "midi": 44,
      "time": 30,
      "duration": 0.075,
      "velocity": 0.63,
      "hand": "left"
    },
    {
      "midi": 60,
      "time": 30,
      "duration": 1.05,
      "velocity": 0.63,
      "hand": "right"
    },
    {
      "midi": 62,
      "time": 30,
      "duration": 0.075,
      "velocity": 0.68,
      "hand": "right"
    },
    {
      "midi": 66,
      "time": 30,
      "duration": 0.15,
      "velocity": 0.89,
      "hand": "right"
    },
    {
      "midi": 71,
      "time": 30,
      "duration": 0.6,
      "velocity": 0.87,
      "hand": "right"
    },
    {
      "midi": 72,
      "time": 30,
      "duration": 0.075,
      "velocity": 0.87,
      "hand": "right"
    },
    {
      "midi": 83,
      "time": 30,
      "duration": 0.6,
      "velocity": 0.87,
      "hand": "right"
    },
    {
      "midi": 42,
      "time": 30.3,
      "duration": 0.15,
      "velocity": 0.63,
      "hand": "left"
    },
    {
      "midi": 46,
      "time": 30.3,
      "duration": 0.075,
      "velocity": 0.63,
      "hand": "left"
    },
    {
      "midi": 50,
      "time": 30.3,
      "duration": 0.15,
      "velocity": 0.93,
      "hand": "left"
    },
    {
      "midi": 62,
      "time": 30.3,
      "duration": 0.075,
      "velocity": 0.65,
      "hand": "right"
    },
    {
      "midi": 66,
      "time": 30.3,
      "duration": 0.075,
      "velocity": 0.89,
      "hand": "right"
    },
    {
      "midi": 72,
      "time": 30.3,
      "duration": 0.075,
      "velocity": 0.82,
      "hand": "right"
    },
    {
      "midi": 38,
      "time": 30.6,
      "duration": 0.3,
      "velocity": 0.63,
      "hand": "left"
    },
    {
      "midi": 42,
      "time": 30.6,
      "duration": 0.3,
      "velocity": 1,
      "hand": "left"
    },
    {
      "midi": 44,
      "time": 30.6,
      "duration": 0.15,
      "velocity": 0.63,
      "hand": "left"
    },
    {
      "midi": 62,
      "time": 30.6,
      "duration": 0.075,
      "velocity": 1,
      "hand": "right"
    },
    {
      "midi": 66,
      "time": 30.6,
      "duration": 0.15,
      "velocity": 1,
      "hand": "right"
    },
    {
      "midi": 69,
      "time": 30.6,
      "duration": 0.45,
      "velocity": 1,
      "hand": "right"
    },
    {
      "midi": 72,
      "time": 30.6,
      "duration": 0.15,
      "velocity": 1,
      "hand": "right"
    },
    {
      "midi": 81,
      "time": 30.6,
      "duration": 0.45,
      "velocity": 1,
      "hand": "right"
    },
    {
      "midi": 42,
      "time": 30.9,
      "duration": 0.3,
      "velocity": 0.63,
      "hand": "left"
    },
    {
      "midi": 46,
      "time": 30.9,
      "duration": 0.075,
      "velocity": 0.63,
      "hand": "left"
    },
    {
      "midi": 57,
      "time": 30.9,
      "duration": 0.15,
      "velocity": 0.97,
      "hand": "left"
    },
    {
      "midi": 62,
      "time": 30.9,
      "duration": 0.075,
      "velocity": 0.99,
      "hand": "right"
    },
    {
      "midi": 66,
      "time": 30.9,
      "duration": 0.075,
      "velocity": 1,
      "hand": "right"
    },
    {
      "midi": 72,
      "time": 30.9,
      "duration": 0.075,
      "velocity": 0.98,
      "hand": "right"
    },
    {
      "midi": 76,
      "time": 31.05,
      "duration": 0.45,
      "velocity": 0.87,
      "hand": "right"
    },
    {
      "midi": 88,
      "time": 31.05,
      "duration": 0.45,
      "velocity": 0.87,
      "hand": "right"
    },
    {
      "midi": 38,
      "time": 31.2,
      "duration": 0.075,
      "velocity": 0.63,
      "hand": "left"
    },
    {
      "midi": 43,
      "time": 31.2,
      "duration": 0.3,
      "velocity": 1,
      "hand": "left"
    },
    {
      "midi": 44,
      "time": 31.2,
      "duration": 0.075,
      "velocity": 0.63,
      "hand": "left"
    },
    {
      "midi": 59,
      "time": 31.2,
      "duration": 0.9,
      "velocity": 0.94,
      "hand": "left"
    },
    {
      "midi": 62,
      "time": 31.2,
      "duration": 0.075,
      "velocity": 1,
      "hand": "right"
    },
    {
      "midi": 67,
      "time": 31.2,
      "duration": 0.075,
      "velocity": 1,
      "hand": "right"
    },
    {
      "midi": 71,
      "time": 31.2,
      "duration": 0.075,
      "velocity": 1,
      "hand": "right"
    },
    {
      "midi": 42,
      "time": 31.5,
      "duration": 0.15,
      "velocity": 0.63,
      "hand": "left"
    },
    {
      "midi": 46,
      "time": 31.5,
      "duration": 0.075,
      "velocity": 0.63,
      "hand": "left"
    },
    {
      "midi": 55,
      "time": 31.5,
      "duration": 0.075,
      "velocity": 1,
      "hand": "left"
    },
    {
      "midi": 62,
      "time": 31.5,
      "duration": 0.075,
      "velocity": 0.94,
      "hand": "right"
    },
    {
      "midi": 62,
      "time": 31.5,
      "duration": 0.3,
      "velocity": 0.63,
      "hand": "right"
    },
    {
      "midi": 67,
      "time": 31.5,
      "duration": 0.075,
      "velocity": 1,
      "hand": "right"
    },
    {
      "midi": 71,
      "time": 31.5,
      "duration": 0.075,
      "velocity": 0.99,
      "hand": "right"
    },
    {
      "midi": 74,
      "time": 31.5,
      "duration": 0.15,
      "velocity": 0.94,
      "hand": "right"
    },
    {
      "midi": 86,
      "time": 31.5,
      "duration": 0.15,
      "velocity": 0.94,
      "hand": "right"
    },
    {
      "midi": 62,
      "time": 31.65,
      "duration": 0.075,
      "velocity": 0.79,
      "hand": "right"
    },
    {
      "midi": 67,
      "time": 31.65,
      "duration": 0.075,
      "velocity": 1,
      "hand": "right"
    },
    {
      "midi": 71,
      "time": 31.65,
      "duration": 0.075,
      "velocity": 0.89,
      "hand": "right"
    },
    {
      "midi": 38,
      "time": 31.8,
      "duration": 0.3,
      "velocity": 1,
      "hand": "left"
    },
    {
      "midi": 38,
      "time": 31.8,
      "duration": 0.15,
      "velocity": 0.63,
      "hand": "left"
    },
    {
      "midi": 44,
      "time": 31.8,
      "duration": 0.075,
      "velocity": 0.63,
      "hand": "left"
    },
    {
      "midi": 67,
      "time": 31.8,
      "duration": 0.3,
      "velocity": 0.63,
      "hand": "right"
    },
    {
      "midi": 67,
      "time": 31.8,
      "duration": 0.6,
      "velocity": 1,
      "hand": "right"
    },
    {
      "midi": 42,
      "time": 32.1,
      "duration": 0.15,
      "velocity": 0.63,
      "hand": "left"
    },
    {
      "midi": 46,
      "time": 32.1,
      "duration": 0.075,
      "velocity": 0.63,
      "hand": "left"
    },
    {
      "midi": 50,
      "time": 32.1,
      "duration": 0.15,
      "velocity": 0.99,
      "hand": "left"
    },
    {
      "midi": 57,
      "time": 32.1,
      "duration": 0.3,
      "velocity": 0.89,
      "hand": "left"
    },
    {
      "midi": 59,
      "time": 32.1,
      "duration": 0.3,
      "velocity": 0.63,
      "hand": "left"
    },
    {
      "midi": 62,
      "time": 32.1,
      "duration": 0.075,
      "velocity": 1,
      "hand": "right"
    },
    {
      "midi": 67,
      "time": 32.1,
      "duration": 0.075,
      "velocity": 1,
      "hand": "right"
    },
    {
      "midi": 71,
      "time": 32.1,
      "duration": 0.075,
      "velocity": 1,
      "hand": "right"
    },
    {
      "midi": 71,
      "time": 32.1,
      "duration": 0.3,
      "velocity": 0.99,
      "hand": "right"
    },
    {
      "midi": 83,
      "time": 32.1,
      "duration": 0.3,
      "velocity": 0.99,
      "hand": "right"
    },
    {
      "midi": 38,
      "time": 32.4,
      "duration": 0.15,
      "velocity": 0.63,
      "hand": "left"
    },
    {
      "midi": 43,
      "time": 32.4,
      "duration": 0.3,
      "velocity": 1,
      "hand": "left"
    },
    {
      "midi": 44,
      "time": 32.4,
      "duration": 0.15,
      "velocity": 0.63,
      "hand": "left"
    },
    {
      "midi": 55,
      "time": 32.4,
      "duration": 0.6,
      "velocity": 1,
      "hand": "left"
    },
    {
      "midi": 62,
      "time": 32.4,
      "duration": 0.15,
      "velocity": 0.89,
      "hand": "right"
    },
    {
      "midi": 64,
      "time": 32.4,
      "duration": 0.6,
      "velocity": 1,
      "hand": "right"
    },
    {
      "midi": 67,
      "time": 32.4,
      "duration": 0.075,
      "velocity": 1,
      "hand": "right"
    },
    {
      "midi": 67,
      "time": 32.4,
      "duration": 0.6,
      "velocity": 0.77,
      "hand": "right"
    },
    {
      "midi": 71,
      "time": 32.4,
      "duration": 0.075,
      "velocity": 0.94,
      "hand": "right"
    },
    {
      "midi": 79,
      "time": 32.4,
      "duration": 0.6,
      "velocity": 0.77,
      "hand": "right"
    },
    {
      "midi": 42,
      "time": 32.7,
      "duration": 0.15,
      "velocity": 0.63,
      "hand": "left"
    },
    {
      "midi": 46,
      "time": 32.7,
      "duration": 0.075,
      "velocity": 0.63,
      "hand": "left"
    },
    {
      "midi": 50,
      "time": 32.7,
      "duration": 0.15,
      "velocity": 0.99,
      "hand": "left"
    },
    {
      "midi": 62,
      "time": 32.7,
      "duration": 0.075,
      "velocity": 0.92,
      "hand": "right"
    },
    {
      "midi": 67,
      "time": 32.7,
      "duration": 0.075,
      "velocity": 1,
      "hand": "right"
    },
    {
      "midi": 71,
      "time": 32.7,
      "duration": 0.075,
      "velocity": 0.97,
      "hand": "right"
    },
    {
      "midi": 38,
      "time": 33,
      "duration": 0.3,
      "velocity": 0.63,
      "hand": "left"
    },
    {
      "midi": 44,
      "time": 33,
      "duration": 0.3,
      "velocity": 1,
      "hand": "left"
    },
    {
      "midi": 44,
      "time": 33,
      "duration": 0.15,
      "velocity": 0.63,
      "hand": "left"
    },
    {
      "midi": 50,
      "time": 33,
      "duration": 0.3,
      "velocity": 1,
      "hand": "left"
    },
    {
      "midi": 62,
      "time": 33,
      "duration": 0.15,
      "velocity": 1,
      "hand": "right"
    },
    {
      "midi": 62,
      "time": 33,
      "duration": 0.3,
      "velocity": 1,
      "hand": "right"
    },
    {
      "midi": 64,
      "time": 33,
      "duration": 0.3,
      "velocity": 0.63,
      "hand": "right"
    },
    {
      "midi": 67,
      "time": 33,
      "duration": 0.15,
      "velocity": 1,
      "hand": "right"
    },
    {
      "midi": 71,
      "time": 33,
      "duration": 0.15,
      "velocity": 1,
      "hand": "right"
    },
    {
      "midi": 71,
      "time": 33,
      "duration": 0.6,
      "velocity": 1,
      "hand": "right"
    },
    {
      "midi": 83,
      "time": 33,
      "duration": 0.6,
      "velocity": 1,
      "hand": "right"
    },
    {
      "midi": 42,
      "time": 33.3,
      "duration": 0.15,
      "velocity": 0.63,
      "hand": "left"
    },
    {
      "midi": 46,
      "time": 33.3,
      "duration": 0.15,
      "velocity": 0.63,
      "hand": "left"
    },
    {
      "midi": 52,
      "time": 33.3,
      "duration": 0.15,
      "velocity": 0.72,
      "hand": "left"
    },
    {
      "midi": 52,
      "time": 33.3,
      "duration": 0.45,
      "velocity": 1,
      "hand": "left"
    },
    {
      "midi": 61,
      "time": 33.3,
      "duration": 0.3,
      "velocity": 1,
      "hand": "right"
    },
    {
      "midi": 62,
      "time": 33.3,
      "duration": 0.15,
      "velocity": 1,
      "hand": "right"
    },
    {
      "midi": 62,
      "time": 33.3,
      "duration": 0.3,
      "velocity": 0.63,
      "hand": "right"
    },
    {
      "midi": 67,
      "time": 33.3,
      "duration": 0.15,
      "velocity": 1,
      "hand": "right"
    },
    {
      "midi": 71,
      "time": 33.3,
      "duration": 0.15,
      "velocity": 1,
      "hand": "right"
    },
    {
      "midi": 38,
      "time": 33.6,
      "duration": 0.075,
      "velocity": 0.63,
      "hand": "left"
    },
    {
      "midi": 44,
      "time": 33.6,
      "duration": 0.075,
      "velocity": 0.63,
      "hand": "left"
    },
    {
      "midi": 45,
      "time": 33.6,
      "duration": 0.15,
      "velocity": 1,
      "hand": "left"
    },
    {
      "midi": 54,
      "time": 33.6,
      "duration": 1.5,
      "velocity": 1,
      "hand": "left"
    },
    {
      "midi": 60,
      "time": 33.6,
      "duration": 0.075,
      "velocity": 0.63,
      "hand": "right"
    },
    {
      "midi": 60,
      "time": 33.6,
      "duration": 0.15,
      "velocity": 1,
      "hand": "right"
    },
    {
      "midi": 62,
      "time": 33.6,
      "duration": 0.15,
      "velocity": 0.79,
      "hand": "right"
    },
    {
      "midi": 66,
      "time": 33.6,
      "duration": 0.15,
      "velocity": 0.94,
      "hand": "right"
    },
    {
      "midi": 72,
      "time": 33.6,
      "duration": 0.15,
      "velocity": 0.96,
      "hand": "right"
    },
    {
      "midi": 74,
      "time": 33.6,
      "duration": 0.075,
      "velocity": 0.94,
      "hand": "right"
    },
    {
      "midi": 86,
      "time": 33.6,
      "duration": 0.075,
      "velocity": 0.94,
      "hand": "right"
    },
    {
      "midi": 42,
      "time": 33.9,
      "duration": 0.15,
      "velocity": 0.63,
      "hand": "left"
    },
    {
      "midi": 46,
      "time": 33.9,
      "duration": 0.15,
      "velocity": 0.63,
      "hand": "left"
    },
    {
      "midi": 54,
      "time": 33.9,
      "duration": 0.15,
      "velocity": 1,
      "hand": "left"
    },
    {
      "midi": 54,
      "time": 33.9,
      "duration": 0.6,
      "velocity": 0.63,
      "hand": "left"
    },
    {
      "midi": 62,
      "time": 33.9,
      "duration": 0.075,
      "velocity": 0.87,
      "hand": "right"
    },
    {
      "midi": 66,
      "time": 33.9,
      "duration": 0.075,
      "velocity": 0.81,
      "hand": "right"
    },
    {
      "midi": 72,
      "time": 33.9,
      "duration": 0.075,
      "velocity": 0.94,
      "hand": "right"
    },
    {
      "midi": 74,
      "time": 33.9,
      "duration": 0.6,
      "velocity": 1,
      "hand": "right"
    },
    {
      "midi": 74,
      "time": 33.9,
      "duration": 0.15,
      "velocity": 0.68,
      "hand": "right"
    },
    {
      "midi": 78,
      "time": 33.9,
      "duration": 0.15,
      "velocity": 0.59,
      "hand": "right"
    },
    {
      "midi": 86,
      "time": 33.9,
      "duration": 0.6,
      "velocity": 1,
      "hand": "right"
    },
    {
      "midi": 62,
      "time": 34.05,
      "duration": 0.075,
      "velocity": 0.81,
      "hand": "right"
    },
    {
      "midi": 66,
      "time": 34.05,
      "duration": 0.15,
      "velocity": 0.94,
      "hand": "right"
    },
    {
      "midi": 72,
      "time": 34.05,
      "duration": 0.075,
      "velocity": 0.96,
      "hand": "right"
    },
    {
      "midi": 72,
      "time": 34.05,
      "duration": 0.15,
      "velocity": 0.91,
      "hand": "right"
    },
    {
      "midi": 72,
      "time": 34.05,
      "duration": 0.075,
      "velocity": 0.8,
      "hand": "right"
    },
    {
      "midi": 38,
      "time": 34.2,
      "duration": 0.3,
      "velocity": 1,
      "hand": "left"
    },
    {
      "midi": 44,
      "time": 34.2,
      "duration": 0.075,
      "velocity": 0.63,
      "hand": "left"
    },
    {
      "midi": 66,
      "time": 34.2,
      "duration": 0.3,
      "velocity": 1,
      "hand": "right"
    },
    {
      "midi": 72,
      "time": 34.35,
      "duration": 0.075,
      "velocity": 0.98,
      "hand": "right"
    },
    {
      "midi": 84,
      "time": 34.35,
      "duration": 0.075,
      "velocity": 0.98,
      "hand": "right"
    },
    {
      "midi": 42,
      "time": 34.5,
      "duration": 0.3,
      "velocity": 0.63,
      "hand": "left"
    },
    {
      "midi": 46,
      "time": 34.5,
      "duration": 0.075,
      "velocity": 0.63,
      "hand": "left"
    },
    {
      "midi": 50,
      "time": 34.5,
      "duration": 0.15,
      "velocity": 0.99,
      "hand": "left"
    },
    {
      "midi": 52,
      "time": 34.5,
      "duration": 0.3,
      "velocity": 0.63,
      "hand": "left"
    },
    {
      "midi": 62,
      "time": 34.5,
      "duration": 0.075,
      "velocity": 0.94,
      "hand": "right"
    },
    {
      "midi": 64,
      "time": 34.5,
      "duration": 0.3,
      "velocity": 0.91,
      "hand": "right"
    },
    {
      "midi": 66,
      "time": 34.5,
      "duration": 0.15,
      "velocity": 0.97,
      "hand": "right"
    },
    {
      "midi": 72,
      "time": 34.5,
      "duration": 0.15,
      "velocity": 0.94,
      "hand": "right"
    },
    {
      "midi": 72,
      "time": 34.5,
      "duration": 0.3,
      "velocity": 0.79,
      "hand": "right"
    },
    {
      "midi": 74,
      "time": 34.5,
      "duration": 0.15,
      "velocity": 0.83,
      "hand": "right"
    },
    {
      "midi": 84,
      "time": 34.5,
      "duration": 0.3,
      "velocity": 0.79,
      "hand": "right"
    },
    {
      "midi": 86,
      "time": 34.5,
      "duration": 0.15,
      "velocity": 0.83,
      "hand": "right"
    },
    {
      "midi": 38,
      "time": 34.8,
      "duration": 0.3,
      "velocity": 0.63,
      "hand": "left"
    },
    {
      "midi": 42,
      "time": 34.8,
      "duration": 0.3,
      "velocity": 1,
      "hand": "left"
    },
    {
      "midi": 44,
      "time": 34.8,
      "duration": 0.15,
      "velocity": 0.63,
      "hand": "left"
    },
    {
      "midi": 50,
      "time": 34.8,
      "duration": 0.3,
      "velocity": 0.63,
      "hand": "left"
    },
    {
      "midi": 62,
      "time": 34.8,
      "duration": 0.075,
      "velocity": 0.79,
      "hand": "right"
    },
    {
      "midi": 62,
      "time": 34.8,
      "duration": 0.45,
      "velocity": 1,
      "hand": "right"
    },
    {
      "midi": 66,
      "time": 34.8,
      "duration": 0.15,
      "velocity": 0.92,
      "hand": "right"
    },
    {
      "midi": 71,
      "time": 34.8,
      "duration": 0.6,
      "velocity": 0.79,
      "hand": "right"
    },
    {
      "midi": 72,
      "time": 34.8,
      "duration": 0.15,
      "velocity": 0.87,
      "hand": "right"
    },
    {
      "midi": 83,
      "time": 34.8,
      "duration": 0.6,
      "velocity": 0.79,
      "hand": "right"
    },
    {
      "midi": 42,
      "time": 35.1,
      "duration": 0.15,
      "velocity": 0.63,
      "hand": "left"
    },
    {
      "midi": 46,
      "time": 35.1,
      "duration": 0.075,
      "velocity": 0.63,
      "hand": "left"
    },
    {
      "midi": 57,
      "time": 35.1,
      "duration": 0.075,
      "velocity": 1,
      "hand": "left"
    },
    {
      "midi": 57,
      "time": 35.1,
      "duration": 0.3,
      "velocity": 0.94,
      "hand": "left"
    },
    {
      "midi": 60,
      "time": 35.1,
      "duration": 0.3,
      "velocity": 0.63,
      "hand": "right"
    },
    {
      "midi": 62,
      "time": 35.1,
      "duration": 0.075,
      "velocity": 0.61,
      "hand": "right"
    },
    {
      "midi": 66,
      "time": 35.1,
      "duration": 0.15,
      "velocity": 0.94,
      "hand": "right"
    },
    {
      "midi": 72,
      "time": 35.1,
      "duration": 0.075,
      "velocity": 0.91,
      "hand": "right"
    },
    {
      "midi": 72,
      "time": 35.1,
      "duration": 0.15,
      "velocity": 0.83,
      "hand": "right"
    },
    {
      "midi": 74,
      "time": 35.1,
      "duration": 0.15,
      "velocity": 0.81,
      "hand": "right"
    },
    {
      "midi": 38,
      "time": 35.4,
      "duration": 0.15,
      "velocity": 1,
      "hand": "left"
    },
    {
      "midi": 38,
      "time": 35.4,
      "duration": 0.3,
      "velocity": 0.63,
      "hand": "left"
    },
    {
      "midi": 44,
      "time": 35.4,
      "duration": 0.15,
      "velocity": 0.63,
      "hand": "left"
    },
    {
      "midi": 50,
      "time": 35.4,
      "duration": 0.3,
      "velocity": 0.97,
      "hand": "left"
    },
    {
      "midi": 59,
      "time": 35.4,
      "duration": 0.15,
      "velocity": 0.63,
      "hand": "left"
    },
    {
      "midi": 62,
      "time": 35.4,
      "duration": 0.15,
      "velocity": 1,
      "hand": "right"
    },
    {
      "midi": 66,
      "time": 35.4,
      "duration": 0.15,
      "velocity": 1,
      "hand": "right"
    },
    {
      "midi": 66,
      "time": 35.4,
      "duration": 0.075,
      "velocity": 0.89,
      "hand": "right"
    },
    {
      "midi": 66,
      "time": 35.4,
      "duration": 0.6,
      "velocity": 1,
      "hand": "right"
    },
    {
      "midi": 69,
      "time": 35.4,
      "duration": 0.6,
      "velocity": 0.97,
      "hand": "right"
    },
    {
      "midi": 72,
      "time": 35.4,
      "duration": 0.15,
      "velocity": 1,
      "hand": "right"
    },
    {
      "midi": 81,
      "time": 35.4,
      "duration": 0.6,
      "velocity": 0.97,
      "hand": "right"
    },
    {
      "midi": 42,
      "time": 35.7,
      "duration": 0.3,
      "velocity": 0.63,
      "hand": "left"
    },
    {
      "midi": 46,
      "time": 35.7,
      "duration": 0.15,
      "velocity": 0.63,
      "hand": "left"
    },
    {
      "midi": 48,
      "time": 35.7,
      "duration": 0.3,
      "velocity": 0.77,
      "hand": "left"
    },
    {
      "midi": 50,
      "time": 35.7,
      "duration": 0.15,
      "velocity": 1,
      "hand": "left"
    },
    {
      "midi": 57,
      "time": 35.7,
      "duration": 0.3,
      "velocity": 0.63,
      "hand": "left"
    },
    {
      "midi": 62,
      "time": 35.7,
      "duration": 0.15,
      "velocity": 0.85,
      "hand": "right"
    },
    {
      "midi": 66,
      "time": 35.7,
      "duration": 0.075,
      "velocity": 0.83,
      "hand": "right"
    },
    {
      "midi": 72,
      "time": 35.7,
      "duration": 0.15,
      "velocity": 0.84,
      "hand": "right"
    },
    {
      "midi": 67,
      "time": 35.85,
      "duration": 0.6,
      "velocity": 0.92,
      "hand": "right"
    },
    {
      "midi": 79,
      "time": 35.85,
      "duration": 0.6,
      "velocity": 0.92,
      "hand": "right"
    },
    {
      "midi": 38,
      "time": 36,
      "duration": 0.075,
      "velocity": 0.63,
      "hand": "left"
    },
    {
      "midi": 43,
      "time": 36,
      "duration": 0.15,
      "velocity": 1,
      "hand": "left"
    },
    {
      "midi": 44,
      "time": 36,
      "duration": 0.075,
      "velocity": 0.63,
      "hand": "left"
    },
    {
      "midi": 47,
      "time": 36,
      "duration": 0.075,
      "velocity": 1,
      "hand": "left"
    },
    {
      "midi": 55,
      "time": 36,
      "duration": 0.075,
      "velocity": 0.63,
      "hand": "left"
    },
    {
      "midi": 62,
      "time": 36,
      "duration": 0.075,
      "velocity": 1,
      "hand": "right"
    },
    {
      "midi": 67,
      "time": 36,
      "duration": 0.075,
      "velocity": 1,
      "hand": "right"
    },
    {
      "midi": 69,
      "time": 36,
      "duration": 0.075,
      "velocity": 1,
      "hand": "right"
    },
    {
      "midi": 71,
      "time": 36,
      "duration": 0.075,
      "velocity": 0.94,
      "hand": "right"
    },
    {
      "midi": 42,
      "time": 36.3,
      "duration": 0.15,
      "velocity": 0.63,
      "hand": "left"
    },
    {
      "midi": 44,
      "time": 36.3,
      "duration": 0.075,
      "velocity": 0.63,
      "hand": "left"
    },
    {
      "midi": 46,
      "time": 36.3,
      "duration": 0.075,
      "velocity": 0.63,
      "hand": "left"
    },
    {
      "midi": 47,
      "time": 36.3,
      "duration": 0.15,
      "velocity": 0.97,
      "hand": "left"
    },
    {
      "midi": 62,
      "time": 36.3,
      "duration": 0.075,
      "velocity": 0.99,
      "hand": "right"
    },
    {
      "midi": 67,
      "time": 36.3,
      "duration": 0.075,
      "velocity": 1,
      "hand": "right"
    },
    {
      "midi": 71,
      "time": 36.3,
      "duration": 0.075,
      "velocity": 1,
      "hand": "right"
    },
    {
      "midi": 86,
      "time": 36.3,
      "duration": 0.075,
      "velocity": 0.8,
      "hand": "right"
    },
    {
      "midi": 44,
      "time": 36.45,
      "duration": 0.075,
      "velocity": 0.63,
      "hand": "left"
    },
    {
      "midi": 46,
      "time": 36.45,
      "duration": 0.075,
      "velocity": 0.63,
      "hand": "left"
    },
    {
      "midi": 62,
      "time": 36.45,
      "duration": 0.15,
      "velocity": 0.71,
      "hand": "right"
    },
    {
      "midi": 62,
      "time": 36.45,
      "duration": 0.3,
      "velocity": 0.99,
      "hand": "right"
    },
    {
      "midi": 64,
      "time": 36.45,
      "duration": 0.15,
      "velocity": 0.94,
      "hand": "right"
    },
    {
      "midi": 71,
      "time": 36.45,
      "duration": 0.15,
      "velocity": 0.63,
      "hand": "right"
    },
    {
      "midi": 86,
      "time": 36.45,
      "duration": 0.15,
      "velocity": 0.91,
      "hand": "right"
    },
    {
      "midi": 38,
      "time": 36.6,
      "duration": 0.15,
      "velocity": 1,
      "hand": "left"
    },
    {
      "midi": 38,
      "time": 36.6,
      "duration": 0.3,
      "velocity": 0.63,
      "hand": "left"
    },
    {
      "midi": 52,
      "time": 36.6,
      "duration": 0.6,
      "velocity": 1,
      "hand": "left"
    },
    {
      "midi": 64,
      "time": 36.6,
      "duration": 0.075,
      "velocity": 0.89,
      "hand": "right"
    },
    {
      "midi": 68,
      "time": 36.6,
      "duration": 0.15,
      "velocity": 1,
      "hand": "right"
    },
    {
      "midi": 68,
      "time": 36.6,
      "duration": 0.6,
      "velocity": 0.96,
      "hand": "right"
    },
    {
      "midi": 71,
      "time": 36.6,
      "duration": 0.15,
      "velocity": 1,
      "hand": "right"
    },
    {
      "midi": 72,
      "time": 36.6,
      "duration": 0.3,
      "velocity": 0.64,
      "hand": "right"
    },
    {
      "midi": 88,
      "time": 36.6,
      "duration": 0.15,
      "velocity": 0.92,
      "hand": "right"
    },
    {
      "midi": 62,
      "time": 36.75,
      "duration": 0.075,
      "velocity": 0.71,
      "hand": "right"
    },
    {
      "midi": 62,
      "time": 36.75,
      "duration": 0.3,
      "velocity": 1,
      "hand": "right"
    },
    {
      "midi": 71,
      "time": 36.75,
      "duration": 0.3,
      "velocity": 0.65,
      "hand": "right"
    },
    {
      "midi": 86,
      "time": 36.75,
      "duration": 0.3,
      "velocity": 0.92,
      "hand": "right"
    },
    {
      "midi": 42,
      "time": 36.9,
      "duration": 0.3,
      "velocity": 0.63,
      "hand": "left"
    },
    {
      "midi": 46,
      "time": 36.9,
      "duration": 0.075,
      "velocity": 0.63,
      "hand": "left"
    },
    {
      "midi": 50,
      "time": 36.9,
      "duration": 0.15,
      "velocity": 1,
      "hand": "left"
    },
    {
      "midi": 62,
      "time": 36.9,
      "duration": 0.3,
      "velocity": 0.71,
      "hand": "right"
    },
    {
      "midi": 64,
      "time": 36.9,
      "duration": 0.15,
      "velocity": 1,
      "hand": "right"
    },
    {
      "midi": 68,
      "time": 36.9,
      "duration": 0.15,
      "velocity": 1,
      "hand": "right"
    },
    {
      "midi": 69,
      "time": 36.9,
      "duration": 0.075,
      "velocity": 0.97,
      "hand": "right"
    },
    {
      "midi": 71,
      "time": 36.9,
      "duration": 0.15,
      "velocity": 1,
      "hand": "right"
    },
    {
      "midi": 69,
      "time": 37.05,
      "duration": 0.3,
      "velocity": 0.65,
      "hand": "right"
    },
    {
      "midi": 84,
      "time": 37.05,
      "duration": 0.075,
      "velocity": 0.92,
      "hand": "right"
    },
    {
      "midi": 38,
      "time": 37.2,
      "duration": 0.075,
      "velocity": 0.63,
      "hand": "left"
    },
    {
      "midi": 44,
      "time": 37.2,
      "duration": 0.15,
      "velocity": 0.63,
      "hand": "left"
    },
    {
      "midi": 45,
      "time": 37.2,
      "duration": 0.15,
      "velocity": 1,
      "hand": "left"
    },
    {
      "midi": 51,
      "time": 37.2,
      "duration": 0.075,
      "velocity": 0.63,
      "hand": "left"
    },
    {
      "midi": 57,
      "time": 37.2,
      "duration": 0.3,
      "velocity": 1,
      "hand": "left"
    },
    {
      "midi": 60,
      "time": 37.2,
      "duration": 0.075,
      "velocity": 0.71,
      "hand": "right"
    },
    {
      "midi": 60,
      "time": 37.2,
      "duration": 0.15,
      "velocity": 1,
      "hand": "right"
    },
    {
      "midi": 64,
      "time": 37.2,
      "duration": 0.15,
      "velocity": 1,
      "hand": "right"
    },
    {
      "midi": 69,
      "time": 37.2,
      "duration": 0.075,
      "velocity": 1,
      "hand": "right"
    },
    {
      "midi": 72,
      "time": 37.2,
      "duration": 0.075,
      "velocity": 1,
      "hand": "right"
    },
    {
      "midi": 46,
      "time": 37.35,
      "duration": 0.075,
      "velocity": 0.63,
      "hand": "left"
    },
    {
      "midi": 57,
      "time": 37.35,
      "duration": 0.075,
      "velocity": 1,
      "hand": "left"
    },
    {
      "midi": 42,
      "time": 37.5,
      "duration": 0.3,
      "velocity": 0.63,
      "hand": "left"
    },
    {
      "midi": 44,
      "time": 37.5,
      "duration": 0.075,
      "velocity": 0.63,
      "hand": "left"
    },
    {
      "midi": 46,
      "time": 37.5,
      "duration": 0.075,
      "velocity": 0.63,
      "hand": "left"
    },
    {
      "midi": 52,
      "time": 37.5,
      "duration": 0.075,
      "velocity": 1,
      "hand": "left"
    },
    {
      "midi": 57,
      "time": 37.5,
      "duration": 0.15,
      "velocity": 0.71,
      "hand": "left"
    },
    {
      "midi": 64,
      "time": 37.5,
      "duration": 0.075,
      "velocity": 0.97,
      "hand": "right"
    },
    {
      "midi": 64,
      "time": 37.5,
      "duration": 0.15,
      "velocity": 0.66,
      "hand": "right"
    },
    {
      "midi": 67,
      "time": 37.5,
      "duration": 0.075,
      "velocity": 0.92,
      "hand": "right"
    },
    {
      "midi": 69,
      "time": 37.5,
      "duration": 0.075,
      "velocity": 0.83,
      "hand": "right"
    },
    {
      "midi": 69,
      "time": 37.5,
      "duration": 0.15,
      "velocity": 0.87,
      "hand": "right"
    },
    {
      "midi": 72,
      "time": 37.5,
      "duration": 0.075,
      "velocity": 1,
      "hand": "right"
    },
    {
      "midi": 81,
      "time": 37.5,
      "duration": 0.15,
      "velocity": 0.87,
      "hand": "right"
    },
    {
      "midi": 44,
      "time": 37.65,
      "duration": 0.075,
      "velocity": 0.63,
      "hand": "left"
    },
    {
      "midi": 46,
      "time": 37.65,
      "duration": 0.075,
      "velocity": 0.63,
      "hand": "left"
    },
    {
      "midi": 57,
      "time": 37.65,
      "duration": 0.15,
      "velocity": 0.71,
      "hand": "left"
    },
    {
      "midi": 66,
      "time": 37.65,
      "duration": 0.15,
      "velocity": 0.99,
      "hand": "right"
    },
    {
      "midi": 66,
      "time": 37.65,
      "duration": 0.3,
      "velocity": 0.68,
      "hand": "right"
    },
    {
      "midi": 67,
      "time": 37.65,
      "duration": 0.15,
      "velocity": 0.79,
      "hand": "right"
    },
    {
      "midi": 72,
      "time": 37.65,
      "duration": 0.15,
      "velocity": 1,
      "hand": "right"
    },
    {
      "midi": 74,
      "time": 37.65,
      "duration": 0.075,
      "velocity": 1,
      "hand": "right"
    },
    {
      "midi": 38,
      "time": 37.8,
      "duration": 0.3,
      "velocity": 1,
      "hand": "left"
    },
    {
      "midi": 54,
      "time": 37.8,
      "duration": 0.6,
      "velocity": 1,
      "hand": "left"
    },
    {
      "midi": 62,
      "time": 37.8,
      "duration": 0.3,
      "velocity": 0.71,
      "hand": "right"
    },
    {
      "midi": 66,
      "time": 37.8,
      "duration": 0.075,
      "velocity": 0.89,
      "hand": "right"
    },
    {
      "midi": 86,
      "time": 37.8,
      "duration": 0.15,
      "velocity": 0.92,
      "hand": "right"
    },
    {
      "midi": 60,
      "time": 37.95,
      "duration": 0.45,
      "velocity": 0.94,
      "hand": "right"
    },
    {
      "midi": 66,
      "time": 37.95,
      "duration": 0.15,
      "velocity": 1,
      "hand": "right"
    },
    {
      "midi": 72,
      "time": 37.95,
      "duration": 0.075,
      "velocity": 1,
      "hand": "right"
    },
    {
      "midi": 73,
      "time": 37.95,
      "duration": 0.075,
      "velocity": 1,
      "hand": "right"
    },
    {
      "midi": 74,
      "time": 37.95,
      "duration": 0.075,
      "velocity": 0.94,
      "hand": "right"
    },
    {
      "midi": 42,
      "time": 38.1,
      "duration": 0.3,
      "velocity": 0.63,
      "hand": "left"
    },
    {
      "midi": 46,
      "time": 38.1,
      "duration": 0.075,
      "velocity": 0.63,
      "hand": "left"
    },
    {
      "midi": 50,
      "time": 38.1,
      "duration": 0.15,
      "velocity": 1,
      "hand": "left"
    },
    {
      "midi": 60,
      "time": 38.1,
      "duration": 0.3,
      "velocity": 0.71,
      "hand": "right"
    },
    {
      "midi": 62,
      "time": 38.1,
      "duration": 0.3,
      "velocity": 0.69,
      "hand": "right"
    },
    {
      "midi": 66,
      "time": 38.1,
      "duration": 0.15,
      "velocity": 0.92,
      "hand": "right"
    },
    {
      "midi": 84,
      "time": 38.1,
      "duration": 0.15,
      "velocity": 0.92,
      "hand": "right"
    },
    {
      "midi": 59,
      "time": 38.25,
      "duration": 0.15,
      "velocity": 1,
      "hand": "left"
    },
    {
      "midi": 69,
      "time": 38.25,
      "duration": 0.15,
      "velocity": 0.79,
      "hand": "right"
    },
    {
      "midi": 38,
      "time": 38.4,
      "duration": 0.075,
      "velocity": 0.63,
      "hand": "left"
    },
    {
      "midi": 43,
      "time": 38.4,
      "duration": 0.15,
      "velocity": 1,
      "hand": "left"
    },
    {
      "midi": 44,
      "time": 38.4,
      "duration": 0.075,
      "velocity": 0.63,
      "hand": "left"
    },
    {
      "midi": 51,
      "time": 38.4,
      "duration": 0.075,
      "velocity": 0.63,
      "hand": "left"
    },
    {
      "midi": 55,
      "time": 38.4,
      "duration": 0.6,
      "velocity": 0.99,
      "hand": "left"
    },
    {
      "midi": 59,
      "time": 38.4,
      "duration": 0.15,
      "velocity": 0.71,
      "hand": "left"
    },
    {
      "midi": 62,
      "time": 38.4,
      "duration": 0.6,
      "velocity": 1,
      "hand": "right"
    },
    {
      "midi": 67,
      "time": 38.4,
      "duration": 0.075,
      "velocity": 1,
      "hand": "right"
    },
    {
      "midi": 67,
      "time": 38.4,
      "duration": 0.15,
      "velocity": 0.69,
      "hand": "right"
    },
    {
      "midi": 71,
      "time": 38.4,
      "duration": 0.075,
      "velocity": 1,
      "hand": "right"
    },
    {
      "midi": 74,
      "time": 38.4,
      "duration": 0.075,
      "velocity": 1,
      "hand": "right"
    },
    {
      "midi": 83,
      "time": 38.4,
      "duration": 0.15,
      "velocity": 0.92,
      "hand": "right"
    },
    {
      "midi": 42,
      "time": 38.7,
      "duration": 0.3,
      "velocity": 0.63,
      "hand": "left"
    },
    {
      "midi": 44,
      "time": 38.7,
      "duration": 0.075,
      "velocity": 0.63,
      "hand": "left"
    },
    {
      "midi": 46,
      "time": 38.7,
      "duration": 0.075,
      "velocity": 0.63,
      "hand": "left"
    },
    {
      "midi": 55,
      "time": 38.7,
      "duration": 0.15,
      "velocity": 1,
      "hand": "left"
    },
    {
      "midi": 59,
      "time": 38.7,
      "duration": 0.15,
      "velocity": 0.71,
      "hand": "left"
    },
    {
      "midi": 67,
      "time": 38.7,
      "duration": 0.075,
      "velocity": 1,
      "hand": "right"
    },
    {
      "midi": 67,
      "time": 38.7,
      "duration": 0.15,
      "velocity": 0.71,
      "hand": "right"
    },
    {
      "midi": 71,
      "time": 38.7,
      "duration": 0.075,
      "velocity": 1,
      "hand": "right"
    },
    {
      "midi": 74,
      "time": 38.7,
      "duration": 0.075,
      "velocity": 1,
      "hand": "right"
    },
    {
      "midi": 79,
      "time": 38.7,
      "duration": 0.15,
      "velocity": 0.91,
      "hand": "right"
    },
    {
      "midi": 83,
      "time": 38.7,
      "duration": 0.15,
      "velocity": 0.92,
      "hand": "right"
    },
    {
      "midi": 44,
      "time": 38.85,
      "duration": 0.075,
      "velocity": 0.63,
      "hand": "left"
    },
    {
      "midi": 46,
      "time": 38.85,
      "duration": 0.075,
      "velocity": 0.63,
      "hand": "left"
    },
    {
      "midi": 55,
      "time": 38.85,
      "duration": 0.15,
      "velocity": 0.71,
      "hand": "left"
    },
    {
      "midi": 66,
      "time": 38.85,
      "duration": 0.15,
      "velocity": 0.71,
      "hand": "right"
    },
    {
      "midi": 38,
      "time": 39,
      "duration": 0.45,
      "velocity": 0.63,
      "hand": "left"
    },
    {
      "midi": 40,
      "time": 39,
      "duration": 0.3,
      "velocity": 1,
      "hand": "left"
    },
    {
      "midi": 52,
      "time": 39,
      "duration": 0.3,
      "velocity": 0.94,
      "hand": "left"
    },
    {
      "midi": 60,
      "time": 39,
      "duration": 0.075,
      "velocity": 0.71,
      "hand": "right"
    },
    {
      "midi": 60,
      "time": 39,
      "duration": 0.15,
      "velocity": 1,
      "hand": "right"
    },
    {
      "midi": 64,
      "time": 39,
      "duration": 0.6,
      "velocity": 0.94,
      "hand": "right"
    },
    {
      "midi": 64,
      "time": 39,
      "duration": 0.15,
      "velocity": 0.72,
      "hand": "right"
    },
    {
      "midi": 68,
      "time": 39,
      "duration": 0.075,
      "velocity": 1,
      "hand": "right"
    },
    {
      "midi": 70,
      "time": 39,
      "duration": 0.075,
      "velocity": 0.7,
      "hand": "right"
    },
    {
      "midi": 71,
      "time": 39,
      "duration": 0.15,
      "velocity": 1,
      "hand": "right"
    },
    {
      "midi": 76,
      "time": 39,
      "duration": 0.075,
      "velocity": 1,
      "hand": "right"
    },
    {
      "midi": 84,
      "time": 39,
      "duration": 0.075,
      "velocity": 0.92,
      "hand": "right"
    },
    {
      "midi": 42,
      "time": 39.3,
      "duration": 0.3,
      "velocity": 0.63,
      "hand": "left"
    },
    {
      "midi": 46,
      "time": 39.3,
      "duration": 0.075,
      "velocity": 0.63,
      "hand": "left"
    },
    {
      "midi": 50,
      "time": 39.3,
      "duration": 0.15,
      "velocity": 0.99,
      "hand": "left"
    },
    {
      "midi": 56,
      "time": 39.3,
      "duration": 0.15,
      "velocity": 1,
      "hand": "left"
    },
    {
      "midi": 60,
      "time": 39.3,
      "duration": 0.15,
      "velocity": 0.71,
      "hand": "right"
    },
    {
      "midi": 60,
      "time": 39.3,
      "duration": 0.3,
      "velocity": 1,
      "hand": "right"
    },
    {
      "midi": 64,
      "time": 39.3,
      "duration": 0.15,
      "velocity": 0.72,
      "hand": "right"
    },
    {
      "midi": 68,
      "time": 39.3,
      "duration": 0.15,
      "velocity": 1,
      "hand": "right"
    },
    {
      "midi": 71,
      "time": 39.3,
      "duration": 0.15,
      "velocity": 1,
      "hand": "right"
    },
    {
      "midi": 75,
      "time": 39.3,
      "duration": 0.075,
      "velocity": 0.84,
      "hand": "right"
    },
    {
      "midi": 76,
      "time": 39.3,
      "duration": 0.15,
      "velocity": 1,
      "hand": "right"
    },
    {
      "midi": 84,
      "time": 39.3,
      "duration": 0.15,
      "velocity": 0.92,
      "hand": "right"
    },
    {
      "midi": 59,
      "time": 39.45,
      "duration": 0.15,
      "velocity": 0.71,
      "hand": "left"
    },
    {
      "midi": 62,
      "time": 39.45,
      "duration": 0.15,
      "velocity": 0.73,
      "hand": "right"
    },
    {
      "midi": 83,
      "time": 39.45,
      "duration": 0.15,
      "velocity": 0.8,
      "hand": "right"
    },
    {
      "midi": 38,
      "time": 39.6,
      "duration": 0.075,
      "velocity": 0.63,
      "hand": "left"
    },
    {
      "midi": 44,
      "time": 39.6,
      "duration": 0.075,
      "velocity": 0.63,
      "hand": "left"
    },
    {
      "midi": 45,
      "time": 39.6,
      "duration": 0.3,
      "velocity": 1,
      "hand": "left"
    },
    {
      "midi": 48,
      "time": 39.6,
      "duration": 0.6,
      "velocity": 1,
      "hand": "left"
    },
    {
      "midi": 51,
      "time": 39.6,
      "duration": 0.075,
      "velocity": 0.63,
      "hand": "left"
    },
    {
      "midi": 57,
      "time": 39.6,
      "duration": 0.15,
      "velocity": 0.71,
      "hand": "left"
    },
    {
      "midi": 60,
      "time": 39.6,
      "duration": 0.15,
      "velocity": 0.74,
      "hand": "right"
    },
    {
      "midi": 69,
      "time": 39.6,
      "duration": 0.075,
      "velocity": 0.99,
      "hand": "right"
    },
    {
      "midi": 72,
      "time": 39.6,
      "duration": 0.075,
      "velocity": 1,
      "hand": "right"
    },
    {
      "midi": 75,
      "time": 39.6,
      "duration": 0.075,
      "velocity": 0.91,
      "hand": "right"
    },
    {
      "midi": 76,
      "time": 39.6,
      "duration": 0.075,
      "velocity": 1,
      "hand": "right"
    },
    {
      "midi": 81,
      "time": 39.6,
      "duration": 0.15,
      "velocity": 0.91,
      "hand": "right"
    },
    {
      "midi": 42,
      "time": 39.9,
      "duration": 0.3,
      "velocity": 0.63,
      "hand": "left"
    },
    {
      "midi": 44,
      "time": 39.9,
      "duration": 0.075,
      "velocity": 0.63,
      "hand": "left"
    },
    {
      "midi": 46,
      "time": 39.9,
      "duration": 0.075,
      "velocity": 0.63,
      "hand": "left"
    },
    {
      "midi": 57,
      "time": 39.9,
      "duration": 0.15,
      "velocity": 0.97,
      "hand": "left"
    },
    {
      "midi": 58,
      "time": 39.9,
      "duration": 0.075,
      "velocity": 0.71,
      "hand": "left"
    },
    {
      "midi": 60,
      "time": 39.9,
      "duration": 0.075,
      "velocity": 0.75,
      "hand": "right"
    },
    {
      "midi": 67,
      "time": 39.9,
      "duration": 0.15,
      "velocity": 0.83,
      "hand": "right"
    },
    {
      "midi": 69,
      "time": 39.9,
      "duration": 0.15,
      "velocity": 0.94,
      "hand": "right"
    },
    {
      "midi": 72,
      "time": 39.9,
      "duration": 0.075,
      "velocity": 1,
      "hand": "right"
    },
    {
      "midi": 76,
      "time": 39.9,
      "duration": 0.075,
      "velocity": 0.97,
      "hand": "right"
    },
    {
      "midi": 76,
      "time": 39.9,
      "duration": 0.15,
      "velocity": 0.76,
      "hand": "right"
    },
    {
      "midi": 81,
      "time": 39.9,
      "duration": 0.075,
      "velocity": 0.84,
      "hand": "right"
    },
    {
      "midi": 44,
      "time": 40.05,
      "duration": 0.075,
      "velocity": 0.63,
      "hand": "left"
    },
    {
      "midi": 46,
      "time": 40.05,
      "duration": 0.075,
      "velocity": 0.63,
      "hand": "left"
    },
    {
      "midi": 57,
      "time": 40.05,
      "duration": 0.15,
      "velocity": 0.71,
      "hand": "left"
    },
    {
      "midi": 72,
      "time": 40.05,
      "duration": 0.15,
      "velocity": 0.91,
      "hand": "right"
    },
    {
      "midi": 81,
      "time": 40.05,
      "duration": 0.15,
      "velocity": 0.73,
      "hand": "right"
    },
    {
      "midi": 38,
      "time": 40.2,
      "duration": 0.3,
      "velocity": 1,
      "hand": "left"
    },
    {
      "midi": 50,
      "time": 40.2,
      "duration": 0.6,
      "velocity": 0.87,
      "hand": "left"
    },
    {
      "midi": 51,
      "time": 40.2,
      "duration": 0.15,
      "velocity": 0.63,
      "hand": "left"
    },
    {
      "midi": 62,
      "time": 40.2,
      "duration": 0.075,
      "velocity": 0.71,
      "hand": "right"
    },
    {
      "midi": 62,
      "time": 40.2,
      "duration": 0.15,
      "velocity": 1,
      "hand": "right"
    },
    {
      "midi": 66,
      "time": 40.2,
      "duration": 0.15,
      "velocity": 1,
      "hand": "right"
    },
    {
      "midi": 66,
      "time": 40.2,
      "duration": 0.075,
      "velocity": 1,
      "hand": "right"
    },
    {
      "midi": 72,
      "time": 40.2,
      "duration": 0.15,
      "velocity": 1,
      "hand": "right"
    },
    {
      "midi": 74,
      "time": 40.2,
      "duration": 0.15,
      "velocity": 1,
      "hand": "right"
    },
    {
      "midi": 86,
      "time": 40.2,
      "duration": 0.15,
      "velocity": 0.91,
      "hand": "right"
    },
    {
      "midi": 42,
      "time": 40.5,
      "duration": 0.3,
      "velocity": 0.63,
      "hand": "left"
    },
    {
      "midi": 46,
      "time": 40.5,
      "duration": 0.075,
      "velocity": 0.63,
      "hand": "left"
    },
    {
      "midi": 54,
      "time": 40.5,
      "duration": 0.15,
      "velocity": 1,
      "hand": "left"
    },
    {
      "midi": 62,
      "time": 40.5,
      "duration": 0.3,
      "velocity": 0.71,
      "hand": "right"
    },
    {
      "midi": 66,
      "time": 40.5,
      "duration": 0.075,
      "velocity": 1,
      "hand": "right"
    },
    {
      "midi": 72,
      "time": 40.5,
      "duration": 0.15,
      "velocity": 1,
      "hand": "right"
    },
    {
      "midi": 74,
      "time": 40.5,
      "duration": 0.15,
      "velocity": 1,
      "hand": "right"
    },
    {
      "midi": 86,
      "time": 40.5,
      "duration": 0.3,
      "velocity": 0.92,
      "hand": "right"
    },
    {
      "midi": 71,
      "time": 40.65,
      "duration": 0.15,
      "velocity": 0.61,
      "hand": "right"
    },
    {
      "midi": 79,
      "time": 40.65,
      "duration": 0.075,
      "velocity": 0.84,
      "hand": "right"
    },
    {
      "midi": 38,
      "time": 40.8,
      "duration": 0.3,
      "velocity": 0.63,
      "hand": "left"
    },
    {
      "midi": 43,
      "time": 40.8,
      "duration": 0.3,
      "velocity": 1,
      "hand": "left"
    },
    {
      "midi": 44,
      "time": 40.8,
      "duration": 0.15,
      "velocity": 0.63,
      "hand": "left"
    },
    {
      "midi": 51,
      "time": 40.8,
      "duration": 0.075,
      "velocity": 0.63,
      "hand": "left"
    },
    {
      "midi": 55,
      "time": 40.8,
      "duration": 0.15,
      "velocity": 0.71,
      "hand": "left"
    },
    {
      "midi": 55,
      "time": 40.8,
      "duration": 0.45,
      "velocity": 1,
      "hand": "left"
    },
    {
      "midi": 55,
      "time": 40.8,
      "duration": 0.3,
      "velocity": 1,
      "hand": "left"
    },
    {
      "midi": 55,
      "time": 40.8,
      "duration": 0.15,
      "velocity": 1,
      "hand": "left"
    },
    {
      "midi": 67,
      "time": 40.8,
      "duration": 0.075,
      "velocity": 1,
      "hand": "right"
    },
    {
      "midi": 71,
      "time": 40.8,
      "duration": 0.075,
      "velocity": 1,
      "hand": "right"
    },
    {
      "midi": 74,
      "time": 40.8,
      "duration": 0.15,
      "velocity": 1,
      "hand": "right"
    },
    {
      "midi": 42,
      "time": 41.1,
      "duration": 0.075,
      "velocity": 0.63,
      "hand": "left"
    },
    {
      "midi": 46,
      "time": 41.1,
      "duration": 0.075,
      "velocity": 0.63,
      "hand": "left"
    },
    {
      "midi": 55,
      "time": 41.1,
      "duration": 0.15,
      "velocity": 1,
      "hand": "left"
    },
    {
      "midi": 62,
      "time": 41.1,
      "duration": 0.075,
      "velocity": 0.63,
      "hand": "right"
    },
    {
      "midi": 67,
      "time": 41.1,
      "duration": 0.075,
      "velocity": 1,
      "hand": "right"
    },
    {
      "midi": 71,
      "time": 41.1,
      "duration": 0.075,
      "velocity": 1,
      "hand": "right"
    },
    {
      "midi": 74,
      "time": 41.1,
      "duration": 0.075,
      "velocity": 1,
      "hand": "right"
    },
    {
      "midi": 74,
      "time": 41.1,
      "duration": 0.15,
      "velocity": 0.89,
      "hand": "right"
    },
    {
      "midi": 86,
      "time": 41.1,
      "duration": 0.075,
      "velocity": 0.63,
      "hand": "right"
    },
    {
      "midi": 86,
      "time": 41.1,
      "duration": 0.15,
      "velocity": 0.89,
      "hand": "right"
    },
    {
      "midi": 62,
      "time": 41.25,
      "duration": 0.15,
      "velocity": 0.63,
      "hand": "right"
    },
    {
      "midi": 67,
      "time": 41.25,
      "duration": 0.15,
      "velocity": 0.79,
      "hand": "right"
    },
    {
      "midi": 71,
      "time": 41.25,
      "duration": 0.15,
      "velocity": 0.85,
      "hand": "right"
    },
    {
      "midi": 74,
      "time": 41.25,
      "duration": 0.15,
      "velocity": 0.89,
      "hand": "right"
    },
    {
      "midi": 86,
      "time": 41.25,
      "duration": 0.15,
      "velocity": 0.63,
      "hand": "right"
    },
    {
      "midi": 38,
      "time": 41.4,
      "duration": 0.45,
      "velocity": 0.63,
      "hand": "left"
    },
    {
      "midi": 40,
      "time": 41.4,
      "duration": 0.3,
      "velocity": 1,
      "hand": "left"
    },
    {
      "midi": 42,
      "time": 41.4,
      "duration": 0.15,
      "velocity": 0.63,
      "hand": "left"
    },
    {
      "midi": 44,
      "time": 41.4,
      "duration": 0.075,
      "velocity": 0.63,
      "hand": "left"
    },
    {
      "midi": 52,
      "time": 41.4,
      "duration": 0.6,
      "velocity": 1,
      "hand": "left"
    },
    {
      "midi": 64,
      "time": 41.4,
      "duration": 0.15,
      "velocity": 0.63,
      "hand": "right"
    },
    {
      "midi": 68,
      "time": 41.4,
      "duration": 0.15,
      "velocity": 0.96,
      "hand": "right"
    },
    {
      "midi": 71,
      "time": 41.4,
      "duration": 0.075,
      "velocity": 0.97,
      "hand": "right"
    },
    {
      "midi": 72,
      "time": 41.4,
      "duration": 0.075,
      "velocity": 0.74,
      "hand": "right"
    },
    {
      "midi": 76,
      "time": 41.4,
      "duration": 0.075,
      "velocity": 1,
      "hand": "right"
    },
    {
      "midi": 76,
      "time": 41.4,
      "duration": 0.3,
      "velocity": 0.99,
      "hand": "right"
    },
    {
      "midi": 88,
      "time": 41.4,
      "duration": 0.15,
      "velocity": 0.63,
      "hand": "right"
    },
    {
      "midi": 88,
      "time": 41.4,
      "duration": 0.3,
      "velocity": 0.99,
      "hand": "right"
    },
    {
      "midi": 62,
      "time": 41.55,
      "duration": 0.075,
      "velocity": 0.63,
      "hand": "right"
    },
    {
      "midi": 64,
      "time": 41.55,
      "duration": 0.15,
      "velocity": 0.63,
      "hand": "right"
    },
    {
      "midi": 86,
      "time": 41.55,
      "duration": 0.15,
      "velocity": 0.63,
      "hand": "right"
    },
    {
      "midi": 42,
      "time": 41.7,
      "duration": 0.15,
      "velocity": 0.63,
      "hand": "left"
    },
    {
      "midi": 46,
      "time": 41.7,
      "duration": 0.15,
      "velocity": 0.63,
      "hand": "left"
    },
    {
      "midi": 56,
      "time": 41.7,
      "duration": 0.15,
      "velocity": 0.76,
      "hand": "left"
    },
    {
      "midi": 62,
      "time": 41.7,
      "duration": 0.3,
      "velocity": 0.63,
      "hand": "right"
    },
    {
      "midi": 68,
      "time": 41.7,
      "duration": 0.15,
      "velocity": 1,
      "hand": "right"
    },
    {
      "midi": 70,
      "time": 41.7,
      "duration": 0.075,
      "velocity": 1,
      "hand": "right"
    },
    {
      "midi": 71,
      "time": 41.7,
      "duration": 0.075,
      "velocity": 1,
      "hand": "right"
    },
    {
      "midi": 74,
      "time": 41.7,
      "duration": 0.3,
      "velocity": 0.99,
      "hand": "right"
    },
    {
      "midi": 76,
      "time": 41.7,
      "duration": 0.075,
      "velocity": 1,
      "hand": "right"
    },
    {
      "midi": 86,
      "time": 41.7,
      "duration": 0.3,
      "velocity": 0.99,
      "hand": "right"
    },
    {
      "midi": 72,
      "time": 41.85,
      "duration": 0.15,
      "velocity": 1,
      "hand": "right"
    },
    {
      "midi": 84,
      "time": 41.85,
      "duration": 0.3,
      "velocity": 0.63,
      "hand": "right"
    },
    {
      "midi": 84,
      "time": 41.85,
      "duration": 0.15,
      "velocity": 1,
      "hand": "right"
    },
    {
      "midi": 38,
      "time": 42,
      "duration": 0.075,
      "velocity": 0.63,
      "hand": "left"
    },
    {
      "midi": 42,
      "time": 42,
      "duration": 0.15,
      "velocity": 0.63,
      "hand": "left"
    },
    {
      "midi": 44,
      "time": 42,
      "duration": 0.075,
      "velocity": 0.63,
      "hand": "left"
    },
    {
      "midi": 45,
      "time": 42,
      "duration": 0.15,
      "velocity": 1,
      "hand": "left"
    },
    {
      "midi": 51,
      "time": 42,
      "duration": 0.075,
      "velocity": 0.63,
      "hand": "left"
    },
    {
      "midi": 57,
      "time": 42,
      "duration": 0.15,
      "velocity": 0.99,
      "hand": "left"
    },
    {
      "midi": 60,
      "time": 42,
      "duration": 0.3,
      "velocity": 0.63,
      "hand": "right"
    },
    {
      "midi": 69,
      "time": 42,
      "duration": 0.15,
      "velocity": 1,
      "hand": "right"
    },
    {
      "midi": 72,
      "time": 42,
      "duration": 0.075,
      "velocity": 1,
      "hand": "right"
    },
    {
      "midi": 72,
      "time": 42,
      "duration": 0.15,
      "velocity": 0.87,
      "hand": "right"
    },
    {
      "midi": 76,
      "time": 42,
      "duration": 0.075,
      "velocity": 1,
      "hand": "right"
    },
    {
      "midi": 69,
      "time": 42.15,
      "duration": 0.075,
      "velocity": 0.99,
      "hand": "right"
    },
    {
      "midi": 72,
      "time": 42.15,
      "duration": 0.075,
      "velocity": 1,
      "hand": "right"
    },
    {
      "midi": 44,
      "time": 42.3,
      "duration": 0.075,
      "velocity": 0.63,
      "hand": "left"
    },
    {
      "midi": 46,
      "time": 42.3,
      "duration": 0.075,
      "velocity": 0.63,
      "hand": "left"
    },
    {
      "midi": 55,
      "time": 42.3,
      "duration": 0.15,
      "velocity": 0.99,
      "hand": "left"
    },
    {
      "midi": 57,
      "time": 42.3,
      "duration": 0.15,
      "velocity": 0.63,
      "hand": "left"
    },
    {
      "midi": 69,
      "time": 42.3,
      "duration": 0.075,
      "velocity": 0.77,
      "hand": "right"
    },
    {
      "midi": 72,
      "time": 42.3,
      "duration": 0.075,
      "velocity": 1,
      "hand": "right"
    },
    {
      "midi": 72,
      "time": 42.3,
      "duration": 0.15,
      "velocity": 1,
      "hand": "right"
    },
    {
      "midi": 76,
      "time": 42.3,
      "duration": 0.075,
      "velocity": 0.83,
      "hand": "right"
    },
    {
      "midi": 81,
      "time": 42.3,
      "duration": 0.15,
      "velocity": 0.63,
      "hand": "right"
    },
    {
      "midi": 84,
      "time": 42.3,
      "duration": 0.15,
      "velocity": 1,
      "hand": "right"
    },
    {
      "midi": 44,
      "time": 42.45,
      "duration": 0.15,
      "velocity": 0.63,
      "hand": "left"
    },
    {
      "midi": 46,
      "time": 42.45,
      "duration": 0.075,
      "velocity": 0.63,
      "hand": "left"
    },
    {
      "midi": 57,
      "time": 42.45,
      "duration": 0.15,
      "velocity": 0.63,
      "hand": "left"
    },
    {
      "midi": 69,
      "time": 42.45,
      "duration": 0.075,
      "velocity": 0.94,
      "hand": "right"
    },
    {
      "midi": 69,
      "time": 42.45,
      "duration": 0.15,
      "velocity": 0.94,
      "hand": "right"
    },
    {
      "midi": 74,
      "time": 42.45,
      "duration": 0.075,
      "velocity": 1,
      "hand": "right"
    },
    {
      "midi": 74,
      "time": 42.45,
      "duration": 0.3,
      "velocity": 1,
      "hand": "right"
    },
    {
      "midi": 78,
      "time": 42.45,
      "duration": 0.075,
      "velocity": 1,
      "hand": "right"
    },
    {
      "midi": 81,
      "time": 42.45,
      "duration": 0.15,
      "velocity": 0.63,
      "hand": "right"
    },
    {
      "midi": 38,
      "time": 42.6,
      "duration": 0.3,
      "velocity": 1,
      "hand": "left"
    },
    {
      "midi": 38,
      "time": 42.6,
      "duration": 0.15,
      "velocity": 0.63,
      "hand": "left"
    },
    {
      "midi": 42,
      "time": 42.6,
      "duration": 0.15,
      "velocity": 0.63,
      "hand": "left"
    },
    {
      "midi": 54,
      "time": 42.6,
      "duration": 0.6,
      "velocity": 0.91,
      "hand": "left"
    },
    {
      "midi": 62,
      "time": 42.6,
      "duration": 0.3,
      "velocity": 0.63,
      "hand": "right"
    },
    {
      "midi": 74,
      "time": 42.6,
      "duration": 0.075,
      "velocity": 0.97,
      "hand": "right"
    },
    {
      "midi": 86,
      "time": 42.6,
      "duration": 0.075,
      "velocity": 0.63,
      "hand": "right"
    },
    {
      "midi": 72,
      "time": 42.75,
      "duration": 0.3,
      "velocity": 1,
      "hand": "right"
    },
    {
      "midi": 38,
      "time": 42.9,
      "duration": 0.15,
      "velocity": 0.63,
      "hand": "left"
    },
    {
      "midi": 42,
      "time": 42.9,
      "duration": 0.15,
      "velocity": 0.63,
      "hand": "left"
    },
    {
      "midi": 46,
      "time": 42.9,
      "duration": 0.075,
      "velocity": 0.63,
      "hand": "left"
    },
    {
      "midi": 54,
      "time": 42.9,
      "duration": 0.15,
      "velocity": 1,
      "hand": "left"
    },
    {
      "midi": 60,
      "time": 42.9,
      "duration": 0.3,
      "velocity": 0.63,
      "hand": "right"
    },
    {
      "midi": 69,
      "time": 42.9,
      "duration": 0.075,
      "velocity": 1,
      "hand": "right"
    },
    {
      "midi": 74,
      "time": 42.9,
      "duration": 0.075,
      "velocity": 1,
      "hand": "right"
    },
    {
      "midi": 74,
      "time": 42.9,
      "duration": 0.15,
      "velocity": 1,
      "hand": "right"
    },
    {
      "midi": 78,
      "time": 42.9,
      "duration": 0.075,
      "velocity": 1,
      "hand": "right"
    },
    {
      "midi": 84,
      "time": 42.9,
      "duration": 0.15,
      "velocity": 0.63,
      "hand": "right"
    },
    {
      "midi": 86,
      "time": 42.9,
      "duration": 0.15,
      "velocity": 1,
      "hand": "right"
    },
    {
      "midi": 72,
      "time": 43.05,
      "duration": 0.15,
      "velocity": 0.94,
      "hand": "right"
    },
    {
      "midi": 84,
      "time": 43.05,
      "duration": 0.15,
      "velocity": 0.94,
      "hand": "right"
    },
    {
      "midi": 38,
      "time": 43.2,
      "duration": 0.075,
      "velocity": 0.63,
      "hand": "left"
    },
    {
      "midi": 42,
      "time": 43.2,
      "duration": 0.075,
      "velocity": 0.63,
      "hand": "left"
    },
    {
      "midi": 43,
      "time": 43.2,
      "duration": 0.3,
      "velocity": 1,
      "hand": "left"
    },
    {
      "midi": 44,
      "time": 43.2,
      "duration": 0.15,
      "velocity": 0.63,
      "hand": "left"
    },
    {
      "midi": 51,
      "time": 43.2,
      "duration": 0.075,
      "velocity": 0.63,
      "hand": "left"
    },
    {
      "midi": 55,
      "time": 43.2,
      "duration": 0.3,
      "velocity": 0.92,
      "hand": "left"
    },
    {
      "midi": 59,
      "time": 43.2,
      "duration": 0.15,
      "velocity": 0.63,
      "hand": "left"
    },
    {
      "midi": 71,
      "time": 43.2,
      "duration": 0.075,
      "velocity": 1,
      "hand": "right"
    },
    {
      "midi": 71,
      "time": 43.2,
      "duration": 0.15,
      "velocity": 1,
      "hand": "right"
    },
    {
      "midi": 74,
      "time": 43.2,
      "duration": 0.15,
      "velocity": 1,
      "hand": "right"
    },
    {
      "midi": 77,
      "time": 43.2,
      "duration": 0.075,
      "velocity": 0.76,
      "hand": "right"
    },
    {
      "midi": 79,
      "time": 43.2,
      "duration": 0.15,
      "velocity": 1,
      "hand": "right"
    },
    {
      "midi": 83,
      "time": 43.2,
      "duration": 0.15,
      "velocity": 0.63,
      "hand": "right"
    },
    {
      "midi": 83,
      "time": 43.2,
      "duration": 0.075,
      "velocity": 0.99,
      "hand": "right"
    },
    {
      "midi": 44,
      "time": 43.5,
      "duration": 0.075,
      "velocity": 0.63,
      "hand": "left"
    },
    {
      "midi": 46,
      "time": 43.5,
      "duration": 0.075,
      "velocity": 0.63,
      "hand": "left"
    },
    {
      "midi": 55,
      "time": 43.5,
      "duration": 0.15,
      "velocity": 1,
      "hand": "left"
    },
    {
      "midi": 59,
      "time": 43.5,
      "duration": 0.075,
      "velocity": 0.63,
      "hand": "left"
    },
    {
      "midi": 71,
      "time": 43.5,
      "duration": 0.075,
      "velocity": 1,
      "hand": "right"
    },
    {
      "midi": 71,
      "time": 43.5,
      "duration": 0.15,
      "velocity": 1,
      "hand": "right"
    },
    {
      "midi": 74,
      "time": 43.5,
      "duration": 0.075,
      "velocity": 1,
      "hand": "right"
    },
    {
      "midi": 79,
      "time": 43.5,
      "duration": 0.075,
      "velocity": 0.99,
      "hand": "right"
    },
    {
      "midi": 79,
      "time": 43.5,
      "duration": 0.15,
      "velocity": 0.65,
      "hand": "right"
    },
    {
      "midi": 83,
      "time": 43.5,
      "duration": 0.15,
      "velocity": 0.63,
      "hand": "right"
    },
    {
      "midi": 44,
      "time": 43.65,
      "duration": 0.075,
      "velocity": 0.63,
      "hand": "left"
    },
    {
      "midi": 46,
      "time": 43.65,
      "duration": 0.075,
      "velocity": 0.63,
      "hand": "left"
    },
    {
      "midi": 55,
      "time": 43.65,
      "duration": 0.15,
      "velocity": 0.63,
      "hand": "left"
    },
    {
      "midi": 67,
      "time": 43.65,
      "duration": 0.15,
      "velocity": 0.83,
      "hand": "right"
    },
    {
      "midi": 71,
      "time": 43.65,
      "duration": 0.075,
      "velocity": 0.65,
      "hand": "right"
    },
    {
      "midi": 71,
      "time": 43.65,
      "duration": 0.15,
      "velocity": 0.99,
      "hand": "right"
    },
    {
      "midi": 74,
      "time": 43.65,
      "duration": 0.075,
      "velocity": 0.76,
      "hand": "right"
    },
    {
      "midi": 79,
      "time": 43.65,
      "duration": 0.15,
      "velocity": 0.63,
      "hand": "right"
    },
    {
      "midi": 38,
      "time": 43.8,
      "duration": 0.15,
      "velocity": 0.63,
      "hand": "left"
    },
    {
      "midi": 40,
      "time": 43.8,
      "duration": 0.3,
      "velocity": 1,
      "hand": "left"
    },
    {
      "midi": 42,
      "time": 43.8,
      "duration": 0.15,
      "velocity": 0.63,
      "hand": "left"
    },
    {
      "midi": 52,
      "time": 43.8,
      "duration": 0.3,
      "velocity": 1,
      "hand": "left"
    },
    {
      "midi": 64,
      "time": 43.8,
      "duration": 0.15,
      "velocity": 0.63,
      "hand": "right"
    },
    {
      "midi": 68,
      "time": 43.8,
      "duration": 0.075,
      "velocity": 1,
      "hand": "right"
    },
    {
      "midi": 72,
      "time": 43.8,
      "duration": 0.075,
      "velocity": 1,
      "hand": "right"
    },
    {
      "midi": 76,
      "time": 43.8,
      "duration": 0.15,
      "velocity": 1,
      "hand": "right"
    },
    {
      "midi": 80,
      "time": 43.8,
      "duration": 0.15,
      "velocity": 1,
      "hand": "right"
    },
    {
      "midi": 84,
      "time": 43.8,
      "duration": 0.075,
      "velocity": 0.63,
      "hand": "right"
    },
    {
      "midi": 38,
      "time": 44.1,
      "duration": 0.075,
      "velocity": 0.63,
      "hand": "left"
    },
    {
      "midi": 42,
      "time": 44.1,
      "duration": 0.15,
      "velocity": 0.63,
      "hand": "left"
    },
    {
      "midi": 46,
      "time": 44.1,
      "duration": 0.075,
      "velocity": 0.63,
      "hand": "left"
    },
    {
      "midi": 50,
      "time": 44.1,
      "duration": 0.45,
      "velocity": 0.94,
      "hand": "left"
    },
    {
      "midi": 56,
      "time": 44.1,
      "duration": 0.15,
      "velocity": 1,
      "hand": "left"
    },
    {
      "midi": 63,
      "time": 44.1,
      "duration": 0.075,
      "velocity": 0.63,
      "hand": "right"
    },
    {
      "midi": 64,
      "time": 44.1,
      "duration": 0.15,
      "velocity": 0.63,
      "hand": "right"
    },
    {
      "midi": 68,
      "time": 44.1,
      "duration": 0.3,
      "velocity": 1,
      "hand": "right"
    },
    {
      "midi": 71,
      "time": 44.1,
      "duration": 0.075,
      "velocity": 1,
      "hand": "right"
    },
    {
      "midi": 72,
      "time": 44.1,
      "duration": 0.15,
      "velocity": 1,
      "hand": "right"
    },
    {
      "midi": 76,
      "time": 44.1,
      "duration": 0.15,
      "velocity": 1,
      "hand": "right"
    },
    {
      "midi": 80,
      "time": 44.1,
      "duration": 0.15,
      "velocity": 1,
      "hand": "right"
    },
    {
      "midi": 84,
      "time": 44.1,
      "duration": 0.15,
      "velocity": 0.63,
      "hand": "right"
    },
    {
      "midi": 62,
      "time": 44.25,
      "duration": 0.15,
      "velocity": 0.63,
      "hand": "right"
    },
    {
      "midi": 71,
      "time": 44.25,
      "duration": 0.15,
      "velocity": 0.87,
      "hand": "right"
    },
    {
      "midi": 83,
      "time": 44.25,
      "duration": 0.15,
      "velocity": 0.63,
      "hand": "right"
    },
    {
      "midi": 38,
      "time": 44.4,
      "duration": 0.075,
      "velocity": 0.63,
      "hand": "left"
    },
    {
      "midi": 42,
      "time": 44.4,
      "duration": 0.075,
      "velocity": 0.63,
      "hand": "left"
    },
    {
      "midi": 44,
      "time": 44.4,
      "duration": 0.075,
      "velocity": 0.63,
      "hand": "left"
    },
    {
      "midi": 45,
      "time": 44.4,
      "duration": 0.15,
      "velocity": 1,
      "hand": "left"
    },
    {
      "midi": 48,
      "time": 44.4,
      "duration": 0.45,
      "velocity": 1,
      "hand": "left"
    },
    {
      "midi": 51,
      "time": 44.4,
      "duration": 0.075,
      "velocity": 0.63,
      "hand": "left"
    },
    {
      "midi": 60,
      "time": 44.4,
      "duration": 0.075,
      "velocity": 0.63,
      "hand": "right"
    },
    {
      "midi": 69,
      "time": 44.4,
      "duration": 0.075,
      "velocity": 0.99,
      "hand": "right"
    },
    {
      "midi": 69,
      "time": 44.4,
      "duration": 0.15,
      "velocity": 0.92,
      "hand": "right"
    },
    {
      "midi": 72,
      "time": 44.4,
      "duration": 0.075,
      "velocity": 1,
      "hand": "right"
    },
    {
      "midi": 76,
      "time": 44.4,
      "duration": 0.075,
      "velocity": 1,
      "hand": "right"
    },
    {
      "midi": 81,
      "time": 44.4,
      "duration": 0.15,
      "velocity": 0.63,
      "hand": "right"
    },
    {
      "midi": 44,
      "time": 44.7,
      "duration": 0.075,
      "velocity": 0.63,
      "hand": "left"
    },
    {
      "midi": 46,
      "time": 44.7,
      "duration": 0.075,
      "velocity": 0.63,
      "hand": "left"
    },
    {
      "midi": 57,
      "time": 44.7,
      "duration": 0.15,
      "velocity": 1,
      "hand": "left"
    },
    {
      "midi": 60,
      "time": 44.7,
      "duration": 0.075,
      "velocity": 0.63,
      "hand": "right"
    },
    {
      "midi": 60,
      "time": 44.7,
      "duration": 0.15,
      "velocity": 0.63,
      "hand": "right"
    },
    {
      "midi": 69,
      "time": 44.7,
      "duration": 0.075,
      "velocity": 0.97,
      "hand": "right"
    },
    {
      "midi": 72,
      "time": 44.7,
      "duration": 0.075,
      "velocity": 1,
      "hand": "right"
    },
    {
      "midi": 76,
      "time": 44.7,
      "duration": 0.075,
      "velocity": 0.99,
      "hand": "right"
    },
    {
      "midi": 81,
      "time": 44.7,
      "duration": 0.075,
      "velocity": 0.63,
      "hand": "right"
    },
    {
      "midi": 44,
      "time": 44.85,
      "duration": 0.075,
      "velocity": 0.63,
      "hand": "left"
    },
    {
      "midi": 46,
      "time": 44.85,
      "duration": 0.075,
      "velocity": 0.63,
      "hand": "left"
    },
    {
      "midi": 69,
      "time": 44.85,
      "duration": 0.075,
      "velocity": 0.39,
      "hand": "right"
    },
    {
      "midi": 69,
      "time": 44.85,
      "duration": 0.15,
      "velocity": 0.85,
      "hand": "right"
    },
    {
      "midi": 72,
      "time": 44.85,
      "duration": 0.15,
      "velocity": 0.79,
      "hand": "right"
    },
    {
      "midi": 74,
      "time": 44.85,
      "duration": 0.075,
      "velocity": 0.76,
      "hand": "right"
    },
    {
      "midi": 76,
      "time": 44.85,
      "duration": 0.075,
      "velocity": 0.57,
      "hand": "right"
    },
    {
      "midi": 81,
      "time": 44.85,
      "duration": 0.15,
      "velocity": 0.63,
      "hand": "right"
    },
    {
      "midi": 38,
      "time": 45,
      "duration": 0.3,
      "velocity": 1,
      "hand": "left"
    },
    {
      "midi": 42,
      "time": 45,
      "duration": 0.3,
      "velocity": 0.63,
      "hand": "left"
    },
    {
      "midi": 46,
      "time": 45,
      "duration": 0.075,
      "velocity": 0.63,
      "hand": "left"
    },
    {
      "midi": 50,
      "time": 45,
      "duration": 0.6,
      "velocity": 1,
      "hand": "left"
    },
    {
      "midi": 51,
      "time": 45,
      "duration": 0.15,
      "velocity": 0.63,
      "hand": "left"
    },
    {
      "midi": 66,
      "time": 45,
      "duration": 0.15,
      "velocity": 1,
      "hand": "right"
    },
    {
      "midi": 72,
      "time": 45,
      "duration": 0.15,
      "velocity": 1,
      "hand": "right"
    },
    {
      "midi": 74,
      "time": 45,
      "duration": 0.075,
      "velocity": 1,
      "hand": "right"
    },
    {
      "midi": 74,
      "time": 45,
      "duration": 0.15,
      "velocity": 1,
      "hand": "right"
    },
    {
      "midi": 86,
      "time": 45,
      "duration": 0.15,
      "velocity": 0.63,
      "hand": "right"
    },
    {
      "midi": 86,
      "time": 45,
      "duration": 0.075,
      "velocity": 1,
      "hand": "right"
    },
    {
      "midi": 46,
      "time": 45.3,
      "duration": 0.075,
      "velocity": 0.63,
      "hand": "left"
    },
    {
      "midi": 54,
      "time": 45.3,
      "duration": 0.15,
      "velocity": 0.93,
      "hand": "left"
    },
    {
      "midi": 62,
      "time": 45.3,
      "duration": 0.3,
      "velocity": 0.63,
      "hand": "right"
    },
    {
      "midi": 66,
      "time": 45.3,
      "duration": 0.15,
      "velocity": 1,
      "hand": "right"
    },
    {
      "midi": 72,
      "time": 45.3,
      "duration": 0.075,
      "velocity": 1,
      "hand": "right"
    },
    {
      "midi": 74,
      "time": 45.3,
      "duration": 0.075,
      "velocity": 1,
      "hand": "right"
    },
    {
      "midi": 74,
      "time": 45.3,
      "duration": 0.3,
      "velocity": 1,
      "hand": "right"
    },
    {
      "midi": 74,
      "time": 45.3,
      "duration": 0.15,
      "velocity": 1,
      "hand": "right"
    },
    {
      "midi": 86,
      "time": 45.3,
      "duration": 0.15,
      "velocity": 0.63,
      "hand": "right"
    },
    {
      "midi": 86,
      "time": 45.3,
      "duration": 0.3,
      "velocity": 1,
      "hand": "right"
    },
    {
      "midi": 67,
      "time": 45.45,
      "duration": 0.15,
      "velocity": 1,
      "hand": "right"
    },
    {
      "midi": 38,
      "time": 45.6,
      "duration": 0.075,
      "velocity": 0.63,
      "hand": "left"
    },
    {
      "midi": 42,
      "time": 45.6,
      "duration": 0.075,
      "velocity": 0.63,
      "hand": "left"
    },
    {
      "midi": 43,
      "time": 45.6,
      "duration": 0.15,
      "velocity": 1,
      "hand": "left"
    },
    {
      "midi": 44,
      "time": 45.6,
      "duration": 0.075,
      "velocity": 0.63,
      "hand": "left"
    },
    {
      "midi": 46,
      "time": 45.6,
      "duration": 0.075,
      "velocity": 0.63,
      "hand": "left"
    },
    {
      "midi": 51,
      "time": 45.6,
      "duration": 0.15,
      "velocity": 0.63,
      "hand": "left"
    },
    {
      "midi": 55,
      "time": 45.6,
      "duration": 0.075,
      "velocity": 1,
      "hand": "left"
    },
    {
      "midi": 55,
      "time": 45.6,
      "duration": 0.6,
      "velocity": 0.97,
      "hand": "left"
    },
    {
      "midi": 67,
      "time": 45.6,
      "duration": 0.15,
      "velocity": 1,
      "hand": "right"
    },
    {
      "midi": 67,
      "time": 45.6,
      "duration": 1.95,
      "velocity": 0.63,
      "hand": "right"
    },
    {
      "midi": 69,
      "time": 45.6,
      "duration": 0.15,
      "velocity": 0.83,
      "hand": "right"
    },
    {
      "midi": 71,
      "time": 45.6,
      "duration": 0.3,
      "velocity": 1,
      "hand": "right"
    },
    {
      "midi": 74,
      "time": 45.6,
      "duration": 1.35,
      "velocity": 1,
      "hand": "right"
    },
    {
      "midi": 79,
      "time": 45.6,
      "duration": 1.35,
      "velocity": 0.63,
      "hand": "right"
    },
    {
      "midi": 79,
      "time": 45.6,
      "duration": 1.95,
      "velocity": 1,
      "hand": "right"
    },
    {
      "midi": 67,
      "time": 45.9,
      "duration": 0.075,
      "velocity": 0.79,
      "hand": "right"
    },
    {
      "midi": 38,
      "time": 46.2,
      "duration": 0.3,
      "velocity": 1,
      "hand": "left"
    },
    {
      "midi": 38,
      "time": 46.2,
      "duration": 0.15,
      "velocity": 0.63,
      "hand": "left"
    },
    {
      "midi": 42,
      "time": 46.2,
      "duration": 0.15,
      "velocity": 0.63,
      "hand": "left"
    },
    {
      "midi": 44,
      "time": 46.2,
      "duration": 0.15,
      "velocity": 0.63,
      "hand": "left"
    },
    {
      "midi": 46,
      "time": 46.2,
      "duration": 0.15,
      "velocity": 0.63,
      "hand": "left"
    },
    {
      "midi": 50,
      "time": 46.2,
      "duration": 0.6,
      "velocity": 1,
      "hand": "left"
    },
    {
      "midi": 50,
      "time": 46.2,
      "duration": 0.45,
      "velocity": 0.81,
      "hand": "left"
    },
    {
      "midi": 67,
      "time": 46.2,
      "duration": 0.075,
      "velocity": 0.89,
      "hand": "right"
    },
    {
      "midi": 71,
      "time": 46.2,
      "duration": 0.075,
      "velocity": 0.85,
      "hand": "right"
    },
    {
      "midi": 67,
      "time": 46.5,
      "duration": 0.075,
      "velocity": 0.79,
      "hand": "right"
    },
    {
      "midi": 71,
      "time": 46.5,
      "duration": 0.075,
      "velocity": 0.72,
      "hand": "right"
    },
    {
      "midi": 42,
      "time": 46.65,
      "duration": 0.075,
      "velocity": 0.63,
      "hand": "left"
    },
    {
      "midi": 50,
      "time": 46.65,
      "duration": 0.075,
      "velocity": 0.89,
      "hand": "left"
    },
    {
      "midi": 38,
      "time": 46.8,
      "duration": 0.15,
      "velocity": 0.63,
      "hand": "left"
    },
    {
      "midi": 42,
      "time": 46.8,
      "duration": 0.15,
      "velocity": 0.63,
      "hand": "left"
    },
    {
      "midi": 43,
      "time": 46.8,
      "duration": 0.3,
      "velocity": 1,
      "hand": "left"
    },
    {
      "midi": 43,
      "time": 46.8,
      "duration": 0.6,
      "velocity": 0.99,
      "hand": "left"
    },
    {
      "midi": 44,
      "time": 46.8,
      "duration": 0.075,
      "velocity": 0.63,
      "hand": "left"
    },
    {
      "midi": 46,
      "time": 46.8,
      "duration": 0.075,
      "velocity": 0.63,
      "hand": "left"
    },
    {
      "midi": 51,
      "time": 46.8,
      "duration": 0.075,
      "velocity": 0.63,
      "hand": "left"
    },
    {
      "midi": 55,
      "time": 46.8,
      "duration": 0.3,
      "velocity": 1,
      "hand": "left"
    },
    {
      "midi": 67,
      "time": 46.8,
      "duration": 0.15,
      "velocity": 1,
      "hand": "right"
    },
    {
      "midi": 71,
      "time": 46.8,
      "duration": 0.15,
      "velocity": 1,
      "hand": "right"
    },
    {
      "midi": 38,
      "time": 47.1,
      "duration": 0.15,
      "velocity": 1,
      "hand": "left"
    },
    {
      "midi": 38,
      "time": 47.1,
      "duration": 0.075,
      "velocity": 0.63,
      "hand": "left"
    },
    {
      "midi": 50,
      "time": 47.1,
      "duration": 0.15,
      "velocity": 1,
      "hand": "left"
    },
    {
      "midi": 38,
      "time": 47.25,
      "duration": 0.075,
      "velocity": 0.63,
      "hand": "left"
    },
    {
      "midi": 38,
      "time": 47.4,
      "duration": 0.075,
      "velocity": 0.63,
      "hand": "left"
    },
    {
      "midi": 40,
      "time": 47.4,
      "duration": 0.15,
      "velocity": 1,
      "hand": "left"
    },
    {
      "midi": 52,
      "time": 47.4,
      "duration": 0.15,
      "velocity": 1,
      "hand": "left"
    },
    {
      "midi": 38,
      "time": 47.7,
      "duration": 0.075,
      "velocity": 0.63,
      "hand": "left"
    },
    {
      "midi": 42,
      "time": 47.7,
      "duration": 0.15,
      "velocity": 1,
      "hand": "left"
    },
    {
      "midi": 54,
      "time": 47.7,
      "duration": 0.15,
      "velocity": 1,
      "hand": "left"
    },
    {
      "midi": 38,
      "time": 48,
      "duration": 0.75,
      "velocity": 0.63,
      "hand": "left"
    },
    {
      "midi": 43,
      "time": 48,
      "duration": 0.9,
      "velocity": 1,
      "hand": "left"
    },
    {
      "midi": 44,
      "time": 48,
      "duration": 0.075,
      "velocity": 0.63,
      "hand": "left"
    },
    {
      "midi": 51,
      "time": 48,
      "duration": 0.075,
      "velocity": 0.63,
      "hand": "left"
    },
    {
      "midi": 55,
      "time": 48,
      "duration": 0.9,
      "velocity": 1,
      "hand": "left"
    },
    {
      "midi": 62,
      "time": 48,
      "duration": 0.075,
      "velocity": 0.92,
      "hand": "right"
    },
    {
      "midi": 67,
      "time": 48,
      "duration": 0.075,
      "velocity": 0.99,
      "hand": "right"
    },
    {
      "midi": 71,
      "time": 48,
      "duration": 0.075,
      "velocity": 0.97,
      "hand": "right"
    },
    {
      "midi": 71,
      "time": 48,
      "duration": 0.9,
      "velocity": 0.91,
      "hand": "right"
    },
    {
      "midi": 44,
      "time": 48.3,
      "duration": 0.075,
      "velocity": 0.63,
      "hand": "left"
    },
    {
      "midi": 62,
      "time": 48.3,
      "duration": 0.15,
      "velocity": 0.89,
      "hand": "right"
    },
    {
      "midi": 67,
      "time": 48.3,
      "duration": 0.075,
      "velocity": 1,
      "hand": "right"
    },
    {
      "midi": 71,
      "time": 48.3,
      "duration": 0.075,
      "velocity": 0.92,
      "hand": "right"
    },
    {
      "midi": 44,
      "time": 48.45,
      "duration": 0.15,
      "velocity": 0.63,
      "hand": "left"
    },
    {
      "midi": 62,
      "time": 48.45,
      "duration": 0.075,
      "velocity": 0.67,
      "hand": "right"
    },
    {
      "midi": 67,
      "time": 48.45,
      "duration": 0.075,
      "velocity": 0.92,
      "hand": "right"
    },
    {
      "midi": 71,
      "time": 48.45,
      "duration": 0.075,
      "velocity": 0.73,
      "hand": "right"
    },
    {
      "midi": 44,
      "time": 48.6,
      "duration": 0.075,
      "velocity": 0.63,
      "hand": "left"
    },
    {
      "midi": 62,
      "time": 48.6,
      "duration": 0.075,
      "velocity": 0.92,
      "hand": "right"
    },
    {
      "midi": 67,
      "time": 48.6,
      "duration": 0.075,
      "velocity": 1,
      "hand": "right"
    },
    {
      "midi": 71,
      "time": 48.6,
      "duration": 0.15,
      "velocity": 1,
      "hand": "right"
    },
    {
      "midi": 38,
      "time": 48.9,
      "duration": 0.3,
      "velocity": 1,
      "hand": "left"
    },
    {
      "midi": 42,
      "time": 48.9,
      "duration": 0.3,
      "velocity": 0.63,
      "hand": "left"
    },
    {
      "midi": 46,
      "time": 48.9,
      "duration": 0.075,
      "velocity": 0.63,
      "hand": "left"
    },
    {
      "midi": 64,
      "time": 48.9,
      "duration": 0.075,
      "velocity": 0.89,
      "hand": "right"
    },
    {
      "midi": 67,
      "time": 48.9,
      "duration": 0.15,
      "velocity": 1,
      "hand": "right"
    },
    {
      "midi": 72,
      "time": 48.9,
      "duration": 0.15,
      "velocity": 1,
      "hand": "right"
    },
    {
      "midi": 72,
      "time": 48.9,
      "duration": 0.3,
      "velocity": 0.87,
      "hand": "right"
    },
    {
      "midi": 38,
      "time": 49.2,
      "duration": 1.05,
      "velocity": 0.63,
      "hand": "left"
    },
    {
      "midi": 43,
      "time": 49.2,
      "duration": 0.9,
      "velocity": 1,
      "hand": "left"
    },
    {
      "midi": 44,
      "time": 49.2,
      "duration": 0.075,
      "velocity": 0.63,
      "hand": "left"
    },
    {
      "midi": 62,
      "time": 49.2,
      "duration": 0.15,
      "velocity": 1,
      "hand": "right"
    },
    {
      "midi": 67,
      "time": 49.2,
      "duration": 0.15,
      "velocity": 1,
      "hand": "right"
    },
    {
      "midi": 71,
      "time": 49.2,
      "duration": 0.15,
      "velocity": 1,
      "hand": "right"
    },
    {
      "midi": 71,
      "time": 49.2,
      "duration": 0.9,
      "velocity": 0.93,
      "hand": "right"
    },
    {
      "midi": 44,
      "time": 49.5,
      "duration": 0.075,
      "velocity": 0.63,
      "hand": "left"
    },
    {
      "midi": 62,
      "time": 49.5,
      "duration": 0.15,
      "velocity": 0.97,
      "hand": "right"
    },
    {
      "midi": 67,
      "time": 49.5,
      "duration": 0.075,
      "velocity": 1,
      "hand": "right"
    },
    {
      "midi": 71,
      "time": 49.5,
      "duration": 0.075,
      "velocity": 0.97,
      "hand": "right"
    },
    {
      "midi": 44,
      "time": 49.65,
      "duration": 0.075,
      "velocity": 0.63,
      "hand": "left"
    },
    {
      "midi": 62,
      "time": 49.65,
      "duration": 0.075,
      "velocity": 0.68,
      "hand": "right"
    },
    {
      "midi": 67,
      "time": 49.65,
      "duration": 0.075,
      "velocity": 0.87,
      "hand": "right"
    },
    {
      "midi": 71,
      "time": 49.65,
      "duration": 0.075,
      "velocity": 0.83,
      "hand": "right"
    },
    {
      "midi": 44,
      "time": 49.8,
      "duration": 0.15,
      "velocity": 0.63,
      "hand": "left"
    },
    {
      "midi": 62,
      "time": 49.8,
      "duration": 0.15,
      "velocity": 0.79,
      "hand": "right"
    },
    {
      "midi": 67,
      "time": 49.8,
      "duration": 0.15,
      "velocity": 0.97,
      "hand": "right"
    },
    {
      "midi": 71,
      "time": 49.8,
      "duration": 0.15,
      "velocity": 0.89,
      "hand": "right"
    },
    {
      "midi": 38,
      "time": 50.1,
      "duration": 0.15,
      "velocity": 1,
      "hand": "left"
    },
    {
      "midi": 42,
      "time": 50.1,
      "duration": 0.15,
      "velocity": 0.63,
      "hand": "left"
    },
    {
      "midi": 46,
      "time": 50.1,
      "duration": 0.075,
      "velocity": 0.63,
      "hand": "left"
    },
    {
      "midi": 64,
      "time": 50.1,
      "duration": 0.075,
      "velocity": 1,
      "hand": "right"
    },
    {
      "midi": 67,
      "time": 50.1,
      "duration": 0.075,
      "velocity": 0.97,
      "hand": "right"
    },
    {
      "midi": 68,
      "time": 50.1,
      "duration": 0.075,
      "velocity": 0.94,
      "hand": "right"
    },
    {
      "midi": 72,
      "time": 50.1,
      "duration": 0.15,
      "velocity": 1,
      "hand": "right"
    },
    {
      "midi": 38,
      "time": 50.4,
      "duration": 0.3,
      "velocity": 0.63,
      "hand": "left"
    },
    {
      "midi": 43,
      "time": 50.4,
      "duration": 0.15,
      "velocity": 1,
      "hand": "left"
    },
    {
      "midi": 44,
      "time": 50.4,
      "duration": 0.075,
      "velocity": 0.63,
      "hand": "left"
    },
    {
      "midi": 62,
      "time": 50.4,
      "duration": 0.15,
      "velocity": 1,
      "hand": "right"
    },
    {
      "midi": 67,
      "time": 50.4,
      "duration": 0.15,
      "velocity": 0.97,
      "hand": "right"
    },
    {
      "midi": 71,
      "time": 50.4,
      "duration": 0.15,
      "velocity": 1,
      "hand": "right"
    },
    {
      "midi": 71,
      "time": 50.4,
      "duration": 0.075,
      "velocity": 1,
      "hand": "right"
    },
    {
      "midi": 38,
      "time": 50.7,
      "duration": 0.15,
      "velocity": 1,
      "hand": "left"
    },
    {
      "midi": 42,
      "time": 50.7,
      "duration": 0.15,
      "velocity": 0.63,
      "hand": "left"
    },
    {
      "midi": 44,
      "time": 50.7,
      "duration": 0.15,
      "velocity": 0.63,
      "hand": "left"
    },
    {
      "midi": 62,
      "time": 50.7,
      "duration": 0.075,
      "velocity": 1,
      "hand": "right"
    },
    {
      "midi": 67,
      "time": 50.7,
      "duration": 0.075,
      "velocity": 1,
      "hand": "right"
    },
    {
      "midi": 71,
      "time": 50.7,
      "duration": 0.075,
      "velocity": 1,
      "hand": "right"
    },
    {
      "midi": 71,
      "time": 50.7,
      "duration": 0.15,
      "velocity": 1,
      "hand": "right"
    },
    {
      "midi": 46,
      "time": 50.85,
      "duration": 0.15,
      "velocity": 0.63,
      "hand": "left"
    },
    {
      "midi": 64,
      "time": 50.85,
      "duration": 0.075,
      "velocity": 0.79,
      "hand": "right"
    },
    {
      "midi": 67,
      "time": 50.85,
      "duration": 0.075,
      "velocity": 0.87,
      "hand": "right"
    },
    {
      "midi": 68,
      "time": 50.85,
      "duration": 0.075,
      "velocity": 0.79,
      "hand": "right"
    },
    {
      "midi": 72,
      "time": 50.85,
      "duration": 0.075,
      "velocity": 1,
      "hand": "right"
    },
    {
      "midi": 72,
      "time": 50.85,
      "duration": 0.15,
      "velocity": 0.95,
      "hand": "right"
    },
    {
      "midi": 38,
      "time": 51,
      "duration": 0.15,
      "velocity": 0.63,
      "hand": "left"
    },
    {
      "midi": 43,
      "time": 51,
      "duration": 0.15,
      "velocity": 1,
      "hand": "left"
    },
    {
      "midi": 44,
      "time": 51,
      "duration": 0.075,
      "velocity": 0.63,
      "hand": "left"
    },
    {
      "midi": 62,
      "time": 51,
      "duration": 0.075,
      "velocity": 1,
      "hand": "right"
    },
    {
      "midi": 67,
      "time": 51,
      "duration": 0.075,
      "velocity": 0.99,
      "hand": "right"
    },
    {
      "midi": 71,
      "time": 51,
      "duration": 0.075,
      "velocity": 0.99,
      "hand": "right"
    },
    {
      "midi": 38,
      "time": 51.3,
      "duration": 0.15,
      "velocity": 1,
      "hand": "left"
    },
    {
      "midi": 42,
      "time": 51.3,
      "duration": 0.15,
      "velocity": 0.63,
      "hand": "left"
    },
    {
      "midi": 44,
      "time": 51.3,
      "duration": 0.15,
      "velocity": 0.63,
      "hand": "left"
    },
    {
      "midi": 64,
      "time": 51.3,
      "duration": 0.075,
      "velocity": 0.97,
      "hand": "right"
    },
    {
      "midi": 67,
      "time": 51.3,
      "duration": 0.075,
      "velocity": 0.97,
      "hand": "right"
    },
    {
      "midi": 68,
      "time": 51.3,
      "duration": 0.075,
      "velocity": 0.87,
      "hand": "right"
    },
    {
      "midi": 72,
      "time": 51.3,
      "duration": 0.075,
      "velocity": 1,
      "hand": "right"
    },
    {
      "midi": 72,
      "time": 51.3,
      "duration": 0.15,
      "velocity": 1,
      "hand": "right"
    },
    {
      "midi": 46,
      "time": 51.45,
      "duration": 0.15,
      "velocity": 0.63,
      "hand": "left"
    },
    {
      "midi": 38,
      "time": 51.6,
      "duration": 1.05,
      "velocity": 0.63,
      "hand": "left"
    },
    {
      "midi": 43,
      "time": 51.6,
      "duration": 0.75,
      "velocity": 1,
      "hand": "left"
    },
    {
      "midi": 44,
      "time": 51.6,
      "duration": 0.075,
      "velocity": 0.63,
      "hand": "left"
    },
    {
      "midi": 62,
      "time": 51.6,
      "duration": 0.45,
      "velocity": 1,
      "hand": "right"
    },
    {
      "midi": 67,
      "time": 51.6,
      "duration": 0.15,
      "velocity": 1,
      "hand": "right"
    },
    {
      "midi": 71,
      "time": 51.6,
      "duration": 0.45,
      "velocity": 1,
      "hand": "right"
    },
    {
      "midi": 71,
      "time": 51.6,
      "duration": 1.2,
      "velocity": 1,
      "hand": "right"
    },
    {
      "midi": 44,
      "time": 51.9,
      "duration": 0.15,
      "velocity": 0.63,
      "hand": "left"
    },
    {
      "midi": 62,
      "time": 51.9,
      "duration": 0.3,
      "velocity": 0.89,
      "hand": "right"
    },
    {
      "midi": 67,
      "time": 51.9,
      "duration": 0.15,
      "velocity": 0.77,
      "hand": "right"
    },
    {
      "midi": 86,
      "time": 51.9,
      "duration": 0.15,
      "velocity": 0.92,
      "hand": "right"
    },
    {
      "midi": 91,
      "time": 52.05,
      "duration": 0.15,
      "velocity": 0.8,
      "hand": "right"
    },
    {
      "midi": 44,
      "time": 52.2,
      "duration": 0.15,
      "velocity": 0.63,
      "hand": "left"
    },
    {
      "midi": 59,
      "time": 52.2,
      "duration": 0.3,
      "velocity": 0.92,
      "hand": "left"
    },
    {
      "midi": 69,
      "time": 52.2,
      "duration": 0.075,
      "velocity": 0.76,
      "hand": "right"
    },
    {
      "midi": 72,
      "time": 52.2,
      "duration": 0.15,
      "velocity": 1,
      "hand": "right"
    },
    {
      "midi": 86,
      "time": 52.2,
      "duration": 0.075,
      "velocity": 0.92,
      "hand": "right"
    },
    {
      "midi": 44,
      "time": 52.5,
      "duration": 0.15,
      "velocity": 0.63,
      "hand": "left"
    },
    {
      "midi": 55,
      "time": 52.5,
      "duration": 0.3,
      "velocity": 1,
      "hand": "left"
    },
    {
      "midi": 67,
      "time": 52.5,
      "duration": 0.075,
      "velocity": 0.81,
      "hand": "right"
    },
    {
      "midi": 69,
      "time": 52.5,
      "duration": 0.075,
      "velocity": 0.73,
      "hand": "right"
    },
    {
      "midi": 70,
      "time": 52.5,
      "duration": 0.075,
      "velocity": 1,
      "hand": "right"
    },
    {
      "midi": 73,
      "time": 52.5,
      "duration": 0.075,
      "velocity": 1,
      "hand": "right"
    },
    {
      "midi": 83,
      "time": 52.5,
      "duration": 0.075,
      "velocity": 0.92,
      "hand": "right"
    },
    {
      "midi": 38,
      "time": 52.8,
      "duration": 0.9,
      "velocity": 0.63,
      "hand": "left"
    },
    {
      "midi": 43,
      "time": 52.8,
      "duration": 0.75,
      "velocity": 1,
      "hand": "left"
    },
    {
      "midi": 44,
      "time": 52.8,
      "duration": 0.15,
      "velocity": 0.63,
      "hand": "left"
    },
    {
      "midi": 50,
      "time": 52.8,
      "duration": 1.95,
      "velocity": 1,
      "hand": "left"
    },
    {
      "midi": 51,
      "time": 52.8,
      "duration": 0.075,
      "velocity": 0.63,
      "hand": "left"
    },
    {
      "midi": 67,
      "time": 52.8,
      "duration": 0.15,
      "velocity": 1,
      "hand": "right"
    },
    {
      "midi": 71,
      "time": 52.8,
      "duration": 0.15,
      "velocity": 1,
      "hand": "right"
    },
    {
      "midi": 74,
      "time": 52.8,
      "duration": 0.15,
      "velocity": 1,
      "hand": "right"
    },
    {
      "midi": 79,
      "time": 52.8,
      "duration": 2.4,
      "velocity": 0.92,
      "hand": "right"
    },
    {
      "midi": 44,
      "time": 53.1,
      "duration": 0.075,
      "velocity": 0.63,
      "hand": "left"
    },
    {
      "midi": 67,
      "time": 53.1,
      "duration": 0.075,
      "velocity": 1,
      "hand": "right"
    },
    {
      "midi": 67,
      "time": 53.1,
      "duration": 0.6,
      "velocity": 1,
      "hand": "right"
    },
    {
      "midi": 71,
      "time": 53.1,
      "duration": 0.075,
      "velocity": 1,
      "hand": "right"
    },
    {
      "midi": 74,
      "time": 53.1,
      "duration": 0.075,
      "velocity": 1,
      "hand": "right"
    },
    {
      "midi": 44,
      "time": 53.25,
      "duration": 0.075,
      "velocity": 0.63,
      "hand": "left"
    },
    {
      "midi": 67,
      "time": 53.25,
      "duration": 0.075,
      "velocity": 0.94,
      "hand": "right"
    },
    {
      "midi": 71,
      "time": 53.25,
      "duration": 0.075,
      "velocity": 1,
      "hand": "right"
    },
    {
      "midi": 74,
      "time": 53.25,
      "duration": 0.075,
      "velocity": 0.99,
      "hand": "right"
    },
    {
      "midi": 44,
      "time": 53.4,
      "duration": 0.075,
      "velocity": 0.63,
      "hand": "left"
    },
    {
      "midi": 67,
      "time": 53.4,
      "duration": 0.15,
      "velocity": 0.92,
      "hand": "right"
    },
    {
      "midi": 71,
      "time": 53.4,
      "duration": 0.15,
      "velocity": 0.94,
      "hand": "right"
    },
    {
      "midi": 74,
      "time": 53.4,
      "duration": 0.15,
      "velocity": 0.94,
      "hand": "right"
    },
    {
      "midi": 42,
      "time": 53.7,
      "duration": 0.15,
      "velocity": 0.63,
      "hand": "left"
    },
    {
      "midi": 46,
      "time": 53.7,
      "duration": 0.15,
      "velocity": 0.63,
      "hand": "left"
    },
    {
      "midi": 50,
      "time": 53.7,
      "duration": 0.15,
      "velocity": 1,
      "hand": "left"
    },
    {
      "midi": 66,
      "time": 53.7,
      "duration": 0.075,
      "velocity": 1,
      "hand": "right"
    },
    {
      "midi": 67,
      "time": 53.7,
      "duration": 0.075,
      "velocity": 1,
      "hand": "right"
    },
    {
      "midi": 70,
      "time": 53.7,
      "duration": 0.075,
      "velocity": 1,
      "hand": "right"
    },
    {
      "midi": 73,
      "time": 53.7,
      "duration": 0.075,
      "velocity": 1,
      "hand": "right"
    },
    {
      "midi": 38,
      "time": 54,
      "duration": 0.9,
      "velocity": 0.63,
      "hand": "left"
    },
    {
      "midi": 43,
      "time": 54,
      "duration": 0.75,
      "velocity": 1,
      "hand": "left"
    },
    {
      "midi": 44,
      "time": 54,
      "duration": 0.075,
      "velocity": 0.63,
      "hand": "left"
    },
    {
      "midi": 67,
      "time": 54,
      "duration": 0.075,
      "velocity": 1,
      "hand": "right"
    },
    {
      "midi": 67,
      "time": 54,
      "duration": 0.15,
      "velocity": 1,
      "hand": "right"
    },
    {
      "midi": 71,
      "time": 54,
      "duration": 0.075,
      "velocity": 1,
      "hand": "right"
    },
    {
      "midi": 74,
      "time": 54,
      "duration": 0.075,
      "velocity": 1,
      "hand": "right"
    },
    {
      "midi": 44,
      "time": 54.3,
      "duration": 0.075,
      "velocity": 0.63,
      "hand": "left"
    },
    {
      "midi": 67,
      "time": 54.3,
      "duration": 0.075,
      "velocity": 0.99,
      "hand": "right"
    },
    {
      "midi": 67,
      "time": 54.3,
      "duration": 0.45,
      "velocity": 1,
      "hand": "right"
    },
    {
      "midi": 71,
      "time": 54.3,
      "duration": 0.075,
      "velocity": 1,
      "hand": "right"
    },
    {
      "midi": 74,
      "time": 54.3,
      "duration": 0.075,
      "velocity": 1,
      "hand": "right"
    },
    {
      "midi": 44,
      "time": 54.45,
      "duration": 0.075,
      "velocity": 0.63,
      "hand": "left"
    },
    {
      "midi": 67,
      "time": 54.45,
      "duration": 0.075,
      "velocity": 0.81,
      "hand": "right"
    },
    {
      "midi": 71,
      "time": 54.45,
      "duration": 0.075,
      "velocity": 0.85,
      "hand": "right"
    },
    {
      "midi": 74,
      "time": 54.45,
      "duration": 0.075,
      "velocity": 0.76,
      "hand": "right"
    },
    {
      "midi": 44,
      "time": 54.6,
      "duration": 0.075,
      "velocity": 0.63,
      "hand": "left"
    },
    {
      "midi": 67,
      "time": 54.6,
      "duration": 0.075,
      "velocity": 1,
      "hand": "right"
    },
    {
      "midi": 71,
      "time": 54.6,
      "duration": 0.075,
      "velocity": 1,
      "hand": "right"
    },
    {
      "midi": 74,
      "time": 54.6,
      "duration": 0.15,
      "velocity": 1,
      "hand": "right"
    },
    {
      "midi": 42,
      "time": 54.9,
      "duration": 0.15,
      "velocity": 0.63,
      "hand": "left"
    },
    {
      "midi": 46,
      "time": 54.9,
      "duration": 0.075,
      "velocity": 0.63,
      "hand": "left"
    },
    {
      "midi": 50,
      "time": 54.9,
      "duration": 0.3,
      "velocity": 1,
      "hand": "left"
    },
    {
      "midi": 66,
      "time": 54.9,
      "duration": 0.15,
      "velocity": 1,
      "hand": "right"
    },
    {
      "midi": 67,
      "time": 54.9,
      "duration": 0.075,
      "velocity": 1,
      "hand": "right"
    },
    {
      "midi": 70,
      "time": 54.9,
      "duration": 0.075,
      "velocity": 1,
      "hand": "right"
    },
    {
      "midi": 73,
      "time": 54.9,
      "duration": 0.15,
      "velocity": 1,
      "hand": "right"
    },
    {
      "midi": 38,
      "time": 55.2,
      "duration": 0.15,
      "velocity": 0.63,
      "hand": "left"
    },
    {
      "midi": 43,
      "time": 55.2,
      "duration": 0.15,
      "velocity": 1,
      "hand": "left"
    },
    {
      "midi": 44,
      "time": 55.2,
      "duration": 0.15,
      "velocity": 0.63,
      "hand": "left"
    },
    {
      "midi": 67,
      "time": 55.2,
      "duration": 0.15,
      "velocity": 0.99,
      "hand": "right"
    },
    {
      "midi": 71,
      "time": 55.2,
      "duration": 0.075,
      "velocity": 1,
      "hand": "right"
    },
    {
      "midi": 74,
      "time": 55.2,
      "duration": 0.075,
      "velocity": 1,
      "hand": "right"
    },
    {
      "midi": 42,
      "time": 55.5,
      "duration": 0.15,
      "velocity": 0.63,
      "hand": "left"
    },
    {
      "midi": 44,
      "time": 55.5,
      "duration": 0.15,
      "velocity": 0.63,
      "hand": "left"
    },
    {
      "midi": 50,
      "time": 55.5,
      "duration": 0.15,
      "velocity": 1,
      "hand": "left"
    },
    {
      "midi": 67,
      "time": 55.5,
      "duration": 0.15,
      "velocity": 1,
      "hand": "right"
    },
    {
      "midi": 71,
      "time": 55.5,
      "duration": 0.075,
      "velocity": 1,
      "hand": "right"
    },
    {
      "midi": 74,
      "time": 55.5,
      "duration": 0.15,
      "velocity": 0.97,
      "hand": "right"
    },
    {
      "midi": 46,
      "time": 55.65,
      "duration": 0.15,
      "velocity": 0.63,
      "hand": "left"
    },
    {
      "midi": 66,
      "time": 55.65,
      "duration": 0.15,
      "velocity": 1,
      "hand": "right"
    },
    {
      "midi": 67,
      "time": 55.65,
      "duration": 0.075,
      "velocity": 0.55,
      "hand": "right"
    },
    {
      "midi": 70,
      "time": 55.65,
      "duration": 0.15,
      "velocity": 1,
      "hand": "right"
    },
    {
      "midi": 73,
      "time": 55.65,
      "duration": 0.15,
      "velocity": 0.89,
      "hand": "right"
    },
    {
      "midi": 38,
      "time": 55.8,
      "duration": 0.15,
      "velocity": 0.63,
      "hand": "left"
    },
    {
      "midi": 43,
      "time": 55.8,
      "duration": 0.15,
      "velocity": 1,
      "hand": "left"
    },
    {
      "midi": 44,
      "time": 55.8,
      "duration": 0.15,
      "velocity": 0.63,
      "hand": "left"
    },
    {
      "midi": 67,
      "time": 55.8,
      "duration": 0.15,
      "velocity": 0.73,
      "hand": "right"
    },
    {
      "midi": 67,
      "time": 55.8,
      "duration": 0.075,
      "velocity": 1,
      "hand": "right"
    },
    {
      "midi": 70,
      "time": 55.8,
      "duration": 0.075,
      "velocity": 0.52,
      "hand": "right"
    },
    {
      "midi": 71,
      "time": 55.8,
      "duration": 0.075,
      "velocity": 0.81,
      "hand": "right"
    },
    {
      "midi": 74,
      "time": 55.8,
      "duration": 0.075,
      "velocity": 0.89,
      "hand": "right"
    },
    {
      "midi": 42,
      "time": 56.1,
      "duration": 0.15,
      "velocity": 0.63,
      "hand": "left"
    },
    {
      "midi": 46,
      "time": 56.1,
      "duration": 0.15,
      "velocity": 0.63,
      "hand": "left"
    },
    {
      "midi": 50,
      "time": 56.1,
      "duration": 0.15,
      "velocity": 1,
      "hand": "left"
    },
    {
      "midi": 67,
      "time": 56.1,
      "duration": 0.15,
      "velocity": 0.87,
      "hand": "right"
    },
    {
      "midi": 72,
      "time": 56.1,
      "duration": 0.075,
      "velocity": 1,
      "hand": "right"
    },
    {
      "midi": 76,
      "time": 56.1,
      "duration": 0.075,
      "velocity": 0.99,
      "hand": "right"
    },
    {
      "midi": 66,
      "time": 56.25,
      "duration": 0.15,
      "velocity": 1,
      "hand": "right"
    },
    {
      "midi": 38,
      "time": 56.4,
      "duration": 0.15,
      "velocity": 0.63,
      "hand": "left"
    },
    {
      "midi": 43,
      "time": 56.4,
      "duration": 1.2,
      "velocity": 1,
      "hand": "left"
    },
    {
      "midi": 44,
      "time": 56.4,
      "duration": 0.075,
      "velocity": 0.63,
      "hand": "left"
    },
    {
      "midi": 67,
      "time": 56.4,
      "duration": 0.75,
      "velocity": 1,
      "hand": "right"
    },
    {
      "midi": 67,
      "time": 56.4,
      "duration": 0.6,
      "velocity": 1,
      "hand": "right"
    },
    {
      "midi": 71,
      "time": 56.4,
      "duration": 0.15,
      "velocity": 1,
      "hand": "right"
    },
    {
      "midi": 74,
      "time": 56.4,
      "duration": 0.6,
      "velocity": 1,
      "hand": "right"
    },
    {
      "midi": 44,
      "time": 56.7,
      "duration": 0.15,
      "velocity": 0.63,
      "hand": "left"
    },
    {
      "midi": 59,
      "time": 56.7,
      "duration": 0.15,
      "velocity": 0.63,
      "hand": "left"
    },
    {
      "midi": 62,
      "time": 56.7,
      "duration": 0.3,
      "velocity": 0.99,
      "hand": "right"
    },
    {
      "midi": 71,
      "time": 56.7,
      "duration": 0.15,
      "velocity": 0.7,
      "hand": "right"
    },
    {
      "midi": 95,
      "time": 56.7,
      "duration": 0.15,
      "velocity": 0.76,
      "hand": "right"
    },
    {
      "midi": 60,
      "time": 56.85,
      "duration": 0.15,
      "velocity": 0.63,
      "hand": "right"
    },
    {
      "midi": 91,
      "time": 56.85,
      "duration": 0.15,
      "velocity": 0.91,
      "hand": "right"
    },
    {
      "midi": 44,
      "time": 57,
      "duration": 0.15,
      "velocity": 0.63,
      "hand": "left"
    },
    {
      "midi": 59,
      "time": 57,
      "duration": 0.3,
      "velocity": 0.89,
      "hand": "left"
    },
    {
      "midi": 61,
      "time": 57,
      "duration": 0.15,
      "velocity": 0.63,
      "hand": "right"
    },
    {
      "midi": 62,
      "time": 57,
      "duration": 0.3,
      "velocity": 0.79,
      "hand": "right"
    },
    {
      "midi": 72,
      "time": 57,
      "duration": 0.15,
      "velocity": 1,
      "hand": "right"
    },
    {
      "midi": 86,
      "time": 57,
      "duration": 0.15,
      "velocity": 0.92,
      "hand": "right"
    },
    {
      "midi": 44,
      "time": 57.3,
      "duration": 0.075,
      "velocity": 0.63,
      "hand": "left"
    },
    {
      "midi": 55,
      "time": 57.3,
      "duration": 0.3,
      "velocity": 1,
      "hand": "left"
    },
    {
      "midi": 61,
      "time": 57.3,
      "duration": 0.3,
      "velocity": 0.79,
      "hand": "right"
    },
    {
      "midi": 62,
      "time": 57.3,
      "duration": 0.075,
      "velocity": 0.63,
      "hand": "right"
    },
    {
      "midi": 67,
      "time": 57.3,
      "duration": 0.075,
      "velocity": 0.97,
      "hand": "right"
    },
    {
      "midi": 74,
      "time": 57.3,
      "duration": 0.15,
      "velocity": 0.97,
      "hand": "right"
    },
    {
      "midi": 91,
      "time": 57.3,
      "duration": 0.3,
      "velocity": 0.92,
      "hand": "right"
    },
    {
      "midi": 38,
      "time": 57.6,
      "duration": 0.15,
      "velocity": 0.63,
      "hand": "left"
    },
    {
      "midi": 44,
      "time": 57.6,
      "duration": 0.15,
      "velocity": 0.63,
      "hand": "left"
    },
    {
      "midi": 50,
      "time": 57.6,
      "duration": 0.6,
      "velocity": 1,
      "hand": "left"
    },
    {
      "midi": 50,
      "time": 57.6,
      "duration": 1.8,
      "velocity": 1,
      "hand": "left"
    },
    {
      "midi": 51,
      "time": 57.6,
      "duration": 0.15,
      "velocity": 0.63,
      "hand": "left"
    },
    {
      "midi": 60,
      "time": 57.6,
      "duration": 1.5,
      "velocity": 0.79,
      "hand": "right"
    },
    {
      "midi": 66,
      "time": 57.6,
      "duration": 0.15,
      "velocity": 1,
      "hand": "right"
    },
    {
      "midi": 69,
      "time": 57.6,
      "duration": 1.35,
      "velocity": 0.63,
      "hand": "right"
    },
    {
      "midi": 72,
      "time": 57.6,
      "duration": 0.15,
      "velocity": 1,
      "hand": "right"
    },
    {
      "midi": 74,
      "time": 57.6,
      "duration": 0.075,
      "velocity": 1,
      "hand": "right"
    },
    {
      "midi": 90,
      "time": 57.6,
      "duration": 1.35,
      "velocity": 0.92,
      "hand": "right"
    },
    {
      "midi": 42,
      "time": 57.9,
      "duration": 0.075,
      "velocity": 0.63,
      "hand": "left"
    },
    {
      "midi": 46,
      "time": 57.9,
      "duration": 0.075,
      "velocity": 0.63,
      "hand": "left"
    },
    {
      "midi": 66,
      "time": 57.9,
      "duration": 0.075,
      "velocity": 0.94,
      "hand": "right"
    },
    {
      "midi": 72,
      "time": 57.9,
      "duration": 0.075,
      "velocity": 1,
      "hand": "right"
    },
    {
      "midi": 74,
      "time": 57.9,
      "duration": 0.075,
      "velocity": 0.94,
      "hand": "right"
    },
    {
      "midi": 66,
      "time": 58.05,
      "duration": 0.075,
      "velocity": 0.68,
      "hand": "right"
    },
    {
      "midi": 72,
      "time": 58.05,
      "duration": 0.075,
      "velocity": 1,
      "hand": "right"
    },
    {
      "midi": 74,
      "time": 58.05,
      "duration": 0.075,
      "velocity": 0.87,
      "hand": "right"
    },
    {
      "midi": 38,
      "time": 58.2,
      "duration": 0.6,
      "velocity": 1,
      "hand": "left"
    },
    {
      "midi": 38,
      "time": 58.2,
      "duration": 0.3,
      "velocity": 0.63,
      "hand": "left"
    },
    {
      "midi": 44,
      "time": 58.2,
      "duration": 0.15,
      "velocity": 0.63,
      "hand": "left"
    },
    {
      "midi": 66,
      "time": 58.2,
      "duration": 0.075,
      "velocity": 0.85,
      "hand": "right"
    },
    {
      "midi": 72,
      "time": 58.2,
      "duration": 0.075,
      "velocity": 1,
      "hand": "right"
    },
    {
      "midi": 74,
      "time": 58.2,
      "duration": 0.075,
      "velocity": 1,
      "hand": "right"
    },
    {
      "midi": 42,
      "time": 58.5,
      "duration": 0.15,
      "velocity": 0.63,
      "hand": "left"
    },
    {
      "midi": 46,
      "time": 58.5,
      "duration": 0.075,
      "velocity": 0.63,
      "hand": "left"
    },
    {
      "midi": 66,
      "time": 58.5,
      "duration": 0.075,
      "velocity": 1,
      "hand": "right"
    },
    {
      "midi": 72,
      "time": 58.5,
      "duration": 0.075,
      "velocity": 1,
      "hand": "right"
    },
    {
      "midi": 76,
      "time": 58.5,
      "duration": 0.075,
      "velocity": 1,
      "hand": "right"
    },
    {
      "midi": 38,
      "time": 58.8,
      "duration": 0.3,
      "velocity": 0.63,
      "hand": "left"
    },
    {
      "midi": 44,
      "time": 58.8,
      "duration": 0.15,
      "velocity": 0.63,
      "hand": "left"
    },
    {
      "midi": 50,
      "time": 58.8,
      "duration": 0.75,
      "velocity": 1,
      "hand": "left"
    },
    {
      "midi": 51,
      "time": 58.8,
      "duration": 0.9,
      "velocity": 0.63,
      "hand": "left"
    },
    {
      "midi": 66,
      "time": 58.8,
      "duration": 0.3,
      "velocity": 1,
      "hand": "right"
    },
    {
      "midi": 72,
      "time": 58.8,
      "duration": 0.3,
      "velocity": 1,
      "hand": "right"
    },
    {
      "midi": 74,
      "time": 58.8,
      "duration": 0.3,
      "velocity": 1,
      "hand": "right"
    },
    {
      "midi": 42,
      "time": 59.1,
      "duration": 0.15,
      "velocity": 0.63,
      "hand": "left"
    },
    {
      "midi": 46,
      "time": 59.1,
      "duration": 0.15,
      "velocity": 0.63,
      "hand": "left"
    },
    {
      "midi": 64,
      "time": 59.1,
      "duration": 0.3,
      "velocity": 0.79,
      "hand": "right"
    },
    {
      "midi": 72,
      "time": 59.1,
      "duration": 0.15,
      "velocity": 0.63,
      "hand": "right"
    },
    {
      "midi": 96,
      "time": 59.1,
      "duration": 0.15,
      "velocity": 0.92,
      "hand": "right"
    },
    {
      "midi": 71,
      "time": 59.25,
      "duration": 0.075,
      "velocity": 0.63,
      "hand": "right"
    },
    {
      "midi": 95,
      "time": 59.25,
      "duration": 0.075,
      "velocity": 0.62,
      "hand": "right"
    },
    {
      "midi": 38,
      "time": 59.4,
      "duration": 0.3,
      "velocity": 0.63,
      "hand": "left"
    },
    {
      "midi": 42,
      "time": 59.4,
      "duration": 0.6,
      "velocity": 1,
      "hand": "left"
    },
    {
      "midi": 44,
      "time": 59.4,
      "duration": 0.15,
      "velocity": 0.63,
      "hand": "left"
    },
    {
      "midi": 52,
      "time": 59.4,
      "duration": 0.3,
      "velocity": 0.99,
      "hand": "left"
    },
    {
      "midi": 62,
      "time": 59.4,
      "duration": 0.3,
      "velocity": 0.79,
      "hand": "right"
    },
    {
      "midi": 66,
      "time": 59.4,
      "duration": 0.45,
      "velocity": 1,
      "hand": "right"
    },
    {
      "midi": 71,
      "time": 59.4,
      "duration": 0.15,
      "velocity": 0.63,
      "hand": "right"
    },
    {
      "midi": 72,
      "time": 59.4,
      "duration": 0.45,
      "velocity": 1,
      "hand": "right"
    },
    {
      "midi": 72,
      "time": 59.4,
      "duration": 0.15,
      "velocity": 0.63,
      "hand": "right"
    },
    {
      "midi": 74,
      "time": 59.4,
      "duration": 0.3,
      "velocity": 1,
      "hand": "right"
    },
    {
      "midi": 95,
      "time": 59.4,
      "duration": 0.3,
      "velocity": 0.81,
      "hand": "right"
    },
    {
      "midi": 96,
      "time": 59.4,
      "duration": 0.15,
      "velocity": 0.71,
      "hand": "right"
    },
    {
      "midi": 97,
      "time": 59.4,
      "duration": 0.15,
      "velocity": 0.65,
      "hand": "right"
    },
    {
      "midi": 42,
      "time": 59.7,
      "duration": 0.15,
      "velocity": 0.63,
      "hand": "left"
    },
    {
      "midi": 46,
      "time": 59.7,
      "duration": 0.15,
      "velocity": 0.63,
      "hand": "left"
    },
    {
      "midi": 54,
      "time": 59.7,
      "duration": 0.3,
      "velocity": 0.98,
      "hand": "left"
    },
    {
      "midi": 60,
      "time": 59.7,
      "duration": 0.3,
      "velocity": 0.79,
      "hand": "right"
    },
    {
      "midi": 66,
      "time": 59.7,
      "duration": 0.3,
      "velocity": 0.63,
      "hand": "right"
    },
    {
      "midi": 90,
      "time": 59.7,
      "duration": 0.3,
      "velocity": 0.92,
      "hand": "right"
    },
    {
      "midi": 44,
      "time": 59.85,
      "duration": 0.075,
      "velocity": 0.63,
      "hand": "left"
    },
    {
      "midi": 46,
      "time": 59.85,
      "duration": 0.075,
      "velocity": 0.63,
      "hand": "left"
    },
    {
      "midi": 38,
      "time": 60,
      "duration": 0.15,
      "velocity": 0.63,
      "hand": "left"
    },
    {
      "midi": 43,
      "time": 60,
      "duration": 0.15,
      "velocity": 1,
      "hand": "left"
    },
    {
      "midi": 44,
      "time": 60,
      "duration": 0.15,
      "velocity": 0.63,
      "hand": "left"
    },
    {
      "midi": 51,
      "time": 60,
      "duration": 0.075,
      "velocity": 0.63,
      "hand": "left"
    },
    {
      "midi": 55,
      "time": 60,
      "duration": 0.75,
      "velocity": 0.97,
      "hand": "left"
    },
    {
      "midi": 59,
      "time": 60,
      "duration": 1.35,
      "velocity": 0.79,
      "hand": "left"
    },
    {
      "midi": 67,
      "time": 60,
      "duration": 0.075,
      "velocity": 0.99,
      "hand": "right"
    },
    {
      "midi": 69,
      "time": 60,
      "duration": 0.075,
      "velocity": 0.63,
      "hand": "right"
    },
    {
      "midi": 71,
      "time": 60,
      "duration": 0.075,
      "velocity": 1,
      "hand": "right"
    },
    {
      "midi": 74,
      "time": 60,
      "duration": 0.075,
      "velocity": 1,
      "hand": "right"
    },
    {
      "midi": 93,
      "time": 60,
      "duration": 0.15,
      "velocity": 0.84,
      "hand": "right"
    },
    {
      "midi": 67,
      "time": 60.15,
      "duration": 0.075,
      "velocity": 0.63,
      "hand": "right"
    },
    {
      "midi": 69,
      "time": 60.15,
      "duration": 0.15,
      "velocity": 0.63,
      "hand": "right"
    },
    {
      "midi": 91,
      "time": 60.15,
      "duration": 0.075,
      "velocity": 0.77,
      "hand": "right"
    },
    {
      "midi": 93,
      "time": 60.15,
      "duration": 0.15,
      "velocity": 0.8,
      "hand": "right"
    },
    {
      "midi": 42,
      "time": 60.3,
      "duration": 0.15,
      "velocity": 0.63,
      "hand": "left"
    },
    {
      "midi": 46,
      "time": 60.3,
      "duration": 0.075,
      "velocity": 0.63,
      "hand": "left"
    },
    {
      "midi": 67,
      "time": 60.3,
      "duration": 0.075,
      "velocity": 1,
      "hand": "right"
    },
    {
      "midi": 67,
      "time": 60.3,
      "duration": 0.3,
      "velocity": 0.63,
      "hand": "right"
    },
    {
      "midi": 71,
      "time": 60.3,
      "duration": 0.075,
      "velocity": 1,
      "hand": "right"
    },
    {
      "midi": 74,
      "time": 60.3,
      "duration": 0.075,
      "velocity": 1,
      "hand": "right"
    },
    {
      "midi": 91,
      "time": 60.3,
      "duration": 0.3,
      "velocity": 0.89,
      "hand": "right"
    },
    {
      "midi": 67,
      "time": 60.45,
      "duration": 0.075,
      "velocity": 0.83,
      "hand": "right"
    },
    {
      "midi": 71,
      "time": 60.45,
      "duration": 0.075,
      "velocity": 0.94,
      "hand": "right"
    },
    {
      "midi": 74,
      "time": 60.45,
      "duration": 0.075,
      "velocity": 0.94,
      "hand": "right"
    },
    {
      "midi": 38,
      "time": 60.6,
      "duration": 0.6,
      "velocity": 1,
      "hand": "left"
    },
    {
      "midi": 38,
      "time": 60.6,
      "duration": 0.3,
      "velocity": 0.63,
      "hand": "left"
    },
    {
      "midi": 44,
      "time": 60.6,
      "duration": 0.15,
      "velocity": 0.63,
      "hand": "left"
    },
    {
      "midi": 59,
      "time": 60.6,
      "duration": 1.05,
      "velocity": 0.63,
      "hand": "left"
    },
    {
      "midi": 59,
      "time": 60.6,
      "duration": 0.6,
      "velocity": 0.94,
      "hand": "left"
    },
    {
      "midi": 67,
      "time": 60.6,
      "duration": 0.075,
      "velocity": 1,
      "hand": "right"
    },
    {
      "midi": 71,
      "time": 60.6,
      "duration": 0.075,
      "velocity": 1,
      "hand": "right"
    },
    {
      "midi": 74,
      "time": 60.6,
      "duration": 0.15,
      "velocity": 1,
      "hand": "right"
    },
    {
      "midi": 83,
      "time": 60.6,
      "duration": 0.9,
      "velocity": 0.92,
      "hand": "right"
    },
    {
      "midi": 85,
      "time": 60.6,
      "duration": 0.075,
      "velocity": 0.81,
      "hand": "right"
    },
    {
      "midi": 42,
      "time": 60.9,
      "duration": 0.15,
      "velocity": 0.63,
      "hand": "left"
    },
    {
      "midi": 46,
      "time": 60.9,
      "duration": 0.075,
      "velocity": 0.63,
      "hand": "left"
    },
    {
      "midi": 67,
      "time": 60.9,
      "duration": 0.075,
      "velocity": 1,
      "hand": "right"
    },
    {
      "midi": 70,
      "time": 60.9,
      "duration": 0.075,
      "velocity": 1,
      "hand": "right"
    },
    {
      "midi": 73,
      "time": 60.9,
      "duration": 0.075,
      "velocity": 1,
      "hand": "right"
    },
    {
      "midi": 38,
      "time": 61.2,
      "duration": 0.15,
      "velocity": 0.63,
      "hand": "left"
    },
    {
      "midi": 43,
      "time": 61.2,
      "duration": 0.075,
      "velocity": 0.99,
      "hand": "left"
    },
    {
      "midi": 44,
      "time": 61.2,
      "duration": 0.15,
      "velocity": 0.63,
      "hand": "left"
    },
    {
      "midi": 50,
      "time": 61.2,
      "duration": 1.2,
      "velocity": 0.87,
      "hand": "left"
    },
    {
      "midi": 51,
      "time": 61.2,
      "duration": 0.9,
      "velocity": 0.63,
      "hand": "left"
    },
    {
      "midi": 67,
      "time": 61.2,
      "duration": 0.45,
      "velocity": 0.99,
      "hand": "right"
    },
    {
      "midi": 71,
      "time": 61.2,
      "duration": 0.45,
      "velocity": 1,
      "hand": "right"
    },
    {
      "midi": 74,
      "time": 61.2,
      "duration": 0.45,
      "velocity": 1,
      "hand": "right"
    },
    {
      "midi": 60,
      "time": 61.35,
      "duration": 0.15,
      "velocity": 0.79,
      "hand": "right"
    },
    {
      "midi": 42,
      "time": 61.5,
      "duration": 0.15,
      "velocity": 0.63,
      "hand": "left"
    },
    {
      "midi": 43,
      "time": 61.5,
      "duration": 0.3,
      "velocity": 1,
      "hand": "left"
    },
    {
      "midi": 46,
      "time": 61.5,
      "duration": 0.075,
      "velocity": 0.63,
      "hand": "left"
    },
    {
      "midi": 60,
      "time": 61.5,
      "duration": 0.3,
      "velocity": 0.63,
      "hand": "right"
    },
    {
      "midi": 61,
      "time": 61.5,
      "duration": 0.15,
      "velocity": 0.79,
      "hand": "right"
    },
    {
      "midi": 84,
      "time": 61.5,
      "duration": 0.15,
      "velocity": 0.92,
      "hand": "right"
    },
    {
      "midi": 62,
      "time": 61.65,
      "duration": 0.15,
      "velocity": 0.79,
      "hand": "right"
    },
    {
      "midi": 85,
      "time": 61.65,
      "duration": 0.15,
      "velocity": 0.81,
      "hand": "right"
    },
    {
      "midi": 38,
      "time": 61.8,
      "duration": 0.3,
      "velocity": 0.63,
      "hand": "left"
    },
    {
      "midi": 44,
      "time": 61.8,
      "duration": 0.15,
      "velocity": 0.63,
      "hand": "left"
    },
    {
      "midi": 45,
      "time": 61.8,
      "duration": 0.15,
      "velocity": 1,
      "hand": "left"
    },
    {
      "midi": 61,
      "time": 61.8,
      "duration": 0.3,
      "velocity": 0.63,
      "hand": "right"
    },
    {
      "midi": 62,
      "time": 61.8,
      "duration": 0.45,
      "velocity": 1,
      "hand": "right"
    },
    {
      "midi": 67,
      "time": 61.8,
      "duration": 0.45,
      "velocity": 1,
      "hand": "right"
    },
    {
      "midi": 69,
      "time": 61.8,
      "duration": 0.3,
      "velocity": 0.79,
      "hand": "right"
    },
    {
      "midi": 71,
      "time": 61.8,
      "duration": 0.45,
      "velocity": 1,
      "hand": "right"
    },
    {
      "midi": 88,
      "time": 61.8,
      "duration": 0.15,
      "velocity": 0.91,
      "hand": "right"
    },
    {
      "midi": 86,
      "time": 61.95,
      "duration": 0.075,
      "velocity": 0.92,
      "hand": "right"
    },
    {
      "midi": 42,
      "time": 62.1,
      "duration": 0.15,
      "velocity": 0.63,
      "hand": "left"
    },
    {
      "midi": 46,
      "time": 62.1,
      "duration": 0.15,
      "velocity": 0.63,
      "hand": "left"
    },
    {
      "midi": 47,
      "time": 62.1,
      "duration": 0.15,
      "velocity": 1,
      "hand": "left"
    },
    {
      "midi": 64,
      "time": 62.1,
      "duration": 0.3,
      "velocity": 0.63,
      "hand": "right"
    },
    {
      "midi": 67,
      "time": 62.1,
      "duration": 0.3,
      "velocity": 0.79,
      "hand": "right"
    },
    {
      "midi": 86,
      "time": 62.1,
      "duration": 0.45,
      "velocity": 0.71,
      "hand": "right"
    },
    {
      "midi": 88,
      "time": 62.1,
      "duration": 0.15,
      "velocity": 0.5,
      "hand": "right"
    },
    {
      "midi": 44,
      "time": 62.25,
      "duration": 0.075,
      "velocity": 0.63,
      "hand": "left"
    },
    {
      "midi": 46,
      "time": 62.25,
      "duration": 0.075,
      "velocity": 0.63,
      "hand": "left"
    },
    {
      "midi": 38,
      "time": 62.4,
      "duration": 0.15,
      "velocity": 0.63,
      "hand": "left"
    },
    {
      "midi": 44,
      "time": 62.4,
      "duration": 0.15,
      "velocity": 0.63,
      "hand": "left"
    },
    {
      "midi": 50,
      "time": 62.4,
      "duration": 0.75,
      "velocity": 1,
      "hand": "left"
    },
    {
      "midi": 51,
      "time": 62.4,
      "duration": 1.05,
      "velocity": 0.63,
      "hand": "left"
    },
    {
      "midi": 54,
      "time": 62.4,
      "duration": 0.6,
      "velocity": 0.96,
      "hand": "left"
    },
    {
      "midi": 62,
      "time": 62.4,
      "duration": 0.3,
      "velocity": 0.63,
      "hand": "right"
    },
    {
      "midi": 66,
      "time": 62.4,
      "duration": 0.075,
      "velocity": 0.89,
      "hand": "right"
    },
    {
      "midi": 66,
      "time": 62.4,
      "duration": 1.2,
      "velocity": 0.79,
      "hand": "right"
    },
    {
      "midi": 70,
      "time": 62.4,
      "duration": 0.075,
      "velocity": 0.82,
      "hand": "right"
    },
    {
      "midi": 72,
      "time": 62.4,
      "duration": 0.075,
      "velocity": 1,
      "hand": "right"
    },
    {
      "midi": 73,
      "time": 62.4,
      "duration": 0.075,
      "velocity": 0.92,
      "hand": "right"
    },
    {
      "midi": 74,
      "time": 62.4,
      "duration": 0.075,
      "velocity": 1,
      "hand": "right"
    },
    {
      "midi": 84,
      "time": 62.4,
      "duration": 0.3,
      "velocity": 0.92,
      "hand": "right"
    },
    {
      "midi": 42,
      "time": 62.7,
      "duration": 0.15,
      "velocity": 0.63,
      "hand": "left"
    },
    {
      "midi": 46,
      "time": 62.7,
      "duration": 0.075,
      "velocity": 0.63,
      "hand": "left"
    },
    {
      "midi": 60,
      "time": 62.7,
      "duration": 0.3,
      "velocity": 0.63,
      "hand": "right"
    },
    {
      "midi": 66,
      "time": 62.7,
      "duration": 0.075,
      "velocity": 0.92,
      "hand": "right"
    },
    {
      "midi": 72,
      "time": 62.7,
      "duration": 0.075,
      "velocity": 1,
      "hand": "right"
    },
    {
      "midi": 74,
      "time": 62.7,
      "duration": 0.075,
      "velocity": 0.94,
      "hand": "right"
    },
    {
      "midi": 81,
      "time": 62.7,
      "duration": 0.15,
      "velocity": 0.92,
      "hand": "right"
    },
    {
      "midi": 66,
      "time": 62.85,
      "duration": 0.075,
      "velocity": 0.63,
      "hand": "right"
    },
    {
      "midi": 72,
      "time": 62.85,
      "duration": 0.075,
      "velocity": 0.96,
      "hand": "right"
    },
    {
      "midi": 74,
      "time": 62.85,
      "duration": 0.15,
      "velocity": 0.83,
      "hand": "right"
    },
    {
      "midi": 38,
      "time": 63,
      "duration": 0.6,
      "velocity": 1,
      "hand": "left"
    },
    {
      "midi": 38,
      "time": 63,
      "duration": 0.15,
      "velocity": 0.63,
      "hand": "left"
    },
    {
      "midi": 44,
      "time": 63,
      "duration": 0.15,
      "velocity": 0.63,
      "hand": "left"
    },
    {
      "midi": 52,
      "time": 63,
      "duration": 0.3,
      "velocity": 0.63,
      "hand": "left"
    },
    {
      "midi": 57,
      "time": 63,
      "duration": 0.6,
      "velocity": 0.81,
      "hand": "left"
    },
    {
      "midi": 66,
      "time": 63,
      "duration": 0.15,
      "velocity": 0.92,
      "hand": "right"
    },
    {
      "midi": 72,
      "time": 63,
      "duration": 0.15,
      "velocity": 1,
      "hand": "right"
    },
    {
      "midi": 74,
      "time": 63,
      "duration": 0.15,
      "velocity": 0.99,
      "hand": "right"
    },
    {
      "midi": 76,
      "time": 63,
      "duration": 0.3,
      "velocity": 0.92,
      "hand": "right"
    },
    {
      "midi": 42,
      "time": 63.3,
      "duration": 0.15,
      "velocity": 0.63,
      "hand": "left"
    },
    {
      "midi": 46,
      "time": 63.3,
      "duration": 0.075,
      "velocity": 0.63,
      "hand": "left"
    },
    {
      "midi": 53,
      "time": 63.3,
      "duration": 0.3,
      "velocity": 0.63,
      "hand": "left"
    },
    {
      "midi": 62,
      "time": 63.3,
      "duration": 0.075,
      "velocity": 1,
      "hand": "right"
    },
    {
      "midi": 66,
      "time": 63.3,
      "duration": 0.075,
      "velocity": 1,
      "hand": "right"
    },
    {
      "midi": 72,
      "time": 63.3,
      "duration": 0.075,
      "velocity": 1,
      "hand": "right"
    },
    {
      "midi": 78,
      "time": 63.3,
      "duration": 0.3,
      "velocity": 0.92,
      "hand": "right"
    },
    {
      "midi": 38,
      "time": 63.6,
      "duration": 0.3,
      "velocity": 0.63,
      "hand": "left"
    },
    {
      "midi": 44,
      "time": 63.6,
      "duration": 0.15,
      "velocity": 0.63,
      "hand": "left"
    },
    {
      "midi": 50,
      "time": 63.6,
      "duration": 1.2,
      "velocity": 0.89,
      "hand": "left"
    },
    {
      "midi": 51,
      "time": 63.6,
      "duration": 0.15,
      "velocity": 0.63,
      "hand": "left"
    },
    {
      "midi": 54,
      "time": 63.6,
      "duration": 0.3,
      "velocity": 0.63,
      "hand": "left"
    },
    {
      "midi": 64,
      "time": 63.6,
      "duration": 0.3,
      "velocity": 0.89,
      "hand": "right"
    },
    {
      "midi": 67,
      "time": 63.6,
      "duration": 0.3,
      "velocity": 0.94,
      "hand": "right"
    },
    {
      "midi": 68,
      "time": 63.6,
      "duration": 0.075,
      "velocity": 0.38,
      "hand": "right"
    },
    {
      "midi": 72,
      "time": 63.6,
      "duration": 0.45,
      "velocity": 1,
      "hand": "right"
    },
    {
      "midi": 83,
      "time": 63.6,
      "duration": 0.45,
      "velocity": 0.91,
      "hand": "right"
    },
    {
      "midi": 38,
      "time": 63.9,
      "duration": 0.15,
      "velocity": 1,
      "hand": "left"
    },
    {
      "midi": 42,
      "time": 63.9,
      "duration": 0.15,
      "velocity": 0.63,
      "hand": "left"
    },
    {
      "midi": 46,
      "time": 63.9,
      "duration": 0.075,
      "velocity": 0.63,
      "hand": "left"
    },
    {
      "midi": 50,
      "time": 63.9,
      "duration": 0.15,
      "velocity": 1,
      "hand": "left"
    },
    {
      "midi": 57,
      "time": 63.9,
      "duration": 0.3,
      "velocity": 0.79,
      "hand": "left"
    },
    {
      "midi": 59,
      "time": 63.9,
      "duration": 0.45,
      "velocity": 0.63,
      "hand": "left"
    },
    {
      "midi": 38,
      "time": 64.2,
      "duration": 0.3,
      "velocity": 0.63,
      "hand": "left"
    },
    {
      "midi": 40,
      "time": 64.2,
      "duration": 0.15,
      "velocity": 1,
      "hand": "left"
    },
    {
      "midi": 44,
      "time": 64.2,
      "duration": 0.15,
      "velocity": 0.63,
      "hand": "left"
    },
    {
      "midi": 48,
      "time": 64.2,
      "duration": 0.15,
      "velocity": 0.91,
      "hand": "left"
    },
    {
      "midi": 51,
      "time": 64.2,
      "duration": 0.3,
      "velocity": 0.63,
      "hand": "left"
    },
    {
      "midi": 62,
      "time": 64.2,
      "duration": 0.3,
      "velocity": 0.79,
      "hand": "right"
    },
    {
      "midi": 66,
      "time": 64.2,
      "duration": 0.3,
      "velocity": 1,
      "hand": "right"
    },
    {
      "midi": 69,
      "time": 64.2,
      "duration": 0.3,
      "velocity": 1,
      "hand": "right"
    },
    {
      "midi": 72,
      "time": 64.2,
      "duration": 0.3,
      "velocity": 1,
      "hand": "right"
    },
    {
      "midi": 81,
      "time": 64.2,
      "duration": 0.075,
      "velocity": 0.8,
      "hand": "right"
    },
    {
      "midi": 81,
      "time": 64.2,
      "duration": 0.6,
      "velocity": 0.84,
      "hand": "right"
    },
    {
      "midi": 84,
      "time": 64.2,
      "duration": 0.15,
      "velocity": 0.81,
      "hand": "right"
    },
    {
      "midi": 42,
      "time": 64.5,
      "duration": 0.15,
      "velocity": 1,
      "hand": "left"
    },
    {
      "midi": 46,
      "time": 64.5,
      "duration": 0.15,
      "velocity": 0.63,
      "hand": "left"
    },
    {
      "midi": 50,
      "time": 64.5,
      "duration": 0.15,
      "velocity": 1,
      "hand": "left"
    },
    {
      "midi": 57,
      "time": 64.5,
      "duration": 0.075,
      "velocity": 0.63,
      "hand": "left"
    },
    {
      "midi": 57,
      "time": 64.5,
      "duration": 0.3,
      "velocity": 0.63,
      "hand": "left"
    },
    {
      "midi": 59,
      "time": 64.5,
      "duration": 0.075,
      "velocity": 0.63,
      "hand": "left"
    },
    {
      "midi": 60,
      "time": 64.5,
      "duration": 0.3,
      "velocity": 0.79,
      "hand": "right"
    },
    {
      "midi": 44,
      "time": 64.65,
      "duration": 0.075,
      "velocity": 0.63,
      "hand": "left"
    },
    {
      "midi": 38,
      "time": 64.8,
      "duration": 0.3,
      "velocity": 0.63,
      "hand": "left"
    },
    {
      "midi": 43,
      "time": 64.8,
      "duration": 0.45,
      "velocity": 1,
      "hand": "left"
    },
    {
      "midi": 44,
      "time": 64.8,
      "duration": 0.075,
      "velocity": 0.63,
      "hand": "left"
    },
    {
      "midi": 46,
      "time": 64.8,
      "duration": 0.075,
      "velocity": 0.63,
      "hand": "left"
    },
    {
      "midi": 51,
      "time": 64.8,
      "duration": 1.05,
      "velocity": 0.63,
      "hand": "left"
    },
    {
      "midi": 55,
      "time": 64.8,
      "duration": 1.05,
      "velocity": 0.63,
      "hand": "left"
    },
    {
      "midi": 55,
      "time": 64.8,
      "duration": 0.6,
      "velocity": 0.99,
      "hand": "left"
    },
    {
      "midi": 59,
      "time": 64.8,
      "duration": 1.35,
      "velocity": 0.79,
      "hand": "left"
    },
    {
      "midi": 62,
      "time": 64.8,
      "duration": 0.15,
      "velocity": 0.99,
      "hand": "right"
    },
    {
      "midi": 67,
      "time": 64.8,
      "duration": 0.075,
      "velocity": 1,
      "hand": "right"
    },
    {
      "midi": 71,
      "time": 64.8,
      "duration": 0.075,
      "velocity": 0.89,
      "hand": "right"
    },
    {
      "midi": 79,
      "time": 64.8,
      "duration": 1.2,
      "velocity": 0.92,
      "hand": "right"
    },
    {
      "midi": 42,
      "time": 65.1,
      "duration": 0.15,
      "velocity": 0.63,
      "hand": "left"
    },
    {
      "midi": 46,
      "time": 65.1,
      "duration": 0.075,
      "velocity": 0.63,
      "hand": "left"
    },
    {
      "midi": 62,
      "time": 65.1,
      "duration": 0.075,
      "velocity": 1,
      "hand": "right"
    },
    {
      "midi": 67,
      "time": 65.1,
      "duration": 0.075,
      "velocity": 1,
      "hand": "right"
    },
    {
      "midi": 71,
      "time": 65.1,
      "duration": 0.075,
      "velocity": 0.94,
      "hand": "right"
    },
    {
      "midi": 62,
      "time": 65.25,
      "duration": 0.15,
      "velocity": 0.68,
      "hand": "right"
    },
    {
      "midi": 67,
      "time": 65.25,
      "duration": 0.075,
      "velocity": 0.94,
      "hand": "right"
    },
    {
      "midi": 71,
      "time": 65.25,
      "duration": 0.075,
      "velocity": 0.81,
      "hand": "right"
    },
    {
      "midi": 38,
      "time": 65.4,
      "duration": 0.45,
      "velocity": 1,
      "hand": "left"
    },
    {
      "midi": 38,
      "time": 65.4,
      "duration": 0.3,
      "velocity": 0.63,
      "hand": "left"
    },
    {
      "midi": 44,
      "time": 65.4,
      "duration": 0.15,
      "velocity": 0.63,
      "hand": "left"
    },
    {
      "midi": 50,
      "time": 65.4,
      "duration": 0.3,
      "velocity": 0.85,
      "hand": "left"
    },
    {
      "midi": 62,
      "time": 65.4,
      "duration": 0.15,
      "velocity": 0.7,
      "hand": "right"
    },
    {
      "midi": 67,
      "time": 65.4,
      "duration": 0.075,
      "velocity": 0.87,
      "hand": "right"
    },
    {
      "midi": 71,
      "time": 65.4,
      "duration": 0.15,
      "velocity": 0.85,
      "hand": "right"
    },
    {
      "midi": 42,
      "time": 65.7,
      "duration": 0.15,
      "velocity": 0.63,
      "hand": "left"
    },
    {
      "midi": 46,
      "time": 65.7,
      "duration": 0.075,
      "velocity": 0.63,
      "hand": "left"
    },
    {
      "midi": 47,
      "time": 65.7,
      "duration": 0.3,
      "velocity": 1,
      "hand": "left"
    },
    {
      "midi": 64,
      "time": 65.7,
      "duration": 0.075,
      "velocity": 0.89,
      "hand": "right"
    },
    {
      "midi": 67,
      "time": 65.7,
      "duration": 0.15,
      "velocity": 0.99,
      "hand": "right"
    },
    {
      "midi": 68,
      "time": 65.7,
      "duration": 0.075,
      "velocity": 0.72,
      "hand": "right"
    },
    {
      "midi": 72,
      "time": 65.7,
      "duration": 0.075,
      "velocity": 1,
      "hand": "right"
    },
    {
      "midi": 38,
      "time": 66,
      "duration": 0.15,
      "velocity": 0.63,
      "hand": "left"
    },
    {
      "midi": 40,
      "time": 66,
      "duration": 0.3,
      "velocity": 0.97,
      "hand": "left"
    },
    {
      "midi": 43,
      "time": 66,
      "duration": 0.45,
      "velocity": 1,
      "hand": "left"
    },
    {
      "midi": 44,
      "time": 66,
      "duration": 0.15,
      "velocity": 0.63,
      "hand": "left"
    },
    {
      "midi": 62,
      "time": 66,
      "duration": 0.3,
      "velocity": 0.94,
      "hand": "right"
    },
    {
      "midi": 62,
      "time": 66,
      "duration": 1.05,
      "velocity": 0.63,
      "hand": "right"
    },
    {
      "midi": 67,
      "time": 66,
      "duration": 0.3,
      "velocity": 1,
      "hand": "right"
    },
    {
      "midi": 71,
      "time": 66,
      "duration": 0.3,
      "velocity": 1,
      "hand": "right"
    },
    {
      "midi": 86,
      "time": 66,
      "duration": 1.05,
      "velocity": 0.92,
      "hand": "right"
    },
    {
      "midi": 46,
      "time": 66.3,
      "duration": 0.075,
      "velocity": 0.63,
      "hand": "left"
    },
    {
      "midi": 38,
      "time": 66.6,
      "duration": 0.3,
      "velocity": 0.63,
      "hand": "left"
    },
    {
      "midi": 42,
      "time": 66.6,
      "duration": 0.3,
      "velocity": 1,
      "hand": "left"
    },
    {
      "midi": 44,
      "time": 66.6,
      "duration": 0.075,
      "velocity": 0.63,
      "hand": "left"
    },
    {
      "midi": 51,
      "time": 66.6,
      "duration": 0.075,
      "velocity": 0.63,
      "hand": "left"
    },
    {
      "midi": 62,
      "time": 66.6,
      "duration": 0.15,
      "velocity": 1,
      "hand": "right"
    },
    {
      "midi": 62,
      "time": 66.6,
      "duration": 0.6,
      "velocity": 1,
      "hand": "right"
    },
    {
      "midi": 66,
      "time": 66.6,
      "duration": 0.15,
      "velocity": 1,
      "hand": "right"
    },
    {
      "midi": 69,
      "time": 66.6,
      "duration": 0.15,
      "velocity": 0.97,
      "hand": "right"
    },
    {
      "midi": 44,
      "time": 66.75,
      "duration": 0.075,
      "velocity": 0.63,
      "hand": "left"
    },
    {
      "midi": 46,
      "time": 66.75,
      "duration": 0.075,
      "velocity": 0.63,
      "hand": "left"
    },
    {
      "midi": 44,
      "time": 66.9,
      "duration": 0.075,
      "velocity": 0.63,
      "hand": "left"
    },
    {
      "midi": 46,
      "time": 66.9,
      "duration": 0.075,
      "velocity": 0.63,
      "hand": "left"
    },
    {
      "midi": 44,
      "time": 67.05,
      "duration": 0.075,
      "velocity": 0.63,
      "hand": "left"
    },
    {
      "midi": 46,
      "time": 67.05,
      "duration": 0.075,
      "velocity": 0.63,
      "hand": "left"
    },
    {
      "midi": 38,
      "time": 67.2,
      "duration": 0.15,
      "velocity": 0.63,
      "hand": "left"
    },
    {
      "midi": 43,
      "time": 67.2,
      "duration": 0.15,
      "velocity": 1,
      "hand": "left"
    },
    {
      "midi": 43,
      "time": 67.2,
      "duration": 0.9,
      "velocity": 1,
      "hand": "left"
    },
    {
      "midi": 44,
      "time": 67.2,
      "duration": 0.075,
      "velocity": 0.63,
      "hand": "left"
    },
    {
      "midi": 55,
      "time": 67.2,
      "duration": 1.2,
      "velocity": 1,
      "hand": "left"
    },
    {
      "midi": 59,
      "time": 67.2,
      "duration": 0.075,
      "velocity": 0.79,
      "hand": "left"
    },
    {
      "midi": 59,
      "time": 67.2,
      "duration": 1.5,
      "velocity": 0.63,
      "hand": "left"
    },
    {
      "midi": 59,
      "time": 67.2,
      "duration": 0.9,
      "velocity": 1,
      "hand": "left"
    },
    {
      "midi": 62,
      "time": 67.2,
      "duration": 0.075,
      "velocity": 0.87,
      "hand": "right"
    },
    {
      "midi": 67,
      "time": 67.2,
      "duration": 0.075,
      "velocity": 0.97,
      "hand": "right"
    },
    {
      "midi": 67,
      "time": 67.2,
      "duration": 0.9,
      "velocity": 1,
      "hand": "right"
    },
    {
      "midi": 42,
      "time": 67.5,
      "duration": 0.15,
      "velocity": 0.63,
      "hand": "left"
    },
    {
      "midi": 46,
      "time": 67.5,
      "duration": 0.075,
      "velocity": 0.63,
      "hand": "left"
    },
    {
      "midi": 50,
      "time": 67.5,
      "duration": 0.075,
      "velocity": 0.81,
      "hand": "left"
    },
    {
      "midi": 59,
      "time": 67.5,
      "duration": 0.075,
      "velocity": 0.77,
      "hand": "left"
    },
    {
      "midi": 62,
      "time": 67.5,
      "duration": 0.075,
      "velocity": 0.94,
      "hand": "right"
    },
    {
      "midi": 67,
      "time": 67.5,
      "duration": 0.075,
      "velocity": 0.89,
      "hand": "right"
    },
    {
      "midi": 59,
      "time": 67.65,
      "duration": 0.15,
      "velocity": 0.38,
      "hand": "left"
    },
    {
      "midi": 62,
      "time": 67.65,
      "duration": 0.15,
      "velocity": 0.65,
      "hand": "right"
    },
    {
      "midi": 67,
      "time": 67.65,
      "duration": 0.15,
      "velocity": 0.72,
      "hand": "right"
    },
    {
      "midi": 38,
      "time": 67.8,
      "duration": 0.3,
      "velocity": 0.91,
      "hand": "left"
    },
    {
      "midi": 44,
      "time": 67.8,
      "duration": 0.15,
      "velocity": 0.63,
      "hand": "left"
    },
    {
      "midi": 42,
      "time": 68.1,
      "duration": 0.15,
      "velocity": 0.63,
      "hand": "left"
    },
    {
      "midi": 46,
      "time": 68.1,
      "duration": 0.075,
      "velocity": 0.63,
      "hand": "left"
    },
    {
      "midi": 47,
      "time": 68.1,
      "duration": 0.3,
      "velocity": 1,
      "hand": "left"
    },
    {
      "midi": 50,
      "time": 68.1,
      "duration": 0.15,
      "velocity": 0.8,
      "hand": "left"
    },
    {
      "midi": 59,
      "time": 68.1,
      "duration": 0.075,
      "velocity": 0.85,
      "hand": "left"
    },
    {
      "midi": 62,
      "time": 68.1,
      "duration": 0.075,
      "velocity": 0.94,
      "hand": "right"
    },
    {
      "midi": 62,
      "time": 68.1,
      "duration": 0.3,
      "velocity": 1,
      "hand": "right"
    },
    {
      "midi": 67,
      "time": 68.1,
      "duration": 0.075,
      "velocity": 1,
      "hand": "right"
    },
    {
      "midi": 71,
      "time": 68.1,
      "duration": 0.3,
      "velocity": 1,
      "hand": "right"
    },
    {
      "midi": 38,
      "time": 68.4,
      "duration": 0.15,
      "velocity": 0.63,
      "hand": "left"
    },
    {
      "midi": 43,
      "time": 68.4,
      "duration": 0.15,
      "velocity": 0.86,
      "hand": "left"
    },
    {
      "midi": 44,
      "time": 68.4,
      "duration": 0.075,
      "velocity": 0.63,
      "hand": "left"
    },
    {
      "midi": 50,
      "time": 68.4,
      "duration": 0.15,
      "velocity": 0.94,
      "hand": "left"
    },
    {
      "midi": 59,
      "time": 68.4,
      "duration": 0.15,
      "velocity": 0.67,
      "hand": "left"
    },
    {
      "midi": 62,
      "time": 68.4,
      "duration": 0.075,
      "velocity": 0.68,
      "hand": "right"
    },
    {
      "midi": 67,
      "time": 68.4,
      "duration": 0.075,
      "velocity": 0.92,
      "hand": "right"
    },
    {
      "midi": 71,
      "time": 68.4,
      "duration": 0.15,
      "velocity": 1,
      "hand": "right"
    },
    {
      "midi": 74,
      "time": 68.4,
      "duration": 0.15,
      "velocity": 0.94,
      "hand": "right"
    },
    {
      "midi": 74,
      "time": 68.4,
      "duration": 0.3,
      "velocity": 1,
      "hand": "right"
    },
    {
      "midi": 42,
      "time": 68.7,
      "duration": 0.15,
      "velocity": 0.63,
      "hand": "left"
    },
    {
      "midi": 46,
      "time": 68.7,
      "duration": 0.075,
      "velocity": 0.63,
      "hand": "left"
    },
    {
      "midi": 50,
      "time": 68.7,
      "duration": 0.15,
      "velocity": 0.79,
      "hand": "left"
    },
    {
      "midi": 59,
      "time": 68.7,
      "duration": 0.075,
      "velocity": 0.76,
      "hand": "left"
    },
    {
      "midi": 60,
      "time": 68.7,
      "duration": 0.3,
      "velocity": 0.63,
      "hand": "right"
    },
    {
      "midi": 62,
      "time": 68.7,
      "duration": 0.075,
      "velocity": 0.89,
      "hand": "right"
    },
    {
      "midi": 67,
      "time": 68.7,
      "duration": 0.075,
      "velocity": 0.89,
      "hand": "right"
    },
    {
      "midi": 71,
      "time": 68.7,
      "duration": 0.15,
      "velocity": 1,
      "hand": "right"
    },
    {
      "midi": 74,
      "time": 68.7,
      "duration": 0.15,
      "velocity": 0.99,
      "hand": "right"
    },
    {
      "midi": 74,
      "time": 68.7,
      "duration": 0.3,
      "velocity": 1,
      "hand": "right"
    },
    {
      "midi": 38,
      "time": 69,
      "duration": 0.3,
      "velocity": 1,
      "hand": "left"
    },
    {
      "midi": 44,
      "time": 69,
      "duration": 0.15,
      "velocity": 0.63,
      "hand": "left"
    },
    {
      "midi": 50,
      "time": 69,
      "duration": 0.45,
      "velocity": 1,
      "hand": "left"
    },
    {
      "midi": 59,
      "time": 69,
      "duration": 0.15,
      "velocity": 0.99,
      "hand": "left"
    },
    {
      "midi": 61,
      "time": 69,
      "duration": 0.3,
      "velocity": 0.63,
      "hand": "right"
    },
    {
      "midi": 62,
      "time": 69,
      "duration": 0.075,
      "velocity": 1,
      "hand": "right"
    },
    {
      "midi": 67,
      "time": 69,
      "duration": 0.075,
      "velocity": 1,
      "hand": "right"
    },
    {
      "midi": 71,
      "time": 69,
      "duration": 0.3,
      "velocity": 1,
      "hand": "right"
    },
    {
      "midi": 74,
      "time": 69,
      "duration": 0.45,
      "velocity": 1,
      "hand": "right"
    },
    {
      "midi": 74,
      "time": 69,
      "duration": 0.3,
      "velocity": 1,
      "hand": "right"
    },
    {
      "midi": 42,
      "time": 69.3,
      "duration": 0.15,
      "velocity": 0.63,
      "hand": "left"
    },
    {
      "midi": 46,
      "time": 69.3,
      "duration": 0.075,
      "velocity": 0.63,
      "hand": "left"
    },
    {
      "midi": 50,
      "time": 69.3,
      "duration": 0.15,
      "velocity": 0.8,
      "hand": "left"
    },
    {
      "midi": 52,
      "time": 69.3,
      "duration": 0.3,
      "velocity": 1,
      "hand": "left"
    },
    {
      "midi": 59,
      "time": 69.3,
      "duration": 0.075,
      "velocity": 0.73,
      "hand": "left"
    },
    {
      "midi": 62,
      "time": 69.3,
      "duration": 0.075,
      "velocity": 0.81,
      "hand": "right"
    },
    {
      "midi": 62,
      "time": 69.3,
      "duration": 0.3,
      "velocity": 0.63,
      "hand": "right"
    },
    {
      "midi": 67,
      "time": 69.3,
      "duration": 0.075,
      "velocity": 0.94,
      "hand": "right"
    },
    {
      "midi": 72,
      "time": 69.3,
      "duration": 0.3,
      "velocity": 1,
      "hand": "right"
    },
    {
      "midi": 76,
      "time": 69.3,
      "duration": 0.3,
      "velocity": 1,
      "hand": "right"
    },
    {
      "midi": 38,
      "time": 69.6,
      "duration": 0.3,
      "velocity": 0.63,
      "hand": "left"
    },
    {
      "midi": 43,
      "time": 69.6,
      "duration": 0.3,
      "velocity": 1,
      "hand": "left"
    },
    {
      "midi": 44,
      "time": 69.6,
      "duration": 0.075,
      "velocity": 0.63,
      "hand": "left"
    },
    {
      "midi": 50,
      "time": 69.6,
      "duration": 0.9,
      "velocity": 0.89,
      "hand": "left"
    },
    {
      "midi": 59,
      "time": 69.6,
      "duration": 0.075,
      "velocity": 1,
      "hand": "left"
    },
    {
      "midi": 62,
      "time": 69.6,
      "duration": 0.075,
      "velocity": 1,
      "hand": "right"
    },
    {
      "midi": 67,
      "time": 69.6,
      "duration": 0.075,
      "velocity": 1,
      "hand": "right"
    },
    {
      "midi": 71,
      "time": 69.6,
      "duration": 0.3,
      "velocity": 0.63,
      "hand": "right"
    },
    {
      "midi": 71,
      "time": 69.6,
      "duration": 0.9,
      "velocity": 1,
      "hand": "right"
    },
    {
      "midi": 74,
      "time": 69.6,
      "duration": 0.9,
      "velocity": 0.89,
      "hand": "right"
    },
    {
      "midi": 42,
      "time": 69.9,
      "duration": 0.15,
      "velocity": 0.63,
      "hand": "left"
    },
    {
      "midi": 46,
      "time": 69.9,
      "duration": 0.075,
      "velocity": 0.63,
      "hand": "left"
    },
    {
      "midi": 50,
      "time": 69.9,
      "duration": 0.15,
      "velocity": 0.83,
      "hand": "left"
    },
    {
      "midi": 59,
      "time": 69.9,
      "duration": 0.075,
      "velocity": 0.89,
      "hand": "left"
    },
    {
      "midi": 62,
      "time": 69.9,
      "duration": 0.075,
      "velocity": 1,
      "hand": "right"
    },
    {
      "midi": 67,
      "time": 69.9,
      "duration": 0.075,
      "velocity": 0.94,
      "hand": "right"
    },
    {
      "midi": 67,
      "time": 69.9,
      "duration": 0.3,
      "velocity": 0.63,
      "hand": "right"
    },
    {
      "midi": 91,
      "time": 69.9,
      "duration": 0.075,
      "velocity": 0.92,
      "hand": "right"
    },
    {
      "midi": 91,
      "time": 69.9,
      "duration": 0.15,
      "velocity": 0.81,
      "hand": "right"
    },
    {
      "midi": 93,
      "time": 69.9,
      "duration": 0.15,
      "velocity": 0.87,
      "hand": "right"
    },
    {
      "midi": 59,
      "time": 70.05,
      "duration": 0.075,
      "velocity": 0.72,
      "hand": "left"
    },
    {
      "midi": 62,
      "time": 70.05,
      "duration": 0.075,
      "velocity": 0.89,
      "hand": "right"
    },
    {
      "midi": 67,
      "time": 70.05,
      "duration": 0.075,
      "velocity": 0.92,
      "hand": "right"
    },
    {
      "midi": 67,
      "time": 70.05,
      "duration": 0.15,
      "velocity": 0.87,
      "hand": "right"
    },
    {
      "midi": 90,
      "time": 70.05,
      "duration": 0.15,
      "velocity": 0.92,
      "hand": "right"
    },
    {
      "midi": 91,
      "time": 70.05,
      "duration": 0.075,
      "velocity": 0.89,
      "hand": "right"
    },
    {
      "midi": 38,
      "time": 70.2,
      "duration": 0.3,
      "velocity": 1,
      "hand": "left"
    },
    {
      "midi": 44,
      "time": 70.2,
      "duration": 0.075,
      "velocity": 0.63,
      "hand": "left"
    },
    {
      "midi": 59,
      "time": 70.2,
      "duration": 0.075,
      "velocity": 0.77,
      "hand": "left"
    },
    {
      "midi": 62,
      "time": 70.2,
      "duration": 0.075,
      "velocity": 0.81,
      "hand": "right"
    },
    {
      "midi": 62,
      "time": 70.2,
      "duration": 1.65,
      "velocity": 0.63,
      "hand": "right"
    },
    {
      "midi": 86,
      "time": 70.35,
      "duration": 0.075,
      "velocity": 0.92,
      "hand": "right"
    },
    {
      "midi": 42,
      "time": 70.5,
      "duration": 0.15,
      "velocity": 0.63,
      "hand": "left"
    },
    {
      "midi": 46,
      "time": 70.5,
      "duration": 0.075,
      "velocity": 0.63,
      "hand": "left"
    },
    {
      "midi": 47,
      "time": 70.5,
      "duration": 0.3,
      "velocity": 1,
      "hand": "left"
    },
    {
      "midi": 50,
      "time": 70.5,
      "duration": 0.15,
      "velocity": 0.83,
      "hand": "left"
    },
    {
      "midi": 59,
      "time": 70.5,
      "duration": 0.075,
      "velocity": 1,
      "hand": "left"
    },
    {
      "midi": 62,
      "time": 70.5,
      "duration": 0.075,
      "velocity": 1,
      "hand": "right"
    },
    {
      "midi": 67,
      "time": 70.5,
      "duration": 0.075,
      "velocity": 1,
      "hand": "right"
    },
    {
      "midi": 67,
      "time": 70.5,
      "duration": 0.3,
      "velocity": 1,
      "hand": "right"
    },
    {
      "midi": 71,
      "time": 70.5,
      "duration": 0.3,
      "velocity": 1,
      "hand": "right"
    },
    {
      "midi": 38,
      "time": 70.8,
      "duration": 0.15,
      "velocity": 0.63,
      "hand": "left"
    },
    {
      "midi": 43,
      "time": 70.8,
      "duration": 0.15,
      "velocity": 0.91,
      "hand": "left"
    },
    {
      "midi": 43,
      "time": 70.8,
      "duration": 1.05,
      "velocity": 1,
      "hand": "left"
    },
    {
      "midi": 44,
      "time": 70.8,
      "duration": 0.15,
      "velocity": 0.63,
      "hand": "left"
    },
    {
      "midi": 59,
      "time": 70.8,
      "duration": 0.075,
      "velocity": 0.89,
      "hand": "left"
    },
    {
      "midi": 62,
      "time": 70.8,
      "duration": 0.075,
      "velocity": 0.99,
      "hand": "right"
    },
    {
      "midi": 62,
      "time": 70.8,
      "duration": 1.05,
      "velocity": 1,
      "hand": "right"
    },
    {
      "midi": 67,
      "time": 70.8,
      "duration": 0.075,
      "velocity": 0.97,
      "hand": "right"
    },
    {
      "midi": 67,
      "time": 70.8,
      "duration": 1.05,
      "velocity": 1,
      "hand": "right"
    },
    {
      "midi": 83,
      "time": 70.8,
      "duration": 0.3,
      "velocity": 0.92,
      "hand": "right"
    },
    {
      "midi": 42,
      "time": 71.1,
      "duration": 0.15,
      "velocity": 0.63,
      "hand": "left"
    },
    {
      "midi": 46,
      "time": 71.1,
      "duration": 0.075,
      "velocity": 0.63,
      "hand": "left"
    },
    {
      "midi": 50,
      "time": 71.1,
      "duration": 0.15,
      "velocity": 0.8,
      "hand": "left"
    },
    {
      "midi": 59,
      "time": 71.1,
      "duration": 0.075,
      "velocity": 0.87,
      "hand": "left"
    },
    {
      "midi": 62,
      "time": 71.1,
      "duration": 0.075,
      "velocity": 1,
      "hand": "right"
    },
    {
      "midi": 67,
      "time": 71.1,
      "duration": 0.075,
      "velocity": 0.97,
      "hand": "right"
    },
    {
      "midi": 84,
      "time": 71.1,
      "duration": 0.3,
      "velocity": 0.92,
      "hand": "right"
    },
    {
      "midi": 38,
      "time": 71.4,
      "duration": 0.3,
      "velocity": 1,
      "hand": "left"
    },
    {
      "midi": 44,
      "time": 71.4,
      "duration": 0.15,
      "velocity": 0.63,
      "hand": "left"
    },
    {
      "midi": 59,
      "time": 71.4,
      "duration": 0.15,
      "velocity": 1,
      "hand": "left"
    },
    {
      "midi": 62,
      "time": 71.4,
      "duration": 0.15,
      "velocity": 1,
      "hand": "right"
    },
    {
      "midi": 67,
      "time": 71.4,
      "duration": 0.15,
      "velocity": 1,
      "hand": "right"
    },
    {
      "midi": 85,
      "time": 71.4,
      "duration": 0.3,
      "velocity": 0.92,
      "hand": "right"
    },
    {
      "midi": 42,
      "time": 71.7,
      "duration": 0.15,
      "velocity": 0.63,
      "hand": "left"
    },
    {
      "midi": 46,
      "time": 71.7,
      "duration": 0.075,
      "velocity": 0.63,
      "hand": "left"
    },
    {
      "midi": 50,
      "time": 71.7,
      "duration": 0.15,
      "velocity": 0.72,
      "hand": "left"
    },
    {
      "midi": 59,
      "time": 71.7,
      "duration": 0.15,
      "velocity": 0.85,
      "hand": "left"
    },
    {
      "midi": 62,
      "time": 71.7,
      "duration": 0.15,
      "velocity": 0.92,
      "hand": "right"
    },
    {
      "midi": 67,
      "time": 71.7,
      "duration": 0.15,
      "velocity": 0.99,
      "hand": "right"
    },
    {
      "midi": 86,
      "time": 71.7,
      "duration": 0.3,
      "velocity": 0.89,
      "hand": "right"
    },
    {
      "midi": 38,
      "time": 72,
      "duration": 0.3,
      "velocity": 0.63,
      "hand": "left"
    },
    {
      "midi": 43,
      "time": 72,
      "duration": 0.3,
      "velocity": 1,
      "hand": "left"
    },
    {
      "midi": 43,
      "time": 72,
      "duration": 0.9,
      "velocity": 1,
      "hand": "left"
    },
    {
      "midi": 44,
      "time": 72,
      "duration": 0.075,
      "velocity": 0.63,
      "hand": "left"
    },
    {
      "midi": 59,
      "time": 72,
      "duration": 0.075,
      "velocity": 1,
      "hand": "left"
    },
    {
      "midi": 59,
      "time": 72,
      "duration": 0.9,
      "velocity": 1,
      "hand": "left"
    },
    {
      "midi": 62,
      "time": 72,
      "duration": 0.075,
      "velocity": 1,
      "hand": "right"
    },
    {
      "midi": 67,
      "time": 72,
      "duration": 0.15,
      "velocity": 1,
      "hand": "right"
    },
    {
      "midi": 67,
      "time": 72,
      "duration": 0.3,
      "velocity": 0.63,
      "hand": "right"
    },
    {
      "midi": 67,
      "time": 72,
      "duration": 0.9,
      "velocity": 1,
      "hand": "right"
    },
    {
      "midi": 79,
      "time": 72,
      "duration": 0.6,
      "velocity": 0.92,
      "hand": "right"
    },
    {
      "midi": 42,
      "time": 72.3,
      "duration": 0.15,
      "velocity": 0.63,
      "hand": "left"
    },
    {
      "midi": 46,
      "time": 72.3,
      "duration": 0.075,
      "velocity": 0.63,
      "hand": "left"
    },
    {
      "midi": 50,
      "time": 72.3,
      "duration": 0.15,
      "velocity": 0.87,
      "hand": "left"
    },
    {
      "midi": 59,
      "time": 72.3,
      "duration": 0.075,
      "velocity": 0.99,
      "hand": "left"
    },
    {
      "midi": 59,
      "time": 72.3,
      "duration": 0.45,
      "velocity": 0.63,
      "hand": "left"
    },
    {
      "midi": 62,
      "time": 72.3,
      "duration": 0.075,
      "velocity": 1,
      "hand": "right"
    },
    {
      "midi": 67,
      "time": 72.3,
      "duration": 0.075,
      "velocity": 0.97,
      "hand": "right"
    },
    {
      "midi": 59,
      "time": 72.45,
      "duration": 0.075,
      "velocity": 0.57,
      "hand": "left"
    },
    {
      "midi": 62,
      "time": 72.45,
      "duration": 0.075,
      "velocity": 0.85,
      "hand": "right"
    },
    {
      "midi": 67,
      "time": 72.45,
      "duration": 0.075,
      "velocity": 0.85,
      "hand": "right"
    },
    {
      "midi": 38,
      "time": 72.6,
      "duration": 0.3,
      "velocity": 1,
      "hand": "left"
    },
    {
      "midi": 44,
      "time": 72.6,
      "duration": 0.3,
      "velocity": 0.63,
      "hand": "left"
    },
    {
      "midi": 59,
      "time": 72.6,
      "duration": 0.15,
      "velocity": 0.81,
      "hand": "left"
    },
    {
      "midi": 60,
      "time": 72.6,
      "duration": 0.3,
      "velocity": 0.63,
      "hand": "right"
    },
    {
      "midi": 62,
      "time": 72.6,
      "duration": 0.075,
      "velocity": 0.99,
      "hand": "right"
    },
    {
      "midi": 67,
      "time": 72.6,
      "duration": 0.15,
      "velocity": 0.97,
      "hand": "right"
    },
    {
      "midi": 42,
      "time": 72.9,
      "duration": 0.15,
      "velocity": 0.63,
      "hand": "left"
    },
    {
      "midi": 46,
      "time": 72.9,
      "duration": 0.15,
      "velocity": 0.63,
      "hand": "left"
    },
    {
      "midi": 47,
      "time": 72.9,
      "duration": 0.3,
      "velocity": 1,
      "hand": "left"
    },
    {
      "midi": 50,
      "time": 72.9,
      "duration": 0.15,
      "velocity": 0.77,
      "hand": "left"
    },
    {
      "midi": 59,
      "time": 72.9,
      "duration": 0.075,
      "velocity": 0.99,
      "hand": "left"
    },
    {
      "midi": 61,
      "time": 72.9,
      "duration": 0.3,
      "velocity": 0.63,
      "hand": "right"
    },
    {
      "midi": 62,
      "time": 72.9,
      "duration": 0.075,
      "velocity": 1,
      "hand": "right"
    },
    {
      "midi": 62,
      "time": 72.9,
      "duration": 0.3,
      "velocity": 1,
      "hand": "right"
    },
    {
      "midi": 67,
      "time": 72.9,
      "duration": 0.075,
      "velocity": 1,
      "hand": "right"
    },
    {
      "midi": 71,
      "time": 72.9,
      "duration": 0.3,
      "velocity": 1,
      "hand": "right"
    },
    {
      "midi": 38,
      "time": 73.2,
      "duration": 0.15,
      "velocity": 0.63,
      "hand": "left"
    },
    {
      "midi": 43,
      "time": 73.2,
      "duration": 0.15,
      "velocity": 0.87,
      "hand": "left"
    },
    {
      "midi": 44,
      "time": 73.2,
      "duration": 0.075,
      "velocity": 0.63,
      "hand": "left"
    },
    {
      "midi": 50,
      "time": 73.2,
      "duration": 0.15,
      "velocity": 1,
      "hand": "left"
    },
    {
      "midi": 59,
      "time": 73.2,
      "duration": 0.075,
      "velocity": 0.92,
      "hand": "left"
    },
    {
      "midi": 62,
      "time": 73.2,
      "duration": 0.15,
      "velocity": 1,
      "hand": "right"
    },
    {
      "midi": 67,
      "time": 73.2,
      "duration": 0.15,
      "velocity": 0.94,
      "hand": "right"
    },
    {
      "midi": 71,
      "time": 73.2,
      "duration": 0.15,
      "velocity": 1,
      "hand": "right"
    },
    {
      "midi": 74,
      "time": 73.2,
      "duration": 0.15,
      "velocity": 1,
      "hand": "right"
    },
    {
      "midi": 42,
      "time": 73.5,
      "duration": 0.15,
      "velocity": 0.63,
      "hand": "left"
    },
    {
      "midi": 46,
      "time": 73.5,
      "duration": 0.075,
      "velocity": 0.63,
      "hand": "left"
    },
    {
      "midi": 50,
      "time": 73.5,
      "duration": 0.15,
      "velocity": 0.89,
      "hand": "left"
    },
    {
      "midi": 50,
      "time": 73.5,
      "duration": 0.45,
      "velocity": 1,
      "hand": "left"
    },
    {
      "midi": 59,
      "time": 73.5,
      "duration": 0.075,
      "velocity": 0.94,
      "hand": "left"
    },
    {
      "midi": 62,
      "time": 73.5,
      "duration": 0.075,
      "velocity": 1,
      "hand": "right"
    },
    {
      "midi": 67,
      "time": 73.5,
      "duration": 0.075,
      "velocity": 1,
      "hand": "right"
    },
    {
      "midi": 71,
      "time": 73.5,
      "duration": 0.3,
      "velocity": 1,
      "hand": "right"
    },
    {
      "midi": 74,
      "time": 73.5,
      "duration": 0.45,
      "velocity": 1,
      "hand": "right"
    },
    {
      "midi": 38,
      "time": 73.8,
      "duration": 0.3,
      "velocity": 1,
      "hand": "left"
    },
    {
      "midi": 44,
      "time": 73.8,
      "duration": 0.15,
      "velocity": 0.63,
      "hand": "left"
    },
    {
      "midi": 48,
      "time": 73.8,
      "duration": 0.3,
      "velocity": 1,
      "hand": "left"
    },
    {
      "midi": 55,
      "time": 73.8,
      "duration": 0.45,
      "velocity": 0.63,
      "hand": "left"
    },
    {
      "midi": 58,
      "time": 73.8,
      "duration": 0.075,
      "velocity": 0.63,
      "hand": "left"
    },
    {
      "midi": 59,
      "time": 73.8,
      "duration": 0.075,
      "velocity": 1,
      "hand": "left"
    },
    {
      "midi": 62,
      "time": 73.8,
      "duration": 0.15,
      "velocity": 1,
      "hand": "right"
    },
    {
      "midi": 67,
      "time": 73.8,
      "duration": 0.075,
      "velocity": 1,
      "hand": "right"
    },
    {
      "midi": 69,
      "time": 73.8,
      "duration": 0.3,
      "velocity": 1,
      "hand": "right"
    },
    {
      "midi": 72,
      "time": 73.8,
      "duration": 0.3,
      "velocity": 1,
      "hand": "right"
    },
    {
      "midi": 42,
      "time": 74.1,
      "duration": 0.15,
      "velocity": 0.63,
      "hand": "left"
    },
    {
      "midi": 46,
      "time": 74.1,
      "duration": 0.15,
      "velocity": 0.63,
      "hand": "left"
    },
    {
      "midi": 47,
      "time": 74.1,
      "duration": 0.3,
      "velocity": 1,
      "hand": "left"
    },
    {
      "midi": 50,
      "time": 74.1,
      "duration": 0.15,
      "velocity": 1,
      "hand": "left"
    },
    {
      "midi": 59,
      "time": 74.1,
      "duration": 0.15,
      "velocity": 0.97,
      "hand": "left"
    },
    {
      "midi": 62,
      "time": 74.1,
      "duration": 0.075,
      "velocity": 1,
      "hand": "right"
    },
    {
      "midi": 67,
      "time": 74.1,
      "duration": 0.15,
      "velocity": 1,
      "hand": "right"
    },
    {
      "midi": 67,
      "time": 74.1,
      "duration": 0.3,
      "velocity": 1,
      "hand": "right"
    },
    {
      "midi": 71,
      "time": 74.1,
      "duration": 0.3,
      "velocity": 1,
      "hand": "right"
    },
    {
      "midi": 44,
      "time": 74.25,
      "duration": 0.075,
      "velocity": 0.63,
      "hand": "left"
    },
    {
      "midi": 46,
      "time": 74.25,
      "duration": 0.075,
      "velocity": 0.63,
      "hand": "left"
    },
    {
      "midi": 56,
      "time": 74.25,
      "duration": 0.15,
      "velocity": 0.63,
      "hand": "left"
    },
    {
      "midi": 38,
      "time": 74.4,
      "duration": 0.15,
      "velocity": 0.63,
      "hand": "left"
    },
    {
      "midi": 42,
      "time": 74.4,
      "duration": 0.15,
      "velocity": 1,
      "hand": "left"
    },
    {
      "midi": 44,
      "time": 74.4,
      "duration": 0.15,
      "velocity": 0.63,
      "hand": "left"
    },
    {
      "midi": 45,
      "time": 74.4,
      "duration": 0.15,
      "velocity": 1,
      "hand": "left"
    },
    {
      "midi": 57,
      "time": 74.4,
      "duration": 0.075,
      "velocity": 1,
      "hand": "left"
    },
    {
      "midi": 62,
      "time": 74.4,
      "duration": 0.075,
      "velocity": 1,
      "hand": "right"
    },
    {
      "midi": 66,
      "time": 74.4,
      "duration": 0.075,
      "velocity": 1,
      "hand": "right"
    },
    {
      "midi": 66,
      "time": 74.4,
      "duration": 1.05,
      "velocity": 1,
      "hand": "right"
    },
    {
      "midi": 69,
      "time": 74.4,
      "duration": 0.15,
      "velocity": 1,
      "hand": "right"
    },
    {
      "midi": 42,
      "time": 74.7,
      "duration": 0.15,
      "velocity": 0.63,
      "hand": "left"
    },
    {
      "midi": 46,
      "time": 74.7,
      "duration": 0.075,
      "velocity": 0.63,
      "hand": "left"
    },
    {
      "midi": 50,
      "time": 74.7,
      "duration": 0.075,
      "velocity": 0.99,
      "hand": "left"
    },
    {
      "midi": 50,
      "time": 74.7,
      "duration": 0.15,
      "velocity": 0.87,
      "hand": "left"
    },
    {
      "midi": 57,
      "time": 74.7,
      "duration": 0.075,
      "velocity": 1,
      "hand": "left"
    },
    {
      "midi": 62,
      "time": 74.7,
      "duration": 0.075,
      "velocity": 1,
      "hand": "right"
    },
    {
      "midi": 62,
      "time": 74.7,
      "duration": 0.15,
      "velocity": 0.63,
      "hand": "right"
    },
    {
      "midi": 66,
      "time": 74.7,
      "duration": 0.075,
      "velocity": 1,
      "hand": "right"
    },
    {
      "midi": 66,
      "time": 74.7,
      "duration": 0.15,
      "velocity": 0.94,
      "hand": "right"
    },
    {
      "midi": 74,
      "time": 74.7,
      "duration": 0.15,
      "velocity": 0.87,
      "hand": "right"
    },
    {
      "midi": 74,
      "time": 74.7,
      "duration": 0.075,
      "velocity": 1,
      "hand": "right"
    },
    {
      "midi": 90,
      "time": 74.7,
      "duration": 0.075,
      "velocity": 0.92,
      "hand": "right"
    },
    {
      "midi": 90,
      "time": 74.7,
      "duration": 0.15,
      "velocity": 0.71,
      "hand": "right"
    },
    {
      "midi": 91,
      "time": 74.7,
      "duration": 0.15,
      "velocity": 0.68,
      "hand": "right"
    },
    {
      "midi": 50,
      "time": 74.85,
      "duration": 0.15,
      "velocity": 0.89,
      "hand": "left"
    },
    {
      "midi": 57,
      "time": 74.85,
      "duration": 0.075,
      "velocity": 0.81,
      "hand": "left"
    },
    {
      "midi": 61,
      "time": 74.85,
      "duration": 0.15,
      "velocity": 0.63,
      "hand": "right"
    },
    {
      "midi": 62,
      "time": 74.85,
      "duration": 0.075,
      "velocity": 1,
      "hand": "right"
    },
    {
      "midi": 64,
      "time": 74.85,
      "duration": 0.15,
      "velocity": 0.94,
      "hand": "right"
    },
    {
      "midi": 66,
      "time": 74.85,
      "duration": 0.075,
      "velocity": 1,
      "hand": "right"
    },
    {
      "midi": 74,
      "time": 74.85,
      "duration": 0.15,
      "velocity": 0.89,
      "hand": "right"
    },
    {
      "midi": 88,
      "time": 74.85,
      "duration": 0.15,
      "velocity": 0.91,
      "hand": "right"
    },
    {
      "midi": 90,
      "time": 74.85,
      "duration": 0.075,
      "velocity": 0.92,
      "hand": "right"
    },
    {
      "midi": 38,
      "time": 75,
      "duration": 0.3,
      "velocity": 1,
      "hand": "left"
    },
    {
      "midi": 38,
      "time": 75,
      "duration": 0.15,
      "velocity": 0.63,
      "hand": "left"
    },
    {
      "midi": 44,
      "time": 75,
      "duration": 0.075,
      "velocity": 0.63,
      "hand": "left"
    },
    {
      "midi": 50,
      "time": 75,
      "duration": 0.15,
      "velocity": 1,
      "hand": "left"
    },
    {
      "midi": 60,
      "time": 75,
      "duration": 0.075,
      "velocity": 0.63,
      "hand": "right"
    },
    {
      "midi": 62,
      "time": 75,
      "duration": 0.075,
      "velocity": 0.94,
      "hand": "right"
    },
    {
      "midi": 74,
      "time": 75,
      "duration": 0.15,
      "velocity": 1,
      "hand": "right"
    },
    {
      "midi": 42,
      "time": 75.3,
      "duration": 0.15,
      "velocity": 0.63,
      "hand": "left"
    },
    {
      "midi": 46,
      "time": 75.3,
      "duration": 0.075,
      "velocity": 0.63,
      "hand": "left"
    },
    {
      "midi": 50,
      "time": 75.3,
      "duration": 0.15,
      "velocity": 0.93,
      "hand": "left"
    },
    {
      "midi": 57,
      "time": 75.3,
      "duration": 0.075,
      "velocity": 1,
      "hand": "left"
    },
    {
      "midi": 62,
      "time": 75.3,
      "duration": 0.075,
      "velocity": 1,
      "hand": "right"
    },
    {
      "midi": 62,
      "time": 75.3,
      "duration": 0.15,
      "velocity": 0.94,
      "hand": "right"
    },
    {
      "midi": 66,
      "time": 75.3,
      "duration": 0.075,
      "velocity": 1,
      "hand": "right"
    },
    {
      "midi": 66,
      "time": 75.3,
      "duration": 0.15,
      "velocity": 0.63,
      "hand": "right"
    },
    {
      "midi": 74,
      "time": 75.3,
      "duration": 0.15,
      "velocity": 1,
      "hand": "right"
    },
    {
      "midi": 91,
      "time": 75.3,
      "duration": 0.075,
      "velocity": 0.92,
      "hand": "right"
    },
    {
      "midi": 61,
      "time": 75.45,
      "duration": 0.15,
      "velocity": 0.94,
      "hand": "right"
    },
    {
      "midi": 64,
      "time": 75.45,
      "duration": 0.15,
      "velocity": 0.63,
      "hand": "right"
    },
    {
      "midi": 38,
      "time": 75.6,
      "duration": 0.15,
      "velocity": 0.63,
      "hand": "left"
    },
    {
      "midi": 42,
      "time": 75.6,
      "duration": 0.3,
      "velocity": 0.87,
      "hand": "left"
    },
    {
      "midi": 44,
      "time": 75.6,
      "duration": 0.15,
      "velocity": 0.63,
      "hand": "left"
    },
    {
      "midi": 50,
      "time": 75.6,
      "duration": 0.6,
      "velocity": 1,
      "hand": "left"
    },
    {
      "midi": 57,
      "time": 75.6,
      "duration": 0.075,
      "velocity": 0.99,
      "hand": "left"
    },
    {
      "midi": 60,
      "time": 75.6,
      "duration": 0.6,
      "velocity": 0.94,
      "hand": "right"
    },
    {
      "midi": 62,
      "time": 75.6,
      "duration": 0.075,
      "velocity": 1,
      "hand": "right"
    },
    {
      "midi": 66,
      "time": 75.6,
      "duration": 0.075,
      "velocity": 1,
      "hand": "right"
    },
    {
      "midi": 74,
      "time": 75.6,
      "duration": 0.6,
      "velocity": 1,
      "hand": "right"
    },
    {
      "midi": 93,
      "time": 75.6,
      "duration": 0.6,
      "velocity": 0.69,
      "hand": "right"
    },
    {
      "midi": 57,
      "time": 75.75,
      "duration": 0.075,
      "velocity": 0.99,
      "hand": "left"
    },
    {
      "midi": 62,
      "time": 75.75,
      "duration": 0.075,
      "velocity": 1,
      "hand": "right"
    },
    {
      "midi": 66,
      "time": 75.75,
      "duration": 0.075,
      "velocity": 1,
      "hand": "right"
    },
    {
      "midi": 42,
      "time": 75.9,
      "duration": 0.15,
      "velocity": 0.63,
      "hand": "left"
    },
    {
      "midi": 46,
      "time": 75.9,
      "duration": 0.075,
      "velocity": 0.63,
      "hand": "left"
    },
    {
      "midi": 50,
      "time": 75.9,
      "duration": 0.15,
      "velocity": 0.97,
      "hand": "left"
    },
    {
      "midi": 69,
      "time": 75.9,
      "duration": 0.15,
      "velocity": 0.63,
      "hand": "right"
    },
    {
      "midi": 67,
      "time": 76.05,
      "duration": 0.15,
      "velocity": 0.63,
      "hand": "right"
    },
    {
      "midi": 38,
      "time": 76.2,
      "duration": 0.3,
      "velocity": 0.63,
      "hand": "left"
    },
    {
      "midi": 44,
      "time": 76.2,
      "duration": 0.15,
      "velocity": 0.63,
      "hand": "left"
    },
    {
      "midi": 45,
      "time": 76.2,
      "duration": 0.3,
      "velocity": 1,
      "hand": "left"
    },
    {
      "midi": 54,
      "time": 76.2,
      "duration": 0.3,
      "velocity": 1,
      "hand": "left"
    },
    {
      "midi": 57,
      "time": 76.2,
      "duration": 0.15,
      "velocity": 1,
      "hand": "left"
    },
    {
      "midi": 62,
      "time": 76.2,
      "duration": 0.075,
      "velocity": 1,
      "hand": "right"
    },
    {
      "midi": 66,
      "time": 76.2,
      "duration": 0.075,
      "velocity": 1,
      "hand": "right"
    },
    {
      "midi": 69,
      "time": 76.2,
      "duration": 0.3,
      "velocity": 1,
      "hand": "right"
    },
    {
      "midi": 78,
      "time": 76.2,
      "duration": 0.3,
      "velocity": 1,
      "hand": "right"
    },
    {
      "midi": 52,
      "time": 76.35,
      "duration": 0.3,
      "velocity": 0.99,
      "hand": "left"
    },
    {
      "midi": 76,
      "time": 76.35,
      "duration": 0.3,
      "velocity": 0.99,
      "hand": "right"
    },
    {
      "midi": 42,
      "time": 76.5,
      "duration": 0.15,
      "velocity": 0.63,
      "hand": "left"
    },
    {
      "midi": 46,
      "time": 76.5,
      "duration": 0.075,
      "velocity": 0.63,
      "hand": "left"
    },
    {
      "midi": 50,
      "time": 76.5,
      "duration": 0.15,
      "velocity": 0.79,
      "hand": "left"
    },
    {
      "midi": 57,
      "time": 76.5,
      "duration": 0.075,
      "velocity": 1,
      "hand": "left"
    },
    {
      "midi": 62,
      "time": 76.5,
      "duration": 0.075,
      "velocity": 1,
      "hand": "right"
    },
    {
      "midi": 66,
      "time": 76.5,
      "duration": 0.15,
      "velocity": 1,
      "hand": "right"
    },
    {
      "midi": 67,
      "time": 76.5,
      "duration": 0.3,
      "velocity": 1,
      "hand": "right"
    },
    {
      "midi": 76,
      "time": 76.5,
      "duration": 0.3,
      "velocity": 1,
      "hand": "right"
    },
    {
      "midi": 50,
      "time": 76.65,
      "duration": 0.9,
      "velocity": 0.99,
      "hand": "left"
    },
    {
      "midi": 64,
      "time": 76.65,
      "duration": 0.15,
      "velocity": 0.63,
      "hand": "right"
    },
    {
      "midi": 74,
      "time": 76.65,
      "duration": 0.9,
      "velocity": 0.99,
      "hand": "right"
    },
    {
      "midi": 38,
      "time": 76.8,
      "duration": 0.3,
      "velocity": 1,
      "hand": "left"
    },
    {
      "midi": 38,
      "time": 76.8,
      "duration": 0.075,
      "velocity": 0.63,
      "hand": "left"
    },
    {
      "midi": 44,
      "time": 76.8,
      "duration": 0.075,
      "velocity": 0.63,
      "hand": "left"
    },
    {
      "midi": 62,
      "time": 76.8,
      "duration": 0.15,
      "velocity": 1,
      "hand": "right"
    },
    {
      "midi": 62,
      "time": 76.8,
      "duration": 0.3,
      "velocity": 0.63,
      "hand": "right"
    },
    {
      "midi": 66,
      "time": 76.8,
      "duration": 0.15,
      "velocity": 0.97,
      "hand": "right"
    },
    {
      "midi": 66,
      "time": 76.8,
      "duration": 0.9,
      "velocity": 1,
      "hand": "right"
    },
    {
      "midi": 72,
      "time": 76.8,
      "duration": 0.075,
      "velocity": 0.98,
      "hand": "right"
    },
    {
      "midi": 74,
      "time": 76.8,
      "duration": 0.9,
      "velocity": 1,
      "hand": "right"
    },
    {
      "midi": 42,
      "time": 77.1,
      "duration": 0.15,
      "velocity": 0.63,
      "hand": "left"
    },
    {
      "midi": 44,
      "time": 77.1,
      "duration": 0.075,
      "velocity": 0.63,
      "hand": "left"
    },
    {
      "midi": 46,
      "time": 77.1,
      "duration": 0.075,
      "velocity": 0.63,
      "hand": "left"
    },
    {
      "midi": 50,
      "time": 77.1,
      "duration": 0.15,
      "velocity": 0.89,
      "hand": "left"
    },
    {
      "midi": 62,
      "time": 77.1,
      "duration": 0.075,
      "velocity": 0.92,
      "hand": "right"
    },
    {
      "midi": 66,
      "time": 77.1,
      "duration": 0.075,
      "velocity": 0.94,
      "hand": "right"
    },
    {
      "midi": 66,
      "time": 77.1,
      "duration": 0.3,
      "velocity": 0.63,
      "hand": "right"
    },
    {
      "midi": 72,
      "time": 77.1,
      "duration": 0.075,
      "velocity": 0.94,
      "hand": "right"
    },
    {
      "midi": 90,
      "time": 77.1,
      "duration": 0.3,
      "velocity": 0.92,
      "hand": "right"
    },
    {
      "midi": 91,
      "time": 77.1,
      "duration": 0.15,
      "velocity": 0.73,
      "hand": "right"
    },
    {
      "midi": 44,
      "time": 77.25,
      "duration": 0.15,
      "velocity": 0.63,
      "hand": "left"
    },
    {
      "midi": 46,
      "time": 77.25,
      "duration": 0.15,
      "velocity": 0.63,
      "hand": "left"
    },
    {
      "midi": 62,
      "time": 77.25,
      "duration": 0.075,
      "velocity": 0.65,
      "hand": "right"
    },
    {
      "midi": 66,
      "time": 77.25,
      "duration": 0.15,
      "velocity": 0.92,
      "hand": "right"
    },
    {
      "midi": 72,
      "time": 77.25,
      "duration": 0.075,
      "velocity": 0.84,
      "hand": "right"
    },
    {
      "midi": 38,
      "time": 77.4,
      "duration": 0.15,
      "velocity": 0.63,
      "hand": "left"
    },
    {
      "midi": 40,
      "time": 77.4,
      "duration": 0.3,
      "velocity": 1,
      "hand": "left"
    },
    {
      "midi": 46,
      "time": 77.4,
      "duration": 0.075,
      "velocity": 0.63,
      "hand": "left"
    },
    {
      "midi": 62,
      "time": 77.4,
      "duration": 0.075,
      "velocity": 0.77,
      "hand": "right"
    },
    {
      "midi": 64,
      "time": 77.4,
      "duration": 0.3,
      "velocity": 0.63,
      "hand": "right"
    },
    {
      "midi": 66,
      "time": 77.4,
      "duration": 0.075,
      "velocity": 0.92,
      "hand": "right"
    },
    {
      "midi": 72,
      "time": 77.4,
      "duration": 0.075,
      "velocity": 0.91,
      "hand": "right"
    },
    {
      "midi": 93,
      "time": 77.4,
      "duration": 0.075,
      "velocity": 0.81,
      "hand": "right"
    },
    {
      "midi": 42,
      "time": 77.7,
      "duration": 0.15,
      "velocity": 0.63,
      "hand": "left"
    },
    {
      "midi": 46,
      "time": 77.7,
      "duration": 0.075,
      "velocity": 0.63,
      "hand": "left"
    },
    {
      "midi": 48,
      "time": 77.7,
      "duration": 0.3,
      "velocity": 0.99,
      "hand": "left"
    },
    {
      "midi": 50,
      "time": 77.7,
      "duration": 0.15,
      "velocity": 0.81,
      "hand": "left"
    },
    {
      "midi": 62,
      "time": 77.7,
      "duration": 0.075,
      "velocity": 1,
      "hand": "right"
    },
    {
      "midi": 62,
      "time": 77.7,
      "duration": 0.3,
      "velocity": 0.63,
      "hand": "right"
    },
    {
      "midi": 64,
      "time": 77.7,
      "duration": 0.3,
      "velocity": 1,
      "hand": "right"
    },
    {
      "midi": 65,
      "time": 77.7,
      "duration": 0.075,
      "velocity": 0.74,
      "hand": "right"
    },
    {
      "midi": 66,
      "time": 77.7,
      "duration": 0.075,
      "velocity": 1,
      "hand": "right"
    },
    {
      "midi": 72,
      "time": 77.7,
      "duration": 0.075,
      "velocity": 1,
      "hand": "right"
    },
    {
      "midi": 72,
      "time": 77.7,
      "duration": 0.3,
      "velocity": 0.99,
      "hand": "right"
    },
    {
      "midi": 72,
      "time": 77.7,
      "duration": 0.45,
      "velocity": 1,
      "hand": "right"
    },
    {
      "midi": 93,
      "time": 77.7,
      "duration": 0.15,
      "velocity": 0.92,
      "hand": "right"
    },
    {
      "midi": 90,
      "time": 77.85,
      "duration": 0.15,
      "velocity": 0.92,
      "hand": "right"
    },
    {
      "midi": 38,
      "time": 78,
      "duration": 0.15,
      "velocity": 0.63,
      "hand": "left"
    },
    {
      "midi": 41,
      "time": 78,
      "duration": 0.3,
      "velocity": 1,
      "hand": "left"
    },
    {
      "midi": 44,
      "time": 78,
      "duration": 0.075,
      "velocity": 0.63,
      "hand": "left"
    },
    {
      "midi": 47,
      "time": 78,
      "duration": 0.6,
      "velocity": 1,
      "hand": "left"
    },
    {
      "midi": 60,
      "time": 78,
      "duration": 1.05,
      "velocity": 0.63,
      "hand": "right"
    },
    {
      "midi": 62,
      "time": 78,
      "duration": 0.075,
      "velocity": 0.68,
      "hand": "right"
    },
    {
      "midi": 62,
      "time": 78,
      "duration": 0.6,
      "velocity": 0.92,
      "hand": "right"
    },
    {
      "midi": 66,
      "time": 78,
      "duration": 0.15,
      "velocity": 0.89,
      "hand": "right"
    },
    {
      "midi": 71,
      "time": 78,
      "duration": 0.6,
      "velocity": 1,
      "hand": "right"
    },
    {
      "midi": 72,
      "time": 78,
      "duration": 0.15,
      "velocity": 0.87,
      "hand": "right"
    },
    {
      "midi": 86,
      "time": 78,
      "duration": 0.15,
      "velocity": 0.92,
      "hand": "right"
    },
    {
      "midi": 42,
      "time": 78.3,
      "duration": 0.15,
      "velocity": 0.63,
      "hand": "left"
    },
    {
      "midi": 46,
      "time": 78.3,
      "duration": 0.075,
      "velocity": 0.63,
      "hand": "left"
    },
    {
      "midi": 50,
      "time": 78.3,
      "duration": 0.15,
      "velocity": 0.93,
      "hand": "left"
    },
    {
      "midi": 62,
      "time": 78.3,
      "duration": 0.075,
      "velocity": 0.65,
      "hand": "right"
    },
    {
      "midi": 66,
      "time": 78.3,
      "duration": 0.075,
      "velocity": 0.89,
      "hand": "right"
    },
    {
      "midi": 72,
      "time": 78.3,
      "duration": 0.075,
      "velocity": 0.82,
      "hand": "right"
    },
    {
      "midi": 88,
      "time": 78.3,
      "duration": 0.15,
      "velocity": 0.73,
      "hand": "right"
    },
    {
      "midi": 90,
      "time": 78.3,
      "duration": 0.15,
      "velocity": 0.92,
      "hand": "right"
    },
    {
      "midi": 38,
      "time": 78.6,
      "duration": 0.3,
      "velocity": 0.63,
      "hand": "left"
    },
    {
      "midi": 42,
      "time": 78.6,
      "duration": 0.3,
      "velocity": 1,
      "hand": "left"
    },
    {
      "midi": 44,
      "time": 78.6,
      "duration": 0.15,
      "velocity": 0.63,
      "hand": "left"
    },
    {
      "midi": 45,
      "time": 78.6,
      "duration": 0.6,
      "velocity": 1,
      "hand": "left"
    },
    {
      "midi": 60,
      "time": 78.6,
      "duration": 0.6,
      "velocity": 1,
      "hand": "right"
    },
    {
      "midi": 62,
      "time": 78.6,
      "duration": 0.075,
      "velocity": 1,
      "hand": "right"
    },
    {
      "midi": 66,
      "time": 78.6,
      "duration": 0.15,
      "velocity": 1,
      "hand": "right"
    },
    {
      "midi": 69,
      "time": 78.6,
      "duration": 0.6,
      "velocity": 1,
      "hand": "right"
    },
    {
      "midi": 72,
      "time": 78.6,
      "duration": 0.15,
      "velocity": 1,
      "hand": "right"
    },
    {
      "midi": 86,
      "time": 78.6,
      "duration": 0.075,
      "velocity": 0.92,
      "hand": "right"
    },
    {
      "midi": 42,
      "time": 78.9,
      "duration": 0.3,
      "velocity": 0.63,
      "hand": "left"
    },
    {
      "midi": 46,
      "time": 78.9,
      "duration": 0.15,
      "velocity": 0.63,
      "hand": "left"
    },
    {
      "midi": 57,
      "time": 78.9,
      "duration": 0.15,
      "velocity": 0.97,
      "hand": "left"
    },
    {
      "midi": 62,
      "time": 78.9,
      "duration": 0.075,
      "velocity": 0.99,
      "hand": "right"
    },
    {
      "midi": 66,
      "time": 78.9,
      "duration": 0.15,
      "velocity": 1,
      "hand": "right"
    },
    {
      "midi": 72,
      "time": 78.9,
      "duration": 0.075,
      "velocity": 0.98,
      "hand": "right"
    },
    {
      "midi": 88,
      "time": 78.9,
      "duration": 0.15,
      "velocity": 0.92,
      "hand": "right"
    },
    {
      "midi": 90,
      "time": 79.05,
      "duration": 0.15,
      "velocity": 0.68,
      "hand": "right"
    },
    {
      "midi": 38,
      "time": 79.2,
      "duration": 0.075,
      "velocity": 0.63,
      "hand": "left"
    },
    {
      "midi": 43,
      "time": 79.2,
      "duration": 0.3,
      "velocity": 1,
      "hand": "left"
    },
    {
      "midi": 44,
      "time": 79.2,
      "duration": 0.075,
      "velocity": 0.63,
      "hand": "left"
    },
    {
      "midi": 52,
      "time": 79.2,
      "duration": 0.15,
      "velocity": 1,
      "hand": "left"
    },
    {
      "midi": 62,
      "time": 79.2,
      "duration": 0.15,
      "velocity": 1,
      "hand": "right"
    },
    {
      "midi": 67,
      "time": 79.2,
      "duration": 0.075,
      "velocity": 1,
      "hand": "right"
    },
    {
      "midi": 69,
      "time": 79.2,
      "duration": 0.3,
      "velocity": 1,
      "hand": "right"
    },
    {
      "midi": 71,
      "time": 79.2,
      "duration": 0.075,
      "velocity": 1,
      "hand": "right"
    },
    {
      "midi": 76,
      "time": 79.2,
      "duration": 0.15,
      "velocity": 1,
      "hand": "right"
    },
    {
      "midi": 91,
      "time": 79.2,
      "duration": 0.3,
      "velocity": 0.92,
      "hand": "right"
    },
    {
      "midi": 42,
      "time": 79.5,
      "duration": 0.15,
      "velocity": 0.63,
      "hand": "left"
    },
    {
      "midi": 46,
      "time": 79.5,
      "duration": 0.075,
      "velocity": 0.63,
      "hand": "left"
    },
    {
      "midi": 50,
      "time": 79.5,
      "duration": 0.6,
      "velocity": 1,
      "hand": "left"
    },
    {
      "midi": 55,
      "time": 79.5,
      "duration": 0.075,
      "velocity": 1,
      "hand": "left"
    },
    {
      "midi": 62,
      "time": 79.5,
      "duration": 0.075,
      "velocity": 0.94,
      "hand": "right"
    },
    {
      "midi": 62,
      "time": 79.5,
      "duration": 0.3,
      "velocity": 0.63,
      "hand": "right"
    },
    {
      "midi": 67,
      "time": 79.5,
      "duration": 0.075,
      "velocity": 1,
      "hand": "right"
    },
    {
      "midi": 67,
      "time": 79.5,
      "duration": 0.15,
      "velocity": 1,
      "hand": "right"
    },
    {
      "midi": 71,
      "time": 79.5,
      "duration": 0.075,
      "velocity": 0.99,
      "hand": "right"
    },
    {
      "midi": 74,
      "time": 79.5,
      "duration": 0.6,
      "velocity": 1,
      "hand": "right"
    },
    {
      "midi": 83,
      "time": 79.5,
      "duration": 0.15,
      "velocity": 0.92,
      "hand": "right"
    },
    {
      "midi": 62,
      "time": 79.65,
      "duration": 0.075,
      "velocity": 0.79,
      "hand": "right"
    },
    {
      "midi": 67,
      "time": 79.65,
      "duration": 0.075,
      "velocity": 1,
      "hand": "right"
    },
    {
      "midi": 71,
      "time": 79.65,
      "duration": 0.15,
      "velocity": 0.89,
      "hand": "right"
    },
    {
      "midi": 84,
      "time": 79.65,
      "duration": 0.15,
      "velocity": 0.92,
      "hand": "right"
    },
    {
      "midi": 38,
      "time": 79.8,
      "duration": 0.3,
      "velocity": 1,
      "hand": "left"
    },
    {
      "midi": 38,
      "time": 79.8,
      "duration": 0.15,
      "velocity": 0.63,
      "hand": "left"
    },
    {
      "midi": 44,
      "time": 79.8,
      "duration": 0.075,
      "velocity": 0.63,
      "hand": "left"
    },
    {
      "midi": 67,
      "time": 79.8,
      "duration": 0.3,
      "velocity": 0.63,
      "hand": "right"
    },
    {
      "midi": 67,
      "time": 79.8,
      "duration": 0.6,
      "velocity": 1,
      "hand": "right"
    },
    {
      "midi": 86,
      "time": 79.8,
      "duration": 0.075,
      "velocity": 0.92,
      "hand": "right"
    },
    {
      "midi": 42,
      "time": 80.1,
      "duration": 0.15,
      "velocity": 0.63,
      "hand": "left"
    },
    {
      "midi": 46,
      "time": 80.1,
      "duration": 0.075,
      "velocity": 0.63,
      "hand": "left"
    },
    {
      "midi": 47,
      "time": 80.1,
      "duration": 0.3,
      "velocity": 1,
      "hand": "left"
    },
    {
      "midi": 50,
      "time": 80.1,
      "duration": 0.15,
      "velocity": 0.99,
      "hand": "left"
    },
    {
      "midi": 59,
      "time": 80.1,
      "duration": 0.3,
      "velocity": 0.63,
      "hand": "left"
    },
    {
      "midi": 62,
      "time": 80.1,
      "duration": 0.15,
      "velocity": 1,
      "hand": "right"
    },
    {
      "midi": 62,
      "time": 80.1,
      "duration": 0.3,
      "velocity": 1,
      "hand": "right"
    },
    {
      "midi": 67,
      "time": 80.1,
      "duration": 0.075,
      "velocity": 1,
      "hand": "right"
    },
    {
      "midi": 71,
      "time": 80.1,
      "duration": 0.075,
      "velocity": 1,
      "hand": "right"
    },
    {
      "midi": 71,
      "time": 80.1,
      "duration": 0.3,
      "velocity": 1,
      "hand": "right"
    },
    {
      "midi": 79,
      "time": 80.1,
      "duration": 0.6,
      "velocity": 0.92,
      "hand": "right"
    },
    {
      "midi": 38,
      "time": 80.4,
      "duration": 0.15,
      "velocity": 0.63,
      "hand": "left"
    },
    {
      "midi": 43,
      "time": 80.4,
      "duration": 0.3,
      "velocity": 1,
      "hand": "left"
    },
    {
      "midi": 43,
      "time": 80.4,
      "duration": 0.6,
      "velocity": 1,
      "hand": "left"
    },
    {
      "midi": 44,
      "time": 80.4,
      "duration": 0.15,
      "velocity": 0.63,
      "hand": "left"
    },
    {
      "midi": 62,
      "time": 80.4,
      "duration": 0.15,
      "velocity": 0.89,
      "hand": "right"
    },
    {
      "midi": 64,
      "time": 80.4,
      "duration": 0.15,
      "velocity": 1,
      "hand": "right"
    },
    {
      "midi": 67,
      "time": 80.4,
      "duration": 0.075,
      "velocity": 1,
      "hand": "right"
    },
    {
      "midi": 67,
      "time": 80.4,
      "duration": 0.6,
      "velocity": 1,
      "hand": "right"
    },
    {
      "midi": 71,
      "time": 80.4,
      "duration": 0.075,
      "velocity": 0.94,
      "hand": "right"
    },
    {
      "midi": 71,
      "time": 80.4,
      "duration": 0.6,
      "velocity": 1,
      "hand": "right"
    },
    {
      "midi": 62,
      "time": 80.55,
      "duration": 0.075,
      "velocity": 0.57,
      "hand": "right"
    },
    {
      "midi": 64,
      "time": 80.55,
      "duration": 0.15,
      "velocity": 0.54,
      "hand": "right"
    },
    {
      "midi": 42,
      "time": 80.7,
      "duration": 0.15,
      "velocity": 0.63,
      "hand": "left"
    },
    {
      "midi": 46,
      "time": 80.7,
      "duration": 0.075,
      "velocity": 0.63,
      "hand": "left"
    },
    {
      "midi": 50,
      "time": 80.7,
      "duration": 0.15,
      "velocity": 0.99,
      "hand": "left"
    },
    {
      "midi": 62,
      "time": 80.7,
      "duration": 0.075,
      "velocity": 0.92,
      "hand": "right"
    },
    {
      "midi": 67,
      "time": 80.7,
      "duration": 0.075,
      "velocity": 1,
      "hand": "right"
    },
    {
      "midi": 71,
      "time": 80.7,
      "duration": 0.075,
      "velocity": 0.97,
      "hand": "right"
    },
    {
      "midi": 38,
      "time": 81,
      "duration": 0.3,
      "velocity": 0.63,
      "hand": "left"
    },
    {
      "midi": 44,
      "time": 81,
      "duration": 0.3,
      "velocity": 1,
      "hand": "left"
    },
    {
      "midi": 44,
      "time": 81,
      "duration": 0.15,
      "velocity": 0.63,
      "hand": "left"
    },
    {
      "midi": 47,
      "time": 81,
      "duration": 0.6,
      "velocity": 1,
      "hand": "left"
    },
    {
      "midi": 62,
      "time": 81,
      "duration": 0.15,
      "velocity": 1,
      "hand": "right"
    },
    {
      "midi": 62,
      "time": 81,
      "duration": 0.3,
      "velocity": 1,
      "hand": "right"
    },
    {
      "midi": 64,
      "time": 81,
      "duration": 0.3,
      "velocity": 0.63,
      "hand": "right"
    },
    {
      "midi": 67,
      "time": 81,
      "duration": 0.15,
      "velocity": 1,
      "hand": "right"
    },
    {
      "midi": 67,
      "time": 81,
      "duration": 0.6,
      "velocity": 1,
      "hand": "right"
    },
    {
      "midi": 71,
      "time": 81,
      "duration": 0.15,
      "velocity": 1,
      "hand": "right"
    },
    {
      "midi": 71,
      "time": 81,
      "duration": 0.6,
      "velocity": 1,
      "hand": "right"
    },
    {
      "midi": 42,
      "time": 81.3,
      "duration": 0.15,
      "velocity": 0.63,
      "hand": "left"
    },
    {
      "midi": 46,
      "time": 81.3,
      "duration": 0.15,
      "velocity": 0.63,
      "hand": "left"
    },
    {
      "midi": 52,
      "time": 81.3,
      "duration": 0.15,
      "velocity": 0.72,
      "hand": "left"
    },
    {
      "midi": 61,
      "time": 81.3,
      "duration": 0.3,
      "velocity": 1,
      "hand": "right"
    },
    {
      "midi": 62,
      "time": 81.3,
      "duration": 0.15,
      "velocity": 1,
      "hand": "right"
    },
    {
      "midi": 62,
      "time": 81.3,
      "duration": 0.3,
      "velocity": 0.63,
      "hand": "right"
    },
    {
      "midi": 67,
      "time": 81.3,
      "duration": 0.15,
      "velocity": 1,
      "hand": "right"
    },
    {
      "midi": 71,
      "time": 81.3,
      "duration": 0.075,
      "velocity": 1,
      "hand": "right"
    },
    {
      "midi": 38,
      "time": 81.6,
      "duration": 0.15,
      "velocity": 0.63,
      "hand": "left"
    },
    {
      "midi": 44,
      "time": 81.6,
      "duration": 0.075,
      "velocity": 0.63,
      "hand": "left"
    },
    {
      "midi": 45,
      "time": 81.6,
      "duration": 0.15,
      "velocity": 1,
      "hand": "left"
    },
    {
      "midi": 50,
      "time": 81.6,
      "duration": 0.15,
      "velocity": 0.89,
      "hand": "left"
    },
    {
      "midi": 60,
      "time": 81.6,
      "duration": 0.075,
      "velocity": 0.63,
      "hand": "right"
    },
    {
      "midi": 62,
      "time": 81.6,
      "duration": 0.15,
      "velocity": 0.79,
      "hand": "right"
    },
    {
      "midi": 66,
      "time": 81.6,
      "duration": 0.15,
      "velocity": 0.94,
      "hand": "right"
    },
    {
      "midi": 72,
      "time": 81.6,
      "duration": 0.15,
      "velocity": 0.96,
      "hand": "right"
    },
    {
      "midi": 74,
      "time": 81.6,
      "duration": 0.15,
      "velocity": 0.89,
      "hand": "right"
    },
    {
      "midi": 42,
      "time": 81.9,
      "duration": 0.15,
      "velocity": 0.63,
      "hand": "left"
    },
    {
      "midi": 46,
      "time": 81.9,
      "duration": 0.15,
      "velocity": 0.63,
      "hand": "left"
    },
    {
      "midi": 50,
      "time": 81.9,
      "duration": 0.6,
      "velocity": 1,
      "hand": "left"
    },
    {
      "midi": 54,
      "time": 81.9,
      "duration": 0.15,
      "velocity": 1,
      "hand": "left"
    },
    {
      "midi": 54,
      "time": 81.9,
      "duration": 0.6,
      "velocity": 0.63,
      "hand": "left"
    },
    {
      "midi": 62,
      "time": 81.9,
      "duration": 0.075,
      "velocity": 0.87,
      "hand": "right"
    },
    {
      "midi": 66,
      "time": 81.9,
      "duration": 0.075,
      "velocity": 0.81,
      "hand": "right"
    },
    {
      "midi": 66,
      "time": 81.9,
      "duration": 0.9,
      "velocity": 1,
      "hand": "right"
    },
    {
      "midi": 72,
      "time": 81.9,
      "duration": 0.075,
      "velocity": 0.94,
      "hand": "right"
    },
    {
      "midi": 74,
      "time": 81.9,
      "duration": 0.6,
      "velocity": 1,
      "hand": "right"
    },
    {
      "midi": 86,
      "time": 81.9,
      "duration": 0.15,
      "velocity": 0.84,
      "hand": "right"
    },
    {
      "midi": 62,
      "time": 82.05,
      "duration": 0.075,
      "velocity": 0.81,
      "hand": "right"
    },
    {
      "midi": 66,
      "time": 82.05,
      "duration": 0.15,
      "velocity": 0.94,
      "hand": "right"
    },
    {
      "midi": 72,
      "time": 82.05,
      "duration": 0.15,
      "velocity": 0.96,
      "hand": "right"
    },
    {
      "midi": 88,
      "time": 82.05,
      "duration": 0.15,
      "velocity": 0.68,
      "hand": "right"
    },
    {
      "midi": 38,
      "time": 82.2,
      "duration": 0.3,
      "velocity": 1,
      "hand": "left"
    },
    {
      "midi": 44,
      "time": 82.2,
      "duration": 0.075,
      "velocity": 0.63,
      "hand": "left"
    },
    {
      "midi": 64,
      "time": 82.2,
      "duration": 0.075,
      "velocity": 1,
      "hand": "right"
    },
    {
      "midi": 66,
      "time": 82.2,
      "duration": 0.3,
      "velocity": 1,
      "hand": "right"
    },
    {
      "midi": 90,
      "time": 82.2,
      "duration": 0.075,
      "velocity": 0.92,
      "hand": "right"
    },
    {
      "midi": 42,
      "time": 82.5,
      "duration": 0.3,
      "velocity": 0.63,
      "hand": "left"
    },
    {
      "midi": 46,
      "time": 82.5,
      "duration": 0.075,
      "velocity": 0.63,
      "hand": "left"
    },
    {
      "midi": 48,
      "time": 82.5,
      "duration": 0.3,
      "velocity": 1,
      "hand": "left"
    },
    {
      "midi": 50,
      "time": 82.5,
      "duration": 0.15,
      "velocity": 0.99,
      "hand": "left"
    },
    {
      "midi": 52,
      "time": 82.5,
      "duration": 0.3,
      "velocity": 0.63,
      "hand": "left"
    },
    {
      "midi": 62,
      "time": 82.5,
      "duration": 0.075,
      "velocity": 0.94,
      "hand": "right"
    },
    {
      "midi": 64,
      "time": 82.5,
      "duration": 0.3,
      "velocity": 0.91,
      "hand": "right"
    },
    {
      "midi": 66,
      "time": 82.5,
      "duration": 0.15,
      "velocity": 0.97,
      "hand": "right"
    },
    {
      "midi": 72,
      "time": 82.5,
      "duration": 0.15,
      "velocity": 0.94,
      "hand": "right"
    },
    {
      "midi": 72,
      "time": 82.5,
      "duration": 0.3,
      "velocity": 1,
      "hand": "right"
    },
    {
      "midi": 88,
      "time": 82.5,
      "duration": 0.15,
      "velocity": 0.73,
      "hand": "right"
    },
    {
      "midi": 90,
      "time": 82.5,
      "duration": 0.15,
      "velocity": 0.92,
      "hand": "right"
    },
    {
      "midi": 38,
      "time": 82.8,
      "duration": 0.3,
      "velocity": 0.63,
      "hand": "left"
    },
    {
      "midi": 42,
      "time": 82.8,
      "duration": 0.3,
      "velocity": 1,
      "hand": "left"
    },
    {
      "midi": 44,
      "time": 82.8,
      "duration": 0.15,
      "velocity": 0.63,
      "hand": "left"
    },
    {
      "midi": 47,
      "time": 82.8,
      "duration": 0.6,
      "velocity": 1,
      "hand": "left"
    },
    {
      "midi": 50,
      "time": 82.8,
      "duration": 0.3,
      "velocity": 0.63,
      "hand": "left"
    },
    {
      "midi": 62,
      "time": 82.8,
      "duration": 0.075,
      "velocity": 0.79,
      "hand": "right"
    },
    {
      "midi": 62,
      "time": 82.8,
      "duration": 0.45,
      "velocity": 1,
      "hand": "right"
    },
    {
      "midi": 66,
      "time": 82.8,
      "duration": 0.15,
      "velocity": 0.92,
      "hand": "right"
    },
    {
      "midi": 71,
      "time": 82.8,
      "duration": 0.6,
      "velocity": 1,
      "hand": "right"
    },
    {
      "midi": 72,
      "time": 82.8,
      "duration": 0.15,
      "velocity": 0.87,
      "hand": "right"
    },
    {
      "midi": 86,
      "time": 82.8,
      "duration": 0.6,
      "velocity": 0.77,
      "hand": "right"
    },
    {
      "midi": 42,
      "time": 83.1,
      "duration": 0.15,
      "velocity": 0.63,
      "hand": "left"
    },
    {
      "midi": 46,
      "time": 83.1,
      "duration": 0.075,
      "velocity": 0.63,
      "hand": "left"
    },
    {
      "midi": 57,
      "time": 83.1,
      "duration": 0.075,
      "velocity": 1,
      "hand": "left"
    },
    {
      "midi": 60,
      "time": 83.1,
      "duration": 0.3,
      "velocity": 0.63,
      "hand": "right"
    },
    {
      "midi": 62,
      "time": 83.1,
      "duration": 0.075,
      "velocity": 0.61,
      "hand": "right"
    },
    {
      "midi": 66,
      "time": 83.1,
      "duration": 0.075,
      "velocity": 0.94,
      "hand": "right"
    },
    {
      "midi": 66,
      "time": 83.1,
      "duration": 0.3,
      "velocity": 1,
      "hand": "right"
    },
    {
      "midi": 72,
      "time": 83.1,
      "duration": 0.075,
      "velocity": 0.91,
      "hand": "right"
    },
    {
      "midi": 38,
      "time": 83.4,
      "duration": 0.15,
      "velocity": 1,
      "hand": "left"
    },
    {
      "midi": 38,
      "time": 83.4,
      "duration": 0.3,
      "velocity": 0.63,
      "hand": "left"
    },
    {
      "midi": 44,
      "time": 83.4,
      "duration": 0.15,
      "velocity": 0.63,
      "hand": "left"
    },
    {
      "midi": 45,
      "time": 83.4,
      "duration": 0.6,
      "velocity": 1,
      "hand": "left"
    },
    {
      "midi": 59,
      "time": 83.4,
      "duration": 0.15,
      "velocity": 0.63,
      "hand": "left"
    },
    {
      "midi": 62,
      "time": 83.4,
      "duration": 0.15,
      "velocity": 1,
      "hand": "right"
    },
    {
      "midi": 66,
      "time": 83.4,
      "duration": 0.15,
      "velocity": 1,
      "hand": "right"
    },
    {
      "midi": 66,
      "time": 83.4,
      "duration": 0.6,
      "velocity": 1,
      "hand": "right"
    },
    {
      "midi": 67,
      "time": 83.4,
      "duration": 0.3,
      "velocity": 1,
      "hand": "right"
    },
    {
      "midi": 69,
      "time": 83.4,
      "duration": 0.6,
      "velocity": 1,
      "hand": "right"
    },
    {
      "midi": 72,
      "time": 83.4,
      "duration": 0.15,
      "velocity": 1,
      "hand": "right"
    },
    {
      "midi": 84,
      "time": 83.4,
      "duration": 0.075,
      "velocity": 0.92,
      "hand": "right"
    },
    {
      "midi": 84,
      "time": 83.4,
      "duration": 0.45,
      "velocity": 0.91,
      "hand": "right"
    },
    {
      "midi": 86,
      "time": 83.4,
      "duration": 0.15,
      "velocity": 0.84,
      "hand": "right"
    },
    {
      "midi": 42,
      "time": 83.7,
      "duration": 0.3,
      "velocity": 0.63,
      "hand": "left"
    },
    {
      "midi": 46,
      "time": 83.7,
      "duration": 0.15,
      "velocity": 0.63,
      "hand": "left"
    },
    {
      "midi": 50,
      "time": 83.7,
      "duration": 0.15,
      "velocity": 1,
      "hand": "left"
    },
    {
      "midi": 57,
      "time": 83.7,
      "duration": 0.3,
      "velocity": 0.63,
      "hand": "left"
    },
    {
      "midi": 62,
      "time": 83.7,
      "duration": 0.15,
      "velocity": 0.85,
      "hand": "right"
    },
    {
      "midi": 66,
      "time": 83.7,
      "duration": 0.15,
      "velocity": 0.83,
      "hand": "right"
    },
    {
      "midi": 69,
      "time": 83.7,
      "duration": 0.3,
      "velocity": 0.99,
      "hand": "right"
    },
    {
      "midi": 72,
      "time": 83.7,
      "duration": 0.15,
      "velocity": 0.84,
      "hand": "right"
    },
    {
      "midi": 67,
      "time": 83.85,
      "duration": 0.3,
      "velocity": 1,
      "hand": "right"
    },
    {
      "midi": 38,
      "time": 84,
      "duration": 0.075,
      "velocity": 0.63,
      "hand": "left"
    },
    {
      "midi": 43,
      "time": 84,
      "duration": 0.15,
      "velocity": 1,
      "hand": "left"
    },
    {
      "midi": 44,
      "time": 84,
      "duration": 0.15,
      "velocity": 0.63,
      "hand": "left"
    },
    {
      "midi": 47,
      "time": 84,
      "duration": 0.15,
      "velocity": 1,
      "hand": "left"
    },
    {
      "midi": 55,
      "time": 84,
      "duration": 0.075,
      "velocity": 0.63,
      "hand": "left"
    },
    {
      "midi": 62,
      "time": 84,
      "duration": 0.15,
      "velocity": 1,
      "hand": "right"
    },
    {
      "midi": 67,
      "time": 84,
      "duration": 0.075,
      "velocity": 1,
      "hand": "right"
    },
    {
      "midi": 67,
      "time": 84,
      "duration": 0.15,
      "velocity": 1,
      "hand": "right"
    },
    {
      "midi": 67,
      "time": 84,
      "duration": 0.075,
      "velocity": 1,
      "hand": "right"
    },
    {
      "midi": 69,
      "time": 84,
      "duration": 0.075,
      "velocity": 1,
      "hand": "right"
    },
    {
      "midi": 71,
      "time": 84,
      "duration": 0.15,
      "velocity": 0.94,
      "hand": "right"
    },
    {
      "midi": 71,
      "time": 84,
      "duration": 0.45,
      "velocity": 1,
      "hand": "right"
    },
    {
      "midi": 83,
      "time": 84,
      "duration": 0.3,
      "velocity": 0.92,
      "hand": "right"
    },
    {
      "midi": 42,
      "time": 84.3,
      "duration": 0.15,
      "velocity": 0.63,
      "hand": "left"
    },
    {
      "midi": 44,
      "time": 84.3,
      "duration": 0.075,
      "velocity": 0.63,
      "hand": "left"
    },
    {
      "midi": 46,
      "time": 84.3,
      "duration": 0.075,
      "velocity": 0.63,
      "hand": "left"
    },
    {
      "midi": 47,
      "time": 84.3,
      "duration": 0.15,
      "velocity": 0.97,
      "hand": "left"
    },
    {
      "midi": 62,
      "time": 84.3,
      "duration": 0.075,
      "velocity": 0.99,
      "hand": "right"
    },
    {
      "midi": 67,
      "time": 84.3,
      "duration": 0.075,
      "velocity": 1,
      "hand": "right"
    },
    {
      "midi": 71,
      "time": 84.3,
      "duration": 0.075,
      "velocity": 1,
      "hand": "right"
    },
    {
      "midi": 74,
      "time": 84.3,
      "duration": 0.075,
      "velocity": 1,
      "hand": "right"
    },
    {
      "midi": 44,
      "time": 84.45,
      "duration": 0.075,
      "velocity": 0.63,
      "hand": "left"
    },
    {
      "midi": 46,
      "time": 84.45,
      "duration": 0.075,
      "velocity": 0.63,
      "hand": "left"
    },
    {
      "midi": 62,
      "time": 84.45,
      "duration": 0.15,
      "velocity": 0.63,
      "hand": "right"
    },
    {
      "midi": 64,
      "time": 84.45,
      "duration": 0.3,
      "velocity": 1,
      "hand": "right"
    },
    {
      "midi": 71,
      "time": 84.45,
      "duration": 0.15,
      "velocity": 0.63,
      "hand": "right"
    },
    {
      "midi": 74,
      "time": 84.45,
      "duration": 0.3,
      "velocity": 0.99,
      "hand": "right"
    },
    {
      "midi": 74,
      "time": 84.45,
      "duration": 0.15,
      "velocity": 0.91,
      "hand": "right"
    },
    {
      "midi": 76,
      "time": 84.45,
      "duration": 0.15,
      "velocity": 0.94,
      "hand": "right"
    },
    {
      "midi": 38,
      "time": 84.6,
      "duration": 0.15,
      "velocity": 1,
      "hand": "left"
    },
    {
      "midi": 38,
      "time": 84.6,
      "duration": 0.3,
      "velocity": 0.63,
      "hand": "left"
    },
    {
      "midi": 52,
      "time": 84.6,
      "duration": 0.6,
      "velocity": 1,
      "hand": "left"
    },
    {
      "midi": 64,
      "time": 84.6,
      "duration": 0.075,
      "velocity": 0.89,
      "hand": "right"
    },
    {
      "midi": 68,
      "time": 84.6,
      "duration": 0.075,
      "velocity": 1,
      "hand": "right"
    },
    {
      "midi": 71,
      "time": 84.6,
      "duration": 0.15,
      "velocity": 1,
      "hand": "right"
    },
    {
      "midi": 72,
      "time": 84.6,
      "duration": 0.3,
      "velocity": 0.64,
      "hand": "right"
    },
    {
      "midi": 76,
      "time": 84.6,
      "duration": 0.15,
      "velocity": 0.92,
      "hand": "right"
    },
    {
      "midi": 80,
      "time": 84.6,
      "duration": 0.6,
      "velocity": 0.96,
      "hand": "right"
    },
    {
      "midi": 62,
      "time": 84.75,
      "duration": 0.075,
      "velocity": 0.63,
      "hand": "right"
    },
    {
      "midi": 71,
      "time": 84.75,
      "duration": 0.3,
      "velocity": 0.65,
      "hand": "right"
    },
    {
      "midi": 74,
      "time": 84.75,
      "duration": 0.3,
      "velocity": 1,
      "hand": "right"
    },
    {
      "midi": 42,
      "time": 84.9,
      "duration": 0.3,
      "velocity": 0.63,
      "hand": "left"
    },
    {
      "midi": 46,
      "time": 84.9,
      "duration": 0.075,
      "velocity": 0.63,
      "hand": "left"
    },
    {
      "midi": 50,
      "time": 84.9,
      "duration": 0.15,
      "velocity": 1,
      "hand": "left"
    },
    {
      "midi": 62,
      "time": 84.9,
      "duration": 0.15,
      "velocity": 0.63,
      "hand": "right"
    },
    {
      "midi": 62,
      "time": 84.9,
      "duration": 0.3,
      "velocity": 1,
      "hand": "right"
    },
    {
      "midi": 64,
      "time": 84.9,
      "duration": 0.15,
      "velocity": 1,
      "hand": "right"
    },
    {
      "midi": 68,
      "time": 84.9,
      "duration": 0.15,
      "velocity": 1,
      "hand": "right"
    },
    {
      "midi": 69,
      "time": 84.9,
      "duration": 0.075,
      "velocity": 0.97,
      "hand": "right"
    },
    {
      "midi": 71,
      "time": 84.9,
      "duration": 0.15,
      "velocity": 1,
      "hand": "right"
    },
    {
      "midi": 69,
      "time": 85.05,
      "duration": 0.3,
      "velocity": 0.65,
      "hand": "right"
    },
    {
      "midi": 72,
      "time": 85.05,
      "duration": 0.075,
      "velocity": 0.92,
      "hand": "right"
    },
    {
      "midi": 38,
      "time": 85.2,
      "duration": 0.075,
      "velocity": 0.63,
      "hand": "left"
    },
    {
      "midi": 44,
      "time": 85.2,
      "duration": 0.15,
      "velocity": 0.63,
      "hand": "left"
    },
    {
      "midi": 45,
      "time": 85.2,
      "duration": 0.15,
      "velocity": 1,
      "hand": "left"
    },
    {
      "midi": 51,
      "time": 85.2,
      "duration": 0.075,
      "velocity": 0.63,
      "hand": "left"
    },
    {
      "midi": 57,
      "time": 85.2,
      "duration": 0.3,
      "velocity": 1,
      "hand": "left"
    },
    {
      "midi": 60,
      "time": 85.2,
      "duration": 0.075,
      "velocity": 0.63,
      "hand": "right"
    },
    {
      "midi": 60,
      "time": 85.2,
      "duration": 0.15,
      "velocity": 1,
      "hand": "right"
    },
    {
      "midi": 64,
      "time": 85.2,
      "duration": 0.15,
      "velocity": 1,
      "hand": "right"
    },
    {
      "midi": 69,
      "time": 85.2,
      "duration": 0.075,
      "velocity": 1,
      "hand": "right"
    },
    {
      "midi": 72,
      "time": 85.2,
      "duration": 0.075,
      "velocity": 1,
      "hand": "right"
    },
    {
      "midi": 72,
      "time": 85.2,
      "duration": 0.15,
      "velocity": 1,
      "hand": "right"
    },
    {
      "midi": 81,
      "time": 85.2,
      "duration": 0.075,
      "velocity": 0.83,
      "hand": "right"
    },
    {
      "midi": 46,
      "time": 85.35,
      "duration": 0.075,
      "velocity": 0.63,
      "hand": "left"
    },
    {
      "midi": 69,
      "time": 85.35,
      "duration": 0.15,
      "velocity": 1,
      "hand": "right"
    },
    {
      "midi": 42,
      "time": 85.5,
      "duration": 0.3,
      "velocity": 0.63,
      "hand": "left"
    },
    {
      "midi": 44,
      "time": 85.5,
      "duration": 0.075,
      "velocity": 0.63,
      "hand": "left"
    },
    {
      "midi": 46,
      "time": 85.5,
      "duration": 0.075,
      "velocity": 0.63,
      "hand": "left"
    },
    {
      "midi": 52,
      "time": 85.5,
      "duration": 0.15,
      "velocity": 1,
      "hand": "left"
    },
    {
      "midi": 57,
      "time": 85.5,
      "duration": 0.15,
      "velocity": 0.63,
      "hand": "left"
    },
    {
      "midi": 64,
      "time": 85.5,
      "duration": 0.075,
      "velocity": 0.97,
      "hand": "right"
    },
    {
      "midi": 64,
      "time": 85.5,
      "duration": 0.15,
      "velocity": 0.66,
      "hand": "right"
    },
    {
      "midi": 67,
      "time": 85.5,
      "duration": 0.075,
      "velocity": 0.92,
      "hand": "right"
    },
    {
      "midi": 69,
      "time": 85.5,
      "duration": 0.075,
      "velocity": 0.83,
      "hand": "right"
    },
    {
      "midi": 69,
      "time": 85.5,
      "duration": 0.15,
      "velocity": 0.87,
      "hand": "right"
    },
    {
      "midi": 72,
      "time": 85.5,
      "duration": 0.075,
      "velocity": 1,
      "hand": "right"
    },
    {
      "midi": 81,
      "time": 85.5,
      "duration": 0.15,
      "velocity": 0.87,
      "hand": "right"
    },
    {
      "midi": 44,
      "time": 85.65,
      "duration": 0.075,
      "velocity": 0.63,
      "hand": "left"
    },
    {
      "midi": 46,
      "time": 85.65,
      "duration": 0.075,
      "velocity": 0.63,
      "hand": "left"
    },
    {
      "midi": 57,
      "time": 85.65,
      "duration": 0.15,
      "velocity": 0.63,
      "hand": "left"
    },
    {
      "midi": 62,
      "time": 85.65,
      "duration": 0.3,
      "velocity": 1,
      "hand": "right"
    },
    {
      "midi": 64,
      "time": 85.65,
      "duration": 0.075,
      "velocity": 0.53,
      "hand": "right"
    },
    {
      "midi": 66,
      "time": 85.65,
      "duration": 0.15,
      "velocity": 0.99,
      "hand": "right"
    },
    {
      "midi": 66,
      "time": 85.65,
      "duration": 0.3,
      "velocity": 0.68,
      "hand": "right"
    },
    {
      "midi": 72,
      "time": 85.65,
      "duration": 0.075,
      "velocity": 1,
      "hand": "right"
    },
    {
      "midi": 72,
      "time": 85.65,
      "duration": 0.15,
      "velocity": 1,
      "hand": "right"
    },
    {
      "midi": 74,
      "time": 85.65,
      "duration": 0.15,
      "velocity": 1,
      "hand": "right"
    },
    {
      "midi": 79,
      "time": 85.65,
      "duration": 0.15,
      "velocity": 0.79,
      "hand": "right"
    },
    {
      "midi": 38,
      "time": 85.8,
      "duration": 0.3,
      "velocity": 1,
      "hand": "left"
    },
    {
      "midi": 54,
      "time": 85.8,
      "duration": 0.6,
      "velocity": 1,
      "hand": "left"
    },
    {
      "midi": 62,
      "time": 85.8,
      "duration": 0.3,
      "velocity": 0.63,
      "hand": "right"
    },
    {
      "midi": 74,
      "time": 85.8,
      "duration": 0.3,
      "velocity": 1,
      "hand": "right"
    },
    {
      "midi": 74,
      "time": 85.8,
      "duration": 0.15,
      "velocity": 0.92,
      "hand": "right"
    },
    {
      "midi": 78,
      "time": 85.8,
      "duration": 0.075,
      "velocity": 0.89,
      "hand": "right"
    },
    {
      "midi": 60,
      "time": 85.95,
      "duration": 0.3,
      "velocity": 0.98,
      "hand": "right"
    },
    {
      "midi": 66,
      "time": 85.95,
      "duration": 0.15,
      "velocity": 1,
      "hand": "right"
    },
    {
      "midi": 72,
      "time": 85.95,
      "duration": 0.15,
      "velocity": 1,
      "hand": "right"
    },
    {
      "midi": 72,
      "time": 85.95,
      "duration": 0.45,
      "velocity": 0.94,
      "hand": "right"
    },
    {
      "midi": 73,
      "time": 85.95,
      "duration": 0.075,
      "velocity": 1,
      "hand": "right"
    },
    {
      "midi": 74,
      "time": 85.95,
      "duration": 0.15,
      "velocity": 0.94,
      "hand": "right"
    },
    {
      "midi": 42,
      "time": 86.1,
      "duration": 0.3,
      "velocity": 0.63,
      "hand": "left"
    },
    {
      "midi": 46,
      "time": 86.1,
      "duration": 0.075,
      "velocity": 0.63,
      "hand": "left"
    },
    {
      "midi": 50,
      "time": 86.1,
      "duration": 0.15,
      "velocity": 1,
      "hand": "left"
    },
    {
      "midi": 60,
      "time": 86.1,
      "duration": 0.3,
      "velocity": 0.63,
      "hand": "right"
    },
    {
      "midi": 62,
      "time": 86.1,
      "duration": 0.3,
      "velocity": 0.69,
      "hand": "right"
    },
    {
      "midi": 72,
      "time": 86.1,
      "duration": 0.15,
      "velocity": 0.92,
      "hand": "right"
    },
    {
      "midi": 78,
      "time": 86.1,
      "duration": 0.15,
      "velocity": 0.92,
      "hand": "right"
    },
    {
      "midi": 71,
      "time": 86.25,
      "duration": 0.15,
      "velocity": 1,
      "hand": "right"
    },
    {
      "midi": 81,
      "time": 86.25,
      "duration": 0.15,
      "velocity": 0.79,
      "hand": "right"
    },
    {
      "midi": 38,
      "time": 86.4,
      "duration": 0.075,
      "velocity": 0.63,
      "hand": "left"
    },
    {
      "midi": 43,
      "time": 86.4,
      "duration": 0.15,
      "velocity": 1,
      "hand": "left"
    },
    {
      "midi": 44,
      "time": 86.4,
      "duration": 0.075,
      "velocity": 0.63,
      "hand": "left"
    },
    {
      "midi": 51,
      "time": 86.4,
      "duration": 0.075,
      "velocity": 0.63,
      "hand": "left"
    },
    {
      "midi": 55,
      "time": 86.4,
      "duration": 0.6,
      "velocity": 0.99,
      "hand": "left"
    },
    {
      "midi": 59,
      "time": 86.4,
      "duration": 0.15,
      "velocity": 0.63,
      "hand": "left"
    },
    {
      "midi": 67,
      "time": 86.4,
      "duration": 0.15,
      "velocity": 1,
      "hand": "right"
    },
    {
      "midi": 71,
      "time": 86.4,
      "duration": 0.15,
      "velocity": 1,
      "hand": "right"
    },
    {
      "midi": 74,
      "time": 86.4,
      "duration": 0.15,
      "velocity": 1,
      "hand": "right"
    },
    {
      "midi": 74,
      "time": 86.4,
      "duration": 0.6,
      "velocity": 1,
      "hand": "right"
    },
    {
      "midi": 42,
      "time": 86.7,
      "duration": 0.3,
      "velocity": 0.63,
      "hand": "left"
    },
    {
      "midi": 44,
      "time": 86.7,
      "duration": 0.075,
      "velocity": 0.63,
      "hand": "left"
    },
    {
      "midi": 46,
      "time": 86.7,
      "duration": 0.075,
      "velocity": 0.63,
      "hand": "left"
    },
    {
      "midi": 55,
      "time": 86.7,
      "duration": 0.075,
      "velocity": 1,
      "hand": "left"
    },
    {
      "midi": 59,
      "time": 86.7,
      "duration": 0.15,
      "velocity": 0.63,
      "hand": "left"
    },
    {
      "midi": 67,
      "time": 86.7,
      "duration": 0.075,
      "velocity": 1,
      "hand": "right"
    },
    {
      "midi": 67,
      "time": 86.7,
      "duration": 0.15,
      "velocity": 0.77,
      "hand": "right"
    },
    {
      "midi": 69,
      "time": 86.7,
      "duration": 0.075,
      "velocity": 0.71,
      "hand": "right"
    },
    {
      "midi": 71,
      "time": 86.7,
      "duration": 0.075,
      "velocity": 1,
      "hand": "right"
    },
    {
      "midi": 71,
      "time": 86.7,
      "duration": 0.15,
      "velocity": 1,
      "hand": "right"
    },
    {
      "midi": 74,
      "time": 86.7,
      "duration": 0.075,
      "velocity": 1,
      "hand": "right"
    },
    {
      "midi": 44,
      "time": 86.85,
      "duration": 0.15,
      "velocity": 0.63,
      "hand": "left"
    },
    {
      "midi": 46,
      "time": 86.85,
      "duration": 0.075,
      "velocity": 0.63,
      "hand": "left"
    },
    {
      "midi": 55,
      "time": 86.85,
      "duration": 0.15,
      "velocity": 0.63,
      "hand": "left"
    },
    {
      "midi": 66,
      "time": 86.85,
      "duration": 0.15,
      "velocity": 0.71,
      "hand": "right"
    },
    {
      "midi": 67,
      "time": 86.85,
      "duration": 0.15,
      "velocity": 1,
      "hand": "right"
    },
    {
      "midi": 38,
      "time": 87,
      "duration": 0.45,
      "velocity": 0.63,
      "hand": "left"
    },
    {
      "midi": 40,
      "time": 87,
      "duration": 0.3,
      "velocity": 1,
      "hand": "left"
    },
    {
      "midi": 52,
      "time": 87,
      "duration": 0.3,
      "velocity": 0.94,
      "hand": "left"
    },
    {
      "midi": 60,
      "time": 87,
      "duration": 0.075,
      "velocity": 0.63,
      "hand": "right"
    },
    {
      "midi": 60,
      "time": 87,
      "duration": 0.15,
      "velocity": 1,
      "hand": "right"
    },
    {
      "midi": 64,
      "time": 87,
      "duration": 0.15,
      "velocity": 0.72,
      "hand": "right"
    },
    {
      "midi": 68,
      "time": 87,
      "duration": 0.075,
      "velocity": 1,
      "hand": "right"
    },
    {
      "midi": 70,
      "time": 87,
      "duration": 0.075,
      "velocity": 0.7,
      "hand": "right"
    },
    {
      "midi": 71,
      "time": 87,
      "duration": 0.15,
      "velocity": 1,
      "hand": "right"
    },
    {
      "midi": 72,
      "time": 87,
      "duration": 0.15,
      "velocity": 1,
      "hand": "right"
    },
    {
      "midi": 72,
      "time": 87,
      "duration": 0.075,
      "velocity": 0.92,
      "hand": "right"
    },
    {
      "midi": 76,
      "time": 87,
      "duration": 0.075,
      "velocity": 1,
      "hand": "right"
    },
    {
      "midi": 76,
      "time": 87,
      "duration": 0.6,
      "velocity": 0.94,
      "hand": "right"
    },
    {
      "midi": 42,
      "time": 87.3,
      "duration": 0.3,
      "velocity": 0.63,
      "hand": "left"
    },
    {
      "midi": 46,
      "time": 87.3,
      "duration": 0.075,
      "velocity": 0.63,
      "hand": "left"
    },
    {
      "midi": 50,
      "time": 87.3,
      "duration": 0.15,
      "velocity": 0.99,
      "hand": "left"
    },
    {
      "midi": 56,
      "time": 87.3,
      "duration": 0.15,
      "velocity": 1,
      "hand": "left"
    },
    {
      "midi": 60,
      "time": 87.3,
      "duration": 0.15,
      "velocity": 0.63,
      "hand": "right"
    },
    {
      "midi": 64,
      "time": 87.3,
      "duration": 0.15,
      "velocity": 0.72,
      "hand": "right"
    },
    {
      "midi": 68,
      "time": 87.3,
      "duration": 0.15,
      "velocity": 1,
      "hand": "right"
    },
    {
      "midi": 71,
      "time": 87.3,
      "duration": 0.15,
      "velocity": 1,
      "hand": "right"
    },
    {
      "midi": 72,
      "time": 87.3,
      "duration": 0.3,
      "velocity": 1,
      "hand": "right"
    },
    {
      "midi": 72,
      "time": 87.3,
      "duration": 0.15,
      "velocity": 0.92,
      "hand": "right"
    },
    {
      "midi": 75,
      "time": 87.3,
      "duration": 0.075,
      "velocity": 0.84,
      "hand": "right"
    },
    {
      "midi": 76,
      "time": 87.3,
      "duration": 0.15,
      "velocity": 1,
      "hand": "right"
    },
    {
      "midi": 59,
      "time": 87.45,
      "duration": 0.15,
      "velocity": 0.63,
      "hand": "left"
    },
    {
      "midi": 62,
      "time": 87.45,
      "duration": 0.15,
      "velocity": 0.73,
      "hand": "right"
    },
    {
      "midi": 71,
      "time": 87.45,
      "duration": 0.15,
      "velocity": 0.94,
      "hand": "right"
    },
    {
      "midi": 38,
      "time": 87.6,
      "duration": 0.075,
      "velocity": 0.63,
      "hand": "left"
    },
    {
      "midi": 44,
      "time": 87.6,
      "duration": 0.075,
      "velocity": 0.63,
      "hand": "left"
    },
    {
      "midi": 45,
      "time": 87.6,
      "duration": 0.3,
      "velocity": 1,
      "hand": "left"
    },
    {
      "midi": 48,
      "time": 87.6,
      "duration": 0.6,
      "velocity": 1,
      "hand": "left"
    },
    {
      "midi": 51,
      "time": 87.6,
      "duration": 0.075,
      "velocity": 0.63,
      "hand": "left"
    },
    {
      "midi": 57,
      "time": 87.6,
      "duration": 0.15,
      "velocity": 0.63,
      "hand": "left"
    },
    {
      "midi": 60,
      "time": 87.6,
      "duration": 0.15,
      "velocity": 0.74,
      "hand": "right"
    },
    {
      "midi": 69,
      "time": 87.6,
      "duration": 0.15,
      "velocity": 0.99,
      "hand": "right"
    },
    {
      "midi": 72,
      "time": 87.6,
      "duration": 0.075,
      "velocity": 1,
      "hand": "right"
    },
    {
      "midi": 75,
      "time": 87.6,
      "duration": 0.075,
      "velocity": 0.91,
      "hand": "right"
    },
    {
      "midi": 76,
      "time": 87.6,
      "duration": 0.075,
      "velocity": 1,
      "hand": "right"
    },
    {
      "midi": 42,
      "time": 87.9,
      "duration": 0.3,
      "velocity": 0.63,
      "hand": "left"
    },
    {
      "midi": 44,
      "time": 87.9,
      "duration": 0.075,
      "velocity": 0.63,
      "hand": "left"
    },
    {
      "midi": 46,
      "time": 87.9,
      "duration": 0.075,
      "velocity": 0.63,
      "hand": "left"
    },
    {
      "midi": 57,
      "time": 87.9,
      "duration": 0.15,
      "velocity": 0.97,
      "hand": "left"
    },
    {
      "midi": 57,
      "time": 87.9,
      "duration": 0.075,
      "velocity": 1,
      "hand": "left"
    },
    {
      "midi": 58,
      "time": 87.9,
      "duration": 0.075,
      "velocity": 0.63,
      "hand": "left"
    },
    {
      "midi": 60,
      "time": 87.9,
      "duration": 0.075,
      "velocity": 0.75,
      "hand": "right"
    },
    {
      "midi": 60,
      "time": 87.9,
      "duration": 0.15,
      "velocity": 0.75,
      "hand": "right"
    },
    {
      "midi": 65,
      "time": 87.9,
      "duration": 0.075,
      "velocity": 0.75,
      "hand": "right"
    },
    {
      "midi": 69,
      "time": 87.9,
      "duration": 0.15,
      "velocity": 0.94,
      "hand": "right"
    },
    {
      "midi": 69,
      "time": 87.9,
      "duration": 0.075,
      "velocity": 0.84,
      "hand": "right"
    },
    {
      "midi": 72,
      "time": 87.9,
      "duration": 0.075,
      "velocity": 1,
      "hand": "right"
    },
    {
      "midi": 76,
      "time": 87.9,
      "duration": 0.075,
      "velocity": 0.97,
      "hand": "right"
    },
    {
      "midi": 76,
      "time": 87.9,
      "duration": 0.15,
      "velocity": 0.76,
      "hand": "right"
    },
    {
      "midi": 79,
      "time": 87.9,
      "duration": 0.15,
      "velocity": 0.83,
      "hand": "right"
    },
    {
      "midi": 81,
      "time": 87.9,
      "duration": 0.15,
      "velocity": 0.89,
      "hand": "right"
    },
    {
      "midi": 44,
      "time": 88.05,
      "duration": 0.075,
      "velocity": 0.63,
      "hand": "left"
    },
    {
      "midi": 46,
      "time": 88.05,
      "duration": 0.075,
      "velocity": 0.63,
      "hand": "left"
    },
    {
      "midi": 57,
      "time": 88.05,
      "duration": 0.15,
      "velocity": 0.63,
      "hand": "left"
    },
    {
      "midi": 69,
      "time": 88.05,
      "duration": 0.15,
      "velocity": 0.94,
      "hand": "right"
    },
    {
      "midi": 72,
      "time": 88.05,
      "duration": 0.15,
      "velocity": 0.91,
      "hand": "right"
    },
    {
      "midi": 38,
      "time": 88.2,
      "duration": 0.3,
      "velocity": 1,
      "hand": "left"
    },
    {
      "midi": 50,
      "time": 88.2,
      "duration": 0.6,
      "velocity": 0.87,
      "hand": "left"
    },
    {
      "midi": 51,
      "time": 88.2,
      "duration": 0.15,
      "velocity": 0.63,
      "hand": "left"
    },
    {
      "midi": 61,
      "time": 88.2,
      "duration": 0.075,
      "velocity": 0.76,
      "hand": "right"
    },
    {
      "midi": 62,
      "time": 88.2,
      "duration": 0.075,
      "velocity": 0.63,
      "hand": "right"
    },
    {
      "midi": 62,
      "time": 88.2,
      "duration": 0.15,
      "velocity": 0.76,
      "hand": "right"
    },
    {
      "midi": 66,
      "time": 88.2,
      "duration": 0.15,
      "velocity": 1,
      "hand": "right"
    },
    {
      "midi": 72,
      "time": 88.2,
      "duration": 0.15,
      "velocity": 1,
      "hand": "right"
    },
    {
      "midi": 74,
      "time": 88.2,
      "duration": 0.15,
      "velocity": 1,
      "hand": "right"
    },
    {
      "midi": 78,
      "time": 88.2,
      "duration": 0.15,
      "velocity": 1,
      "hand": "right"
    },
    {
      "midi": 42,
      "time": 88.5,
      "duration": 0.3,
      "velocity": 0.63,
      "hand": "left"
    },
    {
      "midi": 46,
      "time": 88.5,
      "duration": 0.075,
      "velocity": 0.63,
      "hand": "left"
    },
    {
      "midi": 54,
      "time": 88.5,
      "duration": 0.15,
      "velocity": 1,
      "hand": "left"
    },
    {
      "midi": 62,
      "time": 88.5,
      "duration": 0.3,
      "velocity": 0.63,
      "hand": "right"
    },
    {
      "midi": 66,
      "time": 88.5,
      "duration": 0.075,
      "velocity": 1,
      "hand": "right"
    },
    {
      "midi": 72,
      "time": 88.5,
      "duration": 0.15,
      "velocity": 1,
      "hand": "right"
    },
    {
      "midi": 74,
      "time": 88.5,
      "duration": 0.15,
      "velocity": 1,
      "hand": "right"
    },
    {
      "midi": 74,
      "time": 88.5,
      "duration": 0.3,
      "velocity": 1,
      "hand": "right"
    },
    {
      "midi": 84,
      "time": 88.5,
      "duration": 0.15,
      "velocity": 0.66,
      "hand": "right"
    },
    {
      "midi": 86,
      "time": 88.5,
      "duration": 0.15,
      "velocity": 0.54,
      "hand": "right"
    },
    {
      "midi": 67,
      "time": 88.65,
      "duration": 0.075,
      "velocity": 0.84,
      "hand": "right"
    },
    {
      "midi": 83,
      "time": 88.65,
      "duration": 0.15,
      "velocity": 0.61,
      "hand": "right"
    },
    {
      "midi": 38,
      "time": 88.8,
      "duration": 0.3,
      "velocity": 0.63,
      "hand": "left"
    },
    {
      "midi": 43,
      "time": 88.8,
      "duration": 0.3,
      "velocity": 1,
      "hand": "left"
    },
    {
      "midi": 44,
      "time": 88.8,
      "duration": 0.15,
      "velocity": 0.63,
      "hand": "left"
    },
    {
      "midi": 51,
      "time": 88.8,
      "duration": 0.075,
      "velocity": 0.63,
      "hand": "left"
    },
    {
      "midi": 55,
      "time": 88.8,
      "duration": 0.15,
      "velocity": 0.63,
      "hand": "left"
    },
    {
      "midi": 55,
      "time": 88.8,
      "duration": 0.3,
      "velocity": 1,
      "hand": "left"
    },
    {
      "midi": 55,
      "time": 88.8,
      "duration": 0.15,
      "velocity": 1,
      "hand": "left"
    },
    {
      "midi": 59,
      "time": 88.8,
      "duration": 0.15,
      "velocity": 0.78,
      "hand": "left"
    },
    {
      "midi": 67,
      "time": 88.8,
      "duration": 0.075,
      "velocity": 1,
      "hand": "right"
    },
    {
      "midi": 67,
      "time": 88.8,
      "duration": 0.45,
      "velocity": 1,
      "hand": "right"
    },
    {
      "midi": 71,
      "time": 88.8,
      "duration": 0.075,
      "velocity": 1,
      "hand": "right"
    },
    {
      "midi": 74,
      "time": 88.8,
      "duration": 0.075,
      "velocity": 1,
      "hand": "right"
    },
    {
      "midi": 42,
      "time": 89.1,
      "duration": 0.075,
      "velocity": 0.63,
      "hand": "left"
    },
    {
      "midi": 46,
      "time": 89.1,
      "duration": 0.075,
      "velocity": 0.63,
      "hand": "left"
    },
    {
      "midi": 55,
      "time": 89.1,
      "duration": 0.15,
      "velocity": 1,
      "hand": "left"
    },
    {
      "midi": 62,
      "time": 89.1,
      "duration": 0.075,
      "velocity": 0.63,
      "hand": "right"
    },
    {
      "midi": 67,
      "time": 89.1,
      "duration": 0.075,
      "velocity": 1,
      "hand": "right"
    },
    {
      "midi": 71,
      "time": 89.1,
      "duration": 0.075,
      "velocity": 1,
      "hand": "right"
    },
    {
      "midi": 74,
      "time": 89.1,
      "duration": 0.075,
      "velocity": 1,
      "hand": "right"
    },
    {
      "midi": 74,
      "time": 89.1,
      "duration": 0.15,
      "velocity": 0.89,
      "hand": "right"
    },
    {
      "midi": 85,
      "time": 89.1,
      "duration": 0.075,
      "velocity": 0.47,
      "hand": "right"
    },
    {
      "midi": 86,
      "time": 89.1,
      "duration": 0.075,
      "velocity": 0.47,
      "hand": "right"
    },
    {
      "midi": 86,
      "time": 89.1,
      "duration": 0.15,
      "velocity": 0.89,
      "hand": "right"
    },
    {
      "midi": 62,
      "time": 89.25,
      "duration": 0.15,
      "velocity": 0.63,
      "hand": "right"
    },
    {
      "midi": 67,
      "time": 89.25,
      "duration": 0.15,
      "velocity": 0.79,
      "hand": "right"
    },
    {
      "midi": 71,
      "time": 89.25,
      "duration": 0.15,
      "velocity": 0.85,
      "hand": "right"
    },
    {
      "midi": 74,
      "time": 89.25,
      "duration": 0.15,
      "velocity": 0.89,
      "hand": "right"
    },
    {
      "midi": 86,
      "time": 89.25,
      "duration": 0.15,
      "velocity": 0.63,
      "hand": "right"
    },
    {
      "midi": 38,
      "time": 89.4,
      "duration": 0.45,
      "velocity": 0.63,
      "hand": "left"
    },
    {
      "midi": 40,
      "time": 89.4,
      "duration": 0.3,
      "velocity": 1,
      "hand": "left"
    },
    {
      "midi": 42,
      "time": 89.4,
      "duration": 0.15,
      "velocity": 0.63,
      "hand": "left"
    },
    {
      "midi": 44,
      "time": 89.4,
      "duration": 0.075,
      "velocity": 0.63,
      "hand": "left"
    },
    {
      "midi": 52,
      "time": 89.4,
      "duration": 0.6,
      "velocity": 1,
      "hand": "left"
    },
    {
      "midi": 64,
      "time": 89.4,
      "duration": 0.15,
      "velocity": 0.63,
      "hand": "right"
    },
    {
      "midi": 68,
      "time": 89.4,
      "duration": 0.15,
      "velocity": 0.96,
      "hand": "right"
    },
    {
      "midi": 71,
      "time": 89.4,
      "duration": 0.075,
      "velocity": 0.97,
      "hand": "right"
    },
    {
      "midi": 72,
      "time": 89.4,
      "duration": 0.075,
      "velocity": 0.74,
      "hand": "right"
    },
    {
      "midi": 76,
      "time": 89.4,
      "duration": 0.075,
      "velocity": 1,
      "hand": "right"
    },
    {
      "midi": 76,
      "time": 89.4,
      "duration": 0.3,
      "velocity": 0.99,
      "hand": "right"
    },
    {
      "midi": 88,
      "time": 89.4,
      "duration": 0.15,
      "velocity": 0.47,
      "hand": "right"
    },
    {
      "midi": 88,
      "time": 89.4,
      "duration": 0.3,
      "velocity": 0.99,
      "hand": "right"
    },
    {
      "midi": 62,
      "time": 89.55,
      "duration": 0.075,
      "velocity": 0.63,
      "hand": "right"
    },
    {
      "midi": 64,
      "time": 89.55,
      "duration": 0.15,
      "velocity": 0.63,
      "hand": "right"
    },
    {
      "midi": 86,
      "time": 89.55,
      "duration": 0.15,
      "velocity": 0.47,
      "hand": "right"
    },
    {
      "midi": 42,
      "time": 89.7,
      "duration": 0.15,
      "velocity": 0.63,
      "hand": "left"
    },
    {
      "midi": 46,
      "time": 89.7,
      "duration": 0.15,
      "velocity": 0.63,
      "hand": "left"
    },
    {
      "midi": 56,
      "time": 89.7,
      "duration": 0.15,
      "velocity": 0.76,
      "hand": "left"
    },
    {
      "midi": 62,
      "time": 89.7,
      "duration": 0.3,
      "velocity": 0.63,
      "hand": "right"
    },
    {
      "midi": 68,
      "time": 89.7,
      "duration": 0.15,
      "velocity": 1,
      "hand": "right"
    },
    {
      "midi": 70,
      "time": 89.7,
      "duration": 0.075,
      "velocity": 1,
      "hand": "right"
    },
    {
      "midi": 71,
      "time": 89.7,
      "duration": 0.075,
      "velocity": 1,
      "hand": "right"
    },
    {
      "midi": 74,
      "time": 89.7,
      "duration": 0.3,
      "velocity": 0.99,
      "hand": "right"
    },
    {
      "midi": 76,
      "time": 89.7,
      "duration": 0.075,
      "velocity": 1,
      "hand": "right"
    },
    {
      "midi": 86,
      "time": 89.7,
      "duration": 0.3,
      "velocity": 0.99,
      "hand": "right"
    },
    {
      "midi": 72,
      "time": 89.85,
      "duration": 0.15,
      "velocity": 1,
      "hand": "right"
    },
    {
      "midi": 84,
      "time": 89.85,
      "duration": 0.3,
      "velocity": 0.47,
      "hand": "right"
    },
    {
      "midi": 84,
      "time": 89.85,
      "duration": 0.15,
      "velocity": 1,
      "hand": "right"
    },
    {
      "midi": 38,
      "time": 90,
      "duration": 0.075,
      "velocity": 0.63,
      "hand": "left"
    },
    {
      "midi": 42,
      "time": 90,
      "duration": 0.15,
      "velocity": 0.63,
      "hand": "left"
    },
    {
      "midi": 44,
      "time": 90,
      "duration": 0.075,
      "velocity": 0.63,
      "hand": "left"
    },
    {
      "midi": 45,
      "time": 90,
      "duration": 0.15,
      "velocity": 1,
      "hand": "left"
    },
    {
      "midi": 51,
      "time": 90,
      "duration": 0.075,
      "velocity": 0.63,
      "hand": "left"
    },
    {
      "midi": 57,
      "time": 90,
      "duration": 0.15,
      "velocity": 0.99,
      "hand": "left"
    },
    {
      "midi": 60,
      "time": 90,
      "duration": 0.3,
      "velocity": 0.63,
      "hand": "right"
    },
    {
      "midi": 69,
      "time": 90,
      "duration": 0.15,
      "velocity": 1,
      "hand": "right"
    },
    {
      "midi": 72,
      "time": 90,
      "duration": 0.075,
      "velocity": 1,
      "hand": "right"
    },
    {
      "midi": 72,
      "time": 90,
      "duration": 0.15,
      "velocity": 0.87,
      "hand": "right"
    },
    {
      "midi": 76,
      "time": 90,
      "duration": 0.075,
      "velocity": 1,
      "hand": "right"
    },
    {
      "midi": 69,
      "time": 90.15,
      "duration": 0.075,
      "velocity": 0.99,
      "hand": "right"
    },
    {
      "midi": 72,
      "time": 90.15,
      "duration": 0.075,
      "velocity": 1,
      "hand": "right"
    },
    {
      "midi": 44,
      "time": 90.3,
      "duration": 0.075,
      "velocity": 0.63,
      "hand": "left"
    },
    {
      "midi": 46,
      "time": 90.3,
      "duration": 0.075,
      "velocity": 0.63,
      "hand": "left"
    },
    {
      "midi": 55,
      "time": 90.3,
      "duration": 0.15,
      "velocity": 0.99,
      "hand": "left"
    },
    {
      "midi": 57,
      "time": 90.3,
      "duration": 0.15,
      "velocity": 0.63,
      "hand": "left"
    },
    {
      "midi": 69,
      "time": 90.3,
      "duration": 0.075,
      "velocity": 0.77,
      "hand": "right"
    },
    {
      "midi": 72,
      "time": 90.3,
      "duration": 0.075,
      "velocity": 1,
      "hand": "right"
    },
    {
      "midi": 72,
      "time": 90.3,
      "duration": 0.15,
      "velocity": 1,
      "hand": "right"
    },
    {
      "midi": 76,
      "time": 90.3,
      "duration": 0.075,
      "velocity": 0.83,
      "hand": "right"
    },
    {
      "midi": 81,
      "time": 90.3,
      "duration": 0.15,
      "velocity": 0.47,
      "hand": "right"
    },
    {
      "midi": 84,
      "time": 90.3,
      "duration": 0.15,
      "velocity": 1,
      "hand": "right"
    },
    {
      "midi": 44,
      "time": 90.45,
      "duration": 0.15,
      "velocity": 0.63,
      "hand": "left"
    },
    {
      "midi": 46,
      "time": 90.45,
      "duration": 0.075,
      "velocity": 0.63,
      "hand": "left"
    },
    {
      "midi": 57,
      "time": 90.45,
      "duration": 0.15,
      "velocity": 0.63,
      "hand": "left"
    },
    {
      "midi": 69,
      "time": 90.45,
      "duration": 0.15,
      "velocity": 0.94,
      "hand": "right"
    },
    {
      "midi": 74,
      "time": 90.45,
      "duration": 0.075,
      "velocity": 1,
      "hand": "right"
    },
    {
      "midi": 74,
      "time": 90.45,
      "duration": 0.3,
      "velocity": 1,
      "hand": "right"
    },
    {
      "midi": 78,
      "time": 90.45,
      "duration": 0.075,
      "velocity": 1,
      "hand": "right"
    },
    {
      "midi": 81,
      "time": 90.45,
      "duration": 0.15,
      "velocity": 0.47,
      "hand": "right"
    },
    {
      "midi": 38,
      "time": 90.6,
      "duration": 0.3,
      "velocity": 1,
      "hand": "left"
    },
    {
      "midi": 38,
      "time": 90.6,
      "duration": 0.15,
      "velocity": 0.63,
      "hand": "left"
    },
    {
      "midi": 42,
      "time": 90.6,
      "duration": 0.15,
      "velocity": 0.63,
      "hand": "left"
    },
    {
      "midi": 54,
      "time": 90.6,
      "duration": 0.6,
      "velocity": 0.91,
      "hand": "left"
    },
    {
      "midi": 62,
      "time": 90.6,
      "duration": 0.3,
      "velocity": 0.63,
      "hand": "right"
    },
    {
      "midi": 74,
      "time": 90.6,
      "duration": 0.15,
      "velocity": 0.97,
      "hand": "right"
    },
    {
      "midi": 86,
      "time": 90.6,
      "duration": 0.075,
      "velocity": 0.47,
      "hand": "right"
    },
    {
      "midi": 86,
      "time": 90.6,
      "duration": 0.15,
      "velocity": 0.97,
      "hand": "right"
    },
    {
      "midi": 72,
      "time": 90.75,
      "duration": 0.3,
      "velocity": 1,
      "hand": "right"
    },
    {
      "midi": 38,
      "time": 90.9,
      "duration": 0.15,
      "velocity": 0.63,
      "hand": "left"
    },
    {
      "midi": 42,
      "time": 90.9,
      "duration": 0.15,
      "velocity": 0.63,
      "hand": "left"
    },
    {
      "midi": 46,
      "time": 90.9,
      "duration": 0.075,
      "velocity": 0.63,
      "hand": "left"
    },
    {
      "midi": 54,
      "time": 90.9,
      "duration": 0.15,
      "velocity": 1,
      "hand": "left"
    },
    {
      "midi": 60,
      "time": 90.9,
      "duration": 0.3,
      "velocity": 0.63,
      "hand": "right"
    },
    {
      "midi": 69,
      "time": 90.9,
      "duration": 0.15,
      "velocity": 1,
      "hand": "right"
    },
    {
      "midi": 74,
      "time": 90.9,
      "duration": 0.15,
      "velocity": 1,
      "hand": "right"
    },
    {
      "midi": 78,
      "time": 90.9,
      "duration": 0.075,
      "velocity": 1,
      "hand": "right"
    },
    {
      "midi": 84,
      "time": 90.9,
      "duration": 0.15,
      "velocity": 0.47,
      "hand": "right"
    },
    {
      "midi": 86,
      "time": 90.9,
      "duration": 0.15,
      "velocity": 1,
      "hand": "right"
    },
    {
      "midi": 72,
      "time": 91.05,
      "duration": 0.15,
      "velocity": 0.94,
      "hand": "right"
    },
    {
      "midi": 84,
      "time": 91.05,
      "duration": 0.15,
      "velocity": 0.94,
      "hand": "right"
    },
    {
      "midi": 38,
      "time": 91.2,
      "duration": 0.075,
      "velocity": 0.63,
      "hand": "left"
    },
    {
      "midi": 42,
      "time": 91.2,
      "duration": 0.075,
      "velocity": 0.63,
      "hand": "left"
    },
    {
      "midi": 43,
      "time": 91.2,
      "duration": 0.3,
      "velocity": 1,
      "hand": "left"
    },
    {
      "midi": 44,
      "time": 91.2,
      "duration": 0.15,
      "velocity": 0.63,
      "hand": "left"
    },
    {
      "midi": 51,
      "time": 91.2,
      "duration": 0.075,
      "velocity": 0.63,
      "hand": "left"
    },
    {
      "midi": 55,
      "time": 91.2,
      "duration": 0.3,
      "velocity": 0.92,
      "hand": "left"
    },
    {
      "midi": 59,
      "time": 91.2,
      "duration": 0.15,
      "velocity": 0.63,
      "hand": "left"
    },
    {
      "midi": 71,
      "time": 91.2,
      "duration": 0.075,
      "velocity": 1,
      "hand": "right"
    },
    {
      "midi": 71,
      "time": 91.2,
      "duration": 0.15,
      "velocity": 1,
      "hand": "right"
    },
    {
      "midi": 74,
      "time": 91.2,
      "duration": 0.15,
      "velocity": 1,
      "hand": "right"
    },
    {
      "midi": 77,
      "time": 91.2,
      "duration": 0.075,
      "velocity": 0.76,
      "hand": "right"
    },
    {
      "midi": 79,
      "time": 91.2,
      "duration": 0.15,
      "velocity": 1,
      "hand": "right"
    },
    {
      "midi": 83,
      "time": 91.2,
      "duration": 0.15,
      "velocity": 0.47,
      "hand": "right"
    },
    {
      "midi": 83,
      "time": 91.2,
      "duration": 0.075,
      "velocity": 0.99,
      "hand": "right"
    },
    {
      "midi": 44,
      "time": 91.5,
      "duration": 0.075,
      "velocity": 0.63,
      "hand": "left"
    },
    {
      "midi": 46,
      "time": 91.5,
      "duration": 0.075,
      "velocity": 0.63,
      "hand": "left"
    },
    {
      "midi": 55,
      "time": 91.5,
      "duration": 0.15,
      "velocity": 1,
      "hand": "left"
    },
    {
      "midi": 59,
      "time": 91.5,
      "duration": 0.075,
      "velocity": 0.63,
      "hand": "left"
    },
    {
      "midi": 71,
      "time": 91.5,
      "duration": 0.075,
      "velocity": 1,
      "hand": "right"
    },
    {
      "midi": 71,
      "time": 91.5,
      "duration": 0.15,
      "velocity": 1,
      "hand": "right"
    },
    {
      "midi": 74,
      "time": 91.5,
      "duration": 0.075,
      "velocity": 1,
      "hand": "right"
    },
    {
      "midi": 79,
      "time": 91.5,
      "duration": 0.075,
      "velocity": 0.99,
      "hand": "right"
    },
    {
      "midi": 79,
      "time": 91.5,
      "duration": 0.15,
      "velocity": 0.65,
      "hand": "right"
    },
    {
      "midi": 83,
      "time": 91.5,
      "duration": 0.15,
      "velocity": 0.47,
      "hand": "right"
    },
    {
      "midi": 44,
      "time": 91.65,
      "duration": 0.075,
      "velocity": 0.63,
      "hand": "left"
    },
    {
      "midi": 46,
      "time": 91.65,
      "duration": 0.075,
      "velocity": 0.63,
      "hand": "left"
    },
    {
      "midi": 55,
      "time": 91.65,
      "duration": 0.15,
      "velocity": 0.63,
      "hand": "left"
    },
    {
      "midi": 67,
      "time": 91.65,
      "duration": 0.15,
      "velocity": 0.83,
      "hand": "right"
    },
    {
      "midi": 71,
      "time": 91.65,
      "duration": 0.075,
      "velocity": 0.65,
      "hand": "right"
    },
    {
      "midi": 71,
      "time": 91.65,
      "duration": 0.15,
      "velocity": 0.99,
      "hand": "right"
    },
    {
      "midi": 74,
      "time": 91.65,
      "duration": 0.075,
      "velocity": 0.76,
      "hand": "right"
    },
    {
      "midi": 79,
      "time": 91.65,
      "duration": 0.15,
      "velocity": 0.47,
      "hand": "right"
    },
    {
      "midi": 38,
      "time": 91.8,
      "duration": 0.15,
      "velocity": 0.63,
      "hand": "left"
    },
    {
      "midi": 40,
      "time": 91.8,
      "duration": 0.3,
      "velocity": 1,
      "hand": "left"
    },
    {
      "midi": 42,
      "time": 91.8,
      "duration": 0.15,
      "velocity": 0.63,
      "hand": "left"
    },
    {
      "midi": 52,
      "time": 91.8,
      "duration": 0.3,
      "velocity": 1,
      "hand": "left"
    },
    {
      "midi": 64,
      "time": 91.8,
      "duration": 0.15,
      "velocity": 0.63,
      "hand": "right"
    },
    {
      "midi": 68,
      "time": 91.8,
      "duration": 0.075,
      "velocity": 1,
      "hand": "right"
    },
    {
      "midi": 72,
      "time": 91.8,
      "duration": 0.075,
      "velocity": 1,
      "hand": "right"
    },
    {
      "midi": 76,
      "time": 91.8,
      "duration": 0.15,
      "velocity": 1,
      "hand": "right"
    },
    {
      "midi": 80,
      "time": 91.8,
      "duration": 0.15,
      "velocity": 1,
      "hand": "right"
    },
    {
      "midi": 84,
      "time": 91.8,
      "duration": 0.075,
      "velocity": 0.47,
      "hand": "right"
    },
    {
      "midi": 38,
      "time": 92.1,
      "duration": 0.075,
      "velocity": 0.63,
      "hand": "left"
    },
    {
      "midi": 42,
      "time": 92.1,
      "duration": 0.15,
      "velocity": 0.63,
      "hand": "left"
    },
    {
      "midi": 46,
      "time": 92.1,
      "duration": 0.075,
      "velocity": 0.63,
      "hand": "left"
    },
    {
      "midi": 50,
      "time": 92.1,
      "duration": 0.45,
      "velocity": 0.94,
      "hand": "left"
    },
    {
      "midi": 56,
      "time": 92.1,
      "duration": 0.15,
      "velocity": 1,
      "hand": "left"
    },
    {
      "midi": 63,
      "time": 92.1,
      "duration": 0.075,
      "velocity": 0.63,
      "hand": "right"
    },
    {
      "midi": 64,
      "time": 92.1,
      "duration": 0.15,
      "velocity": 0.63,
      "hand": "right"
    },
    {
      "midi": 68,
      "time": 92.1,
      "duration": 0.3,
      "velocity": 1,
      "hand": "right"
    },
    {
      "midi": 71,
      "time": 92.1,
      "duration": 0.075,
      "velocity": 1,
      "hand": "right"
    },
    {
      "midi": 72,
      "time": 92.1,
      "duration": 0.15,
      "velocity": 1,
      "hand": "right"
    },
    {
      "midi": 76,
      "time": 92.1,
      "duration": 0.15,
      "velocity": 1,
      "hand": "right"
    },
    {
      "midi": 80,
      "time": 92.1,
      "duration": 0.15,
      "velocity": 1,
      "hand": "right"
    },
    {
      "midi": 84,
      "time": 92.1,
      "duration": 0.15,
      "velocity": 0.47,
      "hand": "right"
    },
    {
      "midi": 62,
      "time": 92.25,
      "duration": 0.15,
      "velocity": 0.63,
      "hand": "right"
    },
    {
      "midi": 71,
      "time": 92.25,
      "duration": 0.15,
      "velocity": 0.87,
      "hand": "right"
    },
    {
      "midi": 83,
      "time": 92.25,
      "duration": 0.15,
      "velocity": 0.47,
      "hand": "right"
    },
    {
      "midi": 38,
      "time": 92.4,
      "duration": 0.075,
      "velocity": 0.63,
      "hand": "left"
    },
    {
      "midi": 42,
      "time": 92.4,
      "duration": 0.075,
      "velocity": 0.63,
      "hand": "left"
    },
    {
      "midi": 44,
      "time": 92.4,
      "duration": 0.075,
      "velocity": 0.63,
      "hand": "left"
    },
    {
      "midi": 45,
      "time": 92.4,
      "duration": 0.15,
      "velocity": 1,
      "hand": "left"
    },
    {
      "midi": 48,
      "time": 92.4,
      "duration": 0.45,
      "velocity": 1,
      "hand": "left"
    },
    {
      "midi": 51,
      "time": 92.4,
      "duration": 0.075,
      "velocity": 0.63,
      "hand": "left"
    },
    {
      "midi": 60,
      "time": 92.4,
      "duration": 0.075,
      "velocity": 0.63,
      "hand": "right"
    },
    {
      "midi": 69,
      "time": 92.4,
      "duration": 0.075,
      "velocity": 0.99,
      "hand": "right"
    },
    {
      "midi": 69,
      "time": 92.4,
      "duration": 0.15,
      "velocity": 0.92,
      "hand": "right"
    },
    {
      "midi": 72,
      "time": 92.4,
      "duration": 0.075,
      "velocity": 1,
      "hand": "right"
    },
    {
      "midi": 76,
      "time": 92.4,
      "duration": 0.075,
      "velocity": 1,
      "hand": "right"
    },
    {
      "midi": 81,
      "time": 92.4,
      "duration": 0.15,
      "velocity": 0.47,
      "hand": "right"
    },
    {
      "midi": 44,
      "time": 92.7,
      "duration": 0.075,
      "velocity": 0.63,
      "hand": "left"
    },
    {
      "midi": 46,
      "time": 92.7,
      "duration": 0.075,
      "velocity": 0.63,
      "hand": "left"
    },
    {
      "midi": 57,
      "time": 92.7,
      "duration": 0.075,
      "velocity": 1,
      "hand": "left"
    },
    {
      "midi": 60,
      "time": 92.7,
      "duration": 0.075,
      "velocity": 0.63,
      "hand": "right"
    },
    {
      "midi": 60,
      "time": 92.7,
      "duration": 0.15,
      "velocity": 0.63,
      "hand": "right"
    },
    {
      "midi": 69,
      "time": 92.7,
      "duration": 0.075,
      "velocity": 0.97,
      "hand": "right"
    },
    {
      "midi": 72,
      "time": 92.7,
      "duration": 0.075,
      "velocity": 1,
      "hand": "right"
    },
    {
      "midi": 76,
      "time": 92.7,
      "duration": 0.075,
      "velocity": 0.99,
      "hand": "right"
    },
    {
      "midi": 81,
      "time": 92.7,
      "duration": 0.075,
      "velocity": 0.47,
      "hand": "right"
    },
    {
      "midi": 44,
      "time": 92.85,
      "duration": 0.15,
      "velocity": 0.63,
      "hand": "left"
    },
    {
      "midi": 46,
      "time": 92.85,
      "duration": 0.075,
      "velocity": 0.63,
      "hand": "left"
    },
    {
      "midi": 69,
      "time": 92.85,
      "duration": 0.075,
      "velocity": 0.39,
      "hand": "right"
    },
    {
      "midi": 69,
      "time": 92.85,
      "duration": 0.15,
      "velocity": 0.85,
      "hand": "right"
    },
    {
      "midi": 72,
      "time": 92.85,
      "duration": 0.15,
      "velocity": 0.79,
      "hand": "right"
    },
    {
      "midi": 74,
      "time": 92.85,
      "duration": 0.075,
      "velocity": 0.76,
      "hand": "right"
    },
    {
      "midi": 76,
      "time": 92.85,
      "duration": 0.075,
      "velocity": 0.57,
      "hand": "right"
    },
    {
      "midi": 81,
      "time": 92.85,
      "duration": 0.15,
      "velocity": 0.47,
      "hand": "right"
    },
    {
      "midi": 38,
      "time": 93,
      "duration": 0.3,
      "velocity": 1,
      "hand": "left"
    },
    {
      "midi": 42,
      "time": 93,
      "duration": 0.3,
      "velocity": 0.63,
      "hand": "left"
    },
    {
      "midi": 46,
      "time": 93,
      "duration": 0.075,
      "velocity": 0.63,
      "hand": "left"
    },
    {
      "midi": 50,
      "time": 93,
      "duration": 0.6,
      "velocity": 1,
      "hand": "left"
    },
    {
      "midi": 51,
      "time": 93,
      "duration": 0.15,
      "velocity": 0.63,
      "hand": "left"
    },
    {
      "midi": 66,
      "time": 93,
      "duration": 0.15,
      "velocity": 1,
      "hand": "right"
    },
    {
      "midi": 72,
      "time": 93,
      "duration": 0.15,
      "velocity": 1,
      "hand": "right"
    },
    {
      "midi": 74,
      "time": 93,
      "duration": 0.075,
      "velocity": 1,
      "hand": "right"
    },
    {
      "midi": 74,
      "time": 93,
      "duration": 0.15,
      "velocity": 1,
      "hand": "right"
    },
    {
      "midi": 86,
      "time": 93,
      "duration": 0.15,
      "velocity": 0.47,
      "hand": "right"
    },
    {
      "midi": 46,
      "time": 93.3,
      "duration": 0.075,
      "velocity": 0.63,
      "hand": "left"
    },
    {
      "midi": 54,
      "time": 93.3,
      "duration": 0.15,
      "velocity": 0.93,
      "hand": "left"
    },
    {
      "midi": 62,
      "time": 93.3,
      "duration": 0.3,
      "velocity": 0.63,
      "hand": "right"
    },
    {
      "midi": 66,
      "time": 93.3,
      "duration": 0.075,
      "velocity": 1,
      "hand": "right"
    },
    {
      "midi": 72,
      "time": 93.3,
      "duration": 0.075,
      "velocity": 1,
      "hand": "right"
    },
    {
      "midi": 74,
      "time": 93.3,
      "duration": 0.075,
      "velocity": 1,
      "hand": "right"
    },
    {
      "midi": 74,
      "time": 93.3,
      "duration": 0.3,
      "velocity": 1,
      "hand": "right"
    },
    {
      "midi": 74,
      "time": 93.3,
      "duration": 0.15,
      "velocity": 1,
      "hand": "right"
    },
    {
      "midi": 86,
      "time": 93.3,
      "duration": 0.15,
      "velocity": 0.47,
      "hand": "right"
    },
    {
      "midi": 86,
      "time": 93.3,
      "duration": 0.3,
      "velocity": 1,
      "hand": "right"
    },
    {
      "midi": 67,
      "time": 93.45,
      "duration": 0.15,
      "velocity": 1,
      "hand": "right"
    },
    {
      "midi": 38,
      "time": 93.6,
      "duration": 0.075,
      "velocity": 0.63,
      "hand": "left"
    },
    {
      "midi": 42,
      "time": 93.6,
      "duration": 0.15,
      "velocity": 0.63,
      "hand": "left"
    },
    {
      "midi": 43,
      "time": 93.6,
      "duration": 0.15,
      "velocity": 1,
      "hand": "left"
    },
    {
      "midi": 44,
      "time": 93.6,
      "duration": 0.15,
      "velocity": 0.63,
      "hand": "left"
    },
    {
      "midi": 46,
      "time": 93.6,
      "duration": 0.075,
      "velocity": 0.63,
      "hand": "left"
    },
    {
      "midi": 51,
      "time": 93.6,
      "duration": 0.15,
      "velocity": 0.63,
      "hand": "left"
    },
    {
      "midi": 55,
      "time": 93.6,
      "duration": 0.075,
      "velocity": 1,
      "hand": "left"
    },
    {
      "midi": 55,
      "time": 93.6,
      "duration": 0.6,
      "velocity": 0.97,
      "hand": "left"
    },
    {
      "midi": 67,
      "time": 93.6,
      "duration": 0.15,
      "velocity": 1,
      "hand": "right"
    },
    {
      "midi": 67,
      "time": 93.6,
      "duration": 1.95,
      "velocity": 0.63,
      "hand": "right"
    },
    {
      "midi": 69,
      "time": 93.6,
      "duration": 0.15,
      "velocity": 0.83,
      "hand": "right"
    },
    {
      "midi": 71,
      "time": 93.6,
      "duration": 0.3,
      "velocity": 1,
      "hand": "right"
    },
    {
      "midi": 74,
      "time": 93.6,
      "duration": 1.35,
      "velocity": 1,
      "hand": "right"
    },
    {
      "midi": 79,
      "time": 93.6,
      "duration": 1.35,
      "velocity": 0.47,
      "hand": "right"
    },
    {
      "midi": 79,
      "time": 93.6,
      "duration": 1.95,
      "velocity": 1,
      "hand": "right"
    },
    {
      "midi": 67,
      "time": 93.9,
      "duration": 0.075,
      "velocity": 0.79,
      "hand": "right"
    },
    {
      "midi": 38,
      "time": 94.2,
      "duration": 0.3,
      "velocity": 1,
      "hand": "left"
    },
    {
      "midi": 38,
      "time": 94.2,
      "duration": 0.15,
      "velocity": 0.63,
      "hand": "left"
    },
    {
      "midi": 42,
      "time": 94.2,
      "duration": 0.15,
      "velocity": 0.63,
      "hand": "left"
    },
    {
      "midi": 44,
      "time": 94.2,
      "duration": 0.15,
      "velocity": 0.63,
      "hand": "left"
    },
    {
      "midi": 46,
      "time": 94.2,
      "duration": 0.075,
      "velocity": 0.63,
      "hand": "left"
    },
    {
      "midi": 50,
      "time": 94.2,
      "duration": 0.6,
      "velocity": 1,
      "hand": "left"
    },
    {
      "midi": 50,
      "time": 94.2,
      "duration": 0.45,
      "velocity": 0.81,
      "hand": "left"
    },
    {
      "midi": 67,
      "time": 94.2,
      "duration": 0.075,
      "velocity": 0.89,
      "hand": "right"
    },
    {
      "midi": 71,
      "time": 94.2,
      "duration": 0.075,
      "velocity": 0.85,
      "hand": "right"
    },
    {
      "midi": 67,
      "time": 94.5,
      "duration": 0.075,
      "velocity": 0.79,
      "hand": "right"
    },
    {
      "midi": 71,
      "time": 94.5,
      "duration": 0.075,
      "velocity": 0.72,
      "hand": "right"
    },
    {
      "midi": 42,
      "time": 94.65,
      "duration": 0.075,
      "velocity": 0.63,
      "hand": "left"
    },
    {
      "midi": 50,
      "time": 94.65,
      "duration": 0.075,
      "velocity": 0.89,
      "hand": "left"
    },
    {
      "midi": 38,
      "time": 94.8,
      "duration": 0.15,
      "velocity": 0.63,
      "hand": "left"
    },
    {
      "midi": 42,
      "time": 94.8,
      "duration": 0.15,
      "velocity": 0.63,
      "hand": "left"
    },
    {
      "midi": 43,
      "time": 94.8,
      "duration": 0.75,
      "velocity": 1,
      "hand": "left"
    },
    {
      "midi": 43,
      "time": 94.8,
      "duration": 0.6,
      "velocity": 0.99,
      "hand": "left"
    },
    {
      "midi": 44,
      "time": 94.8,
      "duration": 0.075,
      "velocity": 0.63,
      "hand": "left"
    },
    {
      "midi": 46,
      "time": 94.8,
      "duration": 0.075,
      "velocity": 0.63,
      "hand": "left"
    },
    {
      "midi": 51,
      "time": 94.8,
      "duration": 0.075,
      "velocity": 0.63,
      "hand": "left"
    },
    {
      "midi": 55,
      "time": 94.8,
      "duration": 0.6,
      "velocity": 1,
      "hand": "left"
    },
    {
      "midi": 67,
      "time": 94.8,
      "duration": 0.15,
      "velocity": 1,
      "hand": "right"
    },
    {
      "midi": 71,
      "time": 94.8,
      "duration": 0.15,
      "velocity": 1,
      "hand": "right"
    }
  ],
  "arrangements": {
    "easy": [
      {
        "midi": 71,
        "time": 0,
        "duration": 0.2,
        "velocity": 0.97,
        "hand": "right"
      },
      {
        "midi": 71,
        "time": 0.3,
        "duration": 0.2,
        "velocity": 0.92,
        "hand": "right"
      },
      {
        "midi": 71,
        "time": 0.45,
        "duration": 0.2,
        "velocity": 0.73,
        "hand": "right"
      },
      {
        "midi": 72,
        "time": 0.9,
        "duration": 0.2,
        "velocity": 1,
        "hand": "right"
      },
      {
        "midi": 71,
        "time": 1.2,
        "duration": 0.2,
        "velocity": 1,
        "hand": "right"
      },
      {
        "midi": 71,
        "time": 1.5,
        "duration": 0.2,
        "velocity": 0.97,
        "hand": "right"
      },
      {
        "midi": 71,
        "time": 1.8,
        "duration": 0.2,
        "velocity": 0.89,
        "hand": "right"
      },
      {
        "midi": 72,
        "time": 2.1,
        "duration": 0.2,
        "velocity": 1,
        "hand": "right"
      },
      {
        "midi": 71,
        "time": 2.4,
        "duration": 0.2,
        "velocity": 1,
        "hand": "right"
      },
      {
        "midi": 71,
        "time": 2.7,
        "duration": 0.2,
        "velocity": 1,
        "hand": "right"
      },
      {
        "midi": 72,
        "time": 2.85,
        "duration": 0.2,
        "velocity": 1,
        "hand": "right"
      },
      {
        "midi": 71,
        "time": 3,
        "duration": 0.2,
        "velocity": 0.99,
        "hand": "right"
      },
      {
        "midi": 72,
        "time": 3.3,
        "duration": 0.2,
        "velocity": 1,
        "hand": "right"
      },
      {
        "midi": 46,
        "time": 3.45,
        "duration": 0.2,
        "velocity": 0.63,
        "hand": "right"
      },
      {
        "midi": 71,
        "time": 3.6,
        "duration": 0.45,
        "velocity": 1,
        "hand": "right"
      },
      {
        "midi": 86,
        "time": 3.9,
        "duration": 0.2,
        "velocity": 0.92,
        "hand": "right"
      },
      {
        "midi": 91,
        "time": 4.05,
        "duration": 0.2,
        "velocity": 0.8,
        "hand": "right"
      },
      {
        "midi": 86,
        "time": 4.2,
        "duration": 0.2,
        "velocity": 0.92,
        "hand": "right"
      },
      {
        "midi": 83,
        "time": 4.5,
        "duration": 0.2,
        "velocity": 0.92,
        "hand": "right"
      },
      {
        "midi": 79,
        "time": 4.8,
        "duration": 2.4,
        "velocity": 0.92,
        "hand": "right"
      },
      {
        "midi": 74,
        "time": 5.1,
        "duration": 0.2,
        "velocity": 1,
        "hand": "right"
      },
      {
        "midi": 74,
        "time": 5.25,
        "duration": 0.2,
        "velocity": 0.99,
        "hand": "right"
      },
      {
        "midi": 74,
        "time": 5.4,
        "duration": 0.2,
        "velocity": 0.94,
        "hand": "right"
      },
      {
        "midi": 73,
        "time": 5.7,
        "duration": 0.2,
        "velocity": 1,
        "hand": "right"
      },
      {
        "midi": 74,
        "time": 6,
        "duration": 0.2,
        "velocity": 1,
        "hand": "right"
      },
      {
        "midi": 74,
        "time": 6.3,
        "duration": 0.2,
        "velocity": 1,
        "hand": "right"
      },
      {
        "midi": 74,
        "time": 6.45,
        "duration": 0.2,
        "velocity": 0.76,
        "hand": "right"
      },
      {
        "midi": 73,
        "time": 6.9,
        "duration": 0.2,
        "velocity": 1,
        "hand": "right"
      },
      {
        "midi": 74,
        "time": 7.2,
        "duration": 0.2,
        "velocity": 1,
        "hand": "right"
      },
      {
        "midi": 74,
        "time": 7.5,
        "duration": 0.2,
        "velocity": 0.97,
        "hand": "right"
      },
      {
        "midi": 73,
        "time": 7.65,
        "duration": 0.2,
        "velocity": 0.89,
        "hand": "right"
      },
      {
        "midi": 74,
        "time": 7.8,
        "duration": 0.2,
        "velocity": 0.89,
        "hand": "right"
      },
      {
        "midi": 76,
        "time": 8.1,
        "duration": 0.2,
        "velocity": 0.99,
        "hand": "right"
      },
      {
        "midi": 66,
        "time": 8.25,
        "duration": 0.2,
        "velocity": 1,
        "hand": "right"
      },
      {
        "midi": 74,
        "time": 8.4,
        "duration": 0.6,
        "velocity": 1,
        "hand": "right"
      },
      {
        "midi": 95,
        "time": 8.7,
        "duration": 0.2,
        "velocity": 0.76,
        "hand": "right"
      },
      {
        "midi": 91,
        "time": 8.85,
        "duration": 0.2,
        "velocity": 0.91,
        "hand": "right"
      },
      {
        "midi": 86,
        "time": 9,
        "duration": 0.2,
        "velocity": 0.92,
        "hand": "right"
      },
      {
        "midi": 91,
        "time": 9.3,
        "duration": 0.3,
        "velocity": 0.92,
        "hand": "right"
      },
      {
        "midi": 90,
        "time": 9.6,
        "duration": 1.35,
        "velocity": 0.92,
        "hand": "right"
      },
      {
        "midi": 74,
        "time": 9.9,
        "duration": 0.2,
        "velocity": 0.94,
        "hand": "right"
      },
      {
        "midi": 74,
        "time": 10.05,
        "duration": 0.2,
        "velocity": 0.87,
        "hand": "right"
      },
      {
        "midi": 76,
        "time": 10.5,
        "duration": 0.2,
        "velocity": 1,
        "hand": "right"
      },
      {
        "midi": 74,
        "time": 10.8,
        "duration": 0.3,
        "velocity": 1,
        "hand": "right"
      },
      {
        "midi": 96,
        "time": 11.1,
        "duration": 0.2,
        "velocity": 0.92,
        "hand": "right"
      },
      {
        "midi": 95,
        "time": 11.25,
        "duration": 0.2,
        "velocity": 0.62,
        "hand": "right"
      },
      {
        "midi": 97,
        "time": 11.4,
        "duration": 0.2,
        "velocity": 0.65,
        "hand": "right"
      },
      {
        "midi": 90,
        "time": 11.7,
        "duration": 0.3,
        "velocity": 0.92,
        "hand": "right"
      },
      {
        "midi": 46,
        "time": 11.85,
        "duration": 0.2,
        "velocity": 0.63,
        "hand": "right"
      },
      {
        "midi": 93,
        "time": 12,
        "duration": 0.2,
        "velocity": 0.84,
        "hand": "right"
      },
      {
        "midi": 93,
        "time": 12.15,
        "duration": 0.2,
        "velocity": 0.8,
        "hand": "right"
      },
      {
        "midi": 91,
        "time": 12.3,
        "duration": 0.3,
        "velocity": 0.89,
        "hand": "right"
      },
      {
        "midi": 74,
        "time": 12.45,
        "duration": 0.2,
        "velocity": 0.94,
        "hand": "right"
      },
      {
        "midi": 85,
        "time": 12.6,
        "duration": 0.2,
        "velocity": 0.81,
        "hand": "right"
      },
      {
        "midi": 73,
        "time": 12.9,
        "duration": 0.2,
        "velocity": 1,
        "hand": "right"
      },
      {
        "midi": 74,
        "time": 13.2,
        "duration": 0.45,
        "velocity": 1,
        "hand": "right"
      },
      {
        "midi": 60,
        "time": 13.35,
        "duration": 0.2,
        "velocity": 0.79,
        "hand": "right"
      },
      {
        "midi": 84,
        "time": 13.5,
        "duration": 0.2,
        "velocity": 0.92,
        "hand": "right"
      },
      {
        "midi": 85,
        "time": 13.65,
        "duration": 0.2,
        "velocity": 0.81,
        "hand": "right"
      },
      {
        "midi": 88,
        "time": 13.8,
        "duration": 0.2,
        "velocity": 0.91,
        "hand": "right"
      },
      {
        "midi": 86,
        "time": 13.95,
        "duration": 0.2,
        "velocity": 0.92,
        "hand": "right"
      },
      {
        "midi": 88,
        "time": 14.1,
        "duration": 0.2,
        "velocity": 0.5,
        "hand": "right"
      },
      {
        "midi": 46,
        "time": 14.25,
        "duration": 0.2,
        "velocity": 0.63,
        "hand": "right"
      },
      {
        "midi": 84,
        "time": 14.4,
        "duration": 0.3,
        "velocity": 0.92,
        "hand": "right"
      },
      {
        "midi": 81,
        "time": 14.7,
        "duration": 0.2,
        "velocity": 0.92,
        "hand": "right"
      },
      {
        "midi": 74,
        "time": 14.85,
        "duration": 0.2,
        "velocity": 0.83,
        "hand": "right"
      },
      {
        "midi": 76,
        "time": 15,
        "duration": 0.3,
        "velocity": 0.92,
        "hand": "right"
      },
      {
        "midi": 78,
        "time": 15.3,
        "duration": 0.3,
        "velocity": 0.92,
        "hand": "right"
      },
      {
        "midi": 83,
        "time": 15.6,
        "duration": 0.45,
        "velocity": 0.91,
        "hand": "right"
      },
      {
        "midi": 59,
        "time": 15.9,
        "duration": 0.45,
        "velocity": 0.63,
        "hand": "right"
      },
      {
        "midi": 84,
        "time": 16.2,
        "duration": 0.2,
        "velocity": 0.81,
        "hand": "right"
      },
      {
        "midi": 60,
        "time": 16.5,
        "duration": 0.3,
        "velocity": 0.79,
        "hand": "right"
      },
      {
        "midi": 44,
        "time": 16.65,
        "duration": 0.2,
        "velocity": 0.63,
        "hand": "right"
      },
      {
        "midi": 79,
        "time": 16.8,
        "duration": 1.2,
        "velocity": 0.92,
        "hand": "right"
      },
      {
        "midi": 71,
        "time": 17.1,
        "duration": 0.2,
        "velocity": 0.94,
        "hand": "right"
      },
      {
        "midi": 71,
        "time": 17.4,
        "duration": 0.2,
        "velocity": 0.85,
        "hand": "right"
      },
      {
        "midi": 72,
        "time": 17.7,
        "duration": 0.2,
        "velocity": 1,
        "hand": "right"
      },
      {
        "midi": 86,
        "time": 18,
        "duration": 1.05,
        "velocity": 0.63,
        "hand": "right"
      },
      {
        "midi": 46,
        "time": 18.3,
        "duration": 0.2,
        "velocity": 0.63,
        "hand": "right"
      },
      {
        "midi": 69,
        "time": 18.6,
        "duration": 0.2,
        "velocity": 0.97,
        "hand": "right"
      },
      {
        "midi": 46,
        "time": 18.75,
        "duration": 0.2,
        "velocity": 0.63,
        "hand": "right"
      },
      {
        "midi": 46,
        "time": 19.05,
        "duration": 0.2,
        "velocity": 0.63,
        "hand": "right"
      },
      {
        "midi": 79,
        "time": 19.2,
        "duration": 1.05,
        "velocity": 0.79,
        "hand": "right"
      },
      {
        "midi": 67,
        "time": 19.5,
        "duration": 0.2,
        "velocity": 0.89,
        "hand": "right"
      },
      {
        "midi": 50,
        "time": 19.8,
        "duration": 0.6,
        "velocity": 0.7,
        "hand": "right"
      },
      {
        "midi": 83,
        "time": 20.1,
        "duration": 0.3,
        "velocity": 0.81,
        "hand": "right"
      },
      {
        "midi": 86,
        "time": 20.4,
        "duration": 0.2,
        "velocity": 0.81,
        "hand": "right"
      },
      {
        "midi": 86,
        "time": 20.7,
        "duration": 0.2,
        "velocity": 0.85,
        "hand": "right"
      },
      {
        "midi": 86,
        "time": 21,
        "duration": 0.3,
        "velocity": 0.89,
        "hand": "right"
      },
      {
        "midi": 88,
        "time": 21.3,
        "duration": 0.3,
        "velocity": 0.68,
        "hand": "right"
      },
      {
        "midi": 86,
        "time": 21.45,
        "duration": 0.2,
        "velocity": 0.94,
        "hand": "right"
      },
      {
        "midi": 88,
        "time": 21.6,
        "duration": 0.2,
        "velocity": 0.68,
        "hand": "right"
      },
      {
        "midi": 79,
        "time": 21.9,
        "duration": 0.2,
        "velocity": 0.69,
        "hand": "right"
      },
      {
        "midi": 74,
        "time": 22.05,
        "duration": 0.2,
        "velocity": 0.77,
        "hand": "right"
      },
      {
        "midi": 71,
        "time": 22.2,
        "duration": 0.2,
        "velocity": 0.62,
        "hand": "right"
      },
      {
        "midi": 83,
        "time": 22.5,
        "duration": 0.3,
        "velocity": 0.94,
        "hand": "right"
      },
      {
        "midi": 67,
        "time": 22.65,
        "duration": 0.6,
        "velocity": 0.87,
        "hand": "right"
      },
      {
        "midi": 79,
        "time": 22.8,
        "duration": 1.05,
        "velocity": 1,
        "hand": "right"
      },
      {
        "midi": 55,
        "time": 22.95,
        "duration": 0.3,
        "velocity": 0.92,
        "hand": "right"
      },
      {
        "midi": 67,
        "time": 23.1,
        "duration": 0.2,
        "velocity": 0.97,
        "hand": "right"
      },
      {
        "midi": 67,
        "time": 23.4,
        "duration": 0.2,
        "velocity": 1,
        "hand": "right"
      },
      {
        "midi": 67,
        "time": 23.7,
        "duration": 0.2,
        "velocity": 0.99,
        "hand": "right"
      },
      {
        "midi": 79,
        "time": 24,
        "duration": 0.9,
        "velocity": 0.97,
        "hand": "right"
      },
      {
        "midi": 67,
        "time": 24.3,
        "duration": 0.2,
        "velocity": 0.97,
        "hand": "right"
      },
      {
        "midi": 67,
        "time": 24.6,
        "duration": 0.2,
        "velocity": 0.97,
        "hand": "right"
      },
      {
        "midi": 83,
        "time": 24.9,
        "duration": 0.3,
        "velocity": 0.81,
        "hand": "right"
      },
      {
        "midi": 86,
        "time": 25.2,
        "duration": 0.2,
        "velocity": 0.89,
        "hand": "right"
      },
      {
        "midi": 86,
        "time": 25.5,
        "duration": 0.45,
        "velocity": 0.91,
        "hand": "right"
      },
      {
        "midi": 84,
        "time": 25.8,
        "duration": 0.3,
        "velocity": 0.91,
        "hand": "right"
      },
      {
        "midi": 83,
        "time": 25.95,
        "duration": 0.3,
        "velocity": 0.79,
        "hand": "right"
      },
      {
        "midi": 67,
        "time": 26.1,
        "duration": 0.2,
        "velocity": 1,
        "hand": "right"
      },
      {
        "midi": 56,
        "time": 26.25,
        "duration": 0.2,
        "velocity": 0.63,
        "hand": "right"
      },
      {
        "midi": 81,
        "time": 26.4,
        "duration": 0.2,
        "velocity": 0.81,
        "hand": "right"
      },
      {
        "midi": 86,
        "time": 26.7,
        "duration": 0.2,
        "velocity": 0.89,
        "hand": "right"
      },
      {
        "midi": 86,
        "time": 26.85,
        "duration": 0.2,
        "velocity": 0.85,
        "hand": "right"
      },
      {
        "midi": 62,
        "time": 27,
        "duration": 0.2,
        "velocity": 0.94,
        "hand": "right"
      },
      {
        "midi": 86,
        "time": 27.3,
        "duration": 0.2,
        "velocity": 1,
        "hand": "right"
      },
      {
        "midi": 78,
        "time": 27.45,
        "duration": 0.3,
        "velocity": 0.92,
        "hand": "right"
      },
      {
        "midi": 86,
        "time": 27.6,
        "duration": 0.3,
        "velocity": 0.97,
        "hand": "right"
      },
      {
        "midi": 66,
        "time": 27.75,
        "duration": 0.2,
        "velocity": 1,
        "hand": "right"
      },
      {
        "midi": 90,
        "time": 27.9,
        "duration": 0.6,
        "velocity": 0.89,
        "hand": "right"
      },
      {
        "midi": 67,
        "time": 28.05,
        "duration": 0.2,
        "velocity": 0.63,
        "hand": "right"
      },
      {
        "midi": 66,
        "time": 28.2,
        "duration": 0.2,
        "velocity": 1,
        "hand": "right"
      },
      {
        "midi": 88,
        "time": 28.5,
        "duration": 0.3,
        "velocity": 0.85,
        "hand": "right"
      },
      {
        "midi": 64,
        "time": 28.65,
        "duration": 0.2,
        "velocity": 0.63,
        "hand": "right"
      },
      {
        "midi": 86,
        "time": 28.8,
        "duration": 0.9,
        "velocity": 0.83,
        "hand": "right"
      },
      {
        "midi": 72,
        "time": 29.1,
        "duration": 0.2,
        "velocity": 0.94,
        "hand": "right"
      },
      {
        "midi": 72,
        "time": 29.4,
        "duration": 0.2,
        "velocity": 0.91,
        "hand": "right"
      },
      {
        "midi": 84,
        "time": 29.7,
        "duration": 0.3,
        "velocity": 0.94,
        "hand": "right"
      },
      {
        "midi": 54,
        "time": 29.85,
        "duration": 1.05,
        "velocity": 0.98,
        "hand": "right"
      },
      {
        "midi": 83,
        "time": 30,
        "duration": 0.6,
        "velocity": 0.87,
        "hand": "right"
      },
      {
        "midi": 72,
        "time": 30.3,
        "duration": 0.2,
        "velocity": 0.82,
        "hand": "right"
      },
      {
        "midi": 81,
        "time": 30.6,
        "duration": 0.45,
        "velocity": 1,
        "hand": "right"
      },
      {
        "midi": 72,
        "time": 30.9,
        "duration": 0.2,
        "velocity": 0.98,
        "hand": "right"
      },
      {
        "midi": 88,
        "time": 31.05,
        "duration": 0.45,
        "velocity": 0.87,
        "hand": "right"
      },
      {
        "midi": 71,
        "time": 31.2,
        "duration": 0.2,
        "velocity": 1,
        "hand": "right"
      },
      {
        "midi": 86,
        "time": 31.5,
        "duration": 0.2,
        "velocity": 0.94,
        "hand": "right"
      },
      {
        "midi": 71,
        "time": 31.65,
        "duration": 0.2,
        "velocity": 0.89,
        "hand": "right"
      },
      {
        "midi": 67,
        "time": 31.8,
        "duration": 0.3,
        "velocity": 0.63,
        "hand": "right"
      },
      {
        "midi": 83,
        "time": 32.1,
        "duration": 0.3,
        "velocity": 0.99,
        "hand": "right"
      },
      {
        "midi": 79,
        "time": 32.4,
        "duration": 0.6,
        "velocity": 0.77,
        "hand": "right"
      },
      {
        "midi": 71,
        "time": 32.7,
        "duration": 0.2,
        "velocity": 0.97,
        "hand": "right"
      },
      {
        "midi": 83,
        "time": 33,
        "duration": 0.6,
        "velocity": 1,
        "hand": "right"
      },
      {
        "midi": 71,
        "time": 33.3,
        "duration": 0.2,
        "velocity": 1,
        "hand": "right"
      },
      {
        "midi": 86,
        "time": 33.6,
        "duration": 0.2,
        "velocity": 0.94,
        "hand": "right"
      },
      {
        "midi": 86,
        "time": 33.9,
        "duration": 0.6,
        "velocity": 1,
        "hand": "right"
      },
      {
        "midi": 72,
        "time": 34.05,
        "duration": 0.2,
        "velocity": 0.96,
        "hand": "right"
      },
      {
        "midi": 66,
        "time": 34.2,
        "duration": 0.3,
        "velocity": 1,
        "hand": "right"
      },
      {
        "midi": 84,
        "time": 34.35,
        "duration": 0.2,
        "velocity": 0.98,
        "hand": "right"
      },
      {
        "midi": 86,
        "time": 34.5,
        "duration": 0.2,
        "velocity": 0.83,
        "hand": "right"
      },
      {
        "midi": 83,
        "time": 34.8,
        "duration": 0.6,
        "velocity": 0.79,
        "hand": "right"
      },
      {
        "midi": 74,
        "time": 35.1,
        "duration": 0.2,
        "velocity": 0.81,
        "hand": "right"
      },
      {
        "midi": 81,
        "time": 35.4,
        "duration": 0.6,
        "velocity": 0.97,
        "hand": "right"
      },
      {
        "midi": 72,
        "time": 35.7,
        "duration": 0.2,
        "velocity": 0.84,
        "hand": "right"
      },
      {
        "midi": 79,
        "time": 35.85,
        "duration": 0.6,
        "velocity": 0.92,
        "hand": "right"
      },
      {
        "midi": 71,
        "time": 36,
        "duration": 0.2,
        "velocity": 0.94,
        "hand": "right"
      },
      {
        "midi": 86,
        "time": 36.3,
        "duration": 0.2,
        "velocity": 0.8,
        "hand": "right"
      },
      {
        "midi": 86,
        "time": 36.45,
        "duration": 0.2,
        "velocity": 0.91,
        "hand": "right"
      },
      {
        "midi": 88,
        "time": 36.6,
        "duration": 0.2,
        "velocity": 0.92,
        "hand": "right"
      },
      {
        "midi": 86,
        "time": 36.75,
        "duration": 0.3,
        "velocity": 0.92,
        "hand": "right"
      },
      {
        "midi": 71,
        "time": 36.9,
        "duration": 0.2,
        "velocity": 1,
        "hand": "right"
      },
      {
        "midi": 84,
        "time": 37.05,
        "duration": 0.2,
        "velocity": 0.92,
        "hand": "right"
      },
      {
        "midi": 72,
        "time": 37.2,
        "duration": 0.2,
        "velocity": 1,
        "hand": "right"
      },
      {
        "midi": 57,
        "time": 37.35,
        "duration": 0.2,
        "velocity": 1,
        "hand": "right"
      },
      {
        "midi": 81,
        "time": 37.5,
        "duration": 0.2,
        "velocity": 0.87,
        "hand": "right"
      },
      {
        "midi": 74,
        "time": 37.65,
        "duration": 0.2,
        "velocity": 1,
        "hand": "right"
      },
      {
        "midi": 86,
        "time": 37.8,
        "duration": 0.2,
        "velocity": 0.92,
        "hand": "right"
      },
      {
        "midi": 74,
        "time": 37.95,
        "duration": 0.2,
        "velocity": 0.94,
        "hand": "right"
      },
      {
        "midi": 84,
        "time": 38.1,
        "duration": 0.2,
        "velocity": 0.92,
        "hand": "right"
      },
      {
        "midi": 69,
        "time": 38.25,
        "duration": 0.2,
        "velocity": 0.79,
        "hand": "right"
      },
      {
        "midi": 83,
        "time": 38.4,
        "duration": 0.2,
        "velocity": 0.92,
        "hand": "right"
      },
      {
        "midi": 83,
        "time": 38.7,
        "duration": 0.2,
        "velocity": 0.92,
        "hand": "right"
      },
      {
        "midi": 66,
        "time": 38.85,
        "duration": 0.2,
        "velocity": 0.71,
        "hand": "right"
      },
      {
        "midi": 84,
        "time": 39,
        "duration": 0.2,
        "velocity": 0.92,
        "hand": "right"
      },
      {
        "midi": 84,
        "time": 39.3,
        "duration": 0.2,
        "velocity": 0.92,
        "hand": "right"
      },
      {
        "midi": 83,
        "time": 39.45,
        "duration": 0.2,
        "velocity": 0.8,
        "hand": "right"
      },
      {
        "midi": 81,
        "time": 39.6,
        "duration": 0.2,
        "velocity": 0.91,
        "hand": "right"
      },
      {
        "midi": 81,
        "time": 39.9,
        "duration": 0.2,
        "velocity": 0.84,
        "hand": "right"
      },
      {
        "midi": 86,
        "time": 40.2,
        "duration": 0.2,
        "velocity": 0.91,
        "hand": "right"
      },
      {
        "midi": 86,
        "time": 40.5,
        "duration": 0.3,
        "velocity": 0.92,
        "hand": "right"
      },
      {
        "midi": 79,
        "time": 40.65,
        "duration": 0.2,
        "velocity": 0.84,
        "hand": "right"
      },
      {
        "midi": 74,
        "time": 40.8,
        "duration": 0.2,
        "velocity": 1,
        "hand": "right"
      },
      {
        "midi": 86,
        "time": 41.1,
        "duration": 0.2,
        "velocity": 0.63,
        "hand": "right"
      },
      {
        "midi": 88,
        "time": 41.4,
        "duration": 0.2,
        "velocity": 0.63,
        "hand": "right"
      },
      {
        "midi": 86,
        "time": 41.55,
        "duration": 0.2,
        "velocity": 0.63,
        "hand": "right"
      },
      {
        "midi": 86,
        "time": 41.7,
        "duration": 0.3,
        "velocity": 0.99,
        "hand": "right"
      },
      {
        "midi": 84,
        "time": 41.85,
        "duration": 0.3,
        "velocity": 0.63,
        "hand": "right"
      },
      {
        "midi": 76,
        "time": 42,
        "duration": 0.2,
        "velocity": 1,
        "hand": "right"
      },
      {
        "midi": 72,
        "time": 42.15,
        "duration": 0.2,
        "velocity": 1,
        "hand": "right"
      },
      {
        "midi": 84,
        "time": 42.3,
        "duration": 0.2,
        "velocity": 1,
        "hand": "right"
      },
      {
        "midi": 81,
        "time": 42.45,
        "duration": 0.2,
        "velocity": 0.63,
        "hand": "right"
      },
      {
        "midi": 86,
        "time": 42.6,
        "duration": 0.2,
        "velocity": 0.63,
        "hand": "right"
      },
      {
        "midi": 72,
        "time": 42.75,
        "duration": 0.3,
        "velocity": 1,
        "hand": "right"
      },
      {
        "midi": 86,
        "time": 42.9,
        "duration": 0.2,
        "velocity": 1,
        "hand": "right"
      },
      {
        "midi": 84,
        "time": 43.05,
        "duration": 0.2,
        "velocity": 0.94,
        "hand": "right"
      },
      {
        "midi": 83,
        "time": 43.2,
        "duration": 0.2,
        "velocity": 0.63,
        "hand": "right"
      },
      {
        "midi": 83,
        "time": 43.5,
        "duration": 0.2,
        "velocity": 0.63,
        "hand": "right"
      },
      {
        "midi": 79,
        "time": 43.65,
        "duration": 0.2,
        "velocity": 0.63,
        "hand": "right"
      },
      {
        "midi": 84,
        "time": 43.8,
        "duration": 0.2,
        "velocity": 0.63,
        "hand": "right"
      },
      {
        "midi": 84,
        "time": 44.1,
        "duration": 0.2,
        "velocity": 0.63,
        "hand": "right"
      },
      {
        "midi": 83,
        "time": 44.25,
        "duration": 0.2,
        "velocity": 0.63,
        "hand": "right"
      },
      {
        "midi": 81,
        "time": 44.4,
        "duration": 0.2,
        "velocity": 0.63,
        "hand": "right"
      },
      {
        "midi": 81,
        "time": 44.7,
        "duration": 0.2,
        "velocity": 0.63,
        "hand": "right"
      },
      {
        "midi": 86,
        "time": 45,
        "duration": 0.2,
        "velocity": 0.63,
        "hand": "right"
      },
      {
        "midi": 86,
        "time": 45.3,
        "duration": 0.2,
        "velocity": 0.63,
        "hand": "right"
      },
      {
        "midi": 67,
        "time": 45.45,
        "duration": 0.2,
        "velocity": 1,
        "hand": "right"
      },
      {
        "midi": 79,
        "time": 45.6,
        "duration": 1.35,
        "velocity": 0.63,
        "hand": "right"
      },
      {
        "midi": 67,
        "time": 45.9,
        "duration": 0.2,
        "velocity": 0.79,
        "hand": "right"
      },
      {
        "midi": 71,
        "time": 46.2,
        "duration": 0.2,
        "velocity": 0.85,
        "hand": "right"
      },
      {
        "midi": 71,
        "time": 46.5,
        "duration": 0.2,
        "velocity": 0.72,
        "hand": "right"
      },
      {
        "midi": 50,
        "time": 46.65,
        "duration": 0.2,
        "velocity": 0.89,
        "hand": "right"
      },
      {
        "midi": 71,
        "time": 46.8,
        "duration": 0.2,
        "velocity": 1,
        "hand": "right"
      },
      {
        "midi": 50,
        "time": 47.1,
        "duration": 0.2,
        "velocity": 1,
        "hand": "right"
      },
      {
        "midi": 38,
        "time": 47.25,
        "duration": 0.2,
        "velocity": 0.63,
        "hand": "right"
      },
      {
        "midi": 52,
        "time": 47.4,
        "duration": 0.2,
        "velocity": 1,
        "hand": "right"
      },
      {
        "midi": 54,
        "time": 47.7,
        "duration": 0.2,
        "velocity": 1,
        "hand": "right"
      },
      {
        "midi": 71,
        "time": 48,
        "duration": 0.2,
        "velocity": 0.97,
        "hand": "right"
      },
      {
        "midi": 71,
        "time": 48.3,
        "duration": 0.2,
        "velocity": 0.92,
        "hand": "right"
      },
      {
        "midi": 71,
        "time": 48.45,
        "duration": 0.2,
        "velocity": 0.73,
        "hand": "right"
      },
      {
        "midi": 72,
        "time": 48.9,
        "duration": 0.2,
        "velocity": 1,
        "hand": "right"
      },
      {
        "midi": 71,
        "time": 49.2,
        "duration": 0.2,
        "velocity": 1,
        "hand": "right"
      },
      {
        "midi": 71,
        "time": 49.5,
        "duration": 0.2,
        "velocity": 0.97,
        "hand": "right"
      },
      {
        "midi": 71,
        "time": 49.8,
        "duration": 0.2,
        "velocity": 0.89,
        "hand": "right"
      },
      {
        "midi": 72,
        "time": 50.1,
        "duration": 0.2,
        "velocity": 1,
        "hand": "right"
      },
      {
        "midi": 71,
        "time": 50.4,
        "duration": 0.2,
        "velocity": 1,
        "hand": "right"
      },
      {
        "midi": 71,
        "time": 50.7,
        "duration": 0.2,
        "velocity": 1,
        "hand": "right"
      },
      {
        "midi": 72,
        "time": 50.85,
        "duration": 0.2,
        "velocity": 1,
        "hand": "right"
      },
      {
        "midi": 71,
        "time": 51,
        "duration": 0.2,
        "velocity": 0.99,
        "hand": "right"
      },
      {
        "midi": 72,
        "time": 51.3,
        "duration": 0.2,
        "velocity": 1,
        "hand": "right"
      },
      {
        "midi": 46,
        "time": 51.45,
        "duration": 0.2,
        "velocity": 0.63,
        "hand": "right"
      },
      {
        "midi": 71,
        "time": 51.6,
        "duration": 0.45,
        "velocity": 1,
        "hand": "right"
      },
      {
        "midi": 86,
        "time": 51.9,
        "duration": 0.2,
        "velocity": 0.92,
        "hand": "right"
      },
      {
        "midi": 91,
        "time": 52.05,
        "duration": 0.2,
        "velocity": 0.8,
        "hand": "right"
      },
      {
        "midi": 86,
        "time": 52.2,
        "duration": 0.2,
        "velocity": 0.92,
        "hand": "right"
      },
      {
        "midi": 83,
        "time": 52.5,
        "duration": 0.2,
        "velocity": 0.92,
        "hand": "right"
      },
      {
        "midi": 79,
        "time": 52.8,
        "duration": 2.4,
        "velocity": 0.92,
        "hand": "right"
      },
      {
        "midi": 74,
        "time": 53.1,
        "duration": 0.2,
        "velocity": 1,
        "hand": "right"
      },
      {
        "midi": 74,
        "time": 53.4,
        "duration": 0.2,
        "velocity": 0.94,
        "hand": "right"
      },
      {
        "midi": 73,
        "time": 53.7,
        "duration": 0.2,
        "velocity": 1,
        "hand": "right"
      },
      {
        "midi": 74,
        "time": 54,
        "duration": 0.2,
        "velocity": 1,
        "hand": "right"
      },
      {
        "midi": 74,
        "time": 54.3,
        "duration": 0.2,
        "velocity": 1,
        "hand": "right"
      },
      {
        "midi": 74,
        "time": 54.45,
        "duration": 0.2,
        "velocity": 0.76,
        "hand": "right"
      },
      {
        "midi": 73,
        "time": 54.9,
        "duration": 0.2,
        "velocity": 1,
        "hand": "right"
      },
      {
        "midi": 74,
        "time": 55.2,
        "duration": 0.2,
        "velocity": 1,
        "hand": "right"
      },
      {
        "midi": 74,
        "time": 55.5,
        "duration": 0.2,
        "velocity": 0.97,
        "hand": "right"
      },
      {
        "midi": 73,
        "time": 55.65,
        "duration": 0.2,
        "velocity": 0.89,
        "hand": "right"
      },
      {
        "midi": 74,
        "time": 55.8,
        "duration": 0.2,
        "velocity": 0.89,
        "hand": "right"
      },
      {
        "midi": 76,
        "time": 56.1,
        "duration": 0.2,
        "velocity": 0.99,
        "hand": "right"
      },
      {
        "midi": 66,
        "time": 56.25,
        "duration": 0.2,
        "velocity": 1,
        "hand": "right"
      },
      {
        "midi": 74,
        "time": 56.4,
        "duration": 0.6,
        "velocity": 1,
        "hand": "right"
      },
      {
        "midi": 95,
        "time": 56.7,
        "duration": 0.2,
        "velocity": 0.76,
        "hand": "right"
      },
      {
        "midi": 91,
        "time": 56.85,
        "duration": 0.2,
        "velocity": 0.91,
        "hand": "right"
      },
      {
        "midi": 86,
        "time": 57,
        "duration": 0.2,
        "velocity": 0.92,
        "hand": "right"
      },
      {
        "midi": 91,
        "time": 57.3,
        "duration": 0.3,
        "velocity": 0.92,
        "hand": "right"
      },
      {
        "midi": 90,
        "time": 57.6,
        "duration": 1.35,
        "velocity": 0.92,
        "hand": "right"
      },
      {
        "midi": 74,
        "time": 57.9,
        "duration": 0.2,
        "velocity": 0.94,
        "hand": "right"
      },
      {
        "midi": 74,
        "time": 58.2,
        "duration": 0.2,
        "velocity": 1,
        "hand": "right"
      },
      {
        "midi": 76,
        "time": 58.5,
        "duration": 0.2,
        "velocity": 1,
        "hand": "right"
      },
      {
        "midi": 74,
        "time": 58.8,
        "duration": 0.3,
        "velocity": 1,
        "hand": "right"
      },
      {
        "midi": 96,
        "time": 59.1,
        "duration": 0.2,
        "velocity": 0.92,
        "hand": "right"
      },
      {
        "midi": 95,
        "time": 59.25,
        "duration": 0.2,
        "velocity": 0.62,
        "hand": "right"
      },
      {
        "midi": 97,
        "time": 59.4,
        "duration": 0.2,
        "velocity": 0.65,
        "hand": "right"
      },
      {
        "midi": 90,
        "time": 59.7,
        "duration": 0.3,
        "velocity": 0.92,
        "hand": "right"
      },
      {
        "midi": 46,
        "time": 59.85,
        "duration": 0.2,
        "velocity": 0.63,
        "hand": "right"
      },
      {
        "midi": 93,
        "time": 60,
        "duration": 0.2,
        "velocity": 0.84,
        "hand": "right"
      },
      {
        "midi": 91,
        "time": 60.3,
        "duration": 0.3,
        "velocity": 0.89,
        "hand": "right"
      },
      {
        "midi": 74,
        "time": 60.45,
        "duration": 0.2,
        "velocity": 0.94,
        "hand": "right"
      },
      {
        "midi": 85,
        "time": 60.6,
        "duration": 0.2,
        "velocity": 0.81,
        "hand": "right"
      },
      {
        "midi": 73,
        "time": 60.9,
        "duration": 0.2,
        "velocity": 1,
        "hand": "right"
      },
      {
        "midi": 74,
        "time": 61.2,
        "duration": 0.45,
        "velocity": 1,
        "hand": "right"
      },
      {
        "midi": 60,
        "time": 61.35,
        "duration": 0.2,
        "velocity": 0.79,
        "hand": "right"
      },
      {
        "midi": 84,
        "time": 61.5,
        "duration": 0.2,
        "velocity": 0.92,
        "hand": "right"
      },
      {
        "midi": 85,
        "time": 61.65,
        "duration": 0.2,
        "velocity": 0.81,
        "hand": "right"
      },
      {
        "midi": 88,
        "time": 61.8,
        "duration": 0.2,
        "velocity": 0.91,
        "hand": "right"
      },
      {
        "midi": 86,
        "time": 61.95,
        "duration": 0.2,
        "velocity": 0.92,
        "hand": "right"
      },
      {
        "midi": 88,
        "time": 62.1,
        "duration": 0.2,
        "velocity": 0.5,
        "hand": "right"
      },
      {
        "midi": 46,
        "time": 62.25,
        "duration": 0.2,
        "velocity": 0.63,
        "hand": "right"
      },
      {
        "midi": 84,
        "time": 62.4,
        "duration": 0.3,
        "velocity": 0.92,
        "hand": "right"
      },
      {
        "midi": 81,
        "time": 62.7,
        "duration": 0.2,
        "velocity": 0.92,
        "hand": "right"
      },
      {
        "midi": 74,
        "time": 62.85,
        "duration": 0.2,
        "velocity": 0.83,
        "hand": "right"
      },
      {
        "midi": 76,
        "time": 63,
        "duration": 0.3,
        "velocity": 0.92,
        "hand": "right"
      },
      {
        "midi": 78,
        "time": 63.3,
        "duration": 0.3,
        "velocity": 0.92,
        "hand": "right"
      },
      {
        "midi": 83,
        "time": 63.6,
        "duration": 0.45,
        "velocity": 0.91,
        "hand": "right"
      },
      {
        "midi": 59,
        "time": 63.9,
        "duration": 0.45,
        "velocity": 0.63,
        "hand": "right"
      },
      {
        "midi": 84,
        "time": 64.2,
        "duration": 0.2,
        "velocity": 0.81,
        "hand": "right"
      },
      {
        "midi": 60,
        "time": 64.5,
        "duration": 0.3,
        "velocity": 0.79,
        "hand": "right"
      },
      {
        "midi": 44,
        "time": 64.65,
        "duration": 0.2,
        "velocity": 0.63,
        "hand": "right"
      },
      {
        "midi": 79,
        "time": 64.8,
        "duration": 1.2,
        "velocity": 0.92,
        "hand": "right"
      },
      {
        "midi": 71,
        "time": 65.1,
        "duration": 0.2,
        "velocity": 0.94,
        "hand": "right"
      },
      {
        "midi": 71,
        "time": 65.25,
        "duration": 0.2,
        "velocity": 0.81,
        "hand": "right"
      },
      {
        "midi": 71,
        "time": 65.4,
        "duration": 0.2,
        "velocity": 0.85,
        "hand": "right"
      },
      {
        "midi": 72,
        "time": 65.7,
        "duration": 0.2,
        "velocity": 1,
        "hand": "right"
      },
      {
        "midi": 86,
        "time": 66,
        "duration": 1.05,
        "velocity": 0.92,
        "hand": "right"
      },
      {
        "midi": 46,
        "time": 66.3,
        "duration": 0.2,
        "velocity": 0.63,
        "hand": "right"
      },
      {
        "midi": 69,
        "time": 66.6,
        "duration": 0.2,
        "velocity": 0.97,
        "hand": "right"
      },
      {
        "midi": 46,
        "time": 66.75,
        "duration": 0.2,
        "velocity": 0.63,
        "hand": "right"
      },
      {
        "midi": 46,
        "time": 66.9,
        "duration": 0.2,
        "velocity": 0.63,
        "hand": "right"
      },
      {
        "midi": 67,
        "time": 67.2,
        "duration": 0.2,
        "velocity": 0.97,
        "hand": "right"
      },
      {
        "midi": 67,
        "time": 67.5,
        "duration": 0.2,
        "velocity": 0.89,
        "hand": "right"
      },
      {
        "midi": 67,
        "time": 67.65,
        "duration": 0.2,
        "velocity": 0.72,
        "hand": "right"
      },
      {
        "midi": 44,
        "time": 67.8,
        "duration": 0.2,
        "velocity": 0.63,
        "hand": "right"
      },
      {
        "midi": 71,
        "time": 68.1,
        "duration": 0.3,
        "velocity": 1,
        "hand": "right"
      },
      {
        "midi": 74,
        "time": 68.4,
        "duration": 0.2,
        "velocity": 0.94,
        "hand": "right"
      },
      {
        "midi": 74,
        "time": 68.7,
        "duration": 0.2,
        "velocity": 0.99,
        "hand": "right"
      },
      {
        "midi": 74,
        "time": 69,
        "duration": 0.45,
        "velocity": 1,
        "hand": "right"
      },
      {
        "midi": 76,
        "time": 69.3,
        "duration": 0.3,
        "velocity": 1,
        "hand": "right"
      },
      {
        "midi": 74,
        "time": 69.6,
        "duration": 0.9,
        "velocity": 0.89,
        "hand": "right"
      },
      {
        "midi": 93,
        "time": 69.9,
        "duration": 0.2,
        "velocity": 0.87,
        "hand": "right"
      },
      {
        "midi": 91,
        "time": 70.05,
        "duration": 0.2,
        "velocity": 0.89,
        "hand": "right"
      },
      {
        "midi": 62,
        "time": 70.2,
        "duration": 0.2,
        "velocity": 0.81,
        "hand": "right"
      },
      {
        "midi": 86,
        "time": 70.35,
        "duration": 0.2,
        "velocity": 0.92,
        "hand": "right"
      },
      {
        "midi": 71,
        "time": 70.5,
        "duration": 0.3,
        "velocity": 1,
        "hand": "right"
      },
      {
        "midi": 83,
        "time": 70.8,
        "duration": 0.3,
        "velocity": 0.92,
        "hand": "right"
      },
      {
        "midi": 84,
        "time": 71.1,
        "duration": 0.3,
        "velocity": 0.92,
        "hand": "right"
      },
      {
        "midi": 85,
        "time": 71.4,
        "duration": 0.3,
        "velocity": 0.92,
        "hand": "right"
      },
      {
        "midi": 86,
        "time": 71.7,
        "duration": 0.3,
        "velocity": 0.89,
        "hand": "right"
      },
      {
        "midi": 79,
        "time": 72,
        "duration": 0.6,
        "velocity": 0.92,
        "hand": "right"
      },
      {
        "midi": 67,
        "time": 72.3,
        "duration": 0.2,
        "velocity": 0.97,
        "hand": "right"
      },
      {
        "midi": 67,
        "time": 72.45,
        "duration": 0.2,
        "velocity": 0.85,
        "hand": "right"
      },
      {
        "midi": 71,
        "time": 72.9,
        "duration": 0.3,
        "velocity": 1,
        "hand": "right"
      },
      {
        "midi": 74,
        "time": 73.2,
        "duration": 0.2,
        "velocity": 1,
        "hand": "right"
      },
      {
        "midi": 74,
        "time": 73.5,
        "duration": 0.45,
        "velocity": 1,
        "hand": "right"
      },
      {
        "midi": 72,
        "time": 73.8,
        "duration": 0.3,
        "velocity": 1,
        "hand": "right"
      },
      {
        "midi": 71,
        "time": 74.1,
        "duration": 0.3,
        "velocity": 1,
        "hand": "right"
      },
      {
        "midi": 56,
        "time": 74.25,
        "duration": 0.2,
        "velocity": 0.63,
        "hand": "right"
      },
      {
        "midi": 69,
        "time": 74.4,
        "duration": 0.2,
        "velocity": 1,
        "hand": "right"
      },
      {
        "midi": 91,
        "time": 74.7,
        "duration": 0.2,
        "velocity": 0.68,
        "hand": "right"
      },
      {
        "midi": 90,
        "time": 74.85,
        "duration": 0.2,
        "velocity": 0.92,
        "hand": "right"
      },
      {
        "midi": 74,
        "time": 75,
        "duration": 0.2,
        "velocity": 1,
        "hand": "right"
      },
      {
        "midi": 91,
        "time": 75.3,
        "duration": 0.2,
        "velocity": 0.92,
        "hand": "right"
      },
      {
        "midi": 64,
        "time": 75.45,
        "duration": 0.2,
        "velocity": 0.63,
        "hand": "right"
      },
      {
        "midi": 93,
        "time": 75.6,
        "duration": 0.6,
        "velocity": 0.69,
        "hand": "right"
      },
      {
        "midi": 66,
        "time": 75.75,
        "duration": 0.2,
        "velocity": 1,
        "hand": "right"
      },
      {
        "midi": 69,
        "time": 75.9,
        "duration": 0.2,
        "velocity": 0.63,
        "hand": "right"
      },
      {
        "midi": 67,
        "time": 76.05,
        "duration": 0.2,
        "velocity": 0.63,
        "hand": "right"
      },
      {
        "midi": 78,
        "time": 76.2,
        "duration": 0.3,
        "velocity": 1,
        "hand": "right"
      },
      {
        "midi": 76,
        "time": 76.35,
        "duration": 0.3,
        "velocity": 0.99,
        "hand": "right"
      },
      {
        "midi": 76,
        "time": 76.5,
        "duration": 0.3,
        "velocity": 1,
        "hand": "right"
      },
      {
        "midi": 74,
        "time": 76.65,
        "duration": 0.9,
        "velocity": 0.99,
        "hand": "right"
      },
      {
        "midi": 91,
        "time": 77.1,
        "duration": 0.2,
        "velocity": 0.73,
        "hand": "right"
      },
      {
        "midi": 72,
        "time": 77.25,
        "duration": 0.2,
        "velocity": 0.84,
        "hand": "right"
      },
      {
        "midi": 93,
        "time": 77.4,
        "duration": 0.2,
        "velocity": 0.81,
        "hand": "right"
      },
      {
        "midi": 93,
        "time": 77.7,
        "duration": 0.2,
        "velocity": 0.92,
        "hand": "right"
      },
      {
        "midi": 90,
        "time": 77.85,
        "duration": 0.2,
        "velocity": 0.92,
        "hand": "right"
      },
      {
        "midi": 86,
        "time": 78,
        "duration": 0.2,
        "velocity": 0.92,
        "hand": "right"
      },
      {
        "midi": 90,
        "time": 78.3,
        "duration": 0.2,
        "velocity": 0.92,
        "hand": "right"
      },
      {
        "midi": 86,
        "time": 78.6,
        "duration": 0.2,
        "velocity": 0.92,
        "hand": "right"
      },
      {
        "midi": 88,
        "time": 78.9,
        "duration": 0.2,
        "velocity": 0.92,
        "hand": "right"
      },
      {
        "midi": 90,
        "time": 79.05,
        "duration": 0.2,
        "velocity": 0.68,
        "hand": "right"
      },
      {
        "midi": 91,
        "time": 79.2,
        "duration": 0.3,
        "velocity": 0.92,
        "hand": "right"
      },
      {
        "midi": 83,
        "time": 79.5,
        "duration": 0.2,
        "velocity": 0.92,
        "hand": "right"
      },
      {
        "midi": 84,
        "time": 79.65,
        "duration": 0.2,
        "velocity": 0.92,
        "hand": "right"
      },
      {
        "midi": 86,
        "time": 79.8,
        "duration": 0.2,
        "velocity": 0.92,
        "hand": "right"
      },
      {
        "midi": 79,
        "time": 80.1,
        "duration": 0.6,
        "velocity": 0.92,
        "hand": "right"
      },
      {
        "midi": 71,
        "time": 80.4,
        "duration": 0.2,
        "velocity": 0.94,
        "hand": "right"
      },
      {
        "midi": 64,
        "time": 80.55,
        "duration": 0.2,
        "velocity": 0.54,
        "hand": "right"
      },
      {
        "midi": 71,
        "time": 80.7,
        "duration": 0.2,
        "velocity": 0.97,
        "hand": "right"
      },
      {
        "midi": 71,
        "time": 81,
        "duration": 0.2,
        "velocity": 1,
        "hand": "right"
      },
      {
        "midi": 71,
        "time": 81.3,
        "duration": 0.2,
        "velocity": 1,
        "hand": "right"
      },
      {
        "midi": 74,
        "time": 81.6,
        "duration": 0.2,
        "velocity": 0.89,
        "hand": "right"
      },
      {
        "midi": 86,
        "time": 81.9,
        "duration": 0.2,
        "velocity": 0.84,
        "hand": "right"
      },
      {
        "midi": 88,
        "time": 82.05,
        "duration": 0.2,
        "velocity": 0.68,
        "hand": "right"
      },
      {
        "midi": 90,
        "time": 82.2,
        "duration": 0.2,
        "velocity": 0.92,
        "hand": "right"
      },
      {
        "midi": 90,
        "time": 82.5,
        "duration": 0.2,
        "velocity": 0.92,
        "hand": "right"
      },
      {
        "midi": 86,
        "time": 82.8,
        "duration": 0.6,
        "velocity": 0.77,
        "hand": "right"
      },
      {
        "midi": 72,
        "time": 83.1,
        "duration": 0.2,
        "velocity": 0.91,
        "hand": "right"
      },
      {
        "midi": 86,
        "time": 83.4,
        "duration": 0.2,
        "velocity": 0.84,
        "hand": "right"
      },
      {
        "midi": 72,
        "time": 83.7,
        "duration": 0.2,
        "velocity": 0.84,
        "hand": "right"
      },
      {
        "midi": 67,
        "time": 83.85,
        "duration": 0.3,
        "velocity": 1,
        "hand": "right"
      },
      {
        "midi": 83,
        "time": 84,
        "duration": 0.3,
        "velocity": 0.92,
        "hand": "right"
      },
      {
        "midi": 74,
        "time": 84.3,
        "duration": 0.2,
        "velocity": 1,
        "hand": "right"
      },
      {
        "midi": 76,
        "time": 84.45,
        "duration": 0.2,
        "velocity": 0.94,
        "hand": "right"
      },
      {
        "midi": 80,
        "time": 84.6,
        "duration": 0.6,
        "velocity": 0.96,
        "hand": "right"
      },
      {
        "midi": 74,
        "time": 84.75,
        "duration": 0.3,
        "velocity": 1,
        "hand": "right"
      },
      {
        "midi": 71,
        "time": 84.9,
        "duration": 0.2,
        "velocity": 1,
        "hand": "right"
      },
      {
        "midi": 72,
        "time": 85.05,
        "duration": 0.2,
        "velocity": 0.92,
        "hand": "right"
      },
      {
        "midi": 81,
        "time": 85.2,
        "duration": 0.2,
        "velocity": 0.83,
        "hand": "right"
      },
      {
        "midi": 69,
        "time": 85.35,
        "duration": 0.2,
        "velocity": 1,
        "hand": "right"
      },
      {
        "midi": 81,
        "time": 85.5,
        "duration": 0.2,
        "velocity": 0.87,
        "hand": "right"
      },
      {
        "midi": 79,
        "time": 85.65,
        "duration": 0.2,
        "velocity": 0.79,
        "hand": "right"
      },
      {
        "midi": 78,
        "time": 85.8,
        "duration": 0.2,
        "velocity": 0.89,
        "hand": "right"
      },
      {
        "midi": 74,
        "time": 85.95,
        "duration": 0.2,
        "velocity": 0.94,
        "hand": "right"
      },
      {
        "midi": 78,
        "time": 86.1,
        "duration": 0.2,
        "velocity": 0.92,
        "hand": "right"
      },
      {
        "midi": 81,
        "time": 86.25,
        "duration": 0.2,
        "velocity": 0.79,
        "hand": "right"
      },
      {
        "midi": 74,
        "time": 86.4,
        "duration": 0.2,
        "velocity": 1,
        "hand": "right"
      },
      {
        "midi": 74,
        "time": 86.7,
        "duration": 0.2,
        "velocity": 1,
        "hand": "right"
      },
      {
        "midi": 67,
        "time": 86.85,
        "duration": 0.2,
        "velocity": 1,
        "hand": "right"
      },
      {
        "midi": 76,
        "time": 87,
        "duration": 0.2,
        "velocity": 1,
        "hand": "right"
      },
      {
        "midi": 76,
        "time": 87.3,
        "duration": 0.2,
        "velocity": 1,
        "hand": "right"
      },
      {
        "midi": 71,
        "time": 87.45,
        "duration": 0.2,
        "velocity": 0.94,
        "hand": "right"
      },
      {
        "midi": 76,
        "time": 87.6,
        "duration": 0.2,
        "velocity": 1,
        "hand": "right"
      },
      {
        "midi": 81,
        "time": 87.9,
        "duration": 0.2,
        "velocity": 0.89,
        "hand": "right"
      },
      {
        "midi": 72,
        "time": 88.05,
        "duration": 0.2,
        "velocity": 0.91,
        "hand": "right"
      },
      {
        "midi": 78,
        "time": 88.2,
        "duration": 0.2,
        "velocity": 1,
        "hand": "right"
      },
      {
        "midi": 86,
        "time": 88.5,
        "duration": 0.2,
        "velocity": 0.54,
        "hand": "right"
      },
      {
        "midi": 83,
        "time": 88.65,
        "duration": 0.2,
        "velocity": 0.61,
        "hand": "right"
      },
      {
        "midi": 74,
        "time": 88.8,
        "duration": 0.2,
        "velocity": 1,
        "hand": "right"
      },
      {
        "midi": 86,
        "time": 89.1,
        "duration": 0.2,
        "velocity": 0.47,
        "hand": "right"
      },
      {
        "midi": 86,
        "time": 89.25,
        "duration": 0.2,
        "velocity": 0.63,
        "hand": "right"
      },
      {
        "midi": 88,
        "time": 89.4,
        "duration": 0.2,
        "velocity": 0.47,
        "hand": "right"
      },
      {
        "midi": 86,
        "time": 89.55,
        "duration": 0.2,
        "velocity": 0.47,
        "hand": "right"
      },
      {
        "midi": 86,
        "time": 89.7,
        "duration": 0.3,
        "velocity": 0.99,
        "hand": "right"
      },
      {
        "midi": 84,
        "time": 89.85,
        "duration": 0.3,
        "velocity": 0.47,
        "hand": "right"
      },
      {
        "midi": 76,
        "time": 90,
        "duration": 0.2,
        "velocity": 1,
        "hand": "right"
      },
      {
        "midi": 72,
        "time": 90.15,
        "duration": 0.2,
        "velocity": 1,
        "hand": "right"
      },
      {
        "midi": 84,
        "time": 90.3,
        "duration": 0.2,
        "velocity": 1,
        "hand": "right"
      },
      {
        "midi": 81,
        "time": 90.45,
        "duration": 0.2,
        "velocity": 0.47,
        "hand": "right"
      },
      {
        "midi": 86,
        "time": 90.6,
        "duration": 0.2,
        "velocity": 0.47,
        "hand": "right"
      },
      {
        "midi": 72,
        "time": 90.75,
        "duration": 0.3,
        "velocity": 1,
        "hand": "right"
      },
      {
        "midi": 86,
        "time": 90.9,
        "duration": 0.2,
        "velocity": 1,
        "hand": "right"
      },
      {
        "midi": 84,
        "time": 91.05,
        "duration": 0.2,
        "velocity": 0.94,
        "hand": "right"
      },
      {
        "midi": 83,
        "time": 91.2,
        "duration": 0.2,
        "velocity": 0.47,
        "hand": "right"
      },
      {
        "midi": 83,
        "time": 91.5,
        "duration": 0.2,
        "velocity": 0.47,
        "hand": "right"
      },
      {
        "midi": 79,
        "time": 91.65,
        "duration": 0.2,
        "velocity": 0.47,
        "hand": "right"
      },
      {
        "midi": 84,
        "time": 91.8,
        "duration": 0.2,
        "velocity": 0.47,
        "hand": "right"
      },
      {
        "midi": 84,
        "time": 92.1,
        "duration": 0.2,
        "velocity": 0.47,
        "hand": "right"
      },
      {
        "midi": 83,
        "time": 92.25,
        "duration": 0.2,
        "velocity": 0.47,
        "hand": "right"
      },
      {
        "midi": 81,
        "time": 92.4,
        "duration": 0.2,
        "velocity": 0.47,
        "hand": "right"
      },
      {
        "midi": 81,
        "time": 92.7,
        "duration": 0.2,
        "velocity": 0.47,
        "hand": "right"
      },
      {
        "midi": 86,
        "time": 93,
        "duration": 0.2,
        "velocity": 0.47,
        "hand": "right"
      },
      {
        "midi": 86,
        "time": 93.3,
        "duration": 0.2,
        "velocity": 0.47,
        "hand": "right"
      },
      {
        "midi": 67,
        "time": 93.45,
        "duration": 0.2,
        "velocity": 1,
        "hand": "right"
      },
      {
        "midi": 79,
        "time": 93.6,
        "duration": 1.35,
        "velocity": 0.47,
        "hand": "right"
      },
      {
        "midi": 67,
        "time": 93.9,
        "duration": 0.2,
        "velocity": 0.79,
        "hand": "right"
      },
      {
        "midi": 71,
        "time": 94.2,
        "duration": 0.2,
        "velocity": 0.85,
        "hand": "right"
      },
      {
        "midi": 71,
        "time": 94.5,
        "duration": 0.2,
        "velocity": 0.72,
        "hand": "right"
      },
      {
        "midi": 50,
        "time": 94.65,
        "duration": 0.2,
        "velocity": 0.89,
        "hand": "right"
      },
      {
        "midi": 71,
        "time": 94.8,
        "duration": 0.2,
        "velocity": 1,
        "hand": "right"
      }
    ],
    "medium": [
      {
        "midi": 38,
        "time": 0,
        "duration": 0.75,
        "velocity": 0.63,
        "hand": "left"
      },
      {
        "midi": 62,
        "time": 0,
        "duration": 0.15,
        "velocity": 0.92,
        "hand": "right"
      },
      {
        "midi": 71,
        "time": 0,
        "duration": 0.9,
        "velocity": 0.91,
        "hand": "right"
      },
      {
        "midi": 44,
        "time": 0.3,
        "duration": 0.15,
        "velocity": 0.63,
        "hand": "left"
      },
      {
        "midi": 67,
        "time": 0.3,
        "duration": 0.15,
        "velocity": 1,
        "hand": "right"
      },
      {
        "midi": 71,
        "time": 0.3,
        "duration": 0.15,
        "velocity": 0.92,
        "hand": "right"
      },
      {
        "midi": 44,
        "time": 0.45,
        "duration": 0.15,
        "velocity": 0.63,
        "hand": "left"
      },
      {
        "midi": 67,
        "time": 0.45,
        "duration": 0.15,
        "velocity": 0.92,
        "hand": "right"
      },
      {
        "midi": 71,
        "time": 0.45,
        "duration": 0.15,
        "velocity": 0.73,
        "hand": "right"
      },
      {
        "midi": 44,
        "time": 0.6,
        "duration": 0.15,
        "velocity": 0.63,
        "hand": "left"
      },
      {
        "midi": 67,
        "time": 0.6,
        "duration": 0.15,
        "velocity": 1,
        "hand": "right"
      },
      {
        "midi": 71,
        "time": 0.6,
        "duration": 0.15,
        "velocity": 1,
        "hand": "right"
      },
      {
        "midi": 38,
        "time": 0.9,
        "duration": 0.3,
        "velocity": 1,
        "hand": "left"
      },
      {
        "midi": 64,
        "time": 0.9,
        "duration": 0.15,
        "velocity": 0.89,
        "hand": "right"
      },
      {
        "midi": 72,
        "time": 0.9,
        "duration": 0.3,
        "velocity": 0.87,
        "hand": "right"
      },
      {
        "midi": 38,
        "time": 1.2,
        "duration": 0.9,
        "velocity": 0.63,
        "hand": "left"
      },
      {
        "midi": 62,
        "time": 1.2,
        "duration": 0.15,
        "velocity": 1,
        "hand": "right"
      },
      {
        "midi": 71,
        "time": 1.2,
        "duration": 0.9,
        "velocity": 0.93,
        "hand": "right"
      },
      {
        "midi": 44,
        "time": 1.5,
        "duration": 0.15,
        "velocity": 0.63,
        "hand": "left"
      },
      {
        "midi": 67,
        "time": 1.5,
        "duration": 0.15,
        "velocity": 1,
        "hand": "right"
      },
      {
        "midi": 71,
        "time": 1.5,
        "duration": 0.15,
        "velocity": 0.97,
        "hand": "right"
      },
      {
        "midi": 44,
        "time": 1.65,
        "duration": 0.15,
        "velocity": 0.63,
        "hand": "left"
      },
      {
        "midi": 67,
        "time": 1.65,
        "duration": 0.15,
        "velocity": 0.87,
        "hand": "right"
      },
      {
        "midi": 71,
        "time": 1.65,
        "duration": 0.15,
        "velocity": 0.83,
        "hand": "right"
      },
      {
        "midi": 44,
        "time": 1.8,
        "duration": 0.15,
        "velocity": 0.63,
        "hand": "left"
      },
      {
        "midi": 67,
        "time": 1.8,
        "duration": 0.15,
        "velocity": 0.97,
        "hand": "right"
      },
      {
        "midi": 71,
        "time": 1.8,
        "duration": 0.15,
        "velocity": 0.89,
        "hand": "right"
      },
      {
        "midi": 38,
        "time": 2.1,
        "duration": 0.15,
        "velocity": 1,
        "hand": "left"
      },
      {
        "midi": 64,
        "time": 2.1,
        "duration": 0.15,
        "velocity": 1,
        "hand": "right"
      },
      {
        "midi": 72,
        "time": 2.1,
        "duration": 0.15,
        "velocity": 1,
        "hand": "right"
      },
      {
        "midi": 38,
        "time": 2.4,
        "duration": 0.3,
        "velocity": 0.63,
        "hand": "left"
      },
      {
        "midi": 62,
        "time": 2.4,
        "duration": 0.15,
        "velocity": 1,
        "hand": "right"
      },
      {
        "midi": 71,
        "time": 2.4,
        "duration": 0.15,
        "velocity": 1,
        "hand": "right"
      },
      {
        "midi": 38,
        "time": 2.7,
        "duration": 0.15,
        "velocity": 1,
        "hand": "left"
      },
      {
        "midi": 62,
        "time": 2.7,
        "duration": 0.15,
        "velocity": 1,
        "hand": "right"
      },
      {
        "midi": 71,
        "time": 2.7,
        "duration": 0.15,
        "velocity": 1,
        "hand": "right"
      },
      {
        "midi": 46,
        "time": 2.85,
        "duration": 0.15,
        "velocity": 0.63,
        "hand": "left"
      },
      {
        "midi": 68,
        "time": 2.85,
        "duration": 0.15,
        "velocity": 0.79,
        "hand": "right"
      },
      {
        "midi": 72,
        "time": 2.85,
        "duration": 0.15,
        "velocity": 0.95,
        "hand": "right"
      },
      {
        "midi": 38,
        "time": 3,
        "duration": 0.15,
        "velocity": 0.63,
        "hand": "left"
      },
      {
        "midi": 62,
        "time": 3,
        "duration": 0.15,
        "velocity": 1,
        "hand": "right"
      },
      {
        "midi": 71,
        "time": 3,
        "duration": 0.15,
        "velocity": 0.99,
        "hand": "right"
      },
      {
        "midi": 38,
        "time": 3.3,
        "duration": 0.15,
        "velocity": 1,
        "hand": "left"
      },
      {
        "midi": 67,
        "time": 3.3,
        "duration": 0.15,
        "velocity": 0.97,
        "hand": "right"
      },
      {
        "midi": 72,
        "time": 3.3,
        "duration": 0.15,
        "velocity": 1,
        "hand": "right"
      },
      {
        "midi": 46,
        "time": 3.45,
        "duration": 0.15,
        "velocity": 0.63,
        "hand": "left"
      },
      {
        "midi": 38,
        "time": 3.6,
        "duration": 1.05,
        "velocity": 0.63,
        "hand": "left"
      },
      {
        "midi": 62,
        "time": 3.6,
        "duration": 0.45,
        "velocity": 1,
        "hand": "right"
      },
      {
        "midi": 71,
        "time": 3.6,
        "duration": 1.2,
        "velocity": 1,
        "hand": "right"
      },
      {
        "midi": 44,
        "time": 3.9,
        "duration": 0.15,
        "velocity": 0.63,
        "hand": "left"
      },
      {
        "midi": 67,
        "time": 3.9,
        "duration": 0.15,
        "velocity": 0.77,
        "hand": "right"
      },
      {
        "midi": 86,
        "time": 3.9,
        "duration": 0.15,
        "velocity": 0.92,
        "hand": "right"
      },
      {
        "midi": 91,
        "time": 4.05,
        "duration": 0.15,
        "velocity": 0.8,
        "hand": "right"
      },
      {
        "midi": 44,
        "time": 4.2,
        "duration": 0.15,
        "velocity": 0.63,
        "hand": "left"
      },
      {
        "midi": 69,
        "time": 4.2,
        "duration": 0.15,
        "velocity": 0.76,
        "hand": "right"
      },
      {
        "midi": 86,
        "time": 4.2,
        "duration": 0.15,
        "velocity": 0.92,
        "hand": "right"
      },
      {
        "midi": 44,
        "time": 4.5,
        "duration": 0.15,
        "velocity": 0.63,
        "hand": "left"
      },
      {
        "midi": 69,
        "time": 4.5,
        "duration": 0.15,
        "velocity": 0.73,
        "hand": "right"
      },
      {
        "midi": 83,
        "time": 4.5,
        "duration": 0.15,
        "velocity": 0.92,
        "hand": "right"
      },
      {
        "midi": 38,
        "time": 4.8,
        "duration": 0.9,
        "velocity": 0.63,
        "hand": "left"
      },
      {
        "midi": 51,
        "time": 4.8,
        "duration": 0.15,
        "velocity": 0.63,
        "hand": "left"
      },
      {
        "midi": 79,
        "time": 4.8,
        "duration": 2.4,
        "velocity": 0.92,
        "hand": "right"
      },
      {
        "midi": 44,
        "time": 5.1,
        "duration": 0.15,
        "velocity": 0.63,
        "hand": "left"
      },
      {
        "midi": 67,
        "time": 5.1,
        "duration": 0.6,
        "velocity": 1,
        "hand": "right"
      },
      {
        "midi": 74,
        "time": 5.1,
        "duration": 0.15,
        "velocity": 1,
        "hand": "right"
      },
      {
        "midi": 44,
        "time": 5.25,
        "duration": 0.15,
        "velocity": 0.63,
        "hand": "left"
      },
      {
        "midi": 71,
        "time": 5.25,
        "duration": 0.15,
        "velocity": 1,
        "hand": "right"
      },
      {
        "midi": 74,
        "time": 5.25,
        "duration": 0.15,
        "velocity": 0.99,
        "hand": "right"
      },
      {
        "midi": 44,
        "time": 5.4,
        "duration": 0.15,
        "velocity": 0.63,
        "hand": "left"
      },
      {
        "midi": 71,
        "time": 5.4,
        "duration": 0.15,
        "velocity": 0.94,
        "hand": "right"
      },
      {
        "midi": 74,
        "time": 5.4,
        "duration": 0.15,
        "velocity": 0.94,
        "hand": "right"
      },
      {
        "midi": 42,
        "time": 5.7,
        "duration": 0.15,
        "velocity": 0.63,
        "hand": "left"
      },
      {
        "midi": 66,
        "time": 5.7,
        "duration": 0.15,
        "velocity": 1,
        "hand": "right"
      },
      {
        "midi": 73,
        "time": 5.7,
        "duration": 0.15,
        "velocity": 1,
        "hand": "right"
      },
      {
        "midi": 38,
        "time": 6,
        "duration": 0.9,
        "velocity": 0.63,
        "hand": "left"
      },
      {
        "midi": 67,
        "time": 6,
        "duration": 0.15,
        "velocity": 1,
        "hand": "right"
      },
      {
        "midi": 74,
        "time": 6,
        "duration": 0.15,
        "velocity": 1,
        "hand": "right"
      },
      {
        "midi": 44,
        "time": 6.3,
        "duration": 0.15,
        "velocity": 0.63,
        "hand": "left"
      },
      {
        "midi": 67,
        "time": 6.3,
        "duration": 0.45,
        "velocity": 1,
        "hand": "right"
      },
      {
        "midi": 74,
        "time": 6.3,
        "duration": 0.15,
        "velocity": 1,
        "hand": "right"
      },
      {
        "midi": 44,
        "time": 6.45,
        "duration": 0.15,
        "velocity": 0.63,
        "hand": "left"
      },
      {
        "midi": 71,
        "time": 6.45,
        "duration": 0.15,
        "velocity": 0.85,
        "hand": "right"
      },
      {
        "midi": 74,
        "time": 6.45,
        "duration": 0.15,
        "velocity": 0.76,
        "hand": "right"
      },
      {
        "midi": 44,
        "time": 6.6,
        "duration": 0.15,
        "velocity": 0.63,
        "hand": "left"
      },
      {
        "midi": 71,
        "time": 6.6,
        "duration": 0.15,
        "velocity": 1,
        "hand": "right"
      },
      {
        "midi": 74,
        "time": 6.6,
        "duration": 0.15,
        "velocity": 1,
        "hand": "right"
      },
      {
        "midi": 42,
        "time": 6.9,
        "duration": 0.15,
        "velocity": 0.63,
        "hand": "left"
      },
      {
        "midi": 66,
        "time": 6.9,
        "duration": 0.15,
        "velocity": 1,
        "hand": "right"
      },
      {
        "midi": 73,
        "time": 6.9,
        "duration": 0.15,
        "velocity": 1,
        "hand": "right"
      },
      {
        "midi": 38,
        "time": 7.2,
        "duration": 0.15,
        "velocity": 0.63,
        "hand": "left"
      },
      {
        "midi": 67,
        "time": 7.2,
        "duration": 0.15,
        "velocity": 0.99,
        "hand": "right"
      },
      {
        "midi": 74,
        "time": 7.2,
        "duration": 0.15,
        "velocity": 1,
        "hand": "right"
      },
      {
        "midi": 42,
        "time": 7.5,
        "duration": 0.15,
        "velocity": 0.63,
        "hand": "left"
      },
      {
        "midi": 67,
        "time": 7.5,
        "duration": 0.15,
        "velocity": 1,
        "hand": "right"
      },
      {
        "midi": 74,
        "time": 7.5,
        "duration": 0.15,
        "velocity": 0.97,
        "hand": "right"
      },
      {
        "midi": 46,
        "time": 7.65,
        "duration": 0.15,
        "velocity": 0.63,
        "hand": "left"
      },
      {
        "midi": 67,
        "time": 7.65,
        "duration": 0.15,
        "velocity": 0.55,
        "hand": "right"
      },
      {
        "midi": 73,
        "time": 7.65,
        "duration": 0.15,
        "velocity": 0.89,
        "hand": "right"
      },
      {
        "midi": 38,
        "time": 7.8,
        "duration": 0.15,
        "velocity": 0.63,
        "hand": "left"
      },
      {
        "midi": 67,
        "time": 7.8,
        "duration": 0.15,
        "velocity": 1,
        "hand": "right"
      },
      {
        "midi": 74,
        "time": 7.8,
        "duration": 0.15,
        "velocity": 0.89,
        "hand": "right"
      },
      {
        "midi": 42,
        "time": 8.1,
        "duration": 0.15,
        "velocity": 0.63,
        "hand": "left"
      },
      {
        "midi": 67,
        "time": 8.1,
        "duration": 0.15,
        "velocity": 0.87,
        "hand": "right"
      },
      {
        "midi": 76,
        "time": 8.1,
        "duration": 0.15,
        "velocity": 0.99,
        "hand": "right"
      },
      {
        "midi": 66,
        "time": 8.25,
        "duration": 0.15,
        "velocity": 1,
        "hand": "right"
      },
      {
        "midi": 38,
        "time": 8.4,
        "duration": 0.15,
        "velocity": 0.63,
        "hand": "left"
      },
      {
        "midi": 67,
        "time": 8.4,
        "duration": 0.75,
        "velocity": 1,
        "hand": "right"
      },
      {
        "midi": 74,
        "time": 8.4,
        "duration": 0.6,
        "velocity": 1,
        "hand": "right"
      },
      {
        "midi": 44,
        "time": 8.7,
        "duration": 0.15,
        "velocity": 0.63,
        "hand": "left"
      },
      {
        "midi": 62,
        "time": 8.7,
        "duration": 0.3,
        "velocity": 0.99,
        "hand": "right"
      },
      {
        "midi": 95,
        "time": 8.7,
        "duration": 0.15,
        "velocity": 0.76,
        "hand": "right"
      },
      {
        "midi": 60,
        "time": 8.85,
        "duration": 0.15,
        "velocity": 0.63,
        "hand": "right"
      },
      {
        "midi": 91,
        "time": 8.85,
        "duration": 0.15,
        "velocity": 0.91,
        "hand": "right"
      },
      {
        "midi": 44,
        "time": 9,
        "duration": 0.15,
        "velocity": 0.63,
        "hand": "left"
      },
      {
        "midi": 62,
        "time": 9,
        "duration": 0.3,
        "velocity": 0.79,
        "hand": "right"
      },
      {
        "midi": 86,
        "time": 9,
        "duration": 0.15,
        "velocity": 0.92,
        "hand": "right"
      },
      {
        "midi": 44,
        "time": 9.3,
        "duration": 0.15,
        "velocity": 0.63,
        "hand": "left"
      },
      {
        "midi": 62,
        "time": 9.3,
        "duration": 0.15,
        "velocity": 0.63,
        "hand": "right"
      },
      {
        "midi": 91,
        "time": 9.3,
        "duration": 0.3,
        "velocity": 0.92,
        "hand": "right"
      },
      {
        "midi": 38,
        "time": 9.6,
        "duration": 0.15,
        "velocity": 0.63,
        "hand": "left"
      },
      {
        "midi": 60,
        "time": 9.6,
        "duration": 1.5,
        "velocity": 0.79,
        "hand": "right"
      },
      {
        "midi": 90,
        "time": 9.6,
        "duration": 1.35,
        "velocity": 0.92,
        "hand": "right"
      },
      {
        "midi": 42,
        "time": 9.9,
        "duration": 0.15,
        "velocity": 0.63,
        "hand": "left"
      },
      {
        "midi": 66,
        "time": 9.9,
        "duration": 0.15,
        "velocity": 0.94,
        "hand": "right"
      },
      {
        "midi": 74,
        "time": 9.9,
        "duration": 0.15,
        "velocity": 0.94,
        "hand": "right"
      },
      {
        "midi": 66,
        "time": 10.05,
        "duration": 0.15,
        "velocity": 0.68,
        "hand": "right"
      },
      {
        "midi": 72,
        "time": 10.05,
        "duration": 0.15,
        "velocity": 1,
        "hand": "right"
      },
      {
        "midi": 74,
        "time": 10.05,
        "duration": 0.15,
        "velocity": 0.87,
        "hand": "right"
      },
      {
        "midi": 38,
        "time": 10.2,
        "duration": 0.6,
        "velocity": 1,
        "hand": "left"
      },
      {
        "midi": 66,
        "time": 10.2,
        "duration": 0.15,
        "velocity": 0.85,
        "hand": "right"
      },
      {
        "midi": 74,
        "time": 10.2,
        "duration": 0.15,
        "velocity": 1,
        "hand": "right"
      },
      {
        "midi": 42,
        "time": 10.5,
        "duration": 0.15,
        "velocity": 0.63,
        "hand": "left"
      },
      {
        "midi": 66,
        "time": 10.5,
        "duration": 0.15,
        "velocity": 1,
        "hand": "right"
      },
      {
        "midi": 76,
        "time": 10.5,
        "duration": 0.15,
        "velocity": 1,
        "hand": "right"
      },
      {
        "midi": 38,
        "time": 10.8,
        "duration": 0.3,
        "velocity": 0.63,
        "hand": "left"
      },
      {
        "midi": 51,
        "time": 10.8,
        "duration": 0.9,
        "velocity": 0.63,
        "hand": "left"
      },
      {
        "midi": 74,
        "time": 10.8,
        "duration": 0.3,
        "velocity": 1,
        "hand": "right"
      },
      {
        "midi": 42,
        "time": 11.1,
        "duration": 0.15,
        "velocity": 0.63,
        "hand": "left"
      },
      {
        "midi": 64,
        "time": 11.1,
        "duration": 0.3,
        "velocity": 0.79,
        "hand": "right"
      },
      {
        "midi": 96,
        "time": 11.1,
        "duration": 0.15,
        "velocity": 0.92,
        "hand": "right"
      },
      {
        "midi": 71,
        "time": 11.25,
        "duration": 0.15,
        "velocity": 0.63,
        "hand": "right"
      },
      {
        "midi": 95,
        "time": 11.25,
        "duration": 0.15,
        "velocity": 0.62,
        "hand": "right"
      },
      {
        "midi": 38,
        "time": 11.4,
        "duration": 0.3,
        "velocity": 0.63,
        "hand": "left"
      },
      {
        "midi": 71,
        "time": 11.4,
        "duration": 0.15,
        "velocity": 0.63,
        "hand": "right"
      },
      {
        "midi": 97,
        "time": 11.4,
        "duration": 0.15,
        "velocity": 0.65,
        "hand": "right"
      },
      {
        "midi": 42,
        "time": 11.7,
        "duration": 0.15,
        "velocity": 0.63,
        "hand": "left"
      },
      {
        "midi": 60,
        "time": 11.7,
        "duration": 0.3,
        "velocity": 0.79,
        "hand": "right"
      },
      {
        "midi": 90,
        "time": 11.7,
        "duration": 0.3,
        "velocity": 0.92,
        "hand": "right"
      },
      {
        "midi": 44,
        "time": 11.85,
        "duration": 0.15,
        "velocity": 0.63,
        "hand": "left"
      },
      {
        "midi": 46,
        "time": 11.85,
        "duration": 0.15,
        "velocity": 0.63,
        "hand": "left"
      },
      {
        "midi": 38,
        "time": 12,
        "duration": 0.15,
        "velocity": 0.63,
        "hand": "left"
      },
      {
        "midi": 59,
        "time": 12,
        "duration": 1.35,
        "velocity": 0.79,
        "hand": "left"
      },
      {
        "midi": 93,
        "time": 12,
        "duration": 0.15,
        "velocity": 0.84,
        "hand": "right"
      },
      {
        "midi": 67,
        "time": 12.15,
        "duration": 0.15,
        "velocity": 0.63,
        "hand": "right"
      },
      {
        "midi": 91,
        "time": 12.15,
        "duration": 0.15,
        "velocity": 0.77,
        "hand": "right"
      },
      {
        "midi": 93,
        "time": 12.15,
        "duration": 0.15,
        "velocity": 0.8,
        "hand": "right"
      },
      {
        "midi": 42,
        "time": 12.3,
        "duration": 0.15,
        "velocity": 0.63,
        "hand": "left"
      },
      {
        "midi": 67,
        "time": 12.3,
        "duration": 0.3,
        "velocity": 0.63,
        "hand": "right"
      },
      {
        "midi": 91,
        "time": 12.3,
        "duration": 0.3,
        "velocity": 0.89,
        "hand": "right"
      },
      {
        "midi": 67,
        "time": 12.45,
        "duration": 0.15,
        "velocity": 0.83,
        "hand": "right"
      },
      {
        "midi": 71,
        "time": 12.45,
        "duration": 0.15,
        "velocity": 0.94,
        "hand": "right"
      },
      {
        "midi": 74,
        "time": 12.45,
        "duration": 0.15,
        "velocity": 0.94,
        "hand": "right"
      },
      {
        "midi": 38,
        "time": 12.6,
        "duration": 0.6,
        "velocity": 1,
        "hand": "left"
      },
      {
        "midi": 67,
        "time": 12.6,
        "duration": 0.15,
        "velocity": 1,
        "hand": "right"
      },
      {
        "midi": 85,
        "time": 12.6,
        "duration": 0.15,
        "velocity": 0.81,
        "hand": "right"
      },
      {
        "midi": 42,
        "time": 12.9,
        "duration": 0.15,
        "velocity": 0.63,
        "hand": "left"
      },
      {
        "midi": 67,
        "time": 12.9,
        "duration": 0.15,
        "velocity": 1,
        "hand": "right"
      },
      {
        "midi": 73,
        "time": 12.9,
        "duration": 0.15,
        "velocity": 1,
        "hand": "right"
      },
      {
        "midi": 38,
        "time": 13.2,
        "duration": 0.15,
        "velocity": 0.63,
        "hand": "left"
      },
      {
        "midi": 51,
        "time": 13.2,
        "duration": 0.9,
        "velocity": 0.63,
        "hand": "left"
      },
      {
        "midi": 74,
        "time": 13.2,
        "duration": 0.45,
        "velocity": 1,
        "hand": "right"
      },
      {
        "midi": 60,
        "time": 13.35,
        "duration": 0.15,
        "velocity": 0.79,
        "hand": "right"
      },
      {
        "midi": 42,
        "time": 13.5,
        "duration": 0.15,
        "velocity": 0.63,
        "hand": "left"
      },
      {
        "midi": 60,
        "time": 13.5,
        "duration": 0.3,
        "velocity": 0.63,
        "hand": "right"
      },
      {
        "midi": 84,
        "time": 13.5,
        "duration": 0.15,
        "velocity": 0.92,
        "hand": "right"
      },
      {
        "midi": 62,
        "time": 13.65,
        "duration": 0.15,
        "velocity": 0.79,
        "hand": "right"
      },
      {
        "midi": 85,
        "time": 13.65,
        "duration": 0.15,
        "velocity": 0.81,
        "hand": "right"
      },
      {
        "midi": 38,
        "time": 13.8,
        "duration": 0.3,
        "velocity": 0.63,
        "hand": "left"
      },
      {
        "midi": 62,
        "time": 13.8,
        "duration": 0.45,
        "velocity": 1,
        "hand": "right"
      },
      {
        "midi": 88,
        "time": 13.8,
        "duration": 0.15,
        "velocity": 0.91,
        "hand": "right"
      },
      {
        "midi": 86,
        "time": 13.95,
        "duration": 0.15,
        "velocity": 0.92,
        "hand": "right"
      },
      {
        "midi": 42,
        "time": 14.1,
        "duration": 0.15,
        "velocity": 0.63,
        "hand": "left"
      },
      {
        "midi": 64,
        "time": 14.1,
        "duration": 0.3,
        "velocity": 0.63,
        "hand": "right"
      },
      {
        "midi": 88,
        "time": 14.1,
        "duration": 0.15,
        "velocity": 0.5,
        "hand": "right"
      },
      {
        "midi": 44,
        "time": 14.25,
        "duration": 0.15,
        "velocity": 0.63,
        "hand": "left"
      },
      {
        "midi": 46,
        "time": 14.25,
        "duration": 0.15,
        "velocity": 0.63,
        "hand": "left"
      },
      {
        "midi": 38,
        "time": 14.4,
        "duration": 0.15,
        "velocity": 0.63,
        "hand": "left"
      },
      {
        "midi": 66,
        "time": 14.4,
        "duration": 0.15,
        "velocity": 0.89,
        "hand": "right"
      },
      {
        "midi": 84,
        "time": 14.4,
        "duration": 0.3,
        "velocity": 0.92,
        "hand": "right"
      },
      {
        "midi": 42,
        "time": 14.7,
        "duration": 0.15,
        "velocity": 0.63,
        "hand": "left"
      },
      {
        "midi": 66,
        "time": 14.7,
        "duration": 0.15,
        "velocity": 0.92,
        "hand": "right"
      },
      {
        "midi": 81,
        "time": 14.7,
        "duration": 0.15,
        "velocity": 0.92,
        "hand": "right"
      },
      {
        "midi": 66,
        "time": 14.85,
        "duration": 0.15,
        "velocity": 0.63,
        "hand": "right"
      },
      {
        "midi": 72,
        "time": 14.85,
        "duration": 0.15,
        "velocity": 0.96,
        "hand": "right"
      },
      {
        "midi": 74,
        "time": 14.85,
        "duration": 0.15,
        "velocity": 0.83,
        "hand": "right"
      },
      {
        "midi": 38,
        "time": 15,
        "duration": 0.6,
        "velocity": 1,
        "hand": "left"
      },
      {
        "midi": 57,
        "time": 15,
        "duration": 0.6,
        "velocity": 0.81,
        "hand": "left"
      },
      {
        "midi": 76,
        "time": 15,
        "duration": 0.3,
        "velocity": 0.92,
        "hand": "right"
      },
      {
        "midi": 42,
        "time": 15.3,
        "duration": 0.15,
        "velocity": 0.63,
        "hand": "left"
      },
      {
        "midi": 62,
        "time": 15.3,
        "duration": 0.15,
        "velocity": 1,
        "hand": "right"
      },
      {
        "midi": 78,
        "time": 15.3,
        "duration": 0.3,
        "velocity": 0.92,
        "hand": "right"
      },
      {
        "midi": 38,
        "time": 15.6,
        "duration": 0.3,
        "velocity": 0.63,
        "hand": "left"
      },
      {
        "midi": 64,
        "time": 15.6,
        "duration": 0.3,
        "velocity": 0.89,
        "hand": "right"
      },
      {
        "midi": 83,
        "time": 15.6,
        "duration": 0.45,
        "velocity": 0.91,
        "hand": "right"
      },
      {
        "midi": 38,
        "time": 15.9,
        "duration": 0.15,
        "velocity": 1,
        "hand": "left"
      },
      {
        "midi": 50,
        "time": 15.9,
        "duration": 0.15,
        "velocity": 1,
        "hand": "left"
      },
      {
        "midi": 59,
        "time": 15.9,
        "duration": 0.45,
        "velocity": 0.63,
        "hand": "left"
      },
      {
        "midi": 38,
        "time": 16.2,
        "duration": 0.3,
        "velocity": 0.63,
        "hand": "left"
      },
      {
        "midi": 66,
        "time": 16.2,
        "duration": 0.3,
        "velocity": 1,
        "hand": "right"
      },
      {
        "midi": 84,
        "time": 16.2,
        "duration": 0.15,
        "velocity": 0.81,
        "hand": "right"
      },
      {
        "midi": 42,
        "time": 16.5,
        "duration": 0.15,
        "velocity": 1,
        "hand": "left"
      },
      {
        "midi": 57,
        "time": 16.5,
        "duration": 0.15,
        "velocity": 0.63,
        "hand": "left"
      },
      {
        "midi": 60,
        "time": 16.5,
        "duration": 0.3,
        "velocity": 0.79,
        "hand": "right"
      },
      {
        "midi": 44,
        "time": 16.65,
        "duration": 0.15,
        "velocity": 0.63,
        "hand": "left"
      },
      {
        "midi": 38,
        "time": 16.8,
        "duration": 0.3,
        "velocity": 0.63,
        "hand": "left"
      },
      {
        "midi": 55,
        "time": 16.8,
        "duration": 0.6,
        "velocity": 0.99,
        "hand": "left"
      },
      {
        "midi": 79,
        "time": 16.8,
        "duration": 1.2,
        "velocity": 0.92,
        "hand": "right"
      },
      {
        "midi": 42,
        "time": 17.1,
        "duration": 0.15,
        "velocity": 0.63,
        "hand": "left"
      },
      {
        "midi": 62,
        "time": 17.1,
        "duration": 0.15,
        "velocity": 1,
        "hand": "right"
      },
      {
        "midi": 71,
        "time": 17.1,
        "duration": 0.15,
        "velocity": 0.94,
        "hand": "right"
      },
      {
        "midi": 62,
        "time": 17.25,
        "duration": 0.15,
        "velocity": 0.68,
        "hand": "right"
      },
      {
        "midi": 67,
        "time": 17.25,
        "duration": 0.15,
        "velocity": 0.94,
        "hand": "right"
      },
      {
        "midi": 71,
        "time": 17.25,
        "duration": 0.15,
        "velocity": 0.81,
        "hand": "right"
      },
      {
        "midi": 38,
        "time": 17.4,
        "duration": 0.45,
        "velocity": 1,
        "hand": "left"
      },
      {
        "midi": 50,
        "time": 17.4,
        "duration": 0.3,
        "velocity": 0.85,
        "hand": "left"
      },
      {
        "midi": 71,
        "time": 17.4,
        "duration": 0.15,
        "velocity": 0.85,
        "hand": "right"
      },
      {
        "midi": 42,
        "time": 17.7,
        "duration": 0.15,
        "velocity": 0.63,
        "hand": "left"
      },
      {
        "midi": 64,
        "time": 17.7,
        "duration": 0.15,
        "velocity": 0.89,
        "hand": "right"
      },
      {
        "midi": 72,
        "time": 17.7,
        "duration": 0.15,
        "velocity": 1,
        "hand": "right"
      },
      {
        "midi": 38,
        "time": 18,
        "duration": 0.15,
        "velocity": 0.63,
        "hand": "left"
      },
      {
        "midi": 62,
        "time": 18,
        "duration": 0.3,
        "velocity": 0.94,
        "hand": "right"
      },
      {
        "midi": 86,
        "time": 18,
        "duration": 1.05,
        "velocity": 0.63,
        "hand": "right"
      },
      {
        "midi": 46,
        "time": 18.3,
        "duration": 0.15,
        "velocity": 0.63,
        "hand": "left"
      },
      {
        "midi": 38,
        "time": 18.6,
        "duration": 0.3,
        "velocity": 0.63,
        "hand": "left"
      },
      {
        "midi": 62,
        "time": 18.6,
        "duration": 0.15,
        "velocity": 1,
        "hand": "right"
      },
      {
        "midi": 69,
        "time": 18.6,
        "duration": 0.15,
        "velocity": 0.97,
        "hand": "right"
      },
      {
        "midi": 44,
        "time": 18.75,
        "duration": 0.15,
        "velocity": 0.63,
        "hand": "left"
      },
      {
        "midi": 46,
        "time": 18.75,
        "duration": 0.15,
        "velocity": 0.63,
        "hand": "left"
      },
      {
        "midi": 44,
        "time": 18.9,
        "duration": 0.15,
        "velocity": 0.63,
        "hand": "left"
      },
      {
        "midi": 46,
        "time": 18.9,
        "duration": 0.15,
        "velocity": 0.63,
        "hand": "left"
      },
      {
        "midi": 44,
        "time": 19.05,
        "duration": 0.15,
        "velocity": 0.63,
        "hand": "left"
      },
      {
        "midi": 46,
        "time": 19.05,
        "duration": 0.15,
        "velocity": 0.63,
        "hand": "left"
      },
      {
        "midi": 38,
        "time": 19.2,
        "duration": 0.15,
        "velocity": 0.63,
        "hand": "left"
      },
      {
        "midi": 59,
        "time": 19.2,
        "duration": 1.5,
        "velocity": 0.63,
        "hand": "left"
      },
      {
        "midi": 79,
        "time": 19.2,
        "duration": 1.05,
        "velocity": 0.79,
        "hand": "right"
      },
      {
        "midi": 42,
        "time": 19.5,
        "duration": 0.15,
        "velocity": 0.63,
        "hand": "left"
      },
      {
        "midi": 59,
        "time": 19.5,
        "duration": 0.15,
        "velocity": 0.77,
        "hand": "left"
      },
      {
        "midi": 67,
        "time": 19.5,
        "duration": 0.15,
        "velocity": 0.89,
        "hand": "right"
      },
      {
        "midi": 59,
        "time": 19.65,
        "duration": 0.15,
        "velocity": 0.38,
        "hand": "left"
      },
      {
        "midi": 62,
        "time": 19.65,
        "duration": 0.15,
        "velocity": 0.47,
        "hand": "right"
      },
      {
        "midi": 67,
        "time": 19.65,
        "duration": 0.15,
        "velocity": 0.72,
        "hand": "right"
      },
      {
        "midi": 38,
        "time": 19.8,
        "duration": 0.3,
        "velocity": 0.91,
        "hand": "left"
      },
      {
        "midi": 44,
        "time": 19.8,
        "duration": 0.15,
        "velocity": 0.63,
        "hand": "left"
      },
      {
        "midi": 50,
        "time": 19.8,
        "duration": 0.6,
        "velocity": 0.7,
        "hand": "left"
      },
      {
        "midi": 42,
        "time": 20.1,
        "duration": 0.15,
        "velocity": 0.63,
        "hand": "left"
      },
      {
        "midi": 62,
        "time": 20.1,
        "duration": 0.15,
        "velocity": 0.94,
        "hand": "right"
      },
      {
        "midi": 83,
        "time": 20.1,
        "duration": 0.3,
        "velocity": 0.81,
        "hand": "right"
      },
      {
        "midi": 38,
        "time": 20.4,
        "duration": 0.15,
        "velocity": 0.63,
        "hand": "left"
      },
      {
        "midi": 62,
        "time": 20.4,
        "duration": 0.15,
        "velocity": 0.68,
        "hand": "right"
      },
      {
        "midi": 86,
        "time": 20.4,
        "duration": 0.15,
        "velocity": 0.81,
        "hand": "right"
      },
      {
        "midi": 42,
        "time": 20.7,
        "duration": 0.15,
        "velocity": 0.63,
        "hand": "left"
      },
      {
        "midi": 60,
        "time": 20.7,
        "duration": 0.3,
        "velocity": 0.63,
        "hand": "right"
      },
      {
        "midi": 86,
        "time": 20.7,
        "duration": 0.15,
        "velocity": 0.85,
        "hand": "right"
      },
      {
        "midi": 38,
        "time": 21,
        "duration": 0.3,
        "velocity": 1,
        "hand": "left"
      },
      {
        "midi": 61,
        "time": 21,
        "duration": 0.3,
        "velocity": 0.63,
        "hand": "right"
      },
      {
        "midi": 86,
        "time": 21,
        "duration": 0.3,
        "velocity": 0.89,
        "hand": "right"
      },
      {
        "midi": 42,
        "time": 21.3,
        "duration": 0.15,
        "velocity": 0.63,
        "hand": "left"
      },
      {
        "midi": 62,
        "time": 21.3,
        "duration": 0.15,
        "velocity": 0.81,
        "hand": "right"
      },
      {
        "midi": 88,
        "time": 21.3,
        "duration": 0.3,
        "velocity": 0.68,
        "hand": "right"
      },
      {
        "midi": 74,
        "time": 21.45,
        "duration": 0.15,
        "velocity": 0.94,
        "hand": "right"
      },
      {
        "midi": 86,
        "time": 21.45,
        "duration": 0.15,
        "velocity": 0.94,
        "hand": "right"
      },
      {
        "midi": 38,
        "time": 21.6,
        "duration": 0.3,
        "velocity": 0.63,
        "hand": "left"
      },
      {
        "midi": 67,
        "time": 21.6,
        "duration": 0.15,
        "velocity": 1,
        "hand": "right"
      },
      {
        "midi": 88,
        "time": 21.6,
        "duration": 0.15,
        "velocity": 0.68,
        "hand": "right"
      },
      {
        "midi": 42,
        "time": 21.9,
        "duration": 0.15,
        "velocity": 0.63,
        "hand": "left"
      },
      {
        "midi": 62,
        "time": 21.9,
        "duration": 0.15,
        "velocity": 1,
        "hand": "right"
      },
      {
        "midi": 79,
        "time": 21.9,
        "duration": 0.15,
        "velocity": 0.69,
        "hand": "right"
      },
      {
        "midi": 59,
        "time": 22.05,
        "duration": 0.15,
        "velocity": 0.72,
        "hand": "left"
      },
      {
        "midi": 67,
        "time": 22.05,
        "duration": 0.15,
        "velocity": 0.92,
        "hand": "right"
      },
      {
        "midi": 74,
        "time": 22.05,
        "duration": 0.15,
        "velocity": 0.77,
        "hand": "right"
      },
      {
        "midi": 38,
        "time": 22.2,
        "duration": 0.3,
        "velocity": 1,
        "hand": "left"
      },
      {
        "midi": 59,
        "time": 22.2,
        "duration": 0.15,
        "velocity": 0.77,
        "hand": "left"
      },
      {
        "midi": 71,
        "time": 22.2,
        "duration": 0.15,
        "velocity": 0.62,
        "hand": "right"
      },
      {
        "midi": 42,
        "time": 22.5,
        "duration": 0.15,
        "velocity": 0.63,
        "hand": "left"
      },
      {
        "midi": 67,
        "time": 22.5,
        "duration": 0.15,
        "velocity": 1,
        "hand": "right"
      },
      {
        "midi": 83,
        "time": 22.5,
        "duration": 0.3,
        "velocity": 0.94,
        "hand": "right"
      },
      {
        "midi": 67,
        "time": 22.65,
        "duration": 0.6,
        "velocity": 0.87,
        "hand": "right"
      },
      {
        "midi": 38,
        "time": 22.8,
        "duration": 0.15,
        "velocity": 0.63,
        "hand": "left"
      },
      {
        "midi": 62,
        "time": 22.8,
        "duration": 0.15,
        "velocity": 0.99,
        "hand": "right"
      },
      {
        "midi": 79,
        "time": 22.8,
        "duration": 1.05,
        "velocity": 1,
        "hand": "right"
      },
      {
        "midi": 55,
        "time": 22.95,
        "duration": 0.3,
        "velocity": 0.92,
        "hand": "left"
      },
      {
        "midi": 42,
        "time": 23.1,
        "duration": 0.15,
        "velocity": 0.63,
        "hand": "left"
      },
      {
        "midi": 59,
        "time": 23.1,
        "duration": 0.15,
        "velocity": 0.87,
        "hand": "left"
      },
      {
        "midi": 67,
        "time": 23.1,
        "duration": 0.15,
        "velocity": 0.97,
        "hand": "right"
      },
      {
        "midi": 38,
        "time": 23.4,
        "duration": 0.3,
        "velocity": 1,
        "hand": "left"
      },
      {
        "midi": 59,
        "time": 23.4,
        "duration": 0.15,
        "velocity": 1,
        "hand": "left"
      },
      {
        "midi": 67,
        "time": 23.4,
        "duration": 0.15,
        "velocity": 1,
        "hand": "right"
      },
      {
        "midi": 42,
        "time": 23.7,
        "duration": 0.15,
        "velocity": 0.63,
        "hand": "left"
      },
      {
        "midi": 55,
        "time": 23.7,
        "duration": 0.3,
        "velocity": 0.7,
        "hand": "left"
      },
      {
        "midi": 67,
        "time": 23.7,
        "duration": 0.15,
        "velocity": 0.99,
        "hand": "right"
      },
      {
        "midi": 38,
        "time": 24,
        "duration": 0.3,
        "velocity": 0.63,
        "hand": "left"
      },
      {
        "midi": 62,
        "time": 24,
        "duration": 0.15,
        "velocity": 1,
        "hand": "right"
      },
      {
        "midi": 79,
        "time": 24,
        "duration": 0.9,
        "velocity": 0.97,
        "hand": "right"
      },
      {
        "midi": 42,
        "time": 24.3,
        "duration": 0.15,
        "velocity": 0.63,
        "hand": "left"
      },
      {
        "midi": 59,
        "time": 24.3,
        "duration": 0.15,
        "velocity": 0.99,
        "hand": "left"
      },
      {
        "midi": 67,
        "time": 24.3,
        "duration": 0.15,
        "velocity": 0.97,
        "hand": "right"
      },
      {
        "midi": 59,
        "time": 24.45,
        "duration": 0.15,
        "velocity": 0.57,
        "hand": "left"
      },
      {
        "midi": 62,
        "time": 24.45,
        "duration": 0.15,
        "velocity": 0.85,
        "hand": "right"
      },
      {
        "midi": 67,
        "time": 24.45,
        "duration": 0.15,
        "velocity": 0.85,
        "hand": "right"
      },
      {
        "midi": 38,
        "time": 24.6,
        "duration": 0.3,
        "velocity": 1,
        "hand": "left"
      },
      {
        "midi": 59,
        "time": 24.6,
        "duration": 0.15,
        "velocity": 0.81,
        "hand": "left"
      },
      {
        "midi": 67,
        "time": 24.6,
        "duration": 0.15,
        "velocity": 0.97,
        "hand": "right"
      },
      {
        "midi": 42,
        "time": 24.9,
        "duration": 0.15,
        "velocity": 0.63,
        "hand": "left"
      },
      {
        "midi": 61,
        "time": 24.9,
        "duration": 0.3,
        "velocity": 0.63,
        "hand": "right"
      },
      {
        "midi": 83,
        "time": 24.9,
        "duration": 0.3,
        "velocity": 0.81,
        "hand": "right"
      },
      {
        "midi": 38,
        "time": 25.2,
        "duration": 0.15,
        "velocity": 0.63,
        "hand": "left"
      },
      {
        "midi": 62,
        "time": 25.2,
        "duration": 0.15,
        "velocity": 1,
        "hand": "right"
      },
      {
        "midi": 86,
        "time": 25.2,
        "duration": 0.15,
        "velocity": 0.89,
        "hand": "right"
      },
      {
        "midi": 42,
        "time": 25.5,
        "duration": 0.15,
        "velocity": 0.63,
        "hand": "left"
      },
      {
        "midi": 62,
        "time": 25.5,
        "duration": 0.15,
        "velocity": 1,
        "hand": "right"
      },
      {
        "midi": 86,
        "time": 25.5,
        "duration": 0.45,
        "velocity": 0.91,
        "hand": "right"
      },
      {
        "midi": 38,
        "time": 25.8,
        "duration": 0.3,
        "velocity": 1,
        "hand": "left"
      },
      {
        "midi": 59,
        "time": 25.8,
        "duration": 0.15,
        "velocity": 1,
        "hand": "left"
      },
      {
        "midi": 84,
        "time": 25.8,
        "duration": 0.3,
        "velocity": 0.91,
        "hand": "right"
      },
      {
        "midi": 71,
        "time": 25.95,
        "duration": 0.3,
        "velocity": 0.79,
        "hand": "right"
      },
      {
        "midi": 83,
        "time": 25.95,
        "duration": 0.3,
        "velocity": 0.79,
        "hand": "right"
      },
      {
        "midi": 42,
        "time": 26.1,
        "duration": 0.15,
        "velocity": 0.63,
        "hand": "left"
      },
      {
        "midi": 59,
        "time": 26.1,
        "duration": 0.15,
        "velocity": 0.97,
        "hand": "left"
      },
      {
        "midi": 67,
        "time": 26.1,
        "duration": 0.15,
        "velocity": 1,
        "hand": "right"
      },
      {
        "midi": 44,
        "time": 26.25,
        "duration": 0.15,
        "velocity": 0.63,
        "hand": "left"
      },
      {
        "midi": 46,
        "time": 26.25,
        "duration": 0.15,
        "velocity": 0.63,
        "hand": "left"
      },
      {
        "midi": 56,
        "time": 26.25,
        "duration": 0.15,
        "velocity": 0.63,
        "hand": "left"
      },
      {
        "midi": 38,
        "time": 26.4,
        "duration": 0.15,
        "velocity": 0.63,
        "hand": "left"
      },
      {
        "midi": 62,
        "time": 26.4,
        "duration": 0.15,
        "velocity": 1,
        "hand": "right"
      },
      {
        "midi": 81,
        "time": 26.4,
        "duration": 0.15,
        "velocity": 0.81,
        "hand": "right"
      },
      {
        "midi": 42,
        "time": 26.7,
        "duration": 0.15,
        "velocity": 0.63,
        "hand": "left"
      },
      {
        "midi": 62,
        "time": 26.7,
        "duration": 0.15,
        "velocity": 0.63,
        "hand": "right"
      },
      {
        "midi": 86,
        "time": 26.7,
        "duration": 0.15,
        "velocity": 0.89,
        "hand": "right"
      },
      {
        "midi": 54,
        "time": 26.85,
        "duration": 0.15,
        "velocity": 1,
        "hand": "left"
      },
      {
        "midi": 64,
        "time": 26.85,
        "duration": 0.15,
        "velocity": 0.94,
        "hand": "right"
      },
      {
        "midi": 86,
        "time": 26.85,
        "duration": 0.15,
        "velocity": 0.85,
        "hand": "right"
      },
      {
        "midi": 38,
        "time": 27,
        "duration": 0.3,
        "velocity": 1,
        "hand": "left"
      },
      {
        "midi": 44,
        "time": 27,
        "duration": 0.15,
        "velocity": 0.63,
        "hand": "left"
      },
      {
        "midi": 62,
        "time": 27,
        "duration": 0.15,
        "velocity": 0.94,
        "hand": "right"
      },
      {
        "midi": 42,
        "time": 27.3,
        "duration": 0.15,
        "velocity": 0.63,
        "hand": "left"
      },
      {
        "midi": 62,
        "time": 27.3,
        "duration": 0.15,
        "velocity": 0.94,
        "hand": "right"
      },
      {
        "midi": 86,
        "time": 27.3,
        "duration": 0.15,
        "velocity": 1,
        "hand": "right"
      },
      {
        "midi": 61,
        "time": 27.45,
        "duration": 0.15,
        "velocity": 0.94,
        "hand": "right"
      },
      {
        "midi": 64,
        "time": 27.45,
        "duration": 0.15,
        "velocity": 0.63,
        "hand": "right"
      },
      {
        "midi": 78,
        "time": 27.45,
        "duration": 0.3,
        "velocity": 0.92,
        "hand": "right"
      },
      {
        "midi": 38,
        "time": 27.6,
        "duration": 0.15,
        "velocity": 0.63,
        "hand": "left"
      },
      {
        "midi": 60,
        "time": 27.6,
        "duration": 0.6,
        "velocity": 0.94,
        "hand": "right"
      },
      {
        "midi": 86,
        "time": 27.6,
        "duration": 0.3,
        "velocity": 0.97,
        "hand": "right"
      },
      {
        "midi": 57,
        "time": 27.75,
        "duration": 0.15,
        "velocity": 0.99,
        "hand": "left"
      },
      {
        "midi": 62,
        "time": 27.75,
        "duration": 0.15,
        "velocity": 1,
        "hand": "right"
      },
      {
        "midi": 66,
        "time": 27.75,
        "duration": 0.15,
        "velocity": 1,
        "hand": "right"
      },
      {
        "midi": 42,
        "time": 27.9,
        "duration": 0.15,
        "velocity": 0.63,
        "hand": "left"
      },
      {
        "midi": 69,
        "time": 27.9,
        "duration": 0.15,
        "velocity": 0.63,
        "hand": "right"
      },
      {
        "midi": 90,
        "time": 27.9,
        "duration": 0.6,
        "velocity": 0.89,
        "hand": "right"
      },
      {
        "midi": 67,
        "time": 28.05,
        "duration": 0.15,
        "velocity": 0.63,
        "hand": "right"
      },
      {
        "midi": 38,
        "time": 28.2,
        "duration": 0.3,
        "velocity": 0.63,
        "hand": "left"
      },
      {
        "midi": 57,
        "time": 28.2,
        "duration": 0.15,
        "velocity": 1,
        "hand": "left"
      },
      {
        "midi": 66,
        "time": 28.2,
        "duration": 0.15,
        "velocity": 1,
        "hand": "right"
      },
      {
        "midi": 42,
        "time": 28.5,
        "duration": 0.15,
        "velocity": 0.63,
        "hand": "left"
      },
      {
        "midi": 57,
        "time": 28.5,
        "duration": 0.3,
        "velocity": 1,
        "hand": "left"
      },
      {
        "midi": 88,
        "time": 28.5,
        "duration": 0.3,
        "velocity": 0.85,
        "hand": "right"
      },
      {
        "midi": 64,
        "time": 28.65,
        "duration": 0.15,
        "velocity": 0.63,
        "hand": "right"
      },
      {
        "midi": 38,
        "time": 28.8,
        "duration": 0.3,
        "velocity": 1,
        "hand": "left"
      },
      {
        "midi": 62,
        "time": 28.8,
        "duration": 0.3,
        "velocity": 0.63,
        "hand": "right"
      },
      {
        "midi": 86,
        "time": 28.8,
        "duration": 0.9,
        "velocity": 0.83,
        "hand": "right"
      },
      {
        "midi": 42,
        "time": 29.1,
        "duration": 0.15,
        "velocity": 0.63,
        "hand": "left"
      },
      {
        "midi": 62,
        "time": 29.1,
        "duration": 0.15,
        "velocity": 0.92,
        "hand": "right"
      },
      {
        "midi": 72,
        "time": 29.1,
        "duration": 0.15,
        "velocity": 0.94,
        "hand": "right"
      },
      {
        "midi": 44,
        "time": 29.25,
        "duration": 0.15,
        "velocity": 0.63,
        "hand": "left"
      },
      {
        "midi": 62,
        "time": 29.25,
        "duration": 0.15,
        "velocity": 0.65,
        "hand": "right"
      },
      {
        "midi": 72,
        "time": 29.25,
        "duration": 0.15,
        "velocity": 0.84,
        "hand": "right"
      },
      {
        "midi": 38,
        "time": 29.4,
        "duration": 0.15,
        "velocity": 0.63,
        "hand": "left"
      },
      {
        "midi": 62,
        "time": 29.4,
        "duration": 0.15,
        "velocity": 0.77,
        "hand": "right"
      },
      {
        "midi": 72,
        "time": 29.4,
        "duration": 0.15,
        "velocity": 0.91,
        "hand": "right"
      },
      {
        "midi": 42,
        "time": 29.7,
        "duration": 0.15,
        "velocity": 0.63,
        "hand": "left"
      },
      {
        "midi": 62,
        "time": 29.7,
        "duration": 0.3,
        "velocity": 0.63,
        "hand": "right"
      },
      {
        "midi": 84,
        "time": 29.7,
        "duration": 0.3,
        "velocity": 0.94,
        "hand": "right"
      },
      {
        "midi": 54,
        "time": 29.85,
        "duration": 1.05,
        "velocity": 0.98,
        "hand": "left"
      },
      {
        "midi": 38,
        "time": 30,
        "duration": 0.15,
        "velocity": 0.63,
        "hand": "left"
      },
      {
        "midi": 62,
        "time": 30,
        "duration": 0.15,
        "velocity": 0.68,
        "hand": "right"
      },
      {
        "midi": 83,
        "time": 30,
        "duration": 0.6,
        "velocity": 0.87,
        "hand": "right"
      },
      {
        "midi": 42,
        "time": 30.3,
        "duration": 0.15,
        "velocity": 0.63,
        "hand": "left"
      },
      {
        "midi": 62,
        "time": 30.3,
        "duration": 0.15,
        "velocity": 0.65,
        "hand": "right"
      },
      {
        "midi": 72,
        "time": 30.3,
        "duration": 0.15,
        "velocity": 0.82,
        "hand": "right"
      },
      {
        "midi": 38,
        "time": 30.6,
        "duration": 0.3,
        "velocity": 0.63,
        "hand": "left"
      },
      {
        "midi": 66,
        "time": 30.6,
        "duration": 0.15,
        "velocity": 1,
        "hand": "right"
      },
      {
        "midi": 81,
        "time": 30.6,
        "duration": 0.45,
        "velocity": 1,
        "hand": "right"
      },
      {
        "midi": 42,
        "time": 30.9,
        "duration": 0.3,
        "velocity": 0.63,
        "hand": "left"
      },
      {
        "midi": 62,
        "time": 30.9,
        "duration": 0.15,
        "velocity": 0.99,
        "hand": "right"
      },
      {
        "midi": 72,
        "time": 30.9,
        "duration": 0.15,
        "velocity": 0.98,
        "hand": "right"
      },
      {
        "midi": 76,
        "time": 31.05,
        "duration": 0.45,
        "velocity": 0.87,
        "hand": "right"
      },
      {
        "midi": 88,
        "time": 31.05,
        "duration": 0.45,
        "velocity": 0.87,
        "hand": "right"
      },
      {
        "midi": 38,
        "time": 31.2,
        "duration": 0.15,
        "velocity": 0.63,
        "hand": "left"
      },
      {
        "midi": 59,
        "time": 31.2,
        "duration": 0.9,
        "velocity": 0.94,
        "hand": "left"
      },
      {
        "midi": 71,
        "time": 31.2,
        "duration": 0.15,
        "velocity": 1,
        "hand": "right"
      },
      {
        "midi": 42,
        "time": 31.5,
        "duration": 0.15,
        "velocity": 0.63,
        "hand": "left"
      },
      {
        "midi": 62,
        "time": 31.5,
        "duration": 0.3,
        "velocity": 0.63,
        "hand": "right"
      },
      {
        "midi": 86,
        "time": 31.5,
        "duration": 0.15,
        "velocity": 0.94,
        "hand": "right"
      },
      {
        "midi": 62,
        "time": 31.65,
        "duration": 0.15,
        "velocity": 0.79,
        "hand": "right"
      },
      {
        "midi": 67,
        "time": 31.65,
        "duration": 0.15,
        "velocity": 1,
        "hand": "right"
      },
      {
        "midi": 71,
        "time": 31.65,
        "duration": 0.15,
        "velocity": 0.89,
        "hand": "right"
      },
      {
        "midi": 38,
        "time": 31.8,
        "duration": 0.3,
        "velocity": 1,
        "hand": "left"
      },
      {
        "midi": 44,
        "time": 31.8,
        "duration": 0.15,
        "velocity": 0.63,
        "hand": "left"
      },
      {
        "midi": 67,
        "time": 31.8,
        "duration": 0.6,
        "velocity": 1,
        "hand": "right"
      },
      {
        "midi": 42,
        "time": 32.1,
        "duration": 0.15,
        "velocity": 0.63,
        "hand": "left"
      },
      {
        "midi": 62,
        "time": 32.1,
        "duration": 0.15,
        "velocity": 1,
        "hand": "right"
      },
      {
        "midi": 83,
        "time": 32.1,
        "duration": 0.3,
        "velocity": 0.99,
        "hand": "right"
      },
      {
        "midi": 38,
        "time": 32.4,
        "duration": 0.15,
        "velocity": 0.63,
        "hand": "left"
      },
      {
        "midi": 64,
        "time": 32.4,
        "duration": 0.6,
        "velocity": 1,
        "hand": "right"
      },
      {
        "midi": 79,
        "time": 32.4,
        "duration": 0.6,
        "velocity": 0.77,
        "hand": "right"
      },
      {
        "midi": 42,
        "time": 32.7,
        "duration": 0.15,
        "velocity": 0.63,
        "hand": "left"
      },
      {
        "midi": 62,
        "time": 32.7,
        "duration": 0.15,
        "velocity": 0.92,
        "hand": "right"
      },
      {
        "midi": 71,
        "time": 32.7,
        "duration": 0.15,
        "velocity": 0.97,
        "hand": "right"
      },
      {
        "midi": 38,
        "time": 33,
        "duration": 0.3,
        "velocity": 0.63,
        "hand": "left"
      },
      {
        "midi": 62,
        "time": 33,
        "duration": 0.3,
        "velocity": 1,
        "hand": "right"
      },
      {
        "midi": 83,
        "time": 33,
        "duration": 0.6,
        "velocity": 1,
        "hand": "right"
      },
      {
        "midi": 42,
        "time": 33.3,
        "duration": 0.15,
        "velocity": 0.63,
        "hand": "left"
      },
      {
        "midi": 61,
        "time": 33.3,
        "duration": 0.3,
        "velocity": 1,
        "hand": "right"
      },
      {
        "midi": 71,
        "time": 33.3,
        "duration": 0.15,
        "velocity": 1,
        "hand": "right"
      },
      {
        "midi": 38,
        "time": 33.6,
        "duration": 0.15,
        "velocity": 0.63,
        "hand": "left"
      },
      {
        "midi": 60,
        "time": 33.6,
        "duration": 0.15,
        "velocity": 1,
        "hand": "right"
      },
      {
        "midi": 86,
        "time": 33.6,
        "duration": 0.15,
        "velocity": 0.94,
        "hand": "right"
      },
      {
        "midi": 42,
        "time": 33.9,
        "duration": 0.15,
        "velocity": 0.63,
        "hand": "left"
      },
      {
        "midi": 66,
        "time": 33.9,
        "duration": 0.15,
        "velocity": 0.81,
        "hand": "right"
      },
      {
        "midi": 86,
        "time": 33.9,
        "duration": 0.6,
        "velocity": 1,
        "hand": "right"
      },
      {
        "midi": 62,
        "time": 34.05,
        "duration": 0.15,
        "velocity": 0.81,
        "hand": "right"
      },
      {
        "midi": 72,
        "time": 34.05,
        "duration": 0.15,
        "velocity": 0.8,
        "hand": "right"
      },
      {
        "midi": 38,
        "time": 34.2,
        "duration": 0.3,
        "velocity": 1,
        "hand": "left"
      },
      {
        "midi": 44,
        "time": 34.2,
        "duration": 0.15,
        "velocity": 0.63,
        "hand": "left"
      },
      {
        "midi": 66,
        "time": 34.2,
        "duration": 0.3,
        "velocity": 1,
        "hand": "right"
      },
      {
        "midi": 72,
        "time": 34.35,
        "duration": 0.15,
        "velocity": 0.98,
        "hand": "right"
      },
      {
        "midi": 84,
        "time": 34.35,
        "duration": 0.15,
        "velocity": 0.98,
        "hand": "right"
      },
      {
        "midi": 42,
        "time": 34.5,
        "duration": 0.3,
        "velocity": 0.63,
        "hand": "left"
      },
      {
        "midi": 66,
        "time": 34.5,
        "duration": 0.15,
        "velocity": 0.97,
        "hand": "right"
      },
      {
        "midi": 86,
        "time": 34.5,
        "duration": 0.15,
        "velocity": 0.83,
        "hand": "right"
      },
      {
        "midi": 38,
        "time": 34.8,
        "duration": 0.3,
        "velocity": 0.63,
        "hand": "left"
      },
      {
        "midi": 62,
        "time": 34.8,
        "duration": 0.45,
        "velocity": 1,
        "hand": "right"
      },
      {
        "midi": 83,
        "time": 34.8,
        "duration": 0.6,
        "velocity": 0.79,
        "hand": "right"
      },
      {
        "midi": 42,
        "time": 35.1,
        "duration": 0.15,
        "velocity": 0.63,
        "hand": "left"
      },
      {
        "midi": 62,
        "time": 35.1,
        "duration": 0.15,
        "velocity": 0.61,
        "hand": "right"
      },
      {
        "midi": 74,
        "time": 35.1,
        "duration": 0.15,
        "velocity": 0.81,
        "hand": "right"
      },
      {
        "midi": 38,
        "time": 35.4,
        "duration": 0.15,
        "velocity": 1,
        "hand": "left"
      },
      {
        "midi": 66,
        "time": 35.4,
        "duration": 0.15,
        "velocity": 1,
        "hand": "right"
      },
      {
        "midi": 81,
        "time": 35.4,
        "duration": 0.6,
        "velocity": 0.97,
        "hand": "right"
      },
      {
        "midi": 42,
        "time": 35.7,
        "duration": 0.3,
        "velocity": 0.63,
        "hand": "left"
      },
      {
        "midi": 57,
        "time": 35.7,
        "duration": 0.3,
        "velocity": 0.63,
        "hand": "left"
      },
      {
        "midi": 72,
        "time": 35.7,
        "duration": 0.15,
        "velocity": 0.84,
        "hand": "right"
      },
      {
        "midi": 67,
        "time": 35.85,
        "duration": 0.6,
        "velocity": 0.92,
        "hand": "right"
      },
      {
        "midi": 79,
        "time": 35.85,
        "duration": 0.6,
        "velocity": 0.92,
        "hand": "right"
      },
      {
        "midi": 38,
        "time": 36,
        "duration": 0.15,
        "velocity": 0.63,
        "hand": "left"
      },
      {
        "midi": 55,
        "time": 36,
        "duration": 0.15,
        "velocity": 0.63,
        "hand": "left"
      },
      {
        "midi": 71,
        "time": 36,
        "duration": 0.15,
        "velocity": 0.94,
        "hand": "right"
      },
      {
        "midi": 42,
        "time": 36.3,
        "duration": 0.15,
        "velocity": 0.63,
        "hand": "left"
      },
      {
        "midi": 62,
        "time": 36.3,
        "duration": 0.15,
        "velocity": 0.99,
        "hand": "right"
      },
      {
        "midi": 86,
        "time": 36.3,
        "duration": 0.15,
        "velocity": 0.8,
        "hand": "right"
      },
      {
        "midi": 44,
        "time": 36.45,
        "duration": 0.15,
        "velocity": 0.63,
        "hand": "left"
      },
      {
        "midi": 62,
        "time": 36.45,
        "duration": 0.3,
        "velocity": 0.99,
        "hand": "right"
      },
      {
        "midi": 86,
        "time": 36.45,
        "duration": 0.15,
        "velocity": 0.91,
        "hand": "right"
      },
      {
        "midi": 38,
        "time": 36.6,
        "duration": 0.15,
        "velocity": 1,
        "hand": "left"
      },
      {
        "midi": 68,
        "time": 36.6,
        "duration": 0.15,
        "velocity": 1,
        "hand": "right"
      },
      {
        "midi": 88,
        "time": 36.6,
        "duration": 0.15,
        "velocity": 0.92,
        "hand": "right"
      },
      {
        "midi": 62,
        "time": 36.75,
        "duration": 0.15,
        "velocity": 0.71,
        "hand": "right"
      },
      {
        "midi": 71,
        "time": 36.75,
        "duration": 0.3,
        "velocity": 0.65,
        "hand": "right"
      },
      {
        "midi": 86,
        "time": 36.75,
        "duration": 0.3,
        "velocity": 0.92,
        "hand": "right"
      },
      {
        "midi": 42,
        "time": 36.9,
        "duration": 0.3,
        "velocity": 0.63,
        "hand": "left"
      },
      {
        "midi": 64,
        "time": 36.9,
        "duration": 0.15,
        "velocity": 1,
        "hand": "right"
      },
      {
        "midi": 71,
        "time": 36.9,
        "duration": 0.15,
        "velocity": 1,
        "hand": "right"
      },
      {
        "midi": 69,
        "time": 37.05,
        "duration": 0.3,
        "velocity": 0.65,
        "hand": "right"
      },
      {
        "midi": 84,
        "time": 37.05,
        "duration": 0.15,
        "velocity": 0.92,
        "hand": "right"
      },
      {
        "midi": 38,
        "time": 37.2,
        "duration": 0.15,
        "velocity": 0.63,
        "hand": "left"
      },
      {
        "midi": 60,
        "time": 37.2,
        "duration": 0.15,
        "velocity": 0.71,
        "hand": "right"
      },
      {
        "midi": 72,
        "time": 37.2,
        "duration": 0.15,
        "velocity": 1,
        "hand": "right"
      },
      {
        "midi": 46,
        "time": 37.35,
        "duration": 0.15,
        "velocity": 0.63,
        "hand": "left"
      },
      {
        "midi": 57,
        "time": 37.35,
        "duration": 0.15,
        "velocity": 1,
        "hand": "left"
      },
      {
        "midi": 42,
        "time": 37.5,
        "duration": 0.3,
        "velocity": 0.63,
        "hand": "left"
      },
      {
        "midi": 64,
        "time": 37.5,
        "duration": 0.15,
        "velocity": 0.66,
        "hand": "right"
      },
      {
        "midi": 81,
        "time": 37.5,
        "duration": 0.15,
        "velocity": 0.87,
        "hand": "right"
      },
      {
        "midi": 44,
        "time": 37.65,
        "duration": 0.15,
        "velocity": 0.63,
        "hand": "left"
      },
      {
        "midi": 66,
        "time": 37.65,
        "duration": 0.3,
        "velocity": 0.68,
        "hand": "right"
      },
      {
        "midi": 74,
        "time": 37.65,
        "duration": 0.15,
        "velocity": 1,
        "hand": "right"
      },
      {
        "midi": 38,
        "time": 37.8,
        "duration": 0.3,
        "velocity": 1,
        "hand": "left"
      },
      {
        "midi": 62,
        "time": 37.8,
        "duration": 0.3,
        "velocity": 0.71,
        "hand": "right"
      },
      {
        "midi": 86,
        "time": 37.8,
        "duration": 0.15,
        "velocity": 0.92,
        "hand": "right"
      },
      {
        "midi": 60,
        "time": 37.95,
        "duration": 0.45,
        "velocity": 0.94,
        "hand": "right"
      },
      {
        "midi": 72,
        "time": 37.95,
        "duration": 0.15,
        "velocity": 1,
        "hand": "right"
      },
      {
        "midi": 74,
        "time": 37.95,
        "duration": 0.15,
        "velocity": 0.94,
        "hand": "right"
      },
      {
        "midi": 42,
        "time": 38.1,
        "duration": 0.3,
        "velocity": 0.63,
        "hand": "left"
      },
      {
        "midi": 60,
        "time": 38.1,
        "duration": 0.3,
        "velocity": 0.71,
        "hand": "right"
      },
      {
        "midi": 84,
        "time": 38.1,
        "duration": 0.15,
        "velocity": 0.92,
        "hand": "right"
      },
      {
        "midi": 59,
        "time": 38.25,
        "duration": 0.15,
        "velocity": 1,
        "hand": "left"
      },
      {
        "midi": 69,
        "time": 38.25,
        "duration": 0.15,
        "velocity": 0.79,
        "hand": "right"
      },
      {
        "midi": 38,
        "time": 38.4,
        "duration": 0.15,
        "velocity": 0.63,
        "hand": "left"
      },
      {
        "midi": 62,
        "time": 38.4,
        "duration": 0.6,
        "velocity": 1,
        "hand": "right"
      },
      {
        "midi": 83,
        "time": 38.4,
        "duration": 0.15,
        "velocity": 0.92,
        "hand": "right"
      },
      {
        "midi": 42,
        "time": 38.7,
        "duration": 0.3,
        "velocity": 0.63,
        "hand": "left"
      },
      {
        "midi": 67,
        "time": 38.7,
        "duration": 0.15,
        "velocity": 1,
        "hand": "right"
      },
      {
        "midi": 83,
        "time": 38.7,
        "duration": 0.15,
        "velocity": 0.92,
        "hand": "right"
      },
      {
        "midi": 44,
        "time": 38.85,
        "duration": 0.15,
        "velocity": 0.63,
        "hand": "left"
      },
      {
        "midi": 55,
        "time": 38.85,
        "duration": 0.15,
        "velocity": 0.71,
        "hand": "left"
      },
      {
        "midi": 66,
        "time": 38.85,
        "duration": 0.15,
        "velocity": 0.71,
        "hand": "right"
      },
      {
        "midi": 38,
        "time": 39,
        "duration": 0.45,
        "velocity": 0.63,
        "hand": "left"
      },
      {
        "midi": 64,
        "time": 39,
        "duration": 0.15,
        "velocity": 0.72,
        "hand": "right"
      },
      {
        "midi": 84,
        "time": 39,
        "duration": 0.15,
        "velocity": 0.92,
        "hand": "right"
      },
      {
        "midi": 42,
        "time": 39.3,
        "duration": 0.3,
        "velocity": 0.63,
        "hand": "left"
      },
      {
        "midi": 64,
        "time": 39.3,
        "duration": 0.15,
        "velocity": 0.72,
        "hand": "right"
      },
      {
        "midi": 84,
        "time": 39.3,
        "duration": 0.15,
        "velocity": 0.92,
        "hand": "right"
      },
      {
        "midi": 59,
        "time": 39.45,
        "duration": 0.15,
        "velocity": 0.71,
        "hand": "left"
      },
      {
        "midi": 62,
        "time": 39.45,
        "duration": 0.15,
        "velocity": 0.73,
        "hand": "right"
      },
      {
        "midi": 83,
        "time": 39.45,
        "duration": 0.15,
        "velocity": 0.8,
        "hand": "right"
      },
      {
        "midi": 38,
        "time": 39.6,
        "duration": 0.15,
        "velocity": 0.63,
        "hand": "left"
      },
      {
        "midi": 60,
        "time": 39.6,
        "duration": 0.15,
        "velocity": 0.74,
        "hand": "right"
      },
      {
        "midi": 81,
        "time": 39.6,
        "duration": 0.15,
        "velocity": 0.91,
        "hand": "right"
      },
      {
        "midi": 42,
        "time": 39.9,
        "duration": 0.3,
        "velocity": 0.63,
        "hand": "left"
      },
      {
        "midi": 67,
        "time": 39.9,
        "duration": 0.15,
        "velocity": 0.83,
        "hand": "right"
      },
      {
        "midi": 81,
        "time": 39.9,
        "duration": 0.15,
        "velocity": 0.84,
        "hand": "right"
      },
      {
        "midi": 44,
        "time": 40.05,
        "duration": 0.15,
        "velocity": 0.63,
        "hand": "left"
      },
      {
        "midi": 57,
        "time": 40.05,
        "duration": 0.15,
        "velocity": 0.71,
        "hand": "left"
      },
      {
        "midi": 81,
        "time": 40.05,
        "duration": 0.15,
        "velocity": 0.73,
        "hand": "right"
      },
      {
        "midi": 38,
        "time": 40.2,
        "duration": 0.3,
        "velocity": 1,
        "hand": "left"
      },
      {
        "midi": 66,
        "time": 40.2,
        "duration": 0.15,
        "velocity": 1,
        "hand": "right"
      },
      {
        "midi": 86,
        "time": 40.2,
        "duration": 0.15,
        "velocity": 0.91,
        "hand": "right"
      },
      {
        "midi": 42,
        "time": 40.5,
        "duration": 0.3,
        "velocity": 0.63,
        "hand": "left"
      },
      {
        "midi": 66,
        "time": 40.5,
        "duration": 0.15,
        "velocity": 1,
        "hand": "right"
      },
      {
        "midi": 86,
        "time": 40.5,
        "duration": 0.3,
        "velocity": 0.92,
        "hand": "right"
      },
      {
        "midi": 71,
        "time": 40.65,
        "duration": 0.15,
        "velocity": 0.61,
        "hand": "right"
      },
      {
        "midi": 79,
        "time": 40.65,
        "duration": 0.15,
        "velocity": 0.84,
        "hand": "right"
      },
      {
        "midi": 38,
        "time": 40.8,
        "duration": 0.3,
        "velocity": 0.63,
        "hand": "left"
      },
      {
        "midi": 55,
        "time": 40.8,
        "duration": 0.45,
        "velocity": 1,
        "hand": "left"
      },
      {
        "midi": 74,
        "time": 40.8,
        "duration": 0.15,
        "velocity": 1,
        "hand": "right"
      },
      {
        "midi": 42,
        "time": 41.1,
        "duration": 0.15,
        "velocity": 0.63,
        "hand": "left"
      },
      {
        "midi": 71,
        "time": 41.1,
        "duration": 0.15,
        "velocity": 1,
        "hand": "right"
      },
      {
        "midi": 86,
        "time": 41.1,
        "duration": 0.15,
        "velocity": 0.89,
        "hand": "right"
      },
      {
        "midi": 62,
        "time": 41.25,
        "duration": 0.15,
        "velocity": 0.63,
        "hand": "right"
      },
      {
        "midi": 71,
        "time": 41.25,
        "duration": 0.15,
        "velocity": 0.85,
        "hand": "right"
      },
      {
        "midi": 86,
        "time": 41.25,
        "duration": 0.15,
        "velocity": 0.63,
        "hand": "right"
      },
      {
        "midi": 38,
        "time": 41.4,
        "duration": 0.45,
        "velocity": 0.63,
        "hand": "left"
      },
      {
        "midi": 68,
        "time": 41.4,
        "duration": 0.15,
        "velocity": 0.96,
        "hand": "right"
      },
      {
        "midi": 88,
        "time": 41.4,
        "duration": 0.3,
        "velocity": 0.99,
        "hand": "right"
      },
      {
        "midi": 62,
        "time": 41.55,
        "duration": 0.15,
        "velocity": 0.63,
        "hand": "right"
      },
      {
        "midi": 64,
        "time": 41.55,
        "duration": 0.15,
        "velocity": 0.63,
        "hand": "right"
      },
      {
        "midi": 86,
        "time": 41.55,
        "duration": 0.15,
        "velocity": 0.63,
        "hand": "right"
      },
      {
        "midi": 42,
        "time": 41.7,
        "duration": 0.15,
        "velocity": 0.63,
        "hand": "left"
      },
      {
        "midi": 70,
        "time": 41.7,
        "duration": 0.15,
        "velocity": 1,
        "hand": "right"
      },
      {
        "midi": 86,
        "time": 41.7,
        "duration": 0.3,
        "velocity": 0.99,
        "hand": "right"
      },
      {
        "midi": 72,
        "time": 41.85,
        "duration": 0.15,
        "velocity": 1,
        "hand": "right"
      },
      {
        "midi": 84,
        "time": 41.85,
        "duration": 0.15,
        "velocity": 1,
        "hand": "right"
      },
      {
        "midi": 38,
        "time": 42,
        "duration": 0.15,
        "velocity": 0.63,
        "hand": "left"
      },
      {
        "midi": 57,
        "time": 42,
        "duration": 0.15,
        "velocity": 0.99,
        "hand": "left"
      },
      {
        "midi": 76,
        "time": 42,
        "duration": 0.15,
        "velocity": 1,
        "hand": "right"
      },
      {
        "midi": 69,
        "time": 42.15,
        "duration": 0.15,
        "velocity": 0.99,
        "hand": "right"
      },
      {
        "midi": 72,
        "time": 42.15,
        "duration": 0.15,
        "velocity": 1,
        "hand": "right"
      },
      {
        "midi": 44,
        "time": 42.3,
        "duration": 0.15,
        "velocity": 0.63,
        "hand": "left"
      },
      {
        "midi": 72,
        "time": 42.3,
        "duration": 0.15,
        "velocity": 1,
        "hand": "right"
      },
      {
        "midi": 84,
        "time": 42.3,
        "duration": 0.15,
        "velocity": 1,
        "hand": "right"
      },
      {
        "midi": 44,
        "time": 42.45,
        "duration": 0.15,
        "velocity": 0.63,
        "hand": "left"
      },
      {
        "midi": 69,
        "time": 42.45,
        "duration": 0.15,
        "velocity": 0.94,
        "hand": "right"
      },
      {
        "midi": 81,
        "time": 42.45,
        "duration": 0.15,
        "velocity": 0.63,
        "hand": "right"
      },
      {
        "midi": 38,
        "time": 42.6,
        "duration": 0.3,
        "velocity": 1,
        "hand": "left"
      },
      {
        "midi": 54,
        "time": 42.6,
        "duration": 0.6,
        "velocity": 0.91,
        "hand": "left"
      },
      {
        "midi": 86,
        "time": 42.6,
        "duration": 0.15,
        "velocity": 0.63,
        "hand": "right"
      },
      {
        "midi": 72,
        "time": 42.75,
        "duration": 0.3,
        "velocity": 1,
        "hand": "right"
      },
      {
        "midi": 38,
        "time": 42.9,
        "duration": 0.15,
        "velocity": 0.63,
        "hand": "left"
      },
      {
        "midi": 69,
        "time": 42.9,
        "duration": 0.15,
        "velocity": 1,
        "hand": "right"
      },
      {
        "midi": 86,
        "time": 42.9,
        "duration": 0.15,
        "velocity": 1,
        "hand": "right"
      },
      {
        "midi": 72,
        "time": 43.05,
        "duration": 0.15,
        "velocity": 0.94,
        "hand": "right"
      },
      {
        "midi": 84,
        "time": 43.05,
        "duration": 0.15,
        "velocity": 0.94,
        "hand": "right"
      },
      {
        "midi": 38,
        "time": 43.2,
        "duration": 0.15,
        "velocity": 0.63,
        "hand": "left"
      },
      {
        "midi": 71,
        "time": 43.2,
        "duration": 0.15,
        "velocity": 1,
        "hand": "right"
      },
      {
        "midi": 83,
        "time": 43.2,
        "duration": 0.15,
        "velocity": 0.99,
        "hand": "right"
      },
      {
        "midi": 44,
        "time": 43.5,
        "duration": 0.15,
        "velocity": 0.63,
        "hand": "left"
      },
      {
        "midi": 71,
        "time": 43.5,
        "duration": 0.15,
        "velocity": 1,
        "hand": "right"
      },
      {
        "midi": 83,
        "time": 43.5,
        "duration": 0.15,
        "velocity": 0.63,
        "hand": "right"
      },
      {
        "midi": 44,
        "time": 43.65,
        "duration": 0.15,
        "velocity": 0.63,
        "hand": "left"
      },
      {
        "midi": 71,
        "time": 43.65,
        "duration": 0.15,
        "velocity": 0.65,
        "hand": "right"
      },
      {
        "midi": 79,
        "time": 43.65,
        "duration": 0.15,
        "velocity": 0.63,
        "hand": "right"
      },
      {
        "midi": 38,
        "time": 43.8,
        "duration": 0.15,
        "velocity": 0.63,
        "hand": "left"
      },
      {
        "midi": 68,
        "time": 43.8,
        "duration": 0.15,
        "velocity": 1,
        "hand": "right"
      },
      {
        "midi": 84,
        "time": 43.8,
        "duration": 0.15,
        "velocity": 0.63,
        "hand": "right"
      },
      {
        "midi": 38,
        "time": 44.1,
        "duration": 0.15,
        "velocity": 0.63,
        "hand": "left"
      },
      {
        "midi": 64,
        "time": 44.1,
        "duration": 0.15,
        "velocity": 0.63,
        "hand": "right"
      },
      {
        "midi": 84,
        "time": 44.1,
        "duration": 0.15,
        "velocity": 0.63,
        "hand": "right"
      },
      {
        "midi": 62,
        "time": 44.25,
        "duration": 0.15,
        "velocity": 0.63,
        "hand": "right"
      },
      {
        "midi": 71,
        "time": 44.25,
        "duration": 0.15,
        "velocity": 0.87,
        "hand": "right"
      },
      {
        "midi": 83,
        "time": 44.25,
        "duration": 0.15,
        "velocity": 0.63,
        "hand": "right"
      },
      {
        "midi": 38,
        "time": 44.4,
        "duration": 0.15,
        "velocity": 0.63,
        "hand": "left"
      },
      {
        "midi": 60,
        "time": 44.4,
        "duration": 0.15,
        "velocity": 0.63,
        "hand": "right"
      },
      {
        "midi": 81,
        "time": 44.4,
        "duration": 0.15,
        "velocity": 0.63,
        "hand": "right"
      },
      {
        "midi": 44,
        "time": 44.7,
        "duration": 0.15,
        "velocity": 0.63,
        "hand": "left"
      },
      {
        "midi": 60,
        "time": 44.7,
        "duration": 0.15,
        "velocity": 0.63,
        "hand": "right"
      },
      {
        "midi": 81,
        "time": 44.7,
        "duration": 0.15,
        "velocity": 0.63,
        "hand": "right"
      },
      {
        "midi": 44,
        "time": 44.85,
        "duration": 0.15,
        "velocity": 0.63,
        "hand": "left"
      },
      {
        "midi": 72,
        "time": 44.85,
        "duration": 0.15,
        "velocity": 0.79,
        "hand": "right"
      },
      {
        "midi": 81,
        "time": 44.85,
        "duration": 0.15,
        "velocity": 0.63,
        "hand": "right"
      },
      {
        "midi": 38,
        "time": 45,
        "duration": 0.3,
        "velocity": 1,
        "hand": "left"
      },
      {
        "midi": 66,
        "time": 45,
        "duration": 0.15,
        "velocity": 1,
        "hand": "right"
      },
      {
        "midi": 86,
        "time": 45,
        "duration": 0.15,
        "velocity": 1,
        "hand": "right"
      },
      {
        "midi": 46,
        "time": 45.3,
        "duration": 0.15,
        "velocity": 0.63,
        "hand": "left"
      },
      {
        "midi": 74,
        "time": 45.3,
        "duration": 0.15,
        "velocity": 1,
        "hand": "right"
      },
      {
        "midi": 86,
        "time": 45.3,
        "duration": 0.3,
        "velocity": 1,
        "hand": "right"
      },
      {
        "midi": 67,
        "time": 45.45,
        "duration": 0.15,
        "velocity": 1,
        "hand": "right"
      },
      {
        "midi": 38,
        "time": 45.6,
        "duration": 0.15,
        "velocity": 0.63,
        "hand": "left"
      },
      {
        "midi": 55,
        "time": 45.6,
        "duration": 0.6,
        "velocity": 0.97,
        "hand": "left"
      },
      {
        "midi": 79,
        "time": 45.6,
        "duration": 1.95,
        "velocity": 1,
        "hand": "right"
      },
      {
        "midi": 67,
        "time": 45.9,
        "duration": 0.15,
        "velocity": 0.79,
        "hand": "right"
      },
      {
        "midi": 38,
        "time": 46.2,
        "duration": 0.3,
        "velocity": 1,
        "hand": "left"
      },
      {
        "midi": 46,
        "time": 46.2,
        "duration": 0.15,
        "velocity": 0.63,
        "hand": "left"
      },
      {
        "midi": 71,
        "time": 46.2,
        "duration": 0.15,
        "velocity": 0.85,
        "hand": "right"
      },
      {
        "midi": 67,
        "time": 46.5,
        "duration": 0.15,
        "velocity": 0.79,
        "hand": "right"
      },
      {
        "midi": 71,
        "time": 46.5,
        "duration": 0.15,
        "velocity": 0.72,
        "hand": "right"
      },
      {
        "midi": 42,
        "time": 46.65,
        "duration": 0.15,
        "velocity": 0.63,
        "hand": "left"
      },
      {
        "midi": 50,
        "time": 46.65,
        "duration": 0.15,
        "velocity": 0.89,
        "hand": "left"
      },
      {
        "midi": 38,
        "time": 46.8,
        "duration": 0.15,
        "velocity": 0.63,
        "hand": "left"
      },
      {
        "midi": 46,
        "time": 46.8,
        "duration": 0.15,
        "velocity": 0.63,
        "hand": "left"
      },
      {
        "midi": 71,
        "time": 46.8,
        "duration": 0.15,
        "velocity": 1,
        "hand": "right"
      },
      {
        "midi": 38,
        "time": 47.1,
        "duration": 0.15,
        "velocity": 1,
        "hand": "left"
      },
      {
        "midi": 50,
        "time": 47.1,
        "duration": 0.15,
        "velocity": 1,
        "hand": "left"
      },
      {
        "midi": 38,
        "time": 47.25,
        "duration": 0.15,
        "velocity": 0.63,
        "hand": "left"
      },
      {
        "midi": 38,
        "time": 47.4,
        "duration": 0.15,
        "velocity": 0.63,
        "hand": "left"
      },
      {
        "midi": 40,
        "time": 47.4,
        "duration": 0.15,
        "velocity": 1,
        "hand": "left"
      },
      {
        "midi": 52,
        "time": 47.4,
        "duration": 0.15,
        "velocity": 1,
        "hand": "left"
      },
      {
        "midi": 38,
        "time": 47.7,
        "duration": 0.15,
        "velocity": 0.63,
        "hand": "left"
      },
      {
        "midi": 42,
        "time": 47.7,
        "duration": 0.15,
        "velocity": 1,
        "hand": "left"
      },
      {
        "midi": 54,
        "time": 47.7,
        "duration": 0.15,
        "velocity": 1,
        "hand": "left"
      },
      {
        "midi": 38,
        "time": 48,
        "duration": 0.75,
        "velocity": 0.63,
        "hand": "left"
      },
      {
        "midi": 55,
        "time": 48,
        "duration": 0.9,
        "velocity": 1,
        "hand": "left"
      },
      {
        "midi": 71,
        "time": 48,
        "duration": 0.9,
        "velocity": 0.91,
        "hand": "right"
      },
      {
        "midi": 44,
        "time": 48.3,
        "duration": 0.15,
        "velocity": 0.63,
        "hand": "left"
      },
      {
        "midi": 67,
        "time": 48.3,
        "duration": 0.15,
        "velocity": 1,
        "hand": "right"
      },
      {
        "midi": 71,
        "time": 48.3,
        "duration": 0.15,
        "velocity": 0.92,
        "hand": "right"
      },
      {
        "midi": 44,
        "time": 48.45,
        "duration": 0.15,
        "velocity": 0.63,
        "hand": "left"
      },
      {
        "midi": 67,
        "time": 48.45,
        "duration": 0.15,
        "velocity": 0.92,
        "hand": "right"
      },
      {
        "midi": 71,
        "time": 48.45,
        "duration": 0.15,
        "velocity": 0.73,
        "hand": "right"
      },
      {
        "midi": 44,
        "time": 48.6,
        "duration": 0.15,
        "velocity": 0.63,
        "hand": "left"
      },
      {
        "midi": 67,
        "time": 48.6,
        "duration": 0.15,
        "velocity": 1,
        "hand": "right"
      },
      {
        "midi": 71,
        "time": 48.6,
        "duration": 0.15,
        "velocity": 1,
        "hand": "right"
      },
      {
        "midi": 38,
        "time": 48.9,
        "duration": 0.3,
        "velocity": 1,
        "hand": "left"
      },
      {
        "midi": 64,
        "time": 48.9,
        "duration": 0.15,
        "velocity": 0.89,
        "hand": "right"
      },
      {
        "midi": 72,
        "time": 48.9,
        "duration": 0.3,
        "velocity": 0.87,
        "hand": "right"
      },
      {
        "midi": 38,
        "time": 49.2,
        "duration": 1.05,
        "velocity": 0.63,
        "hand": "left"
      },
      {
        "midi": 62,
        "time": 49.2,
        "duration": 0.15,
        "velocity": 1,
        "hand": "right"
      },
      {
        "midi": 71,
        "time": 49.2,
        "duration": 0.9,
        "velocity": 0.93,
        "hand": "right"
      },
      {
        "midi": 44,
        "time": 49.5,
        "duration": 0.15,
        "velocity": 0.63,
        "hand": "left"
      },
      {
        "midi": 67,
        "time": 49.5,
        "duration": 0.15,
        "velocity": 1,
        "hand": "right"
      },
      {
        "midi": 71,
        "time": 49.5,
        "duration": 0.15,
        "velocity": 0.97,
        "hand": "right"
      },
      {
        "midi": 44,
        "time": 49.65,
        "duration": 0.15,
        "velocity": 0.63,
        "hand": "left"
      },
      {
        "midi": 67,
        "time": 49.65,
        "duration": 0.15,
        "velocity": 0.87,
        "hand": "right"
      },
      {
        "midi": 71,
        "time": 49.65,
        "duration": 0.15,
        "velocity": 0.83,
        "hand": "right"
      },
      {
        "midi": 44,
        "time": 49.8,
        "duration": 0.15,
        "velocity": 0.63,
        "hand": "left"
      },
      {
        "midi": 67,
        "time": 49.8,
        "duration": 0.15,
        "velocity": 0.97,
        "hand": "right"
      },
      {
        "midi": 71,
        "time": 49.8,
        "duration": 0.15,
        "velocity": 0.89,
        "hand": "right"
      },
      {
        "midi": 38,
        "time": 50.1,
        "duration": 0.15,
        "velocity": 1,
        "hand": "left"
      },
      {
        "midi": 64,
        "time": 50.1,
        "duration": 0.15,
        "velocity": 1,
        "hand": "right"
      },
      {
        "midi": 72,
        "time": 50.1,
        "duration": 0.15,
        "velocity": 1,
        "hand": "right"
      },
      {
        "midi": 38,
        "time": 50.4,
        "duration": 0.3,
        "velocity": 0.63,
        "hand": "left"
      },
      {
        "midi": 62,
        "time": 50.4,
        "duration": 0.15,
        "velocity": 1,
        "hand": "right"
      },
      {
        "midi": 71,
        "time": 50.4,
        "duration": 0.15,
        "velocity": 1,
        "hand": "right"
      },
      {
        "midi": 38,
        "time": 50.7,
        "duration": 0.15,
        "velocity": 1,
        "hand": "left"
      },
      {
        "midi": 62,
        "time": 50.7,
        "duration": 0.15,
        "velocity": 1,
        "hand": "right"
      },
      {
        "midi": 71,
        "time": 50.7,
        "duration": 0.15,
        "velocity": 1,
        "hand": "right"
      },
      {
        "midi": 46,
        "time": 50.85,
        "duration": 0.15,
        "velocity": 0.63,
        "hand": "left"
      },
      {
        "midi": 68,
        "time": 50.85,
        "duration": 0.15,
        "velocity": 0.79,
        "hand": "right"
      },
      {
        "midi": 72,
        "time": 50.85,
        "duration": 0.15,
        "velocity": 0.95,
        "hand": "right"
      },
      {
        "midi": 38,
        "time": 51,
        "duration": 0.15,
        "velocity": 0.63,
        "hand": "left"
      },
      {
        "midi": 62,
        "time": 51,
        "duration": 0.15,
        "velocity": 1,
        "hand": "right"
      },
      {
        "midi": 71,
        "time": 51,
        "duration": 0.15,
        "velocity": 0.99,
        "hand": "right"
      },
      {
        "midi": 38,
        "time": 51.3,
        "duration": 0.15,
        "velocity": 1,
        "hand": "left"
      },
      {
        "midi": 67,
        "time": 51.3,
        "duration": 0.15,
        "velocity": 0.97,
        "hand": "right"
      },
      {
        "midi": 72,
        "time": 51.3,
        "duration": 0.15,
        "velocity": 1,
        "hand": "right"
      },
      {
        "midi": 46,
        "time": 51.45,
        "duration": 0.15,
        "velocity": 0.63,
        "hand": "left"
      },
      {
        "midi": 38,
        "time": 51.6,
        "duration": 1.05,
        "velocity": 0.63,
        "hand": "left"
      },
      {
        "midi": 62,
        "time": 51.6,
        "duration": 0.45,
        "velocity": 1,
        "hand": "right"
      },
      {
        "midi": 71,
        "time": 51.6,
        "duration": 1.2,
        "velocity": 1,
        "hand": "right"
      },
      {
        "midi": 44,
        "time": 51.9,
        "duration": 0.15,
        "velocity": 0.63,
        "hand": "left"
      },
      {
        "midi": 67,
        "time": 51.9,
        "duration": 0.15,
        "velocity": 0.77,
        "hand": "right"
      },
      {
        "midi": 86,
        "time": 51.9,
        "duration": 0.15,
        "velocity": 0.92,
        "hand": "right"
      },
      {
        "midi": 91,
        "time": 52.05,
        "duration": 0.15,
        "velocity": 0.8,
        "hand": "right"
      },
      {
        "midi": 44,
        "time": 52.2,
        "duration": 0.15,
        "velocity": 0.63,
        "hand": "left"
      },
      {
        "midi": 69,
        "time": 52.2,
        "duration": 0.15,
        "velocity": 0.76,
        "hand": "right"
      },
      {
        "midi": 86,
        "time": 52.2,
        "duration": 0.15,
        "velocity": 0.92,
        "hand": "right"
      },
      {
        "midi": 44,
        "time": 52.5,
        "duration": 0.15,
        "velocity": 0.63,
        "hand": "left"
      },
      {
        "midi": 69,
        "time": 52.5,
        "duration": 0.15,
        "velocity": 0.73,
        "hand": "right"
      },
      {
        "midi": 83,
        "time": 52.5,
        "duration": 0.15,
        "velocity": 0.92,
        "hand": "right"
      },
      {
        "midi": 38,
        "time": 52.8,
        "duration": 0.9,
        "velocity": 0.63,
        "hand": "left"
      },
      {
        "midi": 51,
        "time": 52.8,
        "duration": 0.15,
        "velocity": 0.63,
        "hand": "left"
      },
      {
        "midi": 79,
        "time": 52.8,
        "duration": 2.4,
        "velocity": 0.92,
        "hand": "right"
      },
      {
        "midi": 44,
        "time": 53.1,
        "duration": 0.15,
        "velocity": 0.63,
        "hand": "left"
      },
      {
        "midi": 67,
        "time": 53.1,
        "duration": 0.6,
        "velocity": 1,
        "hand": "right"
      },
      {
        "midi": 74,
        "time": 53.1,
        "duration": 0.15,
        "velocity": 1,
        "hand": "right"
      },
      {
        "midi": 44,
        "time": 53.25,
        "duration": 0.15,
        "velocity": 0.63,
        "hand": "left"
      },
      {
        "midi": 71,
        "time": 53.25,
        "duration": 0.15,
        "velocity": 1,
        "hand": "right"
      },
      {
        "midi": 74,
        "time": 53.25,
        "duration": 0.15,
        "velocity": 0.99,
        "hand": "right"
      },
      {
        "midi": 44,
        "time": 53.4,
        "duration": 0.15,
        "velocity": 0.63,
        "hand": "left"
      },
      {
        "midi": 71,
        "time": 53.4,
        "duration": 0.15,
        "velocity": 0.94,
        "hand": "right"
      },
      {
        "midi": 74,
        "time": 53.4,
        "duration": 0.15,
        "velocity": 0.94,
        "hand": "right"
      },
      {
        "midi": 42,
        "time": 53.7,
        "duration": 0.15,
        "velocity": 0.63,
        "hand": "left"
      },
      {
        "midi": 66,
        "time": 53.7,
        "duration": 0.15,
        "velocity": 1,
        "hand": "right"
      },
      {
        "midi": 73,
        "time": 53.7,
        "duration": 0.15,
        "velocity": 1,
        "hand": "right"
      },
      {
        "midi": 38,
        "time": 54,
        "duration": 0.9,
        "velocity": 0.63,
        "hand": "left"
      },
      {
        "midi": 67,
        "time": 54,
        "duration": 0.15,
        "velocity": 1,
        "hand": "right"
      },
      {
        "midi": 74,
        "time": 54,
        "duration": 0.15,
        "velocity": 1,
        "hand": "right"
      },
      {
        "midi": 44,
        "time": 54.3,
        "duration": 0.15,
        "velocity": 0.63,
        "hand": "left"
      },
      {
        "midi": 67,
        "time": 54.3,
        "duration": 0.45,
        "velocity": 1,
        "hand": "right"
      },
      {
        "midi": 74,
        "time": 54.3,
        "duration": 0.15,
        "velocity": 1,
        "hand": "right"
      },
      {
        "midi": 44,
        "time": 54.45,
        "duration": 0.15,
        "velocity": 0.63,
        "hand": "left"
      },
      {
        "midi": 71,
        "time": 54.45,
        "duration": 0.15,
        "velocity": 0.85,
        "hand": "right"
      },
      {
        "midi": 74,
        "time": 54.45,
        "duration": 0.15,
        "velocity": 0.76,
        "hand": "right"
      },
      {
        "midi": 44,
        "time": 54.6,
        "duration": 0.15,
        "velocity": 0.63,
        "hand": "left"
      },
      {
        "midi": 71,
        "time": 54.6,
        "duration": 0.15,
        "velocity": 1,
        "hand": "right"
      },
      {
        "midi": 74,
        "time": 54.6,
        "duration": 0.15,
        "velocity": 1,
        "hand": "right"
      },
      {
        "midi": 42,
        "time": 54.9,
        "duration": 0.15,
        "velocity": 0.63,
        "hand": "left"
      },
      {
        "midi": 66,
        "time": 54.9,
        "duration": 0.15,
        "velocity": 1,
        "hand": "right"
      },
      {
        "midi": 73,
        "time": 54.9,
        "duration": 0.15,
        "velocity": 1,
        "hand": "right"
      },
      {
        "midi": 38,
        "time": 55.2,
        "duration": 0.15,
        "velocity": 0.63,
        "hand": "left"
      },
      {
        "midi": 67,
        "time": 55.2,
        "duration": 0.15,
        "velocity": 0.99,
        "hand": "right"
      },
      {
        "midi": 74,
        "time": 55.2,
        "duration": 0.15,
        "velocity": 1,
        "hand": "right"
      },
      {
        "midi": 42,
        "time": 55.5,
        "duration": 0.15,
        "velocity": 0.63,
        "hand": "left"
      },
      {
        "midi": 67,
        "time": 55.5,
        "duration": 0.15,
        "velocity": 1,
        "hand": "right"
      },
      {
        "midi": 74,
        "time": 55.5,
        "duration": 0.15,
        "velocity": 0.97,
        "hand": "right"
      },
      {
        "midi": 46,
        "time": 55.65,
        "duration": 0.15,
        "velocity": 0.63,
        "hand": "left"
      },
      {
        "midi": 67,
        "time": 55.65,
        "duration": 0.15,
        "velocity": 0.55,
        "hand": "right"
      },
      {
        "midi": 73,
        "time": 55.65,
        "duration": 0.15,
        "velocity": 0.89,
        "hand": "right"
      },
      {
        "midi": 38,
        "time": 55.8,
        "duration": 0.15,
        "velocity": 0.63,
        "hand": "left"
      },
      {
        "midi": 67,
        "time": 55.8,
        "duration": 0.15,
        "velocity": 1,
        "hand": "right"
      },
      {
        "midi": 74,
        "time": 55.8,
        "duration": 0.15,
        "velocity": 0.89,
        "hand": "right"
      },
      {
        "midi": 42,
        "time": 56.1,
        "duration": 0.15,
        "velocity": 0.63,
        "hand": "left"
      },
      {
        "midi": 67,
        "time": 56.1,
        "duration": 0.15,
        "velocity": 0.87,
        "hand": "right"
      },
      {
        "midi": 76,
        "time": 56.1,
        "duration": 0.15,
        "velocity": 0.99,
        "hand": "right"
      },
      {
        "midi": 66,
        "time": 56.25,
        "duration": 0.15,
        "velocity": 1,
        "hand": "right"
      },
      {
        "midi": 38,
        "time": 56.4,
        "duration": 0.15,
        "velocity": 0.63,
        "hand": "left"
      },
      {
        "midi": 67,
        "time": 56.4,
        "duration": 0.75,
        "velocity": 1,
        "hand": "right"
      },
      {
        "midi": 74,
        "time": 56.4,
        "duration": 0.6,
        "velocity": 1,
        "hand": "right"
      },
      {
        "midi": 44,
        "time": 56.7,
        "duration": 0.15,
        "velocity": 0.63,
        "hand": "left"
      },
      {
        "midi": 62,
        "time": 56.7,
        "duration": 0.3,
        "velocity": 0.99,
        "hand": "right"
      },
      {
        "midi": 95,
        "time": 56.7,
        "duration": 0.15,
        "velocity": 0.76,
        "hand": "right"
      },
      {
        "midi": 60,
        "time": 56.85,
        "duration": 0.15,
        "velocity": 0.63,
        "hand": "right"
      },
      {
        "midi": 91,
        "time": 56.85,
        "duration": 0.15,
        "velocity": 0.91,
        "hand": "right"
      },
      {
        "midi": 44,
        "time": 57,
        "duration": 0.15,
        "velocity": 0.63,
        "hand": "left"
      },
      {
        "midi": 62,
        "time": 57,
        "duration": 0.3,
        "velocity": 0.79,
        "hand": "right"
      },
      {
        "midi": 86,
        "time": 57,
        "duration": 0.15,
        "velocity": 0.92,
        "hand": "right"
      },
      {
        "midi": 44,
        "time": 57.3,
        "duration": 0.15,
        "velocity": 0.63,
        "hand": "left"
      },
      {
        "midi": 62,
        "time": 57.3,
        "duration": 0.15,
        "velocity": 0.63,
        "hand": "right"
      },
      {
        "midi": 91,
        "time": 57.3,
        "duration": 0.3,
        "velocity": 0.92,
        "hand": "right"
      },
      {
        "midi": 38,
        "time": 57.6,
        "duration": 0.15,
        "velocity": 0.63,
        "hand": "left"
      },
      {
        "midi": 60,
        "time": 57.6,
        "duration": 1.5,
        "velocity": 0.79,
        "hand": "right"
      },
      {
        "midi": 90,
        "time": 57.6,
        "duration": 1.35,
        "velocity": 0.92,
        "hand": "right"
      },
      {
        "midi": 42,
        "time": 57.9,
        "duration": 0.15,
        "velocity": 0.63,
        "hand": "left"
      },
      {
        "midi": 66,
        "time": 57.9,
        "duration": 0.15,
        "velocity": 0.94,
        "hand": "right"
      },
      {
        "midi": 74,
        "time": 57.9,
        "duration": 0.15,
        "velocity": 0.94,
        "hand": "right"
      },
      {
        "midi": 66,
        "time": 58.05,
        "duration": 0.15,
        "velocity": 0.68,
        "hand": "right"
      },
      {
        "midi": 72,
        "time": 58.05,
        "duration": 0.15,
        "velocity": 1,
        "hand": "right"
      },
      {
        "midi": 74,
        "time": 58.05,
        "duration": 0.15,
        "velocity": 0.87,
        "hand": "right"
      },
      {
        "midi": 38,
        "time": 58.2,
        "duration": 0.6,
        "velocity": 1,
        "hand": "left"
      },
      {
        "midi": 66,
        "time": 58.2,
        "duration": 0.15,
        "velocity": 0.85,
        "hand": "right"
      },
      {
        "midi": 74,
        "time": 58.2,
        "duration": 0.15,
        "velocity": 1,
        "hand": "right"
      },
      {
        "midi": 42,
        "time": 58.5,
        "duration": 0.15,
        "velocity": 0.63,
        "hand": "left"
      },
      {
        "midi": 66,
        "time": 58.5,
        "duration": 0.15,
        "velocity": 1,
        "hand": "right"
      },
      {
        "midi": 76,
        "time": 58.5,
        "duration": 0.15,
        "velocity": 1,
        "hand": "right"
      },
      {
        "midi": 38,
        "time": 58.8,
        "duration": 0.3,
        "velocity": 0.63,
        "hand": "left"
      },
      {
        "midi": 51,
        "time": 58.8,
        "duration": 0.9,
        "velocity": 0.63,
        "hand": "left"
      },
      {
        "midi": 74,
        "time": 58.8,
        "duration": 0.3,
        "velocity": 1,
        "hand": "right"
      },
      {
        "midi": 42,
        "time": 59.1,
        "duration": 0.15,
        "velocity": 0.63,
        "hand": "left"
      },
      {
        "midi": 64,
        "time": 59.1,
        "duration": 0.3,
        "velocity": 0.79,
        "hand": "right"
      },
      {
        "midi": 96,
        "time": 59.1,
        "duration": 0.15,
        "velocity": 0.92,
        "hand": "right"
      },
      {
        "midi": 71,
        "time": 59.25,
        "duration": 0.15,
        "velocity": 0.63,
        "hand": "right"
      },
      {
        "midi": 95,
        "time": 59.25,
        "duration": 0.15,
        "velocity": 0.62,
        "hand": "right"
      },
      {
        "midi": 38,
        "time": 59.4,
        "duration": 0.3,
        "velocity": 0.63,
        "hand": "left"
      },
      {
        "midi": 71,
        "time": 59.4,
        "duration": 0.15,
        "velocity": 0.63,
        "hand": "right"
      },
      {
        "midi": 97,
        "time": 59.4,
        "duration": 0.15,
        "velocity": 0.65,
        "hand": "right"
      },
      {
        "midi": 42,
        "time": 59.7,
        "duration": 0.15,
        "velocity": 0.63,
        "hand": "left"
      },
      {
        "midi": 60,
        "time": 59.7,
        "duration": 0.3,
        "velocity": 0.79,
        "hand": "right"
      },
      {
        "midi": 90,
        "time": 59.7,
        "duration": 0.3,
        "velocity": 0.92,
        "hand": "right"
      },
      {
        "midi": 44,
        "time": 59.85,
        "duration": 0.15,
        "velocity": 0.63,
        "hand": "left"
      },
      {
        "midi": 46,
        "time": 59.85,
        "duration": 0.15,
        "velocity": 0.63,
        "hand": "left"
      },
      {
        "midi": 38,
        "time": 60,
        "duration": 0.15,
        "velocity": 0.63,
        "hand": "left"
      },
      {
        "midi": 59,
        "time": 60,
        "duration": 1.35,
        "velocity": 0.79,
        "hand": "left"
      },
      {
        "midi": 93,
        "time": 60,
        "duration": 0.15,
        "velocity": 0.84,
        "hand": "right"
      },
      {
        "midi": 67,
        "time": 60.15,
        "duration": 0.15,
        "velocity": 0.63,
        "hand": "right"
      },
      {
        "midi": 91,
        "time": 60.15,
        "duration": 0.15,
        "velocity": 0.77,
        "hand": "right"
      },
      {
        "midi": 93,
        "time": 60.15,
        "duration": 0.15,
        "velocity": 0.8,
        "hand": "right"
      },
      {
        "midi": 42,
        "time": 60.3,
        "duration": 0.15,
        "velocity": 0.63,
        "hand": "left"
      },
      {
        "midi": 67,
        "time": 60.3,
        "duration": 0.3,
        "velocity": 0.63,
        "hand": "right"
      },
      {
        "midi": 91,
        "time": 60.3,
        "duration": 0.3,
        "velocity": 0.89,
        "hand": "right"
      },
      {
        "midi": 67,
        "time": 60.45,
        "duration": 0.15,
        "velocity": 0.83,
        "hand": "right"
      },
      {
        "midi": 71,
        "time": 60.45,
        "duration": 0.15,
        "velocity": 0.94,
        "hand": "right"
      },
      {
        "midi": 74,
        "time": 60.45,
        "duration": 0.15,
        "velocity": 0.94,
        "hand": "right"
      },
      {
        "midi": 38,
        "time": 60.6,
        "duration": 0.6,
        "velocity": 1,
        "hand": "left"
      },
      {
        "midi": 67,
        "time": 60.6,
        "duration": 0.15,
        "velocity": 1,
        "hand": "right"
      },
      {
        "midi": 85,
        "time": 60.6,
        "duration": 0.15,
        "velocity": 0.81,
        "hand": "right"
      },
      {
        "midi": 42,
        "time": 60.9,
        "duration": 0.15,
        "velocity": 0.63,
        "hand": "left"
      },
      {
        "midi": 67,
        "time": 60.9,
        "duration": 0.15,
        "velocity": 1,
        "hand": "right"
      },
      {
        "midi": 73,
        "time": 60.9,
        "duration": 0.15,
        "velocity": 1,
        "hand": "right"
      },
      {
        "midi": 38,
        "time": 61.2,
        "duration": 0.15,
        "velocity": 0.63,
        "hand": "left"
      },
      {
        "midi": 51,
        "time": 61.2,
        "duration": 0.9,
        "velocity": 0.63,
        "hand": "left"
      },
      {
        "midi": 74,
        "time": 61.2,
        "duration": 0.45,
        "velocity": 1,
        "hand": "right"
      },
      {
        "midi": 60,
        "time": 61.35,
        "duration": 0.15,
        "velocity": 0.79,
        "hand": "right"
      },
      {
        "midi": 42,
        "time": 61.5,
        "duration": 0.15,
        "velocity": 0.63,
        "hand": "left"
      },
      {
        "midi": 60,
        "time": 61.5,
        "duration": 0.3,
        "velocity": 0.63,
        "hand": "right"
      },
      {
        "midi": 84,
        "time": 61.5,
        "duration": 0.15,
        "velocity": 0.92,
        "hand": "right"
      },
      {
        "midi": 62,
        "time": 61.65,
        "duration": 0.15,
        "velocity": 0.79,
        "hand": "right"
      },
      {
        "midi": 85,
        "time": 61.65,
        "duration": 0.15,
        "velocity": 0.81,
        "hand": "right"
      },
      {
        "midi": 38,
        "time": 61.8,
        "duration": 0.3,
        "velocity": 0.63,
        "hand": "left"
      },
      {
        "midi": 62,
        "time": 61.8,
        "duration": 0.45,
        "velocity": 1,
        "hand": "right"
      },
      {
        "midi": 88,
        "time": 61.8,
        "duration": 0.15,
        "velocity": 0.91,
        "hand": "right"
      },
      {
        "midi": 86,
        "time": 61.95,
        "duration": 0.15,
        "velocity": 0.92,
        "hand": "right"
      },
      {
        "midi": 42,
        "time": 62.1,
        "duration": 0.15,
        "velocity": 0.63,
        "hand": "left"
      },
      {
        "midi": 64,
        "time": 62.1,
        "duration": 0.3,
        "velocity": 0.63,
        "hand": "right"
      },
      {
        "midi": 88,
        "time": 62.1,
        "duration": 0.15,
        "velocity": 0.5,
        "hand": "right"
      },
      {
        "midi": 44,
        "time": 62.25,
        "duration": 0.15,
        "velocity": 0.63,
        "hand": "left"
      },
      {
        "midi": 46,
        "time": 62.25,
        "duration": 0.15,
        "velocity": 0.63,
        "hand": "left"
      },
      {
        "midi": 38,
        "time": 62.4,
        "duration": 0.15,
        "velocity": 0.63,
        "hand": "left"
      },
      {
        "midi": 66,
        "time": 62.4,
        "duration": 0.15,
        "velocity": 0.89,
        "hand": "right"
      },
      {
        "midi": 84,
        "time": 62.4,
        "duration": 0.3,
        "velocity": 0.92,
        "hand": "right"
      },
      {
        "midi": 42,
        "time": 62.7,
        "duration": 0.15,
        "velocity": 0.63,
        "hand": "left"
      },
      {
        "midi": 66,
        "time": 62.7,
        "duration": 0.15,
        "velocity": 0.92,
        "hand": "right"
      },
      {
        "midi": 81,
        "time": 62.7,
        "duration": 0.15,
        "velocity": 0.92,
        "hand": "right"
      },
      {
        "midi": 66,
        "time": 62.85,
        "duration": 0.15,
        "velocity": 0.63,
        "hand": "right"
      },
      {
        "midi": 72,
        "time": 62.85,
        "duration": 0.15,
        "velocity": 0.96,
        "hand": "right"
      },
      {
        "midi": 74,
        "time": 62.85,
        "duration": 0.15,
        "velocity": 0.83,
        "hand": "right"
      },
      {
        "midi": 38,
        "time": 63,
        "duration": 0.6,
        "velocity": 1,
        "hand": "left"
      },
      {
        "midi": 57,
        "time": 63,
        "duration": 0.6,
        "velocity": 0.81,
        "hand": "left"
      },
      {
        "midi": 76,
        "time": 63,
        "duration": 0.3,
        "velocity": 0.92,
        "hand": "right"
      },
      {
        "midi": 42,
        "time": 63.3,
        "duration": 0.15,
        "velocity": 0.63,
        "hand": "left"
      },
      {
        "midi": 62,
        "time": 63.3,
        "duration": 0.15,
        "velocity": 1,
        "hand": "right"
      },
      {
        "midi": 78,
        "time": 63.3,
        "duration": 0.3,
        "velocity": 0.92,
        "hand": "right"
      },
      {
        "midi": 38,
        "time": 63.6,
        "duration": 0.3,
        "velocity": 0.63,
        "hand": "left"
      },
      {
        "midi": 64,
        "time": 63.6,
        "duration": 0.3,
        "velocity": 0.89,
        "hand": "right"
      },
      {
        "midi": 83,
        "time": 63.6,
        "duration": 0.45,
        "velocity": 0.91,
        "hand": "right"
      },
      {
        "midi": 38,
        "time": 63.9,
        "duration": 0.15,
        "velocity": 1,
        "hand": "left"
      },
      {
        "midi": 50,
        "time": 63.9,
        "duration": 0.15,
        "velocity": 1,
        "hand": "left"
      },
      {
        "midi": 59,
        "time": 63.9,
        "duration": 0.45,
        "velocity": 0.63,
        "hand": "left"
      },
      {
        "midi": 38,
        "time": 64.2,
        "duration": 0.3,
        "velocity": 0.63,
        "hand": "left"
      },
      {
        "midi": 66,
        "time": 64.2,
        "duration": 0.3,
        "velocity": 1,
        "hand": "right"
      },
      {
        "midi": 84,
        "time": 64.2,
        "duration": 0.15,
        "velocity": 0.81,
        "hand": "right"
      },
      {
        "midi": 42,
        "time": 64.5,
        "duration": 0.15,
        "velocity": 1,
        "hand": "left"
      },
      {
        "midi": 57,
        "time": 64.5,
        "duration": 0.15,
        "velocity": 0.63,
        "hand": "left"
      },
      {
        "midi": 60,
        "time": 64.5,
        "duration": 0.3,
        "velocity": 0.79,
        "hand": "right"
      },
      {
        "midi": 44,
        "time": 64.65,
        "duration": 0.15,
        "velocity": 0.63,
        "hand": "left"
      },
      {
        "midi": 38,
        "time": 64.8,
        "duration": 0.3,
        "velocity": 0.63,
        "hand": "left"
      },
      {
        "midi": 55,
        "time": 64.8,
        "duration": 0.6,
        "velocity": 0.99,
        "hand": "left"
      },
      {
        "midi": 79,
        "time": 64.8,
        "duration": 1.2,
        "velocity": 0.92,
        "hand": "right"
      },
      {
        "midi": 42,
        "time": 65.1,
        "duration": 0.15,
        "velocity": 0.63,
        "hand": "left"
      },
      {
        "midi": 62,
        "time": 65.1,
        "duration": 0.15,
        "velocity": 1,
        "hand": "right"
      },
      {
        "midi": 71,
        "time": 65.1,
        "duration": 0.15,
        "velocity": 0.94,
        "hand": "right"
      },
      {
        "midi": 62,
        "time": 65.25,
        "duration": 0.15,
        "velocity": 0.68,
        "hand": "right"
      },
      {
        "midi": 67,
        "time": 65.25,
        "duration": 0.15,
        "velocity": 0.94,
        "hand": "right"
      },
      {
        "midi": 71,
        "time": 65.25,
        "duration": 0.15,
        "velocity": 0.81,
        "hand": "right"
      },
      {
        "midi": 38,
        "time": 65.4,
        "duration": 0.45,
        "velocity": 1,
        "hand": "left"
      },
      {
        "midi": 50,
        "time": 65.4,
        "duration": 0.3,
        "velocity": 0.85,
        "hand": "left"
      },
      {
        "midi": 71,
        "time": 65.4,
        "duration": 0.15,
        "velocity": 0.85,
        "hand": "right"
      },
      {
        "midi": 42,
        "time": 65.7,
        "duration": 0.15,
        "velocity": 0.63,
        "hand": "left"
      },
      {
        "midi": 64,
        "time": 65.7,
        "duration": 0.15,
        "velocity": 0.89,
        "hand": "right"
      },
      {
        "midi": 72,
        "time": 65.7,
        "duration": 0.15,
        "velocity": 1,
        "hand": "right"
      },
      {
        "midi": 38,
        "time": 66,
        "duration": 0.15,
        "velocity": 0.63,
        "hand": "left"
      },
      {
        "midi": 62,
        "time": 66,
        "duration": 0.3,
        "velocity": 0.94,
        "hand": "right"
      },
      {
        "midi": 86,
        "time": 66,
        "duration": 1.05,
        "velocity": 0.92,
        "hand": "right"
      },
      {
        "midi": 46,
        "time": 66.3,
        "duration": 0.15,
        "velocity": 0.63,
        "hand": "left"
      },
      {
        "midi": 38,
        "time": 66.6,
        "duration": 0.3,
        "velocity": 0.63,
        "hand": "left"
      },
      {
        "midi": 62,
        "time": 66.6,
        "duration": 0.15,
        "velocity": 1,
        "hand": "right"
      },
      {
        "midi": 69,
        "time": 66.6,
        "duration": 0.15,
        "velocity": 0.97,
        "hand": "right"
      },
      {
        "midi": 44,
        "time": 66.75,
        "duration": 0.15,
        "velocity": 0.63,
        "hand": "left"
      },
      {
        "midi": 46,
        "time": 66.75,
        "duration": 0.15,
        "velocity": 0.63,
        "hand": "left"
      },
      {
        "midi": 44,
        "time": 66.9,
        "duration": 0.15,
        "velocity": 0.63,
        "hand": "left"
      },
      {
        "midi": 46,
        "time": 66.9,
        "duration": 0.15,
        "velocity": 0.63,
        "hand": "left"
      },
      {
        "midi": 44,
        "time": 67.05,
        "duration": 0.15,
        "velocity": 0.63,
        "hand": "left"
      },
      {
        "midi": 46,
        "time": 67.05,
        "duration": 0.15,
        "velocity": 0.63,
        "hand": "left"
      },
      {
        "midi": 38,
        "time": 67.2,
        "duration": 0.15,
        "velocity": 0.63,
        "hand": "left"
      },
      {
        "midi": 59,
        "time": 67.2,
        "duration": 0.15,
        "velocity": 0.79,
        "hand": "left"
      },
      {
        "midi": 67,
        "time": 67.2,
        "duration": 0.9,
        "velocity": 1,
        "hand": "right"
      },
      {
        "midi": 42,
        "time": 67.5,
        "duration": 0.15,
        "velocity": 0.63,
        "hand": "left"
      },
      {
        "midi": 59,
        "time": 67.5,
        "duration": 0.15,
        "velocity": 0.77,
        "hand": "left"
      },
      {
        "midi": 67,
        "time": 67.5,
        "duration": 0.15,
        "velocity": 0.89,
        "hand": "right"
      },
      {
        "midi": 59,
        "time": 67.65,
        "duration": 0.15,
        "velocity": 0.38,
        "hand": "left"
      },
      {
        "midi": 62,
        "time": 67.65,
        "duration": 0.15,
        "velocity": 0.65,
        "hand": "right"
      },
      {
        "midi": 67,
        "time": 67.65,
        "duration": 0.15,
        "velocity": 0.72,
        "hand": "right"
      },
      {
        "midi": 38,
        "time": 67.8,
        "duration": 0.3,
        "velocity": 0.91,
        "hand": "left"
      },
      {
        "midi": 44,
        "time": 67.8,
        "duration": 0.15,
        "velocity": 0.63,
        "hand": "left"
      },
      {
        "midi": 42,
        "time": 68.1,
        "duration": 0.15,
        "velocity": 0.63,
        "hand": "left"
      },
      {
        "midi": 59,
        "time": 68.1,
        "duration": 0.15,
        "velocity": 0.85,
        "hand": "left"
      },
      {
        "midi": 71,
        "time": 68.1,
        "duration": 0.3,
        "velocity": 1,
        "hand": "right"
      },
      {
        "midi": 38,
        "time": 68.4,
        "duration": 0.15,
        "velocity": 0.63,
        "hand": "left"
      },
      {
        "midi": 62,
        "time": 68.4,
        "duration": 0.15,
        "velocity": 0.68,
        "hand": "right"
      },
      {
        "midi": 74,
        "time": 68.4,
        "duration": 0.3,
        "velocity": 1,
        "hand": "right"
      },
      {
        "midi": 42,
        "time": 68.7,
        "duration": 0.15,
        "velocity": 0.63,
        "hand": "left"
      },
      {
        "midi": 62,
        "time": 68.7,
        "duration": 0.15,
        "velocity": 0.89,
        "hand": "right"
      },
      {
        "midi": 74,
        "time": 68.7,
        "duration": 0.3,
        "velocity": 1,
        "hand": "right"
      },
      {
        "midi": 38,
        "time": 69,
        "duration": 0.3,
        "velocity": 1,
        "hand": "left"
      },
      {
        "midi": 62,
        "time": 69,
        "duration": 0.15,
        "velocity": 1,
        "hand": "right"
      },
      {
        "midi": 74,
        "time": 69,
        "duration": 0.3,
        "velocity": 1,
        "hand": "right"
      },
      {
        "midi": 42,
        "time": 69.3,
        "duration": 0.15,
        "velocity": 0.63,
        "hand": "left"
      },
      {
        "midi": 62,
        "time": 69.3,
        "duration": 0.15,
        "velocity": 0.81,
        "hand": "right"
      },
      {
        "midi": 76,
        "time": 69.3,
        "duration": 0.3,
        "velocity": 1,
        "hand": "right"
      },
      {
        "midi": 38,
        "time": 69.6,
        "duration": 0.3,
        "velocity": 0.63,
        "hand": "left"
      },
      {
        "midi": 62,
        "time": 69.6,
        "duration": 0.15,
        "velocity": 1,
        "hand": "right"
      },
      {
        "midi": 74,
        "time": 69.6,
        "duration": 0.9,
        "velocity": 0.89,
        "hand": "right"
      },
      {
        "midi": 42,
        "time": 69.9,
        "duration": 0.15,
        "velocity": 0.63,
        "hand": "left"
      },
      {
        "midi": 67,
        "time": 69.9,
        "duration": 0.15,
        "velocity": 0.94,
        "hand": "right"
      },
      {
        "midi": 93,
        "time": 69.9,
        "duration": 0.15,
        "velocity": 0.87,
        "hand": "right"
      },
      {
        "midi": 59,
        "time": 70.05,
        "duration": 0.15,
        "velocity": 0.72,
        "hand": "left"
      },
      {
        "midi": 67,
        "time": 70.05,
        "duration": 0.15,
        "velocity": 0.87,
        "hand": "right"
      },
      {
        "midi": 91,
        "time": 70.05,
        "duration": 0.15,
        "velocity": 0.89,
        "hand": "right"
      },
      {
        "midi": 38,
        "time": 70.2,
        "duration": 0.3,
        "velocity": 1,
        "hand": "left"
      },
      {
        "midi": 59,
        "time": 70.2,
        "duration": 0.15,
        "velocity": 0.77,
        "hand": "left"
      },
      {
        "midi": 62,
        "time": 70.2,
        "duration": 1.65,
        "velocity": 0.63,
        "hand": "right"
      },
      {
        "midi": 86,
        "time": 70.35,
        "duration": 0.15,
        "velocity": 0.92,
        "hand": "right"
      },
      {
        "midi": 42,
        "time": 70.5,
        "duration": 0.15,
        "velocity": 0.63,
        "hand": "left"
      },
      {
        "midi": 59,
        "time": 70.5,
        "duration": 0.15,
        "velocity": 1,
        "hand": "left"
      },
      {
        "midi": 71,
        "time": 70.5,
        "duration": 0.3,
        "velocity": 1,
        "hand": "right"
      },
      {
        "midi": 38,
        "time": 70.8,
        "duration": 0.15,
        "velocity": 0.63,
        "hand": "left"
      },
      {
        "midi": 62,
        "time": 70.8,
        "duration": 0.15,
        "velocity": 0.99,
        "hand": "right"
      },
      {
        "midi": 83,
        "time": 70.8,
        "duration": 0.3,
        "velocity": 0.92,
        "hand": "right"
      },
      {
        "midi": 42,
        "time": 71.1,
        "duration": 0.15,
        "velocity": 0.63,
        "hand": "left"
      },
      {
        "midi": 59,
        "time": 71.1,
        "duration": 0.15,
        "velocity": 0.87,
        "hand": "left"
      },
      {
        "midi": 84,
        "time": 71.1,
        "duration": 0.3,
        "velocity": 0.92,
        "hand": "right"
      },
      {
        "midi": 38,
        "time": 71.4,
        "duration": 0.3,
        "velocity": 1,
        "hand": "left"
      },
      {
        "midi": 62,
        "time": 71.4,
        "duration": 0.15,
        "velocity": 1,
        "hand": "right"
      },
      {
        "midi": 85,
        "time": 71.4,
        "duration": 0.3,
        "velocity": 0.92,
        "hand": "right"
      },
      {
        "midi": 42,
        "time": 71.7,
        "duration": 0.15,
        "velocity": 0.63,
        "hand": "left"
      },
      {
        "midi": 59,
        "time": 71.7,
        "duration": 0.15,
        "velocity": 0.85,
        "hand": "left"
      },
      {
        "midi": 86,
        "time": 71.7,
        "duration": 0.3,
        "velocity": 0.89,
        "hand": "right"
      },
      {
        "midi": 38,
        "time": 72,
        "duration": 0.3,
        "velocity": 0.63,
        "hand": "left"
      },
      {
        "midi": 59,
        "time": 72,
        "duration": 0.9,
        "velocity": 1,
        "hand": "left"
      },
      {
        "midi": 79,
        "time": 72,
        "duration": 0.6,
        "velocity": 0.92,
        "hand": "right"
      },
      {
        "midi": 42,
        "time": 72.3,
        "duration": 0.15,
        "velocity": 0.63,
        "hand": "left"
      },
      {
        "midi": 59,
        "time": 72.3,
        "duration": 0.15,
        "velocity": 0.99,
        "hand": "left"
      },
      {
        "midi": 67,
        "time": 72.3,
        "duration": 0.15,
        "velocity": 0.97,
        "hand": "right"
      },
      {
        "midi": 59,
        "time": 72.45,
        "duration": 0.15,
        "velocity": 0.57,
        "hand": "left"
      },
      {
        "midi": 62,
        "time": 72.45,
        "duration": 0.15,
        "velocity": 0.85,
        "hand": "right"
      },
      {
        "midi": 67,
        "time": 72.45,
        "duration": 0.15,
        "velocity": 0.85,
        "hand": "right"
      },
      {
        "midi": 38,
        "time": 72.6,
        "duration": 0.3,
        "velocity": 1,
        "hand": "left"
      },
      {
        "midi": 60,
        "time": 72.6,
        "duration": 0.3,
        "velocity": 0.63,
        "hand": "right"
      },
      {
        "midi": 67,
        "time": 72.6,
        "duration": 0.15,
        "velocity": 0.97,
        "hand": "right"
      },
      {
        "midi": 42,
        "time": 72.9,
        "duration": 0.15,
        "velocity": 0.63,
        "hand": "left"
      },
      {
        "midi": 61,
        "time": 72.9,
        "duration": 0.3,
        "velocity": 0.63,
        "hand": "right"
      },
      {
        "midi": 71,
        "time": 72.9,
        "duration": 0.3,
        "velocity": 1,
        "hand": "right"
      },
      {
        "midi": 38,
        "time": 73.2,
        "duration": 0.15,
        "velocity": 0.63,
        "hand": "left"
      },
      {
        "midi": 59,
        "time": 73.2,
        "duration": 0.15,
        "velocity": 0.92,
        "hand": "left"
      },
      {
        "midi": 74,
        "time": 73.2,
        "duration": 0.15,
        "velocity": 1,
        "hand": "right"
      },
      {
        "midi": 42,
        "time": 73.5,
        "duration": 0.15,
        "velocity": 0.63,
        "hand": "left"
      },
      {
        "midi": 59,
        "time": 73.5,
        "duration": 0.15,
        "velocity": 0.94,
        "hand": "left"
      },
      {
        "midi": 74,
        "time": 73.5,
        "duration": 0.45,
        "velocity": 1,
        "hand": "right"
      },
      {
        "midi": 38,
        "time": 73.8,
        "duration": 0.3,
        "velocity": 1,
        "hand": "left"
      },
      {
        "midi": 59,
        "time": 73.8,
        "duration": 0.15,
        "velocity": 1,
        "hand": "left"
      },
      {
        "midi": 72,
        "time": 73.8,
        "duration": 0.3,
        "velocity": 1,
        "hand": "right"
      },
      {
        "midi": 42,
        "time": 74.1,
        "duration": 0.15,
        "velocity": 0.63,
        "hand": "left"
      },
      {
        "midi": 59,
        "time": 74.1,
        "duration": 0.15,
        "velocity": 0.97,
        "hand": "left"
      },
      {
        "midi": 71,
        "time": 74.1,
        "duration": 0.3,
        "velocity": 1,
        "hand": "right"
      },
      {
        "midi": 44,
        "time": 74.25,
        "duration": 0.15,
        "velocity": 0.63,
        "hand": "left"
      },
      {
        "midi": 46,
        "time": 74.25,
        "duration": 0.15,
        "velocity": 0.63,
        "hand": "left"
      },
      {
        "midi": 56,
        "time": 74.25,
        "duration": 0.15,
        "velocity": 0.63,
        "hand": "left"
      },
      {
        "midi": 38,
        "time": 74.4,
        "duration": 0.15,
        "velocity": 0.63,
        "hand": "left"
      },
      {
        "midi": 57,
        "time": 74.4,
        "duration": 0.15,
        "velocity": 1,
        "hand": "left"
      },
      {
        "midi": 69,
        "time": 74.4,
        "duration": 0.15,
        "velocity": 1,
        "hand": "right"
      },
      {
        "midi": 42,
        "time": 74.7,
        "duration": 0.15,
        "velocity": 0.63,
        "hand": "left"
      },
      {
        "midi": 66,
        "time": 74.7,
        "duration": 0.15,
        "velocity": 1,
        "hand": "right"
      },
      {
        "midi": 91,
        "time": 74.7,
        "duration": 0.15,
        "velocity": 0.68,
        "hand": "right"
      },
      {
        "midi": 50,
        "time": 74.85,
        "duration": 0.15,
        "velocity": 0.89,
        "hand": "left"
      },
      {
        "midi": 64,
        "time": 74.85,
        "duration": 0.15,
        "velocity": 0.94,
        "hand": "right"
      },
      {
        "midi": 90,
        "time": 74.85,
        "duration": 0.15,
        "velocity": 0.92,
        "hand": "right"
      },
      {
        "midi": 38,
        "time": 75,
        "duration": 0.3,
        "velocity": 1,
        "hand": "left"
      },
      {
        "midi": 50,
        "time": 75,
        "duration": 0.15,
        "velocity": 1,
        "hand": "left"
      },
      {
        "midi": 74,
        "time": 75,
        "duration": 0.15,
        "velocity": 1,
        "hand": "right"
      },
      {
        "midi": 42,
        "time": 75.3,
        "duration": 0.15,
        "velocity": 0.63,
        "hand": "left"
      },
      {
        "midi": 62,
        "time": 75.3,
        "duration": 0.15,
        "velocity": 0.94,
        "hand": "right"
      },
      {
        "midi": 91,
        "time": 75.3,
        "duration": 0.15,
        "velocity": 0.92,
        "hand": "right"
      },
      {
        "midi": 61,
        "time": 75.45,
        "duration": 0.15,
        "velocity": 0.94,
        "hand": "right"
      },
      {
        "midi": 64,
        "time": 75.45,
        "duration": 0.15,
        "velocity": 0.63,
        "hand": "right"
      },
      {
        "midi": 38,
        "time": 75.6,
        "duration": 0.15,
        "velocity": 0.63,
        "hand": "left"
      },
      {
        "midi": 60,
        "time": 75.6,
        "duration": 0.6,
        "velocity": 0.94,
        "hand": "right"
      },
      {
        "midi": 93,
        "time": 75.6,
        "duration": 0.6,
        "velocity": 0.69,
        "hand": "right"
      },
      {
        "midi": 57,
        "time": 75.75,
        "duration": 0.15,
        "velocity": 0.99,
        "hand": "left"
      },
      {
        "midi": 62,
        "time": 75.75,
        "duration": 0.15,
        "velocity": 1,
        "hand": "right"
      },
      {
        "midi": 66,
        "time": 75.75,
        "duration": 0.15,
        "velocity": 1,
        "hand": "right"
      },
      {
        "midi": 42,
        "time": 75.9,
        "duration": 0.15,
        "velocity": 0.63,
        "hand": "left"
      },
      {
        "midi": 50,
        "time": 75.9,
        "duration": 0.15,
        "velocity": 0.97,
        "hand": "left"
      },
      {
        "midi": 69,
        "time": 75.9,
        "duration": 0.15,
        "velocity": 0.63,
        "hand": "right"
      },
      {
        "midi": 67,
        "time": 76.05,
        "duration": 0.15,
        "velocity": 0.63,
        "hand": "right"
      },
      {
        "midi": 38,
        "time": 76.2,
        "duration": 0.3,
        "velocity": 0.63,
        "hand": "left"
      },
      {
        "midi": 57,
        "time": 76.2,
        "duration": 0.15,
        "velocity": 1,
        "hand": "left"
      },
      {
        "midi": 78,
        "time": 76.2,
        "duration": 0.3,
        "velocity": 1,
        "hand": "right"
      },
      {
        "midi": 52,
        "time": 76.35,
        "duration": 0.3,
        "velocity": 0.99,
        "hand": "left"
      },
      {
        "midi": 76,
        "time": 76.35,
        "duration": 0.3,
        "velocity": 0.99,
        "hand": "right"
      },
      {
        "midi": 42,
        "time": 76.5,
        "duration": 0.15,
        "velocity": 0.63,
        "hand": "left"
      },
      {
        "midi": 62,
        "time": 76.5,
        "duration": 0.15,
        "velocity": 1,
        "hand": "right"
      },
      {
        "midi": 76,
        "time": 76.5,
        "duration": 0.3,
        "velocity": 1,
        "hand": "right"
      },
      {
        "midi": 50,
        "time": 76.65,
        "duration": 0.9,
        "velocity": 0.99,
        "hand": "left"
      },
      {
        "midi": 64,
        "time": 76.65,
        "duration": 0.15,
        "velocity": 0.63,
        "hand": "right"
      },
      {
        "midi": 74,
        "time": 76.65,
        "duration": 0.9,
        "velocity": 0.99,
        "hand": "right"
      },
      {
        "midi": 38,
        "time": 76.8,
        "duration": 0.3,
        "velocity": 1,
        "hand": "left"
      },
      {
        "midi": 62,
        "time": 76.8,
        "duration": 0.3,
        "velocity": 0.63,
        "hand": "right"
      },
      {
        "midi": 74,
        "time": 76.8,
        "duration": 0.9,
        "velocity": 1,
        "hand": "right"
      },
      {
        "midi": 42,
        "time": 77.1,
        "duration": 0.15,
        "velocity": 0.63,
        "hand": "left"
      },
      {
        "midi": 66,
        "time": 77.1,
        "duration": 0.15,
        "velocity": 0.94,
        "hand": "right"
      },
      {
        "midi": 91,
        "time": 77.1,
        "duration": 0.15,
        "velocity": 0.73,
        "hand": "right"
      },
      {
        "midi": 44,
        "time": 77.25,
        "duration": 0.15,
        "velocity": 0.63,
        "hand": "left"
      },
      {
        "midi": 62,
        "time": 77.25,
        "duration": 0.15,
        "velocity": 0.65,
        "hand": "right"
      },
      {
        "midi": 72,
        "time": 77.25,
        "duration": 0.15,
        "velocity": 0.84,
        "hand": "right"
      },
      {
        "midi": 38,
        "time": 77.4,
        "duration": 0.15,
        "velocity": 0.63,
        "hand": "left"
      },
      {
        "midi": 64,
        "time": 77.4,
        "duration": 0.3,
        "velocity": 0.63,
        "hand": "right"
      },
      {
        "midi": 93,
        "time": 77.4,
        "duration": 0.15,
        "velocity": 0.81,
        "hand": "right"
      },
      {
        "midi": 42,
        "time": 77.7,
        "duration": 0.15,
        "velocity": 0.63,
        "hand": "left"
      },
      {
        "midi": 64,
        "time": 77.7,
        "duration": 0.3,
        "velocity": 1,
        "hand": "right"
      },
      {
        "midi": 93,
        "time": 77.7,
        "duration": 0.15,
        "velocity": 0.92,
        "hand": "right"
      },
      {
        "midi": 90,
        "time": 77.85,
        "duration": 0.15,
        "velocity": 0.92,
        "hand": "right"
      },
      {
        "midi": 38,
        "time": 78,
        "duration": 0.15,
        "velocity": 0.63,
        "hand": "left"
      },
      {
        "midi": 62,
        "time": 78,
        "duration": 0.15,
        "velocity": 0.68,
        "hand": "right"
      },
      {
        "midi": 86,
        "time": 78,
        "duration": 0.15,
        "velocity": 0.92,
        "hand": "right"
      },
      {
        "midi": 42,
        "time": 78.3,
        "duration": 0.15,
        "velocity": 0.63,
        "hand": "left"
      },
      {
        "midi": 66,
        "time": 78.3,
        "duration": 0.15,
        "velocity": 0.89,
        "hand": "right"
      },
      {
        "midi": 90,
        "time": 78.3,
        "duration": 0.15,
        "velocity": 0.92,
        "hand": "right"
      },
      {
        "midi": 38,
        "time": 78.6,
        "duration": 0.3,
        "velocity": 0.63,
        "hand": "left"
      },
      {
        "midi": 62,
        "time": 78.6,
        "duration": 0.15,
        "velocity": 1,
        "hand": "right"
      },
      {
        "midi": 86,
        "time": 78.6,
        "duration": 0.15,
        "velocity": 0.92,
        "hand": "right"
      },
      {
        "midi": 42,
        "time": 78.9,
        "duration": 0.3,
        "velocity": 0.63,
        "hand": "left"
      },
      {
        "midi": 62,
        "time": 78.9,
        "duration": 0.15,
        "velocity": 0.99,
        "hand": "right"
      },
      {
        "midi": 88,
        "time": 78.9,
        "duration": 0.15,
        "velocity": 0.92,
        "hand": "right"
      },
      {
        "midi": 90,
        "time": 79.05,
        "duration": 0.15,
        "velocity": 0.68,
        "hand": "right"
      },
      {
        "midi": 38,
        "time": 79.2,
        "duration": 0.15,
        "velocity": 0.63,
        "hand": "left"
      },
      {
        "midi": 67,
        "time": 79.2,
        "duration": 0.15,
        "velocity": 1,
        "hand": "right"
      },
      {
        "midi": 91,
        "time": 79.2,
        "duration": 0.3,
        "velocity": 0.92,
        "hand": "right"
      },
      {
        "midi": 42,
        "time": 79.5,
        "duration": 0.15,
        "velocity": 0.63,
        "hand": "left"
      },
      {
        "midi": 62,
        "time": 79.5,
        "duration": 0.3,
        "velocity": 0.63,
        "hand": "right"
      },
      {
        "midi": 83,
        "time": 79.5,
        "duration": 0.15,
        "velocity": 0.92,
        "hand": "right"
      },
      {
        "midi": 62,
        "time": 79.65,
        "duration": 0.15,
        "velocity": 0.79,
        "hand": "right"
      },
      {
        "midi": 71,
        "time": 79.65,
        "duration": 0.15,
        "velocity": 0.89,
        "hand": "right"
      },
      {
        "midi": 84,
        "time": 79.65,
        "duration": 0.15,
        "velocity": 0.92,
        "hand": "right"
      },
      {
        "midi": 38,
        "time": 79.8,
        "duration": 0.3,
        "velocity": 1,
        "hand": "left"
      },
      {
        "midi": 67,
        "time": 79.8,
        "duration": 0.3,
        "velocity": 0.63,
        "hand": "right"
      },
      {
        "midi": 86,
        "time": 79.8,
        "duration": 0.15,
        "velocity": 0.92,
        "hand": "right"
      },
      {
        "midi": 42,
        "time": 80.1,
        "duration": 0.15,
        "velocity": 0.63,
        "hand": "left"
      },
      {
        "midi": 62,
        "time": 80.1,
        "duration": 0.15,
        "velocity": 1,
        "hand": "right"
      },
      {
        "midi": 79,
        "time": 80.1,
        "duration": 0.6,
        "velocity": 0.92,
        "hand": "right"
      },
      {
        "midi": 38,
        "time": 80.4,
        "duration": 0.15,
        "velocity": 0.63,
        "hand": "left"
      },
      {
        "midi": 64,
        "time": 80.4,
        "duration": 0.15,
        "velocity": 1,
        "hand": "right"
      },
      {
        "midi": 71,
        "time": 80.4,
        "duration": 0.6,
        "velocity": 1,
        "hand": "right"
      },
      {
        "midi": 62,
        "time": 80.55,
        "duration": 0.15,
        "velocity": 0.57,
        "hand": "right"
      },
      {
        "midi": 64,
        "time": 80.55,
        "duration": 0.15,
        "velocity": 0.54,
        "hand": "right"
      },
      {
        "midi": 42,
        "time": 80.7,
        "duration": 0.15,
        "velocity": 0.63,
        "hand": "left"
      },
      {
        "midi": 62,
        "time": 80.7,
        "duration": 0.15,
        "velocity": 0.92,
        "hand": "right"
      },
      {
        "midi": 71,
        "time": 80.7,
        "duration": 0.15,
        "velocity": 0.97,
        "hand": "right"
      },
      {
        "midi": 38,
        "time": 81,
        "duration": 0.3,
        "velocity": 0.63,
        "hand": "left"
      },
      {
        "midi": 62,
        "time": 81,
        "duration": 0.3,
        "velocity": 1,
        "hand": "right"
      },
      {
        "midi": 71,
        "time": 81,
        "duration": 0.6,
        "velocity": 1,
        "hand": "right"
      },
      {
        "midi": 42,
        "time": 81.3,
        "duration": 0.15,
        "velocity": 0.63,
        "hand": "left"
      },
      {
        "midi": 62,
        "time": 81.3,
        "duration": 0.15,
        "velocity": 1,
        "hand": "right"
      },
      {
        "midi": 71,
        "time": 81.3,
        "duration": 0.15,
        "velocity": 1,
        "hand": "right"
      },
      {
        "midi": 38,
        "time": 81.6,
        "duration": 0.15,
        "velocity": 0.63,
        "hand": "left"
      },
      {
        "midi": 60,
        "time": 81.6,
        "duration": 0.15,
        "velocity": 0.63,
        "hand": "right"
      },
      {
        "midi": 74,
        "time": 81.6,
        "duration": 0.15,
        "velocity": 0.89,
        "hand": "right"
      },
      {
        "midi": 42,
        "time": 81.9,
        "duration": 0.15,
        "velocity": 0.63,
        "hand": "left"
      },
      {
        "midi": 62,
        "time": 81.9,
        "duration": 0.15,
        "velocity": 0.87,
        "hand": "right"
      },
      {
        "midi": 86,
        "time": 81.9,
        "duration": 0.15,
        "velocity": 0.84,
        "hand": "right"
      },
      {
        "midi": 62,
        "time": 82.05,
        "duration": 0.15,
        "velocity": 0.81,
        "hand": "right"
      },
      {
        "midi": 72,
        "time": 82.05,
        "duration": 0.15,
        "velocity": 0.96,
        "hand": "right"
      },
      {
        "midi": 88,
        "time": 82.05,
        "duration": 0.15,
        "velocity": 0.68,
        "hand": "right"
      },
      {
        "midi": 38,
        "time": 82.2,
        "duration": 0.3,
        "velocity": 1,
        "hand": "left"
      },
      {
        "midi": 64,
        "time": 82.2,
        "duration": 0.15,
        "velocity": 1,
        "hand": "right"
      },
      {
        "midi": 90,
        "time": 82.2,
        "duration": 0.15,
        "velocity": 0.92,
        "hand": "right"
      },
      {
        "midi": 42,
        "time": 82.5,
        "duration": 0.3,
        "velocity": 0.63,
        "hand": "left"
      },
      {
        "midi": 64,
        "time": 82.5,
        "duration": 0.3,
        "velocity": 0.91,
        "hand": "right"
      },
      {
        "midi": 90,
        "time": 82.5,
        "duration": 0.15,
        "velocity": 0.92,
        "hand": "right"
      },
      {
        "midi": 38,
        "time": 82.8,
        "duration": 0.3,
        "velocity": 0.63,
        "hand": "left"
      },
      {
        "midi": 62,
        "time": 82.8,
        "duration": 0.15,
        "velocity": 0.79,
        "hand": "right"
      },
      {
        "midi": 86,
        "time": 82.8,
        "duration": 0.6,
        "velocity": 0.77,
        "hand": "right"
      },
      {
        "midi": 42,
        "time": 83.1,
        "duration": 0.15,
        "velocity": 0.63,
        "hand": "left"
      },
      {
        "midi": 62,
        "time": 83.1,
        "duration": 0.15,
        "velocity": 0.61,
        "hand": "right"
      },
      {
        "midi": 72,
        "time": 83.1,
        "duration": 0.15,
        "velocity": 0.91,
        "hand": "right"
      },
      {
        "midi": 38,
        "time": 83.4,
        "duration": 0.15,
        "velocity": 1,
        "hand": "left"
      },
      {
        "midi": 66,
        "time": 83.4,
        "duration": 0.6,
        "velocity": 1,
        "hand": "right"
      },
      {
        "midi": 86,
        "time": 83.4,
        "duration": 0.15,
        "velocity": 0.84,
        "hand": "right"
      },
      {
        "midi": 42,
        "time": 83.7,
        "duration": 0.3,
        "velocity": 0.63,
        "hand": "left"
      },
      {
        "midi": 62,
        "time": 83.7,
        "duration": 0.15,
        "velocity": 0.85,
        "hand": "right"
      },
      {
        "midi": 72,
        "time": 83.7,
        "duration": 0.15,
        "velocity": 0.84,
        "hand": "right"
      },
      {
        "midi": 67,
        "time": 83.85,
        "duration": 0.3,
        "velocity": 1,
        "hand": "right"
      },
      {
        "midi": 38,
        "time": 84,
        "duration": 0.15,
        "velocity": 0.63,
        "hand": "left"
      },
      {
        "midi": 67,
        "time": 84,
        "duration": 0.15,
        "velocity": 1,
        "hand": "right"
      },
      {
        "midi": 83,
        "time": 84,
        "duration": 0.3,
        "velocity": 0.92,
        "hand": "right"
      },
      {
        "midi": 42,
        "time": 84.3,
        "duration": 0.15,
        "velocity": 0.63,
        "hand": "left"
      },
      {
        "midi": 62,
        "time": 84.3,
        "duration": 0.15,
        "velocity": 0.99,
        "hand": "right"
      },
      {
        "midi": 74,
        "time": 84.3,
        "duration": 0.15,
        "velocity": 1,
        "hand": "right"
      },
      {
        "midi": 44,
        "time": 84.45,
        "duration": 0.15,
        "velocity": 0.63,
        "hand": "left"
      },
      {
        "midi": 71,
        "time": 84.45,
        "duration": 0.15,
        "velocity": 0.63,
        "hand": "right"
      },
      {
        "midi": 76,
        "time": 84.45,
        "duration": 0.15,
        "velocity": 0.94,
        "hand": "right"
      },
      {
        "midi": 38,
        "time": 84.6,
        "duration": 0.15,
        "velocity": 1,
        "hand": "left"
      },
      {
        "midi": 68,
        "time": 84.6,
        "duration": 0.15,
        "velocity": 1,
        "hand": "right"
      },
      {
        "midi": 80,
        "time": 84.6,
        "duration": 0.6,
        "velocity": 0.96,
        "hand": "right"
      },
      {
        "midi": 62,
        "time": 84.75,
        "duration": 0.15,
        "velocity": 0.63,
        "hand": "right"
      },
      {
        "midi": 71,
        "time": 84.75,
        "duration": 0.3,
        "velocity": 0.65,
        "hand": "right"
      },
      {
        "midi": 74,
        "time": 84.75,
        "duration": 0.3,
        "velocity": 1,
        "hand": "right"
      },
      {
        "midi": 42,
        "time": 84.9,
        "duration": 0.3,
        "velocity": 0.63,
        "hand": "left"
      },
      {
        "midi": 62,
        "time": 84.9,
        "duration": 0.3,
        "velocity": 1,
        "hand": "right"
      },
      {
        "midi": 71,
        "time": 84.9,
        "duration": 0.15,
        "velocity": 1,
        "hand": "right"
      },
      {
        "midi": 69,
        "time": 85.05,
        "duration": 0.3,
        "velocity": 0.65,
        "hand": "right"
      },
      {
        "midi": 72,
        "time": 85.05,
        "duration": 0.15,
        "velocity": 0.92,
        "hand": "right"
      },
      {
        "midi": 38,
        "time": 85.2,
        "duration": 0.15,
        "velocity": 0.63,
        "hand": "left"
      },
      {
        "midi": 60,
        "time": 85.2,
        "duration": 0.15,
        "velocity": 1,
        "hand": "right"
      },
      {
        "midi": 81,
        "time": 85.2,
        "duration": 0.15,
        "velocity": 0.83,
        "hand": "right"
      },
      {
        "midi": 46,
        "time": 85.35,
        "duration": 0.15,
        "velocity": 0.63,
        "hand": "left"
      },
      {
        "midi": 69,
        "time": 85.35,
        "duration": 0.15,
        "velocity": 1,
        "hand": "right"
      },
      {
        "midi": 42,
        "time": 85.5,
        "duration": 0.3,
        "velocity": 0.63,
        "hand": "left"
      },
      {
        "midi": 64,
        "time": 85.5,
        "duration": 0.15,
        "velocity": 0.66,
        "hand": "right"
      },
      {
        "midi": 81,
        "time": 85.5,
        "duration": 0.15,
        "velocity": 0.87,
        "hand": "right"
      },
      {
        "midi": 44,
        "time": 85.65,
        "duration": 0.15,
        "velocity": 0.63,
        "hand": "left"
      },
      {
        "midi": 66,
        "time": 85.65,
        "duration": 0.15,
        "velocity": 0.99,
        "hand": "right"
      },
      {
        "midi": 79,
        "time": 85.65,
        "duration": 0.15,
        "velocity": 0.79,
        "hand": "right"
      },
      {
        "midi": 38,
        "time": 85.8,
        "duration": 0.3,
        "velocity": 1,
        "hand": "left"
      },
      {
        "midi": 74,
        "time": 85.8,
        "duration": 0.3,
        "velocity": 1,
        "hand": "right"
      },
      {
        "midi": 78,
        "time": 85.8,
        "duration": 0.15,
        "velocity": 0.89,
        "hand": "right"
      },
      {
        "midi": 60,
        "time": 85.95,
        "duration": 0.3,
        "velocity": 0.98,
        "hand": "right"
      },
      {
        "midi": 72,
        "time": 85.95,
        "duration": 0.45,
        "velocity": 0.94,
        "hand": "right"
      },
      {
        "midi": 74,
        "time": 85.95,
        "duration": 0.15,
        "velocity": 0.94,
        "hand": "right"
      },
      {
        "midi": 42,
        "time": 86.1,
        "duration": 0.3,
        "velocity": 0.63,
        "hand": "left"
      },
      {
        "midi": 60,
        "time": 86.1,
        "duration": 0.3,
        "velocity": 0.63,
        "hand": "right"
      },
      {
        "midi": 78,
        "time": 86.1,
        "duration": 0.15,
        "velocity": 0.92,
        "hand": "right"
      },
      {
        "midi": 71,
        "time": 86.25,
        "duration": 0.15,
        "velocity": 1,
        "hand": "right"
      },
      {
        "midi": 81,
        "time": 86.25,
        "duration": 0.15,
        "velocity": 0.79,
        "hand": "right"
      },
      {
        "midi": 38,
        "time": 86.4,
        "duration": 0.15,
        "velocity": 0.63,
        "hand": "left"
      },
      {
        "midi": 59,
        "time": 86.4,
        "duration": 0.15,
        "velocity": 0.63,
        "hand": "left"
      },
      {
        "midi": 74,
        "time": 86.4,
        "duration": 0.6,
        "velocity": 1,
        "hand": "right"
      },
      {
        "midi": 42,
        "time": 86.7,
        "duration": 0.3,
        "velocity": 0.63,
        "hand": "left"
      },
      {
        "midi": 67,
        "time": 86.7,
        "duration": 0.15,
        "velocity": 1,
        "hand": "right"
      },
      {
        "midi": 74,
        "time": 86.7,
        "duration": 0.15,
        "velocity": 1,
        "hand": "right"
      },
      {
        "midi": 44,
        "time": 86.85,
        "duration": 0.15,
        "velocity": 0.63,
        "hand": "left"
      },
      {
        "midi": 55,
        "time": 86.85,
        "duration": 0.15,
        "velocity": 0.63,
        "hand": "left"
      },
      {
        "midi": 67,
        "time": 86.85,
        "duration": 0.15,
        "velocity": 1,
        "hand": "right"
      },
      {
        "midi": 38,
        "time": 87,
        "duration": 0.45,
        "velocity": 0.63,
        "hand": "left"
      },
      {
        "midi": 68,
        "time": 87,
        "duration": 0.15,
        "velocity": 1,
        "hand": "right"
      },
      {
        "midi": 76,
        "time": 87,
        "duration": 0.6,
        "velocity": 0.94,
        "hand": "right"
      },
      {
        "midi": 42,
        "time": 87.3,
        "duration": 0.3,
        "velocity": 0.63,
        "hand": "left"
      },
      {
        "midi": 68,
        "time": 87.3,
        "duration": 0.15,
        "velocity": 1,
        "hand": "right"
      },
      {
        "midi": 76,
        "time": 87.3,
        "duration": 0.15,
        "velocity": 1,
        "hand": "right"
      },
      {
        "midi": 59,
        "time": 87.45,
        "duration": 0.15,
        "velocity": 0.63,
        "hand": "left"
      },
      {
        "midi": 62,
        "time": 87.45,
        "duration": 0.15,
        "velocity": 0.73,
        "hand": "right"
      },
      {
        "midi": 71,
        "time": 87.45,
        "duration": 0.15,
        "velocity": 0.94,
        "hand": "right"
      },
      {
        "midi": 38,
        "time": 87.6,
        "duration": 0.15,
        "velocity": 0.63,
        "hand": "left"
      },
      {
        "midi": 57,
        "time": 87.6,
        "duration": 0.15,
        "velocity": 0.63,
        "hand": "left"
      },
      {
        "midi": 76,
        "time": 87.6,
        "duration": 0.15,
        "velocity": 1,
        "hand": "right"
      },
      {
        "midi": 42,
        "time": 87.9,
        "duration": 0.3,
        "velocity": 0.63,
        "hand": "left"
      },
      {
        "midi": 65,
        "time": 87.9,
        "duration": 0.15,
        "velocity": 0.75,
        "hand": "right"
      },
      {
        "midi": 81,
        "time": 87.9,
        "duration": 0.15,
        "velocity": 0.89,
        "hand": "right"
      },
      {
        "midi": 44,
        "time": 88.05,
        "duration": 0.15,
        "velocity": 0.63,
        "hand": "left"
      },
      {
        "midi": 57,
        "time": 88.05,
        "duration": 0.15,
        "velocity": 0.63,
        "hand": "left"
      },
      {
        "midi": 72,
        "time": 88.05,
        "duration": 0.15,
        "velocity": 0.91,
        "hand": "right"
      },
      {
        "midi": 38,
        "time": 88.2,
        "duration": 0.3,
        "velocity": 1,
        "hand": "left"
      },
      {
        "midi": 62,
        "time": 88.2,
        "duration": 0.15,
        "velocity": 0.76,
        "hand": "right"
      },
      {
        "midi": 78,
        "time": 88.2,
        "duration": 0.15,
        "velocity": 1,
        "hand": "right"
      },
      {
        "midi": 42,
        "time": 88.5,
        "duration": 0.3,
        "velocity": 0.63,
        "hand": "left"
      },
      {
        "midi": 72,
        "time": 88.5,
        "duration": 0.15,
        "velocity": 1,
        "hand": "right"
      },
      {
        "midi": 86,
        "time": 88.5,
        "duration": 0.15,
        "velocity": 0.54,
        "hand": "right"
      },
      {
        "midi": 67,
        "time": 88.65,
        "duration": 0.15,
        "velocity": 0.84,
        "hand": "right"
      },
      {
        "midi": 83,
        "time": 88.65,
        "duration": 0.15,
        "velocity": 0.61,
        "hand": "right"
      },
      {
        "midi": 38,
        "time": 88.8,
        "duration": 0.3,
        "velocity": 0.63,
        "hand": "left"
      },
      {
        "midi": 55,
        "time": 88.8,
        "duration": 0.15,
        "velocity": 1,
        "hand": "left"
      },
      {
        "midi": 74,
        "time": 88.8,
        "duration": 0.15,
        "velocity": 1,
        "hand": "right"
      },
      {
        "midi": 42,
        "time": 89.1,
        "duration": 0.15,
        "velocity": 0.63,
        "hand": "left"
      },
      {
        "midi": 71,
        "time": 89.1,
        "duration": 0.15,
        "velocity": 1,
        "hand": "right"
      },
      {
        "midi": 86,
        "time": 89.1,
        "duration": 0.15,
        "velocity": 0.89,
        "hand": "right"
      },
      {
        "midi": 62,
        "time": 89.25,
        "duration": 0.15,
        "velocity": 0.63,
        "hand": "right"
      },
      {
        "midi": 71,
        "time": 89.25,
        "duration": 0.15,
        "velocity": 0.85,
        "hand": "right"
      },
      {
        "midi": 86,
        "time": 89.25,
        "duration": 0.15,
        "velocity": 0.63,
        "hand": "right"
      },
      {
        "midi": 38,
        "time": 89.4,
        "duration": 0.45,
        "velocity": 0.63,
        "hand": "left"
      },
      {
        "midi": 68,
        "time": 89.4,
        "duration": 0.15,
        "velocity": 0.96,
        "hand": "right"
      },
      {
        "midi": 88,
        "time": 89.4,
        "duration": 0.3,
        "velocity": 0.99,
        "hand": "right"
      },
      {
        "midi": 62,
        "time": 89.55,
        "duration": 0.15,
        "velocity": 0.63,
        "hand": "right"
      },
      {
        "midi": 64,
        "time": 89.55,
        "duration": 0.15,
        "velocity": 0.63,
        "hand": "right"
      },
      {
        "midi": 86,
        "time": 89.55,
        "duration": 0.15,
        "velocity": 0.47,
        "hand": "right"
      },
      {
        "midi": 42,
        "time": 89.7,
        "duration": 0.15,
        "velocity": 0.63,
        "hand": "left"
      },
      {
        "midi": 70,
        "time": 89.7,
        "duration": 0.15,
        "velocity": 1,
        "hand": "right"
      },
      {
        "midi": 86,
        "time": 89.7,
        "duration": 0.3,
        "velocity": 0.99,
        "hand": "right"
      },
      {
        "midi": 72,
        "time": 89.85,
        "duration": 0.15,
        "velocity": 1,
        "hand": "right"
      },
      {
        "midi": 84,
        "time": 89.85,
        "duration": 0.15,
        "velocity": 1,
        "hand": "right"
      },
      {
        "midi": 38,
        "time": 90,
        "duration": 0.15,
        "velocity": 0.63,
        "hand": "left"
      },
      {
        "midi": 57,
        "time": 90,
        "duration": 0.15,
        "velocity": 0.99,
        "hand": "left"
      },
      {
        "midi": 76,
        "time": 90,
        "duration": 0.15,
        "velocity": 1,
        "hand": "right"
      },
      {
        "midi": 69,
        "time": 90.15,
        "duration": 0.15,
        "velocity": 0.99,
        "hand": "right"
      },
      {
        "midi": 72,
        "time": 90.15,
        "duration": 0.15,
        "velocity": 1,
        "hand": "right"
      },
      {
        "midi": 44,
        "time": 90.3,
        "duration": 0.15,
        "velocity": 0.63,
        "hand": "left"
      },
      {
        "midi": 72,
        "time": 90.3,
        "duration": 0.15,
        "velocity": 1,
        "hand": "right"
      },
      {
        "midi": 84,
        "time": 90.3,
        "duration": 0.15,
        "velocity": 1,
        "hand": "right"
      },
      {
        "midi": 44,
        "time": 90.45,
        "duration": 0.15,
        "velocity": 0.63,
        "hand": "left"
      },
      {
        "midi": 74,
        "time": 90.45,
        "duration": 0.15,
        "velocity": 1,
        "hand": "right"
      },
      {
        "midi": 81,
        "time": 90.45,
        "duration": 0.15,
        "velocity": 0.47,
        "hand": "right"
      },
      {
        "midi": 38,
        "time": 90.6,
        "duration": 0.3,
        "velocity": 1,
        "hand": "left"
      },
      {
        "midi": 62,
        "time": 90.6,
        "duration": 0.3,
        "velocity": 0.63,
        "hand": "right"
      },
      {
        "midi": 86,
        "time": 90.6,
        "duration": 0.15,
        "velocity": 0.97,
        "hand": "right"
      },
      {
        "midi": 72,
        "time": 90.75,
        "duration": 0.3,
        "velocity": 1,
        "hand": "right"
      },
      {
        "midi": 38,
        "time": 90.9,
        "duration": 0.15,
        "velocity": 0.63,
        "hand": "left"
      },
      {
        "midi": 69,
        "time": 90.9,
        "duration": 0.15,
        "velocity": 1,
        "hand": "right"
      },
      {
        "midi": 86,
        "time": 90.9,
        "duration": 0.15,
        "velocity": 1,
        "hand": "right"
      },
      {
        "midi": 72,
        "time": 91.05,
        "duration": 0.15,
        "velocity": 0.94,
        "hand": "right"
      },
      {
        "midi": 84,
        "time": 91.05,
        "duration": 0.15,
        "velocity": 0.94,
        "hand": "right"
      },
      {
        "midi": 38,
        "time": 91.2,
        "duration": 0.15,
        "velocity": 0.63,
        "hand": "left"
      },
      {
        "midi": 71,
        "time": 91.2,
        "duration": 0.15,
        "velocity": 1,
        "hand": "right"
      },
      {
        "midi": 83,
        "time": 91.2,
        "duration": 0.15,
        "velocity": 0.99,
        "hand": "right"
      },
      {
        "midi": 44,
        "time": 91.5,
        "duration": 0.15,
        "velocity": 0.63,
        "hand": "left"
      },
      {
        "midi": 71,
        "time": 91.5,
        "duration": 0.15,
        "velocity": 1,
        "hand": "right"
      },
      {
        "midi": 83,
        "time": 91.5,
        "duration": 0.15,
        "velocity": 0.47,
        "hand": "right"
      },
      {
        "midi": 44,
        "time": 91.65,
        "duration": 0.15,
        "velocity": 0.63,
        "hand": "left"
      },
      {
        "midi": 71,
        "time": 91.65,
        "duration": 0.15,
        "velocity": 0.65,
        "hand": "right"
      },
      {
        "midi": 79,
        "time": 91.65,
        "duration": 0.15,
        "velocity": 0.47,
        "hand": "right"
      },
      {
        "midi": 38,
        "time": 91.8,
        "duration": 0.15,
        "velocity": 0.63,
        "hand": "left"
      },
      {
        "midi": 68,
        "time": 91.8,
        "duration": 0.15,
        "velocity": 1,
        "hand": "right"
      },
      {
        "midi": 84,
        "time": 91.8,
        "duration": 0.15,
        "velocity": 0.47,
        "hand": "right"
      },
      {
        "midi": 38,
        "time": 92.1,
        "duration": 0.15,
        "velocity": 0.63,
        "hand": "left"
      },
      {
        "midi": 64,
        "time": 92.1,
        "duration": 0.15,
        "velocity": 0.63,
        "hand": "right"
      },
      {
        "midi": 84,
        "time": 92.1,
        "duration": 0.15,
        "velocity": 0.47,
        "hand": "right"
      },
      {
        "midi": 62,
        "time": 92.25,
        "duration": 0.15,
        "velocity": 0.63,
        "hand": "right"
      },
      {
        "midi": 71,
        "time": 92.25,
        "duration": 0.15,
        "velocity": 0.87,
        "hand": "right"
      },
      {
        "midi": 83,
        "time": 92.25,
        "duration": 0.15,
        "velocity": 0.47,
        "hand": "right"
      },
      {
        "midi": 38,
        "time": 92.4,
        "duration": 0.15,
        "velocity": 0.63,
        "hand": "left"
      },
      {
        "midi": 60,
        "time": 92.4,
        "duration": 0.15,
        "velocity": 0.63,
        "hand": "right"
      },
      {
        "midi": 81,
        "time": 92.4,
        "duration": 0.15,
        "velocity": 0.47,
        "hand": "right"
      },
      {
        "midi": 44,
        "time": 92.7,
        "duration": 0.15,
        "velocity": 0.63,
        "hand": "left"
      },
      {
        "midi": 60,
        "time": 92.7,
        "duration": 0.15,
        "velocity": 0.63,
        "hand": "right"
      },
      {
        "midi": 81,
        "time": 92.7,
        "duration": 0.15,
        "velocity": 0.47,
        "hand": "right"
      },
      {
        "midi": 44,
        "time": 92.85,
        "duration": 0.15,
        "velocity": 0.63,
        "hand": "left"
      },
      {
        "midi": 72,
        "time": 92.85,
        "duration": 0.15,
        "velocity": 0.79,
        "hand": "right"
      },
      {
        "midi": 81,
        "time": 92.85,
        "duration": 0.15,
        "velocity": 0.47,
        "hand": "right"
      },
      {
        "midi": 38,
        "time": 93,
        "duration": 0.3,
        "velocity": 1,
        "hand": "left"
      },
      {
        "midi": 66,
        "time": 93,
        "duration": 0.15,
        "velocity": 1,
        "hand": "right"
      },
      {
        "midi": 86,
        "time": 93,
        "duration": 0.15,
        "velocity": 0.47,
        "hand": "right"
      },
      {
        "midi": 46,
        "time": 93.3,
        "duration": 0.15,
        "velocity": 0.63,
        "hand": "left"
      },
      {
        "midi": 74,
        "time": 93.3,
        "duration": 0.15,
        "velocity": 1,
        "hand": "right"
      },
      {
        "midi": 86,
        "time": 93.3,
        "duration": 0.3,
        "velocity": 1,
        "hand": "right"
      },
      {
        "midi": 67,
        "time": 93.45,
        "duration": 0.15,
        "velocity": 1,
        "hand": "right"
      },
      {
        "midi": 38,
        "time": 93.6,
        "duration": 0.15,
        "velocity": 0.63,
        "hand": "left"
      },
      {
        "midi": 55,
        "time": 93.6,
        "duration": 0.6,
        "velocity": 0.97,
        "hand": "left"
      },
      {
        "midi": 79,
        "time": 93.6,
        "duration": 1.95,
        "velocity": 1,
        "hand": "right"
      },
      {
        "midi": 67,
        "time": 93.9,
        "duration": 0.15,
        "velocity": 0.79,
        "hand": "right"
      },
      {
        "midi": 38,
        "time": 94.2,
        "duration": 0.3,
        "velocity": 1,
        "hand": "left"
      },
      {
        "midi": 46,
        "time": 94.2,
        "duration": 0.15,
        "velocity": 0.63,
        "hand": "left"
      },
      {
        "midi": 71,
        "time": 94.2,
        "duration": 0.15,
        "velocity": 0.85,
        "hand": "right"
      },
      {
        "midi": 67,
        "time": 94.5,
        "duration": 0.15,
        "velocity": 0.79,
        "hand": "right"
      },
      {
        "midi": 71,
        "time": 94.5,
        "duration": 0.15,
        "velocity": 0.72,
        "hand": "right"
      },
      {
        "midi": 42,
        "time": 94.65,
        "duration": 0.15,
        "velocity": 0.63,
        "hand": "left"
      },
      {
        "midi": 50,
        "time": 94.65,
        "duration": 0.15,
        "velocity": 0.89,
        "hand": "left"
      },
      {
        "midi": 38,
        "time": 94.8,
        "duration": 0.15,
        "velocity": 0.63,
        "hand": "left"
      },
      {
        "midi": 46,
        "time": 94.8,
        "duration": 0.15,
        "velocity": 0.63,
        "hand": "left"
      },
      {
        "midi": 71,
        "time": 94.8,
        "duration": 0.15,
        "velocity": 1,
        "hand": "right"
      }
    ],
    "hard": [
      {
        "midi": 38,
        "time": 0,
        "duration": 0.75,
        "velocity": 0.63,
        "hand": "left"
      },
      {
        "midi": 43,
        "time": 0,
        "duration": 0.9,
        "velocity": 1,
        "hand": "left"
      },
      {
        "midi": 44,
        "time": 0,
        "duration": 0.075,
        "velocity": 0.63,
        "hand": "left"
      },
      {
        "midi": 51,
        "time": 0,
        "duration": 0.075,
        "velocity": 0.63,
        "hand": "left"
      },
      {
        "midi": 62,
        "time": 0,
        "duration": 0.075,
        "velocity": 0.92,
        "hand": "right"
      },
      {
        "midi": 67,
        "time": 0,
        "duration": 0.075,
        "velocity": 0.99,
        "hand": "right"
      },
      {
        "midi": 71,
        "time": 0,
        "duration": 0.075,
        "velocity": 0.97,
        "hand": "right"
      },
      {
        "midi": 71,
        "time": 0,
        "duration": 0.9,
        "velocity": 0.91,
        "hand": "right"
      },
      {
        "midi": 44,
        "time": 0.3,
        "duration": 0.075,
        "velocity": 0.63,
        "hand": "left"
      },
      {
        "midi": 62,
        "time": 0.3,
        "duration": 0.15,
        "velocity": 0.89,
        "hand": "right"
      },
      {
        "midi": 67,
        "time": 0.3,
        "duration": 0.075,
        "velocity": 1,
        "hand": "right"
      },
      {
        "midi": 71,
        "time": 0.3,
        "duration": 0.075,
        "velocity": 0.92,
        "hand": "right"
      },
      {
        "midi": 44,
        "time": 0.45,
        "duration": 0.15,
        "velocity": 0.63,
        "hand": "left"
      },
      {
        "midi": 62,
        "time": 0.45,
        "duration": 0.075,
        "velocity": 0.67,
        "hand": "right"
      },
      {
        "midi": 67,
        "time": 0.45,
        "duration": 0.075,
        "velocity": 0.92,
        "hand": "right"
      },
      {
        "midi": 71,
        "time": 0.45,
        "duration": 0.075,
        "velocity": 0.73,
        "hand": "right"
      },
      {
        "midi": 44,
        "time": 0.6,
        "duration": 0.075,
        "velocity": 0.63,
        "hand": "left"
      },
      {
        "midi": 62,
        "time": 0.6,
        "duration": 0.075,
        "velocity": 0.92,
        "hand": "right"
      },
      {
        "midi": 67,
        "time": 0.6,
        "duration": 0.075,
        "velocity": 1,
        "hand": "right"
      },
      {
        "midi": 71,
        "time": 0.6,
        "duration": 0.15,
        "velocity": 1,
        "hand": "right"
      },
      {
        "midi": 38,
        "time": 0.9,
        "duration": 0.3,
        "velocity": 1,
        "hand": "left"
      },
      {
        "midi": 42,
        "time": 0.9,
        "duration": 0.3,
        "velocity": 0.63,
        "hand": "left"
      },
      {
        "midi": 46,
        "time": 0.9,
        "duration": 0.075,
        "velocity": 0.63,
        "hand": "left"
      },
      {
        "midi": 64,
        "time": 0.9,
        "duration": 0.075,
        "velocity": 0.89,
        "hand": "right"
      },
      {
        "midi": 67,
        "time": 0.9,
        "duration": 0.15,
        "velocity": 1,
        "hand": "right"
      },
      {
        "midi": 72,
        "time": 0.9,
        "duration": 0.15,
        "velocity": 1,
        "hand": "right"
      },
      {
        "midi": 72,
        "time": 0.9,
        "duration": 0.3,
        "velocity": 0.87,
        "hand": "right"
      },
      {
        "midi": 38,
        "time": 1.2,
        "duration": 0.9,
        "velocity": 0.63,
        "hand": "left"
      },
      {
        "midi": 43,
        "time": 1.2,
        "duration": 0.9,
        "velocity": 1,
        "hand": "left"
      },
      {
        "midi": 44,
        "time": 1.2,
        "duration": 0.075,
        "velocity": 0.63,
        "hand": "left"
      },
      {
        "midi": 62,
        "time": 1.2,
        "duration": 0.15,
        "velocity": 1,
        "hand": "right"
      },
      {
        "midi": 67,
        "time": 1.2,
        "duration": 0.075,
        "velocity": 1,
        "hand": "right"
      },
      {
        "midi": 71,
        "time": 1.2,
        "duration": 0.075,
        "velocity": 1,
        "hand": "right"
      },
      {
        "midi": 71,
        "time": 1.2,
        "duration": 0.9,
        "velocity": 0.93,
        "hand": "right"
      },
      {
        "midi": 44,
        "time": 1.5,
        "duration": 0.075,
        "velocity": 0.63,
        "hand": "left"
      },
      {
        "midi": 62,
        "time": 1.5,
        "duration": 0.15,
        "velocity": 0.97,
        "hand": "right"
      },
      {
        "midi": 67,
        "time": 1.5,
        "duration": 0.075,
        "velocity": 1,
        "hand": "right"
      },
      {
        "midi": 71,
        "time": 1.5,
        "duration": 0.075,
        "velocity": 0.97,
        "hand": "right"
      },
      {
        "midi": 44,
        "time": 1.65,
        "duration": 0.075,
        "velocity": 0.63,
        "hand": "left"
      },
      {
        "midi": 62,
        "time": 1.65,
        "duration": 0.075,
        "velocity": 0.68,
        "hand": "right"
      },
      {
        "midi": 67,
        "time": 1.65,
        "duration": 0.075,
        "velocity": 0.87,
        "hand": "right"
      },
      {
        "midi": 71,
        "time": 1.65,
        "duration": 0.075,
        "velocity": 0.83,
        "hand": "right"
      },
      {
        "midi": 44,
        "time": 1.8,
        "duration": 0.15,
        "velocity": 0.63,
        "hand": "left"
      },
      {
        "midi": 62,
        "time": 1.8,
        "duration": 0.15,
        "velocity": 0.79,
        "hand": "right"
      },
      {
        "midi": 67,
        "time": 1.8,
        "duration": 0.15,
        "velocity": 0.97,
        "hand": "right"
      },
      {
        "midi": 71,
        "time": 1.8,
        "duration": 0.15,
        "velocity": 0.89,
        "hand": "right"
      },
      {
        "midi": 38,
        "time": 2.1,
        "duration": 0.15,
        "velocity": 1,
        "hand": "left"
      },
      {
        "midi": 42,
        "time": 2.1,
        "duration": 0.15,
        "velocity": 0.63,
        "hand": "left"
      },
      {
        "midi": 46,
        "time": 2.1,
        "duration": 0.075,
        "velocity": 0.63,
        "hand": "left"
      },
      {
        "midi": 64,
        "time": 2.1,
        "duration": 0.075,
        "velocity": 1,
        "hand": "right"
      },
      {
        "midi": 67,
        "time": 2.1,
        "duration": 0.075,
        "velocity": 0.97,
        "hand": "right"
      },
      {
        "midi": 68,
        "time": 2.1,
        "duration": 0.075,
        "velocity": 0.94,
        "hand": "right"
      },
      {
        "midi": 72,
        "time": 2.1,
        "duration": 0.15,
        "velocity": 1,
        "hand": "right"
      },
      {
        "midi": 38,
        "time": 2.4,
        "duration": 0.3,
        "velocity": 0.63,
        "hand": "left"
      },
      {
        "midi": 43,
        "time": 2.4,
        "duration": 0.15,
        "velocity": 1,
        "hand": "left"
      },
      {
        "midi": 44,
        "time": 2.4,
        "duration": 0.075,
        "velocity": 0.63,
        "hand": "left"
      },
      {
        "midi": 62,
        "time": 2.4,
        "duration": 0.15,
        "velocity": 1,
        "hand": "right"
      },
      {
        "midi": 67,
        "time": 2.4,
        "duration": 0.15,
        "velocity": 0.97,
        "hand": "right"
      },
      {
        "midi": 71,
        "time": 2.4,
        "duration": 0.15,
        "velocity": 1,
        "hand": "right"
      },
      {
        "midi": 71,
        "time": 2.4,
        "duration": 0.075,
        "velocity": 1,
        "hand": "right"
      },
      {
        "midi": 38,
        "time": 2.7,
        "duration": 0.15,
        "velocity": 1,
        "hand": "left"
      },
      {
        "midi": 42,
        "time": 2.7,
        "duration": 0.15,
        "velocity": 0.63,
        "hand": "left"
      },
      {
        "midi": 44,
        "time": 2.7,
        "duration": 0.15,
        "velocity": 0.63,
        "hand": "left"
      },
      {
        "midi": 62,
        "time": 2.7,
        "duration": 0.075,
        "velocity": 1,
        "hand": "right"
      },
      {
        "midi": 67,
        "time": 2.7,
        "duration": 0.075,
        "velocity": 1,
        "hand": "right"
      },
      {
        "midi": 71,
        "time": 2.7,
        "duration": 0.075,
        "velocity": 1,
        "hand": "right"
      },
      {
        "midi": 71,
        "time": 2.7,
        "duration": 0.15,
        "velocity": 1,
        "hand": "right"
      },
      {
        "midi": 46,
        "time": 2.85,
        "duration": 0.15,
        "velocity": 0.63,
        "hand": "left"
      },
      {
        "midi": 64,
        "time": 2.85,
        "duration": 0.075,
        "velocity": 0.79,
        "hand": "right"
      },
      {
        "midi": 67,
        "time": 2.85,
        "duration": 0.075,
        "velocity": 0.87,
        "hand": "right"
      },
      {
        "midi": 68,
        "time": 2.85,
        "duration": 0.075,
        "velocity": 0.79,
        "hand": "right"
      },
      {
        "midi": 72,
        "time": 2.85,
        "duration": 0.075,
        "velocity": 1,
        "hand": "right"
      },
      {
        "midi": 72,
        "time": 2.85,
        "duration": 0.15,
        "velocity": 0.95,
        "hand": "right"
      },
      {
        "midi": 38,
        "time": 3,
        "duration": 0.15,
        "velocity": 0.63,
        "hand": "left"
      },
      {
        "midi": 43,
        "time": 3,
        "duration": 0.15,
        "velocity": 1,
        "hand": "left"
      },
      {
        "midi": 44,
        "time": 3,
        "duration": 0.075,
        "velocity": 0.63,
        "hand": "left"
      },
      {
        "midi": 62,
        "time": 3,
        "duration": 0.075,
        "velocity": 1,
        "hand": "right"
      },
      {
        "midi": 67,
        "time": 3,
        "duration": 0.075,
        "velocity": 0.99,
        "hand": "right"
      },
      {
        "midi": 71,
        "time": 3,
        "duration": 0.075,
        "velocity": 0.99,
        "hand": "right"
      },
      {
        "midi": 38,
        "time": 3.3,
        "duration": 0.15,
        "velocity": 1,
        "hand": "left"
      },
      {
        "midi": 42,
        "time": 3.3,
        "duration": 0.15,
        "velocity": 0.63,
        "hand": "left"
      },
      {
        "midi": 44,
        "time": 3.3,
        "duration": 0.15,
        "velocity": 0.63,
        "hand": "left"
      },
      {
        "midi": 64,
        "time": 3.3,
        "duration": 0.075,
        "velocity": 0.97,
        "hand": "right"
      },
      {
        "midi": 67,
        "time": 3.3,
        "duration": 0.075,
        "velocity": 0.97,
        "hand": "right"
      },
      {
        "midi": 68,
        "time": 3.3,
        "duration": 0.075,
        "velocity": 0.87,
        "hand": "right"
      },
      {
        "midi": 72,
        "time": 3.3,
        "duration": 0.075,
        "velocity": 1,
        "hand": "right"
      },
      {
        "midi": 72,
        "time": 3.3,
        "duration": 0.15,
        "velocity": 1,
        "hand": "right"
      },
      {
        "midi": 46,
        "time": 3.45,
        "duration": 0.15,
        "velocity": 0.63,
        "hand": "left"
      },
      {
        "midi": 38,
        "time": 3.6,
        "duration": 1.05,
        "velocity": 0.63,
        "hand": "left"
      },
      {
        "midi": 43,
        "time": 3.6,
        "duration": 0.75,
        "velocity": 1,
        "hand": "left"
      },
      {
        "midi": 44,
        "time": 3.6,
        "duration": 0.075,
        "velocity": 0.63,
        "hand": "left"
      },
      {
        "midi": 62,
        "time": 3.6,
        "duration": 0.45,
        "velocity": 1,
        "hand": "right"
      },
      {
        "midi": 67,
        "time": 3.6,
        "duration": 0.15,
        "velocity": 1,
        "hand": "right"
      },
      {
        "midi": 71,
        "time": 3.6,
        "duration": 0.45,
        "velocity": 1,
        "hand": "right"
      },
      {
        "midi": 71,
        "time": 3.6,
        "duration": 1.2,
        "velocity": 1,
        "hand": "right"
      },
      {
        "midi": 44,
        "time": 3.9,
        "duration": 0.075,
        "velocity": 0.63,
        "hand": "left"
      },
      {
        "midi": 62,
        "time": 3.9,
        "duration": 0.3,
        "velocity": 0.89,
        "hand": "right"
      },
      {
        "midi": 67,
        "time": 3.9,
        "duration": 0.15,
        "velocity": 0.77,
        "hand": "right"
      },
      {
        "midi": 86,
        "time": 3.9,
        "duration": 0.15,
        "velocity": 0.92,
        "hand": "right"
      },
      {
        "midi": 91,
        "time": 4.05,
        "duration": 0.15,
        "velocity": 0.8,
        "hand": "right"
      },
      {
        "midi": 44,
        "time": 4.2,
        "duration": 0.15,
        "velocity": 0.63,
        "hand": "left"
      },
      {
        "midi": 59,
        "time": 4.2,
        "duration": 0.3,
        "velocity": 0.92,
        "hand": "left"
      },
      {
        "midi": 69,
        "time": 4.2,
        "duration": 0.075,
        "velocity": 0.76,
        "hand": "right"
      },
      {
        "midi": 72,
        "time": 4.2,
        "duration": 0.15,
        "velocity": 1,
        "hand": "right"
      },
      {
        "midi": 86,
        "time": 4.2,
        "duration": 0.075,
        "velocity": 0.92,
        "hand": "right"
      },
      {
        "midi": 44,
        "time": 4.5,
        "duration": 0.15,
        "velocity": 0.63,
        "hand": "left"
      },
      {
        "midi": 55,
        "time": 4.5,
        "duration": 0.3,
        "velocity": 1,
        "hand": "left"
      },
      {
        "midi": 67,
        "time": 4.5,
        "duration": 0.075,
        "velocity": 0.81,
        "hand": "right"
      },
      {
        "midi": 69,
        "time": 4.5,
        "duration": 0.075,
        "velocity": 0.73,
        "hand": "right"
      },
      {
        "midi": 70,
        "time": 4.5,
        "duration": 0.075,
        "velocity": 1,
        "hand": "right"
      },
      {
        "midi": 73,
        "time": 4.5,
        "duration": 0.075,
        "velocity": 1,
        "hand": "right"
      },
      {
        "midi": 83,
        "time": 4.5,
        "duration": 0.075,
        "velocity": 0.92,
        "hand": "right"
      },
      {
        "midi": 38,
        "time": 4.8,
        "duration": 0.9,
        "velocity": 0.63,
        "hand": "left"
      },
      {
        "midi": 43,
        "time": 4.8,
        "duration": 0.75,
        "velocity": 1,
        "hand": "left"
      },
      {
        "midi": 44,
        "time": 4.8,
        "duration": 0.15,
        "velocity": 0.63,
        "hand": "left"
      },
      {
        "midi": 50,
        "time": 4.8,
        "duration": 1.95,
        "velocity": 1,
        "hand": "left"
      },
      {
        "midi": 51,
        "time": 4.8,
        "duration": 0.075,
        "velocity": 0.63,
        "hand": "left"
      },
      {
        "midi": 67,
        "time": 4.8,
        "duration": 0.15,
        "velocity": 1,
        "hand": "right"
      },
      {
        "midi": 71,
        "time": 4.8,
        "duration": 0.15,
        "velocity": 1,
        "hand": "right"
      },
      {
        "midi": 74,
        "time": 4.8,
        "duration": 0.15,
        "velocity": 1,
        "hand": "right"
      },
      {
        "midi": 79,
        "time": 4.8,
        "duration": 2.4,
        "velocity": 0.92,
        "hand": "right"
      },
      {
        "midi": 44,
        "time": 5.1,
        "duration": 0.075,
        "velocity": 0.63,
        "hand": "left"
      },
      {
        "midi": 67,
        "time": 5.1,
        "duration": 0.075,
        "velocity": 1,
        "hand": "right"
      },
      {
        "midi": 67,
        "time": 5.1,
        "duration": 0.6,
        "velocity": 1,
        "hand": "right"
      },
      {
        "midi": 71,
        "time": 5.1,
        "duration": 0.075,
        "velocity": 1,
        "hand": "right"
      },
      {
        "midi": 74,
        "time": 5.1,
        "duration": 0.075,
        "velocity": 1,
        "hand": "right"
      },
      {
        "midi": 44,
        "time": 5.25,
        "duration": 0.075,
        "velocity": 0.63,
        "hand": "left"
      },
      {
        "midi": 67,
        "time": 5.25,
        "duration": 0.075,
        "velocity": 0.94,
        "hand": "right"
      },
      {
        "midi": 71,
        "time": 5.25,
        "duration": 0.075,
        "velocity": 1,
        "hand": "right"
      },
      {
        "midi": 74,
        "time": 5.25,
        "duration": 0.075,
        "velocity": 0.99,
        "hand": "right"
      },
      {
        "midi": 44,
        "time": 5.4,
        "duration": 0.075,
        "velocity": 0.63,
        "hand": "left"
      },
      {
        "midi": 67,
        "time": 5.4,
        "duration": 0.15,
        "velocity": 0.92,
        "hand": "right"
      },
      {
        "midi": 71,
        "time": 5.4,
        "duration": 0.15,
        "velocity": 0.94,
        "hand": "right"
      },
      {
        "midi": 74,
        "time": 5.4,
        "duration": 0.15,
        "velocity": 0.94,
        "hand": "right"
      },
      {
        "midi": 42,
        "time": 5.7,
        "duration": 0.15,
        "velocity": 0.63,
        "hand": "left"
      },
      {
        "midi": 46,
        "time": 5.7,
        "duration": 0.15,
        "velocity": 0.63,
        "hand": "left"
      },
      {
        "midi": 50,
        "time": 5.7,
        "duration": 0.15,
        "velocity": 1,
        "hand": "left"
      },
      {
        "midi": 66,
        "time": 5.7,
        "duration": 0.075,
        "velocity": 1,
        "hand": "right"
      },
      {
        "midi": 67,
        "time": 5.7,
        "duration": 0.075,
        "velocity": 1,
        "hand": "right"
      },
      {
        "midi": 70,
        "time": 5.7,
        "duration": 0.075,
        "velocity": 1,
        "hand": "right"
      },
      {
        "midi": 73,
        "time": 5.7,
        "duration": 0.075,
        "velocity": 1,
        "hand": "right"
      },
      {
        "midi": 38,
        "time": 6,
        "duration": 0.9,
        "velocity": 0.63,
        "hand": "left"
      },
      {
        "midi": 43,
        "time": 6,
        "duration": 0.75,
        "velocity": 1,
        "hand": "left"
      },
      {
        "midi": 44,
        "time": 6,
        "duration": 0.075,
        "velocity": 0.63,
        "hand": "left"
      },
      {
        "midi": 67,
        "time": 6,
        "duration": 0.15,
        "velocity": 1,
        "hand": "right"
      },
      {
        "midi": 71,
        "time": 6,
        "duration": 0.075,
        "velocity": 1,
        "hand": "right"
      },
      {
        "midi": 74,
        "time": 6,
        "duration": 0.075,
        "velocity": 1,
        "hand": "right"
      },
      {
        "midi": 44,
        "time": 6.3,
        "duration": 0.075,
        "velocity": 0.63,
        "hand": "left"
      },
      {
        "midi": 67,
        "time": 6.3,
        "duration": 0.075,
        "velocity": 0.99,
        "hand": "right"
      },
      {
        "midi": 67,
        "time": 6.3,
        "duration": 0.45,
        "velocity": 1,
        "hand": "right"
      },
      {
        "midi": 71,
        "time": 6.3,
        "duration": 0.075,
        "velocity": 1,
        "hand": "right"
      },
      {
        "midi": 74,
        "time": 6.3,
        "duration": 0.075,
        "velocity": 1,
        "hand": "right"
      },
      {
        "midi": 44,
        "time": 6.45,
        "duration": 0.075,
        "velocity": 0.63,
        "hand": "left"
      },
      {
        "midi": 67,
        "time": 6.45,
        "duration": 0.075,
        "velocity": 0.81,
        "hand": "right"
      },
      {
        "midi": 71,
        "time": 6.45,
        "duration": 0.075,
        "velocity": 0.85,
        "hand": "right"
      },
      {
        "midi": 74,
        "time": 6.45,
        "duration": 0.075,
        "velocity": 0.76,
        "hand": "right"
      },
      {
        "midi": 44,
        "time": 6.6,
        "duration": 0.075,
        "velocity": 0.63,
        "hand": "left"
      },
      {
        "midi": 67,
        "time": 6.6,
        "duration": 0.075,
        "velocity": 1,
        "hand": "right"
      },
      {
        "midi": 71,
        "time": 6.6,
        "duration": 0.075,
        "velocity": 1,
        "hand": "right"
      },
      {
        "midi": 74,
        "time": 6.6,
        "duration": 0.15,
        "velocity": 1,
        "hand": "right"
      },
      {
        "midi": 42,
        "time": 6.9,
        "duration": 0.15,
        "velocity": 0.63,
        "hand": "left"
      },
      {
        "midi": 46,
        "time": 6.9,
        "duration": 0.075,
        "velocity": 0.63,
        "hand": "left"
      },
      {
        "midi": 50,
        "time": 6.9,
        "duration": 0.3,
        "velocity": 1,
        "hand": "left"
      },
      {
        "midi": 66,
        "time": 6.9,
        "duration": 0.15,
        "velocity": 1,
        "hand": "right"
      },
      {
        "midi": 67,
        "time": 6.9,
        "duration": 0.075,
        "velocity": 1,
        "hand": "right"
      },
      {
        "midi": 70,
        "time": 6.9,
        "duration": 0.075,
        "velocity": 1,
        "hand": "right"
      },
      {
        "midi": 73,
        "time": 6.9,
        "duration": 0.15,
        "velocity": 1,
        "hand": "right"
      },
      {
        "midi": 38,
        "time": 7.2,
        "duration": 0.15,
        "velocity": 0.63,
        "hand": "left"
      },
      {
        "midi": 43,
        "time": 7.2,
        "duration": 0.15,
        "velocity": 1,
        "hand": "left"
      },
      {
        "midi": 44,
        "time": 7.2,
        "duration": 0.15,
        "velocity": 0.63,
        "hand": "left"
      },
      {
        "midi": 67,
        "time": 7.2,
        "duration": 0.15,
        "velocity": 0.99,
        "hand": "right"
      },
      {
        "midi": 71,
        "time": 7.2,
        "duration": 0.075,
        "velocity": 1,
        "hand": "right"
      },
      {
        "midi": 74,
        "time": 7.2,
        "duration": 0.075,
        "velocity": 1,
        "hand": "right"
      },
      {
        "midi": 42,
        "time": 7.5,
        "duration": 0.15,
        "velocity": 0.63,
        "hand": "left"
      },
      {
        "midi": 44,
        "time": 7.5,
        "duration": 0.15,
        "velocity": 0.63,
        "hand": "left"
      },
      {
        "midi": 50,
        "time": 7.5,
        "duration": 0.15,
        "velocity": 1,
        "hand": "left"
      },
      {
        "midi": 67,
        "time": 7.5,
        "duration": 0.15,
        "velocity": 1,
        "hand": "right"
      },
      {
        "midi": 71,
        "time": 7.5,
        "duration": 0.075,
        "velocity": 1,
        "hand": "right"
      },
      {
        "midi": 74,
        "time": 7.5,
        "duration": 0.15,
        "velocity": 0.97,
        "hand": "right"
      },
      {
        "midi": 46,
        "time": 7.65,
        "duration": 0.15,
        "velocity": 0.63,
        "hand": "left"
      },
      {
        "midi": 66,
        "time": 7.65,
        "duration": 0.15,
        "velocity": 1,
        "hand": "right"
      },
      {
        "midi": 67,
        "time": 7.65,
        "duration": 0.075,
        "velocity": 0.55,
        "hand": "right"
      },
      {
        "midi": 70,
        "time": 7.65,
        "duration": 0.15,
        "velocity": 1,
        "hand": "right"
      },
      {
        "midi": 73,
        "time": 7.65,
        "duration": 0.15,
        "velocity": 0.89,
        "hand": "right"
      },
      {
        "midi": 38,
        "time": 7.8,
        "duration": 0.15,
        "velocity": 0.63,
        "hand": "left"
      },
      {
        "midi": 43,
        "time": 7.8,
        "duration": 0.15,
        "velocity": 1,
        "hand": "left"
      },
      {
        "midi": 44,
        "time": 7.8,
        "duration": 0.15,
        "velocity": 0.63,
        "hand": "left"
      },
      {
        "midi": 67,
        "time": 7.8,
        "duration": 0.15,
        "velocity": 0.73,
        "hand": "right"
      },
      {
        "midi": 67,
        "time": 7.8,
        "duration": 0.075,
        "velocity": 1,
        "hand": "right"
      },
      {
        "midi": 70,
        "time": 7.8,
        "duration": 0.075,
        "velocity": 0.52,
        "hand": "right"
      },
      {
        "midi": 71,
        "time": 7.8,
        "duration": 0.075,
        "velocity": 0.81,
        "hand": "right"
      },
      {
        "midi": 74,
        "time": 7.8,
        "duration": 0.075,
        "velocity": 0.89,
        "hand": "right"
      },
      {
        "midi": 42,
        "time": 8.1,
        "duration": 0.15,
        "velocity": 0.63,
        "hand": "left"
      },
      {
        "midi": 46,
        "time": 8.1,
        "duration": 0.15,
        "velocity": 0.63,
        "hand": "left"
      },
      {
        "midi": 50,
        "time": 8.1,
        "duration": 0.15,
        "velocity": 1,
        "hand": "left"
      },
      {
        "midi": 67,
        "time": 8.1,
        "duration": 0.15,
        "velocity": 0.87,
        "hand": "right"
      },
      {
        "midi": 72,
        "time": 8.1,
        "duration": 0.075,
        "velocity": 1,
        "hand": "right"
      },
      {
        "midi": 76,
        "time": 8.1,
        "duration": 0.075,
        "velocity": 0.99,
        "hand": "right"
      },
      {
        "midi": 66,
        "time": 8.25,
        "duration": 0.15,
        "velocity": 1,
        "hand": "right"
      },
      {
        "midi": 38,
        "time": 8.4,
        "duration": 0.15,
        "velocity": 0.63,
        "hand": "left"
      },
      {
        "midi": 43,
        "time": 8.4,
        "duration": 1.2,
        "velocity": 1,
        "hand": "left"
      },
      {
        "midi": 44,
        "time": 8.4,
        "duration": 0.075,
        "velocity": 0.63,
        "hand": "left"
      },
      {
        "midi": 67,
        "time": 8.4,
        "duration": 0.75,
        "velocity": 1,
        "hand": "right"
      },
      {
        "midi": 67,
        "time": 8.4,
        "duration": 0.6,
        "velocity": 1,
        "hand": "right"
      },
      {
        "midi": 71,
        "time": 8.4,
        "duration": 0.15,
        "velocity": 1,
        "hand": "right"
      },
      {
        "midi": 74,
        "time": 8.4,
        "duration": 0.6,
        "velocity": 1,
        "hand": "right"
      },
      {
        "midi": 44,
        "time": 8.7,
        "duration": 0.15,
        "velocity": 0.63,
        "hand": "left"
      },
      {
        "midi": 59,
        "time": 8.7,
        "duration": 0.15,
        "velocity": 0.63,
        "hand": "left"
      },
      {
        "midi": 62,
        "time": 8.7,
        "duration": 0.3,
        "velocity": 0.99,
        "hand": "right"
      },
      {
        "midi": 71,
        "time": 8.7,
        "duration": 0.15,
        "velocity": 0.7,
        "hand": "right"
      },
      {
        "midi": 95,
        "time": 8.7,
        "duration": 0.15,
        "velocity": 0.76,
        "hand": "right"
      },
      {
        "midi": 60,
        "time": 8.85,
        "duration": 0.15,
        "velocity": 0.63,
        "hand": "right"
      },
      {
        "midi": 91,
        "time": 8.85,
        "duration": 0.15,
        "velocity": 0.91,
        "hand": "right"
      },
      {
        "midi": 44,
        "time": 9,
        "duration": 0.15,
        "velocity": 0.63,
        "hand": "left"
      },
      {
        "midi": 59,
        "time": 9,
        "duration": 0.3,
        "velocity": 0.89,
        "hand": "left"
      },
      {
        "midi": 61,
        "time": 9,
        "duration": 0.15,
        "velocity": 0.63,
        "hand": "right"
      },
      {
        "midi": 62,
        "time": 9,
        "duration": 0.3,
        "velocity": 0.79,
        "hand": "right"
      },
      {
        "midi": 72,
        "time": 9,
        "duration": 0.15,
        "velocity": 1,
        "hand": "right"
      },
      {
        "midi": 86,
        "time": 9,
        "duration": 0.15,
        "velocity": 0.92,
        "hand": "right"
      },
      {
        "midi": 44,
        "time": 9.3,
        "duration": 0.075,
        "velocity": 0.63,
        "hand": "left"
      },
      {
        "midi": 55,
        "time": 9.3,
        "duration": 0.3,
        "velocity": 1,
        "hand": "left"
      },
      {
        "midi": 61,
        "time": 9.3,
        "duration": 0.3,
        "velocity": 0.79,
        "hand": "right"
      },
      {
        "midi": 62,
        "time": 9.3,
        "duration": 0.075,
        "velocity": 0.63,
        "hand": "right"
      },
      {
        "midi": 67,
        "time": 9.3,
        "duration": 0.075,
        "velocity": 0.97,
        "hand": "right"
      },
      {
        "midi": 74,
        "time": 9.3,
        "duration": 0.15,
        "velocity": 0.97,
        "hand": "right"
      },
      {
        "midi": 91,
        "time": 9.3,
        "duration": 0.3,
        "velocity": 0.92,
        "hand": "right"
      },
      {
        "midi": 38,
        "time": 9.6,
        "duration": 0.15,
        "velocity": 0.63,
        "hand": "left"
      },
      {
        "midi": 44,
        "time": 9.6,
        "duration": 0.15,
        "velocity": 0.63,
        "hand": "left"
      },
      {
        "midi": 50,
        "time": 9.6,
        "duration": 0.6,
        "velocity": 1,
        "hand": "left"
      },
      {
        "midi": 50,
        "time": 9.6,
        "duration": 1.8,
        "velocity": 1,
        "hand": "left"
      },
      {
        "midi": 51,
        "time": 9.6,
        "duration": 0.15,
        "velocity": 0.63,
        "hand": "left"
      },
      {
        "midi": 60,
        "time": 9.6,
        "duration": 1.5,
        "velocity": 0.79,
        "hand": "right"
      },
      {
        "midi": 66,
        "time": 9.6,
        "duration": 0.075,
        "velocity": 1,
        "hand": "right"
      },
      {
        "midi": 69,
        "time": 9.6,
        "duration": 1.35,
        "velocity": 0.63,
        "hand": "right"
      },
      {
        "midi": 72,
        "time": 9.6,
        "duration": 0.075,
        "velocity": 1,
        "hand": "right"
      },
      {
        "midi": 74,
        "time": 9.6,
        "duration": 0.075,
        "velocity": 1,
        "hand": "right"
      },
      {
        "midi": 90,
        "time": 9.6,
        "duration": 1.35,
        "velocity": 0.92,
        "hand": "right"
      },
      {
        "midi": 42,
        "time": 9.9,
        "duration": 0.075,
        "velocity": 0.63,
        "hand": "left"
      },
      {
        "midi": 46,
        "time": 9.9,
        "duration": 0.075,
        "velocity": 0.63,
        "hand": "left"
      },
      {
        "midi": 66,
        "time": 9.9,
        "duration": 0.075,
        "velocity": 0.94,
        "hand": "right"
      },
      {
        "midi": 72,
        "time": 9.9,
        "duration": 0.075,
        "velocity": 1,
        "hand": "right"
      },
      {
        "midi": 74,
        "time": 9.9,
        "duration": 0.075,
        "velocity": 0.94,
        "hand": "right"
      },
      {
        "midi": 66,
        "time": 10.05,
        "duration": 0.075,
        "velocity": 0.68,
        "hand": "right"
      },
      {
        "midi": 72,
        "time": 10.05,
        "duration": 0.075,
        "velocity": 1,
        "hand": "right"
      },
      {
        "midi": 74,
        "time": 10.05,
        "duration": 0.075,
        "velocity": 0.87,
        "hand": "right"
      },
      {
        "midi": 38,
        "time": 10.2,
        "duration": 0.6,
        "velocity": 1,
        "hand": "left"
      },
      {
        "midi": 38,
        "time": 10.2,
        "duration": 0.3,
        "velocity": 0.63,
        "hand": "left"
      },
      {
        "midi": 44,
        "time": 10.2,
        "duration": 0.15,
        "velocity": 0.63,
        "hand": "left"
      },
      {
        "midi": 66,
        "time": 10.2,
        "duration": 0.075,
        "velocity": 0.85,
        "hand": "right"
      },
      {
        "midi": 72,
        "time": 10.2,
        "duration": 0.075,
        "velocity": 1,
        "hand": "right"
      },
      {
        "midi": 74,
        "time": 10.2,
        "duration": 0.075,
        "velocity": 1,
        "hand": "right"
      },
      {
        "midi": 42,
        "time": 10.5,
        "duration": 0.15,
        "velocity": 0.63,
        "hand": "left"
      },
      {
        "midi": 46,
        "time": 10.5,
        "duration": 0.075,
        "velocity": 0.63,
        "hand": "left"
      },
      {
        "midi": 66,
        "time": 10.5,
        "duration": 0.075,
        "velocity": 1,
        "hand": "right"
      },
      {
        "midi": 72,
        "time": 10.5,
        "duration": 0.075,
        "velocity": 1,
        "hand": "right"
      },
      {
        "midi": 76,
        "time": 10.5,
        "duration": 0.075,
        "velocity": 1,
        "hand": "right"
      },
      {
        "midi": 38,
        "time": 10.8,
        "duration": 0.3,
        "velocity": 0.63,
        "hand": "left"
      },
      {
        "midi": 44,
        "time": 10.8,
        "duration": 0.15,
        "velocity": 0.63,
        "hand": "left"
      },
      {
        "midi": 50,
        "time": 10.8,
        "duration": 0.75,
        "velocity": 1,
        "hand": "left"
      },
      {
        "midi": 51,
        "time": 10.8,
        "duration": 0.9,
        "velocity": 0.63,
        "hand": "left"
      },
      {
        "midi": 66,
        "time": 10.8,
        "duration": 0.3,
        "velocity": 1,
        "hand": "right"
      },
      {
        "midi": 72,
        "time": 10.8,
        "duration": 0.3,
        "velocity": 1,
        "hand": "right"
      },
      {
        "midi": 74,
        "time": 10.8,
        "duration": 0.3,
        "velocity": 1,
        "hand": "right"
      },
      {
        "midi": 42,
        "time": 11.1,
        "duration": 0.15,
        "velocity": 0.63,
        "hand": "left"
      },
      {
        "midi": 46,
        "time": 11.1,
        "duration": 0.075,
        "velocity": 0.63,
        "hand": "left"
      },
      {
        "midi": 64,
        "time": 11.1,
        "duration": 0.3,
        "velocity": 0.79,
        "hand": "right"
      },
      {
        "midi": 72,
        "time": 11.1,
        "duration": 0.15,
        "velocity": 0.63,
        "hand": "right"
      },
      {
        "midi": 96,
        "time": 11.1,
        "duration": 0.15,
        "velocity": 0.92,
        "hand": "right"
      },
      {
        "midi": 71,
        "time": 11.25,
        "duration": 0.075,
        "velocity": 0.63,
        "hand": "right"
      },
      {
        "midi": 95,
        "time": 11.25,
        "duration": 0.075,
        "velocity": 0.62,
        "hand": "right"
      },
      {
        "midi": 38,
        "time": 11.4,
        "duration": 0.3,
        "velocity": 0.63,
        "hand": "left"
      },
      {
        "midi": 42,
        "time": 11.4,
        "duration": 0.6,
        "velocity": 1,
        "hand": "left"
      },
      {
        "midi": 44,
        "time": 11.4,
        "duration": 0.15,
        "velocity": 0.63,
        "hand": "left"
      },
      {
        "midi": 52,
        "time": 11.4,
        "duration": 0.3,
        "velocity": 0.99,
        "hand": "left"
      },
      {
        "midi": 62,
        "time": 11.4,
        "duration": 0.3,
        "velocity": 0.79,
        "hand": "right"
      },
      {
        "midi": 66,
        "time": 11.4,
        "duration": 0.45,
        "velocity": 1,
        "hand": "right"
      },
      {
        "midi": 71,
        "time": 11.4,
        "duration": 0.15,
        "velocity": 0.63,
        "hand": "right"
      },
      {
        "midi": 72,
        "time": 11.4,
        "duration": 0.45,
        "velocity": 1,
        "hand": "right"
      },
      {
        "midi": 72,
        "time": 11.4,
        "duration": 0.15,
        "velocity": 0.63,
        "hand": "right"
      },
      {
        "midi": 74,
        "time": 11.4,
        "duration": 0.3,
        "velocity": 1,
        "hand": "right"
      },
      {
        "midi": 95,
        "time": 11.4,
        "duration": 0.3,
        "velocity": 0.81,
        "hand": "right"
      },
      {
        "midi": 96,
        "time": 11.4,
        "duration": 0.15,
        "velocity": 0.71,
        "hand": "right"
      },
      {
        "midi": 97,
        "time": 11.4,
        "duration": 0.15,
        "velocity": 0.65,
        "hand": "right"
      },
      {
        "midi": 42,
        "time": 11.7,
        "duration": 0.15,
        "velocity": 0.63,
        "hand": "left"
      },
      {
        "midi": 46,
        "time": 11.7,
        "duration": 0.15,
        "velocity": 0.63,
        "hand": "left"
      },
      {
        "midi": 54,
        "time": 11.7,
        "duration": 0.3,
        "velocity": 0.98,
        "hand": "left"
      },
      {
        "midi": 60,
        "time": 11.7,
        "duration": 0.3,
        "velocity": 0.79,
        "hand": "right"
      },
      {
        "midi": 66,
        "time": 11.7,
        "duration": 0.3,
        "velocity": 0.63,
        "hand": "right"
      },
      {
        "midi": 90,
        "time": 11.7,
        "duration": 0.3,
        "velocity": 0.92,
        "hand": "right"
      },
      {
        "midi": 44,
        "time": 11.85,
        "duration": 0.075,
        "velocity": 0.63,
        "hand": "left"
      },
      {
        "midi": 46,
        "time": 11.85,
        "duration": 0.075,
        "velocity": 0.63,
        "hand": "left"
      },
      {
        "midi": 38,
        "time": 12,
        "duration": 0.15,
        "velocity": 0.63,
        "hand": "left"
      },
      {
        "midi": 43,
        "time": 12,
        "duration": 0.15,
        "velocity": 1,
        "hand": "left"
      },
      {
        "midi": 44,
        "time": 12,
        "duration": 0.15,
        "velocity": 0.63,
        "hand": "left"
      },
      {
        "midi": 51,
        "time": 12,
        "duration": 0.075,
        "velocity": 0.63,
        "hand": "left"
      },
      {
        "midi": 55,
        "time": 12,
        "duration": 0.75,
        "velocity": 0.97,
        "hand": "left"
      },
      {
        "midi": 59,
        "time": 12,
        "duration": 1.35,
        "velocity": 0.79,
        "hand": "left"
      },
      {
        "midi": 67,
        "time": 12,
        "duration": 0.075,
        "velocity": 0.99,
        "hand": "right"
      },
      {
        "midi": 69,
        "time": 12,
        "duration": 0.075,
        "velocity": 0.63,
        "hand": "right"
      },
      {
        "midi": 71,
        "time": 12,
        "duration": 0.075,
        "velocity": 1,
        "hand": "right"
      },
      {
        "midi": 74,
        "time": 12,
        "duration": 0.075,
        "velocity": 1,
        "hand": "right"
      },
      {
        "midi": 93,
        "time": 12,
        "duration": 0.15,
        "velocity": 0.84,
        "hand": "right"
      },
      {
        "midi": 67,
        "time": 12.15,
        "duration": 0.075,
        "velocity": 0.63,
        "hand": "right"
      },
      {
        "midi": 69,
        "time": 12.15,
        "duration": 0.15,
        "velocity": 0.63,
        "hand": "right"
      },
      {
        "midi": 91,
        "time": 12.15,
        "duration": 0.075,
        "velocity": 0.77,
        "hand": "right"
      },
      {
        "midi": 93,
        "time": 12.15,
        "duration": 0.15,
        "velocity": 0.8,
        "hand": "right"
      },
      {
        "midi": 42,
        "time": 12.3,
        "duration": 0.15,
        "velocity": 0.63,
        "hand": "left"
      },
      {
        "midi": 46,
        "time": 12.3,
        "duration": 0.075,
        "velocity": 0.63,
        "hand": "left"
      },
      {
        "midi": 67,
        "time": 12.3,
        "duration": 0.075,
        "velocity": 1,
        "hand": "right"
      },
      {
        "midi": 67,
        "time": 12.3,
        "duration": 0.3,
        "velocity": 0.63,
        "hand": "right"
      },
      {
        "midi": 71,
        "time": 12.3,
        "duration": 0.075,
        "velocity": 1,
        "hand": "right"
      },
      {
        "midi": 74,
        "time": 12.3,
        "duration": 0.075,
        "velocity": 1,
        "hand": "right"
      },
      {
        "midi": 91,
        "time": 12.3,
        "duration": 0.3,
        "velocity": 0.89,
        "hand": "right"
      },
      {
        "midi": 67,
        "time": 12.45,
        "duration": 0.075,
        "velocity": 0.83,
        "hand": "right"
      },
      {
        "midi": 71,
        "time": 12.45,
        "duration": 0.075,
        "velocity": 0.94,
        "hand": "right"
      },
      {
        "midi": 74,
        "time": 12.45,
        "duration": 0.075,
        "velocity": 0.94,
        "hand": "right"
      },
      {
        "midi": 38,
        "time": 12.6,
        "duration": 0.6,
        "velocity": 1,
        "hand": "left"
      },
      {
        "midi": 38,
        "time": 12.6,
        "duration": 0.3,
        "velocity": 0.63,
        "hand": "left"
      },
      {
        "midi": 44,
        "time": 12.6,
        "duration": 0.15,
        "velocity": 0.63,
        "hand": "left"
      },
      {
        "midi": 59,
        "time": 12.6,
        "duration": 1.05,
        "velocity": 0.63,
        "hand": "left"
      },
      {
        "midi": 59,
        "time": 12.6,
        "duration": 0.6,
        "velocity": 0.94,
        "hand": "left"
      },
      {
        "midi": 67,
        "time": 12.6,
        "duration": 0.075,
        "velocity": 1,
        "hand": "right"
      },
      {
        "midi": 71,
        "time": 12.6,
        "duration": 0.075,
        "velocity": 1,
        "hand": "right"
      },
      {
        "midi": 74,
        "time": 12.6,
        "duration": 0.15,
        "velocity": 1,
        "hand": "right"
      },
      {
        "midi": 83,
        "time": 12.6,
        "duration": 0.9,
        "velocity": 0.92,
        "hand": "right"
      },
      {
        "midi": 85,
        "time": 12.6,
        "duration": 0.075,
        "velocity": 0.81,
        "hand": "right"
      },
      {
        "midi": 42,
        "time": 12.9,
        "duration": 0.15,
        "velocity": 0.63,
        "hand": "left"
      },
      {
        "midi": 46,
        "time": 12.9,
        "duration": 0.075,
        "velocity": 0.63,
        "hand": "left"
      },
      {
        "midi": 67,
        "time": 12.9,
        "duration": 0.075,
        "velocity": 1,
        "hand": "right"
      },
      {
        "midi": 70,
        "time": 12.9,
        "duration": 0.075,
        "velocity": 1,
        "hand": "right"
      },
      {
        "midi": 73,
        "time": 12.9,
        "duration": 0.075,
        "velocity": 1,
        "hand": "right"
      },
      {
        "midi": 38,
        "time": 13.2,
        "duration": 0.15,
        "velocity": 0.63,
        "hand": "left"
      },
      {
        "midi": 43,
        "time": 13.2,
        "duration": 0.075,
        "velocity": 0.99,
        "hand": "left"
      },
      {
        "midi": 44,
        "time": 13.2,
        "duration": 0.15,
        "velocity": 0.63,
        "hand": "left"
      },
      {
        "midi": 50,
        "time": 13.2,
        "duration": 1.2,
        "velocity": 0.87,
        "hand": "left"
      },
      {
        "midi": 51,
        "time": 13.2,
        "duration": 0.9,
        "velocity": 0.63,
        "hand": "left"
      },
      {
        "midi": 67,
        "time": 13.2,
        "duration": 0.45,
        "velocity": 0.99,
        "hand": "right"
      },
      {
        "midi": 71,
        "time": 13.2,
        "duration": 0.45,
        "velocity": 1,
        "hand": "right"
      },
      {
        "midi": 74,
        "time": 13.2,
        "duration": 0.45,
        "velocity": 1,
        "hand": "right"
      },
      {
        "midi": 60,
        "time": 13.35,
        "duration": 0.15,
        "velocity": 0.79,
        "hand": "right"
      },
      {
        "midi": 42,
        "time": 13.5,
        "duration": 0.15,
        "velocity": 0.63,
        "hand": "left"
      },
      {
        "midi": 43,
        "time": 13.5,
        "duration": 0.3,
        "velocity": 1,
        "hand": "left"
      },
      {
        "midi": 46,
        "time": 13.5,
        "duration": 0.075,
        "velocity": 0.63,
        "hand": "left"
      },
      {
        "midi": 60,
        "time": 13.5,
        "duration": 0.3,
        "velocity": 0.63,
        "hand": "right"
      },
      {
        "midi": 61,
        "time": 13.5,
        "duration": 0.15,
        "velocity": 0.79,
        "hand": "right"
      },
      {
        "midi": 84,
        "time": 13.5,
        "duration": 0.15,
        "velocity": 0.92,
        "hand": "right"
      },
      {
        "midi": 62,
        "time": 13.65,
        "duration": 0.15,
        "velocity": 0.79,
        "hand": "right"
      },
      {
        "midi": 85,
        "time": 13.65,
        "duration": 0.15,
        "velocity": 0.81,
        "hand": "right"
      },
      {
        "midi": 38,
        "time": 13.8,
        "duration": 0.3,
        "velocity": 0.63,
        "hand": "left"
      },
      {
        "midi": 44,
        "time": 13.8,
        "duration": 0.15,
        "velocity": 0.63,
        "hand": "left"
      },
      {
        "midi": 45,
        "time": 13.8,
        "duration": 0.15,
        "velocity": 1,
        "hand": "left"
      },
      {
        "midi": 61,
        "time": 13.8,
        "duration": 0.3,
        "velocity": 0.63,
        "hand": "right"
      },
      {
        "midi": 62,
        "time": 13.8,
        "duration": 0.45,
        "velocity": 1,
        "hand": "right"
      },
      {
        "midi": 67,
        "time": 13.8,
        "duration": 0.45,
        "velocity": 1,
        "hand": "right"
      },
      {
        "midi": 69,
        "time": 13.8,
        "duration": 0.3,
        "velocity": 0.79,
        "hand": "right"
      },
      {
        "midi": 71,
        "time": 13.8,
        "duration": 0.45,
        "velocity": 1,
        "hand": "right"
      },
      {
        "midi": 88,
        "time": 13.8,
        "duration": 0.15,
        "velocity": 0.91,
        "hand": "right"
      },
      {
        "midi": 86,
        "time": 13.95,
        "duration": 0.075,
        "velocity": 0.92,
        "hand": "right"
      },
      {
        "midi": 42,
        "time": 14.1,
        "duration": 0.15,
        "velocity": 0.63,
        "hand": "left"
      },
      {
        "midi": 46,
        "time": 14.1,
        "duration": 0.15,
        "velocity": 0.63,
        "hand": "left"
      },
      {
        "midi": 47,
        "time": 14.1,
        "duration": 0.15,
        "velocity": 1,
        "hand": "left"
      },
      {
        "midi": 64,
        "time": 14.1,
        "duration": 0.3,
        "velocity": 0.63,
        "hand": "right"
      },
      {
        "midi": 67,
        "time": 14.1,
        "duration": 0.3,
        "velocity": 0.79,
        "hand": "right"
      },
      {
        "midi": 86,
        "time": 14.1,
        "duration": 0.45,
        "velocity": 0.71,
        "hand": "right"
      },
      {
        "midi": 88,
        "time": 14.1,
        "duration": 0.15,
        "velocity": 0.5,
        "hand": "right"
      },
      {
        "midi": 44,
        "time": 14.25,
        "duration": 0.075,
        "velocity": 0.63,
        "hand": "left"
      },
      {
        "midi": 46,
        "time": 14.25,
        "duration": 0.075,
        "velocity": 0.63,
        "hand": "left"
      },
      {
        "midi": 38,
        "time": 14.4,
        "duration": 0.15,
        "velocity": 0.63,
        "hand": "left"
      },
      {
        "midi": 44,
        "time": 14.4,
        "duration": 0.15,
        "velocity": 0.63,
        "hand": "left"
      },
      {
        "midi": 50,
        "time": 14.4,
        "duration": 0.75,
        "velocity": 1,
        "hand": "left"
      },
      {
        "midi": 51,
        "time": 14.4,
        "duration": 1.05,
        "velocity": 0.63,
        "hand": "left"
      },
      {
        "midi": 54,
        "time": 14.4,
        "duration": 0.6,
        "velocity": 0.96,
        "hand": "left"
      },
      {
        "midi": 62,
        "time": 14.4,
        "duration": 0.3,
        "velocity": 0.63,
        "hand": "right"
      },
      {
        "midi": 66,
        "time": 14.4,
        "duration": 0.075,
        "velocity": 0.89,
        "hand": "right"
      },
      {
        "midi": 66,
        "time": 14.4,
        "duration": 1.2,
        "velocity": 0.79,
        "hand": "right"
      },
      {
        "midi": 70,
        "time": 14.4,
        "duration": 0.075,
        "velocity": 0.82,
        "hand": "right"
      },
      {
        "midi": 72,
        "time": 14.4,
        "duration": 0.075,
        "velocity": 1,
        "hand": "right"
      },
      {
        "midi": 73,
        "time": 14.4,
        "duration": 0.075,
        "velocity": 0.92,
        "hand": "right"
      },
      {
        "midi": 74,
        "time": 14.4,
        "duration": 0.075,
        "velocity": 1,
        "hand": "right"
      },
      {
        "midi": 84,
        "time": 14.4,
        "duration": 0.3,
        "velocity": 0.92,
        "hand": "right"
      },
      {
        "midi": 42,
        "time": 14.7,
        "duration": 0.15,
        "velocity": 0.63,
        "hand": "left"
      },
      {
        "midi": 46,
        "time": 14.7,
        "duration": 0.075,
        "velocity": 0.63,
        "hand": "left"
      },
      {
        "midi": 60,
        "time": 14.7,
        "duration": 0.3,
        "velocity": 0.63,
        "hand": "right"
      },
      {
        "midi": 66,
        "time": 14.7,
        "duration": 0.075,
        "velocity": 0.92,
        "hand": "right"
      },
      {
        "midi": 72,
        "time": 14.7,
        "duration": 0.075,
        "velocity": 1,
        "hand": "right"
      },
      {
        "midi": 74,
        "time": 14.7,
        "duration": 0.075,
        "velocity": 0.94,
        "hand": "right"
      },
      {
        "midi": 81,
        "time": 14.7,
        "duration": 0.15,
        "velocity": 0.92,
        "hand": "right"
      },
      {
        "midi": 66,
        "time": 14.85,
        "duration": 0.075,
        "velocity": 0.63,
        "hand": "right"
      },
      {
        "midi": 72,
        "time": 14.85,
        "duration": 0.075,
        "velocity": 0.96,
        "hand": "right"
      },
      {
        "midi": 74,
        "time": 14.85,
        "duration": 0.15,
        "velocity": 0.83,
        "hand": "right"
      },
      {
        "midi": 38,
        "time": 15,
        "duration": 0.6,
        "velocity": 1,
        "hand": "left"
      },
      {
        "midi": 38,
        "time": 15,
        "duration": 0.15,
        "velocity": 0.63,
        "hand": "left"
      },
      {
        "midi": 44,
        "time": 15,
        "duration": 0.15,
        "velocity": 0.63,
        "hand": "left"
      },
      {
        "midi": 52,
        "time": 15,
        "duration": 0.3,
        "velocity": 0.63,
        "hand": "left"
      },
      {
        "midi": 57,
        "time": 15,
        "duration": 0.6,
        "velocity": 0.81,
        "hand": "left"
      },
      {
        "midi": 66,
        "time": 15,
        "duration": 0.15,
        "velocity": 0.92,
        "hand": "right"
      },
      {
        "midi": 72,
        "time": 15,
        "duration": 0.15,
        "velocity": 1,
        "hand": "right"
      },
      {
        "midi": 74,
        "time": 15,
        "duration": 0.15,
        "velocity": 0.99,
        "hand": "right"
      },
      {
        "midi": 76,
        "time": 15,
        "duration": 0.3,
        "velocity": 0.92,
        "hand": "right"
      },
      {
        "midi": 42,
        "time": 15.3,
        "duration": 0.15,
        "velocity": 0.63,
        "hand": "left"
      },
      {
        "midi": 46,
        "time": 15.3,
        "duration": 0.075,
        "velocity": 0.63,
        "hand": "left"
      },
      {
        "midi": 53,
        "time": 15.3,
        "duration": 0.3,
        "velocity": 0.63,
        "hand": "left"
      },
      {
        "midi": 62,
        "time": 15.3,
        "duration": 0.075,
        "velocity": 1,
        "hand": "right"
      },
      {
        "midi": 66,
        "time": 15.3,
        "duration": 0.075,
        "velocity": 1,
        "hand": "right"
      },
      {
        "midi": 72,
        "time": 15.3,
        "duration": 0.075,
        "velocity": 1,
        "hand": "right"
      },
      {
        "midi": 78,
        "time": 15.3,
        "duration": 0.3,
        "velocity": 0.92,
        "hand": "right"
      },
      {
        "midi": 38,
        "time": 15.6,
        "duration": 0.3,
        "velocity": 0.63,
        "hand": "left"
      },
      {
        "midi": 44,
        "time": 15.6,
        "duration": 0.15,
        "velocity": 0.63,
        "hand": "left"
      },
      {
        "midi": 50,
        "time": 15.6,
        "duration": 1.2,
        "velocity": 0.89,
        "hand": "left"
      },
      {
        "midi": 51,
        "time": 15.6,
        "duration": 0.15,
        "velocity": 0.63,
        "hand": "left"
      },
      {
        "midi": 54,
        "time": 15.6,
        "duration": 0.3,
        "velocity": 0.63,
        "hand": "left"
      },
      {
        "midi": 64,
        "time": 15.6,
        "duration": 0.3,
        "velocity": 0.89,
        "hand": "right"
      },
      {
        "midi": 67,
        "time": 15.6,
        "duration": 0.3,
        "velocity": 0.94,
        "hand": "right"
      },
      {
        "midi": 68,
        "time": 15.6,
        "duration": 0.075,
        "velocity": 0.38,
        "hand": "right"
      },
      {
        "midi": 72,
        "time": 15.6,
        "duration": 0.45,
        "velocity": 1,
        "hand": "right"
      },
      {
        "midi": 83,
        "time": 15.6,
        "duration": 0.45,
        "velocity": 0.91,
        "hand": "right"
      },
      {
        "midi": 38,
        "time": 15.9,
        "duration": 0.15,
        "velocity": 1,
        "hand": "left"
      },
      {
        "midi": 42,
        "time": 15.9,
        "duration": 0.15,
        "velocity": 0.63,
        "hand": "left"
      },
      {
        "midi": 46,
        "time": 15.9,
        "duration": 0.075,
        "velocity": 0.63,
        "hand": "left"
      },
      {
        "midi": 50,
        "time": 15.9,
        "duration": 0.15,
        "velocity": 1,
        "hand": "left"
      },
      {
        "midi": 57,
        "time": 15.9,
        "duration": 0.3,
        "velocity": 0.79,
        "hand": "left"
      },
      {
        "midi": 59,
        "time": 15.9,
        "duration": 0.45,
        "velocity": 0.63,
        "hand": "left"
      },
      {
        "midi": 38,
        "time": 16.2,
        "duration": 0.3,
        "velocity": 0.63,
        "hand": "left"
      },
      {
        "midi": 40,
        "time": 16.2,
        "duration": 0.15,
        "velocity": 1,
        "hand": "left"
      },
      {
        "midi": 44,
        "time": 16.2,
        "duration": 0.15,
        "velocity": 0.63,
        "hand": "left"
      },
      {
        "midi": 48,
        "time": 16.2,
        "duration": 0.15,
        "velocity": 0.91,
        "hand": "left"
      },
      {
        "midi": 51,
        "time": 16.2,
        "duration": 0.3,
        "velocity": 0.63,
        "hand": "left"
      },
      {
        "midi": 62,
        "time": 16.2,
        "duration": 0.3,
        "velocity": 0.79,
        "hand": "right"
      },
      {
        "midi": 66,
        "time": 16.2,
        "duration": 0.3,
        "velocity": 1,
        "hand": "right"
      },
      {
        "midi": 69,
        "time": 16.2,
        "duration": 0.3,
        "velocity": 1,
        "hand": "right"
      },
      {
        "midi": 72,
        "time": 16.2,
        "duration": 0.3,
        "velocity": 1,
        "hand": "right"
      },
      {
        "midi": 81,
        "time": 16.2,
        "duration": 0.075,
        "velocity": 0.8,
        "hand": "right"
      },
      {
        "midi": 81,
        "time": 16.2,
        "duration": 0.6,
        "velocity": 0.84,
        "hand": "right"
      },
      {
        "midi": 84,
        "time": 16.2,
        "duration": 0.15,
        "velocity": 0.81,
        "hand": "right"
      },
      {
        "midi": 42,
        "time": 16.5,
        "duration": 0.15,
        "velocity": 1,
        "hand": "left"
      },
      {
        "midi": 46,
        "time": 16.5,
        "duration": 0.15,
        "velocity": 0.63,
        "hand": "left"
      },
      {
        "midi": 50,
        "time": 16.5,
        "duration": 0.075,
        "velocity": 1,
        "hand": "left"
      },
      {
        "midi": 57,
        "time": 16.5,
        "duration": 0.075,
        "velocity": 0.63,
        "hand": "left"
      },
      {
        "midi": 57,
        "time": 16.5,
        "duration": 0.3,
        "velocity": 0.63,
        "hand": "left"
      },
      {
        "midi": 59,
        "time": 16.5,
        "duration": 0.075,
        "velocity": 0.63,
        "hand": "left"
      },
      {
        "midi": 60,
        "time": 16.5,
        "duration": 0.3,
        "velocity": 0.79,
        "hand": "right"
      },
      {
        "midi": 44,
        "time": 16.65,
        "duration": 0.075,
        "velocity": 0.63,
        "hand": "left"
      },
      {
        "midi": 38,
        "time": 16.8,
        "duration": 0.3,
        "velocity": 0.63,
        "hand": "left"
      },
      {
        "midi": 43,
        "time": 16.8,
        "duration": 0.45,
        "velocity": 1,
        "hand": "left"
      },
      {
        "midi": 44,
        "time": 16.8,
        "duration": 0.075,
        "velocity": 0.63,
        "hand": "left"
      },
      {
        "midi": 46,
        "time": 16.8,
        "duration": 0.075,
        "velocity": 0.63,
        "hand": "left"
      },
      {
        "midi": 51,
        "time": 16.8,
        "duration": 1.05,
        "velocity": 0.63,
        "hand": "left"
      },
      {
        "midi": 55,
        "time": 16.8,
        "duration": 1.05,
        "velocity": 0.63,
        "hand": "left"
      },
      {
        "midi": 55,
        "time": 16.8,
        "duration": 0.6,
        "velocity": 0.99,
        "hand": "left"
      },
      {
        "midi": 59,
        "time": 16.8,
        "duration": 1.35,
        "velocity": 0.79,
        "hand": "left"
      },
      {
        "midi": 62,
        "time": 16.8,
        "duration": 0.15,
        "velocity": 0.99,
        "hand": "right"
      },
      {
        "midi": 67,
        "time": 16.8,
        "duration": 0.075,
        "velocity": 1,
        "hand": "right"
      },
      {
        "midi": 71,
        "time": 16.8,
        "duration": 0.075,
        "velocity": 0.89,
        "hand": "right"
      },
      {
        "midi": 79,
        "time": 16.8,
        "duration": 1.2,
        "velocity": 0.92,
        "hand": "right"
      },
      {
        "midi": 42,
        "time": 17.1,
        "duration": 0.15,
        "velocity": 0.63,
        "hand": "left"
      },
      {
        "midi": 46,
        "time": 17.1,
        "duration": 0.075,
        "velocity": 0.63,
        "hand": "left"
      },
      {
        "midi": 62,
        "time": 17.1,
        "duration": 0.075,
        "velocity": 1,
        "hand": "right"
      },
      {
        "midi": 67,
        "time": 17.1,
        "duration": 0.075,
        "velocity": 1,
        "hand": "right"
      },
      {
        "midi": 71,
        "time": 17.1,
        "duration": 0.075,
        "velocity": 0.94,
        "hand": "right"
      },
      {
        "midi": 62,
        "time": 17.25,
        "duration": 0.075,
        "velocity": 0.68,
        "hand": "right"
      },
      {
        "midi": 67,
        "time": 17.25,
        "duration": 0.075,
        "velocity": 0.94,
        "hand": "right"
      },
      {
        "midi": 71,
        "time": 17.25,
        "duration": 0.075,
        "velocity": 0.81,
        "hand": "right"
      },
      {
        "midi": 38,
        "time": 17.4,
        "duration": 0.45,
        "velocity": 1,
        "hand": "left"
      },
      {
        "midi": 38,
        "time": 17.4,
        "duration": 0.3,
        "velocity": 0.63,
        "hand": "left"
      },
      {
        "midi": 44,
        "time": 17.4,
        "duration": 0.15,
        "velocity": 0.63,
        "hand": "left"
      },
      {
        "midi": 50,
        "time": 17.4,
        "duration": 0.3,
        "velocity": 0.85,
        "hand": "left"
      },
      {
        "midi": 62,
        "time": 17.4,
        "duration": 0.15,
        "velocity": 0.7,
        "hand": "right"
      },
      {
        "midi": 67,
        "time": 17.4,
        "duration": 0.075,
        "velocity": 0.87,
        "hand": "right"
      },
      {
        "midi": 71,
        "time": 17.4,
        "duration": 0.15,
        "velocity": 0.85,
        "hand": "right"
      },
      {
        "midi": 42,
        "time": 17.7,
        "duration": 0.15,
        "velocity": 0.63,
        "hand": "left"
      },
      {
        "midi": 46,
        "time": 17.7,
        "duration": 0.075,
        "velocity": 0.63,
        "hand": "left"
      },
      {
        "midi": 47,
        "time": 17.7,
        "duration": 0.3,
        "velocity": 1,
        "hand": "left"
      },
      {
        "midi": 64,
        "time": 17.7,
        "duration": 0.075,
        "velocity": 0.89,
        "hand": "right"
      },
      {
        "midi": 67,
        "time": 17.7,
        "duration": 0.15,
        "velocity": 0.99,
        "hand": "right"
      },
      {
        "midi": 68,
        "time": 17.7,
        "duration": 0.075,
        "velocity": 0.72,
        "hand": "right"
      },
      {
        "midi": 72,
        "time": 17.7,
        "duration": 0.075,
        "velocity": 1,
        "hand": "right"
      },
      {
        "midi": 38,
        "time": 18,
        "duration": 0.15,
        "velocity": 0.63,
        "hand": "left"
      },
      {
        "midi": 40,
        "time": 18,
        "duration": 0.3,
        "velocity": 0.97,
        "hand": "left"
      },
      {
        "midi": 43,
        "time": 18,
        "duration": 0.45,
        "velocity": 1,
        "hand": "left"
      },
      {
        "midi": 44,
        "time": 18,
        "duration": 0.15,
        "velocity": 0.63,
        "hand": "left"
      },
      {
        "midi": 62,
        "time": 18,
        "duration": 0.3,
        "velocity": 0.94,
        "hand": "right"
      },
      {
        "midi": 62,
        "time": 18,
        "duration": 1.05,
        "velocity": 0.63,
        "hand": "right"
      },
      {
        "midi": 67,
        "time": 18,
        "duration": 0.3,
        "velocity": 1,
        "hand": "right"
      },
      {
        "midi": 71,
        "time": 18,
        "duration": 0.3,
        "velocity": 1,
        "hand": "right"
      },
      {
        "midi": 86,
        "time": 18,
        "duration": 1.05,
        "velocity": 0.63,
        "hand": "right"
      },
      {
        "midi": 46,
        "time": 18.3,
        "duration": 0.075,
        "velocity": 0.63,
        "hand": "left"
      },
      {
        "midi": 38,
        "time": 18.6,
        "duration": 0.3,
        "velocity": 0.63,
        "hand": "left"
      },
      {
        "midi": 42,
        "time": 18.6,
        "duration": 0.3,
        "velocity": 1,
        "hand": "left"
      },
      {
        "midi": 44,
        "time": 18.6,
        "duration": 0.075,
        "velocity": 0.63,
        "hand": "left"
      },
      {
        "midi": 51,
        "time": 18.6,
        "duration": 0.075,
        "velocity": 0.63,
        "hand": "left"
      },
      {
        "midi": 62,
        "time": 18.6,
        "duration": 0.15,
        "velocity": 1,
        "hand": "right"
      },
      {
        "midi": 62,
        "time": 18.6,
        "duration": 0.6,
        "velocity": 1,
        "hand": "right"
      },
      {
        "midi": 66,
        "time": 18.6,
        "duration": 0.15,
        "velocity": 1,
        "hand": "right"
      },
      {
        "midi": 69,
        "time": 18.6,
        "duration": 0.15,
        "velocity": 0.97,
        "hand": "right"
      },
      {
        "midi": 44,
        "time": 18.75,
        "duration": 0.075,
        "velocity": 0.63,
        "hand": "left"
      },
      {
        "midi": 46,
        "time": 18.75,
        "duration": 0.075,
        "velocity": 0.63,
        "hand": "left"
      },
      {
        "midi": 44,
        "time": 18.9,
        "duration": 0.075,
        "velocity": 0.63,
        "hand": "left"
      },
      {
        "midi": 46,
        "time": 18.9,
        "duration": 0.075,
        "velocity": 0.63,
        "hand": "left"
      },
      {
        "midi": 44,
        "time": 19.05,
        "duration": 0.075,
        "velocity": 0.63,
        "hand": "left"
      },
      {
        "midi": 46,
        "time": 19.05,
        "duration": 0.075,
        "velocity": 0.63,
        "hand": "left"
      },
      {
        "midi": 38,
        "time": 19.2,
        "duration": 0.15,
        "velocity": 0.63,
        "hand": "left"
      },
      {
        "midi": 43,
        "time": 19.2,
        "duration": 0.15,
        "velocity": 1,
        "hand": "left"
      },
      {
        "midi": 44,
        "time": 19.2,
        "duration": 0.075,
        "velocity": 0.63,
        "hand": "left"
      },
      {
        "midi": 55,
        "time": 19.2,
        "duration": 1.2,
        "velocity": 1,
        "hand": "left"
      },
      {
        "midi": 59,
        "time": 19.2,
        "duration": 0.075,
        "velocity": 0.79,
        "hand": "left"
      },
      {
        "midi": 59,
        "time": 19.2,
        "duration": 1.5,
        "velocity": 0.63,
        "hand": "left"
      },
      {
        "midi": 62,
        "time": 19.2,
        "duration": 0.075,
        "velocity": 0.87,
        "hand": "right"
      },
      {
        "midi": 67,
        "time": 19.2,
        "duration": 0.075,
        "velocity": 0.97,
        "hand": "right"
      },
      {
        "midi": 67,
        "time": 19.2,
        "duration": 1.05,
        "velocity": 0.79,
        "hand": "right"
      },
      {
        "midi": 79,
        "time": 19.2,
        "duration": 1.05,
        "velocity": 0.79,
        "hand": "right"
      },
      {
        "midi": 42,
        "time": 19.5,
        "duration": 0.15,
        "velocity": 0.63,
        "hand": "left"
      },
      {
        "midi": 46,
        "time": 19.5,
        "duration": 0.075,
        "velocity": 0.63,
        "hand": "left"
      },
      {
        "midi": 50,
        "time": 19.5,
        "duration": 0.075,
        "velocity": 0.81,
        "hand": "left"
      },
      {
        "midi": 59,
        "time": 19.5,
        "duration": 0.075,
        "velocity": 0.77,
        "hand": "left"
      },
      {
        "midi": 62,
        "time": 19.5,
        "duration": 0.075,
        "velocity": 0.94,
        "hand": "right"
      },
      {
        "midi": 67,
        "time": 19.5,
        "duration": 0.075,
        "velocity": 0.89,
        "hand": "right"
      },
      {
        "midi": 59,
        "time": 19.65,
        "duration": 0.15,
        "velocity": 0.38,
        "hand": "left"
      },
      {
        "midi": 62,
        "time": 19.65,
        "duration": 0.15,
        "velocity": 0.65,
        "hand": "right"
      },
      {
        "midi": 62,
        "time": 19.65,
        "duration": 0.075,
        "velocity": 0.47,
        "hand": "right"
      },
      {
        "midi": 67,
        "time": 19.65,
        "duration": 0.15,
        "velocity": 0.72,
        "hand": "right"
      },
      {
        "midi": 38,
        "time": 19.8,
        "duration": 0.3,
        "velocity": 0.91,
        "hand": "left"
      },
      {
        "midi": 44,
        "time": 19.8,
        "duration": 0.075,
        "velocity": 0.63,
        "hand": "left"
      },
      {
        "midi": 50,
        "time": 19.8,
        "duration": 0.6,
        "velocity": 0.7,
        "hand": "left"
      },
      {
        "midi": 42,
        "time": 20.1,
        "duration": 0.15,
        "velocity": 0.63,
        "hand": "left"
      },
      {
        "midi": 46,
        "time": 20.1,
        "duration": 0.075,
        "velocity": 0.63,
        "hand": "left"
      },
      {
        "midi": 50,
        "time": 20.1,
        "duration": 0.15,
        "velocity": 0.8,
        "hand": "left"
      },
      {
        "midi": 59,
        "time": 20.1,
        "duration": 0.075,
        "velocity": 0.85,
        "hand": "left"
      },
      {
        "midi": 62,
        "time": 20.1,
        "duration": 0.075,
        "velocity": 0.94,
        "hand": "right"
      },
      {
        "midi": 67,
        "time": 20.1,
        "duration": 0.075,
        "velocity": 1,
        "hand": "right"
      },
      {
        "midi": 71,
        "time": 20.1,
        "duration": 0.3,
        "velocity": 0.79,
        "hand": "right"
      },
      {
        "midi": 83,
        "time": 20.1,
        "duration": 0.3,
        "velocity": 0.81,
        "hand": "right"
      },
      {
        "midi": 38,
        "time": 20.4,
        "duration": 0.15,
        "velocity": 0.63,
        "hand": "left"
      },
      {
        "midi": 43,
        "time": 20.4,
        "duration": 0.15,
        "velocity": 0.86,
        "hand": "left"
      },
      {
        "midi": 44,
        "time": 20.4,
        "duration": 0.075,
        "velocity": 0.63,
        "hand": "left"
      },
      {
        "midi": 59,
        "time": 20.4,
        "duration": 0.075,
        "velocity": 0.67,
        "hand": "left"
      },
      {
        "midi": 62,
        "time": 20.4,
        "duration": 0.075,
        "velocity": 0.68,
        "hand": "right"
      },
      {
        "midi": 67,
        "time": 20.4,
        "duration": 0.075,
        "velocity": 0.92,
        "hand": "right"
      },
      {
        "midi": 74,
        "time": 20.4,
        "duration": 0.15,
        "velocity": 0.81,
        "hand": "right"
      },
      {
        "midi": 86,
        "time": 20.4,
        "duration": 0.075,
        "velocity": 0.81,
        "hand": "right"
      },
      {
        "midi": 42,
        "time": 20.7,
        "duration": 0.15,
        "velocity": 0.63,
        "hand": "left"
      },
      {
        "midi": 46,
        "time": 20.7,
        "duration": 0.075,
        "velocity": 0.63,
        "hand": "left"
      },
      {
        "midi": 50,
        "time": 20.7,
        "duration": 0.15,
        "velocity": 0.79,
        "hand": "left"
      },
      {
        "midi": 59,
        "time": 20.7,
        "duration": 0.075,
        "velocity": 0.76,
        "hand": "left"
      },
      {
        "midi": 60,
        "time": 20.7,
        "duration": 0.3,
        "velocity": 0.63,
        "hand": "right"
      },
      {
        "midi": 62,
        "time": 20.7,
        "duration": 0.075,
        "velocity": 0.89,
        "hand": "right"
      },
      {
        "midi": 67,
        "time": 20.7,
        "duration": 0.075,
        "velocity": 0.89,
        "hand": "right"
      },
      {
        "midi": 74,
        "time": 20.7,
        "duration": 0.3,
        "velocity": 0.85,
        "hand": "right"
      },
      {
        "midi": 86,
        "time": 20.7,
        "duration": 0.15,
        "velocity": 0.85,
        "hand": "right"
      },
      {
        "midi": 38,
        "time": 21,
        "duration": 0.3,
        "velocity": 1,
        "hand": "left"
      },
      {
        "midi": 44,
        "time": 21,
        "duration": 0.15,
        "velocity": 0.63,
        "hand": "left"
      },
      {
        "midi": 50,
        "time": 21,
        "duration": 0.6,
        "velocity": 0.85,
        "hand": "left"
      },
      {
        "midi": 59,
        "time": 21,
        "duration": 0.15,
        "velocity": 0.99,
        "hand": "left"
      },
      {
        "midi": 61,
        "time": 21,
        "duration": 0.3,
        "velocity": 0.63,
        "hand": "right"
      },
      {
        "midi": 62,
        "time": 21,
        "duration": 0.075,
        "velocity": 1,
        "hand": "right"
      },
      {
        "midi": 67,
        "time": 21,
        "duration": 0.075,
        "velocity": 1,
        "hand": "right"
      },
      {
        "midi": 74,
        "time": 21,
        "duration": 0.3,
        "velocity": 0.89,
        "hand": "right"
      },
      {
        "midi": 86,
        "time": 21,
        "duration": 0.3,
        "velocity": 0.89,
        "hand": "right"
      },
      {
        "midi": 42,
        "time": 21.3,
        "duration": 0.15,
        "velocity": 0.63,
        "hand": "left"
      },
      {
        "midi": 46,
        "time": 21.3,
        "duration": 0.075,
        "velocity": 0.63,
        "hand": "left"
      },
      {
        "midi": 50,
        "time": 21.3,
        "duration": 0.15,
        "velocity": 0.8,
        "hand": "left"
      },
      {
        "midi": 59,
        "time": 21.3,
        "duration": 0.075,
        "velocity": 0.73,
        "hand": "left"
      },
      {
        "midi": 62,
        "time": 21.3,
        "duration": 0.075,
        "velocity": 0.81,
        "hand": "right"
      },
      {
        "midi": 62,
        "time": 21.3,
        "duration": 0.3,
        "velocity": 0.63,
        "hand": "right"
      },
      {
        "midi": 67,
        "time": 21.3,
        "duration": 0.075,
        "velocity": 0.94,
        "hand": "right"
      },
      {
        "midi": 76,
        "time": 21.3,
        "duration": 0.3,
        "velocity": 0.68,
        "hand": "right"
      },
      {
        "midi": 88,
        "time": 21.3,
        "duration": 0.3,
        "velocity": 0.68,
        "hand": "right"
      },
      {
        "midi": 74,
        "time": 21.45,
        "duration": 0.15,
        "velocity": 0.94,
        "hand": "right"
      },
      {
        "midi": 86,
        "time": 21.45,
        "duration": 0.15,
        "velocity": 0.94,
        "hand": "right"
      },
      {
        "midi": 38,
        "time": 21.6,
        "duration": 0.3,
        "velocity": 0.63,
        "hand": "left"
      },
      {
        "midi": 43,
        "time": 21.6,
        "duration": 0.3,
        "velocity": 1,
        "hand": "left"
      },
      {
        "midi": 44,
        "time": 21.6,
        "duration": 0.075,
        "velocity": 0.63,
        "hand": "left"
      },
      {
        "midi": 59,
        "time": 21.6,
        "duration": 0.075,
        "velocity": 1,
        "hand": "left"
      },
      {
        "midi": 62,
        "time": 21.6,
        "duration": 0.075,
        "velocity": 1,
        "hand": "right"
      },
      {
        "midi": 67,
        "time": 21.6,
        "duration": 0.075,
        "velocity": 1,
        "hand": "right"
      },
      {
        "midi": 71,
        "time": 21.6,
        "duration": 0.3,
        "velocity": 0.63,
        "hand": "right"
      },
      {
        "midi": 74,
        "time": 21.6,
        "duration": 0.9,
        "velocity": 0.97,
        "hand": "right"
      },
      {
        "midi": 76,
        "time": 21.6,
        "duration": 0.15,
        "velocity": 0.68,
        "hand": "right"
      },
      {
        "midi": 86,
        "time": 21.6,
        "duration": 0.9,
        "velocity": 0.97,
        "hand": "right"
      },
      {
        "midi": 88,
        "time": 21.6,
        "duration": 0.15,
        "velocity": 0.68,
        "hand": "right"
      },
      {
        "midi": 42,
        "time": 21.9,
        "duration": 0.15,
        "velocity": 0.63,
        "hand": "left"
      },
      {
        "midi": 46,
        "time": 21.9,
        "duration": 0.075,
        "velocity": 0.63,
        "hand": "left"
      },
      {
        "midi": 50,
        "time": 21.9,
        "duration": 0.15,
        "velocity": 0.83,
        "hand": "left"
      },
      {
        "midi": 59,
        "time": 21.9,
        "duration": 0.075,
        "velocity": 0.89,
        "hand": "left"
      },
      {
        "midi": 62,
        "time": 21.9,
        "duration": 0.075,
        "velocity": 1,
        "hand": "right"
      },
      {
        "midi": 67,
        "time": 21.9,
        "duration": 0.075,
        "velocity": 0.94,
        "hand": "right"
      },
      {
        "midi": 67,
        "time": 21.9,
        "duration": 0.3,
        "velocity": 0.63,
        "hand": "right"
      },
      {
        "midi": 79,
        "time": 21.9,
        "duration": 0.15,
        "velocity": 0.69,
        "hand": "right"
      },
      {
        "midi": 59,
        "time": 22.05,
        "duration": 0.075,
        "velocity": 0.72,
        "hand": "left"
      },
      {
        "midi": 62,
        "time": 22.05,
        "duration": 0.075,
        "velocity": 0.89,
        "hand": "right"
      },
      {
        "midi": 67,
        "time": 22.05,
        "duration": 0.075,
        "velocity": 0.92,
        "hand": "right"
      },
      {
        "midi": 74,
        "time": 22.05,
        "duration": 0.15,
        "velocity": 0.77,
        "hand": "right"
      },
      {
        "midi": 38,
        "time": 22.2,
        "duration": 0.3,
        "velocity": 1,
        "hand": "left"
      },
      {
        "midi": 44,
        "time": 22.2,
        "duration": 0.075,
        "velocity": 0.63,
        "hand": "left"
      },
      {
        "midi": 50,
        "time": 22.2,
        "duration": 0.6,
        "velocity": 0.87,
        "hand": "left"
      },
      {
        "midi": 59,
        "time": 22.2,
        "duration": 0.075,
        "velocity": 0.77,
        "hand": "left"
      },
      {
        "midi": 62,
        "time": 22.2,
        "duration": 0.075,
        "velocity": 0.81,
        "hand": "right"
      },
      {
        "midi": 62,
        "time": 22.2,
        "duration": 1.65,
        "velocity": 0.63,
        "hand": "right"
      },
      {
        "midi": 71,
        "time": 22.2,
        "duration": 0.075,
        "velocity": 0.62,
        "hand": "right"
      },
      {
        "midi": 42,
        "time": 22.5,
        "duration": 0.15,
        "velocity": 0.63,
        "hand": "left"
      },
      {
        "midi": 46,
        "time": 22.5,
        "duration": 0.075,
        "velocity": 0.63,
        "hand": "left"
      },
      {
        "midi": 50,
        "time": 22.5,
        "duration": 0.15,
        "velocity": 0.83,
        "hand": "left"
      },
      {
        "midi": 59,
        "time": 22.5,
        "duration": 0.075,
        "velocity": 1,
        "hand": "left"
      },
      {
        "midi": 62,
        "time": 22.5,
        "duration": 0.075,
        "velocity": 1,
        "hand": "right"
      },
      {
        "midi": 67,
        "time": 22.5,
        "duration": 0.075,
        "velocity": 1,
        "hand": "right"
      },
      {
        "midi": 71,
        "time": 22.5,
        "duration": 0.3,
        "velocity": 0.94,
        "hand": "right"
      },
      {
        "midi": 71,
        "time": 22.5,
        "duration": 0.15,
        "velocity": 0.65,
        "hand": "right"
      },
      {
        "midi": 74,
        "time": 22.5,
        "duration": 0.15,
        "velocity": 0.77,
        "hand": "right"
      },
      {
        "midi": 83,
        "time": 22.5,
        "duration": 0.3,
        "velocity": 0.94,
        "hand": "right"
      },
      {
        "midi": 67,
        "time": 22.65,
        "duration": 0.6,
        "velocity": 0.87,
        "hand": "right"
      },
      {
        "midi": 38,
        "time": 22.8,
        "duration": 0.15,
        "velocity": 0.63,
        "hand": "left"
      },
      {
        "midi": 43,
        "time": 22.8,
        "duration": 0.15,
        "velocity": 0.91,
        "hand": "left"
      },
      {
        "midi": 44,
        "time": 22.8,
        "duration": 0.075,
        "velocity": 0.63,
        "hand": "left"
      },
      {
        "midi": 59,
        "time": 22.8,
        "duration": 0.075,
        "velocity": 0.89,
        "hand": "left"
      },
      {
        "midi": 62,
        "time": 22.8,
        "duration": 0.075,
        "velocity": 0.99,
        "hand": "right"
      },
      {
        "midi": 67,
        "time": 22.8,
        "duration": 0.075,
        "velocity": 0.97,
        "hand": "right"
      },
      {
        "midi": 67,
        "time": 22.8,
        "duration": 1.05,
        "velocity": 1,
        "hand": "right"
      },
      {
        "midi": 79,
        "time": 22.8,
        "duration": 1.05,
        "velocity": 1,
        "hand": "right"
      },
      {
        "midi": 55,
        "time": 22.95,
        "duration": 0.3,
        "velocity": 0.92,
        "hand": "left"
      },
      {
        "midi": 42,
        "time": 23.1,
        "duration": 0.15,
        "velocity": 0.63,
        "hand": "left"
      },
      {
        "midi": 46,
        "time": 23.1,
        "duration": 0.075,
        "velocity": 0.63,
        "hand": "left"
      },
      {
        "midi": 50,
        "time": 23.1,
        "duration": 0.15,
        "velocity": 0.8,
        "hand": "left"
      },
      {
        "midi": 59,
        "time": 23.1,
        "duration": 0.075,
        "velocity": 0.87,
        "hand": "left"
      },
      {
        "midi": 62,
        "time": 23.1,
        "duration": 0.075,
        "velocity": 1,
        "hand": "right"
      },
      {
        "midi": 67,
        "time": 23.1,
        "duration": 0.075,
        "velocity": 0.97,
        "hand": "right"
      },
      {
        "midi": 38,
        "time": 23.4,
        "duration": 0.3,
        "velocity": 1,
        "hand": "left"
      },
      {
        "midi": 44,
        "time": 23.4,
        "duration": 0.15,
        "velocity": 0.63,
        "hand": "left"
      },
      {
        "midi": 54,
        "time": 23.4,
        "duration": 0.15,
        "velocity": 1,
        "hand": "left"
      },
      {
        "midi": 59,
        "time": 23.4,
        "duration": 0.15,
        "velocity": 1,
        "hand": "left"
      },
      {
        "midi": 62,
        "time": 23.4,
        "duration": 0.15,
        "velocity": 1,
        "hand": "right"
      },
      {
        "midi": 67,
        "time": 23.4,
        "duration": 0.15,
        "velocity": 1,
        "hand": "right"
      },
      {
        "midi": 42,
        "time": 23.7,
        "duration": 0.15,
        "velocity": 0.63,
        "hand": "left"
      },
      {
        "midi": 46,
        "time": 23.7,
        "duration": 0.075,
        "velocity": 0.63,
        "hand": "left"
      },
      {
        "midi": 50,
        "time": 23.7,
        "duration": 0.15,
        "velocity": 0.72,
        "hand": "left"
      },
      {
        "midi": 55,
        "time": 23.7,
        "duration": 0.3,
        "velocity": 0.7,
        "hand": "left"
      },
      {
        "midi": 59,
        "time": 23.7,
        "duration": 0.15,
        "velocity": 0.85,
        "hand": "left"
      },
      {
        "midi": 62,
        "time": 23.7,
        "duration": 0.15,
        "velocity": 0.92,
        "hand": "right"
      },
      {
        "midi": 67,
        "time": 23.7,
        "duration": 0.15,
        "velocity": 0.99,
        "hand": "right"
      },
      {
        "midi": 38,
        "time": 24,
        "duration": 0.3,
        "velocity": 0.63,
        "hand": "left"
      },
      {
        "midi": 43,
        "time": 24,
        "duration": 0.3,
        "velocity": 1,
        "hand": "left"
      },
      {
        "midi": 44,
        "time": 24,
        "duration": 0.075,
        "velocity": 0.63,
        "hand": "left"
      },
      {
        "midi": 50,
        "time": 24,
        "duration": 0.6,
        "velocity": 0.97,
        "hand": "left"
      },
      {
        "midi": 59,
        "time": 24,
        "duration": 0.075,
        "velocity": 1,
        "hand": "left"
      },
      {
        "midi": 62,
        "time": 24,
        "duration": 0.075,
        "velocity": 1,
        "hand": "right"
      },
      {
        "midi": 67,
        "time": 24,
        "duration": 0.075,
        "velocity": 1,
        "hand": "right"
      },
      {
        "midi": 67,
        "time": 24,
        "duration": 0.3,
        "velocity": 0.63,
        "hand": "right"
      },
      {
        "midi": 67,
        "time": 24,
        "duration": 0.9,
        "velocity": 0.97,
        "hand": "right"
      },
      {
        "midi": 79,
        "time": 24,
        "duration": 0.9,
        "velocity": 0.97,
        "hand": "right"
      },
      {
        "midi": 42,
        "time": 24.3,
        "duration": 0.15,
        "velocity": 0.63,
        "hand": "left"
      },
      {
        "midi": 46,
        "time": 24.3,
        "duration": 0.075,
        "velocity": 0.63,
        "hand": "left"
      },
      {
        "midi": 50,
        "time": 24.3,
        "duration": 0.15,
        "velocity": 0.87,
        "hand": "left"
      },
      {
        "midi": 59,
        "time": 24.3,
        "duration": 0.075,
        "velocity": 0.99,
        "hand": "left"
      },
      {
        "midi": 59,
        "time": 24.3,
        "duration": 0.45,
        "velocity": 0.63,
        "hand": "left"
      },
      {
        "midi": 62,
        "time": 24.3,
        "duration": 0.075,
        "velocity": 1,
        "hand": "right"
      },
      {
        "midi": 67,
        "time": 24.3,
        "duration": 0.075,
        "velocity": 0.97,
        "hand": "right"
      },
      {
        "midi": 59,
        "time": 24.45,
        "duration": 0.075,
        "velocity": 0.57,
        "hand": "left"
      },
      {
        "midi": 62,
        "time": 24.45,
        "duration": 0.075,
        "velocity": 0.85,
        "hand": "right"
      },
      {
        "midi": 67,
        "time": 24.45,
        "duration": 0.075,
        "velocity": 0.85,
        "hand": "right"
      },
      {
        "midi": 38,
        "time": 24.6,
        "duration": 0.3,
        "velocity": 1,
        "hand": "left"
      },
      {
        "midi": 44,
        "time": 24.6,
        "duration": 0.3,
        "velocity": 0.63,
        "hand": "left"
      },
      {
        "midi": 50,
        "time": 24.6,
        "duration": 0.6,
        "velocity": 0.94,
        "hand": "left"
      },
      {
        "midi": 59,
        "time": 24.6,
        "duration": 0.075,
        "velocity": 0.81,
        "hand": "left"
      },
      {
        "midi": 60,
        "time": 24.6,
        "duration": 0.3,
        "velocity": 0.63,
        "hand": "right"
      },
      {
        "midi": 62,
        "time": 24.6,
        "duration": 0.075,
        "velocity": 0.99,
        "hand": "right"
      },
      {
        "midi": 67,
        "time": 24.6,
        "duration": 0.15,
        "velocity": 0.97,
        "hand": "right"
      },
      {
        "midi": 42,
        "time": 24.9,
        "duration": 0.15,
        "velocity": 0.63,
        "hand": "left"
      },
      {
        "midi": 46,
        "time": 24.9,
        "duration": 0.15,
        "velocity": 0.63,
        "hand": "left"
      },
      {
        "midi": 50,
        "time": 24.9,
        "duration": 0.15,
        "velocity": 0.77,
        "hand": "left"
      },
      {
        "midi": 59,
        "time": 24.9,
        "duration": 0.075,
        "velocity": 0.99,
        "hand": "left"
      },
      {
        "midi": 61,
        "time": 24.9,
        "duration": 0.3,
        "velocity": 0.63,
        "hand": "right"
      },
      {
        "midi": 62,
        "time": 24.9,
        "duration": 0.075,
        "velocity": 1,
        "hand": "right"
      },
      {
        "midi": 67,
        "time": 24.9,
        "duration": 0.075,
        "velocity": 1,
        "hand": "right"
      },
      {
        "midi": 71,
        "time": 24.9,
        "duration": 0.3,
        "velocity": 0.81,
        "hand": "right"
      },
      {
        "midi": 83,
        "time": 24.9,
        "duration": 0.3,
        "velocity": 0.81,
        "hand": "right"
      },
      {
        "midi": 38,
        "time": 25.2,
        "duration": 0.15,
        "velocity": 0.63,
        "hand": "left"
      },
      {
        "midi": 43,
        "time": 25.2,
        "duration": 0.15,
        "velocity": 0.87,
        "hand": "left"
      },
      {
        "midi": 44,
        "time": 25.2,
        "duration": 0.075,
        "velocity": 0.63,
        "hand": "left"
      },
      {
        "midi": 59,
        "time": 25.2,
        "duration": 0.075,
        "velocity": 0.92,
        "hand": "left"
      },
      {
        "midi": 62,
        "time": 25.2,
        "duration": 0.075,
        "velocity": 1,
        "hand": "right"
      },
      {
        "midi": 67,
        "time": 25.2,
        "duration": 0.15,
        "velocity": 0.94,
        "hand": "right"
      },
      {
        "midi": 74,
        "time": 25.2,
        "duration": 0.075,
        "velocity": 0.89,
        "hand": "right"
      },
      {
        "midi": 86,
        "time": 25.2,
        "duration": 0.075,
        "velocity": 0.89,
        "hand": "right"
      },
      {
        "midi": 42,
        "time": 25.5,
        "duration": 0.15,
        "velocity": 0.63,
        "hand": "left"
      },
      {
        "midi": 46,
        "time": 25.5,
        "duration": 0.075,
        "velocity": 0.63,
        "hand": "left"
      },
      {
        "midi": 50,
        "time": 25.5,
        "duration": 0.15,
        "velocity": 0.89,
        "hand": "left"
      },
      {
        "midi": 59,
        "time": 25.5,
        "duration": 0.075,
        "velocity": 0.94,
        "hand": "left"
      },
      {
        "midi": 62,
        "time": 25.5,
        "duration": 0.075,
        "velocity": 1,
        "hand": "right"
      },
      {
        "midi": 67,
        "time": 25.5,
        "duration": 0.075,
        "velocity": 1,
        "hand": "right"
      },
      {
        "midi": 74,
        "time": 25.5,
        "duration": 0.45,
        "velocity": 0.91,
        "hand": "right"
      },
      {
        "midi": 86,
        "time": 25.5,
        "duration": 0.45,
        "velocity": 0.91,
        "hand": "right"
      },
      {
        "midi": 38,
        "time": 25.8,
        "duration": 0.3,
        "velocity": 1,
        "hand": "left"
      },
      {
        "midi": 44,
        "time": 25.8,
        "duration": 0.15,
        "velocity": 0.63,
        "hand": "left"
      },
      {
        "midi": 50,
        "time": 25.8,
        "duration": 0.6,
        "velocity": 0.94,
        "hand": "left"
      },
      {
        "midi": 55,
        "time": 25.8,
        "duration": 0.45,
        "velocity": 0.63,
        "hand": "left"
      },
      {
        "midi": 58,
        "time": 25.8,
        "duration": 0.075,
        "velocity": 0.63,
        "hand": "left"
      },
      {
        "midi": 59,
        "time": 25.8,
        "duration": 0.075,
        "velocity": 1,
        "hand": "left"
      },
      {
        "midi": 62,
        "time": 25.8,
        "duration": 0.075,
        "velocity": 1,
        "hand": "right"
      },
      {
        "midi": 67,
        "time": 25.8,
        "duration": 0.075,
        "velocity": 1,
        "hand": "right"
      },
      {
        "midi": 72,
        "time": 25.8,
        "duration": 0.3,
        "velocity": 0.91,
        "hand": "right"
      },
      {
        "midi": 84,
        "time": 25.8,
        "duration": 0.3,
        "velocity": 0.91,
        "hand": "right"
      },
      {
        "midi": 71,
        "time": 25.95,
        "duration": 0.3,
        "velocity": 0.79,
        "hand": "right"
      },
      {
        "midi": 83,
        "time": 25.95,
        "duration": 0.3,
        "velocity": 0.79,
        "hand": "right"
      },
      {
        "midi": 42,
        "time": 26.1,
        "duration": 0.15,
        "velocity": 0.63,
        "hand": "left"
      },
      {
        "midi": 46,
        "time": 26.1,
        "duration": 0.15,
        "velocity": 0.63,
        "hand": "left"
      },
      {
        "midi": 50,
        "time": 26.1,
        "duration": 0.15,
        "velocity": 1,
        "hand": "left"
      },
      {
        "midi": 59,
        "time": 26.1,
        "duration": 0.15,
        "velocity": 0.97,
        "hand": "left"
      },
      {
        "midi": 62,
        "time": 26.1,
        "duration": 0.075,
        "velocity": 1,
        "hand": "right"
      },
      {
        "midi": 67,
        "time": 26.1,
        "duration": 0.15,
        "velocity": 1,
        "hand": "right"
      },
      {
        "midi": 44,
        "time": 26.25,
        "duration": 0.075,
        "velocity": 0.63,
        "hand": "left"
      },
      {
        "midi": 46,
        "time": 26.25,
        "duration": 0.075,
        "velocity": 0.63,
        "hand": "left"
      },
      {
        "midi": 56,
        "time": 26.25,
        "duration": 0.15,
        "velocity": 0.63,
        "hand": "left"
      },
      {
        "midi": 38,
        "time": 26.4,
        "duration": 0.15,
        "velocity": 0.63,
        "hand": "left"
      },
      {
        "midi": 42,
        "time": 26.4,
        "duration": 0.15,
        "velocity": 1,
        "hand": "left"
      },
      {
        "midi": 44,
        "time": 26.4,
        "duration": 0.075,
        "velocity": 0.63,
        "hand": "left"
      },
      {
        "midi": 57,
        "time": 26.4,
        "duration": 0.075,
        "velocity": 1,
        "hand": "left"
      },
      {
        "midi": 62,
        "time": 26.4,
        "duration": 0.075,
        "velocity": 1,
        "hand": "right"
      },
      {
        "midi": 66,
        "time": 26.4,
        "duration": 0.075,
        "velocity": 1,
        "hand": "right"
      },
      {
        "midi": 69,
        "time": 26.4,
        "duration": 0.075,
        "velocity": 0.81,
        "hand": "right"
      },
      {
        "midi": 81,
        "time": 26.4,
        "duration": 0.075,
        "velocity": 0.81,
        "hand": "right"
      },
      {
        "midi": 42,
        "time": 26.7,
        "duration": 0.15,
        "velocity": 0.63,
        "hand": "left"
      },
      {
        "midi": 46,
        "time": 26.7,
        "duration": 0.075,
        "velocity": 0.63,
        "hand": "left"
      },
      {
        "midi": 50,
        "time": 26.7,
        "duration": 0.075,
        "velocity": 0.99,
        "hand": "left"
      },
      {
        "midi": 54,
        "time": 26.7,
        "duration": 0.075,
        "velocity": 1,
        "hand": "left"
      },
      {
        "midi": 57,
        "time": 26.7,
        "duration": 0.075,
        "velocity": 1,
        "hand": "left"
      },
      {
        "midi": 62,
        "time": 26.7,
        "duration": 0.075,
        "velocity": 1,
        "hand": "right"
      },
      {
        "midi": 62,
        "time": 26.7,
        "duration": 0.15,
        "velocity": 0.63,
        "hand": "right"
      },
      {
        "midi": 66,
        "time": 26.7,
        "duration": 0.075,
        "velocity": 1,
        "hand": "right"
      },
      {
        "midi": 66,
        "time": 26.7,
        "duration": 0.15,
        "velocity": 0.94,
        "hand": "right"
      },
      {
        "midi": 74,
        "time": 26.7,
        "duration": 0.15,
        "velocity": 0.89,
        "hand": "right"
      },
      {
        "midi": 78,
        "time": 26.7,
        "duration": 0.075,
        "velocity": 0.92,
        "hand": "right"
      },
      {
        "midi": 86,
        "time": 26.7,
        "duration": 0.15,
        "velocity": 0.89,
        "hand": "right"
      },
      {
        "midi": 54,
        "time": 26.85,
        "duration": 0.075,
        "velocity": 1,
        "hand": "left"
      },
      {
        "midi": 54,
        "time": 26.85,
        "duration": 0.15,
        "velocity": 1,
        "hand": "left"
      },
      {
        "midi": 57,
        "time": 26.85,
        "duration": 0.075,
        "velocity": 0.81,
        "hand": "left"
      },
      {
        "midi": 61,
        "time": 26.85,
        "duration": 0.15,
        "velocity": 0.63,
        "hand": "right"
      },
      {
        "midi": 62,
        "time": 26.85,
        "duration": 0.075,
        "velocity": 1,
        "hand": "right"
      },
      {
        "midi": 64,
        "time": 26.85,
        "duration": 0.15,
        "velocity": 0.94,
        "hand": "right"
      },
      {
        "midi": 66,
        "time": 26.85,
        "duration": 0.075,
        "velocity": 1,
        "hand": "right"
      },
      {
        "midi": 74,
        "time": 26.85,
        "duration": 0.075,
        "velocity": 0.85,
        "hand": "right"
      },
      {
        "midi": 78,
        "time": 26.85,
        "duration": 0.075,
        "velocity": 0.81,
        "hand": "right"
      },
      {
        "midi": 86,
        "time": 26.85,
        "duration": 0.075,
        "velocity": 0.85,
        "hand": "right"
      },
      {
        "midi": 38,
        "time": 27,
        "duration": 0.3,
        "velocity": 1,
        "hand": "left"
      },
      {
        "midi": 38,
        "time": 27,
        "duration": 0.15,
        "velocity": 0.63,
        "hand": "left"
      },
      {
        "midi": 44,
        "time": 27,
        "duration": 0.075,
        "velocity": 0.63,
        "hand": "left"
      },
      {
        "midi": 60,
        "time": 27,
        "duration": 0.075,
        "velocity": 0.63,
        "hand": "right"
      },
      {
        "midi": 62,
        "time": 27,
        "duration": 0.075,
        "velocity": 0.94,
        "hand": "right"
      },
      {
        "midi": 42,
        "time": 27.3,
        "duration": 0.15,
        "velocity": 0.63,
        "hand": "left"
      },
      {
        "midi": 46,
        "time": 27.3,
        "duration": 0.075,
        "velocity": 0.63,
        "hand": "left"
      },
      {
        "midi": 50,
        "time": 27.3,
        "duration": 0.15,
        "velocity": 0.93,
        "hand": "left"
      },
      {
        "midi": 54,
        "time": 27.3,
        "duration": 0.15,
        "velocity": 1,
        "hand": "left"
      },
      {
        "midi": 57,
        "time": 27.3,
        "duration": 0.075,
        "velocity": 1,
        "hand": "left"
      },
      {
        "midi": 62,
        "time": 27.3,
        "duration": 0.075,
        "velocity": 1,
        "hand": "right"
      },
      {
        "midi": 62,
        "time": 27.3,
        "duration": 0.15,
        "velocity": 0.94,
        "hand": "right"
      },
      {
        "midi": 66,
        "time": 27.3,
        "duration": 0.075,
        "velocity": 1,
        "hand": "right"
      },
      {
        "midi": 66,
        "time": 27.3,
        "duration": 0.15,
        "velocity": 0.63,
        "hand": "right"
      },
      {
        "midi": 74,
        "time": 27.3,
        "duration": 0.075,
        "velocity": 1,
        "hand": "right"
      },
      {
        "midi": 78,
        "time": 27.3,
        "duration": 0.075,
        "velocity": 0.92,
        "hand": "right"
      },
      {
        "midi": 86,
        "time": 27.3,
        "duration": 0.075,
        "velocity": 1,
        "hand": "right"
      },
      {
        "midi": 61,
        "time": 27.45,
        "duration": 0.15,
        "velocity": 0.94,
        "hand": "right"
      },
      {
        "midi": 64,
        "time": 27.45,
        "duration": 0.15,
        "velocity": 0.63,
        "hand": "right"
      },
      {
        "midi": 78,
        "time": 27.45,
        "duration": 0.3,
        "velocity": 0.92,
        "hand": "right"
      },
      {
        "midi": 38,
        "time": 27.6,
        "duration": 0.15,
        "velocity": 0.63,
        "hand": "left"
      },
      {
        "midi": 42,
        "time": 27.6,
        "duration": 0.3,
        "velocity": 0.87,
        "hand": "left"
      },
      {
        "midi": 44,
        "time": 27.6,
        "duration": 0.15,
        "velocity": 0.63,
        "hand": "left"
      },
      {
        "midi": 54,
        "time": 27.6,
        "duration": 0.9,
        "velocity": 1,
        "hand": "left"
      },
      {
        "midi": 57,
        "time": 27.6,
        "duration": 0.075,
        "velocity": 0.99,
        "hand": "left"
      },
      {
        "midi": 60,
        "time": 27.6,
        "duration": 0.6,
        "velocity": 0.94,
        "hand": "right"
      },
      {
        "midi": 62,
        "time": 27.6,
        "duration": 0.075,
        "velocity": 1,
        "hand": "right"
      },
      {
        "midi": 66,
        "time": 27.6,
        "duration": 0.075,
        "velocity": 1,
        "hand": "right"
      },
      {
        "midi": 74,
        "time": 27.6,
        "duration": 0.3,
        "velocity": 0.97,
        "hand": "right"
      },
      {
        "midi": 86,
        "time": 27.6,
        "duration": 0.3,
        "velocity": 0.97,
        "hand": "right"
      },
      {
        "midi": 57,
        "time": 27.75,
        "duration": 0.075,
        "velocity": 0.99,
        "hand": "left"
      },
      {
        "midi": 62,
        "time": 27.75,
        "duration": 0.075,
        "velocity": 1,
        "hand": "right"
      },
      {
        "midi": 66,
        "time": 27.75,
        "duration": 0.075,
        "velocity": 1,
        "hand": "right"
      },
      {
        "midi": 42,
        "time": 27.9,
        "duration": 0.15,
        "velocity": 0.63,
        "hand": "left"
      },
      {
        "midi": 46,
        "time": 27.9,
        "duration": 0.075,
        "velocity": 0.63,
        "hand": "left"
      },
      {
        "midi": 50,
        "time": 27.9,
        "duration": 0.15,
        "velocity": 0.97,
        "hand": "left"
      },
      {
        "midi": 69,
        "time": 27.9,
        "duration": 0.15,
        "velocity": 0.63,
        "hand": "right"
      },
      {
        "midi": 78,
        "time": 27.9,
        "duration": 0.6,
        "velocity": 0.89,
        "hand": "right"
      },
      {
        "midi": 90,
        "time": 27.9,
        "duration": 0.6,
        "velocity": 0.89,
        "hand": "right"
      },
      {
        "midi": 67,
        "time": 28.05,
        "duration": 0.15,
        "velocity": 0.63,
        "hand": "right"
      },
      {
        "midi": 38,
        "time": 28.2,
        "duration": 0.3,
        "velocity": 0.63,
        "hand": "left"
      },
      {
        "midi": 44,
        "time": 28.2,
        "duration": 0.15,
        "velocity": 0.63,
        "hand": "left"
      },
      {
        "midi": 45,
        "time": 28.2,
        "duration": 0.3,
        "velocity": 1,
        "hand": "left"
      },
      {
        "midi": 57,
        "time": 28.2,
        "duration": 0.075,
        "velocity": 1,
        "hand": "left"
      },
      {
        "midi": 62,
        "time": 28.2,
        "duration": 0.075,
        "velocity": 1,
        "hand": "right"
      },
      {
        "midi": 66,
        "time": 28.2,
        "duration": 0.075,
        "velocity": 1,
        "hand": "right"
      },
      {
        "midi": 42,
        "time": 28.5,
        "duration": 0.15,
        "velocity": 0.63,
        "hand": "left"
      },
      {
        "midi": 46,
        "time": 28.5,
        "duration": 0.075,
        "velocity": 0.63,
        "hand": "left"
      },
      {
        "midi": 50,
        "time": 28.5,
        "duration": 0.15,
        "velocity": 0.79,
        "hand": "left"
      },
      {
        "midi": 57,
        "time": 28.5,
        "duration": 0.075,
        "velocity": 1,
        "hand": "left"
      },
      {
        "midi": 57,
        "time": 28.5,
        "duration": 0.3,
        "velocity": 1,
        "hand": "left"
      },
      {
        "midi": 62,
        "time": 28.5,
        "duration": 0.075,
        "velocity": 1,
        "hand": "right"
      },
      {
        "midi": 66,
        "time": 28.5,
        "duration": 0.15,
        "velocity": 1,
        "hand": "right"
      },
      {
        "midi": 76,
        "time": 28.5,
        "duration": 0.3,
        "velocity": 0.85,
        "hand": "right"
      },
      {
        "midi": 88,
        "time": 28.5,
        "duration": 0.3,
        "velocity": 0.85,
        "hand": "right"
      },
      {
        "midi": 64,
        "time": 28.65,
        "duration": 0.15,
        "velocity": 0.63,
        "hand": "right"
      },
      {
        "midi": 38,
        "time": 28.8,
        "duration": 0.3,
        "velocity": 1,
        "hand": "left"
      },
      {
        "midi": 38,
        "time": 28.8,
        "duration": 0.075,
        "velocity": 0.63,
        "hand": "left"
      },
      {
        "midi": 44,
        "time": 28.8,
        "duration": 0.075,
        "velocity": 0.63,
        "hand": "left"
      },
      {
        "midi": 50,
        "time": 28.8,
        "duration": 0.6,
        "velocity": 0.94,
        "hand": "left"
      },
      {
        "midi": 62,
        "time": 28.8,
        "duration": 0.15,
        "velocity": 1,
        "hand": "right"
      },
      {
        "midi": 62,
        "time": 28.8,
        "duration": 0.3,
        "velocity": 0.63,
        "hand": "right"
      },
      {
        "midi": 66,
        "time": 28.8,
        "duration": 0.15,
        "velocity": 0.97,
        "hand": "right"
      },
      {
        "midi": 72,
        "time": 28.8,
        "duration": 0.075,
        "velocity": 0.98,
        "hand": "right"
      },
      {
        "midi": 74,
        "time": 28.8,
        "duration": 0.9,
        "velocity": 0.83,
        "hand": "right"
      },
      {
        "midi": 86,
        "time": 28.8,
        "duration": 0.9,
        "velocity": 0.83,
        "hand": "right"
      },
      {
        "midi": 42,
        "time": 29.1,
        "duration": 0.15,
        "velocity": 0.63,
        "hand": "left"
      },
      {
        "midi": 44,
        "time": 29.1,
        "duration": 0.075,
        "velocity": 0.63,
        "hand": "left"
      },
      {
        "midi": 46,
        "time": 29.1,
        "duration": 0.075,
        "velocity": 0.63,
        "hand": "left"
      },
      {
        "midi": 50,
        "time": 29.1,
        "duration": 0.15,
        "velocity": 0.89,
        "hand": "left"
      },
      {
        "midi": 62,
        "time": 29.1,
        "duration": 0.075,
        "velocity": 0.92,
        "hand": "right"
      },
      {
        "midi": 66,
        "time": 29.1,
        "duration": 0.075,
        "velocity": 0.94,
        "hand": "right"
      },
      {
        "midi": 66,
        "time": 29.1,
        "duration": 0.3,
        "velocity": 0.63,
        "hand": "right"
      },
      {
        "midi": 72,
        "time": 29.1,
        "duration": 0.075,
        "velocity": 0.94,
        "hand": "right"
      },
      {
        "midi": 44,
        "time": 29.25,
        "duration": 0.15,
        "velocity": 0.63,
        "hand": "left"
      },
      {
        "midi": 46,
        "time": 29.25,
        "duration": 0.15,
        "velocity": 0.63,
        "hand": "left"
      },
      {
        "midi": 62,
        "time": 29.25,
        "duration": 0.075,
        "velocity": 0.65,
        "hand": "right"
      },
      {
        "midi": 66,
        "time": 29.25,
        "duration": 0.15,
        "velocity": 0.92,
        "hand": "right"
      },
      {
        "midi": 72,
        "time": 29.25,
        "duration": 0.075,
        "velocity": 0.84,
        "hand": "right"
      },
      {
        "midi": 38,
        "time": 29.4,
        "duration": 0.15,
        "velocity": 0.63,
        "hand": "left"
      },
      {
        "midi": 40,
        "time": 29.4,
        "duration": 0.3,
        "velocity": 1,
        "hand": "left"
      },
      {
        "midi": 46,
        "time": 29.4,
        "duration": 0.075,
        "velocity": 0.63,
        "hand": "left"
      },
      {
        "midi": 52,
        "time": 29.4,
        "duration": 0.3,
        "velocity": 0.94,
        "hand": "left"
      },
      {
        "midi": 62,
        "time": 29.4,
        "duration": 0.075,
        "velocity": 0.77,
        "hand": "right"
      },
      {
        "midi": 64,
        "time": 29.4,
        "duration": 0.3,
        "velocity": 0.63,
        "hand": "right"
      },
      {
        "midi": 66,
        "time": 29.4,
        "duration": 0.075,
        "velocity": 0.92,
        "hand": "right"
      },
      {
        "midi": 72,
        "time": 29.4,
        "duration": 0.075,
        "velocity": 0.91,
        "hand": "right"
      },
      {
        "midi": 42,
        "time": 29.7,
        "duration": 0.15,
        "velocity": 0.63,
        "hand": "left"
      },
      {
        "midi": 46,
        "time": 29.7,
        "duration": 0.075,
        "velocity": 0.63,
        "hand": "left"
      },
      {
        "midi": 50,
        "time": 29.7,
        "duration": 0.15,
        "velocity": 0.81,
        "hand": "left"
      },
      {
        "midi": 53,
        "time": 29.7,
        "duration": 0.3,
        "velocity": 1,
        "hand": "left"
      },
      {
        "midi": 62,
        "time": 29.7,
        "duration": 0.075,
        "velocity": 1,
        "hand": "right"
      },
      {
        "midi": 62,
        "time": 29.7,
        "duration": 0.3,
        "velocity": 0.63,
        "hand": "right"
      },
      {
        "midi": 65,
        "time": 29.7,
        "duration": 0.075,
        "velocity": 0.74,
        "hand": "right"
      },
      {
        "midi": 66,
        "time": 29.7,
        "duration": 0.075,
        "velocity": 1,
        "hand": "right"
      },
      {
        "midi": 72,
        "time": 29.7,
        "duration": 0.075,
        "velocity": 1,
        "hand": "right"
      },
      {
        "midi": 72,
        "time": 29.7,
        "duration": 0.3,
        "velocity": 0.94,
        "hand": "right"
      },
      {
        "midi": 84,
        "time": 29.7,
        "duration": 0.3,
        "velocity": 0.94,
        "hand": "right"
      },
      {
        "midi": 54,
        "time": 29.85,
        "duration": 1.05,
        "velocity": 0.98,
        "hand": "left"
      },
      {
        "midi": 38,
        "time": 30,
        "duration": 0.15,
        "velocity": 0.63,
        "hand": "left"
      },
      {
        "midi": 41,
        "time": 30,
        "duration": 0.3,
        "velocity": 1,
        "hand": "left"
      },
      {
        "midi": 44,
        "time": 30,
        "duration": 0.075,
        "velocity": 0.63,
        "hand": "left"
      },
      {
        "midi": 60,
        "time": 30,
        "duration": 1.05,
        "velocity": 0.63,
        "hand": "right"
      },
      {
        "midi": 62,
        "time": 30,
        "duration": 0.075,
        "velocity": 0.68,
        "hand": "right"
      },
      {
        "midi": 66,
        "time": 30,
        "duration": 0.15,
        "velocity": 0.89,
        "hand": "right"
      },
      {
        "midi": 71,
        "time": 30,
        "duration": 0.6,
        "velocity": 0.87,
        "hand": "right"
      },
      {
        "midi": 72,
        "time": 30,
        "duration": 0.075,
        "velocity": 0.87,
        "hand": "right"
      },
      {
        "midi": 83,
        "time": 30,
        "duration": 0.6,
        "velocity": 0.87,
        "hand": "right"
      },
      {
        "midi": 42,
        "time": 30.3,
        "duration": 0.15,
        "velocity": 0.63,
        "hand": "left"
      },
      {
        "midi": 46,
        "time": 30.3,
        "duration": 0.075,
        "velocity": 0.63,
        "hand": "left"
      },
      {
        "midi": 50,
        "time": 30.3,
        "duration": 0.15,
        "velocity": 0.93,
        "hand": "left"
      },
      {
        "midi": 62,
        "time": 30.3,
        "duration": 0.075,
        "velocity": 0.65,
        "hand": "right"
      },
      {
        "midi": 66,
        "time": 30.3,
        "duration": 0.075,
        "velocity": 0.89,
        "hand": "right"
      },
      {
        "midi": 72,
        "time": 30.3,
        "duration": 0.075,
        "velocity": 0.82,
        "hand": "right"
      },
      {
        "midi": 38,
        "time": 30.6,
        "duration": 0.3,
        "velocity": 0.63,
        "hand": "left"
      },
      {
        "midi": 42,
        "time": 30.6,
        "duration": 0.3,
        "velocity": 1,
        "hand": "left"
      },
      {
        "midi": 44,
        "time": 30.6,
        "duration": 0.15,
        "velocity": 0.63,
        "hand": "left"
      },
      {
        "midi": 62,
        "time": 30.6,
        "duration": 0.075,
        "velocity": 1,
        "hand": "right"
      },
      {
        "midi": 66,
        "time": 30.6,
        "duration": 0.15,
        "velocity": 1,
        "hand": "right"
      },
      {
        "midi": 69,
        "time": 30.6,
        "duration": 0.45,
        "velocity": 1,
        "hand": "right"
      },
      {
        "midi": 72,
        "time": 30.6,
        "duration": 0.15,
        "velocity": 1,
        "hand": "right"
      },
      {
        "midi": 81,
        "time": 30.6,
        "duration": 0.45,
        "velocity": 1,
        "hand": "right"
      },
      {
        "midi": 42,
        "time": 30.9,
        "duration": 0.3,
        "velocity": 0.63,
        "hand": "left"
      },
      {
        "midi": 46,
        "time": 30.9,
        "duration": 0.075,
        "velocity": 0.63,
        "hand": "left"
      },
      {
        "midi": 57,
        "time": 30.9,
        "duration": 0.15,
        "velocity": 0.97,
        "hand": "left"
      },
      {
        "midi": 62,
        "time": 30.9,
        "duration": 0.075,
        "velocity": 0.99,
        "hand": "right"
      },
      {
        "midi": 66,
        "time": 30.9,
        "duration": 0.075,
        "velocity": 1,
        "hand": "right"
      },
      {
        "midi": 72,
        "time": 30.9,
        "duration": 0.075,
        "velocity": 0.98,
        "hand": "right"
      },
      {
        "midi": 76,
        "time": 31.05,
        "duration": 0.45,
        "velocity": 0.87,
        "hand": "right"
      },
      {
        "midi": 88,
        "time": 31.05,
        "duration": 0.45,
        "velocity": 0.87,
        "hand": "right"
      },
      {
        "midi": 38,
        "time": 31.2,
        "duration": 0.075,
        "velocity": 0.63,
        "hand": "left"
      },
      {
        "midi": 43,
        "time": 31.2,
        "duration": 0.3,
        "velocity": 1,
        "hand": "left"
      },
      {
        "midi": 44,
        "time": 31.2,
        "duration": 0.075,
        "velocity": 0.63,
        "hand": "left"
      },
      {
        "midi": 59,
        "time": 31.2,
        "duration": 0.9,
        "velocity": 0.94,
        "hand": "left"
      },
      {
        "midi": 62,
        "time": 31.2,
        "duration": 0.075,
        "velocity": 1,
        "hand": "right"
      },
      {
        "midi": 67,
        "time": 31.2,
        "duration": 0.075,
        "velocity": 1,
        "hand": "right"
      },
      {
        "midi": 71,
        "time": 31.2,
        "duration": 0.075,
        "velocity": 1,
        "hand": "right"
      },
      {
        "midi": 42,
        "time": 31.5,
        "duration": 0.15,
        "velocity": 0.63,
        "hand": "left"
      },
      {
        "midi": 46,
        "time": 31.5,
        "duration": 0.075,
        "velocity": 0.63,
        "hand": "left"
      },
      {
        "midi": 55,
        "time": 31.5,
        "duration": 0.075,
        "velocity": 1,
        "hand": "left"
      },
      {
        "midi": 62,
        "time": 31.5,
        "duration": 0.075,
        "velocity": 0.94,
        "hand": "right"
      },
      {
        "midi": 62,
        "time": 31.5,
        "duration": 0.3,
        "velocity": 0.63,
        "hand": "right"
      },
      {
        "midi": 67,
        "time": 31.5,
        "duration": 0.075,
        "velocity": 1,
        "hand": "right"
      },
      {
        "midi": 71,
        "time": 31.5,
        "duration": 0.075,
        "velocity": 0.99,
        "hand": "right"
      },
      {
        "midi": 74,
        "time": 31.5,
        "duration": 0.15,
        "velocity": 0.94,
        "hand": "right"
      },
      {
        "midi": 86,
        "time": 31.5,
        "duration": 0.15,
        "velocity": 0.94,
        "hand": "right"
      },
      {
        "midi": 62,
        "time": 31.65,
        "duration": 0.075,
        "velocity": 0.79,
        "hand": "right"
      },
      {
        "midi": 67,
        "time": 31.65,
        "duration": 0.075,
        "velocity": 1,
        "hand": "right"
      },
      {
        "midi": 71,
        "time": 31.65,
        "duration": 0.075,
        "velocity": 0.89,
        "hand": "right"
      },
      {
        "midi": 38,
        "time": 31.8,
        "duration": 0.3,
        "velocity": 1,
        "hand": "left"
      },
      {
        "midi": 38,
        "time": 31.8,
        "duration": 0.15,
        "velocity": 0.63,
        "hand": "left"
      },
      {
        "midi": 44,
        "time": 31.8,
        "duration": 0.075,
        "velocity": 0.63,
        "hand": "left"
      },
      {
        "midi": 67,
        "time": 31.8,
        "duration": 0.3,
        "velocity": 0.63,
        "hand": "right"
      },
      {
        "midi": 67,
        "time": 31.8,
        "duration": 0.6,
        "velocity": 1,
        "hand": "right"
      },
      {
        "midi": 42,
        "time": 32.1,
        "duration": 0.15,
        "velocity": 0.63,
        "hand": "left"
      },
      {
        "midi": 46,
        "time": 32.1,
        "duration": 0.075,
        "velocity": 0.63,
        "hand": "left"
      },
      {
        "midi": 50,
        "time": 32.1,
        "duration": 0.15,
        "velocity": 0.99,
        "hand": "left"
      },
      {
        "midi": 57,
        "time": 32.1,
        "duration": 0.3,
        "velocity": 0.89,
        "hand": "left"
      },
      {
        "midi": 59,
        "time": 32.1,
        "duration": 0.3,
        "velocity": 0.63,
        "hand": "left"
      },
      {
        "midi": 62,
        "time": 32.1,
        "duration": 0.075,
        "velocity": 1,
        "hand": "right"
      },
      {
        "midi": 67,
        "time": 32.1,
        "duration": 0.075,
        "velocity": 1,
        "hand": "right"
      },
      {
        "midi": 71,
        "time": 32.1,
        "duration": 0.075,
        "velocity": 1,
        "hand": "right"
      },
      {
        "midi": 71,
        "time": 32.1,
        "duration": 0.3,
        "velocity": 0.99,
        "hand": "right"
      },
      {
        "midi": 83,
        "time": 32.1,
        "duration": 0.3,
        "velocity": 0.99,
        "hand": "right"
      },
      {
        "midi": 38,
        "time": 32.4,
        "duration": 0.15,
        "velocity": 0.63,
        "hand": "left"
      },
      {
        "midi": 43,
        "time": 32.4,
        "duration": 0.3,
        "velocity": 1,
        "hand": "left"
      },
      {
        "midi": 44,
        "time": 32.4,
        "duration": 0.15,
        "velocity": 0.63,
        "hand": "left"
      },
      {
        "midi": 55,
        "time": 32.4,
        "duration": 0.6,
        "velocity": 1,
        "hand": "left"
      },
      {
        "midi": 62,
        "time": 32.4,
        "duration": 0.15,
        "velocity": 0.89,
        "hand": "right"
      },
      {
        "midi": 64,
        "time": 32.4,
        "duration": 0.6,
        "velocity": 1,
        "hand": "right"
      },
      {
        "midi": 67,
        "time": 32.4,
        "duration": 0.075,
        "velocity": 1,
        "hand": "right"
      },
      {
        "midi": 67,
        "time": 32.4,
        "duration": 0.6,
        "velocity": 0.77,
        "hand": "right"
      },
      {
        "midi": 71,
        "time": 32.4,
        "duration": 0.075,
        "velocity": 0.94,
        "hand": "right"
      },
      {
        "midi": 79,
        "time": 32.4,
        "duration": 0.6,
        "velocity": 0.77,
        "hand": "right"
      },
      {
        "midi": 42,
        "time": 32.7,
        "duration": 0.15,
        "velocity": 0.63,
        "hand": "left"
      },
      {
        "midi": 46,
        "time": 32.7,
        "duration": 0.075,
        "velocity": 0.63,
        "hand": "left"
      },
      {
        "midi": 50,
        "time": 32.7,
        "duration": 0.15,
        "velocity": 0.99,
        "hand": "left"
      },
      {
        "midi": 62,
        "time": 32.7,
        "duration": 0.075,
        "velocity": 0.92,
        "hand": "right"
      },
      {
        "midi": 67,
        "time": 32.7,
        "duration": 0.075,
        "velocity": 1,
        "hand": "right"
      },
      {
        "midi": 71,
        "time": 32.7,
        "duration": 0.075,
        "velocity": 0.97,
        "hand": "right"
      },
      {
        "midi": 38,
        "time": 33,
        "duration": 0.3,
        "velocity": 0.63,
        "hand": "left"
      },
      {
        "midi": 44,
        "time": 33,
        "duration": 0.3,
        "velocity": 1,
        "hand": "left"
      },
      {
        "midi": 44,
        "time": 33,
        "duration": 0.15,
        "velocity": 0.63,
        "hand": "left"
      },
      {
        "midi": 50,
        "time": 33,
        "duration": 0.3,
        "velocity": 1,
        "hand": "left"
      },
      {
        "midi": 62,
        "time": 33,
        "duration": 0.15,
        "velocity": 1,
        "hand": "right"
      },
      {
        "midi": 62,
        "time": 33,
        "duration": 0.3,
        "velocity": 1,
        "hand": "right"
      },
      {
        "midi": 64,
        "time": 33,
        "duration": 0.3,
        "velocity": 0.63,
        "hand": "right"
      },
      {
        "midi": 67,
        "time": 33,
        "duration": 0.15,
        "velocity": 1,
        "hand": "right"
      },
      {
        "midi": 71,
        "time": 33,
        "duration": 0.15,
        "velocity": 1,
        "hand": "right"
      },
      {
        "midi": 71,
        "time": 33,
        "duration": 0.6,
        "velocity": 1,
        "hand": "right"
      },
      {
        "midi": 83,
        "time": 33,
        "duration": 0.6,
        "velocity": 1,
        "hand": "right"
      },
      {
        "midi": 42,
        "time": 33.3,
        "duration": 0.15,
        "velocity": 0.63,
        "hand": "left"
      },
      {
        "midi": 46,
        "time": 33.3,
        "duration": 0.15,
        "velocity": 0.63,
        "hand": "left"
      },
      {
        "midi": 52,
        "time": 33.3,
        "duration": 0.15,
        "velocity": 0.72,
        "hand": "left"
      },
      {
        "midi": 52,
        "time": 33.3,
        "duration": 0.45,
        "velocity": 1,
        "hand": "left"
      },
      {
        "midi": 61,
        "time": 33.3,
        "duration": 0.3,
        "velocity": 1,
        "hand": "right"
      },
      {
        "midi": 62,
        "time": 33.3,
        "duration": 0.15,
        "velocity": 1,
        "hand": "right"
      },
      {
        "midi": 62,
        "time": 33.3,
        "duration": 0.3,
        "velocity": 0.63,
        "hand": "right"
      },
      {
        "midi": 67,
        "time": 33.3,
        "duration": 0.15,
        "velocity": 1,
        "hand": "right"
      },
      {
        "midi": 71,
        "time": 33.3,
        "duration": 0.15,
        "velocity": 1,
        "hand": "right"
      },
      {
        "midi": 38,
        "time": 33.6,
        "duration": 0.075,
        "velocity": 0.63,
        "hand": "left"
      },
      {
        "midi": 44,
        "time": 33.6,
        "duration": 0.075,
        "velocity": 0.63,
        "hand": "left"
      },
      {
        "midi": 45,
        "time": 33.6,
        "duration": 0.15,
        "velocity": 1,
        "hand": "left"
      },
      {
        "midi": 54,
        "time": 33.6,
        "duration": 1.5,
        "velocity": 1,
        "hand": "left"
      },
      {
        "midi": 60,
        "time": 33.6,
        "duration": 0.075,
        "velocity": 0.63,
        "hand": "right"
      },
      {
        "midi": 60,
        "time": 33.6,
        "duration": 0.15,
        "velocity": 1,
        "hand": "right"
      },
      {
        "midi": 62,
        "time": 33.6,
        "duration": 0.15,
        "velocity": 0.79,
        "hand": "right"
      },
      {
        "midi": 66,
        "time": 33.6,
        "duration": 0.15,
        "velocity": 0.94,
        "hand": "right"
      },
      {
        "midi": 72,
        "time": 33.6,
        "duration": 0.15,
        "velocity": 0.96,
        "hand": "right"
      },
      {
        "midi": 74,
        "time": 33.6,
        "duration": 0.075,
        "velocity": 0.94,
        "hand": "right"
      },
      {
        "midi": 86,
        "time": 33.6,
        "duration": 0.075,
        "velocity": 0.94,
        "hand": "right"
      },
      {
        "midi": 42,
        "time": 33.9,
        "duration": 0.15,
        "velocity": 0.63,
        "hand": "left"
      },
      {
        "midi": 46,
        "time": 33.9,
        "duration": 0.15,
        "velocity": 0.63,
        "hand": "left"
      },
      {
        "midi": 54,
        "time": 33.9,
        "duration": 0.15,
        "velocity": 1,
        "hand": "left"
      },
      {
        "midi": 54,
        "time": 33.9,
        "duration": 0.6,
        "velocity": 0.63,
        "hand": "left"
      },
      {
        "midi": 62,
        "time": 33.9,
        "duration": 0.075,
        "velocity": 0.87,
        "hand": "right"
      },
      {
        "midi": 66,
        "time": 33.9,
        "duration": 0.075,
        "velocity": 0.81,
        "hand": "right"
      },
      {
        "midi": 72,
        "time": 33.9,
        "duration": 0.075,
        "velocity": 0.94,
        "hand": "right"
      },
      {
        "midi": 74,
        "time": 33.9,
        "duration": 0.6,
        "velocity": 1,
        "hand": "right"
      },
      {
        "midi": 74,
        "time": 33.9,
        "duration": 0.15,
        "velocity": 0.68,
        "hand": "right"
      },
      {
        "midi": 78,
        "time": 33.9,
        "duration": 0.15,
        "velocity": 0.59,
        "hand": "right"
      },
      {
        "midi": 86,
        "time": 33.9,
        "duration": 0.6,
        "velocity": 1,
        "hand": "right"
      },
      {
        "midi": 62,
        "time": 34.05,
        "duration": 0.075,
        "velocity": 0.81,
        "hand": "right"
      },
      {
        "midi": 66,
        "time": 34.05,
        "duration": 0.15,
        "velocity": 0.94,
        "hand": "right"
      },
      {
        "midi": 72,
        "time": 34.05,
        "duration": 0.075,
        "velocity": 0.96,
        "hand": "right"
      },
      {
        "midi": 72,
        "time": 34.05,
        "duration": 0.15,
        "velocity": 0.91,
        "hand": "right"
      },
      {
        "midi": 72,
        "time": 34.05,
        "duration": 0.075,
        "velocity": 0.8,
        "hand": "right"
      },
      {
        "midi": 38,
        "time": 34.2,
        "duration": 0.3,
        "velocity": 1,
        "hand": "left"
      },
      {
        "midi": 44,
        "time": 34.2,
        "duration": 0.075,
        "velocity": 0.63,
        "hand": "left"
      },
      {
        "midi": 66,
        "time": 34.2,
        "duration": 0.3,
        "velocity": 1,
        "hand": "right"
      },
      {
        "midi": 72,
        "time": 34.35,
        "duration": 0.075,
        "velocity": 0.98,
        "hand": "right"
      },
      {
        "midi": 84,
        "time": 34.35,
        "duration": 0.075,
        "velocity": 0.98,
        "hand": "right"
      },
      {
        "midi": 42,
        "time": 34.5,
        "duration": 0.3,
        "velocity": 0.63,
        "hand": "left"
      },
      {
        "midi": 46,
        "time": 34.5,
        "duration": 0.075,
        "velocity": 0.63,
        "hand": "left"
      },
      {
        "midi": 50,
        "time": 34.5,
        "duration": 0.15,
        "velocity": 0.99,
        "hand": "left"
      },
      {
        "midi": 52,
        "time": 34.5,
        "duration": 0.3,
        "velocity": 0.63,
        "hand": "left"
      },
      {
        "midi": 62,
        "time": 34.5,
        "duration": 0.075,
        "velocity": 0.94,
        "hand": "right"
      },
      {
        "midi": 64,
        "time": 34.5,
        "duration": 0.3,
        "velocity": 0.91,
        "hand": "right"
      },
      {
        "midi": 66,
        "time": 34.5,
        "duration": 0.15,
        "velocity": 0.97,
        "hand": "right"
      },
      {
        "midi": 72,
        "time": 34.5,
        "duration": 0.15,
        "velocity": 0.94,
        "hand": "right"
      },
      {
        "midi": 72,
        "time": 34.5,
        "duration": 0.3,
        "velocity": 0.79,
        "hand": "right"
      },
      {
        "midi": 74,
        "time": 34.5,
        "duration": 0.15,
        "velocity": 0.83,
        "hand": "right"
      },
      {
        "midi": 84,
        "time": 34.5,
        "duration": 0.3,
        "velocity": 0.79,
        "hand": "right"
      },
      {
        "midi": 86,
        "time": 34.5,
        "duration": 0.15,
        "velocity": 0.83,
        "hand": "right"
      },
      {
        "midi": 38,
        "time": 34.8,
        "duration": 0.3,
        "velocity": 0.63,
        "hand": "left"
      },
      {
        "midi": 42,
        "time": 34.8,
        "duration": 0.3,
        "velocity": 1,
        "hand": "left"
      },
      {
        "midi": 44,
        "time": 34.8,
        "duration": 0.15,
        "velocity": 0.63,
        "hand": "left"
      },
      {
        "midi": 50,
        "time": 34.8,
        "duration": 0.3,
        "velocity": 0.63,
        "hand": "left"
      },
      {
        "midi": 62,
        "time": 34.8,
        "duration": 0.075,
        "velocity": 0.79,
        "hand": "right"
      },
      {
        "midi": 62,
        "time": 34.8,
        "duration": 0.45,
        "velocity": 1,
        "hand": "right"
      },
      {
        "midi": 66,
        "time": 34.8,
        "duration": 0.15,
        "velocity": 0.92,
        "hand": "right"
      },
      {
        "midi": 71,
        "time": 34.8,
        "duration": 0.6,
        "velocity": 0.79,
        "hand": "right"
      },
      {
        "midi": 72,
        "time": 34.8,
        "duration": 0.15,
        "velocity": 0.87,
        "hand": "right"
      },
      {
        "midi": 83,
        "time": 34.8,
        "duration": 0.6,
        "velocity": 0.79,
        "hand": "right"
      },
      {
        "midi": 42,
        "time": 35.1,
        "duration": 0.15,
        "velocity": 0.63,
        "hand": "left"
      },
      {
        "midi": 46,
        "time": 35.1,
        "duration": 0.075,
        "velocity": 0.63,
        "hand": "left"
      },
      {
        "midi": 57,
        "time": 35.1,
        "duration": 0.075,
        "velocity": 1,
        "hand": "left"
      },
      {
        "midi": 57,
        "time": 35.1,
        "duration": 0.3,
        "velocity": 0.94,
        "hand": "left"
      },
      {
        "midi": 60,
        "time": 35.1,
        "duration": 0.3,
        "velocity": 0.63,
        "hand": "right"
      },
      {
        "midi": 62,
        "time": 35.1,
        "duration": 0.075,
        "velocity": 0.61,
        "hand": "right"
      },
      {
        "midi": 66,
        "time": 35.1,
        "duration": 0.15,
        "velocity": 0.94,
        "hand": "right"
      },
      {
        "midi": 72,
        "time": 35.1,
        "duration": 0.075,
        "velocity": 0.91,
        "hand": "right"
      },
      {
        "midi": 72,
        "time": 35.1,
        "duration": 0.15,
        "velocity": 0.83,
        "hand": "right"
      },
      {
        "midi": 74,
        "time": 35.1,
        "duration": 0.15,
        "velocity": 0.81,
        "hand": "right"
      },
      {
        "midi": 38,
        "time": 35.4,
        "duration": 0.15,
        "velocity": 1,
        "hand": "left"
      },
      {
        "midi": 38,
        "time": 35.4,
        "duration": 0.3,
        "velocity": 0.63,
        "hand": "left"
      },
      {
        "midi": 44,
        "time": 35.4,
        "duration": 0.15,
        "velocity": 0.63,
        "hand": "left"
      },
      {
        "midi": 50,
        "time": 35.4,
        "duration": 0.3,
        "velocity": 0.97,
        "hand": "left"
      },
      {
        "midi": 59,
        "time": 35.4,
        "duration": 0.15,
        "velocity": 0.63,
        "hand": "left"
      },
      {
        "midi": 62,
        "time": 35.4,
        "duration": 0.15,
        "velocity": 1,
        "hand": "right"
      },
      {
        "midi": 66,
        "time": 35.4,
        "duration": 0.15,
        "velocity": 1,
        "hand": "right"
      },
      {
        "midi": 66,
        "time": 35.4,
        "duration": 0.075,
        "velocity": 0.89,
        "hand": "right"
      },
      {
        "midi": 66,
        "time": 35.4,
        "duration": 0.6,
        "velocity": 1,
        "hand": "right"
      },
      {
        "midi": 69,
        "time": 35.4,
        "duration": 0.6,
        "velocity": 0.97,
        "hand": "right"
      },
      {
        "midi": 72,
        "time": 35.4,
        "duration": 0.15,
        "velocity": 1,
        "hand": "right"
      },
      {
        "midi": 81,
        "time": 35.4,
        "duration": 0.6,
        "velocity": 0.97,
        "hand": "right"
      },
      {
        "midi": 42,
        "time": 35.7,
        "duration": 0.3,
        "velocity": 0.63,
        "hand": "left"
      },
      {
        "midi": 46,
        "time": 35.7,
        "duration": 0.15,
        "velocity": 0.63,
        "hand": "left"
      },
      {
        "midi": 48,
        "time": 35.7,
        "duration": 0.3,
        "velocity": 0.77,
        "hand": "left"
      },
      {
        "midi": 50,
        "time": 35.7,
        "duration": 0.15,
        "velocity": 1,
        "hand": "left"
      },
      {
        "midi": 57,
        "time": 35.7,
        "duration": 0.3,
        "velocity": 0.63,
        "hand": "left"
      },
      {
        "midi": 62,
        "time": 35.7,
        "duration": 0.15,
        "velocity": 0.85,
        "hand": "right"
      },
      {
        "midi": 66,
        "time": 35.7,
        "duration": 0.075,
        "velocity": 0.83,
        "hand": "right"
      },
      {
        "midi": 72,
        "time": 35.7,
        "duration": 0.15,
        "velocity": 0.84,
        "hand": "right"
      },
      {
        "midi": 67,
        "time": 35.85,
        "duration": 0.6,
        "velocity": 0.92,
        "hand": "right"
      },
      {
        "midi": 79,
        "time": 35.85,
        "duration": 0.6,
        "velocity": 0.92,
        "hand": "right"
      },
      {
        "midi": 38,
        "time": 36,
        "duration": 0.075,
        "velocity": 0.63,
        "hand": "left"
      },
      {
        "midi": 43,
        "time": 36,
        "duration": 0.15,
        "velocity": 1,
        "hand": "left"
      },
      {
        "midi": 44,
        "time": 36,
        "duration": 0.075,
        "velocity": 0.63,
        "hand": "left"
      },
      {
        "midi": 47,
        "time": 36,
        "duration": 0.075,
        "velocity": 1,
        "hand": "left"
      },
      {
        "midi": 55,
        "time": 36,
        "duration": 0.075,
        "velocity": 0.63,
        "hand": "left"
      },
      {
        "midi": 62,
        "time": 36,
        "duration": 0.075,
        "velocity": 1,
        "hand": "right"
      },
      {
        "midi": 67,
        "time": 36,
        "duration": 0.075,
        "velocity": 1,
        "hand": "right"
      },
      {
        "midi": 69,
        "time": 36,
        "duration": 0.075,
        "velocity": 1,
        "hand": "right"
      },
      {
        "midi": 71,
        "time": 36,
        "duration": 0.075,
        "velocity": 0.94,
        "hand": "right"
      },
      {
        "midi": 42,
        "time": 36.3,
        "duration": 0.15,
        "velocity": 0.63,
        "hand": "left"
      },
      {
        "midi": 44,
        "time": 36.3,
        "duration": 0.075,
        "velocity": 0.63,
        "hand": "left"
      },
      {
        "midi": 46,
        "time": 36.3,
        "duration": 0.075,
        "velocity": 0.63,
        "hand": "left"
      },
      {
        "midi": 47,
        "time": 36.3,
        "duration": 0.15,
        "velocity": 0.97,
        "hand": "left"
      },
      {
        "midi": 62,
        "time": 36.3,
        "duration": 0.075,
        "velocity": 0.99,
        "hand": "right"
      },
      {
        "midi": 67,
        "time": 36.3,
        "duration": 0.075,
        "velocity": 1,
        "hand": "right"
      },
      {
        "midi": 71,
        "time": 36.3,
        "duration": 0.075,
        "velocity": 1,
        "hand": "right"
      },
      {
        "midi": 86,
        "time": 36.3,
        "duration": 0.075,
        "velocity": 0.8,
        "hand": "right"
      },
      {
        "midi": 44,
        "time": 36.45,
        "duration": 0.075,
        "velocity": 0.63,
        "hand": "left"
      },
      {
        "midi": 46,
        "time": 36.45,
        "duration": 0.075,
        "velocity": 0.63,
        "hand": "left"
      },
      {
        "midi": 62,
        "time": 36.45,
        "duration": 0.15,
        "velocity": 0.71,
        "hand": "right"
      },
      {
        "midi": 62,
        "time": 36.45,
        "duration": 0.3,
        "velocity": 0.99,
        "hand": "right"
      },
      {
        "midi": 64,
        "time": 36.45,
        "duration": 0.15,
        "velocity": 0.94,
        "hand": "right"
      },
      {
        "midi": 71,
        "time": 36.45,
        "duration": 0.15,
        "velocity": 0.63,
        "hand": "right"
      },
      {
        "midi": 86,
        "time": 36.45,
        "duration": 0.15,
        "velocity": 0.91,
        "hand": "right"
      },
      {
        "midi": 38,
        "time": 36.6,
        "duration": 0.15,
        "velocity": 1,
        "hand": "left"
      },
      {
        "midi": 38,
        "time": 36.6,
        "duration": 0.3,
        "velocity": 0.63,
        "hand": "left"
      },
      {
        "midi": 52,
        "time": 36.6,
        "duration": 0.6,
        "velocity": 1,
        "hand": "left"
      },
      {
        "midi": 64,
        "time": 36.6,
        "duration": 0.075,
        "velocity": 0.89,
        "hand": "right"
      },
      {
        "midi": 68,
        "time": 36.6,
        "duration": 0.15,
        "velocity": 1,
        "hand": "right"
      },
      {
        "midi": 68,
        "time": 36.6,
        "duration": 0.6,
        "velocity": 0.96,
        "hand": "right"
      },
      {
        "midi": 71,
        "time": 36.6,
        "duration": 0.15,
        "velocity": 1,
        "hand": "right"
      },
      {
        "midi": 72,
        "time": 36.6,
        "duration": 0.3,
        "velocity": 0.64,
        "hand": "right"
      },
      {
        "midi": 88,
        "time": 36.6,
        "duration": 0.15,
        "velocity": 0.92,
        "hand": "right"
      },
      {
        "midi": 62,
        "time": 36.75,
        "duration": 0.075,
        "velocity": 0.71,
        "hand": "right"
      },
      {
        "midi": 62,
        "time": 36.75,
        "duration": 0.3,
        "velocity": 1,
        "hand": "right"
      },
      {
        "midi": 71,
        "time": 36.75,
        "duration": 0.3,
        "velocity": 0.65,
        "hand": "right"
      },
      {
        "midi": 86,
        "time": 36.75,
        "duration": 0.3,
        "velocity": 0.92,
        "hand": "right"
      },
      {
        "midi": 42,
        "time": 36.9,
        "duration": 0.3,
        "velocity": 0.63,
        "hand": "left"
      },
      {
        "midi": 46,
        "time": 36.9,
        "duration": 0.075,
        "velocity": 0.63,
        "hand": "left"
      },
      {
        "midi": 50,
        "time": 36.9,
        "duration": 0.15,
        "velocity": 1,
        "hand": "left"
      },
      {
        "midi": 62,
        "time": 36.9,
        "duration": 0.3,
        "velocity": 0.71,
        "hand": "right"
      },
      {
        "midi": 64,
        "time": 36.9,
        "duration": 0.15,
        "velocity": 1,
        "hand": "right"
      },
      {
        "midi": 68,
        "time": 36.9,
        "duration": 0.15,
        "velocity": 1,
        "hand": "right"
      },
      {
        "midi": 69,
        "time": 36.9,
        "duration": 0.075,
        "velocity": 0.97,
        "hand": "right"
      },
      {
        "midi": 71,
        "time": 36.9,
        "duration": 0.15,
        "velocity": 1,
        "hand": "right"
      },
      {
        "midi": 69,
        "time": 37.05,
        "duration": 0.3,
        "velocity": 0.65,
        "hand": "right"
      },
      {
        "midi": 84,
        "time": 37.05,
        "duration": 0.075,
        "velocity": 0.92,
        "hand": "right"
      },
      {
        "midi": 38,
        "time": 37.2,
        "duration": 0.075,
        "velocity": 0.63,
        "hand": "left"
      },
      {
        "midi": 44,
        "time": 37.2,
        "duration": 0.15,
        "velocity": 0.63,
        "hand": "left"
      },
      {
        "midi": 45,
        "time": 37.2,
        "duration": 0.15,
        "velocity": 1,
        "hand": "left"
      },
      {
        "midi": 51,
        "time": 37.2,
        "duration": 0.075,
        "velocity": 0.63,
        "hand": "left"
      },
      {
        "midi": 57,
        "time": 37.2,
        "duration": 0.3,
        "velocity": 1,
        "hand": "left"
      },
      {
        "midi": 60,
        "time": 37.2,
        "duration": 0.075,
        "velocity": 0.71,
        "hand": "right"
      },
      {
        "midi": 60,
        "time": 37.2,
        "duration": 0.15,
        "velocity": 1,
        "hand": "right"
      },
      {
        "midi": 64,
        "time": 37.2,
        "duration": 0.15,
        "velocity": 1,
        "hand": "right"
      },
      {
        "midi": 69,
        "time": 37.2,
        "duration": 0.075,
        "velocity": 1,
        "hand": "right"
      },
      {
        "midi": 72,
        "time": 37.2,
        "duration": 0.075,
        "velocity": 1,
        "hand": "right"
      },
      {
        "midi": 46,
        "time": 37.35,
        "duration": 0.075,
        "velocity": 0.63,
        "hand": "left"
      },
      {
        "midi": 57,
        "time": 37.35,
        "duration": 0.075,
        "velocity": 1,
        "hand": "left"
      },
      {
        "midi": 42,
        "time": 37.5,
        "duration": 0.3,
        "velocity": 0.63,
        "hand": "left"
      },
      {
        "midi": 44,
        "time": 37.5,
        "duration": 0.075,
        "velocity": 0.63,
        "hand": "left"
      },
      {
        "midi": 46,
        "time": 37.5,
        "duration": 0.075,
        "velocity": 0.63,
        "hand": "left"
      },
      {
        "midi": 52,
        "time": 37.5,
        "duration": 0.075,
        "velocity": 1,
        "hand": "left"
      },
      {
        "midi": 57,
        "time": 37.5,
        "duration": 0.15,
        "velocity": 0.71,
        "hand": "left"
      },
      {
        "midi": 64,
        "time": 37.5,
        "duration": 0.075,
        "velocity": 0.97,
        "hand": "right"
      },
      {
        "midi": 64,
        "time": 37.5,
        "duration": 0.15,
        "velocity": 0.66,
        "hand": "right"
      },
      {
        "midi": 67,
        "time": 37.5,
        "duration": 0.075,
        "velocity": 0.92,
        "hand": "right"
      },
      {
        "midi": 69,
        "time": 37.5,
        "duration": 0.075,
        "velocity": 0.83,
        "hand": "right"
      },
      {
        "midi": 69,
        "time": 37.5,
        "duration": 0.15,
        "velocity": 0.87,
        "hand": "right"
      },
      {
        "midi": 72,
        "time": 37.5,
        "duration": 0.075,
        "velocity": 1,
        "hand": "right"
      },
      {
        "midi": 81,
        "time": 37.5,
        "duration": 0.15,
        "velocity": 0.87,
        "hand": "right"
      },
      {
        "midi": 44,
        "time": 37.65,
        "duration": 0.075,
        "velocity": 0.63,
        "hand": "left"
      },
      {
        "midi": 46,
        "time": 37.65,
        "duration": 0.075,
        "velocity": 0.63,
        "hand": "left"
      },
      {
        "midi": 57,
        "time": 37.65,
        "duration": 0.15,
        "velocity": 0.71,
        "hand": "left"
      },
      {
        "midi": 66,
        "time": 37.65,
        "duration": 0.15,
        "velocity": 0.99,
        "hand": "right"
      },
      {
        "midi": 66,
        "time": 37.65,
        "duration": 0.3,
        "velocity": 0.68,
        "hand": "right"
      },
      {
        "midi": 67,
        "time": 37.65,
        "duration": 0.15,
        "velocity": 0.79,
        "hand": "right"
      },
      {
        "midi": 72,
        "time": 37.65,
        "duration": 0.15,
        "velocity": 1,
        "hand": "right"
      },
      {
        "midi": 74,
        "time": 37.65,
        "duration": 0.075,
        "velocity": 1,
        "hand": "right"
      },
      {
        "midi": 38,
        "time": 37.8,
        "duration": 0.3,
        "velocity": 1,
        "hand": "left"
      },
      {
        "midi": 54,
        "time": 37.8,
        "duration": 0.6,
        "velocity": 1,
        "hand": "left"
      },
      {
        "midi": 62,
        "time": 37.8,
        "duration": 0.3,
        "velocity": 0.71,
        "hand": "right"
      },
      {
        "midi": 66,
        "time": 37.8,
        "duration": 0.075,
        "velocity": 0.89,
        "hand": "right"
      },
      {
        "midi": 86,
        "time": 37.8,
        "duration": 0.15,
        "velocity": 0.92,
        "hand": "right"
      },
      {
        "midi": 60,
        "time": 37.95,
        "duration": 0.45,
        "velocity": 0.94,
        "hand": "right"
      },
      {
        "midi": 66,
        "time": 37.95,
        "duration": 0.15,
        "velocity": 1,
        "hand": "right"
      },
      {
        "midi": 72,
        "time": 37.95,
        "duration": 0.075,
        "velocity": 1,
        "hand": "right"
      },
      {
        "midi": 73,
        "time": 37.95,
        "duration": 0.075,
        "velocity": 1,
        "hand": "right"
      },
      {
        "midi": 74,
        "time": 37.95,
        "duration": 0.075,
        "velocity": 0.94,
        "hand": "right"
      },
      {
        "midi": 42,
        "time": 38.1,
        "duration": 0.3,
        "velocity": 0.63,
        "hand": "left"
      },
      {
        "midi": 46,
        "time": 38.1,
        "duration": 0.075,
        "velocity": 0.63,
        "hand": "left"
      },
      {
        "midi": 50,
        "time": 38.1,
        "duration": 0.15,
        "velocity": 1,
        "hand": "left"
      },
      {
        "midi": 60,
        "time": 38.1,
        "duration": 0.3,
        "velocity": 0.71,
        "hand": "right"
      },
      {
        "midi": 62,
        "time": 38.1,
        "duration": 0.3,
        "velocity": 0.69,
        "hand": "right"
      },
      {
        "midi": 66,
        "time": 38.1,
        "duration": 0.15,
        "velocity": 0.92,
        "hand": "right"
      },
      {
        "midi": 84,
        "time": 38.1,
        "duration": 0.15,
        "velocity": 0.92,
        "hand": "right"
      },
      {
        "midi": 59,
        "time": 38.25,
        "duration": 0.15,
        "velocity": 1,
        "hand": "left"
      },
      {
        "midi": 69,
        "time": 38.25,
        "duration": 0.15,
        "velocity": 0.79,
        "hand": "right"
      },
      {
        "midi": 38,
        "time": 38.4,
        "duration": 0.075,
        "velocity": 0.63,
        "hand": "left"
      },
      {
        "midi": 43,
        "time": 38.4,
        "duration": 0.15,
        "velocity": 1,
        "hand": "left"
      },
      {
        "midi": 44,
        "time": 38.4,
        "duration": 0.075,
        "velocity": 0.63,
        "hand": "left"
      },
      {
        "midi": 51,
        "time": 38.4,
        "duration": 0.075,
        "velocity": 0.63,
        "hand": "left"
      },
      {
        "midi": 55,
        "time": 38.4,
        "duration": 0.6,
        "velocity": 0.99,
        "hand": "left"
      },
      {
        "midi": 59,
        "time": 38.4,
        "duration": 0.15,
        "velocity": 0.71,
        "hand": "left"
      },
      {
        "midi": 62,
        "time": 38.4,
        "duration": 0.6,
        "velocity": 1,
        "hand": "right"
      },
      {
        "midi": 67,
        "time": 38.4,
        "duration": 0.075,
        "velocity": 1,
        "hand": "right"
      },
      {
        "midi": 67,
        "time": 38.4,
        "duration": 0.15,
        "velocity": 0.69,
        "hand": "right"
      },
      {
        "midi": 71,
        "time": 38.4,
        "duration": 0.075,
        "velocity": 1,
        "hand": "right"
      },
      {
        "midi": 74,
        "time": 38.4,
        "duration": 0.075,
        "velocity": 1,
        "hand": "right"
      },
      {
        "midi": 83,
        "time": 38.4,
        "duration": 0.15,
        "velocity": 0.92,
        "hand": "right"
      },
      {
        "midi": 42,
        "time": 38.7,
        "duration": 0.3,
        "velocity": 0.63,
        "hand": "left"
      },
      {
        "midi": 44,
        "time": 38.7,
        "duration": 0.075,
        "velocity": 0.63,
        "hand": "left"
      },
      {
        "midi": 46,
        "time": 38.7,
        "duration": 0.075,
        "velocity": 0.63,
        "hand": "left"
      },
      {
        "midi": 55,
        "time": 38.7,
        "duration": 0.15,
        "velocity": 1,
        "hand": "left"
      },
      {
        "midi": 59,
        "time": 38.7,
        "duration": 0.15,
        "velocity": 0.71,
        "hand": "left"
      },
      {
        "midi": 67,
        "time": 38.7,
        "duration": 0.075,
        "velocity": 1,
        "hand": "right"
      },
      {
        "midi": 67,
        "time": 38.7,
        "duration": 0.15,
        "velocity": 0.71,
        "hand": "right"
      },
      {
        "midi": 71,
        "time": 38.7,
        "duration": 0.075,
        "velocity": 1,
        "hand": "right"
      },
      {
        "midi": 74,
        "time": 38.7,
        "duration": 0.075,
        "velocity": 1,
        "hand": "right"
      },
      {
        "midi": 79,
        "time": 38.7,
        "duration": 0.15,
        "velocity": 0.91,
        "hand": "right"
      },
      {
        "midi": 83,
        "time": 38.7,
        "duration": 0.15,
        "velocity": 0.92,
        "hand": "right"
      },
      {
        "midi": 44,
        "time": 38.85,
        "duration": 0.075,
        "velocity": 0.63,
        "hand": "left"
      },
      {
        "midi": 46,
        "time": 38.85,
        "duration": 0.075,
        "velocity": 0.63,
        "hand": "left"
      },
      {
        "midi": 55,
        "time": 38.85,
        "duration": 0.15,
        "velocity": 0.71,
        "hand": "left"
      },
      {
        "midi": 66,
        "time": 38.85,
        "duration": 0.15,
        "velocity": 0.71,
        "hand": "right"
      },
      {
        "midi": 38,
        "time": 39,
        "duration": 0.45,
        "velocity": 0.63,
        "hand": "left"
      },
      {
        "midi": 40,
        "time": 39,
        "duration": 0.3,
        "velocity": 1,
        "hand": "left"
      },
      {
        "midi": 52,
        "time": 39,
        "duration": 0.3,
        "velocity": 0.94,
        "hand": "left"
      },
      {
        "midi": 60,
        "time": 39,
        "duration": 0.075,
        "velocity": 0.71,
        "hand": "right"
      },
      {
        "midi": 60,
        "time": 39,
        "duration": 0.15,
        "velocity": 1,
        "hand": "right"
      },
      {
        "midi": 64,
        "time": 39,
        "duration": 0.6,
        "velocity": 0.94,
        "hand": "right"
      },
      {
        "midi": 64,
        "time": 39,
        "duration": 0.15,
        "velocity": 0.72,
        "hand": "right"
      },
      {
        "midi": 68,
        "time": 39,
        "duration": 0.075,
        "velocity": 1,
        "hand": "right"
      },
      {
        "midi": 70,
        "time": 39,
        "duration": 0.075,
        "velocity": 0.7,
        "hand": "right"
      },
      {
        "midi": 71,
        "time": 39,
        "duration": 0.15,
        "velocity": 1,
        "hand": "right"
      },
      {
        "midi": 76,
        "time": 39,
        "duration": 0.075,
        "velocity": 1,
        "hand": "right"
      },
      {
        "midi": 84,
        "time": 39,
        "duration": 0.075,
        "velocity": 0.92,
        "hand": "right"
      },
      {
        "midi": 42,
        "time": 39.3,
        "duration": 0.3,
        "velocity": 0.63,
        "hand": "left"
      },
      {
        "midi": 46,
        "time": 39.3,
        "duration": 0.075,
        "velocity": 0.63,
        "hand": "left"
      },
      {
        "midi": 50,
        "time": 39.3,
        "duration": 0.15,
        "velocity": 0.99,
        "hand": "left"
      },
      {
        "midi": 56,
        "time": 39.3,
        "duration": 0.15,
        "velocity": 1,
        "hand": "left"
      },
      {
        "midi": 60,
        "time": 39.3,
        "duration": 0.15,
        "velocity": 0.71,
        "hand": "right"
      },
      {
        "midi": 60,
        "time": 39.3,
        "duration": 0.3,
        "velocity": 1,
        "hand": "right"
      },
      {
        "midi": 64,
        "time": 39.3,
        "duration": 0.15,
        "velocity": 0.72,
        "hand": "right"
      },
      {
        "midi": 68,
        "time": 39.3,
        "duration": 0.15,
        "velocity": 1,
        "hand": "right"
      },
      {
        "midi": 71,
        "time": 39.3,
        "duration": 0.15,
        "velocity": 1,
        "hand": "right"
      },
      {
        "midi": 75,
        "time": 39.3,
        "duration": 0.075,
        "velocity": 0.84,
        "hand": "right"
      },
      {
        "midi": 76,
        "time": 39.3,
        "duration": 0.15,
        "velocity": 1,
        "hand": "right"
      },
      {
        "midi": 84,
        "time": 39.3,
        "duration": 0.15,
        "velocity": 0.92,
        "hand": "right"
      },
      {
        "midi": 59,
        "time": 39.45,
        "duration": 0.15,
        "velocity": 0.71,
        "hand": "left"
      },
      {
        "midi": 62,
        "time": 39.45,
        "duration": 0.15,
        "velocity": 0.73,
        "hand": "right"
      },
      {
        "midi": 83,
        "time": 39.45,
        "duration": 0.15,
        "velocity": 0.8,
        "hand": "right"
      },
      {
        "midi": 38,
        "time": 39.6,
        "duration": 0.075,
        "velocity": 0.63,
        "hand": "left"
      },
      {
        "midi": 44,
        "time": 39.6,
        "duration": 0.075,
        "velocity": 0.63,
        "hand": "left"
      },
      {
        "midi": 45,
        "time": 39.6,
        "duration": 0.3,
        "velocity": 1,
        "hand": "left"
      },
      {
        "midi": 48,
        "time": 39.6,
        "duration": 0.6,
        "velocity": 1,
        "hand": "left"
      },
      {
        "midi": 51,
        "time": 39.6,
        "duration": 0.075,
        "velocity": 0.63,
        "hand": "left"
      },
      {
        "midi": 57,
        "time": 39.6,
        "duration": 0.15,
        "velocity": 0.71,
        "hand": "left"
      },
      {
        "midi": 60,
        "time": 39.6,
        "duration": 0.15,
        "velocity": 0.74,
        "hand": "right"
      },
      {
        "midi": 69,
        "time": 39.6,
        "duration": 0.075,
        "velocity": 0.99,
        "hand": "right"
      },
      {
        "midi": 72,
        "time": 39.6,
        "duration": 0.075,
        "velocity": 1,
        "hand": "right"
      },
      {
        "midi": 75,
        "time": 39.6,
        "duration": 0.075,
        "velocity": 0.91,
        "hand": "right"
      },
      {
        "midi": 76,
        "time": 39.6,
        "duration": 0.075,
        "velocity": 1,
        "hand": "right"
      },
      {
        "midi": 81,
        "time": 39.6,
        "duration": 0.15,
        "velocity": 0.91,
        "hand": "right"
      },
      {
        "midi": 42,
        "time": 39.9,
        "duration": 0.3,
        "velocity": 0.63,
        "hand": "left"
      },
      {
        "midi": 44,
        "time": 39.9,
        "duration": 0.075,
        "velocity": 0.63,
        "hand": "left"
      },
      {
        "midi": 46,
        "time": 39.9,
        "duration": 0.075,
        "velocity": 0.63,
        "hand": "left"
      },
      {
        "midi": 57,
        "time": 39.9,
        "duration": 0.15,
        "velocity": 0.97,
        "hand": "left"
      },
      {
        "midi": 58,
        "time": 39.9,
        "duration": 0.075,
        "velocity": 0.71,
        "hand": "left"
      },
      {
        "midi": 60,
        "time": 39.9,
        "duration": 0.075,
        "velocity": 0.75,
        "hand": "right"
      },
      {
        "midi": 67,
        "time": 39.9,
        "duration": 0.15,
        "velocity": 0.83,
        "hand": "right"
      },
      {
        "midi": 69,
        "time": 39.9,
        "duration": 0.15,
        "velocity": 0.94,
        "hand": "right"
      },
      {
        "midi": 72,
        "time": 39.9,
        "duration": 0.075,
        "velocity": 1,
        "hand": "right"
      },
      {
        "midi": 76,
        "time": 39.9,
        "duration": 0.075,
        "velocity": 0.97,
        "hand": "right"
      },
      {
        "midi": 76,
        "time": 39.9,
        "duration": 0.15,
        "velocity": 0.76,
        "hand": "right"
      },
      {
        "midi": 81,
        "time": 39.9,
        "duration": 0.075,
        "velocity": 0.84,
        "hand": "right"
      },
      {
        "midi": 44,
        "time": 40.05,
        "duration": 0.075,
        "velocity": 0.63,
        "hand": "left"
      },
      {
        "midi": 46,
        "time": 40.05,
        "duration": 0.075,
        "velocity": 0.63,
        "hand": "left"
      },
      {
        "midi": 57,
        "time": 40.05,
        "duration": 0.15,
        "velocity": 0.71,
        "hand": "left"
      },
      {
        "midi": 72,
        "time": 40.05,
        "duration": 0.15,
        "velocity": 0.91,
        "hand": "right"
      },
      {
        "midi": 81,
        "time": 40.05,
        "duration": 0.15,
        "velocity": 0.73,
        "hand": "right"
      },
      {
        "midi": 38,
        "time": 40.2,
        "duration": 0.3,
        "velocity": 1,
        "hand": "left"
      },
      {
        "midi": 50,
        "time": 40.2,
        "duration": 0.6,
        "velocity": 0.87,
        "hand": "left"
      },
      {
        "midi": 51,
        "time": 40.2,
        "duration": 0.15,
        "velocity": 0.63,
        "hand": "left"
      },
      {
        "midi": 62,
        "time": 40.2,
        "duration": 0.075,
        "velocity": 0.71,
        "hand": "right"
      },
      {
        "midi": 62,
        "time": 40.2,
        "duration": 0.15,
        "velocity": 1,
        "hand": "right"
      },
      {
        "midi": 66,
        "time": 40.2,
        "duration": 0.15,
        "velocity": 1,
        "hand": "right"
      },
      {
        "midi": 66,
        "time": 40.2,
        "duration": 0.075,
        "velocity": 1,
        "hand": "right"
      },
      {
        "midi": 72,
        "time": 40.2,
        "duration": 0.15,
        "velocity": 1,
        "hand": "right"
      },
      {
        "midi": 74,
        "time": 40.2,
        "duration": 0.15,
        "velocity": 1,
        "hand": "right"
      },
      {
        "midi": 86,
        "time": 40.2,
        "duration": 0.15,
        "velocity": 0.91,
        "hand": "right"
      },
      {
        "midi": 42,
        "time": 40.5,
        "duration": 0.3,
        "velocity": 0.63,
        "hand": "left"
      },
      {
        "midi": 46,
        "time": 40.5,
        "duration": 0.075,
        "velocity": 0.63,
        "hand": "left"
      },
      {
        "midi": 54,
        "time": 40.5,
        "duration": 0.15,
        "velocity": 1,
        "hand": "left"
      },
      {
        "midi": 62,
        "time": 40.5,
        "duration": 0.3,
        "velocity": 0.71,
        "hand": "right"
      },
      {
        "midi": 66,
        "time": 40.5,
        "duration": 0.075,
        "velocity": 1,
        "hand": "right"
      },
      {
        "midi": 72,
        "time": 40.5,
        "duration": 0.15,
        "velocity": 1,
        "hand": "right"
      },
      {
        "midi": 74,
        "time": 40.5,
        "duration": 0.15,
        "velocity": 1,
        "hand": "right"
      },
      {
        "midi": 86,
        "time": 40.5,
        "duration": 0.3,
        "velocity": 0.92,
        "hand": "right"
      },
      {
        "midi": 71,
        "time": 40.65,
        "duration": 0.15,
        "velocity": 0.61,
        "hand": "right"
      },
      {
        "midi": 79,
        "time": 40.65,
        "duration": 0.075,
        "velocity": 0.84,
        "hand": "right"
      },
      {
        "midi": 38,
        "time": 40.8,
        "duration": 0.3,
        "velocity": 0.63,
        "hand": "left"
      },
      {
        "midi": 43,
        "time": 40.8,
        "duration": 0.3,
        "velocity": 1,
        "hand": "left"
      },
      {
        "midi": 44,
        "time": 40.8,
        "duration": 0.15,
        "velocity": 0.63,
        "hand": "left"
      },
      {
        "midi": 51,
        "time": 40.8,
        "duration": 0.075,
        "velocity": 0.63,
        "hand": "left"
      },
      {
        "midi": 55,
        "time": 40.8,
        "duration": 0.15,
        "velocity": 0.71,
        "hand": "left"
      },
      {
        "midi": 55,
        "time": 40.8,
        "duration": 0.45,
        "velocity": 1,
        "hand": "left"
      },
      {
        "midi": 55,
        "time": 40.8,
        "duration": 0.3,
        "velocity": 1,
        "hand": "left"
      },
      {
        "midi": 55,
        "time": 40.8,
        "duration": 0.15,
        "velocity": 1,
        "hand": "left"
      },
      {
        "midi": 67,
        "time": 40.8,
        "duration": 0.075,
        "velocity": 1,
        "hand": "right"
      },
      {
        "midi": 71,
        "time": 40.8,
        "duration": 0.075,
        "velocity": 1,
        "hand": "right"
      },
      {
        "midi": 74,
        "time": 40.8,
        "duration": 0.15,
        "velocity": 1,
        "hand": "right"
      },
      {
        "midi": 42,
        "time": 41.1,
        "duration": 0.075,
        "velocity": 0.63,
        "hand": "left"
      },
      {
        "midi": 46,
        "time": 41.1,
        "duration": 0.075,
        "velocity": 0.63,
        "hand": "left"
      },
      {
        "midi": 55,
        "time": 41.1,
        "duration": 0.15,
        "velocity": 1,
        "hand": "left"
      },
      {
        "midi": 62,
        "time": 41.1,
        "duration": 0.075,
        "velocity": 0.63,
        "hand": "right"
      },
      {
        "midi": 67,
        "time": 41.1,
        "duration": 0.075,
        "velocity": 1,
        "hand": "right"
      },
      {
        "midi": 71,
        "time": 41.1,
        "duration": 0.075,
        "velocity": 1,
        "hand": "right"
      },
      {
        "midi": 74,
        "time": 41.1,
        "duration": 0.075,
        "velocity": 1,
        "hand": "right"
      },
      {
        "midi": 74,
        "time": 41.1,
        "duration": 0.15,
        "velocity": 0.89,
        "hand": "right"
      },
      {
        "midi": 86,
        "time": 41.1,
        "duration": 0.075,
        "velocity": 0.63,
        "hand": "right"
      },
      {
        "midi": 86,
        "time": 41.1,
        "duration": 0.15,
        "velocity": 0.89,
        "hand": "right"
      },
      {
        "midi": 62,
        "time": 41.25,
        "duration": 0.15,
        "velocity": 0.63,
        "hand": "right"
      },
      {
        "midi": 67,
        "time": 41.25,
        "duration": 0.15,
        "velocity": 0.79,
        "hand": "right"
      },
      {
        "midi": 71,
        "time": 41.25,
        "duration": 0.15,
        "velocity": 0.85,
        "hand": "right"
      },
      {
        "midi": 74,
        "time": 41.25,
        "duration": 0.15,
        "velocity": 0.89,
        "hand": "right"
      },
      {
        "midi": 86,
        "time": 41.25,
        "duration": 0.15,
        "velocity": 0.63,
        "hand": "right"
      },
      {
        "midi": 38,
        "time": 41.4,
        "duration": 0.45,
        "velocity": 0.63,
        "hand": "left"
      },
      {
        "midi": 40,
        "time": 41.4,
        "duration": 0.3,
        "velocity": 1,
        "hand": "left"
      },
      {
        "midi": 42,
        "time": 41.4,
        "duration": 0.15,
        "velocity": 0.63,
        "hand": "left"
      },
      {
        "midi": 44,
        "time": 41.4,
        "duration": 0.075,
        "velocity": 0.63,
        "hand": "left"
      },
      {
        "midi": 52,
        "time": 41.4,
        "duration": 0.6,
        "velocity": 1,
        "hand": "left"
      },
      {
        "midi": 64,
        "time": 41.4,
        "duration": 0.15,
        "velocity": 0.63,
        "hand": "right"
      },
      {
        "midi": 68,
        "time": 41.4,
        "duration": 0.15,
        "velocity": 0.96,
        "hand": "right"
      },
      {
        "midi": 71,
        "time": 41.4,
        "duration": 0.075,
        "velocity": 0.97,
        "hand": "right"
      },
      {
        "midi": 72,
        "time": 41.4,
        "duration": 0.075,
        "velocity": 0.74,
        "hand": "right"
      },
      {
        "midi": 76,
        "time": 41.4,
        "duration": 0.075,
        "velocity": 1,
        "hand": "right"
      },
      {
        "midi": 76,
        "time": 41.4,
        "duration": 0.3,
        "velocity": 0.99,
        "hand": "right"
      },
      {
        "midi": 88,
        "time": 41.4,
        "duration": 0.15,
        "velocity": 0.63,
        "hand": "right"
      },
      {
        "midi": 88,
        "time": 41.4,
        "duration": 0.3,
        "velocity": 0.99,
        "hand": "right"
      },
      {
        "midi": 62,
        "time": 41.55,
        "duration": 0.075,
        "velocity": 0.63,
        "hand": "right"
      },
      {
        "midi": 64,
        "time": 41.55,
        "duration": 0.15,
        "velocity": 0.63,
        "hand": "right"
      },
      {
        "midi": 86,
        "time": 41.55,
        "duration": 0.15,
        "velocity": 0.63,
        "hand": "right"
      },
      {
        "midi": 42,
        "time": 41.7,
        "duration": 0.15,
        "velocity": 0.63,
        "hand": "left"
      },
      {
        "midi": 46,
        "time": 41.7,
        "duration": 0.15,
        "velocity": 0.63,
        "hand": "left"
      },
      {
        "midi": 56,
        "time": 41.7,
        "duration": 0.15,
        "velocity": 0.76,
        "hand": "left"
      },
      {
        "midi": 62,
        "time": 41.7,
        "duration": 0.3,
        "velocity": 0.63,
        "hand": "right"
      },
      {
        "midi": 68,
        "time": 41.7,
        "duration": 0.15,
        "velocity": 1,
        "hand": "right"
      },
      {
        "midi": 70,
        "time": 41.7,
        "duration": 0.075,
        "velocity": 1,
        "hand": "right"
      },
      {
        "midi": 71,
        "time": 41.7,
        "duration": 0.075,
        "velocity": 1,
        "hand": "right"
      },
      {
        "midi": 74,
        "time": 41.7,
        "duration": 0.3,
        "velocity": 0.99,
        "hand": "right"
      },
      {
        "midi": 76,
        "time": 41.7,
        "duration": 0.075,
        "velocity": 1,
        "hand": "right"
      },
      {
        "midi": 86,
        "time": 41.7,
        "duration": 0.3,
        "velocity": 0.99,
        "hand": "right"
      },
      {
        "midi": 72,
        "time": 41.85,
        "duration": 0.15,
        "velocity": 1,
        "hand": "right"
      },
      {
        "midi": 84,
        "time": 41.85,
        "duration": 0.3,
        "velocity": 0.63,
        "hand": "right"
      },
      {
        "midi": 84,
        "time": 41.85,
        "duration": 0.15,
        "velocity": 1,
        "hand": "right"
      },
      {
        "midi": 38,
        "time": 42,
        "duration": 0.075,
        "velocity": 0.63,
        "hand": "left"
      },
      {
        "midi": 42,
        "time": 42,
        "duration": 0.15,
        "velocity": 0.63,
        "hand": "left"
      },
      {
        "midi": 44,
        "time": 42,
        "duration": 0.075,
        "velocity": 0.63,
        "hand": "left"
      },
      {
        "midi": 45,
        "time": 42,
        "duration": 0.15,
        "velocity": 1,
        "hand": "left"
      },
      {
        "midi": 51,
        "time": 42,
        "duration": 0.075,
        "velocity": 0.63,
        "hand": "left"
      },
      {
        "midi": 57,
        "time": 42,
        "duration": 0.15,
        "velocity": 0.99,
        "hand": "left"
      },
      {
        "midi": 60,
        "time": 42,
        "duration": 0.3,
        "velocity": 0.63,
        "hand": "right"
      },
      {
        "midi": 69,
        "time": 42,
        "duration": 0.15,
        "velocity": 1,
        "hand": "right"
      },
      {
        "midi": 72,
        "time": 42,
        "duration": 0.075,
        "velocity": 1,
        "hand": "right"
      },
      {
        "midi": 72,
        "time": 42,
        "duration": 0.15,
        "velocity": 0.87,
        "hand": "right"
      },
      {
        "midi": 76,
        "time": 42,
        "duration": 0.075,
        "velocity": 1,
        "hand": "right"
      },
      {
        "midi": 69,
        "time": 42.15,
        "duration": 0.075,
        "velocity": 0.99,
        "hand": "right"
      },
      {
        "midi": 72,
        "time": 42.15,
        "duration": 0.075,
        "velocity": 1,
        "hand": "right"
      },
      {
        "midi": 44,
        "time": 42.3,
        "duration": 0.075,
        "velocity": 0.63,
        "hand": "left"
      },
      {
        "midi": 46,
        "time": 42.3,
        "duration": 0.075,
        "velocity": 0.63,
        "hand": "left"
      },
      {
        "midi": 55,
        "time": 42.3,
        "duration": 0.15,
        "velocity": 0.99,
        "hand": "left"
      },
      {
        "midi": 57,
        "time": 42.3,
        "duration": 0.15,
        "velocity": 0.63,
        "hand": "left"
      },
      {
        "midi": 69,
        "time": 42.3,
        "duration": 0.075,
        "velocity": 0.77,
        "hand": "right"
      },
      {
        "midi": 72,
        "time": 42.3,
        "duration": 0.075,
        "velocity": 1,
        "hand": "right"
      },
      {
        "midi": 72,
        "time": 42.3,
        "duration": 0.15,
        "velocity": 1,
        "hand": "right"
      },
      {
        "midi": 76,
        "time": 42.3,
        "duration": 0.075,
        "velocity": 0.83,
        "hand": "right"
      },
      {
        "midi": 81,
        "time": 42.3,
        "duration": 0.15,
        "velocity": 0.63,
        "hand": "right"
      },
      {
        "midi": 84,
        "time": 42.3,
        "duration": 0.15,
        "velocity": 1,
        "hand": "right"
      },
      {
        "midi": 44,
        "time": 42.45,
        "duration": 0.15,
        "velocity": 0.63,
        "hand": "left"
      },
      {
        "midi": 46,
        "time": 42.45,
        "duration": 0.075,
        "velocity": 0.63,
        "hand": "left"
      },
      {
        "midi": 57,
        "time": 42.45,
        "duration": 0.15,
        "velocity": 0.63,
        "hand": "left"
      },
      {
        "midi": 69,
        "time": 42.45,
        "duration": 0.075,
        "velocity": 0.94,
        "hand": "right"
      },
      {
        "midi": 69,
        "time": 42.45,
        "duration": 0.15,
        "velocity": 0.94,
        "hand": "right"
      },
      {
        "midi": 74,
        "time": 42.45,
        "duration": 0.075,
        "velocity": 1,
        "hand": "right"
      },
      {
        "midi": 74,
        "time": 42.45,
        "duration": 0.3,
        "velocity": 1,
        "hand": "right"
      },
      {
        "midi": 78,
        "time": 42.45,
        "duration": 0.075,
        "velocity": 1,
        "hand": "right"
      },
      {
        "midi": 81,
        "time": 42.45,
        "duration": 0.15,
        "velocity": 0.63,
        "hand": "right"
      },
      {
        "midi": 38,
        "time": 42.6,
        "duration": 0.3,
        "velocity": 1,
        "hand": "left"
      },
      {
        "midi": 38,
        "time": 42.6,
        "duration": 0.15,
        "velocity": 0.63,
        "hand": "left"
      },
      {
        "midi": 42,
        "time": 42.6,
        "duration": 0.15,
        "velocity": 0.63,
        "hand": "left"
      },
      {
        "midi": 54,
        "time": 42.6,
        "duration": 0.6,
        "velocity": 0.91,
        "hand": "left"
      },
      {
        "midi": 62,
        "time": 42.6,
        "duration": 0.3,
        "velocity": 0.63,
        "hand": "right"
      },
      {
        "midi": 74,
        "time": 42.6,
        "duration": 0.075,
        "velocity": 0.97,
        "hand": "right"
      },
      {
        "midi": 86,
        "time": 42.6,
        "duration": 0.075,
        "velocity": 0.63,
        "hand": "right"
      },
      {
        "midi": 72,
        "time": 42.75,
        "duration": 0.3,
        "velocity": 1,
        "hand": "right"
      },
      {
        "midi": 38,
        "time": 42.9,
        "duration": 0.15,
        "velocity": 0.63,
        "hand": "left"
      },
      {
        "midi": 42,
        "time": 42.9,
        "duration": 0.15,
        "velocity": 0.63,
        "hand": "left"
      },
      {
        "midi": 46,
        "time": 42.9,
        "duration": 0.075,
        "velocity": 0.63,
        "hand": "left"
      },
      {
        "midi": 54,
        "time": 42.9,
        "duration": 0.15,
        "velocity": 1,
        "hand": "left"
      },
      {
        "midi": 60,
        "time": 42.9,
        "duration": 0.3,
        "velocity": 0.63,
        "hand": "right"
      },
      {
        "midi": 69,
        "time": 42.9,
        "duration": 0.075,
        "velocity": 1,
        "hand": "right"
      },
      {
        "midi": 74,
        "time": 42.9,
        "duration": 0.075,
        "velocity": 1,
        "hand": "right"
      },
      {
        "midi": 74,
        "time": 42.9,
        "duration": 0.15,
        "velocity": 1,
        "hand": "right"
      },
      {
        "midi": 78,
        "time": 42.9,
        "duration": 0.075,
        "velocity": 1,
        "hand": "right"
      },
      {
        "midi": 84,
        "time": 42.9,
        "duration": 0.15,
        "velocity": 0.63,
        "hand": "right"
      },
      {
        "midi": 86,
        "time": 42.9,
        "duration": 0.15,
        "velocity": 1,
        "hand": "right"
      },
      {
        "midi": 72,
        "time": 43.05,
        "duration": 0.15,
        "velocity": 0.94,
        "hand": "right"
      },
      {
        "midi": 84,
        "time": 43.05,
        "duration": 0.15,
        "velocity": 0.94,
        "hand": "right"
      },
      {
        "midi": 38,
        "time": 43.2,
        "duration": 0.075,
        "velocity": 0.63,
        "hand": "left"
      },
      {
        "midi": 42,
        "time": 43.2,
        "duration": 0.075,
        "velocity": 0.63,
        "hand": "left"
      },
      {
        "midi": 43,
        "time": 43.2,
        "duration": 0.3,
        "velocity": 1,
        "hand": "left"
      },
      {
        "midi": 44,
        "time": 43.2,
        "duration": 0.15,
        "velocity": 0.63,
        "hand": "left"
      },
      {
        "midi": 51,
        "time": 43.2,
        "duration": 0.075,
        "velocity": 0.63,
        "hand": "left"
      },
      {
        "midi": 55,
        "time": 43.2,
        "duration": 0.3,
        "velocity": 0.92,
        "hand": "left"
      },
      {
        "midi": 59,
        "time": 43.2,
        "duration": 0.15,
        "velocity": 0.63,
        "hand": "left"
      },
      {
        "midi": 71,
        "time": 43.2,
        "duration": 0.075,
        "velocity": 1,
        "hand": "right"
      },
      {
        "midi": 71,
        "time": 43.2,
        "duration": 0.15,
        "velocity": 1,
        "hand": "right"
      },
      {
        "midi": 74,
        "time": 43.2,
        "duration": 0.15,
        "velocity": 1,
        "hand": "right"
      },
      {
        "midi": 77,
        "time": 43.2,
        "duration": 0.075,
        "velocity": 0.76,
        "hand": "right"
      },
      {
        "midi": 79,
        "time": 43.2,
        "duration": 0.15,
        "velocity": 1,
        "hand": "right"
      },
      {
        "midi": 83,
        "time": 43.2,
        "duration": 0.15,
        "velocity": 0.63,
        "hand": "right"
      },
      {
        "midi": 83,
        "time": 43.2,
        "duration": 0.075,
        "velocity": 0.99,
        "hand": "right"
      },
      {
        "midi": 44,
        "time": 43.5,
        "duration": 0.075,
        "velocity": 0.63,
        "hand": "left"
      },
      {
        "midi": 46,
        "time": 43.5,
        "duration": 0.075,
        "velocity": 0.63,
        "hand": "left"
      },
      {
        "midi": 55,
        "time": 43.5,
        "duration": 0.15,
        "velocity": 1,
        "hand": "left"
      },
      {
        "midi": 59,
        "time": 43.5,
        "duration": 0.075,
        "velocity": 0.63,
        "hand": "left"
      },
      {
        "midi": 71,
        "time": 43.5,
        "duration": 0.075,
        "velocity": 1,
        "hand": "right"
      },
      {
        "midi": 71,
        "time": 43.5,
        "duration": 0.15,
        "velocity": 1,
        "hand": "right"
      },
      {
        "midi": 74,
        "time": 43.5,
        "duration": 0.075,
        "velocity": 1,
        "hand": "right"
      },
      {
        "midi": 79,
        "time": 43.5,
        "duration": 0.075,
        "velocity": 0.99,
        "hand": "right"
      },
      {
        "midi": 79,
        "time": 43.5,
        "duration": 0.15,
        "velocity": 0.65,
        "hand": "right"
      },
      {
        "midi": 83,
        "time": 43.5,
        "duration": 0.15,
        "velocity": 0.63,
        "hand": "right"
      },
      {
        "midi": 44,
        "time": 43.65,
        "duration": 0.075,
        "velocity": 0.63,
        "hand": "left"
      },
      {
        "midi": 46,
        "time": 43.65,
        "duration": 0.075,
        "velocity": 0.63,
        "hand": "left"
      },
      {
        "midi": 55,
        "time": 43.65,
        "duration": 0.15,
        "velocity": 0.63,
        "hand": "left"
      },
      {
        "midi": 67,
        "time": 43.65,
        "duration": 0.15,
        "velocity": 0.83,
        "hand": "right"
      },
      {
        "midi": 71,
        "time": 43.65,
        "duration": 0.075,
        "velocity": 0.65,
        "hand": "right"
      },
      {
        "midi": 71,
        "time": 43.65,
        "duration": 0.15,
        "velocity": 0.99,
        "hand": "right"
      },
      {
        "midi": 74,
        "time": 43.65,
        "duration": 0.075,
        "velocity": 0.76,
        "hand": "right"
      },
      {
        "midi": 79,
        "time": 43.65,
        "duration": 0.15,
        "velocity": 0.63,
        "hand": "right"
      },
      {
        "midi": 38,
        "time": 43.8,
        "duration": 0.15,
        "velocity": 0.63,
        "hand": "left"
      },
      {
        "midi": 40,
        "time": 43.8,
        "duration": 0.3,
        "velocity": 1,
        "hand": "left"
      },
      {
        "midi": 42,
        "time": 43.8,
        "duration": 0.15,
        "velocity": 0.63,
        "hand": "left"
      },
      {
        "midi": 52,
        "time": 43.8,
        "duration": 0.3,
        "velocity": 1,
        "hand": "left"
      },
      {
        "midi": 64,
        "time": 43.8,
        "duration": 0.15,
        "velocity": 0.63,
        "hand": "right"
      },
      {
        "midi": 68,
        "time": 43.8,
        "duration": 0.075,
        "velocity": 1,
        "hand": "right"
      },
      {
        "midi": 72,
        "time": 43.8,
        "duration": 0.075,
        "velocity": 1,
        "hand": "right"
      },
      {
        "midi": 76,
        "time": 43.8,
        "duration": 0.15,
        "velocity": 1,
        "hand": "right"
      },
      {
        "midi": 80,
        "time": 43.8,
        "duration": 0.15,
        "velocity": 1,
        "hand": "right"
      },
      {
        "midi": 84,
        "time": 43.8,
        "duration": 0.075,
        "velocity": 0.63,
        "hand": "right"
      },
      {
        "midi": 38,
        "time": 44.1,
        "duration": 0.075,
        "velocity": 0.63,
        "hand": "left"
      },
      {
        "midi": 42,
        "time": 44.1,
        "duration": 0.15,
        "velocity": 0.63,
        "hand": "left"
      },
      {
        "midi": 46,
        "time": 44.1,
        "duration": 0.075,
        "velocity": 0.63,
        "hand": "left"
      },
      {
        "midi": 50,
        "time": 44.1,
        "duration": 0.45,
        "velocity": 0.94,
        "hand": "left"
      },
      {
        "midi": 56,
        "time": 44.1,
        "duration": 0.15,
        "velocity": 1,
        "hand": "left"
      },
      {
        "midi": 63,
        "time": 44.1,
        "duration": 0.075,
        "velocity": 0.63,
        "hand": "right"
      },
      {
        "midi": 64,
        "time": 44.1,
        "duration": 0.15,
        "velocity": 0.63,
        "hand": "right"
      },
      {
        "midi": 68,
        "time": 44.1,
        "duration": 0.3,
        "velocity": 1,
        "hand": "right"
      },
      {
        "midi": 71,
        "time": 44.1,
        "duration": 0.075,
        "velocity": 1,
        "hand": "right"
      },
      {
        "midi": 72,
        "time": 44.1,
        "duration": 0.15,
        "velocity": 1,
        "hand": "right"
      },
      {
        "midi": 76,
        "time": 44.1,
        "duration": 0.15,
        "velocity": 1,
        "hand": "right"
      },
      {
        "midi": 80,
        "time": 44.1,
        "duration": 0.15,
        "velocity": 1,
        "hand": "right"
      },
      {
        "midi": 84,
        "time": 44.1,
        "duration": 0.15,
        "velocity": 0.63,
        "hand": "right"
      },
      {
        "midi": 62,
        "time": 44.25,
        "duration": 0.15,
        "velocity": 0.63,
        "hand": "right"
      },
      {
        "midi": 71,
        "time": 44.25,
        "duration": 0.15,
        "velocity": 0.87,
        "hand": "right"
      },
      {
        "midi": 83,
        "time": 44.25,
        "duration": 0.15,
        "velocity": 0.63,
        "hand": "right"
      },
      {
        "midi": 38,
        "time": 44.4,
        "duration": 0.075,
        "velocity": 0.63,
        "hand": "left"
      },
      {
        "midi": 42,
        "time": 44.4,
        "duration": 0.075,
        "velocity": 0.63,
        "hand": "left"
      },
      {
        "midi": 44,
        "time": 44.4,
        "duration": 0.075,
        "velocity": 0.63,
        "hand": "left"
      },
      {
        "midi": 45,
        "time": 44.4,
        "duration": 0.15,
        "velocity": 1,
        "hand": "left"
      },
      {
        "midi": 48,
        "time": 44.4,
        "duration": 0.45,
        "velocity": 1,
        "hand": "left"
      },
      {
        "midi": 51,
        "time": 44.4,
        "duration": 0.075,
        "velocity": 0.63,
        "hand": "left"
      },
      {
        "midi": 60,
        "time": 44.4,
        "duration": 0.075,
        "velocity": 0.63,
        "hand": "right"
      },
      {
        "midi": 69,
        "time": 44.4,
        "duration": 0.075,
        "velocity": 0.99,
        "hand": "right"
      },
      {
        "midi": 69,
        "time": 44.4,
        "duration": 0.15,
        "velocity": 0.92,
        "hand": "right"
      },
      {
        "midi": 72,
        "time": 44.4,
        "duration": 0.075,
        "velocity": 1,
        "hand": "right"
      },
      {
        "midi": 76,
        "time": 44.4,
        "duration": 0.075,
        "velocity": 1,
        "hand": "right"
      },
      {
        "midi": 81,
        "time": 44.4,
        "duration": 0.15,
        "velocity": 0.63,
        "hand": "right"
      },
      {
        "midi": 44,
        "time": 44.7,
        "duration": 0.075,
        "velocity": 0.63,
        "hand": "left"
      },
      {
        "midi": 46,
        "time": 44.7,
        "duration": 0.075,
        "velocity": 0.63,
        "hand": "left"
      },
      {
        "midi": 57,
        "time": 44.7,
        "duration": 0.15,
        "velocity": 1,
        "hand": "left"
      },
      {
        "midi": 60,
        "time": 44.7,
        "duration": 0.075,
        "velocity": 0.63,
        "hand": "right"
      },
      {
        "midi": 60,
        "time": 44.7,
        "duration": 0.15,
        "velocity": 0.63,
        "hand": "right"
      },
      {
        "midi": 69,
        "time": 44.7,
        "duration": 0.075,
        "velocity": 0.97,
        "hand": "right"
      },
      {
        "midi": 72,
        "time": 44.7,
        "duration": 0.075,
        "velocity": 1,
        "hand": "right"
      },
      {
        "midi": 76,
        "time": 44.7,
        "duration": 0.075,
        "velocity": 0.99,
        "hand": "right"
      },
      {
        "midi": 81,
        "time": 44.7,
        "duration": 0.075,
        "velocity": 0.63,
        "hand": "right"
      },
      {
        "midi": 44,
        "time": 44.85,
        "duration": 0.075,
        "velocity": 0.63,
        "hand": "left"
      },
      {
        "midi": 46,
        "time": 44.85,
        "duration": 0.075,
        "velocity": 0.63,
        "hand": "left"
      },
      {
        "midi": 69,
        "time": 44.85,
        "duration": 0.075,
        "velocity": 0.39,
        "hand": "right"
      },
      {
        "midi": 69,
        "time": 44.85,
        "duration": 0.15,
        "velocity": 0.85,
        "hand": "right"
      },
      {
        "midi": 72,
        "time": 44.85,
        "duration": 0.15,
        "velocity": 0.79,
        "hand": "right"
      },
      {
        "midi": 74,
        "time": 44.85,
        "duration": 0.075,
        "velocity": 0.76,
        "hand": "right"
      },
      {
        "midi": 76,
        "time": 44.85,
        "duration": 0.075,
        "velocity": 0.57,
        "hand": "right"
      },
      {
        "midi": 81,
        "time": 44.85,
        "duration": 0.15,
        "velocity": 0.63,
        "hand": "right"
      },
      {
        "midi": 38,
        "time": 45,
        "duration": 0.3,
        "velocity": 1,
        "hand": "left"
      },
      {
        "midi": 42,
        "time": 45,
        "duration": 0.3,
        "velocity": 0.63,
        "hand": "left"
      },
      {
        "midi": 46,
        "time": 45,
        "duration": 0.075,
        "velocity": 0.63,
        "hand": "left"
      },
      {
        "midi": 50,
        "time": 45,
        "duration": 0.6,
        "velocity": 1,
        "hand": "left"
      },
      {
        "midi": 51,
        "time": 45,
        "duration": 0.15,
        "velocity": 0.63,
        "hand": "left"
      },
      {
        "midi": 66,
        "time": 45,
        "duration": 0.15,
        "velocity": 1,
        "hand": "right"
      },
      {
        "midi": 72,
        "time": 45,
        "duration": 0.15,
        "velocity": 1,
        "hand": "right"
      },
      {
        "midi": 74,
        "time": 45,
        "duration": 0.075,
        "velocity": 1,
        "hand": "right"
      },
      {
        "midi": 74,
        "time": 45,
        "duration": 0.15,
        "velocity": 1,
        "hand": "right"
      },
      {
        "midi": 86,
        "time": 45,
        "duration": 0.15,
        "velocity": 0.63,
        "hand": "right"
      },
      {
        "midi": 86,
        "time": 45,
        "duration": 0.075,
        "velocity": 1,
        "hand": "right"
      },
      {
        "midi": 46,
        "time": 45.3,
        "duration": 0.075,
        "velocity": 0.63,
        "hand": "left"
      },
      {
        "midi": 54,
        "time": 45.3,
        "duration": 0.15,
        "velocity": 0.93,
        "hand": "left"
      },
      {
        "midi": 62,
        "time": 45.3,
        "duration": 0.3,
        "velocity": 0.63,
        "hand": "right"
      },
      {
        "midi": 66,
        "time": 45.3,
        "duration": 0.15,
        "velocity": 1,
        "hand": "right"
      },
      {
        "midi": 72,
        "time": 45.3,
        "duration": 0.075,
        "velocity": 1,
        "hand": "right"
      },
      {
        "midi": 74,
        "time": 45.3,
        "duration": 0.075,
        "velocity": 1,
        "hand": "right"
      },
      {
        "midi": 74,
        "time": 45.3,
        "duration": 0.3,
        "velocity": 1,
        "hand": "right"
      },
      {
        "midi": 74,
        "time": 45.3,
        "duration": 0.15,
        "velocity": 1,
        "hand": "right"
      },
      {
        "midi": 86,
        "time": 45.3,
        "duration": 0.15,
        "velocity": 0.63,
        "hand": "right"
      },
      {
        "midi": 86,
        "time": 45.3,
        "duration": 0.3,
        "velocity": 1,
        "hand": "right"
      },
      {
        "midi": 67,
        "time": 45.45,
        "duration": 0.15,
        "velocity": 1,
        "hand": "right"
      },
      {
        "midi": 38,
        "time": 45.6,
        "duration": 0.075,
        "velocity": 0.63,
        "hand": "left"
      },
      {
        "midi": 42,
        "time": 45.6,
        "duration": 0.075,
        "velocity": 0.63,
        "hand": "left"
      },
      {
        "midi": 43,
        "time": 45.6,
        "duration": 0.15,
        "velocity": 1,
        "hand": "left"
      },
      {
        "midi": 44,
        "time": 45.6,
        "duration": 0.075,
        "velocity": 0.63,
        "hand": "left"
      },
      {
        "midi": 46,
        "time": 45.6,
        "duration": 0.075,
        "velocity": 0.63,
        "hand": "left"
      },
      {
        "midi": 51,
        "time": 45.6,
        "duration": 0.15,
        "velocity": 0.63,
        "hand": "left"
      },
      {
        "midi": 55,
        "time": 45.6,
        "duration": 0.075,
        "velocity": 1,
        "hand": "left"
      },
      {
        "midi": 55,
        "time": 45.6,
        "duration": 0.6,
        "velocity": 0.97,
        "hand": "left"
      },
      {
        "midi": 67,
        "time": 45.6,
        "duration": 0.15,
        "velocity": 1,
        "hand": "right"
      },
      {
        "midi": 67,
        "time": 45.6,
        "duration": 1.95,
        "velocity": 0.63,
        "hand": "right"
      },
      {
        "midi": 69,
        "time": 45.6,
        "duration": 0.15,
        "velocity": 0.83,
        "hand": "right"
      },
      {
        "midi": 71,
        "time": 45.6,
        "duration": 0.3,
        "velocity": 1,
        "hand": "right"
      },
      {
        "midi": 74,
        "time": 45.6,
        "duration": 1.35,
        "velocity": 1,
        "hand": "right"
      },
      {
        "midi": 79,
        "time": 45.6,
        "duration": 1.35,
        "velocity": 0.63,
        "hand": "right"
      },
      {
        "midi": 79,
        "time": 45.6,
        "duration": 1.95,
        "velocity": 1,
        "hand": "right"
      },
      {
        "midi": 67,
        "time": 45.9,
        "duration": 0.075,
        "velocity": 0.79,
        "hand": "right"
      },
      {
        "midi": 38,
        "time": 46.2,
        "duration": 0.3,
        "velocity": 1,
        "hand": "left"
      },
      {
        "midi": 38,
        "time": 46.2,
        "duration": 0.15,
        "velocity": 0.63,
        "hand": "left"
      },
      {
        "midi": 42,
        "time": 46.2,
        "duration": 0.15,
        "velocity": 0.63,
        "hand": "left"
      },
      {
        "midi": 44,
        "time": 46.2,
        "duration": 0.15,
        "velocity": 0.63,
        "hand": "left"
      },
      {
        "midi": 46,
        "time": 46.2,
        "duration": 0.15,
        "velocity": 0.63,
        "hand": "left"
      },
      {
        "midi": 50,
        "time": 46.2,
        "duration": 0.6,
        "velocity": 1,
        "hand": "left"
      },
      {
        "midi": 50,
        "time": 46.2,
        "duration": 0.45,
        "velocity": 0.81,
        "hand": "left"
      },
      {
        "midi": 67,
        "time": 46.2,
        "duration": 0.075,
        "velocity": 0.89,
        "hand": "right"
      },
      {
        "midi": 71,
        "time": 46.2,
        "duration": 0.075,
        "velocity": 0.85,
        "hand": "right"
      },
      {
        "midi": 67,
        "time": 46.5,
        "duration": 0.075,
        "velocity": 0.79,
        "hand": "right"
      },
      {
        "midi": 71,
        "time": 46.5,
        "duration": 0.075,
        "velocity": 0.72,
        "hand": "right"
      },
      {
        "midi": 42,
        "time": 46.65,
        "duration": 0.075,
        "velocity": 0.63,
        "hand": "left"
      },
      {
        "midi": 50,
        "time": 46.65,
        "duration": 0.075,
        "velocity": 0.89,
        "hand": "left"
      },
      {
        "midi": 38,
        "time": 46.8,
        "duration": 0.15,
        "velocity": 0.63,
        "hand": "left"
      },
      {
        "midi": 42,
        "time": 46.8,
        "duration": 0.15,
        "velocity": 0.63,
        "hand": "left"
      },
      {
        "midi": 43,
        "time": 46.8,
        "duration": 0.3,
        "velocity": 1,
        "hand": "left"
      },
      {
        "midi": 43,
        "time": 46.8,
        "duration": 0.6,
        "velocity": 0.99,
        "hand": "left"
      },
      {
        "midi": 44,
        "time": 46.8,
        "duration": 0.075,
        "velocity": 0.63,
        "hand": "left"
      },
      {
        "midi": 46,
        "time": 46.8,
        "duration": 0.075,
        "velocity": 0.63,
        "hand": "left"
      },
      {
        "midi": 51,
        "time": 46.8,
        "duration": 0.075,
        "velocity": 0.63,
        "hand": "left"
      },
      {
        "midi": 55,
        "time": 46.8,
        "duration": 0.3,
        "velocity": 1,
        "hand": "left"
      },
      {
        "midi": 67,
        "time": 46.8,
        "duration": 0.15,
        "velocity": 1,
        "hand": "right"
      },
      {
        "midi": 71,
        "time": 46.8,
        "duration": 0.15,
        "velocity": 1,
        "hand": "right"
      },
      {
        "midi": 38,
        "time": 47.1,
        "duration": 0.15,
        "velocity": 1,
        "hand": "left"
      },
      {
        "midi": 38,
        "time": 47.1,
        "duration": 0.075,
        "velocity": 0.63,
        "hand": "left"
      },
      {
        "midi": 50,
        "time": 47.1,
        "duration": 0.15,
        "velocity": 1,
        "hand": "left"
      },
      {
        "midi": 38,
        "time": 47.25,
        "duration": 0.075,
        "velocity": 0.63,
        "hand": "left"
      },
      {
        "midi": 38,
        "time": 47.4,
        "duration": 0.075,
        "velocity": 0.63,
        "hand": "left"
      },
      {
        "midi": 40,
        "time": 47.4,
        "duration": 0.15,
        "velocity": 1,
        "hand": "left"
      },
      {
        "midi": 52,
        "time": 47.4,
        "duration": 0.15,
        "velocity": 1,
        "hand": "left"
      },
      {
        "midi": 38,
        "time": 47.7,
        "duration": 0.075,
        "velocity": 0.63,
        "hand": "left"
      },
      {
        "midi": 42,
        "time": 47.7,
        "duration": 0.15,
        "velocity": 1,
        "hand": "left"
      },
      {
        "midi": 54,
        "time": 47.7,
        "duration": 0.15,
        "velocity": 1,
        "hand": "left"
      },
      {
        "midi": 38,
        "time": 48,
        "duration": 0.75,
        "velocity": 0.63,
        "hand": "left"
      },
      {
        "midi": 43,
        "time": 48,
        "duration": 0.9,
        "velocity": 1,
        "hand": "left"
      },
      {
        "midi": 44,
        "time": 48,
        "duration": 0.075,
        "velocity": 0.63,
        "hand": "left"
      },
      {
        "midi": 51,
        "time": 48,
        "duration": 0.075,
        "velocity": 0.63,
        "hand": "left"
      },
      {
        "midi": 55,
        "time": 48,
        "duration": 0.9,
        "velocity": 1,
        "hand": "left"
      },
      {
        "midi": 62,
        "time": 48,
        "duration": 0.075,
        "velocity": 0.92,
        "hand": "right"
      },
      {
        "midi": 67,
        "time": 48,
        "duration": 0.075,
        "velocity": 0.99,
        "hand": "right"
      },
      {
        "midi": 71,
        "time": 48,
        "duration": 0.075,
        "velocity": 0.97,
        "hand": "right"
      },
      {
        "midi": 71,
        "time": 48,
        "duration": 0.9,
        "velocity": 0.91,
        "hand": "right"
      },
      {
        "midi": 44,
        "time": 48.3,
        "duration": 0.075,
        "velocity": 0.63,
        "hand": "left"
      },
      {
        "midi": 62,
        "time": 48.3,
        "duration": 0.15,
        "velocity": 0.89,
        "hand": "right"
      },
      {
        "midi": 67,
        "time": 48.3,
        "duration": 0.075,
        "velocity": 1,
        "hand": "right"
      },
      {
        "midi": 71,
        "time": 48.3,
        "duration": 0.075,
        "velocity": 0.92,
        "hand": "right"
      },
      {
        "midi": 44,
        "time": 48.45,
        "duration": 0.15,
        "velocity": 0.63,
        "hand": "left"
      },
      {
        "midi": 62,
        "time": 48.45,
        "duration": 0.075,
        "velocity": 0.67,
        "hand": "right"
      },
      {
        "midi": 67,
        "time": 48.45,
        "duration": 0.075,
        "velocity": 0.92,
        "hand": "right"
      },
      {
        "midi": 71,
        "time": 48.45,
        "duration": 0.075,
        "velocity": 0.73,
        "hand": "right"
      },
      {
        "midi": 44,
        "time": 48.6,
        "duration": 0.075,
        "velocity": 0.63,
        "hand": "left"
      },
      {
        "midi": 62,
        "time": 48.6,
        "duration": 0.075,
        "velocity": 0.92,
        "hand": "right"
      },
      {
        "midi": 67,
        "time": 48.6,
        "duration": 0.075,
        "velocity": 1,
        "hand": "right"
      },
      {
        "midi": 71,
        "time": 48.6,
        "duration": 0.15,
        "velocity": 1,
        "hand": "right"
      },
      {
        "midi": 38,
        "time": 48.9,
        "duration": 0.3,
        "velocity": 1,
        "hand": "left"
      },
      {
        "midi": 42,
        "time": 48.9,
        "duration": 0.3,
        "velocity": 0.63,
        "hand": "left"
      },
      {
        "midi": 46,
        "time": 48.9,
        "duration": 0.075,
        "velocity": 0.63,
        "hand": "left"
      },
      {
        "midi": 64,
        "time": 48.9,
        "duration": 0.075,
        "velocity": 0.89,
        "hand": "right"
      },
      {
        "midi": 67,
        "time": 48.9,
        "duration": 0.15,
        "velocity": 1,
        "hand": "right"
      },
      {
        "midi": 72,
        "time": 48.9,
        "duration": 0.15,
        "velocity": 1,
        "hand": "right"
      },
      {
        "midi": 72,
        "time": 48.9,
        "duration": 0.3,
        "velocity": 0.87,
        "hand": "right"
      },
      {
        "midi": 38,
        "time": 49.2,
        "duration": 1.05,
        "velocity": 0.63,
        "hand": "left"
      },
      {
        "midi": 43,
        "time": 49.2,
        "duration": 0.9,
        "velocity": 1,
        "hand": "left"
      },
      {
        "midi": 44,
        "time": 49.2,
        "duration": 0.075,
        "velocity": 0.63,
        "hand": "left"
      },
      {
        "midi": 62,
        "time": 49.2,
        "duration": 0.15,
        "velocity": 1,
        "hand": "right"
      },
      {
        "midi": 67,
        "time": 49.2,
        "duration": 0.15,
        "velocity": 1,
        "hand": "right"
      },
      {
        "midi": 71,
        "time": 49.2,
        "duration": 0.15,
        "velocity": 1,
        "hand": "right"
      },
      {
        "midi": 71,
        "time": 49.2,
        "duration": 0.9,
        "velocity": 0.93,
        "hand": "right"
      },
      {
        "midi": 44,
        "time": 49.5,
        "duration": 0.075,
        "velocity": 0.63,
        "hand": "left"
      },
      {
        "midi": 62,
        "time": 49.5,
        "duration": 0.15,
        "velocity": 0.97,
        "hand": "right"
      },
      {
        "midi": 67,
        "time": 49.5,
        "duration": 0.075,
        "velocity": 1,
        "hand": "right"
      },
      {
        "midi": 71,
        "time": 49.5,
        "duration": 0.075,
        "velocity": 0.97,
        "hand": "right"
      },
      {
        "midi": 44,
        "time": 49.65,
        "duration": 0.075,
        "velocity": 0.63,
        "hand": "left"
      },
      {
        "midi": 62,
        "time": 49.65,
        "duration": 0.075,
        "velocity": 0.68,
        "hand": "right"
      },
      {
        "midi": 67,
        "time": 49.65,
        "duration": 0.075,
        "velocity": 0.87,
        "hand": "right"
      },
      {
        "midi": 71,
        "time": 49.65,
        "duration": 0.075,
        "velocity": 0.83,
        "hand": "right"
      },
      {
        "midi": 44,
        "time": 49.8,
        "duration": 0.15,
        "velocity": 0.63,
        "hand": "left"
      },
      {
        "midi": 62,
        "time": 49.8,
        "duration": 0.15,
        "velocity": 0.79,
        "hand": "right"
      },
      {
        "midi": 67,
        "time": 49.8,
        "duration": 0.15,
        "velocity": 0.97,
        "hand": "right"
      },
      {
        "midi": 71,
        "time": 49.8,
        "duration": 0.15,
        "velocity": 0.89,
        "hand": "right"
      },
      {
        "midi": 38,
        "time": 50.1,
        "duration": 0.15,
        "velocity": 1,
        "hand": "left"
      },
      {
        "midi": 42,
        "time": 50.1,
        "duration": 0.15,
        "velocity": 0.63,
        "hand": "left"
      },
      {
        "midi": 46,
        "time": 50.1,
        "duration": 0.075,
        "velocity": 0.63,
        "hand": "left"
      },
      {
        "midi": 64,
        "time": 50.1,
        "duration": 0.075,
        "velocity": 1,
        "hand": "right"
      },
      {
        "midi": 67,
        "time": 50.1,
        "duration": 0.075,
        "velocity": 0.97,
        "hand": "right"
      },
      {
        "midi": 68,
        "time": 50.1,
        "duration": 0.075,
        "velocity": 0.94,
        "hand": "right"
      },
      {
        "midi": 72,
        "time": 50.1,
        "duration": 0.15,
        "velocity": 1,
        "hand": "right"
      },
      {
        "midi": 38,
        "time": 50.4,
        "duration": 0.3,
        "velocity": 0.63,
        "hand": "left"
      },
      {
        "midi": 43,
        "time": 50.4,
        "duration": 0.15,
        "velocity": 1,
        "hand": "left"
      },
      {
        "midi": 44,
        "time": 50.4,
        "duration": 0.075,
        "velocity": 0.63,
        "hand": "left"
      },
      {
        "midi": 62,
        "time": 50.4,
        "duration": 0.15,
        "velocity": 1,
        "hand": "right"
      },
      {
        "midi": 67,
        "time": 50.4,
        "duration": 0.15,
        "velocity": 0.97,
        "hand": "right"
      },
      {
        "midi": 71,
        "time": 50.4,
        "duration": 0.15,
        "velocity": 1,
        "hand": "right"
      },
      {
        "midi": 71,
        "time": 50.4,
        "duration": 0.075,
        "velocity": 1,
        "hand": "right"
      },
      {
        "midi": 38,
        "time": 50.7,
        "duration": 0.15,
        "velocity": 1,
        "hand": "left"
      },
      {
        "midi": 42,
        "time": 50.7,
        "duration": 0.15,
        "velocity": 0.63,
        "hand": "left"
      },
      {
        "midi": 44,
        "time": 50.7,
        "duration": 0.15,
        "velocity": 0.63,
        "hand": "left"
      },
      {
        "midi": 62,
        "time": 50.7,
        "duration": 0.075,
        "velocity": 1,
        "hand": "right"
      },
      {
        "midi": 67,
        "time": 50.7,
        "duration": 0.075,
        "velocity": 1,
        "hand": "right"
      },
      {
        "midi": 71,
        "time": 50.7,
        "duration": 0.075,
        "velocity": 1,
        "hand": "right"
      },
      {
        "midi": 71,
        "time": 50.7,
        "duration": 0.15,
        "velocity": 1,
        "hand": "right"
      },
      {
        "midi": 46,
        "time": 50.85,
        "duration": 0.15,
        "velocity": 0.63,
        "hand": "left"
      },
      {
        "midi": 64,
        "time": 50.85,
        "duration": 0.075,
        "velocity": 0.79,
        "hand": "right"
      },
      {
        "midi": 67,
        "time": 50.85,
        "duration": 0.075,
        "velocity": 0.87,
        "hand": "right"
      },
      {
        "midi": 68,
        "time": 50.85,
        "duration": 0.075,
        "velocity": 0.79,
        "hand": "right"
      },
      {
        "midi": 72,
        "time": 50.85,
        "duration": 0.075,
        "velocity": 1,
        "hand": "right"
      },
      {
        "midi": 72,
        "time": 50.85,
        "duration": 0.15,
        "velocity": 0.95,
        "hand": "right"
      },
      {
        "midi": 38,
        "time": 51,
        "duration": 0.15,
        "velocity": 0.63,
        "hand": "left"
      },
      {
        "midi": 43,
        "time": 51,
        "duration": 0.15,
        "velocity": 1,
        "hand": "left"
      },
      {
        "midi": 44,
        "time": 51,
        "duration": 0.075,
        "velocity": 0.63,
        "hand": "left"
      },
      {
        "midi": 62,
        "time": 51,
        "duration": 0.075,
        "velocity": 1,
        "hand": "right"
      },
      {
        "midi": 67,
        "time": 51,
        "duration": 0.075,
        "velocity": 0.99,
        "hand": "right"
      },
      {
        "midi": 71,
        "time": 51,
        "duration": 0.075,
        "velocity": 0.99,
        "hand": "right"
      },
      {
        "midi": 38,
        "time": 51.3,
        "duration": 0.15,
        "velocity": 1,
        "hand": "left"
      },
      {
        "midi": 42,
        "time": 51.3,
        "duration": 0.15,
        "velocity": 0.63,
        "hand": "left"
      },
      {
        "midi": 44,
        "time": 51.3,
        "duration": 0.15,
        "velocity": 0.63,
        "hand": "left"
      },
      {
        "midi": 64,
        "time": 51.3,
        "duration": 0.075,
        "velocity": 0.97,
        "hand": "right"
      },
      {
        "midi": 67,
        "time": 51.3,
        "duration": 0.075,
        "velocity": 0.97,
        "hand": "right"
      },
      {
        "midi": 68,
        "time": 51.3,
        "duration": 0.075,
        "velocity": 0.87,
        "hand": "right"
      },
      {
        "midi": 72,
        "time": 51.3,
        "duration": 0.075,
        "velocity": 1,
        "hand": "right"
      },
      {
        "midi": 72,
        "time": 51.3,
        "duration": 0.15,
        "velocity": 1,
        "hand": "right"
      },
      {
        "midi": 46,
        "time": 51.45,
        "duration": 0.15,
        "velocity": 0.63,
        "hand": "left"
      },
      {
        "midi": 38,
        "time": 51.6,
        "duration": 1.05,
        "velocity": 0.63,
        "hand": "left"
      },
      {
        "midi": 43,
        "time": 51.6,
        "duration": 0.75,
        "velocity": 1,
        "hand": "left"
      },
      {
        "midi": 44,
        "time": 51.6,
        "duration": 0.075,
        "velocity": 0.63,
        "hand": "left"
      },
      {
        "midi": 62,
        "time": 51.6,
        "duration": 0.45,
        "velocity": 1,
        "hand": "right"
      },
      {
        "midi": 67,
        "time": 51.6,
        "duration": 0.15,
        "velocity": 1,
        "hand": "right"
      },
      {
        "midi": 71,
        "time": 51.6,
        "duration": 0.45,
        "velocity": 1,
        "hand": "right"
      },
      {
        "midi": 71,
        "time": 51.6,
        "duration": 1.2,
        "velocity": 1,
        "hand": "right"
      },
      {
        "midi": 44,
        "time": 51.9,
        "duration": 0.15,
        "velocity": 0.63,
        "hand": "left"
      },
      {
        "midi": 62,
        "time": 51.9,
        "duration": 0.3,
        "velocity": 0.89,
        "hand": "right"
      },
      {
        "midi": 67,
        "time": 51.9,
        "duration": 0.15,
        "velocity": 0.77,
        "hand": "right"
      },
      {
        "midi": 86,
        "time": 51.9,
        "duration": 0.15,
        "velocity": 0.92,
        "hand": "right"
      },
      {
        "midi": 91,
        "time": 52.05,
        "duration": 0.15,
        "velocity": 0.8,
        "hand": "right"
      },
      {
        "midi": 44,
        "time": 52.2,
        "duration": 0.15,
        "velocity": 0.63,
        "hand": "left"
      },
      {
        "midi": 59,
        "time": 52.2,
        "duration": 0.3,
        "velocity": 0.92,
        "hand": "left"
      },
      {
        "midi": 69,
        "time": 52.2,
        "duration": 0.075,
        "velocity": 0.76,
        "hand": "right"
      },
      {
        "midi": 72,
        "time": 52.2,
        "duration": 0.15,
        "velocity": 1,
        "hand": "right"
      },
      {
        "midi": 86,
        "time": 52.2,
        "duration": 0.075,
        "velocity": 0.92,
        "hand": "right"
      },
      {
        "midi": 44,
        "time": 52.5,
        "duration": 0.15,
        "velocity": 0.63,
        "hand": "left"
      },
      {
        "midi": 55,
        "time": 52.5,
        "duration": 0.3,
        "velocity": 1,
        "hand": "left"
      },
      {
        "midi": 67,
        "time": 52.5,
        "duration": 0.075,
        "velocity": 0.81,
        "hand": "right"
      },
      {
        "midi": 69,
        "time": 52.5,
        "duration": 0.075,
        "velocity": 0.73,
        "hand": "right"
      },
      {
        "midi": 70,
        "time": 52.5,
        "duration": 0.075,
        "velocity": 1,
        "hand": "right"
      },
      {
        "midi": 73,
        "time": 52.5,
        "duration": 0.075,
        "velocity": 1,
        "hand": "right"
      },
      {
        "midi": 83,
        "time": 52.5,
        "duration": 0.075,
        "velocity": 0.92,
        "hand": "right"
      },
      {
        "midi": 38,
        "time": 52.8,
        "duration": 0.9,
        "velocity": 0.63,
        "hand": "left"
      },
      {
        "midi": 43,
        "time": 52.8,
        "duration": 0.75,
        "velocity": 1,
        "hand": "left"
      },
      {
        "midi": 44,
        "time": 52.8,
        "duration": 0.15,
        "velocity": 0.63,
        "hand": "left"
      },
      {
        "midi": 50,
        "time": 52.8,
        "duration": 1.95,
        "velocity": 1,
        "hand": "left"
      },
      {
        "midi": 51,
        "time": 52.8,
        "duration": 0.075,
        "velocity": 0.63,
        "hand": "left"
      },
      {
        "midi": 67,
        "time": 52.8,
        "duration": 0.15,
        "velocity": 1,
        "hand": "right"
      },
      {
        "midi": 71,
        "time": 52.8,
        "duration": 0.15,
        "velocity": 1,
        "hand": "right"
      },
      {
        "midi": 74,
        "time": 52.8,
        "duration": 0.15,
        "velocity": 1,
        "hand": "right"
      },
      {
        "midi": 79,
        "time": 52.8,
        "duration": 2.4,
        "velocity": 0.92,
        "hand": "right"
      },
      {
        "midi": 44,
        "time": 53.1,
        "duration": 0.075,
        "velocity": 0.63,
        "hand": "left"
      },
      {
        "midi": 67,
        "time": 53.1,
        "duration": 0.075,
        "velocity": 1,
        "hand": "right"
      },
      {
        "midi": 67,
        "time": 53.1,
        "duration": 0.6,
        "velocity": 1,
        "hand": "right"
      },
      {
        "midi": 71,
        "time": 53.1,
        "duration": 0.075,
        "velocity": 1,
        "hand": "right"
      },
      {
        "midi": 74,
        "time": 53.1,
        "duration": 0.075,
        "velocity": 1,
        "hand": "right"
      },
      {
        "midi": 44,
        "time": 53.25,
        "duration": 0.075,
        "velocity": 0.63,
        "hand": "left"
      },
      {
        "midi": 67,
        "time": 53.25,
        "duration": 0.075,
        "velocity": 0.94,
        "hand": "right"
      },
      {
        "midi": 71,
        "time": 53.25,
        "duration": 0.075,
        "velocity": 1,
        "hand": "right"
      },
      {
        "midi": 74,
        "time": 53.25,
        "duration": 0.075,
        "velocity": 0.99,
        "hand": "right"
      },
      {
        "midi": 44,
        "time": 53.4,
        "duration": 0.075,
        "velocity": 0.63,
        "hand": "left"
      },
      {
        "midi": 67,
        "time": 53.4,
        "duration": 0.15,
        "velocity": 0.92,
        "hand": "right"
      },
      {
        "midi": 71,
        "time": 53.4,
        "duration": 0.15,
        "velocity": 0.94,
        "hand": "right"
      },
      {
        "midi": 74,
        "time": 53.4,
        "duration": 0.15,
        "velocity": 0.94,
        "hand": "right"
      },
      {
        "midi": 42,
        "time": 53.7,
        "duration": 0.15,
        "velocity": 0.63,
        "hand": "left"
      },
      {
        "midi": 46,
        "time": 53.7,
        "duration": 0.15,
        "velocity": 0.63,
        "hand": "left"
      },
      {
        "midi": 50,
        "time": 53.7,
        "duration": 0.15,
        "velocity": 1,
        "hand": "left"
      },
      {
        "midi": 66,
        "time": 53.7,
        "duration": 0.075,
        "velocity": 1,
        "hand": "right"
      },
      {
        "midi": 67,
        "time": 53.7,
        "duration": 0.075,
        "velocity": 1,
        "hand": "right"
      },
      {
        "midi": 70,
        "time": 53.7,
        "duration": 0.075,
        "velocity": 1,
        "hand": "right"
      },
      {
        "midi": 73,
        "time": 53.7,
        "duration": 0.075,
        "velocity": 1,
        "hand": "right"
      },
      {
        "midi": 38,
        "time": 54,
        "duration": 0.9,
        "velocity": 0.63,
        "hand": "left"
      },
      {
        "midi": 43,
        "time": 54,
        "duration": 0.75,
        "velocity": 1,
        "hand": "left"
      },
      {
        "midi": 44,
        "time": 54,
        "duration": 0.075,
        "velocity": 0.63,
        "hand": "left"
      },
      {
        "midi": 67,
        "time": 54,
        "duration": 0.075,
        "velocity": 1,
        "hand": "right"
      },
      {
        "midi": 67,
        "time": 54,
        "duration": 0.15,
        "velocity": 1,
        "hand": "right"
      },
      {
        "midi": 71,
        "time": 54,
        "duration": 0.075,
        "velocity": 1,
        "hand": "right"
      },
      {
        "midi": 74,
        "time": 54,
        "duration": 0.075,
        "velocity": 1,
        "hand": "right"
      },
      {
        "midi": 44,
        "time": 54.3,
        "duration": 0.075,
        "velocity": 0.63,
        "hand": "left"
      },
      {
        "midi": 67,
        "time": 54.3,
        "duration": 0.075,
        "velocity": 0.99,
        "hand": "right"
      },
      {
        "midi": 67,
        "time": 54.3,
        "duration": 0.45,
        "velocity": 1,
        "hand": "right"
      },
      {
        "midi": 71,
        "time": 54.3,
        "duration": 0.075,
        "velocity": 1,
        "hand": "right"
      },
      {
        "midi": 74,
        "time": 54.3,
        "duration": 0.075,
        "velocity": 1,
        "hand": "right"
      },
      {
        "midi": 44,
        "time": 54.45,
        "duration": 0.075,
        "velocity": 0.63,
        "hand": "left"
      },
      {
        "midi": 67,
        "time": 54.45,
        "duration": 0.075,
        "velocity": 0.81,
        "hand": "right"
      },
      {
        "midi": 71,
        "time": 54.45,
        "duration": 0.075,
        "velocity": 0.85,
        "hand": "right"
      },
      {
        "midi": 74,
        "time": 54.45,
        "duration": 0.075,
        "velocity": 0.76,
        "hand": "right"
      },
      {
        "midi": 44,
        "time": 54.6,
        "duration": 0.075,
        "velocity": 0.63,
        "hand": "left"
      },
      {
        "midi": 67,
        "time": 54.6,
        "duration": 0.075,
        "velocity": 1,
        "hand": "right"
      },
      {
        "midi": 71,
        "time": 54.6,
        "duration": 0.075,
        "velocity": 1,
        "hand": "right"
      },
      {
        "midi": 74,
        "time": 54.6,
        "duration": 0.15,
        "velocity": 1,
        "hand": "right"
      },
      {
        "midi": 42,
        "time": 54.9,
        "duration": 0.15,
        "velocity": 0.63,
        "hand": "left"
      },
      {
        "midi": 46,
        "time": 54.9,
        "duration": 0.075,
        "velocity": 0.63,
        "hand": "left"
      },
      {
        "midi": 50,
        "time": 54.9,
        "duration": 0.3,
        "velocity": 1,
        "hand": "left"
      },
      {
        "midi": 66,
        "time": 54.9,
        "duration": 0.15,
        "velocity": 1,
        "hand": "right"
      },
      {
        "midi": 67,
        "time": 54.9,
        "duration": 0.075,
        "velocity": 1,
        "hand": "right"
      },
      {
        "midi": 70,
        "time": 54.9,
        "duration": 0.075,
        "velocity": 1,
        "hand": "right"
      },
      {
        "midi": 73,
        "time": 54.9,
        "duration": 0.15,
        "velocity": 1,
        "hand": "right"
      },
      {
        "midi": 38,
        "time": 55.2,
        "duration": 0.15,
        "velocity": 0.63,
        "hand": "left"
      },
      {
        "midi": 43,
        "time": 55.2,
        "duration": 0.15,
        "velocity": 1,
        "hand": "left"
      },
      {
        "midi": 44,
        "time": 55.2,
        "duration": 0.15,
        "velocity": 0.63,
        "hand": "left"
      },
      {
        "midi": 67,
        "time": 55.2,
        "duration": 0.15,
        "velocity": 0.99,
        "hand": "right"
      },
      {
        "midi": 71,
        "time": 55.2,
        "duration": 0.075,
        "velocity": 1,
        "hand": "right"
      },
      {
        "midi": 74,
        "time": 55.2,
        "duration": 0.075,
        "velocity": 1,
        "hand": "right"
      },
      {
        "midi": 42,
        "time": 55.5,
        "duration": 0.15,
        "velocity": 0.63,
        "hand": "left"
      },
      {
        "midi": 44,
        "time": 55.5,
        "duration": 0.15,
        "velocity": 0.63,
        "hand": "left"
      },
      {
        "midi": 50,
        "time": 55.5,
        "duration": 0.15,
        "velocity": 1,
        "hand": "left"
      },
      {
        "midi": 67,
        "time": 55.5,
        "duration": 0.15,
        "velocity": 1,
        "hand": "right"
      },
      {
        "midi": 71,
        "time": 55.5,
        "duration": 0.075,
        "velocity": 1,
        "hand": "right"
      },
      {
        "midi": 74,
        "time": 55.5,
        "duration": 0.15,
        "velocity": 0.97,
        "hand": "right"
      },
      {
        "midi": 46,
        "time": 55.65,
        "duration": 0.15,
        "velocity": 0.63,
        "hand": "left"
      },
      {
        "midi": 66,
        "time": 55.65,
        "duration": 0.15,
        "velocity": 1,
        "hand": "right"
      },
      {
        "midi": 67,
        "time": 55.65,
        "duration": 0.075,
        "velocity": 0.55,
        "hand": "right"
      },
      {
        "midi": 70,
        "time": 55.65,
        "duration": 0.15,
        "velocity": 1,
        "hand": "right"
      },
      {
        "midi": 73,
        "time": 55.65,
        "duration": 0.15,
        "velocity": 0.89,
        "hand": "right"
      },
      {
        "midi": 38,
        "time": 55.8,
        "duration": 0.15,
        "velocity": 0.63,
        "hand": "left"
      },
      {
        "midi": 43,
        "time": 55.8,
        "duration": 0.15,
        "velocity": 1,
        "hand": "left"
      },
      {
        "midi": 44,
        "time": 55.8,
        "duration": 0.15,
        "velocity": 0.63,
        "hand": "left"
      },
      {
        "midi": 67,
        "time": 55.8,
        "duration": 0.15,
        "velocity": 0.73,
        "hand": "right"
      },
      {
        "midi": 67,
        "time": 55.8,
        "duration": 0.075,
        "velocity": 1,
        "hand": "right"
      },
      {
        "midi": 70,
        "time": 55.8,
        "duration": 0.075,
        "velocity": 0.52,
        "hand": "right"
      },
      {
        "midi": 71,
        "time": 55.8,
        "duration": 0.075,
        "velocity": 0.81,
        "hand": "right"
      },
      {
        "midi": 74,
        "time": 55.8,
        "duration": 0.075,
        "velocity": 0.89,
        "hand": "right"
      },
      {
        "midi": 42,
        "time": 56.1,
        "duration": 0.15,
        "velocity": 0.63,
        "hand": "left"
      },
      {
        "midi": 46,
        "time": 56.1,
        "duration": 0.15,
        "velocity": 0.63,
        "hand": "left"
      },
      {
        "midi": 50,
        "time": 56.1,
        "duration": 0.15,
        "velocity": 1,
        "hand": "left"
      },
      {
        "midi": 67,
        "time": 56.1,
        "duration": 0.15,
        "velocity": 0.87,
        "hand": "right"
      },
      {
        "midi": 72,
        "time": 56.1,
        "duration": 0.075,
        "velocity": 1,
        "hand": "right"
      },
      {
        "midi": 76,
        "time": 56.1,
        "duration": 0.075,
        "velocity": 0.99,
        "hand": "right"
      },
      {
        "midi": 66,
        "time": 56.25,
        "duration": 0.15,
        "velocity": 1,
        "hand": "right"
      },
      {
        "midi": 38,
        "time": 56.4,
        "duration": 0.15,
        "velocity": 0.63,
        "hand": "left"
      },
      {
        "midi": 43,
        "time": 56.4,
        "duration": 1.2,
        "velocity": 1,
        "hand": "left"
      },
      {
        "midi": 44,
        "time": 56.4,
        "duration": 0.075,
        "velocity": 0.63,
        "hand": "left"
      },
      {
        "midi": 67,
        "time": 56.4,
        "duration": 0.75,
        "velocity": 1,
        "hand": "right"
      },
      {
        "midi": 67,
        "time": 56.4,
        "duration": 0.6,
        "velocity": 1,
        "hand": "right"
      },
      {
        "midi": 71,
        "time": 56.4,
        "duration": 0.15,
        "velocity": 1,
        "hand": "right"
      },
      {
        "midi": 74,
        "time": 56.4,
        "duration": 0.6,
        "velocity": 1,
        "hand": "right"
      },
      {
        "midi": 44,
        "time": 56.7,
        "duration": 0.15,
        "velocity": 0.63,
        "hand": "left"
      },
      {
        "midi": 59,
        "time": 56.7,
        "duration": 0.15,
        "velocity": 0.63,
        "hand": "left"
      },
      {
        "midi": 62,
        "time": 56.7,
        "duration": 0.3,
        "velocity": 0.99,
        "hand": "right"
      },
      {
        "midi": 71,
        "time": 56.7,
        "duration": 0.15,
        "velocity": 0.7,
        "hand": "right"
      },
      {
        "midi": 95,
        "time": 56.7,
        "duration": 0.15,
        "velocity": 0.76,
        "hand": "right"
      },
      {
        "midi": 60,
        "time": 56.85,
        "duration": 0.15,
        "velocity": 0.63,
        "hand": "right"
      },
      {
        "midi": 91,
        "time": 56.85,
        "duration": 0.15,
        "velocity": 0.91,
        "hand": "right"
      },
      {
        "midi": 44,
        "time": 57,
        "duration": 0.15,
        "velocity": 0.63,
        "hand": "left"
      },
      {
        "midi": 59,
        "time": 57,
        "duration": 0.3,
        "velocity": 0.89,
        "hand": "left"
      },
      {
        "midi": 61,
        "time": 57,
        "duration": 0.15,
        "velocity": 0.63,
        "hand": "right"
      },
      {
        "midi": 62,
        "time": 57,
        "duration": 0.3,
        "velocity": 0.79,
        "hand": "right"
      },
      {
        "midi": 72,
        "time": 57,
        "duration": 0.15,
        "velocity": 1,
        "hand": "right"
      },
      {
        "midi": 86,
        "time": 57,
        "duration": 0.15,
        "velocity": 0.92,
        "hand": "right"
      },
      {
        "midi": 44,
        "time": 57.3,
        "duration": 0.075,
        "velocity": 0.63,
        "hand": "left"
      },
      {
        "midi": 55,
        "time": 57.3,
        "duration": 0.3,
        "velocity": 1,
        "hand": "left"
      },
      {
        "midi": 61,
        "time": 57.3,
        "duration": 0.3,
        "velocity": 0.79,
        "hand": "right"
      },
      {
        "midi": 62,
        "time": 57.3,
        "duration": 0.075,
        "velocity": 0.63,
        "hand": "right"
      },
      {
        "midi": 67,
        "time": 57.3,
        "duration": 0.075,
        "velocity": 0.97,
        "hand": "right"
      },
      {
        "midi": 74,
        "time": 57.3,
        "duration": 0.15,
        "velocity": 0.97,
        "hand": "right"
      },
      {
        "midi": 91,
        "time": 57.3,
        "duration": 0.3,
        "velocity": 0.92,
        "hand": "right"
      },
      {
        "midi": 38,
        "time": 57.6,
        "duration": 0.15,
        "velocity": 0.63,
        "hand": "left"
      },
      {
        "midi": 44,
        "time": 57.6,
        "duration": 0.15,
        "velocity": 0.63,
        "hand": "left"
      },
      {
        "midi": 50,
        "time": 57.6,
        "duration": 0.6,
        "velocity": 1,
        "hand": "left"
      },
      {
        "midi": 50,
        "time": 57.6,
        "duration": 1.8,
        "velocity": 1,
        "hand": "left"
      },
      {
        "midi": 51,
        "time": 57.6,
        "duration": 0.15,
        "velocity": 0.63,
        "hand": "left"
      },
      {
        "midi": 60,
        "time": 57.6,
        "duration": 1.5,
        "velocity": 0.79,
        "hand": "right"
      },
      {
        "midi": 66,
        "time": 57.6,
        "duration": 0.15,
        "velocity": 1,
        "hand": "right"
      },
      {
        "midi": 69,
        "time": 57.6,
        "duration": 1.35,
        "velocity": 0.63,
        "hand": "right"
      },
      {
        "midi": 72,
        "time": 57.6,
        "duration": 0.15,
        "velocity": 1,
        "hand": "right"
      },
      {
        "midi": 74,
        "time": 57.6,
        "duration": 0.075,
        "velocity": 1,
        "hand": "right"
      },
      {
        "midi": 90,
        "time": 57.6,
        "duration": 1.35,
        "velocity": 0.92,
        "hand": "right"
      },
      {
        "midi": 42,
        "time": 57.9,
        "duration": 0.075,
        "velocity": 0.63,
        "hand": "left"
      },
      {
        "midi": 46,
        "time": 57.9,
        "duration": 0.075,
        "velocity": 0.63,
        "hand": "left"
      },
      {
        "midi": 66,
        "time": 57.9,
        "duration": 0.075,
        "velocity": 0.94,
        "hand": "right"
      },
      {
        "midi": 72,
        "time": 57.9,
        "duration": 0.075,
        "velocity": 1,
        "hand": "right"
      },
      {
        "midi": 74,
        "time": 57.9,
        "duration": 0.075,
        "velocity": 0.94,
        "hand": "right"
      },
      {
        "midi": 66,
        "time": 58.05,
        "duration": 0.075,
        "velocity": 0.68,
        "hand": "right"
      },
      {
        "midi": 72,
        "time": 58.05,
        "duration": 0.075,
        "velocity": 1,
        "hand": "right"
      },
      {
        "midi": 74,
        "time": 58.05,
        "duration": 0.075,
        "velocity": 0.87,
        "hand": "right"
      },
      {
        "midi": 38,
        "time": 58.2,
        "duration": 0.6,
        "velocity": 1,
        "hand": "left"
      },
      {
        "midi": 38,
        "time": 58.2,
        "duration": 0.3,
        "velocity": 0.63,
        "hand": "left"
      },
      {
        "midi": 44,
        "time": 58.2,
        "duration": 0.15,
        "velocity": 0.63,
        "hand": "left"
      },
      {
        "midi": 66,
        "time": 58.2,
        "duration": 0.075,
        "velocity": 0.85,
        "hand": "right"
      },
      {
        "midi": 72,
        "time": 58.2,
        "duration": 0.075,
        "velocity": 1,
        "hand": "right"
      },
      {
        "midi": 74,
        "time": 58.2,
        "duration": 0.075,
        "velocity": 1,
        "hand": "right"
      },
      {
        "midi": 42,
        "time": 58.5,
        "duration": 0.15,
        "velocity": 0.63,
        "hand": "left"
      },
      {
        "midi": 46,
        "time": 58.5,
        "duration": 0.075,
        "velocity": 0.63,
        "hand": "left"
      },
      {
        "midi": 66,
        "time": 58.5,
        "duration": 0.075,
        "velocity": 1,
        "hand": "right"
      },
      {
        "midi": 72,
        "time": 58.5,
        "duration": 0.075,
        "velocity": 1,
        "hand": "right"
      },
      {
        "midi": 76,
        "time": 58.5,
        "duration": 0.075,
        "velocity": 1,
        "hand": "right"
      },
      {
        "midi": 38,
        "time": 58.8,
        "duration": 0.3,
        "velocity": 0.63,
        "hand": "left"
      },
      {
        "midi": 44,
        "time": 58.8,
        "duration": 0.15,
        "velocity": 0.63,
        "hand": "left"
      },
      {
        "midi": 50,
        "time": 58.8,
        "duration": 0.75,
        "velocity": 1,
        "hand": "left"
      },
      {
        "midi": 51,
        "time": 58.8,
        "duration": 0.9,
        "velocity": 0.63,
        "hand": "left"
      },
      {
        "midi": 66,
        "time": 58.8,
        "duration": 0.3,
        "velocity": 1,
        "hand": "right"
      },
      {
        "midi": 72,
        "time": 58.8,
        "duration": 0.3,
        "velocity": 1,
        "hand": "right"
      },
      {
        "midi": 74,
        "time": 58.8,
        "duration": 0.3,
        "velocity": 1,
        "hand": "right"
      },
      {
        "midi": 42,
        "time": 59.1,
        "duration": 0.15,
        "velocity": 0.63,
        "hand": "left"
      },
      {
        "midi": 46,
        "time": 59.1,
        "duration": 0.15,
        "velocity": 0.63,
        "hand": "left"
      },
      {
        "midi": 64,
        "time": 59.1,
        "duration": 0.3,
        "velocity": 0.79,
        "hand": "right"
      },
      {
        "midi": 72,
        "time": 59.1,
        "duration": 0.15,
        "velocity": 0.63,
        "hand": "right"
      },
      {
        "midi": 96,
        "time": 59.1,
        "duration": 0.15,
        "velocity": 0.92,
        "hand": "right"
      },
      {
        "midi": 71,
        "time": 59.25,
        "duration": 0.075,
        "velocity": 0.63,
        "hand": "right"
      },
      {
        "midi": 95,
        "time": 59.25,
        "duration": 0.075,
        "velocity": 0.62,
        "hand": "right"
      },
      {
        "midi": 38,
        "time": 59.4,
        "duration": 0.3,
        "velocity": 0.63,
        "hand": "left"
      },
      {
        "midi": 42,
        "time": 59.4,
        "duration": 0.6,
        "velocity": 1,
        "hand": "left"
      },
      {
        "midi": 44,
        "time": 59.4,
        "duration": 0.15,
        "velocity": 0.63,
        "hand": "left"
      },
      {
        "midi": 52,
        "time": 59.4,
        "duration": 0.3,
        "velocity": 0.99,
        "hand": "left"
      },
      {
        "midi": 62,
        "time": 59.4,
        "duration": 0.3,
        "velocity": 0.79,
        "hand": "right"
      },
      {
        "midi": 66,
        "time": 59.4,
        "duration": 0.45,
        "velocity": 1,
        "hand": "right"
      },
      {
        "midi": 71,
        "time": 59.4,
        "duration": 0.15,
        "velocity": 0.63,
        "hand": "right"
      },
      {
        "midi": 72,
        "time": 59.4,
        "duration": 0.45,
        "velocity": 1,
        "hand": "right"
      },
      {
        "midi": 72,
        "time": 59.4,
        "duration": 0.15,
        "velocity": 0.63,
        "hand": "right"
      },
      {
        "midi": 74,
        "time": 59.4,
        "duration": 0.3,
        "velocity": 1,
        "hand": "right"
      },
      {
        "midi": 95,
        "time": 59.4,
        "duration": 0.3,
        "velocity": 0.81,
        "hand": "right"
      },
      {
        "midi": 96,
        "time": 59.4,
        "duration": 0.15,
        "velocity": 0.71,
        "hand": "right"
      },
      {
        "midi": 97,
        "time": 59.4,
        "duration": 0.15,
        "velocity": 0.65,
        "hand": "right"
      },
      {
        "midi": 42,
        "time": 59.7,
        "duration": 0.15,
        "velocity": 0.63,
        "hand": "left"
      },
      {
        "midi": 46,
        "time": 59.7,
        "duration": 0.15,
        "velocity": 0.63,
        "hand": "left"
      },
      {
        "midi": 54,
        "time": 59.7,
        "duration": 0.3,
        "velocity": 0.98,
        "hand": "left"
      },
      {
        "midi": 60,
        "time": 59.7,
        "duration": 0.3,
        "velocity": 0.79,
        "hand": "right"
      },
      {
        "midi": 66,
        "time": 59.7,
        "duration": 0.3,
        "velocity": 0.63,
        "hand": "right"
      },
      {
        "midi": 90,
        "time": 59.7,
        "duration": 0.3,
        "velocity": 0.92,
        "hand": "right"
      },
      {
        "midi": 44,
        "time": 59.85,
        "duration": 0.075,
        "velocity": 0.63,
        "hand": "left"
      },
      {
        "midi": 46,
        "time": 59.85,
        "duration": 0.075,
        "velocity": 0.63,
        "hand": "left"
      },
      {
        "midi": 38,
        "time": 60,
        "duration": 0.15,
        "velocity": 0.63,
        "hand": "left"
      },
      {
        "midi": 43,
        "time": 60,
        "duration": 0.15,
        "velocity": 1,
        "hand": "left"
      },
      {
        "midi": 44,
        "time": 60,
        "duration": 0.15,
        "velocity": 0.63,
        "hand": "left"
      },
      {
        "midi": 51,
        "time": 60,
        "duration": 0.075,
        "velocity": 0.63,
        "hand": "left"
      },
      {
        "midi": 55,
        "time": 60,
        "duration": 0.75,
        "velocity": 0.97,
        "hand": "left"
      },
      {
        "midi": 59,
        "time": 60,
        "duration": 1.35,
        "velocity": 0.79,
        "hand": "left"
      },
      {
        "midi": 67,
        "time": 60,
        "duration": 0.075,
        "velocity": 0.99,
        "hand": "right"
      },
      {
        "midi": 69,
        "time": 60,
        "duration": 0.075,
        "velocity": 0.63,
        "hand": "right"
      },
      {
        "midi": 71,
        "time": 60,
        "duration": 0.075,
        "velocity": 1,
        "hand": "right"
      },
      {
        "midi": 74,
        "time": 60,
        "duration": 0.075,
        "velocity": 1,
        "hand": "right"
      },
      {
        "midi": 93,
        "time": 60,
        "duration": 0.15,
        "velocity": 0.84,
        "hand": "right"
      },
      {
        "midi": 67,
        "time": 60.15,
        "duration": 0.075,
        "velocity": 0.63,
        "hand": "right"
      },
      {
        "midi": 69,
        "time": 60.15,
        "duration": 0.15,
        "velocity": 0.63,
        "hand": "right"
      },
      {
        "midi": 91,
        "time": 60.15,
        "duration": 0.075,
        "velocity": 0.77,
        "hand": "right"
      },
      {
        "midi": 93,
        "time": 60.15,
        "duration": 0.15,
        "velocity": 0.8,
        "hand": "right"
      },
      {
        "midi": 42,
        "time": 60.3,
        "duration": 0.15,
        "velocity": 0.63,
        "hand": "left"
      },
      {
        "midi": 46,
        "time": 60.3,
        "duration": 0.075,
        "velocity": 0.63,
        "hand": "left"
      },
      {
        "midi": 67,
        "time": 60.3,
        "duration": 0.075,
        "velocity": 1,
        "hand": "right"
      },
      {
        "midi": 67,
        "time": 60.3,
        "duration": 0.3,
        "velocity": 0.63,
        "hand": "right"
      },
      {
        "midi": 71,
        "time": 60.3,
        "duration": 0.075,
        "velocity": 1,
        "hand": "right"
      },
      {
        "midi": 74,
        "time": 60.3,
        "duration": 0.075,
        "velocity": 1,
        "hand": "right"
      },
      {
        "midi": 91,
        "time": 60.3,
        "duration": 0.3,
        "velocity": 0.89,
        "hand": "right"
      },
      {
        "midi": 67,
        "time": 60.45,
        "duration": 0.075,
        "velocity": 0.83,
        "hand": "right"
      },
      {
        "midi": 71,
        "time": 60.45,
        "duration": 0.075,
        "velocity": 0.94,
        "hand": "right"
      },
      {
        "midi": 74,
        "time": 60.45,
        "duration": 0.075,
        "velocity": 0.94,
        "hand": "right"
      },
      {
        "midi": 38,
        "time": 60.6,
        "duration": 0.6,
        "velocity": 1,
        "hand": "left"
      },
      {
        "midi": 38,
        "time": 60.6,
        "duration": 0.3,
        "velocity": 0.63,
        "hand": "left"
      },
      {
        "midi": 44,
        "time": 60.6,
        "duration": 0.15,
        "velocity": 0.63,
        "hand": "left"
      },
      {
        "midi": 59,
        "time": 60.6,
        "duration": 1.05,
        "velocity": 0.63,
        "hand": "left"
      },
      {
        "midi": 59,
        "time": 60.6,
        "duration": 0.6,
        "velocity": 0.94,
        "hand": "left"
      },
      {
        "midi": 67,
        "time": 60.6,
        "duration": 0.075,
        "velocity": 1,
        "hand": "right"
      },
      {
        "midi": 71,
        "time": 60.6,
        "duration": 0.075,
        "velocity": 1,
        "hand": "right"
      },
      {
        "midi": 74,
        "time": 60.6,
        "duration": 0.15,
        "velocity": 1,
        "hand": "right"
      },
      {
        "midi": 83,
        "time": 60.6,
        "duration": 0.9,
        "velocity": 0.92,
        "hand": "right"
      },
      {
        "midi": 85,
        "time": 60.6,
        "duration": 0.075,
        "velocity": 0.81,
        "hand": "right"
      },
      {
        "midi": 42,
        "time": 60.9,
        "duration": 0.15,
        "velocity": 0.63,
        "hand": "left"
      },
      {
        "midi": 46,
        "time": 60.9,
        "duration": 0.075,
        "velocity": 0.63,
        "hand": "left"
      },
      {
        "midi": 67,
        "time": 60.9,
        "duration": 0.075,
        "velocity": 1,
        "hand": "right"
      },
      {
        "midi": 70,
        "time": 60.9,
        "duration": 0.075,
        "velocity": 1,
        "hand": "right"
      },
      {
        "midi": 73,
        "time": 60.9,
        "duration": 0.075,
        "velocity": 1,
        "hand": "right"
      },
      {
        "midi": 38,
        "time": 61.2,
        "duration": 0.15,
        "velocity": 0.63,
        "hand": "left"
      },
      {
        "midi": 43,
        "time": 61.2,
        "duration": 0.075,
        "velocity": 0.99,
        "hand": "left"
      },
      {
        "midi": 44,
        "time": 61.2,
        "duration": 0.15,
        "velocity": 0.63,
        "hand": "left"
      },
      {
        "midi": 50,
        "time": 61.2,
        "duration": 1.2,
        "velocity": 0.87,
        "hand": "left"
      },
      {
        "midi": 51,
        "time": 61.2,
        "duration": 0.9,
        "velocity": 0.63,
        "hand": "left"
      },
      {
        "midi": 67,
        "time": 61.2,
        "duration": 0.45,
        "velocity": 0.99,
        "hand": "right"
      },
      {
        "midi": 71,
        "time": 61.2,
        "duration": 0.45,
        "velocity": 1,
        "hand": "right"
      },
      {
        "midi": 74,
        "time": 61.2,
        "duration": 0.45,
        "velocity": 1,
        "hand": "right"
      },
      {
        "midi": 60,
        "time": 61.35,
        "duration": 0.15,
        "velocity": 0.79,
        "hand": "right"
      },
      {
        "midi": 42,
        "time": 61.5,
        "duration": 0.15,
        "velocity": 0.63,
        "hand": "left"
      },
      {
        "midi": 43,
        "time": 61.5,
        "duration": 0.3,
        "velocity": 1,
        "hand": "left"
      },
      {
        "midi": 46,
        "time": 61.5,
        "duration": 0.075,
        "velocity": 0.63,
        "hand": "left"
      },
      {
        "midi": 60,
        "time": 61.5,
        "duration": 0.3,
        "velocity": 0.63,
        "hand": "right"
      },
      {
        "midi": 61,
        "time": 61.5,
        "duration": 0.15,
        "velocity": 0.79,
        "hand": "right"
      },
      {
        "midi": 84,
        "time": 61.5,
        "duration": 0.15,
        "velocity": 0.92,
        "hand": "right"
      },
      {
        "midi": 62,
        "time": 61.65,
        "duration": 0.15,
        "velocity": 0.79,
        "hand": "right"
      },
      {
        "midi": 85,
        "time": 61.65,
        "duration": 0.15,
        "velocity": 0.81,
        "hand": "right"
      },
      {
        "midi": 38,
        "time": 61.8,
        "duration": 0.3,
        "velocity": 0.63,
        "hand": "left"
      },
      {
        "midi": 44,
        "time": 61.8,
        "duration": 0.15,
        "velocity": 0.63,
        "hand": "left"
      },
      {
        "midi": 45,
        "time": 61.8,
        "duration": 0.15,
        "velocity": 1,
        "hand": "left"
      },
      {
        "midi": 61,
        "time": 61.8,
        "duration": 0.3,
        "velocity": 0.63,
        "hand": "right"
      },
      {
        "midi": 62,
        "time": 61.8,
        "duration": 0.45,
        "velocity": 1,
        "hand": "right"
      },
      {
        "midi": 67,
        "time": 61.8,
        "duration": 0.45,
        "velocity": 1,
        "hand": "right"
      },
      {
        "midi": 69,
        "time": 61.8,
        "duration": 0.3,
        "velocity": 0.79,
        "hand": "right"
      },
      {
        "midi": 71,
        "time": 61.8,
        "duration": 0.45,
        "velocity": 1,
        "hand": "right"
      },
      {
        "midi": 88,
        "time": 61.8,
        "duration": 0.15,
        "velocity": 0.91,
        "hand": "right"
      },
      {
        "midi": 86,
        "time": 61.95,
        "duration": 0.075,
        "velocity": 0.92,
        "hand": "right"
      },
      {
        "midi": 42,
        "time": 62.1,
        "duration": 0.15,
        "velocity": 0.63,
        "hand": "left"
      },
      {
        "midi": 46,
        "time": 62.1,
        "duration": 0.15,
        "velocity": 0.63,
        "hand": "left"
      },
      {
        "midi": 47,
        "time": 62.1,
        "duration": 0.15,
        "velocity": 1,
        "hand": "left"
      },
      {
        "midi": 64,
        "time": 62.1,
        "duration": 0.3,
        "velocity": 0.63,
        "hand": "right"
      },
      {
        "midi": 67,
        "time": 62.1,
        "duration": 0.3,
        "velocity": 0.79,
        "hand": "right"
      },
      {
        "midi": 86,
        "time": 62.1,
        "duration": 0.45,
        "velocity": 0.71,
        "hand": "right"
      },
      {
        "midi": 88,
        "time": 62.1,
        "duration": 0.15,
        "velocity": 0.5,
        "hand": "right"
      },
      {
        "midi": 44,
        "time": 62.25,
        "duration": 0.075,
        "velocity": 0.63,
        "hand": "left"
      },
      {
        "midi": 46,
        "time": 62.25,
        "duration": 0.075,
        "velocity": 0.63,
        "hand": "left"
      },
      {
        "midi": 38,
        "time": 62.4,
        "duration": 0.15,
        "velocity": 0.63,
        "hand": "left"
      },
      {
        "midi": 44,
        "time": 62.4,
        "duration": 0.15,
        "velocity": 0.63,
        "hand": "left"
      },
      {
        "midi": 50,
        "time": 62.4,
        "duration": 0.75,
        "velocity": 1,
        "hand": "left"
      },
      {
        "midi": 51,
        "time": 62.4,
        "duration": 1.05,
        "velocity": 0.63,
        "hand": "left"
      },
      {
        "midi": 54,
        "time": 62.4,
        "duration": 0.6,
        "velocity": 0.96,
        "hand": "left"
      },
      {
        "midi": 62,
        "time": 62.4,
        "duration": 0.3,
        "velocity": 0.63,
        "hand": "right"
      },
      {
        "midi": 66,
        "time": 62.4,
        "duration": 0.075,
        "velocity": 0.89,
        "hand": "right"
      },
      {
        "midi": 66,
        "time": 62.4,
        "duration": 1.2,
        "velocity": 0.79,
        "hand": "right"
      },
      {
        "midi": 70,
        "time": 62.4,
        "duration": 0.075,
        "velocity": 0.82,
        "hand": "right"
      },
      {
        "midi": 72,
        "time": 62.4,
        "duration": 0.075,
        "velocity": 1,
        "hand": "right"
      },
      {
        "midi": 73,
        "time": 62.4,
        "duration": 0.075,
        "velocity": 0.92,
        "hand": "right"
      },
      {
        "midi": 74,
        "time": 62.4,
        "duration": 0.075,
        "velocity": 1,
        "hand": "right"
      },
      {
        "midi": 84,
        "time": 62.4,
        "duration": 0.3,
        "velocity": 0.92,
        "hand": "right"
      },
      {
        "midi": 42,
        "time": 62.7,
        "duration": 0.15,
        "velocity": 0.63,
        "hand": "left"
      },
      {
        "midi": 46,
        "time": 62.7,
        "duration": 0.075,
        "velocity": 0.63,
        "hand": "left"
      },
      {
        "midi": 60,
        "time": 62.7,
        "duration": 0.3,
        "velocity": 0.63,
        "hand": "right"
      },
      {
        "midi": 66,
        "time": 62.7,
        "duration": 0.075,
        "velocity": 0.92,
        "hand": "right"
      },
      {
        "midi": 72,
        "time": 62.7,
        "duration": 0.075,
        "velocity": 1,
        "hand": "right"
      },
      {
        "midi": 74,
        "time": 62.7,
        "duration": 0.075,
        "velocity": 0.94,
        "hand": "right"
      },
      {
        "midi": 81,
        "time": 62.7,
        "duration": 0.15,
        "velocity": 0.92,
        "hand": "right"
      },
      {
        "midi": 66,
        "time": 62.85,
        "duration": 0.075,
        "velocity": 0.63,
        "hand": "right"
      },
      {
        "midi": 72,
        "time": 62.85,
        "duration": 0.075,
        "velocity": 0.96,
        "hand": "right"
      },
      {
        "midi": 74,
        "time": 62.85,
        "duration": 0.15,
        "velocity": 0.83,
        "hand": "right"
      },
      {
        "midi": 38,
        "time": 63,
        "duration": 0.6,
        "velocity": 1,
        "hand": "left"
      },
      {
        "midi": 38,
        "time": 63,
        "duration": 0.15,
        "velocity": 0.63,
        "hand": "left"
      },
      {
        "midi": 44,
        "time": 63,
        "duration": 0.15,
        "velocity": 0.63,
        "hand": "left"
      },
      {
        "midi": 52,
        "time": 63,
        "duration": 0.3,
        "velocity": 0.63,
        "hand": "left"
      },
      {
        "midi": 57,
        "time": 63,
        "duration": 0.6,
        "velocity": 0.81,
        "hand": "left"
      },
      {
        "midi": 66,
        "time": 63,
        "duration": 0.15,
        "velocity": 0.92,
        "hand": "right"
      },
      {
        "midi": 72,
        "time": 63,
        "duration": 0.15,
        "velocity": 1,
        "hand": "right"
      },
      {
        "midi": 74,
        "time": 63,
        "duration": 0.15,
        "velocity": 0.99,
        "hand": "right"
      },
      {
        "midi": 76,
        "time": 63,
        "duration": 0.3,
        "velocity": 0.92,
        "hand": "right"
      },
      {
        "midi": 42,
        "time": 63.3,
        "duration": 0.15,
        "velocity": 0.63,
        "hand": "left"
      },
      {
        "midi": 46,
        "time": 63.3,
        "duration": 0.075,
        "velocity": 0.63,
        "hand": "left"
      },
      {
        "midi": 53,
        "time": 63.3,
        "duration": 0.3,
        "velocity": 0.63,
        "hand": "left"
      },
      {
        "midi": 62,
        "time": 63.3,
        "duration": 0.075,
        "velocity": 1,
        "hand": "right"
      },
      {
        "midi": 66,
        "time": 63.3,
        "duration": 0.075,
        "velocity": 1,
        "hand": "right"
      },
      {
        "midi": 72,
        "time": 63.3,
        "duration": 0.075,
        "velocity": 1,
        "hand": "right"
      },
      {
        "midi": 78,
        "time": 63.3,
        "duration": 0.3,
        "velocity": 0.92,
        "hand": "right"
      },
      {
        "midi": 38,
        "time": 63.6,
        "duration": 0.3,
        "velocity": 0.63,
        "hand": "left"
      },
      {
        "midi": 44,
        "time": 63.6,
        "duration": 0.15,
        "velocity": 0.63,
        "hand": "left"
      },
      {
        "midi": 50,
        "time": 63.6,
        "duration": 1.2,
        "velocity": 0.89,
        "hand": "left"
      },
      {
        "midi": 51,
        "time": 63.6,
        "duration": 0.15,
        "velocity": 0.63,
        "hand": "left"
      },
      {
        "midi": 54,
        "time": 63.6,
        "duration": 0.3,
        "velocity": 0.63,
        "hand": "left"
      },
      {
        "midi": 64,
        "time": 63.6,
        "duration": 0.3,
        "velocity": 0.89,
        "hand": "right"
      },
      {
        "midi": 67,
        "time": 63.6,
        "duration": 0.3,
        "velocity": 0.94,
        "hand": "right"
      },
      {
        "midi": 68,
        "time": 63.6,
        "duration": 0.075,
        "velocity": 0.38,
        "hand": "right"
      },
      {
        "midi": 72,
        "time": 63.6,
        "duration": 0.45,
        "velocity": 1,
        "hand": "right"
      },
      {
        "midi": 83,
        "time": 63.6,
        "duration": 0.45,
        "velocity": 0.91,
        "hand": "right"
      },
      {
        "midi": 38,
        "time": 63.9,
        "duration": 0.15,
        "velocity": 1,
        "hand": "left"
      },
      {
        "midi": 42,
        "time": 63.9,
        "duration": 0.15,
        "velocity": 0.63,
        "hand": "left"
      },
      {
        "midi": 46,
        "time": 63.9,
        "duration": 0.075,
        "velocity": 0.63,
        "hand": "left"
      },
      {
        "midi": 50,
        "time": 63.9,
        "duration": 0.15,
        "velocity": 1,
        "hand": "left"
      },
      {
        "midi": 57,
        "time": 63.9,
        "duration": 0.3,
        "velocity": 0.79,
        "hand": "left"
      },
      {
        "midi": 59,
        "time": 63.9,
        "duration": 0.45,
        "velocity": 0.63,
        "hand": "left"
      },
      {
        "midi": 38,
        "time": 64.2,
        "duration": 0.3,
        "velocity": 0.63,
        "hand": "left"
      },
      {
        "midi": 40,
        "time": 64.2,
        "duration": 0.15,
        "velocity": 1,
        "hand": "left"
      },
      {
        "midi": 44,
        "time": 64.2,
        "duration": 0.15,
        "velocity": 0.63,
        "hand": "left"
      },
      {
        "midi": 48,
        "time": 64.2,
        "duration": 0.15,
        "velocity": 0.91,
        "hand": "left"
      },
      {
        "midi": 51,
        "time": 64.2,
        "duration": 0.3,
        "velocity": 0.63,
        "hand": "left"
      },
      {
        "midi": 62,
        "time": 64.2,
        "duration": 0.3,
        "velocity": 0.79,
        "hand": "right"
      },
      {
        "midi": 66,
        "time": 64.2,
        "duration": 0.3,
        "velocity": 1,
        "hand": "right"
      },
      {
        "midi": 69,
        "time": 64.2,
        "duration": 0.3,
        "velocity": 1,
        "hand": "right"
      },
      {
        "midi": 72,
        "time": 64.2,
        "duration": 0.3,
        "velocity": 1,
        "hand": "right"
      },
      {
        "midi": 81,
        "time": 64.2,
        "duration": 0.075,
        "velocity": 0.8,
        "hand": "right"
      },
      {
        "midi": 81,
        "time": 64.2,
        "duration": 0.6,
        "velocity": 0.84,
        "hand": "right"
      },
      {
        "midi": 84,
        "time": 64.2,
        "duration": 0.15,
        "velocity": 0.81,
        "hand": "right"
      },
      {
        "midi": 42,
        "time": 64.5,
        "duration": 0.15,
        "velocity": 1,
        "hand": "left"
      },
      {
        "midi": 46,
        "time": 64.5,
        "duration": 0.15,
        "velocity": 0.63,
        "hand": "left"
      },
      {
        "midi": 50,
        "time": 64.5,
        "duration": 0.15,
        "velocity": 1,
        "hand": "left"
      },
      {
        "midi": 57,
        "time": 64.5,
        "duration": 0.075,
        "velocity": 0.63,
        "hand": "left"
      },
      {
        "midi": 57,
        "time": 64.5,
        "duration": 0.3,
        "velocity": 0.63,
        "hand": "left"
      },
      {
        "midi": 59,
        "time": 64.5,
        "duration": 0.075,
        "velocity": 0.63,
        "hand": "left"
      },
      {
        "midi": 60,
        "time": 64.5,
        "duration": 0.3,
        "velocity": 0.79,
        "hand": "right"
      },
      {
        "midi": 44,
        "time": 64.65,
        "duration": 0.075,
        "velocity": 0.63,
        "hand": "left"
      },
      {
        "midi": 38,
        "time": 64.8,
        "duration": 0.3,
        "velocity": 0.63,
        "hand": "left"
      },
      {
        "midi": 43,
        "time": 64.8,
        "duration": 0.45,
        "velocity": 1,
        "hand": "left"
      },
      {
        "midi": 44,
        "time": 64.8,
        "duration": 0.075,
        "velocity": 0.63,
        "hand": "left"
      },
      {
        "midi": 46,
        "time": 64.8,
        "duration": 0.075,
        "velocity": 0.63,
        "hand": "left"
      },
      {
        "midi": 51,
        "time": 64.8,
        "duration": 1.05,
        "velocity": 0.63,
        "hand": "left"
      },
      {
        "midi": 55,
        "time": 64.8,
        "duration": 1.05,
        "velocity": 0.63,
        "hand": "left"
      },
      {
        "midi": 55,
        "time": 64.8,
        "duration": 0.6,
        "velocity": 0.99,
        "hand": "left"
      },
      {
        "midi": 59,
        "time": 64.8,
        "duration": 1.35,
        "velocity": 0.79,
        "hand": "left"
      },
      {
        "midi": 62,
        "time": 64.8,
        "duration": 0.15,
        "velocity": 0.99,
        "hand": "right"
      },
      {
        "midi": 67,
        "time": 64.8,
        "duration": 0.075,
        "velocity": 1,
        "hand": "right"
      },
      {
        "midi": 71,
        "time": 64.8,
        "duration": 0.075,
        "velocity": 0.89,
        "hand": "right"
      },
      {
        "midi": 79,
        "time": 64.8,
        "duration": 1.2,
        "velocity": 0.92,
        "hand": "right"
      },
      {
        "midi": 42,
        "time": 65.1,
        "duration": 0.15,
        "velocity": 0.63,
        "hand": "left"
      },
      {
        "midi": 46,
        "time": 65.1,
        "duration": 0.075,
        "velocity": 0.63,
        "hand": "left"
      },
      {
        "midi": 62,
        "time": 65.1,
        "duration": 0.075,
        "velocity": 1,
        "hand": "right"
      },
      {
        "midi": 67,
        "time": 65.1,
        "duration": 0.075,
        "velocity": 1,
        "hand": "right"
      },
      {
        "midi": 71,
        "time": 65.1,
        "duration": 0.075,
        "velocity": 0.94,
        "hand": "right"
      },
      {
        "midi": 62,
        "time": 65.25,
        "duration": 0.15,
        "velocity": 0.68,
        "hand": "right"
      },
      {
        "midi": 67,
        "time": 65.25,
        "duration": 0.075,
        "velocity": 0.94,
        "hand": "right"
      },
      {
        "midi": 71,
        "time": 65.25,
        "duration": 0.075,
        "velocity": 0.81,
        "hand": "right"
      },
      {
        "midi": 38,
        "time": 65.4,
        "duration": 0.45,
        "velocity": 1,
        "hand": "left"
      },
      {
        "midi": 38,
        "time": 65.4,
        "duration": 0.3,
        "velocity": 0.63,
        "hand": "left"
      },
      {
        "midi": 44,
        "time": 65.4,
        "duration": 0.15,
        "velocity": 0.63,
        "hand": "left"
      },
      {
        "midi": 50,
        "time": 65.4,
        "duration": 0.3,
        "velocity": 0.85,
        "hand": "left"
      },
      {
        "midi": 62,
        "time": 65.4,
        "duration": 0.15,
        "velocity": 0.7,
        "hand": "right"
      },
      {
        "midi": 67,
        "time": 65.4,
        "duration": 0.075,
        "velocity": 0.87,
        "hand": "right"
      },
      {
        "midi": 71,
        "time": 65.4,
        "duration": 0.15,
        "velocity": 0.85,
        "hand": "right"
      },
      {
        "midi": 42,
        "time": 65.7,
        "duration": 0.15,
        "velocity": 0.63,
        "hand": "left"
      },
      {
        "midi": 46,
        "time": 65.7,
        "duration": 0.075,
        "velocity": 0.63,
        "hand": "left"
      },
      {
        "midi": 47,
        "time": 65.7,
        "duration": 0.3,
        "velocity": 1,
        "hand": "left"
      },
      {
        "midi": 64,
        "time": 65.7,
        "duration": 0.075,
        "velocity": 0.89,
        "hand": "right"
      },
      {
        "midi": 67,
        "time": 65.7,
        "duration": 0.15,
        "velocity": 0.99,
        "hand": "right"
      },
      {
        "midi": 68,
        "time": 65.7,
        "duration": 0.075,
        "velocity": 0.72,
        "hand": "right"
      },
      {
        "midi": 72,
        "time": 65.7,
        "duration": 0.075,
        "velocity": 1,
        "hand": "right"
      },
      {
        "midi": 38,
        "time": 66,
        "duration": 0.15,
        "velocity": 0.63,
        "hand": "left"
      },
      {
        "midi": 40,
        "time": 66,
        "duration": 0.3,
        "velocity": 0.97,
        "hand": "left"
      },
      {
        "midi": 43,
        "time": 66,
        "duration": 0.45,
        "velocity": 1,
        "hand": "left"
      },
      {
        "midi": 44,
        "time": 66,
        "duration": 0.15,
        "velocity": 0.63,
        "hand": "left"
      },
      {
        "midi": 62,
        "time": 66,
        "duration": 0.3,
        "velocity": 0.94,
        "hand": "right"
      },
      {
        "midi": 62,
        "time": 66,
        "duration": 1.05,
        "velocity": 0.63,
        "hand": "right"
      },
      {
        "midi": 67,
        "time": 66,
        "duration": 0.3,
        "velocity": 1,
        "hand": "right"
      },
      {
        "midi": 71,
        "time": 66,
        "duration": 0.3,
        "velocity": 1,
        "hand": "right"
      },
      {
        "midi": 86,
        "time": 66,
        "duration": 1.05,
        "velocity": 0.92,
        "hand": "right"
      },
      {
        "midi": 46,
        "time": 66.3,
        "duration": 0.075,
        "velocity": 0.63,
        "hand": "left"
      },
      {
        "midi": 38,
        "time": 66.6,
        "duration": 0.3,
        "velocity": 0.63,
        "hand": "left"
      },
      {
        "midi": 42,
        "time": 66.6,
        "duration": 0.3,
        "velocity": 1,
        "hand": "left"
      },
      {
        "midi": 44,
        "time": 66.6,
        "duration": 0.075,
        "velocity": 0.63,
        "hand": "left"
      },
      {
        "midi": 51,
        "time": 66.6,
        "duration": 0.075,
        "velocity": 0.63,
        "hand": "left"
      },
      {
        "midi": 62,
        "time": 66.6,
        "duration": 0.15,
        "velocity": 1,
        "hand": "right"
      },
      {
        "midi": 62,
        "time": 66.6,
        "duration": 0.6,
        "velocity": 1,
        "hand": "right"
      },
      {
        "midi": 66,
        "time": 66.6,
        "duration": 0.15,
        "velocity": 1,
        "hand": "right"
      },
      {
        "midi": 69,
        "time": 66.6,
        "duration": 0.15,
        "velocity": 0.97,
        "hand": "right"
      },
      {
        "midi": 44,
        "time": 66.75,
        "duration": 0.075,
        "velocity": 0.63,
        "hand": "left"
      },
      {
        "midi": 46,
        "time": 66.75,
        "duration": 0.075,
        "velocity": 0.63,
        "hand": "left"
      },
      {
        "midi": 44,
        "time": 66.9,
        "duration": 0.075,
        "velocity": 0.63,
        "hand": "left"
      },
      {
        "midi": 46,
        "time": 66.9,
        "duration": 0.075,
        "velocity": 0.63,
        "hand": "left"
      },
      {
        "midi": 44,
        "time": 67.05,
        "duration": 0.075,
        "velocity": 0.63,
        "hand": "left"
      },
      {
        "midi": 46,
        "time": 67.05,
        "duration": 0.075,
        "velocity": 0.63,
        "hand": "left"
      },
      {
        "midi": 38,
        "time": 67.2,
        "duration": 0.15,
        "velocity": 0.63,
        "hand": "left"
      },
      {
        "midi": 43,
        "time": 67.2,
        "duration": 0.15,
        "velocity": 1,
        "hand": "left"
      },
      {
        "midi": 43,
        "time": 67.2,
        "duration": 0.9,
        "velocity": 1,
        "hand": "left"
      },
      {
        "midi": 44,
        "time": 67.2,
        "duration": 0.075,
        "velocity": 0.63,
        "hand": "left"
      },
      {
        "midi": 55,
        "time": 67.2,
        "duration": 1.2,
        "velocity": 1,
        "hand": "left"
      },
      {
        "midi": 59,
        "time": 67.2,
        "duration": 0.075,
        "velocity": 0.79,
        "hand": "left"
      },
      {
        "midi": 59,
        "time": 67.2,
        "duration": 1.5,
        "velocity": 0.63,
        "hand": "left"
      },
      {
        "midi": 59,
        "time": 67.2,
        "duration": 0.9,
        "velocity": 1,
        "hand": "left"
      },
      {
        "midi": 62,
        "time": 67.2,
        "duration": 0.075,
        "velocity": 0.87,
        "hand": "right"
      },
      {
        "midi": 67,
        "time": 67.2,
        "duration": 0.075,
        "velocity": 0.97,
        "hand": "right"
      },
      {
        "midi": 67,
        "time": 67.2,
        "duration": 0.9,
        "velocity": 1,
        "hand": "right"
      },
      {
        "midi": 42,
        "time": 67.5,
        "duration": 0.15,
        "velocity": 0.63,
        "hand": "left"
      },
      {
        "midi": 46,
        "time": 67.5,
        "duration": 0.075,
        "velocity": 0.63,
        "hand": "left"
      },
      {
        "midi": 50,
        "time": 67.5,
        "duration": 0.075,
        "velocity": 0.81,
        "hand": "left"
      },
      {
        "midi": 59,
        "time": 67.5,
        "duration": 0.075,
        "velocity": 0.77,
        "hand": "left"
      },
      {
        "midi": 62,
        "time": 67.5,
        "duration": 0.075,
        "velocity": 0.94,
        "hand": "right"
      },
      {
        "midi": 67,
        "time": 67.5,
        "duration": 0.075,
        "velocity": 0.89,
        "hand": "right"
      },
      {
        "midi": 59,
        "time": 67.65,
        "duration": 0.15,
        "velocity": 0.38,
        "hand": "left"
      },
      {
        "midi": 62,
        "time": 67.65,
        "duration": 0.15,
        "velocity": 0.65,
        "hand": "right"
      },
      {
        "midi": 67,
        "time": 67.65,
        "duration": 0.15,
        "velocity": 0.72,
        "hand": "right"
      },
      {
        "midi": 38,
        "time": 67.8,
        "duration": 0.3,
        "velocity": 0.91,
        "hand": "left"
      },
      {
        "midi": 44,
        "time": 67.8,
        "duration": 0.15,
        "velocity": 0.63,
        "hand": "left"
      },
      {
        "midi": 42,
        "time": 68.1,
        "duration": 0.15,
        "velocity": 0.63,
        "hand": "left"
      },
      {
        "midi": 46,
        "time": 68.1,
        "duration": 0.075,
        "velocity": 0.63,
        "hand": "left"
      },
      {
        "midi": 47,
        "time": 68.1,
        "duration": 0.3,
        "velocity": 1,
        "hand": "left"
      },
      {
        "midi": 50,
        "time": 68.1,
        "duration": 0.15,
        "velocity": 0.8,
        "hand": "left"
      },
      {
        "midi": 59,
        "time": 68.1,
        "duration": 0.075,
        "velocity": 0.85,
        "hand": "left"
      },
      {
        "midi": 62,
        "time": 68.1,
        "duration": 0.075,
        "velocity": 0.94,
        "hand": "right"
      },
      {
        "midi": 62,
        "time": 68.1,
        "duration": 0.3,
        "velocity": 1,
        "hand": "right"
      },
      {
        "midi": 67,
        "time": 68.1,
        "duration": 0.075,
        "velocity": 1,
        "hand": "right"
      },
      {
        "midi": 71,
        "time": 68.1,
        "duration": 0.3,
        "velocity": 1,
        "hand": "right"
      },
      {
        "midi": 38,
        "time": 68.4,
        "duration": 0.15,
        "velocity": 0.63,
        "hand": "left"
      },
      {
        "midi": 43,
        "time": 68.4,
        "duration": 0.15,
        "velocity": 0.86,
        "hand": "left"
      },
      {
        "midi": 44,
        "time": 68.4,
        "duration": 0.075,
        "velocity": 0.63,
        "hand": "left"
      },
      {
        "midi": 50,
        "time": 68.4,
        "duration": 0.15,
        "velocity": 0.94,
        "hand": "left"
      },
      {
        "midi": 59,
        "time": 68.4,
        "duration": 0.15,
        "velocity": 0.67,
        "hand": "left"
      },
      {
        "midi": 62,
        "time": 68.4,
        "duration": 0.075,
        "velocity": 0.68,
        "hand": "right"
      },
      {
        "midi": 67,
        "time": 68.4,
        "duration": 0.075,
        "velocity": 0.92,
        "hand": "right"
      },
      {
        "midi": 71,
        "time": 68.4,
        "duration": 0.15,
        "velocity": 1,
        "hand": "right"
      },
      {
        "midi": 74,
        "time": 68.4,
        "duration": 0.15,
        "velocity": 0.94,
        "hand": "right"
      },
      {
        "midi": 74,
        "time": 68.4,
        "duration": 0.3,
        "velocity": 1,
        "hand": "right"
      },
      {
        "midi": 42,
        "time": 68.7,
        "duration": 0.15,
        "velocity": 0.63,
        "hand": "left"
      },
      {
        "midi": 46,
        "time": 68.7,
        "duration": 0.075,
        "velocity": 0.63,
        "hand": "left"
      },
      {
        "midi": 50,
        "time": 68.7,
        "duration": 0.15,
        "velocity": 0.79,
        "hand": "left"
      },
      {
        "midi": 59,
        "time": 68.7,
        "duration": 0.075,
        "velocity": 0.76,
        "hand": "left"
      },
      {
        "midi": 60,
        "time": 68.7,
        "duration": 0.3,
        "velocity": 0.63,
        "hand": "right"
      },
      {
        "midi": 62,
        "time": 68.7,
        "duration": 0.075,
        "velocity": 0.89,
        "hand": "right"
      },
      {
        "midi": 67,
        "time": 68.7,
        "duration": 0.075,
        "velocity": 0.89,
        "hand": "right"
      },
      {
        "midi": 71,
        "time": 68.7,
        "duration": 0.15,
        "velocity": 1,
        "hand": "right"
      },
      {
        "midi": 74,
        "time": 68.7,
        "duration": 0.15,
        "velocity": 0.99,
        "hand": "right"
      },
      {
        "midi": 74,
        "time": 68.7,
        "duration": 0.3,
        "velocity": 1,
        "hand": "right"
      },
      {
        "midi": 38,
        "time": 69,
        "duration": 0.3,
        "velocity": 1,
        "hand": "left"
      },
      {
        "midi": 44,
        "time": 69,
        "duration": 0.15,
        "velocity": 0.63,
        "hand": "left"
      },
      {
        "midi": 50,
        "time": 69,
        "duration": 0.45,
        "velocity": 1,
        "hand": "left"
      },
      {
        "midi": 59,
        "time": 69,
        "duration": 0.15,
        "velocity": 0.99,
        "hand": "left"
      },
      {
        "midi": 61,
        "time": 69,
        "duration": 0.3,
        "velocity": 0.63,
        "hand": "right"
      },
      {
        "midi": 62,
        "time": 69,
        "duration": 0.075,
        "velocity": 1,
        "hand": "right"
      },
      {
        "midi": 67,
        "time": 69,
        "duration": 0.075,
        "velocity": 1,
        "hand": "right"
      },
      {
        "midi": 71,
        "time": 69,
        "duration": 0.3,
        "velocity": 1,
        "hand": "right"
      },
      {
        "midi": 74,
        "time": 69,
        "duration": 0.45,
        "velocity": 1,
        "hand": "right"
      },
      {
        "midi": 74,
        "time": 69,
        "duration": 0.3,
        "velocity": 1,
        "hand": "right"
      },
      {
        "midi": 42,
        "time": 69.3,
        "duration": 0.15,
        "velocity": 0.63,
        "hand": "left"
      },
      {
        "midi": 46,
        "time": 69.3,
        "duration": 0.075,
        "velocity": 0.63,
        "hand": "left"
      },
      {
        "midi": 50,
        "time": 69.3,
        "duration": 0.15,
        "velocity": 0.8,
        "hand": "left"
      },
      {
        "midi": 52,
        "time": 69.3,
        "duration": 0.3,
        "velocity": 1,
        "hand": "left"
      },
      {
        "midi": 59,
        "time": 69.3,
        "duration": 0.075,
        "velocity": 0.73,
        "hand": "left"
      },
      {
        "midi": 62,
        "time": 69.3,
        "duration": 0.075,
        "velocity": 0.81,
        "hand": "right"
      },
      {
        "midi": 62,
        "time": 69.3,
        "duration": 0.3,
        "velocity": 0.63,
        "hand": "right"
      },
      {
        "midi": 67,
        "time": 69.3,
        "duration": 0.075,
        "velocity": 0.94,
        "hand": "right"
      },
      {
        "midi": 72,
        "time": 69.3,
        "duration": 0.3,
        "velocity": 1,
        "hand": "right"
      },
      {
        "midi": 76,
        "time": 69.3,
        "duration": 0.3,
        "velocity": 1,
        "hand": "right"
      },
      {
        "midi": 38,
        "time": 69.6,
        "duration": 0.3,
        "velocity": 0.63,
        "hand": "left"
      },
      {
        "midi": 43,
        "time": 69.6,
        "duration": 0.3,
        "velocity": 1,
        "hand": "left"
      },
      {
        "midi": 44,
        "time": 69.6,
        "duration": 0.075,
        "velocity": 0.63,
        "hand": "left"
      },
      {
        "midi": 50,
        "time": 69.6,
        "duration": 0.9,
        "velocity": 0.89,
        "hand": "left"
      },
      {
        "midi": 59,
        "time": 69.6,
        "duration": 0.075,
        "velocity": 1,
        "hand": "left"
      },
      {
        "midi": 62,
        "time": 69.6,
        "duration": 0.075,
        "velocity": 1,
        "hand": "right"
      },
      {
        "midi": 67,
        "time": 69.6,
        "duration": 0.075,
        "velocity": 1,
        "hand": "right"
      },
      {
        "midi": 71,
        "time": 69.6,
        "duration": 0.3,
        "velocity": 0.63,
        "hand": "right"
      },
      {
        "midi": 71,
        "time": 69.6,
        "duration": 0.9,
        "velocity": 1,
        "hand": "right"
      },
      {
        "midi": 74,
        "time": 69.6,
        "duration": 0.9,
        "velocity": 0.89,
        "hand": "right"
      },
      {
        "midi": 42,
        "time": 69.9,
        "duration": 0.15,
        "velocity": 0.63,
        "hand": "left"
      },
      {
        "midi": 46,
        "time": 69.9,
        "duration": 0.075,
        "velocity": 0.63,
        "hand": "left"
      },
      {
        "midi": 50,
        "time": 69.9,
        "duration": 0.15,
        "velocity": 0.83,
        "hand": "left"
      },
      {
        "midi": 59,
        "time": 69.9,
        "duration": 0.075,
        "velocity": 0.89,
        "hand": "left"
      },
      {
        "midi": 62,
        "time": 69.9,
        "duration": 0.075,
        "velocity": 1,
        "hand": "right"
      },
      {
        "midi": 67,
        "time": 69.9,
        "duration": 0.075,
        "velocity": 0.94,
        "hand": "right"
      },
      {
        "midi": 67,
        "time": 69.9,
        "duration": 0.3,
        "velocity": 0.63,
        "hand": "right"
      },
      {
        "midi": 91,
        "time": 69.9,
        "duration": 0.075,
        "velocity": 0.92,
        "hand": "right"
      },
      {
        "midi": 91,
        "time": 69.9,
        "duration": 0.15,
        "velocity": 0.81,
        "hand": "right"
      },
      {
        "midi": 93,
        "time": 69.9,
        "duration": 0.15,
        "velocity": 0.87,
        "hand": "right"
      },
      {
        "midi": 59,
        "time": 70.05,
        "duration": 0.075,
        "velocity": 0.72,
        "hand": "left"
      },
      {
        "midi": 62,
        "time": 70.05,
        "duration": 0.075,
        "velocity": 0.89,
        "hand": "right"
      },
      {
        "midi": 67,
        "time": 70.05,
        "duration": 0.075,
        "velocity": 0.92,
        "hand": "right"
      },
      {
        "midi": 67,
        "time": 70.05,
        "duration": 0.15,
        "velocity": 0.87,
        "hand": "right"
      },
      {
        "midi": 90,
        "time": 70.05,
        "duration": 0.15,
        "velocity": 0.92,
        "hand": "right"
      },
      {
        "midi": 91,
        "time": 70.05,
        "duration": 0.075,
        "velocity": 0.89,
        "hand": "right"
      },
      {
        "midi": 38,
        "time": 70.2,
        "duration": 0.3,
        "velocity": 1,
        "hand": "left"
      },
      {
        "midi": 44,
        "time": 70.2,
        "duration": 0.075,
        "velocity": 0.63,
        "hand": "left"
      },
      {
        "midi": 59,
        "time": 70.2,
        "duration": 0.075,
        "velocity": 0.77,
        "hand": "left"
      },
      {
        "midi": 62,
        "time": 70.2,
        "duration": 0.075,
        "velocity": 0.81,
        "hand": "right"
      },
      {
        "midi": 62,
        "time": 70.2,
        "duration": 1.65,
        "velocity": 0.63,
        "hand": "right"
      },
      {
        "midi": 86,
        "time": 70.35,
        "duration": 0.075,
        "velocity": 0.92,
        "hand": "right"
      },
      {
        "midi": 42,
        "time": 70.5,
        "duration": 0.15,
        "velocity": 0.63,
        "hand": "left"
      },
      {
        "midi": 46,
        "time": 70.5,
        "duration": 0.075,
        "velocity": 0.63,
        "hand": "left"
      },
      {
        "midi": 47,
        "time": 70.5,
        "duration": 0.3,
        "velocity": 1,
        "hand": "left"
      },
      {
        "midi": 50,
        "time": 70.5,
        "duration": 0.15,
        "velocity": 0.83,
        "hand": "left"
      },
      {
        "midi": 59,
        "time": 70.5,
        "duration": 0.075,
        "velocity": 1,
        "hand": "left"
      },
      {
        "midi": 62,
        "time": 70.5,
        "duration": 0.075,
        "velocity": 1,
        "hand": "right"
      },
      {
        "midi": 67,
        "time": 70.5,
        "duration": 0.075,
        "velocity": 1,
        "hand": "right"
      },
      {
        "midi": 67,
        "time": 70.5,
        "duration": 0.3,
        "velocity": 1,
        "hand": "right"
      },
      {
        "midi": 71,
        "time": 70.5,
        "duration": 0.3,
        "velocity": 1,
        "hand": "right"
      },
      {
        "midi": 38,
        "time": 70.8,
        "duration": 0.15,
        "velocity": 0.63,
        "hand": "left"
      },
      {
        "midi": 43,
        "time": 70.8,
        "duration": 0.15,
        "velocity": 0.91,
        "hand": "left"
      },
      {
        "midi": 43,
        "time": 70.8,
        "duration": 1.05,
        "velocity": 1,
        "hand": "left"
      },
      {
        "midi": 44,
        "time": 70.8,
        "duration": 0.15,
        "velocity": 0.63,
        "hand": "left"
      },
      {
        "midi": 59,
        "time": 70.8,
        "duration": 0.075,
        "velocity": 0.89,
        "hand": "left"
      },
      {
        "midi": 62,
        "time": 70.8,
        "duration": 0.075,
        "velocity": 0.99,
        "hand": "right"
      },
      {
        "midi": 62,
        "time": 70.8,
        "duration": 1.05,
        "velocity": 1,
        "hand": "right"
      },
      {
        "midi": 67,
        "time": 70.8,
        "duration": 0.075,
        "velocity": 0.97,
        "hand": "right"
      },
      {
        "midi": 67,
        "time": 70.8,
        "duration": 1.05,
        "velocity": 1,
        "hand": "right"
      },
      {
        "midi": 83,
        "time": 70.8,
        "duration": 0.3,
        "velocity": 0.92,
        "hand": "right"
      },
      {
        "midi": 42,
        "time": 71.1,
        "duration": 0.15,
        "velocity": 0.63,
        "hand": "left"
      },
      {
        "midi": 46,
        "time": 71.1,
        "duration": 0.075,
        "velocity": 0.63,
        "hand": "left"
      },
      {
        "midi": 50,
        "time": 71.1,
        "duration": 0.15,
        "velocity": 0.8,
        "hand": "left"
      },
      {
        "midi": 59,
        "time": 71.1,
        "duration": 0.075,
        "velocity": 0.87,
        "hand": "left"
      },
      {
        "midi": 62,
        "time": 71.1,
        "duration": 0.075,
        "velocity": 1,
        "hand": "right"
      },
      {
        "midi": 67,
        "time": 71.1,
        "duration": 0.075,
        "velocity": 0.97,
        "hand": "right"
      },
      {
        "midi": 84,
        "time": 71.1,
        "duration": 0.3,
        "velocity": 0.92,
        "hand": "right"
      },
      {
        "midi": 38,
        "time": 71.4,
        "duration": 0.3,
        "velocity": 1,
        "hand": "left"
      },
      {
        "midi": 44,
        "time": 71.4,
        "duration": 0.15,
        "velocity": 0.63,
        "hand": "left"
      },
      {
        "midi": 59,
        "time": 71.4,
        "duration": 0.15,
        "velocity": 1,
        "hand": "left"
      },
      {
        "midi": 62,
        "time": 71.4,
        "duration": 0.15,
        "velocity": 1,
        "hand": "right"
      },
      {
        "midi": 67,
        "time": 71.4,
        "duration": 0.15,
        "velocity": 1,
        "hand": "right"
      },
      {
        "midi": 85,
        "time": 71.4,
        "duration": 0.3,
        "velocity": 0.92,
        "hand": "right"
      },
      {
        "midi": 42,
        "time": 71.7,
        "duration": 0.15,
        "velocity": 0.63,
        "hand": "left"
      },
      {
        "midi": 46,
        "time": 71.7,
        "duration": 0.075,
        "velocity": 0.63,
        "hand": "left"
      },
      {
        "midi": 50,
        "time": 71.7,
        "duration": 0.15,
        "velocity": 0.72,
        "hand": "left"
      },
      {
        "midi": 59,
        "time": 71.7,
        "duration": 0.15,
        "velocity": 0.85,
        "hand": "left"
      },
      {
        "midi": 62,
        "time": 71.7,
        "duration": 0.15,
        "velocity": 0.92,
        "hand": "right"
      },
      {
        "midi": 67,
        "time": 71.7,
        "duration": 0.15,
        "velocity": 0.99,
        "hand": "right"
      },
      {
        "midi": 86,
        "time": 71.7,
        "duration": 0.3,
        "velocity": 0.89,
        "hand": "right"
      },
      {
        "midi": 38,
        "time": 72,
        "duration": 0.3,
        "velocity": 0.63,
        "hand": "left"
      },
      {
        "midi": 43,
        "time": 72,
        "duration": 0.3,
        "velocity": 1,
        "hand": "left"
      },
      {
        "midi": 43,
        "time": 72,
        "duration": 0.9,
        "velocity": 1,
        "hand": "left"
      },
      {
        "midi": 44,
        "time": 72,
        "duration": 0.075,
        "velocity": 0.63,
        "hand": "left"
      },
      {
        "midi": 59,
        "time": 72,
        "duration": 0.075,
        "velocity": 1,
        "hand": "left"
      },
      {
        "midi": 59,
        "time": 72,
        "duration": 0.9,
        "velocity": 1,
        "hand": "left"
      },
      {
        "midi": 62,
        "time": 72,
        "duration": 0.075,
        "velocity": 1,
        "hand": "right"
      },
      {
        "midi": 67,
        "time": 72,
        "duration": 0.15,
        "velocity": 1,
        "hand": "right"
      },
      {
        "midi": 67,
        "time": 72,
        "duration": 0.3,
        "velocity": 0.63,
        "hand": "right"
      },
      {
        "midi": 67,
        "time": 72,
        "duration": 0.9,
        "velocity": 1,
        "hand": "right"
      },
      {
        "midi": 79,
        "time": 72,
        "duration": 0.6,
        "velocity": 0.92,
        "hand": "right"
      },
      {
        "midi": 42,
        "time": 72.3,
        "duration": 0.15,
        "velocity": 0.63,
        "hand": "left"
      },
      {
        "midi": 46,
        "time": 72.3,
        "duration": 0.075,
        "velocity": 0.63,
        "hand": "left"
      },
      {
        "midi": 50,
        "time": 72.3,
        "duration": 0.15,
        "velocity": 0.87,
        "hand": "left"
      },
      {
        "midi": 59,
        "time": 72.3,
        "duration": 0.075,
        "velocity": 0.99,
        "hand": "left"
      },
      {
        "midi": 59,
        "time": 72.3,
        "duration": 0.45,
        "velocity": 0.63,
        "hand": "left"
      },
      {
        "midi": 62,
        "time": 72.3,
        "duration": 0.075,
        "velocity": 1,
        "hand": "right"
      },
      {
        "midi": 67,
        "time": 72.3,
        "duration": 0.075,
        "velocity": 0.97,
        "hand": "right"
      },
      {
        "midi": 59,
        "time": 72.45,
        "duration": 0.075,
        "velocity": 0.57,
        "hand": "left"
      },
      {
        "midi": 62,
        "time": 72.45,
        "duration": 0.075,
        "velocity": 0.85,
        "hand": "right"
      },
      {
        "midi": 67,
        "time": 72.45,
        "duration": 0.075,
        "velocity": 0.85,
        "hand": "right"
      },
      {
        "midi": 38,
        "time": 72.6,
        "duration": 0.3,
        "velocity": 1,
        "hand": "left"
      },
      {
        "midi": 44,
        "time": 72.6,
        "duration": 0.3,
        "velocity": 0.63,
        "hand": "left"
      },
      {
        "midi": 59,
        "time": 72.6,
        "duration": 0.15,
        "velocity": 0.81,
        "hand": "left"
      },
      {
        "midi": 60,
        "time": 72.6,
        "duration": 0.3,
        "velocity": 0.63,
        "hand": "right"
      },
      {
        "midi": 62,
        "time": 72.6,
        "duration": 0.075,
        "velocity": 0.99,
        "hand": "right"
      },
      {
        "midi": 67,
        "time": 72.6,
        "duration": 0.15,
        "velocity": 0.97,
        "hand": "right"
      },
      {
        "midi": 42,
        "time": 72.9,
        "duration": 0.15,
        "velocity": 0.63,
        "hand": "left"
      },
      {
        "midi": 46,
        "time": 72.9,
        "duration": 0.15,
        "velocity": 0.63,
        "hand": "left"
      },
      {
        "midi": 47,
        "time": 72.9,
        "duration": 0.3,
        "velocity": 1,
        "hand": "left"
      },
      {
        "midi": 50,
        "time": 72.9,
        "duration": 0.15,
        "velocity": 0.77,
        "hand": "left"
      },
      {
        "midi": 59,
        "time": 72.9,
        "duration": 0.075,
        "velocity": 0.99,
        "hand": "left"
      },
      {
        "midi": 61,
        "time": 72.9,
        "duration": 0.3,
        "velocity": 0.63,
        "hand": "right"
      },
      {
        "midi": 62,
        "time": 72.9,
        "duration": 0.075,
        "velocity": 1,
        "hand": "right"
      },
      {
        "midi": 62,
        "time": 72.9,
        "duration": 0.3,
        "velocity": 1,
        "hand": "right"
      },
      {
        "midi": 67,
        "time": 72.9,
        "duration": 0.075,
        "velocity": 1,
        "hand": "right"
      },
      {
        "midi": 71,
        "time": 72.9,
        "duration": 0.3,
        "velocity": 1,
        "hand": "right"
      },
      {
        "midi": 38,
        "time": 73.2,
        "duration": 0.15,
        "velocity": 0.63,
        "hand": "left"
      },
      {
        "midi": 43,
        "time": 73.2,
        "duration": 0.15,
        "velocity": 0.87,
        "hand": "left"
      },
      {
        "midi": 44,
        "time": 73.2,
        "duration": 0.075,
        "velocity": 0.63,
        "hand": "left"
      },
      {
        "midi": 50,
        "time": 73.2,
        "duration": 0.15,
        "velocity": 1,
        "hand": "left"
      },
      {
        "midi": 59,
        "time": 73.2,
        "duration": 0.075,
        "velocity": 0.92,
        "hand": "left"
      },
      {
        "midi": 62,
        "time": 73.2,
        "duration": 0.15,
        "velocity": 1,
        "hand": "right"
      },
      {
        "midi": 67,
        "time": 73.2,
        "duration": 0.15,
        "velocity": 0.94,
        "hand": "right"
      },
      {
        "midi": 71,
        "time": 73.2,
        "duration": 0.15,
        "velocity": 1,
        "hand": "right"
      },
      {
        "midi": 74,
        "time": 73.2,
        "duration": 0.15,
        "velocity": 1,
        "hand": "right"
      },
      {
        "midi": 42,
        "time": 73.5,
        "duration": 0.15,
        "velocity": 0.63,
        "hand": "left"
      },
      {
        "midi": 46,
        "time": 73.5,
        "duration": 0.075,
        "velocity": 0.63,
        "hand": "left"
      },
      {
        "midi": 50,
        "time": 73.5,
        "duration": 0.15,
        "velocity": 0.89,
        "hand": "left"
      },
      {
        "midi": 50,
        "time": 73.5,
        "duration": 0.45,
        "velocity": 1,
        "hand": "left"
      },
      {
        "midi": 59,
        "time": 73.5,
        "duration": 0.075,
        "velocity": 0.94,
        "hand": "left"
      },
      {
        "midi": 62,
        "time": 73.5,
        "duration": 0.075,
        "velocity": 1,
        "hand": "right"
      },
      {
        "midi": 67,
        "time": 73.5,
        "duration": 0.075,
        "velocity": 1,
        "hand": "right"
      },
      {
        "midi": 71,
        "time": 73.5,
        "duration": 0.3,
        "velocity": 1,
        "hand": "right"
      },
      {
        "midi": 74,
        "time": 73.5,
        "duration": 0.45,
        "velocity": 1,
        "hand": "right"
      },
      {
        "midi": 38,
        "time": 73.8,
        "duration": 0.3,
        "velocity": 1,
        "hand": "left"
      },
      {
        "midi": 44,
        "time": 73.8,
        "duration": 0.15,
        "velocity": 0.63,
        "hand": "left"
      },
      {
        "midi": 48,
        "time": 73.8,
        "duration": 0.3,
        "velocity": 1,
        "hand": "left"
      },
      {
        "midi": 55,
        "time": 73.8,
        "duration": 0.45,
        "velocity": 0.63,
        "hand": "left"
      },
      {
        "midi": 58,
        "time": 73.8,
        "duration": 0.075,
        "velocity": 0.63,
        "hand": "left"
      },
      {
        "midi": 59,
        "time": 73.8,
        "duration": 0.075,
        "velocity": 1,
        "hand": "left"
      },
      {
        "midi": 62,
        "time": 73.8,
        "duration": 0.15,
        "velocity": 1,
        "hand": "right"
      },
      {
        "midi": 67,
        "time": 73.8,
        "duration": 0.075,
        "velocity": 1,
        "hand": "right"
      },
      {
        "midi": 69,
        "time": 73.8,
        "duration": 0.3,
        "velocity": 1,
        "hand": "right"
      },
      {
        "midi": 72,
        "time": 73.8,
        "duration": 0.3,
        "velocity": 1,
        "hand": "right"
      },
      {
        "midi": 42,
        "time": 74.1,
        "duration": 0.15,
        "velocity": 0.63,
        "hand": "left"
      },
      {
        "midi": 46,
        "time": 74.1,
        "duration": 0.15,
        "velocity": 0.63,
        "hand": "left"
      },
      {
        "midi": 47,
        "time": 74.1,
        "duration": 0.3,
        "velocity": 1,
        "hand": "left"
      },
      {
        "midi": 50,
        "time": 74.1,
        "duration": 0.15,
        "velocity": 1,
        "hand": "left"
      },
      {
        "midi": 59,
        "time": 74.1,
        "duration": 0.15,
        "velocity": 0.97,
        "hand": "left"
      },
      {
        "midi": 62,
        "time": 74.1,
        "duration": 0.075,
        "velocity": 1,
        "hand": "right"
      },
      {
        "midi": 67,
        "time": 74.1,
        "duration": 0.15,
        "velocity": 1,
        "hand": "right"
      },
      {
        "midi": 67,
        "time": 74.1,
        "duration": 0.3,
        "velocity": 1,
        "hand": "right"
      },
      {
        "midi": 71,
        "time": 74.1,
        "duration": 0.3,
        "velocity": 1,
        "hand": "right"
      },
      {
        "midi": 44,
        "time": 74.25,
        "duration": 0.075,
        "velocity": 0.63,
        "hand": "left"
      },
      {
        "midi": 46,
        "time": 74.25,
        "duration": 0.075,
        "velocity": 0.63,
        "hand": "left"
      },
      {
        "midi": 56,
        "time": 74.25,
        "duration": 0.15,
        "velocity": 0.63,
        "hand": "left"
      },
      {
        "midi": 38,
        "time": 74.4,
        "duration": 0.15,
        "velocity": 0.63,
        "hand": "left"
      },
      {
        "midi": 42,
        "time": 74.4,
        "duration": 0.15,
        "velocity": 1,
        "hand": "left"
      },
      {
        "midi": 44,
        "time": 74.4,
        "duration": 0.15,
        "velocity": 0.63,
        "hand": "left"
      },
      {
        "midi": 45,
        "time": 74.4,
        "duration": 0.15,
        "velocity": 1,
        "hand": "left"
      },
      {
        "midi": 57,
        "time": 74.4,
        "duration": 0.075,
        "velocity": 1,
        "hand": "left"
      },
      {
        "midi": 62,
        "time": 74.4,
        "duration": 0.075,
        "velocity": 1,
        "hand": "right"
      },
      {
        "midi": 66,
        "time": 74.4,
        "duration": 0.075,
        "velocity": 1,
        "hand": "right"
      },
      {
        "midi": 66,
        "time": 74.4,
        "duration": 1.05,
        "velocity": 1,
        "hand": "right"
      },
      {
        "midi": 69,
        "time": 74.4,
        "duration": 0.15,
        "velocity": 1,
        "hand": "right"
      },
      {
        "midi": 42,
        "time": 74.7,
        "duration": 0.15,
        "velocity": 0.63,
        "hand": "left"
      },
      {
        "midi": 46,
        "time": 74.7,
        "duration": 0.075,
        "velocity": 0.63,
        "hand": "left"
      },
      {
        "midi": 50,
        "time": 74.7,
        "duration": 0.075,
        "velocity": 0.99,
        "hand": "left"
      },
      {
        "midi": 50,
        "time": 74.7,
        "duration": 0.15,
        "velocity": 0.87,
        "hand": "left"
      },
      {
        "midi": 57,
        "time": 74.7,
        "duration": 0.075,
        "velocity": 1,
        "hand": "left"
      },
      {
        "midi": 62,
        "time": 74.7,
        "duration": 0.075,
        "velocity": 1,
        "hand": "right"
      },
      {
        "midi": 62,
        "time": 74.7,
        "duration": 0.15,
        "velocity": 0.63,
        "hand": "right"
      },
      {
        "midi": 66,
        "time": 74.7,
        "duration": 0.075,
        "velocity": 1,
        "hand": "right"
      },
      {
        "midi": 66,
        "time": 74.7,
        "duration": 0.15,
        "velocity": 0.94,
        "hand": "right"
      },
      {
        "midi": 74,
        "time": 74.7,
        "duration": 0.15,
        "velocity": 0.87,
        "hand": "right"
      },
      {
        "midi": 74,
        "time": 74.7,
        "duration": 0.075,
        "velocity": 1,
        "hand": "right"
      },
      {
        "midi": 90,
        "time": 74.7,
        "duration": 0.075,
        "velocity": 0.92,
        "hand": "right"
      },
      {
        "midi": 90,
        "time": 74.7,
        "duration": 0.15,
        "velocity": 0.71,
        "hand": "right"
      },
      {
        "midi": 91,
        "time": 74.7,
        "duration": 0.15,
        "velocity": 0.68,
        "hand": "right"
      },
      {
        "midi": 50,
        "time": 74.85,
        "duration": 0.15,
        "velocity": 0.89,
        "hand": "left"
      },
      {
        "midi": 57,
        "time": 74.85,
        "duration": 0.075,
        "velocity": 0.81,
        "hand": "left"
      },
      {
        "midi": 61,
        "time": 74.85,
        "duration": 0.15,
        "velocity": 0.63,
        "hand": "right"
      },
      {
        "midi": 62,
        "time": 74.85,
        "duration": 0.075,
        "velocity": 1,
        "hand": "right"
      },
      {
        "midi": 64,
        "time": 74.85,
        "duration": 0.15,
        "velocity": 0.94,
        "hand": "right"
      },
      {
        "midi": 66,
        "time": 74.85,
        "duration": 0.075,
        "velocity": 1,
        "hand": "right"
      },
      {
        "midi": 74,
        "time": 74.85,
        "duration": 0.15,
        "velocity": 0.89,
        "hand": "right"
      },
      {
        "midi": 88,
        "time": 74.85,
        "duration": 0.15,
        "velocity": 0.91,
        "hand": "right"
      },
      {
        "midi": 90,
        "time": 74.85,
        "duration": 0.075,
        "velocity": 0.92,
        "hand": "right"
      },
      {
        "midi": 38,
        "time": 75,
        "duration": 0.3,
        "velocity": 1,
        "hand": "left"
      },
      {
        "midi": 38,
        "time": 75,
        "duration": 0.15,
        "velocity": 0.63,
        "hand": "left"
      },
      {
        "midi": 44,
        "time": 75,
        "duration": 0.075,
        "velocity": 0.63,
        "hand": "left"
      },
      {
        "midi": 50,
        "time": 75,
        "duration": 0.15,
        "velocity": 1,
        "hand": "left"
      },
      {
        "midi": 60,
        "time": 75,
        "duration": 0.075,
        "velocity": 0.63,
        "hand": "right"
      },
      {
        "midi": 62,
        "time": 75,
        "duration": 0.075,
        "velocity": 0.94,
        "hand": "right"
      },
      {
        "midi": 74,
        "time": 75,
        "duration": 0.15,
        "velocity": 1,
        "hand": "right"
      },
      {
        "midi": 42,
        "time": 75.3,
        "duration": 0.15,
        "velocity": 0.63,
        "hand": "left"
      },
      {
        "midi": 46,
        "time": 75.3,
        "duration": 0.075,
        "velocity": 0.63,
        "hand": "left"
      },
      {
        "midi": 50,
        "time": 75.3,
        "duration": 0.15,
        "velocity": 0.93,
        "hand": "left"
      },
      {
        "midi": 57,
        "time": 75.3,
        "duration": 0.075,
        "velocity": 1,
        "hand": "left"
      },
      {
        "midi": 62,
        "time": 75.3,
        "duration": 0.075,
        "velocity": 1,
        "hand": "right"
      },
      {
        "midi": 62,
        "time": 75.3,
        "duration": 0.15,
        "velocity": 0.94,
        "hand": "right"
      },
      {
        "midi": 66,
        "time": 75.3,
        "duration": 0.075,
        "velocity": 1,
        "hand": "right"
      },
      {
        "midi": 66,
        "time": 75.3,
        "duration": 0.15,
        "velocity": 0.63,
        "hand": "right"
      },
      {
        "midi": 74,
        "time": 75.3,
        "duration": 0.15,
        "velocity": 1,
        "hand": "right"
      },
      {
        "midi": 91,
        "time": 75.3,
        "duration": 0.075,
        "velocity": 0.92,
        "hand": "right"
      },
      {
        "midi": 61,
        "time": 75.45,
        "duration": 0.15,
        "velocity": 0.94,
        "hand": "right"
      },
      {
        "midi": 64,
        "time": 75.45,
        "duration": 0.15,
        "velocity": 0.63,
        "hand": "right"
      },
      {
        "midi": 38,
        "time": 75.6,
        "duration": 0.15,
        "velocity": 0.63,
        "hand": "left"
      },
      {
        "midi": 42,
        "time": 75.6,
        "duration": 0.3,
        "velocity": 0.87,
        "hand": "left"
      },
      {
        "midi": 44,
        "time": 75.6,
        "duration": 0.15,
        "velocity": 0.63,
        "hand": "left"
      },
      {
        "midi": 50,
        "time": 75.6,
        "duration": 0.6,
        "velocity": 1,
        "hand": "left"
      },
      {
        "midi": 57,
        "time": 75.6,
        "duration": 0.075,
        "velocity": 0.99,
        "hand": "left"
      },
      {
        "midi": 60,
        "time": 75.6,
        "duration": 0.6,
        "velocity": 0.94,
        "hand": "right"
      },
      {
        "midi": 62,
        "time": 75.6,
        "duration": 0.075,
        "velocity": 1,
        "hand": "right"
      },
      {
        "midi": 66,
        "time": 75.6,
        "duration": 0.075,
        "velocity": 1,
        "hand": "right"
      },
      {
        "midi": 74,
        "time": 75.6,
        "duration": 0.6,
        "velocity": 1,
        "hand": "right"
      },
      {
        "midi": 93,
        "time": 75.6,
        "duration": 0.6,
        "velocity": 0.69,
        "hand": "right"
      },
      {
        "midi": 57,
        "time": 75.75,
        "duration": 0.075,
        "velocity": 0.99,
        "hand": "left"
      },
      {
        "midi": 62,
        "time": 75.75,
        "duration": 0.075,
        "velocity": 1,
        "hand": "right"
      },
      {
        "midi": 66,
        "time": 75.75,
        "duration": 0.075,
        "velocity": 1,
        "hand": "right"
      },
      {
        "midi": 42,
        "time": 75.9,
        "duration": 0.15,
        "velocity": 0.63,
        "hand": "left"
      },
      {
        "midi": 46,
        "time": 75.9,
        "duration": 0.075,
        "velocity": 0.63,
        "hand": "left"
      },
      {
        "midi": 50,
        "time": 75.9,
        "duration": 0.15,
        "velocity": 0.97,
        "hand": "left"
      },
      {
        "midi": 69,
        "time": 75.9,
        "duration": 0.15,
        "velocity": 0.63,
        "hand": "right"
      },
      {
        "midi": 67,
        "time": 76.05,
        "duration": 0.15,
        "velocity": 0.63,
        "hand": "right"
      },
      {
        "midi": 38,
        "time": 76.2,
        "duration": 0.3,
        "velocity": 0.63,
        "hand": "left"
      },
      {
        "midi": 44,
        "time": 76.2,
        "duration": 0.15,
        "velocity": 0.63,
        "hand": "left"
      },
      {
        "midi": 45,
        "time": 76.2,
        "duration": 0.3,
        "velocity": 1,
        "hand": "left"
      },
      {
        "midi": 54,
        "time": 76.2,
        "duration": 0.3,
        "velocity": 1,
        "hand": "left"
      },
      {
        "midi": 57,
        "time": 76.2,
        "duration": 0.15,
        "velocity": 1,
        "hand": "left"
      },
      {
        "midi": 62,
        "time": 76.2,
        "duration": 0.075,
        "velocity": 1,
        "hand": "right"
      },
      {
        "midi": 66,
        "time": 76.2,
        "duration": 0.075,
        "velocity": 1,
        "hand": "right"
      },
      {
        "midi": 69,
        "time": 76.2,
        "duration": 0.3,
        "velocity": 1,
        "hand": "right"
      },
      {
        "midi": 78,
        "time": 76.2,
        "duration": 0.3,
        "velocity": 1,
        "hand": "right"
      },
      {
        "midi": 52,
        "time": 76.35,
        "duration": 0.3,
        "velocity": 0.99,
        "hand": "left"
      },
      {
        "midi": 76,
        "time": 76.35,
        "duration": 0.3,
        "velocity": 0.99,
        "hand": "right"
      },
      {
        "midi": 42,
        "time": 76.5,
        "duration": 0.15,
        "velocity": 0.63,
        "hand": "left"
      },
      {
        "midi": 46,
        "time": 76.5,
        "duration": 0.075,
        "velocity": 0.63,
        "hand": "left"
      },
      {
        "midi": 50,
        "time": 76.5,
        "duration": 0.15,
        "velocity": 0.79,
        "hand": "left"
      },
      {
        "midi": 57,
        "time": 76.5,
        "duration": 0.075,
        "velocity": 1,
        "hand": "left"
      },
      {
        "midi": 62,
        "time": 76.5,
        "duration": 0.075,
        "velocity": 1,
        "hand": "right"
      },
      {
        "midi": 66,
        "time": 76.5,
        "duration": 0.15,
        "velocity": 1,
        "hand": "right"
      },
      {
        "midi": 67,
        "time": 76.5,
        "duration": 0.3,
        "velocity": 1,
        "hand": "right"
      },
      {
        "midi": 76,
        "time": 76.5,
        "duration": 0.3,
        "velocity": 1,
        "hand": "right"
      },
      {
        "midi": 50,
        "time": 76.65,
        "duration": 0.9,
        "velocity": 0.99,
        "hand": "left"
      },
      {
        "midi": 64,
        "time": 76.65,
        "duration": 0.15,
        "velocity": 0.63,
        "hand": "right"
      },
      {
        "midi": 74,
        "time": 76.65,
        "duration": 0.9,
        "velocity": 0.99,
        "hand": "right"
      },
      {
        "midi": 38,
        "time": 76.8,
        "duration": 0.3,
        "velocity": 1,
        "hand": "left"
      },
      {
        "midi": 38,
        "time": 76.8,
        "duration": 0.075,
        "velocity": 0.63,
        "hand": "left"
      },
      {
        "midi": 44,
        "time": 76.8,
        "duration": 0.075,
        "velocity": 0.63,
        "hand": "left"
      },
      {
        "midi": 62,
        "time": 76.8,
        "duration": 0.15,
        "velocity": 1,
        "hand": "right"
      },
      {
        "midi": 62,
        "time": 76.8,
        "duration": 0.3,
        "velocity": 0.63,
        "hand": "right"
      },
      {
        "midi": 66,
        "time": 76.8,
        "duration": 0.15,
        "velocity": 0.97,
        "hand": "right"
      },
      {
        "midi": 66,
        "time": 76.8,
        "duration": 0.9,
        "velocity": 1,
        "hand": "right"
      },
      {
        "midi": 72,
        "time": 76.8,
        "duration": 0.075,
        "velocity": 0.98,
        "hand": "right"
      },
      {
        "midi": 74,
        "time": 76.8,
        "duration": 0.9,
        "velocity": 1,
        "hand": "right"
      },
      {
        "midi": 42,
        "time": 77.1,
        "duration": 0.15,
        "velocity": 0.63,
        "hand": "left"
      },
      {
        "midi": 44,
        "time": 77.1,
        "duration": 0.075,
        "velocity": 0.63,
        "hand": "left"
      },
      {
        "midi": 46,
        "time": 77.1,
        "duration": 0.075,
        "velocity": 0.63,
        "hand": "left"
      },
      {
        "midi": 50,
        "time": 77.1,
        "duration": 0.15,
        "velocity": 0.89,
        "hand": "left"
      },
      {
        "midi": 62,
        "time": 77.1,
        "duration": 0.075,
        "velocity": 0.92,
        "hand": "right"
      },
      {
        "midi": 66,
        "time": 77.1,
        "duration": 0.075,
        "velocity": 0.94,
        "hand": "right"
      },
      {
        "midi": 66,
        "time": 77.1,
        "duration": 0.3,
        "velocity": 0.63,
        "hand": "right"
      },
      {
        "midi": 72,
        "time": 77.1,
        "duration": 0.075,
        "velocity": 0.94,
        "hand": "right"
      },
      {
        "midi": 90,
        "time": 77.1,
        "duration": 0.3,
        "velocity": 0.92,
        "hand": "right"
      },
      {
        "midi": 91,
        "time": 77.1,
        "duration": 0.15,
        "velocity": 0.73,
        "hand": "right"
      },
      {
        "midi": 44,
        "time": 77.25,
        "duration": 0.15,
        "velocity": 0.63,
        "hand": "left"
      },
      {
        "midi": 46,
        "time": 77.25,
        "duration": 0.15,
        "velocity": 0.63,
        "hand": "left"
      },
      {
        "midi": 62,
        "time": 77.25,
        "duration": 0.075,
        "velocity": 0.65,
        "hand": "right"
      },
      {
        "midi": 66,
        "time": 77.25,
        "duration": 0.15,
        "velocity": 0.92,
        "hand": "right"
      },
      {
        "midi": 72,
        "time": 77.25,
        "duration": 0.075,
        "velocity": 0.84,
        "hand": "right"
      },
      {
        "midi": 38,
        "time": 77.4,
        "duration": 0.15,
        "velocity": 0.63,
        "hand": "left"
      },
      {
        "midi": 40,
        "time": 77.4,
        "duration": 0.3,
        "velocity": 1,
        "hand": "left"
      },
      {
        "midi": 46,
        "time": 77.4,
        "duration": 0.075,
        "velocity": 0.63,
        "hand": "left"
      },
      {
        "midi": 62,
        "time": 77.4,
        "duration": 0.075,
        "velocity": 0.77,
        "hand": "right"
      },
      {
        "midi": 64,
        "time": 77.4,
        "duration": 0.3,
        "velocity": 0.63,
        "hand": "right"
      },
      {
        "midi": 66,
        "time": 77.4,
        "duration": 0.075,
        "velocity": 0.92,
        "hand": "right"
      },
      {
        "midi": 72,
        "time": 77.4,
        "duration": 0.075,
        "velocity": 0.91,
        "hand": "right"
      },
      {
        "midi": 93,
        "time": 77.4,
        "duration": 0.075,
        "velocity": 0.81,
        "hand": "right"
      },
      {
        "midi": 42,
        "time": 77.7,
        "duration": 0.15,
        "velocity": 0.63,
        "hand": "left"
      },
      {
        "midi": 46,
        "time": 77.7,
        "duration": 0.075,
        "velocity": 0.63,
        "hand": "left"
      },
      {
        "midi": 48,
        "time": 77.7,
        "duration": 0.3,
        "velocity": 0.99,
        "hand": "left"
      },
      {
        "midi": 50,
        "time": 77.7,
        "duration": 0.15,
        "velocity": 0.81,
        "hand": "left"
      },
      {
        "midi": 62,
        "time": 77.7,
        "duration": 0.075,
        "velocity": 1,
        "hand": "right"
      },
      {
        "midi": 62,
        "time": 77.7,
        "duration": 0.3,
        "velocity": 0.63,
        "hand": "right"
      },
      {
        "midi": 64,
        "time": 77.7,
        "duration": 0.3,
        "velocity": 1,
        "hand": "right"
      },
      {
        "midi": 65,
        "time": 77.7,
        "duration": 0.075,
        "velocity": 0.74,
        "hand": "right"
      },
      {
        "midi": 66,
        "time": 77.7,
        "duration": 0.075,
        "velocity": 1,
        "hand": "right"
      },
      {
        "midi": 72,
        "time": 77.7,
        "duration": 0.075,
        "velocity": 1,
        "hand": "right"
      },
      {
        "midi": 72,
        "time": 77.7,
        "duration": 0.3,
        "velocity": 0.99,
        "hand": "right"
      },
      {
        "midi": 72,
        "time": 77.7,
        "duration": 0.45,
        "velocity": 1,
        "hand": "right"
      },
      {
        "midi": 93,
        "time": 77.7,
        "duration": 0.15,
        "velocity": 0.92,
        "hand": "right"
      },
      {
        "midi": 90,
        "time": 77.85,
        "duration": 0.15,
        "velocity": 0.92,
        "hand": "right"
      },
      {
        "midi": 38,
        "time": 78,
        "duration": 0.15,
        "velocity": 0.63,
        "hand": "left"
      },
      {
        "midi": 41,
        "time": 78,
        "duration": 0.3,
        "velocity": 1,
        "hand": "left"
      },
      {
        "midi": 44,
        "time": 78,
        "duration": 0.075,
        "velocity": 0.63,
        "hand": "left"
      },
      {
        "midi": 47,
        "time": 78,
        "duration": 0.6,
        "velocity": 1,
        "hand": "left"
      },
      {
        "midi": 60,
        "time": 78,
        "duration": 1.05,
        "velocity": 0.63,
        "hand": "right"
      },
      {
        "midi": 62,
        "time": 78,
        "duration": 0.075,
        "velocity": 0.68,
        "hand": "right"
      },
      {
        "midi": 62,
        "time": 78,
        "duration": 0.6,
        "velocity": 0.92,
        "hand": "right"
      },
      {
        "midi": 66,
        "time": 78,
        "duration": 0.15,
        "velocity": 0.89,
        "hand": "right"
      },
      {
        "midi": 71,
        "time": 78,
        "duration": 0.6,
        "velocity": 1,
        "hand": "right"
      },
      {
        "midi": 72,
        "time": 78,
        "duration": 0.15,
        "velocity": 0.87,
        "hand": "right"
      },
      {
        "midi": 86,
        "time": 78,
        "duration": 0.15,
        "velocity": 0.92,
        "hand": "right"
      },
      {
        "midi": 42,
        "time": 78.3,
        "duration": 0.15,
        "velocity": 0.63,
        "hand": "left"
      },
      {
        "midi": 46,
        "time": 78.3,
        "duration": 0.075,
        "velocity": 0.63,
        "hand": "left"
      },
      {
        "midi": 50,
        "time": 78.3,
        "duration": 0.15,
        "velocity": 0.93,
        "hand": "left"
      },
      {
        "midi": 62,
        "time": 78.3,
        "duration": 0.075,
        "velocity": 0.65,
        "hand": "right"
      },
      {
        "midi": 66,
        "time": 78.3,
        "duration": 0.075,
        "velocity": 0.89,
        "hand": "right"
      },
      {
        "midi": 72,
        "time": 78.3,
        "duration": 0.075,
        "velocity": 0.82,
        "hand": "right"
      },
      {
        "midi": 88,
        "time": 78.3,
        "duration": 0.15,
        "velocity": 0.73,
        "hand": "right"
      },
      {
        "midi": 90,
        "time": 78.3,
        "duration": 0.15,
        "velocity": 0.92,
        "hand": "right"
      },
      {
        "midi": 38,
        "time": 78.6,
        "duration": 0.3,
        "velocity": 0.63,
        "hand": "left"
      },
      {
        "midi": 42,
        "time": 78.6,
        "duration": 0.3,
        "velocity": 1,
        "hand": "left"
      },
      {
        "midi": 44,
        "time": 78.6,
        "duration": 0.15,
        "velocity": 0.63,
        "hand": "left"
      },
      {
        "midi": 45,
        "time": 78.6,
        "duration": 0.6,
        "velocity": 1,
        "hand": "left"
      },
      {
        "midi": 60,
        "time": 78.6,
        "duration": 0.6,
        "velocity": 1,
        "hand": "right"
      },
      {
        "midi": 62,
        "time": 78.6,
        "duration": 0.075,
        "velocity": 1,
        "hand": "right"
      },
      {
        "midi": 66,
        "time": 78.6,
        "duration": 0.15,
        "velocity": 1,
        "hand": "right"
      },
      {
        "midi": 69,
        "time": 78.6,
        "duration": 0.6,
        "velocity": 1,
        "hand": "right"
      },
      {
        "midi": 72,
        "time": 78.6,
        "duration": 0.15,
        "velocity": 1,
        "hand": "right"
      },
      {
        "midi": 86,
        "time": 78.6,
        "duration": 0.075,
        "velocity": 0.92,
        "hand": "right"
      },
      {
        "midi": 42,
        "time": 78.9,
        "duration": 0.3,
        "velocity": 0.63,
        "hand": "left"
      },
      {
        "midi": 46,
        "time": 78.9,
        "duration": 0.15,
        "velocity": 0.63,
        "hand": "left"
      },
      {
        "midi": 57,
        "time": 78.9,
        "duration": 0.15,
        "velocity": 0.97,
        "hand": "left"
      },
      {
        "midi": 62,
        "time": 78.9,
        "duration": 0.075,
        "velocity": 0.99,
        "hand": "right"
      },
      {
        "midi": 66,
        "time": 78.9,
        "duration": 0.15,
        "velocity": 1,
        "hand": "right"
      },
      {
        "midi": 72,
        "time": 78.9,
        "duration": 0.075,
        "velocity": 0.98,
        "hand": "right"
      },
      {
        "midi": 88,
        "time": 78.9,
        "duration": 0.15,
        "velocity": 0.92,
        "hand": "right"
      },
      {
        "midi": 90,
        "time": 79.05,
        "duration": 0.15,
        "velocity": 0.68,
        "hand": "right"
      },
      {
        "midi": 38,
        "time": 79.2,
        "duration": 0.075,
        "velocity": 0.63,
        "hand": "left"
      },
      {
        "midi": 43,
        "time": 79.2,
        "duration": 0.3,
        "velocity": 1,
        "hand": "left"
      },
      {
        "midi": 44,
        "time": 79.2,
        "duration": 0.075,
        "velocity": 0.63,
        "hand": "left"
      },
      {
        "midi": 52,
        "time": 79.2,
        "duration": 0.15,
        "velocity": 1,
        "hand": "left"
      },
      {
        "midi": 62,
        "time": 79.2,
        "duration": 0.15,
        "velocity": 1,
        "hand": "right"
      },
      {
        "midi": 67,
        "time": 79.2,
        "duration": 0.075,
        "velocity": 1,
        "hand": "right"
      },
      {
        "midi": 69,
        "time": 79.2,
        "duration": 0.3,
        "velocity": 1,
        "hand": "right"
      },
      {
        "midi": 71,
        "time": 79.2,
        "duration": 0.075,
        "velocity": 1,
        "hand": "right"
      },
      {
        "midi": 76,
        "time": 79.2,
        "duration": 0.15,
        "velocity": 1,
        "hand": "right"
      },
      {
        "midi": 91,
        "time": 79.2,
        "duration": 0.3,
        "velocity": 0.92,
        "hand": "right"
      },
      {
        "midi": 42,
        "time": 79.5,
        "duration": 0.15,
        "velocity": 0.63,
        "hand": "left"
      },
      {
        "midi": 46,
        "time": 79.5,
        "duration": 0.075,
        "velocity": 0.63,
        "hand": "left"
      },
      {
        "midi": 50,
        "time": 79.5,
        "duration": 0.6,
        "velocity": 1,
        "hand": "left"
      },
      {
        "midi": 55,
        "time": 79.5,
        "duration": 0.075,
        "velocity": 1,
        "hand": "left"
      },
      {
        "midi": 62,
        "time": 79.5,
        "duration": 0.075,
        "velocity": 0.94,
        "hand": "right"
      },
      {
        "midi": 62,
        "time": 79.5,
        "duration": 0.3,
        "velocity": 0.63,
        "hand": "right"
      },
      {
        "midi": 67,
        "time": 79.5,
        "duration": 0.075,
        "velocity": 1,
        "hand": "right"
      },
      {
        "midi": 67,
        "time": 79.5,
        "duration": 0.15,
        "velocity": 1,
        "hand": "right"
      },
      {
        "midi": 71,
        "time": 79.5,
        "duration": 0.075,
        "velocity": 0.99,
        "hand": "right"
      },
      {
        "midi": 74,
        "time": 79.5,
        "duration": 0.6,
        "velocity": 1,
        "hand": "right"
      },
      {
        "midi": 83,
        "time": 79.5,
        "duration": 0.15,
        "velocity": 0.92,
        "hand": "right"
      },
      {
        "midi": 62,
        "time": 79.65,
        "duration": 0.075,
        "velocity": 0.79,
        "hand": "right"
      },
      {
        "midi": 67,
        "time": 79.65,
        "duration": 0.075,
        "velocity": 1,
        "hand": "right"
      },
      {
        "midi": 71,
        "time": 79.65,
        "duration": 0.15,
        "velocity": 0.89,
        "hand": "right"
      },
      {
        "midi": 84,
        "time": 79.65,
        "duration": 0.15,
        "velocity": 0.92,
        "hand": "right"
      },
      {
        "midi": 38,
        "time": 79.8,
        "duration": 0.3,
        "velocity": 1,
        "hand": "left"
      },
      {
        "midi": 38,
        "time": 79.8,
        "duration": 0.15,
        "velocity": 0.63,
        "hand": "left"
      },
      {
        "midi": 44,
        "time": 79.8,
        "duration": 0.075,
        "velocity": 0.63,
        "hand": "left"
      },
      {
        "midi": 67,
        "time": 79.8,
        "duration": 0.3,
        "velocity": 0.63,
        "hand": "right"
      },
      {
        "midi": 67,
        "time": 79.8,
        "duration": 0.6,
        "velocity": 1,
        "hand": "right"
      },
      {
        "midi": 86,
        "time": 79.8,
        "duration": 0.075,
        "velocity": 0.92,
        "hand": "right"
      },
      {
        "midi": 42,
        "time": 80.1,
        "duration": 0.15,
        "velocity": 0.63,
        "hand": "left"
      },
      {
        "midi": 46,
        "time": 80.1,
        "duration": 0.075,
        "velocity": 0.63,
        "hand": "left"
      },
      {
        "midi": 47,
        "time": 80.1,
        "duration": 0.3,
        "velocity": 1,
        "hand": "left"
      },
      {
        "midi": 50,
        "time": 80.1,
        "duration": 0.15,
        "velocity": 0.99,
        "hand": "left"
      },
      {
        "midi": 59,
        "time": 80.1,
        "duration": 0.3,
        "velocity": 0.63,
        "hand": "left"
      },
      {
        "midi": 62,
        "time": 80.1,
        "duration": 0.15,
        "velocity": 1,
        "hand": "right"
      },
      {
        "midi": 62,
        "time": 80.1,
        "duration": 0.3,
        "velocity": 1,
        "hand": "right"
      },
      {
        "midi": 67,
        "time": 80.1,
        "duration": 0.075,
        "velocity": 1,
        "hand": "right"
      },
      {
        "midi": 71,
        "time": 80.1,
        "duration": 0.075,
        "velocity": 1,
        "hand": "right"
      },
      {
        "midi": 71,
        "time": 80.1,
        "duration": 0.3,
        "velocity": 1,
        "hand": "right"
      },
      {
        "midi": 79,
        "time": 80.1,
        "duration": 0.6,
        "velocity": 0.92,
        "hand": "right"
      },
      {
        "midi": 38,
        "time": 80.4,
        "duration": 0.15,
        "velocity": 0.63,
        "hand": "left"
      },
      {
        "midi": 43,
        "time": 80.4,
        "duration": 0.3,
        "velocity": 1,
        "hand": "left"
      },
      {
        "midi": 43,
        "time": 80.4,
        "duration": 0.6,
        "velocity": 1,
        "hand": "left"
      },
      {
        "midi": 44,
        "time": 80.4,
        "duration": 0.15,
        "velocity": 0.63,
        "hand": "left"
      },
      {
        "midi": 62,
        "time": 80.4,
        "duration": 0.15,
        "velocity": 0.89,
        "hand": "right"
      },
      {
        "midi": 64,
        "time": 80.4,
        "duration": 0.15,
        "velocity": 1,
        "hand": "right"
      },
      {
        "midi": 67,
        "time": 80.4,
        "duration": 0.075,
        "velocity": 1,
        "hand": "right"
      },
      {
        "midi": 67,
        "time": 80.4,
        "duration": 0.6,
        "velocity": 1,
        "hand": "right"
      },
      {
        "midi": 71,
        "time": 80.4,
        "duration": 0.075,
        "velocity": 0.94,
        "hand": "right"
      },
      {
        "midi": 71,
        "time": 80.4,
        "duration": 0.6,
        "velocity": 1,
        "hand": "right"
      },
      {
        "midi": 62,
        "time": 80.55,
        "duration": 0.075,
        "velocity": 0.57,
        "hand": "right"
      },
      {
        "midi": 64,
        "time": 80.55,
        "duration": 0.15,
        "velocity": 0.54,
        "hand": "right"
      },
      {
        "midi": 42,
        "time": 80.7,
        "duration": 0.15,
        "velocity": 0.63,
        "hand": "left"
      },
      {
        "midi": 46,
        "time": 80.7,
        "duration": 0.075,
        "velocity": 0.63,
        "hand": "left"
      },
      {
        "midi": 50,
        "time": 80.7,
        "duration": 0.15,
        "velocity": 0.99,
        "hand": "left"
      },
      {
        "midi": 62,
        "time": 80.7,
        "duration": 0.075,
        "velocity": 0.92,
        "hand": "right"
      },
      {
        "midi": 67,
        "time": 80.7,
        "duration": 0.075,
        "velocity": 1,
        "hand": "right"
      },
      {
        "midi": 71,
        "time": 80.7,
        "duration": 0.075,
        "velocity": 0.97,
        "hand": "right"
      },
      {
        "midi": 38,
        "time": 81,
        "duration": 0.3,
        "velocity": 0.63,
        "hand": "left"
      },
      {
        "midi": 44,
        "time": 81,
        "duration": 0.3,
        "velocity": 1,
        "hand": "left"
      },
      {
        "midi": 44,
        "time": 81,
        "duration": 0.15,
        "velocity": 0.63,
        "hand": "left"
      },
      {
        "midi": 47,
        "time": 81,
        "duration": 0.6,
        "velocity": 1,
        "hand": "left"
      },
      {
        "midi": 62,
        "time": 81,
        "duration": 0.15,
        "velocity": 1,
        "hand": "right"
      },
      {
        "midi": 62,
        "time": 81,
        "duration": 0.3,
        "velocity": 1,
        "hand": "right"
      },
      {
        "midi": 64,
        "time": 81,
        "duration": 0.3,
        "velocity": 0.63,
        "hand": "right"
      },
      {
        "midi": 67,
        "time": 81,
        "duration": 0.15,
        "velocity": 1,
        "hand": "right"
      },
      {
        "midi": 67,
        "time": 81,
        "duration": 0.6,
        "velocity": 1,
        "hand": "right"
      },
      {
        "midi": 71,
        "time": 81,
        "duration": 0.15,
        "velocity": 1,
        "hand": "right"
      },
      {
        "midi": 71,
        "time": 81,
        "duration": 0.6,
        "velocity": 1,
        "hand": "right"
      },
      {
        "midi": 42,
        "time": 81.3,
        "duration": 0.15,
        "velocity": 0.63,
        "hand": "left"
      },
      {
        "midi": 46,
        "time": 81.3,
        "duration": 0.15,
        "velocity": 0.63,
        "hand": "left"
      },
      {
        "midi": 52,
        "time": 81.3,
        "duration": 0.15,
        "velocity": 0.72,
        "hand": "left"
      },
      {
        "midi": 61,
        "time": 81.3,
        "duration": 0.3,
        "velocity": 1,
        "hand": "right"
      },
      {
        "midi": 62,
        "time": 81.3,
        "duration": 0.15,
        "velocity": 1,
        "hand": "right"
      },
      {
        "midi": 62,
        "time": 81.3,
        "duration": 0.3,
        "velocity": 0.63,
        "hand": "right"
      },
      {
        "midi": 67,
        "time": 81.3,
        "duration": 0.15,
        "velocity": 1,
        "hand": "right"
      },
      {
        "midi": 71,
        "time": 81.3,
        "duration": 0.075,
        "velocity": 1,
        "hand": "right"
      },
      {
        "midi": 38,
        "time": 81.6,
        "duration": 0.15,
        "velocity": 0.63,
        "hand": "left"
      },
      {
        "midi": 44,
        "time": 81.6,
        "duration": 0.075,
        "velocity": 0.63,
        "hand": "left"
      },
      {
        "midi": 45,
        "time": 81.6,
        "duration": 0.15,
        "velocity": 1,
        "hand": "left"
      },
      {
        "midi": 50,
        "time": 81.6,
        "duration": 0.15,
        "velocity": 0.89,
        "hand": "left"
      },
      {
        "midi": 60,
        "time": 81.6,
        "duration": 0.075,
        "velocity": 0.63,
        "hand": "right"
      },
      {
        "midi": 62,
        "time": 81.6,
        "duration": 0.15,
        "velocity": 0.79,
        "hand": "right"
      },
      {
        "midi": 66,
        "time": 81.6,
        "duration": 0.15,
        "velocity": 0.94,
        "hand": "right"
      },
      {
        "midi": 72,
        "time": 81.6,
        "duration": 0.15,
        "velocity": 0.96,
        "hand": "right"
      },
      {
        "midi": 74,
        "time": 81.6,
        "duration": 0.15,
        "velocity": 0.89,
        "hand": "right"
      },
      {
        "midi": 42,
        "time": 81.9,
        "duration": 0.15,
        "velocity": 0.63,
        "hand": "left"
      },
      {
        "midi": 46,
        "time": 81.9,
        "duration": 0.15,
        "velocity": 0.63,
        "hand": "left"
      },
      {
        "midi": 50,
        "time": 81.9,
        "duration": 0.6,
        "velocity": 1,
        "hand": "left"
      },
      {
        "midi": 54,
        "time": 81.9,
        "duration": 0.15,
        "velocity": 1,
        "hand": "left"
      },
      {
        "midi": 54,
        "time": 81.9,
        "duration": 0.6,
        "velocity": 0.63,
        "hand": "left"
      },
      {
        "midi": 62,
        "time": 81.9,
        "duration": 0.075,
        "velocity": 0.87,
        "hand": "right"
      },
      {
        "midi": 66,
        "time": 81.9,
        "duration": 0.075,
        "velocity": 0.81,
        "hand": "right"
      },
      {
        "midi": 66,
        "time": 81.9,
        "duration": 0.9,
        "velocity": 1,
        "hand": "right"
      },
      {
        "midi": 72,
        "time": 81.9,
        "duration": 0.075,
        "velocity": 0.94,
        "hand": "right"
      },
      {
        "midi": 74,
        "time": 81.9,
        "duration": 0.6,
        "velocity": 1,
        "hand": "right"
      },
      {
        "midi": 86,
        "time": 81.9,
        "duration": 0.15,
        "velocity": 0.84,
        "hand": "right"
      },
      {
        "midi": 62,
        "time": 82.05,
        "duration": 0.075,
        "velocity": 0.81,
        "hand": "right"
      },
      {
        "midi": 66,
        "time": 82.05,
        "duration": 0.15,
        "velocity": 0.94,
        "hand": "right"
      },
      {
        "midi": 72,
        "time": 82.05,
        "duration": 0.15,
        "velocity": 0.96,
        "hand": "right"
      },
      {
        "midi": 88,
        "time": 82.05,
        "duration": 0.15,
        "velocity": 0.68,
        "hand": "right"
      },
      {
        "midi": 38,
        "time": 82.2,
        "duration": 0.3,
        "velocity": 1,
        "hand": "left"
      },
      {
        "midi": 44,
        "time": 82.2,
        "duration": 0.075,
        "velocity": 0.63,
        "hand": "left"
      },
      {
        "midi": 64,
        "time": 82.2,
        "duration": 0.075,
        "velocity": 1,
        "hand": "right"
      },
      {
        "midi": 66,
        "time": 82.2,
        "duration": 0.3,
        "velocity": 1,
        "hand": "right"
      },
      {
        "midi": 90,
        "time": 82.2,
        "duration": 0.075,
        "velocity": 0.92,
        "hand": "right"
      },
      {
        "midi": 42,
        "time": 82.5,
        "duration": 0.3,
        "velocity": 0.63,
        "hand": "left"
      },
      {
        "midi": 46,
        "time": 82.5,
        "duration": 0.075,
        "velocity": 0.63,
        "hand": "left"
      },
      {
        "midi": 48,
        "time": 82.5,
        "duration": 0.3,
        "velocity": 1,
        "hand": "left"
      },
      {
        "midi": 50,
        "time": 82.5,
        "duration": 0.15,
        "velocity": 0.99,
        "hand": "left"
      },
      {
        "midi": 52,
        "time": 82.5,
        "duration": 0.3,
        "velocity": 0.63,
        "hand": "left"
      },
      {
        "midi": 62,
        "time": 82.5,
        "duration": 0.075,
        "velocity": 0.94,
        "hand": "right"
      },
      {
        "midi": 64,
        "time": 82.5,
        "duration": 0.3,
        "velocity": 0.91,
        "hand": "right"
      },
      {
        "midi": 66,
        "time": 82.5,
        "duration": 0.15,
        "velocity": 0.97,
        "hand": "right"
      },
      {
        "midi": 72,
        "time": 82.5,
        "duration": 0.15,
        "velocity": 0.94,
        "hand": "right"
      },
      {
        "midi": 72,
        "time": 82.5,
        "duration": 0.3,
        "velocity": 1,
        "hand": "right"
      },
      {
        "midi": 88,
        "time": 82.5,
        "duration": 0.15,
        "velocity": 0.73,
        "hand": "right"
      },
      {
        "midi": 90,
        "time": 82.5,
        "duration": 0.15,
        "velocity": 0.92,
        "hand": "right"
      },
      {
        "midi": 38,
        "time": 82.8,
        "duration": 0.3,
        "velocity": 0.63,
        "hand": "left"
      },
      {
        "midi": 42,
        "time": 82.8,
        "duration": 0.3,
        "velocity": 1,
        "hand": "left"
      },
      {
        "midi": 44,
        "time": 82.8,
        "duration": 0.15,
        "velocity": 0.63,
        "hand": "left"
      },
      {
        "midi": 47,
        "time": 82.8,
        "duration": 0.6,
        "velocity": 1,
        "hand": "left"
      },
      {
        "midi": 50,
        "time": 82.8,
        "duration": 0.3,
        "velocity": 0.63,
        "hand": "left"
      },
      {
        "midi": 62,
        "time": 82.8,
        "duration": 0.075,
        "velocity": 0.79,
        "hand": "right"
      },
      {
        "midi": 62,
        "time": 82.8,
        "duration": 0.45,
        "velocity": 1,
        "hand": "right"
      },
      {
        "midi": 66,
        "time": 82.8,
        "duration": 0.15,
        "velocity": 0.92,
        "hand": "right"
      },
      {
        "midi": 71,
        "time": 82.8,
        "duration": 0.6,
        "velocity": 1,
        "hand": "right"
      },
      {
        "midi": 72,
        "time": 82.8,
        "duration": 0.15,
        "velocity": 0.87,
        "hand": "right"
      },
      {
        "midi": 86,
        "time": 82.8,
        "duration": 0.6,
        "velocity": 0.77,
        "hand": "right"
      },
      {
        "midi": 42,
        "time": 83.1,
        "duration": 0.15,
        "velocity": 0.63,
        "hand": "left"
      },
      {
        "midi": 46,
        "time": 83.1,
        "duration": 0.075,
        "velocity": 0.63,
        "hand": "left"
      },
      {
        "midi": 57,
        "time": 83.1,
        "duration": 0.075,
        "velocity": 1,
        "hand": "left"
      },
      {
        "midi": 60,
        "time": 83.1,
        "duration": 0.3,
        "velocity": 0.63,
        "hand": "right"
      },
      {
        "midi": 62,
        "time": 83.1,
        "duration": 0.075,
        "velocity": 0.61,
        "hand": "right"
      },
      {
        "midi": 66,
        "time": 83.1,
        "duration": 0.075,
        "velocity": 0.94,
        "hand": "right"
      },
      {
        "midi": 66,
        "time": 83.1,
        "duration": 0.3,
        "velocity": 1,
        "hand": "right"
      },
      {
        "midi": 72,
        "time": 83.1,
        "duration": 0.075,
        "velocity": 0.91,
        "hand": "right"
      },
      {
        "midi": 38,
        "time": 83.4,
        "duration": 0.15,
        "velocity": 1,
        "hand": "left"
      },
      {
        "midi": 38,
        "time": 83.4,
        "duration": 0.3,
        "velocity": 0.63,
        "hand": "left"
      },
      {
        "midi": 44,
        "time": 83.4,
        "duration": 0.15,
        "velocity": 0.63,
        "hand": "left"
      },
      {
        "midi": 45,
        "time": 83.4,
        "duration": 0.6,
        "velocity": 1,
        "hand": "left"
      },
      {
        "midi": 59,
        "time": 83.4,
        "duration": 0.15,
        "velocity": 0.63,
        "hand": "left"
      },
      {
        "midi": 62,
        "time": 83.4,
        "duration": 0.15,
        "velocity": 1,
        "hand": "right"
      },
      {
        "midi": 66,
        "time": 83.4,
        "duration": 0.15,
        "velocity": 1,
        "hand": "right"
      },
      {
        "midi": 66,
        "time": 83.4,
        "duration": 0.6,
        "velocity": 1,
        "hand": "right"
      },
      {
        "midi": 67,
        "time": 83.4,
        "duration": 0.3,
        "velocity": 1,
        "hand": "right"
      },
      {
        "midi": 69,
        "time": 83.4,
        "duration": 0.6,
        "velocity": 1,
        "hand": "right"
      },
      {
        "midi": 72,
        "time": 83.4,
        "duration": 0.15,
        "velocity": 1,
        "hand": "right"
      },
      {
        "midi": 84,
        "time": 83.4,
        "duration": 0.075,
        "velocity": 0.92,
        "hand": "right"
      },
      {
        "midi": 84,
        "time": 83.4,
        "duration": 0.45,
        "velocity": 0.91,
        "hand": "right"
      },
      {
        "midi": 86,
        "time": 83.4,
        "duration": 0.15,
        "velocity": 0.84,
        "hand": "right"
      },
      {
        "midi": 42,
        "time": 83.7,
        "duration": 0.3,
        "velocity": 0.63,
        "hand": "left"
      },
      {
        "midi": 46,
        "time": 83.7,
        "duration": 0.15,
        "velocity": 0.63,
        "hand": "left"
      },
      {
        "midi": 50,
        "time": 83.7,
        "duration": 0.15,
        "velocity": 1,
        "hand": "left"
      },
      {
        "midi": 57,
        "time": 83.7,
        "duration": 0.3,
        "velocity": 0.63,
        "hand": "left"
      },
      {
        "midi": 62,
        "time": 83.7,
        "duration": 0.15,
        "velocity": 0.85,
        "hand": "right"
      },
      {
        "midi": 66,
        "time": 83.7,
        "duration": 0.15,
        "velocity": 0.83,
        "hand": "right"
      },
      {
        "midi": 69,
        "time": 83.7,
        "duration": 0.3,
        "velocity": 0.99,
        "hand": "right"
      },
      {
        "midi": 72,
        "time": 83.7,
        "duration": 0.15,
        "velocity": 0.84,
        "hand": "right"
      },
      {
        "midi": 67,
        "time": 83.85,
        "duration": 0.3,
        "velocity": 1,
        "hand": "right"
      },
      {
        "midi": 38,
        "time": 84,
        "duration": 0.075,
        "velocity": 0.63,
        "hand": "left"
      },
      {
        "midi": 43,
        "time": 84,
        "duration": 0.15,
        "velocity": 1,
        "hand": "left"
      },
      {
        "midi": 44,
        "time": 84,
        "duration": 0.15,
        "velocity": 0.63,
        "hand": "left"
      },
      {
        "midi": 47,
        "time": 84,
        "duration": 0.15,
        "velocity": 1,
        "hand": "left"
      },
      {
        "midi": 55,
        "time": 84,
        "duration": 0.075,
        "velocity": 0.63,
        "hand": "left"
      },
      {
        "midi": 62,
        "time": 84,
        "duration": 0.15,
        "velocity": 1,
        "hand": "right"
      },
      {
        "midi": 67,
        "time": 84,
        "duration": 0.075,
        "velocity": 1,
        "hand": "right"
      },
      {
        "midi": 67,
        "time": 84,
        "duration": 0.15,
        "velocity": 1,
        "hand": "right"
      },
      {
        "midi": 67,
        "time": 84,
        "duration": 0.075,
        "velocity": 1,
        "hand": "right"
      },
      {
        "midi": 69,
        "time": 84,
        "duration": 0.075,
        "velocity": 1,
        "hand": "right"
      },
      {
        "midi": 71,
        "time": 84,
        "duration": 0.15,
        "velocity": 0.94,
        "hand": "right"
      },
      {
        "midi": 71,
        "time": 84,
        "duration": 0.45,
        "velocity": 1,
        "hand": "right"
      },
      {
        "midi": 83,
        "time": 84,
        "duration": 0.3,
        "velocity": 0.92,
        "hand": "right"
      },
      {
        "midi": 42,
        "time": 84.3,
        "duration": 0.15,
        "velocity": 0.63,
        "hand": "left"
      },
      {
        "midi": 44,
        "time": 84.3,
        "duration": 0.075,
        "velocity": 0.63,
        "hand": "left"
      },
      {
        "midi": 46,
        "time": 84.3,
        "duration": 0.075,
        "velocity": 0.63,
        "hand": "left"
      },
      {
        "midi": 47,
        "time": 84.3,
        "duration": 0.15,
        "velocity": 0.97,
        "hand": "left"
      },
      {
        "midi": 62,
        "time": 84.3,
        "duration": 0.075,
        "velocity": 0.99,
        "hand": "right"
      },
      {
        "midi": 67,
        "time": 84.3,
        "duration": 0.075,
        "velocity": 1,
        "hand": "right"
      },
      {
        "midi": 71,
        "time": 84.3,
        "duration": 0.075,
        "velocity": 1,
        "hand": "right"
      },
      {
        "midi": 74,
        "time": 84.3,
        "duration": 0.075,
        "velocity": 1,
        "hand": "right"
      },
      {
        "midi": 44,
        "time": 84.45,
        "duration": 0.075,
        "velocity": 0.63,
        "hand": "left"
      },
      {
        "midi": 46,
        "time": 84.45,
        "duration": 0.075,
        "velocity": 0.63,
        "hand": "left"
      },
      {
        "midi": 62,
        "time": 84.45,
        "duration": 0.15,
        "velocity": 0.63,
        "hand": "right"
      },
      {
        "midi": 64,
        "time": 84.45,
        "duration": 0.3,
        "velocity": 1,
        "hand": "right"
      },
      {
        "midi": 71,
        "time": 84.45,
        "duration": 0.15,
        "velocity": 0.63,
        "hand": "right"
      },
      {
        "midi": 74,
        "time": 84.45,
        "duration": 0.3,
        "velocity": 0.99,
        "hand": "right"
      },
      {
        "midi": 74,
        "time": 84.45,
        "duration": 0.15,
        "velocity": 0.91,
        "hand": "right"
      },
      {
        "midi": 76,
        "time": 84.45,
        "duration": 0.15,
        "velocity": 0.94,
        "hand": "right"
      },
      {
        "midi": 38,
        "time": 84.6,
        "duration": 0.15,
        "velocity": 1,
        "hand": "left"
      },
      {
        "midi": 38,
        "time": 84.6,
        "duration": 0.3,
        "velocity": 0.63,
        "hand": "left"
      },
      {
        "midi": 52,
        "time": 84.6,
        "duration": 0.6,
        "velocity": 1,
        "hand": "left"
      },
      {
        "midi": 64,
        "time": 84.6,
        "duration": 0.075,
        "velocity": 0.89,
        "hand": "right"
      },
      {
        "midi": 68,
        "time": 84.6,
        "duration": 0.075,
        "velocity": 1,
        "hand": "right"
      },
      {
        "midi": 71,
        "time": 84.6,
        "duration": 0.15,
        "velocity": 1,
        "hand": "right"
      },
      {
        "midi": 72,
        "time": 84.6,
        "duration": 0.3,
        "velocity": 0.64,
        "hand": "right"
      },
      {
        "midi": 76,
        "time": 84.6,
        "duration": 0.15,
        "velocity": 0.92,
        "hand": "right"
      },
      {
        "midi": 80,
        "time": 84.6,
        "duration": 0.6,
        "velocity": 0.96,
        "hand": "right"
      },
      {
        "midi": 62,
        "time": 84.75,
        "duration": 0.075,
        "velocity": 0.63,
        "hand": "right"
      },
      {
        "midi": 71,
        "time": 84.75,
        "duration": 0.3,
        "velocity": 0.65,
        "hand": "right"
      },
      {
        "midi": 74,
        "time": 84.75,
        "duration": 0.3,
        "velocity": 1,
        "hand": "right"
      },
      {
        "midi": 42,
        "time": 84.9,
        "duration": 0.3,
        "velocity": 0.63,
        "hand": "left"
      },
      {
        "midi": 46,
        "time": 84.9,
        "duration": 0.075,
        "velocity": 0.63,
        "hand": "left"
      },
      {
        "midi": 50,
        "time": 84.9,
        "duration": 0.15,
        "velocity": 1,
        "hand": "left"
      },
      {
        "midi": 62,
        "time": 84.9,
        "duration": 0.15,
        "velocity": 0.63,
        "hand": "right"
      },
      {
        "midi": 62,
        "time": 84.9,
        "duration": 0.3,
        "velocity": 1,
        "hand": "right"
      },
      {
        "midi": 64,
        "time": 84.9,
        "duration": 0.15,
        "velocity": 1,
        "hand": "right"
      },
      {
        "midi": 68,
        "time": 84.9,
        "duration": 0.15,
        "velocity": 1,
        "hand": "right"
      },
      {
        "midi": 69,
        "time": 84.9,
        "duration": 0.075,
        "velocity": 0.97,
        "hand": "right"
      },
      {
        "midi": 71,
        "time": 84.9,
        "duration": 0.15,
        "velocity": 1,
        "hand": "right"
      },
      {
        "midi": 69,
        "time": 85.05,
        "duration": 0.3,
        "velocity": 0.65,
        "hand": "right"
      },
      {
        "midi": 72,
        "time": 85.05,
        "duration": 0.075,
        "velocity": 0.92,
        "hand": "right"
      },
      {
        "midi": 38,
        "time": 85.2,
        "duration": 0.075,
        "velocity": 0.63,
        "hand": "left"
      },
      {
        "midi": 44,
        "time": 85.2,
        "duration": 0.15,
        "velocity": 0.63,
        "hand": "left"
      },
      {
        "midi": 45,
        "time": 85.2,
        "duration": 0.15,
        "velocity": 1,
        "hand": "left"
      },
      {
        "midi": 51,
        "time": 85.2,
        "duration": 0.075,
        "velocity": 0.63,
        "hand": "left"
      },
      {
        "midi": 57,
        "time": 85.2,
        "duration": 0.3,
        "velocity": 1,
        "hand": "left"
      },
      {
        "midi": 60,
        "time": 85.2,
        "duration": 0.075,
        "velocity": 0.63,
        "hand": "right"
      },
      {
        "midi": 60,
        "time": 85.2,
        "duration": 0.15,
        "velocity": 1,
        "hand": "right"
      },
      {
        "midi": 64,
        "time": 85.2,
        "duration": 0.15,
        "velocity": 1,
        "hand": "right"
      },
      {
        "midi": 69,
        "time": 85.2,
        "duration": 0.075,
        "velocity": 1,
        "hand": "right"
      },
      {
        "midi": 72,
        "time": 85.2,
        "duration": 0.075,
        "velocity": 1,
        "hand": "right"
      },
      {
        "midi": 72,
        "time": 85.2,
        "duration": 0.15,
        "velocity": 1,
        "hand": "right"
      },
      {
        "midi": 81,
        "time": 85.2,
        "duration": 0.075,
        "velocity": 0.83,
        "hand": "right"
      },
      {
        "midi": 46,
        "time": 85.35,
        "duration": 0.075,
        "velocity": 0.63,
        "hand": "left"
      },
      {
        "midi": 69,
        "time": 85.35,
        "duration": 0.15,
        "velocity": 1,
        "hand": "right"
      },
      {
        "midi": 42,
        "time": 85.5,
        "duration": 0.3,
        "velocity": 0.63,
        "hand": "left"
      },
      {
        "midi": 44,
        "time": 85.5,
        "duration": 0.075,
        "velocity": 0.63,
        "hand": "left"
      },
      {
        "midi": 46,
        "time": 85.5,
        "duration": 0.075,
        "velocity": 0.63,
        "hand": "left"
      },
      {
        "midi": 52,
        "time": 85.5,
        "duration": 0.15,
        "velocity": 1,
        "hand": "left"
      },
      {
        "midi": 57,
        "time": 85.5,
        "duration": 0.15,
        "velocity": 0.63,
        "hand": "left"
      },
      {
        "midi": 64,
        "time": 85.5,
        "duration": 0.075,
        "velocity": 0.97,
        "hand": "right"
      },
      {
        "midi": 64,
        "time": 85.5,
        "duration": 0.15,
        "velocity": 0.66,
        "hand": "right"
      },
      {
        "midi": 67,
        "time": 85.5,
        "duration": 0.075,
        "velocity": 0.92,
        "hand": "right"
      },
      {
        "midi": 69,
        "time": 85.5,
        "duration": 0.075,
        "velocity": 0.83,
        "hand": "right"
      },
      {
        "midi": 69,
        "time": 85.5,
        "duration": 0.15,
        "velocity": 0.87,
        "hand": "right"
      },
      {
        "midi": 72,
        "time": 85.5,
        "duration": 0.075,
        "velocity": 1,
        "hand": "right"
      },
      {
        "midi": 81,
        "time": 85.5,
        "duration": 0.15,
        "velocity": 0.87,
        "hand": "right"
      },
      {
        "midi": 44,
        "time": 85.65,
        "duration": 0.075,
        "velocity": 0.63,
        "hand": "left"
      },
      {
        "midi": 46,
        "time": 85.65,
        "duration": 0.075,
        "velocity": 0.63,
        "hand": "left"
      },
      {
        "midi": 57,
        "time": 85.65,
        "duration": 0.15,
        "velocity": 0.63,
        "hand": "left"
      },
      {
        "midi": 62,
        "time": 85.65,
        "duration": 0.3,
        "velocity": 1,
        "hand": "right"
      },
      {
        "midi": 64,
        "time": 85.65,
        "duration": 0.075,
        "velocity": 0.53,
        "hand": "right"
      },
      {
        "midi": 66,
        "time": 85.65,
        "duration": 0.15,
        "velocity": 0.99,
        "hand": "right"
      },
      {
        "midi": 66,
        "time": 85.65,
        "duration": 0.3,
        "velocity": 0.68,
        "hand": "right"
      },
      {
        "midi": 72,
        "time": 85.65,
        "duration": 0.075,
        "velocity": 1,
        "hand": "right"
      },
      {
        "midi": 72,
        "time": 85.65,
        "duration": 0.15,
        "velocity": 1,
        "hand": "right"
      },
      {
        "midi": 74,
        "time": 85.65,
        "duration": 0.15,
        "velocity": 1,
        "hand": "right"
      },
      {
        "midi": 79,
        "time": 85.65,
        "duration": 0.15,
        "velocity": 0.79,
        "hand": "right"
      },
      {
        "midi": 38,
        "time": 85.8,
        "duration": 0.3,
        "velocity": 1,
        "hand": "left"
      },
      {
        "midi": 54,
        "time": 85.8,
        "duration": 0.6,
        "velocity": 1,
        "hand": "left"
      },
      {
        "midi": 62,
        "time": 85.8,
        "duration": 0.3,
        "velocity": 0.63,
        "hand": "right"
      },
      {
        "midi": 74,
        "time": 85.8,
        "duration": 0.3,
        "velocity": 1,
        "hand": "right"
      },
      {
        "midi": 74,
        "time": 85.8,
        "duration": 0.15,
        "velocity": 0.92,
        "hand": "right"
      },
      {
        "midi": 78,
        "time": 85.8,
        "duration": 0.075,
        "velocity": 0.89,
        "hand": "right"
      },
      {
        "midi": 60,
        "time": 85.95,
        "duration": 0.3,
        "velocity": 0.98,
        "hand": "right"
      },
      {
        "midi": 66,
        "time": 85.95,
        "duration": 0.15,
        "velocity": 1,
        "hand": "right"
      },
      {
        "midi": 72,
        "time": 85.95,
        "duration": 0.15,
        "velocity": 1,
        "hand": "right"
      },
      {
        "midi": 72,
        "time": 85.95,
        "duration": 0.45,
        "velocity": 0.94,
        "hand": "right"
      },
      {
        "midi": 73,
        "time": 85.95,
        "duration": 0.075,
        "velocity": 1,
        "hand": "right"
      },
      {
        "midi": 74,
        "time": 85.95,
        "duration": 0.15,
        "velocity": 0.94,
        "hand": "right"
      },
      {
        "midi": 42,
        "time": 86.1,
        "duration": 0.3,
        "velocity": 0.63,
        "hand": "left"
      },
      {
        "midi": 46,
        "time": 86.1,
        "duration": 0.075,
        "velocity": 0.63,
        "hand": "left"
      },
      {
        "midi": 50,
        "time": 86.1,
        "duration": 0.15,
        "velocity": 1,
        "hand": "left"
      },
      {
        "midi": 60,
        "time": 86.1,
        "duration": 0.3,
        "velocity": 0.63,
        "hand": "right"
      },
      {
        "midi": 62,
        "time": 86.1,
        "duration": 0.3,
        "velocity": 0.69,
        "hand": "right"
      },
      {
        "midi": 72,
        "time": 86.1,
        "duration": 0.15,
        "velocity": 0.92,
        "hand": "right"
      },
      {
        "midi": 78,
        "time": 86.1,
        "duration": 0.15,
        "velocity": 0.92,
        "hand": "right"
      },
      {
        "midi": 71,
        "time": 86.25,
        "duration": 0.15,
        "velocity": 1,
        "hand": "right"
      },
      {
        "midi": 81,
        "time": 86.25,
        "duration": 0.15,
        "velocity": 0.79,
        "hand": "right"
      },
      {
        "midi": 38,
        "time": 86.4,
        "duration": 0.075,
        "velocity": 0.63,
        "hand": "left"
      },
      {
        "midi": 43,
        "time": 86.4,
        "duration": 0.15,
        "velocity": 1,
        "hand": "left"
      },
      {
        "midi": 44,
        "time": 86.4,
        "duration": 0.075,
        "velocity": 0.63,
        "hand": "left"
      },
      {
        "midi": 51,
        "time": 86.4,
        "duration": 0.075,
        "velocity": 0.63,
        "hand": "left"
      },
      {
        "midi": 55,
        "time": 86.4,
        "duration": 0.6,
        "velocity": 0.99,
        "hand": "left"
      },
      {
        "midi": 59,
        "time": 86.4,
        "duration": 0.15,
        "velocity": 0.63,
        "hand": "left"
      },
      {
        "midi": 67,
        "time": 86.4,
        "duration": 0.15,
        "velocity": 1,
        "hand": "right"
      },
      {
        "midi": 71,
        "time": 86.4,
        "duration": 0.15,
        "velocity": 1,
        "hand": "right"
      },
      {
        "midi": 74,
        "time": 86.4,
        "duration": 0.15,
        "velocity": 1,
        "hand": "right"
      },
      {
        "midi": 74,
        "time": 86.4,
        "duration": 0.6,
        "velocity": 1,
        "hand": "right"
      },
      {
        "midi": 42,
        "time": 86.7,
        "duration": 0.3,
        "velocity": 0.63,
        "hand": "left"
      },
      {
        "midi": 44,
        "time": 86.7,
        "duration": 0.075,
        "velocity": 0.63,
        "hand": "left"
      },
      {
        "midi": 46,
        "time": 86.7,
        "duration": 0.075,
        "velocity": 0.63,
        "hand": "left"
      },
      {
        "midi": 55,
        "time": 86.7,
        "duration": 0.075,
        "velocity": 1,
        "hand": "left"
      },
      {
        "midi": 59,
        "time": 86.7,
        "duration": 0.15,
        "velocity": 0.63,
        "hand": "left"
      },
      {
        "midi": 67,
        "time": 86.7,
        "duration": 0.075,
        "velocity": 1,
        "hand": "right"
      },
      {
        "midi": 67,
        "time": 86.7,
        "duration": 0.15,
        "velocity": 0.77,
        "hand": "right"
      },
      {
        "midi": 69,
        "time": 86.7,
        "duration": 0.075,
        "velocity": 0.71,
        "hand": "right"
      },
      {
        "midi": 71,
        "time": 86.7,
        "duration": 0.075,
        "velocity": 1,
        "hand": "right"
      },
      {
        "midi": 71,
        "time": 86.7,
        "duration": 0.15,
        "velocity": 1,
        "hand": "right"
      },
      {
        "midi": 74,
        "time": 86.7,
        "duration": 0.075,
        "velocity": 1,
        "hand": "right"
      },
      {
        "midi": 44,
        "time": 86.85,
        "duration": 0.15,
        "velocity": 0.63,
        "hand": "left"
      },
      {
        "midi": 46,
        "time": 86.85,
        "duration": 0.075,
        "velocity": 0.63,
        "hand": "left"
      },
      {
        "midi": 55,
        "time": 86.85,
        "duration": 0.15,
        "velocity": 0.63,
        "hand": "left"
      },
      {
        "midi": 66,
        "time": 86.85,
        "duration": 0.15,
        "velocity": 0.71,
        "hand": "right"
      },
      {
        "midi": 67,
        "time": 86.85,
        "duration": 0.15,
        "velocity": 1,
        "hand": "right"
      },
      {
        "midi": 38,
        "time": 87,
        "duration": 0.45,
        "velocity": 0.63,
        "hand": "left"
      },
      {
        "midi": 40,
        "time": 87,
        "duration": 0.3,
        "velocity": 1,
        "hand": "left"
      },
      {
        "midi": 52,
        "time": 87,
        "duration": 0.3,
        "velocity": 0.94,
        "hand": "left"
      },
      {
        "midi": 60,
        "time": 87,
        "duration": 0.075,
        "velocity": 0.63,
        "hand": "right"
      },
      {
        "midi": 60,
        "time": 87,
        "duration": 0.15,
        "velocity": 1,
        "hand": "right"
      },
      {
        "midi": 64,
        "time": 87,
        "duration": 0.15,
        "velocity": 0.72,
        "hand": "right"
      },
      {
        "midi": 68,
        "time": 87,
        "duration": 0.075,
        "velocity": 1,
        "hand": "right"
      },
      {
        "midi": 70,
        "time": 87,
        "duration": 0.075,
        "velocity": 0.7,
        "hand": "right"
      },
      {
        "midi": 71,
        "time": 87,
        "duration": 0.15,
        "velocity": 1,
        "hand": "right"
      },
      {
        "midi": 72,
        "time": 87,
        "duration": 0.15,
        "velocity": 1,
        "hand": "right"
      },
      {
        "midi": 72,
        "time": 87,
        "duration": 0.075,
        "velocity": 0.92,
        "hand": "right"
      },
      {
        "midi": 76,
        "time": 87,
        "duration": 0.075,
        "velocity": 1,
        "hand": "right"
      },
      {
        "midi": 76,
        "time": 87,
        "duration": 0.6,
        "velocity": 0.94,
        "hand": "right"
      },
      {
        "midi": 42,
        "time": 87.3,
        "duration": 0.3,
        "velocity": 0.63,
        "hand": "left"
      },
      {
        "midi": 46,
        "time": 87.3,
        "duration": 0.075,
        "velocity": 0.63,
        "hand": "left"
      },
      {
        "midi": 50,
        "time": 87.3,
        "duration": 0.15,
        "velocity": 0.99,
        "hand": "left"
      },
      {
        "midi": 56,
        "time": 87.3,
        "duration": 0.15,
        "velocity": 1,
        "hand": "left"
      },
      {
        "midi": 60,
        "time": 87.3,
        "duration": 0.15,
        "velocity": 0.63,
        "hand": "right"
      },
      {
        "midi": 64,
        "time": 87.3,
        "duration": 0.15,
        "velocity": 0.72,
        "hand": "right"
      },
      {
        "midi": 68,
        "time": 87.3,
        "duration": 0.15,
        "velocity": 1,
        "hand": "right"
      },
      {
        "midi": 71,
        "time": 87.3,
        "duration": 0.15,
        "velocity": 1,
        "hand": "right"
      },
      {
        "midi": 72,
        "time": 87.3,
        "duration": 0.3,
        "velocity": 1,
        "hand": "right"
      },
      {
        "midi": 72,
        "time": 87.3,
        "duration": 0.15,
        "velocity": 0.92,
        "hand": "right"
      },
      {
        "midi": 75,
        "time": 87.3,
        "duration": 0.075,
        "velocity": 0.84,
        "hand": "right"
      },
      {
        "midi": 76,
        "time": 87.3,
        "duration": 0.15,
        "velocity": 1,
        "hand": "right"
      },
      {
        "midi": 59,
        "time": 87.45,
        "duration": 0.15,
        "velocity": 0.63,
        "hand": "left"
      },
      {
        "midi": 62,
        "time": 87.45,
        "duration": 0.15,
        "velocity": 0.73,
        "hand": "right"
      },
      {
        "midi": 71,
        "time": 87.45,
        "duration": 0.15,
        "velocity": 0.94,
        "hand": "right"
      },
      {
        "midi": 38,
        "time": 87.6,
        "duration": 0.075,
        "velocity": 0.63,
        "hand": "left"
      },
      {
        "midi": 44,
        "time": 87.6,
        "duration": 0.075,
        "velocity": 0.63,
        "hand": "left"
      },
      {
        "midi": 45,
        "time": 87.6,
        "duration": 0.3,
        "velocity": 1,
        "hand": "left"
      },
      {
        "midi": 48,
        "time": 87.6,
        "duration": 0.6,
        "velocity": 1,
        "hand": "left"
      },
      {
        "midi": 51,
        "time": 87.6,
        "duration": 0.075,
        "velocity": 0.63,
        "hand": "left"
      },
      {
        "midi": 57,
        "time": 87.6,
        "duration": 0.15,
        "velocity": 0.63,
        "hand": "left"
      },
      {
        "midi": 60,
        "time": 87.6,
        "duration": 0.15,
        "velocity": 0.74,
        "hand": "right"
      },
      {
        "midi": 69,
        "time": 87.6,
        "duration": 0.15,
        "velocity": 0.99,
        "hand": "right"
      },
      {
        "midi": 72,
        "time": 87.6,
        "duration": 0.075,
        "velocity": 1,
        "hand": "right"
      },
      {
        "midi": 75,
        "time": 87.6,
        "duration": 0.075,
        "velocity": 0.91,
        "hand": "right"
      },
      {
        "midi": 76,
        "time": 87.6,
        "duration": 0.075,
        "velocity": 1,
        "hand": "right"
      },
      {
        "midi": 42,
        "time": 87.9,
        "duration": 0.3,
        "velocity": 0.63,
        "hand": "left"
      },
      {
        "midi": 44,
        "time": 87.9,
        "duration": 0.075,
        "velocity": 0.63,
        "hand": "left"
      },
      {
        "midi": 46,
        "time": 87.9,
        "duration": 0.075,
        "velocity": 0.63,
        "hand": "left"
      },
      {
        "midi": 57,
        "time": 87.9,
        "duration": 0.15,
        "velocity": 0.97,
        "hand": "left"
      },
      {
        "midi": 57,
        "time": 87.9,
        "duration": 0.075,
        "velocity": 1,
        "hand": "left"
      },
      {
        "midi": 58,
        "time": 87.9,
        "duration": 0.075,
        "velocity": 0.63,
        "hand": "left"
      },
      {
        "midi": 60,
        "time": 87.9,
        "duration": 0.075,
        "velocity": 0.75,
        "hand": "right"
      },
      {
        "midi": 60,
        "time": 87.9,
        "duration": 0.15,
        "velocity": 0.75,
        "hand": "right"
      },
      {
        "midi": 65,
        "time": 87.9,
        "duration": 0.075,
        "velocity": 0.75,
        "hand": "right"
      },
      {
        "midi": 69,
        "time": 87.9,
        "duration": 0.15,
        "velocity": 0.94,
        "hand": "right"
      },
      {
        "midi": 69,
        "time": 87.9,
        "duration": 0.075,
        "velocity": 0.84,
        "hand": "right"
      },
      {
        "midi": 72,
        "time": 87.9,
        "duration": 0.075,
        "velocity": 1,
        "hand": "right"
      },
      {
        "midi": 76,
        "time": 87.9,
        "duration": 0.075,
        "velocity": 0.97,
        "hand": "right"
      },
      {
        "midi": 76,
        "time": 87.9,
        "duration": 0.15,
        "velocity": 0.76,
        "hand": "right"
      },
      {
        "midi": 79,
        "time": 87.9,
        "duration": 0.15,
        "velocity": 0.83,
        "hand": "right"
      },
      {
        "midi": 81,
        "time": 87.9,
        "duration": 0.15,
        "velocity": 0.89,
        "hand": "right"
      },
      {
        "midi": 44,
        "time": 88.05,
        "duration": 0.075,
        "velocity": 0.63,
        "hand": "left"
      },
      {
        "midi": 46,
        "time": 88.05,
        "duration": 0.075,
        "velocity": 0.63,
        "hand": "left"
      },
      {
        "midi": 57,
        "time": 88.05,
        "duration": 0.15,
        "velocity": 0.63,
        "hand": "left"
      },
      {
        "midi": 69,
        "time": 88.05,
        "duration": 0.15,
        "velocity": 0.94,
        "hand": "right"
      },
      {
        "midi": 72,
        "time": 88.05,
        "duration": 0.15,
        "velocity": 0.91,
        "hand": "right"
      },
      {
        "midi": 38,
        "time": 88.2,
        "duration": 0.3,
        "velocity": 1,
        "hand": "left"
      },
      {
        "midi": 50,
        "time": 88.2,
        "duration": 0.6,
        "velocity": 0.87,
        "hand": "left"
      },
      {
        "midi": 51,
        "time": 88.2,
        "duration": 0.15,
        "velocity": 0.63,
        "hand": "left"
      },
      {
        "midi": 61,
        "time": 88.2,
        "duration": 0.075,
        "velocity": 0.76,
        "hand": "right"
      },
      {
        "midi": 62,
        "time": 88.2,
        "duration": 0.075,
        "velocity": 0.63,
        "hand": "right"
      },
      {
        "midi": 62,
        "time": 88.2,
        "duration": 0.15,
        "velocity": 0.76,
        "hand": "right"
      },
      {
        "midi": 66,
        "time": 88.2,
        "duration": 0.15,
        "velocity": 1,
        "hand": "right"
      },
      {
        "midi": 72,
        "time": 88.2,
        "duration": 0.15,
        "velocity": 1,
        "hand": "right"
      },
      {
        "midi": 74,
        "time": 88.2,
        "duration": 0.15,
        "velocity": 1,
        "hand": "right"
      },
      {
        "midi": 78,
        "time": 88.2,
        "duration": 0.15,
        "velocity": 1,
        "hand": "right"
      },
      {
        "midi": 42,
        "time": 88.5,
        "duration": 0.3,
        "velocity": 0.63,
        "hand": "left"
      },
      {
        "midi": 46,
        "time": 88.5,
        "duration": 0.075,
        "velocity": 0.63,
        "hand": "left"
      },
      {
        "midi": 54,
        "time": 88.5,
        "duration": 0.15,
        "velocity": 1,
        "hand": "left"
      },
      {
        "midi": 62,
        "time": 88.5,
        "duration": 0.3,
        "velocity": 0.63,
        "hand": "right"
      },
      {
        "midi": 66,
        "time": 88.5,
        "duration": 0.075,
        "velocity": 1,
        "hand": "right"
      },
      {
        "midi": 72,
        "time": 88.5,
        "duration": 0.15,
        "velocity": 1,
        "hand": "right"
      },
      {
        "midi": 74,
        "time": 88.5,
        "duration": 0.15,
        "velocity": 1,
        "hand": "right"
      },
      {
        "midi": 74,
        "time": 88.5,
        "duration": 0.3,
        "velocity": 1,
        "hand": "right"
      },
      {
        "midi": 84,
        "time": 88.5,
        "duration": 0.15,
        "velocity": 0.66,
        "hand": "right"
      },
      {
        "midi": 86,
        "time": 88.5,
        "duration": 0.15,
        "velocity": 0.54,
        "hand": "right"
      },
      {
        "midi": 67,
        "time": 88.65,
        "duration": 0.075,
        "velocity": 0.84,
        "hand": "right"
      },
      {
        "midi": 83,
        "time": 88.65,
        "duration": 0.15,
        "velocity": 0.61,
        "hand": "right"
      },
      {
        "midi": 38,
        "time": 88.8,
        "duration": 0.3,
        "velocity": 0.63,
        "hand": "left"
      },
      {
        "midi": 43,
        "time": 88.8,
        "duration": 0.3,
        "velocity": 1,
        "hand": "left"
      },
      {
        "midi": 44,
        "time": 88.8,
        "duration": 0.15,
        "velocity": 0.63,
        "hand": "left"
      },
      {
        "midi": 51,
        "time": 88.8,
        "duration": 0.075,
        "velocity": 0.63,
        "hand": "left"
      },
      {
        "midi": 55,
        "time": 88.8,
        "duration": 0.15,
        "velocity": 0.63,
        "hand": "left"
      },
      {
        "midi": 55,
        "time": 88.8,
        "duration": 0.3,
        "velocity": 1,
        "hand": "left"
      },
      {
        "midi": 55,
        "time": 88.8,
        "duration": 0.15,
        "velocity": 1,
        "hand": "left"
      },
      {
        "midi": 59,
        "time": 88.8,
        "duration": 0.15,
        "velocity": 0.78,
        "hand": "left"
      },
      {
        "midi": 67,
        "time": 88.8,
        "duration": 0.075,
        "velocity": 1,
        "hand": "right"
      },
      {
        "midi": 67,
        "time": 88.8,
        "duration": 0.45,
        "velocity": 1,
        "hand": "right"
      },
      {
        "midi": 71,
        "time": 88.8,
        "duration": 0.075,
        "velocity": 1,
        "hand": "right"
      },
      {
        "midi": 74,
        "time": 88.8,
        "duration": 0.075,
        "velocity": 1,
        "hand": "right"
      },
      {
        "midi": 42,
        "time": 89.1,
        "duration": 0.075,
        "velocity": 0.63,
        "hand": "left"
      },
      {
        "midi": 46,
        "time": 89.1,
        "duration": 0.075,
        "velocity": 0.63,
        "hand": "left"
      },
      {
        "midi": 55,
        "time": 89.1,
        "duration": 0.15,
        "velocity": 1,
        "hand": "left"
      },
      {
        "midi": 62,
        "time": 89.1,
        "duration": 0.075,
        "velocity": 0.63,
        "hand": "right"
      },
      {
        "midi": 67,
        "time": 89.1,
        "duration": 0.075,
        "velocity": 1,
        "hand": "right"
      },
      {
        "midi": 71,
        "time": 89.1,
        "duration": 0.075,
        "velocity": 1,
        "hand": "right"
      },
      {
        "midi": 74,
        "time": 89.1,
        "duration": 0.075,
        "velocity": 1,
        "hand": "right"
      },
      {
        "midi": 74,
        "time": 89.1,
        "duration": 0.15,
        "velocity": 0.89,
        "hand": "right"
      },
      {
        "midi": 85,
        "time": 89.1,
        "duration": 0.075,
        "velocity": 0.47,
        "hand": "right"
      },
      {
        "midi": 86,
        "time": 89.1,
        "duration": 0.075,
        "velocity": 0.47,
        "hand": "right"
      },
      {
        "midi": 86,
        "time": 89.1,
        "duration": 0.15,
        "velocity": 0.89,
        "hand": "right"
      },
      {
        "midi": 62,
        "time": 89.25,
        "duration": 0.15,
        "velocity": 0.63,
        "hand": "right"
      },
      {
        "midi": 67,
        "time": 89.25,
        "duration": 0.15,
        "velocity": 0.79,
        "hand": "right"
      },
      {
        "midi": 71,
        "time": 89.25,
        "duration": 0.15,
        "velocity": 0.85,
        "hand": "right"
      },
      {
        "midi": 74,
        "time": 89.25,
        "duration": 0.15,
        "velocity": 0.89,
        "hand": "right"
      },
      {
        "midi": 86,
        "time": 89.25,
        "duration": 0.15,
        "velocity": 0.63,
        "hand": "right"
      },
      {
        "midi": 38,
        "time": 89.4,
        "duration": 0.45,
        "velocity": 0.63,
        "hand": "left"
      },
      {
        "midi": 40,
        "time": 89.4,
        "duration": 0.3,
        "velocity": 1,
        "hand": "left"
      },
      {
        "midi": 42,
        "time": 89.4,
        "duration": 0.15,
        "velocity": 0.63,
        "hand": "left"
      },
      {
        "midi": 44,
        "time": 89.4,
        "duration": 0.075,
        "velocity": 0.63,
        "hand": "left"
      },
      {
        "midi": 52,
        "time": 89.4,
        "duration": 0.6,
        "velocity": 1,
        "hand": "left"
      },
      {
        "midi": 64,
        "time": 89.4,
        "duration": 0.15,
        "velocity": 0.63,
        "hand": "right"
      },
      {
        "midi": 68,
        "time": 89.4,
        "duration": 0.15,
        "velocity": 0.96,
        "hand": "right"
      },
      {
        "midi": 71,
        "time": 89.4,
        "duration": 0.075,
        "velocity": 0.97,
        "hand": "right"
      },
      {
        "midi": 72,
        "time": 89.4,
        "duration": 0.075,
        "velocity": 0.74,
        "hand": "right"
      },
      {
        "midi": 76,
        "time": 89.4,
        "duration": 0.075,
        "velocity": 1,
        "hand": "right"
      },
      {
        "midi": 76,
        "time": 89.4,
        "duration": 0.3,
        "velocity": 0.99,
        "hand": "right"
      },
      {
        "midi": 88,
        "time": 89.4,
        "duration": 0.15,
        "velocity": 0.47,
        "hand": "right"
      },
      {
        "midi": 88,
        "time": 89.4,
        "duration": 0.3,
        "velocity": 0.99,
        "hand": "right"
      },
      {
        "midi": 62,
        "time": 89.55,
        "duration": 0.075,
        "velocity": 0.63,
        "hand": "right"
      },
      {
        "midi": 64,
        "time": 89.55,
        "duration": 0.15,
        "velocity": 0.63,
        "hand": "right"
      },
      {
        "midi": 86,
        "time": 89.55,
        "duration": 0.15,
        "velocity": 0.47,
        "hand": "right"
      },
      {
        "midi": 42,
        "time": 89.7,
        "duration": 0.15,
        "velocity": 0.63,
        "hand": "left"
      },
      {
        "midi": 46,
        "time": 89.7,
        "duration": 0.15,
        "velocity": 0.63,
        "hand": "left"
      },
      {
        "midi": 56,
        "time": 89.7,
        "duration": 0.15,
        "velocity": 0.76,
        "hand": "left"
      },
      {
        "midi": 62,
        "time": 89.7,
        "duration": 0.3,
        "velocity": 0.63,
        "hand": "right"
      },
      {
        "midi": 68,
        "time": 89.7,
        "duration": 0.15,
        "velocity": 1,
        "hand": "right"
      },
      {
        "midi": 70,
        "time": 89.7,
        "duration": 0.075,
        "velocity": 1,
        "hand": "right"
      },
      {
        "midi": 71,
        "time": 89.7,
        "duration": 0.075,
        "velocity": 1,
        "hand": "right"
      },
      {
        "midi": 74,
        "time": 89.7,
        "duration": 0.3,
        "velocity": 0.99,
        "hand": "right"
      },
      {
        "midi": 76,
        "time": 89.7,
        "duration": 0.075,
        "velocity": 1,
        "hand": "right"
      },
      {
        "midi": 86,
        "time": 89.7,
        "duration": 0.3,
        "velocity": 0.99,
        "hand": "right"
      },
      {
        "midi": 72,
        "time": 89.85,
        "duration": 0.15,
        "velocity": 1,
        "hand": "right"
      },
      {
        "midi": 84,
        "time": 89.85,
        "duration": 0.3,
        "velocity": 0.47,
        "hand": "right"
      },
      {
        "midi": 84,
        "time": 89.85,
        "duration": 0.15,
        "velocity": 1,
        "hand": "right"
      },
      {
        "midi": 38,
        "time": 90,
        "duration": 0.075,
        "velocity": 0.63,
        "hand": "left"
      },
      {
        "midi": 42,
        "time": 90,
        "duration": 0.15,
        "velocity": 0.63,
        "hand": "left"
      },
      {
        "midi": 44,
        "time": 90,
        "duration": 0.075,
        "velocity": 0.63,
        "hand": "left"
      },
      {
        "midi": 45,
        "time": 90,
        "duration": 0.15,
        "velocity": 1,
        "hand": "left"
      },
      {
        "midi": 51,
        "time": 90,
        "duration": 0.075,
        "velocity": 0.63,
        "hand": "left"
      },
      {
        "midi": 57,
        "time": 90,
        "duration": 0.15,
        "velocity": 0.99,
        "hand": "left"
      },
      {
        "midi": 60,
        "time": 90,
        "duration": 0.3,
        "velocity": 0.63,
        "hand": "right"
      },
      {
        "midi": 69,
        "time": 90,
        "duration": 0.15,
        "velocity": 1,
        "hand": "right"
      },
      {
        "midi": 72,
        "time": 90,
        "duration": 0.075,
        "velocity": 1,
        "hand": "right"
      },
      {
        "midi": 72,
        "time": 90,
        "duration": 0.15,
        "velocity": 0.87,
        "hand": "right"
      },
      {
        "midi": 76,
        "time": 90,
        "duration": 0.075,
        "velocity": 1,
        "hand": "right"
      },
      {
        "midi": 69,
        "time": 90.15,
        "duration": 0.075,
        "velocity": 0.99,
        "hand": "right"
      },
      {
        "midi": 72,
        "time": 90.15,
        "duration": 0.075,
        "velocity": 1,
        "hand": "right"
      },
      {
        "midi": 44,
        "time": 90.3,
        "duration": 0.075,
        "velocity": 0.63,
        "hand": "left"
      },
      {
        "midi": 46,
        "time": 90.3,
        "duration": 0.075,
        "velocity": 0.63,
        "hand": "left"
      },
      {
        "midi": 55,
        "time": 90.3,
        "duration": 0.15,
        "velocity": 0.99,
        "hand": "left"
      },
      {
        "midi": 57,
        "time": 90.3,
        "duration": 0.15,
        "velocity": 0.63,
        "hand": "left"
      },
      {
        "midi": 69,
        "time": 90.3,
        "duration": 0.075,
        "velocity": 0.77,
        "hand": "right"
      },
      {
        "midi": 72,
        "time": 90.3,
        "duration": 0.075,
        "velocity": 1,
        "hand": "right"
      },
      {
        "midi": 72,
        "time": 90.3,
        "duration": 0.15,
        "velocity": 1,
        "hand": "right"
      },
      {
        "midi": 76,
        "time": 90.3,
        "duration": 0.075,
        "velocity": 0.83,
        "hand": "right"
      },
      {
        "midi": 81,
        "time": 90.3,
        "duration": 0.15,
        "velocity": 0.47,
        "hand": "right"
      },
      {
        "midi": 84,
        "time": 90.3,
        "duration": 0.15,
        "velocity": 1,
        "hand": "right"
      },
      {
        "midi": 44,
        "time": 90.45,
        "duration": 0.15,
        "velocity": 0.63,
        "hand": "left"
      },
      {
        "midi": 46,
        "time": 90.45,
        "duration": 0.075,
        "velocity": 0.63,
        "hand": "left"
      },
      {
        "midi": 57,
        "time": 90.45,
        "duration": 0.15,
        "velocity": 0.63,
        "hand": "left"
      },
      {
        "midi": 69,
        "time": 90.45,
        "duration": 0.15,
        "velocity": 0.94,
        "hand": "right"
      },
      {
        "midi": 74,
        "time": 90.45,
        "duration": 0.075,
        "velocity": 1,
        "hand": "right"
      },
      {
        "midi": 74,
        "time": 90.45,
        "duration": 0.3,
        "velocity": 1,
        "hand": "right"
      },
      {
        "midi": 78,
        "time": 90.45,
        "duration": 0.075,
        "velocity": 1,
        "hand": "right"
      },
      {
        "midi": 81,
        "time": 90.45,
        "duration": 0.15,
        "velocity": 0.47,
        "hand": "right"
      },
      {
        "midi": 38,
        "time": 90.6,
        "duration": 0.3,
        "velocity": 1,
        "hand": "left"
      },
      {
        "midi": 38,
        "time": 90.6,
        "duration": 0.15,
        "velocity": 0.63,
        "hand": "left"
      },
      {
        "midi": 42,
        "time": 90.6,
        "duration": 0.15,
        "velocity": 0.63,
        "hand": "left"
      },
      {
        "midi": 54,
        "time": 90.6,
        "duration": 0.6,
        "velocity": 0.91,
        "hand": "left"
      },
      {
        "midi": 62,
        "time": 90.6,
        "duration": 0.3,
        "velocity": 0.63,
        "hand": "right"
      },
      {
        "midi": 74,
        "time": 90.6,
        "duration": 0.15,
        "velocity": 0.97,
        "hand": "right"
      },
      {
        "midi": 86,
        "time": 90.6,
        "duration": 0.075,
        "velocity": 0.47,
        "hand": "right"
      },
      {
        "midi": 86,
        "time": 90.6,
        "duration": 0.15,
        "velocity": 0.97,
        "hand": "right"
      },
      {
        "midi": 72,
        "time": 90.75,
        "duration": 0.3,
        "velocity": 1,
        "hand": "right"
      },
      {
        "midi": 38,
        "time": 90.9,
        "duration": 0.15,
        "velocity": 0.63,
        "hand": "left"
      },
      {
        "midi": 42,
        "time": 90.9,
        "duration": 0.15,
        "velocity": 0.63,
        "hand": "left"
      },
      {
        "midi": 46,
        "time": 90.9,
        "duration": 0.075,
        "velocity": 0.63,
        "hand": "left"
      },
      {
        "midi": 54,
        "time": 90.9,
        "duration": 0.15,
        "velocity": 1,
        "hand": "left"
      },
      {
        "midi": 60,
        "time": 90.9,
        "duration": 0.3,
        "velocity": 0.63,
        "hand": "right"
      },
      {
        "midi": 69,
        "time": 90.9,
        "duration": 0.15,
        "velocity": 1,
        "hand": "right"
      },
      {
        "midi": 74,
        "time": 90.9,
        "duration": 0.15,
        "velocity": 1,
        "hand": "right"
      },
      {
        "midi": 78,
        "time": 90.9,
        "duration": 0.075,
        "velocity": 1,
        "hand": "right"
      },
      {
        "midi": 84,
        "time": 90.9,
        "duration": 0.15,
        "velocity": 0.47,
        "hand": "right"
      },
      {
        "midi": 86,
        "time": 90.9,
        "duration": 0.15,
        "velocity": 1,
        "hand": "right"
      },
      {
        "midi": 72,
        "time": 91.05,
        "duration": 0.15,
        "velocity": 0.94,
        "hand": "right"
      },
      {
        "midi": 84,
        "time": 91.05,
        "duration": 0.15,
        "velocity": 0.94,
        "hand": "right"
      },
      {
        "midi": 38,
        "time": 91.2,
        "duration": 0.075,
        "velocity": 0.63,
        "hand": "left"
      },
      {
        "midi": 42,
        "time": 91.2,
        "duration": 0.075,
        "velocity": 0.63,
        "hand": "left"
      },
      {
        "midi": 43,
        "time": 91.2,
        "duration": 0.3,
        "velocity": 1,
        "hand": "left"
      },
      {
        "midi": 44,
        "time": 91.2,
        "duration": 0.15,
        "velocity": 0.63,
        "hand": "left"
      },
      {
        "midi": 51,
        "time": 91.2,
        "duration": 0.075,
        "velocity": 0.63,
        "hand": "left"
      },
      {
        "midi": 55,
        "time": 91.2,
        "duration": 0.3,
        "velocity": 0.92,
        "hand": "left"
      },
      {
        "midi": 59,
        "time": 91.2,
        "duration": 0.15,
        "velocity": 0.63,
        "hand": "left"
      },
      {
        "midi": 71,
        "time": 91.2,
        "duration": 0.075,
        "velocity": 1,
        "hand": "right"
      },
      {
        "midi": 71,
        "time": 91.2,
        "duration": 0.15,
        "velocity": 1,
        "hand": "right"
      },
      {
        "midi": 74,
        "time": 91.2,
        "duration": 0.15,
        "velocity": 1,
        "hand": "right"
      },
      {
        "midi": 77,
        "time": 91.2,
        "duration": 0.075,
        "velocity": 0.76,
        "hand": "right"
      },
      {
        "midi": 79,
        "time": 91.2,
        "duration": 0.15,
        "velocity": 1,
        "hand": "right"
      },
      {
        "midi": 83,
        "time": 91.2,
        "duration": 0.15,
        "velocity": 0.47,
        "hand": "right"
      },
      {
        "midi": 83,
        "time": 91.2,
        "duration": 0.075,
        "velocity": 0.99,
        "hand": "right"
      },
      {
        "midi": 44,
        "time": 91.5,
        "duration": 0.075,
        "velocity": 0.63,
        "hand": "left"
      },
      {
        "midi": 46,
        "time": 91.5,
        "duration": 0.075,
        "velocity": 0.63,
        "hand": "left"
      },
      {
        "midi": 55,
        "time": 91.5,
        "duration": 0.15,
        "velocity": 1,
        "hand": "left"
      },
      {
        "midi": 59,
        "time": 91.5,
        "duration": 0.075,
        "velocity": 0.63,
        "hand": "left"
      },
      {
        "midi": 71,
        "time": 91.5,
        "duration": 0.075,
        "velocity": 1,
        "hand": "right"
      },
      {
        "midi": 71,
        "time": 91.5,
        "duration": 0.15,
        "velocity": 1,
        "hand": "right"
      },
      {
        "midi": 74,
        "time": 91.5,
        "duration": 0.075,
        "velocity": 1,
        "hand": "right"
      },
      {
        "midi": 79,
        "time": 91.5,
        "duration": 0.075,
        "velocity": 0.99,
        "hand": "right"
      },
      {
        "midi": 79,
        "time": 91.5,
        "duration": 0.15,
        "velocity": 0.65,
        "hand": "right"
      },
      {
        "midi": 83,
        "time": 91.5,
        "duration": 0.15,
        "velocity": 0.47,
        "hand": "right"
      },
      {
        "midi": 44,
        "time": 91.65,
        "duration": 0.075,
        "velocity": 0.63,
        "hand": "left"
      },
      {
        "midi": 46,
        "time": 91.65,
        "duration": 0.075,
        "velocity": 0.63,
        "hand": "left"
      },
      {
        "midi": 55,
        "time": 91.65,
        "duration": 0.15,
        "velocity": 0.63,
        "hand": "left"
      },
      {
        "midi": 67,
        "time": 91.65,
        "duration": 0.15,
        "velocity": 0.83,
        "hand": "right"
      },
      {
        "midi": 71,
        "time": 91.65,
        "duration": 0.075,
        "velocity": 0.65,
        "hand": "right"
      },
      {
        "midi": 71,
        "time": 91.65,
        "duration": 0.15,
        "velocity": 0.99,
        "hand": "right"
      },
      {
        "midi": 74,
        "time": 91.65,
        "duration": 0.075,
        "velocity": 0.76,
        "hand": "right"
      },
      {
        "midi": 79,
        "time": 91.65,
        "duration": 0.15,
        "velocity": 0.47,
        "hand": "right"
      },
      {
        "midi": 38,
        "time": 91.8,
        "duration": 0.15,
        "velocity": 0.63,
        "hand": "left"
      },
      {
        "midi": 40,
        "time": 91.8,
        "duration": 0.3,
        "velocity": 1,
        "hand": "left"
      },
      {
        "midi": 42,
        "time": 91.8,
        "duration": 0.15,
        "velocity": 0.63,
        "hand": "left"
      },
      {
        "midi": 52,
        "time": 91.8,
        "duration": 0.3,
        "velocity": 1,
        "hand": "left"
      },
      {
        "midi": 64,
        "time": 91.8,
        "duration": 0.15,
        "velocity": 0.63,
        "hand": "right"
      },
      {
        "midi": 68,
        "time": 91.8,
        "duration": 0.075,
        "velocity": 1,
        "hand": "right"
      },
      {
        "midi": 72,
        "time": 91.8,
        "duration": 0.075,
        "velocity": 1,
        "hand": "right"
      },
      {
        "midi": 76,
        "time": 91.8,
        "duration": 0.15,
        "velocity": 1,
        "hand": "right"
      },
      {
        "midi": 80,
        "time": 91.8,
        "duration": 0.15,
        "velocity": 1,
        "hand": "right"
      },
      {
        "midi": 84,
        "time": 91.8,
        "duration": 0.075,
        "velocity": 0.47,
        "hand": "right"
      },
      {
        "midi": 38,
        "time": 92.1,
        "duration": 0.075,
        "velocity": 0.63,
        "hand": "left"
      },
      {
        "midi": 42,
        "time": 92.1,
        "duration": 0.15,
        "velocity": 0.63,
        "hand": "left"
      },
      {
        "midi": 46,
        "time": 92.1,
        "duration": 0.075,
        "velocity": 0.63,
        "hand": "left"
      },
      {
        "midi": 50,
        "time": 92.1,
        "duration": 0.45,
        "velocity": 0.94,
        "hand": "left"
      },
      {
        "midi": 56,
        "time": 92.1,
        "duration": 0.15,
        "velocity": 1,
        "hand": "left"
      },
      {
        "midi": 63,
        "time": 92.1,
        "duration": 0.075,
        "velocity": 0.63,
        "hand": "right"
      },
      {
        "midi": 64,
        "time": 92.1,
        "duration": 0.15,
        "velocity": 0.63,
        "hand": "right"
      },
      {
        "midi": 68,
        "time": 92.1,
        "duration": 0.3,
        "velocity": 1,
        "hand": "right"
      },
      {
        "midi": 71,
        "time": 92.1,
        "duration": 0.075,
        "velocity": 1,
        "hand": "right"
      },
      {
        "midi": 72,
        "time": 92.1,
        "duration": 0.15,
        "velocity": 1,
        "hand": "right"
      },
      {
        "midi": 76,
        "time": 92.1,
        "duration": 0.15,
        "velocity": 1,
        "hand": "right"
      },
      {
        "midi": 80,
        "time": 92.1,
        "duration": 0.15,
        "velocity": 1,
        "hand": "right"
      },
      {
        "midi": 84,
        "time": 92.1,
        "duration": 0.15,
        "velocity": 0.47,
        "hand": "right"
      },
      {
        "midi": 62,
        "time": 92.25,
        "duration": 0.15,
        "velocity": 0.63,
        "hand": "right"
      },
      {
        "midi": 71,
        "time": 92.25,
        "duration": 0.15,
        "velocity": 0.87,
        "hand": "right"
      },
      {
        "midi": 83,
        "time": 92.25,
        "duration": 0.15,
        "velocity": 0.47,
        "hand": "right"
      },
      {
        "midi": 38,
        "time": 92.4,
        "duration": 0.075,
        "velocity": 0.63,
        "hand": "left"
      },
      {
        "midi": 42,
        "time": 92.4,
        "duration": 0.075,
        "velocity": 0.63,
        "hand": "left"
      },
      {
        "midi": 44,
        "time": 92.4,
        "duration": 0.075,
        "velocity": 0.63,
        "hand": "left"
      },
      {
        "midi": 45,
        "time": 92.4,
        "duration": 0.15,
        "velocity": 1,
        "hand": "left"
      },
      {
        "midi": 48,
        "time": 92.4,
        "duration": 0.45,
        "velocity": 1,
        "hand": "left"
      },
      {
        "midi": 51,
        "time": 92.4,
        "duration": 0.075,
        "velocity": 0.63,
        "hand": "left"
      },
      {
        "midi": 60,
        "time": 92.4,
        "duration": 0.075,
        "velocity": 0.63,
        "hand": "right"
      },
      {
        "midi": 69,
        "time": 92.4,
        "duration": 0.075,
        "velocity": 0.99,
        "hand": "right"
      },
      {
        "midi": 69,
        "time": 92.4,
        "duration": 0.15,
        "velocity": 0.92,
        "hand": "right"
      },
      {
        "midi": 72,
        "time": 92.4,
        "duration": 0.075,
        "velocity": 1,
        "hand": "right"
      },
      {
        "midi": 76,
        "time": 92.4,
        "duration": 0.075,
        "velocity": 1,
        "hand": "right"
      },
      {
        "midi": 81,
        "time": 92.4,
        "duration": 0.15,
        "velocity": 0.47,
        "hand": "right"
      },
      {
        "midi": 44,
        "time": 92.7,
        "duration": 0.075,
        "velocity": 0.63,
        "hand": "left"
      },
      {
        "midi": 46,
        "time": 92.7,
        "duration": 0.075,
        "velocity": 0.63,
        "hand": "left"
      },
      {
        "midi": 57,
        "time": 92.7,
        "duration": 0.075,
        "velocity": 1,
        "hand": "left"
      },
      {
        "midi": 60,
        "time": 92.7,
        "duration": 0.075,
        "velocity": 0.63,
        "hand": "right"
      },
      {
        "midi": 60,
        "time": 92.7,
        "duration": 0.15,
        "velocity": 0.63,
        "hand": "right"
      },
      {
        "midi": 69,
        "time": 92.7,
        "duration": 0.075,
        "velocity": 0.97,
        "hand": "right"
      },
      {
        "midi": 72,
        "time": 92.7,
        "duration": 0.075,
        "velocity": 1,
        "hand": "right"
      },
      {
        "midi": 76,
        "time": 92.7,
        "duration": 0.075,
        "velocity": 0.99,
        "hand": "right"
      },
      {
        "midi": 81,
        "time": 92.7,
        "duration": 0.075,
        "velocity": 0.47,
        "hand": "right"
      },
      {
        "midi": 44,
        "time": 92.85,
        "duration": 0.15,
        "velocity": 0.63,
        "hand": "left"
      },
      {
        "midi": 46,
        "time": 92.85,
        "duration": 0.075,
        "velocity": 0.63,
        "hand": "left"
      },
      {
        "midi": 69,
        "time": 92.85,
        "duration": 0.075,
        "velocity": 0.39,
        "hand": "right"
      },
      {
        "midi": 69,
        "time": 92.85,
        "duration": 0.15,
        "velocity": 0.85,
        "hand": "right"
      },
      {
        "midi": 72,
        "time": 92.85,
        "duration": 0.15,
        "velocity": 0.79,
        "hand": "right"
      },
      {
        "midi": 74,
        "time": 92.85,
        "duration": 0.075,
        "velocity": 0.76,
        "hand": "right"
      },
      {
        "midi": 76,
        "time": 92.85,
        "duration": 0.075,
        "velocity": 0.57,
        "hand": "right"
      },
      {
        "midi": 81,
        "time": 92.85,
        "duration": 0.15,
        "velocity": 0.47,
        "hand": "right"
      },
      {
        "midi": 38,
        "time": 93,
        "duration": 0.3,
        "velocity": 1,
        "hand": "left"
      },
      {
        "midi": 42,
        "time": 93,
        "duration": 0.3,
        "velocity": 0.63,
        "hand": "left"
      },
      {
        "midi": 46,
        "time": 93,
        "duration": 0.075,
        "velocity": 0.63,
        "hand": "left"
      },
      {
        "midi": 50,
        "time": 93,
        "duration": 0.6,
        "velocity": 1,
        "hand": "left"
      },
      {
        "midi": 51,
        "time": 93,
        "duration": 0.15,
        "velocity": 0.63,
        "hand": "left"
      },
      {
        "midi": 66,
        "time": 93,
        "duration": 0.15,
        "velocity": 1,
        "hand": "right"
      },
      {
        "midi": 72,
        "time": 93,
        "duration": 0.15,
        "velocity": 1,
        "hand": "right"
      },
      {
        "midi": 74,
        "time": 93,
        "duration": 0.075,
        "velocity": 1,
        "hand": "right"
      },
      {
        "midi": 74,
        "time": 93,
        "duration": 0.15,
        "velocity": 1,
        "hand": "right"
      },
      {
        "midi": 86,
        "time": 93,
        "duration": 0.15,
        "velocity": 0.47,
        "hand": "right"
      },
      {
        "midi": 46,
        "time": 93.3,
        "duration": 0.075,
        "velocity": 0.63,
        "hand": "left"
      },
      {
        "midi": 54,
        "time": 93.3,
        "duration": 0.15,
        "velocity": 0.93,
        "hand": "left"
      },
      {
        "midi": 62,
        "time": 93.3,
        "duration": 0.3,
        "velocity": 0.63,
        "hand": "right"
      },
      {
        "midi": 66,
        "time": 93.3,
        "duration": 0.075,
        "velocity": 1,
        "hand": "right"
      },
      {
        "midi": 72,
        "time": 93.3,
        "duration": 0.075,
        "velocity": 1,
        "hand": "right"
      },
      {
        "midi": 74,
        "time": 93.3,
        "duration": 0.075,
        "velocity": 1,
        "hand": "right"
      },
      {
        "midi": 74,
        "time": 93.3,
        "duration": 0.3,
        "velocity": 1,
        "hand": "right"
      },
      {
        "midi": 74,
        "time": 93.3,
        "duration": 0.15,
        "velocity": 1,
        "hand": "right"
      },
      {
        "midi": 86,
        "time": 93.3,
        "duration": 0.15,
        "velocity": 0.47,
        "hand": "right"
      },
      {
        "midi": 86,
        "time": 93.3,
        "duration": 0.3,
        "velocity": 1,
        "hand": "right"
      },
      {
        "midi": 67,
        "time": 93.45,
        "duration": 0.15,
        "velocity": 1,
        "hand": "right"
      },
      {
        "midi": 38,
        "time": 93.6,
        "duration": 0.075,
        "velocity": 0.63,
        "hand": "left"
      },
      {
        "midi": 42,
        "time": 93.6,
        "duration": 0.15,
        "velocity": 0.63,
        "hand": "left"
      },
      {
        "midi": 43,
        "time": 93.6,
        "duration": 0.15,
        "velocity": 1,
        "hand": "left"
      },
      {
        "midi": 44,
        "time": 93.6,
        "duration": 0.15,
        "velocity": 0.63,
        "hand": "left"
      },
      {
        "midi": 46,
        "time": 93.6,
        "duration": 0.075,
        "velocity": 0.63,
        "hand": "left"
      },
      {
        "midi": 51,
        "time": 93.6,
        "duration": 0.15,
        "velocity": 0.63,
        "hand": "left"
      },
      {
        "midi": 55,
        "time": 93.6,
        "duration": 0.075,
        "velocity": 1,
        "hand": "left"
      },
      {
        "midi": 55,
        "time": 93.6,
        "duration": 0.6,
        "velocity": 0.97,
        "hand": "left"
      },
      {
        "midi": 67,
        "time": 93.6,
        "duration": 0.15,
        "velocity": 1,
        "hand": "right"
      },
      {
        "midi": 67,
        "time": 93.6,
        "duration": 1.95,
        "velocity": 0.63,
        "hand": "right"
      },
      {
        "midi": 69,
        "time": 93.6,
        "duration": 0.15,
        "velocity": 0.83,
        "hand": "right"
      },
      {
        "midi": 71,
        "time": 93.6,
        "duration": 0.3,
        "velocity": 1,
        "hand": "right"
      },
      {
        "midi": 74,
        "time": 93.6,
        "duration": 1.35,
        "velocity": 1,
        "hand": "right"
      },
      {
        "midi": 79,
        "time": 93.6,
        "duration": 1.35,
        "velocity": 0.47,
        "hand": "right"
      },
      {
        "midi": 79,
        "time": 93.6,
        "duration": 1.95,
        "velocity": 1,
        "hand": "right"
      },
      {
        "midi": 67,
        "time": 93.9,
        "duration": 0.075,
        "velocity": 0.79,
        "hand": "right"
      },
      {
        "midi": 38,
        "time": 94.2,
        "duration": 0.3,
        "velocity": 1,
        "hand": "left"
      },
      {
        "midi": 38,
        "time": 94.2,
        "duration": 0.15,
        "velocity": 0.63,
        "hand": "left"
      },
      {
        "midi": 42,
        "time": 94.2,
        "duration": 0.15,
        "velocity": 0.63,
        "hand": "left"
      },
      {
        "midi": 44,
        "time": 94.2,
        "duration": 0.15,
        "velocity": 0.63,
        "hand": "left"
      },
      {
        "midi": 46,
        "time": 94.2,
        "duration": 0.075,
        "velocity": 0.63,
        "hand": "left"
      },
      {
        "midi": 50,
        "time": 94.2,
        "duration": 0.6,
        "velocity": 1,
        "hand": "left"
      },
      {
        "midi": 50,
        "time": 94.2,
        "duration": 0.45,
        "velocity": 0.81,
        "hand": "left"
      },
      {
        "midi": 67,
        "time": 94.2,
        "duration": 0.075,
        "velocity": 0.89,
        "hand": "right"
      },
      {
        "midi": 71,
        "time": 94.2,
        "duration": 0.075,
        "velocity": 0.85,
        "hand": "right"
      },
      {
        "midi": 67,
        "time": 94.5,
        "duration": 0.075,
        "velocity": 0.79,
        "hand": "right"
      },
      {
        "midi": 71,
        "time": 94.5,
        "duration": 0.075,
        "velocity": 0.72,
        "hand": "right"
      },
      {
        "midi": 42,
        "time": 94.65,
        "duration": 0.075,
        "velocity": 0.63,
        "hand": "left"
      },
      {
        "midi": 50,
        "time": 94.65,
        "duration": 0.075,
        "velocity": 0.89,
        "hand": "left"
      },
      {
        "midi": 38,
        "time": 94.8,
        "duration": 0.15,
        "velocity": 0.63,
        "hand": "left"
      },
      {
        "midi": 42,
        "time": 94.8,
        "duration": 0.15,
        "velocity": 0.63,
        "hand": "left"
      },
      {
        "midi": 43,
        "time": 94.8,
        "duration": 0.75,
        "velocity": 1,
        "hand": "left"
      },
      {
        "midi": 43,
        "time": 94.8,
        "duration": 0.6,
        "velocity": 0.99,
        "hand": "left"
      },
      {
        "midi": 44,
        "time": 94.8,
        "duration": 0.075,
        "velocity": 0.63,
        "hand": "left"
      },
      {
        "midi": 46,
        "time": 94.8,
        "duration": 0.075,
        "velocity": 0.63,
        "hand": "left"
      },
      {
        "midi": 51,
        "time": 94.8,
        "duration": 0.075,
        "velocity": 0.63,
        "hand": "left"
      },
      {
        "midi": 55,
        "time": 94.8,
        "duration": 0.6,
        "velocity": 1,
        "hand": "left"
      },
      {
        "midi": 67,
        "time": 94.8,
        "duration": 0.15,
        "velocity": 1,
        "hand": "right"
      },
      {
        "midi": 71,
        "time": 94.8,
        "duration": 0.15,
        "velocity": 1,
        "hand": "right"
      }
    ]
  },
  "notes1Hand": [
    {
      "midi": 71,
      "time": 0,
      "duration": 0.2,
      "velocity": 0.97,
      "hand": "right"
    },
    {
      "midi": 71,
      "time": 0.3,
      "duration": 0.2,
      "velocity": 0.92,
      "hand": "right"
    },
    {
      "midi": 71,
      "time": 0.45,
      "duration": 0.2,
      "velocity": 0.73,
      "hand": "right"
    },
    {
      "midi": 72,
      "time": 0.9,
      "duration": 0.2,
      "velocity": 1,
      "hand": "right"
    },
    {
      "midi": 71,
      "time": 1.2,
      "duration": 0.2,
      "velocity": 1,
      "hand": "right"
    },
    {
      "midi": 71,
      "time": 1.5,
      "duration": 0.2,
      "velocity": 0.97,
      "hand": "right"
    },
    {
      "midi": 71,
      "time": 1.8,
      "duration": 0.2,
      "velocity": 0.89,
      "hand": "right"
    },
    {
      "midi": 72,
      "time": 2.1,
      "duration": 0.2,
      "velocity": 1,
      "hand": "right"
    },
    {
      "midi": 71,
      "time": 2.4,
      "duration": 0.2,
      "velocity": 1,
      "hand": "right"
    },
    {
      "midi": 71,
      "time": 2.7,
      "duration": 0.2,
      "velocity": 1,
      "hand": "right"
    },
    {
      "midi": 72,
      "time": 2.85,
      "duration": 0.2,
      "velocity": 1,
      "hand": "right"
    },
    {
      "midi": 71,
      "time": 3,
      "duration": 0.2,
      "velocity": 0.99,
      "hand": "right"
    },
    {
      "midi": 72,
      "time": 3.3,
      "duration": 0.2,
      "velocity": 1,
      "hand": "right"
    },
    {
      "midi": 46,
      "time": 3.45,
      "duration": 0.2,
      "velocity": 0.63,
      "hand": "right"
    },
    {
      "midi": 71,
      "time": 3.6,
      "duration": 0.45,
      "velocity": 1,
      "hand": "right"
    },
    {
      "midi": 86,
      "time": 3.9,
      "duration": 0.2,
      "velocity": 0.92,
      "hand": "right"
    },
    {
      "midi": 91,
      "time": 4.05,
      "duration": 0.2,
      "velocity": 0.8,
      "hand": "right"
    },
    {
      "midi": 86,
      "time": 4.2,
      "duration": 0.2,
      "velocity": 0.92,
      "hand": "right"
    },
    {
      "midi": 83,
      "time": 4.5,
      "duration": 0.2,
      "velocity": 0.92,
      "hand": "right"
    },
    {
      "midi": 79,
      "time": 4.8,
      "duration": 2.4,
      "velocity": 0.92,
      "hand": "right"
    },
    {
      "midi": 74,
      "time": 5.1,
      "duration": 0.2,
      "velocity": 1,
      "hand": "right"
    },
    {
      "midi": 74,
      "time": 5.25,
      "duration": 0.2,
      "velocity": 0.99,
      "hand": "right"
    },
    {
      "midi": 74,
      "time": 5.4,
      "duration": 0.2,
      "velocity": 0.94,
      "hand": "right"
    },
    {
      "midi": 73,
      "time": 5.7,
      "duration": 0.2,
      "velocity": 1,
      "hand": "right"
    },
    {
      "midi": 74,
      "time": 6,
      "duration": 0.2,
      "velocity": 1,
      "hand": "right"
    },
    {
      "midi": 74,
      "time": 6.3,
      "duration": 0.2,
      "velocity": 1,
      "hand": "right"
    },
    {
      "midi": 74,
      "time": 6.45,
      "duration": 0.2,
      "velocity": 0.76,
      "hand": "right"
    },
    {
      "midi": 73,
      "time": 6.9,
      "duration": 0.2,
      "velocity": 1,
      "hand": "right"
    },
    {
      "midi": 74,
      "time": 7.2,
      "duration": 0.2,
      "velocity": 1,
      "hand": "right"
    },
    {
      "midi": 74,
      "time": 7.5,
      "duration": 0.2,
      "velocity": 0.97,
      "hand": "right"
    },
    {
      "midi": 73,
      "time": 7.65,
      "duration": 0.2,
      "velocity": 0.89,
      "hand": "right"
    },
    {
      "midi": 74,
      "time": 7.8,
      "duration": 0.2,
      "velocity": 0.89,
      "hand": "right"
    },
    {
      "midi": 76,
      "time": 8.1,
      "duration": 0.2,
      "velocity": 0.99,
      "hand": "right"
    },
    {
      "midi": 66,
      "time": 8.25,
      "duration": 0.2,
      "velocity": 1,
      "hand": "right"
    },
    {
      "midi": 74,
      "time": 8.4,
      "duration": 0.6,
      "velocity": 1,
      "hand": "right"
    },
    {
      "midi": 95,
      "time": 8.7,
      "duration": 0.2,
      "velocity": 0.76,
      "hand": "right"
    },
    {
      "midi": 91,
      "time": 8.85,
      "duration": 0.2,
      "velocity": 0.91,
      "hand": "right"
    },
    {
      "midi": 86,
      "time": 9,
      "duration": 0.2,
      "velocity": 0.92,
      "hand": "right"
    },
    {
      "midi": 91,
      "time": 9.3,
      "duration": 0.3,
      "velocity": 0.92,
      "hand": "right"
    },
    {
      "midi": 90,
      "time": 9.6,
      "duration": 1.35,
      "velocity": 0.92,
      "hand": "right"
    },
    {
      "midi": 74,
      "time": 9.9,
      "duration": 0.2,
      "velocity": 0.94,
      "hand": "right"
    },
    {
      "midi": 74,
      "time": 10.05,
      "duration": 0.2,
      "velocity": 0.87,
      "hand": "right"
    },
    {
      "midi": 76,
      "time": 10.5,
      "duration": 0.2,
      "velocity": 1,
      "hand": "right"
    },
    {
      "midi": 74,
      "time": 10.8,
      "duration": 0.3,
      "velocity": 1,
      "hand": "right"
    },
    {
      "midi": 96,
      "time": 11.1,
      "duration": 0.2,
      "velocity": 0.92,
      "hand": "right"
    },
    {
      "midi": 95,
      "time": 11.25,
      "duration": 0.2,
      "velocity": 0.62,
      "hand": "right"
    },
    {
      "midi": 97,
      "time": 11.4,
      "duration": 0.2,
      "velocity": 0.65,
      "hand": "right"
    },
    {
      "midi": 90,
      "time": 11.7,
      "duration": 0.3,
      "velocity": 0.92,
      "hand": "right"
    },
    {
      "midi": 46,
      "time": 11.85,
      "duration": 0.2,
      "velocity": 0.63,
      "hand": "right"
    },
    {
      "midi": 93,
      "time": 12,
      "duration": 0.2,
      "velocity": 0.84,
      "hand": "right"
    },
    {
      "midi": 93,
      "time": 12.15,
      "duration": 0.2,
      "velocity": 0.8,
      "hand": "right"
    },
    {
      "midi": 91,
      "time": 12.3,
      "duration": 0.3,
      "velocity": 0.89,
      "hand": "right"
    },
    {
      "midi": 74,
      "time": 12.45,
      "duration": 0.2,
      "velocity": 0.94,
      "hand": "right"
    },
    {
      "midi": 85,
      "time": 12.6,
      "duration": 0.2,
      "velocity": 0.81,
      "hand": "right"
    },
    {
      "midi": 73,
      "time": 12.9,
      "duration": 0.2,
      "velocity": 1,
      "hand": "right"
    },
    {
      "midi": 74,
      "time": 13.2,
      "duration": 0.45,
      "velocity": 1,
      "hand": "right"
    },
    {
      "midi": 60,
      "time": 13.35,
      "duration": 0.2,
      "velocity": 0.79,
      "hand": "right"
    },
    {
      "midi": 84,
      "time": 13.5,
      "duration": 0.2,
      "velocity": 0.92,
      "hand": "right"
    },
    {
      "midi": 85,
      "time": 13.65,
      "duration": 0.2,
      "velocity": 0.81,
      "hand": "right"
    },
    {
      "midi": 88,
      "time": 13.8,
      "duration": 0.2,
      "velocity": 0.91,
      "hand": "right"
    },
    {
      "midi": 86,
      "time": 13.95,
      "duration": 0.2,
      "velocity": 0.92,
      "hand": "right"
    },
    {
      "midi": 88,
      "time": 14.1,
      "duration": 0.2,
      "velocity": 0.5,
      "hand": "right"
    },
    {
      "midi": 46,
      "time": 14.25,
      "duration": 0.2,
      "velocity": 0.63,
      "hand": "right"
    },
    {
      "midi": 84,
      "time": 14.4,
      "duration": 0.3,
      "velocity": 0.92,
      "hand": "right"
    },
    {
      "midi": 81,
      "time": 14.7,
      "duration": 0.2,
      "velocity": 0.92,
      "hand": "right"
    },
    {
      "midi": 74,
      "time": 14.85,
      "duration": 0.2,
      "velocity": 0.83,
      "hand": "right"
    },
    {
      "midi": 76,
      "time": 15,
      "duration": 0.3,
      "velocity": 0.92,
      "hand": "right"
    },
    {
      "midi": 78,
      "time": 15.3,
      "duration": 0.3,
      "velocity": 0.92,
      "hand": "right"
    },
    {
      "midi": 83,
      "time": 15.6,
      "duration": 0.45,
      "velocity": 0.91,
      "hand": "right"
    },
    {
      "midi": 59,
      "time": 15.9,
      "duration": 0.45,
      "velocity": 0.63,
      "hand": "right"
    },
    {
      "midi": 84,
      "time": 16.2,
      "duration": 0.2,
      "velocity": 0.81,
      "hand": "right"
    },
    {
      "midi": 60,
      "time": 16.5,
      "duration": 0.3,
      "velocity": 0.79,
      "hand": "right"
    },
    {
      "midi": 44,
      "time": 16.65,
      "duration": 0.2,
      "velocity": 0.63,
      "hand": "right"
    },
    {
      "midi": 79,
      "time": 16.8,
      "duration": 1.2,
      "velocity": 0.92,
      "hand": "right"
    },
    {
      "midi": 71,
      "time": 17.1,
      "duration": 0.2,
      "velocity": 0.94,
      "hand": "right"
    },
    {
      "midi": 71,
      "time": 17.4,
      "duration": 0.2,
      "velocity": 0.85,
      "hand": "right"
    },
    {
      "midi": 72,
      "time": 17.7,
      "duration": 0.2,
      "velocity": 1,
      "hand": "right"
    },
    {
      "midi": 86,
      "time": 18,
      "duration": 1.05,
      "velocity": 0.63,
      "hand": "right"
    },
    {
      "midi": 46,
      "time": 18.3,
      "duration": 0.2,
      "velocity": 0.63,
      "hand": "right"
    },
    {
      "midi": 69,
      "time": 18.6,
      "duration": 0.2,
      "velocity": 0.97,
      "hand": "right"
    },
    {
      "midi": 46,
      "time": 18.75,
      "duration": 0.2,
      "velocity": 0.63,
      "hand": "right"
    },
    {
      "midi": 46,
      "time": 19.05,
      "duration": 0.2,
      "velocity": 0.63,
      "hand": "right"
    },
    {
      "midi": 79,
      "time": 19.2,
      "duration": 1.05,
      "velocity": 0.79,
      "hand": "right"
    },
    {
      "midi": 67,
      "time": 19.5,
      "duration": 0.2,
      "velocity": 0.89,
      "hand": "right"
    },
    {
      "midi": 50,
      "time": 19.8,
      "duration": 0.6,
      "velocity": 0.7,
      "hand": "right"
    },
    {
      "midi": 83,
      "time": 20.1,
      "duration": 0.3,
      "velocity": 0.81,
      "hand": "right"
    },
    {
      "midi": 86,
      "time": 20.4,
      "duration": 0.2,
      "velocity": 0.81,
      "hand": "right"
    },
    {
      "midi": 86,
      "time": 20.7,
      "duration": 0.2,
      "velocity": 0.85,
      "hand": "right"
    },
    {
      "midi": 86,
      "time": 21,
      "duration": 0.3,
      "velocity": 0.89,
      "hand": "right"
    },
    {
      "midi": 88,
      "time": 21.3,
      "duration": 0.3,
      "velocity": 0.68,
      "hand": "right"
    },
    {
      "midi": 86,
      "time": 21.45,
      "duration": 0.2,
      "velocity": 0.94,
      "hand": "right"
    },
    {
      "midi": 88,
      "time": 21.6,
      "duration": 0.2,
      "velocity": 0.68,
      "hand": "right"
    },
    {
      "midi": 79,
      "time": 21.9,
      "duration": 0.2,
      "velocity": 0.69,
      "hand": "right"
    },
    {
      "midi": 74,
      "time": 22.05,
      "duration": 0.2,
      "velocity": 0.77,
      "hand": "right"
    },
    {
      "midi": 71,
      "time": 22.2,
      "duration": 0.2,
      "velocity": 0.62,
      "hand": "right"
    },
    {
      "midi": 83,
      "time": 22.5,
      "duration": 0.3,
      "velocity": 0.94,
      "hand": "right"
    },
    {
      "midi": 67,
      "time": 22.65,
      "duration": 0.6,
      "velocity": 0.87,
      "hand": "right"
    },
    {
      "midi": 79,
      "time": 22.8,
      "duration": 1.05,
      "velocity": 1,
      "hand": "right"
    },
    {
      "midi": 55,
      "time": 22.95,
      "duration": 0.3,
      "velocity": 0.92,
      "hand": "right"
    },
    {
      "midi": 67,
      "time": 23.1,
      "duration": 0.2,
      "velocity": 0.97,
      "hand": "right"
    },
    {
      "midi": 67,
      "time": 23.4,
      "duration": 0.2,
      "velocity": 1,
      "hand": "right"
    },
    {
      "midi": 67,
      "time": 23.7,
      "duration": 0.2,
      "velocity": 0.99,
      "hand": "right"
    },
    {
      "midi": 79,
      "time": 24,
      "duration": 0.9,
      "velocity": 0.97,
      "hand": "right"
    },
    {
      "midi": 67,
      "time": 24.3,
      "duration": 0.2,
      "velocity": 0.97,
      "hand": "right"
    },
    {
      "midi": 67,
      "time": 24.6,
      "duration": 0.2,
      "velocity": 0.97,
      "hand": "right"
    },
    {
      "midi": 83,
      "time": 24.9,
      "duration": 0.3,
      "velocity": 0.81,
      "hand": "right"
    },
    {
      "midi": 86,
      "time": 25.2,
      "duration": 0.2,
      "velocity": 0.89,
      "hand": "right"
    },
    {
      "midi": 86,
      "time": 25.5,
      "duration": 0.45,
      "velocity": 0.91,
      "hand": "right"
    },
    {
      "midi": 84,
      "time": 25.8,
      "duration": 0.3,
      "velocity": 0.91,
      "hand": "right"
    },
    {
      "midi": 83,
      "time": 25.95,
      "duration": 0.3,
      "velocity": 0.79,
      "hand": "right"
    },
    {
      "midi": 67,
      "time": 26.1,
      "duration": 0.2,
      "velocity": 1,
      "hand": "right"
    },
    {
      "midi": 56,
      "time": 26.25,
      "duration": 0.2,
      "velocity": 0.63,
      "hand": "right"
    },
    {
      "midi": 81,
      "time": 26.4,
      "duration": 0.2,
      "velocity": 0.81,
      "hand": "right"
    },
    {
      "midi": 86,
      "time": 26.7,
      "duration": 0.2,
      "velocity": 0.89,
      "hand": "right"
    },
    {
      "midi": 86,
      "time": 26.85,
      "duration": 0.2,
      "velocity": 0.85,
      "hand": "right"
    },
    {
      "midi": 62,
      "time": 27,
      "duration": 0.2,
      "velocity": 0.94,
      "hand": "right"
    },
    {
      "midi": 86,
      "time": 27.3,
      "duration": 0.2,
      "velocity": 1,
      "hand": "right"
    },
    {
      "midi": 78,
      "time": 27.45,
      "duration": 0.3,
      "velocity": 0.92,
      "hand": "right"
    },
    {
      "midi": 86,
      "time": 27.6,
      "duration": 0.3,
      "velocity": 0.97,
      "hand": "right"
    },
    {
      "midi": 66,
      "time": 27.75,
      "duration": 0.2,
      "velocity": 1,
      "hand": "right"
    },
    {
      "midi": 90,
      "time": 27.9,
      "duration": 0.6,
      "velocity": 0.89,
      "hand": "right"
    },
    {
      "midi": 67,
      "time": 28.05,
      "duration": 0.2,
      "velocity": 0.63,
      "hand": "right"
    },
    {
      "midi": 66,
      "time": 28.2,
      "duration": 0.2,
      "velocity": 1,
      "hand": "right"
    },
    {
      "midi": 88,
      "time": 28.5,
      "duration": 0.3,
      "velocity": 0.85,
      "hand": "right"
    },
    {
      "midi": 64,
      "time": 28.65,
      "duration": 0.2,
      "velocity": 0.63,
      "hand": "right"
    },
    {
      "midi": 86,
      "time": 28.8,
      "duration": 0.9,
      "velocity": 0.83,
      "hand": "right"
    },
    {
      "midi": 72,
      "time": 29.1,
      "duration": 0.2,
      "velocity": 0.94,
      "hand": "right"
    },
    {
      "midi": 72,
      "time": 29.4,
      "duration": 0.2,
      "velocity": 0.91,
      "hand": "right"
    },
    {
      "midi": 84,
      "time": 29.7,
      "duration": 0.3,
      "velocity": 0.94,
      "hand": "right"
    },
    {
      "midi": 54,
      "time": 29.85,
      "duration": 1.05,
      "velocity": 0.98,
      "hand": "right"
    },
    {
      "midi": 83,
      "time": 30,
      "duration": 0.6,
      "velocity": 0.87,
      "hand": "right"
    },
    {
      "midi": 72,
      "time": 30.3,
      "duration": 0.2,
      "velocity": 0.82,
      "hand": "right"
    },
    {
      "midi": 81,
      "time": 30.6,
      "duration": 0.45,
      "velocity": 1,
      "hand": "right"
    },
    {
      "midi": 72,
      "time": 30.9,
      "duration": 0.2,
      "velocity": 0.98,
      "hand": "right"
    },
    {
      "midi": 88,
      "time": 31.05,
      "duration": 0.45,
      "velocity": 0.87,
      "hand": "right"
    },
    {
      "midi": 71,
      "time": 31.2,
      "duration": 0.2,
      "velocity": 1,
      "hand": "right"
    },
    {
      "midi": 86,
      "time": 31.5,
      "duration": 0.2,
      "velocity": 0.94,
      "hand": "right"
    },
    {
      "midi": 71,
      "time": 31.65,
      "duration": 0.2,
      "velocity": 0.89,
      "hand": "right"
    },
    {
      "midi": 67,
      "time": 31.8,
      "duration": 0.3,
      "velocity": 0.63,
      "hand": "right"
    },
    {
      "midi": 83,
      "time": 32.1,
      "duration": 0.3,
      "velocity": 0.99,
      "hand": "right"
    },
    {
      "midi": 79,
      "time": 32.4,
      "duration": 0.6,
      "velocity": 0.77,
      "hand": "right"
    },
    {
      "midi": 71,
      "time": 32.7,
      "duration": 0.2,
      "velocity": 0.97,
      "hand": "right"
    },
    {
      "midi": 83,
      "time": 33,
      "duration": 0.6,
      "velocity": 1,
      "hand": "right"
    },
    {
      "midi": 71,
      "time": 33.3,
      "duration": 0.2,
      "velocity": 1,
      "hand": "right"
    },
    {
      "midi": 86,
      "time": 33.6,
      "duration": 0.2,
      "velocity": 0.94,
      "hand": "right"
    },
    {
      "midi": 86,
      "time": 33.9,
      "duration": 0.6,
      "velocity": 1,
      "hand": "right"
    },
    {
      "midi": 72,
      "time": 34.05,
      "duration": 0.2,
      "velocity": 0.96,
      "hand": "right"
    },
    {
      "midi": 66,
      "time": 34.2,
      "duration": 0.3,
      "velocity": 1,
      "hand": "right"
    },
    {
      "midi": 84,
      "time": 34.35,
      "duration": 0.2,
      "velocity": 0.98,
      "hand": "right"
    },
    {
      "midi": 86,
      "time": 34.5,
      "duration": 0.2,
      "velocity": 0.83,
      "hand": "right"
    },
    {
      "midi": 83,
      "time": 34.8,
      "duration": 0.6,
      "velocity": 0.79,
      "hand": "right"
    },
    {
      "midi": 74,
      "time": 35.1,
      "duration": 0.2,
      "velocity": 0.81,
      "hand": "right"
    },
    {
      "midi": 81,
      "time": 35.4,
      "duration": 0.6,
      "velocity": 0.97,
      "hand": "right"
    },
    {
      "midi": 72,
      "time": 35.7,
      "duration": 0.2,
      "velocity": 0.84,
      "hand": "right"
    },
    {
      "midi": 79,
      "time": 35.85,
      "duration": 0.6,
      "velocity": 0.92,
      "hand": "right"
    },
    {
      "midi": 71,
      "time": 36,
      "duration": 0.2,
      "velocity": 0.94,
      "hand": "right"
    },
    {
      "midi": 86,
      "time": 36.3,
      "duration": 0.2,
      "velocity": 0.8,
      "hand": "right"
    },
    {
      "midi": 86,
      "time": 36.45,
      "duration": 0.2,
      "velocity": 0.91,
      "hand": "right"
    },
    {
      "midi": 88,
      "time": 36.6,
      "duration": 0.2,
      "velocity": 0.92,
      "hand": "right"
    },
    {
      "midi": 86,
      "time": 36.75,
      "duration": 0.3,
      "velocity": 0.92,
      "hand": "right"
    },
    {
      "midi": 71,
      "time": 36.9,
      "duration": 0.2,
      "velocity": 1,
      "hand": "right"
    },
    {
      "midi": 84,
      "time": 37.05,
      "duration": 0.2,
      "velocity": 0.92,
      "hand": "right"
    },
    {
      "midi": 72,
      "time": 37.2,
      "duration": 0.2,
      "velocity": 1,
      "hand": "right"
    },
    {
      "midi": 57,
      "time": 37.35,
      "duration": 0.2,
      "velocity": 1,
      "hand": "right"
    },
    {
      "midi": 81,
      "time": 37.5,
      "duration": 0.2,
      "velocity": 0.87,
      "hand": "right"
    },
    {
      "midi": 74,
      "time": 37.65,
      "duration": 0.2,
      "velocity": 1,
      "hand": "right"
    },
    {
      "midi": 86,
      "time": 37.8,
      "duration": 0.2,
      "velocity": 0.92,
      "hand": "right"
    },
    {
      "midi": 74,
      "time": 37.95,
      "duration": 0.2,
      "velocity": 0.94,
      "hand": "right"
    },
    {
      "midi": 84,
      "time": 38.1,
      "duration": 0.2,
      "velocity": 0.92,
      "hand": "right"
    },
    {
      "midi": 69,
      "time": 38.25,
      "duration": 0.2,
      "velocity": 0.79,
      "hand": "right"
    },
    {
      "midi": 83,
      "time": 38.4,
      "duration": 0.2,
      "velocity": 0.92,
      "hand": "right"
    },
    {
      "midi": 83,
      "time": 38.7,
      "duration": 0.2,
      "velocity": 0.92,
      "hand": "right"
    },
    {
      "midi": 66,
      "time": 38.85,
      "duration": 0.2,
      "velocity": 0.71,
      "hand": "right"
    },
    {
      "midi": 84,
      "time": 39,
      "duration": 0.2,
      "velocity": 0.92,
      "hand": "right"
    },
    {
      "midi": 84,
      "time": 39.3,
      "duration": 0.2,
      "velocity": 0.92,
      "hand": "right"
    },
    {
      "midi": 83,
      "time": 39.45,
      "duration": 0.2,
      "velocity": 0.8,
      "hand": "right"
    },
    {
      "midi": 81,
      "time": 39.6,
      "duration": 0.2,
      "velocity": 0.91,
      "hand": "right"
    },
    {
      "midi": 81,
      "time": 39.9,
      "duration": 0.2,
      "velocity": 0.84,
      "hand": "right"
    },
    {
      "midi": 86,
      "time": 40.2,
      "duration": 0.2,
      "velocity": 0.91,
      "hand": "right"
    },
    {
      "midi": 86,
      "time": 40.5,
      "duration": 0.3,
      "velocity": 0.92,
      "hand": "right"
    },
    {
      "midi": 79,
      "time": 40.65,
      "duration": 0.2,
      "velocity": 0.84,
      "hand": "right"
    },
    {
      "midi": 74,
      "time": 40.8,
      "duration": 0.2,
      "velocity": 1,
      "hand": "right"
    },
    {
      "midi": 86,
      "time": 41.1,
      "duration": 0.2,
      "velocity": 0.63,
      "hand": "right"
    },
    {
      "midi": 88,
      "time": 41.4,
      "duration": 0.2,
      "velocity": 0.63,
      "hand": "right"
    },
    {
      "midi": 86,
      "time": 41.55,
      "duration": 0.2,
      "velocity": 0.63,
      "hand": "right"
    },
    {
      "midi": 86,
      "time": 41.7,
      "duration": 0.3,
      "velocity": 0.99,
      "hand": "right"
    },
    {
      "midi": 84,
      "time": 41.85,
      "duration": 0.3,
      "velocity": 0.63,
      "hand": "right"
    },
    {
      "midi": 76,
      "time": 42,
      "duration": 0.2,
      "velocity": 1,
      "hand": "right"
    },
    {
      "midi": 72,
      "time": 42.15,
      "duration": 0.2,
      "velocity": 1,
      "hand": "right"
    },
    {
      "midi": 84,
      "time": 42.3,
      "duration": 0.2,
      "velocity": 1,
      "hand": "right"
    },
    {
      "midi": 81,
      "time": 42.45,
      "duration": 0.2,
      "velocity": 0.63,
      "hand": "right"
    },
    {
      "midi": 86,
      "time": 42.6,
      "duration": 0.2,
      "velocity": 0.63,
      "hand": "right"
    },
    {
      "midi": 72,
      "time": 42.75,
      "duration": 0.3,
      "velocity": 1,
      "hand": "right"
    },
    {
      "midi": 86,
      "time": 42.9,
      "duration": 0.2,
      "velocity": 1,
      "hand": "right"
    },
    {
      "midi": 84,
      "time": 43.05,
      "duration": 0.2,
      "velocity": 0.94,
      "hand": "right"
    },
    {
      "midi": 83,
      "time": 43.2,
      "duration": 0.2,
      "velocity": 0.63,
      "hand": "right"
    },
    {
      "midi": 83,
      "time": 43.5,
      "duration": 0.2,
      "velocity": 0.63,
      "hand": "right"
    },
    {
      "midi": 79,
      "time": 43.65,
      "duration": 0.2,
      "velocity": 0.63,
      "hand": "right"
    },
    {
      "midi": 84,
      "time": 43.8,
      "duration": 0.2,
      "velocity": 0.63,
      "hand": "right"
    },
    {
      "midi": 84,
      "time": 44.1,
      "duration": 0.2,
      "velocity": 0.63,
      "hand": "right"
    },
    {
      "midi": 83,
      "time": 44.25,
      "duration": 0.2,
      "velocity": 0.63,
      "hand": "right"
    },
    {
      "midi": 81,
      "time": 44.4,
      "duration": 0.2,
      "velocity": 0.63,
      "hand": "right"
    },
    {
      "midi": 81,
      "time": 44.7,
      "duration": 0.2,
      "velocity": 0.63,
      "hand": "right"
    },
    {
      "midi": 86,
      "time": 45,
      "duration": 0.2,
      "velocity": 0.63,
      "hand": "right"
    },
    {
      "midi": 86,
      "time": 45.3,
      "duration": 0.2,
      "velocity": 0.63,
      "hand": "right"
    },
    {
      "midi": 67,
      "time": 45.45,
      "duration": 0.2,
      "velocity": 1,
      "hand": "right"
    },
    {
      "midi": 79,
      "time": 45.6,
      "duration": 1.35,
      "velocity": 0.63,
      "hand": "right"
    },
    {
      "midi": 67,
      "time": 45.9,
      "duration": 0.2,
      "velocity": 0.79,
      "hand": "right"
    },
    {
      "midi": 71,
      "time": 46.2,
      "duration": 0.2,
      "velocity": 0.85,
      "hand": "right"
    },
    {
      "midi": 71,
      "time": 46.5,
      "duration": 0.2,
      "velocity": 0.72,
      "hand": "right"
    },
    {
      "midi": 50,
      "time": 46.65,
      "duration": 0.2,
      "velocity": 0.89,
      "hand": "right"
    },
    {
      "midi": 71,
      "time": 46.8,
      "duration": 0.2,
      "velocity": 1,
      "hand": "right"
    },
    {
      "midi": 50,
      "time": 47.1,
      "duration": 0.2,
      "velocity": 1,
      "hand": "right"
    },
    {
      "midi": 38,
      "time": 47.25,
      "duration": 0.2,
      "velocity": 0.63,
      "hand": "right"
    },
    {
      "midi": 52,
      "time": 47.4,
      "duration": 0.2,
      "velocity": 1,
      "hand": "right"
    },
    {
      "midi": 54,
      "time": 47.7,
      "duration": 0.2,
      "velocity": 1,
      "hand": "right"
    },
    {
      "midi": 71,
      "time": 48,
      "duration": 0.2,
      "velocity": 0.97,
      "hand": "right"
    },
    {
      "midi": 71,
      "time": 48.3,
      "duration": 0.2,
      "velocity": 0.92,
      "hand": "right"
    },
    {
      "midi": 71,
      "time": 48.45,
      "duration": 0.2,
      "velocity": 0.73,
      "hand": "right"
    },
    {
      "midi": 72,
      "time": 48.9,
      "duration": 0.2,
      "velocity": 1,
      "hand": "right"
    },
    {
      "midi": 71,
      "time": 49.2,
      "duration": 0.2,
      "velocity": 1,
      "hand": "right"
    },
    {
      "midi": 71,
      "time": 49.5,
      "duration": 0.2,
      "velocity": 0.97,
      "hand": "right"
    },
    {
      "midi": 71,
      "time": 49.8,
      "duration": 0.2,
      "velocity": 0.89,
      "hand": "right"
    },
    {
      "midi": 72,
      "time": 50.1,
      "duration": 0.2,
      "velocity": 1,
      "hand": "right"
    },
    {
      "midi": 71,
      "time": 50.4,
      "duration": 0.2,
      "velocity": 1,
      "hand": "right"
    },
    {
      "midi": 71,
      "time": 50.7,
      "duration": 0.2,
      "velocity": 1,
      "hand": "right"
    },
    {
      "midi": 72,
      "time": 50.85,
      "duration": 0.2,
      "velocity": 1,
      "hand": "right"
    },
    {
      "midi": 71,
      "time": 51,
      "duration": 0.2,
      "velocity": 0.99,
      "hand": "right"
    },
    {
      "midi": 72,
      "time": 51.3,
      "duration": 0.2,
      "velocity": 1,
      "hand": "right"
    },
    {
      "midi": 46,
      "time": 51.45,
      "duration": 0.2,
      "velocity": 0.63,
      "hand": "right"
    },
    {
      "midi": 71,
      "time": 51.6,
      "duration": 0.45,
      "velocity": 1,
      "hand": "right"
    },
    {
      "midi": 86,
      "time": 51.9,
      "duration": 0.2,
      "velocity": 0.92,
      "hand": "right"
    },
    {
      "midi": 91,
      "time": 52.05,
      "duration": 0.2,
      "velocity": 0.8,
      "hand": "right"
    },
    {
      "midi": 86,
      "time": 52.2,
      "duration": 0.2,
      "velocity": 0.92,
      "hand": "right"
    },
    {
      "midi": 83,
      "time": 52.5,
      "duration": 0.2,
      "velocity": 0.92,
      "hand": "right"
    },
    {
      "midi": 79,
      "time": 52.8,
      "duration": 2.4,
      "velocity": 0.92,
      "hand": "right"
    },
    {
      "midi": 74,
      "time": 53.1,
      "duration": 0.2,
      "velocity": 1,
      "hand": "right"
    },
    {
      "midi": 74,
      "time": 53.4,
      "duration": 0.2,
      "velocity": 0.94,
      "hand": "right"
    },
    {
      "midi": 73,
      "time": 53.7,
      "duration": 0.2,
      "velocity": 1,
      "hand": "right"
    },
    {
      "midi": 74,
      "time": 54,
      "duration": 0.2,
      "velocity": 1,
      "hand": "right"
    },
    {
      "midi": 74,
      "time": 54.3,
      "duration": 0.2,
      "velocity": 1,
      "hand": "right"
    },
    {
      "midi": 74,
      "time": 54.45,
      "duration": 0.2,
      "velocity": 0.76,
      "hand": "right"
    },
    {
      "midi": 73,
      "time": 54.9,
      "duration": 0.2,
      "velocity": 1,
      "hand": "right"
    },
    {
      "midi": 74,
      "time": 55.2,
      "duration": 0.2,
      "velocity": 1,
      "hand": "right"
    },
    {
      "midi": 74,
      "time": 55.5,
      "duration": 0.2,
      "velocity": 0.97,
      "hand": "right"
    },
    {
      "midi": 73,
      "time": 55.65,
      "duration": 0.2,
      "velocity": 0.89,
      "hand": "right"
    },
    {
      "midi": 74,
      "time": 55.8,
      "duration": 0.2,
      "velocity": 0.89,
      "hand": "right"
    },
    {
      "midi": 76,
      "time": 56.1,
      "duration": 0.2,
      "velocity": 0.99,
      "hand": "right"
    },
    {
      "midi": 66,
      "time": 56.25,
      "duration": 0.2,
      "velocity": 1,
      "hand": "right"
    },
    {
      "midi": 74,
      "time": 56.4,
      "duration": 0.6,
      "velocity": 1,
      "hand": "right"
    },
    {
      "midi": 95,
      "time": 56.7,
      "duration": 0.2,
      "velocity": 0.76,
      "hand": "right"
    },
    {
      "midi": 91,
      "time": 56.85,
      "duration": 0.2,
      "velocity": 0.91,
      "hand": "right"
    },
    {
      "midi": 86,
      "time": 57,
      "duration": 0.2,
      "velocity": 0.92,
      "hand": "right"
    },
    {
      "midi": 91,
      "time": 57.3,
      "duration": 0.3,
      "velocity": 0.92,
      "hand": "right"
    },
    {
      "midi": 90,
      "time": 57.6,
      "duration": 1.35,
      "velocity": 0.92,
      "hand": "right"
    },
    {
      "midi": 74,
      "time": 57.9,
      "duration": 0.2,
      "velocity": 0.94,
      "hand": "right"
    },
    {
      "midi": 74,
      "time": 58.2,
      "duration": 0.2,
      "velocity": 1,
      "hand": "right"
    },
    {
      "midi": 76,
      "time": 58.5,
      "duration": 0.2,
      "velocity": 1,
      "hand": "right"
    },
    {
      "midi": 74,
      "time": 58.8,
      "duration": 0.3,
      "velocity": 1,
      "hand": "right"
    },
    {
      "midi": 96,
      "time": 59.1,
      "duration": 0.2,
      "velocity": 0.92,
      "hand": "right"
    },
    {
      "midi": 95,
      "time": 59.25,
      "duration": 0.2,
      "velocity": 0.62,
      "hand": "right"
    },
    {
      "midi": 97,
      "time": 59.4,
      "duration": 0.2,
      "velocity": 0.65,
      "hand": "right"
    },
    {
      "midi": 90,
      "time": 59.7,
      "duration": 0.3,
      "velocity": 0.92,
      "hand": "right"
    },
    {
      "midi": 46,
      "time": 59.85,
      "duration": 0.2,
      "velocity": 0.63,
      "hand": "right"
    },
    {
      "midi": 93,
      "time": 60,
      "duration": 0.2,
      "velocity": 0.84,
      "hand": "right"
    },
    {
      "midi": 91,
      "time": 60.3,
      "duration": 0.3,
      "velocity": 0.89,
      "hand": "right"
    },
    {
      "midi": 74,
      "time": 60.45,
      "duration": 0.2,
      "velocity": 0.94,
      "hand": "right"
    },
    {
      "midi": 85,
      "time": 60.6,
      "duration": 0.2,
      "velocity": 0.81,
      "hand": "right"
    },
    {
      "midi": 73,
      "time": 60.9,
      "duration": 0.2,
      "velocity": 1,
      "hand": "right"
    },
    {
      "midi": 74,
      "time": 61.2,
      "duration": 0.45,
      "velocity": 1,
      "hand": "right"
    },
    {
      "midi": 60,
      "time": 61.35,
      "duration": 0.2,
      "velocity": 0.79,
      "hand": "right"
    },
    {
      "midi": 84,
      "time": 61.5,
      "duration": 0.2,
      "velocity": 0.92,
      "hand": "right"
    },
    {
      "midi": 85,
      "time": 61.65,
      "duration": 0.2,
      "velocity": 0.81,
      "hand": "right"
    },
    {
      "midi": 88,
      "time": 61.8,
      "duration": 0.2,
      "velocity": 0.91,
      "hand": "right"
    },
    {
      "midi": 86,
      "time": 61.95,
      "duration": 0.2,
      "velocity": 0.92,
      "hand": "right"
    },
    {
      "midi": 88,
      "time": 62.1,
      "duration": 0.2,
      "velocity": 0.5,
      "hand": "right"
    },
    {
      "midi": 46,
      "time": 62.25,
      "duration": 0.2,
      "velocity": 0.63,
      "hand": "right"
    },
    {
      "midi": 84,
      "time": 62.4,
      "duration": 0.3,
      "velocity": 0.92,
      "hand": "right"
    },
    {
      "midi": 81,
      "time": 62.7,
      "duration": 0.2,
      "velocity": 0.92,
      "hand": "right"
    },
    {
      "midi": 74,
      "time": 62.85,
      "duration": 0.2,
      "velocity": 0.83,
      "hand": "right"
    },
    {
      "midi": 76,
      "time": 63,
      "duration": 0.3,
      "velocity": 0.92,
      "hand": "right"
    },
    {
      "midi": 78,
      "time": 63.3,
      "duration": 0.3,
      "velocity": 0.92,
      "hand": "right"
    },
    {
      "midi": 83,
      "time": 63.6,
      "duration": 0.45,
      "velocity": 0.91,
      "hand": "right"
    },
    {
      "midi": 59,
      "time": 63.9,
      "duration": 0.45,
      "velocity": 0.63,
      "hand": "right"
    },
    {
      "midi": 84,
      "time": 64.2,
      "duration": 0.2,
      "velocity": 0.81,
      "hand": "right"
    },
    {
      "midi": 60,
      "time": 64.5,
      "duration": 0.3,
      "velocity": 0.79,
      "hand": "right"
    },
    {
      "midi": 44,
      "time": 64.65,
      "duration": 0.2,
      "velocity": 0.63,
      "hand": "right"
    },
    {
      "midi": 79,
      "time": 64.8,
      "duration": 1.2,
      "velocity": 0.92,
      "hand": "right"
    },
    {
      "midi": 71,
      "time": 65.1,
      "duration": 0.2,
      "velocity": 0.94,
      "hand": "right"
    },
    {
      "midi": 71,
      "time": 65.25,
      "duration": 0.2,
      "velocity": 0.81,
      "hand": "right"
    },
    {
      "midi": 71,
      "time": 65.4,
      "duration": 0.2,
      "velocity": 0.85,
      "hand": "right"
    },
    {
      "midi": 72,
      "time": 65.7,
      "duration": 0.2,
      "velocity": 1,
      "hand": "right"
    },
    {
      "midi": 86,
      "time": 66,
      "duration": 1.05,
      "velocity": 0.92,
      "hand": "right"
    },
    {
      "midi": 46,
      "time": 66.3,
      "duration": 0.2,
      "velocity": 0.63,
      "hand": "right"
    },
    {
      "midi": 69,
      "time": 66.6,
      "duration": 0.2,
      "velocity": 0.97,
      "hand": "right"
    },
    {
      "midi": 46,
      "time": 66.75,
      "duration": 0.2,
      "velocity": 0.63,
      "hand": "right"
    },
    {
      "midi": 46,
      "time": 66.9,
      "duration": 0.2,
      "velocity": 0.63,
      "hand": "right"
    },
    {
      "midi": 67,
      "time": 67.2,
      "duration": 0.2,
      "velocity": 0.97,
      "hand": "right"
    },
    {
      "midi": 67,
      "time": 67.5,
      "duration": 0.2,
      "velocity": 0.89,
      "hand": "right"
    },
    {
      "midi": 67,
      "time": 67.65,
      "duration": 0.2,
      "velocity": 0.72,
      "hand": "right"
    },
    {
      "midi": 44,
      "time": 67.8,
      "duration": 0.2,
      "velocity": 0.63,
      "hand": "right"
    },
    {
      "midi": 71,
      "time": 68.1,
      "duration": 0.3,
      "velocity": 1,
      "hand": "right"
    },
    {
      "midi": 74,
      "time": 68.4,
      "duration": 0.2,
      "velocity": 0.94,
      "hand": "right"
    },
    {
      "midi": 74,
      "time": 68.7,
      "duration": 0.2,
      "velocity": 0.99,
      "hand": "right"
    },
    {
      "midi": 74,
      "time": 69,
      "duration": 0.45,
      "velocity": 1,
      "hand": "right"
    },
    {
      "midi": 76,
      "time": 69.3,
      "duration": 0.3,
      "velocity": 1,
      "hand": "right"
    },
    {
      "midi": 74,
      "time": 69.6,
      "duration": 0.9,
      "velocity": 0.89,
      "hand": "right"
    },
    {
      "midi": 93,
      "time": 69.9,
      "duration": 0.2,
      "velocity": 0.87,
      "hand": "right"
    },
    {
      "midi": 91,
      "time": 70.05,
      "duration": 0.2,
      "velocity": 0.89,
      "hand": "right"
    },
    {
      "midi": 62,
      "time": 70.2,
      "duration": 0.2,
      "velocity": 0.81,
      "hand": "right"
    },
    {
      "midi": 86,
      "time": 70.35,
      "duration": 0.2,
      "velocity": 0.92,
      "hand": "right"
    },
    {
      "midi": 71,
      "time": 70.5,
      "duration": 0.3,
      "velocity": 1,
      "hand": "right"
    },
    {
      "midi": 83,
      "time": 70.8,
      "duration": 0.3,
      "velocity": 0.92,
      "hand": "right"
    },
    {
      "midi": 84,
      "time": 71.1,
      "duration": 0.3,
      "velocity": 0.92,
      "hand": "right"
    },
    {
      "midi": 85,
      "time": 71.4,
      "duration": 0.3,
      "velocity": 0.92,
      "hand": "right"
    },
    {
      "midi": 86,
      "time": 71.7,
      "duration": 0.3,
      "velocity": 0.89,
      "hand": "right"
    },
    {
      "midi": 79,
      "time": 72,
      "duration": 0.6,
      "velocity": 0.92,
      "hand": "right"
    },
    {
      "midi": 67,
      "time": 72.3,
      "duration": 0.2,
      "velocity": 0.97,
      "hand": "right"
    },
    {
      "midi": 67,
      "time": 72.45,
      "duration": 0.2,
      "velocity": 0.85,
      "hand": "right"
    },
    {
      "midi": 71,
      "time": 72.9,
      "duration": 0.3,
      "velocity": 1,
      "hand": "right"
    },
    {
      "midi": 74,
      "time": 73.2,
      "duration": 0.2,
      "velocity": 1,
      "hand": "right"
    },
    {
      "midi": 74,
      "time": 73.5,
      "duration": 0.45,
      "velocity": 1,
      "hand": "right"
    },
    {
      "midi": 72,
      "time": 73.8,
      "duration": 0.3,
      "velocity": 1,
      "hand": "right"
    },
    {
      "midi": 71,
      "time": 74.1,
      "duration": 0.3,
      "velocity": 1,
      "hand": "right"
    },
    {
      "midi": 56,
      "time": 74.25,
      "duration": 0.2,
      "velocity": 0.63,
      "hand": "right"
    },
    {
      "midi": 69,
      "time": 74.4,
      "duration": 0.2,
      "velocity": 1,
      "hand": "right"
    },
    {
      "midi": 91,
      "time": 74.7,
      "duration": 0.2,
      "velocity": 0.68,
      "hand": "right"
    },
    {
      "midi": 90,
      "time": 74.85,
      "duration": 0.2,
      "velocity": 0.92,
      "hand": "right"
    },
    {
      "midi": 74,
      "time": 75,
      "duration": 0.2,
      "velocity": 1,
      "hand": "right"
    },
    {
      "midi": 91,
      "time": 75.3,
      "duration": 0.2,
      "velocity": 0.92,
      "hand": "right"
    },
    {
      "midi": 64,
      "time": 75.45,
      "duration": 0.2,
      "velocity": 0.63,
      "hand": "right"
    },
    {
      "midi": 93,
      "time": 75.6,
      "duration": 0.6,
      "velocity": 0.69,
      "hand": "right"
    },
    {
      "midi": 66,
      "time": 75.75,
      "duration": 0.2,
      "velocity": 1,
      "hand": "right"
    },
    {
      "midi": 69,
      "time": 75.9,
      "duration": 0.2,
      "velocity": 0.63,
      "hand": "right"
    },
    {
      "midi": 67,
      "time": 76.05,
      "duration": 0.2,
      "velocity": 0.63,
      "hand": "right"
    },
    {
      "midi": 78,
      "time": 76.2,
      "duration": 0.3,
      "velocity": 1,
      "hand": "right"
    },
    {
      "midi": 76,
      "time": 76.35,
      "duration": 0.3,
      "velocity": 0.99,
      "hand": "right"
    },
    {
      "midi": 76,
      "time": 76.5,
      "duration": 0.3,
      "velocity": 1,
      "hand": "right"
    },
    {
      "midi": 74,
      "time": 76.65,
      "duration": 0.9,
      "velocity": 0.99,
      "hand": "right"
    },
    {
      "midi": 91,
      "time": 77.1,
      "duration": 0.2,
      "velocity": 0.73,
      "hand": "right"
    },
    {
      "midi": 72,
      "time": 77.25,
      "duration": 0.2,
      "velocity": 0.84,
      "hand": "right"
    },
    {
      "midi": 93,
      "time": 77.4,
      "duration": 0.2,
      "velocity": 0.81,
      "hand": "right"
    },
    {
      "midi": 93,
      "time": 77.7,
      "duration": 0.2,
      "velocity": 0.92,
      "hand": "right"
    },
    {
      "midi": 90,
      "time": 77.85,
      "duration": 0.2,
      "velocity": 0.92,
      "hand": "right"
    },
    {
      "midi": 86,
      "time": 78,
      "duration": 0.2,
      "velocity": 0.92,
      "hand": "right"
    },
    {
      "midi": 90,
      "time": 78.3,
      "duration": 0.2,
      "velocity": 0.92,
      "hand": "right"
    },
    {
      "midi": 86,
      "time": 78.6,
      "duration": 0.2,
      "velocity": 0.92,
      "hand": "right"
    },
    {
      "midi": 88,
      "time": 78.9,
      "duration": 0.2,
      "velocity": 0.92,
      "hand": "right"
    },
    {
      "midi": 90,
      "time": 79.05,
      "duration": 0.2,
      "velocity": 0.68,
      "hand": "right"
    },
    {
      "midi": 91,
      "time": 79.2,
      "duration": 0.3,
      "velocity": 0.92,
      "hand": "right"
    },
    {
      "midi": 83,
      "time": 79.5,
      "duration": 0.2,
      "velocity": 0.92,
      "hand": "right"
    },
    {
      "midi": 84,
      "time": 79.65,
      "duration": 0.2,
      "velocity": 0.92,
      "hand": "right"
    },
    {
      "midi": 86,
      "time": 79.8,
      "duration": 0.2,
      "velocity": 0.92,
      "hand": "right"
    },
    {
      "midi": 79,
      "time": 80.1,
      "duration": 0.6,
      "velocity": 0.92,
      "hand": "right"
    },
    {
      "midi": 71,
      "time": 80.4,
      "duration": 0.2,
      "velocity": 0.94,
      "hand": "right"
    },
    {
      "midi": 64,
      "time": 80.55,
      "duration": 0.2,
      "velocity": 0.54,
      "hand": "right"
    },
    {
      "midi": 71,
      "time": 80.7,
      "duration": 0.2,
      "velocity": 0.97,
      "hand": "right"
    },
    {
      "midi": 71,
      "time": 81,
      "duration": 0.2,
      "velocity": 1,
      "hand": "right"
    },
    {
      "midi": 71,
      "time": 81.3,
      "duration": 0.2,
      "velocity": 1,
      "hand": "right"
    },
    {
      "midi": 74,
      "time": 81.6,
      "duration": 0.2,
      "velocity": 0.89,
      "hand": "right"
    },
    {
      "midi": 86,
      "time": 81.9,
      "duration": 0.2,
      "velocity": 0.84,
      "hand": "right"
    },
    {
      "midi": 88,
      "time": 82.05,
      "duration": 0.2,
      "velocity": 0.68,
      "hand": "right"
    },
    {
      "midi": 90,
      "time": 82.2,
      "duration": 0.2,
      "velocity": 0.92,
      "hand": "right"
    },
    {
      "midi": 90,
      "time": 82.5,
      "duration": 0.2,
      "velocity": 0.92,
      "hand": "right"
    },
    {
      "midi": 86,
      "time": 82.8,
      "duration": 0.6,
      "velocity": 0.77,
      "hand": "right"
    },
    {
      "midi": 72,
      "time": 83.1,
      "duration": 0.2,
      "velocity": 0.91,
      "hand": "right"
    },
    {
      "midi": 86,
      "time": 83.4,
      "duration": 0.2,
      "velocity": 0.84,
      "hand": "right"
    },
    {
      "midi": 72,
      "time": 83.7,
      "duration": 0.2,
      "velocity": 0.84,
      "hand": "right"
    },
    {
      "midi": 67,
      "time": 83.85,
      "duration": 0.3,
      "velocity": 1,
      "hand": "right"
    },
    {
      "midi": 83,
      "time": 84,
      "duration": 0.3,
      "velocity": 0.92,
      "hand": "right"
    },
    {
      "midi": 74,
      "time": 84.3,
      "duration": 0.2,
      "velocity": 1,
      "hand": "right"
    },
    {
      "midi": 76,
      "time": 84.45,
      "duration": 0.2,
      "velocity": 0.94,
      "hand": "right"
    },
    {
      "midi": 80,
      "time": 84.6,
      "duration": 0.6,
      "velocity": 0.96,
      "hand": "right"
    },
    {
      "midi": 74,
      "time": 84.75,
      "duration": 0.3,
      "velocity": 1,
      "hand": "right"
    },
    {
      "midi": 71,
      "time": 84.9,
      "duration": 0.2,
      "velocity": 1,
      "hand": "right"
    },
    {
      "midi": 72,
      "time": 85.05,
      "duration": 0.2,
      "velocity": 0.92,
      "hand": "right"
    },
    {
      "midi": 81,
      "time": 85.2,
      "duration": 0.2,
      "velocity": 0.83,
      "hand": "right"
    },
    {
      "midi": 69,
      "time": 85.35,
      "duration": 0.2,
      "velocity": 1,
      "hand": "right"
    },
    {
      "midi": 81,
      "time": 85.5,
      "duration": 0.2,
      "velocity": 0.87,
      "hand": "right"
    },
    {
      "midi": 79,
      "time": 85.65,
      "duration": 0.2,
      "velocity": 0.79,
      "hand": "right"
    },
    {
      "midi": 78,
      "time": 85.8,
      "duration": 0.2,
      "velocity": 0.89,
      "hand": "right"
    },
    {
      "midi": 74,
      "time": 85.95,
      "duration": 0.2,
      "velocity": 0.94,
      "hand": "right"
    },
    {
      "midi": 78,
      "time": 86.1,
      "duration": 0.2,
      "velocity": 0.92,
      "hand": "right"
    },
    {
      "midi": 81,
      "time": 86.25,
      "duration": 0.2,
      "velocity": 0.79,
      "hand": "right"
    },
    {
      "midi": 74,
      "time": 86.4,
      "duration": 0.2,
      "velocity": 1,
      "hand": "right"
    },
    {
      "midi": 74,
      "time": 86.7,
      "duration": 0.2,
      "velocity": 1,
      "hand": "right"
    },
    {
      "midi": 67,
      "time": 86.85,
      "duration": 0.2,
      "velocity": 1,
      "hand": "right"
    },
    {
      "midi": 76,
      "time": 87,
      "duration": 0.2,
      "velocity": 1,
      "hand": "right"
    },
    {
      "midi": 76,
      "time": 87.3,
      "duration": 0.2,
      "velocity": 1,
      "hand": "right"
    },
    {
      "midi": 71,
      "time": 87.45,
      "duration": 0.2,
      "velocity": 0.94,
      "hand": "right"
    },
    {
      "midi": 76,
      "time": 87.6,
      "duration": 0.2,
      "velocity": 1,
      "hand": "right"
    },
    {
      "midi": 81,
      "time": 87.9,
      "duration": 0.2,
      "velocity": 0.89,
      "hand": "right"
    },
    {
      "midi": 72,
      "time": 88.05,
      "duration": 0.2,
      "velocity": 0.91,
      "hand": "right"
    },
    {
      "midi": 78,
      "time": 88.2,
      "duration": 0.2,
      "velocity": 1,
      "hand": "right"
    },
    {
      "midi": 86,
      "time": 88.5,
      "duration": 0.2,
      "velocity": 0.54,
      "hand": "right"
    },
    {
      "midi": 83,
      "time": 88.65,
      "duration": 0.2,
      "velocity": 0.61,
      "hand": "right"
    },
    {
      "midi": 74,
      "time": 88.8,
      "duration": 0.2,
      "velocity": 1,
      "hand": "right"
    },
    {
      "midi": 86,
      "time": 89.1,
      "duration": 0.2,
      "velocity": 0.47,
      "hand": "right"
    },
    {
      "midi": 86,
      "time": 89.25,
      "duration": 0.2,
      "velocity": 0.63,
      "hand": "right"
    },
    {
      "midi": 88,
      "time": 89.4,
      "duration": 0.2,
      "velocity": 0.47,
      "hand": "right"
    },
    {
      "midi": 86,
      "time": 89.55,
      "duration": 0.2,
      "velocity": 0.47,
      "hand": "right"
    },
    {
      "midi": 86,
      "time": 89.7,
      "duration": 0.3,
      "velocity": 0.99,
      "hand": "right"
    },
    {
      "midi": 84,
      "time": 89.85,
      "duration": 0.3,
      "velocity": 0.47,
      "hand": "right"
    },
    {
      "midi": 76,
      "time": 90,
      "duration": 0.2,
      "velocity": 1,
      "hand": "right"
    },
    {
      "midi": 72,
      "time": 90.15,
      "duration": 0.2,
      "velocity": 1,
      "hand": "right"
    },
    {
      "midi": 84,
      "time": 90.3,
      "duration": 0.2,
      "velocity": 1,
      "hand": "right"
    },
    {
      "midi": 81,
      "time": 90.45,
      "duration": 0.2,
      "velocity": 0.47,
      "hand": "right"
    },
    {
      "midi": 86,
      "time": 90.6,
      "duration": 0.2,
      "velocity": 0.47,
      "hand": "right"
    },
    {
      "midi": 72,
      "time": 90.75,
      "duration": 0.3,
      "velocity": 1,
      "hand": "right"
    },
    {
      "midi": 86,
      "time": 90.9,
      "duration": 0.2,
      "velocity": 1,
      "hand": "right"
    },
    {
      "midi": 84,
      "time": 91.05,
      "duration": 0.2,
      "velocity": 0.94,
      "hand": "right"
    },
    {
      "midi": 83,
      "time": 91.2,
      "duration": 0.2,
      "velocity": 0.47,
      "hand": "right"
    },
    {
      "midi": 83,
      "time": 91.5,
      "duration": 0.2,
      "velocity": 0.47,
      "hand": "right"
    },
    {
      "midi": 79,
      "time": 91.65,
      "duration": 0.2,
      "velocity": 0.47,
      "hand": "right"
    },
    {
      "midi": 84,
      "time": 91.8,
      "duration": 0.2,
      "velocity": 0.47,
      "hand": "right"
    },
    {
      "midi": 84,
      "time": 92.1,
      "duration": 0.2,
      "velocity": 0.47,
      "hand": "right"
    },
    {
      "midi": 83,
      "time": 92.25,
      "duration": 0.2,
      "velocity": 0.47,
      "hand": "right"
    },
    {
      "midi": 81,
      "time": 92.4,
      "duration": 0.2,
      "velocity": 0.47,
      "hand": "right"
    },
    {
      "midi": 81,
      "time": 92.7,
      "duration": 0.2,
      "velocity": 0.47,
      "hand": "right"
    },
    {
      "midi": 86,
      "time": 93,
      "duration": 0.2,
      "velocity": 0.47,
      "hand": "right"
    },
    {
      "midi": 86,
      "time": 93.3,
      "duration": 0.2,
      "velocity": 0.47,
      "hand": "right"
    },
    {
      "midi": 67,
      "time": 93.45,
      "duration": 0.2,
      "velocity": 1,
      "hand": "right"
    },
    {
      "midi": 79,
      "time": 93.6,
      "duration": 1.35,
      "velocity": 0.47,
      "hand": "right"
    },
    {
      "midi": 67,
      "time": 93.9,
      "duration": 0.2,
      "velocity": 0.79,
      "hand": "right"
    },
    {
      "midi": 71,
      "time": 94.2,
      "duration": 0.2,
      "velocity": 0.85,
      "hand": "right"
    },
    {
      "midi": 71,
      "time": 94.5,
      "duration": 0.2,
      "velocity": 0.72,
      "hand": "right"
    },
    {
      "midi": 50,
      "time": 94.65,
      "duration": 0.2,
      "velocity": 0.89,
      "hand": "right"
    },
    {
      "midi": 71,
      "time": 94.8,
      "duration": 0.2,
      "velocity": 1,
      "hand": "right"
    }
  ],
  "notes2Hands": [
    {
      "midi": 38,
      "time": 0,
      "duration": 0.75,
      "velocity": 0.63,
      "hand": "left"
    },
    {
      "midi": 43,
      "time": 0,
      "duration": 0.9,
      "velocity": 1,
      "hand": "left"
    },
    {
      "midi": 44,
      "time": 0,
      "duration": 0.075,
      "velocity": 0.63,
      "hand": "left"
    },
    {
      "midi": 51,
      "time": 0,
      "duration": 0.075,
      "velocity": 0.63,
      "hand": "left"
    },
    {
      "midi": 62,
      "time": 0,
      "duration": 0.075,
      "velocity": 0.92,
      "hand": "right"
    },
    {
      "midi": 67,
      "time": 0,
      "duration": 0.075,
      "velocity": 0.99,
      "hand": "right"
    },
    {
      "midi": 71,
      "time": 0,
      "duration": 0.075,
      "velocity": 0.97,
      "hand": "right"
    },
    {
      "midi": 71,
      "time": 0,
      "duration": 0.9,
      "velocity": 0.91,
      "hand": "right"
    },
    {
      "midi": 44,
      "time": 0.3,
      "duration": 0.075,
      "velocity": 0.63,
      "hand": "left"
    },
    {
      "midi": 62,
      "time": 0.3,
      "duration": 0.15,
      "velocity": 0.89,
      "hand": "right"
    },
    {
      "midi": 67,
      "time": 0.3,
      "duration": 0.075,
      "velocity": 1,
      "hand": "right"
    },
    {
      "midi": 71,
      "time": 0.3,
      "duration": 0.075,
      "velocity": 0.92,
      "hand": "right"
    },
    {
      "midi": 44,
      "time": 0.45,
      "duration": 0.15,
      "velocity": 0.63,
      "hand": "left"
    },
    {
      "midi": 62,
      "time": 0.45,
      "duration": 0.075,
      "velocity": 0.67,
      "hand": "right"
    },
    {
      "midi": 67,
      "time": 0.45,
      "duration": 0.075,
      "velocity": 0.92,
      "hand": "right"
    },
    {
      "midi": 71,
      "time": 0.45,
      "duration": 0.075,
      "velocity": 0.73,
      "hand": "right"
    },
    {
      "midi": 44,
      "time": 0.6,
      "duration": 0.075,
      "velocity": 0.63,
      "hand": "left"
    },
    {
      "midi": 62,
      "time": 0.6,
      "duration": 0.075,
      "velocity": 0.92,
      "hand": "right"
    },
    {
      "midi": 67,
      "time": 0.6,
      "duration": 0.075,
      "velocity": 1,
      "hand": "right"
    },
    {
      "midi": 71,
      "time": 0.6,
      "duration": 0.15,
      "velocity": 1,
      "hand": "right"
    },
    {
      "midi": 38,
      "time": 0.9,
      "duration": 0.3,
      "velocity": 1,
      "hand": "left"
    },
    {
      "midi": 42,
      "time": 0.9,
      "duration": 0.3,
      "velocity": 0.63,
      "hand": "left"
    },
    {
      "midi": 46,
      "time": 0.9,
      "duration": 0.075,
      "velocity": 0.63,
      "hand": "left"
    },
    {
      "midi": 64,
      "time": 0.9,
      "duration": 0.075,
      "velocity": 0.89,
      "hand": "right"
    },
    {
      "midi": 67,
      "time": 0.9,
      "duration": 0.15,
      "velocity": 1,
      "hand": "right"
    },
    {
      "midi": 72,
      "time": 0.9,
      "duration": 0.15,
      "velocity": 1,
      "hand": "right"
    },
    {
      "midi": 72,
      "time": 0.9,
      "duration": 0.3,
      "velocity": 0.87,
      "hand": "right"
    },
    {
      "midi": 38,
      "time": 1.2,
      "duration": 0.9,
      "velocity": 0.63,
      "hand": "left"
    },
    {
      "midi": 43,
      "time": 1.2,
      "duration": 0.9,
      "velocity": 1,
      "hand": "left"
    },
    {
      "midi": 44,
      "time": 1.2,
      "duration": 0.075,
      "velocity": 0.63,
      "hand": "left"
    },
    {
      "midi": 62,
      "time": 1.2,
      "duration": 0.15,
      "velocity": 1,
      "hand": "right"
    },
    {
      "midi": 67,
      "time": 1.2,
      "duration": 0.075,
      "velocity": 1,
      "hand": "right"
    },
    {
      "midi": 71,
      "time": 1.2,
      "duration": 0.075,
      "velocity": 1,
      "hand": "right"
    },
    {
      "midi": 71,
      "time": 1.2,
      "duration": 0.9,
      "velocity": 0.93,
      "hand": "right"
    },
    {
      "midi": 44,
      "time": 1.5,
      "duration": 0.075,
      "velocity": 0.63,
      "hand": "left"
    },
    {
      "midi": 62,
      "time": 1.5,
      "duration": 0.15,
      "velocity": 0.97,
      "hand": "right"
    },
    {
      "midi": 67,
      "time": 1.5,
      "duration": 0.075,
      "velocity": 1,
      "hand": "right"
    },
    {
      "midi": 71,
      "time": 1.5,
      "duration": 0.075,
      "velocity": 0.97,
      "hand": "right"
    },
    {
      "midi": 44,
      "time": 1.65,
      "duration": 0.075,
      "velocity": 0.63,
      "hand": "left"
    },
    {
      "midi": 62,
      "time": 1.65,
      "duration": 0.075,
      "velocity": 0.68,
      "hand": "right"
    },
    {
      "midi": 67,
      "time": 1.65,
      "duration": 0.075,
      "velocity": 0.87,
      "hand": "right"
    },
    {
      "midi": 71,
      "time": 1.65,
      "duration": 0.075,
      "velocity": 0.83,
      "hand": "right"
    },
    {
      "midi": 44,
      "time": 1.8,
      "duration": 0.15,
      "velocity": 0.63,
      "hand": "left"
    },
    {
      "midi": 62,
      "time": 1.8,
      "duration": 0.15,
      "velocity": 0.79,
      "hand": "right"
    },
    {
      "midi": 67,
      "time": 1.8,
      "duration": 0.15,
      "velocity": 0.97,
      "hand": "right"
    },
    {
      "midi": 71,
      "time": 1.8,
      "duration": 0.15,
      "velocity": 0.89,
      "hand": "right"
    },
    {
      "midi": 38,
      "time": 2.1,
      "duration": 0.15,
      "velocity": 1,
      "hand": "left"
    },
    {
      "midi": 42,
      "time": 2.1,
      "duration": 0.15,
      "velocity": 0.63,
      "hand": "left"
    },
    {
      "midi": 46,
      "time": 2.1,
      "duration": 0.075,
      "velocity": 0.63,
      "hand": "left"
    },
    {
      "midi": 64,
      "time": 2.1,
      "duration": 0.075,
      "velocity": 1,
      "hand": "right"
    },
    {
      "midi": 67,
      "time": 2.1,
      "duration": 0.075,
      "velocity": 0.97,
      "hand": "right"
    },
    {
      "midi": 68,
      "time": 2.1,
      "duration": 0.075,
      "velocity": 0.94,
      "hand": "right"
    },
    {
      "midi": 72,
      "time": 2.1,
      "duration": 0.15,
      "velocity": 1,
      "hand": "right"
    },
    {
      "midi": 38,
      "time": 2.4,
      "duration": 0.3,
      "velocity": 0.63,
      "hand": "left"
    },
    {
      "midi": 43,
      "time": 2.4,
      "duration": 0.15,
      "velocity": 1,
      "hand": "left"
    },
    {
      "midi": 44,
      "time": 2.4,
      "duration": 0.075,
      "velocity": 0.63,
      "hand": "left"
    },
    {
      "midi": 62,
      "time": 2.4,
      "duration": 0.15,
      "velocity": 1,
      "hand": "right"
    },
    {
      "midi": 67,
      "time": 2.4,
      "duration": 0.15,
      "velocity": 0.97,
      "hand": "right"
    },
    {
      "midi": 71,
      "time": 2.4,
      "duration": 0.15,
      "velocity": 1,
      "hand": "right"
    },
    {
      "midi": 71,
      "time": 2.4,
      "duration": 0.075,
      "velocity": 1,
      "hand": "right"
    },
    {
      "midi": 38,
      "time": 2.7,
      "duration": 0.15,
      "velocity": 1,
      "hand": "left"
    },
    {
      "midi": 42,
      "time": 2.7,
      "duration": 0.15,
      "velocity": 0.63,
      "hand": "left"
    },
    {
      "midi": 44,
      "time": 2.7,
      "duration": 0.15,
      "velocity": 0.63,
      "hand": "left"
    },
    {
      "midi": 62,
      "time": 2.7,
      "duration": 0.075,
      "velocity": 1,
      "hand": "right"
    },
    {
      "midi": 67,
      "time": 2.7,
      "duration": 0.075,
      "velocity": 1,
      "hand": "right"
    },
    {
      "midi": 71,
      "time": 2.7,
      "duration": 0.075,
      "velocity": 1,
      "hand": "right"
    },
    {
      "midi": 71,
      "time": 2.7,
      "duration": 0.15,
      "velocity": 1,
      "hand": "right"
    },
    {
      "midi": 46,
      "time": 2.85,
      "duration": 0.15,
      "velocity": 0.63,
      "hand": "left"
    },
    {
      "midi": 64,
      "time": 2.85,
      "duration": 0.075,
      "velocity": 0.79,
      "hand": "right"
    },
    {
      "midi": 67,
      "time": 2.85,
      "duration": 0.075,
      "velocity": 0.87,
      "hand": "right"
    },
    {
      "midi": 68,
      "time": 2.85,
      "duration": 0.075,
      "velocity": 0.79,
      "hand": "right"
    },
    {
      "midi": 72,
      "time": 2.85,
      "duration": 0.075,
      "velocity": 1,
      "hand": "right"
    },
    {
      "midi": 72,
      "time": 2.85,
      "duration": 0.15,
      "velocity": 0.95,
      "hand": "right"
    },
    {
      "midi": 38,
      "time": 3,
      "duration": 0.15,
      "velocity": 0.63,
      "hand": "left"
    },
    {
      "midi": 43,
      "time": 3,
      "duration": 0.15,
      "velocity": 1,
      "hand": "left"
    },
    {
      "midi": 44,
      "time": 3,
      "duration": 0.075,
      "velocity": 0.63,
      "hand": "left"
    },
    {
      "midi": 62,
      "time": 3,
      "duration": 0.075,
      "velocity": 1,
      "hand": "right"
    },
    {
      "midi": 67,
      "time": 3,
      "duration": 0.075,
      "velocity": 0.99,
      "hand": "right"
    },
    {
      "midi": 71,
      "time": 3,
      "duration": 0.075,
      "velocity": 0.99,
      "hand": "right"
    },
    {
      "midi": 38,
      "time": 3.3,
      "duration": 0.15,
      "velocity": 1,
      "hand": "left"
    },
    {
      "midi": 42,
      "time": 3.3,
      "duration": 0.15,
      "velocity": 0.63,
      "hand": "left"
    },
    {
      "midi": 44,
      "time": 3.3,
      "duration": 0.15,
      "velocity": 0.63,
      "hand": "left"
    },
    {
      "midi": 64,
      "time": 3.3,
      "duration": 0.075,
      "velocity": 0.97,
      "hand": "right"
    },
    {
      "midi": 67,
      "time": 3.3,
      "duration": 0.075,
      "velocity": 0.97,
      "hand": "right"
    },
    {
      "midi": 68,
      "time": 3.3,
      "duration": 0.075,
      "velocity": 0.87,
      "hand": "right"
    },
    {
      "midi": 72,
      "time": 3.3,
      "duration": 0.075,
      "velocity": 1,
      "hand": "right"
    },
    {
      "midi": 72,
      "time": 3.3,
      "duration": 0.15,
      "velocity": 1,
      "hand": "right"
    },
    {
      "midi": 46,
      "time": 3.45,
      "duration": 0.15,
      "velocity": 0.63,
      "hand": "left"
    },
    {
      "midi": 38,
      "time": 3.6,
      "duration": 1.05,
      "velocity": 0.63,
      "hand": "left"
    },
    {
      "midi": 43,
      "time": 3.6,
      "duration": 0.75,
      "velocity": 1,
      "hand": "left"
    },
    {
      "midi": 44,
      "time": 3.6,
      "duration": 0.075,
      "velocity": 0.63,
      "hand": "left"
    },
    {
      "midi": 62,
      "time": 3.6,
      "duration": 0.45,
      "velocity": 1,
      "hand": "right"
    },
    {
      "midi": 67,
      "time": 3.6,
      "duration": 0.15,
      "velocity": 1,
      "hand": "right"
    },
    {
      "midi": 71,
      "time": 3.6,
      "duration": 0.45,
      "velocity": 1,
      "hand": "right"
    },
    {
      "midi": 71,
      "time": 3.6,
      "duration": 1.2,
      "velocity": 1,
      "hand": "right"
    },
    {
      "midi": 44,
      "time": 3.9,
      "duration": 0.075,
      "velocity": 0.63,
      "hand": "left"
    },
    {
      "midi": 62,
      "time": 3.9,
      "duration": 0.3,
      "velocity": 0.89,
      "hand": "right"
    },
    {
      "midi": 67,
      "time": 3.9,
      "duration": 0.15,
      "velocity": 0.77,
      "hand": "right"
    },
    {
      "midi": 86,
      "time": 3.9,
      "duration": 0.15,
      "velocity": 0.92,
      "hand": "right"
    },
    {
      "midi": 91,
      "time": 4.05,
      "duration": 0.15,
      "velocity": 0.8,
      "hand": "right"
    },
    {
      "midi": 44,
      "time": 4.2,
      "duration": 0.15,
      "velocity": 0.63,
      "hand": "left"
    },
    {
      "midi": 59,
      "time": 4.2,
      "duration": 0.3,
      "velocity": 0.92,
      "hand": "left"
    },
    {
      "midi": 69,
      "time": 4.2,
      "duration": 0.075,
      "velocity": 0.76,
      "hand": "right"
    },
    {
      "midi": 72,
      "time": 4.2,
      "duration": 0.15,
      "velocity": 1,
      "hand": "right"
    },
    {
      "midi": 86,
      "time": 4.2,
      "duration": 0.075,
      "velocity": 0.92,
      "hand": "right"
    },
    {
      "midi": 44,
      "time": 4.5,
      "duration": 0.15,
      "velocity": 0.63,
      "hand": "left"
    },
    {
      "midi": 55,
      "time": 4.5,
      "duration": 0.3,
      "velocity": 1,
      "hand": "left"
    },
    {
      "midi": 67,
      "time": 4.5,
      "duration": 0.075,
      "velocity": 0.81,
      "hand": "right"
    },
    {
      "midi": 69,
      "time": 4.5,
      "duration": 0.075,
      "velocity": 0.73,
      "hand": "right"
    },
    {
      "midi": 70,
      "time": 4.5,
      "duration": 0.075,
      "velocity": 1,
      "hand": "right"
    },
    {
      "midi": 73,
      "time": 4.5,
      "duration": 0.075,
      "velocity": 1,
      "hand": "right"
    },
    {
      "midi": 83,
      "time": 4.5,
      "duration": 0.075,
      "velocity": 0.92,
      "hand": "right"
    },
    {
      "midi": 38,
      "time": 4.8,
      "duration": 0.9,
      "velocity": 0.63,
      "hand": "left"
    },
    {
      "midi": 43,
      "time": 4.8,
      "duration": 0.75,
      "velocity": 1,
      "hand": "left"
    },
    {
      "midi": 44,
      "time": 4.8,
      "duration": 0.15,
      "velocity": 0.63,
      "hand": "left"
    },
    {
      "midi": 50,
      "time": 4.8,
      "duration": 1.95,
      "velocity": 1,
      "hand": "left"
    },
    {
      "midi": 51,
      "time": 4.8,
      "duration": 0.075,
      "velocity": 0.63,
      "hand": "left"
    },
    {
      "midi": 67,
      "time": 4.8,
      "duration": 0.15,
      "velocity": 1,
      "hand": "right"
    },
    {
      "midi": 71,
      "time": 4.8,
      "duration": 0.15,
      "velocity": 1,
      "hand": "right"
    },
    {
      "midi": 74,
      "time": 4.8,
      "duration": 0.15,
      "velocity": 1,
      "hand": "right"
    },
    {
      "midi": 79,
      "time": 4.8,
      "duration": 2.4,
      "velocity": 0.92,
      "hand": "right"
    },
    {
      "midi": 44,
      "time": 5.1,
      "duration": 0.075,
      "velocity": 0.63,
      "hand": "left"
    },
    {
      "midi": 67,
      "time": 5.1,
      "duration": 0.075,
      "velocity": 1,
      "hand": "right"
    },
    {
      "midi": 67,
      "time": 5.1,
      "duration": 0.6,
      "velocity": 1,
      "hand": "right"
    },
    {
      "midi": 71,
      "time": 5.1,
      "duration": 0.075,
      "velocity": 1,
      "hand": "right"
    },
    {
      "midi": 74,
      "time": 5.1,
      "duration": 0.075,
      "velocity": 1,
      "hand": "right"
    },
    {
      "midi": 44,
      "time": 5.25,
      "duration": 0.075,
      "velocity": 0.63,
      "hand": "left"
    },
    {
      "midi": 67,
      "time": 5.25,
      "duration": 0.075,
      "velocity": 0.94,
      "hand": "right"
    },
    {
      "midi": 71,
      "time": 5.25,
      "duration": 0.075,
      "velocity": 1,
      "hand": "right"
    },
    {
      "midi": 74,
      "time": 5.25,
      "duration": 0.075,
      "velocity": 0.99,
      "hand": "right"
    },
    {
      "midi": 44,
      "time": 5.4,
      "duration": 0.075,
      "velocity": 0.63,
      "hand": "left"
    },
    {
      "midi": 67,
      "time": 5.4,
      "duration": 0.15,
      "velocity": 0.92,
      "hand": "right"
    },
    {
      "midi": 71,
      "time": 5.4,
      "duration": 0.15,
      "velocity": 0.94,
      "hand": "right"
    },
    {
      "midi": 74,
      "time": 5.4,
      "duration": 0.15,
      "velocity": 0.94,
      "hand": "right"
    },
    {
      "midi": 42,
      "time": 5.7,
      "duration": 0.15,
      "velocity": 0.63,
      "hand": "left"
    },
    {
      "midi": 46,
      "time": 5.7,
      "duration": 0.15,
      "velocity": 0.63,
      "hand": "left"
    },
    {
      "midi": 50,
      "time": 5.7,
      "duration": 0.15,
      "velocity": 1,
      "hand": "left"
    },
    {
      "midi": 66,
      "time": 5.7,
      "duration": 0.075,
      "velocity": 1,
      "hand": "right"
    },
    {
      "midi": 67,
      "time": 5.7,
      "duration": 0.075,
      "velocity": 1,
      "hand": "right"
    },
    {
      "midi": 70,
      "time": 5.7,
      "duration": 0.075,
      "velocity": 1,
      "hand": "right"
    },
    {
      "midi": 73,
      "time": 5.7,
      "duration": 0.075,
      "velocity": 1,
      "hand": "right"
    },
    {
      "midi": 38,
      "time": 6,
      "duration": 0.9,
      "velocity": 0.63,
      "hand": "left"
    },
    {
      "midi": 43,
      "time": 6,
      "duration": 0.75,
      "velocity": 1,
      "hand": "left"
    },
    {
      "midi": 44,
      "time": 6,
      "duration": 0.075,
      "velocity": 0.63,
      "hand": "left"
    },
    {
      "midi": 67,
      "time": 6,
      "duration": 0.15,
      "velocity": 1,
      "hand": "right"
    },
    {
      "midi": 71,
      "time": 6,
      "duration": 0.075,
      "velocity": 1,
      "hand": "right"
    },
    {
      "midi": 74,
      "time": 6,
      "duration": 0.075,
      "velocity": 1,
      "hand": "right"
    },
    {
      "midi": 44,
      "time": 6.3,
      "duration": 0.075,
      "velocity": 0.63,
      "hand": "left"
    },
    {
      "midi": 67,
      "time": 6.3,
      "duration": 0.075,
      "velocity": 0.99,
      "hand": "right"
    },
    {
      "midi": 67,
      "time": 6.3,
      "duration": 0.45,
      "velocity": 1,
      "hand": "right"
    },
    {
      "midi": 71,
      "time": 6.3,
      "duration": 0.075,
      "velocity": 1,
      "hand": "right"
    },
    {
      "midi": 74,
      "time": 6.3,
      "duration": 0.075,
      "velocity": 1,
      "hand": "right"
    },
    {
      "midi": 44,
      "time": 6.45,
      "duration": 0.075,
      "velocity": 0.63,
      "hand": "left"
    },
    {
      "midi": 67,
      "time": 6.45,
      "duration": 0.075,
      "velocity": 0.81,
      "hand": "right"
    },
    {
      "midi": 71,
      "time": 6.45,
      "duration": 0.075,
      "velocity": 0.85,
      "hand": "right"
    },
    {
      "midi": 74,
      "time": 6.45,
      "duration": 0.075,
      "velocity": 0.76,
      "hand": "right"
    },
    {
      "midi": 44,
      "time": 6.6,
      "duration": 0.075,
      "velocity": 0.63,
      "hand": "left"
    },
    {
      "midi": 67,
      "time": 6.6,
      "duration": 0.075,
      "velocity": 1,
      "hand": "right"
    },
    {
      "midi": 71,
      "time": 6.6,
      "duration": 0.075,
      "velocity": 1,
      "hand": "right"
    },
    {
      "midi": 74,
      "time": 6.6,
      "duration": 0.15,
      "velocity": 1,
      "hand": "right"
    },
    {
      "midi": 42,
      "time": 6.9,
      "duration": 0.15,
      "velocity": 0.63,
      "hand": "left"
    },
    {
      "midi": 46,
      "time": 6.9,
      "duration": 0.075,
      "velocity": 0.63,
      "hand": "left"
    },
    {
      "midi": 50,
      "time": 6.9,
      "duration": 0.3,
      "velocity": 1,
      "hand": "left"
    },
    {
      "midi": 66,
      "time": 6.9,
      "duration": 0.15,
      "velocity": 1,
      "hand": "right"
    },
    {
      "midi": 67,
      "time": 6.9,
      "duration": 0.075,
      "velocity": 1,
      "hand": "right"
    },
    {
      "midi": 70,
      "time": 6.9,
      "duration": 0.075,
      "velocity": 1,
      "hand": "right"
    },
    {
      "midi": 73,
      "time": 6.9,
      "duration": 0.15,
      "velocity": 1,
      "hand": "right"
    },
    {
      "midi": 38,
      "time": 7.2,
      "duration": 0.15,
      "velocity": 0.63,
      "hand": "left"
    },
    {
      "midi": 43,
      "time": 7.2,
      "duration": 0.15,
      "velocity": 1,
      "hand": "left"
    },
    {
      "midi": 44,
      "time": 7.2,
      "duration": 0.15,
      "velocity": 0.63,
      "hand": "left"
    },
    {
      "midi": 67,
      "time": 7.2,
      "duration": 0.15,
      "velocity": 0.99,
      "hand": "right"
    },
    {
      "midi": 71,
      "time": 7.2,
      "duration": 0.075,
      "velocity": 1,
      "hand": "right"
    },
    {
      "midi": 74,
      "time": 7.2,
      "duration": 0.075,
      "velocity": 1,
      "hand": "right"
    },
    {
      "midi": 42,
      "time": 7.5,
      "duration": 0.15,
      "velocity": 0.63,
      "hand": "left"
    },
    {
      "midi": 44,
      "time": 7.5,
      "duration": 0.15,
      "velocity": 0.63,
      "hand": "left"
    },
    {
      "midi": 50,
      "time": 7.5,
      "duration": 0.15,
      "velocity": 1,
      "hand": "left"
    },
    {
      "midi": 67,
      "time": 7.5,
      "duration": 0.15,
      "velocity": 1,
      "hand": "right"
    },
    {
      "midi": 71,
      "time": 7.5,
      "duration": 0.075,
      "velocity": 1,
      "hand": "right"
    },
    {
      "midi": 74,
      "time": 7.5,
      "duration": 0.15,
      "velocity": 0.97,
      "hand": "right"
    },
    {
      "midi": 46,
      "time": 7.65,
      "duration": 0.15,
      "velocity": 0.63,
      "hand": "left"
    },
    {
      "midi": 66,
      "time": 7.65,
      "duration": 0.15,
      "velocity": 1,
      "hand": "right"
    },
    {
      "midi": 67,
      "time": 7.65,
      "duration": 0.075,
      "velocity": 0.55,
      "hand": "right"
    },
    {
      "midi": 70,
      "time": 7.65,
      "duration": 0.15,
      "velocity": 1,
      "hand": "right"
    },
    {
      "midi": 73,
      "time": 7.65,
      "duration": 0.15,
      "velocity": 0.89,
      "hand": "right"
    },
    {
      "midi": 38,
      "time": 7.8,
      "duration": 0.15,
      "velocity": 0.63,
      "hand": "left"
    },
    {
      "midi": 43,
      "time": 7.8,
      "duration": 0.15,
      "velocity": 1,
      "hand": "left"
    },
    {
      "midi": 44,
      "time": 7.8,
      "duration": 0.15,
      "velocity": 0.63,
      "hand": "left"
    },
    {
      "midi": 67,
      "time": 7.8,
      "duration": 0.15,
      "velocity": 0.73,
      "hand": "right"
    },
    {
      "midi": 67,
      "time": 7.8,
      "duration": 0.075,
      "velocity": 1,
      "hand": "right"
    },
    {
      "midi": 70,
      "time": 7.8,
      "duration": 0.075,
      "velocity": 0.52,
      "hand": "right"
    },
    {
      "midi": 71,
      "time": 7.8,
      "duration": 0.075,
      "velocity": 0.81,
      "hand": "right"
    },
    {
      "midi": 74,
      "time": 7.8,
      "duration": 0.075,
      "velocity": 0.89,
      "hand": "right"
    },
    {
      "midi": 42,
      "time": 8.1,
      "duration": 0.15,
      "velocity": 0.63,
      "hand": "left"
    },
    {
      "midi": 46,
      "time": 8.1,
      "duration": 0.15,
      "velocity": 0.63,
      "hand": "left"
    },
    {
      "midi": 50,
      "time": 8.1,
      "duration": 0.15,
      "velocity": 1,
      "hand": "left"
    },
    {
      "midi": 67,
      "time": 8.1,
      "duration": 0.15,
      "velocity": 0.87,
      "hand": "right"
    },
    {
      "midi": 72,
      "time": 8.1,
      "duration": 0.075,
      "velocity": 1,
      "hand": "right"
    },
    {
      "midi": 76,
      "time": 8.1,
      "duration": 0.075,
      "velocity": 0.99,
      "hand": "right"
    },
    {
      "midi": 66,
      "time": 8.25,
      "duration": 0.15,
      "velocity": 1,
      "hand": "right"
    },
    {
      "midi": 38,
      "time": 8.4,
      "duration": 0.15,
      "velocity": 0.63,
      "hand": "left"
    },
    {
      "midi": 43,
      "time": 8.4,
      "duration": 1.2,
      "velocity": 1,
      "hand": "left"
    },
    {
      "midi": 44,
      "time": 8.4,
      "duration": 0.075,
      "velocity": 0.63,
      "hand": "left"
    },
    {
      "midi": 67,
      "time": 8.4,
      "duration": 0.75,
      "velocity": 1,
      "hand": "right"
    },
    {
      "midi": 67,
      "time": 8.4,
      "duration": 0.6,
      "velocity": 1,
      "hand": "right"
    },
    {
      "midi": 71,
      "time": 8.4,
      "duration": 0.15,
      "velocity": 1,
      "hand": "right"
    },
    {
      "midi": 74,
      "time": 8.4,
      "duration": 0.6,
      "velocity": 1,
      "hand": "right"
    },
    {
      "midi": 44,
      "time": 8.7,
      "duration": 0.15,
      "velocity": 0.63,
      "hand": "left"
    },
    {
      "midi": 59,
      "time": 8.7,
      "duration": 0.15,
      "velocity": 0.63,
      "hand": "left"
    },
    {
      "midi": 62,
      "time": 8.7,
      "duration": 0.3,
      "velocity": 0.99,
      "hand": "right"
    },
    {
      "midi": 71,
      "time": 8.7,
      "duration": 0.15,
      "velocity": 0.7,
      "hand": "right"
    },
    {
      "midi": 95,
      "time": 8.7,
      "duration": 0.15,
      "velocity": 0.76,
      "hand": "right"
    },
    {
      "midi": 60,
      "time": 8.85,
      "duration": 0.15,
      "velocity": 0.63,
      "hand": "right"
    },
    {
      "midi": 91,
      "time": 8.85,
      "duration": 0.15,
      "velocity": 0.91,
      "hand": "right"
    },
    {
      "midi": 44,
      "time": 9,
      "duration": 0.15,
      "velocity": 0.63,
      "hand": "left"
    },
    {
      "midi": 59,
      "time": 9,
      "duration": 0.3,
      "velocity": 0.89,
      "hand": "left"
    },
    {
      "midi": 61,
      "time": 9,
      "duration": 0.15,
      "velocity": 0.63,
      "hand": "right"
    },
    {
      "midi": 62,
      "time": 9,
      "duration": 0.3,
      "velocity": 0.79,
      "hand": "right"
    },
    {
      "midi": 72,
      "time": 9,
      "duration": 0.15,
      "velocity": 1,
      "hand": "right"
    },
    {
      "midi": 86,
      "time": 9,
      "duration": 0.15,
      "velocity": 0.92,
      "hand": "right"
    },
    {
      "midi": 44,
      "time": 9.3,
      "duration": 0.075,
      "velocity": 0.63,
      "hand": "left"
    },
    {
      "midi": 55,
      "time": 9.3,
      "duration": 0.3,
      "velocity": 1,
      "hand": "left"
    },
    {
      "midi": 61,
      "time": 9.3,
      "duration": 0.3,
      "velocity": 0.79,
      "hand": "right"
    },
    {
      "midi": 62,
      "time": 9.3,
      "duration": 0.075,
      "velocity": 0.63,
      "hand": "right"
    },
    {
      "midi": 67,
      "time": 9.3,
      "duration": 0.075,
      "velocity": 0.97,
      "hand": "right"
    },
    {
      "midi": 74,
      "time": 9.3,
      "duration": 0.15,
      "velocity": 0.97,
      "hand": "right"
    },
    {
      "midi": 91,
      "time": 9.3,
      "duration": 0.3,
      "velocity": 0.92,
      "hand": "right"
    },
    {
      "midi": 38,
      "time": 9.6,
      "duration": 0.15,
      "velocity": 0.63,
      "hand": "left"
    },
    {
      "midi": 44,
      "time": 9.6,
      "duration": 0.15,
      "velocity": 0.63,
      "hand": "left"
    },
    {
      "midi": 50,
      "time": 9.6,
      "duration": 0.6,
      "velocity": 1,
      "hand": "left"
    },
    {
      "midi": 50,
      "time": 9.6,
      "duration": 1.8,
      "velocity": 1,
      "hand": "left"
    },
    {
      "midi": 51,
      "time": 9.6,
      "duration": 0.15,
      "velocity": 0.63,
      "hand": "left"
    },
    {
      "midi": 60,
      "time": 9.6,
      "duration": 1.5,
      "velocity": 0.79,
      "hand": "right"
    },
    {
      "midi": 66,
      "time": 9.6,
      "duration": 0.075,
      "velocity": 1,
      "hand": "right"
    },
    {
      "midi": 69,
      "time": 9.6,
      "duration": 1.35,
      "velocity": 0.63,
      "hand": "right"
    },
    {
      "midi": 72,
      "time": 9.6,
      "duration": 0.075,
      "velocity": 1,
      "hand": "right"
    },
    {
      "midi": 74,
      "time": 9.6,
      "duration": 0.075,
      "velocity": 1,
      "hand": "right"
    },
    {
      "midi": 90,
      "time": 9.6,
      "duration": 1.35,
      "velocity": 0.92,
      "hand": "right"
    },
    {
      "midi": 42,
      "time": 9.9,
      "duration": 0.075,
      "velocity": 0.63,
      "hand": "left"
    },
    {
      "midi": 46,
      "time": 9.9,
      "duration": 0.075,
      "velocity": 0.63,
      "hand": "left"
    },
    {
      "midi": 66,
      "time": 9.9,
      "duration": 0.075,
      "velocity": 0.94,
      "hand": "right"
    },
    {
      "midi": 72,
      "time": 9.9,
      "duration": 0.075,
      "velocity": 1,
      "hand": "right"
    },
    {
      "midi": 74,
      "time": 9.9,
      "duration": 0.075,
      "velocity": 0.94,
      "hand": "right"
    },
    {
      "midi": 66,
      "time": 10.05,
      "duration": 0.075,
      "velocity": 0.68,
      "hand": "right"
    },
    {
      "midi": 72,
      "time": 10.05,
      "duration": 0.075,
      "velocity": 1,
      "hand": "right"
    },
    {
      "midi": 74,
      "time": 10.05,
      "duration": 0.075,
      "velocity": 0.87,
      "hand": "right"
    },
    {
      "midi": 38,
      "time": 10.2,
      "duration": 0.6,
      "velocity": 1,
      "hand": "left"
    },
    {
      "midi": 38,
      "time": 10.2,
      "duration": 0.3,
      "velocity": 0.63,
      "hand": "left"
    },
    {
      "midi": 44,
      "time": 10.2,
      "duration": 0.15,
      "velocity": 0.63,
      "hand": "left"
    },
    {
      "midi": 66,
      "time": 10.2,
      "duration": 0.075,
      "velocity": 0.85,
      "hand": "right"
    },
    {
      "midi": 72,
      "time": 10.2,
      "duration": 0.075,
      "velocity": 1,
      "hand": "right"
    },
    {
      "midi": 74,
      "time": 10.2,
      "duration": 0.075,
      "velocity": 1,
      "hand": "right"
    },
    {
      "midi": 42,
      "time": 10.5,
      "duration": 0.15,
      "velocity": 0.63,
      "hand": "left"
    },
    {
      "midi": 46,
      "time": 10.5,
      "duration": 0.075,
      "velocity": 0.63,
      "hand": "left"
    },
    {
      "midi": 66,
      "time": 10.5,
      "duration": 0.075,
      "velocity": 1,
      "hand": "right"
    },
    {
      "midi": 72,
      "time": 10.5,
      "duration": 0.075,
      "velocity": 1,
      "hand": "right"
    },
    {
      "midi": 76,
      "time": 10.5,
      "duration": 0.075,
      "velocity": 1,
      "hand": "right"
    },
    {
      "midi": 38,
      "time": 10.8,
      "duration": 0.3,
      "velocity": 0.63,
      "hand": "left"
    },
    {
      "midi": 44,
      "time": 10.8,
      "duration": 0.15,
      "velocity": 0.63,
      "hand": "left"
    },
    {
      "midi": 50,
      "time": 10.8,
      "duration": 0.75,
      "velocity": 1,
      "hand": "left"
    },
    {
      "midi": 51,
      "time": 10.8,
      "duration": 0.9,
      "velocity": 0.63,
      "hand": "left"
    },
    {
      "midi": 66,
      "time": 10.8,
      "duration": 0.3,
      "velocity": 1,
      "hand": "right"
    },
    {
      "midi": 72,
      "time": 10.8,
      "duration": 0.3,
      "velocity": 1,
      "hand": "right"
    },
    {
      "midi": 74,
      "time": 10.8,
      "duration": 0.3,
      "velocity": 1,
      "hand": "right"
    },
    {
      "midi": 42,
      "time": 11.1,
      "duration": 0.15,
      "velocity": 0.63,
      "hand": "left"
    },
    {
      "midi": 46,
      "time": 11.1,
      "duration": 0.075,
      "velocity": 0.63,
      "hand": "left"
    },
    {
      "midi": 64,
      "time": 11.1,
      "duration": 0.3,
      "velocity": 0.79,
      "hand": "right"
    },
    {
      "midi": 72,
      "time": 11.1,
      "duration": 0.15,
      "velocity": 0.63,
      "hand": "right"
    },
    {
      "midi": 96,
      "time": 11.1,
      "duration": 0.15,
      "velocity": 0.92,
      "hand": "right"
    },
    {
      "midi": 71,
      "time": 11.25,
      "duration": 0.075,
      "velocity": 0.63,
      "hand": "right"
    },
    {
      "midi": 95,
      "time": 11.25,
      "duration": 0.075,
      "velocity": 0.62,
      "hand": "right"
    },
    {
      "midi": 38,
      "time": 11.4,
      "duration": 0.3,
      "velocity": 0.63,
      "hand": "left"
    },
    {
      "midi": 42,
      "time": 11.4,
      "duration": 0.6,
      "velocity": 1,
      "hand": "left"
    },
    {
      "midi": 44,
      "time": 11.4,
      "duration": 0.15,
      "velocity": 0.63,
      "hand": "left"
    },
    {
      "midi": 52,
      "time": 11.4,
      "duration": 0.3,
      "velocity": 0.99,
      "hand": "left"
    },
    {
      "midi": 62,
      "time": 11.4,
      "duration": 0.3,
      "velocity": 0.79,
      "hand": "right"
    },
    {
      "midi": 66,
      "time": 11.4,
      "duration": 0.45,
      "velocity": 1,
      "hand": "right"
    },
    {
      "midi": 71,
      "time": 11.4,
      "duration": 0.15,
      "velocity": 0.63,
      "hand": "right"
    },
    {
      "midi": 72,
      "time": 11.4,
      "duration": 0.45,
      "velocity": 1,
      "hand": "right"
    },
    {
      "midi": 72,
      "time": 11.4,
      "duration": 0.15,
      "velocity": 0.63,
      "hand": "right"
    },
    {
      "midi": 74,
      "time": 11.4,
      "duration": 0.3,
      "velocity": 1,
      "hand": "right"
    },
    {
      "midi": 95,
      "time": 11.4,
      "duration": 0.3,
      "velocity": 0.81,
      "hand": "right"
    },
    {
      "midi": 96,
      "time": 11.4,
      "duration": 0.15,
      "velocity": 0.71,
      "hand": "right"
    },
    {
      "midi": 97,
      "time": 11.4,
      "duration": 0.15,
      "velocity": 0.65,
      "hand": "right"
    },
    {
      "midi": 42,
      "time": 11.7,
      "duration": 0.15,
      "velocity": 0.63,
      "hand": "left"
    },
    {
      "midi": 46,
      "time": 11.7,
      "duration": 0.15,
      "velocity": 0.63,
      "hand": "left"
    },
    {
      "midi": 54,
      "time": 11.7,
      "duration": 0.3,
      "velocity": 0.98,
      "hand": "left"
    },
    {
      "midi": 60,
      "time": 11.7,
      "duration": 0.3,
      "velocity": 0.79,
      "hand": "right"
    },
    {
      "midi": 66,
      "time": 11.7,
      "duration": 0.3,
      "velocity": 0.63,
      "hand": "right"
    },
    {
      "midi": 90,
      "time": 11.7,
      "duration": 0.3,
      "velocity": 0.92,
      "hand": "right"
    },
    {
      "midi": 44,
      "time": 11.85,
      "duration": 0.075,
      "velocity": 0.63,
      "hand": "left"
    },
    {
      "midi": 46,
      "time": 11.85,
      "duration": 0.075,
      "velocity": 0.63,
      "hand": "left"
    },
    {
      "midi": 38,
      "time": 12,
      "duration": 0.15,
      "velocity": 0.63,
      "hand": "left"
    },
    {
      "midi": 43,
      "time": 12,
      "duration": 0.15,
      "velocity": 1,
      "hand": "left"
    },
    {
      "midi": 44,
      "time": 12,
      "duration": 0.15,
      "velocity": 0.63,
      "hand": "left"
    },
    {
      "midi": 51,
      "time": 12,
      "duration": 0.075,
      "velocity": 0.63,
      "hand": "left"
    },
    {
      "midi": 55,
      "time": 12,
      "duration": 0.75,
      "velocity": 0.97,
      "hand": "left"
    },
    {
      "midi": 59,
      "time": 12,
      "duration": 1.35,
      "velocity": 0.79,
      "hand": "left"
    },
    {
      "midi": 67,
      "time": 12,
      "duration": 0.075,
      "velocity": 0.99,
      "hand": "right"
    },
    {
      "midi": 69,
      "time": 12,
      "duration": 0.075,
      "velocity": 0.63,
      "hand": "right"
    },
    {
      "midi": 71,
      "time": 12,
      "duration": 0.075,
      "velocity": 1,
      "hand": "right"
    },
    {
      "midi": 74,
      "time": 12,
      "duration": 0.075,
      "velocity": 1,
      "hand": "right"
    },
    {
      "midi": 93,
      "time": 12,
      "duration": 0.15,
      "velocity": 0.84,
      "hand": "right"
    },
    {
      "midi": 67,
      "time": 12.15,
      "duration": 0.075,
      "velocity": 0.63,
      "hand": "right"
    },
    {
      "midi": 69,
      "time": 12.15,
      "duration": 0.15,
      "velocity": 0.63,
      "hand": "right"
    },
    {
      "midi": 91,
      "time": 12.15,
      "duration": 0.075,
      "velocity": 0.77,
      "hand": "right"
    },
    {
      "midi": 93,
      "time": 12.15,
      "duration": 0.15,
      "velocity": 0.8,
      "hand": "right"
    },
    {
      "midi": 42,
      "time": 12.3,
      "duration": 0.15,
      "velocity": 0.63,
      "hand": "left"
    },
    {
      "midi": 46,
      "time": 12.3,
      "duration": 0.075,
      "velocity": 0.63,
      "hand": "left"
    },
    {
      "midi": 67,
      "time": 12.3,
      "duration": 0.075,
      "velocity": 1,
      "hand": "right"
    },
    {
      "midi": 67,
      "time": 12.3,
      "duration": 0.3,
      "velocity": 0.63,
      "hand": "right"
    },
    {
      "midi": 71,
      "time": 12.3,
      "duration": 0.075,
      "velocity": 1,
      "hand": "right"
    },
    {
      "midi": 74,
      "time": 12.3,
      "duration": 0.075,
      "velocity": 1,
      "hand": "right"
    },
    {
      "midi": 91,
      "time": 12.3,
      "duration": 0.3,
      "velocity": 0.89,
      "hand": "right"
    },
    {
      "midi": 67,
      "time": 12.45,
      "duration": 0.075,
      "velocity": 0.83,
      "hand": "right"
    },
    {
      "midi": 71,
      "time": 12.45,
      "duration": 0.075,
      "velocity": 0.94,
      "hand": "right"
    },
    {
      "midi": 74,
      "time": 12.45,
      "duration": 0.075,
      "velocity": 0.94,
      "hand": "right"
    },
    {
      "midi": 38,
      "time": 12.6,
      "duration": 0.6,
      "velocity": 1,
      "hand": "left"
    },
    {
      "midi": 38,
      "time": 12.6,
      "duration": 0.3,
      "velocity": 0.63,
      "hand": "left"
    },
    {
      "midi": 44,
      "time": 12.6,
      "duration": 0.15,
      "velocity": 0.63,
      "hand": "left"
    },
    {
      "midi": 59,
      "time": 12.6,
      "duration": 1.05,
      "velocity": 0.63,
      "hand": "left"
    },
    {
      "midi": 59,
      "time": 12.6,
      "duration": 0.6,
      "velocity": 0.94,
      "hand": "left"
    },
    {
      "midi": 67,
      "time": 12.6,
      "duration": 0.075,
      "velocity": 1,
      "hand": "right"
    },
    {
      "midi": 71,
      "time": 12.6,
      "duration": 0.075,
      "velocity": 1,
      "hand": "right"
    },
    {
      "midi": 74,
      "time": 12.6,
      "duration": 0.15,
      "velocity": 1,
      "hand": "right"
    },
    {
      "midi": 83,
      "time": 12.6,
      "duration": 0.9,
      "velocity": 0.92,
      "hand": "right"
    },
    {
      "midi": 85,
      "time": 12.6,
      "duration": 0.075,
      "velocity": 0.81,
      "hand": "right"
    },
    {
      "midi": 42,
      "time": 12.9,
      "duration": 0.15,
      "velocity": 0.63,
      "hand": "left"
    },
    {
      "midi": 46,
      "time": 12.9,
      "duration": 0.075,
      "velocity": 0.63,
      "hand": "left"
    },
    {
      "midi": 67,
      "time": 12.9,
      "duration": 0.075,
      "velocity": 1,
      "hand": "right"
    },
    {
      "midi": 70,
      "time": 12.9,
      "duration": 0.075,
      "velocity": 1,
      "hand": "right"
    },
    {
      "midi": 73,
      "time": 12.9,
      "duration": 0.075,
      "velocity": 1,
      "hand": "right"
    },
    {
      "midi": 38,
      "time": 13.2,
      "duration": 0.15,
      "velocity": 0.63,
      "hand": "left"
    },
    {
      "midi": 43,
      "time": 13.2,
      "duration": 0.075,
      "velocity": 0.99,
      "hand": "left"
    },
    {
      "midi": 44,
      "time": 13.2,
      "duration": 0.15,
      "velocity": 0.63,
      "hand": "left"
    },
    {
      "midi": 50,
      "time": 13.2,
      "duration": 1.2,
      "velocity": 0.87,
      "hand": "left"
    },
    {
      "midi": 51,
      "time": 13.2,
      "duration": 0.9,
      "velocity": 0.63,
      "hand": "left"
    },
    {
      "midi": 67,
      "time": 13.2,
      "duration": 0.45,
      "velocity": 0.99,
      "hand": "right"
    },
    {
      "midi": 71,
      "time": 13.2,
      "duration": 0.45,
      "velocity": 1,
      "hand": "right"
    },
    {
      "midi": 74,
      "time": 13.2,
      "duration": 0.45,
      "velocity": 1,
      "hand": "right"
    },
    {
      "midi": 60,
      "time": 13.35,
      "duration": 0.15,
      "velocity": 0.79,
      "hand": "right"
    },
    {
      "midi": 42,
      "time": 13.5,
      "duration": 0.15,
      "velocity": 0.63,
      "hand": "left"
    },
    {
      "midi": 43,
      "time": 13.5,
      "duration": 0.3,
      "velocity": 1,
      "hand": "left"
    },
    {
      "midi": 46,
      "time": 13.5,
      "duration": 0.075,
      "velocity": 0.63,
      "hand": "left"
    },
    {
      "midi": 60,
      "time": 13.5,
      "duration": 0.3,
      "velocity": 0.63,
      "hand": "right"
    },
    {
      "midi": 61,
      "time": 13.5,
      "duration": 0.15,
      "velocity": 0.79,
      "hand": "right"
    },
    {
      "midi": 84,
      "time": 13.5,
      "duration": 0.15,
      "velocity": 0.92,
      "hand": "right"
    },
    {
      "midi": 62,
      "time": 13.65,
      "duration": 0.15,
      "velocity": 0.79,
      "hand": "right"
    },
    {
      "midi": 85,
      "time": 13.65,
      "duration": 0.15,
      "velocity": 0.81,
      "hand": "right"
    },
    {
      "midi": 38,
      "time": 13.8,
      "duration": 0.3,
      "velocity": 0.63,
      "hand": "left"
    },
    {
      "midi": 44,
      "time": 13.8,
      "duration": 0.15,
      "velocity": 0.63,
      "hand": "left"
    },
    {
      "midi": 45,
      "time": 13.8,
      "duration": 0.15,
      "velocity": 1,
      "hand": "left"
    },
    {
      "midi": 61,
      "time": 13.8,
      "duration": 0.3,
      "velocity": 0.63,
      "hand": "right"
    },
    {
      "midi": 62,
      "time": 13.8,
      "duration": 0.45,
      "velocity": 1,
      "hand": "right"
    },
    {
      "midi": 67,
      "time": 13.8,
      "duration": 0.45,
      "velocity": 1,
      "hand": "right"
    },
    {
      "midi": 69,
      "time": 13.8,
      "duration": 0.3,
      "velocity": 0.79,
      "hand": "right"
    },
    {
      "midi": 71,
      "time": 13.8,
      "duration": 0.45,
      "velocity": 1,
      "hand": "right"
    },
    {
      "midi": 88,
      "time": 13.8,
      "duration": 0.15,
      "velocity": 0.91,
      "hand": "right"
    },
    {
      "midi": 86,
      "time": 13.95,
      "duration": 0.075,
      "velocity": 0.92,
      "hand": "right"
    },
    {
      "midi": 42,
      "time": 14.1,
      "duration": 0.15,
      "velocity": 0.63,
      "hand": "left"
    },
    {
      "midi": 46,
      "time": 14.1,
      "duration": 0.15,
      "velocity": 0.63,
      "hand": "left"
    },
    {
      "midi": 47,
      "time": 14.1,
      "duration": 0.15,
      "velocity": 1,
      "hand": "left"
    },
    {
      "midi": 64,
      "time": 14.1,
      "duration": 0.3,
      "velocity": 0.63,
      "hand": "right"
    },
    {
      "midi": 67,
      "time": 14.1,
      "duration": 0.3,
      "velocity": 0.79,
      "hand": "right"
    },
    {
      "midi": 86,
      "time": 14.1,
      "duration": 0.45,
      "velocity": 0.71,
      "hand": "right"
    },
    {
      "midi": 88,
      "time": 14.1,
      "duration": 0.15,
      "velocity": 0.5,
      "hand": "right"
    },
    {
      "midi": 44,
      "time": 14.25,
      "duration": 0.075,
      "velocity": 0.63,
      "hand": "left"
    },
    {
      "midi": 46,
      "time": 14.25,
      "duration": 0.075,
      "velocity": 0.63,
      "hand": "left"
    },
    {
      "midi": 38,
      "time": 14.4,
      "duration": 0.15,
      "velocity": 0.63,
      "hand": "left"
    },
    {
      "midi": 44,
      "time": 14.4,
      "duration": 0.15,
      "velocity": 0.63,
      "hand": "left"
    },
    {
      "midi": 50,
      "time": 14.4,
      "duration": 0.75,
      "velocity": 1,
      "hand": "left"
    },
    {
      "midi": 51,
      "time": 14.4,
      "duration": 1.05,
      "velocity": 0.63,
      "hand": "left"
    },
    {
      "midi": 54,
      "time": 14.4,
      "duration": 0.6,
      "velocity": 0.96,
      "hand": "left"
    },
    {
      "midi": 62,
      "time": 14.4,
      "duration": 0.3,
      "velocity": 0.63,
      "hand": "right"
    },
    {
      "midi": 66,
      "time": 14.4,
      "duration": 0.075,
      "velocity": 0.89,
      "hand": "right"
    },
    {
      "midi": 66,
      "time": 14.4,
      "duration": 1.2,
      "velocity": 0.79,
      "hand": "right"
    },
    {
      "midi": 70,
      "time": 14.4,
      "duration": 0.075,
      "velocity": 0.82,
      "hand": "right"
    },
    {
      "midi": 72,
      "time": 14.4,
      "duration": 0.075,
      "velocity": 1,
      "hand": "right"
    },
    {
      "midi": 73,
      "time": 14.4,
      "duration": 0.075,
      "velocity": 0.92,
      "hand": "right"
    },
    {
      "midi": 74,
      "time": 14.4,
      "duration": 0.075,
      "velocity": 1,
      "hand": "right"
    },
    {
      "midi": 84,
      "time": 14.4,
      "duration": 0.3,
      "velocity": 0.92,
      "hand": "right"
    },
    {
      "midi": 42,
      "time": 14.7,
      "duration": 0.15,
      "velocity": 0.63,
      "hand": "left"
    },
    {
      "midi": 46,
      "time": 14.7,
      "duration": 0.075,
      "velocity": 0.63,
      "hand": "left"
    },
    {
      "midi": 60,
      "time": 14.7,
      "duration": 0.3,
      "velocity": 0.63,
      "hand": "right"
    },
    {
      "midi": 66,
      "time": 14.7,
      "duration": 0.075,
      "velocity": 0.92,
      "hand": "right"
    },
    {
      "midi": 72,
      "time": 14.7,
      "duration": 0.075,
      "velocity": 1,
      "hand": "right"
    },
    {
      "midi": 74,
      "time": 14.7,
      "duration": 0.075,
      "velocity": 0.94,
      "hand": "right"
    },
    {
      "midi": 81,
      "time": 14.7,
      "duration": 0.15,
      "velocity": 0.92,
      "hand": "right"
    },
    {
      "midi": 66,
      "time": 14.85,
      "duration": 0.075,
      "velocity": 0.63,
      "hand": "right"
    },
    {
      "midi": 72,
      "time": 14.85,
      "duration": 0.075,
      "velocity": 0.96,
      "hand": "right"
    },
    {
      "midi": 74,
      "time": 14.85,
      "duration": 0.15,
      "velocity": 0.83,
      "hand": "right"
    },
    {
      "midi": 38,
      "time": 15,
      "duration": 0.6,
      "velocity": 1,
      "hand": "left"
    },
    {
      "midi": 38,
      "time": 15,
      "duration": 0.15,
      "velocity": 0.63,
      "hand": "left"
    },
    {
      "midi": 44,
      "time": 15,
      "duration": 0.15,
      "velocity": 0.63,
      "hand": "left"
    },
    {
      "midi": 52,
      "time": 15,
      "duration": 0.3,
      "velocity": 0.63,
      "hand": "left"
    },
    {
      "midi": 57,
      "time": 15,
      "duration": 0.6,
      "velocity": 0.81,
      "hand": "left"
    },
    {
      "midi": 66,
      "time": 15,
      "duration": 0.15,
      "velocity": 0.92,
      "hand": "right"
    },
    {
      "midi": 72,
      "time": 15,
      "duration": 0.15,
      "velocity": 1,
      "hand": "right"
    },
    {
      "midi": 74,
      "time": 15,
      "duration": 0.15,
      "velocity": 0.99,
      "hand": "right"
    },
    {
      "midi": 76,
      "time": 15,
      "duration": 0.3,
      "velocity": 0.92,
      "hand": "right"
    },
    {
      "midi": 42,
      "time": 15.3,
      "duration": 0.15,
      "velocity": 0.63,
      "hand": "left"
    },
    {
      "midi": 46,
      "time": 15.3,
      "duration": 0.075,
      "velocity": 0.63,
      "hand": "left"
    },
    {
      "midi": 53,
      "time": 15.3,
      "duration": 0.3,
      "velocity": 0.63,
      "hand": "left"
    },
    {
      "midi": 62,
      "time": 15.3,
      "duration": 0.075,
      "velocity": 1,
      "hand": "right"
    },
    {
      "midi": 66,
      "time": 15.3,
      "duration": 0.075,
      "velocity": 1,
      "hand": "right"
    },
    {
      "midi": 72,
      "time": 15.3,
      "duration": 0.075,
      "velocity": 1,
      "hand": "right"
    },
    {
      "midi": 78,
      "time": 15.3,
      "duration": 0.3,
      "velocity": 0.92,
      "hand": "right"
    },
    {
      "midi": 38,
      "time": 15.6,
      "duration": 0.3,
      "velocity": 0.63,
      "hand": "left"
    },
    {
      "midi": 44,
      "time": 15.6,
      "duration": 0.15,
      "velocity": 0.63,
      "hand": "left"
    },
    {
      "midi": 50,
      "time": 15.6,
      "duration": 1.2,
      "velocity": 0.89,
      "hand": "left"
    },
    {
      "midi": 51,
      "time": 15.6,
      "duration": 0.15,
      "velocity": 0.63,
      "hand": "left"
    },
    {
      "midi": 54,
      "time": 15.6,
      "duration": 0.3,
      "velocity": 0.63,
      "hand": "left"
    },
    {
      "midi": 64,
      "time": 15.6,
      "duration": 0.3,
      "velocity": 0.89,
      "hand": "right"
    },
    {
      "midi": 67,
      "time": 15.6,
      "duration": 0.3,
      "velocity": 0.94,
      "hand": "right"
    },
    {
      "midi": 68,
      "time": 15.6,
      "duration": 0.075,
      "velocity": 0.38,
      "hand": "right"
    },
    {
      "midi": 72,
      "time": 15.6,
      "duration": 0.45,
      "velocity": 1,
      "hand": "right"
    },
    {
      "midi": 83,
      "time": 15.6,
      "duration": 0.45,
      "velocity": 0.91,
      "hand": "right"
    },
    {
      "midi": 38,
      "time": 15.9,
      "duration": 0.15,
      "velocity": 1,
      "hand": "left"
    },
    {
      "midi": 42,
      "time": 15.9,
      "duration": 0.15,
      "velocity": 0.63,
      "hand": "left"
    },
    {
      "midi": 46,
      "time": 15.9,
      "duration": 0.075,
      "velocity": 0.63,
      "hand": "left"
    },
    {
      "midi": 50,
      "time": 15.9,
      "duration": 0.15,
      "velocity": 1,
      "hand": "left"
    },
    {
      "midi": 57,
      "time": 15.9,
      "duration": 0.3,
      "velocity": 0.79,
      "hand": "left"
    },
    {
      "midi": 59,
      "time": 15.9,
      "duration": 0.45,
      "velocity": 0.63,
      "hand": "left"
    },
    {
      "midi": 38,
      "time": 16.2,
      "duration": 0.3,
      "velocity": 0.63,
      "hand": "left"
    },
    {
      "midi": 40,
      "time": 16.2,
      "duration": 0.15,
      "velocity": 1,
      "hand": "left"
    },
    {
      "midi": 44,
      "time": 16.2,
      "duration": 0.15,
      "velocity": 0.63,
      "hand": "left"
    },
    {
      "midi": 48,
      "time": 16.2,
      "duration": 0.15,
      "velocity": 0.91,
      "hand": "left"
    },
    {
      "midi": 51,
      "time": 16.2,
      "duration": 0.3,
      "velocity": 0.63,
      "hand": "left"
    },
    {
      "midi": 62,
      "time": 16.2,
      "duration": 0.3,
      "velocity": 0.79,
      "hand": "right"
    },
    {
      "midi": 66,
      "time": 16.2,
      "duration": 0.3,
      "velocity": 1,
      "hand": "right"
    },
    {
      "midi": 69,
      "time": 16.2,
      "duration": 0.3,
      "velocity": 1,
      "hand": "right"
    },
    {
      "midi": 72,
      "time": 16.2,
      "duration": 0.3,
      "velocity": 1,
      "hand": "right"
    },
    {
      "midi": 81,
      "time": 16.2,
      "duration": 0.075,
      "velocity": 0.8,
      "hand": "right"
    },
    {
      "midi": 81,
      "time": 16.2,
      "duration": 0.6,
      "velocity": 0.84,
      "hand": "right"
    },
    {
      "midi": 84,
      "time": 16.2,
      "duration": 0.15,
      "velocity": 0.81,
      "hand": "right"
    },
    {
      "midi": 42,
      "time": 16.5,
      "duration": 0.15,
      "velocity": 1,
      "hand": "left"
    },
    {
      "midi": 46,
      "time": 16.5,
      "duration": 0.15,
      "velocity": 0.63,
      "hand": "left"
    },
    {
      "midi": 50,
      "time": 16.5,
      "duration": 0.075,
      "velocity": 1,
      "hand": "left"
    },
    {
      "midi": 57,
      "time": 16.5,
      "duration": 0.075,
      "velocity": 0.63,
      "hand": "left"
    },
    {
      "midi": 57,
      "time": 16.5,
      "duration": 0.3,
      "velocity": 0.63,
      "hand": "left"
    },
    {
      "midi": 59,
      "time": 16.5,
      "duration": 0.075,
      "velocity": 0.63,
      "hand": "left"
    },
    {
      "midi": 60,
      "time": 16.5,
      "duration": 0.3,
      "velocity": 0.79,
      "hand": "right"
    },
    {
      "midi": 44,
      "time": 16.65,
      "duration": 0.075,
      "velocity": 0.63,
      "hand": "left"
    },
    {
      "midi": 38,
      "time": 16.8,
      "duration": 0.3,
      "velocity": 0.63,
      "hand": "left"
    },
    {
      "midi": 43,
      "time": 16.8,
      "duration": 0.45,
      "velocity": 1,
      "hand": "left"
    },
    {
      "midi": 44,
      "time": 16.8,
      "duration": 0.075,
      "velocity": 0.63,
      "hand": "left"
    },
    {
      "midi": 46,
      "time": 16.8,
      "duration": 0.075,
      "velocity": 0.63,
      "hand": "left"
    },
    {
      "midi": 51,
      "time": 16.8,
      "duration": 1.05,
      "velocity": 0.63,
      "hand": "left"
    },
    {
      "midi": 55,
      "time": 16.8,
      "duration": 1.05,
      "velocity": 0.63,
      "hand": "left"
    },
    {
      "midi": 55,
      "time": 16.8,
      "duration": 0.6,
      "velocity": 0.99,
      "hand": "left"
    },
    {
      "midi": 59,
      "time": 16.8,
      "duration": 1.35,
      "velocity": 0.79,
      "hand": "left"
    },
    {
      "midi": 62,
      "time": 16.8,
      "duration": 0.15,
      "velocity": 0.99,
      "hand": "right"
    },
    {
      "midi": 67,
      "time": 16.8,
      "duration": 0.075,
      "velocity": 1,
      "hand": "right"
    },
    {
      "midi": 71,
      "time": 16.8,
      "duration": 0.075,
      "velocity": 0.89,
      "hand": "right"
    },
    {
      "midi": 79,
      "time": 16.8,
      "duration": 1.2,
      "velocity": 0.92,
      "hand": "right"
    },
    {
      "midi": 42,
      "time": 17.1,
      "duration": 0.15,
      "velocity": 0.63,
      "hand": "left"
    },
    {
      "midi": 46,
      "time": 17.1,
      "duration": 0.075,
      "velocity": 0.63,
      "hand": "left"
    },
    {
      "midi": 62,
      "time": 17.1,
      "duration": 0.075,
      "velocity": 1,
      "hand": "right"
    },
    {
      "midi": 67,
      "time": 17.1,
      "duration": 0.075,
      "velocity": 1,
      "hand": "right"
    },
    {
      "midi": 71,
      "time": 17.1,
      "duration": 0.075,
      "velocity": 0.94,
      "hand": "right"
    },
    {
      "midi": 62,
      "time": 17.25,
      "duration": 0.075,
      "velocity": 0.68,
      "hand": "right"
    },
    {
      "midi": 67,
      "time": 17.25,
      "duration": 0.075,
      "velocity": 0.94,
      "hand": "right"
    },
    {
      "midi": 71,
      "time": 17.25,
      "duration": 0.075,
      "velocity": 0.81,
      "hand": "right"
    },
    {
      "midi": 38,
      "time": 17.4,
      "duration": 0.45,
      "velocity": 1,
      "hand": "left"
    },
    {
      "midi": 38,
      "time": 17.4,
      "duration": 0.3,
      "velocity": 0.63,
      "hand": "left"
    },
    {
      "midi": 44,
      "time": 17.4,
      "duration": 0.15,
      "velocity": 0.63,
      "hand": "left"
    },
    {
      "midi": 50,
      "time": 17.4,
      "duration": 0.3,
      "velocity": 0.85,
      "hand": "left"
    },
    {
      "midi": 62,
      "time": 17.4,
      "duration": 0.15,
      "velocity": 0.7,
      "hand": "right"
    },
    {
      "midi": 67,
      "time": 17.4,
      "duration": 0.075,
      "velocity": 0.87,
      "hand": "right"
    },
    {
      "midi": 71,
      "time": 17.4,
      "duration": 0.15,
      "velocity": 0.85,
      "hand": "right"
    },
    {
      "midi": 42,
      "time": 17.7,
      "duration": 0.15,
      "velocity": 0.63,
      "hand": "left"
    },
    {
      "midi": 46,
      "time": 17.7,
      "duration": 0.075,
      "velocity": 0.63,
      "hand": "left"
    },
    {
      "midi": 47,
      "time": 17.7,
      "duration": 0.3,
      "velocity": 1,
      "hand": "left"
    },
    {
      "midi": 64,
      "time": 17.7,
      "duration": 0.075,
      "velocity": 0.89,
      "hand": "right"
    },
    {
      "midi": 67,
      "time": 17.7,
      "duration": 0.15,
      "velocity": 0.99,
      "hand": "right"
    },
    {
      "midi": 68,
      "time": 17.7,
      "duration": 0.075,
      "velocity": 0.72,
      "hand": "right"
    },
    {
      "midi": 72,
      "time": 17.7,
      "duration": 0.075,
      "velocity": 1,
      "hand": "right"
    },
    {
      "midi": 38,
      "time": 18,
      "duration": 0.15,
      "velocity": 0.63,
      "hand": "left"
    },
    {
      "midi": 40,
      "time": 18,
      "duration": 0.3,
      "velocity": 0.97,
      "hand": "left"
    },
    {
      "midi": 43,
      "time": 18,
      "duration": 0.45,
      "velocity": 1,
      "hand": "left"
    },
    {
      "midi": 44,
      "time": 18,
      "duration": 0.15,
      "velocity": 0.63,
      "hand": "left"
    },
    {
      "midi": 62,
      "time": 18,
      "duration": 0.3,
      "velocity": 0.94,
      "hand": "right"
    },
    {
      "midi": 62,
      "time": 18,
      "duration": 1.05,
      "velocity": 0.63,
      "hand": "right"
    },
    {
      "midi": 67,
      "time": 18,
      "duration": 0.3,
      "velocity": 1,
      "hand": "right"
    },
    {
      "midi": 71,
      "time": 18,
      "duration": 0.3,
      "velocity": 1,
      "hand": "right"
    },
    {
      "midi": 86,
      "time": 18,
      "duration": 1.05,
      "velocity": 0.63,
      "hand": "right"
    },
    {
      "midi": 46,
      "time": 18.3,
      "duration": 0.075,
      "velocity": 0.63,
      "hand": "left"
    },
    {
      "midi": 38,
      "time": 18.6,
      "duration": 0.3,
      "velocity": 0.63,
      "hand": "left"
    },
    {
      "midi": 42,
      "time": 18.6,
      "duration": 0.3,
      "velocity": 1,
      "hand": "left"
    },
    {
      "midi": 44,
      "time": 18.6,
      "duration": 0.075,
      "velocity": 0.63,
      "hand": "left"
    },
    {
      "midi": 51,
      "time": 18.6,
      "duration": 0.075,
      "velocity": 0.63,
      "hand": "left"
    },
    {
      "midi": 62,
      "time": 18.6,
      "duration": 0.15,
      "velocity": 1,
      "hand": "right"
    },
    {
      "midi": 62,
      "time": 18.6,
      "duration": 0.6,
      "velocity": 1,
      "hand": "right"
    },
    {
      "midi": 66,
      "time": 18.6,
      "duration": 0.15,
      "velocity": 1,
      "hand": "right"
    },
    {
      "midi": 69,
      "time": 18.6,
      "duration": 0.15,
      "velocity": 0.97,
      "hand": "right"
    },
    {
      "midi": 44,
      "time": 18.75,
      "duration": 0.075,
      "velocity": 0.63,
      "hand": "left"
    },
    {
      "midi": 46,
      "time": 18.75,
      "duration": 0.075,
      "velocity": 0.63,
      "hand": "left"
    },
    {
      "midi": 44,
      "time": 18.9,
      "duration": 0.075,
      "velocity": 0.63,
      "hand": "left"
    },
    {
      "midi": 46,
      "time": 18.9,
      "duration": 0.075,
      "velocity": 0.63,
      "hand": "left"
    },
    {
      "midi": 44,
      "time": 19.05,
      "duration": 0.075,
      "velocity": 0.63,
      "hand": "left"
    },
    {
      "midi": 46,
      "time": 19.05,
      "duration": 0.075,
      "velocity": 0.63,
      "hand": "left"
    },
    {
      "midi": 38,
      "time": 19.2,
      "duration": 0.15,
      "velocity": 0.63,
      "hand": "left"
    },
    {
      "midi": 43,
      "time": 19.2,
      "duration": 0.15,
      "velocity": 1,
      "hand": "left"
    },
    {
      "midi": 44,
      "time": 19.2,
      "duration": 0.075,
      "velocity": 0.63,
      "hand": "left"
    },
    {
      "midi": 55,
      "time": 19.2,
      "duration": 1.2,
      "velocity": 1,
      "hand": "left"
    },
    {
      "midi": 59,
      "time": 19.2,
      "duration": 0.075,
      "velocity": 0.79,
      "hand": "left"
    },
    {
      "midi": 59,
      "time": 19.2,
      "duration": 1.5,
      "velocity": 0.63,
      "hand": "left"
    },
    {
      "midi": 62,
      "time": 19.2,
      "duration": 0.075,
      "velocity": 0.87,
      "hand": "right"
    },
    {
      "midi": 67,
      "time": 19.2,
      "duration": 0.075,
      "velocity": 0.97,
      "hand": "right"
    },
    {
      "midi": 67,
      "time": 19.2,
      "duration": 1.05,
      "velocity": 0.79,
      "hand": "right"
    },
    {
      "midi": 79,
      "time": 19.2,
      "duration": 1.05,
      "velocity": 0.79,
      "hand": "right"
    },
    {
      "midi": 42,
      "time": 19.5,
      "duration": 0.15,
      "velocity": 0.63,
      "hand": "left"
    },
    {
      "midi": 46,
      "time": 19.5,
      "duration": 0.075,
      "velocity": 0.63,
      "hand": "left"
    },
    {
      "midi": 50,
      "time": 19.5,
      "duration": 0.075,
      "velocity": 0.81,
      "hand": "left"
    },
    {
      "midi": 59,
      "time": 19.5,
      "duration": 0.075,
      "velocity": 0.77,
      "hand": "left"
    },
    {
      "midi": 62,
      "time": 19.5,
      "duration": 0.075,
      "velocity": 0.94,
      "hand": "right"
    },
    {
      "midi": 67,
      "time": 19.5,
      "duration": 0.075,
      "velocity": 0.89,
      "hand": "right"
    },
    {
      "midi": 59,
      "time": 19.65,
      "duration": 0.15,
      "velocity": 0.38,
      "hand": "left"
    },
    {
      "midi": 62,
      "time": 19.65,
      "duration": 0.15,
      "velocity": 0.65,
      "hand": "right"
    },
    {
      "midi": 62,
      "time": 19.65,
      "duration": 0.075,
      "velocity": 0.47,
      "hand": "right"
    },
    {
      "midi": 67,
      "time": 19.65,
      "duration": 0.15,
      "velocity": 0.72,
      "hand": "right"
    },
    {
      "midi": 38,
      "time": 19.8,
      "duration": 0.3,
      "velocity": 0.91,
      "hand": "left"
    },
    {
      "midi": 44,
      "time": 19.8,
      "duration": 0.075,
      "velocity": 0.63,
      "hand": "left"
    },
    {
      "midi": 50,
      "time": 19.8,
      "duration": 0.6,
      "velocity": 0.7,
      "hand": "left"
    },
    {
      "midi": 42,
      "time": 20.1,
      "duration": 0.15,
      "velocity": 0.63,
      "hand": "left"
    },
    {
      "midi": 46,
      "time": 20.1,
      "duration": 0.075,
      "velocity": 0.63,
      "hand": "left"
    },
    {
      "midi": 50,
      "time": 20.1,
      "duration": 0.15,
      "velocity": 0.8,
      "hand": "left"
    },
    {
      "midi": 59,
      "time": 20.1,
      "duration": 0.075,
      "velocity": 0.85,
      "hand": "left"
    },
    {
      "midi": 62,
      "time": 20.1,
      "duration": 0.075,
      "velocity": 0.94,
      "hand": "right"
    },
    {
      "midi": 67,
      "time": 20.1,
      "duration": 0.075,
      "velocity": 1,
      "hand": "right"
    },
    {
      "midi": 71,
      "time": 20.1,
      "duration": 0.3,
      "velocity": 0.79,
      "hand": "right"
    },
    {
      "midi": 83,
      "time": 20.1,
      "duration": 0.3,
      "velocity": 0.81,
      "hand": "right"
    },
    {
      "midi": 38,
      "time": 20.4,
      "duration": 0.15,
      "velocity": 0.63,
      "hand": "left"
    },
    {
      "midi": 43,
      "time": 20.4,
      "duration": 0.15,
      "velocity": 0.86,
      "hand": "left"
    },
    {
      "midi": 44,
      "time": 20.4,
      "duration": 0.075,
      "velocity": 0.63,
      "hand": "left"
    },
    {
      "midi": 59,
      "time": 20.4,
      "duration": 0.075,
      "velocity": 0.67,
      "hand": "left"
    },
    {
      "midi": 62,
      "time": 20.4,
      "duration": 0.075,
      "velocity": 0.68,
      "hand": "right"
    },
    {
      "midi": 67,
      "time": 20.4,
      "duration": 0.075,
      "velocity": 0.92,
      "hand": "right"
    },
    {
      "midi": 74,
      "time": 20.4,
      "duration": 0.15,
      "velocity": 0.81,
      "hand": "right"
    },
    {
      "midi": 86,
      "time": 20.4,
      "duration": 0.075,
      "velocity": 0.81,
      "hand": "right"
    },
    {
      "midi": 42,
      "time": 20.7,
      "duration": 0.15,
      "velocity": 0.63,
      "hand": "left"
    },
    {
      "midi": 46,
      "time": 20.7,
      "duration": 0.075,
      "velocity": 0.63,
      "hand": "left"
    },
    {
      "midi": 50,
      "time": 20.7,
      "duration": 0.15,
      "velocity": 0.79,
      "hand": "left"
    },
    {
      "midi": 59,
      "time": 20.7,
      "duration": 0.075,
      "velocity": 0.76,
      "hand": "left"
    },
    {
      "midi": 60,
      "time": 20.7,
      "duration": 0.3,
      "velocity": 0.63,
      "hand": "right"
    },
    {
      "midi": 62,
      "time": 20.7,
      "duration": 0.075,
      "velocity": 0.89,
      "hand": "right"
    },
    {
      "midi": 67,
      "time": 20.7,
      "duration": 0.075,
      "velocity": 0.89,
      "hand": "right"
    },
    {
      "midi": 74,
      "time": 20.7,
      "duration": 0.3,
      "velocity": 0.85,
      "hand": "right"
    },
    {
      "midi": 86,
      "time": 20.7,
      "duration": 0.15,
      "velocity": 0.85,
      "hand": "right"
    },
    {
      "midi": 38,
      "time": 21,
      "duration": 0.3,
      "velocity": 1,
      "hand": "left"
    },
    {
      "midi": 44,
      "time": 21,
      "duration": 0.15,
      "velocity": 0.63,
      "hand": "left"
    },
    {
      "midi": 50,
      "time": 21,
      "duration": 0.6,
      "velocity": 0.85,
      "hand": "left"
    },
    {
      "midi": 59,
      "time": 21,
      "duration": 0.15,
      "velocity": 0.99,
      "hand": "left"
    },
    {
      "midi": 61,
      "time": 21,
      "duration": 0.3,
      "velocity": 0.63,
      "hand": "right"
    },
    {
      "midi": 62,
      "time": 21,
      "duration": 0.075,
      "velocity": 1,
      "hand": "right"
    },
    {
      "midi": 67,
      "time": 21,
      "duration": 0.075,
      "velocity": 1,
      "hand": "right"
    },
    {
      "midi": 74,
      "time": 21,
      "duration": 0.3,
      "velocity": 0.89,
      "hand": "right"
    },
    {
      "midi": 86,
      "time": 21,
      "duration": 0.3,
      "velocity": 0.89,
      "hand": "right"
    },
    {
      "midi": 42,
      "time": 21.3,
      "duration": 0.15,
      "velocity": 0.63,
      "hand": "left"
    },
    {
      "midi": 46,
      "time": 21.3,
      "duration": 0.075,
      "velocity": 0.63,
      "hand": "left"
    },
    {
      "midi": 50,
      "time": 21.3,
      "duration": 0.15,
      "velocity": 0.8,
      "hand": "left"
    },
    {
      "midi": 59,
      "time": 21.3,
      "duration": 0.075,
      "velocity": 0.73,
      "hand": "left"
    },
    {
      "midi": 62,
      "time": 21.3,
      "duration": 0.075,
      "velocity": 0.81,
      "hand": "right"
    },
    {
      "midi": 62,
      "time": 21.3,
      "duration": 0.3,
      "velocity": 0.63,
      "hand": "right"
    },
    {
      "midi": 67,
      "time": 21.3,
      "duration": 0.075,
      "velocity": 0.94,
      "hand": "right"
    },
    {
      "midi": 76,
      "time": 21.3,
      "duration": 0.3,
      "velocity": 0.68,
      "hand": "right"
    },
    {
      "midi": 88,
      "time": 21.3,
      "duration": 0.3,
      "velocity": 0.68,
      "hand": "right"
    },
    {
      "midi": 74,
      "time": 21.45,
      "duration": 0.15,
      "velocity": 0.94,
      "hand": "right"
    },
    {
      "midi": 86,
      "time": 21.45,
      "duration": 0.15,
      "velocity": 0.94,
      "hand": "right"
    },
    {
      "midi": 38,
      "time": 21.6,
      "duration": 0.3,
      "velocity": 0.63,
      "hand": "left"
    },
    {
      "midi": 43,
      "time": 21.6,
      "duration": 0.3,
      "velocity": 1,
      "hand": "left"
    },
    {
      "midi": 44,
      "time": 21.6,
      "duration": 0.075,
      "velocity": 0.63,
      "hand": "left"
    },
    {
      "midi": 59,
      "time": 21.6,
      "duration": 0.075,
      "velocity": 1,
      "hand": "left"
    },
    {
      "midi": 62,
      "time": 21.6,
      "duration": 0.075,
      "velocity": 1,
      "hand": "right"
    },
    {
      "midi": 67,
      "time": 21.6,
      "duration": 0.075,
      "velocity": 1,
      "hand": "right"
    },
    {
      "midi": 71,
      "time": 21.6,
      "duration": 0.3,
      "velocity": 0.63,
      "hand": "right"
    },
    {
      "midi": 74,
      "time": 21.6,
      "duration": 0.9,
      "velocity": 0.97,
      "hand": "right"
    },
    {
      "midi": 76,
      "time": 21.6,
      "duration": 0.15,
      "velocity": 0.68,
      "hand": "right"
    },
    {
      "midi": 86,
      "time": 21.6,
      "duration": 0.9,
      "velocity": 0.97,
      "hand": "right"
    },
    {
      "midi": 88,
      "time": 21.6,
      "duration": 0.15,
      "velocity": 0.68,
      "hand": "right"
    },
    {
      "midi": 42,
      "time": 21.9,
      "duration": 0.15,
      "velocity": 0.63,
      "hand": "left"
    },
    {
      "midi": 46,
      "time": 21.9,
      "duration": 0.075,
      "velocity": 0.63,
      "hand": "left"
    },
    {
      "midi": 50,
      "time": 21.9,
      "duration": 0.15,
      "velocity": 0.83,
      "hand": "left"
    },
    {
      "midi": 59,
      "time": 21.9,
      "duration": 0.075,
      "velocity": 0.89,
      "hand": "left"
    },
    {
      "midi": 62,
      "time": 21.9,
      "duration": 0.075,
      "velocity": 1,
      "hand": "right"
    },
    {
      "midi": 67,
      "time": 21.9,
      "duration": 0.075,
      "velocity": 0.94,
      "hand": "right"
    },
    {
      "midi": 67,
      "time": 21.9,
      "duration": 0.3,
      "velocity": 0.63,
      "hand": "right"
    },
    {
      "midi": 79,
      "time": 21.9,
      "duration": 0.15,
      "velocity": 0.69,
      "hand": "right"
    },
    {
      "midi": 59,
      "time": 22.05,
      "duration": 0.075,
      "velocity": 0.72,
      "hand": "left"
    },
    {
      "midi": 62,
      "time": 22.05,
      "duration": 0.075,
      "velocity": 0.89,
      "hand": "right"
    },
    {
      "midi": 67,
      "time": 22.05,
      "duration": 0.075,
      "velocity": 0.92,
      "hand": "right"
    },
    {
      "midi": 74,
      "time": 22.05,
      "duration": 0.15,
      "velocity": 0.77,
      "hand": "right"
    },
    {
      "midi": 38,
      "time": 22.2,
      "duration": 0.3,
      "velocity": 1,
      "hand": "left"
    },
    {
      "midi": 44,
      "time": 22.2,
      "duration": 0.075,
      "velocity": 0.63,
      "hand": "left"
    },
    {
      "midi": 50,
      "time": 22.2,
      "duration": 0.6,
      "velocity": 0.87,
      "hand": "left"
    },
    {
      "midi": 59,
      "time": 22.2,
      "duration": 0.075,
      "velocity": 0.77,
      "hand": "left"
    },
    {
      "midi": 62,
      "time": 22.2,
      "duration": 0.075,
      "velocity": 0.81,
      "hand": "right"
    },
    {
      "midi": 62,
      "time": 22.2,
      "duration": 1.65,
      "velocity": 0.63,
      "hand": "right"
    },
    {
      "midi": 71,
      "time": 22.2,
      "duration": 0.075,
      "velocity": 0.62,
      "hand": "right"
    },
    {
      "midi": 42,
      "time": 22.5,
      "duration": 0.15,
      "velocity": 0.63,
      "hand": "left"
    },
    {
      "midi": 46,
      "time": 22.5,
      "duration": 0.075,
      "velocity": 0.63,
      "hand": "left"
    },
    {
      "midi": 50,
      "time": 22.5,
      "duration": 0.15,
      "velocity": 0.83,
      "hand": "left"
    },
    {
      "midi": 59,
      "time": 22.5,
      "duration": 0.075,
      "velocity": 1,
      "hand": "left"
    },
    {
      "midi": 62,
      "time": 22.5,
      "duration": 0.075,
      "velocity": 1,
      "hand": "right"
    },
    {
      "midi": 67,
      "time": 22.5,
      "duration": 0.075,
      "velocity": 1,
      "hand": "right"
    },
    {
      "midi": 71,
      "time": 22.5,
      "duration": 0.3,
      "velocity": 0.94,
      "hand": "right"
    },
    {
      "midi": 71,
      "time": 22.5,
      "duration": 0.15,
      "velocity": 0.65,
      "hand": "right"
    },
    {
      "midi": 74,
      "time": 22.5,
      "duration": 0.15,
      "velocity": 0.77,
      "hand": "right"
    },
    {
      "midi": 83,
      "time": 22.5,
      "duration": 0.3,
      "velocity": 0.94,
      "hand": "right"
    },
    {
      "midi": 67,
      "time": 22.65,
      "duration": 0.6,
      "velocity": 0.87,
      "hand": "right"
    },
    {
      "midi": 38,
      "time": 22.8,
      "duration": 0.15,
      "velocity": 0.63,
      "hand": "left"
    },
    {
      "midi": 43,
      "time": 22.8,
      "duration": 0.15,
      "velocity": 0.91,
      "hand": "left"
    },
    {
      "midi": 44,
      "time": 22.8,
      "duration": 0.075,
      "velocity": 0.63,
      "hand": "left"
    },
    {
      "midi": 59,
      "time": 22.8,
      "duration": 0.075,
      "velocity": 0.89,
      "hand": "left"
    },
    {
      "midi": 62,
      "time": 22.8,
      "duration": 0.075,
      "velocity": 0.99,
      "hand": "right"
    },
    {
      "midi": 67,
      "time": 22.8,
      "duration": 0.075,
      "velocity": 0.97,
      "hand": "right"
    },
    {
      "midi": 67,
      "time": 22.8,
      "duration": 1.05,
      "velocity": 1,
      "hand": "right"
    },
    {
      "midi": 79,
      "time": 22.8,
      "duration": 1.05,
      "velocity": 1,
      "hand": "right"
    },
    {
      "midi": 55,
      "time": 22.95,
      "duration": 0.3,
      "velocity": 0.92,
      "hand": "left"
    },
    {
      "midi": 42,
      "time": 23.1,
      "duration": 0.15,
      "velocity": 0.63,
      "hand": "left"
    },
    {
      "midi": 46,
      "time": 23.1,
      "duration": 0.075,
      "velocity": 0.63,
      "hand": "left"
    },
    {
      "midi": 50,
      "time": 23.1,
      "duration": 0.15,
      "velocity": 0.8,
      "hand": "left"
    },
    {
      "midi": 59,
      "time": 23.1,
      "duration": 0.075,
      "velocity": 0.87,
      "hand": "left"
    },
    {
      "midi": 62,
      "time": 23.1,
      "duration": 0.075,
      "velocity": 1,
      "hand": "right"
    },
    {
      "midi": 67,
      "time": 23.1,
      "duration": 0.075,
      "velocity": 0.97,
      "hand": "right"
    },
    {
      "midi": 38,
      "time": 23.4,
      "duration": 0.3,
      "velocity": 1,
      "hand": "left"
    },
    {
      "midi": 44,
      "time": 23.4,
      "duration": 0.15,
      "velocity": 0.63,
      "hand": "left"
    },
    {
      "midi": 54,
      "time": 23.4,
      "duration": 0.15,
      "velocity": 1,
      "hand": "left"
    },
    {
      "midi": 59,
      "time": 23.4,
      "duration": 0.15,
      "velocity": 1,
      "hand": "left"
    },
    {
      "midi": 62,
      "time": 23.4,
      "duration": 0.15,
      "velocity": 1,
      "hand": "right"
    },
    {
      "midi": 67,
      "time": 23.4,
      "duration": 0.15,
      "velocity": 1,
      "hand": "right"
    },
    {
      "midi": 42,
      "time": 23.7,
      "duration": 0.15,
      "velocity": 0.63,
      "hand": "left"
    },
    {
      "midi": 46,
      "time": 23.7,
      "duration": 0.075,
      "velocity": 0.63,
      "hand": "left"
    },
    {
      "midi": 50,
      "time": 23.7,
      "duration": 0.15,
      "velocity": 0.72,
      "hand": "left"
    },
    {
      "midi": 55,
      "time": 23.7,
      "duration": 0.3,
      "velocity": 0.7,
      "hand": "left"
    },
    {
      "midi": 59,
      "time": 23.7,
      "duration": 0.15,
      "velocity": 0.85,
      "hand": "left"
    },
    {
      "midi": 62,
      "time": 23.7,
      "duration": 0.15,
      "velocity": 0.92,
      "hand": "right"
    },
    {
      "midi": 67,
      "time": 23.7,
      "duration": 0.15,
      "velocity": 0.99,
      "hand": "right"
    },
    {
      "midi": 38,
      "time": 24,
      "duration": 0.3,
      "velocity": 0.63,
      "hand": "left"
    },
    {
      "midi": 43,
      "time": 24,
      "duration": 0.3,
      "velocity": 1,
      "hand": "left"
    },
    {
      "midi": 44,
      "time": 24,
      "duration": 0.075,
      "velocity": 0.63,
      "hand": "left"
    },
    {
      "midi": 50,
      "time": 24,
      "duration": 0.6,
      "velocity": 0.97,
      "hand": "left"
    },
    {
      "midi": 59,
      "time": 24,
      "duration": 0.075,
      "velocity": 1,
      "hand": "left"
    },
    {
      "midi": 62,
      "time": 24,
      "duration": 0.075,
      "velocity": 1,
      "hand": "right"
    },
    {
      "midi": 67,
      "time": 24,
      "duration": 0.075,
      "velocity": 1,
      "hand": "right"
    },
    {
      "midi": 67,
      "time": 24,
      "duration": 0.3,
      "velocity": 0.63,
      "hand": "right"
    },
    {
      "midi": 67,
      "time": 24,
      "duration": 0.9,
      "velocity": 0.97,
      "hand": "right"
    },
    {
      "midi": 79,
      "time": 24,
      "duration": 0.9,
      "velocity": 0.97,
      "hand": "right"
    },
    {
      "midi": 42,
      "time": 24.3,
      "duration": 0.15,
      "velocity": 0.63,
      "hand": "left"
    },
    {
      "midi": 46,
      "time": 24.3,
      "duration": 0.075,
      "velocity": 0.63,
      "hand": "left"
    },
    {
      "midi": 50,
      "time": 24.3,
      "duration": 0.15,
      "velocity": 0.87,
      "hand": "left"
    },
    {
      "midi": 59,
      "time": 24.3,
      "duration": 0.075,
      "velocity": 0.99,
      "hand": "left"
    },
    {
      "midi": 59,
      "time": 24.3,
      "duration": 0.45,
      "velocity": 0.63,
      "hand": "left"
    },
    {
      "midi": 62,
      "time": 24.3,
      "duration": 0.075,
      "velocity": 1,
      "hand": "right"
    },
    {
      "midi": 67,
      "time": 24.3,
      "duration": 0.075,
      "velocity": 0.97,
      "hand": "right"
    },
    {
      "midi": 59,
      "time": 24.45,
      "duration": 0.075,
      "velocity": 0.57,
      "hand": "left"
    },
    {
      "midi": 62,
      "time": 24.45,
      "duration": 0.075,
      "velocity": 0.85,
      "hand": "right"
    },
    {
      "midi": 67,
      "time": 24.45,
      "duration": 0.075,
      "velocity": 0.85,
      "hand": "right"
    },
    {
      "midi": 38,
      "time": 24.6,
      "duration": 0.3,
      "velocity": 1,
      "hand": "left"
    },
    {
      "midi": 44,
      "time": 24.6,
      "duration": 0.3,
      "velocity": 0.63,
      "hand": "left"
    },
    {
      "midi": 50,
      "time": 24.6,
      "duration": 0.6,
      "velocity": 0.94,
      "hand": "left"
    },
    {
      "midi": 59,
      "time": 24.6,
      "duration": 0.075,
      "velocity": 0.81,
      "hand": "left"
    },
    {
      "midi": 60,
      "time": 24.6,
      "duration": 0.3,
      "velocity": 0.63,
      "hand": "right"
    },
    {
      "midi": 62,
      "time": 24.6,
      "duration": 0.075,
      "velocity": 0.99,
      "hand": "right"
    },
    {
      "midi": 67,
      "time": 24.6,
      "duration": 0.15,
      "velocity": 0.97,
      "hand": "right"
    },
    {
      "midi": 42,
      "time": 24.9,
      "duration": 0.15,
      "velocity": 0.63,
      "hand": "left"
    },
    {
      "midi": 46,
      "time": 24.9,
      "duration": 0.15,
      "velocity": 0.63,
      "hand": "left"
    },
    {
      "midi": 50,
      "time": 24.9,
      "duration": 0.15,
      "velocity": 0.77,
      "hand": "left"
    },
    {
      "midi": 59,
      "time": 24.9,
      "duration": 0.075,
      "velocity": 0.99,
      "hand": "left"
    },
    {
      "midi": 61,
      "time": 24.9,
      "duration": 0.3,
      "velocity": 0.63,
      "hand": "right"
    },
    {
      "midi": 62,
      "time": 24.9,
      "duration": 0.075,
      "velocity": 1,
      "hand": "right"
    },
    {
      "midi": 67,
      "time": 24.9,
      "duration": 0.075,
      "velocity": 1,
      "hand": "right"
    },
    {
      "midi": 71,
      "time": 24.9,
      "duration": 0.3,
      "velocity": 0.81,
      "hand": "right"
    },
    {
      "midi": 83,
      "time": 24.9,
      "duration": 0.3,
      "velocity": 0.81,
      "hand": "right"
    },
    {
      "midi": 38,
      "time": 25.2,
      "duration": 0.15,
      "velocity": 0.63,
      "hand": "left"
    },
    {
      "midi": 43,
      "time": 25.2,
      "duration": 0.15,
      "velocity": 0.87,
      "hand": "left"
    },
    {
      "midi": 44,
      "time": 25.2,
      "duration": 0.075,
      "velocity": 0.63,
      "hand": "left"
    },
    {
      "midi": 59,
      "time": 25.2,
      "duration": 0.075,
      "velocity": 0.92,
      "hand": "left"
    },
    {
      "midi": 62,
      "time": 25.2,
      "duration": 0.075,
      "velocity": 1,
      "hand": "right"
    },
    {
      "midi": 67,
      "time": 25.2,
      "duration": 0.15,
      "velocity": 0.94,
      "hand": "right"
    },
    {
      "midi": 74,
      "time": 25.2,
      "duration": 0.075,
      "velocity": 0.89,
      "hand": "right"
    },
    {
      "midi": 86,
      "time": 25.2,
      "duration": 0.075,
      "velocity": 0.89,
      "hand": "right"
    },
    {
      "midi": 42,
      "time": 25.5,
      "duration": 0.15,
      "velocity": 0.63,
      "hand": "left"
    },
    {
      "midi": 46,
      "time": 25.5,
      "duration": 0.075,
      "velocity": 0.63,
      "hand": "left"
    },
    {
      "midi": 50,
      "time": 25.5,
      "duration": 0.15,
      "velocity": 0.89,
      "hand": "left"
    },
    {
      "midi": 59,
      "time": 25.5,
      "duration": 0.075,
      "velocity": 0.94,
      "hand": "left"
    },
    {
      "midi": 62,
      "time": 25.5,
      "duration": 0.075,
      "velocity": 1,
      "hand": "right"
    },
    {
      "midi": 67,
      "time": 25.5,
      "duration": 0.075,
      "velocity": 1,
      "hand": "right"
    },
    {
      "midi": 74,
      "time": 25.5,
      "duration": 0.45,
      "velocity": 0.91,
      "hand": "right"
    },
    {
      "midi": 86,
      "time": 25.5,
      "duration": 0.45,
      "velocity": 0.91,
      "hand": "right"
    },
    {
      "midi": 38,
      "time": 25.8,
      "duration": 0.3,
      "velocity": 1,
      "hand": "left"
    },
    {
      "midi": 44,
      "time": 25.8,
      "duration": 0.15,
      "velocity": 0.63,
      "hand": "left"
    },
    {
      "midi": 50,
      "time": 25.8,
      "duration": 0.6,
      "velocity": 0.94,
      "hand": "left"
    },
    {
      "midi": 55,
      "time": 25.8,
      "duration": 0.45,
      "velocity": 0.63,
      "hand": "left"
    },
    {
      "midi": 58,
      "time": 25.8,
      "duration": 0.075,
      "velocity": 0.63,
      "hand": "left"
    },
    {
      "midi": 59,
      "time": 25.8,
      "duration": 0.075,
      "velocity": 1,
      "hand": "left"
    },
    {
      "midi": 62,
      "time": 25.8,
      "duration": 0.075,
      "velocity": 1,
      "hand": "right"
    },
    {
      "midi": 67,
      "time": 25.8,
      "duration": 0.075,
      "velocity": 1,
      "hand": "right"
    },
    {
      "midi": 72,
      "time": 25.8,
      "duration": 0.3,
      "velocity": 0.91,
      "hand": "right"
    },
    {
      "midi": 84,
      "time": 25.8,
      "duration": 0.3,
      "velocity": 0.91,
      "hand": "right"
    },
    {
      "midi": 71,
      "time": 25.95,
      "duration": 0.3,
      "velocity": 0.79,
      "hand": "right"
    },
    {
      "midi": 83,
      "time": 25.95,
      "duration": 0.3,
      "velocity": 0.79,
      "hand": "right"
    },
    {
      "midi": 42,
      "time": 26.1,
      "duration": 0.15,
      "velocity": 0.63,
      "hand": "left"
    },
    {
      "midi": 46,
      "time": 26.1,
      "duration": 0.15,
      "velocity": 0.63,
      "hand": "left"
    },
    {
      "midi": 50,
      "time": 26.1,
      "duration": 0.15,
      "velocity": 1,
      "hand": "left"
    },
    {
      "midi": 59,
      "time": 26.1,
      "duration": 0.15,
      "velocity": 0.97,
      "hand": "left"
    },
    {
      "midi": 62,
      "time": 26.1,
      "duration": 0.075,
      "velocity": 1,
      "hand": "right"
    },
    {
      "midi": 67,
      "time": 26.1,
      "duration": 0.15,
      "velocity": 1,
      "hand": "right"
    },
    {
      "midi": 44,
      "time": 26.25,
      "duration": 0.075,
      "velocity": 0.63,
      "hand": "left"
    },
    {
      "midi": 46,
      "time": 26.25,
      "duration": 0.075,
      "velocity": 0.63,
      "hand": "left"
    },
    {
      "midi": 56,
      "time": 26.25,
      "duration": 0.15,
      "velocity": 0.63,
      "hand": "left"
    },
    {
      "midi": 38,
      "time": 26.4,
      "duration": 0.15,
      "velocity": 0.63,
      "hand": "left"
    },
    {
      "midi": 42,
      "time": 26.4,
      "duration": 0.15,
      "velocity": 1,
      "hand": "left"
    },
    {
      "midi": 44,
      "time": 26.4,
      "duration": 0.075,
      "velocity": 0.63,
      "hand": "left"
    },
    {
      "midi": 57,
      "time": 26.4,
      "duration": 0.075,
      "velocity": 1,
      "hand": "left"
    },
    {
      "midi": 62,
      "time": 26.4,
      "duration": 0.075,
      "velocity": 1,
      "hand": "right"
    },
    {
      "midi": 66,
      "time": 26.4,
      "duration": 0.075,
      "velocity": 1,
      "hand": "right"
    },
    {
      "midi": 69,
      "time": 26.4,
      "duration": 0.075,
      "velocity": 0.81,
      "hand": "right"
    },
    {
      "midi": 81,
      "time": 26.4,
      "duration": 0.075,
      "velocity": 0.81,
      "hand": "right"
    },
    {
      "midi": 42,
      "time": 26.7,
      "duration": 0.15,
      "velocity": 0.63,
      "hand": "left"
    },
    {
      "midi": 46,
      "time": 26.7,
      "duration": 0.075,
      "velocity": 0.63,
      "hand": "left"
    },
    {
      "midi": 50,
      "time": 26.7,
      "duration": 0.075,
      "velocity": 0.99,
      "hand": "left"
    },
    {
      "midi": 54,
      "time": 26.7,
      "duration": 0.075,
      "velocity": 1,
      "hand": "left"
    },
    {
      "midi": 57,
      "time": 26.7,
      "duration": 0.075,
      "velocity": 1,
      "hand": "left"
    },
    {
      "midi": 62,
      "time": 26.7,
      "duration": 0.075,
      "velocity": 1,
      "hand": "right"
    },
    {
      "midi": 62,
      "time": 26.7,
      "duration": 0.15,
      "velocity": 0.63,
      "hand": "right"
    },
    {
      "midi": 66,
      "time": 26.7,
      "duration": 0.075,
      "velocity": 1,
      "hand": "right"
    },
    {
      "midi": 66,
      "time": 26.7,
      "duration": 0.15,
      "velocity": 0.94,
      "hand": "right"
    },
    {
      "midi": 74,
      "time": 26.7,
      "duration": 0.15,
      "velocity": 0.89,
      "hand": "right"
    },
    {
      "midi": 78,
      "time": 26.7,
      "duration": 0.075,
      "velocity": 0.92,
      "hand": "right"
    },
    {
      "midi": 86,
      "time": 26.7,
      "duration": 0.15,
      "velocity": 0.89,
      "hand": "right"
    },
    {
      "midi": 54,
      "time": 26.85,
      "duration": 0.075,
      "velocity": 1,
      "hand": "left"
    },
    {
      "midi": 54,
      "time": 26.85,
      "duration": 0.15,
      "velocity": 1,
      "hand": "left"
    },
    {
      "midi": 57,
      "time": 26.85,
      "duration": 0.075,
      "velocity": 0.81,
      "hand": "left"
    },
    {
      "midi": 61,
      "time": 26.85,
      "duration": 0.15,
      "velocity": 0.63,
      "hand": "right"
    },
    {
      "midi": 62,
      "time": 26.85,
      "duration": 0.075,
      "velocity": 1,
      "hand": "right"
    },
    {
      "midi": 64,
      "time": 26.85,
      "duration": 0.15,
      "velocity": 0.94,
      "hand": "right"
    },
    {
      "midi": 66,
      "time": 26.85,
      "duration": 0.075,
      "velocity": 1,
      "hand": "right"
    },
    {
      "midi": 74,
      "time": 26.85,
      "duration": 0.075,
      "velocity": 0.85,
      "hand": "right"
    },
    {
      "midi": 78,
      "time": 26.85,
      "duration": 0.075,
      "velocity": 0.81,
      "hand": "right"
    },
    {
      "midi": 86,
      "time": 26.85,
      "duration": 0.075,
      "velocity": 0.85,
      "hand": "right"
    },
    {
      "midi": 38,
      "time": 27,
      "duration": 0.3,
      "velocity": 1,
      "hand": "left"
    },
    {
      "midi": 38,
      "time": 27,
      "duration": 0.15,
      "velocity": 0.63,
      "hand": "left"
    },
    {
      "midi": 44,
      "time": 27,
      "duration": 0.075,
      "velocity": 0.63,
      "hand": "left"
    },
    {
      "midi": 60,
      "time": 27,
      "duration": 0.075,
      "velocity": 0.63,
      "hand": "right"
    },
    {
      "midi": 62,
      "time": 27,
      "duration": 0.075,
      "velocity": 0.94,
      "hand": "right"
    },
    {
      "midi": 42,
      "time": 27.3,
      "duration": 0.15,
      "velocity": 0.63,
      "hand": "left"
    },
    {
      "midi": 46,
      "time": 27.3,
      "duration": 0.075,
      "velocity": 0.63,
      "hand": "left"
    },
    {
      "midi": 50,
      "time": 27.3,
      "duration": 0.15,
      "velocity": 0.93,
      "hand": "left"
    },
    {
      "midi": 54,
      "time": 27.3,
      "duration": 0.15,
      "velocity": 1,
      "hand": "left"
    },
    {
      "midi": 57,
      "time": 27.3,
      "duration": 0.075,
      "velocity": 1,
      "hand": "left"
    },
    {
      "midi": 62,
      "time": 27.3,
      "duration": 0.075,
      "velocity": 1,
      "hand": "right"
    },
    {
      "midi": 62,
      "time": 27.3,
      "duration": 0.15,
      "velocity": 0.94,
      "hand": "right"
    },
    {
      "midi": 66,
      "time": 27.3,
      "duration": 0.075,
      "velocity": 1,
      "hand": "right"
    },
    {
      "midi": 66,
      "time": 27.3,
      "duration": 0.15,
      "velocity": 0.63,
      "hand": "right"
    },
    {
      "midi": 74,
      "time": 27.3,
      "duration": 0.075,
      "velocity": 1,
      "hand": "right"
    },
    {
      "midi": 78,
      "time": 27.3,
      "duration": 0.075,
      "velocity": 0.92,
      "hand": "right"
    },
    {
      "midi": 86,
      "time": 27.3,
      "duration": 0.075,
      "velocity": 1,
      "hand": "right"
    },
    {
      "midi": 61,
      "time": 27.45,
      "duration": 0.15,
      "velocity": 0.94,
      "hand": "right"
    },
    {
      "midi": 64,
      "time": 27.45,
      "duration": 0.15,
      "velocity": 0.63,
      "hand": "right"
    },
    {
      "midi": 78,
      "time": 27.45,
      "duration": 0.3,
      "velocity": 0.92,
      "hand": "right"
    },
    {
      "midi": 38,
      "time": 27.6,
      "duration": 0.15,
      "velocity": 0.63,
      "hand": "left"
    },
    {
      "midi": 42,
      "time": 27.6,
      "duration": 0.3,
      "velocity": 0.87,
      "hand": "left"
    },
    {
      "midi": 44,
      "time": 27.6,
      "duration": 0.15,
      "velocity": 0.63,
      "hand": "left"
    },
    {
      "midi": 54,
      "time": 27.6,
      "duration": 0.9,
      "velocity": 1,
      "hand": "left"
    },
    {
      "midi": 57,
      "time": 27.6,
      "duration": 0.075,
      "velocity": 0.99,
      "hand": "left"
    },
    {
      "midi": 60,
      "time": 27.6,
      "duration": 0.6,
      "velocity": 0.94,
      "hand": "right"
    },
    {
      "midi": 62,
      "time": 27.6,
      "duration": 0.075,
      "velocity": 1,
      "hand": "right"
    },
    {
      "midi": 66,
      "time": 27.6,
      "duration": 0.075,
      "velocity": 1,
      "hand": "right"
    },
    {
      "midi": 74,
      "time": 27.6,
      "duration": 0.3,
      "velocity": 0.97,
      "hand": "right"
    },
    {
      "midi": 86,
      "time": 27.6,
      "duration": 0.3,
      "velocity": 0.97,
      "hand": "right"
    },
    {
      "midi": 57,
      "time": 27.75,
      "duration": 0.075,
      "velocity": 0.99,
      "hand": "left"
    },
    {
      "midi": 62,
      "time": 27.75,
      "duration": 0.075,
      "velocity": 1,
      "hand": "right"
    },
    {
      "midi": 66,
      "time": 27.75,
      "duration": 0.075,
      "velocity": 1,
      "hand": "right"
    },
    {
      "midi": 42,
      "time": 27.9,
      "duration": 0.15,
      "velocity": 0.63,
      "hand": "left"
    },
    {
      "midi": 46,
      "time": 27.9,
      "duration": 0.075,
      "velocity": 0.63,
      "hand": "left"
    },
    {
      "midi": 50,
      "time": 27.9,
      "duration": 0.15,
      "velocity": 0.97,
      "hand": "left"
    },
    {
      "midi": 69,
      "time": 27.9,
      "duration": 0.15,
      "velocity": 0.63,
      "hand": "right"
    },
    {
      "midi": 78,
      "time": 27.9,
      "duration": 0.6,
      "velocity": 0.89,
      "hand": "right"
    },
    {
      "midi": 90,
      "time": 27.9,
      "duration": 0.6,
      "velocity": 0.89,
      "hand": "right"
    },
    {
      "midi": 67,
      "time": 28.05,
      "duration": 0.15,
      "velocity": 0.63,
      "hand": "right"
    },
    {
      "midi": 38,
      "time": 28.2,
      "duration": 0.3,
      "velocity": 0.63,
      "hand": "left"
    },
    {
      "midi": 44,
      "time": 28.2,
      "duration": 0.15,
      "velocity": 0.63,
      "hand": "left"
    },
    {
      "midi": 45,
      "time": 28.2,
      "duration": 0.3,
      "velocity": 1,
      "hand": "left"
    },
    {
      "midi": 57,
      "time": 28.2,
      "duration": 0.075,
      "velocity": 1,
      "hand": "left"
    },
    {
      "midi": 62,
      "time": 28.2,
      "duration": 0.075,
      "velocity": 1,
      "hand": "right"
    },
    {
      "midi": 66,
      "time": 28.2,
      "duration": 0.075,
      "velocity": 1,
      "hand": "right"
    },
    {
      "midi": 42,
      "time": 28.5,
      "duration": 0.15,
      "velocity": 0.63,
      "hand": "left"
    },
    {
      "midi": 46,
      "time": 28.5,
      "duration": 0.075,
      "velocity": 0.63,
      "hand": "left"
    },
    {
      "midi": 50,
      "time": 28.5,
      "duration": 0.15,
      "velocity": 0.79,
      "hand": "left"
    },
    {
      "midi": 57,
      "time": 28.5,
      "duration": 0.075,
      "velocity": 1,
      "hand": "left"
    },
    {
      "midi": 57,
      "time": 28.5,
      "duration": 0.3,
      "velocity": 1,
      "hand": "left"
    },
    {
      "midi": 62,
      "time": 28.5,
      "duration": 0.075,
      "velocity": 1,
      "hand": "right"
    },
    {
      "midi": 66,
      "time": 28.5,
      "duration": 0.15,
      "velocity": 1,
      "hand": "right"
    },
    {
      "midi": 76,
      "time": 28.5,
      "duration": 0.3,
      "velocity": 0.85,
      "hand": "right"
    },
    {
      "midi": 88,
      "time": 28.5,
      "duration": 0.3,
      "velocity": 0.85,
      "hand": "right"
    },
    {
      "midi": 64,
      "time": 28.65,
      "duration": 0.15,
      "velocity": 0.63,
      "hand": "right"
    },
    {
      "midi": 38,
      "time": 28.8,
      "duration": 0.3,
      "velocity": 1,
      "hand": "left"
    },
    {
      "midi": 38,
      "time": 28.8,
      "duration": 0.075,
      "velocity": 0.63,
      "hand": "left"
    },
    {
      "midi": 44,
      "time": 28.8,
      "duration": 0.075,
      "velocity": 0.63,
      "hand": "left"
    },
    {
      "midi": 50,
      "time": 28.8,
      "duration": 0.6,
      "velocity": 0.94,
      "hand": "left"
    },
    {
      "midi": 62,
      "time": 28.8,
      "duration": 0.15,
      "velocity": 1,
      "hand": "right"
    },
    {
      "midi": 62,
      "time": 28.8,
      "duration": 0.3,
      "velocity": 0.63,
      "hand": "right"
    },
    {
      "midi": 66,
      "time": 28.8,
      "duration": 0.15,
      "velocity": 0.97,
      "hand": "right"
    },
    {
      "midi": 72,
      "time": 28.8,
      "duration": 0.075,
      "velocity": 0.98,
      "hand": "right"
    },
    {
      "midi": 74,
      "time": 28.8,
      "duration": 0.9,
      "velocity": 0.83,
      "hand": "right"
    },
    {
      "midi": 86,
      "time": 28.8,
      "duration": 0.9,
      "velocity": 0.83,
      "hand": "right"
    },
    {
      "midi": 42,
      "time": 29.1,
      "duration": 0.15,
      "velocity": 0.63,
      "hand": "left"
    },
    {
      "midi": 44,
      "time": 29.1,
      "duration": 0.075,
      "velocity": 0.63,
      "hand": "left"
    },
    {
      "midi": 46,
      "time": 29.1,
      "duration": 0.075,
      "velocity": 0.63,
      "hand": "left"
    },
    {
      "midi": 50,
      "time": 29.1,
      "duration": 0.15,
      "velocity": 0.89,
      "hand": "left"
    },
    {
      "midi": 62,
      "time": 29.1,
      "duration": 0.075,
      "velocity": 0.92,
      "hand": "right"
    },
    {
      "midi": 66,
      "time": 29.1,
      "duration": 0.075,
      "velocity": 0.94,
      "hand": "right"
    },
    {
      "midi": 66,
      "time": 29.1,
      "duration": 0.3,
      "velocity": 0.63,
      "hand": "right"
    },
    {
      "midi": 72,
      "time": 29.1,
      "duration": 0.075,
      "velocity": 0.94,
      "hand": "right"
    },
    {
      "midi": 44,
      "time": 29.25,
      "duration": 0.15,
      "velocity": 0.63,
      "hand": "left"
    },
    {
      "midi": 46,
      "time": 29.25,
      "duration": 0.15,
      "velocity": 0.63,
      "hand": "left"
    },
    {
      "midi": 62,
      "time": 29.25,
      "duration": 0.075,
      "velocity": 0.65,
      "hand": "right"
    },
    {
      "midi": 66,
      "time": 29.25,
      "duration": 0.15,
      "velocity": 0.92,
      "hand": "right"
    },
    {
      "midi": 72,
      "time": 29.25,
      "duration": 0.075,
      "velocity": 0.84,
      "hand": "right"
    },
    {
      "midi": 38,
      "time": 29.4,
      "duration": 0.15,
      "velocity": 0.63,
      "hand": "left"
    },
    {
      "midi": 40,
      "time": 29.4,
      "duration": 0.3,
      "velocity": 1,
      "hand": "left"
    },
    {
      "midi": 46,
      "time": 29.4,
      "duration": 0.075,
      "velocity": 0.63,
      "hand": "left"
    },
    {
      "midi": 52,
      "time": 29.4,
      "duration": 0.3,
      "velocity": 0.94,
      "hand": "left"
    },
    {
      "midi": 62,
      "time": 29.4,
      "duration": 0.075,
      "velocity": 0.77,
      "hand": "right"
    },
    {
      "midi": 64,
      "time": 29.4,
      "duration": 0.3,
      "velocity": 0.63,
      "hand": "right"
    },
    {
      "midi": 66,
      "time": 29.4,
      "duration": 0.075,
      "velocity": 0.92,
      "hand": "right"
    },
    {
      "midi": 72,
      "time": 29.4,
      "duration": 0.075,
      "velocity": 0.91,
      "hand": "right"
    },
    {
      "midi": 42,
      "time": 29.7,
      "duration": 0.15,
      "velocity": 0.63,
      "hand": "left"
    },
    {
      "midi": 46,
      "time": 29.7,
      "duration": 0.075,
      "velocity": 0.63,
      "hand": "left"
    },
    {
      "midi": 50,
      "time": 29.7,
      "duration": 0.15,
      "velocity": 0.81,
      "hand": "left"
    },
    {
      "midi": 53,
      "time": 29.7,
      "duration": 0.3,
      "velocity": 1,
      "hand": "left"
    },
    {
      "midi": 62,
      "time": 29.7,
      "duration": 0.075,
      "velocity": 1,
      "hand": "right"
    },
    {
      "midi": 62,
      "time": 29.7,
      "duration": 0.3,
      "velocity": 0.63,
      "hand": "right"
    },
    {
      "midi": 65,
      "time": 29.7,
      "duration": 0.075,
      "velocity": 0.74,
      "hand": "right"
    },
    {
      "midi": 66,
      "time": 29.7,
      "duration": 0.075,
      "velocity": 1,
      "hand": "right"
    },
    {
      "midi": 72,
      "time": 29.7,
      "duration": 0.075,
      "velocity": 1,
      "hand": "right"
    },
    {
      "midi": 72,
      "time": 29.7,
      "duration": 0.3,
      "velocity": 0.94,
      "hand": "right"
    },
    {
      "midi": 84,
      "time": 29.7,
      "duration": 0.3,
      "velocity": 0.94,
      "hand": "right"
    },
    {
      "midi": 54,
      "time": 29.85,
      "duration": 1.05,
      "velocity": 0.98,
      "hand": "left"
    },
    {
      "midi": 38,
      "time": 30,
      "duration": 0.15,
      "velocity": 0.63,
      "hand": "left"
    },
    {
      "midi": 41,
      "time": 30,
      "duration": 0.3,
      "velocity": 1,
      "hand": "left"
    },
    {
      "midi": 44,
      "time": 30,
      "duration": 0.075,
      "velocity": 0.63,
      "hand": "left"
    },
    {
      "midi": 60,
      "time": 30,
      "duration": 1.05,
      "velocity": 0.63,
      "hand": "right"
    },
    {
      "midi": 62,
      "time": 30,
      "duration": 0.075,
      "velocity": 0.68,
      "hand": "right"
    },
    {
      "midi": 66,
      "time": 30,
      "duration": 0.15,
      "velocity": 0.89,
      "hand": "right"
    },
    {
      "midi": 71,
      "time": 30,
      "duration": 0.6,
      "velocity": 0.87,
      "hand": "right"
    },
    {
      "midi": 72,
      "time": 30,
      "duration": 0.075,
      "velocity": 0.87,
      "hand": "right"
    },
    {
      "midi": 83,
      "time": 30,
      "duration": 0.6,
      "velocity": 0.87,
      "hand": "right"
    },
    {
      "midi": 42,
      "time": 30.3,
      "duration": 0.15,
      "velocity": 0.63,
      "hand": "left"
    },
    {
      "midi": 46,
      "time": 30.3,
      "duration": 0.075,
      "velocity": 0.63,
      "hand": "left"
    },
    {
      "midi": 50,
      "time": 30.3,
      "duration": 0.15,
      "velocity": 0.93,
      "hand": "left"
    },
    {
      "midi": 62,
      "time": 30.3,
      "duration": 0.075,
      "velocity": 0.65,
      "hand": "right"
    },
    {
      "midi": 66,
      "time": 30.3,
      "duration": 0.075,
      "velocity": 0.89,
      "hand": "right"
    },
    {
      "midi": 72,
      "time": 30.3,
      "duration": 0.075,
      "velocity": 0.82,
      "hand": "right"
    },
    {
      "midi": 38,
      "time": 30.6,
      "duration": 0.3,
      "velocity": 0.63,
      "hand": "left"
    },
    {
      "midi": 42,
      "time": 30.6,
      "duration": 0.3,
      "velocity": 1,
      "hand": "left"
    },
    {
      "midi": 44,
      "time": 30.6,
      "duration": 0.15,
      "velocity": 0.63,
      "hand": "left"
    },
    {
      "midi": 62,
      "time": 30.6,
      "duration": 0.075,
      "velocity": 1,
      "hand": "right"
    },
    {
      "midi": 66,
      "time": 30.6,
      "duration": 0.15,
      "velocity": 1,
      "hand": "right"
    },
    {
      "midi": 69,
      "time": 30.6,
      "duration": 0.45,
      "velocity": 1,
      "hand": "right"
    },
    {
      "midi": 72,
      "time": 30.6,
      "duration": 0.15,
      "velocity": 1,
      "hand": "right"
    },
    {
      "midi": 81,
      "time": 30.6,
      "duration": 0.45,
      "velocity": 1,
      "hand": "right"
    },
    {
      "midi": 42,
      "time": 30.9,
      "duration": 0.3,
      "velocity": 0.63,
      "hand": "left"
    },
    {
      "midi": 46,
      "time": 30.9,
      "duration": 0.075,
      "velocity": 0.63,
      "hand": "left"
    },
    {
      "midi": 57,
      "time": 30.9,
      "duration": 0.15,
      "velocity": 0.97,
      "hand": "left"
    },
    {
      "midi": 62,
      "time": 30.9,
      "duration": 0.075,
      "velocity": 0.99,
      "hand": "right"
    },
    {
      "midi": 66,
      "time": 30.9,
      "duration": 0.075,
      "velocity": 1,
      "hand": "right"
    },
    {
      "midi": 72,
      "time": 30.9,
      "duration": 0.075,
      "velocity": 0.98,
      "hand": "right"
    },
    {
      "midi": 76,
      "time": 31.05,
      "duration": 0.45,
      "velocity": 0.87,
      "hand": "right"
    },
    {
      "midi": 88,
      "time": 31.05,
      "duration": 0.45,
      "velocity": 0.87,
      "hand": "right"
    },
    {
      "midi": 38,
      "time": 31.2,
      "duration": 0.075,
      "velocity": 0.63,
      "hand": "left"
    },
    {
      "midi": 43,
      "time": 31.2,
      "duration": 0.3,
      "velocity": 1,
      "hand": "left"
    },
    {
      "midi": 44,
      "time": 31.2,
      "duration": 0.075,
      "velocity": 0.63,
      "hand": "left"
    },
    {
      "midi": 59,
      "time": 31.2,
      "duration": 0.9,
      "velocity": 0.94,
      "hand": "left"
    },
    {
      "midi": 62,
      "time": 31.2,
      "duration": 0.075,
      "velocity": 1,
      "hand": "right"
    },
    {
      "midi": 67,
      "time": 31.2,
      "duration": 0.075,
      "velocity": 1,
      "hand": "right"
    },
    {
      "midi": 71,
      "time": 31.2,
      "duration": 0.075,
      "velocity": 1,
      "hand": "right"
    },
    {
      "midi": 42,
      "time": 31.5,
      "duration": 0.15,
      "velocity": 0.63,
      "hand": "left"
    },
    {
      "midi": 46,
      "time": 31.5,
      "duration": 0.075,
      "velocity": 0.63,
      "hand": "left"
    },
    {
      "midi": 55,
      "time": 31.5,
      "duration": 0.075,
      "velocity": 1,
      "hand": "left"
    },
    {
      "midi": 62,
      "time": 31.5,
      "duration": 0.075,
      "velocity": 0.94,
      "hand": "right"
    },
    {
      "midi": 62,
      "time": 31.5,
      "duration": 0.3,
      "velocity": 0.63,
      "hand": "right"
    },
    {
      "midi": 67,
      "time": 31.5,
      "duration": 0.075,
      "velocity": 1,
      "hand": "right"
    },
    {
      "midi": 71,
      "time": 31.5,
      "duration": 0.075,
      "velocity": 0.99,
      "hand": "right"
    },
    {
      "midi": 74,
      "time": 31.5,
      "duration": 0.15,
      "velocity": 0.94,
      "hand": "right"
    },
    {
      "midi": 86,
      "time": 31.5,
      "duration": 0.15,
      "velocity": 0.94,
      "hand": "right"
    },
    {
      "midi": 62,
      "time": 31.65,
      "duration": 0.075,
      "velocity": 0.79,
      "hand": "right"
    },
    {
      "midi": 67,
      "time": 31.65,
      "duration": 0.075,
      "velocity": 1,
      "hand": "right"
    },
    {
      "midi": 71,
      "time": 31.65,
      "duration": 0.075,
      "velocity": 0.89,
      "hand": "right"
    },
    {
      "midi": 38,
      "time": 31.8,
      "duration": 0.3,
      "velocity": 1,
      "hand": "left"
    },
    {
      "midi": 38,
      "time": 31.8,
      "duration": 0.15,
      "velocity": 0.63,
      "hand": "left"
    },
    {
      "midi": 44,
      "time": 31.8,
      "duration": 0.075,
      "velocity": 0.63,
      "hand": "left"
    },
    {
      "midi": 67,
      "time": 31.8,
      "duration": 0.3,
      "velocity": 0.63,
      "hand": "right"
    },
    {
      "midi": 67,
      "time": 31.8,
      "duration": 0.6,
      "velocity": 1,
      "hand": "right"
    },
    {
      "midi": 42,
      "time": 32.1,
      "duration": 0.15,
      "velocity": 0.63,
      "hand": "left"
    },
    {
      "midi": 46,
      "time": 32.1,
      "duration": 0.075,
      "velocity": 0.63,
      "hand": "left"
    },
    {
      "midi": 50,
      "time": 32.1,
      "duration": 0.15,
      "velocity": 0.99,
      "hand": "left"
    },
    {
      "midi": 57,
      "time": 32.1,
      "duration": 0.3,
      "velocity": 0.89,
      "hand": "left"
    },
    {
      "midi": 59,
      "time": 32.1,
      "duration": 0.3,
      "velocity": 0.63,
      "hand": "left"
    },
    {
      "midi": 62,
      "time": 32.1,
      "duration": 0.075,
      "velocity": 1,
      "hand": "right"
    },
    {
      "midi": 67,
      "time": 32.1,
      "duration": 0.075,
      "velocity": 1,
      "hand": "right"
    },
    {
      "midi": 71,
      "time": 32.1,
      "duration": 0.075,
      "velocity": 1,
      "hand": "right"
    },
    {
      "midi": 71,
      "time": 32.1,
      "duration": 0.3,
      "velocity": 0.99,
      "hand": "right"
    },
    {
      "midi": 83,
      "time": 32.1,
      "duration": 0.3,
      "velocity": 0.99,
      "hand": "right"
    },
    {
      "midi": 38,
      "time": 32.4,
      "duration": 0.15,
      "velocity": 0.63,
      "hand": "left"
    },
    {
      "midi": 43,
      "time": 32.4,
      "duration": 0.3,
      "velocity": 1,
      "hand": "left"
    },
    {
      "midi": 44,
      "time": 32.4,
      "duration": 0.15,
      "velocity": 0.63,
      "hand": "left"
    },
    {
      "midi": 55,
      "time": 32.4,
      "duration": 0.6,
      "velocity": 1,
      "hand": "left"
    },
    {
      "midi": 62,
      "time": 32.4,
      "duration": 0.15,
      "velocity": 0.89,
      "hand": "right"
    },
    {
      "midi": 64,
      "time": 32.4,
      "duration": 0.6,
      "velocity": 1,
      "hand": "right"
    },
    {
      "midi": 67,
      "time": 32.4,
      "duration": 0.075,
      "velocity": 1,
      "hand": "right"
    },
    {
      "midi": 67,
      "time": 32.4,
      "duration": 0.6,
      "velocity": 0.77,
      "hand": "right"
    },
    {
      "midi": 71,
      "time": 32.4,
      "duration": 0.075,
      "velocity": 0.94,
      "hand": "right"
    },
    {
      "midi": 79,
      "time": 32.4,
      "duration": 0.6,
      "velocity": 0.77,
      "hand": "right"
    },
    {
      "midi": 42,
      "time": 32.7,
      "duration": 0.15,
      "velocity": 0.63,
      "hand": "left"
    },
    {
      "midi": 46,
      "time": 32.7,
      "duration": 0.075,
      "velocity": 0.63,
      "hand": "left"
    },
    {
      "midi": 50,
      "time": 32.7,
      "duration": 0.15,
      "velocity": 0.99,
      "hand": "left"
    },
    {
      "midi": 62,
      "time": 32.7,
      "duration": 0.075,
      "velocity": 0.92,
      "hand": "right"
    },
    {
      "midi": 67,
      "time": 32.7,
      "duration": 0.075,
      "velocity": 1,
      "hand": "right"
    },
    {
      "midi": 71,
      "time": 32.7,
      "duration": 0.075,
      "velocity": 0.97,
      "hand": "right"
    },
    {
      "midi": 38,
      "time": 33,
      "duration": 0.3,
      "velocity": 0.63,
      "hand": "left"
    },
    {
      "midi": 44,
      "time": 33,
      "duration": 0.3,
      "velocity": 1,
      "hand": "left"
    },
    {
      "midi": 44,
      "time": 33,
      "duration": 0.15,
      "velocity": 0.63,
      "hand": "left"
    },
    {
      "midi": 50,
      "time": 33,
      "duration": 0.3,
      "velocity": 1,
      "hand": "left"
    },
    {
      "midi": 62,
      "time": 33,
      "duration": 0.15,
      "velocity": 1,
      "hand": "right"
    },
    {
      "midi": 62,
      "time": 33,
      "duration": 0.3,
      "velocity": 1,
      "hand": "right"
    },
    {
      "midi": 64,
      "time": 33,
      "duration": 0.3,
      "velocity": 0.63,
      "hand": "right"
    },
    {
      "midi": 67,
      "time": 33,
      "duration": 0.15,
      "velocity": 1,
      "hand": "right"
    },
    {
      "midi": 71,
      "time": 33,
      "duration": 0.15,
      "velocity": 1,
      "hand": "right"
    },
    {
      "midi": 71,
      "time": 33,
      "duration": 0.6,
      "velocity": 1,
      "hand": "right"
    },
    {
      "midi": 83,
      "time": 33,
      "duration": 0.6,
      "velocity": 1,
      "hand": "right"
    },
    {
      "midi": 42,
      "time": 33.3,
      "duration": 0.15,
      "velocity": 0.63,
      "hand": "left"
    },
    {
      "midi": 46,
      "time": 33.3,
      "duration": 0.15,
      "velocity": 0.63,
      "hand": "left"
    },
    {
      "midi": 52,
      "time": 33.3,
      "duration": 0.15,
      "velocity": 0.72,
      "hand": "left"
    },
    {
      "midi": 52,
      "time": 33.3,
      "duration": 0.45,
      "velocity": 1,
      "hand": "left"
    },
    {
      "midi": 61,
      "time": 33.3,
      "duration": 0.3,
      "velocity": 1,
      "hand": "right"
    },
    {
      "midi": 62,
      "time": 33.3,
      "duration": 0.15,
      "velocity": 1,
      "hand": "right"
    },
    {
      "midi": 62,
      "time": 33.3,
      "duration": 0.3,
      "velocity": 0.63,
      "hand": "right"
    },
    {
      "midi": 67,
      "time": 33.3,
      "duration": 0.15,
      "velocity": 1,
      "hand": "right"
    },
    {
      "midi": 71,
      "time": 33.3,
      "duration": 0.15,
      "velocity": 1,
      "hand": "right"
    },
    {
      "midi": 38,
      "time": 33.6,
      "duration": 0.075,
      "velocity": 0.63,
      "hand": "left"
    },
    {
      "midi": 44,
      "time": 33.6,
      "duration": 0.075,
      "velocity": 0.63,
      "hand": "left"
    },
    {
      "midi": 45,
      "time": 33.6,
      "duration": 0.15,
      "velocity": 1,
      "hand": "left"
    },
    {
      "midi": 54,
      "time": 33.6,
      "duration": 1.5,
      "velocity": 1,
      "hand": "left"
    },
    {
      "midi": 60,
      "time": 33.6,
      "duration": 0.075,
      "velocity": 0.63,
      "hand": "right"
    },
    {
      "midi": 60,
      "time": 33.6,
      "duration": 0.15,
      "velocity": 1,
      "hand": "right"
    },
    {
      "midi": 62,
      "time": 33.6,
      "duration": 0.15,
      "velocity": 0.79,
      "hand": "right"
    },
    {
      "midi": 66,
      "time": 33.6,
      "duration": 0.15,
      "velocity": 0.94,
      "hand": "right"
    },
    {
      "midi": 72,
      "time": 33.6,
      "duration": 0.15,
      "velocity": 0.96,
      "hand": "right"
    },
    {
      "midi": 74,
      "time": 33.6,
      "duration": 0.075,
      "velocity": 0.94,
      "hand": "right"
    },
    {
      "midi": 86,
      "time": 33.6,
      "duration": 0.075,
      "velocity": 0.94,
      "hand": "right"
    },
    {
      "midi": 42,
      "time": 33.9,
      "duration": 0.15,
      "velocity": 0.63,
      "hand": "left"
    },
    {
      "midi": 46,
      "time": 33.9,
      "duration": 0.15,
      "velocity": 0.63,
      "hand": "left"
    },
    {
      "midi": 54,
      "time": 33.9,
      "duration": 0.15,
      "velocity": 1,
      "hand": "left"
    },
    {
      "midi": 54,
      "time": 33.9,
      "duration": 0.6,
      "velocity": 0.63,
      "hand": "left"
    },
    {
      "midi": 62,
      "time": 33.9,
      "duration": 0.075,
      "velocity": 0.87,
      "hand": "right"
    },
    {
      "midi": 66,
      "time": 33.9,
      "duration": 0.075,
      "velocity": 0.81,
      "hand": "right"
    },
    {
      "midi": 72,
      "time": 33.9,
      "duration": 0.075,
      "velocity": 0.94,
      "hand": "right"
    },
    {
      "midi": 74,
      "time": 33.9,
      "duration": 0.6,
      "velocity": 1,
      "hand": "right"
    },
    {
      "midi": 74,
      "time": 33.9,
      "duration": 0.15,
      "velocity": 0.68,
      "hand": "right"
    },
    {
      "midi": 78,
      "time": 33.9,
      "duration": 0.15,
      "velocity": 0.59,
      "hand": "right"
    },
    {
      "midi": 86,
      "time": 33.9,
      "duration": 0.6,
      "velocity": 1,
      "hand": "right"
    },
    {
      "midi": 62,
      "time": 34.05,
      "duration": 0.075,
      "velocity": 0.81,
      "hand": "right"
    },
    {
      "midi": 66,
      "time": 34.05,
      "duration": 0.15,
      "velocity": 0.94,
      "hand": "right"
    },
    {
      "midi": 72,
      "time": 34.05,
      "duration": 0.075,
      "velocity": 0.96,
      "hand": "right"
    },
    {
      "midi": 72,
      "time": 34.05,
      "duration": 0.15,
      "velocity": 0.91,
      "hand": "right"
    },
    {
      "midi": 72,
      "time": 34.05,
      "duration": 0.075,
      "velocity": 0.8,
      "hand": "right"
    },
    {
      "midi": 38,
      "time": 34.2,
      "duration": 0.3,
      "velocity": 1,
      "hand": "left"
    },
    {
      "midi": 44,
      "time": 34.2,
      "duration": 0.075,
      "velocity": 0.63,
      "hand": "left"
    },
    {
      "midi": 66,
      "time": 34.2,
      "duration": 0.3,
      "velocity": 1,
      "hand": "right"
    },
    {
      "midi": 72,
      "time": 34.35,
      "duration": 0.075,
      "velocity": 0.98,
      "hand": "right"
    },
    {
      "midi": 84,
      "time": 34.35,
      "duration": 0.075,
      "velocity": 0.98,
      "hand": "right"
    },
    {
      "midi": 42,
      "time": 34.5,
      "duration": 0.3,
      "velocity": 0.63,
      "hand": "left"
    },
    {
      "midi": 46,
      "time": 34.5,
      "duration": 0.075,
      "velocity": 0.63,
      "hand": "left"
    },
    {
      "midi": 50,
      "time": 34.5,
      "duration": 0.15,
      "velocity": 0.99,
      "hand": "left"
    },
    {
      "midi": 52,
      "time": 34.5,
      "duration": 0.3,
      "velocity": 0.63,
      "hand": "left"
    },
    {
      "midi": 62,
      "time": 34.5,
      "duration": 0.075,
      "velocity": 0.94,
      "hand": "right"
    },
    {
      "midi": 64,
      "time": 34.5,
      "duration": 0.3,
      "velocity": 0.91,
      "hand": "right"
    },
    {
      "midi": 66,
      "time": 34.5,
      "duration": 0.15,
      "velocity": 0.97,
      "hand": "right"
    },
    {
      "midi": 72,
      "time": 34.5,
      "duration": 0.15,
      "velocity": 0.94,
      "hand": "right"
    },
    {
      "midi": 72,
      "time": 34.5,
      "duration": 0.3,
      "velocity": 0.79,
      "hand": "right"
    },
    {
      "midi": 74,
      "time": 34.5,
      "duration": 0.15,
      "velocity": 0.83,
      "hand": "right"
    },
    {
      "midi": 84,
      "time": 34.5,
      "duration": 0.3,
      "velocity": 0.79,
      "hand": "right"
    },
    {
      "midi": 86,
      "time": 34.5,
      "duration": 0.15,
      "velocity": 0.83,
      "hand": "right"
    },
    {
      "midi": 38,
      "time": 34.8,
      "duration": 0.3,
      "velocity": 0.63,
      "hand": "left"
    },
    {
      "midi": 42,
      "time": 34.8,
      "duration": 0.3,
      "velocity": 1,
      "hand": "left"
    },
    {
      "midi": 44,
      "time": 34.8,
      "duration": 0.15,
      "velocity": 0.63,
      "hand": "left"
    },
    {
      "midi": 50,
      "time": 34.8,
      "duration": 0.3,
      "velocity": 0.63,
      "hand": "left"
    },
    {
      "midi": 62,
      "time": 34.8,
      "duration": 0.075,
      "velocity": 0.79,
      "hand": "right"
    },
    {
      "midi": 62,
      "time": 34.8,
      "duration": 0.45,
      "velocity": 1,
      "hand": "right"
    },
    {
      "midi": 66,
      "time": 34.8,
      "duration": 0.15,
      "velocity": 0.92,
      "hand": "right"
    },
    {
      "midi": 71,
      "time": 34.8,
      "duration": 0.6,
      "velocity": 0.79,
      "hand": "right"
    },
    {
      "midi": 72,
      "time": 34.8,
      "duration": 0.15,
      "velocity": 0.87,
      "hand": "right"
    },
    {
      "midi": 83,
      "time": 34.8,
      "duration": 0.6,
      "velocity": 0.79,
      "hand": "right"
    },
    {
      "midi": 42,
      "time": 35.1,
      "duration": 0.15,
      "velocity": 0.63,
      "hand": "left"
    },
    {
      "midi": 46,
      "time": 35.1,
      "duration": 0.075,
      "velocity": 0.63,
      "hand": "left"
    },
    {
      "midi": 57,
      "time": 35.1,
      "duration": 0.075,
      "velocity": 1,
      "hand": "left"
    },
    {
      "midi": 57,
      "time": 35.1,
      "duration": 0.3,
      "velocity": 0.94,
      "hand": "left"
    },
    {
      "midi": 60,
      "time": 35.1,
      "duration": 0.3,
      "velocity": 0.63,
      "hand": "right"
    },
    {
      "midi": 62,
      "time": 35.1,
      "duration": 0.075,
      "velocity": 0.61,
      "hand": "right"
    },
    {
      "midi": 66,
      "time": 35.1,
      "duration": 0.15,
      "velocity": 0.94,
      "hand": "right"
    },
    {
      "midi": 72,
      "time": 35.1,
      "duration": 0.075,
      "velocity": 0.91,
      "hand": "right"
    },
    {
      "midi": 72,
      "time": 35.1,
      "duration": 0.15,
      "velocity": 0.83,
      "hand": "right"
    },
    {
      "midi": 74,
      "time": 35.1,
      "duration": 0.15,
      "velocity": 0.81,
      "hand": "right"
    },
    {
      "midi": 38,
      "time": 35.4,
      "duration": 0.15,
      "velocity": 1,
      "hand": "left"
    },
    {
      "midi": 38,
      "time": 35.4,
      "duration": 0.3,
      "velocity": 0.63,
      "hand": "left"
    },
    {
      "midi": 44,
      "time": 35.4,
      "duration": 0.15,
      "velocity": 0.63,
      "hand": "left"
    },
    {
      "midi": 50,
      "time": 35.4,
      "duration": 0.3,
      "velocity": 0.97,
      "hand": "left"
    },
    {
      "midi": 59,
      "time": 35.4,
      "duration": 0.15,
      "velocity": 0.63,
      "hand": "left"
    },
    {
      "midi": 62,
      "time": 35.4,
      "duration": 0.15,
      "velocity": 1,
      "hand": "right"
    },
    {
      "midi": 66,
      "time": 35.4,
      "duration": 0.15,
      "velocity": 1,
      "hand": "right"
    },
    {
      "midi": 66,
      "time": 35.4,
      "duration": 0.075,
      "velocity": 0.89,
      "hand": "right"
    },
    {
      "midi": 66,
      "time": 35.4,
      "duration": 0.6,
      "velocity": 1,
      "hand": "right"
    },
    {
      "midi": 69,
      "time": 35.4,
      "duration": 0.6,
      "velocity": 0.97,
      "hand": "right"
    },
    {
      "midi": 72,
      "time": 35.4,
      "duration": 0.15,
      "velocity": 1,
      "hand": "right"
    },
    {
      "midi": 81,
      "time": 35.4,
      "duration": 0.6,
      "velocity": 0.97,
      "hand": "right"
    },
    {
      "midi": 42,
      "time": 35.7,
      "duration": 0.3,
      "velocity": 0.63,
      "hand": "left"
    },
    {
      "midi": 46,
      "time": 35.7,
      "duration": 0.15,
      "velocity": 0.63,
      "hand": "left"
    },
    {
      "midi": 48,
      "time": 35.7,
      "duration": 0.3,
      "velocity": 0.77,
      "hand": "left"
    },
    {
      "midi": 50,
      "time": 35.7,
      "duration": 0.15,
      "velocity": 1,
      "hand": "left"
    },
    {
      "midi": 57,
      "time": 35.7,
      "duration": 0.3,
      "velocity": 0.63,
      "hand": "left"
    },
    {
      "midi": 62,
      "time": 35.7,
      "duration": 0.15,
      "velocity": 0.85,
      "hand": "right"
    },
    {
      "midi": 66,
      "time": 35.7,
      "duration": 0.075,
      "velocity": 0.83,
      "hand": "right"
    },
    {
      "midi": 72,
      "time": 35.7,
      "duration": 0.15,
      "velocity": 0.84,
      "hand": "right"
    },
    {
      "midi": 67,
      "time": 35.85,
      "duration": 0.6,
      "velocity": 0.92,
      "hand": "right"
    },
    {
      "midi": 79,
      "time": 35.85,
      "duration": 0.6,
      "velocity": 0.92,
      "hand": "right"
    },
    {
      "midi": 38,
      "time": 36,
      "duration": 0.075,
      "velocity": 0.63,
      "hand": "left"
    },
    {
      "midi": 43,
      "time": 36,
      "duration": 0.15,
      "velocity": 1,
      "hand": "left"
    },
    {
      "midi": 44,
      "time": 36,
      "duration": 0.075,
      "velocity": 0.63,
      "hand": "left"
    },
    {
      "midi": 47,
      "time": 36,
      "duration": 0.075,
      "velocity": 1,
      "hand": "left"
    },
    {
      "midi": 55,
      "time": 36,
      "duration": 0.075,
      "velocity": 0.63,
      "hand": "left"
    },
    {
      "midi": 62,
      "time": 36,
      "duration": 0.075,
      "velocity": 1,
      "hand": "right"
    },
    {
      "midi": 67,
      "time": 36,
      "duration": 0.075,
      "velocity": 1,
      "hand": "right"
    },
    {
      "midi": 69,
      "time": 36,
      "duration": 0.075,
      "velocity": 1,
      "hand": "right"
    },
    {
      "midi": 71,
      "time": 36,
      "duration": 0.075,
      "velocity": 0.94,
      "hand": "right"
    },
    {
      "midi": 42,
      "time": 36.3,
      "duration": 0.15,
      "velocity": 0.63,
      "hand": "left"
    },
    {
      "midi": 44,
      "time": 36.3,
      "duration": 0.075,
      "velocity": 0.63,
      "hand": "left"
    },
    {
      "midi": 46,
      "time": 36.3,
      "duration": 0.075,
      "velocity": 0.63,
      "hand": "left"
    },
    {
      "midi": 47,
      "time": 36.3,
      "duration": 0.15,
      "velocity": 0.97,
      "hand": "left"
    },
    {
      "midi": 62,
      "time": 36.3,
      "duration": 0.075,
      "velocity": 0.99,
      "hand": "right"
    },
    {
      "midi": 67,
      "time": 36.3,
      "duration": 0.075,
      "velocity": 1,
      "hand": "right"
    },
    {
      "midi": 71,
      "time": 36.3,
      "duration": 0.075,
      "velocity": 1,
      "hand": "right"
    },
    {
      "midi": 86,
      "time": 36.3,
      "duration": 0.075,
      "velocity": 0.8,
      "hand": "right"
    },
    {
      "midi": 44,
      "time": 36.45,
      "duration": 0.075,
      "velocity": 0.63,
      "hand": "left"
    },
    {
      "midi": 46,
      "time": 36.45,
      "duration": 0.075,
      "velocity": 0.63,
      "hand": "left"
    },
    {
      "midi": 62,
      "time": 36.45,
      "duration": 0.15,
      "velocity": 0.71,
      "hand": "right"
    },
    {
      "midi": 62,
      "time": 36.45,
      "duration": 0.3,
      "velocity": 0.99,
      "hand": "right"
    },
    {
      "midi": 64,
      "time": 36.45,
      "duration": 0.15,
      "velocity": 0.94,
      "hand": "right"
    },
    {
      "midi": 71,
      "time": 36.45,
      "duration": 0.15,
      "velocity": 0.63,
      "hand": "right"
    },
    {
      "midi": 86,
      "time": 36.45,
      "duration": 0.15,
      "velocity": 0.91,
      "hand": "right"
    },
    {
      "midi": 38,
      "time": 36.6,
      "duration": 0.15,
      "velocity": 1,
      "hand": "left"
    },
    {
      "midi": 38,
      "time": 36.6,
      "duration": 0.3,
      "velocity": 0.63,
      "hand": "left"
    },
    {
      "midi": 52,
      "time": 36.6,
      "duration": 0.6,
      "velocity": 1,
      "hand": "left"
    },
    {
      "midi": 64,
      "time": 36.6,
      "duration": 0.075,
      "velocity": 0.89,
      "hand": "right"
    },
    {
      "midi": 68,
      "time": 36.6,
      "duration": 0.15,
      "velocity": 1,
      "hand": "right"
    },
    {
      "midi": 68,
      "time": 36.6,
      "duration": 0.6,
      "velocity": 0.96,
      "hand": "right"
    },
    {
      "midi": 71,
      "time": 36.6,
      "duration": 0.15,
      "velocity": 1,
      "hand": "right"
    },
    {
      "midi": 72,
      "time": 36.6,
      "duration": 0.3,
      "velocity": 0.64,
      "hand": "right"
    },
    {
      "midi": 88,
      "time": 36.6,
      "duration": 0.15,
      "velocity": 0.92,
      "hand": "right"
    },
    {
      "midi": 62,
      "time": 36.75,
      "duration": 0.075,
      "velocity": 0.71,
      "hand": "right"
    },
    {
      "midi": 62,
      "time": 36.75,
      "duration": 0.3,
      "velocity": 1,
      "hand": "right"
    },
    {
      "midi": 71,
      "time": 36.75,
      "duration": 0.3,
      "velocity": 0.65,
      "hand": "right"
    },
    {
      "midi": 86,
      "time": 36.75,
      "duration": 0.3,
      "velocity": 0.92,
      "hand": "right"
    },
    {
      "midi": 42,
      "time": 36.9,
      "duration": 0.3,
      "velocity": 0.63,
      "hand": "left"
    },
    {
      "midi": 46,
      "time": 36.9,
      "duration": 0.075,
      "velocity": 0.63,
      "hand": "left"
    },
    {
      "midi": 50,
      "time": 36.9,
      "duration": 0.15,
      "velocity": 1,
      "hand": "left"
    },
    {
      "midi": 62,
      "time": 36.9,
      "duration": 0.3,
      "velocity": 0.71,
      "hand": "right"
    },
    {
      "midi": 64,
      "time": 36.9,
      "duration": 0.15,
      "velocity": 1,
      "hand": "right"
    },
    {
      "midi": 68,
      "time": 36.9,
      "duration": 0.15,
      "velocity": 1,
      "hand": "right"
    },
    {
      "midi": 69,
      "time": 36.9,
      "duration": 0.075,
      "velocity": 0.97,
      "hand": "right"
    },
    {
      "midi": 71,
      "time": 36.9,
      "duration": 0.15,
      "velocity": 1,
      "hand": "right"
    },
    {
      "midi": 69,
      "time": 37.05,
      "duration": 0.3,
      "velocity": 0.65,
      "hand": "right"
    },
    {
      "midi": 84,
      "time": 37.05,
      "duration": 0.075,
      "velocity": 0.92,
      "hand": "right"
    },
    {
      "midi": 38,
      "time": 37.2,
      "duration": 0.075,
      "velocity": 0.63,
      "hand": "left"
    },
    {
      "midi": 44,
      "time": 37.2,
      "duration": 0.15,
      "velocity": 0.63,
      "hand": "left"
    },
    {
      "midi": 45,
      "time": 37.2,
      "duration": 0.15,
      "velocity": 1,
      "hand": "left"
    },
    {
      "midi": 51,
      "time": 37.2,
      "duration": 0.075,
      "velocity": 0.63,
      "hand": "left"
    },
    {
      "midi": 57,
      "time": 37.2,
      "duration": 0.3,
      "velocity": 1,
      "hand": "left"
    },
    {
      "midi": 60,
      "time": 37.2,
      "duration": 0.075,
      "velocity": 0.71,
      "hand": "right"
    },
    {
      "midi": 60,
      "time": 37.2,
      "duration": 0.15,
      "velocity": 1,
      "hand": "right"
    },
    {
      "midi": 64,
      "time": 37.2,
      "duration": 0.15,
      "velocity": 1,
      "hand": "right"
    },
    {
      "midi": 69,
      "time": 37.2,
      "duration": 0.075,
      "velocity": 1,
      "hand": "right"
    },
    {
      "midi": 72,
      "time": 37.2,
      "duration": 0.075,
      "velocity": 1,
      "hand": "right"
    },
    {
      "midi": 46,
      "time": 37.35,
      "duration": 0.075,
      "velocity": 0.63,
      "hand": "left"
    },
    {
      "midi": 57,
      "time": 37.35,
      "duration": 0.075,
      "velocity": 1,
      "hand": "left"
    },
    {
      "midi": 42,
      "time": 37.5,
      "duration": 0.3,
      "velocity": 0.63,
      "hand": "left"
    },
    {
      "midi": 44,
      "time": 37.5,
      "duration": 0.075,
      "velocity": 0.63,
      "hand": "left"
    },
    {
      "midi": 46,
      "time": 37.5,
      "duration": 0.075,
      "velocity": 0.63,
      "hand": "left"
    },
    {
      "midi": 52,
      "time": 37.5,
      "duration": 0.075,
      "velocity": 1,
      "hand": "left"
    },
    {
      "midi": 57,
      "time": 37.5,
      "duration": 0.15,
      "velocity": 0.71,
      "hand": "left"
    },
    {
      "midi": 64,
      "time": 37.5,
      "duration": 0.075,
      "velocity": 0.97,
      "hand": "right"
    },
    {
      "midi": 64,
      "time": 37.5,
      "duration": 0.15,
      "velocity": 0.66,
      "hand": "right"
    },
    {
      "midi": 67,
      "time": 37.5,
      "duration": 0.075,
      "velocity": 0.92,
      "hand": "right"
    },
    {
      "midi": 69,
      "time": 37.5,
      "duration": 0.075,
      "velocity": 0.83,
      "hand": "right"
    },
    {
      "midi": 69,
      "time": 37.5,
      "duration": 0.15,
      "velocity": 0.87,
      "hand": "right"
    },
    {
      "midi": 72,
      "time": 37.5,
      "duration": 0.075,
      "velocity": 1,
      "hand": "right"
    },
    {
      "midi": 81,
      "time": 37.5,
      "duration": 0.15,
      "velocity": 0.87,
      "hand": "right"
    },
    {
      "midi": 44,
      "time": 37.65,
      "duration": 0.075,
      "velocity": 0.63,
      "hand": "left"
    },
    {
      "midi": 46,
      "time": 37.65,
      "duration": 0.075,
      "velocity": 0.63,
      "hand": "left"
    },
    {
      "midi": 57,
      "time": 37.65,
      "duration": 0.15,
      "velocity": 0.71,
      "hand": "left"
    },
    {
      "midi": 66,
      "time": 37.65,
      "duration": 0.15,
      "velocity": 0.99,
      "hand": "right"
    },
    {
      "midi": 66,
      "time": 37.65,
      "duration": 0.3,
      "velocity": 0.68,
      "hand": "right"
    },
    {
      "midi": 67,
      "time": 37.65,
      "duration": 0.15,
      "velocity": 0.79,
      "hand": "right"
    },
    {
      "midi": 72,
      "time": 37.65,
      "duration": 0.15,
      "velocity": 1,
      "hand": "right"
    },
    {
      "midi": 74,
      "time": 37.65,
      "duration": 0.075,
      "velocity": 1,
      "hand": "right"
    },
    {
      "midi": 38,
      "time": 37.8,
      "duration": 0.3,
      "velocity": 1,
      "hand": "left"
    },
    {
      "midi": 54,
      "time": 37.8,
      "duration": 0.6,
      "velocity": 1,
      "hand": "left"
    },
    {
      "midi": 62,
      "time": 37.8,
      "duration": 0.3,
      "velocity": 0.71,
      "hand": "right"
    },
    {
      "midi": 66,
      "time": 37.8,
      "duration": 0.075,
      "velocity": 0.89,
      "hand": "right"
    },
    {
      "midi": 86,
      "time": 37.8,
      "duration": 0.15,
      "velocity": 0.92,
      "hand": "right"
    },
    {
      "midi": 60,
      "time": 37.95,
      "duration": 0.45,
      "velocity": 0.94,
      "hand": "right"
    },
    {
      "midi": 66,
      "time": 37.95,
      "duration": 0.15,
      "velocity": 1,
      "hand": "right"
    },
    {
      "midi": 72,
      "time": 37.95,
      "duration": 0.075,
      "velocity": 1,
      "hand": "right"
    },
    {
      "midi": 73,
      "time": 37.95,
      "duration": 0.075,
      "velocity": 1,
      "hand": "right"
    },
    {
      "midi": 74,
      "time": 37.95,
      "duration": 0.075,
      "velocity": 0.94,
      "hand": "right"
    },
    {
      "midi": 42,
      "time": 38.1,
      "duration": 0.3,
      "velocity": 0.63,
      "hand": "left"
    },
    {
      "midi": 46,
      "time": 38.1,
      "duration": 0.075,
      "velocity": 0.63,
      "hand": "left"
    },
    {
      "midi": 50,
      "time": 38.1,
      "duration": 0.15,
      "velocity": 1,
      "hand": "left"
    },
    {
      "midi": 60,
      "time": 38.1,
      "duration": 0.3,
      "velocity": 0.71,
      "hand": "right"
    },
    {
      "midi": 62,
      "time": 38.1,
      "duration": 0.3,
      "velocity": 0.69,
      "hand": "right"
    },
    {
      "midi": 66,
      "time": 38.1,
      "duration": 0.15,
      "velocity": 0.92,
      "hand": "right"
    },
    {
      "midi": 84,
      "time": 38.1,
      "duration": 0.15,
      "velocity": 0.92,
      "hand": "right"
    },
    {
      "midi": 59,
      "time": 38.25,
      "duration": 0.15,
      "velocity": 1,
      "hand": "left"
    },
    {
      "midi": 69,
      "time": 38.25,
      "duration": 0.15,
      "velocity": 0.79,
      "hand": "right"
    },
    {
      "midi": 38,
      "time": 38.4,
      "duration": 0.075,
      "velocity": 0.63,
      "hand": "left"
    },
    {
      "midi": 43,
      "time": 38.4,
      "duration": 0.15,
      "velocity": 1,
      "hand": "left"
    },
    {
      "midi": 44,
      "time": 38.4,
      "duration": 0.075,
      "velocity": 0.63,
      "hand": "left"
    },
    {
      "midi": 51,
      "time": 38.4,
      "duration": 0.075,
      "velocity": 0.63,
      "hand": "left"
    },
    {
      "midi": 55,
      "time": 38.4,
      "duration": 0.6,
      "velocity": 0.99,
      "hand": "left"
    },
    {
      "midi": 59,
      "time": 38.4,
      "duration": 0.15,
      "velocity": 0.71,
      "hand": "left"
    },
    {
      "midi": 62,
      "time": 38.4,
      "duration": 0.6,
      "velocity": 1,
      "hand": "right"
    },
    {
      "midi": 67,
      "time": 38.4,
      "duration": 0.075,
      "velocity": 1,
      "hand": "right"
    },
    {
      "midi": 67,
      "time": 38.4,
      "duration": 0.15,
      "velocity": 0.69,
      "hand": "right"
    },
    {
      "midi": 71,
      "time": 38.4,
      "duration": 0.075,
      "velocity": 1,
      "hand": "right"
    },
    {
      "midi": 74,
      "time": 38.4,
      "duration": 0.075,
      "velocity": 1,
      "hand": "right"
    },
    {
      "midi": 83,
      "time": 38.4,
      "duration": 0.15,
      "velocity": 0.92,
      "hand": "right"
    },
    {
      "midi": 42,
      "time": 38.7,
      "duration": 0.3,
      "velocity": 0.63,
      "hand": "left"
    },
    {
      "midi": 44,
      "time": 38.7,
      "duration": 0.075,
      "velocity": 0.63,
      "hand": "left"
    },
    {
      "midi": 46,
      "time": 38.7,
      "duration": 0.075,
      "velocity": 0.63,
      "hand": "left"
    },
    {
      "midi": 55,
      "time": 38.7,
      "duration": 0.15,
      "velocity": 1,
      "hand": "left"
    },
    {
      "midi": 59,
      "time": 38.7,
      "duration": 0.15,
      "velocity": 0.71,
      "hand": "left"
    },
    {
      "midi": 67,
      "time": 38.7,
      "duration": 0.075,
      "velocity": 1,
      "hand": "right"
    },
    {
      "midi": 67,
      "time": 38.7,
      "duration": 0.15,
      "velocity": 0.71,
      "hand": "right"
    },
    {
      "midi": 71,
      "time": 38.7,
      "duration": 0.075,
      "velocity": 1,
      "hand": "right"
    },
    {
      "midi": 74,
      "time": 38.7,
      "duration": 0.075,
      "velocity": 1,
      "hand": "right"
    },
    {
      "midi": 79,
      "time": 38.7,
      "duration": 0.15,
      "velocity": 0.91,
      "hand": "right"
    },
    {
      "midi": 83,
      "time": 38.7,
      "duration": 0.15,
      "velocity": 0.92,
      "hand": "right"
    },
    {
      "midi": 44,
      "time": 38.85,
      "duration": 0.075,
      "velocity": 0.63,
      "hand": "left"
    },
    {
      "midi": 46,
      "time": 38.85,
      "duration": 0.075,
      "velocity": 0.63,
      "hand": "left"
    },
    {
      "midi": 55,
      "time": 38.85,
      "duration": 0.15,
      "velocity": 0.71,
      "hand": "left"
    },
    {
      "midi": 66,
      "time": 38.85,
      "duration": 0.15,
      "velocity": 0.71,
      "hand": "right"
    },
    {
      "midi": 38,
      "time": 39,
      "duration": 0.45,
      "velocity": 0.63,
      "hand": "left"
    },
    {
      "midi": 40,
      "time": 39,
      "duration": 0.3,
      "velocity": 1,
      "hand": "left"
    },
    {
      "midi": 52,
      "time": 39,
      "duration": 0.3,
      "velocity": 0.94,
      "hand": "left"
    },
    {
      "midi": 60,
      "time": 39,
      "duration": 0.075,
      "velocity": 0.71,
      "hand": "right"
    },
    {
      "midi": 60,
      "time": 39,
      "duration": 0.15,
      "velocity": 1,
      "hand": "right"
    },
    {
      "midi": 64,
      "time": 39,
      "duration": 0.6,
      "velocity": 0.94,
      "hand": "right"
    },
    {
      "midi": 64,
      "time": 39,
      "duration": 0.15,
      "velocity": 0.72,
      "hand": "right"
    },
    {
      "midi": 68,
      "time": 39,
      "duration": 0.075,
      "velocity": 1,
      "hand": "right"
    },
    {
      "midi": 70,
      "time": 39,
      "duration": 0.075,
      "velocity": 0.7,
      "hand": "right"
    },
    {
      "midi": 71,
      "time": 39,
      "duration": 0.15,
      "velocity": 1,
      "hand": "right"
    },
    {
      "midi": 76,
      "time": 39,
      "duration": 0.075,
      "velocity": 1,
      "hand": "right"
    },
    {
      "midi": 84,
      "time": 39,
      "duration": 0.075,
      "velocity": 0.92,
      "hand": "right"
    },
    {
      "midi": 42,
      "time": 39.3,
      "duration": 0.3,
      "velocity": 0.63,
      "hand": "left"
    },
    {
      "midi": 46,
      "time": 39.3,
      "duration": 0.075,
      "velocity": 0.63,
      "hand": "left"
    },
    {
      "midi": 50,
      "time": 39.3,
      "duration": 0.15,
      "velocity": 0.99,
      "hand": "left"
    },
    {
      "midi": 56,
      "time": 39.3,
      "duration": 0.15,
      "velocity": 1,
      "hand": "left"
    },
    {
      "midi": 60,
      "time": 39.3,
      "duration": 0.15,
      "velocity": 0.71,
      "hand": "right"
    },
    {
      "midi": 60,
      "time": 39.3,
      "duration": 0.3,
      "velocity": 1,
      "hand": "right"
    },
    {
      "midi": 64,
      "time": 39.3,
      "duration": 0.15,
      "velocity": 0.72,
      "hand": "right"
    },
    {
      "midi": 68,
      "time": 39.3,
      "duration": 0.15,
      "velocity": 1,
      "hand": "right"
    },
    {
      "midi": 71,
      "time": 39.3,
      "duration": 0.15,
      "velocity": 1,
      "hand": "right"
    },
    {
      "midi": 75,
      "time": 39.3,
      "duration": 0.075,
      "velocity": 0.84,
      "hand": "right"
    },
    {
      "midi": 76,
      "time": 39.3,
      "duration": 0.15,
      "velocity": 1,
      "hand": "right"
    },
    {
      "midi": 84,
      "time": 39.3,
      "duration": 0.15,
      "velocity": 0.92,
      "hand": "right"
    },
    {
      "midi": 59,
      "time": 39.45,
      "duration": 0.15,
      "velocity": 0.71,
      "hand": "left"
    },
    {
      "midi": 62,
      "time": 39.45,
      "duration": 0.15,
      "velocity": 0.73,
      "hand": "right"
    },
    {
      "midi": 83,
      "time": 39.45,
      "duration": 0.15,
      "velocity": 0.8,
      "hand": "right"
    },
    {
      "midi": 38,
      "time": 39.6,
      "duration": 0.075,
      "velocity": 0.63,
      "hand": "left"
    },
    {
      "midi": 44,
      "time": 39.6,
      "duration": 0.075,
      "velocity": 0.63,
      "hand": "left"
    },
    {
      "midi": 45,
      "time": 39.6,
      "duration": 0.3,
      "velocity": 1,
      "hand": "left"
    },
    {
      "midi": 48,
      "time": 39.6,
      "duration": 0.6,
      "velocity": 1,
      "hand": "left"
    },
    {
      "midi": 51,
      "time": 39.6,
      "duration": 0.075,
      "velocity": 0.63,
      "hand": "left"
    },
    {
      "midi": 57,
      "time": 39.6,
      "duration": 0.15,
      "velocity": 0.71,
      "hand": "left"
    },
    {
      "midi": 60,
      "time": 39.6,
      "duration": 0.15,
      "velocity": 0.74,
      "hand": "right"
    },
    {
      "midi": 69,
      "time": 39.6,
      "duration": 0.075,
      "velocity": 0.99,
      "hand": "right"
    },
    {
      "midi": 72,
      "time": 39.6,
      "duration": 0.075,
      "velocity": 1,
      "hand": "right"
    },
    {
      "midi": 75,
      "time": 39.6,
      "duration": 0.075,
      "velocity": 0.91,
      "hand": "right"
    },
    {
      "midi": 76,
      "time": 39.6,
      "duration": 0.075,
      "velocity": 1,
      "hand": "right"
    },
    {
      "midi": 81,
      "time": 39.6,
      "duration": 0.15,
      "velocity": 0.91,
      "hand": "right"
    },
    {
      "midi": 42,
      "time": 39.9,
      "duration": 0.3,
      "velocity": 0.63,
      "hand": "left"
    },
    {
      "midi": 44,
      "time": 39.9,
      "duration": 0.075,
      "velocity": 0.63,
      "hand": "left"
    },
    {
      "midi": 46,
      "time": 39.9,
      "duration": 0.075,
      "velocity": 0.63,
      "hand": "left"
    },
    {
      "midi": 57,
      "time": 39.9,
      "duration": 0.15,
      "velocity": 0.97,
      "hand": "left"
    },
    {
      "midi": 58,
      "time": 39.9,
      "duration": 0.075,
      "velocity": 0.71,
      "hand": "left"
    },
    {
      "midi": 60,
      "time": 39.9,
      "duration": 0.075,
      "velocity": 0.75,
      "hand": "right"
    },
    {
      "midi": 67,
      "time": 39.9,
      "duration": 0.15,
      "velocity": 0.83,
      "hand": "right"
    },
    {
      "midi": 69,
      "time": 39.9,
      "duration": 0.15,
      "velocity": 0.94,
      "hand": "right"
    },
    {
      "midi": 72,
      "time": 39.9,
      "duration": 0.075,
      "velocity": 1,
      "hand": "right"
    },
    {
      "midi": 76,
      "time": 39.9,
      "duration": 0.075,
      "velocity": 0.97,
      "hand": "right"
    },
    {
      "midi": 76,
      "time": 39.9,
      "duration": 0.15,
      "velocity": 0.76,
      "hand": "right"
    },
    {
      "midi": 81,
      "time": 39.9,
      "duration": 0.075,
      "velocity": 0.84,
      "hand": "right"
    },
    {
      "midi": 44,
      "time": 40.05,
      "duration": 0.075,
      "velocity": 0.63,
      "hand": "left"
    },
    {
      "midi": 46,
      "time": 40.05,
      "duration": 0.075,
      "velocity": 0.63,
      "hand": "left"
    },
    {
      "midi": 57,
      "time": 40.05,
      "duration": 0.15,
      "velocity": 0.71,
      "hand": "left"
    },
    {
      "midi": 72,
      "time": 40.05,
      "duration": 0.15,
      "velocity": 0.91,
      "hand": "right"
    },
    {
      "midi": 81,
      "time": 40.05,
      "duration": 0.15,
      "velocity": 0.73,
      "hand": "right"
    },
    {
      "midi": 38,
      "time": 40.2,
      "duration": 0.3,
      "velocity": 1,
      "hand": "left"
    },
    {
      "midi": 50,
      "time": 40.2,
      "duration": 0.6,
      "velocity": 0.87,
      "hand": "left"
    },
    {
      "midi": 51,
      "time": 40.2,
      "duration": 0.15,
      "velocity": 0.63,
      "hand": "left"
    },
    {
      "midi": 62,
      "time": 40.2,
      "duration": 0.075,
      "velocity": 0.71,
      "hand": "right"
    },
    {
      "midi": 62,
      "time": 40.2,
      "duration": 0.15,
      "velocity": 1,
      "hand": "right"
    },
    {
      "midi": 66,
      "time": 40.2,
      "duration": 0.15,
      "velocity": 1,
      "hand": "right"
    },
    {
      "midi": 66,
      "time": 40.2,
      "duration": 0.075,
      "velocity": 1,
      "hand": "right"
    },
    {
      "midi": 72,
      "time": 40.2,
      "duration": 0.15,
      "velocity": 1,
      "hand": "right"
    },
    {
      "midi": 74,
      "time": 40.2,
      "duration": 0.15,
      "velocity": 1,
      "hand": "right"
    },
    {
      "midi": 86,
      "time": 40.2,
      "duration": 0.15,
      "velocity": 0.91,
      "hand": "right"
    },
    {
      "midi": 42,
      "time": 40.5,
      "duration": 0.3,
      "velocity": 0.63,
      "hand": "left"
    },
    {
      "midi": 46,
      "time": 40.5,
      "duration": 0.075,
      "velocity": 0.63,
      "hand": "left"
    },
    {
      "midi": 54,
      "time": 40.5,
      "duration": 0.15,
      "velocity": 1,
      "hand": "left"
    },
    {
      "midi": 62,
      "time": 40.5,
      "duration": 0.3,
      "velocity": 0.71,
      "hand": "right"
    },
    {
      "midi": 66,
      "time": 40.5,
      "duration": 0.075,
      "velocity": 1,
      "hand": "right"
    },
    {
      "midi": 72,
      "time": 40.5,
      "duration": 0.15,
      "velocity": 1,
      "hand": "right"
    },
    {
      "midi": 74,
      "time": 40.5,
      "duration": 0.15,
      "velocity": 1,
      "hand": "right"
    },
    {
      "midi": 86,
      "time": 40.5,
      "duration": 0.3,
      "velocity": 0.92,
      "hand": "right"
    },
    {
      "midi": 71,
      "time": 40.65,
      "duration": 0.15,
      "velocity": 0.61,
      "hand": "right"
    },
    {
      "midi": 79,
      "time": 40.65,
      "duration": 0.075,
      "velocity": 0.84,
      "hand": "right"
    },
    {
      "midi": 38,
      "time": 40.8,
      "duration": 0.3,
      "velocity": 0.63,
      "hand": "left"
    },
    {
      "midi": 43,
      "time": 40.8,
      "duration": 0.3,
      "velocity": 1,
      "hand": "left"
    },
    {
      "midi": 44,
      "time": 40.8,
      "duration": 0.15,
      "velocity": 0.63,
      "hand": "left"
    },
    {
      "midi": 51,
      "time": 40.8,
      "duration": 0.075,
      "velocity": 0.63,
      "hand": "left"
    },
    {
      "midi": 55,
      "time": 40.8,
      "duration": 0.15,
      "velocity": 0.71,
      "hand": "left"
    },
    {
      "midi": 55,
      "time": 40.8,
      "duration": 0.45,
      "velocity": 1,
      "hand": "left"
    },
    {
      "midi": 55,
      "time": 40.8,
      "duration": 0.3,
      "velocity": 1,
      "hand": "left"
    },
    {
      "midi": 55,
      "time": 40.8,
      "duration": 0.15,
      "velocity": 1,
      "hand": "left"
    },
    {
      "midi": 67,
      "time": 40.8,
      "duration": 0.075,
      "velocity": 1,
      "hand": "right"
    },
    {
      "midi": 71,
      "time": 40.8,
      "duration": 0.075,
      "velocity": 1,
      "hand": "right"
    },
    {
      "midi": 74,
      "time": 40.8,
      "duration": 0.15,
      "velocity": 1,
      "hand": "right"
    },
    {
      "midi": 42,
      "time": 41.1,
      "duration": 0.075,
      "velocity": 0.63,
      "hand": "left"
    },
    {
      "midi": 46,
      "time": 41.1,
      "duration": 0.075,
      "velocity": 0.63,
      "hand": "left"
    },
    {
      "midi": 55,
      "time": 41.1,
      "duration": 0.15,
      "velocity": 1,
      "hand": "left"
    },
    {
      "midi": 62,
      "time": 41.1,
      "duration": 0.075,
      "velocity": 0.63,
      "hand": "right"
    },
    {
      "midi": 67,
      "time": 41.1,
      "duration": 0.075,
      "velocity": 1,
      "hand": "right"
    },
    {
      "midi": 71,
      "time": 41.1,
      "duration": 0.075,
      "velocity": 1,
      "hand": "right"
    },
    {
      "midi": 74,
      "time": 41.1,
      "duration": 0.075,
      "velocity": 1,
      "hand": "right"
    },
    {
      "midi": 74,
      "time": 41.1,
      "duration": 0.15,
      "velocity": 0.89,
      "hand": "right"
    },
    {
      "midi": 86,
      "time": 41.1,
      "duration": 0.075,
      "velocity": 0.63,
      "hand": "right"
    },
    {
      "midi": 86,
      "time": 41.1,
      "duration": 0.15,
      "velocity": 0.89,
      "hand": "right"
    },
    {
      "midi": 62,
      "time": 41.25,
      "duration": 0.15,
      "velocity": 0.63,
      "hand": "right"
    },
    {
      "midi": 67,
      "time": 41.25,
      "duration": 0.15,
      "velocity": 0.79,
      "hand": "right"
    },
    {
      "midi": 71,
      "time": 41.25,
      "duration": 0.15,
      "velocity": 0.85,
      "hand": "right"
    },
    {
      "midi": 74,
      "time": 41.25,
      "duration": 0.15,
      "velocity": 0.89,
      "hand": "right"
    },
    {
      "midi": 86,
      "time": 41.25,
      "duration": 0.15,
      "velocity": 0.63,
      "hand": "right"
    },
    {
      "midi": 38,
      "time": 41.4,
      "duration": 0.45,
      "velocity": 0.63,
      "hand": "left"
    },
    {
      "midi": 40,
      "time": 41.4,
      "duration": 0.3,
      "velocity": 1,
      "hand": "left"
    },
    {
      "midi": 42,
      "time": 41.4,
      "duration": 0.15,
      "velocity": 0.63,
      "hand": "left"
    },
    {
      "midi": 44,
      "time": 41.4,
      "duration": 0.075,
      "velocity": 0.63,
      "hand": "left"
    },
    {
      "midi": 52,
      "time": 41.4,
      "duration": 0.6,
      "velocity": 1,
      "hand": "left"
    },
    {
      "midi": 64,
      "time": 41.4,
      "duration": 0.15,
      "velocity": 0.63,
      "hand": "right"
    },
    {
      "midi": 68,
      "time": 41.4,
      "duration": 0.15,
      "velocity": 0.96,
      "hand": "right"
    },
    {
      "midi": 71,
      "time": 41.4,
      "duration": 0.075,
      "velocity": 0.97,
      "hand": "right"
    },
    {
      "midi": 72,
      "time": 41.4,
      "duration": 0.075,
      "velocity": 0.74,
      "hand": "right"
    },
    {
      "midi": 76,
      "time": 41.4,
      "duration": 0.075,
      "velocity": 1,
      "hand": "right"
    },
    {
      "midi": 76,
      "time": 41.4,
      "duration": 0.3,
      "velocity": 0.99,
      "hand": "right"
    },
    {
      "midi": 88,
      "time": 41.4,
      "duration": 0.15,
      "velocity": 0.63,
      "hand": "right"
    },
    {
      "midi": 88,
      "time": 41.4,
      "duration": 0.3,
      "velocity": 0.99,
      "hand": "right"
    },
    {
      "midi": 62,
      "time": 41.55,
      "duration": 0.075,
      "velocity": 0.63,
      "hand": "right"
    },
    {
      "midi": 64,
      "time": 41.55,
      "duration": 0.15,
      "velocity": 0.63,
      "hand": "right"
    },
    {
      "midi": 86,
      "time": 41.55,
      "duration": 0.15,
      "velocity": 0.63,
      "hand": "right"
    },
    {
      "midi": 42,
      "time": 41.7,
      "duration": 0.15,
      "velocity": 0.63,
      "hand": "left"
    },
    {
      "midi": 46,
      "time": 41.7,
      "duration": 0.15,
      "velocity": 0.63,
      "hand": "left"
    },
    {
      "midi": 56,
      "time": 41.7,
      "duration": 0.15,
      "velocity": 0.76,
      "hand": "left"
    },
    {
      "midi": 62,
      "time": 41.7,
      "duration": 0.3,
      "velocity": 0.63,
      "hand": "right"
    },
    {
      "midi": 68,
      "time": 41.7,
      "duration": 0.15,
      "velocity": 1,
      "hand": "right"
    },
    {
      "midi": 70,
      "time": 41.7,
      "duration": 0.075,
      "velocity": 1,
      "hand": "right"
    },
    {
      "midi": 71,
      "time": 41.7,
      "duration": 0.075,
      "velocity": 1,
      "hand": "right"
    },
    {
      "midi": 74,
      "time": 41.7,
      "duration": 0.3,
      "velocity": 0.99,
      "hand": "right"
    },
    {
      "midi": 76,
      "time": 41.7,
      "duration": 0.075,
      "velocity": 1,
      "hand": "right"
    },
    {
      "midi": 86,
      "time": 41.7,
      "duration": 0.3,
      "velocity": 0.99,
      "hand": "right"
    },
    {
      "midi": 72,
      "time": 41.85,
      "duration": 0.15,
      "velocity": 1,
      "hand": "right"
    },
    {
      "midi": 84,
      "time": 41.85,
      "duration": 0.3,
      "velocity": 0.63,
      "hand": "right"
    },
    {
      "midi": 84,
      "time": 41.85,
      "duration": 0.15,
      "velocity": 1,
      "hand": "right"
    },
    {
      "midi": 38,
      "time": 42,
      "duration": 0.075,
      "velocity": 0.63,
      "hand": "left"
    },
    {
      "midi": 42,
      "time": 42,
      "duration": 0.15,
      "velocity": 0.63,
      "hand": "left"
    },
    {
      "midi": 44,
      "time": 42,
      "duration": 0.075,
      "velocity": 0.63,
      "hand": "left"
    },
    {
      "midi": 45,
      "time": 42,
      "duration": 0.15,
      "velocity": 1,
      "hand": "left"
    },
    {
      "midi": 51,
      "time": 42,
      "duration": 0.075,
      "velocity": 0.63,
      "hand": "left"
    },
    {
      "midi": 57,
      "time": 42,
      "duration": 0.15,
      "velocity": 0.99,
      "hand": "left"
    },
    {
      "midi": 60,
      "time": 42,
      "duration": 0.3,
      "velocity": 0.63,
      "hand": "right"
    },
    {
      "midi": 69,
      "time": 42,
      "duration": 0.15,
      "velocity": 1,
      "hand": "right"
    },
    {
      "midi": 72,
      "time": 42,
      "duration": 0.075,
      "velocity": 1,
      "hand": "right"
    },
    {
      "midi": 72,
      "time": 42,
      "duration": 0.15,
      "velocity": 0.87,
      "hand": "right"
    },
    {
      "midi": 76,
      "time": 42,
      "duration": 0.075,
      "velocity": 1,
      "hand": "right"
    },
    {
      "midi": 69,
      "time": 42.15,
      "duration": 0.075,
      "velocity": 0.99,
      "hand": "right"
    },
    {
      "midi": 72,
      "time": 42.15,
      "duration": 0.075,
      "velocity": 1,
      "hand": "right"
    },
    {
      "midi": 44,
      "time": 42.3,
      "duration": 0.075,
      "velocity": 0.63,
      "hand": "left"
    },
    {
      "midi": 46,
      "time": 42.3,
      "duration": 0.075,
      "velocity": 0.63,
      "hand": "left"
    },
    {
      "midi": 55,
      "time": 42.3,
      "duration": 0.15,
      "velocity": 0.99,
      "hand": "left"
    },
    {
      "midi": 57,
      "time": 42.3,
      "duration": 0.15,
      "velocity": 0.63,
      "hand": "left"
    },
    {
      "midi": 69,
      "time": 42.3,
      "duration": 0.075,
      "velocity": 0.77,
      "hand": "right"
    },
    {
      "midi": 72,
      "time": 42.3,
      "duration": 0.075,
      "velocity": 1,
      "hand": "right"
    },
    {
      "midi": 72,
      "time": 42.3,
      "duration": 0.15,
      "velocity": 1,
      "hand": "right"
    },
    {
      "midi": 76,
      "time": 42.3,
      "duration": 0.075,
      "velocity": 0.83,
      "hand": "right"
    },
    {
      "midi": 81,
      "time": 42.3,
      "duration": 0.15,
      "velocity": 0.63,
      "hand": "right"
    },
    {
      "midi": 84,
      "time": 42.3,
      "duration": 0.15,
      "velocity": 1,
      "hand": "right"
    },
    {
      "midi": 44,
      "time": 42.45,
      "duration": 0.15,
      "velocity": 0.63,
      "hand": "left"
    },
    {
      "midi": 46,
      "time": 42.45,
      "duration": 0.075,
      "velocity": 0.63,
      "hand": "left"
    },
    {
      "midi": 57,
      "time": 42.45,
      "duration": 0.15,
      "velocity": 0.63,
      "hand": "left"
    },
    {
      "midi": 69,
      "time": 42.45,
      "duration": 0.075,
      "velocity": 0.94,
      "hand": "right"
    },
    {
      "midi": 69,
      "time": 42.45,
      "duration": 0.15,
      "velocity": 0.94,
      "hand": "right"
    },
    {
      "midi": 74,
      "time": 42.45,
      "duration": 0.075,
      "velocity": 1,
      "hand": "right"
    },
    {
      "midi": 74,
      "time": 42.45,
      "duration": 0.3,
      "velocity": 1,
      "hand": "right"
    },
    {
      "midi": 78,
      "time": 42.45,
      "duration": 0.075,
      "velocity": 1,
      "hand": "right"
    },
    {
      "midi": 81,
      "time": 42.45,
      "duration": 0.15,
      "velocity": 0.63,
      "hand": "right"
    },
    {
      "midi": 38,
      "time": 42.6,
      "duration": 0.3,
      "velocity": 1,
      "hand": "left"
    },
    {
      "midi": 38,
      "time": 42.6,
      "duration": 0.15,
      "velocity": 0.63,
      "hand": "left"
    },
    {
      "midi": 42,
      "time": 42.6,
      "duration": 0.15,
      "velocity": 0.63,
      "hand": "left"
    },
    {
      "midi": 54,
      "time": 42.6,
      "duration": 0.6,
      "velocity": 0.91,
      "hand": "left"
    },
    {
      "midi": 62,
      "time": 42.6,
      "duration": 0.3,
      "velocity": 0.63,
      "hand": "right"
    },
    {
      "midi": 74,
      "time": 42.6,
      "duration": 0.075,
      "velocity": 0.97,
      "hand": "right"
    },
    {
      "midi": 86,
      "time": 42.6,
      "duration": 0.075,
      "velocity": 0.63,
      "hand": "right"
    },
    {
      "midi": 72,
      "time": 42.75,
      "duration": 0.3,
      "velocity": 1,
      "hand": "right"
    },
    {
      "midi": 38,
      "time": 42.9,
      "duration": 0.15,
      "velocity": 0.63,
      "hand": "left"
    },
    {
      "midi": 42,
      "time": 42.9,
      "duration": 0.15,
      "velocity": 0.63,
      "hand": "left"
    },
    {
      "midi": 46,
      "time": 42.9,
      "duration": 0.075,
      "velocity": 0.63,
      "hand": "left"
    },
    {
      "midi": 54,
      "time": 42.9,
      "duration": 0.15,
      "velocity": 1,
      "hand": "left"
    },
    {
      "midi": 60,
      "time": 42.9,
      "duration": 0.3,
      "velocity": 0.63,
      "hand": "right"
    },
    {
      "midi": 69,
      "time": 42.9,
      "duration": 0.075,
      "velocity": 1,
      "hand": "right"
    },
    {
      "midi": 74,
      "time": 42.9,
      "duration": 0.075,
      "velocity": 1,
      "hand": "right"
    },
    {
      "midi": 74,
      "time": 42.9,
      "duration": 0.15,
      "velocity": 1,
      "hand": "right"
    },
    {
      "midi": 78,
      "time": 42.9,
      "duration": 0.075,
      "velocity": 1,
      "hand": "right"
    },
    {
      "midi": 84,
      "time": 42.9,
      "duration": 0.15,
      "velocity": 0.63,
      "hand": "right"
    },
    {
      "midi": 86,
      "time": 42.9,
      "duration": 0.15,
      "velocity": 1,
      "hand": "right"
    },
    {
      "midi": 72,
      "time": 43.05,
      "duration": 0.15,
      "velocity": 0.94,
      "hand": "right"
    },
    {
      "midi": 84,
      "time": 43.05,
      "duration": 0.15,
      "velocity": 0.94,
      "hand": "right"
    },
    {
      "midi": 38,
      "time": 43.2,
      "duration": 0.075,
      "velocity": 0.63,
      "hand": "left"
    },
    {
      "midi": 42,
      "time": 43.2,
      "duration": 0.075,
      "velocity": 0.63,
      "hand": "left"
    },
    {
      "midi": 43,
      "time": 43.2,
      "duration": 0.3,
      "velocity": 1,
      "hand": "left"
    },
    {
      "midi": 44,
      "time": 43.2,
      "duration": 0.15,
      "velocity": 0.63,
      "hand": "left"
    },
    {
      "midi": 51,
      "time": 43.2,
      "duration": 0.075,
      "velocity": 0.63,
      "hand": "left"
    },
    {
      "midi": 55,
      "time": 43.2,
      "duration": 0.3,
      "velocity": 0.92,
      "hand": "left"
    },
    {
      "midi": 59,
      "time": 43.2,
      "duration": 0.15,
      "velocity": 0.63,
      "hand": "left"
    },
    {
      "midi": 71,
      "time": 43.2,
      "duration": 0.075,
      "velocity": 1,
      "hand": "right"
    },
    {
      "midi": 71,
      "time": 43.2,
      "duration": 0.15,
      "velocity": 1,
      "hand": "right"
    },
    {
      "midi": 74,
      "time": 43.2,
      "duration": 0.15,
      "velocity": 1,
      "hand": "right"
    },
    {
      "midi": 77,
      "time": 43.2,
      "duration": 0.075,
      "velocity": 0.76,
      "hand": "right"
    },
    {
      "midi": 79,
      "time": 43.2,
      "duration": 0.15,
      "velocity": 1,
      "hand": "right"
    },
    {
      "midi": 83,
      "time": 43.2,
      "duration": 0.15,
      "velocity": 0.63,
      "hand": "right"
    },
    {
      "midi": 83,
      "time": 43.2,
      "duration": 0.075,
      "velocity": 0.99,
      "hand": "right"
    },
    {
      "midi": 44,
      "time": 43.5,
      "duration": 0.075,
      "velocity": 0.63,
      "hand": "left"
    },
    {
      "midi": 46,
      "time": 43.5,
      "duration": 0.075,
      "velocity": 0.63,
      "hand": "left"
    },
    {
      "midi": 55,
      "time": 43.5,
      "duration": 0.15,
      "velocity": 1,
      "hand": "left"
    },
    {
      "midi": 59,
      "time": 43.5,
      "duration": 0.075,
      "velocity": 0.63,
      "hand": "left"
    },
    {
      "midi": 71,
      "time": 43.5,
      "duration": 0.075,
      "velocity": 1,
      "hand": "right"
    },
    {
      "midi": 71,
      "time": 43.5,
      "duration": 0.15,
      "velocity": 1,
      "hand": "right"
    },
    {
      "midi": 74,
      "time": 43.5,
      "duration": 0.075,
      "velocity": 1,
      "hand": "right"
    },
    {
      "midi": 79,
      "time": 43.5,
      "duration": 0.075,
      "velocity": 0.99,
      "hand": "right"
    },
    {
      "midi": 79,
      "time": 43.5,
      "duration": 0.15,
      "velocity": 0.65,
      "hand": "right"
    },
    {
      "midi": 83,
      "time": 43.5,
      "duration": 0.15,
      "velocity": 0.63,
      "hand": "right"
    },
    {
      "midi": 44,
      "time": 43.65,
      "duration": 0.075,
      "velocity": 0.63,
      "hand": "left"
    },
    {
      "midi": 46,
      "time": 43.65,
      "duration": 0.075,
      "velocity": 0.63,
      "hand": "left"
    },
    {
      "midi": 55,
      "time": 43.65,
      "duration": 0.15,
      "velocity": 0.63,
      "hand": "left"
    },
    {
      "midi": 67,
      "time": 43.65,
      "duration": 0.15,
      "velocity": 0.83,
      "hand": "right"
    },
    {
      "midi": 71,
      "time": 43.65,
      "duration": 0.075,
      "velocity": 0.65,
      "hand": "right"
    },
    {
      "midi": 71,
      "time": 43.65,
      "duration": 0.15,
      "velocity": 0.99,
      "hand": "right"
    },
    {
      "midi": 74,
      "time": 43.65,
      "duration": 0.075,
      "velocity": 0.76,
      "hand": "right"
    },
    {
      "midi": 79,
      "time": 43.65,
      "duration": 0.15,
      "velocity": 0.63,
      "hand": "right"
    },
    {
      "midi": 38,
      "time": 43.8,
      "duration": 0.15,
      "velocity": 0.63,
      "hand": "left"
    },
    {
      "midi": 40,
      "time": 43.8,
      "duration": 0.3,
      "velocity": 1,
      "hand": "left"
    },
    {
      "midi": 42,
      "time": 43.8,
      "duration": 0.15,
      "velocity": 0.63,
      "hand": "left"
    },
    {
      "midi": 52,
      "time": 43.8,
      "duration": 0.3,
      "velocity": 1,
      "hand": "left"
    },
    {
      "midi": 64,
      "time": 43.8,
      "duration": 0.15,
      "velocity": 0.63,
      "hand": "right"
    },
    {
      "midi": 68,
      "time": 43.8,
      "duration": 0.075,
      "velocity": 1,
      "hand": "right"
    },
    {
      "midi": 72,
      "time": 43.8,
      "duration": 0.075,
      "velocity": 1,
      "hand": "right"
    },
    {
      "midi": 76,
      "time": 43.8,
      "duration": 0.15,
      "velocity": 1,
      "hand": "right"
    },
    {
      "midi": 80,
      "time": 43.8,
      "duration": 0.15,
      "velocity": 1,
      "hand": "right"
    },
    {
      "midi": 84,
      "time": 43.8,
      "duration": 0.075,
      "velocity": 0.63,
      "hand": "right"
    },
    {
      "midi": 38,
      "time": 44.1,
      "duration": 0.075,
      "velocity": 0.63,
      "hand": "left"
    },
    {
      "midi": 42,
      "time": 44.1,
      "duration": 0.15,
      "velocity": 0.63,
      "hand": "left"
    },
    {
      "midi": 46,
      "time": 44.1,
      "duration": 0.075,
      "velocity": 0.63,
      "hand": "left"
    },
    {
      "midi": 50,
      "time": 44.1,
      "duration": 0.45,
      "velocity": 0.94,
      "hand": "left"
    },
    {
      "midi": 56,
      "time": 44.1,
      "duration": 0.15,
      "velocity": 1,
      "hand": "left"
    },
    {
      "midi": 63,
      "time": 44.1,
      "duration": 0.075,
      "velocity": 0.63,
      "hand": "right"
    },
    {
      "midi": 64,
      "time": 44.1,
      "duration": 0.15,
      "velocity": 0.63,
      "hand": "right"
    },
    {
      "midi": 68,
      "time": 44.1,
      "duration": 0.3,
      "velocity": 1,
      "hand": "right"
    },
    {
      "midi": 71,
      "time": 44.1,
      "duration": 0.075,
      "velocity": 1,
      "hand": "right"
    },
    {
      "midi": 72,
      "time": 44.1,
      "duration": 0.15,
      "velocity": 1,
      "hand": "right"
    },
    {
      "midi": 76,
      "time": 44.1,
      "duration": 0.15,
      "velocity": 1,
      "hand": "right"
    },
    {
      "midi": 80,
      "time": 44.1,
      "duration": 0.15,
      "velocity": 1,
      "hand": "right"
    },
    {
      "midi": 84,
      "time": 44.1,
      "duration": 0.15,
      "velocity": 0.63,
      "hand": "right"
    },
    {
      "midi": 62,
      "time": 44.25,
      "duration": 0.15,
      "velocity": 0.63,
      "hand": "right"
    },
    {
      "midi": 71,
      "time": 44.25,
      "duration": 0.15,
      "velocity": 0.87,
      "hand": "right"
    },
    {
      "midi": 83,
      "time": 44.25,
      "duration": 0.15,
      "velocity": 0.63,
      "hand": "right"
    },
    {
      "midi": 38,
      "time": 44.4,
      "duration": 0.075,
      "velocity": 0.63,
      "hand": "left"
    },
    {
      "midi": 42,
      "time": 44.4,
      "duration": 0.075,
      "velocity": 0.63,
      "hand": "left"
    },
    {
      "midi": 44,
      "time": 44.4,
      "duration": 0.075,
      "velocity": 0.63,
      "hand": "left"
    },
    {
      "midi": 45,
      "time": 44.4,
      "duration": 0.15,
      "velocity": 1,
      "hand": "left"
    },
    {
      "midi": 48,
      "time": 44.4,
      "duration": 0.45,
      "velocity": 1,
      "hand": "left"
    },
    {
      "midi": 51,
      "time": 44.4,
      "duration": 0.075,
      "velocity": 0.63,
      "hand": "left"
    },
    {
      "midi": 60,
      "time": 44.4,
      "duration": 0.075,
      "velocity": 0.63,
      "hand": "right"
    },
    {
      "midi": 69,
      "time": 44.4,
      "duration": 0.075,
      "velocity": 0.99,
      "hand": "right"
    },
    {
      "midi": 69,
      "time": 44.4,
      "duration": 0.15,
      "velocity": 0.92,
      "hand": "right"
    },
    {
      "midi": 72,
      "time": 44.4,
      "duration": 0.075,
      "velocity": 1,
      "hand": "right"
    },
    {
      "midi": 76,
      "time": 44.4,
      "duration": 0.075,
      "velocity": 1,
      "hand": "right"
    },
    {
      "midi": 81,
      "time": 44.4,
      "duration": 0.15,
      "velocity": 0.63,
      "hand": "right"
    },
    {
      "midi": 44,
      "time": 44.7,
      "duration": 0.075,
      "velocity": 0.63,
      "hand": "left"
    },
    {
      "midi": 46,
      "time": 44.7,
      "duration": 0.075,
      "velocity": 0.63,
      "hand": "left"
    },
    {
      "midi": 57,
      "time": 44.7,
      "duration": 0.15,
      "velocity": 1,
      "hand": "left"
    },
    {
      "midi": 60,
      "time": 44.7,
      "duration": 0.075,
      "velocity": 0.63,
      "hand": "right"
    },
    {
      "midi": 60,
      "time": 44.7,
      "duration": 0.15,
      "velocity": 0.63,
      "hand": "right"
    },
    {
      "midi": 69,
      "time": 44.7,
      "duration": 0.075,
      "velocity": 0.97,
      "hand": "right"
    },
    {
      "midi": 72,
      "time": 44.7,
      "duration": 0.075,
      "velocity": 1,
      "hand": "right"
    },
    {
      "midi": 76,
      "time": 44.7,
      "duration": 0.075,
      "velocity": 0.99,
      "hand": "right"
    },
    {
      "midi": 81,
      "time": 44.7,
      "duration": 0.075,
      "velocity": 0.63,
      "hand": "right"
    },
    {
      "midi": 44,
      "time": 44.85,
      "duration": 0.075,
      "velocity": 0.63,
      "hand": "left"
    },
    {
      "midi": 46,
      "time": 44.85,
      "duration": 0.075,
      "velocity": 0.63,
      "hand": "left"
    },
    {
      "midi": 69,
      "time": 44.85,
      "duration": 0.075,
      "velocity": 0.39,
      "hand": "right"
    },
    {
      "midi": 69,
      "time": 44.85,
      "duration": 0.15,
      "velocity": 0.85,
      "hand": "right"
    },
    {
      "midi": 72,
      "time": 44.85,
      "duration": 0.15,
      "velocity": 0.79,
      "hand": "right"
    },
    {
      "midi": 74,
      "time": 44.85,
      "duration": 0.075,
      "velocity": 0.76,
      "hand": "right"
    },
    {
      "midi": 76,
      "time": 44.85,
      "duration": 0.075,
      "velocity": 0.57,
      "hand": "right"
    },
    {
      "midi": 81,
      "time": 44.85,
      "duration": 0.15,
      "velocity": 0.63,
      "hand": "right"
    },
    {
      "midi": 38,
      "time": 45,
      "duration": 0.3,
      "velocity": 1,
      "hand": "left"
    },
    {
      "midi": 42,
      "time": 45,
      "duration": 0.3,
      "velocity": 0.63,
      "hand": "left"
    },
    {
      "midi": 46,
      "time": 45,
      "duration": 0.075,
      "velocity": 0.63,
      "hand": "left"
    },
    {
      "midi": 50,
      "time": 45,
      "duration": 0.6,
      "velocity": 1,
      "hand": "left"
    },
    {
      "midi": 51,
      "time": 45,
      "duration": 0.15,
      "velocity": 0.63,
      "hand": "left"
    },
    {
      "midi": 66,
      "time": 45,
      "duration": 0.15,
      "velocity": 1,
      "hand": "right"
    },
    {
      "midi": 72,
      "time": 45,
      "duration": 0.15,
      "velocity": 1,
      "hand": "right"
    },
    {
      "midi": 74,
      "time": 45,
      "duration": 0.075,
      "velocity": 1,
      "hand": "right"
    },
    {
      "midi": 74,
      "time": 45,
      "duration": 0.15,
      "velocity": 1,
      "hand": "right"
    },
    {
      "midi": 86,
      "time": 45,
      "duration": 0.15,
      "velocity": 0.63,
      "hand": "right"
    },
    {
      "midi": 86,
      "time": 45,
      "duration": 0.075,
      "velocity": 1,
      "hand": "right"
    },
    {
      "midi": 46,
      "time": 45.3,
      "duration": 0.075,
      "velocity": 0.63,
      "hand": "left"
    },
    {
      "midi": 54,
      "time": 45.3,
      "duration": 0.15,
      "velocity": 0.93,
      "hand": "left"
    },
    {
      "midi": 62,
      "time": 45.3,
      "duration": 0.3,
      "velocity": 0.63,
      "hand": "right"
    },
    {
      "midi": 66,
      "time": 45.3,
      "duration": 0.15,
      "velocity": 1,
      "hand": "right"
    },
    {
      "midi": 72,
      "time": 45.3,
      "duration": 0.075,
      "velocity": 1,
      "hand": "right"
    },
    {
      "midi": 74,
      "time": 45.3,
      "duration": 0.075,
      "velocity": 1,
      "hand": "right"
    },
    {
      "midi": 74,
      "time": 45.3,
      "duration": 0.3,
      "velocity": 1,
      "hand": "right"
    },
    {
      "midi": 74,
      "time": 45.3,
      "duration": 0.15,
      "velocity": 1,
      "hand": "right"
    },
    {
      "midi": 86,
      "time": 45.3,
      "duration": 0.15,
      "velocity": 0.63,
      "hand": "right"
    },
    {
      "midi": 86,
      "time": 45.3,
      "duration": 0.3,
      "velocity": 1,
      "hand": "right"
    },
    {
      "midi": 67,
      "time": 45.45,
      "duration": 0.15,
      "velocity": 1,
      "hand": "right"
    },
    {
      "midi": 38,
      "time": 45.6,
      "duration": 0.075,
      "velocity": 0.63,
      "hand": "left"
    },
    {
      "midi": 42,
      "time": 45.6,
      "duration": 0.075,
      "velocity": 0.63,
      "hand": "left"
    },
    {
      "midi": 43,
      "time": 45.6,
      "duration": 0.15,
      "velocity": 1,
      "hand": "left"
    },
    {
      "midi": 44,
      "time": 45.6,
      "duration": 0.075,
      "velocity": 0.63,
      "hand": "left"
    },
    {
      "midi": 46,
      "time": 45.6,
      "duration": 0.075,
      "velocity": 0.63,
      "hand": "left"
    },
    {
      "midi": 51,
      "time": 45.6,
      "duration": 0.15,
      "velocity": 0.63,
      "hand": "left"
    },
    {
      "midi": 55,
      "time": 45.6,
      "duration": 0.075,
      "velocity": 1,
      "hand": "left"
    },
    {
      "midi": 55,
      "time": 45.6,
      "duration": 0.6,
      "velocity": 0.97,
      "hand": "left"
    },
    {
      "midi": 67,
      "time": 45.6,
      "duration": 0.15,
      "velocity": 1,
      "hand": "right"
    },
    {
      "midi": 67,
      "time": 45.6,
      "duration": 1.95,
      "velocity": 0.63,
      "hand": "right"
    },
    {
      "midi": 69,
      "time": 45.6,
      "duration": 0.15,
      "velocity": 0.83,
      "hand": "right"
    },
    {
      "midi": 71,
      "time": 45.6,
      "duration": 0.3,
      "velocity": 1,
      "hand": "right"
    },
    {
      "midi": 74,
      "time": 45.6,
      "duration": 1.35,
      "velocity": 1,
      "hand": "right"
    },
    {
      "midi": 79,
      "time": 45.6,
      "duration": 1.35,
      "velocity": 0.63,
      "hand": "right"
    },
    {
      "midi": 79,
      "time": 45.6,
      "duration": 1.95,
      "velocity": 1,
      "hand": "right"
    },
    {
      "midi": 67,
      "time": 45.9,
      "duration": 0.075,
      "velocity": 0.79,
      "hand": "right"
    },
    {
      "midi": 38,
      "time": 46.2,
      "duration": 0.3,
      "velocity": 1,
      "hand": "left"
    },
    {
      "midi": 38,
      "time": 46.2,
      "duration": 0.15,
      "velocity": 0.63,
      "hand": "left"
    },
    {
      "midi": 42,
      "time": 46.2,
      "duration": 0.15,
      "velocity": 0.63,
      "hand": "left"
    },
    {
      "midi": 44,
      "time": 46.2,
      "duration": 0.15,
      "velocity": 0.63,
      "hand": "left"
    },
    {
      "midi": 46,
      "time": 46.2,
      "duration": 0.15,
      "velocity": 0.63,
      "hand": "left"
    },
    {
      "midi": 50,
      "time": 46.2,
      "duration": 0.6,
      "velocity": 1,
      "hand": "left"
    },
    {
      "midi": 50,
      "time": 46.2,
      "duration": 0.45,
      "velocity": 0.81,
      "hand": "left"
    },
    {
      "midi": 67,
      "time": 46.2,
      "duration": 0.075,
      "velocity": 0.89,
      "hand": "right"
    },
    {
      "midi": 71,
      "time": 46.2,
      "duration": 0.075,
      "velocity": 0.85,
      "hand": "right"
    },
    {
      "midi": 67,
      "time": 46.5,
      "duration": 0.075,
      "velocity": 0.79,
      "hand": "right"
    },
    {
      "midi": 71,
      "time": 46.5,
      "duration": 0.075,
      "velocity": 0.72,
      "hand": "right"
    },
    {
      "midi": 42,
      "time": 46.65,
      "duration": 0.075,
      "velocity": 0.63,
      "hand": "left"
    },
    {
      "midi": 50,
      "time": 46.65,
      "duration": 0.075,
      "velocity": 0.89,
      "hand": "left"
    },
    {
      "midi": 38,
      "time": 46.8,
      "duration": 0.15,
      "velocity": 0.63,
      "hand": "left"
    },
    {
      "midi": 42,
      "time": 46.8,
      "duration": 0.15,
      "velocity": 0.63,
      "hand": "left"
    },
    {
      "midi": 43,
      "time": 46.8,
      "duration": 0.3,
      "velocity": 1,
      "hand": "left"
    },
    {
      "midi": 43,
      "time": 46.8,
      "duration": 0.6,
      "velocity": 0.99,
      "hand": "left"
    },
    {
      "midi": 44,
      "time": 46.8,
      "duration": 0.075,
      "velocity": 0.63,
      "hand": "left"
    },
    {
      "midi": 46,
      "time": 46.8,
      "duration": 0.075,
      "velocity": 0.63,
      "hand": "left"
    },
    {
      "midi": 51,
      "time": 46.8,
      "duration": 0.075,
      "velocity": 0.63,
      "hand": "left"
    },
    {
      "midi": 55,
      "time": 46.8,
      "duration": 0.3,
      "velocity": 1,
      "hand": "left"
    },
    {
      "midi": 67,
      "time": 46.8,
      "duration": 0.15,
      "velocity": 1,
      "hand": "right"
    },
    {
      "midi": 71,
      "time": 46.8,
      "duration": 0.15,
      "velocity": 1,
      "hand": "right"
    },
    {
      "midi": 38,
      "time": 47.1,
      "duration": 0.15,
      "velocity": 1,
      "hand": "left"
    },
    {
      "midi": 38,
      "time": 47.1,
      "duration": 0.075,
      "velocity": 0.63,
      "hand": "left"
    },
    {
      "midi": 50,
      "time": 47.1,
      "duration": 0.15,
      "velocity": 1,
      "hand": "left"
    },
    {
      "midi": 38,
      "time": 47.25,
      "duration": 0.075,
      "velocity": 0.63,
      "hand": "left"
    },
    {
      "midi": 38,
      "time": 47.4,
      "duration": 0.075,
      "velocity": 0.63,
      "hand": "left"
    },
    {
      "midi": 40,
      "time": 47.4,
      "duration": 0.15,
      "velocity": 1,
      "hand": "left"
    },
    {
      "midi": 52,
      "time": 47.4,
      "duration": 0.15,
      "velocity": 1,
      "hand": "left"
    },
    {
      "midi": 38,
      "time": 47.7,
      "duration": 0.075,
      "velocity": 0.63,
      "hand": "left"
    },
    {
      "midi": 42,
      "time": 47.7,
      "duration": 0.15,
      "velocity": 1,
      "hand": "left"
    },
    {
      "midi": 54,
      "time": 47.7,
      "duration": 0.15,
      "velocity": 1,
      "hand": "left"
    },
    {
      "midi": 38,
      "time": 48,
      "duration": 0.75,
      "velocity": 0.63,
      "hand": "left"
    },
    {
      "midi": 43,
      "time": 48,
      "duration": 0.9,
      "velocity": 1,
      "hand": "left"
    },
    {
      "midi": 44,
      "time": 48,
      "duration": 0.075,
      "velocity": 0.63,
      "hand": "left"
    },
    {
      "midi": 51,
      "time": 48,
      "duration": 0.075,
      "velocity": 0.63,
      "hand": "left"
    },
    {
      "midi": 55,
      "time": 48,
      "duration": 0.9,
      "velocity": 1,
      "hand": "left"
    },
    {
      "midi": 62,
      "time": 48,
      "duration": 0.075,
      "velocity": 0.92,
      "hand": "right"
    },
    {
      "midi": 67,
      "time": 48,
      "duration": 0.075,
      "velocity": 0.99,
      "hand": "right"
    },
    {
      "midi": 71,
      "time": 48,
      "duration": 0.075,
      "velocity": 0.97,
      "hand": "right"
    },
    {
      "midi": 71,
      "time": 48,
      "duration": 0.9,
      "velocity": 0.91,
      "hand": "right"
    },
    {
      "midi": 44,
      "time": 48.3,
      "duration": 0.075,
      "velocity": 0.63,
      "hand": "left"
    },
    {
      "midi": 62,
      "time": 48.3,
      "duration": 0.15,
      "velocity": 0.89,
      "hand": "right"
    },
    {
      "midi": 67,
      "time": 48.3,
      "duration": 0.075,
      "velocity": 1,
      "hand": "right"
    },
    {
      "midi": 71,
      "time": 48.3,
      "duration": 0.075,
      "velocity": 0.92,
      "hand": "right"
    },
    {
      "midi": 44,
      "time": 48.45,
      "duration": 0.15,
      "velocity": 0.63,
      "hand": "left"
    },
    {
      "midi": 62,
      "time": 48.45,
      "duration": 0.075,
      "velocity": 0.67,
      "hand": "right"
    },
    {
      "midi": 67,
      "time": 48.45,
      "duration": 0.075,
      "velocity": 0.92,
      "hand": "right"
    },
    {
      "midi": 71,
      "time": 48.45,
      "duration": 0.075,
      "velocity": 0.73,
      "hand": "right"
    },
    {
      "midi": 44,
      "time": 48.6,
      "duration": 0.075,
      "velocity": 0.63,
      "hand": "left"
    },
    {
      "midi": 62,
      "time": 48.6,
      "duration": 0.075,
      "velocity": 0.92,
      "hand": "right"
    },
    {
      "midi": 67,
      "time": 48.6,
      "duration": 0.075,
      "velocity": 1,
      "hand": "right"
    },
    {
      "midi": 71,
      "time": 48.6,
      "duration": 0.15,
      "velocity": 1,
      "hand": "right"
    },
    {
      "midi": 38,
      "time": 48.9,
      "duration": 0.3,
      "velocity": 1,
      "hand": "left"
    },
    {
      "midi": 42,
      "time": 48.9,
      "duration": 0.3,
      "velocity": 0.63,
      "hand": "left"
    },
    {
      "midi": 46,
      "time": 48.9,
      "duration": 0.075,
      "velocity": 0.63,
      "hand": "left"
    },
    {
      "midi": 64,
      "time": 48.9,
      "duration": 0.075,
      "velocity": 0.89,
      "hand": "right"
    },
    {
      "midi": 67,
      "time": 48.9,
      "duration": 0.15,
      "velocity": 1,
      "hand": "right"
    },
    {
      "midi": 72,
      "time": 48.9,
      "duration": 0.15,
      "velocity": 1,
      "hand": "right"
    },
    {
      "midi": 72,
      "time": 48.9,
      "duration": 0.3,
      "velocity": 0.87,
      "hand": "right"
    },
    {
      "midi": 38,
      "time": 49.2,
      "duration": 1.05,
      "velocity": 0.63,
      "hand": "left"
    },
    {
      "midi": 43,
      "time": 49.2,
      "duration": 0.9,
      "velocity": 1,
      "hand": "left"
    },
    {
      "midi": 44,
      "time": 49.2,
      "duration": 0.075,
      "velocity": 0.63,
      "hand": "left"
    },
    {
      "midi": 62,
      "time": 49.2,
      "duration": 0.15,
      "velocity": 1,
      "hand": "right"
    },
    {
      "midi": 67,
      "time": 49.2,
      "duration": 0.15,
      "velocity": 1,
      "hand": "right"
    },
    {
      "midi": 71,
      "time": 49.2,
      "duration": 0.15,
      "velocity": 1,
      "hand": "right"
    },
    {
      "midi": 71,
      "time": 49.2,
      "duration": 0.9,
      "velocity": 0.93,
      "hand": "right"
    },
    {
      "midi": 44,
      "time": 49.5,
      "duration": 0.075,
      "velocity": 0.63,
      "hand": "left"
    },
    {
      "midi": 62,
      "time": 49.5,
      "duration": 0.15,
      "velocity": 0.97,
      "hand": "right"
    },
    {
      "midi": 67,
      "time": 49.5,
      "duration": 0.075,
      "velocity": 1,
      "hand": "right"
    },
    {
      "midi": 71,
      "time": 49.5,
      "duration": 0.075,
      "velocity": 0.97,
      "hand": "right"
    },
    {
      "midi": 44,
      "time": 49.65,
      "duration": 0.075,
      "velocity": 0.63,
      "hand": "left"
    },
    {
      "midi": 62,
      "time": 49.65,
      "duration": 0.075,
      "velocity": 0.68,
      "hand": "right"
    },
    {
      "midi": 67,
      "time": 49.65,
      "duration": 0.075,
      "velocity": 0.87,
      "hand": "right"
    },
    {
      "midi": 71,
      "time": 49.65,
      "duration": 0.075,
      "velocity": 0.83,
      "hand": "right"
    },
    {
      "midi": 44,
      "time": 49.8,
      "duration": 0.15,
      "velocity": 0.63,
      "hand": "left"
    },
    {
      "midi": 62,
      "time": 49.8,
      "duration": 0.15,
      "velocity": 0.79,
      "hand": "right"
    },
    {
      "midi": 67,
      "time": 49.8,
      "duration": 0.15,
      "velocity": 0.97,
      "hand": "right"
    },
    {
      "midi": 71,
      "time": 49.8,
      "duration": 0.15,
      "velocity": 0.89,
      "hand": "right"
    },
    {
      "midi": 38,
      "time": 50.1,
      "duration": 0.15,
      "velocity": 1,
      "hand": "left"
    },
    {
      "midi": 42,
      "time": 50.1,
      "duration": 0.15,
      "velocity": 0.63,
      "hand": "left"
    },
    {
      "midi": 46,
      "time": 50.1,
      "duration": 0.075,
      "velocity": 0.63,
      "hand": "left"
    },
    {
      "midi": 64,
      "time": 50.1,
      "duration": 0.075,
      "velocity": 1,
      "hand": "right"
    },
    {
      "midi": 67,
      "time": 50.1,
      "duration": 0.075,
      "velocity": 0.97,
      "hand": "right"
    },
    {
      "midi": 68,
      "time": 50.1,
      "duration": 0.075,
      "velocity": 0.94,
      "hand": "right"
    },
    {
      "midi": 72,
      "time": 50.1,
      "duration": 0.15,
      "velocity": 1,
      "hand": "right"
    },
    {
      "midi": 38,
      "time": 50.4,
      "duration": 0.3,
      "velocity": 0.63,
      "hand": "left"
    },
    {
      "midi": 43,
      "time": 50.4,
      "duration": 0.15,
      "velocity": 1,
      "hand": "left"
    },
    {
      "midi": 44,
      "time": 50.4,
      "duration": 0.075,
      "velocity": 0.63,
      "hand": "left"
    },
    {
      "midi": 62,
      "time": 50.4,
      "duration": 0.15,
      "velocity": 1,
      "hand": "right"
    },
    {
      "midi": 67,
      "time": 50.4,
      "duration": 0.15,
      "velocity": 0.97,
      "hand": "right"
    },
    {
      "midi": 71,
      "time": 50.4,
      "duration": 0.15,
      "velocity": 1,
      "hand": "right"
    },
    {
      "midi": 71,
      "time": 50.4,
      "duration": 0.075,
      "velocity": 1,
      "hand": "right"
    },
    {
      "midi": 38,
      "time": 50.7,
      "duration": 0.15,
      "velocity": 1,
      "hand": "left"
    },
    {
      "midi": 42,
      "time": 50.7,
      "duration": 0.15,
      "velocity": 0.63,
      "hand": "left"
    },
    {
      "midi": 44,
      "time": 50.7,
      "duration": 0.15,
      "velocity": 0.63,
      "hand": "left"
    },
    {
      "midi": 62,
      "time": 50.7,
      "duration": 0.075,
      "velocity": 1,
      "hand": "right"
    },
    {
      "midi": 67,
      "time": 50.7,
      "duration": 0.075,
      "velocity": 1,
      "hand": "right"
    },
    {
      "midi": 71,
      "time": 50.7,
      "duration": 0.075,
      "velocity": 1,
      "hand": "right"
    },
    {
      "midi": 71,
      "time": 50.7,
      "duration": 0.15,
      "velocity": 1,
      "hand": "right"
    },
    {
      "midi": 46,
      "time": 50.85,
      "duration": 0.15,
      "velocity": 0.63,
      "hand": "left"
    },
    {
      "midi": 64,
      "time": 50.85,
      "duration": 0.075,
      "velocity": 0.79,
      "hand": "right"
    },
    {
      "midi": 67,
      "time": 50.85,
      "duration": 0.075,
      "velocity": 0.87,
      "hand": "right"
    },
    {
      "midi": 68,
      "time": 50.85,
      "duration": 0.075,
      "velocity": 0.79,
      "hand": "right"
    },
    {
      "midi": 72,
      "time": 50.85,
      "duration": 0.075,
      "velocity": 1,
      "hand": "right"
    },
    {
      "midi": 72,
      "time": 50.85,
      "duration": 0.15,
      "velocity": 0.95,
      "hand": "right"
    },
    {
      "midi": 38,
      "time": 51,
      "duration": 0.15,
      "velocity": 0.63,
      "hand": "left"
    },
    {
      "midi": 43,
      "time": 51,
      "duration": 0.15,
      "velocity": 1,
      "hand": "left"
    },
    {
      "midi": 44,
      "time": 51,
      "duration": 0.075,
      "velocity": 0.63,
      "hand": "left"
    },
    {
      "midi": 62,
      "time": 51,
      "duration": 0.075,
      "velocity": 1,
      "hand": "right"
    },
    {
      "midi": 67,
      "time": 51,
      "duration": 0.075,
      "velocity": 0.99,
      "hand": "right"
    },
    {
      "midi": 71,
      "time": 51,
      "duration": 0.075,
      "velocity": 0.99,
      "hand": "right"
    },
    {
      "midi": 38,
      "time": 51.3,
      "duration": 0.15,
      "velocity": 1,
      "hand": "left"
    },
    {
      "midi": 42,
      "time": 51.3,
      "duration": 0.15,
      "velocity": 0.63,
      "hand": "left"
    },
    {
      "midi": 44,
      "time": 51.3,
      "duration": 0.15,
      "velocity": 0.63,
      "hand": "left"
    },
    {
      "midi": 64,
      "time": 51.3,
      "duration": 0.075,
      "velocity": 0.97,
      "hand": "right"
    },
    {
      "midi": 67,
      "time": 51.3,
      "duration": 0.075,
      "velocity": 0.97,
      "hand": "right"
    },
    {
      "midi": 68,
      "time": 51.3,
      "duration": 0.075,
      "velocity": 0.87,
      "hand": "right"
    },
    {
      "midi": 72,
      "time": 51.3,
      "duration": 0.075,
      "velocity": 1,
      "hand": "right"
    },
    {
      "midi": 72,
      "time": 51.3,
      "duration": 0.15,
      "velocity": 1,
      "hand": "right"
    },
    {
      "midi": 46,
      "time": 51.45,
      "duration": 0.15,
      "velocity": 0.63,
      "hand": "left"
    },
    {
      "midi": 38,
      "time": 51.6,
      "duration": 1.05,
      "velocity": 0.63,
      "hand": "left"
    },
    {
      "midi": 43,
      "time": 51.6,
      "duration": 0.75,
      "velocity": 1,
      "hand": "left"
    },
    {
      "midi": 44,
      "time": 51.6,
      "duration": 0.075,
      "velocity": 0.63,
      "hand": "left"
    },
    {
      "midi": 62,
      "time": 51.6,
      "duration": 0.45,
      "velocity": 1,
      "hand": "right"
    },
    {
      "midi": 67,
      "time": 51.6,
      "duration": 0.15,
      "velocity": 1,
      "hand": "right"
    },
    {
      "midi": 71,
      "time": 51.6,
      "duration": 0.45,
      "velocity": 1,
      "hand": "right"
    },
    {
      "midi": 71,
      "time": 51.6,
      "duration": 1.2,
      "velocity": 1,
      "hand": "right"
    },
    {
      "midi": 44,
      "time": 51.9,
      "duration": 0.15,
      "velocity": 0.63,
      "hand": "left"
    },
    {
      "midi": 62,
      "time": 51.9,
      "duration": 0.3,
      "velocity": 0.89,
      "hand": "right"
    },
    {
      "midi": 67,
      "time": 51.9,
      "duration": 0.15,
      "velocity": 0.77,
      "hand": "right"
    },
    {
      "midi": 86,
      "time": 51.9,
      "duration": 0.15,
      "velocity": 0.92,
      "hand": "right"
    },
    {
      "midi": 91,
      "time": 52.05,
      "duration": 0.15,
      "velocity": 0.8,
      "hand": "right"
    },
    {
      "midi": 44,
      "time": 52.2,
      "duration": 0.15,
      "velocity": 0.63,
      "hand": "left"
    },
    {
      "midi": 59,
      "time": 52.2,
      "duration": 0.3,
      "velocity": 0.92,
      "hand": "left"
    },
    {
      "midi": 69,
      "time": 52.2,
      "duration": 0.075,
      "velocity": 0.76,
      "hand": "right"
    },
    {
      "midi": 72,
      "time": 52.2,
      "duration": 0.15,
      "velocity": 1,
      "hand": "right"
    },
    {
      "midi": 86,
      "time": 52.2,
      "duration": 0.075,
      "velocity": 0.92,
      "hand": "right"
    },
    {
      "midi": 44,
      "time": 52.5,
      "duration": 0.15,
      "velocity": 0.63,
      "hand": "left"
    },
    {
      "midi": 55,
      "time": 52.5,
      "duration": 0.3,
      "velocity": 1,
      "hand": "left"
    },
    {
      "midi": 67,
      "time": 52.5,
      "duration": 0.075,
      "velocity": 0.81,
      "hand": "right"
    },
    {
      "midi": 69,
      "time": 52.5,
      "duration": 0.075,
      "velocity": 0.73,
      "hand": "right"
    },
    {
      "midi": 70,
      "time": 52.5,
      "duration": 0.075,
      "velocity": 1,
      "hand": "right"
    },
    {
      "midi": 73,
      "time": 52.5,
      "duration": 0.075,
      "velocity": 1,
      "hand": "right"
    },
    {
      "midi": 83,
      "time": 52.5,
      "duration": 0.075,
      "velocity": 0.92,
      "hand": "right"
    },
    {
      "midi": 38,
      "time": 52.8,
      "duration": 0.9,
      "velocity": 0.63,
      "hand": "left"
    },
    {
      "midi": 43,
      "time": 52.8,
      "duration": 0.75,
      "velocity": 1,
      "hand": "left"
    },
    {
      "midi": 44,
      "time": 52.8,
      "duration": 0.15,
      "velocity": 0.63,
      "hand": "left"
    },
    {
      "midi": 50,
      "time": 52.8,
      "duration": 1.95,
      "velocity": 1,
      "hand": "left"
    },
    {
      "midi": 51,
      "time": 52.8,
      "duration": 0.075,
      "velocity": 0.63,
      "hand": "left"
    },
    {
      "midi": 67,
      "time": 52.8,
      "duration": 0.15,
      "velocity": 1,
      "hand": "right"
    },
    {
      "midi": 71,
      "time": 52.8,
      "duration": 0.15,
      "velocity": 1,
      "hand": "right"
    },
    {
      "midi": 74,
      "time": 52.8,
      "duration": 0.15,
      "velocity": 1,
      "hand": "right"
    },
    {
      "midi": 79,
      "time": 52.8,
      "duration": 2.4,
      "velocity": 0.92,
      "hand": "right"
    },
    {
      "midi": 44,
      "time": 53.1,
      "duration": 0.075,
      "velocity": 0.63,
      "hand": "left"
    },
    {
      "midi": 67,
      "time": 53.1,
      "duration": 0.075,
      "velocity": 1,
      "hand": "right"
    },
    {
      "midi": 67,
      "time": 53.1,
      "duration": 0.6,
      "velocity": 1,
      "hand": "right"
    },
    {
      "midi": 71,
      "time": 53.1,
      "duration": 0.075,
      "velocity": 1,
      "hand": "right"
    },
    {
      "midi": 74,
      "time": 53.1,
      "duration": 0.075,
      "velocity": 1,
      "hand": "right"
    },
    {
      "midi": 44,
      "time": 53.25,
      "duration": 0.075,
      "velocity": 0.63,
      "hand": "left"
    },
    {
      "midi": 67,
      "time": 53.25,
      "duration": 0.075,
      "velocity": 0.94,
      "hand": "right"
    },
    {
      "midi": 71,
      "time": 53.25,
      "duration": 0.075,
      "velocity": 1,
      "hand": "right"
    },
    {
      "midi": 74,
      "time": 53.25,
      "duration": 0.075,
      "velocity": 0.99,
      "hand": "right"
    },
    {
      "midi": 44,
      "time": 53.4,
      "duration": 0.075,
      "velocity": 0.63,
      "hand": "left"
    },
    {
      "midi": 67,
      "time": 53.4,
      "duration": 0.15,
      "velocity": 0.92,
      "hand": "right"
    },
    {
      "midi": 71,
      "time": 53.4,
      "duration": 0.15,
      "velocity": 0.94,
      "hand": "right"
    },
    {
      "midi": 74,
      "time": 53.4,
      "duration": 0.15,
      "velocity": 0.94,
      "hand": "right"
    },
    {
      "midi": 42,
      "time": 53.7,
      "duration": 0.15,
      "velocity": 0.63,
      "hand": "left"
    },
    {
      "midi": 46,
      "time": 53.7,
      "duration": 0.15,
      "velocity": 0.63,
      "hand": "left"
    },
    {
      "midi": 50,
      "time": 53.7,
      "duration": 0.15,
      "velocity": 1,
      "hand": "left"
    },
    {
      "midi": 66,
      "time": 53.7,
      "duration": 0.075,
      "velocity": 1,
      "hand": "right"
    },
    {
      "midi": 67,
      "time": 53.7,
      "duration": 0.075,
      "velocity": 1,
      "hand": "right"
    },
    {
      "midi": 70,
      "time": 53.7,
      "duration": 0.075,
      "velocity": 1,
      "hand": "right"
    },
    {
      "midi": 73,
      "time": 53.7,
      "duration": 0.075,
      "velocity": 1,
      "hand": "right"
    },
    {
      "midi": 38,
      "time": 54,
      "duration": 0.9,
      "velocity": 0.63,
      "hand": "left"
    },
    {
      "midi": 43,
      "time": 54,
      "duration": 0.75,
      "velocity": 1,
      "hand": "left"
    },
    {
      "midi": 44,
      "time": 54,
      "duration": 0.075,
      "velocity": 0.63,
      "hand": "left"
    },
    {
      "midi": 67,
      "time": 54,
      "duration": 0.075,
      "velocity": 1,
      "hand": "right"
    },
    {
      "midi": 67,
      "time": 54,
      "duration": 0.15,
      "velocity": 1,
      "hand": "right"
    },
    {
      "midi": 71,
      "time": 54,
      "duration": 0.075,
      "velocity": 1,
      "hand": "right"
    },
    {
      "midi": 74,
      "time": 54,
      "duration": 0.075,
      "velocity": 1,
      "hand": "right"
    },
    {
      "midi": 44,
      "time": 54.3,
      "duration": 0.075,
      "velocity": 0.63,
      "hand": "left"
    },
    {
      "midi": 67,
      "time": 54.3,
      "duration": 0.075,
      "velocity": 0.99,
      "hand": "right"
    },
    {
      "midi": 67,
      "time": 54.3,
      "duration": 0.45,
      "velocity": 1,
      "hand": "right"
    },
    {
      "midi": 71,
      "time": 54.3,
      "duration": 0.075,
      "velocity": 1,
      "hand": "right"
    },
    {
      "midi": 74,
      "time": 54.3,
      "duration": 0.075,
      "velocity": 1,
      "hand": "right"
    },
    {
      "midi": 44,
      "time": 54.45,
      "duration": 0.075,
      "velocity": 0.63,
      "hand": "left"
    },
    {
      "midi": 67,
      "time": 54.45,
      "duration": 0.075,
      "velocity": 0.81,
      "hand": "right"
    },
    {
      "midi": 71,
      "time": 54.45,
      "duration": 0.075,
      "velocity": 0.85,
      "hand": "right"
    },
    {
      "midi": 74,
      "time": 54.45,
      "duration": 0.075,
      "velocity": 0.76,
      "hand": "right"
    },
    {
      "midi": 44,
      "time": 54.6,
      "duration": 0.075,
      "velocity": 0.63,
      "hand": "left"
    },
    {
      "midi": 67,
      "time": 54.6,
      "duration": 0.075,
      "velocity": 1,
      "hand": "right"
    },
    {
      "midi": 71,
      "time": 54.6,
      "duration": 0.075,
      "velocity": 1,
      "hand": "right"
    },
    {
      "midi": 74,
      "time": 54.6,
      "duration": 0.15,
      "velocity": 1,
      "hand": "right"
    },
    {
      "midi": 42,
      "time": 54.9,
      "duration": 0.15,
      "velocity": 0.63,
      "hand": "left"
    },
    {
      "midi": 46,
      "time": 54.9,
      "duration": 0.075,
      "velocity": 0.63,
      "hand": "left"
    },
    {
      "midi": 50,
      "time": 54.9,
      "duration": 0.3,
      "velocity": 1,
      "hand": "left"
    },
    {
      "midi": 66,
      "time": 54.9,
      "duration": 0.15,
      "velocity": 1,
      "hand": "right"
    },
    {
      "midi": 67,
      "time": 54.9,
      "duration": 0.075,
      "velocity": 1,
      "hand": "right"
    },
    {
      "midi": 70,
      "time": 54.9,
      "duration": 0.075,
      "velocity": 1,
      "hand": "right"
    },
    {
      "midi": 73,
      "time": 54.9,
      "duration": 0.15,
      "velocity": 1,
      "hand": "right"
    },
    {
      "midi": 38,
      "time": 55.2,
      "duration": 0.15,
      "velocity": 0.63,
      "hand": "left"
    },
    {
      "midi": 43,
      "time": 55.2,
      "duration": 0.15,
      "velocity": 1,
      "hand": "left"
    },
    {
      "midi": 44,
      "time": 55.2,
      "duration": 0.15,
      "velocity": 0.63,
      "hand": "left"
    },
    {
      "midi": 67,
      "time": 55.2,
      "duration": 0.15,
      "velocity": 0.99,
      "hand": "right"
    },
    {
      "midi": 71,
      "time": 55.2,
      "duration": 0.075,
      "velocity": 1,
      "hand": "right"
    },
    {
      "midi": 74,
      "time": 55.2,
      "duration": 0.075,
      "velocity": 1,
      "hand": "right"
    },
    {
      "midi": 42,
      "time": 55.5,
      "duration": 0.15,
      "velocity": 0.63,
      "hand": "left"
    },
    {
      "midi": 44,
      "time": 55.5,
      "duration": 0.15,
      "velocity": 0.63,
      "hand": "left"
    },
    {
      "midi": 50,
      "time": 55.5,
      "duration": 0.15,
      "velocity": 1,
      "hand": "left"
    },
    {
      "midi": 67,
      "time": 55.5,
      "duration": 0.15,
      "velocity": 1,
      "hand": "right"
    },
    {
      "midi": 71,
      "time": 55.5,
      "duration": 0.075,
      "velocity": 1,
      "hand": "right"
    },
    {
      "midi": 74,
      "time": 55.5,
      "duration": 0.15,
      "velocity": 0.97,
      "hand": "right"
    },
    {
      "midi": 46,
      "time": 55.65,
      "duration": 0.15,
      "velocity": 0.63,
      "hand": "left"
    },
    {
      "midi": 66,
      "time": 55.65,
      "duration": 0.15,
      "velocity": 1,
      "hand": "right"
    },
    {
      "midi": 67,
      "time": 55.65,
      "duration": 0.075,
      "velocity": 0.55,
      "hand": "right"
    },
    {
      "midi": 70,
      "time": 55.65,
      "duration": 0.15,
      "velocity": 1,
      "hand": "right"
    },
    {
      "midi": 73,
      "time": 55.65,
      "duration": 0.15,
      "velocity": 0.89,
      "hand": "right"
    },
    {
      "midi": 38,
      "time": 55.8,
      "duration": 0.15,
      "velocity": 0.63,
      "hand": "left"
    },
    {
      "midi": 43,
      "time": 55.8,
      "duration": 0.15,
      "velocity": 1,
      "hand": "left"
    },
    {
      "midi": 44,
      "time": 55.8,
      "duration": 0.15,
      "velocity": 0.63,
      "hand": "left"
    },
    {
      "midi": 67,
      "time": 55.8,
      "duration": 0.15,
      "velocity": 0.73,
      "hand": "right"
    },
    {
      "midi": 67,
      "time": 55.8,
      "duration": 0.075,
      "velocity": 1,
      "hand": "right"
    },
    {
      "midi": 70,
      "time": 55.8,
      "duration": 0.075,
      "velocity": 0.52,
      "hand": "right"
    },
    {
      "midi": 71,
      "time": 55.8,
      "duration": 0.075,
      "velocity": 0.81,
      "hand": "right"
    },
    {
      "midi": 74,
      "time": 55.8,
      "duration": 0.075,
      "velocity": 0.89,
      "hand": "right"
    },
    {
      "midi": 42,
      "time": 56.1,
      "duration": 0.15,
      "velocity": 0.63,
      "hand": "left"
    },
    {
      "midi": 46,
      "time": 56.1,
      "duration": 0.15,
      "velocity": 0.63,
      "hand": "left"
    },
    {
      "midi": 50,
      "time": 56.1,
      "duration": 0.15,
      "velocity": 1,
      "hand": "left"
    },
    {
      "midi": 67,
      "time": 56.1,
      "duration": 0.15,
      "velocity": 0.87,
      "hand": "right"
    },
    {
      "midi": 72,
      "time": 56.1,
      "duration": 0.075,
      "velocity": 1,
      "hand": "right"
    },
    {
      "midi": 76,
      "time": 56.1,
      "duration": 0.075,
      "velocity": 0.99,
      "hand": "right"
    },
    {
      "midi": 66,
      "time": 56.25,
      "duration": 0.15,
      "velocity": 1,
      "hand": "right"
    },
    {
      "midi": 38,
      "time": 56.4,
      "duration": 0.15,
      "velocity": 0.63,
      "hand": "left"
    },
    {
      "midi": 43,
      "time": 56.4,
      "duration": 1.2,
      "velocity": 1,
      "hand": "left"
    },
    {
      "midi": 44,
      "time": 56.4,
      "duration": 0.075,
      "velocity": 0.63,
      "hand": "left"
    },
    {
      "midi": 67,
      "time": 56.4,
      "duration": 0.75,
      "velocity": 1,
      "hand": "right"
    },
    {
      "midi": 67,
      "time": 56.4,
      "duration": 0.6,
      "velocity": 1,
      "hand": "right"
    },
    {
      "midi": 71,
      "time": 56.4,
      "duration": 0.15,
      "velocity": 1,
      "hand": "right"
    },
    {
      "midi": 74,
      "time": 56.4,
      "duration": 0.6,
      "velocity": 1,
      "hand": "right"
    },
    {
      "midi": 44,
      "time": 56.7,
      "duration": 0.15,
      "velocity": 0.63,
      "hand": "left"
    },
    {
      "midi": 59,
      "time": 56.7,
      "duration": 0.15,
      "velocity": 0.63,
      "hand": "left"
    },
    {
      "midi": 62,
      "time": 56.7,
      "duration": 0.3,
      "velocity": 0.99,
      "hand": "right"
    },
    {
      "midi": 71,
      "time": 56.7,
      "duration": 0.15,
      "velocity": 0.7,
      "hand": "right"
    },
    {
      "midi": 95,
      "time": 56.7,
      "duration": 0.15,
      "velocity": 0.76,
      "hand": "right"
    },
    {
      "midi": 60,
      "time": 56.85,
      "duration": 0.15,
      "velocity": 0.63,
      "hand": "right"
    },
    {
      "midi": 91,
      "time": 56.85,
      "duration": 0.15,
      "velocity": 0.91,
      "hand": "right"
    },
    {
      "midi": 44,
      "time": 57,
      "duration": 0.15,
      "velocity": 0.63,
      "hand": "left"
    },
    {
      "midi": 59,
      "time": 57,
      "duration": 0.3,
      "velocity": 0.89,
      "hand": "left"
    },
    {
      "midi": 61,
      "time": 57,
      "duration": 0.15,
      "velocity": 0.63,
      "hand": "right"
    },
    {
      "midi": 62,
      "time": 57,
      "duration": 0.3,
      "velocity": 0.79,
      "hand": "right"
    },
    {
      "midi": 72,
      "time": 57,
      "duration": 0.15,
      "velocity": 1,
      "hand": "right"
    },
    {
      "midi": 86,
      "time": 57,
      "duration": 0.15,
      "velocity": 0.92,
      "hand": "right"
    },
    {
      "midi": 44,
      "time": 57.3,
      "duration": 0.075,
      "velocity": 0.63,
      "hand": "left"
    },
    {
      "midi": 55,
      "time": 57.3,
      "duration": 0.3,
      "velocity": 1,
      "hand": "left"
    },
    {
      "midi": 61,
      "time": 57.3,
      "duration": 0.3,
      "velocity": 0.79,
      "hand": "right"
    },
    {
      "midi": 62,
      "time": 57.3,
      "duration": 0.075,
      "velocity": 0.63,
      "hand": "right"
    },
    {
      "midi": 67,
      "time": 57.3,
      "duration": 0.075,
      "velocity": 0.97,
      "hand": "right"
    },
    {
      "midi": 74,
      "time": 57.3,
      "duration": 0.15,
      "velocity": 0.97,
      "hand": "right"
    },
    {
      "midi": 91,
      "time": 57.3,
      "duration": 0.3,
      "velocity": 0.92,
      "hand": "right"
    },
    {
      "midi": 38,
      "time": 57.6,
      "duration": 0.15,
      "velocity": 0.63,
      "hand": "left"
    },
    {
      "midi": 44,
      "time": 57.6,
      "duration": 0.15,
      "velocity": 0.63,
      "hand": "left"
    },
    {
      "midi": 50,
      "time": 57.6,
      "duration": 0.6,
      "velocity": 1,
      "hand": "left"
    },
    {
      "midi": 50,
      "time": 57.6,
      "duration": 1.8,
      "velocity": 1,
      "hand": "left"
    },
    {
      "midi": 51,
      "time": 57.6,
      "duration": 0.15,
      "velocity": 0.63,
      "hand": "left"
    },
    {
      "midi": 60,
      "time": 57.6,
      "duration": 1.5,
      "velocity": 0.79,
      "hand": "right"
    },
    {
      "midi": 66,
      "time": 57.6,
      "duration": 0.15,
      "velocity": 1,
      "hand": "right"
    },
    {
      "midi": 69,
      "time": 57.6,
      "duration": 1.35,
      "velocity": 0.63,
      "hand": "right"
    },
    {
      "midi": 72,
      "time": 57.6,
      "duration": 0.15,
      "velocity": 1,
      "hand": "right"
    },
    {
      "midi": 74,
      "time": 57.6,
      "duration": 0.075,
      "velocity": 1,
      "hand": "right"
    },
    {
      "midi": 90,
      "time": 57.6,
      "duration": 1.35,
      "velocity": 0.92,
      "hand": "right"
    },
    {
      "midi": 42,
      "time": 57.9,
      "duration": 0.075,
      "velocity": 0.63,
      "hand": "left"
    },
    {
      "midi": 46,
      "time": 57.9,
      "duration": 0.075,
      "velocity": 0.63,
      "hand": "left"
    },
    {
      "midi": 66,
      "time": 57.9,
      "duration": 0.075,
      "velocity": 0.94,
      "hand": "right"
    },
    {
      "midi": 72,
      "time": 57.9,
      "duration": 0.075,
      "velocity": 1,
      "hand": "right"
    },
    {
      "midi": 74,
      "time": 57.9,
      "duration": 0.075,
      "velocity": 0.94,
      "hand": "right"
    },
    {
      "midi": 66,
      "time": 58.05,
      "duration": 0.075,
      "velocity": 0.68,
      "hand": "right"
    },
    {
      "midi": 72,
      "time": 58.05,
      "duration": 0.075,
      "velocity": 1,
      "hand": "right"
    },
    {
      "midi": 74,
      "time": 58.05,
      "duration": 0.075,
      "velocity": 0.87,
      "hand": "right"
    },
    {
      "midi": 38,
      "time": 58.2,
      "duration": 0.6,
      "velocity": 1,
      "hand": "left"
    },
    {
      "midi": 38,
      "time": 58.2,
      "duration": 0.3,
      "velocity": 0.63,
      "hand": "left"
    },
    {
      "midi": 44,
      "time": 58.2,
      "duration": 0.15,
      "velocity": 0.63,
      "hand": "left"
    },
    {
      "midi": 66,
      "time": 58.2,
      "duration": 0.075,
      "velocity": 0.85,
      "hand": "right"
    },
    {
      "midi": 72,
      "time": 58.2,
      "duration": 0.075,
      "velocity": 1,
      "hand": "right"
    },
    {
      "midi": 74,
      "time": 58.2,
      "duration": 0.075,
      "velocity": 1,
      "hand": "right"
    },
    {
      "midi": 42,
      "time": 58.5,
      "duration": 0.15,
      "velocity": 0.63,
      "hand": "left"
    },
    {
      "midi": 46,
      "time": 58.5,
      "duration": 0.075,
      "velocity": 0.63,
      "hand": "left"
    },
    {
      "midi": 66,
      "time": 58.5,
      "duration": 0.075,
      "velocity": 1,
      "hand": "right"
    },
    {
      "midi": 72,
      "time": 58.5,
      "duration": 0.075,
      "velocity": 1,
      "hand": "right"
    },
    {
      "midi": 76,
      "time": 58.5,
      "duration": 0.075,
      "velocity": 1,
      "hand": "right"
    },
    {
      "midi": 38,
      "time": 58.8,
      "duration": 0.3,
      "velocity": 0.63,
      "hand": "left"
    },
    {
      "midi": 44,
      "time": 58.8,
      "duration": 0.15,
      "velocity": 0.63,
      "hand": "left"
    },
    {
      "midi": 50,
      "time": 58.8,
      "duration": 0.75,
      "velocity": 1,
      "hand": "left"
    },
    {
      "midi": 51,
      "time": 58.8,
      "duration": 0.9,
      "velocity": 0.63,
      "hand": "left"
    },
    {
      "midi": 66,
      "time": 58.8,
      "duration": 0.3,
      "velocity": 1,
      "hand": "right"
    },
    {
      "midi": 72,
      "time": 58.8,
      "duration": 0.3,
      "velocity": 1,
      "hand": "right"
    },
    {
      "midi": 74,
      "time": 58.8,
      "duration": 0.3,
      "velocity": 1,
      "hand": "right"
    },
    {
      "midi": 42,
      "time": 59.1,
      "duration": 0.15,
      "velocity": 0.63,
      "hand": "left"
    },
    {
      "midi": 46,
      "time": 59.1,
      "duration": 0.15,
      "velocity": 0.63,
      "hand": "left"
    },
    {
      "midi": 64,
      "time": 59.1,
      "duration": 0.3,
      "velocity": 0.79,
      "hand": "right"
    },
    {
      "midi": 72,
      "time": 59.1,
      "duration": 0.15,
      "velocity": 0.63,
      "hand": "right"
    },
    {
      "midi": 96,
      "time": 59.1,
      "duration": 0.15,
      "velocity": 0.92,
      "hand": "right"
    },
    {
      "midi": 71,
      "time": 59.25,
      "duration": 0.075,
      "velocity": 0.63,
      "hand": "right"
    },
    {
      "midi": 95,
      "time": 59.25,
      "duration": 0.075,
      "velocity": 0.62,
      "hand": "right"
    },
    {
      "midi": 38,
      "time": 59.4,
      "duration": 0.3,
      "velocity": 0.63,
      "hand": "left"
    },
    {
      "midi": 42,
      "time": 59.4,
      "duration": 0.6,
      "velocity": 1,
      "hand": "left"
    },
    {
      "midi": 44,
      "time": 59.4,
      "duration": 0.15,
      "velocity": 0.63,
      "hand": "left"
    },
    {
      "midi": 52,
      "time": 59.4,
      "duration": 0.3,
      "velocity": 0.99,
      "hand": "left"
    },
    {
      "midi": 62,
      "time": 59.4,
      "duration": 0.3,
      "velocity": 0.79,
      "hand": "right"
    },
    {
      "midi": 66,
      "time": 59.4,
      "duration": 0.45,
      "velocity": 1,
      "hand": "right"
    },
    {
      "midi": 71,
      "time": 59.4,
      "duration": 0.15,
      "velocity": 0.63,
      "hand": "right"
    },
    {
      "midi": 72,
      "time": 59.4,
      "duration": 0.45,
      "velocity": 1,
      "hand": "right"
    },
    {
      "midi": 72,
      "time": 59.4,
      "duration": 0.15,
      "velocity": 0.63,
      "hand": "right"
    },
    {
      "midi": 74,
      "time": 59.4,
      "duration": 0.3,
      "velocity": 1,
      "hand": "right"
    },
    {
      "midi": 95,
      "time": 59.4,
      "duration": 0.3,
      "velocity": 0.81,
      "hand": "right"
    },
    {
      "midi": 96,
      "time": 59.4,
      "duration": 0.15,
      "velocity": 0.71,
      "hand": "right"
    },
    {
      "midi": 97,
      "time": 59.4,
      "duration": 0.15,
      "velocity": 0.65,
      "hand": "right"
    },
    {
      "midi": 42,
      "time": 59.7,
      "duration": 0.15,
      "velocity": 0.63,
      "hand": "left"
    },
    {
      "midi": 46,
      "time": 59.7,
      "duration": 0.15,
      "velocity": 0.63,
      "hand": "left"
    },
    {
      "midi": 54,
      "time": 59.7,
      "duration": 0.3,
      "velocity": 0.98,
      "hand": "left"
    },
    {
      "midi": 60,
      "time": 59.7,
      "duration": 0.3,
      "velocity": 0.79,
      "hand": "right"
    },
    {
      "midi": 66,
      "time": 59.7,
      "duration": 0.3,
      "velocity": 0.63,
      "hand": "right"
    },
    {
      "midi": 90,
      "time": 59.7,
      "duration": 0.3,
      "velocity": 0.92,
      "hand": "right"
    },
    {
      "midi": 44,
      "time": 59.85,
      "duration": 0.075,
      "velocity": 0.63,
      "hand": "left"
    },
    {
      "midi": 46,
      "time": 59.85,
      "duration": 0.075,
      "velocity": 0.63,
      "hand": "left"
    },
    {
      "midi": 38,
      "time": 60,
      "duration": 0.15,
      "velocity": 0.63,
      "hand": "left"
    },
    {
      "midi": 43,
      "time": 60,
      "duration": 0.15,
      "velocity": 1,
      "hand": "left"
    },
    {
      "midi": 44,
      "time": 60,
      "duration": 0.15,
      "velocity": 0.63,
      "hand": "left"
    },
    {
      "midi": 51,
      "time": 60,
      "duration": 0.075,
      "velocity": 0.63,
      "hand": "left"
    },
    {
      "midi": 55,
      "time": 60,
      "duration": 0.75,
      "velocity": 0.97,
      "hand": "left"
    },
    {
      "midi": 59,
      "time": 60,
      "duration": 1.35,
      "velocity": 0.79,
      "hand": "left"
    },
    {
      "midi": 67,
      "time": 60,
      "duration": 0.075,
      "velocity": 0.99,
      "hand": "right"
    },
    {
      "midi": 69,
      "time": 60,
      "duration": 0.075,
      "velocity": 0.63,
      "hand": "right"
    },
    {
      "midi": 71,
      "time": 60,
      "duration": 0.075,
      "velocity": 1,
      "hand": "right"
    },
    {
      "midi": 74,
      "time": 60,
      "duration": 0.075,
      "velocity": 1,
      "hand": "right"
    },
    {
      "midi": 93,
      "time": 60,
      "duration": 0.15,
      "velocity": 0.84,
      "hand": "right"
    },
    {
      "midi": 67,
      "time": 60.15,
      "duration": 0.075,
      "velocity": 0.63,
      "hand": "right"
    },
    {
      "midi": 69,
      "time": 60.15,
      "duration": 0.15,
      "velocity": 0.63,
      "hand": "right"
    },
    {
      "midi": 91,
      "time": 60.15,
      "duration": 0.075,
      "velocity": 0.77,
      "hand": "right"
    },
    {
      "midi": 93,
      "time": 60.15,
      "duration": 0.15,
      "velocity": 0.8,
      "hand": "right"
    },
    {
      "midi": 42,
      "time": 60.3,
      "duration": 0.15,
      "velocity": 0.63,
      "hand": "left"
    },
    {
      "midi": 46,
      "time": 60.3,
      "duration": 0.075,
      "velocity": 0.63,
      "hand": "left"
    },
    {
      "midi": 67,
      "time": 60.3,
      "duration": 0.075,
      "velocity": 1,
      "hand": "right"
    },
    {
      "midi": 67,
      "time": 60.3,
      "duration": 0.3,
      "velocity": 0.63,
      "hand": "right"
    },
    {
      "midi": 71,
      "time": 60.3,
      "duration": 0.075,
      "velocity": 1,
      "hand": "right"
    },
    {
      "midi": 74,
      "time": 60.3,
      "duration": 0.075,
      "velocity": 1,
      "hand": "right"
    },
    {
      "midi": 91,
      "time": 60.3,
      "duration": 0.3,
      "velocity": 0.89,
      "hand": "right"
    },
    {
      "midi": 67,
      "time": 60.45,
      "duration": 0.075,
      "velocity": 0.83,
      "hand": "right"
    },
    {
      "midi": 71,
      "time": 60.45,
      "duration": 0.075,
      "velocity": 0.94,
      "hand": "right"
    },
    {
      "midi": 74,
      "time": 60.45,
      "duration": 0.075,
      "velocity": 0.94,
      "hand": "right"
    },
    {
      "midi": 38,
      "time": 60.6,
      "duration": 0.6,
      "velocity": 1,
      "hand": "left"
    },
    {
      "midi": 38,
      "time": 60.6,
      "duration": 0.3,
      "velocity": 0.63,
      "hand": "left"
    },
    {
      "midi": 44,
      "time": 60.6,
      "duration": 0.15,
      "velocity": 0.63,
      "hand": "left"
    },
    {
      "midi": 59,
      "time": 60.6,
      "duration": 1.05,
      "velocity": 0.63,
      "hand": "left"
    },
    {
      "midi": 59,
      "time": 60.6,
      "duration": 0.6,
      "velocity": 0.94,
      "hand": "left"
    },
    {
      "midi": 67,
      "time": 60.6,
      "duration": 0.075,
      "velocity": 1,
      "hand": "right"
    },
    {
      "midi": 71,
      "time": 60.6,
      "duration": 0.075,
      "velocity": 1,
      "hand": "right"
    },
    {
      "midi": 74,
      "time": 60.6,
      "duration": 0.15,
      "velocity": 1,
      "hand": "right"
    },
    {
      "midi": 83,
      "time": 60.6,
      "duration": 0.9,
      "velocity": 0.92,
      "hand": "right"
    },
    {
      "midi": 85,
      "time": 60.6,
      "duration": 0.075,
      "velocity": 0.81,
      "hand": "right"
    },
    {
      "midi": 42,
      "time": 60.9,
      "duration": 0.15,
      "velocity": 0.63,
      "hand": "left"
    },
    {
      "midi": 46,
      "time": 60.9,
      "duration": 0.075,
      "velocity": 0.63,
      "hand": "left"
    },
    {
      "midi": 67,
      "time": 60.9,
      "duration": 0.075,
      "velocity": 1,
      "hand": "right"
    },
    {
      "midi": 70,
      "time": 60.9,
      "duration": 0.075,
      "velocity": 1,
      "hand": "right"
    },
    {
      "midi": 73,
      "time": 60.9,
      "duration": 0.075,
      "velocity": 1,
      "hand": "right"
    },
    {
      "midi": 38,
      "time": 61.2,
      "duration": 0.15,
      "velocity": 0.63,
      "hand": "left"
    },
    {
      "midi": 43,
      "time": 61.2,
      "duration": 0.075,
      "velocity": 0.99,
      "hand": "left"
    },
    {
      "midi": 44,
      "time": 61.2,
      "duration": 0.15,
      "velocity": 0.63,
      "hand": "left"
    },
    {
      "midi": 50,
      "time": 61.2,
      "duration": 1.2,
      "velocity": 0.87,
      "hand": "left"
    },
    {
      "midi": 51,
      "time": 61.2,
      "duration": 0.9,
      "velocity": 0.63,
      "hand": "left"
    },
    {
      "midi": 67,
      "time": 61.2,
      "duration": 0.45,
      "velocity": 0.99,
      "hand": "right"
    },
    {
      "midi": 71,
      "time": 61.2,
      "duration": 0.45,
      "velocity": 1,
      "hand": "right"
    },
    {
      "midi": 74,
      "time": 61.2,
      "duration": 0.45,
      "velocity": 1,
      "hand": "right"
    },
    {
      "midi": 60,
      "time": 61.35,
      "duration": 0.15,
      "velocity": 0.79,
      "hand": "right"
    },
    {
      "midi": 42,
      "time": 61.5,
      "duration": 0.15,
      "velocity": 0.63,
      "hand": "left"
    },
    {
      "midi": 43,
      "time": 61.5,
      "duration": 0.3,
      "velocity": 1,
      "hand": "left"
    },
    {
      "midi": 46,
      "time": 61.5,
      "duration": 0.075,
      "velocity": 0.63,
      "hand": "left"
    },
    {
      "midi": 60,
      "time": 61.5,
      "duration": 0.3,
      "velocity": 0.63,
      "hand": "right"
    },
    {
      "midi": 61,
      "time": 61.5,
      "duration": 0.15,
      "velocity": 0.79,
      "hand": "right"
    },
    {
      "midi": 84,
      "time": 61.5,
      "duration": 0.15,
      "velocity": 0.92,
      "hand": "right"
    },
    {
      "midi": 62,
      "time": 61.65,
      "duration": 0.15,
      "velocity": 0.79,
      "hand": "right"
    },
    {
      "midi": 85,
      "time": 61.65,
      "duration": 0.15,
      "velocity": 0.81,
      "hand": "right"
    },
    {
      "midi": 38,
      "time": 61.8,
      "duration": 0.3,
      "velocity": 0.63,
      "hand": "left"
    },
    {
      "midi": 44,
      "time": 61.8,
      "duration": 0.15,
      "velocity": 0.63,
      "hand": "left"
    },
    {
      "midi": 45,
      "time": 61.8,
      "duration": 0.15,
      "velocity": 1,
      "hand": "left"
    },
    {
      "midi": 61,
      "time": 61.8,
      "duration": 0.3,
      "velocity": 0.63,
      "hand": "right"
    },
    {
      "midi": 62,
      "time": 61.8,
      "duration": 0.45,
      "velocity": 1,
      "hand": "right"
    },
    {
      "midi": 67,
      "time": 61.8,
      "duration": 0.45,
      "velocity": 1,
      "hand": "right"
    },
    {
      "midi": 69,
      "time": 61.8,
      "duration": 0.3,
      "velocity": 0.79,
      "hand": "right"
    },
    {
      "midi": 71,
      "time": 61.8,
      "duration": 0.45,
      "velocity": 1,
      "hand": "right"
    },
    {
      "midi": 88,
      "time": 61.8,
      "duration": 0.15,
      "velocity": 0.91,
      "hand": "right"
    },
    {
      "midi": 86,
      "time": 61.95,
      "duration": 0.075,
      "velocity": 0.92,
      "hand": "right"
    },
    {
      "midi": 42,
      "time": 62.1,
      "duration": 0.15,
      "velocity": 0.63,
      "hand": "left"
    },
    {
      "midi": 46,
      "time": 62.1,
      "duration": 0.15,
      "velocity": 0.63,
      "hand": "left"
    },
    {
      "midi": 47,
      "time": 62.1,
      "duration": 0.15,
      "velocity": 1,
      "hand": "left"
    },
    {
      "midi": 64,
      "time": 62.1,
      "duration": 0.3,
      "velocity": 0.63,
      "hand": "right"
    },
    {
      "midi": 67,
      "time": 62.1,
      "duration": 0.3,
      "velocity": 0.79,
      "hand": "right"
    },
    {
      "midi": 86,
      "time": 62.1,
      "duration": 0.45,
      "velocity": 0.71,
      "hand": "right"
    },
    {
      "midi": 88,
      "time": 62.1,
      "duration": 0.15,
      "velocity": 0.5,
      "hand": "right"
    },
    {
      "midi": 44,
      "time": 62.25,
      "duration": 0.075,
      "velocity": 0.63,
      "hand": "left"
    },
    {
      "midi": 46,
      "time": 62.25,
      "duration": 0.075,
      "velocity": 0.63,
      "hand": "left"
    },
    {
      "midi": 38,
      "time": 62.4,
      "duration": 0.15,
      "velocity": 0.63,
      "hand": "left"
    },
    {
      "midi": 44,
      "time": 62.4,
      "duration": 0.15,
      "velocity": 0.63,
      "hand": "left"
    },
    {
      "midi": 50,
      "time": 62.4,
      "duration": 0.75,
      "velocity": 1,
      "hand": "left"
    },
    {
      "midi": 51,
      "time": 62.4,
      "duration": 1.05,
      "velocity": 0.63,
      "hand": "left"
    },
    {
      "midi": 54,
      "time": 62.4,
      "duration": 0.6,
      "velocity": 0.96,
      "hand": "left"
    },
    {
      "midi": 62,
      "time": 62.4,
      "duration": 0.3,
      "velocity": 0.63,
      "hand": "right"
    },
    {
      "midi": 66,
      "time": 62.4,
      "duration": 0.075,
      "velocity": 0.89,
      "hand": "right"
    },
    {
      "midi": 66,
      "time": 62.4,
      "duration": 1.2,
      "velocity": 0.79,
      "hand": "right"
    },
    {
      "midi": 70,
      "time": 62.4,
      "duration": 0.075,
      "velocity": 0.82,
      "hand": "right"
    },
    {
      "midi": 72,
      "time": 62.4,
      "duration": 0.075,
      "velocity": 1,
      "hand": "right"
    },
    {
      "midi": 73,
      "time": 62.4,
      "duration": 0.075,
      "velocity": 0.92,
      "hand": "right"
    },
    {
      "midi": 74,
      "time": 62.4,
      "duration": 0.075,
      "velocity": 1,
      "hand": "right"
    },
    {
      "midi": 84,
      "time": 62.4,
      "duration": 0.3,
      "velocity": 0.92,
      "hand": "right"
    },
    {
      "midi": 42,
      "time": 62.7,
      "duration": 0.15,
      "velocity": 0.63,
      "hand": "left"
    },
    {
      "midi": 46,
      "time": 62.7,
      "duration": 0.075,
      "velocity": 0.63,
      "hand": "left"
    },
    {
      "midi": 60,
      "time": 62.7,
      "duration": 0.3,
      "velocity": 0.63,
      "hand": "right"
    },
    {
      "midi": 66,
      "time": 62.7,
      "duration": 0.075,
      "velocity": 0.92,
      "hand": "right"
    },
    {
      "midi": 72,
      "time": 62.7,
      "duration": 0.075,
      "velocity": 1,
      "hand": "right"
    },
    {
      "midi": 74,
      "time": 62.7,
      "duration": 0.075,
      "velocity": 0.94,
      "hand": "right"
    },
    {
      "midi": 81,
      "time": 62.7,
      "duration": 0.15,
      "velocity": 0.92,
      "hand": "right"
    },
    {
      "midi": 66,
      "time": 62.85,
      "duration": 0.075,
      "velocity": 0.63,
      "hand": "right"
    },
    {
      "midi": 72,
      "time": 62.85,
      "duration": 0.075,
      "velocity": 0.96,
      "hand": "right"
    },
    {
      "midi": 74,
      "time": 62.85,
      "duration": 0.15,
      "velocity": 0.83,
      "hand": "right"
    },
    {
      "midi": 38,
      "time": 63,
      "duration": 0.6,
      "velocity": 1,
      "hand": "left"
    },
    {
      "midi": 38,
      "time": 63,
      "duration": 0.15,
      "velocity": 0.63,
      "hand": "left"
    },
    {
      "midi": 44,
      "time": 63,
      "duration": 0.15,
      "velocity": 0.63,
      "hand": "left"
    },
    {
      "midi": 52,
      "time": 63,
      "duration": 0.3,
      "velocity": 0.63,
      "hand": "left"
    },
    {
      "midi": 57,
      "time": 63,
      "duration": 0.6,
      "velocity": 0.81,
      "hand": "left"
    },
    {
      "midi": 66,
      "time": 63,
      "duration": 0.15,
      "velocity": 0.92,
      "hand": "right"
    },
    {
      "midi": 72,
      "time": 63,
      "duration": 0.15,
      "velocity": 1,
      "hand": "right"
    },
    {
      "midi": 74,
      "time": 63,
      "duration": 0.15,
      "velocity": 0.99,
      "hand": "right"
    },
    {
      "midi": 76,
      "time": 63,
      "duration": 0.3,
      "velocity": 0.92,
      "hand": "right"
    },
    {
      "midi": 42,
      "time": 63.3,
      "duration": 0.15,
      "velocity": 0.63,
      "hand": "left"
    },
    {
      "midi": 46,
      "time": 63.3,
      "duration": 0.075,
      "velocity": 0.63,
      "hand": "left"
    },
    {
      "midi": 53,
      "time": 63.3,
      "duration": 0.3,
      "velocity": 0.63,
      "hand": "left"
    },
    {
      "midi": 62,
      "time": 63.3,
      "duration": 0.075,
      "velocity": 1,
      "hand": "right"
    },
    {
      "midi": 66,
      "time": 63.3,
      "duration": 0.075,
      "velocity": 1,
      "hand": "right"
    },
    {
      "midi": 72,
      "time": 63.3,
      "duration": 0.075,
      "velocity": 1,
      "hand": "right"
    },
    {
      "midi": 78,
      "time": 63.3,
      "duration": 0.3,
      "velocity": 0.92,
      "hand": "right"
    },
    {
      "midi": 38,
      "time": 63.6,
      "duration": 0.3,
      "velocity": 0.63,
      "hand": "left"
    },
    {
      "midi": 44,
      "time": 63.6,
      "duration": 0.15,
      "velocity": 0.63,
      "hand": "left"
    },
    {
      "midi": 50,
      "time": 63.6,
      "duration": 1.2,
      "velocity": 0.89,
      "hand": "left"
    },
    {
      "midi": 51,
      "time": 63.6,
      "duration": 0.15,
      "velocity": 0.63,
      "hand": "left"
    },
    {
      "midi": 54,
      "time": 63.6,
      "duration": 0.3,
      "velocity": 0.63,
      "hand": "left"
    },
    {
      "midi": 64,
      "time": 63.6,
      "duration": 0.3,
      "velocity": 0.89,
      "hand": "right"
    },
    {
      "midi": 67,
      "time": 63.6,
      "duration": 0.3,
      "velocity": 0.94,
      "hand": "right"
    },
    {
      "midi": 68,
      "time": 63.6,
      "duration": 0.075,
      "velocity": 0.38,
      "hand": "right"
    },
    {
      "midi": 72,
      "time": 63.6,
      "duration": 0.45,
      "velocity": 1,
      "hand": "right"
    },
    {
      "midi": 83,
      "time": 63.6,
      "duration": 0.45,
      "velocity": 0.91,
      "hand": "right"
    },
    {
      "midi": 38,
      "time": 63.9,
      "duration": 0.15,
      "velocity": 1,
      "hand": "left"
    },
    {
      "midi": 42,
      "time": 63.9,
      "duration": 0.15,
      "velocity": 0.63,
      "hand": "left"
    },
    {
      "midi": 46,
      "time": 63.9,
      "duration": 0.075,
      "velocity": 0.63,
      "hand": "left"
    },
    {
      "midi": 50,
      "time": 63.9,
      "duration": 0.15,
      "velocity": 1,
      "hand": "left"
    },
    {
      "midi": 57,
      "time": 63.9,
      "duration": 0.3,
      "velocity": 0.79,
      "hand": "left"
    },
    {
      "midi": 59,
      "time": 63.9,
      "duration": 0.45,
      "velocity": 0.63,
      "hand": "left"
    },
    {
      "midi": 38,
      "time": 64.2,
      "duration": 0.3,
      "velocity": 0.63,
      "hand": "left"
    },
    {
      "midi": 40,
      "time": 64.2,
      "duration": 0.15,
      "velocity": 1,
      "hand": "left"
    },
    {
      "midi": 44,
      "time": 64.2,
      "duration": 0.15,
      "velocity": 0.63,
      "hand": "left"
    },
    {
      "midi": 48,
      "time": 64.2,
      "duration": 0.15,
      "velocity": 0.91,
      "hand": "left"
    },
    {
      "midi": 51,
      "time": 64.2,
      "duration": 0.3,
      "velocity": 0.63,
      "hand": "left"
    },
    {
      "midi": 62,
      "time": 64.2,
      "duration": 0.3,
      "velocity": 0.79,
      "hand": "right"
    },
    {
      "midi": 66,
      "time": 64.2,
      "duration": 0.3,
      "velocity": 1,
      "hand": "right"
    },
    {
      "midi": 69,
      "time": 64.2,
      "duration": 0.3,
      "velocity": 1,
      "hand": "right"
    },
    {
      "midi": 72,
      "time": 64.2,
      "duration": 0.3,
      "velocity": 1,
      "hand": "right"
    },
    {
      "midi": 81,
      "time": 64.2,
      "duration": 0.075,
      "velocity": 0.8,
      "hand": "right"
    },
    {
      "midi": 81,
      "time": 64.2,
      "duration": 0.6,
      "velocity": 0.84,
      "hand": "right"
    },
    {
      "midi": 84,
      "time": 64.2,
      "duration": 0.15,
      "velocity": 0.81,
      "hand": "right"
    },
    {
      "midi": 42,
      "time": 64.5,
      "duration": 0.15,
      "velocity": 1,
      "hand": "left"
    },
    {
      "midi": 46,
      "time": 64.5,
      "duration": 0.15,
      "velocity": 0.63,
      "hand": "left"
    },
    {
      "midi": 50,
      "time": 64.5,
      "duration": 0.15,
      "velocity": 1,
      "hand": "left"
    },
    {
      "midi": 57,
      "time": 64.5,
      "duration": 0.075,
      "velocity": 0.63,
      "hand": "left"
    },
    {
      "midi": 57,
      "time": 64.5,
      "duration": 0.3,
      "velocity": 0.63,
      "hand": "left"
    },
    {
      "midi": 59,
      "time": 64.5,
      "duration": 0.075,
      "velocity": 0.63,
      "hand": "left"
    },
    {
      "midi": 60,
      "time": 64.5,
      "duration": 0.3,
      "velocity": 0.79,
      "hand": "right"
    },
    {
      "midi": 44,
      "time": 64.65,
      "duration": 0.075,
      "velocity": 0.63,
      "hand": "left"
    },
    {
      "midi": 38,
      "time": 64.8,
      "duration": 0.3,
      "velocity": 0.63,
      "hand": "left"
    },
    {
      "midi": 43,
      "time": 64.8,
      "duration": 0.45,
      "velocity": 1,
      "hand": "left"
    },
    {
      "midi": 44,
      "time": 64.8,
      "duration": 0.075,
      "velocity": 0.63,
      "hand": "left"
    },
    {
      "midi": 46,
      "time": 64.8,
      "duration": 0.075,
      "velocity": 0.63,
      "hand": "left"
    },
    {
      "midi": 51,
      "time": 64.8,
      "duration": 1.05,
      "velocity": 0.63,
      "hand": "left"
    },
    {
      "midi": 55,
      "time": 64.8,
      "duration": 1.05,
      "velocity": 0.63,
      "hand": "left"
    },
    {
      "midi": 55,
      "time": 64.8,
      "duration": 0.6,
      "velocity": 0.99,
      "hand": "left"
    },
    {
      "midi": 59,
      "time": 64.8,
      "duration": 1.35,
      "velocity": 0.79,
      "hand": "left"
    },
    {
      "midi": 62,
      "time": 64.8,
      "duration": 0.15,
      "velocity": 0.99,
      "hand": "right"
    },
    {
      "midi": 67,
      "time": 64.8,
      "duration": 0.075,
      "velocity": 1,
      "hand": "right"
    },
    {
      "midi": 71,
      "time": 64.8,
      "duration": 0.075,
      "velocity": 0.89,
      "hand": "right"
    },
    {
      "midi": 79,
      "time": 64.8,
      "duration": 1.2,
      "velocity": 0.92,
      "hand": "right"
    },
    {
      "midi": 42,
      "time": 65.1,
      "duration": 0.15,
      "velocity": 0.63,
      "hand": "left"
    },
    {
      "midi": 46,
      "time": 65.1,
      "duration": 0.075,
      "velocity": 0.63,
      "hand": "left"
    },
    {
      "midi": 62,
      "time": 65.1,
      "duration": 0.075,
      "velocity": 1,
      "hand": "right"
    },
    {
      "midi": 67,
      "time": 65.1,
      "duration": 0.075,
      "velocity": 1,
      "hand": "right"
    },
    {
      "midi": 71,
      "time": 65.1,
      "duration": 0.075,
      "velocity": 0.94,
      "hand": "right"
    },
    {
      "midi": 62,
      "time": 65.25,
      "duration": 0.15,
      "velocity": 0.68,
      "hand": "right"
    },
    {
      "midi": 67,
      "time": 65.25,
      "duration": 0.075,
      "velocity": 0.94,
      "hand": "right"
    },
    {
      "midi": 71,
      "time": 65.25,
      "duration": 0.075,
      "velocity": 0.81,
      "hand": "right"
    },
    {
      "midi": 38,
      "time": 65.4,
      "duration": 0.45,
      "velocity": 1,
      "hand": "left"
    },
    {
      "midi": 38,
      "time": 65.4,
      "duration": 0.3,
      "velocity": 0.63,
      "hand": "left"
    },
    {
      "midi": 44,
      "time": 65.4,
      "duration": 0.15,
      "velocity": 0.63,
      "hand": "left"
    },
    {
      "midi": 50,
      "time": 65.4,
      "duration": 0.3,
      "velocity": 0.85,
      "hand": "left"
    },
    {
      "midi": 62,
      "time": 65.4,
      "duration": 0.15,
      "velocity": 0.7,
      "hand": "right"
    },
    {
      "midi": 67,
      "time": 65.4,
      "duration": 0.075,
      "velocity": 0.87,
      "hand": "right"
    },
    {
      "midi": 71,
      "time": 65.4,
      "duration": 0.15,
      "velocity": 0.85,
      "hand": "right"
    },
    {
      "midi": 42,
      "time": 65.7,
      "duration": 0.15,
      "velocity": 0.63,
      "hand": "left"
    },
    {
      "midi": 46,
      "time": 65.7,
      "duration": 0.075,
      "velocity": 0.63,
      "hand": "left"
    },
    {
      "midi": 47,
      "time": 65.7,
      "duration": 0.3,
      "velocity": 1,
      "hand": "left"
    },
    {
      "midi": 64,
      "time": 65.7,
      "duration": 0.075,
      "velocity": 0.89,
      "hand": "right"
    },
    {
      "midi": 67,
      "time": 65.7,
      "duration": 0.15,
      "velocity": 0.99,
      "hand": "right"
    },
    {
      "midi": 68,
      "time": 65.7,
      "duration": 0.075,
      "velocity": 0.72,
      "hand": "right"
    },
    {
      "midi": 72,
      "time": 65.7,
      "duration": 0.075,
      "velocity": 1,
      "hand": "right"
    },
    {
      "midi": 38,
      "time": 66,
      "duration": 0.15,
      "velocity": 0.63,
      "hand": "left"
    },
    {
      "midi": 40,
      "time": 66,
      "duration": 0.3,
      "velocity": 0.97,
      "hand": "left"
    },
    {
      "midi": 43,
      "time": 66,
      "duration": 0.45,
      "velocity": 1,
      "hand": "left"
    },
    {
      "midi": 44,
      "time": 66,
      "duration": 0.15,
      "velocity": 0.63,
      "hand": "left"
    },
    {
      "midi": 62,
      "time": 66,
      "duration": 0.3,
      "velocity": 0.94,
      "hand": "right"
    },
    {
      "midi": 62,
      "time": 66,
      "duration": 1.05,
      "velocity": 0.63,
      "hand": "right"
    },
    {
      "midi": 67,
      "time": 66,
      "duration": 0.3,
      "velocity": 1,
      "hand": "right"
    },
    {
      "midi": 71,
      "time": 66,
      "duration": 0.3,
      "velocity": 1,
      "hand": "right"
    },
    {
      "midi": 86,
      "time": 66,
      "duration": 1.05,
      "velocity": 0.92,
      "hand": "right"
    },
    {
      "midi": 46,
      "time": 66.3,
      "duration": 0.075,
      "velocity": 0.63,
      "hand": "left"
    },
    {
      "midi": 38,
      "time": 66.6,
      "duration": 0.3,
      "velocity": 0.63,
      "hand": "left"
    },
    {
      "midi": 42,
      "time": 66.6,
      "duration": 0.3,
      "velocity": 1,
      "hand": "left"
    },
    {
      "midi": 44,
      "time": 66.6,
      "duration": 0.075,
      "velocity": 0.63,
      "hand": "left"
    },
    {
      "midi": 51,
      "time": 66.6,
      "duration": 0.075,
      "velocity": 0.63,
      "hand": "left"
    },
    {
      "midi": 62,
      "time": 66.6,
      "duration": 0.15,
      "velocity": 1,
      "hand": "right"
    },
    {
      "midi": 62,
      "time": 66.6,
      "duration": 0.6,
      "velocity": 1,
      "hand": "right"
    },
    {
      "midi": 66,
      "time": 66.6,
      "duration": 0.15,
      "velocity": 1,
      "hand": "right"
    },
    {
      "midi": 69,
      "time": 66.6,
      "duration": 0.15,
      "velocity": 0.97,
      "hand": "right"
    },
    {
      "midi": 44,
      "time": 66.75,
      "duration": 0.075,
      "velocity": 0.63,
      "hand": "left"
    },
    {
      "midi": 46,
      "time": 66.75,
      "duration": 0.075,
      "velocity": 0.63,
      "hand": "left"
    },
    {
      "midi": 44,
      "time": 66.9,
      "duration": 0.075,
      "velocity": 0.63,
      "hand": "left"
    },
    {
      "midi": 46,
      "time": 66.9,
      "duration": 0.075,
      "velocity": 0.63,
      "hand": "left"
    },
    {
      "midi": 44,
      "time": 67.05,
      "duration": 0.075,
      "velocity": 0.63,
      "hand": "left"
    },
    {
      "midi": 46,
      "time": 67.05,
      "duration": 0.075,
      "velocity": 0.63,
      "hand": "left"
    },
    {
      "midi": 38,
      "time": 67.2,
      "duration": 0.15,
      "velocity": 0.63,
      "hand": "left"
    },
    {
      "midi": 43,
      "time": 67.2,
      "duration": 0.15,
      "velocity": 1,
      "hand": "left"
    },
    {
      "midi": 43,
      "time": 67.2,
      "duration": 0.9,
      "velocity": 1,
      "hand": "left"
    },
    {
      "midi": 44,
      "time": 67.2,
      "duration": 0.075,
      "velocity": 0.63,
      "hand": "left"
    },
    {
      "midi": 55,
      "time": 67.2,
      "duration": 1.2,
      "velocity": 1,
      "hand": "left"
    },
    {
      "midi": 59,
      "time": 67.2,
      "duration": 0.075,
      "velocity": 0.79,
      "hand": "left"
    },
    {
      "midi": 59,
      "time": 67.2,
      "duration": 1.5,
      "velocity": 0.63,
      "hand": "left"
    },
    {
      "midi": 59,
      "time": 67.2,
      "duration": 0.9,
      "velocity": 1,
      "hand": "left"
    },
    {
      "midi": 62,
      "time": 67.2,
      "duration": 0.075,
      "velocity": 0.87,
      "hand": "right"
    },
    {
      "midi": 67,
      "time": 67.2,
      "duration": 0.075,
      "velocity": 0.97,
      "hand": "right"
    },
    {
      "midi": 67,
      "time": 67.2,
      "duration": 0.9,
      "velocity": 1,
      "hand": "right"
    },
    {
      "midi": 42,
      "time": 67.5,
      "duration": 0.15,
      "velocity": 0.63,
      "hand": "left"
    },
    {
      "midi": 46,
      "time": 67.5,
      "duration": 0.075,
      "velocity": 0.63,
      "hand": "left"
    },
    {
      "midi": 50,
      "time": 67.5,
      "duration": 0.075,
      "velocity": 0.81,
      "hand": "left"
    },
    {
      "midi": 59,
      "time": 67.5,
      "duration": 0.075,
      "velocity": 0.77,
      "hand": "left"
    },
    {
      "midi": 62,
      "time": 67.5,
      "duration": 0.075,
      "velocity": 0.94,
      "hand": "right"
    },
    {
      "midi": 67,
      "time": 67.5,
      "duration": 0.075,
      "velocity": 0.89,
      "hand": "right"
    },
    {
      "midi": 59,
      "time": 67.65,
      "duration": 0.15,
      "velocity": 0.38,
      "hand": "left"
    },
    {
      "midi": 62,
      "time": 67.65,
      "duration": 0.15,
      "velocity": 0.65,
      "hand": "right"
    },
    {
      "midi": 67,
      "time": 67.65,
      "duration": 0.15,
      "velocity": 0.72,
      "hand": "right"
    },
    {
      "midi": 38,
      "time": 67.8,
      "duration": 0.3,
      "velocity": 0.91,
      "hand": "left"
    },
    {
      "midi": 44,
      "time": 67.8,
      "duration": 0.15,
      "velocity": 0.63,
      "hand": "left"
    },
    {
      "midi": 42,
      "time": 68.1,
      "duration": 0.15,
      "velocity": 0.63,
      "hand": "left"
    },
    {
      "midi": 46,
      "time": 68.1,
      "duration": 0.075,
      "velocity": 0.63,
      "hand": "left"
    },
    {
      "midi": 47,
      "time": 68.1,
      "duration": 0.3,
      "velocity": 1,
      "hand": "left"
    },
    {
      "midi": 50,
      "time": 68.1,
      "duration": 0.15,
      "velocity": 0.8,
      "hand": "left"
    },
    {
      "midi": 59,
      "time": 68.1,
      "duration": 0.075,
      "velocity": 0.85,
      "hand": "left"
    },
    {
      "midi": 62,
      "time": 68.1,
      "duration": 0.075,
      "velocity": 0.94,
      "hand": "right"
    },
    {
      "midi": 62,
      "time": 68.1,
      "duration": 0.3,
      "velocity": 1,
      "hand": "right"
    },
    {
      "midi": 67,
      "time": 68.1,
      "duration": 0.075,
      "velocity": 1,
      "hand": "right"
    },
    {
      "midi": 71,
      "time": 68.1,
      "duration": 0.3,
      "velocity": 1,
      "hand": "right"
    },
    {
      "midi": 38,
      "time": 68.4,
      "duration": 0.15,
      "velocity": 0.63,
      "hand": "left"
    },
    {
      "midi": 43,
      "time": 68.4,
      "duration": 0.15,
      "velocity": 0.86,
      "hand": "left"
    },
    {
      "midi": 44,
      "time": 68.4,
      "duration": 0.075,
      "velocity": 0.63,
      "hand": "left"
    },
    {
      "midi": 50,
      "time": 68.4,
      "duration": 0.15,
      "velocity": 0.94,
      "hand": "left"
    },
    {
      "midi": 59,
      "time": 68.4,
      "duration": 0.15,
      "velocity": 0.67,
      "hand": "left"
    },
    {
      "midi": 62,
      "time": 68.4,
      "duration": 0.075,
      "velocity": 0.68,
      "hand": "right"
    },
    {
      "midi": 67,
      "time": 68.4,
      "duration": 0.075,
      "velocity": 0.92,
      "hand": "right"
    },
    {
      "midi": 71,
      "time": 68.4,
      "duration": 0.15,
      "velocity": 1,
      "hand": "right"
    },
    {
      "midi": 74,
      "time": 68.4,
      "duration": 0.15,
      "velocity": 0.94,
      "hand": "right"
    },
    {
      "midi": 74,
      "time": 68.4,
      "duration": 0.3,
      "velocity": 1,
      "hand": "right"
    },
    {
      "midi": 42,
      "time": 68.7,
      "duration": 0.15,
      "velocity": 0.63,
      "hand": "left"
    },
    {
      "midi": 46,
      "time": 68.7,
      "duration": 0.075,
      "velocity": 0.63,
      "hand": "left"
    },
    {
      "midi": 50,
      "time": 68.7,
      "duration": 0.15,
      "velocity": 0.79,
      "hand": "left"
    },
    {
      "midi": 59,
      "time": 68.7,
      "duration": 0.075,
      "velocity": 0.76,
      "hand": "left"
    },
    {
      "midi": 60,
      "time": 68.7,
      "duration": 0.3,
      "velocity": 0.63,
      "hand": "right"
    },
    {
      "midi": 62,
      "time": 68.7,
      "duration": 0.075,
      "velocity": 0.89,
      "hand": "right"
    },
    {
      "midi": 67,
      "time": 68.7,
      "duration": 0.075,
      "velocity": 0.89,
      "hand": "right"
    },
    {
      "midi": 71,
      "time": 68.7,
      "duration": 0.15,
      "velocity": 1,
      "hand": "right"
    },
    {
      "midi": 74,
      "time": 68.7,
      "duration": 0.15,
      "velocity": 0.99,
      "hand": "right"
    },
    {
      "midi": 74,
      "time": 68.7,
      "duration": 0.3,
      "velocity": 1,
      "hand": "right"
    },
    {
      "midi": 38,
      "time": 69,
      "duration": 0.3,
      "velocity": 1,
      "hand": "left"
    },
    {
      "midi": 44,
      "time": 69,
      "duration": 0.15,
      "velocity": 0.63,
      "hand": "left"
    },
    {
      "midi": 50,
      "time": 69,
      "duration": 0.45,
      "velocity": 1,
      "hand": "left"
    },
    {
      "midi": 59,
      "time": 69,
      "duration": 0.15,
      "velocity": 0.99,
      "hand": "left"
    },
    {
      "midi": 61,
      "time": 69,
      "duration": 0.3,
      "velocity": 0.63,
      "hand": "right"
    },
    {
      "midi": 62,
      "time": 69,
      "duration": 0.075,
      "velocity": 1,
      "hand": "right"
    },
    {
      "midi": 67,
      "time": 69,
      "duration": 0.075,
      "velocity": 1,
      "hand": "right"
    },
    {
      "midi": 71,
      "time": 69,
      "duration": 0.3,
      "velocity": 1,
      "hand": "right"
    },
    {
      "midi": 74,
      "time": 69,
      "duration": 0.45,
      "velocity": 1,
      "hand": "right"
    },
    {
      "midi": 74,
      "time": 69,
      "duration": 0.3,
      "velocity": 1,
      "hand": "right"
    },
    {
      "midi": 42,
      "time": 69.3,
      "duration": 0.15,
      "velocity": 0.63,
      "hand": "left"
    },
    {
      "midi": 46,
      "time": 69.3,
      "duration": 0.075,
      "velocity": 0.63,
      "hand": "left"
    },
    {
      "midi": 50,
      "time": 69.3,
      "duration": 0.15,
      "velocity": 0.8,
      "hand": "left"
    },
    {
      "midi": 52,
      "time": 69.3,
      "duration": 0.3,
      "velocity": 1,
      "hand": "left"
    },
    {
      "midi": 59,
      "time": 69.3,
      "duration": 0.075,
      "velocity": 0.73,
      "hand": "left"
    },
    {
      "midi": 62,
      "time": 69.3,
      "duration": 0.075,
      "velocity": 0.81,
      "hand": "right"
    },
    {
      "midi": 62,
      "time": 69.3,
      "duration": 0.3,
      "velocity": 0.63,
      "hand": "right"
    },
    {
      "midi": 67,
      "time": 69.3,
      "duration": 0.075,
      "velocity": 0.94,
      "hand": "right"
    },
    {
      "midi": 72,
      "time": 69.3,
      "duration": 0.3,
      "velocity": 1,
      "hand": "right"
    },
    {
      "midi": 76,
      "time": 69.3,
      "duration": 0.3,
      "velocity": 1,
      "hand": "right"
    },
    {
      "midi": 38,
      "time": 69.6,
      "duration": 0.3,
      "velocity": 0.63,
      "hand": "left"
    },
    {
      "midi": 43,
      "time": 69.6,
      "duration": 0.3,
      "velocity": 1,
      "hand": "left"
    },
    {
      "midi": 44,
      "time": 69.6,
      "duration": 0.075,
      "velocity": 0.63,
      "hand": "left"
    },
    {
      "midi": 50,
      "time": 69.6,
      "duration": 0.9,
      "velocity": 0.89,
      "hand": "left"
    },
    {
      "midi": 59,
      "time": 69.6,
      "duration": 0.075,
      "velocity": 1,
      "hand": "left"
    },
    {
      "midi": 62,
      "time": 69.6,
      "duration": 0.075,
      "velocity": 1,
      "hand": "right"
    },
    {
      "midi": 67,
      "time": 69.6,
      "duration": 0.075,
      "velocity": 1,
      "hand": "right"
    },
    {
      "midi": 71,
      "time": 69.6,
      "duration": 0.3,
      "velocity": 0.63,
      "hand": "right"
    },
    {
      "midi": 71,
      "time": 69.6,
      "duration": 0.9,
      "velocity": 1,
      "hand": "right"
    },
    {
      "midi": 74,
      "time": 69.6,
      "duration": 0.9,
      "velocity": 0.89,
      "hand": "right"
    },
    {
      "midi": 42,
      "time": 69.9,
      "duration": 0.15,
      "velocity": 0.63,
      "hand": "left"
    },
    {
      "midi": 46,
      "time": 69.9,
      "duration": 0.075,
      "velocity": 0.63,
      "hand": "left"
    },
    {
      "midi": 50,
      "time": 69.9,
      "duration": 0.15,
      "velocity": 0.83,
      "hand": "left"
    },
    {
      "midi": 59,
      "time": 69.9,
      "duration": 0.075,
      "velocity": 0.89,
      "hand": "left"
    },
    {
      "midi": 62,
      "time": 69.9,
      "duration": 0.075,
      "velocity": 1,
      "hand": "right"
    },
    {
      "midi": 67,
      "time": 69.9,
      "duration": 0.075,
      "velocity": 0.94,
      "hand": "right"
    },
    {
      "midi": 67,
      "time": 69.9,
      "duration": 0.3,
      "velocity": 0.63,
      "hand": "right"
    },
    {
      "midi": 91,
      "time": 69.9,
      "duration": 0.075,
      "velocity": 0.92,
      "hand": "right"
    },
    {
      "midi": 91,
      "time": 69.9,
      "duration": 0.15,
      "velocity": 0.81,
      "hand": "right"
    },
    {
      "midi": 93,
      "time": 69.9,
      "duration": 0.15,
      "velocity": 0.87,
      "hand": "right"
    },
    {
      "midi": 59,
      "time": 70.05,
      "duration": 0.075,
      "velocity": 0.72,
      "hand": "left"
    },
    {
      "midi": 62,
      "time": 70.05,
      "duration": 0.075,
      "velocity": 0.89,
      "hand": "right"
    },
    {
      "midi": 67,
      "time": 70.05,
      "duration": 0.075,
      "velocity": 0.92,
      "hand": "right"
    },
    {
      "midi": 67,
      "time": 70.05,
      "duration": 0.15,
      "velocity": 0.87,
      "hand": "right"
    },
    {
      "midi": 90,
      "time": 70.05,
      "duration": 0.15,
      "velocity": 0.92,
      "hand": "right"
    },
    {
      "midi": 91,
      "time": 70.05,
      "duration": 0.075,
      "velocity": 0.89,
      "hand": "right"
    },
    {
      "midi": 38,
      "time": 70.2,
      "duration": 0.3,
      "velocity": 1,
      "hand": "left"
    },
    {
      "midi": 44,
      "time": 70.2,
      "duration": 0.075,
      "velocity": 0.63,
      "hand": "left"
    },
    {
      "midi": 59,
      "time": 70.2,
      "duration": 0.075,
      "velocity": 0.77,
      "hand": "left"
    },
    {
      "midi": 62,
      "time": 70.2,
      "duration": 0.075,
      "velocity": 0.81,
      "hand": "right"
    },
    {
      "midi": 62,
      "time": 70.2,
      "duration": 1.65,
      "velocity": 0.63,
      "hand": "right"
    },
    {
      "midi": 86,
      "time": 70.35,
      "duration": 0.075,
      "velocity": 0.92,
      "hand": "right"
    },
    {
      "midi": 42,
      "time": 70.5,
      "duration": 0.15,
      "velocity": 0.63,
      "hand": "left"
    },
    {
      "midi": 46,
      "time": 70.5,
      "duration": 0.075,
      "velocity": 0.63,
      "hand": "left"
    },
    {
      "midi": 47,
      "time": 70.5,
      "duration": 0.3,
      "velocity": 1,
      "hand": "left"
    },
    {
      "midi": 50,
      "time": 70.5,
      "duration": 0.15,
      "velocity": 0.83,
      "hand": "left"
    },
    {
      "midi": 59,
      "time": 70.5,
      "duration": 0.075,
      "velocity": 1,
      "hand": "left"
    },
    {
      "midi": 62,
      "time": 70.5,
      "duration": 0.075,
      "velocity": 1,
      "hand": "right"
    },
    {
      "midi": 67,
      "time": 70.5,
      "duration": 0.075,
      "velocity": 1,
      "hand": "right"
    },
    {
      "midi": 67,
      "time": 70.5,
      "duration": 0.3,
      "velocity": 1,
      "hand": "right"
    },
    {
      "midi": 71,
      "time": 70.5,
      "duration": 0.3,
      "velocity": 1,
      "hand": "right"
    },
    {
      "midi": 38,
      "time": 70.8,
      "duration": 0.15,
      "velocity": 0.63,
      "hand": "left"
    },
    {
      "midi": 43,
      "time": 70.8,
      "duration": 0.15,
      "velocity": 0.91,
      "hand": "left"
    },
    {
      "midi": 43,
      "time": 70.8,
      "duration": 1.05,
      "velocity": 1,
      "hand": "left"
    },
    {
      "midi": 44,
      "time": 70.8,
      "duration": 0.15,
      "velocity": 0.63,
      "hand": "left"
    },
    {
      "midi": 59,
      "time": 70.8,
      "duration": 0.075,
      "velocity": 0.89,
      "hand": "left"
    },
    {
      "midi": 62,
      "time": 70.8,
      "duration": 0.075,
      "velocity": 0.99,
      "hand": "right"
    },
    {
      "midi": 62,
      "time": 70.8,
      "duration": 1.05,
      "velocity": 1,
      "hand": "right"
    },
    {
      "midi": 67,
      "time": 70.8,
      "duration": 0.075,
      "velocity": 0.97,
      "hand": "right"
    },
    {
      "midi": 67,
      "time": 70.8,
      "duration": 1.05,
      "velocity": 1,
      "hand": "right"
    },
    {
      "midi": 83,
      "time": 70.8,
      "duration": 0.3,
      "velocity": 0.92,
      "hand": "right"
    },
    {
      "midi": 42,
      "time": 71.1,
      "duration": 0.15,
      "velocity": 0.63,
      "hand": "left"
    },
    {
      "midi": 46,
      "time": 71.1,
      "duration": 0.075,
      "velocity": 0.63,
      "hand": "left"
    },
    {
      "midi": 50,
      "time": 71.1,
      "duration": 0.15,
      "velocity": 0.8,
      "hand": "left"
    },
    {
      "midi": 59,
      "time": 71.1,
      "duration": 0.075,
      "velocity": 0.87,
      "hand": "left"
    },
    {
      "midi": 62,
      "time": 71.1,
      "duration": 0.075,
      "velocity": 1,
      "hand": "right"
    },
    {
      "midi": 67,
      "time": 71.1,
      "duration": 0.075,
      "velocity": 0.97,
      "hand": "right"
    },
    {
      "midi": 84,
      "time": 71.1,
      "duration": 0.3,
      "velocity": 0.92,
      "hand": "right"
    },
    {
      "midi": 38,
      "time": 71.4,
      "duration": 0.3,
      "velocity": 1,
      "hand": "left"
    },
    {
      "midi": 44,
      "time": 71.4,
      "duration": 0.15,
      "velocity": 0.63,
      "hand": "left"
    },
    {
      "midi": 59,
      "time": 71.4,
      "duration": 0.15,
      "velocity": 1,
      "hand": "left"
    },
    {
      "midi": 62,
      "time": 71.4,
      "duration": 0.15,
      "velocity": 1,
      "hand": "right"
    },
    {
      "midi": 67,
      "time": 71.4,
      "duration": 0.15,
      "velocity": 1,
      "hand": "right"
    },
    {
      "midi": 85,
      "time": 71.4,
      "duration": 0.3,
      "velocity": 0.92,
      "hand": "right"
    },
    {
      "midi": 42,
      "time": 71.7,
      "duration": 0.15,
      "velocity": 0.63,
      "hand": "left"
    },
    {
      "midi": 46,
      "time": 71.7,
      "duration": 0.075,
      "velocity": 0.63,
      "hand": "left"
    },
    {
      "midi": 50,
      "time": 71.7,
      "duration": 0.15,
      "velocity": 0.72,
      "hand": "left"
    },
    {
      "midi": 59,
      "time": 71.7,
      "duration": 0.15,
      "velocity": 0.85,
      "hand": "left"
    },
    {
      "midi": 62,
      "time": 71.7,
      "duration": 0.15,
      "velocity": 0.92,
      "hand": "right"
    },
    {
      "midi": 67,
      "time": 71.7,
      "duration": 0.15,
      "velocity": 0.99,
      "hand": "right"
    },
    {
      "midi": 86,
      "time": 71.7,
      "duration": 0.3,
      "velocity": 0.89,
      "hand": "right"
    },
    {
      "midi": 38,
      "time": 72,
      "duration": 0.3,
      "velocity": 0.63,
      "hand": "left"
    },
    {
      "midi": 43,
      "time": 72,
      "duration": 0.3,
      "velocity": 1,
      "hand": "left"
    },
    {
      "midi": 43,
      "time": 72,
      "duration": 0.9,
      "velocity": 1,
      "hand": "left"
    },
    {
      "midi": 44,
      "time": 72,
      "duration": 0.075,
      "velocity": 0.63,
      "hand": "left"
    },
    {
      "midi": 59,
      "time": 72,
      "duration": 0.075,
      "velocity": 1,
      "hand": "left"
    },
    {
      "midi": 59,
      "time": 72,
      "duration": 0.9,
      "velocity": 1,
      "hand": "left"
    },
    {
      "midi": 62,
      "time": 72,
      "duration": 0.075,
      "velocity": 1,
      "hand": "right"
    },
    {
      "midi": 67,
      "time": 72,
      "duration": 0.15,
      "velocity": 1,
      "hand": "right"
    },
    {
      "midi": 67,
      "time": 72,
      "duration": 0.3,
      "velocity": 0.63,
      "hand": "right"
    },
    {
      "midi": 67,
      "time": 72,
      "duration": 0.9,
      "velocity": 1,
      "hand": "right"
    },
    {
      "midi": 79,
      "time": 72,
      "duration": 0.6,
      "velocity": 0.92,
      "hand": "right"
    },
    {
      "midi": 42,
      "time": 72.3,
      "duration": 0.15,
      "velocity": 0.63,
      "hand": "left"
    },
    {
      "midi": 46,
      "time": 72.3,
      "duration": 0.075,
      "velocity": 0.63,
      "hand": "left"
    },
    {
      "midi": 50,
      "time": 72.3,
      "duration": 0.15,
      "velocity": 0.87,
      "hand": "left"
    },
    {
      "midi": 59,
      "time": 72.3,
      "duration": 0.075,
      "velocity": 0.99,
      "hand": "left"
    },
    {
      "midi": 59,
      "time": 72.3,
      "duration": 0.45,
      "velocity": 0.63,
      "hand": "left"
    },
    {
      "midi": 62,
      "time": 72.3,
      "duration": 0.075,
      "velocity": 1,
      "hand": "right"
    },
    {
      "midi": 67,
      "time": 72.3,
      "duration": 0.075,
      "velocity": 0.97,
      "hand": "right"
    },
    {
      "midi": 59,
      "time": 72.45,
      "duration": 0.075,
      "velocity": 0.57,
      "hand": "left"
    },
    {
      "midi": 62,
      "time": 72.45,
      "duration": 0.075,
      "velocity": 0.85,
      "hand": "right"
    },
    {
      "midi": 67,
      "time": 72.45,
      "duration": 0.075,
      "velocity": 0.85,
      "hand": "right"
    },
    {
      "midi": 38,
      "time": 72.6,
      "duration": 0.3,
      "velocity": 1,
      "hand": "left"
    },
    {
      "midi": 44,
      "time": 72.6,
      "duration": 0.3,
      "velocity": 0.63,
      "hand": "left"
    },
    {
      "midi": 59,
      "time": 72.6,
      "duration": 0.15,
      "velocity": 0.81,
      "hand": "left"
    },
    {
      "midi": 60,
      "time": 72.6,
      "duration": 0.3,
      "velocity": 0.63,
      "hand": "right"
    },
    {
      "midi": 62,
      "time": 72.6,
      "duration": 0.075,
      "velocity": 0.99,
      "hand": "right"
    },
    {
      "midi": 67,
      "time": 72.6,
      "duration": 0.15,
      "velocity": 0.97,
      "hand": "right"
    },
    {
      "midi": 42,
      "time": 72.9,
      "duration": 0.15,
      "velocity": 0.63,
      "hand": "left"
    },
    {
      "midi": 46,
      "time": 72.9,
      "duration": 0.15,
      "velocity": 0.63,
      "hand": "left"
    },
    {
      "midi": 47,
      "time": 72.9,
      "duration": 0.3,
      "velocity": 1,
      "hand": "left"
    },
    {
      "midi": 50,
      "time": 72.9,
      "duration": 0.15,
      "velocity": 0.77,
      "hand": "left"
    },
    {
      "midi": 59,
      "time": 72.9,
      "duration": 0.075,
      "velocity": 0.99,
      "hand": "left"
    },
    {
      "midi": 61,
      "time": 72.9,
      "duration": 0.3,
      "velocity": 0.63,
      "hand": "right"
    },
    {
      "midi": 62,
      "time": 72.9,
      "duration": 0.075,
      "velocity": 1,
      "hand": "right"
    },
    {
      "midi": 62,
      "time": 72.9,
      "duration": 0.3,
      "velocity": 1,
      "hand": "right"
    },
    {
      "midi": 67,
      "time": 72.9,
      "duration": 0.075,
      "velocity": 1,
      "hand": "right"
    },
    {
      "midi": 71,
      "time": 72.9,
      "duration": 0.3,
      "velocity": 1,
      "hand": "right"
    },
    {
      "midi": 38,
      "time": 73.2,
      "duration": 0.15,
      "velocity": 0.63,
      "hand": "left"
    },
    {
      "midi": 43,
      "time": 73.2,
      "duration": 0.15,
      "velocity": 0.87,
      "hand": "left"
    },
    {
      "midi": 44,
      "time": 73.2,
      "duration": 0.075,
      "velocity": 0.63,
      "hand": "left"
    },
    {
      "midi": 50,
      "time": 73.2,
      "duration": 0.15,
      "velocity": 1,
      "hand": "left"
    },
    {
      "midi": 59,
      "time": 73.2,
      "duration": 0.075,
      "velocity": 0.92,
      "hand": "left"
    },
    {
      "midi": 62,
      "time": 73.2,
      "duration": 0.15,
      "velocity": 1,
      "hand": "right"
    },
    {
      "midi": 67,
      "time": 73.2,
      "duration": 0.15,
      "velocity": 0.94,
      "hand": "right"
    },
    {
      "midi": 71,
      "time": 73.2,
      "duration": 0.15,
      "velocity": 1,
      "hand": "right"
    },
    {
      "midi": 74,
      "time": 73.2,
      "duration": 0.15,
      "velocity": 1,
      "hand": "right"
    },
    {
      "midi": 42,
      "time": 73.5,
      "duration": 0.15,
      "velocity": 0.63,
      "hand": "left"
    },
    {
      "midi": 46,
      "time": 73.5,
      "duration": 0.075,
      "velocity": 0.63,
      "hand": "left"
    },
    {
      "midi": 50,
      "time": 73.5,
      "duration": 0.15,
      "velocity": 0.89,
      "hand": "left"
    },
    {
      "midi": 50,
      "time": 73.5,
      "duration": 0.45,
      "velocity": 1,
      "hand": "left"
    },
    {
      "midi": 59,
      "time": 73.5,
      "duration": 0.075,
      "velocity": 0.94,
      "hand": "left"
    },
    {
      "midi": 62,
      "time": 73.5,
      "duration": 0.075,
      "velocity": 1,
      "hand": "right"
    },
    {
      "midi": 67,
      "time": 73.5,
      "duration": 0.075,
      "velocity": 1,
      "hand": "right"
    },
    {
      "midi": 71,
      "time": 73.5,
      "duration": 0.3,
      "velocity": 1,
      "hand": "right"
    },
    {
      "midi": 74,
      "time": 73.5,
      "duration": 0.45,
      "velocity": 1,
      "hand": "right"
    },
    {
      "midi": 38,
      "time": 73.8,
      "duration": 0.3,
      "velocity": 1,
      "hand": "left"
    },
    {
      "midi": 44,
      "time": 73.8,
      "duration": 0.15,
      "velocity": 0.63,
      "hand": "left"
    },
    {
      "midi": 48,
      "time": 73.8,
      "duration": 0.3,
      "velocity": 1,
      "hand": "left"
    },
    {
      "midi": 55,
      "time": 73.8,
      "duration": 0.45,
      "velocity": 0.63,
      "hand": "left"
    },
    {
      "midi": 58,
      "time": 73.8,
      "duration": 0.075,
      "velocity": 0.63,
      "hand": "left"
    },
    {
      "midi": 59,
      "time": 73.8,
      "duration": 0.075,
      "velocity": 1,
      "hand": "left"
    },
    {
      "midi": 62,
      "time": 73.8,
      "duration": 0.15,
      "velocity": 1,
      "hand": "right"
    },
    {
      "midi": 67,
      "time": 73.8,
      "duration": 0.075,
      "velocity": 1,
      "hand": "right"
    },
    {
      "midi": 69,
      "time": 73.8,
      "duration": 0.3,
      "velocity": 1,
      "hand": "right"
    },
    {
      "midi": 72,
      "time": 73.8,
      "duration": 0.3,
      "velocity": 1,
      "hand": "right"
    },
    {
      "midi": 42,
      "time": 74.1,
      "duration": 0.15,
      "velocity": 0.63,
      "hand": "left"
    },
    {
      "midi": 46,
      "time": 74.1,
      "duration": 0.15,
      "velocity": 0.63,
      "hand": "left"
    },
    {
      "midi": 47,
      "time": 74.1,
      "duration": 0.3,
      "velocity": 1,
      "hand": "left"
    },
    {
      "midi": 50,
      "time": 74.1,
      "duration": 0.15,
      "velocity": 1,
      "hand": "left"
    },
    {
      "midi": 59,
      "time": 74.1,
      "duration": 0.15,
      "velocity": 0.97,
      "hand": "left"
    },
    {
      "midi": 62,
      "time": 74.1,
      "duration": 0.075,
      "velocity": 1,
      "hand": "right"
    },
    {
      "midi": 67,
      "time": 74.1,
      "duration": 0.15,
      "velocity": 1,
      "hand": "right"
    },
    {
      "midi": 67,
      "time": 74.1,
      "duration": 0.3,
      "velocity": 1,
      "hand": "right"
    },
    {
      "midi": 71,
      "time": 74.1,
      "duration": 0.3,
      "velocity": 1,
      "hand": "right"
    },
    {
      "midi": 44,
      "time": 74.25,
      "duration": 0.075,
      "velocity": 0.63,
      "hand": "left"
    },
    {
      "midi": 46,
      "time": 74.25,
      "duration": 0.075,
      "velocity": 0.63,
      "hand": "left"
    },
    {
      "midi": 56,
      "time": 74.25,
      "duration": 0.15,
      "velocity": 0.63,
      "hand": "left"
    },
    {
      "midi": 38,
      "time": 74.4,
      "duration": 0.15,
      "velocity": 0.63,
      "hand": "left"
    },
    {
      "midi": 42,
      "time": 74.4,
      "duration": 0.15,
      "velocity": 1,
      "hand": "left"
    },
    {
      "midi": 44,
      "time": 74.4,
      "duration": 0.15,
      "velocity": 0.63,
      "hand": "left"
    },
    {
      "midi": 45,
      "time": 74.4,
      "duration": 0.15,
      "velocity": 1,
      "hand": "left"
    },
    {
      "midi": 57,
      "time": 74.4,
      "duration": 0.075,
      "velocity": 1,
      "hand": "left"
    },
    {
      "midi": 62,
      "time": 74.4,
      "duration": 0.075,
      "velocity": 1,
      "hand": "right"
    },
    {
      "midi": 66,
      "time": 74.4,
      "duration": 0.075,
      "velocity": 1,
      "hand": "right"
    },
    {
      "midi": 66,
      "time": 74.4,
      "duration": 1.05,
      "velocity": 1,
      "hand": "right"
    },
    {
      "midi": 69,
      "time": 74.4,
      "duration": 0.15,
      "velocity": 1,
      "hand": "right"
    },
    {
      "midi": 42,
      "time": 74.7,
      "duration": 0.15,
      "velocity": 0.63,
      "hand": "left"
    },
    {
      "midi": 46,
      "time": 74.7,
      "duration": 0.075,
      "velocity": 0.63,
      "hand": "left"
    },
    {
      "midi": 50,
      "time": 74.7,
      "duration": 0.075,
      "velocity": 0.99,
      "hand": "left"
    },
    {
      "midi": 50,
      "time": 74.7,
      "duration": 0.15,
      "velocity": 0.87,
      "hand": "left"
    },
    {
      "midi": 57,
      "time": 74.7,
      "duration": 0.075,
      "velocity": 1,
      "hand": "left"
    },
    {
      "midi": 62,
      "time": 74.7,
      "duration": 0.075,
      "velocity": 1,
      "hand": "right"
    },
    {
      "midi": 62,
      "time": 74.7,
      "duration": 0.15,
      "velocity": 0.63,
      "hand": "right"
    },
    {
      "midi": 66,
      "time": 74.7,
      "duration": 0.075,
      "velocity": 1,
      "hand": "right"
    },
    {
      "midi": 66,
      "time": 74.7,
      "duration": 0.15,
      "velocity": 0.94,
      "hand": "right"
    },
    {
      "midi": 74,
      "time": 74.7,
      "duration": 0.15,
      "velocity": 0.87,
      "hand": "right"
    },
    {
      "midi": 74,
      "time": 74.7,
      "duration": 0.075,
      "velocity": 1,
      "hand": "right"
    },
    {
      "midi": 90,
      "time": 74.7,
      "duration": 0.075,
      "velocity": 0.92,
      "hand": "right"
    },
    {
      "midi": 90,
      "time": 74.7,
      "duration": 0.15,
      "velocity": 0.71,
      "hand": "right"
    },
    {
      "midi": 91,
      "time": 74.7,
      "duration": 0.15,
      "velocity": 0.68,
      "hand": "right"
    },
    {
      "midi": 50,
      "time": 74.85,
      "duration": 0.15,
      "velocity": 0.89,
      "hand": "left"
    },
    {
      "midi": 57,
      "time": 74.85,
      "duration": 0.075,
      "velocity": 0.81,
      "hand": "left"
    },
    {
      "midi": 61,
      "time": 74.85,
      "duration": 0.15,
      "velocity": 0.63,
      "hand": "right"
    },
    {
      "midi": 62,
      "time": 74.85,
      "duration": 0.075,
      "velocity": 1,
      "hand": "right"
    },
    {
      "midi": 64,
      "time": 74.85,
      "duration": 0.15,
      "velocity": 0.94,
      "hand": "right"
    },
    {
      "midi": 66,
      "time": 74.85,
      "duration": 0.075,
      "velocity": 1,
      "hand": "right"
    },
    {
      "midi": 74,
      "time": 74.85,
      "duration": 0.15,
      "velocity": 0.89,
      "hand": "right"
    },
    {
      "midi": 88,
      "time": 74.85,
      "duration": 0.15,
      "velocity": 0.91,
      "hand": "right"
    },
    {
      "midi": 90,
      "time": 74.85,
      "duration": 0.075,
      "velocity": 0.92,
      "hand": "right"
    },
    {
      "midi": 38,
      "time": 75,
      "duration": 0.3,
      "velocity": 1,
      "hand": "left"
    },
    {
      "midi": 38,
      "time": 75,
      "duration": 0.15,
      "velocity": 0.63,
      "hand": "left"
    },
    {
      "midi": 44,
      "time": 75,
      "duration": 0.075,
      "velocity": 0.63,
      "hand": "left"
    },
    {
      "midi": 50,
      "time": 75,
      "duration": 0.15,
      "velocity": 1,
      "hand": "left"
    },
    {
      "midi": 60,
      "time": 75,
      "duration": 0.075,
      "velocity": 0.63,
      "hand": "right"
    },
    {
      "midi": 62,
      "time": 75,
      "duration": 0.075,
      "velocity": 0.94,
      "hand": "right"
    },
    {
      "midi": 74,
      "time": 75,
      "duration": 0.15,
      "velocity": 1,
      "hand": "right"
    },
    {
      "midi": 42,
      "time": 75.3,
      "duration": 0.15,
      "velocity": 0.63,
      "hand": "left"
    },
    {
      "midi": 46,
      "time": 75.3,
      "duration": 0.075,
      "velocity": 0.63,
      "hand": "left"
    },
    {
      "midi": 50,
      "time": 75.3,
      "duration": 0.15,
      "velocity": 0.93,
      "hand": "left"
    },
    {
      "midi": 57,
      "time": 75.3,
      "duration": 0.075,
      "velocity": 1,
      "hand": "left"
    },
    {
      "midi": 62,
      "time": 75.3,
      "duration": 0.075,
      "velocity": 1,
      "hand": "right"
    },
    {
      "midi": 62,
      "time": 75.3,
      "duration": 0.15,
      "velocity": 0.94,
      "hand": "right"
    },
    {
      "midi": 66,
      "time": 75.3,
      "duration": 0.075,
      "velocity": 1,
      "hand": "right"
    },
    {
      "midi": 66,
      "time": 75.3,
      "duration": 0.15,
      "velocity": 0.63,
      "hand": "right"
    },
    {
      "midi": 74,
      "time": 75.3,
      "duration": 0.15,
      "velocity": 1,
      "hand": "right"
    },
    {
      "midi": 91,
      "time": 75.3,
      "duration": 0.075,
      "velocity": 0.92,
      "hand": "right"
    },
    {
      "midi": 61,
      "time": 75.45,
      "duration": 0.15,
      "velocity": 0.94,
      "hand": "right"
    },
    {
      "midi": 64,
      "time": 75.45,
      "duration": 0.15,
      "velocity": 0.63,
      "hand": "right"
    },
    {
      "midi": 38,
      "time": 75.6,
      "duration": 0.15,
      "velocity": 0.63,
      "hand": "left"
    },
    {
      "midi": 42,
      "time": 75.6,
      "duration": 0.3,
      "velocity": 0.87,
      "hand": "left"
    },
    {
      "midi": 44,
      "time": 75.6,
      "duration": 0.15,
      "velocity": 0.63,
      "hand": "left"
    },
    {
      "midi": 50,
      "time": 75.6,
      "duration": 0.6,
      "velocity": 1,
      "hand": "left"
    },
    {
      "midi": 57,
      "time": 75.6,
      "duration": 0.075,
      "velocity": 0.99,
      "hand": "left"
    },
    {
      "midi": 60,
      "time": 75.6,
      "duration": 0.6,
      "velocity": 0.94,
      "hand": "right"
    },
    {
      "midi": 62,
      "time": 75.6,
      "duration": 0.075,
      "velocity": 1,
      "hand": "right"
    },
    {
      "midi": 66,
      "time": 75.6,
      "duration": 0.075,
      "velocity": 1,
      "hand": "right"
    },
    {
      "midi": 74,
      "time": 75.6,
      "duration": 0.6,
      "velocity": 1,
      "hand": "right"
    },
    {
      "midi": 93,
      "time": 75.6,
      "duration": 0.6,
      "velocity": 0.69,
      "hand": "right"
    },
    {
      "midi": 57,
      "time": 75.75,
      "duration": 0.075,
      "velocity": 0.99,
      "hand": "left"
    },
    {
      "midi": 62,
      "time": 75.75,
      "duration": 0.075,
      "velocity": 1,
      "hand": "right"
    },
    {
      "midi": 66,
      "time": 75.75,
      "duration": 0.075,
      "velocity": 1,
      "hand": "right"
    },
    {
      "midi": 42,
      "time": 75.9,
      "duration": 0.15,
      "velocity": 0.63,
      "hand": "left"
    },
    {
      "midi": 46,
      "time": 75.9,
      "duration": 0.075,
      "velocity": 0.63,
      "hand": "left"
    },
    {
      "midi": 50,
      "time": 75.9,
      "duration": 0.15,
      "velocity": 0.97,
      "hand": "left"
    },
    {
      "midi": 69,
      "time": 75.9,
      "duration": 0.15,
      "velocity": 0.63,
      "hand": "right"
    },
    {
      "midi": 67,
      "time": 76.05,
      "duration": 0.15,
      "velocity": 0.63,
      "hand": "right"
    },
    {
      "midi": 38,
      "time": 76.2,
      "duration": 0.3,
      "velocity": 0.63,
      "hand": "left"
    },
    {
      "midi": 44,
      "time": 76.2,
      "duration": 0.15,
      "velocity": 0.63,
      "hand": "left"
    },
    {
      "midi": 45,
      "time": 76.2,
      "duration": 0.3,
      "velocity": 1,
      "hand": "left"
    },
    {
      "midi": 54,
      "time": 76.2,
      "duration": 0.3,
      "velocity": 1,
      "hand": "left"
    },
    {
      "midi": 57,
      "time": 76.2,
      "duration": 0.15,
      "velocity": 1,
      "hand": "left"
    },
    {
      "midi": 62,
      "time": 76.2,
      "duration": 0.075,
      "velocity": 1,
      "hand": "right"
    },
    {
      "midi": 66,
      "time": 76.2,
      "duration": 0.075,
      "velocity": 1,
      "hand": "right"
    },
    {
      "midi": 69,
      "time": 76.2,
      "duration": 0.3,
      "velocity": 1,
      "hand": "right"
    },
    {
      "midi": 78,
      "time": 76.2,
      "duration": 0.3,
      "velocity": 1,
      "hand": "right"
    },
    {
      "midi": 52,
      "time": 76.35,
      "duration": 0.3,
      "velocity": 0.99,
      "hand": "left"
    },
    {
      "midi": 76,
      "time": 76.35,
      "duration": 0.3,
      "velocity": 0.99,
      "hand": "right"
    },
    {
      "midi": 42,
      "time": 76.5,
      "duration": 0.15,
      "velocity": 0.63,
      "hand": "left"
    },
    {
      "midi": 46,
      "time": 76.5,
      "duration": 0.075,
      "velocity": 0.63,
      "hand": "left"
    },
    {
      "midi": 50,
      "time": 76.5,
      "duration": 0.15,
      "velocity": 0.79,
      "hand": "left"
    },
    {
      "midi": 57,
      "time": 76.5,
      "duration": 0.075,
      "velocity": 1,
      "hand": "left"
    },
    {
      "midi": 62,
      "time": 76.5,
      "duration": 0.075,
      "velocity": 1,
      "hand": "right"
    },
    {
      "midi": 66,
      "time": 76.5,
      "duration": 0.15,
      "velocity": 1,
      "hand": "right"
    },
    {
      "midi": 67,
      "time": 76.5,
      "duration": 0.3,
      "velocity": 1,
      "hand": "right"
    },
    {
      "midi": 76,
      "time": 76.5,
      "duration": 0.3,
      "velocity": 1,
      "hand": "right"
    },
    {
      "midi": 50,
      "time": 76.65,
      "duration": 0.9,
      "velocity": 0.99,
      "hand": "left"
    },
    {
      "midi": 64,
      "time": 76.65,
      "duration": 0.15,
      "velocity": 0.63,
      "hand": "right"
    },
    {
      "midi": 74,
      "time": 76.65,
      "duration": 0.9,
      "velocity": 0.99,
      "hand": "right"
    },
    {
      "midi": 38,
      "time": 76.8,
      "duration": 0.3,
      "velocity": 1,
      "hand": "left"
    },
    {
      "midi": 38,
      "time": 76.8,
      "duration": 0.075,
      "velocity": 0.63,
      "hand": "left"
    },
    {
      "midi": 44,
      "time": 76.8,
      "duration": 0.075,
      "velocity": 0.63,
      "hand": "left"
    },
    {
      "midi": 62,
      "time": 76.8,
      "duration": 0.15,
      "velocity": 1,
      "hand": "right"
    },
    {
      "midi": 62,
      "time": 76.8,
      "duration": 0.3,
      "velocity": 0.63,
      "hand": "right"
    },
    {
      "midi": 66,
      "time": 76.8,
      "duration": 0.15,
      "velocity": 0.97,
      "hand": "right"
    },
    {
      "midi": 66,
      "time": 76.8,
      "duration": 0.9,
      "velocity": 1,
      "hand": "right"
    },
    {
      "midi": 72,
      "time": 76.8,
      "duration": 0.075,
      "velocity": 0.98,
      "hand": "right"
    },
    {
      "midi": 74,
      "time": 76.8,
      "duration": 0.9,
      "velocity": 1,
      "hand": "right"
    },
    {
      "midi": 42,
      "time": 77.1,
      "duration": 0.15,
      "velocity": 0.63,
      "hand": "left"
    },
    {
      "midi": 44,
      "time": 77.1,
      "duration": 0.075,
      "velocity": 0.63,
      "hand": "left"
    },
    {
      "midi": 46,
      "time": 77.1,
      "duration": 0.075,
      "velocity": 0.63,
      "hand": "left"
    },
    {
      "midi": 50,
      "time": 77.1,
      "duration": 0.15,
      "velocity": 0.89,
      "hand": "left"
    },
    {
      "midi": 62,
      "time": 77.1,
      "duration": 0.075,
      "velocity": 0.92,
      "hand": "right"
    },
    {
      "midi": 66,
      "time": 77.1,
      "duration": 0.075,
      "velocity": 0.94,
      "hand": "right"
    },
    {
      "midi": 66,
      "time": 77.1,
      "duration": 0.3,
      "velocity": 0.63,
      "hand": "right"
    },
    {
      "midi": 72,
      "time": 77.1,
      "duration": 0.075,
      "velocity": 0.94,
      "hand": "right"
    },
    {
      "midi": 90,
      "time": 77.1,
      "duration": 0.3,
      "velocity": 0.92,
      "hand": "right"
    },
    {
      "midi": 91,
      "time": 77.1,
      "duration": 0.15,
      "velocity": 0.73,
      "hand": "right"
    },
    {
      "midi": 44,
      "time": 77.25,
      "duration": 0.15,
      "velocity": 0.63,
      "hand": "left"
    },
    {
      "midi": 46,
      "time": 77.25,
      "duration": 0.15,
      "velocity": 0.63,
      "hand": "left"
    },
    {
      "midi": 62,
      "time": 77.25,
      "duration": 0.075,
      "velocity": 0.65,
      "hand": "right"
    },
    {
      "midi": 66,
      "time": 77.25,
      "duration": 0.15,
      "velocity": 0.92,
      "hand": "right"
    },
    {
      "midi": 72,
      "time": 77.25,
      "duration": 0.075,
      "velocity": 0.84,
      "hand": "right"
    },
    {
      "midi": 38,
      "time": 77.4,
      "duration": 0.15,
      "velocity": 0.63,
      "hand": "left"
    },
    {
      "midi": 40,
      "time": 77.4,
      "duration": 0.3,
      "velocity": 1,
      "hand": "left"
    },
    {
      "midi": 46,
      "time": 77.4,
      "duration": 0.075,
      "velocity": 0.63,
      "hand": "left"
    },
    {
      "midi": 62,
      "time": 77.4,
      "duration": 0.075,
      "velocity": 0.77,
      "hand": "right"
    },
    {
      "midi": 64,
      "time": 77.4,
      "duration": 0.3,
      "velocity": 0.63,
      "hand": "right"
    },
    {
      "midi": 66,
      "time": 77.4,
      "duration": 0.075,
      "velocity": 0.92,
      "hand": "right"
    },
    {
      "midi": 72,
      "time": 77.4,
      "duration": 0.075,
      "velocity": 0.91,
      "hand": "right"
    },
    {
      "midi": 93,
      "time": 77.4,
      "duration": 0.075,
      "velocity": 0.81,
      "hand": "right"
    },
    {
      "midi": 42,
      "time": 77.7,
      "duration": 0.15,
      "velocity": 0.63,
      "hand": "left"
    },
    {
      "midi": 46,
      "time": 77.7,
      "duration": 0.075,
      "velocity": 0.63,
      "hand": "left"
    },
    {
      "midi": 48,
      "time": 77.7,
      "duration": 0.3,
      "velocity": 0.99,
      "hand": "left"
    },
    {
      "midi": 50,
      "time": 77.7,
      "duration": 0.15,
      "velocity": 0.81,
      "hand": "left"
    },
    {
      "midi": 62,
      "time": 77.7,
      "duration": 0.075,
      "velocity": 1,
      "hand": "right"
    },
    {
      "midi": 62,
      "time": 77.7,
      "duration": 0.3,
      "velocity": 0.63,
      "hand": "right"
    },
    {
      "midi": 64,
      "time": 77.7,
      "duration": 0.3,
      "velocity": 1,
      "hand": "right"
    },
    {
      "midi": 65,
      "time": 77.7,
      "duration": 0.075,
      "velocity": 0.74,
      "hand": "right"
    },
    {
      "midi": 66,
      "time": 77.7,
      "duration": 0.075,
      "velocity": 1,
      "hand": "right"
    },
    {
      "midi": 72,
      "time": 77.7,
      "duration": 0.075,
      "velocity": 1,
      "hand": "right"
    },
    {
      "midi": 72,
      "time": 77.7,
      "duration": 0.3,
      "velocity": 0.99,
      "hand": "right"
    },
    {
      "midi": 72,
      "time": 77.7,
      "duration": 0.45,
      "velocity": 1,
      "hand": "right"
    },
    {
      "midi": 93,
      "time": 77.7,
      "duration": 0.15,
      "velocity": 0.92,
      "hand": "right"
    },
    {
      "midi": 90,
      "time": 77.85,
      "duration": 0.15,
      "velocity": 0.92,
      "hand": "right"
    },
    {
      "midi": 38,
      "time": 78,
      "duration": 0.15,
      "velocity": 0.63,
      "hand": "left"
    },
    {
      "midi": 41,
      "time": 78,
      "duration": 0.3,
      "velocity": 1,
      "hand": "left"
    },
    {
      "midi": 44,
      "time": 78,
      "duration": 0.075,
      "velocity": 0.63,
      "hand": "left"
    },
    {
      "midi": 47,
      "time": 78,
      "duration": 0.6,
      "velocity": 1,
      "hand": "left"
    },
    {
      "midi": 60,
      "time": 78,
      "duration": 1.05,
      "velocity": 0.63,
      "hand": "right"
    },
    {
      "midi": 62,
      "time": 78,
      "duration": 0.075,
      "velocity": 0.68,
      "hand": "right"
    },
    {
      "midi": 62,
      "time": 78,
      "duration": 0.6,
      "velocity": 0.92,
      "hand": "right"
    },
    {
      "midi": 66,
      "time": 78,
      "duration": 0.15,
      "velocity": 0.89,
      "hand": "right"
    },
    {
      "midi": 71,
      "time": 78,
      "duration": 0.6,
      "velocity": 1,
      "hand": "right"
    },
    {
      "midi": 72,
      "time": 78,
      "duration": 0.15,
      "velocity": 0.87,
      "hand": "right"
    },
    {
      "midi": 86,
      "time": 78,
      "duration": 0.15,
      "velocity": 0.92,
      "hand": "right"
    },
    {
      "midi": 42,
      "time": 78.3,
      "duration": 0.15,
      "velocity": 0.63,
      "hand": "left"
    },
    {
      "midi": 46,
      "time": 78.3,
      "duration": 0.075,
      "velocity": 0.63,
      "hand": "left"
    },
    {
      "midi": 50,
      "time": 78.3,
      "duration": 0.15,
      "velocity": 0.93,
      "hand": "left"
    },
    {
      "midi": 62,
      "time": 78.3,
      "duration": 0.075,
      "velocity": 0.65,
      "hand": "right"
    },
    {
      "midi": 66,
      "time": 78.3,
      "duration": 0.075,
      "velocity": 0.89,
      "hand": "right"
    },
    {
      "midi": 72,
      "time": 78.3,
      "duration": 0.075,
      "velocity": 0.82,
      "hand": "right"
    },
    {
      "midi": 88,
      "time": 78.3,
      "duration": 0.15,
      "velocity": 0.73,
      "hand": "right"
    },
    {
      "midi": 90,
      "time": 78.3,
      "duration": 0.15,
      "velocity": 0.92,
      "hand": "right"
    },
    {
      "midi": 38,
      "time": 78.6,
      "duration": 0.3,
      "velocity": 0.63,
      "hand": "left"
    },
    {
      "midi": 42,
      "time": 78.6,
      "duration": 0.3,
      "velocity": 1,
      "hand": "left"
    },
    {
      "midi": 44,
      "time": 78.6,
      "duration": 0.15,
      "velocity": 0.63,
      "hand": "left"
    },
    {
      "midi": 45,
      "time": 78.6,
      "duration": 0.6,
      "velocity": 1,
      "hand": "left"
    },
    {
      "midi": 60,
      "time": 78.6,
      "duration": 0.6,
      "velocity": 1,
      "hand": "right"
    },
    {
      "midi": 62,
      "time": 78.6,
      "duration": 0.075,
      "velocity": 1,
      "hand": "right"
    },
    {
      "midi": 66,
      "time": 78.6,
      "duration": 0.15,
      "velocity": 1,
      "hand": "right"
    },
    {
      "midi": 69,
      "time": 78.6,
      "duration": 0.6,
      "velocity": 1,
      "hand": "right"
    },
    {
      "midi": 72,
      "time": 78.6,
      "duration": 0.15,
      "velocity": 1,
      "hand": "right"
    },
    {
      "midi": 86,
      "time": 78.6,
      "duration": 0.075,
      "velocity": 0.92,
      "hand": "right"
    },
    {
      "midi": 42,
      "time": 78.9,
      "duration": 0.3,
      "velocity": 0.63,
      "hand": "left"
    },
    {
      "midi": 46,
      "time": 78.9,
      "duration": 0.15,
      "velocity": 0.63,
      "hand": "left"
    },
    {
      "midi": 57,
      "time": 78.9,
      "duration": 0.15,
      "velocity": 0.97,
      "hand": "left"
    },
    {
      "midi": 62,
      "time": 78.9,
      "duration": 0.075,
      "velocity": 0.99,
      "hand": "right"
    },
    {
      "midi": 66,
      "time": 78.9,
      "duration": 0.15,
      "velocity": 1,
      "hand": "right"
    },
    {
      "midi": 72,
      "time": 78.9,
      "duration": 0.075,
      "velocity": 0.98,
      "hand": "right"
    },
    {
      "midi": 88,
      "time": 78.9,
      "duration": 0.15,
      "velocity": 0.92,
      "hand": "right"
    },
    {
      "midi": 90,
      "time": 79.05,
      "duration": 0.15,
      "velocity": 0.68,
      "hand": "right"
    },
    {
      "midi": 38,
      "time": 79.2,
      "duration": 0.075,
      "velocity": 0.63,
      "hand": "left"
    },
    {
      "midi": 43,
      "time": 79.2,
      "duration": 0.3,
      "velocity": 1,
      "hand": "left"
    },
    {
      "midi": 44,
      "time": 79.2,
      "duration": 0.075,
      "velocity": 0.63,
      "hand": "left"
    },
    {
      "midi": 52,
      "time": 79.2,
      "duration": 0.15,
      "velocity": 1,
      "hand": "left"
    },
    {
      "midi": 62,
      "time": 79.2,
      "duration": 0.15,
      "velocity": 1,
      "hand": "right"
    },
    {
      "midi": 67,
      "time": 79.2,
      "duration": 0.075,
      "velocity": 1,
      "hand": "right"
    },
    {
      "midi": 69,
      "time": 79.2,
      "duration": 0.3,
      "velocity": 1,
      "hand": "right"
    },
    {
      "midi": 71,
      "time": 79.2,
      "duration": 0.075,
      "velocity": 1,
      "hand": "right"
    },
    {
      "midi": 76,
      "time": 79.2,
      "duration": 0.15,
      "velocity": 1,
      "hand": "right"
    },
    {
      "midi": 91,
      "time": 79.2,
      "duration": 0.3,
      "velocity": 0.92,
      "hand": "right"
    },
    {
      "midi": 42,
      "time": 79.5,
      "duration": 0.15,
      "velocity": 0.63,
      "hand": "left"
    },
    {
      "midi": 46,
      "time": 79.5,
      "duration": 0.075,
      "velocity": 0.63,
      "hand": "left"
    },
    {
      "midi": 50,
      "time": 79.5,
      "duration": 0.6,
      "velocity": 1,
      "hand": "left"
    },
    {
      "midi": 55,
      "time": 79.5,
      "duration": 0.075,
      "velocity": 1,
      "hand": "left"
    },
    {
      "midi": 62,
      "time": 79.5,
      "duration": 0.075,
      "velocity": 0.94,
      "hand": "right"
    },
    {
      "midi": 62,
      "time": 79.5,
      "duration": 0.3,
      "velocity": 0.63,
      "hand": "right"
    },
    {
      "midi": 67,
      "time": 79.5,
      "duration": 0.075,
      "velocity": 1,
      "hand": "right"
    },
    {
      "midi": 67,
      "time": 79.5,
      "duration": 0.15,
      "velocity": 1,
      "hand": "right"
    },
    {
      "midi": 71,
      "time": 79.5,
      "duration": 0.075,
      "velocity": 0.99,
      "hand": "right"
    },
    {
      "midi": 74,
      "time": 79.5,
      "duration": 0.6,
      "velocity": 1,
      "hand": "right"
    },
    {
      "midi": 83,
      "time": 79.5,
      "duration": 0.15,
      "velocity": 0.92,
      "hand": "right"
    },
    {
      "midi": 62,
      "time": 79.65,
      "duration": 0.075,
      "velocity": 0.79,
      "hand": "right"
    },
    {
      "midi": 67,
      "time": 79.65,
      "duration": 0.075,
      "velocity": 1,
      "hand": "right"
    },
    {
      "midi": 71,
      "time": 79.65,
      "duration": 0.15,
      "velocity": 0.89,
      "hand": "right"
    },
    {
      "midi": 84,
      "time": 79.65,
      "duration": 0.15,
      "velocity": 0.92,
      "hand": "right"
    },
    {
      "midi": 38,
      "time": 79.8,
      "duration": 0.3,
      "velocity": 1,
      "hand": "left"
    },
    {
      "midi": 38,
      "time": 79.8,
      "duration": 0.15,
      "velocity": 0.63,
      "hand": "left"
    },
    {
      "midi": 44,
      "time": 79.8,
      "duration": 0.075,
      "velocity": 0.63,
      "hand": "left"
    },
    {
      "midi": 67,
      "time": 79.8,
      "duration": 0.3,
      "velocity": 0.63,
      "hand": "right"
    },
    {
      "midi": 67,
      "time": 79.8,
      "duration": 0.6,
      "velocity": 1,
      "hand": "right"
    },
    {
      "midi": 86,
      "time": 79.8,
      "duration": 0.075,
      "velocity": 0.92,
      "hand": "right"
    },
    {
      "midi": 42,
      "time": 80.1,
      "duration": 0.15,
      "velocity": 0.63,
      "hand": "left"
    },
    {
      "midi": 46,
      "time": 80.1,
      "duration": 0.075,
      "velocity": 0.63,
      "hand": "left"
    },
    {
      "midi": 47,
      "time": 80.1,
      "duration": 0.3,
      "velocity": 1,
      "hand": "left"
    },
    {
      "midi": 50,
      "time": 80.1,
      "duration": 0.15,
      "velocity": 0.99,
      "hand": "left"
    },
    {
      "midi": 59,
      "time": 80.1,
      "duration": 0.3,
      "velocity": 0.63,
      "hand": "left"
    },
    {
      "midi": 62,
      "time": 80.1,
      "duration": 0.15,
      "velocity": 1,
      "hand": "right"
    },
    {
      "midi": 62,
      "time": 80.1,
      "duration": 0.3,
      "velocity": 1,
      "hand": "right"
    },
    {
      "midi": 67,
      "time": 80.1,
      "duration": 0.075,
      "velocity": 1,
      "hand": "right"
    },
    {
      "midi": 71,
      "time": 80.1,
      "duration": 0.075,
      "velocity": 1,
      "hand": "right"
    },
    {
      "midi": 71,
      "time": 80.1,
      "duration": 0.3,
      "velocity": 1,
      "hand": "right"
    },
    {
      "midi": 79,
      "time": 80.1,
      "duration": 0.6,
      "velocity": 0.92,
      "hand": "right"
    },
    {
      "midi": 38,
      "time": 80.4,
      "duration": 0.15,
      "velocity": 0.63,
      "hand": "left"
    },
    {
      "midi": 43,
      "time": 80.4,
      "duration": 0.3,
      "velocity": 1,
      "hand": "left"
    },
    {
      "midi": 43,
      "time": 80.4,
      "duration": 0.6,
      "velocity": 1,
      "hand": "left"
    },
    {
      "midi": 44,
      "time": 80.4,
      "duration": 0.15,
      "velocity": 0.63,
      "hand": "left"
    },
    {
      "midi": 62,
      "time": 80.4,
      "duration": 0.15,
      "velocity": 0.89,
      "hand": "right"
    },
    {
      "midi": 64,
      "time": 80.4,
      "duration": 0.15,
      "velocity": 1,
      "hand": "right"
    },
    {
      "midi": 67,
      "time": 80.4,
      "duration": 0.075,
      "velocity": 1,
      "hand": "right"
    },
    {
      "midi": 67,
      "time": 80.4,
      "duration": 0.6,
      "velocity": 1,
      "hand": "right"
    },
    {
      "midi": 71,
      "time": 80.4,
      "duration": 0.075,
      "velocity": 0.94,
      "hand": "right"
    },
    {
      "midi": 71,
      "time": 80.4,
      "duration": 0.6,
      "velocity": 1,
      "hand": "right"
    },
    {
      "midi": 62,
      "time": 80.55,
      "duration": 0.075,
      "velocity": 0.57,
      "hand": "right"
    },
    {
      "midi": 64,
      "time": 80.55,
      "duration": 0.15,
      "velocity": 0.54,
      "hand": "right"
    },
    {
      "midi": 42,
      "time": 80.7,
      "duration": 0.15,
      "velocity": 0.63,
      "hand": "left"
    },
    {
      "midi": 46,
      "time": 80.7,
      "duration": 0.075,
      "velocity": 0.63,
      "hand": "left"
    },
    {
      "midi": 50,
      "time": 80.7,
      "duration": 0.15,
      "velocity": 0.99,
      "hand": "left"
    },
    {
      "midi": 62,
      "time": 80.7,
      "duration": 0.075,
      "velocity": 0.92,
      "hand": "right"
    },
    {
      "midi": 67,
      "time": 80.7,
      "duration": 0.075,
      "velocity": 1,
      "hand": "right"
    },
    {
      "midi": 71,
      "time": 80.7,
      "duration": 0.075,
      "velocity": 0.97,
      "hand": "right"
    },
    {
      "midi": 38,
      "time": 81,
      "duration": 0.3,
      "velocity": 0.63,
      "hand": "left"
    },
    {
      "midi": 44,
      "time": 81,
      "duration": 0.3,
      "velocity": 1,
      "hand": "left"
    },
    {
      "midi": 44,
      "time": 81,
      "duration": 0.15,
      "velocity": 0.63,
      "hand": "left"
    },
    {
      "midi": 47,
      "time": 81,
      "duration": 0.6,
      "velocity": 1,
      "hand": "left"
    },
    {
      "midi": 62,
      "time": 81,
      "duration": 0.15,
      "velocity": 1,
      "hand": "right"
    },
    {
      "midi": 62,
      "time": 81,
      "duration": 0.3,
      "velocity": 1,
      "hand": "right"
    },
    {
      "midi": 64,
      "time": 81,
      "duration": 0.3,
      "velocity": 0.63,
      "hand": "right"
    },
    {
      "midi": 67,
      "time": 81,
      "duration": 0.15,
      "velocity": 1,
      "hand": "right"
    },
    {
      "midi": 67,
      "time": 81,
      "duration": 0.6,
      "velocity": 1,
      "hand": "right"
    },
    {
      "midi": 71,
      "time": 81,
      "duration": 0.15,
      "velocity": 1,
      "hand": "right"
    },
    {
      "midi": 71,
      "time": 81,
      "duration": 0.6,
      "velocity": 1,
      "hand": "right"
    },
    {
      "midi": 42,
      "time": 81.3,
      "duration": 0.15,
      "velocity": 0.63,
      "hand": "left"
    },
    {
      "midi": 46,
      "time": 81.3,
      "duration": 0.15,
      "velocity": 0.63,
      "hand": "left"
    },
    {
      "midi": 52,
      "time": 81.3,
      "duration": 0.15,
      "velocity": 0.72,
      "hand": "left"
    },
    {
      "midi": 61,
      "time": 81.3,
      "duration": 0.3,
      "velocity": 1,
      "hand": "right"
    },
    {
      "midi": 62,
      "time": 81.3,
      "duration": 0.15,
      "velocity": 1,
      "hand": "right"
    },
    {
      "midi": 62,
      "time": 81.3,
      "duration": 0.3,
      "velocity": 0.63,
      "hand": "right"
    },
    {
      "midi": 67,
      "time": 81.3,
      "duration": 0.15,
      "velocity": 1,
      "hand": "right"
    },
    {
      "midi": 71,
      "time": 81.3,
      "duration": 0.075,
      "velocity": 1,
      "hand": "right"
    },
    {
      "midi": 38,
      "time": 81.6,
      "duration": 0.15,
      "velocity": 0.63,
      "hand": "left"
    },
    {
      "midi": 44,
      "time": 81.6,
      "duration": 0.075,
      "velocity": 0.63,
      "hand": "left"
    },
    {
      "midi": 45,
      "time": 81.6,
      "duration": 0.15,
      "velocity": 1,
      "hand": "left"
    },
    {
      "midi": 50,
      "time": 81.6,
      "duration": 0.15,
      "velocity": 0.89,
      "hand": "left"
    },
    {
      "midi": 60,
      "time": 81.6,
      "duration": 0.075,
      "velocity": 0.63,
      "hand": "right"
    },
    {
      "midi": 62,
      "time": 81.6,
      "duration": 0.15,
      "velocity": 0.79,
      "hand": "right"
    },
    {
      "midi": 66,
      "time": 81.6,
      "duration": 0.15,
      "velocity": 0.94,
      "hand": "right"
    },
    {
      "midi": 72,
      "time": 81.6,
      "duration": 0.15,
      "velocity": 0.96,
      "hand": "right"
    },
    {
      "midi": 74,
      "time": 81.6,
      "duration": 0.15,
      "velocity": 0.89,
      "hand": "right"
    },
    {
      "midi": 42,
      "time": 81.9,
      "duration": 0.15,
      "velocity": 0.63,
      "hand": "left"
    },
    {
      "midi": 46,
      "time": 81.9,
      "duration": 0.15,
      "velocity": 0.63,
      "hand": "left"
    },
    {
      "midi": 50,
      "time": 81.9,
      "duration": 0.6,
      "velocity": 1,
      "hand": "left"
    },
    {
      "midi": 54,
      "time": 81.9,
      "duration": 0.15,
      "velocity": 1,
      "hand": "left"
    },
    {
      "midi": 54,
      "time": 81.9,
      "duration": 0.6,
      "velocity": 0.63,
      "hand": "left"
    },
    {
      "midi": 62,
      "time": 81.9,
      "duration": 0.075,
      "velocity": 0.87,
      "hand": "right"
    },
    {
      "midi": 66,
      "time": 81.9,
      "duration": 0.075,
      "velocity": 0.81,
      "hand": "right"
    },
    {
      "midi": 66,
      "time": 81.9,
      "duration": 0.9,
      "velocity": 1,
      "hand": "right"
    },
    {
      "midi": 72,
      "time": 81.9,
      "duration": 0.075,
      "velocity": 0.94,
      "hand": "right"
    },
    {
      "midi": 74,
      "time": 81.9,
      "duration": 0.6,
      "velocity": 1,
      "hand": "right"
    },
    {
      "midi": 86,
      "time": 81.9,
      "duration": 0.15,
      "velocity": 0.84,
      "hand": "right"
    },
    {
      "midi": 62,
      "time": 82.05,
      "duration": 0.075,
      "velocity": 0.81,
      "hand": "right"
    },
    {
      "midi": 66,
      "time": 82.05,
      "duration": 0.15,
      "velocity": 0.94,
      "hand": "right"
    },
    {
      "midi": 72,
      "time": 82.05,
      "duration": 0.15,
      "velocity": 0.96,
      "hand": "right"
    },
    {
      "midi": 88,
      "time": 82.05,
      "duration": 0.15,
      "velocity": 0.68,
      "hand": "right"
    },
    {
      "midi": 38,
      "time": 82.2,
      "duration": 0.3,
      "velocity": 1,
      "hand": "left"
    },
    {
      "midi": 44,
      "time": 82.2,
      "duration": 0.075,
      "velocity": 0.63,
      "hand": "left"
    },
    {
      "midi": 64,
      "time": 82.2,
      "duration": 0.075,
      "velocity": 1,
      "hand": "right"
    },
    {
      "midi": 66,
      "time": 82.2,
      "duration": 0.3,
      "velocity": 1,
      "hand": "right"
    },
    {
      "midi": 90,
      "time": 82.2,
      "duration": 0.075,
      "velocity": 0.92,
      "hand": "right"
    },
    {
      "midi": 42,
      "time": 82.5,
      "duration": 0.3,
      "velocity": 0.63,
      "hand": "left"
    },
    {
      "midi": 46,
      "time": 82.5,
      "duration": 0.075,
      "velocity": 0.63,
      "hand": "left"
    },
    {
      "midi": 48,
      "time": 82.5,
      "duration": 0.3,
      "velocity": 1,
      "hand": "left"
    },
    {
      "midi": 50,
      "time": 82.5,
      "duration": 0.15,
      "velocity": 0.99,
      "hand": "left"
    },
    {
      "midi": 52,
      "time": 82.5,
      "duration": 0.3,
      "velocity": 0.63,
      "hand": "left"
    },
    {
      "midi": 62,
      "time": 82.5,
      "duration": 0.075,
      "velocity": 0.94,
      "hand": "right"
    },
    {
      "midi": 64,
      "time": 82.5,
      "duration": 0.3,
      "velocity": 0.91,
      "hand": "right"
    },
    {
      "midi": 66,
      "time": 82.5,
      "duration": 0.15,
      "velocity": 0.97,
      "hand": "right"
    },
    {
      "midi": 72,
      "time": 82.5,
      "duration": 0.15,
      "velocity": 0.94,
      "hand": "right"
    },
    {
      "midi": 72,
      "time": 82.5,
      "duration": 0.3,
      "velocity": 1,
      "hand": "right"
    },
    {
      "midi": 88,
      "time": 82.5,
      "duration": 0.15,
      "velocity": 0.73,
      "hand": "right"
    },
    {
      "midi": 90,
      "time": 82.5,
      "duration": 0.15,
      "velocity": 0.92,
      "hand": "right"
    },
    {
      "midi": 38,
      "time": 82.8,
      "duration": 0.3,
      "velocity": 0.63,
      "hand": "left"
    },
    {
      "midi": 42,
      "time": 82.8,
      "duration": 0.3,
      "velocity": 1,
      "hand": "left"
    },
    {
      "midi": 44,
      "time": 82.8,
      "duration": 0.15,
      "velocity": 0.63,
      "hand": "left"
    },
    {
      "midi": 47,
      "time": 82.8,
      "duration": 0.6,
      "velocity": 1,
      "hand": "left"
    },
    {
      "midi": 50,
      "time": 82.8,
      "duration": 0.3,
      "velocity": 0.63,
      "hand": "left"
    },
    {
      "midi": 62,
      "time": 82.8,
      "duration": 0.075,
      "velocity": 0.79,
      "hand": "right"
    },
    {
      "midi": 62,
      "time": 82.8,
      "duration": 0.45,
      "velocity": 1,
      "hand": "right"
    },
    {
      "midi": 66,
      "time": 82.8,
      "duration": 0.15,
      "velocity": 0.92,
      "hand": "right"
    },
    {
      "midi": 71,
      "time": 82.8,
      "duration": 0.6,
      "velocity": 1,
      "hand": "right"
    },
    {
      "midi": 72,
      "time": 82.8,
      "duration": 0.15,
      "velocity": 0.87,
      "hand": "right"
    },
    {
      "midi": 86,
      "time": 82.8,
      "duration": 0.6,
      "velocity": 0.77,
      "hand": "right"
    },
    {
      "midi": 42,
      "time": 83.1,
      "duration": 0.15,
      "velocity": 0.63,
      "hand": "left"
    },
    {
      "midi": 46,
      "time": 83.1,
      "duration": 0.075,
      "velocity": 0.63,
      "hand": "left"
    },
    {
      "midi": 57,
      "time": 83.1,
      "duration": 0.075,
      "velocity": 1,
      "hand": "left"
    },
    {
      "midi": 60,
      "time": 83.1,
      "duration": 0.3,
      "velocity": 0.63,
      "hand": "right"
    },
    {
      "midi": 62,
      "time": 83.1,
      "duration": 0.075,
      "velocity": 0.61,
      "hand": "right"
    },
    {
      "midi": 66,
      "time": 83.1,
      "duration": 0.075,
      "velocity": 0.94,
      "hand": "right"
    },
    {
      "midi": 66,
      "time": 83.1,
      "duration": 0.3,
      "velocity": 1,
      "hand": "right"
    },
    {
      "midi": 72,
      "time": 83.1,
      "duration": 0.075,
      "velocity": 0.91,
      "hand": "right"
    },
    {
      "midi": 38,
      "time": 83.4,
      "duration": 0.15,
      "velocity": 1,
      "hand": "left"
    },
    {
      "midi": 38,
      "time": 83.4,
      "duration": 0.3,
      "velocity": 0.63,
      "hand": "left"
    },
    {
      "midi": 44,
      "time": 83.4,
      "duration": 0.15,
      "velocity": 0.63,
      "hand": "left"
    },
    {
      "midi": 45,
      "time": 83.4,
      "duration": 0.6,
      "velocity": 1,
      "hand": "left"
    },
    {
      "midi": 59,
      "time": 83.4,
      "duration": 0.15,
      "velocity": 0.63,
      "hand": "left"
    },
    {
      "midi": 62,
      "time": 83.4,
      "duration": 0.15,
      "velocity": 1,
      "hand": "right"
    },
    {
      "midi": 66,
      "time": 83.4,
      "duration": 0.15,
      "velocity": 1,
      "hand": "right"
    },
    {
      "midi": 66,
      "time": 83.4,
      "duration": 0.6,
      "velocity": 1,
      "hand": "right"
    },
    {
      "midi": 67,
      "time": 83.4,
      "duration": 0.3,
      "velocity": 1,
      "hand": "right"
    },
    {
      "midi": 69,
      "time": 83.4,
      "duration": 0.6,
      "velocity": 1,
      "hand": "right"
    },
    {
      "midi": 72,
      "time": 83.4,
      "duration": 0.15,
      "velocity": 1,
      "hand": "right"
    },
    {
      "midi": 84,
      "time": 83.4,
      "duration": 0.075,
      "velocity": 0.92,
      "hand": "right"
    },
    {
      "midi": 84,
      "time": 83.4,
      "duration": 0.45,
      "velocity": 0.91,
      "hand": "right"
    },
    {
      "midi": 86,
      "time": 83.4,
      "duration": 0.15,
      "velocity": 0.84,
      "hand": "right"
    },
    {
      "midi": 42,
      "time": 83.7,
      "duration": 0.3,
      "velocity": 0.63,
      "hand": "left"
    },
    {
      "midi": 46,
      "time": 83.7,
      "duration": 0.15,
      "velocity": 0.63,
      "hand": "left"
    },
    {
      "midi": 50,
      "time": 83.7,
      "duration": 0.15,
      "velocity": 1,
      "hand": "left"
    },
    {
      "midi": 57,
      "time": 83.7,
      "duration": 0.3,
      "velocity": 0.63,
      "hand": "left"
    },
    {
      "midi": 62,
      "time": 83.7,
      "duration": 0.15,
      "velocity": 0.85,
      "hand": "right"
    },
    {
      "midi": 66,
      "time": 83.7,
      "duration": 0.15,
      "velocity": 0.83,
      "hand": "right"
    },
    {
      "midi": 69,
      "time": 83.7,
      "duration": 0.3,
      "velocity": 0.99,
      "hand": "right"
    },
    {
      "midi": 72,
      "time": 83.7,
      "duration": 0.15,
      "velocity": 0.84,
      "hand": "right"
    },
    {
      "midi": 67,
      "time": 83.85,
      "duration": 0.3,
      "velocity": 1,
      "hand": "right"
    },
    {
      "midi": 38,
      "time": 84,
      "duration": 0.075,
      "velocity": 0.63,
      "hand": "left"
    },
    {
      "midi": 43,
      "time": 84,
      "duration": 0.15,
      "velocity": 1,
      "hand": "left"
    },
    {
      "midi": 44,
      "time": 84,
      "duration": 0.15,
      "velocity": 0.63,
      "hand": "left"
    },
    {
      "midi": 47,
      "time": 84,
      "duration": 0.15,
      "velocity": 1,
      "hand": "left"
    },
    {
      "midi": 55,
      "time": 84,
      "duration": 0.075,
      "velocity": 0.63,
      "hand": "left"
    },
    {
      "midi": 62,
      "time": 84,
      "duration": 0.15,
      "velocity": 1,
      "hand": "right"
    },
    {
      "midi": 67,
      "time": 84,
      "duration": 0.075,
      "velocity": 1,
      "hand": "right"
    },
    {
      "midi": 67,
      "time": 84,
      "duration": 0.15,
      "velocity": 1,
      "hand": "right"
    },
    {
      "midi": 67,
      "time": 84,
      "duration": 0.075,
      "velocity": 1,
      "hand": "right"
    },
    {
      "midi": 69,
      "time": 84,
      "duration": 0.075,
      "velocity": 1,
      "hand": "right"
    },
    {
      "midi": 71,
      "time": 84,
      "duration": 0.15,
      "velocity": 0.94,
      "hand": "right"
    },
    {
      "midi": 71,
      "time": 84,
      "duration": 0.45,
      "velocity": 1,
      "hand": "right"
    },
    {
      "midi": 83,
      "time": 84,
      "duration": 0.3,
      "velocity": 0.92,
      "hand": "right"
    },
    {
      "midi": 42,
      "time": 84.3,
      "duration": 0.15,
      "velocity": 0.63,
      "hand": "left"
    },
    {
      "midi": 44,
      "time": 84.3,
      "duration": 0.075,
      "velocity": 0.63,
      "hand": "left"
    },
    {
      "midi": 46,
      "time": 84.3,
      "duration": 0.075,
      "velocity": 0.63,
      "hand": "left"
    },
    {
      "midi": 47,
      "time": 84.3,
      "duration": 0.15,
      "velocity": 0.97,
      "hand": "left"
    },
    {
      "midi": 62,
      "time": 84.3,
      "duration": 0.075,
      "velocity": 0.99,
      "hand": "right"
    },
    {
      "midi": 67,
      "time": 84.3,
      "duration": 0.075,
      "velocity": 1,
      "hand": "right"
    },
    {
      "midi": 71,
      "time": 84.3,
      "duration": 0.075,
      "velocity": 1,
      "hand": "right"
    },
    {
      "midi": 74,
      "time": 84.3,
      "duration": 0.075,
      "velocity": 1,
      "hand": "right"
    },
    {
      "midi": 44,
      "time": 84.45,
      "duration": 0.075,
      "velocity": 0.63,
      "hand": "left"
    },
    {
      "midi": 46,
      "time": 84.45,
      "duration": 0.075,
      "velocity": 0.63,
      "hand": "left"
    },
    {
      "midi": 62,
      "time": 84.45,
      "duration": 0.15,
      "velocity": 0.63,
      "hand": "right"
    },
    {
      "midi": 64,
      "time": 84.45,
      "duration": 0.3,
      "velocity": 1,
      "hand": "right"
    },
    {
      "midi": 71,
      "time": 84.45,
      "duration": 0.15,
      "velocity": 0.63,
      "hand": "right"
    },
    {
      "midi": 74,
      "time": 84.45,
      "duration": 0.3,
      "velocity": 0.99,
      "hand": "right"
    },
    {
      "midi": 74,
      "time": 84.45,
      "duration": 0.15,
      "velocity": 0.91,
      "hand": "right"
    },
    {
      "midi": 76,
      "time": 84.45,
      "duration": 0.15,
      "velocity": 0.94,
      "hand": "right"
    },
    {
      "midi": 38,
      "time": 84.6,
      "duration": 0.15,
      "velocity": 1,
      "hand": "left"
    },
    {
      "midi": 38,
      "time": 84.6,
      "duration": 0.3,
      "velocity": 0.63,
      "hand": "left"
    },
    {
      "midi": 52,
      "time": 84.6,
      "duration": 0.6,
      "velocity": 1,
      "hand": "left"
    },
    {
      "midi": 64,
      "time": 84.6,
      "duration": 0.075,
      "velocity": 0.89,
      "hand": "right"
    },
    {
      "midi": 68,
      "time": 84.6,
      "duration": 0.075,
      "velocity": 1,
      "hand": "right"
    },
    {
      "midi": 71,
      "time": 84.6,
      "duration": 0.15,
      "velocity": 1,
      "hand": "right"
    },
    {
      "midi": 72,
      "time": 84.6,
      "duration": 0.3,
      "velocity": 0.64,
      "hand": "right"
    },
    {
      "midi": 76,
      "time": 84.6,
      "duration": 0.15,
      "velocity": 0.92,
      "hand": "right"
    },
    {
      "midi": 80,
      "time": 84.6,
      "duration": 0.6,
      "velocity": 0.96,
      "hand": "right"
    },
    {
      "midi": 62,
      "time": 84.75,
      "duration": 0.075,
      "velocity": 0.63,
      "hand": "right"
    },
    {
      "midi": 71,
      "time": 84.75,
      "duration": 0.3,
      "velocity": 0.65,
      "hand": "right"
    },
    {
      "midi": 74,
      "time": 84.75,
      "duration": 0.3,
      "velocity": 1,
      "hand": "right"
    },
    {
      "midi": 42,
      "time": 84.9,
      "duration": 0.3,
      "velocity": 0.63,
      "hand": "left"
    },
    {
      "midi": 46,
      "time": 84.9,
      "duration": 0.075,
      "velocity": 0.63,
      "hand": "left"
    },
    {
      "midi": 50,
      "time": 84.9,
      "duration": 0.15,
      "velocity": 1,
      "hand": "left"
    },
    {
      "midi": 62,
      "time": 84.9,
      "duration": 0.15,
      "velocity": 0.63,
      "hand": "right"
    },
    {
      "midi": 62,
      "time": 84.9,
      "duration": 0.3,
      "velocity": 1,
      "hand": "right"
    },
    {
      "midi": 64,
      "time": 84.9,
      "duration": 0.15,
      "velocity": 1,
      "hand": "right"
    },
    {
      "midi": 68,
      "time": 84.9,
      "duration": 0.15,
      "velocity": 1,
      "hand": "right"
    },
    {
      "midi": 69,
      "time": 84.9,
      "duration": 0.075,
      "velocity": 0.97,
      "hand": "right"
    },
    {
      "midi": 71,
      "time": 84.9,
      "duration": 0.15,
      "velocity": 1,
      "hand": "right"
    },
    {
      "midi": 69,
      "time": 85.05,
      "duration": 0.3,
      "velocity": 0.65,
      "hand": "right"
    },
    {
      "midi": 72,
      "time": 85.05,
      "duration": 0.075,
      "velocity": 0.92,
      "hand": "right"
    },
    {
      "midi": 38,
      "time": 85.2,
      "duration": 0.075,
      "velocity": 0.63,
      "hand": "left"
    },
    {
      "midi": 44,
      "time": 85.2,
      "duration": 0.15,
      "velocity": 0.63,
      "hand": "left"
    },
    {
      "midi": 45,
      "time": 85.2,
      "duration": 0.15,
      "velocity": 1,
      "hand": "left"
    },
    {
      "midi": 51,
      "time": 85.2,
      "duration": 0.075,
      "velocity": 0.63,
      "hand": "left"
    },
    {
      "midi": 57,
      "time": 85.2,
      "duration": 0.3,
      "velocity": 1,
      "hand": "left"
    },
    {
      "midi": 60,
      "time": 85.2,
      "duration": 0.075,
      "velocity": 0.63,
      "hand": "right"
    },
    {
      "midi": 60,
      "time": 85.2,
      "duration": 0.15,
      "velocity": 1,
      "hand": "right"
    },
    {
      "midi": 64,
      "time": 85.2,
      "duration": 0.15,
      "velocity": 1,
      "hand": "right"
    },
    {
      "midi": 69,
      "time": 85.2,
      "duration": 0.075,
      "velocity": 1,
      "hand": "right"
    },
    {
      "midi": 72,
      "time": 85.2,
      "duration": 0.075,
      "velocity": 1,
      "hand": "right"
    },
    {
      "midi": 72,
      "time": 85.2,
      "duration": 0.15,
      "velocity": 1,
      "hand": "right"
    },
    {
      "midi": 81,
      "time": 85.2,
      "duration": 0.075,
      "velocity": 0.83,
      "hand": "right"
    },
    {
      "midi": 46,
      "time": 85.35,
      "duration": 0.075,
      "velocity": 0.63,
      "hand": "left"
    },
    {
      "midi": 69,
      "time": 85.35,
      "duration": 0.15,
      "velocity": 1,
      "hand": "right"
    },
    {
      "midi": 42,
      "time": 85.5,
      "duration": 0.3,
      "velocity": 0.63,
      "hand": "left"
    },
    {
      "midi": 44,
      "time": 85.5,
      "duration": 0.075,
      "velocity": 0.63,
      "hand": "left"
    },
    {
      "midi": 46,
      "time": 85.5,
      "duration": 0.075,
      "velocity": 0.63,
      "hand": "left"
    },
    {
      "midi": 52,
      "time": 85.5,
      "duration": 0.15,
      "velocity": 1,
      "hand": "left"
    },
    {
      "midi": 57,
      "time": 85.5,
      "duration": 0.15,
      "velocity": 0.63,
      "hand": "left"
    },
    {
      "midi": 64,
      "time": 85.5,
      "duration": 0.075,
      "velocity": 0.97,
      "hand": "right"
    },
    {
      "midi": 64,
      "time": 85.5,
      "duration": 0.15,
      "velocity": 0.66,
      "hand": "right"
    },
    {
      "midi": 67,
      "time": 85.5,
      "duration": 0.075,
      "velocity": 0.92,
      "hand": "right"
    },
    {
      "midi": 69,
      "time": 85.5,
      "duration": 0.075,
      "velocity": 0.83,
      "hand": "right"
    },
    {
      "midi": 69,
      "time": 85.5,
      "duration": 0.15,
      "velocity": 0.87,
      "hand": "right"
    },
    {
      "midi": 72,
      "time": 85.5,
      "duration": 0.075,
      "velocity": 1,
      "hand": "right"
    },
    {
      "midi": 81,
      "time": 85.5,
      "duration": 0.15,
      "velocity": 0.87,
      "hand": "right"
    },
    {
      "midi": 44,
      "time": 85.65,
      "duration": 0.075,
      "velocity": 0.63,
      "hand": "left"
    },
    {
      "midi": 46,
      "time": 85.65,
      "duration": 0.075,
      "velocity": 0.63,
      "hand": "left"
    },
    {
      "midi": 57,
      "time": 85.65,
      "duration": 0.15,
      "velocity": 0.63,
      "hand": "left"
    },
    {
      "midi": 62,
      "time": 85.65,
      "duration": 0.3,
      "velocity": 1,
      "hand": "right"
    },
    {
      "midi": 64,
      "time": 85.65,
      "duration": 0.075,
      "velocity": 0.53,
      "hand": "right"
    },
    {
      "midi": 66,
      "time": 85.65,
      "duration": 0.15,
      "velocity": 0.99,
      "hand": "right"
    },
    {
      "midi": 66,
      "time": 85.65,
      "duration": 0.3,
      "velocity": 0.68,
      "hand": "right"
    },
    {
      "midi": 72,
      "time": 85.65,
      "duration": 0.075,
      "velocity": 1,
      "hand": "right"
    },
    {
      "midi": 72,
      "time": 85.65,
      "duration": 0.15,
      "velocity": 1,
      "hand": "right"
    },
    {
      "midi": 74,
      "time": 85.65,
      "duration": 0.15,
      "velocity": 1,
      "hand": "right"
    },
    {
      "midi": 79,
      "time": 85.65,
      "duration": 0.15,
      "velocity": 0.79,
      "hand": "right"
    },
    {
      "midi": 38,
      "time": 85.8,
      "duration": 0.3,
      "velocity": 1,
      "hand": "left"
    },
    {
      "midi": 54,
      "time": 85.8,
      "duration": 0.6,
      "velocity": 1,
      "hand": "left"
    },
    {
      "midi": 62,
      "time": 85.8,
      "duration": 0.3,
      "velocity": 0.63,
      "hand": "right"
    },
    {
      "midi": 74,
      "time": 85.8,
      "duration": 0.3,
      "velocity": 1,
      "hand": "right"
    },
    {
      "midi": 74,
      "time": 85.8,
      "duration": 0.15,
      "velocity": 0.92,
      "hand": "right"
    },
    {
      "midi": 78,
      "time": 85.8,
      "duration": 0.075,
      "velocity": 0.89,
      "hand": "right"
    },
    {
      "midi": 60,
      "time": 85.95,
      "duration": 0.3,
      "velocity": 0.98,
      "hand": "right"
    },
    {
      "midi": 66,
      "time": 85.95,
      "duration": 0.15,
      "velocity": 1,
      "hand": "right"
    },
    {
      "midi": 72,
      "time": 85.95,
      "duration": 0.15,
      "velocity": 1,
      "hand": "right"
    },
    {
      "midi": 72,
      "time": 85.95,
      "duration": 0.45,
      "velocity": 0.94,
      "hand": "right"
    },
    {
      "midi": 73,
      "time": 85.95,
      "duration": 0.075,
      "velocity": 1,
      "hand": "right"
    },
    {
      "midi": 74,
      "time": 85.95,
      "duration": 0.15,
      "velocity": 0.94,
      "hand": "right"
    },
    {
      "midi": 42,
      "time": 86.1,
      "duration": 0.3,
      "velocity": 0.63,
      "hand": "left"
    },
    {
      "midi": 46,
      "time": 86.1,
      "duration": 0.075,
      "velocity": 0.63,
      "hand": "left"
    },
    {
      "midi": 50,
      "time": 86.1,
      "duration": 0.15,
      "velocity": 1,
      "hand": "left"
    },
    {
      "midi": 60,
      "time": 86.1,
      "duration": 0.3,
      "velocity": 0.63,
      "hand": "right"
    },
    {
      "midi": 62,
      "time": 86.1,
      "duration": 0.3,
      "velocity": 0.69,
      "hand": "right"
    },
    {
      "midi": 72,
      "time": 86.1,
      "duration": 0.15,
      "velocity": 0.92,
      "hand": "right"
    },
    {
      "midi": 78,
      "time": 86.1,
      "duration": 0.15,
      "velocity": 0.92,
      "hand": "right"
    },
    {
      "midi": 71,
      "time": 86.25,
      "duration": 0.15,
      "velocity": 1,
      "hand": "right"
    },
    {
      "midi": 81,
      "time": 86.25,
      "duration": 0.15,
      "velocity": 0.79,
      "hand": "right"
    },
    {
      "midi": 38,
      "time": 86.4,
      "duration": 0.075,
      "velocity": 0.63,
      "hand": "left"
    },
    {
      "midi": 43,
      "time": 86.4,
      "duration": 0.15,
      "velocity": 1,
      "hand": "left"
    },
    {
      "midi": 44,
      "time": 86.4,
      "duration": 0.075,
      "velocity": 0.63,
      "hand": "left"
    },
    {
      "midi": 51,
      "time": 86.4,
      "duration": 0.075,
      "velocity": 0.63,
      "hand": "left"
    },
    {
      "midi": 55,
      "time": 86.4,
      "duration": 0.6,
      "velocity": 0.99,
      "hand": "left"
    },
    {
      "midi": 59,
      "time": 86.4,
      "duration": 0.15,
      "velocity": 0.63,
      "hand": "left"
    },
    {
      "midi": 67,
      "time": 86.4,
      "duration": 0.15,
      "velocity": 1,
      "hand": "right"
    },
    {
      "midi": 71,
      "time": 86.4,
      "duration": 0.15,
      "velocity": 1,
      "hand": "right"
    },
    {
      "midi": 74,
      "time": 86.4,
      "duration": 0.15,
      "velocity": 1,
      "hand": "right"
    },
    {
      "midi": 74,
      "time": 86.4,
      "duration": 0.6,
      "velocity": 1,
      "hand": "right"
    },
    {
      "midi": 42,
      "time": 86.7,
      "duration": 0.3,
      "velocity": 0.63,
      "hand": "left"
    },
    {
      "midi": 44,
      "time": 86.7,
      "duration": 0.075,
      "velocity": 0.63,
      "hand": "left"
    },
    {
      "midi": 46,
      "time": 86.7,
      "duration": 0.075,
      "velocity": 0.63,
      "hand": "left"
    },
    {
      "midi": 55,
      "time": 86.7,
      "duration": 0.075,
      "velocity": 1,
      "hand": "left"
    },
    {
      "midi": 59,
      "time": 86.7,
      "duration": 0.15,
      "velocity": 0.63,
      "hand": "left"
    },
    {
      "midi": 67,
      "time": 86.7,
      "duration": 0.075,
      "velocity": 1,
      "hand": "right"
    },
    {
      "midi": 67,
      "time": 86.7,
      "duration": 0.15,
      "velocity": 0.77,
      "hand": "right"
    },
    {
      "midi": 69,
      "time": 86.7,
      "duration": 0.075,
      "velocity": 0.71,
      "hand": "right"
    },
    {
      "midi": 71,
      "time": 86.7,
      "duration": 0.075,
      "velocity": 1,
      "hand": "right"
    },
    {
      "midi": 71,
      "time": 86.7,
      "duration": 0.15,
      "velocity": 1,
      "hand": "right"
    },
    {
      "midi": 74,
      "time": 86.7,
      "duration": 0.075,
      "velocity": 1,
      "hand": "right"
    },
    {
      "midi": 44,
      "time": 86.85,
      "duration": 0.15,
      "velocity": 0.63,
      "hand": "left"
    },
    {
      "midi": 46,
      "time": 86.85,
      "duration": 0.075,
      "velocity": 0.63,
      "hand": "left"
    },
    {
      "midi": 55,
      "time": 86.85,
      "duration": 0.15,
      "velocity": 0.63,
      "hand": "left"
    },
    {
      "midi": 66,
      "time": 86.85,
      "duration": 0.15,
      "velocity": 0.71,
      "hand": "right"
    },
    {
      "midi": 67,
      "time": 86.85,
      "duration": 0.15,
      "velocity": 1,
      "hand": "right"
    },
    {
      "midi": 38,
      "time": 87,
      "duration": 0.45,
      "velocity": 0.63,
      "hand": "left"
    },
    {
      "midi": 40,
      "time": 87,
      "duration": 0.3,
      "velocity": 1,
      "hand": "left"
    },
    {
      "midi": 52,
      "time": 87,
      "duration": 0.3,
      "velocity": 0.94,
      "hand": "left"
    },
    {
      "midi": 60,
      "time": 87,
      "duration": 0.075,
      "velocity": 0.63,
      "hand": "right"
    },
    {
      "midi": 60,
      "time": 87,
      "duration": 0.15,
      "velocity": 1,
      "hand": "right"
    },
    {
      "midi": 64,
      "time": 87,
      "duration": 0.15,
      "velocity": 0.72,
      "hand": "right"
    },
    {
      "midi": 68,
      "time": 87,
      "duration": 0.075,
      "velocity": 1,
      "hand": "right"
    },
    {
      "midi": 70,
      "time": 87,
      "duration": 0.075,
      "velocity": 0.7,
      "hand": "right"
    },
    {
      "midi": 71,
      "time": 87,
      "duration": 0.15,
      "velocity": 1,
      "hand": "right"
    },
    {
      "midi": 72,
      "time": 87,
      "duration": 0.15,
      "velocity": 1,
      "hand": "right"
    },
    {
      "midi": 72,
      "time": 87,
      "duration": 0.075,
      "velocity": 0.92,
      "hand": "right"
    },
    {
      "midi": 76,
      "time": 87,
      "duration": 0.075,
      "velocity": 1,
      "hand": "right"
    },
    {
      "midi": 76,
      "time": 87,
      "duration": 0.6,
      "velocity": 0.94,
      "hand": "right"
    },
    {
      "midi": 42,
      "time": 87.3,
      "duration": 0.3,
      "velocity": 0.63,
      "hand": "left"
    },
    {
      "midi": 46,
      "time": 87.3,
      "duration": 0.075,
      "velocity": 0.63,
      "hand": "left"
    },
    {
      "midi": 50,
      "time": 87.3,
      "duration": 0.15,
      "velocity": 0.99,
      "hand": "left"
    },
    {
      "midi": 56,
      "time": 87.3,
      "duration": 0.15,
      "velocity": 1,
      "hand": "left"
    },
    {
      "midi": 60,
      "time": 87.3,
      "duration": 0.15,
      "velocity": 0.63,
      "hand": "right"
    },
    {
      "midi": 64,
      "time": 87.3,
      "duration": 0.15,
      "velocity": 0.72,
      "hand": "right"
    },
    {
      "midi": 68,
      "time": 87.3,
      "duration": 0.15,
      "velocity": 1,
      "hand": "right"
    },
    {
      "midi": 71,
      "time": 87.3,
      "duration": 0.15,
      "velocity": 1,
      "hand": "right"
    },
    {
      "midi": 72,
      "time": 87.3,
      "duration": 0.3,
      "velocity": 1,
      "hand": "right"
    },
    {
      "midi": 72,
      "time": 87.3,
      "duration": 0.15,
      "velocity": 0.92,
      "hand": "right"
    },
    {
      "midi": 75,
      "time": 87.3,
      "duration": 0.075,
      "velocity": 0.84,
      "hand": "right"
    },
    {
      "midi": 76,
      "time": 87.3,
      "duration": 0.15,
      "velocity": 1,
      "hand": "right"
    },
    {
      "midi": 59,
      "time": 87.45,
      "duration": 0.15,
      "velocity": 0.63,
      "hand": "left"
    },
    {
      "midi": 62,
      "time": 87.45,
      "duration": 0.15,
      "velocity": 0.73,
      "hand": "right"
    },
    {
      "midi": 71,
      "time": 87.45,
      "duration": 0.15,
      "velocity": 0.94,
      "hand": "right"
    },
    {
      "midi": 38,
      "time": 87.6,
      "duration": 0.075,
      "velocity": 0.63,
      "hand": "left"
    },
    {
      "midi": 44,
      "time": 87.6,
      "duration": 0.075,
      "velocity": 0.63,
      "hand": "left"
    },
    {
      "midi": 45,
      "time": 87.6,
      "duration": 0.3,
      "velocity": 1,
      "hand": "left"
    },
    {
      "midi": 48,
      "time": 87.6,
      "duration": 0.6,
      "velocity": 1,
      "hand": "left"
    },
    {
      "midi": 51,
      "time": 87.6,
      "duration": 0.075,
      "velocity": 0.63,
      "hand": "left"
    },
    {
      "midi": 57,
      "time": 87.6,
      "duration": 0.15,
      "velocity": 0.63,
      "hand": "left"
    },
    {
      "midi": 60,
      "time": 87.6,
      "duration": 0.15,
      "velocity": 0.74,
      "hand": "right"
    },
    {
      "midi": 69,
      "time": 87.6,
      "duration": 0.15,
      "velocity": 0.99,
      "hand": "right"
    },
    {
      "midi": 72,
      "time": 87.6,
      "duration": 0.075,
      "velocity": 1,
      "hand": "right"
    },
    {
      "midi": 75,
      "time": 87.6,
      "duration": 0.075,
      "velocity": 0.91,
      "hand": "right"
    },
    {
      "midi": 76,
      "time": 87.6,
      "duration": 0.075,
      "velocity": 1,
      "hand": "right"
    },
    {
      "midi": 42,
      "time": 87.9,
      "duration": 0.3,
      "velocity": 0.63,
      "hand": "left"
    },
    {
      "midi": 44,
      "time": 87.9,
      "duration": 0.075,
      "velocity": 0.63,
      "hand": "left"
    },
    {
      "midi": 46,
      "time": 87.9,
      "duration": 0.075,
      "velocity": 0.63,
      "hand": "left"
    },
    {
      "midi": 57,
      "time": 87.9,
      "duration": 0.15,
      "velocity": 0.97,
      "hand": "left"
    },
    {
      "midi": 57,
      "time": 87.9,
      "duration": 0.075,
      "velocity": 1,
      "hand": "left"
    },
    {
      "midi": 58,
      "time": 87.9,
      "duration": 0.075,
      "velocity": 0.63,
      "hand": "left"
    },
    {
      "midi": 60,
      "time": 87.9,
      "duration": 0.075,
      "velocity": 0.75,
      "hand": "right"
    },
    {
      "midi": 60,
      "time": 87.9,
      "duration": 0.15,
      "velocity": 0.75,
      "hand": "right"
    },
    {
      "midi": 65,
      "time": 87.9,
      "duration": 0.075,
      "velocity": 0.75,
      "hand": "right"
    },
    {
      "midi": 69,
      "time": 87.9,
      "duration": 0.15,
      "velocity": 0.94,
      "hand": "right"
    },
    {
      "midi": 69,
      "time": 87.9,
      "duration": 0.075,
      "velocity": 0.84,
      "hand": "right"
    },
    {
      "midi": 72,
      "time": 87.9,
      "duration": 0.075,
      "velocity": 1,
      "hand": "right"
    },
    {
      "midi": 76,
      "time": 87.9,
      "duration": 0.075,
      "velocity": 0.97,
      "hand": "right"
    },
    {
      "midi": 76,
      "time": 87.9,
      "duration": 0.15,
      "velocity": 0.76,
      "hand": "right"
    },
    {
      "midi": 79,
      "time": 87.9,
      "duration": 0.15,
      "velocity": 0.83,
      "hand": "right"
    },
    {
      "midi": 81,
      "time": 87.9,
      "duration": 0.15,
      "velocity": 0.89,
      "hand": "right"
    },
    {
      "midi": 44,
      "time": 88.05,
      "duration": 0.075,
      "velocity": 0.63,
      "hand": "left"
    },
    {
      "midi": 46,
      "time": 88.05,
      "duration": 0.075,
      "velocity": 0.63,
      "hand": "left"
    },
    {
      "midi": 57,
      "time": 88.05,
      "duration": 0.15,
      "velocity": 0.63,
      "hand": "left"
    },
    {
      "midi": 69,
      "time": 88.05,
      "duration": 0.15,
      "velocity": 0.94,
      "hand": "right"
    },
    {
      "midi": 72,
      "time": 88.05,
      "duration": 0.15,
      "velocity": 0.91,
      "hand": "right"
    },
    {
      "midi": 38,
      "time": 88.2,
      "duration": 0.3,
      "velocity": 1,
      "hand": "left"
    },
    {
      "midi": 50,
      "time": 88.2,
      "duration": 0.6,
      "velocity": 0.87,
      "hand": "left"
    },
    {
      "midi": 51,
      "time": 88.2,
      "duration": 0.15,
      "velocity": 0.63,
      "hand": "left"
    },
    {
      "midi": 61,
      "time": 88.2,
      "duration": 0.075,
      "velocity": 0.76,
      "hand": "right"
    },
    {
      "midi": 62,
      "time": 88.2,
      "duration": 0.075,
      "velocity": 0.63,
      "hand": "right"
    },
    {
      "midi": 62,
      "time": 88.2,
      "duration": 0.15,
      "velocity": 0.76,
      "hand": "right"
    },
    {
      "midi": 66,
      "time": 88.2,
      "duration": 0.15,
      "velocity": 1,
      "hand": "right"
    },
    {
      "midi": 72,
      "time": 88.2,
      "duration": 0.15,
      "velocity": 1,
      "hand": "right"
    },
    {
      "midi": 74,
      "time": 88.2,
      "duration": 0.15,
      "velocity": 1,
      "hand": "right"
    },
    {
      "midi": 78,
      "time": 88.2,
      "duration": 0.15,
      "velocity": 1,
      "hand": "right"
    },
    {
      "midi": 42,
      "time": 88.5,
      "duration": 0.3,
      "velocity": 0.63,
      "hand": "left"
    },
    {
      "midi": 46,
      "time": 88.5,
      "duration": 0.075,
      "velocity": 0.63,
      "hand": "left"
    },
    {
      "midi": 54,
      "time": 88.5,
      "duration": 0.15,
      "velocity": 1,
      "hand": "left"
    },
    {
      "midi": 62,
      "time": 88.5,
      "duration": 0.3,
      "velocity": 0.63,
      "hand": "right"
    },
    {
      "midi": 66,
      "time": 88.5,
      "duration": 0.075,
      "velocity": 1,
      "hand": "right"
    },
    {
      "midi": 72,
      "time": 88.5,
      "duration": 0.15,
      "velocity": 1,
      "hand": "right"
    },
    {
      "midi": 74,
      "time": 88.5,
      "duration": 0.15,
      "velocity": 1,
      "hand": "right"
    },
    {
      "midi": 74,
      "time": 88.5,
      "duration": 0.3,
      "velocity": 1,
      "hand": "right"
    },
    {
      "midi": 84,
      "time": 88.5,
      "duration": 0.15,
      "velocity": 0.66,
      "hand": "right"
    },
    {
      "midi": 86,
      "time": 88.5,
      "duration": 0.15,
      "velocity": 0.54,
      "hand": "right"
    },
    {
      "midi": 67,
      "time": 88.65,
      "duration": 0.075,
      "velocity": 0.84,
      "hand": "right"
    },
    {
      "midi": 83,
      "time": 88.65,
      "duration": 0.15,
      "velocity": 0.61,
      "hand": "right"
    },
    {
      "midi": 38,
      "time": 88.8,
      "duration": 0.3,
      "velocity": 0.63,
      "hand": "left"
    },
    {
      "midi": 43,
      "time": 88.8,
      "duration": 0.3,
      "velocity": 1,
      "hand": "left"
    },
    {
      "midi": 44,
      "time": 88.8,
      "duration": 0.15,
      "velocity": 0.63,
      "hand": "left"
    },
    {
      "midi": 51,
      "time": 88.8,
      "duration": 0.075,
      "velocity": 0.63,
      "hand": "left"
    },
    {
      "midi": 55,
      "time": 88.8,
      "duration": 0.15,
      "velocity": 0.63,
      "hand": "left"
    },
    {
      "midi": 55,
      "time": 88.8,
      "duration": 0.3,
      "velocity": 1,
      "hand": "left"
    },
    {
      "midi": 55,
      "time": 88.8,
      "duration": 0.15,
      "velocity": 1,
      "hand": "left"
    },
    {
      "midi": 59,
      "time": 88.8,
      "duration": 0.15,
      "velocity": 0.78,
      "hand": "left"
    },
    {
      "midi": 67,
      "time": 88.8,
      "duration": 0.075,
      "velocity": 1,
      "hand": "right"
    },
    {
      "midi": 67,
      "time": 88.8,
      "duration": 0.45,
      "velocity": 1,
      "hand": "right"
    },
    {
      "midi": 71,
      "time": 88.8,
      "duration": 0.075,
      "velocity": 1,
      "hand": "right"
    },
    {
      "midi": 74,
      "time": 88.8,
      "duration": 0.075,
      "velocity": 1,
      "hand": "right"
    },
    {
      "midi": 42,
      "time": 89.1,
      "duration": 0.075,
      "velocity": 0.63,
      "hand": "left"
    },
    {
      "midi": 46,
      "time": 89.1,
      "duration": 0.075,
      "velocity": 0.63,
      "hand": "left"
    },
    {
      "midi": 55,
      "time": 89.1,
      "duration": 0.15,
      "velocity": 1,
      "hand": "left"
    },
    {
      "midi": 62,
      "time": 89.1,
      "duration": 0.075,
      "velocity": 0.63,
      "hand": "right"
    },
    {
      "midi": 67,
      "time": 89.1,
      "duration": 0.075,
      "velocity": 1,
      "hand": "right"
    },
    {
      "midi": 71,
      "time": 89.1,
      "duration": 0.075,
      "velocity": 1,
      "hand": "right"
    },
    {
      "midi": 74,
      "time": 89.1,
      "duration": 0.075,
      "velocity": 1,
      "hand": "right"
    },
    {
      "midi": 74,
      "time": 89.1,
      "duration": 0.15,
      "velocity": 0.89,
      "hand": "right"
    },
    {
      "midi": 85,
      "time": 89.1,
      "duration": 0.075,
      "velocity": 0.47,
      "hand": "right"
    },
    {
      "midi": 86,
      "time": 89.1,
      "duration": 0.075,
      "velocity": 0.47,
      "hand": "right"
    },
    {
      "midi": 86,
      "time": 89.1,
      "duration": 0.15,
      "velocity": 0.89,
      "hand": "right"
    },
    {
      "midi": 62,
      "time": 89.25,
      "duration": 0.15,
      "velocity": 0.63,
      "hand": "right"
    },
    {
      "midi": 67,
      "time": 89.25,
      "duration": 0.15,
      "velocity": 0.79,
      "hand": "right"
    },
    {
      "midi": 71,
      "time": 89.25,
      "duration": 0.15,
      "velocity": 0.85,
      "hand": "right"
    },
    {
      "midi": 74,
      "time": 89.25,
      "duration": 0.15,
      "velocity": 0.89,
      "hand": "right"
    },
    {
      "midi": 86,
      "time": 89.25,
      "duration": 0.15,
      "velocity": 0.63,
      "hand": "right"
    },
    {
      "midi": 38,
      "time": 89.4,
      "duration": 0.45,
      "velocity": 0.63,
      "hand": "left"
    },
    {
      "midi": 40,
      "time": 89.4,
      "duration": 0.3,
      "velocity": 1,
      "hand": "left"
    },
    {
      "midi": 42,
      "time": 89.4,
      "duration": 0.15,
      "velocity": 0.63,
      "hand": "left"
    },
    {
      "midi": 44,
      "time": 89.4,
      "duration": 0.075,
      "velocity": 0.63,
      "hand": "left"
    },
    {
      "midi": 52,
      "time": 89.4,
      "duration": 0.6,
      "velocity": 1,
      "hand": "left"
    },
    {
      "midi": 64,
      "time": 89.4,
      "duration": 0.15,
      "velocity": 0.63,
      "hand": "right"
    },
    {
      "midi": 68,
      "time": 89.4,
      "duration": 0.15,
      "velocity": 0.96,
      "hand": "right"
    },
    {
      "midi": 71,
      "time": 89.4,
      "duration": 0.075,
      "velocity": 0.97,
      "hand": "right"
    },
    {
      "midi": 72,
      "time": 89.4,
      "duration": 0.075,
      "velocity": 0.74,
      "hand": "right"
    },
    {
      "midi": 76,
      "time": 89.4,
      "duration": 0.075,
      "velocity": 1,
      "hand": "right"
    },
    {
      "midi": 76,
      "time": 89.4,
      "duration": 0.3,
      "velocity": 0.99,
      "hand": "right"
    },
    {
      "midi": 88,
      "time": 89.4,
      "duration": 0.15,
      "velocity": 0.47,
      "hand": "right"
    },
    {
      "midi": 88,
      "time": 89.4,
      "duration": 0.3,
      "velocity": 0.99,
      "hand": "right"
    },
    {
      "midi": 62,
      "time": 89.55,
      "duration": 0.075,
      "velocity": 0.63,
      "hand": "right"
    },
    {
      "midi": 64,
      "time": 89.55,
      "duration": 0.15,
      "velocity": 0.63,
      "hand": "right"
    },
    {
      "midi": 86,
      "time": 89.55,
      "duration": 0.15,
      "velocity": 0.47,
      "hand": "right"
    },
    {
      "midi": 42,
      "time": 89.7,
      "duration": 0.15,
      "velocity": 0.63,
      "hand": "left"
    },
    {
      "midi": 46,
      "time": 89.7,
      "duration": 0.15,
      "velocity": 0.63,
      "hand": "left"
    },
    {
      "midi": 56,
      "time": 89.7,
      "duration": 0.15,
      "velocity": 0.76,
      "hand": "left"
    },
    {
      "midi": 62,
      "time": 89.7,
      "duration": 0.3,
      "velocity": 0.63,
      "hand": "right"
    },
    {
      "midi": 68,
      "time": 89.7,
      "duration": 0.15,
      "velocity": 1,
      "hand": "right"
    },
    {
      "midi": 70,
      "time": 89.7,
      "duration": 0.075,
      "velocity": 1,
      "hand": "right"
    },
    {
      "midi": 71,
      "time": 89.7,
      "duration": 0.075,
      "velocity": 1,
      "hand": "right"
    },
    {
      "midi": 74,
      "time": 89.7,
      "duration": 0.3,
      "velocity": 0.99,
      "hand": "right"
    },
    {
      "midi": 76,
      "time": 89.7,
      "duration": 0.075,
      "velocity": 1,
      "hand": "right"
    },
    {
      "midi": 86,
      "time": 89.7,
      "duration": 0.3,
      "velocity": 0.99,
      "hand": "right"
    },
    {
      "midi": 72,
      "time": 89.85,
      "duration": 0.15,
      "velocity": 1,
      "hand": "right"
    },
    {
      "midi": 84,
      "time": 89.85,
      "duration": 0.3,
      "velocity": 0.47,
      "hand": "right"
    },
    {
      "midi": 84,
      "time": 89.85,
      "duration": 0.15,
      "velocity": 1,
      "hand": "right"
    },
    {
      "midi": 38,
      "time": 90,
      "duration": 0.075,
      "velocity": 0.63,
      "hand": "left"
    },
    {
      "midi": 42,
      "time": 90,
      "duration": 0.15,
      "velocity": 0.63,
      "hand": "left"
    },
    {
      "midi": 44,
      "time": 90,
      "duration": 0.075,
      "velocity": 0.63,
      "hand": "left"
    },
    {
      "midi": 45,
      "time": 90,
      "duration": 0.15,
      "velocity": 1,
      "hand": "left"
    },
    {
      "midi": 51,
      "time": 90,
      "duration": 0.075,
      "velocity": 0.63,
      "hand": "left"
    },
    {
      "midi": 57,
      "time": 90,
      "duration": 0.15,
      "velocity": 0.99,
      "hand": "left"
    },
    {
      "midi": 60,
      "time": 90,
      "duration": 0.3,
      "velocity": 0.63,
      "hand": "right"
    },
    {
      "midi": 69,
      "time": 90,
      "duration": 0.15,
      "velocity": 1,
      "hand": "right"
    },
    {
      "midi": 72,
      "time": 90,
      "duration": 0.075,
      "velocity": 1,
      "hand": "right"
    },
    {
      "midi": 72,
      "time": 90,
      "duration": 0.15,
      "velocity": 0.87,
      "hand": "right"
    },
    {
      "midi": 76,
      "time": 90,
      "duration": 0.075,
      "velocity": 1,
      "hand": "right"
    },
    {
      "midi": 69,
      "time": 90.15,
      "duration": 0.075,
      "velocity": 0.99,
      "hand": "right"
    },
    {
      "midi": 72,
      "time": 90.15,
      "duration": 0.075,
      "velocity": 1,
      "hand": "right"
    },
    {
      "midi": 44,
      "time": 90.3,
      "duration": 0.075,
      "velocity": 0.63,
      "hand": "left"
    },
    {
      "midi": 46,
      "time": 90.3,
      "duration": 0.075,
      "velocity": 0.63,
      "hand": "left"
    },
    {
      "midi": 55,
      "time": 90.3,
      "duration": 0.15,
      "velocity": 0.99,
      "hand": "left"
    },
    {
      "midi": 57,
      "time": 90.3,
      "duration": 0.15,
      "velocity": 0.63,
      "hand": "left"
    },
    {
      "midi": 69,
      "time": 90.3,
      "duration": 0.075,
      "velocity": 0.77,
      "hand": "right"
    },
    {
      "midi": 72,
      "time": 90.3,
      "duration": 0.075,
      "velocity": 1,
      "hand": "right"
    },
    {
      "midi": 72,
      "time": 90.3,
      "duration": 0.15,
      "velocity": 1,
      "hand": "right"
    },
    {
      "midi": 76,
      "time": 90.3,
      "duration": 0.075,
      "velocity": 0.83,
      "hand": "right"
    },
    {
      "midi": 81,
      "time": 90.3,
      "duration": 0.15,
      "velocity": 0.47,
      "hand": "right"
    },
    {
      "midi": 84,
      "time": 90.3,
      "duration": 0.15,
      "velocity": 1,
      "hand": "right"
    },
    {
      "midi": 44,
      "time": 90.45,
      "duration": 0.15,
      "velocity": 0.63,
      "hand": "left"
    },
    {
      "midi": 46,
      "time": 90.45,
      "duration": 0.075,
      "velocity": 0.63,
      "hand": "left"
    },
    {
      "midi": 57,
      "time": 90.45,
      "duration": 0.15,
      "velocity": 0.63,
      "hand": "left"
    },
    {
      "midi": 69,
      "time": 90.45,
      "duration": 0.15,
      "velocity": 0.94,
      "hand": "right"
    },
    {
      "midi": 74,
      "time": 90.45,
      "duration": 0.075,
      "velocity": 1,
      "hand": "right"
    },
    {
      "midi": 74,
      "time": 90.45,
      "duration": 0.3,
      "velocity": 1,
      "hand": "right"
    },
    {
      "midi": 78,
      "time": 90.45,
      "duration": 0.075,
      "velocity": 1,
      "hand": "right"
    },
    {
      "midi": 81,
      "time": 90.45,
      "duration": 0.15,
      "velocity": 0.47,
      "hand": "right"
    },
    {
      "midi": 38,
      "time": 90.6,
      "duration": 0.3,
      "velocity": 1,
      "hand": "left"
    },
    {
      "midi": 38,
      "time": 90.6,
      "duration": 0.15,
      "velocity": 0.63,
      "hand": "left"
    },
    {
      "midi": 42,
      "time": 90.6,
      "duration": 0.15,
      "velocity": 0.63,
      "hand": "left"
    },
    {
      "midi": 54,
      "time": 90.6,
      "duration": 0.6,
      "velocity": 0.91,
      "hand": "left"
    },
    {
      "midi": 62,
      "time": 90.6,
      "duration": 0.3,
      "velocity": 0.63,
      "hand": "right"
    },
    {
      "midi": 74,
      "time": 90.6,
      "duration": 0.15,
      "velocity": 0.97,
      "hand": "right"
    },
    {
      "midi": 86,
      "time": 90.6,
      "duration": 0.075,
      "velocity": 0.47,
      "hand": "right"
    },
    {
      "midi": 86,
      "time": 90.6,
      "duration": 0.15,
      "velocity": 0.97,
      "hand": "right"
    },
    {
      "midi": 72,
      "time": 90.75,
      "duration": 0.3,
      "velocity": 1,
      "hand": "right"
    },
    {
      "midi": 38,
      "time": 90.9,
      "duration": 0.15,
      "velocity": 0.63,
      "hand": "left"
    },
    {
      "midi": 42,
      "time": 90.9,
      "duration": 0.15,
      "velocity": 0.63,
      "hand": "left"
    },
    {
      "midi": 46,
      "time": 90.9,
      "duration": 0.075,
      "velocity": 0.63,
      "hand": "left"
    },
    {
      "midi": 54,
      "time": 90.9,
      "duration": 0.15,
      "velocity": 1,
      "hand": "left"
    },
    {
      "midi": 60,
      "time": 90.9,
      "duration": 0.3,
      "velocity": 0.63,
      "hand": "right"
    },
    {
      "midi": 69,
      "time": 90.9,
      "duration": 0.15,
      "velocity": 1,
      "hand": "right"
    },
    {
      "midi": 74,
      "time": 90.9,
      "duration": 0.15,
      "velocity": 1,
      "hand": "right"
    },
    {
      "midi": 78,
      "time": 90.9,
      "duration": 0.075,
      "velocity": 1,
      "hand": "right"
    },
    {
      "midi": 84,
      "time": 90.9,
      "duration": 0.15,
      "velocity": 0.47,
      "hand": "right"
    },
    {
      "midi": 86,
      "time": 90.9,
      "duration": 0.15,
      "velocity": 1,
      "hand": "right"
    },
    {
      "midi": 72,
      "time": 91.05,
      "duration": 0.15,
      "velocity": 0.94,
      "hand": "right"
    },
    {
      "midi": 84,
      "time": 91.05,
      "duration": 0.15,
      "velocity": 0.94,
      "hand": "right"
    },
    {
      "midi": 38,
      "time": 91.2,
      "duration": 0.075,
      "velocity": 0.63,
      "hand": "left"
    },
    {
      "midi": 42,
      "time": 91.2,
      "duration": 0.075,
      "velocity": 0.63,
      "hand": "left"
    },
    {
      "midi": 43,
      "time": 91.2,
      "duration": 0.3,
      "velocity": 1,
      "hand": "left"
    },
    {
      "midi": 44,
      "time": 91.2,
      "duration": 0.15,
      "velocity": 0.63,
      "hand": "left"
    },
    {
      "midi": 51,
      "time": 91.2,
      "duration": 0.075,
      "velocity": 0.63,
      "hand": "left"
    },
    {
      "midi": 55,
      "time": 91.2,
      "duration": 0.3,
      "velocity": 0.92,
      "hand": "left"
    },
    {
      "midi": 59,
      "time": 91.2,
      "duration": 0.15,
      "velocity": 0.63,
      "hand": "left"
    },
    {
      "midi": 71,
      "time": 91.2,
      "duration": 0.075,
      "velocity": 1,
      "hand": "right"
    },
    {
      "midi": 71,
      "time": 91.2,
      "duration": 0.15,
      "velocity": 1,
      "hand": "right"
    },
    {
      "midi": 74,
      "time": 91.2,
      "duration": 0.15,
      "velocity": 1,
      "hand": "right"
    },
    {
      "midi": 77,
      "time": 91.2,
      "duration": 0.075,
      "velocity": 0.76,
      "hand": "right"
    },
    {
      "midi": 79,
      "time": 91.2,
      "duration": 0.15,
      "velocity": 1,
      "hand": "right"
    },
    {
      "midi": 83,
      "time": 91.2,
      "duration": 0.15,
      "velocity": 0.47,
      "hand": "right"
    },
    {
      "midi": 83,
      "time": 91.2,
      "duration": 0.075,
      "velocity": 0.99,
      "hand": "right"
    },
    {
      "midi": 44,
      "time": 91.5,
      "duration": 0.075,
      "velocity": 0.63,
      "hand": "left"
    },
    {
      "midi": 46,
      "time": 91.5,
      "duration": 0.075,
      "velocity": 0.63,
      "hand": "left"
    },
    {
      "midi": 55,
      "time": 91.5,
      "duration": 0.15,
      "velocity": 1,
      "hand": "left"
    },
    {
      "midi": 59,
      "time": 91.5,
      "duration": 0.075,
      "velocity": 0.63,
      "hand": "left"
    },
    {
      "midi": 71,
      "time": 91.5,
      "duration": 0.075,
      "velocity": 1,
      "hand": "right"
    },
    {
      "midi": 71,
      "time": 91.5,
      "duration": 0.15,
      "velocity": 1,
      "hand": "right"
    },
    {
      "midi": 74,
      "time": 91.5,
      "duration": 0.075,
      "velocity": 1,
      "hand": "right"
    },
    {
      "midi": 79,
      "time": 91.5,
      "duration": 0.075,
      "velocity": 0.99,
      "hand": "right"
    },
    {
      "midi": 79,
      "time": 91.5,
      "duration": 0.15,
      "velocity": 0.65,
      "hand": "right"
    },
    {
      "midi": 83,
      "time": 91.5,
      "duration": 0.15,
      "velocity": 0.47,
      "hand": "right"
    },
    {
      "midi": 44,
      "time": 91.65,
      "duration": 0.075,
      "velocity": 0.63,
      "hand": "left"
    },
    {
      "midi": 46,
      "time": 91.65,
      "duration": 0.075,
      "velocity": 0.63,
      "hand": "left"
    },
    {
      "midi": 55,
      "time": 91.65,
      "duration": 0.15,
      "velocity": 0.63,
      "hand": "left"
    },
    {
      "midi": 67,
      "time": 91.65,
      "duration": 0.15,
      "velocity": 0.83,
      "hand": "right"
    },
    {
      "midi": 71,
      "time": 91.65,
      "duration": 0.075,
      "velocity": 0.65,
      "hand": "right"
    },
    {
      "midi": 71,
      "time": 91.65,
      "duration": 0.15,
      "velocity": 0.99,
      "hand": "right"
    },
    {
      "midi": 74,
      "time": 91.65,
      "duration": 0.075,
      "velocity": 0.76,
      "hand": "right"
    },
    {
      "midi": 79,
      "time": 91.65,
      "duration": 0.15,
      "velocity": 0.47,
      "hand": "right"
    },
    {
      "midi": 38,
      "time": 91.8,
      "duration": 0.15,
      "velocity": 0.63,
      "hand": "left"
    },
    {
      "midi": 40,
      "time": 91.8,
      "duration": 0.3,
      "velocity": 1,
      "hand": "left"
    },
    {
      "midi": 42,
      "time": 91.8,
      "duration": 0.15,
      "velocity": 0.63,
      "hand": "left"
    },
    {
      "midi": 52,
      "time": 91.8,
      "duration": 0.3,
      "velocity": 1,
      "hand": "left"
    },
    {
      "midi": 64,
      "time": 91.8,
      "duration": 0.15,
      "velocity": 0.63,
      "hand": "right"
    },
    {
      "midi": 68,
      "time": 91.8,
      "duration": 0.075,
      "velocity": 1,
      "hand": "right"
    },
    {
      "midi": 72,
      "time": 91.8,
      "duration": 0.075,
      "velocity": 1,
      "hand": "right"
    },
    {
      "midi": 76,
      "time": 91.8,
      "duration": 0.15,
      "velocity": 1,
      "hand": "right"
    },
    {
      "midi": 80,
      "time": 91.8,
      "duration": 0.15,
      "velocity": 1,
      "hand": "right"
    },
    {
      "midi": 84,
      "time": 91.8,
      "duration": 0.075,
      "velocity": 0.47,
      "hand": "right"
    },
    {
      "midi": 38,
      "time": 92.1,
      "duration": 0.075,
      "velocity": 0.63,
      "hand": "left"
    },
    {
      "midi": 42,
      "time": 92.1,
      "duration": 0.15,
      "velocity": 0.63,
      "hand": "left"
    },
    {
      "midi": 46,
      "time": 92.1,
      "duration": 0.075,
      "velocity": 0.63,
      "hand": "left"
    },
    {
      "midi": 50,
      "time": 92.1,
      "duration": 0.45,
      "velocity": 0.94,
      "hand": "left"
    },
    {
      "midi": 56,
      "time": 92.1,
      "duration": 0.15,
      "velocity": 1,
      "hand": "left"
    },
    {
      "midi": 63,
      "time": 92.1,
      "duration": 0.075,
      "velocity": 0.63,
      "hand": "right"
    },
    {
      "midi": 64,
      "time": 92.1,
      "duration": 0.15,
      "velocity": 0.63,
      "hand": "right"
    },
    {
      "midi": 68,
      "time": 92.1,
      "duration": 0.3,
      "velocity": 1,
      "hand": "right"
    },
    {
      "midi": 71,
      "time": 92.1,
      "duration": 0.075,
      "velocity": 1,
      "hand": "right"
    },
    {
      "midi": 72,
      "time": 92.1,
      "duration": 0.15,
      "velocity": 1,
      "hand": "right"
    },
    {
      "midi": 76,
      "time": 92.1,
      "duration": 0.15,
      "velocity": 1,
      "hand": "right"
    },
    {
      "midi": 80,
      "time": 92.1,
      "duration": 0.15,
      "velocity": 1,
      "hand": "right"
    },
    {
      "midi": 84,
      "time": 92.1,
      "duration": 0.15,
      "velocity": 0.47,
      "hand": "right"
    },
    {
      "midi": 62,
      "time": 92.25,
      "duration": 0.15,
      "velocity": 0.63,
      "hand": "right"
    },
    {
      "midi": 71,
      "time": 92.25,
      "duration": 0.15,
      "velocity": 0.87,
      "hand": "right"
    },
    {
      "midi": 83,
      "time": 92.25,
      "duration": 0.15,
      "velocity": 0.47,
      "hand": "right"
    },
    {
      "midi": 38,
      "time": 92.4,
      "duration": 0.075,
      "velocity": 0.63,
      "hand": "left"
    },
    {
      "midi": 42,
      "time": 92.4,
      "duration": 0.075,
      "velocity": 0.63,
      "hand": "left"
    },
    {
      "midi": 44,
      "time": 92.4,
      "duration": 0.075,
      "velocity": 0.63,
      "hand": "left"
    },
    {
      "midi": 45,
      "time": 92.4,
      "duration": 0.15,
      "velocity": 1,
      "hand": "left"
    },
    {
      "midi": 48,
      "time": 92.4,
      "duration": 0.45,
      "velocity": 1,
      "hand": "left"
    },
    {
      "midi": 51,
      "time": 92.4,
      "duration": 0.075,
      "velocity": 0.63,
      "hand": "left"
    },
    {
      "midi": 60,
      "time": 92.4,
      "duration": 0.075,
      "velocity": 0.63,
      "hand": "right"
    },
    {
      "midi": 69,
      "time": 92.4,
      "duration": 0.075,
      "velocity": 0.99,
      "hand": "right"
    },
    {
      "midi": 69,
      "time": 92.4,
      "duration": 0.15,
      "velocity": 0.92,
      "hand": "right"
    },
    {
      "midi": 72,
      "time": 92.4,
      "duration": 0.075,
      "velocity": 1,
      "hand": "right"
    },
    {
      "midi": 76,
      "time": 92.4,
      "duration": 0.075,
      "velocity": 1,
      "hand": "right"
    },
    {
      "midi": 81,
      "time": 92.4,
      "duration": 0.15,
      "velocity": 0.47,
      "hand": "right"
    },
    {
      "midi": 44,
      "time": 92.7,
      "duration": 0.075,
      "velocity": 0.63,
      "hand": "left"
    },
    {
      "midi": 46,
      "time": 92.7,
      "duration": 0.075,
      "velocity": 0.63,
      "hand": "left"
    },
    {
      "midi": 57,
      "time": 92.7,
      "duration": 0.075,
      "velocity": 1,
      "hand": "left"
    },
    {
      "midi": 60,
      "time": 92.7,
      "duration": 0.075,
      "velocity": 0.63,
      "hand": "right"
    },
    {
      "midi": 60,
      "time": 92.7,
      "duration": 0.15,
      "velocity": 0.63,
      "hand": "right"
    },
    {
      "midi": 69,
      "time": 92.7,
      "duration": 0.075,
      "velocity": 0.97,
      "hand": "right"
    },
    {
      "midi": 72,
      "time": 92.7,
      "duration": 0.075,
      "velocity": 1,
      "hand": "right"
    },
    {
      "midi": 76,
      "time": 92.7,
      "duration": 0.075,
      "velocity": 0.99,
      "hand": "right"
    },
    {
      "midi": 81,
      "time": 92.7,
      "duration": 0.075,
      "velocity": 0.47,
      "hand": "right"
    },
    {
      "midi": 44,
      "time": 92.85,
      "duration": 0.15,
      "velocity": 0.63,
      "hand": "left"
    },
    {
      "midi": 46,
      "time": 92.85,
      "duration": 0.075,
      "velocity": 0.63,
      "hand": "left"
    },
    {
      "midi": 69,
      "time": 92.85,
      "duration": 0.075,
      "velocity": 0.39,
      "hand": "right"
    },
    {
      "midi": 69,
      "time": 92.85,
      "duration": 0.15,
      "velocity": 0.85,
      "hand": "right"
    },
    {
      "midi": 72,
      "time": 92.85,
      "duration": 0.15,
      "velocity": 0.79,
      "hand": "right"
    },
    {
      "midi": 74,
      "time": 92.85,
      "duration": 0.075,
      "velocity": 0.76,
      "hand": "right"
    },
    {
      "midi": 76,
      "time": 92.85,
      "duration": 0.075,
      "velocity": 0.57,
      "hand": "right"
    },
    {
      "midi": 81,
      "time": 92.85,
      "duration": 0.15,
      "velocity": 0.47,
      "hand": "right"
    },
    {
      "midi": 38,
      "time": 93,
      "duration": 0.3,
      "velocity": 1,
      "hand": "left"
    },
    {
      "midi": 42,
      "time": 93,
      "duration": 0.3,
      "velocity": 0.63,
      "hand": "left"
    },
    {
      "midi": 46,
      "time": 93,
      "duration": 0.075,
      "velocity": 0.63,
      "hand": "left"
    },
    {
      "midi": 50,
      "time": 93,
      "duration": 0.6,
      "velocity": 1,
      "hand": "left"
    },
    {
      "midi": 51,
      "time": 93,
      "duration": 0.15,
      "velocity": 0.63,
      "hand": "left"
    },
    {
      "midi": 66,
      "time": 93,
      "duration": 0.15,
      "velocity": 1,
      "hand": "right"
    },
    {
      "midi": 72,
      "time": 93,
      "duration": 0.15,
      "velocity": 1,
      "hand": "right"
    },
    {
      "midi": 74,
      "time": 93,
      "duration": 0.075,
      "velocity": 1,
      "hand": "right"
    },
    {
      "midi": 74,
      "time": 93,
      "duration": 0.15,
      "velocity": 1,
      "hand": "right"
    },
    {
      "midi": 86,
      "time": 93,
      "duration": 0.15,
      "velocity": 0.47,
      "hand": "right"
    },
    {
      "midi": 46,
      "time": 93.3,
      "duration": 0.075,
      "velocity": 0.63,
      "hand": "left"
    },
    {
      "midi": 54,
      "time": 93.3,
      "duration": 0.15,
      "velocity": 0.93,
      "hand": "left"
    },
    {
      "midi": 62,
      "time": 93.3,
      "duration": 0.3,
      "velocity": 0.63,
      "hand": "right"
    },
    {
      "midi": 66,
      "time": 93.3,
      "duration": 0.075,
      "velocity": 1,
      "hand": "right"
    },
    {
      "midi": 72,
      "time": 93.3,
      "duration": 0.075,
      "velocity": 1,
      "hand": "right"
    },
    {
      "midi": 74,
      "time": 93.3,
      "duration": 0.075,
      "velocity": 1,
      "hand": "right"
    },
    {
      "midi": 74,
      "time": 93.3,
      "duration": 0.3,
      "velocity": 1,
      "hand": "right"
    },
    {
      "midi": 74,
      "time": 93.3,
      "duration": 0.15,
      "velocity": 1,
      "hand": "right"
    },
    {
      "midi": 86,
      "time": 93.3,
      "duration": 0.15,
      "velocity": 0.47,
      "hand": "right"
    },
    {
      "midi": 86,
      "time": 93.3,
      "duration": 0.3,
      "velocity": 1,
      "hand": "right"
    },
    {
      "midi": 67,
      "time": 93.45,
      "duration": 0.15,
      "velocity": 1,
      "hand": "right"
    },
    {
      "midi": 38,
      "time": 93.6,
      "duration": 0.075,
      "velocity": 0.63,
      "hand": "left"
    },
    {
      "midi": 42,
      "time": 93.6,
      "duration": 0.15,
      "velocity": 0.63,
      "hand": "left"
    },
    {
      "midi": 43,
      "time": 93.6,
      "duration": 0.15,
      "velocity": 1,
      "hand": "left"
    },
    {
      "midi": 44,
      "time": 93.6,
      "duration": 0.15,
      "velocity": 0.63,
      "hand": "left"
    },
    {
      "midi": 46,
      "time": 93.6,
      "duration": 0.075,
      "velocity": 0.63,
      "hand": "left"
    },
    {
      "midi": 51,
      "time": 93.6,
      "duration": 0.15,
      "velocity": 0.63,
      "hand": "left"
    },
    {
      "midi": 55,
      "time": 93.6,
      "duration": 0.075,
      "velocity": 1,
      "hand": "left"
    },
    {
      "midi": 55,
      "time": 93.6,
      "duration": 0.6,
      "velocity": 0.97,
      "hand": "left"
    },
    {
      "midi": 67,
      "time": 93.6,
      "duration": 0.15,
      "velocity": 1,
      "hand": "right"
    },
    {
      "midi": 67,
      "time": 93.6,
      "duration": 1.95,
      "velocity": 0.63,
      "hand": "right"
    },
    {
      "midi": 69,
      "time": 93.6,
      "duration": 0.15,
      "velocity": 0.83,
      "hand": "right"
    },
    {
      "midi": 71,
      "time": 93.6,
      "duration": 0.3,
      "velocity": 1,
      "hand": "right"
    },
    {
      "midi": 74,
      "time": 93.6,
      "duration": 1.35,
      "velocity": 1,
      "hand": "right"
    },
    {
      "midi": 79,
      "time": 93.6,
      "duration": 1.35,
      "velocity": 0.47,
      "hand": "right"
    },
    {
      "midi": 79,
      "time": 93.6,
      "duration": 1.95,
      "velocity": 1,
      "hand": "right"
    },
    {
      "midi": 67,
      "time": 93.9,
      "duration": 0.075,
      "velocity": 0.79,
      "hand": "right"
    },
    {
      "midi": 38,
      "time": 94.2,
      "duration": 0.3,
      "velocity": 1,
      "hand": "left"
    },
    {
      "midi": 38,
      "time": 94.2,
      "duration": 0.15,
      "velocity": 0.63,
      "hand": "left"
    },
    {
      "midi": 42,
      "time": 94.2,
      "duration": 0.15,
      "velocity": 0.63,
      "hand": "left"
    },
    {
      "midi": 44,
      "time": 94.2,
      "duration": 0.15,
      "velocity": 0.63,
      "hand": "left"
    },
    {
      "midi": 46,
      "time": 94.2,
      "duration": 0.075,
      "velocity": 0.63,
      "hand": "left"
    },
    {
      "midi": 50,
      "time": 94.2,
      "duration": 0.6,
      "velocity": 1,
      "hand": "left"
    },
    {
      "midi": 50,
      "time": 94.2,
      "duration": 0.45,
      "velocity": 0.81,
      "hand": "left"
    },
    {
      "midi": 67,
      "time": 94.2,
      "duration": 0.075,
      "velocity": 0.89,
      "hand": "right"
    },
    {
      "midi": 71,
      "time": 94.2,
      "duration": 0.075,
      "velocity": 0.85,
      "hand": "right"
    },
    {
      "midi": 67,
      "time": 94.5,
      "duration": 0.075,
      "velocity": 0.79,
      "hand": "right"
    },
    {
      "midi": 71,
      "time": 94.5,
      "duration": 0.075,
      "velocity": 0.72,
      "hand": "right"
    },
    {
      "midi": 42,
      "time": 94.65,
      "duration": 0.075,
      "velocity": 0.63,
      "hand": "left"
    },
    {
      "midi": 50,
      "time": 94.65,
      "duration": 0.075,
      "velocity": 0.89,
      "hand": "left"
    },
    {
      "midi": 38,
      "time": 94.8,
      "duration": 0.15,
      "velocity": 0.63,
      "hand": "left"
    },
    {
      "midi": 42,
      "time": 94.8,
      "duration": 0.15,
      "velocity": 0.63,
      "hand": "left"
    },
    {
      "midi": 43,
      "time": 94.8,
      "duration": 0.75,
      "velocity": 1,
      "hand": "left"
    },
    {
      "midi": 43,
      "time": 94.8,
      "duration": 0.6,
      "velocity": 0.99,
      "hand": "left"
    },
    {
      "midi": 44,
      "time": 94.8,
      "duration": 0.075,
      "velocity": 0.63,
      "hand": "left"
    },
    {
      "midi": 46,
      "time": 94.8,
      "duration": 0.075,
      "velocity": 0.63,
      "hand": "left"
    },
    {
      "midi": 51,
      "time": 94.8,
      "duration": 0.075,
      "velocity": 0.63,
      "hand": "left"
    },
    {
      "midi": 55,
      "time": 94.8,
      "duration": 0.6,
      "velocity": 1,
      "hand": "left"
    },
    {
      "midi": 67,
      "time": 94.8,
      "duration": 0.15,
      "velocity": 1,
      "hand": "right"
    },
    {
      "midi": 71,
      "time": 94.8,
      "duration": 0.15,
      "velocity": 1,
      "hand": "right"
    }
  ]
}
