{
  "id": "parabens-1",
  "title": "Parabens 1",
  "artist": "MIDI Source",
  "difficulty": "Médio",
  "bpm": 96,
  "duration": 31,
  "category": "A revisar",
  "isPremium": true,
  "coverUrl": "/images/covers/placeholder.png",
  "notes": [
    {
      "midi": 55,
      "time": 1.25,
      "duration": 0.313,
      "velocity": 0.63,
      "hand": "left"
    },
    {
      "midi": 55,
      "time": 1.563,
      "duration": 0.313,
      "velocity": 0.63,
      "hand": "left"
    },
    {
      "midi": 57,
      "time": 1.875,
      "duration": 0.625,
      "velocity": 0.63,
      "hand": "left"
    },
    {
      "midi": 55,
      "time": 2.5,
      "duration": 0.625,
      "velocity": 0.63,
      "hand": "left"
    },
    {
      "midi": 60,
      "time": 3.125,
      "duration": 0.625,
      "velocity": 0.63,
      "hand": "right"
    },
    {
      "midi": 59,
      "time": 3.75,
      "duration": 1.25,
      "velocity": 0.63,
      "hand": "left"
    },
    {
      "midi": 55,
      "time": 5,
      "duration": 0.313,
      "velocity": 0.63,
      "hand": "left"
    },
    {
      "midi": 55,
      "time": 5.313,
      "duration": 0.313,
      "velocity": 0.63,
      "hand": "left"
    },
    {
      "midi": 57,
      "time": 5.625,
      "duration": 0.625,
      "velocity": 0.63,
      "hand": "left"
    },
    {
      "midi": 55,
      "time": 6.25,
      "duration": 0.625,
      "velocity": 0.63,
      "hand": "left"
    },
    {
      "midi": 62,
      "time": 6.875,
      "duration": 0.625,
      "velocity": 0.63,
      "hand": "right"
    },
    {
      "midi": 60,
      "time": 7.5,
      "duration": 1.25,
      "velocity": 0.63,
      "hand": "right"
    },
    {
      "midi": 55,
      "time": 8.75,
      "duration": 0.313,
      "velocity": 0.63,
      "hand": "left"
    },
    {
      "midi": 55,
      "time": 9.063,
      "duration": 0.313,
      "velocity": 0.63,
      "hand": "left"
    },
    {
      "midi": 67,
      "time": 9.375,
      "duration": 0.625,
      "velocity": 0.63,
      "hand": "right"
    },
    {
      "midi": 64,
      "time": 10,
      "duration": 0.625,
      "velocity": 0.63,
      "hand": "right"
    },
    {
      "midi": 60,
      "time": 10.625,
      "duration": 0.625,
      "velocity": 0.63,
      "hand": "right"
    },
    {
      "midi": 59,
      "time": 11.25,
      "duration": 0.625,
      "velocity": 0.63,
      "hand": "left"
    },
    {
      "midi": 57,
      "time": 11.875,
      "duration": 0.625,
      "velocity": 0.63,
      "hand": "left"
    },
    {
      "midi": 65,
      "time": 12.5,
      "duration": 0.313,
      "velocity": 0.63,
      "hand": "right"
    },
    {
      "midi": 65,
      "time": 12.813,
      "duration": 0.313,
      "velocity": 0.63,
      "hand": "right"
    },
    {
      "midi": 64,
      "time": 13.125,
      "duration": 0.625,
      "velocity": 0.63,
      "hand": "right"
    },
    {
      "midi": 60,
      "time": 13.75,
      "duration": 0.625,
      "velocity": 0.63,
      "hand": "right"
    },
    {
      "midi": 62,
      "time": 14.375,
      "duration": 0.625,
      "velocity": 0.63,
      "hand": "right"
    },
    {
      "midi": 60,
      "time": 15,
      "duration": 0.625,
      "velocity": 0.63,
      "hand": "right"
    },
    {
      "midi": 60,
      "time": 15.625,
      "duration": 0.625,
      "velocity": 0.63,
      "hand": "right"
    },
    {
      "midi": 55,
      "time": 16.25,
      "duration": 0.313,
      "velocity": 0.63,
      "hand": "left"
    },
    {
      "midi": 55,
      "time": 16.563,
      "duration": 0.313,
      "velocity": 0.63,
      "hand": "left"
    },
    {
      "midi": 57,
      "time": 16.875,
      "duration": 0.625,
      "velocity": 0.63,
      "hand": "left"
    },
    {
      "midi": 55,
      "time": 17.5,
      "duration": 0.625,
      "velocity": 0.63,
      "hand": "left"
    },
    {
      "midi": 60,
      "time": 18.125,
      "duration": 0.625,
      "velocity": 0.63,
      "hand": "right"
    },
    {
      "midi": 59,
      "time": 18.75,
      "duration": 1.25,
      "velocity": 0.63,
      "hand": "left"
    },
    {
      "midi": 55,
      "time": 20,
      "duration": 0.313,
      "velocity": 0.63,
      "hand": "left"
    },
    {
      "midi": 55,
      "time": 20.313,
      "duration": 0.313,
      "velocity": 0.63,
      "hand": "left"
    },
    {
      "midi": 57,
      "time": 20.625,
      "duration": 0.625,
      "velocity": 0.63,
      "hand": "left"
    },
    {
      "midi": 55,
      "time": 21.25,
      "duration": 0.625,
      "velocity": 0.63,
      "hand": "left"
    },
    {
      "midi": 62,
      "time": 21.875,
      "duration": 0.625,
      "velocity": 0.63,
      "hand": "right"
    },
    {
      "midi": 60,
      "time": 22.5,
      "duration": 1.25,
      "velocity": 0.63,
      "hand": "right"
    },
    {
      "midi": 55,
      "time": 23.75,
      "duration": 0.313,
      "velocity": 0.63,
      "hand": "left"
    },
    {
      "midi": 55,
      "time": 24.063,
      "duration": 0.313,
      "velocity": 0.63,
      "hand": "left"
    },
    {
      "midi": 67,
      "time": 24.375,
      "duration": 0.625,
      "velocity": 0.63,
      "hand": "right"
    },
    {
      "midi": 64,
      "time": 25,
      "duration": 0.625,
      "velocity": 0.63,
      "hand": "right"
    },
    {
      "midi": 60,
      "time": 25.625,
      "duration": 0.625,
      "velocity": 0.63,
      "hand": "right"
    },
    {
      "midi": 59,
      "time": 26.25,
      "duration": 0.625,
      "velocity": 0.63,
      "hand": "left"
    },
    {
      "midi": 57,
      "time": 26.875,
      "duration": 0.625,
      "velocity": 0.63,
      "hand": "left"
    },
    {
      "midi": 65,
      "time": 27.5,
      "duration": 0.313,
      "velocity": 0.63,
      "hand": "right"
    },
    {
      "midi": 65,
      "time": 27.813,
      "duration": 0.313,
      "velocity": 0.63,
      "hand": "right"
    },
    {
      "midi": 64,
      "time": 28.125,
      "duration": 0.625,
      "velocity": 0.63,
      "hand": "right"
    },
    {
      "midi": 60,
      "time": 28.75,
      "duration": 0.625,
      "velocity": 0.63,
      "hand": "right"
    },
    {
      "midi": 62,
      "time": 29.375,
      "duration": 0.625,
      "velocity": 0.63,
      "hand": "right"
    },
    {
      "midi": 60,
      "time": 30,
      "duration": 1.25,
      "velocity": 0.63,
      "hand": "right"
    }
  ],
  "arrangements": {
    "easy": [
      {
        "midi": 55,
        "time": 1.25,
        "duration": 0.313,
        "velocity": 0.63,
        "hand": "right"
      },
      {
        "midi": 55,
        "time": 1.563,
        "duration": 0.313,
        "velocity": 0.63,
        "hand": "right"
      },
      {
        "midi": 57,
        "time": 1.875,
        "duration": 0.625,
        "velocity": 0.63,
        "hand": "right"
      },
      {
        "midi": 55,
        "time": 2.5,
        "duration": 0.625,
        "velocity": 0.63,
        "hand": "right"
      },
      {
        "midi": 60,
        "time": 3.125,
        "duration": 0.625,
        "velocity": 0.63,
        "hand": "right"
      },
      {
        "midi": 59,
        "time": 3.75,
        "duration": 1.25,
        "velocity": 0.63,
        "hand": "right"
      },
      {
        "midi": 55,
        "time": 5,
        "duration": 0.313,
        "velocity": 0.63,
        "hand": "right"
      },
      {
        "midi": 55,
        "time": 5.313,
        "duration": 0.313,
        "velocity": 0.63,
        "hand": "right"
      },
      {
        "midi": 57,
        "time": 5.625,
        "duration": 0.625,
        "velocity": 0.63,
        "hand": "right"
      },
      {
        "midi": 55,
        "time": 6.25,
        "duration": 0.625,
        "velocity": 0.63,
        "hand": "right"
      },
      {
        "midi": 62,
        "time": 6.875,
        "duration": 0.625,
        "velocity": 0.63,
        "hand": "right"
      },
      {
        "midi": 60,
        "time": 7.5,
        "duration": 1.25,
        "velocity": 0.63,
        "hand": "right"
      },
      {
        "midi": 55,
        "time": 8.75,
        "duration": 0.313,
        "velocity": 0.63,
        "hand": "right"
      },
      {
        "midi": 55,
        "time": 9.063,
        "duration": 0.313,
        "velocity": 0.63,
        "hand": "right"
      },
      {
        "midi": 67,
        "time": 9.375,
        "duration": 0.625,
        "velocity": 0.63,
        "hand": "right"
      },
      {
        "midi": 64,
        "time": 10,
        "duration": 0.625,
        "velocity": 0.63,
        "hand": "right"
      },
      {
        "midi": 60,
        "time": 10.625,
        "duration": 0.625,
        "velocity": 0.63,
        "hand": "right"
      },
      {
        "midi": 59,
        "time": 11.25,
        "duration": 0.625,
        "velocity": 0.63,
        "hand": "right"
      },
      {
        "midi": 57,
        "time": 11.875,
        "duration": 0.625,
        "velocity": 0.63,
        "hand": "right"
      },
      {
        "midi": 65,
        "time": 12.5,
        "duration": 0.313,
        "velocity": 0.63,
        "hand": "right"
      },
      {
        "midi": 65,
        "time": 12.813,
        "duration": 0.313,
        "velocity": 0.63,
        "hand": "right"
      },
      {
        "midi": 64,
        "time": 13.125,
        "duration": 0.625,
        "velocity": 0.63,
        "hand": "right"
      },
      {
        "midi": 60,
        "time": 13.75,
        "duration": 0.625,
        "velocity": 0.63,
        "hand": "right"
      },
      {
        "midi": 62,
        "time": 14.375,
        "duration": 0.625,
        "velocity": 0.63,
        "hand": "right"
      },
      {
        "midi": 60,
        "time": 15,
        "duration": 0.625,
        "velocity": 0.63,
        "hand": "right"
      },
      {
        "midi": 60,
        "time": 15.625,
        "duration": 0.625,
        "velocity": 0.63,
        "hand": "right"
      },
      {
        "midi": 55,
        "time": 16.25,
        "duration": 0.313,
        "velocity": 0.63,
        "hand": "right"
      },
      {
        "midi": 55,
        "time": 16.563,
        "duration": 0.313,
        "velocity": 0.63,
        "hand": "right"
      },
      {
        "midi": 57,
        "time": 16.875,
        "duration": 0.625,
        "velocity": 0.63,
        "hand": "right"
      },
      {
        "midi": 55,
        "time": 17.5,
        "duration": 0.625,
        "velocity": 0.63,
        "hand": "right"
      },
      {
        "midi": 60,
        "time": 18.125,
        "duration": 0.625,
        "velocity": 0.63,
        "hand": "right"
      },
      {
        "midi": 59,
        "time": 18.75,
        "duration": 1.25,
        "velocity": 0.63,
        "hand": "right"
      },
      {
        "midi": 55,
        "time": 20,
        "duration": 0.313,
        "velocity": 0.63,
        "hand": "right"
      },
      {
        "midi": 55,
        "time": 20.313,
        "duration": 0.313,
        "velocity": 0.63,
        "hand": "right"
      },
      {
        "midi": 57,
        "time": 20.625,
        "duration": 0.625,
        "velocity": 0.63,
        "hand": "right"
      },
      {
        "midi": 55,
        "time": 21.25,
        "duration": 0.625,
        "velocity": 0.63,
        "hand": "right"
      },
      {
        "midi": 62,
        "time": 21.875,
        "duration": 0.625,
        "velocity": 0.63,
        "hand": "right"
      },
      {
        "midi": 60,
        "time": 22.5,
        "duration": 1.25,
        "velocity": 0.63,
        "hand": "right"
      },
      {
        "midi": 55,
        "time": 23.75,
        "duration": 0.313,
        "velocity": 0.63,
        "hand": "right"
      },
      {
        "midi": 55,
        "time": 24.063,
        "duration": 0.313,
        "velocity": 0.63,
        "hand": "right"
      },
      {
        "midi": 67,
        "time": 24.375,
        "duration": 0.625,
        "velocity": 0.63,
        "hand": "right"
      },
      {
        "midi": 64,
        "time": 25,
        "duration": 0.625,
        "velocity": 0.63,
        "hand": "right"
      },
      {
        "midi": 60,
        "time": 25.625,
        "duration": 0.625,
        "velocity": 0.63,
        "hand": "right"
      },
      {
        "midi": 59,
        "time": 26.25,
        "duration": 0.625,
        "velocity": 0.63,
        "hand": "right"
      },
      {
        "midi": 57,
        "time": 26.875,
        "duration": 0.625,
        "velocity": 0.63,
        "hand": "right"
      },
      {
        "midi": 65,
        "time": 27.5,
        "duration": 0.313,
        "velocity": 0.63,
        "hand": "right"
      },
      {
        "midi": 65,
        "time": 27.813,
        "duration": 0.313,
        "velocity": 0.63,
        "hand": "right"
      },
      {
        "midi": 64,
        "time": 28.125,
        "duration": 0.625,
        "velocity": 0.63,
        "hand": "right"
      },
      {
        "midi": 60,
        "time": 28.75,
        "duration": 0.625,
        "velocity": 0.63,
        "hand": "right"
      },
      {
        "midi": 62,
        "time": 29.375,
        "duration": 0.625,
        "velocity": 0.63,
        "hand": "right"
      },
      {
        "midi": 60,
        "time": 30,
        "duration": 1.25,
        "velocity": 0.63,
        "hand": "right"
      }
    ],
    "medium": [
      {
        "midi": 55,
        "time": 1.25,
        "duration": 0.313,
        "velocity": 0.63,
        "hand": "left"
      },
      {
        "midi": 55,
        "time": 1.563,
        "duration": 0.313,
        "velocity": 0.63,
        "hand": "left"
      },
      {
        "midi": 57,
        "time": 1.875,
        "duration": 0.625,
        "velocity": 0.63,
        "hand": "left"
      },
      {
        "midi": 55,
        "time": 2.5,
        "duration": 0.625,
        "velocity": 0.63,
        "hand": "left"
      },
      {
        "midi": 60,
        "time": 3.125,
        "duration": 0.625,
        "velocity": 0.63,
        "hand": "right"
      },
      {
        "midi": 59,
        "time": 3.75,
        "duration": 1.25,
        "velocity": 0.63,
        "hand": "left"
      },
      {
        "midi": 55,
        "time": 5,
        "duration": 0.313,
        "velocity": 0.63,
        "hand": "left"
      },
      {
        "midi": 55,
        "time": 5.313,
        "duration": 0.313,
        "velocity": 0.63,
        "hand": "left"
      },
      {
        "midi": 57,
        "time": 5.625,
        "duration": 0.625,
        "velocity": 0.63,
        "hand": "left"
      },
      {
        "midi": 55,
        "time": 6.25,
        "duration": 0.625,
        "velocity": 0.63,
        "hand": "left"
      },
      {
        "midi": 62,
        "time": 6.875,
        "duration": 0.625,
        "velocity": 0.63,
        "hand": "right"
      },
      {
        "midi": 60,
        "time": 7.5,
        "duration": 1.25,
        "velocity": 0.63,
        "hand": "right"
      },
      {
        "midi": 55,
        "time": 8.75,
        "duration": 0.313,
        "velocity": 0.63,
        "hand": "left"
      },
      {
        "midi": 55,
        "time": 9.063,
        "duration": 0.313,
        "velocity": 0.63,
        "hand": "left"
      },
      {
        "midi": 67,
        "time": 9.375,
        "duration": 0.625,
        "velocity": 0.63,
        "hand": "right"
      },
      {
        "midi": 64,
        "time": 10,
        "duration": 0.625,
        "velocity": 0.63,
        "hand": "right"
      },
      {
        "midi": 60,
        "time": 10.625,
        "duration": 0.625,
        "velocity": 0.63,
        "hand": "right"
      },
      {
        "midi": 59,
        "time": 11.25,
        "duration": 0.625,
        "velocity": 0.63,
        "hand": "left"
      },
      {
        "midi": 57,
        "time": 11.875,
        "duration": 0.625,
        "velocity": 0.63,
        "hand": "left"
      },
      {
        "midi": 65,
        "time": 12.5,
        "duration": 0.313,
        "velocity": 0.63,
        "hand": "right"
      },
      {
        "midi": 65,
        "time": 12.813,
        "duration": 0.313,
        "velocity": 0.63,
        "hand": "right"
      },
      {
        "midi": 64,
        "time": 13.125,
        "duration": 0.625,
        "velocity": 0.63,
        "hand": "right"
      },
      {
        "midi": 60,
        "time": 13.75,
        "duration": 0.625,
        "velocity": 0.63,
        "hand": "right"
      },
      {
        "midi": 62,
        "time": 14.375,
        "duration": 0.625,
        "velocity": 0.63,
        "hand": "right"
      },
      {
        "midi": 60,
        "time": 15,
        "duration": 0.625,
        "velocity": 0.63,
        "hand": "right"
      },
      {
        "midi": 60,
        "time": 15.625,
        "duration": 0.625,
        "velocity": 0.63,
        "hand": "right"
      },
      {
        "midi": 55,
        "time": 16.25,
        "duration": 0.313,
        "velocity": 0.63,
        "hand": "left"
      },
      {
        "midi": 55,
        "time": 16.563,
        "duration": 0.313,
        "velocity": 0.63,
        "hand": "left"
      },
      {
        "midi": 57,
        "time": 16.875,
        "duration": 0.625,
        "velocity": 0.63,
        "hand": "left"
      },
      {
        "midi": 55,
        "time": 17.5,
        "duration": 0.625,
        "velocity": 0.63,
        "hand": "left"
      },
      {
        "midi": 60,
        "time": 18.125,
        "duration": 0.625,
        "velocity": 0.63,
        "hand": "right"
      },
      {
        "midi": 59,
        "time": 18.75,
        "duration": 1.25,
        "velocity": 0.63,
        "hand": "left"
      },
      {
        "midi": 55,
        "time": 20,
        "duration": 0.313,
        "velocity": 0.63,
        "hand": "left"
      },
      {
        "midi": 55,
        "time": 20.313,
        "duration": 0.313,
        "velocity": 0.63,
        "hand": "left"
      },
      {
        "midi": 57,
        "time": 20.625,
        "duration": 0.625,
        "velocity": 0.63,
        "hand": "left"
      },
      {
        "midi": 55,
        "time": 21.25,
        "duration": 0.625,
        "velocity": 0.63,
        "hand": "left"
      },
      {
        "midi": 62,
        "time": 21.875,
        "duration": 0.625,
        "velocity": 0.63,
        "hand": "right"
      },
      {
        "midi": 60,
        "time": 22.5,
        "duration": 1.25,
        "velocity": 0.63,
        "hand": "right"
      },
      {
        "midi": 55,
        "time": 23.75,
        "duration": 0.313,
        "velocity": 0.63,
        "hand": "left"
      },
      {
        "midi": 55,
        "time": 24.063,
        "duration": 0.313,
        "velocity": 0.63,
        "hand": "left"
      },
      {
        "midi": 67,
        "time": 24.375,
        "duration": 0.625,
        "velocity": 0.63,
        "hand": "right"
      },
      {
        "midi": 64,
        "time": 25,
        "duration": 0.625,
        "velocity": 0.63,
        "hand": "right"
      },
      {
        "midi": 60,
        "time": 25.625,
        "duration": 0.625,
        "velocity": 0.63,
        "hand": "right"
      },
      {
        "midi": 59,
        "time": 26.25,
        "duration": 0.625,
        "velocity": 0.63,
        "hand": "left"
      },
      {
        "midi": 57,
        "time": 26.875,
        "duration": 0.625,
        "velocity": 0.63,
        "hand": "left"
      },
      {
        "midi": 65,
        "time": 27.5,
        "duration": 0.313,
        "velocity": 0.63,
        "hand": "right"
      },
      {
        "midi": 65,
        "time": 27.813,
        "duration": 0.313,
        "velocity": 0.63,
        "hand": "right"
      },
      {
        "midi": 64,
        "time": 28.125,
        "duration": 0.625,
        "velocity": 0.63,
        "hand": "right"
      },
      {
        "midi": 60,
        "time": 28.75,
        "duration": 0.625,
        "velocity": 0.63,
        "hand": "right"
      },
      {
        "midi": 62,
        "time": 29.375,
        "duration": 0.625,
        "velocity": 0.63,
        "hand": "right"
      },
      {
        "midi": 60,
        "time": 30,
        "duration": 1.25,
        "velocity": 0.63,
        "hand": "right"
      }
    ],
    "hard": [
      {
        "midi": 55,
        "time": 1.25,
        "duration": 0.313,
        "velocity": 0.63,
        "hand": "left"
      },
      {
        "midi": 55,
        "time": 1.563,
        "duration": 0.313,
        "velocity": 0.63,
        "hand": "left"
      },
      {
        "midi": 57,
        "time": 1.875,
        "duration": 0.625,
        "velocity": 0.63,
        "hand": "left"
      },
      {
        "midi": 55,
        "time": 2.5,
        "duration": 0.625,
        "velocity": 0.63,
        "hand": "left"
      },
      {
        "midi": 60,
        "time": 3.125,
        "duration": 0.625,
        "velocity": 0.63,
        "hand": "right"
      },
      {
        "midi": 59,
        "time": 3.75,
        "duration": 1.25,
        "velocity": 0.63,
        "hand": "left"
      },
      {
        "midi": 55,
        "time": 5,
        "duration": 0.313,
        "velocity": 0.63,
        "hand": "left"
      },
      {
        "midi": 55,
        "time": 5.313,
        "duration": 0.313,
        "velocity": 0.63,
        "hand": "left"
      },
      {
        "midi": 57,
        "time": 5.625,
        "duration": 0.625,
        "velocity": 0.63,
        "hand": "left"
      },
      {
        "midi": 55,
        "time": 6.25,
        "duration": 0.625,
        "velocity": 0.63,
        "hand": "left"
      },
      {
        "midi": 62,
        "time": 6.875,
        "duration": 0.625,
        "velocity": 0.63,
        "hand": "right"
      },
      {
        "midi": 60,
        "time": 7.5,
        "duration": 1.25,
        "velocity": 0.63,
        "hand": "right"
      },
      {
        "midi": 55,
        "time": 8.75,
        "duration": 0.313,
        "velocity": 0.63,
        "hand": "left"
      },
      {
        "midi": 55,
        "time": 9.063,
        "duration": 0.313,
        "velocity": 0.63,
        "hand": "left"
      },
      {
        "midi": 67,
        "time": 9.375,
        "duration": 0.625,
        "velocity": 0.63,
        "hand": "right"
      },
      {
        "midi": 64,
        "time": 10,
        "duration": 0.625,
        "velocity": 0.63,
        "hand": "right"
      },
      {
        "midi": 60,
        "time": 10.625,
        "duration": 0.625,
        "velocity": 0.63,
        "hand": "right"
      },
      {
        "midi": 59,
        "time": 11.25,
        "duration": 0.625,
        "velocity": 0.63,
        "hand": "left"
      },
      {
        "midi": 57,
        "time": 11.875,
        "duration": 0.625,
        "velocity": 0.63,
        "hand": "left"
      },
      {
        "midi": 65,
        "time": 12.5,
        "duration": 0.313,
        "velocity": 0.63,
        "hand": "right"
      },
      {
        "midi": 65,
        "time": 12.813,
        "duration": 0.313,
        "velocity": 0.63,
        "hand": "right"
      },
      {
        "midi": 64,
        "time": 13.125,
        "duration": 0.625,
        "velocity": 0.63,
        "hand": "right"
      },
      {
        "midi": 60,
        "time": 13.75,
        "duration": 0.625,
        "velocity": 0.63,
        "hand": "right"
      },
      {
        "midi": 62,
        "time": 14.375,
        "duration": 0.625,
        "velocity": 0.63,
        "hand": "right"
      },
      {
        "midi": 60,
        "time": 15,
        "duration": 0.625,
        "velocity": 0.63,
        "hand": "right"
      },
      {
        "midi": 60,
        "time": 15.625,
        "duration": 0.625,
        "velocity": 0.63,
        "hand": "right"
      },
      {
        "midi": 55,
        "time": 16.25,
        "duration": 0.313,
        "velocity": 0.63,
        "hand": "left"
      },
      {
        "midi": 55,
        "time": 16.563,
        "duration": 0.313,
        "velocity": 0.63,
        "hand": "left"
      },
      {
        "midi": 57,
        "time": 16.875,
        "duration": 0.625,
        "velocity": 0.63,
        "hand": "left"
      },
      {
        "midi": 55,
        "time": 17.5,
        "duration": 0.625,
        "velocity": 0.63,
        "hand": "left"
      },
      {
        "midi": 60,
        "time": 18.125,
        "duration": 0.625,
        "velocity": 0.63,
        "hand": "right"
      },
      {
        "midi": 59,
        "time": 18.75,
        "duration": 1.25,
        "velocity": 0.63,
        "hand": "left"
      },
      {
        "midi": 55,
        "time": 20,
        "duration": 0.313,
        "velocity": 0.63,
        "hand": "left"
      },
      {
        "midi": 55,
        "time": 20.313,
        "duration": 0.313,
        "velocity": 0.63,
        "hand": "left"
      },
      {
        "midi": 57,
        "time": 20.625,
        "duration": 0.625,
        "velocity": 0.63,
        "hand": "left"
      },
      {
        "midi": 55,
        "time": 21.25,
        "duration": 0.625,
        "velocity": 0.63,
        "hand": "left"
      },
      {
        "midi": 62,
        "time": 21.875,
        "duration": 0.625,
        "velocity": 0.63,
        "hand": "right"
      },
      {
        "midi": 60,
        "time": 22.5,
        "duration": 1.25,
        "velocity": 0.63,
        "hand": "right"
      },
      {
        "midi": 55,
        "time": 23.75,
        "duration": 0.313,
        "velocity": 0.63,
        "hand": "left"
      },
      {
        "midi": 55,
        "time": 24.063,
        "duration": 0.313,
        "velocity": 0.63,
        "hand": "left"
      },
      {
        "midi": 67,
        "time": 24.375,
        "duration": 0.625,
        "velocity": 0.63,
        "hand": "right"
      },
      {
        "midi": 64,
        "time": 25,
        "duration": 0.625,
        "velocity": 0.63,
        "hand": "right"
      },
      {
        "midi": 60,
        "time": 25.625,
        "duration": 0.625,
        "velocity": 0.63,
        "hand": "right"
      },
      {
        "midi": 59,
        "time": 26.25,
        "duration": 0.625,
        "velocity": 0.63,
        "hand": "left"
      },
      {
        "midi": 57,
        "time": 26.875,
        "duration": 0.625,
        "velocity": 0.63,
        "hand": "left"
      },
      {
        "midi": 65,
        "time": 27.5,
        "duration": 0.313,
        "velocity": 0.63,
        "hand": "right"
      },
      {
        "midi": 65,
        "time": 27.813,
        "duration": 0.313,
        "velocity": 0.63,
        "hand": "right"
      },
      {
        "midi": 64,
        "time": 28.125,
        "duration": 0.625,
        "velocity": 0.63,
        "hand": "right"
      },
      {
        "midi": 60,
        "time": 28.75,
        "duration": 0.625,
        "velocity": 0.63,
        "hand": "right"
      },
      {
        "midi": 62,
        "time": 29.375,
        "duration": 0.625,
        "velocity": 0.63,
        "hand": "right"
      },
      {
        "midi": 60,
        "time": 30,
        "duration": 1.25,
        "velocity": 0.63,
        "hand": "right"
      }
    ]
  },
  "notes1Hand": [
    {
      "midi": 55,
      "time": 1.25,
      "duration": 0.313,
      "velocity": 0.63,
      "hand": "right"
    },
    {
      "midi": 55,
      "time": 1.563,
      "duration": 0.313,
      "velocity": 0.63,
      "hand": "right"
    },
    {
      "midi": 57,
      "time": 1.875,
      "duration": 0.625,
      "velocity": 0.63,
      "hand": "right"
    },
    {
      "midi": 55,
      "time": 2.5,
      "duration": 0.625,
      "velocity": 0.63,
      "hand": "right"
    },
    {
      "midi": 60,
      "time": 3.125,
      "duration": 0.625,
      "velocity": 0.63,
      "hand": "right"
    },
    {
      "midi": 59,
      "time": 3.75,
      "duration": 1.25,
      "velocity": 0.63,
      "hand": "right"
    },
    {
      "midi": 55,
      "time": 5,
      "duration": 0.313,
      "velocity": 0.63,
      "hand": "right"
    },
    {
      "midi": 55,
      "time": 5.313,
      "duration": 0.313,
      "velocity": 0.63,
      "hand": "right"
    },
    {
      "midi": 57,
      "time": 5.625,
      "duration": 0.625,
      "velocity": 0.63,
      "hand": "right"
    },
    {
      "midi": 55,
      "time": 6.25,
      "duration": 0.625,
      "velocity": 0.63,
      "hand": "right"
    },
    {
      "midi": 62,
      "time": 6.875,
      "duration": 0.625,
      "velocity": 0.63,
      "hand": "right"
    },
    {
      "midi": 60,
      "time": 7.5,
      "duration": 1.25,
      "velocity": 0.63,
      "hand": "right"
    },
    {
      "midi": 55,
      "time": 8.75,
      "duration": 0.313,
      "velocity": 0.63,
      "hand": "right"
    },
    {
      "midi": 55,
      "time": 9.063,
      "duration": 0.313,
      "velocity": 0.63,
      "hand": "right"
    },
    {
      "midi": 67,
      "time": 9.375,
      "duration": 0.625,
      "velocity": 0.63,
      "hand": "right"
    },
    {
      "midi": 64,
      "time": 10,
      "duration": 0.625,
      "velocity": 0.63,
      "hand": "right"
    },
    {
      "midi": 60,
      "time": 10.625,
      "duration": 0.625,
      "velocity": 0.63,
      "hand": "right"
    },
    {
      "midi": 59,
      "time": 11.25,
      "duration": 0.625,
      "velocity": 0.63,
      "hand": "right"
    },
    {
      "midi": 57,
      "time": 11.875,
      "duration": 0.625,
      "velocity": 0.63,
      "hand": "right"
    },
    {
      "midi": 65,
      "time": 12.5,
      "duration": 0.313,
      "velocity": 0.63,
      "hand": "right"
    },
    {
      "midi": 65,
      "time": 12.813,
      "duration": 0.313,
      "velocity": 0.63,
      "hand": "right"
    },
    {
      "midi": 64,
      "time": 13.125,
      "duration": 0.625,
      "velocity": 0.63,
      "hand": "right"
    },
    {
      "midi": 60,
      "time": 13.75,
      "duration": 0.625,
      "velocity": 0.63,
      "hand": "right"
    },
    {
      "midi": 62,
      "time": 14.375,
      "duration": 0.625,
      "velocity": 0.63,
      "hand": "right"
    },
    {
      "midi": 60,
      "time": 15,
      "duration": 0.625,
      "velocity": 0.63,
      "hand": "right"
    },
    {
      "midi": 60,
      "time": 15.625,
      "duration": 0.625,
      "velocity": 0.63,
      "hand": "right"
    },
    {
      "midi": 55,
      "time": 16.25,
      "duration": 0.313,
      "velocity": 0.63,
      "hand": "right"
    },
    {
      "midi": 55,
      "time": 16.563,
      "duration": 0.313,
      "velocity": 0.63,
      "hand": "right"
    },
    {
      "midi": 57,
      "time": 16.875,
      "duration": 0.625,
      "velocity": 0.63,
      "hand": "right"
    },
    {
      "midi": 55,
      "time": 17.5,
      "duration": 0.625,
      "velocity": 0.63,
      "hand": "right"
    },
    {
      "midi": 60,
      "time": 18.125,
      "duration": 0.625,
      "velocity": 0.63,
      "hand": "right"
    },
    {
      "midi": 59,
      "time": 18.75,
      "duration": 1.25,
      "velocity": 0.63,
      "hand": "right"
    },
    {
      "midi": 55,
      "time": 20,
      "duration": 0.313,
      "velocity": 0.63,
      "hand": "right"
    },
    {
      "midi": 55,
      "time": 20.313,
      "duration": 0.313,
      "velocity": 0.63,
      "hand": "right"
    },
    {
      "midi": 57,
      "time": 20.625,
      "duration": 0.625,
      "velocity": 0.63,
      "hand": "right"
    },
    {
      "midi": 55,
      "time": 21.25,
      "duration": 0.625,
      "velocity": 0.63,
      "hand": "right"
    },
    {
      "midi": 62,
      "time": 21.875,
      "duration": 0.625,
      "velocity": 0.63,
      "hand": "right"
    },
    {
      "midi": 60,
      "time": 22.5,
      "duration": 1.25,
      "velocity": 0.63,
      "hand": "right"
    },
    {
      "midi": 55,
      "time": 23.75,
      "duration": 0.313,
      "velocity": 0.63,
      "hand": "right"
    },
    {
      "midi": 55,
      "time": 24.063,
      "duration": 0.313,
      "velocity": 0.63,
      "hand": "right"
    },
    {
      "midi": 67,
      "time": 24.375,
      "duration": 0.625,
      "velocity": 0.63,
      "hand": "right"
    },
    {
      "midi": 64,
      "time": 25,
      "duration": 0.625,
      "velocity": 0.63,
      "hand": "right"
    },
    {
      "midi": 60,
      "time": 25.625,
      "duration": 0.625,
      "velocity": 0.63,
      "hand": "right"
    },
    {
      "midi": 59,
      "time": 26.25,
      "duration": 0.625,
      "velocity": 0.63,
      "hand": "right"
    },
    {
      "midi": 57,
      "time": 26.875,
      "duration": 0.625,
      "velocity": 0.63,
      "hand": "right"
    },
    {
      "midi": 65,
      "time": 27.5,
      "duration": 0.313,
      "velocity": 0.63,
      "hand": "right"
    },
    {
      "midi": 65,
      "time": 27.813,
      "duration": 0.313,
      "velocity": 0.63,
      "hand": "right"
    },
    {
      "midi": 64,
      "time": 28.125,
      "duration": 0.625,
      "velocity": 0.63,
      "hand": "right"
    },
    {
      "midi": 60,
      "time": 28.75,
      "duration": 0.625,
      "velocity": 0.63,
      "hand": "right"
    },
    {
      "midi": 62,
      "time": 29.375,
      "duration": 0.625,
      "velocity": 0.63,
      "hand": "right"
    },
    {
      "midi": 60,
      "time": 30,
      "duration": 1.25,
      "velocity": 0.63,
      "hand": "right"
    }
  ],
  "notes2Hands": [
    {
      "midi": 55,
      "time": 1.25,
      "duration": 0.313,
      "velocity": 0.63,
      "hand": "left"
    },
    {
      "midi": 55,
      "time": 1.563,
      "duration": 0.313,
      "velocity": 0.63,
      "hand": "left"
    },
    {
      "midi": 57,
      "time": 1.875,
      "duration": 0.625,
      "velocity": 0.63,
      "hand": "left"
    },
    {
      "midi": 55,
      "time": 2.5,
      "duration": 0.625,
      "velocity": 0.63,
      "hand": "left"
    },
    {
      "midi": 60,
      "time": 3.125,
      "duration": 0.625,
      "velocity": 0.63,
      "hand": "right"
    },
    {
      "midi": 59,
      "time": 3.75,
      "duration": 1.25,
      "velocity": 0.63,
      "hand": "left"
    },
    {
      "midi": 55,
      "time": 5,
      "duration": 0.313,
      "velocity": 0.63,
      "hand": "left"
    },
    {
      "midi": 55,
      "time": 5.313,
      "duration": 0.313,
      "velocity": 0.63,
      "hand": "left"
    },
    {
      "midi": 57,
      "time": 5.625,
      "duration": 0.625,
      "velocity": 0.63,
      "hand": "left"
    },
    {
      "midi": 55,
      "time": 6.25,
      "duration": 0.625,
      "velocity": 0.63,
      "hand": "left"
    },
    {
      "midi": 62,
      "time": 6.875,
      "duration": 0.625,
      "velocity": 0.63,
      "hand": "right"
    },
    {
      "midi": 60,
      "time": 7.5,
      "duration": 1.25,
      "velocity": 0.63,
      "hand": "right"
    },
    {
      "midi": 55,
      "time": 8.75,
      "duration": 0.313,
      "velocity": 0.63,
      "hand": "left"
    },
    {
      "midi": 55,
      "time": 9.063,
      "duration": 0.313,
      "velocity": 0.63,
      "hand": "left"
    },
    {
      "midi": 67,
      "time": 9.375,
      "duration": 0.625,
      "velocity": 0.63,
      "hand": "right"
    },
    {
      "midi": 64,
      "time": 10,
      "duration": 0.625,
      "velocity": 0.63,
      "hand": "right"
    },
    {
      "midi": 60,
      "time": 10.625,
      "duration": 0.625,
      "velocity": 0.63,
      "hand": "right"
    },
    {
      "midi": 59,
      "time": 11.25,
      "duration": 0.625,
      "velocity": 0.63,
      "hand": "left"
    },
    {
      "midi": 57,
      "time": 11.875,
      "duration": 0.625,
      "velocity": 0.63,
      "hand": "left"
    },
    {
      "midi": 65,
      "time": 12.5,
      "duration": 0.313,
      "velocity": 0.63,
      "hand": "right"
    },
    {
      "midi": 65,
      "time": 12.813,
      "duration": 0.313,
      "velocity": 0.63,
      "hand": "right"
    },
    {
      "midi": 64,
      "time": 13.125,
      "duration": 0.625,
      "velocity": 0.63,
      "hand": "right"
    },
    {
      "midi": 60,
      "time": 13.75,
      "duration": 0.625,
      "velocity": 0.63,
      "hand": "right"
    },
    {
      "midi": 62,
      "time": 14.375,
      "duration": 0.625,
      "velocity": 0.63,
      "hand": "right"
    },
    {
      "midi": 60,
      "time": 15,
      "duration": 0.625,
      "velocity": 0.63,
      "hand": "right"
    },
    {
      "midi": 60,
      "time": 15.625,
      "duration": 0.625,
      "velocity": 0.63,
      "hand": "right"
    },
    {
      "midi": 55,
      "time": 16.25,
      "duration": 0.313,
      "velocity": 0.63,
      "hand": "left"
    },
    {
      "midi": 55,
      "time": 16.563,
      "duration": 0.313,
      "velocity": 0.63,
      "hand": "left"
    },
    {
      "midi": 57,
      "time": 16.875,
      "duration": 0.625,
      "velocity": 0.63,
      "hand": "left"
    },
    {
      "midi": 55,
      "time": 17.5,
      "duration": 0.625,
      "velocity": 0.63,
      "hand": "left"
    },
    {
      "midi": 60,
      "time": 18.125,
      "duration": 0.625,
      "velocity": 0.63,
      "hand": "right"
    },
    {
      "midi": 59,
      "time": 18.75,
      "duration": 1.25,
      "velocity": 0.63,
      "hand": "left"
    },
    {
      "midi": 55,
      "time": 20,
      "duration": 0.313,
      "velocity": 0.63,
      "hand": "left"
    },
    {
      "midi": 55,
      "time": 20.313,
      "duration": 0.313,
      "velocity": 0.63,
      "hand": "left"
    },
    {
      "midi": 57,
      "time": 20.625,
      "duration": 0.625,
      "velocity": 0.63,
      "hand": "left"
    },
    {
      "midi": 55,
      "time": 21.25,
      "duration": 0.625,
      "velocity": 0.63,
      "hand": "left"
    },
    {
      "midi": 62,
      "time": 21.875,
      "duration": 0.625,
      "velocity": 0.63,
      "hand": "right"
    },
    {
      "midi": 60,
      "time": 22.5,
      "duration": 1.25,
      "velocity": 0.63,
      "hand": "right"
    },
    {
      "midi": 55,
      "time": 23.75,
      "duration": 0.313,
      "velocity": 0.63,
      "hand": "left"
    },
    {
      "midi": 55,
      "time": 24.063,
      "duration": 0.313,
      "velocity": 0.63,
      "hand": "left"
    },
    {
      "midi": 67,
      "time": 24.375,
      "duration": 0.625,
      "velocity": 0.63,
      "hand": "right"
    },
    {
      "midi": 64,
      "time": 25,
      "duration": 0.625,
      "velocity": 0.63,
      "hand": "right"
    },
    {
      "midi": 60,
      "time": 25.625,
      "duration": 0.625,
      "velocity": 0.63,
      "hand": "right"
    },
    {
      "midi": 59,
      "time": 26.25,
      "duration": 0.625,
      "velocity": 0.63,
      "hand": "left"
    },
    {
      "midi": 57,
      "time": 26.875,
      "duration": 0.625,
      "velocity": 0.63,
      "hand": "left"
    },
    {
      "midi": 65,
      "time": 27.5,
      "duration": 0.313,
      "velocity": 0.63,
      "hand": "right"
    },
    {
      "midi": 65,
      "time": 27.813,
      "duration": 0.313,
      "velocity": 0.63,
      "hand": "right"
    },
    {
      "midi": 64,
      "time": 28.125,
      "duration": 0.625,
      "velocity": 0.63,
      "hand": "right"
    },
    {
      "midi": 60,
      "time": 28.75,
      "duration": 0.625,
      "velocity": 0.63,
      "hand": "right"
    },
    {
      "midi": 62,
      "time": 29.375,
      "duration": 0.625,
      "velocity": 0.63,
      "hand": "right"
    },
    {
      "midi": 60,
      "time": 30,
      "duration": 1.25,
      "velocity": 0.63,
      "hand": "right"
    }
  ]
}
