{
  "id": "parabens",
  "title": "Piano\u0000",
  "artist": "MIDI Source",
  "difficulty": "Médio",
  "bpm": 92,
  "duration": 16,
  "category": "Infantis",
  "isPremium": true,
  "coverUrl": "/images/covers/placeholder.png",
  "notes": [
    {
      "midi": 60,
      "time": 0,
      "duration": 0.308,
      "velocity": 0.63,
      "hand": "right"
    },
    {
      "midi": 60,
      "time": 0.326,
      "duration": 0.308,
      "velocity": 0.63,
      "hand": "right"
    },
    {
      "midi": 62,
      "time": 0.652,
      "duration": 0.618,
      "velocity": 0.63,
      "hand": "right"
    },
    {
      "midi": 41,
      "time": 0.652,
      "duration": 1.957,
      "velocity": 0.63,
      "hand": "left"
    },
    {
      "midi": 60,
      "time": 0.652,
      "duration": 1.957,
      "velocity": 0.63,
      "hand": "right"
    },
    {
      "midi": 65,
      "time": 0.652,
      "duration": 1.957,
      "velocity": 0.63,
      "hand": "right"
    },
    {
      "midi": 69,
      "time": 0.652,
      "duration": 1.957,
      "velocity": 0.63,
      "hand": "right"
    },
    {
      "midi": 41,
      "time": 0.652,
      "duration": 0.618,
      "velocity": 0.63,
      "hand": "left"
    },
    {
      "midi": 60,
      "time": 1.304,
      "duration": 0.618,
      "velocity": 0.63,
      "hand": "right"
    },
    {
      "midi": 48,
      "time": 1.304,
      "duration": 0.618,
      "velocity": 0.63,
      "hand": "left"
    },
    {
      "midi": 65,
      "time": 1.957,
      "duration": 0.618,
      "velocity": 0.63,
      "hand": "right"
    },
    {
      "midi": 53,
      "time": 1.957,
      "duration": 0.618,
      "velocity": 0.63,
      "hand": "left"
    },
    {
      "midi": 64,
      "time": 2.609,
      "duration": 1.238,
      "velocity": 0.63,
      "hand": "right"
    },
    {
      "midi": 36,
      "time": 2.609,
      "duration": 1.957,
      "velocity": 0.63,
      "hand": "left"
    },
    {
      "midi": 60,
      "time": 2.609,
      "duration": 1.957,
      "velocity": 0.63,
      "hand": "right"
    },
    {
      "midi": 64,
      "time": 2.609,
      "duration": 1.957,
      "velocity": 0.63,
      "hand": "right"
    },
    {
      "midi": 67,
      "time": 2.609,
      "duration": 1.957,
      "velocity": 0.63,
      "hand": "right"
    },
    {
      "midi": 43,
      "time": 2.609,
      "duration": 0.618,
      "velocity": 0.63,
      "hand": "left"
    },
    {
      "midi": 48,
      "time": 3.261,
      "duration": 0.618,
      "velocity": 0.63,
      "hand": "left"
    },
    {
      "midi": 60,
      "time": 3.913,
      "duration": 0.308,
      "velocity": 0.63,
      "hand": "right"
    },
    {
      "midi": 52,
      "time": 3.913,
      "duration": 0.618,
      "velocity": 0.63,
      "hand": "left"
    },
    {
      "midi": 60,
      "time": 4.239,
      "duration": 0.308,
      "velocity": 0.63,
      "hand": "right"
    },
    {
      "midi": 62,
      "time": 4.565,
      "duration": 0.618,
      "velocity": 0.63,
      "hand": "right"
    },
    {
      "midi": 36,
      "time": 4.565,
      "duration": 1.957,
      "velocity": 0.63,
      "hand": "left"
    },
    {
      "midi": 60,
      "time": 4.565,
      "duration": 1.957,
      "velocity": 0.63,
      "hand": "right"
    },
    {
      "midi": 64,
      "time": 4.565,
      "duration": 1.957,
      "velocity": 0.63,
      "hand": "right"
    },
    {
      "midi": 67,
      "time": 4.565,
      "duration": 1.957,
      "velocity": 0.63,
      "hand": "right"
    },
    {
      "midi": 43,
      "time": 4.565,
      "duration": 0.618,
      "velocity": 0.63,
      "hand": "left"
    },
    {
      "midi": 60,
      "time": 5.217,
      "duration": 0.618,
      "velocity": 0.63,
      "hand": "right"
    },
    {
      "midi": 48,
      "time": 5.217,
      "duration": 0.618,
      "velocity": 0.63,
      "hand": "left"
    },
    {
      "midi": 67,
      "time": 5.87,
      "duration": 0.618,
      "velocity": 0.63,
      "hand": "right"
    },
    {
      "midi": 52,
      "time": 5.87,
      "duration": 0.618,
      "velocity": 0.63,
      "hand": "left"
    },
    {
      "midi": 65,
      "time": 6.522,
      "duration": 0.618,
      "velocity": 0.63,
      "hand": "right"
    },
    {
      "midi": 41,
      "time": 6.522,
      "duration": 1.957,
      "velocity": 0.63,
      "hand": "left"
    },
    {
      "midi": 60,
      "time": 6.522,
      "duration": 1.957,
      "velocity": 0.63,
      "hand": "right"
    },
    {
      "midi": 65,
      "time": 6.522,
      "duration": 1.957,
      "velocity": 0.63,
      "hand": "right"
    },
    {
      "midi": 69,
      "time": 6.522,
      "duration": 1.957,
      "velocity": 0.63,
      "hand": "right"
    },
    {
      "midi": 41,
      "time": 6.522,
      "duration": 0.618,
      "velocity": 0.63,
      "hand": "left"
    },
    {
      "midi": 65,
      "time": 7.174,
      "duration": 0.618,
      "velocity": 0.63,
      "hand": "right"
    },
    {
      "midi": 48,
      "time": 7.174,
      "duration": 0.618,
      "velocity": 0.63,
      "hand": "left"
    },
    {
      "midi": 69,
      "time": 7.826,
      "duration": 0.308,
      "velocity": 0.63,
      "hand": "right"
    },
    {
      "midi": 53,
      "time": 7.826,
      "duration": 0.618,
      "velocity": 0.63,
      "hand": "left"
    },
    {
      "midi": 69,
      "time": 8.152,
      "duration": 0.308,
      "velocity": 0.63,
      "hand": "right"
    },
    {
      "midi": 72,
      "time": 8.478,
      "duration": 0.618,
      "velocity": 0.63,
      "hand": "right"
    },
    {
      "midi": 41,
      "time": 8.478,
      "duration": 1.957,
      "velocity": 0.63,
      "hand": "left"
    },
    {
      "midi": 60,
      "time": 8.478,
      "duration": 1.957,
      "velocity": 0.63,
      "hand": "right"
    },
    {
      "midi": 65,
      "time": 8.478,
      "duration": 1.957,
      "velocity": 0.63,
      "hand": "right"
    },
    {
      "midi": 69,
      "time": 8.478,
      "duration": 1.957,
      "velocity": 0.63,
      "hand": "right"
    },
    {
      "midi": 45,
      "time": 8.478,
      "duration": 0.618,
      "velocity": 0.63,
      "hand": "left"
    },
    {
      "midi": 69,
      "time": 9.13,
      "duration": 0.618,
      "velocity": 0.63,
      "hand": "right"
    },
    {
      "midi": 48,
      "time": 9.13,
      "duration": 0.618,
      "velocity": 0.63,
      "hand": "left"
    },
    {
      "midi": 65,
      "time": 9.783,
      "duration": 0.618,
      "velocity": 0.63,
      "hand": "right"
    },
    {
      "midi": 53,
      "time": 9.783,
      "duration": 0.618,
      "velocity": 0.63,
      "hand": "left"
    },
    {
      "midi": 64,
      "time": 10.435,
      "duration": 0.618,
      "velocity": 0.63,
      "hand": "right"
    },
    {
      "midi": 46,
      "time": 10.435,
      "duration": 1.957,
      "velocity": 0.63,
      "hand": "left"
    },
    {
      "midi": 62,
      "time": 10.435,
      "duration": 1.957,
      "velocity": 0.63,
      "hand": "right"
    },
    {
      "midi": 65,
      "time": 10.435,
      "duration": 1.957,
      "velocity": 0.63,
      "hand": "right"
    },
    {
      "midi": 70,
      "time": 10.435,
      "duration": 1.957,
      "velocity": 0.63,
      "hand": "right"
    },
    {
      "midi": 46,
      "time": 10.435,
      "duration": 0.618,
      "velocity": 0.63,
      "hand": "left"
    },
    {
      "midi": 62,
      "time": 11.087,
      "duration": 0.618,
      "velocity": 0.63,
      "hand": "right"
    },
    {
      "midi": 50,
      "time": 11.087,
      "duration": 0.618,
      "velocity": 0.63,
      "hand": "left"
    },
    {
      "midi": 70,
      "time": 11.739,
      "duration": 0.308,
      "velocity": 0.63,
      "hand": "right"
    },
    {
      "midi": 53,
      "time": 11.739,
      "duration": 0.618,
      "velocity": 0.63,
      "hand": "left"
    },
    {
      "midi": 70,
      "time": 12.065,
      "duration": 0.308,
      "velocity": 0.63,
      "hand": "right"
    },
    {
      "midi": 69,
      "time": 12.391,
      "duration": 0.618,
      "velocity": 0.63,
      "hand": "right"
    },
    {
      "midi": 41,
      "time": 12.391,
      "duration": 1.304,
      "velocity": 0.63,
      "hand": "left"
    },
    {
      "midi": 60,
      "time": 12.391,
      "duration": 1.304,
      "velocity": 0.63,
      "hand": "right"
    },
    {
      "midi": 65,
      "time": 12.391,
      "duration": 1.304,
      "velocity": 0.63,
      "hand": "right"
    },
    {
      "midi": 69,
      "time": 12.391,
      "duration": 1.304,
      "velocity": 0.63,
      "hand": "right"
    },
    {
      "midi": 41,
      "time": 12.391,
      "duration": 0.618,
      "velocity": 0.63,
      "hand": "left"
    },
    {
      "midi": 65,
      "time": 13.043,
      "duration": 0.618,
      "velocity": 0.63,
      "hand": "right"
    },
    {
      "midi": 45,
      "time": 13.043,
      "duration": 0.618,
      "velocity": 0.63,
      "hand": "left"
    },
    {
      "midi": 67,
      "time": 13.696,
      "duration": 0.618,
      "velocity": 0.63,
      "hand": "right"
    },
    {
      "midi": 36,
      "time": 13.696,
      "duration": 0.652,
      "velocity": 0.63,
      "hand": "left"
    },
    {
      "midi": 60,
      "time": 13.696,
      "duration": 0.652,
      "velocity": 0.63,
      "hand": "right"
    },
    {
      "midi": 64,
      "time": 13.696,
      "duration": 0.652,
      "velocity": 0.63,
      "hand": "right"
    },
    {
      "midi": 67,
      "time": 13.696,
      "duration": 0.652,
      "velocity": 0.63,
      "hand": "right"
    },
    {
      "midi": 48,
      "time": 13.696,
      "duration": 0.618,
      "velocity": 0.63,
      "hand": "left"
    },
    {
      "midi": 65,
      "time": 14.348,
      "duration": 0.618,
      "velocity": 0.63,
      "hand": "right"
    },
    {
      "midi": 41,
      "time": 14.348,
      "duration": 1.957,
      "velocity": 0.63,
      "hand": "left"
    },
    {
      "midi": 60,
      "time": 14.348,
      "duration": 1.957,
      "velocity": 0.63,
      "hand": "right"
    },
    {
      "midi": 65,
      "time": 14.348,
      "duration": 1.957,
      "velocity": 0.63,
      "hand": "right"
    },
    {
      "midi": 69,
      "time": 14.348,
      "duration": 1.957,
      "velocity": 0.63,
      "hand": "right"
    },
    {
      "midi": 41,
      "time": 14.348,
      "duration": 0.618,
      "velocity": 0.63,
      "hand": "left"
    },
    {
      "midi": 65,
      "time": 15,
      "duration": 1.238,
      "velocity": 0.63,
      "hand": "right"
    },
    {
      "midi": 41,
      "time": 15,
      "duration": 1.238,
      "velocity": 0.63,
      "hand": "left"
    }
  ],
  "notes1Hand": [
    {
      "midi": 55,
      "time": 1.25,
      "duration": 0.296,
      "velocity": 0.63,
      "hand": "left"
    },
    {
      "midi": 55,
      "time": 1.563,
      "duration": 0.296,
      "velocity": 0.63,
      "hand": "left"
    },
    {
      "midi": 57,
      "time": 1.875,
      "duration": 0.592,
      "velocity": 0.63,
      "hand": "left"
    },
    {
      "midi": 55,
      "time": 2.5,
      "duration": 0.592,
      "velocity": 0.63,
      "hand": "left"
    },
    {
      "midi": 60,
      "time": 3.125,
      "duration": 0.592,
      "velocity": 0.63,
      "hand": "right"
    },
    {
      "midi": 59,
      "time": 3.75,
      "duration": 1.186,
      "velocity": 0.63,
      "hand": "left"
    },
    {
      "midi": 55,
      "time": 5,
      "duration": 0.296,
      "velocity": 0.63,
      "hand": "left"
    },
    {
      "midi": 55,
      "time": 5.313,
      "duration": 0.296,
      "velocity": 0.63,
      "hand": "left"
    },
    {
      "midi": 57,
      "time": 5.625,
      "duration": 0.592,
      "velocity": 0.63,
      "hand": "left"
    },
    {
      "midi": 55,
      "time": 6.25,
      "duration": 0.592,
      "velocity": 0.63,
      "hand": "left"
    },
    {
      "midi": 62,
      "time": 6.875,
      "duration": 0.592,
      "velocity": 0.63,
      "hand": "right"
    },
    {
      "midi": 60,
      "time": 7.5,
      "duration": 1.186,
      "velocity": 0.63,
      "hand": "right"
    },
    {
      "midi": 55,
      "time": 8.75,
      "duration": 0.296,
      "velocity": 0.63,
      "hand": "left"
    },
    {
      "midi": 55,
      "time": 9.063,
      "duration": 0.296,
      "velocity": 0.63,
      "hand": "left"
    },
    {
      "midi": 67,
      "time": 9.375,
      "duration": 0.592,
      "velocity": 0.63,
      "hand": "right"
    },
    {
      "midi": 64,
      "time": 10,
      "duration": 0.592,
      "velocity": 0.63,
      "hand": "right"
    },
    {
      "midi": 60,
      "time": 10.625,
      "duration": 0.592,
      "velocity": 0.63,
      "hand": "right"
    },
    {
      "midi": 59,
      "time": 11.25,
      "duration": 0.592,
      "velocity": 0.63,
      "hand": "left"
    },
    {
      "midi": 57,
      "time": 11.875,
      "duration": 0.592,
      "velocity": 0.63,
      "hand": "left"
    },
    {
      "midi": 65,
      "time": 12.5,
      "duration": 0.296,
      "velocity": 0.63,
      "hand": "right"
    },
    {
      "midi": 65,
      "time": 12.813,
      "duration": 0.296,
      "velocity": 0.63,
      "hand": "right"
    },
    {
      "midi": 64,
      "time": 13.125,
      "duration": 0.592,
      "velocity": 0.63,
      "hand": "right"
    },
    {
      "midi": 60,
      "time": 13.75,
      "duration": 0.592,
      "velocity": 0.63,
      "hand": "right"
    },
    {
      "midi": 62,
      "time": 14.375,
      "duration": 0.592,
      "velocity": 0.63,
      "hand": "right"
    },
    {
      "midi": 60,
      "time": 15,
      "duration": 0.592,
      "velocity": 0.63,
      "hand": "right"
    },
    {
      "midi": 60,
      "time": 15.625,
      "duration": 0.592,
      "velocity": 0.63,
      "hand": "right"
    },
    {
      "midi": 55,
      "time": 16.25,
      "duration": 0.296,
      "velocity": 0.63,
      "hand": "left"
    },
    {
      "midi": 55,
      "time": 16.563,
      "duration": 0.296,
      "velocity": 0.63,
      "hand": "left"
    },
    {
      "midi": 57,
      "time": 16.875,
      "duration": 0.592,
      "velocity": 0.63,
      "hand": "left"
    },
    {
      "midi": 55,
      "time": 17.5,
      "duration": 0.592,
      "velocity": 0.63,
      "hand": "left"
    },
    {
      "midi": 60,
      "time": 18.125,
      "duration": 0.592,
      "velocity": 0.63,
      "hand": "right"
    },
    {
      "midi": 59,
      "time": 18.75,
      "duration": 1.186,
      "velocity": 0.63,
      "hand": "left"
    },
    {
      "midi": 55,
      "time": 20,
      "duration": 0.296,
      "velocity": 0.63,
      "hand": "left"
    },
    {
      "midi": 55,
      "time": 20.312,
      "duration": 0.296,
      "velocity": 0.63,
      "hand": "left"
    },
    {
      "midi": 57,
      "time": 20.625,
      "duration": 0.592,
      "velocity": 0.63,
      "hand": "left"
    },
    {
      "midi": 55,
      "time": 21.25,
      "duration": 0.592,
      "velocity": 0.63,
      "hand": "left"
    },
    {
      "midi": 62,
      "time": 21.875,
      "duration": 0.592,
      "velocity": 0.63,
      "hand": "right"
    },
    {
      "midi": 60,
      "time": 22.5,
      "duration": 1.186,
      "velocity": 0.63,
      "hand": "right"
    },
    {
      "midi": 55,
      "time": 23.75,
      "duration": 0.296,
      "velocity": 0.63,
      "hand": "left"
    },
    {
      "midi": 55,
      "time": 24.062,
      "duration": 0.296,
      "velocity": 0.63,
      "hand": "left"
    },
    {
      "midi": 67,
      "time": 24.375,
      "duration": 0.592,
      "velocity": 0.63,
      "hand": "right"
    },
    {
      "midi": 64,
      "time": 25,
      "duration": 0.592,
      "velocity": 0.63,
      "hand": "right"
    },
    {
      "midi": 60,
      "time": 25.625,
      "duration": 0.592,
      "velocity": 0.63,
      "hand": "right"
    },
    {
      "midi": 59,
      "time": 26.25,
      "duration": 0.592,
      "velocity": 0.63,
      "hand": "left"
    },
    {
      "midi": 57,
      "time": 26.875,
      "duration": 0.592,
      "velocity": 0.63,
      "hand": "left"
    },
    {
      "midi": 65,
      "time": 27.5,
      "duration": 0.296,
      "velocity": 0.63,
      "hand": "right"
    },
    {
      "midi": 65,
      "time": 27.813,
      "duration": 0.296,
      "velocity": 0.63,
      "hand": "right"
    },
    {
      "midi": 64,
      "time": 28.125,
      "duration": 0.592,
      "velocity": 0.63,
      "hand": "right"
    },
    {
      "midi": 60,
      "time": 28.75,
      "duration": 0.592,
      "velocity": 0.63,
      "hand": "right"
    },
    {
      "midi": 62,
      "time": 29.375,
      "duration": 0.592,
      "velocity": 0.63,
      "hand": "right"
    },
    {
      "midi": 60,
      "time": 30,
      "duration": 1.186,
      "velocity": 0.63,
      "hand": "right"
    }
  ],
  "notes2Hands": [
    {
      "midi": 60,
      "time": 0,
      "duration": 0.308,
      "velocity": 0.63,
      "hand": "right"
    },
    {
      "midi": 60,
      "time": 0.326,
      "duration": 0.308,
      "velocity": 0.63,
      "hand": "right"
    },
    {
      "midi": 62,
      "time": 0.652,
      "duration": 0.618,
      "velocity": 0.63,
      "hand": "right"
    },
    {
      "midi": 41,
      "time": 0.652,
      "duration": 1.957,
      "velocity": 0.63,
      "hand": "left"
    },
    {
      "midi": 60,
      "time": 0.652,
      "duration": 1.957,
      "velocity": 0.63,
      "hand": "right"
    },
    {
      "midi": 65,
      "time": 0.652,
      "duration": 1.957,
      "velocity": 0.63,
      "hand": "right"
    },
    {
      "midi": 69,
      "time": 0.652,
      "duration": 1.957,
      "velocity": 0.63,
      "hand": "right"
    },
    {
      "midi": 41,
      "time": 0.652,
      "duration": 0.618,
      "velocity": 0.63,
      "hand": "left"
    },
    {
      "midi": 60,
      "time": 1.304,
      "duration": 0.618,
      "velocity": 0.63,
      "hand": "right"
    },
    {
      "midi": 48,
      "time": 1.304,
      "duration": 0.618,
      "velocity": 0.63,
      "hand": "left"
    },
    {
      "midi": 65,
      "time": 1.957,
      "duration": 0.618,
      "velocity": 0.63,
      "hand": "right"
    },
    {
      "midi": 53,
      "time": 1.957,
      "duration": 0.618,
      "velocity": 0.63,
      "hand": "left"
    },
    {
      "midi": 64,
      "time": 2.609,
      "duration": 1.238,
      "velocity": 0.63,
      "hand": "right"
    },
    {
      "midi": 36,
      "time": 2.609,
      "duration": 1.957,
      "velocity": 0.63,
      "hand": "left"
    },
    {
      "midi": 60,
      "time": 2.609,
      "duration": 1.957,
      "velocity": 0.63,
      "hand": "right"
    },
    {
      "midi": 64,
      "time": 2.609,
      "duration": 1.957,
      "velocity": 0.63,
      "hand": "right"
    },
    {
      "midi": 67,
      "time": 2.609,
      "duration": 1.957,
      "velocity": 0.63,
      "hand": "right"
    },
    {
      "midi": 43,
      "time": 2.609,
      "duration": 0.618,
      "velocity": 0.63,
      "hand": "left"
    },
    {
      "midi": 48,
      "time": 3.261,
      "duration": 0.618,
      "velocity": 0.63,
      "hand": "left"
    },
    {
      "midi": 60,
      "time": 3.913,
      "duration": 0.308,
      "velocity": 0.63,
      "hand": "right"
    },
    {
      "midi": 52,
      "time": 3.913,
      "duration": 0.618,
      "velocity": 0.63,
      "hand": "left"
    },
    {
      "midi": 60,
      "time": 4.239,
      "duration": 0.308,
      "velocity": 0.63,
      "hand": "right"
    },
    {
      "midi": 62,
      "time": 4.565,
      "duration": 0.618,
      "velocity": 0.63,
      "hand": "right"
    },
    {
      "midi": 36,
      "time": 4.565,
      "duration": 1.957,
      "velocity": 0.63,
      "hand": "left"
    },
    {
      "midi": 60,
      "time": 4.565,
      "duration": 1.957,
      "velocity": 0.63,
      "hand": "right"
    },
    {
      "midi": 64,
      "time": 4.565,
      "duration": 1.957,
      "velocity": 0.63,
      "hand": "right"
    },
    {
      "midi": 67,
      "time": 4.565,
      "duration": 1.957,
      "velocity": 0.63,
      "hand": "right"
    },
    {
      "midi": 43,
      "time": 4.565,
      "duration": 0.618,
      "velocity": 0.63,
      "hand": "left"
    },
    {
      "midi": 60,
      "time": 5.217,
      "duration": 0.618,
      "velocity": 0.63,
      "hand": "right"
    },
    {
      "midi": 48,
      "time": 5.217,
      "duration": 0.618,
      "velocity": 0.63,
      "hand": "left"
    },
    {
      "midi": 67,
      "time": 5.87,
      "duration": 0.618,
      "velocity": 0.63,
      "hand": "right"
    },
    {
      "midi": 52,
      "time": 5.87,
      "duration": 0.618,
      "velocity": 0.63,
      "hand": "left"
    },
    {
      "midi": 65,
      "time": 6.522,
      "duration": 0.618,
      "velocity": 0.63,
      "hand": "right"
    },
    {
      "midi": 41,
      "time": 6.522,
      "duration": 1.957,
      "velocity": 0.63,
      "hand": "left"
    },
    {
      "midi": 60,
      "time": 6.522,
      "duration": 1.957,
      "velocity": 0.63,
      "hand": "right"
    },
    {
      "midi": 65,
      "time": 6.522,
      "duration": 1.957,
      "velocity": 0.63,
      "hand": "right"
    },
    {
      "midi": 69,
      "time": 6.522,
      "duration": 1.957,
      "velocity": 0.63,
      "hand": "right"
    },
    {
      "midi": 41,
      "time": 6.522,
      "duration": 0.618,
      "velocity": 0.63,
      "hand": "left"
    },
    {
      "midi": 65,
      "time": 7.174,
      "duration": 0.618,
      "velocity": 0.63,
      "hand": "right"
    },
    {
      "midi": 48,
      "time": 7.174,
      "duration": 0.618,
      "velocity": 0.63,
      "hand": "left"
    },
    {
      "midi": 69,
      "time": 7.826,
      "duration": 0.308,
      "velocity": 0.63,
      "hand": "right"
    },
    {
      "midi": 53,
      "time": 7.826,
      "duration": 0.618,
      "velocity": 0.63,
      "hand": "left"
    },
    {
      "midi": 69,
      "time": 8.152,
      "duration": 0.308,
      "velocity": 0.63,
      "hand": "right"
    },
    {
      "midi": 72,
      "time": 8.478,
      "duration": 0.618,
      "velocity": 0.63,
      "hand": "right"
    },
    {
      "midi": 41,
      "time": 8.478,
      "duration": 1.957,
      "velocity": 0.63,
      "hand": "left"
    },
    {
      "midi": 60,
      "time": 8.478,
      "duration": 1.957,
      "velocity": 0.63,
      "hand": "right"
    },
    {
      "midi": 65,
      "time": 8.478,
      "duration": 1.957,
      "velocity": 0.63,
      "hand": "right"
    },
    {
      "midi": 69,
      "time": 8.478,
      "duration": 1.957,
      "velocity": 0.63,
      "hand": "right"
    },
    {
      "midi": 45,
      "time": 8.478,
      "duration": 0.618,
      "velocity": 0.63,
      "hand": "left"
    },
    {
      "midi": 69,
      "time": 9.13,
      "duration": 0.618,
      "velocity": 0.63,
      "hand": "right"
    },
    {
      "midi": 48,
      "time": 9.13,
      "duration": 0.618,
      "velocity": 0.63,
      "hand": "left"
    },
    {
      "midi": 65,
      "time": 9.783,
      "duration": 0.618,
      "velocity": 0.63,
      "hand": "right"
    },
    {
      "midi": 53,
      "time": 9.783,
      "duration": 0.618,
      "velocity": 0.63,
      "hand": "left"
    },
    {
      "midi": 64,
      "time": 10.435,
      "duration": 0.618,
      "velocity": 0.63,
      "hand": "right"
    },
    {
      "midi": 46,
      "time": 10.435,
      "duration": 1.957,
      "velocity": 0.63,
      "hand": "left"
    },
    {
      "midi": 62,
      "time": 10.435,
      "duration": 1.957,
      "velocity": 0.63,
      "hand": "right"
    },
    {
      "midi": 65,
      "time": 10.435,
      "duration": 1.957,
      "velocity": 0.63,
      "hand": "right"
    },
    {
      "midi": 70,
      "time": 10.435,
      "duration": 1.957,
      "velocity": 0.63,
      "hand": "right"
    },
    {
      "midi": 46,
      "time": 10.435,
      "duration": 0.618,
      "velocity": 0.63,
      "hand": "left"
    },
    {
      "midi": 62,
      "time": 11.087,
      "duration": 0.618,
      "velocity": 0.63,
      "hand": "right"
    },
    {
      "midi": 50,
      "time": 11.087,
      "duration": 0.618,
      "velocity": 0.63,
      "hand": "left"
    },
    {
      "midi": 70,
      "time": 11.739,
      "duration": 0.308,
      "velocity": 0.63,
      "hand": "right"
    },
    {
      "midi": 53,
      "time": 11.739,
      "duration": 0.618,
      "velocity": 0.63,
      "hand": "left"
    },
    {
      "midi": 70,
      "time": 12.065,
      "duration": 0.308,
      "velocity": 0.63,
      "hand": "right"
    },
    {
      "midi": 69,
      "time": 12.391,
      "duration": 0.618,
      "velocity": 0.63,
      "hand": "right"
    },
    {
      "midi": 41,
      "time": 12.391,
      "duration": 1.304,
      "velocity": 0.63,
      "hand": "left"
    },
    {
      "midi": 60,
      "time": 12.391,
      "duration": 1.304,
      "velocity": 0.63,
      "hand": "right"
    },
    {
      "midi": 65,
      "time": 12.391,
      "duration": 1.304,
      "velocity": 0.63,
      "hand": "right"
    },
    {
      "midi": 69,
      "time": 12.391,
      "duration": 1.304,
      "velocity": 0.63,
      "hand": "right"
    },
    {
      "midi": 41,
      "time": 12.391,
      "duration": 0.618,
      "velocity": 0.63,
      "hand": "left"
    },
    {
      "midi": 65,
      "time": 13.043,
      "duration": 0.618,
      "velocity": 0.63,
      "hand": "right"
    },
    {
      "midi": 45,
      "time": 13.043,
      "duration": 0.618,
      "velocity": 0.63,
      "hand": "left"
    },
    {
      "midi": 67,
      "time": 13.696,
      "duration": 0.618,
      "velocity": 0.63,
      "hand": "right"
    },
    {
      "midi": 36,
      "time": 13.696,
      "duration": 0.652,
      "velocity": 0.63,
      "hand": "left"
    },
    {
      "midi": 60,
      "time": 13.696,
      "duration": 0.652,
      "velocity": 0.63,
      "hand": "right"
    },
    {
      "midi": 64,
      "time": 13.696,
      "duration": 0.652,
      "velocity": 0.63,
      "hand": "right"
    },
    {
      "midi": 67,
      "time": 13.696,
      "duration": 0.652,
      "velocity": 0.63,
      "hand": "right"
    },
    {
      "midi": 48,
      "time": 13.696,
      "duration": 0.618,
      "velocity": 0.63,
      "hand": "left"
    },
    {
      "midi": 65,
      "time": 14.348,
      "duration": 0.618,
      "velocity": 0.63,
      "hand": "right"
    },
    {
      "midi": 41,
      "time": 14.348,
      "duration": 1.957,
      "velocity": 0.63,
      "hand": "left"
    },
    {
      "midi": 60,
      "time": 14.348,
      "duration": 1.957,
      "velocity": 0.63,
      "hand": "right"
    },
    {
      "midi": 65,
      "time": 14.348,
      "duration": 1.957,
      "velocity": 0.63,
      "hand": "right"
    },
    {
      "midi": 69,
      "time": 14.348,
      "duration": 1.957,
      "velocity": 0.63,
      "hand": "right"
    },
    {
      "midi": 41,
      "time": 14.348,
      "duration": 0.618,
      "velocity": 0.63,
      "hand": "left"
    },
    {
      "midi": 65,
      "time": 15,
      "duration": 1.238,
      "velocity": 0.63,
      "hand": "right"
    },
    {
      "midi": 41,
      "time": 15,
      "duration": 1.238,
      "velocity": 0.63,
      "hand": "left"
    }
  ]
}