{
  "id": "passarinho-da-lagoa",
  "title": "Passarinho da Lagoa",
  "artist": "Tradicional",
  "difficulty": "Difícil",
  "bpm": 60,
  "duration": 18,
  "category": "Infantis",
  "isPremium": false,
  "coverUrl": "/images/covers/placeholder.png",
  "notes": [
    {
      "midi": 55,
      "time": 0,
      "duration": 0.5,
      "velocity": 0.79,
      "hand": "left"
    },
    {
      "midi": 70,
      "time": 0,
      "duration": 0.485,
      "velocity": 1,
      "hand": "right"
    },
    {
      "midi": 53,
      "time": 0.5,
      "duration": 0.5,
      "velocity": 0.79,
      "hand": "left"
    },
    {
      "midi": 70,
      "time": 0.5,
      "duration": 0.235,
      "velocity": 1,
      "hand": "right"
    },
    {
      "midi": 70,
      "time": 0.75,
      "duration": 0.25,
      "velocity": 1,
      "hand": "right"
    },
    {
      "midi": 51,
      "time": 1,
      "duration": 0.5,
      "velocity": 0.79,
      "hand": "left"
    },
    {
      "midi": 68,
      "time": 1,
      "duration": 0.25,
      "velocity": 1,
      "hand": "right"
    },
    {
      "midi": 46,
      "time": 1.25,
      "duration": 0.5,
      "velocity": 0.87,
      "hand": "left"
    },
    {
      "midi": 67,
      "time": 1.25,
      "duration": 0.25,
      "velocity": 1,
      "hand": "right"
    },
    {
      "midi": 50,
      "time": 1.5,
      "duration": 0.25,
      "velocity": 0.79,
      "hand": "left"
    },
    {
      "midi": 65,
      "time": 1.5,
      "duration": 0.25,
      "velocity": 1,
      "hand": "right"
    },
    {
      "midi": 43,
      "time": 1.75,
      "duration": 0.5,
      "velocity": 0.87,
      "hand": "left"
    },
    {
      "midi": 51,
      "time": 1.75,
      "duration": 0.25,
      "velocity": 0.79,
      "hand": "left"
    },
    {
      "midi": 67,
      "time": 1.75,
      "duration": 0.25,
      "velocity": 1,
      "hand": "right"
    },
    {
      "midi": 55,
      "time": 2,
      "duration": 0.485,
      "velocity": 0.79,
      "hand": "left"
    },
    {
      "midi": 70,
      "time": 2,
      "duration": 0.235,
      "velocity": 1,
      "hand": "right"
    },
    {
      "midi": 39,
      "time": 2.25,
      "duration": 0.5,
      "velocity": 0.87,
      "hand": "left"
    },
    {
      "midi": 70,
      "time": 2.25,
      "duration": 0.235,
      "velocity": 1,
      "hand": "right"
    },
    {
      "midi": 55,
      "time": 2.5,
      "duration": 0.25,
      "velocity": 0.79,
      "hand": "left"
    },
    {
      "midi": 70,
      "time": 2.5,
      "duration": 0.25,
      "velocity": 1,
      "hand": "right"
    },
    {
      "midi": 38,
      "time": 2.75,
      "duration": 0.5,
      "velocity": 0.87,
      "hand": "left"
    },
    {
      "midi": 56,
      "time": 2.75,
      "duration": 0.5,
      "velocity": 0.79,
      "hand": "left"
    },
    {
      "midi": 72,
      "time": 2.75,
      "duration": 0.235,
      "velocity": 1,
      "hand": "right"
    },
    {
      "midi": 72,
      "time": 3,
      "duration": 0.235,
      "velocity": 1,
      "hand": "right"
    },
    {
      "midi": 46,
      "time": 3.25,
      "duration": 0.5,
      "velocity": 0.87,
      "hand": "left"
    },
    {
      "midi": 72,
      "time": 3.25,
      "duration": 0.25,
      "velocity": 1,
      "hand": "right"
    },
    {
      "midi": 55,
      "time": 3.5,
      "duration": 0.235,
      "velocity": 0.79,
      "hand": "left"
    },
    {
      "midi": 70,
      "time": 3.5,
      "duration": 0.235,
      "velocity": 1,
      "hand": "right"
    },
    {
      "midi": 39,
      "time": 3.75,
      "duration": 0.5,
      "velocity": 0.87,
      "hand": "left"
    },
    {
      "midi": 55,
      "time": 3.75,
      "duration": 0.5,
      "velocity": 0.79,
      "hand": "left"
    },
    {
      "midi": 70,
      "time": 3.75,
      "duration": 0.5,
      "velocity": 1,
      "hand": "right"
    },
    {
      "midi": 46,
      "time": 4.25,
      "duration": 0.5,
      "velocity": 0.87,
      "hand": "left"
    },
    {
      "midi": 51,
      "time": 4.25,
      "duration": 0.5,
      "velocity": 0.79,
      "hand": "left"
    },
    {
      "midi": 65,
      "time": 4.5,
      "duration": 0.235,
      "velocity": 1,
      "hand": "right"
    },
    {
      "midi": 38,
      "time": 4.75,
      "duration": 0.5,
      "velocity": 0.87,
      "hand": "left"
    },
    {
      "midi": 50,
      "time": 4.75,
      "duration": 0.5,
      "velocity": 0.79,
      "hand": "left"
    },
    {
      "midi": 65,
      "time": 4.75,
      "duration": 0.5,
      "velocity": 1,
      "hand": "right"
    },
    {
      "midi": 36,
      "time": 5.25,
      "duration": 0.5,
      "velocity": 0.87,
      "hand": "left"
    },
    {
      "midi": 51,
      "time": 5.25,
      "duration": 0.5,
      "velocity": 0.79,
      "hand": "left"
    },
    {
      "midi": 67,
      "time": 5.5,
      "duration": 0.25,
      "velocity": 1,
      "hand": "right"
    },
    {
      "midi": 46,
      "time": 5.75,
      "duration": 0.5,
      "velocity": 0.87,
      "hand": "left"
    },
    {
      "midi": 53,
      "time": 5.75,
      "duration": 0.5,
      "velocity": 0.79,
      "hand": "left"
    },
    {
      "midi": 68,
      "time": 5.75,
      "duration": 0.5,
      "velocity": 1,
      "hand": "right"
    },
    {
      "midi": 38,
      "time": 6.25,
      "duration": 0.5,
      "velocity": 0.87,
      "hand": "left"
    },
    {
      "midi": 56,
      "time": 6.25,
      "duration": 0.5,
      "velocity": 0.79,
      "hand": "left"
    },
    {
      "midi": 72,
      "time": 6.5,
      "duration": 0.25,
      "velocity": 1,
      "hand": "right"
    },
    {
      "midi": 39,
      "time": 6.75,
      "duration": 0.5,
      "velocity": 0.87,
      "hand": "left"
    },
    {
      "midi": 55,
      "time": 6.75,
      "duration": 0.5,
      "velocity": 0.79,
      "hand": "left"
    },
    {
      "midi": 70,
      "time": 6.75,
      "duration": 0.5,
      "velocity": 1,
      "hand": "right"
    },
    {
      "midi": 38,
      "time": 7.25,
      "duration": 0.5,
      "velocity": 0.87,
      "hand": "left"
    },
    {
      "midi": 53,
      "time": 7.25,
      "duration": 0.5,
      "velocity": 0.79,
      "hand": "left"
    },
    {
      "midi": 68,
      "time": 7.5,
      "duration": 0.25,
      "velocity": 1,
      "hand": "right"
    },
    {
      "midi": 39,
      "time": 7.75,
      "duration": 0.75,
      "velocity": 0.87,
      "hand": "left"
    },
    {
      "midi": 51,
      "time": 7.75,
      "duration": 0.25,
      "velocity": 0.79,
      "hand": "left"
    },
    {
      "midi": 67,
      "time": 7.75,
      "duration": 0.25,
      "velocity": 1,
      "hand": "right"
    },
    {
      "midi": 55,
      "time": 8,
      "duration": 0.5,
      "velocity": 0.79,
      "hand": "left"
    },
    {
      "midi": 70,
      "time": 8,
      "duration": 0.485,
      "velocity": 1,
      "hand": "right"
    },
    {
      "midi": 53,
      "time": 8.5,
      "duration": 0.5,
      "velocity": 0.79,
      "hand": "left"
    },
    {
      "midi": 70,
      "time": 8.5,
      "duration": 0.235,
      "velocity": 1,
      "hand": "right"
    },
    {
      "midi": 70,
      "time": 8.75,
      "duration": 0.25,
      "velocity": 1,
      "hand": "right"
    },
    {
      "midi": 51,
      "time": 9,
      "duration": 0.5,
      "velocity": 0.79,
      "hand": "left"
    },
    {
      "midi": 68,
      "time": 9,
      "duration": 0.25,
      "velocity": 1,
      "hand": "right"
    },
    {
      "midi": 46,
      "time": 9.25,
      "duration": 0.5,
      "velocity": 0.87,
      "hand": "left"
    },
    {
      "midi": 67,
      "time": 9.25,
      "duration": 0.25,
      "velocity": 1,
      "hand": "right"
    },
    {
      "midi": 50,
      "time": 9.5,
      "duration": 0.25,
      "velocity": 0.79,
      "hand": "left"
    },
    {
      "midi": 65,
      "time": 9.5,
      "duration": 0.25,
      "velocity": 1,
      "hand": "right"
    },
    {
      "midi": 43,
      "time": 9.75,
      "duration": 0.5,
      "velocity": 0.87,
      "hand": "left"
    },
    {
      "midi": 51,
      "time": 9.75,
      "duration": 0.25,
      "velocity": 0.79,
      "hand": "left"
    },
    {
      "midi": 67,
      "time": 9.75,
      "duration": 0.25,
      "velocity": 1,
      "hand": "right"
    },
    {
      "midi": 55,
      "time": 10,
      "duration": 0.485,
      "velocity": 0.79,
      "hand": "left"
    },
    {
      "midi": 70,
      "time": 10,
      "duration": 0.485,
      "velocity": 1,
      "hand": "right"
    },
    {
      "midi": 39,
      "time": 10.25,
      "duration": 0.5,
      "velocity": 0.87,
      "hand": "left"
    },
    {
      "midi": 55,
      "time": 10.5,
      "duration": 0.25,
      "velocity": 0.79,
      "hand": "left"
    },
    {
      "midi": 70,
      "time": 10.5,
      "duration": 0.25,
      "velocity": 1,
      "hand": "right"
    },
    {
      "midi": 38,
      "time": 10.75,
      "duration": 0.5,
      "velocity": 0.87,
      "hand": "left"
    },
    {
      "midi": 56,
      "time": 10.75,
      "duration": 0.5,
      "velocity": 0.79,
      "hand": "left"
    },
    {
      "midi": 72,
      "time": 10.75,
      "duration": 0.235,
      "velocity": 1,
      "hand": "right"
    },
    {
      "midi": 72,
      "time": 11,
      "duration": 0.235,
      "velocity": 1,
      "hand": "right"
    },
    {
      "midi": 46,
      "time": 11.25,
      "duration": 0.5,
      "velocity": 0.87,
      "hand": "left"
    },
    {
      "midi": 72,
      "time": 11.25,
      "duration": 0.25,
      "velocity": 1,
      "hand": "right"
    },
    {
      "midi": 55,
      "time": 11.5,
      "duration": 0.235,
      "velocity": 0.79,
      "hand": "left"
    },
    {
      "midi": 70,
      "time": 11.5,
      "duration": 0.235,
      "velocity": 1,
      "hand": "right"
    },
    {
      "midi": 39,
      "time": 11.75,
      "duration": 0.5,
      "velocity": 0.87,
      "hand": "left"
    },
    {
      "midi": 55,
      "time": 11.75,
      "duration": 0.5,
      "velocity": 0.79,
      "hand": "left"
    },
    {
      "midi": 70,
      "time": 11.75,
      "duration": 0.5,
      "velocity": 1,
      "hand": "right"
    },
    {
      "midi": 46,
      "time": 12.25,
      "duration": 0.5,
      "velocity": 0.87,
      "hand": "left"
    },
    {
      "midi": 51,
      "time": 12.25,
      "duration": 0.5,
      "velocity": 0.79,
      "hand": "left"
    },
    {
      "midi": 65,
      "time": 12.5,
      "duration": 0.235,
      "velocity": 1,
      "hand": "right"
    },
    {
      "midi": 38,
      "time": 12.75,
      "duration": 0.5,
      "velocity": 0.87,
      "hand": "left"
    },
    {
      "midi": 50,
      "time": 12.75,
      "duration": 0.5,
      "velocity": 0.79,
      "hand": "left"
    },
    {
      "midi": 65,
      "time": 12.75,
      "duration": 0.5,
      "velocity": 1,
      "hand": "right"
    },
    {
      "midi": 36,
      "time": 13.25,
      "duration": 0.5,
      "velocity": 0.87,
      "hand": "left"
    },
    {
      "midi": 51,
      "time": 13.25,
      "duration": 0.5,
      "velocity": 0.79,
      "hand": "left"
    },
    {
      "midi": 67,
      "time": 13.5,
      "duration": 0.25,
      "velocity": 1,
      "hand": "right"
    },
    {
      "midi": 46,
      "time": 13.75,
      "duration": 0.5,
      "velocity": 0.87,
      "hand": "left"
    },
    {
      "midi": 53,
      "time": 13.75,
      "duration": 0.5,
      "velocity": 0.79,
      "hand": "left"
    },
    {
      "midi": 68,
      "time": 13.75,
      "duration": 0.5,
      "velocity": 1,
      "hand": "right"
    },
    {
      "midi": 38,
      "time": 14.25,
      "duration": 0.5,
      "velocity": 0.87,
      "hand": "left"
    },
    {
      "midi": 56,
      "time": 14.25,
      "duration": 0.5,
      "velocity": 0.79,
      "hand": "left"
    },
    {
      "midi": 72,
      "time": 14.5,
      "duration": 0.25,
      "velocity": 1,
      "hand": "right"
    },
    {
      "midi": 39,
      "time": 14.75,
      "duration": 0.5,
      "velocity": 0.87,
      "hand": "left"
    },
    {
      "midi": 55,
      "time": 14.75,
      "duration": 0.5,
      "velocity": 0.79,
      "hand": "left"
    },
    {
      "midi": 70,
      "time": 14.75,
      "duration": 0.5,
      "velocity": 1,
      "hand": "right"
    },
    {
      "midi": 38,
      "time": 15.25,
      "duration": 0.5,
      "velocity": 0.87,
      "hand": "left"
    },
    {
      "midi": 53,
      "time": 15.25,
      "duration": 0.5,
      "velocity": 0.79,
      "hand": "left"
    },
    {
      "midi": 68,
      "time": 15.5,
      "duration": 0.25,
      "velocity": 1,
      "hand": "right"
    },
    {
      "midi": 39,
      "time": 15.75,
      "duration": 0.75,
      "velocity": 0.87,
      "hand": "left"
    },
    {
      "midi": 51,
      "time": 15.75,
      "duration": 0.75,
      "velocity": 0.79,
      "hand": "left"
    },
    {
      "midi": 67,
      "time": 15.75,
      "duration": 0.75,
      "velocity": 1,
      "hand": "right"
    }
  ],
  "arrangements": {
    "easy": [
      {
        "midi": 70,
        "time": 0,
        "duration": 0.6,
        "velocity": 1,
        "hand": "right"
      },
      {
        "midi": 68,
        "time": 1,
        "duration": 0.6,
        "velocity": 1,
        "hand": "right"
      },
      {
        "midi": 70,
        "time": 2,
        "duration": 0.6,
        "velocity": 1,
        "hand": "right"
      },
      {
        "midi": 72,
        "time": 3,
        "duration": 0.6,
        "velocity": 1,
        "hand": "right"
      },
      {
        "midi": 63,
        "time": 4.25,
        "duration": 0.6,
        "velocity": 0.79,
        "hand": "right"
      },
      {
        "midi": 63,
        "time": 5.25,
        "duration": 0.6,
        "velocity": 0.79,
        "hand": "right"
      },
      {
        "midi": 56,
        "time": 6.25,
        "duration": 0.6,
        "velocity": 0.79,
        "hand": "right"
      },
      {
        "midi": 65,
        "time": 7.25,
        "duration": 0.6,
        "velocity": 0.79,
        "hand": "right"
      },
      {
        "midi": 70,
        "time": 8.5,
        "duration": 0.6,
        "velocity": 1,
        "hand": "right"
      },
      {
        "midi": 65,
        "time": 9.5,
        "duration": 0.6,
        "velocity": 1,
        "hand": "right"
      },
      {
        "midi": 70,
        "time": 10.5,
        "duration": 0.6,
        "velocity": 1,
        "hand": "right"
      },
      {
        "midi": 70,
        "time": 11.5,
        "duration": 0.6,
        "velocity": 1,
        "hand": "right"
      },
      {
        "midi": 65,
        "time": 12.5,
        "duration": 0.6,
        "velocity": 1,
        "hand": "right"
      },
      {
        "midi": 67,
        "time": 13.5,
        "duration": 0.6,
        "velocity": 1,
        "hand": "right"
      },
      {
        "midi": 72,
        "time": 14.5,
        "duration": 0.6,
        "velocity": 1,
        "hand": "right"
      },
      {
        "midi": 68,
        "time": 15.5,
        "duration": 0.6,
        "velocity": 1,
        "hand": "right"
      }
    ],
    "medium": [
      {
        "midi": 55,
        "time": 0,
        "duration": 0.5,
        "velocity": 0.79,
        "hand": "left"
      },
      {
        "midi": 70,
        "time": 0,
        "duration": 0.485,
        "velocity": 1,
        "hand": "right"
      },
      {
        "midi": 70,
        "time": 0.75,
        "duration": 0.35,
        "velocity": 1,
        "hand": "right"
      },
      {
        "midi": 50,
        "time": 1.5,
        "duration": 0.35,
        "velocity": 0.79,
        "hand": "left"
      },
      {
        "midi": 65,
        "time": 1.5,
        "duration": 0.35,
        "velocity": 1,
        "hand": "right"
      },
      {
        "midi": 70,
        "time": 2.25,
        "duration": 0.35,
        "velocity": 1,
        "hand": "right"
      },
      {
        "midi": 72,
        "time": 3,
        "duration": 0.35,
        "velocity": 1,
        "hand": "right"
      },
      {
        "midi": 70,
        "time": 3.75,
        "duration": 0.5,
        "velocity": 1,
        "hand": "right"
      },
      {
        "midi": 65,
        "time": 4.5,
        "duration": 0.35,
        "velocity": 1,
        "hand": "right"
      },
      {
        "midi": 36,
        "time": 5.25,
        "duration": 0.5,
        "velocity": 0.87,
        "hand": "left"
      },
      {
        "midi": 51,
        "time": 5.25,
        "duration": 0.5,
        "velocity": 0.79,
        "hand": "left"
      },
      {
        "midi": 50,
        "time": 6.25,
        "duration": 0.5,
        "velocity": 0.87,
        "hand": "left"
      },
      {
        "midi": 56,
        "time": 6.25,
        "duration": 0.5,
        "velocity": 0.79,
        "hand": "left"
      },
      {
        "midi": 38,
        "time": 7.25,
        "duration": 0.5,
        "velocity": 0.87,
        "hand": "left"
      },
      {
        "midi": 53,
        "time": 7.25,
        "duration": 0.5,
        "velocity": 0.79,
        "hand": "left"
      },
      {
        "midi": 55,
        "time": 8,
        "duration": 0.5,
        "velocity": 0.79,
        "hand": "left"
      },
      {
        "midi": 70,
        "time": 8,
        "duration": 0.485,
        "velocity": 1,
        "hand": "right"
      },
      {
        "midi": 70,
        "time": 8.75,
        "duration": 0.35,
        "velocity": 1,
        "hand": "right"
      },
      {
        "midi": 50,
        "time": 9.5,
        "duration": 0.35,
        "velocity": 0.79,
        "hand": "left"
      },
      {
        "midi": 65,
        "time": 9.5,
        "duration": 0.35,
        "velocity": 1,
        "hand": "right"
      },
      {
        "midi": 39,
        "time": 10.25,
        "duration": 0.5,
        "velocity": 0.87,
        "hand": "left"
      },
      {
        "midi": 72,
        "time": 11,
        "duration": 0.35,
        "velocity": 1,
        "hand": "right"
      },
      {
        "midi": 70,
        "time": 11.75,
        "duration": 0.5,
        "velocity": 1,
        "hand": "right"
      },
      {
        "midi": 65,
        "time": 12.5,
        "duration": 0.35,
        "velocity": 1,
        "hand": "right"
      },
      {
        "midi": 36,
        "time": 13.25,
        "duration": 0.5,
        "velocity": 0.87,
        "hand": "left"
      },
      {
        "midi": 51,
        "time": 13.25,
        "duration": 0.5,
        "velocity": 0.79,
        "hand": "left"
      },
      {
        "midi": 50,
        "time": 14.25,
        "duration": 0.5,
        "velocity": 0.87,
        "hand": "left"
      },
      {
        "midi": 56,
        "time": 14.25,
        "duration": 0.5,
        "velocity": 0.79,
        "hand": "left"
      },
      {
        "midi": 38,
        "time": 15.25,
        "duration": 0.5,
        "velocity": 0.87,
        "hand": "left"
      },
      {
        "midi": 53,
        "time": 15.25,
        "duration": 0.5,
        "velocity": 0.79,
        "hand": "left"
      }
    ],
    "hard": [
      {
        "midi": 55,
        "time": 0,
        "duration": 0.5,
        "velocity": 0.79,
        "hand": "left"
      },
      {
        "midi": 70,
        "time": 0,
        "duration": 0.485,
        "velocity": 1,
        "hand": "right"
      },
      {
        "midi": 53,
        "time": 0.5,
        "duration": 0.5,
        "velocity": 0.79,
        "hand": "left"
      },
      {
        "midi": 70,
        "time": 0.5,
        "duration": 0.235,
        "velocity": 1,
        "hand": "right"
      },
      {
        "midi": 70,
        "time": 0.75,
        "duration": 0.25,
        "velocity": 1,
        "hand": "right"
      },
      {
        "midi": 51,
        "time": 1,
        "duration": 0.5,
        "velocity": 0.79,
        "hand": "left"
      },
      {
        "midi": 68,
        "time": 1,
        "duration": 0.25,
        "velocity": 1,
        "hand": "right"
      },
      {
        "midi": 46,
        "time": 1.25,
        "duration": 0.5,
        "velocity": 0.87,
        "hand": "left"
      },
      {
        "midi": 67,
        "time": 1.25,
        "duration": 0.25,
        "velocity": 1,
        "hand": "right"
      },
      {
        "midi": 50,
        "time": 1.5,
        "duration": 0.25,
        "velocity": 0.79,
        "hand": "left"
      },
      {
        "midi": 65,
        "time": 1.5,
        "duration": 0.25,
        "velocity": 1,
        "hand": "right"
      },
      {
        "midi": 43,
        "time": 1.75,
        "duration": 0.5,
        "velocity": 0.87,
        "hand": "left"
      },
      {
        "midi": 51,
        "time": 1.75,
        "duration": 0.25,
        "velocity": 0.79,
        "hand": "left"
      },
      {
        "midi": 67,
        "time": 1.75,
        "duration": 0.25,
        "velocity": 1,
        "hand": "right"
      },
      {
        "midi": 55,
        "time": 2,
        "duration": 0.485,
        "velocity": 0.79,
        "hand": "left"
      },
      {
        "midi": 70,
        "time": 2,
        "duration": 0.235,
        "velocity": 1,
        "hand": "right"
      },
      {
        "midi": 39,
        "time": 2.25,
        "duration": 0.5,
        "velocity": 0.87,
        "hand": "left"
      },
      {
        "midi": 70,
        "time": 2.25,
        "duration": 0.235,
        "velocity": 1,
        "hand": "right"
      },
      {
        "midi": 55,
        "time": 2.5,
        "duration": 0.25,
        "velocity": 0.79,
        "hand": "left"
      },
      {
        "midi": 70,
        "time": 2.5,
        "duration": 0.25,
        "velocity": 1,
        "hand": "right"
      },
      {
        "midi": 38,
        "time": 2.75,
        "duration": 0.5,
        "velocity": 0.87,
        "hand": "left"
      },
      {
        "midi": 56,
        "time": 2.75,
        "duration": 0.5,
        "velocity": 0.79,
        "hand": "left"
      },
      {
        "midi": 72,
        "time": 2.75,
        "duration": 0.235,
        "velocity": 1,
        "hand": "right"
      },
      {
        "midi": 72,
        "time": 3,
        "duration": 0.235,
        "velocity": 1,
        "hand": "right"
      },
      {
        "midi": 46,
        "time": 3.25,
        "duration": 0.5,
        "velocity": 0.87,
        "hand": "left"
      },
      {
        "midi": 72,
        "time": 3.25,
        "duration": 0.25,
        "velocity": 1,
        "hand": "right"
      },
      {
        "midi": 55,
        "time": 3.5,
        "duration": 0.235,
        "velocity": 0.79,
        "hand": "left"
      },
      {
        "midi": 70,
        "time": 3.5,
        "duration": 0.235,
        "velocity": 1,
        "hand": "right"
      },
      {
        "midi": 39,
        "time": 3.75,
        "duration": 0.5,
        "velocity": 0.87,
        "hand": "left"
      },
      {
        "midi": 55,
        "time": 3.75,
        "duration": 0.5,
        "velocity": 0.79,
        "hand": "left"
      },
      {
        "midi": 70,
        "time": 3.75,
        "duration": 0.5,
        "velocity": 1,
        "hand": "right"
      },
      {
        "midi": 46,
        "time": 4.25,
        "duration": 0.5,
        "velocity": 0.87,
        "hand": "left"
      },
      {
        "midi": 51,
        "time": 4.25,
        "duration": 0.5,
        "velocity": 0.79,
        "hand": "left"
      },
      {
        "midi": 65,
        "time": 4.5,
        "duration": 0.235,
        "velocity": 1,
        "hand": "right"
      },
      {
        "midi": 38,
        "time": 4.75,
        "duration": 0.5,
        "velocity": 0.87,
        "hand": "left"
      },
      {
        "midi": 50,
        "time": 4.75,
        "duration": 0.5,
        "velocity": 0.79,
        "hand": "left"
      },
      {
        "midi": 65,
        "time": 4.75,
        "duration": 0.5,
        "velocity": 1,
        "hand": "right"
      },
      {
        "midi": 36,
        "time": 5.25,
        "duration": 0.5,
        "velocity": 0.87,
        "hand": "left"
      },
      {
        "midi": 51,
        "time": 5.25,
        "duration": 0.5,
        "velocity": 0.79,
        "hand": "left"
      },
      {
        "midi": 67,
        "time": 5.5,
        "duration": 0.25,
        "velocity": 1,
        "hand": "right"
      },
      {
        "midi": 46,
        "time": 5.75,
        "duration": 0.5,
        "velocity": 0.87,
        "hand": "left"
      },
      {
        "midi": 53,
        "time": 5.75,
        "duration": 0.5,
        "velocity": 0.79,
        "hand": "left"
      },
      {
        "midi": 68,
        "time": 5.75,
        "duration": 0.5,
        "velocity": 1,
        "hand": "right"
      },
      {
        "midi": 38,
        "time": 6.25,
        "duration": 0.5,
        "velocity": 0.87,
        "hand": "left"
      },
      {
        "midi": 56,
        "time": 6.25,
        "duration": 0.5,
        "velocity": 0.79,
        "hand": "left"
      },
      {
        "midi": 72,
        "time": 6.5,
        "duration": 0.25,
        "velocity": 1,
        "hand": "right"
      },
      {
        "midi": 39,
        "time": 6.75,
        "duration": 0.5,
        "velocity": 0.87,
        "hand": "left"
      },
      {
        "midi": 55,
        "time": 6.75,
        "duration": 0.5,
        "velocity": 0.79,
        "hand": "left"
      },
      {
        "midi": 70,
        "time": 6.75,
        "duration": 0.5,
        "velocity": 1,
        "hand": "right"
      },
      {
        "midi": 38,
        "time": 7.25,
        "duration": 0.5,
        "velocity": 0.87,
        "hand": "left"
      },
      {
        "midi": 53,
        "time": 7.25,
        "duration": 0.5,
        "velocity": 0.79,
        "hand": "left"
      },
      {
        "midi": 68,
        "time": 7.5,
        "duration": 0.25,
        "velocity": 1,
        "hand": "right"
      },
      {
        "midi": 39,
        "time": 7.75,
        "duration": 0.75,
        "velocity": 0.87,
        "hand": "left"
      },
      {
        "midi": 51,
        "time": 7.75,
        "duration": 0.25,
        "velocity": 0.79,
        "hand": "left"
      },
      {
        "midi": 67,
        "time": 7.75,
        "duration": 0.25,
        "velocity": 1,
        "hand": "right"
      },
      {
        "midi": 55,
        "time": 8,
        "duration": 0.5,
        "velocity": 0.79,
        "hand": "left"
      },
      {
        "midi": 70,
        "time": 8,
        "duration": 0.485,
        "velocity": 1,
        "hand": "right"
      },
      {
        "midi": 53,
        "time": 8.5,
        "duration": 0.5,
        "velocity": 0.79,
        "hand": "left"
      },
      {
        "midi": 70,
        "time": 8.5,
        "duration": 0.235,
        "velocity": 1,
        "hand": "right"
      },
      {
        "midi": 70,
        "time": 8.75,
        "duration": 0.25,
        "velocity": 1,
        "hand": "right"
      },
      {
        "midi": 51,
        "time": 9,
        "duration": 0.5,
        "velocity": 0.79,
        "hand": "left"
      },
      {
        "midi": 68,
        "time": 9,
        "duration": 0.25,
        "velocity": 1,
        "hand": "right"
      },
      {
        "midi": 46,
        "time": 9.25,
        "duration": 0.5,
        "velocity": 0.87,
        "hand": "left"
      },
      {
        "midi": 67,
        "time": 9.25,
        "duration": 0.25,
        "velocity": 1,
        "hand": "right"
      },
      {
        "midi": 50,
        "time": 9.5,
        "duration": 0.25,
        "velocity": 0.79,
        "hand": "left"
      },
      {
        "midi": 65,
        "time": 9.5,
        "duration": 0.25,
        "velocity": 1,
        "hand": "right"
      },
      {
        "midi": 43,
        "time": 9.75,
        "duration": 0.5,
        "velocity": 0.87,
        "hand": "left"
      },
      {
        "midi": 51,
        "time": 9.75,
        "duration": 0.25,
        "velocity": 0.79,
        "hand": "left"
      },
      {
        "midi": 67,
        "time": 9.75,
        "duration": 0.25,
        "velocity": 1,
        "hand": "right"
      },
      {
        "midi": 55,
        "time": 10,
        "duration": 0.485,
        "velocity": 0.79,
        "hand": "left"
      },
      {
        "midi": 70,
        "time": 10,
        "duration": 0.485,
        "velocity": 1,
        "hand": "right"
      },
      {
        "midi": 39,
        "time": 10.25,
        "duration": 0.5,
        "velocity": 0.87,
        "hand": "left"
      },
      {
        "midi": 55,
        "time": 10.5,
        "duration": 0.25,
        "velocity": 0.79,
        "hand": "left"
      },
      {
        "midi": 70,
        "time": 10.5,
        "duration": 0.25,
        "velocity": 1,
        "hand": "right"
      },
      {
        "midi": 38,
        "time": 10.75,
        "duration": 0.5,
        "velocity": 0.87,
        "hand": "left"
      },
      {
        "midi": 56,
        "time": 10.75,
        "duration": 0.5,
        "velocity": 0.79,
        "hand": "left"
      },
      {
        "midi": 72,
        "time": 10.75,
        "duration": 0.235,
        "velocity": 1,
        "hand": "right"
      },
      {
        "midi": 72,
        "time": 11,
        "duration": 0.235,
        "velocity": 1,
        "hand": "right"
      },
      {
        "midi": 46,
        "time": 11.25,
        "duration": 0.5,
        "velocity": 0.87,
        "hand": "left"
      },
      {
        "midi": 72,
        "time": 11.25,
        "duration": 0.25,
        "velocity": 1,
        "hand": "right"
      },
      {
        "midi": 55,
        "time": 11.5,
        "duration": 0.235,
        "velocity": 0.79,
        "hand": "left"
      },
      {
        "midi": 70,
        "time": 11.5,
        "duration": 0.235,
        "velocity": 1,
        "hand": "right"
      },
      {
        "midi": 39,
        "time": 11.75,
        "duration": 0.5,
        "velocity": 0.87,
        "hand": "left"
      },
      {
        "midi": 55,
        "time": 11.75,
        "duration": 0.5,
        "velocity": 0.79,
        "hand": "left"
      },
      {
        "midi": 70,
        "time": 11.75,
        "duration": 0.5,
        "velocity": 1,
        "hand": "right"
      },
      {
        "midi": 46,
        "time": 12.25,
        "duration": 0.5,
        "velocity": 0.87,
        "hand": "left"
      },
      {
        "midi": 51,
        "time": 12.25,
        "duration": 0.5,
        "velocity": 0.79,
        "hand": "left"
      },
      {
        "midi": 65,
        "time": 12.5,
        "duration": 0.235,
        "velocity": 1,
        "hand": "right"
      },
      {
        "midi": 38,
        "time": 12.75,
        "duration": 0.5,
        "velocity": 0.87,
        "hand": "left"
      },
      {
        "midi": 50,
        "time": 12.75,
        "duration": 0.5,
        "velocity": 0.79,
        "hand": "left"
      },
      {
        "midi": 65,
        "time": 12.75,
        "duration": 0.5,
        "velocity": 1,
        "hand": "right"
      },
      {
        "midi": 36,
        "time": 13.25,
        "duration": 0.5,
        "velocity": 0.87,
        "hand": "left"
      },
      {
        "midi": 51,
        "time": 13.25,
        "duration": 0.5,
        "velocity": 0.79,
        "hand": "left"
      },
      {
        "midi": 67,
        "time": 13.5,
        "duration": 0.25,
        "velocity": 1,
        "hand": "right"
      },
      {
        "midi": 46,
        "time": 13.75,
        "duration": 0.5,
        "velocity": 0.87,
        "hand": "left"
      },
      {
        "midi": 53,
        "time": 13.75,
        "duration": 0.5,
        "velocity": 0.79,
        "hand": "left"
      },
      {
        "midi": 68,
        "time": 13.75,
        "duration": 0.5,
        "velocity": 1,
        "hand": "right"
      },
      {
        "midi": 38,
        "time": 14.25,
        "duration": 0.5,
        "velocity": 0.87,
        "hand": "left"
      },
      {
        "midi": 56,
        "time": 14.25,
        "duration": 0.5,
        "velocity": 0.79,
        "hand": "left"
      },
      {
        "midi": 72,
        "time": 14.5,
        "duration": 0.25,
        "velocity": 1,
        "hand": "right"
      },
      {
        "midi": 39,
        "time": 14.75,
        "duration": 0.5,
        "velocity": 0.87,
        "hand": "left"
      },
      {
        "midi": 55,
        "time": 14.75,
        "duration": 0.5,
        "velocity": 0.79,
        "hand": "left"
      },
      {
        "midi": 70,
        "time": 14.75,
        "duration": 0.5,
        "velocity": 1,
        "hand": "right"
      },
      {
        "midi": 38,
        "time": 15.25,
        "duration": 0.5,
        "velocity": 0.87,
        "hand": "left"
      },
      {
        "midi": 53,
        "time": 15.25,
        "duration": 0.5,
        "velocity": 0.79,
        "hand": "left"
      },
      {
        "midi": 68,
        "time": 15.5,
        "duration": 0.25,
        "velocity": 1,
        "hand": "right"
      },
      {
        "midi": 39,
        "time": 15.75,
        "duration": 0.75,
        "velocity": 0.87,
        "hand": "left"
      },
      {
        "midi": 51,
        "time": 15.75,
        "duration": 0.75,
        "velocity": 0.79,
        "hand": "left"
      },
      {
        "midi": 67,
        "time": 15.75,
        "duration": 0.75,
        "velocity": 1,
        "hand": "right"
      }
    ]
  },
  "notes1Hand": [
    {
      "midi": 70,
      "time": 0,
      "duration": 0.6,
      "velocity": 1,
      "hand": "right"
    },
    {
      "midi": 68,
      "time": 1,
      "duration": 0.6,
      "velocity": 1,
      "hand": "right"
    },
    {
      "midi": 70,
      "time": 2,
      "duration": 0.6,
      "velocity": 1,
      "hand": "right"
    },
    {
      "midi": 72,
      "time": 3,
      "duration": 0.6,
      "velocity": 1,
      "hand": "right"
    },
    {
      "midi": 63,
      "time": 4.25,
      "duration": 0.6,
      "velocity": 0.79,
      "hand": "right"
    },
    {
      "midi": 63,
      "time": 5.25,
      "duration": 0.6,
      "velocity": 0.79,
      "hand": "right"
    },
    {
      "midi": 56,
      "time": 6.25,
      "duration": 0.6,
      "velocity": 0.79,
      "hand": "right"
    },
    {
      "midi": 65,
      "time": 7.25,
      "duration": 0.6,
      "velocity": 0.79,
      "hand": "right"
    },
    {
      "midi": 70,
      "time": 8.5,
      "duration": 0.6,
      "velocity": 1,
      "hand": "right"
    },
    {
      "midi": 65,
      "time": 9.5,
      "duration": 0.6,
      "velocity": 1,
      "hand": "right"
    },
    {
      "midi": 70,
      "time": 10.5,
      "duration": 0.6,
      "velocity": 1,
      "hand": "right"
    },
    {
      "midi": 70,
      "time": 11.5,
      "duration": 0.6,
      "velocity": 1,
      "hand": "right"
    },
    {
      "midi": 65,
      "time": 12.5,
      "duration": 0.6,
      "velocity": 1,
      "hand": "right"
    },
    {
      "midi": 67,
      "time": 13.5,
      "duration": 0.6,
      "velocity": 1,
      "hand": "right"
    },
    {
      "midi": 72,
      "time": 14.5,
      "duration": 0.6,
      "velocity": 1,
      "hand": "right"
    },
    {
      "midi": 68,
      "time": 15.5,
      "duration": 0.6,
      "velocity": 1,
      "hand": "right"
    }
  ],
  "notes2Hands": [
    {
      "midi": 55,
      "time": 0,
      "duration": 0.5,
      "velocity": 0.79,
      "hand": "left"
    },
    {
      "midi": 70,
      "time": 0,
      "duration": 0.485,
      "velocity": 1,
      "hand": "right"
    },
    {
      "midi": 53,
      "time": 0.5,
      "duration": 0.5,
      "velocity": 0.79,
      "hand": "left"
    },
    {
      "midi": 70,
      "time": 0.5,
      "duration": 0.235,
      "velocity": 1,
      "hand": "right"
    },
    {
      "midi": 70,
      "time": 0.75,
      "duration": 0.25,
      "velocity": 1,
      "hand": "right"
    },
    {
      "midi": 51,
      "time": 1,
      "duration": 0.5,
      "velocity": 0.79,
      "hand": "left"
    },
    {
      "midi": 68,
      "time": 1,
      "duration": 0.25,
      "velocity": 1,
      "hand": "right"
    },
    {
      "midi": 46,
      "time": 1.25,
      "duration": 0.5,
      "velocity": 0.87,
      "hand": "left"
    },
    {
      "midi": 67,
      "time": 1.25,
      "duration": 0.25,
      "velocity": 1,
      "hand": "right"
    },
    {
      "midi": 50,
      "time": 1.5,
      "duration": 0.25,
      "velocity": 0.79,
      "hand": "left"
    },
    {
      "midi": 65,
      "time": 1.5,
      "duration": 0.25,
      "velocity": 1,
      "hand": "right"
    },
    {
      "midi": 43,
      "time": 1.75,
      "duration": 0.5,
      "velocity": 0.87,
      "hand": "left"
    },
    {
      "midi": 51,
      "time": 1.75,
      "duration": 0.25,
      "velocity": 0.79,
      "hand": "left"
    },
    {
      "midi": 67,
      "time": 1.75,
      "duration": 0.25,
      "velocity": 1,
      "hand": "right"
    },
    {
      "midi": 55,
      "time": 2,
      "duration": 0.485,
      "velocity": 0.79,
      "hand": "left"
    },
    {
      "midi": 70,
      "time": 2,
      "duration": 0.235,
      "velocity": 1,
      "hand": "right"
    },
    {
      "midi": 39,
      "time": 2.25,
      "duration": 0.5,
      "velocity": 0.87,
      "hand": "left"
    },
    {
      "midi": 70,
      "time": 2.25,
      "duration": 0.235,
      "velocity": 1,
      "hand": "right"
    },
    {
      "midi": 55,
      "time": 2.5,
      "duration": 0.25,
      "velocity": 0.79,
      "hand": "left"
    },
    {
      "midi": 70,
      "time": 2.5,
      "duration": 0.25,
      "velocity": 1,
      "hand": "right"
    },
    {
      "midi": 38,
      "time": 2.75,
      "duration": 0.5,
      "velocity": 0.87,
      "hand": "left"
    },
    {
      "midi": 56,
      "time": 2.75,
      "duration": 0.5,
      "velocity": 0.79,
      "hand": "left"
    },
    {
      "midi": 72,
      "time": 2.75,
      "duration": 0.235,
      "velocity": 1,
      "hand": "right"
    },
    {
      "midi": 72,
      "time": 3,
      "duration": 0.235,
      "velocity": 1,
      "hand": "right"
    },
    {
      "midi": 46,
      "time": 3.25,
      "duration": 0.5,
      "velocity": 0.87,
      "hand": "left"
    },
    {
      "midi": 72,
      "time": 3.25,
      "duration": 0.25,
      "velocity": 1,
      "hand": "right"
    },
    {
      "midi": 55,
      "time": 3.5,
      "duration": 0.235,
      "velocity": 0.79,
      "hand": "left"
    },
    {
      "midi": 70,
      "time": 3.5,
      "duration": 0.235,
      "velocity": 1,
      "hand": "right"
    },
    {
      "midi": 39,
      "time": 3.75,
      "duration": 0.5,
      "velocity": 0.87,
      "hand": "left"
    },
    {
      "midi": 55,
      "time": 3.75,
      "duration": 0.5,
      "velocity": 0.79,
      "hand": "left"
    },
    {
      "midi": 70,
      "time": 3.75,
      "duration": 0.5,
      "velocity": 1,
      "hand": "right"
    },
    {
      "midi": 46,
      "time": 4.25,
      "duration": 0.5,
      "velocity": 0.87,
      "hand": "left"
    },
    {
      "midi": 51,
      "time": 4.25,
      "duration": 0.5,
      "velocity": 0.79,
      "hand": "left"
    },
    {
      "midi": 65,
      "time": 4.5,
      "duration": 0.235,
      "velocity": 1,
      "hand": "right"
    },
    {
      "midi": 38,
      "time": 4.75,
      "duration": 0.5,
      "velocity": 0.87,
      "hand": "left"
    },
    {
      "midi": 50,
      "time": 4.75,
      "duration": 0.5,
      "velocity": 0.79,
      "hand": "left"
    },
    {
      "midi": 65,
      "time": 4.75,
      "duration": 0.5,
      "velocity": 1,
      "hand": "right"
    },
    {
      "midi": 36,
      "time": 5.25,
      "duration": 0.5,
      "velocity": 0.87,
      "hand": "left"
    },
    {
      "midi": 51,
      "time": 5.25,
      "duration": 0.5,
      "velocity": 0.79,
      "hand": "left"
    },
    {
      "midi": 67,
      "time": 5.5,
      "duration": 0.25,
      "velocity": 1,
      "hand": "right"
    },
    {
      "midi": 46,
      "time": 5.75,
      "duration": 0.5,
      "velocity": 0.87,
      "hand": "left"
    },
    {
      "midi": 53,
      "time": 5.75,
      "duration": 0.5,
      "velocity": 0.79,
      "hand": "left"
    },
    {
      "midi": 68,
      "time": 5.75,
      "duration": 0.5,
      "velocity": 1,
      "hand": "right"
    },
    {
      "midi": 38,
      "time": 6.25,
      "duration": 0.5,
      "velocity": 0.87,
      "hand": "left"
    },
    {
      "midi": 56,
      "time": 6.25,
      "duration": 0.5,
      "velocity": 0.79,
      "hand": "left"
    },
    {
      "midi": 72,
      "time": 6.5,
      "duration": 0.25,
      "velocity": 1,
      "hand": "right"
    },
    {
      "midi": 39,
      "time": 6.75,
      "duration": 0.5,
      "velocity": 0.87,
      "hand": "left"
    },
    {
      "midi": 55,
      "time": 6.75,
      "duration": 0.5,
      "velocity": 0.79,
      "hand": "left"
    },
    {
      "midi": 70,
      "time": 6.75,
      "duration": 0.5,
      "velocity": 1,
      "hand": "right"
    },
    {
      "midi": 38,
      "time": 7.25,
      "duration": 0.5,
      "velocity": 0.87,
      "hand": "left"
    },
    {
      "midi": 53,
      "time": 7.25,
      "duration": 0.5,
      "velocity": 0.79,
      "hand": "left"
    },
    {
      "midi": 68,
      "time": 7.5,
      "duration": 0.25,
      "velocity": 1,
      "hand": "right"
    },
    {
      "midi": 39,
      "time": 7.75,
      "duration": 0.75,
      "velocity": 0.87,
      "hand": "left"
    },
    {
      "midi": 51,
      "time": 7.75,
      "duration": 0.25,
      "velocity": 0.79,
      "hand": "left"
    },
    {
      "midi": 67,
      "time": 7.75,
      "duration": 0.25,
      "velocity": 1,
      "hand": "right"
    },
    {
      "midi": 55,
      "time": 8,
      "duration": 0.5,
      "velocity": 0.79,
      "hand": "left"
    },
    {
      "midi": 70,
      "time": 8,
      "duration": 0.485,
      "velocity": 1,
      "hand": "right"
    },
    {
      "midi": 53,
      "time": 8.5,
      "duration": 0.5,
      "velocity": 0.79,
      "hand": "left"
    },
    {
      "midi": 70,
      "time": 8.5,
      "duration": 0.235,
      "velocity": 1,
      "hand": "right"
    },
    {
      "midi": 70,
      "time": 8.75,
      "duration": 0.25,
      "velocity": 1,
      "hand": "right"
    },
    {
      "midi": 51,
      "time": 9,
      "duration": 0.5,
      "velocity": 0.79,
      "hand": "left"
    },
    {
      "midi": 68,
      "time": 9,
      "duration": 0.25,
      "velocity": 1,
      "hand": "right"
    },
    {
      "midi": 46,
      "time": 9.25,
      "duration": 0.5,
      "velocity": 0.87,
      "hand": "left"
    },
    {
      "midi": 67,
      "time": 9.25,
      "duration": 0.25,
      "velocity": 1,
      "hand": "right"
    },
    {
      "midi": 50,
      "time": 9.5,
      "duration": 0.25,
      "velocity": 0.79,
      "hand": "left"
    },
    {
      "midi": 65,
      "time": 9.5,
      "duration": 0.25,
      "velocity": 1,
      "hand": "right"
    },
    {
      "midi": 43,
      "time": 9.75,
      "duration": 0.5,
      "velocity": 0.87,
      "hand": "left"
    },
    {
      "midi": 51,
      "time": 9.75,
      "duration": 0.25,
      "velocity": 0.79,
      "hand": "left"
    },
    {
      "midi": 67,
      "time": 9.75,
      "duration": 0.25,
      "velocity": 1,
      "hand": "right"
    },
    {
      "midi": 55,
      "time": 10,
      "duration": 0.485,
      "velocity": 0.79,
      "hand": "left"
    },
    {
      "midi": 70,
      "time": 10,
      "duration": 0.485,
      "velocity": 1,
      "hand": "right"
    },
    {
      "midi": 39,
      "time": 10.25,
      "duration": 0.5,
      "velocity": 0.87,
      "hand": "left"
    },
    {
      "midi": 55,
      "time": 10.5,
      "duration": 0.25,
      "velocity": 0.79,
      "hand": "left"
    },
    {
      "midi": 70,
      "time": 10.5,
      "duration": 0.25,
      "velocity": 1,
      "hand": "right"
    },
    {
      "midi": 38,
      "time": 10.75,
      "duration": 0.5,
      "velocity": 0.87,
      "hand": "left"
    },
    {
      "midi": 56,
      "time": 10.75,
      "duration": 0.5,
      "velocity": 0.79,
      "hand": "left"
    },
    {
      "midi": 72,
      "time": 10.75,
      "duration": 0.235,
      "velocity": 1,
      "hand": "right"
    },
    {
      "midi": 72,
      "time": 11,
      "duration": 0.235,
      "velocity": 1,
      "hand": "right"
    },
    {
      "midi": 46,
      "time": 11.25,
      "duration": 0.5,
      "velocity": 0.87,
      "hand": "left"
    },
    {
      "midi": 72,
      "time": 11.25,
      "duration": 0.25,
      "velocity": 1,
      "hand": "right"
    },
    {
      "midi": 55,
      "time": 11.5,
      "duration": 0.235,
      "velocity": 0.79,
      "hand": "left"
    },
    {
      "midi": 70,
      "time": 11.5,
      "duration": 0.235,
      "velocity": 1,
      "hand": "right"
    },
    {
      "midi": 39,
      "time": 11.75,
      "duration": 0.5,
      "velocity": 0.87,
      "hand": "left"
    },
    {
      "midi": 55,
      "time": 11.75,
      "duration": 0.5,
      "velocity": 0.79,
      "hand": "left"
    },
    {
      "midi": 70,
      "time": 11.75,
      "duration": 0.5,
      "velocity": 1,
      "hand": "right"
    },
    {
      "midi": 46,
      "time": 12.25,
      "duration": 0.5,
      "velocity": 0.87,
      "hand": "left"
    },
    {
      "midi": 51,
      "time": 12.25,
      "duration": 0.5,
      "velocity": 0.79,
      "hand": "left"
    },
    {
      "midi": 65,
      "time": 12.5,
      "duration": 0.235,
      "velocity": 1,
      "hand": "right"
    },
    {
      "midi": 38,
      "time": 12.75,
      "duration": 0.5,
      "velocity": 0.87,
      "hand": "left"
    },
    {
      "midi": 50,
      "time": 12.75,
      "duration": 0.5,
      "velocity": 0.79,
      "hand": "left"
    },
    {
      "midi": 65,
      "time": 12.75,
      "duration": 0.5,
      "velocity": 1,
      "hand": "right"
    },
    {
      "midi": 36,
      "time": 13.25,
      "duration": 0.5,
      "velocity": 0.87,
      "hand": "left"
    },
    {
      "midi": 51,
      "time": 13.25,
      "duration": 0.5,
      "velocity": 0.79,
      "hand": "left"
    },
    {
      "midi": 67,
      "time": 13.5,
      "duration": 0.25,
      "velocity": 1,
      "hand": "right"
    },
    {
      "midi": 46,
      "time": 13.75,
      "duration": 0.5,
      "velocity": 0.87,
      "hand": "left"
    },
    {
      "midi": 53,
      "time": 13.75,
      "duration": 0.5,
      "velocity": 0.79,
      "hand": "left"
    },
    {
      "midi": 68,
      "time": 13.75,
      "duration": 0.5,
      "velocity": 1,
      "hand": "right"
    },
    {
      "midi": 38,
      "time": 14.25,
      "duration": 0.5,
      "velocity": 0.87,
      "hand": "left"
    },
    {
      "midi": 56,
      "time": 14.25,
      "duration": 0.5,
      "velocity": 0.79,
      "hand": "left"
    },
    {
      "midi": 72,
      "time": 14.5,
      "duration": 0.25,
      "velocity": 1,
      "hand": "right"
    },
    {
      "midi": 39,
      "time": 14.75,
      "duration": 0.5,
      "velocity": 0.87,
      "hand": "left"
    },
    {
      "midi": 55,
      "time": 14.75,
      "duration": 0.5,
      "velocity": 0.79,
      "hand": "left"
    },
    {
      "midi": 70,
      "time": 14.75,
      "duration": 0.5,
      "velocity": 1,
      "hand": "right"
    },
    {
      "midi": 38,
      "time": 15.25,
      "duration": 0.5,
      "velocity": 0.87,
      "hand": "left"
    },
    {
      "midi": 53,
      "time": 15.25,
      "duration": 0.5,
      "velocity": 0.79,
      "hand": "left"
    },
    {
      "midi": 68,
      "time": 15.5,
      "duration": 0.25,
      "velocity": 1,
      "hand": "right"
    },
    {
      "midi": 39,
      "time": 15.75,
      "duration": 0.75,
      "velocity": 0.87,
      "hand": "left"
    },
    {
      "midi": 51,
      "time": 15.75,
      "duration": 0.75,
      "velocity": 0.79,
      "hand": "left"
    },
    {
      "midi": 67,
      "time": 15.75,
      "duration": 0.75,
      "velocity": 1,
      "hand": "right"
    }
  ]
}
