{
  "id": "peixe-vivo",
  "title": "Peixe Vivo",
  "artist": "Tradicional",
  "difficulty": "Difícil",
  "bpm": 80,
  "duration": 47,
  "category": "Infantis",
  "isPremium": false,
  "coverUrl": "/images/covers/placeholder.png",
  "notes": [
    {
      "midi": 54,
      "time": 0,
      "duration": 0.094,
      "velocity": 0.69,
      "hand": "left"
    },
    {
      "midi": 40,
      "time": 0.375,
      "duration": 0.375,
      "velocity": 0.67,
      "hand": "left"
    },
    {
      "midi": 59,
      "time": 0.75,
      "duration": 0.094,
      "velocity": 0.26,
      "hand": "left"
    },
    {
      "midi": 64,
      "time": 0.75,
      "duration": 0.094,
      "velocity": 0.76,
      "hand": "right"
    },
    {
      "midi": 68,
      "time": 0.75,
      "duration": 0.188,
      "velocity": 0.65,
      "hand": "right"
    },
    {
      "midi": 40,
      "time": 0.938,
      "duration": 0.75,
      "velocity": 0.73,
      "hand": "left"
    },
    {
      "midi": 80,
      "time": 1.125,
      "duration": 0.375,
      "velocity": 0.74,
      "hand": "right"
    },
    {
      "midi": 59,
      "time": 1.5,
      "duration": 0.188,
      "velocity": 0.43,
      "hand": "left"
    },
    {
      "midi": 64,
      "time": 1.5,
      "duration": 0.375,
      "velocity": 0.76,
      "hand": "right"
    },
    {
      "midi": 68,
      "time": 1.5,
      "duration": 0.375,
      "velocity": 0.75,
      "hand": "right"
    },
    {
      "midi": 83,
      "time": 1.5,
      "duration": 0.188,
      "velocity": 0.65,
      "hand": "right"
    },
    {
      "midi": 47,
      "time": 1.875,
      "duration": 0.375,
      "velocity": 0.72,
      "hand": "left"
    },
    {
      "midi": 81,
      "time": 1.875,
      "duration": 0.188,
      "velocity": 0.76,
      "hand": "right"
    },
    {
      "midi": 83,
      "time": 1.875,
      "duration": 0.375,
      "velocity": 0.7,
      "hand": "right"
    },
    {
      "midi": 59,
      "time": 2.25,
      "duration": 0.094,
      "velocity": 0.27,
      "hand": "left"
    },
    {
      "midi": 63,
      "time": 2.25,
      "duration": 0.188,
      "velocity": 0.54,
      "hand": "right"
    },
    {
      "midi": 66,
      "time": 2.25,
      "duration": 0.188,
      "velocity": 0.54,
      "hand": "right"
    },
    {
      "midi": 81,
      "time": 2.25,
      "duration": 0.188,
      "velocity": 0.67,
      "hand": "right"
    },
    {
      "midi": 51,
      "time": 2.438,
      "duration": 0.563,
      "velocity": 0.63,
      "hand": "left"
    },
    {
      "midi": 80,
      "time": 2.438,
      "duration": 0.188,
      "velocity": 0.6,
      "hand": "right"
    },
    {
      "midi": 54,
      "time": 2.625,
      "duration": 0.094,
      "velocity": 0.76,
      "hand": "left"
    },
    {
      "midi": 81,
      "time": 2.625,
      "duration": 0.173,
      "velocity": 0.62,
      "hand": "right"
    },
    {
      "midi": 63,
      "time": 2.813,
      "duration": 0.188,
      "velocity": 0.57,
      "hand": "right"
    },
    {
      "midi": 66,
      "time": 2.813,
      "duration": 0.188,
      "velocity": 0.53,
      "hand": "right"
    },
    {
      "midi": 81,
      "time": 2.813,
      "duration": 0.094,
      "velocity": 0.75,
      "hand": "right"
    },
    {
      "midi": 54,
      "time": 3,
      "duration": 0.188,
      "velocity": 0.72,
      "hand": "left"
    },
    {
      "midi": 73,
      "time": 3,
      "duration": 0.188,
      "velocity": 0.7,
      "hand": "right"
    },
    {
      "midi": 80,
      "time": 3,
      "duration": 0.094,
      "velocity": 0.57,
      "hand": "right"
    },
    {
      "midi": 63,
      "time": 3.188,
      "duration": 0.188,
      "velocity": 0.5,
      "hand": "right"
    },
    {
      "midi": 66,
      "time": 3.188,
      "duration": 0.188,
      "velocity": 0.51,
      "hand": "right"
    },
    {
      "midi": 80,
      "time": 3.188,
      "duration": 0.188,
      "velocity": 0.54,
      "hand": "right"
    },
    {
      "midi": 40,
      "time": 3.375,
      "duration": 0.563,
      "velocity": 0.76,
      "hand": "left"
    },
    {
      "midi": 73,
      "time": 3.375,
      "duration": 0.375,
      "velocity": 0.73,
      "hand": "right"
    },
    {
      "midi": 81,
      "time": 3.375,
      "duration": 0.094,
      "velocity": 0.73,
      "hand": "right"
    },
    {
      "midi": 59,
      "time": 3.75,
      "duration": 0.094,
      "velocity": 0.25,
      "hand": "left"
    },
    {
      "midi": 64,
      "time": 3.75,
      "duration": 0.094,
      "velocity": 0.67,
      "hand": "right"
    },
    {
      "midi": 68,
      "time": 3.75,
      "duration": 0.188,
      "velocity": 0.57,
      "hand": "right"
    },
    {
      "midi": 80,
      "time": 3.75,
      "duration": 0.094,
      "velocity": 0.6,
      "hand": "right"
    },
    {
      "midi": 83,
      "time": 3.75,
      "duration": 0.188,
      "velocity": 0.7,
      "hand": "right"
    },
    {
      "midi": 44,
      "time": 3.938,
      "duration": 0.563,
      "velocity": 0.69,
      "hand": "left"
    },
    {
      "midi": 80,
      "time": 3.938,
      "duration": 0.172,
      "velocity": 0.61,
      "hand": "right"
    },
    {
      "midi": 54,
      "time": 4.125,
      "duration": 0.094,
      "velocity": 0.82,
      "hand": "left"
    },
    {
      "midi": 81,
      "time": 4.125,
      "duration": 0.188,
      "velocity": 0.7,
      "hand": "right"
    },
    {
      "midi": 64,
      "time": 4.313,
      "duration": 0.094,
      "velocity": 0.51,
      "hand": "right"
    },
    {
      "midi": 68,
      "time": 4.313,
      "duration": 0.188,
      "velocity": 0.51,
      "hand": "right"
    },
    {
      "midi": 47,
      "time": 4.5,
      "duration": 0.36,
      "velocity": 0.73,
      "hand": "left"
    },
    {
      "midi": 80,
      "time": 4.5,
      "duration": 0.094,
      "velocity": 0.65,
      "hand": "right"
    },
    {
      "midi": 83,
      "time": 4.5,
      "duration": 0.188,
      "velocity": 0.7,
      "hand": "right"
    },
    {
      "midi": 59,
      "time": 4.688,
      "duration": 0.094,
      "velocity": 0.16,
      "hand": "left"
    },
    {
      "midi": 64,
      "time": 4.688,
      "duration": 0.188,
      "velocity": 0.47,
      "hand": "right"
    },
    {
      "midi": 68,
      "time": 4.688,
      "duration": 0.188,
      "velocity": 0.38,
      "hand": "right"
    },
    {
      "midi": 80,
      "time": 4.688,
      "duration": 0.188,
      "velocity": 0.61,
      "hand": "right"
    },
    {
      "midi": 47,
      "time": 4.875,
      "duration": 0.563,
      "velocity": 0.67,
      "hand": "left"
    },
    {
      "midi": 81,
      "time": 4.875,
      "duration": 0.094,
      "velocity": 0.75,
      "hand": "right"
    },
    {
      "midi": 83,
      "time": 4.875,
      "duration": 0.375,
      "velocity": 0.7,
      "hand": "right"
    },
    {
      "midi": 59,
      "time": 5.25,
      "duration": 0.188,
      "velocity": 0.17,
      "hand": "left"
    },
    {
      "midi": 63,
      "time": 5.25,
      "duration": 0.188,
      "velocity": 0.57,
      "hand": "right"
    },
    {
      "midi": 66,
      "time": 5.25,
      "duration": 0.188,
      "velocity": 0.57,
      "hand": "right"
    },
    {
      "midi": 81,
      "time": 5.25,
      "duration": 0.36,
      "velocity": 0.67,
      "hand": "right"
    },
    {
      "midi": 51,
      "time": 5.438,
      "duration": 0.188,
      "velocity": 0.64,
      "hand": "left"
    },
    {
      "midi": 80,
      "time": 5.438,
      "duration": 0.188,
      "velocity": 0.64,
      "hand": "right"
    },
    {
      "midi": 54,
      "time": 5.625,
      "duration": 0.094,
      "velocity": 0.8,
      "hand": "left"
    },
    {
      "midi": 78,
      "time": 5.625,
      "duration": 0.375,
      "velocity": 0.81,
      "hand": "right"
    },
    {
      "midi": 81,
      "time": 5.625,
      "duration": 0.188,
      "velocity": 0.84,
      "hand": "right"
    },
    {
      "midi": 63,
      "time": 5.813,
      "duration": 0.188,
      "velocity": 0.55,
      "hand": "right"
    },
    {
      "midi": 66,
      "time": 5.813,
      "duration": 0.188,
      "velocity": 0.56,
      "hand": "right"
    },
    {
      "midi": 54,
      "time": 6,
      "duration": 0.375,
      "velocity": 0.83,
      "hand": "left"
    },
    {
      "midi": 81,
      "time": 6,
      "duration": 0.188,
      "velocity": 0.7,
      "hand": "right"
    },
    {
      "midi": 59,
      "time": 6.188,
      "duration": 0.188,
      "velocity": 0.37,
      "hand": "left"
    },
    {
      "midi": 63,
      "time": 6.188,
      "duration": 0.188,
      "velocity": 0.48,
      "hand": "right"
    },
    {
      "midi": 66,
      "time": 6.188,
      "duration": 0.188,
      "velocity": 0.48,
      "hand": "right"
    },
    {
      "midi": 80,
      "time": 6.188,
      "duration": 0.188,
      "velocity": 0.68,
      "hand": "right"
    },
    {
      "midi": 40,
      "time": 6.375,
      "duration": 0.563,
      "velocity": 0.84,
      "hand": "left"
    },
    {
      "midi": 81,
      "time": 6.375,
      "duration": 0.375,
      "velocity": 0.78,
      "hand": "right"
    },
    {
      "midi": 80,
      "time": 6.563,
      "duration": 0.094,
      "velocity": 0.77,
      "hand": "right"
    },
    {
      "midi": 59,
      "time": 6.75,
      "duration": 0.188,
      "velocity": 0.35,
      "hand": "left"
    },
    {
      "midi": 64,
      "time": 6.75,
      "duration": 0.188,
      "velocity": 0.59,
      "hand": "right"
    },
    {
      "midi": 68,
      "time": 6.75,
      "duration": 0.188,
      "velocity": 0.53,
      "hand": "right"
    },
    {
      "midi": 80,
      "time": 6.75,
      "duration": 0.173,
      "velocity": 0.7,
      "hand": "right"
    },
    {
      "midi": 82,
      "time": 6.75,
      "duration": 0.094,
      "velocity": 0.83,
      "hand": "right"
    },
    {
      "midi": 44,
      "time": 6.938,
      "duration": 0.563,
      "velocity": 0.72,
      "hand": "left"
    },
    {
      "midi": 80,
      "time": 6.938,
      "duration": 0.094,
      "velocity": 0.6,
      "hand": "right"
    },
    {
      "midi": 54,
      "time": 7.125,
      "duration": 0.094,
      "velocity": 0.76,
      "hand": "left"
    },
    {
      "midi": 68,
      "time": 7.125,
      "duration": 0.173,
      "velocity": 0.76,
      "hand": "right"
    },
    {
      "midi": 81,
      "time": 7.125,
      "duration": 0.188,
      "velocity": 0.78,
      "hand": "right"
    },
    {
      "midi": 59,
      "time": 7.313,
      "duration": 0.094,
      "velocity": 0.37,
      "hand": "left"
    },
    {
      "midi": 64,
      "time": 7.313,
      "duration": 0.188,
      "velocity": 0.62,
      "hand": "right"
    },
    {
      "midi": 68,
      "time": 7.313,
      "duration": 0.188,
      "velocity": 0.53,
      "hand": "right"
    },
    {
      "midi": 71,
      "time": 7.313,
      "duration": 0.188,
      "velocity": 0.76,
      "hand": "right"
    },
    {
      "midi": 80,
      "time": 7.313,
      "duration": 0.094,
      "velocity": 0.61,
      "hand": "right"
    },
    {
      "midi": 47,
      "time": 7.5,
      "duration": 0.36,
      "velocity": 0.67,
      "hand": "left"
    },
    {
      "midi": 81,
      "time": 7.5,
      "duration": 0.094,
      "velocity": 0.81,
      "hand": "right"
    },
    {
      "midi": 83,
      "time": 7.5,
      "duration": 0.188,
      "velocity": 0.75,
      "hand": "right"
    },
    {
      "midi": 59,
      "time": 7.688,
      "duration": 0.094,
      "velocity": 0.29,
      "hand": "left"
    },
    {
      "midi": 64,
      "time": 7.688,
      "duration": 0.188,
      "velocity": 0.62,
      "hand": "right"
    },
    {
      "midi": 68,
      "time": 7.688,
      "duration": 0.188,
      "velocity": 0.58,
      "hand": "right"
    },
    {
      "midi": 80,
      "time": 7.688,
      "duration": 0.094,
      "velocity": 0.72,
      "hand": "right"
    },
    {
      "midi": 47,
      "time": 7.875,
      "duration": 0.563,
      "velocity": 0.75,
      "hand": "left"
    },
    {
      "midi": 71,
      "time": 7.875,
      "duration": 0.375,
      "velocity": 0.83,
      "hand": "right"
    },
    {
      "midi": 81,
      "time": 7.875,
      "duration": 0.173,
      "velocity": 0.86,
      "hand": "right"
    },
    {
      "midi": 83,
      "time": 7.875,
      "duration": 0.375,
      "velocity": 0.75,
      "hand": "right"
    },
    {
      "midi": 81,
      "time": 8.063,
      "duration": 0.188,
      "velocity": 0.75,
      "hand": "right"
    },
    {
      "midi": 59,
      "time": 8.25,
      "duration": 0.188,
      "velocity": 0.38,
      "hand": "left"
    },
    {
      "midi": 63,
      "time": 8.25,
      "duration": 0.188,
      "velocity": 0.65,
      "hand": "right"
    },
    {
      "midi": 66,
      "time": 8.25,
      "duration": 0.188,
      "velocity": 0.56,
      "hand": "right"
    },
    {
      "midi": 69,
      "time": 8.25,
      "duration": 0.173,
      "velocity": 0.87,
      "hand": "right"
    },
    {
      "midi": 80,
      "time": 8.25,
      "duration": 0.094,
      "velocity": 0.74,
      "hand": "right"
    },
    {
      "midi": 51,
      "time": 8.438,
      "duration": 0.563,
      "velocity": 0.74,
      "hand": "left"
    },
    {
      "midi": 69,
      "time": 8.438,
      "duration": 0.375,
      "velocity": 0.84,
      "hand": "right"
    },
    {
      "midi": 81,
      "time": 8.438,
      "duration": 0.172,
      "velocity": 0.76,
      "hand": "right"
    },
    {
      "midi": 54,
      "time": 8.625,
      "duration": 0.094,
      "velocity": 0.8,
      "hand": "left"
    },
    {
      "midi": 81,
      "time": 8.625,
      "duration": 0.188,
      "velocity": 0.84,
      "hand": "right"
    },
    {
      "midi": 54,
      "time": 8.813,
      "duration": 0.188,
      "velocity": 0.76,
      "hand": "left"
    },
    {
      "midi": 59,
      "time": 8.813,
      "duration": 0.094,
      "velocity": 0.42,
      "hand": "left"
    },
    {
      "midi": 63,
      "time": 8.813,
      "duration": 0.188,
      "velocity": 0.6,
      "hand": "right"
    },
    {
      "midi": 66,
      "time": 8.813,
      "duration": 0.188,
      "velocity": 0.59,
      "hand": "right"
    },
    {
      "midi": 70,
      "time": 8.813,
      "duration": 0.094,
      "velocity": 0.83,
      "hand": "right"
    },
    {
      "midi": 73,
      "time": 8.813,
      "duration": 0.188,
      "velocity": 0.83,
      "hand": "right"
    },
    {
      "midi": 80,
      "time": 9,
      "duration": 0.094,
      "velocity": 0.72,
      "hand": "right"
    },
    {
      "midi": 40,
      "time": 9.188,
      "duration": 0.563,
      "velocity": 0.67,
      "hand": "left"
    },
    {
      "midi": 59,
      "time": 9.188,
      "duration": 0.188,
      "velocity": 0.35,
      "hand": "left"
    },
    {
      "midi": 63,
      "time": 9.188,
      "duration": 0.188,
      "velocity": 0.57,
      "hand": "right"
    },
    {
      "midi": 66,
      "time": 9.188,
      "duration": 0.188,
      "velocity": 0.59,
      "hand": "right"
    },
    {
      "midi": 73,
      "time": 9.188,
      "duration": 0.375,
      "velocity": 0.89,
      "hand": "right"
    },
    {
      "midi": 80,
      "time": 9.188,
      "duration": 0.188,
      "velocity": 0.71,
      "hand": "right"
    },
    {
      "midi": 81,
      "time": 9.375,
      "duration": 0.188,
      "velocity": 0.83,
      "hand": "right"
    },
    {
      "midi": 68,
      "time": 9.563,
      "duration": 0.188,
      "velocity": 0.65,
      "hand": "right"
    },
    {
      "midi": 71,
      "time": 9.563,
      "duration": 0.375,
      "velocity": 0.84,
      "hand": "right"
    },
    {
      "midi": 80,
      "time": 9.563,
      "duration": 0.094,
      "velocity": 0.79,
      "hand": "right"
    },
    {
      "midi": 83,
      "time": 9.563,
      "duration": 0.375,
      "velocity": 0.8,
      "hand": "right"
    },
    {
      "midi": 44,
      "time": 9.75,
      "duration": 0.563,
      "velocity": 0.67,
      "hand": "left"
    },
    {
      "midi": 59,
      "time": 9.75,
      "duration": 0.094,
      "velocity": 0.28,
      "hand": "left"
    },
    {
      "midi": 80,
      "time": 9.75,
      "duration": 0.173,
      "velocity": 0.69,
      "hand": "right"
    },
    {
      "midi": 54,
      "time": 9.938,
      "duration": 0.094,
      "velocity": 0.75,
      "hand": "left"
    },
    {
      "midi": 68,
      "time": 9.938,
      "duration": 0.172,
      "velocity": 0.87,
      "hand": "right"
    },
    {
      "midi": 80,
      "time": 9.938,
      "duration": 0.172,
      "velocity": 0.76,
      "hand": "right"
    },
    {
      "midi": 82,
      "time": 9.938,
      "duration": 0.094,
      "velocity": 0.9,
      "hand": "right"
    },
    {
      "midi": 64,
      "time": 10.125,
      "duration": 0.188,
      "velocity": 0.65,
      "hand": "right"
    },
    {
      "midi": 68,
      "time": 10.125,
      "duration": 0.188,
      "velocity": 0.51,
      "hand": "right"
    },
    {
      "midi": 80,
      "time": 10.125,
      "duration": 0.094,
      "velocity": 0.75,
      "hand": "right"
    },
    {
      "midi": 47,
      "time": 10.313,
      "duration": 0.375,
      "velocity": 0.75,
      "hand": "left"
    },
    {
      "midi": 59,
      "time": 10.313,
      "duration": 0.188,
      "velocity": 0.39,
      "hand": "left"
    },
    {
      "midi": 71,
      "time": 10.313,
      "duration": 0.188,
      "velocity": 0.83,
      "hand": "right"
    },
    {
      "midi": 81,
      "time": 10.313,
      "duration": 0.094,
      "velocity": 0.8,
      "hand": "right"
    },
    {
      "midi": 83,
      "time": 10.313,
      "duration": 0.188,
      "velocity": 0.76,
      "hand": "right"
    },
    {
      "midi": 59,
      "time": 10.688,
      "duration": 0.188,
      "velocity": 0.31,
      "hand": "left"
    },
    {
      "midi": 71,
      "time": 10.688,
      "duration": 0.375,
      "velocity": 0.76,
      "hand": "right"
    },
    {
      "midi": 81,
      "time": 10.688,
      "duration": 0.188,
      "velocity": 0.84,
      "hand": "right"
    },
    {
      "midi": 83,
      "time": 10.688,
      "duration": 0.375,
      "velocity": 0.8,
      "hand": "right"
    },
    {
      "midi": 47,
      "time": 10.875,
      "duration": 0.563,
      "velocity": 0.8,
      "hand": "left"
    },
    {
      "midi": 69,
      "time": 11.063,
      "duration": 0.375,
      "velocity": 0.76,
      "hand": "right"
    },
    {
      "midi": 81,
      "time": 11.063,
      "duration": 0.36,
      "velocity": 0.76,
      "hand": "right"
    },
    {
      "midi": 59,
      "time": 11.25,
      "duration": 0.094,
      "velocity": 0.28,
      "hand": "left"
    },
    {
      "midi": 63,
      "time": 11.25,
      "duration": 0.188,
      "velocity": 0.54,
      "hand": "right"
    },
    {
      "midi": 66,
      "time": 11.25,
      "duration": 0.173,
      "velocity": 0.59,
      "hand": "right"
    },
    {
      "midi": 80,
      "time": 11.25,
      "duration": 0.188,
      "velocity": 0.69,
      "hand": "right"
    },
    {
      "midi": 39,
      "time": 11.438,
      "duration": 0.563,
      "velocity": 0.69,
      "hand": "left"
    },
    {
      "midi": 54,
      "time": 11.438,
      "duration": 0.188,
      "velocity": 0.76,
      "hand": "left"
    },
    {
      "midi": 66,
      "time": 11.438,
      "duration": 0.36,
      "velocity": 0.81,
      "hand": "right"
    },
    {
      "midi": 78,
      "time": 11.438,
      "duration": 0.375,
      "velocity": 0.81,
      "hand": "right"
    },
    {
      "midi": 81,
      "time": 11.438,
      "duration": 0.188,
      "velocity": 0.84,
      "hand": "right"
    },
    {
      "midi": 59,
      "time": 11.813,
      "duration": 0.094,
      "velocity": 0.26,
      "hand": "left"
    },
    {
      "midi": 66,
      "time": 11.813,
      "duration": 0.188,
      "velocity": 0.53,
      "hand": "right"
    },
    {
      "midi": 69,
      "time": 11.813,
      "duration": 0.36,
      "velocity": 0.8,
      "hand": "right"
    },
    {
      "midi": 81,
      "time": 11.813,
      "duration": 0.188,
      "velocity": 0.81,
      "hand": "right"
    },
    {
      "midi": 42,
      "time": 12,
      "duration": 0.188,
      "velocity": 0.64,
      "hand": "left"
    },
    {
      "midi": 80,
      "time": 12,
      "duration": 0.094,
      "velocity": 0.71,
      "hand": "right"
    },
    {
      "midi": 63,
      "time": 12.188,
      "duration": 0.188,
      "velocity": 0.2,
      "hand": "right"
    },
    {
      "midi": 66,
      "time": 12.188,
      "duration": 0.188,
      "velocity": 0.44,
      "hand": "right"
    },
    {
      "midi": 69,
      "time": 12.188,
      "duration": 0.375,
      "velocity": 0.78,
      "hand": "right"
    },
    {
      "midi": 81,
      "time": 12.188,
      "duration": 0.172,
      "velocity": 0.76,
      "hand": "right"
    },
    {
      "midi": 40,
      "time": 12.375,
      "duration": 0.563,
      "velocity": 0.53,
      "hand": "left"
    },
    {
      "midi": 81,
      "time": 12.375,
      "duration": 0.188,
      "velocity": 0.84,
      "hand": "right"
    },
    {
      "midi": 80,
      "time": 12.563,
      "duration": 0.172,
      "velocity": 0.83,
      "hand": "right"
    },
    {
      "midi": 59,
      "time": 12.75,
      "duration": 0.094,
      "velocity": 0.12,
      "hand": "left"
    },
    {
      "midi": 64,
      "time": 12.75,
      "duration": 0.188,
      "velocity": 0.5,
      "hand": "right"
    },
    {
      "midi": 68,
      "time": 12.75,
      "duration": 0.548,
      "velocity": 0.75,
      "hand": "right"
    },
    {
      "midi": 80,
      "time": 12.75,
      "duration": 0.094,
      "velocity": 0.75,
      "hand": "right"
    },
    {
      "midi": 44,
      "time": 12.938,
      "duration": 0.563,
      "velocity": 0.58,
      "hand": "left"
    },
    {
      "midi": 80,
      "time": 12.938,
      "duration": 0.188,
      "velocity": 0.69,
      "hand": "right"
    },
    {
      "midi": 54,
      "time": 13.125,
      "duration": 0.094,
      "velocity": 0.75,
      "hand": "left"
    },
    {
      "midi": 81,
      "time": 13.125,
      "duration": 0.188,
      "velocity": 0.76,
      "hand": "right"
    },
    {
      "midi": 59,
      "time": 13.313,
      "duration": 0.094,
      "velocity": 0.24,
      "hand": "left"
    },
    {
      "midi": 64,
      "time": 13.313,
      "duration": 0.188,
      "velocity": 0.62,
      "hand": "right"
    },
    {
      "midi": 68,
      "time": 13.313,
      "duration": 0.188,
      "velocity": 0.43,
      "hand": "right"
    },
    {
      "midi": 47,
      "time": 13.5,
      "duration": 0.375,
      "velocity": 0.67,
      "hand": "left"
    },
    {
      "midi": 70,
      "time": 13.5,
      "duration": 0.094,
      "velocity": 0.87,
      "hand": "right"
    },
    {
      "midi": 76,
      "time": 13.5,
      "duration": 0.094,
      "velocity": 0.76,
      "hand": "right"
    },
    {
      "midi": 80,
      "time": 13.5,
      "duration": 0.173,
      "velocity": 0.72,
      "hand": "right"
    },
    {
      "midi": 59,
      "time": 13.688,
      "duration": 0.188,
      "velocity": 0.24,
      "hand": "left"
    },
    {
      "midi": 64,
      "time": 13.688,
      "duration": 0.188,
      "velocity": 0.5,
      "hand": "right"
    },
    {
      "midi": 68,
      "time": 13.688,
      "duration": 0.188,
      "velocity": 0.44,
      "hand": "right"
    },
    {
      "midi": 76,
      "time": 13.688,
      "duration": 0.188,
      "velocity": 0.7,
      "hand": "right"
    },
    {
      "midi": 80,
      "time": 13.688,
      "duration": 0.188,
      "velocity": 0.65,
      "hand": "right"
    },
    {
      "midi": 45,
      "time": 13.875,
      "duration": 0.563,
      "velocity": 0.78,
      "hand": "left"
    },
    {
      "midi": 73,
      "time": 13.875,
      "duration": 0.563,
      "velocity": 0.89,
      "hand": "right"
    },
    {
      "midi": 81,
      "time": 13.875,
      "duration": 0.188,
      "velocity": 0.81,
      "hand": "right"
    },
    {
      "midi": 57,
      "time": 14.25,
      "duration": 0.188,
      "velocity": 0.43,
      "hand": "left"
    },
    {
      "midi": 61,
      "time": 14.25,
      "duration": 0.188,
      "velocity": 0.54,
      "hand": "right"
    },
    {
      "midi": 64,
      "time": 14.25,
      "duration": 0.188,
      "velocity": 0.61,
      "hand": "right"
    },
    {
      "midi": 80,
      "time": 14.25,
      "duration": 0.173,
      "velocity": 0.71,
      "hand": "right"
    },
    {
      "midi": 49,
      "time": 14.438,
      "duration": 0.563,
      "velocity": 0.67,
      "hand": "left"
    },
    {
      "midi": 75,
      "time": 14.438,
      "duration": 0.188,
      "velocity": 0.75,
      "hand": "right"
    },
    {
      "midi": 80,
      "time": 14.438,
      "duration": 0.188,
      "velocity": 0.69,
      "hand": "right"
    },
    {
      "midi": 54,
      "time": 14.625,
      "duration": 0.188,
      "velocity": 0.75,
      "hand": "left"
    },
    {
      "midi": 76,
      "time": 14.625,
      "duration": 0.563,
      "velocity": 0.81,
      "hand": "right"
    },
    {
      "midi": 81,
      "time": 14.625,
      "duration": 0.188,
      "velocity": 0.76,
      "hand": "right"
    },
    {
      "midi": 57,
      "time": 14.813,
      "duration": 0.188,
      "velocity": 0.51,
      "hand": "left"
    },
    {
      "midi": 61,
      "time": 14.813,
      "duration": 0.094,
      "velocity": 0.61,
      "hand": "right"
    },
    {
      "midi": 64,
      "time": 14.813,
      "duration": 0.188,
      "velocity": 0.62,
      "hand": "right"
    },
    {
      "midi": 52,
      "time": 15,
      "duration": 0.375,
      "velocity": 0.76,
      "hand": "left"
    },
    {
      "midi": 70,
      "time": 15,
      "duration": 0.094,
      "velocity": 0.85,
      "hand": "right"
    },
    {
      "midi": 80,
      "time": 15,
      "duration": 0.173,
      "velocity": 0.75,
      "hand": "right"
    },
    {
      "midi": 82,
      "time": 15,
      "duration": 0.094,
      "velocity": 0.76,
      "hand": "right"
    },
    {
      "midi": 57,
      "time": 15.188,
      "duration": 0.188,
      "velocity": 0.31,
      "hand": "left"
    },
    {
      "midi": 64,
      "time": 15.188,
      "duration": 0.188,
      "velocity": 0.57,
      "hand": "right"
    },
    {
      "midi": 75,
      "time": 15.188,
      "duration": 0.188,
      "velocity": 0.76,
      "hand": "right"
    },
    {
      "midi": 80,
      "time": 15.188,
      "duration": 0.188,
      "velocity": 0.66,
      "hand": "right"
    },
    {
      "midi": 82,
      "time": 15.188,
      "duration": 0.094,
      "velocity": 0.48,
      "hand": "right"
    },
    {
      "midi": 40,
      "time": 15.375,
      "duration": 0.563,
      "velocity": 0.76,
      "hand": "left"
    },
    {
      "midi": 73,
      "time": 15.375,
      "duration": 0.173,
      "velocity": 0.69,
      "hand": "right"
    },
    {
      "midi": 81,
      "time": 15.375,
      "duration": 0.188,
      "velocity": 0.83,
      "hand": "right"
    },
    {
      "midi": 64,
      "time": 15.563,
      "duration": 0.172,
      "velocity": 0.76,
      "hand": "right"
    },
    {
      "midi": 73,
      "time": 15.563,
      "duration": 0.188,
      "velocity": 0.64,
      "hand": "right"
    },
    {
      "midi": 75,
      "time": 15.563,
      "duration": 0.188,
      "velocity": 0.63,
      "hand": "right"
    },
    {
      "midi": 59,
      "time": 15.75,
      "duration": 0.188,
      "velocity": 0.46,
      "hand": "left"
    },
    {
      "midi": 69,
      "time": 15.75,
      "duration": 0.094,
      "velocity": 0.76,
      "hand": "right"
    },
    {
      "midi": 80,
      "time": 15.75,
      "duration": 0.094,
      "velocity": 0.75,
      "hand": "right"
    },
    {
      "midi": 83,
      "time": 15.75,
      "duration": 0.188,
      "velocity": 0.81,
      "hand": "right"
    },
    {
      "midi": 44,
      "time": 15.938,
      "duration": 0.563,
      "velocity": 0.63,
      "hand": "left"
    },
    {
      "midi": 68,
      "time": 15.938,
      "duration": 0.188,
      "velocity": 0.69,
      "hand": "right"
    },
    {
      "midi": 80,
      "time": 15.938,
      "duration": 0.188,
      "velocity": 0.67,
      "hand": "right"
    },
    {
      "midi": 71,
      "time": 16.125,
      "duration": 0.375,
      "velocity": 0.67,
      "hand": "right"
    },
    {
      "midi": 81,
      "time": 16.125,
      "duration": 0.188,
      "velocity": 0.81,
      "hand": "right"
    },
    {
      "midi": 59,
      "time": 16.313,
      "duration": 0.094,
      "velocity": 0.4,
      "hand": "left"
    },
    {
      "midi": 64,
      "time": 16.313,
      "duration": 0.188,
      "velocity": 0.69,
      "hand": "right"
    },
    {
      "midi": 68,
      "time": 16.313,
      "duration": 0.188,
      "velocity": 0.58,
      "hand": "right"
    },
    {
      "midi": 47,
      "time": 16.5,
      "duration": 0.375,
      "velocity": 0.72,
      "hand": "left"
    },
    {
      "midi": 70,
      "time": 16.5,
      "duration": 0.094,
      "velocity": 0.93,
      "hand": "right"
    },
    {
      "midi": 76,
      "time": 16.5,
      "duration": 0.094,
      "velocity": 0.78,
      "hand": "right"
    },
    {
      "midi": 80,
      "time": 16.5,
      "duration": 0.094,
      "velocity": 0.72,
      "hand": "right"
    },
    {
      "midi": 59,
      "time": 16.688,
      "duration": 0.188,
      "velocity": 0.18,
      "hand": "left"
    },
    {
      "midi": 64,
      "time": 16.688,
      "duration": 0.188,
      "velocity": 0.64,
      "hand": "right"
    },
    {
      "midi": 68,
      "time": 16.688,
      "duration": 0.188,
      "velocity": 0.52,
      "hand": "right"
    },
    {
      "midi": 76,
      "time": 16.688,
      "duration": 0.188,
      "velocity": 0.73,
      "hand": "right"
    },
    {
      "midi": 80,
      "time": 16.688,
      "duration": 0.188,
      "velocity": 0.66,
      "hand": "right"
    },
    {
      "midi": 45,
      "time": 16.875,
      "duration": 0.563,
      "velocity": 0.64,
      "hand": "left"
    },
    {
      "midi": 73,
      "time": 16.875,
      "duration": 0.563,
      "velocity": 0.86,
      "hand": "right"
    },
    {
      "midi": 81,
      "time": 16.875,
      "duration": 0.188,
      "velocity": 0.8,
      "hand": "right"
    },
    {
      "midi": 57,
      "time": 17.25,
      "duration": 0.188,
      "velocity": 0.45,
      "hand": "left"
    },
    {
      "midi": 61,
      "time": 17.25,
      "duration": 0.188,
      "velocity": 0.52,
      "hand": "right"
    },
    {
      "midi": 64,
      "time": 17.25,
      "duration": 0.173,
      "velocity": 0.64,
      "hand": "right"
    },
    {
      "midi": 80,
      "time": 17.25,
      "duration": 0.173,
      "velocity": 0.71,
      "hand": "right"
    },
    {
      "midi": 49,
      "time": 17.438,
      "duration": 0.563,
      "velocity": 0.69,
      "hand": "left"
    },
    {
      "midi": 64,
      "time": 17.438,
      "duration": 0.188,
      "velocity": 0.7,
      "hand": "right"
    },
    {
      "midi": 75,
      "time": 17.438,
      "duration": 0.188,
      "velocity": 0.75,
      "hand": "right"
    },
    {
      "midi": 80,
      "time": 17.438,
      "duration": 0.188,
      "velocity": 0.69,
      "hand": "right"
    },
    {
      "midi": 54,
      "time": 17.625,
      "duration": 0.094,
      "velocity": 0.77,
      "hand": "left"
    },
    {
      "midi": 73,
      "time": 17.625,
      "duration": 0.735,
      "velocity": 0.7,
      "hand": "right"
    },
    {
      "midi": 76,
      "time": 17.625,
      "duration": 0.563,
      "velocity": 0.83,
      "hand": "right"
    },
    {
      "midi": 81,
      "time": 17.625,
      "duration": 0.188,
      "velocity": 0.78,
      "hand": "right"
    },
    {
      "midi": 57,
      "time": 17.813,
      "duration": 0.188,
      "velocity": 0.44,
      "hand": "left"
    },
    {
      "midi": 61,
      "time": 17.813,
      "duration": 0.188,
      "velocity": 0.49,
      "hand": "right"
    },
    {
      "midi": 64,
      "time": 17.813,
      "duration": 0.188,
      "velocity": 0.57,
      "hand": "right"
    },
    {
      "midi": 52,
      "time": 18,
      "duration": 0.188,
      "velocity": 0.72,
      "hand": "left"
    },
    {
      "midi": 70,
      "time": 18,
      "duration": 0.094,
      "velocity": 0.93,
      "hand": "right"
    },
    {
      "midi": 80,
      "time": 18,
      "duration": 0.094,
      "velocity": 0.69,
      "hand": "right"
    },
    {
      "midi": 82,
      "time": 18,
      "duration": 0.094,
      "velocity": 0.72,
      "hand": "right"
    },
    {
      "midi": 57,
      "time": 18.188,
      "duration": 0.188,
      "velocity": 0.32,
      "hand": "left"
    },
    {
      "midi": 64,
      "time": 18.188,
      "duration": 0.188,
      "velocity": 0.53,
      "hand": "right"
    },
    {
      "midi": 75,
      "time": 18.188,
      "duration": 0.188,
      "velocity": 0.75,
      "hand": "right"
    },
    {
      "midi": 80,
      "time": 18.188,
      "duration": 0.188,
      "velocity": 0.6,
      "hand": "right"
    },
    {
      "midi": 82,
      "time": 18.188,
      "duration": 0.094,
      "velocity": 0.57,
      "hand": "right"
    },
    {
      "midi": 38,
      "time": 18.375,
      "duration": 0.188,
      "velocity": 0.59,
      "hand": "left"
    },
    {
      "midi": 40,
      "time": 18.375,
      "duration": 0.563,
      "velocity": 0.67,
      "hand": "left"
    },
    {
      "midi": 73,
      "time": 18.375,
      "duration": 0.173,
      "velocity": 0.8,
      "hand": "right"
    },
    {
      "midi": 81,
      "time": 18.375,
      "duration": 0.188,
      "velocity": 0.78,
      "hand": "right"
    },
    {
      "midi": 64,
      "time": 18.563,
      "duration": 0.172,
      "velocity": 0.8,
      "hand": "right"
    },
    {
      "midi": 73,
      "time": 18.563,
      "duration": 0.188,
      "velocity": 0.56,
      "hand": "right"
    },
    {
      "midi": 75,
      "time": 18.563,
      "duration": 0.188,
      "velocity": 0.69,
      "hand": "right"
    },
    {
      "midi": 59,
      "time": 18.75,
      "duration": 0.188,
      "velocity": 0.29,
      "hand": "left"
    },
    {
      "midi": 66,
      "time": 18.75,
      "duration": 0.188,
      "velocity": 0.62,
      "hand": "right"
    },
    {
      "midi": 68,
      "time": 18.75,
      "duration": 0.173,
      "velocity": 0.43,
      "hand": "right"
    },
    {
      "midi": 80,
      "time": 18.75,
      "duration": 0.094,
      "velocity": 0.72,
      "hand": "right"
    },
    {
      "midi": 83,
      "time": 18.75,
      "duration": 0.188,
      "velocity": 0.81,
      "hand": "right"
    },
    {
      "midi": 44,
      "time": 18.938,
      "duration": 0.563,
      "velocity": 0.6,
      "hand": "left"
    },
    {
      "midi": 64,
      "time": 18.938,
      "duration": 0.188,
      "velocity": 0.7,
      "hand": "right"
    },
    {
      "midi": 68,
      "time": 18.938,
      "duration": 0.172,
      "velocity": 0.61,
      "hand": "right"
    },
    {
      "midi": 80,
      "time": 18.938,
      "duration": 0.172,
      "velocity": 0.69,
      "hand": "right"
    },
    {
      "midi": 54,
      "time": 19.125,
      "duration": 0.094,
      "velocity": 0.82,
      "hand": "left"
    },
    {
      "midi": 68,
      "time": 19.125,
      "duration": 0.173,
      "velocity": 0.15,
      "hand": "right"
    },
    {
      "midi": 71,
      "time": 19.125,
      "duration": 0.75,
      "velocity": 0.64,
      "hand": "right"
    },
    {
      "midi": 81,
      "time": 19.125,
      "duration": 0.188,
      "velocity": 0.76,
      "hand": "right"
    },
    {
      "midi": 59,
      "time": 19.313,
      "duration": 0.188,
      "velocity": 0.37,
      "hand": "left"
    },
    {
      "midi": 64,
      "time": 19.313,
      "duration": 0.188,
      "velocity": 0.7,
      "hand": "right"
    },
    {
      "midi": 68,
      "time": 19.313,
      "duration": 0.188,
      "velocity": 0.53,
      "hand": "right"
    },
    {
      "midi": 47,
      "time": 19.5,
      "duration": 0.36,
      "velocity": 0.7,
      "hand": "left"
    },
    {
      "midi": 70,
      "time": 19.5,
      "duration": 0.094,
      "velocity": 0.91,
      "hand": "right"
    },
    {
      "midi": 80,
      "time": 19.5,
      "duration": 0.094,
      "velocity": 0.69,
      "hand": "right"
    },
    {
      "midi": 83,
      "time": 19.5,
      "duration": 0.188,
      "velocity": 0.76,
      "hand": "right"
    },
    {
      "midi": 59,
      "time": 19.688,
      "duration": 0.188,
      "velocity": 0.34,
      "hand": "left"
    },
    {
      "midi": 64,
      "time": 19.688,
      "duration": 0.188,
      "velocity": 0.62,
      "hand": "right"
    },
    {
      "midi": 68,
      "time": 19.688,
      "duration": 0.188,
      "velocity": 0.46,
      "hand": "right"
    },
    {
      "midi": 80,
      "time": 19.688,
      "duration": 0.188,
      "velocity": 0.56,
      "hand": "right"
    },
    {
      "midi": 82,
      "time": 19.688,
      "duration": 0.094,
      "velocity": 0.6,
      "hand": "right"
    },
    {
      "midi": 47,
      "time": 19.875,
      "duration": 0.563,
      "velocity": 0.4,
      "hand": "left"
    },
    {
      "midi": 81,
      "time": 19.875,
      "duration": 0.188,
      "velocity": 0.75,
      "hand": "right"
    },
    {
      "midi": 83,
      "time": 19.875,
      "duration": 0.375,
      "velocity": 0.86,
      "hand": "right"
    },
    {
      "midi": 57,
      "time": 20.25,
      "duration": 0.188,
      "velocity": 0.41,
      "hand": "left"
    },
    {
      "midi": 64,
      "time": 20.25,
      "duration": 0.094,
      "velocity": 0.43,
      "hand": "right"
    },
    {
      "midi": 66,
      "time": 20.25,
      "duration": 0.094,
      "velocity": 0.53,
      "hand": "right"
    },
    {
      "midi": 81,
      "time": 20.25,
      "duration": 0.188,
      "velocity": 0.78,
      "hand": "right"
    },
    {
      "midi": 51,
      "time": 20.438,
      "duration": 0.563,
      "velocity": 0.71,
      "hand": "left"
    },
    {
      "midi": 80,
      "time": 20.438,
      "duration": 0.188,
      "velocity": 0.69,
      "hand": "right"
    },
    {
      "midi": 54,
      "time": 20.625,
      "duration": 0.094,
      "velocity": 0.8,
      "hand": "left"
    },
    {
      "midi": 81,
      "time": 20.625,
      "duration": 0.375,
      "velocity": 0.76,
      "hand": "right"
    },
    {
      "midi": 59,
      "time": 20.813,
      "duration": 0.188,
      "velocity": 0.47,
      "hand": "left"
    },
    {
      "midi": 63,
      "time": 20.813,
      "duration": 0.188,
      "velocity": 0.65,
      "hand": "right"
    },
    {
      "midi": 66,
      "time": 20.813,
      "duration": 0.188,
      "velocity": 0.67,
      "hand": "right"
    },
    {
      "midi": 54,
      "time": 21,
      "duration": 0.188,
      "velocity": 0.67,
      "hand": "left"
    },
    {
      "midi": 69,
      "time": 21,
      "duration": 0.094,
      "velocity": 0.8,
      "hand": "right"
    },
    {
      "midi": 73,
      "time": 21,
      "duration": 0.173,
      "velocity": 0.76,
      "hand": "right"
    },
    {
      "midi": 80,
      "time": 21,
      "duration": 0.094,
      "velocity": 0.73,
      "hand": "right"
    },
    {
      "midi": 82,
      "time": 21,
      "duration": 0.094,
      "velocity": 0.75,
      "hand": "right"
    },
    {
      "midi": 59,
      "time": 21.188,
      "duration": 0.188,
      "velocity": 0.4,
      "hand": "left"
    },
    {
      "midi": 66,
      "time": 21.188,
      "duration": 0.188,
      "velocity": 0.59,
      "hand": "right"
    },
    {
      "midi": 73,
      "time": 21.188,
      "duration": 0.375,
      "velocity": 0.84,
      "hand": "right"
    },
    {
      "midi": 80,
      "time": 21.188,
      "duration": 0.188,
      "velocity": 0.65,
      "hand": "right"
    },
    {
      "midi": 82,
      "time": 21.188,
      "duration": 0.094,
      "velocity": 0.61,
      "hand": "right"
    },
    {
      "midi": 40,
      "time": 21.375,
      "duration": 0.563,
      "velocity": 0.73,
      "hand": "left"
    },
    {
      "midi": 81,
      "time": 21.375,
      "duration": 0.188,
      "velocity": 0.8,
      "hand": "right"
    },
    {
      "midi": 83,
      "time": 21.563,
      "duration": 0.188,
      "velocity": 0.72,
      "hand": "right"
    },
    {
      "midi": 59,
      "time": 21.75,
      "duration": 0.188,
      "velocity": 0.42,
      "hand": "left"
    },
    {
      "midi": 64,
      "time": 21.75,
      "duration": 0.188,
      "velocity": 0.62,
      "hand": "right"
    },
    {
      "midi": 68,
      "time": 21.75,
      "duration": 0.188,
      "velocity": 0.53,
      "hand": "right"
    },
    {
      "midi": 80,
      "time": 21.75,
      "duration": 0.094,
      "velocity": 0.75,
      "hand": "right"
    },
    {
      "midi": 44,
      "time": 21.938,
      "duration": 0.563,
      "velocity": 0.58,
      "hand": "left"
    },
    {
      "midi": 80,
      "time": 21.938,
      "duration": 0.375,
      "velocity": 0.8,
      "hand": "right"
    },
    {
      "midi": 54,
      "time": 22.125,
      "duration": 0.094,
      "velocity": 0.85,
      "hand": "left"
    },
    {
      "midi": 81,
      "time": 22.125,
      "duration": 0.188,
      "velocity": 0.8,
      "hand": "right"
    },
    {
      "midi": 59,
      "time": 22.313,
      "duration": 0.188,
      "velocity": 0.39,
      "hand": "left"
    },
    {
      "midi": 64,
      "time": 22.313,
      "duration": 0.188,
      "velocity": 0.53,
      "hand": "right"
    },
    {
      "midi": 68,
      "time": 22.313,
      "duration": 0.188,
      "velocity": 0.31,
      "hand": "right"
    },
    {
      "midi": 83,
      "time": 22.313,
      "duration": 0.188,
      "velocity": 0.73,
      "hand": "right"
    },
    {
      "midi": 47,
      "time": 22.5,
      "duration": 0.36,
      "velocity": 0.56,
      "hand": "left"
    },
    {
      "midi": 70,
      "time": 22.5,
      "duration": 0.094,
      "velocity": 0.87,
      "hand": "right"
    },
    {
      "midi": 80,
      "time": 22.5,
      "duration": 0.173,
      "velocity": 0.71,
      "hand": "right"
    },
    {
      "midi": 82,
      "time": 22.5,
      "duration": 0.094,
      "velocity": 0.75,
      "hand": "right"
    },
    {
      "midi": 59,
      "time": 22.688,
      "duration": 0.188,
      "velocity": 0.39,
      "hand": "left"
    },
    {
      "midi": 68,
      "time": 22.688,
      "duration": 0.188,
      "velocity": 0.38,
      "hand": "right"
    },
    {
      "midi": 80,
      "time": 22.688,
      "duration": 0.188,
      "velocity": 0.61,
      "hand": "right"
    },
    {
      "midi": 83,
      "time": 22.688,
      "duration": 0.375,
      "velocity": 0.8,
      "hand": "right"
    },
    {
      "midi": 37,
      "time": 22.875,
      "duration": 0.188,
      "velocity": 0.53,
      "hand": "left"
    },
    {
      "midi": 47,
      "time": 22.875,
      "duration": 0.563,
      "velocity": 0.44,
      "hand": "left"
    },
    {
      "midi": 81,
      "time": 22.875,
      "duration": 0.173,
      "velocity": 0.8,
      "hand": "right"
    },
    {
      "midi": 81,
      "time": 23.063,
      "duration": 0.375,
      "velocity": 0.78,
      "hand": "right"
    },
    {
      "midi": 59,
      "time": 23.25,
      "duration": 0.188,
      "velocity": 0.37,
      "hand": "left"
    },
    {
      "midi": 63,
      "time": 23.25,
      "duration": 0.188,
      "velocity": 0.55,
      "hand": "right"
    },
    {
      "midi": 66,
      "time": 23.25,
      "duration": 0.188,
      "velocity": 0.62,
      "hand": "right"
    },
    {
      "midi": 80,
      "time": 23.25,
      "duration": 0.094,
      "velocity": 0.75,
      "hand": "right"
    },
    {
      "midi": 39,
      "time": 23.438,
      "duration": 0.563,
      "velocity": 0.63,
      "hand": "left"
    },
    {
      "midi": 78,
      "time": 23.438,
      "duration": 0.375,
      "velocity": 0.84,
      "hand": "right"
    },
    {
      "midi": 80,
      "time": 23.438,
      "duration": 0.094,
      "velocity": 0.72,
      "hand": "right"
    },
    {
      "midi": 54,
      "time": 23.625,
      "duration": 0.188,
      "velocity": 0.83,
      "hand": "left"
    },
    {
      "midi": 81,
      "time": 23.625,
      "duration": 0.173,
      "velocity": 0.8,
      "hand": "right"
    },
    {
      "midi": 42,
      "time": 23.813,
      "duration": 0.375,
      "velocity": 0.49,
      "hand": "left"
    },
    {
      "midi": 59,
      "time": 23.813,
      "duration": 0.188,
      "velocity": 0.38,
      "hand": "left"
    },
    {
      "midi": 63,
      "time": 23.813,
      "duration": 0.188,
      "velocity": 0.5,
      "hand": "right"
    },
    {
      "midi": 66,
      "time": 23.813,
      "duration": 0.188,
      "velocity": 0.56,
      "hand": "right"
    },
    {
      "midi": 81,
      "time": 23.813,
      "duration": 0.188,
      "velocity": 0.78,
      "hand": "right"
    },
    {
      "midi": 69,
      "time": 24,
      "duration": 0.094,
      "velocity": 0.7,
      "hand": "right"
    },
    {
      "midi": 80,
      "time": 24,
      "duration": 0.094,
      "velocity": 0.65,
      "hand": "right"
    },
    {
      "midi": 82,
      "time": 24,
      "duration": 0.094,
      "velocity": 0.67,
      "hand": "right"
    },
    {
      "midi": 59,
      "time": 24.188,
      "duration": 0.188,
      "velocity": 0.32,
      "hand": "left"
    },
    {
      "midi": 66,
      "time": 24.188,
      "duration": 0.188,
      "velocity": 0.56,
      "hand": "right"
    },
    {
      "midi": 80,
      "time": 24.188,
      "duration": 0.188,
      "velocity": 0.63,
      "hand": "right"
    },
    {
      "midi": 82,
      "time": 24.188,
      "duration": 0.094,
      "velocity": 0.57,
      "hand": "right"
    },
    {
      "midi": 40,
      "time": 24.375,
      "duration": 0.563,
      "velocity": 0.7,
      "hand": "left"
    },
    {
      "midi": 81,
      "time": 24.375,
      "duration": 0.188,
      "velocity": 0.8,
      "hand": "right"
    },
    {
      "midi": 80,
      "time": 24.563,
      "duration": 0.172,
      "velocity": 0.82,
      "hand": "right"
    },
    {
      "midi": 59,
      "time": 24.75,
      "duration": 0.188,
      "velocity": 0.38,
      "hand": "left"
    },
    {
      "midi": 64,
      "time": 24.75,
      "duration": 0.188,
      "velocity": 0.62,
      "hand": "right"
    },
    {
      "midi": 68,
      "time": 24.75,
      "duration": 0.188,
      "velocity": 0.65,
      "hand": "right"
    },
    {
      "midi": 71,
      "time": 24.75,
      "duration": 0.094,
      "velocity": 0.47,
      "hand": "right"
    },
    {
      "midi": 80,
      "time": 24.75,
      "duration": 0.094,
      "velocity": 0.76,
      "hand": "right"
    },
    {
      "midi": 44,
      "time": 24.938,
      "duration": 0.563,
      "velocity": 0.57,
      "hand": "left"
    },
    {
      "midi": 54,
      "time": 24.938,
      "duration": 0.188,
      "velocity": 0.83,
      "hand": "left"
    },
    {
      "midi": 71,
      "time": 24.938,
      "duration": 0.375,
      "velocity": 0.51,
      "hand": "right"
    },
    {
      "midi": 80,
      "time": 24.938,
      "duration": 0.375,
      "velocity": 0.87,
      "hand": "right"
    },
    {
      "midi": 83,
      "time": 24.938,
      "duration": 0.36,
      "velocity": 0.67,
      "hand": "right"
    },
    {
      "midi": 81,
      "time": 25.125,
      "duration": 0.188,
      "velocity": 0.81,
      "hand": "right"
    },
    {
      "midi": 47,
      "time": 25.313,
      "duration": 0.375,
      "velocity": 0.67,
      "hand": "left"
    },
    {
      "midi": 59,
      "time": 25.313,
      "duration": 0.172,
      "velocity": 0.35,
      "hand": "left"
    },
    {
      "midi": 68,
      "time": 25.313,
      "duration": 0.172,
      "velocity": 0.22,
      "hand": "right"
    },
    {
      "midi": 70,
      "time": 25.313,
      "duration": 0.188,
      "velocity": 0.87,
      "hand": "right"
    },
    {
      "midi": 75,
      "time": 25.313,
      "duration": 0.36,
      "velocity": 0.67,
      "hand": "right"
    },
    {
      "midi": 83,
      "time": 25.313,
      "duration": 0.188,
      "velocity": 0.76,
      "hand": "right"
    },
    {
      "midi": 59,
      "time": 25.5,
      "duration": 0.188,
      "velocity": 0.32,
      "hand": "left"
    },
    {
      "midi": 68,
      "time": 25.5,
      "duration": 0.188,
      "velocity": 0.55,
      "hand": "right"
    },
    {
      "midi": 71,
      "time": 25.5,
      "duration": 0.094,
      "velocity": 0.7,
      "hand": "right"
    },
    {
      "midi": 80,
      "time": 25.5,
      "duration": 0.094,
      "velocity": 0.76,
      "hand": "right"
    },
    {
      "midi": 82,
      "time": 25.5,
      "duration": 0.094,
      "velocity": 0.73,
      "hand": "right"
    },
    {
      "midi": 45,
      "time": 25.688,
      "duration": 0.563,
      "velocity": 0.49,
      "hand": "left"
    },
    {
      "midi": 75,
      "time": 25.688,
      "duration": 0.375,
      "velocity": 0.62,
      "hand": "right"
    },
    {
      "midi": 80,
      "time": 25.688,
      "duration": 0.188,
      "velocity": 0.65,
      "hand": "right"
    },
    {
      "midi": 83,
      "time": 25.688,
      "duration": 0.375,
      "velocity": 0.81,
      "hand": "right"
    },
    {
      "midi": 81,
      "time": 25.875,
      "duration": 0.173,
      "velocity": 0.83,
      "hand": "right"
    },
    {
      "midi": 71,
      "time": 26.063,
      "duration": 0.094,
      "velocity": 0.7,
      "hand": "right"
    },
    {
      "midi": 73,
      "time": 26.063,
      "duration": 0.188,
      "velocity": 0.62,
      "hand": "right"
    },
    {
      "midi": 81,
      "time": 26.063,
      "duration": 0.188,
      "velocity": 0.76,
      "hand": "right"
    },
    {
      "midi": 49,
      "time": 26.25,
      "duration": 0.563,
      "velocity": 0.56,
      "hand": "left"
    },
    {
      "midi": 57,
      "time": 26.25,
      "duration": 0.188,
      "velocity": 0.36,
      "hand": "left"
    },
    {
      "midi": 61,
      "time": 26.25,
      "duration": 0.188,
      "velocity": 0.46,
      "hand": "right"
    },
    {
      "midi": 80,
      "time": 26.25,
      "duration": 0.188,
      "velocity": 0.75,
      "hand": "right"
    },
    {
      "midi": 73,
      "time": 26.438,
      "duration": 0.36,
      "velocity": 0.7,
      "hand": "right"
    },
    {
      "midi": 81,
      "time": 26.438,
      "duration": 0.172,
      "velocity": 0.78,
      "hand": "right"
    },
    {
      "midi": 54,
      "time": 26.625,
      "duration": 0.094,
      "velocity": 0.79,
      "hand": "left"
    },
    {
      "midi": 57,
      "time": 26.625,
      "duration": 0.188,
      "velocity": 0.43,
      "hand": "left"
    },
    {
      "midi": 61,
      "time": 26.625,
      "duration": 0.188,
      "velocity": 0.57,
      "hand": "right"
    },
    {
      "midi": 64,
      "time": 26.625,
      "duration": 0.188,
      "velocity": 0.59,
      "hand": "right"
    },
    {
      "midi": 81,
      "time": 26.625,
      "duration": 0.188,
      "velocity": 0.8,
      "hand": "right"
    },
    {
      "midi": 52,
      "time": 26.813,
      "duration": 0.375,
      "velocity": 0.76,
      "hand": "left"
    },
    {
      "midi": 73,
      "time": 26.813,
      "duration": 0.188,
      "velocity": 0.78,
      "hand": "right"
    },
    {
      "midi": 76,
      "time": 26.813,
      "duration": 0.188,
      "velocity": 0.78,
      "hand": "right"
    },
    {
      "midi": 80,
      "time": 26.813,
      "duration": 0.094,
      "velocity": 0.7,
      "hand": "right"
    },
    {
      "midi": 82,
      "time": 26.813,
      "duration": 0.094,
      "velocity": 0.69,
      "hand": "right"
    },
    {
      "midi": 69,
      "time": 27,
      "duration": 0.188,
      "velocity": 0.81,
      "hand": "right"
    },
    {
      "midi": 80,
      "time": 27,
      "duration": 0.094,
      "velocity": 0.63,
      "hand": "right"
    },
    {
      "midi": 82,
      "time": 27,
      "duration": 0.094,
      "velocity": 0.65,
      "hand": "right"
    },
    {
      "midi": 57,
      "time": 27.188,
      "duration": 0.188,
      "velocity": 0.42,
      "hand": "left"
    },
    {
      "midi": 64,
      "time": 27.188,
      "duration": 0.188,
      "velocity": 0.56,
      "hand": "right"
    },
    {
      "midi": 73,
      "time": 27.188,
      "duration": 0.375,
      "velocity": 0.8,
      "hand": "right"
    },
    {
      "midi": 76,
      "time": 27.188,
      "duration": 0.375,
      "velocity": 0.76,
      "hand": "right"
    },
    {
      "midi": 81,
      "time": 27.188,
      "duration": 0.188,
      "velocity": 0.78,
      "hand": "right"
    },
    {
      "midi": 40,
      "time": 27.375,
      "duration": 0.563,
      "velocity": 0.72,
      "hand": "left"
    },
    {
      "midi": 71,
      "time": 27.563,
      "duration": 0.094,
      "velocity": 0.69,
      "hand": "right"
    },
    {
      "midi": 75,
      "time": 27.563,
      "duration": 0.375,
      "velocity": 0.67,
      "hand": "right"
    },
    {
      "midi": 80,
      "time": 27.563,
      "duration": 0.172,
      "velocity": 0.72,
      "hand": "right"
    },
    {
      "midi": 83,
      "time": 27.563,
      "duration": 0.188,
      "velocity": 0.81,
      "hand": "right"
    },
    {
      "midi": 44,
      "time": 27.75,
      "duration": 0.563,
      "velocity": 0.67,
      "hand": "left"
    },
    {
      "midi": 59,
      "time": 27.75,
      "duration": 0.188,
      "velocity": 0.43,
      "hand": "left"
    },
    {
      "midi": 64,
      "time": 27.75,
      "duration": 0.188,
      "velocity": 0.65,
      "hand": "right"
    },
    {
      "midi": 68,
      "time": 27.75,
      "duration": 0.188,
      "velocity": 0.47,
      "hand": "right"
    },
    {
      "midi": 80,
      "time": 27.75,
      "duration": 0.173,
      "velocity": 0.71,
      "hand": "right"
    },
    {
      "midi": 54,
      "time": 27.938,
      "duration": 0.094,
      "velocity": 0.85,
      "hand": "left"
    },
    {
      "midi": 71,
      "time": 27.938,
      "duration": 0.36,
      "velocity": 0.54,
      "hand": "right"
    },
    {
      "midi": 81,
      "time": 27.938,
      "duration": 0.188,
      "velocity": 0.75,
      "hand": "right"
    },
    {
      "midi": 83,
      "time": 27.938,
      "duration": 0.36,
      "velocity": 0.62,
      "hand": "right"
    },
    {
      "midi": 59,
      "time": 28.125,
      "duration": 0.188,
      "velocity": 0.46,
      "hand": "left"
    },
    {
      "midi": 64,
      "time": 28.125,
      "duration": 0.173,
      "velocity": 0.59,
      "hand": "right"
    },
    {
      "midi": 68,
      "time": 28.125,
      "duration": 0.173,
      "velocity": 0.3,
      "hand": "right"
    },
    {
      "midi": 47,
      "time": 28.313,
      "duration": 0.36,
      "velocity": 0.75,
      "hand": "left"
    },
    {
      "midi": 75,
      "time": 28.313,
      "duration": 0.188,
      "velocity": 0.69,
      "hand": "right"
    },
    {
      "midi": 80,
      "time": 28.313,
      "duration": 0.094,
      "velocity": 0.73,
      "hand": "right"
    },
    {
      "midi": 83,
      "time": 28.313,
      "duration": 0.188,
      "velocity": 0.81,
      "hand": "right"
    },
    {
      "midi": 59,
      "time": 28.5,
      "duration": 0.188,
      "velocity": 0.38,
      "hand": "left"
    },
    {
      "midi": 64,
      "time": 28.5,
      "duration": 0.188,
      "velocity": 0.69,
      "hand": "right"
    },
    {
      "midi": 68,
      "time": 28.5,
      "duration": 0.188,
      "velocity": 0.48,
      "hand": "right"
    },
    {
      "midi": 80,
      "time": 28.5,
      "duration": 0.094,
      "velocity": 0.66,
      "hand": "right"
    },
    {
      "midi": 82,
      "time": 28.5,
      "duration": 0.094,
      "velocity": 0.39,
      "hand": "right"
    },
    {
      "midi": 47,
      "time": 28.688,
      "duration": 0.563,
      "velocity": 0.67,
      "hand": "left"
    },
    {
      "midi": 75,
      "time": 28.688,
      "duration": 0.375,
      "velocity": 0.71,
      "hand": "right"
    },
    {
      "midi": 81,
      "time": 28.688,
      "duration": 0.188,
      "velocity": 0.81,
      "hand": "right"
    },
    {
      "midi": 83,
      "time": 28.688,
      "duration": 0.375,
      "velocity": 0.81,
      "hand": "right"
    },
    {
      "midi": 59,
      "time": 29.063,
      "duration": 0.188,
      "velocity": 0.53,
      "hand": "left"
    },
    {
      "midi": 73,
      "time": 29.063,
      "duration": 0.375,
      "velocity": 0.59,
      "hand": "right"
    },
    {
      "midi": 80,
      "time": 29.063,
      "duration": 0.094,
      "velocity": 0.69,
      "hand": "right"
    },
    {
      "midi": 82,
      "time": 29.063,
      "duration": 0.094,
      "velocity": 0.75,
      "hand": "right"
    },
    {
      "midi": 39,
      "time": 29.25,
      "duration": 0.563,
      "velocity": 0.66,
      "hand": "left"
    },
    {
      "midi": 80,
      "time": 29.25,
      "duration": 0.094,
      "velocity": 0.69,
      "hand": "right"
    },
    {
      "midi": 82,
      "time": 29.25,
      "duration": 0.094,
      "velocity": 0.62,
      "hand": "right"
    },
    {
      "midi": 69,
      "time": 29.438,
      "duration": 0.375,
      "velocity": 0.61,
      "hand": "right"
    },
    {
      "midi": 78,
      "time": 29.438,
      "duration": 0.375,
      "velocity": 0.89,
      "hand": "right"
    },
    {
      "midi": 81,
      "time": 29.438,
      "duration": 0.36,
      "velocity": 0.76,
      "hand": "right"
    },
    {
      "midi": 59,
      "time": 29.625,
      "duration": 0.094,
      "velocity": 0.33,
      "hand": "left"
    },
    {
      "midi": 63,
      "time": 29.625,
      "duration": 0.173,
      "velocity": 0.57,
      "hand": "right"
    },
    {
      "midi": 66,
      "time": 29.625,
      "duration": 0.173,
      "velocity": 0.57,
      "hand": "right"
    },
    {
      "midi": 42,
      "time": 29.813,
      "duration": 0.375,
      "velocity": 0.67,
      "hand": "left"
    },
    {
      "midi": 54,
      "time": 29.813,
      "duration": 0.094,
      "velocity": 0.83,
      "hand": "left"
    },
    {
      "midi": 73,
      "time": 29.813,
      "duration": 0.188,
      "velocity": 0.72,
      "hand": "right"
    },
    {
      "midi": 80,
      "time": 29.813,
      "duration": 0.094,
      "velocity": 0.7,
      "hand": "right"
    },
    {
      "midi": 82,
      "time": 29.813,
      "duration": 0.094,
      "velocity": 0.76,
      "hand": "right"
    },
    {
      "midi": 59,
      "time": 30,
      "duration": 0.188,
      "velocity": 0.37,
      "hand": "left"
    },
    {
      "midi": 63,
      "time": 30,
      "duration": 0.188,
      "velocity": 0.57,
      "hand": "right"
    },
    {
      "midi": 66,
      "time": 30,
      "duration": 0.188,
      "velocity": 0.59,
      "hand": "right"
    },
    {
      "midi": 80,
      "time": 30,
      "duration": 0.188,
      "velocity": 0.7,
      "hand": "right"
    },
    {
      "midi": 82,
      "time": 30,
      "duration": 0.094,
      "velocity": 0.61,
      "hand": "right"
    },
    {
      "midi": 40,
      "time": 30.188,
      "duration": 0.563,
      "velocity": 0.56,
      "hand": "left"
    },
    {
      "midi": 73,
      "time": 30.188,
      "duration": 0.375,
      "velocity": 0.76,
      "hand": "right"
    },
    {
      "midi": 81,
      "time": 30.188,
      "duration": 0.375,
      "velocity": 0.78,
      "hand": "right"
    },
    {
      "midi": 71,
      "time": 30.563,
      "duration": 0.735,
      "velocity": 0.59,
      "hand": "right"
    },
    {
      "midi": 80,
      "time": 30.563,
      "duration": 0.36,
      "velocity": 0.72,
      "hand": "right"
    },
    {
      "midi": 83,
      "time": 30.563,
      "duration": 0.938,
      "velocity": 0.53,
      "hand": "right"
    },
    {
      "midi": 59,
      "time": 30.75,
      "duration": 0.094,
      "velocity": 0.27,
      "hand": "left"
    },
    {
      "midi": 64,
      "time": 30.75,
      "duration": 0.188,
      "velocity": 0.64,
      "hand": "right"
    },
    {
      "midi": 68,
      "time": 30.75,
      "duration": 0.188,
      "velocity": 0.47,
      "hand": "right"
    },
    {
      "midi": 82,
      "time": 30.75,
      "duration": 0.094,
      "velocity": 0.65,
      "hand": "right"
    },
    {
      "midi": 44,
      "time": 30.938,
      "duration": 0.563,
      "velocity": 0.5,
      "hand": "left"
    },
    {
      "midi": 80,
      "time": 30.938,
      "duration": 0.094,
      "velocity": 0.58,
      "hand": "right"
    },
    {
      "midi": 68,
      "time": 31.125,
      "duration": 0.173,
      "velocity": 0.44,
      "hand": "right"
    },
    {
      "midi": 81,
      "time": 31.125,
      "duration": 0.188,
      "velocity": 0.67,
      "hand": "right"
    },
    {
      "midi": 54,
      "time": 31.313,
      "duration": 0.188,
      "velocity": 0.8,
      "hand": "left"
    },
    {
      "midi": 59,
      "time": 31.313,
      "duration": 0.188,
      "velocity": 0.37,
      "hand": "left"
    },
    {
      "midi": 64,
      "time": 31.313,
      "duration": 0.188,
      "velocity": 0.59,
      "hand": "right"
    },
    {
      "midi": 68,
      "time": 31.313,
      "duration": 0.094,
      "velocity": 0.55,
      "hand": "right"
    },
    {
      "midi": 71,
      "time": 31.313,
      "duration": 0.094,
      "velocity": 0.51,
      "hand": "right"
    },
    {
      "midi": 47,
      "time": 31.5,
      "duration": 0.375,
      "velocity": 0.61,
      "hand": "left"
    },
    {
      "midi": 80,
      "time": 31.5,
      "duration": 0.188,
      "velocity": 0.72,
      "hand": "right"
    },
    {
      "midi": 59,
      "time": 31.688,
      "duration": 0.094,
      "velocity": 0.13,
      "hand": "left"
    },
    {
      "midi": 64,
      "time": 31.688,
      "duration": 0.094,
      "velocity": 0.49,
      "hand": "right"
    },
    {
      "midi": 68,
      "time": 31.688,
      "duration": 0.188,
      "velocity": 0.35,
      "hand": "right"
    },
    {
      "midi": 38,
      "time": 31.875,
      "duration": 0.188,
      "velocity": 0.56,
      "hand": "left"
    },
    {
      "midi": 40,
      "time": 31.875,
      "duration": 1.313,
      "velocity": 0.73,
      "hand": "left"
    },
    {
      "midi": 81,
      "time": 31.875,
      "duration": 0.188,
      "velocity": 0.75,
      "hand": "right"
    },
    {
      "midi": 59,
      "time": 32.25,
      "duration": 0.094,
      "velocity": 0.24,
      "hand": "left"
    },
    {
      "midi": 68,
      "time": 32.25,
      "duration": 0.173,
      "velocity": 0.5,
      "hand": "right"
    },
    {
      "midi": 71,
      "time": 32.25,
      "duration": 0.094,
      "velocity": 0.4,
      "hand": "right"
    },
    {
      "midi": 80,
      "time": 32.25,
      "duration": 0.094,
      "velocity": 0.73,
      "hand": "right"
    },
    {
      "midi": 82,
      "time": 32.25,
      "duration": 0.094,
      "velocity": 0.76,
      "hand": "right"
    },
    {
      "midi": 59,
      "time": 32.438,
      "duration": 0.094,
      "velocity": 0.45,
      "hand": "left"
    },
    {
      "midi": 64,
      "time": 32.438,
      "duration": 0.094,
      "velocity": 0.62,
      "hand": "right"
    },
    {
      "midi": 68,
      "time": 32.438,
      "duration": 0.094,
      "velocity": 0.08,
      "hand": "right"
    },
    {
      "midi": 80,
      "time": 32.438,
      "duration": 0.188,
      "velocity": 0.57,
      "hand": "right"
    },
    {
      "midi": 82,
      "time": 32.438,
      "duration": 0.094,
      "velocity": 0.58,
      "hand": "right"
    },
    {
      "midi": 47,
      "time": 32.625,
      "duration": 0.563,
      "velocity": 0.8,
      "hand": "left"
    },
    {
      "midi": 81,
      "time": 32.625,
      "duration": 0.188,
      "velocity": 0.73,
      "hand": "right"
    },
    {
      "midi": 78,
      "time": 32.813,
      "duration": 0.563,
      "velocity": 0.84,
      "hand": "right"
    },
    {
      "midi": 54,
      "time": 33,
      "duration": 0.188,
      "velocity": 0.74,
      "hand": "left"
    },
    {
      "midi": 69,
      "time": 33,
      "duration": 0.375,
      "velocity": 0.67,
      "hand": "right"
    },
    {
      "midi": 71,
      "time": 33,
      "duration": 0.094,
      "velocity": 0.5,
      "hand": "right"
    },
    {
      "midi": 80,
      "time": 33,
      "duration": 0.094,
      "velocity": 0.67,
      "hand": "right"
    },
    {
      "midi": 61,
      "time": 33.188,
      "duration": 0.094,
      "velocity": 0.46,
      "hand": "right"
    },
    {
      "midi": 64,
      "time": 33.188,
      "duration": 0.188,
      "velocity": 0.59,
      "hand": "right"
    },
    {
      "midi": 80,
      "time": 33.188,
      "duration": 0.188,
      "velocity": 0.74,
      "hand": "right"
    },
    {
      "midi": 40,
      "time": 33.375,
      "duration": 0.375,
      "velocity": 0.84,
      "hand": "left"
    },
    {
      "midi": 76,
      "time": 33.375,
      "duration": 2.625,
      "velocity": 0.65,
      "hand": "right"
    },
    {
      "midi": 81,
      "time": 33.375,
      "duration": 0.188,
      "velocity": 0.8,
      "hand": "right"
    },
    {
      "midi": 64,
      "time": 33.563,
      "duration": 0.172,
      "velocity": 0.67,
      "hand": "right"
    },
    {
      "midi": 59,
      "time": 33.75,
      "duration": 0.094,
      "velocity": 0.28,
      "hand": "left"
    },
    {
      "midi": 64,
      "time": 33.75,
      "duration": 0.094,
      "velocity": 0.67,
      "hand": "right"
    },
    {
      "midi": 66,
      "time": 33.75,
      "duration": 0.188,
      "velocity": 0.52,
      "hand": "right"
    },
    {
      "midi": 68,
      "time": 33.75,
      "duration": 0.173,
      "velocity": 0.61,
      "hand": "right"
    },
    {
      "midi": 80,
      "time": 33.75,
      "duration": 0.094,
      "velocity": 0.76,
      "hand": "right"
    },
    {
      "midi": 40,
      "time": 33.938,
      "duration": 0.75,
      "velocity": 0.76,
      "hand": "left"
    },
    {
      "midi": 68,
      "time": 33.938,
      "duration": 0.172,
      "velocity": 0.54,
      "hand": "right"
    },
    {
      "midi": 80,
      "time": 33.938,
      "duration": 0.094,
      "velocity": 0.75,
      "hand": "right"
    },
    {
      "midi": 68,
      "time": 34.125,
      "duration": 0.173,
      "velocity": 0.8,
      "hand": "right"
    },
    {
      "midi": 71,
      "time": 34.125,
      "duration": 0.36,
      "velocity": 0.59,
      "hand": "right"
    },
    {
      "midi": 59,
      "time": 34.313,
      "duration": 0.094,
      "velocity": 0.34,
      "hand": "left"
    },
    {
      "midi": 64,
      "time": 34.313,
      "duration": 0.188,
      "velocity": 0.81,
      "hand": "right"
    },
    {
      "midi": 68,
      "time": 34.313,
      "duration": 0.188,
      "velocity": 0.72,
      "hand": "right"
    },
    {
      "midi": 54,
      "time": 34.5,
      "duration": 0.188,
      "velocity": 0.82,
      "hand": "left"
    },
    {
      "midi": 59,
      "time": 34.5,
      "duration": 0.188,
      "velocity": 0.59,
      "hand": "left"
    },
    {
      "midi": 71,
      "time": 34.5,
      "duration": 0.188,
      "velocity": 0.86,
      "hand": "right"
    },
    {
      "midi": 80,
      "time": 34.5,
      "duration": 0.094,
      "velocity": 0.83,
      "hand": "right"
    },
    {
      "midi": 64,
      "time": 34.688,
      "duration": 0.188,
      "velocity": 0.8,
      "hand": "right"
    },
    {
      "midi": 80,
      "time": 34.688,
      "duration": 0.188,
      "velocity": 0.67,
      "hand": "right"
    },
    {
      "midi": 40,
      "time": 34.875,
      "duration": 1.313,
      "velocity": 0.84,
      "hand": "left"
    },
    {
      "midi": 71,
      "time": 34.875,
      "duration": 0.375,
      "velocity": 0.84,
      "hand": "right"
    },
    {
      "midi": 81,
      "time": 34.875,
      "duration": 0.188,
      "velocity": 0.83,
      "hand": "right"
    },
    {
      "midi": 59,
      "time": 35.25,
      "duration": 0.094,
      "velocity": 0.5,
      "hand": "left"
    },
    {
      "midi": 64,
      "time": 35.25,
      "duration": 0.188,
      "velocity": 0.87,
      "hand": "right"
    },
    {
      "midi": 69,
      "time": 35.25,
      "duration": 0.188,
      "velocity": 0.89,
      "hand": "right"
    },
    {
      "midi": 80,
      "time": 35.25,
      "duration": 0.094,
      "velocity": 0.65,
      "hand": "right"
    },
    {
      "midi": 59,
      "time": 35.438,
      "duration": 0.188,
      "velocity": 0.53,
      "hand": "left"
    },
    {
      "midi": 80,
      "time": 35.438,
      "duration": 0.188,
      "velocity": 0.63,
      "hand": "right"
    },
    {
      "midi": 47,
      "time": 35.625,
      "duration": 0.563,
      "velocity": 0.8,
      "hand": "left"
    },
    {
      "midi": 69,
      "time": 35.625,
      "duration": 0.36,
      "velocity": 0.92,
      "hand": "right"
    },
    {
      "midi": 75,
      "time": 35.813,
      "duration": 0.563,
      "velocity": 0.87,
      "hand": "right"
    },
    {
      "midi": 64,
      "time": 36,
      "duration": 0.188,
      "velocity": 0.78,
      "hand": "right"
    },
    {
      "midi": 69,
      "time": 36,
      "duration": 0.188,
      "velocity": 0.7,
      "hand": "right"
    },
    {
      "midi": 73,
      "time": 36,
      "duration": 0.188,
      "velocity": 0.91,
      "hand": "right"
    },
    {
      "midi": 80,
      "time": 36,
      "duration": 0.094,
      "velocity": 0.74,
      "hand": "right"
    },
    {
      "midi": 61,
      "time": 36.188,
      "duration": 0.188,
      "velocity": 0.67,
      "hand": "right"
    },
    {
      "midi": 80,
      "time": 36.188,
      "duration": 0.188,
      "velocity": 0.7,
      "hand": "right"
    },
    {
      "midi": 40,
      "time": 36.375,
      "duration": 0.375,
      "velocity": 0.84,
      "hand": "left"
    },
    {
      "midi": 74,
      "time": 36.375,
      "duration": 2.438,
      "velocity": 0.76,
      "hand": "right"
    },
    {
      "midi": 81,
      "time": 36.375,
      "duration": 0.188,
      "velocity": 0.8,
      "hand": "right"
    },
    {
      "midi": 64,
      "time": 36.563,
      "duration": 0.172,
      "velocity": 0.61,
      "hand": "right"
    },
    {
      "midi": 54,
      "time": 36.75,
      "duration": 0.094,
      "velocity": 0.71,
      "hand": "left"
    },
    {
      "midi": 59,
      "time": 36.75,
      "duration": 0.094,
      "velocity": 0.49,
      "hand": "left"
    },
    {
      "midi": 64,
      "time": 36.75,
      "duration": 0.094,
      "velocity": 0.73,
      "hand": "right"
    },
    {
      "midi": 66,
      "time": 36.75,
      "duration": 0.188,
      "velocity": 0.59,
      "hand": "right"
    },
    {
      "midi": 68,
      "time": 36.75,
      "duration": 0.173,
      "velocity": 0.69,
      "hand": "right"
    },
    {
      "midi": 71,
      "time": 36.75,
      "duration": 0.375,
      "velocity": 0.86,
      "hand": "right"
    },
    {
      "midi": 40,
      "time": 36.938,
      "duration": 2.25,
      "velocity": 0.8,
      "hand": "left"
    },
    {
      "midi": 68,
      "time": 36.938,
      "duration": 0.172,
      "velocity": 0.6,
      "hand": "right"
    },
    {
      "midi": 68,
      "time": 37.125,
      "duration": 0.173,
      "velocity": 0.87,
      "hand": "right"
    },
    {
      "midi": 76,
      "time": 37.125,
      "duration": 0.75,
      "velocity": 0.75,
      "hand": "right"
    },
    {
      "midi": 64,
      "time": 37.313,
      "duration": 0.188,
      "velocity": 0.73,
      "hand": "right"
    },
    {
      "midi": 68,
      "time": 37.313,
      "duration": 0.188,
      "velocity": 0.71,
      "hand": "right"
    },
    {
      "midi": 59,
      "time": 37.5,
      "duration": 0.188,
      "velocity": 0.65,
      "hand": "left"
    },
    {
      "midi": 71,
      "time": 37.5,
      "duration": 0.188,
      "velocity": 0.84,
      "hand": "right"
    },
    {
      "midi": 64,
      "time": 37.688,
      "duration": 0.188,
      "velocity": 0.75,
      "hand": "right"
    },
    {
      "midi": 68,
      "time": 37.875,
      "duration": 0.375,
      "velocity": 0.71,
      "hand": "right"
    },
    {
      "midi": 71,
      "time": 37.875,
      "duration": 0.375,
      "velocity": 0.86,
      "hand": "right"
    },
    {
      "midi": 81,
      "time": 37.875,
      "duration": 0.188,
      "velocity": 0.8,
      "hand": "right"
    },
    {
      "midi": 54,
      "time": 38.25,
      "duration": 0.094,
      "velocity": 0.72,
      "hand": "left"
    },
    {
      "midi": 59,
      "time": 38.25,
      "duration": 0.173,
      "velocity": 0.75,
      "hand": "left"
    },
    {
      "midi": 69,
      "time": 38.25,
      "duration": 0.375,
      "velocity": 0.76,
      "hand": "right"
    },
    {
      "midi": 59,
      "time": 38.438,
      "duration": 0.094,
      "velocity": 0.64,
      "hand": "left"
    },
    {
      "midi": 64,
      "time": 38.438,
      "duration": 0.188,
      "velocity": 0.72,
      "hand": "right"
    },
    {
      "midi": 68,
      "time": 38.438,
      "duration": 0.172,
      "velocity": 0.67,
      "hand": "right"
    },
    {
      "midi": 47,
      "time": 38.625,
      "duration": 0.563,
      "velocity": 0.76,
      "hand": "left"
    },
    {
      "midi": 68,
      "time": 38.625,
      "duration": 0.375,
      "velocity": 0.82,
      "hand": "right"
    },
    {
      "midi": 80,
      "time": 38.625,
      "duration": 0.188,
      "velocity": 0.75,
      "hand": "right"
    },
    {
      "midi": 73,
      "time": 38.813,
      "duration": 0.563,
      "velocity": 0.84,
      "hand": "right"
    },
    {
      "midi": 64,
      "time": 39,
      "duration": 0.188,
      "velocity": 0.81,
      "hand": "right"
    },
    {
      "midi": 66,
      "time": 39,
      "duration": 0.375,
      "velocity": 0.84,
      "hand": "right"
    },
    {
      "midi": 69,
      "time": 39,
      "duration": 0.188,
      "velocity": 0.67,
      "hand": "right"
    },
    {
      "midi": 81,
      "time": 39,
      "duration": 0.094,
      "velocity": 0.67,
      "hand": "right"
    },
    {
      "midi": 61,
      "time": 39.188,
      "duration": 0.188,
      "velocity": 0.69,
      "hand": "right"
    },
    {
      "midi": 40,
      "time": 39.375,
      "duration": 1.313,
      "velocity": 0.84,
      "hand": "left"
    },
    {
      "midi": 59,
      "time": 39.375,
      "duration": 0.094,
      "velocity": 0.81,
      "hand": "left"
    },
    {
      "midi": 64,
      "time": 39.375,
      "duration": 0.173,
      "velocity": 0.76,
      "hand": "right"
    },
    {
      "midi": 72,
      "time": 39.375,
      "duration": 1.5,
      "velocity": 0.74,
      "hand": "right"
    },
    {
      "midi": 64,
      "time": 39.563,
      "duration": 0.172,
      "velocity": 0.64,
      "hand": "right"
    },
    {
      "midi": 54,
      "time": 39.75,
      "duration": 0.094,
      "velocity": 0.75,
      "hand": "left"
    },
    {
      "midi": 64,
      "time": 39.75,
      "duration": 0.188,
      "velocity": 0.84,
      "hand": "right"
    },
    {
      "midi": 66,
      "time": 39.75,
      "duration": 0.188,
      "velocity": 0.43,
      "hand": "right"
    },
    {
      "midi": 68,
      "time": 39.75,
      "duration": 0.173,
      "velocity": 0.79,
      "hand": "right"
    },
    {
      "midi": 81,
      "time": 39.75,
      "duration": 0.094,
      "velocity": 0.72,
      "hand": "right"
    },
    {
      "midi": 59,
      "time": 39.938,
      "duration": 0.188,
      "velocity": 0.64,
      "hand": "left"
    },
    {
      "midi": 68,
      "time": 39.938,
      "duration": 0.188,
      "velocity": 0.6,
      "hand": "right"
    },
    {
      "midi": 47,
      "time": 40.125,
      "duration": 0.563,
      "velocity": 0.78,
      "hand": "left"
    },
    {
      "midi": 78,
      "time": 40.125,
      "duration": 0.188,
      "velocity": 0.83,
      "hand": "right"
    },
    {
      "midi": 59,
      "time": 40.313,
      "duration": 0.094,
      "velocity": 0.67,
      "hand": "left"
    },
    {
      "midi": 76,
      "time": 40.313,
      "duration": 0.188,
      "velocity": 0.64,
      "hand": "right"
    },
    {
      "midi": 61,
      "time": 40.5,
      "duration": 0.094,
      "velocity": 0.57,
      "hand": "right"
    },
    {
      "midi": 64,
      "time": 40.5,
      "duration": 0.188,
      "velocity": 0.81,
      "hand": "right"
    },
    {
      "midi": 69,
      "time": 40.5,
      "duration": 0.188,
      "velocity": 0.73,
      "hand": "right"
    },
    {
      "midi": 81,
      "time": 40.5,
      "duration": 0.094,
      "velocity": 0.65,
      "hand": "right"
    },
    {
      "midi": 61,
      "time": 40.688,
      "duration": 0.188,
      "velocity": 0.61,
      "hand": "right"
    },
    {
      "midi": 40,
      "time": 40.875,
      "duration": 1.313,
      "velocity": 0.89,
      "hand": "left"
    },
    {
      "midi": 59,
      "time": 40.875,
      "duration": 0.188,
      "velocity": 0.5,
      "hand": "left"
    },
    {
      "midi": 70,
      "time": 40.875,
      "duration": 1.5,
      "velocity": 0.82,
      "hand": "right"
    },
    {
      "midi": 64,
      "time": 41.063,
      "duration": 0.172,
      "velocity": 0.8,
      "hand": "right"
    },
    {
      "midi": 54,
      "time": 41.25,
      "duration": 0.094,
      "velocity": 0.85,
      "hand": "left"
    },
    {
      "midi": 59,
      "time": 41.25,
      "duration": 0.173,
      "velocity": 0.67,
      "hand": "left"
    },
    {
      "midi": 64,
      "time": 41.25,
      "duration": 0.094,
      "velocity": 0.7,
      "hand": "right"
    },
    {
      "midi": 66,
      "time": 41.25,
      "duration": 0.188,
      "velocity": 0.45,
      "hand": "right"
    },
    {
      "midi": 81,
      "time": 41.25,
      "duration": 0.094,
      "velocity": 0.67,
      "hand": "right"
    },
    {
      "midi": 59,
      "time": 41.438,
      "duration": 0.094,
      "velocity": 0.5,
      "hand": "left"
    },
    {
      "midi": 64,
      "time": 41.438,
      "duration": 0.188,
      "velocity": 0.09,
      "hand": "right"
    },
    {
      "midi": 68,
      "time": 41.438,
      "duration": 0.188,
      "velocity": 0.69,
      "hand": "right"
    },
    {
      "midi": 47,
      "time": 41.625,
      "duration": 0.563,
      "velocity": 0.76,
      "hand": "left"
    },
    {
      "midi": 78,
      "time": 41.625,
      "duration": 0.188,
      "velocity": 0.83,
      "hand": "right"
    },
    {
      "midi": 59,
      "time": 41.813,
      "duration": 0.188,
      "velocity": 0.46,
      "hand": "left"
    },
    {
      "midi": 76,
      "time": 41.813,
      "duration": 0.188,
      "velocity": 0.54,
      "hand": "right"
    },
    {
      "midi": 64,
      "time": 42,
      "duration": 0.094,
      "velocity": 0.7,
      "hand": "right"
    },
    {
      "midi": 69,
      "time": 42,
      "duration": 0.173,
      "velocity": 0.76,
      "hand": "right"
    },
    {
      "midi": 75,
      "time": 42,
      "duration": 0.188,
      "velocity": 0.65,
      "hand": "right"
    },
    {
      "midi": 81,
      "time": 42,
      "duration": 0.094,
      "velocity": 0.53,
      "hand": "right"
    },
    {
      "midi": 64,
      "time": 42.188,
      "duration": 0.188,
      "velocity": 0.7,
      "hand": "right"
    },
    {
      "midi": 69,
      "time": 42.188,
      "duration": 0.094,
      "velocity": 0.69,
      "hand": "right"
    },
    {
      "midi": 78,
      "time": 42.188,
      "duration": 0.188,
      "velocity": 0.83,
      "hand": "right"
    },
    {
      "midi": 38,
      "time": 42.375,
      "duration": 0.188,
      "velocity": 0.7,
      "hand": "left"
    },
    {
      "midi": 40,
      "time": 42.375,
      "duration": 2.25,
      "velocity": 0.81,
      "hand": "left"
    },
    {
      "midi": 71,
      "time": 42.375,
      "duration": 3.188,
      "velocity": 0.53,
      "hand": "right"
    },
    {
      "midi": 76,
      "time": 42.375,
      "duration": 2.813,
      "velocity": 0.46,
      "hand": "right"
    },
    {
      "midi": 59,
      "time": 42.563,
      "duration": 0.094,
      "velocity": 0.56,
      "hand": "left"
    },
    {
      "midi": 47,
      "time": 42.75,
      "duration": 1.875,
      "velocity": 0.64,
      "hand": "left"
    },
    {
      "midi": 54,
      "time": 42.75,
      "duration": 0.094,
      "velocity": 0.75,
      "hand": "left"
    },
    {
      "midi": 64,
      "time": 42.938,
      "duration": 1.875,
      "velocity": 0.76,
      "hand": "right"
    },
    {
      "midi": 68,
      "time": 42.938,
      "duration": 2.063,
      "velocity": 0.65,
      "hand": "right"
    },
    {
      "midi": 69,
      "time": 43.688,
      "duration": 0.094,
      "velocity": 0.51,
      "hand": "right"
    },
    {
      "midi": 59,
      "time": 43.875,
      "duration": 0.094,
      "velocity": 0.38,
      "hand": "left"
    },
    {
      "midi": 69,
      "time": 43.875,
      "duration": 0.094,
      "velocity": 0.49,
      "hand": "right"
    },
    {
      "midi": 59,
      "time": 44.25,
      "duration": 0.094,
      "velocity": 0.61,
      "hand": "left"
    },
    {
      "midi": 69,
      "time": 45.188,
      "duration": 0.094,
      "velocity": 0.46,
      "hand": "right"
    },
    {
      "midi": 69,
      "time": 45.375,
      "duration": 0.094,
      "velocity": 0.2,
      "hand": "right"
    }
  ],
  "arrangements": {
    "easy": [
      {
        "midi": 66,
        "time": 0,
        "duration": 0.45,
        "velocity": 0.69,
        "hand": "right"
      },
      {
        "midi": 68,
        "time": 0.75,
        "duration": 0.45,
        "velocity": 0.65,
        "hand": "right"
      },
      {
        "midi": 83,
        "time": 1.5,
        "duration": 0.45,
        "velocity": 0.65,
        "hand": "right"
      },
      {
        "midi": 81,
        "time": 2.25,
        "duration": 0.45,
        "velocity": 0.67,
        "hand": "right"
      },
      {
        "midi": 80,
        "time": 3,
        "duration": 0.45,
        "velocity": 0.57,
        "hand": "right"
      },
      {
        "midi": 83,
        "time": 3.75,
        "duration": 0.45,
        "velocity": 0.7,
        "hand": "right"
      },
      {
        "midi": 83,
        "time": 4.5,
        "duration": 0.45,
        "velocity": 0.7,
        "hand": "right"
      },
      {
        "midi": 81,
        "time": 5.25,
        "duration": 0.45,
        "velocity": 0.67,
        "hand": "right"
      },
      {
        "midi": 81,
        "time": 6,
        "duration": 0.45,
        "velocity": 0.7,
        "hand": "right"
      },
      {
        "midi": 82,
        "time": 6.75,
        "duration": 0.45,
        "velocity": 0.83,
        "hand": "right"
      },
      {
        "midi": 83,
        "time": 7.5,
        "duration": 0.45,
        "velocity": 0.75,
        "hand": "right"
      },
      {
        "midi": 80,
        "time": 8.25,
        "duration": 0.45,
        "velocity": 0.74,
        "hand": "right"
      },
      {
        "midi": 80,
        "time": 9,
        "duration": 0.45,
        "velocity": 0.72,
        "hand": "right"
      },
      {
        "midi": 80,
        "time": 9.75,
        "duration": 0.45,
        "velocity": 0.69,
        "hand": "right"
      },
      {
        "midi": 83,
        "time": 10.688,
        "duration": 0.45,
        "velocity": 0.8,
        "hand": "right"
      },
      {
        "midi": 81,
        "time": 11.438,
        "duration": 0.45,
        "velocity": 0.84,
        "hand": "right"
      },
      {
        "midi": 81,
        "time": 12.188,
        "duration": 0.45,
        "velocity": 0.76,
        "hand": "right"
      },
      {
        "midi": 80,
        "time": 12.938,
        "duration": 0.45,
        "velocity": 0.69,
        "hand": "right"
      },
      {
        "midi": 80,
        "time": 13.688,
        "duration": 0.45,
        "velocity": 0.65,
        "hand": "right"
      },
      {
        "midi": 80,
        "time": 14.438,
        "duration": 0.45,
        "velocity": 0.69,
        "hand": "right"
      },
      {
        "midi": 82,
        "time": 15.188,
        "duration": 0.45,
        "velocity": 0.48,
        "hand": "right"
      },
      {
        "midi": 80,
        "time": 15.938,
        "duration": 0.45,
        "velocity": 0.67,
        "hand": "right"
      },
      {
        "midi": 80,
        "time": 16.688,
        "duration": 0.45,
        "velocity": 0.66,
        "hand": "right"
      },
      {
        "midi": 80,
        "time": 17.438,
        "duration": 0.45,
        "velocity": 0.69,
        "hand": "right"
      },
      {
        "midi": 82,
        "time": 18.188,
        "duration": 0.45,
        "velocity": 0.57,
        "hand": "right"
      },
      {
        "midi": 80,
        "time": 18.938,
        "duration": 0.45,
        "velocity": 0.69,
        "hand": "right"
      },
      {
        "midi": 82,
        "time": 19.688,
        "duration": 0.45,
        "velocity": 0.6,
        "hand": "right"
      },
      {
        "midi": 80,
        "time": 20.438,
        "duration": 0.45,
        "velocity": 0.69,
        "hand": "right"
      },
      {
        "midi": 82,
        "time": 21.188,
        "duration": 0.45,
        "velocity": 0.61,
        "hand": "right"
      },
      {
        "midi": 80,
        "time": 21.938,
        "duration": 0.45,
        "velocity": 0.8,
        "hand": "right"
      },
      {
        "midi": 83,
        "time": 22.688,
        "duration": 0.45,
        "velocity": 0.8,
        "hand": "right"
      },
      {
        "midi": 80,
        "time": 23.438,
        "duration": 0.45,
        "velocity": 0.72,
        "hand": "right"
      },
      {
        "midi": 82,
        "time": 24.188,
        "duration": 0.45,
        "velocity": 0.57,
        "hand": "right"
      },
      {
        "midi": 83,
        "time": 24.938,
        "duration": 0.45,
        "velocity": 0.67,
        "hand": "right"
      },
      {
        "midi": 83,
        "time": 25.688,
        "duration": 0.45,
        "velocity": 0.81,
        "hand": "right"
      },
      {
        "midi": 81,
        "time": 26.438,
        "duration": 0.45,
        "velocity": 0.78,
        "hand": "right"
      },
      {
        "midi": 81,
        "time": 27.188,
        "duration": 0.45,
        "velocity": 0.78,
        "hand": "right"
      },
      {
        "midi": 83,
        "time": 27.938,
        "duration": 0.45,
        "velocity": 0.62,
        "hand": "right"
      },
      {
        "midi": 83,
        "time": 28.688,
        "duration": 0.45,
        "velocity": 0.81,
        "hand": "right"
      },
      {
        "midi": 81,
        "time": 29.438,
        "duration": 0.45,
        "velocity": 0.76,
        "hand": "right"
      },
      {
        "midi": 81,
        "time": 30.188,
        "duration": 0.45,
        "velocity": 0.78,
        "hand": "right"
      },
      {
        "midi": 80,
        "time": 30.938,
        "duration": 0.45,
        "velocity": 0.58,
        "hand": "right"
      },
      {
        "midi": 68,
        "time": 31.688,
        "duration": 0.45,
        "velocity": 0.35,
        "hand": "right"
      },
      {
        "midi": 82,
        "time": 32.438,
        "duration": 0.45,
        "velocity": 0.58,
        "hand": "right"
      },
      {
        "midi": 80,
        "time": 33.188,
        "duration": 0.45,
        "velocity": 0.74,
        "hand": "right"
      },
      {
        "midi": 80,
        "time": 33.938,
        "duration": 0.45,
        "velocity": 0.75,
        "hand": "right"
      },
      {
        "midi": 80,
        "time": 34.688,
        "duration": 0.45,
        "velocity": 0.67,
        "hand": "right"
      },
      {
        "midi": 80,
        "time": 35.438,
        "duration": 0.45,
        "velocity": 0.63,
        "hand": "right"
      },
      {
        "midi": 80,
        "time": 36.188,
        "duration": 0.45,
        "velocity": 0.7,
        "hand": "right"
      },
      {
        "midi": 68,
        "time": 36.938,
        "duration": 0.45,
        "velocity": 0.6,
        "hand": "right"
      },
      {
        "midi": 64,
        "time": 37.688,
        "duration": 0.45,
        "velocity": 0.75,
        "hand": "right"
      },
      {
        "midi": 68,
        "time": 38.438,
        "duration": 0.45,
        "velocity": 0.67,
        "hand": "right"
      },
      {
        "midi": 61,
        "time": 39.188,
        "duration": 0.45,
        "velocity": 0.69,
        "hand": "right"
      },
      {
        "midi": 68,
        "time": 39.938,
        "duration": 0.45,
        "velocity": 0.6,
        "hand": "right"
      },
      {
        "midi": 61,
        "time": 40.688,
        "duration": 0.45,
        "velocity": 0.61,
        "hand": "right"
      },
      {
        "midi": 68,
        "time": 41.438,
        "duration": 0.45,
        "velocity": 0.69,
        "hand": "right"
      },
      {
        "midi": 78,
        "time": 42.188,
        "duration": 0.45,
        "velocity": 0.83,
        "hand": "right"
      },
      {
        "midi": 68,
        "time": 42.938,
        "duration": 2.063,
        "velocity": 0.65,
        "hand": "right"
      },
      {
        "midi": 69,
        "time": 43.688,
        "duration": 0.45,
        "velocity": 0.51,
        "hand": "right"
      },
      {
        "midi": 69,
        "time": 45.188,
        "duration": 0.45,
        "velocity": 0.46,
        "hand": "right"
      }
    ],
    "medium": [
      {
        "midi": 54,
        "time": 0,
        "duration": 0.262,
        "velocity": 0.69,
        "hand": "left"
      },
      {
        "midi": 59,
        "time": 0.75,
        "duration": 0.262,
        "velocity": 0.26,
        "hand": "left"
      },
      {
        "midi": 68,
        "time": 0.75,
        "duration": 0.262,
        "velocity": 0.65,
        "hand": "right"
      },
      {
        "midi": 83,
        "time": 1.5,
        "duration": 0.262,
        "velocity": 0.65,
        "hand": "right"
      },
      {
        "midi": 81,
        "time": 2.25,
        "duration": 0.262,
        "velocity": 0.67,
        "hand": "right"
      },
      {
        "midi": 80,
        "time": 3,
        "duration": 0.262,
        "velocity": 0.57,
        "hand": "right"
      },
      {
        "midi": 83,
        "time": 3.75,
        "duration": 0.262,
        "velocity": 0.7,
        "hand": "right"
      },
      {
        "midi": 83,
        "time": 4.5,
        "duration": 0.262,
        "velocity": 0.7,
        "hand": "right"
      },
      {
        "midi": 81,
        "time": 5.25,
        "duration": 0.36,
        "velocity": 0.67,
        "hand": "right"
      },
      {
        "midi": 81,
        "time": 6,
        "duration": 0.262,
        "velocity": 0.7,
        "hand": "right"
      },
      {
        "midi": 82,
        "time": 6.75,
        "duration": 0.262,
        "velocity": 0.83,
        "hand": "right"
      },
      {
        "midi": 83,
        "time": 7.5,
        "duration": 0.262,
        "velocity": 0.75,
        "hand": "right"
      },
      {
        "midi": 80,
        "time": 8.25,
        "duration": 0.262,
        "velocity": 0.74,
        "hand": "right"
      },
      {
        "midi": 80,
        "time": 9,
        "duration": 0.262,
        "velocity": 0.72,
        "hand": "right"
      },
      {
        "midi": 80,
        "time": 9.75,
        "duration": 0.262,
        "velocity": 0.69,
        "hand": "right"
      },
      {
        "midi": 83,
        "time": 10.688,
        "duration": 0.375,
        "velocity": 0.8,
        "hand": "right"
      },
      {
        "midi": 81,
        "time": 11.438,
        "duration": 0.262,
        "velocity": 0.84,
        "hand": "right"
      },
      {
        "midi": 81,
        "time": 12.188,
        "duration": 0.262,
        "velocity": 0.76,
        "hand": "right"
      },
      {
        "midi": 80,
        "time": 12.938,
        "duration": 0.262,
        "velocity": 0.69,
        "hand": "right"
      },
      {
        "midi": 80,
        "time": 13.688,
        "duration": 0.262,
        "velocity": 0.65,
        "hand": "right"
      },
      {
        "midi": 80,
        "time": 14.438,
        "duration": 0.262,
        "velocity": 0.69,
        "hand": "right"
      },
      {
        "midi": 82,
        "time": 15.188,
        "duration": 0.262,
        "velocity": 0.48,
        "hand": "right"
      },
      {
        "midi": 80,
        "time": 15.938,
        "duration": 0.262,
        "velocity": 0.67,
        "hand": "right"
      },
      {
        "midi": 80,
        "time": 16.688,
        "duration": 0.262,
        "velocity": 0.66,
        "hand": "right"
      },
      {
        "midi": 80,
        "time": 17.438,
        "duration": 0.262,
        "velocity": 0.69,
        "hand": "right"
      },
      {
        "midi": 82,
        "time": 18.188,
        "duration": 0.262,
        "velocity": 0.57,
        "hand": "right"
      },
      {
        "midi": 80,
        "time": 18.938,
        "duration": 0.262,
        "velocity": 0.69,
        "hand": "right"
      },
      {
        "midi": 82,
        "time": 19.688,
        "duration": 0.262,
        "velocity": 0.6,
        "hand": "right"
      },
      {
        "midi": 80,
        "time": 20.438,
        "duration": 0.262,
        "velocity": 0.69,
        "hand": "right"
      },
      {
        "midi": 82,
        "time": 21.188,
        "duration": 0.262,
        "velocity": 0.61,
        "hand": "right"
      },
      {
        "midi": 80,
        "time": 21.938,
        "duration": 0.375,
        "velocity": 0.8,
        "hand": "right"
      },
      {
        "midi": 83,
        "time": 22.688,
        "duration": 0.375,
        "velocity": 0.8,
        "hand": "right"
      },
      {
        "midi": 80,
        "time": 23.438,
        "duration": 0.262,
        "velocity": 0.72,
        "hand": "right"
      },
      {
        "midi": 82,
        "time": 24.188,
        "duration": 0.262,
        "velocity": 0.57,
        "hand": "right"
      },
      {
        "midi": 83,
        "time": 24.938,
        "duration": 0.36,
        "velocity": 0.67,
        "hand": "right"
      },
      {
        "midi": 83,
        "time": 25.688,
        "duration": 0.375,
        "velocity": 0.81,
        "hand": "right"
      },
      {
        "midi": 73,
        "time": 26.438,
        "duration": 0.36,
        "velocity": 0.7,
        "hand": "right"
      },
      {
        "midi": 81,
        "time": 26.438,
        "duration": 0.262,
        "velocity": 0.78,
        "hand": "right"
      },
      {
        "midi": 81,
        "time": 27.188,
        "duration": 0.262,
        "velocity": 0.78,
        "hand": "right"
      },
      {
        "midi": 83,
        "time": 27.938,
        "duration": 0.36,
        "velocity": 0.62,
        "hand": "right"
      },
      {
        "midi": 83,
        "time": 28.688,
        "duration": 0.375,
        "velocity": 0.81,
        "hand": "right"
      },
      {
        "midi": 69,
        "time": 29.438,
        "duration": 0.375,
        "velocity": 0.61,
        "hand": "right"
      },
      {
        "midi": 81,
        "time": 29.438,
        "duration": 0.36,
        "velocity": 0.76,
        "hand": "right"
      },
      {
        "midi": 81,
        "time": 30.188,
        "duration": 0.375,
        "velocity": 0.78,
        "hand": "right"
      },
      {
        "midi": 80,
        "time": 30.938,
        "duration": 0.262,
        "velocity": 0.58,
        "hand": "right"
      },
      {
        "midi": 59,
        "time": 31.688,
        "duration": 0.262,
        "velocity": 0.13,
        "hand": "left"
      },
      {
        "midi": 68,
        "time": 31.688,
        "duration": 0.262,
        "velocity": 0.35,
        "hand": "right"
      },
      {
        "midi": 82,
        "time": 32.438,
        "duration": 0.262,
        "velocity": 0.58,
        "hand": "right"
      },
      {
        "midi": 80,
        "time": 33.188,
        "duration": 0.262,
        "velocity": 0.74,
        "hand": "right"
      },
      {
        "midi": 80,
        "time": 33.938,
        "duration": 0.262,
        "velocity": 0.75,
        "hand": "right"
      },
      {
        "midi": 64,
        "time": 34.688,
        "duration": 0.262,
        "velocity": 0.8,
        "hand": "right"
      },
      {
        "midi": 80,
        "time": 34.688,
        "duration": 0.262,
        "velocity": 0.67,
        "hand": "right"
      },
      {
        "midi": 80,
        "time": 35.438,
        "duration": 0.262,
        "velocity": 0.63,
        "hand": "right"
      },
      {
        "midi": 80,
        "time": 36.188,
        "duration": 0.262,
        "velocity": 0.7,
        "hand": "right"
      },
      {
        "midi": 52,
        "time": 36.938,
        "duration": 2.25,
        "velocity": 0.8,
        "hand": "left"
      },
      {
        "midi": 68,
        "time": 36.938,
        "duration": 0.262,
        "velocity": 0.6,
        "hand": "right"
      },
      {
        "midi": 64,
        "time": 37.688,
        "duration": 0.262,
        "velocity": 0.75,
        "hand": "right"
      },
      {
        "midi": 59,
        "time": 38.438,
        "duration": 0.262,
        "velocity": 0.64,
        "hand": "left"
      },
      {
        "midi": 68,
        "time": 38.438,
        "duration": 0.262,
        "velocity": 0.67,
        "hand": "right"
      },
      {
        "midi": 61,
        "time": 39.188,
        "duration": 0.262,
        "velocity": 0.69,
        "hand": "right"
      },
      {
        "midi": 59,
        "time": 39.938,
        "duration": 0.262,
        "velocity": 0.64,
        "hand": "left"
      },
      {
        "midi": 68,
        "time": 39.938,
        "duration": 0.262,
        "velocity": 0.6,
        "hand": "right"
      },
      {
        "midi": 61,
        "time": 40.688,
        "duration": 0.262,
        "velocity": 0.61,
        "hand": "right"
      },
      {
        "midi": 59,
        "time": 41.438,
        "duration": 0.262,
        "velocity": 0.5,
        "hand": "left"
      },
      {
        "midi": 68,
        "time": 41.438,
        "duration": 0.262,
        "velocity": 0.69,
        "hand": "right"
      },
      {
        "midi": 64,
        "time": 42.188,
        "duration": 0.262,
        "velocity": 0.7,
        "hand": "right"
      },
      {
        "midi": 78,
        "time": 42.188,
        "duration": 0.262,
        "velocity": 0.83,
        "hand": "right"
      },
      {
        "midi": 64,
        "time": 42.938,
        "duration": 1.875,
        "velocity": 0.76,
        "hand": "right"
      },
      {
        "midi": 68,
        "time": 42.938,
        "duration": 2.063,
        "velocity": 0.65,
        "hand": "right"
      },
      {
        "midi": 69,
        "time": 43.688,
        "duration": 0.262,
        "velocity": 0.51,
        "hand": "right"
      },
      {
        "midi": 69,
        "time": 45.188,
        "duration": 0.262,
        "velocity": 0.46,
        "hand": "right"
      }
    ],
    "hard": [
      {
        "midi": 54,
        "time": 0,
        "duration": 0.094,
        "velocity": 0.69,
        "hand": "left"
      },
      {
        "midi": 40,
        "time": 0.375,
        "duration": 0.375,
        "velocity": 0.67,
        "hand": "left"
      },
      {
        "midi": 59,
        "time": 0.75,
        "duration": 0.094,
        "velocity": 0.26,
        "hand": "left"
      },
      {
        "midi": 64,
        "time": 0.75,
        "duration": 0.094,
        "velocity": 0.76,
        "hand": "right"
      },
      {
        "midi": 68,
        "time": 0.75,
        "duration": 0.188,
        "velocity": 0.65,
        "hand": "right"
      },
      {
        "midi": 40,
        "time": 0.938,
        "duration": 0.75,
        "velocity": 0.73,
        "hand": "left"
      },
      {
        "midi": 80,
        "time": 1.125,
        "duration": 0.375,
        "velocity": 0.74,
        "hand": "right"
      },
      {
        "midi": 59,
        "time": 1.5,
        "duration": 0.188,
        "velocity": 0.43,
        "hand": "left"
      },
      {
        "midi": 64,
        "time": 1.5,
        "duration": 0.375,
        "velocity": 0.76,
        "hand": "right"
      },
      {
        "midi": 68,
        "time": 1.5,
        "duration": 0.375,
        "velocity": 0.75,
        "hand": "right"
      },
      {
        "midi": 83,
        "time": 1.5,
        "duration": 0.188,
        "velocity": 0.65,
        "hand": "right"
      },
      {
        "midi": 47,
        "time": 1.875,
        "duration": 0.375,
        "velocity": 0.72,
        "hand": "left"
      },
      {
        "midi": 81,
        "time": 1.875,
        "duration": 0.188,
        "velocity": 0.76,
        "hand": "right"
      },
      {
        "midi": 83,
        "time": 1.875,
        "duration": 0.375,
        "velocity": 0.7,
        "hand": "right"
      },
      {
        "midi": 59,
        "time": 2.25,
        "duration": 0.094,
        "velocity": 0.27,
        "hand": "left"
      },
      {
        "midi": 63,
        "time": 2.25,
        "duration": 0.188,
        "velocity": 0.54,
        "hand": "right"
      },
      {
        "midi": 66,
        "time": 2.25,
        "duration": 0.188,
        "velocity": 0.54,
        "hand": "right"
      },
      {
        "midi": 81,
        "time": 2.25,
        "duration": 0.188,
        "velocity": 0.67,
        "hand": "right"
      },
      {
        "midi": 51,
        "time": 2.438,
        "duration": 0.563,
        "velocity": 0.63,
        "hand": "left"
      },
      {
        "midi": 80,
        "time": 2.438,
        "duration": 0.188,
        "velocity": 0.6,
        "hand": "right"
      },
      {
        "midi": 54,
        "time": 2.625,
        "duration": 0.094,
        "velocity": 0.76,
        "hand": "left"
      },
      {
        "midi": 81,
        "time": 2.625,
        "duration": 0.173,
        "velocity": 0.62,
        "hand": "right"
      },
      {
        "midi": 63,
        "time": 2.813,
        "duration": 0.188,
        "velocity": 0.57,
        "hand": "right"
      },
      {
        "midi": 66,
        "time": 2.813,
        "duration": 0.188,
        "velocity": 0.53,
        "hand": "right"
      },
      {
        "midi": 81,
        "time": 2.813,
        "duration": 0.094,
        "velocity": 0.75,
        "hand": "right"
      },
      {
        "midi": 54,
        "time": 3,
        "duration": 0.188,
        "velocity": 0.72,
        "hand": "left"
      },
      {
        "midi": 73,
        "time": 3,
        "duration": 0.188,
        "velocity": 0.7,
        "hand": "right"
      },
      {
        "midi": 80,
        "time": 3,
        "duration": 0.094,
        "velocity": 0.57,
        "hand": "right"
      },
      {
        "midi": 63,
        "time": 3.188,
        "duration": 0.188,
        "velocity": 0.5,
        "hand": "right"
      },
      {
        "midi": 66,
        "time": 3.188,
        "duration": 0.188,
        "velocity": 0.51,
        "hand": "right"
      },
      {
        "midi": 80,
        "time": 3.188,
        "duration": 0.188,
        "velocity": 0.54,
        "hand": "right"
      },
      {
        "midi": 40,
        "time": 3.375,
        "duration": 0.563,
        "velocity": 0.76,
        "hand": "left"
      },
      {
        "midi": 73,
        "time": 3.375,
        "duration": 0.375,
        "velocity": 0.73,
        "hand": "right"
      },
      {
        "midi": 81,
        "time": 3.375,
        "duration": 0.094,
        "velocity": 0.73,
        "hand": "right"
      },
      {
        "midi": 59,
        "time": 3.75,
        "duration": 0.094,
        "velocity": 0.25,
        "hand": "left"
      },
      {
        "midi": 64,
        "time": 3.75,
        "duration": 0.094,
        "velocity": 0.67,
        "hand": "right"
      },
      {
        "midi": 68,
        "time": 3.75,
        "duration": 0.188,
        "velocity": 0.57,
        "hand": "right"
      },
      {
        "midi": 80,
        "time": 3.75,
        "duration": 0.094,
        "velocity": 0.6,
        "hand": "right"
      },
      {
        "midi": 83,
        "time": 3.75,
        "duration": 0.188,
        "velocity": 0.7,
        "hand": "right"
      },
      {
        "midi": 44,
        "time": 3.938,
        "duration": 0.563,
        "velocity": 0.69,
        "hand": "left"
      },
      {
        "midi": 80,
        "time": 3.938,
        "duration": 0.172,
        "velocity": 0.61,
        "hand": "right"
      },
      {
        "midi": 54,
        "time": 4.125,
        "duration": 0.094,
        "velocity": 0.82,
        "hand": "left"
      },
      {
        "midi": 81,
        "time": 4.125,
        "duration": 0.188,
        "velocity": 0.7,
        "hand": "right"
      },
      {
        "midi": 64,
        "time": 4.313,
        "duration": 0.094,
        "velocity": 0.51,
        "hand": "right"
      },
      {
        "midi": 68,
        "time": 4.313,
        "duration": 0.188,
        "velocity": 0.51,
        "hand": "right"
      },
      {
        "midi": 47,
        "time": 4.5,
        "duration": 0.36,
        "velocity": 0.73,
        "hand": "left"
      },
      {
        "midi": 80,
        "time": 4.5,
        "duration": 0.094,
        "velocity": 0.65,
        "hand": "right"
      },
      {
        "midi": 83,
        "time": 4.5,
        "duration": 0.188,
        "velocity": 0.7,
        "hand": "right"
      },
      {
        "midi": 59,
        "time": 4.688,
        "duration": 0.094,
        "velocity": 0.16,
        "hand": "left"
      },
      {
        "midi": 64,
        "time": 4.688,
        "duration": 0.188,
        "velocity": 0.47,
        "hand": "right"
      },
      {
        "midi": 68,
        "time": 4.688,
        "duration": 0.188,
        "velocity": 0.38,
        "hand": "right"
      },
      {
        "midi": 80,
        "time": 4.688,
        "duration": 0.188,
        "velocity": 0.61,
        "hand": "right"
      },
      {
        "midi": 47,
        "time": 4.875,
        "duration": 0.563,
        "velocity": 0.67,
        "hand": "left"
      },
      {
        "midi": 81,
        "time": 4.875,
        "duration": 0.094,
        "velocity": 0.75,
        "hand": "right"
      },
      {
        "midi": 83,
        "time": 4.875,
        "duration": 0.375,
        "velocity": 0.7,
        "hand": "right"
      },
      {
        "midi": 59,
        "time": 5.25,
        "duration": 0.188,
        "velocity": 0.17,
        "hand": "left"
      },
      {
        "midi": 63,
        "time": 5.25,
        "duration": 0.188,
        "velocity": 0.57,
        "hand": "right"
      },
      {
        "midi": 66,
        "time": 5.25,
        "duration": 0.188,
        "velocity": 0.57,
        "hand": "right"
      },
      {
        "midi": 81,
        "time": 5.25,
        "duration": 0.36,
        "velocity": 0.67,
        "hand": "right"
      },
      {
        "midi": 51,
        "time": 5.438,
        "duration": 0.188,
        "velocity": 0.64,
        "hand": "left"
      },
      {
        "midi": 80,
        "time": 5.438,
        "duration": 0.188,
        "velocity": 0.64,
        "hand": "right"
      },
      {
        "midi": 54,
        "time": 5.625,
        "duration": 0.094,
        "velocity": 0.8,
        "hand": "left"
      },
      {
        "midi": 78,
        "time": 5.625,
        "duration": 0.375,
        "velocity": 0.81,
        "hand": "right"
      },
      {
        "midi": 81,
        "time": 5.625,
        "duration": 0.188,
        "velocity": 0.84,
        "hand": "right"
      },
      {
        "midi": 63,
        "time": 5.813,
        "duration": 0.188,
        "velocity": 0.55,
        "hand": "right"
      },
      {
        "midi": 66,
        "time": 5.813,
        "duration": 0.188,
        "velocity": 0.56,
        "hand": "right"
      },
      {
        "midi": 54,
        "time": 6,
        "duration": 0.375,
        "velocity": 0.83,
        "hand": "left"
      },
      {
        "midi": 81,
        "time": 6,
        "duration": 0.188,
        "velocity": 0.7,
        "hand": "right"
      },
      {
        "midi": 59,
        "time": 6.188,
        "duration": 0.188,
        "velocity": 0.37,
        "hand": "left"
      },
      {
        "midi": 63,
        "time": 6.188,
        "duration": 0.188,
        "velocity": 0.48,
        "hand": "right"
      },
      {
        "midi": 66,
        "time": 6.188,
        "duration": 0.188,
        "velocity": 0.48,
        "hand": "right"
      },
      {
        "midi": 80,
        "time": 6.188,
        "duration": 0.188,
        "velocity": 0.68,
        "hand": "right"
      },
      {
        "midi": 40,
        "time": 6.375,
        "duration": 0.563,
        "velocity": 0.84,
        "hand": "left"
      },
      {
        "midi": 81,
        "time": 6.375,
        "duration": 0.375,
        "velocity": 0.78,
        "hand": "right"
      },
      {
        "midi": 80,
        "time": 6.563,
        "duration": 0.094,
        "velocity": 0.77,
        "hand": "right"
      },
      {
        "midi": 59,
        "time": 6.75,
        "duration": 0.188,
        "velocity": 0.35,
        "hand": "left"
      },
      {
        "midi": 64,
        "time": 6.75,
        "duration": 0.188,
        "velocity": 0.59,
        "hand": "right"
      },
      {
        "midi": 68,
        "time": 6.75,
        "duration": 0.188,
        "velocity": 0.53,
        "hand": "right"
      },
      {
        "midi": 80,
        "time": 6.75,
        "duration": 0.173,
        "velocity": 0.7,
        "hand": "right"
      },
      {
        "midi": 82,
        "time": 6.75,
        "duration": 0.094,
        "velocity": 0.83,
        "hand": "right"
      },
      {
        "midi": 44,
        "time": 6.938,
        "duration": 0.563,
        "velocity": 0.72,
        "hand": "left"
      },
      {
        "midi": 80,
        "time": 6.938,
        "duration": 0.094,
        "velocity": 0.6,
        "hand": "right"
      },
      {
        "midi": 54,
        "time": 7.125,
        "duration": 0.094,
        "velocity": 0.76,
        "hand": "left"
      },
      {
        "midi": 68,
        "time": 7.125,
        "duration": 0.173,
        "velocity": 0.76,
        "hand": "right"
      },
      {
        "midi": 81,
        "time": 7.125,
        "duration": 0.188,
        "velocity": 0.78,
        "hand": "right"
      },
      {
        "midi": 59,
        "time": 7.313,
        "duration": 0.094,
        "velocity": 0.37,
        "hand": "left"
      },
      {
        "midi": 64,
        "time": 7.313,
        "duration": 0.188,
        "velocity": 0.62,
        "hand": "right"
      },
      {
        "midi": 68,
        "time": 7.313,
        "duration": 0.188,
        "velocity": 0.53,
        "hand": "right"
      },
      {
        "midi": 71,
        "time": 7.313,
        "duration": 0.188,
        "velocity": 0.76,
        "hand": "right"
      },
      {
        "midi": 80,
        "time": 7.313,
        "duration": 0.094,
        "velocity": 0.61,
        "hand": "right"
      },
      {
        "midi": 47,
        "time": 7.5,
        "duration": 0.36,
        "velocity": 0.67,
        "hand": "left"
      },
      {
        "midi": 81,
        "time": 7.5,
        "duration": 0.094,
        "velocity": 0.81,
        "hand": "right"
      },
      {
        "midi": 83,
        "time": 7.5,
        "duration": 0.188,
        "velocity": 0.75,
        "hand": "right"
      },
      {
        "midi": 59,
        "time": 7.688,
        "duration": 0.094,
        "velocity": 0.29,
        "hand": "left"
      },
      {
        "midi": 64,
        "time": 7.688,
        "duration": 0.188,
        "velocity": 0.62,
        "hand": "right"
      },
      {
        "midi": 68,
        "time": 7.688,
        "duration": 0.188,
        "velocity": 0.58,
        "hand": "right"
      },
      {
        "midi": 80,
        "time": 7.688,
        "duration": 0.094,
        "velocity": 0.72,
        "hand": "right"
      },
      {
        "midi": 47,
        "time": 7.875,
        "duration": 0.563,
        "velocity": 0.75,
        "hand": "left"
      },
      {
        "midi": 71,
        "time": 7.875,
        "duration": 0.375,
        "velocity": 0.83,
        "hand": "right"
      },
      {
        "midi": 81,
        "time": 7.875,
        "duration": 0.173,
        "velocity": 0.86,
        "hand": "right"
      },
      {
        "midi": 83,
        "time": 7.875,
        "duration": 0.375,
        "velocity": 0.75,
        "hand": "right"
      },
      {
        "midi": 81,
        "time": 8.063,
        "duration": 0.188,
        "velocity": 0.75,
        "hand": "right"
      },
      {
        "midi": 59,
        "time": 8.25,
        "duration": 0.188,
        "velocity": 0.38,
        "hand": "left"
      },
      {
        "midi": 63,
        "time": 8.25,
        "duration": 0.188,
        "velocity": 0.65,
        "hand": "right"
      },
      {
        "midi": 66,
        "time": 8.25,
        "duration": 0.188,
        "velocity": 0.56,
        "hand": "right"
      },
      {
        "midi": 69,
        "time": 8.25,
        "duration": 0.173,
        "velocity": 0.87,
        "hand": "right"
      },
      {
        "midi": 80,
        "time": 8.25,
        "duration": 0.094,
        "velocity": 0.74,
        "hand": "right"
      },
      {
        "midi": 51,
        "time": 8.438,
        "duration": 0.563,
        "velocity": 0.74,
        "hand": "left"
      },
      {
        "midi": 69,
        "time": 8.438,
        "duration": 0.375,
        "velocity": 0.84,
        "hand": "right"
      },
      {
        "midi": 81,
        "time": 8.438,
        "duration": 0.172,
        "velocity": 0.76,
        "hand": "right"
      },
      {
        "midi": 54,
        "time": 8.625,
        "duration": 0.094,
        "velocity": 0.8,
        "hand": "left"
      },
      {
        "midi": 81,
        "time": 8.625,
        "duration": 0.188,
        "velocity": 0.84,
        "hand": "right"
      },
      {
        "midi": 54,
        "time": 8.813,
        "duration": 0.188,
        "velocity": 0.76,
        "hand": "left"
      },
      {
        "midi": 59,
        "time": 8.813,
        "duration": 0.094,
        "velocity": 0.42,
        "hand": "left"
      },
      {
        "midi": 63,
        "time": 8.813,
        "duration": 0.188,
        "velocity": 0.6,
        "hand": "right"
      },
      {
        "midi": 66,
        "time": 8.813,
        "duration": 0.188,
        "velocity": 0.59,
        "hand": "right"
      },
      {
        "midi": 70,
        "time": 8.813,
        "duration": 0.094,
        "velocity": 0.83,
        "hand": "right"
      },
      {
        "midi": 73,
        "time": 8.813,
        "duration": 0.188,
        "velocity": 0.83,
        "hand": "right"
      },
      {
        "midi": 80,
        "time": 9,
        "duration": 0.094,
        "velocity": 0.72,
        "hand": "right"
      },
      {
        "midi": 40,
        "time": 9.188,
        "duration": 0.563,
        "velocity": 0.67,
        "hand": "left"
      },
      {
        "midi": 59,
        "time": 9.188,
        "duration": 0.188,
        "velocity": 0.35,
        "hand": "left"
      },
      {
        "midi": 63,
        "time": 9.188,
        "duration": 0.188,
        "velocity": 0.57,
        "hand": "right"
      },
      {
        "midi": 66,
        "time": 9.188,
        "duration": 0.188,
        "velocity": 0.59,
        "hand": "right"
      },
      {
        "midi": 73,
        "time": 9.188,
        "duration": 0.375,
        "velocity": 0.89,
        "hand": "right"
      },
      {
        "midi": 80,
        "time": 9.188,
        "duration": 0.188,
        "velocity": 0.71,
        "hand": "right"
      },
      {
        "midi": 81,
        "time": 9.375,
        "duration": 0.188,
        "velocity": 0.83,
        "hand": "right"
      },
      {
        "midi": 68,
        "time": 9.563,
        "duration": 0.188,
        "velocity": 0.65,
        "hand": "right"
      },
      {
        "midi": 71,
        "time": 9.563,
        "duration": 0.375,
        "velocity": 0.84,
        "hand": "right"
      },
      {
        "midi": 80,
        "time": 9.563,
        "duration": 0.094,
        "velocity": 0.79,
        "hand": "right"
      },
      {
        "midi": 83,
        "time": 9.563,
        "duration": 0.375,
        "velocity": 0.8,
        "hand": "right"
      },
      {
        "midi": 44,
        "time": 9.75,
        "duration": 0.563,
        "velocity": 0.67,
        "hand": "left"
      },
      {
        "midi": 59,
        "time": 9.75,
        "duration": 0.094,
        "velocity": 0.28,
        "hand": "left"
      },
      {
        "midi": 80,
        "time": 9.75,
        "duration": 0.173,
        "velocity": 0.69,
        "hand": "right"
      },
      {
        "midi": 54,
        "time": 9.938,
        "duration": 0.094,
        "velocity": 0.75,
        "hand": "left"
      },
      {
        "midi": 68,
        "time": 9.938,
        "duration": 0.172,
        "velocity": 0.87,
        "hand": "right"
      },
      {
        "midi": 80,
        "time": 9.938,
        "duration": 0.172,
        "velocity": 0.76,
        "hand": "right"
      },
      {
        "midi": 82,
        "time": 9.938,
        "duration": 0.094,
        "velocity": 0.9,
        "hand": "right"
      },
      {
        "midi": 64,
        "time": 10.125,
        "duration": 0.188,
        "velocity": 0.65,
        "hand": "right"
      },
      {
        "midi": 68,
        "time": 10.125,
        "duration": 0.188,
        "velocity": 0.51,
        "hand": "right"
      },
      {
        "midi": 80,
        "time": 10.125,
        "duration": 0.094,
        "velocity": 0.75,
        "hand": "right"
      },
      {
        "midi": 47,
        "time": 10.313,
        "duration": 0.375,
        "velocity": 0.75,
        "hand": "left"
      },
      {
        "midi": 59,
        "time": 10.313,
        "duration": 0.188,
        "velocity": 0.39,
        "hand": "left"
      },
      {
        "midi": 71,
        "time": 10.313,
        "duration": 0.188,
        "velocity": 0.83,
        "hand": "right"
      },
      {
        "midi": 81,
        "time": 10.313,
        "duration": 0.094,
        "velocity": 0.8,
        "hand": "right"
      },
      {
        "midi": 83,
        "time": 10.313,
        "duration": 0.188,
        "velocity": 0.76,
        "hand": "right"
      },
      {
        "midi": 59,
        "time": 10.688,
        "duration": 0.188,
        "velocity": 0.31,
        "hand": "left"
      },
      {
        "midi": 71,
        "time": 10.688,
        "duration": 0.375,
        "velocity": 0.76,
        "hand": "right"
      },
      {
        "midi": 81,
        "time": 10.688,
        "duration": 0.188,
        "velocity": 0.84,
        "hand": "right"
      },
      {
        "midi": 83,
        "time": 10.688,
        "duration": 0.375,
        "velocity": 0.8,
        "hand": "right"
      },
      {
        "midi": 47,
        "time": 10.875,
        "duration": 0.563,
        "velocity": 0.8,
        "hand": "left"
      },
      {
        "midi": 69,
        "time": 11.063,
        "duration": 0.375,
        "velocity": 0.76,
        "hand": "right"
      },
      {
        "midi": 81,
        "time": 11.063,
        "duration": 0.36,
        "velocity": 0.76,
        "hand": "right"
      },
      {
        "midi": 59,
        "time": 11.25,
        "duration": 0.094,
        "velocity": 0.28,
        "hand": "left"
      },
      {
        "midi": 63,
        "time": 11.25,
        "duration": 0.188,
        "velocity": 0.54,
        "hand": "right"
      },
      {
        "midi": 66,
        "time": 11.25,
        "duration": 0.173,
        "velocity": 0.59,
        "hand": "right"
      },
      {
        "midi": 80,
        "time": 11.25,
        "duration": 0.188,
        "velocity": 0.69,
        "hand": "right"
      },
      {
        "midi": 39,
        "time": 11.438,
        "duration": 0.563,
        "velocity": 0.69,
        "hand": "left"
      },
      {
        "midi": 54,
        "time": 11.438,
        "duration": 0.188,
        "velocity": 0.76,
        "hand": "left"
      },
      {
        "midi": 66,
        "time": 11.438,
        "duration": 0.36,
        "velocity": 0.81,
        "hand": "right"
      },
      {
        "midi": 78,
        "time": 11.438,
        "duration": 0.375,
        "velocity": 0.81,
        "hand": "right"
      },
      {
        "midi": 81,
        "time": 11.438,
        "duration": 0.188,
        "velocity": 0.84,
        "hand": "right"
      },
      {
        "midi": 59,
        "time": 11.813,
        "duration": 0.094,
        "velocity": 0.26,
        "hand": "left"
      },
      {
        "midi": 66,
        "time": 11.813,
        "duration": 0.188,
        "velocity": 0.53,
        "hand": "right"
      },
      {
        "midi": 69,
        "time": 11.813,
        "duration": 0.36,
        "velocity": 0.8,
        "hand": "right"
      },
      {
        "midi": 81,
        "time": 11.813,
        "duration": 0.188,
        "velocity": 0.81,
        "hand": "right"
      },
      {
        "midi": 42,
        "time": 12,
        "duration": 0.188,
        "velocity": 0.64,
        "hand": "left"
      },
      {
        "midi": 80,
        "time": 12,
        "duration": 0.094,
        "velocity": 0.71,
        "hand": "right"
      },
      {
        "midi": 63,
        "time": 12.188,
        "duration": 0.188,
        "velocity": 0.2,
        "hand": "right"
      },
      {
        "midi": 66,
        "time": 12.188,
        "duration": 0.188,
        "velocity": 0.44,
        "hand": "right"
      },
      {
        "midi": 69,
        "time": 12.188,
        "duration": 0.375,
        "velocity": 0.78,
        "hand": "right"
      },
      {
        "midi": 81,
        "time": 12.188,
        "duration": 0.172,
        "velocity": 0.76,
        "hand": "right"
      },
      {
        "midi": 40,
        "time": 12.375,
        "duration": 0.563,
        "velocity": 0.53,
        "hand": "left"
      },
      {
        "midi": 81,
        "time": 12.375,
        "duration": 0.188,
        "velocity": 0.84,
        "hand": "right"
      },
      {
        "midi": 80,
        "time": 12.563,
        "duration": 0.172,
        "velocity": 0.83,
        "hand": "right"
      },
      {
        "midi": 59,
        "time": 12.75,
        "duration": 0.094,
        "velocity": 0.12,
        "hand": "left"
      },
      {
        "midi": 64,
        "time": 12.75,
        "duration": 0.188,
        "velocity": 0.5,
        "hand": "right"
      },
      {
        "midi": 68,
        "time": 12.75,
        "duration": 0.548,
        "velocity": 0.75,
        "hand": "right"
      },
      {
        "midi": 80,
        "time": 12.75,
        "duration": 0.094,
        "velocity": 0.75,
        "hand": "right"
      },
      {
        "midi": 44,
        "time": 12.938,
        "duration": 0.563,
        "velocity": 0.58,
        "hand": "left"
      },
      {
        "midi": 80,
        "time": 12.938,
        "duration": 0.188,
        "velocity": 0.69,
        "hand": "right"
      },
      {
        "midi": 54,
        "time": 13.125,
        "duration": 0.094,
        "velocity": 0.75,
        "hand": "left"
      },
      {
        "midi": 81,
        "time": 13.125,
        "duration": 0.188,
        "velocity": 0.76,
        "hand": "right"
      },
      {
        "midi": 59,
        "time": 13.313,
        "duration": 0.094,
        "velocity": 0.24,
        "hand": "left"
      },
      {
        "midi": 64,
        "time": 13.313,
        "duration": 0.188,
        "velocity": 0.62,
        "hand": "right"
      },
      {
        "midi": 68,
        "time": 13.313,
        "duration": 0.188,
        "velocity": 0.43,
        "hand": "right"
      },
      {
        "midi": 47,
        "time": 13.5,
        "duration": 0.375,
        "velocity": 0.67,
        "hand": "left"
      },
      {
        "midi": 70,
        "time": 13.5,
        "duration": 0.094,
        "velocity": 0.87,
        "hand": "right"
      },
      {
        "midi": 76,
        "time": 13.5,
        "duration": 0.094,
        "velocity": 0.76,
        "hand": "right"
      },
      {
        "midi": 80,
        "time": 13.5,
        "duration": 0.173,
        "velocity": 0.72,
        "hand": "right"
      },
      {
        "midi": 59,
        "time": 13.688,
        "duration": 0.188,
        "velocity": 0.24,
        "hand": "left"
      },
      {
        "midi": 64,
        "time": 13.688,
        "duration": 0.188,
        "velocity": 0.5,
        "hand": "right"
      },
      {
        "midi": 68,
        "time": 13.688,
        "duration": 0.188,
        "velocity": 0.44,
        "hand": "right"
      },
      {
        "midi": 76,
        "time": 13.688,
        "duration": 0.188,
        "velocity": 0.7,
        "hand": "right"
      },
      {
        "midi": 80,
        "time": 13.688,
        "duration": 0.188,
        "velocity": 0.65,
        "hand": "right"
      },
      {
        "midi": 45,
        "time": 13.875,
        "duration": 0.563,
        "velocity": 0.78,
        "hand": "left"
      },
      {
        "midi": 73,
        "time": 13.875,
        "duration": 0.563,
        "velocity": 0.89,
        "hand": "right"
      },
      {
        "midi": 81,
        "time": 13.875,
        "duration": 0.188,
        "velocity": 0.81,
        "hand": "right"
      },
      {
        "midi": 57,
        "time": 14.25,
        "duration": 0.188,
        "velocity": 0.43,
        "hand": "left"
      },
      {
        "midi": 61,
        "time": 14.25,
        "duration": 0.188,
        "velocity": 0.54,
        "hand": "right"
      },
      {
        "midi": 64,
        "time": 14.25,
        "duration": 0.188,
        "velocity": 0.61,
        "hand": "right"
      },
      {
        "midi": 80,
        "time": 14.25,
        "duration": 0.173,
        "velocity": 0.71,
        "hand": "right"
      },
      {
        "midi": 49,
        "time": 14.438,
        "duration": 0.563,
        "velocity": 0.67,
        "hand": "left"
      },
      {
        "midi": 75,
        "time": 14.438,
        "duration": 0.188,
        "velocity": 0.75,
        "hand": "right"
      },
      {
        "midi": 80,
        "time": 14.438,
        "duration": 0.188,
        "velocity": 0.69,
        "hand": "right"
      },
      {
        "midi": 54,
        "time": 14.625,
        "duration": 0.188,
        "velocity": 0.75,
        "hand": "left"
      },
      {
        "midi": 76,
        "time": 14.625,
        "duration": 0.563,
        "velocity": 0.81,
        "hand": "right"
      },
      {
        "midi": 81,
        "time": 14.625,
        "duration": 0.188,
        "velocity": 0.76,
        "hand": "right"
      },
      {
        "midi": 57,
        "time": 14.813,
        "duration": 0.188,
        "velocity": 0.51,
        "hand": "left"
      },
      {
        "midi": 61,
        "time": 14.813,
        "duration": 0.094,
        "velocity": 0.61,
        "hand": "right"
      },
      {
        "midi": 64,
        "time": 14.813,
        "duration": 0.188,
        "velocity": 0.62,
        "hand": "right"
      },
      {
        "midi": 52,
        "time": 15,
        "duration": 0.375,
        "velocity": 0.76,
        "hand": "left"
      },
      {
        "midi": 70,
        "time": 15,
        "duration": 0.094,
        "velocity": 0.85,
        "hand": "right"
      },
      {
        "midi": 80,
        "time": 15,
        "duration": 0.173,
        "velocity": 0.75,
        "hand": "right"
      },
      {
        "midi": 82,
        "time": 15,
        "duration": 0.094,
        "velocity": 0.76,
        "hand": "right"
      },
      {
        "midi": 57,
        "time": 15.188,
        "duration": 0.188,
        "velocity": 0.31,
        "hand": "left"
      },
      {
        "midi": 64,
        "time": 15.188,
        "duration": 0.188,
        "velocity": 0.57,
        "hand": "right"
      },
      {
        "midi": 75,
        "time": 15.188,
        "duration": 0.188,
        "velocity": 0.76,
        "hand": "right"
      },
      {
        "midi": 80,
        "time": 15.188,
        "duration": 0.188,
        "velocity": 0.66,
        "hand": "right"
      },
      {
        "midi": 82,
        "time": 15.188,
        "duration": 0.094,
        "velocity": 0.48,
        "hand": "right"
      },
      {
        "midi": 40,
        "time": 15.375,
        "duration": 0.563,
        "velocity": 0.76,
        "hand": "left"
      },
      {
        "midi": 73,
        "time": 15.375,
        "duration": 0.173,
        "velocity": 0.69,
        "hand": "right"
      },
      {
        "midi": 81,
        "time": 15.375,
        "duration": 0.188,
        "velocity": 0.83,
        "hand": "right"
      },
      {
        "midi": 64,
        "time": 15.563,
        "duration": 0.172,
        "velocity": 0.76,
        "hand": "right"
      },
      {
        "midi": 73,
        "time": 15.563,
        "duration": 0.188,
        "velocity": 0.64,
        "hand": "right"
      },
      {
        "midi": 75,
        "time": 15.563,
        "duration": 0.188,
        "velocity": 0.63,
        "hand": "right"
      },
      {
        "midi": 59,
        "time": 15.75,
        "duration": 0.188,
        "velocity": 0.46,
        "hand": "left"
      },
      {
        "midi": 69,
        "time": 15.75,
        "duration": 0.094,
        "velocity": 0.76,
        "hand": "right"
      },
      {
        "midi": 80,
        "time": 15.75,
        "duration": 0.094,
        "velocity": 0.75,
        "hand": "right"
      },
      {
        "midi": 83,
        "time": 15.75,
        "duration": 0.188,
        "velocity": 0.81,
        "hand": "right"
      },
      {
        "midi": 44,
        "time": 15.938,
        "duration": 0.563,
        "velocity": 0.63,
        "hand": "left"
      },
      {
        "midi": 68,
        "time": 15.938,
        "duration": 0.188,
        "velocity": 0.69,
        "hand": "right"
      },
      {
        "midi": 80,
        "time": 15.938,
        "duration": 0.188,
        "velocity": 0.67,
        "hand": "right"
      },
      {
        "midi": 71,
        "time": 16.125,
        "duration": 0.375,
        "velocity": 0.67,
        "hand": "right"
      },
      {
        "midi": 81,
        "time": 16.125,
        "duration": 0.188,
        "velocity": 0.81,
        "hand": "right"
      },
      {
        "midi": 59,
        "time": 16.313,
        "duration": 0.094,
        "velocity": 0.4,
        "hand": "left"
      },
      {
        "midi": 64,
        "time": 16.313,
        "duration": 0.188,
        "velocity": 0.69,
        "hand": "right"
      },
      {
        "midi": 68,
        "time": 16.313,
        "duration": 0.188,
        "velocity": 0.58,
        "hand": "right"
      },
      {
        "midi": 47,
        "time": 16.5,
        "duration": 0.375,
        "velocity": 0.72,
        "hand": "left"
      },
      {
        "midi": 70,
        "time": 16.5,
        "duration": 0.094,
        "velocity": 0.93,
        "hand": "right"
      },
      {
        "midi": 76,
        "time": 16.5,
        "duration": 0.094,
        "velocity": 0.78,
        "hand": "right"
      },
      {
        "midi": 80,
        "time": 16.5,
        "duration": 0.094,
        "velocity": 0.72,
        "hand": "right"
      },
      {
        "midi": 59,
        "time": 16.688,
        "duration": 0.188,
        "velocity": 0.18,
        "hand": "left"
      },
      {
        "midi": 64,
        "time": 16.688,
        "duration": 0.188,
        "velocity": 0.64,
        "hand": "right"
      },
      {
        "midi": 68,
        "time": 16.688,
        "duration": 0.188,
        "velocity": 0.52,
        "hand": "right"
      },
      {
        "midi": 76,
        "time": 16.688,
        "duration": 0.188,
        "velocity": 0.73,
        "hand": "right"
      },
      {
        "midi": 80,
        "time": 16.688,
        "duration": 0.188,
        "velocity": 0.66,
        "hand": "right"
      },
      {
        "midi": 45,
        "time": 16.875,
        "duration": 0.563,
        "velocity": 0.64,
        "hand": "left"
      },
      {
        "midi": 73,
        "time": 16.875,
        "duration": 0.563,
        "velocity": 0.86,
        "hand": "right"
      },
      {
        "midi": 81,
        "time": 16.875,
        "duration": 0.188,
        "velocity": 0.8,
        "hand": "right"
      },
      {
        "midi": 57,
        "time": 17.25,
        "duration": 0.188,
        "velocity": 0.45,
        "hand": "left"
      },
      {
        "midi": 61,
        "time": 17.25,
        "duration": 0.188,
        "velocity": 0.52,
        "hand": "right"
      },
      {
        "midi": 64,
        "time": 17.25,
        "duration": 0.173,
        "velocity": 0.64,
        "hand": "right"
      },
      {
        "midi": 80,
        "time": 17.25,
        "duration": 0.173,
        "velocity": 0.71,
        "hand": "right"
      },
      {
        "midi": 49,
        "time": 17.438,
        "duration": 0.563,
        "velocity": 0.69,
        "hand": "left"
      },
      {
        "midi": 64,
        "time": 17.438,
        "duration": 0.188,
        "velocity": 0.7,
        "hand": "right"
      },
      {
        "midi": 75,
        "time": 17.438,
        "duration": 0.188,
        "velocity": 0.75,
        "hand": "right"
      },
      {
        "midi": 80,
        "time": 17.438,
        "duration": 0.188,
        "velocity": 0.69,
        "hand": "right"
      },
      {
        "midi": 54,
        "time": 17.625,
        "duration": 0.094,
        "velocity": 0.77,
        "hand": "left"
      },
      {
        "midi": 73,
        "time": 17.625,
        "duration": 0.735,
        "velocity": 0.7,
        "hand": "right"
      },
      {
        "midi": 76,
        "time": 17.625,
        "duration": 0.563,
        "velocity": 0.83,
        "hand": "right"
      },
      {
        "midi": 81,
        "time": 17.625,
        "duration": 0.188,
        "velocity": 0.78,
        "hand": "right"
      },
      {
        "midi": 57,
        "time": 17.813,
        "duration": 0.188,
        "velocity": 0.44,
        "hand": "left"
      },
      {
        "midi": 61,
        "time": 17.813,
        "duration": 0.188,
        "velocity": 0.49,
        "hand": "right"
      },
      {
        "midi": 64,
        "time": 17.813,
        "duration": 0.188,
        "velocity": 0.57,
        "hand": "right"
      },
      {
        "midi": 52,
        "time": 18,
        "duration": 0.188,
        "velocity": 0.72,
        "hand": "left"
      },
      {
        "midi": 70,
        "time": 18,
        "duration": 0.094,
        "velocity": 0.93,
        "hand": "right"
      },
      {
        "midi": 80,
        "time": 18,
        "duration": 0.094,
        "velocity": 0.69,
        "hand": "right"
      },
      {
        "midi": 82,
        "time": 18,
        "duration": 0.094,
        "velocity": 0.72,
        "hand": "right"
      },
      {
        "midi": 57,
        "time": 18.188,
        "duration": 0.188,
        "velocity": 0.32,
        "hand": "left"
      },
      {
        "midi": 64,
        "time": 18.188,
        "duration": 0.188,
        "velocity": 0.53,
        "hand": "right"
      },
      {
        "midi": 75,
        "time": 18.188,
        "duration": 0.188,
        "velocity": 0.75,
        "hand": "right"
      },
      {
        "midi": 80,
        "time": 18.188,
        "duration": 0.188,
        "velocity": 0.6,
        "hand": "right"
      },
      {
        "midi": 82,
        "time": 18.188,
        "duration": 0.094,
        "velocity": 0.57,
        "hand": "right"
      },
      {
        "midi": 38,
        "time": 18.375,
        "duration": 0.188,
        "velocity": 0.59,
        "hand": "left"
      },
      {
        "midi": 40,
        "time": 18.375,
        "duration": 0.563,
        "velocity": 0.67,
        "hand": "left"
      },
      {
        "midi": 73,
        "time": 18.375,
        "duration": 0.173,
        "velocity": 0.8,
        "hand": "right"
      },
      {
        "midi": 81,
        "time": 18.375,
        "duration": 0.188,
        "velocity": 0.78,
        "hand": "right"
      },
      {
        "midi": 64,
        "time": 18.563,
        "duration": 0.172,
        "velocity": 0.8,
        "hand": "right"
      },
      {
        "midi": 73,
        "time": 18.563,
        "duration": 0.188,
        "velocity": 0.56,
        "hand": "right"
      },
      {
        "midi": 75,
        "time": 18.563,
        "duration": 0.188,
        "velocity": 0.69,
        "hand": "right"
      },
      {
        "midi": 59,
        "time": 18.75,
        "duration": 0.188,
        "velocity": 0.29,
        "hand": "left"
      },
      {
        "midi": 66,
        "time": 18.75,
        "duration": 0.188,
        "velocity": 0.62,
        "hand": "right"
      },
      {
        "midi": 68,
        "time": 18.75,
        "duration": 0.173,
        "velocity": 0.43,
        "hand": "right"
      },
      {
        "midi": 80,
        "time": 18.75,
        "duration": 0.094,
        "velocity": 0.72,
        "hand": "right"
      },
      {
        "midi": 83,
        "time": 18.75,
        "duration": 0.188,
        "velocity": 0.81,
        "hand": "right"
      },
      {
        "midi": 44,
        "time": 18.938,
        "duration": 0.563,
        "velocity": 0.6,
        "hand": "left"
      },
      {
        "midi": 64,
        "time": 18.938,
        "duration": 0.188,
        "velocity": 0.7,
        "hand": "right"
      },
      {
        "midi": 68,
        "time": 18.938,
        "duration": 0.172,
        "velocity": 0.61,
        "hand": "right"
      },
      {
        "midi": 80,
        "time": 18.938,
        "duration": 0.172,
        "velocity": 0.69,
        "hand": "right"
      },
      {
        "midi": 54,
        "time": 19.125,
        "duration": 0.094,
        "velocity": 0.82,
        "hand": "left"
      },
      {
        "midi": 68,
        "time": 19.125,
        "duration": 0.173,
        "velocity": 0.15,
        "hand": "right"
      },
      {
        "midi": 71,
        "time": 19.125,
        "duration": 0.75,
        "velocity": 0.64,
        "hand": "right"
      },
      {
        "midi": 81,
        "time": 19.125,
        "duration": 0.188,
        "velocity": 0.76,
        "hand": "right"
      },
      {
        "midi": 59,
        "time": 19.313,
        "duration": 0.188,
        "velocity": 0.37,
        "hand": "left"
      },
      {
        "midi": 64,
        "time": 19.313,
        "duration": 0.188,
        "velocity": 0.7,
        "hand": "right"
      },
      {
        "midi": 68,
        "time": 19.313,
        "duration": 0.188,
        "velocity": 0.53,
        "hand": "right"
      },
      {
        "midi": 47,
        "time": 19.5,
        "duration": 0.36,
        "velocity": 0.7,
        "hand": "left"
      },
      {
        "midi": 70,
        "time": 19.5,
        "duration": 0.094,
        "velocity": 0.91,
        "hand": "right"
      },
      {
        "midi": 80,
        "time": 19.5,
        "duration": 0.094,
        "velocity": 0.69,
        "hand": "right"
      },
      {
        "midi": 83,
        "time": 19.5,
        "duration": 0.188,
        "velocity": 0.76,
        "hand": "right"
      },
      {
        "midi": 59,
        "time": 19.688,
        "duration": 0.188,
        "velocity": 0.34,
        "hand": "left"
      },
      {
        "midi": 64,
        "time": 19.688,
        "duration": 0.188,
        "velocity": 0.62,
        "hand": "right"
      },
      {
        "midi": 68,
        "time": 19.688,
        "duration": 0.188,
        "velocity": 0.46,
        "hand": "right"
      },
      {
        "midi": 80,
        "time": 19.688,
        "duration": 0.188,
        "velocity": 0.56,
        "hand": "right"
      },
      {
        "midi": 82,
        "time": 19.688,
        "duration": 0.094,
        "velocity": 0.6,
        "hand": "right"
      },
      {
        "midi": 47,
        "time": 19.875,
        "duration": 0.563,
        "velocity": 0.4,
        "hand": "left"
      },
      {
        "midi": 81,
        "time": 19.875,
        "duration": 0.188,
        "velocity": 0.75,
        "hand": "right"
      },
      {
        "midi": 83,
        "time": 19.875,
        "duration": 0.375,
        "velocity": 0.86,
        "hand": "right"
      },
      {
        "midi": 57,
        "time": 20.25,
        "duration": 0.188,
        "velocity": 0.41,
        "hand": "left"
      },
      {
        "midi": 64,
        "time": 20.25,
        "duration": 0.094,
        "velocity": 0.43,
        "hand": "right"
      },
      {
        "midi": 66,
        "time": 20.25,
        "duration": 0.094,
        "velocity": 0.53,
        "hand": "right"
      },
      {
        "midi": 81,
        "time": 20.25,
        "duration": 0.188,
        "velocity": 0.78,
        "hand": "right"
      },
      {
        "midi": 51,
        "time": 20.438,
        "duration": 0.563,
        "velocity": 0.71,
        "hand": "left"
      },
      {
        "midi": 80,
        "time": 20.438,
        "duration": 0.188,
        "velocity": 0.69,
        "hand": "right"
      },
      {
        "midi": 54,
        "time": 20.625,
        "duration": 0.094,
        "velocity": 0.8,
        "hand": "left"
      },
      {
        "midi": 81,
        "time": 20.625,
        "duration": 0.375,
        "velocity": 0.76,
        "hand": "right"
      },
      {
        "midi": 59,
        "time": 20.813,
        "duration": 0.188,
        "velocity": 0.47,
        "hand": "left"
      },
      {
        "midi": 63,
        "time": 20.813,
        "duration": 0.188,
        "velocity": 0.65,
        "hand": "right"
      },
      {
        "midi": 66,
        "time": 20.813,
        "duration": 0.188,
        "velocity": 0.67,
        "hand": "right"
      },
      {
        "midi": 54,
        "time": 21,
        "duration": 0.188,
        "velocity": 0.67,
        "hand": "left"
      },
      {
        "midi": 69,
        "time": 21,
        "duration": 0.094,
        "velocity": 0.8,
        "hand": "right"
      },
      {
        "midi": 73,
        "time": 21,
        "duration": 0.173,
        "velocity": 0.76,
        "hand": "right"
      },
      {
        "midi": 80,
        "time": 21,
        "duration": 0.094,
        "velocity": 0.73,
        "hand": "right"
      },
      {
        "midi": 82,
        "time": 21,
        "duration": 0.094,
        "velocity": 0.75,
        "hand": "right"
      },
      {
        "midi": 59,
        "time": 21.188,
        "duration": 0.188,
        "velocity": 0.4,
        "hand": "left"
      },
      {
        "midi": 66,
        "time": 21.188,
        "duration": 0.188,
        "velocity": 0.59,
        "hand": "right"
      },
      {
        "midi": 73,
        "time": 21.188,
        "duration": 0.375,
        "velocity": 0.84,
        "hand": "right"
      },
      {
        "midi": 80,
        "time": 21.188,
        "duration": 0.188,
        "velocity": 0.65,
        "hand": "right"
      },
      {
        "midi": 82,
        "time": 21.188,
        "duration": 0.094,
        "velocity": 0.61,
        "hand": "right"
      },
      {
        "midi": 40,
        "time": 21.375,
        "duration": 0.563,
        "velocity": 0.73,
        "hand": "left"
      },
      {
        "midi": 81,
        "time": 21.375,
        "duration": 0.188,
        "velocity": 0.8,
        "hand": "right"
      },
      {
        "midi": 83,
        "time": 21.563,
        "duration": 0.188,
        "velocity": 0.72,
        "hand": "right"
      },
      {
        "midi": 59,
        "time": 21.75,
        "duration": 0.188,
        "velocity": 0.42,
        "hand": "left"
      },
      {
        "midi": 64,
        "time": 21.75,
        "duration": 0.188,
        "velocity": 0.62,
        "hand": "right"
      },
      {
        "midi": 68,
        "time": 21.75,
        "duration": 0.188,
        "velocity": 0.53,
        "hand": "right"
      },
      {
        "midi": 80,
        "time": 21.75,
        "duration": 0.094,
        "velocity": 0.75,
        "hand": "right"
      },
      {
        "midi": 44,
        "time": 21.938,
        "duration": 0.563,
        "velocity": 0.58,
        "hand": "left"
      },
      {
        "midi": 80,
        "time": 21.938,
        "duration": 0.375,
        "velocity": 0.8,
        "hand": "right"
      },
      {
        "midi": 54,
        "time": 22.125,
        "duration": 0.094,
        "velocity": 0.85,
        "hand": "left"
      },
      {
        "midi": 81,
        "time": 22.125,
        "duration": 0.188,
        "velocity": 0.8,
        "hand": "right"
      },
      {
        "midi": 59,
        "time": 22.313,
        "duration": 0.188,
        "velocity": 0.39,
        "hand": "left"
      },
      {
        "midi": 64,
        "time": 22.313,
        "duration": 0.188,
        "velocity": 0.53,
        "hand": "right"
      },
      {
        "midi": 68,
        "time": 22.313,
        "duration": 0.188,
        "velocity": 0.31,
        "hand": "right"
      },
      {
        "midi": 83,
        "time": 22.313,
        "duration": 0.188,
        "velocity": 0.73,
        "hand": "right"
      },
      {
        "midi": 47,
        "time": 22.5,
        "duration": 0.36,
        "velocity": 0.56,
        "hand": "left"
      },
      {
        "midi": 70,
        "time": 22.5,
        "duration": 0.094,
        "velocity": 0.87,
        "hand": "right"
      },
      {
        "midi": 80,
        "time": 22.5,
        "duration": 0.173,
        "velocity": 0.71,
        "hand": "right"
      },
      {
        "midi": 82,
        "time": 22.5,
        "duration": 0.094,
        "velocity": 0.75,
        "hand": "right"
      },
      {
        "midi": 59,
        "time": 22.688,
        "duration": 0.188,
        "velocity": 0.39,
        "hand": "left"
      },
      {
        "midi": 68,
        "time": 22.688,
        "duration": 0.188,
        "velocity": 0.38,
        "hand": "right"
      },
      {
        "midi": 80,
        "time": 22.688,
        "duration": 0.188,
        "velocity": 0.61,
        "hand": "right"
      },
      {
        "midi": 83,
        "time": 22.688,
        "duration": 0.375,
        "velocity": 0.8,
        "hand": "right"
      },
      {
        "midi": 37,
        "time": 22.875,
        "duration": 0.188,
        "velocity": 0.53,
        "hand": "left"
      },
      {
        "midi": 47,
        "time": 22.875,
        "duration": 0.563,
        "velocity": 0.44,
        "hand": "left"
      },
      {
        "midi": 81,
        "time": 22.875,
        "duration": 0.173,
        "velocity": 0.8,
        "hand": "right"
      },
      {
        "midi": 81,
        "time": 23.063,
        "duration": 0.375,
        "velocity": 0.78,
        "hand": "right"
      },
      {
        "midi": 59,
        "time": 23.25,
        "duration": 0.188,
        "velocity": 0.37,
        "hand": "left"
      },
      {
        "midi": 63,
        "time": 23.25,
        "duration": 0.188,
        "velocity": 0.55,
        "hand": "right"
      },
      {
        "midi": 66,
        "time": 23.25,
        "duration": 0.188,
        "velocity": 0.62,
        "hand": "right"
      },
      {
        "midi": 80,
        "time": 23.25,
        "duration": 0.094,
        "velocity": 0.75,
        "hand": "right"
      },
      {
        "midi": 39,
        "time": 23.438,
        "duration": 0.563,
        "velocity": 0.63,
        "hand": "left"
      },
      {
        "midi": 78,
        "time": 23.438,
        "duration": 0.375,
        "velocity": 0.84,
        "hand": "right"
      },
      {
        "midi": 80,
        "time": 23.438,
        "duration": 0.094,
        "velocity": 0.72,
        "hand": "right"
      },
      {
        "midi": 54,
        "time": 23.625,
        "duration": 0.188,
        "velocity": 0.83,
        "hand": "left"
      },
      {
        "midi": 81,
        "time": 23.625,
        "duration": 0.173,
        "velocity": 0.8,
        "hand": "right"
      },
      {
        "midi": 42,
        "time": 23.813,
        "duration": 0.375,
        "velocity": 0.49,
        "hand": "left"
      },
      {
        "midi": 59,
        "time": 23.813,
        "duration": 0.188,
        "velocity": 0.38,
        "hand": "left"
      },
      {
        "midi": 63,
        "time": 23.813,
        "duration": 0.188,
        "velocity": 0.5,
        "hand": "right"
      },
      {
        "midi": 66,
        "time": 23.813,
        "duration": 0.188,
        "velocity": 0.56,
        "hand": "right"
      },
      {
        "midi": 81,
        "time": 23.813,
        "duration": 0.188,
        "velocity": 0.78,
        "hand": "right"
      },
      {
        "midi": 69,
        "time": 24,
        "duration": 0.094,
        "velocity": 0.7,
        "hand": "right"
      },
      {
        "midi": 80,
        "time": 24,
        "duration": 0.094,
        "velocity": 0.65,
        "hand": "right"
      },
      {
        "midi": 82,
        "time": 24,
        "duration": 0.094,
        "velocity": 0.67,
        "hand": "right"
      },
      {
        "midi": 59,
        "time": 24.188,
        "duration": 0.188,
        "velocity": 0.32,
        "hand": "left"
      },
      {
        "midi": 66,
        "time": 24.188,
        "duration": 0.188,
        "velocity": 0.56,
        "hand": "right"
      },
      {
        "midi": 80,
        "time": 24.188,
        "duration": 0.188,
        "velocity": 0.63,
        "hand": "right"
      },
      {
        "midi": 82,
        "time": 24.188,
        "duration": 0.094,
        "velocity": 0.57,
        "hand": "right"
      },
      {
        "midi": 40,
        "time": 24.375,
        "duration": 0.563,
        "velocity": 0.7,
        "hand": "left"
      },
      {
        "midi": 81,
        "time": 24.375,
        "duration": 0.188,
        "velocity": 0.8,
        "hand": "right"
      },
      {
        "midi": 80,
        "time": 24.563,
        "duration": 0.172,
        "velocity": 0.82,
        "hand": "right"
      },
      {
        "midi": 59,
        "time": 24.75,
        "duration": 0.188,
        "velocity": 0.38,
        "hand": "left"
      },
      {
        "midi": 64,
        "time": 24.75,
        "duration": 0.188,
        "velocity": 0.62,
        "hand": "right"
      },
      {
        "midi": 68,
        "time": 24.75,
        "duration": 0.188,
        "velocity": 0.65,
        "hand": "right"
      },
      {
        "midi": 71,
        "time": 24.75,
        "duration": 0.094,
        "velocity": 0.47,
        "hand": "right"
      },
      {
        "midi": 80,
        "time": 24.75,
        "duration": 0.094,
        "velocity": 0.76,
        "hand": "right"
      },
      {
        "midi": 44,
        "time": 24.938,
        "duration": 0.563,
        "velocity": 0.57,
        "hand": "left"
      },
      {
        "midi": 54,
        "time": 24.938,
        "duration": 0.188,
        "velocity": 0.83,
        "hand": "left"
      },
      {
        "midi": 71,
        "time": 24.938,
        "duration": 0.375,
        "velocity": 0.51,
        "hand": "right"
      },
      {
        "midi": 80,
        "time": 24.938,
        "duration": 0.375,
        "velocity": 0.87,
        "hand": "right"
      },
      {
        "midi": 83,
        "time": 24.938,
        "duration": 0.36,
        "velocity": 0.67,
        "hand": "right"
      },
      {
        "midi": 81,
        "time": 25.125,
        "duration": 0.188,
        "velocity": 0.81,
        "hand": "right"
      },
      {
        "midi": 47,
        "time": 25.313,
        "duration": 0.375,
        "velocity": 0.67,
        "hand": "left"
      },
      {
        "midi": 59,
        "time": 25.313,
        "duration": 0.172,
        "velocity": 0.35,
        "hand": "left"
      },
      {
        "midi": 68,
        "time": 25.313,
        "duration": 0.172,
        "velocity": 0.22,
        "hand": "right"
      },
      {
        "midi": 70,
        "time": 25.313,
        "duration": 0.188,
        "velocity": 0.87,
        "hand": "right"
      },
      {
        "midi": 75,
        "time": 25.313,
        "duration": 0.36,
        "velocity": 0.67,
        "hand": "right"
      },
      {
        "midi": 83,
        "time": 25.313,
        "duration": 0.188,
        "velocity": 0.76,
        "hand": "right"
      },
      {
        "midi": 59,
        "time": 25.5,
        "duration": 0.188,
        "velocity": 0.32,
        "hand": "left"
      },
      {
        "midi": 68,
        "time": 25.5,
        "duration": 0.188,
        "velocity": 0.55,
        "hand": "right"
      },
      {
        "midi": 71,
        "time": 25.5,
        "duration": 0.094,
        "velocity": 0.7,
        "hand": "right"
      },
      {
        "midi": 80,
        "time": 25.5,
        "duration": 0.094,
        "velocity": 0.76,
        "hand": "right"
      },
      {
        "midi": 82,
        "time": 25.5,
        "duration": 0.094,
        "velocity": 0.73,
        "hand": "right"
      },
      {
        "midi": 45,
        "time": 25.688,
        "duration": 0.563,
        "velocity": 0.49,
        "hand": "left"
      },
      {
        "midi": 75,
        "time": 25.688,
        "duration": 0.375,
        "velocity": 0.62,
        "hand": "right"
      },
      {
        "midi": 80,
        "time": 25.688,
        "duration": 0.188,
        "velocity": 0.65,
        "hand": "right"
      },
      {
        "midi": 83,
        "time": 25.688,
        "duration": 0.375,
        "velocity": 0.81,
        "hand": "right"
      },
      {
        "midi": 81,
        "time": 25.875,
        "duration": 0.173,
        "velocity": 0.83,
        "hand": "right"
      },
      {
        "midi": 71,
        "time": 26.063,
        "duration": 0.094,
        "velocity": 0.7,
        "hand": "right"
      },
      {
        "midi": 73,
        "time": 26.063,
        "duration": 0.188,
        "velocity": 0.62,
        "hand": "right"
      },
      {
        "midi": 81,
        "time": 26.063,
        "duration": 0.188,
        "velocity": 0.76,
        "hand": "right"
      },
      {
        "midi": 49,
        "time": 26.25,
        "duration": 0.563,
        "velocity": 0.56,
        "hand": "left"
      },
      {
        "midi": 57,
        "time": 26.25,
        "duration": 0.188,
        "velocity": 0.36,
        "hand": "left"
      },
      {
        "midi": 61,
        "time": 26.25,
        "duration": 0.188,
        "velocity": 0.46,
        "hand": "right"
      },
      {
        "midi": 80,
        "time": 26.25,
        "duration": 0.188,
        "velocity": 0.75,
        "hand": "right"
      },
      {
        "midi": 73,
        "time": 26.438,
        "duration": 0.36,
        "velocity": 0.7,
        "hand": "right"
      },
      {
        "midi": 81,
        "time": 26.438,
        "duration": 0.172,
        "velocity": 0.78,
        "hand": "right"
      },
      {
        "midi": 54,
        "time": 26.625,
        "duration": 0.094,
        "velocity": 0.79,
        "hand": "left"
      },
      {
        "midi": 57,
        "time": 26.625,
        "duration": 0.188,
        "velocity": 0.43,
        "hand": "left"
      },
      {
        "midi": 61,
        "time": 26.625,
        "duration": 0.188,
        "velocity": 0.57,
        "hand": "right"
      },
      {
        "midi": 64,
        "time": 26.625,
        "duration": 0.188,
        "velocity": 0.59,
        "hand": "right"
      },
      {
        "midi": 81,
        "time": 26.625,
        "duration": 0.188,
        "velocity": 0.8,
        "hand": "right"
      },
      {
        "midi": 52,
        "time": 26.813,
        "duration": 0.375,
        "velocity": 0.76,
        "hand": "left"
      },
      {
        "midi": 73,
        "time": 26.813,
        "duration": 0.188,
        "velocity": 0.78,
        "hand": "right"
      },
      {
        "midi": 76,
        "time": 26.813,
        "duration": 0.188,
        "velocity": 0.78,
        "hand": "right"
      },
      {
        "midi": 80,
        "time": 26.813,
        "duration": 0.094,
        "velocity": 0.7,
        "hand": "right"
      },
      {
        "midi": 82,
        "time": 26.813,
        "duration": 0.094,
        "velocity": 0.69,
        "hand": "right"
      },
      {
        "midi": 69,
        "time": 27,
        "duration": 0.188,
        "velocity": 0.81,
        "hand": "right"
      },
      {
        "midi": 80,
        "time": 27,
        "duration": 0.094,
        "velocity": 0.63,
        "hand": "right"
      },
      {
        "midi": 82,
        "time": 27,
        "duration": 0.094,
        "velocity": 0.65,
        "hand": "right"
      },
      {
        "midi": 57,
        "time": 27.188,
        "duration": 0.188,
        "velocity": 0.42,
        "hand": "left"
      },
      {
        "midi": 64,
        "time": 27.188,
        "duration": 0.188,
        "velocity": 0.56,
        "hand": "right"
      },
      {
        "midi": 73,
        "time": 27.188,
        "duration": 0.375,
        "velocity": 0.8,
        "hand": "right"
      },
      {
        "midi": 76,
        "time": 27.188,
        "duration": 0.375,
        "velocity": 0.76,
        "hand": "right"
      },
      {
        "midi": 81,
        "time": 27.188,
        "duration": 0.188,
        "velocity": 0.78,
        "hand": "right"
      },
      {
        "midi": 40,
        "time": 27.375,
        "duration": 0.563,
        "velocity": 0.72,
        "hand": "left"
      },
      {
        "midi": 71,
        "time": 27.563,
        "duration": 0.094,
        "velocity": 0.69,
        "hand": "right"
      },
      {
        "midi": 75,
        "time": 27.563,
        "duration": 0.375,
        "velocity": 0.67,
        "hand": "right"
      },
      {
        "midi": 80,
        "time": 27.563,
        "duration": 0.172,
        "velocity": 0.72,
        "hand": "right"
      },
      {
        "midi": 83,
        "time": 27.563,
        "duration": 0.188,
        "velocity": 0.81,
        "hand": "right"
      },
      {
        "midi": 44,
        "time": 27.75,
        "duration": 0.563,
        "velocity": 0.67,
        "hand": "left"
      },
      {
        "midi": 59,
        "time": 27.75,
        "duration": 0.188,
        "velocity": 0.43,
        "hand": "left"
      },
      {
        "midi": 64,
        "time": 27.75,
        "duration": 0.188,
        "velocity": 0.65,
        "hand": "right"
      },
      {
        "midi": 68,
        "time": 27.75,
        "duration": 0.188,
        "velocity": 0.47,
        "hand": "right"
      },
      {
        "midi": 80,
        "time": 27.75,
        "duration": 0.173,
        "velocity": 0.71,
        "hand": "right"
      },
      {
        "midi": 54,
        "time": 27.938,
        "duration": 0.094,
        "velocity": 0.85,
        "hand": "left"
      },
      {
        "midi": 71,
        "time": 27.938,
        "duration": 0.36,
        "velocity": 0.54,
        "hand": "right"
      },
      {
        "midi": 81,
        "time": 27.938,
        "duration": 0.188,
        "velocity": 0.75,
        "hand": "right"
      },
      {
        "midi": 83,
        "time": 27.938,
        "duration": 0.36,
        "velocity": 0.62,
        "hand": "right"
      },
      {
        "midi": 59,
        "time": 28.125,
        "duration": 0.188,
        "velocity": 0.46,
        "hand": "left"
      },
      {
        "midi": 64,
        "time": 28.125,
        "duration": 0.173,
        "velocity": 0.59,
        "hand": "right"
      },
      {
        "midi": 68,
        "time": 28.125,
        "duration": 0.173,
        "velocity": 0.3,
        "hand": "right"
      },
      {
        "midi": 47,
        "time": 28.313,
        "duration": 0.36,
        "velocity": 0.75,
        "hand": "left"
      },
      {
        "midi": 75,
        "time": 28.313,
        "duration": 0.188,
        "velocity": 0.69,
        "hand": "right"
      },
      {
        "midi": 80,
        "time": 28.313,
        "duration": 0.094,
        "velocity": 0.73,
        "hand": "right"
      },
      {
        "midi": 83,
        "time": 28.313,
        "duration": 0.188,
        "velocity": 0.81,
        "hand": "right"
      },
      {
        "midi": 59,
        "time": 28.5,
        "duration": 0.188,
        "velocity": 0.38,
        "hand": "left"
      },
      {
        "midi": 64,
        "time": 28.5,
        "duration": 0.188,
        "velocity": 0.69,
        "hand": "right"
      },
      {
        "midi": 68,
        "time": 28.5,
        "duration": 0.188,
        "velocity": 0.48,
        "hand": "right"
      },
      {
        "midi": 80,
        "time": 28.5,
        "duration": 0.094,
        "velocity": 0.66,
        "hand": "right"
      },
      {
        "midi": 82,
        "time": 28.5,
        "duration": 0.094,
        "velocity": 0.39,
        "hand": "right"
      },
      {
        "midi": 47,
        "time": 28.688,
        "duration": 0.563,
        "velocity": 0.67,
        "hand": "left"
      },
      {
        "midi": 75,
        "time": 28.688,
        "duration": 0.375,
        "velocity": 0.71,
        "hand": "right"
      },
      {
        "midi": 81,
        "time": 28.688,
        "duration": 0.188,
        "velocity": 0.81,
        "hand": "right"
      },
      {
        "midi": 83,
        "time": 28.688,
        "duration": 0.375,
        "velocity": 0.81,
        "hand": "right"
      },
      {
        "midi": 59,
        "time": 29.063,
        "duration": 0.188,
        "velocity": 0.53,
        "hand": "left"
      },
      {
        "midi": 73,
        "time": 29.063,
        "duration": 0.375,
        "velocity": 0.59,
        "hand": "right"
      },
      {
        "midi": 80,
        "time": 29.063,
        "duration": 0.094,
        "velocity": 0.69,
        "hand": "right"
      },
      {
        "midi": 82,
        "time": 29.063,
        "duration": 0.094,
        "velocity": 0.75,
        "hand": "right"
      },
      {
        "midi": 39,
        "time": 29.25,
        "duration": 0.563,
        "velocity": 0.66,
        "hand": "left"
      },
      {
        "midi": 80,
        "time": 29.25,
        "duration": 0.094,
        "velocity": 0.69,
        "hand": "right"
      },
      {
        "midi": 82,
        "time": 29.25,
        "duration": 0.094,
        "velocity": 0.62,
        "hand": "right"
      },
      {
        "midi": 69,
        "time": 29.438,
        "duration": 0.375,
        "velocity": 0.61,
        "hand": "right"
      },
      {
        "midi": 78,
        "time": 29.438,
        "duration": 0.375,
        "velocity": 0.89,
        "hand": "right"
      },
      {
        "midi": 81,
        "time": 29.438,
        "duration": 0.36,
        "velocity": 0.76,
        "hand": "right"
      },
      {
        "midi": 59,
        "time": 29.625,
        "duration": 0.094,
        "velocity": 0.33,
        "hand": "left"
      },
      {
        "midi": 63,
        "time": 29.625,
        "duration": 0.173,
        "velocity": 0.57,
        "hand": "right"
      },
      {
        "midi": 66,
        "time": 29.625,
        "duration": 0.173,
        "velocity": 0.57,
        "hand": "right"
      },
      {
        "midi": 42,
        "time": 29.813,
        "duration": 0.375,
        "velocity": 0.67,
        "hand": "left"
      },
      {
        "midi": 54,
        "time": 29.813,
        "duration": 0.094,
        "velocity": 0.83,
        "hand": "left"
      },
      {
        "midi": 73,
        "time": 29.813,
        "duration": 0.188,
        "velocity": 0.72,
        "hand": "right"
      },
      {
        "midi": 80,
        "time": 29.813,
        "duration": 0.094,
        "velocity": 0.7,
        "hand": "right"
      },
      {
        "midi": 82,
        "time": 29.813,
        "duration": 0.094,
        "velocity": 0.76,
        "hand": "right"
      },
      {
        "midi": 59,
        "time": 30,
        "duration": 0.188,
        "velocity": 0.37,
        "hand": "left"
      },
      {
        "midi": 63,
        "time": 30,
        "duration": 0.188,
        "velocity": 0.57,
        "hand": "right"
      },
      {
        "midi": 66,
        "time": 30,
        "duration": 0.188,
        "velocity": 0.59,
        "hand": "right"
      },
      {
        "midi": 80,
        "time": 30,
        "duration": 0.188,
        "velocity": 0.7,
        "hand": "right"
      },
      {
        "midi": 82,
        "time": 30,
        "duration": 0.094,
        "velocity": 0.61,
        "hand": "right"
      },
      {
        "midi": 40,
        "time": 30.188,
        "duration": 0.563,
        "velocity": 0.56,
        "hand": "left"
      },
      {
        "midi": 73,
        "time": 30.188,
        "duration": 0.375,
        "velocity": 0.76,
        "hand": "right"
      },
      {
        "midi": 81,
        "time": 30.188,
        "duration": 0.375,
        "velocity": 0.78,
        "hand": "right"
      },
      {
        "midi": 71,
        "time": 30.563,
        "duration": 0.735,
        "velocity": 0.59,
        "hand": "right"
      },
      {
        "midi": 80,
        "time": 30.563,
        "duration": 0.36,
        "velocity": 0.72,
        "hand": "right"
      },
      {
        "midi": 83,
        "time": 30.563,
        "duration": 0.938,
        "velocity": 0.53,
        "hand": "right"
      },
      {
        "midi": 59,
        "time": 30.75,
        "duration": 0.094,
        "velocity": 0.27,
        "hand": "left"
      },
      {
        "midi": 64,
        "time": 30.75,
        "duration": 0.188,
        "velocity": 0.64,
        "hand": "right"
      },
      {
        "midi": 68,
        "time": 30.75,
        "duration": 0.188,
        "velocity": 0.47,
        "hand": "right"
      },
      {
        "midi": 82,
        "time": 30.75,
        "duration": 0.094,
        "velocity": 0.65,
        "hand": "right"
      },
      {
        "midi": 44,
        "time": 30.938,
        "duration": 0.563,
        "velocity": 0.5,
        "hand": "left"
      },
      {
        "midi": 80,
        "time": 30.938,
        "duration": 0.094,
        "velocity": 0.58,
        "hand": "right"
      },
      {
        "midi": 68,
        "time": 31.125,
        "duration": 0.173,
        "velocity": 0.44,
        "hand": "right"
      },
      {
        "midi": 81,
        "time": 31.125,
        "duration": 0.188,
        "velocity": 0.67,
        "hand": "right"
      },
      {
        "midi": 54,
        "time": 31.313,
        "duration": 0.188,
        "velocity": 0.8,
        "hand": "left"
      },
      {
        "midi": 59,
        "time": 31.313,
        "duration": 0.188,
        "velocity": 0.37,
        "hand": "left"
      },
      {
        "midi": 64,
        "time": 31.313,
        "duration": 0.188,
        "velocity": 0.59,
        "hand": "right"
      },
      {
        "midi": 68,
        "time": 31.313,
        "duration": 0.094,
        "velocity": 0.55,
        "hand": "right"
      },
      {
        "midi": 71,
        "time": 31.313,
        "duration": 0.094,
        "velocity": 0.51,
        "hand": "right"
      },
      {
        "midi": 47,
        "time": 31.5,
        "duration": 0.375,
        "velocity": 0.61,
        "hand": "left"
      },
      {
        "midi": 80,
        "time": 31.5,
        "duration": 0.188,
        "velocity": 0.72,
        "hand": "right"
      },
      {
        "midi": 59,
        "time": 31.688,
        "duration": 0.094,
        "velocity": 0.13,
        "hand": "left"
      },
      {
        "midi": 64,
        "time": 31.688,
        "duration": 0.094,
        "velocity": 0.49,
        "hand": "right"
      },
      {
        "midi": 68,
        "time": 31.688,
        "duration": 0.188,
        "velocity": 0.35,
        "hand": "right"
      },
      {
        "midi": 38,
        "time": 31.875,
        "duration": 0.188,
        "velocity": 0.56,
        "hand": "left"
      },
      {
        "midi": 40,
        "time": 31.875,
        "duration": 1.313,
        "velocity": 0.73,
        "hand": "left"
      },
      {
        "midi": 81,
        "time": 31.875,
        "duration": 0.188,
        "velocity": 0.75,
        "hand": "right"
      },
      {
        "midi": 59,
        "time": 32.25,
        "duration": 0.094,
        "velocity": 0.24,
        "hand": "left"
      },
      {
        "midi": 68,
        "time": 32.25,
        "duration": 0.173,
        "velocity": 0.5,
        "hand": "right"
      },
      {
        "midi": 71,
        "time": 32.25,
        "duration": 0.094,
        "velocity": 0.4,
        "hand": "right"
      },
      {
        "midi": 80,
        "time": 32.25,
        "duration": 0.094,
        "velocity": 0.73,
        "hand": "right"
      },
      {
        "midi": 82,
        "time": 32.25,
        "duration": 0.094,
        "velocity": 0.76,
        "hand": "right"
      },
      {
        "midi": 59,
        "time": 32.438,
        "duration": 0.094,
        "velocity": 0.45,
        "hand": "left"
      },
      {
        "midi": 64,
        "time": 32.438,
        "duration": 0.094,
        "velocity": 0.62,
        "hand": "right"
      },
      {
        "midi": 68,
        "time": 32.438,
        "duration": 0.094,
        "velocity": 0.08,
        "hand": "right"
      },
      {
        "midi": 80,
        "time": 32.438,
        "duration": 0.188,
        "velocity": 0.57,
        "hand": "right"
      },
      {
        "midi": 82,
        "time": 32.438,
        "duration": 0.094,
        "velocity": 0.58,
        "hand": "right"
      },
      {
        "midi": 47,
        "time": 32.625,
        "duration": 0.563,
        "velocity": 0.8,
        "hand": "left"
      },
      {
        "midi": 81,
        "time": 32.625,
        "duration": 0.188,
        "velocity": 0.73,
        "hand": "right"
      },
      {
        "midi": 78,
        "time": 32.813,
        "duration": 0.563,
        "velocity": 0.84,
        "hand": "right"
      },
      {
        "midi": 54,
        "time": 33,
        "duration": 0.188,
        "velocity": 0.74,
        "hand": "left"
      },
      {
        "midi": 69,
        "time": 33,
        "duration": 0.375,
        "velocity": 0.67,
        "hand": "right"
      },
      {
        "midi": 71,
        "time": 33,
        "duration": 0.094,
        "velocity": 0.5,
        "hand": "right"
      },
      {
        "midi": 80,
        "time": 33,
        "duration": 0.094,
        "velocity": 0.67,
        "hand": "right"
      },
      {
        "midi": 61,
        "time": 33.188,
        "duration": 0.094,
        "velocity": 0.46,
        "hand": "right"
      },
      {
        "midi": 64,
        "time": 33.188,
        "duration": 0.188,
        "velocity": 0.59,
        "hand": "right"
      },
      {
        "midi": 80,
        "time": 33.188,
        "duration": 0.188,
        "velocity": 0.74,
        "hand": "right"
      },
      {
        "midi": 40,
        "time": 33.375,
        "duration": 0.375,
        "velocity": 0.84,
        "hand": "left"
      },
      {
        "midi": 76,
        "time": 33.375,
        "duration": 2.625,
        "velocity": 0.65,
        "hand": "right"
      },
      {
        "midi": 81,
        "time": 33.375,
        "duration": 0.188,
        "velocity": 0.8,
        "hand": "right"
      },
      {
        "midi": 64,
        "time": 33.563,
        "duration": 0.172,
        "velocity": 0.67,
        "hand": "right"
      },
      {
        "midi": 59,
        "time": 33.75,
        "duration": 0.094,
        "velocity": 0.28,
        "hand": "left"
      },
      {
        "midi": 64,
        "time": 33.75,
        "duration": 0.094,
        "velocity": 0.67,
        "hand": "right"
      },
      {
        "midi": 66,
        "time": 33.75,
        "duration": 0.188,
        "velocity": 0.52,
        "hand": "right"
      },
      {
        "midi": 68,
        "time": 33.75,
        "duration": 0.173,
        "velocity": 0.61,
        "hand": "right"
      },
      {
        "midi": 80,
        "time": 33.75,
        "duration": 0.094,
        "velocity": 0.76,
        "hand": "right"
      },
      {
        "midi": 40,
        "time": 33.938,
        "duration": 0.75,
        "velocity": 0.76,
        "hand": "left"
      },
      {
        "midi": 68,
        "time": 33.938,
        "duration": 0.172,
        "velocity": 0.54,
        "hand": "right"
      },
      {
        "midi": 80,
        "time": 33.938,
        "duration": 0.094,
        "velocity": 0.75,
        "hand": "right"
      },
      {
        "midi": 68,
        "time": 34.125,
        "duration": 0.173,
        "velocity": 0.8,
        "hand": "right"
      },
      {
        "midi": 71,
        "time": 34.125,
        "duration": 0.36,
        "velocity": 0.59,
        "hand": "right"
      },
      {
        "midi": 59,
        "time": 34.313,
        "duration": 0.094,
        "velocity": 0.34,
        "hand": "left"
      },
      {
        "midi": 64,
        "time": 34.313,
        "duration": 0.188,
        "velocity": 0.81,
        "hand": "right"
      },
      {
        "midi": 68,
        "time": 34.313,
        "duration": 0.188,
        "velocity": 0.72,
        "hand": "right"
      },
      {
        "midi": 54,
        "time": 34.5,
        "duration": 0.188,
        "velocity": 0.82,
        "hand": "left"
      },
      {
        "midi": 59,
        "time": 34.5,
        "duration": 0.188,
        "velocity": 0.59,
        "hand": "left"
      },
      {
        "midi": 71,
        "time": 34.5,
        "duration": 0.188,
        "velocity": 0.86,
        "hand": "right"
      },
      {
        "midi": 80,
        "time": 34.5,
        "duration": 0.094,
        "velocity": 0.83,
        "hand": "right"
      },
      {
        "midi": 64,
        "time": 34.688,
        "duration": 0.188,
        "velocity": 0.8,
        "hand": "right"
      },
      {
        "midi": 80,
        "time": 34.688,
        "duration": 0.188,
        "velocity": 0.67,
        "hand": "right"
      },
      {
        "midi": 40,
        "time": 34.875,
        "duration": 1.313,
        "velocity": 0.84,
        "hand": "left"
      },
      {
        "midi": 71,
        "time": 34.875,
        "duration": 0.375,
        "velocity": 0.84,
        "hand": "right"
      },
      {
        "midi": 81,
        "time": 34.875,
        "duration": 0.188,
        "velocity": 0.83,
        "hand": "right"
      },
      {
        "midi": 59,
        "time": 35.25,
        "duration": 0.094,
        "velocity": 0.5,
        "hand": "left"
      },
      {
        "midi": 64,
        "time": 35.25,
        "duration": 0.188,
        "velocity": 0.87,
        "hand": "right"
      },
      {
        "midi": 69,
        "time": 35.25,
        "duration": 0.188,
        "velocity": 0.89,
        "hand": "right"
      },
      {
        "midi": 80,
        "time": 35.25,
        "duration": 0.094,
        "velocity": 0.65,
        "hand": "right"
      },
      {
        "midi": 59,
        "time": 35.438,
        "duration": 0.188,
        "velocity": 0.53,
        "hand": "left"
      },
      {
        "midi": 80,
        "time": 35.438,
        "duration": 0.188,
        "velocity": 0.63,
        "hand": "right"
      },
      {
        "midi": 47,
        "time": 35.625,
        "duration": 0.563,
        "velocity": 0.8,
        "hand": "left"
      },
      {
        "midi": 69,
        "time": 35.625,
        "duration": 0.36,
        "velocity": 0.92,
        "hand": "right"
      },
      {
        "midi": 75,
        "time": 35.813,
        "duration": 0.563,
        "velocity": 0.87,
        "hand": "right"
      },
      {
        "midi": 64,
        "time": 36,
        "duration": 0.188,
        "velocity": 0.78,
        "hand": "right"
      },
      {
        "midi": 69,
        "time": 36,
        "duration": 0.188,
        "velocity": 0.7,
        "hand": "right"
      },
      {
        "midi": 73,
        "time": 36,
        "duration": 0.188,
        "velocity": 0.91,
        "hand": "right"
      },
      {
        "midi": 80,
        "time": 36,
        "duration": 0.094,
        "velocity": 0.74,
        "hand": "right"
      },
      {
        "midi": 61,
        "time": 36.188,
        "duration": 0.188,
        "velocity": 0.67,
        "hand": "right"
      },
      {
        "midi": 80,
        "time": 36.188,
        "duration": 0.188,
        "velocity": 0.7,
        "hand": "right"
      },
      {
        "midi": 40,
        "time": 36.375,
        "duration": 0.375,
        "velocity": 0.84,
        "hand": "left"
      },
      {
        "midi": 74,
        "time": 36.375,
        "duration": 2.438,
        "velocity": 0.76,
        "hand": "right"
      },
      {
        "midi": 81,
        "time": 36.375,
        "duration": 0.188,
        "velocity": 0.8,
        "hand": "right"
      },
      {
        "midi": 64,
        "time": 36.563,
        "duration": 0.172,
        "velocity": 0.61,
        "hand": "right"
      },
      {
        "midi": 54,
        "time": 36.75,
        "duration": 0.094,
        "velocity": 0.71,
        "hand": "left"
      },
      {
        "midi": 59,
        "time": 36.75,
        "duration": 0.094,
        "velocity": 0.49,
        "hand": "left"
      },
      {
        "midi": 64,
        "time": 36.75,
        "duration": 0.094,
        "velocity": 0.73,
        "hand": "right"
      },
      {
        "midi": 66,
        "time": 36.75,
        "duration": 0.188,
        "velocity": 0.59,
        "hand": "right"
      },
      {
        "midi": 68,
        "time": 36.75,
        "duration": 0.173,
        "velocity": 0.69,
        "hand": "right"
      },
      {
        "midi": 71,
        "time": 36.75,
        "duration": 0.375,
        "velocity": 0.86,
        "hand": "right"
      },
      {
        "midi": 40,
        "time": 36.938,
        "duration": 2.25,
        "velocity": 0.8,
        "hand": "left"
      },
      {
        "midi": 68,
        "time": 36.938,
        "duration": 0.172,
        "velocity": 0.6,
        "hand": "right"
      },
      {
        "midi": 68,
        "time": 37.125,
        "duration": 0.173,
        "velocity": 0.87,
        "hand": "right"
      },
      {
        "midi": 76,
        "time": 37.125,
        "duration": 0.75,
        "velocity": 0.75,
        "hand": "right"
      },
      {
        "midi": 64,
        "time": 37.313,
        "duration": 0.188,
        "velocity": 0.73,
        "hand": "right"
      },
      {
        "midi": 68,
        "time": 37.313,
        "duration": 0.188,
        "velocity": 0.71,
        "hand": "right"
      },
      {
        "midi": 59,
        "time": 37.5,
        "duration": 0.188,
        "velocity": 0.65,
        "hand": "left"
      },
      {
        "midi": 71,
        "time": 37.5,
        "duration": 0.188,
        "velocity": 0.84,
        "hand": "right"
      },
      {
        "midi": 64,
        "time": 37.688,
        "duration": 0.188,
        "velocity": 0.75,
        "hand": "right"
      },
      {
        "midi": 68,
        "time": 37.875,
        "duration": 0.375,
        "velocity": 0.71,
        "hand": "right"
      },
      {
        "midi": 71,
        "time": 37.875,
        "duration": 0.375,
        "velocity": 0.86,
        "hand": "right"
      },
      {
        "midi": 81,
        "time": 37.875,
        "duration": 0.188,
        "velocity": 0.8,
        "hand": "right"
      },
      {
        "midi": 54,
        "time": 38.25,
        "duration": 0.094,
        "velocity": 0.72,
        "hand": "left"
      },
      {
        "midi": 59,
        "time": 38.25,
        "duration": 0.173,
        "velocity": 0.75,
        "hand": "left"
      },
      {
        "midi": 69,
        "time": 38.25,
        "duration": 0.375,
        "velocity": 0.76,
        "hand": "right"
      },
      {
        "midi": 59,
        "time": 38.438,
        "duration": 0.094,
        "velocity": 0.64,
        "hand": "left"
      },
      {
        "midi": 64,
        "time": 38.438,
        "duration": 0.188,
        "velocity": 0.72,
        "hand": "right"
      },
      {
        "midi": 68,
        "time": 38.438,
        "duration": 0.172,
        "velocity": 0.67,
        "hand": "right"
      },
      {
        "midi": 47,
        "time": 38.625,
        "duration": 0.563,
        "velocity": 0.76,
        "hand": "left"
      },
      {
        "midi": 68,
        "time": 38.625,
        "duration": 0.375,
        "velocity": 0.82,
        "hand": "right"
      },
      {
        "midi": 80,
        "time": 38.625,
        "duration": 0.188,
        "velocity": 0.75,
        "hand": "right"
      },
      {
        "midi": 73,
        "time": 38.813,
        "duration": 0.563,
        "velocity": 0.84,
        "hand": "right"
      },
      {
        "midi": 64,
        "time": 39,
        "duration": 0.188,
        "velocity": 0.81,
        "hand": "right"
      },
      {
        "midi": 66,
        "time": 39,
        "duration": 0.375,
        "velocity": 0.84,
        "hand": "right"
      },
      {
        "midi": 69,
        "time": 39,
        "duration": 0.188,
        "velocity": 0.67,
        "hand": "right"
      },
      {
        "midi": 81,
        "time": 39,
        "duration": 0.094,
        "velocity": 0.67,
        "hand": "right"
      },
      {
        "midi": 61,
        "time": 39.188,
        "duration": 0.188,
        "velocity": 0.69,
        "hand": "right"
      },
      {
        "midi": 40,
        "time": 39.375,
        "duration": 1.313,
        "velocity": 0.84,
        "hand": "left"
      },
      {
        "midi": 59,
        "time": 39.375,
        "duration": 0.094,
        "velocity": 0.81,
        "hand": "left"
      },
      {
        "midi": 64,
        "time": 39.375,
        "duration": 0.173,
        "velocity": 0.76,
        "hand": "right"
      },
      {
        "midi": 72,
        "time": 39.375,
        "duration": 1.5,
        "velocity": 0.74,
        "hand": "right"
      },
      {
        "midi": 64,
        "time": 39.563,
        "duration": 0.172,
        "velocity": 0.64,
        "hand": "right"
      },
      {
        "midi": 54,
        "time": 39.75,
        "duration": 0.094,
        "velocity": 0.75,
        "hand": "left"
      },
      {
        "midi": 64,
        "time": 39.75,
        "duration": 0.188,
        "velocity": 0.84,
        "hand": "right"
      },
      {
        "midi": 66,
        "time": 39.75,
        "duration": 0.188,
        "velocity": 0.43,
        "hand": "right"
      },
      {
        "midi": 68,
        "time": 39.75,
        "duration": 0.173,
        "velocity": 0.79,
        "hand": "right"
      },
      {
        "midi": 81,
        "time": 39.75,
        "duration": 0.094,
        "velocity": 0.72,
        "hand": "right"
      },
      {
        "midi": 59,
        "time": 39.938,
        "duration": 0.188,
        "velocity": 0.64,
        "hand": "left"
      },
      {
        "midi": 68,
        "time": 39.938,
        "duration": 0.188,
        "velocity": 0.6,
        "hand": "right"
      },
      {
        "midi": 47,
        "time": 40.125,
        "duration": 0.563,
        "velocity": 0.78,
        "hand": "left"
      },
      {
        "midi": 78,
        "time": 40.125,
        "duration": 0.188,
        "velocity": 0.83,
        "hand": "right"
      },
      {
        "midi": 59,
        "time": 40.313,
        "duration": 0.094,
        "velocity": 0.67,
        "hand": "left"
      },
      {
        "midi": 76,
        "time": 40.313,
        "duration": 0.188,
        "velocity": 0.64,
        "hand": "right"
      },
      {
        "midi": 61,
        "time": 40.5,
        "duration": 0.094,
        "velocity": 0.57,
        "hand": "right"
      },
      {
        "midi": 64,
        "time": 40.5,
        "duration": 0.188,
        "velocity": 0.81,
        "hand": "right"
      },
      {
        "midi": 69,
        "time": 40.5,
        "duration": 0.188,
        "velocity": 0.73,
        "hand": "right"
      },
      {
        "midi": 81,
        "time": 40.5,
        "duration": 0.094,
        "velocity": 0.65,
        "hand": "right"
      },
      {
        "midi": 61,
        "time": 40.688,
        "duration": 0.188,
        "velocity": 0.61,
        "hand": "right"
      },
      {
        "midi": 40,
        "time": 40.875,
        "duration": 1.313,
        "velocity": 0.89,
        "hand": "left"
      },
      {
        "midi": 59,
        "time": 40.875,
        "duration": 0.188,
        "velocity": 0.5,
        "hand": "left"
      },
      {
        "midi": 70,
        "time": 40.875,
        "duration": 1.5,
        "velocity": 0.82,
        "hand": "right"
      },
      {
        "midi": 64,
        "time": 41.063,
        "duration": 0.172,
        "velocity": 0.8,
        "hand": "right"
      },
      {
        "midi": 54,
        "time": 41.25,
        "duration": 0.094,
        "velocity": 0.85,
        "hand": "left"
      },
      {
        "midi": 59,
        "time": 41.25,
        "duration": 0.173,
        "velocity": 0.67,
        "hand": "left"
      },
      {
        "midi": 64,
        "time": 41.25,
        "duration": 0.094,
        "velocity": 0.7,
        "hand": "right"
      },
      {
        "midi": 66,
        "time": 41.25,
        "duration": 0.188,
        "velocity": 0.45,
        "hand": "right"
      },
      {
        "midi": 81,
        "time": 41.25,
        "duration": 0.094,
        "velocity": 0.67,
        "hand": "right"
      },
      {
        "midi": 59,
        "time": 41.438,
        "duration": 0.094,
        "velocity": 0.5,
        "hand": "left"
      },
      {
        "midi": 64,
        "time": 41.438,
        "duration": 0.188,
        "velocity": 0.09,
        "hand": "right"
      },
      {
        "midi": 68,
        "time": 41.438,
        "duration": 0.188,
        "velocity": 0.69,
        "hand": "right"
      },
      {
        "midi": 47,
        "time": 41.625,
        "duration": 0.563,
        "velocity": 0.76,
        "hand": "left"
      },
      {
        "midi": 78,
        "time": 41.625,
        "duration": 0.188,
        "velocity": 0.83,
        "hand": "right"
      },
      {
        "midi": 59,
        "time": 41.813,
        "duration": 0.188,
        "velocity": 0.46,
        "hand": "left"
      },
      {
        "midi": 76,
        "time": 41.813,
        "duration": 0.188,
        "velocity": 0.54,
        "hand": "right"
      },
      {
        "midi": 64,
        "time": 42,
        "duration": 0.094,
        "velocity": 0.7,
        "hand": "right"
      },
      {
        "midi": 69,
        "time": 42,
        "duration": 0.173,
        "velocity": 0.76,
        "hand": "right"
      },
      {
        "midi": 75,
        "time": 42,
        "duration": 0.188,
        "velocity": 0.65,
        "hand": "right"
      },
      {
        "midi": 81,
        "time": 42,
        "duration": 0.094,
        "velocity": 0.53,
        "hand": "right"
      },
      {
        "midi": 64,
        "time": 42.188,
        "duration": 0.188,
        "velocity": 0.7,
        "hand": "right"
      },
      {
        "midi": 69,
        "time": 42.188,
        "duration": 0.094,
        "velocity": 0.69,
        "hand": "right"
      },
      {
        "midi": 78,
        "time": 42.188,
        "duration": 0.188,
        "velocity": 0.83,
        "hand": "right"
      },
      {
        "midi": 38,
        "time": 42.375,
        "duration": 0.188,
        "velocity": 0.7,
        "hand": "left"
      },
      {
        "midi": 40,
        "time": 42.375,
        "duration": 2.25,
        "velocity": 0.81,
        "hand": "left"
      },
      {
        "midi": 71,
        "time": 42.375,
        "duration": 3.188,
        "velocity": 0.53,
        "hand": "right"
      },
      {
        "midi": 76,
        "time": 42.375,
        "duration": 2.813,
        "velocity": 0.46,
        "hand": "right"
      },
      {
        "midi": 59,
        "time": 42.563,
        "duration": 0.094,
        "velocity": 0.56,
        "hand": "left"
      },
      {
        "midi": 47,
        "time": 42.75,
        "duration": 1.875,
        "velocity": 0.64,
        "hand": "left"
      },
      {
        "midi": 54,
        "time": 42.75,
        "duration": 0.094,
        "velocity": 0.75,
        "hand": "left"
      },
      {
        "midi": 64,
        "time": 42.938,
        "duration": 1.875,
        "velocity": 0.76,
        "hand": "right"
      },
      {
        "midi": 68,
        "time": 42.938,
        "duration": 2.063,
        "velocity": 0.65,
        "hand": "right"
      },
      {
        "midi": 69,
        "time": 43.688,
        "duration": 0.094,
        "velocity": 0.51,
        "hand": "right"
      },
      {
        "midi": 59,
        "time": 43.875,
        "duration": 0.094,
        "velocity": 0.38,
        "hand": "left"
      },
      {
        "midi": 69,
        "time": 43.875,
        "duration": 0.094,
        "velocity": 0.49,
        "hand": "right"
      },
      {
        "midi": 59,
        "time": 44.25,
        "duration": 0.094,
        "velocity": 0.61,
        "hand": "left"
      },
      {
        "midi": 69,
        "time": 45.188,
        "duration": 0.094,
        "velocity": 0.46,
        "hand": "right"
      },
      {
        "midi": 69,
        "time": 45.375,
        "duration": 0.094,
        "velocity": 0.2,
        "hand": "right"
      }
    ]
  },
  "notes1Hand": [
    {
      "midi": 66,
      "time": 0,
      "duration": 0.45,
      "velocity": 0.69,
      "hand": "right"
    },
    {
      "midi": 68,
      "time": 0.75,
      "duration": 0.45,
      "velocity": 0.65,
      "hand": "right"
    },
    {
      "midi": 83,
      "time": 1.5,
      "duration": 0.45,
      "velocity": 0.65,
      "hand": "right"
    },
    {
      "midi": 81,
      "time": 2.25,
      "duration": 0.45,
      "velocity": 0.67,
      "hand": "right"
    },
    {
      "midi": 80,
      "time": 3,
      "duration": 0.45,
      "velocity": 0.57,
      "hand": "right"
    },
    {
      "midi": 83,
      "time": 3.75,
      "duration": 0.45,
      "velocity": 0.7,
      "hand": "right"
    },
    {
      "midi": 83,
      "time": 4.5,
      "duration": 0.45,
      "velocity": 0.7,
      "hand": "right"
    },
    {
      "midi": 81,
      "time": 5.25,
      "duration": 0.45,
      "velocity": 0.67,
      "hand": "right"
    },
    {
      "midi": 81,
      "time": 6,
      "duration": 0.45,
      "velocity": 0.7,
      "hand": "right"
    },
    {
      "midi": 82,
      "time": 6.75,
      "duration": 0.45,
      "velocity": 0.83,
      "hand": "right"
    },
    {
      "midi": 83,
      "time": 7.5,
      "duration": 0.45,
      "velocity": 0.75,
      "hand": "right"
    },
    {
      "midi": 80,
      "time": 8.25,
      "duration": 0.45,
      "velocity": 0.74,
      "hand": "right"
    },
    {
      "midi": 80,
      "time": 9,
      "duration": 0.45,
      "velocity": 0.72,
      "hand": "right"
    },
    {
      "midi": 80,
      "time": 9.75,
      "duration": 0.45,
      "velocity": 0.69,
      "hand": "right"
    },
    {
      "midi": 83,
      "time": 10.688,
      "duration": 0.45,
      "velocity": 0.8,
      "hand": "right"
    },
    {
      "midi": 81,
      "time": 11.438,
      "duration": 0.45,
      "velocity": 0.84,
      "hand": "right"
    },
    {
      "midi": 81,
      "time": 12.188,
      "duration": 0.45,
      "velocity": 0.76,
      "hand": "right"
    },
    {
      "midi": 80,
      "time": 12.938,
      "duration": 0.45,
      "velocity": 0.69,
      "hand": "right"
    },
    {
      "midi": 80,
      "time": 13.688,
      "duration": 0.45,
      "velocity": 0.65,
      "hand": "right"
    },
    {
      "midi": 80,
      "time": 14.438,
      "duration": 0.45,
      "velocity": 0.69,
      "hand": "right"
    },
    {
      "midi": 82,
      "time": 15.188,
      "duration": 0.45,
      "velocity": 0.48,
      "hand": "right"
    },
    {
      "midi": 80,
      "time": 15.938,
      "duration": 0.45,
      "velocity": 0.67,
      "hand": "right"
    },
    {
      "midi": 80,
      "time": 16.688,
      "duration": 0.45,
      "velocity": 0.66,
      "hand": "right"
    },
    {
      "midi": 80,
      "time": 17.438,
      "duration": 0.45,
      "velocity": 0.69,
      "hand": "right"
    },
    {
      "midi": 82,
      "time": 18.188,
      "duration": 0.45,
      "velocity": 0.57,
      "hand": "right"
    },
    {
      "midi": 80,
      "time": 18.938,
      "duration": 0.45,
      "velocity": 0.69,
      "hand": "right"
    },
    {
      "midi": 82,
      "time": 19.688,
      "duration": 0.45,
      "velocity": 0.6,
      "hand": "right"
    },
    {
      "midi": 80,
      "time": 20.438,
      "duration": 0.45,
      "velocity": 0.69,
      "hand": "right"
    },
    {
      "midi": 82,
      "time": 21.188,
      "duration": 0.45,
      "velocity": 0.61,
      "hand": "right"
    },
    {
      "midi": 80,
      "time": 21.938,
      "duration": 0.45,
      "velocity": 0.8,
      "hand": "right"
    },
    {
      "midi": 83,
      "time": 22.688,
      "duration": 0.45,
      "velocity": 0.8,
      "hand": "right"
    },
    {
      "midi": 80,
      "time": 23.438,
      "duration": 0.45,
      "velocity": 0.72,
      "hand": "right"
    },
    {
      "midi": 82,
      "time": 24.188,
      "duration": 0.45,
      "velocity": 0.57,
      "hand": "right"
    },
    {
      "midi": 83,
      "time": 24.938,
      "duration": 0.45,
      "velocity": 0.67,
      "hand": "right"
    },
    {
      "midi": 83,
      "time": 25.688,
      "duration": 0.45,
      "velocity": 0.81,
      "hand": "right"
    },
    {
      "midi": 81,
      "time": 26.438,
      "duration": 0.45,
      "velocity": 0.78,
      "hand": "right"
    },
    {
      "midi": 81,
      "time": 27.188,
      "duration": 0.45,
      "velocity": 0.78,
      "hand": "right"
    },
    {
      "midi": 83,
      "time": 27.938,
      "duration": 0.45,
      "velocity": 0.62,
      "hand": "right"
    },
    {
      "midi": 83,
      "time": 28.688,
      "duration": 0.45,
      "velocity": 0.81,
      "hand": "right"
    },
    {
      "midi": 81,
      "time": 29.438,
      "duration": 0.45,
      "velocity": 0.76,
      "hand": "right"
    },
    {
      "midi": 81,
      "time": 30.188,
      "duration": 0.45,
      "velocity": 0.78,
      "hand": "right"
    },
    {
      "midi": 80,
      "time": 30.938,
      "duration": 0.45,
      "velocity": 0.58,
      "hand": "right"
    },
    {
      "midi": 68,
      "time": 31.688,
      "duration": 0.45,
      "velocity": 0.35,
      "hand": "right"
    },
    {
      "midi": 82,
      "time": 32.438,
      "duration": 0.45,
      "velocity": 0.58,
      "hand": "right"
    },
    {
      "midi": 80,
      "time": 33.188,
      "duration": 0.45,
      "velocity": 0.74,
      "hand": "right"
    },
    {
      "midi": 80,
      "time": 33.938,
      "duration": 0.45,
      "velocity": 0.75,
      "hand": "right"
    },
    {
      "midi": 80,
      "time": 34.688,
      "duration": 0.45,
      "velocity": 0.67,
      "hand": "right"
    },
    {
      "midi": 80,
      "time": 35.438,
      "duration": 0.45,
      "velocity": 0.63,
      "hand": "right"
    },
    {
      "midi": 80,
      "time": 36.188,
      "duration": 0.45,
      "velocity": 0.7,
      "hand": "right"
    },
    {
      "midi": 68,
      "time": 36.938,
      "duration": 0.45,
      "velocity": 0.6,
      "hand": "right"
    },
    {
      "midi": 64,
      "time": 37.688,
      "duration": 0.45,
      "velocity": 0.75,
      "hand": "right"
    },
    {
      "midi": 68,
      "time": 38.438,
      "duration": 0.45,
      "velocity": 0.67,
      "hand": "right"
    },
    {
      "midi": 61,
      "time": 39.188,
      "duration": 0.45,
      "velocity": 0.69,
      "hand": "right"
    },
    {
      "midi": 68,
      "time": 39.938,
      "duration": 0.45,
      "velocity": 0.6,
      "hand": "right"
    },
    {
      "midi": 61,
      "time": 40.688,
      "duration": 0.45,
      "velocity": 0.61,
      "hand": "right"
    },
    {
      "midi": 68,
      "time": 41.438,
      "duration": 0.45,
      "velocity": 0.69,
      "hand": "right"
    },
    {
      "midi": 78,
      "time": 42.188,
      "duration": 0.45,
      "velocity": 0.83,
      "hand": "right"
    },
    {
      "midi": 68,
      "time": 42.938,
      "duration": 2.063,
      "velocity": 0.65,
      "hand": "right"
    },
    {
      "midi": 69,
      "time": 43.688,
      "duration": 0.45,
      "velocity": 0.51,
      "hand": "right"
    },
    {
      "midi": 69,
      "time": 45.188,
      "duration": 0.45,
      "velocity": 0.46,
      "hand": "right"
    }
  ],
  "notes2Hands": [
    {
      "midi": 54,
      "time": 0,
      "duration": 0.094,
      "velocity": 0.69,
      "hand": "left"
    },
    {
      "midi": 40,
      "time": 0.375,
      "duration": 0.375,
      "velocity": 0.67,
      "hand": "left"
    },
    {
      "midi": 59,
      "time": 0.75,
      "duration": 0.094,
      "velocity": 0.26,
      "hand": "left"
    },
    {
      "midi": 64,
      "time": 0.75,
      "duration": 0.094,
      "velocity": 0.76,
      "hand": "right"
    },
    {
      "midi": 68,
      "time": 0.75,
      "duration": 0.188,
      "velocity": 0.65,
      "hand": "right"
    },
    {
      "midi": 40,
      "time": 0.938,
      "duration": 0.75,
      "velocity": 0.73,
      "hand": "left"
    },
    {
      "midi": 80,
      "time": 1.125,
      "duration": 0.375,
      "velocity": 0.74,
      "hand": "right"
    },
    {
      "midi": 59,
      "time": 1.5,
      "duration": 0.188,
      "velocity": 0.43,
      "hand": "left"
    },
    {
      "midi": 64,
      "time": 1.5,
      "duration": 0.375,
      "velocity": 0.76,
      "hand": "right"
    },
    {
      "midi": 68,
      "time": 1.5,
      "duration": 0.375,
      "velocity": 0.75,
      "hand": "right"
    },
    {
      "midi": 83,
      "time": 1.5,
      "duration": 0.188,
      "velocity": 0.65,
      "hand": "right"
    },
    {
      "midi": 47,
      "time": 1.875,
      "duration": 0.375,
      "velocity": 0.72,
      "hand": "left"
    },
    {
      "midi": 81,
      "time": 1.875,
      "duration": 0.188,
      "velocity": 0.76,
      "hand": "right"
    },
    {
      "midi": 83,
      "time": 1.875,
      "duration": 0.375,
      "velocity": 0.7,
      "hand": "right"
    },
    {
      "midi": 59,
      "time": 2.25,
      "duration": 0.094,
      "velocity": 0.27,
      "hand": "left"
    },
    {
      "midi": 63,
      "time": 2.25,
      "duration": 0.188,
      "velocity": 0.54,
      "hand": "right"
    },
    {
      "midi": 66,
      "time": 2.25,
      "duration": 0.188,
      "velocity": 0.54,
      "hand": "right"
    },
    {
      "midi": 81,
      "time": 2.25,
      "duration": 0.188,
      "velocity": 0.67,
      "hand": "right"
    },
    {
      "midi": 51,
      "time": 2.438,
      "duration": 0.563,
      "velocity": 0.63,
      "hand": "left"
    },
    {
      "midi": 80,
      "time": 2.438,
      "duration": 0.188,
      "velocity": 0.6,
      "hand": "right"
    },
    {
      "midi": 54,
      "time": 2.625,
      "duration": 0.094,
      "velocity": 0.76,
      "hand": "left"
    },
    {
      "midi": 81,
      "time": 2.625,
      "duration": 0.173,
      "velocity": 0.62,
      "hand": "right"
    },
    {
      "midi": 63,
      "time": 2.813,
      "duration": 0.188,
      "velocity": 0.57,
      "hand": "right"
    },
    {
      "midi": 66,
      "time": 2.813,
      "duration": 0.188,
      "velocity": 0.53,
      "hand": "right"
    },
    {
      "midi": 81,
      "time": 2.813,
      "duration": 0.094,
      "velocity": 0.75,
      "hand": "right"
    },
    {
      "midi": 54,
      "time": 3,
      "duration": 0.188,
      "velocity": 0.72,
      "hand": "left"
    },
    {
      "midi": 73,
      "time": 3,
      "duration": 0.188,
      "velocity": 0.7,
      "hand": "right"
    },
    {
      "midi": 80,
      "time": 3,
      "duration": 0.094,
      "velocity": 0.57,
      "hand": "right"
    },
    {
      "midi": 63,
      "time": 3.188,
      "duration": 0.188,
      "velocity": 0.5,
      "hand": "right"
    },
    {
      "midi": 66,
      "time": 3.188,
      "duration": 0.188,
      "velocity": 0.51,
      "hand": "right"
    },
    {
      "midi": 80,
      "time": 3.188,
      "duration": 0.188,
      "velocity": 0.54,
      "hand": "right"
    },
    {
      "midi": 40,
      "time": 3.375,
      "duration": 0.563,
      "velocity": 0.76,
      "hand": "left"
    },
    {
      "midi": 73,
      "time": 3.375,
      "duration": 0.375,
      "velocity": 0.73,
      "hand": "right"
    },
    {
      "midi": 81,
      "time": 3.375,
      "duration": 0.094,
      "velocity": 0.73,
      "hand": "right"
    },
    {
      "midi": 59,
      "time": 3.75,
      "duration": 0.094,
      "velocity": 0.25,
      "hand": "left"
    },
    {
      "midi": 64,
      "time": 3.75,
      "duration": 0.094,
      "velocity": 0.67,
      "hand": "right"
    },
    {
      "midi": 68,
      "time": 3.75,
      "duration": 0.188,
      "velocity": 0.57,
      "hand": "right"
    },
    {
      "midi": 80,
      "time": 3.75,
      "duration": 0.094,
      "velocity": 0.6,
      "hand": "right"
    },
    {
      "midi": 83,
      "time": 3.75,
      "duration": 0.188,
      "velocity": 0.7,
      "hand": "right"
    },
    {
      "midi": 44,
      "time": 3.938,
      "duration": 0.563,
      "velocity": 0.69,
      "hand": "left"
    },
    {
      "midi": 80,
      "time": 3.938,
      "duration": 0.172,
      "velocity": 0.61,
      "hand": "right"
    },
    {
      "midi": 54,
      "time": 4.125,
      "duration": 0.094,
      "velocity": 0.82,
      "hand": "left"
    },
    {
      "midi": 81,
      "time": 4.125,
      "duration": 0.188,
      "velocity": 0.7,
      "hand": "right"
    },
    {
      "midi": 64,
      "time": 4.313,
      "duration": 0.094,
      "velocity": 0.51,
      "hand": "right"
    },
    {
      "midi": 68,
      "time": 4.313,
      "duration": 0.188,
      "velocity": 0.51,
      "hand": "right"
    },
    {
      "midi": 47,
      "time": 4.5,
      "duration": 0.36,
      "velocity": 0.73,
      "hand": "left"
    },
    {
      "midi": 80,
      "time": 4.5,
      "duration": 0.094,
      "velocity": 0.65,
      "hand": "right"
    },
    {
      "midi": 83,
      "time": 4.5,
      "duration": 0.188,
      "velocity": 0.7,
      "hand": "right"
    },
    {
      "midi": 59,
      "time": 4.688,
      "duration": 0.094,
      "velocity": 0.16,
      "hand": "left"
    },
    {
      "midi": 64,
      "time": 4.688,
      "duration": 0.188,
      "velocity": 0.47,
      "hand": "right"
    },
    {
      "midi": 68,
      "time": 4.688,
      "duration": 0.188,
      "velocity": 0.38,
      "hand": "right"
    },
    {
      "midi": 80,
      "time": 4.688,
      "duration": 0.188,
      "velocity": 0.61,
      "hand": "right"
    },
    {
      "midi": 47,
      "time": 4.875,
      "duration": 0.563,
      "velocity": 0.67,
      "hand": "left"
    },
    {
      "midi": 81,
      "time": 4.875,
      "duration": 0.094,
      "velocity": 0.75,
      "hand": "right"
    },
    {
      "midi": 83,
      "time": 4.875,
      "duration": 0.375,
      "velocity": 0.7,
      "hand": "right"
    },
    {
      "midi": 59,
      "time": 5.25,
      "duration": 0.188,
      "velocity": 0.17,
      "hand": "left"
    },
    {
      "midi": 63,
      "time": 5.25,
      "duration": 0.188,
      "velocity": 0.57,
      "hand": "right"
    },
    {
      "midi": 66,
      "time": 5.25,
      "duration": 0.188,
      "velocity": 0.57,
      "hand": "right"
    },
    {
      "midi": 81,
      "time": 5.25,
      "duration": 0.36,
      "velocity": 0.67,
      "hand": "right"
    },
    {
      "midi": 51,
      "time": 5.438,
      "duration": 0.188,
      "velocity": 0.64,
      "hand": "left"
    },
    {
      "midi": 80,
      "time": 5.438,
      "duration": 0.188,
      "velocity": 0.64,
      "hand": "right"
    },
    {
      "midi": 54,
      "time": 5.625,
      "duration": 0.094,
      "velocity": 0.8,
      "hand": "left"
    },
    {
      "midi": 78,
      "time": 5.625,
      "duration": 0.375,
      "velocity": 0.81,
      "hand": "right"
    },
    {
      "midi": 81,
      "time": 5.625,
      "duration": 0.188,
      "velocity": 0.84,
      "hand": "right"
    },
    {
      "midi": 63,
      "time": 5.813,
      "duration": 0.188,
      "velocity": 0.55,
      "hand": "right"
    },
    {
      "midi": 66,
      "time": 5.813,
      "duration": 0.188,
      "velocity": 0.56,
      "hand": "right"
    },
    {
      "midi": 54,
      "time": 6,
      "duration": 0.375,
      "velocity": 0.83,
      "hand": "left"
    },
    {
      "midi": 81,
      "time": 6,
      "duration": 0.188,
      "velocity": 0.7,
      "hand": "right"
    },
    {
      "midi": 59,
      "time": 6.188,
      "duration": 0.188,
      "velocity": 0.37,
      "hand": "left"
    },
    {
      "midi": 63,
      "time": 6.188,
      "duration": 0.188,
      "velocity": 0.48,
      "hand": "right"
    },
    {
      "midi": 66,
      "time": 6.188,
      "duration": 0.188,
      "velocity": 0.48,
      "hand": "right"
    },
    {
      "midi": 80,
      "time": 6.188,
      "duration": 0.188,
      "velocity": 0.68,
      "hand": "right"
    },
    {
      "midi": 40,
      "time": 6.375,
      "duration": 0.563,
      "velocity": 0.84,
      "hand": "left"
    },
    {
      "midi": 81,
      "time": 6.375,
      "duration": 0.375,
      "velocity": 0.78,
      "hand": "right"
    },
    {
      "midi": 80,
      "time": 6.563,
      "duration": 0.094,
      "velocity": 0.77,
      "hand": "right"
    },
    {
      "midi": 59,
      "time": 6.75,
      "duration": 0.188,
      "velocity": 0.35,
      "hand": "left"
    },
    {
      "midi": 64,
      "time": 6.75,
      "duration": 0.188,
      "velocity": 0.59,
      "hand": "right"
    },
    {
      "midi": 68,
      "time": 6.75,
      "duration": 0.188,
      "velocity": 0.53,
      "hand": "right"
    },
    {
      "midi": 80,
      "time": 6.75,
      "duration": 0.173,
      "velocity": 0.7,
      "hand": "right"
    },
    {
      "midi": 82,
      "time": 6.75,
      "duration": 0.094,
      "velocity": 0.83,
      "hand": "right"
    },
    {
      "midi": 44,
      "time": 6.938,
      "duration": 0.563,
      "velocity": 0.72,
      "hand": "left"
    },
    {
      "midi": 80,
      "time": 6.938,
      "duration": 0.094,
      "velocity": 0.6,
      "hand": "right"
    },
    {
      "midi": 54,
      "time": 7.125,
      "duration": 0.094,
      "velocity": 0.76,
      "hand": "left"
    },
    {
      "midi": 68,
      "time": 7.125,
      "duration": 0.173,
      "velocity": 0.76,
      "hand": "right"
    },
    {
      "midi": 81,
      "time": 7.125,
      "duration": 0.188,
      "velocity": 0.78,
      "hand": "right"
    },
    {
      "midi": 59,
      "time": 7.313,
      "duration": 0.094,
      "velocity": 0.37,
      "hand": "left"
    },
    {
      "midi": 64,
      "time": 7.313,
      "duration": 0.188,
      "velocity": 0.62,
      "hand": "right"
    },
    {
      "midi": 68,
      "time": 7.313,
      "duration": 0.188,
      "velocity": 0.53,
      "hand": "right"
    },
    {
      "midi": 71,
      "time": 7.313,
      "duration": 0.188,
      "velocity": 0.76,
      "hand": "right"
    },
    {
      "midi": 80,
      "time": 7.313,
      "duration": 0.094,
      "velocity": 0.61,
      "hand": "right"
    },
    {
      "midi": 47,
      "time": 7.5,
      "duration": 0.36,
      "velocity": 0.67,
      "hand": "left"
    },
    {
      "midi": 81,
      "time": 7.5,
      "duration": 0.094,
      "velocity": 0.81,
      "hand": "right"
    },
    {
      "midi": 83,
      "time": 7.5,
      "duration": 0.188,
      "velocity": 0.75,
      "hand": "right"
    },
    {
      "midi": 59,
      "time": 7.688,
      "duration": 0.094,
      "velocity": 0.29,
      "hand": "left"
    },
    {
      "midi": 64,
      "time": 7.688,
      "duration": 0.188,
      "velocity": 0.62,
      "hand": "right"
    },
    {
      "midi": 68,
      "time": 7.688,
      "duration": 0.188,
      "velocity": 0.58,
      "hand": "right"
    },
    {
      "midi": 80,
      "time": 7.688,
      "duration": 0.094,
      "velocity": 0.72,
      "hand": "right"
    },
    {
      "midi": 47,
      "time": 7.875,
      "duration": 0.563,
      "velocity": 0.75,
      "hand": "left"
    },
    {
      "midi": 71,
      "time": 7.875,
      "duration": 0.375,
      "velocity": 0.83,
      "hand": "right"
    },
    {
      "midi": 81,
      "time": 7.875,
      "duration": 0.173,
      "velocity": 0.86,
      "hand": "right"
    },
    {
      "midi": 83,
      "time": 7.875,
      "duration": 0.375,
      "velocity": 0.75,
      "hand": "right"
    },
    {
      "midi": 81,
      "time": 8.063,
      "duration": 0.188,
      "velocity": 0.75,
      "hand": "right"
    },
    {
      "midi": 59,
      "time": 8.25,
      "duration": 0.188,
      "velocity": 0.38,
      "hand": "left"
    },
    {
      "midi": 63,
      "time": 8.25,
      "duration": 0.188,
      "velocity": 0.65,
      "hand": "right"
    },
    {
      "midi": 66,
      "time": 8.25,
      "duration": 0.188,
      "velocity": 0.56,
      "hand": "right"
    },
    {
      "midi": 69,
      "time": 8.25,
      "duration": 0.173,
      "velocity": 0.87,
      "hand": "right"
    },
    {
      "midi": 80,
      "time": 8.25,
      "duration": 0.094,
      "velocity": 0.74,
      "hand": "right"
    },
    {
      "midi": 51,
      "time": 8.438,
      "duration": 0.563,
      "velocity": 0.74,
      "hand": "left"
    },
    {
      "midi": 69,
      "time": 8.438,
      "duration": 0.375,
      "velocity": 0.84,
      "hand": "right"
    },
    {
      "midi": 81,
      "time": 8.438,
      "duration": 0.172,
      "velocity": 0.76,
      "hand": "right"
    },
    {
      "midi": 54,
      "time": 8.625,
      "duration": 0.094,
      "velocity": 0.8,
      "hand": "left"
    },
    {
      "midi": 81,
      "time": 8.625,
      "duration": 0.188,
      "velocity": 0.84,
      "hand": "right"
    },
    {
      "midi": 54,
      "time": 8.813,
      "duration": 0.188,
      "velocity": 0.76,
      "hand": "left"
    },
    {
      "midi": 59,
      "time": 8.813,
      "duration": 0.094,
      "velocity": 0.42,
      "hand": "left"
    },
    {
      "midi": 63,
      "time": 8.813,
      "duration": 0.188,
      "velocity": 0.6,
      "hand": "right"
    },
    {
      "midi": 66,
      "time": 8.813,
      "duration": 0.188,
      "velocity": 0.59,
      "hand": "right"
    },
    {
      "midi": 70,
      "time": 8.813,
      "duration": 0.094,
      "velocity": 0.83,
      "hand": "right"
    },
    {
      "midi": 73,
      "time": 8.813,
      "duration": 0.188,
      "velocity": 0.83,
      "hand": "right"
    },
    {
      "midi": 80,
      "time": 9,
      "duration": 0.094,
      "velocity": 0.72,
      "hand": "right"
    },
    {
      "midi": 40,
      "time": 9.188,
      "duration": 0.563,
      "velocity": 0.67,
      "hand": "left"
    },
    {
      "midi": 59,
      "time": 9.188,
      "duration": 0.188,
      "velocity": 0.35,
      "hand": "left"
    },
    {
      "midi": 63,
      "time": 9.188,
      "duration": 0.188,
      "velocity": 0.57,
      "hand": "right"
    },
    {
      "midi": 66,
      "time": 9.188,
      "duration": 0.188,
      "velocity": 0.59,
      "hand": "right"
    },
    {
      "midi": 73,
      "time": 9.188,
      "duration": 0.375,
      "velocity": 0.89,
      "hand": "right"
    },
    {
      "midi": 80,
      "time": 9.188,
      "duration": 0.188,
      "velocity": 0.71,
      "hand": "right"
    },
    {
      "midi": 81,
      "time": 9.375,
      "duration": 0.188,
      "velocity": 0.83,
      "hand": "right"
    },
    {
      "midi": 68,
      "time": 9.563,
      "duration": 0.188,
      "velocity": 0.65,
      "hand": "right"
    },
    {
      "midi": 71,
      "time": 9.563,
      "duration": 0.375,
      "velocity": 0.84,
      "hand": "right"
    },
    {
      "midi": 80,
      "time": 9.563,
      "duration": 0.094,
      "velocity": 0.79,
      "hand": "right"
    },
    {
      "midi": 83,
      "time": 9.563,
      "duration": 0.375,
      "velocity": 0.8,
      "hand": "right"
    },
    {
      "midi": 44,
      "time": 9.75,
      "duration": 0.563,
      "velocity": 0.67,
      "hand": "left"
    },
    {
      "midi": 59,
      "time": 9.75,
      "duration": 0.094,
      "velocity": 0.28,
      "hand": "left"
    },
    {
      "midi": 80,
      "time": 9.75,
      "duration": 0.173,
      "velocity": 0.69,
      "hand": "right"
    },
    {
      "midi": 54,
      "time": 9.938,
      "duration": 0.094,
      "velocity": 0.75,
      "hand": "left"
    },
    {
      "midi": 68,
      "time": 9.938,
      "duration": 0.172,
      "velocity": 0.87,
      "hand": "right"
    },
    {
      "midi": 80,
      "time": 9.938,
      "duration": 0.172,
      "velocity": 0.76,
      "hand": "right"
    },
    {
      "midi": 82,
      "time": 9.938,
      "duration": 0.094,
      "velocity": 0.9,
      "hand": "right"
    },
    {
      "midi": 64,
      "time": 10.125,
      "duration": 0.188,
      "velocity": 0.65,
      "hand": "right"
    },
    {
      "midi": 68,
      "time": 10.125,
      "duration": 0.188,
      "velocity": 0.51,
      "hand": "right"
    },
    {
      "midi": 80,
      "time": 10.125,
      "duration": 0.094,
      "velocity": 0.75,
      "hand": "right"
    },
    {
      "midi": 47,
      "time": 10.313,
      "duration": 0.375,
      "velocity": 0.75,
      "hand": "left"
    },
    {
      "midi": 59,
      "time": 10.313,
      "duration": 0.188,
      "velocity": 0.39,
      "hand": "left"
    },
    {
      "midi": 71,
      "time": 10.313,
      "duration": 0.188,
      "velocity": 0.83,
      "hand": "right"
    },
    {
      "midi": 81,
      "time": 10.313,
      "duration": 0.094,
      "velocity": 0.8,
      "hand": "right"
    },
    {
      "midi": 83,
      "time": 10.313,
      "duration": 0.188,
      "velocity": 0.76,
      "hand": "right"
    },
    {
      "midi": 59,
      "time": 10.688,
      "duration": 0.188,
      "velocity": 0.31,
      "hand": "left"
    },
    {
      "midi": 71,
      "time": 10.688,
      "duration": 0.375,
      "velocity": 0.76,
      "hand": "right"
    },
    {
      "midi": 81,
      "time": 10.688,
      "duration": 0.188,
      "velocity": 0.84,
      "hand": "right"
    },
    {
      "midi": 83,
      "time": 10.688,
      "duration": 0.375,
      "velocity": 0.8,
      "hand": "right"
    },
    {
      "midi": 47,
      "time": 10.875,
      "duration": 0.563,
      "velocity": 0.8,
      "hand": "left"
    },
    {
      "midi": 69,
      "time": 11.063,
      "duration": 0.375,
      "velocity": 0.76,
      "hand": "right"
    },
    {
      "midi": 81,
      "time": 11.063,
      "duration": 0.36,
      "velocity": 0.76,
      "hand": "right"
    },
    {
      "midi": 59,
      "time": 11.25,
      "duration": 0.094,
      "velocity": 0.28,
      "hand": "left"
    },
    {
      "midi": 63,
      "time": 11.25,
      "duration": 0.188,
      "velocity": 0.54,
      "hand": "right"
    },
    {
      "midi": 66,
      "time": 11.25,
      "duration": 0.173,
      "velocity": 0.59,
      "hand": "right"
    },
    {
      "midi": 80,
      "time": 11.25,
      "duration": 0.188,
      "velocity": 0.69,
      "hand": "right"
    },
    {
      "midi": 39,
      "time": 11.438,
      "duration": 0.563,
      "velocity": 0.69,
      "hand": "left"
    },
    {
      "midi": 54,
      "time": 11.438,
      "duration": 0.188,
      "velocity": 0.76,
      "hand": "left"
    },
    {
      "midi": 66,
      "time": 11.438,
      "duration": 0.36,
      "velocity": 0.81,
      "hand": "right"
    },
    {
      "midi": 78,
      "time": 11.438,
      "duration": 0.375,
      "velocity": 0.81,
      "hand": "right"
    },
    {
      "midi": 81,
      "time": 11.438,
      "duration": 0.188,
      "velocity": 0.84,
      "hand": "right"
    },
    {
      "midi": 59,
      "time": 11.813,
      "duration": 0.094,
      "velocity": 0.26,
      "hand": "left"
    },
    {
      "midi": 66,
      "time": 11.813,
      "duration": 0.188,
      "velocity": 0.53,
      "hand": "right"
    },
    {
      "midi": 69,
      "time": 11.813,
      "duration": 0.36,
      "velocity": 0.8,
      "hand": "right"
    },
    {
      "midi": 81,
      "time": 11.813,
      "duration": 0.188,
      "velocity": 0.81,
      "hand": "right"
    },
    {
      "midi": 42,
      "time": 12,
      "duration": 0.188,
      "velocity": 0.64,
      "hand": "left"
    },
    {
      "midi": 80,
      "time": 12,
      "duration": 0.094,
      "velocity": 0.71,
      "hand": "right"
    },
    {
      "midi": 63,
      "time": 12.188,
      "duration": 0.188,
      "velocity": 0.2,
      "hand": "right"
    },
    {
      "midi": 66,
      "time": 12.188,
      "duration": 0.188,
      "velocity": 0.44,
      "hand": "right"
    },
    {
      "midi": 69,
      "time": 12.188,
      "duration": 0.375,
      "velocity": 0.78,
      "hand": "right"
    },
    {
      "midi": 81,
      "time": 12.188,
      "duration": 0.172,
      "velocity": 0.76,
      "hand": "right"
    },
    {
      "midi": 40,
      "time": 12.375,
      "duration": 0.563,
      "velocity": 0.53,
      "hand": "left"
    },
    {
      "midi": 81,
      "time": 12.375,
      "duration": 0.188,
      "velocity": 0.84,
      "hand": "right"
    },
    {
      "midi": 80,
      "time": 12.563,
      "duration": 0.172,
      "velocity": 0.83,
      "hand": "right"
    },
    {
      "midi": 59,
      "time": 12.75,
      "duration": 0.094,
      "velocity": 0.12,
      "hand": "left"
    },
    {
      "midi": 64,
      "time": 12.75,
      "duration": 0.188,
      "velocity": 0.5,
      "hand": "right"
    },
    {
      "midi": 68,
      "time": 12.75,
      "duration": 0.548,
      "velocity": 0.75,
      "hand": "right"
    },
    {
      "midi": 80,
      "time": 12.75,
      "duration": 0.094,
      "velocity": 0.75,
      "hand": "right"
    },
    {
      "midi": 44,
      "time": 12.938,
      "duration": 0.563,
      "velocity": 0.58,
      "hand": "left"
    },
    {
      "midi": 80,
      "time": 12.938,
      "duration": 0.188,
      "velocity": 0.69,
      "hand": "right"
    },
    {
      "midi": 54,
      "time": 13.125,
      "duration": 0.094,
      "velocity": 0.75,
      "hand": "left"
    },
    {
      "midi": 81,
      "time": 13.125,
      "duration": 0.188,
      "velocity": 0.76,
      "hand": "right"
    },
    {
      "midi": 59,
      "time": 13.313,
      "duration": 0.094,
      "velocity": 0.24,
      "hand": "left"
    },
    {
      "midi": 64,
      "time": 13.313,
      "duration": 0.188,
      "velocity": 0.62,
      "hand": "right"
    },
    {
      "midi": 68,
      "time": 13.313,
      "duration": 0.188,
      "velocity": 0.43,
      "hand": "right"
    },
    {
      "midi": 47,
      "time": 13.5,
      "duration": 0.375,
      "velocity": 0.67,
      "hand": "left"
    },
    {
      "midi": 70,
      "time": 13.5,
      "duration": 0.094,
      "velocity": 0.87,
      "hand": "right"
    },
    {
      "midi": 76,
      "time": 13.5,
      "duration": 0.094,
      "velocity": 0.76,
      "hand": "right"
    },
    {
      "midi": 80,
      "time": 13.5,
      "duration": 0.173,
      "velocity": 0.72,
      "hand": "right"
    },
    {
      "midi": 59,
      "time": 13.688,
      "duration": 0.188,
      "velocity": 0.24,
      "hand": "left"
    },
    {
      "midi": 64,
      "time": 13.688,
      "duration": 0.188,
      "velocity": 0.5,
      "hand": "right"
    },
    {
      "midi": 68,
      "time": 13.688,
      "duration": 0.188,
      "velocity": 0.44,
      "hand": "right"
    },
    {
      "midi": 76,
      "time": 13.688,
      "duration": 0.188,
      "velocity": 0.7,
      "hand": "right"
    },
    {
      "midi": 80,
      "time": 13.688,
      "duration": 0.188,
      "velocity": 0.65,
      "hand": "right"
    },
    {
      "midi": 45,
      "time": 13.875,
      "duration": 0.563,
      "velocity": 0.78,
      "hand": "left"
    },
    {
      "midi": 73,
      "time": 13.875,
      "duration": 0.563,
      "velocity": 0.89,
      "hand": "right"
    },
    {
      "midi": 81,
      "time": 13.875,
      "duration": 0.188,
      "velocity": 0.81,
      "hand": "right"
    },
    {
      "midi": 57,
      "time": 14.25,
      "duration": 0.188,
      "velocity": 0.43,
      "hand": "left"
    },
    {
      "midi": 61,
      "time": 14.25,
      "duration": 0.188,
      "velocity": 0.54,
      "hand": "right"
    },
    {
      "midi": 64,
      "time": 14.25,
      "duration": 0.188,
      "velocity": 0.61,
      "hand": "right"
    },
    {
      "midi": 80,
      "time": 14.25,
      "duration": 0.173,
      "velocity": 0.71,
      "hand": "right"
    },
    {
      "midi": 49,
      "time": 14.438,
      "duration": 0.563,
      "velocity": 0.67,
      "hand": "left"
    },
    {
      "midi": 75,
      "time": 14.438,
      "duration": 0.188,
      "velocity": 0.75,
      "hand": "right"
    },
    {
      "midi": 80,
      "time": 14.438,
      "duration": 0.188,
      "velocity": 0.69,
      "hand": "right"
    },
    {
      "midi": 54,
      "time": 14.625,
      "duration": 0.188,
      "velocity": 0.75,
      "hand": "left"
    },
    {
      "midi": 76,
      "time": 14.625,
      "duration": 0.563,
      "velocity": 0.81,
      "hand": "right"
    },
    {
      "midi": 81,
      "time": 14.625,
      "duration": 0.188,
      "velocity": 0.76,
      "hand": "right"
    },
    {
      "midi": 57,
      "time": 14.813,
      "duration": 0.188,
      "velocity": 0.51,
      "hand": "left"
    },
    {
      "midi": 61,
      "time": 14.813,
      "duration": 0.094,
      "velocity": 0.61,
      "hand": "right"
    },
    {
      "midi": 64,
      "time": 14.813,
      "duration": 0.188,
      "velocity": 0.62,
      "hand": "right"
    },
    {
      "midi": 52,
      "time": 15,
      "duration": 0.375,
      "velocity": 0.76,
      "hand": "left"
    },
    {
      "midi": 70,
      "time": 15,
      "duration": 0.094,
      "velocity": 0.85,
      "hand": "right"
    },
    {
      "midi": 80,
      "time": 15,
      "duration": 0.173,
      "velocity": 0.75,
      "hand": "right"
    },
    {
      "midi": 82,
      "time": 15,
      "duration": 0.094,
      "velocity": 0.76,
      "hand": "right"
    },
    {
      "midi": 57,
      "time": 15.188,
      "duration": 0.188,
      "velocity": 0.31,
      "hand": "left"
    },
    {
      "midi": 64,
      "time": 15.188,
      "duration": 0.188,
      "velocity": 0.57,
      "hand": "right"
    },
    {
      "midi": 75,
      "time": 15.188,
      "duration": 0.188,
      "velocity": 0.76,
      "hand": "right"
    },
    {
      "midi": 80,
      "time": 15.188,
      "duration": 0.188,
      "velocity": 0.66,
      "hand": "right"
    },
    {
      "midi": 82,
      "time": 15.188,
      "duration": 0.094,
      "velocity": 0.48,
      "hand": "right"
    },
    {
      "midi": 40,
      "time": 15.375,
      "duration": 0.563,
      "velocity": 0.76,
      "hand": "left"
    },
    {
      "midi": 73,
      "time": 15.375,
      "duration": 0.173,
      "velocity": 0.69,
      "hand": "right"
    },
    {
      "midi": 81,
      "time": 15.375,
      "duration": 0.188,
      "velocity": 0.83,
      "hand": "right"
    },
    {
      "midi": 64,
      "time": 15.563,
      "duration": 0.172,
      "velocity": 0.76,
      "hand": "right"
    },
    {
      "midi": 73,
      "time": 15.563,
      "duration": 0.188,
      "velocity": 0.64,
      "hand": "right"
    },
    {
      "midi": 75,
      "time": 15.563,
      "duration": 0.188,
      "velocity": 0.63,
      "hand": "right"
    },
    {
      "midi": 59,
      "time": 15.75,
      "duration": 0.188,
      "velocity": 0.46,
      "hand": "left"
    },
    {
      "midi": 69,
      "time": 15.75,
      "duration": 0.094,
      "velocity": 0.76,
      "hand": "right"
    },
    {
      "midi": 80,
      "time": 15.75,
      "duration": 0.094,
      "velocity": 0.75,
      "hand": "right"
    },
    {
      "midi": 83,
      "time": 15.75,
      "duration": 0.188,
      "velocity": 0.81,
      "hand": "right"
    },
    {
      "midi": 44,
      "time": 15.938,
      "duration": 0.563,
      "velocity": 0.63,
      "hand": "left"
    },
    {
      "midi": 68,
      "time": 15.938,
      "duration": 0.188,
      "velocity": 0.69,
      "hand": "right"
    },
    {
      "midi": 80,
      "time": 15.938,
      "duration": 0.188,
      "velocity": 0.67,
      "hand": "right"
    },
    {
      "midi": 71,
      "time": 16.125,
      "duration": 0.375,
      "velocity": 0.67,
      "hand": "right"
    },
    {
      "midi": 81,
      "time": 16.125,
      "duration": 0.188,
      "velocity": 0.81,
      "hand": "right"
    },
    {
      "midi": 59,
      "time": 16.313,
      "duration": 0.094,
      "velocity": 0.4,
      "hand": "left"
    },
    {
      "midi": 64,
      "time": 16.313,
      "duration": 0.188,
      "velocity": 0.69,
      "hand": "right"
    },
    {
      "midi": 68,
      "time": 16.313,
      "duration": 0.188,
      "velocity": 0.58,
      "hand": "right"
    },
    {
      "midi": 47,
      "time": 16.5,
      "duration": 0.375,
      "velocity": 0.72,
      "hand": "left"
    },
    {
      "midi": 70,
      "time": 16.5,
      "duration": 0.094,
      "velocity": 0.93,
      "hand": "right"
    },
    {
      "midi": 76,
      "time": 16.5,
      "duration": 0.094,
      "velocity": 0.78,
      "hand": "right"
    },
    {
      "midi": 80,
      "time": 16.5,
      "duration": 0.094,
      "velocity": 0.72,
      "hand": "right"
    },
    {
      "midi": 59,
      "time": 16.688,
      "duration": 0.188,
      "velocity": 0.18,
      "hand": "left"
    },
    {
      "midi": 64,
      "time": 16.688,
      "duration": 0.188,
      "velocity": 0.64,
      "hand": "right"
    },
    {
      "midi": 68,
      "time": 16.688,
      "duration": 0.188,
      "velocity": 0.52,
      "hand": "right"
    },
    {
      "midi": 76,
      "time": 16.688,
      "duration": 0.188,
      "velocity": 0.73,
      "hand": "right"
    },
    {
      "midi": 80,
      "time": 16.688,
      "duration": 0.188,
      "velocity": 0.66,
      "hand": "right"
    },
    {
      "midi": 45,
      "time": 16.875,
      "duration": 0.563,
      "velocity": 0.64,
      "hand": "left"
    },
    {
      "midi": 73,
      "time": 16.875,
      "duration": 0.563,
      "velocity": 0.86,
      "hand": "right"
    },
    {
      "midi": 81,
      "time": 16.875,
      "duration": 0.188,
      "velocity": 0.8,
      "hand": "right"
    },
    {
      "midi": 57,
      "time": 17.25,
      "duration": 0.188,
      "velocity": 0.45,
      "hand": "left"
    },
    {
      "midi": 61,
      "time": 17.25,
      "duration": 0.188,
      "velocity": 0.52,
      "hand": "right"
    },
    {
      "midi": 64,
      "time": 17.25,
      "duration": 0.173,
      "velocity": 0.64,
      "hand": "right"
    },
    {
      "midi": 80,
      "time": 17.25,
      "duration": 0.173,
      "velocity": 0.71,
      "hand": "right"
    },
    {
      "midi": 49,
      "time": 17.438,
      "duration": 0.563,
      "velocity": 0.69,
      "hand": "left"
    },
    {
      "midi": 64,
      "time": 17.438,
      "duration": 0.188,
      "velocity": 0.7,
      "hand": "right"
    },
    {
      "midi": 75,
      "time": 17.438,
      "duration": 0.188,
      "velocity": 0.75,
      "hand": "right"
    },
    {
      "midi": 80,
      "time": 17.438,
      "duration": 0.188,
      "velocity": 0.69,
      "hand": "right"
    },
    {
      "midi": 54,
      "time": 17.625,
      "duration": 0.094,
      "velocity": 0.77,
      "hand": "left"
    },
    {
      "midi": 73,
      "time": 17.625,
      "duration": 0.735,
      "velocity": 0.7,
      "hand": "right"
    },
    {
      "midi": 76,
      "time": 17.625,
      "duration": 0.563,
      "velocity": 0.83,
      "hand": "right"
    },
    {
      "midi": 81,
      "time": 17.625,
      "duration": 0.188,
      "velocity": 0.78,
      "hand": "right"
    },
    {
      "midi": 57,
      "time": 17.813,
      "duration": 0.188,
      "velocity": 0.44,
      "hand": "left"
    },
    {
      "midi": 61,
      "time": 17.813,
      "duration": 0.188,
      "velocity": 0.49,
      "hand": "right"
    },
    {
      "midi": 64,
      "time": 17.813,
      "duration": 0.188,
      "velocity": 0.57,
      "hand": "right"
    },
    {
      "midi": 52,
      "time": 18,
      "duration": 0.188,
      "velocity": 0.72,
      "hand": "left"
    },
    {
      "midi": 70,
      "time": 18,
      "duration": 0.094,
      "velocity": 0.93,
      "hand": "right"
    },
    {
      "midi": 80,
      "time": 18,
      "duration": 0.094,
      "velocity": 0.69,
      "hand": "right"
    },
    {
      "midi": 82,
      "time": 18,
      "duration": 0.094,
      "velocity": 0.72,
      "hand": "right"
    },
    {
      "midi": 57,
      "time": 18.188,
      "duration": 0.188,
      "velocity": 0.32,
      "hand": "left"
    },
    {
      "midi": 64,
      "time": 18.188,
      "duration": 0.188,
      "velocity": 0.53,
      "hand": "right"
    },
    {
      "midi": 75,
      "time": 18.188,
      "duration": 0.188,
      "velocity": 0.75,
      "hand": "right"
    },
    {
      "midi": 80,
      "time": 18.188,
      "duration": 0.188,
      "velocity": 0.6,
      "hand": "right"
    },
    {
      "midi": 82,
      "time": 18.188,
      "duration": 0.094,
      "velocity": 0.57,
      "hand": "right"
    },
    {
      "midi": 38,
      "time": 18.375,
      "duration": 0.188,
      "velocity": 0.59,
      "hand": "left"
    },
    {
      "midi": 40,
      "time": 18.375,
      "duration": 0.563,
      "velocity": 0.67,
      "hand": "left"
    },
    {
      "midi": 73,
      "time": 18.375,
      "duration": 0.173,
      "velocity": 0.8,
      "hand": "right"
    },
    {
      "midi": 81,
      "time": 18.375,
      "duration": 0.188,
      "velocity": 0.78,
      "hand": "right"
    },
    {
      "midi": 64,
      "time": 18.563,
      "duration": 0.172,
      "velocity": 0.8,
      "hand": "right"
    },
    {
      "midi": 73,
      "time": 18.563,
      "duration": 0.188,
      "velocity": 0.56,
      "hand": "right"
    },
    {
      "midi": 75,
      "time": 18.563,
      "duration": 0.188,
      "velocity": 0.69,
      "hand": "right"
    },
    {
      "midi": 59,
      "time": 18.75,
      "duration": 0.188,
      "velocity": 0.29,
      "hand": "left"
    },
    {
      "midi": 66,
      "time": 18.75,
      "duration": 0.188,
      "velocity": 0.62,
      "hand": "right"
    },
    {
      "midi": 68,
      "time": 18.75,
      "duration": 0.173,
      "velocity": 0.43,
      "hand": "right"
    },
    {
      "midi": 80,
      "time": 18.75,
      "duration": 0.094,
      "velocity": 0.72,
      "hand": "right"
    },
    {
      "midi": 83,
      "time": 18.75,
      "duration": 0.188,
      "velocity": 0.81,
      "hand": "right"
    },
    {
      "midi": 44,
      "time": 18.938,
      "duration": 0.563,
      "velocity": 0.6,
      "hand": "left"
    },
    {
      "midi": 64,
      "time": 18.938,
      "duration": 0.188,
      "velocity": 0.7,
      "hand": "right"
    },
    {
      "midi": 68,
      "time": 18.938,
      "duration": 0.172,
      "velocity": 0.61,
      "hand": "right"
    },
    {
      "midi": 80,
      "time": 18.938,
      "duration": 0.172,
      "velocity": 0.69,
      "hand": "right"
    },
    {
      "midi": 54,
      "time": 19.125,
      "duration": 0.094,
      "velocity": 0.82,
      "hand": "left"
    },
    {
      "midi": 68,
      "time": 19.125,
      "duration": 0.173,
      "velocity": 0.15,
      "hand": "right"
    },
    {
      "midi": 71,
      "time": 19.125,
      "duration": 0.75,
      "velocity": 0.64,
      "hand": "right"
    },
    {
      "midi": 81,
      "time": 19.125,
      "duration": 0.188,
      "velocity": 0.76,
      "hand": "right"
    },
    {
      "midi": 59,
      "time": 19.313,
      "duration": 0.188,
      "velocity": 0.37,
      "hand": "left"
    },
    {
      "midi": 64,
      "time": 19.313,
      "duration": 0.188,
      "velocity": 0.7,
      "hand": "right"
    },
    {
      "midi": 68,
      "time": 19.313,
      "duration": 0.188,
      "velocity": 0.53,
      "hand": "right"
    },
    {
      "midi": 47,
      "time": 19.5,
      "duration": 0.36,
      "velocity": 0.7,
      "hand": "left"
    },
    {
      "midi": 70,
      "time": 19.5,
      "duration": 0.094,
      "velocity": 0.91,
      "hand": "right"
    },
    {
      "midi": 80,
      "time": 19.5,
      "duration": 0.094,
      "velocity": 0.69,
      "hand": "right"
    },
    {
      "midi": 83,
      "time": 19.5,
      "duration": 0.188,
      "velocity": 0.76,
      "hand": "right"
    },
    {
      "midi": 59,
      "time": 19.688,
      "duration": 0.188,
      "velocity": 0.34,
      "hand": "left"
    },
    {
      "midi": 64,
      "time": 19.688,
      "duration": 0.188,
      "velocity": 0.62,
      "hand": "right"
    },
    {
      "midi": 68,
      "time": 19.688,
      "duration": 0.188,
      "velocity": 0.46,
      "hand": "right"
    },
    {
      "midi": 80,
      "time": 19.688,
      "duration": 0.188,
      "velocity": 0.56,
      "hand": "right"
    },
    {
      "midi": 82,
      "time": 19.688,
      "duration": 0.094,
      "velocity": 0.6,
      "hand": "right"
    },
    {
      "midi": 47,
      "time": 19.875,
      "duration": 0.563,
      "velocity": 0.4,
      "hand": "left"
    },
    {
      "midi": 81,
      "time": 19.875,
      "duration": 0.188,
      "velocity": 0.75,
      "hand": "right"
    },
    {
      "midi": 83,
      "time": 19.875,
      "duration": 0.375,
      "velocity": 0.86,
      "hand": "right"
    },
    {
      "midi": 57,
      "time": 20.25,
      "duration": 0.188,
      "velocity": 0.41,
      "hand": "left"
    },
    {
      "midi": 64,
      "time": 20.25,
      "duration": 0.094,
      "velocity": 0.43,
      "hand": "right"
    },
    {
      "midi": 66,
      "time": 20.25,
      "duration": 0.094,
      "velocity": 0.53,
      "hand": "right"
    },
    {
      "midi": 81,
      "time": 20.25,
      "duration": 0.188,
      "velocity": 0.78,
      "hand": "right"
    },
    {
      "midi": 51,
      "time": 20.438,
      "duration": 0.563,
      "velocity": 0.71,
      "hand": "left"
    },
    {
      "midi": 80,
      "time": 20.438,
      "duration": 0.188,
      "velocity": 0.69,
      "hand": "right"
    },
    {
      "midi": 54,
      "time": 20.625,
      "duration": 0.094,
      "velocity": 0.8,
      "hand": "left"
    },
    {
      "midi": 81,
      "time": 20.625,
      "duration": 0.375,
      "velocity": 0.76,
      "hand": "right"
    },
    {
      "midi": 59,
      "time": 20.813,
      "duration": 0.188,
      "velocity": 0.47,
      "hand": "left"
    },
    {
      "midi": 63,
      "time": 20.813,
      "duration": 0.188,
      "velocity": 0.65,
      "hand": "right"
    },
    {
      "midi": 66,
      "time": 20.813,
      "duration": 0.188,
      "velocity": 0.67,
      "hand": "right"
    },
    {
      "midi": 54,
      "time": 21,
      "duration": 0.188,
      "velocity": 0.67,
      "hand": "left"
    },
    {
      "midi": 69,
      "time": 21,
      "duration": 0.094,
      "velocity": 0.8,
      "hand": "right"
    },
    {
      "midi": 73,
      "time": 21,
      "duration": 0.173,
      "velocity": 0.76,
      "hand": "right"
    },
    {
      "midi": 80,
      "time": 21,
      "duration": 0.094,
      "velocity": 0.73,
      "hand": "right"
    },
    {
      "midi": 82,
      "time": 21,
      "duration": 0.094,
      "velocity": 0.75,
      "hand": "right"
    },
    {
      "midi": 59,
      "time": 21.188,
      "duration": 0.188,
      "velocity": 0.4,
      "hand": "left"
    },
    {
      "midi": 66,
      "time": 21.188,
      "duration": 0.188,
      "velocity": 0.59,
      "hand": "right"
    },
    {
      "midi": 73,
      "time": 21.188,
      "duration": 0.375,
      "velocity": 0.84,
      "hand": "right"
    },
    {
      "midi": 80,
      "time": 21.188,
      "duration": 0.188,
      "velocity": 0.65,
      "hand": "right"
    },
    {
      "midi": 82,
      "time": 21.188,
      "duration": 0.094,
      "velocity": 0.61,
      "hand": "right"
    },
    {
      "midi": 40,
      "time": 21.375,
      "duration": 0.563,
      "velocity": 0.73,
      "hand": "left"
    },
    {
      "midi": 81,
      "time": 21.375,
      "duration": 0.188,
      "velocity": 0.8,
      "hand": "right"
    },
    {
      "midi": 83,
      "time": 21.563,
      "duration": 0.188,
      "velocity": 0.72,
      "hand": "right"
    },
    {
      "midi": 59,
      "time": 21.75,
      "duration": 0.188,
      "velocity": 0.42,
      "hand": "left"
    },
    {
      "midi": 64,
      "time": 21.75,
      "duration": 0.188,
      "velocity": 0.62,
      "hand": "right"
    },
    {
      "midi": 68,
      "time": 21.75,
      "duration": 0.188,
      "velocity": 0.53,
      "hand": "right"
    },
    {
      "midi": 80,
      "time": 21.75,
      "duration": 0.094,
      "velocity": 0.75,
      "hand": "right"
    },
    {
      "midi": 44,
      "time": 21.938,
      "duration": 0.563,
      "velocity": 0.58,
      "hand": "left"
    },
    {
      "midi": 80,
      "time": 21.938,
      "duration": 0.375,
      "velocity": 0.8,
      "hand": "right"
    },
    {
      "midi": 54,
      "time": 22.125,
      "duration": 0.094,
      "velocity": 0.85,
      "hand": "left"
    },
    {
      "midi": 81,
      "time": 22.125,
      "duration": 0.188,
      "velocity": 0.8,
      "hand": "right"
    },
    {
      "midi": 59,
      "time": 22.313,
      "duration": 0.188,
      "velocity": 0.39,
      "hand": "left"
    },
    {
      "midi": 64,
      "time": 22.313,
      "duration": 0.188,
      "velocity": 0.53,
      "hand": "right"
    },
    {
      "midi": 68,
      "time": 22.313,
      "duration": 0.188,
      "velocity": 0.31,
      "hand": "right"
    },
    {
      "midi": 83,
      "time": 22.313,
      "duration": 0.188,
      "velocity": 0.73,
      "hand": "right"
    },
    {
      "midi": 47,
      "time": 22.5,
      "duration": 0.36,
      "velocity": 0.56,
      "hand": "left"
    },
    {
      "midi": 70,
      "time": 22.5,
      "duration": 0.094,
      "velocity": 0.87,
      "hand": "right"
    },
    {
      "midi": 80,
      "time": 22.5,
      "duration": 0.173,
      "velocity": 0.71,
      "hand": "right"
    },
    {
      "midi": 82,
      "time": 22.5,
      "duration": 0.094,
      "velocity": 0.75,
      "hand": "right"
    },
    {
      "midi": 59,
      "time": 22.688,
      "duration": 0.188,
      "velocity": 0.39,
      "hand": "left"
    },
    {
      "midi": 68,
      "time": 22.688,
      "duration": 0.188,
      "velocity": 0.38,
      "hand": "right"
    },
    {
      "midi": 80,
      "time": 22.688,
      "duration": 0.188,
      "velocity": 0.61,
      "hand": "right"
    },
    {
      "midi": 83,
      "time": 22.688,
      "duration": 0.375,
      "velocity": 0.8,
      "hand": "right"
    },
    {
      "midi": 37,
      "time": 22.875,
      "duration": 0.188,
      "velocity": 0.53,
      "hand": "left"
    },
    {
      "midi": 47,
      "time": 22.875,
      "duration": 0.563,
      "velocity": 0.44,
      "hand": "left"
    },
    {
      "midi": 81,
      "time": 22.875,
      "duration": 0.173,
      "velocity": 0.8,
      "hand": "right"
    },
    {
      "midi": 81,
      "time": 23.063,
      "duration": 0.375,
      "velocity": 0.78,
      "hand": "right"
    },
    {
      "midi": 59,
      "time": 23.25,
      "duration": 0.188,
      "velocity": 0.37,
      "hand": "left"
    },
    {
      "midi": 63,
      "time": 23.25,
      "duration": 0.188,
      "velocity": 0.55,
      "hand": "right"
    },
    {
      "midi": 66,
      "time": 23.25,
      "duration": 0.188,
      "velocity": 0.62,
      "hand": "right"
    },
    {
      "midi": 80,
      "time": 23.25,
      "duration": 0.094,
      "velocity": 0.75,
      "hand": "right"
    },
    {
      "midi": 39,
      "time": 23.438,
      "duration": 0.563,
      "velocity": 0.63,
      "hand": "left"
    },
    {
      "midi": 78,
      "time": 23.438,
      "duration": 0.375,
      "velocity": 0.84,
      "hand": "right"
    },
    {
      "midi": 80,
      "time": 23.438,
      "duration": 0.094,
      "velocity": 0.72,
      "hand": "right"
    },
    {
      "midi": 54,
      "time": 23.625,
      "duration": 0.188,
      "velocity": 0.83,
      "hand": "left"
    },
    {
      "midi": 81,
      "time": 23.625,
      "duration": 0.173,
      "velocity": 0.8,
      "hand": "right"
    },
    {
      "midi": 42,
      "time": 23.813,
      "duration": 0.375,
      "velocity": 0.49,
      "hand": "left"
    },
    {
      "midi": 59,
      "time": 23.813,
      "duration": 0.188,
      "velocity": 0.38,
      "hand": "left"
    },
    {
      "midi": 63,
      "time": 23.813,
      "duration": 0.188,
      "velocity": 0.5,
      "hand": "right"
    },
    {
      "midi": 66,
      "time": 23.813,
      "duration": 0.188,
      "velocity": 0.56,
      "hand": "right"
    },
    {
      "midi": 81,
      "time": 23.813,
      "duration": 0.188,
      "velocity": 0.78,
      "hand": "right"
    },
    {
      "midi": 69,
      "time": 24,
      "duration": 0.094,
      "velocity": 0.7,
      "hand": "right"
    },
    {
      "midi": 80,
      "time": 24,
      "duration": 0.094,
      "velocity": 0.65,
      "hand": "right"
    },
    {
      "midi": 82,
      "time": 24,
      "duration": 0.094,
      "velocity": 0.67,
      "hand": "right"
    },
    {
      "midi": 59,
      "time": 24.188,
      "duration": 0.188,
      "velocity": 0.32,
      "hand": "left"
    },
    {
      "midi": 66,
      "time": 24.188,
      "duration": 0.188,
      "velocity": 0.56,
      "hand": "right"
    },
    {
      "midi": 80,
      "time": 24.188,
      "duration": 0.188,
      "velocity": 0.63,
      "hand": "right"
    },
    {
      "midi": 82,
      "time": 24.188,
      "duration": 0.094,
      "velocity": 0.57,
      "hand": "right"
    },
    {
      "midi": 40,
      "time": 24.375,
      "duration": 0.563,
      "velocity": 0.7,
      "hand": "left"
    },
    {
      "midi": 81,
      "time": 24.375,
      "duration": 0.188,
      "velocity": 0.8,
      "hand": "right"
    },
    {
      "midi": 80,
      "time": 24.563,
      "duration": 0.172,
      "velocity": 0.82,
      "hand": "right"
    },
    {
      "midi": 59,
      "time": 24.75,
      "duration": 0.188,
      "velocity": 0.38,
      "hand": "left"
    },
    {
      "midi": 64,
      "time": 24.75,
      "duration": 0.188,
      "velocity": 0.62,
      "hand": "right"
    },
    {
      "midi": 68,
      "time": 24.75,
      "duration": 0.188,
      "velocity": 0.65,
      "hand": "right"
    },
    {
      "midi": 71,
      "time": 24.75,
      "duration": 0.094,
      "velocity": 0.47,
      "hand": "right"
    },
    {
      "midi": 80,
      "time": 24.75,
      "duration": 0.094,
      "velocity": 0.76,
      "hand": "right"
    },
    {
      "midi": 44,
      "time": 24.938,
      "duration": 0.563,
      "velocity": 0.57,
      "hand": "left"
    },
    {
      "midi": 54,
      "time": 24.938,
      "duration": 0.188,
      "velocity": 0.83,
      "hand": "left"
    },
    {
      "midi": 71,
      "time": 24.938,
      "duration": 0.375,
      "velocity": 0.51,
      "hand": "right"
    },
    {
      "midi": 80,
      "time": 24.938,
      "duration": 0.375,
      "velocity": 0.87,
      "hand": "right"
    },
    {
      "midi": 83,
      "time": 24.938,
      "duration": 0.36,
      "velocity": 0.67,
      "hand": "right"
    },
    {
      "midi": 81,
      "time": 25.125,
      "duration": 0.188,
      "velocity": 0.81,
      "hand": "right"
    },
    {
      "midi": 47,
      "time": 25.313,
      "duration": 0.375,
      "velocity": 0.67,
      "hand": "left"
    },
    {
      "midi": 59,
      "time": 25.313,
      "duration": 0.172,
      "velocity": 0.35,
      "hand": "left"
    },
    {
      "midi": 68,
      "time": 25.313,
      "duration": 0.172,
      "velocity": 0.22,
      "hand": "right"
    },
    {
      "midi": 70,
      "time": 25.313,
      "duration": 0.188,
      "velocity": 0.87,
      "hand": "right"
    },
    {
      "midi": 75,
      "time": 25.313,
      "duration": 0.36,
      "velocity": 0.67,
      "hand": "right"
    },
    {
      "midi": 83,
      "time": 25.313,
      "duration": 0.188,
      "velocity": 0.76,
      "hand": "right"
    },
    {
      "midi": 59,
      "time": 25.5,
      "duration": 0.188,
      "velocity": 0.32,
      "hand": "left"
    },
    {
      "midi": 68,
      "time": 25.5,
      "duration": 0.188,
      "velocity": 0.55,
      "hand": "right"
    },
    {
      "midi": 71,
      "time": 25.5,
      "duration": 0.094,
      "velocity": 0.7,
      "hand": "right"
    },
    {
      "midi": 80,
      "time": 25.5,
      "duration": 0.094,
      "velocity": 0.76,
      "hand": "right"
    },
    {
      "midi": 82,
      "time": 25.5,
      "duration": 0.094,
      "velocity": 0.73,
      "hand": "right"
    },
    {
      "midi": 45,
      "time": 25.688,
      "duration": 0.563,
      "velocity": 0.49,
      "hand": "left"
    },
    {
      "midi": 75,
      "time": 25.688,
      "duration": 0.375,
      "velocity": 0.62,
      "hand": "right"
    },
    {
      "midi": 80,
      "time": 25.688,
      "duration": 0.188,
      "velocity": 0.65,
      "hand": "right"
    },
    {
      "midi": 83,
      "time": 25.688,
      "duration": 0.375,
      "velocity": 0.81,
      "hand": "right"
    },
    {
      "midi": 81,
      "time": 25.875,
      "duration": 0.173,
      "velocity": 0.83,
      "hand": "right"
    },
    {
      "midi": 71,
      "time": 26.063,
      "duration": 0.094,
      "velocity": 0.7,
      "hand": "right"
    },
    {
      "midi": 73,
      "time": 26.063,
      "duration": 0.188,
      "velocity": 0.62,
      "hand": "right"
    },
    {
      "midi": 81,
      "time": 26.063,
      "duration": 0.188,
      "velocity": 0.76,
      "hand": "right"
    },
    {
      "midi": 49,
      "time": 26.25,
      "duration": 0.563,
      "velocity": 0.56,
      "hand": "left"
    },
    {
      "midi": 57,
      "time": 26.25,
      "duration": 0.188,
      "velocity": 0.36,
      "hand": "left"
    },
    {
      "midi": 61,
      "time": 26.25,
      "duration": 0.188,
      "velocity": 0.46,
      "hand": "right"
    },
    {
      "midi": 80,
      "time": 26.25,
      "duration": 0.188,
      "velocity": 0.75,
      "hand": "right"
    },
    {
      "midi": 73,
      "time": 26.438,
      "duration": 0.36,
      "velocity": 0.7,
      "hand": "right"
    },
    {
      "midi": 81,
      "time": 26.438,
      "duration": 0.172,
      "velocity": 0.78,
      "hand": "right"
    },
    {
      "midi": 54,
      "time": 26.625,
      "duration": 0.094,
      "velocity": 0.79,
      "hand": "left"
    },
    {
      "midi": 57,
      "time": 26.625,
      "duration": 0.188,
      "velocity": 0.43,
      "hand": "left"
    },
    {
      "midi": 61,
      "time": 26.625,
      "duration": 0.188,
      "velocity": 0.57,
      "hand": "right"
    },
    {
      "midi": 64,
      "time": 26.625,
      "duration": 0.188,
      "velocity": 0.59,
      "hand": "right"
    },
    {
      "midi": 81,
      "time": 26.625,
      "duration": 0.188,
      "velocity": 0.8,
      "hand": "right"
    },
    {
      "midi": 52,
      "time": 26.813,
      "duration": 0.375,
      "velocity": 0.76,
      "hand": "left"
    },
    {
      "midi": 73,
      "time": 26.813,
      "duration": 0.188,
      "velocity": 0.78,
      "hand": "right"
    },
    {
      "midi": 76,
      "time": 26.813,
      "duration": 0.188,
      "velocity": 0.78,
      "hand": "right"
    },
    {
      "midi": 80,
      "time": 26.813,
      "duration": 0.094,
      "velocity": 0.7,
      "hand": "right"
    },
    {
      "midi": 82,
      "time": 26.813,
      "duration": 0.094,
      "velocity": 0.69,
      "hand": "right"
    },
    {
      "midi": 69,
      "time": 27,
      "duration": 0.188,
      "velocity": 0.81,
      "hand": "right"
    },
    {
      "midi": 80,
      "time": 27,
      "duration": 0.094,
      "velocity": 0.63,
      "hand": "right"
    },
    {
      "midi": 82,
      "time": 27,
      "duration": 0.094,
      "velocity": 0.65,
      "hand": "right"
    },
    {
      "midi": 57,
      "time": 27.188,
      "duration": 0.188,
      "velocity": 0.42,
      "hand": "left"
    },
    {
      "midi": 64,
      "time": 27.188,
      "duration": 0.188,
      "velocity": 0.56,
      "hand": "right"
    },
    {
      "midi": 73,
      "time": 27.188,
      "duration": 0.375,
      "velocity": 0.8,
      "hand": "right"
    },
    {
      "midi": 76,
      "time": 27.188,
      "duration": 0.375,
      "velocity": 0.76,
      "hand": "right"
    },
    {
      "midi": 81,
      "time": 27.188,
      "duration": 0.188,
      "velocity": 0.78,
      "hand": "right"
    },
    {
      "midi": 40,
      "time": 27.375,
      "duration": 0.563,
      "velocity": 0.72,
      "hand": "left"
    },
    {
      "midi": 71,
      "time": 27.563,
      "duration": 0.094,
      "velocity": 0.69,
      "hand": "right"
    },
    {
      "midi": 75,
      "time": 27.563,
      "duration": 0.375,
      "velocity": 0.67,
      "hand": "right"
    },
    {
      "midi": 80,
      "time": 27.563,
      "duration": 0.172,
      "velocity": 0.72,
      "hand": "right"
    },
    {
      "midi": 83,
      "time": 27.563,
      "duration": 0.188,
      "velocity": 0.81,
      "hand": "right"
    },
    {
      "midi": 44,
      "time": 27.75,
      "duration": 0.563,
      "velocity": 0.67,
      "hand": "left"
    },
    {
      "midi": 59,
      "time": 27.75,
      "duration": 0.188,
      "velocity": 0.43,
      "hand": "left"
    },
    {
      "midi": 64,
      "time": 27.75,
      "duration": 0.188,
      "velocity": 0.65,
      "hand": "right"
    },
    {
      "midi": 68,
      "time": 27.75,
      "duration": 0.188,
      "velocity": 0.47,
      "hand": "right"
    },
    {
      "midi": 80,
      "time": 27.75,
      "duration": 0.173,
      "velocity": 0.71,
      "hand": "right"
    },
    {
      "midi": 54,
      "time": 27.938,
      "duration": 0.094,
      "velocity": 0.85,
      "hand": "left"
    },
    {
      "midi": 71,
      "time": 27.938,
      "duration": 0.36,
      "velocity": 0.54,
      "hand": "right"
    },
    {
      "midi": 81,
      "time": 27.938,
      "duration": 0.188,
      "velocity": 0.75,
      "hand": "right"
    },
    {
      "midi": 83,
      "time": 27.938,
      "duration": 0.36,
      "velocity": 0.62,
      "hand": "right"
    },
    {
      "midi": 59,
      "time": 28.125,
      "duration": 0.188,
      "velocity": 0.46,
      "hand": "left"
    },
    {
      "midi": 64,
      "time": 28.125,
      "duration": 0.173,
      "velocity": 0.59,
      "hand": "right"
    },
    {
      "midi": 68,
      "time": 28.125,
      "duration": 0.173,
      "velocity": 0.3,
      "hand": "right"
    },
    {
      "midi": 47,
      "time": 28.313,
      "duration": 0.36,
      "velocity": 0.75,
      "hand": "left"
    },
    {
      "midi": 75,
      "time": 28.313,
      "duration": 0.188,
      "velocity": 0.69,
      "hand": "right"
    },
    {
      "midi": 80,
      "time": 28.313,
      "duration": 0.094,
      "velocity": 0.73,
      "hand": "right"
    },
    {
      "midi": 83,
      "time": 28.313,
      "duration": 0.188,
      "velocity": 0.81,
      "hand": "right"
    },
    {
      "midi": 59,
      "time": 28.5,
      "duration": 0.188,
      "velocity": 0.38,
      "hand": "left"
    },
    {
      "midi": 64,
      "time": 28.5,
      "duration": 0.188,
      "velocity": 0.69,
      "hand": "right"
    },
    {
      "midi": 68,
      "time": 28.5,
      "duration": 0.188,
      "velocity": 0.48,
      "hand": "right"
    },
    {
      "midi": 80,
      "time": 28.5,
      "duration": 0.094,
      "velocity": 0.66,
      "hand": "right"
    },
    {
      "midi": 82,
      "time": 28.5,
      "duration": 0.094,
      "velocity": 0.39,
      "hand": "right"
    },
    {
      "midi": 47,
      "time": 28.688,
      "duration": 0.563,
      "velocity": 0.67,
      "hand": "left"
    },
    {
      "midi": 75,
      "time": 28.688,
      "duration": 0.375,
      "velocity": 0.71,
      "hand": "right"
    },
    {
      "midi": 81,
      "time": 28.688,
      "duration": 0.188,
      "velocity": 0.81,
      "hand": "right"
    },
    {
      "midi": 83,
      "time": 28.688,
      "duration": 0.375,
      "velocity": 0.81,
      "hand": "right"
    },
    {
      "midi": 59,
      "time": 29.063,
      "duration": 0.188,
      "velocity": 0.53,
      "hand": "left"
    },
    {
      "midi": 73,
      "time": 29.063,
      "duration": 0.375,
      "velocity": 0.59,
      "hand": "right"
    },
    {
      "midi": 80,
      "time": 29.063,
      "duration": 0.094,
      "velocity": 0.69,
      "hand": "right"
    },
    {
      "midi": 82,
      "time": 29.063,
      "duration": 0.094,
      "velocity": 0.75,
      "hand": "right"
    },
    {
      "midi": 39,
      "time": 29.25,
      "duration": 0.563,
      "velocity": 0.66,
      "hand": "left"
    },
    {
      "midi": 80,
      "time": 29.25,
      "duration": 0.094,
      "velocity": 0.69,
      "hand": "right"
    },
    {
      "midi": 82,
      "time": 29.25,
      "duration": 0.094,
      "velocity": 0.62,
      "hand": "right"
    },
    {
      "midi": 69,
      "time": 29.438,
      "duration": 0.375,
      "velocity": 0.61,
      "hand": "right"
    },
    {
      "midi": 78,
      "time": 29.438,
      "duration": 0.375,
      "velocity": 0.89,
      "hand": "right"
    },
    {
      "midi": 81,
      "time": 29.438,
      "duration": 0.36,
      "velocity": 0.76,
      "hand": "right"
    },
    {
      "midi": 59,
      "time": 29.625,
      "duration": 0.094,
      "velocity": 0.33,
      "hand": "left"
    },
    {
      "midi": 63,
      "time": 29.625,
      "duration": 0.173,
      "velocity": 0.57,
      "hand": "right"
    },
    {
      "midi": 66,
      "time": 29.625,
      "duration": 0.173,
      "velocity": 0.57,
      "hand": "right"
    },
    {
      "midi": 42,
      "time": 29.813,
      "duration": 0.375,
      "velocity": 0.67,
      "hand": "left"
    },
    {
      "midi": 54,
      "time": 29.813,
      "duration": 0.094,
      "velocity": 0.83,
      "hand": "left"
    },
    {
      "midi": 73,
      "time": 29.813,
      "duration": 0.188,
      "velocity": 0.72,
      "hand": "right"
    },
    {
      "midi": 80,
      "time": 29.813,
      "duration": 0.094,
      "velocity": 0.7,
      "hand": "right"
    },
    {
      "midi": 82,
      "time": 29.813,
      "duration": 0.094,
      "velocity": 0.76,
      "hand": "right"
    },
    {
      "midi": 59,
      "time": 30,
      "duration": 0.188,
      "velocity": 0.37,
      "hand": "left"
    },
    {
      "midi": 63,
      "time": 30,
      "duration": 0.188,
      "velocity": 0.57,
      "hand": "right"
    },
    {
      "midi": 66,
      "time": 30,
      "duration": 0.188,
      "velocity": 0.59,
      "hand": "right"
    },
    {
      "midi": 80,
      "time": 30,
      "duration": 0.188,
      "velocity": 0.7,
      "hand": "right"
    },
    {
      "midi": 82,
      "time": 30,
      "duration": 0.094,
      "velocity": 0.61,
      "hand": "right"
    },
    {
      "midi": 40,
      "time": 30.188,
      "duration": 0.563,
      "velocity": 0.56,
      "hand": "left"
    },
    {
      "midi": 73,
      "time": 30.188,
      "duration": 0.375,
      "velocity": 0.76,
      "hand": "right"
    },
    {
      "midi": 81,
      "time": 30.188,
      "duration": 0.375,
      "velocity": 0.78,
      "hand": "right"
    },
    {
      "midi": 71,
      "time": 30.563,
      "duration": 0.735,
      "velocity": 0.59,
      "hand": "right"
    },
    {
      "midi": 80,
      "time": 30.563,
      "duration": 0.36,
      "velocity": 0.72,
      "hand": "right"
    },
    {
      "midi": 83,
      "time": 30.563,
      "duration": 0.938,
      "velocity": 0.53,
      "hand": "right"
    },
    {
      "midi": 59,
      "time": 30.75,
      "duration": 0.094,
      "velocity": 0.27,
      "hand": "left"
    },
    {
      "midi": 64,
      "time": 30.75,
      "duration": 0.188,
      "velocity": 0.64,
      "hand": "right"
    },
    {
      "midi": 68,
      "time": 30.75,
      "duration": 0.188,
      "velocity": 0.47,
      "hand": "right"
    },
    {
      "midi": 82,
      "time": 30.75,
      "duration": 0.094,
      "velocity": 0.65,
      "hand": "right"
    },
    {
      "midi": 44,
      "time": 30.938,
      "duration": 0.563,
      "velocity": 0.5,
      "hand": "left"
    },
    {
      "midi": 80,
      "time": 30.938,
      "duration": 0.094,
      "velocity": 0.58,
      "hand": "right"
    },
    {
      "midi": 68,
      "time": 31.125,
      "duration": 0.173,
      "velocity": 0.44,
      "hand": "right"
    },
    {
      "midi": 81,
      "time": 31.125,
      "duration": 0.188,
      "velocity": 0.67,
      "hand": "right"
    },
    {
      "midi": 54,
      "time": 31.313,
      "duration": 0.188,
      "velocity": 0.8,
      "hand": "left"
    },
    {
      "midi": 59,
      "time": 31.313,
      "duration": 0.188,
      "velocity": 0.37,
      "hand": "left"
    },
    {
      "midi": 64,
      "time": 31.313,
      "duration": 0.188,
      "velocity": 0.59,
      "hand": "right"
    },
    {
      "midi": 68,
      "time": 31.313,
      "duration": 0.094,
      "velocity": 0.55,
      "hand": "right"
    },
    {
      "midi": 71,
      "time": 31.313,
      "duration": 0.094,
      "velocity": 0.51,
      "hand": "right"
    },
    {
      "midi": 47,
      "time": 31.5,
      "duration": 0.375,
      "velocity": 0.61,
      "hand": "left"
    },
    {
      "midi": 80,
      "time": 31.5,
      "duration": 0.188,
      "velocity": 0.72,
      "hand": "right"
    },
    {
      "midi": 59,
      "time": 31.688,
      "duration": 0.094,
      "velocity": 0.13,
      "hand": "left"
    },
    {
      "midi": 64,
      "time": 31.688,
      "duration": 0.094,
      "velocity": 0.49,
      "hand": "right"
    },
    {
      "midi": 68,
      "time": 31.688,
      "duration": 0.188,
      "velocity": 0.35,
      "hand": "right"
    },
    {
      "midi": 38,
      "time": 31.875,
      "duration": 0.188,
      "velocity": 0.56,
      "hand": "left"
    },
    {
      "midi": 40,
      "time": 31.875,
      "duration": 1.313,
      "velocity": 0.73,
      "hand": "left"
    },
    {
      "midi": 81,
      "time": 31.875,
      "duration": 0.188,
      "velocity": 0.75,
      "hand": "right"
    },
    {
      "midi": 59,
      "time": 32.25,
      "duration": 0.094,
      "velocity": 0.24,
      "hand": "left"
    },
    {
      "midi": 68,
      "time": 32.25,
      "duration": 0.173,
      "velocity": 0.5,
      "hand": "right"
    },
    {
      "midi": 71,
      "time": 32.25,
      "duration": 0.094,
      "velocity": 0.4,
      "hand": "right"
    },
    {
      "midi": 80,
      "time": 32.25,
      "duration": 0.094,
      "velocity": 0.73,
      "hand": "right"
    },
    {
      "midi": 82,
      "time": 32.25,
      "duration": 0.094,
      "velocity": 0.76,
      "hand": "right"
    },
    {
      "midi": 59,
      "time": 32.438,
      "duration": 0.094,
      "velocity": 0.45,
      "hand": "left"
    },
    {
      "midi": 64,
      "time": 32.438,
      "duration": 0.094,
      "velocity": 0.62,
      "hand": "right"
    },
    {
      "midi": 68,
      "time": 32.438,
      "duration": 0.094,
      "velocity": 0.08,
      "hand": "right"
    },
    {
      "midi": 80,
      "time": 32.438,
      "duration": 0.188,
      "velocity": 0.57,
      "hand": "right"
    },
    {
      "midi": 82,
      "time": 32.438,
      "duration": 0.094,
      "velocity": 0.58,
      "hand": "right"
    },
    {
      "midi": 47,
      "time": 32.625,
      "duration": 0.563,
      "velocity": 0.8,
      "hand": "left"
    },
    {
      "midi": 81,
      "time": 32.625,
      "duration": 0.188,
      "velocity": 0.73,
      "hand": "right"
    },
    {
      "midi": 78,
      "time": 32.813,
      "duration": 0.563,
      "velocity": 0.84,
      "hand": "right"
    },
    {
      "midi": 54,
      "time": 33,
      "duration": 0.188,
      "velocity": 0.74,
      "hand": "left"
    },
    {
      "midi": 69,
      "time": 33,
      "duration": 0.375,
      "velocity": 0.67,
      "hand": "right"
    },
    {
      "midi": 71,
      "time": 33,
      "duration": 0.094,
      "velocity": 0.5,
      "hand": "right"
    },
    {
      "midi": 80,
      "time": 33,
      "duration": 0.094,
      "velocity": 0.67,
      "hand": "right"
    },
    {
      "midi": 61,
      "time": 33.188,
      "duration": 0.094,
      "velocity": 0.46,
      "hand": "right"
    },
    {
      "midi": 64,
      "time": 33.188,
      "duration": 0.188,
      "velocity": 0.59,
      "hand": "right"
    },
    {
      "midi": 80,
      "time": 33.188,
      "duration": 0.188,
      "velocity": 0.74,
      "hand": "right"
    },
    {
      "midi": 40,
      "time": 33.375,
      "duration": 0.375,
      "velocity": 0.84,
      "hand": "left"
    },
    {
      "midi": 76,
      "time": 33.375,
      "duration": 2.625,
      "velocity": 0.65,
      "hand": "right"
    },
    {
      "midi": 81,
      "time": 33.375,
      "duration": 0.188,
      "velocity": 0.8,
      "hand": "right"
    },
    {
      "midi": 64,
      "time": 33.563,
      "duration": 0.172,
      "velocity": 0.67,
      "hand": "right"
    },
    {
      "midi": 59,
      "time": 33.75,
      "duration": 0.094,
      "velocity": 0.28,
      "hand": "left"
    },
    {
      "midi": 64,
      "time": 33.75,
      "duration": 0.094,
      "velocity": 0.67,
      "hand": "right"
    },
    {
      "midi": 66,
      "time": 33.75,
      "duration": 0.188,
      "velocity": 0.52,
      "hand": "right"
    },
    {
      "midi": 68,
      "time": 33.75,
      "duration": 0.173,
      "velocity": 0.61,
      "hand": "right"
    },
    {
      "midi": 80,
      "time": 33.75,
      "duration": 0.094,
      "velocity": 0.76,
      "hand": "right"
    },
    {
      "midi": 40,
      "time": 33.938,
      "duration": 0.75,
      "velocity": 0.76,
      "hand": "left"
    },
    {
      "midi": 68,
      "time": 33.938,
      "duration": 0.172,
      "velocity": 0.54,
      "hand": "right"
    },
    {
      "midi": 80,
      "time": 33.938,
      "duration": 0.094,
      "velocity": 0.75,
      "hand": "right"
    },
    {
      "midi": 68,
      "time": 34.125,
      "duration": 0.173,
      "velocity": 0.8,
      "hand": "right"
    },
    {
      "midi": 71,
      "time": 34.125,
      "duration": 0.36,
      "velocity": 0.59,
      "hand": "right"
    },
    {
      "midi": 59,
      "time": 34.313,
      "duration": 0.094,
      "velocity": 0.34,
      "hand": "left"
    },
    {
      "midi": 64,
      "time": 34.313,
      "duration": 0.188,
      "velocity": 0.81,
      "hand": "right"
    },
    {
      "midi": 68,
      "time": 34.313,
      "duration": 0.188,
      "velocity": 0.72,
      "hand": "right"
    },
    {
      "midi": 54,
      "time": 34.5,
      "duration": 0.188,
      "velocity": 0.82,
      "hand": "left"
    },
    {
      "midi": 59,
      "time": 34.5,
      "duration": 0.188,
      "velocity": 0.59,
      "hand": "left"
    },
    {
      "midi": 71,
      "time": 34.5,
      "duration": 0.188,
      "velocity": 0.86,
      "hand": "right"
    },
    {
      "midi": 80,
      "time": 34.5,
      "duration": 0.094,
      "velocity": 0.83,
      "hand": "right"
    },
    {
      "midi": 64,
      "time": 34.688,
      "duration": 0.188,
      "velocity": 0.8,
      "hand": "right"
    },
    {
      "midi": 80,
      "time": 34.688,
      "duration": 0.188,
      "velocity": 0.67,
      "hand": "right"
    },
    {
      "midi": 40,
      "time": 34.875,
      "duration": 1.313,
      "velocity": 0.84,
      "hand": "left"
    },
    {
      "midi": 71,
      "time": 34.875,
      "duration": 0.375,
      "velocity": 0.84,
      "hand": "right"
    },
    {
      "midi": 81,
      "time": 34.875,
      "duration": 0.188,
      "velocity": 0.83,
      "hand": "right"
    },
    {
      "midi": 59,
      "time": 35.25,
      "duration": 0.094,
      "velocity": 0.5,
      "hand": "left"
    },
    {
      "midi": 64,
      "time": 35.25,
      "duration": 0.188,
      "velocity": 0.87,
      "hand": "right"
    },
    {
      "midi": 69,
      "time": 35.25,
      "duration": 0.188,
      "velocity": 0.89,
      "hand": "right"
    },
    {
      "midi": 80,
      "time": 35.25,
      "duration": 0.094,
      "velocity": 0.65,
      "hand": "right"
    },
    {
      "midi": 59,
      "time": 35.438,
      "duration": 0.188,
      "velocity": 0.53,
      "hand": "left"
    },
    {
      "midi": 80,
      "time": 35.438,
      "duration": 0.188,
      "velocity": 0.63,
      "hand": "right"
    },
    {
      "midi": 47,
      "time": 35.625,
      "duration": 0.563,
      "velocity": 0.8,
      "hand": "left"
    },
    {
      "midi": 69,
      "time": 35.625,
      "duration": 0.36,
      "velocity": 0.92,
      "hand": "right"
    },
    {
      "midi": 75,
      "time": 35.813,
      "duration": 0.563,
      "velocity": 0.87,
      "hand": "right"
    },
    {
      "midi": 64,
      "time": 36,
      "duration": 0.188,
      "velocity": 0.78,
      "hand": "right"
    },
    {
      "midi": 69,
      "time": 36,
      "duration": 0.188,
      "velocity": 0.7,
      "hand": "right"
    },
    {
      "midi": 73,
      "time": 36,
      "duration": 0.188,
      "velocity": 0.91,
      "hand": "right"
    },
    {
      "midi": 80,
      "time": 36,
      "duration": 0.094,
      "velocity": 0.74,
      "hand": "right"
    },
    {
      "midi": 61,
      "time": 36.188,
      "duration": 0.188,
      "velocity": 0.67,
      "hand": "right"
    },
    {
      "midi": 80,
      "time": 36.188,
      "duration": 0.188,
      "velocity": 0.7,
      "hand": "right"
    },
    {
      "midi": 40,
      "time": 36.375,
      "duration": 0.375,
      "velocity": 0.84,
      "hand": "left"
    },
    {
      "midi": 74,
      "time": 36.375,
      "duration": 2.438,
      "velocity": 0.76,
      "hand": "right"
    },
    {
      "midi": 81,
      "time": 36.375,
      "duration": 0.188,
      "velocity": 0.8,
      "hand": "right"
    },
    {
      "midi": 64,
      "time": 36.563,
      "duration": 0.172,
      "velocity": 0.61,
      "hand": "right"
    },
    {
      "midi": 54,
      "time": 36.75,
      "duration": 0.094,
      "velocity": 0.71,
      "hand": "left"
    },
    {
      "midi": 59,
      "time": 36.75,
      "duration": 0.094,
      "velocity": 0.49,
      "hand": "left"
    },
    {
      "midi": 64,
      "time": 36.75,
      "duration": 0.094,
      "velocity": 0.73,
      "hand": "right"
    },
    {
      "midi": 66,
      "time": 36.75,
      "duration": 0.188,
      "velocity": 0.59,
      "hand": "right"
    },
    {
      "midi": 68,
      "time": 36.75,
      "duration": 0.173,
      "velocity": 0.69,
      "hand": "right"
    },
    {
      "midi": 71,
      "time": 36.75,
      "duration": 0.375,
      "velocity": 0.86,
      "hand": "right"
    },
    {
      "midi": 40,
      "time": 36.938,
      "duration": 2.25,
      "velocity": 0.8,
      "hand": "left"
    },
    {
      "midi": 68,
      "time": 36.938,
      "duration": 0.172,
      "velocity": 0.6,
      "hand": "right"
    },
    {
      "midi": 68,
      "time": 37.125,
      "duration": 0.173,
      "velocity": 0.87,
      "hand": "right"
    },
    {
      "midi": 76,
      "time": 37.125,
      "duration": 0.75,
      "velocity": 0.75,
      "hand": "right"
    },
    {
      "midi": 64,
      "time": 37.313,
      "duration": 0.188,
      "velocity": 0.73,
      "hand": "right"
    },
    {
      "midi": 68,
      "time": 37.313,
      "duration": 0.188,
      "velocity": 0.71,
      "hand": "right"
    },
    {
      "midi": 59,
      "time": 37.5,
      "duration": 0.188,
      "velocity": 0.65,
      "hand": "left"
    },
    {
      "midi": 71,
      "time": 37.5,
      "duration": 0.188,
      "velocity": 0.84,
      "hand": "right"
    },
    {
      "midi": 64,
      "time": 37.688,
      "duration": 0.188,
      "velocity": 0.75,
      "hand": "right"
    },
    {
      "midi": 68,
      "time": 37.875,
      "duration": 0.375,
      "velocity": 0.71,
      "hand": "right"
    },
    {
      "midi": 71,
      "time": 37.875,
      "duration": 0.375,
      "velocity": 0.86,
      "hand": "right"
    },
    {
      "midi": 81,
      "time": 37.875,
      "duration": 0.188,
      "velocity": 0.8,
      "hand": "right"
    },
    {
      "midi": 54,
      "time": 38.25,
      "duration": 0.094,
      "velocity": 0.72,
      "hand": "left"
    },
    {
      "midi": 59,
      "time": 38.25,
      "duration": 0.173,
      "velocity": 0.75,
      "hand": "left"
    },
    {
      "midi": 69,
      "time": 38.25,
      "duration": 0.375,
      "velocity": 0.76,
      "hand": "right"
    },
    {
      "midi": 59,
      "time": 38.438,
      "duration": 0.094,
      "velocity": 0.64,
      "hand": "left"
    },
    {
      "midi": 64,
      "time": 38.438,
      "duration": 0.188,
      "velocity": 0.72,
      "hand": "right"
    },
    {
      "midi": 68,
      "time": 38.438,
      "duration": 0.172,
      "velocity": 0.67,
      "hand": "right"
    },
    {
      "midi": 47,
      "time": 38.625,
      "duration": 0.563,
      "velocity": 0.76,
      "hand": "left"
    },
    {
      "midi": 68,
      "time": 38.625,
      "duration": 0.375,
      "velocity": 0.82,
      "hand": "right"
    },
    {
      "midi": 80,
      "time": 38.625,
      "duration": 0.188,
      "velocity": 0.75,
      "hand": "right"
    },
    {
      "midi": 73,
      "time": 38.813,
      "duration": 0.563,
      "velocity": 0.84,
      "hand": "right"
    },
    {
      "midi": 64,
      "time": 39,
      "duration": 0.188,
      "velocity": 0.81,
      "hand": "right"
    },
    {
      "midi": 66,
      "time": 39,
      "duration": 0.375,
      "velocity": 0.84,
      "hand": "right"
    },
    {
      "midi": 69,
      "time": 39,
      "duration": 0.188,
      "velocity": 0.67,
      "hand": "right"
    },
    {
      "midi": 81,
      "time": 39,
      "duration": 0.094,
      "velocity": 0.67,
      "hand": "right"
    },
    {
      "midi": 61,
      "time": 39.188,
      "duration": 0.188,
      "velocity": 0.69,
      "hand": "right"
    },
    {
      "midi": 40,
      "time": 39.375,
      "duration": 1.313,
      "velocity": 0.84,
      "hand": "left"
    },
    {
      "midi": 59,
      "time": 39.375,
      "duration": 0.094,
      "velocity": 0.81,
      "hand": "left"
    },
    {
      "midi": 64,
      "time": 39.375,
      "duration": 0.173,
      "velocity": 0.76,
      "hand": "right"
    },
    {
      "midi": 72,
      "time": 39.375,
      "duration": 1.5,
      "velocity": 0.74,
      "hand": "right"
    },
    {
      "midi": 64,
      "time": 39.563,
      "duration": 0.172,
      "velocity": 0.64,
      "hand": "right"
    },
    {
      "midi": 54,
      "time": 39.75,
      "duration": 0.094,
      "velocity": 0.75,
      "hand": "left"
    },
    {
      "midi": 64,
      "time": 39.75,
      "duration": 0.188,
      "velocity": 0.84,
      "hand": "right"
    },
    {
      "midi": 66,
      "time": 39.75,
      "duration": 0.188,
      "velocity": 0.43,
      "hand": "right"
    },
    {
      "midi": 68,
      "time": 39.75,
      "duration": 0.173,
      "velocity": 0.79,
      "hand": "right"
    },
    {
      "midi": 81,
      "time": 39.75,
      "duration": 0.094,
      "velocity": 0.72,
      "hand": "right"
    },
    {
      "midi": 59,
      "time": 39.938,
      "duration": 0.188,
      "velocity": 0.64,
      "hand": "left"
    },
    {
      "midi": 68,
      "time": 39.938,
      "duration": 0.188,
      "velocity": 0.6,
      "hand": "right"
    },
    {
      "midi": 47,
      "time": 40.125,
      "duration": 0.563,
      "velocity": 0.78,
      "hand": "left"
    },
    {
      "midi": 78,
      "time": 40.125,
      "duration": 0.188,
      "velocity": 0.83,
      "hand": "right"
    },
    {
      "midi": 59,
      "time": 40.313,
      "duration": 0.094,
      "velocity": 0.67,
      "hand": "left"
    },
    {
      "midi": 76,
      "time": 40.313,
      "duration": 0.188,
      "velocity": 0.64,
      "hand": "right"
    },
    {
      "midi": 61,
      "time": 40.5,
      "duration": 0.094,
      "velocity": 0.57,
      "hand": "right"
    },
    {
      "midi": 64,
      "time": 40.5,
      "duration": 0.188,
      "velocity": 0.81,
      "hand": "right"
    },
    {
      "midi": 69,
      "time": 40.5,
      "duration": 0.188,
      "velocity": 0.73,
      "hand": "right"
    },
    {
      "midi": 81,
      "time": 40.5,
      "duration": 0.094,
      "velocity": 0.65,
      "hand": "right"
    },
    {
      "midi": 61,
      "time": 40.688,
      "duration": 0.188,
      "velocity": 0.61,
      "hand": "right"
    },
    {
      "midi": 40,
      "time": 40.875,
      "duration": 1.313,
      "velocity": 0.89,
      "hand": "left"
    },
    {
      "midi": 59,
      "time": 40.875,
      "duration": 0.188,
      "velocity": 0.5,
      "hand": "left"
    },
    {
      "midi": 70,
      "time": 40.875,
      "duration": 1.5,
      "velocity": 0.82,
      "hand": "right"
    },
    {
      "midi": 64,
      "time": 41.063,
      "duration": 0.172,
      "velocity": 0.8,
      "hand": "right"
    },
    {
      "midi": 54,
      "time": 41.25,
      "duration": 0.094,
      "velocity": 0.85,
      "hand": "left"
    },
    {
      "midi": 59,
      "time": 41.25,
      "duration": 0.173,
      "velocity": 0.67,
      "hand": "left"
    },
    {
      "midi": 64,
      "time": 41.25,
      "duration": 0.094,
      "velocity": 0.7,
      "hand": "right"
    },
    {
      "midi": 66,
      "time": 41.25,
      "duration": 0.188,
      "velocity": 0.45,
      "hand": "right"
    },
    {
      "midi": 81,
      "time": 41.25,
      "duration": 0.094,
      "velocity": 0.67,
      "hand": "right"
    },
    {
      "midi": 59,
      "time": 41.438,
      "duration": 0.094,
      "velocity": 0.5,
      "hand": "left"
    },
    {
      "midi": 64,
      "time": 41.438,
      "duration": 0.188,
      "velocity": 0.09,
      "hand": "right"
    },
    {
      "midi": 68,
      "time": 41.438,
      "duration": 0.188,
      "velocity": 0.69,
      "hand": "right"
    },
    {
      "midi": 47,
      "time": 41.625,
      "duration": 0.563,
      "velocity": 0.76,
      "hand": "left"
    },
    {
      "midi": 78,
      "time": 41.625,
      "duration": 0.188,
      "velocity": 0.83,
      "hand": "right"
    },
    {
      "midi": 59,
      "time": 41.813,
      "duration": 0.188,
      "velocity": 0.46,
      "hand": "left"
    },
    {
      "midi": 76,
      "time": 41.813,
      "duration": 0.188,
      "velocity": 0.54,
      "hand": "right"
    },
    {
      "midi": 64,
      "time": 42,
      "duration": 0.094,
      "velocity": 0.7,
      "hand": "right"
    },
    {
      "midi": 69,
      "time": 42,
      "duration": 0.173,
      "velocity": 0.76,
      "hand": "right"
    },
    {
      "midi": 75,
      "time": 42,
      "duration": 0.188,
      "velocity": 0.65,
      "hand": "right"
    },
    {
      "midi": 81,
      "time": 42,
      "duration": 0.094,
      "velocity": 0.53,
      "hand": "right"
    },
    {
      "midi": 64,
      "time": 42.188,
      "duration": 0.188,
      "velocity": 0.7,
      "hand": "right"
    },
    {
      "midi": 69,
      "time": 42.188,
      "duration": 0.094,
      "velocity": 0.69,
      "hand": "right"
    },
    {
      "midi": 78,
      "time": 42.188,
      "duration": 0.188,
      "velocity": 0.83,
      "hand": "right"
    },
    {
      "midi": 38,
      "time": 42.375,
      "duration": 0.188,
      "velocity": 0.7,
      "hand": "left"
    },
    {
      "midi": 40,
      "time": 42.375,
      "duration": 2.25,
      "velocity": 0.81,
      "hand": "left"
    },
    {
      "midi": 71,
      "time": 42.375,
      "duration": 3.188,
      "velocity": 0.53,
      "hand": "right"
    },
    {
      "midi": 76,
      "time": 42.375,
      "duration": 2.813,
      "velocity": 0.46,
      "hand": "right"
    },
    {
      "midi": 59,
      "time": 42.563,
      "duration": 0.094,
      "velocity": 0.56,
      "hand": "left"
    },
    {
      "midi": 47,
      "time": 42.75,
      "duration": 1.875,
      "velocity": 0.64,
      "hand": "left"
    },
    {
      "midi": 54,
      "time": 42.75,
      "duration": 0.094,
      "velocity": 0.75,
      "hand": "left"
    },
    {
      "midi": 64,
      "time": 42.938,
      "duration": 1.875,
      "velocity": 0.76,
      "hand": "right"
    },
    {
      "midi": 68,
      "time": 42.938,
      "duration": 2.063,
      "velocity": 0.65,
      "hand": "right"
    },
    {
      "midi": 69,
      "time": 43.688,
      "duration": 0.094,
      "velocity": 0.51,
      "hand": "right"
    },
    {
      "midi": 59,
      "time": 43.875,
      "duration": 0.094,
      "velocity": 0.38,
      "hand": "left"
    },
    {
      "midi": 69,
      "time": 43.875,
      "duration": 0.094,
      "velocity": 0.49,
      "hand": "right"
    },
    {
      "midi": 59,
      "time": 44.25,
      "duration": 0.094,
      "velocity": 0.61,
      "hand": "left"
    },
    {
      "midi": 69,
      "time": 45.188,
      "duration": 0.094,
      "velocity": 0.46,
      "hand": "right"
    },
    {
      "midi": 69,
      "time": 45.375,
      "duration": 0.094,
      "velocity": 0.2,
      "hand": "right"
    }
  ]
}
