{
  "id": "pezinho",
  "title": "Pezinho",
  "artist": "Tradicional",
  "difficulty": "Difícil",
  "bpm": 130,
  "duration": 65,
  "category": "Infantis",
  "isPremium": false,
  "coverUrl": "/images/covers/placeholder.png",
  "notes": [
    {
      "midi": 74,
      "time": 0,
      "duration": 0.115,
      "velocity": 0.63,
      "hand": "right"
    },
    {
      "midi": 74,
      "time": 0.231,
      "duration": 0.215,
      "velocity": 0.63,
      "hand": "right"
    },
    {
      "midi": 74,
      "time": 0.461,
      "duration": 0.115,
      "velocity": 0.63,
      "hand": "right"
    },
    {
      "midi": 55,
      "time": 0.692,
      "duration": 0.346,
      "velocity": 0.63,
      "hand": "left"
    },
    {
      "midi": 71,
      "time": 0.692,
      "duration": 0.346,
      "velocity": 0.63,
      "hand": "right"
    },
    {
      "midi": 59,
      "time": 0.923,
      "duration": 0.115,
      "velocity": 0.63,
      "hand": "left"
    },
    {
      "midi": 62,
      "time": 0.923,
      "duration": 0.115,
      "velocity": 0.63,
      "hand": "right"
    },
    {
      "midi": 74,
      "time": 0.923,
      "duration": 0.115,
      "velocity": 0.63,
      "hand": "right"
    },
    {
      "midi": 50,
      "time": 1.154,
      "duration": 0.346,
      "velocity": 0.63,
      "hand": "left"
    },
    {
      "midi": 74,
      "time": 1.154,
      "duration": 0.215,
      "velocity": 0.63,
      "hand": "right"
    },
    {
      "midi": 59,
      "time": 1.384,
      "duration": 0.115,
      "velocity": 0.63,
      "hand": "left"
    },
    {
      "midi": 62,
      "time": 1.384,
      "duration": 0.115,
      "velocity": 0.63,
      "hand": "right"
    },
    {
      "midi": 74,
      "time": 1.384,
      "duration": 0.115,
      "velocity": 0.63,
      "hand": "right"
    },
    {
      "midi": 55,
      "time": 1.615,
      "duration": 0.346,
      "velocity": 0.63,
      "hand": "left"
    },
    {
      "midi": 76,
      "time": 1.615,
      "duration": 0.346,
      "velocity": 0.63,
      "hand": "right"
    },
    {
      "midi": 59,
      "time": 1.846,
      "duration": 0.115,
      "velocity": 0.63,
      "hand": "left"
    },
    {
      "midi": 62,
      "time": 1.846,
      "duration": 0.115,
      "velocity": 0.63,
      "hand": "right"
    },
    {
      "midi": 74,
      "time": 1.846,
      "duration": 0.115,
      "velocity": 0.63,
      "hand": "right"
    },
    {
      "midi": 50,
      "time": 2.077,
      "duration": 0.346,
      "velocity": 0.63,
      "hand": "left"
    },
    {
      "midi": 72,
      "time": 2.077,
      "duration": 0.346,
      "velocity": 0.63,
      "hand": "right"
    },
    {
      "midi": 59,
      "time": 2.307,
      "duration": 0.115,
      "velocity": 0.63,
      "hand": "left"
    },
    {
      "midi": 62,
      "time": 2.307,
      "duration": 0.115,
      "velocity": 0.63,
      "hand": "right"
    },
    {
      "midi": 71,
      "time": 2.307,
      "duration": 0.115,
      "velocity": 0.63,
      "hand": "right"
    },
    {
      "midi": 54,
      "time": 2.538,
      "duration": 0.346,
      "velocity": 0.63,
      "hand": "left"
    },
    {
      "midi": 74,
      "time": 2.538,
      "duration": 0.692,
      "velocity": 0.63,
      "hand": "right"
    },
    {
      "midi": 57,
      "time": 2.769,
      "duration": 0.115,
      "velocity": 0.63,
      "hand": "left"
    },
    {
      "midi": 62,
      "time": 2.769,
      "duration": 0.115,
      "velocity": 0.63,
      "hand": "right"
    },
    {
      "midi": 50,
      "time": 3,
      "duration": 0.346,
      "velocity": 0.63,
      "hand": "left"
    },
    {
      "midi": 69,
      "time": 3,
      "duration": 0.677,
      "velocity": 0.63,
      "hand": "right"
    },
    {
      "midi": 57,
      "time": 3.231,
      "duration": 0.115,
      "velocity": 0.63,
      "hand": "left"
    },
    {
      "midi": 62,
      "time": 3.231,
      "duration": 0.115,
      "velocity": 0.63,
      "hand": "right"
    },
    {
      "midi": 54,
      "time": 3.461,
      "duration": 0.346,
      "velocity": 0.63,
      "hand": "left"
    },
    {
      "midi": 57,
      "time": 3.692,
      "duration": 0.115,
      "velocity": 0.63,
      "hand": "left"
    },
    {
      "midi": 62,
      "time": 3.692,
      "duration": 0.115,
      "velocity": 0.63,
      "hand": "right"
    },
    {
      "midi": 69,
      "time": 3.692,
      "duration": 0.115,
      "velocity": 0.63,
      "hand": "right"
    },
    {
      "midi": 50,
      "time": 3.923,
      "duration": 0.346,
      "velocity": 0.63,
      "hand": "left"
    },
    {
      "midi": 69,
      "time": 3.923,
      "duration": 0.346,
      "velocity": 0.63,
      "hand": "right"
    },
    {
      "midi": 57,
      "time": 4.154,
      "duration": 0.115,
      "velocity": 0.63,
      "hand": "left"
    },
    {
      "midi": 62,
      "time": 4.154,
      "duration": 0.115,
      "velocity": 0.63,
      "hand": "right"
    },
    {
      "midi": 71,
      "time": 4.154,
      "duration": 0.115,
      "velocity": 0.63,
      "hand": "right"
    },
    {
      "midi": 54,
      "time": 4.384,
      "duration": 0.346,
      "velocity": 0.63,
      "hand": "left"
    },
    {
      "midi": 72,
      "time": 4.384,
      "duration": 0.346,
      "velocity": 0.63,
      "hand": "right"
    },
    {
      "midi": 57,
      "time": 4.615,
      "duration": 0.115,
      "velocity": 0.63,
      "hand": "left"
    },
    {
      "midi": 62,
      "time": 4.615,
      "duration": 0.115,
      "velocity": 0.63,
      "hand": "right"
    },
    {
      "midi": 71,
      "time": 4.615,
      "duration": 0.115,
      "velocity": 0.63,
      "hand": "right"
    },
    {
      "midi": 50,
      "time": 4.846,
      "duration": 0.346,
      "velocity": 0.63,
      "hand": "left"
    },
    {
      "midi": 69,
      "time": 4.846,
      "duration": 0.346,
      "velocity": 0.63,
      "hand": "right"
    },
    {
      "midi": 57,
      "time": 5.077,
      "duration": 0.115,
      "velocity": 0.63,
      "hand": "left"
    },
    {
      "midi": 62,
      "time": 5.077,
      "duration": 0.115,
      "velocity": 0.63,
      "hand": "right"
    },
    {
      "midi": 71,
      "time": 5.077,
      "duration": 0.115,
      "velocity": 0.63,
      "hand": "right"
    },
    {
      "midi": 54,
      "time": 5.307,
      "duration": 0.346,
      "velocity": 0.63,
      "hand": "left"
    },
    {
      "midi": 72,
      "time": 5.307,
      "duration": 0.346,
      "velocity": 0.63,
      "hand": "right"
    },
    {
      "midi": 57,
      "time": 5.538,
      "duration": 0.115,
      "velocity": 0.63,
      "hand": "left"
    },
    {
      "midi": 62,
      "time": 5.538,
      "duration": 0.115,
      "velocity": 0.63,
      "hand": "right"
    },
    {
      "midi": 71,
      "time": 5.538,
      "duration": 0.115,
      "velocity": 0.63,
      "hand": "right"
    },
    {
      "midi": 50,
      "time": 5.769,
      "duration": 0.346,
      "velocity": 0.63,
      "hand": "left"
    },
    {
      "midi": 72,
      "time": 5.769,
      "duration": 0.346,
      "velocity": 0.63,
      "hand": "right"
    },
    {
      "midi": 57,
      "time": 6,
      "duration": 0.115,
      "velocity": 0.63,
      "hand": "left"
    },
    {
      "midi": 62,
      "time": 6,
      "duration": 0.115,
      "velocity": 0.63,
      "hand": "right"
    },
    {
      "midi": 74,
      "time": 6,
      "duration": 0.115,
      "velocity": 0.63,
      "hand": "right"
    },
    {
      "midi": 55,
      "time": 6.231,
      "duration": 0.346,
      "velocity": 0.63,
      "hand": "left"
    },
    {
      "midi": 67,
      "time": 6.231,
      "duration": 1.269,
      "velocity": 0.63,
      "hand": "right"
    },
    {
      "midi": 71,
      "time": 6.231,
      "duration": 1.269,
      "velocity": 0.63,
      "hand": "right"
    },
    {
      "midi": 59,
      "time": 6.461,
      "duration": 0.115,
      "velocity": 0.63,
      "hand": "left"
    },
    {
      "midi": 62,
      "time": 6.461,
      "duration": 0.115,
      "velocity": 0.63,
      "hand": "right"
    },
    {
      "midi": 50,
      "time": 6.692,
      "duration": 0.346,
      "velocity": 0.63,
      "hand": "left"
    },
    {
      "midi": 59,
      "time": 6.923,
      "duration": 0.115,
      "velocity": 0.63,
      "hand": "left"
    },
    {
      "midi": 62,
      "time": 6.923,
      "duration": 0.115,
      "velocity": 0.63,
      "hand": "right"
    },
    {
      "midi": 55,
      "time": 7.154,
      "duration": 0.346,
      "velocity": 0.63,
      "hand": "left"
    },
    {
      "midi": 59,
      "time": 7.384,
      "duration": 0.115,
      "velocity": 0.63,
      "hand": "left"
    },
    {
      "midi": 62,
      "time": 7.384,
      "duration": 0.115,
      "velocity": 0.63,
      "hand": "right"
    },
    {
      "midi": 74,
      "time": 7.384,
      "duration": 0.115,
      "velocity": 0.63,
      "hand": "right"
    },
    {
      "midi": 50,
      "time": 7.615,
      "duration": 0.346,
      "velocity": 0.63,
      "hand": "left"
    },
    {
      "midi": 74,
      "time": 7.615,
      "duration": 0.216,
      "velocity": 0.63,
      "hand": "right"
    },
    {
      "midi": 59,
      "time": 7.846,
      "duration": 0.115,
      "velocity": 0.63,
      "hand": "left"
    },
    {
      "midi": 62,
      "time": 7.846,
      "duration": 0.115,
      "velocity": 0.63,
      "hand": "right"
    },
    {
      "midi": 74,
      "time": 7.846,
      "duration": 0.115,
      "velocity": 0.63,
      "hand": "right"
    },
    {
      "midi": 55,
      "time": 8.077,
      "duration": 0.346,
      "velocity": 0.63,
      "hand": "left"
    },
    {
      "midi": 71,
      "time": 8.077,
      "duration": 0.346,
      "velocity": 0.63,
      "hand": "right"
    },
    {
      "midi": 59,
      "time": 8.307,
      "duration": 0.115,
      "velocity": 0.63,
      "hand": "left"
    },
    {
      "midi": 62,
      "time": 8.307,
      "duration": 0.115,
      "velocity": 0.63,
      "hand": "right"
    },
    {
      "midi": 74,
      "time": 8.307,
      "duration": 0.115,
      "velocity": 0.63,
      "hand": "right"
    },
    {
      "midi": 50,
      "time": 8.538,
      "duration": 0.346,
      "velocity": 0.63,
      "hand": "left"
    },
    {
      "midi": 74,
      "time": 8.538,
      "duration": 0.216,
      "velocity": 0.63,
      "hand": "right"
    },
    {
      "midi": 59,
      "time": 8.769,
      "duration": 0.115,
      "velocity": 0.63,
      "hand": "left"
    },
    {
      "midi": 62,
      "time": 8.769,
      "duration": 0.115,
      "velocity": 0.63,
      "hand": "right"
    },
    {
      "midi": 74,
      "time": 8.769,
      "duration": 0.115,
      "velocity": 0.63,
      "hand": "right"
    },
    {
      "midi": 55,
      "time": 9,
      "duration": 0.346,
      "velocity": 0.63,
      "hand": "left"
    },
    {
      "midi": 76,
      "time": 9,
      "duration": 0.346,
      "velocity": 0.63,
      "hand": "right"
    },
    {
      "midi": 59,
      "time": 9.231,
      "duration": 0.115,
      "velocity": 0.63,
      "hand": "left"
    },
    {
      "midi": 62,
      "time": 9.231,
      "duration": 0.115,
      "velocity": 0.63,
      "hand": "right"
    },
    {
      "midi": 74,
      "time": 9.231,
      "duration": 0.115,
      "velocity": 0.63,
      "hand": "right"
    },
    {
      "midi": 50,
      "time": 9.461,
      "duration": 0.346,
      "velocity": 0.63,
      "hand": "left"
    },
    {
      "midi": 72,
      "time": 9.461,
      "duration": 0.346,
      "velocity": 0.63,
      "hand": "right"
    },
    {
      "midi": 59,
      "time": 9.692,
      "duration": 0.115,
      "velocity": 0.63,
      "hand": "left"
    },
    {
      "midi": 62,
      "time": 9.692,
      "duration": 0.115,
      "velocity": 0.63,
      "hand": "right"
    },
    {
      "midi": 71,
      "time": 9.692,
      "duration": 0.115,
      "velocity": 0.63,
      "hand": "right"
    },
    {
      "midi": 54,
      "time": 9.923,
      "duration": 0.346,
      "velocity": 0.63,
      "hand": "left"
    },
    {
      "midi": 74,
      "time": 9.923,
      "duration": 0.692,
      "velocity": 0.63,
      "hand": "right"
    },
    {
      "midi": 57,
      "time": 10.154,
      "duration": 0.115,
      "velocity": 0.63,
      "hand": "left"
    },
    {
      "midi": 62,
      "time": 10.154,
      "duration": 0.115,
      "velocity": 0.63,
      "hand": "right"
    },
    {
      "midi": 50,
      "time": 10.384,
      "duration": 0.346,
      "velocity": 0.63,
      "hand": "left"
    },
    {
      "midi": 69,
      "time": 10.384,
      "duration": 0.678,
      "velocity": 0.63,
      "hand": "right"
    },
    {
      "midi": 57,
      "time": 10.615,
      "duration": 0.115,
      "velocity": 0.63,
      "hand": "left"
    },
    {
      "midi": 62,
      "time": 10.615,
      "duration": 0.115,
      "velocity": 0.63,
      "hand": "right"
    },
    {
      "midi": 54,
      "time": 10.846,
      "duration": 0.346,
      "velocity": 0.63,
      "hand": "left"
    },
    {
      "midi": 57,
      "time": 11.077,
      "duration": 0.115,
      "velocity": 0.63,
      "hand": "left"
    },
    {
      "midi": 62,
      "time": 11.077,
      "duration": 0.115,
      "velocity": 0.63,
      "hand": "right"
    },
    {
      "midi": 69,
      "time": 11.077,
      "duration": 0.115,
      "velocity": 0.63,
      "hand": "right"
    },
    {
      "midi": 50,
      "time": 11.307,
      "duration": 0.346,
      "velocity": 0.63,
      "hand": "left"
    },
    {
      "midi": 69,
      "time": 11.307,
      "duration": 0.346,
      "velocity": 0.63,
      "hand": "right"
    },
    {
      "midi": 57,
      "time": 11.538,
      "duration": 0.115,
      "velocity": 0.63,
      "hand": "left"
    },
    {
      "midi": 62,
      "time": 11.538,
      "duration": 0.115,
      "velocity": 0.63,
      "hand": "right"
    },
    {
      "midi": 71,
      "time": 11.538,
      "duration": 0.115,
      "velocity": 0.63,
      "hand": "right"
    },
    {
      "midi": 54,
      "time": 11.769,
      "duration": 0.346,
      "velocity": 0.63,
      "hand": "left"
    },
    {
      "midi": 72,
      "time": 11.769,
      "duration": 0.346,
      "velocity": 0.63,
      "hand": "right"
    },
    {
      "midi": 57,
      "time": 12,
      "duration": 0.115,
      "velocity": 0.63,
      "hand": "left"
    },
    {
      "midi": 62,
      "time": 12,
      "duration": 0.115,
      "velocity": 0.63,
      "hand": "right"
    },
    {
      "midi": 71,
      "time": 12,
      "duration": 0.115,
      "velocity": 0.63,
      "hand": "right"
    },
    {
      "midi": 50,
      "time": 12.231,
      "duration": 0.346,
      "velocity": 0.63,
      "hand": "left"
    },
    {
      "midi": 69,
      "time": 12.231,
      "duration": 0.346,
      "velocity": 0.63,
      "hand": "right"
    },
    {
      "midi": 57,
      "time": 12.461,
      "duration": 0.115,
      "velocity": 0.63,
      "hand": "left"
    },
    {
      "midi": 62,
      "time": 12.461,
      "duration": 0.115,
      "velocity": 0.63,
      "hand": "right"
    },
    {
      "midi": 71,
      "time": 12.461,
      "duration": 0.115,
      "velocity": 0.63,
      "hand": "right"
    },
    {
      "midi": 54,
      "time": 12.692,
      "duration": 0.346,
      "velocity": 0.63,
      "hand": "left"
    },
    {
      "midi": 72,
      "time": 12.692,
      "duration": 0.346,
      "velocity": 0.63,
      "hand": "right"
    },
    {
      "midi": 57,
      "time": 12.923,
      "duration": 0.115,
      "velocity": 0.63,
      "hand": "left"
    },
    {
      "midi": 62,
      "time": 12.923,
      "duration": 0.115,
      "velocity": 0.63,
      "hand": "right"
    },
    {
      "midi": 71,
      "time": 12.923,
      "duration": 0.115,
      "velocity": 0.63,
      "hand": "right"
    },
    {
      "midi": 50,
      "time": 13.154,
      "duration": 0.346,
      "velocity": 0.63,
      "hand": "left"
    },
    {
      "midi": 72,
      "time": 13.154,
      "duration": 0.346,
      "velocity": 0.63,
      "hand": "right"
    },
    {
      "midi": 57,
      "time": 13.384,
      "duration": 0.115,
      "velocity": 0.63,
      "hand": "left"
    },
    {
      "midi": 62,
      "time": 13.384,
      "duration": 0.115,
      "velocity": 0.63,
      "hand": "right"
    },
    {
      "midi": 74,
      "time": 13.384,
      "duration": 0.115,
      "velocity": 0.63,
      "hand": "right"
    },
    {
      "midi": 55,
      "time": 13.615,
      "duration": 0.346,
      "velocity": 0.63,
      "hand": "left"
    },
    {
      "midi": 67,
      "time": 13.615,
      "duration": 0.908,
      "velocity": 0.63,
      "hand": "right"
    },
    {
      "midi": 71,
      "time": 13.615,
      "duration": 0.908,
      "velocity": 0.63,
      "hand": "right"
    },
    {
      "midi": 59,
      "time": 13.846,
      "duration": 0.115,
      "velocity": 0.63,
      "hand": "left"
    },
    {
      "midi": 62,
      "time": 13.846,
      "duration": 0.115,
      "velocity": 0.63,
      "hand": "right"
    },
    {
      "midi": 50,
      "time": 14.077,
      "duration": 0.346,
      "velocity": 0.63,
      "hand": "left"
    },
    {
      "midi": 59,
      "time": 14.307,
      "duration": 0.115,
      "velocity": 0.63,
      "hand": "left"
    },
    {
      "midi": 62,
      "time": 14.307,
      "duration": 0.115,
      "velocity": 0.63,
      "hand": "right"
    },
    {
      "midi": 43,
      "time": 14.538,
      "duration": 0.692,
      "velocity": 0.63,
      "hand": "left"
    },
    {
      "midi": 55,
      "time": 14.538,
      "duration": 0.692,
      "velocity": 0.63,
      "hand": "left"
    },
    {
      "midi": 67,
      "time": 14.538,
      "duration": 6.678,
      "velocity": 0.63,
      "hand": "right"
    },
    {
      "midi": 71,
      "time": 14.538,
      "duration": 1.139,
      "velocity": 0.63,
      "hand": "right"
    },
    {
      "midi": 74,
      "time": 14.769,
      "duration": 0.115,
      "velocity": 0.63,
      "hand": "right"
    },
    {
      "midi": 74,
      "time": 15,
      "duration": 0.216,
      "velocity": 0.63,
      "hand": "right"
    },
    {
      "midi": 74,
      "time": 15.231,
      "duration": 0.115,
      "velocity": 0.63,
      "hand": "right"
    },
    {
      "midi": 55,
      "time": 15.461,
      "duration": 0.346,
      "velocity": 0.63,
      "hand": "left"
    },
    {
      "midi": 79,
      "time": 15.461,
      "duration": 1.269,
      "velocity": 0.63,
      "hand": "right"
    },
    {
      "midi": 59,
      "time": 15.692,
      "duration": 0.115,
      "velocity": 0.63,
      "hand": "left"
    },
    {
      "midi": 62,
      "time": 15.692,
      "duration": 0.115,
      "velocity": 0.63,
      "hand": "right"
    },
    {
      "midi": 71,
      "time": 15.692,
      "duration": 0.447,
      "velocity": 0.63,
      "hand": "right"
    },
    {
      "midi": 74,
      "time": 15.692,
      "duration": 0.115,
      "velocity": 0.63,
      "hand": "right"
    },
    {
      "midi": 50,
      "time": 15.923,
      "duration": 0.346,
      "velocity": 0.63,
      "hand": "left"
    },
    {
      "midi": 59,
      "time": 16.154,
      "duration": 0.115,
      "velocity": 0.63,
      "hand": "left"
    },
    {
      "midi": 62,
      "time": 16.154,
      "duration": 0.115,
      "velocity": 0.63,
      "hand": "right"
    },
    {
      "midi": 71,
      "time": 16.154,
      "duration": 5.062,
      "velocity": 0.63,
      "hand": "right"
    },
    {
      "midi": 74,
      "time": 16.154,
      "duration": 0.115,
      "velocity": 0.63,
      "hand": "right"
    },
    {
      "midi": 55,
      "time": 16.384,
      "duration": 0.346,
      "velocity": 0.63,
      "hand": "left"
    },
    {
      "midi": 59,
      "time": 16.615,
      "duration": 0.115,
      "velocity": 0.63,
      "hand": "left"
    },
    {
      "midi": 62,
      "time": 16.615,
      "duration": 0.115,
      "velocity": 0.63,
      "hand": "right"
    },
    {
      "midi": 78,
      "time": 16.615,
      "duration": 0.115,
      "velocity": 0.63,
      "hand": "right"
    },
    {
      "midi": 50,
      "time": 16.846,
      "duration": 0.346,
      "velocity": 0.63,
      "hand": "left"
    },
    {
      "midi": 76,
      "time": 16.846,
      "duration": 0.346,
      "velocity": 0.63,
      "hand": "right"
    },
    {
      "midi": 59,
      "time": 17.077,
      "duration": 0.115,
      "velocity": 0.63,
      "hand": "left"
    },
    {
      "midi": 62,
      "time": 17.077,
      "duration": 0.115,
      "velocity": 0.63,
      "hand": "right"
    },
    {
      "midi": 74,
      "time": 17.077,
      "duration": 0.115,
      "velocity": 0.63,
      "hand": "right"
    },
    {
      "midi": 54,
      "time": 17.307,
      "duration": 0.346,
      "velocity": 0.63,
      "hand": "left"
    },
    {
      "midi": 78,
      "time": 17.307,
      "duration": 1.269,
      "velocity": 0.63,
      "hand": "right"
    },
    {
      "midi": 57,
      "time": 17.538,
      "duration": 0.115,
      "velocity": 0.63,
      "hand": "left"
    },
    {
      "midi": 62,
      "time": 17.538,
      "duration": 0.115,
      "velocity": 0.63,
      "hand": "right"
    },
    {
      "midi": 69,
      "time": 17.538,
      "duration": 0.115,
      "velocity": 0.63,
      "hand": "right"
    },
    {
      "midi": 72,
      "time": 17.538,
      "duration": 0.115,
      "velocity": 0.63,
      "hand": "right"
    },
    {
      "midi": 50,
      "time": 17.769,
      "duration": 0.346,
      "velocity": 0.63,
      "hand": "left"
    },
    {
      "midi": 57,
      "time": 18,
      "duration": 0.115,
      "velocity": 0.63,
      "hand": "left"
    },
    {
      "midi": 62,
      "time": 18,
      "duration": 0.115,
      "velocity": 0.63,
      "hand": "right"
    },
    {
      "midi": 69,
      "time": 18,
      "duration": 0.115,
      "velocity": 0.63,
      "hand": "right"
    },
    {
      "midi": 72,
      "time": 18,
      "duration": 0.115,
      "velocity": 0.63,
      "hand": "right"
    },
    {
      "midi": 54,
      "time": 18.231,
      "duration": 0.346,
      "velocity": 0.63,
      "hand": "left"
    },
    {
      "midi": 57,
      "time": 18.461,
      "duration": 0.115,
      "velocity": 0.63,
      "hand": "left"
    },
    {
      "midi": 62,
      "time": 18.461,
      "duration": 0.115,
      "velocity": 0.63,
      "hand": "right"
    },
    {
      "midi": 74,
      "time": 18.461,
      "duration": 0.115,
      "velocity": 0.63,
      "hand": "right"
    },
    {
      "midi": 50,
      "time": 18.692,
      "duration": 0.346,
      "velocity": 0.63,
      "hand": "left"
    },
    {
      "midi": 74,
      "time": 18.692,
      "duration": 0.216,
      "velocity": 0.63,
      "hand": "right"
    },
    {
      "midi": 57,
      "time": 18.923,
      "duration": 0.115,
      "velocity": 0.63,
      "hand": "left"
    },
    {
      "midi": 62,
      "time": 18.923,
      "duration": 0.115,
      "velocity": 0.63,
      "hand": "right"
    },
    {
      "midi": 74,
      "time": 18.923,
      "duration": 0.115,
      "velocity": 0.63,
      "hand": "right"
    },
    {
      "midi": 54,
      "time": 19.154,
      "duration": 0.346,
      "velocity": 0.63,
      "hand": "left"
    },
    {
      "midi": 78,
      "time": 19.154,
      "duration": 1.269,
      "velocity": 0.63,
      "hand": "right"
    },
    {
      "midi": 57,
      "time": 19.384,
      "duration": 0.115,
      "velocity": 0.63,
      "hand": "left"
    },
    {
      "midi": 62,
      "time": 19.384,
      "duration": 0.115,
      "velocity": 0.63,
      "hand": "right"
    },
    {
      "midi": 69,
      "time": 19.384,
      "duration": 0.115,
      "velocity": 0.63,
      "hand": "right"
    },
    {
      "midi": 72,
      "time": 19.384,
      "duration": 0.115,
      "velocity": 0.63,
      "hand": "right"
    },
    {
      "midi": 50,
      "time": 19.615,
      "duration": 0.346,
      "velocity": 0.63,
      "hand": "left"
    },
    {
      "midi": 57,
      "time": 19.846,
      "duration": 0.115,
      "velocity": 0.63,
      "hand": "left"
    },
    {
      "midi": 62,
      "time": 19.846,
      "duration": 0.115,
      "velocity": 0.63,
      "hand": "right"
    },
    {
      "midi": 69,
      "time": 19.846,
      "duration": 0.115,
      "velocity": 0.63,
      "hand": "right"
    },
    {
      "midi": 72,
      "time": 19.846,
      "duration": 0.115,
      "velocity": 0.63,
      "hand": "right"
    },
    {
      "midi": 54,
      "time": 20.077,
      "duration": 0.346,
      "velocity": 0.63,
      "hand": "left"
    },
    {
      "midi": 57,
      "time": 20.307,
      "duration": 0.115,
      "velocity": 0.63,
      "hand": "left"
    },
    {
      "midi": 62,
      "time": 20.307,
      "duration": 0.115,
      "velocity": 0.63,
      "hand": "right"
    },
    {
      "midi": 76,
      "time": 20.307,
      "duration": 0.115,
      "velocity": 0.63,
      "hand": "right"
    },
    {
      "midi": 50,
      "time": 20.538,
      "duration": 0.346,
      "velocity": 0.63,
      "hand": "left"
    },
    {
      "midi": 74,
      "time": 20.538,
      "duration": 0.346,
      "velocity": 0.63,
      "hand": "right"
    },
    {
      "midi": 57,
      "time": 20.769,
      "duration": 0.115,
      "velocity": 0.63,
      "hand": "left"
    },
    {
      "midi": 62,
      "time": 20.769,
      "duration": 0.115,
      "velocity": 0.63,
      "hand": "right"
    },
    {
      "midi": 72,
      "time": 20.769,
      "duration": 0.115,
      "velocity": 0.63,
      "hand": "right"
    },
    {
      "midi": 55,
      "time": 21,
      "duration": 0.346,
      "velocity": 0.63,
      "hand": "left"
    },
    {
      "midi": 76,
      "time": 21,
      "duration": 1.269,
      "velocity": 0.63,
      "hand": "right"
    },
    {
      "midi": 59,
      "time": 21.231,
      "duration": 0.115,
      "velocity": 0.63,
      "hand": "left"
    },
    {
      "midi": 62,
      "time": 21.231,
      "duration": 0.115,
      "velocity": 0.63,
      "hand": "right"
    },
    {
      "midi": 67,
      "time": 21.231,
      "duration": 0.446,
      "velocity": 0.63,
      "hand": "right"
    },
    {
      "midi": 71,
      "time": 21.231,
      "duration": 0.446,
      "velocity": 0.63,
      "hand": "right"
    },
    {
      "midi": 50,
      "time": 21.461,
      "duration": 0.346,
      "velocity": 0.63,
      "hand": "left"
    },
    {
      "midi": 59,
      "time": 21.692,
      "duration": 0.115,
      "velocity": 0.63,
      "hand": "left"
    },
    {
      "midi": 62,
      "time": 21.692,
      "duration": 0.115,
      "velocity": 0.63,
      "hand": "right"
    },
    {
      "midi": 67,
      "time": 21.692,
      "duration": 6.677,
      "velocity": 0.63,
      "hand": "right"
    },
    {
      "midi": 71,
      "time": 21.692,
      "duration": 1.37,
      "velocity": 0.63,
      "hand": "right"
    },
    {
      "midi": 55,
      "time": 21.923,
      "duration": 0.346,
      "velocity": 0.63,
      "hand": "left"
    },
    {
      "midi": 59,
      "time": 22.154,
      "duration": 0.115,
      "velocity": 0.63,
      "hand": "left"
    },
    {
      "midi": 62,
      "time": 22.154,
      "duration": 0.115,
      "velocity": 0.63,
      "hand": "right"
    },
    {
      "midi": 74,
      "time": 22.154,
      "duration": 0.115,
      "velocity": 0.63,
      "hand": "right"
    },
    {
      "midi": 50,
      "time": 22.384,
      "duration": 0.346,
      "velocity": 0.63,
      "hand": "left"
    },
    {
      "midi": 74,
      "time": 22.384,
      "duration": 0.216,
      "velocity": 0.63,
      "hand": "right"
    },
    {
      "midi": 59,
      "time": 22.615,
      "duration": 0.115,
      "velocity": 0.63,
      "hand": "left"
    },
    {
      "midi": 62,
      "time": 22.615,
      "duration": 0.115,
      "velocity": 0.63,
      "hand": "right"
    },
    {
      "midi": 74,
      "time": 22.615,
      "duration": 0.115,
      "velocity": 0.63,
      "hand": "right"
    },
    {
      "midi": 55,
      "time": 22.846,
      "duration": 0.346,
      "velocity": 0.63,
      "hand": "left"
    },
    {
      "midi": 79,
      "time": 22.846,
      "duration": 1.269,
      "velocity": 0.63,
      "hand": "right"
    },
    {
      "midi": 59,
      "time": 23.077,
      "duration": 0.115,
      "velocity": 0.63,
      "hand": "left"
    },
    {
      "midi": 62,
      "time": 23.077,
      "duration": 0.115,
      "velocity": 0.63,
      "hand": "right"
    },
    {
      "midi": 71,
      "time": 23.077,
      "duration": 0.446,
      "velocity": 0.63,
      "hand": "right"
    },
    {
      "midi": 74,
      "time": 23.077,
      "duration": 0.115,
      "velocity": 0.63,
      "hand": "right"
    },
    {
      "midi": 50,
      "time": 23.307,
      "duration": 0.346,
      "velocity": 0.63,
      "hand": "left"
    },
    {
      "midi": 59,
      "time": 23.538,
      "duration": 0.115,
      "velocity": 0.63,
      "hand": "left"
    },
    {
      "midi": 62,
      "time": 23.538,
      "duration": 0.115,
      "velocity": 0.63,
      "hand": "right"
    },
    {
      "midi": 71,
      "time": 23.538,
      "duration": 4.831,
      "velocity": 0.63,
      "hand": "right"
    },
    {
      "midi": 74,
      "time": 23.538,
      "duration": 0.115,
      "velocity": 0.63,
      "hand": "right"
    },
    {
      "midi": 55,
      "time": 23.769,
      "duration": 0.346,
      "velocity": 0.63,
      "hand": "left"
    },
    {
      "midi": 59,
      "time": 24,
      "duration": 0.115,
      "velocity": 0.63,
      "hand": "left"
    },
    {
      "midi": 62,
      "time": 24,
      "duration": 0.115,
      "velocity": 0.63,
      "hand": "right"
    },
    {
      "midi": 78,
      "time": 24,
      "duration": 0.115,
      "velocity": 0.63,
      "hand": "right"
    },
    {
      "midi": 50,
      "time": 24.231,
      "duration": 0.346,
      "velocity": 0.63,
      "hand": "left"
    },
    {
      "midi": 76,
      "time": 24.231,
      "duration": 0.346,
      "velocity": 0.63,
      "hand": "right"
    },
    {
      "midi": 59,
      "time": 24.461,
      "duration": 0.115,
      "velocity": 0.63,
      "hand": "left"
    },
    {
      "midi": 62,
      "time": 24.461,
      "duration": 0.115,
      "velocity": 0.63,
      "hand": "right"
    },
    {
      "midi": 74,
      "time": 24.461,
      "duration": 0.115,
      "velocity": 0.63,
      "hand": "right"
    },
    {
      "midi": 54,
      "time": 24.692,
      "duration": 0.346,
      "velocity": 0.63,
      "hand": "left"
    },
    {
      "midi": 78,
      "time": 24.692,
      "duration": 1.269,
      "velocity": 0.63,
      "hand": "right"
    },
    {
      "midi": 57,
      "time": 24.923,
      "duration": 0.115,
      "velocity": 0.63,
      "hand": "left"
    },
    {
      "midi": 62,
      "time": 24.923,
      "duration": 0.115,
      "velocity": 0.63,
      "hand": "right"
    },
    {
      "midi": 69,
      "time": 24.923,
      "duration": 0.115,
      "velocity": 0.63,
      "hand": "right"
    },
    {
      "midi": 72,
      "time": 24.923,
      "duration": 0.115,
      "velocity": 0.63,
      "hand": "right"
    },
    {
      "midi": 50,
      "time": 25.154,
      "duration": 0.346,
      "velocity": 0.63,
      "hand": "left"
    },
    {
      "midi": 57,
      "time": 25.384,
      "duration": 0.115,
      "velocity": 0.63,
      "hand": "left"
    },
    {
      "midi": 62,
      "time": 25.384,
      "duration": 0.115,
      "velocity": 0.63,
      "hand": "right"
    },
    {
      "midi": 69,
      "time": 25.384,
      "duration": 0.115,
      "velocity": 0.63,
      "hand": "right"
    },
    {
      "midi": 72,
      "time": 25.384,
      "duration": 0.115,
      "velocity": 0.63,
      "hand": "right"
    },
    {
      "midi": 54,
      "time": 25.615,
      "duration": 0.346,
      "velocity": 0.63,
      "hand": "left"
    },
    {
      "midi": 57,
      "time": 25.846,
      "duration": 0.115,
      "velocity": 0.63,
      "hand": "left"
    },
    {
      "midi": 62,
      "time": 25.846,
      "duration": 0.115,
      "velocity": 0.63,
      "hand": "right"
    },
    {
      "midi": 74,
      "time": 25.846,
      "duration": 0.115,
      "velocity": 0.63,
      "hand": "right"
    },
    {
      "midi": 50,
      "time": 26.077,
      "duration": 0.346,
      "velocity": 0.63,
      "hand": "left"
    },
    {
      "midi": 74,
      "time": 26.077,
      "duration": 0.215,
      "velocity": 0.63,
      "hand": "right"
    },
    {
      "midi": 57,
      "time": 26.307,
      "duration": 0.115,
      "velocity": 0.63,
      "hand": "left"
    },
    {
      "midi": 62,
      "time": 26.307,
      "duration": 0.115,
      "velocity": 0.63,
      "hand": "right"
    },
    {
      "midi": 74,
      "time": 26.307,
      "duration": 0.115,
      "velocity": 0.63,
      "hand": "right"
    },
    {
      "midi": 54,
      "time": 26.538,
      "duration": 0.346,
      "velocity": 0.63,
      "hand": "left"
    },
    {
      "midi": 78,
      "time": 26.538,
      "duration": 1.269,
      "velocity": 0.63,
      "hand": "right"
    },
    {
      "midi": 57,
      "time": 26.769,
      "duration": 0.115,
      "velocity": 0.63,
      "hand": "left"
    },
    {
      "midi": 62,
      "time": 26.769,
      "duration": 0.115,
      "velocity": 0.63,
      "hand": "right"
    },
    {
      "midi": 69,
      "time": 26.769,
      "duration": 0.115,
      "velocity": 0.63,
      "hand": "right"
    },
    {
      "midi": 72,
      "time": 26.769,
      "duration": 0.115,
      "velocity": 0.63,
      "hand": "right"
    },
    {
      "midi": 50,
      "time": 27,
      "duration": 0.346,
      "velocity": 0.63,
      "hand": "left"
    },
    {
      "midi": 57,
      "time": 27.231,
      "duration": 0.115,
      "velocity": 0.63,
      "hand": "left"
    },
    {
      "midi": 62,
      "time": 27.231,
      "duration": 0.115,
      "velocity": 0.63,
      "hand": "right"
    },
    {
      "midi": 69,
      "time": 27.231,
      "duration": 0.115,
      "velocity": 0.63,
      "hand": "right"
    },
    {
      "midi": 72,
      "time": 27.231,
      "duration": 0.115,
      "velocity": 0.63,
      "hand": "right"
    },
    {
      "midi": 54,
      "time": 27.461,
      "duration": 0.346,
      "velocity": 0.63,
      "hand": "left"
    },
    {
      "midi": 57,
      "time": 27.692,
      "duration": 0.115,
      "velocity": 0.63,
      "hand": "left"
    },
    {
      "midi": 62,
      "time": 27.692,
      "duration": 0.115,
      "velocity": 0.63,
      "hand": "right"
    },
    {
      "midi": 76,
      "time": 27.692,
      "duration": 0.115,
      "velocity": 0.63,
      "hand": "right"
    },
    {
      "midi": 50,
      "time": 27.923,
      "duration": 0.346,
      "velocity": 0.63,
      "hand": "left"
    },
    {
      "midi": 74,
      "time": 27.923,
      "duration": 0.346,
      "velocity": 0.63,
      "hand": "right"
    },
    {
      "midi": 57,
      "time": 28.154,
      "duration": 0.115,
      "velocity": 0.63,
      "hand": "left"
    },
    {
      "midi": 62,
      "time": 28.154,
      "duration": 0.115,
      "velocity": 0.63,
      "hand": "right"
    },
    {
      "midi": 72,
      "time": 28.154,
      "duration": 0.115,
      "velocity": 0.63,
      "hand": "right"
    },
    {
      "midi": 43,
      "time": 28.384,
      "duration": 0.346,
      "velocity": 0.63,
      "hand": "left"
    },
    {
      "midi": 55,
      "time": 28.384,
      "duration": 0.346,
      "velocity": 0.63,
      "hand": "left"
    },
    {
      "midi": 67,
      "time": 28.384,
      "duration": 7.37,
      "velocity": 0.63,
      "hand": "right"
    },
    {
      "midi": 71,
      "time": 28.384,
      "duration": 1.832,
      "velocity": 0.63,
      "hand": "right"
    },
    {
      "midi": 52,
      "time": 28.615,
      "duration": 0.115,
      "velocity": 0.63,
      "hand": "left"
    },
    {
      "midi": 50,
      "time": 28.846,
      "duration": 0.346,
      "velocity": 0.63,
      "hand": "left"
    },
    {
      "midi": 47,
      "time": 29.077,
      "duration": 0.115,
      "velocity": 0.63,
      "hand": "left"
    },
    {
      "midi": 43,
      "time": 29.307,
      "duration": 0.346,
      "velocity": 0.63,
      "hand": "left"
    },
    {
      "midi": 47,
      "time": 29.538,
      "duration": 0.115,
      "velocity": 0.63,
      "hand": "left"
    },
    {
      "midi": 52,
      "time": 29.538,
      "duration": 0.115,
      "velocity": 0.63,
      "hand": "left"
    },
    {
      "midi": 74,
      "time": 29.538,
      "duration": 0.115,
      "velocity": 0.63,
      "hand": "right"
    },
    {
      "midi": 74,
      "time": 29.769,
      "duration": 0.216,
      "velocity": 0.63,
      "hand": "right"
    },
    {
      "midi": 74,
      "time": 30,
      "duration": 0.115,
      "velocity": 0.63,
      "hand": "right"
    },
    {
      "midi": 55,
      "time": 30.231,
      "duration": 0.346,
      "velocity": 0.63,
      "hand": "left"
    },
    {
      "midi": 71,
      "time": 30.231,
      "duration": 1.6,
      "velocity": 0.63,
      "hand": "right"
    },
    {
      "midi": 59,
      "time": 30.461,
      "duration": 0.115,
      "velocity": 0.63,
      "hand": "left"
    },
    {
      "midi": 62,
      "time": 30.461,
      "duration": 0.115,
      "velocity": 0.63,
      "hand": "right"
    },
    {
      "midi": 74,
      "time": 30.461,
      "duration": 0.115,
      "velocity": 0.63,
      "hand": "right"
    },
    {
      "midi": 50,
      "time": 30.692,
      "duration": 0.346,
      "velocity": 0.63,
      "hand": "left"
    },
    {
      "midi": 74,
      "time": 30.692,
      "duration": 0.216,
      "velocity": 0.63,
      "hand": "right"
    },
    {
      "midi": 59,
      "time": 30.923,
      "duration": 0.115,
      "velocity": 0.63,
      "hand": "left"
    },
    {
      "midi": 62,
      "time": 30.923,
      "duration": 0.115,
      "velocity": 0.63,
      "hand": "right"
    },
    {
      "midi": 74,
      "time": 30.923,
      "duration": 0.115,
      "velocity": 0.63,
      "hand": "right"
    },
    {
      "midi": 55,
      "time": 31.154,
      "duration": 0.346,
      "velocity": 0.63,
      "hand": "left"
    },
    {
      "midi": 76,
      "time": 31.154,
      "duration": 0.346,
      "velocity": 0.63,
      "hand": "right"
    },
    {
      "midi": 59,
      "time": 31.384,
      "duration": 0.115,
      "velocity": 0.63,
      "hand": "left"
    },
    {
      "midi": 62,
      "time": 31.384,
      "duration": 0.115,
      "velocity": 0.63,
      "hand": "right"
    },
    {
      "midi": 74,
      "time": 31.384,
      "duration": 0.115,
      "velocity": 0.63,
      "hand": "right"
    },
    {
      "midi": 50,
      "time": 31.615,
      "duration": 0.346,
      "velocity": 0.63,
      "hand": "left"
    },
    {
      "midi": 72,
      "time": 31.615,
      "duration": 0.346,
      "velocity": 0.63,
      "hand": "right"
    },
    {
      "midi": 59,
      "time": 31.846,
      "duration": 0.115,
      "velocity": 0.63,
      "hand": "left"
    },
    {
      "midi": 62,
      "time": 31.846,
      "duration": 0.115,
      "velocity": 0.63,
      "hand": "right"
    },
    {
      "midi": 71,
      "time": 31.846,
      "duration": 1.831,
      "velocity": 0.63,
      "hand": "right"
    },
    {
      "midi": 54,
      "time": 32.077,
      "duration": 0.346,
      "velocity": 0.63,
      "hand": "left"
    },
    {
      "midi": 74,
      "time": 32.077,
      "duration": 0.692,
      "velocity": 0.63,
      "hand": "right"
    },
    {
      "midi": 57,
      "time": 32.307,
      "duration": 0.115,
      "velocity": 0.63,
      "hand": "left"
    },
    {
      "midi": 62,
      "time": 32.307,
      "duration": 0.115,
      "velocity": 0.63,
      "hand": "right"
    },
    {
      "midi": 50,
      "time": 32.538,
      "duration": 0.346,
      "velocity": 0.63,
      "hand": "left"
    },
    {
      "midi": 69,
      "time": 32.538,
      "duration": 0.678,
      "velocity": 0.63,
      "hand": "right"
    },
    {
      "midi": 57,
      "time": 32.769,
      "duration": 0.115,
      "velocity": 0.63,
      "hand": "left"
    },
    {
      "midi": 62,
      "time": 32.769,
      "duration": 0.115,
      "velocity": 0.63,
      "hand": "right"
    },
    {
      "midi": 54,
      "time": 33,
      "duration": 0.346,
      "velocity": 0.63,
      "hand": "left"
    },
    {
      "midi": 57,
      "time": 33.231,
      "duration": 0.115,
      "velocity": 0.63,
      "hand": "left"
    },
    {
      "midi": 62,
      "time": 33.231,
      "duration": 0.115,
      "velocity": 0.63,
      "hand": "right"
    },
    {
      "midi": 69,
      "time": 33.231,
      "duration": 0.115,
      "velocity": 0.63,
      "hand": "right"
    },
    {
      "midi": 50,
      "time": 33.461,
      "duration": 0.346,
      "velocity": 0.63,
      "hand": "left"
    },
    {
      "midi": 69,
      "time": 33.461,
      "duration": 0.346,
      "velocity": 0.63,
      "hand": "right"
    },
    {
      "midi": 57,
      "time": 33.692,
      "duration": 0.115,
      "velocity": 0.63,
      "hand": "left"
    },
    {
      "midi": 62,
      "time": 33.692,
      "duration": 0.115,
      "velocity": 0.63,
      "hand": "right"
    },
    {
      "midi": 71,
      "time": 33.692,
      "duration": 0.447,
      "velocity": 0.63,
      "hand": "right"
    },
    {
      "midi": 54,
      "time": 33.923,
      "duration": 0.346,
      "velocity": 0.63,
      "hand": "left"
    },
    {
      "midi": 72,
      "time": 33.923,
      "duration": 0.346,
      "velocity": 0.63,
      "hand": "right"
    },
    {
      "midi": 57,
      "time": 34.154,
      "duration": 0.115,
      "velocity": 0.63,
      "hand": "left"
    },
    {
      "midi": 62,
      "time": 34.154,
      "duration": 0.115,
      "velocity": 0.63,
      "hand": "right"
    },
    {
      "midi": 71,
      "time": 34.154,
      "duration": 0.446,
      "velocity": 0.63,
      "hand": "right"
    },
    {
      "midi": 50,
      "time": 34.384,
      "duration": 0.346,
      "velocity": 0.63,
      "hand": "left"
    },
    {
      "midi": 69,
      "time": 34.384,
      "duration": 0.346,
      "velocity": 0.63,
      "hand": "right"
    },
    {
      "midi": 57,
      "time": 34.615,
      "duration": 0.115,
      "velocity": 0.63,
      "hand": "left"
    },
    {
      "midi": 62,
      "time": 34.615,
      "duration": 0.115,
      "velocity": 0.63,
      "hand": "right"
    },
    {
      "midi": 71,
      "time": 34.615,
      "duration": 0.447,
      "velocity": 0.63,
      "hand": "right"
    },
    {
      "midi": 54,
      "time": 34.846,
      "duration": 0.346,
      "velocity": 0.63,
      "hand": "left"
    },
    {
      "midi": 72,
      "time": 34.846,
      "duration": 0.346,
      "velocity": 0.63,
      "hand": "right"
    },
    {
      "midi": 57,
      "time": 35.077,
      "duration": 0.115,
      "velocity": 0.63,
      "hand": "left"
    },
    {
      "midi": 62,
      "time": 35.077,
      "duration": 0.115,
      "velocity": 0.63,
      "hand": "right"
    },
    {
      "midi": 71,
      "time": 35.077,
      "duration": 0.677,
      "velocity": 0.63,
      "hand": "right"
    },
    {
      "midi": 50,
      "time": 35.307,
      "duration": 0.346,
      "velocity": 0.63,
      "hand": "left"
    },
    {
      "midi": 72,
      "time": 35.307,
      "duration": 0.346,
      "velocity": 0.63,
      "hand": "right"
    },
    {
      "midi": 57,
      "time": 35.538,
      "duration": 0.115,
      "velocity": 0.63,
      "hand": "left"
    },
    {
      "midi": 62,
      "time": 35.538,
      "duration": 0.115,
      "velocity": 0.63,
      "hand": "right"
    },
    {
      "midi": 74,
      "time": 35.538,
      "duration": 0.115,
      "velocity": 0.63,
      "hand": "right"
    },
    {
      "midi": 55,
      "time": 35.769,
      "duration": 0.346,
      "velocity": 0.63,
      "hand": "left"
    },
    {
      "midi": 67,
      "time": 35.769,
      "duration": 7.37,
      "velocity": 0.63,
      "hand": "right"
    },
    {
      "midi": 71,
      "time": 35.769,
      "duration": 1.831,
      "velocity": 0.63,
      "hand": "right"
    },
    {
      "midi": 59,
      "time": 36,
      "duration": 0.115,
      "velocity": 0.63,
      "hand": "left"
    },
    {
      "midi": 62,
      "time": 36,
      "duration": 0.115,
      "velocity": 0.63,
      "hand": "right"
    },
    {
      "midi": 50,
      "time": 36.231,
      "duration": 0.346,
      "velocity": 0.63,
      "hand": "left"
    },
    {
      "midi": 59,
      "time": 36.461,
      "duration": 0.115,
      "velocity": 0.63,
      "hand": "left"
    },
    {
      "midi": 62,
      "time": 36.461,
      "duration": 0.115,
      "velocity": 0.63,
      "hand": "right"
    },
    {
      "midi": 55,
      "time": 36.692,
      "duration": 0.346,
      "velocity": 0.63,
      "hand": "left"
    },
    {
      "midi": 59,
      "time": 36.923,
      "duration": 0.115,
      "velocity": 0.63,
      "hand": "left"
    },
    {
      "midi": 62,
      "time": 36.923,
      "duration": 0.115,
      "velocity": 0.63,
      "hand": "right"
    },
    {
      "midi": 74,
      "time": 36.923,
      "duration": 0.115,
      "velocity": 0.63,
      "hand": "right"
    },
    {
      "midi": 50,
      "time": 37.154,
      "duration": 0.346,
      "velocity": 0.63,
      "hand": "left"
    },
    {
      "midi": 74,
      "time": 37.154,
      "duration": 0.215,
      "velocity": 0.63,
      "hand": "right"
    },
    {
      "midi": 59,
      "time": 37.384,
      "duration": 0.115,
      "velocity": 0.63,
      "hand": "left"
    },
    {
      "midi": 62,
      "time": 37.384,
      "duration": 0.115,
      "velocity": 0.63,
      "hand": "right"
    },
    {
      "midi": 74,
      "time": 37.384,
      "duration": 0.115,
      "velocity": 0.63,
      "hand": "right"
    },
    {
      "midi": 55,
      "time": 37.615,
      "duration": 0.346,
      "velocity": 0.63,
      "hand": "left"
    },
    {
      "midi": 71,
      "time": 37.615,
      "duration": 1.601,
      "velocity": 0.63,
      "hand": "right"
    },
    {
      "midi": 59,
      "time": 37.846,
      "duration": 0.115,
      "velocity": 0.63,
      "hand": "left"
    },
    {
      "midi": 62,
      "time": 37.846,
      "duration": 0.115,
      "velocity": 0.63,
      "hand": "right"
    },
    {
      "midi": 74,
      "time": 37.846,
      "duration": 0.115,
      "velocity": 0.63,
      "hand": "right"
    },
    {
      "midi": 50,
      "time": 38.077,
      "duration": 0.346,
      "velocity": 0.63,
      "hand": "left"
    },
    {
      "midi": 74,
      "time": 38.077,
      "duration": 0.215,
      "velocity": 0.63,
      "hand": "right"
    },
    {
      "midi": 59,
      "time": 38.307,
      "duration": 0.115,
      "velocity": 0.63,
      "hand": "left"
    },
    {
      "midi": 62,
      "time": 38.307,
      "duration": 0.115,
      "velocity": 0.63,
      "hand": "right"
    },
    {
      "midi": 74,
      "time": 38.307,
      "duration": 0.115,
      "velocity": 0.63,
      "hand": "right"
    },
    {
      "midi": 55,
      "time": 38.538,
      "duration": 0.346,
      "velocity": 0.63,
      "hand": "left"
    },
    {
      "midi": 76,
      "time": 38.538,
      "duration": 0.346,
      "velocity": 0.63,
      "hand": "right"
    },
    {
      "midi": 59,
      "time": 38.769,
      "duration": 0.115,
      "velocity": 0.63,
      "hand": "left"
    },
    {
      "midi": 62,
      "time": 38.769,
      "duration": 0.115,
      "velocity": 0.63,
      "hand": "right"
    },
    {
      "midi": 74,
      "time": 38.769,
      "duration": 0.115,
      "velocity": 0.63,
      "hand": "right"
    },
    {
      "midi": 50,
      "time": 39,
      "duration": 0.346,
      "velocity": 0.63,
      "hand": "left"
    },
    {
      "midi": 72,
      "time": 39,
      "duration": 0.346,
      "velocity": 0.63,
      "hand": "right"
    },
    {
      "midi": 59,
      "time": 39.231,
      "duration": 0.115,
      "velocity": 0.63,
      "hand": "left"
    },
    {
      "midi": 62,
      "time": 39.231,
      "duration": 0.115,
      "velocity": 0.63,
      "hand": "right"
    },
    {
      "midi": 71,
      "time": 39.231,
      "duration": 1.831,
      "velocity": 0.63,
      "hand": "right"
    },
    {
      "midi": 54,
      "time": 39.461,
      "duration": 0.346,
      "velocity": 0.63,
      "hand": "left"
    },
    {
      "midi": 74,
      "time": 39.461,
      "duration": 0.692,
      "velocity": 0.63,
      "hand": "right"
    },
    {
      "midi": 57,
      "time": 39.692,
      "duration": 0.115,
      "velocity": 0.63,
      "hand": "left"
    },
    {
      "midi": 62,
      "time": 39.692,
      "duration": 0.115,
      "velocity": 0.63,
      "hand": "right"
    },
    {
      "midi": 50,
      "time": 39.923,
      "duration": 0.346,
      "velocity": 0.63,
      "hand": "left"
    },
    {
      "midi": 69,
      "time": 39.923,
      "duration": 0.677,
      "velocity": 0.63,
      "hand": "right"
    },
    {
      "midi": 57,
      "time": 40.154,
      "duration": 0.115,
      "velocity": 0.63,
      "hand": "left"
    },
    {
      "midi": 62,
      "time": 40.154,
      "duration": 0.115,
      "velocity": 0.63,
      "hand": "right"
    },
    {
      "midi": 54,
      "time": 40.384,
      "duration": 0.346,
      "velocity": 0.63,
      "hand": "left"
    },
    {
      "midi": 57,
      "time": 40.615,
      "duration": 0.115,
      "velocity": 0.63,
      "hand": "left"
    },
    {
      "midi": 62,
      "time": 40.615,
      "duration": 0.115,
      "velocity": 0.63,
      "hand": "right"
    },
    {
      "midi": 69,
      "time": 40.615,
      "duration": 0.115,
      "velocity": 0.63,
      "hand": "right"
    },
    {
      "midi": 50,
      "time": 40.846,
      "duration": 0.346,
      "velocity": 0.63,
      "hand": "left"
    },
    {
      "midi": 69,
      "time": 40.846,
      "duration": 0.346,
      "velocity": 0.63,
      "hand": "right"
    },
    {
      "midi": 57,
      "time": 41.077,
      "duration": 0.115,
      "velocity": 0.63,
      "hand": "left"
    },
    {
      "midi": 62,
      "time": 41.077,
      "duration": 0.115,
      "velocity": 0.63,
      "hand": "right"
    },
    {
      "midi": 71,
      "time": 41.077,
      "duration": 0.446,
      "velocity": 0.63,
      "hand": "right"
    },
    {
      "midi": 54,
      "time": 41.307,
      "duration": 0.346,
      "velocity": 0.63,
      "hand": "left"
    },
    {
      "midi": 72,
      "time": 41.307,
      "duration": 0.346,
      "velocity": 0.63,
      "hand": "right"
    },
    {
      "midi": 57,
      "time": 41.538,
      "duration": 0.115,
      "velocity": 0.63,
      "hand": "left"
    },
    {
      "midi": 62,
      "time": 41.538,
      "duration": 0.115,
      "velocity": 0.63,
      "hand": "right"
    },
    {
      "midi": 71,
      "time": 41.538,
      "duration": 0.447,
      "velocity": 0.63,
      "hand": "right"
    },
    {
      "midi": 50,
      "time": 41.769,
      "duration": 0.346,
      "velocity": 0.63,
      "hand": "left"
    },
    {
      "midi": 69,
      "time": 41.769,
      "duration": 0.346,
      "velocity": 0.63,
      "hand": "right"
    },
    {
      "midi": 57,
      "time": 42,
      "duration": 0.115,
      "velocity": 0.63,
      "hand": "left"
    },
    {
      "midi": 62,
      "time": 42,
      "duration": 0.115,
      "velocity": 0.63,
      "hand": "right"
    },
    {
      "midi": 71,
      "time": 42,
      "duration": 0.446,
      "velocity": 0.63,
      "hand": "right"
    },
    {
      "midi": 54,
      "time": 42.231,
      "duration": 0.346,
      "velocity": 0.63,
      "hand": "left"
    },
    {
      "midi": 72,
      "time": 42.231,
      "duration": 0.346,
      "velocity": 0.63,
      "hand": "right"
    },
    {
      "midi": 57,
      "time": 42.461,
      "duration": 0.115,
      "velocity": 0.63,
      "hand": "left"
    },
    {
      "midi": 62,
      "time": 42.461,
      "duration": 0.115,
      "velocity": 0.63,
      "hand": "right"
    },
    {
      "midi": 71,
      "time": 42.461,
      "duration": 0.678,
      "velocity": 0.63,
      "hand": "right"
    },
    {
      "midi": 50,
      "time": 42.692,
      "duration": 0.346,
      "velocity": 0.63,
      "hand": "left"
    },
    {
      "midi": 72,
      "time": 42.692,
      "duration": 0.346,
      "velocity": 0.63,
      "hand": "right"
    },
    {
      "midi": 57,
      "time": 42.923,
      "duration": 0.115,
      "velocity": 0.63,
      "hand": "left"
    },
    {
      "midi": 62,
      "time": 42.923,
      "duration": 0.115,
      "velocity": 0.63,
      "hand": "right"
    },
    {
      "midi": 74,
      "time": 42.923,
      "duration": 0.115,
      "velocity": 0.63,
      "hand": "right"
    },
    {
      "midi": 55,
      "time": 43.154,
      "duration": 0.346,
      "velocity": 0.63,
      "hand": "left"
    },
    {
      "midi": 67,
      "time": 43.154,
      "duration": 0.908,
      "velocity": 0.63,
      "hand": "right"
    },
    {
      "midi": 71,
      "time": 43.154,
      "duration": 0.908,
      "velocity": 0.63,
      "hand": "right"
    },
    {
      "midi": 59,
      "time": 43.384,
      "duration": 0.115,
      "velocity": 0.63,
      "hand": "left"
    },
    {
      "midi": 62,
      "time": 43.384,
      "duration": 0.115,
      "velocity": 0.63,
      "hand": "right"
    },
    {
      "midi": 50,
      "time": 43.615,
      "duration": 0.346,
      "velocity": 0.63,
      "hand": "left"
    },
    {
      "midi": 59,
      "time": 43.846,
      "duration": 0.115,
      "velocity": 0.63,
      "hand": "left"
    },
    {
      "midi": 62,
      "time": 43.846,
      "duration": 0.115,
      "velocity": 0.63,
      "hand": "right"
    },
    {
      "midi": 43,
      "time": 44.077,
      "duration": 0.692,
      "velocity": 0.63,
      "hand": "left"
    },
    {
      "midi": 55,
      "time": 44.077,
      "duration": 0.692,
      "velocity": 0.63,
      "hand": "left"
    },
    {
      "midi": 67,
      "time": 44.077,
      "duration": 6.792,
      "velocity": 0.63,
      "hand": "right"
    },
    {
      "midi": 71,
      "time": 44.077,
      "duration": 1.139,
      "velocity": 0.63,
      "hand": "right"
    },
    {
      "midi": 74,
      "time": 44.307,
      "duration": 0.115,
      "velocity": 0.63,
      "hand": "right"
    },
    {
      "midi": 74,
      "time": 44.538,
      "duration": 0.216,
      "velocity": 0.63,
      "hand": "right"
    },
    {
      "midi": 74,
      "time": 44.769,
      "duration": 0.115,
      "velocity": 0.63,
      "hand": "right"
    },
    {
      "midi": 55,
      "time": 45,
      "duration": 0.346,
      "velocity": 0.63,
      "hand": "left"
    },
    {
      "midi": 79,
      "time": 45,
      "duration": 1.269,
      "velocity": 0.63,
      "hand": "right"
    },
    {
      "midi": 59,
      "time": 45.231,
      "duration": 0.115,
      "velocity": 0.63,
      "hand": "left"
    },
    {
      "midi": 62,
      "time": 45.231,
      "duration": 0.115,
      "velocity": 0.63,
      "hand": "right"
    },
    {
      "midi": 71,
      "time": 45.231,
      "duration": 0.446,
      "velocity": 0.63,
      "hand": "right"
    },
    {
      "midi": 74,
      "time": 45.231,
      "duration": 0.115,
      "velocity": 0.63,
      "hand": "right"
    },
    {
      "midi": 50,
      "time": 45.461,
      "duration": 0.346,
      "velocity": 0.63,
      "hand": "left"
    },
    {
      "midi": 59,
      "time": 45.692,
      "duration": 0.115,
      "velocity": 0.63,
      "hand": "left"
    },
    {
      "midi": 62,
      "time": 45.692,
      "duration": 0.115,
      "velocity": 0.63,
      "hand": "right"
    },
    {
      "midi": 71,
      "time": 45.692,
      "duration": 5.177,
      "velocity": 0.63,
      "hand": "right"
    },
    {
      "midi": 74,
      "time": 45.692,
      "duration": 0.115,
      "velocity": 0.63,
      "hand": "right"
    },
    {
      "midi": 55,
      "time": 45.923,
      "duration": 0.346,
      "velocity": 0.63,
      "hand": "left"
    },
    {
      "midi": 59,
      "time": 46.154,
      "duration": 0.115,
      "velocity": 0.63,
      "hand": "left"
    },
    {
      "midi": 62,
      "time": 46.154,
      "duration": 0.115,
      "velocity": 0.63,
      "hand": "right"
    },
    {
      "midi": 78,
      "time": 46.154,
      "duration": 0.115,
      "velocity": 0.63,
      "hand": "right"
    },
    {
      "midi": 50,
      "time": 46.384,
      "duration": 0.346,
      "velocity": 0.63,
      "hand": "left"
    },
    {
      "midi": 76,
      "time": 46.384,
      "duration": 0.346,
      "velocity": 0.63,
      "hand": "right"
    },
    {
      "midi": 59,
      "time": 46.615,
      "duration": 0.115,
      "velocity": 0.63,
      "hand": "left"
    },
    {
      "midi": 62,
      "time": 46.615,
      "duration": 0.115,
      "velocity": 0.63,
      "hand": "right"
    },
    {
      "midi": 74,
      "time": 46.615,
      "duration": 0.115,
      "velocity": 0.63,
      "hand": "right"
    },
    {
      "midi": 54,
      "time": 46.846,
      "duration": 0.346,
      "velocity": 0.63,
      "hand": "left"
    },
    {
      "midi": 78,
      "time": 46.846,
      "duration": 1.269,
      "velocity": 0.63,
      "hand": "right"
    },
    {
      "midi": 57,
      "time": 47.077,
      "duration": 0.115,
      "velocity": 0.63,
      "hand": "left"
    },
    {
      "midi": 62,
      "time": 47.077,
      "duration": 0.115,
      "velocity": 0.63,
      "hand": "right"
    },
    {
      "midi": 69,
      "time": 47.077,
      "duration": 0.115,
      "velocity": 0.63,
      "hand": "right"
    },
    {
      "midi": 72,
      "time": 47.077,
      "duration": 0.115,
      "velocity": 0.63,
      "hand": "right"
    },
    {
      "midi": 50,
      "time": 47.307,
      "duration": 0.346,
      "velocity": 0.63,
      "hand": "left"
    },
    {
      "midi": 57,
      "time": 47.538,
      "duration": 0.115,
      "velocity": 0.63,
      "hand": "left"
    },
    {
      "midi": 62,
      "time": 47.538,
      "duration": 0.115,
      "velocity": 0.63,
      "hand": "right"
    },
    {
      "midi": 69,
      "time": 47.538,
      "duration": 0.115,
      "velocity": 0.63,
      "hand": "right"
    },
    {
      "midi": 72,
      "time": 47.538,
      "duration": 0.115,
      "velocity": 0.63,
      "hand": "right"
    },
    {
      "midi": 54,
      "time": 47.769,
      "duration": 0.346,
      "velocity": 0.63,
      "hand": "left"
    },
    {
      "midi": 57,
      "time": 48,
      "duration": 0.115,
      "velocity": 0.63,
      "hand": "left"
    },
    {
      "midi": 62,
      "time": 48,
      "duration": 0.115,
      "velocity": 0.63,
      "hand": "right"
    },
    {
      "midi": 74,
      "time": 48,
      "duration": 0.115,
      "velocity": 0.63,
      "hand": "right"
    },
    {
      "midi": 50,
      "time": 48.346,
      "duration": 0.346,
      "velocity": 0.63,
      "hand": "left"
    },
    {
      "midi": 74,
      "time": 48.346,
      "duration": 0.216,
      "velocity": 0.63,
      "hand": "right"
    },
    {
      "midi": 57,
      "time": 48.577,
      "duration": 0.115,
      "velocity": 0.63,
      "hand": "left"
    },
    {
      "midi": 62,
      "time": 48.577,
      "duration": 0.115,
      "velocity": 0.63,
      "hand": "right"
    },
    {
      "midi": 74,
      "time": 48.577,
      "duration": 0.115,
      "velocity": 0.63,
      "hand": "right"
    },
    {
      "midi": 54,
      "time": 48.807,
      "duration": 0.346,
      "velocity": 0.63,
      "hand": "left"
    },
    {
      "midi": 78,
      "time": 48.807,
      "duration": 1.269,
      "velocity": 0.63,
      "hand": "right"
    },
    {
      "midi": 57,
      "time": 49.038,
      "duration": 0.115,
      "velocity": 0.63,
      "hand": "left"
    },
    {
      "midi": 62,
      "time": 49.038,
      "duration": 0.115,
      "velocity": 0.63,
      "hand": "right"
    },
    {
      "midi": 69,
      "time": 49.038,
      "duration": 0.115,
      "velocity": 0.63,
      "hand": "right"
    },
    {
      "midi": 72,
      "time": 49.038,
      "duration": 0.115,
      "velocity": 0.63,
      "hand": "right"
    },
    {
      "midi": 50,
      "time": 49.269,
      "duration": 0.346,
      "velocity": 0.63,
      "hand": "left"
    },
    {
      "midi": 57,
      "time": 49.5,
      "duration": 0.115,
      "velocity": 0.63,
      "hand": "left"
    },
    {
      "midi": 62,
      "time": 49.5,
      "duration": 0.115,
      "velocity": 0.63,
      "hand": "right"
    },
    {
      "midi": 69,
      "time": 49.5,
      "duration": 0.115,
      "velocity": 0.63,
      "hand": "right"
    },
    {
      "midi": 72,
      "time": 49.5,
      "duration": 0.115,
      "velocity": 0.63,
      "hand": "right"
    },
    {
      "midi": 54,
      "time": 49.731,
      "duration": 0.346,
      "velocity": 0.63,
      "hand": "left"
    },
    {
      "midi": 57,
      "time": 49.961,
      "duration": 0.115,
      "velocity": 0.63,
      "hand": "left"
    },
    {
      "midi": 62,
      "time": 49.961,
      "duration": 0.115,
      "velocity": 0.63,
      "hand": "right"
    },
    {
      "midi": 76,
      "time": 49.961,
      "duration": 0.115,
      "velocity": 0.63,
      "hand": "right"
    },
    {
      "midi": 50,
      "time": 50.192,
      "duration": 0.346,
      "velocity": 0.63,
      "hand": "left"
    },
    {
      "midi": 74,
      "time": 50.192,
      "duration": 0.346,
      "velocity": 0.63,
      "hand": "right"
    },
    {
      "midi": 57,
      "time": 50.423,
      "duration": 0.115,
      "velocity": 0.63,
      "hand": "left"
    },
    {
      "midi": 62,
      "time": 50.423,
      "duration": 0.115,
      "velocity": 0.63,
      "hand": "right"
    },
    {
      "midi": 72,
      "time": 50.423,
      "duration": 0.115,
      "velocity": 0.63,
      "hand": "right"
    },
    {
      "midi": 55,
      "time": 50.654,
      "duration": 0.346,
      "velocity": 0.63,
      "hand": "left"
    },
    {
      "midi": 76,
      "time": 50.654,
      "duration": 1.269,
      "velocity": 0.63,
      "hand": "right"
    },
    {
      "midi": 59,
      "time": 50.884,
      "duration": 0.115,
      "velocity": 0.63,
      "hand": "left"
    },
    {
      "midi": 62,
      "time": 50.884,
      "duration": 0.115,
      "velocity": 0.63,
      "hand": "right"
    },
    {
      "midi": 67,
      "time": 50.884,
      "duration": 0.447,
      "velocity": 0.63,
      "hand": "right"
    },
    {
      "midi": 71,
      "time": 50.884,
      "duration": 0.447,
      "velocity": 0.63,
      "hand": "right"
    },
    {
      "midi": 50,
      "time": 51.115,
      "duration": 0.346,
      "velocity": 0.63,
      "hand": "left"
    },
    {
      "midi": 59,
      "time": 51.346,
      "duration": 0.115,
      "velocity": 0.63,
      "hand": "left"
    },
    {
      "midi": 62,
      "time": 51.346,
      "duration": 0.115,
      "velocity": 0.63,
      "hand": "right"
    },
    {
      "midi": 67,
      "time": 51.346,
      "duration": 6.677,
      "velocity": 0.63,
      "hand": "right"
    },
    {
      "midi": 71,
      "time": 51.346,
      "duration": 1.37,
      "velocity": 0.63,
      "hand": "right"
    },
    {
      "midi": 55,
      "time": 51.577,
      "duration": 0.346,
      "velocity": 0.63,
      "hand": "left"
    },
    {
      "midi": 59,
      "time": 51.807,
      "duration": 0.115,
      "velocity": 0.63,
      "hand": "left"
    },
    {
      "midi": 62,
      "time": 51.807,
      "duration": 0.115,
      "velocity": 0.63,
      "hand": "right"
    },
    {
      "midi": 74,
      "time": 51.807,
      "duration": 0.115,
      "velocity": 0.63,
      "hand": "right"
    },
    {
      "midi": 50,
      "time": 52.038,
      "duration": 0.346,
      "velocity": 0.63,
      "hand": "left"
    },
    {
      "midi": 74,
      "time": 52.038,
      "duration": 0.216,
      "velocity": 0.63,
      "hand": "right"
    },
    {
      "midi": 59,
      "time": 52.269,
      "duration": 0.115,
      "velocity": 0.63,
      "hand": "left"
    },
    {
      "midi": 62,
      "time": 52.269,
      "duration": 0.115,
      "velocity": 0.63,
      "hand": "right"
    },
    {
      "midi": 74,
      "time": 52.269,
      "duration": 0.115,
      "velocity": 0.63,
      "hand": "right"
    },
    {
      "midi": 55,
      "time": 52.5,
      "duration": 0.346,
      "velocity": 0.63,
      "hand": "left"
    },
    {
      "midi": 79,
      "time": 52.5,
      "duration": 1.269,
      "velocity": 0.63,
      "hand": "right"
    },
    {
      "midi": 59,
      "time": 52.731,
      "duration": 0.115,
      "velocity": 0.63,
      "hand": "left"
    },
    {
      "midi": 62,
      "time": 52.731,
      "duration": 0.115,
      "velocity": 0.63,
      "hand": "right"
    },
    {
      "midi": 71,
      "time": 52.731,
      "duration": 0.446,
      "velocity": 0.63,
      "hand": "right"
    },
    {
      "midi": 74,
      "time": 52.731,
      "duration": 0.115,
      "velocity": 0.63,
      "hand": "right"
    },
    {
      "midi": 50,
      "time": 52.961,
      "duration": 0.346,
      "velocity": 0.63,
      "hand": "left"
    },
    {
      "midi": 59,
      "time": 53.192,
      "duration": 0.115,
      "velocity": 0.63,
      "hand": "left"
    },
    {
      "midi": 62,
      "time": 53.192,
      "duration": 0.115,
      "velocity": 0.63,
      "hand": "right"
    },
    {
      "midi": 71,
      "time": 53.192,
      "duration": 4.831,
      "velocity": 0.63,
      "hand": "right"
    },
    {
      "midi": 74,
      "time": 53.192,
      "duration": 0.115,
      "velocity": 0.63,
      "hand": "right"
    },
    {
      "midi": 55,
      "time": 53.423,
      "duration": 0.346,
      "velocity": 0.63,
      "hand": "left"
    },
    {
      "midi": 59,
      "time": 53.654,
      "duration": 0.115,
      "velocity": 0.63,
      "hand": "left"
    },
    {
      "midi": 62,
      "time": 53.654,
      "duration": 0.115,
      "velocity": 0.63,
      "hand": "right"
    },
    {
      "midi": 78,
      "time": 53.654,
      "duration": 0.115,
      "velocity": 0.63,
      "hand": "right"
    },
    {
      "midi": 50,
      "time": 53.884,
      "duration": 0.346,
      "velocity": 0.63,
      "hand": "left"
    },
    {
      "midi": 76,
      "time": 53.884,
      "duration": 0.346,
      "velocity": 0.63,
      "hand": "right"
    },
    {
      "midi": 59,
      "time": 54.115,
      "duration": 0.115,
      "velocity": 0.63,
      "hand": "left"
    },
    {
      "midi": 62,
      "time": 54.115,
      "duration": 0.115,
      "velocity": 0.63,
      "hand": "right"
    },
    {
      "midi": 74,
      "time": 54.115,
      "duration": 0.115,
      "velocity": 0.63,
      "hand": "right"
    },
    {
      "midi": 54,
      "time": 54.346,
      "duration": 0.346,
      "velocity": 0.63,
      "hand": "left"
    },
    {
      "midi": 78,
      "time": 54.346,
      "duration": 1.269,
      "velocity": 0.63,
      "hand": "right"
    },
    {
      "midi": 57,
      "time": 54.577,
      "duration": 0.115,
      "velocity": 0.63,
      "hand": "left"
    },
    {
      "midi": 62,
      "time": 54.577,
      "duration": 0.115,
      "velocity": 0.63,
      "hand": "right"
    },
    {
      "midi": 69,
      "time": 54.577,
      "duration": 0.115,
      "velocity": 0.63,
      "hand": "right"
    },
    {
      "midi": 72,
      "time": 54.577,
      "duration": 0.115,
      "velocity": 0.63,
      "hand": "right"
    },
    {
      "midi": 50,
      "time": 54.807,
      "duration": 0.346,
      "velocity": 0.63,
      "hand": "left"
    },
    {
      "midi": 57,
      "time": 55.038,
      "duration": 0.115,
      "velocity": 0.63,
      "hand": "left"
    },
    {
      "midi": 62,
      "time": 55.038,
      "duration": 0.115,
      "velocity": 0.63,
      "hand": "right"
    },
    {
      "midi": 69,
      "time": 55.038,
      "duration": 0.115,
      "velocity": 0.63,
      "hand": "right"
    },
    {
      "midi": 72,
      "time": 55.038,
      "duration": 0.115,
      "velocity": 0.63,
      "hand": "right"
    },
    {
      "midi": 54,
      "time": 55.269,
      "duration": 0.346,
      "velocity": 0.63,
      "hand": "left"
    },
    {
      "midi": 57,
      "time": 55.5,
      "duration": 0.115,
      "velocity": 0.63,
      "hand": "left"
    },
    {
      "midi": 62,
      "time": 55.5,
      "duration": 0.115,
      "velocity": 0.63,
      "hand": "right"
    },
    {
      "midi": 74,
      "time": 55.5,
      "duration": 0.115,
      "velocity": 0.63,
      "hand": "right"
    },
    {
      "midi": 50,
      "time": 55.731,
      "duration": 0.346,
      "velocity": 0.63,
      "hand": "left"
    },
    {
      "midi": 74,
      "time": 55.731,
      "duration": 0.215,
      "velocity": 0.63,
      "hand": "right"
    },
    {
      "midi": 57,
      "time": 55.961,
      "duration": 0.115,
      "velocity": 0.63,
      "hand": "left"
    },
    {
      "midi": 62,
      "time": 55.961,
      "duration": 0.115,
      "velocity": 0.63,
      "hand": "right"
    },
    {
      "midi": 74,
      "time": 55.961,
      "duration": 0.115,
      "velocity": 0.63,
      "hand": "right"
    },
    {
      "midi": 54,
      "time": 56.192,
      "duration": 0.346,
      "velocity": 0.63,
      "hand": "left"
    },
    {
      "midi": 78,
      "time": 56.192,
      "duration": 1.269,
      "velocity": 0.63,
      "hand": "right"
    },
    {
      "midi": 57,
      "time": 56.423,
      "duration": 0.115,
      "velocity": 0.63,
      "hand": "left"
    },
    {
      "midi": 62,
      "time": 56.423,
      "duration": 0.115,
      "velocity": 0.63,
      "hand": "right"
    },
    {
      "midi": 69,
      "time": 56.423,
      "duration": 0.115,
      "velocity": 0.63,
      "hand": "right"
    },
    {
      "midi": 72,
      "time": 56.423,
      "duration": 0.115,
      "velocity": 0.63,
      "hand": "right"
    },
    {
      "midi": 50,
      "time": 56.654,
      "duration": 0.346,
      "velocity": 0.63,
      "hand": "left"
    },
    {
      "midi": 57,
      "time": 56.884,
      "duration": 0.115,
      "velocity": 0.63,
      "hand": "left"
    },
    {
      "midi": 62,
      "time": 56.884,
      "duration": 0.115,
      "velocity": 0.63,
      "hand": "right"
    },
    {
      "midi": 69,
      "time": 56.884,
      "duration": 0.115,
      "velocity": 0.63,
      "hand": "right"
    },
    {
      "midi": 72,
      "time": 56.884,
      "duration": 0.115,
      "velocity": 0.63,
      "hand": "right"
    },
    {
      "midi": 54,
      "time": 57.115,
      "duration": 0.346,
      "velocity": 0.63,
      "hand": "left"
    },
    {
      "midi": 57,
      "time": 57.346,
      "duration": 0.115,
      "velocity": 0.63,
      "hand": "left"
    },
    {
      "midi": 62,
      "time": 57.346,
      "duration": 0.115,
      "velocity": 0.63,
      "hand": "right"
    },
    {
      "midi": 76,
      "time": 57.346,
      "duration": 0.115,
      "velocity": 0.63,
      "hand": "right"
    },
    {
      "midi": 50,
      "time": 57.577,
      "duration": 0.346,
      "velocity": 0.63,
      "hand": "left"
    },
    {
      "midi": 74,
      "time": 57.577,
      "duration": 0.346,
      "velocity": 0.63,
      "hand": "right"
    },
    {
      "midi": 57,
      "time": 57.807,
      "duration": 0.115,
      "velocity": 0.63,
      "hand": "left"
    },
    {
      "midi": 62,
      "time": 57.807,
      "duration": 0.115,
      "velocity": 0.63,
      "hand": "right"
    },
    {
      "midi": 72,
      "time": 57.807,
      "duration": 0.115,
      "velocity": 0.63,
      "hand": "right"
    },
    {
      "midi": 43,
      "time": 58.038,
      "duration": 0.346,
      "velocity": 0.63,
      "hand": "left"
    },
    {
      "midi": 55,
      "time": 58.038,
      "duration": 0.346,
      "velocity": 0.63,
      "hand": "left"
    },
    {
      "midi": 67,
      "time": 58.038,
      "duration": 4.139,
      "velocity": 0.63,
      "hand": "right"
    },
    {
      "midi": 71,
      "time": 58.038,
      "duration": 1.831,
      "velocity": 0.63,
      "hand": "right"
    },
    {
      "midi": 52,
      "time": 58.269,
      "duration": 0.115,
      "velocity": 0.63,
      "hand": "left"
    },
    {
      "midi": 50,
      "time": 58.5,
      "duration": 0.346,
      "velocity": 0.63,
      "hand": "left"
    },
    {
      "midi": 47,
      "time": 58.731,
      "duration": 0.115,
      "velocity": 0.63,
      "hand": "left"
    },
    {
      "midi": 43,
      "time": 58.961,
      "duration": 0.346,
      "velocity": 0.63,
      "hand": "left"
    },
    {
      "midi": 47,
      "time": 59.192,
      "duration": 0.115,
      "velocity": 0.63,
      "hand": "left"
    },
    {
      "midi": 52,
      "time": 59.192,
      "duration": 0.115,
      "velocity": 0.63,
      "hand": "left"
    },
    {
      "midi": 74,
      "time": 59.192,
      "duration": 0.115,
      "velocity": 0.63,
      "hand": "right"
    },
    {
      "midi": 74,
      "time": 59.423,
      "duration": 0.216,
      "velocity": 0.63,
      "hand": "right"
    },
    {
      "midi": 74,
      "time": 59.654,
      "duration": 0.115,
      "velocity": 0.63,
      "hand": "right"
    },
    {
      "midi": 55,
      "time": 59.884,
      "duration": 0.346,
      "velocity": 0.63,
      "hand": "left"
    },
    {
      "midi": 71,
      "time": 59.884,
      "duration": 1.832,
      "velocity": 0.63,
      "hand": "right"
    },
    {
      "midi": 59,
      "time": 60.115,
      "duration": 0.115,
      "velocity": 0.63,
      "hand": "left"
    },
    {
      "midi": 62,
      "time": 60.115,
      "duration": 0.115,
      "velocity": 0.63,
      "hand": "right"
    },
    {
      "midi": 74,
      "time": 60.115,
      "duration": 0.115,
      "velocity": 0.63,
      "hand": "right"
    },
    {
      "midi": 50,
      "time": 60.346,
      "duration": 0.346,
      "velocity": 0.63,
      "hand": "left"
    },
    {
      "midi": 74,
      "time": 60.346,
      "duration": 0.216,
      "velocity": 0.63,
      "hand": "right"
    },
    {
      "midi": 59,
      "time": 60.577,
      "duration": 0.115,
      "velocity": 0.63,
      "hand": "left"
    },
    {
      "midi": 62,
      "time": 60.577,
      "duration": 0.115,
      "velocity": 0.63,
      "hand": "right"
    },
    {
      "midi": 74,
      "time": 60.577,
      "duration": 0.115,
      "velocity": 0.63,
      "hand": "right"
    },
    {
      "midi": 54,
      "time": 60.807,
      "duration": 0.346,
      "velocity": 0.63,
      "hand": "left"
    },
    {
      "midi": 78,
      "time": 60.807,
      "duration": 0.346,
      "velocity": 0.63,
      "hand": "right"
    },
    {
      "midi": 57,
      "time": 61.038,
      "duration": 0.115,
      "velocity": 0.63,
      "hand": "left"
    },
    {
      "midi": 62,
      "time": 61.038,
      "duration": 0.115,
      "velocity": 0.63,
      "hand": "right"
    },
    {
      "midi": 76,
      "time": 61.038,
      "duration": 0.115,
      "velocity": 0.63,
      "hand": "right"
    },
    {
      "midi": 50,
      "time": 61.269,
      "duration": 0.346,
      "velocity": 0.63,
      "hand": "left"
    },
    {
      "midi": 74,
      "time": 61.269,
      "duration": 0.346,
      "velocity": 0.63,
      "hand": "right"
    },
    {
      "midi": 57,
      "time": 61.5,
      "duration": 0.115,
      "velocity": 0.63,
      "hand": "left"
    },
    {
      "midi": 62,
      "time": 61.5,
      "duration": 0.115,
      "velocity": 0.63,
      "hand": "right"
    },
    {
      "midi": 72,
      "time": 61.5,
      "duration": 0.115,
      "velocity": 0.63,
      "hand": "right"
    },
    {
      "midi": 54,
      "time": 61.731,
      "duration": 0.346,
      "velocity": 0.63,
      "hand": "left"
    },
    {
      "midi": 71,
      "time": 61.731,
      "duration": 0.908,
      "velocity": 0.63,
      "hand": "right"
    },
    {
      "midi": 52,
      "time": 61.961,
      "duration": 0.115,
      "velocity": 0.63,
      "hand": "left"
    },
    {
      "midi": 69,
      "time": 61.961,
      "duration": 0.115,
      "velocity": 0.63,
      "hand": "right"
    },
    {
      "midi": 50,
      "time": 62.192,
      "duration": 0.346,
      "velocity": 0.63,
      "hand": "left"
    },
    {
      "midi": 67,
      "time": 62.192,
      "duration": 0.447,
      "velocity": 0.63,
      "hand": "right"
    },
    {
      "midi": 47,
      "time": 62.423,
      "duration": 0.115,
      "velocity": 0.63,
      "hand": "left"
    },
    {
      "midi": 43,
      "time": 62.654,
      "duration": 0.808,
      "velocity": 0.63,
      "hand": "left"
    },
    {
      "midi": 67,
      "time": 62.654,
      "duration": 0.808,
      "velocity": 0.63,
      "hand": "right"
    },
    {
      "midi": 71,
      "time": 62.654,
      "duration": 0.808,
      "velocity": 0.63,
      "hand": "right"
    }
  ],
  "arrangements": {
    "easy": [
      {
        "midi": 74,
        "time": 0,
        "duration": 0.277,
        "velocity": 0.63,
        "hand": "right"
      },
      {
        "midi": 71,
        "time": 0.692,
        "duration": 0.346,
        "velocity": 0.63,
        "hand": "right"
      },
      {
        "midi": 74,
        "time": 1.384,
        "duration": 0.277,
        "velocity": 0.63,
        "hand": "right"
      },
      {
        "midi": 72,
        "time": 2.077,
        "duration": 0.346,
        "velocity": 0.63,
        "hand": "right"
      },
      {
        "midi": 62,
        "time": 2.769,
        "duration": 0.277,
        "velocity": 0.63,
        "hand": "right"
      },
      {
        "midi": 66,
        "time": 3.461,
        "duration": 0.346,
        "velocity": 0.63,
        "hand": "right"
      },
      {
        "midi": 71,
        "time": 4.154,
        "duration": 0.277,
        "velocity": 0.63,
        "hand": "right"
      },
      {
        "midi": 69,
        "time": 4.846,
        "duration": 0.346,
        "velocity": 0.63,
        "hand": "right"
      },
      {
        "midi": 71,
        "time": 5.538,
        "duration": 0.277,
        "velocity": 0.63,
        "hand": "right"
      },
      {
        "midi": 71,
        "time": 6.231,
        "duration": 1.269,
        "velocity": 0.63,
        "hand": "right"
      },
      {
        "midi": 62,
        "time": 6.923,
        "duration": 0.277,
        "velocity": 0.63,
        "hand": "right"
      },
      {
        "midi": 74,
        "time": 7.615,
        "duration": 0.277,
        "velocity": 0.63,
        "hand": "right"
      },
      {
        "midi": 74,
        "time": 8.307,
        "duration": 0.277,
        "velocity": 0.63,
        "hand": "right"
      },
      {
        "midi": 76,
        "time": 9,
        "duration": 0.346,
        "velocity": 0.63,
        "hand": "right"
      },
      {
        "midi": 71,
        "time": 9.692,
        "duration": 0.277,
        "velocity": 0.63,
        "hand": "right"
      },
      {
        "midi": 69,
        "time": 10.384,
        "duration": 0.678,
        "velocity": 0.63,
        "hand": "right"
      },
      {
        "midi": 69,
        "time": 11.077,
        "duration": 0.277,
        "velocity": 0.63,
        "hand": "right"
      },
      {
        "midi": 72,
        "time": 11.769,
        "duration": 0.346,
        "velocity": 0.63,
        "hand": "right"
      },
      {
        "midi": 71,
        "time": 12.461,
        "duration": 0.277,
        "velocity": 0.63,
        "hand": "right"
      },
      {
        "midi": 72,
        "time": 13.154,
        "duration": 0.346,
        "velocity": 0.63,
        "hand": "right"
      },
      {
        "midi": 62,
        "time": 13.846,
        "duration": 0.277,
        "velocity": 0.63,
        "hand": "right"
      },
      {
        "midi": 71,
        "time": 14.538,
        "duration": 1.139,
        "velocity": 0.63,
        "hand": "right"
      },
      {
        "midi": 74,
        "time": 15.231,
        "duration": 0.277,
        "velocity": 0.63,
        "hand": "right"
      },
      {
        "midi": 62,
        "time": 15.923,
        "duration": 0.346,
        "velocity": 0.63,
        "hand": "right"
      },
      {
        "midi": 78,
        "time": 16.615,
        "duration": 0.277,
        "velocity": 0.63,
        "hand": "right"
      },
      {
        "midi": 78,
        "time": 17.307,
        "duration": 1.269,
        "velocity": 0.63,
        "hand": "right"
      },
      {
        "midi": 72,
        "time": 18,
        "duration": 0.277,
        "velocity": 0.63,
        "hand": "right"
      },
      {
        "midi": 74,
        "time": 18.692,
        "duration": 0.277,
        "velocity": 0.63,
        "hand": "right"
      },
      {
        "midi": 72,
        "time": 19.384,
        "duration": 0.277,
        "velocity": 0.63,
        "hand": "right"
      },
      {
        "midi": 66,
        "time": 20.077,
        "duration": 0.346,
        "velocity": 0.63,
        "hand": "right"
      },
      {
        "midi": 72,
        "time": 20.769,
        "duration": 0.277,
        "velocity": 0.63,
        "hand": "right"
      },
      {
        "midi": 62,
        "time": 21.461,
        "duration": 0.346,
        "velocity": 0.63,
        "hand": "right"
      },
      {
        "midi": 74,
        "time": 22.154,
        "duration": 0.277,
        "velocity": 0.63,
        "hand": "right"
      },
      {
        "midi": 79,
        "time": 22.846,
        "duration": 1.269,
        "velocity": 0.63,
        "hand": "right"
      },
      {
        "midi": 74,
        "time": 23.538,
        "duration": 0.277,
        "velocity": 0.63,
        "hand": "right"
      },
      {
        "midi": 76,
        "time": 24.231,
        "duration": 0.346,
        "velocity": 0.63,
        "hand": "right"
      },
      {
        "midi": 72,
        "time": 24.923,
        "duration": 0.277,
        "velocity": 0.63,
        "hand": "right"
      },
      {
        "midi": 66,
        "time": 25.615,
        "duration": 0.346,
        "velocity": 0.63,
        "hand": "right"
      },
      {
        "midi": 74,
        "time": 26.307,
        "duration": 0.277,
        "velocity": 0.63,
        "hand": "right"
      },
      {
        "midi": 62,
        "time": 27,
        "duration": 0.346,
        "velocity": 0.63,
        "hand": "right"
      },
      {
        "midi": 76,
        "time": 27.692,
        "duration": 0.277,
        "velocity": 0.63,
        "hand": "right"
      },
      {
        "midi": 71,
        "time": 28.384,
        "duration": 1.832,
        "velocity": 0.63,
        "hand": "right"
      },
      {
        "midi": 59,
        "time": 29.077,
        "duration": 0.277,
        "velocity": 0.63,
        "hand": "right"
      },
      {
        "midi": 74,
        "time": 29.769,
        "duration": 0.277,
        "velocity": 0.63,
        "hand": "right"
      },
      {
        "midi": 74,
        "time": 30.461,
        "duration": 0.277,
        "velocity": 0.63,
        "hand": "right"
      },
      {
        "midi": 76,
        "time": 31.154,
        "duration": 0.346,
        "velocity": 0.63,
        "hand": "right"
      },
      {
        "midi": 71,
        "time": 31.846,
        "duration": 1.831,
        "velocity": 0.63,
        "hand": "right"
      },
      {
        "midi": 69,
        "time": 32.538,
        "duration": 0.678,
        "velocity": 0.63,
        "hand": "right"
      },
      {
        "midi": 69,
        "time": 33.231,
        "duration": 0.277,
        "velocity": 0.63,
        "hand": "right"
      },
      {
        "midi": 72,
        "time": 33.923,
        "duration": 0.346,
        "velocity": 0.63,
        "hand": "right"
      },
      {
        "midi": 71,
        "time": 34.615,
        "duration": 0.447,
        "velocity": 0.63,
        "hand": "right"
      },
      {
        "midi": 72,
        "time": 35.307,
        "duration": 0.346,
        "velocity": 0.63,
        "hand": "right"
      },
      {
        "midi": 62,
        "time": 36,
        "duration": 0.277,
        "velocity": 0.63,
        "hand": "right"
      },
      {
        "midi": 55,
        "time": 36.692,
        "duration": 0.346,
        "velocity": 0.63,
        "hand": "right"
      },
      {
        "midi": 74,
        "time": 37.384,
        "duration": 0.277,
        "velocity": 0.63,
        "hand": "right"
      },
      {
        "midi": 74,
        "time": 38.077,
        "duration": 0.277,
        "velocity": 0.63,
        "hand": "right"
      },
      {
        "midi": 74,
        "time": 38.769,
        "duration": 0.277,
        "velocity": 0.63,
        "hand": "right"
      },
      {
        "midi": 74,
        "time": 39.461,
        "duration": 0.692,
        "velocity": 0.63,
        "hand": "right"
      },
      {
        "midi": 62,
        "time": 40.154,
        "duration": 0.277,
        "velocity": 0.63,
        "hand": "right"
      },
      {
        "midi": 69,
        "time": 40.846,
        "duration": 0.346,
        "velocity": 0.63,
        "hand": "right"
      },
      {
        "midi": 71,
        "time": 41.538,
        "duration": 0.447,
        "velocity": 0.63,
        "hand": "right"
      },
      {
        "midi": 72,
        "time": 42.231,
        "duration": 0.346,
        "velocity": 0.63,
        "hand": "right"
      },
      {
        "midi": 74,
        "time": 42.923,
        "duration": 0.277,
        "velocity": 0.63,
        "hand": "right"
      },
      {
        "midi": 62,
        "time": 43.615,
        "duration": 0.346,
        "velocity": 0.63,
        "hand": "right"
      },
      {
        "midi": 74,
        "time": 44.307,
        "duration": 0.277,
        "velocity": 0.63,
        "hand": "right"
      },
      {
        "midi": 79,
        "time": 45,
        "duration": 1.269,
        "velocity": 0.63,
        "hand": "right"
      },
      {
        "midi": 74,
        "time": 45.692,
        "duration": 0.277,
        "velocity": 0.63,
        "hand": "right"
      },
      {
        "midi": 76,
        "time": 46.384,
        "duration": 0.346,
        "velocity": 0.63,
        "hand": "right"
      },
      {
        "midi": 72,
        "time": 47.077,
        "duration": 0.277,
        "velocity": 0.63,
        "hand": "right"
      },
      {
        "midi": 66,
        "time": 47.769,
        "duration": 0.346,
        "velocity": 0.63,
        "hand": "right"
      },
      {
        "midi": 74,
        "time": 48.346,
        "duration": 0.277,
        "velocity": 0.63,
        "hand": "right"
      },
      {
        "midi": 72,
        "time": 49.038,
        "duration": 0.277,
        "velocity": 0.63,
        "hand": "right"
      },
      {
        "midi": 66,
        "time": 49.731,
        "duration": 0.346,
        "velocity": 0.63,
        "hand": "right"
      },
      {
        "midi": 72,
        "time": 50.423,
        "duration": 0.277,
        "velocity": 0.63,
        "hand": "right"
      },
      {
        "midi": 62,
        "time": 51.115,
        "duration": 0.346,
        "velocity": 0.63,
        "hand": "right"
      },
      {
        "midi": 74,
        "time": 51.807,
        "duration": 0.277,
        "velocity": 0.63,
        "hand": "right"
      },
      {
        "midi": 79,
        "time": 52.5,
        "duration": 1.269,
        "velocity": 0.63,
        "hand": "right"
      },
      {
        "midi": 74,
        "time": 53.192,
        "duration": 0.277,
        "velocity": 0.63,
        "hand": "right"
      },
      {
        "midi": 76,
        "time": 53.884,
        "duration": 0.346,
        "velocity": 0.63,
        "hand": "right"
      },
      {
        "midi": 72,
        "time": 54.577,
        "duration": 0.277,
        "velocity": 0.63,
        "hand": "right"
      },
      {
        "midi": 66,
        "time": 55.269,
        "duration": 0.346,
        "velocity": 0.63,
        "hand": "right"
      },
      {
        "midi": 74,
        "time": 55.961,
        "duration": 0.277,
        "velocity": 0.63,
        "hand": "right"
      },
      {
        "midi": 62,
        "time": 56.654,
        "duration": 0.346,
        "velocity": 0.63,
        "hand": "right"
      },
      {
        "midi": 76,
        "time": 57.346,
        "duration": 0.277,
        "velocity": 0.63,
        "hand": "right"
      },
      {
        "midi": 71,
        "time": 58.038,
        "duration": 1.831,
        "velocity": 0.63,
        "hand": "right"
      },
      {
        "midi": 59,
        "time": 58.731,
        "duration": 0.277,
        "velocity": 0.63,
        "hand": "right"
      },
      {
        "midi": 74,
        "time": 59.423,
        "duration": 0.277,
        "velocity": 0.63,
        "hand": "right"
      },
      {
        "midi": 74,
        "time": 60.115,
        "duration": 0.277,
        "velocity": 0.63,
        "hand": "right"
      },
      {
        "midi": 78,
        "time": 60.807,
        "duration": 0.346,
        "velocity": 0.63,
        "hand": "right"
      },
      {
        "midi": 72,
        "time": 61.5,
        "duration": 0.277,
        "velocity": 0.63,
        "hand": "right"
      },
      {
        "midi": 67,
        "time": 62.192,
        "duration": 0.447,
        "velocity": 0.63,
        "hand": "right"
      }
    ],
    "medium": [
      {
        "midi": 74,
        "time": 0,
        "duration": 0.162,
        "velocity": 0.63,
        "hand": "right"
      },
      {
        "midi": 55,
        "time": 0.692,
        "duration": 0.346,
        "velocity": 0.63,
        "hand": "left"
      },
      {
        "midi": 71,
        "time": 0.692,
        "duration": 0.346,
        "velocity": 0.63,
        "hand": "right"
      },
      {
        "midi": 59,
        "time": 1.384,
        "duration": 0.162,
        "velocity": 0.63,
        "hand": "left"
      },
      {
        "midi": 74,
        "time": 1.384,
        "duration": 0.162,
        "velocity": 0.63,
        "hand": "right"
      },
      {
        "midi": 72,
        "time": 2.077,
        "duration": 0.346,
        "velocity": 0.63,
        "hand": "right"
      },
      {
        "midi": 57,
        "time": 2.769,
        "duration": 0.162,
        "velocity": 0.63,
        "hand": "left"
      },
      {
        "midi": 62,
        "time": 2.769,
        "duration": 0.162,
        "velocity": 0.63,
        "hand": "right"
      },
      {
        "midi": 54,
        "time": 3.461,
        "duration": 0.346,
        "velocity": 0.63,
        "hand": "left"
      },
      {
        "midi": 57,
        "time": 4.154,
        "duration": 0.162,
        "velocity": 0.63,
        "hand": "left"
      },
      {
        "midi": 71,
        "time": 4.154,
        "duration": 0.162,
        "velocity": 0.63,
        "hand": "right"
      },
      {
        "midi": 69,
        "time": 4.846,
        "duration": 0.346,
        "velocity": 0.63,
        "hand": "right"
      },
      {
        "midi": 57,
        "time": 5.538,
        "duration": 0.162,
        "velocity": 0.63,
        "hand": "left"
      },
      {
        "midi": 71,
        "time": 5.538,
        "duration": 0.162,
        "velocity": 0.63,
        "hand": "right"
      },
      {
        "midi": 55,
        "time": 6.231,
        "duration": 0.346,
        "velocity": 0.63,
        "hand": "left"
      },
      {
        "midi": 71,
        "time": 6.231,
        "duration": 1.269,
        "velocity": 0.63,
        "hand": "right"
      },
      {
        "midi": 59,
        "time": 6.923,
        "duration": 0.162,
        "velocity": 0.63,
        "hand": "left"
      },
      {
        "midi": 62,
        "time": 6.923,
        "duration": 0.162,
        "velocity": 0.63,
        "hand": "right"
      },
      {
        "midi": 74,
        "time": 7.615,
        "duration": 0.216,
        "velocity": 0.63,
        "hand": "right"
      },
      {
        "midi": 59,
        "time": 8.307,
        "duration": 0.162,
        "velocity": 0.63,
        "hand": "left"
      },
      {
        "midi": 74,
        "time": 8.307,
        "duration": 0.162,
        "velocity": 0.63,
        "hand": "right"
      },
      {
        "midi": 76,
        "time": 9,
        "duration": 0.346,
        "velocity": 0.63,
        "hand": "right"
      },
      {
        "midi": 59,
        "time": 9.692,
        "duration": 0.162,
        "velocity": 0.63,
        "hand": "left"
      },
      {
        "midi": 71,
        "time": 9.692,
        "duration": 0.162,
        "velocity": 0.63,
        "hand": "right"
      },
      {
        "midi": 69,
        "time": 10.384,
        "duration": 0.678,
        "velocity": 0.63,
        "hand": "right"
      },
      {
        "midi": 57,
        "time": 11.077,
        "duration": 0.162,
        "velocity": 0.63,
        "hand": "left"
      },
      {
        "midi": 69,
        "time": 11.077,
        "duration": 0.162,
        "velocity": 0.63,
        "hand": "right"
      },
      {
        "midi": 72,
        "time": 11.769,
        "duration": 0.346,
        "velocity": 0.63,
        "hand": "right"
      },
      {
        "midi": 57,
        "time": 12.461,
        "duration": 0.162,
        "velocity": 0.63,
        "hand": "left"
      },
      {
        "midi": 71,
        "time": 12.461,
        "duration": 0.162,
        "velocity": 0.63,
        "hand": "right"
      },
      {
        "midi": 72,
        "time": 13.154,
        "duration": 0.346,
        "velocity": 0.63,
        "hand": "right"
      },
      {
        "midi": 59,
        "time": 13.846,
        "duration": 0.162,
        "velocity": 0.63,
        "hand": "left"
      },
      {
        "midi": 62,
        "time": 13.846,
        "duration": 0.162,
        "velocity": 0.63,
        "hand": "right"
      },
      {
        "midi": 55,
        "time": 14.538,
        "duration": 0.692,
        "velocity": 0.63,
        "hand": "left"
      },
      {
        "midi": 71,
        "time": 14.538,
        "duration": 1.139,
        "velocity": 0.63,
        "hand": "right"
      },
      {
        "midi": 74,
        "time": 15.231,
        "duration": 0.162,
        "velocity": 0.63,
        "hand": "right"
      },
      {
        "midi": 50,
        "time": 15.923,
        "duration": 0.346,
        "velocity": 0.63,
        "hand": "left"
      },
      {
        "midi": 78,
        "time": 16.615,
        "duration": 0.162,
        "velocity": 0.63,
        "hand": "right"
      },
      {
        "midi": 78,
        "time": 17.307,
        "duration": 1.269,
        "velocity": 0.63,
        "hand": "right"
      },
      {
        "midi": 57,
        "time": 18,
        "duration": 0.162,
        "velocity": 0.63,
        "hand": "left"
      },
      {
        "midi": 72,
        "time": 18,
        "duration": 0.162,
        "velocity": 0.63,
        "hand": "right"
      },
      {
        "midi": 74,
        "time": 18.692,
        "duration": 0.216,
        "velocity": 0.63,
        "hand": "right"
      },
      {
        "midi": 57,
        "time": 19.384,
        "duration": 0.162,
        "velocity": 0.63,
        "hand": "left"
      },
      {
        "midi": 72,
        "time": 19.384,
        "duration": 0.162,
        "velocity": 0.63,
        "hand": "right"
      },
      {
        "midi": 54,
        "time": 20.077,
        "duration": 0.346,
        "velocity": 0.63,
        "hand": "left"
      },
      {
        "midi": 57,
        "time": 20.769,
        "duration": 0.162,
        "velocity": 0.63,
        "hand": "left"
      },
      {
        "midi": 72,
        "time": 20.769,
        "duration": 0.162,
        "velocity": 0.63,
        "hand": "right"
      },
      {
        "midi": 50,
        "time": 21.461,
        "duration": 0.346,
        "velocity": 0.63,
        "hand": "left"
      },
      {
        "midi": 59,
        "time": 22.154,
        "duration": 0.162,
        "velocity": 0.63,
        "hand": "left"
      },
      {
        "midi": 74,
        "time": 22.154,
        "duration": 0.162,
        "velocity": 0.63,
        "hand": "right"
      },
      {
        "midi": 79,
        "time": 22.846,
        "duration": 1.269,
        "velocity": 0.63,
        "hand": "right"
      },
      {
        "midi": 59,
        "time": 23.538,
        "duration": 0.162,
        "velocity": 0.63,
        "hand": "left"
      },
      {
        "midi": 74,
        "time": 23.538,
        "duration": 0.162,
        "velocity": 0.63,
        "hand": "right"
      },
      {
        "midi": 76,
        "time": 24.231,
        "duration": 0.346,
        "velocity": 0.63,
        "hand": "right"
      },
      {
        "midi": 57,
        "time": 24.923,
        "duration": 0.162,
        "velocity": 0.63,
        "hand": "left"
      },
      {
        "midi": 72,
        "time": 24.923,
        "duration": 0.162,
        "velocity": 0.63,
        "hand": "right"
      },
      {
        "midi": 54,
        "time": 25.615,
        "duration": 0.346,
        "velocity": 0.63,
        "hand": "left"
      },
      {
        "midi": 74,
        "time": 26.307,
        "duration": 0.162,
        "velocity": 0.63,
        "hand": "right"
      },
      {
        "midi": 50,
        "time": 27,
        "duration": 0.346,
        "velocity": 0.63,
        "hand": "left"
      },
      {
        "midi": 76,
        "time": 27.692,
        "duration": 0.162,
        "velocity": 0.63,
        "hand": "right"
      },
      {
        "midi": 55,
        "time": 28.384,
        "duration": 0.346,
        "velocity": 0.63,
        "hand": "left"
      },
      {
        "midi": 71,
        "time": 28.384,
        "duration": 1.832,
        "velocity": 0.63,
        "hand": "right"
      },
      {
        "midi": 47,
        "time": 29.077,
        "duration": 0.162,
        "velocity": 0.63,
        "hand": "left"
      },
      {
        "midi": 74,
        "time": 29.769,
        "duration": 0.216,
        "velocity": 0.63,
        "hand": "right"
      },
      {
        "midi": 59,
        "time": 30.461,
        "duration": 0.162,
        "velocity": 0.63,
        "hand": "left"
      },
      {
        "midi": 74,
        "time": 30.461,
        "duration": 0.162,
        "velocity": 0.63,
        "hand": "right"
      },
      {
        "midi": 76,
        "time": 31.154,
        "duration": 0.346,
        "velocity": 0.63,
        "hand": "right"
      },
      {
        "midi": 59,
        "time": 31.846,
        "duration": 0.162,
        "velocity": 0.63,
        "hand": "left"
      },
      {
        "midi": 71,
        "time": 31.846,
        "duration": 1.831,
        "velocity": 0.63,
        "hand": "right"
      },
      {
        "midi": 69,
        "time": 32.538,
        "duration": 0.678,
        "velocity": 0.63,
        "hand": "right"
      },
      {
        "midi": 57,
        "time": 33.231,
        "duration": 0.162,
        "velocity": 0.63,
        "hand": "left"
      },
      {
        "midi": 69,
        "time": 33.231,
        "duration": 0.162,
        "velocity": 0.63,
        "hand": "right"
      },
      {
        "midi": 72,
        "time": 33.923,
        "duration": 0.346,
        "velocity": 0.63,
        "hand": "right"
      },
      {
        "midi": 57,
        "time": 34.615,
        "duration": 0.162,
        "velocity": 0.63,
        "hand": "left"
      },
      {
        "midi": 71,
        "time": 34.615,
        "duration": 0.447,
        "velocity": 0.63,
        "hand": "right"
      },
      {
        "midi": 72,
        "time": 35.307,
        "duration": 0.346,
        "velocity": 0.63,
        "hand": "right"
      },
      {
        "midi": 59,
        "time": 36,
        "duration": 0.162,
        "velocity": 0.63,
        "hand": "left"
      },
      {
        "midi": 62,
        "time": 36,
        "duration": 0.162,
        "velocity": 0.63,
        "hand": "right"
      },
      {
        "midi": 55,
        "time": 36.692,
        "duration": 0.346,
        "velocity": 0.63,
        "hand": "left"
      },
      {
        "midi": 59,
        "time": 37.384,
        "duration": 0.162,
        "velocity": 0.63,
        "hand": "left"
      },
      {
        "midi": 74,
        "time": 37.384,
        "duration": 0.162,
        "velocity": 0.63,
        "hand": "right"
      },
      {
        "midi": 74,
        "time": 38.077,
        "duration": 0.215,
        "velocity": 0.63,
        "hand": "right"
      },
      {
        "midi": 59,
        "time": 38.769,
        "duration": 0.162,
        "velocity": 0.63,
        "hand": "left"
      },
      {
        "midi": 74,
        "time": 38.769,
        "duration": 0.162,
        "velocity": 0.63,
        "hand": "right"
      },
      {
        "midi": 74,
        "time": 39.461,
        "duration": 0.692,
        "velocity": 0.63,
        "hand": "right"
      },
      {
        "midi": 57,
        "time": 40.154,
        "duration": 0.162,
        "velocity": 0.63,
        "hand": "left"
      },
      {
        "midi": 62,
        "time": 40.154,
        "duration": 0.162,
        "velocity": 0.63,
        "hand": "right"
      },
      {
        "midi": 69,
        "time": 40.846,
        "duration": 0.346,
        "velocity": 0.63,
        "hand": "right"
      },
      {
        "midi": 57,
        "time": 41.538,
        "duration": 0.162,
        "velocity": 0.63,
        "hand": "left"
      },
      {
        "midi": 71,
        "time": 41.538,
        "duration": 0.447,
        "velocity": 0.63,
        "hand": "right"
      },
      {
        "midi": 72,
        "time": 42.231,
        "duration": 0.346,
        "velocity": 0.63,
        "hand": "right"
      },
      {
        "midi": 74,
        "time": 42.923,
        "duration": 0.162,
        "velocity": 0.63,
        "hand": "right"
      },
      {
        "midi": 50,
        "time": 43.615,
        "duration": 0.346,
        "velocity": 0.63,
        "hand": "left"
      },
      {
        "midi": 74,
        "time": 44.307,
        "duration": 0.162,
        "velocity": 0.63,
        "hand": "right"
      },
      {
        "midi": 79,
        "time": 45,
        "duration": 1.269,
        "velocity": 0.63,
        "hand": "right"
      },
      {
        "midi": 59,
        "time": 45.692,
        "duration": 0.162,
        "velocity": 0.63,
        "hand": "left"
      },
      {
        "midi": 74,
        "time": 45.692,
        "duration": 0.162,
        "velocity": 0.63,
        "hand": "right"
      },
      {
        "midi": 76,
        "time": 46.384,
        "duration": 0.346,
        "velocity": 0.63,
        "hand": "right"
      },
      {
        "midi": 57,
        "time": 47.077,
        "duration": 0.162,
        "velocity": 0.63,
        "hand": "left"
      },
      {
        "midi": 72,
        "time": 47.077,
        "duration": 0.162,
        "velocity": 0.63,
        "hand": "right"
      },
      {
        "midi": 54,
        "time": 47.769,
        "duration": 0.346,
        "velocity": 0.63,
        "hand": "left"
      },
      {
        "midi": 74,
        "time": 48.577,
        "duration": 0.162,
        "velocity": 0.63,
        "hand": "right"
      },
      {
        "midi": 50,
        "time": 49.269,
        "duration": 0.346,
        "velocity": 0.63,
        "hand": "left"
      },
      {
        "midi": 76,
        "time": 49.961,
        "duration": 0.162,
        "velocity": 0.63,
        "hand": "right"
      },
      {
        "midi": 76,
        "time": 50.654,
        "duration": 1.269,
        "velocity": 0.63,
        "hand": "right"
      },
      {
        "midi": 59,
        "time": 51.346,
        "duration": 0.162,
        "velocity": 0.63,
        "hand": "left"
      },
      {
        "midi": 71,
        "time": 51.346,
        "duration": 1.37,
        "velocity": 0.63,
        "hand": "right"
      },
      {
        "midi": 74,
        "time": 52.038,
        "duration": 0.216,
        "velocity": 0.63,
        "hand": "right"
      },
      {
        "midi": 59,
        "time": 52.731,
        "duration": 0.162,
        "velocity": 0.63,
        "hand": "left"
      },
      {
        "midi": 74,
        "time": 52.731,
        "duration": 0.162,
        "velocity": 0.63,
        "hand": "right"
      },
      {
        "midi": 55,
        "time": 53.423,
        "duration": 0.346,
        "velocity": 0.63,
        "hand": "left"
      },
      {
        "midi": 59,
        "time": 54.115,
        "duration": 0.162,
        "velocity": 0.63,
        "hand": "left"
      },
      {
        "midi": 74,
        "time": 54.115,
        "duration": 0.162,
        "velocity": 0.63,
        "hand": "right"
      },
      {
        "midi": 50,
        "time": 54.807,
        "duration": 0.346,
        "velocity": 0.63,
        "hand": "left"
      },
      {
        "midi": 74,
        "time": 55.5,
        "duration": 0.162,
        "velocity": 0.63,
        "hand": "right"
      },
      {
        "midi": 78,
        "time": 56.192,
        "duration": 1.269,
        "velocity": 0.63,
        "hand": "right"
      },
      {
        "midi": 57,
        "time": 56.884,
        "duration": 0.162,
        "velocity": 0.63,
        "hand": "left"
      },
      {
        "midi": 72,
        "time": 56.884,
        "duration": 0.162,
        "velocity": 0.63,
        "hand": "right"
      },
      {
        "midi": 74,
        "time": 57.577,
        "duration": 0.346,
        "velocity": 0.63,
        "hand": "right"
      },
      {
        "midi": 52,
        "time": 58.269,
        "duration": 0.162,
        "velocity": 0.63,
        "hand": "left"
      },
      {
        "midi": 43,
        "time": 58.961,
        "duration": 0.346,
        "velocity": 0.63,
        "hand": "left"
      },
      {
        "midi": 74,
        "time": 59.654,
        "duration": 0.162,
        "velocity": 0.63,
        "hand": "right"
      },
      {
        "midi": 74,
        "time": 60.346,
        "duration": 0.216,
        "velocity": 0.63,
        "hand": "right"
      },
      {
        "midi": 76,
        "time": 61.038,
        "duration": 0.162,
        "velocity": 0.63,
        "hand": "right"
      },
      {
        "midi": 71,
        "time": 61.731,
        "duration": 0.908,
        "velocity": 0.63,
        "hand": "right"
      },
      {
        "midi": 47,
        "time": 62.423,
        "duration": 0.162,
        "velocity": 0.63,
        "hand": "left"
      }
    ],
    "hard": [
      {
        "midi": 74,
        "time": 0,
        "duration": 0.115,
        "velocity": 0.63,
        "hand": "right"
      },
      {
        "midi": 74,
        "time": 0.231,
        "duration": 0.215,
        "velocity": 0.63,
        "hand": "right"
      },
      {
        "midi": 74,
        "time": 0.461,
        "duration": 0.115,
        "velocity": 0.63,
        "hand": "right"
      },
      {
        "midi": 55,
        "time": 0.692,
        "duration": 0.346,
        "velocity": 0.63,
        "hand": "left"
      },
      {
        "midi": 71,
        "time": 0.692,
        "duration": 0.346,
        "velocity": 0.63,
        "hand": "right"
      },
      {
        "midi": 59,
        "time": 0.923,
        "duration": 0.115,
        "velocity": 0.63,
        "hand": "left"
      },
      {
        "midi": 62,
        "time": 0.923,
        "duration": 0.115,
        "velocity": 0.63,
        "hand": "right"
      },
      {
        "midi": 74,
        "time": 0.923,
        "duration": 0.115,
        "velocity": 0.63,
        "hand": "right"
      },
      {
        "midi": 50,
        "time": 1.154,
        "duration": 0.346,
        "velocity": 0.63,
        "hand": "left"
      },
      {
        "midi": 74,
        "time": 1.154,
        "duration": 0.215,
        "velocity": 0.63,
        "hand": "right"
      },
      {
        "midi": 59,
        "time": 1.384,
        "duration": 0.115,
        "velocity": 0.63,
        "hand": "left"
      },
      {
        "midi": 62,
        "time": 1.384,
        "duration": 0.115,
        "velocity": 0.63,
        "hand": "right"
      },
      {
        "midi": 74,
        "time": 1.384,
        "duration": 0.115,
        "velocity": 0.63,
        "hand": "right"
      },
      {
        "midi": 55,
        "time": 1.615,
        "duration": 0.346,
        "velocity": 0.63,
        "hand": "left"
      },
      {
        "midi": 76,
        "time": 1.615,
        "duration": 0.346,
        "velocity": 0.63,
        "hand": "right"
      },
      {
        "midi": 59,
        "time": 1.846,
        "duration": 0.115,
        "velocity": 0.63,
        "hand": "left"
      },
      {
        "midi": 62,
        "time": 1.846,
        "duration": 0.115,
        "velocity": 0.63,
        "hand": "right"
      },
      {
        "midi": 74,
        "time": 1.846,
        "duration": 0.115,
        "velocity": 0.63,
        "hand": "right"
      },
      {
        "midi": 50,
        "time": 2.077,
        "duration": 0.346,
        "velocity": 0.63,
        "hand": "left"
      },
      {
        "midi": 72,
        "time": 2.077,
        "duration": 0.346,
        "velocity": 0.63,
        "hand": "right"
      },
      {
        "midi": 59,
        "time": 2.307,
        "duration": 0.115,
        "velocity": 0.63,
        "hand": "left"
      },
      {
        "midi": 62,
        "time": 2.307,
        "duration": 0.115,
        "velocity": 0.63,
        "hand": "right"
      },
      {
        "midi": 71,
        "time": 2.307,
        "duration": 0.115,
        "velocity": 0.63,
        "hand": "right"
      },
      {
        "midi": 54,
        "time": 2.538,
        "duration": 0.346,
        "velocity": 0.63,
        "hand": "left"
      },
      {
        "midi": 74,
        "time": 2.538,
        "duration": 0.692,
        "velocity": 0.63,
        "hand": "right"
      },
      {
        "midi": 57,
        "time": 2.769,
        "duration": 0.115,
        "velocity": 0.63,
        "hand": "left"
      },
      {
        "midi": 62,
        "time": 2.769,
        "duration": 0.115,
        "velocity": 0.63,
        "hand": "right"
      },
      {
        "midi": 50,
        "time": 3,
        "duration": 0.346,
        "velocity": 0.63,
        "hand": "left"
      },
      {
        "midi": 69,
        "time": 3,
        "duration": 0.677,
        "velocity": 0.63,
        "hand": "right"
      },
      {
        "midi": 57,
        "time": 3.231,
        "duration": 0.115,
        "velocity": 0.63,
        "hand": "left"
      },
      {
        "midi": 62,
        "time": 3.231,
        "duration": 0.115,
        "velocity": 0.63,
        "hand": "right"
      },
      {
        "midi": 54,
        "time": 3.461,
        "duration": 0.346,
        "velocity": 0.63,
        "hand": "left"
      },
      {
        "midi": 57,
        "time": 3.692,
        "duration": 0.115,
        "velocity": 0.63,
        "hand": "left"
      },
      {
        "midi": 62,
        "time": 3.692,
        "duration": 0.115,
        "velocity": 0.63,
        "hand": "right"
      },
      {
        "midi": 69,
        "time": 3.692,
        "duration": 0.115,
        "velocity": 0.63,
        "hand": "right"
      },
      {
        "midi": 50,
        "time": 3.923,
        "duration": 0.346,
        "velocity": 0.63,
        "hand": "left"
      },
      {
        "midi": 69,
        "time": 3.923,
        "duration": 0.346,
        "velocity": 0.63,
        "hand": "right"
      },
      {
        "midi": 57,
        "time": 4.154,
        "duration": 0.115,
        "velocity": 0.63,
        "hand": "left"
      },
      {
        "midi": 62,
        "time": 4.154,
        "duration": 0.115,
        "velocity": 0.63,
        "hand": "right"
      },
      {
        "midi": 71,
        "time": 4.154,
        "duration": 0.115,
        "velocity": 0.63,
        "hand": "right"
      },
      {
        "midi": 54,
        "time": 4.384,
        "duration": 0.346,
        "velocity": 0.63,
        "hand": "left"
      },
      {
        "midi": 72,
        "time": 4.384,
        "duration": 0.346,
        "velocity": 0.63,
        "hand": "right"
      },
      {
        "midi": 57,
        "time": 4.615,
        "duration": 0.115,
        "velocity": 0.63,
        "hand": "left"
      },
      {
        "midi": 62,
        "time": 4.615,
        "duration": 0.115,
        "velocity": 0.63,
        "hand": "right"
      },
      {
        "midi": 71,
        "time": 4.615,
        "duration": 0.115,
        "velocity": 0.63,
        "hand": "right"
      },
      {
        "midi": 50,
        "time": 4.846,
        "duration": 0.346,
        "velocity": 0.63,
        "hand": "left"
      },
      {
        "midi": 69,
        "time": 4.846,
        "duration": 0.346,
        "velocity": 0.63,
        "hand": "right"
      },
      {
        "midi": 57,
        "time": 5.077,
        "duration": 0.115,
        "velocity": 0.63,
        "hand": "left"
      },
      {
        "midi": 62,
        "time": 5.077,
        "duration": 0.115,
        "velocity": 0.63,
        "hand": "right"
      },
      {
        "midi": 71,
        "time": 5.077,
        "duration": 0.115,
        "velocity": 0.63,
        "hand": "right"
      },
      {
        "midi": 54,
        "time": 5.307,
        "duration": 0.346,
        "velocity": 0.63,
        "hand": "left"
      },
      {
        "midi": 72,
        "time": 5.307,
        "duration": 0.346,
        "velocity": 0.63,
        "hand": "right"
      },
      {
        "midi": 57,
        "time": 5.538,
        "duration": 0.115,
        "velocity": 0.63,
        "hand": "left"
      },
      {
        "midi": 62,
        "time": 5.538,
        "duration": 0.115,
        "velocity": 0.63,
        "hand": "right"
      },
      {
        "midi": 71,
        "time": 5.538,
        "duration": 0.115,
        "velocity": 0.63,
        "hand": "right"
      },
      {
        "midi": 50,
        "time": 5.769,
        "duration": 0.346,
        "velocity": 0.63,
        "hand": "left"
      },
      {
        "midi": 72,
        "time": 5.769,
        "duration": 0.346,
        "velocity": 0.63,
        "hand": "right"
      },
      {
        "midi": 57,
        "time": 6,
        "duration": 0.115,
        "velocity": 0.63,
        "hand": "left"
      },
      {
        "midi": 62,
        "time": 6,
        "duration": 0.115,
        "velocity": 0.63,
        "hand": "right"
      },
      {
        "midi": 74,
        "time": 6,
        "duration": 0.115,
        "velocity": 0.63,
        "hand": "right"
      },
      {
        "midi": 55,
        "time": 6.231,
        "duration": 0.346,
        "velocity": 0.63,
        "hand": "left"
      },
      {
        "midi": 67,
        "time": 6.231,
        "duration": 1.269,
        "velocity": 0.63,
        "hand": "right"
      },
      {
        "midi": 71,
        "time": 6.231,
        "duration": 1.269,
        "velocity": 0.63,
        "hand": "right"
      },
      {
        "midi": 59,
        "time": 6.461,
        "duration": 0.115,
        "velocity": 0.63,
        "hand": "left"
      },
      {
        "midi": 62,
        "time": 6.461,
        "duration": 0.115,
        "velocity": 0.63,
        "hand": "right"
      },
      {
        "midi": 50,
        "time": 6.692,
        "duration": 0.346,
        "velocity": 0.63,
        "hand": "left"
      },
      {
        "midi": 59,
        "time": 6.923,
        "duration": 0.115,
        "velocity": 0.63,
        "hand": "left"
      },
      {
        "midi": 62,
        "time": 6.923,
        "duration": 0.115,
        "velocity": 0.63,
        "hand": "right"
      },
      {
        "midi": 55,
        "time": 7.154,
        "duration": 0.346,
        "velocity": 0.63,
        "hand": "left"
      },
      {
        "midi": 59,
        "time": 7.384,
        "duration": 0.115,
        "velocity": 0.63,
        "hand": "left"
      },
      {
        "midi": 62,
        "time": 7.384,
        "duration": 0.115,
        "velocity": 0.63,
        "hand": "right"
      },
      {
        "midi": 74,
        "time": 7.384,
        "duration": 0.115,
        "velocity": 0.63,
        "hand": "right"
      },
      {
        "midi": 50,
        "time": 7.615,
        "duration": 0.346,
        "velocity": 0.63,
        "hand": "left"
      },
      {
        "midi": 74,
        "time": 7.615,
        "duration": 0.216,
        "velocity": 0.63,
        "hand": "right"
      },
      {
        "midi": 59,
        "time": 7.846,
        "duration": 0.115,
        "velocity": 0.63,
        "hand": "left"
      },
      {
        "midi": 62,
        "time": 7.846,
        "duration": 0.115,
        "velocity": 0.63,
        "hand": "right"
      },
      {
        "midi": 74,
        "time": 7.846,
        "duration": 0.115,
        "velocity": 0.63,
        "hand": "right"
      },
      {
        "midi": 55,
        "time": 8.077,
        "duration": 0.346,
        "velocity": 0.63,
        "hand": "left"
      },
      {
        "midi": 71,
        "time": 8.077,
        "duration": 0.346,
        "velocity": 0.63,
        "hand": "right"
      },
      {
        "midi": 59,
        "time": 8.307,
        "duration": 0.115,
        "velocity": 0.63,
        "hand": "left"
      },
      {
        "midi": 62,
        "time": 8.307,
        "duration": 0.115,
        "velocity": 0.63,
        "hand": "right"
      },
      {
        "midi": 74,
        "time": 8.307,
        "duration": 0.115,
        "velocity": 0.63,
        "hand": "right"
      },
      {
        "midi": 50,
        "time": 8.538,
        "duration": 0.346,
        "velocity": 0.63,
        "hand": "left"
      },
      {
        "midi": 74,
        "time": 8.538,
        "duration": 0.216,
        "velocity": 0.63,
        "hand": "right"
      },
      {
        "midi": 59,
        "time": 8.769,
        "duration": 0.115,
        "velocity": 0.63,
        "hand": "left"
      },
      {
        "midi": 62,
        "time": 8.769,
        "duration": 0.115,
        "velocity": 0.63,
        "hand": "right"
      },
      {
        "midi": 74,
        "time": 8.769,
        "duration": 0.115,
        "velocity": 0.63,
        "hand": "right"
      },
      {
        "midi": 55,
        "time": 9,
        "duration": 0.346,
        "velocity": 0.63,
        "hand": "left"
      },
      {
        "midi": 76,
        "time": 9,
        "duration": 0.346,
        "velocity": 0.63,
        "hand": "right"
      },
      {
        "midi": 59,
        "time": 9.231,
        "duration": 0.115,
        "velocity": 0.63,
        "hand": "left"
      },
      {
        "midi": 62,
        "time": 9.231,
        "duration": 0.115,
        "velocity": 0.63,
        "hand": "right"
      },
      {
        "midi": 74,
        "time": 9.231,
        "duration": 0.115,
        "velocity": 0.63,
        "hand": "right"
      },
      {
        "midi": 50,
        "time": 9.461,
        "duration": 0.346,
        "velocity": 0.63,
        "hand": "left"
      },
      {
        "midi": 72,
        "time": 9.461,
        "duration": 0.346,
        "velocity": 0.63,
        "hand": "right"
      },
      {
        "midi": 59,
        "time": 9.692,
        "duration": 0.115,
        "velocity": 0.63,
        "hand": "left"
      },
      {
        "midi": 62,
        "time": 9.692,
        "duration": 0.115,
        "velocity": 0.63,
        "hand": "right"
      },
      {
        "midi": 71,
        "time": 9.692,
        "duration": 0.115,
        "velocity": 0.63,
        "hand": "right"
      },
      {
        "midi": 54,
        "time": 9.923,
        "duration": 0.346,
        "velocity": 0.63,
        "hand": "left"
      },
      {
        "midi": 74,
        "time": 9.923,
        "duration": 0.692,
        "velocity": 0.63,
        "hand": "right"
      },
      {
        "midi": 57,
        "time": 10.154,
        "duration": 0.115,
        "velocity": 0.63,
        "hand": "left"
      },
      {
        "midi": 62,
        "time": 10.154,
        "duration": 0.115,
        "velocity": 0.63,
        "hand": "right"
      },
      {
        "midi": 50,
        "time": 10.384,
        "duration": 0.346,
        "velocity": 0.63,
        "hand": "left"
      },
      {
        "midi": 69,
        "time": 10.384,
        "duration": 0.678,
        "velocity": 0.63,
        "hand": "right"
      },
      {
        "midi": 57,
        "time": 10.615,
        "duration": 0.115,
        "velocity": 0.63,
        "hand": "left"
      },
      {
        "midi": 62,
        "time": 10.615,
        "duration": 0.115,
        "velocity": 0.63,
        "hand": "right"
      },
      {
        "midi": 54,
        "time": 10.846,
        "duration": 0.346,
        "velocity": 0.63,
        "hand": "left"
      },
      {
        "midi": 57,
        "time": 11.077,
        "duration": 0.115,
        "velocity": 0.63,
        "hand": "left"
      },
      {
        "midi": 62,
        "time": 11.077,
        "duration": 0.115,
        "velocity": 0.63,
        "hand": "right"
      },
      {
        "midi": 69,
        "time": 11.077,
        "duration": 0.115,
        "velocity": 0.63,
        "hand": "right"
      },
      {
        "midi": 50,
        "time": 11.307,
        "duration": 0.346,
        "velocity": 0.63,
        "hand": "left"
      },
      {
        "midi": 69,
        "time": 11.307,
        "duration": 0.346,
        "velocity": 0.63,
        "hand": "right"
      },
      {
        "midi": 57,
        "time": 11.538,
        "duration": 0.115,
        "velocity": 0.63,
        "hand": "left"
      },
      {
        "midi": 62,
        "time": 11.538,
        "duration": 0.115,
        "velocity": 0.63,
        "hand": "right"
      },
      {
        "midi": 71,
        "time": 11.538,
        "duration": 0.115,
        "velocity": 0.63,
        "hand": "right"
      },
      {
        "midi": 54,
        "time": 11.769,
        "duration": 0.346,
        "velocity": 0.63,
        "hand": "left"
      },
      {
        "midi": 72,
        "time": 11.769,
        "duration": 0.346,
        "velocity": 0.63,
        "hand": "right"
      },
      {
        "midi": 57,
        "time": 12,
        "duration": 0.115,
        "velocity": 0.63,
        "hand": "left"
      },
      {
        "midi": 62,
        "time": 12,
        "duration": 0.115,
        "velocity": 0.63,
        "hand": "right"
      },
      {
        "midi": 71,
        "time": 12,
        "duration": 0.115,
        "velocity": 0.63,
        "hand": "right"
      },
      {
        "midi": 50,
        "time": 12.231,
        "duration": 0.346,
        "velocity": 0.63,
        "hand": "left"
      },
      {
        "midi": 69,
        "time": 12.231,
        "duration": 0.346,
        "velocity": 0.63,
        "hand": "right"
      },
      {
        "midi": 57,
        "time": 12.461,
        "duration": 0.115,
        "velocity": 0.63,
        "hand": "left"
      },
      {
        "midi": 62,
        "time": 12.461,
        "duration": 0.115,
        "velocity": 0.63,
        "hand": "right"
      },
      {
        "midi": 71,
        "time": 12.461,
        "duration": 0.115,
        "velocity": 0.63,
        "hand": "right"
      },
      {
        "midi": 54,
        "time": 12.692,
        "duration": 0.346,
        "velocity": 0.63,
        "hand": "left"
      },
      {
        "midi": 72,
        "time": 12.692,
        "duration": 0.346,
        "velocity": 0.63,
        "hand": "right"
      },
      {
        "midi": 57,
        "time": 12.923,
        "duration": 0.115,
        "velocity": 0.63,
        "hand": "left"
      },
      {
        "midi": 62,
        "time": 12.923,
        "duration": 0.115,
        "velocity": 0.63,
        "hand": "right"
      },
      {
        "midi": 71,
        "time": 12.923,
        "duration": 0.115,
        "velocity": 0.63,
        "hand": "right"
      },
      {
        "midi": 50,
        "time": 13.154,
        "duration": 0.346,
        "velocity": 0.63,
        "hand": "left"
      },
      {
        "midi": 72,
        "time": 13.154,
        "duration": 0.346,
        "velocity": 0.63,
        "hand": "right"
      },
      {
        "midi": 57,
        "time": 13.384,
        "duration": 0.115,
        "velocity": 0.63,
        "hand": "left"
      },
      {
        "midi": 62,
        "time": 13.384,
        "duration": 0.115,
        "velocity": 0.63,
        "hand": "right"
      },
      {
        "midi": 74,
        "time": 13.384,
        "duration": 0.115,
        "velocity": 0.63,
        "hand": "right"
      },
      {
        "midi": 55,
        "time": 13.615,
        "duration": 0.346,
        "velocity": 0.63,
        "hand": "left"
      },
      {
        "midi": 67,
        "time": 13.615,
        "duration": 0.908,
        "velocity": 0.63,
        "hand": "right"
      },
      {
        "midi": 71,
        "time": 13.615,
        "duration": 0.908,
        "velocity": 0.63,
        "hand": "right"
      },
      {
        "midi": 59,
        "time": 13.846,
        "duration": 0.115,
        "velocity": 0.63,
        "hand": "left"
      },
      {
        "midi": 62,
        "time": 13.846,
        "duration": 0.115,
        "velocity": 0.63,
        "hand": "right"
      },
      {
        "midi": 50,
        "time": 14.077,
        "duration": 0.346,
        "velocity": 0.63,
        "hand": "left"
      },
      {
        "midi": 59,
        "time": 14.307,
        "duration": 0.115,
        "velocity": 0.63,
        "hand": "left"
      },
      {
        "midi": 62,
        "time": 14.307,
        "duration": 0.115,
        "velocity": 0.63,
        "hand": "right"
      },
      {
        "midi": 43,
        "time": 14.538,
        "duration": 0.692,
        "velocity": 0.63,
        "hand": "left"
      },
      {
        "midi": 55,
        "time": 14.538,
        "duration": 0.692,
        "velocity": 0.63,
        "hand": "left"
      },
      {
        "midi": 67,
        "time": 14.538,
        "duration": 6.678,
        "velocity": 0.63,
        "hand": "right"
      },
      {
        "midi": 71,
        "time": 14.538,
        "duration": 1.139,
        "velocity": 0.63,
        "hand": "right"
      },
      {
        "midi": 74,
        "time": 14.769,
        "duration": 0.115,
        "velocity": 0.63,
        "hand": "right"
      },
      {
        "midi": 74,
        "time": 15,
        "duration": 0.216,
        "velocity": 0.63,
        "hand": "right"
      },
      {
        "midi": 74,
        "time": 15.231,
        "duration": 0.115,
        "velocity": 0.63,
        "hand": "right"
      },
      {
        "midi": 55,
        "time": 15.461,
        "duration": 0.346,
        "velocity": 0.63,
        "hand": "left"
      },
      {
        "midi": 79,
        "time": 15.461,
        "duration": 1.269,
        "velocity": 0.63,
        "hand": "right"
      },
      {
        "midi": 59,
        "time": 15.692,
        "duration": 0.115,
        "velocity": 0.63,
        "hand": "left"
      },
      {
        "midi": 62,
        "time": 15.692,
        "duration": 0.115,
        "velocity": 0.63,
        "hand": "right"
      },
      {
        "midi": 71,
        "time": 15.692,
        "duration": 0.447,
        "velocity": 0.63,
        "hand": "right"
      },
      {
        "midi": 74,
        "time": 15.692,
        "duration": 0.115,
        "velocity": 0.63,
        "hand": "right"
      },
      {
        "midi": 50,
        "time": 15.923,
        "duration": 0.346,
        "velocity": 0.63,
        "hand": "left"
      },
      {
        "midi": 59,
        "time": 16.154,
        "duration": 0.115,
        "velocity": 0.63,
        "hand": "left"
      },
      {
        "midi": 62,
        "time": 16.154,
        "duration": 0.115,
        "velocity": 0.63,
        "hand": "right"
      },
      {
        "midi": 71,
        "time": 16.154,
        "duration": 5.062,
        "velocity": 0.63,
        "hand": "right"
      },
      {
        "midi": 74,
        "time": 16.154,
        "duration": 0.115,
        "velocity": 0.63,
        "hand": "right"
      },
      {
        "midi": 55,
        "time": 16.384,
        "duration": 0.346,
        "velocity": 0.63,
        "hand": "left"
      },
      {
        "midi": 59,
        "time": 16.615,
        "duration": 0.115,
        "velocity": 0.63,
        "hand": "left"
      },
      {
        "midi": 62,
        "time": 16.615,
        "duration": 0.115,
        "velocity": 0.63,
        "hand": "right"
      },
      {
        "midi": 78,
        "time": 16.615,
        "duration": 0.115,
        "velocity": 0.63,
        "hand": "right"
      },
      {
        "midi": 50,
        "time": 16.846,
        "duration": 0.346,
        "velocity": 0.63,
        "hand": "left"
      },
      {
        "midi": 76,
        "time": 16.846,
        "duration": 0.346,
        "velocity": 0.63,
        "hand": "right"
      },
      {
        "midi": 59,
        "time": 17.077,
        "duration": 0.115,
        "velocity": 0.63,
        "hand": "left"
      },
      {
        "midi": 62,
        "time": 17.077,
        "duration": 0.115,
        "velocity": 0.63,
        "hand": "right"
      },
      {
        "midi": 74,
        "time": 17.077,
        "duration": 0.115,
        "velocity": 0.63,
        "hand": "right"
      },
      {
        "midi": 54,
        "time": 17.307,
        "duration": 0.346,
        "velocity": 0.63,
        "hand": "left"
      },
      {
        "midi": 78,
        "time": 17.307,
        "duration": 1.269,
        "velocity": 0.63,
        "hand": "right"
      },
      {
        "midi": 57,
        "time": 17.538,
        "duration": 0.115,
        "velocity": 0.63,
        "hand": "left"
      },
      {
        "midi": 62,
        "time": 17.538,
        "duration": 0.115,
        "velocity": 0.63,
        "hand": "right"
      },
      {
        "midi": 69,
        "time": 17.538,
        "duration": 0.115,
        "velocity": 0.63,
        "hand": "right"
      },
      {
        "midi": 72,
        "time": 17.538,
        "duration": 0.115,
        "velocity": 0.63,
        "hand": "right"
      },
      {
        "midi": 50,
        "time": 17.769,
        "duration": 0.346,
        "velocity": 0.63,
        "hand": "left"
      },
      {
        "midi": 57,
        "time": 18,
        "duration": 0.115,
        "velocity": 0.63,
        "hand": "left"
      },
      {
        "midi": 62,
        "time": 18,
        "duration": 0.115,
        "velocity": 0.63,
        "hand": "right"
      },
      {
        "midi": 69,
        "time": 18,
        "duration": 0.115,
        "velocity": 0.63,
        "hand": "right"
      },
      {
        "midi": 72,
        "time": 18,
        "duration": 0.115,
        "velocity": 0.63,
        "hand": "right"
      },
      {
        "midi": 54,
        "time": 18.231,
        "duration": 0.346,
        "velocity": 0.63,
        "hand": "left"
      },
      {
        "midi": 57,
        "time": 18.461,
        "duration": 0.115,
        "velocity": 0.63,
        "hand": "left"
      },
      {
        "midi": 62,
        "time": 18.461,
        "duration": 0.115,
        "velocity": 0.63,
        "hand": "right"
      },
      {
        "midi": 74,
        "time": 18.461,
        "duration": 0.115,
        "velocity": 0.63,
        "hand": "right"
      },
      {
        "midi": 50,
        "time": 18.692,
        "duration": 0.346,
        "velocity": 0.63,
        "hand": "left"
      },
      {
        "midi": 74,
        "time": 18.692,
        "duration": 0.216,
        "velocity": 0.63,
        "hand": "right"
      },
      {
        "midi": 57,
        "time": 18.923,
        "duration": 0.115,
        "velocity": 0.63,
        "hand": "left"
      },
      {
        "midi": 62,
        "time": 18.923,
        "duration": 0.115,
        "velocity": 0.63,
        "hand": "right"
      },
      {
        "midi": 74,
        "time": 18.923,
        "duration": 0.115,
        "velocity": 0.63,
        "hand": "right"
      },
      {
        "midi": 54,
        "time": 19.154,
        "duration": 0.346,
        "velocity": 0.63,
        "hand": "left"
      },
      {
        "midi": 78,
        "time": 19.154,
        "duration": 1.269,
        "velocity": 0.63,
        "hand": "right"
      },
      {
        "midi": 57,
        "time": 19.384,
        "duration": 0.115,
        "velocity": 0.63,
        "hand": "left"
      },
      {
        "midi": 62,
        "time": 19.384,
        "duration": 0.115,
        "velocity": 0.63,
        "hand": "right"
      },
      {
        "midi": 69,
        "time": 19.384,
        "duration": 0.115,
        "velocity": 0.63,
        "hand": "right"
      },
      {
        "midi": 72,
        "time": 19.384,
        "duration": 0.115,
        "velocity": 0.63,
        "hand": "right"
      },
      {
        "midi": 50,
        "time": 19.615,
        "duration": 0.346,
        "velocity": 0.63,
        "hand": "left"
      },
      {
        "midi": 57,
        "time": 19.846,
        "duration": 0.115,
        "velocity": 0.63,
        "hand": "left"
      },
      {
        "midi": 62,
        "time": 19.846,
        "duration": 0.115,
        "velocity": 0.63,
        "hand": "right"
      },
      {
        "midi": 69,
        "time": 19.846,
        "duration": 0.115,
        "velocity": 0.63,
        "hand": "right"
      },
      {
        "midi": 72,
        "time": 19.846,
        "duration": 0.115,
        "velocity": 0.63,
        "hand": "right"
      },
      {
        "midi": 54,
        "time": 20.077,
        "duration": 0.346,
        "velocity": 0.63,
        "hand": "left"
      },
      {
        "midi": 57,
        "time": 20.307,
        "duration": 0.115,
        "velocity": 0.63,
        "hand": "left"
      },
      {
        "midi": 62,
        "time": 20.307,
        "duration": 0.115,
        "velocity": 0.63,
        "hand": "right"
      },
      {
        "midi": 76,
        "time": 20.307,
        "duration": 0.115,
        "velocity": 0.63,
        "hand": "right"
      },
      {
        "midi": 50,
        "time": 20.538,
        "duration": 0.346,
        "velocity": 0.63,
        "hand": "left"
      },
      {
        "midi": 74,
        "time": 20.538,
        "duration": 0.346,
        "velocity": 0.63,
        "hand": "right"
      },
      {
        "midi": 57,
        "time": 20.769,
        "duration": 0.115,
        "velocity": 0.63,
        "hand": "left"
      },
      {
        "midi": 62,
        "time": 20.769,
        "duration": 0.115,
        "velocity": 0.63,
        "hand": "right"
      },
      {
        "midi": 72,
        "time": 20.769,
        "duration": 0.115,
        "velocity": 0.63,
        "hand": "right"
      },
      {
        "midi": 55,
        "time": 21,
        "duration": 0.346,
        "velocity": 0.63,
        "hand": "left"
      },
      {
        "midi": 76,
        "time": 21,
        "duration": 1.269,
        "velocity": 0.63,
        "hand": "right"
      },
      {
        "midi": 59,
        "time": 21.231,
        "duration": 0.115,
        "velocity": 0.63,
        "hand": "left"
      },
      {
        "midi": 62,
        "time": 21.231,
        "duration": 0.115,
        "velocity": 0.63,
        "hand": "right"
      },
      {
        "midi": 67,
        "time": 21.231,
        "duration": 0.446,
        "velocity": 0.63,
        "hand": "right"
      },
      {
        "midi": 71,
        "time": 21.231,
        "duration": 0.446,
        "velocity": 0.63,
        "hand": "right"
      },
      {
        "midi": 50,
        "time": 21.461,
        "duration": 0.346,
        "velocity": 0.63,
        "hand": "left"
      },
      {
        "midi": 59,
        "time": 21.692,
        "duration": 0.115,
        "velocity": 0.63,
        "hand": "left"
      },
      {
        "midi": 62,
        "time": 21.692,
        "duration": 0.115,
        "velocity": 0.63,
        "hand": "right"
      },
      {
        "midi": 67,
        "time": 21.692,
        "duration": 6.677,
        "velocity": 0.63,
        "hand": "right"
      },
      {
        "midi": 71,
        "time": 21.692,
        "duration": 1.37,
        "velocity": 0.63,
        "hand": "right"
      },
      {
        "midi": 55,
        "time": 21.923,
        "duration": 0.346,
        "velocity": 0.63,
        "hand": "left"
      },
      {
        "midi": 59,
        "time": 22.154,
        "duration": 0.115,
        "velocity": 0.63,
        "hand": "left"
      },
      {
        "midi": 62,
        "time": 22.154,
        "duration": 0.115,
        "velocity": 0.63,
        "hand": "right"
      },
      {
        "midi": 74,
        "time": 22.154,
        "duration": 0.115,
        "velocity": 0.63,
        "hand": "right"
      },
      {
        "midi": 50,
        "time": 22.384,
        "duration": 0.346,
        "velocity": 0.63,
        "hand": "left"
      },
      {
        "midi": 74,
        "time": 22.384,
        "duration": 0.216,
        "velocity": 0.63,
        "hand": "right"
      },
      {
        "midi": 59,
        "time": 22.615,
        "duration": 0.115,
        "velocity": 0.63,
        "hand": "left"
      },
      {
        "midi": 62,
        "time": 22.615,
        "duration": 0.115,
        "velocity": 0.63,
        "hand": "right"
      },
      {
        "midi": 74,
        "time": 22.615,
        "duration": 0.115,
        "velocity": 0.63,
        "hand": "right"
      },
      {
        "midi": 55,
        "time": 22.846,
        "duration": 0.346,
        "velocity": 0.63,
        "hand": "left"
      },
      {
        "midi": 79,
        "time": 22.846,
        "duration": 1.269,
        "velocity": 0.63,
        "hand": "right"
      },
      {
        "midi": 59,
        "time": 23.077,
        "duration": 0.115,
        "velocity": 0.63,
        "hand": "left"
      },
      {
        "midi": 62,
        "time": 23.077,
        "duration": 0.115,
        "velocity": 0.63,
        "hand": "right"
      },
      {
        "midi": 71,
        "time": 23.077,
        "duration": 0.446,
        "velocity": 0.63,
        "hand": "right"
      },
      {
        "midi": 74,
        "time": 23.077,
        "duration": 0.115,
        "velocity": 0.63,
        "hand": "right"
      },
      {
        "midi": 50,
        "time": 23.307,
        "duration": 0.346,
        "velocity": 0.63,
        "hand": "left"
      },
      {
        "midi": 59,
        "time": 23.538,
        "duration": 0.115,
        "velocity": 0.63,
        "hand": "left"
      },
      {
        "midi": 62,
        "time": 23.538,
        "duration": 0.115,
        "velocity": 0.63,
        "hand": "right"
      },
      {
        "midi": 71,
        "time": 23.538,
        "duration": 4.831,
        "velocity": 0.63,
        "hand": "right"
      },
      {
        "midi": 74,
        "time": 23.538,
        "duration": 0.115,
        "velocity": 0.63,
        "hand": "right"
      },
      {
        "midi": 55,
        "time": 23.769,
        "duration": 0.346,
        "velocity": 0.63,
        "hand": "left"
      },
      {
        "midi": 59,
        "time": 24,
        "duration": 0.115,
        "velocity": 0.63,
        "hand": "left"
      },
      {
        "midi": 62,
        "time": 24,
        "duration": 0.115,
        "velocity": 0.63,
        "hand": "right"
      },
      {
        "midi": 78,
        "time": 24,
        "duration": 0.115,
        "velocity": 0.63,
        "hand": "right"
      },
      {
        "midi": 50,
        "time": 24.231,
        "duration": 0.346,
        "velocity": 0.63,
        "hand": "left"
      },
      {
        "midi": 76,
        "time": 24.231,
        "duration": 0.346,
        "velocity": 0.63,
        "hand": "right"
      },
      {
        "midi": 59,
        "time": 24.461,
        "duration": 0.115,
        "velocity": 0.63,
        "hand": "left"
      },
      {
        "midi": 62,
        "time": 24.461,
        "duration": 0.115,
        "velocity": 0.63,
        "hand": "right"
      },
      {
        "midi": 74,
        "time": 24.461,
        "duration": 0.115,
        "velocity": 0.63,
        "hand": "right"
      },
      {
        "midi": 54,
        "time": 24.692,
        "duration": 0.346,
        "velocity": 0.63,
        "hand": "left"
      },
      {
        "midi": 78,
        "time": 24.692,
        "duration": 1.269,
        "velocity": 0.63,
        "hand": "right"
      },
      {
        "midi": 57,
        "time": 24.923,
        "duration": 0.115,
        "velocity": 0.63,
        "hand": "left"
      },
      {
        "midi": 62,
        "time": 24.923,
        "duration": 0.115,
        "velocity": 0.63,
        "hand": "right"
      },
      {
        "midi": 69,
        "time": 24.923,
        "duration": 0.115,
        "velocity": 0.63,
        "hand": "right"
      },
      {
        "midi": 72,
        "time": 24.923,
        "duration": 0.115,
        "velocity": 0.63,
        "hand": "right"
      },
      {
        "midi": 50,
        "time": 25.154,
        "duration": 0.346,
        "velocity": 0.63,
        "hand": "left"
      },
      {
        "midi": 57,
        "time": 25.384,
        "duration": 0.115,
        "velocity": 0.63,
        "hand": "left"
      },
      {
        "midi": 62,
        "time": 25.384,
        "duration": 0.115,
        "velocity": 0.63,
        "hand": "right"
      },
      {
        "midi": 69,
        "time": 25.384,
        "duration": 0.115,
        "velocity": 0.63,
        "hand": "right"
      },
      {
        "midi": 72,
        "time": 25.384,
        "duration": 0.115,
        "velocity": 0.63,
        "hand": "right"
      },
      {
        "midi": 54,
        "time": 25.615,
        "duration": 0.346,
        "velocity": 0.63,
        "hand": "left"
      },
      {
        "midi": 57,
        "time": 25.846,
        "duration": 0.115,
        "velocity": 0.63,
        "hand": "left"
      },
      {
        "midi": 62,
        "time": 25.846,
        "duration": 0.115,
        "velocity": 0.63,
        "hand": "right"
      },
      {
        "midi": 74,
        "time": 25.846,
        "duration": 0.115,
        "velocity": 0.63,
        "hand": "right"
      },
      {
        "midi": 50,
        "time": 26.077,
        "duration": 0.346,
        "velocity": 0.63,
        "hand": "left"
      },
      {
        "midi": 74,
        "time": 26.077,
        "duration": 0.215,
        "velocity": 0.63,
        "hand": "right"
      },
      {
        "midi": 57,
        "time": 26.307,
        "duration": 0.115,
        "velocity": 0.63,
        "hand": "left"
      },
      {
        "midi": 62,
        "time": 26.307,
        "duration": 0.115,
        "velocity": 0.63,
        "hand": "right"
      },
      {
        "midi": 74,
        "time": 26.307,
        "duration": 0.115,
        "velocity": 0.63,
        "hand": "right"
      },
      {
        "midi": 54,
        "time": 26.538,
        "duration": 0.346,
        "velocity": 0.63,
        "hand": "left"
      },
      {
        "midi": 78,
        "time": 26.538,
        "duration": 1.269,
        "velocity": 0.63,
        "hand": "right"
      },
      {
        "midi": 57,
        "time": 26.769,
        "duration": 0.115,
        "velocity": 0.63,
        "hand": "left"
      },
      {
        "midi": 62,
        "time": 26.769,
        "duration": 0.115,
        "velocity": 0.63,
        "hand": "right"
      },
      {
        "midi": 69,
        "time": 26.769,
        "duration": 0.115,
        "velocity": 0.63,
        "hand": "right"
      },
      {
        "midi": 72,
        "time": 26.769,
        "duration": 0.115,
        "velocity": 0.63,
        "hand": "right"
      },
      {
        "midi": 50,
        "time": 27,
        "duration": 0.346,
        "velocity": 0.63,
        "hand": "left"
      },
      {
        "midi": 57,
        "time": 27.231,
        "duration": 0.115,
        "velocity": 0.63,
        "hand": "left"
      },
      {
        "midi": 62,
        "time": 27.231,
        "duration": 0.115,
        "velocity": 0.63,
        "hand": "right"
      },
      {
        "midi": 69,
        "time": 27.231,
        "duration": 0.115,
        "velocity": 0.63,
        "hand": "right"
      },
      {
        "midi": 72,
        "time": 27.231,
        "duration": 0.115,
        "velocity": 0.63,
        "hand": "right"
      },
      {
        "midi": 54,
        "time": 27.461,
        "duration": 0.346,
        "velocity": 0.63,
        "hand": "left"
      },
      {
        "midi": 57,
        "time": 27.692,
        "duration": 0.115,
        "velocity": 0.63,
        "hand": "left"
      },
      {
        "midi": 62,
        "time": 27.692,
        "duration": 0.115,
        "velocity": 0.63,
        "hand": "right"
      },
      {
        "midi": 76,
        "time": 27.692,
        "duration": 0.115,
        "velocity": 0.63,
        "hand": "right"
      },
      {
        "midi": 50,
        "time": 27.923,
        "duration": 0.346,
        "velocity": 0.63,
        "hand": "left"
      },
      {
        "midi": 74,
        "time": 27.923,
        "duration": 0.346,
        "velocity": 0.63,
        "hand": "right"
      },
      {
        "midi": 57,
        "time": 28.154,
        "duration": 0.115,
        "velocity": 0.63,
        "hand": "left"
      },
      {
        "midi": 62,
        "time": 28.154,
        "duration": 0.115,
        "velocity": 0.63,
        "hand": "right"
      },
      {
        "midi": 72,
        "time": 28.154,
        "duration": 0.115,
        "velocity": 0.63,
        "hand": "right"
      },
      {
        "midi": 43,
        "time": 28.384,
        "duration": 0.346,
        "velocity": 0.63,
        "hand": "left"
      },
      {
        "midi": 55,
        "time": 28.384,
        "duration": 0.346,
        "velocity": 0.63,
        "hand": "left"
      },
      {
        "midi": 67,
        "time": 28.384,
        "duration": 7.37,
        "velocity": 0.63,
        "hand": "right"
      },
      {
        "midi": 71,
        "time": 28.384,
        "duration": 1.832,
        "velocity": 0.63,
        "hand": "right"
      },
      {
        "midi": 52,
        "time": 28.615,
        "duration": 0.115,
        "velocity": 0.63,
        "hand": "left"
      },
      {
        "midi": 50,
        "time": 28.846,
        "duration": 0.346,
        "velocity": 0.63,
        "hand": "left"
      },
      {
        "midi": 47,
        "time": 29.077,
        "duration": 0.115,
        "velocity": 0.63,
        "hand": "left"
      },
      {
        "midi": 43,
        "time": 29.307,
        "duration": 0.346,
        "velocity": 0.63,
        "hand": "left"
      },
      {
        "midi": 47,
        "time": 29.538,
        "duration": 0.115,
        "velocity": 0.63,
        "hand": "left"
      },
      {
        "midi": 52,
        "time": 29.538,
        "duration": 0.115,
        "velocity": 0.63,
        "hand": "left"
      },
      {
        "midi": 74,
        "time": 29.538,
        "duration": 0.115,
        "velocity": 0.63,
        "hand": "right"
      },
      {
        "midi": 74,
        "time": 29.769,
        "duration": 0.216,
        "velocity": 0.63,
        "hand": "right"
      },
      {
        "midi": 74,
        "time": 30,
        "duration": 0.115,
        "velocity": 0.63,
        "hand": "right"
      },
      {
        "midi": 55,
        "time": 30.231,
        "duration": 0.346,
        "velocity": 0.63,
        "hand": "left"
      },
      {
        "midi": 71,
        "time": 30.231,
        "duration": 1.6,
        "velocity": 0.63,
        "hand": "right"
      },
      {
        "midi": 59,
        "time": 30.461,
        "duration": 0.115,
        "velocity": 0.63,
        "hand": "left"
      },
      {
        "midi": 62,
        "time": 30.461,
        "duration": 0.115,
        "velocity": 0.63,
        "hand": "right"
      },
      {
        "midi": 74,
        "time": 30.461,
        "duration": 0.115,
        "velocity": 0.63,
        "hand": "right"
      },
      {
        "midi": 50,
        "time": 30.692,
        "duration": 0.346,
        "velocity": 0.63,
        "hand": "left"
      },
      {
        "midi": 74,
        "time": 30.692,
        "duration": 0.216,
        "velocity": 0.63,
        "hand": "right"
      },
      {
        "midi": 59,
        "time": 30.923,
        "duration": 0.115,
        "velocity": 0.63,
        "hand": "left"
      },
      {
        "midi": 62,
        "time": 30.923,
        "duration": 0.115,
        "velocity": 0.63,
        "hand": "right"
      },
      {
        "midi": 74,
        "time": 30.923,
        "duration": 0.115,
        "velocity": 0.63,
        "hand": "right"
      },
      {
        "midi": 55,
        "time": 31.154,
        "duration": 0.346,
        "velocity": 0.63,
        "hand": "left"
      },
      {
        "midi": 76,
        "time": 31.154,
        "duration": 0.346,
        "velocity": 0.63,
        "hand": "right"
      },
      {
        "midi": 59,
        "time": 31.384,
        "duration": 0.115,
        "velocity": 0.63,
        "hand": "left"
      },
      {
        "midi": 62,
        "time": 31.384,
        "duration": 0.115,
        "velocity": 0.63,
        "hand": "right"
      },
      {
        "midi": 74,
        "time": 31.384,
        "duration": 0.115,
        "velocity": 0.63,
        "hand": "right"
      },
      {
        "midi": 50,
        "time": 31.615,
        "duration": 0.346,
        "velocity": 0.63,
        "hand": "left"
      },
      {
        "midi": 72,
        "time": 31.615,
        "duration": 0.346,
        "velocity": 0.63,
        "hand": "right"
      },
      {
        "midi": 59,
        "time": 31.846,
        "duration": 0.115,
        "velocity": 0.63,
        "hand": "left"
      },
      {
        "midi": 62,
        "time": 31.846,
        "duration": 0.115,
        "velocity": 0.63,
        "hand": "right"
      },
      {
        "midi": 71,
        "time": 31.846,
        "duration": 1.831,
        "velocity": 0.63,
        "hand": "right"
      },
      {
        "midi": 54,
        "time": 32.077,
        "duration": 0.346,
        "velocity": 0.63,
        "hand": "left"
      },
      {
        "midi": 74,
        "time": 32.077,
        "duration": 0.692,
        "velocity": 0.63,
        "hand": "right"
      },
      {
        "midi": 57,
        "time": 32.307,
        "duration": 0.115,
        "velocity": 0.63,
        "hand": "left"
      },
      {
        "midi": 62,
        "time": 32.307,
        "duration": 0.115,
        "velocity": 0.63,
        "hand": "right"
      },
      {
        "midi": 50,
        "time": 32.538,
        "duration": 0.346,
        "velocity": 0.63,
        "hand": "left"
      },
      {
        "midi": 69,
        "time": 32.538,
        "duration": 0.678,
        "velocity": 0.63,
        "hand": "right"
      },
      {
        "midi": 57,
        "time": 32.769,
        "duration": 0.115,
        "velocity": 0.63,
        "hand": "left"
      },
      {
        "midi": 62,
        "time": 32.769,
        "duration": 0.115,
        "velocity": 0.63,
        "hand": "right"
      },
      {
        "midi": 54,
        "time": 33,
        "duration": 0.346,
        "velocity": 0.63,
        "hand": "left"
      },
      {
        "midi": 57,
        "time": 33.231,
        "duration": 0.115,
        "velocity": 0.63,
        "hand": "left"
      },
      {
        "midi": 62,
        "time": 33.231,
        "duration": 0.115,
        "velocity": 0.63,
        "hand": "right"
      },
      {
        "midi": 69,
        "time": 33.231,
        "duration": 0.115,
        "velocity": 0.63,
        "hand": "right"
      },
      {
        "midi": 50,
        "time": 33.461,
        "duration": 0.346,
        "velocity": 0.63,
        "hand": "left"
      },
      {
        "midi": 69,
        "time": 33.461,
        "duration": 0.346,
        "velocity": 0.63,
        "hand": "right"
      },
      {
        "midi": 57,
        "time": 33.692,
        "duration": 0.115,
        "velocity": 0.63,
        "hand": "left"
      },
      {
        "midi": 62,
        "time": 33.692,
        "duration": 0.115,
        "velocity": 0.63,
        "hand": "right"
      },
      {
        "midi": 71,
        "time": 33.692,
        "duration": 0.447,
        "velocity": 0.63,
        "hand": "right"
      },
      {
        "midi": 54,
        "time": 33.923,
        "duration": 0.346,
        "velocity": 0.63,
        "hand": "left"
      },
      {
        "midi": 72,
        "time": 33.923,
        "duration": 0.346,
        "velocity": 0.63,
        "hand": "right"
      },
      {
        "midi": 57,
        "time": 34.154,
        "duration": 0.115,
        "velocity": 0.63,
        "hand": "left"
      },
      {
        "midi": 62,
        "time": 34.154,
        "duration": 0.115,
        "velocity": 0.63,
        "hand": "right"
      },
      {
        "midi": 71,
        "time": 34.154,
        "duration": 0.446,
        "velocity": 0.63,
        "hand": "right"
      },
      {
        "midi": 50,
        "time": 34.384,
        "duration": 0.346,
        "velocity": 0.63,
        "hand": "left"
      },
      {
        "midi": 69,
        "time": 34.384,
        "duration": 0.346,
        "velocity": 0.63,
        "hand": "right"
      },
      {
        "midi": 57,
        "time": 34.615,
        "duration": 0.115,
        "velocity": 0.63,
        "hand": "left"
      },
      {
        "midi": 62,
        "time": 34.615,
        "duration": 0.115,
        "velocity": 0.63,
        "hand": "right"
      },
      {
        "midi": 71,
        "time": 34.615,
        "duration": 0.447,
        "velocity": 0.63,
        "hand": "right"
      },
      {
        "midi": 54,
        "time": 34.846,
        "duration": 0.346,
        "velocity": 0.63,
        "hand": "left"
      },
      {
        "midi": 72,
        "time": 34.846,
        "duration": 0.346,
        "velocity": 0.63,
        "hand": "right"
      },
      {
        "midi": 57,
        "time": 35.077,
        "duration": 0.115,
        "velocity": 0.63,
        "hand": "left"
      },
      {
        "midi": 62,
        "time": 35.077,
        "duration": 0.115,
        "velocity": 0.63,
        "hand": "right"
      },
      {
        "midi": 71,
        "time": 35.077,
        "duration": 0.677,
        "velocity": 0.63,
        "hand": "right"
      },
      {
        "midi": 50,
        "time": 35.307,
        "duration": 0.346,
        "velocity": 0.63,
        "hand": "left"
      },
      {
        "midi": 72,
        "time": 35.307,
        "duration": 0.346,
        "velocity": 0.63,
        "hand": "right"
      },
      {
        "midi": 57,
        "time": 35.538,
        "duration": 0.115,
        "velocity": 0.63,
        "hand": "left"
      },
      {
        "midi": 62,
        "time": 35.538,
        "duration": 0.115,
        "velocity": 0.63,
        "hand": "right"
      },
      {
        "midi": 74,
        "time": 35.538,
        "duration": 0.115,
        "velocity": 0.63,
        "hand": "right"
      },
      {
        "midi": 55,
        "time": 35.769,
        "duration": 0.346,
        "velocity": 0.63,
        "hand": "left"
      },
      {
        "midi": 67,
        "time": 35.769,
        "duration": 7.37,
        "velocity": 0.63,
        "hand": "right"
      },
      {
        "midi": 71,
        "time": 35.769,
        "duration": 1.831,
        "velocity": 0.63,
        "hand": "right"
      },
      {
        "midi": 59,
        "time": 36,
        "duration": 0.115,
        "velocity": 0.63,
        "hand": "left"
      },
      {
        "midi": 62,
        "time": 36,
        "duration": 0.115,
        "velocity": 0.63,
        "hand": "right"
      },
      {
        "midi": 50,
        "time": 36.231,
        "duration": 0.346,
        "velocity": 0.63,
        "hand": "left"
      },
      {
        "midi": 59,
        "time": 36.461,
        "duration": 0.115,
        "velocity": 0.63,
        "hand": "left"
      },
      {
        "midi": 62,
        "time": 36.461,
        "duration": 0.115,
        "velocity": 0.63,
        "hand": "right"
      },
      {
        "midi": 55,
        "time": 36.692,
        "duration": 0.346,
        "velocity": 0.63,
        "hand": "left"
      },
      {
        "midi": 59,
        "time": 36.923,
        "duration": 0.115,
        "velocity": 0.63,
        "hand": "left"
      },
      {
        "midi": 62,
        "time": 36.923,
        "duration": 0.115,
        "velocity": 0.63,
        "hand": "right"
      },
      {
        "midi": 74,
        "time": 36.923,
        "duration": 0.115,
        "velocity": 0.63,
        "hand": "right"
      },
      {
        "midi": 50,
        "time": 37.154,
        "duration": 0.346,
        "velocity": 0.63,
        "hand": "left"
      },
      {
        "midi": 74,
        "time": 37.154,
        "duration": 0.215,
        "velocity": 0.63,
        "hand": "right"
      },
      {
        "midi": 59,
        "time": 37.384,
        "duration": 0.115,
        "velocity": 0.63,
        "hand": "left"
      },
      {
        "midi": 62,
        "time": 37.384,
        "duration": 0.115,
        "velocity": 0.63,
        "hand": "right"
      },
      {
        "midi": 74,
        "time": 37.384,
        "duration": 0.115,
        "velocity": 0.63,
        "hand": "right"
      },
      {
        "midi": 55,
        "time": 37.615,
        "duration": 0.346,
        "velocity": 0.63,
        "hand": "left"
      },
      {
        "midi": 71,
        "time": 37.615,
        "duration": 1.601,
        "velocity": 0.63,
        "hand": "right"
      },
      {
        "midi": 59,
        "time": 37.846,
        "duration": 0.115,
        "velocity": 0.63,
        "hand": "left"
      },
      {
        "midi": 62,
        "time": 37.846,
        "duration": 0.115,
        "velocity": 0.63,
        "hand": "right"
      },
      {
        "midi": 74,
        "time": 37.846,
        "duration": 0.115,
        "velocity": 0.63,
        "hand": "right"
      },
      {
        "midi": 50,
        "time": 38.077,
        "duration": 0.346,
        "velocity": 0.63,
        "hand": "left"
      },
      {
        "midi": 74,
        "time": 38.077,
        "duration": 0.215,
        "velocity": 0.63,
        "hand": "right"
      },
      {
        "midi": 59,
        "time": 38.307,
        "duration": 0.115,
        "velocity": 0.63,
        "hand": "left"
      },
      {
        "midi": 62,
        "time": 38.307,
        "duration": 0.115,
        "velocity": 0.63,
        "hand": "right"
      },
      {
        "midi": 74,
        "time": 38.307,
        "duration": 0.115,
        "velocity": 0.63,
        "hand": "right"
      },
      {
        "midi": 55,
        "time": 38.538,
        "duration": 0.346,
        "velocity": 0.63,
        "hand": "left"
      },
      {
        "midi": 76,
        "time": 38.538,
        "duration": 0.346,
        "velocity": 0.63,
        "hand": "right"
      },
      {
        "midi": 59,
        "time": 38.769,
        "duration": 0.115,
        "velocity": 0.63,
        "hand": "left"
      },
      {
        "midi": 62,
        "time": 38.769,
        "duration": 0.115,
        "velocity": 0.63,
        "hand": "right"
      },
      {
        "midi": 74,
        "time": 38.769,
        "duration": 0.115,
        "velocity": 0.63,
        "hand": "right"
      },
      {
        "midi": 50,
        "time": 39,
        "duration": 0.346,
        "velocity": 0.63,
        "hand": "left"
      },
      {
        "midi": 72,
        "time": 39,
        "duration": 0.346,
        "velocity": 0.63,
        "hand": "right"
      },
      {
        "midi": 59,
        "time": 39.231,
        "duration": 0.115,
        "velocity": 0.63,
        "hand": "left"
      },
      {
        "midi": 62,
        "time": 39.231,
        "duration": 0.115,
        "velocity": 0.63,
        "hand": "right"
      },
      {
        "midi": 71,
        "time": 39.231,
        "duration": 1.831,
        "velocity": 0.63,
        "hand": "right"
      },
      {
        "midi": 54,
        "time": 39.461,
        "duration": 0.346,
        "velocity": 0.63,
        "hand": "left"
      },
      {
        "midi": 74,
        "time": 39.461,
        "duration": 0.692,
        "velocity": 0.63,
        "hand": "right"
      },
      {
        "midi": 57,
        "time": 39.692,
        "duration": 0.115,
        "velocity": 0.63,
        "hand": "left"
      },
      {
        "midi": 62,
        "time": 39.692,
        "duration": 0.115,
        "velocity": 0.63,
        "hand": "right"
      },
      {
        "midi": 50,
        "time": 39.923,
        "duration": 0.346,
        "velocity": 0.63,
        "hand": "left"
      },
      {
        "midi": 69,
        "time": 39.923,
        "duration": 0.677,
        "velocity": 0.63,
        "hand": "right"
      },
      {
        "midi": 57,
        "time": 40.154,
        "duration": 0.115,
        "velocity": 0.63,
        "hand": "left"
      },
      {
        "midi": 62,
        "time": 40.154,
        "duration": 0.115,
        "velocity": 0.63,
        "hand": "right"
      },
      {
        "midi": 54,
        "time": 40.384,
        "duration": 0.346,
        "velocity": 0.63,
        "hand": "left"
      },
      {
        "midi": 57,
        "time": 40.615,
        "duration": 0.115,
        "velocity": 0.63,
        "hand": "left"
      },
      {
        "midi": 62,
        "time": 40.615,
        "duration": 0.115,
        "velocity": 0.63,
        "hand": "right"
      },
      {
        "midi": 69,
        "time": 40.615,
        "duration": 0.115,
        "velocity": 0.63,
        "hand": "right"
      },
      {
        "midi": 50,
        "time": 40.846,
        "duration": 0.346,
        "velocity": 0.63,
        "hand": "left"
      },
      {
        "midi": 69,
        "time": 40.846,
        "duration": 0.346,
        "velocity": 0.63,
        "hand": "right"
      },
      {
        "midi": 57,
        "time": 41.077,
        "duration": 0.115,
        "velocity": 0.63,
        "hand": "left"
      },
      {
        "midi": 62,
        "time": 41.077,
        "duration": 0.115,
        "velocity": 0.63,
        "hand": "right"
      },
      {
        "midi": 71,
        "time": 41.077,
        "duration": 0.446,
        "velocity": 0.63,
        "hand": "right"
      },
      {
        "midi": 54,
        "time": 41.307,
        "duration": 0.346,
        "velocity": 0.63,
        "hand": "left"
      },
      {
        "midi": 72,
        "time": 41.307,
        "duration": 0.346,
        "velocity": 0.63,
        "hand": "right"
      },
      {
        "midi": 57,
        "time": 41.538,
        "duration": 0.115,
        "velocity": 0.63,
        "hand": "left"
      },
      {
        "midi": 62,
        "time": 41.538,
        "duration": 0.115,
        "velocity": 0.63,
        "hand": "right"
      },
      {
        "midi": 71,
        "time": 41.538,
        "duration": 0.447,
        "velocity": 0.63,
        "hand": "right"
      },
      {
        "midi": 50,
        "time": 41.769,
        "duration": 0.346,
        "velocity": 0.63,
        "hand": "left"
      },
      {
        "midi": 69,
        "time": 41.769,
        "duration": 0.346,
        "velocity": 0.63,
        "hand": "right"
      },
      {
        "midi": 57,
        "time": 42,
        "duration": 0.115,
        "velocity": 0.63,
        "hand": "left"
      },
      {
        "midi": 62,
        "time": 42,
        "duration": 0.115,
        "velocity": 0.63,
        "hand": "right"
      },
      {
        "midi": 71,
        "time": 42,
        "duration": 0.446,
        "velocity": 0.63,
        "hand": "right"
      },
      {
        "midi": 54,
        "time": 42.231,
        "duration": 0.346,
        "velocity": 0.63,
        "hand": "left"
      },
      {
        "midi": 72,
        "time": 42.231,
        "duration": 0.346,
        "velocity": 0.63,
        "hand": "right"
      },
      {
        "midi": 57,
        "time": 42.461,
        "duration": 0.115,
        "velocity": 0.63,
        "hand": "left"
      },
      {
        "midi": 62,
        "time": 42.461,
        "duration": 0.115,
        "velocity": 0.63,
        "hand": "right"
      },
      {
        "midi": 71,
        "time": 42.461,
        "duration": 0.678,
        "velocity": 0.63,
        "hand": "right"
      },
      {
        "midi": 50,
        "time": 42.692,
        "duration": 0.346,
        "velocity": 0.63,
        "hand": "left"
      },
      {
        "midi": 72,
        "time": 42.692,
        "duration": 0.346,
        "velocity": 0.63,
        "hand": "right"
      },
      {
        "midi": 57,
        "time": 42.923,
        "duration": 0.115,
        "velocity": 0.63,
        "hand": "left"
      },
      {
        "midi": 62,
        "time": 42.923,
        "duration": 0.115,
        "velocity": 0.63,
        "hand": "right"
      },
      {
        "midi": 74,
        "time": 42.923,
        "duration": 0.115,
        "velocity": 0.63,
        "hand": "right"
      },
      {
        "midi": 55,
        "time": 43.154,
        "duration": 0.346,
        "velocity": 0.63,
        "hand": "left"
      },
      {
        "midi": 67,
        "time": 43.154,
        "duration": 0.908,
        "velocity": 0.63,
        "hand": "right"
      },
      {
        "midi": 71,
        "time": 43.154,
        "duration": 0.908,
        "velocity": 0.63,
        "hand": "right"
      },
      {
        "midi": 59,
        "time": 43.384,
        "duration": 0.115,
        "velocity": 0.63,
        "hand": "left"
      },
      {
        "midi": 62,
        "time": 43.384,
        "duration": 0.115,
        "velocity": 0.63,
        "hand": "right"
      },
      {
        "midi": 50,
        "time": 43.615,
        "duration": 0.346,
        "velocity": 0.63,
        "hand": "left"
      },
      {
        "midi": 59,
        "time": 43.846,
        "duration": 0.115,
        "velocity": 0.63,
        "hand": "left"
      },
      {
        "midi": 62,
        "time": 43.846,
        "duration": 0.115,
        "velocity": 0.63,
        "hand": "right"
      },
      {
        "midi": 43,
        "time": 44.077,
        "duration": 0.692,
        "velocity": 0.63,
        "hand": "left"
      },
      {
        "midi": 55,
        "time": 44.077,
        "duration": 0.692,
        "velocity": 0.63,
        "hand": "left"
      },
      {
        "midi": 67,
        "time": 44.077,
        "duration": 6.792,
        "velocity": 0.63,
        "hand": "right"
      },
      {
        "midi": 71,
        "time": 44.077,
        "duration": 1.139,
        "velocity": 0.63,
        "hand": "right"
      },
      {
        "midi": 74,
        "time": 44.307,
        "duration": 0.115,
        "velocity": 0.63,
        "hand": "right"
      },
      {
        "midi": 74,
        "time": 44.538,
        "duration": 0.216,
        "velocity": 0.63,
        "hand": "right"
      },
      {
        "midi": 74,
        "time": 44.769,
        "duration": 0.115,
        "velocity": 0.63,
        "hand": "right"
      },
      {
        "midi": 55,
        "time": 45,
        "duration": 0.346,
        "velocity": 0.63,
        "hand": "left"
      },
      {
        "midi": 79,
        "time": 45,
        "duration": 1.269,
        "velocity": 0.63,
        "hand": "right"
      },
      {
        "midi": 59,
        "time": 45.231,
        "duration": 0.115,
        "velocity": 0.63,
        "hand": "left"
      },
      {
        "midi": 62,
        "time": 45.231,
        "duration": 0.115,
        "velocity": 0.63,
        "hand": "right"
      },
      {
        "midi": 71,
        "time": 45.231,
        "duration": 0.446,
        "velocity": 0.63,
        "hand": "right"
      },
      {
        "midi": 74,
        "time": 45.231,
        "duration": 0.115,
        "velocity": 0.63,
        "hand": "right"
      },
      {
        "midi": 50,
        "time": 45.461,
        "duration": 0.346,
        "velocity": 0.63,
        "hand": "left"
      },
      {
        "midi": 59,
        "time": 45.692,
        "duration": 0.115,
        "velocity": 0.63,
        "hand": "left"
      },
      {
        "midi": 62,
        "time": 45.692,
        "duration": 0.115,
        "velocity": 0.63,
        "hand": "right"
      },
      {
        "midi": 71,
        "time": 45.692,
        "duration": 5.177,
        "velocity": 0.63,
        "hand": "right"
      },
      {
        "midi": 74,
        "time": 45.692,
        "duration": 0.115,
        "velocity": 0.63,
        "hand": "right"
      },
      {
        "midi": 55,
        "time": 45.923,
        "duration": 0.346,
        "velocity": 0.63,
        "hand": "left"
      },
      {
        "midi": 59,
        "time": 46.154,
        "duration": 0.115,
        "velocity": 0.63,
        "hand": "left"
      },
      {
        "midi": 62,
        "time": 46.154,
        "duration": 0.115,
        "velocity": 0.63,
        "hand": "right"
      },
      {
        "midi": 78,
        "time": 46.154,
        "duration": 0.115,
        "velocity": 0.63,
        "hand": "right"
      },
      {
        "midi": 50,
        "time": 46.384,
        "duration": 0.346,
        "velocity": 0.63,
        "hand": "left"
      },
      {
        "midi": 76,
        "time": 46.384,
        "duration": 0.346,
        "velocity": 0.63,
        "hand": "right"
      },
      {
        "midi": 59,
        "time": 46.615,
        "duration": 0.115,
        "velocity": 0.63,
        "hand": "left"
      },
      {
        "midi": 62,
        "time": 46.615,
        "duration": 0.115,
        "velocity": 0.63,
        "hand": "right"
      },
      {
        "midi": 74,
        "time": 46.615,
        "duration": 0.115,
        "velocity": 0.63,
        "hand": "right"
      },
      {
        "midi": 54,
        "time": 46.846,
        "duration": 0.346,
        "velocity": 0.63,
        "hand": "left"
      },
      {
        "midi": 78,
        "time": 46.846,
        "duration": 1.269,
        "velocity": 0.63,
        "hand": "right"
      },
      {
        "midi": 57,
        "time": 47.077,
        "duration": 0.115,
        "velocity": 0.63,
        "hand": "left"
      },
      {
        "midi": 62,
        "time": 47.077,
        "duration": 0.115,
        "velocity": 0.63,
        "hand": "right"
      },
      {
        "midi": 69,
        "time": 47.077,
        "duration": 0.115,
        "velocity": 0.63,
        "hand": "right"
      },
      {
        "midi": 72,
        "time": 47.077,
        "duration": 0.115,
        "velocity": 0.63,
        "hand": "right"
      },
      {
        "midi": 50,
        "time": 47.307,
        "duration": 0.346,
        "velocity": 0.63,
        "hand": "left"
      },
      {
        "midi": 57,
        "time": 47.538,
        "duration": 0.115,
        "velocity": 0.63,
        "hand": "left"
      },
      {
        "midi": 62,
        "time": 47.538,
        "duration": 0.115,
        "velocity": 0.63,
        "hand": "right"
      },
      {
        "midi": 69,
        "time": 47.538,
        "duration": 0.115,
        "velocity": 0.63,
        "hand": "right"
      },
      {
        "midi": 72,
        "time": 47.538,
        "duration": 0.115,
        "velocity": 0.63,
        "hand": "right"
      },
      {
        "midi": 54,
        "time": 47.769,
        "duration": 0.346,
        "velocity": 0.63,
        "hand": "left"
      },
      {
        "midi": 57,
        "time": 48,
        "duration": 0.115,
        "velocity": 0.63,
        "hand": "left"
      },
      {
        "midi": 62,
        "time": 48,
        "duration": 0.115,
        "velocity": 0.63,
        "hand": "right"
      },
      {
        "midi": 74,
        "time": 48,
        "duration": 0.115,
        "velocity": 0.63,
        "hand": "right"
      },
      {
        "midi": 50,
        "time": 48.346,
        "duration": 0.346,
        "velocity": 0.63,
        "hand": "left"
      },
      {
        "midi": 74,
        "time": 48.346,
        "duration": 0.216,
        "velocity": 0.63,
        "hand": "right"
      },
      {
        "midi": 57,
        "time": 48.577,
        "duration": 0.115,
        "velocity": 0.63,
        "hand": "left"
      },
      {
        "midi": 62,
        "time": 48.577,
        "duration": 0.115,
        "velocity": 0.63,
        "hand": "right"
      },
      {
        "midi": 74,
        "time": 48.577,
        "duration": 0.115,
        "velocity": 0.63,
        "hand": "right"
      },
      {
        "midi": 54,
        "time": 48.807,
        "duration": 0.346,
        "velocity": 0.63,
        "hand": "left"
      },
      {
        "midi": 78,
        "time": 48.807,
        "duration": 1.269,
        "velocity": 0.63,
        "hand": "right"
      },
      {
        "midi": 57,
        "time": 49.038,
        "duration": 0.115,
        "velocity": 0.63,
        "hand": "left"
      },
      {
        "midi": 62,
        "time": 49.038,
        "duration": 0.115,
        "velocity": 0.63,
        "hand": "right"
      },
      {
        "midi": 69,
        "time": 49.038,
        "duration": 0.115,
        "velocity": 0.63,
        "hand": "right"
      },
      {
        "midi": 72,
        "time": 49.038,
        "duration": 0.115,
        "velocity": 0.63,
        "hand": "right"
      },
      {
        "midi": 50,
        "time": 49.269,
        "duration": 0.346,
        "velocity": 0.63,
        "hand": "left"
      },
      {
        "midi": 57,
        "time": 49.5,
        "duration": 0.115,
        "velocity": 0.63,
        "hand": "left"
      },
      {
        "midi": 62,
        "time": 49.5,
        "duration": 0.115,
        "velocity": 0.63,
        "hand": "right"
      },
      {
        "midi": 69,
        "time": 49.5,
        "duration": 0.115,
        "velocity": 0.63,
        "hand": "right"
      },
      {
        "midi": 72,
        "time": 49.5,
        "duration": 0.115,
        "velocity": 0.63,
        "hand": "right"
      },
      {
        "midi": 54,
        "time": 49.731,
        "duration": 0.346,
        "velocity": 0.63,
        "hand": "left"
      },
      {
        "midi": 57,
        "time": 49.961,
        "duration": 0.115,
        "velocity": 0.63,
        "hand": "left"
      },
      {
        "midi": 62,
        "time": 49.961,
        "duration": 0.115,
        "velocity": 0.63,
        "hand": "right"
      },
      {
        "midi": 76,
        "time": 49.961,
        "duration": 0.115,
        "velocity": 0.63,
        "hand": "right"
      },
      {
        "midi": 50,
        "time": 50.192,
        "duration": 0.346,
        "velocity": 0.63,
        "hand": "left"
      },
      {
        "midi": 74,
        "time": 50.192,
        "duration": 0.346,
        "velocity": 0.63,
        "hand": "right"
      },
      {
        "midi": 57,
        "time": 50.423,
        "duration": 0.115,
        "velocity": 0.63,
        "hand": "left"
      },
      {
        "midi": 62,
        "time": 50.423,
        "duration": 0.115,
        "velocity": 0.63,
        "hand": "right"
      },
      {
        "midi": 72,
        "time": 50.423,
        "duration": 0.115,
        "velocity": 0.63,
        "hand": "right"
      },
      {
        "midi": 55,
        "time": 50.654,
        "duration": 0.346,
        "velocity": 0.63,
        "hand": "left"
      },
      {
        "midi": 76,
        "time": 50.654,
        "duration": 1.269,
        "velocity": 0.63,
        "hand": "right"
      },
      {
        "midi": 59,
        "time": 50.884,
        "duration": 0.115,
        "velocity": 0.63,
        "hand": "left"
      },
      {
        "midi": 62,
        "time": 50.884,
        "duration": 0.115,
        "velocity": 0.63,
        "hand": "right"
      },
      {
        "midi": 67,
        "time": 50.884,
        "duration": 0.447,
        "velocity": 0.63,
        "hand": "right"
      },
      {
        "midi": 71,
        "time": 50.884,
        "duration": 0.447,
        "velocity": 0.63,
        "hand": "right"
      },
      {
        "midi": 50,
        "time": 51.115,
        "duration": 0.346,
        "velocity": 0.63,
        "hand": "left"
      },
      {
        "midi": 59,
        "time": 51.346,
        "duration": 0.115,
        "velocity": 0.63,
        "hand": "left"
      },
      {
        "midi": 62,
        "time": 51.346,
        "duration": 0.115,
        "velocity": 0.63,
        "hand": "right"
      },
      {
        "midi": 67,
        "time": 51.346,
        "duration": 6.677,
        "velocity": 0.63,
        "hand": "right"
      },
      {
        "midi": 71,
        "time": 51.346,
        "duration": 1.37,
        "velocity": 0.63,
        "hand": "right"
      },
      {
        "midi": 55,
        "time": 51.577,
        "duration": 0.346,
        "velocity": 0.63,
        "hand": "left"
      },
      {
        "midi": 59,
        "time": 51.807,
        "duration": 0.115,
        "velocity": 0.63,
        "hand": "left"
      },
      {
        "midi": 62,
        "time": 51.807,
        "duration": 0.115,
        "velocity": 0.63,
        "hand": "right"
      },
      {
        "midi": 74,
        "time": 51.807,
        "duration": 0.115,
        "velocity": 0.63,
        "hand": "right"
      },
      {
        "midi": 50,
        "time": 52.038,
        "duration": 0.346,
        "velocity": 0.63,
        "hand": "left"
      },
      {
        "midi": 74,
        "time": 52.038,
        "duration": 0.216,
        "velocity": 0.63,
        "hand": "right"
      },
      {
        "midi": 59,
        "time": 52.269,
        "duration": 0.115,
        "velocity": 0.63,
        "hand": "left"
      },
      {
        "midi": 62,
        "time": 52.269,
        "duration": 0.115,
        "velocity": 0.63,
        "hand": "right"
      },
      {
        "midi": 74,
        "time": 52.269,
        "duration": 0.115,
        "velocity": 0.63,
        "hand": "right"
      },
      {
        "midi": 55,
        "time": 52.5,
        "duration": 0.346,
        "velocity": 0.63,
        "hand": "left"
      },
      {
        "midi": 79,
        "time": 52.5,
        "duration": 1.269,
        "velocity": 0.63,
        "hand": "right"
      },
      {
        "midi": 59,
        "time": 52.731,
        "duration": 0.115,
        "velocity": 0.63,
        "hand": "left"
      },
      {
        "midi": 62,
        "time": 52.731,
        "duration": 0.115,
        "velocity": 0.63,
        "hand": "right"
      },
      {
        "midi": 71,
        "time": 52.731,
        "duration": 0.446,
        "velocity": 0.63,
        "hand": "right"
      },
      {
        "midi": 74,
        "time": 52.731,
        "duration": 0.115,
        "velocity": 0.63,
        "hand": "right"
      },
      {
        "midi": 50,
        "time": 52.961,
        "duration": 0.346,
        "velocity": 0.63,
        "hand": "left"
      },
      {
        "midi": 59,
        "time": 53.192,
        "duration": 0.115,
        "velocity": 0.63,
        "hand": "left"
      },
      {
        "midi": 62,
        "time": 53.192,
        "duration": 0.115,
        "velocity": 0.63,
        "hand": "right"
      },
      {
        "midi": 71,
        "time": 53.192,
        "duration": 4.831,
        "velocity": 0.63,
        "hand": "right"
      },
      {
        "midi": 74,
        "time": 53.192,
        "duration": 0.115,
        "velocity": 0.63,
        "hand": "right"
      },
      {
        "midi": 55,
        "time": 53.423,
        "duration": 0.346,
        "velocity": 0.63,
        "hand": "left"
      },
      {
        "midi": 59,
        "time": 53.654,
        "duration": 0.115,
        "velocity": 0.63,
        "hand": "left"
      },
      {
        "midi": 62,
        "time": 53.654,
        "duration": 0.115,
        "velocity": 0.63,
        "hand": "right"
      },
      {
        "midi": 78,
        "time": 53.654,
        "duration": 0.115,
        "velocity": 0.63,
        "hand": "right"
      },
      {
        "midi": 50,
        "time": 53.884,
        "duration": 0.346,
        "velocity": 0.63,
        "hand": "left"
      },
      {
        "midi": 76,
        "time": 53.884,
        "duration": 0.346,
        "velocity": 0.63,
        "hand": "right"
      },
      {
        "midi": 59,
        "time": 54.115,
        "duration": 0.115,
        "velocity": 0.63,
        "hand": "left"
      },
      {
        "midi": 62,
        "time": 54.115,
        "duration": 0.115,
        "velocity": 0.63,
        "hand": "right"
      },
      {
        "midi": 74,
        "time": 54.115,
        "duration": 0.115,
        "velocity": 0.63,
        "hand": "right"
      },
      {
        "midi": 54,
        "time": 54.346,
        "duration": 0.346,
        "velocity": 0.63,
        "hand": "left"
      },
      {
        "midi": 78,
        "time": 54.346,
        "duration": 1.269,
        "velocity": 0.63,
        "hand": "right"
      },
      {
        "midi": 57,
        "time": 54.577,
        "duration": 0.115,
        "velocity": 0.63,
        "hand": "left"
      },
      {
        "midi": 62,
        "time": 54.577,
        "duration": 0.115,
        "velocity": 0.63,
        "hand": "right"
      },
      {
        "midi": 69,
        "time": 54.577,
        "duration": 0.115,
        "velocity": 0.63,
        "hand": "right"
      },
      {
        "midi": 72,
        "time": 54.577,
        "duration": 0.115,
        "velocity": 0.63,
        "hand": "right"
      },
      {
        "midi": 50,
        "time": 54.807,
        "duration": 0.346,
        "velocity": 0.63,
        "hand": "left"
      },
      {
        "midi": 57,
        "time": 55.038,
        "duration": 0.115,
        "velocity": 0.63,
        "hand": "left"
      },
      {
        "midi": 62,
        "time": 55.038,
        "duration": 0.115,
        "velocity": 0.63,
        "hand": "right"
      },
      {
        "midi": 69,
        "time": 55.038,
        "duration": 0.115,
        "velocity": 0.63,
        "hand": "right"
      },
      {
        "midi": 72,
        "time": 55.038,
        "duration": 0.115,
        "velocity": 0.63,
        "hand": "right"
      },
      {
        "midi": 54,
        "time": 55.269,
        "duration": 0.346,
        "velocity": 0.63,
        "hand": "left"
      },
      {
        "midi": 57,
        "time": 55.5,
        "duration": 0.115,
        "velocity": 0.63,
        "hand": "left"
      },
      {
        "midi": 62,
        "time": 55.5,
        "duration": 0.115,
        "velocity": 0.63,
        "hand": "right"
      },
      {
        "midi": 74,
        "time": 55.5,
        "duration": 0.115,
        "velocity": 0.63,
        "hand": "right"
      },
      {
        "midi": 50,
        "time": 55.731,
        "duration": 0.346,
        "velocity": 0.63,
        "hand": "left"
      },
      {
        "midi": 74,
        "time": 55.731,
        "duration": 0.215,
        "velocity": 0.63,
        "hand": "right"
      },
      {
        "midi": 57,
        "time": 55.961,
        "duration": 0.115,
        "velocity": 0.63,
        "hand": "left"
      },
      {
        "midi": 62,
        "time": 55.961,
        "duration": 0.115,
        "velocity": 0.63,
        "hand": "right"
      },
      {
        "midi": 74,
        "time": 55.961,
        "duration": 0.115,
        "velocity": 0.63,
        "hand": "right"
      },
      {
        "midi": 54,
        "time": 56.192,
        "duration": 0.346,
        "velocity": 0.63,
        "hand": "left"
      },
      {
        "midi": 78,
        "time": 56.192,
        "duration": 1.269,
        "velocity": 0.63,
        "hand": "right"
      },
      {
        "midi": 57,
        "time": 56.423,
        "duration": 0.115,
        "velocity": 0.63,
        "hand": "left"
      },
      {
        "midi": 62,
        "time": 56.423,
        "duration": 0.115,
        "velocity": 0.63,
        "hand": "right"
      },
      {
        "midi": 69,
        "time": 56.423,
        "duration": 0.115,
        "velocity": 0.63,
        "hand": "right"
      },
      {
        "midi": 72,
        "time": 56.423,
        "duration": 0.115,
        "velocity": 0.63,
        "hand": "right"
      },
      {
        "midi": 50,
        "time": 56.654,
        "duration": 0.346,
        "velocity": 0.63,
        "hand": "left"
      },
      {
        "midi": 57,
        "time": 56.884,
        "duration": 0.115,
        "velocity": 0.63,
        "hand": "left"
      },
      {
        "midi": 62,
        "time": 56.884,
        "duration": 0.115,
        "velocity": 0.63,
        "hand": "right"
      },
      {
        "midi": 69,
        "time": 56.884,
        "duration": 0.115,
        "velocity": 0.63,
        "hand": "right"
      },
      {
        "midi": 72,
        "time": 56.884,
        "duration": 0.115,
        "velocity": 0.63,
        "hand": "right"
      },
      {
        "midi": 54,
        "time": 57.115,
        "duration": 0.346,
        "velocity": 0.63,
        "hand": "left"
      },
      {
        "midi": 57,
        "time": 57.346,
        "duration": 0.115,
        "velocity": 0.63,
        "hand": "left"
      },
      {
        "midi": 62,
        "time": 57.346,
        "duration": 0.115,
        "velocity": 0.63,
        "hand": "right"
      },
      {
        "midi": 76,
        "time": 57.346,
        "duration": 0.115,
        "velocity": 0.63,
        "hand": "right"
      },
      {
        "midi": 50,
        "time": 57.577,
        "duration": 0.346,
        "velocity": 0.63,
        "hand": "left"
      },
      {
        "midi": 74,
        "time": 57.577,
        "duration": 0.346,
        "velocity": 0.63,
        "hand": "right"
      },
      {
        "midi": 57,
        "time": 57.807,
        "duration": 0.115,
        "velocity": 0.63,
        "hand": "left"
      },
      {
        "midi": 62,
        "time": 57.807,
        "duration": 0.115,
        "velocity": 0.63,
        "hand": "right"
      },
      {
        "midi": 72,
        "time": 57.807,
        "duration": 0.115,
        "velocity": 0.63,
        "hand": "right"
      },
      {
        "midi": 43,
        "time": 58.038,
        "duration": 0.346,
        "velocity": 0.63,
        "hand": "left"
      },
      {
        "midi": 55,
        "time": 58.038,
        "duration": 0.346,
        "velocity": 0.63,
        "hand": "left"
      },
      {
        "midi": 67,
        "time": 58.038,
        "duration": 4.139,
        "velocity": 0.63,
        "hand": "right"
      },
      {
        "midi": 71,
        "time": 58.038,
        "duration": 1.831,
        "velocity": 0.63,
        "hand": "right"
      },
      {
        "midi": 52,
        "time": 58.269,
        "duration": 0.115,
        "velocity": 0.63,
        "hand": "left"
      },
      {
        "midi": 50,
        "time": 58.5,
        "duration": 0.346,
        "velocity": 0.63,
        "hand": "left"
      },
      {
        "midi": 47,
        "time": 58.731,
        "duration": 0.115,
        "velocity": 0.63,
        "hand": "left"
      },
      {
        "midi": 43,
        "time": 58.961,
        "duration": 0.346,
        "velocity": 0.63,
        "hand": "left"
      },
      {
        "midi": 47,
        "time": 59.192,
        "duration": 0.115,
        "velocity": 0.63,
        "hand": "left"
      },
      {
        "midi": 52,
        "time": 59.192,
        "duration": 0.115,
        "velocity": 0.63,
        "hand": "left"
      },
      {
        "midi": 74,
        "time": 59.192,
        "duration": 0.115,
        "velocity": 0.63,
        "hand": "right"
      },
      {
        "midi": 74,
        "time": 59.423,
        "duration": 0.216,
        "velocity": 0.63,
        "hand": "right"
      },
      {
        "midi": 74,
        "time": 59.654,
        "duration": 0.115,
        "velocity": 0.63,
        "hand": "right"
      },
      {
        "midi": 55,
        "time": 59.884,
        "duration": 0.346,
        "velocity": 0.63,
        "hand": "left"
      },
      {
        "midi": 71,
        "time": 59.884,
        "duration": 1.832,
        "velocity": 0.63,
        "hand": "right"
      },
      {
        "midi": 59,
        "time": 60.115,
        "duration": 0.115,
        "velocity": 0.63,
        "hand": "left"
      },
      {
        "midi": 62,
        "time": 60.115,
        "duration": 0.115,
        "velocity": 0.63,
        "hand": "right"
      },
      {
        "midi": 74,
        "time": 60.115,
        "duration": 0.115,
        "velocity": 0.63,
        "hand": "right"
      },
      {
        "midi": 50,
        "time": 60.346,
        "duration": 0.346,
        "velocity": 0.63,
        "hand": "left"
      },
      {
        "midi": 74,
        "time": 60.346,
        "duration": 0.216,
        "velocity": 0.63,
        "hand": "right"
      },
      {
        "midi": 59,
        "time": 60.577,
        "duration": 0.115,
        "velocity": 0.63,
        "hand": "left"
      },
      {
        "midi": 62,
        "time": 60.577,
        "duration": 0.115,
        "velocity": 0.63,
        "hand": "right"
      },
      {
        "midi": 74,
        "time": 60.577,
        "duration": 0.115,
        "velocity": 0.63,
        "hand": "right"
      },
      {
        "midi": 54,
        "time": 60.807,
        "duration": 0.346,
        "velocity": 0.63,
        "hand": "left"
      },
      {
        "midi": 78,
        "time": 60.807,
        "duration": 0.346,
        "velocity": 0.63,
        "hand": "right"
      },
      {
        "midi": 57,
        "time": 61.038,
        "duration": 0.115,
        "velocity": 0.63,
        "hand": "left"
      },
      {
        "midi": 62,
        "time": 61.038,
        "duration": 0.115,
        "velocity": 0.63,
        "hand": "right"
      },
      {
        "midi": 76,
        "time": 61.038,
        "duration": 0.115,
        "velocity": 0.63,
        "hand": "right"
      },
      {
        "midi": 50,
        "time": 61.269,
        "duration": 0.346,
        "velocity": 0.63,
        "hand": "left"
      },
      {
        "midi": 74,
        "time": 61.269,
        "duration": 0.346,
        "velocity": 0.63,
        "hand": "right"
      },
      {
        "midi": 57,
        "time": 61.5,
        "duration": 0.115,
        "velocity": 0.63,
        "hand": "left"
      },
      {
        "midi": 62,
        "time": 61.5,
        "duration": 0.115,
        "velocity": 0.63,
        "hand": "right"
      },
      {
        "midi": 72,
        "time": 61.5,
        "duration": 0.115,
        "velocity": 0.63,
        "hand": "right"
      },
      {
        "midi": 54,
        "time": 61.731,
        "duration": 0.346,
        "velocity": 0.63,
        "hand": "left"
      },
      {
        "midi": 71,
        "time": 61.731,
        "duration": 0.908,
        "velocity": 0.63,
        "hand": "right"
      },
      {
        "midi": 52,
        "time": 61.961,
        "duration": 0.115,
        "velocity": 0.63,
        "hand": "left"
      },
      {
        "midi": 69,
        "time": 61.961,
        "duration": 0.115,
        "velocity": 0.63,
        "hand": "right"
      },
      {
        "midi": 50,
        "time": 62.192,
        "duration": 0.346,
        "velocity": 0.63,
        "hand": "left"
      },
      {
        "midi": 67,
        "time": 62.192,
        "duration": 0.447,
        "velocity": 0.63,
        "hand": "right"
      },
      {
        "midi": 47,
        "time": 62.423,
        "duration": 0.115,
        "velocity": 0.63,
        "hand": "left"
      },
      {
        "midi": 43,
        "time": 62.654,
        "duration": 0.808,
        "velocity": 0.63,
        "hand": "left"
      },
      {
        "midi": 67,
        "time": 62.654,
        "duration": 0.808,
        "velocity": 0.63,
        "hand": "right"
      },
      {
        "midi": 71,
        "time": 62.654,
        "duration": 0.808,
        "velocity": 0.63,
        "hand": "right"
      }
    ]
  },
  "notes1Hand": [
    {
      "midi": 74,
      "time": 0,
      "duration": 0.277,
      "velocity": 0.63,
      "hand": "right"
    },
    {
      "midi": 71,
      "time": 0.692,
      "duration": 0.346,
      "velocity": 0.63,
      "hand": "right"
    },
    {
      "midi": 74,
      "time": 1.384,
      "duration": 0.277,
      "velocity": 0.63,
      "hand": "right"
    },
    {
      "midi": 72,
      "time": 2.077,
      "duration": 0.346,
      "velocity": 0.63,
      "hand": "right"
    },
    {
      "midi": 62,
      "time": 2.769,
      "duration": 0.277,
      "velocity": 0.63,
      "hand": "right"
    },
    {
      "midi": 66,
      "time": 3.461,
      "duration": 0.346,
      "velocity": 0.63,
      "hand": "right"
    },
    {
      "midi": 71,
      "time": 4.154,
      "duration": 0.277,
      "velocity": 0.63,
      "hand": "right"
    },
    {
      "midi": 69,
      "time": 4.846,
      "duration": 0.346,
      "velocity": 0.63,
      "hand": "right"
    },
    {
      "midi": 71,
      "time": 5.538,
      "duration": 0.277,
      "velocity": 0.63,
      "hand": "right"
    },
    {
      "midi": 71,
      "time": 6.231,
      "duration": 1.269,
      "velocity": 0.63,
      "hand": "right"
    },
    {
      "midi": 62,
      "time": 6.923,
      "duration": 0.277,
      "velocity": 0.63,
      "hand": "right"
    },
    {
      "midi": 74,
      "time": 7.615,
      "duration": 0.277,
      "velocity": 0.63,
      "hand": "right"
    },
    {
      "midi": 74,
      "time": 8.307,
      "duration": 0.277,
      "velocity": 0.63,
      "hand": "right"
    },
    {
      "midi": 76,
      "time": 9,
      "duration": 0.346,
      "velocity": 0.63,
      "hand": "right"
    },
    {
      "midi": 71,
      "time": 9.692,
      "duration": 0.277,
      "velocity": 0.63,
      "hand": "right"
    },
    {
      "midi": 69,
      "time": 10.384,
      "duration": 0.678,
      "velocity": 0.63,
      "hand": "right"
    },
    {
      "midi": 69,
      "time": 11.077,
      "duration": 0.277,
      "velocity": 0.63,
      "hand": "right"
    },
    {
      "midi": 72,
      "time": 11.769,
      "duration": 0.346,
      "velocity": 0.63,
      "hand": "right"
    },
    {
      "midi": 71,
      "time": 12.461,
      "duration": 0.277,
      "velocity": 0.63,
      "hand": "right"
    },
    {
      "midi": 72,
      "time": 13.154,
      "duration": 0.346,
      "velocity": 0.63,
      "hand": "right"
    },
    {
      "midi": 62,
      "time": 13.846,
      "duration": 0.277,
      "velocity": 0.63,
      "hand": "right"
    },
    {
      "midi": 71,
      "time": 14.538,
      "duration": 1.139,
      "velocity": 0.63,
      "hand": "right"
    },
    {
      "midi": 74,
      "time": 15.231,
      "duration": 0.277,
      "velocity": 0.63,
      "hand": "right"
    },
    {
      "midi": 62,
      "time": 15.923,
      "duration": 0.346,
      "velocity": 0.63,
      "hand": "right"
    },
    {
      "midi": 78,
      "time": 16.615,
      "duration": 0.277,
      "velocity": 0.63,
      "hand": "right"
    },
    {
      "midi": 78,
      "time": 17.307,
      "duration": 1.269,
      "velocity": 0.63,
      "hand": "right"
    },
    {
      "midi": 72,
      "time": 18,
      "duration": 0.277,
      "velocity": 0.63,
      "hand": "right"
    },
    {
      "midi": 74,
      "time": 18.692,
      "duration": 0.277,
      "velocity": 0.63,
      "hand": "right"
    },
    {
      "midi": 72,
      "time": 19.384,
      "duration": 0.277,
      "velocity": 0.63,
      "hand": "right"
    },
    {
      "midi": 66,
      "time": 20.077,
      "duration": 0.346,
      "velocity": 0.63,
      "hand": "right"
    },
    {
      "midi": 72,
      "time": 20.769,
      "duration": 0.277,
      "velocity": 0.63,
      "hand": "right"
    },
    {
      "midi": 62,
      "time": 21.461,
      "duration": 0.346,
      "velocity": 0.63,
      "hand": "right"
    },
    {
      "midi": 74,
      "time": 22.154,
      "duration": 0.277,
      "velocity": 0.63,
      "hand": "right"
    },
    {
      "midi": 79,
      "time": 22.846,
      "duration": 1.269,
      "velocity": 0.63,
      "hand": "right"
    },
    {
      "midi": 74,
      "time": 23.538,
      "duration": 0.277,
      "velocity": 0.63,
      "hand": "right"
    },
    {
      "midi": 76,
      "time": 24.231,
      "duration": 0.346,
      "velocity": 0.63,
      "hand": "right"
    },
    {
      "midi": 72,
      "time": 24.923,
      "duration": 0.277,
      "velocity": 0.63,
      "hand": "right"
    },
    {
      "midi": 66,
      "time": 25.615,
      "duration": 0.346,
      "velocity": 0.63,
      "hand": "right"
    },
    {
      "midi": 74,
      "time": 26.307,
      "duration": 0.277,
      "velocity": 0.63,
      "hand": "right"
    },
    {
      "midi": 62,
      "time": 27,
      "duration": 0.346,
      "velocity": 0.63,
      "hand": "right"
    },
    {
      "midi": 76,
      "time": 27.692,
      "duration": 0.277,
      "velocity": 0.63,
      "hand": "right"
    },
    {
      "midi": 71,
      "time": 28.384,
      "duration": 1.832,
      "velocity": 0.63,
      "hand": "right"
    },
    {
      "midi": 59,
      "time": 29.077,
      "duration": 0.277,
      "velocity": 0.63,
      "hand": "right"
    },
    {
      "midi": 74,
      "time": 29.769,
      "duration": 0.277,
      "velocity": 0.63,
      "hand": "right"
    },
    {
      "midi": 74,
      "time": 30.461,
      "duration": 0.277,
      "velocity": 0.63,
      "hand": "right"
    },
    {
      "midi": 76,
      "time": 31.154,
      "duration": 0.346,
      "velocity": 0.63,
      "hand": "right"
    },
    {
      "midi": 71,
      "time": 31.846,
      "duration": 1.831,
      "velocity": 0.63,
      "hand": "right"
    },
    {
      "midi": 69,
      "time": 32.538,
      "duration": 0.678,
      "velocity": 0.63,
      "hand": "right"
    },
    {
      "midi": 69,
      "time": 33.231,
      "duration": 0.277,
      "velocity": 0.63,
      "hand": "right"
    },
    {
      "midi": 72,
      "time": 33.923,
      "duration": 0.346,
      "velocity": 0.63,
      "hand": "right"
    },
    {
      "midi": 71,
      "time": 34.615,
      "duration": 0.447,
      "velocity": 0.63,
      "hand": "right"
    },
    {
      "midi": 72,
      "time": 35.307,
      "duration": 0.346,
      "velocity": 0.63,
      "hand": "right"
    },
    {
      "midi": 62,
      "time": 36,
      "duration": 0.277,
      "velocity": 0.63,
      "hand": "right"
    },
    {
      "midi": 55,
      "time": 36.692,
      "duration": 0.346,
      "velocity": 0.63,
      "hand": "right"
    },
    {
      "midi": 74,
      "time": 37.384,
      "duration": 0.277,
      "velocity": 0.63,
      "hand": "right"
    },
    {
      "midi": 74,
      "time": 38.077,
      "duration": 0.277,
      "velocity": 0.63,
      "hand": "right"
    },
    {
      "midi": 74,
      "time": 38.769,
      "duration": 0.277,
      "velocity": 0.63,
      "hand": "right"
    },
    {
      "midi": 74,
      "time": 39.461,
      "duration": 0.692,
      "velocity": 0.63,
      "hand": "right"
    },
    {
      "midi": 62,
      "time": 40.154,
      "duration": 0.277,
      "velocity": 0.63,
      "hand": "right"
    },
    {
      "midi": 69,
      "time": 40.846,
      "duration": 0.346,
      "velocity": 0.63,
      "hand": "right"
    },
    {
      "midi": 71,
      "time": 41.538,
      "duration": 0.447,
      "velocity": 0.63,
      "hand": "right"
    },
    {
      "midi": 72,
      "time": 42.231,
      "duration": 0.346,
      "velocity": 0.63,
      "hand": "right"
    },
    {
      "midi": 74,
      "time": 42.923,
      "duration": 0.277,
      "velocity": 0.63,
      "hand": "right"
    },
    {
      "midi": 62,
      "time": 43.615,
      "duration": 0.346,
      "velocity": 0.63,
      "hand": "right"
    },
    {
      "midi": 74,
      "time": 44.307,
      "duration": 0.277,
      "velocity": 0.63,
      "hand": "right"
    },
    {
      "midi": 79,
      "time": 45,
      "duration": 1.269,
      "velocity": 0.63,
      "hand": "right"
    },
    {
      "midi": 74,
      "time": 45.692,
      "duration": 0.277,
      "velocity": 0.63,
      "hand": "right"
    },
    {
      "midi": 76,
      "time": 46.384,
      "duration": 0.346,
      "velocity": 0.63,
      "hand": "right"
    },
    {
      "midi": 72,
      "time": 47.077,
      "duration": 0.277,
      "velocity": 0.63,
      "hand": "right"
    },
    {
      "midi": 66,
      "time": 47.769,
      "duration": 0.346,
      "velocity": 0.63,
      "hand": "right"
    },
    {
      "midi": 74,
      "time": 48.346,
      "duration": 0.277,
      "velocity": 0.63,
      "hand": "right"
    },
    {
      "midi": 72,
      "time": 49.038,
      "duration": 0.277,
      "velocity": 0.63,
      "hand": "right"
    },
    {
      "midi": 66,
      "time": 49.731,
      "duration": 0.346,
      "velocity": 0.63,
      "hand": "right"
    },
    {
      "midi": 72,
      "time": 50.423,
      "duration": 0.277,
      "velocity": 0.63,
      "hand": "right"
    },
    {
      "midi": 62,
      "time": 51.115,
      "duration": 0.346,
      "velocity": 0.63,
      "hand": "right"
    },
    {
      "midi": 74,
      "time": 51.807,
      "duration": 0.277,
      "velocity": 0.63,
      "hand": "right"
    },
    {
      "midi": 79,
      "time": 52.5,
      "duration": 1.269,
      "velocity": 0.63,
      "hand": "right"
    },
    {
      "midi": 74,
      "time": 53.192,
      "duration": 0.277,
      "velocity": 0.63,
      "hand": "right"
    },
    {
      "midi": 76,
      "time": 53.884,
      "duration": 0.346,
      "velocity": 0.63,
      "hand": "right"
    },
    {
      "midi": 72,
      "time": 54.577,
      "duration": 0.277,
      "velocity": 0.63,
      "hand": "right"
    },
    {
      "midi": 66,
      "time": 55.269,
      "duration": 0.346,
      "velocity": 0.63,
      "hand": "right"
    },
    {
      "midi": 74,
      "time": 55.961,
      "duration": 0.277,
      "velocity": 0.63,
      "hand": "right"
    },
    {
      "midi": 62,
      "time": 56.654,
      "duration": 0.346,
      "velocity": 0.63,
      "hand": "right"
    },
    {
      "midi": 76,
      "time": 57.346,
      "duration": 0.277,
      "velocity": 0.63,
      "hand": "right"
    },
    {
      "midi": 71,
      "time": 58.038,
      "duration": 1.831,
      "velocity": 0.63,
      "hand": "right"
    },
    {
      "midi": 59,
      "time": 58.731,
      "duration": 0.277,
      "velocity": 0.63,
      "hand": "right"
    },
    {
      "midi": 74,
      "time": 59.423,
      "duration": 0.277,
      "velocity": 0.63,
      "hand": "right"
    },
    {
      "midi": 74,
      "time": 60.115,
      "duration": 0.277,
      "velocity": 0.63,
      "hand": "right"
    },
    {
      "midi": 78,
      "time": 60.807,
      "duration": 0.346,
      "velocity": 0.63,
      "hand": "right"
    },
    {
      "midi": 72,
      "time": 61.5,
      "duration": 0.277,
      "velocity": 0.63,
      "hand": "right"
    },
    {
      "midi": 67,
      "time": 62.192,
      "duration": 0.447,
      "velocity": 0.63,
      "hand": "right"
    }
  ],
  "notes2Hands": [
    {
      "midi": 74,
      "time": 0,
      "duration": 0.115,
      "velocity": 0.63,
      "hand": "right"
    },
    {
      "midi": 74,
      "time": 0.231,
      "duration": 0.215,
      "velocity": 0.63,
      "hand": "right"
    },
    {
      "midi": 74,
      "time": 0.461,
      "duration": 0.115,
      "velocity": 0.63,
      "hand": "right"
    },
    {
      "midi": 55,
      "time": 0.692,
      "duration": 0.346,
      "velocity": 0.63,
      "hand": "left"
    },
    {
      "midi": 71,
      "time": 0.692,
      "duration": 0.346,
      "velocity": 0.63,
      "hand": "right"
    },
    {
      "midi": 59,
      "time": 0.923,
      "duration": 0.115,
      "velocity": 0.63,
      "hand": "left"
    },
    {
      "midi": 62,
      "time": 0.923,
      "duration": 0.115,
      "velocity": 0.63,
      "hand": "right"
    },
    {
      "midi": 74,
      "time": 0.923,
      "duration": 0.115,
      "velocity": 0.63,
      "hand": "right"
    },
    {
      "midi": 50,
      "time": 1.154,
      "duration": 0.346,
      "velocity": 0.63,
      "hand": "left"
    },
    {
      "midi": 74,
      "time": 1.154,
      "duration": 0.215,
      "velocity": 0.63,
      "hand": "right"
    },
    {
      "midi": 59,
      "time": 1.384,
      "duration": 0.115,
      "velocity": 0.63,
      "hand": "left"
    },
    {
      "midi": 62,
      "time": 1.384,
      "duration": 0.115,
      "velocity": 0.63,
      "hand": "right"
    },
    {
      "midi": 74,
      "time": 1.384,
      "duration": 0.115,
      "velocity": 0.63,
      "hand": "right"
    },
    {
      "midi": 55,
      "time": 1.615,
      "duration": 0.346,
      "velocity": 0.63,
      "hand": "left"
    },
    {
      "midi": 76,
      "time": 1.615,
      "duration": 0.346,
      "velocity": 0.63,
      "hand": "right"
    },
    {
      "midi": 59,
      "time": 1.846,
      "duration": 0.115,
      "velocity": 0.63,
      "hand": "left"
    },
    {
      "midi": 62,
      "time": 1.846,
      "duration": 0.115,
      "velocity": 0.63,
      "hand": "right"
    },
    {
      "midi": 74,
      "time": 1.846,
      "duration": 0.115,
      "velocity": 0.63,
      "hand": "right"
    },
    {
      "midi": 50,
      "time": 2.077,
      "duration": 0.346,
      "velocity": 0.63,
      "hand": "left"
    },
    {
      "midi": 72,
      "time": 2.077,
      "duration": 0.346,
      "velocity": 0.63,
      "hand": "right"
    },
    {
      "midi": 59,
      "time": 2.307,
      "duration": 0.115,
      "velocity": 0.63,
      "hand": "left"
    },
    {
      "midi": 62,
      "time": 2.307,
      "duration": 0.115,
      "velocity": 0.63,
      "hand": "right"
    },
    {
      "midi": 71,
      "time": 2.307,
      "duration": 0.115,
      "velocity": 0.63,
      "hand": "right"
    },
    {
      "midi": 54,
      "time": 2.538,
      "duration": 0.346,
      "velocity": 0.63,
      "hand": "left"
    },
    {
      "midi": 74,
      "time": 2.538,
      "duration": 0.692,
      "velocity": 0.63,
      "hand": "right"
    },
    {
      "midi": 57,
      "time": 2.769,
      "duration": 0.115,
      "velocity": 0.63,
      "hand": "left"
    },
    {
      "midi": 62,
      "time": 2.769,
      "duration": 0.115,
      "velocity": 0.63,
      "hand": "right"
    },
    {
      "midi": 50,
      "time": 3,
      "duration": 0.346,
      "velocity": 0.63,
      "hand": "left"
    },
    {
      "midi": 69,
      "time": 3,
      "duration": 0.677,
      "velocity": 0.63,
      "hand": "right"
    },
    {
      "midi": 57,
      "time": 3.231,
      "duration": 0.115,
      "velocity": 0.63,
      "hand": "left"
    },
    {
      "midi": 62,
      "time": 3.231,
      "duration": 0.115,
      "velocity": 0.63,
      "hand": "right"
    },
    {
      "midi": 54,
      "time": 3.461,
      "duration": 0.346,
      "velocity": 0.63,
      "hand": "left"
    },
    {
      "midi": 57,
      "time": 3.692,
      "duration": 0.115,
      "velocity": 0.63,
      "hand": "left"
    },
    {
      "midi": 62,
      "time": 3.692,
      "duration": 0.115,
      "velocity": 0.63,
      "hand": "right"
    },
    {
      "midi": 69,
      "time": 3.692,
      "duration": 0.115,
      "velocity": 0.63,
      "hand": "right"
    },
    {
      "midi": 50,
      "time": 3.923,
      "duration": 0.346,
      "velocity": 0.63,
      "hand": "left"
    },
    {
      "midi": 69,
      "time": 3.923,
      "duration": 0.346,
      "velocity": 0.63,
      "hand": "right"
    },
    {
      "midi": 57,
      "time": 4.154,
      "duration": 0.115,
      "velocity": 0.63,
      "hand": "left"
    },
    {
      "midi": 62,
      "time": 4.154,
      "duration": 0.115,
      "velocity": 0.63,
      "hand": "right"
    },
    {
      "midi": 71,
      "time": 4.154,
      "duration": 0.115,
      "velocity": 0.63,
      "hand": "right"
    },
    {
      "midi": 54,
      "time": 4.384,
      "duration": 0.346,
      "velocity": 0.63,
      "hand": "left"
    },
    {
      "midi": 72,
      "time": 4.384,
      "duration": 0.346,
      "velocity": 0.63,
      "hand": "right"
    },
    {
      "midi": 57,
      "time": 4.615,
      "duration": 0.115,
      "velocity": 0.63,
      "hand": "left"
    },
    {
      "midi": 62,
      "time": 4.615,
      "duration": 0.115,
      "velocity": 0.63,
      "hand": "right"
    },
    {
      "midi": 71,
      "time": 4.615,
      "duration": 0.115,
      "velocity": 0.63,
      "hand": "right"
    },
    {
      "midi": 50,
      "time": 4.846,
      "duration": 0.346,
      "velocity": 0.63,
      "hand": "left"
    },
    {
      "midi": 69,
      "time": 4.846,
      "duration": 0.346,
      "velocity": 0.63,
      "hand": "right"
    },
    {
      "midi": 57,
      "time": 5.077,
      "duration": 0.115,
      "velocity": 0.63,
      "hand": "left"
    },
    {
      "midi": 62,
      "time": 5.077,
      "duration": 0.115,
      "velocity": 0.63,
      "hand": "right"
    },
    {
      "midi": 71,
      "time": 5.077,
      "duration": 0.115,
      "velocity": 0.63,
      "hand": "right"
    },
    {
      "midi": 54,
      "time": 5.307,
      "duration": 0.346,
      "velocity": 0.63,
      "hand": "left"
    },
    {
      "midi": 72,
      "time": 5.307,
      "duration": 0.346,
      "velocity": 0.63,
      "hand": "right"
    },
    {
      "midi": 57,
      "time": 5.538,
      "duration": 0.115,
      "velocity": 0.63,
      "hand": "left"
    },
    {
      "midi": 62,
      "time": 5.538,
      "duration": 0.115,
      "velocity": 0.63,
      "hand": "right"
    },
    {
      "midi": 71,
      "time": 5.538,
      "duration": 0.115,
      "velocity": 0.63,
      "hand": "right"
    },
    {
      "midi": 50,
      "time": 5.769,
      "duration": 0.346,
      "velocity": 0.63,
      "hand": "left"
    },
    {
      "midi": 72,
      "time": 5.769,
      "duration": 0.346,
      "velocity": 0.63,
      "hand": "right"
    },
    {
      "midi": 57,
      "time": 6,
      "duration": 0.115,
      "velocity": 0.63,
      "hand": "left"
    },
    {
      "midi": 62,
      "time": 6,
      "duration": 0.115,
      "velocity": 0.63,
      "hand": "right"
    },
    {
      "midi": 74,
      "time": 6,
      "duration": 0.115,
      "velocity": 0.63,
      "hand": "right"
    },
    {
      "midi": 55,
      "time": 6.231,
      "duration": 0.346,
      "velocity": 0.63,
      "hand": "left"
    },
    {
      "midi": 67,
      "time": 6.231,
      "duration": 1.269,
      "velocity": 0.63,
      "hand": "right"
    },
    {
      "midi": 71,
      "time": 6.231,
      "duration": 1.269,
      "velocity": 0.63,
      "hand": "right"
    },
    {
      "midi": 59,
      "time": 6.461,
      "duration": 0.115,
      "velocity": 0.63,
      "hand": "left"
    },
    {
      "midi": 62,
      "time": 6.461,
      "duration": 0.115,
      "velocity": 0.63,
      "hand": "right"
    },
    {
      "midi": 50,
      "time": 6.692,
      "duration": 0.346,
      "velocity": 0.63,
      "hand": "left"
    },
    {
      "midi": 59,
      "time": 6.923,
      "duration": 0.115,
      "velocity": 0.63,
      "hand": "left"
    },
    {
      "midi": 62,
      "time": 6.923,
      "duration": 0.115,
      "velocity": 0.63,
      "hand": "right"
    },
    {
      "midi": 55,
      "time": 7.154,
      "duration": 0.346,
      "velocity": 0.63,
      "hand": "left"
    },
    {
      "midi": 59,
      "time": 7.384,
      "duration": 0.115,
      "velocity": 0.63,
      "hand": "left"
    },
    {
      "midi": 62,
      "time": 7.384,
      "duration": 0.115,
      "velocity": 0.63,
      "hand": "right"
    },
    {
      "midi": 74,
      "time": 7.384,
      "duration": 0.115,
      "velocity": 0.63,
      "hand": "right"
    },
    {
      "midi": 50,
      "time": 7.615,
      "duration": 0.346,
      "velocity": 0.63,
      "hand": "left"
    },
    {
      "midi": 74,
      "time": 7.615,
      "duration": 0.216,
      "velocity": 0.63,
      "hand": "right"
    },
    {
      "midi": 59,
      "time": 7.846,
      "duration": 0.115,
      "velocity": 0.63,
      "hand": "left"
    },
    {
      "midi": 62,
      "time": 7.846,
      "duration": 0.115,
      "velocity": 0.63,
      "hand": "right"
    },
    {
      "midi": 74,
      "time": 7.846,
      "duration": 0.115,
      "velocity": 0.63,
      "hand": "right"
    },
    {
      "midi": 55,
      "time": 8.077,
      "duration": 0.346,
      "velocity": 0.63,
      "hand": "left"
    },
    {
      "midi": 71,
      "time": 8.077,
      "duration": 0.346,
      "velocity": 0.63,
      "hand": "right"
    },
    {
      "midi": 59,
      "time": 8.307,
      "duration": 0.115,
      "velocity": 0.63,
      "hand": "left"
    },
    {
      "midi": 62,
      "time": 8.307,
      "duration": 0.115,
      "velocity": 0.63,
      "hand": "right"
    },
    {
      "midi": 74,
      "time": 8.307,
      "duration": 0.115,
      "velocity": 0.63,
      "hand": "right"
    },
    {
      "midi": 50,
      "time": 8.538,
      "duration": 0.346,
      "velocity": 0.63,
      "hand": "left"
    },
    {
      "midi": 74,
      "time": 8.538,
      "duration": 0.216,
      "velocity": 0.63,
      "hand": "right"
    },
    {
      "midi": 59,
      "time": 8.769,
      "duration": 0.115,
      "velocity": 0.63,
      "hand": "left"
    },
    {
      "midi": 62,
      "time": 8.769,
      "duration": 0.115,
      "velocity": 0.63,
      "hand": "right"
    },
    {
      "midi": 74,
      "time": 8.769,
      "duration": 0.115,
      "velocity": 0.63,
      "hand": "right"
    },
    {
      "midi": 55,
      "time": 9,
      "duration": 0.346,
      "velocity": 0.63,
      "hand": "left"
    },
    {
      "midi": 76,
      "time": 9,
      "duration": 0.346,
      "velocity": 0.63,
      "hand": "right"
    },
    {
      "midi": 59,
      "time": 9.231,
      "duration": 0.115,
      "velocity": 0.63,
      "hand": "left"
    },
    {
      "midi": 62,
      "time": 9.231,
      "duration": 0.115,
      "velocity": 0.63,
      "hand": "right"
    },
    {
      "midi": 74,
      "time": 9.231,
      "duration": 0.115,
      "velocity": 0.63,
      "hand": "right"
    },
    {
      "midi": 50,
      "time": 9.461,
      "duration": 0.346,
      "velocity": 0.63,
      "hand": "left"
    },
    {
      "midi": 72,
      "time": 9.461,
      "duration": 0.346,
      "velocity": 0.63,
      "hand": "right"
    },
    {
      "midi": 59,
      "time": 9.692,
      "duration": 0.115,
      "velocity": 0.63,
      "hand": "left"
    },
    {
      "midi": 62,
      "time": 9.692,
      "duration": 0.115,
      "velocity": 0.63,
      "hand": "right"
    },
    {
      "midi": 71,
      "time": 9.692,
      "duration": 0.115,
      "velocity": 0.63,
      "hand": "right"
    },
    {
      "midi": 54,
      "time": 9.923,
      "duration": 0.346,
      "velocity": 0.63,
      "hand": "left"
    },
    {
      "midi": 74,
      "time": 9.923,
      "duration": 0.692,
      "velocity": 0.63,
      "hand": "right"
    },
    {
      "midi": 57,
      "time": 10.154,
      "duration": 0.115,
      "velocity": 0.63,
      "hand": "left"
    },
    {
      "midi": 62,
      "time": 10.154,
      "duration": 0.115,
      "velocity": 0.63,
      "hand": "right"
    },
    {
      "midi": 50,
      "time": 10.384,
      "duration": 0.346,
      "velocity": 0.63,
      "hand": "left"
    },
    {
      "midi": 69,
      "time": 10.384,
      "duration": 0.678,
      "velocity": 0.63,
      "hand": "right"
    },
    {
      "midi": 57,
      "time": 10.615,
      "duration": 0.115,
      "velocity": 0.63,
      "hand": "left"
    },
    {
      "midi": 62,
      "time": 10.615,
      "duration": 0.115,
      "velocity": 0.63,
      "hand": "right"
    },
    {
      "midi": 54,
      "time": 10.846,
      "duration": 0.346,
      "velocity": 0.63,
      "hand": "left"
    },
    {
      "midi": 57,
      "time": 11.077,
      "duration": 0.115,
      "velocity": 0.63,
      "hand": "left"
    },
    {
      "midi": 62,
      "time": 11.077,
      "duration": 0.115,
      "velocity": 0.63,
      "hand": "right"
    },
    {
      "midi": 69,
      "time": 11.077,
      "duration": 0.115,
      "velocity": 0.63,
      "hand": "right"
    },
    {
      "midi": 50,
      "time": 11.307,
      "duration": 0.346,
      "velocity": 0.63,
      "hand": "left"
    },
    {
      "midi": 69,
      "time": 11.307,
      "duration": 0.346,
      "velocity": 0.63,
      "hand": "right"
    },
    {
      "midi": 57,
      "time": 11.538,
      "duration": 0.115,
      "velocity": 0.63,
      "hand": "left"
    },
    {
      "midi": 62,
      "time": 11.538,
      "duration": 0.115,
      "velocity": 0.63,
      "hand": "right"
    },
    {
      "midi": 71,
      "time": 11.538,
      "duration": 0.115,
      "velocity": 0.63,
      "hand": "right"
    },
    {
      "midi": 54,
      "time": 11.769,
      "duration": 0.346,
      "velocity": 0.63,
      "hand": "left"
    },
    {
      "midi": 72,
      "time": 11.769,
      "duration": 0.346,
      "velocity": 0.63,
      "hand": "right"
    },
    {
      "midi": 57,
      "time": 12,
      "duration": 0.115,
      "velocity": 0.63,
      "hand": "left"
    },
    {
      "midi": 62,
      "time": 12,
      "duration": 0.115,
      "velocity": 0.63,
      "hand": "right"
    },
    {
      "midi": 71,
      "time": 12,
      "duration": 0.115,
      "velocity": 0.63,
      "hand": "right"
    },
    {
      "midi": 50,
      "time": 12.231,
      "duration": 0.346,
      "velocity": 0.63,
      "hand": "left"
    },
    {
      "midi": 69,
      "time": 12.231,
      "duration": 0.346,
      "velocity": 0.63,
      "hand": "right"
    },
    {
      "midi": 57,
      "time": 12.461,
      "duration": 0.115,
      "velocity": 0.63,
      "hand": "left"
    },
    {
      "midi": 62,
      "time": 12.461,
      "duration": 0.115,
      "velocity": 0.63,
      "hand": "right"
    },
    {
      "midi": 71,
      "time": 12.461,
      "duration": 0.115,
      "velocity": 0.63,
      "hand": "right"
    },
    {
      "midi": 54,
      "time": 12.692,
      "duration": 0.346,
      "velocity": 0.63,
      "hand": "left"
    },
    {
      "midi": 72,
      "time": 12.692,
      "duration": 0.346,
      "velocity": 0.63,
      "hand": "right"
    },
    {
      "midi": 57,
      "time": 12.923,
      "duration": 0.115,
      "velocity": 0.63,
      "hand": "left"
    },
    {
      "midi": 62,
      "time": 12.923,
      "duration": 0.115,
      "velocity": 0.63,
      "hand": "right"
    },
    {
      "midi": 71,
      "time": 12.923,
      "duration": 0.115,
      "velocity": 0.63,
      "hand": "right"
    },
    {
      "midi": 50,
      "time": 13.154,
      "duration": 0.346,
      "velocity": 0.63,
      "hand": "left"
    },
    {
      "midi": 72,
      "time": 13.154,
      "duration": 0.346,
      "velocity": 0.63,
      "hand": "right"
    },
    {
      "midi": 57,
      "time": 13.384,
      "duration": 0.115,
      "velocity": 0.63,
      "hand": "left"
    },
    {
      "midi": 62,
      "time": 13.384,
      "duration": 0.115,
      "velocity": 0.63,
      "hand": "right"
    },
    {
      "midi": 74,
      "time": 13.384,
      "duration": 0.115,
      "velocity": 0.63,
      "hand": "right"
    },
    {
      "midi": 55,
      "time": 13.615,
      "duration": 0.346,
      "velocity": 0.63,
      "hand": "left"
    },
    {
      "midi": 67,
      "time": 13.615,
      "duration": 0.908,
      "velocity": 0.63,
      "hand": "right"
    },
    {
      "midi": 71,
      "time": 13.615,
      "duration": 0.908,
      "velocity": 0.63,
      "hand": "right"
    },
    {
      "midi": 59,
      "time": 13.846,
      "duration": 0.115,
      "velocity": 0.63,
      "hand": "left"
    },
    {
      "midi": 62,
      "time": 13.846,
      "duration": 0.115,
      "velocity": 0.63,
      "hand": "right"
    },
    {
      "midi": 50,
      "time": 14.077,
      "duration": 0.346,
      "velocity": 0.63,
      "hand": "left"
    },
    {
      "midi": 59,
      "time": 14.307,
      "duration": 0.115,
      "velocity": 0.63,
      "hand": "left"
    },
    {
      "midi": 62,
      "time": 14.307,
      "duration": 0.115,
      "velocity": 0.63,
      "hand": "right"
    },
    {
      "midi": 43,
      "time": 14.538,
      "duration": 0.692,
      "velocity": 0.63,
      "hand": "left"
    },
    {
      "midi": 55,
      "time": 14.538,
      "duration": 0.692,
      "velocity": 0.63,
      "hand": "left"
    },
    {
      "midi": 67,
      "time": 14.538,
      "duration": 6.678,
      "velocity": 0.63,
      "hand": "right"
    },
    {
      "midi": 71,
      "time": 14.538,
      "duration": 1.139,
      "velocity": 0.63,
      "hand": "right"
    },
    {
      "midi": 74,
      "time": 14.769,
      "duration": 0.115,
      "velocity": 0.63,
      "hand": "right"
    },
    {
      "midi": 74,
      "time": 15,
      "duration": 0.216,
      "velocity": 0.63,
      "hand": "right"
    },
    {
      "midi": 74,
      "time": 15.231,
      "duration": 0.115,
      "velocity": 0.63,
      "hand": "right"
    },
    {
      "midi": 55,
      "time": 15.461,
      "duration": 0.346,
      "velocity": 0.63,
      "hand": "left"
    },
    {
      "midi": 79,
      "time": 15.461,
      "duration": 1.269,
      "velocity": 0.63,
      "hand": "right"
    },
    {
      "midi": 59,
      "time": 15.692,
      "duration": 0.115,
      "velocity": 0.63,
      "hand": "left"
    },
    {
      "midi": 62,
      "time": 15.692,
      "duration": 0.115,
      "velocity": 0.63,
      "hand": "right"
    },
    {
      "midi": 71,
      "time": 15.692,
      "duration": 0.447,
      "velocity": 0.63,
      "hand": "right"
    },
    {
      "midi": 74,
      "time": 15.692,
      "duration": 0.115,
      "velocity": 0.63,
      "hand": "right"
    },
    {
      "midi": 50,
      "time": 15.923,
      "duration": 0.346,
      "velocity": 0.63,
      "hand": "left"
    },
    {
      "midi": 59,
      "time": 16.154,
      "duration": 0.115,
      "velocity": 0.63,
      "hand": "left"
    },
    {
      "midi": 62,
      "time": 16.154,
      "duration": 0.115,
      "velocity": 0.63,
      "hand": "right"
    },
    {
      "midi": 71,
      "time": 16.154,
      "duration": 5.062,
      "velocity": 0.63,
      "hand": "right"
    },
    {
      "midi": 74,
      "time": 16.154,
      "duration": 0.115,
      "velocity": 0.63,
      "hand": "right"
    },
    {
      "midi": 55,
      "time": 16.384,
      "duration": 0.346,
      "velocity": 0.63,
      "hand": "left"
    },
    {
      "midi": 59,
      "time": 16.615,
      "duration": 0.115,
      "velocity": 0.63,
      "hand": "left"
    },
    {
      "midi": 62,
      "time": 16.615,
      "duration": 0.115,
      "velocity": 0.63,
      "hand": "right"
    },
    {
      "midi": 78,
      "time": 16.615,
      "duration": 0.115,
      "velocity": 0.63,
      "hand": "right"
    },
    {
      "midi": 50,
      "time": 16.846,
      "duration": 0.346,
      "velocity": 0.63,
      "hand": "left"
    },
    {
      "midi": 76,
      "time": 16.846,
      "duration": 0.346,
      "velocity": 0.63,
      "hand": "right"
    },
    {
      "midi": 59,
      "time": 17.077,
      "duration": 0.115,
      "velocity": 0.63,
      "hand": "left"
    },
    {
      "midi": 62,
      "time": 17.077,
      "duration": 0.115,
      "velocity": 0.63,
      "hand": "right"
    },
    {
      "midi": 74,
      "time": 17.077,
      "duration": 0.115,
      "velocity": 0.63,
      "hand": "right"
    },
    {
      "midi": 54,
      "time": 17.307,
      "duration": 0.346,
      "velocity": 0.63,
      "hand": "left"
    },
    {
      "midi": 78,
      "time": 17.307,
      "duration": 1.269,
      "velocity": 0.63,
      "hand": "right"
    },
    {
      "midi": 57,
      "time": 17.538,
      "duration": 0.115,
      "velocity": 0.63,
      "hand": "left"
    },
    {
      "midi": 62,
      "time": 17.538,
      "duration": 0.115,
      "velocity": 0.63,
      "hand": "right"
    },
    {
      "midi": 69,
      "time": 17.538,
      "duration": 0.115,
      "velocity": 0.63,
      "hand": "right"
    },
    {
      "midi": 72,
      "time": 17.538,
      "duration": 0.115,
      "velocity": 0.63,
      "hand": "right"
    },
    {
      "midi": 50,
      "time": 17.769,
      "duration": 0.346,
      "velocity": 0.63,
      "hand": "left"
    },
    {
      "midi": 57,
      "time": 18,
      "duration": 0.115,
      "velocity": 0.63,
      "hand": "left"
    },
    {
      "midi": 62,
      "time": 18,
      "duration": 0.115,
      "velocity": 0.63,
      "hand": "right"
    },
    {
      "midi": 69,
      "time": 18,
      "duration": 0.115,
      "velocity": 0.63,
      "hand": "right"
    },
    {
      "midi": 72,
      "time": 18,
      "duration": 0.115,
      "velocity": 0.63,
      "hand": "right"
    },
    {
      "midi": 54,
      "time": 18.231,
      "duration": 0.346,
      "velocity": 0.63,
      "hand": "left"
    },
    {
      "midi": 57,
      "time": 18.461,
      "duration": 0.115,
      "velocity": 0.63,
      "hand": "left"
    },
    {
      "midi": 62,
      "time": 18.461,
      "duration": 0.115,
      "velocity": 0.63,
      "hand": "right"
    },
    {
      "midi": 74,
      "time": 18.461,
      "duration": 0.115,
      "velocity": 0.63,
      "hand": "right"
    },
    {
      "midi": 50,
      "time": 18.692,
      "duration": 0.346,
      "velocity": 0.63,
      "hand": "left"
    },
    {
      "midi": 74,
      "time": 18.692,
      "duration": 0.216,
      "velocity": 0.63,
      "hand": "right"
    },
    {
      "midi": 57,
      "time": 18.923,
      "duration": 0.115,
      "velocity": 0.63,
      "hand": "left"
    },
    {
      "midi": 62,
      "time": 18.923,
      "duration": 0.115,
      "velocity": 0.63,
      "hand": "right"
    },
    {
      "midi": 74,
      "time": 18.923,
      "duration": 0.115,
      "velocity": 0.63,
      "hand": "right"
    },
    {
      "midi": 54,
      "time": 19.154,
      "duration": 0.346,
      "velocity": 0.63,
      "hand": "left"
    },
    {
      "midi": 78,
      "time": 19.154,
      "duration": 1.269,
      "velocity": 0.63,
      "hand": "right"
    },
    {
      "midi": 57,
      "time": 19.384,
      "duration": 0.115,
      "velocity": 0.63,
      "hand": "left"
    },
    {
      "midi": 62,
      "time": 19.384,
      "duration": 0.115,
      "velocity": 0.63,
      "hand": "right"
    },
    {
      "midi": 69,
      "time": 19.384,
      "duration": 0.115,
      "velocity": 0.63,
      "hand": "right"
    },
    {
      "midi": 72,
      "time": 19.384,
      "duration": 0.115,
      "velocity": 0.63,
      "hand": "right"
    },
    {
      "midi": 50,
      "time": 19.615,
      "duration": 0.346,
      "velocity": 0.63,
      "hand": "left"
    },
    {
      "midi": 57,
      "time": 19.846,
      "duration": 0.115,
      "velocity": 0.63,
      "hand": "left"
    },
    {
      "midi": 62,
      "time": 19.846,
      "duration": 0.115,
      "velocity": 0.63,
      "hand": "right"
    },
    {
      "midi": 69,
      "time": 19.846,
      "duration": 0.115,
      "velocity": 0.63,
      "hand": "right"
    },
    {
      "midi": 72,
      "time": 19.846,
      "duration": 0.115,
      "velocity": 0.63,
      "hand": "right"
    },
    {
      "midi": 54,
      "time": 20.077,
      "duration": 0.346,
      "velocity": 0.63,
      "hand": "left"
    },
    {
      "midi": 57,
      "time": 20.307,
      "duration": 0.115,
      "velocity": 0.63,
      "hand": "left"
    },
    {
      "midi": 62,
      "time": 20.307,
      "duration": 0.115,
      "velocity": 0.63,
      "hand": "right"
    },
    {
      "midi": 76,
      "time": 20.307,
      "duration": 0.115,
      "velocity": 0.63,
      "hand": "right"
    },
    {
      "midi": 50,
      "time": 20.538,
      "duration": 0.346,
      "velocity": 0.63,
      "hand": "left"
    },
    {
      "midi": 74,
      "time": 20.538,
      "duration": 0.346,
      "velocity": 0.63,
      "hand": "right"
    },
    {
      "midi": 57,
      "time": 20.769,
      "duration": 0.115,
      "velocity": 0.63,
      "hand": "left"
    },
    {
      "midi": 62,
      "time": 20.769,
      "duration": 0.115,
      "velocity": 0.63,
      "hand": "right"
    },
    {
      "midi": 72,
      "time": 20.769,
      "duration": 0.115,
      "velocity": 0.63,
      "hand": "right"
    },
    {
      "midi": 55,
      "time": 21,
      "duration": 0.346,
      "velocity": 0.63,
      "hand": "left"
    },
    {
      "midi": 76,
      "time": 21,
      "duration": 1.269,
      "velocity": 0.63,
      "hand": "right"
    },
    {
      "midi": 59,
      "time": 21.231,
      "duration": 0.115,
      "velocity": 0.63,
      "hand": "left"
    },
    {
      "midi": 62,
      "time": 21.231,
      "duration": 0.115,
      "velocity": 0.63,
      "hand": "right"
    },
    {
      "midi": 67,
      "time": 21.231,
      "duration": 0.446,
      "velocity": 0.63,
      "hand": "right"
    },
    {
      "midi": 71,
      "time": 21.231,
      "duration": 0.446,
      "velocity": 0.63,
      "hand": "right"
    },
    {
      "midi": 50,
      "time": 21.461,
      "duration": 0.346,
      "velocity": 0.63,
      "hand": "left"
    },
    {
      "midi": 59,
      "time": 21.692,
      "duration": 0.115,
      "velocity": 0.63,
      "hand": "left"
    },
    {
      "midi": 62,
      "time": 21.692,
      "duration": 0.115,
      "velocity": 0.63,
      "hand": "right"
    },
    {
      "midi": 67,
      "time": 21.692,
      "duration": 6.677,
      "velocity": 0.63,
      "hand": "right"
    },
    {
      "midi": 71,
      "time": 21.692,
      "duration": 1.37,
      "velocity": 0.63,
      "hand": "right"
    },
    {
      "midi": 55,
      "time": 21.923,
      "duration": 0.346,
      "velocity": 0.63,
      "hand": "left"
    },
    {
      "midi": 59,
      "time": 22.154,
      "duration": 0.115,
      "velocity": 0.63,
      "hand": "left"
    },
    {
      "midi": 62,
      "time": 22.154,
      "duration": 0.115,
      "velocity": 0.63,
      "hand": "right"
    },
    {
      "midi": 74,
      "time": 22.154,
      "duration": 0.115,
      "velocity": 0.63,
      "hand": "right"
    },
    {
      "midi": 50,
      "time": 22.384,
      "duration": 0.346,
      "velocity": 0.63,
      "hand": "left"
    },
    {
      "midi": 74,
      "time": 22.384,
      "duration": 0.216,
      "velocity": 0.63,
      "hand": "right"
    },
    {
      "midi": 59,
      "time": 22.615,
      "duration": 0.115,
      "velocity": 0.63,
      "hand": "left"
    },
    {
      "midi": 62,
      "time": 22.615,
      "duration": 0.115,
      "velocity": 0.63,
      "hand": "right"
    },
    {
      "midi": 74,
      "time": 22.615,
      "duration": 0.115,
      "velocity": 0.63,
      "hand": "right"
    },
    {
      "midi": 55,
      "time": 22.846,
      "duration": 0.346,
      "velocity": 0.63,
      "hand": "left"
    },
    {
      "midi": 79,
      "time": 22.846,
      "duration": 1.269,
      "velocity": 0.63,
      "hand": "right"
    },
    {
      "midi": 59,
      "time": 23.077,
      "duration": 0.115,
      "velocity": 0.63,
      "hand": "left"
    },
    {
      "midi": 62,
      "time": 23.077,
      "duration": 0.115,
      "velocity": 0.63,
      "hand": "right"
    },
    {
      "midi": 71,
      "time": 23.077,
      "duration": 0.446,
      "velocity": 0.63,
      "hand": "right"
    },
    {
      "midi": 74,
      "time": 23.077,
      "duration": 0.115,
      "velocity": 0.63,
      "hand": "right"
    },
    {
      "midi": 50,
      "time": 23.307,
      "duration": 0.346,
      "velocity": 0.63,
      "hand": "left"
    },
    {
      "midi": 59,
      "time": 23.538,
      "duration": 0.115,
      "velocity": 0.63,
      "hand": "left"
    },
    {
      "midi": 62,
      "time": 23.538,
      "duration": 0.115,
      "velocity": 0.63,
      "hand": "right"
    },
    {
      "midi": 71,
      "time": 23.538,
      "duration": 4.831,
      "velocity": 0.63,
      "hand": "right"
    },
    {
      "midi": 74,
      "time": 23.538,
      "duration": 0.115,
      "velocity": 0.63,
      "hand": "right"
    },
    {
      "midi": 55,
      "time": 23.769,
      "duration": 0.346,
      "velocity": 0.63,
      "hand": "left"
    },
    {
      "midi": 59,
      "time": 24,
      "duration": 0.115,
      "velocity": 0.63,
      "hand": "left"
    },
    {
      "midi": 62,
      "time": 24,
      "duration": 0.115,
      "velocity": 0.63,
      "hand": "right"
    },
    {
      "midi": 78,
      "time": 24,
      "duration": 0.115,
      "velocity": 0.63,
      "hand": "right"
    },
    {
      "midi": 50,
      "time": 24.231,
      "duration": 0.346,
      "velocity": 0.63,
      "hand": "left"
    },
    {
      "midi": 76,
      "time": 24.231,
      "duration": 0.346,
      "velocity": 0.63,
      "hand": "right"
    },
    {
      "midi": 59,
      "time": 24.461,
      "duration": 0.115,
      "velocity": 0.63,
      "hand": "left"
    },
    {
      "midi": 62,
      "time": 24.461,
      "duration": 0.115,
      "velocity": 0.63,
      "hand": "right"
    },
    {
      "midi": 74,
      "time": 24.461,
      "duration": 0.115,
      "velocity": 0.63,
      "hand": "right"
    },
    {
      "midi": 54,
      "time": 24.692,
      "duration": 0.346,
      "velocity": 0.63,
      "hand": "left"
    },
    {
      "midi": 78,
      "time": 24.692,
      "duration": 1.269,
      "velocity": 0.63,
      "hand": "right"
    },
    {
      "midi": 57,
      "time": 24.923,
      "duration": 0.115,
      "velocity": 0.63,
      "hand": "left"
    },
    {
      "midi": 62,
      "time": 24.923,
      "duration": 0.115,
      "velocity": 0.63,
      "hand": "right"
    },
    {
      "midi": 69,
      "time": 24.923,
      "duration": 0.115,
      "velocity": 0.63,
      "hand": "right"
    },
    {
      "midi": 72,
      "time": 24.923,
      "duration": 0.115,
      "velocity": 0.63,
      "hand": "right"
    },
    {
      "midi": 50,
      "time": 25.154,
      "duration": 0.346,
      "velocity": 0.63,
      "hand": "left"
    },
    {
      "midi": 57,
      "time": 25.384,
      "duration": 0.115,
      "velocity": 0.63,
      "hand": "left"
    },
    {
      "midi": 62,
      "time": 25.384,
      "duration": 0.115,
      "velocity": 0.63,
      "hand": "right"
    },
    {
      "midi": 69,
      "time": 25.384,
      "duration": 0.115,
      "velocity": 0.63,
      "hand": "right"
    },
    {
      "midi": 72,
      "time": 25.384,
      "duration": 0.115,
      "velocity": 0.63,
      "hand": "right"
    },
    {
      "midi": 54,
      "time": 25.615,
      "duration": 0.346,
      "velocity": 0.63,
      "hand": "left"
    },
    {
      "midi": 57,
      "time": 25.846,
      "duration": 0.115,
      "velocity": 0.63,
      "hand": "left"
    },
    {
      "midi": 62,
      "time": 25.846,
      "duration": 0.115,
      "velocity": 0.63,
      "hand": "right"
    },
    {
      "midi": 74,
      "time": 25.846,
      "duration": 0.115,
      "velocity": 0.63,
      "hand": "right"
    },
    {
      "midi": 50,
      "time": 26.077,
      "duration": 0.346,
      "velocity": 0.63,
      "hand": "left"
    },
    {
      "midi": 74,
      "time": 26.077,
      "duration": 0.215,
      "velocity": 0.63,
      "hand": "right"
    },
    {
      "midi": 57,
      "time": 26.307,
      "duration": 0.115,
      "velocity": 0.63,
      "hand": "left"
    },
    {
      "midi": 62,
      "time": 26.307,
      "duration": 0.115,
      "velocity": 0.63,
      "hand": "right"
    },
    {
      "midi": 74,
      "time": 26.307,
      "duration": 0.115,
      "velocity": 0.63,
      "hand": "right"
    },
    {
      "midi": 54,
      "time": 26.538,
      "duration": 0.346,
      "velocity": 0.63,
      "hand": "left"
    },
    {
      "midi": 78,
      "time": 26.538,
      "duration": 1.269,
      "velocity": 0.63,
      "hand": "right"
    },
    {
      "midi": 57,
      "time": 26.769,
      "duration": 0.115,
      "velocity": 0.63,
      "hand": "left"
    },
    {
      "midi": 62,
      "time": 26.769,
      "duration": 0.115,
      "velocity": 0.63,
      "hand": "right"
    },
    {
      "midi": 69,
      "time": 26.769,
      "duration": 0.115,
      "velocity": 0.63,
      "hand": "right"
    },
    {
      "midi": 72,
      "time": 26.769,
      "duration": 0.115,
      "velocity": 0.63,
      "hand": "right"
    },
    {
      "midi": 50,
      "time": 27,
      "duration": 0.346,
      "velocity": 0.63,
      "hand": "left"
    },
    {
      "midi": 57,
      "time": 27.231,
      "duration": 0.115,
      "velocity": 0.63,
      "hand": "left"
    },
    {
      "midi": 62,
      "time": 27.231,
      "duration": 0.115,
      "velocity": 0.63,
      "hand": "right"
    },
    {
      "midi": 69,
      "time": 27.231,
      "duration": 0.115,
      "velocity": 0.63,
      "hand": "right"
    },
    {
      "midi": 72,
      "time": 27.231,
      "duration": 0.115,
      "velocity": 0.63,
      "hand": "right"
    },
    {
      "midi": 54,
      "time": 27.461,
      "duration": 0.346,
      "velocity": 0.63,
      "hand": "left"
    },
    {
      "midi": 57,
      "time": 27.692,
      "duration": 0.115,
      "velocity": 0.63,
      "hand": "left"
    },
    {
      "midi": 62,
      "time": 27.692,
      "duration": 0.115,
      "velocity": 0.63,
      "hand": "right"
    },
    {
      "midi": 76,
      "time": 27.692,
      "duration": 0.115,
      "velocity": 0.63,
      "hand": "right"
    },
    {
      "midi": 50,
      "time": 27.923,
      "duration": 0.346,
      "velocity": 0.63,
      "hand": "left"
    },
    {
      "midi": 74,
      "time": 27.923,
      "duration": 0.346,
      "velocity": 0.63,
      "hand": "right"
    },
    {
      "midi": 57,
      "time": 28.154,
      "duration": 0.115,
      "velocity": 0.63,
      "hand": "left"
    },
    {
      "midi": 62,
      "time": 28.154,
      "duration": 0.115,
      "velocity": 0.63,
      "hand": "right"
    },
    {
      "midi": 72,
      "time": 28.154,
      "duration": 0.115,
      "velocity": 0.63,
      "hand": "right"
    },
    {
      "midi": 43,
      "time": 28.384,
      "duration": 0.346,
      "velocity": 0.63,
      "hand": "left"
    },
    {
      "midi": 55,
      "time": 28.384,
      "duration": 0.346,
      "velocity": 0.63,
      "hand": "left"
    },
    {
      "midi": 67,
      "time": 28.384,
      "duration": 7.37,
      "velocity": 0.63,
      "hand": "right"
    },
    {
      "midi": 71,
      "time": 28.384,
      "duration": 1.832,
      "velocity": 0.63,
      "hand": "right"
    },
    {
      "midi": 52,
      "time": 28.615,
      "duration": 0.115,
      "velocity": 0.63,
      "hand": "left"
    },
    {
      "midi": 50,
      "time": 28.846,
      "duration": 0.346,
      "velocity": 0.63,
      "hand": "left"
    },
    {
      "midi": 47,
      "time": 29.077,
      "duration": 0.115,
      "velocity": 0.63,
      "hand": "left"
    },
    {
      "midi": 43,
      "time": 29.307,
      "duration": 0.346,
      "velocity": 0.63,
      "hand": "left"
    },
    {
      "midi": 47,
      "time": 29.538,
      "duration": 0.115,
      "velocity": 0.63,
      "hand": "left"
    },
    {
      "midi": 52,
      "time": 29.538,
      "duration": 0.115,
      "velocity": 0.63,
      "hand": "left"
    },
    {
      "midi": 74,
      "time": 29.538,
      "duration": 0.115,
      "velocity": 0.63,
      "hand": "right"
    },
    {
      "midi": 74,
      "time": 29.769,
      "duration": 0.216,
      "velocity": 0.63,
      "hand": "right"
    },
    {
      "midi": 74,
      "time": 30,
      "duration": 0.115,
      "velocity": 0.63,
      "hand": "right"
    },
    {
      "midi": 55,
      "time": 30.231,
      "duration": 0.346,
      "velocity": 0.63,
      "hand": "left"
    },
    {
      "midi": 71,
      "time": 30.231,
      "duration": 1.6,
      "velocity": 0.63,
      "hand": "right"
    },
    {
      "midi": 59,
      "time": 30.461,
      "duration": 0.115,
      "velocity": 0.63,
      "hand": "left"
    },
    {
      "midi": 62,
      "time": 30.461,
      "duration": 0.115,
      "velocity": 0.63,
      "hand": "right"
    },
    {
      "midi": 74,
      "time": 30.461,
      "duration": 0.115,
      "velocity": 0.63,
      "hand": "right"
    },
    {
      "midi": 50,
      "time": 30.692,
      "duration": 0.346,
      "velocity": 0.63,
      "hand": "left"
    },
    {
      "midi": 74,
      "time": 30.692,
      "duration": 0.216,
      "velocity": 0.63,
      "hand": "right"
    },
    {
      "midi": 59,
      "time": 30.923,
      "duration": 0.115,
      "velocity": 0.63,
      "hand": "left"
    },
    {
      "midi": 62,
      "time": 30.923,
      "duration": 0.115,
      "velocity": 0.63,
      "hand": "right"
    },
    {
      "midi": 74,
      "time": 30.923,
      "duration": 0.115,
      "velocity": 0.63,
      "hand": "right"
    },
    {
      "midi": 55,
      "time": 31.154,
      "duration": 0.346,
      "velocity": 0.63,
      "hand": "left"
    },
    {
      "midi": 76,
      "time": 31.154,
      "duration": 0.346,
      "velocity": 0.63,
      "hand": "right"
    },
    {
      "midi": 59,
      "time": 31.384,
      "duration": 0.115,
      "velocity": 0.63,
      "hand": "left"
    },
    {
      "midi": 62,
      "time": 31.384,
      "duration": 0.115,
      "velocity": 0.63,
      "hand": "right"
    },
    {
      "midi": 74,
      "time": 31.384,
      "duration": 0.115,
      "velocity": 0.63,
      "hand": "right"
    },
    {
      "midi": 50,
      "time": 31.615,
      "duration": 0.346,
      "velocity": 0.63,
      "hand": "left"
    },
    {
      "midi": 72,
      "time": 31.615,
      "duration": 0.346,
      "velocity": 0.63,
      "hand": "right"
    },
    {
      "midi": 59,
      "time": 31.846,
      "duration": 0.115,
      "velocity": 0.63,
      "hand": "left"
    },
    {
      "midi": 62,
      "time": 31.846,
      "duration": 0.115,
      "velocity": 0.63,
      "hand": "right"
    },
    {
      "midi": 71,
      "time": 31.846,
      "duration": 1.831,
      "velocity": 0.63,
      "hand": "right"
    },
    {
      "midi": 54,
      "time": 32.077,
      "duration": 0.346,
      "velocity": 0.63,
      "hand": "left"
    },
    {
      "midi": 74,
      "time": 32.077,
      "duration": 0.692,
      "velocity": 0.63,
      "hand": "right"
    },
    {
      "midi": 57,
      "time": 32.307,
      "duration": 0.115,
      "velocity": 0.63,
      "hand": "left"
    },
    {
      "midi": 62,
      "time": 32.307,
      "duration": 0.115,
      "velocity": 0.63,
      "hand": "right"
    },
    {
      "midi": 50,
      "time": 32.538,
      "duration": 0.346,
      "velocity": 0.63,
      "hand": "left"
    },
    {
      "midi": 69,
      "time": 32.538,
      "duration": 0.678,
      "velocity": 0.63,
      "hand": "right"
    },
    {
      "midi": 57,
      "time": 32.769,
      "duration": 0.115,
      "velocity": 0.63,
      "hand": "left"
    },
    {
      "midi": 62,
      "time": 32.769,
      "duration": 0.115,
      "velocity": 0.63,
      "hand": "right"
    },
    {
      "midi": 54,
      "time": 33,
      "duration": 0.346,
      "velocity": 0.63,
      "hand": "left"
    },
    {
      "midi": 57,
      "time": 33.231,
      "duration": 0.115,
      "velocity": 0.63,
      "hand": "left"
    },
    {
      "midi": 62,
      "time": 33.231,
      "duration": 0.115,
      "velocity": 0.63,
      "hand": "right"
    },
    {
      "midi": 69,
      "time": 33.231,
      "duration": 0.115,
      "velocity": 0.63,
      "hand": "right"
    },
    {
      "midi": 50,
      "time": 33.461,
      "duration": 0.346,
      "velocity": 0.63,
      "hand": "left"
    },
    {
      "midi": 69,
      "time": 33.461,
      "duration": 0.346,
      "velocity": 0.63,
      "hand": "right"
    },
    {
      "midi": 57,
      "time": 33.692,
      "duration": 0.115,
      "velocity": 0.63,
      "hand": "left"
    },
    {
      "midi": 62,
      "time": 33.692,
      "duration": 0.115,
      "velocity": 0.63,
      "hand": "right"
    },
    {
      "midi": 71,
      "time": 33.692,
      "duration": 0.447,
      "velocity": 0.63,
      "hand": "right"
    },
    {
      "midi": 54,
      "time": 33.923,
      "duration": 0.346,
      "velocity": 0.63,
      "hand": "left"
    },
    {
      "midi": 72,
      "time": 33.923,
      "duration": 0.346,
      "velocity": 0.63,
      "hand": "right"
    },
    {
      "midi": 57,
      "time": 34.154,
      "duration": 0.115,
      "velocity": 0.63,
      "hand": "left"
    },
    {
      "midi": 62,
      "time": 34.154,
      "duration": 0.115,
      "velocity": 0.63,
      "hand": "right"
    },
    {
      "midi": 71,
      "time": 34.154,
      "duration": 0.446,
      "velocity": 0.63,
      "hand": "right"
    },
    {
      "midi": 50,
      "time": 34.384,
      "duration": 0.346,
      "velocity": 0.63,
      "hand": "left"
    },
    {
      "midi": 69,
      "time": 34.384,
      "duration": 0.346,
      "velocity": 0.63,
      "hand": "right"
    },
    {
      "midi": 57,
      "time": 34.615,
      "duration": 0.115,
      "velocity": 0.63,
      "hand": "left"
    },
    {
      "midi": 62,
      "time": 34.615,
      "duration": 0.115,
      "velocity": 0.63,
      "hand": "right"
    },
    {
      "midi": 71,
      "time": 34.615,
      "duration": 0.447,
      "velocity": 0.63,
      "hand": "right"
    },
    {
      "midi": 54,
      "time": 34.846,
      "duration": 0.346,
      "velocity": 0.63,
      "hand": "left"
    },
    {
      "midi": 72,
      "time": 34.846,
      "duration": 0.346,
      "velocity": 0.63,
      "hand": "right"
    },
    {
      "midi": 57,
      "time": 35.077,
      "duration": 0.115,
      "velocity": 0.63,
      "hand": "left"
    },
    {
      "midi": 62,
      "time": 35.077,
      "duration": 0.115,
      "velocity": 0.63,
      "hand": "right"
    },
    {
      "midi": 71,
      "time": 35.077,
      "duration": 0.677,
      "velocity": 0.63,
      "hand": "right"
    },
    {
      "midi": 50,
      "time": 35.307,
      "duration": 0.346,
      "velocity": 0.63,
      "hand": "left"
    },
    {
      "midi": 72,
      "time": 35.307,
      "duration": 0.346,
      "velocity": 0.63,
      "hand": "right"
    },
    {
      "midi": 57,
      "time": 35.538,
      "duration": 0.115,
      "velocity": 0.63,
      "hand": "left"
    },
    {
      "midi": 62,
      "time": 35.538,
      "duration": 0.115,
      "velocity": 0.63,
      "hand": "right"
    },
    {
      "midi": 74,
      "time": 35.538,
      "duration": 0.115,
      "velocity": 0.63,
      "hand": "right"
    },
    {
      "midi": 55,
      "time": 35.769,
      "duration": 0.346,
      "velocity": 0.63,
      "hand": "left"
    },
    {
      "midi": 67,
      "time": 35.769,
      "duration": 7.37,
      "velocity": 0.63,
      "hand": "right"
    },
    {
      "midi": 71,
      "time": 35.769,
      "duration": 1.831,
      "velocity": 0.63,
      "hand": "right"
    },
    {
      "midi": 59,
      "time": 36,
      "duration": 0.115,
      "velocity": 0.63,
      "hand": "left"
    },
    {
      "midi": 62,
      "time": 36,
      "duration": 0.115,
      "velocity": 0.63,
      "hand": "right"
    },
    {
      "midi": 50,
      "time": 36.231,
      "duration": 0.346,
      "velocity": 0.63,
      "hand": "left"
    },
    {
      "midi": 59,
      "time": 36.461,
      "duration": 0.115,
      "velocity": 0.63,
      "hand": "left"
    },
    {
      "midi": 62,
      "time": 36.461,
      "duration": 0.115,
      "velocity": 0.63,
      "hand": "right"
    },
    {
      "midi": 55,
      "time": 36.692,
      "duration": 0.346,
      "velocity": 0.63,
      "hand": "left"
    },
    {
      "midi": 59,
      "time": 36.923,
      "duration": 0.115,
      "velocity": 0.63,
      "hand": "left"
    },
    {
      "midi": 62,
      "time": 36.923,
      "duration": 0.115,
      "velocity": 0.63,
      "hand": "right"
    },
    {
      "midi": 74,
      "time": 36.923,
      "duration": 0.115,
      "velocity": 0.63,
      "hand": "right"
    },
    {
      "midi": 50,
      "time": 37.154,
      "duration": 0.346,
      "velocity": 0.63,
      "hand": "left"
    },
    {
      "midi": 74,
      "time": 37.154,
      "duration": 0.215,
      "velocity": 0.63,
      "hand": "right"
    },
    {
      "midi": 59,
      "time": 37.384,
      "duration": 0.115,
      "velocity": 0.63,
      "hand": "left"
    },
    {
      "midi": 62,
      "time": 37.384,
      "duration": 0.115,
      "velocity": 0.63,
      "hand": "right"
    },
    {
      "midi": 74,
      "time": 37.384,
      "duration": 0.115,
      "velocity": 0.63,
      "hand": "right"
    },
    {
      "midi": 55,
      "time": 37.615,
      "duration": 0.346,
      "velocity": 0.63,
      "hand": "left"
    },
    {
      "midi": 71,
      "time": 37.615,
      "duration": 1.601,
      "velocity": 0.63,
      "hand": "right"
    },
    {
      "midi": 59,
      "time": 37.846,
      "duration": 0.115,
      "velocity": 0.63,
      "hand": "left"
    },
    {
      "midi": 62,
      "time": 37.846,
      "duration": 0.115,
      "velocity": 0.63,
      "hand": "right"
    },
    {
      "midi": 74,
      "time": 37.846,
      "duration": 0.115,
      "velocity": 0.63,
      "hand": "right"
    },
    {
      "midi": 50,
      "time": 38.077,
      "duration": 0.346,
      "velocity": 0.63,
      "hand": "left"
    },
    {
      "midi": 74,
      "time": 38.077,
      "duration": 0.215,
      "velocity": 0.63,
      "hand": "right"
    },
    {
      "midi": 59,
      "time": 38.307,
      "duration": 0.115,
      "velocity": 0.63,
      "hand": "left"
    },
    {
      "midi": 62,
      "time": 38.307,
      "duration": 0.115,
      "velocity": 0.63,
      "hand": "right"
    },
    {
      "midi": 74,
      "time": 38.307,
      "duration": 0.115,
      "velocity": 0.63,
      "hand": "right"
    },
    {
      "midi": 55,
      "time": 38.538,
      "duration": 0.346,
      "velocity": 0.63,
      "hand": "left"
    },
    {
      "midi": 76,
      "time": 38.538,
      "duration": 0.346,
      "velocity": 0.63,
      "hand": "right"
    },
    {
      "midi": 59,
      "time": 38.769,
      "duration": 0.115,
      "velocity": 0.63,
      "hand": "left"
    },
    {
      "midi": 62,
      "time": 38.769,
      "duration": 0.115,
      "velocity": 0.63,
      "hand": "right"
    },
    {
      "midi": 74,
      "time": 38.769,
      "duration": 0.115,
      "velocity": 0.63,
      "hand": "right"
    },
    {
      "midi": 50,
      "time": 39,
      "duration": 0.346,
      "velocity": 0.63,
      "hand": "left"
    },
    {
      "midi": 72,
      "time": 39,
      "duration": 0.346,
      "velocity": 0.63,
      "hand": "right"
    },
    {
      "midi": 59,
      "time": 39.231,
      "duration": 0.115,
      "velocity": 0.63,
      "hand": "left"
    },
    {
      "midi": 62,
      "time": 39.231,
      "duration": 0.115,
      "velocity": 0.63,
      "hand": "right"
    },
    {
      "midi": 71,
      "time": 39.231,
      "duration": 1.831,
      "velocity": 0.63,
      "hand": "right"
    },
    {
      "midi": 54,
      "time": 39.461,
      "duration": 0.346,
      "velocity": 0.63,
      "hand": "left"
    },
    {
      "midi": 74,
      "time": 39.461,
      "duration": 0.692,
      "velocity": 0.63,
      "hand": "right"
    },
    {
      "midi": 57,
      "time": 39.692,
      "duration": 0.115,
      "velocity": 0.63,
      "hand": "left"
    },
    {
      "midi": 62,
      "time": 39.692,
      "duration": 0.115,
      "velocity": 0.63,
      "hand": "right"
    },
    {
      "midi": 50,
      "time": 39.923,
      "duration": 0.346,
      "velocity": 0.63,
      "hand": "left"
    },
    {
      "midi": 69,
      "time": 39.923,
      "duration": 0.677,
      "velocity": 0.63,
      "hand": "right"
    },
    {
      "midi": 57,
      "time": 40.154,
      "duration": 0.115,
      "velocity": 0.63,
      "hand": "left"
    },
    {
      "midi": 62,
      "time": 40.154,
      "duration": 0.115,
      "velocity": 0.63,
      "hand": "right"
    },
    {
      "midi": 54,
      "time": 40.384,
      "duration": 0.346,
      "velocity": 0.63,
      "hand": "left"
    },
    {
      "midi": 57,
      "time": 40.615,
      "duration": 0.115,
      "velocity": 0.63,
      "hand": "left"
    },
    {
      "midi": 62,
      "time": 40.615,
      "duration": 0.115,
      "velocity": 0.63,
      "hand": "right"
    },
    {
      "midi": 69,
      "time": 40.615,
      "duration": 0.115,
      "velocity": 0.63,
      "hand": "right"
    },
    {
      "midi": 50,
      "time": 40.846,
      "duration": 0.346,
      "velocity": 0.63,
      "hand": "left"
    },
    {
      "midi": 69,
      "time": 40.846,
      "duration": 0.346,
      "velocity": 0.63,
      "hand": "right"
    },
    {
      "midi": 57,
      "time": 41.077,
      "duration": 0.115,
      "velocity": 0.63,
      "hand": "left"
    },
    {
      "midi": 62,
      "time": 41.077,
      "duration": 0.115,
      "velocity": 0.63,
      "hand": "right"
    },
    {
      "midi": 71,
      "time": 41.077,
      "duration": 0.446,
      "velocity": 0.63,
      "hand": "right"
    },
    {
      "midi": 54,
      "time": 41.307,
      "duration": 0.346,
      "velocity": 0.63,
      "hand": "left"
    },
    {
      "midi": 72,
      "time": 41.307,
      "duration": 0.346,
      "velocity": 0.63,
      "hand": "right"
    },
    {
      "midi": 57,
      "time": 41.538,
      "duration": 0.115,
      "velocity": 0.63,
      "hand": "left"
    },
    {
      "midi": 62,
      "time": 41.538,
      "duration": 0.115,
      "velocity": 0.63,
      "hand": "right"
    },
    {
      "midi": 71,
      "time": 41.538,
      "duration": 0.447,
      "velocity": 0.63,
      "hand": "right"
    },
    {
      "midi": 50,
      "time": 41.769,
      "duration": 0.346,
      "velocity": 0.63,
      "hand": "left"
    },
    {
      "midi": 69,
      "time": 41.769,
      "duration": 0.346,
      "velocity": 0.63,
      "hand": "right"
    },
    {
      "midi": 57,
      "time": 42,
      "duration": 0.115,
      "velocity": 0.63,
      "hand": "left"
    },
    {
      "midi": 62,
      "time": 42,
      "duration": 0.115,
      "velocity": 0.63,
      "hand": "right"
    },
    {
      "midi": 71,
      "time": 42,
      "duration": 0.446,
      "velocity": 0.63,
      "hand": "right"
    },
    {
      "midi": 54,
      "time": 42.231,
      "duration": 0.346,
      "velocity": 0.63,
      "hand": "left"
    },
    {
      "midi": 72,
      "time": 42.231,
      "duration": 0.346,
      "velocity": 0.63,
      "hand": "right"
    },
    {
      "midi": 57,
      "time": 42.461,
      "duration": 0.115,
      "velocity": 0.63,
      "hand": "left"
    },
    {
      "midi": 62,
      "time": 42.461,
      "duration": 0.115,
      "velocity": 0.63,
      "hand": "right"
    },
    {
      "midi": 71,
      "time": 42.461,
      "duration": 0.678,
      "velocity": 0.63,
      "hand": "right"
    },
    {
      "midi": 50,
      "time": 42.692,
      "duration": 0.346,
      "velocity": 0.63,
      "hand": "left"
    },
    {
      "midi": 72,
      "time": 42.692,
      "duration": 0.346,
      "velocity": 0.63,
      "hand": "right"
    },
    {
      "midi": 57,
      "time": 42.923,
      "duration": 0.115,
      "velocity": 0.63,
      "hand": "left"
    },
    {
      "midi": 62,
      "time": 42.923,
      "duration": 0.115,
      "velocity": 0.63,
      "hand": "right"
    },
    {
      "midi": 74,
      "time": 42.923,
      "duration": 0.115,
      "velocity": 0.63,
      "hand": "right"
    },
    {
      "midi": 55,
      "time": 43.154,
      "duration": 0.346,
      "velocity": 0.63,
      "hand": "left"
    },
    {
      "midi": 67,
      "time": 43.154,
      "duration": 0.908,
      "velocity": 0.63,
      "hand": "right"
    },
    {
      "midi": 71,
      "time": 43.154,
      "duration": 0.908,
      "velocity": 0.63,
      "hand": "right"
    },
    {
      "midi": 59,
      "time": 43.384,
      "duration": 0.115,
      "velocity": 0.63,
      "hand": "left"
    },
    {
      "midi": 62,
      "time": 43.384,
      "duration": 0.115,
      "velocity": 0.63,
      "hand": "right"
    },
    {
      "midi": 50,
      "time": 43.615,
      "duration": 0.346,
      "velocity": 0.63,
      "hand": "left"
    },
    {
      "midi": 59,
      "time": 43.846,
      "duration": 0.115,
      "velocity": 0.63,
      "hand": "left"
    },
    {
      "midi": 62,
      "time": 43.846,
      "duration": 0.115,
      "velocity": 0.63,
      "hand": "right"
    },
    {
      "midi": 43,
      "time": 44.077,
      "duration": 0.692,
      "velocity": 0.63,
      "hand": "left"
    },
    {
      "midi": 55,
      "time": 44.077,
      "duration": 0.692,
      "velocity": 0.63,
      "hand": "left"
    },
    {
      "midi": 67,
      "time": 44.077,
      "duration": 6.792,
      "velocity": 0.63,
      "hand": "right"
    },
    {
      "midi": 71,
      "time": 44.077,
      "duration": 1.139,
      "velocity": 0.63,
      "hand": "right"
    },
    {
      "midi": 74,
      "time": 44.307,
      "duration": 0.115,
      "velocity": 0.63,
      "hand": "right"
    },
    {
      "midi": 74,
      "time": 44.538,
      "duration": 0.216,
      "velocity": 0.63,
      "hand": "right"
    },
    {
      "midi": 74,
      "time": 44.769,
      "duration": 0.115,
      "velocity": 0.63,
      "hand": "right"
    },
    {
      "midi": 55,
      "time": 45,
      "duration": 0.346,
      "velocity": 0.63,
      "hand": "left"
    },
    {
      "midi": 79,
      "time": 45,
      "duration": 1.269,
      "velocity": 0.63,
      "hand": "right"
    },
    {
      "midi": 59,
      "time": 45.231,
      "duration": 0.115,
      "velocity": 0.63,
      "hand": "left"
    },
    {
      "midi": 62,
      "time": 45.231,
      "duration": 0.115,
      "velocity": 0.63,
      "hand": "right"
    },
    {
      "midi": 71,
      "time": 45.231,
      "duration": 0.446,
      "velocity": 0.63,
      "hand": "right"
    },
    {
      "midi": 74,
      "time": 45.231,
      "duration": 0.115,
      "velocity": 0.63,
      "hand": "right"
    },
    {
      "midi": 50,
      "time": 45.461,
      "duration": 0.346,
      "velocity": 0.63,
      "hand": "left"
    },
    {
      "midi": 59,
      "time": 45.692,
      "duration": 0.115,
      "velocity": 0.63,
      "hand": "left"
    },
    {
      "midi": 62,
      "time": 45.692,
      "duration": 0.115,
      "velocity": 0.63,
      "hand": "right"
    },
    {
      "midi": 71,
      "time": 45.692,
      "duration": 5.177,
      "velocity": 0.63,
      "hand": "right"
    },
    {
      "midi": 74,
      "time": 45.692,
      "duration": 0.115,
      "velocity": 0.63,
      "hand": "right"
    },
    {
      "midi": 55,
      "time": 45.923,
      "duration": 0.346,
      "velocity": 0.63,
      "hand": "left"
    },
    {
      "midi": 59,
      "time": 46.154,
      "duration": 0.115,
      "velocity": 0.63,
      "hand": "left"
    },
    {
      "midi": 62,
      "time": 46.154,
      "duration": 0.115,
      "velocity": 0.63,
      "hand": "right"
    },
    {
      "midi": 78,
      "time": 46.154,
      "duration": 0.115,
      "velocity": 0.63,
      "hand": "right"
    },
    {
      "midi": 50,
      "time": 46.384,
      "duration": 0.346,
      "velocity": 0.63,
      "hand": "left"
    },
    {
      "midi": 76,
      "time": 46.384,
      "duration": 0.346,
      "velocity": 0.63,
      "hand": "right"
    },
    {
      "midi": 59,
      "time": 46.615,
      "duration": 0.115,
      "velocity": 0.63,
      "hand": "left"
    },
    {
      "midi": 62,
      "time": 46.615,
      "duration": 0.115,
      "velocity": 0.63,
      "hand": "right"
    },
    {
      "midi": 74,
      "time": 46.615,
      "duration": 0.115,
      "velocity": 0.63,
      "hand": "right"
    },
    {
      "midi": 54,
      "time": 46.846,
      "duration": 0.346,
      "velocity": 0.63,
      "hand": "left"
    },
    {
      "midi": 78,
      "time": 46.846,
      "duration": 1.269,
      "velocity": 0.63,
      "hand": "right"
    },
    {
      "midi": 57,
      "time": 47.077,
      "duration": 0.115,
      "velocity": 0.63,
      "hand": "left"
    },
    {
      "midi": 62,
      "time": 47.077,
      "duration": 0.115,
      "velocity": 0.63,
      "hand": "right"
    },
    {
      "midi": 69,
      "time": 47.077,
      "duration": 0.115,
      "velocity": 0.63,
      "hand": "right"
    },
    {
      "midi": 72,
      "time": 47.077,
      "duration": 0.115,
      "velocity": 0.63,
      "hand": "right"
    },
    {
      "midi": 50,
      "time": 47.307,
      "duration": 0.346,
      "velocity": 0.63,
      "hand": "left"
    },
    {
      "midi": 57,
      "time": 47.538,
      "duration": 0.115,
      "velocity": 0.63,
      "hand": "left"
    },
    {
      "midi": 62,
      "time": 47.538,
      "duration": 0.115,
      "velocity": 0.63,
      "hand": "right"
    },
    {
      "midi": 69,
      "time": 47.538,
      "duration": 0.115,
      "velocity": 0.63,
      "hand": "right"
    },
    {
      "midi": 72,
      "time": 47.538,
      "duration": 0.115,
      "velocity": 0.63,
      "hand": "right"
    },
    {
      "midi": 54,
      "time": 47.769,
      "duration": 0.346,
      "velocity": 0.63,
      "hand": "left"
    },
    {
      "midi": 57,
      "time": 48,
      "duration": 0.115,
      "velocity": 0.63,
      "hand": "left"
    },
    {
      "midi": 62,
      "time": 48,
      "duration": 0.115,
      "velocity": 0.63,
      "hand": "right"
    },
    {
      "midi": 74,
      "time": 48,
      "duration": 0.115,
      "velocity": 0.63,
      "hand": "right"
    },
    {
      "midi": 50,
      "time": 48.346,
      "duration": 0.346,
      "velocity": 0.63,
      "hand": "left"
    },
    {
      "midi": 74,
      "time": 48.346,
      "duration": 0.216,
      "velocity": 0.63,
      "hand": "right"
    },
    {
      "midi": 57,
      "time": 48.577,
      "duration": 0.115,
      "velocity": 0.63,
      "hand": "left"
    },
    {
      "midi": 62,
      "time": 48.577,
      "duration": 0.115,
      "velocity": 0.63,
      "hand": "right"
    },
    {
      "midi": 74,
      "time": 48.577,
      "duration": 0.115,
      "velocity": 0.63,
      "hand": "right"
    },
    {
      "midi": 54,
      "time": 48.807,
      "duration": 0.346,
      "velocity": 0.63,
      "hand": "left"
    },
    {
      "midi": 78,
      "time": 48.807,
      "duration": 1.269,
      "velocity": 0.63,
      "hand": "right"
    },
    {
      "midi": 57,
      "time": 49.038,
      "duration": 0.115,
      "velocity": 0.63,
      "hand": "left"
    },
    {
      "midi": 62,
      "time": 49.038,
      "duration": 0.115,
      "velocity": 0.63,
      "hand": "right"
    },
    {
      "midi": 69,
      "time": 49.038,
      "duration": 0.115,
      "velocity": 0.63,
      "hand": "right"
    },
    {
      "midi": 72,
      "time": 49.038,
      "duration": 0.115,
      "velocity": 0.63,
      "hand": "right"
    },
    {
      "midi": 50,
      "time": 49.269,
      "duration": 0.346,
      "velocity": 0.63,
      "hand": "left"
    },
    {
      "midi": 57,
      "time": 49.5,
      "duration": 0.115,
      "velocity": 0.63,
      "hand": "left"
    },
    {
      "midi": 62,
      "time": 49.5,
      "duration": 0.115,
      "velocity": 0.63,
      "hand": "right"
    },
    {
      "midi": 69,
      "time": 49.5,
      "duration": 0.115,
      "velocity": 0.63,
      "hand": "right"
    },
    {
      "midi": 72,
      "time": 49.5,
      "duration": 0.115,
      "velocity": 0.63,
      "hand": "right"
    },
    {
      "midi": 54,
      "time": 49.731,
      "duration": 0.346,
      "velocity": 0.63,
      "hand": "left"
    },
    {
      "midi": 57,
      "time": 49.961,
      "duration": 0.115,
      "velocity": 0.63,
      "hand": "left"
    },
    {
      "midi": 62,
      "time": 49.961,
      "duration": 0.115,
      "velocity": 0.63,
      "hand": "right"
    },
    {
      "midi": 76,
      "time": 49.961,
      "duration": 0.115,
      "velocity": 0.63,
      "hand": "right"
    },
    {
      "midi": 50,
      "time": 50.192,
      "duration": 0.346,
      "velocity": 0.63,
      "hand": "left"
    },
    {
      "midi": 74,
      "time": 50.192,
      "duration": 0.346,
      "velocity": 0.63,
      "hand": "right"
    },
    {
      "midi": 57,
      "time": 50.423,
      "duration": 0.115,
      "velocity": 0.63,
      "hand": "left"
    },
    {
      "midi": 62,
      "time": 50.423,
      "duration": 0.115,
      "velocity": 0.63,
      "hand": "right"
    },
    {
      "midi": 72,
      "time": 50.423,
      "duration": 0.115,
      "velocity": 0.63,
      "hand": "right"
    },
    {
      "midi": 55,
      "time": 50.654,
      "duration": 0.346,
      "velocity": 0.63,
      "hand": "left"
    },
    {
      "midi": 76,
      "time": 50.654,
      "duration": 1.269,
      "velocity": 0.63,
      "hand": "right"
    },
    {
      "midi": 59,
      "time": 50.884,
      "duration": 0.115,
      "velocity": 0.63,
      "hand": "left"
    },
    {
      "midi": 62,
      "time": 50.884,
      "duration": 0.115,
      "velocity": 0.63,
      "hand": "right"
    },
    {
      "midi": 67,
      "time": 50.884,
      "duration": 0.447,
      "velocity": 0.63,
      "hand": "right"
    },
    {
      "midi": 71,
      "time": 50.884,
      "duration": 0.447,
      "velocity": 0.63,
      "hand": "right"
    },
    {
      "midi": 50,
      "time": 51.115,
      "duration": 0.346,
      "velocity": 0.63,
      "hand": "left"
    },
    {
      "midi": 59,
      "time": 51.346,
      "duration": 0.115,
      "velocity": 0.63,
      "hand": "left"
    },
    {
      "midi": 62,
      "time": 51.346,
      "duration": 0.115,
      "velocity": 0.63,
      "hand": "right"
    },
    {
      "midi": 67,
      "time": 51.346,
      "duration": 6.677,
      "velocity": 0.63,
      "hand": "right"
    },
    {
      "midi": 71,
      "time": 51.346,
      "duration": 1.37,
      "velocity": 0.63,
      "hand": "right"
    },
    {
      "midi": 55,
      "time": 51.577,
      "duration": 0.346,
      "velocity": 0.63,
      "hand": "left"
    },
    {
      "midi": 59,
      "time": 51.807,
      "duration": 0.115,
      "velocity": 0.63,
      "hand": "left"
    },
    {
      "midi": 62,
      "time": 51.807,
      "duration": 0.115,
      "velocity": 0.63,
      "hand": "right"
    },
    {
      "midi": 74,
      "time": 51.807,
      "duration": 0.115,
      "velocity": 0.63,
      "hand": "right"
    },
    {
      "midi": 50,
      "time": 52.038,
      "duration": 0.346,
      "velocity": 0.63,
      "hand": "left"
    },
    {
      "midi": 74,
      "time": 52.038,
      "duration": 0.216,
      "velocity": 0.63,
      "hand": "right"
    },
    {
      "midi": 59,
      "time": 52.269,
      "duration": 0.115,
      "velocity": 0.63,
      "hand": "left"
    },
    {
      "midi": 62,
      "time": 52.269,
      "duration": 0.115,
      "velocity": 0.63,
      "hand": "right"
    },
    {
      "midi": 74,
      "time": 52.269,
      "duration": 0.115,
      "velocity": 0.63,
      "hand": "right"
    },
    {
      "midi": 55,
      "time": 52.5,
      "duration": 0.346,
      "velocity": 0.63,
      "hand": "left"
    },
    {
      "midi": 79,
      "time": 52.5,
      "duration": 1.269,
      "velocity": 0.63,
      "hand": "right"
    },
    {
      "midi": 59,
      "time": 52.731,
      "duration": 0.115,
      "velocity": 0.63,
      "hand": "left"
    },
    {
      "midi": 62,
      "time": 52.731,
      "duration": 0.115,
      "velocity": 0.63,
      "hand": "right"
    },
    {
      "midi": 71,
      "time": 52.731,
      "duration": 0.446,
      "velocity": 0.63,
      "hand": "right"
    },
    {
      "midi": 74,
      "time": 52.731,
      "duration": 0.115,
      "velocity": 0.63,
      "hand": "right"
    },
    {
      "midi": 50,
      "time": 52.961,
      "duration": 0.346,
      "velocity": 0.63,
      "hand": "left"
    },
    {
      "midi": 59,
      "time": 53.192,
      "duration": 0.115,
      "velocity": 0.63,
      "hand": "left"
    },
    {
      "midi": 62,
      "time": 53.192,
      "duration": 0.115,
      "velocity": 0.63,
      "hand": "right"
    },
    {
      "midi": 71,
      "time": 53.192,
      "duration": 4.831,
      "velocity": 0.63,
      "hand": "right"
    },
    {
      "midi": 74,
      "time": 53.192,
      "duration": 0.115,
      "velocity": 0.63,
      "hand": "right"
    },
    {
      "midi": 55,
      "time": 53.423,
      "duration": 0.346,
      "velocity": 0.63,
      "hand": "left"
    },
    {
      "midi": 59,
      "time": 53.654,
      "duration": 0.115,
      "velocity": 0.63,
      "hand": "left"
    },
    {
      "midi": 62,
      "time": 53.654,
      "duration": 0.115,
      "velocity": 0.63,
      "hand": "right"
    },
    {
      "midi": 78,
      "time": 53.654,
      "duration": 0.115,
      "velocity": 0.63,
      "hand": "right"
    },
    {
      "midi": 50,
      "time": 53.884,
      "duration": 0.346,
      "velocity": 0.63,
      "hand": "left"
    },
    {
      "midi": 76,
      "time": 53.884,
      "duration": 0.346,
      "velocity": 0.63,
      "hand": "right"
    },
    {
      "midi": 59,
      "time": 54.115,
      "duration": 0.115,
      "velocity": 0.63,
      "hand": "left"
    },
    {
      "midi": 62,
      "time": 54.115,
      "duration": 0.115,
      "velocity": 0.63,
      "hand": "right"
    },
    {
      "midi": 74,
      "time": 54.115,
      "duration": 0.115,
      "velocity": 0.63,
      "hand": "right"
    },
    {
      "midi": 54,
      "time": 54.346,
      "duration": 0.346,
      "velocity": 0.63,
      "hand": "left"
    },
    {
      "midi": 78,
      "time": 54.346,
      "duration": 1.269,
      "velocity": 0.63,
      "hand": "right"
    },
    {
      "midi": 57,
      "time": 54.577,
      "duration": 0.115,
      "velocity": 0.63,
      "hand": "left"
    },
    {
      "midi": 62,
      "time": 54.577,
      "duration": 0.115,
      "velocity": 0.63,
      "hand": "right"
    },
    {
      "midi": 69,
      "time": 54.577,
      "duration": 0.115,
      "velocity": 0.63,
      "hand": "right"
    },
    {
      "midi": 72,
      "time": 54.577,
      "duration": 0.115,
      "velocity": 0.63,
      "hand": "right"
    },
    {
      "midi": 50,
      "time": 54.807,
      "duration": 0.346,
      "velocity": 0.63,
      "hand": "left"
    },
    {
      "midi": 57,
      "time": 55.038,
      "duration": 0.115,
      "velocity": 0.63,
      "hand": "left"
    },
    {
      "midi": 62,
      "time": 55.038,
      "duration": 0.115,
      "velocity": 0.63,
      "hand": "right"
    },
    {
      "midi": 69,
      "time": 55.038,
      "duration": 0.115,
      "velocity": 0.63,
      "hand": "right"
    },
    {
      "midi": 72,
      "time": 55.038,
      "duration": 0.115,
      "velocity": 0.63,
      "hand": "right"
    },
    {
      "midi": 54,
      "time": 55.269,
      "duration": 0.346,
      "velocity": 0.63,
      "hand": "left"
    },
    {
      "midi": 57,
      "time": 55.5,
      "duration": 0.115,
      "velocity": 0.63,
      "hand": "left"
    },
    {
      "midi": 62,
      "time": 55.5,
      "duration": 0.115,
      "velocity": 0.63,
      "hand": "right"
    },
    {
      "midi": 74,
      "time": 55.5,
      "duration": 0.115,
      "velocity": 0.63,
      "hand": "right"
    },
    {
      "midi": 50,
      "time": 55.731,
      "duration": 0.346,
      "velocity": 0.63,
      "hand": "left"
    },
    {
      "midi": 74,
      "time": 55.731,
      "duration": 0.215,
      "velocity": 0.63,
      "hand": "right"
    },
    {
      "midi": 57,
      "time": 55.961,
      "duration": 0.115,
      "velocity": 0.63,
      "hand": "left"
    },
    {
      "midi": 62,
      "time": 55.961,
      "duration": 0.115,
      "velocity": 0.63,
      "hand": "right"
    },
    {
      "midi": 74,
      "time": 55.961,
      "duration": 0.115,
      "velocity": 0.63,
      "hand": "right"
    },
    {
      "midi": 54,
      "time": 56.192,
      "duration": 0.346,
      "velocity": 0.63,
      "hand": "left"
    },
    {
      "midi": 78,
      "time": 56.192,
      "duration": 1.269,
      "velocity": 0.63,
      "hand": "right"
    },
    {
      "midi": 57,
      "time": 56.423,
      "duration": 0.115,
      "velocity": 0.63,
      "hand": "left"
    },
    {
      "midi": 62,
      "time": 56.423,
      "duration": 0.115,
      "velocity": 0.63,
      "hand": "right"
    },
    {
      "midi": 69,
      "time": 56.423,
      "duration": 0.115,
      "velocity": 0.63,
      "hand": "right"
    },
    {
      "midi": 72,
      "time": 56.423,
      "duration": 0.115,
      "velocity": 0.63,
      "hand": "right"
    },
    {
      "midi": 50,
      "time": 56.654,
      "duration": 0.346,
      "velocity": 0.63,
      "hand": "left"
    },
    {
      "midi": 57,
      "time": 56.884,
      "duration": 0.115,
      "velocity": 0.63,
      "hand": "left"
    },
    {
      "midi": 62,
      "time": 56.884,
      "duration": 0.115,
      "velocity": 0.63,
      "hand": "right"
    },
    {
      "midi": 69,
      "time": 56.884,
      "duration": 0.115,
      "velocity": 0.63,
      "hand": "right"
    },
    {
      "midi": 72,
      "time": 56.884,
      "duration": 0.115,
      "velocity": 0.63,
      "hand": "right"
    },
    {
      "midi": 54,
      "time": 57.115,
      "duration": 0.346,
      "velocity": 0.63,
      "hand": "left"
    },
    {
      "midi": 57,
      "time": 57.346,
      "duration": 0.115,
      "velocity": 0.63,
      "hand": "left"
    },
    {
      "midi": 62,
      "time": 57.346,
      "duration": 0.115,
      "velocity": 0.63,
      "hand": "right"
    },
    {
      "midi": 76,
      "time": 57.346,
      "duration": 0.115,
      "velocity": 0.63,
      "hand": "right"
    },
    {
      "midi": 50,
      "time": 57.577,
      "duration": 0.346,
      "velocity": 0.63,
      "hand": "left"
    },
    {
      "midi": 74,
      "time": 57.577,
      "duration": 0.346,
      "velocity": 0.63,
      "hand": "right"
    },
    {
      "midi": 57,
      "time": 57.807,
      "duration": 0.115,
      "velocity": 0.63,
      "hand": "left"
    },
    {
      "midi": 62,
      "time": 57.807,
      "duration": 0.115,
      "velocity": 0.63,
      "hand": "right"
    },
    {
      "midi": 72,
      "time": 57.807,
      "duration": 0.115,
      "velocity": 0.63,
      "hand": "right"
    },
    {
      "midi": 43,
      "time": 58.038,
      "duration": 0.346,
      "velocity": 0.63,
      "hand": "left"
    },
    {
      "midi": 55,
      "time": 58.038,
      "duration": 0.346,
      "velocity": 0.63,
      "hand": "left"
    },
    {
      "midi": 67,
      "time": 58.038,
      "duration": 4.139,
      "velocity": 0.63,
      "hand": "right"
    },
    {
      "midi": 71,
      "time": 58.038,
      "duration": 1.831,
      "velocity": 0.63,
      "hand": "right"
    },
    {
      "midi": 52,
      "time": 58.269,
      "duration": 0.115,
      "velocity": 0.63,
      "hand": "left"
    },
    {
      "midi": 50,
      "time": 58.5,
      "duration": 0.346,
      "velocity": 0.63,
      "hand": "left"
    },
    {
      "midi": 47,
      "time": 58.731,
      "duration": 0.115,
      "velocity": 0.63,
      "hand": "left"
    },
    {
      "midi": 43,
      "time": 58.961,
      "duration": 0.346,
      "velocity": 0.63,
      "hand": "left"
    },
    {
      "midi": 47,
      "time": 59.192,
      "duration": 0.115,
      "velocity": 0.63,
      "hand": "left"
    },
    {
      "midi": 52,
      "time": 59.192,
      "duration": 0.115,
      "velocity": 0.63,
      "hand": "left"
    },
    {
      "midi": 74,
      "time": 59.192,
      "duration": 0.115,
      "velocity": 0.63,
      "hand": "right"
    },
    {
      "midi": 74,
      "time": 59.423,
      "duration": 0.216,
      "velocity": 0.63,
      "hand": "right"
    },
    {
      "midi": 74,
      "time": 59.654,
      "duration": 0.115,
      "velocity": 0.63,
      "hand": "right"
    },
    {
      "midi": 55,
      "time": 59.884,
      "duration": 0.346,
      "velocity": 0.63,
      "hand": "left"
    },
    {
      "midi": 71,
      "time": 59.884,
      "duration": 1.832,
      "velocity": 0.63,
      "hand": "right"
    },
    {
      "midi": 59,
      "time": 60.115,
      "duration": 0.115,
      "velocity": 0.63,
      "hand": "left"
    },
    {
      "midi": 62,
      "time": 60.115,
      "duration": 0.115,
      "velocity": 0.63,
      "hand": "right"
    },
    {
      "midi": 74,
      "time": 60.115,
      "duration": 0.115,
      "velocity": 0.63,
      "hand": "right"
    },
    {
      "midi": 50,
      "time": 60.346,
      "duration": 0.346,
      "velocity": 0.63,
      "hand": "left"
    },
    {
      "midi": 74,
      "time": 60.346,
      "duration": 0.216,
      "velocity": 0.63,
      "hand": "right"
    },
    {
      "midi": 59,
      "time": 60.577,
      "duration": 0.115,
      "velocity": 0.63,
      "hand": "left"
    },
    {
      "midi": 62,
      "time": 60.577,
      "duration": 0.115,
      "velocity": 0.63,
      "hand": "right"
    },
    {
      "midi": 74,
      "time": 60.577,
      "duration": 0.115,
      "velocity": 0.63,
      "hand": "right"
    },
    {
      "midi": 54,
      "time": 60.807,
      "duration": 0.346,
      "velocity": 0.63,
      "hand": "left"
    },
    {
      "midi": 78,
      "time": 60.807,
      "duration": 0.346,
      "velocity": 0.63,
      "hand": "right"
    },
    {
      "midi": 57,
      "time": 61.038,
      "duration": 0.115,
      "velocity": 0.63,
      "hand": "left"
    },
    {
      "midi": 62,
      "time": 61.038,
      "duration": 0.115,
      "velocity": 0.63,
      "hand": "right"
    },
    {
      "midi": 76,
      "time": 61.038,
      "duration": 0.115,
      "velocity": 0.63,
      "hand": "right"
    },
    {
      "midi": 50,
      "time": 61.269,
      "duration": 0.346,
      "velocity": 0.63,
      "hand": "left"
    },
    {
      "midi": 74,
      "time": 61.269,
      "duration": 0.346,
      "velocity": 0.63,
      "hand": "right"
    },
    {
      "midi": 57,
      "time": 61.5,
      "duration": 0.115,
      "velocity": 0.63,
      "hand": "left"
    },
    {
      "midi": 62,
      "time": 61.5,
      "duration": 0.115,
      "velocity": 0.63,
      "hand": "right"
    },
    {
      "midi": 72,
      "time": 61.5,
      "duration": 0.115,
      "velocity": 0.63,
      "hand": "right"
    },
    {
      "midi": 54,
      "time": 61.731,
      "duration": 0.346,
      "velocity": 0.63,
      "hand": "left"
    },
    {
      "midi": 71,
      "time": 61.731,
      "duration": 0.908,
      "velocity": 0.63,
      "hand": "right"
    },
    {
      "midi": 52,
      "time": 61.961,
      "duration": 0.115,
      "velocity": 0.63,
      "hand": "left"
    },
    {
      "midi": 69,
      "time": 61.961,
      "duration": 0.115,
      "velocity": 0.63,
      "hand": "right"
    },
    {
      "midi": 50,
      "time": 62.192,
      "duration": 0.346,
      "velocity": 0.63,
      "hand": "left"
    },
    {
      "midi": 67,
      "time": 62.192,
      "duration": 0.447,
      "velocity": 0.63,
      "hand": "right"
    },
    {
      "midi": 47,
      "time": 62.423,
      "duration": 0.115,
      "velocity": 0.63,
      "hand": "left"
    },
    {
      "midi": 43,
      "time": 62.654,
      "duration": 0.808,
      "velocity": 0.63,
      "hand": "left"
    },
    {
      "midi": 67,
      "time": 62.654,
      "duration": 0.808,
      "velocity": 0.63,
      "hand": "right"
    },
    {
      "midi": 71,
      "time": 62.654,
      "duration": 0.808,
      "velocity": 0.63,
      "hand": "right"
    }
  ]
}
